0, 0, Header, 1, 1, 480
1, 0, Start_track
1, 0, Title_t, "Test"
1, 0, Tempo, 500000
1, 0, Instrument_name_t, "Church Organ"
1, 0, Note_on_c, 1, 62, 127
1, 0, Note_on_c, 1, 50, 127
1, 0, Note_on_c, 1, 38, 127
1, 96, Note_off_c, 1, 62, 0
1, 96, Note_off_c, 1, 50, 0
1, 96, Note_off_c, 1, 38, 0
1, 96, Note_on_c, 1, 64, 127
1, 96, Note_on_c, 1, 52, 127
1, 96, Note_on_c, 1, 40, 127
1, 192, Note_off_c, 1, 64, 0
1, 192, Note_off_c, 1, 52, 0
1, 192, Note_off_c, 1, 40, 0
1, 192, Note_on_c, 1, 65, 127
1, 192, Note_on_c, 1, 53, 127
1, 192, Note_on_c, 1, 41, 127
1, 320, Note_off_c, 1, 65, 0
1, 320, Note_off_c, 1, 53, 0
1, 320, Note_off_c, 1, 41, 0
1, 384, Note_on_c, 1, 64, 127
1, 384, Note_on_c, 1, 52, 127
1, 384, Note_on_c, 1, 40, 127
1, 576, Note_off_c, 1, 64, 0
1, 576, Note_off_c, 1, 52, 0
1, 576, Note_off_c, 1, 40, 0
1, 576, Note_on_c, 1, 62, 127
1, 576, Note_on_c, 1, 50, 127
1, 576, Note_on_c, 1, 38, 127
1, 768, Note_off_c, 1, 62, 0
1, 768, Note_off_c, 1, 50, 0
1, 768, Note_off_c, 1, 38, 0
1, 768, Note_on_c, 1, 69, 127
1, 768, Note_on_c, 1, 57, 127
1, 768, Note_on_c, 1, 45, 127
1, 960, Note_off_c, 1, 69, 0
1, 960, Note_off_c, 1, 57, 0
1, 960, Note_off_c, 1, 45, 0
1, 960, Note_on_c, 1, 74, 127
1, 1344, Note_off_c, 1, 74, 0
1, 1536, Note_on_c, 1, 70, 127
1, 1536, Note_on_c, 1, 58, 127
1, 1536, Note_on_c, 1, 46, 127
1, 1724, Note_off_c, 1, 70, 0
1, 1724, Note_off_c, 1, 58, 0
1, 1724, Note_off_c, 1, 46, 0
1, 1728, Note_on_c, 1, 67, 127
1, 1728, Note_on_c, 1, 55, 127
1, 1728, Note_on_c, 1, 43, 127
1, 1820, Note_off_c, 1, 67, 0
1, 1820, Note_off_c, 1, 55, 0
1, 1820, Note_off_c, 1, 43, 0
1, 1824, Note_on_c, 1, 64, 127
1, 1824, Note_on_c, 1, 52, 127
1, 1824, Note_on_c, 1, 40, 127
1, 1916, Note_off_c, 1, 64, 0
1, 1916, Note_off_c, 1, 52, 0
1, 1916, Note_off_c, 1, 40, 0
1, 1920, Note_on_c, 1, 69, 127
1, 1920, Note_on_c, 1, 57, 127
1, 1920, Note_on_c, 1, 45, 127
1, 2108, Note_off_c, 1, 69, 0
1, 2108, Note_off_c, 1, 57, 0
1, 2108, Note_off_c, 1, 45, 0
1, 2112, Note_on_c, 1, 65, 127
1, 2112, Note_on_c, 1, 53, 127
1, 2112, Note_on_c, 1, 41, 127
1, 2204, Note_off_c, 1, 65, 0
1, 2204, Note_off_c, 1, 53, 0
1, 2204, Note_off_c, 1, 41, 0
1, 2208, Note_on_c, 1, 62, 127
1, 2208, Note_on_c, 1, 50, 127
1, 2208, Note_on_c, 1, 38, 127
1, 2300, Note_off_c, 1, 62, 0
1, 2300, Note_off_c, 1, 50, 0
1, 2300, Note_off_c, 1, 38, 0
1, 2304, Note_on_c, 1, 67, 127
1, 2304, Note_on_c, 1, 55, 127
1, 2304, Note_on_c, 1, 43, 127
1, 2492, Note_off_c, 1, 67, 0
1, 2492, Note_off_c, 1, 55, 0
1, 2492, Note_off_c, 1, 43, 0
1, 2496, Note_on_c, 1, 64, 127
1, 2496, Note_on_c, 1, 52, 127
1, 2496, Note_on_c, 1, 40, 127
1, 2588, Note_off_c, 1, 64, 0
1, 2588, Note_off_c, 1, 52, 0
1, 2588, Note_off_c, 1, 40, 0
1, 2592, Note_on_c, 1, 61, 127
1, 2592, Note_on_c, 1, 49, 127
1, 2592, Note_on_c, 1, 37, 127
1, 2684, Note_off_c, 1, 61, 0
1, 2684, Note_off_c, 1, 49, 0
1, 2684, Note_off_c, 1, 37, 0
1, 2688, Note_on_c, 1, 57, 127
1, 2688, Note_on_c, 1, 45, 127
1, 2688, Note_on_c, 1, 33, 127
1, 2816, Note_off_c, 1, 57, 0
1, 2816, Note_off_c, 1, 45, 0
1, 2816, Note_off_c, 1, 33, 0
1, 2880, Note_on_c, 1, 70, 127
1, 2880, Note_on_c, 1, 58, 127
1, 2880, Note_on_c, 1, 46, 127
1, 3260, Note_off_c, 1, 70, 0
1, 3260, Note_off_c, 1, 58, 0
1, 3260, Note_off_c, 1, 46, 0
1, 3264, Note_on_c, 1, 67, 127
1, 3264, Note_on_c, 1, 55, 127
1, 3264, Note_on_c, 1, 43, 127
1, 3356, Note_off_c, 1, 67, 0
1, 3356, Note_off_c, 1, 55, 0
1, 3356, Note_off_c, 1, 43, 0
1, 3360, Note_on_c, 1, 64, 127
1, 3360, Note_on_c, 1, 52, 127
1, 3360, Note_on_c, 1, 40, 127
1, 3452, Note_off_c, 1, 64, 0
1, 3452, Note_off_c, 1, 52, 0
1, 3452, Note_off_c, 1, 40, 0
1, 3456, Note_on_c, 1, 57, 127
1, 3456, Note_on_c, 1, 45, 127
1, 3456, Note_on_c, 1, 33, 127
1, 3584, Note_off_c, 1, 57, 0
1, 3584, Note_off_c, 1, 45, 0
1, 3584, Note_off_c, 1, 33, 0
1, 3648, Note_on_c, 1, 73, 127
1, 3648, Note_on_c, 1, 61, 127
1, 3648, Note_on_c, 1, 49, 127
1, 4028, Note_off_c, 1, 73, 0
1, 4028, Note_off_c, 1, 61, 0
1, 4028, Note_off_c, 1, 49, 0
1, 4032, Note_on_c, 1, 70, 127
1, 4032, Note_on_c, 1, 58, 127
1, 4032, Note_on_c, 1, 46, 127
1, 4124, Note_off_c, 1, 70, 0
1, 4124, Note_off_c, 1, 58, 0
1, 4124, Note_off_c, 1, 46, 0
1, 4128, Note_on_c, 1, 67, 127
1, 4128, Note_on_c, 1, 55, 127
1, 4128, Note_on_c, 1, 43, 127
1, 4220, Note_off_c, 1, 67, 0
1, 4220, Note_off_c, 1, 55, 0
1, 4220, Note_off_c, 1, 43, 0
1, 4224, Note_on_c, 1, 57, 127
1, 4224, Note_on_c, 1, 45, 127
1, 4224, Note_on_c, 1, 33, 127
1, 4352, Note_off_c, 1, 57, 0
1, 4352, Note_off_c, 1, 45, 0
1, 4352, Note_off_c, 1, 33, 0
1, 4416, Note_on_c, 1, 76, 127
1, 4416, Note_on_c, 1, 64, 127
1, 4416, Note_on_c, 1, 52, 127
1, 4796, Note_off_c, 1, 76, 0
1, 4796, Note_off_c, 1, 64, 0
1, 4796, Note_off_c, 1, 52, 0
1, 4800, Note_on_c, 1, 73, 127
1, 4800, Note_on_c, 1, 61, 127
1, 4800, Note_on_c, 1, 49, 127
1, 4892, Note_off_c, 1, 73, 0
1, 4892, Note_off_c, 1, 61, 0
1, 4892, Note_off_c, 1, 49, 0
1, 4896, Note_on_c, 1, 69, 127
1, 4896, Note_on_c, 1, 57, 127
1, 4896, Note_on_c, 1, 45, 127
1, 4988, Note_off_c, 1, 69, 0
1, 4988, Note_off_c, 1, 57, 0
1, 4988, Note_off_c, 1, 45, 0
1, 4992, Note_on_c, 1, 70, 127
1, 4992, Note_on_c, 1, 58, 127
1, 4992, Note_on_c, 1, 46, 127
1, 5084, Note_off_c, 1, 70, 0
1, 5084, Note_off_c, 1, 58, 0
1, 5084, Note_off_c, 1, 46, 0
1, 5088, Note_on_c, 1, 67, 127
1, 5088, Note_on_c, 1, 55, 127
1, 5088, Note_on_c, 1, 43, 127
1, 5180, Note_off_c, 1, 67, 0
1, 5180, Note_off_c, 1, 55, 0
1, 5180, Note_off_c, 1, 43, 0
1, 5184, Note_on_c, 1, 69, 127
1, 5184, Note_on_c, 1, 57, 127
1, 5184, Note_on_c, 1, 45, 127
1, 5276, Note_off_c, 1, 69, 0
1, 5276, Note_off_c, 1, 57, 0
1, 5276, Note_off_c, 1, 45, 0
1, 5280, Note_on_c, 1, 65, 127
1, 5280, Note_on_c, 1, 53, 127
1, 5280, Note_on_c, 1, 41, 127
1, 5372, Note_off_c, 1, 65, 0
1, 5372, Note_off_c, 1, 53, 0
1, 5372, Note_off_c, 1, 41, 0
1, 5376, Note_on_c, 1, 67, 127
1, 5376, Note_on_c, 1, 55, 127
1, 5376, Note_on_c, 1, 43, 127
1, 5468, Note_off_c, 1, 67, 0
1, 5468, Note_off_c, 1, 55, 0
1, 5468, Note_off_c, 1, 43, 0
1, 5472, Note_on_c, 1, 64, 127
1, 5472, Note_on_c, 1, 52, 127
1, 5472, Note_on_c, 1, 40, 127
1, 5564, Note_off_c, 1, 64, 0
1, 5564, Note_off_c, 1, 52, 0
1, 5564, Note_off_c, 1, 40, 0
1, 5568, Note_on_c, 1, 65, 127
1, 5568, Note_on_c, 1, 53, 127
1, 5568, Note_on_c, 1, 41, 127
1, 5660, Note_off_c, 1, 65, 0
1, 5660, Note_off_c, 1, 53, 0
1, 5660, Note_off_c, 1, 41, 0
1, 5664, Note_on_c, 1, 62, 127
1, 5664, Note_on_c, 1, 50, 127
1, 5664, Note_on_c, 1, 38, 127
1, 5756, Note_off_c, 1, 62, 0
1, 5756, Note_off_c, 1, 50, 0
1, 5756, Note_off_c, 1, 38, 0
1, 5760, Note_on_c, 1, 64, 127
1, 5760, Note_on_c, 1, 52, 127
1, 5760, Note_on_c, 1, 40, 127
1, 5852, Note_off_c, 1, 64, 0
1, 5852, Note_off_c, 1, 52, 0
1, 5852, Note_off_c, 1, 40, 0
1, 5856, Note_on_c, 1, 61, 127
1, 5856, Note_on_c, 1, 49, 127
1, 5856, Note_on_c, 1, 37, 127
1, 5948, Note_off_c, 1, 61, 0
1, 5948, Note_off_c, 1, 49, 0
1, 5948, Note_off_c, 1, 37, 0
1, 5952, Note_on_c, 1, 62, 127
1, 5952, Note_on_c, 1, 50, 127
1, 5952, Note_on_c, 1, 38, 127
1, 6044, Note_off_c, 1, 62, 0
1, 6044, Note_off_c, 1, 50, 0
1, 6044, Note_off_c, 1, 38, 0
1, 6048, Note_on_c, 1, 59, 127
1, 6048, Note_on_c, 1, 47, 127
1, 6048, Note_on_c, 1, 35, 127
1, 6140, Note_off_c, 1, 59, 0
1, 6140, Note_off_c, 1, 47, 0
1, 6140, Note_off_c, 1, 35, 0
1, 6144, Note_on_c, 1, 61, 127
1, 6144, Note_on_c, 1, 49, 127
1, 6144, Note_on_c, 1, 37, 127
1, 6236, Note_off_c, 1, 61, 0
1, 6236, Note_off_c, 1, 49, 0
1, 6236, Note_off_c, 1, 37, 0
1, 6240, Note_on_c, 1, 57, 127
1, 6240, Note_on_c, 1, 45, 127
1, 6240, Note_on_c, 1, 33, 127
1, 6332, Note_off_c, 1, 57, 0
1, 6332, Note_off_c, 1, 45, 0
1, 6332, Note_off_c, 1, 33, 0
1, 6336, Note_on_c, 1, 59, 127
1, 6336, Note_on_c, 1, 47, 127
1, 6336, Note_on_c, 1, 35, 127
1, 6428, Note_off_c, 1, 59, 0
1, 6428, Note_off_c, 1, 47, 0
1, 6428, Note_off_c, 1, 35, 0
1, 6432, Note_on_c, 1, 61, 127
1, 6432, Note_on_c, 1, 49, 127
1, 6432, Note_on_c, 1, 37, 127
1, 6524, Note_off_c, 1, 61, 0
1, 6524, Note_off_c, 1, 49, 0
1, 6524, Note_off_c, 1, 37, 0
1, 6528, Note_on_c, 1, 62, 127
1, 6528, Note_on_c, 1, 50, 127
1, 6528, Note_on_c, 1, 38, 127
1, 6620, Note_off_c, 1, 62, 0
1, 6620, Note_off_c, 1, 50, 0
1, 6620, Note_off_c, 1, 38, 0
1, 6624, Note_on_c, 1, 64, 127
1, 6624, Note_on_c, 1, 52, 127
1, 6624, Note_on_c, 1, 40, 127
1, 6716, Note_off_c, 1, 64, 0
1, 6716, Note_off_c, 1, 52, 0
1, 6716, Note_off_c, 1, 40, 0
1, 6720, Note_on_c, 1, 65, 127
1, 6720, Note_on_c, 1, 53, 127
1, 6720, Note_on_c, 1, 41, 127
1, 6812, Note_off_c, 1, 65, 0
1, 6812, Note_off_c, 1, 53, 0
1, 6812, Note_off_c, 1, 41, 0
1, 6816, Note_on_c, 1, 67, 127
1, 6816, Note_on_c, 1, 55, 127
1, 6816, Note_on_c, 1, 43, 127
1, 6908, Note_off_c, 1, 67, 0
1, 6908, Note_off_c, 1, 55, 0
1, 6908, Note_off_c, 1, 43, 0
1, 6912, Note_on_c, 1, 69, 127
1, 6912, Note_on_c, 1, 57, 127
1, 6912, Note_on_c, 1, 45, 127
1, 7004, Note_off_c, 1, 69, 0
1, 7004, Note_off_c, 1, 57, 0
1, 7004, Note_off_c, 1, 45, 0
1, 7008, Note_on_c, 1, 70, 127
1, 7008, Note_on_c, 1, 58, 127
1, 7008, Note_on_c, 1, 46, 127
1, 7100, Note_off_c, 1, 70, 0
1, 7100, Note_off_c, 1, 58, 0
1, 7100, Note_off_c, 1, 46, 0
1, 7104, Note_on_c, 1, 72, 127
1, 7104, Note_on_c, 1, 60, 127
1, 7104, Note_on_c, 1, 48, 127
1, 7232, Note_off_c, 1, 72, 0
1, 7232, Note_off_c, 1, 60, 0
1, 7232, Note_off_c, 1, 48, 0
1, 7296, Note_on_c, 1, 72, 127
1, 7296, Note_on_c, 1, 60, 127
1, 7296, Note_on_c, 1, 48, 127
1, 7388, Note_off_c, 1, 72, 0
1, 7388, Note_off_c, 1, 60, 0
1, 7388, Note_off_c, 1, 48, 0
1, 7392, Note_on_c, 1, 74, 127
1, 7392, Note_on_c, 1, 62, 127
1, 7392, Note_on_c, 1, 50, 127
1, 7484, Note_off_c, 1, 74, 0
1, 7484, Note_off_c, 1, 62, 0
1, 7484, Note_off_c, 1, 50, 0
1, 7488, Note_on_c, 1, 75, 127
1, 7488, Note_on_c, 1, 63, 127
1, 7488, Note_on_c, 1, 51, 127
1, 7616, Note_off_c, 1, 75, 0
1, 7616, Note_off_c, 1, 63, 0
1, 7616, Note_off_c, 1, 51, 0
1, 7680, Note_on_c, 1, 66, 127
1, 7680, Note_on_c, 1, 54, 127
1, 7680, Note_on_c, 1, 42, 127
1, 7788, Note_off_c, 1, 66, 0
1, 7788, Note_off_c, 1, 54, 0
1, 7788, Note_off_c, 1, 42, 0
1, 7872, Note_on_c, 1, 67, 127
1, 7872, Note_on_c, 1, 55, 127
1, 7872, Note_on_c, 1, 43, 127
1, 7980, Note_off_c, 1, 67, 0
1, 7980, Note_off_c, 1, 55, 0
1, 7980, Note_off_c, 1, 43, 0
1, 8064, Note_on_c, 1, 61, 127
1, 8064, Note_on_c, 1, 49, 127
1, 8064, Note_on_c, 1, 37, 127
1, 8172, Note_off_c, 1, 61, 0
1, 8172, Note_off_c, 1, 49, 0
1, 8172, Note_off_c, 1, 37, 0
1, 8256, Note_on_c, 1, 62, 127
1, 8256, Note_on_c, 1, 50, 127
1, 8256, Note_on_c, 1, 38, 127
1, 8364, Note_off_c, 1, 62, 0
1, 8364, Note_off_c, 1, 50, 0
1, 8364, Note_off_c, 1, 38, 0
1, 8448, Note_on_c, 1, 56, 127
1, 8448, Note_on_c, 1, 44, 127
1, 8448, Note_on_c, 1, 32, 127
1, 8636, Note_off_c, 1, 56, 0
1, 8636, Note_off_c, 1, 44, 0
1, 8636, Note_off_c, 1, 32, 0
1, 8832, Note_on_c, 1, 57, 127
1, 8832, Note_on_c, 1, 45, 127
1, 8832, Note_on_c, 1, 33, 127
1, 9020, Note_off_c, 1, 57, 0
1, 9020, Note_off_c, 1, 45, 0
1, 9020, Note_off_c, 1, 33, 0
1, 9216, Note_on_c, 1, 62, 127
1, 9216, Note_on_c, 1, 38, 127
1, 9216, Note_on_c, 1, 26, 127
1, 9216, Note_on_c, 1, 50, 127
1, 9264, Note_on_c, 1, 64, 127
1, 9308, Note_off_c, 1, 64, 0
1, 9312, Note_on_c, 1, 65, 127
1, 9356, Note_off_c, 1, 65, 0
1, 9360, Note_on_c, 1, 67, 127
1, 9404, Note_off_c, 1, 62, 0
1, 9404, Note_off_c, 1, 67, 0
1, 9408, Note_on_c, 1, 69, 127
1, 9500, Note_off_c, 1, 69, 0
1, 9596, Note_off_c, 1, 38, 0
1, 9596, Note_off_c, 1, 26, 0
1, 9596, Note_off_c, 1, 50, 0
1, 9600, Note_on_c, 1, 74, 127
1, 9600, Note_on_c, 1, 69, 127
1, 9600, Note_on_c, 1, 62, 127
1, 9600, Note_on_c, 1, 65, 127
1, 9692, Note_off_c, 1, 65, 0
1, 9788, Note_off_c, 1, 74, 0
1, 9788, Note_off_c, 1, 69, 0
1, 9788, Note_off_c, 1, 62, 0
1, 9792, Note_on_c, 1, 73, 127
1, 9792, Note_on_c, 1, 67, 127
1, 9792, Note_on_c, 1, 62, 127
1, 9792, Note_on_c, 1, 64, 127
1, 9884, Note_off_c, 1, 64, 0
1, 9888, Note_on_c, 1, 61, 127
1, 9980, Note_off_c, 1, 73, 0
1, 9980, Note_off_c, 1, 67, 0
1, 9980, Note_off_c, 1, 62, 0
1, 9980, Note_off_c, 1, 61, 0
1, 9984, Note_on_c, 1, 62, 127
1, 9984, Note_on_c, 1, 50, 127
1, 9984, Note_on_c, 1, 38, 127
1, 10080, Note_on_c, 1, 57, 127
1, 10172, Note_off_c, 1, 62, 0
1, 10172, Note_off_c, 1, 57, 0
1, 10176, Note_on_c, 1, 58, 127
1, 10268, Note_off_c, 1, 58, 0
1, 10272, Note_on_c, 1, 55, 127
1, 10364, Note_off_c, 1, 50, 0
1, 10364, Note_off_c, 1, 38, 0
1, 10364, Note_off_c, 1, 55, 0
1, 10368, Note_on_c, 1, 77, 127
1, 10368, Note_on_c, 1, 74, 127
1, 10368, Note_on_c, 1, 62, 127
1, 10368, Note_on_c, 1, 57, 127
1, 10460, Note_off_c, 1, 57, 0
1, 10556, Note_off_c, 1, 77, 0
1, 10556, Note_off_c, 1, 74, 0
1, 10556, Note_off_c, 1, 62, 0
1, 10560, Note_on_c, 1, 76, 127
1, 10560, Note_on_c, 1, 73, 127
1, 10560, Note_on_c, 1, 62, 127
1, 10560, Note_on_c, 1, 64, 127
1, 10652, Note_off_c, 1, 64, 0
1, 10656, Note_on_c, 1, 61, 127
1, 10748, Note_off_c, 1, 76, 0
1, 10748, Note_off_c, 1, 73, 0
1, 10748, Note_off_c, 1, 62, 0
1, 10748, Note_off_c, 1, 61, 0
1, 10752, Note_on_c, 1, 62, 127
1, 10752, Note_on_c, 1, 50, 127
1, 10752, Note_on_c, 1, 38, 127
1, 10848, Note_on_c, 1, 65, 127
1, 10940, Note_off_c, 1, 62, 0
1, 10940, Note_off_c, 1, 65, 0
1, 10944, Note_on_c, 1, 67, 127
1, 11036, Note_off_c, 1, 67, 0
1, 11040, Note_on_c, 1, 64, 127
1, 11132, Note_off_c, 1, 50, 0
1, 11132, Note_off_c, 1, 38, 0
1, 11132, Note_off_c, 1, 64, 0
1, 11136, Note_on_c, 1, 81, 127
1, 11136, Note_on_c, 1, 74, 127
1, 11136, Note_on_c, 1, 62, 127
1, 11136, Note_on_c, 1, 65, 127
1, 11228, Note_off_c, 1, 65, 0
1, 11232, Note_on_c, 1, 69, 127
1, 11324, Note_off_c, 1, 81, 0
1, 11324, Note_off_c, 1, 74, 0
1, 11324, Note_off_c, 1, 62, 0
1, 11324, Note_off_c, 1, 69, 0
1, 11328, Note_on_c, 1, 79, 127
1, 11328, Note_on_c, 1, 73, 127
1, 11328, Note_on_c, 1, 62, 127
1, 11328, Note_on_c, 1, 70, 127
1, 11420, Note_off_c, 1, 70, 0
1, 11424, Note_on_c, 1, 67, 127
1, 11516, Note_off_c, 1, 79, 0
1, 11516, Note_off_c, 1, 73, 0
1, 11516, Note_off_c, 1, 62, 0
1, 11516, Note_off_c, 1, 67, 0
1, 11520, Note_on_c, 1, 62, 127
1, 11520, Note_on_c, 1, 38, 127
1, 11520, Note_on_c, 1, 26, 127
1, 11520, Note_on_c, 1, 69, 127
1, 11520, Note_on_c, 1, 50, 127
1, 11564, Note_off_c, 1, 69, 0
1, 11564, Note_off_c, 1, 50, 0
1, 11568, Note_on_c, 1, 73, 127
1, 11568, Note_on_c, 1, 52, 127
1, 11612, Note_off_c, 1, 73, 0
1, 11612, Note_off_c, 1, 52, 0
1, 11616, Note_on_c, 1, 74, 127
1, 11616, Note_on_c, 1, 53, 127
1, 11660, Note_off_c, 1, 74, 0
1, 11660, Note_off_c, 1, 53, 0
1, 11664, Note_on_c, 1, 76, 127
1, 11664, Note_on_c, 1, 55, 127
1, 11708, Note_off_c, 1, 62, 0
1, 11708, Note_off_c, 1, 76, 0
1, 11708, Note_off_c, 1, 55, 0
1, 11712, Note_on_c, 1, 77, 127
1, 11712, Note_on_c, 1, 57, 127
1, 11804, Note_off_c, 1, 77, 0
1, 11804, Note_off_c, 1, 57, 0
1, 11900, Note_off_c, 1, 38, 0
1, 11900, Note_off_c, 1, 26, 0
1, 11904, Note_on_c, 1, 77, 127
1, 11904, Note_on_c, 1, 74, 127
1, 11904, Note_on_c, 1, 62, 127
1, 11904, Note_on_c, 1, 53, 127
1, 11996, Note_off_c, 1, 53, 0
1, 12000, Note_on_c, 1, 69, 127
1, 12000, Note_on_c, 1, 50, 127
1, 12092, Note_off_c, 1, 77, 0
1, 12092, Note_off_c, 1, 74, 0
1, 12092, Note_off_c, 1, 62, 0
1, 12092, Note_off_c, 1, 69, 0
1, 12092, Note_off_c, 1, 50, 0
1, 12096, Note_on_c, 1, 76, 127
1, 12096, Note_on_c, 1, 73, 127
1, 12096, Note_on_c, 1, 62, 127
1, 12096, Note_on_c, 1, 70, 127
1, 12096, Note_on_c, 1, 55, 127
1, 12188, Note_off_c, 1, 70, 0
1, 12188, Note_off_c, 1, 55, 0
1, 12192, Note_on_c, 1, 67, 127
1, 12192, Note_on_c, 1, 52, 127
1, 12284, Note_off_c, 1, 76, 0
1, 12284, Note_off_c, 1, 73, 0
1, 12284, Note_off_c, 1, 62, 0
1, 12284, Note_off_c, 1, 67, 0
1, 12284, Note_off_c, 1, 52, 0
1, 12288, Note_on_c, 1, 62, 127
1, 12288, Note_on_c, 1, 69, 127
1, 12288, Note_on_c, 1, 53, 127
1, 12380, Note_off_c, 1, 69, 0
1, 12380, Note_off_c, 1, 53, 0
1, 12384, Note_on_c, 1, 65, 127
1, 12384, Note_on_c, 1, 50, 127
1, 12476, Note_off_c, 1, 62, 0
1, 12476, Note_off_c, 1, 65, 0
1, 12476, Note_off_c, 1, 50, 0
1, 12480, Note_on_c, 1, 62, 127
1, 12480, Note_on_c, 1, 67, 127
1, 12480, Note_on_c, 1, 52, 127
1, 12572, Note_off_c, 1, 67, 0
1, 12572, Note_off_c, 1, 52, 0
1, 12576, Note_on_c, 1, 64, 127
1, 12576, Note_on_c, 1, 49, 127
1, 12668, Note_off_c, 1, 62, 0
1, 12668, Note_off_c, 1, 64, 0
1, 12668, Note_off_c, 1, 49, 0
1, 12672, Note_on_c, 1, 74, 127
1, 12672, Note_on_c, 1, 69, 127
1, 12672, Note_on_c, 1, 62, 127
1, 12672, Note_on_c, 1, 65, 127
1, 12672, Note_on_c, 1, 50, 127
1, 12764, Note_off_c, 1, 65, 0
1, 12764, Note_off_c, 1, 50, 0
1, 12768, Note_on_c, 1, 53, 127
1, 12860, Note_off_c, 1, 74, 0
1, 12860, Note_off_c, 1, 69, 0
1, 12860, Note_off_c, 1, 62, 0
1, 12860, Note_off_c, 1, 53, 0
1, 12864, Note_on_c, 1, 73, 127
1, 12864, Note_on_c, 1, 67, 127
1, 12864, Note_on_c, 1, 62, 127
1, 12864, Note_on_c, 1, 70, 127
1, 12864, Note_on_c, 1, 55, 127
1, 12956, Note_off_c, 1, 70, 0
1, 12956, Note_off_c, 1, 55, 0
1, 12960, Note_on_c, 1, 52, 127
1, 13052, Note_off_c, 1, 73, 0
1, 13052, Note_off_c, 1, 67, 0
1, 13052, Note_off_c, 1, 62, 0
1, 13052, Note_off_c, 1, 52, 0
1, 13056, Note_on_c, 1, 62, 127
1, 13056, Note_on_c, 1, 69, 127
1, 13056, Note_on_c, 1, 53, 127
1, 13148, Note_off_c, 1, 69, 0
1, 13148, Note_off_c, 1, 53, 0
1, 13152, Note_on_c, 1, 74, 127
1, 13152, Note_on_c, 1, 65, 127
1, 13244, Note_off_c, 1, 62, 0
1, 13244, Note_off_c, 1, 74, 0
1, 13244, Note_off_c, 1, 65, 0
1, 13248, Note_on_c, 1, 62, 127
1, 13248, Note_on_c, 1, 76, 127
1, 13248, Note_on_c, 1, 67, 127
1, 13340, Note_off_c, 1, 76, 0
1, 13340, Note_off_c, 1, 67, 0
1, 13344, Note_on_c, 1, 73, 127
1, 13344, Note_on_c, 1, 64, 127
1, 13436, Note_off_c, 1, 62, 0
1, 13436, Note_off_c, 1, 73, 0
1, 13436, Note_off_c, 1, 64, 0
1, 13440, Note_on_c, 1, 74, 127
1, 13440, Note_on_c, 1, 65, 127
1, 13440, Note_on_c, 1, 62, 127
1, 13536, Note_on_c, 1, 77, 127
1, 13536, Note_on_c, 1, 69, 127
1, 13628, Note_off_c, 1, 74, 0
1, 13628, Note_off_c, 1, 65, 0
1, 13628, Note_off_c, 1, 62, 0
1, 13628, Note_off_c, 1, 77, 0
1, 13628, Note_off_c, 1, 69, 0
1, 13632, Note_on_c, 1, 73, 127
1, 13632, Note_on_c, 1, 64, 127
1, 13632, Note_on_c, 1, 62, 127
1, 13632, Note_on_c, 1, 79, 127
1, 13632, Note_on_c, 1, 70, 127
1, 13724, Note_off_c, 1, 79, 0
1, 13724, Note_off_c, 1, 70, 0
1, 13728, Note_on_c, 1, 76, 127
1, 13728, Note_on_c, 1, 67, 127
1, 13820, Note_off_c, 1, 73, 0
1, 13820, Note_off_c, 1, 64, 0
1, 13820, Note_off_c, 1, 62, 0
1, 13820, Note_off_c, 1, 76, 0
1, 13820, Note_off_c, 1, 67, 0
1, 13824, Note_on_c, 1, 62, 127
1, 13824, Note_on_c, 1, 38, 127
1, 13824, Note_on_c, 1, 26, 127
1, 13824, Note_on_c, 1, 77, 127
1, 13824, Note_on_c, 1, 69, 127
1, 13868, Note_off_c, 1, 77, 0
1, 13868, Note_off_c, 1, 69, 0
1, 13872, Note_on_c, 1, 81, 127
1, 13872, Note_on_c, 1, 67, 127
1, 13916, Note_off_c, 1, 81, 0
1, 13916, Note_off_c, 1, 67, 0
1, 13920, Note_on_c, 1, 83, 127
1, 13920, Note_on_c, 1, 65, 127
1, 13964, Note_off_c, 1, 83, 0
1, 13964, Note_off_c, 1, 65, 0
1, 13968, Note_on_c, 1, 85, 127
1, 13968, Note_on_c, 1, 64, 127
1, 14012, Note_off_c, 1, 62, 0
1, 14012, Note_off_c, 1, 85, 0
1, 14012, Note_off_c, 1, 64, 0
1, 14016, Note_on_c, 1, 86, 127
1, 14108, Note_off_c, 1, 86, 0
1, 14204, Note_off_c, 1, 38, 0
1, 14204, Note_off_c, 1, 26, 0
1, 14208, Note_on_c, 1, 67, 127
1, 14208, Note_on_c, 1, 62, 127
1, 14208, Note_on_c, 1, 82, 127
1, 14208, Note_on_c, 1, 74, 127
1, 14300, Note_off_c, 1, 82, 0
1, 14304, Note_on_c, 1, 79, 127
1, 14396, Note_off_c, 1, 67, 0
1, 14396, Note_off_c, 1, 62, 0
1, 14396, Note_off_c, 1, 74, 0
1, 14396, Note_off_c, 1, 79, 0
1, 14400, Note_on_c, 1, 64, 127
1, 14400, Note_on_c, 1, 61, 127
1, 14400, Note_on_c, 1, 62, 127
1, 14400, Note_on_c, 1, 81, 127
1, 14492, Note_off_c, 1, 81, 0
1, 14496, Note_on_c, 1, 76, 127
1, 14588, Note_off_c, 1, 64, 0
1, 14588, Note_off_c, 1, 61, 0
1, 14588, Note_off_c, 1, 62, 0
1, 14588, Note_off_c, 1, 76, 0
1, 14592, Note_on_c, 1, 62, 127
1, 14592, Note_on_c, 1, 77, 127
1, 14592, Note_on_c, 1, 57, 127
1, 14636, Note_off_c, 1, 57, 0
1, 14684, Note_off_c, 1, 77, 0
1, 14688, Note_on_c, 1, 76, 127
1, 14688, Note_on_c, 1, 64, 127
1, 14732, Note_off_c, 1, 64, 0
1, 14736, Note_on_c, 1, 65, 127
1, 14780, Note_off_c, 1, 62, 0
1, 14780, Note_off_c, 1, 76, 0
1, 14780, Note_off_c, 1, 65, 0
1, 14784, Note_on_c, 1, 62, 127
1, 14784, Note_on_c, 1, 77, 127
1, 14784, Note_on_c, 1, 67, 127
1, 14876, Note_off_c, 1, 77, 0
1, 14876, Note_off_c, 1, 67, 0
1, 14880, Note_on_c, 1, 73, 127
1, 14880, Note_on_c, 1, 64, 127
1, 14972, Note_off_c, 1, 62, 0
1, 14972, Note_off_c, 1, 73, 0
1, 14972, Note_off_c, 1, 64, 0
1, 14976, Note_on_c, 1, 65, 127
1, 14976, Note_on_c, 1, 62, 127
1, 14976, Note_on_c, 1, 74, 127
1, 15068, Note_off_c, 1, 74, 0
1, 15072, Note_on_c, 1, 77, 127
1, 15072, Note_on_c, 1, 69, 127
1, 15164, Note_off_c, 1, 65, 0
1, 15164, Note_off_c, 1, 62, 0
1, 15164, Note_off_c, 1, 77, 0
1, 15164, Note_off_c, 1, 69, 0
1, 15168, Note_on_c, 1, 64, 127
1, 15168, Note_on_c, 1, 61, 127
1, 15168, Note_on_c, 1, 62, 127
1, 15168, Note_on_c, 1, 79, 127
1, 15168, Note_on_c, 1, 70, 127
1, 15260, Note_off_c, 1, 79, 0
1, 15260, Note_off_c, 1, 70, 0
1, 15264, Note_on_c, 1, 76, 127
1, 15264, Note_on_c, 1, 67, 127
1, 15356, Note_off_c, 1, 64, 0
1, 15356, Note_off_c, 1, 61, 0
1, 15356, Note_off_c, 1, 62, 0
1, 15356, Note_off_c, 1, 76, 0
1, 15356, Note_off_c, 1, 67, 0
1, 15360, Note_on_c, 1, 62, 127
1, 15360, Note_on_c, 1, 77, 127
1, 15360, Note_on_c, 1, 69, 127
1, 15452, Note_off_c, 1, 77, 0
1, 15452, Note_off_c, 1, 69, 0
1, 15456, Note_on_c, 1, 81, 127
1, 15456, Note_on_c, 1, 65, 127
1, 15548, Note_off_c, 1, 62, 0
1, 15548, Note_off_c, 1, 81, 0
1, 15548, Note_off_c, 1, 65, 0
1, 15552, Note_on_c, 1, 62, 127
1, 15552, Note_on_c, 1, 82, 127
1, 15552, Note_on_c, 1, 67, 127
1, 15644, Note_off_c, 1, 82, 0
1, 15644, Note_off_c, 1, 67, 0
1, 15648, Note_on_c, 1, 79, 127
1, 15648, Note_on_c, 1, 64, 127
1, 15740, Note_off_c, 1, 62, 0
1, 15740, Note_off_c, 1, 79, 0
1, 15740, Note_off_c, 1, 64, 0
1, 15744, Note_on_c, 1, 62, 127
1, 15744, Note_on_c, 1, 65, 127
1, 15744, Note_on_c, 1, 81, 127
1, 15836, Note_off_c, 1, 81, 0
1, 15840, Note_on_c, 1, 86, 127
1, 15932, Note_off_c, 1, 62, 0
1, 15932, Note_off_c, 1, 65, 0
1, 15932, Note_off_c, 1, 86, 0
1, 15936, Note_on_c, 1, 61, 127
1, 15936, Note_on_c, 1, 64, 127
1, 15936, Note_on_c, 1, 62, 127
1, 15936, Note_on_c, 1, 82, 127
1, 15936, Note_on_c, 1, 67, 127
1, 16028, Note_off_c, 1, 82, 0
1, 16028, Note_off_c, 1, 67, 0
1, 16032, Note_on_c, 1, 79, 127
1, 16124, Note_off_c, 1, 61, 0
1, 16124, Note_off_c, 1, 64, 0
1, 16124, Note_off_c, 1, 62, 0
1, 16124, Note_off_c, 1, 79, 0
1, 16128, Note_on_c, 1, 62, 127
1, 16128, Note_on_c, 1, 65, 127
1, 16128, Note_on_c, 1, 38, 127
1, 16128, Note_on_c, 1, 26, 127
1, 16128, Note_on_c, 1, 81, 127
1, 16220, Note_off_c, 1, 81, 0
1, 16224, Note_on_c, 1, 86, 127
1, 16316, Note_off_c, 1, 86, 0
1, 16320, Note_on_c, 1, 79, 127
1, 16320, Note_on_c, 1, 58, 127
1, 16412, Note_off_c, 1, 79, 0
1, 16412, Note_off_c, 1, 58, 0
1, 16416, Note_on_c, 1, 76, 127
1, 16416, Note_on_c, 1, 55, 127
1, 16508, Note_off_c, 1, 62, 0
1, 16508, Note_off_c, 1, 65, 0
1, 16508, Note_off_c, 1, 38, 0
1, 16508, Note_off_c, 1, 26, 0
1, 16508, Note_off_c, 1, 76, 0
1, 16508, Note_off_c, 1, 55, 0
1, 16512, Note_on_c, 1, 62, 127
1, 16512, Note_on_c, 1, 77, 127
1, 16512, Note_on_c, 1, 57, 127
1, 16604, Note_off_c, 1, 77, 0
1, 16604, Note_off_c, 1, 57, 0
1, 16608, Note_on_c, 1, 86, 127
1, 16608, Note_on_c, 1, 53, 127
1, 16700, Note_off_c, 1, 62, 0
1, 16700, Note_off_c, 1, 86, 0
1, 16700, Note_off_c, 1, 53, 0
1, 16704, Note_on_c, 1, 62, 127
1, 16704, Note_on_c, 1, 76, 127
1, 16704, Note_on_c, 1, 55, 127
1, 16796, Note_off_c, 1, 76, 0
1, 16796, Note_off_c, 1, 55, 0
1, 16800, Note_on_c, 1, 73, 127
1, 16800, Note_on_c, 1, 52, 127
1, 16892, Note_off_c, 1, 62, 0
1, 16892, Note_off_c, 1, 73, 0
1, 16892, Note_off_c, 1, 52, 0
1, 16896, Note_on_c, 1, 62, 127
1, 16896, Note_on_c, 1, 74, 127
1, 16896, Note_on_c, 1, 53, 127
1, 16988, Note_off_c, 1, 74, 0
1, 16988, Note_off_c, 1, 53, 0
1, 16992, Note_on_c, 1, 86, 127
1, 16992, Note_on_c, 1, 38, 127
1, 17084, Note_off_c, 1, 86, 0
1, 17084, Note_off_c, 1, 38, 0
1, 17088, Note_on_c, 1, 81, 127
1, 17088, Note_on_c, 1, 41, 127
1, 17180, Note_off_c, 1, 81, 0
1, 17180, Note_off_c, 1, 41, 0
1, 17184, Note_on_c, 1, 77, 127
1, 17184, Note_on_c, 1, 45, 127
1, 17276, Note_off_c, 1, 62, 0
1, 17276, Note_off_c, 1, 77, 0
1, 17276, Note_off_c, 1, 45, 0
1, 17280, Note_on_c, 1, 74, 127
1, 17280, Note_on_c, 1, 50, 127
1, 17372, Note_off_c, 1, 74, 0
1, 17372, Note_off_c, 1, 50, 0
1, 17376, Note_on_c, 1, 81, 127
1, 17376, Note_on_c, 1, 41, 127
1, 17468, Note_off_c, 1, 81, 0
1, 17468, Note_off_c, 1, 41, 0
1, 17472, Note_on_c, 1, 77, 127
1, 17472, Note_on_c, 1, 45, 127
1, 17564, Note_off_c, 1, 77, 0
1, 17564, Note_off_c, 1, 45, 0
1, 17568, Note_on_c, 1, 74, 127
1, 17568, Note_on_c, 1, 50, 127
1, 17660, Note_off_c, 1, 74, 0
1, 17660, Note_off_c, 1, 50, 0
1, 17664, Note_on_c, 1, 69, 127
1, 17664, Note_on_c, 1, 53, 127
1, 17756, Note_off_c, 1, 69, 0
1, 17756, Note_off_c, 1, 53, 0
1, 17760, Note_on_c, 1, 77, 127
1, 17760, Note_on_c, 1, 45, 127
1, 17852, Note_off_c, 1, 77, 0
1, 17852, Note_off_c, 1, 45, 0
1, 17856, Note_on_c, 1, 74, 127
1, 17856, Note_on_c, 1, 50, 127
1, 17948, Note_off_c, 1, 74, 0
1, 17948, Note_off_c, 1, 50, 0
1, 17952, Note_on_c, 1, 69, 127
1, 17952, Note_on_c, 1, 53, 127
1, 18044, Note_off_c, 1, 69, 0
1, 18044, Note_off_c, 1, 53, 0
1, 18048, Note_on_c, 1, 65, 127
1, 18048, Note_on_c, 1, 57, 127
1, 18140, Note_off_c, 1, 65, 0
1, 18140, Note_off_c, 1, 57, 0
1, 18144, Note_on_c, 1, 74, 127
1, 18144, Note_on_c, 1, 50, 127
1, 18236, Note_off_c, 1, 74, 0
1, 18236, Note_off_c, 1, 50, 0
1, 18240, Note_on_c, 1, 69, 127
1, 18240, Note_on_c, 1, 53, 127
1, 18332, Note_off_c, 1, 69, 0
1, 18332, Note_off_c, 1, 53, 0
1, 18336, Note_on_c, 1, 65, 127
1, 18336, Note_on_c, 1, 57, 127
1, 18428, Note_off_c, 1, 65, 0
1, 18428, Note_off_c, 1, 57, 0
1, 18432, Note_on_c, 1, 62, 127
1, 18432, Note_on_c, 1, 38, 127
1, 18432, Note_on_c, 1, 26, 127
1, 18528, Note_on_c, 1, 64, 127
1, 18620, Note_off_c, 1, 62, 0
1, 18624, Note_off_c, 1, 64, 0
1, 18624, Note_on_c, 1, 65, 127
1, 18812, Note_off_c, 1, 65, 0
1, 18816, Note_off_c, 1, 38, 0
1, 18816, Note_off_c, 1, 26, 0
1, 19200, Note_on_c, 1, 69, 127
1, 19200, Note_on_c, 1, 50, 127
1, 19296, Note_off_c, 1, 50, 0
1, 19296, Note_on_c, 1, 67, 127
1, 19296, Note_on_c, 1, 52, 127
1, 19296, Note_on_c, 1, 40, 127
1, 19388, Note_off_c, 1, 67, 0
1, 19392, Note_off_c, 1, 52, 0
1, 19392, Note_off_c, 1, 40, 0
1, 19392, Note_on_c, 1, 74, 127
1, 19392, Note_on_c, 1, 53, 127
1, 19392, Note_on_c, 1, 41, 127
1, 19520, Note_off_c, 1, 69, 0
1, 19520, Note_off_c, 1, 41, 0
1, 19580, Note_off_c, 1, 53, 0
1, 19776, Note_off_c, 1, 74, 0
1, 19968, Note_on_c, 1, 70, 127
1, 19968, Note_on_c, 1, 55, 127
1, 19968, Note_on_c, 1, 43, 127
1, 20156, Note_off_c, 1, 70, 0
1, 20160, Note_off_c, 1, 55, 0
1, 20160, Note_off_c, 1, 43, 0
1, 20256, Note_on_c, 1, 61, 127
1, 20348, Note_off_c, 1, 61, 0
1, 20640, Note_on_c, 1, 58, 127
1, 20732, Note_off_c, 1, 58, 0
1, 21120, Note_on_c, 1, 57, 127
1, 21308, Note_off_c, 1, 57, 0
1, 21504, Note_on_c, 1, 49, 127
1, 21504, Note_on_c, 1, 37, 127
1, 21696, Note_off_c, 1, 49, 0
1, 21696, Note_off_c, 1, 37, 0
1, 22080, Note_on_c, 1, 73, 127
1, 22460, Note_off_c, 1, 73, 0
1, 22848, Note_on_c, 1, 76, 127
1, 23228, Note_off_c, 1, 76, 0
1, 24480, Note_on_c, 1, 59, 127
1, 24572, Note_off_c, 1, 59, 0
1, 24864, Note_on_c, 1, 45, 127
1, 24956, Note_off_c, 1, 45, 0
1, 24960, Note_on_c, 1, 47, 127
1, 25052, Note_off_c, 1, 47, 0
1, 25344, Note_on_c, 1, 54, 127
1, 25344, Note_on_c, 1, 42, 127
1, 25436, Note_off_c, 1, 54, 0
1, 25436, Note_off_c, 1, 42, 0
1, 25536, Note_on_c, 1, 72, 127
1, 25664, Note_off_c, 1, 72, 0
1, 25824, Note_on_c, 1, 46, 127
1, 25916, Note_off_c, 1, 46, 0
1, 25920, Note_on_c, 1, 75, 127
1, 25920, Note_on_c, 1, 60, 127
1, 25920, Note_on_c, 1, 48, 127
1, 26048, Note_off_c, 1, 75, 0
1, 26048, Note_off_c, 1, 60, 0
1, 26048, Note_off_c, 1, 48, 0
1, 26112, Note_on_c, 1, 66, 127
1, 26300, Note_off_c, 1, 66, 0
1, 26496, Note_on_c, 1, 58, 127
1, 26496, Note_on_c, 1, 46, 127
1, 26496, Note_on_c, 1, 64, 127
1, 26496, Note_on_c, 1, 73, 127
1, 26624, Note_off_c, 1, 64, 0
1, 26624, Note_off_c, 1, 73, 0
1, 26684, Note_off_c, 1, 58, 0
1, 26684, Note_off_c, 1, 46, 0
1, 26688, Note_on_c, 1, 57, 127
1, 26688, Note_on_c, 1, 45, 127
1, 26688, Note_on_c, 1, 65, 127
1, 26688, Note_on_c, 1, 74, 127
1, 26816, Note_off_c, 1, 57, 0
1, 26816, Note_off_c, 1, 45, 0
1, 26816, Note_off_c, 1, 65, 0
1, 26816, Note_off_c, 1, 74, 0
1, 26880, Note_on_c, 1, 64, 127
1, 26880, Note_on_c, 1, 61, 127
1, 26880, Note_on_c, 1, 57, 127
1, 26880, Note_on_c, 1, 45, 127
1, 27068, Note_off_c, 1, 64, 0
1, 27068, Note_off_c, 1, 61, 0
1, 27068, Note_off_c, 1, 57, 0
1, 27068, Note_off_c, 1, 45, 0
1, 27072, Note_on_c, 1, 65, 127
1, 27072, Note_on_c, 1, 62, 127
1, 27072, Note_on_c, 1, 56, 127
1, 27072, Note_on_c, 1, 44, 127
1, 27200, Note_off_c, 1, 44, 0
1, 27260, Note_off_c, 1, 65, 0
1, 27260, Note_off_c, 1, 62, 0
1, 27260, Note_off_c, 1, 56, 0
1, 27264, Note_on_c, 1, 55, 127
1, 27264, Note_on_c, 1, 43, 127
1, 27264, Note_on_c, 1, 64, 127
1, 27264, Note_on_c, 1, 73, 127
1, 27392, Note_off_c, 1, 64, 0
1, 27392, Note_off_c, 1, 73, 0
1, 27452, Note_off_c, 1, 55, 0
1, 27452, Note_off_c, 1, 43, 0
1, 27456, Note_on_c, 1, 53, 127
1, 27456, Note_on_c, 1, 41, 127
1, 27456, Note_on_c, 1, 65, 127
1, 27456, Note_on_c, 1, 74, 127
1, 27584, Note_off_c, 1, 53, 0
1, 27584, Note_off_c, 1, 41, 0
1, 27584, Note_off_c, 1, 65, 0
1, 27584, Note_off_c, 1, 74, 0
1, 27632, Note_on_c, 1, 74, 127
1, 27648, Note_on_c, 1, 77, 127
1, 27648, Note_on_c, 1, 71, 127
1, 27648, Note_on_c, 1, 44, 127
1, 27648, Note_on_c, 1, 32, 127
1, 27648, Note_on_c, 1, 50, 127
1, 27656, Note_on_c, 1, 76, 127
1, 27684, Note_off_c, 1, 76, 0
1, 27836, Note_off_c, 1, 44, 0
1, 27836, Note_off_c, 1, 32, 0
1, 27836, Note_off_c, 1, 50, 0
1, 27840, Note_on_c, 1, 45, 127
1, 27840, Note_on_c, 1, 33, 127
1, 28028, Note_off_c, 1, 74, 0
1, 28028, Note_off_c, 1, 77, 0
1, 28028, Note_off_c, 1, 71, 0
1, 28028, Note_off_c, 1, 45, 0
1, 28028, Note_off_c, 1, 33, 0
1, 28032, Note_on_c, 1, 45, 127
1, 28032, Note_on_c, 1, 33, 127
1, 28032, Note_on_c, 1, 74, 127
1, 28032, Note_on_c, 1, 53, 127
1, 28124, Note_off_c, 1, 74, 0
1, 28128, Note_on_c, 1, 72, 127
1, 28220, Note_off_c, 1, 45, 0
1, 28220, Note_off_c, 1, 33, 0
1, 28220, Note_off_c, 1, 53, 0
1, 28220, Note_off_c, 1, 72, 0
1, 28224, Note_on_c, 1, 47, 127
1, 28224, Note_on_c, 1, 35, 127
1, 28224, Note_on_c, 1, 71, 127
1, 28316, Note_off_c, 1, 71, 0
1, 28320, Note_on_c, 1, 69, 127
1, 28412, Note_off_c, 1, 47, 0
1, 28412, Note_off_c, 1, 35, 0
1, 28412, Note_off_c, 1, 69, 0
1, 28416, Note_on_c, 1, 74, 127
1, 28416, Note_on_c, 1, 65, 127
1, 28416, Note_on_c, 1, 68, 127
1, 28416, Note_on_c, 1, 56, 127
1, 28428, Note_on_c, 1, 72, 127
1, 28456, Note_off_c, 1, 72, 0
1, 28604, Note_off_c, 1, 56, 0
1, 28608, Note_on_c, 1, 48, 127
1, 28608, Note_on_c, 1, 36, 127
1, 28796, Note_off_c, 1, 74, 0
1, 28796, Note_off_c, 1, 65, 0
1, 28796, Note_off_c, 1, 68, 0
1, 28796, Note_off_c, 1, 48, 0
1, 28796, Note_off_c, 1, 36, 0
1, 28800, Note_on_c, 1, 48, 127
1, 28800, Note_on_c, 1, 36, 127
1, 28800, Note_on_c, 1, 71, 127
1, 28800, Note_on_c, 1, 52, 127
1, 28892, Note_off_c, 1, 71, 0
1, 28896, Note_on_c, 1, 69, 127
1, 28988, Note_off_c, 1, 48, 0
1, 28988, Note_off_c, 1, 36, 0
1, 28988, Note_off_c, 1, 52, 0
1, 28988, Note_off_c, 1, 69, 0
1, 28992, Note_on_c, 1, 50, 127
1, 28992, Note_on_c, 1, 38, 127
1, 28992, Note_on_c, 1, 68, 127
1, 29084, Note_off_c, 1, 68, 0
1, 29088, Note_on_c, 1, 66, 127
1, 29180, Note_off_c, 1, 50, 0
1, 29180, Note_off_c, 1, 38, 0
1, 29180, Note_off_c, 1, 66, 0
1, 29184, Note_on_c, 1, 64, 127
1, 29184, Note_on_c, 1, 59, 127
1, 29184, Note_on_c, 1, 56, 127
1, 29184, Note_on_c, 1, 50, 127
1, 29184, Note_on_c, 1, 38, 127
1, 29280, Note_on_c, 1, 76, 127
1, 29372, Note_off_c, 1, 64, 0
1, 29372, Note_off_c, 1, 76, 0
1, 29376, Note_on_c, 1, 66, 127
1, 29376, Note_on_c, 1, 74, 127
1, 29468, Note_off_c, 1, 66, 0
1, 29468, Note_off_c, 1, 74, 0
1, 29472, Note_on_c, 1, 68, 127
1, 29472, Note_on_c, 1, 72, 127
1, 29564, Note_off_c, 1, 59, 0
1, 29564, Note_off_c, 1, 56, 0
1, 29564, Note_off_c, 1, 50, 0
1, 29564, Note_off_c, 1, 38, 0
1, 29564, Note_off_c, 1, 68, 0
1, 29564, Note_off_c, 1, 72, 0
1, 29568, Note_on_c, 1, 69, 127
1, 29568, Note_on_c, 1, 71, 127
1, 29660, Note_off_c, 1, 69, 0
1, 29660, Note_off_c, 1, 71, 0
1, 29664, Note_on_c, 1, 71, 127
1, 29664, Note_on_c, 1, 69, 127
1, 29756, Note_off_c, 1, 71, 0
1, 29756, Note_off_c, 1, 69, 0
1, 29760, Note_on_c, 1, 72, 127
1, 29760, Note_on_c, 1, 68, 127
1, 29852, Note_off_c, 1, 72, 0
1, 29852, Note_off_c, 1, 68, 0
1, 29856, Note_on_c, 1, 74, 127
1, 29856, Note_on_c, 1, 66, 127
1, 29948, Note_off_c, 1, 74, 0
1, 29948, Note_off_c, 1, 66, 0
1, 29952, Note_on_c, 1, 76, 127
1, 29952, Note_on_c, 1, 64, 127
1, 29952, Note_on_c, 1, 49, 127
1, 29952, Note_on_c, 1, 37, 127
1, 29952, Note_on_c, 1, 57, 127
1, 29952, Note_on_c, 1, 52, 127
1, 30044, Note_off_c, 1, 76, 0
1, 30044, Note_off_c, 1, 49, 0
1, 30044, Note_off_c, 1, 37, 0
1, 30048, Note_on_c, 1, 77, 127
1, 30048, Note_on_c, 1, 50, 127
1, 30048, Note_on_c, 1, 38, 127
1, 30140, Note_off_c, 1, 57, 0
1, 30140, Note_off_c, 1, 52, 0
1, 30140, Note_off_c, 1, 77, 0
1, 30140, Note_off_c, 1, 50, 0
1, 30140, Note_off_c, 1, 38, 0
1, 30144, Note_on_c, 1, 79, 127
1, 30144, Note_on_c, 1, 40, 127
1, 30272, Note_off_c, 1, 79, 0
1, 30272, Note_off_c, 1, 40, 0
1, 30432, Note_on_c, 1, 81, 127
1, 30432, Note_on_c, 1, 53, 127
1, 30432, Note_on_c, 1, 41, 127
1, 30524, Note_off_c, 1, 81, 0
1, 30524, Note_off_c, 1, 53, 0
1, 30524, Note_off_c, 1, 41, 0
1, 30528, Note_on_c, 1, 82, 127
1, 30528, Note_on_c, 1, 55, 127
1, 30528, Note_on_c, 1, 43, 127
1, 30656, Note_off_c, 1, 82, 0
1, 30656, Note_off_c, 1, 55, 0
1, 30656, Note_off_c, 1, 43, 0
1, 30720, Note_on_c, 1, 73, 127
1, 30720, Note_on_c, 1, 58, 127
1, 30828, Note_off_c, 1, 73, 0
1, 30828, Note_off_c, 1, 58, 0
1, 30908, Note_off_c, 1, 64, 0
1, 30912, Note_on_c, 1, 74, 127
1, 30912, Note_on_c, 1, 65, 127
1, 30912, Note_on_c, 1, 53, 127
1, 30912, Note_on_c, 1, 41, 127
1, 30912, Note_on_c, 1, 57, 127
1, 31020, Note_off_c, 1, 74, 0
1, 31020, Note_off_c, 1, 65, 0
1, 31020, Note_off_c, 1, 53, 0
1, 31020, Note_off_c, 1, 41, 0
1, 31020, Note_off_c, 1, 57, 0
1, 31104, Note_on_c, 1, 68, 127
1, 31104, Note_on_c, 1, 59, 127
1, 31104, Note_on_c, 1, 53, 127
1, 31104, Note_on_c, 1, 41, 127
1, 31104, Note_on_c, 1, 62, 127
1, 31212, Note_off_c, 1, 68, 0
1, 31212, Note_off_c, 1, 59, 0
1, 31212, Note_off_c, 1, 62, 0
1, 31292, Note_off_c, 1, 53, 0
1, 31292, Note_off_c, 1, 41, 0
1, 31296, Note_on_c, 1, 69, 127
1, 31296, Note_on_c, 1, 60, 127
1, 31296, Note_on_c, 1, 52, 127
1, 31296, Note_on_c, 1, 40, 127
1, 31296, Note_on_c, 1, 64, 127
1, 31404, Note_off_c, 1, 69, 0
1, 31404, Note_off_c, 1, 60, 0
1, 31404, Note_off_c, 1, 52, 0
1, 31404, Note_off_c, 1, 40, 0
1, 31404, Note_off_c, 1, 64, 0
1, 31488, Note_on_c, 1, 63, 127
1, 31488, Note_on_c, 1, 51, 127
1, 31488, Note_on_c, 1, 39, 127
1, 31680, Note_off_c, 1, 63, 0
1, 31680, Note_off_c, 1, 51, 0
1, 31680, Note_off_c, 1, 39, 0
1, 31872, Note_on_c, 1, 64, 127
1, 31872, Note_on_c, 1, 52, 127
1, 31872, Note_on_c, 1, 40, 127
1, 32064, Note_off_c, 1, 64, 0
1, 32064, Note_off_c, 1, 52, 0
1, 32064, Note_off_c, 1, 40, 0
1, 32256, Note_on_c, 1, 57, 127
1, 32256, Note_on_c, 1, 45, 127
1, 32256, Note_on_c, 1, 33, 127
1, 32304, Note_on_c, 1, 59, 127
1, 32348, Note_off_c, 1, 59, 0
1, 32352, Note_on_c, 1, 60, 127
1, 32396, Note_off_c, 1, 60, 0
1, 32400, Note_on_c, 1, 62, 127
1, 32444, Note_off_c, 1, 62, 0
1, 32448, Note_on_c, 1, 64, 127
1, 32540, Note_off_c, 1, 64, 0
1, 32636, Note_off_c, 1, 57, 0
1, 32640, Note_off_c, 1, 45, 0
1, 32640, Note_off_c, 1, 33, 0
1, 32640, Note_on_c, 1, 69, 127
1, 32828, Note_off_c, 1, 69, 0
1, 32832, Note_on_c, 1, 68, 127
1, 32832, Note_on_c, 1, 62, 127
1, 32832, Note_on_c, 1, 57, 127
1, 32832, Note_on_c, 1, 59, 127
1, 32924, Note_off_c, 1, 59, 0
1, 32928, Note_on_c, 1, 56, 127
1, 33020, Note_off_c, 1, 68, 0
1, 33020, Note_off_c, 1, 62, 0
1, 33020, Note_off_c, 1, 57, 0
1, 33020, Note_off_c, 1, 56, 0
1, 33024, Note_on_c, 1, 57, 127
1, 33024, Note_on_c, 1, 45, 127
1, 33024, Note_on_c, 1, 33, 127
1, 33120, Note_on_c, 1, 52, 127
1, 33212, Note_off_c, 1, 57, 0
1, 33212, Note_off_c, 1, 52, 0
1, 33216, Note_on_c, 1, 53, 127
1, 33308, Note_off_c, 1, 53, 0
1, 33312, Note_on_c, 1, 50, 127
1, 33404, Note_off_c, 1, 45, 0
1, 33404, Note_off_c, 1, 33, 0
1, 33404, Note_off_c, 1, 50, 0
1, 33408, Note_on_c, 1, 72, 127
1, 33408, Note_on_c, 1, 69, 127
1, 33408, Note_on_c, 1, 57, 127
1, 33408, Note_on_c, 1, 52, 127
1, 33500, Note_off_c, 1, 52, 0
1, 33596, Note_off_c, 1, 72, 0
1, 33596, Note_off_c, 1, 69, 0
1, 33596, Note_off_c, 1, 57, 0
1, 33600, Note_on_c, 1, 71, 127
1, 33600, Note_on_c, 1, 68, 127
1, 33600, Note_on_c, 1, 57, 127
1, 33600, Note_on_c, 1, 59, 127
1, 33692, Note_off_c, 1, 59, 0
1, 33696, Note_on_c, 1, 56, 127
1, 33788, Note_off_c, 1, 71, 0
1, 33788, Note_off_c, 1, 68, 0
1, 33788, Note_off_c, 1, 57, 0
1, 33788, Note_off_c, 1, 56, 0
1, 33792, Note_on_c, 1, 57, 127
1, 33792, Note_on_c, 1, 45, 127
1, 33792, Note_on_c, 1, 33, 127
1, 33888, Note_on_c, 1, 60, 127
1, 33980, Note_off_c, 1, 57, 0
1, 33980, Note_off_c, 1, 60, 0
1, 33984, Note_on_c, 1, 62, 127
1, 34076, Note_off_c, 1, 62, 0
1, 34080, Note_on_c, 1, 59, 127
1, 34172, Note_off_c, 1, 45, 0
1, 34172, Note_off_c, 1, 33, 0
1, 34172, Note_off_c, 1, 59, 0
1, 34176, Note_on_c, 1, 76, 127
1, 34176, Note_on_c, 1, 69, 127
1, 34176, Note_on_c, 1, 57, 127
1, 34176, Note_on_c, 1, 60, 127
1, 34268, Note_off_c, 1, 60, 0
1, 34272, Note_on_c, 1, 64, 127
1, 34364, Note_off_c, 1, 76, 0
1, 34364, Note_off_c, 1, 69, 0
1, 34364, Note_off_c, 1, 57, 0
1, 34364, Note_off_c, 1, 64, 0
1, 34368, Note_on_c, 1, 74, 127
1, 34368, Note_on_c, 1, 68, 127
1, 34368, Note_on_c, 1, 57, 127
1, 34368, Note_on_c, 1, 65, 127
1, 34460, Note_off_c, 1, 65, 0
1, 34464, Note_on_c, 1, 62, 127
1, 34556, Note_off_c, 1, 74, 0
1, 34556, Note_off_c, 1, 68, 0
1, 34556, Note_off_c, 1, 57, 0
1, 34556, Note_off_c, 1, 62, 0
1, 34560, Note_on_c, 1, 57, 127
1, 34560, Note_on_c, 1, 45, 127
1, 34560, Note_on_c, 1, 33, 127
1, 34560, Note_on_c, 1, 64, 127
1, 34604, Note_off_c, 1, 64, 0
1, 34608, Note_on_c, 1, 68, 127
1, 34608, Note_on_c, 1, 47, 127
1, 34652, Note_off_c, 1, 68, 0
1, 34652, Note_off_c, 1, 47, 0
1, 34656, Note_on_c, 1, 69, 127
1, 34656, Note_on_c, 1, 48, 127
1, 34700, Note_off_c, 1, 69, 0
1, 34700, Note_off_c, 1, 48, 0
1, 34704, Note_on_c, 1, 71, 127
1, 34704, Note_on_c, 1, 50, 127
1, 34748, Note_off_c, 1, 57, 0
1, 34748, Note_off_c, 1, 71, 0
1, 34748, Note_off_c, 1, 50, 0
1, 34752, Note_on_c, 1, 72, 127
1, 34752, Note_on_c, 1, 52, 127
1, 34844, Note_off_c, 1, 72, 0
1, 34844, Note_off_c, 1, 52, 0
1, 34944, Note_off_c, 1, 45, 0
1, 34944, Note_off_c, 1, 33, 0
1, 35136, Note_on_c, 1, 71, 127
1, 35136, Note_on_c, 1, 68, 127
1, 35136, Note_on_c, 1, 57, 127
1, 35136, Note_on_c, 1, 65, 127
1, 35136, Note_on_c, 1, 50, 127
1, 35228, Note_off_c, 1, 65, 0
1, 35228, Note_off_c, 1, 50, 0
1, 35232, Note_on_c, 1, 62, 127
1, 35232, Note_on_c, 1, 47, 127
1, 35324, Note_off_c, 1, 71, 0
1, 35324, Note_off_c, 1, 68, 0
1, 35324, Note_off_c, 1, 57, 0
1, 35324, Note_off_c, 1, 62, 0
1, 35324, Note_off_c, 1, 47, 0
1, 35328, Note_on_c, 1, 57, 127
1, 35328, Note_on_c, 1, 64, 127
1, 35328, Note_on_c, 1, 48, 127
1, 35420, Note_off_c, 1, 64, 0
1, 35420, Note_off_c, 1, 48, 0
1, 35424, Note_on_c, 1, 60, 127
1, 35424, Note_on_c, 1, 45, 127
1, 35516, Note_off_c, 1, 57, 0
1, 35516, Note_off_c, 1, 60, 0
1, 35516, Note_off_c, 1, 45, 0
1, 35520, Note_on_c, 1, 57, 127
1, 35520, Note_on_c, 1, 62, 127
1, 35520, Note_on_c, 1, 47, 127
1, 35612, Note_off_c, 1, 62, 0
1, 35612, Note_off_c, 1, 47, 0
1, 35616, Note_on_c, 1, 59, 127
1, 35616, Note_on_c, 1, 44, 127
1, 35708, Note_off_c, 1, 57, 0
1, 35708, Note_off_c, 1, 59, 0
1, 35708, Note_off_c, 1, 44, 0
1, 35712, Note_on_c, 1, 69, 127
1, 35712, Note_on_c, 1, 64, 127
1, 35712, Note_on_c, 1, 57, 127
1, 35712, Note_on_c, 1, 60, 127
1, 35712, Note_on_c, 1, 45, 127
1, 35804, Note_off_c, 1, 60, 0
1, 35804, Note_off_c, 1, 45, 0
1, 35808, Note_on_c, 1, 48, 127
1, 35900, Note_off_c, 1, 69, 0
1, 35900, Note_off_c, 1, 64, 0
1, 35900, Note_off_c, 1, 57, 0
1, 35900, Note_off_c, 1, 48, 0
1, 35904, Note_on_c, 1, 68, 127
1, 35904, Note_on_c, 1, 62, 127
1, 35904, Note_on_c, 1, 57, 127
1, 35904, Note_on_c, 1, 65, 127
1, 35904, Note_on_c, 1, 50, 127
1, 35996, Note_off_c, 1, 65, 0
1, 35996, Note_off_c, 1, 50, 0
1, 36000, Note_on_c, 1, 47, 127
1, 36092, Note_off_c, 1, 68, 0
1, 36092, Note_off_c, 1, 62, 0
1, 36092, Note_off_c, 1, 57, 0
1, 36092, Note_off_c, 1, 47, 0
1, 36096, Note_on_c, 1, 57, 127
1, 36096, Note_on_c, 1, 64, 127
1, 36096, Note_on_c, 1, 48, 127
1, 36188, Note_off_c, 1, 64, 0
1, 36188, Note_off_c, 1, 48, 0
1, 36192, Note_on_c, 1, 69, 127
1, 36192, Note_on_c, 1, 60, 127
1, 36284, Note_off_c, 1, 57, 0
1, 36284, Note_off_c, 1, 69, 0
1, 36284, Note_off_c, 1, 60, 0
1, 36288, Note_on_c, 1, 57, 127
1, 36288, Note_on_c, 1, 71, 127
1, 36288, Note_on_c, 1, 62, 127
1, 36380, Note_off_c, 1, 71, 0
1, 36380, Note_off_c, 1, 62, 0
1, 36384, Note_on_c, 1, 68, 127
1, 36384, Note_on_c, 1, 59, 127
1, 36476, Note_off_c, 1, 57, 0
1, 36476, Note_off_c, 1, 68, 0
1, 36476, Note_off_c, 1, 59, 0
1, 36480, Note_on_c, 1, 69, 127
1, 36480, Note_on_c, 1, 60, 127
1, 36480, Note_on_c, 1, 57, 127
1, 36576, Note_on_c, 1, 72, 127
1, 36576, Note_on_c, 1, 64, 127
1, 36668, Note_off_c, 1, 69, 0
1, 36668, Note_off_c, 1, 60, 0
1, 36668, Note_off_c, 1, 57, 0
1, 36668, Note_off_c, 1, 72, 0
1, 36668, Note_off_c, 1, 64, 0
1, 36672, Note_on_c, 1, 68, 127
1, 36672, Note_on_c, 1, 59, 127
1, 36672, Note_on_c, 1, 57, 127
1, 36672, Note_on_c, 1, 74, 127
1, 36672, Note_on_c, 1, 65, 127
1, 36764, Note_off_c, 1, 74, 0
1, 36764, Note_off_c, 1, 65, 0
1, 36768, Note_on_c, 1, 71, 127
1, 36768, Note_on_c, 1, 62, 127
1, 36860, Note_off_c, 1, 68, 0
1, 36860, Note_off_c, 1, 59, 0
1, 36860, Note_off_c, 1, 57, 0
1, 36860, Note_off_c, 1, 71, 0
1, 36860, Note_off_c, 1, 62, 0
1, 36864, Note_on_c, 1, 57, 127
1, 36864, Note_on_c, 1, 45, 127
1, 36864, Note_on_c, 1, 33, 127
1, 36864, Note_on_c, 1, 72, 127
1, 36864, Note_on_c, 1, 64, 127
1, 36956, Note_off_c, 1, 72, 0
1, 36956, Note_off_c, 1, 64, 0
1, 36960, Note_on_c, 1, 68, 127
1, 36960, Note_on_c, 1, 59, 127
1, 37052, Note_off_c, 1, 57, 0
1, 37052, Note_off_c, 1, 68, 0
1, 37052, Note_off_c, 1, 59, 0
1, 37056, Note_on_c, 1, 69, 127
1, 37056, Note_on_c, 1, 60, 127
1, 37148, Note_off_c, 1, 69, 0
1, 37148, Note_off_c, 1, 60, 0
1, 37152, Note_on_c, 1, 56, 127
1, 37244, Note_off_c, 1, 56, 0
1, 37248, Note_off_c, 1, 45, 0
1, 37248, Note_off_c, 1, 33, 0
1, 37248, Note_on_c, 1, 62, 127
1, 37248, Note_on_c, 1, 65, 127
1, 37340, Note_off_c, 1, 65, 0
1, 37436, Note_off_c, 1, 62, 0
1, 37440, Note_on_c, 1, 59, 127
1, 37440, Note_on_c, 1, 56, 127
1, 37440, Note_on_c, 1, 57, 127
1, 37440, Note_on_c, 1, 64, 127
1, 37440, Note_on_c, 1, 50, 127
1, 37440, Note_on_c, 1, 45, 127
1, 37532, Note_off_c, 1, 64, 0
1, 37628, Note_off_c, 1, 59, 0
1, 37628, Note_off_c, 1, 56, 0
1, 37628, Note_off_c, 1, 57, 0
1, 37628, Note_off_c, 1, 50, 0
1, 37628, Note_off_c, 1, 45, 0
1, 37632, Note_on_c, 1, 57, 127
1, 37632, Note_on_c, 1, 60, 127
1, 37632, Note_on_c, 1, 52, 127
1, 37632, Note_on_c, 1, 48, 127
1, 37632, Note_on_c, 1, 45, 127
1, 37724, Note_off_c, 1, 60, 0
1, 37728, Note_on_c, 1, 56, 127
1, 37820, Note_off_c, 1, 57, 0
1, 37820, Note_off_c, 1, 52, 0
1, 37820, Note_off_c, 1, 48, 0
1, 37820, Note_off_c, 1, 45, 0
1, 37820, Note_off_c, 1, 56, 0
1, 37824, Note_on_c, 1, 57, 127
1, 37920, Note_on_c, 1, 52, 127
1, 38012, Note_off_c, 1, 57, 0
1, 38012, Note_off_c, 1, 52, 0
1, 38016, Note_on_c, 1, 59, 127
1, 38016, Note_on_c, 1, 62, 127
1, 38016, Note_on_c, 1, 57, 127
1, 38016, Note_on_c, 1, 53, 127
1, 38108, Note_off_c, 1, 53, 0
1, 38112, Note_on_c, 1, 50, 127
1, 38204, Note_off_c, 1, 59, 0
1, 38204, Note_off_c, 1, 62, 0
1, 38204, Note_off_c, 1, 57, 0
1, 38204, Note_off_c, 1, 50, 0
1, 38208, Note_on_c, 1, 56, 127
1, 38208, Note_on_c, 1, 59, 127
1, 38208, Note_on_c, 1, 57, 127
1, 38208, Note_on_c, 1, 52, 127
1, 38300, Note_off_c, 1, 52, 0
1, 38304, Note_on_c, 1, 47, 127
1, 38396, Note_off_c, 1, 56, 0
1, 38396, Note_off_c, 1, 59, 0
1, 38396, Note_off_c, 1, 57, 0
1, 38396, Note_off_c, 1, 47, 0
1, 38400, Note_on_c, 1, 57, 127
1, 38400, Note_on_c, 1, 64, 127
1, 38400, Note_on_c, 1, 48, 127
1, 38400, Note_on_c, 1, 33, 127
1, 38492, Note_off_c, 1, 48, 0
1, 38496, Note_on_c, 1, 44, 127
1, 38588, Note_off_c, 1, 44, 0
1, 38592, Note_on_c, 1, 45, 127
1, 38684, Note_off_c, 1, 45, 0
1, 38780, Note_off_c, 1, 57, 0
1, 38780, Note_off_c, 1, 64, 0
1, 38784, Note_off_c, 1, 33, 0
1, 38784, Note_on_c, 1, 52, 127
1, 38876, Note_off_c, 1, 52, 0
1, 38880, Note_on_c, 1, 47, 127
1, 38972, Note_off_c, 1, 47, 0
1, 38976, Note_on_c, 1, 57, 127
1, 38976, Note_on_c, 1, 48, 127
1, 39068, Note_off_c, 1, 48, 0
1, 39072, Note_on_c, 1, 52, 127
1, 39164, Note_off_c, 1, 57, 0
1, 39164, Note_off_c, 1, 52, 0
1, 39168, Note_on_c, 1, 57, 127
1, 39168, Note_on_c, 1, 45, 127
1, 39168, Note_on_c, 1, 33, 127
1, 39264, Note_on_c, 1, 51, 127
1, 39264, Note_on_c, 1, 47, 127
1, 39356, Note_off_c, 1, 57, 0
1, 39356, Note_off_c, 1, 51, 0
1, 39360, Note_off_c, 1, 47, 0
1, 39360, Note_on_c, 1, 52, 127
1, 39360, Note_on_c, 1, 48, 127
1, 39452, Note_off_c, 1, 52, 0
1, 39456, Note_off_c, 1, 48, 0
1, 39552, Note_off_c, 1, 45, 0
1, 39552, Note_off_c, 1, 33, 0
1, 39552, Note_on_c, 1, 60, 127
1, 39644, Note_off_c, 1, 60, 0
1, 39648, Note_on_c, 1, 56, 127
1, 39740, Note_off_c, 1, 56, 0
1, 39936, Note_on_c, 1, 64, 127
1, 40028, Note_off_c, 1, 64, 0
1, 40032, Note_on_c, 1, 59, 127
1, 40124, Note_off_c, 1, 59, 0
1, 40320, Note_on_c, 1, 69, 127
1, 40416, Note_on_c, 1, 57, 127
1, 40416, Note_on_c, 1, 45, 127
1, 40508, Note_off_c, 1, 69, 0
1, 40512, Note_off_c, 1, 57, 0
1, 40512, Note_off_c, 1, 45, 0
1, 40512, Note_on_c, 1, 72, 127
1, 40512, Note_on_c, 1, 64, 127
1, 40700, Note_off_c, 1, 72, 0
1, 40700, Note_off_c, 1, 64, 0
1, 40704, Note_on_c, 1, 76, 127
1, 40892, Note_off_c, 1, 76, 0
1, 40896, Note_on_c, 1, 60, 127
1, 41084, Note_off_c, 1, 60, 0
1, 41472, Note_on_c, 1, 81, 127
1, 41564, Note_off_c, 1, 81, 0
1, 41568, Note_on_c, 1, 71, 127
1, 41664, Note_off_c, 1, 71, 0
1, 42240, Note_on_c, 1, 73, 127
1, 42240, Note_on_c, 1, 55, 127
1, 42240, Note_on_c, 1, 43, 127
1, 42524, Note_off_c, 1, 73, 0
1, 42624, Note_on_c, 1, 67, 127
1, 43008, Note_off_c, 1, 55, 0
1, 43008, Note_off_c, 1, 43, 0
1, 43008, Note_off_c, 1, 67, 0
1, 43008, Note_on_c, 1, 74, 127
1, 43008, Note_on_c, 1, 62, 127
1, 43008, Note_on_c, 1, 53, 127
1, 43008, Note_on_c, 1, 41, 127
1, 43104, Note_off_c, 1, 62, 0
1, 43200, Note_on_c, 1, 65, 127
1, 43292, Note_off_c, 1, 74, 0
1, 43296, Note_on_c, 1, 77, 127
1, 43308, Note_off_c, 1, 65, 0
1, 43388, Note_off_c, 1, 77, 0
1, 43776, Note_off_c, 1, 53, 0
1, 43776, Note_off_c, 1, 41, 0
1, 43776, Note_on_c, 1, 54, 127
1, 43776, Note_on_c, 1, 42, 127
1, 44064, Note_on_c, 1, 78, 127
1, 44156, Note_off_c, 1, 78, 0
1, 44160, Note_on_c, 1, 66, 127
1, 44544, Note_off_c, 1, 54, 0
1, 44544, Note_off_c, 1, 42, 0
1, 44544, Note_off_c, 1, 66, 0
1, 44544, Note_on_c, 1, 70, 127
1, 44636, Note_off_c, 1, 70, 0
1, 44928, Note_on_c, 1, 79, 127
1, 45020, Note_off_c, 1, 79, 0
1, 46080, Note_on_c, 1, 52, 127
1, 46080, Note_on_c, 1, 40, 127
1, 47616, Note_off_c, 1, 52, 0
1, 47616, Note_off_c, 1, 40, 0
1, 48384, Note_on_c, 1, 51, 127
1, 48384, Note_on_c, 1, 39, 127
1, 48768, Note_on_c, 1, 63, 127
1, 49152, Note_off_c, 1, 51, 0
1, 49152, Note_off_c, 1, 39, 0
1, 49152, Note_off_c, 1, 63, 0
1, 49152, Note_on_c, 1, 58, 127
1, 49152, Note_on_c, 1, 50, 127
1, 49152, Note_on_c, 1, 38, 127
1, 49248, Note_off_c, 1, 58, 0
1, 50688, Note_on_c, 1, 59, 127
1, 50688, Note_on_c, 1, 68, 127
1, 50780, Note_off_c, 1, 68, 0
1, 50972, Note_off_c, 1, 59, 0
1, 50976, Note_on_c, 1, 56, 127
1, 51068, Note_off_c, 1, 56, 0
1, 51072, Note_off_c, 1, 50, 0
1, 51072, Note_off_c, 1, 38, 0
1, 51456, Note_on_c, 1, 48, 127
1, 51456, Note_on_c, 1, 36, 127
1, 51840, Note_off_c, 1, 48, 0
1, 51840, Note_off_c, 1, 36, 0
1, 52992, Note_on_c, 1, 46, 127
1, 52992, Note_on_c, 1, 34, 127
1, 53376, Note_off_c, 1, 46, 0
1, 53376, Note_off_c, 1, 34, 0
1, 54528, Note_on_c, 1, 33, 127
1, 54912, Note_off_c, 1, 33, 0
1, 58080, Note_on_c, 1, 72, 127
1, 58080, Note_on_c, 1, 52, 127
1, 58172, Note_off_c, 1, 72, 0
1, 58172, Note_off_c, 1, 52, 0
1, 58176, Note_on_c, 1, 67, 127
1, 58176, Note_on_c, 1, 72, 127
1, 58176, Note_on_c, 1, 55, 127
1, 58176, Note_on_c, 1, 52, 127
1, 58176, Note_on_c, 1, 40, 127
1, 58176, Note_on_c, 1, 74, 127
1, 58176, Note_on_c, 1, 53, 127
1, 58268, Note_off_c, 1, 74, 0
1, 58268, Note_off_c, 1, 53, 0
1, 58272, Note_on_c, 1, 76, 127
1, 58364, Note_off_c, 1, 76, 0
1, 58368, Note_off_c, 1, 67, 0
1, 58368, Note_off_c, 1, 72, 0
1, 58368, Note_off_c, 1, 55, 0
1, 58368, Note_off_c, 1, 52, 0
1, 58368, Note_off_c, 1, 40, 0
1, 58368, Note_on_c, 1, 69, 127
1, 58368, Note_on_c, 1, 65, 127
1, 58368, Note_on_c, 1, 62, 127
1, 58368, Note_on_c, 1, 50, 127
1, 58368, Note_on_c, 1, 38, 127
1, 58368, Note_on_c, 1, 77, 127
1, 58460, Note_off_c, 1, 69, 0
1, 58460, Note_off_c, 1, 65, 0
1, 58460, Note_off_c, 1, 77, 0
1, 58752, Note_off_c, 1, 62, 0
1, 58752, Note_off_c, 1, 50, 0
1, 58752, Note_off_c, 1, 38, 0
1, 58752, Note_on_c, 1, 57, 127
1, 58844, Note_off_c, 1, 57, 0
1, 58848, Note_on_c, 1, 79, 127
1, 58848, Note_on_c, 1, 64, 127
1, 58848, Note_on_c, 1, 58, 127
1, 58940, Note_off_c, 1, 79, 0
1, 58940, Note_off_c, 1, 64, 0
1, 58940, Note_off_c, 1, 58, 0
1, 58944, Note_on_c, 1, 81, 127
1, 58944, Note_on_c, 1, 65, 127
1, 58944, Note_on_c, 1, 48, 127
1, 58944, Note_on_c, 1, 36, 127
1, 58944, Note_on_c, 1, 60, 127
1, 59036, Note_off_c, 1, 81, 0
1, 59036, Note_off_c, 1, 65, 0
1, 59036, Note_off_c, 1, 48, 0
1, 59036, Note_off_c, 1, 36, 0
1, 59036, Note_off_c, 1, 60, 0
1, 59040, Note_on_c, 1, 82, 127
1, 59040, Note_on_c, 1, 67, 127
1, 59040, Note_on_c, 1, 46, 127
1, 59040, Note_on_c, 1, 34, 127
1, 59040, Note_on_c, 1, 58, 127
1, 59132, Note_off_c, 1, 82, 0
1, 59132, Note_off_c, 1, 67, 0
1, 59132, Note_off_c, 1, 46, 0
1, 59132, Note_off_c, 1, 34, 0
1, 59132, Note_off_c, 1, 58, 0
1, 59136, Note_on_c, 1, 84, 127
1, 59136, Note_on_c, 1, 69, 127
1, 59136, Note_on_c, 1, 45, 127
1, 59136, Note_on_c, 1, 33, 127
1, 59136, Note_on_c, 1, 57, 127
1, 59244, Note_off_c, 1, 69, 0
1, 59244, Note_off_c, 1, 45, 0
1, 59244, Note_off_c, 1, 33, 0
1, 59324, Note_off_c, 1, 84, 0
1, 59324, Note_off_c, 1, 57, 0
1, 59328, Note_on_c, 1, 77, 127
1, 59328, Note_on_c, 1, 74, 127
1, 59328, Note_on_c, 1, 46, 127
1, 59328, Note_on_c, 1, 34, 127
1, 59328, Note_on_c, 1, 60, 127
1, 59372, Note_off_c, 1, 60, 0
1, 59376, Note_on_c, 1, 58, 127
1, 59420, Note_off_c, 1, 58, 0
1, 59424, Note_on_c, 1, 57, 127
1, 59436, Note_off_c, 1, 74, 0
1, 59436, Note_off_c, 1, 46, 0
1, 59436, Note_off_c, 1, 34, 0
1, 59468, Note_off_c, 1, 57, 0
1, 59516, Note_off_c, 1, 77, 0
1, 59520, Note_on_c, 1, 67, 127
1, 59520, Note_on_c, 1, 72, 127
1, 59520, Note_on_c, 1, 48, 127
1, 59520, Note_on_c, 1, 36, 127
1, 59520, Note_on_c, 1, 60, 127
1, 59628, Note_off_c, 1, 72, 0
1, 59628, Note_off_c, 1, 48, 0
1, 59628, Note_off_c, 1, 36, 0
1, 59708, Note_off_c, 1, 67, 0
1, 59708, Note_off_c, 1, 60, 0
1, 59712, Note_on_c, 1, 76, 127
1, 59712, Note_on_c, 1, 70, 127
1, 59712, Note_on_c, 1, 36, 127
1, 59712, Note_on_c, 1, 24, 127
1, 59712, Note_on_c, 1, 48, 127
1, 59820, Note_off_c, 1, 70, 0
1, 59820, Note_off_c, 1, 36, 0
1, 59820, Note_off_c, 1, 24, 0
1, 59900, Note_off_c, 1, 76, 0
1, 59900, Note_off_c, 1, 48, 0
1, 59904, Note_on_c, 1, 77, 127
1, 59904, Note_on_c, 1, 72, 127
1, 59904, Note_on_c, 1, 69, 127
1, 59904, Note_on_c, 1, 41, 127
1, 59904, Note_on_c, 1, 29, 127
1, 59904, Note_on_c, 1, 65, 127
1, 59904, Note_on_c, 1, 53, 127
1, 59996, Note_off_c, 1, 65, 0
1, 60000, Note_on_c, 1, 67, 127
1, 60092, Note_off_c, 1, 29, 0
1, 60092, Note_off_c, 1, 67, 0
1, 60284, Note_off_c, 1, 41, 0
1, 60284, Note_off_c, 1, 53, 0
1, 60672, Note_on_c, 1, 57, 127
1, 60764, Note_off_c, 1, 57, 0
1, 60768, Note_on_c, 1, 58, 127
1, 60860, Note_off_c, 1, 58, 0
1, 60864, Note_on_c, 1, 81, 127
1, 60864, Note_on_c, 1, 60, 127
1, 60956, Note_off_c, 1, 60, 0
1, 61056, Note_on_c, 1, 62, 127
1, 61148, Note_off_c, 1, 62, 0
1, 61244, Note_off_c, 1, 81, 0
1, 61436, Note_off_c, 1, 77, 0
1, 61436, Note_off_c, 1, 72, 0
1, 61436, Note_off_c, 1, 69, 0
1, 61440, Note_on_c, 1, 79, 127
1, 61440, Note_on_c, 1, 70, 127
1, 61440, Note_on_c, 1, 64, 127
1, 61440, Note_on_c, 1, 41, 127
1, 61440, Note_on_c, 1, 29, 127
1, 61440, Note_on_c, 1, 55, 127
1, 61532, Note_off_c, 1, 55, 0
1, 61536, Note_on_c, 1, 65, 127
1, 61536, Note_on_c, 1, 57, 127
1, 61628, Note_off_c, 1, 41, 0
1, 61628, Note_off_c, 1, 29, 0
1, 61628, Note_off_c, 1, 65, 0
1, 61628, Note_off_c, 1, 57, 0
1, 61632, Note_on_c, 1, 67, 127
1, 61632, Note_on_c, 1, 58, 127
1, 61724, Note_off_c, 1, 58, 0
1, 61820, Note_off_c, 1, 67, 0
1, 62112, Note_on_c, 1, 53, 127
1, 62204, Note_off_c, 1, 79, 0
1, 62204, Note_off_c, 1, 64, 0
1, 62204, Note_off_c, 1, 53, 0
1, 62208, Note_on_c, 1, 76, 127
1, 62208, Note_on_c, 1, 52, 127
1, 62300, Note_off_c, 1, 52, 0
1, 62496, Note_on_c, 1, 50, 127
1, 62588, Note_off_c, 1, 50, 0
1, 62592, Note_on_c, 1, 48, 127
1, 62684, Note_off_c, 1, 48, 0
1, 62688, Note_on_c, 1, 46, 127
1, 62780, Note_off_c, 1, 46, 0
1, 62784, Note_on_c, 1, 45, 127
1, 62876, Note_off_c, 1, 45, 0
1, 62880, Note_on_c, 1, 43, 127
1, 62972, Note_off_c, 1, 70, 0
1, 62972, Note_off_c, 1, 76, 0
1, 62972, Note_off_c, 1, 43, 0
1, 62976, Note_on_c, 1, 77, 127
1, 62976, Note_on_c, 1, 72, 127
1, 62976, Note_on_c, 1, 69, 127
1, 62976, Note_on_c, 1, 41, 127
1, 62976, Note_on_c, 1, 29, 127
1, 62976, Note_on_c, 1, 53, 127
1, 62976, Note_on_c, 1, 48, 127
1, 63072, Note_on_c, 1, 70, 127
1, 63164, Note_off_c, 1, 77, 0
1, 63164, Note_off_c, 1, 70, 0
1, 63168, Note_on_c, 1, 65, 127
1, 63356, Note_off_c, 1, 72, 0
1, 63356, Note_off_c, 1, 69, 0
1, 63356, Note_off_c, 1, 41, 0
1, 63356, Note_off_c, 1, 29, 0
1, 63356, Note_off_c, 1, 53, 0
1, 63356, Note_off_c, 1, 48, 0
1, 63356, Note_off_c, 1, 65, 0
1, 63360, Note_on_c, 1, 69, 127
1, 63360, Note_on_c, 1, 72, 127
1, 63452, Note_off_c, 1, 72, 0
1, 63456, Note_on_c, 1, 74, 127
1, 63548, Note_off_c, 1, 69, 0
1, 63548, Note_off_c, 1, 74, 0
1, 63552, Note_on_c, 1, 72, 127
1, 63552, Note_on_c, 1, 75, 127
1, 63740, Note_off_c, 1, 72, 0
1, 63740, Note_off_c, 1, 75, 0
1, 63744, Note_on_c, 1, 62, 127
1, 63744, Note_on_c, 1, 66, 127
1, 63932, Note_off_c, 1, 62, 0
1, 63932, Note_off_c, 1, 66, 0
1, 63936, Note_on_c, 1, 81, 127
1, 63936, Note_on_c, 1, 66, 127
1, 63936, Note_on_c, 1, 60, 127
1, 63936, Note_on_c, 1, 50, 127
1, 63936, Note_on_c, 1, 38, 127
1, 64028, Note_off_c, 1, 81, 0
1, 64032, Note_on_c, 1, 79, 127
1, 64124, Note_off_c, 1, 66, 0
1, 64124, Note_off_c, 1, 60, 0
1, 64124, Note_off_c, 1, 50, 0
1, 64124, Note_off_c, 1, 38, 0
1, 64124, Note_off_c, 1, 79, 0
1, 64128, Note_on_c, 1, 78, 127
1, 64128, Note_on_c, 1, 67, 127
1, 64128, Note_on_c, 1, 58, 127
1, 64128, Note_on_c, 1, 52, 127
1, 64128, Note_on_c, 1, 40, 127
1, 64220, Note_off_c, 1, 78, 0
1, 64224, Note_on_c, 1, 76, 127
1, 64316, Note_off_c, 1, 67, 0
1, 64316, Note_off_c, 1, 58, 0
1, 64316, Note_off_c, 1, 52, 0
1, 64316, Note_off_c, 1, 40, 0
1, 64316, Note_off_c, 1, 76, 0
1, 64320, Note_on_c, 1, 74, 127
1, 64320, Note_on_c, 1, 69, 127
1, 64320, Note_on_c, 1, 57, 127
1, 64320, Note_on_c, 1, 54, 127
1, 64320, Note_on_c, 1, 42, 127
1, 64412, Note_off_c, 1, 74, 0
1, 64416, Note_on_c, 1, 72, 127
1, 64508, Note_off_c, 1, 69, 0
1, 64508, Note_off_c, 1, 57, 0
1, 64508, Note_off_c, 1, 54, 0
1, 64508, Note_off_c, 1, 42, 0
1, 64508, Note_off_c, 1, 72, 0
1, 64512, Note_on_c, 1, 70, 127
1, 64512, Note_on_c, 1, 62, 127
1, 64512, Note_on_c, 1, 55, 127
1, 64512, Note_on_c, 1, 43, 127
1, 64512, Note_on_c, 1, 50, 127
1, 64608, Note_on_c, 1, 72, 127
1, 64700, Note_off_c, 1, 70, 0
1, 64700, Note_off_c, 1, 72, 0
1, 64704, Note_on_c, 1, 67, 127
1, 64704, Note_on_c, 1, 74, 127
1, 64892, Note_off_c, 1, 62, 0
1, 64892, Note_off_c, 1, 55, 0
1, 64892, Note_off_c, 1, 43, 0
1, 64892, Note_off_c, 1, 50, 0
1, 64892, Note_off_c, 1, 67, 0
1, 64892, Note_off_c, 1, 74, 0
1, 64896, Note_on_c, 1, 70, 127
1, 64896, Note_on_c, 1, 74, 127
1, 64988, Note_off_c, 1, 74, 0
1, 64992, Note_on_c, 1, 76, 127
1, 65084, Note_off_c, 1, 70, 0
1, 65084, Note_off_c, 1, 76, 0
1, 65088, Note_on_c, 1, 74, 127
1, 65088, Note_on_c, 1, 77, 127
1, 65276, Note_off_c, 1, 74, 0
1, 65276, Note_off_c, 1, 77, 0
1, 65280, Note_on_c, 1, 64, 127
1, 65280, Note_on_c, 1, 68, 127
1, 65468, Note_off_c, 1, 64, 0
1, 65468, Note_off_c, 1, 68, 0
1, 65472, Note_on_c, 1, 83, 127
1, 65472, Note_on_c, 1, 68, 127
1, 65472, Note_on_c, 1, 62, 127
1, 65472, Note_on_c, 1, 52, 127
1, 65472, Note_on_c, 1, 40, 127
1, 65564, Note_off_c, 1, 83, 0
1, 65568, Note_on_c, 1, 81, 127
1, 65660, Note_off_c, 1, 68, 0
1, 65660, Note_off_c, 1, 62, 0
1, 65660, Note_off_c, 1, 52, 0
1, 65660, Note_off_c, 1, 40, 0
1, 65660, Note_off_c, 1, 81, 0
1, 65664, Note_on_c, 1, 80, 127
1, 65664, Note_on_c, 1, 69, 127
1, 65664, Note_on_c, 1, 60, 127
1, 65664, Note_on_c, 1, 54, 127
1, 65664, Note_on_c, 1, 42, 127
1, 65756, Note_off_c, 1, 80, 0
1, 65760, Note_on_c, 1, 78, 127
1, 65852, Note_off_c, 1, 69, 0
1, 65852, Note_off_c, 1, 60, 0
1, 65852, Note_off_c, 1, 54, 0
1, 65852, Note_off_c, 1, 42, 0
1, 65852, Note_off_c, 1, 78, 0
1, 65856, Note_on_c, 1, 76, 127
1, 65856, Note_on_c, 1, 71, 127
1, 65856, Note_on_c, 1, 59, 127
1, 65856, Note_on_c, 1, 56, 127
1, 65856, Note_on_c, 1, 44, 127
1, 65948, Note_off_c, 1, 76, 0
1, 65952, Note_on_c, 1, 74, 127
1, 66044, Note_off_c, 1, 71, 0
1, 66044, Note_off_c, 1, 59, 0
1, 66044, Note_off_c, 1, 56, 0
1, 66044, Note_off_c, 1, 44, 0
1, 66044, Note_off_c, 1, 74, 0
1, 66048, Note_on_c, 1, 73, 127
1, 66048, Note_on_c, 1, 64, 127
1, 66048, Note_on_c, 1, 57, 127
1, 66048, Note_on_c, 1, 45, 127
1, 66048, Note_on_c, 1, 52, 127
1, 66144, Note_on_c, 1, 74, 127
1, 66236, Note_off_c, 1, 73, 0
1, 66236, Note_off_c, 1, 74, 0
1, 66240, Note_on_c, 1, 76, 127
1, 66332, Note_off_c, 1, 76, 0
1, 66336, Note_on_c, 1, 77, 127
1, 66428, Note_off_c, 1, 64, 0
1, 66428, Note_off_c, 1, 57, 0
1, 66428, Note_off_c, 1, 45, 0
1, 66428, Note_off_c, 1, 52, 0
1, 66428, Note_off_c, 1, 77, 0
1, 66432, Note_on_c, 1, 76, 127
1, 66432, Note_on_c, 1, 79, 127
1, 66524, Note_off_c, 1, 79, 0
1, 66528, Note_on_c, 1, 81, 127
1, 66620, Note_off_c, 1, 76, 0
1, 66620, Note_off_c, 1, 81, 0
1, 66624, Note_on_c, 1, 79, 127
1, 66624, Note_on_c, 1, 82, 127
1, 66716, Note_off_c, 1, 82, 0
1, 66812, Note_off_c, 1, 79, 0
1, 66816, Note_on_c, 1, 69, 127
1, 66816, Note_on_c, 1, 73, 127
1, 67004, Note_off_c, 1, 69, 0
1, 67004, Note_off_c, 1, 73, 0
1, 67008, Note_on_c, 1, 76, 127
1, 67008, Note_on_c, 1, 73, 127
1, 67008, Note_on_c, 1, 67, 127
1, 67008, Note_on_c, 1, 45, 127
1, 67008, Note_on_c, 1, 33, 127
1, 67008, Note_on_c, 1, 57, 127
1, 67100, Note_off_c, 1, 76, 0
1, 67104, Note_on_c, 1, 74, 127
1, 67196, Note_off_c, 1, 73, 0
1, 67196, Note_off_c, 1, 67, 0
1, 67196, Note_off_c, 1, 45, 0
1, 67196, Note_off_c, 1, 33, 0
1, 67196, Note_off_c, 1, 57, 0
1, 67196, Note_off_c, 1, 74, 0
1, 67200, Note_on_c, 1, 73, 127
1, 67200, Note_on_c, 1, 74, 127
1, 67200, Note_on_c, 1, 65, 127
1, 67200, Note_on_c, 1, 47, 127
1, 67200, Note_on_c, 1, 35, 127
1, 67200, Note_on_c, 1, 72, 127
1, 67200, Note_on_c, 1, 59, 127
1, 67292, Note_off_c, 1, 73, 0
1, 67292, Note_off_c, 1, 72, 0
1, 67296, Note_on_c, 1, 71, 127
1, 67388, Note_off_c, 1, 74, 0
1, 67388, Note_off_c, 1, 65, 0
1, 67388, Note_off_c, 1, 47, 0
1, 67388, Note_off_c, 1, 35, 0
1, 67388, Note_off_c, 1, 59, 0
1, 67388, Note_off_c, 1, 71, 0
1, 67392, Note_on_c, 1, 69, 127
1, 67392, Note_on_c, 1, 76, 127
1, 67392, Note_on_c, 1, 64, 127
1, 67392, Note_on_c, 1, 49, 127
1, 67392, Note_on_c, 1, 37, 127
1, 67392, Note_on_c, 1, 61, 127
1, 67484, Note_off_c, 1, 69, 0
1, 67488, Note_on_c, 1, 67, 127
1, 67580, Note_off_c, 1, 76, 0
1, 67580, Note_off_c, 1, 64, 0
1, 67580, Note_off_c, 1, 49, 0
1, 67580, Note_off_c, 1, 37, 0
1, 67580, Note_off_c, 1, 61, 0
1, 67580, Note_off_c, 1, 67, 0
1, 67584, Note_on_c, 1, 65, 127
1, 67584, Note_on_c, 1, 69, 127
1, 67584, Note_on_c, 1, 62, 127
1, 67584, Note_on_c, 1, 50, 127
1, 67584, Note_on_c, 1, 38, 127
1, 67676, Note_off_c, 1, 65, 0
1, 67680, Note_on_c, 1, 67, 127
1, 67772, Note_off_c, 1, 62, 0
1, 67772, Note_off_c, 1, 50, 0
1, 67772, Note_off_c, 1, 38, 0
1, 67772, Note_off_c, 1, 67, 0
1, 67776, Note_on_c, 1, 64, 127
1, 67776, Note_on_c, 1, 49, 127
1, 67776, Note_on_c, 1, 37, 127
1, 67868, Note_off_c, 1, 69, 0
1, 67872, Note_on_c, 1, 70, 127
1, 67964, Note_off_c, 1, 64, 0
1, 67964, Note_off_c, 1, 49, 0
1, 67964, Note_off_c, 1, 37, 0
1, 67964, Note_off_c, 1, 70, 0
1, 67968, Note_on_c, 1, 65, 127
1, 67968, Note_on_c, 1, 69, 127
1, 67968, Note_on_c, 1, 50, 127
1, 67968, Note_on_c, 1, 38, 127
1, 68060, Note_off_c, 1, 69, 0
1, 68064, Note_on_c, 1, 64, 127
1, 68064, Note_on_c, 1, 67, 127
1, 68156, Note_off_c, 1, 65, 0
1, 68156, Note_off_c, 1, 50, 0
1, 68156, Note_off_c, 1, 38, 0
1, 68156, Note_off_c, 1, 64, 0
1, 68156, Note_off_c, 1, 67, 0
1, 68160, Note_on_c, 1, 62, 127
1, 68160, Note_on_c, 1, 65, 127
1, 68160, Note_on_c, 1, 67, 127
1, 68160, Note_on_c, 1, 52, 127
1, 68160, Note_on_c, 1, 40, 127
1, 68252, Note_off_c, 1, 62, 0
1, 68252, Note_off_c, 1, 65, 0
1, 68256, Note_on_c, 1, 61, 127
1, 68256, Note_on_c, 1, 64, 127
1, 68348, Note_off_c, 1, 67, 0
1, 68348, Note_off_c, 1, 52, 0
1, 68348, Note_off_c, 1, 40, 0
1, 68348, Note_off_c, 1, 61, 0
1, 68348, Note_off_c, 1, 64, 0
1, 68352, Note_on_c, 1, 62, 127
1, 68352, Note_on_c, 1, 69, 127
1, 68352, Note_on_c, 1, 53, 127
1, 68352, Note_on_c, 1, 41, 127
1, 68448, Note_on_c, 1, 65, 127
1, 68540, Note_off_c, 1, 69, 0
1, 68540, Note_off_c, 1, 53, 0
1, 68540, Note_off_c, 1, 41, 0
1, 68540, Note_off_c, 1, 65, 0
1, 68544, Note_on_c, 1, 67, 127
1, 68544, Note_on_c, 1, 52, 127
1, 68544, Note_on_c, 1, 40, 127
1, 68640, Note_on_c, 1, 73, 127
1, 68732, Note_off_c, 1, 62, 0
1, 68732, Note_off_c, 1, 67, 0
1, 68732, Note_off_c, 1, 52, 0
1, 68732, Note_off_c, 1, 40, 0
1, 68732, Note_off_c, 1, 73, 0
1, 68736, Note_on_c, 1, 69, 127
1, 68736, Note_on_c, 1, 53, 127
1, 68736, Note_on_c, 1, 41, 127
1, 68736, Note_on_c, 1, 74, 127
1, 68828, Note_off_c, 1, 74, 0
1, 68924, Note_off_c, 1, 69, 0
1, 68924, Note_off_c, 1, 53, 0
1, 68924, Note_off_c, 1, 41, 0
1, 68928, Note_on_c, 1, 74, 127
1, 68928, Note_on_c, 1, 71, 127
1, 68928, Note_on_c, 1, 50, 127
1, 68928, Note_on_c, 1, 38, 127
1, 68928, Note_on_c, 1, 65, 127
1, 69020, Note_off_c, 1, 65, 0
1, 69024, Note_on_c, 1, 62, 127
1, 69116, Note_off_c, 1, 71, 0
1, 69116, Note_off_c, 1, 50, 0
1, 69116, Note_off_c, 1, 38, 0
1, 69116, Note_off_c, 1, 62, 0
1, 69120, Note_on_c, 1, 59, 127
1, 69120, Note_on_c, 1, 52, 127
1, 69120, Note_on_c, 1, 40, 127
1, 69120, Note_on_c, 1, 56, 127
1, 69308, Note_off_c, 1, 74, 0
1, 69408, Note_on_c, 1, 69, 127
1, 69500, Note_off_c, 1, 59, 0
1, 69500, Note_off_c, 1, 52, 0
1, 69500, Note_off_c, 1, 40, 0
1, 69500, Note_off_c, 1, 56, 0
1, 69500, Note_off_c, 1, 69, 0
1, 69504, Note_on_c, 1, 64, 127
1, 69792, Note_on_c, 1, 68, 127
1, 69884, Note_off_c, 1, 64, 0
1, 69884, Note_off_c, 1, 68, 0
1, 70656, Note_on_c, 1, 69, 127
1, 70656, Note_on_c, 1, 64, 127
1, 70656, Note_on_c, 1, 45, 127
1, 70656, Note_on_c, 1, 33, 127
1, 70656, Note_on_c, 1, 60, 127
1, 70656, Note_on_c, 1, 52, 127
1, 70656, Note_on_c, 1, 57, 127
1, 70748, Note_off_c, 1, 60, 0
1, 70844, Note_off_c, 1, 69, 0
1, 70844, Note_off_c, 1, 64, 0
1, 70944, Note_on_c, 1, 68, 127
1, 71036, Note_off_c, 1, 45, 0
1, 71036, Note_off_c, 1, 33, 0
1, 71036, Note_off_c, 1, 52, 0
1, 71036, Note_off_c, 1, 57, 0
1, 71036, Note_off_c, 1, 68, 0
1, 71040, Note_on_c, 1, 60, 127
1, 71040, Note_on_c, 1, 57, 127
1, 71040, Note_on_c, 1, 69, 127
1, 71132, Note_off_c, 1, 69, 0
1, 71136, Note_on_c, 1, 65, 127
1, 71228, Note_off_c, 1, 60, 0
1, 71228, Note_off_c, 1, 65, 0
1, 71232, Note_on_c, 1, 64, 127
1, 71328, Note_on_c, 1, 62, 127
1, 71420, Note_off_c, 1, 57, 0
1, 71420, Note_off_c, 1, 64, 0
1, 71420, Note_off_c, 1, 62, 0
1, 71424, Note_on_c, 1, 69, 127
1, 71424, Note_on_c, 1, 64, 127
1, 71424, Note_on_c, 1, 45, 127
1, 71424, Note_on_c, 1, 33, 127
1, 71424, Note_on_c, 1, 60, 127
1, 71424, Note_on_c, 1, 52, 127
1, 71424, Note_on_c, 1, 57, 127
1, 71516, Note_off_c, 1, 60, 0
1, 71612, Note_off_c, 1, 69, 0
1, 71612, Note_off_c, 1, 64, 0
1, 71712, Note_on_c, 1, 68, 127
1, 71804, Note_off_c, 1, 45, 0
1, 71804, Note_off_c, 1, 33, 0
1, 71804, Note_off_c, 1, 52, 0
1, 71804, Note_off_c, 1, 57, 0
1, 71804, Note_off_c, 1, 68, 0
1, 71808, Note_on_c, 1, 60, 127
1, 71808, Note_on_c, 1, 57, 127
1, 71808, Note_on_c, 1, 69, 127
1, 71900, Note_off_c, 1, 69, 0
1, 71904, Note_on_c, 1, 65, 127
1, 71996, Note_off_c, 1, 60, 0
1, 71996, Note_off_c, 1, 65, 0
1, 72000, Note_on_c, 1, 79, 127
1, 72000, Note_on_c, 1, 61, 127
1, 72000, Note_on_c, 1, 64, 127
1, 72092, Note_off_c, 1, 64, 0
1, 72096, Note_on_c, 1, 62, 127
1, 72188, Note_off_c, 1, 57, 0
1, 72188, Note_off_c, 1, 61, 0
1, 72188, Note_off_c, 1, 62, 0
1, 72192, Note_on_c, 1, 45, 127
1, 72288, Note_on_c, 1, 70, 127
1, 72380, Note_off_c, 1, 79, 0
1, 72380, Note_off_c, 1, 70, 0
1, 72384, Note_on_c, 1, 76, 127
1, 72476, Note_off_c, 1, 76, 0
1, 72480, Note_on_c, 1, 67, 127
1, 72480, Note_on_c, 1, 74, 127
1, 72572, Note_off_c, 1, 45, 0
1, 72572, Note_off_c, 1, 67, 0
1, 72572, Note_off_c, 1, 74, 0
1, 72864, Note_on_c, 1, 73, 127
1, 72956, Note_off_c, 1, 73, 0
1, 73728, Note_on_c, 1, 74, 127
1, 73728, Note_on_c, 1, 69, 127
1, 73728, Note_on_c, 1, 50, 127
1, 73728, Note_on_c, 1, 38, 127
1, 73728, Note_on_c, 1, 65, 127
1, 73728, Note_on_c, 1, 57, 127
1, 73728, Note_on_c, 1, 62, 127
1, 73820, Note_off_c, 1, 65, 0
1, 73916, Note_off_c, 1, 74, 0
1, 73916, Note_off_c, 1, 69, 0
1, 74016, Note_on_c, 1, 73, 127
1, 74108, Note_off_c, 1, 50, 0
1, 74108, Note_off_c, 1, 38, 0
1, 74108, Note_off_c, 1, 57, 0
1, 74108, Note_off_c, 1, 62, 0
1, 74108, Note_off_c, 1, 73, 0
1, 74112, Note_on_c, 1, 65, 127
1, 74112, Note_on_c, 1, 62, 127
1, 74112, Note_on_c, 1, 74, 127
1, 74204, Note_off_c, 1, 74, 0
1, 74208, Note_on_c, 1, 70, 127
1, 74300, Note_off_c, 1, 65, 0
1, 74300, Note_off_c, 1, 70, 0
1, 74304, Note_on_c, 1, 69, 127
1, 74400, Note_on_c, 1, 67, 127
1, 74492, Note_off_c, 1, 62, 0
1, 74492, Note_off_c, 1, 69, 0
1, 74492, Note_off_c, 1, 67, 0
1, 74496, Note_on_c, 1, 74, 127
1, 74496, Note_on_c, 1, 69, 127
1, 74496, Note_on_c, 1, 50, 127
1, 74496, Note_on_c, 1, 38, 127
1, 74496, Note_on_c, 1, 65, 127
1, 74496, Note_on_c, 1, 57, 127
1, 74496, Note_on_c, 1, 62, 127
1, 74588, Note_off_c, 1, 65, 0
1, 74684, Note_off_c, 1, 74, 0
1, 74684, Note_off_c, 1, 69, 0
1, 74784, Note_on_c, 1, 73, 127
1, 74876, Note_off_c, 1, 50, 0
1, 74876, Note_off_c, 1, 38, 0
1, 74876, Note_off_c, 1, 57, 0
1, 74876, Note_off_c, 1, 62, 0
1, 74876, Note_off_c, 1, 73, 0
1, 74880, Note_on_c, 1, 65, 127
1, 74880, Note_on_c, 1, 62, 127
1, 74880, Note_on_c, 1, 74, 127
1, 74972, Note_off_c, 1, 74, 0
1, 74976, Note_on_c, 1, 67, 127
1, 75068, Note_off_c, 1, 65, 0
1, 75068, Note_off_c, 1, 67, 0
1, 75072, Note_on_c, 1, 81, 127
1, 75168, Note_on_c, 1, 64, 127
1, 75260, Note_off_c, 1, 62, 0
1, 75260, Note_off_c, 1, 64, 0
1, 75264, Note_on_c, 1, 71, 127
1, 75264, Note_on_c, 1, 59, 127
1, 75264, Note_on_c, 1, 47, 127
1, 75264, Note_on_c, 1, 63, 127
1, 75360, Note_on_c, 1, 72, 127
1, 75452, Note_off_c, 1, 81, 0
1, 75452, Note_off_c, 1, 71, 0
1, 75452, Note_off_c, 1, 72, 0
1, 75456, Note_on_c, 1, 78, 127
1, 75548, Note_off_c, 1, 78, 0
1, 75552, Note_on_c, 1, 69, 127
1, 75552, Note_on_c, 1, 76, 127
1, 75644, Note_off_c, 1, 59, 0
1, 75644, Note_off_c, 1, 47, 0
1, 75644, Note_off_c, 1, 63, 0
1, 75644, Note_off_c, 1, 69, 0
1, 75644, Note_off_c, 1, 76, 0
1, 75936, Note_on_c, 1, 75, 127
1, 76028, Note_off_c, 1, 75, 0
1, 76032, Note_on_c, 1, 66, 127
1, 76220, Note_off_c, 1, 66, 0
1, 76800, Note_on_c, 1, 52, 127
1, 76800, Note_on_c, 1, 40, 127
1, 76800, Note_on_c, 1, 68, 127
1, 76896, Note_on_c, 1, 77, 127
1, 76988, Note_off_c, 1, 77, 0
1, 76992, Note_on_c, 1, 83, 127
1, 77084, Note_off_c, 1, 83, 0
1, 77180, Note_off_c, 1, 52, 0
1, 77180, Note_off_c, 1, 40, 0
1, 77180, Note_off_c, 1, 68, 0
1, 77184, Note_on_c, 1, 56, 127
1, 77372, Note_off_c, 1, 56, 0
1, 78336, Note_on_c, 1, 76, 127
1, 78336, Note_on_c, 1, 69, 127
1, 78336, Note_on_c, 1, 57, 127
1, 78336, Note_on_c, 1, 45, 127
1, 78336, Note_on_c, 1, 72, 127
1, 78428, Note_off_c, 1, 72, 0
1, 78524, Note_off_c, 1, 76, 0
1, 78528, Note_on_c, 1, 64, 127
1, 78528, Note_on_c, 1, 81, 127
1, 78620, Note_off_c, 1, 81, 0
1, 78624, Note_on_c, 1, 80, 127
1, 78716, Note_off_c, 1, 69, 0
1, 78716, Note_off_c, 1, 57, 0
1, 78716, Note_off_c, 1, 45, 0
1, 78716, Note_off_c, 1, 64, 0
1, 78716, Note_off_c, 1, 80, 0
1, 78720, Note_on_c, 1, 69, 127
1, 78720, Note_on_c, 1, 60, 127
1, 78720, Note_on_c, 1, 81, 127
1, 78812, Note_off_c, 1, 81, 0
1, 78816, Note_on_c, 1, 74, 127
1, 78908, Note_off_c, 1, 60, 0
1, 78908, Note_off_c, 1, 74, 0
1, 78912, Note_on_c, 1, 72, 127
1, 78912, Note_on_c, 1, 64, 127
1, 79008, Note_on_c, 1, 71, 127
1, 79100, Note_off_c, 1, 69, 0
1, 79100, Note_off_c, 1, 72, 0
1, 79100, Note_off_c, 1, 64, 0
1, 79100, Note_off_c, 1, 71, 0
1, 79104, Note_on_c, 1, 76, 127
1, 79104, Note_on_c, 1, 69, 127
1, 79104, Note_on_c, 1, 55, 127
1, 79104, Note_on_c, 1, 43, 127
1, 79104, Note_on_c, 1, 64, 127
1, 79200, Note_on_c, 1, 72, 127
1, 79292, Note_off_c, 1, 76, 0
1, 79292, Note_off_c, 1, 69, 0
1, 79292, Note_off_c, 1, 72, 0
1, 79296, Note_on_c, 1, 81, 127
1, 79388, Note_off_c, 1, 81, 0
1, 79392, Note_on_c, 1, 80, 127
1, 79484, Note_off_c, 1, 55, 0
1, 79484, Note_off_c, 1, 43, 0
1, 79484, Note_off_c, 1, 64, 0
1, 79484, Note_off_c, 1, 80, 0
1, 79488, Note_on_c, 1, 69, 127
1, 79488, Note_on_c, 1, 60, 127
1, 79488, Note_on_c, 1, 67, 127
1, 79488, Note_on_c, 1, 81, 127
1, 79580, Note_off_c, 1, 81, 0
1, 79584, Note_on_c, 1, 70, 127
1, 79676, Note_off_c, 1, 69, 0
1, 79676, Note_off_c, 1, 60, 0
1, 79676, Note_off_c, 1, 70, 0
1, 79680, Note_on_c, 1, 72, 127
1, 79680, Note_on_c, 1, 64, 127
1, 79868, Note_off_c, 1, 67, 0
1, 79868, Note_off_c, 1, 72, 0
1, 79868, Note_off_c, 1, 64, 0
1, 79872, Note_on_c, 1, 77, 127
1, 79872, Note_on_c, 1, 69, 127
1, 79872, Note_on_c, 1, 53, 127
1, 79872, Note_on_c, 1, 41, 127
1, 79872, Note_on_c, 1, 65, 127
1, 79968, Note_on_c, 1, 72, 127
1, 80060, Note_off_c, 1, 77, 0
1, 80060, Note_off_c, 1, 69, 0
1, 80060, Note_off_c, 1, 72, 0
1, 80064, Note_on_c, 1, 81, 127
1, 80156, Note_off_c, 1, 81, 0
1, 80160, Note_on_c, 1, 80, 127
1, 80252, Note_off_c, 1, 53, 0
1, 80252, Note_off_c, 1, 41, 0
1, 80252, Note_off_c, 1, 65, 0
1, 80252, Note_off_c, 1, 80, 0
1, 80256, Note_on_c, 1, 69, 127
1, 80256, Note_on_c, 1, 60, 127
1, 80256, Note_on_c, 1, 65, 127
1, 80256, Note_on_c, 1, 81, 127
1, 80348, Note_off_c, 1, 81, 0
1, 80444, Note_off_c, 1, 69, 0
1, 80444, Note_off_c, 1, 60, 0
1, 80448, Note_on_c, 1, 72, 127
1, 80448, Note_on_c, 1, 64, 127
1, 80540, Note_off_c, 1, 64, 0
1, 80544, Note_on_c, 1, 62, 127
1, 80636, Note_off_c, 1, 65, 0
1, 80636, Note_off_c, 1, 72, 0
1, 80636, Note_off_c, 1, 62, 0
1, 80640, Note_on_c, 1, 76, 127
1, 80640, Note_on_c, 1, 69, 127
1, 80640, Note_on_c, 1, 52, 127
1, 80640, Note_on_c, 1, 40, 127
1, 80640, Note_on_c, 1, 60, 127
1, 80828, Note_off_c, 1, 76, 0
1, 80828, Note_off_c, 1, 69, 0
1, 80832, Note_on_c, 1, 72, 127
1, 80832, Note_on_c, 1, 64, 127
1, 80832, Note_on_c, 1, 81, 127
1, 80924, Note_off_c, 1, 81, 0
1, 80928, Note_on_c, 1, 80, 127
1, 81020, Note_off_c, 1, 52, 0
1, 81020, Note_off_c, 1, 40, 0
1, 81020, Note_off_c, 1, 60, 0
1, 81020, Note_off_c, 1, 72, 0
1, 81020, Note_off_c, 1, 64, 0
1, 81020, Note_off_c, 1, 80, 0
1, 81024, Note_on_c, 1, 69, 127
1, 81024, Note_on_c, 1, 60, 127
1, 81024, Note_on_c, 1, 64, 127
1, 81024, Note_on_c, 1, 81, 127
1, 81116, Note_off_c, 1, 81, 0
1, 81120, Note_on_c, 1, 76, 127
1, 81212, Note_off_c, 1, 69, 0
1, 81212, Note_off_c, 1, 60, 0
1, 81212, Note_off_c, 1, 76, 0
1, 81216, Note_on_c, 1, 72, 127
1, 81216, Note_on_c, 1, 74, 127
1, 81308, Note_off_c, 1, 74, 0
1, 81404, Note_off_c, 1, 64, 0
1, 81404, Note_off_c, 1, 72, 0
1, 81408, Note_on_c, 1, 77, 127
1, 81408, Note_on_c, 1, 69, 127
1, 81408, Note_on_c, 1, 50, 127
1, 81408, Note_on_c, 1, 38, 127
1, 81408, Note_on_c, 1, 62, 127
1, 81504, Note_on_c, 1, 74, 127
1, 81596, Note_off_c, 1, 77, 0
1, 81596, Note_off_c, 1, 69, 0
1, 81596, Note_off_c, 1, 74, 0
1, 81600, Note_on_c, 1, 76, 127
1, 81600, Note_on_c, 1, 67, 127
1, 81600, Note_on_c, 1, 72, 127
1, 81692, Note_off_c, 1, 72, 0
1, 81696, Note_on_c, 1, 71, 127
1, 81728, Note_off_c, 1, 76, 0
1, 81728, Note_off_c, 1, 67, 0
1, 81788, Note_off_c, 1, 50, 0
1, 81788, Note_off_c, 1, 38, 0
1, 81788, Note_off_c, 1, 62, 0
1, 81788, Note_off_c, 1, 71, 0
1, 81792, Note_on_c, 1, 74, 127
1, 81792, Note_on_c, 1, 65, 127
1, 81792, Note_on_c, 1, 62, 127
1, 81888, Note_on_c, 1, 71, 127
1, 81980, Note_off_c, 1, 74, 0
1, 81980, Note_off_c, 1, 65, 0
1, 81980, Note_off_c, 1, 71, 0
1, 81984, Note_on_c, 1, 72, 127
1, 81984, Note_on_c, 1, 64, 127
1, 81984, Note_on_c, 1, 69, 127
1, 82076, Note_off_c, 1, 69, 0
1, 82080, Note_on_c, 1, 68, 127
1, 82112, Note_off_c, 1, 72, 0
1, 82112, Note_off_c, 1, 64, 0
1, 82172, Note_off_c, 1, 62, 0
1, 82172, Note_off_c, 1, 68, 0
1, 82176, Note_on_c, 1, 71, 127
1, 82176, Note_on_c, 1, 62, 127
1, 82176, Note_on_c, 1, 44, 127
1, 82176, Note_on_c, 1, 32, 127
1, 82176, Note_on_c, 1, 52, 127
1, 82272, Note_on_c, 1, 68, 127
1, 82364, Note_off_c, 1, 71, 0
1, 82364, Note_off_c, 1, 62, 0
1, 82364, Note_off_c, 1, 68, 0
1, 82368, Note_on_c, 1, 69, 127
1, 82368, Note_on_c, 1, 60, 127
1, 82368, Note_on_c, 1, 66, 127
1, 82460, Note_off_c, 1, 66, 0
1, 82464, Note_on_c, 1, 64, 127
1, 82496, Note_off_c, 1, 69, 0
1, 82496, Note_off_c, 1, 60, 0
1, 82556, Note_off_c, 1, 44, 0
1, 82556, Note_off_c, 1, 32, 0
1, 82556, Note_off_c, 1, 52, 0
1, 82556, Note_off_c, 1, 64, 0
1, 82560, Note_on_c, 1, 68, 127
1, 82560, Note_on_c, 1, 59, 127
1, 82560, Note_on_c, 1, 56, 127
1, 82560, Note_on_c, 1, 65, 127
1, 82652, Note_off_c, 1, 65, 0
1, 82656, Note_on_c, 1, 62, 127
1, 82748, Note_off_c, 1, 68, 0
1, 82748, Note_off_c, 1, 59, 0
1, 82748, Note_off_c, 1, 62, 0
1, 82752, Note_on_c, 1, 66, 127
1, 82752, Note_on_c, 1, 60, 127
1, 82844, Note_off_c, 1, 60, 0
1, 82880, Note_off_c, 1, 66, 0
1, 82940, Note_off_c, 1, 56, 0
1, 82944, Note_on_c, 1, 64, 127
1, 82944, Note_on_c, 1, 60, 127
1, 82944, Note_on_c, 1, 57, 127
1, 82944, Note_on_c, 1, 45, 127
1, 82944, Note_on_c, 1, 33, 127
1, 82944, Note_on_c, 1, 52, 127
1, 83132, Note_off_c, 1, 64, 0
1, 83132, Note_off_c, 1, 60, 0
1, 83132, Note_off_c, 1, 57, 0
1, 83136, Note_on_c, 1, 69, 127
1, 83228, Note_off_c, 1, 69, 0
1, 83232, Note_on_c, 1, 68, 127
1, 83324, Note_off_c, 1, 45, 0
1, 83324, Note_off_c, 1, 33, 0
1, 83324, Note_off_c, 1, 52, 0
1, 83324, Note_off_c, 1, 68, 0
1, 83328, Note_on_c, 1, 69, 127
1, 83420, Note_off_c, 1, 69, 0
1, 83424, Note_on_c, 1, 64, 127
1, 83516, Note_off_c, 1, 64, 0
1, 83520, Note_on_c, 1, 45, 127
1, 83520, Note_on_c, 1, 33, 127
1, 83520, Note_on_c, 1, 72, 127
1, 83612, Note_off_c, 1, 45, 0
1, 83612, Note_off_c, 1, 33, 0
1, 83612, Note_off_c, 1, 72, 0
1, 83616, Note_on_c, 1, 47, 127
1, 83616, Note_on_c, 1, 35, 127
1, 83616, Note_on_c, 1, 69, 127
1, 83708, Note_off_c, 1, 47, 0
1, 83708, Note_off_c, 1, 35, 0
1, 83708, Note_off_c, 1, 69, 0
1, 83712, Note_on_c, 1, 48, 127
1, 83712, Note_on_c, 1, 36, 127
1, 83712, Note_on_c, 1, 76, 127
1, 83900, Note_off_c, 1, 48, 0
1, 83900, Note_off_c, 1, 36, 0
1, 83900, Note_off_c, 1, 76, 0
1, 83904, Note_on_c, 1, 50, 127
1, 83904, Note_on_c, 1, 38, 127
1, 83904, Note_on_c, 1, 69, 127
1, 83904, Note_on_c, 1, 52, 127
1, 83948, Note_off_c, 1, 52, 0
1, 84000, Note_on_c, 1, 48, 127
1, 84044, Note_off_c, 1, 48, 0
1, 84092, Note_off_c, 1, 50, 0
1, 84092, Note_off_c, 1, 38, 0
1, 84092, Note_off_c, 1, 69, 0
1, 84096, Note_on_c, 1, 52, 127
1, 84096, Note_on_c, 1, 40, 127
1, 84096, Note_on_c, 1, 64, 127
1, 84284, Note_off_c, 1, 52, 0
1, 84284, Note_off_c, 1, 40, 0
1, 84284, Note_off_c, 1, 64, 0
1, 84288, Note_on_c, 1, 40, 127
1, 84288, Note_on_c, 1, 28, 127
1, 84288, Note_on_c, 1, 68, 127
1, 84476, Note_off_c, 1, 40, 0
1, 84476, Note_off_c, 1, 28, 0
1, 84476, Note_off_c, 1, 68, 0
1, 84480, Note_on_c, 1, 69, 127
1, 84480, Note_on_c, 1, 45, 127
1, 84480, Note_on_c, 1, 33, 127
1, 84480, Note_on_c, 1, 57, 127
1, 84480, Note_on_c, 1, 48, 127
1, 84480, Note_on_c, 1, 52, 127
1, 84572, Note_off_c, 1, 69, 0
1, 84576, Note_on_c, 1, 71, 127
1, 84668, Note_off_c, 1, 33, 0
1, 84668, Note_off_c, 1, 71, 0
1, 84672, Note_on_c, 1, 72, 127
1, 84860, Note_off_c, 1, 45, 0
1, 84860, Note_off_c, 1, 57, 0
1, 84860, Note_off_c, 1, 48, 0
1, 84860, Note_off_c, 1, 52, 0
1, 84860, Note_off_c, 1, 72, 0
1, 84864, Note_on_c, 1, 71, 127
1, 84864, Note_on_c, 1, 45, 127
1, 84864, Note_on_c, 1, 33, 127
1, 85052, Note_off_c, 1, 71, 0
1, 85052, Note_off_c, 1, 45, 0
1, 85052, Note_off_c, 1, 33, 0
1, 85056, Note_on_c, 1, 69, 127
1, 85056, Note_on_c, 1, 45, 127
1, 85056, Note_on_c, 1, 33, 127
1, 85244, Note_off_c, 1, 69, 0
1, 85244, Note_off_c, 1, 45, 0
1, 85244, Note_off_c, 1, 33, 0
1, 85248, Note_on_c, 1, 76, 127
1, 85248, Note_on_c, 1, 72, 127
1, 85248, Note_on_c, 1, 57, 127
1, 85248, Note_on_c, 1, 45, 127
1, 85248, Note_on_c, 1, 33, 127
1, 85340, Note_off_c, 1, 72, 0
1, 85340, Note_off_c, 1, 57, 0
1, 85344, Note_on_c, 1, 74, 127
1, 85344, Note_on_c, 1, 59, 127
1, 85436, Note_off_c, 1, 76, 0
1, 85436, Note_off_c, 1, 45, 0
1, 85436, Note_off_c, 1, 33, 0
1, 85436, Note_off_c, 1, 74, 0
1, 85436, Note_off_c, 1, 59, 0
1, 85440, Note_on_c, 1, 81, 127
1, 85440, Note_on_c, 1, 76, 127
1, 85440, Note_on_c, 1, 60, 127
1, 85440, Note_on_c, 1, 45, 127
1, 85440, Note_on_c, 1, 33, 127
1, 85568, Note_off_c, 1, 76, 0
1, 85568, Note_off_c, 1, 60, 0
1, 85628, Note_off_c, 1, 45, 0
1, 85628, Note_off_c, 1, 33, 0
1, 85632, Note_on_c, 1, 74, 127
1, 85632, Note_on_c, 1, 59, 127
1, 85820, Note_off_c, 1, 81, 0
1, 85820, Note_off_c, 1, 74, 0
1, 85820, Note_off_c, 1, 59, 0
1, 85824, Note_on_c, 1, 76, 127
1, 85824, Note_on_c, 1, 72, 127
1, 85824, Note_on_c, 1, 57, 127
1, 85824, Note_on_c, 1, 45, 127
1, 85824, Note_on_c, 1, 33, 127
1, 86012, Note_off_c, 1, 76, 0
1, 86012, Note_off_c, 1, 57, 0
1, 86012, Note_off_c, 1, 45, 0
1, 86012, Note_off_c, 1, 33, 0
1, 86016, Note_on_c, 1, 77, 127
1, 86016, Note_on_c, 1, 62, 127
1, 86204, Note_off_c, 1, 72, 0
1, 86204, Note_off_c, 1, 77, 0
1, 86204, Note_off_c, 1, 62, 0
1, 86208, Note_on_c, 1, 74, 127
1, 86208, Note_on_c, 1, 71, 127
1, 86208, Note_on_c, 1, 45, 127
1, 86208, Note_on_c, 1, 33, 127
1, 86300, Note_off_c, 1, 74, 0
1, 86304, Note_on_c, 1, 68, 127
1, 86396, Note_off_c, 1, 45, 0
1, 86396, Note_off_c, 1, 33, 0
1, 86396, Note_off_c, 1, 68, 0
1, 86400, Note_on_c, 1, 76, 127
1, 86400, Note_on_c, 1, 60, 127
1, 86588, Note_off_c, 1, 71, 0
1, 86588, Note_off_c, 1, 76, 0
1, 86588, Note_off_c, 1, 60, 0
1, 86592, Note_on_c, 1, 72, 127
1, 86592, Note_on_c, 1, 69, 127
1, 86592, Note_on_c, 1, 45, 127
1, 86592, Note_on_c, 1, 33, 127
1, 86684, Note_off_c, 1, 72, 0
1, 86688, Note_on_c, 1, 65, 127
1, 86780, Note_off_c, 1, 45, 0
1, 86780, Note_off_c, 1, 33, 0
1, 86780, Note_off_c, 1, 65, 0
1, 86784, Note_on_c, 1, 74, 127
1, 86784, Note_on_c, 1, 59, 127
1, 86880, Note_on_c, 1, 60, 127
1, 86972, Note_off_c, 1, 69, 0
1, 86972, Note_off_c, 1, 74, 0
1, 86972, Note_off_c, 1, 59, 0
1, 86972, Note_off_c, 1, 60, 0
1, 86976, Note_on_c, 1, 71, 127
1, 86976, Note_on_c, 1, 74, 127
1, 86976, Note_on_c, 1, 45, 127
1, 86976, Note_on_c, 1, 33, 127
1, 86976, Note_on_c, 1, 62, 127
1, 87068, Note_off_c, 1, 71, 0
1, 87068, Note_off_c, 1, 62, 0
1, 87072, Note_on_c, 1, 68, 127
1, 87072, Note_on_c, 1, 59, 127
1, 87164, Note_off_c, 1, 45, 0
1, 87164, Note_off_c, 1, 33, 0
1, 87164, Note_off_c, 1, 68, 0
1, 87164, Note_off_c, 1, 59, 0
1, 87168, Note_on_c, 1, 64, 127
1, 87168, Note_on_c, 1, 57, 127
1, 87356, Note_off_c, 1, 74, 0
1, 87356, Note_off_c, 1, 64, 0
1, 87356, Note_off_c, 1, 57, 0
1, 87360, Note_on_c, 1, 77, 127
1, 87360, Note_on_c, 1, 71, 127
1, 87360, Note_on_c, 1, 45, 127
1, 87360, Note_on_c, 1, 33, 127
1, 87360, Note_on_c, 1, 62, 127
1, 87452, Note_off_c, 1, 71, 0
1, 87452, Note_off_c, 1, 62, 0
1, 87456, Note_on_c, 1, 68, 127
1, 87456, Note_on_c, 1, 59, 127
1, 87548, Note_off_c, 1, 45, 0
1, 87548, Note_off_c, 1, 33, 0
1, 87548, Note_off_c, 1, 68, 0
1, 87548, Note_off_c, 1, 59, 0
1, 87552, Note_on_c, 1, 56, 127
1, 87648, Note_on_c, 1, 57, 127
1, 87740, Note_off_c, 1, 77, 0
1, 87740, Note_off_c, 1, 56, 0
1, 87740, Note_off_c, 1, 57, 0
1, 87744, Note_on_c, 1, 74, 127
1, 87744, Note_on_c, 1, 77, 127
1, 87744, Note_on_c, 1, 45, 127
1, 87744, Note_on_c, 1, 33, 127
1, 87744, Note_on_c, 1, 59, 127
1, 87836, Note_off_c, 1, 74, 0
1, 87836, Note_off_c, 1, 59, 0
1, 87840, Note_on_c, 1, 71, 127
1, 87840, Note_on_c, 1, 56, 127
1, 87932, Note_off_c, 1, 45, 0
1, 87932, Note_off_c, 1, 33, 0
1, 87932, Note_off_c, 1, 71, 0
1, 87932, Note_off_c, 1, 56, 0
1, 87936, Note_on_c, 1, 64, 127
1, 87936, Note_on_c, 1, 57, 127
1, 88032, Note_on_c, 1, 60, 127
1, 88124, Note_off_c, 1, 77, 0
1, 88124, Note_off_c, 1, 64, 0
1, 88124, Note_off_c, 1, 57, 0
1, 88124, Note_off_c, 1, 60, 0
1, 88128, Note_on_c, 1, 80, 127
1, 88128, Note_on_c, 1, 74, 127
1, 88128, Note_on_c, 1, 45, 127
1, 88128, Note_on_c, 1, 33, 127
1, 88128, Note_on_c, 1, 59, 127
1, 88220, Note_off_c, 1, 74, 0
1, 88220, Note_off_c, 1, 59, 0
1, 88224, Note_on_c, 1, 71, 127
1, 88224, Note_on_c, 1, 57, 127
1, 88316, Note_off_c, 1, 45, 0
1, 88316, Note_off_c, 1, 33, 0
1, 88316, Note_off_c, 1, 71, 0
1, 88316, Note_off_c, 1, 57, 0
1, 88320, Note_on_c, 1, 62, 127
1, 88416, Note_on_c, 1, 60, 127
1, 88508, Note_off_c, 1, 80, 0
1, 88508, Note_off_c, 1, 62, 0
1, 88508, Note_off_c, 1, 60, 0
1, 88512, Note_on_c, 1, 77, 127
1, 88512, Note_on_c, 1, 80, 127
1, 88512, Note_on_c, 1, 45, 127
1, 88512, Note_on_c, 1, 33, 127
1, 88512, Note_on_c, 1, 62, 127
1, 88604, Note_off_c, 1, 77, 0
1, 88604, Note_off_c, 1, 62, 0
1, 88608, Note_on_c, 1, 74, 127
1, 88608, Note_on_c, 1, 59, 127
1, 88700, Note_off_c, 1, 45, 0
1, 88700, Note_off_c, 1, 33, 0
1, 88700, Note_off_c, 1, 74, 0
1, 88700, Note_off_c, 1, 59, 0
1, 88704, Note_on_c, 1, 64, 127
1, 88704, Note_on_c, 1, 60, 127
1, 88892, Note_off_c, 1, 80, 0
1, 88892, Note_off_c, 1, 64, 0
1, 88892, Note_off_c, 1, 60, 0
1, 88896, Note_on_c, 1, 83, 127
1, 88896, Note_on_c, 1, 77, 127
1, 88896, Note_on_c, 1, 45, 127
1, 88896, Note_on_c, 1, 33, 127
1, 88896, Note_on_c, 1, 62, 127
1, 88988, Note_off_c, 1, 77, 0
1, 88988, Note_off_c, 1, 62, 0
1, 88992, Note_on_c, 1, 74, 127
1, 88992, Note_on_c, 1, 60, 127
1, 89084, Note_off_c, 1, 45, 0
1, 89084, Note_off_c, 1, 33, 0
1, 89084, Note_off_c, 1, 74, 0
1, 89084, Note_off_c, 1, 60, 0
1, 89184, Note_on_c, 1, 50, 127
1, 89276, Note_off_c, 1, 83, 0
1, 89276, Note_off_c, 1, 50, 0
1, 89280, Note_on_c, 1, 80, 127
1, 89372, Note_off_c, 1, 80, 0
1, 89376, Note_on_c, 1, 76, 127
1, 89468, Note_off_c, 1, 76, 0
1, 89664, Note_on_c, 1, 76, 127
1, 89664, Note_on_c, 1, 80, 127
1, 89664, Note_on_c, 1, 62, 127
1, 89756, Note_off_c, 1, 76, 0
1, 89756, Note_off_c, 1, 80, 0
1, 89760, Note_on_c, 1, 72, 127
1, 89852, Note_off_c, 1, 62, 0
1, 89852, Note_off_c, 1, 72, 0
1, 89856, Note_on_c, 1, 74, 127
1, 89856, Note_on_c, 1, 77, 127
1, 89856, Note_on_c, 1, 62, 127
1, 89948, Note_off_c, 1, 74, 0
1, 89948, Note_off_c, 1, 77, 0
1, 89952, Note_on_c, 1, 71, 127
1, 89952, Note_on_c, 1, 50, 127
1, 90044, Note_off_c, 1, 62, 0
1, 90044, Note_off_c, 1, 71, 0
1, 90044, Note_off_c, 1, 50, 0
1, 90048, Note_on_c, 1, 72, 127
1, 90048, Note_on_c, 1, 76, 127
1, 90048, Note_on_c, 1, 62, 127
1, 90140, Note_off_c, 1, 72, 0
1, 90140, Note_off_c, 1, 76, 0
1, 90144, Note_on_c, 1, 69, 127
1, 90144, Note_on_c, 1, 60, 127
1, 90236, Note_off_c, 1, 62, 0
1, 90236, Note_off_c, 1, 69, 0
1, 90236, Note_off_c, 1, 60, 0
1, 90240, Note_on_c, 1, 71, 127
1, 90240, Note_on_c, 1, 74, 127
1, 90240, Note_on_c, 1, 62, 127
1, 90332, Note_off_c, 1, 71, 0
1, 90332, Note_off_c, 1, 74, 0
1, 90336, Note_on_c, 1, 68, 127
1, 90428, Note_off_c, 1, 62, 0
1, 90428, Note_off_c, 1, 68, 0
1, 90432, Note_on_c, 1, 69, 127
1, 90432, Note_on_c, 1, 72, 127
1, 90432, Note_on_c, 1, 62, 127
1, 90524, Note_off_c, 1, 69, 0
1, 90524, Note_off_c, 1, 72, 0
1, 90528, Note_on_c, 1, 66, 127
1, 90620, Note_off_c, 1, 62, 0
1, 90620, Note_off_c, 1, 66, 0
1, 90624, Note_on_c, 1, 68, 127
1, 90624, Note_on_c, 1, 76, 127
1, 90624, Note_on_c, 1, 62, 127
1, 90624, Note_on_c, 1, 59, 127
1, 90624, Note_on_c, 1, 52, 127
1, 90624, Note_on_c, 1, 50, 127
1, 90716, Note_off_c, 1, 68, 0
1, 90720, Note_on_c, 1, 64, 127
1, 90812, Note_off_c, 1, 59, 0
1, 90812, Note_off_c, 1, 52, 0
1, 90812, Note_off_c, 1, 64, 0
1, 90816, Note_on_c, 1, 66, 127
1, 90908, Note_off_c, 1, 50, 0
1, 90908, Note_off_c, 1, 66, 0
1, 91004, Note_off_c, 1, 62, 0
1, 91008, Note_on_c, 1, 69, 127
1, 91008, Note_on_c, 1, 54, 127
1, 91100, Note_off_c, 1, 69, 0
1, 91100, Note_off_c, 1, 54, 0
1, 91104, Note_on_c, 1, 71, 127
1, 91104, Note_on_c, 1, 56, 127
1, 91196, Note_off_c, 1, 71, 0
1, 91196, Note_off_c, 1, 56, 0
1, 91200, Note_on_c, 1, 72, 127
1, 91200, Note_on_c, 1, 57, 127
1, 91292, Note_off_c, 1, 72, 0
1, 91292, Note_off_c, 1, 57, 0
1, 91296, Note_on_c, 1, 74, 127
1, 91388, Note_off_c, 1, 74, 0
1, 91392, Note_on_c, 1, 49, 127
1, 91392, Note_on_c, 1, 37, 127
1, 91392, Note_on_c, 1, 61, 127
1, 91484, Note_off_c, 1, 49, 0
1, 91484, Note_off_c, 1, 37, 0
1, 91484, Note_off_c, 1, 61, 0
1, 91488, Note_on_c, 1, 77, 127
1, 91488, Note_on_c, 1, 38, 127
1, 91580, Note_off_c, 1, 77, 0
1, 91580, Note_off_c, 1, 38, 0
1, 91584, Note_on_c, 1, 79, 127
1, 91584, Note_on_c, 1, 40, 127
1, 91712, Note_off_c, 1, 79, 0
1, 91712, Note_off_c, 1, 40, 0
1, 91872, Note_on_c, 1, 81, 127
1, 91872, Note_on_c, 1, 53, 127
1, 91872, Note_on_c, 1, 41, 127
1, 91872, Note_on_c, 1, 65, 127
1, 91964, Note_off_c, 1, 81, 0
1, 91964, Note_off_c, 1, 53, 0
1, 91964, Note_off_c, 1, 41, 0
1, 91964, Note_off_c, 1, 65, 0
1, 91968, Note_on_c, 1, 82, 127
1, 91968, Note_on_c, 1, 55, 127
1, 91968, Note_on_c, 1, 43, 127
1, 91968, Note_on_c, 1, 67, 127
1, 92096, Note_off_c, 1, 82, 0
1, 92096, Note_off_c, 1, 55, 0
1, 92096, Note_off_c, 1, 43, 0
1, 92096, Note_off_c, 1, 67, 0
1, 92160, Note_on_c, 1, 73, 127
1, 92160, Note_on_c, 1, 58, 127
1, 92288, Note_off_c, 1, 73, 0
1, 92348, Note_off_c, 1, 76, 0
1, 92348, Note_off_c, 1, 58, 0
1, 92352, Note_on_c, 1, 74, 127
1, 92352, Note_on_c, 1, 77, 127
1, 92352, Note_on_c, 1, 57, 127
1, 92352, Note_on_c, 1, 53, 127
1, 92352, Note_on_c, 1, 41, 127
1, 92352, Note_on_c, 1, 65, 127
1, 92480, Note_off_c, 1, 74, 0
1, 92480, Note_off_c, 1, 77, 0
1, 92480, Note_off_c, 1, 57, 0
1, 92480, Note_off_c, 1, 53, 0
1, 92480, Note_off_c, 1, 41, 0
1, 92480, Note_off_c, 1, 65, 0
1, 92544, Note_on_c, 1, 68, 127
1, 92544, Note_on_c, 1, 71, 127
1, 92544, Note_on_c, 1, 62, 127
1, 92544, Note_on_c, 1, 53, 127
1, 92544, Note_on_c, 1, 41, 127
1, 92544, Note_on_c, 1, 59, 127
1, 92672, Note_off_c, 1, 68, 0
1, 92672, Note_off_c, 1, 71, 0
1, 92672, Note_off_c, 1, 59, 0
1, 92732, Note_off_c, 1, 62, 0
1, 92732, Note_off_c, 1, 53, 0
1, 92732, Note_off_c, 1, 41, 0
1, 92736, Note_on_c, 1, 69, 127
1, 92736, Note_on_c, 1, 72, 127
1, 92736, Note_on_c, 1, 64, 127
1, 92736, Note_on_c, 1, 52, 127
1, 92736, Note_on_c, 1, 40, 127
1, 92736, Note_on_c, 1, 60, 127
1, 92864, Note_off_c, 1, 69, 0
1, 92864, Note_off_c, 1, 72, 0
1, 92864, Note_off_c, 1, 64, 0
1, 92864, Note_off_c, 1, 52, 0
1, 92864, Note_off_c, 1, 40, 0
1, 92864, Note_off_c, 1, 60, 0
1, 92928, Note_on_c, 1, 63, 127
1, 92928, Note_on_c, 1, 51, 127
1, 92928, Note_on_c, 1, 39, 127
1, 93116, Note_off_c, 1, 63, 0
1, 93116, Note_off_c, 1, 51, 0
1, 93116, Note_off_c, 1, 39, 0
1, 93312, Note_on_c, 1, 64, 127
1, 93312, Note_on_c, 1, 52, 127
1, 93312, Note_on_c, 1, 40, 127
1, 93500, Note_off_c, 1, 64, 0
1, 93500, Note_off_c, 1, 52, 0
1, 93500, Note_off_c, 1, 40, 0
1, 93696, Note_on_c, 1, 57, 127
1, 93696, Note_on_c, 1, 45, 127
1, 93696, Note_on_c, 1, 33, 127
1, 93792, Note_on_c, 1, 69, 127
1, 93884, Note_off_c, 1, 57, 0
1, 93884, Note_off_c, 1, 69, 0
1, 94076, Note_off_c, 1, 45, 0
1, 94076, Note_off_c, 1, 33, 0
1, 94080, Note_on_c, 1, 59, 127
1, 94080, Note_on_c, 1, 68, 127
1, 94172, Note_off_c, 1, 68, 0
1, 94176, Note_on_c, 1, 69, 127
1, 94268, Note_off_c, 1, 59, 0
1, 94268, Note_off_c, 1, 69, 0
1, 94272, Note_on_c, 1, 60, 127
1, 94272, Note_on_c, 1, 69, 127
1, 94364, Note_off_c, 1, 69, 0
1, 94460, Note_off_c, 1, 60, 0
1, 94464, Note_on_c, 1, 62, 127
1, 94464, Note_on_c, 1, 70, 127
1, 94556, Note_off_c, 1, 70, 0
1, 94560, Note_on_c, 1, 69, 127
1, 94652, Note_off_c, 1, 62, 0
1, 94652, Note_off_c, 1, 69, 0
1, 94656, Note_on_c, 1, 65, 127
1, 94656, Note_on_c, 1, 69, 127
1, 94748, Note_off_c, 1, 69, 0
1, 94844, Note_off_c, 1, 65, 0
1, 94848, Note_on_c, 1, 64, 127
1, 94848, Note_on_c, 1, 68, 127
1, 94940, Note_off_c, 1, 68, 0
1, 94944, Note_on_c, 1, 69, 127
1, 95036, Note_off_c, 1, 64, 0
1, 95036, Note_off_c, 1, 69, 0
1, 95040, Note_on_c, 1, 62, 127
1, 95040, Note_on_c, 1, 69, 127
1, 95132, Note_off_c, 1, 69, 0
1, 95228, Note_off_c, 1, 62, 0
1, 95232, Note_on_c, 1, 60, 127
1, 95232, Note_on_c, 1, 45, 127
1, 95232, Note_on_c, 1, 33, 127
1, 95232, Note_on_c, 1, 64, 127
1, 95232, Note_on_c, 1, 57, 127
1, 95324, Note_off_c, 1, 64, 0
1, 95324, Note_off_c, 1, 57, 0
1, 95328, Note_on_c, 1, 69, 127
1, 95420, Note_off_c, 1, 60, 0
1, 95420, Note_off_c, 1, 69, 0
1, 95612, Note_off_c, 1, 45, 0
1, 95612, Note_off_c, 1, 33, 0
1, 95616, Note_on_c, 1, 59, 127
1, 95616, Note_on_c, 1, 68, 127
1, 95708, Note_off_c, 1, 68, 0
1, 95712, Note_on_c, 1, 69, 127
1, 95804, Note_off_c, 1, 59, 0
1, 95804, Note_off_c, 1, 69, 0
1, 95808, Note_on_c, 1, 60, 127
1, 95808, Note_on_c, 1, 69, 127
1, 95900, Note_off_c, 1, 69, 0
1, 95996, Note_off_c, 1, 60, 0
1, 96000, Note_on_c, 1, 62, 127
1, 96000, Note_on_c, 1, 70, 127
1, 96092, Note_off_c, 1, 70, 0
1, 96096, Note_on_c, 1, 69, 127
1, 96188, Note_off_c, 1, 62, 0
1, 96188, Note_off_c, 1, 69, 0
1, 96192, Note_on_c, 1, 65, 127
1, 96192, Note_on_c, 1, 69, 127
1, 96284, Note_off_c, 1, 69, 0
1, 96380, Note_off_c, 1, 65, 0
1, 96384, Note_on_c, 1, 64, 127
1, 96384, Note_on_c, 1, 68, 127
1, 96476, Note_off_c, 1, 68, 0
1, 96480, Note_on_c, 1, 69, 127
1, 96572, Note_off_c, 1, 64, 0
1, 96572, Note_off_c, 1, 69, 0
1, 96576, Note_on_c, 1, 62, 127
1, 96576, Note_on_c, 1, 69, 127
1, 96668, Note_off_c, 1, 69, 0
1, 96764, Note_off_c, 1, 62, 0
1, 96768, Note_on_c, 1, 60, 127
1, 96768, Note_on_c, 1, 45, 127
1, 96768, Note_on_c, 1, 33, 127
1, 96768, Note_on_c, 1, 64, 127
1, 96768, Note_on_c, 1, 57, 127
1, 96860, Note_off_c, 1, 64, 0
1, 96860, Note_off_c, 1, 57, 0
1, 96864, Note_on_c, 1, 69, 127
1, 96956, Note_off_c, 1, 60, 0
1, 96956, Note_off_c, 1, 69, 0
1, 96960, Note_on_c, 1, 72, 127
1, 97052, Note_off_c, 1, 72, 0
1, 97148, Note_off_c, 1, 45, 0
1, 97148, Note_off_c, 1, 33, 0
1, 97152, Note_on_c, 1, 68, 127
1, 97152, Note_on_c, 1, 71, 127
1, 97152, Note_on_c, 1, 62, 127
1, 97244, Note_off_c, 1, 71, 0
1, 97244, Note_off_c, 1, 62, 0
1, 97248, Note_on_c, 1, 69, 127
1, 97340, Note_off_c, 1, 68, 0
1, 97340, Note_off_c, 1, 69, 0
1, 97344, Note_on_c, 1, 69, 127
1, 97344, Note_on_c, 1, 72, 127
1, 97344, Note_on_c, 1, 64, 127
1, 97436, Note_off_c, 1, 72, 0
1, 97436, Note_off_c, 1, 64, 0
1, 97532, Note_off_c, 1, 69, 0
1, 97536, Note_on_c, 1, 71, 127
1, 97536, Note_on_c, 1, 74, 127
1, 97536, Note_on_c, 1, 65, 127
1, 97628, Note_off_c, 1, 74, 0
1, 97628, Note_off_c, 1, 65, 0
1, 97632, Note_on_c, 1, 69, 127
1, 97724, Note_off_c, 1, 71, 0
1, 97724, Note_off_c, 1, 69, 0
1, 97728, Note_on_c, 1, 69, 127
1, 97728, Note_on_c, 1, 72, 127
1, 97728, Note_on_c, 1, 64, 127
1, 97820, Note_off_c, 1, 72, 0
1, 97820, Note_off_c, 1, 64, 0
1, 97916, Note_off_c, 1, 69, 0
1, 97920, Note_on_c, 1, 71, 127
1, 97920, Note_on_c, 1, 74, 127
1, 97920, Note_on_c, 1, 65, 127
1, 98012, Note_off_c, 1, 74, 0
1, 98012, Note_off_c, 1, 65, 0
1, 98016, Note_on_c, 1, 69, 127
1, 98108, Note_off_c, 1, 71, 0
1, 98108, Note_off_c, 1, 69, 0
1, 98112, Note_on_c, 1, 68, 127
1, 98112, Note_on_c, 1, 71, 127
1, 98112, Note_on_c, 1, 62, 127
1, 98204, Note_off_c, 1, 71, 0
1, 98204, Note_off_c, 1, 62, 0
1, 98208, Note_on_c, 1, 69, 127
1, 98300, Note_off_c, 1, 68, 0
1, 98300, Note_off_c, 1, 69, 0
1, 98304, Note_on_c, 1, 69, 127
1, 98304, Note_on_c, 1, 45, 127
1, 98304, Note_on_c, 1, 33, 127
1, 98304, Note_on_c, 1, 72, 127
1, 98304, Note_on_c, 1, 64, 127
1, 98396, Note_off_c, 1, 72, 0
1, 98396, Note_off_c, 1, 64, 0
1, 98492, Note_off_c, 1, 69, 0
1, 98684, Note_off_c, 1, 45, 0
1, 98684, Note_off_c, 1, 33, 0
1, 98688, Note_on_c, 1, 68, 127
1, 98688, Note_on_c, 1, 71, 127
1, 98688, Note_on_c, 1, 62, 127
1, 98780, Note_off_c, 1, 71, 0
1, 98780, Note_off_c, 1, 62, 0
1, 98784, Note_on_c, 1, 69, 127
1, 98876, Note_off_c, 1, 68, 0
1, 98876, Note_off_c, 1, 69, 0
1, 98880, Note_on_c, 1, 69, 127
1, 98880, Note_on_c, 1, 72, 127
1, 98880, Note_on_c, 1, 64, 127
1, 98972, Note_off_c, 1, 72, 0
1, 98972, Note_off_c, 1, 64, 0
1, 99068, Note_off_c, 1, 69, 0
1, 99072, Note_on_c, 1, 71, 127
1, 99072, Note_on_c, 1, 74, 127
1, 99072, Note_on_c, 1, 65, 127
1, 99164, Note_off_c, 1, 74, 0
1, 99164, Note_off_c, 1, 65, 0
1, 99168, Note_on_c, 1, 69, 127
1, 99260, Note_off_c, 1, 71, 0
1, 99260, Note_off_c, 1, 69, 0
1, 99264, Note_on_c, 1, 69, 127
1, 99264, Note_on_c, 1, 72, 127
1, 99264, Note_on_c, 1, 64, 127
1, 99356, Note_off_c, 1, 72, 0
1, 99356, Note_off_c, 1, 64, 0
1, 99452, Note_off_c, 1, 69, 0
1, 99456, Note_on_c, 1, 71, 127
1, 99456, Note_on_c, 1, 74, 127
1, 99456, Note_on_c, 1, 65, 127
1, 99548, Note_off_c, 1, 74, 0
1, 99548, Note_off_c, 1, 65, 0
1, 99552, Note_on_c, 1, 69, 127
1, 99644, Note_off_c, 1, 71, 0
1, 99644, Note_off_c, 1, 69, 0
1, 99648, Note_on_c, 1, 68, 127
1, 99648, Note_on_c, 1, 71, 127
1, 99648, Note_on_c, 1, 62, 127
1, 99740, Note_off_c, 1, 71, 0
1, 99740, Note_off_c, 1, 62, 0
1, 99744, Note_on_c, 1, 69, 127
1, 99836, Note_off_c, 1, 68, 0
1, 99836, Note_off_c, 1, 69, 0
1, 99840, Note_on_c, 1, 69, 127
1, 99840, Note_on_c, 1, 45, 127
1, 99840, Note_on_c, 1, 33, 127
1, 99840, Note_on_c, 1, 72, 127
1, 99840, Note_on_c, 1, 64, 127
1, 99932, Note_off_c, 1, 72, 0
1, 99932, Note_off_c, 1, 64, 0
1, 100028, Note_off_c, 1, 69, 0
1, 100032, Note_on_c, 1, 60, 127
1, 100124, Note_off_c, 1, 60, 0
1, 100220, Note_off_c, 1, 45, 0
1, 100220, Note_off_c, 1, 33, 0
1, 100224, Note_on_c, 1, 65, 127
1, 100224, Note_on_c, 1, 70, 127
1, 100224, Note_on_c, 1, 62, 127
1, 100316, Note_off_c, 1, 70, 0
1, 100316, Note_off_c, 1, 62, 0
1, 100320, Note_on_c, 1, 69, 127
1, 100412, Note_off_c, 1, 65, 0
1, 100412, Note_off_c, 1, 69, 0
1, 100416, Note_on_c, 1, 62, 127
1, 100416, Note_on_c, 1, 59, 127
1, 100416, Note_on_c, 1, 68, 127
1, 100508, Note_off_c, 1, 59, 0
1, 100508, Note_off_c, 1, 68, 0
1, 100512, Note_on_c, 1, 69, 127
1, 100604, Note_off_c, 1, 62, 0
1, 100604, Note_off_c, 1, 69, 0
1, 100608, Note_on_c, 1, 64, 127
1, 100608, Note_on_c, 1, 69, 127
1, 100608, Note_on_c, 1, 60, 127
1, 100700, Note_off_c, 1, 69, 0
1, 100700, Note_off_c, 1, 60, 0
1, 100796, Note_off_c, 1, 64, 0
1, 100800, Note_on_c, 1, 69, 127
1, 100800, Note_on_c, 1, 72, 127
1, 100800, Note_on_c, 1, 64, 127
1, 100892, Note_off_c, 1, 72, 0
1, 100892, Note_off_c, 1, 64, 0
1, 100988, Note_off_c, 1, 69, 0
1, 100992, Note_on_c, 1, 65, 127
1, 100992, Note_on_c, 1, 70, 127
1, 100992, Note_on_c, 1, 62, 127
1, 101084, Note_off_c, 1, 70, 0
1, 101084, Note_off_c, 1, 62, 0
1, 101088, Note_on_c, 1, 69, 127
1, 101180, Note_off_c, 1, 65, 0
1, 101180, Note_off_c, 1, 69, 0
1, 101184, Note_on_c, 1, 62, 127
1, 101184, Note_on_c, 1, 68, 127
1, 101184, Note_on_c, 1, 59, 127
1, 101276, Note_off_c, 1, 68, 0
1, 101276, Note_off_c, 1, 59, 0
1, 101280, Note_on_c, 1, 69, 127
1, 101372, Note_off_c, 1, 62, 0
1, 101372, Note_off_c, 1, 69, 0
1, 101376, Note_on_c, 1, 64, 127
1, 101376, Note_on_c, 1, 45, 127
1, 101376, Note_on_c, 1, 33, 127
1, 101376, Note_on_c, 1, 69, 127
1, 101376, Note_on_c, 1, 60, 127
1, 101468, Note_off_c, 1, 69, 0
1, 101468, Note_off_c, 1, 60, 0
1, 101564, Note_off_c, 1, 64, 0
1, 101756, Note_off_c, 1, 45, 0
1, 101756, Note_off_c, 1, 33, 0
1, 101760, Note_on_c, 1, 62, 127
1, 101760, Note_on_c, 1, 66, 127
1, 101852, Note_off_c, 1, 62, 0
1, 101852, Note_off_c, 1, 66, 0
1, 101952, Note_on_c, 1, 62, 127
1, 101952, Note_on_c, 1, 68, 127
1, 101952, Note_on_c, 1, 59, 127
1, 102044, Note_off_c, 1, 68, 0
1, 102044, Note_off_c, 1, 59, 0
1, 102048, Note_on_c, 1, 69, 127
1, 102140, Note_off_c, 1, 62, 0
1, 102140, Note_off_c, 1, 69, 0
1, 102144, Note_on_c, 1, 60, 127
1, 102144, Note_on_c, 1, 69, 127
1, 102236, Note_off_c, 1, 69, 0
1, 102332, Note_off_c, 1, 60, 0
1, 102336, Note_on_c, 1, 60, 127
1, 102336, Note_on_c, 1, 64, 127
1, 102428, Note_off_c, 1, 64, 0
1, 102432, Note_on_c, 1, 69, 127
1, 102524, Note_off_c, 1, 69, 0
1, 102528, Note_on_c, 1, 66, 127
1, 102528, Note_on_c, 1, 62, 127
1, 102620, Note_off_c, 1, 66, 0
1, 102620, Note_off_c, 1, 62, 0
1, 102716, Note_off_c, 1, 60, 0
1, 102720, Note_on_c, 1, 59, 127
1, 102720, Note_on_c, 1, 68, 127
1, 102812, Note_off_c, 1, 68, 0
1, 102816, Note_on_c, 1, 69, 127
1, 102908, Note_off_c, 1, 59, 0
1, 102908, Note_off_c, 1, 69, 0
1, 102912, Note_on_c, 1, 57, 127
1, 102912, Note_on_c, 1, 69, 127
1, 102912, Note_on_c, 1, 60, 127
1, 103004, Note_off_c, 1, 69, 0
1, 103004, Note_off_c, 1, 60, 0
1, 103104, Note_on_c, 1, 64, 127
1, 103196, Note_off_c, 1, 64, 0
1, 103292, Note_off_c, 1, 57, 0
1, 103296, Note_on_c, 1, 66, 127
1, 103296, Note_on_c, 1, 62, 127
1, 103388, Note_off_c, 1, 66, 0
1, 103388, Note_off_c, 1, 62, 0
1, 103392, Note_on_c, 1, 69, 127
1, 103484, Note_off_c, 1, 69, 0
1, 103488, Note_on_c, 1, 64, 127
1, 103488, Note_on_c, 1, 68, 127
1, 103580, Note_off_c, 1, 64, 0
1, 103580, Note_off_c, 1, 68, 0
1, 103584, Note_on_c, 1, 69, 127
1, 103676, Note_off_c, 1, 69, 0
1, 103680, Note_on_c, 1, 66, 127
1, 103680, Note_on_c, 1, 69, 127
1, 103772, Note_off_c, 1, 66, 0
1, 103772, Note_off_c, 1, 69, 0
1, 103776, Note_on_c, 1, 69, 127
1, 103868, Note_off_c, 1, 69, 0
1, 103872, Note_on_c, 1, 68, 127
1, 103872, Note_on_c, 1, 71, 127
1, 103964, Note_off_c, 1, 68, 0
1, 103964, Note_off_c, 1, 71, 0
1, 103968, Note_on_c, 1, 69, 127
1, 104060, Note_off_c, 1, 69, 0
1, 104064, Note_on_c, 1, 69, 127
1, 104064, Note_on_c, 1, 72, 127
1, 104156, Note_off_c, 1, 69, 0
1, 104156, Note_off_c, 1, 72, 0
1, 104160, Note_on_c, 1, 69, 127
1, 104252, Note_off_c, 1, 69, 0
1, 104256, Note_on_c, 1, 74, 127
1, 104256, Note_on_c, 1, 71, 127
1, 104348, Note_off_c, 1, 74, 0
1, 104348, Note_off_c, 1, 71, 0
1, 104352, Note_on_c, 1, 69, 127
1, 104444, Note_off_c, 1, 69, 0
1, 104448, Note_on_c, 1, 76, 127
1, 104448, Note_on_c, 1, 72, 127
1, 104540, Note_off_c, 1, 76, 0
1, 104540, Note_off_c, 1, 72, 0
1, 104544, Note_on_c, 1, 69, 127
1, 104636, Note_off_c, 1, 69, 0
1, 104640, Note_on_c, 1, 76, 127
1, 104640, Note_on_c, 1, 57, 127
1, 104640, Note_on_c, 1, 45, 127
1, 104640, Note_on_c, 1, 72, 127
1, 104732, Note_off_c, 1, 72, 0
1, 104736, Note_on_c, 1, 55, 127
1, 104736, Note_on_c, 1, 59, 127
1, 104828, Note_off_c, 1, 76, 0
1, 104828, Note_off_c, 1, 55, 0
1, 104828, Note_off_c, 1, 59, 0
1, 104832, Note_on_c, 1, 78, 127
1, 104832, Note_on_c, 1, 75, 127
1, 104832, Note_on_c, 1, 54, 127
1, 104832, Note_on_c, 1, 81, 127
1, 104924, Note_off_c, 1, 81, 0
1, 104928, Note_on_c, 1, 79, 127
1, 105020, Note_off_c, 1, 57, 0
1, 105020, Note_off_c, 1, 45, 0
1, 105020, Note_off_c, 1, 78, 0
1, 105020, Note_off_c, 1, 75, 0
1, 105020, Note_off_c, 1, 54, 0
1, 105020, Note_off_c, 1, 79, 0
1, 105024, Note_on_c, 1, 79, 127
1, 105024, Note_on_c, 1, 76, 127
1, 105024, Note_on_c, 1, 59, 127
1, 105024, Note_on_c, 1, 55, 127
1, 105024, Note_on_c, 1, 43, 127
1, 105024, Note_on_c, 1, 78, 127
1, 105116, Note_off_c, 1, 78, 0
1, 105212, Note_off_c, 1, 79, 0
1, 105212, Note_off_c, 1, 76, 0
1, 105212, Note_off_c, 1, 59, 0
1, 105212, Note_off_c, 1, 55, 0
1, 105212, Note_off_c, 1, 43, 0
1, 105216, Note_on_c, 1, 81, 127
1, 105216, Note_on_c, 1, 78, 127
1, 105216, Note_on_c, 1, 60, 127
1, 105216, Note_on_c, 1, 54, 127
1, 105216, Note_on_c, 1, 42, 127
1, 105216, Note_on_c, 1, 75, 127
1, 105308, Note_off_c, 1, 75, 0
1, 105404, Note_off_c, 1, 81, 0
1, 105404, Note_off_c, 1, 78, 0
1, 105404, Note_off_c, 1, 60, 0
1, 105404, Note_off_c, 1, 54, 0
1, 105404, Note_off_c, 1, 42, 0
1, 105408, Note_on_c, 1, 59, 127
1, 105408, Note_on_c, 1, 47, 127
1, 105408, Note_on_c, 1, 81, 127
1, 105500, Note_off_c, 1, 81, 0
1, 105504, Note_on_c, 1, 84, 127
1, 105504, Note_on_c, 1, 57, 127
1, 105596, Note_off_c, 1, 84, 0
1, 105596, Note_off_c, 1, 57, 0
1, 105600, Note_on_c, 1, 78, 127
1, 105600, Note_on_c, 1, 75, 127
1, 105600, Note_on_c, 1, 83, 127
1, 105692, Note_off_c, 1, 83, 0
1, 105788, Note_off_c, 1, 59, 0
1, 105788, Note_off_c, 1, 47, 0
1, 105788, Note_off_c, 1, 78, 0
1, 105788, Note_off_c, 1, 75, 0
1, 105792, Note_on_c, 1, 47, 127
1, 105792, Note_on_c, 1, 35, 127
1, 105792, Note_on_c, 1, 79, 127
1, 105884, Note_off_c, 1, 79, 0
1, 105888, Note_on_c, 1, 78, 127
1, 105980, Note_off_c, 1, 47, 0
1, 105980, Note_off_c, 1, 35, 0
1, 105980, Note_off_c, 1, 78, 0
1, 105984, Note_on_c, 1, 76, 127
1, 105984, Note_on_c, 1, 71, 127
1, 105984, Note_on_c, 1, 59, 127
1, 105984, Note_on_c, 1, 52, 127
1, 105984, Note_on_c, 1, 40, 127
1, 105984, Note_on_c, 1, 79, 127
1, 106080, Note_on_c, 1, 64, 127
1, 106172, Note_off_c, 1, 76, 0
1, 106172, Note_off_c, 1, 71, 0
1, 106172, Note_off_c, 1, 59, 0
1, 106172, Note_off_c, 1, 79, 0
1, 106172, Note_off_c, 1, 64, 0
1, 106364, Note_off_c, 1, 52, 0
1, 106364, Note_off_c, 1, 40, 0
1, 106368, Note_on_c, 1, 66, 127
1, 106368, Note_on_c, 1, 75, 127
1, 106460, Note_off_c, 1, 75, 0
1, 106464, Note_on_c, 1, 76, 127
1, 106556, Note_off_c, 1, 66, 0
1, 106556, Note_off_c, 1, 76, 0
1, 106560, Note_on_c, 1, 67, 127
1, 106560, Note_on_c, 1, 76, 127
1, 106652, Note_off_c, 1, 76, 0
1, 106748, Note_off_c, 1, 67, 0
1, 106752, Note_on_c, 1, 69, 127
1, 106752, Note_on_c, 1, 77, 127
1, 106844, Note_off_c, 1, 77, 0
1, 106848, Note_on_c, 1, 76, 127
1, 106940, Note_off_c, 1, 69, 0
1, 106940, Note_off_c, 1, 76, 0
1, 106944, Note_on_c, 1, 72, 127
1, 106944, Note_on_c, 1, 76, 127
1, 107036, Note_off_c, 1, 76, 0
1, 107132, Note_off_c, 1, 72, 0
1, 107136, Note_on_c, 1, 71, 127
1, 107136, Note_on_c, 1, 75, 127
1, 107228, Note_off_c, 1, 75, 0
1, 107232, Note_on_c, 1, 76, 127
1, 107324, Note_off_c, 1, 71, 0
1, 107324, Note_off_c, 1, 76, 0
1, 107328, Note_on_c, 1, 69, 127
1, 107328, Note_on_c, 1, 76, 127
1, 107420, Note_off_c, 1, 76, 0
1, 107516, Note_off_c, 1, 69, 0
1, 107520, Note_on_c, 1, 67, 127
1, 107520, Note_on_c, 1, 52, 127
1, 107520, Note_on_c, 1, 40, 127
1, 107520, Note_on_c, 1, 71, 127
1, 107520, Note_on_c, 1, 64, 127
1, 107612, Note_off_c, 1, 71, 0
1, 107612, Note_off_c, 1, 64, 0
1, 107616, Note_on_c, 1, 76, 127
1, 107708, Note_off_c, 1, 67, 0
1, 107708, Note_off_c, 1, 76, 0
1, 107900, Note_off_c, 1, 52, 0
1, 107900, Note_off_c, 1, 40, 0
1, 107904, Note_on_c, 1, 66, 127
1, 107904, Note_on_c, 1, 75, 127
1, 107996, Note_off_c, 1, 75, 0
1, 108000, Note_on_c, 1, 76, 127
1, 108092, Note_off_c, 1, 66, 0
1, 108092, Note_off_c, 1, 76, 0
1, 108096, Note_on_c, 1, 67, 127
1, 108096, Note_on_c, 1, 76, 127
1, 108188, Note_off_c, 1, 76, 0
1, 108284, Note_off_c, 1, 67, 0
1, 108288, Note_on_c, 1, 69, 127
1, 108288, Note_on_c, 1, 77, 127
1, 108380, Note_off_c, 1, 77, 0
1, 108384, Note_on_c, 1, 76, 127
1, 108476, Note_off_c, 1, 69, 0
1, 108476, Note_off_c, 1, 76, 0
1, 108480, Note_on_c, 1, 72, 127
1, 108480, Note_on_c, 1, 76, 127
1, 108572, Note_off_c, 1, 76, 0
1, 108668, Note_off_c, 1, 72, 0
1, 108672, Note_on_c, 1, 71, 127
1, 108672, Note_on_c, 1, 75, 127
1, 108764, Note_off_c, 1, 75, 0
1, 108768, Note_on_c, 1, 76, 127
1, 108860, Note_off_c, 1, 71, 0
1, 108860, Note_off_c, 1, 76, 0
1, 108864, Note_on_c, 1, 69, 127
1, 108864, Note_on_c, 1, 76, 127
1, 108956, Note_off_c, 1, 76, 0
1, 109052, Note_off_c, 1, 69, 0
1, 109056, Note_on_c, 1, 67, 127
1, 109056, Note_on_c, 1, 52, 127
1, 109056, Note_on_c, 1, 40, 127
1, 109056, Note_on_c, 1, 71, 127
1, 109056, Note_on_c, 1, 64, 127
1, 109148, Note_off_c, 1, 71, 0
1, 109148, Note_off_c, 1, 64, 0
1, 109152, Note_on_c, 1, 76, 127
1, 109244, Note_off_c, 1, 67, 0
1, 109244, Note_off_c, 1, 76, 0
1, 109248, Note_on_c, 1, 79, 127
1, 109340, Note_off_c, 1, 79, 0
1, 109436, Note_off_c, 1, 52, 0
1, 109436, Note_off_c, 1, 40, 0
1, 109440, Note_on_c, 1, 75, 127
1, 109440, Note_on_c, 1, 69, 127
1, 109440, Note_on_c, 1, 78, 127
1, 109532, Note_off_c, 1, 69, 0
1, 109532, Note_off_c, 1, 78, 0
1, 109536, Note_on_c, 1, 76, 127
1, 109628, Note_off_c, 1, 75, 0
1, 109628, Note_off_c, 1, 76, 0
1, 109632, Note_on_c, 1, 76, 127
1, 109632, Note_on_c, 1, 79, 127
1, 109632, Note_on_c, 1, 71, 127
1, 109724, Note_off_c, 1, 79, 0
1, 109724, Note_off_c, 1, 71, 0
1, 109820, Note_off_c, 1, 76, 0
1, 109824, Note_on_c, 1, 78, 127
1, 109824, Note_on_c, 1, 81, 127
1, 109824, Note_on_c, 1, 72, 127
1, 109916, Note_off_c, 1, 81, 0
1, 109916, Note_off_c, 1, 72, 0
1, 109920, Note_on_c, 1, 76, 127
1, 110012, Note_off_c, 1, 78, 0
1, 110012, Note_off_c, 1, 76, 0
1, 110016, Note_on_c, 1, 76, 127
1, 110016, Note_on_c, 1, 79, 127
1, 110016, Note_on_c, 1, 71, 127
1, 110108, Note_off_c, 1, 79, 0
1, 110108, Note_off_c, 1, 71, 0
1, 110204, Note_off_c, 1, 76, 0
1, 110208, Note_on_c, 1, 78, 127
1, 110208, Note_on_c, 1, 81, 127
1, 110208, Note_on_c, 1, 72, 127
1, 110300, Note_off_c, 1, 81, 0
1, 110300, Note_off_c, 1, 72, 0
1, 110304, Note_on_c, 1, 76, 127
1, 110396, Note_off_c, 1, 78, 0
1, 110396, Note_off_c, 1, 76, 0
1, 110400, Note_on_c, 1, 75, 127
1, 110400, Note_on_c, 1, 78, 127
1, 110400, Note_on_c, 1, 69, 127
1, 110492, Note_off_c, 1, 78, 0
1, 110492, Note_off_c, 1, 69, 0
1, 110496, Note_on_c, 1, 76, 127
1, 110588, Note_off_c, 1, 75, 0
1, 110588, Note_off_c, 1, 76, 0
1, 110592, Note_on_c, 1, 76, 127
1, 110592, Note_on_c, 1, 52, 127
1, 110592, Note_on_c, 1, 40, 127
1, 110592, Note_on_c, 1, 79, 127
1, 110592, Note_on_c, 1, 71, 127
1, 110684, Note_off_c, 1, 79, 0
1, 110684, Note_off_c, 1, 71, 0
1, 110780, Note_off_c, 1, 76, 0
1, 110972, Note_off_c, 1, 52, 0
1, 110972, Note_off_c, 1, 40, 0
1, 110976, Note_on_c, 1, 75, 127
1, 110976, Note_on_c, 1, 78, 127
1, 110976, Note_on_c, 1, 69, 127
1, 111068, Note_off_c, 1, 78, 0
1, 111068, Note_off_c, 1, 69, 0
1, 111072, Note_on_c, 1, 76, 127
1, 111164, Note_off_c, 1, 75, 0
1, 111164, Note_off_c, 1, 76, 0
1, 111168, Note_on_c, 1, 76, 127
1, 111168, Note_on_c, 1, 79, 127
1, 111168, Note_on_c, 1, 71, 127
1, 111260, Note_off_c, 1, 79, 0
1, 111260, Note_off_c, 1, 71, 0
1, 111356, Note_off_c, 1, 76, 0
1, 111360, Note_on_c, 1, 78, 127
1, 111360, Note_on_c, 1, 81, 127
1, 111360, Note_on_c, 1, 72, 127
1, 111452, Note_off_c, 1, 81, 0
1, 111452, Note_off_c, 1, 72, 0
1, 111456, Note_on_c, 1, 76, 127
1, 111548, Note_off_c, 1, 78, 0
1, 111548, Note_off_c, 1, 76, 0
1, 111552, Note_on_c, 1, 76, 127
1, 111552, Note_on_c, 1, 79, 127
1, 111552, Note_on_c, 1, 71, 127
1, 111644, Note_off_c, 1, 79, 0
1, 111644, Note_off_c, 1, 71, 0
1, 111740, Note_off_c, 1, 76, 0
1, 111744, Note_on_c, 1, 78, 127
1, 111744, Note_on_c, 1, 81, 127
1, 111744, Note_on_c, 1, 72, 127
1, 111836, Note_off_c, 1, 81, 0
1, 111836, Note_off_c, 1, 72, 0
1, 111840, Note_on_c, 1, 76, 127
1, 111932, Note_off_c, 1, 78, 0
1, 111932, Note_off_c, 1, 76, 0
1, 111936, Note_on_c, 1, 75, 127
1, 111936, Note_on_c, 1, 78, 127
1, 111936, Note_on_c, 1, 69, 127
1, 112028, Note_off_c, 1, 78, 0
1, 112028, Note_off_c, 1, 69, 0
1, 112032, Note_on_c, 1, 76, 127
1, 112124, Note_off_c, 1, 75, 0
1, 112124, Note_off_c, 1, 76, 0
1, 112128, Note_on_c, 1, 76, 127
1, 112128, Note_on_c, 1, 52, 127
1, 112128, Note_on_c, 1, 40, 127
1, 112128, Note_on_c, 1, 79, 127
1, 112128, Note_on_c, 1, 71, 127
1, 112220, Note_off_c, 1, 79, 0
1, 112220, Note_off_c, 1, 71, 0
1, 112316, Note_off_c, 1, 76, 0
1, 112320, Note_on_c, 1, 67, 127
1, 112412, Note_off_c, 1, 67, 0
1, 112508, Note_off_c, 1, 52, 0
1, 112508, Note_off_c, 1, 40, 0
1, 112512, Note_on_c, 1, 72, 127
1, 112512, Note_on_c, 1, 77, 127
1, 112512, Note_on_c, 1, 69, 127
1, 112604, Note_off_c, 1, 77, 0
1, 112604, Note_off_c, 1, 69, 0
1, 112608, Note_on_c, 1, 76, 127
1, 112700, Note_off_c, 1, 72, 0
1, 112700, Note_off_c, 1, 76, 0
1, 112704, Note_on_c, 1, 69, 127
1, 112704, Note_on_c, 1, 75, 127
1, 112704, Note_on_c, 1, 66, 127
1, 112796, Note_off_c, 1, 75, 0
1, 112796, Note_off_c, 1, 66, 0
1, 112800, Note_on_c, 1, 76, 127
1, 112892, Note_off_c, 1, 69, 0
1, 112892, Note_off_c, 1, 76, 0
1, 112896, Note_on_c, 1, 71, 127
1, 112896, Note_on_c, 1, 76, 127
1, 112896, Note_on_c, 1, 67, 127
1, 112988, Note_off_c, 1, 76, 0
1, 112988, Note_off_c, 1, 67, 0
1, 113084, Note_off_c, 1, 71, 0
1, 113088, Note_on_c, 1, 76, 127
1, 113088, Note_on_c, 1, 79, 127
1, 113088, Note_on_c, 1, 71, 127
1, 113180, Note_off_c, 1, 79, 0
1, 113180, Note_off_c, 1, 71, 0
1, 113276, Note_off_c, 1, 76, 0
1, 113280, Note_on_c, 1, 72, 127
1, 113280, Note_on_c, 1, 77, 127
1, 113280, Note_on_c, 1, 69, 127
1, 113372, Note_off_c, 1, 77, 0
1, 113372, Note_off_c, 1, 69, 0
1, 113376, Note_on_c, 1, 76, 127
1, 113468, Note_off_c, 1, 72, 0
1, 113468, Note_off_c, 1, 76, 0
1, 113472, Note_on_c, 1, 69, 127
1, 113472, Note_on_c, 1, 75, 127
1, 113472, Note_on_c, 1, 66, 127
1, 113564, Note_off_c, 1, 75, 0
1, 113564, Note_off_c, 1, 66, 0
1, 113568, Note_on_c, 1, 76, 127
1, 113660, Note_off_c, 1, 69, 0
1, 113660, Note_off_c, 1, 76, 0
1, 113664, Note_on_c, 1, 71, 127
1, 113664, Note_on_c, 1, 52, 127
1, 113664, Note_on_c, 1, 40, 127
1, 113664, Note_on_c, 1, 76, 127
1, 113664, Note_on_c, 1, 67, 127
1, 113756, Note_off_c, 1, 76, 0
1, 113756, Note_off_c, 1, 67, 0
1, 113852, Note_off_c, 1, 71, 0
1, 114044, Note_off_c, 1, 52, 0
1, 114044, Note_off_c, 1, 40, 0
1, 114048, Note_on_c, 1, 73, 127
1, 114048, Note_on_c, 1, 69, 127
1, 114140, Note_off_c, 1, 73, 0
1, 114140, Note_off_c, 1, 69, 0
1, 114240, Note_on_c, 1, 69, 127
1, 114240, Note_on_c, 1, 75, 127
1, 114240, Note_on_c, 1, 66, 127
1, 114332, Note_off_c, 1, 75, 0
1, 114332, Note_off_c, 1, 66, 0
1, 114336, Note_on_c, 1, 76, 127
1, 114428, Note_off_c, 1, 69, 0
1, 114428, Note_off_c, 1, 76, 0
1, 114432, Note_on_c, 1, 67, 127
1, 114432, Note_on_c, 1, 76, 127
1, 114524, Note_off_c, 1, 76, 0
1, 114620, Note_off_c, 1, 67, 0
1, 114624, Note_on_c, 1, 67, 127
1, 114624, Note_on_c, 1, 71, 127
1, 114716, Note_off_c, 1, 71, 0
1, 114720, Note_on_c, 1, 76, 127
1, 114812, Note_off_c, 1, 76, 0
1, 114816, Note_on_c, 1, 69, 127
1, 114816, Note_on_c, 1, 73, 127
1, 114908, Note_off_c, 1, 69, 0
1, 114908, Note_off_c, 1, 73, 0
1, 115004, Note_off_c, 1, 67, 0
1, 115008, Note_on_c, 1, 66, 127
1, 115008, Note_on_c, 1, 75, 127
1, 115100, Note_off_c, 1, 75, 0
1, 115104, Note_on_c, 1, 76, 127
1, 115196, Note_off_c, 1, 66, 0
1, 115196, Note_off_c, 1, 76, 0
1, 115200, Note_on_c, 1, 64, 127
1, 115200, Note_on_c, 1, 76, 127
1, 115200, Note_on_c, 1, 67, 127
1, 115292, Note_off_c, 1, 76, 0
1, 115292, Note_off_c, 1, 67, 0
1, 115388, Note_off_c, 1, 64, 0
1, 115392, Note_on_c, 1, 71, 127
1, 115392, Note_on_c, 1, 67, 127
1, 115484, Note_off_c, 1, 71, 0
1, 115484, Note_off_c, 1, 67, 0
1, 115488, Note_on_c, 1, 76, 127
1, 115580, Note_off_c, 1, 76, 0
1, 115584, Note_on_c, 1, 69, 127
1, 115584, Note_on_c, 1, 73, 127
1, 115676, Note_off_c, 1, 69, 0
1, 115676, Note_off_c, 1, 73, 0
1, 115680, Note_on_c, 1, 76, 127
1, 115772, Note_off_c, 1, 76, 0
1, 115776, Note_on_c, 1, 71, 127
1, 115776, Note_on_c, 1, 75, 127
1, 115868, Note_off_c, 1, 71, 0
1, 115868, Note_off_c, 1, 75, 0
1, 115872, Note_on_c, 1, 76, 127
1, 115964, Note_off_c, 1, 76, 0
1, 115968, Note_on_c, 1, 73, 127
1, 115968, Note_on_c, 1, 76, 127
1, 116060, Note_off_c, 1, 73, 0
1, 116060, Note_off_c, 1, 76, 0
1, 116064, Note_on_c, 1, 76, 127
1, 116156, Note_off_c, 1, 76, 0
1, 116160, Note_on_c, 1, 75, 127
1, 116160, Note_on_c, 1, 78, 127
1, 116252, Note_off_c, 1, 75, 0
1, 116252, Note_off_c, 1, 78, 0
1, 116256, Note_on_c, 1, 76, 127
1, 116348, Note_off_c, 1, 76, 0
1, 116352, Note_on_c, 1, 76, 127
1, 116352, Note_on_c, 1, 79, 127
1, 116444, Note_off_c, 1, 76, 0
1, 116444, Note_off_c, 1, 79, 0
1, 116448, Note_on_c, 1, 76, 127
1, 116540, Note_off_c, 1, 76, 0
1, 116544, Note_on_c, 1, 78, 127
1, 116544, Note_on_c, 1, 81, 127
1, 116636, Note_off_c, 1, 78, 0
1, 116636, Note_off_c, 1, 81, 0
1, 116640, Note_on_c, 1, 76, 127
1, 116732, Note_off_c, 1, 76, 0
1, 116736, Note_on_c, 1, 79, 127
1, 116736, Note_on_c, 1, 83, 127
1, 116828, Note_off_c, 1, 79, 0
1, 116828, Note_off_c, 1, 83, 0
1, 116832, Note_on_c, 1, 76, 127
1, 116924, Note_off_c, 1, 76, 0
1, 116928, Note_on_c, 1, 76, 127
1, 116928, Note_on_c, 1, 79, 127
1, 116928, Note_on_c, 1, 83, 127
1, 117020, Note_off_c, 1, 79, 0
1, 117020, Note_off_c, 1, 83, 0
1, 117120, Note_on_c, 1, 81, 127
1, 117120, Note_on_c, 1, 84, 127
1, 117212, Note_off_c, 1, 81, 0
1, 117212, Note_off_c, 1, 84, 0
1, 117308, Note_off_c, 1, 76, 0
1, 117312, Note_on_c, 1, 71, 127
1, 117312, Note_on_c, 1, 76, 127
1, 117312, Note_on_c, 1, 83, 127
1, 117312, Note_on_c, 1, 79, 127
1, 117404, Note_off_c, 1, 71, 0
1, 117404, Note_off_c, 1, 83, 0
1, 117404, Note_off_c, 1, 79, 0
1, 117408, Note_on_c, 1, 67, 127
1, 117500, Note_off_c, 1, 67, 0
1, 117504, Note_on_c, 1, 64, 127
1, 117504, Note_on_c, 1, 81, 127
1, 117504, Note_on_c, 1, 84, 127
1, 117596, Note_off_c, 1, 81, 0
1, 117596, Note_off_c, 1, 84, 0
1, 117692, Note_off_c, 1, 76, 0
1, 117692, Note_off_c, 1, 64, 0
1, 117696, Note_on_c, 1, 76, 127
1, 117696, Note_on_c, 1, 72, 127
1, 117696, Note_on_c, 1, 78, 127
1, 117696, Note_on_c, 1, 81, 127
1, 117788, Note_off_c, 1, 72, 0
1, 117788, Note_off_c, 1, 78, 0
1, 117788, Note_off_c, 1, 81, 0
1, 117792, Note_on_c, 1, 69, 127
1, 117884, Note_off_c, 1, 69, 0
1, 117888, Note_on_c, 1, 64, 127
1, 117888, Note_on_c, 1, 83, 127
1, 117888, Note_on_c, 1, 79, 127
1, 117980, Note_off_c, 1, 83, 0
1, 117980, Note_off_c, 1, 79, 0
1, 118076, Note_off_c, 1, 76, 0
1, 118076, Note_off_c, 1, 64, 0
1, 118080, Note_on_c, 1, 72, 127
1, 118080, Note_on_c, 1, 76, 127
1, 118080, Note_on_c, 1, 78, 127
1, 118080, Note_on_c, 1, 81, 127
1, 118172, Note_off_c, 1, 72, 0
1, 118172, Note_off_c, 1, 78, 0
1, 118172, Note_off_c, 1, 81, 0
1, 118176, Note_on_c, 1, 69, 127
1, 118268, Note_off_c, 1, 69, 0
1, 118272, Note_on_c, 1, 64, 127
1, 118272, Note_on_c, 1, 83, 127
1, 118272, Note_on_c, 1, 79, 127
1, 118364, Note_off_c, 1, 83, 0
1, 118364, Note_off_c, 1, 79, 0
1, 118460, Note_off_c, 1, 76, 0
1, 118460, Note_off_c, 1, 64, 0
1, 118464, Note_on_c, 1, 76, 127
1, 118464, Note_on_c, 1, 71, 127
1, 118464, Note_on_c, 1, 79, 127
1, 118556, Note_off_c, 1, 71, 0
1, 118556, Note_off_c, 1, 79, 0
1, 118560, Note_on_c, 1, 67, 127
1, 118652, Note_off_c, 1, 67, 0
1, 118656, Note_on_c, 1, 64, 127
1, 118656, Note_on_c, 1, 81, 127
1, 118656, Note_on_c, 1, 78, 127
1, 118748, Note_off_c, 1, 81, 0
1, 118748, Note_off_c, 1, 78, 0
1, 118844, Note_off_c, 1, 76, 0
1, 118844, Note_off_c, 1, 64, 0
1, 118848, Note_on_c, 1, 71, 127
1, 118848, Note_on_c, 1, 76, 127
1, 118848, Note_on_c, 1, 79, 127
1, 118940, Note_off_c, 1, 71, 0
1, 118940, Note_off_c, 1, 79, 0
1, 118944, Note_on_c, 1, 67, 127
1, 119036, Note_off_c, 1, 67, 0
1, 119040, Note_on_c, 1, 64, 127
1, 119040, Note_on_c, 1, 78, 127
1, 119040, Note_on_c, 1, 81, 127
1, 119132, Note_off_c, 1, 78, 0
1, 119132, Note_off_c, 1, 81, 0
1, 119228, Note_off_c, 1, 76, 0
1, 119228, Note_off_c, 1, 64, 0
1, 119232, Note_on_c, 1, 76, 127
1, 119232, Note_on_c, 1, 72, 127
1, 119232, Note_on_c, 1, 75, 127
1, 119232, Note_on_c, 1, 78, 127
1, 119324, Note_off_c, 1, 72, 0
1, 119324, Note_off_c, 1, 75, 0
1, 119324, Note_off_c, 1, 78, 0
1, 119328, Note_on_c, 1, 69, 127
1, 119420, Note_off_c, 1, 69, 0
1, 119424, Note_on_c, 1, 64, 127
1, 119424, Note_on_c, 1, 79, 127
1, 119516, Note_off_c, 1, 79, 0
1, 119612, Note_off_c, 1, 76, 0
1, 119612, Note_off_c, 1, 64, 0
1, 119616, Note_on_c, 1, 72, 127
1, 119616, Note_on_c, 1, 76, 127
1, 119616, Note_on_c, 1, 75, 127
1, 119616, Note_on_c, 1, 78, 127
1, 119708, Note_off_c, 1, 72, 0
1, 119708, Note_off_c, 1, 75, 0
1, 119708, Note_off_c, 1, 78, 0
1, 119712, Note_on_c, 1, 69, 127
1, 119804, Note_off_c, 1, 69, 0
1, 119808, Note_on_c, 1, 64, 127
1, 119808, Note_on_c, 1, 79, 127
1, 119900, Note_off_c, 1, 79, 0
1, 119996, Note_off_c, 1, 76, 0
1, 119996, Note_off_c, 1, 64, 0
1, 120000, Note_on_c, 1, 64, 127
1, 120000, Note_on_c, 1, 80, 127
1, 120000, Note_on_c, 1, 74, 127
1, 120092, Note_off_c, 1, 80, 0
1, 120092, Note_off_c, 1, 74, 0
1, 120096, Note_on_c, 1, 76, 127
1, 120188, Note_off_c, 1, 64, 0
1, 120188, Note_off_c, 1, 76, 0
1, 120192, Note_on_c, 1, 63, 127
1, 120192, Note_on_c, 1, 81, 127
1, 120192, Note_on_c, 1, 72, 127
1, 120284, Note_off_c, 1, 81, 0
1, 120284, Note_off_c, 1, 72, 0
1, 120288, Note_on_c, 1, 76, 127
1, 120380, Note_off_c, 1, 63, 0
1, 120380, Note_off_c, 1, 76, 0
1, 120384, Note_on_c, 1, 64, 127
1, 120384, Note_on_c, 1, 79, 127
1, 120384, Note_on_c, 1, 71, 127
1, 120476, Note_off_c, 1, 79, 0
1, 120476, Note_off_c, 1, 71, 0
1, 120480, Note_on_c, 1, 76, 127
1, 120572, Note_off_c, 1, 64, 0
1, 120572, Note_off_c, 1, 76, 0
1, 120576, Note_on_c, 1, 60, 127
1, 120576, Note_on_c, 1, 78, 127
1, 120576, Note_on_c, 1, 69, 127
1, 120668, Note_off_c, 1, 78, 0
1, 120668, Note_off_c, 1, 69, 0
1, 120672, Note_on_c, 1, 76, 127
1, 120764, Note_off_c, 1, 60, 0
1, 120764, Note_off_c, 1, 76, 0
1, 120768, Note_on_c, 1, 57, 127
1, 120768, Note_on_c, 1, 76, 127
1, 120768, Note_on_c, 1, 67, 127
1, 120860, Note_off_c, 1, 76, 0
1, 120860, Note_off_c, 1, 67, 0
1, 120956, Note_off_c, 1, 57, 0
1, 120960, Note_on_c, 1, 59, 127
1, 120960, Note_on_c, 1, 76, 127
1, 120960, Note_on_c, 1, 66, 127
1, 121052, Note_off_c, 1, 76, 0
1, 121052, Note_off_c, 1, 66, 0
1, 121148, Note_off_c, 1, 59, 0
1, 121152, Note_on_c, 1, 71, 127
1, 121152, Note_on_c, 1, 74, 127
1, 121152, Note_on_c, 1, 66, 127
1, 121244, Note_off_c, 1, 74, 0
1, 121244, Note_off_c, 1, 66, 0
1, 121248, Note_on_c, 1, 76, 127
1, 121340, Note_off_c, 1, 71, 0
1, 121340, Note_off_c, 1, 76, 0
1, 121344, Note_on_c, 1, 64, 127
1, 121344, Note_on_c, 1, 74, 127
1, 121344, Note_on_c, 1, 68, 127
1, 121436, Note_off_c, 1, 74, 0
1, 121436, Note_off_c, 1, 68, 0
1, 121440, Note_on_c, 1, 76, 127
1, 121532, Note_off_c, 1, 64, 0
1, 121532, Note_off_c, 1, 76, 0
1, 121536, Note_on_c, 1, 65, 127
1, 121536, Note_on_c, 1, 69, 127
1, 121536, Note_on_c, 1, 72, 127
1, 121628, Note_off_c, 1, 69, 0
1, 121628, Note_off_c, 1, 72, 0
1, 121632, Note_on_c, 1, 76, 127
1, 121724, Note_off_c, 1, 65, 0
1, 121724, Note_off_c, 1, 76, 0
1, 121728, Note_on_c, 1, 62, 127
1, 121728, Note_on_c, 1, 69, 127
1, 121728, Note_on_c, 1, 71, 127
1, 121820, Note_off_c, 1, 69, 0
1, 121820, Note_off_c, 1, 71, 0
1, 121824, Note_on_c, 1, 76, 127
1, 121916, Note_off_c, 1, 62, 0
1, 121916, Note_off_c, 1, 76, 0
1, 121920, Note_on_c, 1, 64, 127
1, 121920, Note_on_c, 1, 76, 127
1, 121920, Note_on_c, 1, 67, 127
1, 122012, Note_off_c, 1, 76, 0
1, 122012, Note_off_c, 1, 67, 0
1, 122108, Note_off_c, 1, 64, 0
1, 122112, Note_on_c, 1, 57, 127
1, 122112, Note_on_c, 1, 76, 127
1, 122112, Note_on_c, 1, 65, 127
1, 122204, Note_off_c, 1, 76, 0
1, 122204, Note_off_c, 1, 65, 0
1, 122300, Note_off_c, 1, 57, 0
1, 122304, Note_on_c, 1, 59, 127
1, 122304, Note_on_c, 1, 74, 127
1, 122304, Note_on_c, 1, 65, 127
1, 122396, Note_off_c, 1, 74, 0
1, 122396, Note_off_c, 1, 65, 0
1, 122400, Note_on_c, 1, 76, 127
1, 122492, Note_off_c, 1, 59, 0
1, 122492, Note_off_c, 1, 76, 0
1, 122496, Note_on_c, 1, 60, 127
1, 122496, Note_on_c, 1, 74, 127
1, 122496, Note_on_c, 1, 64, 127
1, 122588, Note_off_c, 1, 74, 0
1, 122588, Note_off_c, 1, 64, 0
1, 122592, Note_on_c, 1, 76, 127
1, 122684, Note_off_c, 1, 60, 0
1, 122684, Note_off_c, 1, 76, 0
1, 122688, Note_on_c, 1, 57, 127
1, 122688, Note_on_c, 1, 72, 127
1, 122688, Note_on_c, 1, 64, 127
1, 122780, Note_off_c, 1, 72, 0
1, 122780, Note_off_c, 1, 64, 0
1, 122784, Note_on_c, 1, 76, 127
1, 122876, Note_off_c, 1, 57, 0
1, 122876, Note_off_c, 1, 76, 0
1, 122880, Note_on_c, 1, 53, 127
1, 122880, Note_on_c, 1, 72, 127
1, 122880, Note_on_c, 1, 62, 127
1, 122972, Note_off_c, 1, 72, 0
1, 122972, Note_off_c, 1, 62, 0
1, 122976, Note_on_c, 1, 77, 127
1, 123068, Note_off_c, 1, 53, 0
1, 123068, Note_off_c, 1, 77, 0
1, 123072, Note_on_c, 1, 62, 127
1, 123072, Note_on_c, 1, 69, 127
1, 123164, Note_off_c, 1, 69, 0
1, 123168, Note_on_c, 1, 77, 127
1, 123260, Note_off_c, 1, 62, 0
1, 123260, Note_off_c, 1, 77, 0
1, 123264, Note_on_c, 1, 59, 127
1, 123264, Note_on_c, 1, 71, 127
1, 123264, Note_on_c, 1, 62, 127
1, 123356, Note_off_c, 1, 71, 0
1, 123356, Note_off_c, 1, 62, 0
1, 123360, Note_on_c, 1, 77, 127
1, 123452, Note_off_c, 1, 59, 0
1, 123452, Note_off_c, 1, 77, 0
1, 123456, Note_on_c, 1, 55, 127
1, 123456, Note_on_c, 1, 67, 127
1, 123456, Note_on_c, 1, 71, 127
1, 123548, Note_off_c, 1, 67, 0
1, 123548, Note_off_c, 1, 71, 0
1, 123552, Note_on_c, 1, 77, 127
1, 123644, Note_off_c, 1, 55, 0
1, 123644, Note_off_c, 1, 77, 0
1, 123648, Note_on_c, 1, 60, 127
1, 123648, Note_on_c, 1, 67, 127
1, 123648, Note_on_c, 1, 72, 127
1, 123740, Note_off_c, 1, 67, 0
1, 123740, Note_off_c, 1, 72, 0
1, 123744, Note_on_c, 1, 76, 127
1, 123836, Note_off_c, 1, 60, 0
1, 123836, Note_off_c, 1, 76, 0
1, 123840, Note_on_c, 1, 48, 127
1, 123840, Note_on_c, 1, 72, 127
1, 123840, Note_on_c, 1, 70, 127
1, 123932, Note_off_c, 1, 72, 0
1, 123932, Note_off_c, 1, 70, 0
1, 123936, Note_on_c, 1, 76, 127
1, 124028, Note_off_c, 1, 48, 0
1, 124028, Note_off_c, 1, 76, 0
1, 124032, Note_on_c, 1, 50, 127
1, 124032, Note_on_c, 1, 72, 127
1, 124032, Note_on_c, 1, 69, 127
1, 124124, Note_off_c, 1, 72, 0
1, 124124, Note_off_c, 1, 69, 0
1, 124128, Note_on_c, 1, 76, 127
1, 124220, Note_off_c, 1, 50, 0
1, 124220, Note_off_c, 1, 76, 0
1, 124224, Note_on_c, 1, 52, 127
1, 124224, Note_on_c, 1, 70, 127
1, 124224, Note_on_c, 1, 67, 127
1, 124316, Note_off_c, 1, 70, 0
1, 124316, Note_off_c, 1, 67, 0
1, 124320, Note_on_c, 1, 76, 127
1, 124412, Note_off_c, 1, 52, 0
1, 124412, Note_off_c, 1, 76, 0
1, 124416, Note_on_c, 1, 53, 127
1, 124416, Note_on_c, 1, 69, 127
1, 124416, Note_on_c, 1, 65, 127
1, 124508, Note_off_c, 1, 69, 0
1, 124508, Note_off_c, 1, 65, 0
1, 124512, Note_on_c, 1, 71, 127
1, 124604, Note_off_c, 1, 53, 0
1, 124604, Note_off_c, 1, 71, 0
1, 124608, Note_on_c, 1, 52, 127
1, 124608, Note_on_c, 1, 72, 127
1, 124700, Note_off_c, 1, 72, 0
1, 124704, Note_on_c, 1, 76, 127
1, 124796, Note_off_c, 1, 52, 0
1, 124796, Note_off_c, 1, 76, 0
1, 124800, Note_on_c, 1, 53, 127
1, 124800, Note_on_c, 1, 81, 127
1, 124892, Note_off_c, 1, 81, 0
1, 124896, Note_on_c, 1, 76, 127
1, 124988, Note_off_c, 1, 53, 0
1, 124988, Note_off_c, 1, 76, 0
1, 124992, Note_on_c, 1, 55, 127
1, 124992, Note_on_c, 1, 77, 127
1, 125084, Note_off_c, 1, 77, 0
1, 125088, Note_on_c, 1, 74, 127
1, 125180, Note_off_c, 1, 55, 0
1, 125180, Note_off_c, 1, 74, 0
1, 125184, Note_on_c, 1, 57, 127
1, 125184, Note_on_c, 1, 69, 127
1, 125184, Note_on_c, 1, 65, 127
1, 125276, Note_off_c, 1, 69, 0
1, 125276, Note_off_c, 1, 65, 0
1, 125280, Note_on_c, 1, 71, 127
1, 125372, Note_off_c, 1, 57, 0
1, 125372, Note_off_c, 1, 71, 0
1, 125376, Note_on_c, 1, 55, 127
1, 125376, Note_on_c, 1, 72, 127
1, 125468, Note_off_c, 1, 72, 0
1, 125472, Note_on_c, 1, 76, 127
1, 125564, Note_off_c, 1, 55, 0
1, 125564, Note_off_c, 1, 76, 0
1, 125568, Note_on_c, 1, 53, 127
1, 125568, Note_on_c, 1, 81, 127
1, 125660, Note_off_c, 1, 81, 0
1, 125664, Note_on_c, 1, 76, 127
1, 125756, Note_off_c, 1, 53, 0
1, 125756, Note_off_c, 1, 76, 0
1, 125760, Note_on_c, 1, 50, 127
1, 125760, Note_on_c, 1, 77, 127
1, 125852, Note_off_c, 1, 77, 0
1, 125856, Note_on_c, 1, 74, 127
1, 125948, Note_off_c, 1, 50, 0
1, 125948, Note_off_c, 1, 74, 0
1, 125952, Note_on_c, 1, 55, 127
1, 125952, Note_on_c, 1, 71, 127
1, 125952, Note_on_c, 1, 65, 127
1, 126044, Note_off_c, 1, 71, 0
1, 126044, Note_off_c, 1, 65, 0
1, 126048, Note_on_c, 1, 72, 127
1, 126140, Note_off_c, 1, 55, 0
1, 126140, Note_off_c, 1, 72, 0
1, 126144, Note_on_c, 1, 55, 127
1, 126144, Note_on_c, 1, 74, 127
1, 126236, Note_off_c, 1, 74, 0
1, 126240, Note_on_c, 1, 77, 127
1, 126332, Note_off_c, 1, 55, 0
1, 126332, Note_off_c, 1, 77, 0
1, 126336, Note_on_c, 1, 55, 127
1, 126336, Note_on_c, 1, 79, 127
1, 126428, Note_off_c, 1, 79, 0
1, 126432, Note_on_c, 1, 74, 127
1, 126524, Note_off_c, 1, 55, 0
1, 126524, Note_off_c, 1, 74, 0
1, 126528, Note_on_c, 1, 55, 127
1, 126528, Note_on_c, 1, 76, 127
1, 126620, Note_off_c, 1, 76, 0
1, 126624, Note_on_c, 1, 72, 127
1, 126716, Note_off_c, 1, 55, 0
1, 126716, Note_off_c, 1, 72, 0
1, 126720, Note_on_c, 1, 55, 127
1, 126720, Note_on_c, 1, 71, 127
1, 126720, Note_on_c, 1, 65, 127
1, 126812, Note_off_c, 1, 71, 0
1, 126812, Note_off_c, 1, 65, 0
1, 126816, Note_on_c, 1, 72, 127
1, 126908, Note_off_c, 1, 55, 0
1, 126908, Note_off_c, 1, 72, 0
1, 126912, Note_on_c, 1, 55, 127
1, 126912, Note_on_c, 1, 74, 127
1, 127004, Note_off_c, 1, 74, 0
1, 127008, Note_on_c, 1, 77, 127
1, 127100, Note_off_c, 1, 55, 0
1, 127100, Note_off_c, 1, 77, 0
1, 127104, Note_on_c, 1, 55, 127
1, 127104, Note_on_c, 1, 79, 127
1, 127196, Note_off_c, 1, 79, 0
1, 127200, Note_on_c, 1, 74, 127
1, 127292, Note_off_c, 1, 55, 0
1, 127292, Note_off_c, 1, 74, 0
1, 127296, Note_on_c, 1, 55, 127
1, 127296, Note_on_c, 1, 76, 127
1, 127388, Note_off_c, 1, 76, 0
1, 127392, Note_on_c, 1, 71, 127
1, 127484, Note_off_c, 1, 55, 0
1, 127484, Note_off_c, 1, 71, 0
1, 127488, Note_on_c, 1, 54, 127
1, 127488, Note_on_c, 1, 69, 127
1, 127488, Note_on_c, 1, 63, 127
1, 127580, Note_off_c, 1, 69, 0
1, 127580, Note_off_c, 1, 63, 0
1, 127584, Note_on_c, 1, 71, 127
1, 127676, Note_off_c, 1, 54, 0
1, 127676, Note_off_c, 1, 71, 0
1, 127680, Note_on_c, 1, 54, 127
1, 127680, Note_on_c, 1, 72, 127
1, 127772, Note_off_c, 1, 72, 0
1, 127776, Note_on_c, 1, 75, 127
1, 127868, Note_off_c, 1, 54, 0
1, 127868, Note_off_c, 1, 75, 0
1, 127872, Note_on_c, 1, 54, 127
1, 127872, Note_on_c, 1, 81, 127
1, 127964, Note_off_c, 1, 81, 0
1, 127968, Note_on_c, 1, 72, 127
1, 128060, Note_off_c, 1, 54, 0
1, 128060, Note_off_c, 1, 72, 0
1, 128064, Note_on_c, 1, 54, 127
1, 128064, Note_on_c, 1, 81, 127
1, 128156, Note_off_c, 1, 81, 0
1, 128160, Note_on_c, 1, 72, 127
1, 128252, Note_off_c, 1, 54, 0
1, 128252, Note_off_c, 1, 72, 0
1, 128256, Note_on_c, 1, 54, 127
1, 128256, Note_on_c, 1, 69, 127
1, 128256, Note_on_c, 1, 63, 127
1, 128348, Note_off_c, 1, 69, 0
1, 128348, Note_off_c, 1, 63, 0
1, 128352, Note_on_c, 1, 71, 127
1, 128444, Note_off_c, 1, 54, 0
1, 128444, Note_off_c, 1, 71, 0
1, 128448, Note_on_c, 1, 54, 127
1, 128448, Note_on_c, 1, 72, 127
1, 128540, Note_off_c, 1, 72, 0
1, 128544, Note_on_c, 1, 75, 127
1, 128636, Note_off_c, 1, 54, 0
1, 128636, Note_off_c, 1, 75, 0
1, 128640, Note_on_c, 1, 54, 127
1, 128640, Note_on_c, 1, 81, 127
1, 128732, Note_off_c, 1, 81, 0
1, 128736, Note_on_c, 1, 72, 127
1, 128828, Note_off_c, 1, 54, 0
1, 128828, Note_off_c, 1, 72, 0
1, 128832, Note_on_c, 1, 54, 127
1, 128832, Note_on_c, 1, 81, 127
1, 128924, Note_off_c, 1, 81, 0
1, 128928, Note_on_c, 1, 72, 127
1, 129020, Note_off_c, 1, 54, 0
1, 129020, Note_off_c, 1, 72, 0
1, 129024, Note_on_c, 1, 55, 127
1, 129024, Note_on_c, 1, 71, 127
1, 129024, Note_on_c, 1, 62, 127
1, 129116, Note_off_c, 1, 71, 0
1, 129116, Note_off_c, 1, 62, 0
1, 129120, Note_on_c, 1, 72, 127
1, 129212, Note_off_c, 1, 55, 0
1, 129212, Note_off_c, 1, 72, 0
1, 129216, Note_on_c, 1, 55, 127
1, 129216, Note_on_c, 1, 74, 127
1, 129308, Note_off_c, 1, 74, 0
1, 129312, Note_on_c, 1, 77, 127
1, 129404, Note_off_c, 1, 55, 0
1, 129404, Note_off_c, 1, 77, 0
1, 129408, Note_on_c, 1, 55, 127
1, 129408, Note_on_c, 1, 80, 127
1, 129500, Note_off_c, 1, 80, 0
1, 129504, Note_on_c, 1, 71, 127
1, 129596, Note_off_c, 1, 55, 0
1, 129596, Note_off_c, 1, 71, 0
1, 129600, Note_on_c, 1, 55, 127
1, 129600, Note_on_c, 1, 80, 127
1, 129692, Note_off_c, 1, 80, 0
1, 129696, Note_on_c, 1, 71, 127
1, 129788, Note_off_c, 1, 55, 0
1, 129788, Note_off_c, 1, 71, 0
1, 129792, Note_on_c, 1, 55, 127
1, 129792, Note_on_c, 1, 71, 127
1, 129792, Note_on_c, 1, 62, 127
1, 129884, Note_off_c, 1, 71, 0
1, 129884, Note_off_c, 1, 62, 0
1, 129888, Note_on_c, 1, 72, 127
1, 129980, Note_off_c, 1, 55, 0
1, 129980, Note_off_c, 1, 72, 0
1, 129984, Note_on_c, 1, 55, 127
1, 129984, Note_on_c, 1, 74, 127
1, 130076, Note_off_c, 1, 74, 0
1, 130080, Note_on_c, 1, 77, 127
1, 130172, Note_off_c, 1, 55, 0
1, 130172, Note_off_c, 1, 77, 0
1, 130176, Note_on_c, 1, 55, 127
1, 130176, Note_on_c, 1, 80, 127
1, 130268, Note_off_c, 1, 80, 0
1, 130272, Note_on_c, 1, 71, 127
1, 130364, Note_off_c, 1, 55, 0
1, 130364, Note_off_c, 1, 71, 0
1, 130368, Note_on_c, 1, 55, 127
1, 130368, Note_on_c, 1, 80, 127
1, 130460, Note_off_c, 1, 80, 0
1, 130464, Note_on_c, 1, 71, 127
1, 130556, Note_off_c, 1, 55, 0
1, 130556, Note_off_c, 1, 71, 0
1, 130560, Note_on_c, 1, 55, 127
1, 130560, Note_on_c, 1, 66, 127
1, 130560, Note_on_c, 1, 57, 127
1, 130652, Note_off_c, 1, 66, 0
1, 130652, Note_off_c, 1, 57, 0
1, 130656, Note_on_c, 1, 67, 127
1, 130748, Note_off_c, 1, 67, 0
1, 130752, Note_on_c, 1, 69, 127
1, 130844, Note_off_c, 1, 69, 0
1, 130848, Note_on_c, 1, 72, 127
1, 130940, Note_off_c, 1, 72, 0
1, 130944, Note_on_c, 1, 75, 127
1, 131036, Note_off_c, 1, 75, 0
1, 132096, Note_on_c, 1, 65, 127
1, 132188, Note_off_c, 1, 65, 0
1, 132288, Note_on_c, 1, 68, 127
1, 132380, Note_off_c, 1, 68, 0
1, 132384, Note_on_c, 1, 71, 127
1, 132476, Note_off_c, 1, 71, 0
1, 132480, Note_on_c, 1, 74, 127
1, 132572, Note_off_c, 1, 74, 0
1, 133632, Note_on_c, 1, 63, 127
1, 133724, Note_off_c, 1, 63, 0
1, 135168, Note_on_c, 1, 62, 127
1, 135260, Note_off_c, 1, 62, 0
1, 138240, Note_off_c, 1, 55, 0
1, 138240, Note_on_c, 1, 64, 127
1, 138240, Note_on_c, 1, 36, 127
1, 138240, Note_on_c, 1, 24, 127
1, 138240, Note_on_c, 1, 60, 127
1, 138240, Note_on_c, 1, 48, 127
1, 138332, Note_off_c, 1, 60, 0
1, 138428, Note_off_c, 1, 48, 0
1, 139008, Note_on_c, 1, 52, 127
1, 139100, Note_off_c, 1, 52, 0
1, 139104, Note_on_c, 1, 53, 127
1, 139196, Note_off_c, 1, 53, 0
1, 139200, Note_on_c, 1, 76, 127
1, 139580, Note_off_c, 1, 76, 0
1, 139776, Note_off_c, 1, 64, 0
1, 139776, Note_on_c, 1, 59, 127
1, 139776, Note_on_c, 1, 50, 127
1, 139868, Note_off_c, 1, 50, 0
1, 140544, Note_off_c, 1, 59, 0
1, 140736, Note_on_c, 1, 47, 127
1, 140828, Note_off_c, 1, 47, 0
1, 140832, Note_on_c, 1, 45, 127
1, 140924, Note_off_c, 1, 45, 0
1, 140928, Note_on_c, 1, 43, 127
1, 141020, Note_off_c, 1, 43, 0
1, 141024, Note_on_c, 1, 41, 127
1, 141116, Note_off_c, 1, 41, 0
1, 141120, Note_on_c, 1, 40, 127
1, 141212, Note_off_c, 1, 40, 0
1, 141216, Note_on_c, 1, 38, 127
1, 141308, Note_off_c, 1, 38, 0
1, 141596, Note_off_c, 1, 36, 0
1, 141596, Note_off_c, 1, 24, 0
1, 141696, Note_on_c, 1, 64, 127
1, 141696, Note_on_c, 1, 67, 127
1, 141788, Note_off_c, 1, 67, 0
1, 141792, Note_on_c, 1, 69, 127
1, 141824, Note_off_c, 1, 64, 0
1, 141884, Note_off_c, 1, 69, 0
1, 141888, Note_on_c, 1, 67, 127
1, 141888, Note_on_c, 1, 70, 127
1, 142016, Note_off_c, 1, 67, 0
1, 142028, Note_off_c, 1, 70, 0
1, 142080, Note_on_c, 1, 57, 127
1, 142080, Note_on_c, 1, 61, 127
1, 142208, Note_off_c, 1, 57, 0
1, 142220, Note_off_c, 1, 61, 0
1, 142272, Note_on_c, 1, 76, 127
1, 142272, Note_on_c, 1, 67, 127
1, 142272, Note_on_c, 1, 61, 127
1, 142272, Note_on_c, 1, 45, 127
1, 142272, Note_on_c, 1, 33, 127
1, 142272, Note_on_c, 1, 57, 127
1, 142364, Note_off_c, 1, 76, 0
1, 142368, Note_on_c, 1, 74, 127
1, 142460, Note_off_c, 1, 67, 0
1, 142460, Note_off_c, 1, 61, 0
1, 142460, Note_off_c, 1, 45, 0
1, 142460, Note_off_c, 1, 33, 0
1, 142460, Note_off_c, 1, 57, 0
1, 142460, Note_off_c, 1, 74, 0
1, 142464, Note_on_c, 1, 73, 127
1, 142464, Note_on_c, 1, 65, 127
1, 142464, Note_on_c, 1, 62, 127
1, 142464, Note_on_c, 1, 47, 127
1, 142464, Note_on_c, 1, 35, 127
1, 142464, Note_on_c, 1, 59, 127
1, 142556, Note_off_c, 1, 73, 0
1, 142560, Note_on_c, 1, 71, 127
1, 142652, Note_off_c, 1, 65, 0
1, 142652, Note_off_c, 1, 62, 0
1, 142652, Note_off_c, 1, 47, 0
1, 142652, Note_off_c, 1, 35, 0
1, 142652, Note_off_c, 1, 59, 0
1, 142652, Note_off_c, 1, 71, 0
1, 142656, Note_on_c, 1, 69, 127
1, 142656, Note_on_c, 1, 64, 127
1, 142656, Note_on_c, 1, 49, 127
1, 142656, Note_on_c, 1, 37, 127
1, 142656, Note_on_c, 1, 61, 127
1, 142748, Note_off_c, 1, 69, 0
1, 142752, Note_on_c, 1, 67, 127
1, 142844, Note_off_c, 1, 64, 0
1, 142844, Note_off_c, 1, 49, 0
1, 142844, Note_off_c, 1, 37, 0
1, 142844, Note_off_c, 1, 61, 0
1, 142844, Note_off_c, 1, 67, 0
1, 142848, Note_on_c, 1, 65, 127
1, 142848, Note_on_c, 1, 62, 127
1, 142848, Note_on_c, 1, 57, 127
1, 142848, Note_on_c, 1, 50, 127
1, 142848, Note_on_c, 1, 38, 127
1, 142988, Note_off_c, 1, 65, 0
1, 143132, Note_off_c, 1, 57, 0
1, 143132, Note_off_c, 1, 50, 0
1, 143132, Note_off_c, 1, 38, 0
1, 143136, Note_on_c, 1, 69, 127
1, 143212, Note_off_c, 1, 62, 0
1, 143220, Note_off_c, 1, 69, 0
1, 143232, Note_on_c, 1, 66, 127
1, 143232, Note_on_c, 1, 72, 127
1, 143316, Note_off_c, 1, 72, 0
1, 143328, Note_on_c, 1, 69, 127
1, 143404, Note_off_c, 1, 66, 0
1, 143412, Note_off_c, 1, 69, 0
1, 143424, Note_on_c, 1, 69, 127
1, 143424, Note_on_c, 1, 72, 127
1, 143508, Note_off_c, 1, 72, 0
1, 143520, Note_on_c, 1, 75, 127
1, 143596, Note_off_c, 1, 69, 0
1, 143604, Note_off_c, 1, 75, 0
1, 143616, Note_on_c, 1, 72, 127
1, 143616, Note_on_c, 1, 66, 127
1, 143744, Note_off_c, 1, 72, 0
1, 143744, Note_off_c, 1, 66, 0
1, 143808, Note_on_c, 1, 81, 127
1, 143808, Note_on_c, 1, 72, 127
1, 143808, Note_on_c, 1, 66, 127
1, 143808, Note_on_c, 1, 50, 127
1, 143808, Note_on_c, 1, 38, 127
1, 143808, Note_on_c, 1, 62, 127
1, 143892, Note_off_c, 1, 81, 0
1, 143904, Note_on_c, 1, 79, 127
1, 143980, Note_off_c, 1, 72, 0
1, 143980, Note_off_c, 1, 66, 0
1, 143980, Note_off_c, 1, 50, 0
1, 143980, Note_off_c, 1, 38, 0
1, 143980, Note_off_c, 1, 62, 0
1, 143988, Note_off_c, 1, 79, 0
1, 144000, Note_on_c, 1, 78, 127
1, 144000, Note_on_c, 1, 70, 127
1, 144000, Note_on_c, 1, 67, 127
1, 144000, Note_on_c, 1, 52, 127
1, 144000, Note_on_c, 1, 40, 127
1, 144000, Note_on_c, 1, 64, 127
1, 144084, Note_off_c, 1, 78, 0
1, 144096, Note_on_c, 1, 76, 127
1, 144172, Note_off_c, 1, 70, 0
1, 144172, Note_off_c, 1, 67, 0
1, 144172, Note_off_c, 1, 52, 0
1, 144172, Note_off_c, 1, 40, 0
1, 144172, Note_off_c, 1, 64, 0
1, 144180, Note_off_c, 1, 76, 0
1, 144192, Note_on_c, 1, 74, 127
1, 144192, Note_on_c, 1, 69, 127
1, 144192, Note_on_c, 1, 54, 127
1, 144192, Note_on_c, 1, 42, 127
1, 144192, Note_on_c, 1, 66, 127
1, 144276, Note_off_c, 1, 74, 0
1, 144288, Note_on_c, 1, 72, 127
1, 144364, Note_off_c, 1, 69, 0
1, 144364, Note_off_c, 1, 54, 0
1, 144364, Note_off_c, 1, 42, 0
1, 144364, Note_off_c, 1, 66, 0
1, 144372, Note_off_c, 1, 72, 0
1, 144384, Note_on_c, 1, 70, 127
1, 144384, Note_on_c, 1, 67, 127
1, 144384, Note_on_c, 1, 62, 127
1, 144384, Note_on_c, 1, 55, 127
1, 144384, Note_on_c, 1, 43, 127
1, 144480, Note_on_c, 1, 66, 127
1, 144512, Note_off_c, 1, 55, 0
1, 144512, Note_off_c, 1, 43, 0
1, 144544, Note_off_c, 1, 66, 0
1, 144576, Note_on_c, 1, 54, 127
1, 144576, Note_on_c, 1, 42, 127
1, 144640, Note_off_c, 1, 70, 0
1, 144640, Note_off_c, 1, 67, 0
1, 144640, Note_off_c, 1, 62, 0
1, 144672, Note_on_c, 1, 69, 127
1, 144736, Note_off_c, 1, 69, 0
1, 144748, Note_off_c, 1, 54, 0
1, 144748, Note_off_c, 1, 42, 0
1, 144768, Note_on_c, 1, 55, 127
1, 144768, Note_on_c, 1, 43, 127
1, 144768, Note_on_c, 1, 70, 127
1, 144832, Note_off_c, 1, 70, 0
1, 144864, Note_on_c, 1, 74, 127
1, 144928, Note_off_c, 1, 74, 0
1, 144940, Note_off_c, 1, 55, 0
1, 144940, Note_off_c, 1, 43, 0
1, 144960, Note_on_c, 1, 57, 127
1, 144960, Note_on_c, 1, 45, 127
1, 144960, Note_on_c, 1, 78, 127
1, 145024, Note_off_c, 1, 78, 0
1, 145056, Note_on_c, 1, 79, 127
1, 145120, Note_off_c, 1, 79, 0
1, 145132, Note_off_c, 1, 57, 0
1, 145132, Note_off_c, 1, 45, 0
1, 145152, Note_on_c, 1, 58, 127
1, 145152, Note_on_c, 1, 46, 127
1, 145152, Note_on_c, 1, 70, 127
1, 145152, Note_on_c, 1, 67, 127
1, 145152, Note_on_c, 1, 55, 127
1, 145216, Note_off_c, 1, 67, 0
1, 145248, Note_on_c, 1, 66, 127
1, 145280, Note_off_c, 1, 70, 0
1, 145280, Note_off_c, 1, 55, 0
1, 145312, Note_off_c, 1, 66, 0
1, 145324, Note_off_c, 1, 58, 0
1, 145324, Note_off_c, 1, 46, 0
1, 145344, Note_on_c, 1, 74, 127
1, 145344, Note_on_c, 1, 70, 127
1, 145344, Note_on_c, 1, 62, 127
1, 145344, Note_on_c, 1, 50, 127
1, 145344, Note_on_c, 1, 67, 127
1, 145408, Note_off_c, 1, 67, 0
1, 145440, Note_on_c, 1, 69, 127
1, 145472, Note_off_c, 1, 74, 0
1, 145472, Note_off_c, 1, 70, 0
1, 145472, Note_off_c, 1, 62, 0
1, 145472, Note_off_c, 1, 50, 0
1, 145504, Note_off_c, 1, 69, 0
1, 145536, Note_on_c, 1, 79, 127
1, 145536, Note_on_c, 1, 74, 127
1, 145536, Note_on_c, 1, 67, 127
1, 145536, Note_on_c, 1, 58, 127
1, 145536, Note_on_c, 1, 46, 127
1, 145536, Note_on_c, 1, 70, 127
1, 145600, Note_off_c, 1, 70, 0
1, 145664, Note_off_c, 1, 79, 0
1, 145664, Note_off_c, 1, 67, 0
1, 145664, Note_off_c, 1, 58, 0
1, 145664, Note_off_c, 1, 46, 0
1, 145696, Note_off_c, 1, 74, 0
1, 145728, Note_on_c, 1, 82, 127
1, 145728, Note_on_c, 1, 70, 127
1, 145728, Note_on_c, 1, 62, 127
1, 145728, Note_on_c, 1, 55, 127
1, 145728, Note_on_c, 1, 43, 127
1, 145728, Note_on_c, 1, 78, 127
1, 145792, Note_off_c, 1, 78, 0
1, 145824, Note_on_c, 1, 79, 127
1, 145856, Note_off_c, 1, 82, 0
1, 145856, Note_off_c, 1, 70, 0
1, 145856, Note_off_c, 1, 62, 0
1, 145856, Note_off_c, 1, 55, 0
1, 145856, Note_off_c, 1, 43, 0
1, 145888, Note_off_c, 1, 79, 0
1, 145920, Note_on_c, 1, 72, 127
1, 145920, Note_on_c, 1, 63, 127
1, 145920, Note_on_c, 1, 69, 127
1, 145920, Note_on_c, 1, 57, 127
1, 145920, Note_on_c, 1, 45, 127
1, 145920, Note_on_c, 1, 67, 127
1, 146016, Note_on_c, 1, 70, 127
1, 146048, Note_off_c, 1, 45, 0
1, 146108, Note_off_c, 1, 57, 0
1, 146108, Note_off_c, 1, 67, 0
1, 146108, Note_off_c, 1, 70, 0
1, 146112, Note_on_c, 1, 55, 127
1, 146112, Note_on_c, 1, 43, 127
1, 146176, Note_off_c, 1, 63, 0
1, 146176, Note_off_c, 1, 69, 0
1, 146204, Note_off_c, 1, 72, 0
1, 146208, Note_on_c, 1, 74, 127
1, 146240, Note_off_c, 1, 55, 0
1, 146240, Note_off_c, 1, 43, 0
1, 146300, Note_off_c, 1, 74, 0
1, 146304, Note_on_c, 1, 57, 127
1, 146304, Note_on_c, 1, 45, 127
1, 146304, Note_on_c, 1, 75, 127
1, 146396, Note_off_c, 1, 75, 0
1, 146400, Note_on_c, 1, 78, 127
1, 146432, Note_off_c, 1, 57, 0
1, 146432, Note_off_c, 1, 45, 0
1, 146492, Note_off_c, 1, 78, 0
1, 146496, Note_on_c, 1, 58, 127
1, 146496, Note_on_c, 1, 46, 127
1, 146496, Note_on_c, 1, 79, 127
1, 146588, Note_off_c, 1, 79, 0
1, 146592, Note_on_c, 1, 81, 127
1, 146624, Note_off_c, 1, 58, 0
1, 146624, Note_off_c, 1, 46, 0
1, 146684, Note_off_c, 1, 81, 0
1, 146688, Note_on_c, 1, 60, 127
1, 146688, Note_on_c, 1, 48, 127
1, 146688, Note_on_c, 1, 72, 127
1, 146688, Note_on_c, 1, 67, 127
1, 146688, Note_on_c, 1, 57, 127
1, 146780, Note_off_c, 1, 72, 0
1, 146784, Note_on_c, 1, 70, 127
1, 146816, Note_off_c, 1, 60, 0
1, 146816, Note_off_c, 1, 48, 0
1, 146876, Note_off_c, 1, 67, 0
1, 146876, Note_off_c, 1, 57, 0
1, 146876, Note_off_c, 1, 70, 0
1, 146880, Note_on_c, 1, 75, 127
1, 146880, Note_on_c, 1, 72, 127
1, 146880, Note_on_c, 1, 63, 127
1, 146880, Note_on_c, 1, 51, 127
1, 146976, Note_on_c, 1, 74, 127
1, 147008, Note_off_c, 1, 75, 0
1, 147008, Note_off_c, 1, 72, 0
1, 147008, Note_off_c, 1, 63, 0
1, 147008, Note_off_c, 1, 51, 0
1, 147068, Note_off_c, 1, 74, 0
1, 147072, Note_on_c, 1, 81, 127
1, 147072, Note_on_c, 1, 75, 127
1, 147072, Note_on_c, 1, 69, 127
1, 147072, Note_on_c, 1, 60, 127
1, 147072, Note_on_c, 1, 48, 127
1, 147168, Note_on_c, 1, 78, 127
1, 147200, Note_off_c, 1, 81, 0
1, 147200, Note_off_c, 1, 75, 0
1, 147200, Note_off_c, 1, 69, 0
1, 147200, Note_off_c, 1, 60, 0
1, 147200, Note_off_c, 1, 48, 0
1, 147260, Note_off_c, 1, 78, 0
1, 147264, Note_on_c, 1, 84, 127
1, 147264, Note_on_c, 1, 72, 127
1, 147264, Note_on_c, 1, 60, 127
1, 147264, Note_on_c, 1, 57, 127
1, 147264, Note_on_c, 1, 45, 127
1, 147264, Note_on_c, 1, 79, 127
1, 147356, Note_off_c, 1, 79, 0
1, 147360, Note_on_c, 1, 81, 127
1, 147392, Note_off_c, 1, 84, 0
1, 147392, Note_off_c, 1, 72, 0
1, 147392, Note_off_c, 1, 60, 0
1, 147392, Note_off_c, 1, 57, 0
1, 147392, Note_off_c, 1, 45, 0
1, 147452, Note_off_c, 1, 81, 0
1, 147456, Note_on_c, 1, 74, 127
1, 147456, Note_on_c, 1, 70, 127
1, 147456, Note_on_c, 1, 67, 127
1, 147456, Note_on_c, 1, 58, 127
1, 147456, Note_on_c, 1, 46, 127
1, 147552, Note_on_c, 1, 72, 127
1, 147584, Note_off_c, 1, 46, 0
1, 147644, Note_off_c, 1, 58, 0
1, 147644, Note_off_c, 1, 72, 0
1, 147648, Note_on_c, 1, 60, 127
1, 147648, Note_on_c, 1, 48, 127
1, 147712, Note_off_c, 1, 70, 0
1, 147712, Note_off_c, 1, 67, 0
1, 147740, Note_off_c, 1, 74, 0
1, 147744, Note_on_c, 1, 78, 127
1, 147776, Note_off_c, 1, 60, 0
1, 147776, Note_off_c, 1, 48, 0
1, 147836, Note_off_c, 1, 78, 0
1, 147840, Note_on_c, 1, 58, 127
1, 147840, Note_on_c, 1, 46, 127
1, 147840, Note_on_c, 1, 79, 127
1, 147932, Note_off_c, 1, 79, 0
1, 147936, Note_on_c, 1, 81, 127
1, 147968, Note_off_c, 1, 58, 0
1, 147968, Note_off_c, 1, 46, 0
1, 148028, Note_off_c, 1, 81, 0
1, 148032, Note_on_c, 1, 57, 127
1, 148032, Note_on_c, 1, 45, 127
1, 148032, Note_on_c, 1, 82, 127
1, 148124, Note_off_c, 1, 82, 0
1, 148128, Note_on_c, 1, 79, 127
1, 148160, Note_off_c, 1, 57, 0
1, 148160, Note_off_c, 1, 45, 0
1, 148220, Note_off_c, 1, 79, 0
1, 148224, Note_on_c, 1, 55, 127
1, 148224, Note_on_c, 1, 43, 127
1, 148224, Note_on_c, 1, 74, 127
1, 148224, Note_on_c, 1, 58, 127
1, 148224, Note_on_c, 1, 67, 127
1, 148316, Note_off_c, 1, 74, 0
1, 148320, Note_on_c, 1, 72, 127
1, 148352, Note_off_c, 1, 55, 0
1, 148352, Note_off_c, 1, 43, 0
1, 148412, Note_off_c, 1, 58, 0
1, 148412, Note_off_c, 1, 67, 0
1, 148412, Note_off_c, 1, 72, 0
1, 148416, Note_on_c, 1, 74, 127
1, 148416, Note_on_c, 1, 67, 127
1, 148416, Note_on_c, 1, 58, 127
1, 148416, Note_on_c, 1, 46, 127
1, 148512, Note_on_c, 1, 78, 127
1, 148544, Note_off_c, 1, 74, 0
1, 148544, Note_off_c, 1, 67, 0
1, 148544, Note_off_c, 1, 58, 0
1, 148544, Note_off_c, 1, 46, 0
1, 148604, Note_off_c, 1, 78, 0
1, 148608, Note_on_c, 1, 70, 127
1, 148608, Note_on_c, 1, 62, 127
1, 148608, Note_on_c, 1, 55, 127
1, 148608, Note_on_c, 1, 43, 127
1, 148608, Note_on_c, 1, 79, 127
1, 148700, Note_off_c, 1, 79, 0
1, 148704, Note_on_c, 1, 81, 127
1, 148736, Note_off_c, 1, 70, 0
1, 148736, Note_off_c, 1, 62, 0
1, 148736, Note_off_c, 1, 55, 0
1, 148736, Note_off_c, 1, 43, 0
1, 148796, Note_off_c, 1, 81, 0
1, 148800, Note_on_c, 1, 67, 127
1, 148800, Note_on_c, 1, 70, 127
1, 148800, Note_on_c, 1, 51, 127
1, 148800, Note_on_c, 1, 39, 127
1, 148800, Note_on_c, 1, 82, 127
1, 148892, Note_off_c, 1, 82, 0
1, 148896, Note_on_c, 1, 79, 127
1, 148928, Note_off_c, 1, 67, 0
1, 148928, Note_off_c, 1, 70, 0
1, 148928, Note_off_c, 1, 51, 0
1, 148928, Note_off_c, 1, 39, 0
1, 148988, Note_off_c, 1, 79, 0
1, 148992, Note_on_c, 1, 75, 127
1, 148992, Note_on_c, 1, 72, 127
1, 148992, Note_on_c, 1, 67, 127
1, 148992, Note_on_c, 1, 48, 127
1, 148992, Note_on_c, 1, 36, 127
1, 148992, Note_on_c, 1, 60, 127
1, 149084, Note_off_c, 1, 60, 0
1, 149088, Note_on_c, 1, 66, 127
1, 149120, Note_off_c, 1, 48, 0
1, 149120, Note_off_c, 1, 36, 0
1, 149180, Note_off_c, 1, 66, 0
1, 149184, Note_on_c, 1, 55, 127
1, 149184, Note_on_c, 1, 43, 127
1, 149248, Note_off_c, 1, 75, 0
1, 149248, Note_off_c, 1, 72, 0
1, 149276, Note_off_c, 1, 67, 0
1, 149280, Note_on_c, 1, 69, 127
1, 149312, Note_off_c, 1, 55, 0
1, 149312, Note_off_c, 1, 43, 0
1, 149372, Note_off_c, 1, 69, 0
1, 149376, Note_on_c, 1, 51, 127
1, 149376, Note_on_c, 1, 39, 127
1, 149376, Note_on_c, 1, 70, 127
1, 149468, Note_off_c, 1, 70, 0
1, 149472, Note_on_c, 1, 72, 127
1, 149504, Note_off_c, 1, 51, 0
1, 149504, Note_off_c, 1, 39, 0
1, 149564, Note_off_c, 1, 72, 0
1, 149568, Note_on_c, 1, 50, 127
1, 149568, Note_on_c, 1, 38, 127
1, 149568, Note_on_c, 1, 74, 127
1, 149660, Note_off_c, 1, 74, 0
1, 149664, Note_on_c, 1, 75, 127
1, 149696, Note_off_c, 1, 50, 0
1, 149696, Note_off_c, 1, 38, 0
1, 149756, Note_off_c, 1, 75, 0
1, 149760, Note_on_c, 1, 48, 127
1, 149760, Note_on_c, 1, 36, 127
1, 149760, Note_on_c, 1, 75, 127
1, 149760, Note_on_c, 1, 67, 127
1, 149760, Note_on_c, 1, 60, 127
1, 149852, Note_off_c, 1, 67, 0
1, 149852, Note_off_c, 1, 60, 0
1, 149856, Note_on_c, 1, 66, 127
1, 149888, Note_off_c, 1, 48, 0
1, 149888, Note_off_c, 1, 36, 0
1, 149948, Note_off_c, 1, 75, 0
1, 149948, Note_off_c, 1, 66, 0
1, 149952, Note_on_c, 1, 75, 127
1, 149952, Note_on_c, 1, 72, 127
1, 149952, Note_on_c, 1, 63, 127
1, 149952, Note_on_c, 1, 43, 127
1, 149952, Note_on_c, 1, 31, 127
1, 149952, Note_on_c, 1, 67, 127
1, 150044, Note_off_c, 1, 67, 0
1, 150048, Note_on_c, 1, 69, 127
1, 150080, Note_off_c, 1, 75, 0
1, 150080, Note_off_c, 1, 72, 0
1, 150080, Note_off_c, 1, 63, 0
1, 150080, Note_off_c, 1, 43, 0
1, 150080, Note_off_c, 1, 31, 0
1, 150140, Note_off_c, 1, 69, 0
1, 150144, Note_on_c, 1, 72, 127
1, 150144, Note_on_c, 1, 67, 127
1, 150144, Note_on_c, 1, 39, 127
1, 150144, Note_on_c, 1, 27, 127
1, 150144, Note_on_c, 1, 70, 127
1, 150236, Note_off_c, 1, 70, 0
1, 150272, Note_off_c, 1, 67, 0
1, 150272, Note_off_c, 1, 39, 0
1, 150272, Note_off_c, 1, 27, 0
1, 150332, Note_off_c, 1, 72, 0
1, 150336, Note_on_c, 1, 69, 127
1, 150336, Note_on_c, 1, 63, 127
1, 150336, Note_on_c, 1, 72, 127
1, 150336, Note_on_c, 1, 36, 127
1, 150336, Note_on_c, 1, 24, 127
1, 150336, Note_on_c, 1, 74, 127
1, 150428, Note_off_c, 1, 74, 0
1, 150432, Note_on_c, 1, 75, 127
1, 150464, Note_off_c, 1, 69, 0
1, 150464, Note_off_c, 1, 63, 0
1, 150464, Note_off_c, 1, 72, 0
1, 150464, Note_off_c, 1, 36, 0
1, 150464, Note_off_c, 1, 24, 0
1, 150524, Note_off_c, 1, 75, 0
1, 150528, Note_on_c, 1, 66, 127
1, 150528, Note_on_c, 1, 57, 127
1, 150528, Note_on_c, 1, 74, 127
1, 150528, Note_on_c, 1, 48, 127
1, 150528, Note_on_c, 1, 36, 127
1, 150528, Note_on_c, 1, 60, 127
1, 150620, Note_off_c, 1, 60, 0
1, 150624, Note_on_c, 1, 64, 127
1, 150716, Note_off_c, 1, 57, 0
1, 150716, Note_off_c, 1, 64, 0
1, 150720, Note_on_c, 1, 62, 127
1, 150816, Note_on_c, 1, 69, 127
1, 150908, Note_off_c, 1, 66, 0
1, 150908, Note_off_c, 1, 74, 0
1, 150908, Note_off_c, 1, 48, 0
1, 150908, Note_off_c, 1, 36, 0
1, 150908, Note_off_c, 1, 62, 0
1, 150908, Note_off_c, 1, 69, 0
1, 150912, Note_on_c, 1, 66, 127
1, 150912, Note_on_c, 1, 74, 127
1, 151004, Note_off_c, 1, 74, 0
1, 151008, Note_on_c, 1, 69, 127
1, 151100, Note_off_c, 1, 66, 0
1, 151100, Note_off_c, 1, 69, 0
1, 151104, Note_on_c, 1, 69, 127
1, 151104, Note_on_c, 1, 66, 127
1, 151196, Note_off_c, 1, 66, 0
1, 151200, Note_on_c, 1, 62, 127
1, 151292, Note_off_c, 1, 69, 0
1, 151292, Note_off_c, 1, 62, 0
1, 151296, Note_on_c, 1, 74, 127
1, 151296, Note_on_c, 1, 69, 127
1, 151296, Note_on_c, 1, 48, 127
1, 151296, Note_on_c, 1, 36, 127
1, 151296, Note_on_c, 1, 60, 127
1, 151296, Note_on_c, 1, 66, 127
1, 151388, Note_off_c, 1, 60, 0
1, 151388, Note_off_c, 1, 66, 0
1, 151392, Note_on_c, 1, 64, 127
1, 151484, Note_off_c, 1, 64, 0
1, 151488, Note_on_c, 1, 62, 127
1, 151676, Note_off_c, 1, 74, 0
1, 151676, Note_off_c, 1, 69, 0
1, 151676, Note_off_c, 1, 48, 0
1, 151676, Note_off_c, 1, 36, 0
1, 151676, Note_off_c, 1, 62, 0
1, 151680, Note_on_c, 1, 66, 127
1, 151680, Note_on_c, 1, 74, 127
1, 151772, Note_off_c, 1, 74, 0
1, 151776, Note_on_c, 1, 69, 127
1, 151868, Note_off_c, 1, 66, 0
1, 151868, Note_off_c, 1, 69, 0
1, 151872, Note_on_c, 1, 69, 127
1, 151872, Note_on_c, 1, 66, 127
1, 151964, Note_off_c, 1, 66, 0
1, 151968, Note_on_c, 1, 62, 127
1, 152060, Note_off_c, 1, 69, 0
1, 152060, Note_off_c, 1, 62, 0
1, 152064, Note_on_c, 1, 76, 127
1, 152064, Note_on_c, 1, 67, 127
1, 152064, Note_on_c, 1, 49, 127
1, 152064, Note_on_c, 1, 37, 127
1, 152064, Note_on_c, 1, 70, 127
1, 152064, Note_on_c, 1, 61, 127
1, 152064, Note_on_c, 1, 66, 127
1, 152156, Note_off_c, 1, 70, 0
1, 152156, Note_off_c, 1, 61, 0
1, 152156, Note_off_c, 1, 66, 0
1, 152160, Note_on_c, 1, 69, 127
1, 152160, Note_on_c, 1, 64, 127
1, 152252, Note_off_c, 1, 69, 0
1, 152252, Note_off_c, 1, 64, 0
1, 152444, Note_off_c, 1, 76, 0
1, 152444, Note_off_c, 1, 67, 0
1, 152444, Note_off_c, 1, 49, 0
1, 152444, Note_off_c, 1, 37, 0
1, 152448, Note_on_c, 1, 67, 127
1, 152448, Note_on_c, 1, 64, 127
1, 152540, Note_off_c, 1, 64, 0
1, 152636, Note_off_c, 1, 67, 0
1, 152640, Note_on_c, 1, 64, 127
1, 152640, Note_on_c, 1, 70, 127
1, 152732, Note_off_c, 1, 70, 0
1, 152736, Note_on_c, 1, 69, 127
1, 152736, Note_on_c, 1, 66, 127
1, 152828, Note_off_c, 1, 64, 0
1, 152828, Note_off_c, 1, 69, 0
1, 152828, Note_off_c, 1, 66, 0
1, 152832, Note_on_c, 1, 61, 127
1, 152832, Note_on_c, 1, 64, 127
1, 152832, Note_on_c, 1, 49, 127
1, 152832, Note_on_c, 1, 37, 127
1, 152832, Note_on_c, 1, 70, 127
1, 152832, Note_on_c, 1, 66, 127
1, 152924, Note_off_c, 1, 70, 0
1, 152924, Note_off_c, 1, 66, 0
1, 152928, Note_on_c, 1, 69, 127
1, 153020, Note_off_c, 1, 61, 0
1, 153020, Note_off_c, 1, 69, 0
1, 153212, Note_off_c, 1, 64, 0
1, 153212, Note_off_c, 1, 49, 0
1, 153212, Note_off_c, 1, 37, 0
1, 153216, Note_on_c, 1, 67, 127
1, 153216, Note_on_c, 1, 64, 127
1, 153308, Note_off_c, 1, 64, 0
1, 153404, Note_off_c, 1, 67, 0
1, 153408, Note_on_c, 1, 64, 127
1, 153408, Note_on_c, 1, 70, 127
1, 153452, Note_off_c, 1, 70, 0
1, 153456, Note_on_c, 1, 69, 127
1, 153500, Note_off_c, 1, 69, 0
1, 153504, Note_on_c, 1, 67, 127
1, 153596, Note_off_c, 1, 64, 0
1, 153596, Note_off_c, 1, 67, 0
1, 153600, Note_on_c, 1, 57, 127
1, 153600, Note_on_c, 1, 60, 127
1, 153600, Note_on_c, 1, 51, 127
1, 153600, Note_on_c, 1, 39, 127
1, 153600, Note_on_c, 1, 72, 127
1, 153600, Note_on_c, 1, 66, 127
1, 153600, Note_on_c, 1, 63, 127
1, 153692, Note_off_c, 1, 72, 0
1, 153692, Note_off_c, 1, 66, 0
1, 153692, Note_off_c, 1, 63, 0
1, 153696, Note_on_c, 1, 70, 127
1, 153788, Note_off_c, 1, 57, 0
1, 153788, Note_off_c, 1, 70, 0
1, 153792, Note_on_c, 1, 69, 127
1, 153980, Note_off_c, 1, 60, 0
1, 153980, Note_off_c, 1, 51, 0
1, 153980, Note_off_c, 1, 39, 0
1, 153980, Note_off_c, 1, 69, 0
1, 153984, Note_on_c, 1, 66, 127
1, 153984, Note_on_c, 1, 60, 127
1, 154076, Note_off_c, 1, 60, 0
1, 154080, Note_on_c, 1, 63, 127
1, 154172, Note_off_c, 1, 66, 0
1, 154172, Note_off_c, 1, 63, 0
1, 154176, Note_on_c, 1, 60, 127
1, 154176, Note_on_c, 1, 66, 127
1, 154268, Note_off_c, 1, 66, 0
1, 154272, Note_on_c, 1, 69, 127
1, 154364, Note_off_c, 1, 60, 0
1, 154364, Note_off_c, 1, 69, 0
1, 154368, Note_on_c, 1, 57, 127
1, 154368, Note_on_c, 1, 63, 127
1, 154368, Note_on_c, 1, 51, 127
1, 154368, Note_on_c, 1, 39, 127
1, 154368, Note_on_c, 1, 72, 127
1, 154368, Note_on_c, 1, 66, 127
1, 154460, Note_off_c, 1, 72, 0
1, 154460, Note_off_c, 1, 66, 0
1, 154464, Note_on_c, 1, 70, 127
1, 154556, Note_off_c, 1, 57, 0
1, 154556, Note_off_c, 1, 70, 0
1, 154748, Note_off_c, 1, 63, 0
1, 154748, Note_off_c, 1, 51, 0
1, 154748, Note_off_c, 1, 39, 0
1, 154752, Note_on_c, 1, 69, 127
1, 154752, Note_on_c, 1, 60, 127
1, 154844, Note_off_c, 1, 60, 0
1, 154848, Note_on_c, 1, 66, 127
1, 154940, Note_off_c, 1, 69, 0
1, 154940, Note_off_c, 1, 66, 0
1, 154944, Note_on_c, 1, 66, 127
1, 154944, Note_on_c, 1, 69, 127
1, 155036, Note_off_c, 1, 69, 0
1, 155040, Note_on_c, 1, 72, 127
1, 155132, Note_off_c, 1, 66, 0
1, 155132, Note_off_c, 1, 72, 0
1, 155136, Note_on_c, 1, 62, 127
1, 155136, Note_on_c, 1, 57, 127
1, 155136, Note_on_c, 1, 50, 127
1, 155136, Note_on_c, 1, 38, 127
1, 155136, Note_on_c, 1, 78, 127
1, 155136, Note_on_c, 1, 72, 127
1, 155228, Note_off_c, 1, 78, 0
1, 155228, Note_off_c, 1, 72, 0
1, 155232, Note_on_c, 1, 76, 127
1, 155324, Note_off_c, 1, 62, 0
1, 155324, Note_off_c, 1, 76, 0
1, 155516, Note_off_c, 1, 57, 0
1, 155516, Note_off_c, 1, 50, 0
1, 155516, Note_off_c, 1, 38, 0
1, 155520, Note_on_c, 1, 72, 127
1, 155520, Note_on_c, 1, 66, 127
1, 155612, Note_off_c, 1, 66, 0
1, 155616, Note_on_c, 1, 69, 127
1, 155708, Note_off_c, 1, 72, 0
1, 155708, Note_off_c, 1, 69, 0
1, 155712, Note_on_c, 1, 69, 127
1, 155712, Note_on_c, 1, 72, 127
1, 155804, Note_off_c, 1, 72, 0
1, 155808, Note_on_c, 1, 78, 127
1, 155900, Note_off_c, 1, 69, 0
1, 155900, Note_off_c, 1, 78, 0
1, 155904, Note_on_c, 1, 62, 127
1, 155904, Note_on_c, 1, 66, 127
1, 155904, Note_on_c, 1, 50, 127
1, 155904, Note_on_c, 1, 38, 127
1, 155904, Note_on_c, 1, 81, 127
1, 155904, Note_on_c, 1, 72, 127
1, 155996, Note_off_c, 1, 81, 0
1, 155996, Note_off_c, 1, 72, 0
1, 156000, Note_on_c, 1, 79, 127
1, 156092, Note_off_c, 1, 79, 0
1, 156284, Note_off_c, 1, 62, 0
1, 156284, Note_off_c, 1, 66, 0
1, 156284, Note_off_c, 1, 50, 0
1, 156284, Note_off_c, 1, 38, 0
1, 156288, Note_on_c, 1, 78, 127
1, 156288, Note_on_c, 1, 69, 127
1, 156380, Note_off_c, 1, 69, 0
1, 156384, Note_on_c, 1, 72, 127
1, 156476, Note_off_c, 1, 78, 0
1, 156476, Note_off_c, 1, 72, 0
1, 156480, Note_on_c, 1, 72, 127
1, 156480, Note_on_c, 1, 78, 127
1, 156572, Note_off_c, 1, 78, 0
1, 156576, Note_on_c, 1, 81, 127
1, 156668, Note_off_c, 1, 72, 0
1, 156668, Note_off_c, 1, 81, 0
1, 156672, Note_on_c, 1, 66, 127
1, 156672, Note_on_c, 1, 84, 127
1, 156764, Note_off_c, 1, 84, 0
1, 156768, Note_on_c, 1, 81, 127
1, 156860, Note_off_c, 1, 66, 0
1, 156860, Note_off_c, 1, 81, 0
1, 156864, Note_on_c, 1, 62, 127
1, 156864, Note_on_c, 1, 50, 127
1, 156864, Note_on_c, 1, 82, 127
1, 156864, Note_on_c, 1, 74, 127
1, 156956, Note_off_c, 1, 82, 0
1, 156956, Note_off_c, 1, 74, 0
1, 156960, Note_on_c, 1, 78, 127
1, 156960, Note_on_c, 1, 69, 127
1, 157052, Note_off_c, 1, 62, 0
1, 157052, Note_off_c, 1, 50, 0
1, 157052, Note_off_c, 1, 78, 0
1, 157052, Note_off_c, 1, 69, 0
1, 157056, Note_on_c, 1, 58, 127
1, 157056, Note_on_c, 1, 46, 127
1, 157056, Note_on_c, 1, 79, 127
1, 157056, Note_on_c, 1, 70, 127
1, 157148, Note_off_c, 1, 79, 0
1, 157148, Note_off_c, 1, 70, 0
1, 157152, Note_on_c, 1, 74, 127
1, 157152, Note_on_c, 1, 66, 127
1, 157244, Note_off_c, 1, 58, 0
1, 157244, Note_off_c, 1, 46, 0
1, 157244, Note_off_c, 1, 74, 0
1, 157244, Note_off_c, 1, 66, 0
1, 157248, Note_on_c, 1, 55, 127
1, 157248, Note_on_c, 1, 43, 127
1, 157248, Note_on_c, 1, 75, 127
1, 157248, Note_on_c, 1, 67, 127
1, 157340, Note_off_c, 1, 75, 0
1, 157340, Note_off_c, 1, 67, 0
1, 157344, Note_on_c, 1, 71, 127
1, 157344, Note_on_c, 1, 62, 127
1, 157436, Note_off_c, 1, 55, 0
1, 157436, Note_off_c, 1, 43, 0
1, 157436, Note_off_c, 1, 71, 0
1, 157436, Note_off_c, 1, 62, 0
1, 157440, Note_on_c, 1, 51, 127
1, 157440, Note_on_c, 1, 39, 127
1, 157440, Note_on_c, 1, 72, 127
1, 157440, Note_on_c, 1, 63, 127
1, 157532, Note_off_c, 1, 72, 0
1, 157532, Note_off_c, 1, 63, 0
1, 157536, Note_on_c, 1, 81, 127
1, 157536, Note_on_c, 1, 62, 127
1, 157568, Note_off_c, 1, 51, 0
1, 157568, Note_off_c, 1, 39, 0
1, 157628, Note_off_c, 1, 81, 0
1, 157628, Note_off_c, 1, 62, 0
1, 157632, Note_on_c, 1, 48, 127
1, 157632, Note_on_c, 1, 36, 127
1, 157632, Note_on_c, 1, 78, 127
1, 157632, Note_on_c, 1, 63, 127
1, 157724, Note_off_c, 1, 78, 0
1, 157724, Note_off_c, 1, 63, 0
1, 157728, Note_on_c, 1, 79, 127
1, 157728, Note_on_c, 1, 60, 127
1, 157760, Note_off_c, 1, 48, 0
1, 157760, Note_off_c, 1, 36, 0
1, 157820, Note_off_c, 1, 79, 0
1, 157820, Note_off_c, 1, 60, 0
1, 157824, Note_on_c, 1, 50, 127
1, 157824, Note_on_c, 1, 38, 127
1, 157824, Note_on_c, 1, 70, 127
1, 157824, Note_on_c, 1, 62, 127
1, 157916, Note_off_c, 1, 70, 0
1, 157920, Note_on_c, 1, 79, 127
1, 157952, Note_off_c, 1, 50, 0
1, 157952, Note_off_c, 1, 38, 0
1, 158012, Note_off_c, 1, 62, 0
1, 158012, Note_off_c, 1, 79, 0
1, 158016, Note_on_c, 1, 38, 127
1, 158016, Note_on_c, 1, 26, 127
1, 158016, Note_on_c, 1, 69, 127
1, 158016, Note_on_c, 1, 50, 127
1, 158108, Note_off_c, 1, 69, 0
1, 158112, Note_on_c, 1, 78, 127
1, 158144, Note_off_c, 1, 38, 0
1, 158144, Note_off_c, 1, 26, 0
1, 158204, Note_off_c, 1, 50, 0
1, 158204, Note_off_c, 1, 78, 0
1, 158208, Note_on_c, 1, 67, 127
1, 158208, Note_on_c, 1, 58, 127
1, 158208, Note_on_c, 1, 43, 127
1, 158208, Note_on_c, 1, 31, 127
1, 158208, Note_on_c, 1, 79, 127
1, 158208, Note_on_c, 1, 55, 127
1, 158300, Note_off_c, 1, 67, 0
1, 158300, Note_off_c, 1, 58, 0
1, 158304, Note_on_c, 1, 69, 127
1, 158304, Note_on_c, 1, 60, 127
1, 158396, Note_off_c, 1, 69, 0
1, 158396, Note_off_c, 1, 60, 0
1, 158400, Note_on_c, 1, 70, 127
1, 158400, Note_on_c, 1, 62, 127
1, 158528, Note_off_c, 1, 70, 0
1, 158528, Note_off_c, 1, 62, 0
1, 158588, Note_off_c, 1, 43, 0
1, 158588, Note_off_c, 1, 31, 0
1, 158588, Note_off_c, 1, 79, 0
1, 158588, Note_off_c, 1, 55, 0
1, 158592, Note_on_c, 1, 69, 127
1, 158592, Note_on_c, 1, 60, 127
1, 158780, Note_off_c, 1, 69, 0
1, 158780, Note_off_c, 1, 60, 0
1, 158784, Note_on_c, 1, 67, 127
1, 158784, Note_on_c, 1, 58, 127
1, 158972, Note_off_c, 1, 67, 0
1, 158972, Note_off_c, 1, 58, 0
1, 158976, Note_on_c, 1, 74, 127
1, 158976, Note_on_c, 1, 67, 127
1, 158976, Note_on_c, 1, 55, 127
1, 158976, Note_on_c, 1, 43, 127
1, 158976, Note_on_c, 1, 82, 127
1, 159068, Note_off_c, 1, 67, 0
1, 159068, Note_off_c, 1, 55, 0
1, 159068, Note_off_c, 1, 43, 0
1, 159068, Note_off_c, 1, 82, 0
1, 159072, Note_on_c, 1, 66, 127
1, 159072, Note_on_c, 1, 57, 127
1, 159072, Note_on_c, 1, 45, 127
1, 159072, Note_on_c, 1, 84, 127
1, 159164, Note_off_c, 1, 74, 0
1, 159164, Note_off_c, 1, 66, 0
1, 159164, Note_off_c, 1, 57, 0
1, 159164, Note_off_c, 1, 45, 0
1, 159164, Note_off_c, 1, 84, 0
1, 159168, Note_on_c, 1, 79, 127
1, 159168, Note_on_c, 1, 67, 127
1, 159168, Note_on_c, 1, 58, 127
1, 159168, Note_on_c, 1, 46, 127
1, 159168, Note_on_c, 1, 86, 127
1, 159296, Note_off_c, 1, 67, 0
1, 159296, Note_off_c, 1, 58, 0
1, 159296, Note_off_c, 1, 46, 0
1, 159296, Note_off_c, 1, 86, 0
1, 159360, Note_on_c, 1, 69, 127
1, 159360, Note_on_c, 1, 57, 127
1, 159360, Note_on_c, 1, 45, 127
1, 159360, Note_on_c, 1, 84, 127
1, 159548, Note_off_c, 1, 79, 0
1, 159548, Note_off_c, 1, 69, 0
1, 159548, Note_off_c, 1, 57, 0
1, 159548, Note_off_c, 1, 45, 0
1, 159548, Note_off_c, 1, 84, 0
1, 159552, Note_on_c, 1, 74, 127
1, 159552, Note_on_c, 1, 70, 127
1, 159552, Note_on_c, 1, 55, 127
1, 159552, Note_on_c, 1, 43, 127
1, 159552, Note_on_c, 1, 82, 127
1, 159740, Note_off_c, 1, 74, 0
1, 159740, Note_off_c, 1, 70, 0
1, 159740, Note_off_c, 1, 55, 0
1, 159740, Note_off_c, 1, 43, 0
1, 159744, Note_on_c, 1, 75, 127
1, 159744, Note_on_c, 1, 67, 127
1, 159744, Note_on_c, 1, 60, 127
1, 159744, Note_on_c, 1, 48, 127
1, 159840, Note_on_c, 1, 58, 127
1, 159932, Note_off_c, 1, 82, 0
1, 159932, Note_off_c, 1, 75, 0
1, 159932, Note_off_c, 1, 67, 0
1, 159932, Note_off_c, 1, 60, 0
1, 159932, Note_off_c, 1, 48, 0
1, 159932, Note_off_c, 1, 58, 0
1, 159936, Note_on_c, 1, 72, 127
1, 159936, Note_on_c, 1, 63, 127
1, 159936, Note_on_c, 1, 81, 127
1, 159936, Note_on_c, 1, 60, 127
1, 160028, Note_off_c, 1, 72, 0
1, 160028, Note_off_c, 1, 60, 0
1, 160032, Note_on_c, 1, 69, 127
1, 160032, Note_on_c, 1, 62, 127
1, 160124, Note_off_c, 1, 63, 0
1, 160124, Note_off_c, 1, 69, 0
1, 160124, Note_off_c, 1, 62, 0
1, 160128, Note_on_c, 1, 74, 127
1, 160128, Note_on_c, 1, 58, 127
1, 160128, Note_on_c, 1, 46, 127
1, 160224, Note_on_c, 1, 57, 127
1, 160316, Note_off_c, 1, 81, 0
1, 160316, Note_off_c, 1, 74, 0
1, 160316, Note_off_c, 1, 58, 0
1, 160316, Note_off_c, 1, 46, 0
1, 160316, Note_off_c, 1, 57, 0
1, 160320, Note_on_c, 1, 70, 127
1, 160320, Note_on_c, 1, 79, 127
1, 160320, Note_on_c, 1, 58, 127
1, 160412, Note_off_c, 1, 70, 0
1, 160412, Note_off_c, 1, 58, 0
1, 160416, Note_on_c, 1, 67, 127
1, 160416, Note_on_c, 1, 60, 127
1, 160508, Note_off_c, 1, 67, 0
1, 160508, Note_off_c, 1, 60, 0
1, 160512, Note_on_c, 1, 72, 127
1, 160512, Note_on_c, 1, 63, 127
1, 160512, Note_on_c, 1, 57, 127
1, 160512, Note_on_c, 1, 45, 127
1, 160700, Note_off_c, 1, 79, 0
1, 160700, Note_off_c, 1, 72, 0
1, 160700, Note_off_c, 1, 63, 0
1, 160700, Note_off_c, 1, 57, 0
1, 160700, Note_off_c, 1, 45, 0
1, 160704, Note_on_c, 1, 69, 127
1, 160704, Note_on_c, 1, 72, 127
1, 160704, Note_on_c, 1, 48, 127
1, 160796, Note_off_c, 1, 69, 0
1, 160796, Note_off_c, 1, 48, 0
1, 160800, Note_on_c, 1, 66, 127
1, 160800, Note_on_c, 1, 51, 127
1, 160892, Note_off_c, 1, 66, 0
1, 160892, Note_off_c, 1, 51, 0
1, 160896, Note_on_c, 1, 62, 127
1, 160896, Note_on_c, 1, 67, 127
1, 160896, Note_on_c, 1, 55, 127
1, 160896, Note_on_c, 1, 43, 127
1, 161084, Note_off_c, 1, 72, 0
1, 161084, Note_off_c, 1, 62, 0
1, 161084, Note_off_c, 1, 67, 0
1, 161084, Note_off_c, 1, 55, 0
1, 161084, Note_off_c, 1, 43, 0
1, 161088, Note_on_c, 1, 75, 127
1, 161088, Note_on_c, 1, 69, 127
1, 161088, Note_on_c, 1, 48, 127
1, 161180, Note_off_c, 1, 69, 0
1, 161180, Note_off_c, 1, 48, 0
1, 161184, Note_on_c, 1, 66, 127
1, 161184, Note_on_c, 1, 51, 127
1, 161276, Note_off_c, 1, 66, 0
1, 161276, Note_off_c, 1, 51, 0
1, 161280, Note_on_c, 1, 54, 127
1, 161280, Note_on_c, 1, 42, 127
1, 161280, Note_on_c, 1, 60, 127
1, 161376, Note_on_c, 1, 57, 127
1, 161468, Note_off_c, 1, 75, 0
1, 161468, Note_off_c, 1, 54, 0
1, 161468, Note_off_c, 1, 42, 0
1, 161468, Note_off_c, 1, 60, 0
1, 161468, Note_off_c, 1, 57, 0
1, 161472, Note_on_c, 1, 72, 127
1, 161472, Note_on_c, 1, 75, 127
1, 161472, Note_on_c, 1, 55, 127
1, 161564, Note_off_c, 1, 72, 0
1, 161564, Note_off_c, 1, 55, 0
1, 161568, Note_on_c, 1, 69, 127
1, 161568, Note_on_c, 1, 54, 127
1, 161660, Note_off_c, 1, 69, 0
1, 161660, Note_off_c, 1, 54, 0
1, 161664, Note_on_c, 1, 62, 127
1, 161664, Note_on_c, 1, 70, 127
1, 161664, Note_on_c, 1, 43, 127
1, 161760, Note_on_c, 1, 58, 127
1, 161852, Note_off_c, 1, 62, 0
1, 161852, Note_off_c, 1, 70, 0
1, 161852, Note_off_c, 1, 43, 0
1, 161852, Note_off_c, 1, 58, 0
1, 161856, Note_on_c, 1, 78, 127
1, 161856, Note_on_c, 1, 57, 127
1, 161948, Note_off_c, 1, 57, 0
1, 162044, Note_off_c, 1, 75, 0
1, 162048, Note_on_c, 1, 45, 127
1, 162048, Note_on_c, 1, 60, 127
1, 162236, Note_off_c, 1, 78, 0
1, 162236, Note_off_c, 1, 45, 0
1, 162236, Note_off_c, 1, 60, 0
1, 162240, Note_on_c, 1, 75, 127
1, 162240, Note_on_c, 1, 78, 127
1, 162240, Note_on_c, 1, 58, 127
1, 162332, Note_off_c, 1, 75, 0
1, 162332, Note_off_c, 1, 58, 0
1, 162336, Note_on_c, 1, 72, 127
1, 162336, Note_on_c, 1, 57, 127
1, 162428, Note_off_c, 1, 72, 0
1, 162428, Note_off_c, 1, 57, 0
1, 162432, Note_on_c, 1, 62, 127
1, 162432, Note_on_c, 1, 70, 127
1, 162432, Note_on_c, 1, 46, 127
1, 162620, Note_off_c, 1, 78, 0
1, 162620, Note_off_c, 1, 62, 0
1, 162620, Note_off_c, 1, 70, 0
1, 162620, Note_off_c, 1, 46, 0
1, 162624, Note_on_c, 1, 81, 127
1, 162624, Note_on_c, 1, 75, 127
1, 162624, Note_on_c, 1, 60, 127
1, 162716, Note_off_c, 1, 75, 0
1, 162716, Note_off_c, 1, 60, 0
1, 162720, Note_on_c, 1, 72, 127
1, 162720, Note_on_c, 1, 58, 127
1, 162812, Note_off_c, 1, 72, 0
1, 162812, Note_off_c, 1, 58, 0
1, 162816, Note_on_c, 1, 69, 127
1, 162816, Note_on_c, 1, 48, 127
1, 162816, Note_on_c, 1, 62, 127
1, 162944, Note_off_c, 1, 69, 0
1, 163004, Note_off_c, 1, 81, 0
1, 163004, Note_off_c, 1, 48, 0
1, 163004, Note_off_c, 1, 62, 0
1, 163008, Note_on_c, 1, 78, 127
1, 163008, Note_on_c, 1, 69, 127
1, 163008, Note_on_c, 1, 60, 127
1, 163008, Note_on_c, 1, 48, 127
1, 163008, Note_on_c, 1, 81, 127
1, 163100, Note_off_c, 1, 78, 0
1, 163104, Note_on_c, 1, 74, 127
1, 163104, Note_on_c, 1, 58, 127
1, 163136, Note_off_c, 1, 69, 0
1, 163136, Note_off_c, 1, 60, 0
1, 163136, Note_off_c, 1, 48, 0
1, 163196, Note_off_c, 1, 74, 0
1, 163196, Note_off_c, 1, 58, 0
1, 163200, Note_on_c, 1, 75, 127
1, 163292, Note_off_c, 1, 75, 0
1, 163296, Note_on_c, 1, 72, 127
1, 163388, Note_off_c, 1, 81, 0
1, 163388, Note_off_c, 1, 72, 0
1, 163392, Note_on_c, 1, 74, 127
1, 163392, Note_on_c, 1, 69, 127
1, 163392, Note_on_c, 1, 60, 127
1, 163392, Note_on_c, 1, 48, 127
1, 163392, Note_on_c, 1, 78, 127
1, 163484, Note_off_c, 1, 74, 0
1, 163484, Note_off_c, 1, 78, 0
1, 163488, Note_on_c, 1, 70, 127
1, 163520, Note_off_c, 1, 69, 0
1, 163520, Note_off_c, 1, 60, 0
1, 163520, Note_off_c, 1, 48, 0
1, 163580, Note_off_c, 1, 70, 0
1, 163584, Note_on_c, 1, 72, 127
1, 163584, Note_on_c, 1, 69, 127
1, 163584, Note_on_c, 1, 60, 127
1, 163584, Note_on_c, 1, 48, 127
1, 163584, Note_on_c, 1, 75, 127
1, 163676, Note_off_c, 1, 72, 0
1, 163676, Note_off_c, 1, 75, 0
1, 163680, Note_on_c, 1, 51, 127
1, 163712, Note_off_c, 1, 60, 0
1, 163712, Note_off_c, 1, 48, 0
1, 163772, Note_off_c, 1, 69, 0
1, 163772, Note_off_c, 1, 51, 0
1, 163776, Note_on_c, 1, 70, 127
1, 163776, Note_on_c, 1, 60, 127
1, 163776, Note_on_c, 1, 48, 127
1, 163776, Note_on_c, 1, 74, 127
1, 163776, Note_on_c, 1, 63, 127
1, 163868, Note_off_c, 1, 70, 0
1, 163868, Note_off_c, 1, 74, 0
1, 163868, Note_off_c, 1, 63, 0
1, 163872, Note_on_c, 1, 67, 127
1, 163872, Note_on_c, 1, 62, 127
1, 163904, Note_off_c, 1, 60, 0
1, 163904, Note_off_c, 1, 48, 0
1, 163964, Note_off_c, 1, 67, 0
1, 163964, Note_off_c, 1, 62, 0
1, 163968, Note_on_c, 1, 69, 127
1, 163968, Note_on_c, 1, 60, 127
1, 163968, Note_on_c, 1, 48, 127
1, 163968, Note_on_c, 1, 72, 127
1, 163968, Note_on_c, 1, 63, 127
1, 164060, Note_off_c, 1, 72, 0
1, 164064, Note_on_c, 1, 66, 127
1, 164096, Note_off_c, 1, 60, 0
1, 164096, Note_off_c, 1, 48, 0
1, 164156, Note_off_c, 1, 69, 0
1, 164156, Note_off_c, 1, 63, 0
1, 164156, Note_off_c, 1, 66, 0
1, 164160, Note_on_c, 1, 67, 127
1, 164160, Note_on_c, 1, 60, 127
1, 164160, Note_on_c, 1, 48, 127
1, 164160, Note_on_c, 1, 70, 127
1, 164252, Note_off_c, 1, 67, 0
1, 164252, Note_off_c, 1, 70, 0
1, 164256, Note_on_c, 1, 64, 127
1, 164288, Note_off_c, 1, 60, 0
1, 164288, Note_off_c, 1, 48, 0
1, 164348, Note_off_c, 1, 64, 0
1, 164352, Note_on_c, 1, 66, 127
1, 164352, Note_on_c, 1, 69, 127
1, 164352, Note_on_c, 1, 60, 127
1, 164352, Note_on_c, 1, 48, 127
1, 164352, Note_on_c, 1, 75, 127
1, 164444, Note_off_c, 1, 66, 0
1, 164448, Note_on_c, 1, 62, 127
1, 164448, Note_on_c, 1, 58, 127
1, 164496, Note_on_c, 1, 74, 127
1, 164500, Note_off_c, 1, 75, 0
1, 164540, Note_off_c, 1, 62, 0
1, 164540, Note_off_c, 1, 58, 0
1, 164544, Note_on_c, 1, 64, 127
1, 164544, Note_on_c, 1, 57, 127
1, 164572, Note_off_c, 1, 74, 0
1, 164608, Note_off_c, 1, 69, 0
1, 164608, Note_off_c, 1, 60, 0
1, 164608, Note_off_c, 1, 48, 0
1, 164636, Note_off_c, 1, 64, 0
1, 164636, Note_off_c, 1, 57, 0
1, 164640, Note_on_c, 1, 55, 127
1, 164732, Note_off_c, 1, 55, 0
1, 164736, Note_on_c, 1, 67, 127
1, 164736, Note_on_c, 1, 54, 127
1, 164828, Note_off_c, 1, 67, 0
1, 164828, Note_off_c, 1, 54, 0
1, 164832, Note_on_c, 1, 51, 127
1, 164924, Note_off_c, 1, 51, 0
1, 164928, Note_on_c, 1, 70, 127
1, 164928, Note_on_c, 1, 50, 127
1, 165020, Note_off_c, 1, 70, 0
1, 165020, Note_off_c, 1, 50, 0
1, 165024, Note_on_c, 1, 72, 127
1, 165116, Note_off_c, 1, 72, 0
1, 165120, Note_on_c, 1, 47, 127
1, 165120, Note_on_c, 1, 35, 127
1, 165120, Note_on_c, 1, 46, 127
1, 165212, Note_off_c, 1, 47, 0
1, 165212, Note_off_c, 1, 35, 0
1, 165212, Note_off_c, 1, 46, 0
1, 165216, Note_on_c, 1, 36, 127
1, 165308, Note_off_c, 1, 36, 0
1, 165312, Note_on_c, 1, 77, 127
1, 165312, Note_on_c, 1, 38, 127
1, 165440, Note_off_c, 1, 77, 0
1, 165440, Note_off_c, 1, 38, 0
1, 165600, Note_on_c, 1, 79, 127
1, 165600, Note_on_c, 1, 39, 127
1, 165692, Note_off_c, 1, 79, 0
1, 165692, Note_off_c, 1, 39, 0
1, 165696, Note_on_c, 1, 80, 127
1, 165696, Note_on_c, 1, 53, 127
1, 165696, Note_on_c, 1, 41, 127
1, 165824, Note_off_c, 1, 80, 0
1, 165824, Note_off_c, 1, 53, 0
1, 165824, Note_off_c, 1, 41, 0
1, 165888, Note_on_c, 1, 71, 127
1, 165996, Note_off_c, 1, 71, 0
1, 166080, Note_on_c, 1, 72, 127
1, 166080, Note_on_c, 1, 67, 127
1, 166080, Note_on_c, 1, 51, 127
1, 166080, Note_on_c, 1, 39, 127
1, 166176, Note_on_c, 1, 50, 127
1, 166188, Note_off_c, 1, 72, 0
1, 166208, Note_off_c, 1, 67, 0
1, 166208, Note_off_c, 1, 51, 0
1, 166208, Note_off_c, 1, 39, 0
1, 166268, Note_off_c, 1, 50, 0
1, 166272, Note_on_c, 1, 66, 127
1, 166272, Note_on_c, 1, 69, 127
1, 166272, Note_on_c, 1, 51, 127
1, 166272, Note_on_c, 1, 39, 127
1, 166368, Note_on_c, 1, 60, 127
1, 166380, Note_off_c, 1, 66, 0
1, 166460, Note_off_c, 1, 69, 0
1, 166460, Note_off_c, 1, 51, 0
1, 166460, Note_off_c, 1, 39, 0
1, 166460, Note_off_c, 1, 60, 0
1, 166464, Note_on_c, 1, 67, 127
1, 166464, Note_on_c, 1, 70, 127
1, 166464, Note_on_c, 1, 50, 127
1, 166464, Note_on_c, 1, 38, 127
1, 166560, Note_on_c, 1, 58, 127
1, 166572, Note_off_c, 1, 67, 0
1, 166592, Note_off_c, 1, 70, 0
1, 166592, Note_off_c, 1, 50, 0
1, 166592, Note_off_c, 1, 38, 0
1, 166652, Note_off_c, 1, 58, 0
1, 166656, Note_on_c, 1, 61, 127
1, 166656, Note_on_c, 1, 49, 127
1, 166656, Note_on_c, 1, 37, 127
1, 166656, Note_on_c, 1, 82, 127
1, 166656, Note_on_c, 1, 52, 127
1, 166656, Note_on_c, 1, 55, 127
1, 166752, Note_off_c, 1, 82, 0
1, 166752, Note_on_c, 1, 81, 127
1, 166800, Note_off_c, 1, 81, 0
1, 167036, Note_off_c, 1, 61, 0
1, 167036, Note_off_c, 1, 49, 0
1, 167036, Note_off_c, 1, 37, 0
1, 167036, Note_off_c, 1, 52, 0
1, 167036, Note_off_c, 1, 55, 0
1, 167088, Note_on_c, 1, 82, 127
1, 167520, Note_on_c, 1, 84, 127
1, 167524, Note_off_c, 1, 82, 0
1, 167612, Note_off_c, 1, 84, 0
1, 167616, Note_on_c, 1, 82, 127
1, 167708, Note_off_c, 1, 82, 0
1, 167712, Note_on_c, 1, 81, 127
1, 167804, Note_off_c, 1, 81, 0
1, 167808, Note_on_c, 1, 79, 127
1, 167900, Note_off_c, 1, 79, 0
1, 167904, Note_on_c, 1, 81, 127
1, 167996, Note_off_c, 1, 81, 0
1, 168000, Note_on_c, 1, 82, 127
1, 168092, Note_off_c, 1, 82, 0
1, 168096, Note_on_c, 1, 81, 127
1, 168188, Note_off_c, 1, 81, 0
1, 168192, Note_on_c, 1, 79, 127
1, 168284, Note_off_c, 1, 79, 0
1, 168288, Note_on_c, 1, 77, 127
1, 168380, Note_off_c, 1, 77, 0
1, 168384, Note_on_c, 1, 76, 127
1, 168476, Note_off_c, 1, 76, 0
1, 168480, Note_on_c, 1, 77, 127
1, 168572, Note_off_c, 1, 77, 0
1, 168576, Note_on_c, 1, 79, 127
1, 168668, Note_off_c, 1, 79, 0
1, 168672, Note_on_c, 1, 77, 127
1, 168764, Note_off_c, 1, 77, 0
1, 168768, Note_on_c, 1, 76, 127
1, 168860, Note_off_c, 1, 76, 0
1, 168864, Note_on_c, 1, 74, 127
1, 168956, Note_off_c, 1, 74, 0
1, 168960, Note_on_c, 1, 73, 127
1, 169052, Note_off_c, 1, 73, 0
1, 169056, Note_on_c, 1, 74, 127
1, 169148, Note_off_c, 1, 74, 0
1, 169152, Note_on_c, 1, 76, 127
1, 169244, Note_off_c, 1, 76, 0
1, 169248, Note_on_c, 1, 74, 127
1, 169340, Note_off_c, 1, 74, 0
1, 169344, Note_on_c, 1, 73, 127
1, 169436, Note_off_c, 1, 73, 0
1, 169440, Note_on_c, 1, 71, 127
1, 169532, Note_off_c, 1, 71, 0
1, 169536, Note_on_c, 1, 69, 127
1, 169628, Note_off_c, 1, 69, 0
1, 169632, Note_on_c, 1, 71, 127
1, 169724, Note_off_c, 1, 71, 0
1, 169728, Note_on_c, 1, 73, 127
1, 169820, Note_off_c, 1, 73, 0
1, 169824, Note_on_c, 1, 71, 127
1, 169916, Note_off_c, 1, 71, 0
1, 169920, Note_on_c, 1, 69, 127
1, 170012, Note_off_c, 1, 69, 0
1, 170016, Note_on_c, 1, 67, 127
1, 170108, Note_off_c, 1, 67, 0
1, 170112, Note_on_c, 1, 70, 127
1, 170204, Note_off_c, 1, 70, 0
1, 170208, Note_on_c, 1, 69, 127
1, 170300, Note_off_c, 1, 69, 0
1, 170304, Note_on_c, 1, 67, 127
1, 170396, Note_off_c, 1, 67, 0
1, 170400, Note_on_c, 1, 65, 127
1, 170492, Note_off_c, 1, 65, 0
1, 170496, Note_on_c, 1, 64, 127
1, 170588, Note_off_c, 1, 64, 0
1, 170592, Note_on_c, 1, 65, 127
1, 170684, Note_off_c, 1, 65, 0
1, 170688, Note_on_c, 1, 67, 127
1, 170780, Note_off_c, 1, 67, 0
1, 170784, Note_on_c, 1, 65, 127
1, 170876, Note_off_c, 1, 65, 0
1, 170880, Note_on_c, 1, 64, 127
1, 170972, Note_off_c, 1, 64, 0
1, 170976, Note_on_c, 1, 62, 127
1, 171068, Note_off_c, 1, 62, 0
1, 171072, Note_on_c, 1, 61, 127
1, 171164, Note_off_c, 1, 61, 0
1, 171168, Note_on_c, 1, 62, 127
1, 171260, Note_off_c, 1, 62, 0
1, 171264, Note_on_c, 1, 64, 127
1, 171356, Note_off_c, 1, 64, 0
1, 171360, Note_on_c, 1, 62, 127
1, 171452, Note_off_c, 1, 62, 0
1, 171456, Note_on_c, 1, 61, 127
1, 171548, Note_off_c, 1, 61, 0
1, 171552, Note_on_c, 1, 59, 127
1, 171644, Note_off_c, 1, 59, 0
1, 171660, Note_on_c, 1, 57, 127
1, 171904, Note_on_c, 1, 59, 127
1, 171932, Note_off_c, 1, 57, 0
1, 172032, Note_off_c, 1, 59, 0
1, 172120, Note_on_c, 1, 59, 127
1, 172200, Note_on_c, 1, 57, 127
1, 172216, Note_off_c, 1, 59, 0
1, 172296, Note_off_c, 1, 57, 0
1, 173280, Note_on_c, 1, 59, 127
1, 173372, Note_off_c, 1, 59, 0
1, 173376, Note_on_c, 1, 61, 127
1, 173468, Note_off_c, 1, 61, 0
1, 173472, Note_on_c, 1, 62, 127
1, 173564, Note_off_c, 1, 62, 0
1, 173568, Note_on_c, 1, 64, 127
1, 173660, Note_off_c, 1, 64, 0
1, 173664, Note_on_c, 1, 65, 127
1, 173756, Note_off_c, 1, 65, 0
1, 173760, Note_on_c, 1, 67, 127
1, 173852, Note_off_c, 1, 67, 0
1, 173856, Note_on_c, 1, 64, 127
1, 173948, Note_off_c, 1, 64, 0
1, 173952, Note_on_c, 1, 61, 127
1, 174044, Note_off_c, 1, 61, 0
1, 174048, Note_on_c, 1, 62, 127
1, 174140, Note_off_c, 1, 62, 0
1, 174144, Note_on_c, 1, 64, 127
1, 174236, Note_off_c, 1, 64, 0
1, 174240, Note_on_c, 1, 65, 127
1, 174332, Note_off_c, 1, 65, 0
1, 174336, Note_on_c, 1, 67, 127
1, 174428, Note_off_c, 1, 67, 0
1, 174432, Note_on_c, 1, 69, 127
1, 174524, Note_off_c, 1, 69, 0
1, 174528, Note_on_c, 1, 70, 127
1, 174620, Note_off_c, 1, 70, 0
1, 174624, Note_on_c, 1, 67, 127
1, 174716, Note_off_c, 1, 67, 0
1, 174720, Note_on_c, 1, 64, 127
1, 174812, Note_off_c, 1, 64, 0
1, 174816, Note_on_c, 1, 65, 127
1, 174908, Note_off_c, 1, 65, 0
1, 174912, Note_on_c, 1, 67, 127
1, 175004, Note_off_c, 1, 67, 0
1, 175008, Note_on_c, 1, 69, 127
1, 175100, Note_off_c, 1, 69, 0
1, 175104, Note_on_c, 1, 70, 127
1, 175196, Note_off_c, 1, 70, 0
1, 175200, Note_on_c, 1, 73, 127
1, 175292, Note_off_c, 1, 73, 0
1, 175296, Note_on_c, 1, 74, 127
1, 175388, Note_off_c, 1, 74, 0
1, 175392, Note_on_c, 1, 76, 127
1, 175484, Note_off_c, 1, 76, 0
1, 175488, Note_on_c, 1, 74, 127
1, 175580, Note_off_c, 1, 74, 0
1, 175584, Note_on_c, 1, 73, 127
1, 175676, Note_off_c, 1, 73, 0
1, 175680, Note_on_c, 1, 71, 127
1, 175772, Note_off_c, 1, 71, 0
1, 175776, Note_on_c, 1, 69, 127
1, 175868, Note_off_c, 1, 69, 0
1, 175872, Note_on_c, 1, 67, 127
1, 175964, Note_off_c, 1, 67, 0
1, 175968, Note_on_c, 1, 69, 127
1, 176060, Note_off_c, 1, 69, 0
1, 176064, Note_on_c, 1, 71, 127
1, 176156, Note_off_c, 1, 71, 0
1, 176160, Note_on_c, 1, 73, 127
1, 176252, Note_off_c, 1, 73, 0
1, 176256, Note_on_c, 1, 74, 127
1, 176348, Note_off_c, 1, 74, 0
1, 176352, Note_on_c, 1, 76, 127
1, 176444, Note_off_c, 1, 76, 0
1, 176448, Note_on_c, 1, 77, 127
1, 176540, Note_off_c, 1, 77, 0
1, 176544, Note_on_c, 1, 79, 127
1, 176636, Note_off_c, 1, 79, 0
1, 176640, Note_on_c, 1, 81, 127
1, 176732, Note_off_c, 1, 81, 0
1, 176736, Note_on_c, 1, 82, 127
1, 176828, Note_off_c, 1, 82, 0
1, 176832, Note_on_c, 1, 81, 127
1, 176924, Note_off_c, 1, 81, 0
1, 176928, Note_on_c, 1, 79, 127
1, 177020, Note_off_c, 1, 79, 0
1, 177024, Note_on_c, 1, 77, 127
1, 177116, Note_off_c, 1, 77, 0
1, 177120, Note_on_c, 1, 76, 127
1, 177212, Note_off_c, 1, 76, 0
1, 177216, Note_on_c, 1, 74, 127
1, 177308, Note_off_c, 1, 74, 0
1, 177312, Note_on_c, 1, 73, 127
1, 177404, Note_off_c, 1, 73, 0
1, 177408, Note_on_c, 1, 74, 127
1, 177536, Note_off_c, 1, 74, 0
1, 177600, Note_on_c, 1, 79, 127
1, 177600, Note_on_c, 1, 70, 127
1, 177600, Note_on_c, 1, 67, 127
1, 177600, Note_on_c, 1, 51, 127
1, 177600, Note_on_c, 1, 39, 127
1, 177600, Note_on_c, 1, 75, 127
1, 177728, Note_off_c, 1, 79, 0
1, 177728, Note_off_c, 1, 70, 0
1, 177728, Note_off_c, 1, 67, 0
1, 177728, Note_off_c, 1, 51, 0
1, 177728, Note_off_c, 1, 39, 0
1, 177728, Note_off_c, 1, 75, 0
1, 177792, Note_on_c, 1, 81, 127
1, 177792, Note_on_c, 1, 75, 127
1, 177792, Note_on_c, 1, 72, 127
1, 177792, Note_on_c, 1, 48, 127
1, 177792, Note_on_c, 1, 36, 127
1, 177920, Note_off_c, 1, 81, 0
1, 177920, Note_off_c, 1, 75, 0
1, 177920, Note_off_c, 1, 72, 0
1, 177920, Note_off_c, 1, 48, 0
1, 177920, Note_off_c, 1, 36, 0
1, 177984, Note_on_c, 1, 78, 127
1, 177984, Note_on_c, 1, 74, 127
1, 177984, Note_on_c, 1, 69, 127
1, 177984, Note_on_c, 1, 50, 127
1, 177984, Note_on_c, 1, 38, 127
1, 178112, Note_off_c, 1, 78, 0
1, 178112, Note_off_c, 1, 74, 0
1, 178112, Note_off_c, 1, 69, 0
1, 178112, Note_off_c, 1, 50, 0
1, 178112, Note_off_c, 1, 38, 0
1, 178176, Note_on_c, 1, 79, 127
1, 178176, Note_on_c, 1, 74, 127
1, 178176, Note_on_c, 1, 70, 127
1, 178176, Note_on_c, 1, 43, 127
1, 178176, Note_on_c, 1, 31, 127
1, 178176, Note_on_c, 1, 55, 127
1, 178268, Note_off_c, 1, 43, 0
1, 178268, Note_off_c, 1, 31, 0
1, 178268, Note_off_c, 1, 55, 0
1, 178272, Note_on_c, 1, 72, 127
1, 178272, Note_on_c, 1, 45, 127
1, 178272, Note_on_c, 1, 33, 127
1, 178272, Note_on_c, 1, 57, 127
1, 178304, Note_off_c, 1, 74, 0
1, 178364, Note_off_c, 1, 72, 0
1, 178364, Note_off_c, 1, 45, 0
1, 178364, Note_off_c, 1, 33, 0
1, 178364, Note_off_c, 1, 57, 0
1, 178368, Note_on_c, 1, 46, 127
1, 178368, Note_on_c, 1, 34, 127
1, 178368, Note_on_c, 1, 58, 127
1, 178432, Note_off_c, 1, 79, 0
1, 178460, Note_off_c, 1, 70, 0
1, 178464, Note_on_c, 1, 69, 127
1, 178496, Note_off_c, 1, 46, 0
1, 178496, Note_off_c, 1, 34, 0
1, 178496, Note_off_c, 1, 58, 0
1, 178556, Note_off_c, 1, 69, 0
1, 178560, Note_on_c, 1, 67, 127
1, 178560, Note_on_c, 1, 45, 127
1, 178560, Note_on_c, 1, 33, 127
1, 178560, Note_on_c, 1, 57, 127
1, 178588, Note_on_c, 1, 81, 127
1, 178652, Note_off_c, 1, 67, 0
1, 178656, Note_on_c, 1, 65, 127
1, 178660, Note_on_c, 1, 82, 127
1, 178672, Note_off_c, 1, 81, 0
1, 178712, Note_off_c, 1, 82, 0
1, 178712, Note_on_c, 1, 84, 127
1, 178748, Note_off_c, 1, 45, 0
1, 178748, Note_off_c, 1, 33, 0
1, 178748, Note_off_c, 1, 57, 0
1, 178748, Note_off_c, 1, 65, 0
1, 178752, Note_on_c, 1, 63, 127
1, 178752, Note_on_c, 1, 43, 127
1, 178752, Note_on_c, 1, 31, 127
1, 178752, Note_on_c, 1, 55, 127
1, 178796, Note_off_c, 1, 84, 0
1, 178844, Note_off_c, 1, 63, 0
1, 178848, Note_on_c, 1, 62, 127
1, 178940, Note_off_c, 1, 43, 0
1, 178940, Note_off_c, 1, 31, 0
1, 178940, Note_off_c, 1, 55, 0
1, 178940, Note_off_c, 1, 62, 0
1, 178944, Note_on_c, 1, 79, 127
1, 178944, Note_on_c, 1, 60, 127
1, 178944, Note_on_c, 1, 48, 127
1, 178944, Note_on_c, 1, 36, 127
1, 179036, Note_off_c, 1, 79, 0
1, 179040, Note_on_c, 1, 77, 127
1, 179132, Note_off_c, 1, 60, 0
1, 179132, Note_off_c, 1, 48, 0
1, 179132, Note_off_c, 1, 36, 0
1, 179132, Note_off_c, 1, 77, 0
1, 179136, Note_on_c, 1, 76, 127
1, 179136, Note_on_c, 1, 72, 127
1, 179136, Note_on_c, 1, 64, 127
1, 179228, Note_off_c, 1, 76, 0
1, 179232, Note_on_c, 1, 74, 127
1, 179264, Note_off_c, 1, 64, 0
1, 179324, Note_off_c, 1, 72, 0
1, 179324, Note_off_c, 1, 74, 0
1, 179424, Note_on_c, 1, 70, 127
1, 179516, Note_off_c, 1, 70, 0
1, 179520, Note_on_c, 1, 69, 127
1, 179612, Note_off_c, 1, 69, 0
1, 179712, Note_on_c, 1, 41, 127
1, 179712, Note_on_c, 1, 29, 127
1, 179712, Note_on_c, 1, 53, 127
1, 179804, Note_off_c, 1, 41, 0
1, 179804, Note_off_c, 1, 29, 0
1, 179804, Note_off_c, 1, 53, 0
1, 179904, Note_on_c, 1, 77, 127
1, 179904, Note_on_c, 1, 69, 127
1, 179904, Note_on_c, 1, 72, 127
1, 179904, Note_on_c, 1, 45, 127
1, 179904, Note_on_c, 1, 33, 127
1, 179904, Note_on_c, 1, 81, 127
1, 179904, Note_on_c, 1, 57, 127
1, 179948, Note_off_c, 1, 81, 0
1, 179952, Note_on_c, 1, 82, 127
1, 179996, Note_off_c, 1, 69, 0
1, 179996, Note_off_c, 1, 82, 0
1, 180000, Note_on_c, 1, 67, 127
1, 180032, Note_off_c, 1, 77, 0
1, 180032, Note_off_c, 1, 45, 0
1, 180032, Note_off_c, 1, 33, 0
1, 180032, Note_off_c, 1, 57, 0
1, 180092, Note_off_c, 1, 67, 0
1, 180096, Note_on_c, 1, 65, 127
1, 180096, Note_on_c, 1, 43, 127
1, 180096, Note_on_c, 1, 31, 127
1, 180096, Note_on_c, 1, 55, 127
1, 180188, Note_off_c, 1, 65, 0
1, 180192, Note_on_c, 1, 63, 127
1, 180284, Note_off_c, 1, 72, 0
1, 180284, Note_off_c, 1, 43, 0
1, 180284, Note_off_c, 1, 31, 0
1, 180284, Note_off_c, 1, 55, 0
1, 180284, Note_off_c, 1, 63, 0
1, 180288, Note_on_c, 1, 62, 127
1, 180288, Note_on_c, 1, 65, 127
1, 180288, Note_on_c, 1, 41, 127
1, 180288, Note_on_c, 1, 29, 127
1, 180288, Note_on_c, 1, 81, 127
1, 180288, Note_on_c, 1, 53, 127
1, 180332, Note_off_c, 1, 81, 0
1, 180336, Note_on_c, 1, 82, 127
1, 180380, Note_off_c, 1, 62, 0
1, 180380, Note_off_c, 1, 82, 0
1, 180384, Note_on_c, 1, 60, 127
1, 180476, Note_off_c, 1, 65, 0
1, 180476, Note_off_c, 1, 41, 0
1, 180476, Note_off_c, 1, 29, 0
1, 180476, Note_off_c, 1, 53, 0
1, 180476, Note_off_c, 1, 60, 0
1, 180480, Note_on_c, 1, 77, 127
1, 180480, Note_on_c, 1, 58, 127
1, 180480, Note_on_c, 1, 46, 127
1, 180480, Note_on_c, 1, 34, 127
1, 180480, Note_on_c, 1, 81, 127
1, 180524, Note_off_c, 1, 81, 0
1, 180528, Note_on_c, 1, 82, 127
1, 180572, Note_off_c, 1, 77, 0
1, 180572, Note_off_c, 1, 82, 0
1, 180576, Note_on_c, 1, 76, 127
1, 180576, Note_on_c, 1, 60, 127
1, 180608, Note_off_c, 1, 58, 0
1, 180668, Note_off_c, 1, 46, 0
1, 180668, Note_off_c, 1, 34, 0
1, 180668, Note_off_c, 1, 76, 0
1, 180668, Note_off_c, 1, 60, 0
1, 180672, Note_on_c, 1, 74, 127
1, 180672, Note_on_c, 1, 70, 127
1, 180672, Note_on_c, 1, 62, 127
1, 180672, Note_on_c, 1, 53, 127
1, 180672, Note_on_c, 1, 41, 127
1, 180672, Note_on_c, 1, 81, 127
1, 180716, Note_off_c, 1, 81, 0
1, 180720, Note_on_c, 1, 82, 127
1, 180764, Note_off_c, 1, 74, 0
1, 180764, Note_off_c, 1, 82, 0
1, 180768, Note_on_c, 1, 72, 127
1, 180800, Note_off_c, 1, 70, 0
1, 180800, Note_off_c, 1, 62, 0
1, 180860, Note_off_c, 1, 72, 0
1, 180864, Note_on_c, 1, 60, 127
1, 180960, Note_on_c, 1, 69, 127
1, 181052, Note_off_c, 1, 53, 0
1, 181052, Note_off_c, 1, 41, 0
1, 181052, Note_off_c, 1, 60, 0
1, 181052, Note_off_c, 1, 69, 0
1, 181056, Note_on_c, 1, 67, 127
1, 181056, Note_on_c, 1, 58, 127
1, 181056, Note_on_c, 1, 46, 127
1, 181056, Note_on_c, 1, 34, 127
1, 181056, Note_on_c, 1, 81, 127
1, 181100, Note_off_c, 1, 81, 0
1, 181104, Note_on_c, 1, 82, 127
1, 181148, Note_off_c, 1, 67, 0
1, 181148, Note_off_c, 1, 82, 0
1, 181152, Note_on_c, 1, 65, 127
1, 181244, Note_off_c, 1, 58, 0
1, 181244, Note_off_c, 1, 46, 0
1, 181244, Note_off_c, 1, 34, 0
1, 181244, Note_off_c, 1, 65, 0
1, 181248, Note_on_c, 1, 64, 127
1, 181248, Note_on_c, 1, 70, 127
1, 181248, Note_on_c, 1, 40, 127
1, 181248, Note_on_c, 1, 28, 127
1, 181248, Note_on_c, 1, 79, 127
1, 181248, Note_on_c, 1, 52, 127
1, 181292, Note_off_c, 1, 79, 0
1, 181296, Note_on_c, 1, 81, 127
1, 181340, Note_off_c, 1, 70, 0
1, 181340, Note_off_c, 1, 40, 0
1, 181340, Note_off_c, 1, 28, 0
1, 181340, Note_off_c, 1, 52, 0
1, 181340, Note_off_c, 1, 81, 0
1, 181344, Note_on_c, 1, 69, 127
1, 181344, Note_on_c, 1, 41, 127
1, 181344, Note_on_c, 1, 29, 127
1, 181344, Note_on_c, 1, 53, 127
1, 181436, Note_off_c, 1, 64, 0
1, 181436, Note_off_c, 1, 69, 0
1, 181436, Note_off_c, 1, 41, 0
1, 181436, Note_off_c, 1, 29, 0
1, 181436, Note_off_c, 1, 53, 0
1, 181440, Note_on_c, 1, 76, 127
1, 181440, Note_on_c, 1, 67, 127
1, 181440, Note_on_c, 1, 70, 127
1, 181440, Note_on_c, 1, 43, 127
1, 181440, Note_on_c, 1, 31, 127
1, 181440, Note_on_c, 1, 79, 127
1, 181440, Note_on_c, 1, 55, 127
1, 181484, Note_off_c, 1, 79, 0
1, 181488, Note_on_c, 1, 81, 127
1, 181532, Note_off_c, 1, 67, 0
1, 181532, Note_off_c, 1, 81, 0
1, 181536, Note_on_c, 1, 65, 127
1, 181568, Note_off_c, 1, 76, 0
1, 181568, Note_off_c, 1, 43, 0
1, 181568, Note_off_c, 1, 31, 0
1, 181568, Note_off_c, 1, 55, 0
1, 181628, Note_off_c, 1, 65, 0
1, 181632, Note_on_c, 1, 64, 127
1, 181632, Note_on_c, 1, 41, 127
1, 181632, Note_on_c, 1, 29, 127
1, 181632, Note_on_c, 1, 53, 127
1, 181724, Note_off_c, 1, 64, 0
1, 181728, Note_on_c, 1, 62, 127
1, 181820, Note_off_c, 1, 70, 0
1, 181820, Note_off_c, 1, 41, 0
1, 181820, Note_off_c, 1, 29, 0
1, 181820, Note_off_c, 1, 53, 0
1, 181820, Note_off_c, 1, 62, 0
1, 181824, Note_on_c, 1, 61, 127
1, 181824, Note_on_c, 1, 64, 127
1, 181824, Note_on_c, 1, 40, 127
1, 181824, Note_on_c, 1, 28, 127
1, 181824, Note_on_c, 1, 79, 127
1, 181824, Note_on_c, 1, 52, 127
1, 181868, Note_off_c, 1, 79, 0
1, 181872, Note_on_c, 1, 81, 127
1, 181916, Note_off_c, 1, 61, 0
1, 181916, Note_off_c, 1, 81, 0
1, 181920, Note_on_c, 1, 59, 127
1, 181968, Note_on_c, 1, 57, 127
1, 181968, Note_on_c, 1, 45, 127
1, 181968, Note_on_c, 1, 33, 127
1, 182012, Note_off_c, 1, 64, 0
1, 182012, Note_off_c, 1, 40, 0
1, 182012, Note_off_c, 1, 28, 0
1, 182012, Note_off_c, 1, 52, 0
1, 182012, Note_off_c, 1, 59, 0
1, 182016, Note_on_c, 1, 76, 127
1, 182108, Note_off_c, 1, 57, 0
1, 182108, Note_off_c, 1, 76, 0
1, 182112, Note_on_c, 1, 74, 127
1, 182156, Note_off_c, 1, 45, 0
1, 182156, Note_off_c, 1, 33, 0
1, 182204, Note_off_c, 1, 74, 0
1, 182208, Note_on_c, 1, 73, 127
1, 182208, Note_on_c, 1, 69, 127
1, 182208, Note_on_c, 1, 61, 127
1, 182208, Note_on_c, 1, 52, 127
1, 182208, Note_on_c, 1, 40, 127
1, 182208, Note_on_c, 1, 79, 127
1, 182252, Note_off_c, 1, 79, 0
1, 182256, Note_on_c, 1, 81, 127
1, 182300, Note_off_c, 1, 73, 0
1, 182300, Note_off_c, 1, 81, 0
1, 182304, Note_on_c, 1, 71, 127
1, 182336, Note_off_c, 1, 69, 0
1, 182336, Note_off_c, 1, 61, 0
1, 182396, Note_off_c, 1, 71, 0
1, 182400, Note_on_c, 1, 59, 127
1, 182496, Note_on_c, 1, 67, 127
1, 182588, Note_off_c, 1, 52, 0
1, 182588, Note_off_c, 1, 40, 0
1, 182588, Note_off_c, 1, 59, 0
1, 182588, Note_off_c, 1, 67, 0
1, 182592, Note_on_c, 1, 65, 127
1, 182592, Note_on_c, 1, 57, 127
1, 182592, Note_on_c, 1, 45, 127
1, 182592, Note_on_c, 1, 33, 127
1, 182592, Note_on_c, 1, 79, 127
1, 182636, Note_off_c, 1, 79, 0
1, 182640, Note_on_c, 1, 81, 127
1, 182684, Note_off_c, 1, 65, 0
1, 182684, Note_off_c, 1, 81, 0
1, 182688, Note_on_c, 1, 64, 127
1, 182780, Note_off_c, 1, 57, 0
1, 182780, Note_off_c, 1, 45, 0
1, 182780, Note_off_c, 1, 33, 0
1, 182780, Note_off_c, 1, 64, 0
1, 182784, Note_on_c, 1, 62, 127
1, 182784, Note_on_c, 1, 38, 127
1, 182784, Note_on_c, 1, 26, 127
1, 182784, Note_on_c, 1, 77, 127
1, 182784, Note_on_c, 1, 50, 127
1, 182848, Note_off_c, 1, 77, 0
1, 182876, Note_off_c, 1, 38, 0
1, 182876, Note_off_c, 1, 26, 0
1, 182876, Note_off_c, 1, 50, 0
1, 182880, Note_on_c, 1, 40, 127
1, 182880, Note_on_c, 1, 28, 127
1, 182880, Note_on_c, 1, 81, 127
1, 182880, Note_on_c, 1, 52, 127
1, 182944, Note_off_c, 1, 81, 0
1, 182972, Note_off_c, 1, 62, 0
1, 182972, Note_off_c, 1, 40, 0
1, 182972, Note_off_c, 1, 28, 0
1, 182972, Note_off_c, 1, 52, 0
1, 182976, Note_on_c, 1, 74, 127
1, 182976, Note_on_c, 1, 65, 127
1, 182976, Note_on_c, 1, 69, 127
1, 182976, Note_on_c, 1, 41, 127
1, 182976, Note_on_c, 1, 29, 127
1, 182976, Note_on_c, 1, 81, 127
1, 182976, Note_on_c, 1, 53, 127
1, 183040, Note_off_c, 1, 81, 0
1, 183104, Note_off_c, 1, 41, 0
1, 183104, Note_off_c, 1, 29, 0
1, 183104, Note_off_c, 1, 53, 0
1, 183164, Note_off_c, 1, 74, 0
1, 183164, Note_off_c, 1, 65, 0
1, 183168, Note_on_c, 1, 40, 127
1, 183168, Note_on_c, 1, 28, 127
1, 183168, Note_on_c, 1, 79, 127
1, 183168, Note_on_c, 1, 52, 127
1, 183232, Note_off_c, 1, 79, 0
1, 183356, Note_off_c, 1, 69, 0
1, 183356, Note_off_c, 1, 40, 0
1, 183356, Note_off_c, 1, 28, 0
1, 183356, Note_off_c, 1, 52, 0
1, 183360, Note_on_c, 1, 74, 127
1, 183360, Note_on_c, 1, 62, 127
1, 183360, Note_on_c, 1, 38, 127
1, 183360, Note_on_c, 1, 26, 127
1, 183360, Note_on_c, 1, 77, 127
1, 183360, Note_on_c, 1, 50, 127
1, 183424, Note_off_c, 1, 77, 0
1, 183456, Note_on_c, 1, 81, 127
1, 183520, Note_off_c, 1, 81, 0
1, 183548, Note_off_c, 1, 74, 0
1, 183548, Note_off_c, 1, 62, 0
1, 183548, Note_off_c, 1, 38, 0
1, 183548, Note_off_c, 1, 26, 0
1, 183548, Note_off_c, 1, 50, 0
1, 183552, Note_on_c, 1, 76, 127
1, 183552, Note_on_c, 1, 61, 127
1, 183552, Note_on_c, 1, 45, 127
1, 183552, Note_on_c, 1, 33, 127
1, 183552, Note_on_c, 1, 57, 127
1, 183644, Note_off_c, 1, 45, 0
1, 183644, Note_off_c, 1, 33, 0
1, 183648, Note_on_c, 1, 47, 127
1, 183648, Note_on_c, 1, 35, 127
1, 183648, Note_on_c, 1, 81, 127
1, 183740, Note_off_c, 1, 76, 0
1, 183740, Note_off_c, 1, 61, 0
1, 183740, Note_off_c, 1, 57, 0
1, 183740, Note_off_c, 1, 47, 0
1, 183740, Note_off_c, 1, 35, 0
1, 183740, Note_off_c, 1, 81, 0
1, 183744, Note_on_c, 1, 79, 127
1, 183744, Note_on_c, 1, 69, 127
1, 183744, Note_on_c, 1, 49, 127
1, 183744, Note_on_c, 1, 37, 127
1, 183744, Note_on_c, 1, 45, 127
1, 183840, Note_on_c, 1, 77, 127
1, 183872, Note_off_c, 1, 49, 0
1, 183872, Note_off_c, 1, 37, 0
1, 183932, Note_off_c, 1, 79, 0
1, 183932, Note_off_c, 1, 45, 0
1, 183932, Note_off_c, 1, 77, 0
1, 183936, Note_on_c, 1, 76, 127
1, 183936, Note_on_c, 1, 47, 127
1, 183936, Note_on_c, 1, 35, 127
1, 184032, Note_on_c, 1, 74, 127
1, 184124, Note_off_c, 1, 69, 0
1, 184124, Note_off_c, 1, 76, 0
1, 184124, Note_off_c, 1, 47, 0
1, 184124, Note_off_c, 1, 35, 0
1, 184124, Note_off_c, 1, 74, 0
1, 184128, Note_on_c, 1, 76, 127
1, 184128, Note_on_c, 1, 79, 127
1, 184128, Note_on_c, 1, 61, 127
1, 184128, Note_on_c, 1, 45, 127
1, 184128, Note_on_c, 1, 33, 127
1, 184128, Note_on_c, 1, 73, 127
1, 184220, Note_off_c, 1, 73, 0
1, 184224, Note_on_c, 1, 71, 127
1, 184316, Note_off_c, 1, 76, 0
1, 184316, Note_off_c, 1, 79, 0
1, 184316, Note_off_c, 1, 61, 0
1, 184316, Note_off_c, 1, 45, 0
1, 184316, Note_off_c, 1, 33, 0
1, 184316, Note_off_c, 1, 71, 0
1, 184320, Note_on_c, 1, 77, 127
1, 184320, Note_on_c, 1, 62, 127
1, 184320, Note_on_c, 1, 50, 127
1, 184320, Note_on_c, 1, 38, 127
1, 184320, Note_on_c, 1, 69, 127
1, 184384, Note_off_c, 1, 69, 0
1, 184412, Note_off_c, 1, 50, 0
1, 184412, Note_off_c, 1, 38, 0
1, 184416, Note_on_c, 1, 52, 127
1, 184416, Note_on_c, 1, 40, 127
1, 184508, Note_off_c, 1, 77, 0
1, 184508, Note_off_c, 1, 62, 0
1, 184508, Note_off_c, 1, 52, 0
1, 184508, Note_off_c, 1, 40, 0
1, 184512, Note_on_c, 1, 81, 127
1, 184512, Note_on_c, 1, 77, 127
1, 184512, Note_on_c, 1, 69, 127
1, 184512, Note_on_c, 1, 53, 127
1, 184512, Note_on_c, 1, 41, 127
1, 184640, Note_off_c, 1, 53, 0
1, 184640, Note_off_c, 1, 41, 0
1, 184700, Note_off_c, 1, 81, 0
1, 184700, Note_off_c, 1, 77, 0
1, 184704, Note_on_c, 1, 52, 127
1, 184704, Note_on_c, 1, 40, 127
1, 184704, Note_on_c, 1, 67, 127
1, 184768, Note_off_c, 1, 67, 0
1, 184892, Note_off_c, 1, 69, 0
1, 184892, Note_off_c, 1, 52, 0
1, 184892, Note_off_c, 1, 40, 0
1, 184896, Note_on_c, 1, 77, 127
1, 184896, Note_on_c, 1, 86, 127
1, 184896, Note_on_c, 1, 62, 127
1, 184896, Note_on_c, 1, 50, 127
1, 184896, Note_on_c, 1, 38, 127
1, 184896, Note_on_c, 1, 65, 127
1, 184960, Note_off_c, 1, 65, 0
1, 184992, Note_on_c, 1, 69, 127
1, 185056, Note_off_c, 1, 69, 0
1, 185084, Note_off_c, 1, 77, 0
1, 185084, Note_off_c, 1, 86, 0
1, 185084, Note_off_c, 1, 62, 0
1, 185084, Note_off_c, 1, 50, 0
1, 185084, Note_off_c, 1, 38, 0
1, 185088, Note_on_c, 1, 76, 127
1, 185088, Note_on_c, 1, 61, 127
1, 185088, Note_on_c, 1, 57, 127
1, 185088, Note_on_c, 1, 45, 127
1, 185088, Note_on_c, 1, 64, 127
1, 185180, Note_off_c, 1, 57, 0
1, 185180, Note_off_c, 1, 64, 0
1, 185184, Note_on_c, 1, 59, 127
1, 185184, Note_on_c, 1, 47, 127
1, 185184, Note_on_c, 1, 69, 127
1, 185276, Note_off_c, 1, 76, 0
1, 185276, Note_off_c, 1, 61, 0
1, 185276, Note_off_c, 1, 45, 0
1, 185276, Note_off_c, 1, 59, 0
1, 185276, Note_off_c, 1, 47, 0
1, 185276, Note_off_c, 1, 69, 0
1, 185280, Note_on_c, 1, 79, 127
1, 185280, Note_on_c, 1, 69, 127
1, 185280, Note_on_c, 1, 61, 127
1, 185280, Note_on_c, 1, 49, 127
1, 185280, Note_on_c, 1, 67, 127
1, 185280, Note_on_c, 1, 33, 127
1, 185372, Note_off_c, 1, 67, 0
1, 185376, Note_on_c, 1, 65, 127
1, 185408, Note_off_c, 1, 61, 0
1, 185408, Note_off_c, 1, 49, 0
1, 185468, Note_off_c, 1, 79, 0
1, 185468, Note_off_c, 1, 33, 0
1, 185468, Note_off_c, 1, 65, 0
1, 185472, Note_on_c, 1, 76, 127
1, 185472, Note_on_c, 1, 59, 127
1, 185472, Note_on_c, 1, 47, 127
1, 185472, Note_on_c, 1, 64, 127
1, 185564, Note_off_c, 1, 64, 0
1, 185568, Note_on_c, 1, 62, 127
1, 185660, Note_off_c, 1, 69, 0
1, 185660, Note_off_c, 1, 76, 0
1, 185660, Note_off_c, 1, 59, 0
1, 185660, Note_off_c, 1, 47, 0
1, 185660, Note_off_c, 1, 62, 0
1, 185664, Note_on_c, 1, 76, 127
1, 185664, Note_on_c, 1, 79, 127
1, 185664, Note_on_c, 1, 61, 127
1, 185664, Note_on_c, 1, 57, 127
1, 185664, Note_on_c, 1, 45, 127
1, 185760, Note_on_c, 1, 59, 127
1, 185852, Note_off_c, 1, 76, 0
1, 185852, Note_off_c, 1, 79, 0
1, 185852, Note_off_c, 1, 61, 0
1, 185852, Note_off_c, 1, 57, 0
1, 185852, Note_off_c, 1, 45, 0
1, 185852, Note_off_c, 1, 59, 0
1, 185856, Note_on_c, 1, 77, 127
1, 185856, Note_on_c, 1, 62, 127
1, 185856, Note_on_c, 1, 50, 127
1, 185856, Note_on_c, 1, 57, 127
1, 185948, Note_off_c, 1, 57, 0
1, 186044, Note_off_c, 1, 77, 0
1, 186048, Note_on_c, 1, 81, 127
1, 186048, Note_on_c, 1, 64, 127
1, 186048, Note_on_c, 1, 49, 127
1, 186140, Note_off_c, 1, 64, 0
1, 186140, Note_off_c, 1, 49, 0
1, 186144, Note_on_c, 1, 65, 127
1, 186236, Note_off_c, 1, 62, 0
1, 186236, Note_off_c, 1, 50, 0
1, 186236, Note_off_c, 1, 65, 0
1, 186240, Note_on_c, 1, 74, 127
1, 186240, Note_on_c, 1, 67, 127
1, 186240, Note_on_c, 1, 38, 127
1, 186332, Note_off_c, 1, 81, 0
1, 186332, Note_off_c, 1, 67, 0
1, 186428, Note_off_c, 1, 74, 0
1, 186428, Note_off_c, 1, 38, 0
1, 186432, Note_on_c, 1, 81, 127
1, 186432, Note_on_c, 1, 62, 127
1, 186432, Note_on_c, 1, 65, 127
1, 186524, Note_off_c, 1, 65, 0
1, 186528, Note_on_c, 1, 77, 127
1, 186620, Note_off_c, 1, 62, 0
1, 186620, Note_off_c, 1, 77, 0
1, 186624, Note_on_c, 1, 74, 127
1, 186624, Note_on_c, 1, 57, 127
1, 186716, Note_off_c, 1, 81, 0
1, 186716, Note_off_c, 1, 57, 0
1, 186720, Note_on_c, 1, 50, 127
1, 186812, Note_off_c, 1, 74, 0
1, 186812, Note_off_c, 1, 50, 0
1, 186816, Note_on_c, 1, 81, 127
1, 186816, Note_on_c, 1, 82, 127
1, 186816, Note_on_c, 1, 62, 127
1, 186816, Note_on_c, 1, 50, 127
1, 186816, Note_on_c, 1, 64, 127
1, 186816, Note_on_c, 1, 48, 127
1, 186908, Note_off_c, 1, 81, 0
1, 186908, Note_off_c, 1, 64, 0
1, 186908, Note_off_c, 1, 48, 0
1, 186912, Note_on_c, 1, 77, 127
1, 186912, Note_on_c, 1, 65, 127
1, 187004, Note_off_c, 1, 62, 0
1, 187004, Note_off_c, 1, 50, 0
1, 187004, Note_off_c, 1, 77, 0
1, 187004, Note_off_c, 1, 65, 0
1, 187008, Note_on_c, 1, 74, 127
1, 187008, Note_on_c, 1, 58, 127
1, 187008, Note_on_c, 1, 46, 127
1, 187008, Note_on_c, 1, 67, 127
1, 187100, Note_off_c, 1, 67, 0
1, 187104, Note_on_c, 1, 43, 127
1, 187196, Note_off_c, 1, 82, 0
1, 187196, Note_off_c, 1, 74, 0
1, 187196, Note_off_c, 1, 58, 0
1, 187196, Note_off_c, 1, 46, 0
1, 187196, Note_off_c, 1, 43, 0
1, 187200, Note_on_c, 1, 82, 127
1, 187200, Note_on_c, 1, 74, 127
1, 187200, Note_on_c, 1, 62, 127
1, 187200, Note_on_c, 1, 55, 127
1, 187200, Note_on_c, 1, 43, 127
1, 187200, Note_on_c, 1, 65, 127
1, 187200, Note_on_c, 1, 45, 127
1, 187292, Note_off_c, 1, 74, 0
1, 187292, Note_off_c, 1, 65, 0
1, 187292, Note_off_c, 1, 45, 0
1, 187296, Note_on_c, 1, 70, 127
1, 187296, Note_on_c, 1, 46, 127
1, 187388, Note_off_c, 1, 62, 0
1, 187388, Note_off_c, 1, 55, 0
1, 187388, Note_off_c, 1, 43, 0
1, 187388, Note_off_c, 1, 70, 0
1, 187388, Note_off_c, 1, 46, 0
1, 187392, Note_on_c, 1, 64, 127
1, 187392, Note_on_c, 1, 60, 127
1, 187392, Note_on_c, 1, 48, 127
1, 187488, Note_on_c, 1, 69, 127
1, 187488, Note_on_c, 1, 57, 127
1, 187580, Note_off_c, 1, 82, 0
1, 187580, Note_off_c, 1, 64, 0
1, 187580, Note_off_c, 1, 69, 0
1, 187580, Note_off_c, 1, 57, 0
1, 187584, Note_on_c, 1, 76, 127
1, 187584, Note_on_c, 1, 81, 127
1, 187584, Note_on_c, 1, 71, 127
1, 187584, Note_on_c, 1, 56, 127
1, 187676, Note_off_c, 1, 76, 0
1, 187676, Note_off_c, 1, 71, 0
1, 187676, Note_off_c, 1, 56, 0
1, 187680, Note_on_c, 1, 72, 127
1, 187772, Note_off_c, 1, 60, 0
1, 187772, Note_off_c, 1, 48, 0
1, 187772, Note_off_c, 1, 72, 0
1, 187964, Note_off_c, 1, 81, 0
1, 187968, Note_on_c, 1, 81, 127
1, 187968, Note_on_c, 1, 76, 127
1, 187968, Note_on_c, 1, 60, 127
1, 187968, Note_on_c, 1, 72, 127
1, 188060, Note_off_c, 1, 76, 0
1, 188060, Note_off_c, 1, 72, 0
1, 188064, Note_on_c, 1, 69, 127
1, 188108, Note_off_c, 1, 60, 0
1, 188156, Note_off_c, 1, 69, 0
1, 188160, Note_on_c, 1, 64, 127
1, 188252, Note_off_c, 1, 64, 0
1, 188256, Note_on_c, 1, 57, 127
1, 188348, Note_off_c, 1, 81, 0
1, 188348, Note_off_c, 1, 57, 0
1, 188352, Note_on_c, 1, 76, 127
1, 188352, Note_on_c, 1, 81, 127
1, 188352, Note_on_c, 1, 60, 127
1, 188352, Note_on_c, 1, 48, 127
1, 188352, Note_on_c, 1, 36, 127
1, 188352, Note_on_c, 1, 71, 127
1, 188352, Note_on_c, 1, 56, 127
1, 188444, Note_off_c, 1, 76, 0
1, 188444, Note_off_c, 1, 71, 0
1, 188444, Note_off_c, 1, 56, 0
1, 188448, Note_on_c, 1, 72, 127
1, 188448, Note_on_c, 1, 57, 127
1, 188492, Note_off_c, 1, 60, 0
1, 188540, Note_off_c, 1, 48, 0
1, 188540, Note_off_c, 1, 36, 0
1, 188540, Note_off_c, 1, 72, 0
1, 188540, Note_off_c, 1, 57, 0
1, 188544, Note_on_c, 1, 69, 127
1, 188544, Note_on_c, 1, 53, 127
1, 188544, Note_on_c, 1, 41, 127
1, 188544, Note_on_c, 1, 74, 127
1, 188636, Note_off_c, 1, 74, 0
1, 188640, Note_on_c, 1, 50, 127
1, 188732, Note_off_c, 1, 81, 0
1, 188732, Note_off_c, 1, 69, 0
1, 188732, Note_off_c, 1, 53, 0
1, 188732, Note_off_c, 1, 41, 0
1, 188732, Note_off_c, 1, 50, 0
1, 188736, Note_on_c, 1, 81, 127
1, 188736, Note_on_c, 1, 76, 127
1, 188736, Note_on_c, 1, 60, 127
1, 188736, Note_on_c, 1, 57, 127
1, 188736, Note_on_c, 1, 45, 127
1, 188736, Note_on_c, 1, 72, 127
1, 188736, Note_on_c, 1, 52, 127
1, 188828, Note_off_c, 1, 76, 0
1, 188828, Note_off_c, 1, 72, 0
1, 188828, Note_off_c, 1, 52, 0
1, 188832, Note_on_c, 1, 69, 127
1, 188832, Note_on_c, 1, 53, 127
1, 188876, Note_off_c, 1, 60, 0
1, 188924, Note_off_c, 1, 57, 0
1, 188924, Note_off_c, 1, 45, 0
1, 188924, Note_off_c, 1, 69, 0
1, 188924, Note_off_c, 1, 53, 0
1, 188928, Note_on_c, 1, 65, 127
1, 188928, Note_on_c, 1, 58, 127
1, 188928, Note_on_c, 1, 46, 127
1, 188928, Note_on_c, 1, 34, 127
1, 188928, Note_on_c, 1, 62, 127
1, 189020, Note_off_c, 1, 62, 0
1, 189024, Note_on_c, 1, 74, 127
1, 189068, Note_off_c, 1, 58, 0
1, 189116, Note_off_c, 1, 81, 0
1, 189116, Note_off_c, 1, 65, 0
1, 189116, Note_off_c, 1, 74, 0
1, 189120, Note_on_c, 1, 61, 127
1, 189212, Note_off_c, 1, 61, 0
1, 189216, Note_on_c, 1, 77, 127
1, 189308, Note_off_c, 1, 46, 0
1, 189308, Note_off_c, 1, 34, 0
1, 189308, Note_off_c, 1, 77, 0
1, 189312, Note_on_c, 1, 79, 127
1, 189404, Note_off_c, 1, 79, 0
1, 189504, Note_on_c, 1, 81, 127
1, 189504, Note_on_c, 1, 58, 127
1, 189504, Note_on_c, 1, 77, 127
1, 189596, Note_off_c, 1, 77, 0
1, 189600, Note_on_c, 1, 74, 127
1, 189644, Note_off_c, 1, 58, 0
1, 189692, Note_off_c, 1, 74, 0
1, 189696, Note_on_c, 1, 62, 127
1, 189788, Note_off_c, 1, 81, 0
1, 189788, Note_off_c, 1, 62, 0
1, 189888, Note_on_c, 1, 81, 127
1, 189888, Note_on_c, 1, 82, 127
1, 189888, Note_on_c, 1, 58, 127
1, 189888, Note_on_c, 1, 46, 127
1, 189888, Note_on_c, 1, 34, 127
1, 189888, Note_on_c, 1, 76, 127
1, 189888, Note_on_c, 1, 61, 127
1, 189980, Note_off_c, 1, 81, 0
1, 189980, Note_off_c, 1, 76, 0
1, 189980, Note_off_c, 1, 61, 0
1, 189984, Note_on_c, 1, 77, 127
1, 189984, Note_on_c, 1, 62, 127
1, 190028, Note_off_c, 1, 58, 0
1, 190076, Note_off_c, 1, 46, 0
1, 190076, Note_off_c, 1, 34, 0
1, 190076, Note_off_c, 1, 77, 0
1, 190076, Note_off_c, 1, 62, 0
1, 190080, Note_on_c, 1, 74, 127
1, 190080, Note_on_c, 1, 52, 127
1, 190080, Note_on_c, 1, 40, 127
1, 190080, Note_on_c, 1, 79, 127
1, 190172, Note_off_c, 1, 79, 0
1, 190176, Note_on_c, 1, 55, 127
1, 190268, Note_off_c, 1, 82, 0
1, 190268, Note_off_c, 1, 74, 0
1, 190268, Note_off_c, 1, 52, 0
1, 190268, Note_off_c, 1, 40, 0
1, 190268, Note_off_c, 1, 55, 0
1, 190272, Note_on_c, 1, 82, 127
1, 190272, Note_on_c, 1, 74, 127
1, 190272, Note_on_c, 1, 58, 127
1, 190272, Note_on_c, 1, 55, 127
1, 190272, Note_on_c, 1, 43, 127
1, 190272, Note_on_c, 1, 77, 127
1, 190272, Note_on_c, 1, 57, 127
1, 190364, Note_off_c, 1, 74, 0
1, 190364, Note_off_c, 1, 77, 0
1, 190364, Note_off_c, 1, 57, 0
1, 190368, Note_on_c, 1, 70, 127
1, 190460, Note_off_c, 1, 58, 0
1, 190460, Note_off_c, 1, 55, 0
1, 190460, Note_off_c, 1, 43, 0
1, 190460, Note_off_c, 1, 70, 0
1, 190464, Note_on_c, 1, 76, 127
1, 190464, Note_on_c, 1, 45, 127
1, 190464, Note_on_c, 1, 33, 127
1, 190464, Note_on_c, 1, 73, 127
1, 190556, Note_off_c, 1, 73, 0
1, 190560, Note_on_c, 1, 64, 127
1, 190600, Note_off_c, 1, 82, 0
1, 190652, Note_off_c, 1, 76, 0
1, 190652, Note_off_c, 1, 64, 0
1, 190656, Note_on_c, 1, 62, 127
1, 190748, Note_off_c, 1, 62, 0
1, 190752, Note_on_c, 1, 79, 127
1, 190844, Note_off_c, 1, 45, 0
1, 190844, Note_off_c, 1, 33, 0
1, 190844, Note_off_c, 1, 79, 0
1, 190848, Note_on_c, 1, 81, 127
1, 190848, Note_on_c, 1, 61, 127
1, 190940, Note_off_c, 1, 81, 0
1, 191036, Note_off_c, 1, 61, 0
1, 191040, Note_on_c, 1, 79, 127
1, 191040, Note_on_c, 1, 76, 127
1, 191040, Note_on_c, 1, 57, 127
1, 191132, Note_off_c, 1, 76, 0
1, 191136, Note_on_c, 1, 73, 127
1, 191180, Note_off_c, 1, 57, 0
1, 191228, Note_off_c, 1, 73, 0
1, 191232, Note_on_c, 1, 69, 127
1, 191328, Note_on_c, 1, 64, 127
1, 191372, Note_off_c, 1, 69, 0
1, 191420, Note_off_c, 1, 79, 0
1, 191420, Note_off_c, 1, 64, 0
1, 191424, Note_on_c, 1, 76, 127
1, 191424, Note_on_c, 1, 69, 127
1, 191424, Note_on_c, 1, 57, 127
1, 191424, Note_on_c, 1, 52, 127
1, 191424, Note_on_c, 1, 40, 127
1, 191424, Note_on_c, 1, 77, 127
1, 191424, Note_on_c, 1, 62, 127
1, 191516, Note_off_c, 1, 76, 0
1, 191516, Note_off_c, 1, 77, 0
1, 191516, Note_off_c, 1, 62, 0
1, 191520, Note_on_c, 1, 73, 127
1, 191520, Note_on_c, 1, 79, 127
1, 191520, Note_on_c, 1, 64, 127
1, 191564, Note_off_c, 1, 57, 0
1, 191612, Note_off_c, 1, 52, 0
1, 191612, Note_off_c, 1, 40, 0
1, 191612, Note_off_c, 1, 73, 0
1, 191612, Note_off_c, 1, 79, 0
1, 191612, Note_off_c, 1, 64, 0
1, 191616, Note_on_c, 1, 49, 127
1, 191616, Note_on_c, 1, 37, 127
1, 191616, Note_on_c, 1, 81, 127
1, 191616, Note_on_c, 1, 61, 127
1, 191708, Note_off_c, 1, 81, 0
1, 191708, Note_off_c, 1, 61, 0
1, 191804, Note_off_c, 1, 69, 0
1, 191804, Note_off_c, 1, 49, 0
1, 191804, Note_off_c, 1, 37, 0
1, 191808, Note_on_c, 1, 73, 127
1, 191808, Note_on_c, 1, 64, 127
1, 191808, Note_on_c, 1, 57, 127
1, 191808, Note_on_c, 1, 45, 127
1, 191808, Note_on_c, 1, 33, 127
1, 191808, Note_on_c, 1, 79, 127
1, 191900, Note_off_c, 1, 64, 0
1, 191900, Note_off_c, 1, 79, 0
1, 191904, Note_on_c, 1, 61, 127
1, 191904, Note_on_c, 1, 76, 127
1, 191996, Note_off_c, 1, 73, 0
1, 191996, Note_off_c, 1, 57, 0
1, 191996, Note_off_c, 1, 45, 0
1, 191996, Note_off_c, 1, 33, 0
1, 191996, Note_off_c, 1, 61, 0
1, 191996, Note_off_c, 1, 76, 0
1, 192000, Note_on_c, 1, 77, 127
1, 192000, Note_on_c, 1, 62, 127
1, 192000, Note_on_c, 1, 57, 127
1, 192000, Note_on_c, 1, 50, 127
1, 192000, Note_on_c, 1, 38, 127
1, 192096, Note_on_c, 1, 64, 127
1, 192096, Note_on_c, 1, 74, 127
1, 192140, Note_off_c, 1, 50, 0
1, 192140, Note_off_c, 1, 38, 0
1, 192188, Note_off_c, 1, 77, 0
1, 192188, Note_off_c, 1, 62, 0
1, 192188, Note_off_c, 1, 64, 0
1, 192188, Note_off_c, 1, 74, 0
1, 192192, Note_on_c, 1, 65, 127
1, 192288, Note_on_c, 1, 81, 127
1, 192320, Note_off_c, 1, 65, 0
1, 192380, Note_off_c, 1, 57, 0
1, 192380, Note_off_c, 1, 81, 0
1, 192384, Note_on_c, 1, 81, 127
1, 192384, Note_on_c, 1, 64, 127
1, 192384, Note_on_c, 1, 62, 127
1, 192384, Note_on_c, 1, 50, 127
1, 192384, Note_on_c, 1, 38, 127
1, 192384, Note_on_c, 1, 86, 127
1, 192476, Note_off_c, 1, 86, 0
1, 192480, Note_on_c, 1, 74, 127
1, 192524, Note_off_c, 1, 38, 0
1, 192572, Note_off_c, 1, 81, 0
1, 192572, Note_off_c, 1, 64, 0
1, 192572, Note_off_c, 1, 50, 0
1, 192572, Note_off_c, 1, 74, 0
1, 192576, Note_on_c, 1, 77, 127
1, 192668, Note_off_c, 1, 77, 0
1, 192764, Note_off_c, 1, 62, 0
1, 192768, Note_on_c, 1, 78, 127
1, 192768, Note_on_c, 1, 69, 127
1, 192768, Note_on_c, 1, 48, 127
1, 192768, Note_on_c, 1, 36, 127
1, 192768, Note_on_c, 1, 86, 127
1, 192768, Note_on_c, 1, 60, 127
1, 192860, Note_off_c, 1, 86, 0
1, 192864, Note_on_c, 1, 74, 127
1, 192908, Note_off_c, 1, 48, 0
1, 192908, Note_off_c, 1, 36, 0
1, 192956, Note_off_c, 1, 78, 0
1, 192956, Note_off_c, 1, 69, 0
1, 192956, Note_off_c, 1, 60, 0
1, 192956, Note_off_c, 1, 74, 0
1, 192960, Note_on_c, 1, 74, 127
1, 192960, Note_on_c, 1, 48, 127
1, 192960, Note_on_c, 1, 36, 127
1, 192960, Note_on_c, 1, 78, 127
1, 193052, Note_off_c, 1, 78, 0
1, 193056, Note_on_c, 1, 81, 127
1, 193100, Note_off_c, 1, 48, 0
1, 193100, Note_off_c, 1, 36, 0
1, 193148, Note_off_c, 1, 81, 0
1, 193152, Note_on_c, 1, 60, 127
1, 193152, Note_on_c, 1, 86, 127
1, 193244, Note_off_c, 1, 86, 0
1, 193340, Note_off_c, 1, 74, 0
1, 193344, Note_on_c, 1, 66, 127
1, 193532, Note_off_c, 1, 60, 0
1, 193532, Note_off_c, 1, 66, 0
1, 193536, Note_on_c, 1, 67, 127
1, 193536, Note_on_c, 1, 46, 127
1, 193536, Note_on_c, 1, 34, 127
1, 193536, Note_on_c, 1, 86, 127
1, 193536, Note_on_c, 1, 58, 127
1, 193628, Note_off_c, 1, 86, 0
1, 193632, Note_on_c, 1, 69, 127
1, 193632, Note_on_c, 1, 74, 127
1, 193676, Note_off_c, 1, 46, 0
1, 193676, Note_off_c, 1, 34, 0
1, 193724, Note_off_c, 1, 67, 0
1, 193724, Note_off_c, 1, 58, 0
1, 193724, Note_off_c, 1, 69, 0
1, 193724, Note_off_c, 1, 74, 0
1, 193728, Note_on_c, 1, 70, 127
1, 193728, Note_on_c, 1, 46, 127
1, 193728, Note_on_c, 1, 34, 127
1, 193728, Note_on_c, 1, 79, 127
1, 193820, Note_off_c, 1, 79, 0
1, 193824, Note_on_c, 1, 82, 127
1, 193856, Note_off_c, 1, 70, 0
1, 193868, Note_off_c, 1, 46, 0
1, 193868, Note_off_c, 1, 34, 0
1, 193916, Note_off_c, 1, 82, 0
1, 193920, Note_on_c, 1, 69, 127
1, 193920, Note_on_c, 1, 70, 127
1, 193920, Note_on_c, 1, 58, 127
1, 193920, Note_on_c, 1, 46, 127
1, 193920, Note_on_c, 1, 34, 127
1, 193920, Note_on_c, 1, 86, 127
1, 194012, Note_off_c, 1, 86, 0
1, 194016, Note_on_c, 1, 74, 127
1, 194060, Note_off_c, 1, 34, 0
1, 194108, Note_off_c, 1, 69, 0
1, 194108, Note_off_c, 1, 70, 0
1, 194108, Note_off_c, 1, 46, 0
1, 194108, Note_off_c, 1, 74, 0
1, 194112, Note_on_c, 1, 67, 127
1, 194112, Note_on_c, 1, 79, 127
1, 194204, Note_off_c, 1, 79, 0
1, 194208, Note_on_c, 1, 82, 127
1, 194300, Note_off_c, 1, 58, 0
1, 194300, Note_off_c, 1, 67, 0
1, 194300, Note_off_c, 1, 82, 0
1, 194304, Note_on_c, 1, 74, 127
1, 194304, Note_on_c, 1, 67, 127
1, 194304, Note_on_c, 1, 47, 127
1, 194304, Note_on_c, 1, 35, 127
1, 194304, Note_on_c, 1, 86, 127
1, 194304, Note_on_c, 1, 59, 127
1, 194396, Note_off_c, 1, 86, 0
1, 194444, Note_off_c, 1, 47, 0
1, 194444, Note_off_c, 1, 35, 0
1, 194492, Note_off_c, 1, 74, 0
1, 194492, Note_off_c, 1, 67, 0
1, 194492, Note_off_c, 1, 59, 0
1, 194496, Note_on_c, 1, 79, 127
1, 194496, Note_on_c, 1, 47, 127
1, 194496, Note_on_c, 1, 35, 127
1, 194496, Note_on_c, 1, 77, 127
1, 194588, Note_off_c, 1, 77, 0
1, 194592, Note_on_c, 1, 83, 127
1, 194636, Note_off_c, 1, 47, 0
1, 194636, Note_off_c, 1, 35, 0
1, 194684, Note_off_c, 1, 83, 0
1, 194688, Note_on_c, 1, 62, 127
1, 194688, Note_on_c, 1, 59, 127
1, 194688, Note_on_c, 1, 86, 127
1, 194780, Note_off_c, 1, 86, 0
1, 194876, Note_off_c, 1, 79, 0
1, 194876, Note_off_c, 1, 62, 0
1, 194880, Note_on_c, 1, 74, 127
1, 195068, Note_off_c, 1, 59, 0
1, 195068, Note_off_c, 1, 74, 0
1, 195072, Note_on_c, 1, 67, 127
1, 195072, Note_on_c, 1, 60, 127
1, 195072, Note_on_c, 1, 48, 127
1, 195072, Note_on_c, 1, 36, 127
1, 195072, Note_on_c, 1, 75, 127
1, 195164, Note_off_c, 1, 75, 0
1, 195168, Note_on_c, 1, 62, 127
1, 195168, Note_on_c, 1, 72, 127
1, 195212, Note_off_c, 1, 48, 0
1, 195212, Note_off_c, 1, 36, 0
1, 195260, Note_off_c, 1, 67, 0
1, 195260, Note_off_c, 1, 60, 0
1, 195260, Note_off_c, 1, 62, 0
1, 195260, Note_off_c, 1, 72, 0
1, 195264, Note_on_c, 1, 63, 127
1, 195264, Note_on_c, 1, 48, 127
1, 195264, Note_on_c, 1, 36, 127
1, 195264, Note_on_c, 1, 75, 127
1, 195356, Note_off_c, 1, 75, 0
1, 195360, Note_on_c, 1, 79, 127
1, 195392, Note_off_c, 1, 63, 0
1, 195404, Note_off_c, 1, 48, 0
1, 195404, Note_off_c, 1, 36, 0
1, 195452, Note_off_c, 1, 79, 0
1, 195456, Note_on_c, 1, 79, 127
1, 195456, Note_on_c, 1, 62, 127
1, 195456, Note_on_c, 1, 60, 127
1, 195456, Note_on_c, 1, 48, 127
1, 195456, Note_on_c, 1, 36, 127
1, 195456, Note_on_c, 1, 84, 127
1, 195548, Note_off_c, 1, 84, 0
1, 195552, Note_on_c, 1, 72, 127
1, 195596, Note_off_c, 1, 36, 0
1, 195644, Note_off_c, 1, 79, 0
1, 195644, Note_off_c, 1, 62, 0
1, 195644, Note_off_c, 1, 48, 0
1, 195644, Note_off_c, 1, 72, 0
1, 195648, Note_on_c, 1, 75, 127
1, 195740, Note_off_c, 1, 75, 0
1, 195836, Note_off_c, 1, 60, 0
1, 195840, Note_on_c, 1, 76, 127
1, 195840, Note_on_c, 1, 67, 127
1, 195840, Note_on_c, 1, 46, 127
1, 195840, Note_on_c, 1, 34, 127
1, 195840, Note_on_c, 1, 84, 127
1, 195840, Note_on_c, 1, 58, 127
1, 195932, Note_off_c, 1, 84, 0
1, 195936, Note_on_c, 1, 72, 127
1, 195980, Note_off_c, 1, 46, 0
1, 195980, Note_off_c, 1, 34, 0
1, 196028, Note_off_c, 1, 76, 0
1, 196028, Note_off_c, 1, 67, 0
1, 196028, Note_off_c, 1, 58, 0
1, 196028, Note_off_c, 1, 72, 0
1, 196032, Note_on_c, 1, 72, 127
1, 196032, Note_on_c, 1, 46, 127
1, 196032, Note_on_c, 1, 34, 127
1, 196032, Note_on_c, 1, 76, 127
1, 196124, Note_off_c, 1, 76, 0
1, 196128, Note_on_c, 1, 79, 127
1, 196172, Note_off_c, 1, 46, 0
1, 196172, Note_off_c, 1, 34, 0
1, 196220, Note_off_c, 1, 79, 0
1, 196224, Note_on_c, 1, 58, 127
1, 196224, Note_on_c, 1, 84, 127
1, 196316, Note_off_c, 1, 84, 0
1, 196412, Note_off_c, 1, 72, 0
1, 196416, Note_on_c, 1, 67, 127
1, 196604, Note_off_c, 1, 58, 0
1, 196604, Note_off_c, 1, 67, 0
1, 196608, Note_on_c, 1, 65, 127
1, 196608, Note_on_c, 1, 45, 127
1, 196608, Note_on_c, 1, 33, 127
1, 196608, Note_on_c, 1, 84, 127
1, 196608, Note_on_c, 1, 57, 127
1, 196700, Note_off_c, 1, 84, 0
1, 196704, Note_on_c, 1, 67, 127
1, 196704, Note_on_c, 1, 72, 127
1, 196748, Note_off_c, 1, 45, 0
1, 196748, Note_off_c, 1, 33, 0
1, 196796, Note_off_c, 1, 65, 0
1, 196796, Note_off_c, 1, 57, 0
1, 196796, Note_off_c, 1, 67, 0
1, 196796, Note_off_c, 1, 72, 0
1, 196800, Note_on_c, 1, 69, 127
1, 196800, Note_on_c, 1, 45, 127
1, 196800, Note_on_c, 1, 33, 127
1, 196800, Note_on_c, 1, 77, 127
1, 196892, Note_off_c, 1, 77, 0
1, 196896, Note_on_c, 1, 81, 127
1, 196928, Note_off_c, 1, 69, 0
1, 196940, Note_off_c, 1, 45, 0
1, 196940, Note_off_c, 1, 33, 0
1, 196988, Note_off_c, 1, 81, 0
1, 196992, Note_on_c, 1, 67, 127
1, 196992, Note_on_c, 1, 69, 127
1, 196992, Note_on_c, 1, 57, 127
1, 196992, Note_on_c, 1, 45, 127
1, 196992, Note_on_c, 1, 33, 127
1, 196992, Note_on_c, 1, 84, 127
1, 197084, Note_off_c, 1, 84, 0
1, 197088, Note_on_c, 1, 72, 127
1, 197132, Note_off_c, 1, 33, 0
1, 197180, Note_off_c, 1, 67, 0
1, 197180, Note_off_c, 1, 69, 0
1, 197180, Note_off_c, 1, 45, 0
1, 197180, Note_off_c, 1, 72, 0
1, 197184, Note_on_c, 1, 65, 127
1, 197184, Note_on_c, 1, 77, 127
1, 197276, Note_off_c, 1, 77, 0
1, 197280, Note_on_c, 1, 81, 127
1, 197372, Note_off_c, 1, 57, 0
1, 197372, Note_off_c, 1, 65, 0
1, 197372, Note_off_c, 1, 81, 0
1, 197376, Note_on_c, 1, 72, 127
1, 197376, Note_on_c, 1, 65, 127
1, 197376, Note_on_c, 1, 45, 127
1, 197376, Note_on_c, 1, 33, 127
1, 197376, Note_on_c, 1, 84, 127
1, 197376, Note_on_c, 1, 57, 127
1, 197468, Note_off_c, 1, 84, 0
1, 197516, Note_off_c, 1, 45, 0
1, 197516, Note_off_c, 1, 33, 0
1, 197564, Note_off_c, 1, 72, 0
1, 197564, Note_off_c, 1, 65, 0
1, 197564, Note_off_c, 1, 57, 0
1, 197568, Note_on_c, 1, 77, 127
1, 197568, Note_on_c, 1, 45, 127
1, 197568, Note_on_c, 1, 33, 127
1, 197568, Note_on_c, 1, 75, 127
1, 197660, Note_off_c, 1, 75, 0
1, 197664, Note_on_c, 1, 81, 127
1, 197708, Note_off_c, 1, 45, 0
1, 197708, Note_off_c, 1, 33, 0
1, 197756, Note_off_c, 1, 81, 0
1, 197760, Note_on_c, 1, 60, 127
1, 197760, Note_on_c, 1, 57, 127
1, 197760, Note_on_c, 1, 84, 127
1, 197852, Note_off_c, 1, 84, 0
1, 197948, Note_off_c, 1, 77, 0
1, 197948, Note_off_c, 1, 60, 0
1, 197952, Note_on_c, 1, 72, 127
1, 198140, Note_off_c, 1, 57, 0
1, 198140, Note_off_c, 1, 72, 0
1, 198144, Note_on_c, 1, 65, 127
1, 198144, Note_on_c, 1, 58, 127
1, 198144, Note_on_c, 1, 46, 127
1, 198144, Note_on_c, 1, 34, 127
1, 198144, Note_on_c, 1, 74, 127
1, 198236, Note_off_c, 1, 74, 0
1, 198240, Note_on_c, 1, 60, 127
1, 198240, Note_on_c, 1, 70, 127
1, 198284, Note_off_c, 1, 46, 0
1, 198284, Note_off_c, 1, 34, 0
1, 198332, Note_off_c, 1, 65, 0
1, 198332, Note_off_c, 1, 58, 0
1, 198332, Note_off_c, 1, 60, 0
1, 198332, Note_off_c, 1, 70, 0
1, 198336, Note_on_c, 1, 62, 127
1, 198336, Note_on_c, 1, 46, 127
1, 198336, Note_on_c, 1, 34, 127
1, 198336, Note_on_c, 1, 74, 127
1, 198428, Note_off_c, 1, 74, 0
1, 198432, Note_on_c, 1, 77, 127
1, 198464, Note_off_c, 1, 62, 0
1, 198476, Note_off_c, 1, 46, 0
1, 198476, Note_off_c, 1, 34, 0
1, 198524, Note_off_c, 1, 77, 0
1, 198528, Note_on_c, 1, 77, 127
1, 198528, Note_on_c, 1, 60, 127
1, 198528, Note_on_c, 1, 58, 127
1, 198528, Note_on_c, 1, 46, 127
1, 198528, Note_on_c, 1, 34, 127
1, 198528, Note_on_c, 1, 82, 127
1, 198620, Note_off_c, 1, 82, 0
1, 198624, Note_on_c, 1, 70, 127
1, 198668, Note_off_c, 1, 34, 0
1, 198716, Note_off_c, 1, 77, 0
1, 198716, Note_off_c, 1, 60, 0
1, 198716, Note_off_c, 1, 46, 0
1, 198716, Note_off_c, 1, 70, 0
1, 198720, Note_on_c, 1, 74, 127
1, 198812, Note_off_c, 1, 74, 0
1, 198908, Note_off_c, 1, 58, 0
1, 198912, Note_on_c, 1, 74, 127
1, 198912, Note_on_c, 1, 65, 127
1, 198912, Note_on_c, 1, 44, 127
1, 198912, Note_on_c, 1, 32, 127
1, 198912, Note_on_c, 1, 82, 127
1, 198912, Note_on_c, 1, 56, 127
1, 199004, Note_off_c, 1, 82, 0
1, 199008, Note_on_c, 1, 70, 127
1, 199052, Note_off_c, 1, 44, 0
1, 199052, Note_off_c, 1, 32, 0
1, 199100, Note_off_c, 1, 74, 0
1, 199100, Note_off_c, 1, 65, 0
1, 199100, Note_off_c, 1, 56, 0
1, 199100, Note_off_c, 1, 70, 0
1, 199104, Note_on_c, 1, 70, 127
1, 199104, Note_on_c, 1, 44, 127
1, 199104, Note_on_c, 1, 32, 127
1, 199104, Note_on_c, 1, 74, 127
1, 199196, Note_off_c, 1, 74, 0
1, 199200, Note_on_c, 1, 77, 127
1, 199244, Note_off_c, 1, 44, 0
1, 199244, Note_off_c, 1, 32, 0
1, 199292, Note_off_c, 1, 77, 0
1, 199296, Note_on_c, 1, 56, 127
1, 199296, Note_on_c, 1, 82, 127
1, 199388, Note_off_c, 1, 82, 0
1, 199484, Note_off_c, 1, 70, 0
1, 199488, Note_on_c, 1, 65, 127
1, 199676, Note_off_c, 1, 56, 0
1, 199676, Note_off_c, 1, 65, 0
1, 199680, Note_on_c, 1, 63, 127
1, 199680, Note_on_c, 1, 43, 127
1, 199680, Note_on_c, 1, 31, 127
1, 199680, Note_on_c, 1, 82, 127
1, 199680, Note_on_c, 1, 55, 127
1, 199772, Note_off_c, 1, 82, 0
1, 199776, Note_on_c, 1, 65, 127
1, 199776, Note_on_c, 1, 70, 127
1, 199820, Note_off_c, 1, 43, 0
1, 199820, Note_off_c, 1, 31, 0
1, 199868, Note_off_c, 1, 63, 0
1, 199868, Note_off_c, 1, 55, 0
1, 199868, Note_off_c, 1, 65, 0
1, 199868, Note_off_c, 1, 70, 0
1, 199872, Note_on_c, 1, 67, 127
1, 199872, Note_on_c, 1, 43, 127
1, 199872, Note_on_c, 1, 31, 127
1, 199872, Note_on_c, 1, 75, 127
1, 199964, Note_off_c, 1, 75, 0
1, 199968, Note_on_c, 1, 79, 127
1, 200000, Note_off_c, 1, 67, 0
1, 200012, Note_off_c, 1, 43, 0
1, 200012, Note_off_c, 1, 31, 0
1, 200060, Note_off_c, 1, 79, 0
1, 200064, Note_on_c, 1, 65, 127
1, 200064, Note_on_c, 1, 67, 127
1, 200064, Note_on_c, 1, 55, 127
1, 200064, Note_on_c, 1, 43, 127
1, 200064, Note_on_c, 1, 31, 127
1, 200064, Note_on_c, 1, 82, 127
1, 200156, Note_off_c, 1, 82, 0
1, 200160, Note_on_c, 1, 70, 127
1, 200204, Note_off_c, 1, 31, 0
1, 200252, Note_off_c, 1, 65, 0
1, 200252, Note_off_c, 1, 67, 0
1, 200252, Note_off_c, 1, 43, 0
1, 200252, Note_off_c, 1, 70, 0
1, 200256, Note_on_c, 1, 63, 127
1, 200256, Note_on_c, 1, 75, 127
1, 200348, Note_off_c, 1, 75, 0
1, 200352, Note_on_c, 1, 79, 127
1, 200444, Note_off_c, 1, 55, 0
1, 200444, Note_off_c, 1, 63, 0
1, 200444, Note_off_c, 1, 79, 0
1, 200448, Note_on_c, 1, 70, 127
1, 200448, Note_on_c, 1, 63, 127
1, 200448, Note_on_c, 1, 43, 127
1, 200448, Note_on_c, 1, 31, 127
1, 200448, Note_on_c, 1, 82, 127
1, 200448, Note_on_c, 1, 55, 127
1, 200540, Note_off_c, 1, 82, 0
1, 200588, Note_off_c, 1, 43, 0
1, 200588, Note_off_c, 1, 31, 0
1, 200636, Note_off_c, 1, 70, 0
1, 200636, Note_off_c, 1, 63, 0
1, 200636, Note_off_c, 1, 55, 0
1, 200640, Note_on_c, 1, 75, 127
1, 200640, Note_on_c, 1, 43, 127
1, 200640, Note_on_c, 1, 31, 127
1, 200736, Note_on_c, 1, 79, 127
1, 200780, Note_off_c, 1, 43, 0
1, 200780, Note_off_c, 1, 31, 0
1, 200828, Note_off_c, 1, 79, 0
1, 200832, Note_on_c, 1, 67, 127
1, 200832, Note_on_c, 1, 55, 127
1, 200832, Note_on_c, 1, 82, 127
1, 200924, Note_off_c, 1, 82, 0
1, 201020, Note_off_c, 1, 75, 0
1, 201020, Note_off_c, 1, 67, 0
1, 201024, Note_on_c, 1, 70, 127
1, 201212, Note_off_c, 1, 55, 0
1, 201212, Note_off_c, 1, 70, 0
1, 201216, Note_on_c, 1, 69, 127
1, 201216, Note_on_c, 1, 64, 127
1, 201216, Note_on_c, 1, 57, 127
1, 201216, Note_on_c, 1, 43, 127
1, 201216, Note_on_c, 1, 31, 127
1, 201216, Note_on_c, 1, 73, 127
1, 201216, Note_on_c, 1, 55, 127
1, 201308, Note_off_c, 1, 73, 0
1, 201308, Note_off_c, 1, 55, 0
1, 201312, Note_on_c, 1, 67, 127
1, 201404, Note_off_c, 1, 69, 0
1, 201404, Note_off_c, 1, 64, 0
1, 201404, Note_off_c, 1, 57, 0
1, 201404, Note_off_c, 1, 67, 0
1, 201408, Note_on_c, 1, 76, 127
1, 201504, Note_on_c, 1, 61, 127
1, 201596, Note_off_c, 1, 43, 0
1, 201596, Note_off_c, 1, 31, 0
1, 201596, Note_off_c, 1, 61, 0
1, 201600, Note_on_c, 1, 81, 127
1, 201692, Note_off_c, 1, 81, 0
1, 201788, Note_off_c, 1, 76, 0
1, 201792, Note_on_c, 1, 73, 127
1, 201792, Note_on_c, 1, 69, 127
1, 201792, Note_on_c, 1, 61, 127
1, 201884, Note_off_c, 1, 61, 0
1, 201888, Note_on_c, 1, 76, 127
1, 201888, Note_on_c, 1, 57, 127
1, 201920, Note_off_c, 1, 73, 0
1, 201980, Note_off_c, 1, 76, 0
1, 201980, Note_off_c, 1, 57, 0
1, 201984, Note_on_c, 1, 74, 127
1, 201984, Note_on_c, 1, 65, 127
1, 201984, Note_on_c, 1, 41, 127
1, 201984, Note_on_c, 1, 29, 127
1, 201984, Note_on_c, 1, 81, 127
1, 201984, Note_on_c, 1, 53, 127
1, 202076, Note_off_c, 1, 81, 0
1, 202112, Note_off_c, 1, 74, 0
1, 202172, Note_off_c, 1, 69, 0
1, 202172, Note_off_c, 1, 65, 0
1, 202172, Note_off_c, 1, 53, 0
1, 202272, Note_on_c, 1, 77, 127
1, 202364, Note_off_c, 1, 41, 0
1, 202364, Note_off_c, 1, 29, 0
1, 202364, Note_off_c, 1, 77, 0
1, 202560, Note_on_c, 1, 77, 127
1, 202560, Note_on_c, 1, 62, 127
1, 202560, Note_on_c, 1, 74, 127
1, 202652, Note_off_c, 1, 74, 0
1, 202748, Note_off_c, 1, 77, 0
1, 202752, Note_on_c, 1, 67, 127
1, 202752, Note_on_c, 1, 71, 127
1, 202752, Note_on_c, 1, 41, 127
1, 202752, Note_on_c, 1, 29, 127
1, 202848, Note_on_c, 1, 65, 127
1, 202940, Note_off_c, 1, 62, 0
1, 202940, Note_off_c, 1, 67, 0
1, 202940, Note_off_c, 1, 71, 0
1, 202940, Note_off_c, 1, 65, 0
1, 203040, Note_on_c, 1, 59, 127
1, 203132, Note_off_c, 1, 41, 0
1, 203132, Note_off_c, 1, 29, 0
1, 203132, Note_off_c, 1, 59, 0
1, 203136, Note_on_c, 1, 79, 127
1, 203136, Note_on_c, 1, 55, 127
1, 203228, Note_off_c, 1, 79, 0
1, 203228, Note_off_c, 1, 55, 0
1, 203328, Note_on_c, 1, 71, 127
1, 203328, Note_on_c, 1, 67, 127
1, 203328, Note_on_c, 1, 59, 127
1, 203420, Note_off_c, 1, 59, 0
1, 203424, Note_on_c, 1, 74, 127
1, 203424, Note_on_c, 1, 55, 127
1, 203456, Note_off_c, 1, 71, 0
1, 203516, Note_off_c, 1, 74, 0
1, 203516, Note_off_c, 1, 55, 0
1, 203520, Note_on_c, 1, 72, 127
1, 203520, Note_on_c, 1, 63, 127
1, 203520, Note_on_c, 1, 39, 127
1, 203520, Note_on_c, 1, 27, 127
1, 203520, Note_on_c, 1, 79, 127
1, 203520, Note_on_c, 1, 51, 127
1, 203612, Note_off_c, 1, 79, 0
1, 203648, Note_off_c, 1, 72, 0
1, 203708, Note_off_c, 1, 67, 0
1, 203708, Note_off_c, 1, 63, 0
1, 203708, Note_off_c, 1, 51, 0
1, 203808, Note_on_c, 1, 75, 127
1, 203900, Note_off_c, 1, 39, 0
1, 203900, Note_off_c, 1, 27, 0
1, 203900, Note_off_c, 1, 75, 0
1, 204096, Note_on_c, 1, 75, 127
1, 204096, Note_on_c, 1, 60, 127
1, 204096, Note_on_c, 1, 72, 127
1, 204188, Note_off_c, 1, 72, 0
1, 204284, Note_off_c, 1, 75, 0
1, 204288, Note_on_c, 1, 65, 127
1, 204288, Note_on_c, 1, 69, 127
1, 204288, Note_on_c, 1, 39, 127
1, 204288, Note_on_c, 1, 27, 127
1, 204384, Note_on_c, 1, 63, 127
1, 204476, Note_off_c, 1, 60, 0
1, 204476, Note_off_c, 1, 65, 0
1, 204476, Note_off_c, 1, 69, 0
1, 204476, Note_off_c, 1, 63, 0
1, 204576, Note_on_c, 1, 57, 127
1, 204668, Note_off_c, 1, 39, 0
1, 204668, Note_off_c, 1, 27, 0
1, 204668, Note_off_c, 1, 57, 0
1, 204672, Note_on_c, 1, 77, 127
1, 204672, Note_on_c, 1, 53, 127
1, 204764, Note_off_c, 1, 77, 0
1, 204764, Note_off_c, 1, 53, 0
1, 204864, Note_on_c, 1, 69, 127
1, 204864, Note_on_c, 1, 65, 127
1, 204864, Note_on_c, 1, 57, 127
1, 204956, Note_off_c, 1, 57, 0
1, 204960, Note_on_c, 1, 72, 127
1, 204960, Note_on_c, 1, 53, 127
1, 204992, Note_off_c, 1, 69, 0
1, 205052, Note_off_c, 1, 72, 0
1, 205052, Note_off_c, 1, 53, 0
1, 205056, Note_on_c, 1, 70, 127
1, 205056, Note_on_c, 1, 62, 127
1, 205056, Note_on_c, 1, 38, 127
1, 205056, Note_on_c, 1, 26, 127
1, 205056, Note_on_c, 1, 77, 127
1, 205056, Note_on_c, 1, 50, 127
1, 205148, Note_off_c, 1, 77, 0
1, 205184, Note_off_c, 1, 70, 0
1, 205244, Note_off_c, 1, 65, 0
1, 205244, Note_off_c, 1, 62, 0
1, 205244, Note_off_c, 1, 50, 0
1, 205344, Note_on_c, 1, 74, 127
1, 205436, Note_off_c, 1, 38, 0
1, 205436, Note_off_c, 1, 26, 0
1, 205436, Note_off_c, 1, 74, 0
1, 205632, Note_on_c, 1, 58, 127
1, 205824, Note_on_c, 1, 75, 127
1, 205824, Note_on_c, 1, 67, 127
1, 205920, Note_on_c, 1, 63, 127
1, 205920, Note_on_c, 1, 55, 127
1, 206012, Note_off_c, 1, 58, 0
1, 206012, Note_off_c, 1, 67, 0
1, 206012, Note_off_c, 1, 63, 0
1, 206012, Note_off_c, 1, 55, 0
1, 206208, Note_on_c, 1, 48, 127
1, 206208, Note_on_c, 1, 36, 127
1, 206304, Note_on_c, 1, 60, 127
1, 206396, Note_off_c, 1, 60, 0
1, 206588, Note_off_c, 1, 75, 0
1, 206972, Note_off_c, 1, 48, 0
1, 206972, Note_off_c, 1, 36, 0
1, 206976, Note_on_c, 1, 46, 127
1, 206976, Note_on_c, 1, 34, 127
1, 207456, Note_on_c, 1, 51, 127
1, 207548, Note_off_c, 1, 51, 0
1, 207740, Note_off_c, 1, 46, 0
1, 207740, Note_off_c, 1, 34, 0
1, 207744, Note_on_c, 1, 45, 127
1, 207744, Note_on_c, 1, 33, 127
1, 208124, Note_off_c, 1, 45, 0
1, 208124, Note_off_c, 1, 33, 0
1, 208128, Note_on_c, 1, 70, 127
1, 208128, Note_on_c, 1, 50, 127
1, 208128, Note_on_c, 1, 46, 127
1, 208128, Note_on_c, 1, 34, 127
1, 208128, Note_on_c, 1, 62, 127
1, 208220, Note_off_c, 1, 62, 0
1, 208224, Note_on_c, 1, 58, 127
1, 208316, Note_off_c, 1, 58, 0
1, 208320, Note_on_c, 1, 60, 127
1, 208320, Note_on_c, 1, 51, 127
1, 208412, Note_off_c, 1, 60, 0
1, 208412, Note_off_c, 1, 51, 0
1, 208416, Note_on_c, 1, 53, 127
1, 208508, Note_off_c, 1, 70, 0
1, 208508, Note_off_c, 1, 50, 0
1, 208508, Note_off_c, 1, 46, 0
1, 208508, Note_off_c, 1, 34, 0
1, 208508, Note_off_c, 1, 53, 0
1, 208512, Note_on_c, 1, 63, 127
1, 208512, Note_on_c, 1, 55, 127
1, 208604, Note_off_c, 1, 63, 0
1, 208604, Note_off_c, 1, 55, 0
1, 208608, Note_on_c, 1, 65, 127
1, 208608, Note_on_c, 1, 57, 127
1, 208700, Note_off_c, 1, 65, 0
1, 208700, Note_off_c, 1, 57, 0
1, 208704, Note_on_c, 1, 72, 127
1, 208704, Note_on_c, 1, 65, 127
1, 208704, Note_on_c, 1, 60, 127
1, 208704, Note_on_c, 1, 45, 127
1, 208704, Note_on_c, 1, 33, 127
1, 208704, Note_on_c, 1, 67, 127
1, 208704, Note_on_c, 1, 58, 127
1, 208796, Note_off_c, 1, 67, 0
1, 208796, Note_off_c, 1, 58, 0
1, 208800, Note_on_c, 1, 69, 127
1, 208800, Note_on_c, 1, 57, 127
1, 208892, Note_off_c, 1, 72, 0
1, 208892, Note_off_c, 1, 65, 0
1, 208892, Note_off_c, 1, 60, 0
1, 208892, Note_off_c, 1, 45, 0
1, 208892, Note_off_c, 1, 33, 0
1, 208892, Note_off_c, 1, 69, 0
1, 208892, Note_off_c, 1, 57, 0
1, 208896, Note_on_c, 1, 74, 127
1, 208896, Note_on_c, 1, 62, 127
1, 208896, Note_on_c, 1, 67, 127
1, 208896, Note_on_c, 1, 43, 127
1, 208896, Note_on_c, 1, 31, 127
1, 208896, Note_on_c, 1, 70, 127
1, 208896, Note_on_c, 1, 55, 127
1, 208988, Note_off_c, 1, 74, 0
1, 208988, Note_off_c, 1, 62, 0
1, 208988, Note_off_c, 1, 70, 0
1, 208988, Note_off_c, 1, 55, 0
1, 208992, Note_on_c, 1, 65, 127
1, 208992, Note_on_c, 1, 57, 127
1, 209084, Note_off_c, 1, 65, 0
1, 209084, Note_off_c, 1, 57, 0
1, 209088, Note_on_c, 1, 58, 127
1, 209180, Note_off_c, 1, 58, 0
1, 209184, Note_on_c, 1, 69, 127
1, 209184, Note_on_c, 1, 60, 127
1, 209276, Note_off_c, 1, 67, 0
1, 209276, Note_off_c, 1, 43, 0
1, 209276, Note_off_c, 1, 31, 0
1, 209276, Note_off_c, 1, 69, 0
1, 209276, Note_off_c, 1, 60, 0
1, 209280, Note_on_c, 1, 70, 127
1, 209280, Note_on_c, 1, 62, 127
1, 209372, Note_off_c, 1, 70, 0
1, 209372, Note_off_c, 1, 62, 0
1, 209376, Note_on_c, 1, 72, 127
1, 209376, Note_on_c, 1, 63, 127
1, 209468, Note_off_c, 1, 72, 0
1, 209468, Note_off_c, 1, 63, 0
1, 209472, Note_on_c, 1, 74, 127
1, 209472, Note_on_c, 1, 58, 127
1, 209472, Note_on_c, 1, 41, 127
1, 209472, Note_on_c, 1, 29, 127
1, 209472, Note_on_c, 1, 65, 127
1, 209564, Note_off_c, 1, 74, 0
1, 209564, Note_off_c, 1, 58, 0
1, 209564, Note_off_c, 1, 41, 0
1, 209564, Note_off_c, 1, 29, 0
1, 209564, Note_off_c, 1, 65, 0
1, 209568, Note_on_c, 1, 75, 127
1, 209568, Note_on_c, 1, 60, 127
1, 209568, Note_on_c, 1, 39, 127
1, 209568, Note_on_c, 1, 27, 127
1, 209568, Note_on_c, 1, 63, 127
1, 209660, Note_off_c, 1, 75, 0
1, 209660, Note_off_c, 1, 60, 0
1, 209660, Note_off_c, 1, 39, 0
1, 209660, Note_off_c, 1, 27, 0
1, 209660, Note_off_c, 1, 63, 0
1, 209664, Note_on_c, 1, 77, 127
1, 209664, Note_on_c, 1, 62, 127
1, 209664, Note_on_c, 1, 38, 127
1, 209664, Note_on_c, 1, 26, 127
1, 209852, Note_off_c, 1, 77, 0
1, 209852, Note_off_c, 1, 62, 0
1, 209852, Note_off_c, 1, 38, 0
1, 209852, Note_off_c, 1, 26, 0
1, 209856, Note_on_c, 1, 70, 127
1, 209856, Note_on_c, 1, 67, 127
1, 209856, Note_on_c, 1, 39, 127
1, 209856, Note_on_c, 1, 27, 127
1, 209856, Note_on_c, 1, 62, 127
1, 209856, Note_on_c, 1, 51, 127
1, 209856, Note_on_c, 1, 55, 127
1, 210044, Note_off_c, 1, 70, 0
1, 210044, Note_off_c, 1, 67, 0
1, 210044, Note_off_c, 1, 39, 0
1, 210044, Note_off_c, 1, 27, 0
1, 210044, Note_off_c, 1, 62, 0
1, 210044, Note_off_c, 1, 51, 0
1, 210044, Note_off_c, 1, 55, 0
1, 210048, Note_on_c, 1, 65, 127
1, 210048, Note_on_c, 1, 41, 127
1, 210048, Note_on_c, 1, 29, 127
1, 210048, Note_on_c, 1, 60, 127
1, 210048, Note_on_c, 1, 53, 127
1, 210048, Note_on_c, 1, 57, 127
1, 210176, Note_off_c, 1, 41, 0
1, 210176, Note_off_c, 1, 29, 0
1, 210236, Note_off_c, 1, 65, 0
1, 210236, Note_off_c, 1, 60, 0
1, 210236, Note_off_c, 1, 53, 0
1, 210236, Note_off_c, 1, 57, 0
1, 210240, Note_on_c, 1, 69, 127
1, 210240, Note_on_c, 1, 63, 127
1, 210240, Note_on_c, 1, 41, 127
1, 210240, Note_on_c, 1, 29, 127
1, 210428, Note_off_c, 1, 69, 0
1, 210428, Note_off_c, 1, 63, 0
1, 210428, Note_off_c, 1, 41, 0
1, 210428, Note_off_c, 1, 29, 0
1, 210432, Note_on_c, 1, 70, 127
1, 210432, Note_on_c, 1, 62, 127
1, 210432, Note_on_c, 1, 46, 127
1, 210432, Note_on_c, 1, 34, 127
1, 210432, Note_on_c, 1, 60, 127
1, 210476, Note_off_c, 1, 60, 0
1, 210480, Note_on_c, 1, 58, 127
1, 210524, Note_off_c, 1, 62, 0
1, 210524, Note_off_c, 1, 46, 0
1, 210524, Note_off_c, 1, 34, 0
1, 210524, Note_off_c, 1, 58, 0
1, 210528, Note_on_c, 1, 63, 127
1, 210528, Note_on_c, 1, 48, 127
1, 210528, Note_on_c, 1, 36, 127
1, 210620, Note_off_c, 1, 63, 0
1, 210620, Note_off_c, 1, 48, 0
1, 210620, Note_off_c, 1, 36, 0
1, 210624, Note_on_c, 1, 65, 127
1, 210624, Note_on_c, 1, 50, 127
1, 210624, Note_on_c, 1, 38, 127
1, 210752, Note_off_c, 1, 65, 0
1, 210752, Note_off_c, 1, 50, 0
1, 210752, Note_off_c, 1, 38, 0
1, 210776, Note_off_c, 1, 70, 0
1, 210816, Note_on_c, 1, 63, 127
1, 210816, Note_on_c, 1, 48, 127
1, 210816, Note_on_c, 1, 36, 127
1, 210816, Note_on_c, 1, 60, 127
1, 210860, Note_off_c, 1, 60, 0
1, 210864, Note_on_c, 1, 58, 127
1, 210908, Note_off_c, 1, 58, 0
1, 211004, Note_off_c, 1, 63, 0
1, 211004, Note_off_c, 1, 48, 0
1, 211004, Note_off_c, 1, 36, 0
1, 211008, Note_on_c, 1, 65, 127
1, 211008, Note_on_c, 1, 62, 127
1, 211008, Note_on_c, 1, 46, 127
1, 211008, Note_on_c, 1, 34, 127
1, 211008, Note_on_c, 1, 60, 127
1, 211052, Note_off_c, 1, 60, 0
1, 211056, Note_on_c, 1, 58, 127
1, 211100, Note_off_c, 1, 58, 0
1, 211196, Note_off_c, 1, 65, 0
1, 211196, Note_off_c, 1, 62, 0
1, 211196, Note_off_c, 1, 46, 0
1, 211196, Note_off_c, 1, 34, 0
1, 211200, Note_on_c, 1, 67, 127
1, 211200, Note_on_c, 1, 63, 127
1, 211200, Note_on_c, 1, 70, 127
1, 211200, Note_on_c, 1, 51, 127
1, 211200, Note_on_c, 1, 39, 127
1, 211200, Note_on_c, 1, 60, 127
1, 211244, Note_off_c, 1, 60, 0
1, 211248, Note_on_c, 1, 58, 127
1, 211292, Note_off_c, 1, 58, 0
1, 211388, Note_off_c, 1, 67, 0
1, 211388, Note_off_c, 1, 63, 0
1, 211388, Note_off_c, 1, 70, 0
1, 211388, Note_off_c, 1, 51, 0
1, 211388, Note_off_c, 1, 39, 0
1, 211392, Note_on_c, 1, 65, 127
1, 211392, Note_on_c, 1, 62, 127
1, 211392, Note_on_c, 1, 58, 127
1, 211392, Note_on_c, 1, 46, 127
1, 211392, Note_on_c, 1, 60, 127
1, 211436, Note_off_c, 1, 60, 0
1, 211520, Note_off_c, 1, 65, 0
1, 211520, Note_off_c, 1, 62, 0
1, 211584, Note_on_c, 1, 68, 127
1, 211772, Note_off_c, 1, 58, 0
1, 211772, Note_off_c, 1, 46, 0
1, 211772, Note_off_c, 1, 68, 0
1, 211776, Note_on_c, 1, 67, 127
1, 211776, Note_on_c, 1, 63, 127
1, 211776, Note_on_c, 1, 51, 127
1, 211776, Note_on_c, 1, 39, 127
1, 211776, Note_on_c, 1, 60, 127
1, 211820, Note_off_c, 1, 60, 0
1, 211824, Note_on_c, 1, 58, 127
1, 211868, Note_off_c, 1, 58, 0
1, 211904, Note_off_c, 1, 67, 0
1, 211964, Note_off_c, 1, 63, 0
1, 211964, Note_off_c, 1, 51, 0
1, 211964, Note_off_c, 1, 39, 0
1, 211968, Note_on_c, 1, 65, 127
1, 211968, Note_on_c, 1, 62, 127
1, 211968, Note_on_c, 1, 46, 127
1, 211968, Note_on_c, 1, 34, 127
1, 211968, Note_on_c, 1, 60, 127
1, 212012, Note_off_c, 1, 60, 0
1, 212016, Note_on_c, 1, 58, 127
1, 212060, Note_off_c, 1, 62, 0
1, 212060, Note_off_c, 1, 46, 0
1, 212060, Note_off_c, 1, 34, 0
1, 212060, Note_off_c, 1, 58, 0
1, 212064, Note_on_c, 1, 63, 127
1, 212064, Note_on_c, 1, 48, 127
1, 212064, Note_on_c, 1, 36, 127
1, 212156, Note_off_c, 1, 63, 0
1, 212156, Note_off_c, 1, 48, 0
1, 212156, Note_off_c, 1, 36, 0
1, 212160, Note_on_c, 1, 50, 127
1, 212160, Note_on_c, 1, 38, 127
1, 212288, Note_off_c, 1, 50, 0
1, 212288, Note_off_c, 1, 38, 0
1, 212348, Note_off_c, 1, 65, 0
1, 212352, Note_on_c, 1, 63, 127
1, 212352, Note_on_c, 1, 48, 127
1, 212352, Note_on_c, 1, 36, 127
1, 212352, Note_on_c, 1, 60, 127
1, 212396, Note_off_c, 1, 60, 0
1, 212400, Note_on_c, 1, 58, 127
1, 212444, Note_off_c, 1, 58, 0
1, 212540, Note_off_c, 1, 63, 0
1, 212540, Note_off_c, 1, 48, 0
1, 212540, Note_off_c, 1, 36, 0
1, 212544, Note_on_c, 1, 62, 127
1, 212544, Note_on_c, 1, 53, 127
1, 212544, Note_on_c, 1, 46, 127
1, 212544, Note_on_c, 1, 34, 127
1, 212544, Note_on_c, 1, 60, 127
1, 212588, Note_off_c, 1, 60, 0
1, 212592, Note_on_c, 1, 58, 127
1, 212636, Note_off_c, 1, 58, 0
1, 212732, Note_off_c, 1, 62, 0
1, 212732, Note_off_c, 1, 53, 0
1, 212732, Note_off_c, 1, 46, 0
1, 212732, Note_off_c, 1, 34, 0
1, 212736, Note_on_c, 1, 63, 127
1, 212736, Note_on_c, 1, 70, 127
1, 212736, Note_on_c, 1, 55, 127
1, 212736, Note_on_c, 1, 51, 127
1, 212736, Note_on_c, 1, 39, 127
1, 212736, Note_on_c, 1, 60, 127
1, 212780, Note_off_c, 1, 60, 0
1, 212784, Note_on_c, 1, 58, 127
1, 212828, Note_off_c, 1, 58, 0
1, 212924, Note_off_c, 1, 63, 0
1, 212924, Note_off_c, 1, 70, 0
1, 212924, Note_off_c, 1, 55, 0
1, 212924, Note_off_c, 1, 51, 0
1, 212924, Note_off_c, 1, 39, 0
1, 212928, Note_on_c, 1, 62, 127
1, 212928, Note_on_c, 1, 58, 127
1, 212928, Note_on_c, 1, 53, 127
1, 212928, Note_on_c, 1, 46, 127
1, 212928, Note_on_c, 1, 60, 127
1, 212972, Note_off_c, 1, 60, 0
1, 213056, Note_off_c, 1, 62, 0
1, 213056, Note_off_c, 1, 53, 0
1, 213120, Note_on_c, 1, 65, 127
1, 213120, Note_on_c, 1, 56, 127
1, 213308, Note_off_c, 1, 58, 0
1, 213308, Note_off_c, 1, 46, 0
1, 213308, Note_off_c, 1, 65, 0
1, 213308, Note_off_c, 1, 56, 0
1, 213312, Note_on_c, 1, 63, 127
1, 213312, Note_on_c, 1, 55, 127
1, 213312, Note_on_c, 1, 51, 127
1, 213312, Note_on_c, 1, 39, 127
1, 213312, Note_on_c, 1, 60, 127
1, 213356, Note_off_c, 1, 60, 0
1, 213360, Note_on_c, 1, 58, 127
1, 213404, Note_off_c, 1, 58, 0
1, 213440, Note_off_c, 1, 55, 0
1, 213500, Note_off_c, 1, 63, 0
1, 213500, Note_off_c, 1, 51, 0
1, 213500, Note_off_c, 1, 39, 0
1, 213504, Note_on_c, 1, 62, 127
1, 213504, Note_on_c, 1, 65, 127
1, 213504, Note_on_c, 1, 53, 127
1, 213504, Note_on_c, 1, 46, 127
1, 213504, Note_on_c, 1, 34, 127
1, 213600, Note_on_c, 1, 45, 127
1, 213692, Note_off_c, 1, 45, 0
1, 213792, Note_on_c, 1, 48, 127
1, 213884, Note_off_c, 1, 62, 0
1, 213884, Note_off_c, 1, 65, 0
1, 213884, Note_off_c, 1, 53, 0
1, 213884, Note_off_c, 1, 46, 0
1, 213884, Note_off_c, 1, 34, 0
1, 213884, Note_off_c, 1, 48, 0
1, 213888, Note_on_c, 1, 50, 127
1, 213980, Note_off_c, 1, 50, 0
1, 213984, Note_on_c, 1, 51, 127
1, 214076, Note_off_c, 1, 51, 0
1, 214080, Note_on_c, 1, 53, 127
1, 214172, Note_off_c, 1, 53, 0
1, 214176, Note_on_c, 1, 55, 127
1, 214268, Note_off_c, 1, 55, 0
1, 214272, Note_on_c, 1, 56, 127
1, 214364, Note_off_c, 1, 56, 0
1, 214368, Note_on_c, 1, 59, 127
1, 214460, Note_off_c, 1, 59, 0
1, 214464, Note_on_c, 1, 71, 127
1, 214464, Note_on_c, 1, 67, 127
1, 214464, Note_on_c, 1, 62, 127
1, 214464, Note_on_c, 1, 43, 127
1, 214464, Note_on_c, 1, 31, 127
1, 214464, Note_on_c, 1, 60, 127
1, 214556, Note_off_c, 1, 60, 0
1, 214592, Note_off_c, 1, 71, 0
1, 214592, Note_off_c, 1, 67, 0
1, 214636, Note_off_c, 1, 43, 0
1, 214636, Note_off_c, 1, 31, 0
1, 214652, Note_off_c, 1, 62, 0
1, 214656, Note_on_c, 1, 71, 127
1, 214656, Note_on_c, 1, 67, 127
1, 214656, Note_on_c, 1, 62, 127
1, 214656, Note_on_c, 1, 43, 127
1, 214656, Note_on_c, 1, 31, 127
1, 214656, Note_on_c, 1, 60, 127
1, 214748, Note_off_c, 1, 60, 0
1, 214752, Note_on_c, 1, 59, 127
1, 214784, Note_off_c, 1, 71, 0
1, 214784, Note_off_c, 1, 67, 0
1, 214784, Note_off_c, 1, 62, 0
1, 214828, Note_off_c, 1, 43, 0
1, 214828, Note_off_c, 1, 31, 0
1, 214844, Note_off_c, 1, 59, 0
1, 214848, Note_on_c, 1, 71, 127
1, 214848, Note_on_c, 1, 67, 127
1, 214848, Note_on_c, 1, 62, 127
1, 214848, Note_on_c, 1, 43, 127
1, 214848, Note_on_c, 1, 31, 127
1, 214848, Note_on_c, 1, 57, 127
1, 214940, Note_off_c, 1, 57, 0
1, 214944, Note_on_c, 1, 55, 127
1, 214976, Note_off_c, 1, 71, 0
1, 214976, Note_off_c, 1, 67, 0
1, 214976, Note_off_c, 1, 62, 0
1, 215020, Note_off_c, 1, 43, 0
1, 215020, Note_off_c, 1, 31, 0
1, 215036, Note_off_c, 1, 55, 0
1, 215040, Note_on_c, 1, 72, 127
1, 215040, Note_on_c, 1, 67, 127
1, 215040, Note_on_c, 1, 60, 127
1, 215040, Note_on_c, 1, 48, 127
1, 215040, Note_on_c, 1, 36, 127
1, 215040, Note_on_c, 1, 63, 127
1, 215132, Note_off_c, 1, 63, 0
1, 215232, Note_on_c, 1, 59, 127
1, 215324, Note_off_c, 1, 59, 0
1, 215420, Note_off_c, 1, 72, 0
1, 215420, Note_off_c, 1, 67, 0
1, 215420, Note_off_c, 1, 60, 0
1, 215420, Note_off_c, 1, 48, 0
1, 215420, Note_off_c, 1, 36, 0
1, 215424, Note_on_c, 1, 55, 127
1, 215516, Note_off_c, 1, 55, 0
1, 215520, Note_on_c, 1, 60, 127
1, 215612, Note_off_c, 1, 60, 0
1, 215616, Note_on_c, 1, 51, 127
1, 215708, Note_off_c, 1, 51, 0
1, 215712, Note_on_c, 1, 55, 127
1, 215804, Note_off_c, 1, 55, 0
1, 215808, Note_on_c, 1, 48, 127
1, 215900, Note_off_c, 1, 48, 0
1, 215904, Note_on_c, 1, 47, 127
1, 215996, Note_off_c, 1, 47, 0
1, 216000, Note_on_c, 1, 48, 127
1, 216092, Note_off_c, 1, 48, 0
1, 216096, Note_on_c, 1, 50, 127
1, 216188, Note_off_c, 1, 50, 0
1, 216192, Note_on_c, 1, 51, 127
1, 216284, Note_off_c, 1, 51, 0
1, 216288, Note_on_c, 1, 53, 127
1, 216380, Note_off_c, 1, 53, 0
1, 216384, Note_on_c, 1, 55, 127
1, 216476, Note_off_c, 1, 55, 0
1, 216480, Note_on_c, 1, 57, 127
1, 216572, Note_off_c, 1, 57, 0
1, 216576, Note_on_c, 1, 58, 127
1, 216668, Note_off_c, 1, 58, 0
1, 216672, Note_on_c, 1, 61, 127
1, 216764, Note_off_c, 1, 61, 0
1, 216768, Note_on_c, 1, 73, 127
1, 216768, Note_on_c, 1, 69, 127
1, 216768, Note_on_c, 1, 64, 127
1, 216768, Note_on_c, 1, 45, 127
1, 216768, Note_on_c, 1, 33, 127
1, 216768, Note_on_c, 1, 62, 127
1, 216860, Note_off_c, 1, 62, 0
1, 216896, Note_off_c, 1, 73, 0
1, 216896, Note_off_c, 1, 69, 0
1, 216940, Note_off_c, 1, 45, 0
1, 216940, Note_off_c, 1, 33, 0
1, 216956, Note_off_c, 1, 64, 0
1, 216960, Note_on_c, 1, 73, 127
1, 216960, Note_on_c, 1, 69, 127
1, 216960, Note_on_c, 1, 64, 127
1, 216960, Note_on_c, 1, 45, 127
1, 216960, Note_on_c, 1, 33, 127
1, 216960, Note_on_c, 1, 62, 127
1, 217052, Note_off_c, 1, 62, 0
1, 217056, Note_on_c, 1, 61, 127
1, 217088, Note_off_c, 1, 73, 0
1, 217088, Note_off_c, 1, 69, 0
1, 217088, Note_off_c, 1, 64, 0
1, 217132, Note_off_c, 1, 45, 0
1, 217132, Note_off_c, 1, 33, 0
1, 217148, Note_off_c, 1, 61, 0
1, 217152, Note_on_c, 1, 73, 127
1, 217152, Note_on_c, 1, 69, 127
1, 217152, Note_on_c, 1, 64, 127
1, 217152, Note_on_c, 1, 45, 127
1, 217152, Note_on_c, 1, 33, 127
1, 217152, Note_on_c, 1, 59, 127
1, 217244, Note_off_c, 1, 59, 0
1, 217248, Note_on_c, 1, 57, 127
1, 217280, Note_off_c, 1, 73, 0
1, 217280, Note_off_c, 1, 69, 0
1, 217280, Note_off_c, 1, 64, 0
1, 217324, Note_off_c, 1, 45, 0
1, 217324, Note_off_c, 1, 33, 0
1, 217340, Note_off_c, 1, 57, 0
1, 217344, Note_on_c, 1, 74, 127
1, 217344, Note_on_c, 1, 69, 127
1, 217344, Note_on_c, 1, 62, 127
1, 217344, Note_on_c, 1, 50, 127
1, 217344, Note_on_c, 1, 38, 127
1, 217344, Note_on_c, 1, 65, 127
1, 217436, Note_off_c, 1, 65, 0
1, 217536, Note_on_c, 1, 61, 127
1, 217628, Note_off_c, 1, 61, 0
1, 217724, Note_off_c, 1, 74, 0
1, 217724, Note_off_c, 1, 69, 0
1, 217724, Note_off_c, 1, 62, 0
1, 217724, Note_off_c, 1, 50, 0
1, 217724, Note_off_c, 1, 38, 0
1, 217728, Note_on_c, 1, 57, 127
1, 217820, Note_off_c, 1, 57, 0
1, 217824, Note_on_c, 1, 62, 127
1, 217868, Note_off_c, 1, 62, 0
1, 217872, Note_on_c, 1, 57, 127
1, 217916, Note_off_c, 1, 57, 0
1, 217920, Note_on_c, 1, 53, 127
1, 218012, Note_off_c, 1, 53, 0
1, 218016, Note_on_c, 1, 57, 127
1, 218060, Note_off_c, 1, 57, 0
1, 218064, Note_on_c, 1, 53, 127
1, 218108, Note_off_c, 1, 53, 0
1, 218112, Note_on_c, 1, 50, 127
1, 218204, Note_off_c, 1, 50, 0
1, 218208, Note_on_c, 1, 52, 127
1, 218300, Note_off_c, 1, 52, 0
1, 218304, Note_on_c, 1, 53, 127
1, 218396, Note_off_c, 1, 53, 0
1, 218400, Note_on_c, 1, 55, 127
1, 218492, Note_off_c, 1, 55, 0
1, 218496, Note_on_c, 1, 57, 127
1, 218588, Note_off_c, 1, 57, 0
1, 218592, Note_on_c, 1, 58, 127
1, 218684, Note_off_c, 1, 58, 0
1, 218688, Note_on_c, 1, 60, 127
1, 218780, Note_off_c, 1, 60, 0
1, 218784, Note_on_c, 1, 62, 127
1, 218876, Note_off_c, 1, 62, 0
1, 218880, Note_on_c, 1, 63, 127
1, 218972, Note_off_c, 1, 63, 0
1, 218976, Note_on_c, 1, 66, 127
1, 219068, Note_off_c, 1, 66, 0
1, 219072, Note_on_c, 1, 78, 127
1, 219072, Note_on_c, 1, 74, 127
1, 219072, Note_on_c, 1, 69, 127
1, 219072, Note_on_c, 1, 50, 127
1, 219072, Note_on_c, 1, 38, 127
1, 219072, Note_on_c, 1, 67, 127
1, 219164, Note_off_c, 1, 67, 0
1, 219200, Note_off_c, 1, 78, 0
1, 219200, Note_off_c, 1, 74, 0
1, 219244, Note_off_c, 1, 50, 0
1, 219244, Note_off_c, 1, 38, 0
1, 219260, Note_off_c, 1, 69, 0
1, 219264, Note_on_c, 1, 78, 127
1, 219264, Note_on_c, 1, 74, 127
1, 219264, Note_on_c, 1, 69, 127
1, 219264, Note_on_c, 1, 50, 127
1, 219264, Note_on_c, 1, 38, 127
1, 219264, Note_on_c, 1, 67, 127
1, 219356, Note_off_c, 1, 67, 0
1, 219360, Note_on_c, 1, 66, 127
1, 219392, Note_off_c, 1, 78, 0
1, 219392, Note_off_c, 1, 74, 0
1, 219392, Note_off_c, 1, 69, 0
1, 219436, Note_off_c, 1, 50, 0
1, 219436, Note_off_c, 1, 38, 0
1, 219452, Note_off_c, 1, 66, 0
1, 219456, Note_on_c, 1, 78, 127
1, 219456, Note_on_c, 1, 74, 127
1, 219456, Note_on_c, 1, 69, 127
1, 219456, Note_on_c, 1, 50, 127
1, 219456, Note_on_c, 1, 38, 127
1, 219456, Note_on_c, 1, 64, 127
1, 219548, Note_off_c, 1, 64, 0
1, 219552, Note_on_c, 1, 62, 127
1, 219584, Note_off_c, 1, 78, 0
1, 219584, Note_off_c, 1, 74, 0
1, 219584, Note_off_c, 1, 69, 0
1, 219616, Note_off_c, 1, 62, 0
1, 219628, Note_off_c, 1, 50, 0
1, 219628, Note_off_c, 1, 38, 0
1, 219648, Note_on_c, 1, 79, 127
1, 219648, Note_on_c, 1, 74, 127
1, 219648, Note_on_c, 1, 67, 127
1, 219648, Note_on_c, 1, 55, 127
1, 219648, Note_on_c, 1, 43, 127
1, 219648, Note_on_c, 1, 70, 127
1, 219740, Note_off_c, 1, 70, 0
1, 219744, Note_on_c, 1, 58, 127
1, 219836, Note_off_c, 1, 74, 0
1, 219836, Note_off_c, 1, 58, 0
1, 219840, Note_on_c, 1, 69, 127
1, 219840, Note_on_c, 1, 60, 127
1, 219932, Note_off_c, 1, 69, 0
1, 219932, Note_off_c, 1, 60, 0
1, 219936, Note_on_c, 1, 62, 127
1, 220028, Note_off_c, 1, 79, 0
1, 220028, Note_off_c, 1, 67, 0
1, 220028, Note_off_c, 1, 55, 0
1, 220028, Note_off_c, 1, 43, 0
1, 220028, Note_off_c, 1, 62, 0
1, 220032, Note_on_c, 1, 75, 127
1, 220032, Note_on_c, 1, 69, 127
1, 220032, Note_on_c, 1, 60, 127
1, 220124, Note_off_c, 1, 69, 0
1, 220124, Note_off_c, 1, 60, 0
1, 220128, Note_on_c, 1, 67, 127
1, 220128, Note_on_c, 1, 58, 127
1, 220220, Note_off_c, 1, 67, 0
1, 220220, Note_off_c, 1, 58, 0
1, 220224, Note_on_c, 1, 82, 127
1, 220224, Note_on_c, 1, 70, 127
1, 220224, Note_on_c, 1, 55, 127
1, 220224, Note_on_c, 1, 43, 127
1, 220224, Note_on_c, 1, 66, 127
1, 220224, Note_on_c, 1, 57, 127
1, 220316, Note_off_c, 1, 66, 0
1, 220316, Note_off_c, 1, 57, 0
1, 220320, Note_on_c, 1, 64, 127
1, 220384, Note_off_c, 1, 64, 0
1, 220412, Note_off_c, 1, 82, 0
1, 220412, Note_off_c, 1, 70, 0
1, 220412, Note_off_c, 1, 55, 0
1, 220412, Note_off_c, 1, 43, 0
1, 220416, Note_on_c, 1, 84, 127
1, 220416, Note_on_c, 1, 45, 127
1, 220416, Note_on_c, 1, 72, 127
1, 220508, Note_off_c, 1, 72, 0
1, 220604, Note_off_c, 1, 75, 0
1, 220608, Note_on_c, 1, 62, 127
1, 220700, Note_off_c, 1, 62, 0
1, 220704, Note_on_c, 1, 63, 127
1, 220796, Note_off_c, 1, 84, 0
1, 220796, Note_off_c, 1, 45, 0
1, 220796, Note_off_c, 1, 63, 0
1, 220800, Note_on_c, 1, 78, 127
1, 220800, Note_on_c, 1, 70, 127
1, 220800, Note_on_c, 1, 62, 127
1, 220892, Note_off_c, 1, 70, 0
1, 220892, Note_off_c, 1, 62, 0
1, 220896, Note_on_c, 1, 69, 127
1, 220896, Note_on_c, 1, 60, 127
1, 220988, Note_off_c, 1, 69, 0
1, 220988, Note_off_c, 1, 60, 0
1, 220992, Note_on_c, 1, 84, 127
1, 220992, Note_on_c, 1, 57, 127
1, 220992, Note_on_c, 1, 45, 127
1, 220992, Note_on_c, 1, 67, 127
1, 220992, Note_on_c, 1, 58, 127
1, 221084, Note_off_c, 1, 67, 0
1, 221084, Note_off_c, 1, 58, 0
1, 221088, Note_on_c, 1, 66, 127
1, 221152, Note_off_c, 1, 66, 0
1, 221180, Note_off_c, 1, 84, 0
1, 221180, Note_off_c, 1, 57, 0
1, 221180, Note_off_c, 1, 45, 0
1, 221184, Note_on_c, 1, 86, 127
1, 221184, Note_on_c, 1, 46, 127
1, 221184, Note_on_c, 1, 74, 127
1, 221276, Note_off_c, 1, 74, 0
1, 221280, Note_on_c, 1, 55, 127
1, 221372, Note_off_c, 1, 78, 0
1, 221372, Note_off_c, 1, 55, 0
1, 221376, Note_on_c, 1, 72, 127
1, 221468, Note_off_c, 1, 72, 0
1, 221564, Note_off_c, 1, 86, 0
1, 221564, Note_off_c, 1, 46, 0
1, 221568, Note_on_c, 1, 79, 127
1, 221568, Note_on_c, 1, 72, 127
1, 221568, Note_on_c, 1, 57, 127
1, 221660, Note_off_c, 1, 72, 0
1, 221660, Note_off_c, 1, 57, 0
1, 221664, Note_on_c, 1, 70, 127
1, 221664, Note_on_c, 1, 55, 127
1, 221756, Note_off_c, 1, 70, 0
1, 221756, Note_off_c, 1, 55, 0
1, 221760, Note_on_c, 1, 74, 127
1, 221760, Note_on_c, 1, 62, 127
1, 221760, Note_on_c, 1, 58, 127
1, 221760, Note_on_c, 1, 46, 127
1, 221760, Note_on_c, 1, 69, 127
1, 221760, Note_on_c, 1, 54, 127
1, 221852, Note_off_c, 1, 69, 0
1, 221852, Note_off_c, 1, 54, 0
1, 221856, Note_on_c, 1, 67, 127
1, 221920, Note_off_c, 1, 67, 0
1, 221948, Note_off_c, 1, 74, 0
1, 221948, Note_off_c, 1, 62, 0
1, 221948, Note_off_c, 1, 58, 0
1, 221948, Note_off_c, 1, 46, 0
1, 221952, Note_on_c, 1, 81, 127
1, 221952, Note_on_c, 1, 64, 127
1, 221952, Note_on_c, 1, 49, 127
1, 221952, Note_on_c, 1, 37, 127
1, 221952, Note_on_c, 1, 76, 127
1, 222044, Note_off_c, 1, 76, 0
1, 222048, Note_on_c, 1, 73, 127
1, 222048, Note_on_c, 1, 52, 127
1, 222140, Note_off_c, 1, 79, 0
1, 222140, Note_off_c, 1, 81, 0
1, 222140, Note_off_c, 1, 73, 0
1, 222140, Note_off_c, 1, 52, 0
1, 222144, Note_on_c, 1, 53, 127
1, 222236, Note_off_c, 1, 53, 0
1, 222332, Note_off_c, 1, 64, 0
1, 222332, Note_off_c, 1, 49, 0
1, 222332, Note_off_c, 1, 37, 0
1, 222336, Note_on_c, 1, 77, 127
1, 222336, Note_on_c, 1, 81, 127
1, 222336, Note_on_c, 1, 74, 127
1, 222336, Note_on_c, 1, 45, 127
1, 222428, Note_off_c, 1, 74, 0
1, 222432, Note_on_c, 1, 73, 127
1, 222524, Note_off_c, 1, 77, 0
1, 222524, Note_off_c, 1, 45, 0
1, 222524, Note_off_c, 1, 73, 0
1, 222528, Note_on_c, 1, 76, 127
1, 222528, Note_on_c, 1, 64, 127
1, 222528, Note_on_c, 1, 49, 127
1, 222528, Note_on_c, 1, 37, 127
1, 222528, Note_on_c, 1, 71, 127
1, 222620, Note_off_c, 1, 71, 0
1, 222624, Note_on_c, 1, 69, 127
1, 222688, Note_off_c, 1, 69, 0
1, 222716, Note_off_c, 1, 76, 0
1, 222716, Note_off_c, 1, 64, 0
1, 222716, Note_off_c, 1, 49, 0
1, 222716, Note_off_c, 1, 37, 0
1, 222720, Note_on_c, 1, 57, 127
1, 222720, Note_on_c, 1, 50, 127
1, 222720, Note_on_c, 1, 38, 127
1, 222848, Note_off_c, 1, 81, 0
1, 222912, Note_on_c, 1, 75, 127
1, 222912, Note_on_c, 1, 72, 127
1, 222912, Note_on_c, 1, 54, 127
1, 223004, Note_off_c, 1, 72, 0
1, 223100, Note_off_c, 1, 57, 0
1, 223100, Note_off_c, 1, 50, 0
1, 223100, Note_off_c, 1, 38, 0
1, 223100, Note_off_c, 1, 75, 0
1, 223100, Note_off_c, 1, 54, 0
1, 223104, Note_on_c, 1, 74, 127
1, 223104, Note_on_c, 1, 79, 127
1, 223104, Note_on_c, 1, 70, 127
1, 223104, Note_on_c, 1, 55, 127
1, 223196, Note_off_c, 1, 70, 0
1, 223292, Note_off_c, 1, 74, 0
1, 223292, Note_off_c, 1, 79, 0
1, 223292, Note_off_c, 1, 55, 0
1, 223296, Note_on_c, 1, 72, 127
1, 223296, Note_on_c, 1, 78, 127
1, 223296, Note_on_c, 1, 69, 127
1, 223296, Note_on_c, 1, 57, 127
1, 223388, Note_off_c, 1, 69, 0
1, 223392, Note_on_c, 1, 74, 127
1, 223484, Note_off_c, 1, 72, 0
1, 223484, Note_off_c, 1, 78, 0
1, 223484, Note_off_c, 1, 57, 0
1, 223484, Note_off_c, 1, 74, 0
1, 223488, Note_on_c, 1, 70, 127
1, 223488, Note_on_c, 1, 79, 127
1, 223488, Note_on_c, 1, 67, 127
1, 223488, Note_on_c, 1, 58, 127
1, 223580, Note_off_c, 1, 67, 0
1, 223584, Note_on_c, 1, 74, 127
1, 223676, Note_off_c, 1, 70, 0
1, 223676, Note_off_c, 1, 79, 0
1, 223676, Note_off_c, 1, 58, 0
1, 223676, Note_off_c, 1, 74, 0
1, 223680, Note_on_c, 1, 74, 127
1, 223680, Note_on_c, 1, 71, 127
1, 223680, Note_on_c, 1, 67, 127
1, 223680, Note_on_c, 1, 55, 127
1, 223680, Note_on_c, 1, 43, 127
1, 223680, Note_on_c, 1, 76, 127
1, 223772, Note_off_c, 1, 76, 0
1, 223776, Note_on_c, 1, 77, 127
1, 223868, Note_off_c, 1, 74, 0
1, 223868, Note_off_c, 1, 71, 0
1, 223868, Note_off_c, 1, 67, 0
1, 223868, Note_off_c, 1, 55, 0
1, 223868, Note_off_c, 1, 43, 0
1, 223868, Note_off_c, 1, 77, 0
1, 223872, Note_on_c, 1, 79, 127
1, 223872, Note_on_c, 1, 72, 127
1, 223872, Note_on_c, 1, 60, 127
1, 223872, Note_on_c, 1, 57, 127
1, 223872, Note_on_c, 1, 45, 127
1, 223872, Note_on_c, 1, 76, 127
1, 223964, Note_off_c, 1, 76, 0
1, 223968, Note_on_c, 1, 74, 127
1, 224060, Note_off_c, 1, 72, 0
1, 224060, Note_off_c, 1, 60, 0
1, 224060, Note_off_c, 1, 57, 0
1, 224060, Note_off_c, 1, 45, 0
1, 224060, Note_off_c, 1, 74, 0
1, 224064, Note_on_c, 1, 55, 127
1, 224064, Note_on_c, 1, 59, 127
1, 224064, Note_on_c, 1, 47, 127
1, 224160, Note_on_c, 1, 71, 127
1, 224252, Note_off_c, 1, 55, 0
1, 224252, Note_off_c, 1, 59, 0
1, 224252, Note_off_c, 1, 47, 0
1, 224252, Note_off_c, 1, 71, 0
1, 224256, Note_on_c, 1, 48, 127
1, 224384, Note_off_c, 1, 79, 0
1, 224448, Note_on_c, 1, 70, 127
1, 224448, Note_on_c, 1, 52, 127
1, 224540, Note_off_c, 1, 70, 0
1, 224636, Note_off_c, 1, 48, 0
1, 224636, Note_off_c, 1, 52, 0
1, 224640, Note_on_c, 1, 77, 127
1, 224640, Note_on_c, 1, 72, 127
1, 224640, Note_on_c, 1, 69, 127
1, 224640, Note_on_c, 1, 53, 127
1, 224732, Note_off_c, 1, 69, 0
1, 224828, Note_off_c, 1, 77, 0
1, 224828, Note_off_c, 1, 72, 0
1, 224828, Note_off_c, 1, 53, 0
1, 224832, Note_on_c, 1, 76, 127
1, 224832, Note_on_c, 1, 70, 127
1, 224832, Note_on_c, 1, 67, 127
1, 224832, Note_on_c, 1, 55, 127
1, 224924, Note_off_c, 1, 67, 0
1, 224928, Note_on_c, 1, 72, 127
1, 225020, Note_off_c, 1, 76, 0
1, 225020, Note_off_c, 1, 70, 0
1, 225020, Note_off_c, 1, 55, 0
1, 225020, Note_off_c, 1, 72, 0
1, 225024, Note_on_c, 1, 77, 127
1, 225024, Note_on_c, 1, 69, 127
1, 225024, Note_on_c, 1, 65, 127
1, 225024, Note_on_c, 1, 57, 127
1, 225116, Note_off_c, 1, 65, 0
1, 225120, Note_on_c, 1, 72, 127
1, 225212, Note_off_c, 1, 77, 0
1, 225212, Note_off_c, 1, 69, 0
1, 225212, Note_off_c, 1, 57, 0
1, 225212, Note_off_c, 1, 72, 0
1, 225216, Note_on_c, 1, 69, 127
1, 225216, Note_on_c, 1, 72, 127
1, 225216, Note_on_c, 1, 65, 127
1, 225216, Note_on_c, 1, 53, 127
1, 225216, Note_on_c, 1, 41, 127
1, 225216, Note_on_c, 1, 74, 127
1, 225308, Note_off_c, 1, 74, 0
1, 225312, Note_on_c, 1, 75, 127
1, 225404, Note_off_c, 1, 69, 0
1, 225404, Note_off_c, 1, 72, 0
1, 225404, Note_off_c, 1, 65, 0
1, 225404, Note_off_c, 1, 53, 0
1, 225404, Note_off_c, 1, 41, 0
1, 225404, Note_off_c, 1, 75, 0
1, 225408, Note_on_c, 1, 70, 127
1, 225408, Note_on_c, 1, 77, 127
1, 225408, Note_on_c, 1, 58, 127
1, 225408, Note_on_c, 1, 55, 127
1, 225408, Note_on_c, 1, 43, 127
1, 225408, Note_on_c, 1, 74, 127
1, 225500, Note_off_c, 1, 74, 0
1, 225504, Note_on_c, 1, 72, 127
1, 225596, Note_off_c, 1, 70, 0
1, 225596, Note_off_c, 1, 58, 0
1, 225596, Note_off_c, 1, 55, 0
1, 225596, Note_off_c, 1, 43, 0
1, 225596, Note_off_c, 1, 72, 0
1, 225600, Note_on_c, 1, 53, 127
1, 225600, Note_on_c, 1, 57, 127
1, 225600, Note_on_c, 1, 45, 127
1, 225696, Note_on_c, 1, 69, 127
1, 225788, Note_off_c, 1, 53, 0
1, 225788, Note_off_c, 1, 57, 0
1, 225788, Note_off_c, 1, 45, 0
1, 225788, Note_off_c, 1, 69, 0
1, 225792, Note_on_c, 1, 46, 127
1, 225920, Note_off_c, 1, 77, 0
1, 225980, Note_off_c, 1, 46, 0
1, 225984, Note_on_c, 1, 62, 127
1, 225984, Note_on_c, 1, 60, 127
1, 225984, Note_on_c, 1, 48, 127
1, 226172, Note_off_c, 1, 62, 0
1, 226172, Note_off_c, 1, 60, 0
1, 226172, Note_off_c, 1, 48, 0
1, 226176, Note_on_c, 1, 76, 127
1, 226176, Note_on_c, 1, 67, 127
1, 226176, Note_on_c, 1, 58, 127
1, 226176, Note_on_c, 1, 46, 127
1, 226272, Note_on_c, 1, 70, 127
1, 226364, Note_off_c, 1, 76, 0
1, 226364, Note_off_c, 1, 67, 0
1, 226364, Note_off_c, 1, 58, 0
1, 226364, Note_off_c, 1, 46, 0
1, 226364, Note_off_c, 1, 70, 0
1, 226368, Note_on_c, 1, 74, 127
1, 226368, Note_on_c, 1, 69, 127
1, 226368, Note_on_c, 1, 57, 127
1, 226368, Note_on_c, 1, 45, 127
1, 226368, Note_on_c, 1, 65, 127
1, 226460, Note_off_c, 1, 65, 0
1, 226464, Note_on_c, 1, 70, 127
1, 226556, Note_off_c, 1, 74, 0
1, 226556, Note_off_c, 1, 69, 0
1, 226556, Note_off_c, 1, 57, 0
1, 226556, Note_off_c, 1, 45, 0
1, 226556, Note_off_c, 1, 70, 0
1, 226560, Note_on_c, 1, 76, 127
1, 226560, Note_on_c, 1, 73, 127
1, 226560, Note_on_c, 1, 70, 127
1, 226560, Note_on_c, 1, 55, 127
1, 226560, Note_on_c, 1, 43, 127
1, 226560, Note_on_c, 1, 64, 127
1, 226652, Note_off_c, 1, 64, 0
1, 226656, Note_on_c, 1, 67, 127
1, 226748, Note_off_c, 1, 73, 0
1, 226748, Note_off_c, 1, 70, 0
1, 226748, Note_off_c, 1, 55, 0
1, 226748, Note_off_c, 1, 43, 0
1, 226748, Note_off_c, 1, 67, 0
1, 226752, Note_on_c, 1, 74, 127
1, 226752, Note_on_c, 1, 69, 127
1, 226752, Note_on_c, 1, 57, 127
1, 226752, Note_on_c, 1, 45, 127
1, 226752, Note_on_c, 1, 65, 127
1, 226844, Note_off_c, 1, 65, 0
1, 226940, Note_off_c, 1, 76, 0
1, 226940, Note_off_c, 1, 74, 0
1, 226940, Note_off_c, 1, 69, 0
1, 226940, Note_off_c, 1, 57, 0
1, 226940, Note_off_c, 1, 45, 0
1, 226944, Note_on_c, 1, 73, 127
1, 226944, Note_on_c, 1, 70, 127
1, 226944, Note_on_c, 1, 55, 127
1, 226944, Note_on_c, 1, 43, 127
1, 226944, Note_on_c, 1, 64, 127
1, 227036, Note_off_c, 1, 64, 0
1, 227040, Note_on_c, 1, 67, 127
1, 227132, Note_off_c, 1, 73, 0
1, 227132, Note_off_c, 1, 70, 0
1, 227132, Note_off_c, 1, 55, 0
1, 227132, Note_off_c, 1, 43, 0
1, 227132, Note_off_c, 1, 67, 0
1, 227136, Note_on_c, 1, 77, 127
1, 227136, Note_on_c, 1, 74, 127
1, 227136, Note_on_c, 1, 62, 127
1, 227136, Note_on_c, 1, 53, 127
1, 227136, Note_on_c, 1, 41, 127
1, 227232, Note_on_c, 1, 67, 127
1, 227324, Note_off_c, 1, 77, 0
1, 227324, Note_off_c, 1, 74, 0
1, 227324, Note_off_c, 1, 62, 0
1, 227324, Note_off_c, 1, 53, 0
1, 227324, Note_off_c, 1, 41, 0
1, 227324, Note_off_c, 1, 67, 0
1, 227328, Note_on_c, 1, 79, 127
1, 227328, Note_on_c, 1, 67, 127
1, 227328, Note_on_c, 1, 64, 127
1, 227328, Note_on_c, 1, 52, 127
1, 227328, Note_on_c, 1, 40, 127
1, 227328, Note_on_c, 1, 61, 127
1, 227420, Note_off_c, 1, 61, 0
1, 227516, Note_off_c, 1, 67, 0
1, 227516, Note_off_c, 1, 64, 0
1, 227516, Note_off_c, 1, 52, 0
1, 227516, Note_off_c, 1, 40, 0
1, 227520, Note_on_c, 1, 69, 127
1, 227520, Note_on_c, 1, 62, 127
1, 227520, Note_on_c, 1, 53, 127
1, 227520, Note_on_c, 1, 41, 127
1, 227708, Note_off_c, 1, 79, 0
1, 227708, Note_off_c, 1, 69, 0
1, 227708, Note_off_c, 1, 62, 0
1, 227708, Note_off_c, 1, 53, 0
1, 227708, Note_off_c, 1, 41, 0
1, 227712, Note_on_c, 1, 67, 127
1, 227712, Note_on_c, 1, 64, 127
1, 227712, Note_on_c, 1, 52, 127
1, 227712, Note_on_c, 1, 40, 127
1, 227712, Note_on_c, 1, 61, 127
1, 227804, Note_off_c, 1, 61, 0
1, 227900, Note_off_c, 1, 67, 0
1, 227900, Note_off_c, 1, 64, 0
1, 227900, Note_off_c, 1, 52, 0
1, 227900, Note_off_c, 1, 40, 0
1, 227904, Note_on_c, 1, 74, 127
1, 227904, Note_on_c, 1, 65, 127
1, 227904, Note_on_c, 1, 50, 127
1, 227904, Note_on_c, 1, 38, 127
1, 227904, Note_on_c, 1, 59, 127
1, 227996, Note_off_c, 1, 59, 0
1, 228000, Note_on_c, 1, 67, 127
1, 228092, Note_off_c, 1, 74, 0
1, 228092, Note_off_c, 1, 65, 0
1, 228092, Note_off_c, 1, 50, 0
1, 228092, Note_off_c, 1, 38, 0
1, 228092, Note_off_c, 1, 67, 0
1, 228096, Note_on_c, 1, 76, 127
1, 228096, Note_on_c, 1, 64, 127
1, 228096, Note_on_c, 1, 67, 127
1, 228096, Note_on_c, 1, 49, 127
1, 228096, Note_on_c, 1, 37, 127
1, 228096, Note_on_c, 1, 57, 127
1, 228188, Note_off_c, 1, 57, 0
1, 228284, Note_off_c, 1, 67, 0
1, 228284, Note_off_c, 1, 49, 0
1, 228284, Note_off_c, 1, 37, 0
1, 228288, Note_on_c, 1, 47, 127
1, 228288, Note_on_c, 1, 35, 127
1, 228288, Note_on_c, 1, 61, 127
1, 228288, Note_on_c, 1, 52, 127
1, 228380, Note_off_c, 1, 61, 0
1, 228476, Note_off_c, 1, 76, 0
1, 228476, Note_off_c, 1, 64, 0
1, 228476, Note_off_c, 1, 47, 0
1, 228476, Note_off_c, 1, 35, 0
1, 228476, Note_off_c, 1, 52, 0
1, 228480, Note_on_c, 1, 61, 127
1, 228480, Note_on_c, 1, 45, 127
1, 228480, Note_on_c, 1, 33, 127
1, 228480, Note_on_c, 1, 64, 127
1, 228480, Note_on_c, 1, 57, 127
1, 228572, Note_off_c, 1, 64, 0
1, 228576, Note_on_c, 1, 67, 127
1, 228668, Note_off_c, 1, 61, 0
1, 228668, Note_off_c, 1, 45, 0
1, 228668, Note_off_c, 1, 33, 0
1, 228668, Note_off_c, 1, 57, 0
1, 228668, Note_off_c, 1, 67, 0
1, 228672, Note_on_c, 1, 76, 127
1, 228672, Note_on_c, 1, 64, 127
1, 228672, Note_on_c, 1, 57, 127
1, 228672, Note_on_c, 1, 43, 127
1, 228672, Note_on_c, 1, 31, 127
1, 228672, Note_on_c, 1, 61, 127
1, 228672, Note_on_c, 1, 55, 127
1, 228764, Note_off_c, 1, 61, 0
1, 228860, Note_off_c, 1, 76, 0
1, 228860, Note_off_c, 1, 64, 0
1, 228860, Note_off_c, 1, 57, 0
1, 228860, Note_off_c, 1, 43, 0
1, 228860, Note_off_c, 1, 31, 0
1, 228860, Note_off_c, 1, 55, 0
1, 228864, Note_on_c, 1, 77, 127
1, 228864, Note_on_c, 1, 62, 127
1, 228864, Note_on_c, 1, 41, 127
1, 228864, Note_on_c, 1, 29, 127
1, 228864, Note_on_c, 1, 69, 127
1, 228864, Note_on_c, 1, 53, 127
1, 228956, Note_off_c, 1, 69, 0
1, 228956, Note_off_c, 1, 53, 0
1, 229052, Note_off_c, 1, 77, 0
1, 229052, Note_off_c, 1, 62, 0
1, 229052, Note_off_c, 1, 41, 0
1, 229052, Note_off_c, 1, 29, 0
1, 229056, Note_on_c, 1, 62, 127
1, 229056, Note_on_c, 1, 65, 127
1, 229148, Note_off_c, 1, 65, 0
1, 229152, Note_on_c, 1, 50, 127
1, 229244, Note_off_c, 1, 62, 0
1, 229244, Note_off_c, 1, 50, 0
1, 229248, Note_on_c, 1, 77, 127
1, 229248, Note_on_c, 1, 64, 127
1, 229248, Note_on_c, 1, 46, 127
1, 229248, Note_on_c, 1, 34, 127
1, 229248, Note_on_c, 1, 61, 127
1, 229340, Note_off_c, 1, 61, 0
1, 229344, Note_on_c, 1, 50, 127
1, 229436, Note_off_c, 1, 77, 0
1, 229436, Note_off_c, 1, 64, 0
1, 229436, Note_off_c, 1, 46, 0
1, 229436, Note_off_c, 1, 34, 0
1, 229436, Note_off_c, 1, 50, 0
1, 229440, Note_on_c, 1, 65, 127
1, 229440, Note_on_c, 1, 62, 127
1, 229440, Note_on_c, 1, 45, 127
1, 229532, Note_off_c, 1, 45, 0
1, 229536, Note_on_c, 1, 50, 127
1, 229628, Note_off_c, 1, 65, 0
1, 229628, Note_off_c, 1, 62, 0
1, 229628, Note_off_c, 1, 50, 0
1, 229632, Note_on_c, 1, 75, 127
1, 229632, Note_on_c, 1, 67, 127
1, 229632, Note_on_c, 1, 70, 127
1, 229632, Note_on_c, 1, 43, 127
1, 229632, Note_on_c, 1, 31, 127
1, 229632, Note_on_c, 1, 63, 127
1, 229724, Note_off_c, 1, 63, 0
1, 229728, Note_on_c, 1, 50, 127
1, 229820, Note_off_c, 1, 75, 0
1, 229820, Note_off_c, 1, 67, 0
1, 229820, Note_off_c, 1, 70, 0
1, 229820, Note_off_c, 1, 43, 0
1, 229820, Note_off_c, 1, 31, 0
1, 229820, Note_off_c, 1, 50, 0
1, 229824, Note_on_c, 1, 70, 127
1, 229824, Note_on_c, 1, 62, 127
1, 229824, Note_on_c, 1, 40, 127
1, 229916, Note_off_c, 1, 62, 0
1, 229916, Note_off_c, 1, 40, 0
1, 229920, Note_on_c, 1, 50, 127
1, 230012, Note_off_c, 1, 70, 0
1, 230012, Note_off_c, 1, 50, 0
1, 230016, Note_on_c, 1, 73, 127
1, 230016, Note_on_c, 1, 69, 127
1, 230016, Note_on_c, 1, 64, 127
1, 230016, Note_on_c, 1, 45, 127
1, 230016, Note_on_c, 1, 33, 127
1, 230016, Note_on_c, 1, 61, 127
1, 230108, Note_off_c, 1, 61, 0
1, 230112, Note_on_c, 1, 49, 127
1, 230204, Note_off_c, 1, 73, 0
1, 230204, Note_off_c, 1, 69, 0
1, 230204, Note_off_c, 1, 64, 0
1, 230204, Note_off_c, 1, 45, 0
1, 230204, Note_off_c, 1, 33, 0
1, 230204, Note_off_c, 1, 49, 0
1, 230208, Note_on_c, 1, 67, 127
1, 230208, Note_on_c, 1, 64, 127
1, 230208, Note_on_c, 1, 45, 127
1, 230300, Note_off_c, 1, 64, 0
1, 230300, Note_off_c, 1, 45, 0
1, 230304, Note_on_c, 1, 49, 127
1, 230396, Note_off_c, 1, 67, 0
1, 230396, Note_off_c, 1, 49, 0
1, 230400, Note_on_c, 1, 74, 127
1, 230400, Note_on_c, 1, 65, 127
1, 230400, Note_on_c, 1, 62, 127
1, 230400, Note_on_c, 1, 46, 127
1, 230400, Note_on_c, 1, 34, 127
1, 230496, Note_on_c, 1, 50, 127
1, 230588, Note_off_c, 1, 74, 0
1, 230588, Note_off_c, 1, 65, 0
1, 230588, Note_off_c, 1, 62, 0
1, 230588, Note_off_c, 1, 46, 0
1, 230588, Note_off_c, 1, 34, 0
1, 230588, Note_off_c, 1, 50, 0
1, 230592, Note_on_c, 1, 67, 127
1, 230592, Note_on_c, 1, 62, 127
1, 230592, Note_on_c, 1, 46, 127
1, 230684, Note_off_c, 1, 62, 0
1, 230684, Note_off_c, 1, 46, 0
1, 230688, Note_on_c, 1, 50, 127
1, 230780, Note_off_c, 1, 67, 0
1, 230780, Note_off_c, 1, 50, 0
1, 230784, Note_on_c, 1, 69, 127
1, 230784, Note_on_c, 1, 41, 127
1, 230784, Note_on_c, 1, 29, 127
1, 230784, Note_on_c, 1, 61, 127
1, 230876, Note_off_c, 1, 61, 0
1, 230880, Note_on_c, 1, 50, 127
1, 230972, Note_off_c, 1, 69, 0
1, 230972, Note_off_c, 1, 41, 0
1, 230972, Note_off_c, 1, 29, 0
1, 230972, Note_off_c, 1, 50, 0
1, 230976, Note_on_c, 1, 65, 127
1, 230976, Note_on_c, 1, 62, 127
1, 230976, Note_on_c, 1, 41, 127
1, 231068, Note_off_c, 1, 41, 0
1, 231072, Note_on_c, 1, 50, 127
1, 231164, Note_off_c, 1, 65, 0
1, 231164, Note_off_c, 1, 62, 0
1, 231164, Note_off_c, 1, 50, 0
1, 231168, Note_on_c, 1, 67, 127
1, 231168, Note_on_c, 1, 70, 127
1, 231168, Note_on_c, 1, 58, 127
1, 231168, Note_on_c, 1, 43, 127
1, 231168, Note_on_c, 1, 31, 127
1, 231168, Note_on_c, 1, 63, 127
1, 231260, Note_off_c, 1, 63, 0
1, 231264, Note_on_c, 1, 50, 127
1, 231356, Note_off_c, 1, 67, 0
1, 231356, Note_off_c, 1, 70, 0
1, 231356, Note_off_c, 1, 58, 0
1, 231356, Note_off_c, 1, 43, 0
1, 231356, Note_off_c, 1, 31, 0
1, 231356, Note_off_c, 1, 50, 0
1, 231360, Note_on_c, 1, 67, 127
1, 231360, Note_on_c, 1, 62, 127
1, 231360, Note_on_c, 1, 43, 127
1, 231452, Note_off_c, 1, 62, 0
1, 231452, Note_off_c, 1, 43, 0
1, 231456, Note_on_c, 1, 50, 127
1, 231548, Note_off_c, 1, 67, 0
1, 231548, Note_off_c, 1, 50, 0
1, 231552, Note_on_c, 1, 64, 127
1, 231552, Note_on_c, 1, 61, 127
1, 231552, Note_on_c, 1, 57, 127
1, 231552, Note_on_c, 1, 45, 127
1, 231552, Note_on_c, 1, 33, 127
1, 231648, Note_on_c, 1, 49, 127
1, 231740, Note_off_c, 1, 64, 0
1, 231740, Note_off_c, 1, 61, 0
1, 231740, Note_off_c, 1, 57, 0
1, 231740, Note_off_c, 1, 45, 0
1, 231740, Note_off_c, 1, 33, 0
1, 231740, Note_off_c, 1, 49, 0
1, 231744, Note_on_c, 1, 69, 127
1, 231744, Note_on_c, 1, 61, 127
1, 231744, Note_on_c, 1, 45, 127
1, 231836, Note_off_c, 1, 61, 0
1, 231836, Note_off_c, 1, 45, 0
1, 231840, Note_on_c, 1, 49, 127
1, 231932, Note_off_c, 1, 69, 0
1, 231932, Note_off_c, 1, 49, 0
1, 231936, Note_on_c, 1, 65, 127
1, 231936, Note_on_c, 1, 69, 127
1, 231936, Note_on_c, 1, 57, 127
1, 231936, Note_on_c, 1, 38, 127
1, 231936, Note_on_c, 1, 26, 127
1, 231936, Note_on_c, 1, 62, 127
1, 232028, Note_off_c, 1, 62, 0
1, 232032, Note_on_c, 1, 50, 127
1, 232124, Note_off_c, 1, 65, 0
1, 232124, Note_off_c, 1, 57, 0
1, 232124, Note_off_c, 1, 50, 0
1, 232316, Note_off_c, 1, 69, 0
1, 232316, Note_off_c, 1, 38, 0
1, 232316, Note_off_c, 1, 26, 0
1, 232320, Note_on_c, 1, 67, 127
1, 232320, Note_on_c, 1, 62, 127
1, 232320, Note_on_c, 1, 61, 127
1, 232320, Note_on_c, 1, 64, 127
1, 232412, Note_off_c, 1, 61, 0
1, 232412, Note_off_c, 1, 64, 0
1, 232416, Note_on_c, 1, 38, 127
1, 232416, Note_on_c, 1, 50, 127
1, 232460, Note_off_c, 1, 62, 0
1, 232508, Note_off_c, 1, 67, 0
1, 232508, Note_off_c, 1, 38, 0
1, 232508, Note_off_c, 1, 50, 0
1, 232512, Note_on_c, 1, 69, 127
1, 232512, Note_on_c, 1, 62, 127
1, 232512, Note_on_c, 1, 65, 127
1, 232604, Note_off_c, 1, 65, 0
1, 232608, Note_on_c, 1, 38, 127
1, 232608, Note_on_c, 1, 50, 127
1, 232652, Note_off_c, 1, 62, 0
1, 232700, Note_off_c, 1, 69, 0
1, 232700, Note_off_c, 1, 38, 0
1, 232700, Note_off_c, 1, 50, 0
1, 232704, Note_on_c, 1, 70, 127
1, 232704, Note_on_c, 1, 73, 127
1, 232704, Note_on_c, 1, 62, 127
1, 232704, Note_on_c, 1, 64, 127
1, 232704, Note_on_c, 1, 67, 127
1, 232796, Note_off_c, 1, 64, 0
1, 232796, Note_off_c, 1, 67, 0
1, 232800, Note_on_c, 1, 38, 127
1, 232800, Note_on_c, 1, 50, 127
1, 232844, Note_off_c, 1, 62, 0
1, 232892, Note_off_c, 1, 70, 0
1, 232892, Note_off_c, 1, 38, 0
1, 232892, Note_off_c, 1, 50, 0
1, 232896, Note_on_c, 1, 69, 127
1, 232896, Note_on_c, 1, 65, 127
1, 232988, Note_off_c, 1, 65, 0
1, 233084, Note_off_c, 1, 73, 0
1, 233084, Note_off_c, 1, 69, 0
1, 233088, Note_on_c, 1, 70, 127
1, 233088, Note_on_c, 1, 62, 127
1, 233088, Note_on_c, 1, 64, 127
1, 233088, Note_on_c, 1, 67, 127
1, 233180, Note_off_c, 1, 64, 0
1, 233180, Note_off_c, 1, 67, 0
1, 233184, Note_on_c, 1, 38, 127
1, 233184, Note_on_c, 1, 50, 127
1, 233228, Note_off_c, 1, 62, 0
1, 233276, Note_off_c, 1, 70, 0
1, 233276, Note_off_c, 1, 38, 0
1, 233276, Note_off_c, 1, 50, 0
1, 233280, Note_on_c, 1, 67, 127
1, 233280, Note_on_c, 1, 62, 127
1, 233280, Note_on_c, 1, 61, 127
1, 233280, Note_on_c, 1, 64, 127
1, 233372, Note_off_c, 1, 61, 0
1, 233372, Note_off_c, 1, 64, 0
1, 233376, Note_on_c, 1, 38, 127
1, 233376, Note_on_c, 1, 50, 127
1, 233420, Note_off_c, 1, 62, 0
1, 233468, Note_off_c, 1, 67, 0
1, 233468, Note_off_c, 1, 38, 0
1, 233468, Note_off_c, 1, 50, 0
1, 233472, Note_on_c, 1, 69, 127
1, 233472, Note_on_c, 1, 74, 127
1, 233472, Note_on_c, 1, 62, 127
1, 233472, Note_on_c, 1, 38, 127
1, 233472, Note_on_c, 1, 26, 127
1, 233472, Note_on_c, 1, 65, 127
1, 233564, Note_off_c, 1, 65, 0
1, 233568, Note_on_c, 1, 50, 127
1, 233612, Note_off_c, 1, 62, 0
1, 233660, Note_off_c, 1, 69, 0
1, 233660, Note_off_c, 1, 50, 0
1, 233852, Note_off_c, 1, 74, 0
1, 233852, Note_off_c, 1, 38, 0
1, 233852, Note_off_c, 1, 26, 0
1, 233856, Note_on_c, 1, 67, 127
1, 233856, Note_on_c, 1, 62, 127
1, 233856, Note_on_c, 1, 61, 127
1, 233856, Note_on_c, 1, 64, 127
1, 233948, Note_off_c, 1, 61, 0
1, 233948, Note_off_c, 1, 64, 0
1, 233952, Note_on_c, 1, 38, 127
1, 233952, Note_on_c, 1, 50, 127
1, 233996, Note_off_c, 1, 62, 0
1, 234044, Note_off_c, 1, 67, 0
1, 234044, Note_off_c, 1, 38, 0
1, 234044, Note_off_c, 1, 50, 0
1, 234048, Note_on_c, 1, 69, 127
1, 234048, Note_on_c, 1, 62, 127
1, 234048, Note_on_c, 1, 65, 127
1, 234140, Note_off_c, 1, 65, 0
1, 234144, Note_on_c, 1, 38, 127
1, 234144, Note_on_c, 1, 50, 127
1, 234188, Note_off_c, 1, 62, 0
1, 234236, Note_off_c, 1, 69, 0
1, 234236, Note_off_c, 1, 38, 0
1, 234236, Note_off_c, 1, 50, 0
1, 234240, Note_on_c, 1, 70, 127
1, 234240, Note_on_c, 1, 73, 127
1, 234240, Note_on_c, 1, 62, 127
1, 234240, Note_on_c, 1, 64, 127
1, 234240, Note_on_c, 1, 67, 127
1, 234332, Note_off_c, 1, 64, 0
1, 234332, Note_off_c, 1, 67, 0
1, 234336, Note_on_c, 1, 38, 127
1, 234336, Note_on_c, 1, 50, 127
1, 234380, Note_off_c, 1, 62, 0
1, 234428, Note_off_c, 1, 70, 0
1, 234428, Note_off_c, 1, 38, 0
1, 234428, Note_off_c, 1, 50, 0
1, 234432, Note_on_c, 1, 69, 127
1, 234432, Note_on_c, 1, 65, 127
1, 234524, Note_off_c, 1, 65, 0
1, 234620, Note_off_c, 1, 73, 0
1, 234620, Note_off_c, 1, 69, 0
1, 234624, Note_on_c, 1, 70, 127
1, 234624, Note_on_c, 1, 62, 127
1, 234624, Note_on_c, 1, 64, 127
1, 234624, Note_on_c, 1, 67, 127
1, 234716, Note_off_c, 1, 64, 0
1, 234716, Note_off_c, 1, 67, 0
1, 234720, Note_on_c, 1, 38, 127
1, 234720, Note_on_c, 1, 50, 127
1, 234764, Note_off_c, 1, 62, 0
1, 234812, Note_off_c, 1, 70, 0
1, 234812, Note_off_c, 1, 38, 0
1, 234812, Note_off_c, 1, 50, 0
1, 234816, Note_on_c, 1, 67, 127
1, 234816, Note_on_c, 1, 62, 127
1, 234816, Note_on_c, 1, 61, 127
1, 234816, Note_on_c, 1, 64, 127
1, 234908, Note_off_c, 1, 61, 0
1, 234908, Note_off_c, 1, 64, 0
1, 234912, Note_on_c, 1, 38, 127
1, 234912, Note_on_c, 1, 50, 127
1, 234956, Note_off_c, 1, 62, 0
1, 235004, Note_off_c, 1, 67, 0
1, 235004, Note_off_c, 1, 38, 0
1, 235004, Note_off_c, 1, 50, 0
1, 235008, Note_on_c, 1, 69, 127
1, 235008, Note_on_c, 1, 74, 127
1, 235008, Note_on_c, 1, 62, 127
1, 235008, Note_on_c, 1, 38, 127
1, 235008, Note_on_c, 1, 26, 127
1, 235008, Note_on_c, 1, 65, 127
1, 235100, Note_off_c, 1, 65, 0
1, 235104, Note_on_c, 1, 50, 127
1, 235148, Note_off_c, 1, 62, 0
1, 235196, Note_off_c, 1, 69, 0
1, 235196, Note_off_c, 1, 50, 0
1, 235388, Note_off_c, 1, 38, 0
1, 235388, Note_off_c, 1, 26, 0
1, 235392, Note_on_c, 1, 67, 127
1, 235392, Note_on_c, 1, 70, 127
1, 235484, Note_off_c, 1, 67, 0
1, 235484, Note_off_c, 1, 70, 0
1, 235580, Note_off_c, 1, 74, 0
1, 235584, Note_on_c, 1, 73, 127
1, 235584, Note_on_c, 1, 62, 127
1, 235584, Note_on_c, 1, 64, 127
1, 235584, Note_on_c, 1, 67, 127
1, 235676, Note_off_c, 1, 64, 0
1, 235676, Note_off_c, 1, 67, 0
1, 235680, Note_on_c, 1, 38, 127
1, 235680, Note_on_c, 1, 50, 127
1, 235724, Note_off_c, 1, 62, 0
1, 235772, Note_off_c, 1, 73, 0
1, 235772, Note_off_c, 1, 38, 0
1, 235772, Note_off_c, 1, 50, 0
1, 235776, Note_on_c, 1, 74, 127
1, 235776, Note_on_c, 1, 62, 127
1, 235776, Note_on_c, 1, 65, 127
1, 235776, Note_on_c, 1, 69, 127
1, 235868, Note_off_c, 1, 65, 0
1, 235868, Note_off_c, 1, 69, 0
1, 235872, Note_on_c, 1, 38, 127
1, 235872, Note_on_c, 1, 50, 127
1, 235916, Note_off_c, 1, 62, 0
1, 235964, Note_off_c, 1, 74, 0
1, 235964, Note_off_c, 1, 38, 0
1, 235964, Note_off_c, 1, 50, 0
1, 235968, Note_on_c, 1, 69, 127
1, 235968, Note_on_c, 1, 74, 127
1, 235968, Note_on_c, 1, 62, 127
1, 235968, Note_on_c, 1, 65, 127
1, 236060, Note_off_c, 1, 65, 0
1, 236064, Note_on_c, 1, 38, 127
1, 236064, Note_on_c, 1, 50, 127
1, 236108, Note_off_c, 1, 62, 0
1, 236156, Note_off_c, 1, 69, 0
1, 236156, Note_off_c, 1, 74, 0
1, 236156, Note_off_c, 1, 38, 0
1, 236156, Note_off_c, 1, 50, 0
1, 236160, Note_on_c, 1, 70, 127
1, 236160, Note_on_c, 1, 73, 127
1, 236160, Note_on_c, 1, 62, 127
1, 236160, Note_on_c, 1, 64, 127
1, 236160, Note_on_c, 1, 67, 127
1, 236252, Note_off_c, 1, 64, 0
1, 236252, Note_off_c, 1, 67, 0
1, 236256, Note_on_c, 1, 38, 127
1, 236256, Note_on_c, 1, 50, 127
1, 236300, Note_off_c, 1, 62, 0
1, 236348, Note_off_c, 1, 70, 0
1, 236348, Note_off_c, 1, 73, 0
1, 236348, Note_off_c, 1, 38, 0
1, 236348, Note_off_c, 1, 50, 0
1, 236352, Note_on_c, 1, 67, 127
1, 236352, Note_on_c, 1, 76, 127
1, 236352, Note_on_c, 1, 62, 127
1, 236352, Note_on_c, 1, 61, 127
1, 236352, Note_on_c, 1, 64, 127
1, 236444, Note_off_c, 1, 61, 0
1, 236444, Note_off_c, 1, 64, 0
1, 236448, Note_on_c, 1, 38, 127
1, 236448, Note_on_c, 1, 50, 127
1, 236492, Note_off_c, 1, 62, 0
1, 236540, Note_off_c, 1, 67, 0
1, 236540, Note_off_c, 1, 76, 0
1, 236540, Note_off_c, 1, 38, 0
1, 236540, Note_off_c, 1, 50, 0
1, 236544, Note_on_c, 1, 69, 127
1, 236544, Note_on_c, 1, 74, 127
1, 236544, Note_on_c, 1, 62, 127
1, 236544, Note_on_c, 1, 38, 127
1, 236544, Note_on_c, 1, 26, 127
1, 236544, Note_on_c, 1, 65, 127
1, 236636, Note_off_c, 1, 65, 0
1, 236640, Note_on_c, 1, 50, 127
1, 236684, Note_off_c, 1, 62, 0
1, 236732, Note_off_c, 1, 69, 0
1, 236732, Note_off_c, 1, 50, 0
1, 236924, Note_off_c, 1, 74, 0
1, 236924, Note_off_c, 1, 38, 0
1, 236924, Note_off_c, 1, 26, 0
1, 236928, Note_on_c, 1, 65, 127
1, 236928, Note_on_c, 1, 62, 127
1, 236928, Note_on_c, 1, 67, 127
1, 236928, Note_on_c, 1, 71, 127
1, 237020, Note_off_c, 1, 67, 0
1, 237020, Note_off_c, 1, 71, 0
1, 237024, Note_on_c, 1, 38, 127
1, 237024, Note_on_c, 1, 50, 127
1, 237068, Note_off_c, 1, 62, 0
1, 237100, Note_off_c, 1, 65, 0
1, 237116, Note_off_c, 1, 38, 0
1, 237116, Note_off_c, 1, 50, 0
1, 237120, Note_on_c, 1, 64, 127
1, 237120, Note_on_c, 1, 62, 127
1, 237120, Note_on_c, 1, 73, 127
1, 237212, Note_off_c, 1, 73, 0
1, 237216, Note_on_c, 1, 38, 127
1, 237216, Note_on_c, 1, 50, 127
1, 237260, Note_off_c, 1, 62, 0
1, 237308, Note_off_c, 1, 64, 0
1, 237308, Note_off_c, 1, 38, 0
1, 237308, Note_off_c, 1, 50, 0
1, 237312, Note_on_c, 1, 62, 127
1, 237312, Note_on_c, 1, 65, 127
1, 237312, Note_on_c, 1, 74, 127
1, 237404, Note_off_c, 1, 65, 0
1, 237404, Note_off_c, 1, 74, 0
1, 237408, Note_on_c, 1, 38, 127
1, 237408, Note_on_c, 1, 50, 127
1, 237500, Note_off_c, 1, 62, 0
1, 237500, Note_off_c, 1, 38, 0
1, 237500, Note_off_c, 1, 50, 0
1, 237504, Note_on_c, 1, 74, 127
1, 237504, Note_on_c, 1, 65, 127
1, 237504, Note_on_c, 1, 62, 127
1, 237504, Note_on_c, 1, 57, 127
1, 237596, Note_off_c, 1, 57, 0
1, 237600, Note_on_c, 1, 38, 127
1, 237600, Note_on_c, 1, 50, 127
1, 237644, Note_off_c, 1, 62, 0
1, 237692, Note_off_c, 1, 74, 0
1, 237692, Note_off_c, 1, 65, 0
1, 237692, Note_off_c, 1, 38, 0
1, 237692, Note_off_c, 1, 50, 0
1, 237696, Note_on_c, 1, 76, 127
1, 237696, Note_on_c, 1, 64, 127
1, 237696, Note_on_c, 1, 62, 127
1, 237696, Note_on_c, 1, 59, 127
1, 237696, Note_on_c, 1, 67, 127
1, 237788, Note_off_c, 1, 59, 0
1, 237788, Note_off_c, 1, 67, 0
1, 237792, Note_on_c, 1, 38, 127
1, 237792, Note_on_c, 1, 50, 127
1, 237836, Note_off_c, 1, 62, 0
1, 237868, Note_off_c, 1, 76, 0
1, 237868, Note_off_c, 1, 64, 0
1, 237884, Note_off_c, 1, 38, 0
1, 237884, Note_off_c, 1, 50, 0
1, 237888, Note_on_c, 1, 76, 127
1, 237888, Note_on_c, 1, 64, 127
1, 237888, Note_on_c, 1, 62, 127
1, 237888, Note_on_c, 1, 61, 127
1, 237980, Note_off_c, 1, 61, 0
1, 237984, Note_on_c, 1, 38, 127
1, 237984, Note_on_c, 1, 50, 127
1, 238028, Note_off_c, 1, 62, 0
1, 238076, Note_off_c, 1, 76, 0
1, 238076, Note_off_c, 1, 64, 0
1, 238076, Note_off_c, 1, 38, 0
1, 238076, Note_off_c, 1, 50, 0
1, 238080, Note_on_c, 1, 69, 127
1, 238080, Note_on_c, 1, 62, 127
1, 238080, Note_on_c, 1, 38, 127
1, 238080, Note_on_c, 1, 26, 127
1, 238080, Note_on_c, 1, 65, 127
1, 238172, Note_off_c, 1, 65, 0
1, 238176, Note_on_c, 1, 50, 127
1, 238268, Note_off_c, 1, 50, 0
1, 238460, Note_off_c, 1, 69, 0
1, 238460, Note_off_c, 1, 62, 0
1, 238460, Note_off_c, 1, 38, 0
1, 238460, Note_off_c, 1, 26, 0
1, 238464, Note_on_c, 1, 64, 127
1, 238464, Note_on_c, 1, 67, 127
1, 238556, Note_off_c, 1, 64, 0
1, 238556, Note_off_c, 1, 67, 0
1, 238560, Note_on_c, 1, 38, 127
1, 238560, Note_on_c, 1, 50, 127
1, 238652, Note_off_c, 1, 38, 0
1, 238652, Note_off_c, 1, 50, 0
1, 238656, Note_on_c, 1, 65, 127
1, 238656, Note_on_c, 1, 69, 127
1, 238748, Note_off_c, 1, 65, 0
1, 238748, Note_off_c, 1, 69, 0
1, 238752, Note_on_c, 1, 38, 127
1, 238752, Note_on_c, 1, 50, 127
1, 238844, Note_off_c, 1, 38, 0
1, 238844, Note_off_c, 1, 50, 0
1, 238848, Note_on_c, 1, 67, 127
1, 238848, Note_on_c, 1, 71, 127
1, 238940, Note_off_c, 1, 67, 0
1, 238940, Note_off_c, 1, 71, 0
1, 238944, Note_on_c, 1, 38, 127
1, 238944, Note_on_c, 1, 50, 127
1, 239036, Note_off_c, 1, 38, 0
1, 239036, Note_off_c, 1, 50, 0
1, 239040, Note_on_c, 1, 69, 127
1, 239040, Note_on_c, 1, 73, 127
1, 239132, Note_off_c, 1, 69, 0
1, 239132, Note_off_c, 1, 73, 0
1, 239136, Note_on_c, 1, 38, 127
1, 239136, Note_on_c, 1, 50, 127
1, 239228, Note_off_c, 1, 38, 0
1, 239228, Note_off_c, 1, 50, 0
1, 239232, Note_on_c, 1, 71, 127
1, 239232, Note_on_c, 1, 74, 127
1, 239324, Note_off_c, 1, 71, 0
1, 239324, Note_off_c, 1, 74, 0
1, 239328, Note_on_c, 1, 38, 127
1, 239328, Note_on_c, 1, 50, 127
1, 239420, Note_off_c, 1, 38, 0
1, 239420, Note_off_c, 1, 50, 0
1, 239424, Note_on_c, 1, 73, 127
1, 239424, Note_on_c, 1, 76, 127
1, 239516, Note_off_c, 1, 73, 0
1, 239516, Note_off_c, 1, 76, 0
1, 239520, Note_on_c, 1, 38, 127
1, 239520, Note_on_c, 1, 50, 127
1, 239612, Note_off_c, 1, 38, 0
1, 239612, Note_off_c, 1, 50, 0
1, 239616, Note_on_c, 1, 69, 127
1, 239616, Note_on_c, 1, 65, 127
1, 239616, Note_on_c, 1, 62, 127
1, 239616, Note_on_c, 1, 38, 127
1, 239616, Note_on_c, 1, 26, 127
1, 239616, Note_on_c, 1, 74, 127
1, 239616, Note_on_c, 1, 77, 127
1, 239708, Note_off_c, 1, 74, 0
1, 239708, Note_off_c, 1, 77, 0
1, 239712, Note_on_c, 1, 50, 127
1, 239804, Note_off_c, 1, 50, 0
1, 239996, Note_off_c, 1, 69, 0
1, 239996, Note_off_c, 1, 65, 0
1, 239996, Note_off_c, 1, 62, 0
1, 239996, Note_off_c, 1, 38, 0
1, 239996, Note_off_c, 1, 26, 0
1, 240000, Note_on_c, 1, 81, 127
1, 240000, Note_on_c, 1, 72, 127
1, 240092, Note_off_c, 1, 81, 0
1, 240092, Note_off_c, 1, 72, 0
1, 240096, Note_on_c, 1, 38, 127
1, 240096, Note_on_c, 1, 50, 127
1, 240188, Note_off_c, 1, 38, 0
1, 240188, Note_off_c, 1, 50, 0
1, 240192, Note_on_c, 1, 81, 127
1, 240192, Note_on_c, 1, 72, 127
1, 240284, Note_off_c, 1, 81, 0
1, 240284, Note_off_c, 1, 72, 0
1, 240288, Note_on_c, 1, 38, 127
1, 240288, Note_on_c, 1, 50, 127
1, 240380, Note_off_c, 1, 38, 0
1, 240380, Note_off_c, 1, 50, 0
1, 240384, Note_on_c, 1, 71, 127
1, 240384, Note_on_c, 1, 81, 127
1, 240476, Note_off_c, 1, 71, 0
1, 240476, Note_off_c, 1, 81, 0
1, 240480, Note_on_c, 1, 38, 127
1, 240480, Note_on_c, 1, 50, 127
1, 240572, Note_off_c, 1, 38, 0
1, 240572, Note_off_c, 1, 50, 0
1, 240576, Note_on_c, 1, 71, 127
1, 240576, Note_on_c, 1, 81, 127
1, 240668, Note_off_c, 1, 71, 0
1, 240668, Note_off_c, 1, 81, 0
1, 240672, Note_on_c, 1, 38, 127
1, 240672, Note_on_c, 1, 50, 127
1, 240764, Note_off_c, 1, 38, 0
1, 240764, Note_off_c, 1, 50, 0
1, 240768, Note_on_c, 1, 70, 127
1, 240768, Note_on_c, 1, 79, 127
1, 240860, Note_off_c, 1, 70, 0
1, 240860, Note_off_c, 1, 79, 0
1, 240864, Note_on_c, 1, 38, 127
1, 240864, Note_on_c, 1, 50, 127
1, 240956, Note_off_c, 1, 38, 0
1, 240956, Note_off_c, 1, 50, 0
1, 240960, Note_on_c, 1, 70, 127
1, 240960, Note_on_c, 1, 79, 127
1, 241052, Note_off_c, 1, 70, 0
1, 241052, Note_off_c, 1, 79, 0
1, 241056, Note_on_c, 1, 38, 127
1, 241056, Note_on_c, 1, 50, 127
1, 241148, Note_off_c, 1, 38, 0
1, 241148, Note_off_c, 1, 50, 0
1, 241152, Note_on_c, 1, 69, 127
1, 241152, Note_on_c, 1, 79, 127
1, 241244, Note_off_c, 1, 69, 0
1, 241244, Note_off_c, 1, 79, 0
1, 241248, Note_on_c, 1, 38, 127
1, 241248, Note_on_c, 1, 50, 127
1, 241340, Note_off_c, 1, 38, 0
1, 241340, Note_off_c, 1, 50, 0
1, 241344, Note_on_c, 1, 69, 127
1, 241344, Note_on_c, 1, 79, 127
1, 241436, Note_off_c, 1, 69, 0
1, 241436, Note_off_c, 1, 79, 0
1, 241440, Note_on_c, 1, 38, 127
1, 241440, Note_on_c, 1, 50, 127
1, 241532, Note_off_c, 1, 38, 0
1, 241532, Note_off_c, 1, 50, 0
1, 241536, Note_on_c, 1, 69, 127
1, 241536, Note_on_c, 1, 77, 127
1, 241628, Note_off_c, 1, 69, 0
1, 241628, Note_off_c, 1, 77, 0
1, 241632, Note_on_c, 1, 38, 127
1, 241632, Note_on_c, 1, 50, 127
1, 241724, Note_off_c, 1, 38, 0
1, 241724, Note_off_c, 1, 50, 0
1, 241728, Note_on_c, 1, 69, 127
1, 241728, Note_on_c, 1, 77, 127
1, 241820, Note_off_c, 1, 69, 0
1, 241820, Note_off_c, 1, 77, 0
1, 241824, Note_on_c, 1, 38, 127
1, 241824, Note_on_c, 1, 50, 127
1, 241916, Note_off_c, 1, 38, 0
1, 241916, Note_off_c, 1, 50, 0
1, 241920, Note_on_c, 1, 68, 127
1, 241920, Note_on_c, 1, 77, 127
1, 242012, Note_off_c, 1, 68, 0
1, 242012, Note_off_c, 1, 77, 0
1, 242016, Note_on_c, 1, 38, 127
1, 242016, Note_on_c, 1, 50, 127
1, 242108, Note_off_c, 1, 38, 0
1, 242108, Note_off_c, 1, 50, 0
1, 242112, Note_on_c, 1, 68, 127
1, 242112, Note_on_c, 1, 77, 127
1, 242204, Note_off_c, 1, 68, 0
1, 242204, Note_off_c, 1, 77, 0
1, 242208, Note_on_c, 1, 38, 127
1, 242208, Note_on_c, 1, 50, 127
1, 242300, Note_off_c, 1, 38, 0
1, 242300, Note_off_c, 1, 50, 0
1, 242304, Note_on_c, 1, 67, 127
1, 242304, Note_on_c, 1, 76, 127
1, 242396, Note_off_c, 1, 67, 0
1, 242396, Note_off_c, 1, 76, 0
1, 242400, Note_on_c, 1, 38, 127
1, 242400, Note_on_c, 1, 50, 127
1, 242492, Note_off_c, 1, 38, 0
1, 242492, Note_off_c, 1, 50, 0
1, 242496, Note_on_c, 1, 67, 127
1, 242496, Note_on_c, 1, 76, 127
1, 242588, Note_off_c, 1, 67, 0
1, 242588, Note_off_c, 1, 76, 0
1, 242592, Note_on_c, 1, 38, 127
1, 242592, Note_on_c, 1, 50, 127
1, 242684, Note_off_c, 1, 38, 0
1, 242684, Note_off_c, 1, 50, 0
1, 242688, Note_on_c, 1, 66, 127
1, 242688, Note_on_c, 1, 76, 127
1, 242780, Note_off_c, 1, 66, 0
1, 242780, Note_off_c, 1, 76, 0
1, 242784, Note_on_c, 1, 38, 127
1, 242784, Note_on_c, 1, 50, 127
1, 242876, Note_off_c, 1, 38, 0
1, 242876, Note_off_c, 1, 50, 0
1, 242880, Note_on_c, 1, 66, 127
1, 242880, Note_on_c, 1, 76, 127
1, 242972, Note_off_c, 1, 66, 0
1, 242972, Note_off_c, 1, 76, 0
1, 242976, Note_on_c, 1, 38, 127
1, 242976, Note_on_c, 1, 50, 127
1, 243068, Note_off_c, 1, 38, 0
1, 243068, Note_off_c, 1, 50, 0
1, 243072, Note_on_c, 1, 65, 127
1, 243072, Note_on_c, 1, 74, 127
1, 243164, Note_off_c, 1, 65, 0
1, 243164, Note_off_c, 1, 74, 0
1, 243168, Note_on_c, 1, 38, 127
1, 243168, Note_on_c, 1, 50, 127
1, 243260, Note_off_c, 1, 38, 0
1, 243260, Note_off_c, 1, 50, 0
1, 243264, Note_on_c, 1, 65, 127
1, 243264, Note_on_c, 1, 74, 127
1, 243356, Note_off_c, 1, 65, 0
1, 243356, Note_off_c, 1, 74, 0
1, 243360, Note_on_c, 1, 38, 127
1, 243360, Note_on_c, 1, 50, 127
1, 243452, Note_off_c, 1, 38, 0
1, 243452, Note_off_c, 1, 50, 0
1, 243456, Note_on_c, 1, 64, 127
1, 243456, Note_on_c, 1, 74, 127
1, 243548, Note_off_c, 1, 64, 0
1, 243548, Note_off_c, 1, 74, 0
1, 243552, Note_on_c, 1, 38, 127
1, 243552, Note_on_c, 1, 50, 127
1, 243644, Note_off_c, 1, 38, 0
1, 243644, Note_off_c, 1, 50, 0
1, 243648, Note_on_c, 1, 64, 127
1, 243648, Note_on_c, 1, 74, 127
1, 243740, Note_off_c, 1, 64, 0
1, 243740, Note_off_c, 1, 74, 0
1, 243744, Note_on_c, 1, 38, 127
1, 243744, Note_on_c, 1, 50, 127
1, 243836, Note_off_c, 1, 38, 0
1, 243836, Note_off_c, 1, 50, 0
1, 243840, Note_on_c, 1, 63, 127
1, 243840, Note_on_c, 1, 72, 127
1, 243932, Note_off_c, 1, 63, 0
1, 243932, Note_off_c, 1, 72, 0
1, 243936, Note_on_c, 1, 38, 127
1, 243936, Note_on_c, 1, 50, 127
1, 244028, Note_off_c, 1, 38, 0
1, 244028, Note_off_c, 1, 50, 0
1, 244032, Note_on_c, 1, 63, 127
1, 244032, Note_on_c, 1, 72, 127
1, 244124, Note_off_c, 1, 63, 0
1, 244124, Note_off_c, 1, 72, 0
1, 244128, Note_on_c, 1, 38, 127
1, 244128, Note_on_c, 1, 50, 127
1, 244220, Note_off_c, 1, 38, 0
1, 244220, Note_off_c, 1, 50, 0
1, 244224, Note_on_c, 1, 62, 127
1, 244224, Note_on_c, 1, 72, 127
1, 244316, Note_off_c, 1, 62, 0
1, 244316, Note_off_c, 1, 72, 0
1, 244320, Note_on_c, 1, 38, 127
1, 244320, Note_on_c, 1, 50, 127
1, 244412, Note_off_c, 1, 38, 0
1, 244412, Note_off_c, 1, 50, 0
1, 244416, Note_on_c, 1, 62, 127
1, 244416, Note_on_c, 1, 72, 127
1, 244508, Note_off_c, 1, 62, 0
1, 244508, Note_off_c, 1, 72, 0
1, 244512, Note_on_c, 1, 38, 127
1, 244512, Note_on_c, 1, 50, 127
1, 244604, Note_off_c, 1, 38, 0
1, 244604, Note_off_c, 1, 50, 0
1, 244608, Note_on_c, 1, 67, 127
1, 244608, Note_on_c, 1, 70, 127
1, 244700, Note_off_c, 1, 67, 0
1, 244700, Note_off_c, 1, 70, 0
1, 244704, Note_on_c, 1, 38, 127
1, 244704, Note_on_c, 1, 50, 127
1, 244796, Note_off_c, 1, 38, 0
1, 244796, Note_off_c, 1, 50, 0
1, 244800, Note_on_c, 1, 67, 127
1, 244800, Note_on_c, 1, 70, 127
1, 244892, Note_off_c, 1, 67, 0
1, 244892, Note_off_c, 1, 70, 0
1, 244896, Note_on_c, 1, 38, 127
1, 244896, Note_on_c, 1, 50, 127
1, 244988, Note_off_c, 1, 38, 0
1, 244988, Note_off_c, 1, 50, 0
1, 244992, Note_on_c, 1, 67, 127
1, 244992, Note_on_c, 1, 69, 127
1, 245084, Note_off_c, 1, 67, 0
1, 245084, Note_off_c, 1, 69, 0
1, 245088, Note_on_c, 1, 38, 127
1, 245088, Note_on_c, 1, 50, 127
1, 245180, Note_off_c, 1, 38, 0
1, 245180, Note_off_c, 1, 50, 0
1, 245184, Note_on_c, 1, 67, 127
1, 245184, Note_on_c, 1, 69, 127
1, 245276, Note_off_c, 1, 67, 0
1, 245276, Note_off_c, 1, 69, 0
1, 245280, Note_on_c, 1, 38, 127
1, 245280, Note_on_c, 1, 50, 127
1, 245372, Note_off_c, 1, 38, 0
1, 245372, Note_off_c, 1, 50, 0
1, 245376, Note_on_c, 1, 65, 127
1, 245376, Note_on_c, 1, 74, 127
1, 245468, Note_off_c, 1, 65, 0
1, 245468, Note_off_c, 1, 74, 0
1, 245472, Note_on_c, 1, 38, 127
1, 245472, Note_on_c, 1, 50, 127
1, 245564, Note_off_c, 1, 38, 0
1, 245564, Note_off_c, 1, 50, 0
1, 245568, Note_on_c, 1, 65, 127
1, 245568, Note_on_c, 1, 74, 127
1, 245660, Note_off_c, 1, 65, 0
1, 245660, Note_off_c, 1, 74, 0
1, 245664, Note_on_c, 1, 38, 127
1, 245664, Note_on_c, 1, 50, 127
1, 245756, Note_off_c, 1, 38, 0
1, 245756, Note_off_c, 1, 50, 0
1, 245760, Note_on_c, 1, 64, 127
1, 245760, Note_on_c, 1, 74, 127
1, 245852, Note_off_c, 1, 64, 0
1, 245852, Note_off_c, 1, 74, 0
1, 245856, Note_on_c, 1, 38, 127
1, 245856, Note_on_c, 1, 50, 127
1, 245948, Note_off_c, 1, 38, 0
1, 245948, Note_off_c, 1, 50, 0
1, 245952, Note_on_c, 1, 64, 127
1, 245952, Note_on_c, 1, 74, 127
1, 246044, Note_off_c, 1, 64, 0
1, 246044, Note_off_c, 1, 74, 0
1, 246048, Note_on_c, 1, 38, 127
1, 246048, Note_on_c, 1, 50, 127
1, 246140, Note_off_c, 1, 38, 0
1, 246140, Note_off_c, 1, 50, 0
1, 246144, Note_on_c, 1, 69, 127
1, 246144, Note_on_c, 1, 72, 127
1, 246236, Note_off_c, 1, 69, 0
1, 246236, Note_off_c, 1, 72, 0
1, 246240, Note_on_c, 1, 38, 127
1, 246240, Note_on_c, 1, 50, 127
1, 246332, Note_off_c, 1, 38, 0
1, 246332, Note_off_c, 1, 50, 0
1, 246336, Note_on_c, 1, 69, 127
1, 246336, Note_on_c, 1, 72, 127
1, 246428, Note_off_c, 1, 69, 0
1, 246428, Note_off_c, 1, 72, 0
1, 246432, Note_on_c, 1, 38, 127
1, 246432, Note_on_c, 1, 50, 127
1, 246524, Note_off_c, 1, 38, 0
1, 246524, Note_off_c, 1, 50, 0
1, 246528, Note_on_c, 1, 69, 127
1, 246528, Note_on_c, 1, 70, 127
1, 246620, Note_off_c, 1, 69, 0
1, 246620, Note_off_c, 1, 70, 0
1, 246624, Note_on_c, 1, 38, 127
1, 246624, Note_on_c, 1, 50, 127
1, 246716, Note_off_c, 1, 38, 0
1, 246716, Note_off_c, 1, 50, 0
1, 246720, Note_on_c, 1, 69, 127
1, 246720, Note_on_c, 1, 70, 127
1, 246812, Note_off_c, 1, 69, 0
1, 246812, Note_off_c, 1, 70, 0
1, 246816, Note_on_c, 1, 38, 127
1, 246816, Note_on_c, 1, 50, 127
1, 246908, Note_off_c, 1, 38, 0
1, 246908, Note_off_c, 1, 50, 0
1, 246912, Note_on_c, 1, 67, 127
1, 246912, Note_on_c, 1, 70, 127
1, 247004, Note_off_c, 1, 67, 0
1, 247004, Note_off_c, 1, 70, 0
1, 247008, Note_on_c, 1, 38, 127
1, 247008, Note_on_c, 1, 50, 127
1, 247100, Note_off_c, 1, 38, 0
1, 247100, Note_off_c, 1, 50, 0
1, 247104, Note_on_c, 1, 67, 127
1, 247104, Note_on_c, 1, 70, 127
1, 247196, Note_off_c, 1, 67, 0
1, 247196, Note_off_c, 1, 70, 0
1, 247200, Note_on_c, 1, 38, 127
1, 247200, Note_on_c, 1, 50, 127
1, 247292, Note_off_c, 1, 38, 0
1, 247292, Note_off_c, 1, 50, 0
1, 247296, Note_on_c, 1, 67, 127
1, 247296, Note_on_c, 1, 69, 127
1, 247388, Note_off_c, 1, 67, 0
1, 247388, Note_off_c, 1, 69, 0
1, 247392, Note_on_c, 1, 38, 127
1, 247392, Note_on_c, 1, 50, 127
1, 247484, Note_off_c, 1, 38, 0
1, 247484, Note_off_c, 1, 50, 0
1, 247488, Note_on_c, 1, 67, 127
1, 247488, Note_on_c, 1, 69, 127
1, 247580, Note_off_c, 1, 67, 0
1, 247580, Note_off_c, 1, 69, 0
1, 247584, Note_on_c, 1, 38, 127
1, 247584, Note_on_c, 1, 50, 127
1, 247676, Note_off_c, 1, 38, 0
1, 247676, Note_off_c, 1, 50, 0
1, 247680, Note_on_c, 1, 65, 127
1, 247680, Note_on_c, 1, 69, 127
1, 247772, Note_off_c, 1, 65, 0
1, 247772, Note_off_c, 1, 69, 0
1, 247776, Note_on_c, 1, 38, 127
1, 247776, Note_on_c, 1, 50, 127
1, 247868, Note_off_c, 1, 38, 0
1, 247868, Note_off_c, 1, 50, 0
1, 247872, Note_on_c, 1, 65, 127
1, 247872, Note_on_c, 1, 69, 127
1, 247964, Note_off_c, 1, 65, 0
1, 247964, Note_off_c, 1, 69, 0
1, 247968, Note_on_c, 1, 38, 127
1, 247968, Note_on_c, 1, 50, 127
1, 248060, Note_off_c, 1, 38, 0
1, 248060, Note_off_c, 1, 50, 0
1, 248064, Note_on_c, 1, 65, 127
1, 248064, Note_on_c, 1, 67, 127
1, 248156, Note_off_c, 1, 65, 0
1, 248156, Note_off_c, 1, 67, 0
1, 248160, Note_on_c, 1, 38, 127
1, 248160, Note_on_c, 1, 50, 127
1, 248252, Note_off_c, 1, 38, 0
1, 248252, Note_off_c, 1, 50, 0
1, 248256, Note_on_c, 1, 65, 127
1, 248256, Note_on_c, 1, 67, 127
1, 248348, Note_off_c, 1, 65, 0
1, 248348, Note_off_c, 1, 67, 0
1, 248352, Note_on_c, 1, 38, 127
1, 248352, Note_on_c, 1, 50, 127
1, 248444, Note_off_c, 1, 38, 0
1, 248444, Note_off_c, 1, 50, 0
1, 248448, Note_on_c, 1, 64, 127
1, 248448, Note_on_c, 1, 67, 127
1, 248540, Note_off_c, 1, 64, 0
1, 248540, Note_off_c, 1, 67, 0
1, 248544, Note_on_c, 1, 38, 127
1, 248544, Note_on_c, 1, 50, 127
1, 248636, Note_off_c, 1, 38, 0
1, 248636, Note_off_c, 1, 50, 0
1, 248640, Note_on_c, 1, 64, 127
1, 248640, Note_on_c, 1, 67, 127
1, 248732, Note_off_c, 1, 64, 0
1, 248732, Note_off_c, 1, 67, 0
1, 248736, Note_on_c, 1, 38, 127
1, 248736, Note_on_c, 1, 50, 127
1, 248828, Note_off_c, 1, 38, 0
1, 248828, Note_off_c, 1, 50, 0
1, 248832, Note_on_c, 1, 64, 127
1, 248832, Note_on_c, 1, 65, 127
1, 248924, Note_off_c, 1, 64, 0
1, 248924, Note_off_c, 1, 65, 0
1, 248928, Note_on_c, 1, 38, 127
1, 248928, Note_on_c, 1, 50, 127
1, 249020, Note_off_c, 1, 38, 0
1, 249020, Note_off_c, 1, 50, 0
1, 249024, Note_on_c, 1, 64, 127
1, 249024, Note_on_c, 1, 65, 127
1, 249116, Note_off_c, 1, 64, 0
1, 249116, Note_off_c, 1, 65, 0
1, 249120, Note_on_c, 1, 38, 127
1, 249120, Note_on_c, 1, 50, 127
1, 249212, Note_off_c, 1, 38, 0
1, 249212, Note_off_c, 1, 50, 0
1, 249216, Note_on_c, 1, 62, 127
1, 249216, Note_on_c, 1, 65, 127
1, 249308, Note_off_c, 1, 62, 0
1, 249308, Note_off_c, 1, 65, 0
1, 249312, Note_on_c, 1, 38, 127
1, 249312, Note_on_c, 1, 50, 127
1, 249404, Note_off_c, 1, 38, 0
1, 249404, Note_off_c, 1, 50, 0
1, 249408, Note_on_c, 1, 62, 127
1, 249408, Note_on_c, 1, 65, 127
1, 249500, Note_off_c, 1, 62, 0
1, 249500, Note_off_c, 1, 65, 0
1, 249504, Note_on_c, 1, 38, 127
1, 249504, Note_on_c, 1, 50, 127
1, 249596, Note_off_c, 1, 38, 0
1, 249596, Note_off_c, 1, 50, 0
1, 249600, Note_on_c, 1, 62, 127
1, 249600, Note_on_c, 1, 64, 127
1, 249692, Note_off_c, 1, 62, 0
1, 249692, Note_off_c, 1, 64, 0
1, 249696, Note_on_c, 1, 38, 127
1, 249696, Note_on_c, 1, 50, 127
1, 249788, Note_off_c, 1, 38, 0
1, 249788, Note_off_c, 1, 50, 0
1, 249792, Note_on_c, 1, 62, 127
1, 249792, Note_on_c, 1, 64, 127
1, 249884, Note_off_c, 1, 62, 0
1, 249884, Note_off_c, 1, 64, 0
1, 249888, Note_on_c, 1, 38, 127
1, 249888, Note_on_c, 1, 50, 127
1, 249980, Note_off_c, 1, 38, 0
1, 249980, Note_off_c, 1, 50, 0
1, 249984, Note_on_c, 1, 61, 127
1, 249984, Note_on_c, 1, 64, 127
1, 250076, Note_off_c, 1, 61, 0
1, 250076, Note_off_c, 1, 64, 0
1, 250080, Note_on_c, 1, 38, 127
1, 250080, Note_on_c, 1, 50, 127
1, 250172, Note_off_c, 1, 38, 0
1, 250172, Note_off_c, 1, 50, 0
1, 250176, Note_on_c, 1, 61, 127
1, 250176, Note_on_c, 1, 64, 127
1, 250268, Note_off_c, 1, 61, 0
1, 250268, Note_off_c, 1, 64, 0
1, 250272, Note_on_c, 1, 38, 127
1, 250272, Note_on_c, 1, 50, 127
1, 250364, Note_off_c, 1, 38, 0
1, 250364, Note_off_c, 1, 50, 0
1, 250368, Note_on_c, 1, 60, 127
1, 250368, Note_on_c, 1, 66, 127
1, 250460, Note_off_c, 1, 60, 0
1, 250460, Note_off_c, 1, 66, 0
1, 250464, Note_on_c, 1, 38, 127
1, 250464, Note_on_c, 1, 50, 127
1, 250556, Note_off_c, 1, 38, 0
1, 250556, Note_off_c, 1, 50, 0
1, 250560, Note_on_c, 1, 60, 127
1, 250560, Note_on_c, 1, 66, 127
1, 250652, Note_off_c, 1, 60, 0
1, 250652, Note_off_c, 1, 66, 0
1, 250656, Note_on_c, 1, 38, 127
1, 250656, Note_on_c, 1, 50, 127
1, 250748, Note_off_c, 1, 38, 0
1, 250748, Note_off_c, 1, 50, 0
1, 250752, Note_on_c, 1, 59, 127
1, 250752, Note_on_c, 1, 67, 127
1, 250844, Note_off_c, 1, 59, 0
1, 250844, Note_off_c, 1, 67, 0
1, 250848, Note_on_c, 1, 38, 127
1, 250848, Note_on_c, 1, 50, 127
1, 250940, Note_off_c, 1, 38, 0
1, 250940, Note_off_c, 1, 50, 0
1, 250944, Note_on_c, 1, 59, 127
1, 250944, Note_on_c, 1, 67, 127
1, 251036, Note_off_c, 1, 59, 0
1, 251036, Note_off_c, 1, 67, 0
1, 251040, Note_on_c, 1, 38, 127
1, 251040, Note_on_c, 1, 50, 127
1, 251132, Note_off_c, 1, 38, 0
1, 251132, Note_off_c, 1, 50, 0
1, 251136, Note_on_c, 1, 58, 127
1, 251136, Note_on_c, 1, 64, 127
1, 251228, Note_off_c, 1, 58, 0
1, 251228, Note_off_c, 1, 64, 0
1, 251232, Note_on_c, 1, 38, 127
1, 251232, Note_on_c, 1, 50, 127
1, 251324, Note_off_c, 1, 38, 0
1, 251324, Note_off_c, 1, 50, 0
1, 251328, Note_on_c, 1, 58, 127
1, 251328, Note_on_c, 1, 64, 127
1, 251420, Note_off_c, 1, 58, 0
1, 251420, Note_off_c, 1, 64, 0
1, 251424, Note_on_c, 1, 38, 127
1, 251424, Note_on_c, 1, 50, 127
1, 251516, Note_off_c, 1, 38, 0
1, 251516, Note_off_c, 1, 50, 0
1, 251520, Note_on_c, 1, 57, 127
1, 251520, Note_on_c, 1, 65, 127
1, 251612, Note_off_c, 1, 57, 0
1, 251612, Note_off_c, 1, 65, 0
1, 251616, Note_on_c, 1, 38, 127
1, 251616, Note_on_c, 1, 50, 127
1, 251708, Note_off_c, 1, 38, 0
1, 251708, Note_off_c, 1, 50, 0
1, 251712, Note_on_c, 1, 57, 127
1, 251712, Note_on_c, 1, 65, 127
1, 251804, Note_off_c, 1, 57, 0
1, 251804, Note_off_c, 1, 65, 0
1, 251808, Note_on_c, 1, 38, 127
1, 251808, Note_on_c, 1, 50, 127
1, 251900, Note_off_c, 1, 38, 0
1, 251900, Note_off_c, 1, 50, 0
1, 251904, Note_on_c, 1, 56, 127
1, 251904, Note_on_c, 1, 62, 127
1, 251996, Note_off_c, 1, 56, 0
1, 251996, Note_off_c, 1, 62, 0
1, 252000, Note_on_c, 1, 38, 127
1, 252000, Note_on_c, 1, 50, 127
1, 252092, Note_off_c, 1, 38, 0
1, 252092, Note_off_c, 1, 50, 0
1, 252096, Note_on_c, 1, 56, 127
1, 252096, Note_on_c, 1, 62, 127
1, 252188, Note_off_c, 1, 56, 0
1, 252188, Note_off_c, 1, 62, 0
1, 252192, Note_on_c, 1, 38, 127
1, 252192, Note_on_c, 1, 50, 127
1, 252284, Note_off_c, 1, 38, 0
1, 252284, Note_off_c, 1, 50, 0
1, 252288, Note_on_c, 1, 55, 127
1, 252288, Note_on_c, 1, 63, 127
1, 252380, Note_off_c, 1, 55, 0
1, 252380, Note_off_c, 1, 63, 0
1, 252384, Note_on_c, 1, 38, 127
1, 252384, Note_on_c, 1, 50, 127
1, 252476, Note_off_c, 1, 38, 0
1, 252476, Note_off_c, 1, 50, 0
1, 252480, Note_on_c, 1, 55, 127
1, 252480, Note_on_c, 1, 63, 127
1, 252572, Note_off_c, 1, 55, 0
1, 252572, Note_off_c, 1, 63, 0
1, 252576, Note_on_c, 1, 38, 127
1, 252576, Note_on_c, 1, 50, 127
1, 252668, Note_off_c, 1, 38, 0
1, 252668, Note_off_c, 1, 50, 0
1, 252672, Note_on_c, 1, 55, 127
1, 252672, Note_on_c, 1, 61, 127
1, 252764, Note_off_c, 1, 55, 0
1, 252764, Note_off_c, 1, 61, 0
1, 252768, Note_on_c, 1, 38, 127
1, 252768, Note_on_c, 1, 50, 127
1, 252860, Note_off_c, 1, 38, 0
1, 252860, Note_off_c, 1, 50, 0
1, 252864, Note_on_c, 1, 55, 127
1, 252864, Note_on_c, 1, 61, 127
1, 252956, Note_off_c, 1, 55, 0
1, 252956, Note_off_c, 1, 61, 0
1, 252960, Note_on_c, 1, 38, 127
1, 252960, Note_on_c, 1, 50, 127
1, 253052, Note_off_c, 1, 38, 0
1, 253052, Note_off_c, 1, 50, 0
1, 253056, Note_on_c, 1, 53, 127
1, 253056, Note_on_c, 1, 62, 127
1, 253148, Note_off_c, 1, 53, 0
1, 253148, Note_off_c, 1, 62, 0
1, 253152, Note_on_c, 1, 38, 127
1, 253152, Note_on_c, 1, 50, 127
1, 253244, Note_off_c, 1, 38, 0
1, 253244, Note_off_c, 1, 50, 0
1, 253248, Note_on_c, 1, 53, 127
1, 253248, Note_on_c, 1, 62, 127
1, 253340, Note_off_c, 1, 53, 0
1, 253340, Note_off_c, 1, 62, 0
1, 253344, Note_on_c, 1, 38, 127
1, 253344, Note_on_c, 1, 50, 127
1, 253436, Note_off_c, 1, 38, 0
1, 253436, Note_off_c, 1, 50, 0
1, 253440, Note_on_c, 1, 50, 127
1, 253440, Note_on_c, 1, 44, 127
1, 253532, Note_off_c, 1, 50, 0
1, 253532, Note_off_c, 1, 44, 0
1, 253536, Note_on_c, 1, 52, 127
1, 253628, Note_off_c, 1, 52, 0
1, 253632, Note_on_c, 1, 44, 127
1, 253632, Note_on_c, 1, 32, 127
1, 253632, Note_on_c, 1, 53, 127
1, 253724, Note_off_c, 1, 53, 0
1, 253728, Note_on_c, 1, 59, 127
1, 253764, Note_off_c, 1, 44, 0
1, 253764, Note_off_c, 1, 32, 0
1, 253820, Note_off_c, 1, 59, 0
1, 253824, Note_on_c, 1, 44, 127
1, 253824, Note_on_c, 1, 32, 127
1, 253824, Note_on_c, 1, 62, 127
1, 253916, Note_off_c, 1, 62, 0
1, 253920, Note_on_c, 1, 57, 127
1, 253956, Note_off_c, 1, 44, 0
1, 253956, Note_off_c, 1, 32, 0
1, 254012, Note_off_c, 1, 57, 0
1, 254016, Note_on_c, 1, 74, 127
1, 254016, Note_on_c, 1, 65, 127
1, 254016, Note_on_c, 1, 59, 127
1, 254112, Note_on_c, 1, 56, 127
1, 254148, Note_off_c, 1, 74, 0
1, 254148, Note_off_c, 1, 65, 0
1, 254148, Note_off_c, 1, 59, 0
1, 254204, Note_off_c, 1, 56, 0
1, 254208, Note_on_c, 1, 74, 127
1, 254208, Note_on_c, 1, 65, 127
1, 254208, Note_on_c, 1, 59, 127
1, 254208, Note_on_c, 1, 50, 127
1, 254208, Note_on_c, 1, 44, 127
1, 254300, Note_off_c, 1, 50, 0
1, 254300, Note_off_c, 1, 44, 0
1, 254304, Note_on_c, 1, 52, 127
1, 254340, Note_off_c, 1, 74, 0
1, 254340, Note_off_c, 1, 65, 0
1, 254340, Note_off_c, 1, 59, 0
1, 254396, Note_off_c, 1, 52, 0
1, 254400, Note_on_c, 1, 44, 127
1, 254400, Note_on_c, 1, 32, 127
1, 254400, Note_on_c, 1, 53, 127
1, 254492, Note_off_c, 1, 53, 0
1, 254496, Note_on_c, 1, 59, 127
1, 254532, Note_off_c, 1, 44, 0
1, 254532, Note_off_c, 1, 32, 0
1, 254588, Note_off_c, 1, 59, 0
1, 254592, Note_on_c, 1, 44, 127
1, 254592, Note_on_c, 1, 32, 127
1, 254592, Note_on_c, 1, 62, 127
1, 254684, Note_off_c, 1, 62, 0
1, 254688, Note_on_c, 1, 59, 127
1, 254724, Note_off_c, 1, 44, 0
1, 254724, Note_off_c, 1, 32, 0
1, 254780, Note_off_c, 1, 59, 0
1, 254784, Note_on_c, 1, 74, 127
1, 254784, Note_on_c, 1, 64, 127
1, 254784, Note_on_c, 1, 59, 127
1, 254784, Note_on_c, 1, 56, 127
1, 254876, Note_off_c, 1, 56, 0
1, 254880, Note_on_c, 1, 52, 127
1, 254916, Note_off_c, 1, 74, 0
1, 254916, Note_off_c, 1, 64, 0
1, 254916, Note_off_c, 1, 59, 0
1, 254972, Note_off_c, 1, 52, 0
1, 254976, Note_on_c, 1, 74, 127
1, 254976, Note_on_c, 1, 57, 127
1, 254976, Note_on_c, 1, 65, 127
1, 254976, Note_on_c, 1, 53, 127
1, 254976, Note_on_c, 1, 45, 127
1, 255068, Note_off_c, 1, 53, 0
1, 255068, Note_off_c, 1, 45, 0
1, 255072, Note_on_c, 1, 55, 127
1, 255108, Note_off_c, 1, 74, 0
1, 255108, Note_off_c, 1, 57, 0
1, 255108, Note_off_c, 1, 65, 0
1, 255164, Note_off_c, 1, 55, 0
1, 255168, Note_on_c, 1, 45, 127
1, 255168, Note_on_c, 1, 33, 127
1, 255168, Note_on_c, 1, 57, 127
1, 255260, Note_off_c, 1, 57, 0
1, 255264, Note_on_c, 1, 61, 127
1, 255300, Note_off_c, 1, 45, 0
1, 255300, Note_off_c, 1, 33, 0
1, 255356, Note_off_c, 1, 61, 0
1, 255360, Note_on_c, 1, 45, 127
1, 255360, Note_on_c, 1, 33, 127
1, 255360, Note_on_c, 1, 62, 127
1, 255452, Note_off_c, 1, 62, 0
1, 255456, Note_on_c, 1, 57, 127
1, 255492, Note_off_c, 1, 45, 0
1, 255492, Note_off_c, 1, 33, 0
1, 255548, Note_off_c, 1, 57, 0
1, 255552, Note_on_c, 1, 74, 127
1, 255552, Note_on_c, 1, 65, 127
1, 255552, Note_on_c, 1, 62, 127
1, 255552, Note_on_c, 1, 58, 127
1, 255644, Note_off_c, 1, 58, 0
1, 255648, Note_on_c, 1, 55, 127
1, 255684, Note_off_c, 1, 74, 0
1, 255684, Note_off_c, 1, 65, 0
1, 255684, Note_off_c, 1, 62, 0
1, 255740, Note_off_c, 1, 55, 0
1, 255744, Note_on_c, 1, 74, 127
1, 255744, Note_on_c, 1, 65, 127
1, 255744, Note_on_c, 1, 62, 127
1, 255744, Note_on_c, 1, 53, 127
1, 255744, Note_on_c, 1, 45, 127
1, 255836, Note_off_c, 1, 53, 0
1, 255836, Note_off_c, 1, 45, 0
1, 255840, Note_on_c, 1, 55, 127
1, 255876, Note_off_c, 1, 74, 0
1, 255876, Note_off_c, 1, 65, 0
1, 255876, Note_off_c, 1, 62, 0
1, 255932, Note_off_c, 1, 55, 0
1, 255936, Note_on_c, 1, 45, 127
1, 255936, Note_on_c, 1, 33, 127
1, 255936, Note_on_c, 1, 57, 127
1, 256028, Note_off_c, 1, 57, 0
1, 256032, Note_on_c, 1, 61, 127
1, 256068, Note_off_c, 1, 45, 0
1, 256068, Note_off_c, 1, 33, 0
1, 256124, Note_off_c, 1, 61, 0
1, 256128, Note_on_c, 1, 45, 127
1, 256128, Note_on_c, 1, 33, 127
1, 256128, Note_on_c, 1, 62, 127
1, 256220, Note_off_c, 1, 62, 0
1, 256224, Note_on_c, 1, 57, 127
1, 256260, Note_off_c, 1, 45, 0
1, 256260, Note_off_c, 1, 33, 0
1, 256316, Note_off_c, 1, 57, 0
1, 256320, Note_on_c, 1, 74, 127
1, 256320, Note_on_c, 1, 65, 127
1, 256320, Note_on_c, 1, 62, 127
1, 256320, Note_on_c, 1, 53, 127
1, 256412, Note_off_c, 1, 53, 0
1, 256416, Note_on_c, 1, 50, 127
1, 256452, Note_off_c, 1, 74, 0
1, 256452, Note_off_c, 1, 65, 0
1, 256452, Note_off_c, 1, 62, 0
1, 256508, Note_off_c, 1, 50, 0
1, 256512, Note_on_c, 1, 74, 127
1, 256512, Note_on_c, 1, 67, 127
1, 256512, Note_on_c, 1, 64, 127
1, 256512, Note_on_c, 1, 52, 127
1, 256512, Note_on_c, 1, 46, 127
1, 256604, Note_off_c, 1, 52, 0
1, 256604, Note_off_c, 1, 46, 0
1, 256608, Note_on_c, 1, 53, 127
1, 256644, Note_off_c, 1, 74, 0
1, 256644, Note_off_c, 1, 67, 0
1, 256644, Note_off_c, 1, 64, 0
1, 256700, Note_off_c, 1, 53, 0
1, 256704, Note_on_c, 1, 46, 127
1, 256704, Note_on_c, 1, 34, 127
1, 256704, Note_on_c, 1, 55, 127
1, 256796, Note_off_c, 1, 55, 0
1, 256800, Note_on_c, 1, 61, 127
1, 256836, Note_off_c, 1, 46, 0
1, 256836, Note_off_c, 1, 34, 0
1, 256892, Note_off_c, 1, 61, 0
1, 256896, Note_on_c, 1, 46, 127
1, 256896, Note_on_c, 1, 34, 127
1, 256896, Note_on_c, 1, 62, 127
1, 256988, Note_off_c, 1, 62, 0
1, 256992, Note_on_c, 1, 57, 127
1, 257028, Note_off_c, 1, 46, 0
1, 257028, Note_off_c, 1, 34, 0
1, 257084, Note_off_c, 1, 57, 0
1, 257088, Note_on_c, 1, 74, 127
1, 257088, Note_on_c, 1, 64, 127
1, 257088, Note_on_c, 1, 55, 127
1, 257088, Note_on_c, 1, 58, 127
1, 257180, Note_off_c, 1, 58, 0
1, 257220, Note_off_c, 1, 74, 0
1, 257220, Note_off_c, 1, 64, 0
1, 257276, Note_off_c, 1, 55, 0
1, 257280, Note_on_c, 1, 74, 127
1, 257280, Note_on_c, 1, 64, 127
1, 257280, Note_on_c, 1, 55, 127
1, 257280, Note_on_c, 1, 52, 127
1, 257280, Note_on_c, 1, 46, 127
1, 257372, Note_off_c, 1, 52, 0
1, 257372, Note_off_c, 1, 46, 0
1, 257376, Note_on_c, 1, 53, 127
1, 257412, Note_off_c, 1, 74, 0
1, 257412, Note_off_c, 1, 64, 0
1, 257412, Note_off_c, 1, 55, 0
1, 257468, Note_off_c, 1, 53, 0
1, 257472, Note_on_c, 1, 46, 127
1, 257472, Note_on_c, 1, 34, 127
1, 257472, Note_on_c, 1, 55, 127
1, 257564, Note_off_c, 1, 55, 0
1, 257568, Note_on_c, 1, 61, 127
1, 257604, Note_off_c, 1, 46, 0
1, 257604, Note_off_c, 1, 34, 0
1, 257660, Note_off_c, 1, 61, 0
1, 257664, Note_on_c, 1, 46, 127
1, 257664, Note_on_c, 1, 34, 127
1, 257664, Note_on_c, 1, 62, 127
1, 257756, Note_off_c, 1, 62, 0
1, 257760, Note_on_c, 1, 58, 127
1, 257796, Note_off_c, 1, 46, 0
1, 257796, Note_off_c, 1, 34, 0
1, 257852, Note_off_c, 1, 58, 0
1, 257856, Note_on_c, 1, 74, 127
1, 257856, Note_on_c, 1, 67, 127
1, 257856, Note_on_c, 1, 52, 127
1, 257856, Note_on_c, 1, 55, 127
1, 257948, Note_off_c, 1, 55, 0
1, 257988, Note_off_c, 1, 74, 0
1, 257988, Note_off_c, 1, 67, 0
1, 258044, Note_off_c, 1, 52, 0
1, 258048, Note_on_c, 1, 74, 127
1, 258048, Note_on_c, 1, 69, 127
1, 258048, Note_on_c, 1, 53, 127
1, 258048, Note_on_c, 1, 45, 127
1, 258140, Note_off_c, 1, 45, 0
1, 258144, Note_on_c, 1, 52, 127
1, 258180, Note_off_c, 1, 74, 0
1, 258180, Note_off_c, 1, 69, 0
1, 258180, Note_off_c, 1, 53, 0
1, 258236, Note_off_c, 1, 52, 0
1, 258240, Note_on_c, 1, 45, 127
1, 258240, Note_on_c, 1, 33, 127
1, 258240, Note_on_c, 1, 53, 127
1, 258332, Note_off_c, 1, 53, 0
1, 258336, Note_on_c, 1, 57, 127
1, 258372, Note_off_c, 1, 45, 0
1, 258372, Note_off_c, 1, 33, 0
1, 258428, Note_off_c, 1, 57, 0
1, 258432, Note_on_c, 1, 45, 127
1, 258432, Note_on_c, 1, 33, 127
1, 258432, Note_on_c, 1, 62, 127
1, 258524, Note_off_c, 1, 62, 0
1, 258528, Note_on_c, 1, 57, 127
1, 258564, Note_off_c, 1, 45, 0
1, 258564, Note_off_c, 1, 33, 0
1, 258620, Note_off_c, 1, 57, 0
1, 258624, Note_on_c, 1, 74, 127
1, 258624, Note_on_c, 1, 67, 127
1, 258624, Note_on_c, 1, 64, 127
1, 258624, Note_on_c, 1, 58, 127
1, 258716, Note_off_c, 1, 58, 0
1, 258720, Note_on_c, 1, 55, 127
1, 258756, Note_off_c, 1, 74, 0
1, 258756, Note_off_c, 1, 67, 0
1, 258756, Note_off_c, 1, 64, 0
1, 258812, Note_off_c, 1, 55, 0
1, 258816, Note_on_c, 1, 74, 127
1, 258816, Note_on_c, 1, 69, 127
1, 258816, Note_on_c, 1, 65, 127
1, 258816, Note_on_c, 1, 53, 127
1, 258816, Note_on_c, 1, 45, 127
1, 258908, Note_off_c, 1, 53, 0
1, 258908, Note_off_c, 1, 45, 0
1, 258912, Note_on_c, 1, 52, 127
1, 258948, Note_off_c, 1, 74, 0
1, 258948, Note_off_c, 1, 69, 0
1, 258948, Note_off_c, 1, 65, 0
1, 259004, Note_off_c, 1, 52, 0
1, 259008, Note_on_c, 1, 45, 127
1, 259008, Note_on_c, 1, 33, 127
1, 259008, Note_on_c, 1, 53, 127
1, 259100, Note_off_c, 1, 53, 0
1, 259104, Note_on_c, 1, 57, 127
1, 259140, Note_off_c, 1, 45, 0
1, 259140, Note_off_c, 1, 33, 0
1, 259196, Note_off_c, 1, 57, 0
1, 259200, Note_on_c, 1, 45, 127
1, 259200, Note_on_c, 1, 33, 127
1, 259200, Note_on_c, 1, 62, 127
1, 259292, Note_off_c, 1, 62, 0
1, 259296, Note_on_c, 1, 57, 127
1, 259332, Note_off_c, 1, 45, 0
1, 259332, Note_off_c, 1, 33, 0
1, 259388, Note_off_c, 1, 57, 0
1, 259392, Note_on_c, 1, 74, 127
1, 259392, Note_on_c, 1, 69, 127
1, 259392, Note_on_c, 1, 65, 127
1, 259488, Note_on_c, 1, 62, 127
1, 259524, Note_off_c, 1, 74, 0
1, 259524, Note_off_c, 1, 69, 0
1, 259524, Note_off_c, 1, 65, 0
1, 259580, Note_off_c, 1, 62, 0
1, 259584, Note_on_c, 1, 74, 127
1, 259584, Note_on_c, 1, 71, 127
1, 259584, Note_on_c, 1, 65, 127
1, 259584, Note_on_c, 1, 44, 127
1, 259584, Note_on_c, 1, 32, 127
1, 259584, Note_on_c, 1, 56, 127
1, 259628, Note_off_c, 1, 56, 0
1, 259632, Note_on_c, 1, 62, 127
1, 259676, Note_off_c, 1, 62, 0
1, 259680, Note_on_c, 1, 64, 127
1, 259724, Note_off_c, 1, 64, 0
1, 260348, Note_off_c, 1, 65, 0
1, 260448, Note_on_c, 1, 59, 127
1, 260492, Note_off_c, 1, 59, 0
1, 261116, Note_off_c, 1, 74, 0
1, 261116, Note_off_c, 1, 71, 0
1, 261116, Note_off_c, 1, 44, 0
1, 261116, Note_off_c, 1, 32, 0
1, 261120, Note_on_c, 1, 73, 127
1, 261120, Note_on_c, 1, 70, 127
1, 261120, Note_on_c, 1, 45, 127
1, 261120, Note_on_c, 1, 33, 127
1, 261120, Note_on_c, 1, 55, 127
1, 261164, Note_off_c, 1, 55, 0
1, 261168, Note_on_c, 1, 61, 127
1, 261212, Note_off_c, 1, 61, 0
1, 261884, Note_off_c, 1, 70, 0
1, 261888, Note_on_c, 1, 69, 127
1, 261984, Note_on_c, 1, 57, 127
1, 262028, Note_off_c, 1, 57, 0
1, 262652, Note_off_c, 1, 73, 0
1, 262652, Note_off_c, 1, 69, 0
1, 262656, Note_on_c, 1, 54, 127
1, 262700, Note_off_c, 1, 54, 0
1, 262704, Note_on_c, 1, 60, 127
1, 262748, Note_off_c, 1, 60, 0
1, 263424, Note_on_c, 1, 53, 127
1, 263468, Note_off_c, 1, 53, 0
1, 264192, Note_on_c, 1, 76, 127
1, 264192, Note_on_c, 1, 67, 127
1, 264192, Note_on_c, 1, 58, 127
1, 264236, Note_off_c, 1, 58, 0
1, 264956, Note_off_c, 1, 76, 0
1, 264956, Note_off_c, 1, 67, 0
1, 264960, Note_on_c, 1, 77, 127
1, 266492, Note_off_c, 1, 77, 0
1, 268796, Note_off_c, 1, 45, 0
1, 268796, Note_off_c, 1, 33, 0
1, 268800, Note_on_c, 1, 62, 127
1, 268800, Note_on_c, 1, 50, 127
1, 268800, Note_on_c, 1, 38, 127
1, 268896, Note_off_c, 1, 62, 0
1, 268896, Note_off_c, 1, 50, 0
1, 268896, Note_off_c, 1, 38, 0
1, 268896, Note_on_c, 1, 64, 127
1, 268896, Note_on_c, 1, 52, 127
1, 268896, Note_on_c, 1, 40, 127
1, 268992, Note_off_c, 1, 64, 0
1, 268992, Note_off_c, 1, 52, 0
1, 268992, Note_off_c, 1, 40, 0
1, 268992, Note_on_c, 1, 65, 127
1, 268992, Note_on_c, 1, 53, 127
1, 268992, Note_on_c, 1, 41, 127
1, 269120, Note_off_c, 1, 65, 0
1, 269120, Note_off_c, 1, 53, 0
1, 269120, Note_off_c, 1, 41, 0
1, 269184, Note_on_c, 1, 64, 127
1, 269184, Note_on_c, 1, 52, 127
1, 269184, Note_on_c, 1, 40, 127
1, 269376, Note_off_c, 1, 64, 0
1, 269376, Note_off_c, 1, 52, 0
1, 269376, Note_off_c, 1, 40, 0
1, 269376, Note_on_c, 1, 62, 127
1, 269376, Note_on_c, 1, 50, 127
1, 269376, Note_on_c, 1, 38, 127
1, 269568, Note_off_c, 1, 62, 0
1, 269568, Note_off_c, 1, 50, 0
1, 269568, Note_off_c, 1, 38, 0
1, 269568, Note_on_c, 1, 69, 127
1, 269568, Note_on_c, 1, 57, 127
1, 269568, Note_on_c, 1, 45, 127
1, 269760, Note_off_c, 1, 69, 0
1, 269760, Note_off_c, 1, 57, 0
1, 269760, Note_off_c, 1, 45, 0
1, 269760, Note_on_c, 1, 74, 127
1, 270144, Note_off_c, 1, 74, 0
1, 270336, Note_on_c, 1, 70, 127
1, 270336, Note_on_c, 1, 58, 127
1, 270336, Note_on_c, 1, 46, 127
1, 270524, Note_off_c, 1, 70, 0
1, 270524, Note_off_c, 1, 58, 0
1, 270524, Note_off_c, 1, 46, 0
1, 270528, Note_on_c, 1, 67, 127
1, 270528, Note_on_c, 1, 55, 127
1, 270528, Note_on_c, 1, 43, 127
1, 270620, Note_off_c, 1, 67, 0
1, 270620, Note_off_c, 1, 55, 0
1, 270620, Note_off_c, 1, 43, 0
1, 270624, Note_on_c, 1, 64, 127
1, 270624, Note_on_c, 1, 52, 127
1, 270624, Note_on_c, 1, 40, 127
1, 270716, Note_off_c, 1, 64, 0
1, 270716, Note_off_c, 1, 52, 0
1, 270716, Note_off_c, 1, 40, 0
1, 270720, Note_on_c, 1, 69, 127
1, 270720, Note_on_c, 1, 57, 127
1, 270720, Note_on_c, 1, 45, 127
1, 270908, Note_off_c, 1, 69, 0
1, 270908, Note_off_c, 1, 57, 0
1, 270908, Note_off_c, 1, 45, 0
1, 270912, Note_on_c, 1, 65, 127
1, 270912, Note_on_c, 1, 53, 127
1, 270912, Note_on_c, 1, 41, 127
1, 271004, Note_off_c, 1, 65, 0
1, 271004, Note_off_c, 1, 53, 0
1, 271004, Note_off_c, 1, 41, 0
1, 271008, Note_on_c, 1, 62, 127
1, 271008, Note_on_c, 1, 50, 127
1, 271008, Note_on_c, 1, 38, 127
1, 271100, Note_off_c, 1, 62, 0
1, 271100, Note_off_c, 1, 50, 0
1, 271100, Note_off_c, 1, 38, 0
1, 271104, Note_on_c, 1, 67, 127
1, 271104, Note_on_c, 1, 55, 127
1, 271104, Note_on_c, 1, 43, 127
1, 271292, Note_off_c, 1, 67, 0
1, 271292, Note_off_c, 1, 55, 0
1, 271292, Note_off_c, 1, 43, 0
1, 271296, Note_on_c, 1, 64, 127
1, 271296, Note_on_c, 1, 52, 127
1, 271296, Note_on_c, 1, 40, 127
1, 271388, Note_off_c, 1, 64, 0
1, 271388, Note_off_c, 1, 52, 0
1, 271388, Note_off_c, 1, 40, 0
1, 271392, Note_on_c, 1, 61, 127
1, 271392, Note_on_c, 1, 49, 127
1, 271392, Note_on_c, 1, 37, 127
1, 271484, Note_off_c, 1, 61, 0
1, 271484, Note_off_c, 1, 49, 0
1, 271484, Note_off_c, 1, 37, 0
1, 271488, Note_on_c, 1, 57, 127
1, 271488, Note_on_c, 1, 45, 127
1, 271488, Note_on_c, 1, 33, 127
1, 271584, Note_on_c, 1, 53, 127
1, 271616, Note_off_c, 1, 57, 0
1, 271616, Note_off_c, 1, 45, 0
1, 271616, Note_off_c, 1, 33, 0
1, 271676, Note_off_c, 1, 53, 0
1, 271680, Note_on_c, 1, 76, 127
1, 271680, Note_on_c, 1, 70, 127
1, 271680, Note_on_c, 1, 67, 127
1, 271680, Note_on_c, 1, 49, 127
1, 271680, Note_on_c, 1, 37, 127
1, 271680, Note_on_c, 1, 52, 127
1, 271772, Note_off_c, 1, 52, 0
1, 271776, Note_on_c, 1, 50, 127
1, 271832, Note_off_c, 1, 67, 0
1, 271868, Note_off_c, 1, 49, 0
1, 271868, Note_off_c, 1, 37, 0
1, 271868, Note_off_c, 1, 50, 0
1, 271872, Note_on_c, 1, 40, 127
1, 271968, Note_on_c, 1, 58, 127
1, 272060, Note_off_c, 1, 76, 0
1, 272060, Note_off_c, 1, 70, 0
1, 272060, Note_off_c, 1, 40, 0
1, 272060, Note_off_c, 1, 58, 0
1, 272064, Note_on_c, 1, 70, 127
1, 272064, Note_on_c, 1, 79, 127
1, 272064, Note_on_c, 1, 67, 127
1, 272064, Note_on_c, 1, 55, 127
1, 272064, Note_on_c, 1, 43, 127
1, 272064, Note_on_c, 1, 64, 127
1, 272156, Note_off_c, 1, 70, 0
1, 272156, Note_off_c, 1, 64, 0
1, 272160, Note_on_c, 1, 62, 127
1, 272252, Note_off_c, 1, 67, 0
1, 272252, Note_off_c, 1, 55, 0
1, 272252, Note_off_c, 1, 43, 0
1, 272252, Note_off_c, 1, 62, 0
1, 272256, Note_on_c, 1, 61, 127
1, 272256, Note_on_c, 1, 58, 127
1, 272256, Note_on_c, 1, 46, 127
1, 272444, Note_off_c, 1, 79, 0
1, 272444, Note_off_c, 1, 61, 0
1, 272444, Note_off_c, 1, 58, 0
1, 272444, Note_off_c, 1, 46, 0
1, 272448, Note_on_c, 1, 76, 127
1, 272448, Note_on_c, 1, 67, 127
1, 272448, Note_on_c, 1, 55, 127
1, 272448, Note_on_c, 1, 43, 127
1, 272448, Note_on_c, 1, 57, 127
1, 272540, Note_off_c, 1, 57, 0
1, 272544, Note_on_c, 1, 73, 127
1, 272600, Note_off_c, 1, 67, 0
1, 272636, Note_off_c, 1, 55, 0
1, 272636, Note_off_c, 1, 43, 0
1, 272636, Note_off_c, 1, 73, 0
1, 272640, Note_on_c, 1, 64, 127
1, 272640, Note_on_c, 1, 52, 127
1, 272640, Note_on_c, 1, 40, 127
1, 272640, Note_on_c, 1, 49, 127
1, 272732, Note_off_c, 1, 49, 0
1, 272736, Note_on_c, 1, 58, 127
1, 272828, Note_off_c, 1, 76, 0
1, 272828, Note_off_c, 1, 64, 0
1, 272828, Note_off_c, 1, 52, 0
1, 272828, Note_off_c, 1, 40, 0
1, 272828, Note_off_c, 1, 58, 0
1, 272832, Note_on_c, 1, 70, 127
1, 272832, Note_on_c, 1, 79, 127
1, 272832, Note_on_c, 1, 67, 127
1, 272832, Note_on_c, 1, 49, 127
1, 272832, Note_on_c, 1, 37, 127
1, 272832, Note_on_c, 1, 64, 127
1, 272924, Note_off_c, 1, 70, 0
1, 272924, Note_off_c, 1, 64, 0
1, 272928, Note_on_c, 1, 62, 127
1, 273020, Note_off_c, 1, 67, 0
1, 273020, Note_off_c, 1, 49, 0
1, 273020, Note_off_c, 1, 37, 0
1, 273020, Note_off_c, 1, 62, 0
1, 273024, Note_on_c, 1, 61, 127
1, 273024, Note_on_c, 1, 69, 127
1, 273024, Note_on_c, 1, 45, 127
1, 273024, Note_on_c, 1, 33, 127
1, 273120, Note_on_c, 1, 58, 127
1, 273176, Note_off_c, 1, 69, 0
1, 273212, Note_off_c, 1, 79, 0
1, 273212, Note_off_c, 1, 61, 0
1, 273212, Note_off_c, 1, 45, 0
1, 273212, Note_off_c, 1, 33, 0
1, 273212, Note_off_c, 1, 58, 0
1, 273216, Note_on_c, 1, 73, 127
1, 273216, Note_on_c, 1, 76, 127
1, 273216, Note_on_c, 1, 69, 127
1, 273216, Note_on_c, 1, 57, 127
1, 273216, Note_on_c, 1, 45, 127
1, 273308, Note_off_c, 1, 76, 0
1, 273312, Note_on_c, 1, 55, 127
1, 273368, Note_off_c, 1, 69, 0
1, 273404, Note_off_c, 1, 73, 0
1, 273404, Note_off_c, 1, 57, 0
1, 273404, Note_off_c, 1, 45, 0
1, 273404, Note_off_c, 1, 55, 0
1, 273408, Note_on_c, 1, 74, 127
1, 273408, Note_on_c, 1, 69, 127
1, 273408, Note_on_c, 1, 50, 127
1, 273408, Note_on_c, 1, 38, 127
1, 273408, Note_on_c, 1, 53, 127
1, 273500, Note_off_c, 1, 53, 0
1, 273504, Note_on_c, 1, 57, 127
1, 273596, Note_off_c, 1, 74, 0
1, 273596, Note_off_c, 1, 57, 0
1, 273600, Note_on_c, 1, 65, 127
1, 273600, Note_on_c, 1, 62, 127
1, 273692, Note_off_c, 1, 62, 0
1, 273696, Note_on_c, 1, 61, 127
1, 273788, Note_off_c, 1, 69, 0
1, 273788, Note_off_c, 1, 50, 0
1, 273788, Note_off_c, 1, 38, 0
1, 273788, Note_off_c, 1, 65, 0
1, 273788, Note_off_c, 1, 61, 0
1, 273792, Note_on_c, 1, 65, 127
1, 273792, Note_on_c, 1, 62, 127
1, 273888, Note_on_c, 1, 58, 127
1, 273980, Note_off_c, 1, 65, 0
1, 273980, Note_off_c, 1, 58, 0
1, 273984, Note_on_c, 1, 69, 127
1, 273984, Note_on_c, 1, 57, 127
1, 274076, Note_off_c, 1, 57, 0
1, 274080, Note_on_c, 1, 55, 127
1, 274172, Note_off_c, 1, 62, 0
1, 274172, Note_off_c, 1, 69, 0
1, 274172, Note_off_c, 1, 55, 0
1, 274176, Note_on_c, 1, 74, 127
1, 274176, Note_on_c, 1, 69, 127
1, 274176, Note_on_c, 1, 50, 127
1, 274176, Note_on_c, 1, 38, 127
1, 274176, Note_on_c, 1, 53, 127
1, 274268, Note_off_c, 1, 53, 0
1, 274272, Note_on_c, 1, 57, 127
1, 274364, Note_off_c, 1, 74, 0
1, 274364, Note_off_c, 1, 69, 0
1, 274364, Note_off_c, 1, 57, 0
1, 274368, Note_on_c, 1, 65, 127
1, 274368, Note_on_c, 1, 62, 127
1, 274460, Note_off_c, 1, 62, 0
1, 274464, Note_on_c, 1, 61, 127
1, 274556, Note_off_c, 1, 50, 0
1, 274556, Note_off_c, 1, 38, 0
1, 274556, Note_off_c, 1, 65, 0
1, 274556, Note_off_c, 1, 61, 0
1, 274560, Note_on_c, 1, 62, 127
1, 274656, Note_on_c, 1, 58, 127
1, 274748, Note_off_c, 1, 58, 0
1, 274752, Note_on_c, 1, 84, 127
1, 274752, Note_on_c, 1, 66, 127
1, 274752, Note_on_c, 1, 57, 127
1, 274844, Note_off_c, 1, 57, 0
1, 274848, Note_on_c, 1, 55, 127
1, 274940, Note_off_c, 1, 62, 0
1, 274940, Note_off_c, 1, 66, 0
1, 274940, Note_off_c, 1, 55, 0
1, 274944, Note_on_c, 1, 75, 127
1, 274944, Note_on_c, 1, 60, 127
1, 274944, Note_on_c, 1, 45, 127
1, 274944, Note_on_c, 1, 33, 127
1, 274944, Note_on_c, 1, 54, 127
1, 275036, Note_off_c, 1, 54, 0
1, 275040, Note_on_c, 1, 63, 127
1, 275096, Note_off_c, 1, 60, 0
1, 275132, Note_off_c, 1, 84, 0
1, 275132, Note_off_c, 1, 75, 0
1, 275132, Note_off_c, 1, 45, 0
1, 275132, Note_off_c, 1, 33, 0
1, 275132, Note_off_c, 1, 63, 0
1, 275136, Note_on_c, 1, 75, 127
1, 275136, Note_on_c, 1, 84, 127
1, 275136, Note_on_c, 1, 60, 127
1, 275136, Note_on_c, 1, 48, 127
1, 275136, Note_on_c, 1, 36, 127
1, 275136, Note_on_c, 1, 69, 127
1, 275228, Note_off_c, 1, 75, 0
1, 275228, Note_off_c, 1, 69, 0
1, 275232, Note_on_c, 1, 72, 127
1, 275232, Note_on_c, 1, 67, 127
1, 275288, Note_off_c, 1, 60, 0
1, 275324, Note_off_c, 1, 48, 0
1, 275324, Note_off_c, 1, 36, 0
1, 275324, Note_off_c, 1, 72, 0
1, 275324, Note_off_c, 1, 67, 0
1, 275328, Note_on_c, 1, 66, 127
1, 275328, Note_on_c, 1, 51, 127
1, 275328, Note_on_c, 1, 39, 127
1, 275424, Note_on_c, 1, 63, 127
1, 275516, Note_off_c, 1, 84, 0
1, 275516, Note_off_c, 1, 66, 0
1, 275516, Note_off_c, 1, 51, 0
1, 275516, Note_off_c, 1, 39, 0
1, 275516, Note_off_c, 1, 63, 0
1, 275520, Note_on_c, 1, 84, 127
1, 275520, Note_on_c, 1, 81, 127
1, 275520, Note_on_c, 1, 60, 127
1, 275520, Note_on_c, 1, 48, 127
1, 275520, Note_on_c, 1, 36, 127
1, 275520, Note_on_c, 1, 62, 127
1, 275612, Note_off_c, 1, 81, 0
1, 275612, Note_off_c, 1, 62, 0
1, 275616, Note_on_c, 1, 78, 127
1, 275708, Note_off_c, 1, 60, 0
1, 275708, Note_off_c, 1, 48, 0
1, 275708, Note_off_c, 1, 36, 0
1, 275708, Note_off_c, 1, 78, 0
1, 275712, Note_on_c, 1, 69, 127
1, 275712, Note_on_c, 1, 45, 127
1, 275712, Note_on_c, 1, 33, 127
1, 275712, Note_on_c, 1, 54, 127
1, 275804, Note_off_c, 1, 54, 0
1, 275808, Note_on_c, 1, 63, 127
1, 275900, Note_off_c, 1, 84, 0
1, 275900, Note_off_c, 1, 69, 0
1, 275900, Note_off_c, 1, 45, 0
1, 275900, Note_off_c, 1, 33, 0
1, 275900, Note_off_c, 1, 63, 0
1, 275904, Note_on_c, 1, 75, 127
1, 275904, Note_on_c, 1, 84, 127
1, 275904, Note_on_c, 1, 60, 127
1, 275904, Note_on_c, 1, 42, 127
1, 275904, Note_on_c, 1, 30, 127
1, 275904, Note_on_c, 1, 69, 127
1, 275996, Note_off_c, 1, 75, 0
1, 275996, Note_off_c, 1, 69, 0
1, 276000, Note_on_c, 1, 72, 127
1, 276000, Note_on_c, 1, 67, 127
1, 276056, Note_off_c, 1, 60, 0
1, 276092, Note_off_c, 1, 42, 0
1, 276092, Note_off_c, 1, 30, 0
1, 276092, Note_off_c, 1, 72, 0
1, 276092, Note_off_c, 1, 67, 0
1, 276096, Note_on_c, 1, 66, 127
1, 276096, Note_on_c, 1, 62, 127
1, 276096, Note_on_c, 1, 38, 127
1, 276096, Note_on_c, 1, 26, 127
1, 276192, Note_on_c, 1, 63, 127
1, 276248, Note_off_c, 1, 62, 0
1, 276284, Note_off_c, 1, 84, 0
1, 276284, Note_off_c, 1, 66, 0
1, 276284, Note_off_c, 1, 38, 0
1, 276284, Note_off_c, 1, 26, 0
1, 276284, Note_off_c, 1, 63, 0
1, 276288, Note_on_c, 1, 78, 127
1, 276288, Note_on_c, 1, 81, 127
1, 276288, Note_on_c, 1, 62, 127
1, 276288, Note_on_c, 1, 50, 127
1, 276288, Note_on_c, 1, 38, 127
1, 276380, Note_off_c, 1, 81, 0
1, 276384, Note_on_c, 1, 60, 127
1, 276440, Note_off_c, 1, 62, 0
1, 276476, Note_off_c, 1, 78, 0
1, 276476, Note_off_c, 1, 50, 0
1, 276476, Note_off_c, 1, 38, 0
1, 276476, Note_off_c, 1, 60, 0
1, 276480, Note_on_c, 1, 79, 127
1, 276480, Note_on_c, 1, 74, 127
1, 276480, Note_on_c, 1, 62, 127
1, 276480, Note_on_c, 1, 43, 127
1, 276480, Note_on_c, 1, 31, 127
1, 276480, Note_on_c, 1, 55, 127
1, 276572, Note_off_c, 1, 55, 0
1, 276668, Note_off_c, 1, 79, 0
1, 276668, Note_off_c, 1, 74, 0
1, 276672, Note_on_c, 1, 70, 127
1, 276672, Note_on_c, 1, 67, 127
1, 276764, Note_off_c, 1, 67, 0
1, 276768, Note_on_c, 1, 66, 127
1, 276860, Note_off_c, 1, 62, 0
1, 276860, Note_off_c, 1, 43, 0
1, 276860, Note_off_c, 1, 31, 0
1, 276860, Note_off_c, 1, 70, 0
1, 276860, Note_off_c, 1, 66, 0
1, 276864, Note_on_c, 1, 70, 127
1, 276864, Note_on_c, 1, 67, 127
1, 276864, Note_on_c, 1, 55, 127
1, 276960, Note_on_c, 1, 63, 127
1, 277052, Note_off_c, 1, 70, 0
1, 277052, Note_off_c, 1, 67, 0
1, 277052, Note_off_c, 1, 63, 0
1, 277056, Note_on_c, 1, 74, 127
1, 277056, Note_on_c, 1, 62, 127
1, 277148, Note_off_c, 1, 62, 0
1, 277152, Note_on_c, 1, 60, 127
1, 277244, Note_off_c, 1, 55, 0
1, 277244, Note_off_c, 1, 74, 0
1, 277244, Note_off_c, 1, 60, 0
1, 277248, Note_on_c, 1, 79, 127
1, 277248, Note_on_c, 1, 74, 127
1, 277248, Note_on_c, 1, 43, 127
1, 277248, Note_on_c, 1, 31, 127
1, 277248, Note_on_c, 1, 55, 127
1, 277340, Note_off_c, 1, 55, 0
1, 277344, Note_on_c, 1, 62, 127
1, 277436, Note_off_c, 1, 79, 0
1, 277436, Note_off_c, 1, 74, 0
1, 277436, Note_off_c, 1, 62, 0
1, 277440, Note_on_c, 1, 70, 127
1, 277440, Note_on_c, 1, 67, 127
1, 277532, Note_off_c, 1, 67, 0
1, 277536, Note_on_c, 1, 66, 127
1, 277628, Note_off_c, 1, 43, 0
1, 277628, Note_off_c, 1, 31, 0
1, 277628, Note_off_c, 1, 70, 0
1, 277628, Note_off_c, 1, 66, 0
1, 277632, Note_on_c, 1, 70, 127
1, 277632, Note_on_c, 1, 67, 127
1, 277632, Note_on_c, 1, 55, 127
1, 277728, Note_on_c, 1, 60, 127
1, 277820, Note_off_c, 1, 70, 0
1, 277820, Note_off_c, 1, 67, 0
1, 277820, Note_off_c, 1, 60, 0
1, 277824, Note_on_c, 1, 74, 127
1, 277824, Note_on_c, 1, 58, 127
1, 277916, Note_off_c, 1, 58, 0
1, 277920, Note_on_c, 1, 57, 127
1, 278012, Note_off_c, 1, 55, 0
1, 278012, Note_off_c, 1, 57, 0
1, 278016, Note_on_c, 1, 77, 127
1, 278016, Note_on_c, 1, 62, 127
1, 278016, Note_on_c, 1, 47, 127
1, 278016, Note_on_c, 1, 35, 127
1, 278016, Note_on_c, 1, 56, 127
1, 278108, Note_off_c, 1, 56, 0
1, 278112, Note_on_c, 1, 65, 127
1, 278188, Note_off_c, 1, 62, 0
1, 278204, Note_off_c, 1, 74, 0
1, 278204, Note_off_c, 1, 77, 0
1, 278204, Note_off_c, 1, 47, 0
1, 278204, Note_off_c, 1, 35, 0
1, 278204, Note_off_c, 1, 65, 0
1, 278208, Note_on_c, 1, 65, 127
1, 278208, Note_on_c, 1, 74, 127
1, 278208, Note_on_c, 1, 62, 127
1, 278208, Note_on_c, 1, 50, 127
1, 278208, Note_on_c, 1, 38, 127
1, 278208, Note_on_c, 1, 71, 127
1, 278300, Note_off_c, 1, 65, 0
1, 278300, Note_off_c, 1, 71, 0
1, 278304, Note_on_c, 1, 69, 127
1, 278396, Note_off_c, 1, 62, 0
1, 278396, Note_off_c, 1, 50, 0
1, 278396, Note_off_c, 1, 38, 0
1, 278396, Note_off_c, 1, 69, 0
1, 278400, Note_on_c, 1, 56, 127
1, 278400, Note_on_c, 1, 53, 127
1, 278400, Note_on_c, 1, 41, 127
1, 278588, Note_off_c, 1, 74, 0
1, 278588, Note_off_c, 1, 56, 0
1, 278588, Note_off_c, 1, 53, 0
1, 278588, Note_off_c, 1, 41, 0
1, 278592, Note_on_c, 1, 74, 127
1, 278592, Note_on_c, 1, 71, 127
1, 278592, Note_on_c, 1, 62, 127
1, 278592, Note_on_c, 1, 50, 127
1, 278592, Note_on_c, 1, 38, 127
1, 278592, Note_on_c, 1, 64, 127
1, 278684, Note_off_c, 1, 71, 0
1, 278684, Note_off_c, 1, 64, 0
1, 278688, Note_on_c, 1, 68, 127
1, 278780, Note_off_c, 1, 62, 0
1, 278780, Note_off_c, 1, 50, 0
1, 278780, Note_off_c, 1, 38, 0
1, 278780, Note_off_c, 1, 68, 0
1, 278784, Note_on_c, 1, 56, 127
1, 278784, Note_on_c, 1, 47, 127
1, 278784, Note_on_c, 1, 35, 127
1, 278880, Note_on_c, 1, 65, 127
1, 278972, Note_off_c, 1, 74, 0
1, 278972, Note_off_c, 1, 56, 0
1, 278972, Note_off_c, 1, 47, 0
1, 278972, Note_off_c, 1, 35, 0
1, 278972, Note_off_c, 1, 65, 0
1, 278976, Note_on_c, 1, 65, 127
1, 278976, Note_on_c, 1, 74, 127
1, 278976, Note_on_c, 1, 62, 127
1, 278976, Note_on_c, 1, 44, 127
1, 278976, Note_on_c, 1, 32, 127
1, 278976, Note_on_c, 1, 71, 127
1, 279068, Note_off_c, 1, 65, 0
1, 279068, Note_off_c, 1, 71, 0
1, 279072, Note_on_c, 1, 69, 127
1, 279164, Note_off_c, 1, 62, 0
1, 279164, Note_off_c, 1, 44, 0
1, 279164, Note_off_c, 1, 32, 0
1, 279164, Note_off_c, 1, 69, 0
1, 279168, Note_on_c, 1, 56, 127
1, 279168, Note_on_c, 1, 64, 127
1, 279168, Note_on_c, 1, 40, 127
1, 279168, Note_on_c, 1, 28, 127
1, 279340, Note_off_c, 1, 64, 0
1, 279356, Note_off_c, 1, 74, 0
1, 279356, Note_off_c, 1, 56, 0
1, 279356, Note_off_c, 1, 40, 0
1, 279356, Note_off_c, 1, 28, 0
1, 279360, Note_on_c, 1, 76, 127
1, 279360, Note_on_c, 1, 71, 127
1, 279360, Note_on_c, 1, 64, 127
1, 279360, Note_on_c, 1, 52, 127
1, 279360, Note_on_c, 1, 40, 127
1, 279452, Note_off_c, 1, 71, 0
1, 279456, Note_on_c, 1, 68, 127
1, 279456, Note_on_c, 1, 62, 127
1, 279532, Note_off_c, 1, 64, 0
1, 279548, Note_off_c, 1, 52, 0
1, 279548, Note_off_c, 1, 40, 0
1, 279548, Note_off_c, 1, 68, 0
1, 279548, Note_off_c, 1, 62, 0
1, 279552, Note_on_c, 1, 69, 127
1, 279552, Note_on_c, 1, 45, 127
1, 279552, Note_on_c, 1, 33, 127
1, 279552, Note_on_c, 1, 61, 127
1, 279552, Note_on_c, 1, 57, 127
1, 279644, Note_off_c, 1, 61, 0
1, 279644, Note_off_c, 1, 57, 0
1, 279648, Note_on_c, 1, 70, 127
1, 279740, Note_off_c, 1, 76, 0
1, 279740, Note_off_c, 1, 69, 0
1, 279740, Note_off_c, 1, 45, 0
1, 279740, Note_off_c, 1, 33, 0
1, 279740, Note_off_c, 1, 70, 0
1, 279744, Note_on_c, 1, 70, 127
1, 279744, Note_on_c, 1, 67, 127
1, 279744, Note_on_c, 1, 64, 127
1, 279744, Note_on_c, 1, 55, 127
1, 279744, Note_on_c, 1, 43, 127
1, 279744, Note_on_c, 1, 76, 127
1, 279836, Note_off_c, 1, 70, 0
1, 279836, Note_off_c, 1, 76, 0
1, 279840, Note_on_c, 1, 74, 127
1, 279916, Note_off_c, 1, 64, 0
1, 279932, Note_off_c, 1, 55, 0
1, 279932, Note_off_c, 1, 43, 0
1, 279932, Note_off_c, 1, 74, 0
1, 279936, Note_on_c, 1, 61, 127
1, 279936, Note_on_c, 1, 58, 127
1, 279936, Note_on_c, 1, 46, 127
1, 280124, Note_off_c, 1, 67, 0
1, 280124, Note_off_c, 1, 61, 0
1, 280124, Note_off_c, 1, 58, 0
1, 280124, Note_off_c, 1, 46, 0
1, 280128, Note_on_c, 1, 76, 127
1, 280128, Note_on_c, 1, 64, 127
1, 280128, Note_on_c, 1, 67, 127
1, 280128, Note_on_c, 1, 55, 127
1, 280128, Note_on_c, 1, 43, 127
1, 280128, Note_on_c, 1, 69, 127
1, 280220, Note_off_c, 1, 64, 0
1, 280220, Note_off_c, 1, 69, 0
1, 280224, Note_on_c, 1, 61, 127
1, 280316, Note_off_c, 1, 67, 0
1, 280316, Note_off_c, 1, 55, 0
1, 280316, Note_off_c, 1, 43, 0
1, 280316, Note_off_c, 1, 61, 0
1, 280320, Note_on_c, 1, 57, 127
1, 280320, Note_on_c, 1, 52, 127
1, 280320, Note_on_c, 1, 40, 127
1, 280416, Note_on_c, 1, 70, 127
1, 280508, Note_off_c, 1, 76, 0
1, 280508, Note_off_c, 1, 57, 0
1, 280508, Note_off_c, 1, 52, 0
1, 280508, Note_off_c, 1, 40, 0
1, 280508, Note_off_c, 1, 70, 0
1, 280512, Note_on_c, 1, 70, 127
1, 280512, Note_on_c, 1, 67, 127
1, 280512, Note_on_c, 1, 49, 127
1, 280512, Note_on_c, 1, 37, 127
1, 280512, Note_on_c, 1, 76, 127
1, 280604, Note_off_c, 1, 70, 0
1, 280604, Note_off_c, 1, 76, 0
1, 280608, Note_on_c, 1, 74, 127
1, 280700, Note_off_c, 1, 49, 0
1, 280700, Note_off_c, 1, 37, 0
1, 280700, Note_off_c, 1, 74, 0
1, 280704, Note_on_c, 1, 61, 127
1, 280704, Note_on_c, 1, 69, 127
1, 280704, Note_on_c, 1, 45, 127
1, 280704, Note_on_c, 1, 33, 127
1, 280876, Note_off_c, 1, 69, 0
1, 280892, Note_off_c, 1, 67, 0
1, 280892, Note_off_c, 1, 61, 0
1, 280892, Note_off_c, 1, 45, 0
1, 280892, Note_off_c, 1, 33, 0
1, 280896, Note_on_c, 1, 81, 127
1, 280896, Note_on_c, 1, 64, 127
1, 280896, Note_on_c, 1, 69, 127
1, 280896, Note_on_c, 1, 57, 127
1, 280896, Note_on_c, 1, 45, 127
1, 280988, Note_off_c, 1, 64, 0
1, 280992, Note_on_c, 1, 61, 127
1, 280992, Note_on_c, 1, 67, 127
1, 281040, Note_off_c, 1, 81, 0
1, 281068, Note_off_c, 1, 69, 0
1, 281084, Note_off_c, 1, 57, 0
1, 281084, Note_off_c, 1, 45, 0
1, 281084, Note_off_c, 1, 61, 0
1, 281084, Note_off_c, 1, 67, 0
1, 281088, Note_on_c, 1, 81, 127
1, 281088, Note_on_c, 1, 74, 127
1, 281088, Note_on_c, 1, 69, 127
1, 281088, Note_on_c, 1, 50, 127
1, 281088, Note_on_c, 1, 38, 127
1, 281088, Note_on_c, 1, 65, 127
1, 281088, Note_on_c, 1, 62, 127
1, 281180, Note_off_c, 1, 65, 0
1, 281180, Note_off_c, 1, 62, 0
1, 281232, Note_off_c, 1, 81, 0
1, 281232, Note_off_c, 1, 74, 0
1, 281280, Note_on_c, 1, 77, 127
1, 281376, Note_off_c, 1, 50, 0
1, 281376, Note_off_c, 1, 38, 0
1, 281376, Note_on_c, 1, 73, 127
1, 281424, Note_off_c, 1, 69, 0
1, 281424, Note_off_c, 1, 77, 0
1, 281468, Note_off_c, 1, 73, 0
1, 281472, Note_on_c, 1, 74, 127
1, 281472, Note_on_c, 1, 65, 127
1, 281472, Note_on_c, 1, 62, 127
1, 281568, Note_on_c, 1, 67, 127
1, 281616, Note_off_c, 1, 74, 0
1, 281616, Note_off_c, 1, 65, 0
1, 281660, Note_off_c, 1, 67, 0
1, 281664, Note_on_c, 1, 77, 127
1, 281664, Note_on_c, 1, 69, 127
1, 281760, Note_off_c, 1, 62, 0
1, 281760, Note_on_c, 1, 64, 127
1, 281808, Note_off_c, 1, 77, 0
1, 281808, Note_off_c, 1, 69, 0
1, 281852, Note_off_c, 1, 64, 0
1, 281856, Note_on_c, 1, 81, 127
1, 281856, Note_on_c, 1, 74, 127
1, 281856, Note_on_c, 1, 48, 127
1, 281856, Note_on_c, 1, 36, 127
1, 281856, Note_on_c, 1, 53, 127
1, 281856, Note_on_c, 1, 62, 127
1, 281948, Note_off_c, 1, 53, 0
1, 281948, Note_off_c, 1, 62, 0
1, 281952, Note_on_c, 1, 69, 127
1, 282000, Note_off_c, 1, 81, 0
1, 282000, Note_off_c, 1, 74, 0
1, 282044, Note_off_c, 1, 69, 0
1, 282048, Note_on_c, 1, 77, 127
1, 282144, Note_off_c, 1, 48, 0
1, 282144, Note_off_c, 1, 36, 0
1, 282144, Note_on_c, 1, 73, 127
1, 282192, Note_off_c, 1, 77, 0
1, 282236, Note_off_c, 1, 73, 0
1, 282240, Note_on_c, 1, 74, 127
1, 282240, Note_on_c, 1, 65, 127
1, 282240, Note_on_c, 1, 60, 127
1, 282336, Note_on_c, 1, 64, 127
1, 282384, Note_off_c, 1, 74, 0
1, 282384, Note_off_c, 1, 65, 0
1, 282428, Note_off_c, 1, 64, 0
1, 282432, Note_on_c, 1, 77, 127
1, 282432, Note_on_c, 1, 69, 127
1, 282432, Note_on_c, 1, 62, 127
1, 282524, Note_off_c, 1, 62, 0
1, 282576, Note_off_c, 1, 77, 0
1, 282576, Note_off_c, 1, 69, 0
1, 282620, Note_off_c, 1, 60, 0
1, 282624, Note_on_c, 1, 82, 127
1, 282624, Note_on_c, 1, 74, 127
1, 282624, Note_on_c, 1, 46, 127
1, 282624, Note_on_c, 1, 34, 127
1, 282624, Note_on_c, 1, 58, 127
1, 282716, Note_off_c, 1, 58, 0
1, 282720, Note_on_c, 1, 65, 127
1, 282768, Note_off_c, 1, 82, 0
1, 282768, Note_off_c, 1, 74, 0
1, 282812, Note_off_c, 1, 65, 0
1, 282816, Note_on_c, 1, 77, 127
1, 282816, Note_on_c, 1, 70, 127
1, 282912, Note_off_c, 1, 46, 0
1, 282912, Note_off_c, 1, 34, 0
1, 282912, Note_on_c, 1, 73, 127
1, 282960, Note_off_c, 1, 77, 0
1, 282960, Note_off_c, 1, 70, 0
1, 283004, Note_off_c, 1, 73, 0
1, 283008, Note_on_c, 1, 74, 127
1, 283008, Note_on_c, 1, 65, 127
1, 283008, Note_on_c, 1, 58, 127
1, 283152, Note_off_c, 1, 74, 0
1, 283152, Note_off_c, 1, 65, 0
1, 283200, Note_on_c, 1, 77, 127
1, 283200, Note_on_c, 1, 70, 127
1, 283200, Note_on_c, 1, 57, 127
1, 283292, Note_off_c, 1, 57, 0
1, 283296, Note_off_c, 1, 58, 0
1, 283296, Note_on_c, 1, 55, 127
1, 283344, Note_off_c, 1, 77, 0
1, 283344, Note_off_c, 1, 70, 0
1, 283388, Note_off_c, 1, 55, 0
1, 283392, Note_on_c, 1, 81, 127
1, 283392, Note_on_c, 1, 74, 127
1, 283392, Note_on_c, 1, 45, 127
1, 283392, Note_on_c, 1, 33, 127
1, 283392, Note_on_c, 1, 41, 127
1, 283392, Note_on_c, 1, 53, 127
1, 283484, Note_off_c, 1, 41, 0
1, 283484, Note_off_c, 1, 53, 0
1, 283488, Note_on_c, 1, 69, 127
1, 283536, Note_off_c, 1, 81, 0
1, 283536, Note_off_c, 1, 74, 0
1, 283580, Note_off_c, 1, 69, 0
1, 283584, Note_on_c, 1, 77, 127
1, 283680, Note_off_c, 1, 45, 0
1, 283680, Note_off_c, 1, 33, 0
1, 283680, Note_on_c, 1, 73, 127
1, 283728, Note_off_c, 1, 77, 0
1, 283772, Note_off_c, 1, 73, 0
1, 283776, Note_on_c, 1, 74, 127
1, 283776, Note_on_c, 1, 65, 127
1, 283776, Note_on_c, 1, 57, 127
1, 283872, Note_on_c, 1, 69, 127
1, 283920, Note_off_c, 1, 74, 0
1, 283920, Note_off_c, 1, 65, 0
1, 283964, Note_off_c, 1, 69, 0
1, 283968, Note_on_c, 1, 77, 127
1, 283968, Note_on_c, 1, 67, 127
1, 284060, Note_off_c, 1, 67, 0
1, 284064, Note_off_c, 1, 57, 0
1, 284112, Note_off_c, 1, 77, 0
1, 284160, Note_on_c, 1, 76, 127
1, 284160, Note_on_c, 1, 58, 127
1, 284160, Note_on_c, 1, 43, 127
1, 284160, Note_on_c, 1, 31, 127
1, 284160, Note_on_c, 1, 70, 127
1, 284160, Note_on_c, 1, 55, 127
1, 284252, Note_off_c, 1, 70, 0
1, 284256, Note_on_c, 1, 67, 127
1, 284348, Note_off_c, 1, 76, 0
1, 284348, Note_off_c, 1, 58, 0
1, 284348, Note_off_c, 1, 55, 0
1, 284348, Note_off_c, 1, 67, 0
1, 284352, Note_on_c, 1, 74, 127
1, 284352, Note_on_c, 1, 62, 127
1, 284352, Note_on_c, 1, 65, 127
1, 284444, Note_off_c, 1, 65, 0
1, 284448, Note_on_c, 1, 64, 127
1, 284480, Note_off_c, 1, 74, 0
1, 284480, Note_off_c, 1, 62, 0
1, 284540, Note_off_c, 1, 43, 0
1, 284540, Note_off_c, 1, 31, 0
1, 284540, Note_off_c, 1, 64, 0
1, 284544, Note_on_c, 1, 73, 127
1, 284544, Note_on_c, 1, 64, 127
1, 284544, Note_on_c, 1, 55, 127
1, 284544, Note_on_c, 1, 67, 127
1, 284636, Note_off_c, 1, 67, 0
1, 284732, Note_off_c, 1, 73, 0
1, 284732, Note_off_c, 1, 64, 0
1, 284736, Note_on_c, 1, 74, 127
1, 284736, Note_on_c, 1, 65, 127
1, 284736, Note_on_c, 1, 62, 127
1, 284828, Note_off_c, 1, 62, 0
1, 284832, Note_on_c, 1, 61, 127
1, 284864, Note_off_c, 1, 74, 0
1, 284864, Note_off_c, 1, 65, 0
1, 284924, Note_off_c, 1, 55, 0
1, 284924, Note_off_c, 1, 61, 0
1, 284928, Note_on_c, 1, 70, 127
1, 284928, Note_on_c, 1, 64, 127
1, 284928, Note_on_c, 1, 37, 127
1, 284928, Note_on_c, 1, 25, 127
1, 284928, Note_on_c, 1, 49, 127
1, 284928, Note_on_c, 1, 55, 127
1, 285024, Note_on_c, 1, 61, 127
1, 285116, Note_off_c, 1, 70, 0
1, 285116, Note_off_c, 1, 64, 0
1, 285116, Note_off_c, 1, 49, 0
1, 285116, Note_off_c, 1, 55, 0
1, 285116, Note_off_c, 1, 61, 0
1, 285120, Note_on_c, 1, 76, 127
1, 285120, Note_on_c, 1, 67, 127
1, 285120, Note_on_c, 1, 59, 127
1, 285212, Note_off_c, 1, 59, 0
1, 285216, Note_on_c, 1, 57, 127
1, 285248, Note_off_c, 1, 76, 0
1, 285248, Note_off_c, 1, 67, 0
1, 285308, Note_off_c, 1, 37, 0
1, 285308, Note_off_c, 1, 25, 0
1, 285308, Note_off_c, 1, 57, 0
1, 285312, Note_on_c, 1, 79, 127
1, 285312, Note_on_c, 1, 61, 127
1, 285312, Note_on_c, 1, 52, 127
1, 285312, Note_on_c, 1, 58, 127
1, 285404, Note_off_c, 1, 58, 0
1, 285408, Note_on_c, 1, 55, 127
1, 285500, Note_off_c, 1, 79, 0
1, 285500, Note_off_c, 1, 61, 0
1, 285500, Note_off_c, 1, 52, 0
1, 285500, Note_off_c, 1, 55, 0
1, 285504, Note_on_c, 1, 70, 127
1, 285504, Note_on_c, 1, 67, 127
1, 285504, Note_on_c, 1, 61, 127
1, 285504, Note_on_c, 1, 53, 127
1, 285596, Note_off_c, 1, 53, 0
1, 285600, Note_on_c, 1, 52, 127
1, 285632, Note_off_c, 1, 70, 0
1, 285632, Note_off_c, 1, 67, 0
1, 285692, Note_off_c, 1, 61, 0
1, 285692, Note_off_c, 1, 52, 0
1, 285696, Note_on_c, 1, 69, 127
1, 285696, Note_on_c, 1, 65, 127
1, 285696, Note_on_c, 1, 62, 127
1, 285696, Note_on_c, 1, 38, 127
1, 285696, Note_on_c, 1, 26, 127
1, 285696, Note_on_c, 1, 53, 127
1, 285696, Note_on_c, 1, 50, 127
1, 285788, Note_off_c, 1, 53, 0
1, 285792, Note_on_c, 1, 57, 127
1, 285884, Note_off_c, 1, 69, 0
1, 285884, Note_off_c, 1, 65, 0
1, 285884, Note_off_c, 1, 62, 0
1, 285884, Note_off_c, 1, 57, 0
1, 285984, Note_on_c, 1, 61, 127
1, 286076, Note_off_c, 1, 38, 0
1, 286076, Note_off_c, 1, 26, 0
1, 286076, Note_off_c, 1, 50, 0
1, 286076, Note_off_c, 1, 61, 0
1, 286080, Note_on_c, 1, 62, 127
1, 286172, Note_off_c, 1, 62, 0
1, 286176, Note_on_c, 1, 57, 127
1, 286268, Note_off_c, 1, 57, 0
1, 286272, Note_on_c, 1, 50, 127
1, 286272, Note_on_c, 1, 38, 127
1, 286272, Note_on_c, 1, 65, 127
1, 286364, Note_off_c, 1, 50, 0
1, 286364, Note_off_c, 1, 38, 0
1, 286364, Note_off_c, 1, 65, 0
1, 286368, Note_on_c, 1, 52, 127
1, 286368, Note_on_c, 1, 40, 127
1, 286368, Note_on_c, 1, 62, 127
1, 286460, Note_off_c, 1, 52, 0
1, 286460, Note_off_c, 1, 40, 0
1, 286460, Note_off_c, 1, 62, 0
1, 286464, Note_on_c, 1, 53, 127
1, 286464, Note_on_c, 1, 41, 127
1, 286464, Note_on_c, 1, 69, 127
1, 286592, Note_off_c, 1, 53, 0
1, 286652, Note_off_c, 1, 41, 0
1, 286652, Note_off_c, 1, 69, 0
1, 286656, Note_on_c, 1, 55, 127
1, 286656, Note_on_c, 1, 43, 127
1, 286656, Note_on_c, 1, 62, 127
1, 286656, Note_on_c, 1, 45, 127
1, 286700, Note_off_c, 1, 45, 0
1, 286752, Note_on_c, 1, 41, 127
1, 286784, Note_off_c, 1, 55, 0
1, 286784, Note_off_c, 1, 43, 0
1, 286796, Note_off_c, 1, 41, 0
1, 286844, Note_off_c, 1, 62, 0
1, 286848, Note_on_c, 1, 57, 127
1, 286848, Note_on_c, 1, 45, 127
1, 287036, Note_off_c, 1, 57, 0
1, 287036, Note_off_c, 1, 45, 0
1, 287040, Note_on_c, 1, 45, 127
1, 287040, Note_on_c, 1, 33, 127
1, 287040, Note_on_c, 1, 61, 127
1, 287168, Note_off_c, 1, 45, 0
1, 287228, Note_off_c, 1, 33, 0
1, 287228, Note_off_c, 1, 61, 0
1, 287232, Note_on_c, 1, 62, 127
1, 287232, Note_on_c, 1, 50, 127
1, 287232, Note_on_c, 1, 38, 127
1, 287328, Note_off_c, 1, 62, 0
1, 287328, Note_off_c, 1, 50, 0
1, 287328, Note_on_c, 1, 64, 127
1, 287328, Note_on_c, 1, 52, 127
1, 287328, Note_on_c, 1, 40, 127
1, 287424, Note_off_c, 1, 64, 0
1, 287424, Note_off_c, 1, 52, 0
1, 287424, Note_off_c, 1, 40, 0
1, 287424, Note_on_c, 1, 65, 127
1, 287424, Note_on_c, 1, 53, 127
1, 287424, Note_on_c, 1, 41, 127
1, 287552, Note_off_c, 1, 65, 0
1, 287552, Note_off_c, 1, 53, 0
1, 287552, Note_off_c, 1, 41, 0
1, 287612, Note_off_c, 1, 38, 0
1, 287616, Note_on_c, 1, 64, 127
1, 287616, Note_on_c, 1, 52, 127
1, 287616, Note_on_c, 1, 40, 127
1, 287808, Note_off_c, 1, 64, 0
1, 287808, Note_off_c, 1, 52, 0
1, 287808, Note_off_c, 1, 40, 0
1, 287808, Note_on_c, 1, 62, 127
1, 287808, Note_on_c, 1, 50, 127
1, 287808, Note_on_c, 1, 38, 127
1, 288000, Note_off_c, 1, 62, 0
1, 288000, Note_off_c, 1, 50, 0
1, 288000, Note_off_c, 1, 38, 0
1, 288000, Note_on_c, 1, 69, 127
1, 288000, Note_on_c, 1, 57, 127
1, 288000, Note_on_c, 1, 45, 127
1, 288192, Note_off_c, 1, 69, 0
1, 288192, Note_off_c, 1, 57, 0
1, 288192, Note_off_c, 1, 45, 0
1, 288192, Note_on_c, 1, 74, 127
1, 288576, Note_off_c, 1, 74, 0
1, 288768, Note_on_c, 1, 70, 127
1, 288768, Note_on_c, 1, 58, 127
1, 288768, Note_on_c, 1, 46, 127
1, 288956, Note_off_c, 1, 70, 0
1, 288956, Note_off_c, 1, 58, 0
1, 288956, Note_off_c, 1, 46, 0
1, 288960, Note_on_c, 1, 67, 127
1, 288960, Note_on_c, 1, 55, 127
1, 288960, Note_on_c, 1, 43, 127
1, 289052, Note_off_c, 1, 67, 0
1, 289052, Note_off_c, 1, 55, 0
1, 289052, Note_off_c, 1, 43, 0
1, 289056, Note_on_c, 1, 64, 127
1, 289056, Note_on_c, 1, 52, 127
1, 289056, Note_on_c, 1, 40, 127
1, 289148, Note_off_c, 1, 64, 0
1, 289148, Note_off_c, 1, 52, 0
1, 289148, Note_off_c, 1, 40, 0
1, 289152, Note_on_c, 1, 69, 127
1, 289152, Note_on_c, 1, 57, 127
1, 289152, Note_on_c, 1, 45, 127
1, 289340, Note_off_c, 1, 69, 0
1, 289340, Note_off_c, 1, 57, 0
1, 289340, Note_off_c, 1, 45, 0
1, 289344, Note_on_c, 1, 65, 127
1, 289344, Note_on_c, 1, 53, 127
1, 289344, Note_on_c, 1, 41, 127
1, 289436, Note_off_c, 1, 65, 0
1, 289436, Note_off_c, 1, 53, 0
1, 289436, Note_off_c, 1, 41, 0
1, 289440, Note_on_c, 1, 62, 127
1, 289440, Note_on_c, 1, 50, 127
1, 289440, Note_on_c, 1, 38, 127
1, 289532, Note_off_c, 1, 62, 0
1, 289532, Note_off_c, 1, 50, 0
1, 289532, Note_off_c, 1, 38, 0
1, 289536, Note_on_c, 1, 67, 127
1, 289536, Note_on_c, 1, 55, 127
1, 289536, Note_on_c, 1, 43, 127
1, 289724, Note_off_c, 1, 67, 0
1, 289724, Note_off_c, 1, 55, 0
1, 289724, Note_off_c, 1, 43, 0
1, 289728, Note_on_c, 1, 64, 127
1, 289728, Note_on_c, 1, 52, 127
1, 289728, Note_on_c, 1, 40, 127
1, 289820, Note_off_c, 1, 64, 0
1, 289820, Note_off_c, 1, 52, 0
1, 289820, Note_off_c, 1, 40, 0
1, 289824, Note_on_c, 1, 61, 127
1, 289824, Note_on_c, 1, 49, 127
1, 289824, Note_on_c, 1, 37, 127
1, 289916, Note_off_c, 1, 61, 0
1, 289916, Note_off_c, 1, 49, 0
1, 289916, Note_off_c, 1, 37, 0
1, 289920, Note_on_c, 1, 57, 127
1, 289920, Note_on_c, 1, 45, 127
1, 289920, Note_on_c, 1, 33, 127
1, 290048, Note_off_c, 1, 57, 0
1, 290048, Note_off_c, 1, 45, 0
1, 290048, Note_off_c, 1, 33, 0
1, 290112, Note_on_c, 1, 70, 127
1, 290112, Note_on_c, 1, 58, 127
1, 290112, Note_on_c, 1, 46, 127
1, 290492, Note_off_c, 1, 70, 0
1, 290492, Note_off_c, 1, 58, 0
1, 290492, Note_off_c, 1, 46, 0
1, 290496, Note_on_c, 1, 67, 127
1, 290496, Note_on_c, 1, 55, 127
1, 290496, Note_on_c, 1, 43, 127
1, 290588, Note_off_c, 1, 67, 0
1, 290588, Note_off_c, 1, 55, 0
1, 290588, Note_off_c, 1, 43, 0
1, 290592, Note_on_c, 1, 64, 127
1, 290592, Note_on_c, 1, 52, 127
1, 290592, Note_on_c, 1, 40, 127
1, 290684, Note_off_c, 1, 64, 0
1, 290684, Note_off_c, 1, 52, 0
1, 290684, Note_off_c, 1, 40, 0
1, 290688, Note_on_c, 1, 57, 127
1, 290688, Note_on_c, 1, 45, 127
1, 290688, Note_on_c, 1, 33, 127
1, 290816, Note_off_c, 1, 57, 0
1, 290816, Note_off_c, 1, 45, 0
1, 290816, Note_off_c, 1, 33, 0
1, 290880, Note_on_c, 1, 73, 127
1, 290880, Note_on_c, 1, 61, 127
1, 290880, Note_on_c, 1, 49, 127
1, 291260, Note_off_c, 1, 73, 0
1, 291260, Note_off_c, 1, 61, 0
1, 291260, Note_off_c, 1, 49, 0
1, 291264, Note_on_c, 1, 70, 127
1, 291264, Note_on_c, 1, 58, 127
1, 291264, Note_on_c, 1, 46, 127
1, 291356, Note_off_c, 1, 70, 0
1, 291356, Note_off_c, 1, 58, 0
1, 291356, Note_off_c, 1, 46, 0
1, 291360, Note_on_c, 1, 67, 127
1, 291360, Note_on_c, 1, 55, 127
1, 291360, Note_on_c, 1, 43, 127
1, 291452, Note_off_c, 1, 67, 0
1, 291452, Note_off_c, 1, 55, 0
1, 291452, Note_off_c, 1, 43, 0
1, 291456, Note_on_c, 1, 57, 127
1, 291456, Note_on_c, 1, 45, 127
1, 291456, Note_on_c, 1, 33, 127
1, 291584, Note_off_c, 1, 57, 0
1, 291584, Note_off_c, 1, 45, 0
1, 291584, Note_off_c, 1, 33, 0
1, 291648, Note_on_c, 1, 76, 127
1, 291648, Note_on_c, 1, 64, 127
1, 291648, Note_on_c, 1, 52, 127
1, 292028, Note_off_c, 1, 76, 0
1, 292028, Note_off_c, 1, 64, 0
1, 292028, Note_off_c, 1, 52, 0
1, 292032, Note_on_c, 1, 73, 127
1, 292032, Note_on_c, 1, 61, 127
1, 292032, Note_on_c, 1, 49, 127
1, 292124, Note_off_c, 1, 73, 0
1, 292124, Note_off_c, 1, 61, 0
1, 292124, Note_off_c, 1, 49, 0
1, 292128, Note_on_c, 1, 69, 127
1, 292128, Note_on_c, 1, 57, 127
1, 292128, Note_on_c, 1, 45, 127
1, 292220, Note_off_c, 1, 69, 0
1, 292220, Note_off_c, 1, 57, 0
1, 292220, Note_off_c, 1, 45, 0
1, 292224, Note_on_c, 1, 70, 127
1, 292224, Note_on_c, 1, 58, 127
1, 292224, Note_on_c, 1, 46, 127
1, 292316, Note_off_c, 1, 70, 0
1, 292316, Note_off_c, 1, 58, 0
1, 292316, Note_off_c, 1, 46, 0
1, 292320, Note_on_c, 1, 67, 127
1, 292320, Note_on_c, 1, 55, 127
1, 292320, Note_on_c, 1, 43, 127
1, 292412, Note_off_c, 1, 67, 0
1, 292412, Note_off_c, 1, 55, 0
1, 292412, Note_off_c, 1, 43, 0
1, 292416, Note_on_c, 1, 69, 127
1, 292416, Note_on_c, 1, 57, 127
1, 292416, Note_on_c, 1, 45, 127
1, 292508, Note_off_c, 1, 69, 0
1, 292508, Note_off_c, 1, 57, 0
1, 292508, Note_off_c, 1, 45, 0
1, 292512, Note_on_c, 1, 65, 127
1, 292512, Note_on_c, 1, 53, 127
1, 292512, Note_on_c, 1, 41, 127
1, 292604, Note_off_c, 1, 65, 0
1, 292604, Note_off_c, 1, 53, 0
1, 292604, Note_off_c, 1, 41, 0
1, 292608, Note_on_c, 1, 67, 127
1, 292608, Note_on_c, 1, 55, 127
1, 292608, Note_on_c, 1, 43, 127
1, 292700, Note_off_c, 1, 67, 0
1, 292700, Note_off_c, 1, 55, 0
1, 292700, Note_off_c, 1, 43, 0
1, 292704, Note_on_c, 1, 64, 127
1, 292704, Note_on_c, 1, 52, 127
1, 292704, Note_on_c, 1, 40, 127
1, 292796, Note_off_c, 1, 64, 0
1, 292796, Note_off_c, 1, 52, 0
1, 292796, Note_off_c, 1, 40, 0
1, 292800, Note_on_c, 1, 65, 127
1, 292800, Note_on_c, 1, 53, 127
1, 292800, Note_on_c, 1, 41, 127
1, 292892, Note_off_c, 1, 65, 0
1, 292892, Note_off_c, 1, 53, 0
1, 292892, Note_off_c, 1, 41, 0
1, 292896, Note_on_c, 1, 62, 127
1, 292896, Note_on_c, 1, 50, 127
1, 292896, Note_on_c, 1, 38, 127
1, 292988, Note_off_c, 1, 62, 0
1, 292988, Note_off_c, 1, 50, 0
1, 292988, Note_off_c, 1, 38, 0
1, 292992, Note_on_c, 1, 64, 127
1, 292992, Note_on_c, 1, 52, 127
1, 292992, Note_on_c, 1, 40, 127
1, 293084, Note_off_c, 1, 64, 0
1, 293084, Note_off_c, 1, 52, 0
1, 293084, Note_off_c, 1, 40, 0
1, 293088, Note_on_c, 1, 61, 127
1, 293088, Note_on_c, 1, 49, 127
1, 293088, Note_on_c, 1, 37, 127
1, 293180, Note_off_c, 1, 61, 0
1, 293180, Note_off_c, 1, 49, 0
1, 293180, Note_off_c, 1, 37, 0
1, 293184, Note_on_c, 1, 62, 127
1, 293184, Note_on_c, 1, 50, 127
1, 293184, Note_on_c, 1, 38, 127
1, 293276, Note_off_c, 1, 62, 0
1, 293276, Note_off_c, 1, 50, 0
1, 293276, Note_off_c, 1, 38, 0
1, 293280, Note_on_c, 1, 59, 127
1, 293280, Note_on_c, 1, 47, 127
1, 293280, Note_on_c, 1, 35, 127
1, 293372, Note_off_c, 1, 59, 0
1, 293372, Note_off_c, 1, 47, 0
1, 293372, Note_off_c, 1, 35, 0
1, 293376, Note_on_c, 1, 61, 127
1, 293376, Note_on_c, 1, 49, 127
1, 293376, Note_on_c, 1, 37, 127
1, 293468, Note_off_c, 1, 61, 0
1, 293468, Note_off_c, 1, 49, 0
1, 293468, Note_off_c, 1, 37, 0
1, 293472, Note_on_c, 1, 57, 127
1, 293472, Note_on_c, 1, 45, 127
1, 293472, Note_on_c, 1, 33, 127
1, 293564, Note_off_c, 1, 57, 0
1, 293564, Note_off_c, 1, 45, 0
1, 293564, Note_off_c, 1, 33, 0
1, 293568, Note_on_c, 1, 59, 127
1, 293568, Note_on_c, 1, 47, 127
1, 293568, Note_on_c, 1, 35, 127
1, 293660, Note_off_c, 1, 59, 0
1, 293660, Note_off_c, 1, 47, 0
1, 293660, Note_off_c, 1, 35, 0
1, 293664, Note_on_c, 1, 61, 127
1, 293664, Note_on_c, 1, 49, 127
1, 293664, Note_on_c, 1, 37, 127
1, 293756, Note_off_c, 1, 61, 0
1, 293756, Note_off_c, 1, 49, 0
1, 293756, Note_off_c, 1, 37, 0
1, 293760, Note_on_c, 1, 62, 127
1, 293760, Note_on_c, 1, 50, 127
1, 293760, Note_on_c, 1, 38, 127
1, 293852, Note_off_c, 1, 62, 0
1, 293852, Note_off_c, 1, 50, 0
1, 293852, Note_off_c, 1, 38, 0
1, 293856, Note_on_c, 1, 64, 127
1, 293856, Note_on_c, 1, 52, 127
1, 293856, Note_on_c, 1, 40, 127
1, 293948, Note_off_c, 1, 64, 0
1, 293948, Note_off_c, 1, 52, 0
1, 293948, Note_off_c, 1, 40, 0
1, 293952, Note_on_c, 1, 65, 127
1, 293952, Note_on_c, 1, 53, 127
1, 293952, Note_on_c, 1, 41, 127
1, 294044, Note_off_c, 1, 65, 0
1, 294044, Note_off_c, 1, 53, 0
1, 294044, Note_off_c, 1, 41, 0
1, 294048, Note_on_c, 1, 67, 127
1, 294048, Note_on_c, 1, 55, 127
1, 294048, Note_on_c, 1, 43, 127
1, 294140, Note_off_c, 1, 67, 0
1, 294140, Note_off_c, 1, 55, 0
1, 294140, Note_off_c, 1, 43, 0
1, 294144, Note_on_c, 1, 69, 127
1, 294144, Note_on_c, 1, 57, 127
1, 294144, Note_on_c, 1, 45, 127
1, 294236, Note_off_c, 1, 69, 0
1, 294236, Note_off_c, 1, 57, 0
1, 294236, Note_off_c, 1, 45, 0
1, 294240, Note_on_c, 1, 70, 127
1, 294240, Note_on_c, 1, 58, 127
1, 294240, Note_on_c, 1, 46, 127
1, 294332, Note_off_c, 1, 70, 0
1, 294332, Note_off_c, 1, 58, 0
1, 294332, Note_off_c, 1, 46, 0
1, 294336, Note_on_c, 1, 72, 127
1, 294336, Note_on_c, 1, 60, 127
1, 294336, Note_on_c, 1, 48, 127
1, 294464, Note_off_c, 1, 72, 0
1, 294464, Note_off_c, 1, 60, 0
1, 294464, Note_off_c, 1, 48, 0
1, 294528, Note_on_c, 1, 72, 127
1, 294528, Note_on_c, 1, 60, 127
1, 294528, Note_on_c, 1, 48, 127
1, 294620, Note_off_c, 1, 72, 0
1, 294620, Note_off_c, 1, 60, 0
1, 294620, Note_off_c, 1, 48, 0
1, 294624, Note_on_c, 1, 74, 127
1, 294624, Note_on_c, 1, 62, 127
1, 294624, Note_on_c, 1, 50, 127
1, 294716, Note_off_c, 1, 74, 0
1, 294716, Note_off_c, 1, 62, 0
1, 294716, Note_off_c, 1, 50, 0
1, 294720, Note_on_c, 1, 75, 127
1, 294720, Note_on_c, 1, 63, 127
1, 294720, Note_on_c, 1, 51, 127
1, 294848, Note_off_c, 1, 75, 0
1, 294848, Note_off_c, 1, 63, 0
1, 294848, Note_off_c, 1, 51, 0
1, 294912, Note_on_c, 1, 66, 127
1, 294912, Note_on_c, 1, 54, 127
1, 294912, Note_on_c, 1, 42, 127
1, 295020, Note_off_c, 1, 66, 0
1, 295020, Note_off_c, 1, 54, 0
1, 295020, Note_off_c, 1, 42, 0
1, 295104, Note_on_c, 1, 67, 127
1, 295104, Note_on_c, 1, 55, 127
1, 295104, Note_on_c, 1, 43, 127
1, 295212, Note_off_c, 1, 67, 0
1, 295212, Note_off_c, 1, 55, 0
1, 295212, Note_off_c, 1, 43, 0
1, 295296, Note_on_c, 1, 61, 127
1, 295296, Note_on_c, 1, 49, 127
1, 295296, Note_on_c, 1, 37, 127
1, 295404, Note_off_c, 1, 61, 0
1, 295404, Note_off_c, 1, 49, 0
1, 295404, Note_off_c, 1, 37, 0
1, 295488, Note_on_c, 1, 62, 127
1, 295488, Note_on_c, 1, 50, 127
1, 295488, Note_on_c, 1, 38, 127
1, 295596, Note_off_c, 1, 62, 0
1, 295596, Note_off_c, 1, 50, 0
1, 295596, Note_off_c, 1, 38, 0
1, 295680, Note_on_c, 1, 56, 127
1, 295680, Note_on_c, 1, 44, 127
1, 295680, Note_on_c, 1, 32, 127
1, 295868, Note_off_c, 1, 56, 0
1, 295868, Note_off_c, 1, 44, 0
1, 295868, Note_off_c, 1, 32, 0
1, 296064, Note_on_c, 1, 57, 127
1, 296064, Note_on_c, 1, 45, 127
1, 296064, Note_on_c, 1, 33, 127
1, 296064, Note_on_c, 1, 64, 127
1, 296064, Note_on_c, 1, 67, 127
1, 296064, Note_on_c, 1, 69, 127
1, 296064, Note_on_c, 1, 73, 127
1, 296192, Note_off_c, 1, 64, 0
1, 296192, Note_off_c, 1, 67, 0
1, 296192, Note_off_c, 1, 69, 0
1, 296192, Note_off_c, 1, 73, 0
1, 296252, Note_off_c, 1, 57, 0
1, 296252, Note_off_c, 1, 45, 0
1, 296252, Note_off_c, 1, 33, 0
1, 296448, Note_on_c, 1, 62, 127
1, 296448, Note_on_c, 1, 50, 127
1, 296448, Note_on_c, 1, 38, 127
1, 296448, Note_on_c, 1, 26, 127
1, 296448, Note_on_c, 1, 65, 127
1, 296448, Note_on_c, 1, 69, 127
1, 296448, Note_on_c, 1, 74, 127
1, 297212, Note_off_c, 1, 62, 0
1, 297212, Note_off_c, 1, 50, 0
1, 297212, Note_off_c, 1, 38, 0
1, 297212, Note_off_c, 1, 26, 0
1, 297212, Note_off_c, 1, 65, 0
1, 297212, Note_off_c, 1, 69, 0
1, 297212, Note_off_c, 1, 74, 0
1, 297212, End_track
0, 0, End_of_file