0, 0, Header, 1, 1, 480
1, 0, Start_track
1, 0, Title_t, "Test"
1, 0, Tempo, 500000
1, 0, Instrument_name_t, "Church Organ"
1, 60, Note_on_c, 1, 62, 127
1, 60, Note_on_c, 1, 67, 127
1, 60, Note_on_c, 1, 55, 127
1, 89, Note_off_c, 1, 67, 0
1, 89, Note_off_c, 1, 55, 0
1, 90, Note_on_c, 1, 66, 127
1, 90, Note_on_c, 1, 57, 127
1, 119, Note_off_c, 1, 62, 0
1, 119, Note_off_c, 1, 66, 0
1, 119, Note_off_c, 1, 57, 0
1, 120, Note_on_c, 1, 62, 127
1, 120, Note_on_c, 1, 67, 127
1, 120, Note_on_c, 1, 58, 127
1, 179, Note_off_c, 1, 62, 0
1, 179, Note_off_c, 1, 67, 0
1, 179, Note_off_c, 1, 58, 0
1, 180, Note_on_c, 1, 67, 127
1, 180, Note_on_c, 1, 62, 127
1, 180, Note_on_c, 1, 55, 127
1, 209, Note_off_c, 1, 67, 0
1, 210, Note_on_c, 1, 66, 127
1, 239, Note_off_c, 1, 62, 0
1, 239, Note_off_c, 1, 55, 0
1, 239, Note_off_c, 1, 66, 0
1, 240, Note_on_c, 1, 67, 127
1, 240, Note_on_c, 1, 58, 127
1, 240, Note_on_c, 1, 43, 127
1, 299, Note_off_c, 1, 67, 0
1, 299, Note_off_c, 1, 58, 0
1, 299, Note_off_c, 1, 43, 0
1, 300, Note_on_c, 1, 62, 127
1, 300, Note_on_c, 1, 70, 127
1, 300, Note_on_c, 1, 55, 127
1, 329, Note_off_c, 1, 62, 0
1, 329, Note_off_c, 1, 70, 0
1, 329, Note_off_c, 1, 55, 0
1, 330, Note_on_c, 1, 60, 127
1, 330, Note_on_c, 1, 72, 127
1, 330, Note_on_c, 1, 57, 127
1, 359, Note_off_c, 1, 60, 0
1, 359, Note_off_c, 1, 72, 0
1, 359, Note_off_c, 1, 57, 0
1, 360, Note_on_c, 1, 62, 127
1, 360, Note_on_c, 1, 74, 127
1, 360, Note_on_c, 1, 67, 127
1, 360, Note_on_c, 1, 58, 127
1, 419, Note_off_c, 1, 62, 0
1, 419, Note_off_c, 1, 74, 0
1, 419, Note_off_c, 1, 67, 0
1, 419, Note_off_c, 1, 58, 0
1, 420, Note_on_c, 1, 58, 127
1, 420, Note_on_c, 1, 67, 127
1, 420, Note_on_c, 1, 55, 127
1, 449, Note_off_c, 1, 58, 0
1, 450, Note_on_c, 1, 57, 127
1, 479, Note_off_c, 1, 67, 0
1, 479, Note_off_c, 1, 55, 0
1, 479, Note_off_c, 1, 57, 0
1, 480, Note_on_c, 1, 58, 127
1, 480, Note_on_c, 1, 62, 127
1, 480, Note_on_c, 1, 43, 127
1, 539, Note_off_c, 1, 58, 0
1, 539, Note_off_c, 1, 62, 0
1, 539, Note_off_c, 1, 43, 0
1, 540, Note_on_c, 1, 55, 127
1, 540, Note_on_c, 1, 70, 127
1, 569, Note_off_c, 1, 55, 0
1, 569, Note_off_c, 1, 70, 0
1, 570, Note_on_c, 1, 54, 127
1, 570, Note_on_c, 1, 72, 127
1, 570, Note_on_c, 1, 57, 127
1, 599, Note_off_c, 1, 54, 0
1, 599, Note_off_c, 1, 72, 0
1, 599, Note_off_c, 1, 57, 0
1, 600, Note_on_c, 1, 55, 127
1, 600, Note_on_c, 1, 74, 127
1, 600, Note_on_c, 1, 67, 127
1, 600, Note_on_c, 1, 58, 127
1, 629, Note_off_c, 1, 74, 0
1, 629, Note_off_c, 1, 58, 0
1, 630, Note_on_c, 1, 72, 127
1, 630, Note_on_c, 1, 57, 127
1, 659, Note_off_c, 1, 55, 0
1, 659, Note_off_c, 1, 67, 0
1, 659, Note_off_c, 1, 72, 0
1, 659, Note_off_c, 1, 57, 0
1, 660, Note_on_c, 1, 58, 127
1, 660, Note_on_c, 1, 70, 127
1, 660, Note_on_c, 1, 62, 127
1, 660, Note_on_c, 1, 55, 127
1, 689, Note_off_c, 1, 70, 0
1, 689, Note_off_c, 1, 55, 0
1, 690, Note_on_c, 1, 72, 127
1, 690, Note_on_c, 1, 57, 127
1, 719, Note_off_c, 1, 58, 0
1, 719, Note_off_c, 1, 62, 0
1, 719, Note_off_c, 1, 72, 0
1, 719, Note_off_c, 1, 57, 0
1, 720, Note_on_c, 1, 62, 127
1, 720, Note_on_c, 1, 74, 127
1, 720, Note_on_c, 1, 67, 127
1, 720, Note_on_c, 1, 58, 127
1, 749, Note_off_c, 1, 74, 0
1, 749, Note_off_c, 1, 58, 0
1, 750, Note_on_c, 1, 72, 127
1, 750, Note_on_c, 1, 57, 127
1, 779, Note_off_c, 1, 62, 0
1, 779, Note_off_c, 1, 67, 0
1, 779, Note_off_c, 1, 72, 0
1, 779, Note_off_c, 1, 57, 0
1, 780, Note_on_c, 1, 67, 127
1, 780, Note_on_c, 1, 70, 127
1, 780, Note_on_c, 1, 62, 127
1, 780, Note_on_c, 1, 58, 127
1, 809, Note_off_c, 1, 70, 0
1, 809, Note_off_c, 1, 58, 0
1, 810, Note_on_c, 1, 72, 127
1, 810, Note_on_c, 1, 55, 127
1, 839, Note_off_c, 1, 67, 0
1, 839, Note_off_c, 1, 62, 0
1, 839, Note_off_c, 1, 72, 0
1, 839, Note_off_c, 1, 55, 0
1, 840, Note_on_c, 1, 69, 127
1, 840, Note_on_c, 1, 74, 127
1, 840, Note_on_c, 1, 66, 127
1, 840, Note_on_c, 1, 62, 127
1, 869, Note_off_c, 1, 69, 0
1, 870, Note_on_c, 1, 67, 127
1, 899, Note_off_c, 1, 74, 0
1, 899, Note_off_c, 1, 66, 0
1, 899, Note_off_c, 1, 62, 0
1, 899, Note_off_c, 1, 67, 0
1, 900, Note_on_c, 1, 66, 127
1, 900, Note_on_c, 1, 69, 127
1, 900, Note_on_c, 1, 50, 127
1, 930, Note_on_c, 1, 64, 127
1, 959, Note_off_c, 1, 66, 0
1, 959, Note_off_c, 1, 69, 0
1, 959, Note_off_c, 1, 50, 0
1, 959, Note_off_c, 1, 64, 0
1, 960, Note_on_c, 1, 62, 127
1, 960, Note_on_c, 1, 57, 127
1, 960, Note_on_c, 1, 54, 127
1, 1019, Note_off_c, 1, 62, 0
1, 1019, Note_off_c, 1, 57, 0
1, 1019, Note_off_c, 1, 54, 0
1, 1020, Note_on_c, 1, 69, 127
1, 1020, Note_on_c, 1, 62, 127
1, 1020, Note_on_c, 1, 57, 127
1, 1020, Note_on_c, 1, 50, 127
1, 1079, Note_off_c, 1, 69, 0
1, 1079, Note_off_c, 1, 62, 0
1, 1079, Note_off_c, 1, 57, 0
1, 1079, Note_off_c, 1, 50, 0
1, 1080, Note_on_c, 1, 70, 127
1, 1080, Note_on_c, 1, 67, 127
1, 1080, Note_on_c, 1, 62, 127
1, 1080, Note_on_c, 1, 43, 127
1, 1110, Note_on_c, 1, 72, 127
1, 1139, Note_off_c, 1, 43, 0
1, 1139, Note_off_c, 1, 72, 0
1, 1140, Note_on_c, 1, 46, 127
1, 1170, Note_on_c, 1, 69, 127
1, 1199, Note_off_c, 1, 46, 0
1, 1199, Note_off_c, 1, 69, 0
1, 1200, Note_on_c, 1, 50, 127
1, 1230, Note_on_c, 1, 65, 127
1, 1259, Note_off_c, 1, 50, 0
1, 1259, Note_off_c, 1, 65, 0
1, 1260, Note_on_c, 1, 63, 127
1, 1260, Note_on_c, 1, 55, 127
1, 1289, Note_off_c, 1, 63, 0
1, 1319, Note_off_c, 1, 55, 0
1, 1320, Note_off_c, 1, 67, 0
1, 1320, Note_off_c, 1, 62, 0
1, 1320, Note_on_c, 1, 60, 127
1, 1320, Note_on_c, 1, 51, 127
1, 1349, Note_off_c, 1, 51, 0
1, 1350, Note_on_c, 1, 53, 127
1, 1379, Note_off_c, 1, 60, 0
1, 1379, Note_off_c, 1, 53, 0
1, 1440, Note_on_c, 1, 48, 127
1, 1469, Note_off_c, 1, 48, 0
1, 1500, Note_on_c, 1, 45, 127
1, 1529, Note_off_c, 1, 45, 0
1, 1560, Note_off_c, 1, 70, 0
1, 1560, Note_on_c, 1, 41, 127
1, 1619, Note_off_c, 1, 41, 0
1, 1800, Note_on_c, 1, 58, 127
1, 1859, Note_off_c, 1, 58, 0
1, 2040, Note_on_c, 1, 39, 127
1, 2099, Note_off_c, 1, 39, 0
1, 2280, Note_on_c, 1, 57, 127
1, 2309, Note_off_c, 1, 57, 0
1, 2520, Note_on_c, 1, 54, 127
1, 2520, Note_on_c, 1, 66, 127
1, 2549, Note_off_c, 1, 54, 0
1, 2760, Note_off_c, 1, 66, 0
1, 2790, Note_on_c, 1, 52, 127
1, 2819, Note_off_c, 1, 52, 0
1, 3900, Note_on_c, 1, 74, 127
1, 3900, Note_on_c, 1, 38, 127
1, 3959, Note_off_c, 1, 38, 0
1, 3980, Note_off_c, 1, 74, 0
1, 3980, Note_on_c, 1, 75, 127
1, 4000, Note_off_c, 1, 75, 0
1, 4260, Note_on_c, 1, 46, 127
1, 4260, Note_on_c, 1, 75, 127
1, 4274, Note_off_c, 1, 75, 0
1, 4275, Note_on_c, 1, 74, 127
1, 4289, Note_off_c, 1, 46, 0
1, 4289, Note_off_c, 1, 74, 0
1, 4290, Note_on_c, 1, 45, 127
1, 4290, Note_on_c, 1, 75, 127
1, 4304, Note_off_c, 1, 75, 0
1, 4305, Note_on_c, 1, 74, 127
1, 4319, Note_off_c, 1, 45, 0
1, 4319, Note_off_c, 1, 74, 0
1, 4320, Note_on_c, 1, 46, 127
1, 4320, Note_on_c, 1, 75, 127
1, 4334, Note_off_c, 1, 75, 0
1, 4335, Note_on_c, 1, 74, 127
1, 4349, Note_off_c, 1, 74, 0
1, 4379, Note_off_c, 1, 46, 0
1, 4380, Note_on_c, 1, 43, 127
1, 4380, Note_on_c, 1, 75, 127
1, 4394, Note_off_c, 1, 75, 0
1, 4395, Note_on_c, 1, 74, 127
1, 4409, Note_off_c, 1, 43, 0
1, 4409, Note_off_c, 1, 74, 0
1, 4410, Note_on_c, 1, 42, 127
1, 4410, Note_on_c, 1, 75, 127
1, 4424, Note_off_c, 1, 75, 0
1, 4425, Note_on_c, 1, 74, 127
1, 4439, Note_off_c, 1, 42, 0
1, 4439, Note_off_c, 1, 74, 0
1, 4440, Note_on_c, 1, 43, 127
1, 4440, Note_on_c, 1, 75, 127
1, 4454, Note_off_c, 1, 75, 0
1, 4455, Note_on_c, 1, 74, 127
1, 4469, Note_off_c, 1, 74, 0
1, 4470, Note_on_c, 1, 72, 127
1, 4499, Note_off_c, 1, 43, 0
1, 4499, Note_off_c, 1, 72, 0
1, 4500, Note_on_c, 1, 46, 127
1, 4500, Note_on_c, 1, 74, 127
1, 4529, Note_off_c, 1, 74, 0
1, 4530, Note_on_c, 1, 69, 127
1, 4559, Note_off_c, 1, 46, 0
1, 4559, Note_off_c, 1, 69, 0
1, 4560, Note_on_c, 1, 50, 127
1, 4560, Note_on_c, 1, 70, 127
1, 4589, Note_off_c, 1, 70, 0
1, 4590, Note_on_c, 1, 69, 127
1, 4619, Note_off_c, 1, 50, 0
1, 4619, Note_off_c, 1, 69, 0
1, 4620, Note_on_c, 1, 55, 127
1, 4620, Note_on_c, 1, 70, 127
1, 4649, Note_off_c, 1, 70, 0
1, 4650, Note_on_c, 1, 79, 127
1, 4679, Note_off_c, 1, 55, 0
1, 4679, Note_off_c, 1, 79, 0
1, 4680, Note_on_c, 1, 57, 127
1, 4680, Note_on_c, 1, 78, 127
1, 4709, Note_off_c, 1, 57, 0
1, 4709, Note_off_c, 1, 78, 0
1, 4710, Note_on_c, 1, 55, 127
1, 4710, Note_on_c, 1, 79, 127
1, 4739, Note_off_c, 1, 55, 0
1, 4739, Note_off_c, 1, 79, 0
1, 4740, Note_on_c, 1, 54, 127
1, 4740, Note_on_c, 1, 79, 127
1, 4749, Note_off_c, 1, 79, 0
1, 4750, Note_on_c, 1, 81, 127
1, 4759, Note_off_c, 1, 81, 0
1, 4769, Note_off_c, 1, 54, 0
1, 4770, Note_on_c, 1, 52, 127
1, 4770, Note_on_c, 1, 78, 127
1, 4784, Note_off_c, 1, 78, 0
1, 4785, Note_on_c, 1, 79, 127
1, 4799, Note_off_c, 1, 52, 0
1, 4799, Note_off_c, 1, 79, 0
1, 4800, Note_on_c, 1, 50, 127
1, 4800, Note_on_c, 1, 81, 127
1, 4829, Note_off_c, 1, 81, 0
1, 4830, Note_on_c, 1, 79, 127
1, 4859, Note_off_c, 1, 50, 0
1, 4859, Note_off_c, 1, 79, 0
1, 4860, Note_on_c, 1, 62, 127
1, 4860, Note_on_c, 1, 78, 127
1, 4860, Note_on_c, 1, 57, 127
1, 4889, Note_off_c, 1, 78, 0
1, 4890, Note_on_c, 1, 76, 127
1, 4919, Note_off_c, 1, 62, 0
1, 4919, Note_off_c, 1, 57, 0
1, 4919, Note_off_c, 1, 76, 0
1, 4920, Note_on_c, 1, 62, 127
1, 4920, Note_on_c, 1, 74, 127
1, 4920, Note_on_c, 1, 58, 127
1, 4979, Note_off_c, 1, 74, 0
1, 4979, Note_off_c, 1, 58, 0
1, 4980, Note_on_c, 1, 79, 127
1, 4980, Note_on_c, 1, 55, 127
1, 5009, Note_off_c, 1, 79, 0
1, 5010, Note_on_c, 1, 78, 127
1, 5039, Note_off_c, 1, 55, 0
1, 5039, Note_off_c, 1, 78, 0
1, 5040, Note_on_c, 1, 43, 127
1, 5099, Note_off_c, 1, 43, 0
1, 5130, Note_on_c, 1, 72, 127
1, 5130, Note_on_c, 1, 57, 127
1, 5159, Note_off_c, 1, 72, 0
1, 5159, Note_off_c, 1, 57, 0
1, 5220, Note_on_c, 1, 70, 127
1, 5249, Note_off_c, 1, 70, 0
1, 5250, Note_on_c, 1, 69, 127
1, 5279, Note_off_c, 1, 69, 0
1, 5340, Note_on_c, 1, 67, 127
1, 5340, Note_on_c, 1, 45, 127
1, 5369, Note_off_c, 1, 67, 0
1, 5370, Note_on_c, 1, 66, 127
1, 5399, Note_off_c, 1, 45, 0
1, 5399, Note_off_c, 1, 66, 0
1, 5400, Note_on_c, 1, 46, 127
1, 5430, Note_off_c, 1, 62, 0
1, 5430, Note_on_c, 1, 60, 127
1, 5459, Note_off_c, 1, 46, 0
1, 5459, Note_off_c, 1, 60, 0
1, 5460, Note_on_c, 1, 62, 127
1, 5460, Note_on_c, 1, 70, 127
1, 5460, Note_on_c, 1, 43, 127
1, 5489, Note_off_c, 1, 62, 0
1, 5490, Note_on_c, 1, 57, 127
1, 5519, Note_off_c, 1, 70, 0
1, 5519, Note_off_c, 1, 43, 0
1, 5519, Note_off_c, 1, 57, 0
1, 5520, Note_on_c, 1, 58, 127
1, 5520, Note_on_c, 1, 74, 127
1, 5520, Note_on_c, 1, 41, 127
1, 5549, Note_off_c, 1, 58, 0
1, 5550, Note_on_c, 1, 57, 127
1, 5579, Note_off_c, 1, 74, 0
1, 5579, Note_off_c, 1, 41, 0
1, 5579, Note_off_c, 1, 57, 0
1, 5580, Note_on_c, 1, 58, 127
1, 5580, Note_on_c, 1, 79, 127
1, 5580, Note_on_c, 1, 39, 127
1, 5609, Note_off_c, 1, 58, 0
1, 5610, Note_on_c, 1, 67, 127
1, 5639, Note_off_c, 1, 79, 0
1, 5639, Note_off_c, 1, 39, 0
1, 5639, Note_off_c, 1, 67, 0
1, 5640, Note_on_c, 1, 66, 127
1, 5640, Note_on_c, 1, 81, 127
1, 5640, Note_on_c, 1, 38, 127
1, 5669, Note_off_c, 1, 66, 0
1, 5669, Note_off_c, 1, 81, 0
1, 5670, Note_on_c, 1, 67, 127
1, 5670, Note_on_c, 1, 79, 127
1, 5699, Note_off_c, 1, 38, 0
1, 5699, Note_off_c, 1, 67, 0
1, 5699, Note_off_c, 1, 79, 0
1, 5700, Note_on_c, 1, 67, 127
1, 5700, Note_on_c, 1, 78, 127
1, 5700, Note_on_c, 1, 40, 127
1, 5709, Note_off_c, 1, 67, 0
1, 5710, Note_on_c, 1, 69, 127
1, 5719, Note_off_c, 1, 69, 0
1, 5729, Note_off_c, 1, 78, 0
1, 5730, Note_on_c, 1, 66, 127
1, 5730, Note_on_c, 1, 76, 127
1, 5744, Note_off_c, 1, 66, 0
1, 5759, Note_off_c, 1, 40, 0
1, 5759, Note_off_c, 1, 76, 0
1, 5760, Note_on_c, 1, 69, 127
1, 5760, Note_on_c, 1, 74, 127
1, 5760, Note_on_c, 1, 42, 127
1, 5789, Note_off_c, 1, 69, 0
1, 5790, Note_on_c, 1, 67, 127
1, 5819, Note_off_c, 1, 74, 0
1, 5819, Note_off_c, 1, 42, 0
1, 5819, Note_off_c, 1, 67, 0
1, 5820, Note_on_c, 1, 66, 127
1, 5820, Note_on_c, 1, 81, 127
1, 5820, Note_on_c, 1, 38, 127
1, 5849, Note_off_c, 1, 66, 0
1, 5850, Note_on_c, 1, 64, 127
1, 5879, Note_off_c, 1, 81, 0
1, 5879, Note_off_c, 1, 38, 0
1, 5879, Note_off_c, 1, 64, 0
1, 5880, Note_on_c, 1, 62, 127
1, 5880, Note_on_c, 1, 82, 127
1, 5880, Note_on_c, 1, 43, 127
1, 5909, Note_off_c, 1, 82, 0
1, 5910, Note_on_c, 1, 84, 127
1, 5939, Note_off_c, 1, 62, 0
1, 5939, Note_off_c, 1, 43, 0
1, 5939, Note_off_c, 1, 84, 0
1, 5940, Note_on_c, 1, 67, 127
1, 5940, Note_on_c, 1, 82, 127
1, 5940, Note_on_c, 1, 46, 127
1, 5969, Note_off_c, 1, 67, 0
1, 5969, Note_off_c, 1, 82, 0
1, 5970, Note_on_c, 1, 69, 127
1, 5970, Note_on_c, 1, 81, 127
1, 5999, Note_off_c, 1, 46, 0
1, 5999, Note_off_c, 1, 69, 0
1, 5999, Note_off_c, 1, 81, 0
1, 6000, Note_on_c, 1, 70, 127
1, 6000, Note_on_c, 1, 79, 127
1, 6000, Note_on_c, 1, 50, 127
1, 6029, Note_off_c, 1, 79, 0
1, 6030, Note_on_c, 1, 77, 127
1, 6059, Note_off_c, 1, 50, 0
1, 6059, Note_off_c, 1, 77, 0
1, 6060, Note_on_c, 1, 75, 127
1, 6060, Note_on_c, 1, 55, 127
1, 6089, Note_off_c, 1, 75, 0
1, 6090, Note_on_c, 1, 74, 127
1, 6119, Note_off_c, 1, 55, 0
1, 6119, Note_off_c, 1, 74, 0
1, 6120, Note_on_c, 1, 72, 127
1, 6120, Note_on_c, 1, 51, 127
1, 6149, Note_off_c, 1, 70, 0
1, 6149, Note_off_c, 1, 51, 0
1, 6150, Note_on_c, 1, 69, 127
1, 6150, Note_on_c, 1, 53, 127
1, 6179, Note_off_c, 1, 72, 0
1, 6179, Note_off_c, 1, 69, 0
1, 6179, Note_off_c, 1, 53, 0
1, 6180, Note_on_c, 1, 67, 127
1, 6180, Note_on_c, 1, 75, 127
1, 6180, Note_on_c, 1, 51, 127
1, 6209, Note_off_c, 1, 67, 0
1, 6209, Note_off_c, 1, 51, 0
1, 6210, Note_on_c, 1, 69, 127
1, 6210, Note_on_c, 1, 50, 127
1, 6239, Note_off_c, 1, 75, 0
1, 6239, Note_off_c, 1, 69, 0
1, 6239, Note_off_c, 1, 50, 0
1, 6240, Note_on_c, 1, 70, 127
1, 6240, Note_on_c, 1, 79, 127
1, 6240, Note_on_c, 1, 48, 127
1, 6269, Note_off_c, 1, 48, 0
1, 6270, Note_on_c, 1, 46, 127
1, 6299, Note_off_c, 1, 70, 0
1, 6299, Note_off_c, 1, 79, 0
1, 6299, Note_off_c, 1, 46, 0
1, 6300, Note_on_c, 1, 60, 127
1, 6300, Note_on_c, 1, 82, 127
1, 6300, Note_on_c, 1, 45, 127
1, 6329, Note_off_c, 1, 45, 0
1, 6330, Note_on_c, 1, 43, 127
1, 6359, Note_off_c, 1, 82, 0
1, 6359, Note_off_c, 1, 43, 0
1, 6360, Note_on_c, 1, 81, 127
1, 6360, Note_on_c, 1, 41, 127
1, 6389, Note_off_c, 1, 81, 0
1, 6419, Note_off_c, 1, 60, 0
1, 6419, Note_off_c, 1, 41, 0
1, 6420, Note_on_c, 1, 65, 127
1, 6420, Note_on_c, 1, 81, 127
1, 6420, Note_on_c, 1, 45, 127
1, 6449, Note_off_c, 1, 65, 0
1, 6449, Note_off_c, 1, 81, 0
1, 6450, Note_on_c, 1, 67, 127
1, 6450, Note_on_c, 1, 79, 127
1, 6479, Note_off_c, 1, 45, 0
1, 6479, Note_off_c, 1, 67, 0
1, 6479, Note_off_c, 1, 79, 0
1, 6480, Note_on_c, 1, 69, 127
1, 6480, Note_on_c, 1, 77, 127
1, 6480, Note_on_c, 1, 48, 127
1, 6509, Note_off_c, 1, 77, 0
1, 6510, Note_on_c, 1, 75, 127
1, 6539, Note_off_c, 1, 48, 0
1, 6539, Note_off_c, 1, 75, 0
1, 6540, Note_on_c, 1, 74, 127
1, 6540, Note_on_c, 1, 53, 127
1, 6569, Note_off_c, 1, 74, 0
1, 6570, Note_on_c, 1, 72, 127
1, 6599, Note_off_c, 1, 53, 0
1, 6599, Note_off_c, 1, 72, 0
1, 6600, Note_on_c, 1, 70, 127
1, 6600, Note_on_c, 1, 50, 127
1, 6629, Note_off_c, 1, 69, 0
1, 6629, Note_off_c, 1, 50, 0
1, 6630, Note_on_c, 1, 67, 127
1, 6630, Note_on_c, 1, 51, 127
1, 6659, Note_off_c, 1, 70, 0
1, 6659, Note_off_c, 1, 67, 0
1, 6659, Note_off_c, 1, 51, 0
1, 6660, Note_on_c, 1, 65, 127
1, 6660, Note_on_c, 1, 74, 127
1, 6660, Note_on_c, 1, 50, 127
1, 6689, Note_off_c, 1, 65, 0
1, 6689, Note_off_c, 1, 50, 0
1, 6690, Note_on_c, 1, 67, 127
1, 6690, Note_on_c, 1, 48, 127
1, 6719, Note_off_c, 1, 74, 0
1, 6719, Note_off_c, 1, 67, 0
1, 6719, Note_off_c, 1, 48, 0
1, 6720, Note_on_c, 1, 69, 127
1, 6720, Note_on_c, 1, 77, 127
1, 6720, Note_on_c, 1, 46, 127
1, 6749, Note_off_c, 1, 46, 0
1, 6750, Note_on_c, 1, 45, 127
1, 6779, Note_off_c, 1, 69, 0
1, 6779, Note_off_c, 1, 77, 0
1, 6779, Note_off_c, 1, 45, 0
1, 6780, Note_on_c, 1, 58, 127
1, 6780, Note_on_c, 1, 81, 127
1, 6780, Note_on_c, 1, 43, 127
1, 6809, Note_off_c, 1, 43, 0
1, 6810, Note_on_c, 1, 41, 127
1, 6839, Note_off_c, 1, 81, 0
1, 6839, Note_off_c, 1, 41, 0
1, 6840, Note_on_c, 1, 79, 127
1, 6840, Note_on_c, 1, 39, 127
1, 6869, Note_off_c, 1, 79, 0
1, 6899, Note_off_c, 1, 58, 0
1, 6899, Note_off_c, 1, 39, 0
1, 6900, Note_on_c, 1, 63, 127
1, 6900, Note_on_c, 1, 79, 127
1, 6900, Note_on_c, 1, 43, 127
1, 6929, Note_off_c, 1, 63, 0
1, 6929, Note_off_c, 1, 79, 0
1, 6930, Note_on_c, 1, 65, 127
1, 6930, Note_on_c, 1, 77, 127
1, 6959, Note_off_c, 1, 43, 0
1, 6959, Note_off_c, 1, 65, 0
1, 6959, Note_off_c, 1, 77, 0
1, 6960, Note_on_c, 1, 67, 127
1, 6960, Note_on_c, 1, 75, 127
1, 6960, Note_on_c, 1, 46, 127
1, 6989, Note_off_c, 1, 75, 0
1, 6990, Note_on_c, 1, 74, 127
1, 7019, Note_off_c, 1, 46, 0
1, 7019, Note_off_c, 1, 74, 0
1, 7020, Note_on_c, 1, 72, 127
1, 7020, Note_on_c, 1, 51, 127
1, 7049, Note_off_c, 1, 72, 0
1, 7050, Note_on_c, 1, 70, 127
1, 7079, Note_off_c, 1, 51, 0
1, 7079, Note_off_c, 1, 70, 0
1, 7080, Note_on_c, 1, 69, 127
1, 7080, Note_on_c, 1, 48, 127
1, 7109, Note_off_c, 1, 69, 0
1, 7139, Note_off_c, 1, 67, 0
1, 7139, Note_off_c, 1, 48, 0
1, 7140, Note_on_c, 1, 69, 127
1, 7140, Note_on_c, 1, 72, 127
1, 7140, Note_on_c, 1, 48, 127
1, 7169, Note_off_c, 1, 69, 0
1, 7169, Note_off_c, 1, 72, 0
1, 7170, Note_on_c, 1, 70, 127
1, 7170, Note_on_c, 1, 74, 127
1, 7199, Note_off_c, 1, 48, 0
1, 7199, Note_off_c, 1, 70, 0
1, 7199, Note_off_c, 1, 74, 0
1, 7200, Note_on_c, 1, 72, 127
1, 7200, Note_on_c, 1, 75, 127
1, 7200, Note_on_c, 1, 48, 127
1, 7229, Note_off_c, 1, 75, 0
1, 7259, Note_off_c, 1, 48, 0
1, 7260, Note_on_c, 1, 69, 127
1, 7289, Note_off_c, 1, 69, 0
1, 7320, Note_on_c, 1, 66, 127
1, 7349, Note_off_c, 1, 66, 0
1, 7350, Note_on_c, 1, 67, 127
1, 7379, Note_off_c, 1, 72, 0
1, 7379, Note_off_c, 1, 67, 0
1, 7380, Note_on_c, 1, 66, 127
1, 7380, Note_on_c, 1, 69, 127
1, 7380, Note_on_c, 1, 48, 127
1, 7409, Note_off_c, 1, 66, 0
1, 7409, Note_off_c, 1, 69, 0
1, 7410, Note_on_c, 1, 67, 127
1, 7410, Note_on_c, 1, 70, 127
1, 7439, Note_off_c, 1, 48, 0
1, 7439, Note_off_c, 1, 67, 0
1, 7439, Note_off_c, 1, 70, 0
1, 7440, Note_on_c, 1, 69, 127
1, 7440, Note_on_c, 1, 72, 127
1, 7440, Note_on_c, 1, 48, 127
1, 7469, Note_off_c, 1, 72, 0
1, 7499, Note_off_c, 1, 48, 0
1, 7500, Note_on_c, 1, 66, 127
1, 7529, Note_off_c, 1, 66, 0
1, 7560, Note_on_c, 1, 62, 127
1, 7589, Note_off_c, 1, 62, 0
1, 7590, Note_on_c, 1, 64, 127
1, 7619, Note_off_c, 1, 69, 0
1, 7619, Note_off_c, 1, 64, 0
1, 7620, Note_on_c, 1, 62, 127
1, 7620, Note_on_c, 1, 66, 127
1, 7620, Note_on_c, 1, 48, 127
1, 7649, Note_off_c, 1, 62, 0
1, 7649, Note_off_c, 1, 66, 0
1, 7650, Note_on_c, 1, 64, 127
1, 7650, Note_on_c, 1, 67, 127
1, 7679, Note_off_c, 1, 48, 0
1, 7679, Note_off_c, 1, 64, 0
1, 7679, Note_off_c, 1, 67, 0
1, 7680, Note_on_c, 1, 66, 127
1, 7680, Note_on_c, 1, 69, 127
1, 7680, Note_on_c, 1, 48, 127
1, 7709, Note_off_c, 1, 66, 0
1, 7709, Note_off_c, 1, 69, 0
1, 7710, Note_on_c, 1, 67, 127
1, 7710, Note_on_c, 1, 70, 127
1, 7739, Note_off_c, 1, 48, 0
1, 7739, Note_off_c, 1, 67, 0
1, 7739, Note_off_c, 1, 70, 0
1, 7740, Note_on_c, 1, 69, 127
1, 7740, Note_on_c, 1, 72, 127
1, 7740, Note_on_c, 1, 48, 127
1, 7769, Note_off_c, 1, 69, 0
1, 7769, Note_off_c, 1, 72, 0
1, 7770, Note_on_c, 1, 66, 127
1, 7799, Note_off_c, 1, 48, 0
1, 7799, Note_off_c, 1, 66, 0
1, 7800, Note_on_c, 1, 67, 127
1, 7800, Note_on_c, 1, 74, 127
1, 7800, Note_on_c, 1, 46, 127
1, 7829, Note_off_c, 1, 74, 0
1, 7830, Note_on_c, 1, 66, 127
1, 7859, Note_off_c, 1, 67, 0
1, 7859, Note_off_c, 1, 46, 0
1, 7859, Note_off_c, 1, 66, 0
1, 7860, Note_on_c, 1, 62, 127
1, 7860, Note_on_c, 1, 67, 127
1, 7860, Note_on_c, 1, 50, 127
1, 7889, Note_off_c, 1, 62, 0
1, 7890, Note_on_c, 1, 54, 127
1, 7919, Note_off_c, 1, 50, 0
1, 7919, Note_off_c, 1, 54, 0
1, 7920, Note_on_c, 1, 55, 127
1, 7920, Note_on_c, 1, 46, 127
1, 7949, Note_off_c, 1, 67, 0
1, 7950, Note_on_c, 1, 74, 127
1, 7979, Note_off_c, 1, 46, 0
1, 7979, Note_off_c, 1, 74, 0
1, 7980, Note_on_c, 1, 70, 127
1, 7980, Note_on_c, 1, 43, 127
1, 8009, Note_off_c, 1, 70, 0
1, 8039, Note_off_c, 1, 43, 0
1, 8040, Note_on_c, 1, 75, 127
1, 8040, Note_on_c, 1, 48, 127
1, 8069, Note_off_c, 1, 75, 0
1, 8070, Note_on_c, 1, 66, 127
1, 8099, Note_off_c, 1, 55, 0
1, 8099, Note_off_c, 1, 48, 0
1, 8099, Note_off_c, 1, 66, 0
1, 8100, Note_on_c, 1, 63, 127
1, 8100, Note_on_c, 1, 67, 127
1, 8100, Note_on_c, 1, 51, 127
1, 8129, Note_off_c, 1, 63, 0
1, 8130, Note_on_c, 1, 54, 127
1, 8159, Note_off_c, 1, 51, 0
1, 8159, Note_off_c, 1, 54, 0
1, 8160, Note_on_c, 1, 55, 127
1, 8160, Note_on_c, 1, 48, 127
1, 8189, Note_off_c, 1, 67, 0
1, 8190, Note_on_c, 1, 75, 127
1, 8219, Note_off_c, 1, 48, 0
1, 8219, Note_off_c, 1, 75, 0
1, 8220, Note_on_c, 1, 72, 127
1, 8220, Note_on_c, 1, 45, 127
1, 8249, Note_off_c, 1, 72, 0
1, 8250, Note_on_c, 1, 69, 127
1, 8279, Note_off_c, 1, 45, 0
1, 8279, Note_off_c, 1, 69, 0
1, 8280, Note_on_c, 1, 74, 127
1, 8280, Note_on_c, 1, 46, 127
1, 8309, Note_off_c, 1, 74, 0
1, 8310, Note_on_c, 1, 66, 127
1, 8339, Note_off_c, 1, 55, 0
1, 8339, Note_off_c, 1, 46, 0
1, 8339, Note_off_c, 1, 66, 0
1, 8340, Note_on_c, 1, 62, 127
1, 8340, Note_on_c, 1, 67, 127
1, 8340, Note_on_c, 1, 43, 127
1, 8369, Note_off_c, 1, 62, 0
1, 8369, Note_off_c, 1, 67, 0
1, 8370, Note_on_c, 1, 54, 127
1, 8370, Note_on_c, 1, 70, 127
1, 8399, Note_off_c, 1, 43, 0
1, 8399, Note_off_c, 1, 54, 0
1, 8399, Note_off_c, 1, 70, 0
1, 8400, Note_on_c, 1, 55, 127
1, 8400, Note_on_c, 1, 75, 127
1, 8400, Note_on_c, 1, 48, 127
1, 8429, Note_off_c, 1, 75, 0
1, 8430, Note_on_c, 1, 66, 127
1, 8459, Note_off_c, 1, 48, 0
1, 8459, Note_off_c, 1, 66, 0
1, 8460, Note_off_c, 1, 55, 0
1, 8460, Note_on_c, 1, 63, 127
1, 8460, Note_on_c, 1, 67, 127
1, 8460, Note_on_c, 1, 45, 127
1, 8489, Note_off_c, 1, 63, 0
1, 8489, Note_off_c, 1, 67, 0
1, 8490, Note_on_c, 1, 54, 127
1, 8490, Note_on_c, 1, 72, 127
1, 8519, Note_off_c, 1, 45, 0
1, 8519, Note_off_c, 1, 54, 0
1, 8519, Note_off_c, 1, 72, 0
1, 8520, Note_on_c, 1, 55, 127
1, 8520, Note_on_c, 1, 74, 127
1, 8520, Note_on_c, 1, 46, 127
1, 8579, Note_off_c, 1, 74, 0
1, 8579, Note_off_c, 1, 46, 0
1, 8580, Note_on_c, 1, 67, 127
1, 8580, Note_on_c, 1, 48, 127
1, 8639, Note_off_c, 1, 55, 0
1, 8639, Note_off_c, 1, 67, 0
1, 8639, Note_off_c, 1, 48, 0
1, 8640, Note_on_c, 1, 62, 127
1, 8640, Note_on_c, 1, 50, 127
1, 8699, Note_off_c, 1, 62, 0
1, 8699, Note_off_c, 1, 50, 0
1, 8700, Note_on_c, 1, 69, 127
1, 8700, Note_on_c, 1, 67, 127
1, 8700, Note_on_c, 1, 38, 127
1, 8714, Note_off_c, 1, 67, 0
1, 8715, Note_on_c, 1, 66, 127
1, 8729, Note_off_c, 1, 66, 0
1, 8730, Note_on_c, 1, 64, 127
1, 8744, Note_off_c, 1, 64, 0
1, 8759, Note_off_c, 1, 69, 0
1, 8759, Note_off_c, 1, 38, 0
1, 8760, Note_on_c, 1, 70, 127
1, 8760, Note_on_c, 1, 67, 127
1, 8760, Note_on_c, 1, 43, 127
1, 8789, Note_off_c, 1, 67, 0
1, 8819, Note_off_c, 1, 70, 0
1, 8819, Note_off_c, 1, 43, 0
1, 8820, Note_on_c, 1, 67, 127
1, 8820, Note_on_c, 1, 74, 127
1, 8820, Note_on_c, 1, 55, 127
1, 8849, Note_off_c, 1, 74, 0
1, 8849, Note_off_c, 1, 55, 0
1, 8850, Note_on_c, 1, 69, 127
1, 8850, Note_on_c, 1, 54, 127
1, 8879, Note_off_c, 1, 67, 0
1, 8879, Note_off_c, 1, 69, 0
1, 8879, Note_off_c, 1, 54, 0
1, 8880, Note_on_c, 1, 64, 127
1, 8880, Note_on_c, 1, 70, 127
1, 8880, Note_on_c, 1, 55, 127
1, 8909, Note_off_c, 1, 70, 0
1, 8910, Note_on_c, 1, 76, 127
1, 8939, Note_off_c, 1, 64, 0
1, 8939, Note_off_c, 1, 55, 0
1, 8939, Note_off_c, 1, 76, 0
1, 8940, Note_on_c, 1, 60, 127
1, 8940, Note_on_c, 1, 79, 127
1, 8940, Note_on_c, 1, 52, 127
1, 8969, Note_off_c, 1, 79, 0
1, 8969, Note_off_c, 1, 52, 0
1, 8970, Note_on_c, 1, 69, 127
1, 8970, Note_on_c, 1, 50, 127
1, 8999, Note_off_c, 1, 60, 0
1, 8999, Note_off_c, 1, 69, 0
1, 8999, Note_off_c, 1, 50, 0
1, 9000, Note_on_c, 1, 55, 127
1, 9000, Note_on_c, 1, 70, 127
1, 9000, Note_on_c, 1, 52, 127
1, 9029, Note_off_c, 1, 70, 0
1, 9030, Note_on_c, 1, 76, 127
1, 9059, Note_off_c, 1, 55, 0
1, 9059, Note_off_c, 1, 52, 0
1, 9059, Note_off_c, 1, 76, 0
1, 9060, Note_on_c, 1, 52, 127
1, 9060, Note_on_c, 1, 79, 127
1, 9060, Note_on_c, 1, 48, 127
1, 9089, Note_off_c, 1, 79, 0
1, 9089, Note_off_c, 1, 48, 0
1, 9090, Note_on_c, 1, 69, 127
1, 9090, Note_on_c, 1, 46, 127
1, 9119, Note_off_c, 1, 52, 0
1, 9119, Note_off_c, 1, 69, 0
1, 9119, Note_off_c, 1, 46, 0
1, 9120, Note_on_c, 1, 48, 127
1, 9120, Note_on_c, 1, 70, 127
1, 9149, Note_off_c, 1, 70, 0
1, 9150, Note_on_c, 1, 76, 127
1, 9179, Note_off_c, 1, 48, 0
1, 9179, Note_off_c, 1, 76, 0
1, 9180, Note_on_c, 1, 70, 127
1, 9180, Note_on_c, 1, 74, 127
1, 9180, Note_on_c, 1, 36, 127
1, 9209, Note_off_c, 1, 74, 0
1, 9210, Note_on_c, 1, 76, 127
1, 9239, Note_off_c, 1, 70, 0
1, 9239, Note_off_c, 1, 36, 0
1, 9239, Note_off_c, 1, 76, 0
1, 9240, Note_on_c, 1, 69, 127
1, 9240, Note_on_c, 1, 65, 127
1, 9240, Note_on_c, 1, 41, 127
1, 9269, Note_off_c, 1, 65, 0
1, 9299, Note_off_c, 1, 69, 0
1, 9299, Note_off_c, 1, 41, 0
1, 9300, Note_on_c, 1, 65, 127
1, 9300, Note_on_c, 1, 72, 127
1, 9300, Note_on_c, 1, 53, 127
1, 9329, Note_off_c, 1, 72, 0
1, 9329, Note_off_c, 1, 53, 0
1, 9330, Note_on_c, 1, 67, 127
1, 9330, Note_on_c, 1, 52, 127
1, 9359, Note_off_c, 1, 65, 0
1, 9359, Note_off_c, 1, 67, 0
1, 9359, Note_off_c, 1, 52, 0
1, 9360, Note_on_c, 1, 62, 127
1, 9360, Note_on_c, 1, 69, 127
1, 9360, Note_on_c, 1, 53, 127
1, 9389, Note_off_c, 1, 69, 0
1, 9390, Note_on_c, 1, 74, 127
1, 9419, Note_off_c, 1, 62, 0
1, 9419, Note_off_c, 1, 53, 0
1, 9419, Note_off_c, 1, 74, 0
1, 9420, Note_on_c, 1, 58, 127
1, 9420, Note_on_c, 1, 77, 127
1, 9420, Note_on_c, 1, 50, 127
1, 9449, Note_off_c, 1, 77, 0
1, 9449, Note_off_c, 1, 50, 0
1, 9450, Note_on_c, 1, 67, 127
1, 9450, Note_on_c, 1, 49, 127
1, 9479, Note_off_c, 1, 58, 0
1, 9479, Note_off_c, 1, 67, 0
1, 9479, Note_off_c, 1, 49, 0
1, 9480, Note_on_c, 1, 53, 127
1, 9480, Note_on_c, 1, 69, 127
1, 9480, Note_on_c, 1, 50, 127
1, 9509, Note_off_c, 1, 69, 0
1, 9510, Note_on_c, 1, 74, 127
1, 9539, Note_off_c, 1, 53, 0
1, 9539, Note_off_c, 1, 50, 0
1, 9539, Note_off_c, 1, 74, 0
1, 9540, Note_on_c, 1, 50, 127
1, 9540, Note_on_c, 1, 77, 127
1, 9540, Note_on_c, 1, 46, 127
1, 9569, Note_off_c, 1, 77, 0
1, 9569, Note_off_c, 1, 46, 0
1, 9570, Note_on_c, 1, 67, 127
1, 9570, Note_on_c, 1, 45, 127
1, 9599, Note_off_c, 1, 50, 0
1, 9599, Note_off_c, 1, 67, 0
1, 9599, Note_off_c, 1, 45, 0
1, 9600, Note_on_c, 1, 46, 127
1, 9600, Note_on_c, 1, 69, 127
1, 9629, Note_off_c, 1, 69, 0
1, 9630, Note_on_c, 1, 74, 127
1, 9659, Note_off_c, 1, 46, 0
1, 9659, Note_off_c, 1, 74, 0
1, 9660, Note_on_c, 1, 69, 127
1, 9660, Note_on_c, 1, 73, 127
1, 9660, Note_on_c, 1, 34, 127
1, 9689, Note_off_c, 1, 73, 0
1, 9690, Note_on_c, 1, 74, 127
1, 9719, Note_off_c, 1, 69, 0
1, 9719, Note_off_c, 1, 34, 0
1, 9719, Note_off_c, 1, 74, 0
1, 9720, Note_on_c, 1, 67, 127
1, 9720, Note_on_c, 1, 64, 127
1, 9720, Note_on_c, 1, 40, 127
1, 9749, Note_off_c, 1, 64, 0
1, 9779, Note_off_c, 1, 67, 0
1, 9779, Note_off_c, 1, 40, 0
1, 9780, Note_on_c, 1, 64, 127
1, 9780, Note_on_c, 1, 70, 127
1, 9780, Note_on_c, 1, 52, 127
1, 9809, Note_off_c, 1, 70, 0
1, 9809, Note_off_c, 1, 52, 0
1, 9810, Note_on_c, 1, 67, 127
1, 9810, Note_on_c, 1, 50, 127
1, 9839, Note_off_c, 1, 64, 0
1, 9839, Note_off_c, 1, 67, 0
1, 9839, Note_off_c, 1, 50, 0
1, 9840, Note_on_c, 1, 61, 127
1, 9840, Note_on_c, 1, 69, 127
1, 9840, Note_on_c, 1, 52, 127
1, 9869, Note_off_c, 1, 69, 0
1, 9870, Note_on_c, 1, 73, 127
1, 9899, Note_off_c, 1, 61, 0
1, 9899, Note_off_c, 1, 52, 0
1, 9899, Note_off_c, 1, 73, 0
1, 9900, Note_on_c, 1, 57, 127
1, 9900, Note_on_c, 1, 76, 127
1, 9900, Note_on_c, 1, 49, 127
1, 9929, Note_off_c, 1, 76, 0
1, 9929, Note_off_c, 1, 49, 0
1, 9930, Note_on_c, 1, 65, 127
1, 9930, Note_on_c, 1, 47, 127
1, 9959, Note_off_c, 1, 57, 0
1, 9959, Note_off_c, 1, 65, 0
1, 9959, Note_off_c, 1, 47, 0
1, 9960, Note_on_c, 1, 52, 127
1, 9960, Note_on_c, 1, 67, 127
1, 9960, Note_on_c, 1, 49, 127
1, 9989, Note_off_c, 1, 67, 0
1, 9990, Note_on_c, 1, 73, 127
1, 10019, Note_off_c, 1, 52, 0
1, 10019, Note_off_c, 1, 49, 0
1, 10019, Note_off_c, 1, 73, 0
1, 10020, Note_on_c, 1, 49, 127
1, 10020, Note_on_c, 1, 76, 127
1, 10020, Note_on_c, 1, 45, 127
1, 10049, Note_off_c, 1, 76, 0
1, 10049, Note_off_c, 1, 45, 0
1, 10050, Note_on_c, 1, 65, 127
1, 10050, Note_on_c, 1, 43, 127
1, 10079, Note_off_c, 1, 49, 0
1, 10079, Note_off_c, 1, 65, 0
1, 10079, Note_off_c, 1, 43, 0
1, 10080, Note_on_c, 1, 45, 127
1, 10080, Note_on_c, 1, 67, 127
1, 10109, Note_off_c, 1, 67, 0
1, 10110, Note_on_c, 1, 73, 127
1, 10139, Note_off_c, 1, 45, 0
1, 10139, Note_off_c, 1, 73, 0
1, 10140, Note_on_c, 1, 67, 127
1, 10140, Note_on_c, 1, 71, 127
1, 10140, Note_on_c, 1, 33, 127
1, 10169, Note_off_c, 1, 71, 0
1, 10170, Note_on_c, 1, 73, 127
1, 10199, Note_off_c, 1, 67, 0
1, 10199, Note_off_c, 1, 33, 0
1, 10199, Note_off_c, 1, 73, 0
1, 10200, Note_on_c, 1, 65, 127
1, 10200, Note_on_c, 1, 62, 127
1, 10200, Note_on_c, 1, 38, 127
1, 10229, Note_off_c, 1, 65, 0
1, 10230, Note_on_c, 1, 61, 127
1, 10259, Note_off_c, 1, 62, 0
1, 10259, Note_off_c, 1, 38, 0
1, 10259, Note_off_c, 1, 61, 0
1, 10260, Note_on_c, 1, 62, 127
1, 10260, Note_on_c, 1, 81, 127
1, 10260, Note_on_c, 1, 41, 127
1, 10289, Note_off_c, 1, 81, 0
1, 10289, Note_off_c, 1, 41, 0
1, 10290, Note_on_c, 1, 73, 127
1, 10290, Note_on_c, 1, 40, 127
1, 10319, Note_off_c, 1, 73, 0
1, 10319, Note_off_c, 1, 40, 0
1, 10320, Note_on_c, 1, 74, 127
1, 10349, Note_off_c, 1, 62, 0
1, 10350, Note_on_c, 1, 69, 127
1, 10379, Note_off_c, 1, 69, 0
1, 10380, Note_on_c, 1, 65, 127
1, 10380, Note_on_c, 1, 38, 127
1, 10409, Note_off_c, 1, 65, 0
1, 10439, Note_off_c, 1, 38, 0
1, 10440, Note_on_c, 1, 70, 127
1, 10440, Note_on_c, 1, 43, 127
1, 10469, Note_off_c, 1, 70, 0
1, 10470, Note_on_c, 1, 61, 127
1, 10499, Note_off_c, 1, 74, 0
1, 10499, Note_off_c, 1, 43, 0
1, 10499, Note_off_c, 1, 61, 0
1, 10500, Note_on_c, 1, 62, 127
1, 10500, Note_on_c, 1, 82, 127
1, 10500, Note_on_c, 1, 31, 127
1, 10529, Note_off_c, 1, 82, 0
1, 10530, Note_on_c, 1, 73, 127
1, 10559, Note_off_c, 1, 31, 0
1, 10559, Note_off_c, 1, 73, 0
1, 10560, Note_on_c, 1, 74, 127
1, 10560, Note_on_c, 1, 43, 127
1, 10589, Note_off_c, 1, 62, 0
1, 10590, Note_on_c, 1, 70, 127
1, 10619, Note_off_c, 1, 43, 0
1, 10619, Note_off_c, 1, 70, 0
1, 10620, Note_on_c, 1, 67, 127
1, 10620, Note_on_c, 1, 40, 127
1, 10649, Note_off_c, 1, 67, 0
1, 10650, Note_on_c, 1, 64, 127
1, 10679, Note_off_c, 1, 40, 0
1, 10679, Note_off_c, 1, 64, 0
1, 10680, Note_on_c, 1, 69, 127
1, 10680, Note_on_c, 1, 41, 127
1, 10709, Note_off_c, 1, 69, 0
1, 10710, Note_on_c, 1, 61, 127
1, 10739, Note_off_c, 1, 74, 0
1, 10739, Note_off_c, 1, 41, 0
1, 10739, Note_off_c, 1, 61, 0
1, 10740, Note_on_c, 1, 62, 127
1, 10740, Note_on_c, 1, 81, 127
1, 10740, Note_on_c, 1, 38, 127
1, 10769, Note_off_c, 1, 62, 0
1, 10769, Note_off_c, 1, 81, 0
1, 10770, Note_on_c, 1, 65, 127
1, 10770, Note_on_c, 1, 73, 127
1, 10799, Note_off_c, 1, 38, 0
1, 10799, Note_off_c, 1, 65, 0
1, 10799, Note_off_c, 1, 73, 0
1, 10800, Note_on_c, 1, 70, 127
1, 10800, Note_on_c, 1, 74, 127
1, 10800, Note_on_c, 1, 43, 127
1, 10829, Note_off_c, 1, 70, 0
1, 10830, Note_on_c, 1, 61, 127
1, 10859, Note_off_c, 1, 74, 0
1, 10859, Note_off_c, 1, 43, 0
1, 10859, Note_off_c, 1, 61, 0
1, 10860, Note_on_c, 1, 62, 127
1, 10860, Note_on_c, 1, 82, 127
1, 10860, Note_on_c, 1, 40, 127
1, 10889, Note_off_c, 1, 62, 0
1, 10889, Note_off_c, 1, 82, 0
1, 10890, Note_on_c, 1, 67, 127
1, 10890, Note_on_c, 1, 73, 127
1, 10919, Note_off_c, 1, 40, 0
1, 10919, Note_off_c, 1, 67, 0
1, 10919, Note_off_c, 1, 73, 0
1, 10920, Note_on_c, 1, 69, 127
1, 10920, Note_on_c, 1, 74, 127
1, 10920, Note_on_c, 1, 41, 127
1, 10979, Note_off_c, 1, 69, 0
1, 10979, Note_off_c, 1, 41, 0
1, 10980, Note_on_c, 1, 62, 127
1, 10980, Note_on_c, 1, 46, 127
1, 11009, Note_off_c, 1, 74, 0
1, 11009, Note_off_c, 1, 46, 0
1, 11010, Note_on_c, 1, 76, 127
1, 11010, Note_on_c, 1, 43, 127
1, 11039, Note_off_c, 1, 62, 0
1, 11039, Note_off_c, 1, 76, 0
1, 11039, Note_off_c, 1, 43, 0
1, 11040, Note_on_c, 1, 57, 127
1, 11040, Note_on_c, 1, 77, 127
1, 11040, Note_on_c, 1, 45, 127
1, 11054, Note_off_c, 1, 77, 0
1, 11055, Note_on_c, 1, 76, 127
1, 11069, Note_off_c, 1, 45, 0
1, 11069, Note_off_c, 1, 76, 0
1, 11070, Note_on_c, 1, 49, 127
1, 11099, Note_off_c, 1, 57, 0
1, 11099, Note_off_c, 1, 49, 0
1, 11100, Note_on_c, 1, 61, 127
1, 11100, Note_on_c, 1, 77, 127
1, 11100, Note_on_c, 1, 52, 127
1, 11114, Note_off_c, 1, 77, 0
1, 11115, Note_on_c, 1, 76, 127
1, 11129, Note_off_c, 1, 52, 0
1, 11129, Note_off_c, 1, 76, 0
1, 11130, Note_on_c, 1, 74, 127
1, 11130, Note_on_c, 1, 57, 127
1, 11159, Note_off_c, 1, 61, 0
1, 11159, Note_off_c, 1, 74, 0
1, 11159, Note_off_c, 1, 57, 0
1, 11160, Note_on_c, 1, 62, 127
1, 11160, Note_on_c, 1, 74, 127
1, 11160, Note_on_c, 1, 53, 127
1, 11189, Note_off_c, 1, 62, 0
1, 11189, Note_off_c, 1, 74, 0
1, 11190, Note_on_c, 1, 57, 127
1, 11190, Note_on_c, 1, 73, 127
1, 11219, Note_off_c, 1, 53, 0
1, 11219, Note_off_c, 1, 57, 0
1, 11219, Note_off_c, 1, 73, 0
1, 11220, Note_on_c, 1, 58, 127
1, 11220, Note_on_c, 1, 74, 127
1, 11220, Note_on_c, 1, 50, 127
1, 11249, Note_off_c, 1, 58, 0
1, 11249, Note_off_c, 1, 50, 0
1, 11250, Note_on_c, 1, 55, 127
1, 11250, Note_on_c, 1, 52, 127
1, 11279, Note_off_c, 1, 55, 0
1, 11279, Note_off_c, 1, 52, 0
1, 11280, Note_on_c, 1, 57, 127
1, 11280, Note_on_c, 1, 53, 127
1, 11309, Note_off_c, 1, 57, 0
1, 11310, Note_on_c, 1, 62, 127
1, 11339, Note_off_c, 1, 53, 0
1, 11339, Note_off_c, 1, 62, 0
1, 11369, Note_off_c, 1, 74, 0
1, 11370, Note_on_c, 1, 73, 127
1, 11399, Note_off_c, 1, 73, 0
1, 11400, Note_on_c, 1, 57, 127
1, 11400, Note_on_c, 1, 74, 127
1, 11400, Note_on_c, 1, 53, 127
1, 11429, Note_off_c, 1, 57, 0
1, 11429, Note_off_c, 1, 74, 0
1, 11430, Note_on_c, 1, 52, 127
1, 11430, Note_on_c, 1, 73, 127
1, 11459, Note_off_c, 1, 53, 0
1, 11459, Note_off_c, 1, 52, 0
1, 11459, Note_off_c, 1, 73, 0
1, 11460, Note_on_c, 1, 53, 127
1, 11460, Note_on_c, 1, 73, 127
1, 11460, Note_on_c, 1, 57, 127
1, 11489, Note_off_c, 1, 53, 0
1, 11489, Note_off_c, 1, 73, 0
1, 11489, Note_off_c, 1, 57, 0
1, 11490, Note_on_c, 1, 49, 127
1, 11490, Note_on_c, 1, 74, 127
1, 11490, Note_on_c, 1, 55, 127
1, 11519, Note_off_c, 1, 49, 0
1, 11519, Note_off_c, 1, 55, 0
1, 11520, Note_on_c, 1, 50, 127
1, 11520, Note_on_c, 1, 53, 127
1, 11549, Note_off_c, 1, 50, 0
1, 11550, Note_on_c, 1, 57, 127
1, 11579, Note_off_c, 1, 53, 0
1, 11579, Note_off_c, 1, 57, 0
1, 11640, Note_on_c, 1, 58, 127
1, 11669, Note_off_c, 1, 74, 0
1, 11669, Note_off_c, 1, 58, 0
1, 11670, Note_on_c, 1, 73, 127
1, 11699, Note_off_c, 1, 73, 0
1, 11700, Note_on_c, 1, 55, 127
1, 11700, Note_on_c, 1, 74, 127
1, 11700, Note_on_c, 1, 52, 127
1, 11729, Note_off_c, 1, 55, 0
1, 11729, Note_off_c, 1, 74, 0
1, 11730, Note_on_c, 1, 53, 127
1, 11730, Note_on_c, 1, 76, 127
1, 11759, Note_off_c, 1, 52, 0
1, 11759, Note_off_c, 1, 53, 0
1, 11759, Note_off_c, 1, 76, 0
1, 11760, Note_on_c, 1, 52, 127
1, 11760, Note_on_c, 1, 73, 127
1, 11760, Note_on_c, 1, 57, 127
1, 11789, Note_off_c, 1, 73, 0
1, 11790, Note_on_c, 1, 74, 127
1, 11804, Note_off_c, 1, 74, 0
1, 11819, Note_off_c, 1, 57, 0
1, 11820, Note_on_c, 1, 71, 127
1, 11820, Note_on_c, 1, 45, 127
1, 11834, Note_off_c, 1, 71, 0
1, 11849, Note_off_c, 1, 52, 0
1, 11850, Note_on_c, 1, 50, 127
1, 11879, Note_off_c, 1, 45, 0
1, 11879, Note_off_c, 1, 50, 0
1, 11880, Note_on_c, 1, 50, 127
1, 11880, Note_on_c, 1, 74, 127
1, 11880, Note_on_c, 1, 38, 127
1, 11939, Note_off_c, 1, 38, 0
1, 11970, Note_on_c, 1, 51, 127
1, 11999, Note_off_c, 1, 50, 0
1, 11999, Note_off_c, 1, 74, 0
1, 11999, Note_off_c, 1, 51, 0
1, 12000, Note_on_c, 1, 50, 127
1, 12059, Note_off_c, 1, 50, 0
1, 12060, Note_on_c, 1, 62, 127
1, 12060, Note_on_c, 1, 48, 127
1, 12089, Note_off_c, 1, 62, 0
1, 12090, Note_on_c, 1, 63, 127
1, 12119, Note_off_c, 1, 48, 0
1, 12119, Note_off_c, 1, 63, 0
1, 12120, Note_on_c, 1, 65, 127
1, 12120, Note_on_c, 1, 46, 127
1, 12149, Note_off_c, 1, 65, 0
1, 12150, Note_on_c, 1, 57, 127
1, 12179, Note_off_c, 1, 46, 0
1, 12179, Note_off_c, 1, 57, 0
1, 12180, Note_on_c, 1, 58, 127
1, 12180, Note_on_c, 1, 70, 127
1, 12180, Note_on_c, 1, 50, 127
1, 12209, Note_off_c, 1, 70, 0
1, 12209, Note_off_c, 1, 50, 0
1, 12210, Note_on_c, 1, 69, 127
1, 12210, Note_on_c, 1, 48, 127
1, 12239, Note_off_c, 1, 69, 0
1, 12239, Note_off_c, 1, 48, 0
1, 12240, Note_on_c, 1, 67, 127
1, 12269, Note_off_c, 1, 58, 0
1, 12270, Note_on_c, 1, 65, 127
1, 12299, Note_off_c, 1, 67, 0
1, 12299, Note_off_c, 1, 65, 0
1, 12300, Note_on_c, 1, 62, 127
1, 12300, Note_on_c, 1, 46, 127
1, 12330, Note_on_c, 1, 58, 127
1, 12359, Note_off_c, 1, 62, 0
1, 12359, Note_off_c, 1, 46, 0
1, 12359, Note_off_c, 1, 58, 0
1, 12360, Note_on_c, 1, 67, 127
1, 12360, Note_on_c, 1, 63, 127
1, 12360, Note_on_c, 1, 51, 127
1, 12389, Note_off_c, 1, 67, 0
1, 12390, Note_on_c, 1, 57, 127
1, 12419, Note_off_c, 1, 63, 0
1, 12419, Note_off_c, 1, 51, 0
1, 12419, Note_off_c, 1, 57, 0
1, 12420, Note_on_c, 1, 58, 127
1, 12420, Note_on_c, 1, 63, 127
1, 12420, Note_on_c, 1, 55, 127
1, 12449, Note_off_c, 1, 63, 0
1, 12449, Note_off_c, 1, 55, 0
1, 12450, Note_on_c, 1, 62, 127
1, 12450, Note_on_c, 1, 53, 127
1, 12479, Note_off_c, 1, 62, 0
1, 12479, Note_off_c, 1, 53, 0
1, 12480, Note_on_c, 1, 51, 127
1, 12509, Note_off_c, 1, 58, 0
1, 12510, Note_on_c, 1, 67, 127
1, 12539, Note_off_c, 1, 51, 0
1, 12539, Note_off_c, 1, 67, 0
1, 12540, Note_on_c, 1, 63, 127
1, 12540, Note_on_c, 1, 70, 127
1, 12540, Note_on_c, 1, 48, 127
1, 12569, Note_off_c, 1, 63, 0
1, 12570, Note_on_c, 1, 60, 127
1, 12599, Note_off_c, 1, 70, 0
1, 12599, Note_off_c, 1, 48, 0
1, 12599, Note_off_c, 1, 60, 0
1, 12600, Note_on_c, 1, 65, 127
1, 12600, Note_on_c, 1, 70, 127
1, 12600, Note_on_c, 1, 62, 127
1, 12600, Note_on_c, 1, 50, 127
1, 12630, Note_on_c, 1, 57, 127
1, 12659, Note_off_c, 1, 50, 0
1, 12659, Note_off_c, 1, 57, 0
1, 12660, Note_on_c, 1, 58, 127
1, 12660, Note_on_c, 1, 46, 127
1, 12689, Note_off_c, 1, 58, 0
1, 12719, Note_off_c, 1, 46, 0
1, 12720, Note_off_c, 1, 65, 0
1, 12720, Note_off_c, 1, 70, 0
1, 12720, Note_off_c, 1, 62, 0
1, 12720, Note_on_c, 1, 67, 127
1, 12720, Note_on_c, 1, 72, 127
1, 12720, Note_on_c, 1, 63, 127
1, 12720, Note_on_c, 1, 51, 127
1, 12779, Note_off_c, 1, 51, 0
1, 12780, Note_on_c, 1, 48, 127
1, 12839, Note_off_c, 1, 48, 0
1, 12840, Note_off_c, 1, 67, 0
1, 12840, Note_off_c, 1, 72, 0
1, 12840, Note_off_c, 1, 63, 0
1, 12840, Note_on_c, 1, 74, 127
1, 12960, Note_off_c, 1, 74, 0
1, 12960, Note_on_c, 1, 60, 127
1, 12960, Note_on_c, 1, 52, 127
1, 12989, Note_off_c, 1, 60, 0
1, 13019, Note_off_c, 1, 52, 0
1, 13020, Note_on_c, 1, 60, 127
1, 13020, Note_on_c, 1, 81, 127
1, 13020, Note_on_c, 1, 48, 127
1, 13049, Note_off_c, 1, 60, 0
1, 13049, Note_off_c, 1, 81, 0
1, 13050, Note_on_c, 1, 58, 127
1, 13050, Note_on_c, 1, 82, 127
1, 13079, Note_off_c, 1, 48, 0
1, 13079, Note_off_c, 1, 58, 0
1, 13079, Note_off_c, 1, 82, 0
1, 13080, Note_on_c, 1, 57, 127
1, 13080, Note_on_c, 1, 84, 127
1, 13080, Note_on_c, 1, 41, 127
1, 13109, Note_off_c, 1, 84, 0
1, 13110, Note_on_c, 1, 76, 127
1, 13139, Note_off_c, 1, 57, 0
1, 13139, Note_off_c, 1, 41, 0
1, 13139, Note_off_c, 1, 76, 0
1, 13140, Note_on_c, 1, 60, 127
1, 13140, Note_on_c, 1, 77, 127
1, 13140, Note_on_c, 1, 45, 127
1, 13169, Note_off_c, 1, 60, 0
1, 13169, Note_off_c, 1, 45, 0
1, 13170, Note_on_c, 1, 52, 127
1, 13170, Note_on_c, 1, 43, 127
1, 13199, Note_off_c, 1, 52, 0
1, 13199, Note_off_c, 1, 43, 0
1, 13200, Note_on_c, 1, 53, 127
1, 13229, Note_off_c, 1, 77, 0
1, 13230, Note_on_c, 1, 84, 127
1, 13259, Note_off_c, 1, 84, 0
1, 13260, Note_on_c, 1, 81, 127
1, 13260, Note_on_c, 1, 41, 127
1, 13289, Note_off_c, 1, 81, 0
1, 13319, Note_off_c, 1, 41, 0
1, 13320, Note_on_c, 1, 86, 127
1, 13320, Note_on_c, 1, 46, 127
1, 13349, Note_off_c, 1, 86, 0
1, 13350, Note_on_c, 1, 76, 127
1, 13379, Note_off_c, 1, 53, 0
1, 13379, Note_off_c, 1, 46, 0
1, 13379, Note_off_c, 1, 76, 0
1, 13380, Note_on_c, 1, 62, 127
1, 13380, Note_on_c, 1, 77, 127
1, 13380, Note_on_c, 1, 34, 127
1, 13409, Note_off_c, 1, 62, 0
1, 13410, Note_on_c, 1, 52, 127
1, 13439, Note_off_c, 1, 34, 0
1, 13439, Note_off_c, 1, 52, 0
1, 13440, Note_on_c, 1, 53, 127
1, 13440, Note_on_c, 1, 46, 127
1, 13469, Note_off_c, 1, 77, 0
1, 13470, Note_on_c, 1, 86, 127
1, 13499, Note_off_c, 1, 46, 0
1, 13499, Note_off_c, 1, 86, 0
1, 13500, Note_on_c, 1, 82, 127
1, 13500, Note_on_c, 1, 43, 127
1, 13529, Note_off_c, 1, 82, 0
1, 13530, Note_on_c, 1, 79, 127
1, 13559, Note_off_c, 1, 43, 0
1, 13559, Note_off_c, 1, 79, 0
1, 13560, Note_on_c, 1, 84, 127
1, 13560, Note_on_c, 1, 45, 127
1, 13589, Note_off_c, 1, 84, 0
1, 13590, Note_on_c, 1, 76, 127
1, 13619, Note_off_c, 1, 53, 0
1, 13619, Note_off_c, 1, 45, 0
1, 13619, Note_off_c, 1, 76, 0
1, 13620, Note_on_c, 1, 60, 127
1, 13620, Note_on_c, 1, 77, 127
1, 13620, Note_on_c, 1, 41, 127
1, 13649, Note_off_c, 1, 60, 0
1, 13649, Note_off_c, 1, 77, 0
1, 13650, Note_on_c, 1, 52, 127
1, 13650, Note_on_c, 1, 81, 127
1, 13679, Note_off_c, 1, 41, 0
1, 13679, Note_off_c, 1, 52, 0
1, 13679, Note_off_c, 1, 81, 0
1, 13680, Note_on_c, 1, 53, 127
1, 13680, Note_on_c, 1, 86, 127
1, 13680, Note_on_c, 1, 46, 127
1, 13709, Note_off_c, 1, 86, 0
1, 13710, Note_on_c, 1, 76, 127
1, 13739, Note_off_c, 1, 53, 0
1, 13739, Note_off_c, 1, 46, 0
1, 13739, Note_off_c, 1, 76, 0
1, 13740, Note_on_c, 1, 62, 127
1, 13740, Note_on_c, 1, 77, 127
1, 13740, Note_on_c, 1, 43, 127
1, 13769, Note_off_c, 1, 62, 0
1, 13769, Note_off_c, 1, 77, 0
1, 13770, Note_on_c, 1, 52, 127
1, 13770, Note_on_c, 1, 86, 127
1, 13799, Note_off_c, 1, 43, 0
1, 13799, Note_off_c, 1, 52, 0
1, 13799, Note_off_c, 1, 86, 0
1, 13800, Note_on_c, 1, 53, 127
1, 13800, Note_on_c, 1, 84, 127
1, 13800, Note_on_c, 1, 45, 127
1, 13859, Note_off_c, 1, 53, 0
1, 13859, Note_off_c, 1, 84, 0
1, 13859, Note_off_c, 1, 45, 0
1, 13860, Note_on_c, 1, 65, 127
1, 13860, Note_on_c, 1, 82, 127
1, 13860, Note_on_c, 1, 46, 127
1, 13889, Note_off_c, 1, 82, 0
1, 13890, Note_on_c, 1, 81, 127
1, 13919, Note_off_c, 1, 46, 0
1, 13919, Note_off_c, 1, 81, 0
1, 13920, Note_on_c, 1, 79, 127
1, 13920, Note_on_c, 1, 48, 127
1, 13949, Note_off_c, 1, 79, 0
1, 13979, Note_off_c, 1, 65, 0
1, 13979, Note_off_c, 1, 48, 0
1, 13980, Note_on_c, 1, 64, 127
1, 13980, Note_on_c, 1, 82, 127
1, 13980, Note_on_c, 1, 36, 127
1, 14009, Note_off_c, 1, 82, 0
1, 14010, Note_on_c, 1, 79, 127
1, 14039, Note_off_c, 1, 64, 0
1, 14039, Note_off_c, 1, 36, 0
1, 14039, Note_off_c, 1, 79, 0
1, 14040, Note_on_c, 1, 65, 127
1, 14040, Note_on_c, 1, 81, 127
1, 14040, Note_on_c, 1, 41, 127
1, 14069, Note_off_c, 1, 65, 0
1, 14085, Note_on_c, 1, 67, 127
1, 14099, Note_off_c, 1, 81, 0
1, 14099, Note_off_c, 1, 67, 0
1, 14100, Note_on_c, 1, 69, 127
1, 14100, Note_on_c, 1, 72, 127
1, 14129, Note_off_c, 1, 69, 0
1, 14159, Note_off_c, 1, 41, 0
1, 14159, Note_off_c, 1, 72, 0
1, 14160, Note_on_c, 1, 69, 127
1, 14160, Note_on_c, 1, 77, 127
1, 14189, Note_off_c, 1, 69, 0
1, 14190, Note_on_c, 1, 65, 127
1, 14219, Note_off_c, 1, 77, 0
1, 14219, Note_off_c, 1, 65, 0
1, 14220, Note_on_c, 1, 62, 127
1, 14220, Note_on_c, 1, 81, 127
1, 14220, Note_on_c, 1, 53, 127
1, 14249, Note_off_c, 1, 62, 0
1, 14250, Note_on_c, 1, 65, 127
1, 14279, Note_off_c, 1, 53, 0
1, 14279, Note_off_c, 1, 65, 0
1, 14280, Note_on_c, 1, 58, 127
1, 14280, Note_on_c, 1, 50, 127
1, 14309, Note_off_c, 1, 81, 0
1, 14309, Note_off_c, 1, 58, 0
1, 14310, Note_on_c, 1, 64, 127
1, 14310, Note_on_c, 1, 74, 127
1, 14324, Note_off_c, 1, 64, 0
1, 14339, Note_off_c, 1, 50, 0
1, 14339, Note_off_c, 1, 74, 0
1, 14340, Note_on_c, 1, 67, 127
1, 14340, Note_on_c, 1, 73, 127
1, 14340, Note_on_c, 1, 46, 127
1, 14369, Note_off_c, 1, 67, 0
1, 14369, Note_off_c, 1, 73, 0
1, 14370, Note_on_c, 1, 64, 127
1, 14370, Note_on_c, 1, 74, 127
1, 14384, Note_off_c, 1, 64, 0
1, 14385, Note_on_c, 1, 65, 127
1, 14399, Note_off_c, 1, 46, 0
1, 14399, Note_off_c, 1, 74, 0
1, 14399, Note_off_c, 1, 65, 0
1, 14400, Note_on_c, 1, 67, 127
1, 14400, Note_on_c, 1, 79, 127
1, 14429, Note_off_c, 1, 67, 0
1, 14430, Note_on_c, 1, 64, 127
1, 14459, Note_off_c, 1, 64, 0
1, 14460, Note_on_c, 1, 61, 127
1, 14460, Note_on_c, 1, 52, 127
1, 14489, Note_off_c, 1, 61, 0
1, 14519, Note_off_c, 1, 52, 0
1, 14520, Note_on_c, 1, 57, 127
1, 14520, Note_on_c, 1, 49, 127
1, 14549, Note_off_c, 1, 79, 0
1, 14549, Note_off_c, 1, 57, 0
1, 14550, Note_on_c, 1, 62, 127
1, 14550, Note_on_c, 1, 73, 127
1, 14564, Note_off_c, 1, 62, 0
1, 14579, Note_off_c, 1, 49, 0
1, 14579, Note_off_c, 1, 73, 0
1, 14580, Note_on_c, 1, 65, 127
1, 14580, Note_on_c, 1, 71, 127
1, 14580, Note_on_c, 1, 45, 127
1, 14609, Note_off_c, 1, 65, 0
1, 14609, Note_off_c, 1, 71, 0
1, 14610, Note_on_c, 1, 62, 127
1, 14610, Note_on_c, 1, 73, 127
1, 14624, Note_off_c, 1, 62, 0
1, 14625, Note_on_c, 1, 64, 127
1, 14639, Note_off_c, 1, 45, 0
1, 14639, Note_off_c, 1, 73, 0
1, 14639, Note_off_c, 1, 64, 0
1, 14640, Note_on_c, 1, 65, 127
1, 14640, Note_on_c, 1, 77, 127
1, 14669, Note_off_c, 1, 65, 0
1, 14670, Note_on_c, 1, 62, 127
1, 14699, Note_off_c, 1, 62, 0
1, 14700, Note_on_c, 1, 58, 127
1, 14700, Note_on_c, 1, 50, 127
1, 14729, Note_off_c, 1, 58, 0
1, 14759, Note_off_c, 1, 50, 0
1, 14760, Note_on_c, 1, 55, 127
1, 14760, Note_on_c, 1, 46, 127
1, 14789, Note_off_c, 1, 55, 0
1, 14790, Note_on_c, 1, 61, 127
1, 14804, Note_off_c, 1, 61, 0
1, 14819, Note_off_c, 1, 77, 0
1, 14819, Note_off_c, 1, 46, 0
1, 14820, Note_on_c, 1, 64, 127
1, 14820, Note_on_c, 1, 79, 127
1, 14820, Note_on_c, 1, 43, 127
1, 14849, Note_off_c, 1, 64, 0
1, 14849, Note_off_c, 1, 79, 0
1, 14850, Note_on_c, 1, 61, 127
1, 14850, Note_on_c, 1, 77, 127
1, 14864, Note_off_c, 1, 61, 0
1, 14865, Note_on_c, 1, 62, 127
1, 14879, Note_off_c, 1, 43, 0
1, 14879, Note_off_c, 1, 77, 0
1, 14879, Note_off_c, 1, 62, 0
1, 14880, Note_on_c, 1, 64, 127
1, 14880, Note_on_c, 1, 76, 127
1, 14880, Note_on_c, 1, 37, 127
1, 14909, Note_off_c, 1, 64, 0
1, 14910, Note_on_c, 1, 61, 127
1, 14939, Note_off_c, 1, 37, 0
1, 14939, Note_off_c, 1, 61, 0
1, 14940, Note_on_c, 1, 57, 127
1, 14940, Note_on_c, 1, 45, 127
1, 14969, Note_off_c, 1, 57, 0
1, 14999, Note_off_c, 1, 45, 0
1, 15000, Note_on_c, 1, 53, 127
1, 15000, Note_on_c, 1, 50, 127
1, 15029, Note_off_c, 1, 76, 0
1, 15030, Note_on_c, 1, 74, 127
1, 15044, Note_off_c, 1, 74, 0
1, 15059, Note_off_c, 1, 53, 0
1, 15059, Note_off_c, 1, 50, 0
1, 15060, Note_on_c, 1, 57, 127
1, 15060, Note_on_c, 1, 77, 127
1, 15060, Note_on_c, 1, 38, 127
1, 15089, Note_off_c, 1, 77, 0
1, 15090, Note_on_c, 1, 74, 127
1, 15104, Note_off_c, 1, 74, 0
1, 15105, Note_on_c, 1, 76, 127
1, 15119, Note_off_c, 1, 57, 0
1, 15119, Note_off_c, 1, 38, 0
1, 15119, Note_off_c, 1, 76, 0
1, 15120, Note_on_c, 1, 62, 127
1, 15120, Note_on_c, 1, 77, 127
1, 15149, Note_off_c, 1, 77, 0
1, 15150, Note_on_c, 1, 74, 127
1, 15179, Note_off_c, 1, 74, 0
1, 15180, Note_on_c, 1, 69, 127
1, 15180, Note_on_c, 1, 50, 127
1, 15209, Note_off_c, 1, 69, 0
1, 15239, Note_off_c, 1, 50, 0
1, 15240, Note_on_c, 1, 70, 127
1, 15240, Note_on_c, 1, 55, 127
1, 15269, Note_off_c, 1, 62, 0
1, 15269, Note_off_c, 1, 70, 0
1, 15270, Note_on_c, 1, 64, 127
1, 15270, Note_on_c, 1, 76, 127
1, 15284, Note_off_c, 1, 64, 0
1, 15284, Note_off_c, 1, 76, 0
1, 15299, Note_off_c, 1, 55, 0
1, 15300, Note_on_c, 1, 61, 127
1, 15300, Note_on_c, 1, 79, 127
1, 15300, Note_on_c, 1, 58, 127
1, 15329, Note_off_c, 1, 61, 0
1, 15329, Note_off_c, 1, 79, 0
1, 15330, Note_on_c, 1, 62, 127
1, 15330, Note_on_c, 1, 76, 127
1, 15344, Note_off_c, 1, 76, 0
1, 15345, Note_on_c, 1, 77, 127
1, 15359, Note_off_c, 1, 58, 0
1, 15359, Note_off_c, 1, 62, 0
1, 15359, Note_off_c, 1, 77, 0
1, 15360, Note_on_c, 1, 64, 127
1, 15360, Note_on_c, 1, 79, 127
1, 15360, Note_on_c, 1, 52, 127
1, 15389, Note_off_c, 1, 79, 0
1, 15390, Note_on_c, 1, 76, 127
1, 15419, Note_off_c, 1, 52, 0
1, 15419, Note_off_c, 1, 76, 0
1, 15420, Note_on_c, 1, 71, 127
1, 15420, Note_on_c, 1, 55, 127
1, 15449, Note_off_c, 1, 71, 0
1, 15450, Note_on_c, 1, 74, 127
1, 15479, Note_off_c, 1, 55, 0
1, 15479, Note_off_c, 1, 74, 0
1, 15480, Note_on_c, 1, 73, 127
1, 15480, Note_on_c, 1, 57, 127
1, 15509, Note_off_c, 1, 64, 0
1, 15509, Note_off_c, 1, 73, 0
1, 15510, Note_on_c, 1, 65, 127
1, 15510, Note_on_c, 1, 77, 127
1, 15524, Note_off_c, 1, 65, 0
1, 15524, Note_off_c, 1, 77, 0
1, 15539, Note_off_c, 1, 57, 0
1, 15540, Note_on_c, 1, 62, 127
1, 15540, Note_on_c, 1, 81, 127
1, 15540, Note_on_c, 1, 61, 127
1, 15569, Note_off_c, 1, 62, 0
1, 15569, Note_off_c, 1, 81, 0
1, 15570, Note_on_c, 1, 64, 127
1, 15570, Note_on_c, 1, 77, 127
1, 15584, Note_off_c, 1, 77, 0
1, 15585, Note_on_c, 1, 79, 127
1, 15599, Note_off_c, 1, 61, 0
1, 15599, Note_off_c, 1, 64, 0
1, 15599, Note_off_c, 1, 79, 0
1, 15600, Note_on_c, 1, 65, 127
1, 15600, Note_on_c, 1, 81, 127
1, 15600, Note_on_c, 1, 53, 127
1, 15629, Note_off_c, 1, 81, 0
1, 15630, Note_on_c, 1, 77, 127
1, 15659, Note_off_c, 1, 53, 0
1, 15659, Note_off_c, 1, 77, 0
1, 15660, Note_on_c, 1, 73, 127
1, 15660, Note_on_c, 1, 57, 127
1, 15689, Note_off_c, 1, 73, 0
1, 15690, Note_on_c, 1, 76, 127
1, 15719, Note_off_c, 1, 57, 0
1, 15719, Note_off_c, 1, 76, 0
1, 15720, Note_on_c, 1, 74, 127
1, 15720, Note_on_c, 1, 58, 127
1, 15749, Note_off_c, 1, 65, 0
1, 15749, Note_off_c, 1, 74, 0
1, 15750, Note_on_c, 1, 67, 127
1, 15750, Note_on_c, 1, 79, 127
1, 15764, Note_off_c, 1, 67, 0
1, 15764, Note_off_c, 1, 79, 0
1, 15779, Note_off_c, 1, 58, 0
1, 15780, Note_on_c, 1, 64, 127
1, 15780, Note_on_c, 1, 82, 127
1, 15780, Note_on_c, 1, 62, 127
1, 15809, Note_off_c, 1, 64, 0
1, 15809, Note_off_c, 1, 82, 0
1, 15810, Note_on_c, 1, 65, 127
1, 15810, Note_on_c, 1, 79, 127
1, 15824, Note_off_c, 1, 79, 0
1, 15825, Note_on_c, 1, 81, 127
1, 15839, Note_off_c, 1, 62, 0
1, 15839, Note_off_c, 1, 65, 0
1, 15839, Note_off_c, 1, 81, 0
1, 15840, Note_on_c, 1, 67, 127
1, 15840, Note_on_c, 1, 82, 127
1, 15840, Note_on_c, 1, 55, 127
1, 15869, Note_off_c, 1, 82, 0
1, 15870, Note_on_c, 1, 79, 127
1, 15899, Note_off_c, 1, 55, 0
1, 15899, Note_off_c, 1, 79, 0
1, 15900, Note_on_c, 1, 74, 127
1, 15900, Note_on_c, 1, 58, 127
1, 15929, Note_off_c, 1, 74, 0
1, 15930, Note_on_c, 1, 77, 127
1, 15959, Note_off_c, 1, 58, 0
1, 15959, Note_off_c, 1, 77, 0
1, 15960, Note_on_c, 1, 76, 127
1, 15960, Note_on_c, 1, 49, 127
1, 15989, Note_off_c, 1, 67, 0
1, 15989, Note_off_c, 1, 76, 0
1, 15990, Note_on_c, 1, 64, 127
1, 15990, Note_on_c, 1, 73, 127
1, 16004, Note_off_c, 1, 64, 0
1, 16004, Note_off_c, 1, 73, 0
1, 16005, Note_on_c, 1, 65, 127
1, 16019, Note_off_c, 1, 65, 0
1, 16079, Note_off_c, 1, 49, 0
1, 16080, Note_on_c, 1, 67, 127
1, 16080, Note_on_c, 1, 76, 127
1, 16109, Note_off_c, 1, 67, 0
1, 16109, Note_off_c, 1, 76, 0
1, 16110, Note_on_c, 1, 64, 127
1, 16110, Note_on_c, 1, 73, 127
1, 16139, Note_off_c, 1, 64, 0
1, 16139, Note_off_c, 1, 73, 0
1, 16140, Note_on_c, 1, 69, 127
1, 16140, Note_on_c, 1, 55, 127
1, 16170, Note_on_c, 1, 73, 127
1, 16199, Note_off_c, 1, 55, 0
1, 16199, Note_off_c, 1, 73, 0
1, 16200, Note_on_c, 1, 74, 127
1, 16200, Note_on_c, 1, 53, 127
1, 16229, Note_off_c, 1, 74, 0
1, 16229, Note_off_c, 1, 53, 0
1, 16230, Note_on_c, 1, 52, 127
1, 16259, Note_off_c, 1, 52, 0
1, 16289, Note_off_c, 1, 69, 0
1, 16290, Note_on_c, 1, 70, 127
1, 16290, Note_on_c, 1, 82, 127
1, 16290, Note_on_c, 1, 55, 127
1, 16319, Note_off_c, 1, 70, 0
1, 16319, Note_off_c, 1, 82, 0
1, 16319, Note_off_c, 1, 55, 0
1, 16320, Note_on_c, 1, 65, 127
1, 16320, Note_on_c, 1, 73, 127
1, 16320, Note_on_c, 1, 57, 127
1, 16335, Note_off_c, 1, 65, 0
1, 16335, Note_on_c, 1, 64, 127
1, 16350, Note_off_c, 1, 64, 0
1, 16379, Note_off_c, 1, 57, 0
1, 16380, Note_on_c, 1, 45, 127
1, 16409, Note_off_c, 1, 73, 0
1, 16410, Note_on_c, 1, 62, 127
1, 16410, Note_on_c, 1, 74, 127
1, 16439, Note_off_c, 1, 45, 0
1, 16439, Note_off_c, 1, 62, 0
1, 16439, Note_off_c, 1, 74, 0
1, 16440, Note_on_c, 1, 62, 127
1, 16440, Note_on_c, 1, 74, 127
1, 16440, Note_on_c, 1, 50, 127
1, 16499, Note_off_c, 1, 62, 0
1, 16499, Note_off_c, 1, 74, 0
1, 16499, Note_off_c, 1, 50, 0
1, 16500, Note_on_c, 1, 62, 127
1, 16500, Note_on_c, 1, 74, 127
1, 16500, Note_on_c, 1, 45, 127
1, 16529, Note_off_c, 1, 62, 0
1, 16529, Note_off_c, 1, 74, 0
1, 16530, Note_on_c, 1, 61, 127
1, 16530, Note_on_c, 1, 73, 127
1, 16559, Note_off_c, 1, 45, 0
1, 16559, Note_off_c, 1, 61, 0
1, 16559, Note_off_c, 1, 73, 0
1, 16560, Note_on_c, 1, 62, 127
1, 16560, Note_on_c, 1, 74, 127
1, 16560, Note_on_c, 1, 38, 127
1, 16619, Note_off_c, 1, 62, 0
1, 16619, Note_off_c, 1, 74, 0
1, 16619, Note_off_c, 1, 38, 0
1, 16620, Note_on_c, 1, 57, 127
1, 16620, Note_on_c, 1, 69, 127
1, 16620, Note_on_c, 1, 50, 127
1, 16649, Note_off_c, 1, 57, 0
1, 16649, Note_off_c, 1, 69, 0
1, 16649, Note_off_c, 1, 50, 0
1, 16650, Note_on_c, 1, 55, 127
1, 16650, Note_on_c, 1, 67, 127
1, 16650, Note_on_c, 1, 52, 127
1, 16679, Note_off_c, 1, 55, 0
1, 16679, Note_off_c, 1, 67, 0
1, 16679, Note_off_c, 1, 52, 0
1, 16680, Note_on_c, 1, 57, 127
1, 16680, Note_on_c, 1, 69, 127
1, 16680, Note_on_c, 1, 53, 127
1, 16739, Note_off_c, 1, 57, 0
1, 16739, Note_off_c, 1, 69, 0
1, 16739, Note_off_c, 1, 53, 0
1, 16740, Note_on_c, 1, 53, 127
1, 16740, Note_on_c, 1, 65, 127
1, 16740, Note_on_c, 1, 50, 127
1, 16769, Note_off_c, 1, 53, 0
1, 16769, Note_off_c, 1, 65, 0
1, 16770, Note_on_c, 1, 52, 127
1, 16770, Note_on_c, 1, 64, 127
1, 16799, Note_off_c, 1, 50, 0
1, 16799, Note_off_c, 1, 52, 0
1, 16799, Note_off_c, 1, 64, 0
1, 16800, Note_on_c, 1, 53, 127
1, 16800, Note_on_c, 1, 65, 127
1, 16800, Note_on_c, 1, 38, 127
1, 16859, Note_off_c, 1, 53, 0
1, 16859, Note_off_c, 1, 65, 0
1, 16859, Note_off_c, 1, 38, 0
1, 16860, Note_on_c, 1, 50, 127
1, 16860, Note_on_c, 1, 62, 127
1, 16889, Note_off_c, 1, 50, 0
1, 16889, Note_off_c, 1, 62, 0
1, 16890, Note_on_c, 1, 49, 127
1, 16890, Note_on_c, 1, 61, 127
1, 16890, Note_on_c, 1, 52, 127
1, 16919, Note_off_c, 1, 49, 0
1, 16919, Note_off_c, 1, 61, 0
1, 16919, Note_off_c, 1, 52, 0
1, 16920, Note_on_c, 1, 50, 127
1, 16920, Note_on_c, 1, 62, 127
1, 16920, Note_on_c, 1, 53, 127
1, 16949, Note_off_c, 1, 53, 0
1, 16950, Note_on_c, 1, 55, 127
1, 16979, Note_off_c, 1, 50, 0
1, 16979, Note_off_c, 1, 62, 0
1, 16979, Note_off_c, 1, 55, 0
1, 16980, Note_on_c, 1, 53, 127
1, 16980, Note_on_c, 1, 65, 127
1, 16980, Note_on_c, 1, 57, 127
1, 17009, Note_off_c, 1, 57, 0
1, 17010, Note_on_c, 1, 55, 127
1, 17039, Note_off_c, 1, 53, 0
1, 17039, Note_off_c, 1, 65, 0
1, 17039, Note_off_c, 1, 55, 0
1, 17040, Note_on_c, 1, 57, 127
1, 17040, Note_on_c, 1, 69, 127
1, 17040, Note_on_c, 1, 53, 127
1, 17069, Note_off_c, 1, 53, 0
1, 17070, Note_on_c, 1, 52, 127
1, 17099, Note_off_c, 1, 57, 0
1, 17099, Note_off_c, 1, 69, 0
1, 17099, Note_off_c, 1, 52, 0
1, 17100, Note_on_c, 1, 62, 127
1, 17100, Note_on_c, 1, 74, 127
1, 17100, Note_on_c, 1, 53, 127
1, 17129, Note_off_c, 1, 53, 0
1, 17130, Note_on_c, 1, 50, 127
1, 17159, Note_off_c, 1, 62, 0
1, 17159, Note_off_c, 1, 74, 0
1, 17159, Note_off_c, 1, 50, 0
1, 17160, Note_on_c, 1, 64, 127
1, 17160, Note_on_c, 1, 76, 127
1, 17160, Note_on_c, 1, 49, 127
1, 17189, Note_off_c, 1, 64, 0
1, 17189, Note_off_c, 1, 76, 0
1, 17189, Note_off_c, 1, 49, 0
1, 17190, Note_on_c, 1, 62, 127
1, 17190, Note_on_c, 1, 74, 127
1, 17190, Note_on_c, 1, 50, 127
1, 17219, Note_off_c, 1, 62, 0
1, 17219, Note_off_c, 1, 74, 0
1, 17219, Note_off_c, 1, 50, 0
1, 17220, Note_on_c, 1, 61, 127
1, 17220, Note_on_c, 1, 73, 127
1, 17220, Note_on_c, 1, 52, 127
1, 17249, Note_off_c, 1, 61, 0
1, 17249, Note_off_c, 1, 73, 0
1, 17249, Note_off_c, 1, 52, 0
1, 17250, Note_on_c, 1, 59, 127
1, 17250, Note_on_c, 1, 71, 127
1, 17250, Note_on_c, 1, 50, 127
1, 17279, Note_off_c, 1, 59, 0
1, 17279, Note_off_c, 1, 71, 0
1, 17279, Note_off_c, 1, 50, 0
1, 17280, Note_on_c, 1, 57, 127
1, 17280, Note_on_c, 1, 69, 127
1, 17280, Note_on_c, 1, 49, 127
1, 17309, Note_off_c, 1, 49, 0
1, 17310, Note_on_c, 1, 47, 127
1, 17339, Note_off_c, 1, 57, 0
1, 17339, Note_off_c, 1, 69, 0
1, 17339, Note_off_c, 1, 47, 0
1, 17340, Note_on_c, 1, 63, 127
1, 17340, Note_on_c, 1, 81, 127
1, 17340, Note_on_c, 1, 45, 127
1, 17369, Note_off_c, 1, 63, 0
1, 17369, Note_off_c, 1, 45, 0
1, 17370, Note_on_c, 1, 62, 127
1, 17370, Note_on_c, 1, 43, 127
1, 17399, Note_off_c, 1, 81, 0
1, 17399, Note_off_c, 1, 62, 0
1, 17399, Note_off_c, 1, 43, 0
1, 17400, Note_on_c, 1, 63, 127
1, 17400, Note_on_c, 1, 81, 127
1, 17400, Note_on_c, 1, 42, 127
1, 17419, Note_off_c, 1, 81, 0
1, 17420, Note_on_c, 1, 82, 127
1, 17439, Note_off_c, 1, 82, 0
1, 17459, Note_off_c, 1, 63, 0
1, 17459, Note_off_c, 1, 42, 0
1, 17460, Note_on_c, 1, 60, 127
1, 17460, Note_on_c, 1, 82, 127
1, 17460, Note_on_c, 1, 51, 127
1, 17474, Note_off_c, 1, 82, 0
1, 17475, Note_on_c, 1, 81, 127
1, 17489, Note_off_c, 1, 60, 0
1, 17489, Note_off_c, 1, 51, 0
1, 17489, Note_off_c, 1, 81, 0
1, 17490, Note_on_c, 1, 58, 127
1, 17490, Note_on_c, 1, 82, 127
1, 17490, Note_on_c, 1, 50, 127
1, 17504, Note_off_c, 1, 82, 0
1, 17505, Note_on_c, 1, 81, 127
1, 17519, Note_off_c, 1, 58, 0
1, 17519, Note_off_c, 1, 50, 0
1, 17519, Note_off_c, 1, 81, 0
1, 17520, Note_on_c, 1, 60, 127
1, 17520, Note_on_c, 1, 82, 127
1, 17520, Note_on_c, 1, 51, 127
1, 17534, Note_off_c, 1, 82, 0
1, 17535, Note_on_c, 1, 81, 127
1, 17549, Note_off_c, 1, 51, 0
1, 17549, Note_off_c, 1, 81, 0
1, 17550, Note_on_c, 1, 48, 127
1, 17579, Note_off_c, 1, 60, 0
1, 17579, Note_off_c, 1, 48, 0
1, 17580, Note_on_c, 1, 57, 127
1, 17580, Note_on_c, 1, 82, 127
1, 17580, Note_on_c, 1, 54, 127
1, 17594, Note_off_c, 1, 82, 0
1, 17595, Note_on_c, 1, 81, 127
1, 17609, Note_off_c, 1, 57, 0
1, 17609, Note_off_c, 1, 54, 0
1, 17609, Note_off_c, 1, 81, 0
1, 17610, Note_on_c, 1, 55, 127
1, 17610, Note_on_c, 1, 82, 127
1, 17610, Note_on_c, 1, 52, 127
1, 17624, Note_off_c, 1, 82, 0
1, 17625, Note_on_c, 1, 81, 127
1, 17639, Note_off_c, 1, 55, 0
1, 17639, Note_off_c, 1, 52, 0
1, 17639, Note_off_c, 1, 81, 0
1, 17640, Note_on_c, 1, 57, 127
1, 17640, Note_on_c, 1, 82, 127
1, 17640, Note_on_c, 1, 54, 127
1, 17654, Note_off_c, 1, 82, 0
1, 17655, Note_on_c, 1, 81, 127
1, 17669, Note_off_c, 1, 54, 0
1, 17669, Note_off_c, 1, 81, 0
1, 17670, Note_on_c, 1, 50, 127
1, 17699, Note_off_c, 1, 57, 0
1, 17699, Note_off_c, 1, 50, 0
1, 17700, Note_on_c, 1, 54, 127
1, 17700, Note_on_c, 1, 82, 127
1, 17700, Note_on_c, 1, 57, 127
1, 17714, Note_off_c, 1, 82, 0
1, 17715, Note_on_c, 1, 81, 127
1, 17729, Note_off_c, 1, 54, 0
1, 17729, Note_off_c, 1, 57, 0
1, 17729, Note_off_c, 1, 81, 0
1, 17730, Note_on_c, 1, 52, 127
1, 17730, Note_on_c, 1, 82, 127
1, 17730, Note_on_c, 1, 55, 127
1, 17744, Note_off_c, 1, 82, 0
1, 17745, Note_on_c, 1, 81, 127
1, 17759, Note_off_c, 1, 52, 0
1, 17759, Note_off_c, 1, 55, 0
1, 17759, Note_off_c, 1, 81, 0
1, 17760, Note_on_c, 1, 54, 127
1, 17760, Note_on_c, 1, 82, 127
1, 17760, Note_on_c, 1, 57, 127
1, 17774, Note_off_c, 1, 82, 0
1, 17775, Note_on_c, 1, 81, 127
1, 17789, Note_off_c, 1, 57, 0
1, 17789, Note_off_c, 1, 81, 0
1, 17819, Note_off_c, 1, 54, 0
1, 17820, Note_on_c, 1, 50, 127
1, 17820, Note_on_c, 1, 82, 127
1, 17820, Note_on_c, 1, 57, 127
1, 17834, Note_off_c, 1, 82, 0
1, 17835, Note_on_c, 1, 81, 127
1, 17849, Note_off_c, 1, 50, 0
1, 17849, Note_off_c, 1, 57, 0
1, 17849, Note_off_c, 1, 81, 0
1, 17850, Note_on_c, 1, 48, 127
1, 17850, Note_on_c, 1, 82, 127
1, 17850, Note_on_c, 1, 60, 127
1, 17864, Note_off_c, 1, 82, 0
1, 17865, Note_on_c, 1, 81, 127
1, 17879, Note_off_c, 1, 48, 0
1, 17879, Note_off_c, 1, 60, 0
1, 17879, Note_off_c, 1, 81, 0
1, 17880, Note_on_c, 1, 50, 127
1, 17880, Note_on_c, 1, 82, 127
1, 17880, Note_on_c, 1, 54, 127
1, 17894, Note_off_c, 1, 82, 0
1, 17895, Note_on_c, 1, 81, 127
1, 17909, Note_off_c, 1, 81, 0
1, 17910, Note_on_c, 1, 79, 127
1, 17924, Note_off_c, 1, 79, 0
1, 17939, Note_off_c, 1, 50, 0
1, 17939, Note_off_c, 1, 54, 0
1, 17940, Note_on_c, 1, 54, 127
1, 17940, Note_on_c, 1, 74, 127
1, 17940, Note_on_c, 1, 57, 127
1, 17969, Note_off_c, 1, 74, 0
1, 17970, Note_on_c, 1, 76, 127
1, 17999, Note_off_c, 1, 54, 0
1, 17999, Note_off_c, 1, 57, 0
1, 17999, Note_off_c, 1, 76, 0
1, 18000, Note_on_c, 1, 57, 127
1, 18000, Note_on_c, 1, 78, 127
1, 18000, Note_on_c, 1, 62, 127
1, 18029, Note_off_c, 1, 78, 0
1, 18030, Note_on_c, 1, 79, 127
1, 18059, Note_off_c, 1, 57, 0
1, 18059, Note_off_c, 1, 62, 0
1, 18059, Note_off_c, 1, 79, 0
1, 18060, Note_on_c, 1, 62, 127
1, 18060, Note_on_c, 1, 81, 127
1, 18060, Note_on_c, 1, 50, 127
1, 18089, Note_off_c, 1, 81, 0
1, 18090, Note_on_c, 1, 78, 127
1, 18119, Note_off_c, 1, 62, 0
1, 18119, Note_off_c, 1, 50, 0
1, 18119, Note_off_c, 1, 78, 0
1, 18120, Note_on_c, 1, 62, 127
1, 18120, Note_on_c, 1, 79, 127
1, 18120, Note_on_c, 1, 43, 127
1, 18134, Note_off_c, 1, 79, 0
1, 18135, Note_on_c, 1, 81, 127
1, 18149, Note_off_c, 1, 62, 0
1, 18149, Note_off_c, 1, 81, 0
1, 18150, Note_on_c, 1, 60, 127
1, 18179, Note_off_c, 1, 43, 0
1, 18179, Note_off_c, 1, 60, 0
1, 18180, Note_on_c, 1, 58, 127
1, 18180, Note_on_c, 1, 45, 127
1, 18209, Note_off_c, 1, 58, 0
1, 18239, Note_off_c, 1, 45, 0
1, 18240, Note_on_c, 1, 55, 127
1, 18240, Note_on_c, 1, 46, 127
1, 18299, Note_off_c, 1, 55, 0
1, 18299, Note_off_c, 1, 46, 0
1, 18300, Note_on_c, 1, 74, 127
1, 18300, Note_on_c, 1, 80, 127
1, 18300, Note_on_c, 1, 48, 127
1, 18329, Note_off_c, 1, 80, 0
1, 18330, Note_on_c, 1, 79, 127
1, 18359, Note_off_c, 1, 74, 0
1, 18359, Note_off_c, 1, 48, 0
1, 18359, Note_off_c, 1, 79, 0
1, 18360, Note_on_c, 1, 74, 127
1, 18360, Note_on_c, 1, 80, 127
1, 18360, Note_on_c, 1, 47, 127
1, 18419, Note_off_c, 1, 80, 0
1, 18419, Note_off_c, 1, 47, 0
1, 18420, Note_on_c, 1, 77, 127
1, 18420, Note_on_c, 1, 56, 127
1, 18449, Note_off_c, 1, 77, 0
1, 18449, Note_off_c, 1, 56, 0
1, 18450, Note_on_c, 1, 75, 127
1, 18450, Note_on_c, 1, 55, 127
1, 18479, Note_off_c, 1, 75, 0
1, 18479, Note_off_c, 1, 55, 0
1, 18510, Note_on_c, 1, 53, 127
1, 18539, Note_off_c, 1, 53, 0
1, 18540, Note_on_c, 1, 59, 127
1, 18569, Note_off_c, 1, 59, 0
1, 18570, Note_on_c, 1, 72, 127
1, 18570, Note_on_c, 1, 57, 127
1, 18599, Note_off_c, 1, 72, 0
1, 18599, Note_off_c, 1, 57, 0
1, 18660, Note_on_c, 1, 71, 127
1, 18660, Note_on_c, 1, 62, 127
1, 18689, Note_off_c, 1, 71, 0
1, 18689, Note_off_c, 1, 62, 0
1, 18690, Note_on_c, 1, 69, 127
1, 18690, Note_on_c, 1, 60, 127
1, 18719, Note_off_c, 1, 69, 0
1, 18719, Note_off_c, 1, 60, 0
1, 18780, Note_on_c, 1, 67, 127
1, 18809, Note_off_c, 1, 67, 0
1, 18810, Note_on_c, 1, 65, 127
1, 18839, Note_off_c, 1, 65, 0
1, 18900, Note_off_c, 1, 74, 0
1, 18960, Note_on_c, 1, 71, 127
1, 18960, Note_on_c, 1, 74, 127
1, 18960, Note_on_c, 1, 59, 127
1, 18989, Note_off_c, 1, 71, 0
1, 18990, Note_on_c, 1, 72, 127
1, 19019, Note_off_c, 1, 74, 0
1, 19019, Note_off_c, 1, 59, 0
1, 19019, Note_off_c, 1, 72, 0
1, 19020, Note_on_c, 1, 74, 127
1, 19020, Note_on_c, 1, 77, 127
1, 19020, Note_on_c, 1, 55, 127
1, 19049, Note_off_c, 1, 74, 0
1, 19050, Note_on_c, 1, 71, 127
1, 19079, Note_off_c, 1, 77, 0
1, 19079, Note_off_c, 1, 55, 0
1, 19079, Note_off_c, 1, 71, 0
1, 19080, Note_on_c, 1, 72, 127
1, 19080, Note_on_c, 1, 77, 127
1, 19080, Note_on_c, 1, 48, 127
1, 19109, Note_off_c, 1, 77, 0
1, 19110, Note_on_c, 1, 75, 127
1, 19139, Note_off_c, 1, 48, 0
1, 19139, Note_off_c, 1, 75, 0
1, 19140, Note_on_c, 1, 74, 127
1, 19140, Note_on_c, 1, 50, 127
1, 19169, Note_off_c, 1, 74, 0
1, 19199, Note_off_c, 1, 72, 0
1, 19199, Note_off_c, 1, 50, 0
1, 19200, Note_on_c, 1, 72, 127
1, 19200, Note_on_c, 1, 51, 127
1, 19230, Note_on_c, 1, 60, 127
1, 19259, Note_off_c, 1, 51, 0
1, 19259, Note_off_c, 1, 60, 0
1, 19260, Note_on_c, 1, 63, 127
1, 19260, Note_on_c, 1, 48, 127
1, 19289, Note_off_c, 1, 63, 0
1, 19290, Note_on_c, 1, 67, 127
1, 19319, Note_off_c, 1, 48, 0
1, 19319, Note_off_c, 1, 67, 0
1, 19320, Note_on_c, 1, 68, 127
1, 19320, Note_on_c, 1, 41, 127
1, 19349, Note_off_c, 1, 68, 0
1, 19350, Note_on_c, 1, 70, 127
1, 19379, Note_off_c, 1, 72, 0
1, 19379, Note_off_c, 1, 41, 0
1, 19379, Note_off_c, 1, 70, 0
1, 19380, Note_on_c, 1, 68, 127
1, 19380, Note_on_c, 1, 77, 127
1, 19380, Note_on_c, 1, 44, 127
1, 19409, Note_off_c, 1, 68, 0
1, 19409, Note_off_c, 1, 77, 0
1, 19410, Note_on_c, 1, 67, 127
1, 19410, Note_on_c, 1, 79, 127
1, 19439, Note_off_c, 1, 44, 0
1, 19439, Note_off_c, 1, 67, 0
1, 19439, Note_off_c, 1, 79, 0
1, 19440, Note_on_c, 1, 65, 127
1, 19440, Note_on_c, 1, 80, 127
1, 19440, Note_on_c, 1, 48, 127
1, 19469, Note_off_c, 1, 65, 0
1, 19470, Note_on_c, 1, 63, 127
1, 19499, Note_off_c, 1, 48, 0
1, 19499, Note_off_c, 1, 63, 0
1, 19500, Note_on_c, 1, 62, 127
1, 19500, Note_on_c, 1, 53, 127
1, 19529, Note_off_c, 1, 62, 0
1, 19530, Note_on_c, 1, 60, 127
1, 19559, Note_off_c, 1, 53, 0
1, 19559, Note_off_c, 1, 60, 0
1, 19560, Note_on_c, 1, 58, 127
1, 19560, Note_on_c, 1, 50, 127
1, 19589, Note_off_c, 1, 80, 0
1, 19589, Note_off_c, 1, 50, 0
1, 19590, Note_on_c, 1, 79, 127
1, 19590, Note_on_c, 1, 51, 127
1, 19619, Note_off_c, 1, 58, 0
1, 19619, Note_off_c, 1, 79, 0
1, 19619, Note_off_c, 1, 51, 0
1, 19620, Note_on_c, 1, 62, 127
1, 19620, Note_on_c, 1, 77, 127
1, 19620, Note_on_c, 1, 50, 127
1, 19649, Note_off_c, 1, 77, 0
1, 19649, Note_off_c, 1, 50, 0
1, 19650, Note_on_c, 1, 79, 127
1, 19650, Note_on_c, 1, 48, 127
1, 19679, Note_off_c, 1, 62, 0
1, 19679, Note_off_c, 1, 79, 0
1, 19679, Note_off_c, 1, 48, 0
1, 19680, Note_on_c, 1, 65, 127
1, 19680, Note_on_c, 1, 80, 127
1, 19680, Note_on_c, 1, 46, 127
1, 19709, Note_off_c, 1, 46, 0
1, 19710, Note_on_c, 1, 44, 127
1, 19739, Note_off_c, 1, 65, 0
1, 19739, Note_off_c, 1, 80, 0
1, 19739, Note_off_c, 1, 44, 0
1, 19740, Note_on_c, 1, 68, 127
1, 19740, Note_on_c, 1, 70, 127
1, 19740, Note_on_c, 1, 43, 127
1, 19769, Note_off_c, 1, 43, 0
1, 19770, Note_on_c, 1, 41, 127
1, 19799, Note_off_c, 1, 68, 0
1, 19799, Note_off_c, 1, 41, 0
1, 19800, Note_on_c, 1, 67, 127
1, 19800, Note_on_c, 1, 39, 127
1, 19829, Note_off_c, 1, 67, 0
1, 19859, Note_off_c, 1, 70, 0
1, 19859, Note_off_c, 1, 39, 0
1, 19860, Note_on_c, 1, 67, 127
1, 19860, Note_on_c, 1, 75, 127
1, 19860, Note_on_c, 1, 43, 127
1, 19889, Note_off_c, 1, 67, 0
1, 19889, Note_off_c, 1, 75, 0
1, 19890, Note_on_c, 1, 65, 127
1, 19890, Note_on_c, 1, 77, 127
1, 19919, Note_off_c, 1, 43, 0
1, 19919, Note_off_c, 1, 65, 0
1, 19919, Note_off_c, 1, 77, 0
1, 19920, Note_on_c, 1, 63, 127
1, 19920, Note_on_c, 1, 79, 127
1, 19920, Note_on_c, 1, 46, 127
1, 19949, Note_off_c, 1, 63, 0
1, 19950, Note_on_c, 1, 62, 127
1, 19979, Note_off_c, 1, 46, 0
1, 19979, Note_off_c, 1, 62, 0
1, 19980, Note_on_c, 1, 60, 127
1, 19980, Note_on_c, 1, 51, 127
1, 20009, Note_off_c, 1, 60, 0
1, 20010, Note_on_c, 1, 58, 127
1, 20039, Note_off_c, 1, 51, 0
1, 20039, Note_off_c, 1, 58, 0
1, 20040, Note_on_c, 1, 56, 127
1, 20040, Note_on_c, 1, 48, 127
1, 20069, Note_off_c, 1, 79, 0
1, 20069, Note_off_c, 1, 48, 0
1, 20070, Note_on_c, 1, 77, 127
1, 20070, Note_on_c, 1, 50, 127
1, 20099, Note_off_c, 1, 56, 0
1, 20099, Note_off_c, 1, 77, 0
1, 20099, Note_off_c, 1, 50, 0
1, 20100, Note_on_c, 1, 60, 127
1, 20100, Note_on_c, 1, 75, 127
1, 20100, Note_on_c, 1, 48, 127
1, 20129, Note_off_c, 1, 75, 0
1, 20129, Note_off_c, 1, 48, 0
1, 20130, Note_on_c, 1, 77, 127
1, 20130, Note_on_c, 1, 46, 127
1, 20159, Note_off_c, 1, 60, 0
1, 20159, Note_off_c, 1, 77, 0
1, 20159, Note_off_c, 1, 46, 0
1, 20160, Note_on_c, 1, 63, 127
1, 20160, Note_on_c, 1, 79, 127
1, 20160, Note_on_c, 1, 44, 127
1, 20189, Note_off_c, 1, 44, 0
1, 20190, Note_on_c, 1, 43, 127
1, 20219, Note_off_c, 1, 63, 0
1, 20219, Note_off_c, 1, 79, 0
1, 20219, Note_off_c, 1, 43, 0
1, 20220, Note_on_c, 1, 67, 127
1, 20220, Note_on_c, 1, 68, 127
1, 20220, Note_on_c, 1, 41, 127
1, 20249, Note_off_c, 1, 41, 0
1, 20250, Note_on_c, 1, 39, 127
1, 20279, Note_off_c, 1, 67, 0
1, 20279, Note_off_c, 1, 39, 0
1, 20280, Note_on_c, 1, 65, 127
1, 20280, Note_on_c, 1, 38, 127
1, 20309, Note_off_c, 1, 65, 0
1, 20339, Note_off_c, 1, 68, 0
1, 20339, Note_off_c, 1, 38, 0
1, 20340, Note_on_c, 1, 65, 127
1, 20340, Note_on_c, 1, 74, 127
1, 20340, Note_on_c, 1, 41, 127
1, 20369, Note_off_c, 1, 65, 0
1, 20369, Note_off_c, 1, 74, 0
1, 20370, Note_on_c, 1, 63, 127
1, 20370, Note_on_c, 1, 75, 127
1, 20399, Note_off_c, 1, 41, 0
1, 20399, Note_off_c, 1, 63, 0
1, 20399, Note_off_c, 1, 75, 0
1, 20400, Note_on_c, 1, 62, 127
1, 20400, Note_on_c, 1, 77, 127
1, 20400, Note_on_c, 1, 44, 127
1, 20429, Note_off_c, 1, 62, 0
1, 20430, Note_on_c, 1, 60, 127
1, 20459, Note_off_c, 1, 44, 0
1, 20459, Note_off_c, 1, 60, 0
1, 20460, Note_on_c, 1, 59, 127
1, 20460, Note_on_c, 1, 50, 127
1, 20489, Note_off_c, 1, 59, 0
1, 20490, Note_on_c, 1, 57, 127
1, 20519, Note_off_c, 1, 50, 0
1, 20519, Note_off_c, 1, 57, 0
1, 20520, Note_on_c, 1, 55, 127
1, 20520, Note_on_c, 1, 47, 127
1, 20549, Note_off_c, 1, 77, 0
1, 20549, Note_off_c, 1, 47, 0
1, 20550, Note_on_c, 1, 75, 127
1, 20550, Note_on_c, 1, 48, 127
1, 20579, Note_off_c, 1, 55, 0
1, 20579, Note_off_c, 1, 75, 0
1, 20579, Note_off_c, 1, 48, 0
1, 20580, Note_on_c, 1, 59, 127
1, 20580, Note_on_c, 1, 74, 127
1, 20580, Note_on_c, 1, 47, 127
1, 20609, Note_off_c, 1, 74, 0
1, 20609, Note_off_c, 1, 47, 0
1, 20610, Note_on_c, 1, 75, 127
1, 20610, Note_on_c, 1, 45, 127
1, 20639, Note_off_c, 1, 59, 0
1, 20639, Note_off_c, 1, 75, 0
1, 20639, Note_off_c, 1, 45, 0
1, 20640, Note_on_c, 1, 62, 127
1, 20640, Note_on_c, 1, 77, 127
1, 20640, Note_on_c, 1, 43, 127
1, 20669, Note_off_c, 1, 77, 0
1, 20669, Note_off_c, 1, 43, 0
1, 20670, Note_on_c, 1, 80, 127
1, 20670, Note_on_c, 1, 41, 127
1, 20699, Note_off_c, 1, 62, 0
1, 20699, Note_off_c, 1, 80, 0
1, 20699, Note_off_c, 1, 41, 0
1, 20700, Note_on_c, 1, 67, 127
1, 20700, Note_on_c, 1, 79, 127
1, 20700, Note_on_c, 1, 39, 127
1, 20729, Note_off_c, 1, 79, 0
1, 20729, Note_off_c, 1, 39, 0
1, 20730, Note_on_c, 1, 77, 127
1, 20730, Note_on_c, 1, 38, 127
1, 20759, Note_off_c, 1, 67, 0
1, 20759, Note_off_c, 1, 77, 0
1, 20759, Note_off_c, 1, 38, 0
1, 20760, Note_on_c, 1, 67, 127
1, 20760, Note_on_c, 1, 75, 127
1, 20760, Note_on_c, 1, 36, 127
1, 20789, Note_off_c, 1, 75, 0
1, 20790, Note_on_c, 1, 74, 127
1, 20819, Note_off_c, 1, 74, 0
1, 20820, Note_on_c, 1, 72, 127
1, 20849, Note_off_c, 1, 72, 0
1, 20850, Note_on_c, 1, 71, 127
1, 20879, Note_off_c, 1, 36, 0
1, 20879, Note_off_c, 1, 71, 0
1, 20910, Note_on_c, 1, 53, 127
1, 20939, Note_off_c, 1, 53, 0
1, 20940, Note_on_c, 1, 51, 127
1, 20969, Note_off_c, 1, 51, 0
1, 20970, Note_on_c, 1, 65, 127
1, 20970, Note_on_c, 1, 50, 127
1, 20999, Note_off_c, 1, 65, 0
1, 20999, Note_off_c, 1, 50, 0
1, 21060, Note_on_c, 1, 63, 127
1, 21060, Note_on_c, 1, 48, 127
1, 21089, Note_off_c, 1, 63, 0
1, 21089, Note_off_c, 1, 48, 0
1, 21090, Note_on_c, 1, 62, 127
1, 21090, Note_on_c, 1, 47, 127
1, 21119, Note_off_c, 1, 62, 0
1, 21119, Note_off_c, 1, 47, 0
1, 21150, Note_on_c, 1, 43, 127
1, 21179, Note_off_c, 1, 43, 0
1, 21180, Note_on_c, 1, 60, 127
1, 21209, Note_off_c, 1, 60, 0
1, 21210, Note_on_c, 1, 59, 127
1, 21239, Note_off_c, 1, 59, 0
1, 21270, Note_off_c, 1, 67, 0
1, 21300, Note_on_c, 1, 67, 127
1, 21300, Note_on_c, 1, 63, 127
1, 21300, Note_on_c, 1, 48, 127
1, 21329, Note_off_c, 1, 67, 0
1, 21330, Note_on_c, 1, 62, 127
1, 21359, Note_off_c, 1, 63, 0
1, 21359, Note_off_c, 1, 48, 0
1, 21359, Note_off_c, 1, 62, 0
1, 21360, Note_on_c, 1, 63, 127
1, 21360, Note_on_c, 1, 67, 127
1, 21360, Note_on_c, 1, 46, 127
1, 21389, Note_off_c, 1, 63, 0
1, 21390, Note_on_c, 1, 62, 127
1, 21419, Note_off_c, 1, 67, 0
1, 21419, Note_off_c, 1, 46, 0
1, 21419, Note_off_c, 1, 62, 0
1, 21420, Note_on_c, 1, 63, 127
1, 21420, Note_on_c, 1, 72, 127
1, 21420, Note_on_c, 1, 44, 127
1, 21449, Note_off_c, 1, 63, 0
1, 21450, Note_on_c, 1, 60, 127
1, 21479, Note_off_c, 1, 72, 0
1, 21479, Note_off_c, 1, 44, 0
1, 21479, Note_off_c, 1, 60, 0
1, 21480, Note_on_c, 1, 59, 127
1, 21480, Note_on_c, 1, 74, 127
1, 21480, Note_on_c, 1, 43, 127
1, 21509, Note_off_c, 1, 59, 0
1, 21509, Note_off_c, 1, 74, 0
1, 21510, Note_on_c, 1, 60, 127
1, 21510, Note_on_c, 1, 72, 127
1, 21539, Note_off_c, 1, 43, 0
1, 21539, Note_off_c, 1, 60, 0
1, 21539, Note_off_c, 1, 72, 0
1, 21540, Note_on_c, 1, 60, 127
1, 21540, Note_on_c, 1, 71, 127
1, 21540, Note_on_c, 1, 45, 127
1, 21549, Note_off_c, 1, 60, 0
1, 21550, Note_on_c, 1, 62, 127
1, 21559, Note_off_c, 1, 62, 0
1, 21569, Note_off_c, 1, 71, 0
1, 21570, Note_on_c, 1, 59, 127
1, 21570, Note_on_c, 1, 69, 127
1, 21584, Note_off_c, 1, 59, 0
1, 21599, Note_off_c, 1, 45, 0
1, 21599, Note_off_c, 1, 69, 0
1, 21600, Note_on_c, 1, 62, 127
1, 21600, Note_on_c, 1, 67, 127
1, 21600, Note_on_c, 1, 47, 127
1, 21629, Note_off_c, 1, 62, 0
1, 21630, Note_on_c, 1, 60, 127
1, 21659, Note_off_c, 1, 67, 0
1, 21659, Note_off_c, 1, 47, 0
1, 21659, Note_off_c, 1, 60, 0
1, 21660, Note_on_c, 1, 59, 127
1, 21660, Note_on_c, 1, 79, 127
1, 21660, Note_on_c, 1, 43, 127
1, 21689, Note_off_c, 1, 59, 0
1, 21690, Note_on_c, 1, 57, 127
1, 21719, Note_off_c, 1, 79, 0
1, 21719, Note_off_c, 1, 43, 0
1, 21719, Note_off_c, 1, 57, 0
1, 21720, Note_on_c, 1, 55, 127
1, 21720, Note_on_c, 1, 79, 127
1, 21720, Note_on_c, 1, 48, 127
1, 21739, Note_off_c, 1, 79, 0
1, 21740, Note_on_c, 1, 81, 127
1, 21759, Note_off_c, 1, 81, 0
1, 21779, Note_off_c, 1, 55, 0
1, 21779, Note_off_c, 1, 48, 0
1, 21780, Note_on_c, 1, 60, 127
1, 21780, Note_on_c, 1, 81, 127
1, 21780, Note_on_c, 1, 36, 127
1, 21794, Note_off_c, 1, 81, 0
1, 21795, Note_on_c, 1, 79, 127
1, 21809, Note_off_c, 1, 60, 0
1, 21809, Note_off_c, 1, 79, 0
1, 21810, Note_on_c, 1, 59, 127
1, 21839, Note_off_c, 1, 36, 0
1, 21839, Note_off_c, 1, 59, 0
1, 21840, Note_on_c, 1, 60, 127
1, 21840, Note_on_c, 1, 81, 127
1, 21854, Note_off_c, 1, 81, 0
1, 21855, Note_on_c, 1, 79, 127
1, 21869, Note_off_c, 1, 79, 0
1, 21870, Note_on_c, 1, 47, 127
1, 21899, Note_off_c, 1, 60, 0
1, 21899, Note_off_c, 1, 47, 0
1, 21900, Note_on_c, 1, 55, 127
1, 21900, Note_on_c, 1, 81, 127
1, 21900, Note_on_c, 1, 48, 127
1, 21914, Note_off_c, 1, 81, 0
1, 21915, Note_on_c, 1, 79, 127
1, 21929, Note_off_c, 1, 55, 0
1, 21929, Note_off_c, 1, 48, 0
1, 21929, Note_off_c, 1, 79, 0
1, 21930, Note_on_c, 1, 53, 127
1, 21930, Note_on_c, 1, 81, 127
1, 21930, Note_on_c, 1, 50, 127
1, 21944, Note_off_c, 1, 81, 0
1, 21945, Note_on_c, 1, 79, 127
1, 21959, Note_off_c, 1, 53, 0
1, 21959, Note_off_c, 1, 50, 0
1, 21959, Note_off_c, 1, 79, 0
1, 21960, Note_on_c, 1, 55, 127
1, 21960, Note_on_c, 1, 81, 127
1, 21960, Note_on_c, 1, 51, 127
1, 21974, Note_off_c, 1, 81, 0
1, 21975, Note_on_c, 1, 79, 127
1, 21989, Note_off_c, 1, 51, 0
1, 21989, Note_off_c, 1, 79, 0
1, 21990, Note_on_c, 1, 48, 127
1, 22019, Note_off_c, 1, 55, 0
1, 22019, Note_off_c, 1, 48, 0
1, 22020, Note_on_c, 1, 51, 127
1, 22020, Note_on_c, 1, 81, 127
1, 22034, Note_off_c, 1, 81, 0
1, 22035, Note_on_c, 1, 79, 127
1, 22049, Note_off_c, 1, 51, 0
1, 22049, Note_off_c, 1, 79, 0
1, 22050, Note_on_c, 1, 50, 127
1, 22050, Note_on_c, 1, 81, 127
1, 22050, Note_on_c, 1, 55, 127
1, 22064, Note_off_c, 1, 81, 0
1, 22065, Note_on_c, 1, 79, 127
1, 22079, Note_off_c, 1, 50, 0
1, 22079, Note_off_c, 1, 55, 0
1, 22079, Note_off_c, 1, 79, 0
1, 22080, Note_on_c, 1, 51, 127
1, 22080, Note_on_c, 1, 81, 127
1, 22080, Note_on_c, 1, 60, 127
1, 22094, Note_off_c, 1, 81, 0
1, 22095, Note_on_c, 1, 79, 127
1, 22109, Note_off_c, 1, 60, 0
1, 22109, Note_off_c, 1, 79, 0
1, 22110, Note_on_c, 1, 55, 127
1, 22139, Note_off_c, 1, 51, 0
1, 22139, Note_off_c, 1, 55, 0
1, 22140, Note_on_c, 1, 48, 127
1, 22140, Note_on_c, 1, 81, 127
1, 22140, Note_on_c, 1, 51, 127
1, 22154, Note_off_c, 1, 81, 0
1, 22155, Note_on_c, 1, 79, 127
1, 22169, Note_off_c, 1, 48, 0
1, 22169, Note_off_c, 1, 51, 0
1, 22169, Note_off_c, 1, 79, 0
1, 22170, Note_on_c, 1, 47, 127
1, 22170, Note_on_c, 1, 81, 127
1, 22170, Note_on_c, 1, 55, 127
1, 22184, Note_off_c, 1, 81, 0
1, 22185, Note_on_c, 1, 79, 127
1, 22199, Note_off_c, 1, 47, 0
1, 22199, Note_off_c, 1, 55, 0
1, 22199, Note_off_c, 1, 79, 0
1, 22200, Note_on_c, 1, 48, 127
1, 22200, Note_on_c, 1, 81, 127
1, 22214, Note_off_c, 1, 81, 0
1, 22215, Note_on_c, 1, 79, 127
1, 22229, Note_off_c, 1, 79, 0
1, 22230, Note_on_c, 1, 77, 127
1, 22259, Note_off_c, 1, 48, 0
1, 22259, Note_off_c, 1, 77, 0
1, 22260, Note_on_c, 1, 51, 127
1, 22260, Note_on_c, 1, 79, 127
1, 22260, Note_on_c, 1, 60, 127
1, 22289, Note_off_c, 1, 79, 0
1, 22290, Note_on_c, 1, 74, 127
1, 22319, Note_off_c, 1, 51, 0
1, 22319, Note_off_c, 1, 60, 0
1, 22319, Note_off_c, 1, 74, 0
1, 22320, Note_on_c, 1, 55, 127
1, 22320, Note_on_c, 1, 75, 127
1, 22320, Note_on_c, 1, 58, 127
1, 22349, Note_off_c, 1, 75, 0
1, 22350, Note_on_c, 1, 74, 127
1, 22379, Note_off_c, 1, 55, 0
1, 22379, Note_off_c, 1, 58, 0
1, 22379, Note_off_c, 1, 74, 0
1, 22380, Note_on_c, 1, 60, 127
1, 22380, Note_on_c, 1, 75, 127
1, 22380, Note_on_c, 1, 56, 127
1, 22409, Note_off_c, 1, 75, 0
1, 22410, Note_on_c, 1, 84, 127
1, 22439, Note_off_c, 1, 60, 0
1, 22439, Note_off_c, 1, 56, 0
1, 22439, Note_off_c, 1, 84, 0
1, 22440, Note_on_c, 1, 62, 127
1, 22440, Note_on_c, 1, 83, 127
1, 22440, Note_on_c, 1, 55, 127
1, 22469, Note_off_c, 1, 62, 0
1, 22469, Note_off_c, 1, 83, 0
1, 22470, Note_on_c, 1, 60, 127
1, 22470, Note_on_c, 1, 84, 127
1, 22499, Note_off_c, 1, 55, 0
1, 22499, Note_off_c, 1, 60, 0
1, 22499, Note_off_c, 1, 84, 0
1, 22500, Note_on_c, 1, 59, 127
1, 22500, Note_on_c, 1, 84, 127
1, 22500, Note_on_c, 1, 57, 127
1, 22509, Note_off_c, 1, 84, 0
1, 22510, Note_on_c, 1, 86, 127
1, 22519, Note_off_c, 1, 86, 0
1, 22529, Note_off_c, 1, 59, 0
1, 22530, Note_on_c, 1, 83, 127
1, 22544, Note_off_c, 1, 83, 0
1, 22559, Note_off_c, 1, 57, 0
1, 22560, Note_on_c, 1, 55, 127
1, 22560, Note_on_c, 1, 86, 127
1, 22560, Note_on_c, 1, 59, 127
1, 22589, Note_off_c, 1, 55, 0
1, 22589, Note_off_c, 1, 86, 0
1, 22590, Note_on_c, 1, 62, 127
1, 22590, Note_on_c, 1, 84, 127
1, 22619, Note_off_c, 1, 59, 0
1, 22619, Note_off_c, 1, 62, 0
1, 22619, Note_off_c, 1, 84, 0
1, 22620, Note_on_c, 1, 63, 127
1, 22620, Note_on_c, 1, 83, 127
1, 22620, Note_on_c, 1, 55, 127
1, 22649, Note_off_c, 1, 63, 0
1, 22649, Note_off_c, 1, 83, 0
1, 22650, Note_on_c, 1, 65, 127
1, 22650, Note_on_c, 1, 81, 127
1, 22679, Note_off_c, 1, 55, 0
1, 22679, Note_off_c, 1, 65, 0
1, 22679, Note_off_c, 1, 81, 0
1, 22680, Note_on_c, 1, 67, 127
1, 22680, Note_on_c, 1, 79, 127
1, 22680, Note_on_c, 1, 51, 127
1, 22709, Note_off_c, 1, 79, 0
1, 22710, Note_on_c, 1, 75, 127
1, 22724, Note_off_c, 1, 75, 0
1, 22725, Note_on_c, 1, 77, 127
1, 22739, Note_off_c, 1, 51, 0
1, 22739, Note_off_c, 1, 77, 0
1, 22740, Note_on_c, 1, 48, 127
1, 22799, Note_off_c, 1, 48, 0
1, 22860, Note_on_c, 1, 72, 127
1, 22889, Note_off_c, 1, 72, 0
1, 22919, Note_off_c, 1, 67, 0
1, 22920, Note_on_c, 1, 68, 127
1, 22920, Note_on_c, 1, 48, 127
1, 22949, Note_off_c, 1, 68, 0
1, 22950, Note_on_c, 1, 60, 127
1, 22950, Note_on_c, 1, 74, 127
1, 22964, Note_off_c, 1, 74, 0
1, 22965, Note_on_c, 1, 75, 127
1, 22979, Note_off_c, 1, 48, 0
1, 22979, Note_off_c, 1, 60, 0
1, 22979, Note_off_c, 1, 75, 0
1, 22980, Note_on_c, 1, 59, 127
1, 22980, Note_on_c, 1, 77, 127
1, 22980, Note_on_c, 1, 44, 127
1, 23009, Note_off_c, 1, 59, 0
1, 23009, Note_off_c, 1, 77, 0
1, 23010, Note_on_c, 1, 60, 127
1, 23010, Note_on_c, 1, 74, 127
1, 23024, Note_off_c, 1, 74, 0
1, 23025, Note_on_c, 1, 75, 127
1, 23039, Note_off_c, 1, 44, 0
1, 23039, Note_off_c, 1, 60, 0
1, 23039, Note_off_c, 1, 75, 0
1, 23040, Note_on_c, 1, 65, 127
1, 23040, Note_on_c, 1, 77, 127
1, 23069, Note_off_c, 1, 77, 0
1, 23070, Note_on_c, 1, 74, 127
1, 23099, Note_off_c, 1, 74, 0
1, 23100, Note_on_c, 1, 71, 127
1, 23100, Note_on_c, 1, 50, 127
1, 23129, Note_off_c, 1, 71, 0
1, 23159, Note_off_c, 1, 50, 0
1, 23160, Note_on_c, 1, 67, 127
1, 23160, Note_on_c, 1, 47, 127
1, 23189, Note_off_c, 1, 65, 0
1, 23189, Note_off_c, 1, 67, 0
1, 23190, Note_on_c, 1, 59, 127
1, 23190, Note_on_c, 1, 72, 127
1, 23204, Note_off_c, 1, 72, 0
1, 23219, Note_off_c, 1, 47, 0
1, 23219, Note_off_c, 1, 59, 0
1, 23220, Note_on_c, 1, 57, 127
1, 23220, Note_on_c, 1, 75, 127
1, 23220, Note_on_c, 1, 43, 127
1, 23249, Note_off_c, 1, 57, 0
1, 23249, Note_off_c, 1, 75, 0
1, 23250, Note_on_c, 1, 59, 127
1, 23250, Note_on_c, 1, 72, 127
1, 23264, Note_off_c, 1, 72, 0
1, 23265, Note_on_c, 1, 74, 127
1, 23279, Note_off_c, 1, 43, 0
1, 23279, Note_off_c, 1, 59, 0
1, 23279, Note_off_c, 1, 74, 0
1, 23280, Note_on_c, 1, 63, 127
1, 23280, Note_on_c, 1, 75, 127
1, 23309, Note_off_c, 1, 75, 0
1, 23310, Note_on_c, 1, 72, 127
1, 23339, Note_off_c, 1, 72, 0
1, 23340, Note_on_c, 1, 68, 127
1, 23340, Note_on_c, 1, 48, 127
1, 23369, Note_off_c, 1, 68, 0
1, 23399, Note_off_c, 1, 48, 0
1, 23400, Note_on_c, 1, 65, 127
1, 23400, Note_on_c, 1, 44, 127
1, 23429, Note_off_c, 1, 63, 0
1, 23429, Note_off_c, 1, 65, 0
1, 23430, Note_on_c, 1, 56, 127
1, 23430, Note_on_c, 1, 71, 127
1, 23444, Note_off_c, 1, 71, 0
1, 23459, Note_off_c, 1, 44, 0
1, 23459, Note_off_c, 1, 56, 0
1, 23460, Note_on_c, 1, 55, 127
1, 23460, Note_on_c, 1, 74, 127
1, 23460, Note_on_c, 1, 41, 127
1, 23489, Note_off_c, 1, 55, 0
1, 23489, Note_off_c, 1, 74, 0
1, 23490, Note_on_c, 1, 53, 127
1, 23490, Note_on_c, 1, 71, 127
1, 23504, Note_off_c, 1, 71, 0
1, 23505, Note_on_c, 1, 72, 127
1, 23519, Note_off_c, 1, 41, 0
1, 23519, Note_off_c, 1, 53, 0
1, 23519, Note_off_c, 1, 72, 0
1, 23520, Note_on_c, 1, 62, 127
1, 23520, Note_on_c, 1, 74, 127
1, 23520, Note_on_c, 1, 35, 127
1, 23549, Note_off_c, 1, 74, 0
1, 23550, Note_on_c, 1, 71, 127
1, 23579, Note_off_c, 1, 35, 0
1, 23579, Note_off_c, 1, 71, 0
1, 23580, Note_on_c, 1, 67, 127
1, 23580, Note_on_c, 1, 47, 127
1, 23609, Note_off_c, 1, 67, 0
1, 23610, Note_on_c, 1, 65, 127
1, 23639, Note_off_c, 1, 47, 0
1, 23639, Note_off_c, 1, 65, 0
1, 23640, Note_on_c, 1, 63, 127
1, 23640, Note_on_c, 1, 48, 127
1, 23669, Note_off_c, 1, 62, 0
1, 23670, Note_on_c, 1, 60, 127
1, 23684, Note_off_c, 1, 60, 0
1, 23699, Note_off_c, 1, 63, 0
1, 23699, Note_off_c, 1, 48, 0
1, 23700, Note_on_c, 1, 63, 127
1, 23700, Note_on_c, 1, 67, 127
1, 23700, Note_on_c, 1, 36, 127
1, 23729, Note_off_c, 1, 63, 0
1, 23730, Note_on_c, 1, 60, 127
1, 23744, Note_off_c, 1, 60, 0
1, 23745, Note_on_c, 1, 62, 127
1, 23759, Note_off_c, 1, 67, 0
1, 23759, Note_off_c, 1, 36, 0
1, 23759, Note_off_c, 1, 62, 0
1, 23760, Note_on_c, 1, 63, 127
1, 23760, Note_on_c, 1, 72, 127
1, 23789, Note_off_c, 1, 63, 0
1, 23790, Note_on_c, 1, 60, 127
1, 23819, Note_off_c, 1, 60, 0
1, 23820, Note_on_c, 1, 55, 127
1, 23820, Note_on_c, 1, 48, 127
1, 23849, Note_off_c, 1, 55, 0
1, 23850, Note_on_c, 1, 58, 127
1, 23879, Note_off_c, 1, 48, 0
1, 23879, Note_off_c, 1, 58, 0
1, 23880, Note_on_c, 1, 56, 127
1, 23880, Note_on_c, 1, 53, 127
1, 23909, Note_off_c, 1, 72, 0
1, 23909, Note_off_c, 1, 56, 0
1, 23910, Note_on_c, 1, 62, 127
1, 23910, Note_on_c, 1, 74, 127
1, 23924, Note_off_c, 1, 62, 0
1, 23924, Note_off_c, 1, 74, 0
1, 23939, Note_off_c, 1, 53, 0
1, 23940, Note_on_c, 1, 65, 127
1, 23940, Note_on_c, 1, 71, 127
1, 23940, Note_on_c, 1, 56, 127
1, 23969, Note_off_c, 1, 65, 0
1, 23969, Note_off_c, 1, 71, 0
1, 23970, Note_on_c, 1, 62, 127
1, 23970, Note_on_c, 1, 72, 127
1, 23984, Note_off_c, 1, 62, 0
1, 23985, Note_on_c, 1, 63, 127
1, 23999, Note_off_c, 1, 56, 0
1, 23999, Note_off_c, 1, 72, 0
1, 23999, Note_off_c, 1, 63, 0
1, 24000, Note_on_c, 1, 65, 127
1, 24000, Note_on_c, 1, 72, 127
1, 24000, Note_on_c, 1, 50, 127
1, 24029, Note_off_c, 1, 65, 0
1, 24029, Note_off_c, 1, 72, 0
1, 24030, Note_on_c, 1, 62, 127
1, 24030, Note_on_c, 1, 74, 127
1, 24059, Note_off_c, 1, 50, 0
1, 24059, Note_off_c, 1, 62, 0
1, 24060, Note_on_c, 1, 57, 127
1, 24060, Note_on_c, 1, 53, 127
1, 24089, Note_off_c, 1, 57, 0
1, 24090, Note_on_c, 1, 60, 127
1, 24119, Note_off_c, 1, 53, 0
1, 24119, Note_off_c, 1, 60, 0
1, 24120, Note_on_c, 1, 59, 127
1, 24120, Note_on_c, 1, 55, 127
1, 24149, Note_off_c, 1, 74, 0
1, 24149, Note_off_c, 1, 59, 0
1, 24150, Note_on_c, 1, 63, 127
1, 24150, Note_on_c, 1, 75, 127
1, 24164, Note_off_c, 1, 63, 0
1, 24164, Note_off_c, 1, 75, 0
1, 24179, Note_off_c, 1, 55, 0
1, 24180, Note_on_c, 1, 67, 127
1, 24180, Note_on_c, 1, 72, 127
1, 24180, Note_on_c, 1, 59, 127
1, 24209, Note_off_c, 1, 67, 0
1, 24209, Note_off_c, 1, 72, 0
1, 24210, Note_on_c, 1, 63, 127
1, 24210, Note_on_c, 1, 74, 127
1, 24224, Note_off_c, 1, 63, 0
1, 24225, Note_on_c, 1, 65, 127
1, 24239, Note_off_c, 1, 59, 0
1, 24239, Note_off_c, 1, 74, 0
1, 24239, Note_off_c, 1, 65, 0
1, 24240, Note_on_c, 1, 67, 127
1, 24240, Note_on_c, 1, 74, 127
1, 24240, Note_on_c, 1, 51, 127
1, 24269, Note_off_c, 1, 67, 0
1, 24269, Note_off_c, 1, 74, 0
1, 24270, Note_on_c, 1, 63, 127
1, 24270, Note_on_c, 1, 75, 127
1, 24299, Note_off_c, 1, 51, 0
1, 24299, Note_off_c, 1, 63, 0
1, 24300, Note_on_c, 1, 59, 127
1, 24300, Note_on_c, 1, 55, 127
1, 24329, Note_off_c, 1, 59, 0
1, 24330, Note_on_c, 1, 62, 127
1, 24359, Note_off_c, 1, 55, 0
1, 24359, Note_off_c, 1, 62, 0
1, 24360, Note_on_c, 1, 60, 127
1, 24360, Note_on_c, 1, 56, 127
1, 24389, Note_off_c, 1, 75, 0
1, 24389, Note_off_c, 1, 60, 0
1, 24390, Note_on_c, 1, 65, 127
1, 24390, Note_on_c, 1, 77, 127
1, 24404, Note_off_c, 1, 65, 0
1, 24404, Note_off_c, 1, 77, 0
1, 24419, Note_off_c, 1, 56, 0
1, 24420, Note_on_c, 1, 68, 127
1, 24420, Note_on_c, 1, 74, 127
1, 24420, Note_on_c, 1, 60, 127
1, 24449, Note_off_c, 1, 68, 0
1, 24449, Note_off_c, 1, 74, 0
1, 24450, Note_on_c, 1, 65, 127
1, 24450, Note_on_c, 1, 75, 127
1, 24464, Note_off_c, 1, 65, 0
1, 24465, Note_on_c, 1, 67, 127
1, 24479, Note_off_c, 1, 60, 0
1, 24479, Note_off_c, 1, 75, 0
1, 24479, Note_off_c, 1, 67, 0
1, 24480, Note_on_c, 1, 68, 127
1, 24480, Note_on_c, 1, 75, 127
1, 24480, Note_on_c, 1, 53, 127
1, 24509, Note_off_c, 1, 68, 0
1, 24509, Note_off_c, 1, 75, 0
1, 24510, Note_on_c, 1, 65, 127
1, 24510, Note_on_c, 1, 77, 127
1, 24539, Note_off_c, 1, 53, 0
1, 24539, Note_off_c, 1, 65, 0
1, 24540, Note_on_c, 1, 60, 127
1, 24540, Note_on_c, 1, 56, 127
1, 24569, Note_off_c, 1, 60, 0
1, 24570, Note_on_c, 1, 63, 127
1, 24599, Note_off_c, 1, 56, 0
1, 24599, Note_off_c, 1, 63, 0
1, 24600, Note_on_c, 1, 62, 127
1, 24600, Note_on_c, 1, 47, 127
1, 24629, Note_off_c, 1, 77, 0
1, 24629, Note_off_c, 1, 62, 0
1, 24630, Note_on_c, 1, 59, 127
1, 24630, Note_on_c, 1, 74, 127
1, 24644, Note_off_c, 1, 59, 0
1, 24644, Note_off_c, 1, 74, 0
1, 24719, Note_off_c, 1, 47, 0
1, 24720, Note_on_c, 1, 62, 127
1, 24720, Note_on_c, 1, 77, 127
1, 24749, Note_off_c, 1, 62, 0
1, 24749, Note_off_c, 1, 77, 0
1, 24750, Note_on_c, 1, 59, 127
1, 24750, Note_on_c, 1, 74, 127
1, 24779, Note_off_c, 1, 59, 0
1, 24779, Note_off_c, 1, 74, 0
1, 24780, Note_on_c, 1, 55, 127
1, 24780, Note_on_c, 1, 79, 127
1, 24780, Note_on_c, 1, 53, 127
1, 24809, Note_off_c, 1, 55, 0
1, 24810, Note_on_c, 1, 59, 127
1, 24839, Note_off_c, 1, 53, 0
1, 24839, Note_off_c, 1, 59, 0
1, 24840, Note_on_c, 1, 60, 127
1, 24840, Note_on_c, 1, 51, 127
1, 24869, Note_off_c, 1, 60, 0
1, 24869, Note_off_c, 1, 51, 0
1, 24870, Note_on_c, 1, 50, 127
1, 24899, Note_off_c, 1, 50, 0
1, 24929, Note_off_c, 1, 79, 0
1, 24930, Note_on_c, 1, 68, 127
1, 24930, Note_on_c, 1, 80, 127
1, 24930, Note_on_c, 1, 53, 127
1, 24959, Note_off_c, 1, 68, 0
1, 24959, Note_off_c, 1, 80, 0
1, 24959, Note_off_c, 1, 53, 0
1, 24960, Note_on_c, 1, 59, 127
1, 24960, Note_on_c, 1, 74, 127
1, 24960, Note_on_c, 1, 55, 127
1, 24974, Note_off_c, 1, 74, 0
1, 24975, Note_on_c, 1, 72, 127
1, 24989, Note_off_c, 1, 72, 0
1, 25019, Note_off_c, 1, 55, 0
1, 25020, Note_on_c, 1, 43, 127
1, 25049, Note_off_c, 1, 59, 0
1, 25050, Note_on_c, 1, 60, 127
1, 25079, Note_off_c, 1, 43, 0
1, 25079, Note_off_c, 1, 60, 0
1, 25080, Note_on_c, 1, 60, 127
1, 25080, Note_on_c, 1, 72, 127
1, 25080, Note_on_c, 1, 48, 127
1, 25109, Note_off_c, 1, 72, 0
1, 25110, Note_on_c, 1, 75, 127
1, 25139, Note_off_c, 1, 60, 0
1, 25139, Note_off_c, 1, 75, 0
1, 25140, Note_on_c, 1, 62, 127
1, 25140, Note_on_c, 1, 79, 127
1, 25154, Note_off_c, 1, 62, 0
1, 25155, Note_on_c, 1, 63, 127
1, 25169, Note_off_c, 1, 79, 0
1, 25169, Note_off_c, 1, 63, 0
1, 25170, Note_on_c, 1, 65, 127
1, 25170, Note_on_c, 1, 71, 127
1, 25199, Note_off_c, 1, 48, 0
1, 25199, Note_off_c, 1, 65, 0
1, 25199, Note_off_c, 1, 71, 0
1, 25200, Note_on_c, 1, 63, 127
1, 25200, Note_on_c, 1, 72, 127
1, 25229, Note_off_c, 1, 72, 0
1, 25230, Note_on_c, 1, 75, 127
1, 25259, Note_off_c, 1, 63, 0
1, 25259, Note_off_c, 1, 75, 0
1, 25260, Note_on_c, 1, 62, 127
1, 25260, Note_on_c, 1, 79, 127
1, 25260, Note_on_c, 1, 43, 127
1, 25274, Note_off_c, 1, 62, 0
1, 25275, Note_on_c, 1, 63, 127
1, 25289, Note_off_c, 1, 79, 0
1, 25289, Note_off_c, 1, 63, 0
1, 25290, Note_on_c, 1, 65, 127
1, 25290, Note_on_c, 1, 71, 127
1, 25319, Note_off_c, 1, 43, 0
1, 25319, Note_off_c, 1, 65, 0
1, 25319, Note_off_c, 1, 71, 0
1, 25320, Note_on_c, 1, 63, 127
1, 25320, Note_on_c, 1, 72, 127
1, 25320, Note_on_c, 1, 48, 127
1, 25349, Note_off_c, 1, 72, 0
1, 25350, Note_on_c, 1, 75, 127
1, 25379, Note_off_c, 1, 63, 0
1, 25379, Note_off_c, 1, 48, 0
1, 25379, Note_off_c, 1, 75, 0
1, 25380, Note_on_c, 1, 55, 127
1, 25380, Note_on_c, 1, 79, 127
1, 25380, Note_on_c, 1, 60, 127
1, 25409, Note_off_c, 1, 55, 0
1, 25409, Note_off_c, 1, 79, 0
1, 25409, Note_off_c, 1, 60, 0
1, 25410, Note_on_c, 1, 63, 127
1, 25410, Note_on_c, 1, 72, 127
1, 25410, Note_on_c, 1, 58, 127
1, 25439, Note_off_c, 1, 63, 0
1, 25439, Note_off_c, 1, 72, 0
1, 25439, Note_off_c, 1, 58, 0
1, 25440, Note_on_c, 1, 56, 127
1, 25440, Note_on_c, 1, 84, 127
1, 25469, Note_off_c, 1, 56, 0
1, 25470, Note_on_c, 1, 65, 127
1, 25470, Note_on_c, 1, 55, 127
1, 25499, Note_off_c, 1, 65, 0
1, 25499, Note_off_c, 1, 55, 0
1, 25500, Note_on_c, 1, 58, 127
1, 25500, Note_on_c, 1, 53, 127
1, 25529, Note_off_c, 1, 58, 0
1, 25529, Note_off_c, 1, 53, 0
1, 25530, Note_on_c, 1, 67, 127
1, 25530, Note_on_c, 1, 52, 127
1, 25559, Note_off_c, 1, 67, 0
1, 25559, Note_off_c, 1, 52, 0
1, 25560, Note_on_c, 1, 68, 127
1, 25589, Note_off_c, 1, 84, 0
1, 25590, Note_on_c, 1, 82, 127
1, 25619, Note_off_c, 1, 68, 0
1, 25619, Note_off_c, 1, 82, 0
1, 25620, Note_on_c, 1, 60, 127
1, 25620, Note_on_c, 1, 80, 127
1, 25634, Note_off_c, 1, 60, 0
1, 25635, Note_on_c, 1, 62, 127
1, 25649, Note_off_c, 1, 80, 0
1, 25649, Note_off_c, 1, 62, 0
1, 25650, Note_on_c, 1, 63, 127
1, 25650, Note_on_c, 1, 79, 127
1, 25679, Note_off_c, 1, 63, 0
1, 25679, Note_off_c, 1, 79, 0
1, 25680, Note_on_c, 1, 62, 127
1, 25680, Note_on_c, 1, 77, 127
1, 25709, Note_off_c, 1, 77, 0
1, 25710, Note_on_c, 1, 79, 127
1, 25739, Note_off_c, 1, 62, 0
1, 25739, Note_off_c, 1, 79, 0
1, 25740, Note_on_c, 1, 60, 127
1, 25740, Note_on_c, 1, 80, 127
1, 25740, Note_on_c, 1, 41, 127
1, 25754, Note_off_c, 1, 60, 0
1, 25755, Note_on_c, 1, 62, 127
1, 25769, Note_off_c, 1, 62, 0
1, 25770, Note_on_c, 1, 63, 127
1, 25799, Note_off_c, 1, 41, 0
1, 25799, Note_off_c, 1, 63, 0
1, 25800, Note_on_c, 1, 46, 127
1, 25829, Note_off_c, 1, 80, 0
1, 25830, Note_on_c, 1, 74, 127
1, 25859, Note_off_c, 1, 46, 0
1, 25859, Note_off_c, 1, 74, 0
1, 25860, Note_on_c, 1, 53, 127
1, 25860, Note_on_c, 1, 77, 127
1, 25860, Note_on_c, 1, 58, 127
1, 25889, Note_off_c, 1, 53, 0
1, 25889, Note_off_c, 1, 77, 0
1, 25889, Note_off_c, 1, 58, 0
1, 25890, Note_on_c, 1, 62, 127
1, 25890, Note_on_c, 1, 70, 127
1, 25890, Note_on_c, 1, 56, 127
1, 25919, Note_off_c, 1, 62, 0
1, 25919, Note_off_c, 1, 70, 0
1, 25919, Note_off_c, 1, 56, 0
1, 25920, Note_on_c, 1, 55, 127
1, 25920, Note_on_c, 1, 82, 127
1, 25949, Note_off_c, 1, 55, 0
1, 25950, Note_on_c, 1, 63, 127
1, 25950, Note_on_c, 1, 53, 127
1, 25979, Note_off_c, 1, 63, 0
1, 25979, Note_off_c, 1, 53, 0
1, 25980, Note_on_c, 1, 56, 127
1, 25980, Note_on_c, 1, 51, 127
1, 26009, Note_off_c, 1, 56, 0
1, 26009, Note_off_c, 1, 51, 0
1, 26010, Note_on_c, 1, 65, 127
1, 26010, Note_on_c, 1, 50, 127
1, 26039, Note_off_c, 1, 65, 0
1, 26039, Note_off_c, 1, 50, 0
1, 26040, Note_on_c, 1, 67, 127
1, 26069, Note_off_c, 1, 82, 0
1, 26070, Note_on_c, 1, 80, 127
1, 26099, Note_off_c, 1, 67, 0
1, 26099, Note_off_c, 1, 80, 0
1, 26100, Note_on_c, 1, 58, 127
1, 26100, Note_on_c, 1, 79, 127
1, 26114, Note_off_c, 1, 58, 0
1, 26115, Note_on_c, 1, 60, 127
1, 26129, Note_off_c, 1, 79, 0
1, 26129, Note_off_c, 1, 60, 0
1, 26130, Note_on_c, 1, 61, 127
1, 26130, Note_on_c, 1, 77, 127
1, 26159, Note_off_c, 1, 61, 0
1, 26159, Note_off_c, 1, 77, 0
1, 26160, Note_on_c, 1, 60, 127
1, 26160, Note_on_c, 1, 75, 127
1, 26189, Note_off_c, 1, 75, 0
1, 26190, Note_on_c, 1, 77, 127
1, 26219, Note_off_c, 1, 60, 0
1, 26219, Note_off_c, 1, 77, 0
1, 26220, Note_on_c, 1, 58, 127
1, 26220, Note_on_c, 1, 79, 127
1, 26220, Note_on_c, 1, 39, 127
1, 26234, Note_off_c, 1, 58, 0
1, 26235, Note_on_c, 1, 60, 127
1, 26249, Note_off_c, 1, 60, 0
1, 26250, Note_on_c, 1, 61, 127
1, 26279, Note_off_c, 1, 39, 0
1, 26279, Note_off_c, 1, 61, 0
1, 26280, Note_on_c, 1, 44, 127
1, 26309, Note_off_c, 1, 79, 0
1, 26310, Note_on_c, 1, 72, 127
1, 26339, Note_off_c, 1, 44, 0
1, 26339, Note_off_c, 1, 72, 0
1, 26340, Note_on_c, 1, 60, 127
1, 26340, Note_on_c, 1, 75, 127
1, 26340, Note_on_c, 1, 56, 127
1, 26369, Note_off_c, 1, 60, 0
1, 26369, Note_off_c, 1, 75, 0
1, 26369, Note_off_c, 1, 56, 0
1, 26370, Note_on_c, 1, 68, 127
1, 26370, Note_on_c, 1, 55, 127
1, 26399, Note_off_c, 1, 68, 0
1, 26399, Note_off_c, 1, 55, 0
1, 26400, Note_on_c, 1, 62, 127
1, 26400, Note_on_c, 1, 80, 127
1, 26400, Note_on_c, 1, 53, 127
1, 26429, Note_off_c, 1, 62, 0
1, 26429, Note_off_c, 1, 80, 0
1, 26430, Note_on_c, 1, 68, 127
1, 26430, Note_on_c, 1, 74, 127
1, 26459, Note_off_c, 1, 53, 0
1, 26459, Note_off_c, 1, 68, 0
1, 26459, Note_off_c, 1, 74, 0
1, 26460, Note_on_c, 1, 67, 127
1, 26460, Note_on_c, 1, 75, 127
1, 26460, Note_on_c, 1, 51, 127
1, 26489, Note_off_c, 1, 67, 0
1, 26489, Note_off_c, 1, 75, 0
1, 26490, Note_on_c, 1, 63, 127
1, 26490, Note_on_c, 1, 72, 127
1, 26519, Note_off_c, 1, 51, 0
1, 26519, Note_off_c, 1, 63, 0
1, 26519, Note_off_c, 1, 72, 0
1, 26520, Note_on_c, 1, 65, 127
1, 26520, Note_on_c, 1, 74, 127
1, 26520, Note_on_c, 1, 58, 127
1, 26549, Note_off_c, 1, 65, 0
1, 26549, Note_off_c, 1, 74, 0
1, 26550, Note_on_c, 1, 63, 127
1, 26550, Note_on_c, 1, 75, 127
1, 26579, Note_off_c, 1, 58, 0
1, 26579, Note_off_c, 1, 63, 0
1, 26579, Note_off_c, 1, 75, 0
1, 26580, Note_on_c, 1, 62, 127
1, 26580, Note_on_c, 1, 77, 127
1, 26580, Note_on_c, 1, 56, 127
1, 26609, Note_off_c, 1, 62, 0
1, 26609, Note_off_c, 1, 77, 0
1, 26609, Note_off_c, 1, 56, 0
1, 26610, Note_on_c, 1, 63, 127
1, 26610, Note_on_c, 1, 79, 127
1, 26610, Note_on_c, 1, 55, 127
1, 26639, Note_off_c, 1, 63, 0
1, 26639, Note_off_c, 1, 79, 0
1, 26639, Note_off_c, 1, 55, 0
1, 26640, Note_on_c, 1, 65, 127
1, 26640, Note_on_c, 1, 80, 127
1, 26640, Note_on_c, 1, 53, 127
1, 26669, Note_off_c, 1, 80, 0
1, 26670, Note_on_c, 1, 77, 127
1, 26699, Note_off_c, 1, 53, 0
1, 26699, Note_off_c, 1, 77, 0
1, 26700, Note_on_c, 1, 74, 127
1, 26700, Note_on_c, 1, 55, 127
1, 26729, Note_off_c, 1, 74, 0
1, 26759, Note_off_c, 1, 55, 0
1, 26760, Note_on_c, 1, 70, 127
1, 26760, Note_on_c, 1, 56, 127
1, 26789, Note_off_c, 1, 65, 0
1, 26789, Note_off_c, 1, 70, 0
1, 26790, Note_on_c, 1, 63, 127
1, 26790, Note_on_c, 1, 72, 127
1, 26819, Note_off_c, 1, 56, 0
1, 26819, Note_off_c, 1, 63, 0
1, 26819, Note_off_c, 1, 72, 0
1, 26820, Note_on_c, 1, 65, 127
1, 26820, Note_on_c, 1, 74, 127
1, 26820, Note_on_c, 1, 56, 127
1, 26849, Note_off_c, 1, 65, 0
1, 26849, Note_off_c, 1, 74, 0
1, 26850, Note_on_c, 1, 67, 127
1, 26850, Note_on_c, 1, 75, 127
1, 26879, Note_off_c, 1, 56, 0
1, 26879, Note_off_c, 1, 67, 0
1, 26879, Note_off_c, 1, 75, 0
1, 26880, Note_on_c, 1, 68, 127
1, 26880, Note_on_c, 1, 77, 127
1, 26880, Note_on_c, 1, 56, 127
1, 26909, Note_off_c, 1, 68, 0
1, 26909, Note_off_c, 1, 77, 0
1, 26910, Note_on_c, 1, 70, 127
1, 26910, Note_on_c, 1, 74, 127
1, 26939, Note_off_c, 1, 56, 0
1, 26939, Note_off_c, 1, 70, 0
1, 26939, Note_off_c, 1, 74, 0
1, 26940, Note_on_c, 1, 67, 127
1, 26940, Note_on_c, 1, 70, 127
1, 26940, Note_on_c, 1, 56, 127
1, 26969, Note_off_c, 1, 67, 0
1, 26969, Note_off_c, 1, 70, 0
1, 26970, Note_on_c, 1, 68, 127
1, 26970, Note_on_c, 1, 74, 127
1, 26999, Note_off_c, 1, 56, 0
1, 26999, Note_off_c, 1, 68, 0
1, 26999, Note_off_c, 1, 74, 0
1, 27000, Note_on_c, 1, 70, 127
1, 27000, Note_on_c, 1, 75, 127
1, 27000, Note_on_c, 1, 55, 127
1, 27029, Note_off_c, 1, 70, 0
1, 27030, Note_on_c, 1, 62, 127
1, 27059, Note_off_c, 1, 75, 0
1, 27059, Note_off_c, 1, 55, 0
1, 27059, Note_off_c, 1, 62, 0
1, 27060, Note_on_c, 1, 63, 127
1, 27060, Note_on_c, 1, 82, 127
1, 27060, Note_on_c, 1, 55, 127
1, 27089, Note_off_c, 1, 82, 0
1, 27089, Note_off_c, 1, 55, 0
1, 27090, Note_on_c, 1, 74, 127
1, 27090, Note_on_c, 1, 53, 127
1, 27119, Note_off_c, 1, 74, 0
1, 27119, Note_off_c, 1, 53, 0
1, 27149, Note_off_c, 1, 63, 0
1, 27150, Note_on_c, 1, 70, 127
1, 27150, Note_on_c, 1, 75, 127
1, 27179, Note_off_c, 1, 70, 0
1, 27180, Note_on_c, 1, 67, 127
1, 27180, Note_on_c, 1, 51, 127
1, 27209, Note_off_c, 1, 67, 0
1, 27239, Note_off_c, 1, 51, 0
1, 27240, Note_on_c, 1, 72, 127
1, 27240, Note_on_c, 1, 56, 127
1, 27270, Note_off_c, 1, 72, 0
1, 27270, Note_on_c, 1, 62, 127
1, 27299, Note_off_c, 1, 75, 0
1, 27299, Note_off_c, 1, 56, 0
1, 27299, Note_off_c, 1, 62, 0
1, 27300, Note_on_c, 1, 63, 127
1, 27300, Note_on_c, 1, 84, 127
1, 27300, Note_on_c, 1, 44, 127
1, 27329, Note_off_c, 1, 84, 0
1, 27330, Note_on_c, 1, 74, 127
1, 27359, Note_off_c, 1, 44, 0
1, 27359, Note_off_c, 1, 74, 0
1, 27360, Note_on_c, 1, 56, 127
1, 27389, Note_off_c, 1, 63, 0
1, 27390, Note_on_c, 1, 72, 127
1, 27390, Note_on_c, 1, 75, 127
1, 27419, Note_off_c, 1, 56, 0
1, 27419, Note_off_c, 1, 72, 0
1, 27420, Note_on_c, 1, 68, 127
1, 27420, Note_on_c, 1, 53, 127
1, 27449, Note_off_c, 1, 68, 0
1, 27450, Note_on_c, 1, 65, 127
1, 27479, Note_off_c, 1, 53, 0
1, 27479, Note_off_c, 1, 65, 0
1, 27480, Note_on_c, 1, 70, 127
1, 27480, Note_on_c, 1, 55, 127
1, 27509, Note_off_c, 1, 70, 0
1, 27510, Note_on_c, 1, 62, 127
1, 27539, Note_off_c, 1, 75, 0
1, 27539, Note_off_c, 1, 55, 0
1, 27539, Note_off_c, 1, 62, 0
1, 27540, Note_on_c, 1, 63, 127
1, 27540, Note_on_c, 1, 82, 127
1, 27540, Note_on_c, 1, 51, 127
1, 27569, Note_off_c, 1, 63, 0
1, 27569, Note_off_c, 1, 82, 0
1, 27570, Note_on_c, 1, 67, 127
1, 27570, Note_on_c, 1, 74, 127
1, 27599, Note_off_c, 1, 51, 0
1, 27599, Note_off_c, 1, 67, 0
1, 27599, Note_off_c, 1, 74, 0
1, 27600, Note_on_c, 1, 72, 127
1, 27600, Note_on_c, 1, 74, 127
1, 27600, Note_on_c, 1, 56, 127
1, 27629, Note_off_c, 1, 72, 0
1, 27629, Note_off_c, 1, 74, 0
1, 27630, Note_on_c, 1, 62, 127
1, 27630, Note_on_c, 1, 75, 127
1, 27659, Note_off_c, 1, 56, 0
1, 27659, Note_off_c, 1, 62, 0
1, 27659, Note_off_c, 1, 75, 0
1, 27660, Note_on_c, 1, 63, 127
1, 27660, Note_on_c, 1, 84, 127
1, 27660, Note_on_c, 1, 53, 127
1, 27689, Note_off_c, 1, 63, 0
1, 27689, Note_off_c, 1, 84, 0
1, 27690, Note_on_c, 1, 72, 127
1, 27690, Note_on_c, 1, 74, 127
1, 27719, Note_off_c, 1, 53, 0
1, 27719, Note_off_c, 1, 72, 0
1, 27719, Note_off_c, 1, 74, 0
1, 27720, Note_on_c, 1, 70, 127
1, 27720, Note_on_c, 1, 75, 127
1, 27720, Note_on_c, 1, 55, 127
1, 27749, Note_off_c, 1, 75, 0
1, 27750, Note_on_c, 1, 80, 127
1, 27779, Note_off_c, 1, 55, 0
1, 27779, Note_off_c, 1, 80, 0
1, 27780, Note_off_c, 1, 70, 0
1, 27780, Note_on_c, 1, 63, 127
1, 27780, Note_on_c, 1, 79, 127
1, 27780, Note_on_c, 1, 56, 127
1, 27809, Note_off_c, 1, 79, 0
1, 27810, Note_on_c, 1, 77, 127
1, 27839, Note_off_c, 1, 56, 0
1, 27839, Note_off_c, 1, 77, 0
1, 27840, Note_off_c, 1, 63, 0
1, 27840, Note_on_c, 1, 58, 127
1, 27900, Note_off_c, 1, 58, 0
1, 27900, Note_on_c, 1, 65, 127
1, 27900, Note_on_c, 1, 46, 127
1, 27959, Note_off_c, 1, 65, 0
1, 27959, Note_off_c, 1, 46, 0
1, 27960, Note_on_c, 1, 51, 127
1, 27960, Note_on_c, 1, 75, 127
1, 27960, Note_on_c, 1, 39, 127
1, 27989, Note_off_c, 1, 51, 0
1, 27990, Note_on_c, 1, 55, 127
1, 28019, Note_off_c, 1, 75, 0
1, 28019, Note_off_c, 1, 55, 0
1, 28020, Note_on_c, 1, 58, 127
1, 28020, Note_on_c, 1, 77, 127
1, 28034, Note_off_c, 1, 77, 0
1, 28035, Note_on_c, 1, 79, 127
1, 28049, Note_off_c, 1, 58, 0
1, 28049, Note_off_c, 1, 79, 0
1, 28050, Note_on_c, 1, 50, 127
1, 28050, Note_on_c, 1, 80, 127
1, 28079, Note_off_c, 1, 39, 0
1, 28079, Note_off_c, 1, 50, 0
1, 28079, Note_off_c, 1, 80, 0
1, 28080, Note_on_c, 1, 51, 127
1, 28080, Note_on_c, 1, 79, 127
1, 28109, Note_off_c, 1, 51, 0
1, 28110, Note_on_c, 1, 55, 127
1, 28139, Note_off_c, 1, 79, 0
1, 28139, Note_off_c, 1, 55, 0
1, 28140, Note_on_c, 1, 58, 127
1, 28140, Note_on_c, 1, 77, 127
1, 28140, Note_on_c, 1, 34, 127
1, 28154, Note_off_c, 1, 77, 0
1, 28155, Note_on_c, 1, 79, 127
1, 28169, Note_off_c, 1, 58, 0
1, 28169, Note_off_c, 1, 79, 0
1, 28170, Note_on_c, 1, 50, 127
1, 28170, Note_on_c, 1, 80, 127
1, 28199, Note_off_c, 1, 34, 0
1, 28199, Note_off_c, 1, 50, 0
1, 28199, Note_off_c, 1, 80, 0
1, 28200, Note_on_c, 1, 51, 127
1, 28200, Note_on_c, 1, 79, 127
1, 28200, Note_on_c, 1, 39, 127
1, 28229, Note_off_c, 1, 51, 0
1, 28230, Note_on_c, 1, 55, 127
1, 28259, Note_off_c, 1, 79, 0
1, 28259, Note_off_c, 1, 39, 0
1, 28259, Note_off_c, 1, 55, 0
1, 28260, Note_on_c, 1, 58, 127
1, 28260, Note_on_c, 1, 70, 127
1, 28260, Note_on_c, 1, 51, 127
1, 28289, Note_off_c, 1, 58, 0
1, 28289, Note_off_c, 1, 70, 0
1, 28289, Note_off_c, 1, 51, 0
1, 28290, Note_on_c, 1, 51, 127
1, 28290, Note_on_c, 1, 79, 127
1, 28290, Note_on_c, 1, 49, 127
1, 28319, Note_off_c, 1, 51, 0
1, 28319, Note_off_c, 1, 79, 0
1, 28319, Note_off_c, 1, 49, 0
1, 28320, Note_on_c, 1, 63, 127
1, 28320, Note_on_c, 1, 72, 127
1, 28320, Note_on_c, 1, 48, 127
1, 28349, Note_off_c, 1, 72, 0
1, 28349, Note_off_c, 1, 48, 0
1, 28350, Note_on_c, 1, 80, 127
1, 28350, Note_on_c, 1, 46, 127
1, 28379, Note_off_c, 1, 80, 0
1, 28379, Note_off_c, 1, 46, 0
1, 28380, Note_on_c, 1, 73, 127
1, 28380, Note_on_c, 1, 44, 127
1, 28409, Note_off_c, 1, 73, 0
1, 28409, Note_off_c, 1, 44, 0
1, 28410, Note_on_c, 1, 82, 127
1, 28410, Note_on_c, 1, 43, 127
1, 28439, Note_off_c, 1, 82, 0
1, 28439, Note_off_c, 1, 43, 0
1, 28469, Note_off_c, 1, 63, 0
1, 28470, Note_on_c, 1, 61, 127
1, 28470, Note_on_c, 1, 84, 127
1, 28499, Note_off_c, 1, 61, 0
1, 28499, Note_off_c, 1, 84, 0
1, 28500, Note_on_c, 1, 60, 127
1, 28500, Note_on_c, 1, 75, 127
1, 28514, Note_off_c, 1, 75, 0
1, 28515, Note_on_c, 1, 77, 127
1, 28529, Note_off_c, 1, 60, 0
1, 28529, Note_off_c, 1, 77, 0
1, 28530, Note_on_c, 1, 58, 127
1, 28530, Note_on_c, 1, 79, 127
1, 28559, Note_off_c, 1, 58, 0
1, 28559, Note_off_c, 1, 79, 0
1, 28560, Note_on_c, 1, 60, 127
1, 28560, Note_on_c, 1, 77, 127
1, 28589, Note_off_c, 1, 60, 0
1, 28590, Note_on_c, 1, 62, 127
1, 28619, Note_off_c, 1, 77, 0
1, 28619, Note_off_c, 1, 62, 0
1, 28620, Note_on_c, 1, 63, 127
1, 28620, Note_on_c, 1, 75, 127
1, 28620, Note_on_c, 1, 44, 127
1, 28634, Note_off_c, 1, 75, 0
1, 28635, Note_on_c, 1, 77, 127
1, 28649, Note_off_c, 1, 77, 0
1, 28650, Note_on_c, 1, 79, 127
1, 28679, Note_off_c, 1, 44, 0
1, 28679, Note_off_c, 1, 79, 0
1, 28680, Note_on_c, 1, 38, 127
1, 28709, Note_off_c, 1, 63, 0
1, 28710, Note_on_c, 1, 56, 127
1, 28739, Note_off_c, 1, 38, 0
1, 28739, Note_off_c, 1, 56, 0
1, 28740, Note_on_c, 1, 60, 127
1, 28740, Note_on_c, 1, 68, 127
1, 28740, Note_on_c, 1, 50, 127
1, 28769, Note_off_c, 1, 60, 0
1, 28769, Note_off_c, 1, 68, 0
1, 28769, Note_off_c, 1, 50, 0
1, 28770, Note_on_c, 1, 53, 127
1, 28770, Note_on_c, 1, 77, 127
1, 28770, Note_on_c, 1, 48, 127
1, 28799, Note_off_c, 1, 53, 0
1, 28799, Note_off_c, 1, 77, 0
1, 28799, Note_off_c, 1, 48, 0
1, 28800, Note_on_c, 1, 62, 127
1, 28800, Note_on_c, 1, 70, 127
1, 28800, Note_on_c, 1, 46, 127
1, 28829, Note_off_c, 1, 70, 0
1, 28829, Note_off_c, 1, 46, 0
1, 28830, Note_on_c, 1, 79, 127
1, 28830, Note_on_c, 1, 44, 127
1, 28859, Note_off_c, 1, 79, 0
1, 28859, Note_off_c, 1, 44, 0
1, 28860, Note_on_c, 1, 72, 127
1, 28860, Note_on_c, 1, 43, 127
1, 28889, Note_off_c, 1, 72, 0
1, 28889, Note_off_c, 1, 43, 0
1, 28890, Note_on_c, 1, 80, 127
1, 28890, Note_on_c, 1, 41, 127
1, 28919, Note_off_c, 1, 80, 0
1, 28919, Note_off_c, 1, 41, 0
1, 28949, Note_off_c, 1, 62, 0
1, 28950, Note_on_c, 1, 60, 127
1, 28950, Note_on_c, 1, 82, 127
1, 28979, Note_off_c, 1, 60, 0
1, 28979, Note_off_c, 1, 82, 0
1, 28980, Note_on_c, 1, 58, 127
1, 28980, Note_on_c, 1, 74, 127
1, 28994, Note_off_c, 1, 74, 0
1, 28995, Note_on_c, 1, 75, 127
1, 29009, Note_off_c, 1, 58, 0
1, 29009, Note_off_c, 1, 75, 0
1, 29010, Note_on_c, 1, 56, 127
1, 29010, Note_on_c, 1, 77, 127
1, 29039, Note_off_c, 1, 56, 0
1, 29039, Note_off_c, 1, 77, 0
1, 29040, Note_on_c, 1, 55, 127
1, 29040, Note_on_c, 1, 75, 127
1, 29069, Note_off_c, 1, 55, 0
1, 29070, Note_on_c, 1, 56, 127
1, 29099, Note_off_c, 1, 75, 0
1, 29099, Note_off_c, 1, 56, 0
1, 29100, Note_on_c, 1, 58, 127
1, 29100, Note_on_c, 1, 74, 127
1, 29100, Note_on_c, 1, 43, 127
1, 29114, Note_off_c, 1, 74, 0
1, 29115, Note_on_c, 1, 75, 127
1, 29129, Note_off_c, 1, 75, 0
1, 29130, Note_on_c, 1, 77, 127
1, 29159, Note_off_c, 1, 43, 0
1, 29159, Note_off_c, 1, 77, 0
1, 29160, Note_on_c, 1, 36, 127
1, 29189, Note_off_c, 1, 58, 0
1, 29190, Note_on_c, 1, 51, 127
1, 29219, Note_off_c, 1, 36, 0
1, 29219, Note_off_c, 1, 51, 0
1, 29220, Note_on_c, 1, 55, 127
1, 29220, Note_on_c, 1, 67, 127
1, 29220, Note_on_c, 1, 48, 127
1, 29249, Note_off_c, 1, 55, 0
1, 29249, Note_off_c, 1, 67, 0
1, 29249, Note_off_c, 1, 48, 0
1, 29250, Note_on_c, 1, 48, 127
1, 29250, Note_on_c, 1, 75, 127
1, 29250, Note_on_c, 1, 46, 127
1, 29279, Note_off_c, 1, 48, 0
1, 29279, Note_off_c, 1, 75, 0
1, 29279, Note_off_c, 1, 46, 0
1, 29280, Note_on_c, 1, 60, 127
1, 29280, Note_on_c, 1, 68, 127
1, 29280, Note_on_c, 1, 44, 127
1, 29309, Note_off_c, 1, 68, 0
1, 29309, Note_off_c, 1, 44, 0
1, 29310, Note_on_c, 1, 77, 127
1, 29310, Note_on_c, 1, 43, 127
1, 29339, Note_off_c, 1, 77, 0
1, 29339, Note_off_c, 1, 43, 0
1, 29340, Note_on_c, 1, 70, 127
1, 29340, Note_on_c, 1, 41, 127
1, 29369, Note_off_c, 1, 70, 0
1, 29369, Note_off_c, 1, 41, 0
1, 29370, Note_on_c, 1, 79, 127
1, 29370, Note_on_c, 1, 39, 127
1, 29399, Note_off_c, 1, 79, 0
1, 29399, Note_off_c, 1, 39, 0
1, 29400, Note_on_c, 1, 80, 127
1, 29429, Note_off_c, 1, 60, 0
1, 29429, Note_off_c, 1, 80, 0
1, 29430, Note_on_c, 1, 58, 127
1, 29459, Note_off_c, 1, 58, 0
1, 29460, Note_on_c, 1, 56, 127
1, 29460, Note_on_c, 1, 77, 127
1, 29460, Note_on_c, 1, 53, 127
1, 29489, Note_off_c, 1, 56, 0
1, 29489, Note_off_c, 1, 77, 0
1, 29489, Note_off_c, 1, 53, 0
1, 29490, Note_on_c, 1, 55, 127
1, 29490, Note_on_c, 1, 79, 127
1, 29490, Note_on_c, 1, 51, 127
1, 29519, Note_off_c, 1, 55, 0
1, 29519, Note_off_c, 1, 79, 0
1, 29519, Note_off_c, 1, 51, 0
1, 29520, Note_on_c, 1, 53, 127
1, 29520, Note_on_c, 1, 80, 127
1, 29520, Note_on_c, 1, 50, 127
1, 29549, Note_off_c, 1, 53, 0
1, 29550, Note_on_c, 1, 51, 127
1, 29579, Note_off_c, 1, 50, 0
1, 29579, Note_off_c, 1, 51, 0
1, 29610, Note_on_c, 1, 48, 127
1, 29639, Note_off_c, 1, 48, 0
1, 29640, Note_on_c, 1, 46, 127
1, 29669, Note_off_c, 1, 80, 0
1, 29670, Note_on_c, 1, 58, 127
1, 29670, Note_on_c, 1, 79, 127
1, 29699, Note_off_c, 1, 46, 0
1, 29699, Note_off_c, 1, 58, 0
1, 29699, Note_off_c, 1, 79, 0
1, 29700, Note_on_c, 1, 51, 127
1, 29700, Note_on_c, 1, 77, 127
1, 29700, Note_on_c, 1, 46, 127
1, 29729, Note_off_c, 1, 51, 0
1, 29729, Note_off_c, 1, 77, 0
1, 29730, Note_on_c, 1, 58, 127
1, 29730, Note_on_c, 1, 79, 127
1, 29759, Note_off_c, 1, 46, 0
1, 29759, Note_off_c, 1, 58, 0
1, 29759, Note_off_c, 1, 79, 0
1, 29760, Note_on_c, 1, 53, 127
1, 29760, Note_on_c, 1, 80, 127
1, 29760, Note_on_c, 1, 46, 127
1, 29789, Note_off_c, 1, 53, 0
1, 29789, Note_off_c, 1, 80, 0
1, 29790, Note_on_c, 1, 58, 127
1, 29790, Note_on_c, 1, 79, 127
1, 29819, Note_off_c, 1, 46, 0
1, 29819, Note_off_c, 1, 58, 0
1, 29819, Note_off_c, 1, 79, 0
1, 29820, Note_on_c, 1, 50, 127
1, 29820, Note_on_c, 1, 80, 127
1, 29820, Note_on_c, 1, 46, 127
1, 29849, Note_off_c, 1, 50, 0
1, 29849, Note_off_c, 1, 80, 0
1, 29850, Note_on_c, 1, 58, 127
1, 29850, Note_on_c, 1, 77, 127
1, 29879, Note_off_c, 1, 46, 0
1, 29879, Note_off_c, 1, 58, 0
1, 29879, Note_off_c, 1, 77, 0
1, 29880, Note_on_c, 1, 51, 127
1, 29880, Note_on_c, 1, 79, 127
1, 29880, Note_on_c, 1, 46, 127
1, 29909, Note_off_c, 1, 51, 0
1, 29909, Note_off_c, 1, 79, 0
1, 29910, Note_on_c, 1, 58, 127
1, 29910, Note_on_c, 1, 77, 127
1, 29939, Note_off_c, 1, 46, 0
1, 29939, Note_off_c, 1, 58, 0
1, 29939, Note_off_c, 1, 77, 0
1, 29940, Note_on_c, 1, 53, 127
1, 29940, Note_on_c, 1, 75, 127
1, 29940, Note_on_c, 1, 46, 127
1, 29969, Note_off_c, 1, 53, 0
1, 29969, Note_off_c, 1, 75, 0
1, 29970, Note_on_c, 1, 58, 127
1, 29970, Note_on_c, 1, 74, 127
1, 29999, Note_off_c, 1, 46, 0
1, 29999, Note_off_c, 1, 58, 0
1, 29999, Note_off_c, 1, 74, 0
1, 30000, Note_on_c, 1, 55, 127
1, 30000, Note_on_c, 1, 75, 127
1, 30000, Note_on_c, 1, 46, 127
1, 30029, Note_off_c, 1, 55, 0
1, 30029, Note_off_c, 1, 75, 0
1, 30030, Note_on_c, 1, 58, 127
1, 30030, Note_on_c, 1, 79, 127
1, 30059, Note_off_c, 1, 46, 0
1, 30059, Note_off_c, 1, 58, 0
1, 30059, Note_off_c, 1, 79, 0
1, 30060, Note_on_c, 1, 51, 127
1, 30060, Note_on_c, 1, 82, 127
1, 30060, Note_on_c, 1, 46, 127
1, 30089, Note_off_c, 1, 51, 0
1, 30089, Note_off_c, 1, 82, 0
1, 30090, Note_on_c, 1, 58, 127
1, 30090, Note_on_c, 1, 75, 127
1, 30119, Note_off_c, 1, 46, 0
1, 30119, Note_off_c, 1, 58, 0
1, 30119, Note_off_c, 1, 75, 0
1, 30120, Note_on_c, 1, 53, 127
1, 30120, Note_on_c, 1, 74, 127
1, 30120, Note_on_c, 1, 46, 127
1, 30149, Note_off_c, 1, 53, 0
1, 30149, Note_off_c, 1, 74, 0
1, 30150, Note_on_c, 1, 58, 127
1, 30150, Note_on_c, 1, 72, 127
1, 30179, Note_off_c, 1, 46, 0
1, 30179, Note_off_c, 1, 58, 0
1, 30179, Note_off_c, 1, 72, 0
1, 30180, Note_on_c, 1, 55, 127
1, 30180, Note_on_c, 1, 70, 127
1, 30180, Note_on_c, 1, 46, 127
1, 30209, Note_off_c, 1, 55, 0
1, 30209, Note_off_c, 1, 70, 0
1, 30210, Note_on_c, 1, 58, 127
1, 30210, Note_on_c, 1, 72, 127
1, 30239, Note_off_c, 1, 46, 0
1, 30239, Note_off_c, 1, 58, 0
1, 30239, Note_off_c, 1, 72, 0
1, 30240, Note_on_c, 1, 56, 127
1, 30240, Note_on_c, 1, 74, 127
1, 30240, Note_on_c, 1, 46, 127
1, 30269, Note_off_c, 1, 56, 0
1, 30269, Note_off_c, 1, 74, 0
1, 30270, Note_on_c, 1, 58, 127
1, 30270, Note_on_c, 1, 75, 127
1, 30299, Note_off_c, 1, 46, 0
1, 30299, Note_off_c, 1, 58, 0
1, 30299, Note_off_c, 1, 75, 0
1, 30300, Note_on_c, 1, 53, 127
1, 30300, Note_on_c, 1, 77, 127
1, 30300, Note_on_c, 1, 46, 127
1, 30329, Note_off_c, 1, 53, 0
1, 30329, Note_off_c, 1, 77, 0
1, 30330, Note_on_c, 1, 56, 127
1, 30330, Note_on_c, 1, 74, 127
1, 30359, Note_off_c, 1, 46, 0
1, 30359, Note_off_c, 1, 56, 0
1, 30359, Note_off_c, 1, 74, 0
1, 30360, Note_on_c, 1, 55, 127
1, 30360, Note_on_c, 1, 75, 127
1, 30360, Note_on_c, 1, 39, 127
1, 30419, Note_off_c, 1, 55, 0
1, 30419, Note_off_c, 1, 75, 0
1, 30419, Note_off_c, 1, 39, 0
1, 30420, Note_on_c, 1, 70, 127
1, 30420, Note_on_c, 1, 67, 127
1, 30420, Note_on_c, 1, 63, 127
1, 30449, Note_off_c, 1, 67, 0
1, 30449, Note_off_c, 1, 63, 0
1, 30450, Note_on_c, 1, 65, 127
1, 30450, Note_on_c, 1, 62, 127
1, 30479, Note_off_c, 1, 65, 0
1, 30479, Note_off_c, 1, 62, 0
1, 30540, Note_on_c, 1, 58, 127
1, 30569, Note_off_c, 1, 58, 0
1, 30570, Note_on_c, 1, 56, 127
1, 30599, Note_off_c, 1, 56, 0
1, 30660, Note_on_c, 1, 55, 127
1, 30689, Note_off_c, 1, 55, 0
1, 30690, Note_on_c, 1, 53, 127
1, 30719, Note_off_c, 1, 53, 0
1, 30780, Note_on_c, 1, 51, 127
1, 30809, Note_off_c, 1, 51, 0
1, 30810, Note_on_c, 1, 50, 127
1, 30839, Note_off_c, 1, 50, 0
1, 30870, Note_on_c, 1, 68, 127
1, 30899, Note_off_c, 1, 70, 0
1, 30899, Note_off_c, 1, 68, 0
1, 30900, Note_on_c, 1, 75, 127
1, 30929, Note_off_c, 1, 75, 0
1, 30930, Note_on_c, 1, 74, 127
1, 30959, Note_off_c, 1, 74, 0
1, 30960, Note_on_c, 1, 67, 127
1, 30960, Note_on_c, 1, 74, 127
1, 30960, Note_on_c, 1, 58, 127
1, 30989, Note_off_c, 1, 67, 0
1, 30989, Note_off_c, 1, 74, 0
1, 30990, Note_on_c, 1, 65, 127
1, 30990, Note_on_c, 1, 75, 127
1, 31019, Note_off_c, 1, 58, 0
1, 31019, Note_off_c, 1, 65, 0
1, 31020, Note_on_c, 1, 63, 127
1, 31049, Note_off_c, 1, 75, 0
1, 31050, Note_on_c, 1, 79, 127
1, 31079, Note_off_c, 1, 63, 0
1, 31079, Note_off_c, 1, 79, 0
1, 31080, Note_on_c, 1, 62, 127
1, 31080, Note_on_c, 1, 77, 127
1, 31080, Note_on_c, 1, 58, 127
1, 31109, Note_off_c, 1, 62, 0
1, 31109, Note_off_c, 1, 77, 0
1, 31110, Note_on_c, 1, 63, 127
1, 31110, Note_on_c, 1, 75, 127
1, 31139, Note_off_c, 1, 58, 0
1, 31139, Note_off_c, 1, 63, 0
1, 31139, Note_off_c, 1, 75, 0
1, 31140, Note_on_c, 1, 63, 127
1, 31140, Note_on_c, 1, 74, 127
1, 31140, Note_on_c, 1, 46, 127
1, 31149, Note_off_c, 1, 63, 0
1, 31150, Note_on_c, 1, 65, 127
1, 31159, Note_off_c, 1, 65, 0
1, 31169, Note_off_c, 1, 74, 0
1, 31170, Note_on_c, 1, 62, 127
1, 31170, Note_on_c, 1, 72, 127
1, 31184, Note_off_c, 1, 62, 0
1, 31199, Note_off_c, 1, 72, 0
1, 31200, Note_on_c, 1, 70, 127
1, 31230, Note_off_c, 1, 46, 0
1, 31230, Note_on_c, 1, 67, 127
1, 31230, Note_on_c, 1, 44, 127
1, 31244, Note_off_c, 1, 67, 0
1, 31259, Note_off_c, 1, 70, 0
1, 31259, Note_off_c, 1, 44, 0
1, 31260, Note_on_c, 1, 64, 127
1, 31260, Note_on_c, 1, 85, 127
1, 31260, Note_on_c, 1, 43, 127
1, 31289, Note_off_c, 1, 64, 0
1, 31289, Note_off_c, 1, 85, 0
1, 31289, Note_off_c, 1, 43, 0
1, 31290, Note_on_c, 1, 65, 127
1, 31290, Note_on_c, 1, 84, 127
1, 31290, Note_on_c, 1, 41, 127
1, 31319, Note_off_c, 1, 65, 0
1, 31319, Note_off_c, 1, 84, 0
1, 31319, Note_off_c, 1, 41, 0
1, 31320, Note_on_c, 1, 67, 127
1, 31320, Note_on_c, 1, 85, 127
1, 31320, Note_on_c, 1, 40, 127
1, 31379, Note_off_c, 1, 85, 0
1, 31379, Note_off_c, 1, 40, 0
1, 31380, Note_on_c, 1, 82, 127
1, 31380, Note_on_c, 1, 49, 127
1, 31409, Note_off_c, 1, 82, 0
1, 31409, Note_off_c, 1, 49, 0
1, 31410, Note_on_c, 1, 80, 127
1, 31410, Note_on_c, 1, 48, 127
1, 31439, Note_off_c, 1, 80, 0
1, 31439, Note_off_c, 1, 48, 0
1, 31470, Note_on_c, 1, 46, 127
1, 31499, Note_off_c, 1, 46, 0
1, 31500, Note_on_c, 1, 79, 127
1, 31500, Note_on_c, 1, 52, 127
1, 31529, Note_off_c, 1, 79, 0
1, 31529, Note_off_c, 1, 52, 0
1, 31530, Note_on_c, 1, 77, 127
1, 31530, Note_on_c, 1, 50, 127
1, 31559, Note_off_c, 1, 77, 0
1, 31559, Note_off_c, 1, 50, 0
1, 31620, Note_on_c, 1, 76, 127
1, 31620, Note_on_c, 1, 55, 127
1, 31649, Note_off_c, 1, 76, 0
1, 31649, Note_off_c, 1, 55, 0
1, 31650, Note_on_c, 1, 74, 127
1, 31650, Note_on_c, 1, 53, 127
1, 31679, Note_off_c, 1, 74, 0
1, 31679, Note_off_c, 1, 53, 0
1, 31740, Note_on_c, 1, 72, 127
1, 31769, Note_off_c, 1, 72, 0
1, 31770, Note_on_c, 1, 70, 127
1, 31770, Note_on_c, 1, 58, 127
1, 31799, Note_off_c, 1, 70, 0
1, 31799, Note_off_c, 1, 58, 0
1, 31860, Note_off_c, 1, 67, 0
1, 31860, Note_on_c, 1, 60, 127
1, 31889, Note_off_c, 1, 60, 0
1, 31890, Note_on_c, 1, 62, 127
1, 31919, Note_off_c, 1, 62, 0
1, 31920, Note_on_c, 1, 64, 127
1, 31920, Note_on_c, 1, 79, 127
1, 31920, Note_on_c, 1, 60, 127
1, 31949, Note_off_c, 1, 64, 0
1, 31950, Note_on_c, 1, 65, 127
1, 31979, Note_off_c, 1, 79, 0
1, 31979, Note_off_c, 1, 60, 0
1, 31979, Note_off_c, 1, 65, 0
1, 31980, Note_on_c, 1, 67, 127
1, 31980, Note_on_c, 1, 82, 127
1, 31980, Note_on_c, 1, 48, 127
1, 32009, Note_off_c, 1, 67, 0
1, 32010, Note_on_c, 1, 65, 127
1, 32039, Note_off_c, 1, 82, 0
1, 32039, Note_off_c, 1, 48, 0
1, 32039, Note_off_c, 1, 65, 0
1, 32040, Note_on_c, 1, 65, 127
1, 32040, Note_on_c, 1, 82, 127
1, 32040, Note_on_c, 1, 53, 127
1, 32069, Note_off_c, 1, 65, 0
1, 32069, Note_off_c, 1, 82, 0
1, 32070, Note_on_c, 1, 67, 127
1, 32070, Note_on_c, 1, 80, 127
1, 32099, Note_off_c, 1, 53, 0
1, 32099, Note_off_c, 1, 80, 0
1, 32100, Note_on_c, 1, 79, 127
1, 32100, Note_on_c, 1, 55, 127
1, 32129, Note_off_c, 1, 79, 0
1, 32159, Note_off_c, 1, 67, 0
1, 32159, Note_off_c, 1, 55, 0
1, 32160, Note_on_c, 1, 77, 127
1, 32160, Note_on_c, 1, 56, 127
1, 32189, Note_off_c, 1, 77, 0
1, 32190, Note_on_c, 1, 84, 127
1, 32219, Note_off_c, 1, 56, 0
1, 32219, Note_off_c, 1, 84, 0
1, 32220, Note_on_c, 1, 68, 127
1, 32220, Note_on_c, 1, 83, 127
1, 32220, Note_on_c, 1, 53, 127
1, 32249, Note_off_c, 1, 68, 0
1, 32249, Note_off_c, 1, 83, 0
1, 32250, Note_on_c, 1, 67, 127
1, 32250, Note_on_c, 1, 84, 127
1, 32279, Note_off_c, 1, 53, 0
1, 32279, Note_off_c, 1, 67, 0
1, 32279, Note_off_c, 1, 84, 0
1, 32280, Note_on_c, 1, 68, 127
1, 32280, Note_on_c, 1, 86, 127
1, 32280, Note_on_c, 1, 47, 127
1, 32339, Note_off_c, 1, 68, 0
1, 32339, Note_off_c, 1, 47, 0
1, 32340, Note_on_c, 1, 65, 127
1, 32340, Note_on_c, 1, 56, 127
1, 32369, Note_off_c, 1, 65, 0
1, 32369, Note_off_c, 1, 56, 0
1, 32370, Note_on_c, 1, 63, 127
1, 32370, Note_on_c, 1, 55, 127
1, 32399, Note_off_c, 1, 63, 0
1, 32399, Note_off_c, 1, 55, 0
1, 32430, Note_on_c, 1, 53, 127
1, 32459, Note_off_c, 1, 53, 0
1, 32460, Note_on_c, 1, 62, 127
1, 32460, Note_on_c, 1, 59, 127
1, 32489, Note_off_c, 1, 62, 0
1, 32489, Note_off_c, 1, 59, 0
1, 32490, Note_on_c, 1, 60, 127
1, 32490, Note_on_c, 1, 57, 127
1, 32519, Note_off_c, 1, 60, 0
1, 32519, Note_off_c, 1, 57, 0
1, 32730, Note_on_c, 1, 54, 127
1, 32759, Note_off_c, 1, 54, 0
1, 32820, Note_off_c, 1, 86, 0
1, 32820, Note_on_c, 1, 79, 127
1, 32849, Note_off_c, 1, 79, 0
1, 32850, Note_on_c, 1, 81, 127
1, 32879, Note_off_c, 1, 81, 0
1, 32880, Note_on_c, 1, 62, 127
1, 32880, Note_on_c, 1, 83, 127
1, 32880, Note_on_c, 1, 55, 127
1, 32909, Note_off_c, 1, 83, 0
1, 32910, Note_on_c, 1, 84, 127
1, 32939, Note_off_c, 1, 62, 0
1, 32939, Note_off_c, 1, 55, 0
1, 32939, Note_off_c, 1, 84, 0
1, 32940, Note_on_c, 1, 65, 127
1, 32940, Note_on_c, 1, 86, 127
1, 32940, Note_on_c, 1, 43, 127
1, 32969, Note_off_c, 1, 86, 0
1, 32970, Note_on_c, 1, 83, 127
1, 32999, Note_off_c, 1, 65, 0
1, 32999, Note_off_c, 1, 43, 0
1, 32999, Note_off_c, 1, 83, 0
1, 33000, Note_on_c, 1, 65, 127
1, 33000, Note_on_c, 1, 84, 127
1, 33000, Note_on_c, 1, 48, 127
1, 33029, Note_off_c, 1, 65, 0
1, 33030, Note_on_c, 1, 63, 127
1, 33059, Note_off_c, 1, 48, 0
1, 33059, Note_off_c, 1, 63, 0
1, 33060, Note_on_c, 1, 62, 127
1, 33060, Note_on_c, 1, 36, 127
1, 33089, Note_off_c, 1, 62, 0
1, 33119, Note_off_c, 1, 84, 0
1, 33119, Note_off_c, 1, 36, 0
1, 33120, Note_on_c, 1, 60, 127
1, 33120, Note_on_c, 1, 39, 127
1, 33149, Note_off_c, 1, 60, 0
1, 33150, Note_on_c, 1, 63, 127
1, 33150, Note_on_c, 1, 72, 127
1, 33179, Note_off_c, 1, 39, 0
1, 33179, Note_off_c, 1, 63, 0
1, 33179, Note_off_c, 1, 72, 0
1, 33180, Note_on_c, 1, 62, 127
1, 33180, Note_on_c, 1, 71, 127
1, 33180, Note_on_c, 1, 43, 127
1, 33209, Note_off_c, 1, 62, 0
1, 33209, Note_off_c, 1, 71, 0
1, 33210, Note_on_c, 1, 65, 127
1, 33210, Note_on_c, 1, 74, 127
1, 33239, Note_off_c, 1, 43, 0
1, 33239, Note_off_c, 1, 65, 0
1, 33239, Note_off_c, 1, 74, 0
1, 33240, Note_on_c, 1, 63, 127
1, 33240, Note_on_c, 1, 72, 127
1, 33240, Note_on_c, 1, 48, 127
1, 33269, Note_off_c, 1, 72, 0
1, 33270, Note_on_c, 1, 75, 127
1, 33299, Note_off_c, 1, 63, 0
1, 33299, Note_off_c, 1, 48, 0
1, 33299, Note_off_c, 1, 75, 0
1, 33300, Note_on_c, 1, 72, 127
1, 33300, Note_on_c, 1, 79, 127
1, 33300, Note_on_c, 1, 60, 127
1, 33329, Note_off_c, 1, 79, 0
1, 33329, Note_off_c, 1, 60, 0
1, 33330, Note_on_c, 1, 74, 127
1, 33330, Note_on_c, 1, 59, 127
1, 33359, Note_off_c, 1, 72, 0
1, 33359, Note_off_c, 1, 74, 0
1, 33359, Note_off_c, 1, 59, 0
1, 33360, Note_on_c, 1, 69, 127
1, 33360, Note_on_c, 1, 75, 127
1, 33360, Note_on_c, 1, 60, 127
1, 33389, Note_off_c, 1, 75, 0
1, 33390, Note_on_c, 1, 81, 127
1, 33419, Note_off_c, 1, 69, 0
1, 33419, Note_off_c, 1, 60, 0
1, 33419, Note_off_c, 1, 81, 0
1, 33420, Note_on_c, 1, 65, 127
1, 33420, Note_on_c, 1, 84, 127
1, 33420, Note_on_c, 1, 57, 127
1, 33449, Note_off_c, 1, 84, 0
1, 33449, Note_off_c, 1, 57, 0
1, 33450, Note_on_c, 1, 74, 127
1, 33450, Note_on_c, 1, 55, 127
1, 33479, Note_off_c, 1, 65, 0
1, 33479, Note_off_c, 1, 74, 0
1, 33479, Note_off_c, 1, 55, 0
1, 33480, Note_on_c, 1, 60, 127
1, 33480, Note_on_c, 1, 75, 127
1, 33480, Note_on_c, 1, 57, 127
1, 33509, Note_off_c, 1, 75, 0
1, 33510, Note_on_c, 1, 81, 127
1, 33539, Note_off_c, 1, 60, 0
1, 33539, Note_off_c, 1, 57, 0
1, 33539, Note_off_c, 1, 81, 0
1, 33540, Note_on_c, 1, 57, 127
1, 33540, Note_on_c, 1, 84, 127
1, 33540, Note_on_c, 1, 53, 127
1, 33569, Note_off_c, 1, 84, 0
1, 33569, Note_off_c, 1, 53, 0
1, 33570, Note_on_c, 1, 74, 127
1, 33570, Note_on_c, 1, 52, 127
1, 33599, Note_off_c, 1, 57, 0
1, 33599, Note_off_c, 1, 74, 0
1, 33599, Note_off_c, 1, 52, 0
1, 33600, Note_on_c, 1, 53, 127
1, 33600, Note_on_c, 1, 75, 127
1, 33629, Note_off_c, 1, 75, 0
1, 33630, Note_on_c, 1, 81, 127
1, 33659, Note_off_c, 1, 53, 0
1, 33659, Note_off_c, 1, 81, 0
1, 33660, Note_on_c, 1, 63, 127
1, 33660, Note_on_c, 1, 79, 127
1, 33660, Note_on_c, 1, 41, 127
1, 33689, Note_off_c, 1, 79, 0
1, 33690, Note_on_c, 1, 81, 127
1, 33719, Note_off_c, 1, 63, 0
1, 33719, Note_off_c, 1, 41, 0
1, 33719, Note_off_c, 1, 81, 0
1, 33720, Note_on_c, 1, 62, 127
1, 33720, Note_on_c, 1, 70, 127
1, 33720, Note_on_c, 1, 46, 127
1, 33749, Note_off_c, 1, 70, 0
1, 33750, Note_on_c, 1, 74, 127
1, 33779, Note_off_c, 1, 62, 0
1, 33779, Note_off_c, 1, 46, 0
1, 33779, Note_off_c, 1, 74, 0
1, 33780, Note_on_c, 1, 70, 127
1, 33780, Note_on_c, 1, 77, 127
1, 33780, Note_on_c, 1, 58, 127
1, 33809, Note_off_c, 1, 77, 0
1, 33809, Note_off_c, 1, 58, 0
1, 33810, Note_on_c, 1, 72, 127
1, 33810, Note_on_c, 1, 57, 127
1, 33839, Note_off_c, 1, 70, 0
1, 33839, Note_off_c, 1, 72, 0
1, 33839, Note_off_c, 1, 57, 0
1, 33840, Note_on_c, 1, 67, 127
1, 33840, Note_on_c, 1, 74, 127
1, 33840, Note_on_c, 1, 58, 127
1, 33869, Note_off_c, 1, 74, 0
1, 33870, Note_on_c, 1, 79, 127
1, 33899, Note_off_c, 1, 67, 0
1, 33899, Note_off_c, 1, 58, 0
1, 33899, Note_off_c, 1, 79, 0
1, 33900, Note_on_c, 1, 63, 127
1, 33900, Note_on_c, 1, 82, 127
1, 33900, Note_on_c, 1, 55, 127
1, 33929, Note_off_c, 1, 82, 0
1, 33929, Note_off_c, 1, 55, 0
1, 33930, Note_on_c, 1, 72, 127
1, 33930, Note_on_c, 1, 54, 127
1, 33959, Note_off_c, 1, 63, 0
1, 33959, Note_off_c, 1, 72, 0
1, 33959, Note_off_c, 1, 54, 0
1, 33960, Note_on_c, 1, 58, 127
1, 33960, Note_on_c, 1, 74, 127
1, 33960, Note_on_c, 1, 55, 127
1, 33989, Note_off_c, 1, 74, 0
1, 33990, Note_on_c, 1, 79, 127
1, 34019, Note_off_c, 1, 58, 0
1, 34019, Note_off_c, 1, 55, 0
1, 34019, Note_off_c, 1, 79, 0
1, 34020, Note_on_c, 1, 55, 127
1, 34020, Note_on_c, 1, 82, 127
1, 34020, Note_on_c, 1, 51, 127
1, 34049, Note_off_c, 1, 82, 0
1, 34049, Note_off_c, 1, 51, 0
1, 34050, Note_on_c, 1, 72, 127
1, 34050, Note_on_c, 1, 50, 127
1, 34079, Note_off_c, 1, 55, 0
1, 34079, Note_off_c, 1, 72, 0
1, 34079, Note_off_c, 1, 50, 0
1, 34080, Note_on_c, 1, 51, 127
1, 34080, Note_on_c, 1, 74, 127
1, 34109, Note_off_c, 1, 74, 0
1, 34110, Note_on_c, 1, 79, 127
1, 34139, Note_off_c, 1, 51, 0
1, 34139, Note_off_c, 1, 79, 0
1, 34140, Note_on_c, 1, 62, 127
1, 34140, Note_on_c, 1, 78, 127
1, 34140, Note_on_c, 1, 39, 127
1, 34169, Note_off_c, 1, 78, 0
1, 34170, Note_on_c, 1, 79, 127
1, 34199, Note_off_c, 1, 62, 0
1, 34199, Note_off_c, 1, 39, 0
1, 34199, Note_off_c, 1, 79, 0
1, 34200, Note_on_c, 1, 60, 127
1, 34200, Note_on_c, 1, 69, 127
1, 34200, Note_on_c, 1, 45, 127
1, 34229, Note_off_c, 1, 69, 0
1, 34230, Note_on_c, 1, 72, 127
1, 34259, Note_off_c, 1, 60, 0
1, 34259, Note_off_c, 1, 45, 0
1, 34259, Note_off_c, 1, 72, 0
1, 34260, Note_on_c, 1, 69, 127
1, 34260, Note_on_c, 1, 75, 127
1, 34260, Note_on_c, 1, 57, 127
1, 34289, Note_off_c, 1, 75, 0
1, 34289, Note_off_c, 1, 57, 0
1, 34290, Note_on_c, 1, 70, 127
1, 34290, Note_on_c, 1, 55, 127
1, 34319, Note_off_c, 1, 69, 0
1, 34319, Note_off_c, 1, 70, 0
1, 34319, Note_off_c, 1, 55, 0
1, 34320, Note_on_c, 1, 66, 127
1, 34320, Note_on_c, 1, 72, 127
1, 34320, Note_on_c, 1, 57, 127
1, 34349, Note_off_c, 1, 72, 0
1, 34350, Note_on_c, 1, 78, 127
1, 34379, Note_off_c, 1, 66, 0
1, 34379, Note_off_c, 1, 57, 0
1, 34379, Note_off_c, 1, 78, 0
1, 34380, Note_on_c, 1, 62, 127
1, 34380, Note_on_c, 1, 81, 127
1, 34380, Note_on_c, 1, 54, 127
1, 34409, Note_off_c, 1, 81, 0
1, 34409, Note_off_c, 1, 54, 0
1, 34410, Note_on_c, 1, 70, 127
1, 34410, Note_on_c, 1, 52, 127
1, 34439, Note_off_c, 1, 62, 0
1, 34439, Note_off_c, 1, 70, 0
1, 34439, Note_off_c, 1, 52, 0
1, 34440, Note_on_c, 1, 57, 127
1, 34440, Note_on_c, 1, 72, 127
1, 34440, Note_on_c, 1, 54, 127
1, 34469, Note_off_c, 1, 72, 0
1, 34470, Note_on_c, 1, 78, 127
1, 34499, Note_off_c, 1, 57, 0
1, 34499, Note_off_c, 1, 54, 0
1, 34499, Note_off_c, 1, 78, 0
1, 34500, Note_on_c, 1, 54, 127
1, 34500, Note_on_c, 1, 81, 127
1, 34500, Note_on_c, 1, 50, 127
1, 34529, Note_off_c, 1, 81, 0
1, 34529, Note_off_c, 1, 50, 0
1, 34530, Note_on_c, 1, 70, 127
1, 34530, Note_on_c, 1, 48, 127
1, 34559, Note_off_c, 1, 54, 0
1, 34559, Note_off_c, 1, 70, 0
1, 34559, Note_off_c, 1, 48, 0
1, 34560, Note_on_c, 1, 50, 127
1, 34560, Note_on_c, 1, 72, 127
1, 34589, Note_off_c, 1, 72, 0
1, 34590, Note_on_c, 1, 78, 127
1, 34619, Note_off_c, 1, 50, 0
1, 34619, Note_off_c, 1, 78, 0
1, 34620, Note_on_c, 1, 62, 127
1, 34620, Note_on_c, 1, 76, 127
1, 34620, Note_on_c, 1, 38, 127
1, 34649, Note_off_c, 1, 76, 0
1, 34650, Note_on_c, 1, 78, 127
1, 34679, Note_off_c, 1, 62, 0
1, 34679, Note_off_c, 1, 38, 0
1, 34679, Note_off_c, 1, 78, 0
1, 34680, Note_on_c, 1, 62, 127
1, 34680, Note_on_c, 1, 67, 127
1, 34680, Note_on_c, 1, 43, 127
1, 34709, Note_off_c, 1, 67, 0
1, 34710, Note_on_c, 1, 70, 127
1, 34739, Note_off_c, 1, 62, 0
1, 34739, Note_off_c, 1, 43, 0
1, 34739, Note_off_c, 1, 70, 0
1, 34740, Note_on_c, 1, 67, 127
1, 34740, Note_on_c, 1, 74, 127
1, 34740, Note_on_c, 1, 55, 127
1, 34769, Note_off_c, 1, 67, 0
1, 34769, Note_off_c, 1, 74, 0
1, 34769, Note_off_c, 1, 55, 0
1, 34770, Note_on_c, 1, 66, 127
1, 34770, Note_on_c, 1, 78, 127
1, 34770, Note_on_c, 1, 57, 127
1, 34799, Note_off_c, 1, 66, 0
1, 34799, Note_off_c, 1, 78, 0
1, 34799, Note_off_c, 1, 57, 0
1, 34800, Note_on_c, 1, 67, 127
1, 34800, Note_on_c, 1, 79, 127
1, 34800, Note_on_c, 1, 58, 127
1, 34829, Note_off_c, 1, 58, 0
1, 34830, Note_on_c, 1, 60, 127
1, 34859, Note_off_c, 1, 67, 0
1, 34859, Note_off_c, 1, 79, 0
1, 34859, Note_off_c, 1, 60, 0
1, 34860, Note_on_c, 1, 62, 127
1, 34860, Note_on_c, 1, 74, 127
1, 34860, Note_on_c, 1, 58, 127
1, 34889, Note_off_c, 1, 62, 0
1, 34889, Note_off_c, 1, 74, 0
1, 34889, Note_off_c, 1, 58, 0
1, 34890, Note_on_c, 1, 60, 127
1, 34890, Note_on_c, 1, 72, 127
1, 34890, Note_on_c, 1, 57, 127
1, 34919, Note_off_c, 1, 60, 0
1, 34919, Note_off_c, 1, 72, 0
1, 34919, Note_off_c, 1, 57, 0
1, 34920, Note_on_c, 1, 62, 127
1, 34920, Note_on_c, 1, 74, 127
1, 34920, Note_on_c, 1, 58, 127
1, 34949, Note_off_c, 1, 58, 0
1, 34950, Note_on_c, 1, 57, 127
1, 34979, Note_off_c, 1, 62, 0
1, 34979, Note_off_c, 1, 74, 0
1, 34979, Note_off_c, 1, 57, 0
1, 34980, Note_on_c, 1, 58, 127
1, 34980, Note_on_c, 1, 70, 127
1, 34980, Note_on_c, 1, 55, 127
1, 35009, Note_off_c, 1, 58, 0
1, 35009, Note_off_c, 1, 70, 0
1, 35009, Note_off_c, 1, 55, 0
1, 35010, Note_on_c, 1, 57, 127
1, 35010, Note_on_c, 1, 69, 127
1, 35010, Note_on_c, 1, 54, 127
1, 35039, Note_off_c, 1, 57, 0
1, 35039, Note_off_c, 1, 69, 0
1, 35039, Note_off_c, 1, 54, 0
1, 35040, Note_on_c, 1, 58, 127
1, 35040, Note_on_c, 1, 70, 127
1, 35040, Note_on_c, 1, 55, 127
1, 35069, Note_off_c, 1, 55, 0
1, 35070, Note_on_c, 1, 50, 127
1, 35099, Note_off_c, 1, 58, 0
1, 35099, Note_off_c, 1, 70, 0
1, 35099, Note_off_c, 1, 50, 0
1, 35100, Note_on_c, 1, 55, 127
1, 35100, Note_on_c, 1, 67, 127
1, 35129, Note_off_c, 1, 55, 0
1, 35129, Note_off_c, 1, 67, 0
1, 35130, Note_on_c, 1, 54, 127
1, 35130, Note_on_c, 1, 66, 127
1, 35130, Note_on_c, 1, 57, 127
1, 35159, Note_off_c, 1, 54, 0
1, 35159, Note_off_c, 1, 66, 0
1, 35159, Note_off_c, 1, 57, 0
1, 35160, Note_on_c, 1, 55, 127
1, 35160, Note_on_c, 1, 67, 127
1, 35160, Note_on_c, 1, 58, 127
1, 35189, Note_off_c, 1, 58, 0
1, 35190, Note_on_c, 1, 57, 127
1, 35218, Note_off_c, 1, 55, 0
1, 35219, Note_off_c, 1, 67, 0
1, 35219, Note_off_c, 1, 57, 0
1, 35220, Note_on_c, 1, 58, 127
1, 35220, Note_on_c, 1, 70, 127
1, 35220, Note_on_c, 1, 55, 127
1, 35249, Note_off_c, 1, 55, 0
1, 35250, Note_on_c, 1, 57, 127
1, 35278, Note_off_c, 1, 58, 0
1, 35279, Note_off_c, 1, 70, 0
1, 35279, Note_off_c, 1, 57, 0
1, 35280, Note_on_c, 1, 62, 127
1, 35280, Note_on_c, 1, 74, 127
1, 35280, Note_on_c, 1, 58, 127
1, 35309, Note_off_c, 1, 58, 0
1, 35310, Note_on_c, 1, 57, 127
1, 35338, Note_off_c, 1, 62, 0
1, 35339, Note_off_c, 1, 74, 0
1, 35339, Note_off_c, 1, 57, 0
1, 35340, Note_on_c, 1, 67, 127
1, 35340, Note_on_c, 1, 79, 127
1, 35340, Note_on_c, 1, 58, 127
1, 35369, Note_off_c, 1, 58, 0
1, 35370, Note_on_c, 1, 55, 127
1, 35398, Note_off_c, 1, 67, 0
1, 35399, Note_off_c, 1, 79, 0
1, 35399, Note_off_c, 1, 55, 0
1, 35400, Note_on_c, 1, 69, 127
1, 35400, Note_on_c, 1, 81, 127
1, 35400, Note_on_c, 1, 62, 127
1, 35429, Note_off_c, 1, 69, 0
1, 35429, Note_off_c, 1, 81, 0
1, 35430, Note_on_c, 1, 67, 127
1, 35430, Note_on_c, 1, 79, 127
1, 35459, Note_off_c, 1, 62, 0
1, 35459, Note_off_c, 1, 67, 0
1, 35459, Note_off_c, 1, 79, 0
1, 35460, Note_on_c, 1, 66, 127
1, 35460, Note_on_c, 1, 78, 127
1, 35460, Note_on_c, 1, 50, 127
1, 35489, Note_off_c, 1, 66, 0
1, 35489, Note_off_c, 1, 78, 0
1, 35489, Note_off_c, 1, 50, 0
1, 35490, Note_on_c, 1, 64, 127
1, 35490, Note_on_c, 1, 76, 127
1, 35490, Note_on_c, 1, 52, 127
1, 35519, Note_off_c, 1, 64, 0
1, 35519, Note_off_c, 1, 76, 0
1, 35519, Note_off_c, 1, 52, 0
1, 35520, Note_on_c, 1, 62, 127
1, 35520, Note_on_c, 1, 74, 127
1, 35520, Note_on_c, 1, 54, 127
1, 35549, Note_off_c, 1, 62, 0
1, 35549, Note_off_c, 1, 74, 0
1, 35550, Note_on_c, 1, 63, 127
1, 35550, Note_on_c, 1, 72, 127
1, 35579, Note_off_c, 1, 54, 0
1, 35579, Note_off_c, 1, 63, 0
1, 35579, Note_off_c, 1, 72, 0
1, 35580, Note_on_c, 1, 62, 127
1, 35580, Note_on_c, 1, 70, 127
1, 35580, Note_on_c, 1, 50, 127
1, 35609, Note_off_c, 1, 62, 0
1, 35609, Note_off_c, 1, 70, 0
1, 35610, Note_on_c, 1, 60, 127
1, 35610, Note_on_c, 1, 69, 127
1, 35639, Note_off_c, 1, 50, 0
1, 35639, Note_off_c, 1, 60, 0
1, 35639, Note_off_c, 1, 69, 0
1, 35640, Note_on_c, 1, 58, 127
1, 35640, Note_on_c, 1, 67, 127
1, 35640, Note_on_c, 1, 55, 127
1, 35669, Note_off_c, 1, 58, 0
1, 35669, Note_off_c, 1, 67, 0
1, 35670, Note_on_c, 1, 70, 127
1, 35699, Note_off_c, 1, 55, 0
1, 35699, Note_off_c, 1, 70, 0
1, 35700, Note_on_c, 1, 57, 127
1, 35700, Note_on_c, 1, 74, 127
1, 35700, Note_on_c, 1, 43, 127
1, 35714, Note_off_c, 1, 57, 0
1, 35715, Note_on_c, 1, 58, 127
1, 35729, Note_off_c, 1, 74, 0
1, 35729, Note_off_c, 1, 58, 0
1, 35730, Note_on_c, 1, 60, 127
1, 35730, Note_on_c, 1, 66, 127
1, 35759, Note_off_c, 1, 43, 0
1, 35759, Note_off_c, 1, 60, 0
1, 35759, Note_off_c, 1, 66, 0
1, 35760, Note_on_c, 1, 58, 127
1, 35760, Note_on_c, 1, 67, 127
1, 35789, Note_off_c, 1, 67, 0
1, 35790, Note_on_c, 1, 70, 127
1, 35819, Note_off_c, 1, 58, 0
1, 35819, Note_off_c, 1, 70, 0
1, 35820, Note_on_c, 1, 57, 127
1, 35820, Note_on_c, 1, 74, 127
1, 35820, Note_on_c, 1, 38, 127
1, 35834, Note_off_c, 1, 57, 0
1, 35835, Note_on_c, 1, 58, 127
1, 35849, Note_off_c, 1, 74, 0
1, 35849, Note_off_c, 1, 58, 0
1, 35850, Note_on_c, 1, 60, 127
1, 35850, Note_on_c, 1, 66, 127
1, 35879, Note_off_c, 1, 38, 0
1, 35879, Note_off_c, 1, 60, 0
1, 35879, Note_off_c, 1, 66, 0
1, 35880, Note_on_c, 1, 58, 127
1, 35880, Note_on_c, 1, 67, 127
1, 35880, Note_on_c, 1, 43, 127
1, 35909, Note_off_c, 1, 67, 0
1, 35910, Note_on_c, 1, 70, 127
1, 35939, Note_off_c, 1, 58, 0
1, 35939, Note_off_c, 1, 43, 0
1, 35939, Note_off_c, 1, 70, 0
1, 35940, Note_on_c, 1, 50, 127
1, 35940, Note_on_c, 1, 74, 127
1, 35940, Note_on_c, 1, 55, 127
1, 35969, Note_off_c, 1, 50, 0
1, 35969, Note_off_c, 1, 74, 0
1, 35969, Note_off_c, 1, 55, 0
1, 35970, Note_on_c, 1, 59, 127
1, 35970, Note_on_c, 1, 67, 127
1, 35970, Note_on_c, 1, 53, 127
1, 35999, Note_off_c, 1, 59, 0
1, 35999, Note_off_c, 1, 67, 0
1, 35999, Note_off_c, 1, 53, 0
1, 36000, Note_on_c, 1, 51, 127
1, 36000, Note_on_c, 1, 79, 127
1, 36029, Note_off_c, 1, 51, 0
1, 36030, Note_on_c, 1, 60, 127
1, 36030, Note_on_c, 1, 50, 127
1, 36059, Note_off_c, 1, 60, 0
1, 36059, Note_off_c, 1, 50, 0
1, 36060, Note_on_c, 1, 53, 127
1, 36060, Note_on_c, 1, 48, 127
1, 36089, Note_off_c, 1, 53, 0
1, 36089, Note_off_c, 1, 48, 0
1, 36090, Note_on_c, 1, 62, 127
1, 36090, Note_on_c, 1, 47, 127
1, 36119, Note_off_c, 1, 62, 0
1, 36119, Note_off_c, 1, 47, 0
1, 36120, Note_on_c, 1, 63, 127
1, 36149, Note_off_c, 1, 79, 0
1, 36150, Note_on_c, 1, 77, 127
1, 36179, Note_off_c, 1, 63, 0
1, 36179, Note_off_c, 1, 77, 0
1, 36180, Note_on_c, 1, 55, 127
1, 36180, Note_on_c, 1, 75, 127
1, 36194, Note_off_c, 1, 55, 0
1, 36195, Note_on_c, 1, 57, 127
1, 36209, Note_off_c, 1, 75, 0
1, 36209, Note_off_c, 1, 57, 0
1, 36210, Note_on_c, 1, 58, 127
1, 36210, Note_on_c, 1, 74, 127
1, 36239, Note_off_c, 1, 58, 0
1, 36239, Note_off_c, 1, 74, 0
1, 36240, Note_on_c, 1, 57, 127
1, 36240, Note_on_c, 1, 72, 127
1, 36269, Note_off_c, 1, 72, 0
1, 36270, Note_on_c, 1, 74, 127
1, 36299, Note_off_c, 1, 57, 0
1, 36299, Note_off_c, 1, 74, 0
1, 36300, Note_on_c, 1, 55, 127
1, 36300, Note_on_c, 1, 75, 127
1, 36300, Note_on_c, 1, 36, 127
1, 36314, Note_off_c, 1, 55, 0
1, 36315, Note_on_c, 1, 57, 127
1, 36329, Note_off_c, 1, 57, 0
1, 36330, Note_on_c, 1, 58, 127
1, 36359, Note_off_c, 1, 36, 0
1, 36359, Note_off_c, 1, 58, 0
1, 36360, Note_on_c, 1, 41, 127
1, 36389, Note_off_c, 1, 75, 0
1, 36390, Note_on_c, 1, 69, 127
1, 36419, Note_off_c, 1, 41, 0
1, 36419, Note_off_c, 1, 69, 0
1, 36420, Note_on_c, 1, 48, 127
1, 36420, Note_on_c, 1, 72, 127
1, 36420, Note_on_c, 1, 53, 127
1, 36449, Note_off_c, 1, 48, 0
1, 36449, Note_off_c, 1, 72, 0
1, 36449, Note_off_c, 1, 53, 0
1, 36450, Note_on_c, 1, 57, 127
1, 36450, Note_on_c, 1, 65, 127
1, 36450, Note_on_c, 1, 51, 127
1, 36479, Note_off_c, 1, 57, 0
1, 36479, Note_off_c, 1, 65, 0
1, 36479, Note_off_c, 1, 51, 0
1, 36480, Note_on_c, 1, 50, 127
1, 36480, Note_on_c, 1, 77, 127
1, 36509, Note_off_c, 1, 50, 0
1, 36510, Note_on_c, 1, 58, 127
1, 36510, Note_on_c, 1, 48, 127
1, 36539, Note_off_c, 1, 58, 0
1, 36539, Note_off_c, 1, 48, 0
1, 36540, Note_on_c, 1, 51, 127
1, 36540, Note_on_c, 1, 46, 127
1, 36569, Note_off_c, 1, 51, 0
1, 36569, Note_off_c, 1, 46, 0
1, 36570, Note_on_c, 1, 60, 127
1, 36570, Note_on_c, 1, 45, 127
1, 36599, Note_off_c, 1, 60, 0
1, 36599, Note_off_c, 1, 45, 0
1, 36600, Note_on_c, 1, 62, 127
1, 36629, Note_off_c, 1, 77, 0
1, 36629, Note_off_c, 1, 62, 0
1, 36630, Note_on_c, 1, 75, 127
1, 36659, Note_off_c, 1, 75, 0
1, 36660, Note_on_c, 1, 53, 127
1, 36660, Note_on_c, 1, 74, 127
1, 36674, Note_off_c, 1, 53, 0
1, 36675, Note_on_c, 1, 55, 127
1, 36689, Note_off_c, 1, 74, 0
1, 36689, Note_off_c, 1, 55, 0
1, 36690, Note_on_c, 1, 56, 127
1, 36690, Note_on_c, 1, 72, 127
1, 36719, Note_off_c, 1, 56, 0
1, 36719, Note_off_c, 1, 72, 0
1, 36720, Note_on_c, 1, 55, 127
1, 36720, Note_on_c, 1, 70, 127
1, 36749, Note_off_c, 1, 70, 0
1, 36750, Note_on_c, 1, 72, 127
1, 36779, Note_off_c, 1, 55, 0
1, 36779, Note_off_c, 1, 72, 0
1, 36780, Note_on_c, 1, 53, 127
1, 36780, Note_on_c, 1, 74, 127
1, 36780, Note_on_c, 1, 46, 127
1, 36794, Note_off_c, 1, 53, 0
1, 36795, Note_on_c, 1, 55, 127
1, 36809, Note_off_c, 1, 55, 0
1, 36810, Note_on_c, 1, 56, 127
1, 36839, Note_off_c, 1, 46, 0
1, 36839, Note_off_c, 1, 56, 0
1, 36840, Note_on_c, 1, 39, 127
1, 36869, Note_off_c, 1, 74, 0
1, 36870, Note_on_c, 1, 67, 127
1, 36899, Note_off_c, 1, 39, 0
1, 36899, Note_off_c, 1, 67, 0
1, 36900, Note_on_c, 1, 55, 127
1, 36900, Note_on_c, 1, 70, 127
1, 36900, Note_on_c, 1, 51, 127
1, 36929, Note_off_c, 1, 55, 0
1, 36929, Note_off_c, 1, 70, 0
1, 36929, Note_off_c, 1, 51, 0
1, 36930, Note_on_c, 1, 63, 127
1, 36930, Note_on_c, 1, 50, 127
1, 36959, Note_off_c, 1, 63, 0
1, 36959, Note_off_c, 1, 50, 0
1, 36960, Note_on_c, 1, 57, 127
1, 36960, Note_on_c, 1, 75, 127
1, 36960, Note_on_c, 1, 48, 127
1, 36989, Note_off_c, 1, 57, 0
1, 36989, Note_off_c, 1, 75, 0
1, 36990, Note_on_c, 1, 63, 127
1, 36990, Note_on_c, 1, 69, 127
1, 37019, Note_off_c, 1, 48, 0
1, 37019, Note_off_c, 1, 63, 0
1, 37019, Note_off_c, 1, 69, 0
1, 37020, Note_on_c, 1, 62, 127
1, 37020, Note_on_c, 1, 70, 127
1, 37020, Note_on_c, 1, 46, 127
1, 37049, Note_off_c, 1, 62, 0
1, 37049, Note_off_c, 1, 70, 0
1, 37050, Note_on_c, 1, 58, 127
1, 37050, Note_on_c, 1, 67, 127
1, 37079, Note_off_c, 1, 46, 0
1, 37079, Note_off_c, 1, 58, 0
1, 37079, Note_off_c, 1, 67, 0
1, 37080, Note_on_c, 1, 60, 127
1, 37080, Note_on_c, 1, 75, 127
1, 37080, Note_on_c, 1, 45, 127
1, 37109, Note_off_c, 1, 60, 0
1, 37109, Note_off_c, 1, 75, 0
1, 37110, Note_on_c, 1, 58, 127
1, 37110, Note_on_c, 1, 74, 127
1, 37139, Note_off_c, 1, 45, 0
1, 37139, Note_off_c, 1, 58, 0
1, 37139, Note_off_c, 1, 74, 0
1, 37140, Note_on_c, 1, 57, 127
1, 37140, Note_on_c, 1, 72, 127
1, 37169, Note_off_c, 1, 57, 0
1, 37169, Note_off_c, 1, 72, 0
1, 37170, Note_on_c, 1, 58, 127
1, 37170, Note_on_c, 1, 70, 127
1, 37170, Note_on_c, 1, 55, 127
1, 37199, Note_off_c, 1, 58, 0
1, 37199, Note_off_c, 1, 70, 0
1, 37199, Note_off_c, 1, 55, 0
1, 37200, Note_on_c, 1, 60, 127
1, 37200, Note_on_c, 1, 69, 127
1, 37200, Note_on_c, 1, 54, 127
1, 37229, Note_off_c, 1, 69, 0
1, 37230, Note_on_c, 1, 67, 127
1, 37259, Note_off_c, 1, 54, 0
1, 37259, Note_off_c, 1, 67, 0
1, 37260, Note_on_c, 1, 66, 127
1, 37260, Note_on_c, 1, 57, 127
1, 37289, Note_off_c, 1, 66, 0
1, 37290, Note_on_c, 1, 64, 127
1, 37319, Note_off_c, 1, 57, 0
1, 37319, Note_off_c, 1, 64, 0
1, 37320, Note_on_c, 1, 50, 127
1, 37349, Note_off_c, 1, 60, 0
1, 37350, Note_on_c, 1, 58, 127
1, 37350, Note_on_c, 1, 74, 127
1, 37379, Note_off_c, 1, 50, 0
1, 37379, Note_off_c, 1, 58, 0
1, 37379, Note_off_c, 1, 74, 0
1, 37380, Note_on_c, 1, 57, 127
1, 37380, Note_on_c, 1, 67, 127
1, 37380, Note_on_c, 1, 38, 127
1, 37409, Note_off_c, 1, 57, 0
1, 37409, Note_off_c, 1, 67, 0
1, 37410, Note_on_c, 1, 58, 127
1, 37410, Note_on_c, 1, 74, 127
1, 37439, Note_off_c, 1, 38, 0
1, 37439, Note_off_c, 1, 58, 0
1, 37439, Note_off_c, 1, 74, 0
1, 37440, Note_on_c, 1, 60, 127
1, 37440, Note_on_c, 1, 69, 127
1, 37440, Note_on_c, 1, 38, 127
1, 37469, Note_off_c, 1, 60, 0
1, 37469, Note_off_c, 1, 69, 0
1, 37470, Note_on_c, 1, 58, 127
1, 37470, Note_on_c, 1, 74, 127
1, 37499, Note_off_c, 1, 38, 0
1, 37499, Note_off_c, 1, 58, 0
1, 37499, Note_off_c, 1, 74, 0
1, 37500, Note_on_c, 1, 60, 127
1, 37500, Note_on_c, 1, 66, 127
1, 37500, Note_on_c, 1, 38, 127
1, 37529, Note_off_c, 1, 60, 0
1, 37529, Note_off_c, 1, 66, 0
1, 37530, Note_on_c, 1, 57, 127
1, 37530, Note_on_c, 1, 74, 127
1, 37559, Note_off_c, 1, 38, 0
1, 37559, Note_off_c, 1, 57, 0
1, 37559, Note_off_c, 1, 74, 0
1, 37560, Note_on_c, 1, 58, 127
1, 37560, Note_on_c, 1, 67, 127
1, 37560, Note_on_c, 1, 50, 127
1, 37589, Note_off_c, 1, 58, 0
1, 37589, Note_off_c, 1, 67, 0
1, 37590, Note_on_c, 1, 57, 127
1, 37590, Note_on_c, 1, 74, 127
1, 37619, Note_off_c, 1, 50, 0
1, 37619, Note_off_c, 1, 57, 0
1, 37619, Note_off_c, 1, 74, 0
1, 37620, Note_on_c, 1, 55, 127
1, 37620, Note_on_c, 1, 69, 127
1, 37620, Note_on_c, 1, 38, 127
1, 37649, Note_off_c, 1, 55, 0
1, 37649, Note_off_c, 1, 69, 0
1, 37650, Note_on_c, 1, 54, 127
1, 37650, Note_on_c, 1, 74, 127
1, 37679, Note_off_c, 1, 38, 0
1, 37679, Note_off_c, 1, 54, 0
1, 37679, Note_off_c, 1, 74, 0
1, 37680, Note_on_c, 1, 55, 127
1, 37680, Note_on_c, 1, 70, 127
1, 37680, Note_on_c, 1, 38, 127
1, 37709, Note_off_c, 1, 55, 0
1, 37709, Note_off_c, 1, 70, 0
1, 37710, Note_on_c, 1, 58, 127
1, 37710, Note_on_c, 1, 74, 127
1, 37739, Note_off_c, 1, 38, 0
1, 37739, Note_off_c, 1, 58, 0
1, 37739, Note_off_c, 1, 74, 0
1, 37740, Note_on_c, 1, 62, 127
1, 37740, Note_on_c, 1, 67, 127
1, 37740, Note_on_c, 1, 38, 127
1, 37769, Note_off_c, 1, 62, 0
1, 37769, Note_off_c, 1, 67, 0
1, 37770, Note_on_c, 1, 55, 127
1, 37770, Note_on_c, 1, 74, 127
1, 37799, Note_off_c, 1, 38, 0
1, 37799, Note_off_c, 1, 55, 0
1, 37799, Note_off_c, 1, 74, 0
1, 37800, Note_on_c, 1, 54, 127
1, 37800, Note_on_c, 1, 69, 127
1, 37800, Note_on_c, 1, 50, 127
1, 37829, Note_off_c, 1, 54, 0
1, 37829, Note_off_c, 1, 69, 0
1, 37830, Note_on_c, 1, 52, 127
1, 37830, Note_on_c, 1, 74, 127
1, 37859, Note_off_c, 1, 50, 0
1, 37859, Note_off_c, 1, 52, 0
1, 37859, Note_off_c, 1, 74, 0
1, 37860, Note_on_c, 1, 50, 127
1, 37860, Note_on_c, 1, 70, 127
1, 37860, Note_on_c, 1, 38, 127
1, 37889, Note_off_c, 1, 50, 0
1, 37889, Note_off_c, 1, 70, 0
1, 37890, Note_on_c, 1, 52, 127
1, 37890, Note_on_c, 1, 74, 127
1, 37919, Note_off_c, 1, 38, 0
1, 37919, Note_off_c, 1, 52, 0
1, 37919, Note_off_c, 1, 74, 0
1, 37920, Note_on_c, 1, 54, 127
1, 37920, Note_on_c, 1, 72, 127
1, 37920, Note_on_c, 1, 38, 127
1, 37949, Note_off_c, 1, 54, 0
1, 37949, Note_off_c, 1, 72, 0
1, 37950, Note_on_c, 1, 55, 127
1, 37950, Note_on_c, 1, 74, 127
1, 37979, Note_off_c, 1, 38, 0
1, 37979, Note_off_c, 1, 55, 0
1, 37979, Note_off_c, 1, 74, 0
1, 37980, Note_on_c, 1, 57, 127
1, 37980, Note_on_c, 1, 69, 127
1, 37980, Note_on_c, 1, 38, 127
1, 38009, Note_off_c, 1, 57, 0
1, 38009, Note_off_c, 1, 69, 0
1, 38010, Note_on_c, 1, 54, 127
1, 38010, Note_on_c, 1, 74, 127
1, 38039, Note_off_c, 1, 38, 0
1, 38039, Note_off_c, 1, 54, 0
1, 38039, Note_off_c, 1, 74, 0
1, 38040, Note_on_c, 1, 55, 127
1, 38040, Note_on_c, 1, 70, 127
1, 38040, Note_on_c, 1, 43, 127
1, 38069, Note_off_c, 1, 70, 0
1, 38070, Note_on_c, 1, 66, 127
1, 38099, Note_off_c, 1, 55, 0
1, 38099, Note_off_c, 1, 43, 0
1, 38099, Note_off_c, 1, 66, 0
1, 38100, Note_on_c, 1, 62, 127
1, 38100, Note_on_c, 1, 67, 127
1, 38100, Note_on_c, 1, 55, 127
1, 38129, Note_off_c, 1, 62, 0
1, 38129, Note_off_c, 1, 55, 0
1, 38130, Note_on_c, 1, 54, 127
1, 38130, Note_on_c, 1, 57, 127
1, 38159, Note_off_c, 1, 54, 0
1, 38159, Note_off_c, 1, 57, 0
1, 38160, Note_on_c, 1, 58, 127
1, 38189, Note_off_c, 1, 67, 0
1, 38190, Note_on_c, 1, 74, 127
1, 38219, Note_off_c, 1, 58, 0
1, 38219, Note_off_c, 1, 74, 0
1, 38220, Note_on_c, 1, 70, 127
1, 38249, Note_off_c, 1, 70, 0
1, 38280, Note_on_c, 1, 75, 127
1, 38280, Note_on_c, 1, 60, 127
1, 38309, Note_off_c, 1, 75, 0
1, 38310, Note_on_c, 1, 66, 127
1, 38339, Note_off_c, 1, 60, 0
1, 38339, Note_off_c, 1, 66, 0
1, 38340, Note_on_c, 1, 63, 127
1, 38340, Note_on_c, 1, 67, 127
1, 38340, Note_on_c, 1, 48, 127
1, 38369, Note_off_c, 1, 63, 0
1, 38369, Note_off_c, 1, 48, 0
1, 38370, Note_on_c, 1, 54, 127
1, 38370, Note_on_c, 1, 50, 127
1, 38399, Note_off_c, 1, 54, 0
1, 38399, Note_off_c, 1, 50, 0
1, 38400, Note_on_c, 1, 55, 127
1, 38400, Note_on_c, 1, 51, 127
1, 38429, Note_off_c, 1, 67, 0
1, 38430, Note_on_c, 1, 75, 127
1, 38459, Note_off_c, 1, 51, 0
1, 38459, Note_off_c, 1, 75, 0
1, 38460, Note_on_c, 1, 72, 127
1, 38460, Note_on_c, 1, 45, 127
1, 38489, Note_off_c, 1, 72, 0
1, 38490, Note_on_c, 1, 69, 127
1, 38519, Note_off_c, 1, 45, 0
1, 38519, Note_off_c, 1, 69, 0
1, 38520, Note_on_c, 1, 74, 127
1, 38520, Note_on_c, 1, 46, 127
1, 38549, Note_off_c, 1, 74, 0
1, 38550, Note_on_c, 1, 66, 127
1, 38579, Note_off_c, 1, 55, 0
1, 38579, Note_off_c, 1, 46, 0
1, 38579, Note_off_c, 1, 66, 0
1, 38580, Note_on_c, 1, 62, 127
1, 38580, Note_on_c, 1, 67, 127
1, 38580, Note_on_c, 1, 43, 127
1, 38609, Note_off_c, 1, 62, 0
1, 38609, Note_off_c, 1, 67, 0
1, 38610, Note_on_c, 1, 54, 127
1, 38610, Note_on_c, 1, 70, 127
1, 38639, Note_off_c, 1, 43, 0
1, 38639, Note_off_c, 1, 54, 0
1, 38639, Note_off_c, 1, 70, 0
1, 38640, Note_on_c, 1, 55, 127
1, 38640, Note_on_c, 1, 75, 127
1, 38640, Note_on_c, 1, 48, 127
1, 38669, Note_off_c, 1, 75, 0
1, 38670, Note_on_c, 1, 66, 127
1, 38699, Note_off_c, 1, 55, 0
1, 38699, Note_off_c, 1, 48, 0
1, 38699, Note_off_c, 1, 66, 0
1, 38700, Note_on_c, 1, 63, 127
1, 38700, Note_on_c, 1, 67, 127
1, 38700, Note_on_c, 1, 45, 127
1, 38729, Note_off_c, 1, 63, 0
1, 38729, Note_off_c, 1, 67, 0
1, 38730, Note_on_c, 1, 54, 127
1, 38730, Note_on_c, 1, 72, 127
1, 38759, Note_off_c, 1, 45, 0
1, 38759, Note_off_c, 1, 54, 0
1, 38759, Note_off_c, 1, 72, 0
1, 38760, Note_on_c, 1, 55, 127
1, 38760, Note_on_c, 1, 74, 127
1, 38760, Note_on_c, 1, 46, 127
1, 38789, Note_off_c, 1, 46, 0
1, 38790, Note_on_c, 1, 45, 127
1, 38819, Note_off_c, 1, 55, 0
1, 38819, Note_off_c, 1, 45, 0
1, 38820, Note_on_c, 1, 67, 127
1, 38849, Note_off_c, 1, 74, 0
1, 38850, Note_on_c, 1, 75, 127
1, 38850, Note_on_c, 1, 48, 127
1, 38879, Note_off_c, 1, 75, 0
1, 38879, Note_off_c, 1, 48, 0
1, 38880, Note_on_c, 1, 70, 127
1, 38880, Note_on_c, 1, 50, 127
1, 38894, Note_off_c, 1, 70, 0
1, 38895, Note_on_c, 1, 69, 127
1, 38909, Note_off_c, 1, 50, 0
1, 38909, Note_off_c, 1, 69, 0
1, 38939, Note_off_c, 1, 67, 0
1, 38940, Note_on_c, 1, 65, 127
1, 38940, Note_on_c, 1, 70, 127
1, 38940, Note_on_c, 1, 50, 127
1, 38954, Note_off_c, 1, 70, 0
1, 38955, Note_on_c, 1, 69, 127
1, 38969, Note_off_c, 1, 50, 0
1, 38969, Note_off_c, 1, 69, 0
1, 38970, Note_on_c, 1, 67, 127
1, 38970, Note_on_c, 1, 45, 127
1, 38999, Note_off_c, 1, 67, 0
1, 38999, Note_off_c, 1, 45, 0
1, 39000, Note_on_c, 1, 47, 127
1, 39029, Note_off_c, 1, 65, 0
1, 39030, Note_on_c, 1, 62, 127
1, 39044, Note_off_c, 1, 62, 0
1, 39045, Note_on_c, 1, 64, 127
1, 39059, Note_off_c, 1, 47, 0
1, 39059, Note_off_c, 1, 64, 0
1, 39120, Note_on_c, 1, 65, 127
1, 39120, Note_on_c, 1, 55, 127
1, 39149, Note_off_c, 1, 65, 0
1, 39150, Note_on_c, 1, 62, 127
1, 39179, Note_off_c, 1, 55, 0
1, 39179, Note_off_c, 1, 62, 0
1, 39180, Note_on_c, 1, 55, 127
1, 39180, Note_on_c, 1, 82, 127
1, 39180, Note_on_c, 1, 43, 127
1, 39209, Note_off_c, 1, 55, 0
1, 39210, Note_on_c, 1, 65, 127
1, 39239, Note_off_c, 1, 43, 0
1, 39239, Note_off_c, 1, 65, 0
1, 39240, Note_on_c, 1, 63, 127
1, 39240, Note_on_c, 1, 48, 127
1, 39269, Note_off_c, 1, 82, 0
1, 39270, Note_on_c, 1, 79, 127
1, 39284, Note_off_c, 1, 79, 0
1, 39285, Note_on_c, 1, 81, 127
1, 39299, Note_off_c, 1, 48, 0
1, 39299, Note_off_c, 1, 81, 0
1, 39360, Note_off_c, 1, 63, 0
1, 39360, Note_on_c, 1, 60, 127
1, 39419, Note_off_c, 1, 60, 0
1, 39420, Note_on_c, 1, 63, 127
1, 39420, Note_on_c, 1, 72, 127
1, 39420, Note_on_c, 1, 48, 127
1, 39449, Note_off_c, 1, 72, 0
1, 39450, Note_on_c, 1, 82, 127
1, 39479, Note_off_c, 1, 48, 0
1, 39479, Note_off_c, 1, 82, 0
1, 39480, Note_on_c, 1, 53, 127
1, 39509, Note_off_c, 1, 63, 0
1, 39510, Note_on_c, 1, 60, 127
1, 39510, Note_on_c, 1, 81, 127
1, 39524, Note_off_c, 1, 60, 0
1, 39525, Note_on_c, 1, 62, 127
1, 39539, Note_off_c, 1, 53, 0
1, 39539, Note_off_c, 1, 62, 0
1, 39599, Note_off_c, 1, 81, 0
1, 39600, Note_on_c, 1, 63, 127
1, 39600, Note_on_c, 1, 41, 127
1, 39629, Note_off_c, 1, 63, 0
1, 39630, Note_on_c, 1, 60, 127
1, 39659, Note_off_c, 1, 41, 0
1, 39659, Note_off_c, 1, 60, 0
1, 39660, Note_on_c, 1, 53, 127
1, 39660, Note_on_c, 1, 80, 127
1, 39690, Note_on_c, 1, 63, 127
1, 39719, Note_off_c, 1, 53, 0
1, 39719, Note_off_c, 1, 63, 0
1, 39720, Note_on_c, 1, 62, 127
1, 39720, Note_on_c, 1, 46, 127
1, 39749, Note_off_c, 1, 80, 0
1, 39750, Note_on_c, 1, 77, 127
1, 39764, Note_off_c, 1, 77, 0
1, 39765, Note_on_c, 1, 79, 127
1, 39779, Note_off_c, 1, 62, 0
1, 39779, Note_off_c, 1, 46, 0
1, 39779, Note_off_c, 1, 79, 0
1, 39780, Note_on_c, 1, 53, 127
1, 39780, Note_on_c, 1, 80, 127
1, 39780, Note_on_c, 1, 48, 127
1, 39809, Note_off_c, 1, 80, 0
1, 39810, Note_on_c, 1, 77, 127
1, 39824, Note_off_c, 1, 77, 0
1, 39825, Note_on_c, 1, 79, 127
1, 39839, Note_off_c, 1, 53, 0
1, 39839, Note_off_c, 1, 48, 0
1, 39839, Note_off_c, 1, 79, 0
1, 39840, Note_on_c, 1, 58, 127
1, 39840, Note_on_c, 1, 80, 127
1, 39840, Note_on_c, 1, 50, 127
1, 39869, Note_off_c, 1, 80, 0
1, 39870, Note_on_c, 1, 77, 127
1, 39899, Note_off_c, 1, 50, 0
1, 39899, Note_off_c, 1, 77, 0
1, 39900, Note_on_c, 1, 70, 127
1, 39900, Note_on_c, 1, 46, 127
1, 39929, Note_off_c, 1, 70, 0
1, 39959, Note_off_c, 1, 46, 0
1, 39960, Note_on_c, 1, 79, 127
1, 39960, Note_on_c, 1, 51, 127
1, 39989, Note_off_c, 1, 58, 0
1, 39989, Note_off_c, 1, 79, 0
1, 39990, Note_on_c, 1, 60, 127
1, 39990, Note_on_c, 1, 72, 127
1, 40004, Note_off_c, 1, 60, 0
1, 40004, Note_off_c, 1, 72, 0
1, 40005, Note_on_c, 1, 74, 127
1, 40019, Note_off_c, 1, 51, 0
1, 40019, Note_off_c, 1, 74, 0
1, 40020, Note_on_c, 1, 57, 127
1, 40020, Note_on_c, 1, 75, 127
1, 40020, Note_on_c, 1, 55, 127
1, 40049, Note_off_c, 1, 57, 0
1, 40049, Note_off_c, 1, 75, 0
1, 40050, Note_on_c, 1, 58, 127
1, 40050, Note_on_c, 1, 72, 127
1, 40064, Note_off_c, 1, 72, 0
1, 40065, Note_on_c, 1, 74, 127
1, 40079, Note_off_c, 1, 55, 0
1, 40079, Note_off_c, 1, 58, 0
1, 40079, Note_off_c, 1, 74, 0
1, 40080, Note_on_c, 1, 60, 127
1, 40080, Note_on_c, 1, 75, 127
1, 40080, Note_on_c, 1, 48, 127
1, 40109, Note_off_c, 1, 75, 0
1, 40110, Note_on_c, 1, 72, 127
1, 40139, Note_off_c, 1, 48, 0
1, 40139, Note_off_c, 1, 72, 0
1, 40140, Note_on_c, 1, 67, 127
1, 40140, Note_on_c, 1, 51, 127
1, 40169, Note_off_c, 1, 67, 0
1, 40170, Note_on_c, 1, 70, 127
1, 40199, Note_off_c, 1, 51, 0
1, 40199, Note_off_c, 1, 70, 0
1, 40200, Note_on_c, 1, 69, 127
1, 40200, Note_on_c, 1, 53, 127
1, 40229, Note_off_c, 1, 60, 0
1, 40229, Note_off_c, 1, 69, 0
1, 40230, Note_on_c, 1, 62, 127
1, 40230, Note_on_c, 1, 74, 127
1, 40244, Note_off_c, 1, 62, 0
1, 40244, Note_off_c, 1, 74, 0
1, 40259, Note_off_c, 1, 53, 0
1, 40260, Note_on_c, 1, 58, 127
1, 40260, Note_on_c, 1, 77, 127
1, 40260, Note_on_c, 1, 57, 127
1, 40289, Note_off_c, 1, 58, 0
1, 40289, Note_off_c, 1, 77, 0
1, 40290, Note_on_c, 1, 60, 127
1, 40290, Note_on_c, 1, 74, 127
1, 40304, Note_off_c, 1, 74, 0
1, 40305, Note_on_c, 1, 75, 127
1, 40319, Note_off_c, 1, 57, 0
1, 40319, Note_off_c, 1, 60, 0
1, 40319, Note_off_c, 1, 75, 0
1, 40320, Note_on_c, 1, 62, 127
1, 40320, Note_on_c, 1, 77, 127
1, 40320, Note_on_c, 1, 50, 127
1, 40349, Note_off_c, 1, 77, 0
1, 40350, Note_on_c, 1, 74, 127
1, 40379, Note_off_c, 1, 50, 0
1, 40379, Note_off_c, 1, 74, 0
1, 40380, Note_on_c, 1, 69, 127
1, 40380, Note_on_c, 1, 53, 127
1, 40409, Note_off_c, 1, 69, 0
1, 40410, Note_on_c, 1, 72, 127
1, 40439, Note_off_c, 1, 53, 0
1, 40439, Note_off_c, 1, 72, 0
1, 40440, Note_on_c, 1, 70, 127
1, 40440, Note_on_c, 1, 55, 127
1, 40469, Note_off_c, 1, 62, 0
1, 40469, Note_off_c, 1, 70, 0
1, 40470, Note_on_c, 1, 63, 127
1, 40470, Note_on_c, 1, 75, 127
1, 40484, Note_off_c, 1, 63, 0
1, 40484, Note_off_c, 1, 75, 0
1, 40499, Note_off_c, 1, 55, 0
1, 40500, Note_on_c, 1, 60, 127
1, 40500, Note_on_c, 1, 79, 127
1, 40500, Note_on_c, 1, 58, 127
1, 40529, Note_off_c, 1, 60, 0
1, 40529, Note_off_c, 1, 79, 0
1, 40530, Note_on_c, 1, 62, 127
1, 40530, Note_on_c, 1, 75, 127
1, 40544, Note_off_c, 1, 75, 0
1, 40545, Note_on_c, 1, 77, 127
1, 40559, Note_off_c, 1, 58, 0
1, 40559, Note_off_c, 1, 62, 0
1, 40559, Note_off_c, 1, 77, 0
1, 40560, Note_on_c, 1, 63, 127
1, 40560, Note_on_c, 1, 79, 127
1, 40560, Note_on_c, 1, 51, 127
1, 40589, Note_off_c, 1, 79, 0
1, 40590, Note_on_c, 1, 75, 127
1, 40619, Note_off_c, 1, 51, 0
1, 40619, Note_off_c, 1, 75, 0
1, 40620, Note_on_c, 1, 70, 127
1, 40620, Note_on_c, 1, 55, 127
1, 40649, Note_off_c, 1, 70, 0
1, 40650, Note_on_c, 1, 74, 127
1, 40679, Note_off_c, 1, 55, 0
1, 40679, Note_off_c, 1, 74, 0
1, 40680, Note_on_c, 1, 72, 127
1, 40680, Note_on_c, 1, 45, 127
1, 40709, Note_off_c, 1, 63, 0
1, 40709, Note_off_c, 1, 72, 0
1, 40710, Note_on_c, 1, 60, 127
1, 40710, Note_on_c, 1, 69, 127
1, 40724, Note_off_c, 1, 60, 0
1, 40724, Note_off_c, 1, 69, 0
1, 40725, Note_on_c, 1, 62, 127
1, 40739, Note_off_c, 1, 62, 0
1, 40799, Note_off_c, 1, 45, 0
1, 40800, Note_on_c, 1, 63, 127
1, 40800, Note_on_c, 1, 72, 127
1, 40829, Note_off_c, 1, 63, 0
1, 40829, Note_off_c, 1, 72, 0
1, 40830, Note_on_c, 1, 60, 127
1, 40830, Note_on_c, 1, 69, 127
1, 40859, Note_off_c, 1, 60, 0
1, 40859, Note_off_c, 1, 69, 0
1, 40860, Note_on_c, 1, 65, 127
1, 40860, Note_on_c, 1, 51, 127
1, 40890, Note_on_c, 1, 69, 127
1, 40919, Note_off_c, 1, 51, 0
1, 40919, Note_off_c, 1, 69, 0
1, 40920, Note_on_c, 1, 70, 127
1, 40920, Note_on_c, 1, 50, 127
1, 40949, Note_off_c, 1, 70, 0
1, 40949, Note_off_c, 1, 50, 0
1, 40950, Note_on_c, 1, 48, 127
1, 40979, Note_off_c, 1, 48, 0
1, 41009, Note_off_c, 1, 65, 0
1, 41010, Note_on_c, 1, 67, 127
1, 41010, Note_on_c, 1, 79, 127
1, 41010, Note_on_c, 1, 51, 127
1, 41039, Note_off_c, 1, 67, 0
1, 41039, Note_off_c, 1, 79, 0
1, 41039, Note_off_c, 1, 51, 0
1, 41040, Note_on_c, 1, 60, 127
1, 41040, Note_on_c, 1, 69, 127
1, 41040, Note_on_c, 1, 53, 127
1, 41059, Note_off_c, 1, 60, 0
1, 41059, Note_off_c, 1, 69, 0
1, 41060, Note_on_c, 1, 62, 127
1, 41060, Note_on_c, 1, 70, 127
1, 41079, Note_off_c, 1, 62, 0
1, 41079, Note_off_c, 1, 70, 0
1, 41099, Note_off_c, 1, 53, 0
1, 41100, Note_on_c, 1, 62, 127
1, 41100, Note_on_c, 1, 70, 127
1, 41100, Note_on_c, 1, 41, 127
1, 41114, Note_off_c, 1, 62, 0
1, 41114, Note_off_c, 1, 70, 0
1, 41115, Note_on_c, 1, 60, 127
1, 41115, Note_on_c, 1, 69, 127
1, 41129, Note_off_c, 1, 60, 0
1, 41129, Note_off_c, 1, 69, 0
1, 41130, Note_on_c, 1, 58, 127
1, 41159, Note_off_c, 1, 41, 0
1, 41159, Note_off_c, 1, 58, 0
1, 41160, Note_on_c, 1, 58, 127
1, 41160, Note_on_c, 1, 70, 127
1, 41160, Note_on_c, 1, 46, 127
1, 41189, Note_off_c, 1, 58, 0
1, 41189, Note_off_c, 1, 70, 0
1, 41190, Note_on_c, 1, 62, 127
1, 41190, Note_on_c, 1, 79, 127
1, 41204, Note_off_c, 1, 79, 0
1, 41205, Note_on_c, 1, 81, 127
1, 41219, Note_off_c, 1, 62, 0
1, 41219, Note_off_c, 1, 81, 0
1, 41220, Note_on_c, 1, 82, 127
1, 41249, Note_off_c, 1, 82, 0
1, 41250, Note_on_c, 1, 67, 127
1, 41279, Note_off_c, 1, 46, 0
1, 41279, Note_off_c, 1, 67, 0
1, 41280, Note_on_c, 1, 67, 127
1, 41280, Note_on_c, 1, 82, 127
1, 41309, Note_off_c, 1, 67, 0
1, 41309, Note_off_c, 1, 82, 0
1, 41310, Note_on_c, 1, 70, 127
1, 41310, Note_on_c, 1, 67, 127
1, 41324, Note_off_c, 1, 67, 0
1, 41325, Note_on_c, 1, 69, 127
1, 41339, Note_off_c, 1, 70, 0
1, 41339, Note_off_c, 1, 69, 0
1, 41340, Note_on_c, 1, 70, 127
1, 41340, Note_on_c, 1, 43, 127
1, 41369, Note_off_c, 1, 70, 0
1, 41370, Note_on_c, 1, 64, 127
1, 41370, Note_on_c, 1, 67, 127
1, 41384, Note_off_c, 1, 67, 0
1, 41385, Note_on_c, 1, 69, 127
1, 41399, Note_off_c, 1, 43, 0
1, 41399, Note_off_c, 1, 64, 0
1, 41399, Note_off_c, 1, 69, 0
1, 41400, Note_on_c, 1, 64, 127
1, 41400, Note_on_c, 1, 70, 127
1, 41400, Note_on_c, 1, 48, 127
1, 41429, Note_off_c, 1, 64, 0
1, 41430, Note_on_c, 1, 60, 127
1, 41459, Note_off_c, 1, 48, 0
1, 41459, Note_off_c, 1, 60, 0
1, 41460, Note_off_c, 1, 70, 0
1, 41460, Note_on_c, 1, 65, 127
1, 41460, Note_on_c, 1, 50, 127
1, 41489, Note_off_c, 1, 65, 0
1, 41490, Note_on_c, 1, 57, 127
1, 41519, Note_off_c, 1, 50, 0
1, 41519, Note_off_c, 1, 57, 0
1, 41520, Note_on_c, 1, 55, 127
1, 41520, Note_on_c, 1, 46, 127
1, 41549, Note_off_c, 1, 55, 0
1, 41550, Note_on_c, 1, 65, 127
1, 41579, Note_off_c, 1, 46, 0
1, 41579, Note_off_c, 1, 65, 0
1, 41580, Note_on_c, 1, 55, 127
1, 41580, Note_on_c, 1, 48, 127
1, 41609, Note_off_c, 1, 55, 0
1, 41610, Note_on_c, 1, 64, 127
1, 41639, Note_off_c, 1, 48, 0
1, 41639, Note_off_c, 1, 64, 0
1, 41640, Note_on_c, 1, 65, 127
1, 41640, Note_on_c, 1, 41, 127
1, 41669, Note_off_c, 1, 65, 0
1, 41670, Note_on_c, 1, 72, 127
1, 41685, Note_on_c, 1, 67, 127
1, 41699, Note_off_c, 1, 72, 0
1, 41699, Note_off_c, 1, 67, 0
1, 41700, Note_on_c, 1, 68, 127
1, 41729, Note_off_c, 1, 68, 0
1, 41730, Note_on_c, 1, 77, 127
1, 41759, Note_off_c, 1, 41, 0
1, 41759, Note_off_c, 1, 77, 0
1, 41760, Note_on_c, 1, 68, 127
1, 41760, Note_on_c, 1, 77, 127
1, 41789, Note_off_c, 1, 68, 0
1, 41789, Note_off_c, 1, 77, 0
1, 41790, Note_on_c, 1, 53, 127
1, 41790, Note_on_c, 1, 80, 127
1, 41804, Note_off_c, 1, 53, 0
1, 41805, Note_on_c, 1, 55, 127
1, 41819, Note_off_c, 1, 80, 0
1, 41819, Note_off_c, 1, 55, 0
1, 41820, Note_on_c, 1, 56, 127
1, 41820, Note_on_c, 1, 80, 127
1, 41820, Note_on_c, 1, 41, 127
1, 41849, Note_off_c, 1, 56, 0
1, 41849, Note_off_c, 1, 80, 0
1, 41850, Note_on_c, 1, 53, 127
1, 41850, Note_on_c, 1, 74, 127
1, 41864, Note_off_c, 1, 53, 0
1, 41865, Note_on_c, 1, 55, 127
1, 41879, Note_off_c, 1, 41, 0
1, 41879, Note_off_c, 1, 74, 0
1, 41879, Note_off_c, 1, 55, 0
1, 41880, Note_on_c, 1, 56, 127
1, 41880, Note_on_c, 1, 74, 127
1, 41880, Note_on_c, 1, 46, 127
1, 41909, Note_off_c, 1, 74, 0
1, 41910, Note_on_c, 1, 70, 127
1, 41939, Note_off_c, 1, 56, 0
1, 41939, Note_off_c, 1, 46, 0
1, 41939, Note_off_c, 1, 70, 0
1, 41940, Note_on_c, 1, 75, 127
1, 41940, Note_on_c, 1, 48, 127
1, 41969, Note_off_c, 1, 75, 0
1, 41970, Note_on_c, 1, 67, 127
1, 41999, Note_off_c, 1, 48, 0
1, 41999, Note_off_c, 1, 67, 0
1, 42000, Note_on_c, 1, 65, 127
1, 42000, Note_on_c, 1, 44, 127
1, 42029, Note_off_c, 1, 65, 0
1, 42030, Note_on_c, 1, 75, 127
1, 42059, Note_off_c, 1, 44, 0
1, 42059, Note_off_c, 1, 75, 0
1, 42060, Note_on_c, 1, 65, 127
1, 42060, Note_on_c, 1, 46, 127
1, 42089, Note_off_c, 1, 65, 0
1, 42090, Note_on_c, 1, 74, 127
1, 42119, Note_off_c, 1, 46, 0
1, 42119, Note_off_c, 1, 74, 0
1, 42120, Note_on_c, 1, 75, 127
1, 42120, Note_on_c, 1, 39, 127
1, 42150, Note_on_c, 1, 63, 127
1, 42164, Note_off_c, 1, 63, 0
1, 42165, Note_on_c, 1, 65, 127
1, 42179, Note_off_c, 1, 75, 0
1, 42179, Note_off_c, 1, 65, 0
1, 42180, Note_on_c, 1, 67, 127
1, 42180, Note_on_c, 1, 70, 127
1, 42209, Note_off_c, 1, 67, 0
1, 42239, Note_off_c, 1, 39, 0
1, 42239, Note_off_c, 1, 70, 0
1, 42240, Note_on_c, 1, 67, 127
1, 42240, Note_on_c, 1, 75, 127
1, 42269, Note_off_c, 1, 67, 0
1, 42270, Note_on_c, 1, 63, 127
1, 42299, Note_off_c, 1, 63, 0
1, 42300, Note_on_c, 1, 60, 127
1, 42300, Note_on_c, 1, 51, 127
1, 42329, Note_off_c, 1, 60, 0
1, 42359, Note_off_c, 1, 51, 0
1, 42360, Note_on_c, 1, 56, 127
1, 42360, Note_on_c, 1, 53, 127
1, 42389, Note_off_c, 1, 75, 0
1, 42389, Note_off_c, 1, 56, 0
1, 42390, Note_on_c, 1, 62, 127
1, 42390, Note_on_c, 1, 69, 127
1, 42404, Note_off_c, 1, 62, 0
1, 42419, Note_off_c, 1, 53, 0
1, 42419, Note_off_c, 1, 69, 0
1, 42420, Note_on_c, 1, 65, 127
1, 42420, Note_on_c, 1, 71, 127
1, 42420, Note_on_c, 1, 51, 127
1, 42449, Note_off_c, 1, 65, 0
1, 42449, Note_off_c, 1, 71, 0
1, 42450, Note_on_c, 1, 62, 127
1, 42450, Note_on_c, 1, 72, 127
1, 42464, Note_off_c, 1, 62, 0
1, 42465, Note_on_c, 1, 63, 127
1, 42479, Note_off_c, 1, 51, 0
1, 42479, Note_off_c, 1, 72, 0
1, 42479, Note_off_c, 1, 63, 0
1, 42480, Note_on_c, 1, 65, 127
1, 42480, Note_on_c, 1, 74, 127
1, 42480, Note_on_c, 1, 50, 127
1, 42509, Note_off_c, 1, 65, 0
1, 42510, Note_on_c, 1, 62, 127
1, 42539, Note_off_c, 1, 50, 0
1, 42539, Note_off_c, 1, 62, 0
1, 42540, Note_on_c, 1, 59, 127
1, 42540, Note_on_c, 1, 53, 127
1, 42569, Note_off_c, 1, 59, 0
1, 42599, Note_off_c, 1, 53, 0
1, 42600, Note_on_c, 1, 55, 127
1, 42600, Note_on_c, 1, 47, 127
1, 42629, Note_off_c, 1, 74, 0
1, 42629, Note_off_c, 1, 55, 0
1, 42630, Note_on_c, 1, 60, 127
1, 42630, Note_on_c, 1, 67, 127
1, 42644, Note_off_c, 1, 60, 0
1, 42659, Note_off_c, 1, 47, 0
1, 42659, Note_off_c, 1, 67, 0
1, 42660, Note_on_c, 1, 63, 127
1, 42660, Note_on_c, 1, 69, 127
1, 42660, Note_on_c, 1, 43, 127
1, 42689, Note_off_c, 1, 63, 0
1, 42689, Note_off_c, 1, 69, 0
1, 42690, Note_on_c, 1, 60, 127
1, 42690, Note_on_c, 1, 71, 127
1, 42704, Note_off_c, 1, 60, 0
1, 42705, Note_on_c, 1, 62, 127
1, 42719, Note_off_c, 1, 43, 0
1, 42719, Note_off_c, 1, 71, 0
1, 42719, Note_off_c, 1, 62, 0
1, 42720, Note_on_c, 1, 63, 127
1, 42720, Note_on_c, 1, 72, 127
1, 42749, Note_off_c, 1, 63, 0
1, 42750, Note_on_c, 1, 60, 127
1, 42779, Note_off_c, 1, 60, 0
1, 42780, Note_on_c, 1, 56, 127
1, 42780, Note_on_c, 1, 48, 127
1, 42809, Note_off_c, 1, 56, 0
1, 42809, Note_off_c, 1, 48, 0
1, 42810, Note_on_c, 1, 46, 127
1, 42839, Note_off_c, 1, 46, 0
1, 42840, Note_on_c, 1, 53, 127
1, 42840, Note_on_c, 1, 44, 127
1, 42869, Note_off_c, 1, 72, 0
1, 42869, Note_off_c, 1, 53, 0
1, 42869, Note_off_c, 1, 44, 0
1, 42870, Note_on_c, 1, 59, 127
1, 42870, Note_on_c, 1, 77, 127
1, 42870, Note_on_c, 1, 43, 127
1, 42884, Note_off_c, 1, 59, 0
1, 42885, Note_on_c, 1, 60, 127
1, 42899, Note_off_c, 1, 77, 0
1, 42899, Note_off_c, 1, 43, 0
1, 42899, Note_off_c, 1, 60, 0
1, 42900, Note_on_c, 1, 62, 127
1, 42900, Note_on_c, 1, 79, 127
1, 42900, Note_on_c, 1, 41, 127
1, 42929, Note_off_c, 1, 62, 0
1, 42929, Note_off_c, 1, 79, 0
1, 42930, Note_on_c, 1, 59, 127
1, 42930, Note_on_c, 1, 80, 127
1, 42944, Note_off_c, 1, 59, 0
1, 42945, Note_on_c, 1, 60, 127
1, 42959, Note_off_c, 1, 80, 0
1, 42959, Note_off_c, 1, 60, 0
1, 42960, Note_on_c, 1, 71, 127
1, 42989, Note_off_c, 1, 41, 0
1, 42990, Note_on_c, 1, 44, 127
1, 43019, Note_off_c, 1, 44, 0
1, 43020, Note_on_c, 1, 55, 127
1, 43020, Note_on_c, 1, 43, 127
1, 43049, Note_off_c, 1, 55, 0
1, 43049, Note_off_c, 1, 43, 0
1, 43079, Note_off_c, 1, 71, 0
1, 43080, Note_on_c, 1, 60, 127
1, 43080, Note_on_c, 1, 39, 127
1, 43110, Note_on_c, 1, 72, 127
1, 43124, Note_off_c, 1, 72, 0
1, 43125, Note_on_c, 1, 74, 127
1, 43139, Note_off_c, 1, 60, 0
1, 43139, Note_off_c, 1, 39, 0
1, 43139, Note_off_c, 1, 74, 0
1, 43140, Note_on_c, 1, 48, 127
1, 43140, Note_on_c, 1, 75, 127
1, 43140, Note_on_c, 1, 43, 127
1, 43169, Note_off_c, 1, 75, 0
1, 43170, Note_on_c, 1, 72, 127
1, 43184, Note_off_c, 1, 72, 0
1, 43185, Note_on_c, 1, 74, 127
1, 43199, Note_off_c, 1, 48, 0
1, 43199, Note_off_c, 1, 43, 0
1, 43199, Note_off_c, 1, 74, 0
1, 43200, Note_on_c, 1, 75, 127
1, 43200, Note_on_c, 1, 36, 127
1, 43229, Note_off_c, 1, 75, 0
1, 43230, Note_on_c, 1, 72, 127
1, 43259, Note_off_c, 1, 36, 0
1, 43259, Note_off_c, 1, 72, 0
1, 43260, Note_on_c, 1, 69, 127
1, 43260, Note_on_c, 1, 48, 127
1, 43289, Note_off_c, 1, 69, 0
1, 43290, Note_on_c, 1, 72, 127
1, 43319, Note_off_c, 1, 72, 0
1, 43320, Note_on_c, 1, 66, 127
1, 43350, Note_on_c, 1, 58, 127
1, 43364, Note_off_c, 1, 58, 0
1, 43365, Note_on_c, 1, 60, 127
1, 43379, Note_off_c, 1, 48, 0
1, 43379, Note_off_c, 1, 66, 0
1, 43379, Note_off_c, 1, 60, 0
1, 43380, Note_on_c, 1, 62, 127
1, 43380, Note_on_c, 1, 46, 127
1, 43409, Note_off_c, 1, 62, 0
1, 43409, Note_off_c, 1, 46, 0
1, 43410, Note_on_c, 1, 58, 127
1, 43410, Note_on_c, 1, 45, 127
1, 43424, Note_off_c, 1, 58, 0
1, 43425, Note_on_c, 1, 60, 127
1, 43439, Note_off_c, 1, 45, 0
1, 43439, Note_off_c, 1, 60, 0
1, 43440, Note_on_c, 1, 62, 127
1, 43440, Note_on_c, 1, 46, 127
1, 43469, Note_off_c, 1, 62, 0
1, 43470, Note_on_c, 1, 58, 127
1, 43499, Note_off_c, 1, 46, 0
1, 43499, Note_off_c, 1, 58, 0
1, 43500, Note_on_c, 1, 55, 127
1, 43500, Note_on_c, 1, 58, 127
1, 43529, Note_off_c, 1, 55, 0
1, 43560, Note_on_c, 1, 52, 127
1, 43590, Note_on_c, 1, 69, 127
1, 43604, Note_off_c, 1, 69, 0
1, 43605, Note_on_c, 1, 70, 127
1, 43619, Note_off_c, 1, 58, 0
1, 43619, Note_off_c, 1, 52, 0
1, 43619, Note_off_c, 1, 70, 0
1, 43620, Note_on_c, 1, 54, 127
1, 43620, Note_on_c, 1, 72, 127
1, 43620, Note_on_c, 1, 57, 127
1, 43649, Note_off_c, 1, 54, 0
1, 43649, Note_off_c, 1, 72, 0
1, 43649, Note_off_c, 1, 57, 0
1, 43650, Note_on_c, 1, 55, 127
1, 43650, Note_on_c, 1, 69, 127
1, 43664, Note_off_c, 1, 69, 0
1, 43665, Note_on_c, 1, 70, 127
1, 43679, Note_off_c, 1, 55, 0
1, 43679, Note_off_c, 1, 70, 0
1, 43680, Note_on_c, 1, 57, 127
1, 43680, Note_on_c, 1, 72, 127
1, 43680, Note_on_c, 1, 54, 127
1, 43709, Note_off_c, 1, 72, 0
1, 43710, Note_on_c, 1, 69, 127
1, 43739, Note_off_c, 1, 54, 0
1, 43739, Note_off_c, 1, 69, 0
1, 43740, Note_on_c, 1, 66, 127
1, 43740, Note_on_c, 1, 50, 127
1, 43769, Note_off_c, 1, 66, 0
1, 43799, Note_off_c, 1, 50, 0
1, 43800, Note_on_c, 1, 70, 127
1, 43800, Note_on_c, 1, 55, 127
1, 43829, Note_off_c, 1, 57, 0
1, 43859, Note_off_c, 1, 70, 0
1, 43859, Note_off_c, 1, 55, 0
1, 43860, Note_on_c, 1, 58, 127
1, 43860, Note_on_c, 1, 74, 127
1, 43860, Note_on_c, 1, 43, 127
1, 43889, Note_off_c, 1, 58, 0
1, 43890, Note_on_c, 1, 55, 127
1, 43904, Note_off_c, 1, 55, 0
1, 43905, Note_on_c, 1, 57, 127
1, 43919, Note_off_c, 1, 74, 0
1, 43919, Note_off_c, 1, 43, 0
1, 43919, Note_off_c, 1, 57, 0
1, 43920, Note_on_c, 1, 58, 127
1, 43920, Note_on_c, 1, 79, 127
1, 43934, Note_off_c, 1, 79, 0
1, 43935, Note_on_c, 1, 78, 127
1, 43949, Note_off_c, 1, 58, 0
1, 43949, Note_off_c, 1, 78, 0
1, 43950, Note_on_c, 1, 55, 127
1, 43950, Note_on_c, 1, 79, 127
1, 43979, Note_off_c, 1, 55, 0
1, 43980, Note_on_c, 1, 50, 127
1, 43980, Note_on_c, 1, 43, 127
1, 44009, Note_off_c, 1, 50, 0
1, 44010, Note_on_c, 1, 53, 127
1, 44039, Note_off_c, 1, 43, 0
1, 44039, Note_off_c, 1, 53, 0
1, 44040, Note_on_c, 1, 52, 127
1, 44040, Note_on_c, 1, 48, 127
1, 44069, Note_off_c, 1, 79, 0
1, 44069, Note_off_c, 1, 52, 0
1, 44070, Note_on_c, 1, 57, 127
1, 44070, Note_on_c, 1, 81, 127
1, 44084, Note_off_c, 1, 57, 0
1, 44084, Note_off_c, 1, 81, 0
1, 44085, Note_on_c, 1, 58, 127
1, 44099, Note_off_c, 1, 48, 0
1, 44099, Note_off_c, 1, 58, 0
1, 44100, Note_on_c, 1, 60, 127
1, 44100, Note_on_c, 1, 78, 127
1, 44100, Note_on_c, 1, 52, 127
1, 44129, Note_off_c, 1, 60, 0
1, 44129, Note_off_c, 1, 78, 0
1, 44130, Note_on_c, 1, 57, 127
1, 44130, Note_on_c, 1, 79, 127
1, 44144, Note_off_c, 1, 57, 0
1, 44145, Note_on_c, 1, 58, 127
1, 44159, Note_off_c, 1, 52, 0
1, 44159, Note_off_c, 1, 79, 0
1, 44159, Note_off_c, 1, 58, 0
1, 44160, Note_on_c, 1, 60, 127
1, 44160, Note_on_c, 1, 81, 127
1, 44160, Note_on_c, 1, 45, 127
1, 44174, Note_off_c, 1, 81, 0
1, 44175, Note_on_c, 1, 79, 127
1, 44189, Note_off_c, 1, 60, 0
1, 44189, Note_off_c, 1, 79, 0
1, 44190, Note_on_c, 1, 57, 127
1, 44219, Note_off_c, 1, 45, 0
1, 44219, Note_off_c, 1, 57, 0
1, 44220, Note_on_c, 1, 52, 127
1, 44220, Note_on_c, 1, 48, 127
1, 44249, Note_off_c, 1, 52, 0
1, 44250, Note_on_c, 1, 55, 127
1, 44279, Note_off_c, 1, 48, 0
1, 44279, Note_off_c, 1, 55, 0
1, 44280, Note_on_c, 1, 54, 127
1, 44280, Note_on_c, 1, 50, 127
1, 44309, Note_off_c, 1, 54, 0
1, 44310, Note_on_c, 1, 58, 127
1, 44310, Note_on_c, 1, 82, 127
1, 44324, Note_off_c, 1, 58, 0
1, 44324, Note_off_c, 1, 82, 0
1, 44339, Note_off_c, 1, 50, 0
1, 44340, Note_on_c, 1, 62, 127
1, 44340, Note_on_c, 1, 79, 127
1, 44340, Note_on_c, 1, 54, 127
1, 44369, Note_off_c, 1, 62, 0
1, 44369, Note_off_c, 1, 79, 0
1, 44370, Note_on_c, 1, 58, 127
1, 44370, Note_on_c, 1, 81, 127
1, 44384, Note_off_c, 1, 58, 0
1, 44385, Note_on_c, 1, 60, 127
1, 44399, Note_off_c, 1, 54, 0
1, 44399, Note_off_c, 1, 81, 0
1, 44399, Note_off_c, 1, 60, 0
1, 44400, Note_on_c, 1, 62, 127
1, 44400, Note_on_c, 1, 82, 127
1, 44400, Note_on_c, 1, 46, 127
1, 44414, Note_off_c, 1, 82, 0
1, 44415, Note_on_c, 1, 81, 127
1, 44429, Note_off_c, 1, 62, 0
1, 44429, Note_off_c, 1, 81, 0
1, 44430, Note_on_c, 1, 58, 127
1, 44459, Note_off_c, 1, 46, 0
1, 44459, Note_off_c, 1, 58, 0
1, 44460, Note_on_c, 1, 54, 127
1, 44460, Note_on_c, 1, 50, 127
1, 44489, Note_off_c, 1, 54, 0
1, 44490, Note_on_c, 1, 57, 127
1, 44519, Note_off_c, 1, 50, 0
1, 44519, Note_off_c, 1, 57, 0
1, 44520, Note_on_c, 1, 55, 127
1, 44520, Note_on_c, 1, 51, 127
1, 44549, Note_off_c, 1, 55, 0
1, 44550, Note_on_c, 1, 60, 127
1, 44550, Note_on_c, 1, 84, 127
1, 44564, Note_off_c, 1, 60, 0
1, 44564, Note_off_c, 1, 84, 0
1, 44579, Note_off_c, 1, 51, 0
1, 44580, Note_on_c, 1, 63, 127
1, 44580, Note_on_c, 1, 81, 127
1, 44580, Note_on_c, 1, 55, 127
1, 44609, Note_off_c, 1, 63, 0
1, 44609, Note_off_c, 1, 81, 0
1, 44610, Note_on_c, 1, 60, 127
1, 44610, Note_on_c, 1, 82, 127
1, 44624, Note_off_c, 1, 60, 0
1, 44625, Note_on_c, 1, 62, 127
1, 44639, Note_off_c, 1, 55, 0
1, 44639, Note_off_c, 1, 82, 0
1, 44639, Note_off_c, 1, 62, 0
1, 44640, Note_on_c, 1, 63, 127
1, 44640, Note_on_c, 1, 84, 127
1, 44640, Note_on_c, 1, 48, 127
1, 44654, Note_off_c, 1, 84, 0
1, 44655, Note_on_c, 1, 82, 127
1, 44669, Note_off_c, 1, 63, 0
1, 44669, Note_off_c, 1, 82, 0
1, 44670, Note_on_c, 1, 60, 127
1, 44699, Note_off_c, 1, 48, 0
1, 44699, Note_off_c, 1, 60, 0
1, 44700, Note_on_c, 1, 55, 127
1, 44700, Note_on_c, 1, 51, 127
1, 44729, Note_off_c, 1, 55, 0
1, 44730, Note_on_c, 1, 58, 127
1, 44759, Note_off_c, 1, 51, 0
1, 44759, Note_off_c, 1, 58, 0
1, 44760, Note_on_c, 1, 57, 127
1, 44760, Note_on_c, 1, 42, 127
1, 44789, Note_off_c, 1, 57, 0
1, 44790, Note_on_c, 1, 54, 127
1, 44790, Note_on_c, 1, 81, 127
1, 44804, Note_off_c, 1, 54, 0
1, 44804, Note_off_c, 1, 81, 0
1, 44879, Note_off_c, 1, 42, 0
1, 44880, Note_on_c, 1, 57, 127
1, 44880, Note_on_c, 1, 84, 127
1, 44909, Note_off_c, 1, 57, 0
1, 44909, Note_off_c, 1, 84, 0
1, 44910, Note_on_c, 1, 54, 127
1, 44910, Note_on_c, 1, 81, 127
1, 44910, Note_on_c, 1, 48, 127
1, 44939, Note_off_c, 1, 54, 0
1, 44939, Note_off_c, 1, 81, 0
1, 44939, Note_off_c, 1, 48, 0
1, 44940, Note_on_c, 1, 50, 127
1, 44940, Note_on_c, 1, 86, 127
1, 44940, Note_on_c, 1, 46, 127
1, 44969, Note_off_c, 1, 50, 0
1, 44969, Note_off_c, 1, 46, 0
1, 44970, Note_on_c, 1, 54, 127
1, 44970, Note_on_c, 1, 45, 127
1, 44999, Note_off_c, 1, 54, 0
1, 44999, Note_off_c, 1, 45, 0
1, 45000, Note_on_c, 1, 55, 127
1, 45029, Note_off_c, 1, 86, 0
1, 45029, Note_off_c, 1, 55, 0
1, 45030, Note_on_c, 1, 81, 127
1, 45059, Note_off_c, 1, 81, 0
1, 45060, Note_on_c, 1, 55, 127
1, 45060, Note_on_c, 1, 82, 127
1, 45060, Note_on_c, 1, 43, 127
1, 45089, Note_off_c, 1, 55, 0
1, 45089, Note_off_c, 1, 82, 0
1, 45090, Note_on_c, 1, 63, 127
1, 45090, Note_on_c, 1, 79, 127
1, 45119, Note_off_c, 1, 43, 0
1, 45119, Note_off_c, 1, 63, 0
1, 45119, Note_off_c, 1, 79, 0
1, 45120, Note_on_c, 1, 58, 127
1, 45120, Note_on_c, 1, 78, 127
1, 45120, Note_on_c, 1, 50, 127
1, 45134, Note_off_c, 1, 58, 0
1, 45135, Note_on_c, 1, 57, 127
1, 45149, Note_off_c, 1, 57, 0
1, 45179, Note_off_c, 1, 50, 0
1, 45180, Note_on_c, 1, 38, 127
1, 45209, Note_off_c, 1, 78, 0
1, 45210, Note_on_c, 1, 55, 127
1, 45210, Note_on_c, 1, 79, 127
1, 45239, Note_off_c, 1, 38, 0
1, 45239, Note_off_c, 1, 55, 0
1, 45239, Note_off_c, 1, 79, 0
1, 45240, Note_on_c, 1, 55, 127
1, 45240, Note_on_c, 1, 79, 127
1, 45240, Note_on_c, 1, 43, 127
1, 45299, Note_off_c, 1, 55, 0
1, 45299, Note_off_c, 1, 79, 0
1, 45299, Note_off_c, 1, 43, 0
1, 45300, Note_on_c, 1, 55, 127
1, 45300, Note_on_c, 1, 79, 127
1, 45300, Note_on_c, 1, 67, 127
1, 45329, Note_off_c, 1, 55, 0
1, 45329, Note_off_c, 1, 79, 0
1, 45329, Note_off_c, 1, 67, 0
1, 45330, Note_on_c, 1, 54, 127
1, 45330, Note_on_c, 1, 78, 127
1, 45330, Note_on_c, 1, 66, 127
1, 45359, Note_off_c, 1, 54, 0
1, 45359, Note_off_c, 1, 78, 0
1, 45359, Note_off_c, 1, 66, 0
1, 45360, Note_on_c, 1, 55, 127
1, 45360, Note_on_c, 1, 79, 127
1, 45360, Note_on_c, 1, 67, 127
1, 45419, Note_off_c, 1, 55, 0
1, 45419, Note_off_c, 1, 79, 0
1, 45419, Note_off_c, 1, 67, 0
1, 45420, Note_on_c, 1, 50, 127
1, 45420, Note_on_c, 1, 74, 127
1, 45420, Note_on_c, 1, 62, 127
1, 45449, Note_off_c, 1, 50, 0
1, 45449, Note_off_c, 1, 74, 0
1, 45449, Note_off_c, 1, 62, 0
1, 45450, Note_on_c, 1, 48, 127
1, 45450, Note_on_c, 1, 72, 127
1, 45450, Note_on_c, 1, 60, 127
1, 45479, Note_off_c, 1, 48, 0
1, 45479, Note_off_c, 1, 72, 0
1, 45479, Note_off_c, 1, 60, 0
1, 45480, Note_on_c, 1, 50, 127
1, 45480, Note_on_c, 1, 74, 127
1, 45480, Note_on_c, 1, 62, 127
1, 45539, Note_off_c, 1, 50, 0
1, 45539, Note_off_c, 1, 74, 0
1, 45539, Note_off_c, 1, 62, 0
1, 45540, Note_on_c, 1, 46, 127
1, 45540, Note_on_c, 1, 70, 127
1, 45540, Note_on_c, 1, 58, 127
1, 45569, Note_off_c, 1, 46, 0
1, 45569, Note_off_c, 1, 70, 0
1, 45569, Note_off_c, 1, 58, 0
1, 45570, Note_on_c, 1, 45, 127
1, 45570, Note_on_c, 1, 69, 127
1, 45570, Note_on_c, 1, 57, 127
1, 45599, Note_off_c, 1, 45, 0
1, 45599, Note_off_c, 1, 69, 0
1, 45599, Note_off_c, 1, 57, 0
1, 45600, Note_on_c, 1, 46, 127
1, 45600, Note_on_c, 1, 70, 127
1, 45600, Note_on_c, 1, 58, 127
1, 45659, Note_off_c, 1, 46, 0
1, 45659, Note_off_c, 1, 70, 0
1, 45659, Note_off_c, 1, 58, 0
1, 45660, Note_on_c, 1, 43, 127
1, 45660, Note_on_c, 1, 67, 127
1, 45660, Note_on_c, 1, 55, 127
1, 45689, Note_off_c, 1, 43, 0
1, 45689, Note_off_c, 1, 67, 0
1, 45689, Note_off_c, 1, 55, 0
1, 45690, Note_on_c, 1, 42, 127
1, 45690, Note_on_c, 1, 66, 127
1, 45690, Note_on_c, 1, 54, 127
1, 45719, Note_off_c, 1, 42, 0
1, 45719, Note_off_c, 1, 66, 0
1, 45719, Note_off_c, 1, 54, 0
1, 45720, Note_on_c, 1, 43, 127
1, 45720, Note_on_c, 1, 67, 127
1, 45720, Note_on_c, 1, 55, 127
1, 45779, Note_off_c, 1, 43, 0
1, 45779, Note_off_c, 1, 67, 0
1, 45779, Note_off_c, 1, 55, 0
1, 45780, Note_on_c, 1, 46, 127
1, 45780, Note_on_c, 1, 70, 127
1, 45780, Note_on_c, 1, 58, 127
1, 45839, Note_off_c, 1, 46, 0
1, 45839, Note_off_c, 1, 70, 0
1, 45839, Note_off_c, 1, 58, 0
1, 45840, Note_on_c, 1, 50, 127
1, 45840, Note_on_c, 1, 74, 127
1, 45840, Note_on_c, 1, 62, 127
1, 45899, Note_off_c, 1, 50, 0
1, 45899, Note_off_c, 1, 74, 0
1, 45899, Note_off_c, 1, 62, 0
1, 45900, Note_on_c, 1, 55, 127
1, 45900, Note_on_c, 1, 79, 127
1, 45900, Note_on_c, 1, 67, 127
1, 45959, Note_off_c, 1, 55, 0
1, 45959, Note_off_c, 1, 79, 0
1, 45959, Note_off_c, 1, 67, 0
1, 45960, Note_on_c, 1, 57, 127
1, 45960, Note_on_c, 1, 81, 127
1, 45960, Note_on_c, 1, 69, 127
1, 45989, Note_off_c, 1, 57, 0
1, 45989, Note_off_c, 1, 81, 0
1, 45989, Note_off_c, 1, 69, 0
1, 45990, Note_on_c, 1, 55, 127
1, 45990, Note_on_c, 1, 79, 127
1, 45990, Note_on_c, 1, 67, 127
1, 46019, Note_off_c, 1, 55, 0
1, 46019, Note_off_c, 1, 79, 0
1, 46019, Note_off_c, 1, 67, 0
1, 46020, Note_on_c, 1, 54, 127
1, 46020, Note_on_c, 1, 78, 127
1, 46020, Note_on_c, 1, 66, 127
1, 46049, Note_off_c, 1, 54, 0
1, 46049, Note_off_c, 1, 78, 0
1, 46049, Note_off_c, 1, 66, 0
1, 46050, Note_on_c, 1, 52, 127
1, 46050, Note_on_c, 1, 76, 127
1, 46050, Note_on_c, 1, 64, 127
1, 46079, Note_off_c, 1, 52, 0
1, 46079, Note_off_c, 1, 76, 0
1, 46079, Note_off_c, 1, 64, 0
1, 46080, Note_on_c, 1, 50, 127
1, 46080, Note_on_c, 1, 74, 127
1, 46080, Note_on_c, 1, 62, 127
1, 46109, Note_off_c, 1, 50, 0
1, 46109, Note_off_c, 1, 62, 0
1, 46110, Note_on_c, 1, 51, 127
1, 46110, Note_on_c, 1, 60, 127
1, 46139, Note_off_c, 1, 51, 0
1, 46139, Note_off_c, 1, 60, 0
1, 46140, Note_on_c, 1, 59, 127
1, 46150, Note_on_c, 1, 53, 127
1, 46159, Note_off_c, 1, 53, 0
1, 46169, Note_off_c, 1, 59, 0
1, 46170, Note_on_c, 1, 57, 127
1, 46199, Note_off_c, 1, 57, 0
1, 46259, Note_off_c, 1, 74, 0
1, 46260, Note_on_c, 1, 65, 127
1, 46260, Note_on_c, 1, 68, 127
1, 46260, Note_on_c, 1, 47, 127
1, 46289, Note_off_c, 1, 65, 0
1, 46289, Note_off_c, 1, 68, 0
1, 46290, Note_on_c, 1, 63, 127
1, 46290, Note_on_c, 1, 67, 127
1, 46319, Note_off_c, 1, 47, 0
1, 46319, Note_off_c, 1, 63, 0
1, 46319, Note_off_c, 1, 67, 0
1, 46320, Note_on_c, 1, 65, 127
1, 46320, Note_on_c, 1, 68, 127
1, 46320, Note_on_c, 1, 47, 127
1, 46349, Note_off_c, 1, 68, 0
1, 46350, Note_on_c, 1, 77, 127
1, 46379, Note_off_c, 1, 65, 0
1, 46379, Note_off_c, 1, 47, 0
1, 46379, Note_off_c, 1, 77, 0
1, 46380, Note_on_c, 1, 62, 127
1, 46380, Note_on_c, 1, 68, 127
1, 46380, Note_on_c, 1, 47, 127
1, 46409, Note_off_c, 1, 62, 0
1, 46409, Note_off_c, 1, 68, 0
1, 46410, Note_on_c, 1, 60, 127
1, 46410, Note_on_c, 1, 77, 127
1, 46439, Note_off_c, 1, 47, 0
1, 46439, Note_off_c, 1, 60, 0
1, 46439, Note_off_c, 1, 77, 0
1, 46440, Note_on_c, 1, 62, 127
1, 46440, Note_on_c, 1, 68, 127
1, 46440, Note_on_c, 1, 47, 127
1, 46469, Note_off_c, 1, 68, 0
1, 46470, Note_on_c, 1, 77, 127
1, 46499, Note_off_c, 1, 62, 0
1, 46499, Note_off_c, 1, 47, 0
1, 46499, Note_off_c, 1, 77, 0
1, 46500, Note_on_c, 1, 59, 127
1, 46500, Note_on_c, 1, 67, 127
1, 46500, Note_on_c, 1, 47, 127
1, 46529, Note_off_c, 1, 59, 0
1, 46529, Note_off_c, 1, 67, 0
1, 46530, Note_on_c, 1, 57, 127
1, 46530, Note_on_c, 1, 65, 127
1, 46559, Note_off_c, 1, 47, 0
1, 46559, Note_off_c, 1, 57, 0
1, 46559, Note_off_c, 1, 65, 0
1, 46560, Note_on_c, 1, 59, 127
1, 46560, Note_on_c, 1, 67, 127
1, 46560, Note_on_c, 1, 47, 127
1, 46589, Note_off_c, 1, 67, 0
1, 46590, Note_on_c, 1, 77, 127
1, 46619, Note_off_c, 1, 59, 0
1, 46619, Note_off_c, 1, 47, 0
1, 46619, Note_off_c, 1, 77, 0
1, 46620, Note_on_c, 1, 55, 127
1, 46620, Note_on_c, 1, 71, 127
1, 46620, Note_on_c, 1, 47, 127
1, 46649, Note_off_c, 1, 55, 0
1, 46649, Note_off_c, 1, 71, 0
1, 46650, Note_on_c, 1, 53, 127
1, 46650, Note_on_c, 1, 77, 127
1, 46679, Note_off_c, 1, 47, 0
1, 46679, Note_off_c, 1, 53, 0
1, 46679, Note_off_c, 1, 77, 0
1, 46680, Note_on_c, 1, 55, 127
1, 46680, Note_on_c, 1, 74, 127
1, 46680, Note_on_c, 1, 47, 127
1, 46709, Note_off_c, 1, 74, 0
1, 46710, Note_on_c, 1, 77, 127
1, 46739, Note_off_c, 1, 55, 0
1, 46739, Note_off_c, 1, 47, 0
1, 46739, Note_off_c, 1, 77, 0
1, 46740, Note_on_c, 1, 59, 127
1, 46740, Note_on_c, 1, 67, 127
1, 46740, Note_on_c, 1, 47, 127
1, 46769, Note_off_c, 1, 67, 0
1, 46770, Note_on_c, 1, 77, 127
1, 46799, Note_off_c, 1, 59, 0
1, 46799, Note_off_c, 1, 47, 0
1, 46799, Note_off_c, 1, 77, 0
1, 46800, Note_on_c, 1, 62, 127
1, 46800, Note_on_c, 1, 71, 127
1, 46800, Note_on_c, 1, 47, 127
1, 46829, Note_off_c, 1, 71, 0
1, 46830, Note_on_c, 1, 77, 127
1, 46859, Note_off_c, 1, 62, 0
1, 46859, Note_off_c, 1, 47, 0
1, 46859, Note_off_c, 1, 77, 0
1, 46860, Note_on_c, 1, 65, 127
1, 46860, Note_on_c, 1, 74, 127
1, 46860, Note_on_c, 1, 47, 127
1, 46889, Note_off_c, 1, 74, 0
1, 46890, Note_on_c, 1, 77, 127
1, 46919, Note_off_c, 1, 65, 0
1, 46919, Note_off_c, 1, 47, 0
1, 46919, Note_off_c, 1, 77, 0
1, 46920, Note_on_c, 1, 65, 127
1, 46920, Note_on_c, 1, 67, 127
1, 46920, Note_on_c, 1, 48, 127
1, 46949, Note_off_c, 1, 65, 0
1, 46949, Note_off_c, 1, 67, 0
1, 46950, Note_on_c, 1, 63, 127
1, 46950, Note_on_c, 1, 79, 127
1, 46979, Note_off_c, 1, 48, 0
1, 46979, Note_off_c, 1, 63, 0
1, 46979, Note_off_c, 1, 79, 0
1, 46980, Note_on_c, 1, 62, 127
1, 46980, Note_on_c, 1, 77, 127
1, 46980, Note_on_c, 1, 48, 127
1, 47009, Note_off_c, 1, 62, 0
1, 47009, Note_off_c, 1, 77, 0
1, 47010, Note_on_c, 1, 63, 127
1, 47010, Note_on_c, 1, 79, 127
1, 47039, Note_off_c, 1, 48, 0
1, 47039, Note_off_c, 1, 63, 0
1, 47039, Note_off_c, 1, 79, 0
1, 47040, Note_on_c, 1, 60, 127
1, 47040, Note_on_c, 1, 75, 127
1, 47040, Note_on_c, 1, 48, 127
1, 47069, Note_off_c, 1, 60, 0
1, 47069, Note_off_c, 1, 75, 0
1, 47070, Note_on_c, 1, 63, 127
1, 47070, Note_on_c, 1, 72, 127
1, 47099, Note_off_c, 1, 48, 0
1, 47099, Note_off_c, 1, 63, 0
1, 47099, Note_off_c, 1, 72, 0
1, 47100, Note_on_c, 1, 62, 127
1, 47100, Note_on_c, 1, 79, 127
1, 47100, Note_on_c, 1, 60, 127
1, 47129, Note_off_c, 1, 62, 0
1, 47129, Note_off_c, 1, 79, 0
1, 47130, Note_on_c, 1, 65, 127
1, 47130, Note_on_c, 1, 70, 127
1, 47159, Note_off_c, 1, 60, 0
1, 47159, Note_off_c, 1, 65, 0
1, 47159, Note_off_c, 1, 70, 0
1, 47160, Note_on_c, 1, 64, 127
1, 47160, Note_on_c, 1, 69, 127
1, 47160, Note_on_c, 1, 61, 127
1, 47189, Note_off_c, 1, 64, 0
1, 47190, Note_on_c, 1, 67, 127
1, 47219, Note_off_c, 1, 69, 0
1, 47219, Note_off_c, 1, 61, 0
1, 47219, Note_off_c, 1, 67, 0
1, 47220, Note_on_c, 1, 58, 127
1, 47220, Note_on_c, 1, 79, 127
1, 47220, Note_on_c, 1, 49, 127
1, 47249, Note_off_c, 1, 58, 0
1, 47249, Note_off_c, 1, 79, 0
1, 47250, Note_on_c, 1, 57, 127
1, 47250, Note_on_c, 1, 77, 127
1, 47279, Note_off_c, 1, 49, 0
1, 47279, Note_off_c, 1, 57, 0
1, 47279, Note_off_c, 1, 77, 0
1, 47280, Note_on_c, 1, 58, 127
1, 47280, Note_on_c, 1, 79, 127
1, 47280, Note_on_c, 1, 49, 127
1, 47309, Note_off_c, 1, 58, 0
1, 47310, Note_on_c, 1, 67, 127
1, 47339, Note_off_c, 1, 79, 0
1, 47339, Note_off_c, 1, 49, 0
1, 47339, Note_off_c, 1, 67, 0
1, 47340, Note_on_c, 1, 58, 127
1, 47340, Note_on_c, 1, 76, 127
1, 47340, Note_on_c, 1, 49, 127
1, 47369, Note_off_c, 1, 58, 0
1, 47369, Note_off_c, 1, 76, 0
1, 47370, Note_on_c, 1, 67, 127
1, 47370, Note_on_c, 1, 74, 127
1, 47399, Note_off_c, 1, 49, 0
1, 47399, Note_off_c, 1, 67, 0
1, 47399, Note_off_c, 1, 74, 0
1, 47400, Note_on_c, 1, 58, 127
1, 47400, Note_on_c, 1, 76, 127
1, 47400, Note_on_c, 1, 49, 127
1, 47429, Note_off_c, 1, 58, 0
1, 47430, Note_on_c, 1, 67, 127
1, 47459, Note_off_c, 1, 76, 0
1, 47459, Note_off_c, 1, 49, 0
1, 47459, Note_off_c, 1, 67, 0
1, 47460, Note_on_c, 1, 58, 127
1, 47460, Note_on_c, 1, 73, 127
1, 47460, Note_on_c, 1, 49, 127
1, 47489, Note_off_c, 1, 58, 0
1, 47489, Note_off_c, 1, 73, 0
1, 47490, Note_on_c, 1, 57, 127
1, 47490, Note_on_c, 1, 71, 127
1, 47519, Note_off_c, 1, 49, 0
1, 47519, Note_off_c, 1, 57, 0
1, 47519, Note_off_c, 1, 71, 0
1, 47520, Note_on_c, 1, 58, 127
1, 47520, Note_on_c, 1, 73, 127
1, 47520, Note_on_c, 1, 49, 127
1, 47549, Note_off_c, 1, 58, 0
1, 47550, Note_on_c, 1, 67, 127
1, 47579, Note_off_c, 1, 73, 0
1, 47579, Note_off_c, 1, 49, 0
1, 47579, Note_off_c, 1, 67, 0
1, 47580, Note_on_c, 1, 61, 127
1, 47580, Note_on_c, 1, 69, 127
1, 47580, Note_on_c, 1, 49, 127
1, 47609, Note_off_c, 1, 61, 0
1, 47609, Note_off_c, 1, 69, 0
1, 47610, Note_on_c, 1, 67, 127
1, 47639, Note_off_c, 1, 49, 0
1, 47639, Note_off_c, 1, 67, 0
1, 47640, Note_on_c, 1, 64, 127
1, 47640, Note_on_c, 1, 69, 127
1, 47640, Note_on_c, 1, 49, 127
1, 47669, Note_off_c, 1, 64, 0
1, 47670, Note_on_c, 1, 67, 127
1, 47699, Note_off_c, 1, 69, 0
1, 47699, Note_off_c, 1, 49, 0
1, 47699, Note_off_c, 1, 67, 0
1, 47700, Note_on_c, 1, 57, 127
1, 47700, Note_on_c, 1, 73, 127
1, 47700, Note_on_c, 1, 49, 127
1, 47729, Note_off_c, 1, 57, 0
1, 47730, Note_on_c, 1, 67, 127
1, 47759, Note_off_c, 1, 73, 0
1, 47759, Note_off_c, 1, 49, 0
1, 47759, Note_off_c, 1, 67, 0
1, 47760, Note_on_c, 1, 61, 127
1, 47760, Note_on_c, 1, 76, 127
1, 47760, Note_on_c, 1, 49, 127
1, 47789, Note_off_c, 1, 61, 0
1, 47790, Note_on_c, 1, 67, 127
1, 47819, Note_off_c, 1, 76, 0
1, 47819, Note_off_c, 1, 49, 0
1, 47819, Note_off_c, 1, 67, 0
1, 47820, Note_on_c, 1, 64, 127
1, 47820, Note_on_c, 1, 79, 127
1, 47820, Note_on_c, 1, 49, 127
1, 47849, Note_off_c, 1, 64, 0
1, 47850, Note_on_c, 1, 67, 127
1, 47879, Note_off_c, 1, 79, 0
1, 47879, Note_off_c, 1, 49, 0
1, 47879, Note_off_c, 1, 67, 0
1, 47880, Note_on_c, 1, 57, 127
1, 47880, Note_on_c, 1, 79, 127
1, 47880, Note_on_c, 1, 50, 127
1, 47909, Note_off_c, 1, 79, 0
1, 47910, Note_on_c, 1, 78, 127
1, 47939, Note_off_c, 1, 57, 0
1, 47939, Note_off_c, 1, 78, 0
1, 47940, Note_on_c, 1, 69, 127
1, 47940, Note_on_c, 1, 76, 127
1, 47969, Note_off_c, 1, 50, 0
1, 47969, Note_off_c, 1, 76, 0
1, 47970, Note_on_c, 1, 62, 127
1, 47999, Note_off_c, 1, 62, 0
1, 48000, Note_on_c, 1, 74, 127
1, 48000, Note_on_c, 1, 60, 127
1, 48029, Note_off_c, 1, 69, 0
1, 48029, Note_off_c, 1, 60, 0
1, 48030, Note_on_c, 1, 70, 127
1, 48030, Note_on_c, 1, 58, 127
1, 48059, Note_off_c, 1, 74, 0
1, 48059, Note_off_c, 1, 70, 0
1, 48059, Note_off_c, 1, 58, 0
1, 48060, Note_on_c, 1, 72, 127
1, 48060, Note_on_c, 1, 81, 127
1, 48060, Note_on_c, 1, 57, 127
1, 48089, Note_off_c, 1, 72, 0
1, 48089, Note_off_c, 1, 57, 0
1, 48090, Note_on_c, 1, 62, 127
1, 48090, Note_on_c, 1, 55, 127
1, 48119, Note_off_c, 1, 81, 0
1, 48119, Note_off_c, 1, 62, 0
1, 48119, Note_off_c, 1, 55, 0
1, 48120, Note_on_c, 1, 63, 127
1, 48120, Note_on_c, 1, 81, 127
1, 48120, Note_on_c, 1, 54, 127
1, 48179, Note_off_c, 1, 63, 0
1, 48179, Note_off_c, 1, 54, 0
1, 48180, Note_on_c, 1, 60, 127
1, 48180, Note_on_c, 1, 42, 127
1, 48209, Note_off_c, 1, 60, 0
1, 48209, Note_off_c, 1, 42, 0
1, 48210, Note_on_c, 1, 58, 127
1, 48210, Note_on_c, 1, 51, 127
1, 48239, Note_off_c, 1, 58, 0
1, 48239, Note_off_c, 1, 51, 0
1, 48300, Note_on_c, 1, 57, 127
1, 48329, Note_off_c, 1, 57, 0
1, 48330, Note_on_c, 1, 55, 127
1, 48359, Note_off_c, 1, 55, 0
1, 48390, Note_on_c, 1, 50, 127
1, 48419, Note_off_c, 1, 50, 0
1, 48450, Note_on_c, 1, 52, 127
1, 48479, Note_off_c, 1, 52, 0
1, 48570, Note_on_c, 1, 48, 127
1, 48599, Note_off_c, 1, 48, 0
1, 48660, Note_on_c, 1, 46, 127
1, 48689, Note_off_c, 1, 46, 0
1, 48690, Note_on_c, 1, 45, 127
1, 48719, Note_off_c, 1, 45, 0
1, 48720, Note_on_c, 1, 43, 127
1, 48749, Note_off_c, 1, 43, 0
1, 48750, Note_on_c, 1, 41, 127
1, 48779, Note_off_c, 1, 41, 0
1, 48780, Note_on_c, 1, 39, 127
1, 48809, Note_off_c, 1, 39, 0
1, 48810, Note_on_c, 1, 38, 127
1, 48839, Note_off_c, 1, 81, 0
1, 48839, Note_off_c, 1, 38, 0
1, 48840, Note_on_c, 1, 60, 127
1, 48840, Note_on_c, 1, 43, 127
1, 48869, Note_off_c, 1, 60, 0
1, 48870, Note_on_c, 1, 58, 127
1, 48899, Note_off_c, 1, 43, 0
1, 48899, Note_off_c, 1, 58, 0
1, 48900, Note_on_c, 1, 57, 127
1, 48900, Note_on_c, 1, 74, 127
1, 48900, Note_on_c, 1, 55, 127
1, 48929, Note_off_c, 1, 57, 0
1, 48930, Note_on_c, 1, 58, 127
1, 48959, Note_off_c, 1, 74, 0
1, 48959, Note_off_c, 1, 55, 0
1, 48959, Note_off_c, 1, 58, 0
1, 48960, Note_on_c, 1, 55, 127
1, 48960, Note_on_c, 1, 79, 127
1, 48960, Note_on_c, 1, 46, 127
1, 48989, Note_off_c, 1, 79, 0
1, 48990, Note_on_c, 1, 82, 127
1, 49019, Note_off_c, 1, 55, 0
1, 49019, Note_off_c, 1, 46, 0
1, 49019, Note_off_c, 1, 82, 0
1, 49020, Note_on_c, 1, 66, 127
1, 49020, Note_on_c, 1, 81, 127
1, 49020, Note_on_c, 1, 50, 127
1, 49049, Note_off_c, 1, 81, 0
1, 49050, Note_on_c, 1, 84, 127
1, 49079, Note_off_c, 1, 66, 0
1, 49079, Note_off_c, 1, 50, 0
1, 49079, Note_off_c, 1, 84, 0
1, 49080, Note_on_c, 1, 67, 127
1, 49080, Note_on_c, 1, 82, 127
1, 49080, Note_on_c, 1, 43, 127
1, 49109, Note_off_c, 1, 67, 0
1, 49109, Note_off_c, 1, 82, 0
1, 49110, Note_on_c, 1, 62, 127
1, 49110, Note_on_c, 1, 84, 127
1, 49139, Note_off_c, 1, 43, 0
1, 49139, Note_off_c, 1, 62, 0
1, 49139, Note_off_c, 1, 84, 0
1, 49140, Note_on_c, 1, 67, 127
1, 49140, Note_on_c, 1, 82, 127
1, 49140, Note_on_c, 1, 46, 127
1, 49169, Note_off_c, 1, 67, 0
1, 49169, Note_off_c, 1, 82, 0
1, 49170, Note_on_c, 1, 69, 127
1, 49170, Note_on_c, 1, 81, 127
1, 49199, Note_off_c, 1, 46, 0
1, 49199, Note_off_c, 1, 69, 0
1, 49199, Note_off_c, 1, 81, 0
1, 49200, Note_on_c, 1, 70, 127
1, 49200, Note_on_c, 1, 79, 127
1, 49200, Note_on_c, 1, 50, 127
1, 49229, Note_off_c, 1, 79, 0
1, 49230, Note_on_c, 1, 77, 127
1, 49259, Note_off_c, 1, 50, 0
1, 49259, Note_off_c, 1, 77, 0
1, 49260, Note_on_c, 1, 75, 127
1, 49260, Note_on_c, 1, 55, 127
1, 49289, Note_off_c, 1, 75, 0
1, 49290, Note_on_c, 1, 74, 127
1, 49319, Note_off_c, 1, 55, 0
1, 49319, Note_off_c, 1, 74, 0
1, 49320, Note_on_c, 1, 72, 127
1, 49320, Note_on_c, 1, 51, 127
1, 49349, Note_off_c, 1, 70, 0
1, 49349, Note_off_c, 1, 51, 0
1, 49350, Note_on_c, 1, 69, 127
1, 49350, Note_on_c, 1, 53, 127
1, 49379, Note_off_c, 1, 72, 0
1, 49379, Note_off_c, 1, 69, 0
1, 49379, Note_off_c, 1, 53, 0
1, 49380, Note_on_c, 1, 67, 127
1, 49380, Note_on_c, 1, 75, 127
1, 49380, Note_on_c, 1, 51, 127
1, 49409, Note_off_c, 1, 67, 0
1, 49409, Note_off_c, 1, 51, 0
1, 49410, Note_on_c, 1, 69, 127
1, 49410, Note_on_c, 1, 50, 127
1, 49439, Note_off_c, 1, 75, 0
1, 49439, Note_off_c, 1, 69, 0
1, 49439, Note_off_c, 1, 50, 0
1, 49440, Note_on_c, 1, 70, 127
1, 49440, Note_on_c, 1, 79, 127
1, 49440, Note_on_c, 1, 48, 127
1, 49469, Note_off_c, 1, 48, 0
1, 49470, Note_on_c, 1, 46, 127
1, 49499, Note_off_c, 1, 70, 0
1, 49499, Note_off_c, 1, 79, 0
1, 49499, Note_off_c, 1, 46, 0
1, 49500, Note_on_c, 1, 60, 127
1, 49500, Note_on_c, 1, 82, 127
1, 49500, Note_on_c, 1, 45, 127
1, 49529, Note_off_c, 1, 45, 0
1, 49530, Note_on_c, 1, 43, 127
1, 49559, Note_off_c, 1, 82, 0
1, 49559, Note_off_c, 1, 43, 0
1, 49560, Note_on_c, 1, 81, 127
1, 49560, Note_on_c, 1, 41, 127
1, 49589, Note_off_c, 1, 81, 0
1, 49619, Note_off_c, 1, 60, 0
1, 49619, Note_off_c, 1, 41, 0
1, 49620, Note_on_c, 1, 65, 127
1, 49620, Note_on_c, 1, 81, 127
1, 49620, Note_on_c, 1, 45, 127
1, 49649, Note_off_c, 1, 65, 0
1, 49649, Note_off_c, 1, 81, 0
1, 49650, Note_on_c, 1, 67, 127
1, 49650, Note_on_c, 1, 79, 127
1, 49679, Note_off_c, 1, 45, 0
1, 49679, Note_off_c, 1, 67, 0
1, 49679, Note_off_c, 1, 79, 0
1, 49680, Note_on_c, 1, 68, 127
1, 49680, Note_on_c, 1, 77, 127
1, 49680, Note_on_c, 1, 48, 127
1, 49709, Note_off_c, 1, 77, 0
1, 49710, Note_on_c, 1, 75, 127
1, 49739, Note_off_c, 1, 48, 0
1, 49739, Note_off_c, 1, 75, 0
1, 49740, Note_on_c, 1, 74, 127
1, 49740, Note_on_c, 1, 53, 127
1, 49769, Note_off_c, 1, 74, 0
1, 49770, Note_on_c, 1, 72, 127
1, 49799, Note_off_c, 1, 53, 0
1, 49799, Note_off_c, 1, 72, 0
1, 49800, Note_on_c, 1, 70, 127
1, 49800, Note_on_c, 1, 50, 127
1, 49829, Note_off_c, 1, 68, 0
1, 49829, Note_off_c, 1, 50, 0
1, 49830, Note_on_c, 1, 67, 127
1, 49830, Note_on_c, 1, 51, 127
1, 49859, Note_off_c, 1, 70, 0
1, 49859, Note_off_c, 1, 67, 0
1, 49859, Note_off_c, 1, 51, 0
1, 49860, Note_on_c, 1, 65, 127
1, 49860, Note_on_c, 1, 74, 127
1, 49860, Note_on_c, 1, 50, 127
1, 49889, Note_off_c, 1, 65, 0
1, 49889, Note_off_c, 1, 50, 0
1, 49890, Note_on_c, 1, 67, 127
1, 49890, Note_on_c, 1, 48, 127
1, 49919, Note_off_c, 1, 74, 0
1, 49919, Note_off_c, 1, 67, 0
1, 49919, Note_off_c, 1, 48, 0
1, 49920, Note_on_c, 1, 68, 127
1, 49920, Note_on_c, 1, 77, 127
1, 49920, Note_on_c, 1, 46, 127
1, 49949, Note_off_c, 1, 46, 0
1, 49950, Note_on_c, 1, 44, 127
1, 49979, Note_off_c, 1, 68, 0
1, 49979, Note_off_c, 1, 77, 0
1, 49979, Note_off_c, 1, 44, 0
1, 49980, Note_on_c, 1, 58, 127
1, 49980, Note_on_c, 1, 80, 127
1, 49980, Note_on_c, 1, 43, 127
1, 50009, Note_off_c, 1, 43, 0
1, 50010, Note_on_c, 1, 41, 127
1, 50039, Note_off_c, 1, 80, 0
1, 50039, Note_off_c, 1, 41, 0
1, 50040, Note_on_c, 1, 79, 127
1, 50040, Note_on_c, 1, 39, 127
1, 50069, Note_off_c, 1, 79, 0
1, 50099, Note_off_c, 1, 58, 0
1, 50099, Note_off_c, 1, 39, 0
1, 50100, Note_on_c, 1, 63, 127
1, 50100, Note_on_c, 1, 79, 127
1, 50100, Note_on_c, 1, 43, 127
1, 50129, Note_off_c, 1, 63, 0
1, 50129, Note_off_c, 1, 79, 0
1, 50130, Note_on_c, 1, 65, 127
1, 50130, Note_on_c, 1, 77, 127
1, 50159, Note_off_c, 1, 43, 0
1, 50159, Note_off_c, 1, 65, 0
1, 50159, Note_off_c, 1, 77, 0
1, 50160, Note_on_c, 1, 67, 127
1, 50160, Note_on_c, 1, 75, 127
1, 50160, Note_on_c, 1, 46, 127
1, 50189, Note_off_c, 1, 75, 0
1, 50190, Note_on_c, 1, 74, 127
1, 50219, Note_off_c, 1, 46, 0
1, 50219, Note_off_c, 1, 74, 0
1, 50220, Note_on_c, 1, 72, 127
1, 50220, Note_on_c, 1, 51, 127
1, 50249, Note_off_c, 1, 72, 0
1, 50250, Note_on_c, 1, 70, 127
1, 50279, Note_off_c, 1, 51, 0
1, 50279, Note_off_c, 1, 70, 0
1, 50280, Note_on_c, 1, 69, 127
1, 50280, Note_on_c, 1, 48, 127
1, 50309, Note_off_c, 1, 69, 0
1, 50339, Note_off_c, 1, 67, 0
1, 50339, Note_off_c, 1, 48, 0
1, 50340, Note_on_c, 1, 69, 127
1, 50340, Note_on_c, 1, 72, 127
1, 50340, Note_on_c, 1, 48, 127
1, 50369, Note_off_c, 1, 69, 0
1, 50369, Note_off_c, 1, 72, 0
1, 50370, Note_on_c, 1, 70, 127
1, 50370, Note_on_c, 1, 74, 127
1, 50399, Note_off_c, 1, 48, 0
1, 50399, Note_off_c, 1, 70, 0
1, 50399, Note_off_c, 1, 74, 0
1, 50400, Note_on_c, 1, 72, 127
1, 50400, Note_on_c, 1, 75, 127
1, 50400, Note_on_c, 1, 48, 127
1, 50429, Note_off_c, 1, 75, 0
1, 50459, Note_off_c, 1, 48, 0
1, 50460, Note_on_c, 1, 69, 127
1, 50489, Note_off_c, 1, 69, 0
1, 50520, Note_on_c, 1, 66, 127
1, 50549, Note_off_c, 1, 66, 0
1, 50550, Note_on_c, 1, 67, 127
1, 50579, Note_off_c, 1, 72, 0
1, 50579, Note_off_c, 1, 67, 0
1, 50580, Note_on_c, 1, 66, 127
1, 50580, Note_on_c, 1, 69, 127
1, 50580, Note_on_c, 1, 48, 127
1, 50609, Note_off_c, 1, 66, 0
1, 50609, Note_off_c, 1, 69, 0
1, 50610, Note_on_c, 1, 67, 127
1, 50610, Note_on_c, 1, 70, 127
1, 50639, Note_off_c, 1, 48, 0
1, 50639, Note_off_c, 1, 67, 0
1, 50639, Note_off_c, 1, 70, 0
1, 50640, Note_on_c, 1, 69, 127
1, 50640, Note_on_c, 1, 72, 127
1, 50640, Note_on_c, 1, 48, 127
1, 50669, Note_off_c, 1, 72, 0
1, 50699, Note_off_c, 1, 48, 0
1, 50700, Note_on_c, 1, 66, 127
1, 50729, Note_off_c, 1, 66, 0
1, 50760, Note_on_c, 1, 62, 127
1, 50789, Note_off_c, 1, 62, 0
1, 50790, Note_on_c, 1, 64, 127
1, 50819, Note_off_c, 1, 69, 0
1, 50819, Note_off_c, 1, 64, 0
1, 50820, Note_on_c, 1, 62, 127
1, 50820, Note_on_c, 1, 66, 127
1, 50820, Note_on_c, 1, 48, 127
1, 50849, Note_off_c, 1, 62, 0
1, 50849, Note_off_c, 1, 66, 0
1, 50850, Note_on_c, 1, 64, 127
1, 50850, Note_on_c, 1, 67, 127
1, 50879, Note_off_c, 1, 48, 0
1, 50879, Note_off_c, 1, 64, 0
1, 50879, Note_off_c, 1, 67, 0
1, 50880, Note_on_c, 1, 66, 127
1, 50880, Note_on_c, 1, 69, 127
1, 50880, Note_on_c, 1, 48, 127
1, 50909, Note_off_c, 1, 66, 0
1, 50909, Note_off_c, 1, 69, 0
1, 50910, Note_on_c, 1, 67, 127
1, 50910, Note_on_c, 1, 70, 127
1, 50939, Note_off_c, 1, 48, 0
1, 50939, Note_off_c, 1, 67, 0
1, 50939, Note_off_c, 1, 70, 0
1, 50940, Note_on_c, 1, 69, 127
1, 50940, Note_on_c, 1, 72, 127
1, 50940, Note_on_c, 1, 48, 127
1, 50969, Note_off_c, 1, 69, 0
1, 50969, Note_off_c, 1, 72, 0
1, 50970, Note_on_c, 1, 66, 127
1, 50999, Note_off_c, 1, 48, 0
1, 50999, Note_off_c, 1, 66, 0
1, 51000, Note_on_c, 1, 67, 127
1, 51000, Note_on_c, 1, 74, 127
1, 51000, Note_on_c, 1, 46, 127
1, 51029, Note_off_c, 1, 74, 0
1, 51030, Note_on_c, 1, 66, 127
1, 51059, Note_off_c, 1, 67, 0
1, 51059, Note_off_c, 1, 46, 0
1, 51059, Note_off_c, 1, 66, 0
1, 51060, Note_on_c, 1, 62, 127
1, 51060, Note_on_c, 1, 67, 127
1, 51060, Note_on_c, 1, 46, 127
1, 51089, Note_off_c, 1, 62, 0
1, 51089, Note_off_c, 1, 46, 0
1, 51090, Note_on_c, 1, 54, 127
1, 51090, Note_on_c, 1, 45, 127
1, 51119, Note_off_c, 1, 54, 0
1, 51119, Note_off_c, 1, 45, 0
1, 51120, Note_on_c, 1, 55, 127
1, 51149, Note_off_c, 1, 67, 0
1, 51150, Note_on_c, 1, 74, 127
1, 51179, Note_off_c, 1, 74, 0
1, 51180, Note_on_c, 1, 70, 127
1, 51180, Note_on_c, 1, 43, 127
1, 51209, Note_off_c, 1, 70, 0
1, 51239, Note_off_c, 1, 43, 0
1, 51240, Note_on_c, 1, 75, 127
1, 51240, Note_on_c, 1, 48, 127
1, 51269, Note_off_c, 1, 75, 0
1, 51270, Note_on_c, 1, 66, 127
1, 51299, Note_off_c, 1, 55, 0
1, 51299, Note_off_c, 1, 48, 0
1, 51299, Note_off_c, 1, 66, 0
1, 51300, Note_on_c, 1, 63, 127
1, 51300, Note_on_c, 1, 67, 127
1, 51300, Note_on_c, 1, 36, 127
1, 51329, Note_off_c, 1, 63, 0
1, 51330, Note_on_c, 1, 54, 127
1, 51359, Note_off_c, 1, 36, 0
1, 51359, Note_off_c, 1, 54, 0
1, 51360, Note_on_c, 1, 55, 127
1, 51360, Note_on_c, 1, 48, 127
1, 51389, Note_off_c, 1, 67, 0
1, 51390, Note_on_c, 1, 75, 127
1, 51419, Note_off_c, 1, 48, 0
1, 51419, Note_off_c, 1, 75, 0
1, 51420, Note_on_c, 1, 72, 127
1, 51420, Note_on_c, 1, 45, 127
1, 51449, Note_off_c, 1, 72, 0
1, 51450, Note_on_c, 1, 69, 127
1, 51479, Note_off_c, 1, 45, 0
1, 51479, Note_off_c, 1, 69, 0
1, 51480, Note_on_c, 1, 74, 127
1, 51480, Note_on_c, 1, 46, 127
1, 51509, Note_off_c, 1, 74, 0
1, 51510, Note_on_c, 1, 66, 127
1, 51539, Note_off_c, 1, 55, 0
1, 51539, Note_off_c, 1, 46, 0
1, 51539, Note_off_c, 1, 66, 0
1, 51540, Note_on_c, 1, 62, 127
1, 51540, Note_on_c, 1, 67, 127
1, 51540, Note_on_c, 1, 43, 127
1, 51569, Note_off_c, 1, 62, 0
1, 51569, Note_off_c, 1, 67, 0
1, 51570, Note_on_c, 1, 54, 127
1, 51570, Note_on_c, 1, 70, 127
1, 51599, Note_off_c, 1, 43, 0
1, 51599, Note_off_c, 1, 54, 0
1, 51599, Note_off_c, 1, 70, 0
1, 51600, Note_on_c, 1, 55, 127
1, 51600, Note_on_c, 1, 75, 127
1, 51600, Note_on_c, 1, 48, 127
1, 51629, Note_off_c, 1, 75, 0
1, 51630, Note_on_c, 1, 66, 127
1, 51659, Note_off_c, 1, 55, 0
1, 51659, Note_off_c, 1, 48, 0
1, 51659, Note_off_c, 1, 66, 0
1, 51660, Note_on_c, 1, 63, 127
1, 51660, Note_on_c, 1, 67, 127
1, 51660, Note_on_c, 1, 45, 127
1, 51689, Note_off_c, 1, 63, 0
1, 51689, Note_off_c, 1, 67, 0
1, 51690, Note_on_c, 1, 54, 127
1, 51690, Note_on_c, 1, 72, 127
1, 51719, Note_off_c, 1, 45, 0
1, 51719, Note_off_c, 1, 54, 0
1, 51719, Note_off_c, 1, 72, 0
1, 51720, Note_on_c, 1, 55, 127
1, 51720, Note_on_c, 1, 74, 127
1, 51720, Note_on_c, 1, 46, 127
1, 51749, Note_off_c, 1, 74, 0
1, 51750, Note_on_c, 1, 78, 127
1, 51779, Note_off_c, 1, 46, 0
1, 51779, Note_off_c, 1, 78, 0
1, 51780, Note_on_c, 1, 79, 127
1, 51780, Note_on_c, 1, 51, 127
1, 51809, Note_off_c, 1, 55, 0
1, 51809, Note_off_c, 1, 79, 0
1, 51809, Note_off_c, 1, 51, 0
1, 51810, Note_on_c, 1, 63, 127
1, 51810, Note_on_c, 1, 81, 127
1, 51810, Note_on_c, 1, 48, 127
1, 51839, Note_off_c, 1, 63, 0
1, 51839, Note_off_c, 1, 81, 0
1, 51839, Note_off_c, 1, 48, 0
1, 51840, Note_on_c, 1, 54, 127
1, 51840, Note_on_c, 1, 81, 127
1, 51840, Note_on_c, 1, 50, 127
1, 51860, Note_off_c, 1, 54, 0
1, 51860, Note_on_c, 1, 55, 127
1, 51880, Note_off_c, 1, 55, 0
1, 51899, Note_off_c, 1, 50, 0
1, 51900, Note_on_c, 1, 38, 127
1, 51929, Note_off_c, 1, 81, 0
1, 51930, Note_on_c, 1, 79, 127
1, 51959, Note_off_c, 1, 38, 0
1, 51959, Note_off_c, 1, 79, 0
1, 51960, Note_on_c, 1, 55, 127
1, 51960, Note_on_c, 1, 79, 127
1, 51960, Note_on_c, 1, 39, 127
1, 51989, Note_off_c, 1, 55, 0
1, 51989, Note_off_c, 1, 79, 0
1, 51990, Note_on_c, 1, 50, 127
1, 51990, Note_on_c, 1, 78, 127
1, 52019, Note_off_c, 1, 39, 0
1, 52019, Note_off_c, 1, 50, 0
1, 52019, Note_off_c, 1, 78, 0
1, 52020, Note_on_c, 1, 51, 127
1, 52020, Note_on_c, 1, 79, 127
1, 52020, Note_on_c, 1, 48, 127
1, 52049, Note_off_c, 1, 51, 0
1, 52079, Note_off_c, 1, 48, 0
1, 52080, Note_on_c, 1, 50, 127
1, 52080, Note_on_c, 1, 46, 127
1, 52109, Note_off_c, 1, 50, 0
1, 52110, Note_on_c, 1, 55, 127
1, 52139, Note_off_c, 1, 46, 0
1, 52139, Note_off_c, 1, 55, 0
1, 52140, Note_on_c, 1, 45, 127
1, 52169, Note_off_c, 1, 79, 0
1, 52170, Note_on_c, 1, 78, 127
1, 52199, Note_off_c, 1, 45, 0
1, 52199, Note_off_c, 1, 78, 0
1, 52200, Note_on_c, 1, 50, 127
1, 52200, Note_on_c, 1, 79, 127
1, 52200, Note_on_c, 1, 46, 127
1, 52229, Note_off_c, 1, 50, 0
1, 52229, Note_off_c, 1, 79, 0
1, 52230, Note_on_c, 1, 45, 127
1, 52230, Note_on_c, 1, 78, 127
1, 52259, Note_off_c, 1, 46, 0
1, 52259, Note_off_c, 1, 45, 0
1, 52259, Note_off_c, 1, 78, 0
1, 52260, Note_on_c, 1, 46, 127
1, 52260, Note_on_c, 1, 78, 127
1, 52260, Note_on_c, 1, 50, 127
1, 52289, Note_off_c, 1, 46, 0
1, 52289, Note_off_c, 1, 78, 0
1, 52290, Note_on_c, 1, 42, 127
1, 52290, Note_on_c, 1, 79, 127
1, 52319, Note_off_c, 1, 50, 0
1, 52319, Note_off_c, 1, 42, 0
1, 52320, Note_on_c, 1, 43, 127
1, 52349, Note_off_c, 1, 43, 0
1, 52440, Note_on_c, 1, 51, 127
1, 52440, Note_on_c, 1, 36, 127
1, 52469, Note_off_c, 1, 51, 0
1, 52470, Note_off_c, 1, 79, 0
1, 52470, Note_on_c, 1, 48, 127
1, 52470, Note_on_c, 1, 75, 127
1, 52499, Note_off_c, 1, 36, 0
1, 52499, Note_off_c, 1, 48, 0
1, 52499, Note_off_c, 1, 75, 0
1, 52500, Note_on_c, 1, 55, 127
1, 52500, Note_on_c, 1, 74, 127
1, 52500, Note_on_c, 1, 48, 127
1, 52529, Note_off_c, 1, 55, 0
1, 52529, Note_off_c, 1, 74, 0
1, 52530, Note_on_c, 1, 72, 127
1, 52559, Note_off_c, 1, 48, 0
1, 52559, Note_off_c, 1, 72, 0
1, 52560, Note_on_c, 1, 38, 127
1, 52560, Note_on_c, 1, 70, 127
1, 52560, Note_on_c, 1, 50, 127
1, 52619, Note_off_c, 1, 38, 0
1, 52619, Note_off_c, 1, 70, 0
1, 52619, Note_off_c, 1, 50, 0
1, 52620, Note_on_c, 1, 54, 127
1, 52620, Note_on_c, 1, 69, 127
1, 52620, Note_on_c, 1, 38, 127
1, 52629, Note_off_c, 1, 69, 0
1, 52630, Note_on_c, 1, 70, 127
1, 52634, Note_off_c, 1, 54, 0
1, 52635, Note_on_c, 1, 52, 127
1, 52639, Note_off_c, 1, 70, 0
1, 52649, Note_off_c, 1, 52, 0
1, 52650, Note_on_c, 1, 67, 127
1, 52679, Note_off_c, 1, 38, 0
1, 52679, Note_off_c, 1, 67, 0
1, 52680, Note_on_c, 1, 43, 127
1, 52680, Note_on_c, 1, 50, 127
1, 52680, Note_on_c, 1, 55, 127
1, 52680, Note_on_c, 1, 67, 127
1, 52680, Note_on_c, 1, 62, 127
1, 52680, Note_on_c, 1, 58, 127
1, 52859, Note_off_c, 1, 43, 0
1, 52859, Note_off_c, 1, 50, 0
1, 52859, Note_off_c, 1, 55, 0
1, 52859, Note_off_c, 1, 67, 0
1, 52859, Note_off_c, 1, 62, 0
1, 52859, Note_off_c, 1, 58, 0
1, 53400, Note_on_c, 1, 65, 127
1, 53400, Note_on_c, 1, 46, 127
1, 53519, Note_off_c, 1, 46, 0
1, 53520, Note_on_c, 1, 48, 127
1, 53639, Note_off_c, 1, 48, 0
1, 53640, Note_on_c, 1, 70, 127
1, 53640, Note_on_c, 1, 50, 127
1, 53759, Note_off_c, 1, 50, 0
1, 53879, Note_off_c, 1, 70, 0
1, 53880, Note_on_c, 1, 72, 127
1, 53895, Note_off_c, 1, 72, 0
1, 54000, Note_on_c, 1, 74, 127
1, 54119, Note_off_c, 1, 74, 0
1, 54150, Note_off_c, 1, 65, 0
1, 54150, Note_on_c, 1, 67, 127
1, 54179, Note_off_c, 1, 67, 0
1, 54180, Note_on_c, 1, 69, 127
1, 54210, Note_on_c, 1, 63, 127
1, 54239, Note_off_c, 1, 63, 0
1, 54359, Note_off_c, 1, 69, 0
1, 54360, Note_on_c, 1, 57, 127
1, 54360, Note_on_c, 1, 75, 127
1, 54389, Note_off_c, 1, 57, 0
1, 54390, Note_on_c, 1, 55, 127
1, 54419, Note_off_c, 1, 55, 0
1, 54420, Note_on_c, 1, 53, 127
1, 54479, Note_off_c, 1, 53, 0
1, 54480, Note_on_c, 1, 60, 127
1, 54509, Note_off_c, 1, 60, 0
1, 54510, Note_on_c, 1, 58, 127
1, 54539, Note_off_c, 1, 58, 0
1, 54599, Note_off_c, 1, 75, 0
1, 54600, Note_on_c, 1, 63, 127
1, 54600, Note_on_c, 1, 74, 127
1, 54659, Note_off_c, 1, 74, 0
1, 54660, Note_on_c, 1, 72, 127
1, 54839, Note_off_c, 1, 72, 0
1, 54840, Note_on_c, 1, 70, 127
1, 54840, Note_on_c, 1, 41, 127
1, 54899, Note_off_c, 1, 70, 0
1, 54900, Note_on_c, 1, 69, 127
1, 54959, Note_off_c, 1, 41, 0
1, 54959, Note_off_c, 1, 69, 0
1, 54960, Note_on_c, 1, 67, 127
1, 54960, Note_on_c, 1, 43, 127
1, 55019, Note_off_c, 1, 67, 0
1, 55020, Note_on_c, 1, 65, 127
1, 55079, Note_off_c, 1, 43, 0
1, 55079, Note_off_c, 1, 65, 0
1, 55080, Note_on_c, 1, 45, 127
1, 55140, Note_off_c, 1, 63, 0
1, 55140, Note_on_c, 1, 60, 127
1, 55199, Note_off_c, 1, 45, 0
1, 55199, Note_off_c, 1, 60, 0
1, 55320, Note_on_c, 1, 69, 127
1, 55320, Note_on_c, 1, 63, 127
1, 55320, Note_on_c, 1, 41, 127
1, 55335, Note_off_c, 1, 63, 0
1, 55335, Note_on_c, 1, 65, 127
1, 55350, Note_off_c, 1, 65, 0
1, 55379, Note_off_c, 1, 69, 0
1, 55380, Note_on_c, 1, 70, 127
1, 55380, Note_on_c, 1, 62, 127
1, 55439, Note_off_c, 1, 70, 0
1, 55439, Note_off_c, 1, 62, 0
1, 55440, Note_on_c, 1, 72, 127
1, 55559, Note_off_c, 1, 41, 0
1, 55560, Note_on_c, 1, 46, 127
1, 55619, Note_off_c, 1, 72, 0
1, 55740, Note_on_c, 1, 67, 127
1, 55799, Note_off_c, 1, 46, 0
1, 55799, Note_off_c, 1, 67, 0
1, 55920, Note_on_c, 1, 60, 127
1, 56039, Note_off_c, 1, 60, 0
1, 56040, Note_on_c, 1, 58, 127
1, 56190, Note_on_c, 1, 74, 127
1, 56219, Note_off_c, 1, 74, 0
1, 56279, Note_off_c, 1, 58, 0
1, 56280, Note_on_c, 1, 70, 127
1, 56280, Note_on_c, 1, 74, 127
1, 56280, Note_on_c, 1, 46, 127
1, 56399, Note_off_c, 1, 46, 0
1, 56400, Note_on_c, 1, 45, 127
1, 56519, Note_off_c, 1, 74, 0
1, 56519, Note_off_c, 1, 45, 0
1, 56520, Note_on_c, 1, 72, 127
1, 56520, Note_on_c, 1, 43, 127
1, 56579, Note_off_c, 1, 72, 0
1, 56639, Note_off_c, 1, 43, 0
1, 56760, Note_on_c, 1, 69, 127
1, 56819, Note_off_c, 1, 69, 0
1, 56820, Note_on_c, 1, 67, 127
1, 56999, Note_off_c, 1, 67, 0
1, 57000, Note_on_c, 1, 65, 127
1, 57000, Note_on_c, 1, 48, 127
1, 57059, Note_off_c, 1, 65, 0
1, 57060, Note_off_c, 1, 70, 0
1, 57060, Note_on_c, 1, 64, 127
1, 57119, Note_off_c, 1, 64, 0
1, 57120, Note_on_c, 1, 60, 127
1, 57239, Note_off_c, 1, 48, 0
1, 57239, Note_off_c, 1, 60, 0
1, 57240, Note_on_c, 1, 58, 127
1, 57240, Note_on_c, 1, 67, 127
1, 57299, Note_off_c, 1, 58, 0
1, 57300, Note_on_c, 1, 57, 127
1, 57359, Note_off_c, 1, 67, 0
1, 57359, Note_off_c, 1, 57, 0
1, 57360, Note_on_c, 1, 58, 127
1, 57360, Note_on_c, 1, 64, 127
1, 57419, Note_off_c, 1, 58, 0
1, 57420, Note_on_c, 1, 55, 127
1, 57479, Note_off_c, 1, 64, 0
1, 57479, Note_off_c, 1, 55, 0
1, 57480, Note_on_c, 1, 52, 127
1, 57480, Note_on_c, 1, 70, 127
1, 57539, Note_off_c, 1, 52, 0
1, 57540, Note_on_c, 1, 48, 127
1, 57599, Note_off_c, 1, 70, 0
1, 57599, Note_off_c, 1, 48, 0
1, 57600, Note_on_c, 1, 52, 127
1, 57600, Note_on_c, 1, 67, 127
1, 57659, Note_off_c, 1, 52, 0
1, 57660, Note_on_c, 1, 55, 127
1, 57719, Note_off_c, 1, 67, 0
1, 57719, Note_off_c, 1, 55, 0
1, 57720, Note_on_c, 1, 58, 127
1, 57720, Note_on_c, 1, 76, 127
1, 57720, Note_on_c, 1, 48, 127
1, 57779, Note_off_c, 1, 76, 0
1, 57780, Note_on_c, 1, 77, 127
1, 57809, Note_off_c, 1, 77, 0
1, 57810, Note_on_c, 1, 79, 127
1, 57839, Note_off_c, 1, 48, 0
1, 57839, Note_off_c, 1, 79, 0
1, 57840, Note_on_c, 1, 50, 127
1, 57930, Note_on_c, 1, 74, 127
1, 57944, Note_off_c, 1, 74, 0
1, 57945, Note_on_c, 1, 72, 127
1, 57959, Note_off_c, 1, 58, 0
1, 57959, Note_off_c, 1, 50, 0
1, 57959, Note_off_c, 1, 72, 0
1, 57960, Note_on_c, 1, 72, 127
1, 57960, Note_on_c, 1, 52, 127
1, 58020, Note_on_c, 1, 55, 127
1, 58079, Note_off_c, 1, 52, 0
1, 58079, Note_off_c, 1, 55, 0
1, 58080, Note_on_c, 1, 58, 127
1, 58080, Note_on_c, 1, 50, 127
1, 58139, Note_off_c, 1, 58, 0
1, 58140, Note_on_c, 1, 60, 127
1, 58199, Note_off_c, 1, 72, 0
1, 58199, Note_off_c, 1, 50, 0
1, 58199, Note_off_c, 1, 60, 0
1, 58200, Note_on_c, 1, 64, 127
1, 58200, Note_on_c, 1, 70, 127
1, 58200, Note_on_c, 1, 48, 127
1, 58214, Note_off_c, 1, 70, 0
1, 58215, Note_on_c, 1, 72, 127
1, 58229, Note_off_c, 1, 72, 0
1, 58259, Note_off_c, 1, 64, 0
1, 58260, Note_on_c, 1, 65, 127
1, 58260, Note_on_c, 1, 69, 127
1, 58319, Note_off_c, 1, 65, 0
1, 58319, Note_off_c, 1, 69, 0
1, 58320, Note_on_c, 1, 67, 127
1, 58439, Note_off_c, 1, 48, 0
1, 58440, Note_on_c, 1, 53, 127
1, 58499, Note_off_c, 1, 67, 0
1, 58620, Note_on_c, 1, 62, 127
1, 58679, Note_off_c, 1, 53, 0
1, 58679, Note_off_c, 1, 62, 0
1, 58680, Note_on_c, 1, 60, 127
1, 58709, Note_off_c, 1, 60, 0
1, 58860, Note_on_c, 1, 58, 127
1, 58919, Note_off_c, 1, 58, 0
1, 58920, Note_on_c, 1, 57, 127
1, 58920, Note_on_c, 1, 70, 127
1, 58979, Note_off_c, 1, 57, 0
1, 58979, Note_off_c, 1, 70, 0
1, 58980, Note_on_c, 1, 53, 127
1, 58980, Note_on_c, 1, 72, 127
1, 59039, Note_off_c, 1, 53, 0
1, 59040, Note_on_c, 1, 69, 127
1, 59159, Note_off_c, 1, 72, 0
1, 59160, Note_on_c, 1, 62, 127
1, 59160, Note_on_c, 1, 46, 127
1, 59219, Note_off_c, 1, 69, 0
1, 59220, Note_on_c, 1, 67, 127
1, 59249, Note_off_c, 1, 67, 0
1, 59250, Note_on_c, 1, 65, 127
1, 59279, Note_off_c, 1, 46, 0
1, 59279, Note_off_c, 1, 65, 0
1, 59280, Note_on_c, 1, 45, 127
1, 59399, Note_off_c, 1, 62, 0
1, 59399, Note_off_c, 1, 45, 0
1, 59400, Note_on_c, 1, 62, 127
1, 59400, Note_on_c, 1, 67, 127
1, 59400, Note_on_c, 1, 46, 127
1, 59519, Note_off_c, 1, 67, 0
1, 59519, Note_off_c, 1, 46, 0
1, 59520, Note_on_c, 1, 70, 127
1, 59520, Note_on_c, 1, 50, 127
1, 59579, Note_off_c, 1, 70, 0
1, 59580, Note_on_c, 1, 69, 127
1, 59639, Note_off_c, 1, 50, 0
1, 59639, Note_off_c, 1, 69, 0
1, 59640, Note_on_c, 1, 43, 127
1, 59670, Note_off_c, 1, 62, 0
1, 59670, Note_on_c, 1, 60, 127
1, 59699, Note_off_c, 1, 60, 0
1, 59700, Note_on_c, 1, 58, 127
1, 59729, Note_off_c, 1, 58, 0
1, 59730, Note_on_c, 1, 57, 127
1, 59759, Note_off_c, 1, 43, 0
1, 59759, Note_off_c, 1, 57, 0
1, 59760, Note_on_c, 1, 58, 127
1, 59760, Note_on_c, 1, 67, 127
1, 59760, Note_on_c, 1, 55, 127
1, 59879, Note_off_c, 1, 67, 0
1, 59879, Note_off_c, 1, 55, 0
1, 59880, Note_on_c, 1, 65, 127
1, 59880, Note_on_c, 1, 48, 127
1, 59909, Note_off_c, 1, 65, 0
1, 59910, Note_on_c, 1, 64, 127
1, 59939, Note_off_c, 1, 58, 0
1, 59999, Note_off_c, 1, 48, 0
1, 59999, Note_off_c, 1, 64, 0
1, 60000, Note_on_c, 1, 67, 127
1, 60000, Note_on_c, 1, 62, 127
1, 60000, Note_on_c, 1, 52, 127
1, 60059, Note_off_c, 1, 62, 0
1, 60060, Note_on_c, 1, 60, 127
1, 60119, Note_off_c, 1, 52, 0
1, 60119, Note_off_c, 1, 60, 0
1, 60120, Note_on_c, 1, 68, 127
1, 60120, Note_on_c, 1, 53, 127
1, 60179, Note_off_c, 1, 67, 0
1, 60180, Note_on_c, 1, 65, 127
1, 60209, Note_off_c, 1, 65, 0
1, 60210, Note_on_c, 1, 64, 127
1, 60239, Note_off_c, 1, 53, 0
1, 60239, Note_off_c, 1, 64, 0
1, 60240, Note_on_c, 1, 51, 127
1, 60359, Note_off_c, 1, 51, 0
1, 60360, Note_on_c, 1, 70, 127
1, 60360, Note_on_c, 1, 49, 127
1, 60389, Note_off_c, 1, 70, 0
1, 60479, Note_off_c, 1, 49, 0
1, 60480, Note_on_c, 1, 48, 127
1, 60540, Note_on_c, 1, 69, 127
1, 60599, Note_off_c, 1, 48, 0
1, 60599, Note_off_c, 1, 69, 0
1, 60600, Note_on_c, 1, 73, 127
1, 60600, Note_on_c, 1, 46, 127
1, 60630, Note_off_c, 1, 68, 0
1, 60779, Note_off_c, 1, 73, 0
1, 60825, Note_on_c, 1, 72, 127
1, 60839, Note_off_c, 1, 46, 0
1, 60839, Note_off_c, 1, 72, 0
1, 60840, Note_on_c, 1, 68, 127
1, 60840, Note_on_c, 1, 65, 127
1, 60840, Note_on_c, 1, 48, 127
1, 60989, Note_off_c, 1, 65, 0
1, 60990, Note_on_c, 1, 64, 127
1, 61019, Note_off_c, 1, 64, 0
1, 61020, Note_on_c, 1, 62, 127
1, 61049, Note_off_c, 1, 62, 0
1, 61079, Note_off_c, 1, 68, 0
1, 61079, Note_off_c, 1, 48, 0
1, 61080, Note_on_c, 1, 67, 127
1, 61080, Note_on_c, 1, 65, 127
1, 61080, Note_on_c, 1, 36, 127
1, 61095, Note_off_c, 1, 67, 0
1, 61095, Note_on_c, 1, 68, 127
1, 61100, Note_off_c, 1, 65, 0
1, 61100, Note_on_c, 1, 64, 127
1, 61110, Note_off_c, 1, 68, 0
1, 61120, Note_off_c, 1, 64, 0
1, 61319, Note_off_c, 1, 36, 0
1, 61320, Note_on_c, 1, 65, 127
1, 61320, Note_on_c, 1, 41, 127
1, 61439, Note_off_c, 1, 41, 0
1, 61440, Note_on_c, 1, 48, 127
1, 61559, Note_off_c, 1, 48, 0
1, 61560, Note_on_c, 1, 53, 127
1, 61679, Note_off_c, 1, 53, 0
1, 61680, Note_on_c, 1, 51, 127
1, 61799, Note_off_c, 1, 51, 0
1, 61800, Note_on_c, 1, 50, 127
1, 61919, Note_off_c, 1, 50, 0
1, 62039, Note_off_c, 1, 65, 0
1, 62040, Note_on_c, 1, 65, 127
1, 62040, Note_on_c, 1, 46, 127
1, 62159, Note_off_c, 1, 46, 0
1, 62160, Note_on_c, 1, 48, 127
1, 62279, Note_off_c, 1, 48, 0
1, 62280, Note_on_c, 1, 70, 127
1, 62280, Note_on_c, 1, 50, 127
1, 62399, Note_off_c, 1, 50, 0
1, 62519, Note_off_c, 1, 70, 0
1, 62520, Note_on_c, 1, 72, 127
1, 62535, Note_off_c, 1, 72, 0
1, 62640, Note_on_c, 1, 74, 127
1, 62759, Note_off_c, 1, 74, 0
1, 62790, Note_off_c, 1, 65, 0
1, 62790, Note_on_c, 1, 67, 127
1, 62819, Note_off_c, 1, 67, 0
1, 62820, Note_on_c, 1, 69, 127
1, 62850, Note_on_c, 1, 63, 127
1, 62879, Note_off_c, 1, 63, 0
1, 62999, Note_off_c, 1, 69, 0
1, 63000, Note_on_c, 1, 57, 127
1, 63000, Note_on_c, 1, 75, 127
1, 63029, Note_off_c, 1, 57, 0
1, 63030, Note_on_c, 1, 55, 127
1, 63059, Note_off_c, 1, 55, 0
1, 63060, Note_on_c, 1, 53, 127
1, 63119, Note_off_c, 1, 53, 0
1, 63120, Note_on_c, 1, 60, 127
1, 63149, Note_off_c, 1, 60, 0
1, 63150, Note_on_c, 1, 58, 127
1, 63179, Note_off_c, 1, 58, 0
1, 63239, Note_off_c, 1, 75, 0
1, 63240, Note_on_c, 1, 63, 127
1, 63240, Note_on_c, 1, 74, 127
1, 63299, Note_off_c, 1, 74, 0
1, 63300, Note_on_c, 1, 72, 127
1, 63479, Note_off_c, 1, 72, 0
1, 63480, Note_on_c, 1, 70, 127
1, 63480, Note_on_c, 1, 41, 127
1, 63539, Note_off_c, 1, 70, 0
1, 63540, Note_on_c, 1, 69, 127
1, 63599, Note_off_c, 1, 41, 0
1, 63599, Note_off_c, 1, 69, 0
1, 63600, Note_on_c, 1, 67, 127
1, 63600, Note_on_c, 1, 43, 127
1, 63659, Note_off_c, 1, 67, 0
1, 63660, Note_on_c, 1, 65, 127
1, 63719, Note_off_c, 1, 43, 0
1, 63719, Note_off_c, 1, 65, 0
1, 63720, Note_on_c, 1, 45, 127
1, 63780, Note_off_c, 1, 63, 0
1, 63780, Note_on_c, 1, 60, 127
1, 63839, Note_off_c, 1, 45, 0
1, 63839, Note_off_c, 1, 60, 0
1, 63960, Note_on_c, 1, 69, 127
1, 63960, Note_on_c, 1, 63, 127
1, 63960, Note_on_c, 1, 41, 127
1, 63975, Note_off_c, 1, 63, 0
1, 63975, Note_on_c, 1, 65, 127
1, 63990, Note_off_c, 1, 65, 0
1, 64019, Note_off_c, 1, 69, 0
1, 64020, Note_on_c, 1, 70, 127
1, 64020, Note_on_c, 1, 62, 127
1, 64079, Note_off_c, 1, 70, 0
1, 64079, Note_off_c, 1, 62, 0
1, 64080, Note_on_c, 1, 72, 127
1, 64199, Note_off_c, 1, 41, 0
1, 64200, Note_on_c, 1, 46, 127
1, 64259, Note_off_c, 1, 72, 0
1, 64380, Note_on_c, 1, 67, 127
1, 64439, Note_off_c, 1, 46, 0
1, 64439, Note_off_c, 1, 67, 0
1, 64560, Note_on_c, 1, 60, 127
1, 64679, Note_off_c, 1, 60, 0
1, 64680, Note_on_c, 1, 58, 127
1, 64830, Note_on_c, 1, 74, 127
1, 64859, Note_off_c, 1, 74, 0
1, 64919, Note_off_c, 1, 58, 0
1, 64920, Note_on_c, 1, 70, 127
1, 64920, Note_on_c, 1, 74, 127
1, 64920, Note_on_c, 1, 46, 127
1, 65039, Note_off_c, 1, 46, 0
1, 65040, Note_on_c, 1, 45, 127
1, 65159, Note_off_c, 1, 74, 0
1, 65159, Note_off_c, 1, 45, 0
1, 65160, Note_on_c, 1, 72, 127
1, 65160, Note_on_c, 1, 43, 127
1, 65219, Note_off_c, 1, 72, 0
1, 65279, Note_off_c, 1, 43, 0
1, 65400, Note_on_c, 1, 69, 127
1, 65459, Note_off_c, 1, 69, 0
1, 65460, Note_on_c, 1, 67, 127
1, 65639, Note_off_c, 1, 67, 0
1, 65640, Note_on_c, 1, 65, 127
1, 65640, Note_on_c, 1, 48, 127
1, 65699, Note_off_c, 1, 65, 0
1, 65700, Note_off_c, 1, 70, 0
1, 65700, Note_on_c, 1, 64, 127
1, 65759, Note_off_c, 1, 64, 0
1, 65760, Note_on_c, 1, 60, 127
1, 65879, Note_off_c, 1, 48, 0
1, 65879, Note_off_c, 1, 60, 0
1, 65880, Note_on_c, 1, 58, 127
1, 65880, Note_on_c, 1, 67, 127
1, 65939, Note_off_c, 1, 58, 0
1, 65940, Note_on_c, 1, 57, 127
1, 65999, Note_off_c, 1, 67, 0
1, 65999, Note_off_c, 1, 57, 0
1, 66000, Note_on_c, 1, 58, 127
1, 66000, Note_on_c, 1, 64, 127
1, 66059, Note_off_c, 1, 58, 0
1, 66060, Note_on_c, 1, 55, 127
1, 66119, Note_off_c, 1, 64, 0
1, 66119, Note_off_c, 1, 55, 0
1, 66120, Note_on_c, 1, 52, 127
1, 66120, Note_on_c, 1, 70, 127
1, 66179, Note_off_c, 1, 52, 0
1, 66180, Note_on_c, 1, 48, 127
1, 66239, Note_off_c, 1, 70, 0
1, 66239, Note_off_c, 1, 48, 0
1, 66240, Note_on_c, 1, 52, 127
1, 66240, Note_on_c, 1, 67, 127
1, 66299, Note_off_c, 1, 52, 0
1, 66300, Note_on_c, 1, 55, 127
1, 66359, Note_off_c, 1, 67, 0
1, 66359, Note_off_c, 1, 55, 0
1, 66360, Note_on_c, 1, 58, 127
1, 66360, Note_on_c, 1, 76, 127
1, 66360, Note_on_c, 1, 48, 127
1, 66419, Note_off_c, 1, 76, 0
1, 66420, Note_on_c, 1, 77, 127
1, 66449, Note_off_c, 1, 77, 0
1, 66450, Note_on_c, 1, 79, 127
1, 66479, Note_off_c, 1, 48, 0
1, 66479, Note_off_c, 1, 79, 0
1, 66480, Note_on_c, 1, 50, 127
1, 66570, Note_on_c, 1, 74, 127
1, 66584, Note_off_c, 1, 74, 0
1, 66585, Note_on_c, 1, 72, 127
1, 66599, Note_off_c, 1, 58, 0
1, 66599, Note_off_c, 1, 50, 0
1, 66599, Note_off_c, 1, 72, 0
1, 66600, Note_on_c, 1, 72, 127
1, 66600, Note_on_c, 1, 52, 127
1, 66660, Note_on_c, 1, 55, 127
1, 66719, Note_off_c, 1, 52, 0
1, 66719, Note_off_c, 1, 55, 0
1, 66720, Note_on_c, 1, 58, 127
1, 66720, Note_on_c, 1, 50, 127
1, 66779, Note_off_c, 1, 58, 0
1, 66780, Note_on_c, 1, 60, 127
1, 66839, Note_off_c, 1, 72, 0
1, 66839, Note_off_c, 1, 50, 0
1, 66839, Note_off_c, 1, 60, 0
1, 66840, Note_on_c, 1, 64, 127
1, 66840, Note_on_c, 1, 70, 127
1, 66840, Note_on_c, 1, 48, 127
1, 66854, Note_off_c, 1, 70, 0
1, 66855, Note_on_c, 1, 72, 127
1, 66869, Note_off_c, 1, 72, 0
1, 66899, Note_off_c, 1, 64, 0
1, 66900, Note_on_c, 1, 65, 127
1, 66900, Note_on_c, 1, 69, 127
1, 66959, Note_off_c, 1, 65, 0
1, 66959, Note_off_c, 1, 69, 0
1, 66960, Note_on_c, 1, 67, 127
1, 67079, Note_off_c, 1, 48, 0
1, 67080, Note_on_c, 1, 53, 127
1, 67139, Note_off_c, 1, 67, 0
1, 67260, Note_on_c, 1, 62, 127
1, 67319, Note_off_c, 1, 53, 0
1, 67319, Note_off_c, 1, 62, 0
1, 67320, Note_on_c, 1, 60, 127
1, 67349, Note_off_c, 1, 60, 0
1, 67500, Note_on_c, 1, 58, 127
1, 67559, Note_off_c, 1, 58, 0
1, 67560, Note_on_c, 1, 57, 127
1, 67560, Note_on_c, 1, 70, 127
1, 67619, Note_off_c, 1, 57, 0
1, 67619, Note_off_c, 1, 70, 0
1, 67620, Note_on_c, 1, 53, 127
1, 67620, Note_on_c, 1, 72, 127
1, 67679, Note_off_c, 1, 53, 0
1, 67680, Note_on_c, 1, 69, 127
1, 67799, Note_off_c, 1, 72, 0
1, 67800, Note_on_c, 1, 62, 127
1, 67800, Note_on_c, 1, 46, 127
1, 67859, Note_off_c, 1, 69, 0
1, 67860, Note_on_c, 1, 67, 127
1, 67889, Note_off_c, 1, 67, 0
1, 67890, Note_on_c, 1, 65, 127
1, 67919, Note_off_c, 1, 46, 0
1, 67919, Note_off_c, 1, 65, 0
1, 67920, Note_on_c, 1, 45, 127
1, 68039, Note_off_c, 1, 62, 0
1, 68039, Note_off_c, 1, 45, 0
1, 68040, Note_on_c, 1, 62, 127
1, 68040, Note_on_c, 1, 67, 127
1, 68040, Note_on_c, 1, 46, 127
1, 68159, Note_off_c, 1, 67, 0
1, 68159, Note_off_c, 1, 46, 0
1, 68160, Note_on_c, 1, 70, 127
1, 68160, Note_on_c, 1, 50, 127
1, 68219, Note_off_c, 1, 70, 0
1, 68220, Note_on_c, 1, 69, 127
1, 68279, Note_off_c, 1, 50, 0
1, 68279, Note_off_c, 1, 69, 0
1, 68280, Note_on_c, 1, 43, 127
1, 68310, Note_off_c, 1, 62, 0
1, 68310, Note_on_c, 1, 60, 127
1, 68339, Note_off_c, 1, 60, 0
1, 68340, Note_on_c, 1, 58, 127
1, 68369, Note_off_c, 1, 58, 0
1, 68370, Note_on_c, 1, 57, 127
1, 68399, Note_off_c, 1, 43, 0
1, 68399, Note_off_c, 1, 57, 0
1, 68400, Note_on_c, 1, 58, 127
1, 68400, Note_on_c, 1, 67, 127
1, 68400, Note_on_c, 1, 55, 127
1, 68519, Note_off_c, 1, 67, 0
1, 68519, Note_off_c, 1, 55, 0
1, 68520, Note_on_c, 1, 65, 127
1, 68520, Note_on_c, 1, 48, 127
1, 68549, Note_off_c, 1, 65, 0
1, 68550, Note_on_c, 1, 64, 127
1, 68579, Note_off_c, 1, 58, 0
1, 68639, Note_off_c, 1, 48, 0
1, 68639, Note_off_c, 1, 64, 0
1, 68640, Note_on_c, 1, 67, 127
1, 68640, Note_on_c, 1, 62, 127
1, 68640, Note_on_c, 1, 52, 127
1, 68699, Note_off_c, 1, 62, 0
1, 68700, Note_on_c, 1, 60, 127
1, 68759, Note_off_c, 1, 52, 0
1, 68759, Note_off_c, 1, 60, 0
1, 68760, Note_on_c, 1, 68, 127
1, 68760, Note_on_c, 1, 53, 127
1, 68819, Note_off_c, 1, 67, 0
1, 68820, Note_on_c, 1, 65, 127
1, 68849, Note_off_c, 1, 65, 0
1, 68850, Note_on_c, 1, 64, 127
1, 68879, Note_off_c, 1, 53, 0
1, 68879, Note_off_c, 1, 64, 0
1, 68880, Note_on_c, 1, 51, 127
1, 68999, Note_off_c, 1, 51, 0
1, 69000, Note_on_c, 1, 70, 127
1, 69000, Note_on_c, 1, 49, 127
1, 69029, Note_off_c, 1, 70, 0
1, 69119, Note_off_c, 1, 49, 0
1, 69120, Note_on_c, 1, 48, 127
1, 69180, Note_on_c, 1, 69, 127
1, 69239, Note_off_c, 1, 48, 0
1, 69239, Note_off_c, 1, 69, 0
1, 69240, Note_on_c, 1, 73, 127
1, 69240, Note_on_c, 1, 46, 127
1, 69270, Note_off_c, 1, 68, 0
1, 69419, Note_off_c, 1, 73, 0
1, 69465, Note_on_c, 1, 72, 127
1, 69479, Note_off_c, 1, 46, 0
1, 69479, Note_off_c, 1, 72, 0
1, 69480, Note_on_c, 1, 68, 127
1, 69480, Note_on_c, 1, 65, 127
1, 69480, Note_on_c, 1, 48, 127
1, 69629, Note_off_c, 1, 65, 0
1, 69630, Note_on_c, 1, 64, 127
1, 69659, Note_off_c, 1, 64, 0
1, 69660, Note_on_c, 1, 62, 127
1, 69689, Note_off_c, 1, 62, 0
1, 69719, Note_off_c, 1, 68, 0
1, 69719, Note_off_c, 1, 48, 0
1, 69720, Note_on_c, 1, 67, 127
1, 69720, Note_on_c, 1, 65, 127
1, 69720, Note_on_c, 1, 36, 127
1, 69735, Note_off_c, 1, 67, 0
1, 69735, Note_on_c, 1, 68, 127
1, 69740, Note_off_c, 1, 65, 0
1, 69740, Note_on_c, 1, 64, 127
1, 69750, Note_off_c, 1, 68, 0
1, 69760, Note_off_c, 1, 64, 0
1, 69959, Note_off_c, 1, 36, 0
1, 69960, Note_on_c, 1, 65, 127
1, 69960, Note_on_c, 1, 41, 127
1, 70679, Note_off_c, 1, 65, 0
1, 70679, Note_off_c, 1, 41, 0
1, 70680, Note_on_c, 1, 77, 127
1, 70680, Note_on_c, 1, 53, 127
1, 70695, Note_off_c, 1, 77, 0
1, 70695, Note_on_c, 1, 75, 127
1, 70710, Note_off_c, 1, 75, 0
1, 70799, Note_off_c, 1, 53, 0
1, 70800, Note_on_c, 1, 55, 127
1, 70919, Note_off_c, 1, 55, 0
1, 70920, Note_on_c, 1, 60, 127
1, 70920, Note_on_c, 1, 57, 127
1, 71039, Note_off_c, 1, 57, 0
1, 71159, Note_off_c, 1, 60, 0
1, 71160, Note_on_c, 1, 62, 127
1, 71279, Note_off_c, 1, 62, 0
1, 71280, Note_on_c, 1, 63, 127
1, 71399, Note_off_c, 1, 63, 0
1, 71400, Note_on_c, 1, 59, 127
1, 71460, Note_on_c, 1, 68, 127
1, 71519, Note_off_c, 1, 68, 0
1, 71520, Note_on_c, 1, 67, 127
1, 71579, Note_off_c, 1, 67, 0
1, 71580, Note_on_c, 1, 65, 127
1, 71639, Note_off_c, 1, 59, 0
1, 71639, Note_off_c, 1, 65, 0
1, 71640, Note_on_c, 1, 65, 127
1, 71640, Note_on_c, 1, 67, 127
1, 71699, Note_off_c, 1, 67, 0
1, 71700, Note_on_c, 1, 71, 127
1, 71759, Note_off_c, 1, 71, 0
1, 71760, Note_on_c, 1, 74, 127
1, 71819, Note_off_c, 1, 74, 0
1, 71820, Note_on_c, 1, 75, 127
1, 71879, Note_off_c, 1, 75, 0
1, 71880, Note_on_c, 1, 77, 127
1, 71939, Note_off_c, 1, 77, 0
1, 72060, Note_on_c, 1, 79, 127
1, 72119, Note_off_c, 1, 79, 0
1, 72120, Note_on_c, 1, 80, 127
1, 72120, Note_on_c, 1, 50, 127
1, 72179, Note_off_c, 1, 80, 0
1, 72239, Note_off_c, 1, 50, 0
1, 72240, Note_off_c, 1, 65, 0
1, 72240, Note_on_c, 1, 56, 127
1, 72240, Note_on_c, 1, 83, 127
1, 72240, Note_on_c, 1, 48, 127
1, 72299, Note_off_c, 1, 83, 0
1, 72300, Note_on_c, 1, 84, 127
1, 72359, Note_off_c, 1, 56, 0
1, 72359, Note_off_c, 1, 48, 0
1, 72359, Note_off_c, 1, 84, 0
1, 72360, Note_on_c, 1, 55, 127
1, 72360, Note_on_c, 1, 86, 127
1, 72360, Note_on_c, 1, 47, 127
1, 72449, Note_off_c, 1, 55, 0
1, 72450, Note_on_c, 1, 57, 127
1, 72479, Note_off_c, 1, 47, 0
1, 72479, Note_off_c, 1, 57, 0
1, 72480, Note_on_c, 1, 59, 127
1, 72480, Note_on_c, 1, 50, 127
1, 72509, Note_off_c, 1, 59, 0
1, 72510, Note_on_c, 1, 60, 127
1, 72539, Note_off_c, 1, 60, 0
1, 72540, Note_on_c, 1, 62, 127
1, 72569, Note_off_c, 1, 62, 0
1, 72570, Note_on_c, 1, 63, 127
1, 72599, Note_off_c, 1, 50, 0
1, 72599, Note_off_c, 1, 63, 0
1, 72600, Note_on_c, 1, 65, 127
1, 72600, Note_on_c, 1, 43, 127
1, 72629, Note_off_c, 1, 65, 0
1, 72630, Note_on_c, 1, 67, 127
1, 72659, Note_off_c, 1, 67, 0
1, 72660, Note_on_c, 1, 68, 127
1, 72719, Note_off_c, 1, 43, 0
1, 72779, Note_off_c, 1, 68, 0
1, 72840, Note_on_c, 1, 48, 127
1, 72900, Note_off_c, 1, 86, 0
1, 72900, Note_on_c, 1, 84, 127
1, 72959, Note_off_c, 1, 84, 0
1, 72960, Note_on_c, 1, 83, 127
1, 73019, Note_off_c, 1, 83, 0
1, 73079, Note_off_c, 1, 48, 0
1, 73080, Note_on_c, 1, 65, 127
1, 73080, Note_on_c, 1, 84, 127
1, 73089, Note_off_c, 1, 65, 0
1, 73090, Note_on_c, 1, 63, 127
1, 73099, Note_off_c, 1, 63, 0
1, 73139, Note_off_c, 1, 84, 0
1, 73140, Note_on_c, 1, 65, 127
1, 73140, Note_on_c, 1, 81, 127
1, 73149, Note_off_c, 1, 65, 0
1, 73150, Note_on_c, 1, 63, 127
1, 73159, Note_off_c, 1, 63, 0
1, 73199, Note_off_c, 1, 81, 0
1, 73200, Note_on_c, 1, 62, 127
1, 73200, Note_on_c, 1, 79, 127
1, 73259, Note_off_c, 1, 79, 0
1, 73260, Note_on_c, 1, 77, 127
1, 73319, Note_off_c, 1, 62, 0
1, 73319, Note_off_c, 1, 77, 0
1, 73320, Note_on_c, 1, 60, 127
1, 73320, Note_on_c, 1, 75, 127
1, 73379, Note_off_c, 1, 75, 0
1, 73380, Note_on_c, 1, 74, 127
1, 73439, Note_off_c, 1, 74, 0
1, 73440, Note_on_c, 1, 72, 127
1, 73499, Note_off_c, 1, 72, 0
1, 73500, Note_on_c, 1, 70, 127
1, 73559, Note_off_c, 1, 60, 0
1, 73559, Note_off_c, 1, 70, 0
1, 73560, Note_on_c, 1, 69, 127
1, 73560, Note_on_c, 1, 48, 127
1, 73679, Note_off_c, 1, 69, 0
1, 73679, Note_off_c, 1, 48, 0
1, 73680, Note_on_c, 1, 72, 127
1, 73680, Note_on_c, 1, 50, 127
1, 73739, Note_off_c, 1, 72, 0
1, 73740, Note_on_c, 1, 70, 127
1, 73799, Note_off_c, 1, 50, 0
1, 73799, Note_off_c, 1, 70, 0
1, 73800, Note_on_c, 1, 70, 127
1, 73800, Note_on_c, 1, 51, 127
1, 73829, Note_off_c, 1, 70, 0
1, 73830, Note_on_c, 1, 72, 127
1, 73919, Note_off_c, 1, 51, 0
1, 73920, Note_on_c, 1, 48, 127
1, 74039, Note_off_c, 1, 48, 0
1, 74040, Note_on_c, 1, 45, 127
1, 74069, Note_off_c, 1, 72, 0
1, 74100, Note_on_c, 1, 69, 127
1, 74129, Note_off_c, 1, 69, 0
1, 74159, Note_off_c, 1, 45, 0
1, 74160, Note_on_c, 1, 72, 127
1, 74160, Note_on_c, 1, 43, 127
1, 74189, Note_off_c, 1, 72, 0
1, 74190, Note_on_c, 1, 74, 127
1, 74219, Note_off_c, 1, 74, 0
1, 74220, Note_on_c, 1, 76, 127
1, 74249, Note_off_c, 1, 76, 0
1, 74250, Note_on_c, 1, 78, 127
1, 74279, Note_off_c, 1, 43, 0
1, 74279, Note_off_c, 1, 78, 0
1, 74280, Note_on_c, 1, 60, 127
1, 74280, Note_on_c, 1, 79, 127
1, 74280, Note_on_c, 1, 45, 127
1, 74399, Note_off_c, 1, 60, 0
1, 74399, Note_off_c, 1, 79, 0
1, 74399, Note_off_c, 1, 45, 0
1, 74400, Note_on_c, 1, 63, 127
1, 74400, Note_on_c, 1, 78, 127
1, 74400, Note_on_c, 1, 46, 127
1, 74459, Note_off_c, 1, 63, 0
1, 74460, Note_on_c, 1, 62, 127
1, 74519, Note_off_c, 1, 46, 0
1, 74519, Note_off_c, 1, 62, 0
1, 74520, Note_on_c, 1, 48, 127
1, 74639, Note_off_c, 1, 78, 0
1, 74639, Note_off_c, 1, 48, 0
1, 74640, Note_on_c, 1, 81, 127
1, 74640, Note_on_c, 1, 45, 127
1, 74699, Note_off_c, 1, 81, 0
1, 74700, Note_on_c, 1, 79, 127
1, 74759, Note_off_c, 1, 45, 0
1, 74759, Note_off_c, 1, 79, 0
1, 74760, Note_on_c, 1, 42, 127
1, 74820, Note_on_c, 1, 60, 127
1, 74849, Note_off_c, 1, 60, 0
1, 74879, Note_off_c, 1, 42, 0
1, 74880, Note_on_c, 1, 64, 127
1, 74880, Note_on_c, 1, 38, 127
1, 74909, Note_off_c, 1, 64, 0
1, 74910, Note_on_c, 1, 66, 127
1, 74939, Note_off_c, 1, 66, 0
1, 74940, Note_on_c, 1, 67, 127
1, 74969, Note_off_c, 1, 67, 0
1, 74970, Note_on_c, 1, 69, 127
1, 74999, Note_off_c, 1, 38, 0
1, 74999, Note_off_c, 1, 69, 0
1, 75000, Note_on_c, 1, 70, 127
1, 75000, Note_on_c, 1, 43, 127
1, 75059, Note_off_c, 1, 70, 0
1, 75060, Note_on_c, 1, 72, 127
1, 75089, Note_off_c, 1, 72, 0
1, 75119, Note_off_c, 1, 43, 0
1, 75120, Note_on_c, 1, 69, 127
1, 75120, Note_on_c, 1, 84, 127
1, 75120, Note_on_c, 1, 51, 127
1, 75149, Note_off_c, 1, 69, 0
1, 75150, Note_on_c, 1, 70, 127
1, 75179, Note_off_c, 1, 70, 0
1, 75180, Note_on_c, 1, 72, 127
1, 75239, Note_off_c, 1, 84, 0
1, 75239, Note_off_c, 1, 51, 0
1, 75239, Note_off_c, 1, 72, 0
1, 75240, Note_on_c, 1, 67, 127
1, 75240, Note_on_c, 1, 82, 127
1, 75240, Note_on_c, 1, 50, 127
1, 75269, Note_off_c, 1, 67, 0
1, 75269, Note_off_c, 1, 82, 0
1, 75270, Note_on_c, 1, 66, 127
1, 75270, Note_on_c, 1, 81, 127
1, 75284, Note_off_c, 1, 66, 0
1, 75285, Note_off_c, 1, 81, 0
1, 75359, Note_off_c, 1, 50, 0
1, 75360, Note_on_c, 1, 48, 127
1, 75479, Note_off_c, 1, 48, 0
1, 75480, Note_on_c, 1, 66, 127
1, 75480, Note_on_c, 1, 81, 127
1, 75480, Note_on_c, 1, 50, 127
1, 75489, Note_off_c, 1, 66, 0
1, 75489, Note_off_c, 1, 81, 0
1, 75490, Note_on_c, 1, 67, 127
1, 75490, Note_on_c, 1, 82, 127
1, 75499, Note_off_c, 1, 67, 0
1, 75499, Note_off_c, 1, 82, 0
1, 75599, Note_off_c, 1, 50, 0
1, 75600, Note_on_c, 1, 67, 127
1, 75600, Note_on_c, 1, 79, 127
1, 75600, Note_on_c, 1, 38, 127
1, 75719, Note_off_c, 1, 67, 0
1, 75719, Note_off_c, 1, 38, 0
1, 75720, Note_on_c, 1, 43, 127
1, 75839, Note_off_c, 1, 43, 0
1, 75840, Note_on_c, 1, 50, 127
1, 75959, Note_off_c, 1, 50, 0
1, 75960, Note_on_c, 1, 55, 127
1, 76079, Note_off_c, 1, 55, 0
1, 76080, Note_on_c, 1, 57, 127
1, 76199, Note_off_c, 1, 57, 0
1, 76260, Note_on_c, 1, 58, 127
1, 76274, Note_off_c, 1, 58, 0
1, 76440, Note_off_c, 1, 79, 0
1, 76440, Note_on_c, 1, 52, 127
1, 76559, Note_off_c, 1, 52, 0
1, 76560, Note_on_c, 1, 50, 127
1, 76679, Note_off_c, 1, 50, 0
1, 76680, Note_on_c, 1, 67, 127
1, 76680, Note_on_c, 1, 52, 127
1, 76799, Note_off_c, 1, 67, 0
1, 76799, Note_off_c, 1, 52, 0
1, 76800, Note_on_c, 1, 69, 127
1, 76800, Note_on_c, 1, 53, 127
1, 76919, Note_off_c, 1, 69, 0
1, 76919, Note_off_c, 1, 53, 0
1, 76920, Note_on_c, 1, 69, 127
1, 76920, Note_on_c, 1, 53, 127
1, 76979, Note_off_c, 1, 69, 0
1, 76980, Note_off_c, 1, 53, 0
1, 76980, Note_on_c, 1, 70, 127
1, 76984, Note_on_c, 1, 55, 127
1, 76994, Note_off_c, 1, 70, 0
1, 76998, Note_off_c, 1, 55, 0
1, 77010, Note_on_c, 1, 67, 127
1, 77014, Note_on_c, 1, 52, 127
1, 77024, Note_off_c, 1, 67, 0
1, 77028, Note_off_c, 1, 52, 0
1, 77160, Note_on_c, 1, 65, 127
1, 77164, Note_on_c, 1, 48, 127
1, 77219, Note_off_c, 1, 65, 0
1, 77220, Note_on_c, 1, 64, 127
1, 77283, Note_off_c, 1, 48, 0
1, 77284, Note_on_c, 1, 46, 127
1, 77343, Note_off_c, 1, 46, 0
1, 77344, Note_on_c, 1, 45, 127
1, 77403, Note_off_c, 1, 45, 0
1, 77404, Note_on_c, 1, 43, 127
1, 77520, Note_on_c, 1, 72, 127
1, 77523, Note_off_c, 1, 43, 0
1, 77639, Note_off_c, 1, 72, 0
1, 77700, Note_on_c, 1, 74, 127
1, 77714, Note_off_c, 1, 74, 0
1, 77884, Note_on_c, 1, 36, 127
1, 77939, Note_off_c, 1, 64, 0
1, 78000, Note_on_c, 1, 79, 127
1, 78000, Note_on_c, 1, 34, 127
1, 78003, Note_off_c, 1, 36, 0
1, 78119, Note_off_c, 1, 79, 0
1, 78119, Note_off_c, 1, 34, 0
1, 78120, Note_on_c, 1, 67, 127
1, 78120, Note_on_c, 1, 77, 127
1, 78124, Note_on_c, 1, 36, 127
1, 78149, Note_off_c, 1, 77, 0
1, 78150, Note_on_c, 1, 76, 127
1, 78169, Note_off_c, 1, 76, 0
1, 78179, Note_off_c, 1, 67, 0
1, 78180, Note_on_c, 1, 65, 127
1, 78239, Note_off_c, 1, 65, 0
1, 78240, Note_on_c, 1, 64, 127
1, 78299, Note_off_c, 1, 64, 0
1, 78300, Note_on_c, 1, 62, 127
1, 78359, Note_off_c, 1, 62, 0
1, 78360, Note_on_c, 1, 60, 127
1, 78363, Note_off_c, 1, 36, 0
1, 78364, Note_on_c, 1, 48, 127
1, 78419, Note_off_c, 1, 60, 0
1, 78420, Note_on_c, 1, 58, 127
1, 78479, Note_off_c, 1, 58, 0
1, 78480, Note_on_c, 1, 57, 127
1, 78539, Note_off_c, 1, 57, 0
1, 78603, Note_off_c, 1, 48, 0
1, 78604, Note_on_c, 1, 41, 127
1, 78660, Note_on_c, 1, 72, 127
1, 78719, Note_off_c, 1, 72, 0
1, 78720, Note_on_c, 1, 75, 127
1, 78723, Note_off_c, 1, 41, 0
1, 78779, Note_off_c, 1, 75, 0
1, 78780, Note_on_c, 1, 74, 127
1, 78839, Note_off_c, 1, 74, 0
1, 78844, Note_on_c, 1, 53, 127
1, 78900, Note_on_c, 1, 70, 127
1, 78959, Note_off_c, 1, 70, 0
1, 78960, Note_on_c, 1, 55, 127
1, 78960, Note_on_c, 1, 69, 127
1, 78963, Note_off_c, 1, 53, 0
1, 78964, Note_on_c, 1, 51, 127
1, 79019, Note_off_c, 1, 69, 0
1, 79080, Note_off_c, 1, 55, 0
1, 79083, Note_off_c, 1, 51, 0
1, 79204, Note_on_c, 1, 50, 127
1, 79323, Note_off_c, 1, 50, 0
1, 79564, Note_on_c, 1, 46, 127
1, 79683, Note_off_c, 1, 46, 0
1, 79684, Note_on_c, 1, 45, 127
1, 79803, Note_off_c, 1, 45, 0
1, 79924, Note_on_c, 1, 38, 127
1, 80043, Note_off_c, 1, 38, 0
1, 80044, Note_on_c, 1, 39, 127
1, 80100, Note_on_c, 1, 68, 127
1, 80159, Note_off_c, 1, 68, 0
1, 80280, Note_on_c, 1, 63, 127
1, 80283, Note_off_c, 1, 39, 0
1, 80339, Note_off_c, 1, 63, 0
1, 80460, Note_on_c, 1, 59, 127
1, 80519, Note_off_c, 1, 59, 0
1, 81124, Note_on_c, 1, 47, 127
1, 81243, Note_off_c, 1, 47, 0
1, 81720, Note_on_c, 1, 73, 127
1, 81844, Note_on_c, 1, 43, 127
1, 81963, Note_off_c, 1, 43, 0
1, 81964, Note_on_c, 1, 44, 127
1, 82083, Note_off_c, 1, 44, 0
1, 82084, Note_on_c, 1, 40, 127
1, 82199, Note_off_c, 1, 73, 0
1, 82203, Note_off_c, 1, 40, 0
1, 82350, Note_on_c, 1, 66, 127
1, 82379, Note_off_c, 1, 66, 0
1, 84600, Note_on_c, 1, 65, 127
1, 84600, Note_on_c, 1, 67, 127
1, 84659, Note_off_c, 1, 67, 0
1, 84660, Note_on_c, 1, 71, 127
1, 84719, Note_off_c, 1, 71, 0
1, 84720, Note_on_c, 1, 74, 127
1, 84779, Note_off_c, 1, 74, 0
1, 84780, Note_on_c, 1, 75, 127
1, 84839, Note_off_c, 1, 75, 0
1, 84840, Note_on_c, 1, 77, 127
1, 84899, Note_off_c, 1, 77, 0
1, 85020, Note_on_c, 1, 79, 127
1, 85079, Note_off_c, 1, 79, 0
1, 85080, Note_on_c, 1, 80, 127
1, 85080, Note_on_c, 1, 50, 127
1, 85139, Note_off_c, 1, 80, 0
1, 85199, Note_off_c, 1, 50, 0
1, 85200, Note_off_c, 1, 65, 0
1, 85200, Note_on_c, 1, 56, 127
1, 85200, Note_on_c, 1, 83, 127
1, 85200, Note_on_c, 1, 48, 127
1, 85259, Note_off_c, 1, 83, 0
1, 85260, Note_on_c, 1, 84, 127
1, 85319, Note_off_c, 1, 56, 0
1, 85319, Note_off_c, 1, 48, 0
1, 85319, Note_off_c, 1, 84, 0
1, 85320, Note_on_c, 1, 55, 127
1, 85320, Note_on_c, 1, 86, 127
1, 85320, Note_on_c, 1, 47, 127
1, 85409, Note_off_c, 1, 55, 0
1, 85410, Note_on_c, 1, 57, 127
1, 85439, Note_off_c, 1, 47, 0
1, 85439, Note_off_c, 1, 57, 0
1, 85440, Note_on_c, 1, 59, 127
1, 85440, Note_on_c, 1, 50, 127
1, 85469, Note_off_c, 1, 59, 0
1, 85470, Note_on_c, 1, 60, 127
1, 85499, Note_off_c, 1, 60, 0
1, 85500, Note_on_c, 1, 62, 127
1, 85529, Note_off_c, 1, 62, 0
1, 85530, Note_on_c, 1, 63, 127
1, 85559, Note_off_c, 1, 50, 0
1, 85559, Note_off_c, 1, 63, 0
1, 85560, Note_on_c, 1, 65, 127
1, 85560, Note_on_c, 1, 43, 127
1, 85589, Note_off_c, 1, 65, 0
1, 85590, Note_on_c, 1, 67, 127
1, 85619, Note_off_c, 1, 67, 0
1, 85620, Note_on_c, 1, 68, 127
1, 85679, Note_off_c, 1, 43, 0
1, 85739, Note_off_c, 1, 68, 0
1, 85800, Note_on_c, 1, 48, 127
1, 85860, Note_off_c, 1, 86, 0
1, 85860, Note_on_c, 1, 84, 127
1, 85919, Note_off_c, 1, 84, 0
1, 85920, Note_on_c, 1, 83, 127
1, 85979, Note_off_c, 1, 83, 0
1, 86039, Note_off_c, 1, 48, 0
1, 86040, Note_on_c, 1, 65, 127
1, 86040, Note_on_c, 1, 84, 127
1, 86049, Note_off_c, 1, 65, 0
1, 86050, Note_on_c, 1, 63, 127
1, 86059, Note_off_c, 1, 63, 0
1, 86099, Note_off_c, 1, 84, 0
1, 86100, Note_on_c, 1, 65, 127
1, 86100, Note_on_c, 1, 81, 127
1, 86109, Note_off_c, 1, 65, 0
1, 86110, Note_on_c, 1, 63, 127
1, 86119, Note_off_c, 1, 63, 0
1, 86159, Note_off_c, 1, 81, 0
1, 86160, Note_on_c, 1, 62, 127
1, 86160, Note_on_c, 1, 79, 127
1, 86219, Note_off_c, 1, 79, 0
1, 86220, Note_on_c, 1, 77, 127
1, 86279, Note_off_c, 1, 62, 0
1, 86279, Note_off_c, 1, 77, 0
1, 86280, Note_on_c, 1, 60, 127
1, 86280, Note_on_c, 1, 75, 127
1, 86339, Note_off_c, 1, 75, 0
1, 86340, Note_on_c, 1, 74, 127
1, 86399, Note_off_c, 1, 74, 0
1, 86400, Note_on_c, 1, 72, 127
1, 86459, Note_off_c, 1, 72, 0
1, 86460, Note_on_c, 1, 70, 127
1, 86519, Note_off_c, 1, 60, 0
1, 86519, Note_off_c, 1, 70, 0
1, 86520, Note_on_c, 1, 69, 127
1, 86520, Note_on_c, 1, 48, 127
1, 86639, Note_off_c, 1, 69, 0
1, 86639, Note_off_c, 1, 48, 0
1, 86640, Note_on_c, 1, 72, 127
1, 86640, Note_on_c, 1, 50, 127
1, 86699, Note_off_c, 1, 72, 0
1, 86700, Note_on_c, 1, 70, 127
1, 86759, Note_off_c, 1, 50, 0
1, 86759, Note_off_c, 1, 70, 0
1, 86760, Note_on_c, 1, 70, 127
1, 86760, Note_on_c, 1, 51, 127
1, 86789, Note_off_c, 1, 70, 0
1, 86790, Note_on_c, 1, 72, 127
1, 86879, Note_off_c, 1, 51, 0
1, 86880, Note_on_c, 1, 48, 127
1, 86999, Note_off_c, 1, 48, 0
1, 87000, Note_on_c, 1, 45, 127
1, 87029, Note_off_c, 1, 72, 0
1, 87060, Note_on_c, 1, 69, 127
1, 87089, Note_off_c, 1, 69, 0
1, 87119, Note_off_c, 1, 45, 0
1, 87120, Note_on_c, 1, 72, 127
1, 87120, Note_on_c, 1, 43, 127
1, 87149, Note_off_c, 1, 72, 0
1, 87150, Note_on_c, 1, 74, 127
1, 87179, Note_off_c, 1, 74, 0
1, 87180, Note_on_c, 1, 76, 127
1, 87209, Note_off_c, 1, 76, 0
1, 87210, Note_on_c, 1, 78, 127
1, 87239, Note_off_c, 1, 43, 0
1, 87239, Note_off_c, 1, 78, 0
1, 87240, Note_on_c, 1, 60, 127
1, 87240, Note_on_c, 1, 79, 127
1, 87240, Note_on_c, 1, 45, 127
1, 87359, Note_off_c, 1, 60, 0
1, 87359, Note_off_c, 1, 79, 0
1, 87359, Note_off_c, 1, 45, 0
1, 87360, Note_on_c, 1, 63, 127
1, 87360, Note_on_c, 1, 78, 127
1, 87360, Note_on_c, 1, 46, 127
1, 87419, Note_off_c, 1, 63, 0
1, 87420, Note_on_c, 1, 62, 127
1, 87479, Note_off_c, 1, 46, 0
1, 87479, Note_off_c, 1, 62, 0
1, 87480, Note_on_c, 1, 48, 127
1, 87599, Note_off_c, 1, 78, 0
1, 87599, Note_off_c, 1, 48, 0
1, 87600, Note_on_c, 1, 81, 127
1, 87600, Note_on_c, 1, 45, 127
1, 87659, Note_off_c, 1, 81, 0
1, 87660, Note_on_c, 1, 79, 127
1, 87719, Note_off_c, 1, 45, 0
1, 87719, Note_off_c, 1, 79, 0
1, 87720, Note_on_c, 1, 42, 127
1, 87780, Note_on_c, 1, 60, 127
1, 87809, Note_off_c, 1, 60, 0
1, 87839, Note_off_c, 1, 42, 0
1, 87840, Note_on_c, 1, 64, 127
1, 87840, Note_on_c, 1, 38, 127
1, 87869, Note_off_c, 1, 64, 0
1, 87870, Note_on_c, 1, 66, 127
1, 87899, Note_off_c, 1, 66, 0
1, 87900, Note_on_c, 1, 67, 127
1, 87929, Note_off_c, 1, 67, 0
1, 87930, Note_on_c, 1, 69, 127
1, 87959, Note_off_c, 1, 38, 0
1, 87959, Note_off_c, 1, 69, 0
1, 87960, Note_on_c, 1, 70, 127
1, 87960, Note_on_c, 1, 43, 127
1, 88019, Note_off_c, 1, 70, 0
1, 88020, Note_on_c, 1, 72, 127
1, 88049, Note_off_c, 1, 72, 0
1, 88079, Note_off_c, 1, 43, 0
1, 88080, Note_on_c, 1, 69, 127
1, 88080, Note_on_c, 1, 84, 127
1, 88080, Note_on_c, 1, 51, 127
1, 88109, Note_off_c, 1, 69, 0
1, 88110, Note_on_c, 1, 70, 127
1, 88139, Note_off_c, 1, 70, 0
1, 88140, Note_on_c, 1, 72, 127
1, 88199, Note_off_c, 1, 84, 0
1, 88199, Note_off_c, 1, 51, 0
1, 88199, Note_off_c, 1, 72, 0
1, 88200, Note_on_c, 1, 67, 127
1, 88200, Note_on_c, 1, 82, 127
1, 88200, Note_on_c, 1, 50, 127
1, 88229, Note_off_c, 1, 67, 0
1, 88229, Note_off_c, 1, 82, 0
1, 88230, Note_on_c, 1, 66, 127
1, 88230, Note_on_c, 1, 81, 127
1, 88244, Note_off_c, 1, 66, 0
1, 88245, Note_off_c, 1, 81, 0
1, 88319, Note_off_c, 1, 50, 0
1, 88320, Note_on_c, 1, 48, 127
1, 88439, Note_off_c, 1, 48, 0
1, 88440, Note_on_c, 1, 66, 127
1, 88440, Note_on_c, 1, 81, 127
1, 88440, Note_on_c, 1, 50, 127
1, 88449, Note_off_c, 1, 66, 0
1, 88449, Note_off_c, 1, 81, 0
1, 88450, Note_on_c, 1, 67, 127
1, 88450, Note_on_c, 1, 82, 127
1, 88459, Note_off_c, 1, 67, 0
1, 88459, Note_off_c, 1, 82, 0
1, 88559, Note_off_c, 1, 50, 0
1, 88560, Note_on_c, 1, 67, 127
1, 88560, Note_on_c, 1, 79, 127
1, 88560, Note_on_c, 1, 38, 127
1, 88679, Note_off_c, 1, 67, 0
1, 88679, Note_off_c, 1, 38, 0
1, 88680, Note_on_c, 1, 43, 127
1, 88799, Note_off_c, 1, 43, 0
1, 88800, Note_on_c, 1, 50, 127
1, 88919, Note_off_c, 1, 50, 0
1, 88920, Note_on_c, 1, 55, 127
1, 89039, Note_off_c, 1, 55, 0
1, 89040, Note_on_c, 1, 57, 127
1, 89159, Note_off_c, 1, 57, 0
1, 89220, Note_on_c, 1, 58, 127
1, 89234, Note_off_c, 1, 58, 0
1, 89400, Note_off_c, 1, 79, 0
1, 89400, Note_on_c, 1, 52, 127
1, 89519, Note_off_c, 1, 52, 0
1, 89520, Note_on_c, 1, 50, 127
1, 89639, Note_off_c, 1, 50, 0
1, 89640, Note_on_c, 1, 67, 127
1, 89640, Note_on_c, 1, 52, 127
1, 89759, Note_off_c, 1, 67, 0
1, 89759, Note_off_c, 1, 52, 0
1, 89760, Note_on_c, 1, 69, 127
1, 89760, Note_on_c, 1, 53, 127
1, 89879, Note_off_c, 1, 69, 0
1, 89879, Note_off_c, 1, 53, 0
1, 89880, Note_on_c, 1, 69, 127
1, 89880, Note_on_c, 1, 53, 127
1, 89939, Note_off_c, 1, 69, 0
1, 89940, Note_off_c, 1, 53, 0
1, 89940, Note_on_c, 1, 70, 127
1, 89944, Note_on_c, 1, 55, 127
1, 89954, Note_off_c, 1, 70, 0
1, 89958, Note_off_c, 1, 55, 0
1, 89970, Note_on_c, 1, 67, 127
1, 89974, Note_on_c, 1, 52, 127
1, 89984, Note_off_c, 1, 67, 0
1, 89988, Note_off_c, 1, 52, 0
1, 90120, Note_on_c, 1, 65, 127
1, 90124, Note_on_c, 1, 48, 127
1, 90179, Note_off_c, 1, 65, 0
1, 90180, Note_on_c, 1, 64, 127
1, 90243, Note_off_c, 1, 48, 0
1, 90244, Note_on_c, 1, 46, 127
1, 90303, Note_off_c, 1, 46, 0
1, 90304, Note_on_c, 1, 45, 127
1, 90363, Note_off_c, 1, 45, 0
1, 90364, Note_on_c, 1, 43, 127
1, 90480, Note_on_c, 1, 72, 127
1, 90483, Note_off_c, 1, 43, 0
1, 90599, Note_off_c, 1, 72, 0
1, 90660, Note_on_c, 1, 74, 127
1, 90674, Note_off_c, 1, 74, 0
1, 90844, Note_on_c, 1, 36, 127
1, 90899, Note_off_c, 1, 64, 0
1, 90960, Note_on_c, 1, 79, 127
1, 90960, Note_on_c, 1, 34, 127
1, 90963, Note_off_c, 1, 36, 0
1, 91079, Note_off_c, 1, 79, 0
1, 91079, Note_off_c, 1, 34, 0
1, 91080, Note_on_c, 1, 67, 127
1, 91080, Note_on_c, 1, 77, 127
1, 91084, Note_on_c, 1, 36, 127
1, 91109, Note_off_c, 1, 77, 0
1, 91110, Note_on_c, 1, 76, 127
1, 91129, Note_off_c, 1, 76, 0
1, 91139, Note_off_c, 1, 67, 0
1, 91140, Note_on_c, 1, 65, 127
1, 91199, Note_off_c, 1, 65, 0
1, 91200, Note_on_c, 1, 64, 127
1, 91259, Note_off_c, 1, 64, 0
1, 91260, Note_on_c, 1, 62, 127
1, 91319, Note_off_c, 1, 62, 0
1, 91320, Note_on_c, 1, 60, 127
1, 91323, Note_off_c, 1, 36, 0
1, 91324, Note_on_c, 1, 48, 127
1, 91379, Note_off_c, 1, 60, 0
1, 91380, Note_on_c, 1, 58, 127
1, 91439, Note_off_c, 1, 58, 0
1, 91440, Note_on_c, 1, 57, 127
1, 91499, Note_off_c, 1, 57, 0
1, 91563, Note_off_c, 1, 48, 0
1, 91564, Note_on_c, 1, 41, 127
1, 91620, Note_on_c, 1, 72, 127
1, 91679, Note_off_c, 1, 72, 0
1, 91680, Note_on_c, 1, 75, 127
1, 91683, Note_off_c, 1, 41, 0
1, 91739, Note_off_c, 1, 75, 0
1, 91740, Note_on_c, 1, 74, 127
1, 91799, Note_off_c, 1, 74, 0
1, 91804, Note_on_c, 1, 53, 127
1, 91860, Note_on_c, 1, 70, 127
1, 91919, Note_off_c, 1, 70, 0
1, 91920, Note_on_c, 1, 55, 127
1, 91920, Note_on_c, 1, 69, 127
1, 91923, Note_off_c, 1, 53, 0
1, 91924, Note_on_c, 1, 51, 127
1, 91979, Note_off_c, 1, 69, 0
1, 92040, Note_off_c, 1, 55, 0
1, 92043, Note_off_c, 1, 51, 0
1, 92164, Note_on_c, 1, 50, 127
1, 92283, Note_off_c, 1, 50, 0
1, 92524, Note_on_c, 1, 46, 127
1, 92643, Note_off_c, 1, 46, 0
1, 92644, Note_on_c, 1, 45, 127
1, 92763, Note_off_c, 1, 45, 0
1, 92884, Note_on_c, 1, 38, 127
1, 93003, Note_off_c, 1, 38, 0
1, 93004, Note_on_c, 1, 39, 127
1, 93060, Note_on_c, 1, 68, 127
1, 93119, Note_off_c, 1, 68, 0
1, 93240, Note_on_c, 1, 63, 127
1, 93243, Note_off_c, 1, 39, 0
1, 93299, Note_off_c, 1, 63, 0
1, 93420, Note_on_c, 1, 59, 127
1, 93479, Note_off_c, 1, 59, 0
1, 94084, Note_on_c, 1, 47, 127
1, 94203, Note_off_c, 1, 47, 0
1, 94680, Note_on_c, 1, 73, 127
1, 94804, Note_on_c, 1, 43, 127
1, 94923, Note_off_c, 1, 43, 0
1, 94924, Note_on_c, 1, 44, 127
1, 95043, Note_off_c, 1, 44, 0
1, 95044, Note_on_c, 1, 40, 127
1, 95159, Note_off_c, 1, 73, 0
1, 95163, Note_off_c, 1, 40, 0
1, 95310, Note_on_c, 1, 66, 127
1, 95339, Note_off_c, 1, 66, 0
1, 96960, Note_on_c, 1, 55, 127
1, 97020, Note_on_c, 1, 74, 127
1, 97080, Note_off_c, 1, 55, 0
1, 97140, Note_on_c, 1, 53, 127
1, 97260, Note_off_c, 1, 53, 0
1, 97320, Note_off_c, 1, 74, 0
1, 97320, Note_on_c, 1, 67, 127
1, 97320, Note_on_c, 1, 51, 127
1, 97380, Note_off_c, 1, 67, 0
1, 97380, Note_on_c, 1, 79, 127
1, 97440, Note_off_c, 1, 51, 0
1, 97500, Note_off_c, 1, 79, 0
1, 97500, Note_on_c, 1, 81, 127
1, 97500, Note_on_c, 1, 48, 127
1, 97560, Note_off_c, 1, 48, 0
1, 97560, Note_on_c, 1, 50, 127
1, 97590, Note_off_c, 1, 81, 0
1, 97590, Note_on_c, 1, 82, 127
1, 97620, Note_off_c, 1, 50, 0
1, 97620, Note_off_c, 1, 82, 0
1, 97620, Note_on_c, 1, 84, 127
1, 97620, Note_on_c, 1, 38, 127
1, 97650, Note_off_c, 1, 84, 0
1, 97680, Note_off_c, 1, 38, 0
1, 97680, Note_on_c, 1, 43, 127
1, 97800, Note_off_c, 1, 43, 0
1, 98040, Note_on_c, 1, 77, 127
1, 98070, Note_off_c, 1, 77, 0
1, 98070, Note_on_c, 1, 76, 127
1, 98100, Note_off_c, 1, 76, 0
1, 98100, Note_on_c, 1, 62, 127
1, 98160, Note_on_c, 1, 86, 127
1, 98220, Note_off_c, 1, 62, 0
1, 98220, Note_on_c, 1, 64, 127
1, 98280, Note_off_c, 1, 86, 0
1, 98280, Note_on_c, 1, 85, 127
1, 98295, Note_off_c, 1, 85, 0
1, 98310, Note_off_c, 1, 64, 0
1, 98310, Note_on_c, 1, 65, 127
1, 98340, Note_off_c, 1, 65, 0
1, 98385, Note_on_c, 1, 83, 127
1, 98400, Note_off_c, 1, 83, 0
1, 98490, Note_on_c, 1, 66, 127
1, 98520, Note_off_c, 1, 66, 0
1, 98625, Note_on_c, 1, 69, 127
1, 98640, Note_off_c, 1, 69, 0
1, 98670, Note_on_c, 1, 63, 127
1, 98700, Note_off_c, 1, 63, 0
1, 98730, Note_on_c, 1, 60, 127
1, 98740, Note_on_c, 1, 78, 127
1, 98760, Note_off_c, 1, 60, 0
1, 98760, Note_off_c, 1, 78, 0
1, 98760, Note_on_c, 1, 58, 127
1, 98790, Note_off_c, 1, 58, 0
1, 98790, Note_on_c, 1, 57, 127
1, 98820, Note_off_c, 1, 57, 0
1, 98880, Note_on_c, 1, 75, 127
1, 98910, Note_off_c, 1, 75, 0
1, 98940, Note_on_c, 1, 72, 127
1, 98970, Note_off_c, 1, 72, 0
1, 98970, Note_on_c, 1, 70, 127
1, 99000, Note_off_c, 1, 70, 0
1, 99420, Note_on_c, 1, 59, 127
1, 99480, Note_off_c, 1, 59, 0
1, 99480, Note_on_c, 1, 52, 127
1, 99509, Note_off_c, 1, 52, 0
1, 99600, Note_on_c, 1, 76, 127
1, 99600, Note_on_c, 1, 55, 127
1, 99629, Note_off_c, 1, 55, 0
1, 99630, Note_on_c, 1, 58, 127
1, 99659, Note_off_c, 1, 76, 0
1, 99659, Note_off_c, 1, 58, 0
1, 99660, Note_on_c, 1, 76, 127
1, 99660, Note_on_c, 1, 57, 127
1, 99689, Note_off_c, 1, 76, 0
1, 99689, Note_off_c, 1, 57, 0
1, 99690, Note_on_c, 1, 77, 127
1, 99690, Note_on_c, 1, 55, 127
1, 99719, Note_off_c, 1, 55, 0
1, 99720, Note_on_c, 1, 65, 127
1, 99720, Note_on_c, 1, 53, 127
1, 99749, Note_off_c, 1, 53, 0
1, 99779, Note_off_c, 1, 77, 0
1, 99779, Note_off_c, 1, 65, 0
1, 99780, Note_on_c, 1, 57, 127
1, 99780, Note_on_c, 1, 51, 127
1, 99809, Note_off_c, 1, 51, 0
1, 99810, Note_on_c, 1, 53, 127
1, 99839, Note_off_c, 1, 57, 0
1, 99839, Note_off_c, 1, 53, 0
1, 99840, Note_on_c, 1, 58, 127
1, 99840, Note_on_c, 1, 50, 127
1, 99869, Note_off_c, 1, 50, 0
1, 99870, Note_on_c, 1, 53, 127
1, 99899, Note_off_c, 1, 53, 0
1, 99900, Note_on_c, 1, 82, 127
1, 99900, Note_on_c, 1, 51, 127
1, 99929, Note_off_c, 1, 51, 0
1, 99930, Note_on_c, 1, 55, 127
1, 99959, Note_off_c, 1, 58, 0
1, 99959, Note_off_c, 1, 82, 0
1, 99959, Note_off_c, 1, 55, 0
1, 99960, Note_on_c, 1, 74, 127
1, 99960, Note_on_c, 1, 53, 127
1, 99989, Note_off_c, 1, 53, 0
1, 99990, Note_on_c, 1, 56, 127
1, 100019, Note_off_c, 1, 74, 0
1, 100019, Note_off_c, 1, 56, 0
1, 100020, Note_on_c, 1, 75, 127
1, 100020, Note_on_c, 1, 55, 127
1, 100049, Note_off_c, 1, 55, 0
1, 100050, Note_on_c, 1, 53, 127
1, 100079, Note_off_c, 1, 75, 0
1, 100079, Note_off_c, 1, 53, 0
1, 100080, Note_on_c, 1, 63, 127
1, 100080, Note_on_c, 1, 79, 127
1, 100080, Note_on_c, 1, 51, 127
1, 100109, Note_off_c, 1, 51, 0
1, 100110, Note_on_c, 1, 53, 127
1, 100139, Note_off_c, 1, 63, 0
1, 100139, Note_off_c, 1, 79, 0
1, 100139, Note_off_c, 1, 53, 0
1, 100140, Note_on_c, 1, 55, 127
1, 100140, Note_on_c, 1, 70, 127
1, 100140, Note_on_c, 1, 50, 127
1, 100169, Note_off_c, 1, 50, 0
1, 100170, Note_on_c, 1, 51, 127
1, 100199, Note_off_c, 1, 55, 0
1, 100199, Note_off_c, 1, 70, 0
1, 100199, Note_off_c, 1, 51, 0
1, 100200, Note_on_c, 1, 57, 127
1, 100200, Note_on_c, 1, 75, 127
1, 100200, Note_on_c, 1, 48, 127
1, 100219, Note_off_c, 1, 75, 0
1, 100220, Note_on_c, 1, 77, 127
1, 100229, Note_off_c, 1, 48, 0
1, 100230, Note_on_c, 1, 53, 127
1, 100239, Note_off_c, 1, 77, 0
1, 100259, Note_off_c, 1, 57, 0
1, 100259, Note_off_c, 1, 53, 0
1, 100260, Note_on_c, 1, 60, 127
1, 100260, Note_on_c, 1, 77, 127
1, 100260, Note_on_c, 1, 51, 127
1, 100274, Note_off_c, 1, 77, 0
1, 100275, Note_on_c, 1, 75, 127
1, 100289, Note_off_c, 1, 51, 0
1, 100289, Note_off_c, 1, 75, 0
1, 100290, Note_on_c, 1, 50, 127
1, 100319, Note_off_c, 1, 60, 0
1, 100319, Note_off_c, 1, 50, 0
1, 100320, Note_on_c, 1, 51, 127
1, 100320, Note_on_c, 1, 77, 127
1, 100320, Note_on_c, 1, 48, 127
1, 100334, Note_off_c, 1, 77, 0
1, 100335, Note_on_c, 1, 75, 127
1, 100349, Note_off_c, 1, 48, 0
1, 100349, Note_off_c, 1, 75, 0
1, 100350, Note_on_c, 1, 46, 127
1, 100379, Note_off_c, 1, 51, 0
1, 100379, Note_off_c, 1, 46, 0
1, 100380, Note_on_c, 1, 53, 127
1, 100380, Note_on_c, 1, 77, 127
1, 100380, Note_on_c, 1, 45, 127
1, 100394, Note_off_c, 1, 77, 0
1, 100395, Note_on_c, 1, 75, 127
1, 100409, Note_off_c, 1, 45, 0
1, 100409, Note_off_c, 1, 75, 0
1, 100410, Note_on_c, 1, 50, 127
1, 100439, Note_off_c, 1, 50, 0
1, 100440, Note_on_c, 1, 48, 127
1, 100469, Note_off_c, 1, 48, 0
1, 100470, Note_on_c, 1, 74, 127
1, 100470, Note_on_c, 1, 46, 127
1, 100499, Note_off_c, 1, 74, 0
1, 100499, Note_off_c, 1, 46, 0
1, 100500, Note_on_c, 1, 72, 127
1, 100529, Note_off_c, 1, 72, 0
1, 100530, Note_on_c, 1, 70, 127
1, 100530, Note_on_c, 1, 43, 127
1, 100559, Note_off_c, 1, 70, 0
1, 100559, Note_off_c, 1, 43, 0
1, 100560, Note_on_c, 1, 69, 127
1, 100560, Note_on_c, 1, 41, 127
1, 100589, Note_off_c, 1, 69, 0
1, 100589, Note_off_c, 1, 41, 0
1, 100619, Note_off_c, 1, 53, 0
1, 100620, Note_on_c, 1, 53, 127
1, 100620, Note_on_c, 1, 72, 127
1, 100620, Note_on_c, 1, 45, 127
1, 100649, Note_off_c, 1, 72, 0
1, 100649, Note_off_c, 1, 45, 0
1, 100650, Note_on_c, 1, 70, 127
1, 100650, Note_on_c, 1, 43, 127
1, 100679, Note_off_c, 1, 53, 0
1, 100679, Note_off_c, 1, 70, 0
1, 100679, Note_off_c, 1, 43, 0
1, 100680, Note_on_c, 1, 53, 127
1, 100680, Note_on_c, 1, 69, 127
1, 100680, Note_on_c, 1, 41, 127
1, 100709, Note_off_c, 1, 69, 0
1, 100709, Note_off_c, 1, 41, 0
1, 100710, Note_on_c, 1, 67, 127
1, 100710, Note_on_c, 1, 39, 127
1, 100739, Note_off_c, 1, 53, 0
1, 100739, Note_off_c, 1, 67, 0
1, 100739, Note_off_c, 1, 39, 0
1, 100740, Note_on_c, 1, 53, 127
1, 100740, Note_on_c, 1, 65, 127
1, 100740, Note_on_c, 1, 38, 127
1, 100769, Note_off_c, 1, 65, 0
1, 100769, Note_off_c, 1, 38, 0
1, 100770, Note_on_c, 1, 70, 127
1, 100770, Note_on_c, 1, 43, 127
1, 100799, Note_off_c, 1, 53, 0
1, 100799, Note_off_c, 1, 70, 0
1, 100799, Note_off_c, 1, 43, 0
1, 100800, Note_on_c, 1, 53, 127
1, 100800, Note_on_c, 1, 69, 127
1, 100800, Note_on_c, 1, 41, 127
1, 100829, Note_off_c, 1, 69, 0
1, 100829, Note_off_c, 1, 41, 0
1, 100830, Note_on_c, 1, 67, 127
1, 100830, Note_on_c, 1, 39, 127
1, 100859, Note_off_c, 1, 53, 0
1, 100859, Note_off_c, 1, 67, 0
1, 100859, Note_off_c, 1, 39, 0
1, 100860, Note_on_c, 1, 53, 127
1, 100860, Note_on_c, 1, 65, 127
1, 100860, Note_on_c, 1, 38, 127
1, 100889, Note_off_c, 1, 65, 0
1, 100889, Note_off_c, 1, 38, 0
1, 100890, Note_on_c, 1, 63, 127
1, 100890, Note_on_c, 1, 36, 127
1, 100919, Note_off_c, 1, 53, 0
1, 100919, Note_off_c, 1, 63, 0
1, 100919, Note_off_c, 1, 36, 0
1, 100920, Note_on_c, 1, 46, 127
1, 100920, Note_on_c, 1, 62, 127
1, 100920, Note_on_c, 1, 34, 127
1, 100949, Note_off_c, 1, 62, 0
1, 100950, Note_on_c, 1, 60, 127
1, 100979, Note_off_c, 1, 46, 0
1, 100979, Note_off_c, 1, 34, 0
1, 100979, Note_off_c, 1, 60, 0
1, 100980, Note_on_c, 1, 58, 127
1, 100980, Note_on_c, 1, 62, 127
1, 100980, Note_on_c, 1, 55, 127
1, 101009, Note_off_c, 1, 62, 0
1, 101039, Note_off_c, 1, 58, 0
1, 101039, Note_off_c, 1, 55, 0
1, 101040, Note_on_c, 1, 58, 127
1, 101040, Note_on_c, 1, 70, 127
1, 101040, Note_on_c, 1, 50, 127
1, 101099, Note_off_c, 1, 58, 0
1, 101099, Note_off_c, 1, 50, 0
1, 101100, Note_on_c, 1, 60, 127
1, 101100, Note_on_c, 1, 51, 127
1, 101159, Note_off_c, 1, 70, 0
1, 101159, Note_off_c, 1, 60, 0
1, 101159, Note_off_c, 1, 51, 0
1, 101160, Note_on_c, 1, 60, 127
1, 101160, Note_on_c, 1, 69, 127
1, 101160, Note_on_c, 1, 48, 127
1, 101179, Note_off_c, 1, 69, 0
1, 101180, Note_on_c, 1, 70, 127
1, 101189, Note_off_c, 1, 60, 0
1, 101190, Note_on_c, 1, 62, 127
1, 101199, Note_off_c, 1, 70, 0
1, 101219, Note_off_c, 1, 48, 0
1, 101219, Note_off_c, 1, 62, 0
1, 101220, Note_on_c, 1, 63, 127
1, 101220, Note_on_c, 1, 70, 127
1, 101220, Note_on_c, 1, 53, 127
1, 101234, Note_off_c, 1, 70, 0
1, 101235, Note_on_c, 1, 69, 127
1, 101249, Note_off_c, 1, 63, 0
1, 101249, Note_off_c, 1, 69, 0
1, 101250, Note_on_c, 1, 60, 127
1, 101279, Note_off_c, 1, 53, 0
1, 101279, Note_off_c, 1, 60, 0
1, 101280, Note_on_c, 1, 62, 127
1, 101280, Note_on_c, 1, 70, 127
1, 101280, Note_on_c, 1, 46, 127
1, 101309, Note_off_c, 1, 62, 0
1, 101310, Note_on_c, 1, 60, 127
1, 101339, Note_off_c, 1, 70, 0
1, 101339, Note_off_c, 1, 46, 0
1, 101339, Note_off_c, 1, 60, 0
1, 101340, Note_on_c, 1, 58, 127
1, 101340, Note_on_c, 1, 70, 127
1, 101340, Note_on_c, 1, 50, 127
1, 101369, Note_off_c, 1, 58, 0
1, 101370, Note_on_c, 1, 62, 127
1, 101399, Note_off_c, 1, 70, 0
1, 101399, Note_off_c, 1, 50, 0
1, 101399, Note_off_c, 1, 62, 0
1, 101400, Note_on_c, 1, 60, 127
1, 101400, Note_on_c, 1, 70, 127
1, 101400, Note_on_c, 1, 53, 127
1, 101429, Note_off_c, 1, 60, 0
1, 101430, Note_on_c, 1, 63, 127
1, 101459, Note_off_c, 1, 70, 0
1, 101459, Note_off_c, 1, 53, 0
1, 101459, Note_off_c, 1, 63, 0
1, 101460, Note_on_c, 1, 62, 127
1, 101460, Note_on_c, 1, 70, 127
1, 101460, Note_on_c, 1, 58, 127
1, 101489, Note_off_c, 1, 62, 0
1, 101490, Note_on_c, 1, 60, 127
1, 101519, Note_off_c, 1, 70, 0
1, 101519, Note_off_c, 1, 58, 0
1, 101519, Note_off_c, 1, 60, 0
1, 101520, Note_on_c, 1, 58, 127
1, 101520, Note_on_c, 1, 70, 127
1, 101520, Note_on_c, 1, 57, 127
1, 101549, Note_off_c, 1, 58, 0
1, 101550, Note_on_c, 1, 62, 127
1, 101579, Note_off_c, 1, 70, 0
1, 101579, Note_off_c, 1, 57, 0
1, 101579, Note_off_c, 1, 62, 0
1, 101580, Note_on_c, 1, 60, 127
1, 101580, Note_on_c, 1, 70, 127
1, 101580, Note_on_c, 1, 55, 127
1, 101609, Note_off_c, 1, 60, 0
1, 101610, Note_on_c, 1, 58, 127
1, 101639, Note_off_c, 1, 70, 0
1, 101639, Note_off_c, 1, 55, 0
1, 101639, Note_off_c, 1, 58, 0
1, 101640, Note_on_c, 1, 57, 127
1, 101640, Note_on_c, 1, 65, 127
1, 101640, Note_on_c, 1, 62, 127
1, 101669, Note_off_c, 1, 57, 0
1, 101670, Note_on_c, 1, 55, 127
1, 101699, Note_off_c, 1, 65, 0
1, 101699, Note_off_c, 1, 55, 0
1, 101700, Note_on_c, 1, 77, 127
1, 101730, Note_on_c, 1, 53, 127
1, 101759, Note_off_c, 1, 62, 0
1, 101759, Note_off_c, 1, 77, 0
1, 101759, Note_off_c, 1, 53, 0
1, 101760, Note_on_c, 1, 65, 127
1, 101760, Note_on_c, 1, 77, 127
1, 101760, Note_on_c, 1, 57, 127
1, 101819, Note_off_c, 1, 77, 0
1, 101819, Note_off_c, 1, 57, 0
1, 101820, Note_on_c, 1, 79, 127
1, 101820, Note_on_c, 1, 58, 127
1, 101879, Note_off_c, 1, 65, 0
1, 101879, Note_off_c, 1, 79, 0
1, 101879, Note_off_c, 1, 58, 0
1, 101880, Note_on_c, 1, 64, 127
1, 101880, Note_on_c, 1, 79, 127
1, 101880, Note_on_c, 1, 55, 127
1, 101909, Note_off_c, 1, 79, 0
1, 101910, Note_on_c, 1, 81, 127
1, 101939, Note_off_c, 1, 55, 0
1, 101939, Note_off_c, 1, 81, 0
1, 101940, Note_on_c, 1, 82, 127
1, 101940, Note_on_c, 1, 60, 127
1, 101969, Note_off_c, 1, 82, 0
1, 101999, Note_off_c, 1, 64, 0
1, 101999, Note_off_c, 1, 60, 0
1, 102000, Note_on_c, 1, 65, 127
1, 102000, Note_on_c, 1, 81, 127
1, 102000, Note_on_c, 1, 53, 127
1, 102019, Note_off_c, 1, 65, 0
1, 102020, Note_on_c, 1, 63, 127
1, 102029, Note_off_c, 1, 81, 0
1, 102030, Note_on_c, 1, 79, 127
1, 102039, Note_off_c, 1, 63, 0
1, 102040, Note_on_c, 1, 62, 127
1, 102059, Note_off_c, 1, 53, 0
1, 102059, Note_off_c, 1, 79, 0
1, 102059, Note_off_c, 1, 62, 0
1, 102060, Note_on_c, 1, 63, 127
1, 102060, Note_on_c, 1, 77, 127
1, 102060, Note_on_c, 1, 41, 127
1, 102079, Note_off_c, 1, 63, 0
1, 102080, Note_on_c, 1, 62, 127
1, 102089, Note_off_c, 1, 77, 0
1, 102090, Note_on_c, 1, 81, 127
1, 102099, Note_off_c, 1, 62, 0
1, 102100, Note_on_c, 1, 60, 127
1, 102119, Note_off_c, 1, 41, 0
1, 102119, Note_off_c, 1, 81, 0
1, 102119, Note_off_c, 1, 60, 0
1, 102120, Note_on_c, 1, 62, 127
1, 102120, Note_on_c, 1, 79, 127
1, 102120, Note_on_c, 1, 41, 127
1, 102139, Note_off_c, 1, 62, 0
1, 102140, Note_on_c, 1, 60, 127
1, 102149, Note_off_c, 1, 79, 0
1, 102150, Note_on_c, 1, 82, 127
1, 102159, Note_off_c, 1, 60, 0
1, 102160, Note_on_c, 1, 58, 127
1, 102179, Note_off_c, 1, 41, 0
1, 102179, Note_off_c, 1, 82, 0
1, 102179, Note_off_c, 1, 58, 0
1, 102180, Note_on_c, 1, 63, 127
1, 102180, Note_on_c, 1, 81, 127
1, 102180, Note_on_c, 1, 41, 127
1, 102199, Note_off_c, 1, 63, 0
1, 102200, Note_on_c, 1, 62, 127
1, 102209, Note_off_c, 1, 81, 0
1, 102210, Note_on_c, 1, 79, 127
1, 102219, Note_off_c, 1, 62, 0
1, 102220, Note_on_c, 1, 60, 127
1, 102239, Note_off_c, 1, 41, 0
1, 102239, Note_off_c, 1, 79, 0
1, 102239, Note_off_c, 1, 60, 0
1, 102240, Note_on_c, 1, 62, 127
1, 102240, Note_on_c, 1, 77, 127
1, 102240, Note_on_c, 1, 41, 127
1, 102259, Note_off_c, 1, 62, 0
1, 102260, Note_on_c, 1, 60, 127
1, 102269, Note_off_c, 1, 77, 0
1, 102270, Note_on_c, 1, 79, 127
1, 102279, Note_off_c, 1, 60, 0
1, 102280, Note_on_c, 1, 58, 127
1, 102299, Note_off_c, 1, 41, 0
1, 102299, Note_off_c, 1, 79, 0
1, 102299, Note_off_c, 1, 58, 0
1, 102300, Note_on_c, 1, 60, 127
1, 102300, Note_on_c, 1, 77, 127
1, 102300, Note_on_c, 1, 41, 127
1, 102319, Note_off_c, 1, 60, 0
1, 102320, Note_on_c, 1, 58, 127
1, 102329, Note_off_c, 1, 77, 0
1, 102330, Note_on_c, 1, 75, 127
1, 102339, Note_off_c, 1, 58, 0
1, 102340, Note_on_c, 1, 57, 127
1, 102359, Note_off_c, 1, 41, 0
1, 102359, Note_off_c, 1, 75, 0
1, 102359, Note_off_c, 1, 57, 0
1, 102360, Note_on_c, 1, 58, 127
1, 102360, Note_on_c, 1, 74, 127
1, 102360, Note_on_c, 1, 34, 127
1, 102389, Note_off_c, 1, 74, 0
1, 102390, Note_on_c, 1, 72, 127
1, 102419, Note_off_c, 1, 34, 0
1, 102419, Note_off_c, 1, 72, 0
1, 102420, Note_on_c, 1, 46, 127
1, 102449, Note_off_c, 1, 58, 0
1, 102450, Note_on_c, 1, 57, 127
1, 102450, Note_on_c, 1, 70, 127
1, 102479, Note_off_c, 1, 46, 0
1, 102479, Note_off_c, 1, 57, 0
1, 102479, Note_off_c, 1, 70, 0
1, 102480, Note_on_c, 1, 55, 127
1, 102480, Note_on_c, 1, 82, 127
1, 102480, Note_on_c, 1, 46, 127
1, 102509, Note_off_c, 1, 55, 0
1, 102510, Note_on_c, 1, 53, 127
1, 102539, Note_off_c, 1, 46, 0
1, 102539, Note_off_c, 1, 53, 0
1, 102540, Note_on_c, 1, 51, 127
1, 102540, Note_on_c, 1, 48, 127
1, 102569, Note_off_c, 1, 51, 0
1, 102570, Note_on_c, 1, 50, 127
1, 102599, Note_off_c, 1, 82, 0
1, 102599, Note_off_c, 1, 48, 0
1, 102599, Note_off_c, 1, 50, 0
1, 102600, Note_on_c, 1, 51, 127
1, 102600, Note_on_c, 1, 81, 127
1, 102600, Note_on_c, 1, 48, 127
1, 102619, Note_off_c, 1, 81, 0
1, 102620, Note_on_c, 1, 82, 127
1, 102629, Note_off_c, 1, 51, 0
1, 102629, Note_off_c, 1, 48, 0
1, 102630, Note_on_c, 1, 53, 127
1, 102630, Note_on_c, 1, 50, 127
1, 102639, Note_off_c, 1, 82, 0
1, 102659, Note_off_c, 1, 53, 0
1, 102659, Note_off_c, 1, 50, 0
1, 102660, Note_on_c, 1, 55, 127
1, 102660, Note_on_c, 1, 82, 127
1, 102660, Note_on_c, 1, 51, 127
1, 102674, Note_off_c, 1, 82, 0
1, 102675, Note_on_c, 1, 81, 127
1, 102689, Note_off_c, 1, 55, 0
1, 102689, Note_off_c, 1, 51, 0
1, 102689, Note_off_c, 1, 81, 0
1, 102690, Note_on_c, 1, 51, 127
1, 102690, Note_on_c, 1, 82, 127
1, 102690, Note_on_c, 1, 48, 127
1, 102704, Note_off_c, 1, 82, 0
1, 102705, Note_on_c, 1, 81, 127
1, 102719, Note_off_c, 1, 51, 0
1, 102719, Note_off_c, 1, 48, 0
1, 102719, Note_off_c, 1, 81, 0
1, 102720, Note_on_c, 1, 53, 127
1, 102720, Note_on_c, 1, 82, 127
1, 102720, Note_on_c, 1, 50, 127
1, 102739, Note_off_c, 1, 82, 0
1, 102740, Note_on_c, 1, 80, 127
1, 102749, Note_off_c, 1, 50, 0
1, 102750, Note_on_c, 1, 48, 127
1, 102759, Note_off_c, 1, 80, 0
1, 102760, Note_on_c, 1, 79, 127
1, 102779, Note_off_c, 1, 53, 0
1, 102779, Note_off_c, 1, 48, 0
1, 102779, Note_off_c, 1, 79, 0
1, 102780, Note_on_c, 1, 58, 127
1, 102780, Note_on_c, 1, 80, 127
1, 102780, Note_on_c, 1, 46, 127
1, 102799, Note_off_c, 1, 80, 0
1, 102800, Note_on_c, 1, 79, 127
1, 102809, Note_off_c, 1, 46, 0
1, 102810, Note_on_c, 1, 50, 127
1, 102819, Note_off_c, 1, 79, 0
1, 102820, Note_on_c, 1, 77, 127
1, 102839, Note_off_c, 1, 50, 0
1, 102839, Note_off_c, 1, 77, 0
1, 102840, Note_on_c, 1, 48, 127
1, 102869, Note_off_c, 1, 48, 0
1, 102870, Note_on_c, 1, 51, 127
1, 102880, Note_on_c, 1, 75, 127
1, 102899, Note_off_c, 1, 58, 0
1, 102899, Note_off_c, 1, 51, 0
1, 102899, Note_off_c, 1, 75, 0
1, 102900, Note_on_c, 1, 56, 127
1, 102900, Note_on_c, 1, 77, 127
1, 102900, Note_on_c, 1, 50, 127
1, 102919, Note_off_c, 1, 56, 0
1, 102919, Note_off_c, 1, 77, 0
1, 102920, Note_on_c, 1, 55, 127
1, 102920, Note_on_c, 1, 75, 127
1, 102929, Note_off_c, 1, 50, 0
1, 102930, Note_on_c, 1, 53, 127
1, 102939, Note_off_c, 1, 55, 0
1, 102939, Note_off_c, 1, 75, 0
1, 102940, Note_on_c, 1, 74, 127
1, 102959, Note_off_c, 1, 53, 0
1, 102959, Note_off_c, 1, 74, 0
1, 102960, Note_on_c, 1, 55, 127
1, 102960, Note_on_c, 1, 75, 127
1, 102960, Note_on_c, 1, 51, 127
1, 102979, Note_off_c, 1, 55, 0
1, 102979, Note_off_c, 1, 75, 0
1, 102980, Note_on_c, 1, 53, 127
1, 102980, Note_on_c, 1, 74, 127
1, 102989, Note_off_c, 1, 51, 0
1, 102999, Note_off_c, 1, 53, 0
1, 102999, Note_off_c, 1, 74, 0
1, 103000, Note_on_c, 1, 72, 127
1, 103019, Note_off_c, 1, 72, 0
1, 103020, Note_on_c, 1, 53, 127
1, 103020, Note_on_c, 1, 74, 127
1, 103039, Note_off_c, 1, 74, 0
1, 103040, Note_on_c, 1, 51, 127
1, 103040, Note_on_c, 1, 72, 127
1, 103049, Note_off_c, 1, 53, 0
1, 103050, Note_on_c, 1, 57, 127
1, 103059, Note_off_c, 1, 51, 0
1, 103059, Note_off_c, 1, 72, 0
1, 103060, Note_on_c, 1, 50, 127
1, 103060, Note_on_c, 1, 70, 127
1, 103079, Note_off_c, 1, 57, 0
1, 103079, Note_off_c, 1, 50, 0
1, 103079, Note_off_c, 1, 70, 0
1, 103080, Note_on_c, 1, 51, 127
1, 103080, Note_on_c, 1, 70, 127
1, 103080, Note_on_c, 1, 45, 127
1, 103109, Note_off_c, 1, 70, 0
1, 103110, Note_on_c, 1, 72, 127
1, 103124, Note_off_c, 1, 72, 0
1, 103139, Note_off_c, 1, 45, 0
1, 103140, Note_on_c, 1, 41, 127
1, 103169, Note_off_c, 1, 51, 0
1, 103170, Note_on_c, 1, 53, 127
1, 103170, Note_on_c, 1, 74, 127
1, 103199, Note_off_c, 1, 41, 0
1, 103199, Note_off_c, 1, 53, 0
1, 103199, Note_off_c, 1, 74, 0
1, 103200, Note_on_c, 1, 50, 127
1, 103200, Note_on_c, 1, 72, 127
1, 103200, Note_on_c, 1, 46, 127
1, 103229, Note_off_c, 1, 72, 0
1, 103230, Note_on_c, 1, 70, 127
1, 103259, Note_off_c, 1, 46, 0
1, 103260, Note_on_c, 1, 51, 127
1, 103289, Note_off_c, 1, 70, 0
1, 103290, Note_off_c, 1, 50, 0
1, 103319, Note_off_c, 1, 51, 0
1, 103320, Note_on_c, 1, 48, 127
1, 103320, Note_on_c, 1, 69, 127
1, 103320, Note_on_c, 1, 53, 127
1, 103379, Note_off_c, 1, 53, 0
1, 103380, Note_on_c, 1, 41, 127
1, 103409, Note_off_c, 1, 69, 0
1, 103410, Note_off_c, 1, 48, 0
1, 103410, Note_on_c, 1, 46, 127
1, 103410, Note_on_c, 1, 70, 127
1, 103439, Note_off_c, 1, 41, 0
1, 103439, Note_off_c, 1, 46, 0
1, 103439, Note_off_c, 1, 70, 0
1, 103440, Note_on_c, 1, 46, 127
1, 103440, Note_on_c, 1, 70, 127
1, 103469, Note_off_c, 1, 70, 0
1, 103470, Note_on_c, 1, 74, 127
1, 103499, Note_off_c, 1, 74, 0
1, 103500, Note_on_c, 1, 77, 127
1, 103529, Note_off_c, 1, 77, 0
1, 103619, Note_off_c, 1, 46, 0
1, 103620, Note_on_c, 1, 70, 127
1, 103620, Note_on_c, 1, 46, 127
1, 103649, Note_off_c, 1, 70, 0
1, 103650, Note_on_c, 1, 74, 127
1, 103679, Note_off_c, 1, 46, 0
1, 103679, Note_off_c, 1, 74, 0
1, 103680, Note_on_c, 1, 58, 127
1, 103680, Note_on_c, 1, 77, 127
1, 103680, Note_on_c, 1, 46, 127
1, 103709, Note_off_c, 1, 77, 0
1, 103710, Note_on_c, 1, 74, 127
1, 103739, Note_off_c, 1, 58, 0
1, 103739, Note_off_c, 1, 46, 0
1, 103739, Note_off_c, 1, 74, 0
1, 103740, Note_on_c, 1, 56, 127
1, 103740, Note_on_c, 1, 70, 127
1, 103740, Note_on_c, 1, 46, 127
1, 103769, Note_off_c, 1, 70, 0
1, 103770, Note_on_c, 1, 74, 127
1, 103799, Note_off_c, 1, 56, 0
1, 103799, Note_off_c, 1, 46, 0
1, 103799, Note_off_c, 1, 74, 0
1, 103800, Note_on_c, 1, 55, 127
1, 103800, Note_on_c, 1, 70, 127
1, 103800, Note_on_c, 1, 46, 127
1, 103829, Note_off_c, 1, 70, 0
1, 103830, Note_on_c, 1, 75, 127
1, 103859, Note_off_c, 1, 46, 0
1, 103859, Note_off_c, 1, 75, 0
1, 103860, Note_on_c, 1, 79, 127
1, 103889, Note_off_c, 1, 79, 0
1, 104040, Note_off_c, 1, 55, 0
1, 104040, Note_on_c, 1, 58, 127
1, 104069, Note_off_c, 1, 58, 0
1, 104070, Note_on_c, 1, 57, 127
1, 104099, Note_off_c, 1, 57, 0
1, 104100, Note_on_c, 1, 58, 127
1, 104100, Note_on_c, 1, 70, 127
1, 104100, Note_on_c, 1, 46, 127
1, 104129, Note_off_c, 1, 58, 0
1, 104129, Note_off_c, 1, 70, 0
1, 104130, Note_on_c, 1, 60, 127
1, 104130, Note_on_c, 1, 75, 127
1, 104159, Note_off_c, 1, 46, 0
1, 104159, Note_off_c, 1, 60, 0
1, 104159, Note_off_c, 1, 75, 0
1, 104160, Note_on_c, 1, 53, 127
1, 104160, Note_on_c, 1, 70, 127
1, 104160, Note_on_c, 1, 46, 127
1, 104189, Note_off_c, 1, 70, 0
1, 104190, Note_on_c, 1, 75, 127
1, 104219, Note_off_c, 1, 46, 0
1, 104219, Note_off_c, 1, 75, 0
1, 104220, Note_on_c, 1, 77, 127
1, 104249, Note_off_c, 1, 77, 0
1, 104370, Note_on_c, 1, 74, 127
1, 104399, Note_off_c, 1, 74, 0
1, 104400, Note_off_c, 1, 53, 0
1, 104400, Note_on_c, 1, 58, 127
1, 104459, Note_off_c, 1, 58, 0
1, 104460, Note_on_c, 1, 57, 127
1, 104460, Note_on_c, 1, 70, 127
1, 104460, Note_on_c, 1, 46, 127
1, 104489, Note_off_c, 1, 57, 0
1, 104489, Note_off_c, 1, 70, 0
1, 104490, Note_on_c, 1, 55, 127
1, 104490, Note_on_c, 1, 74, 127
1, 104519, Note_off_c, 1, 46, 0
1, 104519, Note_off_c, 1, 55, 0
1, 104519, Note_off_c, 1, 74, 0
1, 104520, Note_on_c, 1, 53, 127
1, 104520, Note_on_c, 1, 67, 127
1, 104520, Note_on_c, 1, 46, 127
1, 104549, Note_off_c, 1, 53, 0
1, 104549, Note_off_c, 1, 67, 0
1, 104550, Note_on_c, 1, 51, 127
1, 104550, Note_on_c, 1, 72, 127
1, 104565, Note_off_c, 1, 51, 0
1, 104579, Note_off_c, 1, 46, 0
1, 104579, Note_off_c, 1, 72, 0
1, 104580, Note_on_c, 1, 75, 127
1, 104609, Note_off_c, 1, 75, 0
1, 104700, Note_on_c, 1, 69, 127
1, 104729, Note_off_c, 1, 69, 0
1, 104760, Note_on_c, 1, 77, 127
1, 104789, Note_off_c, 1, 77, 0
1, 104850, Note_on_c, 1, 50, 127
1, 104865, Note_off_c, 1, 50, 0
1, 104880, Note_on_c, 1, 70, 127
1, 104909, Note_off_c, 1, 70, 0
1, 104910, Note_on_c, 1, 74, 127
1, 104939, Note_off_c, 1, 74, 0
1, 104940, Note_on_c, 1, 62, 127
1, 104940, Note_on_c, 1, 79, 127
1, 104940, Note_on_c, 1, 46, 127
1, 104969, Note_off_c, 1, 79, 0
1, 104970, Note_on_c, 1, 81, 127
1, 104999, Note_off_c, 1, 62, 0
1, 104999, Note_off_c, 1, 46, 0
1, 104999, Note_off_c, 1, 81, 0
1, 105000, Note_on_c, 1, 58, 127
1, 105000, Note_on_c, 1, 82, 127
1, 105000, Note_on_c, 1, 43, 127
1, 105029, Note_off_c, 1, 82, 0
1, 105030, Note_on_c, 1, 79, 127
1, 105059, Note_off_c, 1, 58, 0
1, 105059, Note_off_c, 1, 43, 0
1, 105059, Note_off_c, 1, 79, 0
1, 105060, Note_on_c, 1, 55, 127
1, 105060, Note_on_c, 1, 76, 127
1, 105060, Note_on_c, 1, 48, 127
1, 105089, Note_off_c, 1, 55, 0
1, 105090, Note_on_c, 1, 53, 127
1, 105119, Note_off_c, 1, 76, 0
1, 105119, Note_off_c, 1, 48, 0
1, 105119, Note_off_c, 1, 53, 0
1, 105120, Note_on_c, 1, 55, 127
1, 105120, Note_on_c, 1, 77, 127
1, 105120, Note_on_c, 1, 46, 127
1, 105134, Note_off_c, 1, 77, 0
1, 105135, Note_on_c, 1, 76, 127
1, 105149, Note_off_c, 1, 55, 0
1, 105149, Note_off_c, 1, 76, 0
1, 105150, Note_on_c, 1, 57, 127
1, 105179, Note_off_c, 1, 46, 0
1, 105179, Note_off_c, 1, 57, 0
1, 105180, Note_on_c, 1, 58, 127
1, 105180, Note_on_c, 1, 77, 127
1, 105180, Note_on_c, 1, 48, 127
1, 105194, Note_off_c, 1, 77, 0
1, 105195, Note_on_c, 1, 76, 127
1, 105209, Note_off_c, 1, 58, 0
1, 105209, Note_off_c, 1, 76, 0
1, 105210, Note_on_c, 1, 55, 127
1, 105210, Note_on_c, 1, 74, 127
1, 105224, Note_off_c, 1, 74, 0
1, 105239, Note_off_c, 1, 48, 0
1, 105239, Note_off_c, 1, 55, 0
1, 105240, Note_on_c, 1, 57, 127
1, 105240, Note_on_c, 1, 77, 127
1, 105240, Note_on_c, 1, 41, 127
1, 105269, Note_off_c, 1, 57, 0
1, 105270, Note_on_c, 1, 58, 127
1, 105299, Note_off_c, 1, 41, 0
1, 105299, Note_off_c, 1, 58, 0
1, 105300, Note_on_c, 1, 60, 127
1, 105329, Note_off_c, 1, 60, 0
1, 105359, Note_off_c, 1, 77, 0
1, 105360, Note_on_c, 1, 53, 127
1, 105360, Note_on_c, 1, 41, 127
1, 105389, Note_off_c, 1, 53, 0
1, 105390, Note_on_c, 1, 57, 127
1, 105419, Note_off_c, 1, 41, 0
1, 105419, Note_off_c, 1, 57, 0
1, 105420, Note_on_c, 1, 53, 127
1, 105420, Note_on_c, 1, 41, 127
1, 105449, Note_off_c, 1, 53, 0
1, 105450, Note_on_c, 1, 57, 127
1, 105479, Note_off_c, 1, 41, 0
1, 105479, Note_off_c, 1, 57, 0
1, 105480, Note_on_c, 1, 60, 127
1, 105480, Note_on_c, 1, 77, 127
1, 105480, Note_on_c, 1, 41, 127
1, 105509, Note_off_c, 1, 60, 0
1, 105510, Note_on_c, 1, 57, 127
1, 105539, Note_off_c, 1, 77, 0
1, 105539, Note_off_c, 1, 41, 0
1, 105539, Note_off_c, 1, 57, 0
1, 105540, Note_on_c, 1, 53, 127
1, 105540, Note_on_c, 1, 75, 127
1, 105540, Note_on_c, 1, 41, 127
1, 105569, Note_off_c, 1, 53, 0
1, 105570, Note_on_c, 1, 57, 127
1, 105599, Note_off_c, 1, 75, 0
1, 105599, Note_off_c, 1, 41, 0
1, 105599, Note_off_c, 1, 57, 0
1, 105600, Note_on_c, 1, 53, 127
1, 105600, Note_on_c, 1, 75, 127
1, 105600, Note_on_c, 1, 41, 127
1, 105629, Note_off_c, 1, 53, 0
1, 105630, Note_off_c, 1, 75, 0
1, 105630, Note_on_c, 1, 58, 127
1, 105630, Note_on_c, 1, 74, 127
1, 105659, Note_off_c, 1, 41, 0
1, 105659, Note_off_c, 1, 58, 0
1, 105660, Note_on_c, 1, 62, 127
1, 105689, Note_off_c, 1, 62, 0
1, 105840, Note_off_c, 1, 74, 0
1, 105840, Note_on_c, 1, 77, 127
1, 105869, Note_off_c, 1, 77, 0
1, 105870, Note_on_c, 1, 76, 127
1, 105899, Note_off_c, 1, 76, 0
1, 105900, Note_on_c, 1, 53, 127
1, 105900, Note_on_c, 1, 77, 127
1, 105900, Note_on_c, 1, 41, 127
1, 105929, Note_off_c, 1, 53, 0
1, 105929, Note_off_c, 1, 77, 0
1, 105930, Note_on_c, 1, 58, 127
1, 105930, Note_on_c, 1, 79, 127
1, 105959, Note_off_c, 1, 41, 0
1, 105959, Note_off_c, 1, 58, 0
1, 105959, Note_off_c, 1, 79, 0
1, 105960, Note_on_c, 1, 53, 127
1, 105960, Note_on_c, 1, 72, 127
1, 105960, Note_on_c, 1, 41, 127
1, 105989, Note_off_c, 1, 53, 0
1, 105990, Note_on_c, 1, 58, 127
1, 106019, Note_off_c, 1, 41, 0
1, 106019, Note_off_c, 1, 58, 0
1, 106020, Note_on_c, 1, 60, 127
1, 106049, Note_off_c, 1, 60, 0
1, 106170, Note_on_c, 1, 57, 127
1, 106199, Note_off_c, 1, 72, 0
1, 106199, Note_off_c, 1, 57, 0
1, 106200, Note_on_c, 1, 60, 127
1, 106200, Note_on_c, 1, 77, 127
1, 106200, Note_on_c, 1, 41, 127
1, 106229, Note_off_c, 1, 60, 0
1, 106230, Note_on_c, 1, 57, 127
1, 106259, Note_off_c, 1, 77, 0
1, 106259, Note_off_c, 1, 41, 0
1, 106259, Note_off_c, 1, 57, 0
1, 106260, Note_on_c, 1, 53, 127
1, 106260, Note_on_c, 1, 76, 127
1, 106260, Note_on_c, 1, 41, 127
1, 106289, Note_off_c, 1, 53, 0
1, 106289, Note_off_c, 1, 76, 0
1, 106290, Note_on_c, 1, 57, 127
1, 106290, Note_on_c, 1, 74, 127
1, 106319, Note_off_c, 1, 41, 0
1, 106319, Note_off_c, 1, 57, 0
1, 106319, Note_off_c, 1, 74, 0
1, 106320, Note_on_c, 1, 50, 127
1, 106320, Note_on_c, 1, 72, 127
1, 106320, Note_on_c, 1, 41, 127
1, 106349, Note_off_c, 1, 50, 0
1, 106350, Note_off_c, 1, 72, 0
1, 106350, Note_on_c, 1, 55, 127
1, 106350, Note_on_c, 1, 70, 127
1, 106379, Note_off_c, 1, 41, 0
1, 106379, Note_off_c, 1, 55, 0
1, 106380, Note_on_c, 1, 58, 127
1, 106409, Note_off_c, 1, 58, 0
1, 106500, Note_on_c, 1, 52, 127
1, 106529, Note_off_c, 1, 52, 0
1, 106620, Note_off_c, 1, 70, 0
1, 106620, Note_on_c, 1, 69, 127
1, 106650, Note_off_c, 1, 69, 0
1, 106680, Note_on_c, 1, 53, 127
1, 106709, Note_off_c, 1, 53, 0
1, 106710, Note_on_c, 1, 57, 127
1, 106739, Note_off_c, 1, 57, 0
1, 106740, Note_on_c, 1, 62, 127
1, 106740, Note_on_c, 1, 81, 127
1, 106740, Note_on_c, 1, 53, 127
1, 106769, Note_off_c, 1, 62, 0
1, 106770, Note_on_c, 1, 64, 127
1, 106799, Note_off_c, 1, 81, 0
1, 106799, Note_off_c, 1, 53, 0
1, 106799, Note_off_c, 1, 64, 0
1, 106800, Note_on_c, 1, 65, 127
1, 106800, Note_on_c, 1, 77, 127
1, 106800, Note_on_c, 1, 50, 127
1, 106829, Note_off_c, 1, 65, 0
1, 106830, Note_on_c, 1, 62, 127
1, 106859, Note_off_c, 1, 77, 0
1, 106859, Note_off_c, 1, 50, 0
1, 106859, Note_off_c, 1, 62, 0
1, 106860, Note_on_c, 1, 59, 127
1, 106860, Note_on_c, 1, 74, 127
1, 106860, Note_on_c, 1, 55, 127
1, 106889, Note_off_c, 1, 74, 0
1, 106890, Note_on_c, 1, 72, 127
1, 106919, Note_off_c, 1, 59, 0
1, 106919, Note_off_c, 1, 55, 0
1, 106919, Note_off_c, 1, 72, 0
1, 106920, Note_on_c, 1, 60, 127
1, 106920, Note_on_c, 1, 74, 127
1, 106920, Note_on_c, 1, 53, 127
1, 106934, Note_off_c, 1, 60, 0
1, 106935, Note_on_c, 1, 59, 127
1, 106949, Note_off_c, 1, 74, 0
1, 106949, Note_off_c, 1, 59, 0
1, 106950, Note_on_c, 1, 76, 127
1, 106979, Note_off_c, 1, 53, 0
1, 106979, Note_off_c, 1, 76, 0
1, 106980, Note_on_c, 1, 60, 127
1, 106980, Note_on_c, 1, 77, 127
1, 106980, Note_on_c, 1, 55, 127
1, 106994, Note_off_c, 1, 60, 0
1, 106995, Note_on_c, 1, 59, 127
1, 107009, Note_off_c, 1, 77, 0
1, 107009, Note_off_c, 1, 59, 0
1, 107010, Note_on_c, 1, 57, 127
1, 107010, Note_on_c, 1, 74, 127
1, 107024, Note_off_c, 1, 57, 0
1, 107039, Note_off_c, 1, 55, 0
1, 107039, Note_off_c, 1, 74, 0
1, 107040, Note_on_c, 1, 60, 127
1, 107040, Note_on_c, 1, 76, 127
1, 107040, Note_on_c, 1, 48, 127
1, 107069, Note_off_c, 1, 76, 0
1, 107070, Note_on_c, 1, 79, 127
1, 107099, Note_off_c, 1, 60, 0
1, 107099, Note_off_c, 1, 48, 0
1, 107099, Note_off_c, 1, 79, 0
1, 107100, Note_on_c, 1, 63, 127
1, 107100, Note_on_c, 1, 81, 127
1, 107100, Note_on_c, 1, 48, 127
1, 107129, Note_off_c, 1, 81, 0
1, 107130, Note_on_c, 1, 82, 127
1, 107159, Note_off_c, 1, 63, 0
1, 107159, Note_off_c, 1, 48, 0
1, 107159, Note_off_c, 1, 82, 0
1, 107160, Note_on_c, 1, 60, 127
1, 107160, Note_on_c, 1, 84, 127
1, 107160, Note_on_c, 1, 45, 127
1, 107189, Note_off_c, 1, 84, 0
1, 107190, Note_on_c, 1, 81, 127
1, 107219, Note_off_c, 1, 60, 0
1, 107219, Note_off_c, 1, 45, 0
1, 107219, Note_off_c, 1, 81, 0
1, 107220, Note_on_c, 1, 57, 127
1, 107220, Note_on_c, 1, 78, 127
1, 107220, Note_on_c, 1, 50, 127
1, 107249, Note_off_c, 1, 57, 0
1, 107250, Note_on_c, 1, 55, 127
1, 107279, Note_off_c, 1, 78, 0
1, 107279, Note_off_c, 1, 50, 0
1, 107279, Note_off_c, 1, 55, 0
1, 107280, Note_on_c, 1, 57, 127
1, 107280, Note_on_c, 1, 79, 127
1, 107280, Note_on_c, 1, 48, 127
1, 107294, Note_off_c, 1, 79, 0
1, 107295, Note_on_c, 1, 78, 127
1, 107309, Note_off_c, 1, 57, 0
1, 107309, Note_off_c, 1, 78, 0
1, 107310, Note_on_c, 1, 58, 127
1, 107339, Note_off_c, 1, 48, 0
1, 107339, Note_off_c, 1, 58, 0
1, 107340, Note_on_c, 1, 60, 127
1, 107340, Note_on_c, 1, 79, 127
1, 107340, Note_on_c, 1, 50, 127
1, 107354, Note_off_c, 1, 79, 0
1, 107355, Note_on_c, 1, 78, 127
1, 107369, Note_off_c, 1, 60, 0
1, 107369, Note_off_c, 1, 78, 0
1, 107370, Note_on_c, 1, 57, 127
1, 107370, Note_on_c, 1, 76, 127
1, 107384, Note_off_c, 1, 76, 0
1, 107399, Note_off_c, 1, 50, 0
1, 107399, Note_off_c, 1, 57, 0
1, 107400, Note_on_c, 1, 58, 127
1, 107400, Note_on_c, 1, 79, 127
1, 107400, Note_on_c, 1, 43, 127
1, 107429, Note_off_c, 1, 58, 0
1, 107430, Note_on_c, 1, 62, 127
1, 107459, Note_off_c, 1, 79, 0
1, 107459, Note_off_c, 1, 43, 0
1, 107459, Note_off_c, 1, 62, 0
1, 107460, Note_on_c, 1, 64, 127
1, 107460, Note_on_c, 1, 82, 127
1, 107460, Note_on_c, 1, 55, 127
1, 107489, Note_off_c, 1, 64, 0
1, 107490, Note_on_c, 1, 65, 127
1, 107519, Note_off_c, 1, 82, 0
1, 107519, Note_off_c, 1, 55, 0
1, 107519, Note_off_c, 1, 65, 0
1, 107520, Note_on_c, 1, 67, 127
1, 107520, Note_on_c, 1, 79, 127
1, 107520, Note_on_c, 1, 52, 127
1, 107549, Note_off_c, 1, 67, 0
1, 107550, Note_on_c, 1, 64, 127
1, 107579, Note_off_c, 1, 79, 0
1, 107579, Note_off_c, 1, 52, 0
1, 107579, Note_off_c, 1, 64, 0
1, 107580, Note_on_c, 1, 61, 127
1, 107580, Note_on_c, 1, 76, 127
1, 107580, Note_on_c, 1, 57, 127
1, 107609, Note_off_c, 1, 76, 0
1, 107610, Note_on_c, 1, 74, 127
1, 107639, Note_off_c, 1, 61, 0
1, 107639, Note_off_c, 1, 57, 0
1, 107639, Note_off_c, 1, 74, 0
1, 107640, Note_on_c, 1, 62, 127
1, 107640, Note_on_c, 1, 76, 127
1, 107640, Note_on_c, 1, 55, 127
1, 107654, Note_off_c, 1, 62, 0
1, 107655, Note_on_c, 1, 61, 127
1, 107669, Note_off_c, 1, 76, 0
1, 107669, Note_off_c, 1, 61, 0
1, 107670, Note_on_c, 1, 77, 127
1, 107699, Note_off_c, 1, 55, 0
1, 107699, Note_off_c, 1, 77, 0
1, 107700, Note_on_c, 1, 62, 127
1, 107700, Note_on_c, 1, 79, 127
1, 107700, Note_on_c, 1, 57, 127
1, 107714, Note_off_c, 1, 62, 0
1, 107715, Note_on_c, 1, 61, 127
1, 107729, Note_off_c, 1, 79, 0
1, 107729, Note_off_c, 1, 61, 0
1, 107730, Note_on_c, 1, 59, 127
1, 107730, Note_on_c, 1, 76, 127
1, 107744, Note_off_c, 1, 59, 0
1, 107759, Note_off_c, 1, 57, 0
1, 107759, Note_off_c, 1, 76, 0
1, 107760, Note_on_c, 1, 62, 127
1, 107760, Note_on_c, 1, 77, 127
1, 107760, Note_on_c, 1, 50, 127
1, 107789, Note_off_c, 1, 50, 0
1, 107790, Note_on_c, 1, 49, 127
1, 107819, Note_off_c, 1, 77, 0
1, 107819, Note_off_c, 1, 49, 0
1, 107820, Note_on_c, 1, 81, 127
1, 107850, Note_on_c, 1, 52, 127
1, 107879, Note_off_c, 1, 62, 0
1, 107879, Note_off_c, 1, 52, 0
1, 107880, Note_on_c, 1, 60, 127
1, 107880, Note_on_c, 1, 53, 127
1, 107909, Note_off_c, 1, 53, 0
1, 107939, Note_off_c, 1, 60, 0
1, 107940, Note_on_c, 1, 59, 127
1, 107940, Note_on_c, 1, 55, 127
1, 107969, Note_off_c, 1, 55, 0
1, 107999, Note_off_c, 1, 81, 0
1, 107999, Note_off_c, 1, 59, 0
1, 108000, Note_on_c, 1, 64, 127
1, 108000, Note_on_c, 1, 79, 127
1, 108000, Note_on_c, 1, 55, 127
1, 108029, Note_off_c, 1, 55, 0
1, 108030, Note_on_c, 1, 57, 127
1, 108059, Note_off_c, 1, 64, 0
1, 108059, Note_off_c, 1, 57, 0
1, 108060, Note_on_c, 1, 62, 127
1, 108060, Note_on_c, 1, 58, 127
1, 108089, Note_off_c, 1, 58, 0
1, 108119, Note_off_c, 1, 79, 0
1, 108119, Note_off_c, 1, 62, 0
1, 108120, Note_on_c, 1, 61, 127
1, 108120, Note_on_c, 1, 57, 127
1, 108150, Note_on_c, 1, 77, 127
1, 108179, Note_off_c, 1, 57, 0
1, 108179, Note_off_c, 1, 77, 0
1, 108180, Note_on_c, 1, 76, 127
1, 108180, Note_on_c, 1, 45, 127
1, 108209, Note_off_c, 1, 61, 0
1, 108209, Note_off_c, 1, 76, 0
1, 108210, Note_on_c, 1, 64, 127
1, 108210, Note_on_c, 1, 79, 127
1, 108239, Note_off_c, 1, 45, 0
1, 108239, Note_off_c, 1, 64, 0
1, 108239, Note_off_c, 1, 79, 0
1, 108240, Note_on_c, 1, 62, 127
1, 108240, Note_on_c, 1, 77, 127
1, 108240, Note_on_c, 1, 45, 127
1, 108269, Note_off_c, 1, 62, 0
1, 108269, Note_off_c, 1, 77, 0
1, 108270, Note_on_c, 1, 65, 127
1, 108270, Note_on_c, 1, 81, 127
1, 108299, Note_off_c, 1, 45, 0
1, 108299, Note_off_c, 1, 65, 0
1, 108299, Note_off_c, 1, 81, 0
1, 108300, Note_on_c, 1, 64, 127
1, 108300, Note_on_c, 1, 79, 127
1, 108300, Note_on_c, 1, 45, 127
1, 108329, Note_off_c, 1, 64, 0
1, 108329, Note_off_c, 1, 79, 0
1, 108330, Note_on_c, 1, 62, 127
1, 108330, Note_on_c, 1, 77, 127
1, 108359, Note_off_c, 1, 45, 0
1, 108359, Note_off_c, 1, 62, 0
1, 108359, Note_off_c, 1, 77, 0
1, 108360, Note_on_c, 1, 64, 127
1, 108360, Note_on_c, 1, 79, 127
1, 108360, Note_on_c, 1, 45, 127
1, 108389, Note_off_c, 1, 79, 0
1, 108390, Note_on_c, 1, 82, 127
1, 108419, Note_off_c, 1, 45, 0
1, 108419, Note_off_c, 1, 82, 0
1, 108420, Note_on_c, 1, 81, 127
1, 108449, Note_off_c, 1, 81, 0
1, 108480, Note_on_c, 1, 77, 127
1, 108480, Note_on_c, 1, 38, 127
1, 108509, Note_off_c, 1, 77, 0
1, 108510, Note_on_c, 1, 76, 127
1, 108539, Note_off_c, 1, 64, 0
1, 108539, Note_off_c, 1, 38, 0
1, 108539, Note_off_c, 1, 76, 0
1, 108540, Note_on_c, 1, 62, 127
1, 108540, Note_on_c, 1, 77, 127
1, 108540, Note_on_c, 1, 50, 127
1, 108569, Note_off_c, 1, 62, 0
1, 108569, Note_off_c, 1, 77, 0
1, 108570, Note_on_c, 1, 60, 127
1, 108570, Note_on_c, 1, 81, 127
1, 108599, Note_off_c, 1, 50, 0
1, 108599, Note_off_c, 1, 60, 0
1, 108599, Note_off_c, 1, 81, 0
1, 108600, Note_on_c, 1, 58, 127
1, 108600, Note_on_c, 1, 86, 127
1, 108600, Note_on_c, 1, 50, 127
1, 108629, Note_off_c, 1, 58, 0
1, 108630, Note_on_c, 1, 57, 127
1, 108659, Note_off_c, 1, 50, 0
1, 108659, Note_off_c, 1, 57, 0
1, 108660, Note_on_c, 1, 55, 127
1, 108660, Note_on_c, 1, 52, 127
1, 108689, Note_off_c, 1, 55, 0
1, 108689, Note_off_c, 1, 52, 0
1, 108690, Note_on_c, 1, 53, 127
1, 108719, Note_off_c, 1, 86, 0
1, 108719, Note_off_c, 1, 53, 0
1, 108720, Note_on_c, 1, 55, 127
1, 108720, Note_on_c, 1, 85, 127
1, 108720, Note_on_c, 1, 52, 127
1, 108739, Note_off_c, 1, 85, 0
1, 108740, Note_on_c, 1, 86, 127
1, 108749, Note_off_c, 1, 55, 0
1, 108749, Note_off_c, 1, 52, 0
1, 108750, Note_on_c, 1, 57, 127
1, 108750, Note_on_c, 1, 53, 127
1, 108759, Note_off_c, 1, 86, 0
1, 108779, Note_off_c, 1, 57, 0
1, 108779, Note_off_c, 1, 53, 0
1, 108780, Note_on_c, 1, 58, 127
1, 108780, Note_on_c, 1, 86, 127
1, 108780, Note_on_c, 1, 55, 127
1, 108794, Note_off_c, 1, 86, 0
1, 108795, Note_on_c, 1, 85, 127
1, 108809, Note_off_c, 1, 58, 0
1, 108809, Note_off_c, 1, 55, 0
1, 108809, Note_off_c, 1, 85, 0
1, 108810, Note_on_c, 1, 55, 127
1, 108810, Note_on_c, 1, 83, 127
1, 108810, Note_on_c, 1, 52, 127
1, 108824, Note_off_c, 1, 83, 0
1, 108825, Note_on_c, 1, 85, 127
1, 108839, Note_off_c, 1, 55, 0
1, 108839, Note_off_c, 1, 52, 0
1, 108839, Note_off_c, 1, 85, 0
1, 108840, Note_on_c, 1, 57, 127
1, 108840, Note_on_c, 1, 86, 127
1, 108840, Note_on_c, 1, 53, 127
1, 108869, Note_off_c, 1, 53, 0
1, 108870, Note_on_c, 1, 52, 127
1, 108899, Note_off_c, 1, 86, 0
1, 108899, Note_off_c, 1, 52, 0
1, 108900, Note_on_c, 1, 81, 127
1, 108900, Note_on_c, 1, 50, 127
1, 108929, Note_off_c, 1, 50, 0
1, 108959, Note_off_c, 1, 57, 0
1, 108959, Note_off_c, 1, 81, 0
1, 108960, Note_on_c, 1, 73, 127
1, 108960, Note_on_c, 1, 52, 127
1, 108989, Note_off_c, 1, 52, 0
1, 108990, Note_on_c, 1, 55, 127
1, 109019, Note_off_c, 1, 73, 0
1, 109019, Note_off_c, 1, 55, 0
1, 109020, Note_on_c, 1, 73, 127
1, 109020, Note_on_c, 1, 53, 127
1, 109049, Note_off_c, 1, 73, 0
1, 109049, Note_off_c, 1, 53, 0
1, 109050, Note_on_c, 1, 74, 127
1, 109050, Note_on_c, 1, 52, 127
1, 109079, Note_off_c, 1, 52, 0
1, 109080, Note_on_c, 1, 65, 127
1, 109080, Note_on_c, 1, 50, 127
1, 109109, Note_off_c, 1, 50, 0
1, 109139, Note_off_c, 1, 65, 0
1, 109140, Note_on_c, 1, 57, 127
1, 109140, Note_on_c, 1, 53, 127
1, 109169, Note_off_c, 1, 53, 0
1, 109199, Note_off_c, 1, 57, 0
1, 109200, Note_on_c, 1, 58, 127
1, 109200, Note_on_c, 1, 55, 127
1, 109229, Note_off_c, 1, 55, 0
1, 109230, Note_on_c, 1, 54, 127
1, 109259, Note_off_c, 1, 54, 0
1, 109260, Note_off_c, 1, 74, 0
1, 109260, Note_on_c, 1, 86, 127
1, 109319, Note_off_c, 1, 58, 0
1, 109320, Note_off_c, 1, 86, 0
1, 109320, Note_on_c, 1, 78, 127
1, 109350, Note_on_c, 1, 60, 127
1, 109379, Note_off_c, 1, 60, 0
1, 109409, Note_off_c, 1, 78, 0
1, 109410, Note_on_c, 1, 79, 127
1, 109410, Note_on_c, 1, 57, 127
1, 109439, Note_off_c, 1, 57, 0
1, 109440, Note_on_c, 1, 70, 127
1, 109440, Note_on_c, 1, 55, 127
1, 109469, Note_off_c, 1, 55, 0
1, 109499, Note_off_c, 1, 70, 0
1, 109500, Note_on_c, 1, 62, 127
1, 109500, Note_on_c, 1, 58, 127
1, 109529, Note_off_c, 1, 58, 0
1, 109559, Note_off_c, 1, 62, 0
1, 109560, Note_on_c, 1, 64, 127
1, 109560, Note_on_c, 1, 61, 127
1, 109590, Note_off_c, 1, 79, 0
1, 109590, Note_on_c, 1, 82, 127
1, 109619, Note_off_c, 1, 82, 0
1, 109620, Note_on_c, 1, 81, 127
1, 109649, Note_off_c, 1, 64, 0
1, 109649, Note_off_c, 1, 61, 0
1, 109649, Note_off_c, 1, 81, 0
1, 109650, Note_on_c, 1, 61, 127
1, 109650, Note_on_c, 1, 79, 127
1, 109650, Note_on_c, 1, 57, 127
1, 109679, Note_off_c, 1, 61, 0
1, 109679, Note_off_c, 1, 79, 0
1, 109679, Note_off_c, 1, 57, 0
1, 109680, Note_on_c, 1, 62, 127
1, 109680, Note_on_c, 1, 77, 127
1, 109694, Note_off_c, 1, 77, 0
1, 109695, Note_on_c, 1, 79, 127
1, 109709, Note_off_c, 1, 79, 0
1, 109710, Note_on_c, 1, 81, 127
1, 109724, Note_off_c, 1, 81, 0
1, 109725, Note_on_c, 1, 82, 127
1, 109739, Note_off_c, 1, 82, 0
1, 109769, Note_off_c, 1, 62, 0
1, 109770, Note_on_c, 1, 64, 127
1, 109770, Note_on_c, 1, 79, 127
1, 109770, Note_on_c, 1, 55, 127
1, 109799, Note_off_c, 1, 64, 0
1, 109799, Note_off_c, 1, 79, 0
1, 109799, Note_off_c, 1, 55, 0
1, 109800, Note_on_c, 1, 61, 127
1, 109800, Note_on_c, 1, 77, 127
1, 109800, Note_on_c, 1, 57, 127
1, 109859, Note_off_c, 1, 77, 0
1, 109859, Note_off_c, 1, 57, 0
1, 109860, Note_on_c, 1, 76, 127
1, 109860, Note_on_c, 1, 45, 127
1, 109869, Note_off_c, 1, 76, 0
1, 109889, Note_off_c, 1, 61, 0
1, 109890, Note_on_c, 1, 62, 127
1, 109890, Note_on_c, 1, 74, 127
1, 109919, Note_off_c, 1, 45, 0
1, 109919, Note_off_c, 1, 62, 0
1, 109919, Note_off_c, 1, 74, 0
1, 109920, Note_on_c, 1, 62, 127
1, 109920, Note_on_c, 1, 74, 127
1, 109920, Note_on_c, 1, 50, 127
1, 109949, Note_off_c, 1, 62, 0
1, 109950, Note_on_c, 1, 64, 127
1, 109979, Note_off_c, 1, 50, 0
1, 109979, Note_off_c, 1, 64, 0
1, 109980, Note_on_c, 1, 65, 127
1, 109980, Note_on_c, 1, 57, 127
1, 110009, Note_off_c, 1, 65, 0
1, 110039, Note_off_c, 1, 74, 0
1, 110039, Note_off_c, 1, 57, 0
1, 110040, Note_on_c, 1, 61, 127
1, 110040, Note_on_c, 1, 53, 127
1, 110069, Note_off_c, 1, 61, 0
1, 110070, Note_on_c, 1, 62, 127
1, 110099, Note_off_c, 1, 53, 0
1, 110099, Note_off_c, 1, 62, 0
1, 110100, Note_on_c, 1, 57, 127
1, 110100, Note_on_c, 1, 77, 127
1, 110100, Note_on_c, 1, 50, 127
1, 110129, Note_off_c, 1, 57, 0
1, 110130, Note_on_c, 1, 62, 127
1, 110159, Note_off_c, 1, 50, 0
1, 110159, Note_off_c, 1, 62, 0
1, 110160, Note_on_c, 1, 65, 127
1, 110189, Note_off_c, 1, 65, 0
1, 110220, Note_on_c, 1, 60, 127
1, 110249, Note_off_c, 1, 60, 0
1, 110280, Note_on_c, 1, 59, 127
1, 110280, Note_on_c, 1, 55, 127
1, 110309, Note_off_c, 1, 59, 0
1, 110339, Note_off_c, 1, 77, 0
1, 110339, Note_off_c, 1, 55, 0
1, 110340, Note_on_c, 1, 65, 127
1, 110340, Note_on_c, 1, 80, 127
1, 110340, Note_on_c, 1, 50, 127
1, 110369, Note_off_c, 1, 65, 0
1, 110370, Note_on_c, 1, 62, 127
1, 110399, Note_off_c, 1, 80, 0
1, 110399, Note_off_c, 1, 50, 0
1, 110399, Note_off_c, 1, 62, 0
1, 110400, Note_on_c, 1, 60, 127
1, 110400, Note_on_c, 1, 79, 127
1, 110400, Note_on_c, 1, 47, 127
1, 110429, Note_off_c, 1, 60, 0
1, 110430, Note_on_c, 1, 62, 127
1, 110459, Note_off_c, 1, 79, 0
1, 110459, Note_off_c, 1, 47, 0
1, 110459, Note_off_c, 1, 62, 0
1, 110460, Note_on_c, 1, 59, 127
1, 110460, Note_on_c, 1, 77, 127
1, 110460, Note_on_c, 1, 43, 127
1, 110489, Note_off_c, 1, 59, 0
1, 110490, Note_on_c, 1, 62, 127
1, 110519, Note_off_c, 1, 77, 0
1, 110519, Note_off_c, 1, 43, 0
1, 110519, Note_off_c, 1, 62, 0
1, 110520, Note_on_c, 1, 65, 127
1, 110520, Note_on_c, 1, 79, 127
1, 110520, Note_on_c, 1, 55, 127
1, 110549, Note_off_c, 1, 65, 0
1, 110549, Note_off_c, 1, 79, 0
1, 110550, Note_on_c, 1, 62, 127
1, 110550, Note_on_c, 1, 77, 127
1, 110579, Note_off_c, 1, 55, 0
1, 110579, Note_off_c, 1, 62, 0
1, 110579, Note_off_c, 1, 77, 0
1, 110580, Note_on_c, 1, 60, 127
1, 110580, Note_on_c, 1, 75, 127
1, 110580, Note_on_c, 1, 43, 127
1, 110609, Note_off_c, 1, 60, 0
1, 110609, Note_off_c, 1, 75, 0
1, 110610, Note_on_c, 1, 62, 127
1, 110610, Note_on_c, 1, 74, 127
1, 110639, Note_off_c, 1, 43, 0
1, 110639, Note_off_c, 1, 62, 0
1, 110639, Note_off_c, 1, 74, 0
1, 110640, Note_on_c, 1, 55, 127
1, 110640, Note_on_c, 1, 75, 127
1, 110640, Note_on_c, 1, 48, 127
1, 110669, Note_off_c, 1, 55, 0
1, 110669, Note_off_c, 1, 75, 0
1, 110670, Note_on_c, 1, 60, 127
1, 110670, Note_on_c, 1, 74, 127
1, 110699, Note_off_c, 1, 48, 0
1, 110699, Note_off_c, 1, 60, 0
1, 110699, Note_off_c, 1, 74, 0
1, 110700, Note_on_c, 1, 63, 127
1, 110700, Note_on_c, 1, 72, 127
1, 110700, Note_on_c, 1, 55, 127
1, 110729, Note_off_c, 1, 63, 0
1, 110729, Note_off_c, 1, 72, 0
1, 110730, Note_on_c, 1, 60, 127
1, 110730, Note_on_c, 1, 75, 127
1, 110759, Note_off_c, 1, 55, 0
1, 110759, Note_off_c, 1, 60, 0
1, 110759, Note_off_c, 1, 75, 0
1, 110760, Note_on_c, 1, 59, 127
1, 110760, Note_on_c, 1, 74, 127
1, 110760, Note_on_c, 1, 51, 127
1, 110789, Note_off_c, 1, 59, 0
1, 110789, Note_off_c, 1, 74, 0
1, 110790, Note_on_c, 1, 60, 127
1, 110790, Note_on_c, 1, 77, 127
1, 110819, Note_off_c, 1, 51, 0
1, 110819, Note_off_c, 1, 60, 0
1, 110819, Note_off_c, 1, 77, 0
1, 110820, Note_on_c, 1, 55, 127
1, 110820, Note_on_c, 1, 75, 127
1, 110820, Note_on_c, 1, 48, 127
1, 110849, Note_off_c, 1, 55, 0
1, 110850, Note_on_c, 1, 60, 127
1, 110879, Note_off_c, 1, 48, 0
1, 110879, Note_off_c, 1, 60, 0
1, 110880, Note_on_c, 1, 63, 127
1, 110909, Note_off_c, 1, 63, 0
1, 110940, Note_on_c, 1, 58, 127
1, 110969, Note_off_c, 1, 58, 0
1, 111000, Note_on_c, 1, 57, 127
1, 111000, Note_on_c, 1, 53, 127
1, 111029, Note_off_c, 1, 57, 0
1, 111059, Note_off_c, 1, 75, 0
1, 111059, Note_off_c, 1, 53, 0
1, 111060, Note_on_c, 1, 63, 127
1, 111060, Note_on_c, 1, 79, 127
1, 111060, Note_on_c, 1, 48, 127
1, 111089, Note_off_c, 1, 63, 0
1, 111090, Note_on_c, 1, 60, 127
1, 111119, Note_off_c, 1, 79, 0
1, 111119, Note_off_c, 1, 48, 0
1, 111119, Note_off_c, 1, 60, 0
1, 111120, Note_on_c, 1, 58, 127
1, 111120, Note_on_c, 1, 77, 127
1, 111120, Note_on_c, 1, 45, 127
1, 111149, Note_off_c, 1, 58, 0
1, 111150, Note_on_c, 1, 60, 127
1, 111179, Note_off_c, 1, 77, 0
1, 111179, Note_off_c, 1, 45, 0
1, 111179, Note_off_c, 1, 60, 0
1, 111180, Note_on_c, 1, 57, 127
1, 111180, Note_on_c, 1, 75, 127
1, 111180, Note_on_c, 1, 41, 127
1, 111209, Note_off_c, 1, 57, 0
1, 111210, Note_on_c, 1, 60, 127
1, 111239, Note_off_c, 1, 75, 0
1, 111239, Note_off_c, 1, 41, 0
1, 111239, Note_off_c, 1, 60, 0
1, 111240, Note_on_c, 1, 63, 127
1, 111240, Note_on_c, 1, 77, 127
1, 111240, Note_on_c, 1, 53, 127
1, 111269, Note_off_c, 1, 63, 0
1, 111269, Note_off_c, 1, 77, 0
1, 111270, Note_on_c, 1, 60, 127
1, 111270, Note_on_c, 1, 75, 127
1, 111299, Note_off_c, 1, 53, 0
1, 111299, Note_off_c, 1, 60, 0
1, 111299, Note_off_c, 1, 75, 0
1, 111300, Note_on_c, 1, 58, 127
1, 111300, Note_on_c, 1, 74, 127
1, 111300, Note_on_c, 1, 41, 127
1, 111329, Note_off_c, 1, 58, 0
1, 111329, Note_off_c, 1, 74, 0
1, 111330, Note_on_c, 1, 60, 127
1, 111330, Note_on_c, 1, 72, 127
1, 111359, Note_off_c, 1, 41, 0
1, 111359, Note_off_c, 1, 60, 0
1, 111359, Note_off_c, 1, 72, 0
1, 111360, Note_on_c, 1, 53, 127
1, 111360, Note_on_c, 1, 74, 127
1, 111360, Note_on_c, 1, 46, 127
1, 111389, Note_off_c, 1, 53, 0
1, 111389, Note_off_c, 1, 74, 0
1, 111390, Note_on_c, 1, 58, 127
1, 111390, Note_on_c, 1, 72, 127
1, 111419, Note_off_c, 1, 46, 0
1, 111419, Note_off_c, 1, 58, 0
1, 111419, Note_off_c, 1, 72, 0
1, 111420, Note_on_c, 1, 62, 127
1, 111420, Note_on_c, 1, 70, 127
1, 111420, Note_on_c, 1, 53, 127
1, 111449, Note_off_c, 1, 62, 0
1, 111449, Note_off_c, 1, 70, 0
1, 111450, Note_on_c, 1, 58, 127
1, 111450, Note_on_c, 1, 74, 127
1, 111479, Note_off_c, 1, 53, 0
1, 111479, Note_off_c, 1, 58, 0
1, 111479, Note_off_c, 1, 74, 0
1, 111480, Note_on_c, 1, 57, 127
1, 111480, Note_on_c, 1, 72, 127
1, 111480, Note_on_c, 1, 50, 127
1, 111509, Note_off_c, 1, 57, 0
1, 111509, Note_off_c, 1, 72, 0
1, 111510, Note_on_c, 1, 58, 127
1, 111510, Note_on_c, 1, 75, 127
1, 111539, Note_off_c, 1, 50, 0
1, 111539, Note_off_c, 1, 58, 0
1, 111539, Note_off_c, 1, 75, 0
1, 111540, Note_on_c, 1, 53, 127
1, 111540, Note_on_c, 1, 74, 127
1, 111540, Note_on_c, 1, 46, 127
1, 111569, Note_off_c, 1, 53, 0
1, 111570, Note_on_c, 1, 58, 127
1, 111599, Note_off_c, 1, 46, 0
1, 111599, Note_off_c, 1, 58, 0
1, 111600, Note_on_c, 1, 62, 127
1, 111629, Note_off_c, 1, 62, 0
1, 111660, Note_on_c, 1, 57, 127
1, 111689, Note_off_c, 1, 57, 0
1, 111720, Note_on_c, 1, 55, 127
1, 111720, Note_on_c, 1, 52, 127
1, 111749, Note_off_c, 1, 55, 0
1, 111750, Note_off_c, 1, 74, 0
1, 111750, Note_on_c, 1, 72, 127
1, 111779, Note_off_c, 1, 52, 0
1, 111779, Note_off_c, 1, 72, 0
1, 111780, Note_on_c, 1, 63, 127
1, 111780, Note_on_c, 1, 70, 127
1, 111780, Note_on_c, 1, 52, 127
1, 111809, Note_off_c, 1, 63, 0
1, 111809, Note_off_c, 1, 70, 0
1, 111810, Note_on_c, 1, 58, 127
1, 111810, Note_on_c, 1, 73, 127
1, 111839, Note_off_c, 1, 52, 0
1, 111839, Note_off_c, 1, 58, 0
1, 111839, Note_off_c, 1, 73, 0
1, 111840, Note_on_c, 1, 57, 127
1, 111840, Note_on_c, 1, 72, 127
1, 111840, Note_on_c, 1, 52, 127
1, 111869, Note_off_c, 1, 57, 0
1, 111869, Note_off_c, 1, 72, 0
1, 111870, Note_on_c, 1, 58, 127
1, 111870, Note_on_c, 1, 75, 127
1, 111899, Note_off_c, 1, 52, 0
1, 111899, Note_off_c, 1, 58, 0
1, 111899, Note_off_c, 1, 75, 0
1, 111900, Note_on_c, 1, 55, 127
1, 111900, Note_on_c, 1, 73, 127
1, 111900, Note_on_c, 1, 52, 127
1, 111929, Note_off_c, 1, 55, 0
1, 111930, Note_on_c, 1, 58, 127
1, 111959, Note_off_c, 1, 52, 0
1, 111959, Note_off_c, 1, 58, 0
1, 111960, Note_on_c, 1, 63, 127
1, 111989, Note_off_c, 1, 63, 0
1, 112020, Note_on_c, 1, 57, 127
1, 112049, Note_off_c, 1, 57, 0
1, 112080, Note_on_c, 1, 40, 127
1, 112110, Note_off_c, 1, 73, 0
1, 112110, Note_on_c, 1, 70, 127
1, 112139, Note_off_c, 1, 40, 0
1, 112139, Note_off_c, 1, 70, 0
1, 112140, Note_on_c, 1, 60, 127
1, 112140, Note_on_c, 1, 69, 127
1, 112140, Note_on_c, 1, 40, 127
1, 112169, Note_off_c, 1, 60, 0
1, 112169, Note_off_c, 1, 69, 0
1, 112170, Note_on_c, 1, 58, 127
1, 112170, Note_on_c, 1, 70, 127
1, 112199, Note_off_c, 1, 40, 0
1, 112199, Note_off_c, 1, 58, 0
1, 112199, Note_off_c, 1, 70, 0
1, 112200, Note_on_c, 1, 57, 127
1, 112200, Note_on_c, 1, 73, 127
1, 112200, Note_on_c, 1, 40, 127
1, 112229, Note_off_c, 1, 57, 0
1, 112229, Note_off_c, 1, 73, 0
1, 112230, Note_on_c, 1, 58, 127
1, 112230, Note_on_c, 1, 70, 127
1, 112259, Note_off_c, 1, 40, 0
1, 112259, Note_off_c, 1, 58, 0
1, 112259, Note_off_c, 1, 70, 0
1, 112260, Note_on_c, 1, 55, 127
1, 112260, Note_on_c, 1, 79, 127
1, 112260, Note_on_c, 1, 40, 127
1, 112289, Note_off_c, 1, 55, 0
1, 112289, Note_off_c, 1, 79, 0
1, 112290, Note_on_c, 1, 58, 127
1, 112290, Note_on_c, 1, 70, 127
1, 112319, Note_off_c, 1, 40, 0
1, 112319, Note_off_c, 1, 58, 0
1, 112319, Note_off_c, 1, 70, 0
1, 112320, Note_on_c, 1, 60, 127
1, 112320, Note_on_c, 1, 69, 127
1, 112320, Note_on_c, 1, 40, 127
1, 112349, Note_off_c, 1, 60, 0
1, 112349, Note_off_c, 1, 69, 0
1, 112350, Note_on_c, 1, 58, 127
1, 112350, Note_on_c, 1, 70, 127
1, 112379, Note_off_c, 1, 40, 0
1, 112379, Note_off_c, 1, 58, 0
1, 112379, Note_off_c, 1, 70, 0
1, 112380, Note_on_c, 1, 57, 127
1, 112380, Note_on_c, 1, 72, 127
1, 112380, Note_on_c, 1, 40, 127
1, 112409, Note_off_c, 1, 57, 0
1, 112409, Note_off_c, 1, 72, 0
1, 112410, Note_on_c, 1, 58, 127
1, 112410, Note_on_c, 1, 70, 127
1, 112439, Note_off_c, 1, 40, 0
1, 112439, Note_off_c, 1, 58, 0
1, 112439, Note_off_c, 1, 70, 0
1, 112440, Note_on_c, 1, 53, 127
1, 112440, Note_on_c, 1, 69, 127
1, 112440, Note_on_c, 1, 41, 127
1, 112443, Note_on_c, 1, 57, 127
1, 112446, Note_on_c, 1, 60, 127
1, 112450, Note_on_c, 1, 65, 127
1, 112469, Note_off_c, 1, 69, 0
1, 112470, Note_on_c, 1, 72, 127
1, 112499, Note_off_c, 1, 41, 0
1, 112499, Note_off_c, 1, 72, 0
1, 112500, Note_on_c, 1, 77, 127
1, 112500, Note_on_c, 1, 45, 127
1, 112529, Note_off_c, 1, 77, 0
1, 112559, Note_off_c, 1, 53, 0
1, 112559, Note_off_c, 1, 45, 0
1, 112560, Note_on_c, 1, 48, 127
1, 112562, Note_off_c, 1, 57, 0
1, 112565, Note_off_c, 1, 60, 0
1, 112569, Note_off_c, 1, 65, 0
1, 112590, Note_on_c, 1, 81, 127
1, 112619, Note_off_c, 1, 48, 0
1, 112619, Note_off_c, 1, 81, 0
1, 112620, Note_on_c, 1, 60, 127
1, 112620, Note_on_c, 1, 77, 127
1, 112620, Note_on_c, 1, 53, 127
1, 112649, Note_off_c, 1, 77, 0
1, 112650, Note_on_c, 1, 81, 127
1, 112679, Note_off_c, 1, 53, 0
1, 112679, Note_off_c, 1, 81, 0
1, 112680, Note_on_c, 1, 84, 127
1, 112680, Note_on_c, 1, 57, 127
1, 112709, Note_off_c, 1, 84, 0
1, 112739, Note_off_c, 1, 57, 0
1, 112740, Note_on_c, 1, 79, 127
1, 112769, Note_off_c, 1, 79, 0
1, 112800, Note_on_c, 1, 78, 127
1, 112800, Note_on_c, 1, 62, 127
1, 112829, Note_off_c, 1, 78, 0
1, 112859, Note_off_c, 1, 60, 0
1, 112859, Note_off_c, 1, 62, 0
1, 112860, Note_on_c, 1, 63, 127
1, 112860, Note_on_c, 1, 84, 127
1, 112860, Note_on_c, 1, 57, 127
1, 112889, Note_off_c, 1, 84, 0
1, 112890, Note_on_c, 1, 81, 127
1, 112919, Note_off_c, 1, 63, 0
1, 112919, Note_off_c, 1, 57, 0
1, 112919, Note_off_c, 1, 81, 0
1, 112920, Note_on_c, 1, 62, 127
1, 112920, Note_on_c, 1, 79, 127
1, 112920, Note_on_c, 1, 54, 127
1, 112949, Note_off_c, 1, 79, 0
1, 112950, Note_on_c, 1, 81, 127
1, 112979, Note_off_c, 1, 62, 0
1, 112979, Note_off_c, 1, 54, 0
1, 112979, Note_off_c, 1, 81, 0
1, 112980, Note_on_c, 1, 60, 127
1, 112980, Note_on_c, 1, 78, 127
1, 112980, Note_on_c, 1, 50, 127
1, 113009, Note_off_c, 1, 78, 0
1, 113010, Note_on_c, 1, 81, 127
1, 113039, Note_off_c, 1, 60, 0
1, 113039, Note_off_c, 1, 50, 0
1, 113039, Note_off_c, 1, 81, 0
1, 113040, Note_on_c, 1, 62, 127
1, 113040, Note_on_c, 1, 84, 127
1, 113069, Note_off_c, 1, 84, 0
1, 113070, Note_on_c, 1, 60, 127
1, 113070, Note_on_c, 1, 81, 127
1, 113099, Note_off_c, 1, 62, 0
1, 113099, Note_off_c, 1, 60, 0
1, 113099, Note_off_c, 1, 81, 0
1, 113100, Note_on_c, 1, 58, 127
1, 113100, Note_on_c, 1, 79, 127
1, 113100, Note_on_c, 1, 50, 127
1, 113129, Note_off_c, 1, 58, 0
1, 113129, Note_off_c, 1, 79, 0
1, 113130, Note_on_c, 1, 57, 127
1, 113130, Note_on_c, 1, 81, 127
1, 113159, Note_off_c, 1, 50, 0
1, 113159, Note_off_c, 1, 57, 0
1, 113159, Note_off_c, 1, 81, 0
1, 113160, Note_on_c, 1, 58, 127
1, 113160, Note_on_c, 1, 74, 127
1, 113160, Note_on_c, 1, 55, 127
1, 113189, Note_off_c, 1, 58, 0
1, 113189, Note_off_c, 1, 74, 0
1, 113190, Note_on_c, 1, 57, 127
1, 113190, Note_on_c, 1, 79, 127
1, 113219, Note_off_c, 1, 55, 0
1, 113219, Note_off_c, 1, 57, 0
1, 113219, Note_off_c, 1, 79, 0
1, 113220, Note_on_c, 1, 55, 127
1, 113220, Note_on_c, 1, 82, 127
1, 113220, Note_on_c, 1, 50, 127
1, 113249, Note_off_c, 1, 55, 0
1, 113249, Note_off_c, 1, 82, 0
1, 113250, Note_on_c, 1, 58, 127
1, 113250, Note_on_c, 1, 79, 127
1, 113279, Note_off_c, 1, 50, 0
1, 113279, Note_off_c, 1, 58, 0
1, 113279, Note_off_c, 1, 79, 0
1, 113280, Note_on_c, 1, 57, 127
1, 113280, Note_on_c, 1, 78, 127
1, 113280, Note_on_c, 1, 46, 127
1, 113309, Note_off_c, 1, 57, 0
1, 113309, Note_off_c, 1, 78, 0
1, 113310, Note_on_c, 1, 60, 127
1, 113310, Note_on_c, 1, 79, 127
1, 113339, Note_off_c, 1, 46, 0
1, 113339, Note_off_c, 1, 60, 0
1, 113339, Note_off_c, 1, 79, 0
1, 113340, Note_on_c, 1, 58, 127
1, 113340, Note_on_c, 1, 74, 127
1, 113340, Note_on_c, 1, 43, 127
1, 113369, Note_off_c, 1, 74, 0
1, 113370, Note_on_c, 1, 79, 127
1, 113399, Note_off_c, 1, 43, 0
1, 113399, Note_off_c, 1, 79, 0
1, 113400, Note_on_c, 1, 82, 127
1, 113400, Note_on_c, 1, 55, 127
1, 113429, Note_off_c, 1, 82, 0
1, 113459, Note_off_c, 1, 55, 0
1, 113460, Note_on_c, 1, 77, 127
1, 113489, Note_off_c, 1, 77, 0
1, 113520, Note_on_c, 1, 76, 127
1, 113520, Note_on_c, 1, 48, 127
1, 113549, Note_off_c, 1, 76, 0
1, 113579, Note_off_c, 1, 58, 0
1, 113579, Note_off_c, 1, 48, 0
1, 113580, Note_on_c, 1, 62, 127
1, 113580, Note_on_c, 1, 82, 127
1, 113580, Note_on_c, 1, 55, 127
1, 113609, Note_off_c, 1, 82, 0
1, 113610, Note_on_c, 1, 79, 127
1, 113639, Note_off_c, 1, 62, 0
1, 113639, Note_off_c, 1, 55, 0
1, 113639, Note_off_c, 1, 79, 0
1, 113640, Note_on_c, 1, 60, 127
1, 113640, Note_on_c, 1, 77, 127
1, 113640, Note_on_c, 1, 52, 127
1, 113669, Note_off_c, 1, 77, 0
1, 113670, Note_on_c, 1, 79, 127
1, 113699, Note_off_c, 1, 60, 0
1, 113699, Note_off_c, 1, 52, 0
1, 113699, Note_off_c, 1, 79, 0
1, 113700, Note_on_c, 1, 58, 127
1, 113700, Note_on_c, 1, 76, 127
1, 113700, Note_on_c, 1, 48, 127
1, 113729, Note_off_c, 1, 76, 0
1, 113730, Note_on_c, 1, 79, 127
1, 113759, Note_off_c, 1, 58, 0
1, 113759, Note_off_c, 1, 48, 0
1, 113759, Note_off_c, 1, 79, 0
1, 113760, Note_on_c, 1, 60, 127
1, 113760, Note_on_c, 1, 82, 127
1, 113789, Note_off_c, 1, 82, 0
1, 113790, Note_on_c, 1, 58, 127
1, 113790, Note_on_c, 1, 79, 127
1, 113819, Note_off_c, 1, 60, 0
1, 113819, Note_off_c, 1, 58, 0
1, 113819, Note_off_c, 1, 79, 0
1, 113820, Note_on_c, 1, 57, 127
1, 113820, Note_on_c, 1, 77, 127
1, 113820, Note_on_c, 1, 48, 127
1, 113849, Note_off_c, 1, 57, 0
1, 113849, Note_off_c, 1, 77, 0
1, 113850, Note_on_c, 1, 55, 127
1, 113850, Note_on_c, 1, 79, 127
1, 113879, Note_off_c, 1, 48, 0
1, 113879, Note_off_c, 1, 55, 0
1, 113879, Note_off_c, 1, 79, 0
1, 113880, Note_on_c, 1, 57, 127
1, 113880, Note_on_c, 1, 72, 127
1, 113880, Note_on_c, 1, 53, 127
1, 113909, Note_off_c, 1, 57, 0
1, 113909, Note_off_c, 1, 72, 0
1, 113910, Note_on_c, 1, 55, 127
1, 113910, Note_on_c, 1, 77, 127
1, 113939, Note_off_c, 1, 53, 0
1, 113939, Note_off_c, 1, 55, 0
1, 113939, Note_off_c, 1, 77, 0
1, 113940, Note_on_c, 1, 53, 127
1, 113940, Note_on_c, 1, 81, 127
1, 113940, Note_on_c, 1, 48, 127
1, 113969, Note_off_c, 1, 53, 0
1, 113969, Note_off_c, 1, 81, 0
1, 113970, Note_on_c, 1, 57, 127
1, 113970, Note_on_c, 1, 77, 127
1, 113999, Note_off_c, 1, 48, 0
1, 113999, Note_off_c, 1, 57, 0
1, 113999, Note_off_c, 1, 77, 0
1, 114000, Note_on_c, 1, 55, 127
1, 114000, Note_on_c, 1, 76, 127
1, 114000, Note_on_c, 1, 45, 127
1, 114029, Note_off_c, 1, 55, 0
1, 114029, Note_off_c, 1, 76, 0
1, 114030, Note_on_c, 1, 58, 127
1, 114030, Note_on_c, 1, 77, 127
1, 114059, Note_off_c, 1, 45, 0
1, 114059, Note_off_c, 1, 58, 0
1, 114059, Note_off_c, 1, 77, 0
1, 114060, Note_on_c, 1, 57, 127
1, 114060, Note_on_c, 1, 72, 127
1, 114060, Note_on_c, 1, 41, 127
1, 114089, Note_off_c, 1, 72, 0
1, 114090, Note_on_c, 1, 77, 127
1, 114119, Note_off_c, 1, 41, 0
1, 114119, Note_off_c, 1, 77, 0
1, 114120, Note_on_c, 1, 81, 127
1, 114120, Note_on_c, 1, 53, 127
1, 114149, Note_off_c, 1, 81, 0
1, 114179, Note_off_c, 1, 53, 0
1, 114180, Note_on_c, 1, 76, 127
1, 114209, Note_off_c, 1, 76, 0
1, 114239, Note_off_c, 1, 57, 0
1, 114240, Note_on_c, 1, 74, 127
1, 114240, Note_on_c, 1, 47, 127
1, 114269, Note_off_c, 1, 74, 0
1, 114270, Note_on_c, 1, 55, 127
1, 114270, Note_on_c, 1, 77, 127
1, 114299, Note_off_c, 1, 47, 0
1, 114299, Note_off_c, 1, 55, 0
1, 114299, Note_off_c, 1, 77, 0
1, 114300, Note_on_c, 1, 53, 127
1, 114300, Note_on_c, 1, 80, 127
1, 114300, Note_on_c, 1, 47, 127
1, 114329, Note_off_c, 1, 53, 0
1, 114329, Note_off_c, 1, 80, 0
1, 114330, Note_on_c, 1, 56, 127
1, 114330, Note_on_c, 1, 77, 127
1, 114359, Note_off_c, 1, 47, 0
1, 114359, Note_off_c, 1, 56, 0
1, 114359, Note_off_c, 1, 77, 0
1, 114360, Note_on_c, 1, 55, 127
1, 114360, Note_on_c, 1, 76, 127
1, 114360, Note_on_c, 1, 47, 127
1, 114389, Note_off_c, 1, 55, 0
1, 114389, Note_off_c, 1, 76, 0
1, 114390, Note_on_c, 1, 58, 127
1, 114390, Note_on_c, 1, 77, 127
1, 114419, Note_off_c, 1, 47, 0
1, 114419, Note_off_c, 1, 58, 0
1, 114419, Note_off_c, 1, 77, 0
1, 114420, Note_on_c, 1, 56, 127
1, 114420, Note_on_c, 1, 74, 127
1, 114420, Note_on_c, 1, 47, 127
1, 114449, Note_off_c, 1, 74, 0
1, 114450, Note_on_c, 1, 77, 127
1, 114479, Note_off_c, 1, 47, 0
1, 114479, Note_off_c, 1, 77, 0
1, 114480, Note_on_c, 1, 80, 127
1, 114509, Note_off_c, 1, 80, 0
1, 114540, Note_on_c, 1, 76, 127
1, 114569, Note_off_c, 1, 76, 0
1, 114599, Note_off_c, 1, 56, 0
1, 114600, Note_on_c, 1, 74, 127
1, 114600, Note_on_c, 1, 35, 127
1, 114629, Note_off_c, 1, 74, 0
1, 114630, Note_on_c, 1, 53, 127
1, 114630, Note_on_c, 1, 77, 127
1, 114659, Note_off_c, 1, 35, 0
1, 114659, Note_off_c, 1, 53, 0
1, 114659, Note_off_c, 1, 77, 0
1, 114660, Note_on_c, 1, 52, 127
1, 114660, Note_on_c, 1, 79, 127
1, 114660, Note_on_c, 1, 35, 127
1, 114689, Note_off_c, 1, 52, 0
1, 114689, Note_off_c, 1, 79, 0
1, 114690, Note_on_c, 1, 53, 127
1, 114690, Note_on_c, 1, 77, 127
1, 114719, Note_off_c, 1, 35, 0
1, 114719, Note_off_c, 1, 53, 0
1, 114719, Note_off_c, 1, 77, 0
1, 114720, Note_on_c, 1, 56, 127
1, 114720, Note_on_c, 1, 76, 127
1, 114720, Note_on_c, 1, 35, 127
1, 114749, Note_off_c, 1, 56, 0
1, 114749, Note_off_c, 1, 76, 0
1, 114750, Note_on_c, 1, 53, 127
1, 114750, Note_on_c, 1, 77, 127
1, 114779, Note_off_c, 1, 35, 0
1, 114779, Note_off_c, 1, 53, 0
1, 114779, Note_off_c, 1, 77, 0
1, 114780, Note_on_c, 1, 62, 127
1, 114780, Note_on_c, 1, 74, 127
1, 114780, Note_on_c, 1, 35, 127
1, 114809, Note_off_c, 1, 62, 0
1, 114809, Note_off_c, 1, 74, 0
1, 114810, Note_on_c, 1, 53, 127
1, 114810, Note_on_c, 1, 77, 127
1, 114839, Note_off_c, 1, 35, 0
1, 114839, Note_off_c, 1, 53, 0
1, 114839, Note_off_c, 1, 77, 0
1, 114840, Note_on_c, 1, 52, 127
1, 114840, Note_on_c, 1, 79, 127
1, 114840, Note_on_c, 1, 35, 127
1, 114869, Note_off_c, 1, 52, 0
1, 114869, Note_off_c, 1, 79, 0
1, 114870, Note_on_c, 1, 53, 127
1, 114870, Note_on_c, 1, 77, 127
1, 114899, Note_off_c, 1, 35, 0
1, 114899, Note_off_c, 1, 53, 0
1, 114899, Note_off_c, 1, 77, 0
1, 114900, Note_on_c, 1, 55, 127
1, 114900, Note_on_c, 1, 76, 127
1, 114900, Note_on_c, 1, 35, 127
1, 114929, Note_off_c, 1, 55, 0
1, 114929, Note_off_c, 1, 76, 0
1, 114930, Note_on_c, 1, 53, 127
1, 114930, Note_on_c, 1, 77, 127
1, 114959, Note_off_c, 1, 35, 0
1, 114959, Note_off_c, 1, 53, 0
1, 114959, Note_off_c, 1, 77, 0
1, 114960, Note_on_c, 1, 52, 127
1, 114960, Note_on_c, 1, 72, 127
1, 114960, Note_on_c, 1, 36, 127
1, 114989, Note_off_c, 1, 52, 0
1, 114990, Note_on_c, 1, 48, 127
1, 115019, Note_off_c, 1, 72, 0
1, 115019, Note_off_c, 1, 36, 0
1, 115019, Note_off_c, 1, 48, 0
1, 115020, Note_on_c, 1, 53, 127
1, 115049, Note_off_c, 1, 53, 0
1, 115050, Note_on_c, 1, 57, 127
1, 115079, Note_off_c, 1, 57, 0
1, 115080, Note_on_c, 1, 55, 127
1, 115109, Note_off_c, 1, 55, 0
1, 115110, Note_on_c, 1, 58, 127
1, 115139, Note_off_c, 1, 58, 0
1, 115140, Note_on_c, 1, 57, 127
1, 115169, Note_off_c, 1, 57, 0
1, 115170, Note_on_c, 1, 55, 127
1, 115170, Note_on_c, 1, 72, 127
1, 115199, Note_off_c, 1, 55, 0
1, 115199, Note_off_c, 1, 72, 0
1, 115200, Note_on_c, 1, 57, 127
1, 115200, Note_on_c, 1, 77, 127
1, 115229, Note_off_c, 1, 57, 0
1, 115229, Note_off_c, 1, 77, 0
1, 115230, Note_on_c, 1, 60, 127
1, 115230, Note_on_c, 1, 81, 127
1, 115259, Note_off_c, 1, 60, 0
1, 115259, Note_off_c, 1, 81, 0
1, 115260, Note_on_c, 1, 58, 127
1, 115260, Note_on_c, 1, 79, 127
1, 115289, Note_off_c, 1, 58, 0
1, 115289, Note_off_c, 1, 79, 0
1, 115290, Note_on_c, 1, 62, 127
1, 115290, Note_on_c, 1, 82, 127
1, 115319, Note_off_c, 1, 62, 0
1, 115319, Note_off_c, 1, 82, 0
1, 115320, Note_on_c, 1, 60, 127
1, 115320, Note_on_c, 1, 82, 127
1, 115339, Note_off_c, 1, 82, 0
1, 115340, Note_on_c, 1, 81, 127
1, 115350, Note_on_c, 1, 36, 127
1, 115359, Note_off_c, 1, 81, 0
1, 115360, Note_on_c, 1, 79, 127
1, 115379, Note_off_c, 1, 36, 0
1, 115379, Note_off_c, 1, 79, 0
1, 115380, Note_on_c, 1, 41, 127
1, 115409, Note_off_c, 1, 41, 0
1, 115410, Note_on_c, 1, 45, 127
1, 115420, Note_on_c, 1, 77, 127
1, 115439, Note_off_c, 1, 45, 0
1, 115439, Note_off_c, 1, 77, 0
1, 115440, Note_on_c, 1, 43, 127
1, 115469, Note_off_c, 1, 43, 0
1, 115470, Note_on_c, 1, 46, 127
1, 115480, Note_on_c, 1, 76, 127
1, 115499, Note_off_c, 1, 46, 0
1, 115499, Note_off_c, 1, 76, 0
1, 115530, Note_on_c, 1, 48, 127
1, 115559, Note_off_c, 1, 48, 0
1, 115620, Note_on_c, 1, 72, 127
1, 115679, Note_off_c, 1, 72, 0
1, 115680, Note_on_c, 1, 74, 127
1, 115740, Note_off_c, 1, 60, 0
1, 115740, Note_on_c, 1, 65, 127
1, 115770, Note_on_c, 1, 50, 127
1, 115799, Note_off_c, 1, 65, 0
1, 115799, Note_off_c, 1, 50, 0
1, 115800, Note_on_c, 1, 57, 127
1, 115830, Note_on_c, 1, 51, 127
1, 115859, Note_off_c, 1, 57, 0
1, 115859, Note_off_c, 1, 51, 0
1, 115860, Note_on_c, 1, 58, 127
1, 115890, Note_off_c, 1, 74, 0
1, 115890, Note_on_c, 1, 70, 127
1, 115890, Note_on_c, 1, 53, 127
1, 115919, Note_off_c, 1, 70, 0
1, 115919, Note_off_c, 1, 53, 0
1, 116039, Note_off_c, 1, 58, 0
1, 116040, Note_on_c, 1, 79, 127
1, 116040, Note_on_c, 1, 52, 127
1, 116070, Note_on_c, 1, 48, 127
1, 116099, Note_off_c, 1, 48, 0
1, 116129, Note_off_c, 1, 79, 0
1, 116129, Note_off_c, 1, 52, 0
1, 116130, Note_on_c, 1, 55, 127
1, 116130, Note_on_c, 1, 76, 127
1, 116130, Note_on_c, 1, 48, 127
1, 116159, Note_off_c, 1, 55, 0
1, 116159, Note_off_c, 1, 76, 0
1, 116159, Note_off_c, 1, 48, 0
1, 116160, Note_on_c, 1, 58, 127
1, 116160, Note_on_c, 1, 77, 127
1, 116160, Note_on_c, 1, 53, 127
1, 116189, Note_off_c, 1, 58, 0
1, 116190, Note_on_c, 1, 62, 127
1, 116219, Note_off_c, 1, 62, 0
1, 116220, Note_on_c, 1, 60, 127
1, 116249, Note_off_c, 1, 77, 0
1, 116249, Note_off_c, 1, 53, 0
1, 116249, Note_off_c, 1, 60, 0
1, 116250, Note_on_c, 1, 58, 127
1, 116250, Note_on_c, 1, 79, 127
1, 116250, Note_on_c, 1, 46, 127
1, 116279, Note_off_c, 1, 58, 0
1, 116279, Note_off_c, 1, 79, 0
1, 116279, Note_off_c, 1, 46, 0
1, 116280, Note_on_c, 1, 57, 127
1, 116280, Note_on_c, 1, 76, 127
1, 116280, Note_on_c, 1, 48, 127
1, 116339, Note_off_c, 1, 57, 0
1, 116339, Note_off_c, 1, 48, 0
1, 116340, Note_on_c, 1, 55, 127
1, 116340, Note_on_c, 1, 36, 127
1, 116369, Note_off_c, 1, 76, 0
1, 116369, Note_off_c, 1, 55, 0
1, 116370, Note_on_c, 1, 53, 127
1, 116370, Note_on_c, 1, 77, 127
1, 116399, Note_off_c, 1, 36, 0
1, 116399, Note_off_c, 1, 53, 0
1, 116399, Note_off_c, 1, 77, 0
1, 116400, Note_on_c, 1, 53, 127
1, 116400, Note_on_c, 1, 77, 127
1, 116400, Note_on_c, 1, 41, 127
1, 116429, Note_off_c, 1, 53, 0
1, 116430, Note_on_c, 1, 62, 127
1, 116459, Note_off_c, 1, 77, 0
1, 116459, Note_off_c, 1, 41, 0
1, 116459, Note_off_c, 1, 62, 0
1, 116460, Note_on_c, 1, 60, 127
1, 116460, Note_on_c, 1, 72, 127
1, 116460, Note_on_c, 1, 45, 127
1, 116489, Note_off_c, 1, 60, 0
1, 116490, Note_on_c, 1, 58, 127
1, 116519, Note_off_c, 1, 72, 0
1, 116519, Note_off_c, 1, 45, 0
1, 116519, Note_off_c, 1, 58, 0
1, 116520, Note_on_c, 1, 57, 127
1, 116520, Note_on_c, 1, 72, 127
1, 116520, Note_on_c, 1, 48, 127
1, 116549, Note_off_c, 1, 57, 0
1, 116550, Note_on_c, 1, 55, 127
1, 116579, Note_off_c, 1, 72, 0
1, 116579, Note_off_c, 1, 48, 0
1, 116579, Note_off_c, 1, 55, 0
1, 116580, Note_on_c, 1, 53, 127
1, 116580, Note_on_c, 1, 72, 127
1, 116610, Note_on_c, 1, 58, 127
1, 116639, Note_off_c, 1, 72, 0
1, 116639, Note_off_c, 1, 58, 0
1, 116640, Note_on_c, 1, 57, 127
1, 116669, Note_off_c, 1, 57, 0
1, 116670, Note_on_c, 1, 55, 127
1, 116699, Note_off_c, 1, 53, 0
1, 116699, Note_off_c, 1, 55, 0
1, 116700, Note_on_c, 1, 53, 127
1, 116700, Note_on_c, 1, 72, 127
1, 116729, Note_off_c, 1, 53, 0
1, 116730, Note_on_c, 1, 51, 127
1, 116759, Note_off_c, 1, 72, 0
1, 116759, Note_off_c, 1, 51, 0
1, 116760, Note_on_c, 1, 50, 127
1, 116760, Note_on_c, 1, 65, 127
1, 116789, Note_off_c, 1, 50, 0
1, 116790, Note_on_c, 1, 55, 127
1, 116819, Note_off_c, 1, 65, 0
1, 116819, Note_off_c, 1, 55, 0
1, 116820, Note_on_c, 1, 53, 127
1, 116820, Note_on_c, 1, 77, 127
1, 116849, Note_off_c, 1, 53, 0
1, 116850, Note_on_c, 1, 51, 127
1, 116879, Note_off_c, 1, 77, 0
1, 116879, Note_off_c, 1, 51, 0
1, 116880, Note_on_c, 1, 50, 127
1, 116880, Note_on_c, 1, 77, 127
1, 116909, Note_off_c, 1, 50, 0
1, 116910, Note_on_c, 1, 48, 127
1, 116939, Note_off_c, 1, 77, 0
1, 116939, Note_off_c, 1, 48, 0
1, 116940, Note_on_c, 1, 47, 127
1, 116940, Note_on_c, 1, 77, 127
1, 116940, Note_on_c, 1, 50, 127
1, 116999, Note_off_c, 1, 47, 0
1, 116999, Note_off_c, 1, 77, 0
1, 116999, Note_off_c, 1, 50, 0
1, 117000, Note_on_c, 1, 43, 127
1, 117000, Note_on_c, 1, 79, 127
1, 117000, Note_on_c, 1, 47, 127
1, 117029, Note_off_c, 1, 79, 0
1, 117030, Note_on_c, 1, 77, 127
1, 117059, Note_off_c, 1, 43, 0
1, 117059, Note_off_c, 1, 47, 0
1, 117059, Note_off_c, 1, 77, 0
1, 117060, Note_on_c, 1, 47, 127
1, 117060, Note_on_c, 1, 75, 127
1, 117060, Note_on_c, 1, 43, 127
1, 117089, Note_off_c, 1, 75, 0
1, 117090, Note_on_c, 1, 74, 127
1, 117119, Note_off_c, 1, 47, 0
1, 117119, Note_off_c, 1, 43, 0
1, 117119, Note_off_c, 1, 74, 0
1, 117120, Note_on_c, 1, 48, 127
1, 117120, Note_on_c, 1, 75, 127
1, 117120, Note_on_c, 1, 36, 127
1, 117149, Note_off_c, 1, 75, 0
1, 117150, Note_on_c, 1, 79, 127
1, 117179, Note_off_c, 1, 48, 0
1, 117179, Note_off_c, 1, 36, 0
1, 117179, Note_off_c, 1, 79, 0
1, 117180, Note_on_c, 1, 55, 127
1, 117180, Note_on_c, 1, 84, 127
1, 117180, Note_on_c, 1, 39, 127
1, 117209, Note_off_c, 1, 84, 0
1, 117210, Note_on_c, 1, 79, 127
1, 117239, Note_off_c, 1, 55, 0
1, 117239, Note_off_c, 1, 39, 0
1, 117239, Note_off_c, 1, 79, 0
1, 117240, Note_on_c, 1, 55, 127
1, 117240, Note_on_c, 1, 75, 127
1, 117240, Note_on_c, 1, 43, 127
1, 117269, Note_off_c, 1, 75, 0
1, 117270, Note_on_c, 1, 79, 127
1, 117299, Note_off_c, 1, 55, 0
1, 117299, Note_off_c, 1, 43, 0
1, 117299, Note_off_c, 1, 79, 0
1, 117300, Note_on_c, 1, 55, 127
1, 117300, Note_on_c, 1, 72, 127
1, 117300, Note_on_c, 1, 48, 127
1, 117329, Note_off_c, 1, 72, 0
1, 117330, Note_on_c, 1, 75, 127
1, 117359, Note_off_c, 1, 55, 0
1, 117359, Note_off_c, 1, 75, 0
1, 117360, Note_on_c, 1, 79, 127
1, 117389, Note_off_c, 1, 79, 0
1, 117419, Note_off_c, 1, 48, 0
1, 117420, Note_on_c, 1, 55, 127
1, 117420, Note_on_c, 1, 72, 127
1, 117449, Note_off_c, 1, 72, 0
1, 117450, Note_on_c, 1, 75, 127
1, 117479, Note_off_c, 1, 55, 0
1, 117479, Note_off_c, 1, 75, 0
1, 117480, Note_on_c, 1, 55, 127
1, 117480, Note_on_c, 1, 69, 127
1, 117509, Note_off_c, 1, 69, 0
1, 117510, Note_on_c, 1, 72, 127
1, 117539, Note_off_c, 1, 55, 0
1, 117539, Note_off_c, 1, 72, 0
1, 117540, Note_on_c, 1, 60, 127
1, 117540, Note_on_c, 1, 75, 127
1, 117569, Note_off_c, 1, 75, 0
1, 117570, Note_on_c, 1, 72, 127
1, 117599, Note_off_c, 1, 60, 0
1, 117599, Note_off_c, 1, 72, 0
1, 117600, Note_on_c, 1, 60, 127
1, 117600, Note_on_c, 1, 69, 127
1, 117629, Note_off_c, 1, 69, 0
1, 117630, Note_on_c, 1, 72, 127
1, 117659, Note_off_c, 1, 60, 0
1, 117659, Note_off_c, 1, 72, 0
1, 117660, Note_on_c, 1, 60, 127
1, 117660, Note_on_c, 1, 66, 127
1, 117660, Note_on_c, 1, 45, 127
1, 117689, Note_off_c, 1, 66, 0
1, 117690, Note_on_c, 1, 69, 127
1, 117719, Note_off_c, 1, 60, 0
1, 117719, Note_off_c, 1, 45, 0
1, 117719, Note_off_c, 1, 69, 0
1, 117720, Note_on_c, 1, 62, 127
1, 117720, Note_on_c, 1, 72, 127
1, 117720, Note_on_c, 1, 42, 127
1, 117749, Note_off_c, 1, 62, 0
1, 117749, Note_off_c, 1, 72, 0
1, 117750, Note_on_c, 1, 60, 127
1, 117750, Note_on_c, 1, 69, 127
1, 117779, Note_off_c, 1, 42, 0
1, 117779, Note_off_c, 1, 60, 0
1, 117779, Note_off_c, 1, 69, 0
1, 117780, Note_on_c, 1, 58, 127
1, 117780, Note_on_c, 1, 66, 127
1, 117780, Note_on_c, 1, 38, 127
1, 117809, Note_off_c, 1, 58, 0
1, 117809, Note_off_c, 1, 66, 0
1, 117810, Note_on_c, 1, 57, 127
1, 117810, Note_on_c, 1, 69, 127
1, 117839, Note_off_c, 1, 38, 0
1, 117839, Note_off_c, 1, 57, 0
1, 117839, Note_off_c, 1, 69, 0
1, 117840, Note_on_c, 1, 58, 127
1, 117840, Note_on_c, 1, 62, 127
1, 117840, Note_on_c, 1, 43, 127
1, 117869, Note_off_c, 1, 58, 0
1, 117899, Note_off_c, 1, 62, 0
1, 117899, Note_off_c, 1, 43, 0
1, 117900, Note_on_c, 1, 67, 127
1, 117900, Note_on_c, 1, 74, 127
1, 117900, Note_on_c, 1, 46, 127
1, 117929, Note_off_c, 1, 67, 0
1, 117930, Note_on_c, 1, 62, 127
1, 117959, Note_off_c, 1, 74, 0
1, 117959, Note_off_c, 1, 46, 0
1, 117959, Note_off_c, 1, 62, 0
1, 117960, Note_on_c, 1, 58, 127
1, 117960, Note_on_c, 1, 74, 127
1, 117960, Note_on_c, 1, 50, 127
1, 117989, Note_off_c, 1, 58, 0
1, 117990, Note_on_c, 1, 62, 127
1, 118019, Note_off_c, 1, 74, 0
1, 118019, Note_off_c, 1, 50, 0
1, 118019, Note_off_c, 1, 62, 0
1, 118020, Note_on_c, 1, 55, 127
1, 118020, Note_on_c, 1, 74, 127
1, 118050, Note_on_c, 1, 58, 127
1, 118079, Note_off_c, 1, 74, 0
1, 118079, Note_off_c, 1, 58, 0
1, 118080, Note_on_c, 1, 62, 127
1, 118109, Note_off_c, 1, 62, 0
1, 118139, Note_off_c, 1, 55, 0
1, 118140, Note_on_c, 1, 55, 127
1, 118140, Note_on_c, 1, 74, 127
1, 118169, Note_off_c, 1, 55, 0
1, 118170, Note_on_c, 1, 58, 127
1, 118199, Note_off_c, 1, 74, 0
1, 118199, Note_off_c, 1, 58, 0
1, 118200, Note_on_c, 1, 52, 127
1, 118200, Note_on_c, 1, 67, 127
1, 118229, Note_off_c, 1, 52, 0
1, 118230, Note_on_c, 1, 55, 127
1, 118259, Note_off_c, 1, 67, 0
1, 118259, Note_off_c, 1, 55, 0
1, 118260, Note_on_c, 1, 58, 127
1, 118260, Note_on_c, 1, 79, 127
1, 118289, Note_off_c, 1, 58, 0
1, 118290, Note_on_c, 1, 55, 127
1, 118319, Note_off_c, 1, 79, 0
1, 118319, Note_off_c, 1, 55, 0
1, 118320, Note_on_c, 1, 52, 127
1, 118320, Note_on_c, 1, 79, 127
1, 118349, Note_off_c, 1, 52, 0
1, 118350, Note_on_c, 1, 55, 127
1, 118379, Note_off_c, 1, 79, 0
1, 118379, Note_off_c, 1, 55, 0
1, 118380, Note_on_c, 1, 49, 127
1, 118380, Note_on_c, 1, 79, 127
1, 118380, Note_on_c, 1, 52, 127
1, 118409, Note_off_c, 1, 49, 0
1, 118439, Note_off_c, 1, 79, 0
1, 118439, Note_off_c, 1, 52, 0
1, 118440, Note_on_c, 1, 55, 127
1, 118440, Note_on_c, 1, 81, 127
1, 118440, Note_on_c, 1, 49, 127
1, 118469, Note_off_c, 1, 55, 0
1, 118469, Note_off_c, 1, 81, 0
1, 118470, Note_on_c, 1, 52, 127
1, 118470, Note_on_c, 1, 79, 127
1, 118499, Note_off_c, 1, 49, 0
1, 118499, Note_off_c, 1, 52, 0
1, 118499, Note_off_c, 1, 79, 0
1, 118500, Note_on_c, 1, 49, 127
1, 118500, Note_on_c, 1, 77, 127
1, 118500, Note_on_c, 1, 45, 127
1, 118529, Note_off_c, 1, 49, 0
1, 118529, Note_off_c, 1, 77, 0
1, 118530, Note_on_c, 1, 52, 127
1, 118530, Note_on_c, 1, 76, 127
1, 118559, Note_off_c, 1, 45, 0
1, 118559, Note_off_c, 1, 52, 0
1, 118559, Note_off_c, 1, 76, 0
1, 118560, Note_on_c, 1, 45, 127
1, 118560, Note_on_c, 1, 77, 127
1, 118560, Note_on_c, 1, 50, 127
1, 118589, Note_off_c, 1, 50, 0
1, 118590, Note_on_c, 1, 57, 127
1, 118619, Note_off_c, 1, 77, 0
1, 118619, Note_off_c, 1, 57, 0
1, 118620, Note_on_c, 1, 81, 127
1, 118620, Note_on_c, 1, 60, 127
1, 118649, Note_off_c, 1, 60, 0
1, 118650, Note_on_c, 1, 65, 127
1, 118679, Note_off_c, 1, 45, 0
1, 118679, Note_off_c, 1, 81, 0
1, 118679, Note_off_c, 1, 65, 0
1, 118680, Note_on_c, 1, 81, 127
1, 118680, Note_on_c, 1, 64, 127
1, 118709, Note_off_c, 1, 64, 0
1, 118710, Note_on_c, 1, 67, 127
1, 118739, Note_off_c, 1, 81, 0
1, 118739, Note_off_c, 1, 67, 0
1, 118740, Note_on_c, 1, 81, 127
1, 118740, Note_on_c, 1, 65, 127
1, 118769, Note_off_c, 1, 65, 0
1, 118770, Note_on_c, 1, 64, 127
1, 118799, Note_off_c, 1, 81, 0
1, 118799, Note_off_c, 1, 64, 0
1, 118800, Note_on_c, 1, 65, 127
1, 118800, Note_on_c, 1, 81, 127
1, 118800, Note_on_c, 1, 62, 127
1, 118829, Note_off_c, 1, 62, 0
1, 118830, Note_on_c, 1, 64, 127
1, 118859, Note_off_c, 1, 65, 0
1, 118859, Note_off_c, 1, 81, 0
1, 118859, Note_off_c, 1, 64, 0
1, 118860, Note_on_c, 1, 65, 127
1, 118860, Note_on_c, 1, 81, 127
1, 118860, Note_on_c, 1, 60, 127
1, 118889, Note_off_c, 1, 60, 0
1, 118890, Note_on_c, 1, 62, 127
1, 118919, Note_off_c, 1, 65, 0
1, 118919, Note_off_c, 1, 81, 0
1, 118919, Note_off_c, 1, 62, 0
1, 118920, Note_on_c, 1, 65, 127
1, 118920, Note_on_c, 1, 79, 127
1, 118920, Note_on_c, 1, 59, 127
1, 118949, Note_off_c, 1, 59, 0
1, 118950, Note_on_c, 1, 55, 127
1, 118979, Note_off_c, 1, 65, 0
1, 118979, Note_off_c, 1, 79, 0
1, 118979, Note_off_c, 1, 55, 0
1, 118980, Note_on_c, 1, 64, 127
1, 118980, Note_on_c, 1, 79, 127
1, 118980, Note_on_c, 1, 60, 127
1, 119009, Note_off_c, 1, 60, 0
1, 119039, Note_off_c, 1, 64, 0
1, 119039, Note_off_c, 1, 79, 0
1, 119040, Note_on_c, 1, 64, 127
1, 119040, Note_on_c, 1, 79, 127
1, 119040, Note_on_c, 1, 62, 127
1, 119069, Note_off_c, 1, 62, 0
1, 119070, Note_on_c, 1, 65, 127
1, 119099, Note_off_c, 1, 64, 0
1, 119099, Note_off_c, 1, 79, 0
1, 119099, Note_off_c, 1, 65, 0
1, 119100, Note_on_c, 1, 64, 127
1, 119100, Note_on_c, 1, 79, 127
1, 119130, Note_on_c, 1, 62, 127
1, 119159, Note_off_c, 1, 64, 0
1, 119159, Note_off_c, 1, 79, 0
1, 119159, Note_off_c, 1, 62, 0
1, 119160, Note_on_c, 1, 64, 127
1, 119160, Note_on_c, 1, 79, 127
1, 119160, Note_on_c, 1, 60, 127
1, 119189, Note_off_c, 1, 60, 0
1, 119190, Note_on_c, 1, 62, 127
1, 119219, Note_off_c, 1, 64, 0
1, 119219, Note_off_c, 1, 79, 0
1, 119219, Note_off_c, 1, 62, 0
1, 119220, Note_on_c, 1, 64, 127
1, 119220, Note_on_c, 1, 79, 127
1, 119220, Note_on_c, 1, 58, 127
1, 119249, Note_off_c, 1, 58, 0
1, 119250, Note_on_c, 1, 60, 127
1, 119279, Note_off_c, 1, 64, 0
1, 119279, Note_off_c, 1, 79, 0
1, 119279, Note_off_c, 1, 60, 0
1, 119280, Note_on_c, 1, 64, 127
1, 119280, Note_on_c, 1, 77, 127
1, 119280, Note_on_c, 1, 57, 127
1, 119309, Note_off_c, 1, 57, 0
1, 119310, Note_on_c, 1, 53, 127
1, 119339, Note_off_c, 1, 64, 0
1, 119339, Note_off_c, 1, 77, 0
1, 119339, Note_off_c, 1, 53, 0
1, 119340, Note_on_c, 1, 62, 127
1, 119340, Note_on_c, 1, 77, 127
1, 119340, Note_on_c, 1, 58, 127
1, 119369, Note_off_c, 1, 58, 0
1, 119399, Note_off_c, 1, 62, 0
1, 119399, Note_off_c, 1, 77, 0
1, 119400, Note_on_c, 1, 62, 127
1, 119400, Note_on_c, 1, 77, 127
1, 119400, Note_on_c, 1, 60, 127
1, 119429, Note_off_c, 1, 60, 0
1, 119430, Note_on_c, 1, 63, 127
1, 119459, Note_off_c, 1, 62, 0
1, 119459, Note_off_c, 1, 77, 0
1, 119459, Note_off_c, 1, 63, 0
1, 119460, Note_on_c, 1, 62, 127
1, 119460, Note_on_c, 1, 77, 127
1, 119490, Note_on_c, 1, 60, 127
1, 119519, Note_off_c, 1, 62, 0
1, 119519, Note_off_c, 1, 77, 0
1, 119519, Note_off_c, 1, 60, 0
1, 119520, Note_on_c, 1, 62, 127
1, 119520, Note_on_c, 1, 77, 127
1, 119520, Note_on_c, 1, 58, 127
1, 119549, Note_off_c, 1, 58, 0
1, 119550, Note_on_c, 1, 60, 127
1, 119579, Note_off_c, 1, 62, 0
1, 119579, Note_off_c, 1, 77, 0
1, 119579, Note_off_c, 1, 60, 0
1, 119580, Note_on_c, 1, 62, 127
1, 119580, Note_on_c, 1, 77, 127
1, 119580, Note_on_c, 1, 57, 127
1, 119609, Note_off_c, 1, 57, 0
1, 119610, Note_on_c, 1, 58, 127
1, 119639, Note_off_c, 1, 62, 0
1, 119639, Note_off_c, 1, 77, 0
1, 119639, Note_off_c, 1, 58, 0
1, 119640, Note_on_c, 1, 62, 127
1, 119640, Note_on_c, 1, 76, 127
1, 119640, Note_on_c, 1, 55, 127
1, 119669, Note_off_c, 1, 62, 0
1, 119669, Note_off_c, 1, 76, 0
1, 119669, Note_off_c, 1, 55, 0
1, 119670, Note_on_c, 1, 61, 127
1, 119670, Note_on_c, 1, 77, 127
1, 119670, Note_on_c, 1, 57, 127
1, 119699, Note_off_c, 1, 77, 0
1, 119699, Note_off_c, 1, 57, 0
1, 119700, Note_on_c, 1, 79, 127
1, 119700, Note_on_c, 1, 58, 127
1, 119714, Note_off_c, 1, 79, 0
1, 119729, Note_off_c, 1, 58, 0
1, 119760, Note_on_c, 1, 55, 127
1, 119789, Note_off_c, 1, 55, 0
1, 119790, Note_on_c, 1, 76, 127
1, 119790, Note_on_c, 1, 53, 127
1, 119804, Note_off_c, 1, 76, 0
1, 119819, Note_off_c, 1, 53, 0
1, 119820, Note_on_c, 1, 52, 127
1, 119849, Note_off_c, 1, 61, 0
1, 119849, Note_off_c, 1, 52, 0
1, 119850, Note_on_c, 1, 62, 127
1, 119879, Note_off_c, 1, 62, 0
1, 119880, Note_on_c, 1, 64, 127
1, 119894, Note_off_c, 1, 64, 0
1, 119970, Note_on_c, 1, 60, 127
1, 119970, Note_on_c, 1, 50, 127
1, 119984, Note_off_c, 1, 60, 0
1, 119999, Note_off_c, 1, 50, 0
1, 120000, Note_on_c, 1, 64, 127
1, 120000, Note_on_c, 1, 49, 127
1, 120030, Note_on_c, 1, 82, 127
1, 120059, Note_off_c, 1, 64, 0
1, 120059, Note_off_c, 1, 49, 0
1, 120059, Note_off_c, 1, 82, 0
1, 120060, Note_on_c, 1, 57, 127
1, 120060, Note_on_c, 1, 81, 127
1, 120089, Note_off_c, 1, 81, 0
1, 120090, Note_on_c, 1, 79, 127
1, 120090, Note_on_c, 1, 49, 127
1, 120119, Note_off_c, 1, 57, 0
1, 120119, Note_off_c, 1, 79, 0
1, 120119, Note_off_c, 1, 49, 0
1, 120120, Note_on_c, 1, 62, 127
1, 120120, Note_on_c, 1, 77, 127
1, 120120, Note_on_c, 1, 50, 127
1, 120149, Note_off_c, 1, 77, 0
1, 120149, Note_off_c, 1, 50, 0
1, 120150, Note_on_c, 1, 79, 127
1, 120150, Note_on_c, 1, 52, 127
1, 120179, Note_off_c, 1, 79, 0
1, 120179, Note_off_c, 1, 52, 0
1, 120180, Note_on_c, 1, 81, 127
1, 120180, Note_on_c, 1, 53, 127
1, 120209, Note_off_c, 1, 81, 0
1, 120209, Note_off_c, 1, 53, 0
1, 120210, Note_on_c, 1, 83, 127
1, 120239, Note_off_c, 1, 62, 0
1, 120239, Note_off_c, 1, 83, 0
1, 120240, Note_on_c, 1, 55, 127
1, 120240, Note_on_c, 1, 84, 127
1, 120240, Note_on_c, 1, 53, 127
1, 120254, Note_off_c, 1, 84, 0
1, 120255, Note_on_c, 1, 83, 127
1, 120269, Note_off_c, 1, 53, 0
1, 120269, Note_off_c, 1, 83, 0
1, 120270, Note_on_c, 1, 57, 127
1, 120299, Note_off_c, 1, 55, 0
1, 120299, Note_off_c, 1, 57, 0
1, 120300, Note_on_c, 1, 65, 127
1, 120300, Note_on_c, 1, 84, 127
1, 120300, Note_on_c, 1, 55, 127
1, 120314, Note_off_c, 1, 84, 0
1, 120315, Note_on_c, 1, 83, 127
1, 120329, Note_off_c, 1, 55, 0
1, 120329, Note_off_c, 1, 83, 0
1, 120330, Note_on_c, 1, 81, 127
1, 120330, Note_on_c, 1, 59, 127
1, 120344, Note_off_c, 1, 81, 0
1, 120359, Note_off_c, 1, 59, 0
1, 120360, Note_on_c, 1, 57, 127
1, 120389, Note_off_c, 1, 65, 0
1, 120389, Note_off_c, 1, 57, 0
1, 120420, Note_on_c, 1, 63, 127
1, 120449, Note_off_c, 1, 63, 0
1, 120450, Note_on_c, 1, 62, 127
1, 120479, Note_off_c, 1, 62, 0
1, 120480, Note_on_c, 1, 60, 127
1, 120509, Note_off_c, 1, 60, 0
1, 120540, Note_on_c, 1, 64, 127
1, 120569, Note_off_c, 1, 64, 0
1, 120570, Note_on_c, 1, 66, 127
1, 120599, Note_off_c, 1, 66, 0
1, 120600, Note_on_c, 1, 67, 127
1, 120614, Note_off_c, 1, 67, 0
1, 120720, Note_on_c, 1, 67, 127
1, 120720, Note_on_c, 1, 63, 127
1, 120750, Note_on_c, 1, 81, 127
1, 120779, Note_off_c, 1, 63, 0
1, 120779, Note_off_c, 1, 81, 0
1, 120780, Note_on_c, 1, 82, 127
1, 120780, Note_on_c, 1, 62, 127
1, 120809, Note_off_c, 1, 82, 0
1, 120810, Note_on_c, 1, 79, 127
1, 120839, Note_off_c, 1, 62, 0
1, 120839, Note_off_c, 1, 79, 0
1, 120840, Note_on_c, 1, 61, 127
1, 120870, Note_off_c, 1, 67, 0
1, 120870, Note_on_c, 1, 64, 127
1, 120899, Note_off_c, 1, 61, 0
1, 120899, Note_off_c, 1, 64, 0
1, 120900, Note_on_c, 1, 65, 127
1, 120929, Note_off_c, 1, 65, 0
1, 120960, Note_on_c, 1, 63, 127
1, 120960, Note_on_c, 1, 60, 127
1, 120989, Note_off_c, 1, 60, 0
1, 120990, Note_on_c, 1, 78, 127
1, 120990, Note_on_c, 1, 57, 127
1, 121019, Note_off_c, 1, 78, 0
1, 121019, Note_off_c, 1, 57, 0
1, 121020, Note_on_c, 1, 79, 127
1, 121020, Note_on_c, 1, 58, 127
1, 121049, Note_off_c, 1, 63, 0
1, 121049, Note_off_c, 1, 58, 0
1, 121050, Note_on_c, 1, 61, 127
1, 121079, Note_off_c, 1, 61, 0
1, 121080, Note_on_c, 1, 62, 127
1, 121109, Note_off_c, 1, 79, 0
1, 121110, Note_on_c, 1, 76, 127
1, 121139, Note_off_c, 1, 76, 0
1, 121140, Note_on_c, 1, 77, 127
1, 121169, Note_off_c, 1, 62, 0
1, 121169, Note_off_c, 1, 77, 0
1, 121170, Note_on_c, 1, 59, 127
1, 121170, Note_on_c, 1, 74, 127
1, 121199, Note_off_c, 1, 59, 0
1, 121199, Note_off_c, 1, 74, 0
1, 121200, Note_on_c, 1, 61, 127
1, 121200, Note_on_c, 1, 76, 127
1, 121200, Note_on_c, 1, 55, 127
1, 121229, Note_off_c, 1, 61, 0
1, 121229, Note_off_c, 1, 76, 0
1, 121230, Note_on_c, 1, 64, 127
1, 121230, Note_on_c, 1, 79, 127
1, 121259, Note_off_c, 1, 55, 0
1, 121259, Note_off_c, 1, 64, 0
1, 121259, Note_off_c, 1, 79, 0
1, 121260, Note_on_c, 1, 62, 127
1, 121260, Note_on_c, 1, 77, 127
1, 121260, Note_on_c, 1, 54, 127
1, 121289, Note_off_c, 1, 62, 0
1, 121289, Note_off_c, 1, 77, 0
1, 121290, Note_on_c, 1, 65, 127
1, 121290, Note_on_c, 1, 79, 127
1, 121319, Note_off_c, 1, 54, 0
1, 121319, Note_off_c, 1, 65, 0
1, 121319, Note_off_c, 1, 79, 0
1, 121320, Note_on_c, 1, 61, 127
1, 121320, Note_on_c, 1, 76, 127
1, 121320, Note_on_c, 1, 57, 127
1, 121379, Note_off_c, 1, 57, 0
1, 121380, Note_on_c, 1, 45, 127
1, 121409, Note_off_c, 1, 61, 0
1, 121409, Note_off_c, 1, 76, 0
1, 121410, Note_on_c, 1, 62, 127
1, 121410, Note_on_c, 1, 74, 127
1, 121439, Note_off_c, 1, 45, 0
1, 121439, Note_off_c, 1, 62, 0
1, 121439, Note_off_c, 1, 74, 0
1, 121440, Note_on_c, 1, 62, 127
1, 121440, Note_on_c, 1, 74, 127
1, 121440, Note_on_c, 1, 50, 127
1, 121469, Note_off_c, 1, 50, 0
1, 121470, Note_on_c, 1, 52, 127
1, 121499, Note_off_c, 1, 74, 0
1, 121499, Note_off_c, 1, 52, 0
1, 121500, Note_on_c, 1, 81, 127
1, 121500, Note_on_c, 1, 53, 127
1, 121529, Note_off_c, 1, 53, 0
1, 121530, Note_on_c, 1, 55, 127
1, 121559, Note_off_c, 1, 62, 0
1, 121559, Note_off_c, 1, 81, 0
1, 121559, Note_off_c, 1, 55, 0
1, 121560, Note_on_c, 1, 79, 127
1, 121560, Note_on_c, 1, 57, 127
1, 121589, Note_off_c, 1, 57, 0
1, 121590, Note_on_c, 1, 53, 127
1, 121619, Note_off_c, 1, 79, 0
1, 121619, Note_off_c, 1, 53, 0
1, 121620, Note_on_c, 1, 79, 127
1, 121620, Note_on_c, 1, 50, 127
1, 121649, Note_off_c, 1, 50, 0
1, 121650, Note_off_c, 1, 79, 0
1, 121650, Note_on_c, 1, 77, 127
1, 121650, Note_on_c, 1, 53, 127
1, 121679, Note_off_c, 1, 53, 0
1, 121680, Note_on_c, 1, 62, 127
1, 121680, Note_on_c, 1, 57, 127
1, 121709, Note_off_c, 1, 57, 0
1, 121739, Note_off_c, 1, 62, 0
1, 121740, Note_on_c, 1, 60, 127
1, 121799, Note_off_c, 1, 60, 0
1, 121830, Note_on_c, 1, 58, 127
1, 121830, Note_on_c, 1, 55, 127
1, 121859, Note_off_c, 1, 55, 0
1, 121860, Note_off_c, 1, 77, 0
1, 121920, Note_on_c, 1, 76, 127
1, 121949, Note_off_c, 1, 76, 0
1, 121950, Note_on_c, 1, 74, 127
1, 121979, Note_off_c, 1, 74, 0
1, 122039, Note_off_c, 1, 58, 0
1, 122070, Note_on_c, 1, 61, 127
1, 122099, Note_off_c, 1, 61, 0
1, 122130, Note_on_c, 1, 64, 127
1, 122159, Note_off_c, 1, 64, 0
1, 122160, Note_on_c, 1, 57, 127
1, 122160, Note_on_c, 1, 50, 127
1, 122189, Note_off_c, 1, 50, 0
1, 122190, Note_on_c, 1, 79, 127
1, 122190, Note_on_c, 1, 55, 127
1, 122219, Note_off_c, 1, 79, 0
1, 122219, Note_off_c, 1, 55, 0
1, 122220, Note_on_c, 1, 77, 127
1, 122249, Note_off_c, 1, 77, 0
1, 122250, Note_on_c, 1, 76, 127
1, 122279, Note_off_c, 1, 76, 0
1, 122280, Note_on_c, 1, 74, 127
1, 122309, Note_off_c, 1, 74, 0
1, 122310, Note_on_c, 1, 73, 127
1, 122339, Note_off_c, 1, 73, 0
1, 122370, Note_on_c, 1, 53, 127
1, 122399, Note_off_c, 1, 57, 0
1, 122399, Note_off_c, 1, 53, 0
1, 122400, Note_on_c, 1, 62, 127
1, 122459, Note_off_c, 1, 62, 0
1, 122460, Note_on_c, 1, 60, 127
1, 122460, Note_on_c, 1, 79, 127
1, 122460, Note_on_c, 1, 50, 127
1, 122489, Note_off_c, 1, 60, 0
1, 122489, Note_off_c, 1, 79, 0
1, 122489, Note_off_c, 1, 50, 0
1, 122490, Note_on_c, 1, 58, 127
1, 122490, Note_on_c, 1, 81, 127
1, 122490, Note_on_c, 1, 53, 127
1, 122519, Note_off_c, 1, 58, 0
1, 122519, Note_off_c, 1, 81, 0
1, 122519, Note_off_c, 1, 53, 0
1, 122520, Note_on_c, 1, 57, 127
1, 122520, Note_on_c, 1, 82, 127
1, 122520, Note_on_c, 1, 50, 127
1, 122549, Note_off_c, 1, 57, 0
1, 122549, Note_off_c, 1, 50, 0
1, 122550, Note_on_c, 1, 55, 127
1, 122550, Note_on_c, 1, 52, 127
1, 122569, Note_off_c, 1, 55, 0
1, 122579, Note_off_c, 1, 82, 0
1, 122579, Note_off_c, 1, 52, 0
1, 122640, Note_on_c, 1, 57, 127
1, 122640, Note_on_c, 1, 82, 127
1, 122640, Note_on_c, 1, 50, 127
1, 122654, Note_off_c, 1, 57, 0
1, 122655, Note_on_c, 1, 55, 127
1, 122669, Note_off_c, 1, 50, 0
1, 122669, Note_off_c, 1, 55, 0
1, 122670, Note_on_c, 1, 52, 127
1, 122699, Note_off_c, 1, 82, 0
1, 122699, Note_off_c, 1, 52, 0
1, 122700, Note_on_c, 1, 57, 127
1, 122700, Note_on_c, 1, 82, 127
1, 122700, Note_on_c, 1, 49, 127
1, 122714, Note_off_c, 1, 57, 0
1, 122715, Note_on_c, 1, 55, 127
1, 122719, Note_off_c, 1, 82, 0
1, 122720, Note_on_c, 1, 84, 127
1, 122729, Note_off_c, 1, 49, 0
1, 122729, Note_off_c, 1, 55, 0
1, 122730, Note_on_c, 1, 52, 127
1, 122739, Note_off_c, 1, 84, 0
1, 122759, Note_off_c, 1, 52, 0
1, 122760, Note_on_c, 1, 57, 127
1, 122760, Note_on_c, 1, 84, 127
1, 122774, Note_off_c, 1, 84, 0
1, 122775, Note_on_c, 1, 55, 127
1, 122775, Note_on_c, 1, 82, 127
1, 122789, Note_off_c, 1, 57, 0
1, 122789, Note_off_c, 1, 55, 0
1, 122789, Note_off_c, 1, 82, 0
1, 122790, Note_on_c, 1, 57, 127
1, 122790, Note_on_c, 1, 84, 127
1, 122790, Note_on_c, 1, 52, 127
1, 122804, Note_off_c, 1, 57, 0
1, 122804, Note_off_c, 1, 84, 0
1, 122805, Note_on_c, 1, 55, 127
1, 122805, Note_on_c, 1, 82, 127
1, 122819, Note_off_c, 1, 52, 0
1, 122819, Note_off_c, 1, 55, 0
1, 122819, Note_off_c, 1, 82, 0
1, 122820, Note_on_c, 1, 57, 127
1, 122820, Note_on_c, 1, 84, 127
1, 122820, Note_on_c, 1, 49, 127
1, 122834, Note_off_c, 1, 57, 0
1, 122834, Note_off_c, 1, 84, 0
1, 122835, Note_on_c, 1, 55, 127
1, 122835, Note_on_c, 1, 82, 127
1, 122849, Note_off_c, 1, 49, 0
1, 122849, Note_off_c, 1, 55, 0
1, 122849, Note_off_c, 1, 82, 0
1, 122850, Note_on_c, 1, 54, 127
1, 122850, Note_on_c, 1, 84, 127
1, 122850, Note_on_c, 1, 52, 127
1, 122864, Note_off_c, 1, 54, 0
1, 122864, Note_off_c, 1, 84, 0
1, 122865, Note_on_c, 1, 55, 127
1, 122865, Note_on_c, 1, 82, 127
1, 122879, Note_off_c, 1, 52, 0
1, 122879, Note_off_c, 1, 55, 0
1, 122879, Note_off_c, 1, 82, 0
1, 122880, Note_on_c, 1, 54, 127
1, 122880, Note_on_c, 1, 84, 127
1, 122880, Note_on_c, 1, 48, 127
1, 122894, Note_off_c, 1, 84, 0
1, 122895, Note_on_c, 1, 82, 127
1, 122909, Note_off_c, 1, 82, 0
1, 122910, Note_on_c, 1, 81, 127
1, 122939, Note_off_c, 1, 54, 0
1, 122939, Note_off_c, 1, 48, 0
1, 122939, Note_off_c, 1, 81, 0
1, 122940, Note_on_c, 1, 62, 127
1, 122940, Note_on_c, 1, 82, 127
1, 122940, Note_on_c, 1, 46, 127
1, 122969, Note_off_c, 1, 82, 0
1, 122970, Note_on_c, 1, 78, 127
1, 122999, Note_off_c, 1, 62, 0
1, 122999, Note_off_c, 1, 46, 0
1, 122999, Note_off_c, 1, 78, 0
1, 123000, Note_on_c, 1, 55, 127
1, 123000, Note_on_c, 1, 79, 127
1, 123000, Note_on_c, 1, 51, 127
1, 123059, Note_off_c, 1, 55, 0
1, 123059, Note_off_c, 1, 51, 0
1, 123060, Note_on_c, 1, 60, 127
1, 123060, Note_on_c, 1, 45, 127
1, 123089, Note_off_c, 1, 79, 0
1, 123089, Note_off_c, 1, 60, 0
1, 123090, Note_on_c, 1, 63, 127
1, 123090, Note_on_c, 1, 81, 127
1, 123119, Note_off_c, 1, 45, 0
1, 123119, Note_off_c, 1, 63, 0
1, 123119, Note_off_c, 1, 81, 0
1, 123120, Note_on_c, 1, 62, 127
1, 123120, Note_on_c, 1, 78, 127
1, 123120, Note_on_c, 1, 50, 127
1, 123149, Note_off_c, 1, 62, 0
1, 123150, Note_on_c, 1, 60, 127
1, 123179, Note_off_c, 1, 50, 0
1, 123179, Note_off_c, 1, 60, 0
1, 123180, Note_on_c, 1, 58, 127
1, 123180, Note_on_c, 1, 38, 127
1, 123209, Note_off_c, 1, 78, 0
1, 123209, Note_off_c, 1, 58, 0
1, 123210, Note_on_c, 1, 57, 127
1, 123210, Note_on_c, 1, 79, 127
1, 123239, Note_off_c, 1, 38, 0
1, 123239, Note_off_c, 1, 57, 0
1, 123239, Note_off_c, 1, 79, 0
1, 123240, Note_on_c, 1, 58, 127
1, 123240, Note_on_c, 1, 79, 127
1, 123240, Note_on_c, 1, 43, 127
1, 123269, Note_off_c, 1, 43, 0
1, 123270, Note_on_c, 1, 45, 127
1, 123299, Note_off_c, 1, 58, 0
1, 123299, Note_off_c, 1, 45, 0
1, 123300, Note_on_c, 1, 62, 127
1, 123300, Note_on_c, 1, 46, 127
1, 123329, Note_off_c, 1, 46, 0
1, 123330, Note_on_c, 1, 48, 127
1, 123359, Note_off_c, 1, 79, 0
1, 123359, Note_off_c, 1, 62, 0
1, 123359, Note_off_c, 1, 48, 0
1, 123360, Note_on_c, 1, 60, 127
1, 123360, Note_on_c, 1, 50, 127
1, 123389, Note_off_c, 1, 50, 0
1, 123390, Note_on_c, 1, 46, 127
1, 123419, Note_off_c, 1, 60, 0
1, 123419, Note_off_c, 1, 46, 0
1, 123420, Note_on_c, 1, 60, 127
1, 123420, Note_on_c, 1, 43, 127
1, 123449, Note_off_c, 1, 60, 0
1, 123449, Note_off_c, 1, 43, 0
1, 123450, Note_on_c, 1, 58, 127
1, 123450, Note_on_c, 1, 46, 127
1, 123479, Note_off_c, 1, 46, 0
1, 123480, Note_on_c, 1, 79, 127
1, 123480, Note_on_c, 1, 50, 127
1, 123509, Note_off_c, 1, 50, 0
1, 123539, Note_off_c, 1, 79, 0
1, 123540, Note_on_c, 1, 77, 127
1, 123540, Note_on_c, 1, 43, 127
1, 123569, Note_off_c, 1, 43, 0
1, 123599, Note_off_c, 1, 77, 0
1, 123630, Note_on_c, 1, 75, 127
1, 123630, Note_on_c, 1, 48, 127
1, 123659, Note_off_c, 1, 58, 0
1, 123659, Note_off_c, 1, 48, 0
1, 123660, Note_on_c, 1, 60, 127
1, 123660, Note_on_c, 1, 51, 127
1, 123689, Note_off_c, 1, 60, 0
1, 123689, Note_off_c, 1, 51, 0
1, 123720, Note_on_c, 1, 57, 127
1, 123749, Note_off_c, 1, 57, 0
1, 123750, Note_on_c, 1, 55, 127
1, 123779, Note_off_c, 1, 55, 0
1, 123839, Note_off_c, 1, 75, 0
1, 123870, Note_on_c, 1, 78, 127
1, 123899, Note_off_c, 1, 78, 0
1, 123930, Note_on_c, 1, 81, 127
1, 123959, Note_off_c, 1, 81, 0
1, 123960, Note_on_c, 1, 70, 127
1, 123960, Note_on_c, 1, 43, 127
1, 123989, Note_off_c, 1, 43, 0
1, 123990, Note_on_c, 1, 60, 127
1, 123990, Note_on_c, 1, 48, 127
1, 124019, Note_off_c, 1, 60, 0
1, 124019, Note_off_c, 1, 48, 0
1, 124020, Note_on_c, 1, 58, 127
1, 124020, Note_on_c, 1, 50, 127
1, 124049, Note_off_c, 1, 58, 0
1, 124049, Note_off_c, 1, 50, 0
1, 124050, Note_on_c, 1, 57, 127
1, 124079, Note_off_c, 1, 57, 0
1, 124080, Note_on_c, 1, 55, 127
1, 124109, Note_off_c, 1, 55, 0
1, 124110, Note_on_c, 1, 54, 127
1, 124139, Note_off_c, 1, 54, 0
1, 124170, Note_on_c, 1, 46, 127
1, 124199, Note_off_c, 1, 70, 0
1, 124199, Note_off_c, 1, 46, 0
1, 124200, Note_on_c, 1, 79, 127
1, 124259, Note_off_c, 1, 79, 0
1, 124260, Note_on_c, 1, 60, 127
1, 124260, Note_on_c, 1, 77, 127
1, 124260, Note_on_c, 1, 43, 127
1, 124289, Note_off_c, 1, 60, 0
1, 124289, Note_off_c, 1, 77, 0
1, 124289, Note_off_c, 1, 43, 0
1, 124290, Note_on_c, 1, 62, 127
1, 124290, Note_on_c, 1, 75, 127
1, 124290, Note_on_c, 1, 46, 127
1, 124319, Note_off_c, 1, 62, 0
1, 124319, Note_off_c, 1, 75, 0
1, 124319, Note_off_c, 1, 46, 0
1, 124320, Note_on_c, 1, 63, 127
1, 124320, Note_on_c, 1, 74, 127
1, 124320, Note_on_c, 1, 43, 127
1, 124349, Note_off_c, 1, 74, 0
1, 124349, Note_off_c, 1, 43, 0
1, 124350, Note_on_c, 1, 72, 127
1, 124350, Note_on_c, 1, 45, 127
1, 124379, Note_off_c, 1, 63, 0
1, 124379, Note_off_c, 1, 45, 0
1, 124380, Note_on_c, 1, 48, 127
1, 124409, Note_off_c, 1, 48, 0
1, 124500, Note_on_c, 1, 42, 127
1, 124529, Note_off_c, 1, 42, 0
1, 124530, Note_on_c, 1, 62, 127
1, 124560, Note_on_c, 1, 50, 127
1, 124589, Note_off_c, 1, 50, 0
1, 124620, Note_off_c, 1, 72, 0
1, 124620, Note_on_c, 1, 71, 127
1, 124649, Note_off_c, 1, 71, 0
1, 124680, Note_on_c, 1, 41, 127
1, 124709, Note_off_c, 1, 62, 0
1, 124710, Note_on_c, 1, 60, 127
1, 124738, Note_off_c, 1, 41, 0
1, 124739, Note_off_c, 1, 60, 0
1, 124740, Note_on_c, 1, 62, 127
1, 124740, Note_on_c, 1, 79, 127
1, 124740, Note_on_c, 1, 39, 127
1, 124769, Note_off_c, 1, 62, 0
1, 124770, Note_on_c, 1, 59, 127
1, 124798, Note_off_c, 1, 39, 0
1, 124799, Note_off_c, 1, 79, 0
1, 124799, Note_off_c, 1, 59, 0
1, 124800, Note_on_c, 1, 60, 127
1, 124800, Note_on_c, 1, 72, 127
1, 124800, Note_on_c, 1, 44, 127
1, 124858, Note_off_c, 1, 44, 0
1, 124859, Note_off_c, 1, 72, 0
1, 124860, Note_on_c, 1, 77, 127
1, 124860, Note_on_c, 1, 38, 127
1, 124889, Note_off_c, 1, 60, 0
1, 124889, Note_off_c, 1, 77, 0
1, 124890, Note_on_c, 1, 62, 127
1, 124890, Note_on_c, 1, 80, 127
1, 124918, Note_off_c, 1, 38, 0
1, 124919, Note_off_c, 1, 62, 0
1, 124919, Note_off_c, 1, 80, 0
1, 124920, Note_on_c, 1, 59, 127
1, 124920, Note_on_c, 1, 79, 127
1, 124920, Note_on_c, 1, 43, 127
1, 124949, Note_off_c, 1, 79, 0
1, 124950, Note_on_c, 1, 77, 127
1, 124978, Note_off_c, 1, 43, 0
1, 124979, Note_off_c, 1, 77, 0
1, 124980, Note_on_c, 1, 75, 127
1, 124980, Note_on_c, 1, 31, 127
1, 125009, Note_off_c, 1, 59, 0
1, 125009, Note_off_c, 1, 75, 0
1, 125010, Note_on_c, 1, 60, 127
1, 125010, Note_on_c, 1, 74, 127
1, 125038, Note_off_c, 1, 31, 0
1, 125039, Note_off_c, 1, 60, 0
1, 125039, Note_off_c, 1, 74, 0
1, 125040, Note_on_c, 1, 60, 127
1, 125040, Note_on_c, 1, 75, 127
1, 125040, Note_on_c, 1, 36, 127
1, 125069, Note_off_c, 1, 36, 0
1, 125070, Note_on_c, 1, 43, 127
1, 125099, Note_off_c, 1, 60, 0
1, 125099, Note_off_c, 1, 75, 0
1, 125099, Note_off_c, 1, 43, 0
1, 125100, Note_on_c, 1, 55, 127
1, 125100, Note_on_c, 1, 79, 127
1, 125100, Note_on_c, 1, 48, 127
1, 125129, Note_off_c, 1, 48, 0
1, 125130, Note_on_c, 1, 51, 127
1, 125159, Note_off_c, 1, 55, 0
1, 125159, Note_off_c, 1, 79, 0
1, 125159, Note_off_c, 1, 51, 0
1, 125160, Note_on_c, 1, 55, 127
1, 125160, Note_on_c, 1, 72, 127
1, 125160, Note_on_c, 1, 50, 127
1, 125174, Note_off_c, 1, 72, 0
1, 125175, Note_on_c, 1, 71, 127
1, 125189, Note_off_c, 1, 50, 0
1, 125189, Note_off_c, 1, 71, 0
1, 125190, Note_on_c, 1, 69, 127
1, 125190, Note_on_c, 1, 53, 127
1, 125204, Note_off_c, 1, 69, 0
1, 125219, Note_off_c, 1, 55, 0
1, 125219, Note_off_c, 1, 53, 0
1, 125220, Note_on_c, 1, 55, 127
1, 125220, Note_on_c, 1, 72, 127
1, 125220, Note_on_c, 1, 51, 127
1, 125249, Note_off_c, 1, 51, 0
1, 125279, Note_off_c, 1, 55, 0
1, 125280, Note_on_c, 1, 53, 127
1, 125309, Note_off_c, 1, 53, 0
1, 125339, Note_off_c, 1, 72, 0
1, 125340, Note_on_c, 1, 55, 127
1, 125340, Note_on_c, 1, 50, 127
1, 125369, Note_off_c, 1, 50, 0
1, 125370, Note_on_c, 1, 48, 127
1, 125399, Note_off_c, 1, 55, 0
1, 125399, Note_off_c, 1, 48, 0
1, 125400, Note_on_c, 1, 48, 127
1, 125400, Note_on_c, 1, 56, 127
1, 125429, Note_off_c, 1, 56, 0
1, 125430, Note_on_c, 1, 58, 127
1, 125459, Note_off_c, 1, 48, 0
1, 125459, Note_off_c, 1, 58, 0
1, 125460, Note_on_c, 1, 60, 127
1, 125460, Note_on_c, 1, 56, 127
1, 125489, Note_off_c, 1, 56, 0
1, 125490, Note_on_c, 1, 55, 127
1, 125519, Note_off_c, 1, 60, 0
1, 125519, Note_off_c, 1, 55, 0
1, 125520, Note_on_c, 1, 60, 127
1, 125520, Note_on_c, 1, 53, 127
1, 125549, Note_off_c, 1, 53, 0
1, 125550, Note_on_c, 1, 51, 127
1, 125579, Note_off_c, 1, 60, 0
1, 125579, Note_off_c, 1, 51, 0
1, 125580, Note_on_c, 1, 62, 127
1, 125580, Note_on_c, 1, 53, 127
1, 125639, Note_off_c, 1, 62, 0
1, 125639, Note_off_c, 1, 53, 0
1, 125640, Note_on_c, 1, 62, 127
1, 125640, Note_on_c, 1, 50, 127
1, 125669, Note_off_c, 1, 62, 0
1, 125670, Note_on_c, 1, 63, 127
1, 125699, Note_off_c, 1, 50, 0
1, 125699, Note_off_c, 1, 63, 0
1, 125700, Note_on_c, 1, 65, 127
1, 125700, Note_on_c, 1, 55, 127
1, 125729, Note_off_c, 1, 65, 0
1, 125730, Note_on_c, 1, 62, 127
1, 125759, Note_off_c, 1, 55, 0
1, 125759, Note_off_c, 1, 62, 0
1, 125760, Note_on_c, 1, 63, 127
1, 125760, Note_on_c, 1, 48, 127
1, 125789, Note_off_c, 1, 63, 0
1, 125790, Note_on_c, 1, 55, 127
1, 125819, Note_off_c, 1, 48, 0
1, 125819, Note_off_c, 1, 55, 0
1, 125820, Note_on_c, 1, 60, 127
1, 125820, Note_on_c, 1, 72, 127
1, 125820, Note_on_c, 1, 51, 127
1, 125849, Note_off_c, 1, 60, 0
1, 125850, Note_on_c, 1, 63, 127
1, 125879, Note_off_c, 1, 72, 0
1, 125879, Note_off_c, 1, 51, 0
1, 125879, Note_off_c, 1, 63, 0
1, 125880, Note_on_c, 1, 62, 127
1, 125880, Note_on_c, 1, 72, 127
1, 125880, Note_on_c, 1, 55, 127
1, 125909, Note_off_c, 1, 62, 0
1, 125910, Note_on_c, 1, 65, 127
1, 125939, Note_off_c, 1, 72, 0
1, 125939, Note_off_c, 1, 55, 0
1, 125939, Note_off_c, 1, 65, 0
1, 125940, Note_on_c, 1, 63, 127
1, 125940, Note_on_c, 1, 72, 127
1, 125940, Note_on_c, 1, 60, 127
1, 125969, Note_off_c, 1, 63, 0
1, 125970, Note_on_c, 1, 62, 127
1, 125999, Note_off_c, 1, 72, 0
1, 125999, Note_off_c, 1, 60, 0
1, 125999, Note_off_c, 1, 62, 0
1, 126000, Note_on_c, 1, 60, 127
1, 126000, Note_on_c, 1, 72, 127
1, 126000, Note_on_c, 1, 48, 127
1, 126029, Note_off_c, 1, 60, 0
1, 126030, Note_on_c, 1, 63, 127
1, 126059, Note_off_c, 1, 72, 0
1, 126059, Note_off_c, 1, 48, 0
1, 126059, Note_off_c, 1, 63, 0
1, 126060, Note_on_c, 1, 62, 127
1, 126060, Note_on_c, 1, 72, 127
1, 126060, Note_on_c, 1, 50, 127
1, 126089, Note_off_c, 1, 62, 0
1, 126090, Note_on_c, 1, 60, 127
1, 126119, Note_off_c, 1, 72, 0
1, 126119, Note_off_c, 1, 50, 0
1, 126119, Note_off_c, 1, 60, 0
1, 126120, Note_on_c, 1, 58, 127
1, 126120, Note_on_c, 1, 67, 127
1, 126120, Note_on_c, 1, 51, 127
1, 126149, Note_off_c, 1, 58, 0
1, 126150, Note_on_c, 1, 57, 127
1, 126179, Note_off_c, 1, 67, 0
1, 126179, Note_off_c, 1, 51, 0
1, 126179, Note_off_c, 1, 57, 0
1, 126180, Note_on_c, 1, 58, 127
1, 126180, Note_on_c, 1, 79, 127
1, 126180, Note_on_c, 1, 63, 127
1, 126209, Note_off_c, 1, 58, 0
1, 126210, Note_on_c, 1, 55, 127
1, 126239, Note_off_c, 1, 79, 0
1, 126239, Note_off_c, 1, 63, 0
1, 126239, Note_off_c, 1, 55, 0
1, 126240, Note_on_c, 1, 67, 127
1, 126240, Note_on_c, 1, 79, 127
1, 126240, Note_on_c, 1, 62, 127
1, 126299, Note_off_c, 1, 79, 0
1, 126299, Note_off_c, 1, 62, 0
1, 126300, Note_on_c, 1, 81, 127
1, 126300, Note_on_c, 1, 60, 127
1, 126359, Note_off_c, 1, 67, 0
1, 126359, Note_off_c, 1, 81, 0
1, 126359, Note_off_c, 1, 60, 0
1, 126360, Note_on_c, 1, 66, 127
1, 126360, Note_on_c, 1, 81, 127
1, 126360, Note_on_c, 1, 62, 127
1, 126389, Note_off_c, 1, 81, 0
1, 126390, Note_on_c, 1, 82, 127
1, 126419, Note_off_c, 1, 62, 0
1, 126419, Note_off_c, 1, 82, 0
1, 126420, Note_on_c, 1, 84, 127
1, 126420, Note_on_c, 1, 50, 127
1, 126449, Note_off_c, 1, 84, 0
1, 126479, Note_off_c, 1, 66, 0
1, 126479, Note_off_c, 1, 50, 0
1, 126480, Note_on_c, 1, 67, 127
1, 126480, Note_on_c, 1, 82, 127
1, 126480, Note_on_c, 1, 55, 127
1, 126499, Note_off_c, 1, 67, 0
1, 126500, Note_on_c, 1, 65, 127
1, 126509, Note_off_c, 1, 82, 0
1, 126510, Note_on_c, 1, 74, 127
1, 126519, Note_off_c, 1, 65, 0
1, 126520, Note_on_c, 1, 63, 127
1, 126539, Note_off_c, 1, 55, 0
1, 126539, Note_off_c, 1, 74, 0
1, 126539, Note_off_c, 1, 63, 0
1, 126540, Note_on_c, 1, 65, 127
1, 126540, Note_on_c, 1, 79, 127
1, 126540, Note_on_c, 1, 43, 127
1, 126559, Note_off_c, 1, 65, 0
1, 126560, Note_on_c, 1, 63, 127
1, 126569, Note_off_c, 1, 79, 0
1, 126570, Note_on_c, 1, 82, 127
1, 126579, Note_off_c, 1, 63, 0
1, 126580, Note_on_c, 1, 62, 127
1, 126599, Note_off_c, 1, 43, 0
1, 126599, Note_off_c, 1, 82, 0
1, 126599, Note_off_c, 1, 62, 0
1, 126600, Note_on_c, 1, 63, 127
1, 126600, Note_on_c, 1, 81, 127
1, 126600, Note_on_c, 1, 43, 127
1, 126619, Note_off_c, 1, 63, 0
1, 126620, Note_on_c, 1, 62, 127
1, 126629, Note_off_c, 1, 81, 0
1, 126630, Note_on_c, 1, 84, 127
1, 126639, Note_off_c, 1, 62, 0
1, 126640, Note_on_c, 1, 60, 127
1, 126659, Note_off_c, 1, 43, 0
1, 126659, Note_off_c, 1, 84, 0
1, 126659, Note_off_c, 1, 60, 0
1, 126660, Note_on_c, 1, 62, 127
1, 126660, Note_on_c, 1, 82, 127
1, 126660, Note_on_c, 1, 43, 127
1, 126679, Note_off_c, 1, 62, 0
1, 126679, Note_off_c, 1, 82, 0
1, 126680, Note_on_c, 1, 60, 127
1, 126680, Note_on_c, 1, 81, 127
1, 126699, Note_off_c, 1, 60, 0
1, 126699, Note_off_c, 1, 81, 0
1, 126700, Note_on_c, 1, 58, 127
1, 126700, Note_on_c, 1, 79, 127
1, 126719, Note_off_c, 1, 43, 0
1, 126719, Note_off_c, 1, 58, 0
1, 126719, Note_off_c, 1, 79, 0
1, 126720, Note_on_c, 1, 60, 127
1, 126720, Note_on_c, 1, 81, 127
1, 126720, Note_on_c, 1, 43, 127
1, 126739, Note_off_c, 1, 60, 0
1, 126739, Note_off_c, 1, 81, 0
1, 126740, Note_on_c, 1, 58, 127
1, 126740, Note_on_c, 1, 79, 127
1, 126759, Note_off_c, 1, 58, 0
1, 126759, Note_off_c, 1, 79, 0
1, 126760, Note_on_c, 1, 57, 127
1, 126760, Note_on_c, 1, 78, 127
1, 126779, Note_off_c, 1, 43, 0
1, 126779, Note_off_c, 1, 57, 0
1, 126779, Note_off_c, 1, 78, 0
1, 126780, Note_on_c, 1, 58, 127
1, 126780, Note_on_c, 1, 79, 127
1, 126780, Note_on_c, 1, 43, 127
1, 126799, Note_off_c, 1, 58, 0
1, 126799, Note_off_c, 1, 79, 0
1, 126800, Note_on_c, 1, 57, 127
1, 126800, Note_on_c, 1, 78, 127
1, 126819, Note_off_c, 1, 57, 0
1, 126819, Note_off_c, 1, 78, 0
1, 126820, Note_on_c, 1, 55, 127
1, 126820, Note_on_c, 1, 76, 127
1, 126839, Note_off_c, 1, 43, 0
1, 126839, Note_off_c, 1, 55, 0
1, 126839, Note_off_c, 1, 76, 0
1, 126840, Note_on_c, 1, 57, 127
1, 126840, Note_on_c, 1, 78, 127
1, 126840, Note_on_c, 1, 38, 127
1, 126869, Note_off_c, 1, 78, 0
1, 126870, Note_on_c, 1, 76, 127
1, 126899, Note_off_c, 1, 57, 0
1, 126899, Note_off_c, 1, 38, 0
1, 126899, Note_off_c, 1, 76, 0
1, 126900, Note_on_c, 1, 62, 127
1, 126900, Note_on_c, 1, 78, 127
1, 126900, Note_on_c, 1, 50, 127
1, 126929, Note_off_c, 1, 62, 0
1, 126929, Note_off_c, 1, 78, 0
1, 126930, Note_on_c, 1, 60, 127
1, 126930, Note_on_c, 1, 74, 127
1, 126959, Note_off_c, 1, 50, 0
1, 126959, Note_off_c, 1, 60, 0
1, 126959, Note_off_c, 1, 74, 0
1, 126960, Note_on_c, 1, 58, 127
1, 126960, Note_on_c, 1, 86, 127
1, 126960, Note_on_c, 1, 50, 127
1, 126989, Note_off_c, 1, 58, 0
1, 126990, Note_on_c, 1, 57, 127
1, 127019, Note_off_c, 1, 50, 0
1, 127019, Note_off_c, 1, 57, 0
1, 127020, Note_on_c, 1, 55, 127
1, 127020, Note_on_c, 1, 52, 127
1, 127049, Note_off_c, 1, 55, 0
1, 127050, Note_on_c, 1, 54, 127
1, 127079, Note_off_c, 1, 86, 0
1, 127079, Note_off_c, 1, 52, 0
1, 127079, Note_off_c, 1, 54, 0
1, 127080, Note_on_c, 1, 55, 127
1, 127080, Note_on_c, 1, 84, 127
1, 127080, Note_on_c, 1, 52, 127
1, 127109, Note_off_c, 1, 55, 0
1, 127109, Note_off_c, 1, 52, 0
1, 127110, Note_on_c, 1, 57, 127
1, 127110, Note_on_c, 1, 54, 127
1, 127139, Note_off_c, 1, 57, 0
1, 127139, Note_off_c, 1, 54, 0
1, 127140, Note_on_c, 1, 58, 127
1, 127169, Note_off_c, 1, 58, 0
1, 127199, Note_off_c, 1, 84, 0
1, 127200, Note_on_c, 1, 57, 127
1, 127200, Note_on_c, 1, 54, 127
1, 127220, Note_on_c, 1, 82, 127
1, 127229, Note_off_c, 1, 54, 0
1, 127230, Note_on_c, 1, 50, 127
1, 127239, Note_off_c, 1, 82, 0
1, 127240, Note_on_c, 1, 81, 127
1, 127259, Note_off_c, 1, 50, 0
1, 127259, Note_off_c, 1, 81, 0
1, 127260, Note_on_c, 1, 55, 127
1, 127289, Note_off_c, 1, 55, 0
1, 127290, Note_on_c, 1, 58, 127
1, 127300, Note_on_c, 1, 79, 127
1, 127319, Note_off_c, 1, 57, 0
1, 127319, Note_off_c, 1, 58, 0
1, 127319, Note_off_c, 1, 79, 0
1, 127320, Note_on_c, 1, 81, 127
1, 127320, Note_on_c, 1, 57, 127
1, 127339, Note_off_c, 1, 81, 0
1, 127340, Note_on_c, 1, 79, 127
1, 127349, Note_off_c, 1, 57, 0
1, 127350, Note_on_c, 1, 60, 127
1, 127359, Note_off_c, 1, 79, 0
1, 127360, Note_on_c, 1, 78, 127
1, 127379, Note_off_c, 1, 60, 0
1, 127379, Note_off_c, 1, 78, 0
1, 127380, Note_on_c, 1, 79, 127
1, 127380, Note_on_c, 1, 58, 127
1, 127409, Note_off_c, 1, 58, 0
1, 127410, Note_on_c, 1, 57, 127
1, 127439, Note_off_c, 1, 57, 0
1, 127440, Note_on_c, 1, 67, 127
1, 127440, Note_on_c, 1, 55, 127
1, 127469, Note_off_c, 1, 55, 0
1, 127499, Note_off_c, 1, 67, 0
1, 127500, Note_on_c, 1, 59, 127
1, 127500, Note_on_c, 1, 53, 127
1, 127529, Note_off_c, 1, 53, 0
1, 127559, Note_off_c, 1, 59, 0
1, 127560, Note_on_c, 1, 60, 127
1, 127560, Note_on_c, 1, 52, 127
1, 127589, Note_off_c, 1, 52, 0
1, 127619, Note_off_c, 1, 79, 0
1, 127620, Note_on_c, 1, 80, 127
1, 127634, Note_off_c, 1, 80, 0
1, 127635, Note_on_c, 1, 82, 127
1, 127649, Note_off_c, 1, 82, 0
1, 127650, Note_on_c, 1, 84, 127
1, 127650, Note_on_c, 1, 56, 127
1, 127679, Note_off_c, 1, 84, 0
1, 127679, Note_off_c, 1, 56, 0
1, 127680, Note_on_c, 1, 76, 127
1, 127739, Note_off_c, 1, 76, 0
1, 127770, Note_on_c, 1, 77, 127
1, 127799, Note_off_c, 1, 60, 0
1, 127800, Note_on_c, 1, 62, 127
1, 127814, Note_off_c, 1, 62, 0
1, 127815, Note_on_c, 1, 63, 127
1, 127829, Note_off_c, 1, 63, 0
1, 127830, Note_on_c, 1, 65, 127
1, 127859, Note_off_c, 1, 65, 0
1, 127860, Note_on_c, 1, 51, 127
1, 127889, Note_off_c, 1, 51, 0
1, 127920, Note_on_c, 1, 50, 127
1, 127949, Note_off_c, 1, 50, 0
1, 127979, Note_off_c, 1, 77, 0
1, 127995, Note_on_c, 1, 81, 127
1, 128009, Note_off_c, 1, 81, 0
1, 128040, Note_on_c, 1, 74, 127
1, 128099, Note_off_c, 1, 74, 0
1, 128130, Note_on_c, 1, 75, 127
1, 128280, Note_on_c, 1, 48, 127
1, 128309, Note_off_c, 1, 75, 0
1, 128309, Note_off_c, 1, 48, 0
1, 128340, Note_on_c, 1, 72, 127
1, 128369, Note_off_c, 1, 72, 0
1, 128370, Note_on_c, 1, 70, 127
1, 128399, Note_off_c, 1, 70, 0
1, 128400, Note_on_c, 1, 68, 127
1, 128429, Note_off_c, 1, 68, 0
1, 128430, Note_on_c, 1, 46, 127
1, 128459, Note_off_c, 1, 46, 0
1, 128460, Note_on_c, 1, 72, 127
1, 128460, Note_on_c, 1, 44, 127
1, 128490, Note_on_c, 1, 55, 127
1, 128519, Note_off_c, 1, 44, 0
1, 128519, Note_off_c, 1, 55, 0
1, 128520, Note_on_c, 1, 54, 127
1, 128520, Note_on_c, 1, 60, 127
1, 128549, Note_off_c, 1, 54, 0
1, 128549, Note_off_c, 1, 60, 0
1, 128550, Note_on_c, 1, 58, 127
1, 128579, Note_off_c, 1, 58, 0
1, 128580, Note_on_c, 1, 56, 127
1, 128590, Note_on_c, 1, 57, 127
1, 128599, Note_off_c, 1, 57, 0
1, 128609, Note_off_c, 1, 56, 0
1, 128639, Note_off_c, 1, 72, 0
1, 128640, Note_on_c, 1, 57, 127
1, 128640, Note_on_c, 1, 54, 127
1, 128669, Note_off_c, 1, 57, 0
1, 128669, Note_off_c, 1, 54, 0
1, 128670, Note_on_c, 1, 55, 127
1, 128670, Note_on_c, 1, 74, 127
1, 128670, Note_on_c, 1, 58, 127
1, 128699, Note_off_c, 1, 55, 0
1, 128699, Note_off_c, 1, 74, 0
1, 128699, Note_off_c, 1, 58, 0
1, 128700, Note_on_c, 1, 57, 127
1, 128700, Note_on_c, 1, 72, 127
1, 128729, Note_off_c, 1, 57, 0
1, 128729, Note_off_c, 1, 72, 0
1, 128730, Note_on_c, 1, 58, 127
1, 128730, Note_on_c, 1, 70, 127
1, 128730, Note_on_c, 1, 55, 127
1, 128759, Note_off_c, 1, 58, 0
1, 128759, Note_off_c, 1, 70, 0
1, 128759, Note_off_c, 1, 55, 0
1, 128760, Note_on_c, 1, 58, 127
1, 128760, Note_on_c, 1, 69, 127
1, 128760, Note_on_c, 1, 54, 127
1, 128769, Note_off_c, 1, 58, 0
1, 128770, Note_on_c, 1, 60, 127
1, 128779, Note_off_c, 1, 60, 0
1, 128789, Note_off_c, 1, 69, 0
1, 128789, Note_off_c, 1, 54, 0
1, 128790, Note_on_c, 1, 57, 127
1, 128790, Note_on_c, 1, 67, 127
1, 128790, Note_on_c, 1, 52, 127
1, 128804, Note_off_c, 1, 57, 0
1, 128805, Note_on_c, 1, 58, 127
1, 128819, Note_off_c, 1, 67, 0
1, 128819, Note_off_c, 1, 52, 0
1, 128819, Note_off_c, 1, 58, 0
1, 128820, Note_on_c, 1, 60, 127
1, 128820, Note_on_c, 1, 66, 127
1, 128820, Note_on_c, 1, 50, 127
1, 128849, Note_off_c, 1, 60, 0
1, 128849, Note_off_c, 1, 66, 0
1, 128849, Note_off_c, 1, 50, 0
1, 128850, Note_on_c, 1, 58, 127
1, 128850, Note_on_c, 1, 70, 127
1, 128850, Note_on_c, 1, 55, 127
1, 128879, Note_off_c, 1, 58, 0
1, 128879, Note_off_c, 1, 70, 0
1, 128879, Note_off_c, 1, 55, 0
1, 128880, Note_on_c, 1, 60, 127
1, 128880, Note_on_c, 1, 69, 127
1, 128880, Note_on_c, 1, 54, 127
1, 128909, Note_off_c, 1, 60, 0
1, 128909, Note_off_c, 1, 69, 0
1, 128909, Note_off_c, 1, 54, 0
1, 128910, Note_on_c, 1, 57, 127
1, 128910, Note_on_c, 1, 67, 127
1, 128910, Note_on_c, 1, 52, 127
1, 128939, Note_off_c, 1, 57, 0
1, 128939, Note_off_c, 1, 67, 0
1, 128939, Note_off_c, 1, 52, 0
1, 128940, Note_on_c, 1, 58, 127
1, 128940, Note_on_c, 1, 66, 127
1, 128940, Note_on_c, 1, 50, 127
1, 128969, Note_off_c, 1, 58, 0
1, 128969, Note_off_c, 1, 66, 0
1, 128969, Note_off_c, 1, 50, 0
1, 128970, Note_on_c, 1, 60, 127
1, 128970, Note_on_c, 1, 64, 127
1, 128970, Note_on_c, 1, 48, 127
1, 128999, Note_off_c, 1, 60, 0
1, 128999, Note_off_c, 1, 64, 0
1, 128999, Note_off_c, 1, 48, 0
1, 129000, Note_on_c, 1, 62, 127
1, 129000, Note_on_c, 1, 46, 127
1, 129030, Note_on_c, 1, 67, 127
1, 129059, Note_off_c, 1, 62, 0
1, 129059, Note_off_c, 1, 46, 0
1, 129059, Note_off_c, 1, 67, 0
1, 129060, Note_on_c, 1, 60, 127
1, 129060, Note_on_c, 1, 70, 127
1, 129060, Note_on_c, 1, 46, 127
1, 129089, Note_off_c, 1, 60, 0
1, 129089, Note_off_c, 1, 70, 0
1, 129090, Note_on_c, 1, 58, 127
1, 129090, Note_on_c, 1, 67, 127
1, 129119, Note_off_c, 1, 46, 0
1, 129119, Note_off_c, 1, 58, 0
1, 129119, Note_off_c, 1, 67, 0
1, 129120, Note_on_c, 1, 57, 127
1, 129120, Note_on_c, 1, 66, 127
1, 129120, Note_on_c, 1, 46, 127
1, 129149, Note_off_c, 1, 57, 0
1, 129149, Note_off_c, 1, 66, 0
1, 129150, Note_on_c, 1, 55, 127
1, 129150, Note_on_c, 1, 67, 127
1, 129179, Note_off_c, 1, 46, 0
1, 129179, Note_off_c, 1, 55, 0
1, 129179, Note_off_c, 1, 67, 0
1, 129180, Note_on_c, 1, 54, 127
1, 129180, Note_on_c, 1, 63, 127
1, 129180, Note_on_c, 1, 48, 127
1, 129209, Note_off_c, 1, 54, 0
1, 129209, Note_off_c, 1, 63, 0
1, 129210, Note_on_c, 1, 55, 127
1, 129210, Note_on_c, 1, 67, 127
1, 129239, Note_off_c, 1, 48, 0
1, 129239, Note_off_c, 1, 55, 0
1, 129239, Note_off_c, 1, 67, 0
1, 129240, Note_on_c, 1, 63, 127
1, 129240, Note_on_c, 1, 70, 127
1, 129240, Note_on_c, 1, 48, 127
1, 129269, Note_off_c, 1, 70, 0
1, 129270, Note_on_c, 1, 67, 127
1, 129299, Note_off_c, 1, 48, 0
1, 129299, Note_off_c, 1, 67, 0
1, 129300, Note_on_c, 1, 66, 127
1, 129329, Note_off_c, 1, 66, 0
1, 129360, Note_on_c, 1, 62, 127
1, 129360, Note_on_c, 1, 50, 127
1, 129389, Note_off_c, 1, 62, 0
1, 129419, Note_off_c, 1, 63, 0
1, 129419, Note_off_c, 1, 50, 0
1, 129420, Note_on_c, 1, 62, 127
1, 129420, Note_on_c, 1, 70, 127
1, 129420, Note_on_c, 1, 50, 127
1, 129449, Note_off_c, 1, 62, 0
1, 129449, Note_off_c, 1, 70, 0
1, 129450, Note_on_c, 1, 60, 127
1, 129450, Note_on_c, 1, 67, 127
1, 129479, Note_off_c, 1, 50, 0
1, 129479, Note_off_c, 1, 60, 0
1, 129479, Note_off_c, 1, 67, 0
1, 129480, Note_on_c, 1, 58, 127
1, 129480, Note_on_c, 1, 66, 127
1, 129480, Note_on_c, 1, 50, 127
1, 129509, Note_off_c, 1, 58, 0
1, 129509, Note_off_c, 1, 66, 0
1, 129510, Note_on_c, 1, 57, 127
1, 129510, Note_on_c, 1, 67, 127
1, 129539, Note_off_c, 1, 50, 0
1, 129539, Note_off_c, 1, 57, 0
1, 129539, Note_off_c, 1, 67, 0
1, 129540, Note_on_c, 1, 55, 127
1, 129540, Note_on_c, 1, 60, 127
1, 129540, Note_on_c, 1, 51, 127
1, 129569, Note_off_c, 1, 55, 0
1, 129569, Note_off_c, 1, 60, 0
1, 129570, Note_on_c, 1, 54, 127
1, 129570, Note_on_c, 1, 67, 127
1, 129599, Note_off_c, 1, 51, 0
1, 129599, Note_off_c, 1, 54, 0
1, 129599, Note_off_c, 1, 67, 0
1, 129600, Note_on_c, 1, 54, 127
1, 129600, Note_on_c, 1, 70, 127
1, 129600, Note_on_c, 1, 51, 127
1, 129629, Note_off_c, 1, 54, 0
1, 129629, Note_off_c, 1, 70, 0
1, 129630, Note_on_c, 1, 55, 127
1, 129630, Note_on_c, 1, 67, 127
1, 129659, Note_off_c, 1, 51, 0
1, 129659, Note_off_c, 1, 67, 0
1, 129660, Note_on_c, 1, 66, 127
1, 129689, Note_off_c, 1, 66, 0
1, 129720, Note_on_c, 1, 62, 127
1, 129720, Note_on_c, 1, 46, 127
1, 129749, Note_off_c, 1, 55, 0
1, 129749, Note_off_c, 1, 62, 0
1, 129779, Note_off_c, 1, 46, 0
1, 129780, Note_on_c, 1, 60, 127
1, 129780, Note_on_c, 1, 70, 127
1, 129780, Note_on_c, 1, 46, 127
1, 129809, Note_off_c, 1, 60, 0
1, 129809, Note_off_c, 1, 70, 0
1, 129810, Note_on_c, 1, 58, 127
1, 129810, Note_on_c, 1, 67, 127
1, 129839, Note_off_c, 1, 46, 0
1, 129839, Note_off_c, 1, 58, 0
1, 129839, Note_off_c, 1, 67, 0
1, 129840, Note_on_c, 1, 57, 127
1, 129840, Note_on_c, 1, 66, 127
1, 129840, Note_on_c, 1, 46, 127
1, 129869, Note_off_c, 1, 57, 0
1, 129869, Note_off_c, 1, 66, 0
1, 129870, Note_on_c, 1, 55, 127
1, 129870, Note_on_c, 1, 67, 127
1, 129899, Note_off_c, 1, 46, 0
1, 129899, Note_off_c, 1, 55, 0
1, 129899, Note_off_c, 1, 67, 0
1, 129900, Note_on_c, 1, 63, 127
1, 129900, Note_on_c, 1, 48, 127
1, 129929, Note_off_c, 1, 63, 0
1, 129930, Note_on_c, 1, 62, 127
1, 129930, Note_on_c, 1, 67, 127
1, 129959, Note_off_c, 1, 48, 0
1, 129959, Note_off_c, 1, 62, 0
1, 129959, Note_off_c, 1, 67, 0
1, 129960, Note_on_c, 1, 60, 127
1, 129960, Note_on_c, 1, 69, 127
1, 129960, Note_on_c, 1, 48, 127
1, 129989, Note_off_c, 1, 60, 0
1, 129989, Note_off_c, 1, 69, 0
1, 129990, Note_on_c, 1, 58, 127
1, 129990, Note_on_c, 1, 67, 127
1, 130019, Note_off_c, 1, 48, 0
1, 130019, Note_off_c, 1, 58, 0
1, 130019, Note_off_c, 1, 67, 0
1, 130020, Note_on_c, 1, 57, 127
1, 130020, Note_on_c, 1, 66, 127
1, 130020, Note_on_c, 1, 48, 127
1, 130049, Note_off_c, 1, 57, 0
1, 130049, Note_off_c, 1, 66, 0
1, 130050, Note_on_c, 1, 55, 127
1, 130050, Note_on_c, 1, 67, 127
1, 130079, Note_off_c, 1, 48, 0
1, 130079, Note_off_c, 1, 55, 0
1, 130079, Note_off_c, 1, 67, 0
1, 130080, Note_on_c, 1, 58, 127
1, 130080, Note_on_c, 1, 62, 127
1, 130080, Note_on_c, 1, 50, 127
1, 130109, Note_off_c, 1, 62, 0
1, 130110, Note_on_c, 1, 67, 127
1, 130139, Note_off_c, 1, 58, 0
1, 130139, Note_off_c, 1, 50, 0
1, 130139, Note_off_c, 1, 67, 0
1, 130140, Note_on_c, 1, 50, 127
1, 130140, Note_on_c, 1, 57, 127
1, 130140, Note_on_c, 1, 60, 127
1, 130140, Note_on_c, 1, 69, 127
1, 130169, Note_off_c, 1, 69, 0
1, 130170, Note_on_c, 1, 67, 127
1, 130199, Note_off_c, 1, 50, 0
1, 130199, Note_off_c, 1, 57, 0
1, 130199, Note_off_c, 1, 60, 0
1, 130199, Note_off_c, 1, 67, 0
1, 130200, Note_on_c, 1, 57, 127
1, 130200, Note_on_c, 1, 50, 127
1, 130200, Note_on_c, 1, 62, 127
1, 130229, Note_off_c, 1, 62, 0
1, 130230, Note_on_c, 1, 66, 127
1, 130259, Note_off_c, 1, 57, 0
1, 130259, Note_off_c, 1, 50, 0
1, 130259, Note_off_c, 1, 66, 0
1, 130260, Note_on_c, 1, 50, 127
1, 130260, Note_on_c, 1, 55, 127
1, 130260, Note_on_c, 1, 67, 127
1, 130260, Note_on_c, 1, 43, 127
1, 130289, Note_off_c, 1, 67, 0
1, 130290, Note_on_c, 1, 70, 127
1, 130319, Note_off_c, 1, 50, 0
1, 130319, Note_off_c, 1, 55, 0
1, 130319, Note_off_c, 1, 43, 0
1, 130319, Note_off_c, 1, 70, 0
1, 130320, Note_on_c, 1, 50, 127
1, 130320, Note_on_c, 1, 74, 127
1, 130320, Note_on_c, 1, 55, 127
1, 130349, Note_off_c, 1, 74, 0
1, 130350, Note_on_c, 1, 67, 127
1, 130379, Note_off_c, 1, 50, 0
1, 130379, Note_off_c, 1, 55, 0
1, 130379, Note_off_c, 1, 67, 0
1, 130380, Note_on_c, 1, 50, 127
1, 130380, Note_on_c, 1, 70, 127
1, 130380, Note_on_c, 1, 54, 127
1, 130409, Note_off_c, 1, 70, 0
1, 130410, Note_on_c, 1, 74, 127
1, 130439, Note_off_c, 1, 50, 0
1, 130439, Note_off_c, 1, 54, 0
1, 130439, Note_off_c, 1, 74, 0
1, 130440, Note_on_c, 1, 50, 127
1, 130440, Note_on_c, 1, 79, 127
1, 130440, Note_on_c, 1, 55, 127
1, 130469, Note_off_c, 1, 79, 0
1, 130470, Note_on_c, 1, 74, 127
1, 130499, Note_off_c, 1, 50, 0
1, 130499, Note_off_c, 1, 55, 0
1, 130499, Note_off_c, 1, 74, 0
1, 130500, Note_on_c, 1, 55, 127
1, 130500, Note_on_c, 1, 70, 127
1, 130500, Note_on_c, 1, 63, 127
1, 130529, Note_off_c, 1, 70, 0
1, 130530, Note_on_c, 1, 67, 127
1, 130559, Note_off_c, 1, 55, 0
1, 130559, Note_off_c, 1, 63, 0
1, 130559, Note_off_c, 1, 67, 0
1, 130560, Note_on_c, 1, 55, 127
1, 130560, Note_on_c, 1, 79, 127
1, 130560, Note_on_c, 1, 62, 127
1, 130619, Note_off_c, 1, 55, 0
1, 130619, Note_off_c, 1, 62, 0
1, 130620, Note_on_c, 1, 57, 127
1, 130620, Note_on_c, 1, 60, 127
1, 130679, Note_off_c, 1, 79, 0
1, 130679, Note_off_c, 1, 57, 0
1, 130679, Note_off_c, 1, 60, 0
1, 130680, Note_on_c, 1, 57, 127
1, 130680, Note_on_c, 1, 78, 127
1, 130699, Note_off_c, 1, 78, 0
1, 130700, Note_on_c, 1, 79, 127
1, 130710, Note_on_c, 1, 58, 127
1, 130719, Note_off_c, 1, 79, 0
1, 130739, Note_off_c, 1, 57, 0
1, 130739, Note_off_c, 1, 58, 0
1, 130740, Note_on_c, 1, 60, 127
1, 130740, Note_on_c, 1, 79, 127
1, 130740, Note_on_c, 1, 62, 127
1, 130754, Note_off_c, 1, 79, 0
1, 130755, Note_on_c, 1, 78, 127
1, 130769, Note_off_c, 1, 60, 0
1, 130769, Note_off_c, 1, 78, 0
1, 130770, Note_on_c, 1, 57, 127
1, 130799, Note_off_c, 1, 62, 0
1, 130799, Note_off_c, 1, 57, 0
1, 130800, Note_on_c, 1, 58, 127
1, 130800, Note_on_c, 1, 79, 127
1, 130800, Note_on_c, 1, 55, 127
1, 130829, Note_off_c, 1, 55, 0
1, 130830, Note_on_c, 1, 50, 127
1, 130859, Note_off_c, 1, 58, 0
1, 130859, Note_off_c, 1, 50, 0
1, 130860, Note_on_c, 1, 62, 127
1, 130919, Note_off_c, 1, 79, 0
1, 130919, Note_off_c, 1, 62, 0
1, 130920, Note_on_c, 1, 62, 127
1, 130920, Note_on_c, 1, 57, 127
1, 130949, Note_off_c, 1, 57, 0
1, 130950, Note_on_c, 1, 60, 127
1, 130979, Note_off_c, 1, 62, 0
1, 130979, Note_off_c, 1, 60, 0
1, 130980, Note_on_c, 1, 62, 127
1, 130980, Note_on_c, 1, 58, 127
1, 131009, Note_off_c, 1, 58, 0
1, 131010, Note_on_c, 1, 57, 127
1, 131039, Note_off_c, 1, 62, 0
1, 131039, Note_off_c, 1, 57, 0
1, 131040, Note_on_c, 1, 62, 127
1, 131040, Note_on_c, 1, 82, 127
1, 131040, Note_on_c, 1, 55, 127
1, 131069, Note_off_c, 1, 55, 0
1, 131070, Note_on_c, 1, 57, 127
1, 131099, Note_off_c, 1, 62, 0
1, 131099, Note_off_c, 1, 82, 0
1, 131099, Note_off_c, 1, 57, 0
1, 131100, Note_on_c, 1, 62, 127
1, 131100, Note_on_c, 1, 82, 127
1, 131100, Note_on_c, 1, 53, 127
1, 131129, Note_off_c, 1, 53, 0
1, 131130, Note_on_c, 1, 55, 127
1, 131159, Note_off_c, 1, 62, 0
1, 131159, Note_off_c, 1, 82, 0
1, 131159, Note_off_c, 1, 55, 0
1, 131160, Note_on_c, 1, 60, 127
1, 131160, Note_on_c, 1, 82, 127
1, 131160, Note_on_c, 1, 52, 127
1, 131189, Note_off_c, 1, 52, 0
1, 131190, Note_on_c, 1, 48, 127
1, 131219, Note_off_c, 1, 60, 0
1, 131219, Note_off_c, 1, 82, 0
1, 131219, Note_off_c, 1, 48, 0
1, 131220, Note_on_c, 1, 60, 127
1, 131220, Note_on_c, 1, 81, 127
1, 131220, Note_on_c, 1, 53, 127
1, 131249, Note_off_c, 1, 53, 0
1, 131250, Note_on_c, 1, 57, 127
1, 131279, Note_off_c, 1, 60, 0
1, 131279, Note_off_c, 1, 81, 0
1, 131279, Note_off_c, 1, 57, 0
1, 131280, Note_on_c, 1, 60, 127
1, 131280, Note_on_c, 1, 81, 127
1, 131280, Note_on_c, 1, 55, 127
1, 131309, Note_off_c, 1, 55, 0
1, 131310, Note_on_c, 1, 58, 127
1, 131339, Note_off_c, 1, 60, 0
1, 131339, Note_off_c, 1, 81, 0
1, 131339, Note_off_c, 1, 58, 0
1, 131340, Note_on_c, 1, 60, 127
1, 131340, Note_on_c, 1, 81, 127
1, 131340, Note_on_c, 1, 57, 127
1, 131369, Note_off_c, 1, 57, 0
1, 131370, Note_on_c, 1, 55, 127
1, 131399, Note_off_c, 1, 60, 0
1, 131399, Note_off_c, 1, 81, 0
1, 131399, Note_off_c, 1, 55, 0
1, 131400, Note_on_c, 1, 60, 127
1, 131400, Note_on_c, 1, 81, 127
1, 131400, Note_on_c, 1, 53, 127
1, 131429, Note_off_c, 1, 53, 0
1, 131430, Note_on_c, 1, 55, 127
1, 131459, Note_off_c, 1, 60, 0
1, 131459, Note_off_c, 1, 81, 0
1, 131459, Note_off_c, 1, 55, 0
1, 131460, Note_on_c, 1, 60, 127
1, 131460, Note_on_c, 1, 81, 127
1, 131460, Note_on_c, 1, 51, 127
1, 131489, Note_off_c, 1, 51, 0
1, 131490, Note_on_c, 1, 53, 127
1, 131519, Note_off_c, 1, 60, 0
1, 131519, Note_off_c, 1, 81, 0
1, 131519, Note_off_c, 1, 53, 0
1, 131520, Note_on_c, 1, 58, 127
1, 131520, Note_on_c, 1, 81, 127
1, 131520, Note_on_c, 1, 50, 127
1, 131549, Note_off_c, 1, 50, 0
1, 131550, Note_on_c, 1, 46, 127
1, 131579, Note_off_c, 1, 58, 0
1, 131579, Note_off_c, 1, 81, 0
1, 131579, Note_off_c, 1, 46, 0
1, 131580, Note_on_c, 1, 58, 127
1, 131580, Note_on_c, 1, 79, 127
1, 131580, Note_on_c, 1, 51, 127
1, 131609, Note_off_c, 1, 51, 0
1, 131610, Note_on_c, 1, 55, 127
1, 131639, Note_off_c, 1, 58, 0
1, 131639, Note_off_c, 1, 79, 0
1, 131639, Note_off_c, 1, 55, 0
1, 131640, Note_on_c, 1, 58, 127
1, 131640, Note_on_c, 1, 79, 127
1, 131640, Note_on_c, 1, 53, 127
1, 131669, Note_off_c, 1, 53, 0
1, 131670, Note_on_c, 1, 56, 127
1, 131699, Note_off_c, 1, 58, 0
1, 131699, Note_off_c, 1, 79, 0
1, 131699, Note_off_c, 1, 56, 0
1, 131700, Note_on_c, 1, 58, 127
1, 131700, Note_on_c, 1, 79, 127
1, 131700, Note_on_c, 1, 55, 127
1, 131729, Note_off_c, 1, 55, 0
1, 131730, Note_on_c, 1, 53, 127
1, 131759, Note_off_c, 1, 58, 0
1, 131759, Note_off_c, 1, 79, 0
1, 131759, Note_off_c, 1, 53, 0
1, 131760, Note_on_c, 1, 58, 127
1, 131760, Note_on_c, 1, 79, 127
1, 131760, Note_on_c, 1, 51, 127
1, 131789, Note_off_c, 1, 51, 0
1, 131790, Note_on_c, 1, 53, 127
1, 131819, Note_off_c, 1, 58, 0
1, 131819, Note_off_c, 1, 79, 0
1, 131819, Note_off_c, 1, 53, 0
1, 131820, Note_on_c, 1, 58, 127
1, 131820, Note_on_c, 1, 79, 127
1, 131820, Note_on_c, 1, 50, 127
1, 131849, Note_off_c, 1, 50, 0
1, 131850, Note_on_c, 1, 51, 127
1, 131879, Note_off_c, 1, 58, 0
1, 131879, Note_off_c, 1, 79, 0
1, 131879, Note_off_c, 1, 51, 0
1, 131880, Note_on_c, 1, 57, 127
1, 131880, Note_on_c, 1, 79, 127
1, 131880, Note_on_c, 1, 48, 127
1, 131909, Note_off_c, 1, 57, 0
1, 131909, Note_off_c, 1, 79, 0
1, 131909, Note_off_c, 1, 48, 0
1, 131910, Note_on_c, 1, 58, 127
1, 131910, Note_on_c, 1, 78, 127
1, 131910, Note_on_c, 1, 50, 127
1, 131939, Note_off_c, 1, 58, 0
1, 131939, Note_off_c, 1, 50, 0
1, 131940, Note_on_c, 1, 60, 127
1, 131940, Note_on_c, 1, 51, 127
1, 131954, Note_off_c, 1, 60, 0
1, 131969, Note_off_c, 1, 51, 0
1, 132000, Note_on_c, 1, 48, 127
1, 132029, Note_off_c, 1, 48, 0
1, 132030, Note_on_c, 1, 57, 127
1, 132030, Note_on_c, 1, 46, 127
1, 132044, Note_off_c, 1, 57, 0
1, 132059, Note_off_c, 1, 46, 0
1, 132060, Note_on_c, 1, 45, 127
1, 132089, Note_off_c, 1, 78, 0
1, 132089, Note_off_c, 1, 45, 0
1, 132090, Note_on_c, 1, 79, 127
1, 132119, Note_off_c, 1, 79, 0
1, 132120, Note_on_c, 1, 81, 127
1, 132134, Note_off_c, 1, 81, 0
1, 132210, Note_on_c, 1, 43, 127
1, 132239, Note_off_c, 1, 43, 0
1, 132240, Note_on_c, 1, 81, 127
1, 132240, Note_on_c, 1, 42, 127
1, 132270, Note_on_c, 1, 63, 127
1, 132299, Note_off_c, 1, 81, 0
1, 132299, Note_off_c, 1, 42, 0
1, 132299, Note_off_c, 1, 63, 0
1, 132300, Note_on_c, 1, 62, 127
1, 132300, Note_on_c, 1, 74, 127
1, 132329, Note_off_c, 1, 62, 0
1, 132330, Note_on_c, 1, 60, 127
1, 132330, Note_on_c, 1, 42, 127
1, 132359, Note_off_c, 1, 74, 0
1, 132359, Note_off_c, 1, 60, 0
1, 132359, Note_off_c, 1, 42, 0
1, 132360, Note_on_c, 1, 58, 127
1, 132360, Note_on_c, 1, 79, 127
1, 132360, Note_on_c, 1, 43, 127
1, 132389, Note_off_c, 1, 58, 0
1, 132389, Note_off_c, 1, 43, 0
1, 132390, Note_on_c, 1, 60, 127
1, 132390, Note_on_c, 1, 45, 127
1, 132419, Note_off_c, 1, 60, 0
1, 132419, Note_off_c, 1, 45, 0
1, 132420, Note_on_c, 1, 62, 127
1, 132420, Note_on_c, 1, 46, 127
1, 132449, Note_off_c, 1, 62, 0
1, 132449, Note_off_c, 1, 46, 0
1, 132450, Note_on_c, 1, 64, 127
1, 132479, Note_off_c, 1, 79, 0
1, 132479, Note_off_c, 1, 64, 0
1, 132480, Note_on_c, 1, 65, 127
1, 132480, Note_on_c, 1, 72, 127
1, 132480, Note_on_c, 1, 46, 127
1, 132494, Note_off_c, 1, 65, 0
1, 132495, Note_on_c, 1, 64, 127
1, 132509, Note_off_c, 1, 46, 0
1, 132509, Note_off_c, 1, 64, 0
1, 132510, Note_on_c, 1, 50, 127
1, 132539, Note_off_c, 1, 72, 0
1, 132539, Note_off_c, 1, 50, 0
1, 132540, Note_on_c, 1, 65, 127
1, 132540, Note_on_c, 1, 82, 127
1, 132540, Note_on_c, 1, 48, 127
1, 132554, Note_off_c, 1, 65, 0
1, 132555, Note_on_c, 1, 64, 127
1, 132569, Note_off_c, 1, 48, 0
1, 132569, Note_off_c, 1, 64, 0
1, 132570, Note_on_c, 1, 62, 127
1, 132570, Note_on_c, 1, 52, 127
1, 132584, Note_off_c, 1, 62, 0
1, 132599, Note_off_c, 1, 52, 0
1, 132600, Note_on_c, 1, 50, 127
1, 132629, Note_off_c, 1, 82, 0
1, 132629, Note_off_c, 1, 50, 0
1, 132630, Note_on_c, 1, 49, 127
1, 132659, Note_off_c, 1, 49, 0
1, 132660, Note_on_c, 1, 81, 127
1, 132689, Note_off_c, 1, 81, 0
1, 132690, Note_on_c, 1, 79, 127
1, 132719, Note_off_c, 1, 79, 0
1, 132720, Note_on_c, 1, 77, 127
1, 132749, Note_off_c, 1, 77, 0
1, 132780, Note_on_c, 1, 53, 127
1, 132809, Note_off_c, 1, 53, 0
1, 132810, Note_on_c, 1, 83, 127
1, 132839, Note_off_c, 1, 83, 0
1, 132860, Note_on_c, 1, 84, 127
1, 132870, Note_on_c, 1, 56, 127
1, 132879, Note_off_c, 1, 84, 0
1, 132899, Note_off_c, 1, 56, 0
1, 132900, Note_on_c, 1, 55, 127
1, 132929, Note_off_c, 1, 55, 0
1, 132960, Note_on_c, 1, 84, 127
1, 132960, Note_on_c, 1, 56, 127
1, 132990, Note_on_c, 1, 62, 127
1, 133019, Note_off_c, 1, 56, 0
1, 133019, Note_off_c, 1, 62, 0
1, 133020, Note_on_c, 1, 63, 127
1, 133020, Note_on_c, 1, 55, 127
1, 133049, Note_off_c, 1, 63, 0
1, 133050, Note_on_c, 1, 60, 127
1, 133079, Note_off_c, 1, 84, 0
1, 133079, Note_off_c, 1, 55, 0
1, 133079, Note_off_c, 1, 60, 0
1, 133080, Note_on_c, 1, 62, 127
1, 133080, Note_on_c, 1, 54, 127
1, 133110, Note_on_c, 1, 81, 127
1, 133139, Note_off_c, 1, 54, 0
1, 133139, Note_off_c, 1, 81, 0
1, 133140, Note_on_c, 1, 82, 127
1, 133140, Note_on_c, 1, 55, 127
1, 133169, Note_off_c, 1, 82, 0
1, 133170, Note_on_c, 1, 79, 127
1, 133199, Note_off_c, 1, 62, 0
1, 133199, Note_off_c, 1, 55, 0
1, 133199, Note_off_c, 1, 79, 0
1, 133200, Note_on_c, 1, 80, 127
1, 133200, Note_on_c, 1, 53, 127
1, 133229, Note_off_c, 1, 53, 0
1, 133230, Note_on_c, 1, 59, 127
1, 133230, Note_on_c, 1, 50, 127
1, 133259, Note_off_c, 1, 59, 0
1, 133259, Note_off_c, 1, 50, 0
1, 133260, Note_on_c, 1, 60, 127
1, 133260, Note_on_c, 1, 51, 127
1, 133289, Note_off_c, 1, 80, 0
1, 133289, Note_off_c, 1, 51, 0
1, 133290, Note_on_c, 1, 78, 127
1, 133319, Note_off_c, 1, 78, 0
1, 133320, Note_on_c, 1, 79, 127
1, 133349, Note_off_c, 1, 60, 0
1, 133350, Note_on_c, 1, 57, 127
1, 133379, Note_off_c, 1, 57, 0
1, 133380, Note_on_c, 1, 58, 127
1, 133409, Note_off_c, 1, 58, 0
1, 133410, Note_on_c, 1, 55, 127
1, 133439, Note_off_c, 1, 79, 0
1, 133439, Note_off_c, 1, 55, 0
1, 133440, Note_on_c, 1, 57, 127
1, 133440, Note_on_c, 1, 49, 127
1, 133470, Note_on_c, 1, 76, 127
1, 133499, Note_off_c, 1, 49, 0
1, 133499, Note_off_c, 1, 76, 0
1, 133500, Note_on_c, 1, 77, 127
1, 133500, Note_on_c, 1, 50, 127
1, 133529, Note_off_c, 1, 77, 0
1, 133530, Note_on_c, 1, 74, 127
1, 133559, Note_off_c, 1, 57, 0
1, 133559, Note_off_c, 1, 50, 0
1, 133559, Note_off_c, 1, 74, 0
1, 133560, Note_on_c, 1, 75, 127
1, 133560, Note_on_c, 1, 48, 127
1, 133589, Note_off_c, 1, 48, 0
1, 133590, Note_on_c, 1, 54, 127
1, 133590, Note_on_c, 1, 45, 127
1, 133619, Note_off_c, 1, 54, 0
1, 133619, Note_off_c, 1, 45, 0
1, 133620, Note_on_c, 1, 55, 127
1, 133620, Note_on_c, 1, 46, 127
1, 133649, Note_off_c, 1, 75, 0
1, 133649, Note_off_c, 1, 46, 0
1, 133650, Note_on_c, 1, 73, 127
1, 133679, Note_off_c, 1, 73, 0
1, 133680, Note_on_c, 1, 74, 127
1, 133709, Note_off_c, 1, 55, 0
1, 133739, Note_off_c, 1, 74, 0
1, 133740, Note_on_c, 1, 55, 127
1, 133740, Note_on_c, 1, 72, 127
1, 133740, Note_on_c, 1, 51, 127
1, 133769, Note_off_c, 1, 72, 0
1, 133770, Note_on_c, 1, 70, 127
1, 133799, Note_off_c, 1, 55, 0
1, 133799, Note_off_c, 1, 51, 0
1, 133799, Note_off_c, 1, 70, 0
1, 133800, Note_on_c, 1, 60, 127
1, 133800, Note_on_c, 1, 69, 127
1, 133800, Note_on_c, 1, 39, 127
1, 133829, Note_off_c, 1, 69, 0
1, 133830, Note_on_c, 1, 67, 127
1, 133859, Note_off_c, 1, 39, 0
1, 133859, Note_off_c, 1, 67, 0
1, 133860, Note_on_c, 1, 66, 127
1, 133860, Note_on_c, 1, 38, 127
1, 133889, Note_off_c, 1, 60, 0
1, 133890, Note_on_c, 1, 58, 127
1, 133919, Note_off_c, 1, 66, 0
1, 133919, Note_off_c, 1, 38, 0
1, 133919, Note_off_c, 1, 58, 0
1, 133920, Note_on_c, 1, 57, 127
1, 133920, Note_on_c, 1, 74, 127
1, 133920, Note_on_c, 1, 50, 127
1, 133949, Note_off_c, 1, 57, 0
1, 133950, Note_on_c, 1, 55, 127
1, 133979, Note_off_c, 1, 50, 0
1, 133979, Note_off_c, 1, 55, 0
1, 133980, Note_on_c, 1, 54, 127
1, 133980, Note_on_c, 1, 48, 127
1, 134009, Note_off_c, 1, 54, 0
1, 134010, Note_on_c, 1, 52, 127
1, 134039, Note_off_c, 1, 48, 0
1, 134039, Note_off_c, 1, 52, 0
1, 134040, Note_on_c, 1, 46, 127
1, 134099, Note_off_c, 1, 74, 0
1, 134099, Note_off_c, 1, 46, 0
1, 134100, Note_on_c, 1, 58, 127
1, 134100, Note_on_c, 1, 72, 127
1, 134100, Note_on_c, 1, 46, 127
1, 134129, Note_off_c, 1, 58, 0
1, 134129, Note_off_c, 1, 72, 0
1, 134130, Note_on_c, 1, 55, 127
1, 134130, Note_on_c, 1, 70, 127
1, 134159, Note_off_c, 1, 46, 0
1, 134159, Note_off_c, 1, 55, 0
1, 134159, Note_off_c, 1, 70, 0
1, 134160, Note_on_c, 1, 54, 127
1, 134160, Note_on_c, 1, 69, 127
1, 134160, Note_on_c, 1, 46, 127
1, 134189, Note_off_c, 1, 54, 0
1, 134189, Note_off_c, 1, 69, 0
1, 134190, Note_on_c, 1, 55, 127
1, 134190, Note_on_c, 1, 67, 127
1, 134219, Note_off_c, 1, 46, 0
1, 134219, Note_off_c, 1, 55, 0
1, 134219, Note_off_c, 1, 67, 0
1, 134220, Note_on_c, 1, 51, 127
1, 134220, Note_on_c, 1, 66, 127
1, 134220, Note_on_c, 1, 48, 127
1, 134249, Note_off_c, 1, 51, 0
1, 134249, Note_off_c, 1, 66, 0
1, 134250, Note_on_c, 1, 55, 127
1, 134250, Note_on_c, 1, 67, 127
1, 134279, Note_off_c, 1, 48, 0
1, 134279, Note_off_c, 1, 55, 0
1, 134279, Note_off_c, 1, 67, 0
1, 134280, Note_on_c, 1, 58, 127
1, 134280, Note_on_c, 1, 75, 127
1, 134280, Note_on_c, 1, 48, 127
1, 134309, Note_off_c, 1, 58, 0
1, 134310, Note_on_c, 1, 55, 127
1, 134339, Note_off_c, 1, 48, 0
1, 134339, Note_off_c, 1, 55, 0
1, 134340, Note_on_c, 1, 54, 127
1, 134369, Note_off_c, 1, 54, 0
1, 134400, Note_on_c, 1, 50, 127
1, 134459, Note_off_c, 1, 75, 0
1, 134459, Note_off_c, 1, 50, 0
1, 134460, Note_on_c, 1, 58, 127
1, 134460, Note_on_c, 1, 74, 127
1, 134460, Note_on_c, 1, 50, 127
1, 134489, Note_off_c, 1, 58, 0
1, 134489, Note_off_c, 1, 74, 0
1, 134490, Note_on_c, 1, 55, 127
1, 134490, Note_on_c, 1, 72, 127
1, 134519, Note_off_c, 1, 50, 0
1, 134519, Note_off_c, 1, 55, 0
1, 134519, Note_off_c, 1, 72, 0
1, 134520, Note_on_c, 1, 54, 127
1, 134520, Note_on_c, 1, 70, 127
1, 134520, Note_on_c, 1, 50, 127
1, 134549, Note_off_c, 1, 54, 0
1, 134549, Note_off_c, 1, 70, 0
1, 134550, Note_on_c, 1, 55, 127
1, 134550, Note_on_c, 1, 69, 127
1, 134579, Note_off_c, 1, 50, 0
1, 134579, Note_off_c, 1, 55, 0
1, 134579, Note_off_c, 1, 69, 0
1, 134580, Note_on_c, 1, 48, 127
1, 134580, Note_on_c, 1, 67, 127
1, 134580, Note_on_c, 1, 51, 127
1, 134609, Note_off_c, 1, 48, 0
1, 134609, Note_off_c, 1, 67, 0
1, 134610, Note_on_c, 1, 55, 127
1, 134610, Note_on_c, 1, 66, 127
1, 134639, Note_off_c, 1, 51, 0
1, 134639, Note_off_c, 1, 55, 0
1, 134639, Note_off_c, 1, 66, 0
1, 134640, Note_on_c, 1, 58, 127
1, 134640, Note_on_c, 1, 67, 127
1, 134640, Note_on_c, 1, 51, 127
1, 134669, Note_off_c, 1, 58, 0
1, 134670, Note_on_c, 1, 55, 127
1, 134699, Note_off_c, 1, 51, 0
1, 134699, Note_off_c, 1, 55, 0
1, 134700, Note_on_c, 1, 54, 127
1, 134729, Note_off_c, 1, 54, 0
1, 134759, Note_off_c, 1, 67, 0
1, 134760, Note_on_c, 1, 50, 127
1, 134760, Note_on_c, 1, 46, 127
1, 134789, Note_off_c, 1, 50, 0
1, 134790, Note_on_c, 1, 55, 127
1, 134790, Note_on_c, 1, 74, 127
1, 134819, Note_off_c, 1, 46, 0
1, 134819, Note_off_c, 1, 55, 0
1, 134819, Note_off_c, 1, 74, 0
1, 134820, Note_on_c, 1, 58, 127
1, 134820, Note_on_c, 1, 72, 127
1, 134820, Note_on_c, 1, 46, 127
1, 134849, Note_off_c, 1, 58, 0
1, 134849, Note_off_c, 1, 72, 0
1, 134850, Note_on_c, 1, 55, 127
1, 134850, Note_on_c, 1, 70, 127
1, 134879, Note_off_c, 1, 46, 0
1, 134879, Note_off_c, 1, 55, 0
1, 134879, Note_off_c, 1, 70, 0
1, 134880, Note_on_c, 1, 54, 127
1, 134880, Note_on_c, 1, 69, 127
1, 134880, Note_on_c, 1, 46, 127
1, 134909, Note_off_c, 1, 54, 0
1, 134909, Note_off_c, 1, 69, 0
1, 134910, Note_on_c, 1, 55, 127
1, 134910, Note_on_c, 1, 67, 127
1, 134939, Note_off_c, 1, 46, 0
1, 134939, Note_off_c, 1, 55, 0
1, 134939, Note_off_c, 1, 67, 0
1, 134940, Note_on_c, 1, 51, 127
1, 134940, Note_on_c, 1, 75, 127
1, 134940, Note_on_c, 1, 48, 127
1, 134969, Note_off_c, 1, 51, 0
1, 134969, Note_off_c, 1, 75, 0
1, 134970, Note_on_c, 1, 55, 127
1, 134970, Note_on_c, 1, 74, 127
1, 134999, Note_off_c, 1, 48, 0
1, 134999, Note_off_c, 1, 55, 0
1, 134999, Note_off_c, 1, 74, 0
1, 135000, Note_on_c, 1, 57, 127
1, 135000, Note_on_c, 1, 72, 127
1, 135000, Note_on_c, 1, 48, 127
1, 135029, Note_off_c, 1, 57, 0
1, 135029, Note_off_c, 1, 72, 0
1, 135030, Note_on_c, 1, 55, 127
1, 135030, Note_on_c, 1, 70, 127
1, 135059, Note_off_c, 1, 48, 0
1, 135059, Note_off_c, 1, 55, 0
1, 135059, Note_off_c, 1, 70, 0
1, 135060, Note_on_c, 1, 54, 127
1, 135060, Note_on_c, 1, 69, 127
1, 135060, Note_on_c, 1, 48, 127
1, 135089, Note_off_c, 1, 54, 0
1, 135089, Note_off_c, 1, 69, 0
1, 135090, Note_on_c, 1, 55, 127
1, 135090, Note_on_c, 1, 67, 127
1, 135119, Note_off_c, 1, 48, 0
1, 135119, Note_off_c, 1, 55, 0
1, 135119, Note_off_c, 1, 67, 0
1, 135120, Note_on_c, 1, 50, 127
1, 135120, Note_on_c, 1, 70, 127
1, 135150, Note_on_c, 1, 55, 127
1, 135179, Note_off_c, 1, 50, 0
1, 135179, Note_off_c, 1, 70, 0
1, 135179, Note_off_c, 1, 55, 0
1, 135180, Note_on_c, 1, 57, 127
1, 135180, Note_on_c, 1, 72, 127
1, 135180, Note_on_c, 1, 48, 127
1, 135209, Note_off_c, 1, 57, 0
1, 135210, Note_on_c, 1, 55, 127
1, 135239, Note_off_c, 1, 72, 0
1, 135239, Note_off_c, 1, 48, 0
1, 135239, Note_off_c, 1, 55, 0
1, 135240, Note_on_c, 1, 54, 127
1, 135240, Note_on_c, 1, 69, 127
1, 135240, Note_on_c, 1, 50, 127
1, 135254, Note_off_c, 1, 69, 0
1, 135255, Note_on_c, 1, 70, 127
1, 135269, Note_off_c, 1, 54, 0
1, 135269, Note_off_c, 1, 70, 0
1, 135270, Note_on_c, 1, 55, 127
1, 135270, Note_on_c, 1, 72, 127
1, 135284, Note_off_c, 1, 72, 0
1, 135299, Note_off_c, 1, 50, 0
1, 135299, Note_off_c, 1, 55, 0
1, 135300, Note_on_c, 1, 55, 127
1, 135300, Note_on_c, 1, 69, 127
1, 135300, Note_on_c, 1, 39, 127
1, 135329, Note_off_c, 1, 69, 0
1, 135330, Note_on_c, 1, 79, 127
1, 135359, Note_off_c, 1, 79, 0
1, 135360, Note_on_c, 1, 82, 127
1, 135389, Note_off_c, 1, 82, 0
1, 135419, Note_off_c, 1, 39, 0
1, 135420, Note_on_c, 1, 78, 127
1, 135449, Note_off_c, 1, 78, 0
1, 135479, Note_off_c, 1, 55, 0
1, 135480, Note_on_c, 1, 73, 127
1, 135480, Note_on_c, 1, 40, 127
1, 135510, Note_on_c, 1, 67, 127
1, 135539, Note_off_c, 1, 67, 0
1, 135540, Note_on_c, 1, 70, 127
1, 135569, Note_off_c, 1, 70, 0
1, 135599, Note_off_c, 1, 73, 0
1, 135599, Note_off_c, 1, 40, 0
1, 135600, Note_on_c, 1, 66, 127
1, 135600, Note_on_c, 1, 72, 127
1, 135629, Note_off_c, 1, 66, 0
1, 135630, Note_on_c, 1, 67, 127
1, 135659, Note_off_c, 1, 67, 0
1, 135660, Note_on_c, 1, 62, 127
1, 135660, Note_on_c, 1, 42, 127
1, 135689, Note_off_c, 1, 72, 0
1, 135690, Note_on_c, 1, 75, 127
1, 135719, Note_off_c, 1, 42, 0
1, 135719, Note_off_c, 1, 75, 0
1, 135720, Note_on_c, 1, 74, 127
1, 135720, Note_on_c, 1, 54, 127
1, 135749, Note_off_c, 1, 62, 0
1, 135749, Note_off_c, 1, 74, 0
1, 135750, Note_on_c, 1, 63, 127
1, 135779, Note_off_c, 1, 54, 0
1, 135779, Note_off_c, 1, 63, 0
1, 135780, Note_on_c, 1, 62, 127
1, 135780, Note_on_c, 1, 70, 127
1, 135780, Note_on_c, 1, 50, 127
1, 135809, Note_off_c, 1, 62, 0
1, 135809, Note_off_c, 1, 70, 0
1, 135810, Note_on_c, 1, 60, 127
1, 135810, Note_on_c, 1, 69, 127
1, 135839, Note_off_c, 1, 50, 0
1, 135839, Note_off_c, 1, 60, 0
1, 135839, Note_off_c, 1, 69, 0
1, 135840, Note_on_c, 1, 58, 127
1, 135840, Note_on_c, 1, 67, 127
1, 135840, Note_on_c, 1, 55, 127
1, 135869, Note_off_c, 1, 58, 0
1, 135870, Note_on_c, 1, 57, 127
1, 135899, Note_off_c, 1, 67, 0
1, 135899, Note_off_c, 1, 55, 0
1, 135899, Note_off_c, 1, 57, 0
1, 135900, Note_on_c, 1, 60, 127
1, 135900, Note_on_c, 1, 69, 127
1, 135900, Note_on_c, 1, 48, 127
1, 135929, Note_off_c, 1, 60, 0
1, 135930, Note_on_c, 1, 58, 127
1, 135959, Note_off_c, 1, 69, 0
1, 135959, Note_off_c, 1, 48, 0
1, 135959, Note_off_c, 1, 58, 0
1, 135960, Note_on_c, 1, 57, 127
1, 135960, Note_on_c, 1, 67, 127
1, 135960, Note_on_c, 1, 50, 127
1, 135974, Note_off_c, 1, 67, 0
1, 135975, Note_on_c, 1, 66, 127
1, 135989, Note_off_c, 1, 57, 0
1, 135989, Note_off_c, 1, 66, 0
1, 135990, Note_on_c, 1, 58, 127
1, 135990, Note_on_c, 1, 64, 127
1, 136004, Note_off_c, 1, 64, 0
1, 136019, Note_off_c, 1, 50, 0
1, 136019, Note_off_c, 1, 58, 0
1, 136020, Note_on_c, 1, 55, 127
1, 136020, Note_on_c, 1, 67, 127
1, 136020, Note_on_c, 1, 43, 127
1, 136049, Note_off_c, 1, 55, 0
1, 136050, Note_on_c, 1, 70, 127
1, 136079, Note_off_c, 1, 43, 0
1, 136079, Note_off_c, 1, 70, 0
1, 136080, Note_on_c, 1, 74, 127
1, 136080, Note_on_c, 1, 46, 127
1, 136109, Note_off_c, 1, 74, 0
1, 136139, Note_off_c, 1, 46, 0
1, 136140, Note_on_c, 1, 50, 127
1, 136199, Note_off_c, 1, 67, 0
1, 136199, Note_off_c, 1, 50, 0
1, 136200, Note_on_c, 1, 62, 127
1, 136200, Note_on_c, 1, 55, 127
1, 136229, Note_off_c, 1, 62, 0
1, 136230, Note_on_c, 1, 67, 127
1, 136230, Note_on_c, 1, 70, 127
1, 136259, Note_off_c, 1, 55, 0
1, 136259, Note_off_c, 1, 67, 0
1, 136259, Note_off_c, 1, 70, 0
1, 136260, Note_on_c, 1, 70, 127
1, 136260, Note_on_c, 1, 74, 127
1, 136260, Note_on_c, 1, 50, 127
1, 136289, Note_off_c, 1, 70, 0
1, 136289, Note_off_c, 1, 74, 0
1, 136290, Note_on_c, 1, 67, 127
1, 136319, Note_off_c, 1, 50, 0
1, 136319, Note_off_c, 1, 67, 0
1, 136320, Note_on_c, 1, 62, 127
1, 136320, Note_on_c, 1, 67, 127
1, 136320, Note_on_c, 1, 46, 127
1, 136349, Note_off_c, 1, 62, 0
1, 136349, Note_off_c, 1, 67, 0
1, 136350, Note_on_c, 1, 70, 127
1, 136379, Note_off_c, 1, 46, 0
1, 136379, Note_off_c, 1, 70, 0
1, 136380, Note_on_c, 1, 58, 127
1, 136380, Note_on_c, 1, 62, 127
1, 136380, Note_on_c, 1, 43, 127
1, 136409, Note_off_c, 1, 58, 0
1, 136409, Note_off_c, 1, 62, 0
1, 136409, Note_off_c, 1, 43, 0
1, 136410, Note_on_c, 1, 62, 127
1, 136410, Note_on_c, 1, 67, 127
1, 136410, Note_on_c, 1, 46, 127
1, 136439, Note_off_c, 1, 62, 0
1, 136439, Note_off_c, 1, 67, 0
1, 136439, Note_off_c, 1, 46, 0
1, 136440, Note_on_c, 1, 67, 127
1, 136440, Note_on_c, 1, 70, 127
1, 136440, Note_on_c, 1, 50, 127
1, 136469, Note_off_c, 1, 67, 0
1, 136469, Note_off_c, 1, 70, 0
1, 136469, Note_off_c, 1, 50, 0
1, 136470, Note_on_c, 1, 62, 127
1, 136470, Note_on_c, 1, 67, 127
1, 136470, Note_on_c, 1, 46, 127
1, 136499, Note_off_c, 1, 62, 0
1, 136499, Note_off_c, 1, 67, 0
1, 136499, Note_off_c, 1, 46, 0
1, 136500, Note_on_c, 1, 58, 127
1, 136500, Note_on_c, 1, 62, 127
1, 136500, Note_on_c, 1, 43, 127
1, 136529, Note_off_c, 1, 58, 0
1, 136529, Note_off_c, 1, 62, 0
1, 136529, Note_off_c, 1, 43, 0
1, 136530, Note_on_c, 1, 62, 127
1, 136530, Note_on_c, 1, 67, 127
1, 136530, Note_on_c, 1, 46, 127
1, 136559, Note_off_c, 1, 62, 0
1, 136559, Note_off_c, 1, 67, 0
1, 136559, Note_off_c, 1, 46, 0
1, 136560, Note_on_c, 1, 55, 127
1, 136560, Note_on_c, 1, 58, 127
1, 136560, Note_on_c, 1, 38, 127
1, 136589, Note_off_c, 1, 55, 0
1, 136589, Note_off_c, 1, 58, 0
1, 136589, Note_off_c, 1, 38, 0
1, 136590, Note_on_c, 1, 58, 127
1, 136590, Note_on_c, 1, 62, 127
1, 136590, Note_on_c, 1, 43, 127
1, 136619, Note_off_c, 1, 58, 0
1, 136619, Note_off_c, 1, 62, 0
1, 136619, Note_off_c, 1, 43, 0
1, 136620, Note_on_c, 1, 50, 127
1, 136620, Note_on_c, 1, 67, 127
1, 136620, Note_on_c, 1, 46, 127
1, 136649, Note_off_c, 1, 50, 0
1, 136649, Note_off_c, 1, 67, 0
1, 136649, Note_off_c, 1, 46, 0
1, 136650, Note_on_c, 1, 55, 127
1, 136650, Note_on_c, 1, 62, 127
1, 136650, Note_on_c, 1, 43, 127
1, 136679, Note_off_c, 1, 55, 0
1, 136679, Note_off_c, 1, 62, 0
1, 136679, Note_off_c, 1, 43, 0
1, 136680, Note_on_c, 1, 46, 127
1, 136680, Note_on_c, 1, 58, 127
1, 136680, Note_on_c, 1, 38, 127
1, 136709, Note_off_c, 1, 46, 0
1, 136709, Note_off_c, 1, 58, 0
1, 136709, Note_off_c, 1, 38, 0
1, 136710, Note_on_c, 1, 50, 127
1, 136710, Note_on_c, 1, 62, 127
1, 136710, Note_on_c, 1, 34, 127
1, 136739, Note_off_c, 1, 50, 0
1, 136739, Note_off_c, 1, 62, 0
1, 136739, Note_off_c, 1, 34, 0
1, 136740, Note_on_c, 1, 43, 127
1, 136740, Note_on_c, 1, 55, 127
1, 136740, Note_on_c, 1, 31, 127
1, 136919, Note_off_c, 1, 55, 0
1, 136920, Note_off_c, 1, 43, 0
1, 136920, Note_off_c, 1, 31, 0
1, 136920, End_track
0, 0, End_of_file