0, 0, Header, 1, 1, 480
1, 0, Start_track
1, 0, Title_t, "Test"
1, 0, Tempo, 500000
1, 0, Instrument_name_t, "Church Organ"
1, 0, Note_on_c, 1, 74, 127
1, 0, Note_on_c, 1, 69, 127
1, 0, Note_on_c, 1, 66, 127
1, 0, Note_on_c, 1, 78, 127
1, 0, Note_on_c, 1, 81, 127
1, 0, Note_on_c, 1, 62, 127
1, 0, Note_on_c, 1, 50, 127
1, 96, Note_off_c, 1, 74, 0
1, 96, Note_off_c, 1, 69, 0
1, 96, Note_off_c, 1, 66, 0
1, 96, Note_off_c, 1, 78, 0
1, 96, Note_off_c, 1, 81, 0
1, 96, Note_off_c, 1, 62, 0
1, 120, Note_on_c, 1, 86, 127
1, 168, Note_off_c, 1, 86, 0
1, 180, Note_on_c, 1, 85, 127
1, 225, Note_off_c, 1, 50, 0
1, 228, Note_off_c, 1, 85, 0
1, 240, Note_on_c, 1, 78, 127
1, 240, Note_on_c, 1, 74, 127
1, 240, Note_on_c, 1, 69, 127
1, 240, Note_on_c, 1, 50, 127
1, 240, Note_on_c, 1, 86, 127
1, 336, Note_off_c, 1, 78, 0
1, 336, Note_off_c, 1, 74, 0
1, 336, Note_off_c, 1, 69, 0
1, 336, Note_off_c, 1, 50, 0
1, 336, Note_off_c, 1, 86, 0
1, 360, Note_on_c, 1, 81, 127
1, 456, Note_off_c, 1, 81, 0
1, 480, Note_on_c, 1, 66, 127
1, 480, Note_on_c, 1, 69, 127
1, 480, Note_on_c, 1, 74, 127
1, 480, Note_on_c, 1, 78, 127
1, 480, Note_on_c, 1, 50, 127
1, 576, Note_off_c, 1, 66, 0
1, 576, Note_off_c, 1, 69, 0
1, 576, Note_off_c, 1, 74, 0
1, 576, Note_off_c, 1, 78, 0
1, 576, Note_off_c, 1, 50, 0
1, 600, Note_on_c, 1, 81, 127
1, 696, Note_off_c, 1, 81, 0
1, 720, Note_on_c, 1, 69, 127
1, 720, Note_on_c, 1, 74, 127
1, 720, Note_on_c, 1, 78, 127
1, 720, Note_on_c, 1, 50, 127
1, 780, Note_on_c, 1, 76, 127
1, 816, Note_off_c, 1, 69, 0
1, 816, Note_off_c, 1, 74, 0
1, 816, Note_off_c, 1, 78, 0
1, 828, Note_off_c, 1, 76, 0
1, 900, Note_on_c, 1, 49, 127
1, 900, Note_on_c, 1, 73, 127
1, 945, Note_off_c, 1, 50, 0
1, 948, Note_off_c, 1, 49, 0
1, 948, Note_off_c, 1, 73, 0
1, 960, Note_on_c, 1, 74, 127
1, 960, Note_on_c, 1, 50, 127
1, 1056, Note_off_c, 1, 74, 0
1, 1056, Note_off_c, 1, 50, 0
1, 1080, Note_on_c, 1, 69, 127
1, 1080, Note_on_c, 1, 45, 127
1, 1176, Note_off_c, 1, 69, 0
1, 1176, Note_off_c, 1, 45, 0
1, 1200, Note_on_c, 1, 69, 127
1, 1200, Note_on_c, 1, 74, 127
1, 1200, Note_on_c, 1, 78, 127
1, 1200, Note_on_c, 1, 66, 127
1, 1200, Note_on_c, 1, 42, 127
1, 1200, Note_on_c, 1, 50, 127
1, 1296, Note_off_c, 1, 69, 0
1, 1296, Note_off_c, 1, 74, 0
1, 1296, Note_off_c, 1, 78, 0
1, 1296, Note_off_c, 1, 66, 0
1, 1296, Note_off_c, 1, 42, 0
1, 1296, Note_off_c, 1, 50, 0
1, 1320, Note_on_c, 1, 69, 127
1, 1320, Note_on_c, 1, 45, 127
1, 1416, Note_off_c, 1, 69, 0
1, 1416, Note_off_c, 1, 45, 0
1, 1440, Note_on_c, 1, 81, 127
1, 1440, Note_on_c, 1, 78, 127
1, 1440, Note_on_c, 1, 74, 127
1, 1440, Note_on_c, 1, 38, 127
1, 1440, Note_on_c, 1, 62, 127
1, 1440, Note_on_c, 1, 50, 127
1, 1488, Note_off_c, 1, 62, 0
1, 1500, Note_on_c, 1, 69, 127
1, 1536, Note_off_c, 1, 81, 0
1, 1536, Note_off_c, 1, 78, 0
1, 1536, Note_off_c, 1, 74, 0
1, 1536, Note_off_c, 1, 38, 0
1, 1548, Note_off_c, 1, 69, 0
1, 1560, Note_on_c, 1, 64, 127
1, 1608, Note_off_c, 1, 64, 0
1, 1665, Note_off_c, 1, 50, 0
1, 1680, Note_on_c, 1, 66, 127
1, 1728, Note_off_c, 1, 66, 0
1, 1740, Note_on_c, 1, 69, 127
1, 1788, Note_off_c, 1, 69, 0
1, 1800, Note_on_c, 1, 67, 127
1, 1848, Note_off_c, 1, 67, 0
1, 1860, Note_on_c, 1, 69, 127
1, 1908, Note_off_c, 1, 69, 0
1, 1920, Note_on_c, 1, 66, 127
1, 1968, Note_off_c, 1, 66, 0
1, 1980, Note_on_c, 1, 69, 127
1, 2028, Note_off_c, 1, 69, 0
1, 2040, Note_on_c, 1, 64, 127
1, 2088, Note_off_c, 1, 64, 0
1, 2100, Note_on_c, 1, 69, 127
1, 2148, Note_off_c, 1, 69, 0
1, 2160, Note_on_c, 1, 62, 127
1, 2208, Note_off_c, 1, 62, 0
1, 2220, Note_on_c, 1, 74, 127
1, 2268, Note_off_c, 1, 74, 0
1, 2280, Note_on_c, 1, 74, 127
1, 2280, Note_on_c, 1, 73, 127
1, 2280, Note_on_c, 1, 50, 127
1, 2328, Note_off_c, 1, 74, 0
1, 2328, Note_off_c, 1, 73, 0
1, 2328, Note_off_c, 1, 50, 0
1, 2340, Note_on_c, 1, 74, 127
1, 2340, Note_on_c, 1, 71, 127
1, 2340, Note_on_c, 1, 50, 127
1, 2388, Note_off_c, 1, 74, 0
1, 2388, Note_off_c, 1, 71, 0
1, 2388, Note_off_c, 1, 50, 0
1, 2400, Note_on_c, 1, 74, 127
1, 2400, Note_on_c, 1, 69, 127
1, 2400, Note_on_c, 1, 50, 127
1, 2448, Note_off_c, 1, 69, 0
1, 2460, Note_on_c, 1, 62, 127
1, 2496, Note_off_c, 1, 50, 0
1, 2508, Note_off_c, 1, 74, 0
1, 2508, Note_off_c, 1, 62, 0
1, 2520, Note_on_c, 1, 69, 127
1, 2520, Note_on_c, 1, 61, 127
1, 2520, Note_on_c, 1, 73, 127
1, 2520, Note_on_c, 1, 50, 127
1, 2568, Note_off_c, 1, 61, 0
1, 2568, Note_off_c, 1, 73, 0
1, 2580, Note_on_c, 1, 59, 127
1, 2580, Note_on_c, 1, 71, 127
1, 2616, Note_off_c, 1, 69, 0
1, 2616, Note_off_c, 1, 50, 0
1, 2628, Note_off_c, 1, 59, 0
1, 2628, Note_off_c, 1, 71, 0
1, 2640, Note_on_c, 1, 66, 127
1, 2640, Note_on_c, 1, 57, 127
1, 2640, Note_on_c, 1, 69, 127
1, 2640, Note_on_c, 1, 50, 127
1, 2688, Note_off_c, 1, 57, 0
1, 2688, Note_off_c, 1, 69, 0
1, 2700, Note_on_c, 1, 55, 127
1, 2700, Note_on_c, 1, 67, 127
1, 2736, Note_off_c, 1, 66, 0
1, 2736, Note_off_c, 1, 50, 0
1, 2748, Note_off_c, 1, 55, 0
1, 2748, Note_off_c, 1, 67, 0
1, 2760, Note_on_c, 1, 69, 127
1, 2760, Note_on_c, 1, 54, 127
1, 2760, Note_on_c, 1, 66, 127
1, 2760, Note_on_c, 1, 50, 127
1, 2808, Note_off_c, 1, 54, 0
1, 2808, Note_off_c, 1, 66, 0
1, 2820, Note_on_c, 1, 52, 127
1, 2820, Note_on_c, 1, 64, 127
1, 2856, Note_off_c, 1, 69, 0
1, 2856, Note_off_c, 1, 50, 0
1, 2868, Note_off_c, 1, 52, 0
1, 2868, Note_off_c, 1, 64, 0
1, 2880, Note_on_c, 1, 62, 127
1, 2880, Note_on_c, 1, 50, 127
1, 2940, Note_on_c, 1, 69, 127
1, 2976, Note_off_c, 1, 62, 0
1, 2988, Note_off_c, 1, 69, 0
1, 3000, Note_on_c, 1, 64, 127
1, 3048, Note_off_c, 1, 64, 0
1, 3105, Note_off_c, 1, 50, 0
1, 3120, Note_on_c, 1, 66, 127
1, 3168, Note_off_c, 1, 66, 0
1, 3180, Note_on_c, 1, 69, 127
1, 3228, Note_off_c, 1, 69, 0
1, 3240, Note_on_c, 1, 67, 127
1, 3288, Note_off_c, 1, 67, 0
1, 3300, Note_on_c, 1, 69, 127
1, 3348, Note_off_c, 1, 69, 0
1, 3360, Note_on_c, 1, 66, 127
1, 3408, Note_off_c, 1, 66, 0
1, 3420, Note_on_c, 1, 69, 127
1, 3468, Note_off_c, 1, 69, 0
1, 3480, Note_on_c, 1, 64, 127
1, 3528, Note_off_c, 1, 64, 0
1, 3540, Note_on_c, 1, 69, 127
1, 3588, Note_off_c, 1, 69, 0
1, 3600, Note_on_c, 1, 62, 127
1, 3648, Note_off_c, 1, 62, 0
1, 3660, Note_on_c, 1, 74, 127
1, 3708, Note_off_c, 1, 74, 0
1, 3720, Note_on_c, 1, 62, 127
1, 3720, Note_on_c, 1, 73, 127
1, 3720, Note_on_c, 1, 50, 127
1, 3768, Note_off_c, 1, 62, 0
1, 3768, Note_off_c, 1, 73, 0
1, 3768, Note_off_c, 1, 50, 0
1, 3780, Note_on_c, 1, 62, 127
1, 3780, Note_on_c, 1, 71, 127
1, 3780, Note_on_c, 1, 50, 127
1, 3828, Note_off_c, 1, 62, 0
1, 3828, Note_off_c, 1, 71, 0
1, 3828, Note_off_c, 1, 50, 0
1, 3840, Note_on_c, 1, 66, 127
1, 3840, Note_on_c, 1, 69, 127
1, 3840, Note_on_c, 1, 50, 127
1, 3888, Note_off_c, 1, 69, 0
1, 3900, Note_on_c, 1, 74, 127
1, 3936, Note_off_c, 1, 66, 0
1, 3948, Note_off_c, 1, 50, 0
1, 3948, Note_off_c, 1, 74, 0
1, 3960, Note_on_c, 1, 62, 127
1, 3960, Note_on_c, 1, 49, 127
1, 3960, Note_on_c, 1, 73, 127
1, 3960, Note_on_c, 1, 50, 127
1, 4008, Note_off_c, 1, 49, 0
1, 4008, Note_off_c, 1, 73, 0
1, 4020, Note_on_c, 1, 47, 127
1, 4020, Note_on_c, 1, 71, 127
1, 4056, Note_off_c, 1, 62, 0
1, 4056, Note_off_c, 1, 50, 0
1, 4068, Note_off_c, 1, 47, 0
1, 4068, Note_off_c, 1, 71, 0
1, 4080, Note_on_c, 1, 66, 127
1, 4080, Note_on_c, 1, 45, 127
1, 4080, Note_on_c, 1, 69, 127
1, 4080, Note_on_c, 1, 50, 127
1, 4128, Note_off_c, 1, 45, 0
1, 4128, Note_off_c, 1, 69, 0
1, 4140, Note_on_c, 1, 43, 127
1, 4140, Note_on_c, 1, 67, 127
1, 4176, Note_off_c, 1, 66, 0
1, 4176, Note_off_c, 1, 50, 0
1, 4188, Note_off_c, 1, 43, 0
1, 4188, Note_off_c, 1, 67, 0
1, 4200, Note_on_c, 1, 69, 127
1, 4200, Note_on_c, 1, 42, 127
1, 4200, Note_on_c, 1, 66, 127
1, 4200, Note_on_c, 1, 50, 127
1, 4248, Note_off_c, 1, 42, 0
1, 4248, Note_off_c, 1, 66, 0
1, 4260, Note_on_c, 1, 40, 127
1, 4260, Note_on_c, 1, 64, 127
1, 4296, Note_off_c, 1, 69, 0
1, 4296, Note_off_c, 1, 50, 0
1, 4308, Note_off_c, 1, 40, 0
1, 4308, Note_off_c, 1, 64, 0
1, 4320, Note_on_c, 1, 66, 127
1, 4320, Note_on_c, 1, 74, 127
1, 4320, Note_on_c, 1, 69, 127
1, 4320, Note_on_c, 1, 38, 127
1, 4320, Note_on_c, 1, 62, 127
1, 4320, Note_on_c, 1, 50, 127
1, 4368, Note_off_c, 1, 62, 0
1, 4380, Note_on_c, 1, 64, 127
1, 4416, Note_off_c, 1, 66, 0
1, 4416, Note_off_c, 1, 74, 0
1, 4416, Note_off_c, 1, 69, 0
1, 4416, Note_off_c, 1, 38, 0
1, 4428, Note_off_c, 1, 64, 0
1, 4500, Note_on_c, 1, 67, 127
1, 4545, Note_off_c, 1, 50, 0
1, 4548, Note_off_c, 1, 67, 0
1, 4560, Note_on_c, 1, 69, 127
1, 4560, Note_on_c, 1, 66, 127
1, 4560, Note_on_c, 1, 62, 127
1, 4620, Note_on_c, 1, 71, 127
1, 4656, Note_off_c, 1, 69, 0
1, 4656, Note_off_c, 1, 66, 0
1, 4656, Note_off_c, 1, 62, 0
1, 4668, Note_off_c, 1, 71, 0
1, 4680, Note_on_c, 1, 73, 127
1, 4728, Note_off_c, 1, 73, 0
1, 4740, Note_on_c, 1, 74, 127
1, 4788, Note_off_c, 1, 74, 0
1, 4800, Note_on_c, 1, 73, 127
1, 4800, Note_on_c, 1, 67, 127
1, 4800, Note_on_c, 1, 64, 127
1, 4800, Note_on_c, 1, 76, 127
1, 4848, Note_off_c, 1, 76, 0
1, 4860, Note_on_c, 1, 78, 127
1, 4896, Note_off_c, 1, 73, 0
1, 4896, Note_off_c, 1, 67, 0
1, 4896, Note_off_c, 1, 64, 0
1, 4908, Note_off_c, 1, 78, 0
1, 4920, Note_on_c, 1, 79, 127
1, 4968, Note_off_c, 1, 79, 0
1, 4980, Note_on_c, 1, 76, 127
1, 5028, Note_off_c, 1, 76, 0
1, 5040, Note_on_c, 1, 78, 127
1, 5040, Note_on_c, 1, 69, 127
1, 5040, Note_on_c, 1, 74, 127
1, 5040, Note_on_c, 1, 66, 127
1, 5040, Note_on_c, 1, 57, 127
1, 5040, Note_on_c, 1, 38, 127
1, 5040, Note_on_c, 1, 50, 127
1, 5100, Note_on_c, 1, 81, 127
1, 5136, Note_off_c, 1, 78, 0
1, 5136, Note_off_c, 1, 69, 0
1, 5136, Note_off_c, 1, 74, 0
1, 5136, Note_off_c, 1, 66, 0
1, 5136, Note_off_c, 1, 57, 0
1, 5136, Note_off_c, 1, 38, 0
1, 5148, Note_off_c, 1, 81, 0
1, 5220, Note_on_c, 1, 76, 127
1, 5265, Note_off_c, 1, 50, 0
1, 5268, Note_off_c, 1, 76, 0
1, 5280, Note_on_c, 1, 74, 127
1, 5280, Note_on_c, 1, 69, 127
1, 5280, Note_on_c, 1, 66, 127
1, 5280, Note_on_c, 1, 78, 127
1, 5328, Note_off_c, 1, 78, 0
1, 5340, Note_on_c, 1, 79, 127
1, 5376, Note_off_c, 1, 74, 0
1, 5376, Note_off_c, 1, 69, 0
1, 5376, Note_off_c, 1, 66, 0
1, 5388, Note_off_c, 1, 79, 0
1, 5400, Note_on_c, 1, 81, 127
1, 5448, Note_off_c, 1, 81, 0
1, 5460, Note_on_c, 1, 83, 127
1, 5508, Note_off_c, 1, 83, 0
1, 5520, Note_on_c, 1, 67, 127
1, 5520, Note_on_c, 1, 76, 127
1, 5520, Note_on_c, 1, 57, 127
1, 5520, Note_on_c, 1, 85, 127
1, 5568, Note_off_c, 1, 85, 0
1, 5580, Note_on_c, 1, 86, 127
1, 5616, Note_off_c, 1, 67, 0
1, 5616, Note_off_c, 1, 76, 0
1, 5616, Note_off_c, 1, 57, 0
1, 5628, Note_off_c, 1, 86, 0
1, 5640, Note_on_c, 1, 83, 127
1, 5688, Note_off_c, 1, 83, 0
1, 5700, Note_on_c, 1, 85, 127
1, 5748, Note_off_c, 1, 85, 0
1, 5760, Note_on_c, 1, 81, 127
1, 5760, Note_on_c, 1, 78, 127
1, 5760, Note_on_c, 1, 74, 127
1, 5760, Note_on_c, 1, 69, 127
1, 5760, Note_on_c, 1, 62, 127
1, 5760, Note_on_c, 1, 38, 127
1, 5760, Note_on_c, 1, 86, 127
1, 5760, Note_on_c, 1, 50, 127
1, 5808, Note_off_c, 1, 86, 0
1, 5856, Note_off_c, 1, 74, 0
1, 5856, Note_off_c, 1, 62, 0
1, 5856, Note_off_c, 1, 38, 0
1, 5868, Note_off_c, 1, 81, 0
1, 5873, Note_off_c, 1, 78, 0
1, 5873, Note_off_c, 1, 69, 0
1, 5880, Note_on_c, 1, 79, 127
1, 5928, Note_off_c, 1, 79, 0
1, 5985, Note_off_c, 1, 50, 0
1, 6000, Note_on_c, 1, 74, 127
1, 6000, Note_on_c, 1, 78, 127
1, 6000, Note_on_c, 1, 69, 127
1, 6000, Note_on_c, 1, 81, 127
1, 6096, Note_off_c, 1, 74, 0
1, 6096, Note_off_c, 1, 78, 0
1, 6096, Note_off_c, 1, 69, 0
1, 6108, Note_off_c, 1, 81, 0
1, 6120, Note_on_c, 1, 83, 127
1, 6120, Note_on_c, 1, 79, 127
1, 6168, Note_off_c, 1, 79, 0
1, 6180, Note_on_c, 1, 81, 127
1, 6216, Note_off_c, 1, 83, 0
1, 6228, Note_off_c, 1, 81, 0
1, 6240, Note_on_c, 1, 81, 127
1, 6240, Note_on_c, 1, 78, 127
1, 6288, Note_off_c, 1, 78, 0
1, 6348, Note_off_c, 1, 81, 0
1, 6360, Note_on_c, 1, 79, 127
1, 6360, Note_on_c, 1, 76, 127
1, 6408, Note_off_c, 1, 76, 0
1, 6420, Note_on_c, 1, 81, 127
1, 6456, Note_off_c, 1, 79, 0
1, 6468, Note_off_c, 1, 81, 0
1, 6480, Note_on_c, 1, 78, 127
1, 6480, Note_on_c, 1, 74, 127
1, 6528, Note_off_c, 1, 74, 0
1, 6540, Note_on_c, 1, 86, 127
1, 6576, Note_off_c, 1, 78, 0
1, 6588, Note_off_c, 1, 86, 0
1, 6600, Note_on_c, 1, 50, 127
1, 6600, Note_on_c, 1, 85, 127
1, 6648, Note_off_c, 1, 50, 0
1, 6648, Note_off_c, 1, 85, 0
1, 6660, Note_on_c, 1, 52, 127
1, 6660, Note_on_c, 1, 83, 127
1, 6708, Note_off_c, 1, 52, 0
1, 6708, Note_off_c, 1, 83, 0
1, 6720, Note_on_c, 1, 54, 127
1, 6720, Note_on_c, 1, 81, 127
1, 6768, Note_off_c, 1, 81, 0
1, 6780, Note_on_c, 1, 74, 127
1, 6816, Note_off_c, 1, 54, 0
1, 6828, Note_off_c, 1, 74, 0
1, 6840, Note_on_c, 1, 55, 127
1, 6840, Note_on_c, 1, 83, 127
1, 6888, Note_off_c, 1, 83, 0
1, 6900, Note_on_c, 1, 74, 127
1, 6936, Note_off_c, 1, 55, 0
1, 6948, Note_off_c, 1, 74, 0
1, 6960, Note_on_c, 1, 54, 127
1, 6960, Note_on_c, 1, 81, 127
1, 7008, Note_off_c, 1, 81, 0
1, 7020, Note_on_c, 1, 74, 127
1, 7056, Note_off_c, 1, 54, 0
1, 7068, Note_off_c, 1, 74, 0
1, 7080, Note_on_c, 1, 52, 127
1, 7080, Note_on_c, 1, 79, 127
1, 7128, Note_off_c, 1, 79, 0
1, 7140, Note_on_c, 1, 74, 127
1, 7176, Note_off_c, 1, 52, 0
1, 7188, Note_off_c, 1, 74, 0
1, 7200, Note_on_c, 1, 69, 127
1, 7200, Note_on_c, 1, 78, 127
1, 7200, Note_on_c, 1, 74, 127
1, 7200, Note_on_c, 1, 50, 127
1, 7260, Note_on_c, 1, 81, 127
1, 7296, Note_off_c, 1, 69, 0
1, 7296, Note_off_c, 1, 78, 0
1, 7296, Note_off_c, 1, 74, 0
1, 7308, Note_off_c, 1, 81, 0
1, 7320, Note_on_c, 1, 57, 127
1, 7320, Note_on_c, 1, 76, 127
1, 7368, Note_off_c, 1, 76, 0
1, 7416, Note_off_c, 1, 57, 0
1, 7425, Note_off_c, 1, 50, 0
1, 7440, Note_on_c, 1, 66, 127
1, 7440, Note_on_c, 1, 74, 127
1, 7440, Note_on_c, 1, 69, 127
1, 7440, Note_on_c, 1, 78, 127
1, 7488, Note_off_c, 1, 78, 0
1, 7500, Note_on_c, 1, 81, 127
1, 7536, Note_off_c, 1, 66, 0
1, 7536, Note_off_c, 1, 74, 0
1, 7536, Note_off_c, 1, 69, 0
1, 7548, Note_off_c, 1, 81, 0
1, 7560, Note_on_c, 1, 71, 127
1, 7560, Note_on_c, 1, 79, 127
1, 7608, Note_off_c, 1, 79, 0
1, 7620, Note_on_c, 1, 81, 127
1, 7656, Note_off_c, 1, 71, 0
1, 7668, Note_off_c, 1, 81, 0
1, 7680, Note_on_c, 1, 69, 127
1, 7680, Note_on_c, 1, 78, 127
1, 7728, Note_off_c, 1, 78, 0
1, 7740, Note_on_c, 1, 81, 127
1, 7776, Note_off_c, 1, 69, 0
1, 7788, Note_off_c, 1, 81, 0
1, 7800, Note_on_c, 1, 67, 127
1, 7800, Note_on_c, 1, 76, 127
1, 7848, Note_off_c, 1, 76, 0
1, 7860, Note_on_c, 1, 81, 127
1, 7896, Note_off_c, 1, 67, 0
1, 7908, Note_off_c, 1, 81, 0
1, 7920, Note_on_c, 1, 66, 127
1, 7920, Note_on_c, 1, 74, 127
1, 7968, Note_off_c, 1, 74, 0
1, 7980, Note_on_c, 1, 86, 127
1, 8016, Note_off_c, 1, 66, 0
1, 8028, Note_off_c, 1, 86, 0
1, 8040, Note_on_c, 1, 38, 127
1, 8040, Note_on_c, 1, 85, 127
1, 8088, Note_off_c, 1, 38, 0
1, 8088, Note_off_c, 1, 85, 0
1, 8100, Note_on_c, 1, 40, 127
1, 8100, Note_on_c, 1, 83, 127
1, 8148, Note_off_c, 1, 40, 0
1, 8148, Note_off_c, 1, 83, 0
1, 8160, Note_on_c, 1, 42, 127
1, 8160, Note_on_c, 1, 81, 127
1, 8208, Note_off_c, 1, 81, 0
1, 8220, Note_on_c, 1, 74, 127
1, 8256, Note_off_c, 1, 42, 0
1, 8268, Note_off_c, 1, 74, 0
1, 8280, Note_on_c, 1, 43, 127
1, 8280, Note_on_c, 1, 83, 127
1, 8328, Note_off_c, 1, 83, 0
1, 8340, Note_on_c, 1, 74, 127
1, 8376, Note_off_c, 1, 43, 0
1, 8388, Note_off_c, 1, 74, 0
1, 8400, Note_on_c, 1, 42, 127
1, 8400, Note_on_c, 1, 81, 127
1, 8448, Note_off_c, 1, 81, 0
1, 8460, Note_on_c, 1, 74, 127
1, 8496, Note_off_c, 1, 42, 0
1, 8508, Note_off_c, 1, 74, 0
1, 8520, Note_on_c, 1, 40, 127
1, 8520, Note_on_c, 1, 79, 127
1, 8568, Note_off_c, 1, 79, 0
1, 8580, Note_on_c, 1, 74, 127
1, 8616, Note_off_c, 1, 40, 0
1, 8628, Note_off_c, 1, 74, 0
1, 8640, Note_on_c, 1, 38, 127
1, 8640, Note_on_c, 1, 78, 127
1, 8688, Note_off_c, 1, 78, 0
1, 8700, Note_on_c, 1, 74, 127
1, 8748, Note_off_c, 1, 74, 0
1, 8865, Note_off_c, 1, 38, 0
1, 8880, Note_on_c, 1, 73, 127
1, 8928, Note_off_c, 1, 73, 0
1, 8940, Note_on_c, 1, 74, 127
1, 8988, Note_off_c, 1, 74, 0
1, 9000, Note_on_c, 1, 74, 127
1, 9048, Note_off_c, 1, 74, 0
1, 9060, Note_on_c, 1, 74, 127
1, 9108, Note_off_c, 1, 74, 0
1, 9120, Note_on_c, 1, 76, 127
1, 9168, Note_off_c, 1, 76, 0
1, 9180, Note_on_c, 1, 74, 127
1, 9228, Note_off_c, 1, 74, 0
1, 9240, Note_on_c, 1, 73, 127
1, 9288, Note_off_c, 1, 73, 0
1, 9300, Note_on_c, 1, 74, 127
1, 9348, Note_off_c, 1, 74, 0
1, 9360, Note_on_c, 1, 74, 127
1, 9408, Note_off_c, 1, 74, 0
1, 9420, Note_on_c, 1, 74, 127
1, 9468, Note_off_c, 1, 74, 0
1, 9480, Note_on_c, 1, 74, 127
1, 9480, Note_on_c, 1, 78, 127
1, 9528, Note_off_c, 1, 78, 0
1, 9588, Note_off_c, 1, 74, 0
1, 9600, Note_on_c, 1, 73, 127
1, 9600, Note_on_c, 1, 76, 127
1, 9648, Note_off_c, 1, 76, 0
1, 9660, Note_on_c, 1, 74, 127
1, 9696, Note_off_c, 1, 73, 0
1, 9708, Note_off_c, 1, 74, 0
1, 9720, Note_on_c, 1, 74, 127
1, 9720, Note_on_c, 1, 78, 127
1, 9768, Note_off_c, 1, 78, 0
1, 9828, Note_off_c, 1, 74, 0
1, 9840, Note_on_c, 1, 76, 127
1, 9840, Note_on_c, 1, 79, 127
1, 9888, Note_off_c, 1, 79, 0
1, 9900, Note_on_c, 1, 74, 127
1, 9936, Note_off_c, 1, 76, 0
1, 9948, Note_off_c, 1, 74, 0
1, 9960, Note_on_c, 1, 73, 127
1, 9960, Note_on_c, 1, 76, 127
1, 10008, Note_off_c, 1, 76, 0
1, 10020, Note_on_c, 1, 74, 127
1, 10056, Note_off_c, 1, 73, 0
1, 10068, Note_off_c, 1, 74, 0
1, 10080, Note_on_c, 1, 74, 127
1, 10080, Note_on_c, 1, 38, 127
1, 10080, Note_on_c, 1, 78, 127
1, 10176, Note_off_c, 1, 78, 0
1, 10188, Note_off_c, 1, 74, 0
1, 10200, Note_on_c, 1, 66, 127
1, 10296, Note_off_c, 1, 66, 0
1, 10305, Note_off_c, 1, 38, 0
1, 10320, Note_on_c, 1, 64, 127
1, 10320, Note_on_c, 1, 73, 127
1, 10368, Note_off_c, 1, 73, 0
1, 10380, Note_on_c, 1, 74, 127
1, 10416, Note_off_c, 1, 64, 0
1, 10428, Note_off_c, 1, 74, 0
1, 10440, Note_on_c, 1, 66, 127
1, 10440, Note_on_c, 1, 74, 127
1, 10488, Note_off_c, 1, 74, 0
1, 10536, Note_off_c, 1, 66, 0
1, 10560, Note_on_c, 1, 67, 127
1, 10560, Note_on_c, 1, 76, 127
1, 10608, Note_off_c, 1, 76, 0
1, 10620, Note_on_c, 1, 74, 127
1, 10656, Note_off_c, 1, 67, 0
1, 10668, Note_off_c, 1, 74, 0
1, 10680, Note_on_c, 1, 64, 127
1, 10680, Note_on_c, 1, 73, 127
1, 10728, Note_off_c, 1, 73, 0
1, 10740, Note_on_c, 1, 74, 127
1, 10776, Note_off_c, 1, 64, 0
1, 10788, Note_off_c, 1, 74, 0
1, 10800, Note_on_c, 1, 66, 127
1, 10860, Note_on_c, 1, 74, 127
1, 10908, Note_off_c, 1, 74, 0
1, 10920, Note_off_c, 1, 66, 0
1, 10920, Note_on_c, 1, 62, 127
1, 10920, Note_on_c, 1, 78, 127
1, 10968, Note_off_c, 1, 78, 0
1, 11016, Note_off_c, 1, 62, 0
1, 11040, Note_on_c, 1, 61, 127
1, 11040, Note_on_c, 1, 76, 127
1, 11088, Note_off_c, 1, 76, 0
1, 11100, Note_on_c, 1, 74, 127
1, 11136, Note_off_c, 1, 61, 0
1, 11148, Note_off_c, 1, 74, 0
1, 11160, Note_on_c, 1, 62, 127
1, 11160, Note_on_c, 1, 78, 127
1, 11208, Note_off_c, 1, 78, 0
1, 11220, Note_on_c, 1, 74, 127
1, 11256, Note_off_c, 1, 62, 0
1, 11268, Note_off_c, 1, 74, 0
1, 11280, Note_on_c, 1, 64, 127
1, 11280, Note_on_c, 1, 79, 127
1, 11328, Note_off_c, 1, 79, 0
1, 11340, Note_on_c, 1, 74, 127
1, 11376, Note_off_c, 1, 64, 0
1, 11388, Note_off_c, 1, 74, 0
1, 11400, Note_on_c, 1, 61, 127
1, 11400, Note_on_c, 1, 76, 127
1, 11448, Note_off_c, 1, 76, 0
1, 11460, Note_on_c, 1, 74, 127
1, 11496, Note_off_c, 1, 61, 0
1, 11508, Note_off_c, 1, 74, 0
1, 11520, Note_on_c, 1, 69, 127
1, 11520, Note_on_c, 1, 74, 127
1, 11520, Note_on_c, 1, 78, 127
1, 11568, Note_off_c, 1, 78, 0
1, 11616, Note_off_c, 1, 69, 0
1, 11628, Note_off_c, 1, 74, 0
1, 11640, Note_on_c, 1, 50, 127
1, 11640, Note_on_c, 1, 73, 127
1, 11688, Note_off_c, 1, 73, 0
1, 11700, Note_on_c, 1, 74, 127
1, 11748, Note_off_c, 1, 74, 0
1, 11753, Note_off_c, 1, 50, 0
1, 11760, Note_on_c, 1, 74, 127
1, 11760, Note_on_c, 1, 69, 127
1, 11760, Note_on_c, 1, 66, 127
1, 11760, Note_on_c, 1, 50, 127
1, 11856, Note_off_c, 1, 69, 0
1, 11856, Note_off_c, 1, 66, 0
1, 11868, Note_off_c, 1, 74, 0
1, 11873, Note_off_c, 1, 50, 0
1, 11880, Note_on_c, 1, 50, 127
1, 11880, Note_on_c, 1, 73, 127
1, 11928, Note_off_c, 1, 73, 0
1, 11940, Note_on_c, 1, 74, 127
1, 11988, Note_off_c, 1, 74, 0
1, 11993, Note_off_c, 1, 50, 0
1, 12000, Note_on_c, 1, 66, 127
1, 12000, Note_on_c, 1, 62, 127
1, 12000, Note_on_c, 1, 69, 127
1, 12000, Note_on_c, 1, 50, 127
1, 12000, Note_on_c, 1, 78, 127
1, 12048, Note_off_c, 1, 78, 0
1, 12060, Note_on_c, 1, 74, 127
1, 12096, Note_off_c, 1, 66, 0
1, 12096, Note_off_c, 1, 62, 0
1, 12096, Note_off_c, 1, 69, 0
1, 12108, Note_off_c, 1, 74, 0
1, 12113, Note_off_c, 1, 50, 0
1, 12120, Note_on_c, 1, 50, 127
1, 12120, Note_on_c, 1, 73, 127
1, 12168, Note_off_c, 1, 73, 0
1, 12180, Note_on_c, 1, 74, 127
1, 12228, Note_off_c, 1, 74, 0
1, 12233, Note_off_c, 1, 50, 0
1, 12240, Note_on_c, 1, 78, 127
1, 12240, Note_on_c, 1, 74, 127
1, 12240, Note_on_c, 1, 69, 127
1, 12240, Note_on_c, 1, 81, 127
1, 12288, Note_off_c, 1, 81, 0
1, 12336, Note_off_c, 1, 74, 0
1, 12336, Note_off_c, 1, 69, 0
1, 12348, Note_off_c, 1, 78, 0
1, 12360, Note_on_c, 1, 50, 127
1, 12360, Note_on_c, 1, 76, 127
1, 12408, Note_off_c, 1, 76, 0
1, 12420, Note_on_c, 1, 78, 127
1, 12468, Note_off_c, 1, 78, 0
1, 12480, Note_on_c, 1, 69, 127
1, 12480, Note_on_c, 1, 74, 127
1, 12576, Note_off_c, 1, 69, 0
1, 12576, Note_off_c, 1, 74, 0
1, 12720, Note_on_c, 1, 66, 127
1, 12720, Note_on_c, 1, 81, 127
1, 12768, Note_off_c, 1, 81, 0
1, 12816, Note_off_c, 1, 66, 0
1, 12960, Note_off_c, 1, 50, 0
1, 12960, Note_on_c, 1, 86, 127
1, 13008, Note_off_c, 1, 86, 0
1, 13080, Note_on_c, 1, 50, 127
1, 13080, Note_on_c, 1, 79, 127
1, 13128, Note_off_c, 1, 79, 0
1, 13140, Note_on_c, 1, 81, 127
1, 13188, Note_off_c, 1, 81, 0
1, 13200, Note_on_c, 1, 78, 127
1, 13248, Note_off_c, 1, 78, 0
1, 13320, Note_on_c, 1, 76, 127
1, 13368, Note_off_c, 1, 76, 0
1, 13440, Note_on_c, 1, 74, 127
1, 13488, Note_off_c, 1, 74, 0
1, 13560, Note_on_c, 1, 72, 127
1, 13608, Note_off_c, 1, 72, 0
1, 13680, Note_off_c, 1, 50, 0
1, 13680, Note_on_c, 1, 71, 127
1, 13776, Note_off_c, 1, 71, 0
1, 13800, Note_on_c, 1, 50, 127
1, 13800, Note_on_c, 1, 74, 127
1, 13848, Note_off_c, 1, 74, 0
1, 13860, Note_on_c, 1, 79, 127
1, 13908, Note_off_c, 1, 79, 0
1, 13920, Note_on_c, 1, 71, 127
1, 13968, Note_off_c, 1, 71, 0
1, 14400, Note_off_c, 1, 50, 0
1, 14400, Note_on_c, 1, 69, 127
1, 14496, Note_off_c, 1, 69, 0
1, 14520, Note_on_c, 1, 50, 127
1, 14520, Note_on_c, 1, 74, 127
1, 14568, Note_off_c, 1, 74, 0
1, 14580, Note_on_c, 1, 79, 127
1, 14628, Note_off_c, 1, 79, 0
1, 14640, Note_on_c, 1, 69, 127
1, 14688, Note_off_c, 1, 69, 0
1, 15120, Note_off_c, 1, 50, 0
1, 15120, Note_on_c, 1, 78, 127
1, 15228, Note_off_c, 1, 78, 0
1, 15240, Note_on_c, 1, 50, 127
1, 15240, Note_on_c, 1, 74, 127
1, 15288, Note_off_c, 1, 74, 0
1, 15300, Note_on_c, 1, 78, 127
1, 15348, Note_off_c, 1, 78, 0
1, 15360, Note_on_c, 1, 69, 127
1, 15408, Note_off_c, 1, 69, 0
1, 15840, Note_off_c, 1, 50, 0
1, 15840, Note_on_c, 1, 67, 127
1, 15936, Note_off_c, 1, 67, 0
1, 15960, Note_on_c, 1, 50, 127
1, 15960, Note_on_c, 1, 74, 127
1, 16008, Note_off_c, 1, 74, 0
1, 16020, Note_on_c, 1, 78, 127
1, 16068, Note_off_c, 1, 78, 0
1, 16080, Note_on_c, 1, 67, 127
1, 16128, Note_off_c, 1, 67, 0
1, 16560, Note_off_c, 1, 50, 0
1, 16560, Note_on_c, 1, 76, 127
1, 16560, Note_on_c, 1, 73, 127
1, 16656, Note_off_c, 1, 73, 0
1, 16668, Note_off_c, 1, 76, 0
1, 16680, Note_on_c, 1, 50, 127
1, 16680, Note_on_c, 1, 73, 127
1, 16728, Note_off_c, 1, 73, 0
1, 16740, Note_on_c, 1, 76, 127
1, 16788, Note_off_c, 1, 76, 0
1, 16800, Note_on_c, 1, 67, 127
1, 16848, Note_off_c, 1, 67, 0
1, 17280, Note_off_c, 1, 50, 0
1, 17280, Note_on_c, 1, 66, 127
1, 17376, Note_off_c, 1, 66, 0
1, 17400, Note_on_c, 1, 50, 127
1, 17400, Note_on_c, 1, 69, 127
1, 17448, Note_off_c, 1, 69, 0
1, 17460, Note_on_c, 1, 76, 127
1, 17508, Note_off_c, 1, 76, 0
1, 17520, Note_on_c, 1, 66, 127
1, 17568, Note_off_c, 1, 66, 0
1, 18000, Note_off_c, 1, 50, 0
1, 18000, Note_on_c, 1, 74, 127
1, 18108, Note_off_c, 1, 74, 0
1, 18120, Note_on_c, 1, 50, 127
1, 18120, Note_on_c, 1, 69, 127
1, 18168, Note_off_c, 1, 69, 0
1, 18180, Note_on_c, 1, 74, 127
1, 18228, Note_off_c, 1, 74, 0
1, 18240, Note_on_c, 1, 66, 127
1, 18288, Note_off_c, 1, 66, 0
1, 18720, Note_off_c, 1, 50, 0
1, 18720, Note_on_c, 1, 67, 127
1, 18720, Note_on_c, 1, 64, 127
1, 18816, Note_off_c, 1, 67, 0
1, 18816, Note_off_c, 1, 64, 0
1, 18840, Note_on_c, 1, 50, 127
1, 18840, Note_on_c, 1, 67, 127
1, 18888, Note_off_c, 1, 67, 0
1, 18900, Note_on_c, 1, 74, 127
1, 18948, Note_off_c, 1, 74, 0
1, 18960, Note_on_c, 1, 64, 127
1, 19008, Note_off_c, 1, 64, 0
1, 19440, Note_off_c, 1, 50, 0
1, 19440, Note_on_c, 1, 73, 127
1, 19548, Note_off_c, 1, 73, 0
1, 19560, Note_on_c, 1, 50, 127
1, 19560, Note_on_c, 1, 67, 127
1, 19608, Note_off_c, 1, 67, 0
1, 19620, Note_on_c, 1, 73, 127
1, 19668, Note_off_c, 1, 73, 0
1, 19680, Note_on_c, 1, 64, 127
1, 19728, Note_off_c, 1, 64, 0
1, 20160, Note_on_c, 1, 81, 127
1, 20160, Note_on_c, 1, 74, 127
1, 20160, Note_on_c, 1, 78, 127
1, 20160, Note_on_c, 1, 66, 127
1, 20160, Note_on_c, 1, 57, 127
1, 20160, Note_on_c, 1, 38, 127
1, 20160, Note_on_c, 1, 62, 127
1, 20208, Note_off_c, 1, 62, 0
1, 20256, Note_off_c, 1, 81, 0
1, 20256, Note_off_c, 1, 78, 0
1, 20280, Note_off_c, 1, 74, 0
1, 20280, Note_off_c, 1, 66, 0
1, 20280, Note_on_c, 1, 54, 127
1, 20352, Note_off_c, 1, 50, 0
1, 20352, Note_off_c, 1, 38, 0
1, 20400, Note_on_c, 1, 69, 127
1, 20508, Note_off_c, 1, 69, 0
1, 20856, Note_off_c, 1, 57, 0
1, 20856, Note_off_c, 1, 54, 0
1, 20880, Note_on_c, 1, 69, 127
1, 20880, Note_on_c, 1, 78, 127
1, 20880, Note_on_c, 1, 74, 127
1, 20880, Note_on_c, 1, 50, 127
1, 20880, Note_on_c, 1, 66, 127
1, 20928, Note_off_c, 1, 66, 0
1, 20940, Note_on_c, 1, 67, 127
1, 20976, Note_off_c, 1, 69, 0
1, 20976, Note_off_c, 1, 78, 0
1, 20976, Note_off_c, 1, 74, 0
1, 20988, Note_off_c, 1, 67, 0
1, 21000, Note_on_c, 1, 62, 127
1, 21000, Note_on_c, 1, 57, 127
1, 21072, Note_off_c, 1, 50, 0
1, 21576, Note_off_c, 1, 62, 0
1, 21576, Note_off_c, 1, 57, 0
1, 21600, Note_on_c, 1, 69, 127
1, 21600, Note_on_c, 1, 74, 127
1, 21600, Note_on_c, 1, 66, 127
1, 21600, Note_on_c, 1, 38, 127
1, 21600, Note_on_c, 1, 50, 127
1, 21660, Note_on_c, 1, 71, 127
1, 21696, Note_off_c, 1, 69, 0
1, 21696, Note_off_c, 1, 74, 0
1, 21696, Note_off_c, 1, 66, 0
1, 21708, Note_off_c, 1, 71, 0
1, 21720, Note_on_c, 1, 62, 127
1, 21792, Note_off_c, 1, 38, 0
1, 21792, Note_off_c, 1, 50, 0
1, 21840, Note_on_c, 1, 72, 127
1, 21888, Note_off_c, 1, 72, 0
1, 21900, Note_on_c, 1, 78, 127
1, 21948, Note_off_c, 1, 78, 0
1, 22296, Note_off_c, 1, 62, 0
1, 22320, Note_on_c, 1, 62, 127
1, 22320, Note_on_c, 1, 57, 127
1, 22320, Note_on_c, 1, 66, 127
1, 22320, Note_on_c, 1, 50, 127
1, 22320, Note_on_c, 1, 72, 127
1, 22368, Note_off_c, 1, 72, 0
1, 22380, Note_on_c, 1, 81, 127
1, 22416, Note_off_c, 1, 62, 0
1, 22416, Note_off_c, 1, 57, 0
1, 22416, Note_off_c, 1, 66, 0
1, 22428, Note_off_c, 1, 81, 0
1, 22440, Note_on_c, 1, 69, 127
1, 22440, Note_on_c, 1, 78, 127
1, 22488, Note_off_c, 1, 78, 0
1, 22500, Note_on_c, 1, 74, 127
1, 22512, Note_off_c, 1, 50, 0
1, 22548, Note_off_c, 1, 74, 0
1, 22560, Note_on_c, 1, 54, 127
1, 22656, Note_off_c, 1, 54, 0
1, 22800, Note_on_c, 1, 60, 127
1, 22848, Note_off_c, 1, 60, 0
1, 22860, Note_on_c, 1, 59, 127
1, 22908, Note_off_c, 1, 59, 0
1, 23016, Note_off_c, 1, 69, 0
1, 23040, Note_on_c, 1, 69, 127
1, 23040, Note_on_c, 1, 71, 127
1, 23040, Note_on_c, 1, 66, 127
1, 23040, Note_on_c, 1, 51, 127
1, 23040, Note_on_c, 1, 59, 127
1, 23088, Note_off_c, 1, 59, 0
1, 23100, Note_on_c, 1, 61, 127
1, 23148, Note_off_c, 1, 61, 0
1, 23153, Note_off_c, 1, 51, 0
1, 23280, Note_on_c, 1, 63, 127
1, 23328, Note_off_c, 1, 63, 0
1, 23628, Note_off_c, 1, 66, 0
1, 23820, Note_on_c, 1, 64, 127
1, 23868, Note_off_c, 1, 64, 0
1, 23880, Note_on_c, 1, 54, 127
1, 24480, Note_off_c, 1, 54, 0
1, 24540, Note_on_c, 1, 67, 127
1, 24588, Note_off_c, 1, 67, 0
1, 24780, Note_on_c, 1, 75, 127
1, 24828, Note_off_c, 1, 75, 0
1, 25260, Note_on_c, 1, 78, 127
1, 25308, Note_off_c, 1, 78, 0
1, 25320, Note_on_c, 1, 47, 127
1, 25440, Note_on_c, 1, 81, 127
1, 25488, Note_off_c, 1, 81, 0
1, 25560, Note_on_c, 1, 79, 127
1, 25608, Note_off_c, 1, 79, 0
1, 25620, Note_on_c, 1, 76, 127
1, 25668, Note_off_c, 1, 76, 0
1, 25776, Note_off_c, 1, 69, 0
1, 25920, Note_off_c, 1, 47, 0
1, 25920, Note_on_c, 1, 40, 127
1, 26112, Note_off_c, 1, 71, 0
1, 26112, Note_off_c, 1, 40, 0
1, 26160, Note_on_c, 1, 70, 127
1, 26160, Note_on_c, 1, 79, 127
1, 26160, Note_on_c, 1, 61, 127
1, 26160, Note_on_c, 1, 73, 127
1, 26160, Note_on_c, 1, 76, 127
1, 26208, Note_off_c, 1, 76, 0
1, 26280, Note_on_c, 1, 52, 127
1, 26280, Note_on_c, 1, 74, 127
1, 26328, Note_off_c, 1, 74, 0
1, 26340, Note_on_c, 1, 71, 127
1, 26352, Note_off_c, 1, 70, 0
1, 26352, Note_off_c, 1, 79, 0
1, 26352, Note_off_c, 1, 61, 0
1, 26352, Note_off_c, 1, 73, 0
1, 26376, Note_off_c, 1, 52, 0
1, 26388, Note_off_c, 1, 71, 0
1, 26400, Note_on_c, 1, 54, 127
1, 26400, Note_on_c, 1, 70, 127
1, 26448, Note_off_c, 1, 70, 0
1, 26460, Note_on_c, 1, 73, 127
1, 26496, Note_off_c, 1, 54, 0
1, 26508, Note_off_c, 1, 73, 0
1, 26520, Note_on_c, 1, 46, 127
1, 26520, Note_on_c, 1, 66, 127
1, 26568, Note_off_c, 1, 66, 0
1, 26580, Note_on_c, 1, 64, 127
1, 26616, Note_off_c, 1, 46, 0
1, 26628, Note_off_c, 1, 64, 0
1, 26640, Note_on_c, 1, 78, 127
1, 26640, Note_on_c, 1, 66, 127
1, 26640, Note_on_c, 1, 47, 127
1, 26640, Note_on_c, 1, 67, 127
1, 26640, Note_on_c, 1, 62, 127
1, 26688, Note_off_c, 1, 62, 0
1, 26820, Note_on_c, 1, 59, 127
1, 26832, Note_off_c, 1, 78, 0
1, 26832, Note_off_c, 1, 66, 0
1, 26832, Note_off_c, 1, 47, 0
1, 26832, Note_off_c, 1, 67, 0
1, 26868, Note_off_c, 1, 59, 0
1, 26880, Note_on_c, 1, 83, 127
1, 26880, Note_on_c, 1, 78, 127
1, 26880, Note_on_c, 1, 62, 127
1, 26880, Note_on_c, 1, 74, 127
1, 26940, Note_on_c, 1, 66, 127
1, 26988, Note_off_c, 1, 66, 0
1, 27000, Note_on_c, 1, 50, 127
1, 27000, Note_on_c, 1, 71, 127
1, 27048, Note_off_c, 1, 71, 0
1, 27072, Note_off_c, 1, 83, 0
1, 27072, Note_off_c, 1, 78, 0
1, 27072, Note_off_c, 1, 62, 0
1, 27072, Note_off_c, 1, 74, 0
1, 27096, Note_off_c, 1, 50, 0
1, 27120, Note_on_c, 1, 47, 127
1, 27120, Note_on_c, 1, 74, 127
1, 27168, Note_off_c, 1, 74, 0
1, 27180, Note_on_c, 1, 71, 127
1, 27216, Note_off_c, 1, 47, 0
1, 27228, Note_off_c, 1, 71, 0
1, 27240, Note_on_c, 1, 50, 127
1, 27240, Note_on_c, 1, 78, 127
1, 27288, Note_off_c, 1, 78, 0
1, 27300, Note_on_c, 1, 71, 127
1, 27336, Note_off_c, 1, 50, 0
1, 27348, Note_off_c, 1, 71, 0
1, 27360, Note_on_c, 1, 54, 127
1, 27360, Note_on_c, 1, 70, 127
1, 27408, Note_off_c, 1, 70, 0
1, 27420, Note_on_c, 1, 73, 127
1, 27468, Note_off_c, 1, 73, 0
1, 27480, Note_on_c, 1, 66, 127
1, 27480, Note_on_c, 1, 61, 127
1, 27480, Note_on_c, 1, 58, 127
1, 27576, Note_off_c, 1, 61, 0
1, 27576, Note_off_c, 1, 58, 0
1, 27588, Note_off_c, 1, 66, 0
1, 27600, Note_on_c, 1, 78, 127
1, 27648, Note_off_c, 1, 78, 0
1, 27660, Note_on_c, 1, 77, 127
1, 27708, Note_off_c, 1, 77, 0
1, 27960, Note_on_c, 1, 74, 127
1, 28008, Note_off_c, 1, 74, 0
1, 28020, Note_on_c, 1, 71, 127
1, 28068, Note_off_c, 1, 71, 0
1, 28320, Note_on_c, 1, 76, 127
1, 28368, Note_off_c, 1, 76, 0
1, 28380, Note_on_c, 1, 75, 127
1, 28428, Note_off_c, 1, 75, 0
1, 29040, Note_on_c, 1, 62, 127
1, 29040, Note_on_c, 1, 67, 127
1, 29088, Note_off_c, 1, 67, 0
1, 29136, Note_off_c, 1, 62, 0
1, 29400, Note_on_c, 1, 59, 127
1, 29508, Note_off_c, 1, 59, 0
1, 29580, Note_on_c, 1, 64, 127
1, 29628, Note_off_c, 1, 64, 0
1, 30096, Note_off_c, 1, 54, 0
1, 30120, Note_on_c, 1, 56, 127
1, 30216, Note_off_c, 1, 56, 0
1, 30360, Note_on_c, 1, 42, 127
1, 30960, Note_off_c, 1, 42, 0
1, 31560, Note_on_c, 1, 65, 127
1, 31656, Note_off_c, 1, 65, 0
1, 33360, Note_on_c, 1, 71, 127
1, 33360, Note_on_c, 1, 74, 127
1, 33360, Note_on_c, 1, 65, 127
1, 33360, Note_on_c, 1, 54, 127
1, 33456, Note_off_c, 1, 71, 0
1, 33456, Note_off_c, 1, 74, 0
1, 33468, Note_off_c, 1, 65, 0
1, 33552, Note_off_c, 1, 54, 0
1, 33600, Note_on_c, 1, 71, 127
1, 33600, Note_on_c, 1, 74, 127
1, 33600, Note_on_c, 1, 65, 127
1, 33696, Note_off_c, 1, 71, 0
1, 33696, Note_off_c, 1, 74, 0
1, 33708, Note_off_c, 1, 65, 0
1, 33720, Note_on_c, 1, 74, 127
1, 33720, Note_on_c, 1, 71, 127
1, 33720, Note_on_c, 1, 65, 127
1, 33720, Note_on_c, 1, 42, 127
1, 33816, Note_off_c, 1, 74, 0
1, 33816, Note_off_c, 1, 71, 0
1, 33816, Note_off_c, 1, 42, 0
1, 33828, Note_off_c, 1, 65, 0
1, 33840, Note_on_c, 1, 42, 127
1, 33840, Note_on_c, 1, 54, 127
1, 33888, Note_off_c, 1, 54, 0
1, 33900, Note_on_c, 1, 65, 127
1, 33948, Note_off_c, 1, 65, 0
1, 33960, Note_on_c, 1, 71, 127
1, 33960, Note_on_c, 1, 74, 127
1, 34032, Note_off_c, 1, 42, 0
1, 34056, Note_off_c, 1, 71, 0
1, 34056, Note_off_c, 1, 74, 0
1, 34080, Note_on_c, 1, 71, 127
1, 34080, Note_on_c, 1, 74, 127
1, 34080, Note_on_c, 1, 65, 127
1, 34080, Note_on_c, 1, 54, 127
1, 34176, Note_off_c, 1, 71, 0
1, 34176, Note_off_c, 1, 74, 0
1, 34188, Note_off_c, 1, 65, 0
1, 34272, Note_off_c, 1, 54, 0
1, 34320, Note_on_c, 1, 74, 127
1, 34320, Note_on_c, 1, 71, 127
1, 34320, Note_on_c, 1, 65, 127
1, 34416, Note_off_c, 1, 74, 0
1, 34416, Note_off_c, 1, 71, 0
1, 34428, Note_off_c, 1, 65, 0
1, 34440, Note_on_c, 1, 71, 127
1, 34440, Note_on_c, 1, 74, 127
1, 34440, Note_on_c, 1, 65, 127
1, 34440, Note_on_c, 1, 42, 127
1, 34536, Note_off_c, 1, 71, 0
1, 34536, Note_off_c, 1, 74, 0
1, 34536, Note_off_c, 1, 42, 0
1, 34548, Note_off_c, 1, 65, 0
1, 34560, Note_on_c, 1, 42, 127
1, 34560, Note_on_c, 1, 54, 127
1, 34608, Note_off_c, 1, 54, 0
1, 34620, Note_on_c, 1, 66, 127
1, 34668, Note_off_c, 1, 66, 0
1, 34680, Note_on_c, 1, 71, 127
1, 34680, Note_on_c, 1, 73, 127
1, 34752, Note_off_c, 1, 42, 0
1, 34776, Note_off_c, 1, 71, 0
1, 34776, Note_off_c, 1, 73, 0
1, 34800, Note_on_c, 1, 71, 127
1, 34800, Note_on_c, 1, 73, 127
1, 34800, Note_on_c, 1, 66, 127
1, 34800, Note_on_c, 1, 54, 127
1, 34896, Note_off_c, 1, 71, 0
1, 34896, Note_off_c, 1, 73, 0
1, 34908, Note_off_c, 1, 66, 0
1, 34992, Note_off_c, 1, 54, 0
1, 35040, Note_on_c, 1, 73, 127
1, 35040, Note_on_c, 1, 71, 127
1, 35040, Note_on_c, 1, 66, 127
1, 35136, Note_off_c, 1, 73, 0
1, 35136, Note_off_c, 1, 71, 0
1, 35148, Note_off_c, 1, 66, 0
1, 35160, Note_on_c, 1, 71, 127
1, 35160, Note_on_c, 1, 73, 127
1, 35160, Note_on_c, 1, 66, 127
1, 35160, Note_on_c, 1, 42, 127
1, 35256, Note_off_c, 1, 71, 0
1, 35256, Note_off_c, 1, 73, 0
1, 35256, Note_off_c, 1, 42, 0
1, 35268, Note_off_c, 1, 66, 0
1, 35280, Note_on_c, 1, 42, 127
1, 35280, Note_on_c, 1, 54, 127
1, 35328, Note_off_c, 1, 54, 0
1, 35340, Note_on_c, 1, 64, 127
1, 35388, Note_off_c, 1, 64, 0
1, 35400, Note_on_c, 1, 70, 127
1, 35400, Note_on_c, 1, 73, 127
1, 35472, Note_off_c, 1, 42, 0
1, 35496, Note_off_c, 1, 70, 0
1, 35496, Note_off_c, 1, 73, 0
1, 35520, Note_on_c, 1, 70, 127
1, 35520, Note_on_c, 1, 73, 127
1, 35520, Note_on_c, 1, 64, 127
1, 35520, Note_on_c, 1, 54, 127
1, 35616, Note_off_c, 1, 70, 0
1, 35616, Note_off_c, 1, 73, 0
1, 35628, Note_off_c, 1, 64, 0
1, 35712, Note_off_c, 1, 54, 0
1, 35760, Note_on_c, 1, 73, 127
1, 35760, Note_on_c, 1, 70, 127
1, 35760, Note_on_c, 1, 64, 127
1, 35856, Note_off_c, 1, 73, 0
1, 35856, Note_off_c, 1, 70, 0
1, 35868, Note_off_c, 1, 64, 0
1, 35880, Note_on_c, 1, 70, 127
1, 35880, Note_on_c, 1, 73, 127
1, 35880, Note_on_c, 1, 64, 127
1, 35880, Note_on_c, 1, 42, 127
1, 35976, Note_off_c, 1, 70, 0
1, 35976, Note_off_c, 1, 73, 0
1, 35976, Note_off_c, 1, 42, 0
1, 35988, Note_off_c, 1, 64, 0
1, 36000, Note_on_c, 1, 66, 127
1, 36000, Note_on_c, 1, 71, 127
1, 36000, Note_on_c, 1, 62, 127
1, 36000, Note_on_c, 1, 47, 127
1, 36000, Note_on_c, 1, 43, 127
1, 36096, Note_off_c, 1, 47, 0
1, 36120, Note_on_c, 1, 69, 127
1, 36168, Note_off_c, 1, 69, 0
1, 36180, Note_on_c, 1, 67, 127
1, 36192, Note_off_c, 1, 66, 0
1, 36192, Note_off_c, 1, 71, 0
1, 36192, Note_off_c, 1, 62, 0
1, 36192, Note_off_c, 1, 43, 0
1, 36228, Note_off_c, 1, 67, 0
1, 36240, Note_on_c, 1, 66, 127
1, 36240, Note_on_c, 1, 83, 127
1, 36240, Note_on_c, 1, 74, 127
1, 36240, Note_on_c, 1, 50, 127
1, 36300, Note_on_c, 1, 71, 127
1, 36336, Note_off_c, 1, 66, 0
1, 36336, Note_off_c, 1, 83, 0
1, 36336, Note_off_c, 1, 74, 0
1, 36336, Note_off_c, 1, 50, 0
1, 36348, Note_off_c, 1, 71, 0
1, 36360, Note_on_c, 1, 54, 127
1, 36360, Note_on_c, 1, 66, 127
1, 36408, Note_off_c, 1, 66, 0
1, 36420, Note_on_c, 1, 64, 127
1, 36456, Note_off_c, 1, 54, 0
1, 36468, Note_off_c, 1, 64, 0
1, 36480, Note_on_c, 1, 74, 127
1, 36480, Note_on_c, 1, 78, 127
1, 36480, Note_on_c, 1, 66, 127
1, 36480, Note_on_c, 1, 59, 127
1, 36480, Note_on_c, 1, 62, 127
1, 36528, Note_off_c, 1, 62, 0
1, 36576, Note_off_c, 1, 74, 0
1, 36576, Note_off_c, 1, 78, 0
1, 36588, Note_off_c, 1, 66, 0
1, 36660, Note_on_c, 1, 61, 127
1, 36672, Note_off_c, 1, 59, 0
1, 36708, Note_off_c, 1, 61, 0
1, 36720, Note_on_c, 1, 74, 127
1, 36720, Note_on_c, 1, 71, 127
1, 36720, Note_on_c, 1, 66, 127
1, 36720, Note_on_c, 1, 59, 127
1, 36720, Note_on_c, 1, 43, 127
1, 36768, Note_off_c, 1, 59, 0
1, 36840, Note_on_c, 1, 47, 127
1, 36900, Note_on_c, 1, 64, 127
1, 36912, Note_off_c, 1, 74, 0
1, 36912, Note_off_c, 1, 71, 0
1, 36912, Note_off_c, 1, 66, 0
1, 36912, Note_off_c, 1, 43, 0
1, 36936, Note_off_c, 1, 47, 0
1, 36948, Note_off_c, 1, 64, 0
1, 36960, Note_on_c, 1, 66, 127
1, 36960, Note_on_c, 1, 78, 127
1, 36960, Note_on_c, 1, 83, 127
1, 36960, Note_on_c, 1, 50, 127
1, 36960, Note_on_c, 1, 62, 127
1, 37008, Note_off_c, 1, 62, 0
1, 37056, Note_off_c, 1, 78, 0
1, 37056, Note_off_c, 1, 83, 0
1, 37056, Note_off_c, 1, 50, 0
1, 37068, Note_off_c, 1, 66, 0
1, 37080, Note_on_c, 1, 54, 127
1, 37080, Note_on_c, 1, 62, 127
1, 37128, Note_off_c, 1, 62, 0
1, 37140, Note_on_c, 1, 61, 127
1, 37176, Note_off_c, 1, 54, 0
1, 37188, Note_off_c, 1, 61, 0
1, 37200, Note_on_c, 1, 78, 127
1, 37200, Note_on_c, 1, 66, 127
1, 37200, Note_on_c, 1, 74, 127
1, 37200, Note_on_c, 1, 59, 127
1, 37260, Note_on_c, 1, 62, 127
1, 37296, Note_off_c, 1, 78, 0
1, 37296, Note_off_c, 1, 66, 0
1, 37296, Note_off_c, 1, 74, 0
1, 37296, Note_off_c, 1, 59, 0
1, 37308, Note_off_c, 1, 62, 0
1, 37320, Note_on_c, 1, 47, 127
1, 37320, Note_on_c, 1, 59, 127
1, 37368, Note_off_c, 1, 59, 0
1, 37380, Note_on_c, 1, 57, 127
1, 37416, Note_off_c, 1, 47, 0
1, 37428, Note_off_c, 1, 57, 0
1, 37440, Note_on_c, 1, 52, 127
1, 37440, Note_on_c, 1, 56, 127
1, 37488, Note_off_c, 1, 56, 0
1, 37500, Note_on_c, 1, 64, 127
1, 37548, Note_off_c, 1, 64, 0
1, 37560, Note_on_c, 1, 59, 127
1, 37560, Note_on_c, 1, 71, 127
1, 37608, Note_off_c, 1, 71, 0
1, 37632, Note_off_c, 1, 52, 0
1, 37656, Note_off_c, 1, 59, 0
1, 37680, Note_on_c, 1, 64, 127
1, 37680, Note_on_c, 1, 68, 127
1, 37680, Note_on_c, 1, 59, 127
1, 37680, Note_on_c, 1, 74, 127
1, 37728, Note_off_c, 1, 74, 0
1, 37776, Note_off_c, 1, 68, 0
1, 37776, Note_off_c, 1, 59, 0
1, 37788, Note_off_c, 1, 64, 0
1, 37800, Note_on_c, 1, 68, 127
1, 37800, Note_on_c, 1, 71, 127
1, 37800, Note_on_c, 1, 64, 127
1, 37896, Note_off_c, 1, 68, 0
1, 37896, Note_off_c, 1, 71, 0
1, 37908, Note_off_c, 1, 64, 0
1, 37920, Note_on_c, 1, 71, 127
1, 37920, Note_on_c, 1, 74, 127
1, 37920, Note_on_c, 1, 68, 127
1, 37980, Note_on_c, 1, 64, 127
1, 38028, Note_off_c, 1, 64, 0
1, 38145, Note_off_c, 1, 71, 0
1, 38145, Note_off_c, 1, 74, 0
1, 38145, Note_off_c, 1, 68, 0
1, 38160, Note_on_c, 1, 40, 127
1, 38160, Note_on_c, 1, 52, 127
1, 38160, Note_on_c, 1, 56, 127
1, 38208, Note_off_c, 1, 56, 0
1, 38220, Note_on_c, 1, 64, 127
1, 38268, Note_off_c, 1, 64, 0
1, 38280, Note_off_c, 1, 52, 0
1, 38280, Note_on_c, 1, 59, 127
1, 38280, Note_on_c, 1, 68, 127
1, 38280, Note_on_c, 1, 71, 127
1, 38328, Note_off_c, 1, 71, 0
1, 38352, Note_off_c, 1, 40, 0
1, 38376, Note_off_c, 1, 59, 0
1, 38376, Note_off_c, 1, 68, 0
1, 38400, Note_on_c, 1, 64, 127
1, 38400, Note_on_c, 1, 68, 127
1, 38400, Note_on_c, 1, 59, 127
1, 38400, Note_on_c, 1, 74, 127
1, 38448, Note_off_c, 1, 74, 0
1, 38496, Note_off_c, 1, 68, 0
1, 38496, Note_off_c, 1, 59, 0
1, 38508, Note_off_c, 1, 64, 0
1, 38520, Note_on_c, 1, 68, 127
1, 38520, Note_on_c, 1, 71, 127
1, 38520, Note_on_c, 1, 64, 127
1, 38616, Note_off_c, 1, 68, 0
1, 38616, Note_off_c, 1, 71, 0
1, 38628, Note_off_c, 1, 64, 0
1, 38640, Note_on_c, 1, 74, 127
1, 38640, Note_on_c, 1, 71, 127
1, 38640, Note_on_c, 1, 68, 127
1, 38700, Note_on_c, 1, 64, 127
1, 38736, Note_off_c, 1, 74, 0
1, 38736, Note_off_c, 1, 71, 0
1, 38736, Note_off_c, 1, 68, 0
1, 38748, Note_off_c, 1, 64, 0
1, 38760, Note_on_c, 1, 71, 127
1, 38760, Note_on_c, 1, 68, 127
1, 38820, Note_on_c, 1, 64, 127
1, 38856, Note_off_c, 1, 71, 0
1, 38856, Note_off_c, 1, 68, 0
1, 38868, Note_off_c, 1, 64, 0
1, 38880, Note_on_c, 1, 73, 127
1, 38880, Note_on_c, 1, 69, 127
1, 38880, Note_on_c, 1, 64, 127
1, 38880, Note_on_c, 1, 57, 127
1, 38880, Note_on_c, 1, 45, 127
1, 38928, Note_off_c, 1, 57, 0
1, 38940, Note_on_c, 1, 81, 127
1, 38988, Note_off_c, 1, 81, 0
1, 39000, Note_on_c, 1, 80, 127
1, 39048, Note_off_c, 1, 80, 0
1, 39060, Note_on_c, 1, 78, 127
1, 39072, Note_off_c, 1, 73, 0
1, 39072, Note_off_c, 1, 69, 0
1, 39072, Note_off_c, 1, 64, 0
1, 39096, Note_off_c, 1, 45, 0
1, 39108, Note_off_c, 1, 78, 0
1, 39120, Note_on_c, 1, 69, 127
1, 39120, Note_on_c, 1, 85, 127
1, 39120, Note_on_c, 1, 81, 127
1, 39120, Note_on_c, 1, 49, 127
1, 39120, Note_on_c, 1, 76, 127
1, 39168, Note_off_c, 1, 76, 0
1, 39216, Note_off_c, 1, 69, 0
1, 39216, Note_off_c, 1, 85, 0
1, 39216, Note_off_c, 1, 49, 0
1, 39228, Note_off_c, 1, 81, 0
1, 39240, Note_on_c, 1, 52, 127
1, 39240, Note_on_c, 1, 76, 127
1, 39288, Note_off_c, 1, 76, 0
1, 39300, Note_on_c, 1, 74, 127
1, 39336, Note_off_c, 1, 52, 0
1, 39348, Note_off_c, 1, 74, 0
1, 39360, Note_on_c, 1, 81, 127
1, 39360, Note_on_c, 1, 69, 127
1, 39360, Note_on_c, 1, 76, 127
1, 39360, Note_on_c, 1, 57, 127
1, 39360, Note_on_c, 1, 73, 127
1, 39408, Note_off_c, 1, 73, 0
1, 39456, Note_off_c, 1, 81, 0
1, 39456, Note_off_c, 1, 69, 0
1, 39468, Note_off_c, 1, 76, 0
1, 39540, Note_on_c, 1, 71, 127
1, 39552, Note_off_c, 1, 57, 0
1, 39588, Note_off_c, 1, 71, 0
1, 39600, Note_on_c, 1, 73, 127
1, 39600, Note_on_c, 1, 76, 127
1, 39600, Note_on_c, 1, 69, 127
1, 39600, Note_on_c, 1, 57, 127
1, 39600, Note_on_c, 1, 45, 127
1, 39660, Note_on_c, 1, 81, 127
1, 39708, Note_off_c, 1, 81, 0
1, 39780, Note_on_c, 1, 74, 127
1, 39792, Note_off_c, 1, 73, 0
1, 39792, Note_off_c, 1, 76, 0
1, 39792, Note_off_c, 1, 69, 0
1, 39792, Note_off_c, 1, 57, 0
1, 39816, Note_off_c, 1, 45, 0
1, 39828, Note_off_c, 1, 74, 0
1, 39840, Note_on_c, 1, 69, 127
1, 39840, Note_on_c, 1, 81, 127
1, 39840, Note_on_c, 1, 76, 127
1, 39840, Note_on_c, 1, 49, 127
1, 39840, Note_on_c, 1, 73, 127
1, 39888, Note_off_c, 1, 73, 0
1, 39936, Note_off_c, 1, 69, 0
1, 39936, Note_off_c, 1, 81, 0
1, 39936, Note_off_c, 1, 49, 0
1, 39948, Note_off_c, 1, 76, 0
1, 39960, Note_on_c, 1, 52, 127
1, 39960, Note_on_c, 1, 73, 127
1, 40008, Note_off_c, 1, 73, 0
1, 40020, Note_on_c, 1, 71, 127
1, 40056, Note_off_c, 1, 52, 0
1, 40068, Note_off_c, 1, 71, 0
1, 40080, Note_on_c, 1, 76, 127
1, 40080, Note_on_c, 1, 69, 127
1, 40080, Note_on_c, 1, 85, 127
1, 40080, Note_on_c, 1, 57, 127
1, 40140, Note_on_c, 1, 73, 127
1, 40176, Note_off_c, 1, 76, 0
1, 40176, Note_off_c, 1, 69, 0
1, 40176, Note_off_c, 1, 85, 0
1, 40176, Note_off_c, 1, 57, 0
1, 40188, Note_off_c, 1, 73, 0
1, 40200, Note_on_c, 1, 45, 127
1, 40200, Note_on_c, 1, 69, 127
1, 40248, Note_off_c, 1, 69, 0
1, 40260, Note_on_c, 1, 67, 127
1, 40296, Note_off_c, 1, 45, 0
1, 40308, Note_off_c, 1, 67, 0
1, 40320, Note_on_c, 1, 50, 127
1, 40320, Note_on_c, 1, 66, 127
1, 40368, Note_off_c, 1, 66, 0
1, 40380, Note_on_c, 1, 72, 127
1, 40428, Note_off_c, 1, 72, 0
1, 40440, Note_on_c, 1, 69, 127
1, 40440, Note_on_c, 1, 74, 127
1, 40440, Note_on_c, 1, 71, 127
1, 40488, Note_off_c, 1, 71, 0
1, 40512, Note_off_c, 1, 50, 0
1, 40536, Note_off_c, 1, 69, 0
1, 40536, Note_off_c, 1, 74, 0
1, 40560, Note_on_c, 1, 78, 127
1, 40560, Note_on_c, 1, 74, 127
1, 40560, Note_on_c, 1, 69, 127
1, 40620, Note_on_c, 1, 72, 127
1, 40656, Note_off_c, 1, 78, 0
1, 40656, Note_off_c, 1, 74, 0
1, 40656, Note_off_c, 1, 69, 0
1, 40668, Note_off_c, 1, 72, 0
1, 40680, Note_on_c, 1, 78, 127
1, 40680, Note_on_c, 1, 81, 127
1, 40680, Note_on_c, 1, 74, 127
1, 40740, Note_on_c, 1, 72, 127
1, 40776, Note_off_c, 1, 78, 0
1, 40776, Note_off_c, 1, 81, 0
1, 40776, Note_off_c, 1, 74, 0
1, 40788, Note_off_c, 1, 72, 0
1, 40800, Note_on_c, 1, 81, 127
1, 40800, Note_on_c, 1, 84, 127
1, 40800, Note_on_c, 1, 66, 127
1, 40800, Note_on_c, 1, 78, 127
1, 40860, Note_on_c, 1, 72, 127
1, 40908, Note_off_c, 1, 72, 0
1, 40920, Note_on_c, 1, 74, 127
1, 40968, Note_off_c, 1, 74, 0
1, 41025, Note_off_c, 1, 81, 0
1, 41025, Note_off_c, 1, 84, 0
1, 41025, Note_off_c, 1, 66, 0
1, 41025, Note_off_c, 1, 78, 0
1, 41040, Note_on_c, 1, 38, 127
1, 41040, Note_on_c, 1, 66, 127
1, 41088, Note_off_c, 1, 66, 0
1, 41100, Note_on_c, 1, 72, 127
1, 41148, Note_off_c, 1, 72, 0
1, 41160, Note_on_c, 1, 57, 127
1, 41160, Note_on_c, 1, 62, 127
1, 41160, Note_on_c, 1, 54, 127
1, 41160, Note_on_c, 1, 74, 127
1, 41208, Note_off_c, 1, 74, 0
1, 41232, Note_off_c, 1, 38, 0
1, 41256, Note_off_c, 1, 57, 0
1, 41256, Note_off_c, 1, 62, 0
1, 41256, Note_off_c, 1, 54, 0
1, 41280, Note_on_c, 1, 62, 127
1, 41280, Note_on_c, 1, 66, 127
1, 41280, Note_on_c, 1, 57, 127
1, 41340, Note_on_c, 1, 72, 127
1, 41376, Note_off_c, 1, 62, 0
1, 41376, Note_off_c, 1, 66, 0
1, 41376, Note_off_c, 1, 57, 0
1, 41388, Note_off_c, 1, 72, 0
1, 41400, Note_on_c, 1, 69, 127
1, 41400, Note_on_c, 1, 66, 127
1, 41400, Note_on_c, 1, 62, 127
1, 41400, Note_on_c, 1, 64, 127
1, 41448, Note_off_c, 1, 64, 0
1, 41460, Note_on_c, 1, 72, 127
1, 41496, Note_off_c, 1, 69, 0
1, 41496, Note_off_c, 1, 66, 0
1, 41496, Note_off_c, 1, 62, 0
1, 41508, Note_off_c, 1, 72, 0
1, 41520, Note_on_c, 1, 69, 127
1, 41520, Note_on_c, 1, 72, 127
1, 41520, Note_on_c, 1, 66, 127
1, 41616, Note_off_c, 1, 69, 0
1, 41616, Note_off_c, 1, 66, 0
1, 41628, Note_off_c, 1, 72, 0
1, 41640, Note_on_c, 1, 69, 127
1, 41640, Note_on_c, 1, 66, 127
1, 41640, Note_on_c, 1, 62, 127
1, 41688, Note_off_c, 1, 62, 0
1, 41700, Note_on_c, 1, 72, 127
1, 41736, Note_off_c, 1, 69, 0
1, 41736, Note_off_c, 1, 66, 0
1, 41748, Note_off_c, 1, 72, 0
1, 41760, Note_on_c, 1, 83, 127
1, 41760, Note_on_c, 1, 90, 127
1, 41760, Note_on_c, 1, 86, 127
1, 41760, Note_on_c, 1, 74, 127
1, 41760, Note_on_c, 1, 78, 127
1, 41760, Note_on_c, 1, 71, 127
1, 41760, Note_on_c, 1, 43, 127
1, 41856, Note_off_c, 1, 83, 0
1, 41856, Note_off_c, 1, 90, 0
1, 41856, Note_off_c, 1, 86, 0
1, 41856, Note_off_c, 1, 78, 0
1, 41856, Note_off_c, 1, 71, 0
1, 41868, Note_off_c, 1, 74, 0
1, 41880, Note_on_c, 1, 62, 127
1, 41880, Note_on_c, 1, 79, 127
1, 41928, Note_off_c, 1, 79, 0
1, 41952, Note_off_c, 1, 43, 0
1, 41976, Note_off_c, 1, 62, 0
1, 42000, Note_on_c, 1, 79, 127
1, 42000, Note_on_c, 1, 83, 127
1, 42000, Note_on_c, 1, 74, 127
1, 42000, Note_on_c, 1, 71, 127
1, 42000, Note_on_c, 1, 67, 127
1, 42096, Note_off_c, 1, 79, 0
1, 42096, Note_off_c, 1, 83, 0
1, 42096, Note_off_c, 1, 71, 0
1, 42096, Note_off_c, 1, 67, 0
1, 42108, Note_off_c, 1, 74, 0
1, 42120, Note_on_c, 1, 76, 127
1, 42120, Note_on_c, 1, 72, 127
1, 42168, Note_off_c, 1, 72, 0
1, 42180, Note_on_c, 1, 74, 127
1, 42216, Note_off_c, 1, 76, 0
1, 42228, Note_off_c, 1, 74, 0
1, 42240, Note_on_c, 1, 74, 127
1, 42240, Note_on_c, 1, 71, 127
1, 42288, Note_off_c, 1, 71, 0
1, 42348, Note_off_c, 1, 74, 0
1, 42360, Note_on_c, 1, 72, 127
1, 42360, Note_on_c, 1, 69, 127
1, 42408, Note_off_c, 1, 69, 0
1, 42420, Note_on_c, 1, 74, 127
1, 42456, Note_off_c, 1, 72, 0
1, 42468, Note_off_c, 1, 74, 0
1, 42480, Note_on_c, 1, 71, 127
1, 42480, Note_on_c, 1, 67, 127
1, 42528, Note_off_c, 1, 67, 0
1, 42540, Note_on_c, 1, 79, 127
1, 42576, Note_off_c, 1, 71, 0
1, 42588, Note_off_c, 1, 79, 0
1, 42600, Note_on_c, 1, 55, 127
1, 42600, Note_on_c, 1, 78, 127
1, 42648, Note_off_c, 1, 55, 0
1, 42648, Note_off_c, 1, 78, 0
1, 42660, Note_on_c, 1, 57, 127
1, 42660, Note_on_c, 1, 76, 127
1, 42708, Note_off_c, 1, 57, 0
1, 42708, Note_off_c, 1, 76, 0
1, 42720, Note_on_c, 1, 59, 127
1, 42720, Note_on_c, 1, 74, 127
1, 42768, Note_off_c, 1, 74, 0
1, 42780, Note_on_c, 1, 67, 127
1, 42816, Note_off_c, 1, 59, 0
1, 42828, Note_off_c, 1, 67, 0
1, 42840, Note_on_c, 1, 60, 127
1, 42840, Note_on_c, 1, 76, 127
1, 42888, Note_off_c, 1, 76, 0
1, 42900, Note_on_c, 1, 67, 127
1, 42936, Note_off_c, 1, 60, 0
1, 42948, Note_off_c, 1, 67, 0
1, 42960, Note_on_c, 1, 59, 127
1, 42960, Note_on_c, 1, 74, 127
1, 43008, Note_off_c, 1, 74, 0
1, 43020, Note_on_c, 1, 67, 127
1, 43056, Note_off_c, 1, 59, 0
1, 43068, Note_off_c, 1, 67, 0
1, 43080, Note_on_c, 1, 57, 127
1, 43080, Note_on_c, 1, 72, 127
1, 43128, Note_off_c, 1, 72, 0
1, 43140, Note_on_c, 1, 67, 127
1, 43176, Note_off_c, 1, 57, 0
1, 43188, Note_off_c, 1, 67, 0
1, 43200, Note_on_c, 1, 74, 127
1, 43200, Note_on_c, 1, 83, 127
1, 43200, Note_on_c, 1, 79, 127
1, 43200, Note_on_c, 1, 71, 127
1, 43200, Note_on_c, 1, 50, 127
1, 43248, Note_off_c, 1, 71, 0
1, 43296, Note_off_c, 1, 83, 0
1, 43296, Note_off_c, 1, 79, 0
1, 43308, Note_off_c, 1, 74, 0
1, 43320, Note_on_c, 1, 66, 127
1, 43320, Note_on_c, 1, 69, 127
1, 43368, Note_off_c, 1, 69, 0
1, 43392, Note_off_c, 1, 50, 0
1, 43416, Note_off_c, 1, 66, 0
1, 43440, Note_on_c, 1, 62, 127
1, 43440, Note_on_c, 1, 74, 127
1, 43440, Note_on_c, 1, 79, 127
1, 43440, Note_on_c, 1, 67, 127
1, 43440, Note_on_c, 1, 71, 127
1, 43488, Note_off_c, 1, 71, 0
1, 43536, Note_off_c, 1, 62, 0
1, 43536, Note_off_c, 1, 79, 0
1, 43536, Note_off_c, 1, 67, 0
1, 43548, Note_off_c, 1, 74, 0
1, 43560, Note_on_c, 1, 64, 127
1, 43560, Note_on_c, 1, 72, 127
1, 43608, Note_off_c, 1, 72, 0
1, 43620, Note_on_c, 1, 74, 127
1, 43656, Note_off_c, 1, 64, 0
1, 43668, Note_off_c, 1, 74, 0
1, 43680, Note_on_c, 1, 62, 127
1, 43680, Note_on_c, 1, 71, 127
1, 43728, Note_off_c, 1, 71, 0
1, 43740, Note_on_c, 1, 74, 127
1, 43776, Note_off_c, 1, 62, 0
1, 43788, Note_off_c, 1, 74, 0
1, 43800, Note_on_c, 1, 60, 127
1, 43800, Note_on_c, 1, 69, 127
1, 43848, Note_off_c, 1, 69, 0
1, 43860, Note_on_c, 1, 74, 127
1, 43896, Note_off_c, 1, 60, 0
1, 43908, Note_off_c, 1, 74, 0
1, 43920, Note_on_c, 1, 59, 127
1, 43920, Note_on_c, 1, 67, 127
1, 43968, Note_off_c, 1, 67, 0
1, 43980, Note_on_c, 1, 79, 127
1, 44016, Note_off_c, 1, 59, 0
1, 44028, Note_off_c, 1, 79, 0
1, 44040, Note_on_c, 1, 43, 127
1, 44040, Note_on_c, 1, 78, 127
1, 44088, Note_off_c, 1, 43, 0
1, 44088, Note_off_c, 1, 78, 0
1, 44100, Note_on_c, 1, 45, 127
1, 44100, Note_on_c, 1, 76, 127
1, 44148, Note_off_c, 1, 45, 0
1, 44148, Note_off_c, 1, 76, 0
1, 44160, Note_on_c, 1, 47, 127
1, 44160, Note_on_c, 1, 74, 127
1, 44208, Note_off_c, 1, 74, 0
1, 44220, Note_on_c, 1, 67, 127
1, 44256, Note_off_c, 1, 47, 0
1, 44268, Note_off_c, 1, 67, 0
1, 44280, Note_on_c, 1, 48, 127
1, 44280, Note_on_c, 1, 76, 127
1, 44328, Note_off_c, 1, 76, 0
1, 44340, Note_on_c, 1, 67, 127
1, 44376, Note_off_c, 1, 48, 0
1, 44388, Note_off_c, 1, 67, 0
1, 44400, Note_on_c, 1, 47, 127
1, 44400, Note_on_c, 1, 74, 127
1, 44448, Note_off_c, 1, 74, 0
1, 44460, Note_on_c, 1, 67, 127
1, 44496, Note_off_c, 1, 47, 0
1, 44508, Note_off_c, 1, 67, 0
1, 44520, Note_on_c, 1, 45, 127
1, 44520, Note_on_c, 1, 72, 127
1, 44568, Note_off_c, 1, 72, 0
1, 44580, Note_on_c, 1, 67, 127
1, 44616, Note_off_c, 1, 45, 0
1, 44628, Note_off_c, 1, 67, 0
1, 44640, Note_on_c, 1, 43, 127
1, 44640, Note_on_c, 1, 71, 127
1, 44688, Note_off_c, 1, 71, 0
1, 44700, Note_on_c, 1, 67, 127
1, 44748, Note_off_c, 1, 67, 0
1, 44865, Note_off_c, 1, 43, 0
1, 44880, Note_on_c, 1, 66, 127
1, 44928, Note_off_c, 1, 66, 0
1, 44940, Note_on_c, 1, 67, 127
1, 44988, Note_off_c, 1, 67, 0
1, 45000, Note_on_c, 1, 67, 127
1, 45048, Note_off_c, 1, 67, 0
1, 45060, Note_on_c, 1, 67, 127
1, 45108, Note_off_c, 1, 67, 0
1, 45120, Note_on_c, 1, 69, 127
1, 45168, Note_off_c, 1, 69, 0
1, 45180, Note_on_c, 1, 67, 127
1, 45228, Note_off_c, 1, 67, 0
1, 45240, Note_on_c, 1, 66, 127
1, 45288, Note_off_c, 1, 66, 0
1, 45300, Note_on_c, 1, 67, 127
1, 45348, Note_off_c, 1, 67, 0
1, 45360, Note_on_c, 1, 67, 127
1, 45408, Note_off_c, 1, 67, 0
1, 45420, Note_on_c, 1, 67, 127
1, 45468, Note_off_c, 1, 67, 0
1, 45480, Note_on_c, 1, 67, 127
1, 45480, Note_on_c, 1, 71, 127
1, 45528, Note_off_c, 1, 71, 0
1, 45588, Note_off_c, 1, 67, 0
1, 45600, Note_on_c, 1, 66, 127
1, 45600, Note_on_c, 1, 69, 127
1, 45648, Note_off_c, 1, 69, 0
1, 45660, Note_on_c, 1, 67, 127
1, 45696, Note_off_c, 1, 66, 0
1, 45708, Note_off_c, 1, 67, 0
1, 45720, Note_on_c, 1, 67, 127
1, 45720, Note_on_c, 1, 71, 127
1, 45768, Note_off_c, 1, 71, 0
1, 45828, Note_off_c, 1, 67, 0
1, 45840, Note_on_c, 1, 69, 127
1, 45840, Note_on_c, 1, 72, 127
1, 45888, Note_off_c, 1, 72, 0
1, 45900, Note_on_c, 1, 67, 127
1, 45936, Note_off_c, 1, 69, 0
1, 45948, Note_off_c, 1, 67, 0
1, 45960, Note_on_c, 1, 66, 127
1, 45960, Note_on_c, 1, 69, 127
1, 46008, Note_off_c, 1, 69, 0
1, 46020, Note_on_c, 1, 67, 127
1, 46056, Note_off_c, 1, 66, 0
1, 46068, Note_off_c, 1, 67, 0
1, 46080, Note_on_c, 1, 67, 127
1, 46080, Note_on_c, 1, 71, 127
1, 46128, Note_off_c, 1, 71, 0
1, 46188, Note_off_c, 1, 67, 0
1, 46200, Note_on_c, 1, 59, 127
1, 46200, Note_on_c, 1, 67, 127
1, 46248, Note_off_c, 1, 67, 0
1, 46296, Note_off_c, 1, 59, 0
1, 46320, Note_on_c, 1, 57, 127
1, 46320, Note_on_c, 1, 66, 127
1, 46368, Note_off_c, 1, 66, 0
1, 46380, Note_on_c, 1, 67, 127
1, 46416, Note_off_c, 1, 57, 0
1, 46428, Note_off_c, 1, 67, 0
1, 46440, Note_on_c, 1, 59, 127
1, 46440, Note_on_c, 1, 67, 127
1, 46488, Note_off_c, 1, 67, 0
1, 46536, Note_off_c, 1, 59, 0
1, 46560, Note_on_c, 1, 60, 127
1, 46560, Note_on_c, 1, 69, 127
1, 46608, Note_off_c, 1, 69, 0
1, 46620, Note_on_c, 1, 67, 127
1, 46656, Note_off_c, 1, 60, 0
1, 46668, Note_off_c, 1, 67, 0
1, 46680, Note_on_c, 1, 57, 127
1, 46680, Note_on_c, 1, 66, 127
1, 46728, Note_off_c, 1, 66, 0
1, 46740, Note_on_c, 1, 67, 127
1, 46776, Note_off_c, 1, 57, 0
1, 46788, Note_off_c, 1, 67, 0
1, 46800, Note_on_c, 1, 59, 127
1, 46800, Note_on_c, 1, 67, 127
1, 46848, Note_off_c, 1, 67, 0
1, 46896, Note_off_c, 1, 59, 0
1, 46920, Note_on_c, 1, 55, 127
1, 46920, Note_on_c, 1, 71, 127
1, 46968, Note_off_c, 1, 71, 0
1, 46980, Note_on_c, 1, 67, 127
1, 47016, Note_off_c, 1, 55, 0
1, 47028, Note_off_c, 1, 67, 0
1, 47040, Note_on_c, 1, 54, 127
1, 47040, Note_on_c, 1, 69, 127
1, 47088, Note_off_c, 1, 69, 0
1, 47100, Note_on_c, 1, 67, 127
1, 47136, Note_off_c, 1, 54, 0
1, 47148, Note_off_c, 1, 67, 0
1, 47160, Note_on_c, 1, 55, 127
1, 47160, Note_on_c, 1, 71, 127
1, 47208, Note_off_c, 1, 71, 0
1, 47220, Note_on_c, 1, 67, 127
1, 47256, Note_off_c, 1, 55, 0
1, 47268, Note_off_c, 1, 67, 0
1, 47280, Note_on_c, 1, 57, 127
1, 47280, Note_on_c, 1, 72, 127
1, 47328, Note_off_c, 1, 72, 0
1, 47340, Note_on_c, 1, 67, 127
1, 47376, Note_off_c, 1, 57, 0
1, 47388, Note_off_c, 1, 67, 0
1, 47400, Note_on_c, 1, 54, 127
1, 47400, Note_on_c, 1, 69, 127
1, 47448, Note_off_c, 1, 69, 0
1, 47460, Note_on_c, 1, 67, 127
1, 47496, Note_off_c, 1, 54, 0
1, 47508, Note_off_c, 1, 67, 0
1, 47520, Note_on_c, 1, 62, 127
1, 47520, Note_on_c, 1, 67, 127
1, 47520, Note_on_c, 1, 55, 127
1, 47520, Note_on_c, 1, 71, 127
1, 47520, Note_on_c, 1, 50, 127
1, 47568, Note_off_c, 1, 71, 0
1, 47616, Note_off_c, 1, 62, 0
1, 47616, Note_off_c, 1, 55, 0
1, 47628, Note_off_c, 1, 67, 0
1, 47640, Note_on_c, 1, 43, 127
1, 47640, Note_on_c, 1, 66, 127
1, 47688, Note_off_c, 1, 66, 0
1, 47712, Note_off_c, 1, 50, 0
1, 47760, Note_on_c, 1, 83, 127
1, 47760, Note_on_c, 1, 74, 127
1, 47760, Note_on_c, 1, 79, 127
1, 47856, Note_off_c, 1, 83, 0
1, 47856, Note_off_c, 1, 74, 0
1, 47856, Note_off_c, 1, 79, 0
1, 48240, Note_off_c, 1, 43, 0
1, 48360, Note_on_c, 1, 69, 127
1, 48408, Note_off_c, 1, 69, 0
1, 48960, Note_on_c, 1, 86, 127
1, 49056, Note_off_c, 1, 86, 0
1, 49080, Note_on_c, 1, 72, 127
1, 49128, Note_off_c, 1, 72, 0
1, 49560, Note_on_c, 1, 65, 127
1, 49608, Note_off_c, 1, 65, 0
1, 49680, Note_on_c, 1, 64, 127
1, 49776, Note_off_c, 1, 64, 0
1, 49800, Note_on_c, 1, 43, 127
1, 49800, Note_on_c, 1, 67, 127
1, 49848, Note_off_c, 1, 67, 0
1, 49860, Note_on_c, 1, 72, 127
1, 49908, Note_off_c, 1, 72, 0
1, 49920, Note_on_c, 1, 64, 127
1, 49968, Note_off_c, 1, 64, 0
1, 50400, Note_off_c, 1, 43, 0
1, 50400, Note_on_c, 1, 62, 127
1, 50496, Note_off_c, 1, 62, 0
1, 50520, Note_on_c, 1, 43, 127
1, 50520, Note_on_c, 1, 67, 127
1, 50568, Note_off_c, 1, 67, 0
1, 50580, Note_on_c, 1, 72, 127
1, 50628, Note_off_c, 1, 72, 0
1, 50640, Note_on_c, 1, 62, 127
1, 50688, Note_off_c, 1, 62, 0
1, 51120, Note_off_c, 1, 43, 0
1, 51120, Note_on_c, 1, 71, 127
1, 51228, Note_off_c, 1, 71, 0
1, 51240, Note_on_c, 1, 43, 127
1, 51240, Note_on_c, 1, 67, 127
1, 51288, Note_off_c, 1, 67, 0
1, 51300, Note_on_c, 1, 71, 127
1, 51348, Note_off_c, 1, 71, 0
1, 51360, Note_on_c, 1, 62, 127
1, 51408, Note_off_c, 1, 62, 0
1, 51840, Note_off_c, 1, 43, 0
1, 51840, Note_on_c, 1, 60, 127
1, 51936, Note_off_c, 1, 60, 0
1, 51960, Note_on_c, 1, 43, 127
1, 51960, Note_on_c, 1, 67, 127
1, 52008, Note_off_c, 1, 67, 0
1, 52020, Note_on_c, 1, 71, 127
1, 52068, Note_off_c, 1, 71, 0
1, 52080, Note_on_c, 1, 60, 127
1, 52128, Note_off_c, 1, 60, 0
1, 52560, Note_off_c, 1, 43, 0
1, 52560, Note_on_c, 1, 66, 127
1, 52560, Note_on_c, 1, 69, 127
1, 52656, Note_off_c, 1, 66, 0
1, 52668, Note_off_c, 1, 69, 0
1, 52680, Note_on_c, 1, 43, 127
1, 52680, Note_on_c, 1, 66, 127
1, 52728, Note_off_c, 1, 66, 0
1, 52740, Note_on_c, 1, 69, 127
1, 52788, Note_off_c, 1, 69, 0
1, 52800, Note_on_c, 1, 60, 127
1, 52848, Note_off_c, 1, 60, 0
1, 53280, Note_off_c, 1, 43, 0
1, 53280, Note_on_c, 1, 62, 127
1, 53280, Note_on_c, 1, 59, 127
1, 53376, Note_off_c, 1, 62, 0
1, 53376, Note_off_c, 1, 59, 0
1, 53400, Note_on_c, 1, 43, 127
1, 53400, Note_on_c, 1, 62, 127
1, 53448, Note_off_c, 1, 62, 0
1, 53460, Note_on_c, 1, 69, 127
1, 53508, Note_off_c, 1, 69, 0
1, 53520, Note_on_c, 1, 59, 127
1, 53568, Note_off_c, 1, 59, 0
1, 54000, Note_off_c, 1, 43, 0
1, 54000, Note_on_c, 1, 67, 127
1, 54108, Note_off_c, 1, 67, 0
1, 54120, Note_on_c, 1, 43, 127
1, 54120, Note_on_c, 1, 62, 127
1, 54168, Note_off_c, 1, 62, 0
1, 54180, Note_on_c, 1, 67, 127
1, 54228, Note_off_c, 1, 67, 0
1, 54240, Note_on_c, 1, 59, 127
1, 54288, Note_off_c, 1, 59, 0
1, 54720, Note_off_c, 1, 43, 0
1, 54720, Note_on_c, 1, 60, 127
1, 54720, Note_on_c, 1, 57, 127
1, 54816, Note_off_c, 1, 60, 0
1, 54816, Note_off_c, 1, 57, 0
1, 54840, Note_on_c, 1, 43, 127
1, 54840, Note_on_c, 1, 60, 127
1, 54888, Note_off_c, 1, 60, 0
1, 54900, Note_on_c, 1, 67, 127
1, 54948, Note_off_c, 1, 67, 0
1, 54960, Note_on_c, 1, 57, 127
1, 55008, Note_off_c, 1, 57, 0
1, 55440, Note_off_c, 1, 43, 0
1, 55440, Note_on_c, 1, 66, 127
1, 55548, Note_off_c, 1, 66, 0
1, 55560, Note_on_c, 1, 43, 127
1, 55560, Note_on_c, 1, 60, 127
1, 55608, Note_off_c, 1, 60, 0
1, 55620, Note_on_c, 1, 66, 127
1, 55668, Note_off_c, 1, 66, 0
1, 55680, Note_on_c, 1, 57, 127
1, 55728, Note_off_c, 1, 57, 0
1, 56160, Note_on_c, 1, 79, 127
1, 56160, Note_on_c, 1, 86, 127
1, 56160, Note_on_c, 1, 83, 127
1, 56160, Note_on_c, 1, 71, 127
1, 56160, Note_on_c, 1, 67, 127
1, 56160, Note_on_c, 1, 62, 127
1, 56160, Note_on_c, 1, 59, 127
1, 56160, Note_on_c, 1, 55, 127
1, 56208, Note_off_c, 1, 55, 0
1, 56256, Note_off_c, 1, 79, 0
1, 56256, Note_off_c, 1, 86, 0
1, 56256, Note_off_c, 1, 83, 0
1, 56256, Note_off_c, 1, 71, 0
1, 56280, Note_off_c, 1, 67, 0
1, 56352, Note_off_c, 1, 43, 0
1, 56400, Note_on_c, 1, 74, 127
1, 56496, Note_off_c, 1, 74, 0
1, 56856, Note_off_c, 1, 62, 0
1, 56856, Note_off_c, 1, 59, 0
1, 56880, Note_on_c, 1, 79, 127
1, 56880, Note_on_c, 1, 83, 127
1, 56880, Note_on_c, 1, 74, 127
1, 56880, Note_on_c, 1, 71, 127
1, 56880, Note_on_c, 1, 67, 127
1, 56880, Note_on_c, 1, 55, 127
1, 56880, Note_on_c, 1, 59, 127
1, 56880, Note_on_c, 1, 43, 127
1, 56928, Note_off_c, 1, 59, 0
1, 56940, Note_on_c, 1, 60, 127
1, 56976, Note_off_c, 1, 79, 0
1, 56976, Note_off_c, 1, 83, 0
1, 56976, Note_off_c, 1, 74, 0
1, 56976, Note_off_c, 1, 71, 0
1, 56976, Note_off_c, 1, 67, 0
1, 56988, Note_off_c, 1, 60, 0
1, 57000, Note_on_c, 1, 62, 127
1, 57072, Note_off_c, 1, 55, 0
1, 57072, Note_off_c, 1, 43, 0
1, 57576, Note_off_c, 1, 62, 0
1, 57600, Note_on_c, 1, 79, 127
1, 57600, Note_on_c, 1, 62, 127
1, 57600, Note_on_c, 1, 74, 127
1, 57600, Note_on_c, 1, 81, 127
1, 57600, Note_on_c, 1, 43, 127
1, 57660, Note_on_c, 1, 64, 127
1, 57696, Note_off_c, 1, 79, 0
1, 57696, Note_off_c, 1, 62, 0
1, 57696, Note_off_c, 1, 74, 0
1, 57696, Note_off_c, 1, 81, 0
1, 57708, Note_off_c, 1, 64, 0
1, 57720, Note_on_c, 1, 71, 127
1, 57720, Note_on_c, 1, 65, 127
1, 57792, Note_off_c, 1, 43, 0
1, 57840, Note_on_c, 1, 83, 127
1, 57840, Note_on_c, 1, 67, 127
1, 57936, Note_off_c, 1, 83, 0
1, 57936, Note_off_c, 1, 67, 0
1, 58296, Note_off_c, 1, 71, 0
1, 58296, Note_off_c, 1, 65, 0
1, 58320, Note_on_c, 1, 83, 127
1, 58320, Note_on_c, 1, 74, 127
1, 58320, Note_on_c, 1, 71, 127
1, 58320, Note_on_c, 1, 44, 127
1, 58320, Note_on_c, 1, 65, 127
1, 58368, Note_off_c, 1, 65, 0
1, 58416, Note_off_c, 1, 83, 0
1, 58416, Note_off_c, 1, 71, 0
1, 58428, Note_off_c, 1, 74, 0
1, 58440, Note_on_c, 1, 64, 127
1, 58440, Note_on_c, 1, 59, 127
1, 58500, Note_on_c, 1, 72, 127
1, 58512, Note_off_c, 1, 44, 0
1, 58548, Note_off_c, 1, 72, 0
1, 58560, Note_on_c, 1, 86, 127
1, 58656, Note_off_c, 1, 86, 0
1, 58680, Note_on_c, 1, 68, 127
1, 58728, Note_off_c, 1, 68, 0
1, 58740, Note_on_c, 1, 69, 127
1, 58788, Note_off_c, 1, 69, 0
1, 58980, Note_on_c, 1, 62, 127
1, 59016, Note_off_c, 1, 64, 0
1, 59016, Note_off_c, 1, 59, 0
1, 59028, Note_off_c, 1, 62, 0
1, 59040, Note_on_c, 1, 45, 127
1, 59040, Note_on_c, 1, 60, 127
1, 59088, Note_off_c, 1, 60, 0
1, 59100, Note_on_c, 1, 59, 127
1, 59148, Note_off_c, 1, 59, 0
1, 59160, Note_on_c, 1, 72, 127
1, 59160, Note_on_c, 1, 64, 127
1, 59160, Note_on_c, 1, 57, 127
1, 59232, Note_off_c, 1, 45, 0
1, 59736, Note_off_c, 1, 72, 0
1, 59736, Note_off_c, 1, 64, 0
1, 59736, Note_off_c, 1, 57, 0
1, 59760, Note_on_c, 1, 57, 127
1, 59760, Note_on_c, 1, 60, 127
1, 59808, Note_off_c, 1, 60, 0
1, 59820, Note_on_c, 1, 62, 127
1, 59868, Note_off_c, 1, 62, 0
1, 59880, Note_on_c, 1, 69, 127
1, 59880, Note_on_c, 1, 64, 127
1, 59952, Note_off_c, 1, 57, 0
1, 60456, Note_off_c, 1, 69, 0
1, 60456, Note_off_c, 1, 64, 0
1, 60480, Note_on_c, 1, 45, 127
1, 60480, Note_on_c, 1, 64, 127
1, 60528, Note_off_c, 1, 64, 0
1, 60540, Note_on_c, 1, 66, 127
1, 60588, Note_off_c, 1, 66, 0
1, 60600, Note_on_c, 1, 67, 127
1, 60600, Note_on_c, 1, 61, 127
1, 60672, Note_off_c, 1, 45, 0
1, 60780, Note_on_c, 1, 73, 127
1, 60828, Note_off_c, 1, 73, 0
1, 61176, Note_off_c, 1, 67, 0
1, 61176, Note_off_c, 1, 61, 0
1, 61200, Note_on_c, 1, 46, 127
1, 61200, Note_on_c, 1, 67, 127
1, 61248, Note_off_c, 1, 67, 0
1, 61260, Note_on_c, 1, 76, 127
1, 61308, Note_off_c, 1, 76, 0
1, 61320, Note_on_c, 1, 64, 127
1, 61320, Note_on_c, 1, 66, 127
1, 61320, Note_on_c, 1, 61, 127
1, 61320, Note_on_c, 1, 73, 127
1, 61368, Note_off_c, 1, 73, 0
1, 61380, Note_on_c, 1, 74, 127
1, 61392, Note_off_c, 1, 46, 0
1, 61428, Note_off_c, 1, 74, 0
1, 61560, Note_on_c, 1, 70, 127
1, 61608, Note_off_c, 1, 70, 0
1, 61620, Note_on_c, 1, 71, 127
1, 61668, Note_off_c, 1, 71, 0
1, 61896, Note_off_c, 1, 66, 0
1, 61896, Note_off_c, 1, 61, 0
1, 61908, Note_off_c, 1, 64, 0
1, 61920, Note_on_c, 1, 47, 127
1, 61920, Note_on_c, 1, 63, 127
1, 61968, Note_off_c, 1, 63, 0
1, 61980, Note_on_c, 1, 81, 127
1, 62028, Note_off_c, 1, 81, 0
1, 62040, Note_on_c, 1, 78, 127
1, 62040, Note_on_c, 1, 59, 127
1, 62100, Note_on_c, 1, 79, 127
1, 62112, Note_off_c, 1, 47, 0
1, 62148, Note_off_c, 1, 79, 0
1, 62280, Note_on_c, 1, 75, 127
1, 62328, Note_off_c, 1, 75, 0
1, 62340, Note_on_c, 1, 76, 127
1, 62388, Note_off_c, 1, 76, 0
1, 62520, Note_on_c, 1, 71, 127
1, 62568, Note_off_c, 1, 71, 0
1, 62580, Note_on_c, 1, 69, 127
1, 62616, Note_off_c, 1, 78, 0
1, 62616, Note_off_c, 1, 59, 0
1, 62628, Note_off_c, 1, 69, 0
1, 62640, Note_on_c, 1, 52, 127
1, 62640, Note_on_c, 1, 67, 127
1, 62688, Note_off_c, 1, 67, 0
1, 62700, Note_on_c, 1, 83, 127
1, 62748, Note_off_c, 1, 83, 0
1, 62760, Note_on_c, 1, 71, 127
1, 62760, Note_on_c, 1, 79, 127
1, 62760, Note_on_c, 1, 64, 127
1, 62820, Note_on_c, 1, 81, 127
1, 62832, Note_off_c, 1, 52, 0
1, 62868, Note_off_c, 1, 81, 0
1, 63000, Note_on_c, 1, 76, 127
1, 63048, Note_off_c, 1, 76, 0
1, 63060, Note_on_c, 1, 78, 127
1, 63108, Note_off_c, 1, 78, 0
1, 63240, Note_on_c, 1, 72, 127
1, 63288, Note_off_c, 1, 72, 0
1, 63336, Note_off_c, 1, 79, 0
1, 63336, Note_off_c, 1, 64, 0
1, 63348, Note_off_c, 1, 71, 0
1, 63360, Note_on_c, 1, 57, 127
1, 63360, Note_on_c, 1, 69, 127
1, 63408, Note_off_c, 1, 69, 0
1, 63420, Note_on_c, 1, 84, 127
1, 63468, Note_off_c, 1, 84, 0
1, 63480, Note_on_c, 1, 76, 127
1, 63480, Note_on_c, 1, 81, 127
1, 63480, Note_on_c, 1, 72, 127
1, 63540, Note_on_c, 1, 83, 127
1, 63552, Note_off_c, 1, 57, 0
1, 63588, Note_off_c, 1, 83, 0
1, 63720, Note_on_c, 1, 78, 127
1, 63768, Note_off_c, 1, 78, 0
1, 63780, Note_on_c, 1, 79, 127
1, 63828, Note_off_c, 1, 79, 0
1, 63960, Note_on_c, 1, 75, 127
1, 64008, Note_off_c, 1, 75, 0
1, 64056, Note_off_c, 1, 76, 0
1, 64056, Note_off_c, 1, 81, 0
1, 64056, Note_off_c, 1, 72, 0
1, 64080, Note_on_c, 1, 75, 127
1, 64080, Note_on_c, 1, 81, 127
1, 64080, Note_on_c, 1, 66, 127
1, 64080, Note_on_c, 1, 71, 127
1, 64128, Note_off_c, 1, 71, 0
1, 64140, Note_on_c, 1, 73, 127
1, 64188, Note_off_c, 1, 73, 0
1, 64200, Note_on_c, 1, 59, 127
1, 64380, Note_on_c, 1, 78, 127
1, 64428, Note_off_c, 1, 78, 0
1, 64800, Note_off_c, 1, 59, 0
1, 64860, Note_on_c, 1, 76, 127
1, 64908, Note_off_c, 1, 76, 0
1, 64920, Note_on_c, 1, 54, 127
1, 65376, Note_off_c, 1, 75, 0
1, 65520, Note_off_c, 1, 54, 0
1, 65580, Note_on_c, 1, 79, 127
1, 65628, Note_off_c, 1, 79, 0
1, 65640, Note_on_c, 1, 51, 127
1, 65820, Note_on_c, 1, 84, 127
1, 65868, Note_off_c, 1, 84, 0
1, 66240, Note_off_c, 1, 51, 0
1, 66360, Note_on_c, 1, 47, 127
1, 66816, Note_off_c, 1, 66, 0
1, 66828, Note_off_c, 1, 81, 0
1, 66960, Note_off_c, 1, 47, 0
1, 66960, Note_on_c, 1, 52, 127
1, 67152, Note_off_c, 1, 52, 0
1, 67200, Note_on_c, 1, 79, 127
1, 67200, Note_on_c, 1, 76, 127
1, 67200, Note_on_c, 1, 69, 127
1, 67296, Note_off_c, 1, 76, 0
1, 67296, Note_off_c, 1, 69, 0
1, 67308, Note_off_c, 1, 79, 0
1, 67320, Note_on_c, 1, 78, 127
1, 67368, Note_off_c, 1, 78, 0
1, 67380, Note_on_c, 1, 76, 127
1, 67428, Note_off_c, 1, 76, 0
1, 67440, Note_on_c, 1, 78, 127
1, 67440, Note_on_c, 1, 75, 127
1, 67440, Note_on_c, 1, 71, 127
1, 67536, Note_off_c, 1, 75, 0
1, 67536, Note_off_c, 1, 71, 0
1, 67548, Note_off_c, 1, 78, 0
1, 67560, Note_on_c, 1, 76, 127
1, 67608, Note_off_c, 1, 76, 0
1, 67620, Note_on_c, 1, 75, 127
1, 67668, Note_off_c, 1, 75, 0
1, 67680, Note_on_c, 1, 76, 127
1, 67680, Note_on_c, 1, 72, 127
1, 67740, Note_on_c, 1, 74, 127
1, 67776, Note_off_c, 1, 76, 0
1, 67776, Note_off_c, 1, 72, 0
1, 67788, Note_off_c, 1, 74, 0
1, 67800, Note_on_c, 1, 76, 127
1, 67848, Note_off_c, 1, 76, 0
1, 67860, Note_on_c, 1, 72, 127
1, 67908, Note_off_c, 1, 72, 0
1, 67920, Note_on_c, 1, 76, 127
1, 67920, Note_on_c, 1, 72, 127
1, 67920, Note_on_c, 1, 66, 127
1, 68016, Note_off_c, 1, 72, 0
1, 68016, Note_off_c, 1, 66, 0
1, 68028, Note_off_c, 1, 76, 0
1, 68040, Note_on_c, 1, 74, 127
1, 68088, Note_off_c, 1, 74, 0
1, 68100, Note_on_c, 1, 72, 127
1, 68148, Note_off_c, 1, 72, 0
1, 68160, Note_on_c, 1, 71, 127
1, 68160, Note_on_c, 1, 74, 127
1, 68160, Note_on_c, 1, 68, 127
1, 68256, Note_off_c, 1, 71, 0
1, 68256, Note_off_c, 1, 68, 0
1, 68268, Note_off_c, 1, 74, 0
1, 68280, Note_on_c, 1, 72, 127
1, 68328, Note_off_c, 1, 72, 0
1, 68340, Note_on_c, 1, 71, 127
1, 68388, Note_off_c, 1, 71, 0
1, 68400, Note_on_c, 1, 72, 127
1, 68400, Note_on_c, 1, 69, 127
1, 68460, Note_on_c, 1, 71, 127
1, 68496, Note_off_c, 1, 72, 0
1, 68496, Note_off_c, 1, 69, 0
1, 68508, Note_off_c, 1, 71, 0
1, 68520, Note_on_c, 1, 72, 127
1, 68568, Note_off_c, 1, 72, 0
1, 68580, Note_on_c, 1, 69, 127
1, 68628, Note_off_c, 1, 69, 0
1, 68640, Note_on_c, 1, 69, 127
1, 68640, Note_on_c, 1, 72, 127
1, 68640, Note_on_c, 1, 63, 127
1, 68736, Note_off_c, 1, 69, 0
1, 68736, Note_off_c, 1, 63, 0
1, 68748, Note_off_c, 1, 72, 0
1, 68760, Note_on_c, 1, 71, 127
1, 68808, Note_off_c, 1, 71, 0
1, 68820, Note_on_c, 1, 69, 127
1, 68868, Note_off_c, 1, 69, 0
1, 68880, Note_on_c, 1, 67, 127
1, 68880, Note_on_c, 1, 71, 127
1, 68880, Note_on_c, 1, 64, 127
1, 68976, Note_off_c, 1, 67, 0
1, 68976, Note_off_c, 1, 64, 0
1, 68988, Note_off_c, 1, 71, 0
1, 69000, Note_on_c, 1, 69, 127
1, 69048, Note_off_c, 1, 69, 0
1, 69060, Note_on_c, 1, 67, 127
1, 69108, Note_off_c, 1, 67, 0
1, 69120, Note_on_c, 1, 69, 127
1, 69120, Note_on_c, 1, 66, 127
1, 69180, Note_on_c, 1, 67, 127
1, 69216, Note_off_c, 1, 69, 0
1, 69216, Note_off_c, 1, 66, 0
1, 69228, Note_off_c, 1, 67, 0
1, 69240, Note_on_c, 1, 69, 127
1, 69288, Note_off_c, 1, 69, 0
1, 69300, Note_on_c, 1, 67, 127
1, 69348, Note_off_c, 1, 67, 0
1, 69360, Note_on_c, 1, 69, 127
1, 69360, Note_on_c, 1, 66, 127
1, 69360, Note_on_c, 1, 57, 127
1, 69456, Note_off_c, 1, 66, 0
1, 69456, Note_off_c, 1, 57, 0
1, 69468, Note_off_c, 1, 69, 0
1, 69480, Note_on_c, 1, 67, 127
1, 69528, Note_off_c, 1, 67, 0
1, 69540, Note_on_c, 1, 69, 127
1, 69588, Note_off_c, 1, 69, 0
1, 69600, Note_on_c, 1, 64, 127
1, 69600, Note_on_c, 1, 69, 127
1, 69600, Note_on_c, 1, 60, 127
1, 69600, Note_on_c, 1, 66, 127
1, 69648, Note_off_c, 1, 66, 0
1, 69696, Note_off_c, 1, 64, 0
1, 69696, Note_off_c, 1, 60, 0
1, 69708, Note_off_c, 1, 69, 0
1, 69720, Note_on_c, 1, 64, 127
1, 69768, Note_off_c, 1, 64, 0
1, 69780, Note_on_c, 1, 69, 127
1, 69828, Note_off_c, 1, 69, 0
1, 69840, Note_on_c, 1, 69, 127
1, 69840, Note_on_c, 1, 63, 127
1, 69840, Note_on_c, 1, 59, 127
1, 69900, Note_on_c, 1, 64, 127
1, 69936, Note_off_c, 1, 69, 0
1, 69936, Note_off_c, 1, 63, 0
1, 69936, Note_off_c, 1, 59, 0
1, 69948, Note_off_c, 1, 64, 0
1, 69960, Note_on_c, 1, 66, 127
1, 70008, Note_off_c, 1, 66, 0
1, 70020, Note_on_c, 1, 67, 127
1, 70068, Note_off_c, 1, 67, 0
1, 70080, Note_on_c, 1, 66, 127
1, 70080, Note_on_c, 1, 63, 127
1, 70080, Note_on_c, 1, 69, 127
1, 70128, Note_off_c, 1, 69, 0
1, 70176, Note_off_c, 1, 66, 0
1, 70188, Note_off_c, 1, 63, 0
1, 70200, Note_on_c, 1, 72, 127
1, 70248, Note_off_c, 1, 72, 0
1, 70260, Note_on_c, 1, 63, 127
1, 70308, Note_off_c, 1, 63, 0
1, 70320, Note_on_c, 1, 71, 127
1, 70320, Note_on_c, 1, 63, 127
1, 70320, Note_on_c, 1, 59, 127
1, 70416, Note_off_c, 1, 71, 0
1, 70416, Note_off_c, 1, 59, 0
1, 70428, Note_off_c, 1, 63, 0
1, 70440, Note_on_c, 1, 69, 127
1, 70488, Note_off_c, 1, 69, 0
1, 70500, Note_on_c, 1, 63, 127
1, 70548, Note_off_c, 1, 63, 0
1, 70560, Note_on_c, 1, 64, 127
1, 70560, Note_on_c, 1, 67, 127
1, 70560, Note_on_c, 1, 47, 127
1, 70740, Note_on_c, 1, 59, 127
1, 70752, Note_off_c, 1, 64, 0
1, 70752, Note_off_c, 1, 67, 0
1, 70752, Note_off_c, 1, 47, 0
1, 70788, Note_off_c, 1, 59, 0
1, 70800, Note_on_c, 1, 76, 127
1, 70800, Note_on_c, 1, 71, 127
1, 70800, Note_on_c, 1, 55, 127
1, 70848, Note_off_c, 1, 55, 0
1, 70860, Note_on_c, 1, 59, 127
1, 70908, Note_off_c, 1, 59, 0
1, 70920, Note_on_c, 1, 43, 127
1, 70920, Note_on_c, 1, 64, 127
1, 70968, Note_off_c, 1, 64, 0
1, 70992, Note_off_c, 1, 76, 0
1, 70992, Note_off_c, 1, 71, 0
1, 71016, Note_off_c, 1, 43, 0
1, 71040, Note_on_c, 1, 40, 127
1, 71040, Note_on_c, 1, 67, 127
1, 71088, Note_off_c, 1, 67, 0
1, 71100, Note_on_c, 1, 59, 127
1, 71136, Note_off_c, 1, 40, 0
1, 71148, Note_off_c, 1, 59, 0
1, 71160, Note_on_c, 1, 43, 127
1, 71160, Note_on_c, 1, 64, 127
1, 71208, Note_off_c, 1, 64, 0
1, 71220, Note_on_c, 1, 59, 127
1, 71256, Note_off_c, 1, 43, 0
1, 71268, Note_off_c, 1, 59, 0
1, 71280, Note_on_c, 1, 69, 127
1, 71280, Note_on_c, 1, 66, 127
1, 71280, Note_on_c, 1, 63, 127
1, 71280, Note_on_c, 1, 47, 127
1, 71460, Note_on_c, 1, 59, 127
1, 71472, Note_off_c, 1, 69, 0
1, 71472, Note_off_c, 1, 66, 0
1, 71472, Note_off_c, 1, 63, 0
1, 71472, Note_off_c, 1, 47, 0
1, 71508, Note_off_c, 1, 59, 0
1, 71520, Note_on_c, 1, 78, 127
1, 71520, Note_on_c, 1, 69, 127
1, 71520, Note_on_c, 1, 59, 127
1, 71520, Note_on_c, 1, 63, 127
1, 71568, Note_off_c, 1, 63, 0
1, 71580, Note_on_c, 1, 66, 127
1, 71628, Note_off_c, 1, 66, 0
1, 71640, Note_on_c, 1, 51, 127
1, 71640, Note_on_c, 1, 71, 127
1, 71688, Note_off_c, 1, 71, 0
1, 71712, Note_off_c, 1, 78, 0
1, 71712, Note_off_c, 1, 69, 0
1, 71712, Note_off_c, 1, 59, 0
1, 71736, Note_off_c, 1, 51, 0
1, 71760, Note_on_c, 1, 47, 127
1, 71760, Note_on_c, 1, 75, 127
1, 71808, Note_off_c, 1, 75, 0
1, 71820, Note_on_c, 1, 71, 127
1, 71856, Note_off_c, 1, 47, 0
1, 71868, Note_off_c, 1, 71, 0
1, 71880, Note_on_c, 1, 51, 127
1, 71880, Note_on_c, 1, 78, 127
1, 71928, Note_off_c, 1, 78, 0
1, 71940, Note_on_c, 1, 69, 127
1, 71976, Note_off_c, 1, 51, 0
1, 71988, Note_off_c, 1, 69, 0
1, 72000, Note_on_c, 1, 67, 127
1, 72000, Note_on_c, 1, 59, 127
1, 72000, Note_on_c, 1, 52, 127
1, 72060, Note_on_c, 1, 71, 127
1, 72108, Note_off_c, 1, 71, 0
1, 72180, Note_on_c, 1, 64, 127
1, 72192, Note_off_c, 1, 67, 0
1, 72192, Note_off_c, 1, 59, 0
1, 72192, Note_off_c, 1, 52, 0
1, 72228, Note_off_c, 1, 64, 0
1, 72240, Note_on_c, 1, 76, 127
1, 72240, Note_on_c, 1, 71, 127
1, 72240, Note_on_c, 1, 67, 127
1, 72360, Note_on_c, 1, 55, 127
1, 72432, Note_off_c, 1, 76, 0
1, 72432, Note_off_c, 1, 67, 0
1, 72456, Note_off_c, 1, 55, 0
1, 72468, Note_off_c, 1, 71, 0
1, 72480, Note_on_c, 1, 52, 127
1, 72480, Note_on_c, 1, 79, 127
1, 72528, Note_off_c, 1, 79, 0
1, 72540, Note_on_c, 1, 76, 127
1, 72576, Note_off_c, 1, 52, 0
1, 72588, Note_off_c, 1, 76, 0
1, 72600, Note_on_c, 1, 55, 127
1, 72600, Note_on_c, 1, 83, 127
1, 72648, Note_off_c, 1, 83, 0
1, 72660, Note_on_c, 1, 79, 127
1, 72696, Note_off_c, 1, 55, 0
1, 72708, Note_off_c, 1, 79, 0
1, 72720, Note_on_c, 1, 59, 127
1, 72720, Note_on_c, 1, 75, 127
1, 72768, Note_off_c, 1, 75, 0
1, 72780, Note_on_c, 1, 78, 127
1, 72828, Note_off_c, 1, 78, 0
1, 72840, Note_on_c, 1, 66, 127
1, 72840, Note_on_c, 1, 71, 127
1, 72840, Note_on_c, 1, 63, 127
1, 72936, Note_off_c, 1, 66, 0
1, 72936, Note_off_c, 1, 63, 0
1, 72948, Note_off_c, 1, 71, 0
1, 72960, Note_on_c, 1, 83, 127
1, 73008, Note_off_c, 1, 83, 0
1, 73020, Note_on_c, 1, 82, 127
1, 73068, Note_off_c, 1, 82, 0
1, 73320, Note_on_c, 1, 79, 127
1, 73368, Note_off_c, 1, 79, 0
1, 73380, Note_on_c, 1, 76, 127
1, 73428, Note_off_c, 1, 76, 0
1, 73680, Note_on_c, 1, 81, 127
1, 73728, Note_off_c, 1, 81, 0
1, 73740, Note_on_c, 1, 80, 127
1, 73788, Note_off_c, 1, 80, 0
1, 74400, Note_on_c, 1, 67, 127
1, 74400, Note_on_c, 1, 72, 127
1, 74448, Note_off_c, 1, 72, 0
1, 74496, Note_off_c, 1, 67, 0
1, 74736, Note_off_c, 1, 59, 0
1, 74760, Note_on_c, 1, 72, 127
1, 74760, Note_on_c, 1, 64, 127
1, 74760, Note_on_c, 1, 67, 127
1, 74808, Note_off_c, 1, 67, 0
1, 74856, Note_off_c, 1, 72, 0
1, 74868, Note_off_c, 1, 64, 0
1, 74880, Note_on_c, 1, 66, 127
1, 74880, Note_on_c, 1, 71, 127
1, 74880, Note_on_c, 1, 63, 127
1, 74880, Note_on_c, 1, 59, 127
1, 74976, Note_off_c, 1, 59, 0
1, 75060, Note_on_c, 1, 81, 127
1, 75108, Note_off_c, 1, 81, 0
1, 75180, Note_on_c, 1, 78, 127
1, 75228, Note_off_c, 1, 78, 0
1, 75240, Note_on_c, 1, 64, 127
1, 75240, Note_on_c, 1, 79, 127
1, 75288, Note_off_c, 1, 79, 0
1, 75300, Note_on_c, 1, 76, 127
1, 75336, Note_off_c, 1, 64, 0
1, 75348, Note_off_c, 1, 76, 0
1, 75360, Note_on_c, 1, 75, 127
1, 75408, Note_off_c, 1, 75, 0
1, 75456, Note_off_c, 1, 66, 0
1, 75456, Note_off_c, 1, 63, 0
1, 75540, Note_on_c, 1, 69, 127
1, 75588, Note_off_c, 1, 69, 0
1, 75600, Note_on_c, 1, 67, 127
1, 75720, Note_on_c, 1, 55, 127
1, 75780, Note_on_c, 1, 83, 127
1, 75816, Note_off_c, 1, 55, 0
1, 75828, Note_off_c, 1, 83, 0
1, 75840, Note_on_c, 1, 52, 127
1, 75936, Note_off_c, 1, 52, 0
1, 75960, Note_on_c, 1, 54, 127
1, 76056, Note_off_c, 1, 54, 0
1, 76176, Note_off_c, 1, 71, 0
1, 76176, Note_off_c, 1, 67, 0
1, 76200, Note_on_c, 1, 72, 127
1, 76248, Note_off_c, 1, 72, 0
1, 76320, Note_on_c, 1, 65, 127
1, 76320, Note_on_c, 1, 72, 127
1, 76320, Note_on_c, 1, 60, 127
1, 76320, Note_on_c, 1, 57, 127
1, 76320, Note_on_c, 1, 69, 127
1, 76368, Note_off_c, 1, 69, 0
1, 76416, Note_off_c, 1, 57, 0
1, 76440, Note_on_c, 1, 45, 127
1, 76500, Note_on_c, 1, 64, 127
1, 76512, Note_off_c, 1, 65, 0
1, 76512, Note_off_c, 1, 72, 0
1, 76512, Note_off_c, 1, 60, 0
1, 76536, Note_off_c, 1, 45, 0
1, 76548, Note_off_c, 1, 64, 0
1, 76560, Note_on_c, 1, 78, 127
1, 76560, Note_on_c, 1, 81, 127
1, 76560, Note_on_c, 1, 59, 127
1, 76560, Note_on_c, 1, 47, 127
1, 76560, Note_on_c, 1, 63, 127
1, 76608, Note_off_c, 1, 63, 0
1, 76620, Note_on_c, 1, 66, 127
1, 76656, Note_off_c, 1, 47, 0
1, 76668, Note_off_c, 1, 66, 0
1, 76680, Note_on_c, 1, 51, 127
1, 76740, Note_on_c, 1, 57, 127
1, 76752, Note_off_c, 1, 78, 0
1, 76752, Note_off_c, 1, 81, 0
1, 76752, Note_off_c, 1, 59, 0
1, 76776, Note_off_c, 1, 51, 0
1, 76788, Note_off_c, 1, 57, 0
1, 76800, Note_on_c, 1, 52, 127
1, 76800, Note_on_c, 1, 55, 127
1, 76848, Note_off_c, 1, 55, 0
1, 76860, Note_on_c, 1, 59, 127
1, 76896, Note_off_c, 1, 52, 0
1, 76908, Note_off_c, 1, 59, 0
1, 76920, Note_on_c, 1, 79, 127
1, 76920, Note_on_c, 1, 71, 127
1, 76920, Note_on_c, 1, 64, 127
1, 76920, Note_on_c, 1, 50, 127
1, 76920, Note_on_c, 1, 59, 127
1, 76968, Note_off_c, 1, 79, 0
1, 76980, Note_on_c, 1, 78, 127
1, 76980, Note_on_c, 1, 66, 127
1, 77016, Note_off_c, 1, 71, 0
1, 77016, Note_off_c, 1, 64, 0
1, 77016, Note_off_c, 1, 50, 0
1, 77016, Note_off_c, 1, 59, 0
1, 77028, Note_off_c, 1, 78, 0
1, 77028, Note_off_c, 1, 66, 0
1, 77040, Note_on_c, 1, 76, 127
1, 77040, Note_on_c, 1, 71, 127
1, 77040, Note_on_c, 1, 64, 127
1, 77040, Note_on_c, 1, 48, 127
1, 77040, Note_on_c, 1, 67, 127
1, 77088, Note_off_c, 1, 67, 0
1, 77136, Note_off_c, 1, 76, 0
1, 77136, Note_off_c, 1, 71, 0
1, 77136, Note_off_c, 1, 48, 0
1, 77148, Note_off_c, 1, 64, 0
1, 77160, Note_on_c, 1, 72, 127
1, 77160, Note_on_c, 1, 69, 127
1, 77160, Note_on_c, 1, 63, 127
1, 77160, Note_on_c, 1, 42, 127
1, 77220, Note_on_c, 1, 64, 127
1, 77256, Note_off_c, 1, 72, 0
1, 77256, Note_off_c, 1, 69, 0
1, 77256, Note_off_c, 1, 63, 0
1, 77256, Note_off_c, 1, 42, 0
1, 77268, Note_off_c, 1, 64, 0
1, 77280, Note_on_c, 1, 67, 127
1, 77280, Note_on_c, 1, 71, 127
1, 77280, Note_on_c, 1, 64, 127
1, 77280, Note_on_c, 1, 43, 127
1, 77376, Note_off_c, 1, 67, 0
1, 77376, Note_off_c, 1, 71, 0
1, 77376, Note_off_c, 1, 43, 0
1, 77388, Note_off_c, 1, 64, 0
1, 77400, Note_on_c, 1, 66, 127
1, 77400, Note_on_c, 1, 69, 127
1, 77400, Note_on_c, 1, 60, 127
1, 77400, Note_on_c, 1, 45, 127
1, 77400, Note_on_c, 1, 72, 127
1, 77448, Note_off_c, 1, 72, 0
1, 77460, Note_on_c, 1, 64, 127
1, 77496, Note_off_c, 1, 66, 0
1, 77496, Note_off_c, 1, 69, 0
1, 77496, Note_off_c, 1, 60, 0
1, 77496, Note_off_c, 1, 45, 0
1, 77508, Note_off_c, 1, 64, 0
1, 77520, Note_on_c, 1, 64, 127
1, 77520, Note_on_c, 1, 67, 127
1, 77520, Note_on_c, 1, 59, 127
1, 77520, Note_on_c, 1, 47, 127
1, 77616, Note_off_c, 1, 67, 0
1, 77616, Note_off_c, 1, 59, 0
1, 77616, Note_off_c, 1, 47, 0
1, 77628, Note_off_c, 1, 64, 0
1, 77640, Note_on_c, 1, 66, 127
1, 77640, Note_on_c, 1, 63, 127
1, 77640, Note_on_c, 1, 59, 127
1, 77640, Note_on_c, 1, 47, 127
1, 77736, Note_off_c, 1, 66, 0
1, 77736, Note_off_c, 1, 59, 0
1, 77736, Note_off_c, 1, 47, 0
1, 77748, Note_off_c, 1, 63, 0
1, 77760, Note_on_c, 1, 64, 127
1, 77760, Note_on_c, 1, 67, 127
1, 77760, Note_on_c, 1, 59, 127
1, 77760, Note_on_c, 1, 40, 127
1, 77880, Note_on_c, 1, 66, 127
1, 77928, Note_off_c, 1, 66, 0
1, 77952, Note_off_c, 1, 40, 0
1, 78000, Note_on_c, 1, 52, 127
1, 78120, Note_on_c, 1, 62, 127
1, 78168, Note_off_c, 1, 62, 0
1, 78192, Note_off_c, 1, 52, 0
1, 78240, Note_on_c, 1, 61, 127
1, 78288, Note_off_c, 1, 61, 0
1, 78336, Note_off_c, 1, 59, 0
1, 78480, Note_on_c, 1, 57, 127
1, 78672, Note_off_c, 1, 57, 0
1, 78720, Note_on_c, 1, 45, 127
1, 78900, Note_on_c, 1, 69, 127
1, 78912, Note_off_c, 1, 45, 0
1, 78948, Note_off_c, 1, 69, 0
1, 79056, Note_off_c, 1, 64, 0
1, 79056, Note_off_c, 1, 67, 0
1, 79080, Note_on_c, 1, 45, 127
1, 79080, Note_on_c, 1, 64, 127
1, 79128, Note_off_c, 1, 64, 0
1, 79140, Note_on_c, 1, 67, 127
1, 79176, Note_off_c, 1, 45, 0
1, 79188, Note_off_c, 1, 67, 0
1, 79200, Note_on_c, 1, 62, 127
1, 79200, Note_on_c, 1, 66, 127
1, 79200, Note_on_c, 1, 57, 127
1, 79200, Note_on_c, 1, 50, 127
1, 79260, Note_on_c, 1, 67, 127
1, 79308, Note_off_c, 1, 67, 0
1, 79380, Note_on_c, 1, 64, 127
1, 79392, Note_off_c, 1, 50, 0
1, 79428, Note_off_c, 1, 64, 0
1, 79500, Note_on_c, 1, 74, 127
1, 79548, Note_off_c, 1, 74, 0
1, 79560, Note_on_c, 1, 73, 127
1, 79584, Note_off_c, 1, 57, 0
1, 79608, Note_off_c, 1, 73, 0
1, 79680, Note_on_c, 1, 59, 127
1, 79680, Note_on_c, 1, 71, 127
1, 79728, Note_off_c, 1, 71, 0
1, 79776, Note_off_c, 1, 62, 0
1, 79776, Note_off_c, 1, 66, 0
1, 79800, Note_on_c, 1, 69, 127
1, 79848, Note_off_c, 1, 69, 0
1, 79896, Note_off_c, 1, 59, 0
1, 79920, Note_on_c, 1, 59, 127
1, 79920, Note_on_c, 1, 68, 127
1, 79920, Note_on_c, 1, 64, 127
1, 79920, Note_on_c, 1, 52, 127
1, 79980, Note_on_c, 1, 74, 127
1, 80028, Note_off_c, 1, 74, 0
1, 80040, Note_on_c, 1, 69, 127
1, 80088, Note_off_c, 1, 69, 0
1, 80160, Note_on_c, 1, 71, 127
1, 80208, Note_off_c, 1, 71, 0
1, 80280, Note_on_c, 1, 73, 127
1, 80328, Note_off_c, 1, 73, 0
1, 80340, Note_on_c, 1, 76, 127
1, 80388, Note_off_c, 1, 76, 0
1, 80496, Note_off_c, 1, 59, 0
1, 80496, Note_off_c, 1, 68, 0
1, 80496, Note_off_c, 1, 64, 0
1, 80496, Note_off_c, 1, 52, 0
1, 80520, Note_on_c, 1, 52, 127
1, 80520, Note_on_c, 1, 71, 127
1, 80568, Note_off_c, 1, 71, 0
1, 80580, Note_on_c, 1, 74, 127
1, 80616, Note_off_c, 1, 52, 0
1, 80628, Note_off_c, 1, 74, 0
1, 80640, Note_on_c, 1, 69, 127
1, 80640, Note_on_c, 1, 61, 127
1, 80640, Note_on_c, 1, 64, 127
1, 80640, Note_on_c, 1, 57, 127
1, 80640, Note_on_c, 1, 73, 127
1, 80640, Note_on_c, 1, 50, 127
1, 80688, Note_off_c, 1, 73, 0
1, 80700, Note_on_c, 1, 74, 127
1, 80736, Note_off_c, 1, 69, 0
1, 80736, Note_off_c, 1, 61, 0
1, 80736, Note_off_c, 1, 64, 0
1, 80736, Note_off_c, 1, 57, 0
1, 80748, Note_off_c, 1, 74, 0
1, 80760, Note_on_c, 1, 81, 127
1, 80760, Note_on_c, 1, 76, 127
1, 80760, Note_on_c, 1, 45, 127
1, 80808, Note_off_c, 1, 45, 0
1, 80820, Note_on_c, 1, 47, 127
1, 80820, Note_on_c, 1, 71, 127
1, 80856, Note_off_c, 1, 81, 0
1, 80856, Note_off_c, 1, 76, 0
1, 80865, Note_off_c, 1, 50, 0
1, 80868, Note_off_c, 1, 47, 0
1, 80868, Note_off_c, 1, 71, 0
1, 80880, Note_on_c, 1, 76, 127
1, 80880, Note_on_c, 1, 81, 127
1, 80880, Note_on_c, 1, 69, 127
1, 80880, Note_on_c, 1, 49, 127
1, 80940, Note_on_c, 1, 71, 127
1, 80976, Note_off_c, 1, 76, 0
1, 80976, Note_off_c, 1, 81, 0
1, 80976, Note_off_c, 1, 69, 0
1, 80976, Note_off_c, 1, 49, 0
1, 80988, Note_off_c, 1, 71, 0
1, 81000, Note_on_c, 1, 81, 127
1, 81000, Note_on_c, 1, 69, 127
1, 81000, Note_on_c, 1, 76, 127
1, 81000, Note_on_c, 1, 52, 127
1, 81000, Note_on_c, 1, 73, 127
1, 81048, Note_off_c, 1, 73, 0
1, 81060, Note_on_c, 1, 74, 127
1, 81096, Note_off_c, 1, 81, 0
1, 81096, Note_off_c, 1, 69, 0
1, 81096, Note_off_c, 1, 76, 0
1, 81096, Note_off_c, 1, 52, 0
1, 81108, Note_off_c, 1, 74, 0
1, 81120, Note_on_c, 1, 76, 127
1, 81120, Note_on_c, 1, 69, 127
1, 81120, Note_on_c, 1, 81, 127
1, 81120, Note_on_c, 1, 57, 127
1, 81180, Note_on_c, 1, 78, 127
1, 81216, Note_off_c, 1, 76, 0
1, 81216, Note_off_c, 1, 69, 0
1, 81216, Note_off_c, 1, 81, 0
1, 81216, Note_off_c, 1, 57, 0
1, 81228, Note_off_c, 1, 78, 0
1, 81240, Note_on_c, 1, 69, 127
1, 81240, Note_on_c, 1, 76, 127
1, 81240, Note_on_c, 1, 81, 127
1, 81240, Note_on_c, 1, 55, 127
1, 81240, Note_on_c, 1, 79, 127
1, 81288, Note_off_c, 1, 79, 0
1, 81336, Note_off_c, 1, 69, 0
1, 81336, Note_off_c, 1, 81, 0
1, 81336, Note_off_c, 1, 55, 0
1, 81348, Note_off_c, 1, 76, 0
1, 81360, Note_on_c, 1, 74, 127
1, 81360, Note_on_c, 1, 81, 127
1, 81360, Note_on_c, 1, 78, 127
1, 81360, Note_on_c, 1, 50, 127
1, 81420, Note_on_c, 1, 69, 127
1, 81468, Note_off_c, 1, 69, 0
1, 81480, Note_on_c, 1, 67, 127
1, 81552, Note_off_c, 1, 74, 0
1, 81552, Note_off_c, 1, 81, 0
1, 81552, Note_off_c, 1, 78, 0
1, 81576, Note_off_c, 1, 67, 0
1, 81585, Note_off_c, 1, 50, 0
1, 81600, Note_on_c, 1, 66, 127
1, 81600, Note_on_c, 1, 62, 127
1, 81660, Note_on_c, 1, 69, 127
1, 81696, Note_off_c, 1, 66, 0
1, 81708, Note_off_c, 1, 69, 0
1, 81720, Note_on_c, 1, 64, 127
1, 81792, Note_off_c, 1, 62, 0
1, 81816, Note_off_c, 1, 64, 0
1, 81840, Note_on_c, 1, 62, 127
1, 81900, Note_on_c, 1, 69, 127
1, 81936, Note_off_c, 1, 62, 0
1, 81948, Note_off_c, 1, 69, 0
1, 81960, Note_on_c, 1, 60, 127
1, 81960, Note_on_c, 1, 54, 127
1, 82020, Note_on_c, 1, 69, 127
1, 82056, Note_off_c, 1, 60, 0
1, 82056, Note_off_c, 1, 54, 0
1, 82068, Note_off_c, 1, 69, 0
1, 82080, Note_on_c, 1, 59, 127
1, 82080, Note_on_c, 1, 55, 127
1, 82080, Note_on_c, 1, 50, 127
1, 82140, Note_on_c, 1, 62, 127
1, 82176, Note_off_c, 1, 55, 0
1, 82188, Note_off_c, 1, 62, 0
1, 82200, Note_on_c, 1, 83, 127
1, 82200, Note_on_c, 1, 79, 127
1, 82200, Note_on_c, 1, 74, 127
1, 82200, Note_on_c, 1, 43, 127
1, 82200, Note_on_c, 1, 64, 127
1, 82248, Note_off_c, 1, 43, 0
1, 82248, Note_off_c, 1, 64, 0
1, 82260, Note_on_c, 1, 45, 127
1, 82260, Note_on_c, 1, 66, 127
1, 82272, Note_off_c, 1, 59, 0
1, 82296, Note_off_c, 1, 83, 0
1, 82296, Note_off_c, 1, 79, 0
1, 82296, Note_off_c, 1, 74, 0
1, 82305, Note_off_c, 1, 50, 0
1, 82308, Note_off_c, 1, 45, 0
1, 82308, Note_off_c, 1, 66, 0
1, 82320, Note_on_c, 1, 79, 127
1, 82320, Note_on_c, 1, 74, 127
1, 82320, Note_on_c, 1, 83, 127
1, 82320, Note_on_c, 1, 47, 127
1, 82320, Note_on_c, 1, 67, 127
1, 82368, Note_off_c, 1, 67, 0
1, 82380, Note_on_c, 1, 69, 127
1, 82416, Note_off_c, 1, 79, 0
1, 82416, Note_off_c, 1, 74, 0
1, 82416, Note_off_c, 1, 83, 0
1, 82416, Note_off_c, 1, 47, 0
1, 82428, Note_off_c, 1, 69, 0
1, 82440, Note_on_c, 1, 74, 127
1, 82440, Note_on_c, 1, 79, 127
1, 82440, Note_on_c, 1, 83, 127
1, 82440, Note_on_c, 1, 50, 127
1, 82440, Note_on_c, 1, 71, 127
1, 82488, Note_off_c, 1, 71, 0
1, 82500, Note_on_c, 1, 72, 127
1, 82536, Note_off_c, 1, 74, 0
1, 82536, Note_off_c, 1, 79, 0
1, 82536, Note_off_c, 1, 83, 0
1, 82536, Note_off_c, 1, 50, 0
1, 82548, Note_off_c, 1, 72, 0
1, 82560, Note_on_c, 1, 83, 127
1, 82560, Note_on_c, 1, 79, 127
1, 82560, Note_on_c, 1, 74, 127
1, 82560, Note_on_c, 1, 55, 127
1, 82620, Note_on_c, 1, 76, 127
1, 82656, Note_off_c, 1, 83, 0
1, 82656, Note_off_c, 1, 79, 0
1, 82656, Note_off_c, 1, 74, 0
1, 82656, Note_off_c, 1, 55, 0
1, 82668, Note_off_c, 1, 76, 0
1, 82680, Note_on_c, 1, 83, 127
1, 82680, Note_on_c, 1, 79, 127
1, 82680, Note_on_c, 1, 74, 127
1, 82680, Note_on_c, 1, 54, 127
1, 82680, Note_on_c, 1, 78, 127
1, 82728, Note_off_c, 1, 78, 0
1, 82776, Note_off_c, 1, 83, 0
1, 82776, Note_off_c, 1, 79, 0
1, 82776, Note_off_c, 1, 54, 0
1, 82788, Note_off_c, 1, 74, 0
1, 82800, Note_on_c, 1, 83, 127
1, 82800, Note_on_c, 1, 76, 127
1, 82800, Note_on_c, 1, 79, 127
1, 82800, Note_on_c, 1, 52, 127
1, 82860, Note_on_c, 1, 67, 127
1, 82908, Note_off_c, 1, 67, 0
1, 82920, Note_on_c, 1, 66, 127
1, 82992, Note_off_c, 1, 83, 0
1, 82992, Note_off_c, 1, 76, 0
1, 82992, Note_off_c, 1, 79, 0
1, 82992, Note_off_c, 1, 52, 0
1, 83016, Note_off_c, 1, 66, 0
1, 83040, Note_on_c, 1, 64, 127
1, 83040, Note_on_c, 1, 61, 127
1, 83100, Note_on_c, 1, 67, 127
1, 83136, Note_off_c, 1, 64, 0
1, 83148, Note_off_c, 1, 67, 0
1, 83160, Note_on_c, 1, 62, 127
1, 83232, Note_off_c, 1, 61, 0
1, 83256, Note_off_c, 1, 62, 0
1, 83280, Note_on_c, 1, 61, 127
1, 83340, Note_on_c, 1, 67, 127
1, 83376, Note_off_c, 1, 61, 0
1, 83388, Note_off_c, 1, 67, 0
1, 83400, Note_on_c, 1, 59, 127
1, 83400, Note_on_c, 1, 52, 127
1, 83460, Note_on_c, 1, 67, 127
1, 83496, Note_off_c, 1, 59, 0
1, 83496, Note_off_c, 1, 52, 0
1, 83508, Note_off_c, 1, 67, 0
1, 83520, Note_on_c, 1, 57, 127
1, 83520, Note_on_c, 1, 54, 127
1, 83520, Note_on_c, 1, 50, 127
1, 83580, Note_on_c, 1, 61, 127
1, 83616, Note_off_c, 1, 54, 0
1, 83628, Note_off_c, 1, 61, 0
1, 83640, Note_on_c, 1, 69, 127
1, 83640, Note_on_c, 1, 85, 127
1, 83640, Note_on_c, 1, 81, 127
1, 83640, Note_on_c, 1, 42, 127
1, 83640, Note_on_c, 1, 62, 127
1, 83688, Note_off_c, 1, 42, 0
1, 83688, Note_off_c, 1, 62, 0
1, 83700, Note_on_c, 1, 43, 127
1, 83700, Note_on_c, 1, 64, 127
1, 83712, Note_off_c, 1, 57, 0
1, 83736, Note_off_c, 1, 69, 0
1, 83736, Note_off_c, 1, 85, 0
1, 83736, Note_off_c, 1, 81, 0
1, 83745, Note_off_c, 1, 50, 0
1, 83748, Note_off_c, 1, 43, 0
1, 83748, Note_off_c, 1, 64, 0
1, 83760, Note_on_c, 1, 85, 127
1, 83760, Note_on_c, 1, 81, 127
1, 83760, Note_on_c, 1, 69, 127
1, 83760, Note_on_c, 1, 45, 127
1, 83760, Note_on_c, 1, 66, 127
1, 83808, Note_off_c, 1, 66, 0
1, 83820, Note_on_c, 1, 67, 127
1, 83856, Note_off_c, 1, 85, 0
1, 83856, Note_off_c, 1, 81, 0
1, 83856, Note_off_c, 1, 69, 0
1, 83856, Note_off_c, 1, 45, 0
1, 83868, Note_off_c, 1, 67, 0
1, 83880, Note_on_c, 1, 85, 127
1, 83880, Note_on_c, 1, 69, 127
1, 83880, Note_on_c, 1, 81, 127
1, 83880, Note_on_c, 1, 49, 127
1, 83940, Note_on_c, 1, 71, 127
1, 83976, Note_off_c, 1, 85, 0
1, 83976, Note_off_c, 1, 69, 0
1, 83976, Note_off_c, 1, 81, 0
1, 83976, Note_off_c, 1, 49, 0
1, 83988, Note_off_c, 1, 71, 0
1, 84000, Note_on_c, 1, 85, 127
1, 84000, Note_on_c, 1, 81, 127
1, 84000, Note_on_c, 1, 69, 127
1, 84000, Note_on_c, 1, 54, 127
1, 84000, Note_on_c, 1, 73, 127
1, 84048, Note_off_c, 1, 73, 0
1, 84060, Note_on_c, 1, 74, 127
1, 84096, Note_off_c, 1, 85, 0
1, 84096, Note_off_c, 1, 81, 0
1, 84096, Note_off_c, 1, 69, 0
1, 84096, Note_off_c, 1, 54, 0
1, 84108, Note_off_c, 1, 74, 0
1, 84120, Note_on_c, 1, 85, 127
1, 84120, Note_on_c, 1, 69, 127
1, 84120, Note_on_c, 1, 79, 127
1, 84120, Note_on_c, 1, 52, 127
1, 84120, Note_on_c, 1, 76, 127
1, 84168, Note_off_c, 1, 76, 0
1, 84180, Note_on_c, 1, 73, 127
1, 84216, Note_off_c, 1, 85, 0
1, 84216, Note_off_c, 1, 69, 0
1, 84216, Note_off_c, 1, 79, 0
1, 84216, Note_off_c, 1, 52, 0
1, 84228, Note_off_c, 1, 73, 0
1, 84240, Note_on_c, 1, 78, 127
1, 84240, Note_on_c, 1, 86, 127
1, 84240, Note_on_c, 1, 69, 127
1, 84240, Note_on_c, 1, 50, 127
1, 84300, Note_on_c, 1, 66, 127
1, 84348, Note_off_c, 1, 66, 0
1, 84360, Note_on_c, 1, 64, 127
1, 84360, Note_on_c, 1, 52, 127
1, 84432, Note_off_c, 1, 78, 0
1, 84432, Note_off_c, 1, 86, 0
1, 84432, Note_off_c, 1, 69, 0
1, 84456, Note_off_c, 1, 64, 0
1, 84456, Note_off_c, 1, 52, 0
1, 84465, Note_off_c, 1, 50, 0
1, 84480, Note_on_c, 1, 62, 127
1, 84480, Note_on_c, 1, 50, 127
1, 84540, Note_on_c, 1, 66, 127
1, 84576, Note_off_c, 1, 62, 0
1, 84576, Note_off_c, 1, 50, 0
1, 84588, Note_off_c, 1, 66, 0
1, 84600, Note_on_c, 1, 60, 127
1, 84600, Note_on_c, 1, 48, 127
1, 84660, Note_on_c, 1, 66, 127
1, 84696, Note_off_c, 1, 60, 0
1, 84696, Note_off_c, 1, 48, 0
1, 84708, Note_off_c, 1, 66, 0
1, 84720, Note_on_c, 1, 59, 127
1, 84720, Note_on_c, 1, 47, 127
1, 84780, Note_on_c, 1, 66, 127
1, 84816, Note_off_c, 1, 59, 0
1, 84816, Note_off_c, 1, 47, 0
1, 84828, Note_off_c, 1, 66, 0
1, 84840, Note_on_c, 1, 57, 127
1, 84840, Note_on_c, 1, 45, 127
1, 84900, Note_on_c, 1, 66, 127
1, 84936, Note_off_c, 1, 57, 0
1, 84936, Note_off_c, 1, 45, 0
1, 84948, Note_off_c, 1, 66, 0
1, 84960, Note_on_c, 1, 55, 127
1, 84960, Note_on_c, 1, 43, 127
1, 85020, Note_on_c, 1, 66, 127
1, 85068, Note_off_c, 1, 66, 0
1, 85080, Note_on_c, 1, 71, 127
1, 85128, Note_off_c, 1, 71, 0
1, 85140, Note_on_c, 1, 69, 127
1, 85152, Note_off_c, 1, 55, 0
1, 85152, Note_off_c, 1, 43, 0
1, 85188, Note_off_c, 1, 69, 0
1, 85200, Note_on_c, 1, 71, 127
1, 85200, Note_on_c, 1, 67, 127
1, 85260, Note_on_c, 1, 74, 127
1, 85308, Note_off_c, 1, 74, 0
1, 85320, Note_on_c, 1, 47, 127
1, 85320, Note_on_c, 1, 79, 127
1, 85368, Note_off_c, 1, 79, 0
1, 85380, Note_on_c, 1, 78, 127
1, 85416, Note_off_c, 1, 47, 0
1, 85428, Note_off_c, 1, 78, 0
1, 85440, Note_on_c, 1, 52, 127
1, 85500, Note_on_c, 1, 76, 127
1, 85536, Note_off_c, 1, 52, 0
1, 85548, Note_off_c, 1, 76, 0
1, 85560, Note_on_c, 1, 55, 127
1, 85584, Note_off_c, 1, 67, 0
1, 85608, Note_off_c, 1, 71, 0
1, 85656, Note_off_c, 1, 55, 0
1, 85680, Note_on_c, 1, 67, 127
1, 85680, Note_on_c, 1, 73, 127
1, 85680, Note_on_c, 1, 57, 127
1, 85680, Note_on_c, 1, 45, 127
1, 85680, Note_on_c, 1, 50, 127
1, 85740, Note_on_c, 1, 64, 127
1, 85788, Note_off_c, 1, 64, 0
1, 85860, Note_on_c, 1, 71, 127
1, 85872, Note_off_c, 1, 45, 0
1, 85905, Note_off_c, 1, 50, 0
1, 85908, Note_off_c, 1, 71, 0
1, 85920, Note_on_c, 1, 81, 127
1, 85920, Note_on_c, 1, 76, 127
1, 86016, Note_off_c, 1, 81, 0
1, 86028, Note_off_c, 1, 76, 0
1, 86040, Note_on_c, 1, 49, 127
1, 86040, Note_on_c, 1, 79, 127
1, 86064, Note_off_c, 1, 67, 0
1, 86064, Note_off_c, 1, 57, 0
1, 86088, Note_off_c, 1, 79, 0
1, 86100, Note_on_c, 1, 78, 127
1, 86136, Note_off_c, 1, 49, 0
1, 86148, Note_off_c, 1, 78, 0
1, 86160, Note_on_c, 1, 69, 127
1, 86160, Note_on_c, 1, 52, 127
1, 86256, Note_off_c, 1, 69, 0
1, 86256, Note_off_c, 1, 52, 0
1, 86400, Note_on_c, 1, 66, 127
1, 86640, Note_on_c, 1, 74, 127
1, 86748, Note_off_c, 1, 74, 0
1, 86784, Note_off_c, 1, 73, 0
1, 86784, Note_off_c, 1, 66, 0
1, 86880, Note_on_c, 1, 54, 127
1, 86976, Note_off_c, 1, 54, 0
1, 87120, Note_on_c, 1, 68, 127
1, 87360, Note_on_c, 1, 83, 127
1, 87360, Note_on_c, 1, 80, 127
1, 87456, Note_off_c, 1, 83, 0
1, 87456, Note_off_c, 1, 80, 0
1, 87504, Note_off_c, 1, 68, 0
1, 87600, Note_on_c, 1, 76, 127
1, 87600, Note_on_c, 1, 80, 127
1, 87600, Note_on_c, 1, 74, 127
1, 87600, Note_on_c, 1, 45, 127
1, 87696, Note_off_c, 1, 76, 0
1, 87696, Note_off_c, 1, 80, 0
1, 87696, Note_off_c, 1, 45, 0
1, 87708, Note_off_c, 1, 74, 0
1, 87720, Note_on_c, 1, 45, 127
1, 87720, Note_on_c, 1, 71, 127
1, 87768, Note_off_c, 1, 71, 0
1, 87780, Note_on_c, 1, 74, 127
1, 87816, Note_off_c, 1, 45, 0
1, 87828, Note_off_c, 1, 74, 0
1, 87840, Note_on_c, 1, 76, 127
1, 87840, Note_on_c, 1, 69, 127
1, 87840, Note_on_c, 1, 81, 127
1, 87840, Note_on_c, 1, 73, 127
1, 87840, Note_on_c, 1, 64, 127
1, 87840, Note_on_c, 1, 57, 127
1, 87840, Note_on_c, 1, 45, 127
1, 87840, Note_on_c, 1, 50, 127
1, 87936, Note_off_c, 1, 76, 0
1, 87936, Note_off_c, 1, 69, 0
1, 87948, Note_off_c, 1, 81, 0
1, 87953, Note_off_c, 1, 73, 0
1, 87953, Note_off_c, 1, 57, 0
1, 87960, Note_on_c, 1, 80, 127
1, 88008, Note_off_c, 1, 80, 0
1, 88020, Note_on_c, 1, 74, 127
1, 88020, Note_on_c, 1, 78, 127
1, 88032, Note_off_c, 1, 64, 0
1, 88032, Note_off_c, 1, 45, 0
1, 88065, Note_off_c, 1, 50, 0
1, 88068, Note_off_c, 1, 74, 0
1, 88068, Note_off_c, 1, 78, 0
1, 88080, Note_on_c, 1, 73, 127
1, 88080, Note_on_c, 1, 76, 127
1, 88128, Note_off_c, 1, 76, 0
1, 88140, Note_on_c, 1, 81, 127
1, 88176, Note_off_c, 1, 73, 0
1, 88188, Note_off_c, 1, 81, 0
1, 88200, Note_on_c, 1, 76, 127
1, 88260, Note_on_c, 1, 74, 127
1, 88296, Note_off_c, 1, 76, 0
1, 88308, Note_off_c, 1, 74, 0
1, 88320, Note_on_c, 1, 69, 127
1, 88320, Note_on_c, 1, 73, 127
1, 88368, Note_off_c, 1, 73, 0
1, 88380, Note_on_c, 1, 76, 127
1, 88416, Note_off_c, 1, 69, 0
1, 88428, Note_off_c, 1, 76, 0
1, 88440, Note_on_c, 1, 73, 127
1, 88500, Note_on_c, 1, 71, 127
1, 88536, Note_off_c, 1, 73, 0
1, 88548, Note_off_c, 1, 71, 0
1, 88560, Note_on_c, 1, 81, 127
1, 88560, Note_on_c, 1, 85, 127
1, 88560, Note_on_c, 1, 76, 127
1, 88560, Note_on_c, 1, 64, 127
1, 88560, Note_on_c, 1, 45, 127
1, 88560, Note_on_c, 1, 69, 127
1, 88560, Note_on_c, 1, 50, 127
1, 88608, Note_off_c, 1, 69, 0
1, 88656, Note_off_c, 1, 85, 0
1, 88656, Note_off_c, 1, 76, 0
1, 88668, Note_off_c, 1, 81, 0
1, 88680, Note_on_c, 1, 79, 127
1, 88728, Note_off_c, 1, 79, 0
1, 88740, Note_on_c, 1, 74, 127
1, 88740, Note_on_c, 1, 78, 127
1, 88752, Note_off_c, 1, 64, 0
1, 88752, Note_off_c, 1, 45, 0
1, 88785, Note_off_c, 1, 50, 0
1, 88788, Note_off_c, 1, 74, 0
1, 88788, Note_off_c, 1, 78, 0
1, 88800, Note_on_c, 1, 73, 127
1, 88800, Note_on_c, 1, 76, 127
1, 88848, Note_off_c, 1, 76, 0
1, 88860, Note_on_c, 1, 79, 127
1, 88896, Note_off_c, 1, 73, 0
1, 88908, Note_off_c, 1, 79, 0
1, 88920, Note_on_c, 1, 69, 127
1, 88920, Note_on_c, 1, 76, 127
1, 88968, Note_off_c, 1, 76, 0
1, 88980, Note_on_c, 1, 74, 127
1, 89016, Note_off_c, 1, 69, 0
1, 89028, Note_off_c, 1, 74, 0
1, 89040, Note_on_c, 1, 64, 127
1, 89040, Note_on_c, 1, 73, 127
1, 89088, Note_off_c, 1, 73, 0
1, 89100, Note_on_c, 1, 76, 127
1, 89136, Note_off_c, 1, 64, 0
1, 89148, Note_off_c, 1, 76, 0
1, 89160, Note_on_c, 1, 67, 127
1, 89160, Note_on_c, 1, 73, 127
1, 89208, Note_off_c, 1, 73, 0
1, 89220, Note_on_c, 1, 71, 127
1, 89256, Note_off_c, 1, 67, 0
1, 89268, Note_off_c, 1, 71, 0
1, 89280, Note_on_c, 1, 81, 127
1, 89280, Note_on_c, 1, 74, 127
1, 89280, Note_on_c, 1, 86, 127
1, 89280, Note_on_c, 1, 66, 127
1, 89280, Note_on_c, 1, 45, 127
1, 89280, Note_on_c, 1, 62, 127
1, 89280, Note_on_c, 1, 69, 127
1, 89280, Note_on_c, 1, 50, 127
1, 89328, Note_off_c, 1, 69, 0
1, 89340, Note_on_c, 1, 79, 127
1, 89376, Note_off_c, 1, 81, 0
1, 89376, Note_off_c, 1, 74, 0
1, 89376, Note_off_c, 1, 86, 0
1, 89388, Note_off_c, 1, 79, 0
1, 89393, Note_off_c, 1, 66, 0
1, 89393, Note_off_c, 1, 62, 0
1, 89400, Note_on_c, 1, 78, 127
1, 89448, Note_off_c, 1, 78, 0
1, 89460, Note_on_c, 1, 67, 127
1, 89460, Note_on_c, 1, 76, 127
1, 89472, Note_off_c, 1, 45, 0
1, 89505, Note_off_c, 1, 50, 0
1, 89508, Note_off_c, 1, 67, 0
1, 89508, Note_off_c, 1, 76, 0
1, 89520, Note_on_c, 1, 66, 127
1, 89520, Note_on_c, 1, 74, 127
1, 89568, Note_off_c, 1, 74, 0
1, 89580, Note_on_c, 1, 78, 127
1, 89616, Note_off_c, 1, 66, 0
1, 89628, Note_off_c, 1, 78, 0
1, 89640, Note_on_c, 1, 69, 127
1, 89640, Note_on_c, 1, 74, 127
1, 89688, Note_off_c, 1, 74, 0
1, 89700, Note_on_c, 1, 73, 127
1, 89736, Note_off_c, 1, 69, 0
1, 89748, Note_off_c, 1, 73, 0
1, 89760, Note_on_c, 1, 62, 127
1, 89760, Note_on_c, 1, 71, 127
1, 89808, Note_off_c, 1, 71, 0
1, 89820, Note_on_c, 1, 74, 127
1, 89856, Note_off_c, 1, 62, 0
1, 89868, Note_off_c, 1, 74, 0
1, 89880, Note_on_c, 1, 66, 127
1, 89880, Note_on_c, 1, 71, 127
1, 89928, Note_off_c, 1, 71, 0
1, 89940, Note_on_c, 1, 69, 127
1, 89976, Note_off_c, 1, 66, 0
1, 89988, Note_off_c, 1, 69, 0
1, 90000, Note_on_c, 1, 85, 127
1, 90000, Note_on_c, 1, 76, 127
1, 90000, Note_on_c, 1, 81, 127
1, 90000, Note_on_c, 1, 61, 127
1, 90000, Note_on_c, 1, 45, 127
1, 90000, Note_on_c, 1, 67, 127
1, 90000, Note_on_c, 1, 50, 127
1, 90048, Note_off_c, 1, 67, 0
1, 90060, Note_on_c, 1, 78, 127
1, 90096, Note_off_c, 1, 85, 0
1, 90096, Note_off_c, 1, 76, 0
1, 90096, Note_off_c, 1, 81, 0
1, 90108, Note_off_c, 1, 78, 0
1, 90113, Note_off_c, 1, 61, 0
1, 90120, Note_on_c, 1, 79, 127
1, 90120, Note_on_c, 1, 57, 127
1, 90168, Note_off_c, 1, 79, 0
1, 90180, Note_on_c, 1, 74, 127
1, 90192, Note_off_c, 1, 45, 0
1, 90225, Note_off_c, 1, 50, 0
1, 90228, Note_off_c, 1, 74, 0
1, 90233, Note_off_c, 1, 57, 0
1, 90240, Note_on_c, 1, 76, 127
1, 90240, Note_on_c, 1, 69, 127
1, 90240, Note_on_c, 1, 81, 127
1, 90240, Note_on_c, 1, 79, 127
1, 90240, Note_on_c, 1, 61, 127
1, 90240, Note_on_c, 1, 73, 127
1, 90288, Note_off_c, 1, 73, 0
1, 90336, Note_off_c, 1, 69, 0
1, 90336, Note_off_c, 1, 81, 0
1, 90336, Note_off_c, 1, 79, 0
1, 90336, Note_off_c, 1, 61, 0
1, 90348, Note_off_c, 1, 76, 0
1, 90360, Note_on_c, 1, 76, 127
1, 90360, Note_on_c, 1, 73, 127
1, 90420, Note_on_c, 1, 71, 127
1, 90456, Note_off_c, 1, 76, 0
1, 90456, Note_off_c, 1, 73, 0
1, 90468, Note_off_c, 1, 71, 0
1, 90480, Note_on_c, 1, 69, 127
1, 90480, Note_on_c, 1, 73, 127
1, 90480, Note_on_c, 1, 67, 127
1, 90576, Note_off_c, 1, 69, 0
1, 90576, Note_off_c, 1, 67, 0
1, 90588, Note_off_c, 1, 73, 0
1, 90600, Note_on_c, 1, 76, 127
1, 90600, Note_on_c, 1, 64, 127
1, 90600, Note_on_c, 1, 61, 127
1, 90600, Note_on_c, 1, 69, 127
1, 90648, Note_off_c, 1, 69, 0
1, 90660, Note_on_c, 1, 67, 127
1, 90696, Note_off_c, 1, 76, 0
1, 90696, Note_off_c, 1, 64, 0
1, 90696, Note_off_c, 1, 61, 0
1, 90708, Note_off_c, 1, 67, 0
1, 90720, Note_on_c, 1, 62, 127
1, 90720, Note_on_c, 1, 81, 127
1, 90720, Note_on_c, 1, 74, 127
1, 90720, Note_on_c, 1, 66, 127
1, 90720, Note_on_c, 1, 69, 127
1, 90720, Note_on_c, 1, 45, 127
1, 90720, Note_on_c, 1, 50, 127
1, 90816, Note_off_c, 1, 62, 0
1, 90816, Note_off_c, 1, 81, 0
1, 90816, Note_off_c, 1, 66, 0
1, 90816, Note_off_c, 1, 69, 0
1, 90828, Note_off_c, 1, 74, 0
1, 90840, Note_on_c, 1, 67, 127
1, 90840, Note_on_c, 1, 71, 127
1, 90912, Note_off_c, 1, 45, 0
1, 90936, Note_off_c, 1, 67, 0
1, 90936, Note_off_c, 1, 71, 0
1, 90945, Note_off_c, 1, 50, 0
1, 90960, Note_on_c, 1, 69, 127
1, 90960, Note_on_c, 1, 78, 127
1, 90960, Note_on_c, 1, 73, 127
1, 90960, Note_on_c, 1, 64, 127
1, 90960, Note_on_c, 1, 67, 127
1, 91008, Note_off_c, 1, 67, 0
1, 91020, Note_on_c, 1, 71, 127
1, 91056, Note_off_c, 1, 69, 0
1, 91056, Note_off_c, 1, 78, 0
1, 91056, Note_off_c, 1, 73, 0
1, 91056, Note_off_c, 1, 64, 0
1, 91068, Note_off_c, 1, 71, 0
1, 91080, Note_on_c, 1, 74, 127
1, 91080, Note_on_c, 1, 71, 127
1, 91080, Note_on_c, 1, 66, 127
1, 91080, Note_on_c, 1, 67, 127
1, 91128, Note_off_c, 1, 67, 0
1, 91176, Note_off_c, 1, 74, 0
1, 91176, Note_off_c, 1, 71, 0
1, 91188, Note_off_c, 1, 66, 0
1, 91200, Note_on_c, 1, 76, 127
1, 91200, Note_on_c, 1, 73, 127
1, 91200, Note_on_c, 1, 67, 127
1, 91200, Note_on_c, 1, 64, 127
1, 91248, Note_off_c, 1, 64, 0
1, 91296, Note_off_c, 1, 76, 0
1, 91296, Note_off_c, 1, 73, 0
1, 91308, Note_off_c, 1, 67, 0
1, 91320, Note_on_c, 1, 78, 127
1, 91320, Note_on_c, 1, 74, 127
1, 91320, Note_on_c, 1, 69, 127
1, 91320, Note_on_c, 1, 64, 127
1, 91368, Note_off_c, 1, 64, 0
1, 91380, Note_on_c, 1, 62, 127
1, 91416, Note_off_c, 1, 78, 0
1, 91416, Note_off_c, 1, 74, 0
1, 91416, Note_off_c, 1, 69, 0
1, 91428, Note_off_c, 1, 62, 0
1, 91440, Note_on_c, 1, 76, 127
1, 91440, Note_on_c, 1, 79, 127
1, 91440, Note_on_c, 1, 61, 127
1, 91500, Note_on_c, 1, 64, 127
1, 91548, Note_off_c, 1, 64, 0
1, 91560, Note_on_c, 1, 57, 127
1, 91560, Note_on_c, 1, 67, 127
1, 91608, Note_off_c, 1, 57, 0
1, 91608, Note_off_c, 1, 67, 0
1, 91620, Note_on_c, 1, 55, 127
1, 91620, Note_on_c, 1, 71, 127
1, 91668, Note_off_c, 1, 55, 0
1, 91668, Note_off_c, 1, 71, 0
1, 91680, Note_on_c, 1, 69, 127
1, 91728, Note_off_c, 1, 69, 0
1, 91740, Note_on_c, 1, 73, 127
1, 91788, Note_off_c, 1, 73, 0
1, 91800, Note_on_c, 1, 52, 127
1, 91896, Note_off_c, 1, 52, 0
1, 91920, Note_on_c, 1, 49, 127
1, 91968, Note_off_c, 1, 76, 0
1, 91968, Note_off_c, 1, 79, 0
1, 91980, Note_on_c, 1, 74, 127
1, 91980, Note_on_c, 1, 78, 127
1, 92016, Note_off_c, 1, 61, 0
1, 92016, Note_off_c, 1, 49, 0
1, 92028, Note_off_c, 1, 74, 0
1, 92028, Note_off_c, 1, 78, 0
1, 92040, Note_on_c, 1, 76, 127
1, 92040, Note_on_c, 1, 79, 127
1, 92040, Note_on_c, 1, 61, 127
1, 92040, Note_on_c, 1, 45, 127
1, 92088, Note_off_c, 1, 76, 0
1, 92088, Note_off_c, 1, 79, 0
1, 92100, Note_on_c, 1, 73, 127
1, 92136, Note_off_c, 1, 61, 0
1, 92136, Note_off_c, 1, 45, 0
1, 92148, Note_off_c, 1, 73, 0
1, 92160, Note_on_c, 1, 78, 127
1, 92160, Note_on_c, 1, 74, 127
1, 92160, Note_on_c, 1, 57, 127
1, 92160, Note_on_c, 1, 50, 127
1, 92256, Note_off_c, 1, 50, 0
1, 92280, Note_on_c, 1, 47, 127
1, 92340, Note_on_c, 1, 81, 127
1, 92352, Note_off_c, 1, 74, 0
1, 92352, Note_off_c, 1, 57, 0
1, 92376, Note_off_c, 1, 47, 0
1, 92388, Note_off_c, 1, 78, 0
1, 92388, Note_off_c, 1, 81, 0
1, 92400, Note_on_c, 1, 81, 127
1, 92400, Note_on_c, 1, 42, 127
1, 92400, Note_on_c, 1, 86, 127
1, 92400, Note_on_c, 1, 50, 127
1, 92448, Note_off_c, 1, 86, 0
1, 92496, Note_off_c, 1, 42, 0
1, 92496, Note_off_c, 1, 50, 0
1, 92508, Note_off_c, 1, 81, 0
1, 92520, Note_on_c, 1, 74, 127
1, 92520, Note_on_c, 1, 71, 127
1, 92520, Note_on_c, 1, 64, 127
1, 92520, Note_on_c, 1, 43, 127
1, 92520, Note_on_c, 1, 78, 127
1, 92520, Note_on_c, 1, 50, 127
1, 92568, Note_off_c, 1, 78, 0
1, 92616, Note_off_c, 1, 71, 0
1, 92616, Note_off_c, 1, 64, 0
1, 92616, Note_off_c, 1, 43, 0
1, 92616, Note_off_c, 1, 50, 0
1, 92628, Note_off_c, 1, 74, 0
1, 92640, Note_on_c, 1, 78, 127
1, 92640, Note_on_c, 1, 74, 127
1, 92640, Note_on_c, 1, 69, 127
1, 92640, Note_on_c, 1, 45, 127
1, 92640, Note_on_c, 1, 50, 127
1, 92700, Note_on_c, 1, 76, 127
1, 92736, Note_off_c, 1, 78, 0
1, 92736, Note_off_c, 1, 74, 0
1, 92736, Note_off_c, 1, 69, 0
1, 92736, Note_off_c, 1, 45, 0
1, 92736, Note_off_c, 1, 50, 0
1, 92748, Note_off_c, 1, 76, 0
1, 92760, Note_on_c, 1, 76, 127
1, 92760, Note_on_c, 1, 69, 127
1, 92760, Note_on_c, 1, 67, 127
1, 92760, Note_on_c, 1, 45, 127
1, 92760, Note_on_c, 1, 86, 127
1, 92760, Note_on_c, 1, 50, 127
1, 92808, Note_off_c, 1, 86, 0
1, 92820, Note_on_c, 1, 85, 127
1, 92856, Note_off_c, 1, 76, 0
1, 92856, Note_off_c, 1, 69, 0
1, 92856, Note_off_c, 1, 67, 0
1, 92856, Note_off_c, 1, 45, 0
1, 92856, Note_off_c, 1, 50, 0
1, 92868, Note_off_c, 1, 85, 0
1, 92880, Note_on_c, 1, 74, 127
1, 92880, Note_on_c, 1, 69, 127
1, 92880, Note_on_c, 1, 66, 127
1, 92880, Note_on_c, 1, 38, 127
1, 92880, Note_on_c, 1, 86, 127
1, 92928, Note_off_c, 1, 86, 0
1, 92940, Note_on_c, 1, 81, 127
1, 92976, Note_off_c, 1, 74, 0
1, 92988, Note_off_c, 1, 81, 0
1, 93000, Note_on_c, 1, 78, 127
1, 93096, Note_off_c, 1, 78, 0
1, 93120, Note_on_c, 1, 72, 127
1, 93168, Note_off_c, 1, 69, 0
1, 93168, Note_off_c, 1, 66, 0
1, 93168, Note_off_c, 1, 72, 0
1, 93240, Note_on_c, 1, 71, 127
1, 93336, Note_off_c, 1, 71, 0
1, 93600, Note_on_c, 1, 62, 127
1, 93720, Note_on_c, 1, 79, 127
1, 93768, Note_off_c, 1, 79, 0
1, 93888, Note_off_c, 1, 62, 0
1, 94200, Note_on_c, 1, 67, 127
1, 94296, Note_off_c, 1, 67, 0
1, 94500, Note_on_c, 1, 76, 127
1, 94548, Note_off_c, 1, 76, 0
1, 94896, Note_off_c, 1, 38, 0
1, 94920, Note_on_c, 1, 74, 127
1, 94920, Note_on_c, 1, 69, 127
1, 94920, Note_on_c, 1, 66, 127
1, 94920, Note_on_c, 1, 54, 127
1, 95016, Note_off_c, 1, 69, 0
1, 95016, Note_off_c, 1, 66, 0
1, 95016, Note_off_c, 1, 54, 0
1, 95028, Note_off_c, 1, 74, 0
1, 95040, Note_on_c, 1, 69, 127
1, 95040, Note_on_c, 1, 73, 127
1, 95040, Note_on_c, 1, 67, 127
1, 95040, Note_on_c, 1, 81, 127
1, 95040, Note_on_c, 1, 78, 127
1, 95040, Note_on_c, 1, 52, 127
1, 95064, Note_off_c, 1, 81, 0
1, 95064, Note_off_c, 1, 78, 0
1, 95070, Note_on_c, 1, 79, 127
1, 95070, Note_on_c, 1, 76, 127
1, 95094, Note_off_c, 1, 79, 0
1, 95094, Note_off_c, 1, 76, 0
1, 95100, Note_on_c, 1, 74, 127
1, 95136, Note_off_c, 1, 69, 0
1, 95136, Note_off_c, 1, 73, 0
1, 95136, Note_off_c, 1, 67, 0
1, 95136, Note_off_c, 1, 52, 0
1, 95148, Note_off_c, 1, 74, 0
1, 95160, Note_on_c, 1, 81, 127
1, 95160, Note_on_c, 1, 78, 127
1, 95160, Note_on_c, 1, 55, 127
1, 95160, Note_on_c, 1, 76, 127
1, 95184, Note_off_c, 1, 81, 0
1, 95184, Note_off_c, 1, 78, 0
1, 95190, Note_on_c, 1, 79, 127
1, 95208, Note_off_c, 1, 55, 0
1, 95214, Note_off_c, 1, 76, 0
1, 95214, Note_off_c, 1, 79, 0
1, 95220, Note_on_c, 1, 81, 127
1, 95220, Note_on_c, 1, 78, 127
1, 95220, Note_on_c, 1, 54, 127
1, 95220, Note_on_c, 1, 74, 127
1, 95244, Note_off_c, 1, 81, 0
1, 95244, Note_off_c, 1, 78, 0
1, 95250, Note_on_c, 1, 79, 127
1, 95250, Note_on_c, 1, 76, 127
1, 95268, Note_off_c, 1, 54, 0
1, 95268, Note_off_c, 1, 74, 0
1, 95274, Note_off_c, 1, 79, 0
1, 95274, Note_off_c, 1, 76, 0
1, 95280, Note_on_c, 1, 76, 127
1, 95280, Note_on_c, 1, 69, 127
1, 95280, Note_on_c, 1, 73, 127
1, 95280, Note_on_c, 1, 81, 127
1, 95280, Note_on_c, 1, 78, 127
1, 95280, Note_on_c, 1, 55, 127
1, 95304, Note_off_c, 1, 81, 0
1, 95304, Note_off_c, 1, 78, 0
1, 95310, Note_on_c, 1, 79, 127
1, 95334, Note_off_c, 1, 79, 0
1, 95376, Note_off_c, 1, 73, 0
1, 95376, Note_off_c, 1, 55, 0
1, 95388, Note_off_c, 1, 69, 0
1, 95394, Note_off_c, 1, 76, 0
1, 95400, Note_on_c, 1, 81, 127
1, 95400, Note_on_c, 1, 78, 127
1, 95400, Note_on_c, 1, 52, 127
1, 95400, Note_on_c, 1, 73, 127
1, 95424, Note_off_c, 1, 81, 0
1, 95424, Note_off_c, 1, 78, 0
1, 95430, Note_on_c, 1, 79, 127
1, 95430, Note_on_c, 1, 76, 127
1, 95448, Note_off_c, 1, 73, 0
1, 95454, Note_off_c, 1, 79, 0
1, 95454, Note_off_c, 1, 76, 0
1, 95460, Note_on_c, 1, 74, 127
1, 95496, Note_off_c, 1, 52, 0
1, 95508, Note_off_c, 1, 74, 0
1, 95520, Note_on_c, 1, 76, 127
1, 95520, Note_on_c, 1, 69, 127
1, 95520, Note_on_c, 1, 79, 127
1, 95520, Note_on_c, 1, 81, 127
1, 95520, Note_on_c, 1, 78, 127
1, 95520, Note_on_c, 1, 49, 127
1, 95544, Note_off_c, 1, 81, 0
1, 95544, Note_off_c, 1, 78, 0
1, 95616, Note_off_c, 1, 49, 0
1, 95628, Note_off_c, 1, 69, 0
1, 95640, Note_on_c, 1, 52, 127
1, 95736, Note_off_c, 1, 52, 0
1, 95760, Note_on_c, 1, 73, 127
1, 95760, Note_on_c, 1, 45, 127
1, 95760, Note_on_c, 1, 50, 127
1, 95985, Note_off_c, 1, 50, 0
1, 96048, Note_off_c, 1, 76, 0
1, 96048, Note_off_c, 1, 79, 0
1, 96120, Note_on_c, 1, 61, 127
1, 96120, Note_on_c, 1, 74, 127
1, 96144, Note_off_c, 1, 45, 0
1, 96216, Note_off_c, 1, 73, 0
1, 96216, Note_off_c, 1, 61, 0
1, 96240, Note_on_c, 1, 57, 127
1, 96240, Note_on_c, 1, 38, 127
1, 96240, Note_on_c, 1, 43, 127
1, 96336, Note_off_c, 1, 57, 0
1, 96432, Note_off_c, 1, 38, 0
1, 96465, Note_off_c, 1, 43, 0
1, 96480, Note_on_c, 1, 71, 127
1, 96480, Note_on_c, 1, 55, 127
1, 96624, Note_off_c, 1, 74, 0
1, 96672, Note_off_c, 1, 71, 0
1, 96672, Note_off_c, 1, 55, 0
1, 96720, Note_on_c, 1, 73, 127
1, 96720, Note_on_c, 1, 69, 127
1, 96720, Note_on_c, 1, 76, 127
1, 96720, Note_on_c, 1, 57, 127
1, 96720, Note_on_c, 1, 45, 127
1, 96720, Note_on_c, 1, 78, 127
1, 96744, Note_off_c, 1, 78, 0
1, 96912, Note_off_c, 1, 76, 0
1, 96912, Note_off_c, 1, 57, 0
1, 96948, Note_off_c, 1, 45, 0
1, 96960, Note_on_c, 1, 74, 127
1, 96960, Note_on_c, 1, 67, 127
1, 97008, Note_off_c, 1, 73, 0
1, 97056, Note_off_c, 1, 69, 0
1, 97056, Note_off_c, 1, 74, 0
1, 97152, Note_off_c, 1, 67, 0
1, 97200, Note_on_c, 1, 69, 127
1, 97200, Note_on_c, 1, 62, 127
1, 97200, Note_on_c, 1, 74, 127
1, 97200, Note_on_c, 1, 66, 127
1, 97200, Note_on_c, 1, 50, 127
1, 97200, Note_on_c, 1, 38, 127
1, 97260, Note_on_c, 1, 86, 127
1, 97296, Note_off_c, 1, 69, 0
1, 97296, Note_off_c, 1, 62, 0
1, 97296, Note_off_c, 1, 74, 0
1, 97296, Note_off_c, 1, 66, 0
1, 97308, Note_off_c, 1, 86, 0
1, 97320, Note_on_c, 1, 81, 127
1, 97320, Note_on_c, 1, 85, 127
1, 97368, Note_off_c, 1, 81, 0
1, 97368, Note_off_c, 1, 85, 0
1, 97380, Note_on_c, 1, 79, 127
1, 97380, Note_on_c, 1, 83, 127
1, 97392, Note_off_c, 1, 38, 0
1, 97425, Note_off_c, 1, 50, 0
1, 97428, Note_off_c, 1, 79, 0
1, 97428, Note_off_c, 1, 83, 0
1, 97440, Note_on_c, 1, 74, 127
1, 97440, Note_on_c, 1, 69, 127
1, 97440, Note_on_c, 1, 62, 127
1, 97440, Note_on_c, 1, 78, 127
1, 97440, Note_on_c, 1, 81, 127
1, 97488, Note_off_c, 1, 81, 0
1, 97500, Note_on_c, 1, 86, 127
1, 97536, Note_off_c, 1, 74, 0
1, 97536, Note_off_c, 1, 69, 0
1, 97536, Note_off_c, 1, 62, 0
1, 97536, Note_off_c, 1, 78, 0
1, 97548, Note_off_c, 1, 86, 0
1, 97560, Note_on_c, 1, 76, 127
1, 97560, Note_on_c, 1, 79, 127
1, 97608, Note_off_c, 1, 79, 0
1, 97620, Note_on_c, 1, 86, 127
1, 97656, Note_off_c, 1, 76, 0
1, 97668, Note_off_c, 1, 86, 0
1, 97680, Note_on_c, 1, 74, 127
1, 97680, Note_on_c, 1, 69, 127
1, 97680, Note_on_c, 1, 78, 127
1, 97740, Note_on_c, 1, 86, 127
1, 97776, Note_off_c, 1, 74, 0
1, 97776, Note_off_c, 1, 69, 0
1, 97776, Note_off_c, 1, 78, 0
1, 97788, Note_off_c, 1, 86, 0
1, 97800, Note_on_c, 1, 73, 127
1, 97800, Note_on_c, 1, 76, 127
1, 97848, Note_off_c, 1, 76, 0
1, 97860, Note_on_c, 1, 86, 127
1, 97896, Note_off_c, 1, 73, 0
1, 97908, Note_off_c, 1, 86, 0
1, 97920, Note_on_c, 1, 81, 127
1, 97920, Note_on_c, 1, 74, 127
1, 97920, Note_on_c, 1, 78, 127
1, 98016, Note_off_c, 1, 81, 0
1, 98016, Note_off_c, 1, 78, 0
1, 98028, Note_off_c, 1, 74, 0
1, 98040, Note_on_c, 1, 69, 127
1, 98040, Note_on_c, 1, 38, 127
1, 98040, Note_on_c, 1, 73, 127
1, 98040, Note_on_c, 1, 50, 127
1, 98088, Note_off_c, 1, 69, 0
1, 98088, Note_off_c, 1, 73, 0
1, 98100, Note_on_c, 1, 67, 127
1, 98100, Note_on_c, 1, 71, 127
1, 98136, Note_off_c, 1, 38, 0
1, 98136, Note_off_c, 1, 50, 0
1, 98148, Note_off_c, 1, 67, 0
1, 98148, Note_off_c, 1, 71, 0
1, 98160, Note_on_c, 1, 69, 127
1, 98160, Note_on_c, 1, 78, 127
1, 98160, Note_on_c, 1, 74, 127
1, 98160, Note_on_c, 1, 66, 127
1, 98160, Note_on_c, 1, 38, 127
1, 98160, Note_on_c, 1, 50, 127
1, 98256, Note_off_c, 1, 69, 0
1, 98256, Note_off_c, 1, 78, 0
1, 98256, Note_off_c, 1, 38, 0
1, 98256, Note_off_c, 1, 50, 0
1, 98268, Note_off_c, 1, 74, 0
1, 98273, Note_off_c, 1, 66, 0
1, 98280, Note_on_c, 1, 64, 127
1, 98280, Note_on_c, 1, 38, 127
1, 98280, Note_on_c, 1, 67, 127
1, 98280, Note_on_c, 1, 50, 127
1, 98328, Note_off_c, 1, 67, 0
1, 98340, Note_on_c, 1, 74, 127
1, 98376, Note_off_c, 1, 38, 0
1, 98376, Note_off_c, 1, 50, 0
1, 98388, Note_off_c, 1, 74, 0
1, 98393, Note_off_c, 1, 64, 0
1, 98400, Note_on_c, 1, 81, 127
1, 98400, Note_on_c, 1, 78, 127
1, 98400, Note_on_c, 1, 74, 127
1, 98400, Note_on_c, 1, 62, 127
1, 98400, Note_on_c, 1, 38, 127
1, 98400, Note_on_c, 1, 66, 127
1, 98400, Note_on_c, 1, 50, 127
1, 98448, Note_off_c, 1, 66, 0
1, 98496, Note_off_c, 1, 81, 0
1, 98496, Note_off_c, 1, 78, 0
1, 98496, Note_off_c, 1, 38, 0
1, 98496, Note_off_c, 1, 50, 0
1, 98508, Note_off_c, 1, 74, 0
1, 98513, Note_off_c, 1, 62, 0
1, 98520, Note_on_c, 1, 61, 127
1, 98520, Note_on_c, 1, 38, 127
1, 98520, Note_on_c, 1, 64, 127
1, 98520, Note_on_c, 1, 50, 127
1, 98568, Note_off_c, 1, 64, 0
1, 98580, Note_on_c, 1, 74, 127
1, 98616, Note_off_c, 1, 38, 0
1, 98616, Note_off_c, 1, 50, 0
1, 98628, Note_off_c, 1, 74, 0
1, 98633, Note_off_c, 1, 61, 0
1, 98640, Note_on_c, 1, 81, 127
1, 98640, Note_on_c, 1, 78, 127
1, 98640, Note_on_c, 1, 86, 127
1, 98640, Note_on_c, 1, 74, 127
1, 98640, Note_on_c, 1, 62, 127
1, 98640, Note_on_c, 1, 38, 127
1, 98640, Note_on_c, 1, 50, 127
1, 98700, Note_on_c, 1, 66, 127
1, 98748, Note_off_c, 1, 66, 0
1, 98760, Note_on_c, 1, 69, 127
1, 98808, Note_off_c, 1, 69, 0
1, 98820, Note_on_c, 1, 73, 127
1, 98868, Note_off_c, 1, 73, 0
1, 99060, Note_on_c, 1, 85, 127
1, 99108, Note_off_c, 1, 85, 0
1, 99216, Note_off_c, 1, 81, 0
1, 99216, Note_off_c, 1, 78, 0
1, 99216, Note_off_c, 1, 74, 0
1, 99216, Note_off_c, 1, 62, 0
1, 99216, Note_off_c, 1, 38, 0
1, 99216, Note_off_c, 1, 50, 0
1, 99312, Note_off_c, 1, 86, 0
1, 99312, End_track
0, 0, End_of_file