0, 0, Header, 1, 1, 480
1, 0, Start_track
1, 0, Title_t, "Test"
1, 0, Tempo, 500000
1, 0, Instrument_name_t, "Church Organ"
1, 0, Note_on_c, 1, 69, 127
1, 0, Note_on_c, 1, 65, 127
1, 0, Note_on_c, 1, 62, 127
1, 0, Note_on_c, 1, 50, 127
1, 384, Note_off_c, 1, 69, 0
1, 384, Note_off_c, 1, 65, 0
1, 384, Note_off_c, 1, 62, 0
1, 480, Note_on_c, 1, 74, 127
1, 576, Note_off_c, 1, 50, 0
1, 720, Note_on_c, 1, 49, 127
1, 816, Note_off_c, 1, 49, 0
1, 960, Note_on_c, 1, 64, 127
1, 960, Note_on_c, 1, 67, 127
1, 960, Note_on_c, 1, 52, 127
1, 1152, Note_off_c, 1, 74, 0
1, 1200, Note_on_c, 1, 73, 127
1, 1296, Note_off_c, 1, 73, 0
1, 1320, Note_on_c, 1, 71, 127
1, 1416, Note_off_c, 1, 71, 0
1, 1536, Note_off_c, 1, 52, 0
1, 1728, Note_off_c, 1, 64, 0
1, 1824, Note_off_c, 1, 67, 0
1, 1920, Note_on_c, 1, 54, 127
1, 2040, Note_on_c, 1, 62, 127
1, 2160, Note_on_c, 1, 66, 127
1, 2256, Note_off_c, 1, 66, 0
1, 2280, Note_on_c, 1, 69, 127
1, 2376, Note_off_c, 1, 69, 0
1, 2400, Note_on_c, 1, 72, 127
1, 2496, Note_off_c, 1, 54, 0
1, 2520, Note_on_c, 1, 50, 127
1, 2616, Note_off_c, 1, 50, 0
1, 2640, Note_on_c, 1, 52, 127
1, 2736, Note_off_c, 1, 52, 0
1, 2880, Note_on_c, 1, 55, 127
1, 2976, Note_off_c, 1, 55, 0
1, 3072, Note_off_c, 1, 72, 0
1, 3120, Note_on_c, 1, 70, 127
1, 3216, Note_off_c, 1, 70, 0
1, 3240, Note_on_c, 1, 57, 127
1, 3264, Note_off_c, 1, 62, 0
1, 3336, Note_off_c, 1, 57, 0
1, 3360, Note_on_c, 1, 67, 127
1, 3360, Note_on_c, 1, 58, 127
1, 3456, Note_off_c, 1, 67, 0
1, 3480, Note_on_c, 1, 65, 127
1, 3576, Note_off_c, 1, 65, 0
1, 3600, Note_on_c, 1, 64, 127
1, 3696, Note_off_c, 1, 64, 0
1, 3720, Note_on_c, 1, 62, 127
1, 3816, Note_off_c, 1, 62, 0
1, 3840, Note_on_c, 1, 61, 127
1, 4224, Note_off_c, 1, 61, 0
1, 4416, Note_off_c, 1, 58, 0
1, 4560, Note_on_c, 1, 57, 127
1, 4656, Note_off_c, 1, 57, 0
1, 4680, Note_on_c, 1, 55, 127
1, 4776, Note_off_c, 1, 55, 0
1, 4800, Note_on_c, 1, 53, 127
1, 4896, Note_off_c, 1, 53, 0
1, 4920, Note_on_c, 1, 52, 127
1, 5016, Note_off_c, 1, 52, 0
1, 5040, Note_on_c, 1, 50, 127
1, 5136, Note_off_c, 1, 50, 0
1, 5160, Note_on_c, 1, 49, 127
1, 5256, Note_off_c, 1, 49, 0
1, 5280, Note_on_c, 1, 65, 127
1, 5280, Note_on_c, 1, 62, 127
1, 5280, Note_on_c, 1, 50, 127
1, 5376, Note_off_c, 1, 50, 0
1, 5400, Note_on_c, 1, 52, 127
1, 5496, Note_off_c, 1, 52, 0
1, 5520, Note_on_c, 1, 53, 127
1, 5616, Note_off_c, 1, 53, 0
1, 5640, Note_on_c, 1, 55, 127
1, 5664, Note_off_c, 1, 65, 0
1, 5736, Note_off_c, 1, 55, 0
1, 5760, Note_on_c, 1, 64, 127
1, 5760, Note_on_c, 1, 57, 127
1, 5856, Note_off_c, 1, 62, 0
1, 5952, Note_off_c, 1, 57, 0
1, 6000, Note_on_c, 1, 60, 127
1, 6096, Note_off_c, 1, 60, 0
1, 6120, Note_on_c, 1, 59, 127
1, 6216, Note_off_c, 1, 59, 0
1, 6336, Note_off_c, 1, 64, 0
1, 6360, Note_on_c, 1, 69, 127
1, 6456, Note_off_c, 1, 69, 0
1, 6480, Note_on_c, 1, 68, 127
1, 6576, Note_off_c, 1, 68, 0
1, 6720, Note_on_c, 1, 71, 127
1, 6960, Note_on_c, 1, 56, 127
1, 7056, Note_off_c, 1, 56, 0
1, 7080, Note_on_c, 1, 54, 127
1, 7176, Note_off_c, 1, 54, 0
1, 7296, Note_off_c, 1, 71, 0
1, 7680, Note_on_c, 1, 73, 127
1, 7800, Note_on_c, 1, 45, 127
1, 7920, Note_on_c, 1, 49, 127
1, 8016, Note_off_c, 1, 49, 0
1, 8088, Note_off_c, 1, 45, 0
1, 8256, Note_off_c, 1, 73, 0
1, 8640, Note_on_c, 1, 74, 127
1, 8736, Note_off_c, 1, 74, 0
1, 9000, Note_on_c, 1, 76, 127
1, 9096, Note_off_c, 1, 76, 0
1, 9120, Note_on_c, 1, 77, 127
1, 9240, Note_on_c, 1, 48, 127
1, 9336, Note_off_c, 1, 48, 0
1, 9360, Note_on_c, 1, 47, 127
1, 9456, Note_off_c, 1, 47, 0
1, 9600, Note_on_c, 1, 44, 127
1, 9696, Note_off_c, 1, 44, 0
1, 10176, Note_off_c, 1, 77, 0
1, 10560, Note_on_c, 1, 72, 127
1, 10656, Note_off_c, 1, 72, 0
1, 10800, Note_on_c, 1, 69, 127
1, 10800, Note_on_c, 1, 59, 127
1, 10800, Note_on_c, 1, 50, 127
1, 10896, Note_off_c, 1, 69, 0
1, 10920, Note_on_c, 1, 68, 127
1, 10992, Note_off_c, 1, 59, 0
1, 10992, Note_off_c, 1, 50, 0
1, 11016, Note_off_c, 1, 68, 0
1, 11040, Note_on_c, 1, 69, 127
1, 11040, Note_on_c, 1, 52, 127
1, 11040, Note_on_c, 1, 48, 127
1, 11136, Note_off_c, 1, 69, 0
1, 11160, Note_on_c, 1, 71, 127
1, 11232, Note_off_c, 1, 52, 0
1, 11256, Note_off_c, 1, 71, 0
1, 11280, Note_on_c, 1, 72, 127
1, 11280, Note_on_c, 1, 57, 127
1, 11376, Note_off_c, 1, 72, 0
1, 11472, Note_off_c, 1, 57, 0
1, 11520, Note_on_c, 1, 74, 127
1, 11616, Note_off_c, 1, 48, 0
1, 11760, Note_on_c, 1, 66, 127
1, 11760, Note_on_c, 1, 50, 127
1, 11856, Note_off_c, 1, 50, 0
1, 11952, Note_off_c, 1, 66, 0
1, 12000, Note_on_c, 1, 68, 127
1, 12000, Note_on_c, 1, 47, 127
1, 12096, Note_off_c, 1, 47, 0
1, 12120, Note_on_c, 1, 45, 127
1, 12192, Note_off_c, 1, 68, 0
1, 12216, Note_off_c, 1, 45, 0
1, 12240, Note_on_c, 1, 44, 127
1, 12336, Note_off_c, 1, 44, 0
1, 12360, Note_on_c, 1, 42, 127
1, 12456, Note_off_c, 1, 42, 0
1, 12672, Note_off_c, 1, 74, 0
1, 12720, Note_on_c, 1, 74, 127
1, 12720, Note_on_c, 1, 71, 127
1, 12720, Note_on_c, 1, 64, 127
1, 12720, Note_on_c, 1, 47, 127
1, 12816, Note_off_c, 1, 47, 0
1, 12840, Note_on_c, 1, 44, 127
1, 12912, Note_off_c, 1, 74, 0
1, 12936, Note_off_c, 1, 44, 0
1, 12960, Note_on_c, 1, 72, 127
1, 12960, Note_on_c, 1, 45, 127
1, 13056, Note_off_c, 1, 45, 0
1, 13104, Note_off_c, 1, 71, 0
1, 13200, Note_on_c, 1, 69, 127
1, 13200, Note_on_c, 1, 48, 127
1, 13296, Note_off_c, 1, 48, 0
1, 13320, Note_on_c, 1, 50, 127
1, 13344, Note_off_c, 1, 72, 0
1, 13416, Note_off_c, 1, 50, 0
1, 13440, Note_on_c, 1, 52, 127
1, 13656, Note_off_c, 1, 69, 0
1, 13680, Note_on_c, 1, 68, 127
1, 13776, Note_off_c, 1, 68, 0
1, 13800, Note_on_c, 1, 66, 127
1, 13896, Note_off_c, 1, 66, 0
1, 14016, Note_off_c, 1, 52, 0
1, 14592, Note_off_c, 1, 64, 0
1, 14880, Note_on_c, 1, 76, 127
1, 15360, Note_on_c, 1, 53, 127
1, 15456, Note_off_c, 1, 76, 0
1, 15936, Note_off_c, 1, 53, 0
1, 15960, Note_on_c, 1, 67, 127
1, 16056, Note_off_c, 1, 67, 0
1, 16080, Note_on_c, 1, 65, 127
1, 16176, Note_off_c, 1, 65, 0
1, 16320, Note_on_c, 1, 62, 127
1, 16704, Note_off_c, 1, 62, 0
1, 17400, Note_on_c, 1, 77, 127
1, 17496, Note_off_c, 1, 77, 0
1, 17760, Note_on_c, 1, 83, 127
1, 18000, Note_on_c, 1, 80, 127
1, 18432, Note_off_c, 1, 83, 0
1, 18432, Note_off_c, 1, 80, 0
1, 18480, Note_on_c, 1, 81, 127
1, 18576, Note_off_c, 1, 81, 0
1, 18720, Note_on_c, 1, 81, 127
1, 18720, Note_on_c, 1, 48, 127
1, 18816, Note_off_c, 1, 48, 0
1, 18840, Note_on_c, 1, 45, 127
1, 18912, Note_off_c, 1, 81, 0
1, 18936, Note_off_c, 1, 45, 0
1, 18960, Note_on_c, 1, 76, 127
1, 18960, Note_on_c, 1, 72, 127
1, 18960, Note_on_c, 1, 69, 127
1, 18960, Note_on_c, 1, 47, 127
1, 19056, Note_off_c, 1, 47, 0
1, 19080, Note_on_c, 1, 48, 127
1, 19152, Note_off_c, 1, 76, 0
1, 19176, Note_off_c, 1, 48, 0
1, 19200, Note_on_c, 1, 77, 127
1, 19200, Note_on_c, 1, 50, 127
1, 19296, Note_off_c, 1, 72, 0
1, 19296, Note_off_c, 1, 50, 0
1, 19392, Note_off_c, 1, 69, 0
1, 19440, Note_on_c, 1, 74, 127
1, 19536, Note_off_c, 1, 74, 0
1, 19560, Note_on_c, 1, 52, 127
1, 19656, Note_off_c, 1, 52, 0
1, 19680, Note_on_c, 1, 71, 127
1, 19680, Note_on_c, 1, 53, 127
1, 19776, Note_off_c, 1, 71, 0
1, 19776, Note_off_c, 1, 53, 0
1, 19920, Note_on_c, 1, 68, 127
1, 20016, Note_off_c, 1, 68, 0
1, 20160, Note_on_c, 1, 44, 127
1, 20256, Note_off_c, 1, 77, 0
1, 20352, Note_off_c, 1, 44, 0
1, 20400, Note_on_c, 1, 56, 127
1, 20592, Note_off_c, 1, 56, 0
1, 20640, Note_on_c, 1, 72, 127
1, 20640, Note_on_c, 1, 57, 127
1, 20736, Note_off_c, 1, 72, 0
1, 20760, Note_on_c, 1, 71, 127
1, 20832, Note_off_c, 1, 57, 0
1, 20856, Note_off_c, 1, 71, 0
1, 20880, Note_on_c, 1, 69, 127
1, 20880, Note_on_c, 1, 62, 127
1, 20880, Note_on_c, 1, 59, 127
1, 20880, Note_on_c, 1, 52, 127
1, 20976, Note_off_c, 1, 69, 0
1, 21000, Note_on_c, 1, 68, 127
1, 21072, Note_off_c, 1, 62, 0
1, 21072, Note_off_c, 1, 59, 0
1, 21072, Note_off_c, 1, 52, 0
1, 21096, Note_off_c, 1, 68, 0
1, 21120, Note_on_c, 1, 60, 127
1, 21120, Note_on_c, 1, 69, 127
1, 21120, Note_on_c, 1, 53, 127
1, 21120, Note_on_c, 1, 57, 127
1, 21150, Note_on_c, 1, 70, 127
1, 21174, Note_off_c, 1, 70, 0
1, 21210, Note_on_c, 1, 67, 127
1, 21234, Note_off_c, 1, 67, 0
1, 21312, Note_off_c, 1, 60, 0
1, 21312, Note_off_c, 1, 53, 0
1, 21360, Note_on_c, 1, 65, 127
1, 21360, Note_on_c, 1, 50, 127
1, 21465, Note_off_c, 1, 69, 0
1, 21480, Note_on_c, 1, 71, 127
1, 21552, Note_off_c, 1, 65, 0
1, 21552, Note_off_c, 1, 50, 0
1, 21576, Note_off_c, 1, 71, 0
1, 21600, Note_on_c, 1, 64, 127
1, 21600, Note_on_c, 1, 52, 127
1, 21600, Note_on_c, 1, 72, 127
1, 21624, Note_off_c, 1, 72, 0
1, 21696, Note_off_c, 1, 57, 0
1, 21792, Note_off_c, 1, 64, 0
1, 21840, Note_on_c, 1, 62, 127
1, 21840, Note_on_c, 1, 56, 127
1, 21984, Note_off_c, 1, 52, 0
1, 22032, Note_off_c, 1, 62, 0
1, 22032, Note_off_c, 1, 56, 0
1, 22080, Note_on_c, 1, 62, 127
1, 22080, Note_on_c, 1, 69, 127
1, 22080, Note_on_c, 1, 45, 127
1, 22080, Note_on_c, 1, 57, 127
1, 22272, Note_off_c, 1, 62, 0
1, 22320, Note_on_c, 1, 60, 127
1, 22464, Note_off_c, 1, 69, 0
1, 22464, Note_off_c, 1, 45, 0
1, 22512, Note_off_c, 1, 60, 0
1, 22560, Note_on_c, 1, 65, 127
1, 22656, Note_off_c, 1, 57, 0
1, 22800, Note_on_c, 1, 55, 127
1, 22896, Note_off_c, 1, 55, 0
1, 23040, Note_on_c, 1, 59, 127
1, 23160, Note_on_c, 1, 72, 127
1, 23256, Note_off_c, 1, 72, 0
1, 23280, Note_on_c, 1, 71, 127
1, 23376, Note_off_c, 1, 71, 0
1, 23424, Note_off_c, 1, 65, 0
1, 23520, Note_on_c, 1, 74, 127
1, 23616, Note_off_c, 1, 59, 0
1, 23712, Note_off_c, 1, 74, 0
1, 23760, Note_on_c, 1, 65, 127
1, 23760, Note_on_c, 1, 62, 127
1, 23760, Note_on_c, 1, 57, 127
1, 23856, Note_off_c, 1, 57, 0
1, 23880, Note_on_c, 1, 59, 127
1, 23976, Note_off_c, 1, 59, 0
1, 24000, Note_on_c, 1, 60, 127
1, 24192, Note_off_c, 1, 65, 0
1, 24192, Note_off_c, 1, 62, 0
1, 24192, Note_off_c, 1, 60, 0
1, 24240, Note_on_c, 1, 64, 127
1, 24240, Note_on_c, 1, 60, 127
1, 24240, Note_on_c, 1, 48, 127
1, 24432, Note_off_c, 1, 64, 0
1, 24432, Note_off_c, 1, 60, 0
1, 24432, Note_off_c, 1, 48, 0
1, 24480, Note_on_c, 1, 72, 127
1, 24480, Note_on_c, 1, 69, 127
1, 24600, Note_on_c, 1, 60, 127
1, 24696, Note_off_c, 1, 60, 0
1, 24720, Note_on_c, 1, 59, 127
1, 24816, Note_off_c, 1, 59, 0
1, 24960, Note_on_c, 1, 62, 127
1, 25056, Note_off_c, 1, 72, 0
1, 25080, Note_on_c, 1, 76, 127
1, 25176, Note_off_c, 1, 76, 0
1, 25200, Note_on_c, 1, 74, 127
1, 25296, Note_off_c, 1, 74, 0
1, 25344, Note_off_c, 1, 69, 0
1, 25440, Note_on_c, 1, 77, 127
1, 25536, Note_off_c, 1, 62, 0
1, 25665, Note_off_c, 1, 77, 0
1, 25680, Note_on_c, 1, 65, 127
1, 25680, Note_on_c, 1, 69, 127
1, 25680, Note_on_c, 1, 60, 127
1, 25776, Note_off_c, 1, 60, 0
1, 25800, Note_on_c, 1, 62, 127
1, 25896, Note_off_c, 1, 62, 0
1, 25920, Note_on_c, 1, 64, 127
1, 26112, Note_off_c, 1, 65, 0
1, 26112, Note_off_c, 1, 64, 0
1, 26145, Note_off_c, 1, 69, 0
1, 26160, Note_on_c, 1, 64, 127
1, 26160, Note_on_c, 1, 67, 127
1, 26160, Note_on_c, 1, 52, 127
1, 26352, Note_off_c, 1, 64, 0
1, 26352, Note_off_c, 1, 52, 0
1, 26385, Note_off_c, 1, 67, 0
1, 26400, Note_on_c, 1, 76, 127
1, 26400, Note_on_c, 1, 72, 127
1, 26520, Note_on_c, 1, 64, 127
1, 26616, Note_off_c, 1, 64, 0
1, 26640, Note_on_c, 1, 62, 127
1, 26736, Note_off_c, 1, 62, 0
1, 26880, Note_on_c, 1, 65, 127
1, 26976, Note_off_c, 1, 76, 0
1, 27000, Note_on_c, 1, 79, 127
1, 27096, Note_off_c, 1, 79, 0
1, 27120, Note_on_c, 1, 77, 127
1, 27216, Note_off_c, 1, 77, 0
1, 27264, Note_off_c, 1, 72, 0
1, 27360, Note_on_c, 1, 81, 127
1, 27456, Note_off_c, 1, 65, 0
1, 27552, Note_off_c, 1, 81, 0
1, 27600, Note_on_c, 1, 72, 127
1, 27600, Note_on_c, 1, 69, 127
1, 27600, Note_on_c, 1, 64, 127
1, 27696, Note_off_c, 1, 64, 0
1, 27720, Note_on_c, 1, 65, 127
1, 27792, Note_off_c, 1, 72, 0
1, 27816, Note_off_c, 1, 65, 0
1, 27840, Note_on_c, 1, 71, 127
1, 27840, Note_on_c, 1, 67, 127
1, 27936, Note_off_c, 1, 67, 0
1, 28032, Note_off_c, 1, 69, 0
1, 28200, Note_on_c, 1, 62, 127
1, 28224, Note_off_c, 1, 71, 0
1, 28296, Note_off_c, 1, 62, 0
1, 28320, Note_on_c, 1, 79, 127
1, 28320, Note_on_c, 1, 64, 127
1, 28416, Note_off_c, 1, 64, 0
1, 28440, Note_on_c, 1, 77, 127
1, 28440, Note_on_c, 1, 62, 127
1, 28536, Note_off_c, 1, 77, 0
1, 28536, Note_off_c, 1, 62, 0
1, 28560, Note_on_c, 1, 76, 127
1, 28560, Note_on_c, 1, 61, 127
1, 28656, Note_off_c, 1, 76, 0
1, 28656, Note_off_c, 1, 61, 0
1, 28680, Note_on_c, 1, 74, 127
1, 28680, Note_on_c, 1, 59, 127
1, 28776, Note_off_c, 1, 74, 0
1, 28776, Note_off_c, 1, 59, 0
1, 29040, Note_on_c, 1, 73, 127
1, 29040, Note_on_c, 1, 57, 127
1, 29136, Note_off_c, 1, 73, 0
1, 29232, Note_off_c, 1, 57, 0
1, 29280, Note_on_c, 1, 69, 127
1, 29400, Note_on_c, 1, 50, 127
1, 29472, Note_off_c, 1, 79, 0
1, 29496, Note_off_c, 1, 50, 0
1, 29520, Note_on_c, 1, 52, 127
1, 29616, Note_off_c, 1, 52, 0
1, 29640, Note_on_c, 1, 53, 127
1, 29736, Note_off_c, 1, 53, 0
1, 29760, Note_on_c, 1, 70, 127
1, 29760, Note_on_c, 1, 55, 127
1, 29856, Note_off_c, 1, 55, 0
1, 29952, Note_off_c, 1, 69, 0
1, 30240, Note_on_c, 1, 67, 127
1, 30240, Note_on_c, 1, 58, 127
1, 30336, Note_off_c, 1, 58, 0
1, 30912, Note_off_c, 1, 70, 0
1, 30912, Note_off_c, 1, 67, 0
1, 31200, Note_on_c, 1, 69, 127
1, 31200, Note_on_c, 1, 61, 127
1, 31296, Note_off_c, 1, 69, 0
1, 31296, Note_off_c, 1, 61, 0
1, 31320, Note_on_c, 1, 67, 127
1, 31320, Note_on_c, 1, 57, 127
1, 31416, Note_off_c, 1, 67, 0
1, 31416, Note_off_c, 1, 57, 0
1, 31440, Note_on_c, 1, 65, 127
1, 31440, Note_on_c, 1, 59, 127
1, 31536, Note_off_c, 1, 65, 0
1, 31536, Note_off_c, 1, 59, 0
1, 31560, Note_on_c, 1, 64, 127
1, 31560, Note_on_c, 1, 61, 127
1, 31656, Note_off_c, 1, 64, 0
1, 31656, Note_off_c, 1, 61, 0
1, 31680, Note_on_c, 1, 65, 127
1, 31680, Note_on_c, 1, 62, 127
1, 31800, Note_on_c, 1, 69, 127
1, 31872, Note_off_c, 1, 62, 0
1, 31920, Note_on_c, 1, 71, 127
1, 31920, Note_on_c, 1, 50, 127
1, 32016, Note_off_c, 1, 71, 0
1, 32040, Note_on_c, 1, 73, 127
1, 32136, Note_off_c, 1, 73, 0
1, 32160, Note_on_c, 1, 74, 127
1, 32256, Note_off_c, 1, 50, 0
1, 32400, Note_on_c, 1, 49, 127
1, 32448, Note_off_c, 1, 65, 0
1, 32496, Note_off_c, 1, 49, 0
1, 32544, Note_off_c, 1, 69, 0
1, 32640, Note_on_c, 1, 64, 127
1, 32640, Note_on_c, 1, 67, 127
1, 32640, Note_on_c, 1, 52, 127
1, 32832, Note_off_c, 1, 74, 0
1, 33216, Note_off_c, 1, 52, 0
1, 33408, Note_off_c, 1, 64, 0
1, 33504, Note_off_c, 1, 67, 0
1, 33600, Note_on_c, 1, 54, 127
1, 33720, Note_on_c, 1, 62, 127
1, 33840, Note_on_c, 1, 66, 127
1, 33936, Note_off_c, 1, 66, 0
1, 33960, Note_on_c, 1, 69, 127
1, 34056, Note_off_c, 1, 69, 0
1, 34080, Note_on_c, 1, 72, 127
1, 34176, Note_off_c, 1, 54, 0
1, 34200, Note_on_c, 1, 50, 127
1, 34296, Note_off_c, 1, 50, 0
1, 34320, Note_on_c, 1, 52, 127
1, 34416, Note_off_c, 1, 52, 0
1, 34560, Note_on_c, 1, 55, 127
1, 34656, Note_off_c, 1, 55, 0
1, 34752, Note_off_c, 1, 72, 0
1, 34800, Note_on_c, 1, 70, 127
1, 34800, Note_on_c, 1, 67, 127
1, 34896, Note_off_c, 1, 70, 0
1, 34920, Note_on_c, 1, 57, 127
1, 34944, Note_off_c, 1, 62, 0
1, 34992, Note_off_c, 1, 67, 0
1, 35016, Note_off_c, 1, 57, 0
1, 35040, Note_on_c, 1, 67, 127
1, 35040, Note_on_c, 1, 58, 127
1, 35136, Note_off_c, 1, 67, 0
1, 35160, Note_on_c, 1, 65, 127
1, 35256, Note_off_c, 1, 65, 0
1, 35280, Note_on_c, 1, 64, 127
1, 35376, Note_off_c, 1, 64, 0
1, 35400, Note_on_c, 1, 62, 127
1, 35496, Note_off_c, 1, 62, 0
1, 35520, Note_on_c, 1, 61, 127
1, 35904, Note_off_c, 1, 61, 0
1, 36096, Note_off_c, 1, 58, 0
1, 36240, Note_on_c, 1, 57, 127
1, 36336, Note_off_c, 1, 57, 0
1, 36360, Note_on_c, 1, 55, 127
1, 36456, Note_off_c, 1, 55, 0
1, 36480, Note_on_c, 1, 53, 127
1, 36576, Note_off_c, 1, 53, 0
1, 36600, Note_on_c, 1, 52, 127
1, 36696, Note_off_c, 1, 52, 0
1, 36720, Note_on_c, 1, 50, 127
1, 36816, Note_off_c, 1, 50, 0
1, 36840, Note_on_c, 1, 49, 127
1, 36936, Note_off_c, 1, 49, 0
1, 37440, Note_on_c, 1, 44, 127
1, 37680, Note_on_c, 1, 68, 127
1, 37680, Note_on_c, 1, 47, 127
1, 37776, Note_off_c, 1, 68, 0
1, 37800, Note_on_c, 1, 71, 127
1, 37872, Note_off_c, 1, 47, 0
1, 37896, Note_off_c, 1, 71, 0
1, 37920, Note_on_c, 1, 74, 127
1, 38016, Note_off_c, 1, 44, 0
1, 38016, Note_off_c, 1, 74, 0
1, 38040, Note_on_c, 1, 77, 127
1, 38136, Note_off_c, 1, 77, 0
1, 38160, Note_on_c, 1, 76, 127
1, 38256, Note_off_c, 1, 76, 0
1, 38400, Note_on_c, 1, 73, 127
1, 38400, Note_on_c, 1, 45, 127
1, 38496, Note_off_c, 1, 73, 0
1, 38520, Note_on_c, 1, 70, 127
1, 38592, Note_off_c, 1, 45, 0
1, 38616, Note_off_c, 1, 70, 0
1, 38640, Note_on_c, 1, 69, 127
1, 38640, Note_on_c, 1, 49, 127
1, 38736, Note_off_c, 1, 69, 0
1, 38760, Note_on_c, 1, 67, 127
1, 38832, Note_off_c, 1, 49, 0
1, 38856, Note_off_c, 1, 67, 0
1, 38880, Note_on_c, 1, 65, 127
1, 38880, Note_on_c, 1, 50, 127
1, 38976, Note_off_c, 1, 65, 0
1, 39000, Note_on_c, 1, 64, 127
1, 39072, Note_off_c, 1, 50, 0
1, 39096, Note_off_c, 1, 64, 0
1, 39120, Note_on_c, 1, 62, 127
1, 39120, Note_on_c, 1, 52, 127
1, 39120, Note_on_c, 1, 55, 127
1, 39120, Note_on_c, 1, 45, 127
1, 39216, Note_off_c, 1, 62, 0
1, 39240, Note_on_c, 1, 61, 127
1, 39312, Note_off_c, 1, 52, 0
1, 39312, Note_off_c, 1, 55, 0
1, 39312, Note_off_c, 1, 45, 0
1, 39336, Note_off_c, 1, 61, 0
1, 39360, Note_on_c, 1, 62, 127
1, 39360, Note_on_c, 1, 46, 127
1, 39360, Note_on_c, 1, 53, 127
1, 39360, Note_on_c, 1, 50, 127
1, 39390, Note_on_c, 1, 64, 127
1, 39414, Note_off_c, 1, 64, 0
1, 39450, Note_on_c, 1, 60, 127
1, 39474, Note_off_c, 1, 60, 0
1, 39552, Note_off_c, 1, 46, 0
1, 39552, Note_off_c, 1, 53, 0
1, 39600, Note_on_c, 1, 58, 127
1, 39600, Note_on_c, 1, 43, 127
1, 39672, Note_off_c, 1, 62, 0
1, 39792, Note_off_c, 1, 58, 0
1, 39792, Note_off_c, 1, 43, 0
1, 39840, Note_on_c, 1, 45, 127
1, 39840, Note_on_c, 1, 57, 127
1, 39840, Note_on_c, 1, 65, 127
1, 39864, Note_off_c, 1, 65, 0
1, 39936, Note_off_c, 1, 50, 0
1, 40080, Note_on_c, 1, 49, 127
1, 40224, Note_off_c, 1, 45, 0
1, 40224, Note_off_c, 1, 57, 0
1, 40272, Note_off_c, 1, 49, 0
1, 40320, Note_on_c, 1, 62, 127
1, 40320, Note_on_c, 1, 38, 127
1, 40320, Note_on_c, 1, 57, 127
1, 40320, Note_on_c, 1, 53, 127
1, 40320, Note_on_c, 1, 50, 127
1, 41088, Note_off_c, 1, 62, 0
1, 41088, Note_off_c, 1, 38, 0
1, 41088, Note_off_c, 1, 57, 0
1, 41088, Note_off_c, 1, 53, 0
1, 41088, Note_off_c, 1, 50, 0
1, 41400, Note_on_c, 1, 69, 127
1, 41496, Note_off_c, 1, 69, 0
1, 41520, Note_on_c, 1, 69, 127
1, 41616, Note_off_c, 1, 69, 0
1, 41640, Note_on_c, 1, 69, 127
1, 41736, Note_off_c, 1, 69, 0
1, 41760, Note_on_c, 1, 69, 127
1, 41856, Note_off_c, 1, 69, 0
1, 41880, Note_on_c, 1, 67, 127
1, 41928, Note_off_c, 1, 67, 0
1, 41940, Note_on_c, 1, 65, 127
1, 41988, Note_off_c, 1, 65, 0
1, 42000, Note_on_c, 1, 67, 127
1, 42096, Note_off_c, 1, 67, 0
1, 42120, Note_on_c, 1, 64, 127
1, 42216, Note_off_c, 1, 64, 0
1, 42240, Note_on_c, 1, 65, 127
1, 42336, Note_off_c, 1, 65, 0
1, 42360, Note_on_c, 1, 62, 127
1, 42456, Note_off_c, 1, 62, 0
1, 42480, Note_on_c, 1, 70, 127
1, 42480, Note_on_c, 1, 62, 127
1, 42576, Note_off_c, 1, 70, 0
1, 42576, Note_off_c, 1, 62, 0
1, 42600, Note_on_c, 1, 62, 127
1, 42696, Note_off_c, 1, 62, 0
1, 42720, Note_on_c, 1, 64, 127
1, 42720, Note_on_c, 1, 62, 127
1, 42816, Note_off_c, 1, 64, 0
1, 42816, Note_off_c, 1, 62, 0
1, 42840, Note_on_c, 1, 60, 127
1, 42888, Note_off_c, 1, 60, 0
1, 42900, Note_on_c, 1, 58, 127
1, 42948, Note_off_c, 1, 58, 0
1, 42960, Note_on_c, 1, 69, 127
1, 42960, Note_on_c, 1, 60, 127
1, 43056, Note_off_c, 1, 69, 0
1, 43056, Note_off_c, 1, 60, 0
1, 43080, Note_on_c, 1, 57, 127
1, 43176, Note_off_c, 1, 57, 0
1, 43200, Note_on_c, 1, 69, 127
1, 43200, Note_on_c, 1, 58, 127
1, 43296, Note_off_c, 1, 69, 0
1, 43296, Note_off_c, 1, 58, 0
1, 43320, Note_on_c, 1, 67, 127
1, 43320, Note_on_c, 1, 74, 127
1, 43368, Note_off_c, 1, 67, 0
1, 43380, Note_on_c, 1, 65, 127
1, 43416, Note_off_c, 1, 74, 0
1, 43428, Note_off_c, 1, 65, 0
1, 43440, Note_on_c, 1, 74, 127
1, 43440, Note_on_c, 1, 67, 127
1, 43440, Note_on_c, 1, 58, 127
1, 43536, Note_off_c, 1, 74, 0
1, 43536, Note_off_c, 1, 67, 0
1, 43536, Note_off_c, 1, 58, 0
1, 43560, Note_on_c, 1, 64, 127
1, 43560, Note_on_c, 1, 74, 127
1, 43656, Note_off_c, 1, 64, 0
1, 43656, Note_off_c, 1, 74, 0
1, 43680, Note_on_c, 1, 65, 127
1, 43680, Note_on_c, 1, 74, 127
1, 43680, Note_on_c, 1, 57, 127
1, 43776, Note_off_c, 1, 65, 0
1, 43776, Note_off_c, 1, 74, 0
1, 43776, Note_off_c, 1, 57, 0
1, 43800, Note_on_c, 1, 72, 127
1, 43848, Note_off_c, 1, 72, 0
1, 43860, Note_on_c, 1, 70, 127
1, 43908, Note_off_c, 1, 70, 0
1, 43920, Note_on_c, 1, 64, 127
1, 43920, Note_on_c, 1, 72, 127
1, 43920, Note_on_c, 1, 57, 127
1, 44016, Note_off_c, 1, 64, 0
1, 44016, Note_off_c, 1, 72, 0
1, 44040, Note_on_c, 1, 69, 127
1, 44136, Note_off_c, 1, 69, 0
1, 44160, Note_on_c, 1, 62, 127
1, 44160, Note_on_c, 1, 70, 127
1, 44256, Note_off_c, 1, 57, 0
1, 44280, Note_on_c, 1, 50, 127
1, 44376, Note_off_c, 1, 50, 0
1, 44400, Note_on_c, 1, 55, 127
1, 44448, Note_off_c, 1, 62, 0
1, 44460, Note_on_c, 1, 65, 127
1, 44508, Note_off_c, 1, 65, 0
1, 44544, Note_off_c, 1, 70, 0
1, 44610, Note_on_c, 1, 67, 127
1, 44634, Note_off_c, 1, 67, 0
1, 44640, Note_on_c, 1, 61, 127
1, 44736, Note_off_c, 1, 55, 0
1, 44736, Note_off_c, 1, 61, 0
1, 44760, Note_on_c, 1, 81, 127
1, 44856, Note_off_c, 1, 81, 0
1, 44880, Note_on_c, 1, 62, 127
1, 44880, Note_on_c, 1, 69, 127
1, 44880, Note_on_c, 1, 81, 127
1, 44880, Note_on_c, 1, 53, 127
1, 44976, Note_off_c, 1, 62, 0
1, 44976, Note_off_c, 1, 69, 0
1, 44976, Note_off_c, 1, 81, 0
1, 44976, Note_off_c, 1, 53, 0
1, 45000, Note_on_c, 1, 81, 127
1, 45120, Note_on_c, 1, 70, 127
1, 45120, Note_on_c, 1, 52, 127
1, 45120, Note_on_c, 1, 62, 127
1, 45216, Note_off_c, 1, 81, 0
1, 45216, Note_off_c, 1, 70, 0
1, 45216, Note_off_c, 1, 52, 0
1, 45216, Note_off_c, 1, 62, 0
1, 45240, Note_on_c, 1, 79, 127
1, 45288, Note_off_c, 1, 79, 0
1, 45300, Note_on_c, 1, 77, 127
1, 45348, Note_off_c, 1, 77, 0
1, 45360, Note_on_c, 1, 79, 127
1, 45360, Note_on_c, 1, 69, 127
1, 45360, Note_on_c, 1, 57, 127
1, 45360, Note_on_c, 1, 61, 127
1, 45456, Note_off_c, 1, 79, 0
1, 45456, Note_off_c, 1, 69, 0
1, 45456, Note_off_c, 1, 57, 0
1, 45456, Note_off_c, 1, 61, 0
1, 45480, Note_on_c, 1, 76, 127
1, 45600, Note_on_c, 1, 77, 127
1, 45600, Note_on_c, 1, 62, 127
1, 45600, Note_on_c, 1, 50, 127
1, 45696, Note_off_c, 1, 76, 0
1, 45696, Note_off_c, 1, 77, 0
1, 45696, Note_off_c, 1, 62, 0
1, 45696, Note_off_c, 1, 50, 0
1, 45720, Note_on_c, 1, 74, 127
1, 45720, Note_on_c, 1, 57, 127
1, 45768, Note_off_c, 1, 74, 0
1, 45780, Note_on_c, 1, 73, 127
1, 45816, Note_off_c, 1, 57, 0
1, 45828, Note_off_c, 1, 73, 0
1, 45840, Note_on_c, 1, 77, 127
1, 45840, Note_on_c, 1, 74, 127
1, 45840, Note_on_c, 1, 53, 127
1, 45840, Note_on_c, 1, 62, 127
1, 45840, Note_on_c, 1, 57, 127
1, 45936, Note_off_c, 1, 77, 0
1, 45936, Note_off_c, 1, 74, 0
1, 45936, Note_off_c, 1, 53, 0
1, 45936, Note_off_c, 1, 62, 0
1, 45936, Note_off_c, 1, 57, 0
1, 45960, Note_on_c, 1, 57, 127
1, 46056, Note_off_c, 1, 57, 0
1, 46080, Note_on_c, 1, 76, 127
1, 46080, Note_on_c, 1, 74, 127
1, 46080, Note_on_c, 1, 64, 127
1, 46080, Note_on_c, 1, 57, 127
1, 46176, Note_off_c, 1, 76, 0
1, 46176, Note_off_c, 1, 74, 0
1, 46176, Note_off_c, 1, 64, 0
1, 46176, Note_off_c, 1, 57, 0
1, 46200, Note_on_c, 1, 55, 127
1, 46248, Note_off_c, 1, 55, 0
1, 46260, Note_on_c, 1, 53, 127
1, 46308, Note_off_c, 1, 53, 0
1, 46320, Note_on_c, 1, 73, 127
1, 46320, Note_on_c, 1, 64, 127
1, 46320, Note_on_c, 1, 76, 127
1, 46320, Note_on_c, 1, 57, 127
1, 46320, Note_on_c, 1, 55, 127
1, 46416, Note_off_c, 1, 73, 0
1, 46416, Note_off_c, 1, 64, 0
1, 46416, Note_off_c, 1, 76, 0
1, 46416, Note_off_c, 1, 57, 0
1, 46416, Note_off_c, 1, 55, 0
1, 46440, Note_on_c, 1, 52, 127
1, 46536, Note_off_c, 1, 52, 0
1, 46560, Note_on_c, 1, 76, 127
1, 46560, Note_on_c, 1, 69, 127
1, 46560, Note_on_c, 1, 57, 127
1, 46560, Note_on_c, 1, 53, 127
1, 46656, Note_off_c, 1, 76, 0
1, 46656, Note_off_c, 1, 69, 0
1, 46656, Note_off_c, 1, 57, 0
1, 46656, Note_off_c, 1, 53, 0
1, 46680, Note_on_c, 1, 74, 127
1, 46680, Note_on_c, 1, 77, 127
1, 46728, Note_off_c, 1, 74, 0
1, 46740, Note_on_c, 1, 73, 127
1, 46776, Note_off_c, 1, 77, 0
1, 46788, Note_off_c, 1, 73, 0
1, 46800, Note_on_c, 1, 77, 127
1, 46800, Note_on_c, 1, 69, 127
1, 46800, Note_on_c, 1, 74, 127
1, 46800, Note_on_c, 1, 62, 127
1, 46800, Note_on_c, 1, 50, 127
1, 46896, Note_off_c, 1, 77, 0
1, 46896, Note_off_c, 1, 69, 0
1, 46896, Note_off_c, 1, 74, 0
1, 46896, Note_off_c, 1, 62, 0
1, 46896, Note_off_c, 1, 50, 0
1, 46920, Note_on_c, 1, 77, 127
1, 46920, Note_on_c, 1, 69, 127
1, 47016, Note_off_c, 1, 77, 0
1, 47016, Note_off_c, 1, 69, 0
1, 47040, Note_on_c, 1, 77, 127
1, 47040, Note_on_c, 1, 70, 127
1, 47040, Note_on_c, 1, 67, 127
1, 47040, Note_on_c, 1, 62, 127
1, 47040, Note_on_c, 1, 55, 127
1, 47136, Note_off_c, 1, 77, 0
1, 47136, Note_off_c, 1, 70, 0
1, 47136, Note_off_c, 1, 67, 0
1, 47136, Note_off_c, 1, 62, 0
1, 47136, Note_off_c, 1, 55, 0
1, 47160, Note_on_c, 1, 76, 127
1, 47208, Note_off_c, 1, 76, 0
1, 47220, Note_on_c, 1, 74, 127
1, 47268, Note_off_c, 1, 74, 0
1, 47280, Note_on_c, 1, 76, 127
1, 47280, Note_on_c, 1, 64, 127
1, 47280, Note_on_c, 1, 67, 127
1, 47280, Note_on_c, 1, 58, 127
1, 47280, Note_on_c, 1, 43, 127
1, 47328, Note_off_c, 1, 76, 0
1, 47340, Note_on_c, 1, 79, 127
1, 47376, Note_off_c, 1, 64, 0
1, 47376, Note_off_c, 1, 67, 0
1, 47376, Note_off_c, 1, 58, 0
1, 47376, Note_off_c, 1, 43, 0
1, 47388, Note_off_c, 1, 79, 0
1, 47400, Note_on_c, 1, 73, 127
1, 47448, Note_off_c, 1, 73, 0
1, 47460, Note_on_c, 1, 74, 127
1, 47508, Note_off_c, 1, 74, 0
1, 47520, Note_on_c, 1, 67, 127
1, 47520, Note_on_c, 1, 73, 127
1, 47520, Note_on_c, 1, 64, 127
1, 47520, Note_on_c, 1, 57, 127
1, 47520, Note_on_c, 1, 45, 127
1, 47568, Note_off_c, 1, 67, 0
1, 47580, Note_on_c, 1, 70, 127
1, 47616, Note_off_c, 1, 73, 0
1, 47616, Note_off_c, 1, 64, 0
1, 47616, Note_off_c, 1, 57, 0
1, 47616, Note_off_c, 1, 45, 0
1, 47628, Note_off_c, 1, 70, 0
1, 47640, Note_on_c, 1, 69, 127
1, 47688, Note_off_c, 1, 69, 0
1, 47700, Note_on_c, 1, 67, 127
1, 47748, Note_off_c, 1, 67, 0
1, 47760, Note_on_c, 1, 65, 127
1, 47820, Note_on_c, 1, 74, 127
1, 47856, Note_off_c, 1, 65, 0
1, 47868, Note_off_c, 1, 74, 0
1, 47880, Note_on_c, 1, 64, 127
1, 47928, Note_off_c, 1, 64, 0
1, 47940, Note_on_c, 1, 62, 127
1, 47988, Note_off_c, 1, 62, 0
1, 48000, Note_on_c, 1, 57, 127
1, 48000, Note_on_c, 1, 45, 127
1, 48060, Note_on_c, 1, 64, 127
1, 48096, Note_off_c, 1, 57, 0
1, 48096, Note_off_c, 1, 45, 0
1, 48108, Note_off_c, 1, 64, 0
1, 48120, Note_on_c, 1, 68, 127
1, 48168, Note_off_c, 1, 68, 0
1, 48180, Note_on_c, 1, 71, 127
1, 48228, Note_off_c, 1, 71, 0
1, 48240, Note_on_c, 1, 72, 127
1, 48288, Note_off_c, 1, 72, 0
1, 48300, Note_on_c, 1, 76, 127
1, 48348, Note_off_c, 1, 76, 0
1, 48360, Note_on_c, 1, 69, 127
1, 48408, Note_off_c, 1, 69, 0
1, 48420, Note_on_c, 1, 67, 127
1, 48468, Note_off_c, 1, 67, 0
1, 48480, Note_on_c, 1, 66, 127
1, 48480, Note_on_c, 1, 57, 127
1, 48480, Note_on_c, 1, 50, 127
1, 48540, Note_on_c, 1, 69, 127
1, 48576, Note_off_c, 1, 66, 0
1, 48576, Note_off_c, 1, 57, 0
1, 48576, Note_off_c, 1, 50, 0
1, 48588, Note_off_c, 1, 69, 0
1, 48600, Note_on_c, 1, 72, 127
1, 48648, Note_off_c, 1, 72, 0
1, 48660, Note_on_c, 1, 75, 127
1, 48708, Note_off_c, 1, 75, 0
1, 48720, Note_on_c, 1, 74, 127
1, 48720, Note_on_c, 1, 57, 127
1, 48720, Note_on_c, 1, 66, 127
1, 48720, Note_on_c, 1, 38, 127
1, 48768, Note_off_c, 1, 74, 0
1, 48780, Note_on_c, 1, 72, 127
1, 48816, Note_off_c, 1, 57, 0
1, 48816, Note_off_c, 1, 66, 0
1, 48816, Note_off_c, 1, 38, 0
1, 48828, Note_off_c, 1, 72, 0
1, 48840, Note_on_c, 1, 70, 127
1, 48888, Note_off_c, 1, 70, 0
1, 48900, Note_on_c, 1, 69, 127
1, 48948, Note_off_c, 1, 69, 0
1, 48960, Note_on_c, 1, 70, 127
1, 48960, Note_on_c, 1, 67, 127
1, 48960, Note_on_c, 1, 55, 127
1, 48960, Note_on_c, 1, 43, 127
1, 49008, Note_off_c, 1, 70, 0
1, 49020, Note_on_c, 1, 62, 127
1, 49056, Note_off_c, 1, 67, 0
1, 49056, Note_off_c, 1, 55, 0
1, 49056, Note_off_c, 1, 43, 0
1, 49068, Note_off_c, 1, 62, 0
1, 49080, Note_on_c, 1, 67, 127
1, 49128, Note_off_c, 1, 67, 0
1, 49140, Note_on_c, 1, 69, 127
1, 49188, Note_off_c, 1, 69, 0
1, 49200, Note_on_c, 1, 70, 127
1, 49248, Note_off_c, 1, 70, 0
1, 49260, Note_on_c, 1, 74, 127
1, 49308, Note_off_c, 1, 74, 0
1, 49320, Note_on_c, 1, 67, 127
1, 49368, Note_off_c, 1, 67, 0
1, 49380, Note_on_c, 1, 65, 127
1, 49428, Note_off_c, 1, 65, 0
1, 49440, Note_on_c, 1, 64, 127
1, 49440, Note_on_c, 1, 55, 127
1, 49440, Note_on_c, 1, 48, 127
1, 49500, Note_on_c, 1, 67, 127
1, 49536, Note_off_c, 1, 64, 0
1, 49536, Note_off_c, 1, 55, 0
1, 49536, Note_off_c, 1, 48, 0
1, 49548, Note_off_c, 1, 67, 0
1, 49560, Note_on_c, 1, 70, 127
1, 49608, Note_off_c, 1, 70, 0
1, 49620, Note_on_c, 1, 74, 127
1, 49668, Note_off_c, 1, 74, 0
1, 49680, Note_on_c, 1, 72, 127
1, 49680, Note_on_c, 1, 55, 127
1, 49680, Note_on_c, 1, 64, 127
1, 49680, Note_on_c, 1, 36, 127
1, 49728, Note_off_c, 1, 72, 0
1, 49740, Note_on_c, 1, 70, 127
1, 49776, Note_off_c, 1, 55, 0
1, 49776, Note_off_c, 1, 64, 0
1, 49776, Note_off_c, 1, 36, 0
1, 49788, Note_off_c, 1, 70, 0
1, 49800, Note_on_c, 1, 69, 127
1, 49848, Note_off_c, 1, 69, 0
1, 49860, Note_on_c, 1, 67, 127
1, 49908, Note_off_c, 1, 67, 0
1, 49920, Note_on_c, 1, 69, 127
1, 49920, Note_on_c, 1, 53, 127
1, 49920, Note_on_c, 1, 60, 127
1, 49920, Note_on_c, 1, 41, 127
1, 49968, Note_off_c, 1, 69, 0
1, 49980, Note_on_c, 1, 64, 127
1, 50016, Note_off_c, 1, 53, 0
1, 50016, Note_off_c, 1, 60, 0
1, 50016, Note_off_c, 1, 41, 0
1, 50028, Note_off_c, 1, 64, 0
1, 50040, Note_on_c, 1, 65, 127
1, 50088, Note_off_c, 1, 65, 0
1, 50100, Note_on_c, 1, 61, 127
1, 50148, Note_off_c, 1, 61, 0
1, 50160, Note_on_c, 1, 62, 127
1, 50208, Note_off_c, 1, 62, 0
1, 50220, Note_on_c, 1, 65, 127
1, 50268, Note_off_c, 1, 65, 0
1, 50280, Note_on_c, 1, 69, 127
1, 50280, Note_on_c, 1, 50, 127
1, 50280, Note_on_c, 1, 57, 127
1, 50280, Note_on_c, 1, 41, 127
1, 50340, Note_on_c, 1, 60, 127
1, 50376, Note_off_c, 1, 69, 0
1, 50376, Note_off_c, 1, 50, 0
1, 50376, Note_off_c, 1, 41, 0
1, 50388, Note_off_c, 1, 60, 0
1, 50393, Note_off_c, 1, 57, 0
1, 50400, Note_on_c, 1, 58, 127
1, 50400, Note_on_c, 1, 50, 127
1, 50400, Note_on_c, 1, 55, 127
1, 50400, Note_on_c, 1, 43, 127
1, 50460, Note_on_c, 1, 62, 127
1, 50496, Note_off_c, 1, 58, 0
1, 50496, Note_off_c, 1, 50, 0
1, 50496, Note_off_c, 1, 43, 0
1, 50520, Note_off_c, 1, 55, 0
1, 50520, Note_off_c, 1, 62, 0
1, 50520, Note_on_c, 1, 65, 127
1, 50568, Note_off_c, 1, 65, 0
1, 50580, Note_on_c, 1, 69, 127
1, 50628, Note_off_c, 1, 69, 0
1, 50640, Note_on_c, 1, 67, 127
1, 50688, Note_off_c, 1, 67, 0
1, 50700, Note_on_c, 1, 64, 127
1, 50748, Note_off_c, 1, 64, 0
1, 50760, Note_on_c, 1, 65, 127
1, 50760, Note_on_c, 1, 55, 127
1, 50760, Note_on_c, 1, 58, 127
1, 50760, Note_on_c, 1, 43, 127
1, 50808, Note_off_c, 1, 65, 0
1, 50820, Note_on_c, 1, 62, 127
1, 50856, Note_off_c, 1, 55, 0
1, 50856, Note_off_c, 1, 58, 0
1, 50856, Note_off_c, 1, 43, 0
1, 50868, Note_off_c, 1, 62, 0
1, 50880, Note_on_c, 1, 61, 127
1, 50880, Note_on_c, 1, 57, 127
1, 50880, Note_on_c, 1, 52, 127
1, 50880, Note_on_c, 1, 45, 127
1, 50928, Note_off_c, 1, 61, 0
1, 50940, Note_on_c, 1, 64, 127
1, 50976, Note_off_c, 1, 57, 0
1, 50976, Note_off_c, 1, 52, 0
1, 50976, Note_off_c, 1, 45, 0
1, 50988, Note_off_c, 1, 64, 0
1, 51000, Note_on_c, 1, 67, 127
1, 51048, Note_off_c, 1, 67, 0
1, 51060, Note_on_c, 1, 70, 127
1, 51108, Note_off_c, 1, 70, 0
1, 51120, Note_on_c, 1, 69, 127
1, 51168, Note_off_c, 1, 69, 0
1, 51180, Note_on_c, 1, 67, 127
1, 51228, Note_off_c, 1, 67, 0
1, 51240, Note_on_c, 1, 65, 127
1, 51240, Note_on_c, 1, 57, 127
1, 51240, Note_on_c, 1, 52, 127
1, 51240, Note_on_c, 1, 49, 127
1, 51288, Note_off_c, 1, 65, 0
1, 51300, Note_on_c, 1, 64, 127
1, 51336, Note_off_c, 1, 57, 0
1, 51336, Note_off_c, 1, 52, 0
1, 51336, Note_off_c, 1, 49, 0
1, 51348, Note_off_c, 1, 64, 0
1, 51360, Note_on_c, 1, 65, 127
1, 51360, Note_on_c, 1, 50, 127
1, 51360, Note_on_c, 1, 57, 127
1, 51408, Note_off_c, 1, 65, 0
1, 51420, Note_on_c, 1, 62, 127
1, 51456, Note_off_c, 1, 50, 0
1, 51456, Note_off_c, 1, 57, 0
1, 51468, Note_off_c, 1, 62, 0
1, 51480, Note_on_c, 1, 69, 127
1, 51480, Note_on_c, 1, 52, 127
1, 51480, Note_on_c, 1, 48, 127
1, 51540, Note_on_c, 1, 64, 127
1, 51588, Note_off_c, 1, 64, 0
1, 51600, Note_off_c, 1, 52, 0
1, 51600, Note_off_c, 1, 48, 0
1, 51600, Note_on_c, 1, 50, 127
1, 51600, Note_on_c, 1, 65, 127
1, 51600, Note_on_c, 1, 46, 127
1, 51648, Note_off_c, 1, 69, 0
1, 51720, Note_off_c, 1, 50, 0
1, 51720, Note_on_c, 1, 74, 127
1, 51720, Note_on_c, 1, 58, 127
1, 51744, Note_off_c, 1, 65, 0
1, 51780, Note_on_c, 1, 67, 127
1, 51816, Note_off_c, 1, 74, 0
1, 51816, Note_off_c, 1, 58, 0
1, 51825, Note_off_c, 1, 46, 0
1, 51828, Note_off_c, 1, 67, 0
1, 51840, Note_on_c, 1, 73, 127
1, 51840, Note_on_c, 1, 69, 127
1, 51840, Note_on_c, 1, 52, 127
1, 51840, Note_on_c, 1, 45, 127
1, 51888, Note_off_c, 1, 73, 0
1, 51900, Note_on_c, 1, 71, 127
1, 51948, Note_off_c, 1, 71, 0
1, 52020, Note_on_c, 1, 76, 127
1, 52032, Note_off_c, 1, 69, 0
1, 52065, Note_off_c, 1, 52, 0
1, 52065, Note_off_c, 1, 45, 0
1, 52068, Note_off_c, 1, 76, 0
1, 52080, Note_on_c, 1, 77, 127
1, 52176, Note_off_c, 1, 77, 0
1, 52200, Note_on_c, 1, 77, 127
1, 52200, Note_on_c, 1, 74, 127
1, 52200, Note_on_c, 1, 69, 127
1, 52200, Note_on_c, 1, 62, 127
1, 52200, Note_on_c, 1, 50, 127
1, 52296, Note_off_c, 1, 77, 0
1, 52296, Note_off_c, 1, 74, 0
1, 52296, Note_off_c, 1, 69, 0
1, 52296, Note_off_c, 1, 62, 0
1, 52296, Note_off_c, 1, 50, 0
1, 52320, Note_on_c, 1, 77, 127
1, 52320, Note_on_c, 1, 67, 127
1, 52320, Note_on_c, 1, 55, 127
1, 52320, Note_on_c, 1, 46, 127
1, 52416, Note_off_c, 1, 77, 0
1, 52440, Note_on_c, 1, 76, 127
1, 52488, Note_off_c, 1, 76, 0
1, 52500, Note_on_c, 1, 74, 127
1, 52512, Note_off_c, 1, 67, 0
1, 52545, Note_off_c, 1, 55, 0
1, 52545, Note_off_c, 1, 46, 0
1, 52548, Note_off_c, 1, 74, 0
1, 52560, Note_on_c, 1, 76, 127
1, 52656, Note_off_c, 1, 76, 0
1, 52680, Note_on_c, 1, 76, 127
1, 52680, Note_on_c, 1, 72, 127
1, 52680, Note_on_c, 1, 60, 127
1, 52680, Note_on_c, 1, 67, 127
1, 52680, Note_on_c, 1, 48, 127
1, 52776, Note_off_c, 1, 76, 0
1, 52776, Note_off_c, 1, 72, 0
1, 52776, Note_off_c, 1, 60, 0
1, 52776, Note_off_c, 1, 48, 0
1, 52800, Note_off_c, 1, 67, 0
1, 52800, Note_on_c, 1, 75, 127
1, 52800, Note_on_c, 1, 53, 127
1, 52800, Note_on_c, 1, 65, 127
1, 52800, Note_on_c, 1, 45, 127
1, 52848, Note_off_c, 1, 75, 0
1, 52860, Note_on_c, 1, 74, 127
1, 52908, Note_off_c, 1, 74, 0
1, 52980, Note_on_c, 1, 73, 127
1, 52992, Note_off_c, 1, 53, 0
1, 52992, Note_off_c, 1, 45, 0
1, 53028, Note_off_c, 1, 73, 0
1, 53040, Note_on_c, 1, 58, 127
1, 53040, Note_on_c, 1, 46, 127
1, 53088, Note_off_c, 1, 65, 0
1, 53136, Note_off_c, 1, 58, 0
1, 53136, Note_off_c, 1, 46, 0
1, 53220, Note_on_c, 1, 66, 127
1, 53268, Note_off_c, 1, 66, 0
1, 53280, Note_on_c, 1, 70, 127
1, 53280, Note_on_c, 1, 62, 127
1, 53280, Note_on_c, 1, 67, 127
1, 53280, Note_on_c, 1, 43, 127
1, 53328, Note_off_c, 1, 70, 0
1, 53328, Note_off_c, 1, 62, 0
1, 53340, Note_on_c, 1, 69, 127
1, 53340, Note_on_c, 1, 60, 127
1, 53376, Note_off_c, 1, 67, 0
1, 53388, Note_off_c, 1, 69, 0
1, 53388, Note_off_c, 1, 60, 0
1, 53460, Note_on_c, 1, 58, 127
1, 53508, Note_off_c, 1, 58, 0
1, 53580, Note_on_c, 1, 65, 127
1, 53580, Note_on_c, 1, 57, 127
1, 53628, Note_off_c, 1, 65, 0
1, 53628, Note_off_c, 1, 57, 0
1, 53700, Note_on_c, 1, 63, 127
1, 53700, Note_on_c, 1, 55, 127
1, 53748, Note_off_c, 1, 63, 0
1, 53748, Note_off_c, 1, 55, 0
1, 53820, Note_on_c, 1, 61, 127
1, 53820, Note_on_c, 1, 52, 127
1, 53868, Note_off_c, 1, 61, 0
1, 53868, Note_off_c, 1, 52, 0
1, 53940, Note_on_c, 1, 53, 127
1, 53952, Note_off_c, 1, 43, 0
1, 53988, Note_off_c, 1, 53, 0
1, 54000, Note_on_c, 1, 62, 127
1, 54000, Note_on_c, 1, 53, 127
1, 54000, Note_on_c, 1, 41, 127
1, 54048, Note_off_c, 1, 62, 0
1, 54060, Note_on_c, 1, 57, 127
1, 54096, Note_off_c, 1, 53, 0
1, 54096, Note_off_c, 1, 41, 0
1, 54108, Note_off_c, 1, 57, 0
1, 54120, Note_on_c, 1, 55, 127
1, 54120, Note_on_c, 1, 52, 127
1, 54120, Note_on_c, 1, 43, 127
1, 54168, Note_off_c, 1, 55, 0
1, 54168, Note_off_c, 1, 52, 0
1, 54180, Note_on_c, 1, 53, 127
1, 54180, Note_on_c, 1, 50, 127
1, 54228, Note_off_c, 1, 53, 0
1, 54228, Note_off_c, 1, 50, 0
1, 54240, Note_on_c, 1, 57, 127
1, 54240, Note_on_c, 1, 45, 127
1, 54300, Note_on_c, 1, 62, 127
1, 54336, Note_off_c, 1, 57, 0
1, 54348, Note_off_c, 1, 62, 0
1, 54360, Note_on_c, 1, 67, 127
1, 54360, Note_on_c, 1, 58, 127
1, 54408, Note_off_c, 1, 67, 0
1, 54420, Note_on_c, 1, 70, 127
1, 54456, Note_off_c, 1, 58, 0
1, 54468, Note_off_c, 1, 70, 0
1, 54600, Note_on_c, 1, 64, 127
1, 54624, Note_off_c, 1, 45, 0
1, 54648, Note_off_c, 1, 64, 0
1, 54660, Note_on_c, 1, 61, 127
1, 54708, Note_off_c, 1, 61, 0
1, 54720, Note_on_c, 1, 38, 127
1, 54816, Note_off_c, 1, 38, 0
1, 54840, Note_on_c, 1, 81, 127
1, 54936, Note_off_c, 1, 81, 0
1, 55200, Note_on_c, 1, 49, 127
1, 55296, Note_off_c, 1, 49, 0
1, 55320, Note_on_c, 1, 79, 127
1, 55368, Note_off_c, 1, 79, 0
1, 55380, Note_on_c, 1, 77, 127
1, 55428, Note_off_c, 1, 77, 0
1, 55560, Note_on_c, 1, 76, 127
1, 55656, Note_off_c, 1, 76, 0
1, 55800, Note_on_c, 1, 74, 127
1, 55896, Note_off_c, 1, 74, 0
1, 55920, Note_on_c, 1, 82, 127
1, 56016, Note_off_c, 1, 82, 0
1, 56280, Note_on_c, 1, 72, 127
1, 56328, Note_off_c, 1, 72, 0
1, 56400, Note_on_c, 1, 54, 127
1, 56496, Note_off_c, 1, 54, 0
1, 56520, Note_on_c, 1, 69, 127
1, 56616, Note_off_c, 1, 69, 0
1, 57840, Note_on_c, 1, 48, 127
1, 57936, Note_off_c, 1, 48, 0
1, 59040, Note_on_c, 1, 47, 127
1, 59136, Note_off_c, 1, 47, 0
1, 59520, Note_on_c, 1, 66, 127
1, 59616, Note_off_c, 1, 66, 0
1, 60360, Note_on_c, 1, 71, 127
1, 60456, Note_off_c, 1, 71, 0
1, 60480, Note_on_c, 1, 68, 127
1, 60576, Note_off_c, 1, 68, 0
1, 60660, Note_on_c, 1, 56, 127
1, 60708, Note_off_c, 1, 56, 0
1, 60720, Note_on_c, 1, 60, 127
1, 60816, Note_off_c, 1, 60, 0
1, 61680, Note_on_c, 1, 59, 127
1, 61776, Note_off_c, 1, 59, 0
1, 62160, Note_on_c, 1, 65, 127
1, 62256, Note_off_c, 1, 65, 0
1, 62820, Note_on_c, 1, 63, 127
1, 62868, Note_off_c, 1, 63, 0
1, 64200, Note_on_c, 1, 51, 127
1, 64296, Note_off_c, 1, 51, 0
1, 64560, Note_on_c, 1, 40, 127
1, 64752, Note_off_c, 1, 40, 0
1, 71460, Note_on_c, 1, 75, 127
1, 71508, Note_off_c, 1, 75, 0
1, 71880, Note_on_c, 1, 73, 127
1, 71928, Note_off_c, 1, 73, 0
1, 74280, Note_on_c, 1, 80, 127
1, 74376, Note_off_c, 1, 80, 0
1, 75720, Note_on_c, 1, 41, 127
1, 75816, Note_off_c, 1, 41, 0
1, 75960, Note_on_c, 1, 44, 127
1, 76056, Note_off_c, 1, 44, 0
1, 80520, Note_on_c, 1, 78, 127
1, 80616, Note_off_c, 1, 78, 0
1, 81120, Note_on_c, 1, 83, 127
1, 81216, Note_off_c, 1, 83, 0
1, 81240, Note_on_c, 1, 84, 127
1, 81336, Note_off_c, 1, 84, 0
1, 84576, Note_off_c, 1, 43, 0
1, 85560, Note_on_c, 1, 72, 127
1, 85560, Note_on_c, 1, 58, 127
1, 85608, Note_off_c, 1, 72, 0
1, 85620, Note_on_c, 1, 74, 127
1, 85656, Note_off_c, 1, 58, 0
1, 85668, Note_off_c, 1, 74, 0
1, 85680, Note_on_c, 1, 75, 127
1, 85680, Note_on_c, 1, 57, 127
1, 85728, Note_off_c, 1, 75, 0
1, 85740, Note_on_c, 1, 72, 127
1, 85776, Note_off_c, 1, 57, 0
1, 85788, Note_off_c, 1, 72, 0
1, 85800, Note_on_c, 1, 69, 127
1, 85800, Note_on_c, 1, 53, 127
1, 85800, Note_on_c, 1, 60, 127
1, 85800, Note_on_c, 1, 41, 127
1, 85848, Note_off_c, 1, 69, 0
1, 85860, Note_on_c, 1, 65, 127
1, 85896, Note_off_c, 1, 53, 0
1, 85896, Note_off_c, 1, 60, 0
1, 85896, Note_off_c, 1, 41, 0
1, 85908, Note_off_c, 1, 65, 0
1, 85920, Note_on_c, 1, 74, 127
1, 85920, Note_on_c, 1, 53, 127
1, 85920, Note_on_c, 1, 58, 127
1, 85920, Note_on_c, 1, 46, 127
1, 85968, Note_off_c, 1, 74, 0
1, 85980, Note_on_c, 1, 65, 127
1, 86016, Note_off_c, 1, 53, 0
1, 86016, Note_off_c, 1, 58, 0
1, 86016, Note_off_c, 1, 46, 0
1, 86028, Note_off_c, 1, 65, 0
1, 86040, Note_on_c, 1, 70, 127
1, 86040, Note_on_c, 1, 57, 127
1, 86088, Note_off_c, 1, 70, 0
1, 86100, Note_on_c, 1, 72, 127
1, 86136, Note_off_c, 1, 57, 0
1, 86148, Note_off_c, 1, 72, 0
1, 86160, Note_on_c, 1, 74, 127
1, 86160, Note_on_c, 1, 55, 127
1, 86208, Note_off_c, 1, 74, 0
1, 86220, Note_on_c, 1, 70, 127
1, 86256, Note_off_c, 1, 55, 0
1, 86268, Note_off_c, 1, 70, 0
1, 86280, Note_on_c, 1, 67, 127
1, 86280, Note_on_c, 1, 58, 127
1, 86280, Note_on_c, 1, 51, 127
1, 86328, Note_off_c, 1, 67, 0
1, 86340, Note_on_c, 1, 63, 127
1, 86376, Note_off_c, 1, 58, 0
1, 86388, Note_off_c, 1, 63, 0
1, 86400, Note_on_c, 1, 72, 127
1, 86400, Note_on_c, 1, 60, 127
1, 86400, Note_on_c, 1, 45, 127
1, 86448, Note_off_c, 1, 72, 0
1, 86460, Note_on_c, 1, 69, 127
1, 86496, Note_off_c, 1, 51, 0
1, 86496, Note_off_c, 1, 45, 0
1, 86508, Note_off_c, 1, 69, 0
1, 86520, Note_on_c, 1, 66, 127
1, 86520, Note_on_c, 1, 57, 127
1, 86520, Note_on_c, 1, 50, 127
1, 86568, Note_off_c, 1, 66, 0
1, 86580, Note_on_c, 1, 62, 127
1, 86592, Note_off_c, 1, 60, 0
1, 86616, Note_off_c, 1, 57, 0
1, 86616, Note_off_c, 1, 50, 0
1, 86628, Note_off_c, 1, 62, 0
1, 86640, Note_on_c, 1, 70, 127
1, 86640, Note_on_c, 1, 58, 127
1, 86640, Note_on_c, 1, 50, 127
1, 86640, Note_on_c, 1, 55, 127
1, 86640, Note_on_c, 1, 43, 127
1, 86688, Note_off_c, 1, 70, 0
1, 86700, Note_on_c, 1, 67, 127
1, 86736, Note_off_c, 1, 50, 0
1, 86736, Note_off_c, 1, 43, 0
1, 86748, Note_off_c, 1, 67, 0
1, 86760, Note_on_c, 1, 63, 127
1, 86760, Note_on_c, 1, 48, 127
1, 86808, Note_off_c, 1, 63, 0
1, 86820, Note_on_c, 1, 60, 127
1, 86832, Note_off_c, 1, 58, 0
1, 86832, Note_off_c, 1, 55, 0
1, 86856, Note_off_c, 1, 48, 0
1, 86868, Note_off_c, 1, 60, 0
1, 86880, Note_on_c, 1, 68, 127
1, 86880, Note_on_c, 1, 56, 127
1, 86880, Note_on_c, 1, 48, 127
1, 86880, Note_on_c, 1, 53, 127
1, 86880, Note_on_c, 1, 41, 127
1, 86928, Note_off_c, 1, 68, 0
1, 86940, Note_on_c, 1, 65, 127
1, 86976, Note_off_c, 1, 48, 0
1, 86976, Note_off_c, 1, 41, 0
1, 86988, Note_off_c, 1, 65, 0
1, 87000, Note_on_c, 1, 62, 127
1, 87000, Note_on_c, 1, 46, 127
1, 87048, Note_off_c, 1, 62, 0
1, 87060, Note_on_c, 1, 58, 127
1, 87072, Note_off_c, 1, 56, 0
1, 87072, Note_off_c, 1, 53, 0
1, 87096, Note_off_c, 1, 46, 0
1, 87108, Note_off_c, 1, 58, 0
1, 87120, Note_on_c, 1, 67, 127
1, 87120, Note_on_c, 1, 46, 127
1, 87120, Note_on_c, 1, 55, 127
1, 87120, Note_on_c, 1, 39, 127
1, 87168, Note_off_c, 1, 67, 0
1, 87180, Note_on_c, 1, 63, 127
1, 87216, Note_off_c, 1, 46, 0
1, 87228, Note_off_c, 1, 63, 0
1, 87240, Note_on_c, 1, 60, 127
1, 87240, Note_on_c, 1, 48, 127
1, 87288, Note_off_c, 1, 60, 0
1, 87300, Note_on_c, 1, 57, 127
1, 87312, Note_off_c, 1, 55, 0
1, 87312, Note_off_c, 1, 39, 0
1, 87336, Note_off_c, 1, 48, 0
1, 87348, Note_off_c, 1, 57, 0
1, 87360, Note_on_c, 1, 54, 127
1, 87360, Note_on_c, 1, 50, 127
1, 87360, Note_on_c, 1, 38, 127
1, 87420, Note_on_c, 1, 57, 127
1, 87456, Note_off_c, 1, 54, 0
1, 87456, Note_off_c, 1, 50, 0
1, 87456, Note_off_c, 1, 38, 0
1, 87468, Note_off_c, 1, 57, 0
1, 87480, Note_on_c, 1, 60, 127
1, 87528, Note_off_c, 1, 60, 0
1, 87540, Note_on_c, 1, 66, 127
1, 87588, Note_off_c, 1, 66, 0
1, 87600, Note_on_c, 1, 69, 127
1, 87648, Note_off_c, 1, 69, 0
1, 87660, Note_on_c, 1, 66, 127
1, 87708, Note_off_c, 1, 66, 0
1, 87720, Note_on_c, 1, 60, 127
1, 87768, Note_off_c, 1, 60, 0
1, 87780, Note_on_c, 1, 57, 127
1, 87828, Note_off_c, 1, 57, 0
1, 87840, Note_on_c, 1, 54, 127
1, 87840, Note_on_c, 1, 50, 127
1, 87840, Note_on_c, 1, 38, 127
1, 87900, Note_on_c, 1, 57, 127
1, 87936, Note_off_c, 1, 54, 0
1, 87936, Note_off_c, 1, 50, 0
1, 87936, Note_off_c, 1, 38, 0
1, 87948, Note_off_c, 1, 57, 0
1, 87960, Note_on_c, 1, 60, 127
1, 88008, Note_off_c, 1, 60, 0
1, 88020, Note_on_c, 1, 66, 127
1, 88068, Note_off_c, 1, 66, 0
1, 88080, Note_on_c, 1, 69, 127
1, 88128, Note_off_c, 1, 69, 0
1, 88140, Note_on_c, 1, 66, 127
1, 88188, Note_off_c, 1, 66, 0
1, 88200, Note_on_c, 1, 60, 127
1, 88248, Note_off_c, 1, 60, 0
1, 88260, Note_on_c, 1, 57, 127
1, 88308, Note_off_c, 1, 57, 0
1, 88320, Note_on_c, 1, 55, 127
1, 88320, Note_on_c, 1, 50, 127
1, 88320, Note_on_c, 1, 38, 127
1, 88380, Note_on_c, 1, 57, 127
1, 88416, Note_off_c, 1, 55, 0
1, 88416, Note_off_c, 1, 50, 0
1, 88416, Note_off_c, 1, 38, 0
1, 88428, Note_off_c, 1, 57, 0
1, 88440, Note_on_c, 1, 58, 127
1, 88488, Note_off_c, 1, 58, 0
1, 88500, Note_on_c, 1, 62, 127
1, 88548, Note_off_c, 1, 62, 0
1, 88560, Note_on_c, 1, 67, 127
1, 88608, Note_off_c, 1, 67, 0
1, 88620, Note_on_c, 1, 62, 127
1, 88668, Note_off_c, 1, 62, 0
1, 88680, Note_on_c, 1, 58, 127
1, 88728, Note_off_c, 1, 58, 0
1, 88740, Note_on_c, 1, 57, 127
1, 88788, Note_off_c, 1, 57, 0
1, 88800, Note_on_c, 1, 55, 127
1, 88800, Note_on_c, 1, 50, 127
1, 88800, Note_on_c, 1, 38, 127
1, 88860, Note_on_c, 1, 57, 127
1, 88896, Note_off_c, 1, 55, 0
1, 88896, Note_off_c, 1, 50, 0
1, 88896, Note_off_c, 1, 38, 0
1, 88908, Note_off_c, 1, 57, 0
1, 88920, Note_on_c, 1, 58, 127
1, 88968, Note_off_c, 1, 58, 0
1, 88980, Note_on_c, 1, 62, 127
1, 89028, Note_off_c, 1, 62, 0
1, 89040, Note_on_c, 1, 67, 127
1, 89088, Note_off_c, 1, 67, 0
1, 89100, Note_on_c, 1, 62, 127
1, 89148, Note_off_c, 1, 62, 0
1, 89160, Note_on_c, 1, 58, 127
1, 89208, Note_off_c, 1, 58, 0
1, 89220, Note_on_c, 1, 57, 127
1, 89268, Note_off_c, 1, 57, 0
1, 89280, Note_on_c, 1, 50, 127
1, 89280, Note_on_c, 1, 55, 127
1, 89280, Note_on_c, 1, 39, 127
1, 89340, Note_on_c, 1, 57, 127
1, 89376, Note_off_c, 1, 50, 0
1, 89376, Note_off_c, 1, 55, 0
1, 89376, Note_off_c, 1, 39, 0
1, 89388, Note_off_c, 1, 57, 0
1, 89400, Note_on_c, 1, 58, 127
1, 89448, Note_off_c, 1, 58, 0
1, 89460, Note_on_c, 1, 62, 127
1, 89508, Note_off_c, 1, 62, 0
1, 89520, Note_on_c, 1, 67, 127
1, 89568, Note_off_c, 1, 67, 0
1, 89580, Note_on_c, 1, 62, 127
1, 89628, Note_off_c, 1, 62, 0
1, 89640, Note_on_c, 1, 58, 127
1, 89688, Note_off_c, 1, 58, 0
1, 89700, Note_on_c, 1, 57, 127
1, 89748, Note_off_c, 1, 57, 0
1, 89760, Note_on_c, 1, 55, 127
1, 89760, Note_on_c, 1, 50, 127
1, 89760, Note_on_c, 1, 39, 127
1, 89820, Note_on_c, 1, 57, 127
1, 89856, Note_off_c, 1, 55, 0
1, 89856, Note_off_c, 1, 50, 0
1, 89856, Note_off_c, 1, 39, 0
1, 89868, Note_off_c, 1, 57, 0
1, 89880, Note_on_c, 1, 58, 127
1, 89928, Note_off_c, 1, 58, 0
1, 89940, Note_on_c, 1, 62, 127
1, 89988, Note_off_c, 1, 62, 0
1, 90000, Note_on_c, 1, 67, 127
1, 90048, Note_off_c, 1, 67, 0
1, 90060, Note_on_c, 1, 62, 127
1, 90108, Note_off_c, 1, 62, 0
1, 90120, Note_on_c, 1, 58, 127
1, 90168, Note_off_c, 1, 58, 0
1, 90180, Note_on_c, 1, 57, 127
1, 90228, Note_off_c, 1, 57, 0
1, 90240, Note_on_c, 1, 49, 127
1, 90240, Note_on_c, 1, 55, 127
1, 90240, Note_on_c, 1, 40, 127
1, 90300, Note_on_c, 1, 57, 127
1, 90336, Note_off_c, 1, 49, 0
1, 90336, Note_off_c, 1, 55, 0
1, 90336, Note_off_c, 1, 40, 0
1, 90348, Note_off_c, 1, 57, 0
1, 90360, Note_on_c, 1, 61, 127
1, 90408, Note_off_c, 1, 61, 0
1, 90420, Note_on_c, 1, 64, 127
1, 90468, Note_off_c, 1, 64, 0
1, 90480, Note_on_c, 1, 67, 127
1, 90528, Note_off_c, 1, 67, 0
1, 90540, Note_on_c, 1, 64, 127
1, 90588, Note_off_c, 1, 64, 0
1, 90600, Note_on_c, 1, 61, 127
1, 90648, Note_off_c, 1, 61, 0
1, 90660, Note_on_c, 1, 57, 127
1, 90708, Note_off_c, 1, 57, 0
1, 90720, Note_on_c, 1, 55, 127
1, 90720, Note_on_c, 1, 49, 127
1, 90720, Note_on_c, 1, 40, 127
1, 90780, Note_on_c, 1, 57, 127
1, 90816, Note_off_c, 1, 55, 0
1, 90816, Note_off_c, 1, 49, 0
1, 90816, Note_off_c, 1, 40, 0
1, 90828, Note_off_c, 1, 57, 0
1, 90840, Note_on_c, 1, 61, 127
1, 90888, Note_off_c, 1, 61, 0
1, 90900, Note_on_c, 1, 64, 127
1, 90948, Note_off_c, 1, 64, 0
1, 90960, Note_on_c, 1, 67, 127
1, 91008, Note_off_c, 1, 67, 0
1, 91020, Note_on_c, 1, 64, 127
1, 91068, Note_off_c, 1, 64, 0
1, 91080, Note_on_c, 1, 61, 127
1, 91128, Note_off_c, 1, 61, 0
1, 91140, Note_on_c, 1, 57, 127
1, 91188, Note_off_c, 1, 57, 0
1, 91200, Note_on_c, 1, 50, 127
1, 91200, Note_on_c, 1, 55, 127
1, 91200, Note_on_c, 1, 38, 127
1, 91260, Note_on_c, 1, 57, 127
1, 91296, Note_off_c, 1, 50, 0
1, 91296, Note_off_c, 1, 55, 0
1, 91296, Note_off_c, 1, 38, 0
1, 91308, Note_off_c, 1, 57, 0
1, 91320, Note_on_c, 1, 58, 127
1, 91368, Note_off_c, 1, 58, 0
1, 91380, Note_on_c, 1, 62, 127
1, 91428, Note_off_c, 1, 62, 0
1, 91440, Note_on_c, 1, 67, 127
1, 91488, Note_off_c, 1, 67, 0
1, 91500, Note_on_c, 1, 70, 127
1, 91548, Note_off_c, 1, 70, 0
1, 91560, Note_on_c, 1, 68, 127
1, 91608, Note_off_c, 1, 68, 0
1, 91620, Note_on_c, 1, 66, 127
1, 91668, Note_off_c, 1, 66, 0
1, 91680, Note_on_c, 1, 67, 127
1, 91728, Note_off_c, 1, 67, 0
1, 91740, Note_on_c, 1, 77, 127
1, 91788, Note_off_c, 1, 77, 0
1, 91800, Note_on_c, 1, 75, 127
1, 91848, Note_off_c, 1, 75, 0
1, 91860, Note_on_c, 1, 73, 127
1, 91908, Note_off_c, 1, 73, 0
1, 91920, Note_on_c, 1, 74, 127
1, 91968, Note_off_c, 1, 74, 0
1, 91980, Note_on_c, 1, 72, 127
1, 92028, Note_off_c, 1, 72, 0
1, 92040, Note_on_c, 1, 71, 127
1, 92088, Note_off_c, 1, 71, 0
1, 92100, Note_on_c, 1, 72, 127
1, 92148, Note_off_c, 1, 72, 0
1, 92160, Note_on_c, 1, 78, 127
1, 92160, Note_on_c, 1, 72, 127
1, 92160, Note_on_c, 1, 57, 127
1, 92160, Note_on_c, 1, 38, 127
1, 92256, Note_off_c, 1, 78, 0
1, 92256, Note_off_c, 1, 72, 0
1, 92256, Note_off_c, 1, 57, 0
1, 92256, Note_off_c, 1, 38, 0
1, 92280, Note_on_c, 1, 62, 127
1, 92376, Note_off_c, 1, 62, 0
1, 92400, Note_on_c, 1, 79, 127
1, 92400, Note_on_c, 1, 70, 127
1, 92400, Note_on_c, 1, 62, 127
1, 92496, Note_off_c, 1, 79, 0
1, 92496, Note_off_c, 1, 70, 0
1, 92496, Note_off_c, 1, 62, 0
1, 92520, Note_on_c, 1, 55, 127
1, 92520, Note_on_c, 1, 62, 127
1, 92616, Note_off_c, 1, 55, 0
1, 92616, Note_off_c, 1, 62, 0
1, 92640, Note_on_c, 1, 79, 127
1, 92640, Note_on_c, 1, 69, 127
1, 92640, Note_on_c, 1, 62, 127
1, 92640, Note_on_c, 1, 57, 127
1, 92640, Note_on_c, 1, 38, 127
1, 92736, Note_off_c, 1, 79, 0
1, 92736, Note_off_c, 1, 69, 0
1, 92736, Note_off_c, 1, 62, 0
1, 92736, Note_off_c, 1, 57, 0
1, 92736, Note_off_c, 1, 38, 0
1, 92760, Note_on_c, 1, 60, 127
1, 92808, Note_off_c, 1, 60, 0
1, 92820, Note_on_c, 1, 58, 127
1, 92868, Note_off_c, 1, 58, 0
1, 92880, Note_on_c, 1, 69, 127
1, 92880, Note_on_c, 1, 78, 127
1, 92880, Note_on_c, 1, 60, 127
1, 92976, Note_off_c, 1, 69, 0
1, 92976, Note_off_c, 1, 78, 0
1, 92976, Note_off_c, 1, 60, 0
1, 93000, Note_on_c, 1, 81, 127
1, 93000, Note_on_c, 1, 72, 127
1, 93000, Note_on_c, 1, 54, 127
1, 93000, Note_on_c, 1, 57, 127
1, 93096, Note_off_c, 1, 81, 0
1, 93096, Note_off_c, 1, 54, 0
1, 93096, Note_off_c, 1, 57, 0
1, 93120, Note_on_c, 1, 74, 127
1, 93120, Note_on_c, 1, 58, 127
1, 93120, Note_on_c, 1, 55, 127
1, 93120, Note_on_c, 1, 38, 127
1, 93168, Note_off_c, 1, 72, 0
1, 93180, Note_on_c, 1, 69, 127
1, 93216, Note_off_c, 1, 58, 0
1, 93216, Note_off_c, 1, 55, 0
1, 93216, Note_off_c, 1, 38, 0
1, 93228, Note_off_c, 1, 69, 0
1, 93240, Note_on_c, 1, 70, 127
1, 93288, Note_off_c, 1, 70, 0
1, 93300, Note_on_c, 1, 66, 127
1, 93312, Note_off_c, 1, 74, 0
1, 93348, Note_off_c, 1, 66, 0
1, 93360, Note_on_c, 1, 67, 127
1, 93456, Note_off_c, 1, 67, 0
1, 93480, Note_on_c, 1, 67, 127
1, 93480, Note_on_c, 1, 74, 127
1, 93480, Note_on_c, 1, 62, 127
1, 93480, Note_on_c, 1, 58, 127
1, 93576, Note_off_c, 1, 67, 0
1, 93576, Note_off_c, 1, 74, 0
1, 93576, Note_off_c, 1, 62, 0
1, 93576, Note_off_c, 1, 58, 0
1, 93600, Note_on_c, 1, 67, 127
1, 93600, Note_on_c, 1, 74, 127
1, 93600, Note_on_c, 1, 62, 127
1, 93600, Note_on_c, 1, 57, 127
1, 93600, Note_on_c, 1, 38, 127
1, 93696, Note_off_c, 1, 67, 0
1, 93696, Note_off_c, 1, 74, 0
1, 93696, Note_off_c, 1, 62, 0
1, 93696, Note_off_c, 1, 57, 0
1, 93696, Note_off_c, 1, 38, 0
1, 93720, Note_on_c, 1, 72, 127
1, 93768, Note_off_c, 1, 72, 0
1, 93780, Note_on_c, 1, 70, 127
1, 93828, Note_off_c, 1, 70, 0
1, 93840, Note_on_c, 1, 74, 127
1, 93888, Note_off_c, 1, 74, 0
1, 93900, Note_on_c, 1, 72, 127
1, 93948, Note_off_c, 1, 72, 0
1, 93960, Note_on_c, 1, 70, 127
1, 93960, Note_on_c, 1, 66, 127
1, 93960, Note_on_c, 1, 57, 127
1, 93960, Note_on_c, 1, 62, 127
1, 93960, Note_on_c, 1, 50, 127
1, 94008, Note_off_c, 1, 70, 0
1, 94020, Note_on_c, 1, 69, 127
1, 94056, Note_off_c, 1, 66, 0
1, 94056, Note_off_c, 1, 57, 0
1, 94056, Note_off_c, 1, 62, 0
1, 94068, Note_off_c, 1, 69, 0
1, 94080, Note_off_c, 1, 50, 0
1, 94080, Note_on_c, 1, 72, 127
1, 94080, Note_on_c, 1, 67, 127
1, 94080, Note_on_c, 1, 55, 127
1, 94080, Note_on_c, 1, 43, 127
1, 94128, Note_off_c, 1, 72, 0
1, 94176, Note_off_c, 1, 67, 0
1, 94176, Note_off_c, 1, 55, 0
1, 94176, Note_off_c, 1, 43, 0
1, 94200, Note_on_c, 1, 69, 127
1, 94200, Note_on_c, 1, 46, 127
1, 94248, Note_off_c, 1, 69, 0
1, 94260, Note_on_c, 1, 67, 127
1, 94296, Note_off_c, 1, 46, 0
1, 94308, Note_off_c, 1, 67, 0
1, 94320, Note_on_c, 1, 70, 127
1, 94320, Note_on_c, 1, 48, 127
1, 94368, Note_off_c, 1, 70, 0
1, 94380, Note_on_c, 1, 68, 127
1, 94416, Note_off_c, 1, 48, 0
1, 94428, Note_off_c, 1, 68, 0
1, 94440, Note_on_c, 1, 67, 127
1, 94440, Note_on_c, 1, 62, 127
1, 94440, Note_on_c, 1, 58, 127
1, 94440, Note_on_c, 1, 50, 127
1, 94488, Note_off_c, 1, 67, 0
1, 94488, Note_off_c, 1, 62, 0
1, 94488, Note_off_c, 1, 58, 0
1, 94500, Note_on_c, 1, 66, 127
1, 94500, Note_on_c, 1, 60, 127
1, 94500, Note_on_c, 1, 57, 127
1, 94536, Note_off_c, 1, 50, 0
1, 94548, Note_off_c, 1, 66, 0
1, 94548, Note_off_c, 1, 60, 0
1, 94548, Note_off_c, 1, 57, 0
1, 94560, Note_on_c, 1, 58, 127
1, 94560, Note_on_c, 1, 67, 127
1, 94560, Note_on_c, 1, 55, 127
1, 94560, Note_on_c, 1, 51, 127
1, 94608, Note_off_c, 1, 55, 0
1, 94620, Note_on_c, 1, 53, 127
1, 94656, Note_off_c, 1, 58, 0
1, 94656, Note_off_c, 1, 51, 0
1, 94668, Note_off_c, 1, 53, 0
1, 94680, Note_on_c, 1, 57, 127
1, 94680, Note_on_c, 1, 52, 127
1, 94680, Note_on_c, 1, 49, 127
1, 94704, Note_off_c, 1, 67, 0
1, 94740, Note_on_c, 1, 69, 127
1, 94776, Note_off_c, 1, 52, 0
1, 94776, Note_off_c, 1, 49, 0
1, 94788, Note_off_c, 1, 69, 0
1, 94800, Note_on_c, 1, 66, 127
1, 94800, Note_on_c, 1, 50, 127
1, 94896, Note_off_c, 1, 57, 0
1, 94920, Note_on_c, 1, 60, 127
1, 94920, Note_on_c, 1, 38, 127
1, 94944, Note_off_c, 1, 66, 0
1, 94992, Note_off_c, 1, 50, 0
1, 95016, Note_off_c, 1, 60, 0
1, 95016, Note_off_c, 1, 38, 0
1, 95040, Note_on_c, 1, 67, 127
1, 95040, Note_on_c, 1, 58, 127
1, 95040, Note_on_c, 1, 55, 127
1, 95040, Note_on_c, 1, 43, 127
1, 95136, Note_off_c, 1, 67, 0
1, 95136, Note_off_c, 1, 55, 0
1, 95136, Note_off_c, 1, 43, 0
1, 95160, Note_off_c, 1, 58, 0
1, 95280, Note_on_c, 1, 55, 127
1, 95376, Note_off_c, 1, 55, 0
1, 95400, Note_on_c, 1, 55, 127
1, 95496, Note_off_c, 1, 55, 0
1, 95520, Note_on_c, 1, 57, 127
1, 95520, Note_on_c, 1, 55, 127
1, 95616, Note_off_c, 1, 57, 0
1, 95616, Note_off_c, 1, 55, 0
1, 95640, Note_on_c, 1, 53, 127
1, 95688, Note_off_c, 1, 53, 0
1, 95700, Note_on_c, 1, 52, 127
1, 95748, Note_off_c, 1, 52, 0
1, 95760, Note_on_c, 1, 53, 127
1, 95856, Note_off_c, 1, 53, 0
1, 95880, Note_on_c, 1, 59, 127
1, 95880, Note_on_c, 1, 50, 127
1, 95976, Note_off_c, 1, 59, 0
1, 95976, Note_off_c, 1, 50, 0
1, 96000, Note_on_c, 1, 60, 127
1, 96000, Note_on_c, 1, 52, 127
1, 96096, Note_off_c, 1, 60, 0
1, 96096, Note_off_c, 1, 52, 0
1, 96120, Note_on_c, 1, 60, 127
1, 96216, Note_off_c, 1, 60, 0
1, 96240, Note_on_c, 1, 64, 127
1, 96240, Note_on_c, 1, 48, 127
1, 96240, Note_on_c, 1, 60, 127
1, 96336, Note_off_c, 1, 64, 0
1, 96336, Note_off_c, 1, 48, 0
1, 96336, Note_off_c, 1, 60, 0
1, 96360, Note_on_c, 1, 60, 127
1, 96456, Note_off_c, 1, 60, 0
1, 96480, Note_on_c, 1, 65, 127
1, 96480, Note_on_c, 1, 60, 127
1, 96480, Note_on_c, 1, 50, 127
1, 96576, Note_off_c, 1, 65, 0
1, 96576, Note_off_c, 1, 60, 0
1, 96576, Note_off_c, 1, 50, 0
1, 96600, Note_on_c, 1, 58, 127
1, 96648, Note_off_c, 1, 58, 0
1, 96660, Note_on_c, 1, 57, 127
1, 96708, Note_off_c, 1, 57, 0
1, 96720, Note_on_c, 1, 55, 127
1, 96816, Note_off_c, 1, 55, 0
1, 96840, Note_on_c, 1, 67, 127
1, 96840, Note_on_c, 1, 52, 127
1, 96840, Note_on_c, 1, 60, 127
1, 96936, Note_off_c, 1, 67, 0
1, 96936, Note_off_c, 1, 52, 0
1, 96936, Note_off_c, 1, 60, 0
1, 96960, Note_on_c, 1, 67, 127
1, 96960, Note_on_c, 1, 57, 127
1, 96960, Note_on_c, 1, 53, 127
1, 97056, Note_off_c, 1, 67, 0
1, 97056, Note_off_c, 1, 57, 0
1, 97080, Note_on_c, 1, 65, 127
1, 97080, Note_on_c, 1, 72, 127
1, 97128, Note_off_c, 1, 65, 0
1, 97140, Note_on_c, 1, 64, 127
1, 97140, Note_on_c, 1, 55, 127
1, 97152, Note_off_c, 1, 53, 0
1, 97188, Note_off_c, 1, 64, 0
1, 97188, Note_off_c, 1, 55, 0
1, 97193, Note_off_c, 1, 72, 0
1, 97200, Note_on_c, 1, 65, 127
1, 97200, Note_on_c, 1, 72, 127
1, 97200, Note_on_c, 1, 53, 127
1, 97200, Note_on_c, 1, 57, 127
1, 97200, Note_on_c, 1, 45, 127
1, 97296, Note_off_c, 1, 65, 0
1, 97296, Note_off_c, 1, 53, 0
1, 97296, Note_off_c, 1, 57, 0
1, 97296, Note_off_c, 1, 45, 0
1, 97313, Note_off_c, 1, 72, 0
1, 97320, Note_on_c, 1, 72, 127
1, 97320, Note_on_c, 1, 57, 127
1, 97416, Note_off_c, 1, 57, 0
1, 97433, Note_off_c, 1, 72, 0
1, 97440, Note_on_c, 1, 65, 127
1, 97440, Note_on_c, 1, 72, 127
1, 97440, Note_on_c, 1, 50, 127
1, 97440, Note_on_c, 1, 57, 127
1, 97440, Note_on_c, 1, 46, 127
1, 97536, Note_off_c, 1, 65, 0
1, 97536, Note_off_c, 1, 72, 0
1, 97536, Note_off_c, 1, 50, 0
1, 97536, Note_off_c, 1, 57, 0
1, 97536, Note_off_c, 1, 46, 0
1, 97560, Note_on_c, 1, 70, 127
1, 97560, Note_on_c, 1, 55, 127
1, 97608, Note_off_c, 1, 70, 0
1, 97608, Note_off_c, 1, 55, 0
1, 97620, Note_on_c, 1, 69, 127
1, 97620, Note_on_c, 1, 53, 127
1, 97668, Note_off_c, 1, 69, 0
1, 97668, Note_off_c, 1, 53, 0
1, 97680, Note_on_c, 1, 70, 127
1, 97680, Note_on_c, 1, 55, 127
1, 97776, Note_off_c, 1, 70, 0
1, 97776, Note_off_c, 1, 55, 0
1, 97800, Note_on_c, 1, 67, 127
1, 97800, Note_on_c, 1, 64, 127
1, 97800, Note_on_c, 1, 60, 127
1, 97800, Note_on_c, 1, 55, 127
1, 97800, Note_on_c, 1, 48, 127
1, 97848, Note_off_c, 1, 67, 0
1, 97860, Note_on_c, 1, 69, 127
1, 97884, Note_off_c, 1, 69, 0
1, 97890, Note_on_c, 1, 70, 127
1, 97896, Note_off_c, 1, 64, 0
1, 97896, Note_off_c, 1, 60, 0
1, 97896, Note_off_c, 1, 55, 0
1, 97896, Note_off_c, 1, 48, 0
1, 97914, Note_off_c, 1, 70, 0
1, 97920, Note_on_c, 1, 69, 127
1, 97920, Note_on_c, 1, 65, 127
1, 97920, Note_on_c, 1, 60, 127
1, 97920, Note_on_c, 1, 57, 127
1, 97920, Note_on_c, 1, 41, 127
1, 97968, Note_off_c, 1, 41, 0
1, 97980, Note_on_c, 1, 53, 127
1, 98016, Note_off_c, 1, 69, 0
1, 98016, Note_off_c, 1, 65, 0
1, 98016, Note_off_c, 1, 60, 0
1, 98016, Note_off_c, 1, 57, 0
1, 98028, Note_off_c, 1, 53, 0
1, 98040, Note_on_c, 1, 77, 127
1, 98040, Note_on_c, 1, 72, 127
1, 98040, Note_on_c, 1, 69, 127
1, 98040, Note_on_c, 1, 48, 127
1, 98088, Note_off_c, 1, 48, 0
1, 98100, Note_on_c, 1, 53, 127
1, 98136, Note_off_c, 1, 77, 0
1, 98136, Note_off_c, 1, 72, 0
1, 98136, Note_off_c, 1, 69, 0
1, 98148, Note_off_c, 1, 53, 0
1, 98160, Note_on_c, 1, 77, 127
1, 98160, Note_on_c, 1, 69, 127
1, 98160, Note_on_c, 1, 72, 127
1, 98160, Note_on_c, 1, 45, 127
1, 98208, Note_off_c, 1, 45, 0
1, 98220, Note_on_c, 1, 48, 127
1, 98256, Note_off_c, 1, 77, 0
1, 98256, Note_off_c, 1, 69, 0
1, 98256, Note_off_c, 1, 72, 0
1, 98268, Note_off_c, 1, 48, 0
1, 98280, Note_on_c, 1, 72, 127
1, 98280, Note_on_c, 1, 69, 127
1, 98280, Note_on_c, 1, 77, 127
1, 98280, Note_on_c, 1, 57, 127
1, 98280, Note_on_c, 1, 53, 127
1, 98280, Note_on_c, 1, 60, 127
1, 98280, Note_on_c, 1, 41, 127
1, 98328, Note_off_c, 1, 41, 0
1, 98340, Note_on_c, 1, 45, 127
1, 98376, Note_off_c, 1, 72, 0
1, 98376, Note_off_c, 1, 69, 0
1, 98376, Note_off_c, 1, 77, 0
1, 98376, Note_off_c, 1, 57, 0
1, 98376, Note_off_c, 1, 53, 0
1, 98376, Note_off_c, 1, 60, 0
1, 98388, Note_off_c, 1, 45, 0
1, 98400, Note_on_c, 1, 68, 127
1, 98400, Note_on_c, 1, 71, 127
1, 98400, Note_on_c, 1, 77, 127
1, 98400, Note_on_c, 1, 62, 127
1, 98400, Note_on_c, 1, 53, 127
1, 98400, Note_on_c, 1, 36, 127
1, 98496, Note_off_c, 1, 68, 0
1, 98496, Note_off_c, 1, 71, 0
1, 98496, Note_off_c, 1, 77, 0
1, 98496, Note_off_c, 1, 62, 0
1, 98496, Note_off_c, 1, 53, 0
1, 98496, Note_off_c, 1, 36, 0
1, 98520, Note_on_c, 1, 76, 127
1, 98520, Note_on_c, 1, 67, 127
1, 98520, Note_on_c, 1, 72, 127
1, 98520, Note_on_c, 1, 64, 127
1, 98520, Note_on_c, 1, 55, 127
1, 98568, Note_off_c, 1, 76, 0
1, 98568, Note_off_c, 1, 67, 0
1, 98580, Note_on_c, 1, 65, 127
1, 98580, Note_on_c, 1, 74, 127
1, 98616, Note_off_c, 1, 72, 0
1, 98616, Note_off_c, 1, 64, 0
1, 98616, Note_off_c, 1, 55, 0
1, 98628, Note_off_c, 1, 65, 0
1, 98628, Note_off_c, 1, 74, 0
1, 98640, Note_on_c, 1, 76, 127
1, 98640, Note_on_c, 1, 67, 127
1, 98736, Note_off_c, 1, 76, 0
1, 98736, Note_off_c, 1, 67, 0
1, 98760, Note_on_c, 1, 69, 127
1, 98760, Note_on_c, 1, 78, 127
1, 98856, Note_off_c, 1, 69, 0
1, 98856, Note_off_c, 1, 78, 0
1, 98880, Note_on_c, 1, 79, 127
1, 98880, Note_on_c, 1, 70, 127
1, 98880, Note_on_c, 1, 55, 127
1, 98880, Note_on_c, 1, 62, 127
1, 98976, Note_off_c, 1, 79, 0
1, 98976, Note_off_c, 1, 70, 0
1, 98976, Note_off_c, 1, 62, 0
1, 98988, Note_off_c, 1, 55, 0
1, 99000, Note_on_c, 1, 70, 127
1, 99000, Note_on_c, 1, 74, 127
1, 99000, Note_on_c, 1, 79, 127
1, 99000, Note_on_c, 1, 50, 127
1, 99048, Note_off_c, 1, 50, 0
1, 99060, Note_on_c, 1, 55, 127
1, 99096, Note_off_c, 1, 70, 0
1, 99096, Note_off_c, 1, 74, 0
1, 99096, Note_off_c, 1, 79, 0
1, 99108, Note_off_c, 1, 55, 0
1, 99120, Note_on_c, 1, 74, 127
1, 99120, Note_on_c, 1, 79, 127
1, 99120, Note_on_c, 1, 70, 127
1, 99120, Note_on_c, 1, 46, 127
1, 99168, Note_off_c, 1, 46, 0
1, 99180, Note_on_c, 1, 50, 127
1, 99216, Note_off_c, 1, 74, 0
1, 99216, Note_off_c, 1, 79, 0
1, 99216, Note_off_c, 1, 70, 0
1, 99228, Note_off_c, 1, 50, 0
1, 99240, Note_on_c, 1, 79, 127
1, 99240, Note_on_c, 1, 70, 127
1, 99240, Note_on_c, 1, 74, 127
1, 99240, Note_on_c, 1, 55, 127
1, 99240, Note_on_c, 1, 58, 127
1, 99240, Note_on_c, 1, 62, 127
1, 99240, Note_on_c, 1, 43, 127
1, 99288, Note_off_c, 1, 43, 0
1, 99300, Note_on_c, 1, 46, 127
1, 99336, Note_off_c, 1, 79, 0
1, 99336, Note_off_c, 1, 70, 0
1, 99336, Note_off_c, 1, 74, 0
1, 99336, Note_off_c, 1, 55, 0
1, 99336, Note_off_c, 1, 58, 0
1, 99336, Note_off_c, 1, 62, 0
1, 99348, Note_off_c, 1, 46, 0
1, 99360, Note_on_c, 1, 73, 127
1, 99360, Note_on_c, 1, 79, 127
1, 99360, Note_on_c, 1, 70, 127
1, 99360, Note_on_c, 1, 55, 127
1, 99360, Note_on_c, 1, 64, 127
1, 99360, Note_on_c, 1, 38, 127
1, 99456, Note_off_c, 1, 73, 0
1, 99456, Note_off_c, 1, 79, 0
1, 99456, Note_off_c, 1, 70, 0
1, 99456, Note_off_c, 1, 55, 0
1, 99456, Note_off_c, 1, 64, 0
1, 99456, Note_off_c, 1, 38, 0
1, 99480, Note_on_c, 1, 77, 127
1, 99480, Note_on_c, 1, 69, 127
1, 99480, Note_on_c, 1, 74, 127
1, 99480, Note_on_c, 1, 57, 127
1, 99480, Note_on_c, 1, 65, 127
1, 99528, Note_off_c, 1, 77, 0
1, 99528, Note_off_c, 1, 69, 0
1, 99540, Note_on_c, 1, 76, 127
1, 99540, Note_on_c, 1, 67, 127
1, 99576, Note_off_c, 1, 74, 0
1, 99576, Note_off_c, 1, 57, 0
1, 99576, Note_off_c, 1, 65, 0
1, 99588, Note_off_c, 1, 76, 0
1, 99588, Note_off_c, 1, 67, 0
1, 99600, Note_on_c, 1, 69, 127
1, 99600, Note_on_c, 1, 77, 127
1, 99600, Note_on_c, 1, 62, 127
1, 99648, Note_off_c, 1, 69, 0
1, 99660, Note_on_c, 1, 65, 127
1, 99696, Note_off_c, 1, 77, 0
1, 99696, Note_off_c, 1, 62, 0
1, 99708, Note_off_c, 1, 65, 0
1, 99720, Note_on_c, 1, 79, 127
1, 99720, Note_on_c, 1, 70, 127
1, 99768, Note_off_c, 1, 79, 0
1, 99780, Note_on_c, 1, 74, 127
1, 99828, Note_off_c, 1, 74, 0
1, 99840, Note_on_c, 1, 76, 127
1, 99840, Note_on_c, 1, 60, 127
1, 99888, Note_off_c, 1, 70, 0
1, 99900, Note_on_c, 1, 67, 127
1, 99936, Note_off_c, 1, 76, 0
1, 99936, Note_off_c, 1, 60, 0
1, 99948, Note_off_c, 1, 67, 0
1, 99960, Note_on_c, 1, 77, 127
1, 99960, Note_on_c, 1, 69, 127
1, 100008, Note_off_c, 1, 77, 0
1, 100020, Note_on_c, 1, 72, 127
1, 100068, Note_off_c, 1, 72, 0
1, 100080, Note_on_c, 1, 74, 127
1, 100080, Note_on_c, 1, 58, 127
1, 100128, Note_off_c, 1, 69, 0
1, 100140, Note_on_c, 1, 65, 127
1, 100176, Note_off_c, 1, 74, 0
1, 100176, Note_off_c, 1, 58, 0
1, 100188, Note_off_c, 1, 65, 0
1, 100200, Note_on_c, 1, 76, 127
1, 100200, Note_on_c, 1, 67, 127
1, 100248, Note_off_c, 1, 76, 0
1, 100260, Note_on_c, 1, 74, 127
1, 100308, Note_off_c, 1, 74, 0
1, 100320, Note_on_c, 1, 72, 127
1, 100320, Note_on_c, 1, 57, 127
1, 100368, Note_off_c, 1, 67, 0
1, 100380, Note_on_c, 1, 64, 127
1, 100416, Note_off_c, 1, 72, 0
1, 100416, Note_off_c, 1, 57, 0
1, 100428, Note_off_c, 1, 64, 0
1, 100440, Note_on_c, 1, 74, 127
1, 100440, Note_on_c, 1, 65, 127
1, 100488, Note_off_c, 1, 74, 0
1, 100500, Note_on_c, 1, 69, 127
1, 100548, Note_off_c, 1, 69, 0
1, 100560, Note_on_c, 1, 70, 127
1, 100560, Note_on_c, 1, 55, 127
1, 100608, Note_off_c, 1, 65, 0
1, 100620, Note_on_c, 1, 67, 127
1, 100656, Note_off_c, 1, 55, 0
1, 100668, Note_off_c, 1, 67, 0
1, 100680, Note_on_c, 1, 64, 127
1, 100680, Note_on_c, 1, 48, 127
1, 100728, Note_off_c, 1, 64, 0
1, 100740, Note_on_c, 1, 60, 127
1, 100776, Note_off_c, 1, 48, 0
1, 100800, Note_on_c, 1, 53, 127
1, 100848, Note_off_c, 1, 53, 0
1, 100896, Note_off_c, 1, 70, 0
1, 100896, Note_off_c, 1, 60, 0
1, 100920, Note_on_c, 1, 69, 127
1, 100920, Note_on_c, 1, 60, 127
1, 100920, Note_on_c, 1, 65, 127
1, 100920, Note_on_c, 1, 57, 127
1, 100920, Note_on_c, 1, 41, 127
1, 100968, Note_off_c, 1, 57, 0
1, 100980, Note_on_c, 1, 55, 127
1, 101016, Note_off_c, 1, 69, 0
1, 101016, Note_off_c, 1, 60, 0
1, 101016, Note_off_c, 1, 65, 0
1, 101016, Note_off_c, 1, 41, 0
1, 101028, Note_off_c, 1, 55, 0
1, 101040, Note_on_c, 1, 60, 127
1, 101040, Note_on_c, 1, 69, 127
1, 101040, Note_on_c, 1, 65, 127
1, 101040, Note_on_c, 1, 53, 127
1, 101040, Note_on_c, 1, 45, 127
1, 101088, Note_off_c, 1, 53, 0
1, 101100, Note_on_c, 1, 52, 127
1, 101136, Note_off_c, 1, 60, 0
1, 101136, Note_off_c, 1, 69, 0
1, 101136, Note_off_c, 1, 65, 0
1, 101136, Note_off_c, 1, 45, 0
1, 101148, Note_off_c, 1, 52, 0
1, 101160, Note_on_c, 1, 60, 127
1, 101160, Note_on_c, 1, 65, 127
1, 101160, Note_on_c, 1, 69, 127
1, 101160, Note_on_c, 1, 50, 127
1, 101160, Note_on_c, 1, 41, 127
1, 101208, Note_off_c, 1, 50, 0
1, 101220, Note_on_c, 1, 48, 127
1, 101256, Note_off_c, 1, 60, 0
1, 101256, Note_off_c, 1, 65, 0
1, 101256, Note_off_c, 1, 69, 0
1, 101256, Note_off_c, 1, 41, 0
1, 101268, Note_off_c, 1, 48, 0
1, 101280, Note_on_c, 1, 69, 127
1, 101280, Note_on_c, 1, 65, 127
1, 101280, Note_on_c, 1, 60, 127
1, 101280, Note_on_c, 1, 50, 127
1, 101280, Note_on_c, 1, 46, 127
1, 101376, Note_off_c, 1, 69, 0
1, 101376, Note_off_c, 1, 65, 0
1, 101376, Note_off_c, 1, 60, 0
1, 101400, Note_on_c, 1, 62, 127
1, 101400, Note_on_c, 1, 70, 127
1, 101448, Note_off_c, 1, 62, 0
1, 101448, Note_off_c, 1, 70, 0
1, 101472, Note_off_c, 1, 50, 0
1, 101520, Note_on_c, 1, 67, 127
1, 101520, Note_on_c, 1, 58, 127
1, 101520, Note_on_c, 1, 52, 127
1, 101568, Note_off_c, 1, 67, 0
1, 101580, Note_on_c, 1, 74, 127
1, 101616, Note_off_c, 1, 58, 0
1, 101616, Note_off_c, 1, 52, 0
1, 101628, Note_off_c, 1, 74, 0
1, 101640, Note_on_c, 1, 57, 127
1, 101640, Note_on_c, 1, 53, 127
1, 101664, Note_off_c, 1, 46, 0
1, 101736, Note_off_c, 1, 57, 0
1, 101736, Note_off_c, 1, 53, 0
1, 101760, Note_on_c, 1, 64, 127
1, 101760, Note_on_c, 1, 55, 127
1, 101760, Note_on_c, 1, 48, 127
1, 101760, Note_on_c, 1, 46, 127
1, 101856, Note_off_c, 1, 64, 0
1, 101856, Note_off_c, 1, 55, 0
1, 101856, Note_off_c, 1, 48, 0
1, 101856, Note_off_c, 1, 46, 0
1, 101880, Note_on_c, 1, 72, 127
1, 101880, Note_on_c, 1, 48, 127
1, 101880, Note_on_c, 1, 53, 127
1, 101880, Note_on_c, 1, 45, 127
1, 101940, Note_on_c, 1, 70, 127
1, 101976, Note_off_c, 1, 72, 0
1, 101976, Note_off_c, 1, 48, 0
1, 101976, Note_off_c, 1, 53, 0
1, 101976, Note_off_c, 1, 45, 0
1, 101988, Note_off_c, 1, 70, 0
1, 102000, Note_on_c, 1, 69, 127
1, 102000, Note_on_c, 1, 72, 127
1, 102000, Note_on_c, 1, 53, 127
1, 102000, Note_on_c, 1, 57, 127
1, 102000, Note_on_c, 1, 48, 127
1, 102048, Note_off_c, 1, 69, 0
1, 102060, Note_on_c, 1, 67, 127
1, 102096, Note_off_c, 1, 72, 0
1, 102096, Note_off_c, 1, 53, 0
1, 102096, Note_off_c, 1, 57, 0
1, 102096, Note_off_c, 1, 48, 0
1, 102108, Note_off_c, 1, 67, 0
1, 102120, Note_on_c, 1, 65, 127
1, 102120, Note_on_c, 1, 72, 127
1, 102120, Note_on_c, 1, 57, 127
1, 102120, Note_on_c, 1, 60, 127
1, 102120, Note_on_c, 1, 45, 127
1, 102168, Note_off_c, 1, 65, 0
1, 102180, Note_on_c, 1, 64, 127
1, 102216, Note_off_c, 1, 72, 0
1, 102216, Note_off_c, 1, 57, 0
1, 102216, Note_off_c, 1, 60, 0
1, 102216, Note_off_c, 1, 45, 0
1, 102228, Note_off_c, 1, 64, 0
1, 102240, Note_on_c, 1, 72, 127
1, 102240, Note_on_c, 1, 65, 127
1, 102240, Note_on_c, 1, 62, 127
1, 102240, Note_on_c, 1, 57, 127
1, 102240, Note_on_c, 1, 50, 127
1, 102336, Note_off_c, 1, 72, 0
1, 102336, Note_off_c, 1, 62, 0
1, 102336, Note_off_c, 1, 57, 0
1, 102336, Note_off_c, 1, 50, 0
1, 102360, Note_on_c, 1, 74, 127
1, 102360, Note_on_c, 1, 53, 127
1, 102360, Note_on_c, 1, 58, 127
1, 102360, Note_on_c, 1, 38, 127
1, 102408, Note_off_c, 1, 74, 0
1, 102432, Note_off_c, 1, 65, 0
1, 102456, Note_off_c, 1, 53, 0
1, 102456, Note_off_c, 1, 58, 0
1, 102456, Note_off_c, 1, 38, 0
1, 102480, Note_on_c, 1, 70, 127
1, 102480, Note_on_c, 1, 60, 127
1, 102480, Note_on_c, 1, 55, 127
1, 102480, Note_on_c, 1, 52, 127
1, 102528, Note_off_c, 1, 70, 0
1, 102540, Note_on_c, 1, 69, 127
1, 102576, Note_off_c, 1, 60, 0
1, 102576, Note_off_c, 1, 55, 0
1, 102576, Note_off_c, 1, 52, 0
1, 102588, Note_off_c, 1, 69, 0
1, 102600, Note_on_c, 1, 67, 127
1, 102600, Note_on_c, 1, 60, 127
1, 102600, Note_on_c, 1, 57, 127
1, 102600, Note_on_c, 1, 53, 127
1, 102648, Note_off_c, 1, 67, 0
1, 102660, Note_on_c, 1, 69, 127
1, 102696, Note_off_c, 1, 60, 0
1, 102696, Note_off_c, 1, 57, 0
1, 102696, Note_off_c, 1, 53, 0
1, 102708, Note_off_c, 1, 69, 0
1, 102720, Note_on_c, 1, 69, 127
1, 102720, Note_on_c, 1, 62, 127
1, 102720, Note_on_c, 1, 58, 127
1, 102720, Note_on_c, 1, 46, 127
1, 102768, Note_off_c, 1, 69, 0
1, 102780, Note_on_c, 1, 74, 127
1, 102816, Note_off_c, 1, 62, 0
1, 102816, Note_off_c, 1, 58, 0
1, 102816, Note_off_c, 1, 46, 0
1, 102828, Note_off_c, 1, 74, 0
1, 102840, Note_on_c, 1, 76, 127
1, 102840, Note_on_c, 1, 60, 127
1, 102840, Note_on_c, 1, 57, 127
1, 102888, Note_off_c, 1, 76, 0
1, 102900, Note_on_c, 1, 77, 127
1, 102936, Note_off_c, 1, 60, 0
1, 102936, Note_off_c, 1, 57, 0
1, 102948, Note_off_c, 1, 77, 0
1, 102960, Note_on_c, 1, 77, 127
1, 102960, Note_on_c, 1, 58, 127
1, 102960, Note_on_c, 1, 55, 127
1, 103008, Note_off_c, 1, 77, 0
1, 103020, Note_on_c, 1, 76, 127
1, 103056, Note_off_c, 1, 58, 0
1, 103056, Note_off_c, 1, 55, 0
1, 103068, Note_off_c, 1, 76, 0
1, 103080, Note_on_c, 1, 74, 127
1, 103080, Note_on_c, 1, 67, 127
1, 103080, Note_on_c, 1, 58, 127
1, 103128, Note_off_c, 1, 74, 0
1, 103140, Note_on_c, 1, 72, 127
1, 103176, Note_off_c, 1, 67, 0
1, 103176, Note_off_c, 1, 58, 0
1, 103188, Note_off_c, 1, 72, 0
1, 103200, Note_on_c, 1, 77, 127
1, 103200, Note_on_c, 1, 60, 127
1, 103200, Note_on_c, 1, 57, 127
1, 103296, Note_off_c, 1, 77, 0
1, 103296, Note_off_c, 1, 60, 0
1, 103296, Note_off_c, 1, 57, 0
1, 103320, Note_on_c, 1, 65, 127
1, 103320, Note_on_c, 1, 72, 127
1, 103320, Note_on_c, 1, 53, 127
1, 103320, Note_on_c, 1, 60, 127
1, 103320, Note_on_c, 1, 45, 127
1, 103416, Note_off_c, 1, 65, 0
1, 103416, Note_off_c, 1, 72, 0
1, 103416, Note_off_c, 1, 53, 0
1, 103416, Note_off_c, 1, 60, 0
1, 103416, Note_off_c, 1, 45, 0
1, 103440, Note_on_c, 1, 70, 127
1, 103440, Note_on_c, 1, 65, 127
1, 103440, Note_on_c, 1, 60, 127
1, 103440, Note_on_c, 1, 55, 127
1, 103440, Note_on_c, 1, 48, 127
1, 103488, Note_off_c, 1, 70, 0
1, 103500, Note_on_c, 1, 69, 127
1, 103536, Note_off_c, 1, 65, 0
1, 103536, Note_off_c, 1, 60, 0
1, 103536, Note_off_c, 1, 55, 0
1, 103536, Note_off_c, 1, 48, 0
1, 103548, Note_off_c, 1, 69, 0
1, 103560, Note_on_c, 1, 67, 127
1, 103560, Note_on_c, 1, 64, 127
1, 103560, Note_on_c, 1, 58, 127
1, 103560, Note_on_c, 1, 60, 127
1, 103560, Note_on_c, 1, 36, 127
1, 103608, Note_off_c, 1, 67, 0
1, 103620, Note_on_c, 1, 65, 127
1, 103656, Note_off_c, 1, 64, 0
1, 103656, Note_off_c, 1, 58, 0
1, 103656, Note_off_c, 1, 60, 0
1, 103656, Note_off_c, 1, 36, 0
1, 103668, Note_off_c, 1, 65, 0
1, 103680, Note_on_c, 1, 65, 127
1, 103680, Note_on_c, 1, 57, 127
1, 103680, Note_on_c, 1, 60, 127
1, 103680, Note_on_c, 1, 41, 127
1, 103740, Note_on_c, 1, 69, 127
1, 103776, Note_off_c, 1, 65, 0
1, 103776, Note_off_c, 1, 57, 0
1, 103776, Note_off_c, 1, 60, 0
1, 103776, Note_off_c, 1, 41, 0
1, 103788, Note_off_c, 1, 69, 0
1, 103800, Note_on_c, 1, 67, 127
1, 103848, Note_off_c, 1, 67, 0
1, 103860, Note_on_c, 1, 69, 127
1, 103908, Note_off_c, 1, 69, 0
1, 103920, Note_on_c, 1, 65, 127
1, 103980, Note_on_c, 1, 69, 127
1, 103980, Note_on_c, 1, 57, 127
1, 104016, Note_off_c, 1, 65, 0
1, 104028, Note_off_c, 1, 57, 0
1, 104040, Note_on_c, 1, 64, 127
1, 104040, Note_on_c, 1, 55, 127
1, 104076, Note_off_c, 1, 69, 0
1, 104088, Note_off_c, 1, 55, 0
1, 104136, Note_off_c, 1, 64, 0
1, 104160, Note_on_c, 1, 62, 127
1, 104160, Note_on_c, 1, 53, 127
1, 104220, Note_on_c, 1, 69, 127
1, 104256, Note_off_c, 1, 62, 0
1, 104256, Note_off_c, 1, 53, 0
1, 104280, Note_on_c, 1, 60, 127
1, 104280, Note_on_c, 1, 52, 127
1, 104316, Note_off_c, 1, 69, 0
1, 104376, Note_off_c, 1, 60, 0
1, 104376, Note_off_c, 1, 52, 0
1, 104400, Note_on_c, 1, 58, 127
1, 104400, Note_on_c, 1, 50, 127
1, 104460, Note_on_c, 1, 69, 127
1, 104496, Note_off_c, 1, 58, 0
1, 104496, Note_off_c, 1, 50, 0
1, 104520, Note_on_c, 1, 57, 127
1, 104520, Note_on_c, 1, 48, 127
1, 104556, Note_off_c, 1, 69, 0
1, 104616, Note_off_c, 1, 57, 0
1, 104616, Note_off_c, 1, 48, 0
1, 104640, Note_on_c, 1, 62, 127
1, 104640, Note_on_c, 1, 53, 127
1, 104640, Note_on_c, 1, 43, 127
1, 104700, Note_on_c, 1, 69, 127
1, 104736, Note_off_c, 1, 62, 0
1, 104736, Note_off_c, 1, 53, 0
1, 104736, Note_off_c, 1, 43, 0
1, 104748, Note_off_c, 1, 69, 0
1, 104760, Note_on_c, 1, 74, 127
1, 104808, Note_off_c, 1, 74, 0
1, 104820, Note_on_c, 1, 72, 127
1, 104820, Note_on_c, 1, 57, 127
1, 104868, Note_off_c, 1, 72, 0
1, 104868, Note_off_c, 1, 57, 0
1, 104880, Note_on_c, 1, 70, 127
1, 104880, Note_on_c, 1, 62, 127
1, 104928, Note_off_c, 1, 70, 0
1, 104928, Note_off_c, 1, 62, 0
1, 104940, Note_on_c, 1, 69, 127
1, 104940, Note_on_c, 1, 60, 127
1, 104988, Note_off_c, 1, 69, 0
1, 104988, Note_off_c, 1, 60, 0
1, 105000, Note_on_c, 1, 67, 127
1, 105000, Note_on_c, 1, 58, 127
1, 105048, Note_off_c, 1, 67, 0
1, 105048, Note_off_c, 1, 58, 0
1, 105060, Note_on_c, 1, 65, 127
1, 105060, Note_on_c, 1, 57, 127
1, 105108, Note_off_c, 1, 65, 0
1, 105108, Note_off_c, 1, 57, 0
1, 105120, Note_on_c, 1, 64, 127
1, 105120, Note_on_c, 1, 55, 127
1, 105180, Note_on_c, 1, 67, 127
1, 105216, Note_off_c, 1, 64, 0
1, 105216, Note_off_c, 1, 55, 0
1, 105240, Note_on_c, 1, 62, 127
1, 105240, Note_on_c, 1, 53, 127
1, 105276, Note_off_c, 1, 67, 0
1, 105336, Note_off_c, 1, 62, 0
1, 105336, Note_off_c, 1, 53, 0
1, 105360, Note_on_c, 1, 61, 127
1, 105360, Note_on_c, 1, 52, 127
1, 105420, Note_on_c, 1, 67, 127
1, 105456, Note_off_c, 1, 61, 0
1, 105456, Note_off_c, 1, 52, 0
1, 105480, Note_on_c, 1, 59, 127
1, 105480, Note_on_c, 1, 50, 127
1, 105516, Note_off_c, 1, 67, 0
1, 105576, Note_off_c, 1, 59, 0
1, 105576, Note_off_c, 1, 50, 0
1, 105600, Note_on_c, 1, 57, 127
1, 105600, Note_on_c, 1, 48, 127
1, 105600, Note_on_c, 1, 45, 127
1, 105660, Note_on_c, 1, 67, 127
1, 105696, Note_off_c, 1, 57, 0
1, 105696, Note_off_c, 1, 48, 0
1, 105696, Note_off_c, 1, 45, 0
1, 105708, Note_off_c, 1, 67, 0
1, 105720, Note_on_c, 1, 76, 127
1, 105768, Note_off_c, 1, 76, 0
1, 105780, Note_on_c, 1, 67, 127
1, 105828, Note_off_c, 1, 67, 0
1, 105840, Note_on_c, 1, 65, 127
1, 105888, Note_off_c, 1, 65, 0
1, 105900, Note_on_c, 1, 64, 127
1, 105948, Note_off_c, 1, 64, 0
1, 105960, Note_on_c, 1, 65, 127
1, 105960, Note_on_c, 1, 50, 127
1, 105960, Note_on_c, 1, 57, 127
1, 106008, Note_off_c, 1, 65, 0
1, 106020, Note_on_c, 1, 62, 127
1, 106056, Note_off_c, 1, 50, 0
1, 106056, Note_off_c, 1, 57, 0
1, 106068, Note_off_c, 1, 62, 0
1, 106080, Note_on_c, 1, 64, 127
1, 106080, Note_on_c, 1, 45, 127
1, 106080, Note_on_c, 1, 57, 127
1, 106128, Note_off_c, 1, 64, 0
1, 106140, Note_on_c, 1, 74, 127
1, 106176, Note_off_c, 1, 45, 0
1, 106176, Note_off_c, 1, 57, 0
1, 106188, Note_off_c, 1, 74, 0
1, 106200, Note_on_c, 1, 72, 127
1, 106248, Note_off_c, 1, 72, 0
1, 106260, Note_on_c, 1, 63, 127
1, 106308, Note_off_c, 1, 63, 0
1, 106320, Note_on_c, 1, 62, 127
1, 106368, Note_off_c, 1, 62, 0
1, 106380, Note_on_c, 1, 60, 127
1, 106428, Note_off_c, 1, 60, 0
1, 106440, Note_on_c, 1, 62, 127
1, 106440, Note_on_c, 1, 53, 127
1, 106440, Note_on_c, 1, 46, 127
1, 106488, Note_off_c, 1, 62, 0
1, 106500, Note_on_c, 1, 58, 127
1, 106536, Note_off_c, 1, 53, 0
1, 106536, Note_off_c, 1, 46, 0
1, 106548, Note_off_c, 1, 58, 0
1, 106560, Note_on_c, 1, 60, 127
1, 106560, Note_on_c, 1, 53, 127
1, 106560, Note_on_c, 1, 41, 127
1, 106608, Note_off_c, 1, 60, 0
1, 106620, Note_on_c, 1, 70, 127
1, 106656, Note_off_c, 1, 53, 0
1, 106656, Note_off_c, 1, 41, 0
1, 106668, Note_off_c, 1, 70, 0
1, 106680, Note_on_c, 1, 69, 127
1, 106728, Note_off_c, 1, 69, 0
1, 106740, Note_on_c, 1, 60, 127
1, 106788, Note_off_c, 1, 60, 0
1, 106800, Note_on_c, 1, 58, 127
1, 106848, Note_off_c, 1, 58, 0
1, 106860, Note_on_c, 1, 57, 127
1, 106908, Note_off_c, 1, 57, 0
1, 106920, Note_on_c, 1, 58, 127
1, 106920, Note_on_c, 1, 50, 127
1, 106920, Note_on_c, 1, 43, 127
1, 106968, Note_off_c, 1, 58, 0
1, 106980, Note_on_c, 1, 55, 127
1, 107016, Note_off_c, 1, 50, 0
1, 107016, Note_off_c, 1, 43, 0
1, 107028, Note_off_c, 1, 55, 0
1, 107040, Note_on_c, 1, 57, 127
1, 107040, Note_on_c, 1, 50, 127
1, 107040, Note_on_c, 1, 38, 127
1, 107088, Note_off_c, 1, 57, 0
1, 107100, Note_on_c, 1, 67, 127
1, 107136, Note_off_c, 1, 50, 0
1, 107136, Note_off_c, 1, 38, 0
1, 107148, Note_off_c, 1, 67, 0
1, 107160, Note_on_c, 1, 65, 127
1, 107160, Note_on_c, 1, 50, 127
1, 107208, Note_off_c, 1, 65, 0
1, 107220, Note_on_c, 1, 57, 127
1, 107256, Note_off_c, 1, 50, 0
1, 107268, Note_off_c, 1, 57, 0
1, 107280, Note_on_c, 1, 58, 127
1, 107280, Note_on_c, 1, 43, 127
1, 107280, Note_on_c, 1, 50, 127
1, 107328, Note_off_c, 1, 58, 0
1, 107340, Note_on_c, 1, 69, 127
1, 107376, Note_off_c, 1, 43, 0
1, 107376, Note_off_c, 1, 50, 0
1, 107388, Note_off_c, 1, 69, 0
1, 107400, Note_on_c, 1, 67, 127
1, 107400, Note_on_c, 1, 52, 127
1, 107448, Note_off_c, 1, 67, 0
1, 107460, Note_on_c, 1, 59, 127
1, 107508, Note_off_c, 1, 59, 0
1, 107520, Note_on_c, 1, 61, 127
1, 107520, Note_on_c, 1, 45, 127
1, 107544, Note_off_c, 1, 61, 0
1, 107580, Note_on_c, 1, 57, 127
1, 107616, Note_off_c, 1, 52, 0
1, 107616, Note_off_c, 1, 45, 0
1, 107628, Note_off_c, 1, 57, 0
1, 107640, Note_on_c, 1, 64, 127
1, 107640, Note_on_c, 1, 55, 127
1, 107664, Note_off_c, 1, 64, 0
1, 107670, Note_on_c, 1, 62, 127
1, 107694, Note_off_c, 1, 62, 0
1, 107700, Note_on_c, 1, 61, 127
1, 107736, Note_off_c, 1, 55, 0
1, 107748, Note_off_c, 1, 61, 0
1, 107760, Note_on_c, 1, 67, 127
1, 107760, Note_on_c, 1, 58, 127
1, 107784, Note_off_c, 1, 67, 0
1, 107790, Note_on_c, 1, 65, 127
1, 107814, Note_off_c, 1, 65, 0
1, 107820, Note_on_c, 1, 64, 127
1, 107856, Note_off_c, 1, 58, 0
1, 107868, Note_off_c, 1, 64, 0
1, 107880, Note_on_c, 1, 70, 127
1, 107880, Note_on_c, 1, 61, 127
1, 107904, Note_off_c, 1, 70, 0
1, 107910, Note_on_c, 1, 69, 127
1, 107934, Note_off_c, 1, 69, 0
1, 107940, Note_on_c, 1, 67, 127
1, 107976, Note_off_c, 1, 61, 0
1, 107988, Note_off_c, 1, 67, 0
1, 108000, Note_on_c, 1, 73, 127
1, 108000, Note_on_c, 1, 64, 127
1, 108048, Note_off_c, 1, 73, 0
1, 108060, Note_on_c, 1, 67, 127
1, 108096, Note_off_c, 1, 64, 0
1, 108108, Note_off_c, 1, 67, 0
1, 108120, Note_on_c, 1, 76, 127
1, 108120, Note_on_c, 1, 67, 127
1, 108168, Note_off_c, 1, 76, 0
1, 108180, Note_on_c, 1, 73, 127
1, 108216, Note_off_c, 1, 67, 0
1, 108228, Note_off_c, 1, 73, 0
1, 108240, Note_on_c, 1, 70, 127
1, 108240, Note_on_c, 1, 61, 127
1, 108288, Note_off_c, 1, 70, 0
1, 108300, Note_on_c, 1, 69, 127
1, 108336, Note_off_c, 1, 61, 0
1, 108348, Note_off_c, 1, 69, 0
1, 108360, Note_on_c, 1, 67, 127
1, 108360, Note_on_c, 1, 64, 127
1, 108408, Note_off_c, 1, 67, 0
1, 108420, Note_on_c, 1, 65, 127
1, 108456, Note_off_c, 1, 64, 0
1, 108468, Note_off_c, 1, 65, 0
1, 108480, Note_on_c, 1, 57, 127
1, 108480, Note_on_c, 1, 52, 127
1, 108480, Note_on_c, 1, 45, 127
1, 108540, Note_on_c, 1, 67, 127
1, 108576, Note_off_c, 1, 57, 0
1, 108576, Note_off_c, 1, 52, 0
1, 108576, Note_off_c, 1, 45, 0
1, 108588, Note_off_c, 1, 67, 0
1, 108600, Note_on_c, 1, 73, 127
1, 108600, Note_on_c, 1, 64, 127
1, 108648, Note_off_c, 1, 73, 0
1, 108660, Note_on_c, 1, 67, 127
1, 108696, Note_off_c, 1, 64, 0
1, 108708, Note_off_c, 1, 67, 0
1, 108720, Note_on_c, 1, 73, 127
1, 108720, Note_on_c, 1, 57, 127
1, 108768, Note_off_c, 1, 73, 0
1, 108780, Note_on_c, 1, 67, 127
1, 108816, Note_off_c, 1, 57, 0
1, 108828, Note_off_c, 1, 67, 0
1, 108840, Note_on_c, 1, 76, 127
1, 108840, Note_on_c, 1, 61, 127
1, 108888, Note_off_c, 1, 76, 0
1, 108900, Note_on_c, 1, 67, 127
1, 108936, Note_off_c, 1, 61, 0
1, 108948, Note_off_c, 1, 67, 0
1, 108960, Note_on_c, 1, 52, 127
1, 108960, Note_on_c, 1, 57, 127
1, 108960, Note_on_c, 1, 45, 127
1, 109020, Note_on_c, 1, 67, 127
1, 109056, Note_off_c, 1, 52, 0
1, 109056, Note_off_c, 1, 57, 0
1, 109056, Note_off_c, 1, 45, 0
1, 109068, Note_off_c, 1, 67, 0
1, 109080, Note_on_c, 1, 73, 127
1, 109080, Note_on_c, 1, 64, 127
1, 109128, Note_off_c, 1, 73, 0
1, 109140, Note_on_c, 1, 67, 127
1, 109176, Note_off_c, 1, 64, 0
1, 109188, Note_off_c, 1, 67, 0
1, 109200, Note_on_c, 1, 73, 127
1, 109200, Note_on_c, 1, 57, 127
1, 109248, Note_off_c, 1, 73, 0
1, 109260, Note_on_c, 1, 67, 127
1, 109296, Note_off_c, 1, 57, 0
1, 109308, Note_off_c, 1, 67, 0
1, 109320, Note_on_c, 1, 76, 127
1, 109320, Note_on_c, 1, 61, 127
1, 109368, Note_off_c, 1, 76, 0
1, 109380, Note_on_c, 1, 67, 127
1, 109416, Note_off_c, 1, 61, 0
1, 109428, Note_off_c, 1, 67, 0
1, 109440, Note_on_c, 1, 57, 127
1, 109440, Note_on_c, 1, 62, 127
1, 109440, Note_on_c, 1, 45, 127
1, 109500, Note_on_c, 1, 65, 127
1, 109536, Note_off_c, 1, 57, 0
1, 109536, Note_off_c, 1, 62, 0
1, 109536, Note_off_c, 1, 45, 0
1, 109548, Note_off_c, 1, 65, 0
1, 109560, Note_on_c, 1, 69, 127
1, 109560, Note_on_c, 1, 50, 127
1, 109608, Note_off_c, 1, 69, 0
1, 109620, Note_on_c, 1, 65, 127
1, 109656, Note_off_c, 1, 50, 0
1, 109668, Note_off_c, 1, 65, 0
1, 109680, Note_on_c, 1, 69, 127
1, 109680, Note_on_c, 1, 53, 127
1, 109728, Note_off_c, 1, 69, 0
1, 109740, Note_on_c, 1, 65, 127
1, 109776, Note_off_c, 1, 53, 0
1, 109788, Note_off_c, 1, 65, 0
1, 109800, Note_on_c, 1, 74, 127
1, 109800, Note_on_c, 1, 57, 127
1, 109848, Note_off_c, 1, 74, 0
1, 109860, Note_on_c, 1, 65, 127
1, 109896, Note_off_c, 1, 57, 0
1, 109908, Note_off_c, 1, 65, 0
1, 109920, Note_on_c, 1, 57, 127
1, 109920, Note_on_c, 1, 62, 127
1, 109920, Note_on_c, 1, 45, 127
1, 109980, Note_on_c, 1, 65, 127
1, 110016, Note_off_c, 1, 57, 0
1, 110016, Note_off_c, 1, 62, 0
1, 110016, Note_off_c, 1, 45, 0
1, 110028, Note_off_c, 1, 65, 0
1, 110040, Note_on_c, 1, 69, 127
1, 110040, Note_on_c, 1, 50, 127
1, 110088, Note_off_c, 1, 69, 0
1, 110100, Note_on_c, 1, 65, 127
1, 110136, Note_off_c, 1, 50, 0
1, 110148, Note_off_c, 1, 65, 0
1, 110160, Note_on_c, 1, 69, 127
1, 110160, Note_on_c, 1, 53, 127
1, 110208, Note_off_c, 1, 69, 0
1, 110220, Note_on_c, 1, 65, 127
1, 110256, Note_off_c, 1, 53, 0
1, 110268, Note_off_c, 1, 65, 0
1, 110280, Note_on_c, 1, 74, 127
1, 110280, Note_on_c, 1, 57, 127
1, 110328, Note_off_c, 1, 74, 0
1, 110340, Note_on_c, 1, 65, 127
1, 110376, Note_off_c, 1, 57, 0
1, 110388, Note_off_c, 1, 65, 0
1, 110400, Note_on_c, 1, 57, 127
1, 110400, Note_on_c, 1, 61, 127
1, 110400, Note_on_c, 1, 45, 127
1, 110460, Note_on_c, 1, 64, 127
1, 110496, Note_off_c, 1, 57, 0
1, 110496, Note_off_c, 1, 61, 0
1, 110496, Note_off_c, 1, 45, 0
1, 110508, Note_off_c, 1, 64, 0
1, 110520, Note_on_c, 1, 73, 127
1, 110520, Note_on_c, 1, 64, 127
1, 110568, Note_off_c, 1, 73, 0
1, 110580, Note_on_c, 1, 69, 127
1, 110616, Note_off_c, 1, 64, 0
1, 110628, Note_off_c, 1, 69, 0
1, 110640, Note_on_c, 1, 73, 127
1, 110640, Note_on_c, 1, 67, 127
1, 110688, Note_off_c, 1, 73, 0
1, 110700, Note_on_c, 1, 69, 127
1, 110736, Note_off_c, 1, 67, 0
1, 110748, Note_off_c, 1, 69, 0
1, 110760, Note_on_c, 1, 79, 127
1, 110760, Note_on_c, 1, 64, 127
1, 110808, Note_off_c, 1, 79, 0
1, 110820, Note_on_c, 1, 69, 127
1, 110856, Note_off_c, 1, 64, 0
1, 110868, Note_off_c, 1, 69, 0
1, 110880, Note_on_c, 1, 61, 127
1, 110880, Note_on_c, 1, 57, 127
1, 110880, Note_on_c, 1, 45, 127
1, 110940, Note_on_c, 1, 69, 127
1, 110976, Note_off_c, 1, 61, 0
1, 110976, Note_off_c, 1, 57, 0
1, 110976, Note_off_c, 1, 45, 0
1, 110988, Note_off_c, 1, 69, 0
1, 111000, Note_on_c, 1, 73, 127
1, 111000, Note_on_c, 1, 64, 127
1, 111048, Note_off_c, 1, 73, 0
1, 111060, Note_on_c, 1, 69, 127
1, 111096, Note_off_c, 1, 64, 0
1, 111108, Note_off_c, 1, 69, 0
1, 111120, Note_on_c, 1, 73, 127
1, 111120, Note_on_c, 1, 57, 127
1, 111168, Note_off_c, 1, 73, 0
1, 111180, Note_on_c, 1, 69, 127
1, 111216, Note_off_c, 1, 57, 0
1, 111228, Note_off_c, 1, 69, 0
1, 111240, Note_on_c, 1, 79, 127
1, 111240, Note_on_c, 1, 61, 127
1, 111288, Note_off_c, 1, 79, 0
1, 111300, Note_on_c, 1, 69, 127
1, 111336, Note_off_c, 1, 61, 0
1, 111348, Note_off_c, 1, 69, 0
1, 111360, Note_on_c, 1, 62, 127
1, 111360, Note_on_c, 1, 57, 127
1, 111360, Note_on_c, 1, 45, 127
1, 111420, Note_on_c, 1, 69, 127
1, 111456, Note_off_c, 1, 62, 0
1, 111456, Note_off_c, 1, 57, 0
1, 111456, Note_off_c, 1, 45, 0
1, 111468, Note_off_c, 1, 69, 0
1, 111480, Note_on_c, 1, 74, 127
1, 111480, Note_on_c, 1, 65, 127
1, 111528, Note_off_c, 1, 74, 0
1, 111540, Note_on_c, 1, 69, 127
1, 111576, Note_off_c, 1, 65, 0
1, 111588, Note_off_c, 1, 69, 0
1, 111600, Note_on_c, 1, 74, 127
1, 111600, Note_on_c, 1, 62, 127
1, 111648, Note_off_c, 1, 74, 0
1, 111660, Note_on_c, 1, 69, 127
1, 111696, Note_off_c, 1, 62, 0
1, 111708, Note_off_c, 1, 69, 0
1, 111720, Note_on_c, 1, 77, 127
1, 111720, Note_on_c, 1, 57, 127
1, 111768, Note_off_c, 1, 77, 0
1, 111780, Note_on_c, 1, 69, 127
1, 111816, Note_off_c, 1, 57, 0
1, 111828, Note_off_c, 1, 69, 0
1, 111840, Note_on_c, 1, 57, 127
1, 111840, Note_on_c, 1, 62, 127
1, 111840, Note_on_c, 1, 45, 127
1, 111900, Note_on_c, 1, 69, 127
1, 111936, Note_off_c, 1, 57, 0
1, 111936, Note_off_c, 1, 62, 0
1, 111936, Note_off_c, 1, 45, 0
1, 111948, Note_off_c, 1, 69, 0
1, 111960, Note_on_c, 1, 74, 127
1, 111960, Note_on_c, 1, 65, 127
1, 112008, Note_off_c, 1, 74, 0
1, 112020, Note_on_c, 1, 69, 127
1, 112056, Note_off_c, 1, 65, 0
1, 112068, Note_off_c, 1, 69, 0
1, 112080, Note_on_c, 1, 74, 127
1, 112080, Note_on_c, 1, 62, 127
1, 112128, Note_off_c, 1, 74, 0
1, 112140, Note_on_c, 1, 69, 127
1, 112176, Note_off_c, 1, 62, 0
1, 112188, Note_off_c, 1, 69, 0
1, 112200, Note_on_c, 1, 77, 127
1, 112200, Note_on_c, 1, 57, 127
1, 112248, Note_off_c, 1, 77, 0
1, 112260, Note_on_c, 1, 69, 127
1, 112296, Note_off_c, 1, 57, 0
1, 112308, Note_off_c, 1, 69, 0
1, 112320, Note_on_c, 1, 59, 127
1, 112320, Note_on_c, 1, 53, 127
1, 112320, Note_on_c, 1, 45, 127
1, 112380, Note_on_c, 1, 68, 127
1, 112416, Note_off_c, 1, 59, 0
1, 112416, Note_off_c, 1, 53, 0
1, 112416, Note_off_c, 1, 45, 0
1, 112428, Note_off_c, 1, 68, 0
1, 112440, Note_on_c, 1, 71, 127
1, 112440, Note_on_c, 1, 62, 127
1, 112488, Note_off_c, 1, 71, 0
1, 112500, Note_on_c, 1, 68, 127
1, 112536, Note_off_c, 1, 62, 0
1, 112548, Note_off_c, 1, 68, 0
1, 112560, Note_on_c, 1, 71, 127
1, 112560, Note_on_c, 1, 65, 127
1, 112608, Note_off_c, 1, 71, 0
1, 112620, Note_on_c, 1, 68, 127
1, 112656, Note_off_c, 1, 65, 0
1, 112668, Note_off_c, 1, 68, 0
1, 112680, Note_on_c, 1, 77, 127
1, 112680, Note_on_c, 1, 62, 127
1, 112728, Note_off_c, 1, 77, 0
1, 112740, Note_on_c, 1, 68, 127
1, 112776, Note_off_c, 1, 62, 0
1, 112788, Note_off_c, 1, 68, 0
1, 112800, Note_on_c, 1, 53, 127
1, 112800, Note_on_c, 1, 59, 127
1, 112800, Note_on_c, 1, 45, 127
1, 112860, Note_on_c, 1, 68, 127
1, 112896, Note_off_c, 1, 53, 0
1, 112896, Note_off_c, 1, 59, 0
1, 112896, Note_off_c, 1, 45, 0
1, 112908, Note_off_c, 1, 68, 0
1, 112920, Note_on_c, 1, 71, 127
1, 112920, Note_on_c, 1, 62, 127
1, 112968, Note_off_c, 1, 71, 0
1, 112980, Note_on_c, 1, 68, 127
1, 113016, Note_off_c, 1, 62, 0
1, 113028, Note_off_c, 1, 68, 0
1, 113040, Note_on_c, 1, 71, 127
1, 113040, Note_on_c, 1, 65, 127
1, 113088, Note_off_c, 1, 71, 0
1, 113100, Note_on_c, 1, 68, 127
1, 113136, Note_off_c, 1, 65, 0
1, 113148, Note_off_c, 1, 68, 0
1, 113160, Note_on_c, 1, 77, 127
1, 113160, Note_on_c, 1, 56, 127
1, 113208, Note_off_c, 1, 77, 0
1, 113220, Note_on_c, 1, 74, 127
1, 113256, Note_off_c, 1, 56, 0
1, 113268, Note_off_c, 1, 74, 0
1, 113280, Note_on_c, 1, 74, 127
1, 113280, Note_on_c, 1, 52, 127
1, 113280, Note_on_c, 1, 57, 127
1, 113280, Note_on_c, 1, 45, 127
1, 113328, Note_off_c, 1, 74, 0
1, 113340, Note_on_c, 1, 73, 127
1, 113376, Note_off_c, 1, 52, 0
1, 113376, Note_off_c, 1, 57, 0
1, 113376, Note_off_c, 1, 45, 0
1, 113388, Note_off_c, 1, 73, 0
1, 113400, Note_on_c, 1, 71, 127
1, 113448, Note_off_c, 1, 71, 0
1, 113460, Note_on_c, 1, 69, 127
1, 113508, Note_off_c, 1, 69, 0
1, 113520, Note_on_c, 1, 81, 127
1, 113616, Note_off_c, 1, 81, 0
1, 113640, Note_on_c, 1, 81, 127
1, 113640, Note_on_c, 1, 57, 127
1, 113640, Note_on_c, 1, 62, 127
1, 113640, Note_on_c, 1, 53, 127
1, 113736, Note_off_c, 1, 81, 0
1, 113736, Note_off_c, 1, 57, 0
1, 113736, Note_off_c, 1, 62, 0
1, 113736, Note_off_c, 1, 53, 0
1, 113760, Note_on_c, 1, 81, 127
1, 113760, Note_on_c, 1, 58, 127
1, 113760, Note_on_c, 1, 62, 127
1, 113760, Note_on_c, 1, 46, 127
1, 113856, Note_off_c, 1, 81, 0
1, 113856, Note_off_c, 1, 58, 0
1, 113856, Note_off_c, 1, 62, 0
1, 113856, Note_off_c, 1, 46, 0
1, 113880, Note_on_c, 1, 79, 127
1, 113880, Note_on_c, 1, 74, 127
1, 113928, Note_off_c, 1, 79, 0
1, 113940, Note_on_c, 1, 77, 127
1, 113976, Note_off_c, 1, 74, 0
1, 113988, Note_off_c, 1, 77, 0
1, 114000, Note_on_c, 1, 79, 127
1, 114000, Note_on_c, 1, 74, 127
1, 114096, Note_off_c, 1, 79, 0
1, 114096, Note_off_c, 1, 74, 0
1, 114120, Note_on_c, 1, 73, 127
1, 114120, Note_on_c, 1, 79, 127
1, 114120, Note_on_c, 1, 64, 127
1, 114120, Note_on_c, 1, 55, 127
1, 114120, Note_on_c, 1, 52, 127
1, 114168, Note_off_c, 1, 73, 0
1, 114180, Note_on_c, 1, 71, 127
1, 114216, Note_off_c, 1, 79, 0
1, 114216, Note_off_c, 1, 64, 0
1, 114216, Note_off_c, 1, 55, 0
1, 114216, Note_off_c, 1, 52, 0
1, 114228, Note_off_c, 1, 71, 0
1, 114240, Note_on_c, 1, 79, 127
1, 114240, Note_on_c, 1, 73, 127
1, 114240, Note_on_c, 1, 57, 127
1, 114240, Note_on_c, 1, 64, 127
1, 114240, Note_on_c, 1, 45, 127
1, 114336, Note_off_c, 1, 79, 0
1, 114336, Note_off_c, 1, 73, 0
1, 114336, Note_off_c, 1, 57, 0
1, 114336, Note_off_c, 1, 64, 0
1, 114336, Note_off_c, 1, 45, 0
1, 114360, Note_on_c, 1, 77, 127
1, 114360, Note_on_c, 1, 73, 127
1, 114360, Note_on_c, 1, 69, 127
1, 114408, Note_off_c, 1, 77, 0
1, 114420, Note_on_c, 1, 76, 127
1, 114456, Note_off_c, 1, 73, 0
1, 114456, Note_off_c, 1, 69, 0
1, 114468, Note_off_c, 1, 76, 0
1, 114480, Note_on_c, 1, 77, 127
1, 114480, Note_on_c, 1, 74, 127
1, 114480, Note_on_c, 1, 69, 127
1, 114576, Note_off_c, 1, 77, 0
1, 114576, Note_off_c, 1, 74, 0
1, 114576, Note_off_c, 1, 69, 0
1, 114600, Note_on_c, 1, 74, 127
1, 114600, Note_on_c, 1, 77, 127
1, 114600, Note_on_c, 1, 67, 127
1, 114600, Note_on_c, 1, 57, 127
1, 114600, Note_on_c, 1, 50, 127
1, 114648, Note_off_c, 1, 67, 0
1, 114660, Note_on_c, 1, 65, 127
1, 114696, Note_off_c, 1, 74, 0
1, 114696, Note_off_c, 1, 57, 0
1, 114696, Note_off_c, 1, 50, 0
1, 114708, Note_off_c, 1, 65, 0
1, 114713, Note_off_c, 1, 77, 0
1, 114720, Note_on_c, 1, 77, 127
1, 114720, Note_on_c, 1, 74, 127
1, 114720, Note_on_c, 1, 62, 127
1, 114720, Note_on_c, 1, 67, 127
1, 114720, Note_on_c, 1, 46, 127
1, 114768, Note_off_c, 1, 77, 0
1, 114780, Note_on_c, 1, 79, 127
1, 114816, Note_off_c, 1, 74, 0
1, 114816, Note_off_c, 1, 62, 0
1, 114816, Note_off_c, 1, 67, 0
1, 114816, Note_off_c, 1, 46, 0
1, 114828, Note_off_c, 1, 79, 0
1, 114840, Note_on_c, 1, 77, 127
1, 114888, Note_off_c, 1, 77, 0
1, 114900, Note_on_c, 1, 76, 127
1, 114948, Note_off_c, 1, 76, 0
1, 114960, Note_on_c, 1, 76, 127
1, 114960, Note_on_c, 1, 68, 127
1, 114960, Note_on_c, 1, 62, 127
1, 114960, Note_on_c, 1, 59, 127
1, 114960, Note_on_c, 1, 47, 127
1, 115008, Note_off_c, 1, 76, 0
1, 115020, Note_on_c, 1, 77, 127
1, 115056, Note_off_c, 1, 68, 0
1, 115056, Note_off_c, 1, 62, 0
1, 115056, Note_off_c, 1, 59, 0
1, 115056, Note_off_c, 1, 47, 0
1, 115068, Note_off_c, 1, 77, 0
1, 115080, Note_on_c, 1, 76, 127
1, 115128, Note_off_c, 1, 76, 0
1, 115140, Note_on_c, 1, 74, 127
1, 115188, Note_off_c, 1, 74, 0
1, 115200, Note_on_c, 1, 73, 127
1, 115200, Note_on_c, 1, 67, 127
1, 115200, Note_on_c, 1, 64, 127
1, 115200, Note_on_c, 1, 52, 127
1, 115200, Note_on_c, 1, 45, 127
1, 115248, Note_off_c, 1, 73, 0
1, 115260, Note_on_c, 1, 76, 127
1, 115296, Note_off_c, 1, 67, 0
1, 115296, Note_off_c, 1, 64, 0
1, 115296, Note_off_c, 1, 52, 0
1, 115296, Note_off_c, 1, 45, 0
1, 115308, Note_off_c, 1, 76, 0
1, 115320, Note_on_c, 1, 65, 127
1, 115320, Note_on_c, 1, 74, 127
1, 115368, Note_off_c, 1, 65, 0
1, 115380, Note_on_c, 1, 64, 127
1, 115428, Note_off_c, 1, 64, 0
1, 115488, Note_off_c, 1, 74, 0
1, 115500, Note_on_c, 1, 72, 127
1, 115548, Note_off_c, 1, 72, 0
1, 115560, Note_on_c, 1, 71, 127
1, 115560, Note_on_c, 1, 65, 127
1, 115560, Note_on_c, 1, 62, 127
1, 115560, Note_on_c, 1, 53, 127
1, 115560, Note_on_c, 1, 38, 127
1, 115608, Note_off_c, 1, 71, 0
1, 115620, Note_on_c, 1, 69, 127
1, 115656, Note_off_c, 1, 65, 0
1, 115656, Note_off_c, 1, 62, 0
1, 115656, Note_off_c, 1, 53, 0
1, 115656, Note_off_c, 1, 38, 0
1, 115668, Note_off_c, 1, 69, 0
1, 115680, Note_on_c, 1, 71, 127
1, 115680, Note_on_c, 1, 65, 127
1, 115680, Note_on_c, 1, 55, 127
1, 115680, Note_on_c, 1, 62, 127
1, 115680, Note_on_c, 1, 43, 127
1, 115728, Note_off_c, 1, 71, 0
1, 115740, Note_on_c, 1, 79, 127
1, 115776, Note_off_c, 1, 65, 0
1, 115776, Note_off_c, 1, 55, 0
1, 115776, Note_off_c, 1, 62, 0
1, 115776, Note_off_c, 1, 43, 0
1, 115788, Note_off_c, 1, 79, 0
1, 115800, Note_on_c, 1, 64, 127
1, 115800, Note_on_c, 1, 72, 127
1, 115848, Note_off_c, 1, 64, 0
1, 115860, Note_on_c, 1, 62, 127
1, 115908, Note_off_c, 1, 62, 0
1, 115968, Note_off_c, 1, 72, 0
1, 115980, Note_on_c, 1, 70, 127
1, 116028, Note_off_c, 1, 70, 0
1, 116040, Note_on_c, 1, 69, 127
1, 116040, Note_on_c, 1, 64, 127
1, 116040, Note_on_c, 1, 55, 127
1, 116040, Note_on_c, 1, 60, 127
1, 116040, Note_on_c, 1, 36, 127
1, 116088, Note_off_c, 1, 69, 0
1, 116100, Note_on_c, 1, 67, 127
1, 116136, Note_off_c, 1, 64, 0
1, 116136, Note_off_c, 1, 55, 0
1, 116136, Note_off_c, 1, 60, 0
1, 116136, Note_off_c, 1, 36, 0
1, 116148, Note_off_c, 1, 67, 0
1, 116160, Note_on_c, 1, 69, 127
1, 116160, Note_on_c, 1, 63, 127
1, 116160, Note_on_c, 1, 53, 127
1, 116160, Note_on_c, 1, 60, 127
1, 116160, Note_on_c, 1, 41, 127
1, 116208, Note_off_c, 1, 69, 0
1, 116220, Note_on_c, 1, 65, 127
1, 116256, Note_off_c, 1, 63, 0
1, 116256, Note_off_c, 1, 53, 0
1, 116256, Note_off_c, 1, 60, 0
1, 116256, Note_off_c, 1, 41, 0
1, 116268, Note_off_c, 1, 65, 0
1, 116280, Note_on_c, 1, 70, 127
1, 116280, Note_on_c, 1, 62, 127
1, 116328, Note_off_c, 1, 70, 0
1, 116328, Note_off_c, 1, 62, 0
1, 116340, Note_on_c, 1, 69, 127
1, 116340, Note_on_c, 1, 60, 127
1, 116388, Note_off_c, 1, 69, 0
1, 116388, Note_off_c, 1, 60, 0
1, 116400, Note_on_c, 1, 70, 127
1, 116400, Note_on_c, 1, 62, 127
1, 116448, Note_off_c, 1, 70, 0
1, 116460, Note_on_c, 1, 74, 127
1, 116496, Note_off_c, 1, 62, 0
1, 116508, Note_off_c, 1, 74, 0
1, 116520, Note_on_c, 1, 77, 127
1, 116520, Note_on_c, 1, 62, 127
1, 116520, Note_on_c, 1, 53, 127
1, 116520, Note_on_c, 1, 58, 127
1, 116520, Note_on_c, 1, 46, 127
1, 116568, Note_off_c, 1, 77, 0
1, 116580, Note_on_c, 1, 69, 127
1, 116616, Note_off_c, 1, 62, 0
1, 116616, Note_off_c, 1, 53, 0
1, 116616, Note_off_c, 1, 58, 0
1, 116616, Note_off_c, 1, 46, 0
1, 116628, Note_off_c, 1, 69, 0
1, 116640, Note_on_c, 1, 68, 127
1, 116640, Note_on_c, 1, 62, 127
1, 116640, Note_on_c, 1, 52, 127
1, 116640, Note_on_c, 1, 59, 127
1, 116640, Note_on_c, 1, 40, 127
1, 116688, Note_off_c, 1, 68, 0
1, 116700, Note_on_c, 1, 71, 127
1, 116736, Note_off_c, 1, 52, 0
1, 116736, Note_off_c, 1, 59, 0
1, 116736, Note_off_c, 1, 40, 0
1, 116748, Note_off_c, 1, 71, 0
1, 116753, Note_off_c, 1, 62, 0
1, 116760, Note_on_c, 1, 60, 127
1, 116760, Note_on_c, 1, 76, 127
1, 116808, Note_off_c, 1, 60, 0
1, 116808, Note_off_c, 1, 76, 0
1, 116820, Note_on_c, 1, 68, 127
1, 116820, Note_on_c, 1, 59, 127
1, 116868, Note_off_c, 1, 68, 0
1, 116868, Note_off_c, 1, 59, 0
1, 116880, Note_on_c, 1, 69, 127
1, 116880, Note_on_c, 1, 60, 127
1, 116928, Note_off_c, 1, 69, 0
1, 116940, Note_on_c, 1, 72, 127
1, 116976, Note_off_c, 1, 60, 0
1, 116988, Note_off_c, 1, 72, 0
1, 117000, Note_on_c, 1, 76, 127
1, 117000, Note_on_c, 1, 60, 127
1, 117000, Note_on_c, 1, 52, 127
1, 117000, Note_on_c, 1, 57, 127
1, 117000, Note_on_c, 1, 45, 127
1, 117048, Note_off_c, 1, 76, 0
1, 117060, Note_on_c, 1, 67, 127
1, 117096, Note_off_c, 1, 52, 0
1, 117096, Note_off_c, 1, 57, 0
1, 117096, Note_off_c, 1, 45, 0
1, 117108, Note_off_c, 1, 67, 0
1, 117113, Note_off_c, 1, 60, 0
1, 117120, Note_on_c, 1, 66, 127
1, 117120, Note_on_c, 1, 60, 127
1, 117120, Note_on_c, 1, 50, 127
1, 117120, Note_on_c, 1, 57, 127
1, 117120, Note_on_c, 1, 38, 127
1, 117168, Note_off_c, 1, 66, 0
1, 117180, Note_on_c, 1, 75, 127
1, 117216, Note_off_c, 1, 60, 0
1, 117216, Note_off_c, 1, 50, 0
1, 117216, Note_off_c, 1, 57, 0
1, 117216, Note_off_c, 1, 38, 0
1, 117228, Note_off_c, 1, 75, 0
1, 117240, Note_on_c, 1, 74, 127
1, 117288, Note_off_c, 1, 74, 0
1, 117300, Note_on_c, 1, 72, 127
1, 117348, Note_off_c, 1, 72, 0
1, 117360, Note_on_c, 1, 74, 127
1, 117408, Note_off_c, 1, 74, 0
1, 117420, Note_on_c, 1, 69, 127
1, 117468, Note_off_c, 1, 69, 0
1, 117480, Note_on_c, 1, 70, 127
1, 117528, Note_off_c, 1, 70, 0
1, 117540, Note_on_c, 1, 65, 127
1, 117588, Note_off_c, 1, 65, 0
1, 117600, Note_on_c, 1, 67, 127
1, 117600, Note_on_c, 1, 58, 127
1, 117600, Note_on_c, 1, 55, 127
1, 117600, Note_on_c, 1, 50, 127
1, 117600, Note_on_c, 1, 38, 127
1, 117648, Note_off_c, 1, 67, 0
1, 117660, Note_on_c, 1, 75, 127
1, 117696, Note_off_c, 1, 58, 0
1, 117696, Note_off_c, 1, 55, 0
1, 117696, Note_off_c, 1, 50, 0
1, 117696, Note_off_c, 1, 38, 0
1, 117708, Note_off_c, 1, 75, 0
1, 117720, Note_on_c, 1, 74, 127
1, 117768, Note_off_c, 1, 74, 0
1, 117780, Note_on_c, 1, 72, 127
1, 117828, Note_off_c, 1, 72, 0
1, 117840, Note_on_c, 1, 74, 127
1, 117888, Note_off_c, 1, 74, 0
1, 117900, Note_on_c, 1, 69, 127
1, 117948, Note_off_c, 1, 69, 0
1, 117960, Note_on_c, 1, 70, 127
1, 118008, Note_off_c, 1, 70, 0
1, 118020, Note_on_c, 1, 67, 127
1, 118068, Note_off_c, 1, 67, 0
1, 118080, Note_on_c, 1, 61, 127
1, 118080, Note_on_c, 1, 55, 127
1, 118080, Note_on_c, 1, 46, 127
1, 118080, Note_on_c, 1, 40, 127
1, 118128, Note_off_c, 1, 61, 0
1, 118140, Note_on_c, 1, 64, 127
1, 118176, Note_off_c, 1, 55, 0
1, 118176, Note_off_c, 1, 46, 0
1, 118176, Note_off_c, 1, 40, 0
1, 118188, Note_off_c, 1, 64, 0
1, 118200, Note_on_c, 1, 67, 127
1, 118248, Note_off_c, 1, 67, 0
1, 118260, Note_on_c, 1, 70, 127
1, 118308, Note_off_c, 1, 70, 0
1, 118320, Note_on_c, 1, 69, 127
1, 118368, Note_off_c, 1, 69, 0
1, 118380, Note_on_c, 1, 67, 127
1, 118428, Note_off_c, 1, 67, 0
1, 118440, Note_on_c, 1, 76, 127
1, 118488, Note_off_c, 1, 76, 0
1, 118500, Note_on_c, 1, 67, 127
1, 118548, Note_off_c, 1, 67, 0
1, 118560, Note_on_c, 1, 69, 127
1, 118608, Note_off_c, 1, 69, 0
1, 118620, Note_on_c, 1, 70, 127
1, 118668, Note_off_c, 1, 70, 0
1, 118680, Note_on_c, 1, 64, 127
1, 118728, Note_off_c, 1, 64, 0
1, 118740, Note_on_c, 1, 65, 127
1, 118788, Note_off_c, 1, 65, 0
1, 118800, Note_on_c, 1, 67, 127
1, 118848, Note_off_c, 1, 67, 0
1, 118860, Note_on_c, 1, 61, 127
1, 118908, Note_off_c, 1, 61, 0
1, 118920, Note_on_c, 1, 62, 127
1, 118968, Note_off_c, 1, 62, 0
1, 118980, Note_on_c, 1, 64, 127
1, 119028, Note_off_c, 1, 64, 0
1, 119040, Note_on_c, 1, 57, 127
1, 119040, Note_on_c, 1, 50, 127
1, 119040, Note_on_c, 1, 45, 127
1, 119040, Note_on_c, 1, 41, 127
1, 119136, Note_off_c, 1, 57, 0
1, 119136, Note_off_c, 1, 50, 0
1, 119136, Note_off_c, 1, 45, 0
1, 119136, Note_off_c, 1, 41, 0
1, 119160, Note_on_c, 1, 69, 127
1, 119256, Note_off_c, 1, 69, 0
1, 119280, Note_on_c, 1, 69, 127
1, 119280, Note_on_c, 1, 60, 127
1, 119280, Note_on_c, 1, 50, 127
1, 119280, Note_on_c, 1, 57, 127
1, 119280, Note_on_c, 1, 42, 127
1, 119376, Note_off_c, 1, 69, 0
1, 119376, Note_off_c, 1, 60, 0
1, 119376, Note_off_c, 1, 50, 0
1, 119376, Note_off_c, 1, 57, 0
1, 119376, Note_off_c, 1, 42, 0
1, 119400, Note_on_c, 1, 69, 127
1, 119496, Note_off_c, 1, 69, 0
1, 119520, Note_on_c, 1, 69, 127
1, 119520, Note_on_c, 1, 58, 127
1, 119520, Note_on_c, 1, 50, 127
1, 119520, Note_on_c, 1, 43, 127
1, 119616, Note_off_c, 1, 69, 0
1, 119616, Note_off_c, 1, 58, 0
1, 119616, Note_off_c, 1, 50, 0
1, 119616, Note_off_c, 1, 43, 0
1, 119640, Note_on_c, 1, 58, 127
1, 119640, Note_on_c, 1, 67, 127
1, 119688, Note_off_c, 1, 58, 0
1, 119688, Note_off_c, 1, 67, 0
1, 119700, Note_on_c, 1, 66, 127
1, 119700, Note_on_c, 1, 57, 127
1, 119748, Note_off_c, 1, 66, 0
1, 119748, Note_off_c, 1, 57, 0
1, 119760, Note_on_c, 1, 58, 127
1, 119760, Note_on_c, 1, 67, 127
1, 119760, Note_on_c, 1, 55, 127
1, 119760, Note_on_c, 1, 52, 127
1, 119856, Note_off_c, 1, 58, 0
1, 119856, Note_off_c, 1, 67, 0
1, 119856, Note_off_c, 1, 55, 0
1, 119856, Note_off_c, 1, 52, 0
1, 119880, Note_on_c, 1, 76, 127
1, 119928, Note_off_c, 1, 76, 0
1, 119940, Note_on_c, 1, 73, 127
1, 119988, Note_off_c, 1, 73, 0
1, 120000, Note_on_c, 1, 57, 127
1, 120000, Note_on_c, 1, 67, 127
1, 120000, Note_on_c, 1, 52, 127
1, 120000, Note_on_c, 1, 49, 127
1, 120096, Note_off_c, 1, 57, 0
1, 120096, Note_off_c, 1, 67, 0
1, 120096, Note_off_c, 1, 52, 0
1, 120096, Note_off_c, 1, 49, 0
1, 120120, Note_on_c, 1, 64, 127
1, 120120, Note_on_c, 1, 67, 127
1, 120168, Note_off_c, 1, 64, 0
1, 120168, Note_off_c, 1, 67, 0
1, 120180, Note_on_c, 1, 62, 127
1, 120180, Note_on_c, 1, 65, 127
1, 120228, Note_off_c, 1, 62, 0
1, 120228, Note_off_c, 1, 65, 0
1, 120240, Note_on_c, 1, 64, 127
1, 120240, Note_on_c, 1, 67, 127
1, 120240, Note_on_c, 1, 61, 127
1, 120240, Note_on_c, 1, 52, 127
1, 120240, Note_on_c, 1, 45, 127
1, 120336, Note_off_c, 1, 64, 0
1, 120336, Note_off_c, 1, 67, 0
1, 120336, Note_off_c, 1, 61, 0
1, 120336, Note_off_c, 1, 52, 0
1, 120336, Note_off_c, 1, 45, 0
1, 120360, Note_on_c, 1, 76, 127
1, 120408, Note_off_c, 1, 76, 0
1, 120420, Note_on_c, 1, 73, 127
1, 120468, Note_off_c, 1, 73, 0
1, 120480, Note_on_c, 1, 65, 127
1, 120480, Note_on_c, 1, 64, 127
1, 120480, Note_on_c, 1, 57, 127
1, 120480, Note_on_c, 1, 53, 127
1, 120480, Note_on_c, 1, 50, 127
1, 120576, Note_off_c, 1, 65, 0
1, 120576, Note_off_c, 1, 64, 0
1, 120576, Note_off_c, 1, 57, 0
1, 120576, Note_off_c, 1, 53, 0
1, 120576, Note_off_c, 1, 50, 0
1, 120600, Note_on_c, 1, 65, 127
1, 120600, Note_on_c, 1, 62, 127
1, 120648, Note_off_c, 1, 65, 0
1, 120648, Note_off_c, 1, 62, 0
1, 120660, Note_on_c, 1, 64, 127
1, 120660, Note_on_c, 1, 61, 127
1, 120708, Note_off_c, 1, 64, 0
1, 120708, Note_off_c, 1, 61, 0
1, 120720, Note_on_c, 1, 65, 127
1, 120720, Note_on_c, 1, 62, 127
1, 120720, Note_on_c, 1, 53, 127
1, 120720, Note_on_c, 1, 57, 127
1, 120720, Note_on_c, 1, 48, 127
1, 120768, Note_off_c, 1, 65, 0
1, 120780, Note_on_c, 1, 69, 127
1, 120816, Note_off_c, 1, 62, 0
1, 120816, Note_off_c, 1, 53, 0
1, 120816, Note_off_c, 1, 57, 0
1, 120816, Note_off_c, 1, 48, 0
1, 120828, Note_off_c, 1, 69, 0
1, 120840, Note_on_c, 1, 74, 127
1, 120888, Note_off_c, 1, 74, 0
1, 120900, Note_on_c, 1, 76, 127
1, 120948, Note_off_c, 1, 76, 0
1, 120960, Note_on_c, 1, 74, 127
1, 120960, Note_on_c, 1, 77, 127
1, 120960, Note_on_c, 1, 53, 127
1, 120960, Note_on_c, 1, 62, 127
1, 120960, Note_on_c, 1, 59, 127
1, 120960, Note_on_c, 1, 50, 127
1, 120960, Note_on_c, 1, 47, 127
1, 121056, Note_off_c, 1, 74, 0
1, 121056, Note_off_c, 1, 53, 0
1, 121056, Note_off_c, 1, 62, 0
1, 121056, Note_off_c, 1, 59, 0
1, 121056, Note_off_c, 1, 50, 0
1, 121056, Note_off_c, 1, 47, 0
1, 121104, Note_off_c, 1, 77, 0
1, 121140, Note_on_c, 1, 76, 127
1, 121188, Note_off_c, 1, 76, 0
1, 121200, Note_on_c, 1, 74, 127
1, 121248, Note_off_c, 1, 74, 0
1, 121260, Note_on_c, 1, 73, 127
1, 121308, Note_off_c, 1, 73, 0
1, 121320, Note_on_c, 1, 74, 127
1, 121320, Note_on_c, 1, 67, 127
1, 121320, Note_on_c, 1, 62, 127
1, 121320, Note_on_c, 1, 55, 127
1, 121320, Note_on_c, 1, 46, 127
1, 121368, Note_off_c, 1, 74, 0
1, 121380, Note_on_c, 1, 76, 127
1, 121416, Note_off_c, 1, 67, 0
1, 121416, Note_off_c, 1, 62, 0
1, 121416, Note_off_c, 1, 55, 0
1, 121416, Note_off_c, 1, 46, 0
1, 121428, Note_off_c, 1, 76, 0
1, 121440, Note_on_c, 1, 73, 127
1, 121440, Note_on_c, 1, 69, 127
1, 121440, Note_on_c, 1, 55, 127
1, 121440, Note_on_c, 1, 64, 127
1, 121440, Note_on_c, 1, 45, 127
1, 121536, Note_off_c, 1, 55, 0
1, 121536, Note_off_c, 1, 45, 0
1, 121560, Note_on_c, 1, 57, 127
1, 121632, Note_off_c, 1, 73, 0
1, 121632, Note_off_c, 1, 64, 0
1, 121656, Note_off_c, 1, 57, 0
1, 121680, Note_on_c, 1, 74, 127
1, 121680, Note_on_c, 1, 53, 127
1, 121680, Note_on_c, 1, 65, 127
1, 121728, Note_off_c, 1, 53, 0
1, 121740, Note_on_c, 1, 52, 127
1, 121788, Note_off_c, 1, 52, 0
1, 121860, Note_on_c, 1, 50, 127
1, 121872, Note_off_c, 1, 65, 0
1, 121908, Note_off_c, 1, 50, 0
1, 122112, Note_off_c, 1, 74, 0
1, 122400, Note_on_c, 1, 72, 127
1, 122400, Note_on_c, 1, 62, 127
1, 122400, Note_on_c, 1, 54, 127
1, 122496, Note_off_c, 1, 54, 0
1, 122592, Note_off_c, 1, 72, 0
1, 122640, Note_on_c, 1, 71, 127
1, 122688, Note_off_c, 1, 69, 0
1, 122760, Note_on_c, 1, 67, 127
1, 122784, Note_off_c, 1, 62, 0
1, 122808, Note_off_c, 1, 67, 0
1, 122820, Note_on_c, 1, 66, 127
1, 122832, Note_off_c, 1, 71, 0
1, 122868, Note_off_c, 1, 66, 0
1, 122880, Note_on_c, 1, 70, 127
1, 122880, Note_on_c, 1, 60, 127
1, 123000, Note_on_c, 1, 48, 127
1, 123072, Note_off_c, 1, 70, 0
1, 123096, Note_off_c, 1, 48, 0
1, 123168, Note_off_c, 1, 60, 0
1, 123240, Note_on_c, 1, 77, 127
1, 123240, Note_on_c, 1, 65, 127
1, 123240, Note_on_c, 1, 60, 127
1, 123240, Note_on_c, 1, 57, 127
1, 123240, Note_on_c, 1, 45, 127
1, 123336, Note_off_c, 1, 77, 0
1, 123336, Note_off_c, 1, 65, 0
1, 123336, Note_off_c, 1, 60, 0
1, 123336, Note_off_c, 1, 57, 0
1, 123336, Note_off_c, 1, 45, 0
1, 123360, Note_on_c, 1, 74, 127
1, 123360, Note_on_c, 1, 65, 127
1, 123360, Note_on_c, 1, 57, 127
1, 123360, Note_on_c, 1, 62, 127
1, 123360, Note_on_c, 1, 46, 127
1, 123456, Note_off_c, 1, 74, 0
1, 123456, Note_off_c, 1, 65, 0
1, 123456, Note_off_c, 1, 57, 0
1, 123456, Note_off_c, 1, 62, 0
1, 123456, Note_off_c, 1, 46, 0
1, 123480, Note_on_c, 1, 75, 127
1, 123528, Note_off_c, 1, 75, 0
1, 123540, Note_on_c, 1, 74, 127
1, 123588, Note_off_c, 1, 74, 0
1, 123600, Note_on_c, 1, 75, 127
1, 123648, Note_off_c, 1, 75, 0
1, 123660, Note_on_c, 1, 73, 127
1, 123708, Note_off_c, 1, 73, 0
1, 123720, Note_on_c, 1, 67, 127
1, 123720, Note_on_c, 1, 74, 127
1, 123720, Note_on_c, 1, 62, 127
1, 123720, Note_on_c, 1, 55, 127
1, 123720, Note_on_c, 1, 46, 127
1, 123816, Note_off_c, 1, 67, 0
1, 123816, Note_off_c, 1, 74, 0
1, 123816, Note_off_c, 1, 62, 0
1, 123816, Note_off_c, 1, 55, 0
1, 123816, Note_off_c, 1, 46, 0
1, 123840, Note_on_c, 1, 73, 127
1, 123840, Note_on_c, 1, 67, 127
1, 123840, Note_on_c, 1, 57, 127
1, 123840, Note_on_c, 1, 64, 127
1, 123840, Note_on_c, 1, 52, 127
1, 123840, Note_on_c, 1, 45, 127
1, 123936, Note_off_c, 1, 73, 0
1, 123936, Note_off_c, 1, 67, 0
1, 123936, Note_off_c, 1, 57, 0
1, 123936, Note_off_c, 1, 64, 0
1, 123936, Note_off_c, 1, 52, 0
1, 123936, Note_off_c, 1, 45, 0
1, 123960, Note_on_c, 1, 70, 127
1, 124008, Note_off_c, 1, 70, 0
1, 124020, Note_on_c, 1, 67, 127
1, 124068, Note_off_c, 1, 67, 0
1, 124080, Note_on_c, 1, 69, 127
1, 124176, Note_off_c, 1, 69, 0
1, 124200, Note_on_c, 1, 73, 127
1, 124200, Note_on_c, 1, 64, 127
1, 124200, Note_on_c, 1, 52, 127
1, 124200, Note_on_c, 1, 57, 127
1, 124200, Note_on_c, 1, 55, 127
1, 124200, Note_on_c, 1, 45, 127
1, 124296, Note_off_c, 1, 73, 0
1, 124296, Note_off_c, 1, 64, 0
1, 124296, Note_off_c, 1, 52, 0
1, 124296, Note_off_c, 1, 57, 0
1, 124296, Note_off_c, 1, 55, 0
1, 124296, Note_off_c, 1, 45, 0
1, 124320, Note_on_c, 1, 74, 127
1, 124320, Note_on_c, 1, 65, 127
1, 124320, Note_on_c, 1, 57, 127
1, 124320, Note_on_c, 1, 53, 127
1, 124320, Note_on_c, 1, 50, 127
1, 124320, Note_on_c, 1, 45, 127
1, 124416, Note_off_c, 1, 74, 0
1, 124416, Note_off_c, 1, 65, 0
1, 124416, Note_off_c, 1, 57, 0
1, 124416, Note_off_c, 1, 53, 0
1, 124416, Note_off_c, 1, 50, 0
1, 124416, Note_off_c, 1, 45, 0
1, 124440, Note_on_c, 1, 70, 127
1, 124440, Note_on_c, 1, 76, 127
1, 124488, Note_off_c, 1, 70, 0
1, 124500, Note_on_c, 1, 67, 127
1, 124536, Note_off_c, 1, 76, 0
1, 124548, Note_off_c, 1, 67, 0
1, 124560, Note_on_c, 1, 77, 127
1, 124560, Note_on_c, 1, 69, 127
1, 124656, Note_off_c, 1, 77, 0
1, 124656, Note_off_c, 1, 69, 0
1, 124680, Note_on_c, 1, 64, 127
1, 124680, Note_on_c, 1, 73, 127
1, 124680, Note_on_c, 1, 52, 127
1, 124680, Note_on_c, 1, 57, 127
1, 124680, Note_on_c, 1, 45, 127
1, 124776, Note_off_c, 1, 64, 0
1, 124776, Note_off_c, 1, 73, 0
1, 124776, Note_off_c, 1, 52, 0
1, 124776, Note_off_c, 1, 57, 0
1, 124776, Note_off_c, 1, 45, 0
1, 124800, Note_on_c, 1, 73, 127
1, 124800, Note_on_c, 1, 64, 127
1, 124800, Note_on_c, 1, 52, 127
1, 124800, Note_on_c, 1, 55, 127
1, 124800, Note_on_c, 1, 46, 127
1, 124896, Note_off_c, 1, 73, 0
1, 124896, Note_off_c, 1, 52, 0
1, 124896, Note_off_c, 1, 55, 0
1, 124896, Note_off_c, 1, 46, 0
1, 124913, Note_off_c, 1, 64, 0
1, 124920, Note_on_c, 1, 74, 127
1, 124920, Note_on_c, 1, 65, 127
1, 124920, Note_on_c, 1, 50, 127
1, 124920, Note_on_c, 1, 57, 127
1, 124920, Note_on_c, 1, 45, 127
1, 125016, Note_off_c, 1, 74, 0
1, 125016, Note_off_c, 1, 50, 0
1, 125016, Note_off_c, 1, 57, 0
1, 125016, Note_off_c, 1, 45, 0
1, 125033, Note_off_c, 1, 65, 0
1, 125040, Note_on_c, 1, 74, 127
1, 125040, Note_on_c, 1, 65, 127
1, 125040, Note_on_c, 1, 50, 127
1, 125040, Note_on_c, 1, 57, 127
1, 125040, Note_on_c, 1, 45, 127
1, 125136, Note_off_c, 1, 74, 0
1, 125136, Note_off_c, 1, 50, 0
1, 125136, Note_off_c, 1, 57, 0
1, 125136, Note_off_c, 1, 45, 0
1, 125153, Note_off_c, 1, 65, 0
1, 125160, Note_on_c, 1, 64, 127
1, 125160, Note_on_c, 1, 74, 127
1, 125160, Note_on_c, 1, 59, 127
1, 125160, Note_on_c, 1, 47, 127
1, 125160, Note_on_c, 1, 44, 127
1, 125256, Note_off_c, 1, 64, 0
1, 125256, Note_off_c, 1, 74, 0
1, 125256, Note_off_c, 1, 59, 0
1, 125256, Note_off_c, 1, 47, 0
1, 125256, Note_off_c, 1, 44, 0
1, 125280, Note_on_c, 1, 65, 127
1, 125280, Note_on_c, 1, 74, 127
1, 125280, Note_on_c, 1, 53, 127
1, 125280, Note_on_c, 1, 57, 127
1, 125280, Note_on_c, 1, 45, 127
1, 125400, Note_on_c, 1, 50, 127
1, 125424, Note_off_c, 1, 65, 0
1, 125424, Note_off_c, 1, 74, 0
1, 125460, Note_on_c, 1, 67, 127
1, 125460, Note_on_c, 1, 76, 127
1, 125496, Note_off_c, 1, 50, 0
1, 125508, Note_off_c, 1, 67, 0
1, 125508, Note_off_c, 1, 76, 0
1, 125520, Note_on_c, 1, 73, 127
1, 125520, Note_on_c, 1, 64, 127
1, 125640, Note_on_c, 1, 55, 127
1, 125664, Note_off_c, 1, 45, 0
1, 125664, Note_off_c, 1, 73, 0
1, 125712, Note_off_c, 1, 64, 0
1, 125736, Note_off_c, 1, 55, 0
1, 125760, Note_on_c, 1, 38, 127
1, 125820, Note_on_c, 1, 62, 127
1, 125856, Note_off_c, 1, 53, 0
1, 125856, Note_off_c, 1, 57, 0
1, 125856, Note_off_c, 1, 38, 0
1, 125868, Note_off_c, 1, 62, 0
1, 125880, Note_on_c, 1, 65, 127
1, 125928, Note_off_c, 1, 65, 0
1, 125940, Note_on_c, 1, 69, 127
1, 125988, Note_off_c, 1, 69, 0
1, 126000, Note_on_c, 1, 74, 127
1, 126000, Note_on_c, 1, 57, 127
1, 126000, Note_on_c, 1, 53, 127
1, 126000, Note_on_c, 1, 41, 127
1, 126048, Note_off_c, 1, 74, 0
1, 126060, Note_on_c, 1, 69, 127
1, 126096, Note_off_c, 1, 57, 0
1, 126096, Note_off_c, 1, 53, 0
1, 126096, Note_off_c, 1, 41, 0
1, 126108, Note_off_c, 1, 69, 0
1, 126120, Note_on_c, 1, 65, 127
1, 126168, Note_off_c, 1, 65, 0
1, 126180, Note_on_c, 1, 62, 127
1, 126228, Note_off_c, 1, 62, 0
1, 126240, Note_on_c, 1, 64, 127
1, 126240, Note_on_c, 1, 55, 127
1, 126240, Note_on_c, 1, 52, 127
1, 126240, Note_on_c, 1, 43, 127
1, 126288, Note_off_c, 1, 64, 0
1, 126300, Note_on_c, 1, 74, 127
1, 126336, Note_off_c, 1, 55, 0
1, 126336, Note_off_c, 1, 52, 0
1, 126336, Note_off_c, 1, 43, 0
1, 126348, Note_off_c, 1, 74, 0
1, 126360, Note_on_c, 1, 72, 127
1, 126408, Note_off_c, 1, 72, 0
1, 126420, Note_on_c, 1, 70, 127
1, 126468, Note_off_c, 1, 70, 0
1, 126480, Note_on_c, 1, 72, 127
1, 126480, Note_on_c, 1, 54, 127
1, 126480, Note_on_c, 1, 57, 127
1, 126480, Note_on_c, 1, 38, 127
1, 126528, Note_off_c, 1, 72, 0
1, 126540, Note_on_c, 1, 69, 127
1, 126576, Note_off_c, 1, 54, 0
1, 126576, Note_off_c, 1, 57, 0
1, 126576, Note_off_c, 1, 38, 0
1, 126588, Note_off_c, 1, 69, 0
1, 126600, Note_on_c, 1, 66, 127
1, 126648, Note_off_c, 1, 66, 0
1, 126660, Note_on_c, 1, 62, 127
1, 126708, Note_off_c, 1, 62, 0
1, 126720, Note_on_c, 1, 55, 127
1, 126720, Note_on_c, 1, 58, 127
1, 126720, Note_on_c, 1, 38, 127
1, 126780, Note_on_c, 1, 62, 127
1, 126816, Note_off_c, 1, 55, 0
1, 126816, Note_off_c, 1, 58, 0
1, 126816, Note_off_c, 1, 38, 0
1, 126828, Note_off_c, 1, 62, 0
1, 126840, Note_on_c, 1, 67, 127
1, 126888, Note_off_c, 1, 67, 0
1, 126900, Note_on_c, 1, 69, 127
1, 126948, Note_off_c, 1, 69, 0
1, 126960, Note_on_c, 1, 70, 127
1, 126960, Note_on_c, 1, 53, 127
1, 126960, Note_on_c, 1, 62, 127
1, 127008, Note_off_c, 1, 70, 0
1, 127020, Note_on_c, 1, 67, 127
1, 127056, Note_off_c, 1, 53, 0
1, 127056, Note_off_c, 1, 62, 0
1, 127068, Note_off_c, 1, 67, 0
1, 127080, Note_on_c, 1, 63, 127
1, 127128, Note_off_c, 1, 63, 0
1, 127140, Note_on_c, 1, 62, 127
1, 127188, Note_off_c, 1, 62, 0
1, 127200, Note_on_c, 1, 61, 127
1, 127200, Note_on_c, 1, 55, 127
1, 127200, Note_on_c, 1, 52, 127
1, 127248, Note_off_c, 1, 61, 0
1, 127260, Note_on_c, 1, 70, 127
1, 127296, Note_off_c, 1, 52, 0
1, 127308, Note_off_c, 1, 70, 0
1, 127320, Note_on_c, 1, 69, 127
1, 127368, Note_off_c, 1, 69, 0
1, 127380, Note_on_c, 1, 67, 127
1, 127428, Note_off_c, 1, 67, 0
1, 127440, Note_on_c, 1, 53, 127
1, 127440, Note_on_c, 1, 62, 127
1, 127500, Note_on_c, 1, 65, 127
1, 127536, Note_off_c, 1, 53, 0
1, 127536, Note_off_c, 1, 62, 0
1, 127548, Note_off_c, 1, 65, 0
1, 127620, Note_on_c, 1, 60, 127
1, 127668, Note_off_c, 1, 60, 0
1, 127680, Note_on_c, 1, 58, 127
1, 127680, Note_on_c, 1, 38, 127
1, 127776, Note_off_c, 1, 55, 0
1, 127776, Note_off_c, 1, 38, 0
1, 127788, Note_off_c, 1, 58, 0
1, 127800, Note_on_c, 1, 62, 127
1, 127848, Note_off_c, 1, 62, 0
1, 127860, Note_on_c, 1, 66, 127
1, 127908, Note_off_c, 1, 66, 0
1, 127920, Note_on_c, 1, 67, 127
1, 127920, Note_on_c, 1, 62, 127
1, 127920, Note_on_c, 1, 53, 127
1, 127968, Note_off_c, 1, 67, 0
1, 127980, Note_on_c, 1, 70, 127
1, 128016, Note_off_c, 1, 62, 0
1, 128016, Note_off_c, 1, 53, 0
1, 128028, Note_off_c, 1, 70, 0
1, 128040, Note_on_c, 1, 63, 127
1, 128088, Note_off_c, 1, 63, 0
1, 128100, Note_on_c, 1, 62, 127
1, 128148, Note_off_c, 1, 62, 0
1, 128160, Note_on_c, 1, 69, 127
1, 128160, Note_on_c, 1, 52, 127
1, 128160, Note_on_c, 1, 40, 127
1, 128208, Note_off_c, 1, 52, 0
1, 128220, Note_on_c, 1, 55, 127
1, 128256, Note_off_c, 1, 40, 0
1, 128268, Note_off_c, 1, 55, 0
1, 128280, Note_on_c, 1, 61, 127
1, 128328, Note_off_c, 1, 61, 0
1, 128340, Note_on_c, 1, 64, 127
1, 128352, Note_off_c, 1, 69, 0
1, 128388, Note_off_c, 1, 64, 0
1, 128400, Note_on_c, 1, 67, 127
1, 128448, Note_off_c, 1, 67, 0
1, 128460, Note_on_c, 1, 70, 127
1, 128508, Note_off_c, 1, 70, 0
1, 128520, Note_on_c, 1, 73, 127
1, 128568, Note_off_c, 1, 73, 0
1, 128580, Note_on_c, 1, 76, 127
1, 128628, Note_off_c, 1, 76, 0
1, 128640, Note_on_c, 1, 53, 127
1, 128640, Note_on_c, 1, 41, 127
1, 128688, Note_off_c, 1, 53, 0
1, 128700, Note_on_c, 1, 57, 127
1, 128736, Note_off_c, 1, 41, 0
1, 128748, Note_off_c, 1, 57, 0
1, 128760, Note_on_c, 1, 62, 127
1, 128808, Note_off_c, 1, 62, 0
1, 128820, Note_on_c, 1, 65, 127
1, 128868, Note_off_c, 1, 65, 0
1, 128880, Note_on_c, 1, 69, 127
1, 128928, Note_off_c, 1, 69, 0
1, 128940, Note_on_c, 1, 73, 127
1, 128988, Note_off_c, 1, 73, 0
1, 129000, Note_on_c, 1, 74, 127
1, 129048, Note_off_c, 1, 74, 0
1, 129060, Note_on_c, 1, 77, 127
1, 129108, Note_off_c, 1, 77, 0
1, 129120, Note_on_c, 1, 55, 127
1, 129120, Note_on_c, 1, 43, 127
1, 129168, Note_off_c, 1, 55, 0
1, 129180, Note_on_c, 1, 58, 127
1, 129216, Note_off_c, 1, 43, 0
1, 129228, Note_off_c, 1, 58, 0
1, 129240, Note_on_c, 1, 62, 127
1, 129288, Note_off_c, 1, 62, 0
1, 129300, Note_on_c, 1, 67, 127
1, 129348, Note_off_c, 1, 67, 0
1, 129360, Note_on_c, 1, 70, 127
1, 129408, Note_off_c, 1, 70, 0
1, 129420, Note_on_c, 1, 74, 127
1, 129468, Note_off_c, 1, 74, 0
1, 129480, Note_on_c, 1, 76, 127
1, 129528, Note_off_c, 1, 76, 0
1, 129540, Note_on_c, 1, 79, 127
1, 129588, Note_off_c, 1, 79, 0
1, 129600, Note_on_c, 1, 57, 127
1, 129600, Note_on_c, 1, 43, 127
1, 129660, Note_on_c, 1, 79, 127
1, 129696, Note_off_c, 1, 57, 0
1, 129696, Note_off_c, 1, 43, 0
1, 129708, Note_off_c, 1, 79, 0
1, 129720, Note_on_c, 1, 77, 127
1, 129720, Note_on_c, 1, 45, 127
1, 129768, Note_off_c, 1, 77, 0
1, 129780, Note_on_c, 1, 69, 127
1, 129816, Note_off_c, 1, 45, 0
1, 129828, Note_off_c, 1, 69, 0
1, 129840, Note_on_c, 1, 68, 127
1, 129840, Note_on_c, 1, 47, 127
1, 129888, Note_off_c, 1, 68, 0
1, 129900, Note_on_c, 1, 77, 127
1, 129936, Note_off_c, 1, 47, 0
1, 129948, Note_off_c, 1, 77, 0
1, 129960, Note_on_c, 1, 76, 127
1, 129960, Note_on_c, 1, 49, 127
1, 130008, Note_off_c, 1, 76, 0
1, 130020, Note_on_c, 1, 67, 127
1, 130056, Note_off_c, 1, 49, 0
1, 130068, Note_off_c, 1, 67, 0
1, 130080, Note_on_c, 1, 66, 127
1, 130080, Note_on_c, 1, 50, 127
1, 130128, Note_off_c, 1, 66, 0
1, 130140, Note_on_c, 1, 76, 127
1, 130176, Note_off_c, 1, 50, 0
1, 130188, Note_off_c, 1, 76, 0
1, 130200, Note_on_c, 1, 74, 127
1, 130200, Note_on_c, 1, 53, 127
1, 130248, Note_off_c, 1, 74, 0
1, 130260, Note_on_c, 1, 65, 127
1, 130296, Note_off_c, 1, 53, 0
1, 130308, Note_off_c, 1, 65, 0
1, 130320, Note_on_c, 1, 64, 127
1, 130320, Note_on_c, 1, 55, 127
1, 130368, Note_off_c, 1, 64, 0
1, 130380, Note_on_c, 1, 74, 127
1, 130416, Note_off_c, 1, 55, 0
1, 130428, Note_off_c, 1, 74, 0
1, 130440, Note_on_c, 1, 72, 127
1, 130440, Note_on_c, 1, 57, 127
1, 130488, Note_off_c, 1, 72, 0
1, 130500, Note_on_c, 1, 63, 127
1, 130536, Note_off_c, 1, 57, 0
1, 130548, Note_off_c, 1, 63, 0
1, 130560, Note_on_c, 1, 62, 127
1, 130560, Note_on_c, 1, 58, 127
1, 130608, Note_off_c, 1, 62, 0
1, 130620, Note_on_c, 1, 72, 127
1, 130656, Note_off_c, 1, 58, 0
1, 130668, Note_off_c, 1, 72, 0
1, 130680, Note_on_c, 1, 70, 127
1, 130680, Note_on_c, 1, 55, 127
1, 130728, Note_off_c, 1, 70, 0
1, 130740, Note_on_c, 1, 62, 127
1, 130776, Note_off_c, 1, 55, 0
1, 130788, Note_off_c, 1, 62, 0
1, 130800, Note_on_c, 1, 61, 127
1, 130800, Note_on_c, 1, 52, 127
1, 130848, Note_off_c, 1, 61, 0
1, 130860, Note_on_c, 1, 70, 127
1, 130896, Note_off_c, 1, 52, 0
1, 130908, Note_off_c, 1, 70, 0
1, 130920, Note_on_c, 1, 69, 127
1, 130920, Note_on_c, 1, 54, 127
1, 130968, Note_off_c, 1, 69, 0
1, 130980, Note_on_c, 1, 60, 127
1, 131016, Note_off_c, 1, 54, 0
1, 131028, Note_off_c, 1, 60, 0
1, 131040, Note_on_c, 1, 59, 127
1, 131040, Note_on_c, 1, 55, 127
1, 131088, Note_off_c, 1, 59, 0
1, 131100, Note_on_c, 1, 69, 127
1, 131136, Note_off_c, 1, 55, 0
1, 131148, Note_off_c, 1, 69, 0
1, 131160, Note_on_c, 1, 67, 127
1, 131160, Note_on_c, 1, 52, 127
1, 131208, Note_off_c, 1, 67, 0
1, 131220, Note_on_c, 1, 66, 127
1, 131256, Note_off_c, 1, 52, 0
1, 131268, Note_off_c, 1, 66, 0
1, 131280, Note_on_c, 1, 67, 127
1, 131280, Note_on_c, 1, 49, 127
1, 131328, Note_off_c, 1, 67, 0
1, 131340, Note_on_c, 1, 58, 127
1, 131376, Note_off_c, 1, 49, 0
1, 131388, Note_off_c, 1, 58, 0
1, 131400, Note_on_c, 1, 57, 127
1, 131400, Note_on_c, 1, 52, 127
1, 131448, Note_off_c, 1, 57, 0
1, 131460, Note_on_c, 1, 55, 127
1, 131496, Note_off_c, 1, 52, 0
1, 131508, Note_off_c, 1, 55, 0
1, 131520, Note_on_c, 1, 64, 127
1, 131520, Note_on_c, 1, 67, 127
1, 131520, Note_on_c, 1, 73, 127
1, 131520, Note_on_c, 1, 57, 127
1, 131520, Note_on_c, 1, 52, 127
1, 131520, Note_on_c, 1, 45, 127
1, 131745, Note_off_c, 1, 64, 0
1, 131745, Note_off_c, 1, 67, 0
1, 131745, Note_off_c, 1, 57, 0
1, 131745, Note_off_c, 1, 52, 0
1, 131745, Note_off_c, 1, 45, 0
1, 131892, Note_off_c, 1, 73, 0
1, 131895, Note_on_c, 1, 74, 127
1, 131907, Note_off_c, 1, 74, 0
1, 131910, Note_on_c, 1, 76, 127
1, 131922, Note_off_c, 1, 76, 0
1, 131925, Note_on_c, 1, 73, 127
1, 131937, Note_off_c, 1, 73, 0
1, 131940, Note_on_c, 1, 74, 127
1, 131952, Note_off_c, 1, 74, 0
1, 131955, Note_on_c, 1, 76, 127
1, 131967, Note_off_c, 1, 76, 0
1, 131970, Note_on_c, 1, 67, 127
1, 131982, Note_off_c, 1, 67, 0
1, 131985, Note_on_c, 1, 69, 127
1, 131997, Note_off_c, 1, 69, 0
1, 132000, Note_on_c, 1, 70, 127
1, 132012, Note_off_c, 1, 70, 0
1, 132015, Note_on_c, 1, 67, 127
1, 132027, Note_off_c, 1, 67, 0
1, 132030, Note_on_c, 1, 69, 127
1, 132042, Note_off_c, 1, 69, 0
1, 132045, Note_on_c, 1, 70, 127
1, 132057, Note_off_c, 1, 70, 0
1, 132060, Note_on_c, 1, 64, 127
1, 132072, Note_off_c, 1, 64, 0
1, 132075, Note_on_c, 1, 65, 127
1, 132087, Note_off_c, 1, 65, 0
1, 132090, Note_on_c, 1, 67, 127
1, 132102, Note_off_c, 1, 67, 0
1, 132105, Note_on_c, 1, 64, 127
1, 132117, Note_off_c, 1, 64, 0
1, 132120, Note_on_c, 1, 65, 127
1, 132132, Note_off_c, 1, 65, 0
1, 132135, Note_on_c, 1, 67, 127
1, 132147, Note_off_c, 1, 67, 0
1, 132150, Note_on_c, 1, 61, 127
1, 132162, Note_off_c, 1, 61, 0
1, 132165, Note_on_c, 1, 62, 127
1, 132177, Note_off_c, 1, 62, 0
1, 132180, Note_on_c, 1, 64, 127
1, 132192, Note_off_c, 1, 64, 0
1, 132195, Note_on_c, 1, 61, 127
1, 132207, Note_off_c, 1, 61, 0
1, 132210, Note_on_c, 1, 62, 127
1, 132222, Note_off_c, 1, 62, 0
1, 132225, Note_on_c, 1, 64, 127
1, 132237, Note_off_c, 1, 64, 0
1, 132240, Note_on_c, 1, 57, 127
1, 132336, Note_off_c, 1, 57, 0
1, 132360, Note_on_c, 1, 65, 127
1, 132360, Note_on_c, 1, 71, 127
1, 132360, Note_on_c, 1, 74, 127
1, 132360, Note_on_c, 1, 59, 127
1, 132360, Note_on_c, 1, 62, 127
1, 132360, Note_on_c, 1, 44, 127
1, 132456, Note_off_c, 1, 65, 0
1, 132456, Note_off_c, 1, 71, 0
1, 132456, Note_off_c, 1, 59, 0
1, 132456, Note_off_c, 1, 62, 0
1, 132456, Note_off_c, 1, 44, 0
1, 132480, Note_on_c, 1, 64, 127
1, 132480, Note_on_c, 1, 69, 127
1, 132480, Note_on_c, 1, 52, 127
1, 132480, Note_on_c, 1, 57, 127
1, 132480, Note_on_c, 1, 45, 127
1, 132564, Note_off_c, 1, 74, 0
1, 132570, Note_on_c, 1, 76, 127
1, 132576, Note_off_c, 1, 52, 0
1, 132594, Note_off_c, 1, 76, 0
1, 132600, Note_on_c, 1, 53, 127
1, 132630, Note_on_c, 1, 73, 127
1, 132654, Note_off_c, 1, 73, 0
1, 132696, Note_off_c, 1, 53, 0
1, 132720, Note_on_c, 1, 55, 127
1, 132864, Note_off_c, 1, 64, 0
1, 132864, Note_off_c, 1, 69, 0
1, 132864, Note_off_c, 1, 45, 0
1, 132960, Note_on_c, 1, 38, 127
1, 133056, Note_off_c, 1, 55, 0
1, 133080, Note_on_c, 1, 54, 127
1, 133128, Note_off_c, 1, 54, 0
1, 133344, Note_off_c, 1, 57, 0
1, 133344, Note_off_c, 1, 38, 0
1, 133344, End_track
0, 0, End_of_file