0, 0, Header, 1, 1, 480
1, 0, Start_track
1, 0, Title_t, "Test"
1, 0, Tempo, 500000
1, 0, Instrument_name_t, "Church Organ"
1, 0, Note_on_c, 1, 69, 127
1, 0, Note_on_c, 1, 45, 127
1, 48, Note_off_c, 1, 69, 0
1, 60, Note_on_c, 1, 72, 127
1, 84, Note_off_c, 1, 72, 0
1, 90, Note_on_c, 1, 76, 127
1, 114, Note_off_c, 1, 76, 0
1, 120, Note_on_c, 1, 77, 127
1, 192, Note_off_c, 1, 45, 0
1, 216, Note_off_c, 1, 77, 0
1, 240, Note_on_c, 1, 57, 127
1, 336, Note_off_c, 1, 57, 0
1, 360, Note_on_c, 1, 69, 127
1, 360, Note_on_c, 1, 59, 127
1, 456, Note_off_c, 1, 69, 0
1, 480, Note_on_c, 1, 68, 127
1, 576, Note_off_c, 1, 68, 0
1, 585, Note_off_c, 1, 59, 0
1, 600, Note_on_c, 1, 47, 127
1, 696, Note_off_c, 1, 47, 0
1, 720, Note_on_c, 1, 69, 127
1, 720, Note_on_c, 1, 48, 127
1, 768, Note_off_c, 1, 69, 0
1, 780, Note_on_c, 1, 72, 127
1, 804, Note_off_c, 1, 72, 0
1, 810, Note_on_c, 1, 76, 127
1, 834, Note_off_c, 1, 76, 0
1, 840, Note_on_c, 1, 81, 127
1, 888, Note_off_c, 1, 81, 0
1, 912, Note_off_c, 1, 48, 0
1, 960, Note_on_c, 1, 81, 127
1, 960, Note_on_c, 1, 50, 127
1, 1008, Note_off_c, 1, 81, 0
1, 1056, Note_off_c, 1, 50, 0
1, 1080, Note_on_c, 1, 52, 127
1, 1140, Note_on_c, 1, 79, 127
1, 1164, Note_off_c, 1, 79, 0
1, 1170, Note_on_c, 1, 77, 127
1, 1176, Note_off_c, 1, 52, 0
1, 1194, Note_off_c, 1, 77, 0
1, 1200, Note_on_c, 1, 79, 127
1, 1200, Note_on_c, 1, 50, 127
1, 1248, Note_off_c, 1, 79, 0
1, 1260, Note_on_c, 1, 70, 127
1, 1296, Note_off_c, 1, 50, 0
1, 1308, Note_off_c, 1, 70, 0
1, 1320, Note_on_c, 1, 69, 127
1, 1320, Note_on_c, 1, 49, 127
1, 1368, Note_off_c, 1, 69, 0
1, 1380, Note_on_c, 1, 79, 127
1, 1416, Note_off_c, 1, 49, 0
1, 1440, Note_on_c, 1, 50, 127
1, 1488, Note_off_c, 1, 79, 0
1, 1500, Note_on_c, 1, 77, 127
1, 1524, Note_off_c, 1, 77, 0
1, 1530, Note_on_c, 1, 76, 127
1, 1536, Note_off_c, 1, 50, 0
1, 1554, Note_off_c, 1, 76, 0
1, 1560, Note_on_c, 1, 77, 127
1, 1560, Note_on_c, 1, 48, 127
1, 1608, Note_off_c, 1, 77, 0
1, 1620, Note_on_c, 1, 69, 127
1, 1656, Note_off_c, 1, 48, 0
1, 1668, Note_off_c, 1, 69, 0
1, 1680, Note_on_c, 1, 68, 127
1, 1680, Note_on_c, 1, 47, 127
1, 1728, Note_off_c, 1, 68, 0
1, 1740, Note_on_c, 1, 77, 127
1, 1776, Note_off_c, 1, 47, 0
1, 1788, Note_off_c, 1, 77, 0
1, 1800, Note_on_c, 1, 76, 127
1, 1800, Note_on_c, 1, 48, 127
1, 1824, Note_off_c, 1, 76, 0
1, 1830, Note_on_c, 1, 74, 127
1, 1854, Note_off_c, 1, 74, 0
1, 1860, Note_on_c, 1, 77, 127
1, 1884, Note_off_c, 1, 77, 0
1, 1896, Note_off_c, 1, 48, 0
1, 1920, Note_on_c, 1, 74, 127
1, 1920, Note_on_c, 1, 50, 127
1, 1944, Note_off_c, 1, 74, 0
1, 1950, Note_on_c, 1, 72, 127
1, 1974, Note_off_c, 1, 72, 0
1, 1980, Note_on_c, 1, 71, 127
1, 2004, Note_off_c, 1, 71, 0
1, 2010, Note_on_c, 1, 69, 127
1, 2016, Note_off_c, 1, 50, 0
1, 2034, Note_off_c, 1, 69, 0
1, 2040, Note_on_c, 1, 68, 127
1, 2040, Note_on_c, 1, 52, 127
1, 2064, Note_off_c, 1, 68, 0
1, 2070, Note_on_c, 1, 74, 127
1, 2094, Note_off_c, 1, 74, 0
1, 2100, Note_on_c, 1, 72, 127
1, 2124, Note_off_c, 1, 72, 0
1, 2130, Note_on_c, 1, 71, 127
1, 2136, Note_off_c, 1, 52, 0
1, 2154, Note_off_c, 1, 71, 0
1, 2160, Note_on_c, 1, 72, 127
1, 2160, Note_on_c, 1, 45, 127
1, 2184, Note_off_c, 1, 72, 0
1, 2190, Note_on_c, 1, 71, 127
1, 2214, Note_off_c, 1, 71, 0
1, 2220, Note_on_c, 1, 69, 127
1, 2256, Note_off_c, 1, 45, 0
1, 2280, Note_on_c, 1, 57, 127
1, 2316, Note_off_c, 1, 69, 0
1, 2376, Note_off_c, 1, 57, 0
1, 2400, Note_on_c, 1, 72, 127
1, 2400, Note_on_c, 1, 55, 127
1, 2448, Note_off_c, 1, 72, 0
1, 2460, Note_on_c, 1, 73, 127
1, 2496, Note_off_c, 1, 55, 0
1, 2508, Note_off_c, 1, 73, 0
1, 2520, Note_on_c, 1, 74, 127
1, 2520, Note_on_c, 1, 54, 127
1, 2568, Note_off_c, 1, 74, 0
1, 2580, Note_on_c, 1, 75, 127
1, 2616, Note_off_c, 1, 54, 0
1, 2640, Note_on_c, 1, 59, 127
1, 2664, Note_off_c, 1, 75, 0
1, 2670, Note_on_c, 1, 76, 127
1, 2694, Note_off_c, 1, 76, 0
1, 2700, Note_on_c, 1, 78, 127
1, 2724, Note_off_c, 1, 78, 0
1, 2730, Note_on_c, 1, 79, 127
1, 2736, Note_off_c, 1, 59, 0
1, 2754, Note_off_c, 1, 79, 0
1, 2760, Note_on_c, 1, 81, 127
1, 2760, Note_on_c, 1, 47, 127
1, 2784, Note_off_c, 1, 81, 0
1, 2790, Note_on_c, 1, 79, 127
1, 2814, Note_off_c, 1, 79, 0
1, 2820, Note_on_c, 1, 78, 127
1, 2844, Note_off_c, 1, 78, 0
1, 2856, Note_off_c, 1, 47, 0
1, 2880, Note_on_c, 1, 79, 127
1, 2880, Note_on_c, 1, 64, 127
1, 2880, Note_on_c, 1, 52, 127
1, 2928, Note_off_c, 1, 64, 0
1, 2940, Note_on_c, 1, 67, 127
1, 2964, Note_off_c, 1, 67, 0
1, 2970, Note_on_c, 1, 71, 127
1, 2994, Note_off_c, 1, 71, 0
1, 3000, Note_on_c, 1, 72, 127
1, 3024, Note_off_c, 1, 79, 0
1, 3030, Note_on_c, 1, 78, 127
1, 3054, Note_off_c, 1, 78, 0
1, 3060, Note_on_c, 1, 76, 127
1, 3072, Note_off_c, 1, 52, 0
1, 3084, Note_off_c, 1, 76, 0
1, 3096, Note_off_c, 1, 72, 0
1, 3120, Note_on_c, 1, 79, 127
1, 3120, Note_on_c, 1, 40, 127
1, 3168, Note_off_c, 1, 79, 0
1, 3180, Note_on_c, 1, 80, 127
1, 3216, Note_off_c, 1, 40, 0
1, 3228, Note_off_c, 1, 80, 0
1, 3240, Note_on_c, 1, 81, 127
1, 3240, Note_on_c, 1, 64, 127
1, 3240, Note_on_c, 1, 42, 127
1, 3336, Note_off_c, 1, 64, 0
1, 3360, Note_on_c, 1, 63, 127
1, 3384, Note_off_c, 1, 81, 0
1, 3390, Note_on_c, 1, 79, 127
1, 3414, Note_off_c, 1, 79, 0
1, 3420, Note_on_c, 1, 78, 127
1, 3432, Note_off_c, 1, 42, 0
1, 3444, Note_off_c, 1, 78, 0
1, 3456, Note_off_c, 1, 63, 0
1, 3480, Note_on_c, 1, 81, 127
1, 3480, Note_on_c, 1, 54, 127
1, 3528, Note_off_c, 1, 81, 0
1, 3540, Note_on_c, 1, 82, 127
1, 3576, Note_off_c, 1, 54, 0
1, 3588, Note_off_c, 1, 82, 0
1, 3600, Note_on_c, 1, 83, 127
1, 3600, Note_on_c, 1, 64, 127
1, 3600, Note_on_c, 1, 55, 127
1, 3648, Note_off_c, 1, 64, 0
1, 3660, Note_on_c, 1, 67, 127
1, 3684, Note_off_c, 1, 67, 0
1, 3690, Note_on_c, 1, 71, 127
1, 3714, Note_off_c, 1, 71, 0
1, 3720, Note_on_c, 1, 76, 127
1, 3744, Note_off_c, 1, 83, 0
1, 3750, Note_on_c, 1, 81, 127
1, 3768, Note_off_c, 1, 76, 0
1, 3774, Note_off_c, 1, 81, 0
1, 3780, Note_on_c, 1, 84, 127
1, 3792, Note_off_c, 1, 55, 0
1, 3804, Note_off_c, 1, 84, 0
1, 3840, Note_on_c, 1, 81, 127
1, 3840, Note_on_c, 1, 76, 127
1, 3840, Note_on_c, 1, 57, 127
1, 3864, Note_off_c, 1, 81, 0
1, 3870, Note_on_c, 1, 79, 127
1, 3888, Note_off_c, 1, 76, 0
1, 3894, Note_off_c, 1, 79, 0
1, 3900, Note_on_c, 1, 78, 127
1, 3924, Note_off_c, 1, 78, 0
1, 3936, Note_off_c, 1, 57, 0
1, 3960, Note_on_c, 1, 59, 127
1, 4020, Note_on_c, 1, 74, 127
1, 4044, Note_off_c, 1, 74, 0
1, 4050, Note_on_c, 1, 72, 127
1, 4056, Note_off_c, 1, 59, 0
1, 4074, Note_off_c, 1, 72, 0
1, 4080, Note_on_c, 1, 74, 127
1, 4080, Note_on_c, 1, 57, 127
1, 4128, Note_off_c, 1, 74, 0
1, 4140, Note_on_c, 1, 65, 127
1, 4176, Note_off_c, 1, 57, 0
1, 4188, Note_off_c, 1, 65, 0
1, 4200, Note_on_c, 1, 83, 127
1, 4200, Note_on_c, 1, 64, 127
1, 4200, Note_on_c, 1, 56, 127
1, 4248, Note_off_c, 1, 64, 0
1, 4260, Note_on_c, 1, 74, 127
1, 4296, Note_off_c, 1, 83, 0
1, 4296, Note_off_c, 1, 56, 0
1, 4320, Note_on_c, 1, 76, 127
1, 4320, Note_on_c, 1, 57, 127
1, 4368, Note_off_c, 1, 74, 0
1, 4380, Note_on_c, 1, 72, 127
1, 4404, Note_off_c, 1, 72, 0
1, 4410, Note_on_c, 1, 71, 127
1, 4416, Note_off_c, 1, 76, 0
1, 4416, Note_off_c, 1, 57, 0
1, 4434, Note_off_c, 1, 71, 0
1, 4440, Note_on_c, 1, 72, 127
1, 4440, Note_on_c, 1, 55, 127
1, 4488, Note_off_c, 1, 72, 0
1, 4500, Note_on_c, 1, 64, 127
1, 4536, Note_off_c, 1, 55, 0
1, 4548, Note_off_c, 1, 64, 0
1, 4560, Note_on_c, 1, 81, 127
1, 4560, Note_on_c, 1, 63, 127
1, 4560, Note_on_c, 1, 54, 127
1, 4608, Note_off_c, 1, 63, 0
1, 4620, Note_on_c, 1, 72, 127
1, 4656, Note_off_c, 1, 54, 0
1, 4668, Note_off_c, 1, 72, 0
1, 4680, Note_on_c, 1, 71, 127
1, 4680, Note_on_c, 1, 55, 127
1, 4704, Note_off_c, 1, 71, 0
1, 4710, Note_on_c, 1, 69, 127
1, 4728, Note_off_c, 1, 81, 0
1, 4734, Note_off_c, 1, 69, 0
1, 4740, Note_on_c, 1, 79, 127
1, 4776, Note_off_c, 1, 55, 0
1, 4788, Note_off_c, 1, 79, 0
1, 4800, Note_on_c, 1, 78, 127
1, 4800, Note_on_c, 1, 69, 127
1, 4800, Note_on_c, 1, 57, 127
1, 4824, Note_off_c, 1, 78, 0
1, 4824, Note_off_c, 1, 69, 0
1, 4830, Note_on_c, 1, 79, 127
1, 4830, Note_on_c, 1, 67, 127
1, 4854, Note_off_c, 1, 79, 0
1, 4854, Note_off_c, 1, 67, 0
1, 4860, Note_on_c, 1, 81, 127
1, 4860, Note_on_c, 1, 66, 127
1, 4884, Note_off_c, 1, 66, 0
1, 4890, Note_on_c, 1, 64, 127
1, 4896, Note_off_c, 1, 57, 0
1, 4914, Note_off_c, 1, 64, 0
1, 4920, Note_on_c, 1, 63, 127
1, 4920, Note_on_c, 1, 59, 127
1, 4944, Note_off_c, 1, 63, 0
1, 4956, Note_off_c, 1, 81, 0
1, 4980, Note_on_c, 1, 75, 127
1, 5016, Note_off_c, 1, 59, 0
1, 5028, Note_off_c, 1, 75, 0
1, 5040, Note_on_c, 1, 76, 127
1, 5040, Note_on_c, 1, 67, 127
1, 5040, Note_on_c, 1, 52, 127
1, 5064, Note_off_c, 1, 76, 0
1, 5064, Note_off_c, 1, 67, 0
1, 5070, Note_on_c, 1, 78, 127
1, 5070, Note_on_c, 1, 66, 127
1, 5094, Note_off_c, 1, 78, 0
1, 5094, Note_off_c, 1, 66, 0
1, 5100, Note_on_c, 1, 79, 127
1, 5100, Note_on_c, 1, 64, 127
1, 5124, Note_off_c, 1, 79, 0
1, 5130, Note_on_c, 1, 81, 127
1, 5136, Note_off_c, 1, 52, 0
1, 5154, Note_off_c, 1, 81, 0
1, 5160, Note_on_c, 1, 82, 127
1, 5160, Note_on_c, 1, 55, 127
1, 5196, Note_off_c, 1, 64, 0
1, 5220, Note_on_c, 1, 62, 127
1, 5256, Note_off_c, 1, 82, 0
1, 5256, Note_off_c, 1, 55, 0
1, 5268, Note_off_c, 1, 62, 0
1, 5280, Note_on_c, 1, 61, 127
1, 5280, Note_on_c, 1, 57, 127
1, 5328, Note_off_c, 1, 61, 0
1, 5340, Note_on_c, 1, 73, 127
1, 5340, Note_on_c, 1, 67, 127
1, 5376, Note_off_c, 1, 57, 0
1, 5388, Note_off_c, 1, 73, 0
1, 5388, Note_off_c, 1, 67, 0
1, 5400, Note_on_c, 1, 74, 127
1, 5400, Note_on_c, 1, 65, 127
1, 5400, Note_on_c, 1, 50, 127
1, 5424, Note_off_c, 1, 74, 0
1, 5424, Note_off_c, 1, 65, 0
1, 5430, Note_on_c, 1, 76, 127
1, 5430, Note_on_c, 1, 64, 127
1, 5454, Note_off_c, 1, 76, 0
1, 5454, Note_off_c, 1, 64, 0
1, 5460, Note_on_c, 1, 77, 127
1, 5460, Note_on_c, 1, 62, 127
1, 5484, Note_off_c, 1, 77, 0
1, 5490, Note_on_c, 1, 79, 127
1, 5496, Note_off_c, 1, 50, 0
1, 5514, Note_off_c, 1, 79, 0
1, 5520, Note_on_c, 1, 80, 127
1, 5520, Note_on_c, 1, 53, 127
1, 5556, Note_off_c, 1, 62, 0
1, 5580, Note_on_c, 1, 60, 127
1, 5616, Note_off_c, 1, 80, 0
1, 5616, Note_off_c, 1, 53, 0
1, 5628, Note_off_c, 1, 60, 0
1, 5640, Note_on_c, 1, 59, 127
1, 5640, Note_on_c, 1, 55, 127
1, 5688, Note_off_c, 1, 59, 0
1, 5700, Note_on_c, 1, 71, 127
1, 5700, Note_on_c, 1, 65, 127
1, 5736, Note_off_c, 1, 55, 0
1, 5748, Note_off_c, 1, 71, 0
1, 5748, Note_off_c, 1, 65, 0
1, 5760, Note_on_c, 1, 72, 127
1, 5760, Note_on_c, 1, 64, 127
1, 5760, Note_on_c, 1, 48, 127
1, 5784, Note_off_c, 1, 64, 0
1, 5790, Note_on_c, 1, 62, 127
1, 5808, Note_off_c, 1, 72, 0
1, 5814, Note_off_c, 1, 62, 0
1, 5820, Note_on_c, 1, 76, 127
1, 5820, Note_on_c, 1, 60, 127
1, 5844, Note_off_c, 1, 76, 0
1, 5850, Note_on_c, 1, 79, 127
1, 5856, Note_off_c, 1, 48, 0
1, 5874, Note_off_c, 1, 79, 0
1, 5880, Note_on_c, 1, 84, 127
1, 5880, Note_on_c, 1, 47, 127
1, 5916, Note_off_c, 1, 60, 0
1, 5976, Note_off_c, 1, 84, 0
1, 5976, Note_off_c, 1, 47, 0
1, 6000, Note_on_c, 1, 65, 127
1, 6000, Note_on_c, 1, 45, 127
1, 6030, Note_on_c, 1, 72, 127
1, 6048, Note_off_c, 1, 65, 0
1, 6054, Note_off_c, 1, 72, 0
1, 6060, Note_on_c, 1, 74, 127
1, 6060, Note_on_c, 1, 66, 127
1, 6084, Note_off_c, 1, 74, 0
1, 6090, Note_on_c, 1, 76, 127
1, 6096, Note_off_c, 1, 45, 0
1, 6108, Note_off_c, 1, 66, 0
1, 6114, Note_off_c, 1, 76, 0
1, 6120, Note_on_c, 1, 74, 127
1, 6120, Note_on_c, 1, 67, 127
1, 6120, Note_on_c, 1, 47, 127
1, 6144, Note_off_c, 1, 74, 0
1, 6150, Note_on_c, 1, 72, 127
1, 6168, Note_off_c, 1, 67, 0
1, 6174, Note_off_c, 1, 72, 0
1, 6180, Note_on_c, 1, 71, 127
1, 6180, Note_on_c, 1, 68, 127
1, 6204, Note_off_c, 1, 71, 0
1, 6216, Note_off_c, 1, 47, 0
1, 6240, Note_on_c, 1, 83, 127
1, 6240, Note_on_c, 1, 52, 127
1, 6264, Note_off_c, 1, 68, 0
1, 6270, Note_on_c, 1, 69, 127
1, 6294, Note_off_c, 1, 69, 0
1, 6336, Note_off_c, 1, 52, 0
1, 6360, Note_on_c, 1, 40, 127
1, 6456, Note_off_c, 1, 40, 0
1, 6480, Note_on_c, 1, 45, 127
1, 6504, Note_off_c, 1, 83, 0
1, 6510, Note_on_c, 1, 76, 127
1, 6534, Note_off_c, 1, 76, 0
1, 6576, Note_off_c, 1, 45, 0
1, 6600, Note_on_c, 1, 81, 127
1, 6600, Note_on_c, 1, 47, 127
1, 6648, Note_off_c, 1, 81, 0
1, 6660, Note_on_c, 1, 79, 127
1, 6696, Note_off_c, 1, 47, 0
1, 6720, Note_on_c, 1, 76, 127
1, 6720, Note_on_c, 1, 49, 127
1, 6744, Note_off_c, 1, 79, 0
1, 6750, Note_on_c, 1, 77, 127
1, 6774, Note_off_c, 1, 77, 0
1, 6816, Note_off_c, 1, 49, 0
1, 6840, Note_on_c, 1, 50, 127
1, 6864, Note_off_c, 1, 76, 0
1, 6870, Note_on_c, 1, 69, 127
1, 6894, Note_off_c, 1, 69, 0
1, 6900, Note_on_c, 1, 67, 127
1, 6924, Note_off_c, 1, 67, 0
1, 6960, Note_on_c, 1, 74, 127
1, 7008, Note_off_c, 1, 74, 0
1, 7020, Note_on_c, 1, 72, 127
1, 7032, Note_off_c, 1, 50, 0
1, 7104, Note_off_c, 1, 72, 0
1, 7110, Note_on_c, 1, 70, 127
1, 7134, Note_off_c, 1, 70, 0
1, 7200, Note_on_c, 1, 38, 127
1, 7260, Note_on_c, 1, 73, 127
1, 7284, Note_off_c, 1, 73, 0
1, 7296, Note_off_c, 1, 38, 0
1, 7320, Note_on_c, 1, 79, 127
1, 7368, Note_off_c, 1, 79, 0
1, 7380, Note_on_c, 1, 77, 127
1, 7440, Note_on_c, 1, 69, 127
1, 7440, Note_on_c, 1, 50, 127
1, 7464, Note_off_c, 1, 77, 0
1, 7470, Note_on_c, 1, 76, 127
1, 7494, Note_off_c, 1, 76, 0
1, 7500, Note_on_c, 1, 74, 127
1, 7524, Note_off_c, 1, 74, 0
1, 7536, Note_off_c, 1, 69, 0
1, 7560, Note_on_c, 1, 71, 127
1, 7560, Note_on_c, 1, 68, 127
1, 7584, Note_off_c, 1, 71, 0
1, 7656, Note_off_c, 1, 50, 0
1, 7656, Note_off_c, 1, 68, 0
1, 7680, Note_on_c, 1, 72, 127
1, 7680, Note_on_c, 1, 69, 127
1, 7680, Note_on_c, 1, 48, 127
1, 7704, Note_off_c, 1, 72, 0
1, 7710, Note_on_c, 1, 77, 127
1, 7734, Note_off_c, 1, 77, 0
1, 7740, Note_on_c, 1, 76, 127
1, 7764, Note_off_c, 1, 76, 0
1, 7776, Note_off_c, 1, 69, 0
1, 7776, Note_off_c, 1, 48, 0
1, 7800, Note_on_c, 1, 74, 127
1, 7800, Note_on_c, 1, 71, 127
1, 7800, Note_on_c, 1, 44, 127
1, 7824, Note_off_c, 1, 74, 0
1, 7830, Note_on_c, 1, 77, 127
1, 7854, Note_off_c, 1, 77, 0
1, 7860, Note_on_c, 1, 76, 127
1, 7884, Note_off_c, 1, 76, 0
1, 7896, Note_off_c, 1, 71, 0
1, 7896, Note_off_c, 1, 44, 0
1, 7920, Note_on_c, 1, 72, 127
1, 7920, Note_on_c, 1, 64, 127
1, 7920, Note_on_c, 1, 45, 127
1, 7944, Note_off_c, 1, 72, 0
1, 7950, Note_on_c, 1, 71, 127
1, 7974, Note_off_c, 1, 71, 0
1, 7980, Note_on_c, 1, 69, 127
1, 8004, Note_off_c, 1, 69, 0
1, 8016, Note_off_c, 1, 64, 0
1, 8016, Note_off_c, 1, 45, 0
1, 8040, Note_on_c, 1, 72, 127
1, 8040, Note_on_c, 1, 64, 127
1, 8040, Note_on_c, 1, 43, 127
1, 8064, Note_off_c, 1, 64, 0
1, 8070, Note_on_c, 1, 62, 127
1, 8088, Note_off_c, 1, 72, 0
1, 8094, Note_off_c, 1, 62, 0
1, 8100, Note_on_c, 1, 73, 127
1, 8130, Note_on_c, 1, 69, 127
1, 8136, Note_off_c, 1, 43, 0
1, 8148, Note_off_c, 1, 73, 0
1, 8154, Note_off_c, 1, 69, 0
1, 8160, Note_on_c, 1, 74, 127
1, 8160, Note_on_c, 1, 57, 127
1, 8160, Note_on_c, 1, 41, 127
1, 8208, Note_off_c, 1, 74, 0
1, 8220, Note_on_c, 1, 75, 127
1, 8256, Note_off_c, 1, 41, 0
1, 8268, Note_off_c, 1, 75, 0
1, 8280, Note_on_c, 1, 76, 127
1, 8280, Note_on_c, 1, 48, 127
1, 8304, Note_off_c, 1, 76, 0
1, 8328, Note_off_c, 1, 48, 0
1, 8340, Note_on_c, 1, 50, 127
1, 8370, Note_on_c, 1, 77, 127
1, 8376, Note_off_c, 1, 57, 0
1, 8388, Note_off_c, 1, 50, 0
1, 8394, Note_off_c, 1, 77, 0
1, 8400, Note_on_c, 1, 72, 127
1, 8400, Note_on_c, 1, 57, 127
1, 8400, Note_on_c, 1, 52, 127
1, 8415, Note_off_c, 1, 72, 0
1, 8415, Note_on_c, 1, 71, 127
1, 8424, Note_off_c, 1, 57, 0
1, 8430, Note_off_c, 1, 71, 0
1, 8430, Note_on_c, 1, 56, 127
1, 8454, Note_off_c, 1, 56, 0
1, 8460, Note_on_c, 1, 54, 127
1, 8484, Note_off_c, 1, 54, 0
1, 8496, Note_off_c, 1, 52, 0
1, 8520, Note_on_c, 1, 72, 127
1, 8520, Note_on_c, 1, 57, 127
1, 8520, Note_on_c, 1, 40, 127
1, 8532, Note_off_c, 1, 72, 0
1, 8532, Note_off_c, 1, 57, 0
1, 8535, Note_on_c, 1, 71, 127
1, 8535, Note_on_c, 1, 56, 127
1, 8547, Note_off_c, 1, 71, 0
1, 8547, Note_off_c, 1, 56, 0
1, 8580, Note_on_c, 1, 69, 127
1, 8616, Note_off_c, 1, 40, 0
1, 8628, Note_off_c, 1, 69, 0
1, 8640, Note_on_c, 1, 69, 127
1, 8640, Note_on_c, 1, 57, 127
1, 8640, Note_on_c, 1, 45, 127
1, 8664, Note_off_c, 1, 69, 0
1, 8670, Note_on_c, 1, 71, 127
1, 8688, Note_off_c, 1, 57, 0
1, 8694, Note_off_c, 1, 71, 0
1, 8700, Note_on_c, 1, 72, 127
1, 8724, Note_off_c, 1, 72, 0
1, 8760, Note_on_c, 1, 68, 127
1, 8760, Note_on_c, 1, 59, 127
1, 8784, Note_off_c, 1, 68, 0
1, 8808, Note_off_c, 1, 59, 0
1, 8820, Note_on_c, 1, 74, 127
1, 8832, Note_off_c, 1, 45, 0
1, 8844, Note_off_c, 1, 74, 0
1, 8880, Note_on_c, 1, 68, 127
1, 8880, Note_on_c, 1, 60, 127
1, 8904, Note_off_c, 1, 68, 0
1, 8910, Note_on_c, 1, 69, 127
1, 8928, Note_off_c, 1, 60, 0
1, 8934, Note_off_c, 1, 69, 0
1, 8940, Note_on_c, 1, 76, 127
1, 8940, Note_on_c, 1, 69, 127
1, 8964, Note_off_c, 1, 76, 0
1, 8994, Note_off_c, 1, 69, 0
1, 9000, Note_on_c, 1, 68, 127
1, 9000, Note_on_c, 1, 62, 127
1, 9024, Note_off_c, 1, 68, 0
1, 9030, Note_on_c, 1, 69, 127
1, 9048, Note_off_c, 1, 62, 0
1, 9054, Note_off_c, 1, 69, 0
1, 9060, Note_on_c, 1, 77, 127
1, 9060, Note_on_c, 1, 69, 127
1, 9084, Note_off_c, 1, 77, 0
1, 9114, Note_off_c, 1, 69, 0
1, 9120, Note_on_c, 1, 68, 127
1, 9120, Note_on_c, 1, 60, 127
1, 9144, Note_off_c, 1, 68, 0
1, 9150, Note_on_c, 1, 69, 127
1, 9168, Note_off_c, 1, 60, 0
1, 9174, Note_off_c, 1, 69, 0
1, 9180, Note_on_c, 1, 76, 127
1, 9180, Note_on_c, 1, 69, 127
1, 9204, Note_off_c, 1, 76, 0
1, 9234, Note_off_c, 1, 69, 0
1, 9240, Note_on_c, 1, 68, 127
1, 9240, Note_on_c, 1, 59, 127
1, 9264, Note_off_c, 1, 68, 0
1, 9270, Note_on_c, 1, 69, 127
1, 9288, Note_off_c, 1, 59, 0
1, 9294, Note_off_c, 1, 69, 0
1, 9300, Note_on_c, 1, 74, 127
1, 9300, Note_on_c, 1, 69, 127
1, 9324, Note_off_c, 1, 74, 0
1, 9330, Note_on_c, 1, 71, 127
1, 9348, Note_off_c, 1, 69, 0
1, 9354, Note_off_c, 1, 71, 0
1, 9360, Note_on_c, 1, 72, 127
1, 9360, Note_on_c, 1, 57, 127
1, 9360, Note_on_c, 1, 45, 127
1, 9384, Note_off_c, 1, 57, 0
1, 9390, Note_on_c, 1, 59, 127
1, 9408, Note_off_c, 1, 72, 0
1, 9414, Note_off_c, 1, 59, 0
1, 9420, Note_on_c, 1, 81, 127
1, 9420, Note_on_c, 1, 60, 127
1, 9444, Note_off_c, 1, 60, 0
1, 9468, Note_off_c, 1, 81, 0
1, 9473, Note_off_c, 1, 45, 0
1, 9480, Note_on_c, 1, 71, 127
1, 9480, Note_on_c, 1, 56, 127
1, 9504, Note_off_c, 1, 56, 0
1, 9510, Note_on_c, 1, 57, 127
1, 9528, Note_off_c, 1, 71, 0
1, 9534, Note_off_c, 1, 57, 0
1, 9540, Note_on_c, 1, 81, 127
1, 9540, Note_on_c, 1, 62, 127
1, 9564, Note_off_c, 1, 62, 0
1, 9570, Note_on_c, 1, 57, 127
1, 9588, Note_off_c, 1, 81, 0
1, 9594, Note_off_c, 1, 57, 0
1, 9600, Note_on_c, 1, 72, 127
1, 9600, Note_on_c, 1, 56, 127
1, 9624, Note_off_c, 1, 56, 0
1, 9630, Note_on_c, 1, 57, 127
1, 9648, Note_off_c, 1, 72, 0
1, 9654, Note_off_c, 1, 57, 0
1, 9660, Note_on_c, 1, 81, 127
1, 9660, Note_on_c, 1, 64, 127
1, 9684, Note_off_c, 1, 64, 0
1, 9690, Note_on_c, 1, 57, 127
1, 9708, Note_off_c, 1, 81, 0
1, 9714, Note_off_c, 1, 57, 0
1, 9720, Note_on_c, 1, 74, 127
1, 9720, Note_on_c, 1, 56, 127
1, 9744, Note_off_c, 1, 56, 0
1, 9750, Note_on_c, 1, 57, 127
1, 9768, Note_off_c, 1, 74, 0
1, 9774, Note_off_c, 1, 57, 0
1, 9780, Note_on_c, 1, 81, 127
1, 9780, Note_on_c, 1, 65, 127
1, 9804, Note_off_c, 1, 65, 0
1, 9810, Note_on_c, 1, 57, 127
1, 9828, Note_off_c, 1, 81, 0
1, 9834, Note_off_c, 1, 57, 0
1, 9840, Note_on_c, 1, 72, 127
1, 9840, Note_on_c, 1, 56, 127
1, 9864, Note_off_c, 1, 56, 0
1, 9870, Note_on_c, 1, 57, 127
1, 9888, Note_off_c, 1, 72, 0
1, 9894, Note_off_c, 1, 57, 0
1, 9900, Note_on_c, 1, 81, 127
1, 9900, Note_on_c, 1, 64, 127
1, 9924, Note_off_c, 1, 64, 0
1, 9930, Note_on_c, 1, 57, 127
1, 9948, Note_off_c, 1, 81, 0
1, 9954, Note_off_c, 1, 57, 0
1, 9960, Note_on_c, 1, 71, 127
1, 9960, Note_on_c, 1, 56, 127
1, 9984, Note_off_c, 1, 56, 0
1, 9990, Note_on_c, 1, 57, 127
1, 10008, Note_off_c, 1, 71, 0
1, 10014, Note_off_c, 1, 57, 0
1, 10020, Note_on_c, 1, 81, 127
1, 10020, Note_on_c, 1, 62, 127
1, 10044, Note_off_c, 1, 62, 0
1, 10050, Note_on_c, 1, 59, 127
1, 10068, Note_off_c, 1, 81, 0
1, 10074, Note_off_c, 1, 59, 0
1, 10080, Note_on_c, 1, 69, 127
1, 10080, Note_on_c, 1, 64, 127
1, 10080, Note_on_c, 1, 45, 127
1, 10104, Note_off_c, 1, 64, 0
1, 10110, Note_on_c, 1, 57, 127
1, 10128, Note_off_c, 1, 69, 0
1, 10134, Note_off_c, 1, 57, 0
1, 10140, Note_on_c, 1, 76, 127
1, 10140, Note_on_c, 1, 59, 127
1, 10164, Note_off_c, 1, 59, 0
1, 10170, Note_on_c, 1, 60, 127
1, 10176, Note_off_c, 1, 45, 0
1, 10194, Note_off_c, 1, 60, 0
1, 10200, Note_on_c, 1, 62, 127
1, 10200, Note_on_c, 1, 47, 127
1, 10224, Note_off_c, 1, 76, 0
1, 10224, Note_off_c, 1, 62, 0
1, 10230, Note_on_c, 1, 74, 127
1, 10254, Note_off_c, 1, 74, 0
1, 10260, Note_on_c, 1, 72, 127
1, 10260, Note_on_c, 1, 66, 127
1, 10284, Note_off_c, 1, 72, 0
1, 10284, Note_off_c, 1, 66, 0
1, 10290, Note_on_c, 1, 71, 127
1, 10290, Note_on_c, 1, 68, 127
1, 10296, Note_off_c, 1, 47, 0
1, 10314, Note_off_c, 1, 71, 0
1, 10314, Note_off_c, 1, 68, 0
1, 10320, Note_on_c, 1, 69, 127
1, 10320, Note_on_c, 1, 48, 127
1, 10350, Note_on_c, 1, 67, 127
1, 10374, Note_off_c, 1, 67, 0
1, 10380, Note_on_c, 1, 66, 127
1, 10404, Note_off_c, 1, 66, 0
1, 10410, Note_on_c, 1, 64, 127
1, 10416, Note_off_c, 1, 48, 0
1, 10434, Note_off_c, 1, 64, 0
1, 10440, Note_on_c, 1, 50, 127
1, 10464, Note_off_c, 1, 69, 0
1, 10536, Note_off_c, 1, 50, 0
1, 10560, Note_on_c, 1, 72, 127
1, 10560, Note_on_c, 1, 66, 127
1, 10560, Note_on_c, 1, 38, 127
1, 10584, Note_off_c, 1, 66, 0
1, 10590, Note_on_c, 1, 69, 127
1, 10614, Note_off_c, 1, 69, 0
1, 10620, Note_on_c, 1, 62, 127
1, 10644, Note_off_c, 1, 62, 0
1, 10656, Note_off_c, 1, 72, 0
1, 10656, Note_off_c, 1, 38, 0
1, 10680, Note_on_c, 1, 57, 127
1, 10704, Note_off_c, 1, 57, 0
1, 10710, Note_on_c, 1, 60, 127
1, 10734, Note_off_c, 1, 60, 0
1, 10740, Note_on_c, 1, 59, 127
1, 10764, Note_off_c, 1, 59, 0
1, 10770, Note_on_c, 1, 57, 127
1, 10794, Note_off_c, 1, 57, 0
1, 10800, Note_on_c, 1, 59, 127
1, 10800, Note_on_c, 1, 43, 127
1, 10824, Note_off_c, 1, 59, 0
1, 10830, Note_on_c, 1, 55, 127
1, 10854, Note_off_c, 1, 55, 0
1, 10860, Note_on_c, 1, 74, 127
1, 10860, Note_on_c, 1, 57, 127
1, 10884, Note_off_c, 1, 57, 0
1, 10896, Note_off_c, 1, 43, 0
1, 10920, Note_on_c, 1, 60, 127
1, 10920, Note_on_c, 1, 45, 127
1, 10944, Note_off_c, 1, 74, 0
1, 10944, Note_off_c, 1, 60, 0
1, 10950, Note_on_c, 1, 72, 127
1, 10950, Note_on_c, 1, 62, 127
1, 10974, Note_off_c, 1, 72, 0
1, 10974, Note_off_c, 1, 62, 0
1, 10980, Note_on_c, 1, 71, 127
1, 10980, Note_on_c, 1, 64, 127
1, 11004, Note_off_c, 1, 71, 0
1, 11004, Note_off_c, 1, 64, 0
1, 11010, Note_on_c, 1, 69, 127
1, 11010, Note_on_c, 1, 65, 127
1, 11016, Note_off_c, 1, 45, 0
1, 11034, Note_off_c, 1, 69, 0
1, 11034, Note_off_c, 1, 65, 0
1, 11040, Note_on_c, 1, 67, 127
1, 11040, Note_on_c, 1, 47, 127
1, 11070, Note_on_c, 1, 65, 127
1, 11094, Note_off_c, 1, 65, 0
1, 11100, Note_on_c, 1, 64, 127
1, 11124, Note_off_c, 1, 64, 0
1, 11130, Note_on_c, 1, 62, 127
1, 11136, Note_off_c, 1, 47, 0
1, 11154, Note_off_c, 1, 62, 0
1, 11160, Note_on_c, 1, 48, 127
1, 11184, Note_off_c, 1, 67, 0
1, 11256, Note_off_c, 1, 48, 0
1, 11280, Note_on_c, 1, 70, 127
1, 11280, Note_on_c, 1, 64, 127
1, 11280, Note_on_c, 1, 36, 127
1, 11304, Note_off_c, 1, 64, 0
1, 11310, Note_on_c, 1, 67, 127
1, 11334, Note_off_c, 1, 67, 0
1, 11340, Note_on_c, 1, 60, 127
1, 11364, Note_off_c, 1, 60, 0
1, 11376, Note_off_c, 1, 70, 0
1, 11376, Note_off_c, 1, 36, 0
1, 11400, Note_on_c, 1, 55, 127
1, 11424, Note_off_c, 1, 55, 0
1, 11430, Note_on_c, 1, 58, 127
1, 11454, Note_off_c, 1, 58, 0
1, 11460, Note_on_c, 1, 57, 127
1, 11484, Note_off_c, 1, 57, 0
1, 11490, Note_on_c, 1, 55, 127
1, 11514, Note_off_c, 1, 55, 0
1, 11520, Note_on_c, 1, 57, 127
1, 11520, Note_on_c, 1, 41, 127
1, 11550, Note_on_c, 1, 69, 127
1, 11574, Note_off_c, 1, 69, 0
1, 11580, Note_on_c, 1, 67, 127
1, 11604, Note_off_c, 1, 67, 0
1, 11616, Note_off_c, 1, 57, 0
1, 11616, Note_off_c, 1, 41, 0
1, 11640, Note_on_c, 1, 74, 127
1, 11670, Note_on_c, 1, 53, 127
1, 11688, Note_off_c, 1, 74, 0
1, 11694, Note_off_c, 1, 53, 0
1, 11700, Note_on_c, 1, 72, 127
1, 11700, Note_on_c, 1, 52, 127
1, 11724, Note_off_c, 1, 52, 0
1, 11730, Note_on_c, 1, 53, 127
1, 11754, Note_off_c, 1, 53, 0
1, 11760, Note_on_c, 1, 57, 127
1, 11760, Note_on_c, 1, 42, 127
1, 11784, Note_off_c, 1, 72, 0
1, 11790, Note_on_c, 1, 71, 127
1, 11808, Note_off_c, 1, 57, 0
1, 11814, Note_off_c, 1, 71, 0
1, 11820, Note_on_c, 1, 69, 127
1, 11820, Note_on_c, 1, 62, 127
1, 11844, Note_off_c, 1, 69, 0
1, 11856, Note_off_c, 1, 42, 0
1, 11880, Note_on_c, 1, 43, 127
1, 11904, Note_off_c, 1, 62, 0
1, 11910, Note_on_c, 1, 59, 127
1, 11934, Note_off_c, 1, 59, 0
1, 11976, Note_off_c, 1, 43, 0
1, 12000, Note_on_c, 1, 64, 127
1, 12030, Note_on_c, 1, 67, 127
1, 12048, Note_off_c, 1, 64, 0
1, 12054, Note_off_c, 1, 67, 0
1, 12060, Note_on_c, 1, 66, 127
1, 12060, Note_on_c, 1, 62, 127
1, 12084, Note_off_c, 1, 66, 0
1, 12090, Note_on_c, 1, 67, 127
1, 12114, Note_off_c, 1, 67, 0
1, 12120, Note_on_c, 1, 71, 127
1, 12120, Note_on_c, 1, 44, 127
1, 12144, Note_off_c, 1, 62, 0
1, 12150, Note_on_c, 1, 60, 127
1, 12168, Note_off_c, 1, 71, 0
1, 12174, Note_off_c, 1, 60, 0
1, 12180, Note_on_c, 1, 76, 127
1, 12180, Note_on_c, 1, 59, 127
1, 12204, Note_off_c, 1, 59, 0
1, 12216, Note_off_c, 1, 44, 0
1, 12240, Note_on_c, 1, 45, 127
1, 12264, Note_off_c, 1, 76, 0
1, 12270, Note_on_c, 1, 72, 127
1, 12294, Note_off_c, 1, 72, 0
1, 12336, Note_off_c, 1, 45, 0
1, 12360, Note_on_c, 1, 77, 127
1, 12390, Note_on_c, 1, 57, 127
1, 12408, Note_off_c, 1, 77, 0
1, 12414, Note_off_c, 1, 57, 0
1, 12420, Note_on_c, 1, 76, 127
1, 12420, Note_on_c, 1, 55, 127
1, 12444, Note_off_c, 1, 55, 0
1, 12450, Note_on_c, 1, 57, 127
1, 12474, Note_off_c, 1, 57, 0
1, 12480, Note_on_c, 1, 60, 127
1, 12504, Note_off_c, 1, 76, 0
1, 12510, Note_on_c, 1, 74, 127
1, 12528, Note_off_c, 1, 60, 0
1, 12534, Note_off_c, 1, 74, 0
1, 12540, Note_on_c, 1, 72, 127
1, 12540, Note_on_c, 1, 65, 127
1, 12564, Note_off_c, 1, 72, 0
1, 12600, Note_on_c, 1, 59, 127
1, 12624, Note_off_c, 1, 65, 0
1, 12630, Note_on_c, 1, 62, 127
1, 12654, Note_off_c, 1, 62, 0
1, 12696, Note_off_c, 1, 59, 0
1, 12720, Note_on_c, 1, 67, 127
1, 12750, Note_on_c, 1, 71, 127
1, 12768, Note_off_c, 1, 67, 0
1, 12774, Note_off_c, 1, 71, 0
1, 12780, Note_on_c, 1, 69, 127
1, 12780, Note_on_c, 1, 65, 127
1, 12804, Note_off_c, 1, 69, 0
1, 12810, Note_on_c, 1, 71, 127
1, 12834, Note_off_c, 1, 71, 0
1, 12840, Note_on_c, 1, 74, 127
1, 12840, Note_on_c, 1, 47, 127
1, 12864, Note_off_c, 1, 65, 0
1, 12870, Note_on_c, 1, 64, 127
1, 12888, Note_off_c, 1, 74, 0
1, 12894, Note_off_c, 1, 64, 0
1, 12900, Note_on_c, 1, 79, 127
1, 12900, Note_on_c, 1, 62, 127
1, 12924, Note_off_c, 1, 62, 0
1, 12936, Note_off_c, 1, 47, 0
1, 12960, Note_on_c, 1, 48, 127
1, 13008, Note_off_c, 1, 79, 0
1, 13020, Note_on_c, 1, 84, 127
1, 13050, Note_on_c, 1, 60, 127
1, 13056, Note_off_c, 1, 48, 0
1, 13068, Note_off_c, 1, 84, 0
1, 13074, Note_off_c, 1, 60, 0
1, 13080, Note_on_c, 1, 74, 127
1, 13080, Note_on_c, 1, 59, 127
1, 13104, Note_off_c, 1, 59, 0
1, 13110, Note_on_c, 1, 60, 127
1, 13128, Note_off_c, 1, 74, 0
1, 13134, Note_off_c, 1, 60, 0
1, 13140, Note_on_c, 1, 84, 127
1, 13140, Note_on_c, 1, 65, 127
1, 13164, Note_off_c, 1, 65, 0
1, 13170, Note_on_c, 1, 60, 127
1, 13188, Note_off_c, 1, 84, 0
1, 13194, Note_off_c, 1, 60, 0
1, 13200, Note_on_c, 1, 76, 127
1, 13200, Note_on_c, 1, 59, 127
1, 13224, Note_off_c, 1, 59, 0
1, 13230, Note_on_c, 1, 60, 127
1, 13248, Note_off_c, 1, 76, 0
1, 13254, Note_off_c, 1, 60, 0
1, 13260, Note_on_c, 1, 84, 127
1, 13260, Note_on_c, 1, 67, 127
1, 13284, Note_off_c, 1, 67, 0
1, 13290, Note_on_c, 1, 60, 127
1, 13308, Note_off_c, 1, 84, 0
1, 13314, Note_off_c, 1, 60, 0
1, 13320, Note_on_c, 1, 77, 127
1, 13320, Note_on_c, 1, 59, 127
1, 13344, Note_off_c, 1, 59, 0
1, 13350, Note_on_c, 1, 60, 127
1, 13368, Note_off_c, 1, 77, 0
1, 13374, Note_off_c, 1, 60, 0
1, 13380, Note_on_c, 1, 84, 127
1, 13380, Note_on_c, 1, 69, 127
1, 13404, Note_off_c, 1, 69, 0
1, 13410, Note_on_c, 1, 60, 127
1, 13428, Note_off_c, 1, 84, 0
1, 13434, Note_off_c, 1, 60, 0
1, 13440, Note_on_c, 1, 76, 127
1, 13440, Note_on_c, 1, 59, 127
1, 13464, Note_off_c, 1, 59, 0
1, 13470, Note_on_c, 1, 60, 127
1, 13488, Note_off_c, 1, 76, 0
1, 13494, Note_off_c, 1, 60, 0
1, 13500, Note_on_c, 1, 84, 127
1, 13500, Note_on_c, 1, 67, 127
1, 13524, Note_off_c, 1, 67, 0
1, 13530, Note_on_c, 1, 60, 127
1, 13548, Note_off_c, 1, 84, 0
1, 13554, Note_off_c, 1, 60, 0
1, 13560, Note_on_c, 1, 74, 127
1, 13560, Note_on_c, 1, 59, 127
1, 13584, Note_off_c, 1, 59, 0
1, 13590, Note_on_c, 1, 60, 127
1, 13608, Note_off_c, 1, 74, 0
1, 13614, Note_off_c, 1, 60, 0
1, 13620, Note_on_c, 1, 84, 127
1, 13620, Note_on_c, 1, 65, 127
1, 13644, Note_off_c, 1, 65, 0
1, 13650, Note_on_c, 1, 62, 127
1, 13668, Note_off_c, 1, 84, 0
1, 13674, Note_off_c, 1, 62, 0
1, 13680, Note_on_c, 1, 72, 127
1, 13680, Note_on_c, 1, 64, 127
1, 13680, Note_on_c, 1, 36, 127
1, 13704, Note_off_c, 1, 72, 0
1, 13710, Note_on_c, 1, 74, 127
1, 13728, Note_off_c, 1, 64, 0
1, 13734, Note_off_c, 1, 74, 0
1, 13740, Note_on_c, 1, 76, 127
1, 13764, Note_off_c, 1, 76, 0
1, 13800, Note_on_c, 1, 71, 127
1, 13800, Note_on_c, 1, 62, 127
1, 13824, Note_off_c, 1, 71, 0
1, 13848, Note_off_c, 1, 62, 0
1, 13860, Note_on_c, 1, 77, 127
1, 13872, Note_off_c, 1, 36, 0
1, 13884, Note_off_c, 1, 77, 0
1, 13920, Note_on_c, 1, 71, 127
1, 13920, Note_on_c, 1, 64, 127
1, 13944, Note_off_c, 1, 71, 0
1, 13950, Note_on_c, 1, 72, 127
1, 13968, Note_off_c, 1, 64, 0
1, 13974, Note_off_c, 1, 72, 0
1, 13980, Note_on_c, 1, 79, 127
1, 13980, Note_on_c, 1, 72, 127
1, 14004, Note_off_c, 1, 79, 0
1, 14034, Note_off_c, 1, 72, 0
1, 14040, Note_on_c, 1, 71, 127
1, 14040, Note_on_c, 1, 65, 127
1, 14064, Note_off_c, 1, 71, 0
1, 14070, Note_on_c, 1, 72, 127
1, 14088, Note_off_c, 1, 65, 0
1, 14094, Note_off_c, 1, 72, 0
1, 14100, Note_on_c, 1, 81, 127
1, 14100, Note_on_c, 1, 72, 127
1, 14124, Note_off_c, 1, 81, 0
1, 14154, Note_off_c, 1, 72, 0
1, 14160, Note_on_c, 1, 71, 127
1, 14160, Note_on_c, 1, 64, 127
1, 14184, Note_off_c, 1, 71, 0
1, 14190, Note_on_c, 1, 72, 127
1, 14208, Note_off_c, 1, 64, 0
1, 14214, Note_off_c, 1, 72, 0
1, 14220, Note_on_c, 1, 79, 127
1, 14220, Note_on_c, 1, 72, 127
1, 14244, Note_off_c, 1, 79, 0
1, 14274, Note_off_c, 1, 72, 0
1, 14280, Note_on_c, 1, 71, 127
1, 14280, Note_on_c, 1, 62, 127
1, 14304, Note_off_c, 1, 71, 0
1, 14310, Note_on_c, 1, 72, 127
1, 14328, Note_off_c, 1, 62, 0
1, 14334, Note_off_c, 1, 72, 0
1, 14340, Note_on_c, 1, 77, 127
1, 14340, Note_on_c, 1, 72, 127
1, 14364, Note_off_c, 1, 77, 0
1, 14370, Note_on_c, 1, 74, 127
1, 14388, Note_off_c, 1, 72, 0
1, 14394, Note_off_c, 1, 74, 0
1, 14400, Note_on_c, 1, 76, 127
1, 14400, Note_on_c, 1, 60, 127
1, 14400, Note_on_c, 1, 48, 127
1, 14448, Note_off_c, 1, 60, 0
1, 14460, Note_on_c, 1, 64, 127
1, 14484, Note_off_c, 1, 64, 0
1, 14490, Note_on_c, 1, 67, 127
1, 14514, Note_off_c, 1, 67, 0
1, 14520, Note_on_c, 1, 69, 127
1, 14544, Note_off_c, 1, 76, 0
1, 14550, Note_on_c, 1, 74, 127
1, 14574, Note_off_c, 1, 74, 0
1, 14580, Note_on_c, 1, 72, 127
1, 14592, Note_off_c, 1, 48, 0
1, 14604, Note_off_c, 1, 72, 0
1, 14633, Note_off_c, 1, 69, 0
1, 14640, Note_on_c, 1, 76, 127
1, 14640, Note_on_c, 1, 36, 127
1, 14664, Note_off_c, 1, 76, 0
1, 14670, Note_on_c, 1, 77, 127
1, 14694, Note_off_c, 1, 77, 0
1, 14700, Note_on_c, 1, 79, 127
1, 14724, Note_off_c, 1, 79, 0
1, 14730, Note_on_c, 1, 81, 127
1, 14736, Note_off_c, 1, 36, 0
1, 14754, Note_off_c, 1, 81, 0
1, 14760, Note_on_c, 1, 77, 127
1, 14760, Note_on_c, 1, 60, 127
1, 14760, Note_on_c, 1, 38, 127
1, 14856, Note_off_c, 1, 60, 0
1, 14880, Note_on_c, 1, 59, 127
1, 14904, Note_off_c, 1, 77, 0
1, 14910, Note_on_c, 1, 76, 127
1, 14934, Note_off_c, 1, 76, 0
1, 14940, Note_on_c, 1, 74, 127
1, 14952, Note_off_c, 1, 38, 0
1, 14964, Note_off_c, 1, 74, 0
1, 14976, Note_off_c, 1, 59, 0
1, 15000, Note_on_c, 1, 77, 127
1, 15000, Note_on_c, 1, 50, 127
1, 15024, Note_off_c, 1, 77, 0
1, 15030, Note_on_c, 1, 79, 127
1, 15054, Note_off_c, 1, 79, 0
1, 15060, Note_on_c, 1, 81, 127
1, 15084, Note_off_c, 1, 81, 0
1, 15090, Note_on_c, 1, 83, 127
1, 15096, Note_off_c, 1, 50, 0
1, 15114, Note_off_c, 1, 83, 0
1, 15120, Note_on_c, 1, 79, 127
1, 15120, Note_on_c, 1, 60, 127
1, 15120, Note_on_c, 1, 52, 127
1, 15168, Note_off_c, 1, 60, 0
1, 15180, Note_on_c, 1, 64, 127
1, 15204, Note_off_c, 1, 64, 0
1, 15210, Note_on_c, 1, 67, 127
1, 15234, Note_off_c, 1, 67, 0
1, 15240, Note_on_c, 1, 72, 127
1, 15264, Note_off_c, 1, 79, 0
1, 15270, Note_on_c, 1, 77, 127
1, 15288, Note_off_c, 1, 72, 0
1, 15294, Note_off_c, 1, 77, 0
1, 15300, Note_on_c, 1, 81, 127
1, 15312, Note_off_c, 1, 52, 0
1, 15324, Note_off_c, 1, 81, 0
1, 15360, Note_on_c, 1, 77, 127
1, 15360, Note_on_c, 1, 72, 127
1, 15360, Note_on_c, 1, 53, 127
1, 15384, Note_off_c, 1, 77, 0
1, 15390, Note_on_c, 1, 76, 127
1, 15408, Note_off_c, 1, 72, 0
1, 15414, Note_off_c, 1, 76, 0
1, 15420, Note_on_c, 1, 74, 127
1, 15444, Note_off_c, 1, 74, 0
1, 15456, Note_off_c, 1, 53, 0
1, 15480, Note_on_c, 1, 55, 127
1, 15540, Note_on_c, 1, 71, 127
1, 15564, Note_off_c, 1, 71, 0
1, 15570, Note_on_c, 1, 69, 127
1, 15576, Note_off_c, 1, 55, 0
1, 15594, Note_off_c, 1, 69, 0
1, 15600, Note_on_c, 1, 71, 127
1, 15600, Note_on_c, 1, 53, 127
1, 15648, Note_off_c, 1, 71, 0
1, 15660, Note_on_c, 1, 62, 127
1, 15696, Note_off_c, 1, 53, 0
1, 15708, Note_off_c, 1, 62, 0
1, 15720, Note_on_c, 1, 79, 127
1, 15720, Note_on_c, 1, 60, 127
1, 15720, Note_on_c, 1, 52, 127
1, 15768, Note_off_c, 1, 60, 0
1, 15780, Note_on_c, 1, 70, 127
1, 15816, Note_off_c, 1, 79, 0
1, 15816, Note_off_c, 1, 52, 0
1, 15840, Note_on_c, 1, 72, 127
1, 15840, Note_on_c, 1, 53, 127
1, 15888, Note_off_c, 1, 70, 0
1, 15900, Note_on_c, 1, 69, 127
1, 15924, Note_off_c, 1, 69, 0
1, 15930, Note_on_c, 1, 67, 127
1, 15936, Note_off_c, 1, 72, 0
1, 15936, Note_off_c, 1, 53, 0
1, 15954, Note_off_c, 1, 67, 0
1, 15960, Note_on_c, 1, 69, 127
1, 15960, Note_on_c, 1, 52, 127
1, 16008, Note_off_c, 1, 69, 0
1, 16020, Note_on_c, 1, 60, 127
1, 16056, Note_off_c, 1, 52, 0
1, 16068, Note_off_c, 1, 60, 0
1, 16080, Note_on_c, 1, 77, 127
1, 16080, Note_on_c, 1, 59, 127
1, 16080, Note_on_c, 1, 50, 127
1, 16128, Note_off_c, 1, 59, 0
1, 16140, Note_on_c, 1, 69, 127
1, 16176, Note_off_c, 1, 50, 0
1, 16188, Note_off_c, 1, 69, 0
1, 16200, Note_on_c, 1, 67, 127
1, 16200, Note_on_c, 1, 52, 127
1, 16224, Note_off_c, 1, 67, 0
1, 16230, Note_on_c, 1, 65, 127
1, 16248, Note_off_c, 1, 77, 0
1, 16254, Note_off_c, 1, 65, 0
1, 16260, Note_on_c, 1, 76, 127
1, 16296, Note_off_c, 1, 52, 0
1, 16308, Note_off_c, 1, 76, 0
1, 16320, Note_on_c, 1, 74, 127
1, 16320, Note_on_c, 1, 65, 127
1, 16320, Note_on_c, 1, 53, 127
1, 16344, Note_off_c, 1, 74, 0
1, 16344, Note_off_c, 1, 65, 0
1, 16350, Note_on_c, 1, 76, 127
1, 16350, Note_on_c, 1, 64, 127
1, 16374, Note_off_c, 1, 76, 0
1, 16374, Note_off_c, 1, 64, 0
1, 16380, Note_on_c, 1, 77, 127
1, 16380, Note_on_c, 1, 62, 127
1, 16404, Note_off_c, 1, 62, 0
1, 16410, Note_on_c, 1, 60, 127
1, 16416, Note_off_c, 1, 53, 0
1, 16434, Note_off_c, 1, 60, 0
1, 16440, Note_on_c, 1, 59, 127
1, 16440, Note_on_c, 1, 55, 127
1, 16464, Note_off_c, 1, 59, 0
1, 16476, Note_off_c, 1, 77, 0
1, 16500, Note_on_c, 1, 71, 127
1, 16536, Note_off_c, 1, 55, 0
1, 16548, Note_off_c, 1, 71, 0
1, 16560, Note_on_c, 1, 72, 127
1, 16560, Note_on_c, 1, 64, 127
1, 16560, Note_on_c, 1, 48, 127
1, 16584, Note_off_c, 1, 64, 0
1, 16590, Note_on_c, 1, 62, 127
1, 16614, Note_off_c, 1, 62, 0
1, 16620, Note_on_c, 1, 60, 127
1, 16656, Note_off_c, 1, 72, 0
1, 16656, Note_off_c, 1, 48, 0
1, 16776, Note_off_c, 1, 60, 0
1, 16800, Note_on_c, 1, 63, 127
1, 16800, Note_on_c, 1, 58, 127
1, 16848, Note_off_c, 1, 63, 0
1, 16860, Note_on_c, 1, 64, 127
1, 16896, Note_off_c, 1, 58, 0
1, 16908, Note_off_c, 1, 64, 0
1, 16920, Note_on_c, 1, 65, 127
1, 16920, Note_on_c, 1, 57, 127
1, 16968, Note_off_c, 1, 65, 0
1, 16980, Note_on_c, 1, 66, 127
1, 17016, Note_off_c, 1, 57, 0
1, 17040, Note_on_c, 1, 62, 127
1, 17064, Note_off_c, 1, 66, 0
1, 17070, Note_on_c, 1, 67, 127
1, 17094, Note_off_c, 1, 67, 0
1, 17100, Note_on_c, 1, 69, 127
1, 17124, Note_off_c, 1, 69, 0
1, 17130, Note_on_c, 1, 71, 127
1, 17136, Note_off_c, 1, 62, 0
1, 17154, Note_off_c, 1, 71, 0
1, 17160, Note_on_c, 1, 72, 127
1, 17160, Note_on_c, 1, 50, 127
1, 17184, Note_off_c, 1, 72, 0
1, 17190, Note_on_c, 1, 71, 127
1, 17214, Note_off_c, 1, 71, 0
1, 17220, Note_on_c, 1, 69, 127
1, 17244, Note_off_c, 1, 69, 0
1, 17256, Note_off_c, 1, 50, 0
1, 17280, Note_on_c, 1, 67, 127
1, 17280, Note_on_c, 1, 71, 127
1, 17280, Note_on_c, 1, 55, 127
1, 17328, Note_off_c, 1, 67, 0
1, 17370, Note_on_c, 1, 74, 127
1, 17394, Note_off_c, 1, 74, 0
1, 17400, Note_on_c, 1, 76, 127
1, 17424, Note_off_c, 1, 71, 0
1, 17430, Note_on_c, 1, 69, 127
1, 17454, Note_off_c, 1, 69, 0
1, 17472, Note_off_c, 1, 55, 0
1, 17496, Note_off_c, 1, 76, 0
1, 17520, Note_on_c, 1, 71, 127
1, 17520, Note_on_c, 1, 43, 127
1, 17544, Note_off_c, 1, 71, 0
1, 17550, Note_on_c, 1, 72, 127
1, 17574, Note_off_c, 1, 72, 0
1, 17580, Note_on_c, 1, 74, 127
1, 17604, Note_off_c, 1, 74, 0
1, 17610, Note_on_c, 1, 76, 127
1, 17616, Note_off_c, 1, 43, 0
1, 17634, Note_off_c, 1, 76, 0
1, 17640, Note_on_c, 1, 67, 127
1, 17640, Note_on_c, 1, 72, 127
1, 17640, Note_on_c, 1, 45, 127
1, 17736, Note_off_c, 1, 67, 0
1, 17760, Note_on_c, 1, 66, 127
1, 17784, Note_off_c, 1, 72, 0
1, 17790, Note_on_c, 1, 71, 127
1, 17814, Note_off_c, 1, 71, 0
1, 17820, Note_on_c, 1, 69, 127
1, 17832, Note_off_c, 1, 45, 0
1, 17844, Note_off_c, 1, 69, 0
1, 17856, Note_off_c, 1, 66, 0
1, 17880, Note_on_c, 1, 72, 127
1, 17880, Note_on_c, 1, 57, 127
1, 17904, Note_off_c, 1, 72, 0
1, 17910, Note_on_c, 1, 74, 127
1, 17934, Note_off_c, 1, 74, 0
1, 17940, Note_on_c, 1, 76, 127
1, 17964, Note_off_c, 1, 76, 0
1, 17970, Note_on_c, 1, 78, 127
1, 17976, Note_off_c, 1, 57, 0
1, 17994, Note_off_c, 1, 78, 0
1, 18000, Note_on_c, 1, 67, 127
1, 18000, Note_on_c, 1, 74, 127
1, 18000, Note_on_c, 1, 59, 127
1, 18048, Note_off_c, 1, 67, 0
1, 18060, Note_on_c, 1, 71, 127
1, 18084, Note_off_c, 1, 71, 0
1, 18096, Note_off_c, 1, 59, 0
1, 18120, Note_on_c, 1, 79, 127
1, 18120, Note_on_c, 1, 47, 127
1, 18144, Note_off_c, 1, 74, 0
1, 18150, Note_on_c, 1, 72, 127
1, 18168, Note_off_c, 1, 79, 0
1, 18174, Note_off_c, 1, 72, 0
1, 18180, Note_on_c, 1, 76, 127
1, 18204, Note_off_c, 1, 76, 0
1, 18216, Note_off_c, 1, 47, 0
1, 18240, Note_on_c, 1, 79, 127
1, 18240, Note_on_c, 1, 72, 127
1, 18240, Note_on_c, 1, 48, 127
1, 18264, Note_off_c, 1, 72, 0
1, 18270, Note_on_c, 1, 71, 127
1, 18288, Note_off_c, 1, 79, 0
1, 18294, Note_off_c, 1, 71, 0
1, 18300, Note_on_c, 1, 69, 127
1, 18324, Note_off_c, 1, 69, 0
1, 18330, Note_on_c, 1, 67, 127
1, 18336, Note_off_c, 1, 48, 0
1, 18354, Note_off_c, 1, 67, 0
1, 18360, Note_on_c, 1, 50, 127
1, 18420, Note_on_c, 1, 78, 127
1, 18444, Note_off_c, 1, 78, 0
1, 18450, Note_on_c, 1, 76, 127
1, 18456, Note_off_c, 1, 50, 0
1, 18474, Note_off_c, 1, 76, 0
1, 18480, Note_on_c, 1, 78, 127
1, 18480, Note_on_c, 1, 48, 127
1, 18528, Note_off_c, 1, 78, 0
1, 18540, Note_on_c, 1, 69, 127
1, 18576, Note_off_c, 1, 48, 0
1, 18588, Note_off_c, 1, 69, 0
1, 18600, Note_on_c, 1, 67, 127
1, 18600, Note_on_c, 1, 74, 127
1, 18600, Note_on_c, 1, 47, 127
1, 18648, Note_off_c, 1, 67, 0
1, 18660, Note_on_c, 1, 77, 127
1, 18696, Note_off_c, 1, 74, 0
1, 18696, Note_off_c, 1, 47, 0
1, 18720, Note_on_c, 1, 48, 127
1, 18768, Note_off_c, 1, 77, 0
1, 18780, Note_on_c, 1, 76, 127
1, 18804, Note_off_c, 1, 76, 0
1, 18816, Note_off_c, 1, 48, 0
1, 18840, Note_on_c, 1, 76, 127
1, 18840, Note_on_c, 1, 47, 127
1, 18888, Note_off_c, 1, 76, 0
1, 18900, Note_on_c, 1, 67, 127
1, 18936, Note_off_c, 1, 47, 0
1, 18948, Note_off_c, 1, 67, 0
1, 18960, Note_on_c, 1, 66, 127
1, 18960, Note_on_c, 1, 72, 127
1, 18960, Note_on_c, 1, 45, 127
1, 19008, Note_off_c, 1, 66, 0
1, 19020, Note_on_c, 1, 76, 127
1, 19056, Note_off_c, 1, 45, 0
1, 19068, Note_off_c, 1, 76, 0
1, 19080, Note_on_c, 1, 74, 127
1, 19080, Note_on_c, 1, 47, 127
1, 19104, Note_off_c, 1, 74, 0
1, 19134, Note_off_c, 1, 72, 0
1, 19140, Note_on_c, 1, 71, 127
1, 19176, Note_off_c, 1, 47, 0
1, 19188, Note_off_c, 1, 71, 0
1, 19200, Note_on_c, 1, 72, 127
1, 19200, Note_on_c, 1, 69, 127
1, 19200, Note_on_c, 1, 48, 127
1, 19224, Note_off_c, 1, 72, 0
1, 19224, Note_off_c, 1, 69, 0
1, 19230, Note_on_c, 1, 71, 127
1, 19254, Note_off_c, 1, 71, 0
1, 19290, Note_on_c, 1, 67, 127
1, 19296, Note_off_c, 1, 48, 0
1, 19314, Note_off_c, 1, 67, 0
1, 19320, Note_on_c, 1, 66, 127
1, 19320, Note_on_c, 1, 50, 127
1, 19344, Note_off_c, 1, 66, 0
1, 19416, Note_off_c, 1, 50, 0
1, 19440, Note_on_c, 1, 71, 127
1, 19440, Note_on_c, 1, 67, 127
1, 19440, Note_on_c, 1, 43, 127
1, 19464, Note_off_c, 1, 71, 0
1, 19470, Note_on_c, 1, 69, 127
1, 19494, Note_off_c, 1, 69, 0
1, 19536, Note_off_c, 1, 43, 0
1, 19560, Note_on_c, 1, 55, 127
1, 19596, Note_off_c, 1, 67, 0
1, 19656, Note_off_c, 1, 55, 0
1, 19680, Note_on_c, 1, 70, 127
1, 19680, Note_on_c, 1, 53, 127
1, 19728, Note_off_c, 1, 70, 0
1, 19740, Note_on_c, 1, 71, 127
1, 19776, Note_off_c, 1, 53, 0
1, 19788, Note_off_c, 1, 71, 0
1, 19800, Note_on_c, 1, 72, 127
1, 19800, Note_on_c, 1, 52, 127
1, 19848, Note_off_c, 1, 72, 0
1, 19860, Note_on_c, 1, 73, 127
1, 19896, Note_off_c, 1, 52, 0
1, 19920, Note_on_c, 1, 57, 127
1, 19944, Note_off_c, 1, 73, 0
1, 19950, Note_on_c, 1, 74, 127
1, 19974, Note_off_c, 1, 74, 0
1, 19980, Note_on_c, 1, 76, 127
1, 20004, Note_off_c, 1, 76, 0
1, 20010, Note_on_c, 1, 77, 127
1, 20016, Note_off_c, 1, 57, 0
1, 20034, Note_off_c, 1, 77, 0
1, 20040, Note_on_c, 1, 79, 127
1, 20040, Note_on_c, 1, 45, 127
1, 20064, Note_off_c, 1, 79, 0
1, 20070, Note_on_c, 1, 77, 127
1, 20094, Note_off_c, 1, 77, 0
1, 20100, Note_on_c, 1, 76, 127
1, 20124, Note_off_c, 1, 76, 0
1, 20136, Note_off_c, 1, 45, 0
1, 20160, Note_on_c, 1, 77, 127
1, 20160, Note_on_c, 1, 50, 127
1, 20184, Note_off_c, 1, 77, 0
1, 20190, Note_on_c, 1, 62, 127
1, 20214, Note_off_c, 1, 62, 0
1, 20220, Note_on_c, 1, 64, 127
1, 20220, Note_on_c, 1, 69, 127
1, 20244, Note_off_c, 1, 64, 0
1, 20250, Note_on_c, 1, 65, 127
1, 20256, Note_off_c, 1, 50, 0
1, 20274, Note_off_c, 1, 65, 0
1, 20280, Note_on_c, 1, 67, 127
1, 20280, Note_on_c, 1, 52, 127
1, 20304, Note_off_c, 1, 69, 0
1, 20304, Note_off_c, 1, 67, 0
1, 20340, Note_on_c, 1, 71, 127
1, 20364, Note_off_c, 1, 71, 0
1, 20370, Note_on_c, 1, 73, 127
1, 20376, Note_off_c, 1, 52, 0
1, 20394, Note_off_c, 1, 73, 0
1, 20400, Note_on_c, 1, 74, 127
1, 20400, Note_on_c, 1, 62, 127
1, 20400, Note_on_c, 1, 53, 127
1, 20424, Note_off_c, 1, 62, 0
1, 20430, Note_on_c, 1, 60, 127
1, 20454, Note_off_c, 1, 60, 0
1, 20460, Note_on_c, 1, 58, 127
1, 20484, Note_off_c, 1, 58, 0
1, 20490, Note_on_c, 1, 57, 127
1, 20496, Note_off_c, 1, 53, 0
1, 20514, Note_off_c, 1, 57, 0
1, 20520, Note_on_c, 1, 55, 127
1, 20544, Note_off_c, 1, 74, 0
1, 20550, Note_on_c, 1, 72, 127
1, 20574, Note_off_c, 1, 72, 0
1, 20580, Note_on_c, 1, 70, 127
1, 20604, Note_off_c, 1, 70, 0
1, 20610, Note_on_c, 1, 69, 127
1, 20616, Note_off_c, 1, 55, 0
1, 20634, Note_off_c, 1, 69, 0
1, 20640, Note_on_c, 1, 70, 127
1, 20640, Note_on_c, 1, 65, 127
1, 20640, Note_on_c, 1, 43, 127
1, 20664, Note_off_c, 1, 70, 0
1, 20670, Note_on_c, 1, 74, 127
1, 20694, Note_off_c, 1, 74, 0
1, 20700, Note_on_c, 1, 67, 127
1, 20724, Note_off_c, 1, 67, 0
1, 20736, Note_off_c, 1, 65, 0
1, 20736, Note_off_c, 1, 43, 0
1, 20760, Note_on_c, 1, 62, 127
1, 20784, Note_off_c, 1, 62, 0
1, 20790, Note_on_c, 1, 65, 127
1, 20814, Note_off_c, 1, 65, 0
1, 20820, Note_on_c, 1, 64, 127
1, 20844, Note_off_c, 1, 64, 0
1, 20850, Note_on_c, 1, 62, 127
1, 20874, Note_off_c, 1, 62, 0
1, 20880, Note_on_c, 1, 64, 127
1, 20880, Note_on_c, 1, 48, 127
1, 20904, Note_off_c, 1, 64, 0
1, 20910, Note_on_c, 1, 60, 127
1, 20934, Note_off_c, 1, 60, 0
1, 20940, Note_on_c, 1, 62, 127
1, 20940, Note_on_c, 1, 67, 127
1, 20964, Note_off_c, 1, 62, 0
1, 20976, Note_off_c, 1, 48, 0
1, 21000, Note_on_c, 1, 65, 127
1, 21000, Note_on_c, 1, 50, 127
1, 21024, Note_off_c, 1, 67, 0
1, 21024, Note_off_c, 1, 65, 0
1, 21060, Note_on_c, 1, 69, 127
1, 21084, Note_off_c, 1, 69, 0
1, 21090, Note_on_c, 1, 71, 127
1, 21096, Note_off_c, 1, 50, 0
1, 21114, Note_off_c, 1, 71, 0
1, 21120, Note_on_c, 1, 72, 127
1, 21120, Note_on_c, 1, 60, 127
1, 21120, Note_on_c, 1, 52, 127
1, 21144, Note_off_c, 1, 60, 0
1, 21150, Note_on_c, 1, 58, 127
1, 21174, Note_off_c, 1, 58, 0
1, 21180, Note_on_c, 1, 57, 127
1, 21204, Note_off_c, 1, 57, 0
1, 21210, Note_on_c, 1, 55, 127
1, 21216, Note_off_c, 1, 52, 0
1, 21234, Note_off_c, 1, 55, 0
1, 21240, Note_on_c, 1, 53, 127
1, 21264, Note_off_c, 1, 72, 0
1, 21270, Note_on_c, 1, 70, 127
1, 21294, Note_off_c, 1, 70, 0
1, 21300, Note_on_c, 1, 69, 127
1, 21324, Note_off_c, 1, 69, 0
1, 21330, Note_on_c, 1, 67, 127
1, 21336, Note_off_c, 1, 53, 0
1, 21354, Note_off_c, 1, 67, 0
1, 21360, Note_on_c, 1, 69, 127
1, 21360, Note_on_c, 1, 63, 127
1, 21360, Note_on_c, 1, 41, 127
1, 21384, Note_off_c, 1, 69, 0
1, 21390, Note_on_c, 1, 72, 127
1, 21414, Note_off_c, 1, 72, 0
1, 21420, Note_on_c, 1, 65, 127
1, 21444, Note_off_c, 1, 65, 0
1, 21456, Note_off_c, 1, 63, 0
1, 21456, Note_off_c, 1, 41, 0
1, 21480, Note_on_c, 1, 60, 127
1, 21504, Note_off_c, 1, 60, 0
1, 21510, Note_on_c, 1, 63, 127
1, 21534, Note_off_c, 1, 63, 0
1, 21540, Note_on_c, 1, 62, 127
1, 21564, Note_off_c, 1, 62, 0
1, 21570, Note_on_c, 1, 60, 127
1, 21594, Note_off_c, 1, 60, 0
1, 21600, Note_on_c, 1, 62, 127
1, 21600, Note_on_c, 1, 46, 127
1, 21660, Note_on_c, 1, 60, 127
1, 21684, Note_off_c, 1, 60, 0
1, 21696, Note_off_c, 1, 46, 0
1, 21714, Note_off_c, 1, 62, 0
1, 21720, Note_on_c, 1, 67, 127
1, 21750, Note_on_c, 1, 70, 127
1, 21768, Note_off_c, 1, 67, 0
1, 21774, Note_off_c, 1, 70, 0
1, 21780, Note_on_c, 1, 69, 127
1, 21780, Note_on_c, 1, 65, 127
1, 21804, Note_off_c, 1, 69, 0
1, 21810, Note_on_c, 1, 70, 127
1, 21834, Note_off_c, 1, 70, 0
1, 21840, Note_on_c, 1, 74, 127
1, 21840, Note_on_c, 1, 47, 127
1, 21864, Note_off_c, 1, 65, 0
1, 21870, Note_on_c, 1, 64, 127
1, 21888, Note_off_c, 1, 74, 0
1, 21894, Note_off_c, 1, 64, 0
1, 21900, Note_on_c, 1, 79, 127
1, 21900, Note_on_c, 1, 62, 127
1, 21924, Note_off_c, 1, 62, 0
1, 21936, Note_off_c, 1, 47, 0
1, 21960, Note_on_c, 1, 48, 127
1, 21984, Note_off_c, 1, 79, 0
1, 21990, Note_on_c, 1, 76, 127
1, 22014, Note_off_c, 1, 76, 0
1, 22056, Note_off_c, 1, 48, 0
1, 22080, Note_on_c, 1, 81, 127
1, 22110, Note_on_c, 1, 60, 127
1, 22128, Note_off_c, 1, 81, 0
1, 22134, Note_off_c, 1, 60, 0
1, 22140, Note_on_c, 1, 79, 127
1, 22140, Note_on_c, 1, 59, 127
1, 22164, Note_off_c, 1, 59, 0
1, 22170, Note_on_c, 1, 60, 127
1, 22194, Note_off_c, 1, 60, 0
1, 22200, Note_on_c, 1, 64, 127
1, 22200, Note_on_c, 1, 49, 127
1, 22224, Note_off_c, 1, 79, 0
1, 22230, Note_on_c, 1, 77, 127
1, 22248, Note_off_c, 1, 64, 0
1, 22254, Note_off_c, 1, 77, 0
1, 22260, Note_on_c, 1, 76, 127
1, 22260, Note_on_c, 1, 69, 127
1, 22284, Note_off_c, 1, 76, 0
1, 22296, Note_off_c, 1, 49, 0
1, 22320, Note_on_c, 1, 50, 127
1, 22344, Note_off_c, 1, 69, 0
1, 22350, Note_on_c, 1, 65, 127
1, 22374, Note_off_c, 1, 65, 0
1, 22416, Note_off_c, 1, 50, 0
1, 22440, Note_on_c, 1, 70, 127
1, 22488, Note_off_c, 1, 70, 0
1, 22560, Note_on_c, 1, 48, 127
1, 22590, Note_on_c, 1, 67, 127
1, 22614, Note_off_c, 1, 67, 0
1, 22656, Note_off_c, 1, 48, 0
1, 22680, Note_on_c, 1, 46, 127
1, 22710, Note_on_c, 1, 74, 127
1, 22734, Note_off_c, 1, 74, 0
1, 22740, Note_on_c, 1, 73, 127
1, 22764, Note_off_c, 1, 73, 0
1, 22776, Note_off_c, 1, 46, 0
1, 22920, Note_on_c, 1, 58, 127
1, 23016, Note_off_c, 1, 58, 0
1, 23040, Note_on_c, 1, 57, 127
1, 23100, Note_on_c, 1, 81, 127
1, 23148, Note_off_c, 1, 81, 0
1, 23232, Note_off_c, 1, 57, 0
1, 23250, Note_on_c, 1, 62, 127
1, 23274, Note_off_c, 1, 62, 0
1, 23280, Note_on_c, 1, 76, 127
1, 23280, Note_on_c, 1, 61, 127
1, 23304, Note_off_c, 1, 61, 0
1, 23310, Note_on_c, 1, 64, 127
1, 23328, Note_off_c, 1, 76, 0
1, 23334, Note_off_c, 1, 64, 0
1, 23340, Note_on_c, 1, 81, 127
1, 23340, Note_on_c, 1, 61, 127
1, 23364, Note_off_c, 1, 61, 0
1, 23370, Note_on_c, 1, 57, 127
1, 23388, Note_off_c, 1, 81, 0
1, 23394, Note_off_c, 1, 57, 0
1, 23400, Note_on_c, 1, 77, 127
1, 23400, Note_on_c, 1, 62, 127
1, 23424, Note_off_c, 1, 62, 0
1, 23430, Note_on_c, 1, 64, 127
1, 23448, Note_off_c, 1, 77, 0
1, 23454, Note_off_c, 1, 64, 0
1, 23460, Note_on_c, 1, 81, 127
1, 23460, Note_on_c, 1, 62, 127
1, 23484, Note_off_c, 1, 62, 0
1, 23490, Note_on_c, 1, 57, 127
1, 23508, Note_off_c, 1, 81, 0
1, 23514, Note_off_c, 1, 57, 0
1, 23520, Note_on_c, 1, 79, 127
1, 23520, Note_on_c, 1, 64, 127
1, 23544, Note_off_c, 1, 64, 0
1, 23550, Note_on_c, 1, 65, 127
1, 23568, Note_off_c, 1, 79, 0
1, 23574, Note_off_c, 1, 65, 0
1, 23580, Note_on_c, 1, 81, 127
1, 23580, Note_on_c, 1, 64, 127
1, 23604, Note_off_c, 1, 64, 0
1, 23610, Note_on_c, 1, 57, 127
1, 23628, Note_off_c, 1, 81, 0
1, 23634, Note_off_c, 1, 57, 0
1, 23640, Note_on_c, 1, 77, 127
1, 23640, Note_on_c, 1, 62, 127
1, 23664, Note_off_c, 1, 62, 0
1, 23670, Note_on_c, 1, 64, 127
1, 23688, Note_off_c, 1, 77, 0
1, 23694, Note_off_c, 1, 64, 0
1, 23700, Note_on_c, 1, 81, 127
1, 23700, Note_on_c, 1, 62, 127
1, 23724, Note_off_c, 1, 62, 0
1, 23730, Note_on_c, 1, 57, 127
1, 23748, Note_off_c, 1, 81, 0
1, 23754, Note_off_c, 1, 57, 0
1, 23760, Note_on_c, 1, 76, 127
1, 23760, Note_on_c, 1, 61, 127
1, 23760, Note_on_c, 1, 45, 127
1, 23784, Note_off_c, 1, 76, 0
1, 23790, Note_on_c, 1, 81, 127
1, 23808, Note_off_c, 1, 61, 0
1, 23814, Note_off_c, 1, 81, 0
1, 23820, Note_on_c, 1, 79, 127
1, 23820, Note_on_c, 1, 69, 127
1, 23844, Note_off_c, 1, 79, 0
1, 23868, Note_off_c, 1, 69, 0
1, 23880, Note_on_c, 1, 77, 127
1, 23880, Note_on_c, 1, 62, 127
1, 23904, Note_off_c, 1, 77, 0
1, 23928, Note_off_c, 1, 62, 0
1, 23952, Note_off_c, 1, 45, 0
1, 23970, Note_on_c, 1, 74, 127
1, 23994, Note_off_c, 1, 74, 0
1, 24000, Note_on_c, 1, 73, 127
1, 24000, Note_on_c, 1, 64, 127
1, 24024, Note_off_c, 1, 73, 0
1, 24030, Note_on_c, 1, 76, 127
1, 24048, Note_off_c, 1, 64, 0
1, 24054, Note_off_c, 1, 76, 0
1, 24060, Note_on_c, 1, 73, 127
1, 24060, Note_on_c, 1, 69, 127
1, 24084, Note_off_c, 1, 73, 0
1, 24114, Note_off_c, 1, 69, 0
1, 24120, Note_on_c, 1, 74, 127
1, 24120, Note_on_c, 1, 65, 127
1, 24144, Note_off_c, 1, 74, 0
1, 24150, Note_on_c, 1, 76, 127
1, 24168, Note_off_c, 1, 65, 0
1, 24174, Note_off_c, 1, 76, 0
1, 24180, Note_on_c, 1, 74, 127
1, 24180, Note_on_c, 1, 69, 127
1, 24204, Note_off_c, 1, 74, 0
1, 24234, Note_off_c, 1, 69, 0
1, 24240, Note_on_c, 1, 76, 127
1, 24240, Note_on_c, 1, 67, 127
1, 24264, Note_off_c, 1, 76, 0
1, 24270, Note_on_c, 1, 77, 127
1, 24288, Note_off_c, 1, 67, 0
1, 24294, Note_off_c, 1, 77, 0
1, 24300, Note_on_c, 1, 76, 127
1, 24300, Note_on_c, 1, 69, 127
1, 24324, Note_off_c, 1, 76, 0
1, 24354, Note_off_c, 1, 69, 0
1, 24360, Note_on_c, 1, 74, 127
1, 24360, Note_on_c, 1, 65, 127
1, 24384, Note_off_c, 1, 74, 0
1, 24390, Note_on_c, 1, 76, 127
1, 24408, Note_off_c, 1, 65, 0
1, 24414, Note_off_c, 1, 76, 0
1, 24420, Note_on_c, 1, 74, 127
1, 24420, Note_on_c, 1, 69, 127
1, 24444, Note_off_c, 1, 74, 0
1, 24474, Note_off_c, 1, 69, 0
1, 24480, Note_on_c, 1, 73, 127
1, 24480, Note_on_c, 1, 64, 127
1, 24480, Note_on_c, 1, 57, 127
1, 24504, Note_off_c, 1, 73, 0
1, 24510, Note_on_c, 1, 71, 127
1, 24534, Note_off_c, 1, 71, 0
1, 24540, Note_on_c, 1, 69, 127
1, 24552, Note_off_c, 1, 64, 0
1, 24570, Note_on_c, 1, 65, 127
1, 24576, Note_off_c, 1, 57, 0
1, 24594, Note_off_c, 1, 65, 0
1, 24600, Note_on_c, 1, 55, 127
1, 24630, Note_on_c, 1, 62, 127
1, 24654, Note_off_c, 1, 62, 0
1, 24660, Note_on_c, 1, 61, 127
1, 24684, Note_off_c, 1, 61, 0
1, 24690, Note_on_c, 1, 59, 127
1, 24696, Note_off_c, 1, 55, 0
1, 24714, Note_off_c, 1, 59, 0
1, 24720, Note_on_c, 1, 53, 127
1, 24744, Note_off_c, 1, 69, 0
1, 24750, Note_on_c, 1, 67, 127
1, 24774, Note_off_c, 1, 67, 0
1, 24816, Note_off_c, 1, 53, 0
1, 24840, Note_on_c, 1, 72, 127
1, 24840, Note_on_c, 1, 52, 127
1, 24888, Note_off_c, 1, 72, 0
1, 24900, Note_on_c, 1, 73, 127
1, 24936, Note_off_c, 1, 52, 0
1, 24960, Note_on_c, 1, 64, 127
1, 24960, Note_on_c, 1, 57, 127
1, 24984, Note_off_c, 1, 73, 0
1, 24990, Note_on_c, 1, 74, 127
1, 25014, Note_off_c, 1, 74, 0
1, 25020, Note_on_c, 1, 76, 127
1, 25044, Note_off_c, 1, 76, 0
1, 25050, Note_on_c, 1, 77, 127
1, 25056, Note_off_c, 1, 57, 0
1, 25074, Note_off_c, 1, 77, 0
1, 25080, Note_on_c, 1, 79, 127
1, 25080, Note_on_c, 1, 45, 127
1, 25104, Note_off_c, 1, 79, 0
1, 25176, Note_off_c, 1, 45, 0
1, 25200, Note_on_c, 1, 50, 127
1, 25224, Note_off_c, 1, 64, 0
1, 25260, Note_on_c, 1, 56, 127
1, 25284, Note_off_c, 1, 56, 0
1, 25296, Note_off_c, 1, 50, 0
1, 25320, Note_on_c, 1, 62, 127
1, 25320, Note_on_c, 1, 52, 127
1, 25368, Note_off_c, 1, 62, 0
1, 25380, Note_on_c, 1, 60, 127
1, 25416, Note_off_c, 1, 52, 0
1, 25440, Note_on_c, 1, 81, 127
1, 25440, Note_on_c, 1, 54, 127
1, 25464, Note_off_c, 1, 60, 0
1, 25470, Note_on_c, 1, 58, 127
1, 25494, Note_off_c, 1, 58, 0
1, 25500, Note_on_c, 1, 57, 127
1, 25524, Note_off_c, 1, 57, 0
1, 25536, Note_off_c, 1, 54, 0
1, 25560, Note_on_c, 1, 55, 127
1, 25584, Note_off_c, 1, 81, 0
1, 25590, Note_on_c, 1, 74, 127
1, 25614, Note_off_c, 1, 74, 0
1, 25620, Note_on_c, 1, 73, 127
1, 25644, Note_off_c, 1, 73, 0
1, 25680, Note_on_c, 1, 79, 127
1, 25728, Note_off_c, 1, 79, 0
1, 25740, Note_on_c, 1, 77, 127
1, 25752, Note_off_c, 1, 55, 0
1, 25824, Note_off_c, 1, 77, 0
1, 25830, Note_on_c, 1, 75, 127
1, 25854, Note_off_c, 1, 75, 0
1, 25920, Note_on_c, 1, 43, 127
1, 26016, Note_off_c, 1, 43, 0
1, 26040, Note_on_c, 1, 60, 127
1, 26088, Note_off_c, 1, 60, 0
1, 26100, Note_on_c, 1, 58, 127
1, 26160, Note_on_c, 1, 74, 127
1, 26160, Note_on_c, 1, 55, 127
1, 26184, Note_off_c, 1, 58, 0
1, 26190, Note_on_c, 1, 57, 127
1, 26214, Note_off_c, 1, 57, 0
1, 26256, Note_off_c, 1, 74, 0
1, 26280, Note_on_c, 1, 73, 127
1, 26280, Note_on_c, 1, 52, 127
1, 26304, Note_off_c, 1, 52, 0
1, 26376, Note_off_c, 1, 55, 0
1, 26376, Note_off_c, 1, 73, 0
1, 26400, Note_on_c, 1, 76, 127
1, 26400, Note_on_c, 1, 53, 127
1, 26412, Note_off_c, 1, 76, 0
1, 26415, Note_on_c, 1, 74, 127
1, 26427, Note_off_c, 1, 74, 0
1, 26430, Note_on_c, 1, 58, 127
1, 26454, Note_off_c, 1, 58, 0
1, 26460, Note_on_c, 1, 57, 127
1, 26484, Note_off_c, 1, 57, 0
1, 26514, Note_off_c, 1, 53, 0
1, 26520, Note_on_c, 1, 76, 127
1, 26520, Note_on_c, 1, 55, 127
1, 26520, Note_on_c, 1, 49, 127
1, 26544, Note_off_c, 1, 55, 0
1, 26550, Note_on_c, 1, 58, 127
1, 26574, Note_off_c, 1, 58, 0
1, 26580, Note_on_c, 1, 57, 127
1, 26604, Note_off_c, 1, 57, 0
1, 26616, Note_off_c, 1, 76, 0
1, 26616, Note_off_c, 1, 49, 0
1, 26640, Note_on_c, 1, 69, 127
1, 26640, Note_on_c, 1, 53, 127
1, 26640, Note_on_c, 1, 50, 127
1, 26664, Note_off_c, 1, 53, 0
1, 26670, Note_on_c, 1, 52, 127
1, 26694, Note_off_c, 1, 52, 0
1, 26736, Note_off_c, 1, 50, 0
1, 26760, Note_on_c, 1, 48, 127
1, 26784, Note_off_c, 1, 69, 0
1, 26790, Note_on_c, 1, 67, 127
1, 26814, Note_off_c, 1, 67, 0
1, 26820, Note_on_c, 1, 54, 127
1, 26850, Note_on_c, 1, 74, 127
1, 26856, Note_off_c, 1, 48, 0
1, 26868, Note_off_c, 1, 54, 0
1, 26874, Note_off_c, 1, 74, 0
1, 26880, Note_on_c, 1, 62, 127
1, 26880, Note_on_c, 1, 55, 127
1, 26880, Note_on_c, 1, 46, 127
1, 26928, Note_off_c, 1, 55, 0
1, 26940, Note_on_c, 1, 56, 127
1, 26976, Note_off_c, 1, 46, 0
1, 26988, Note_off_c, 1, 56, 0
1, 27000, Note_on_c, 1, 57, 127
1, 27000, Note_on_c, 1, 41, 127
1, 27024, Note_off_c, 1, 57, 0
1, 27048, Note_off_c, 1, 41, 0
1, 27060, Note_on_c, 1, 43, 127
1, 27090, Note_on_c, 1, 58, 127
1, 27108, Note_off_c, 1, 43, 0
1, 27114, Note_off_c, 1, 58, 0
1, 27120, Note_on_c, 1, 53, 127
1, 27120, Note_on_c, 1, 45, 127
1, 27132, Note_off_c, 1, 53, 0
1, 27135, Note_on_c, 1, 52, 127
1, 27144, Note_off_c, 1, 62, 0
1, 27147, Note_off_c, 1, 52, 0
1, 27150, Note_on_c, 1, 61, 127
1, 27174, Note_off_c, 1, 61, 0
1, 27180, Note_on_c, 1, 59, 127
1, 27204, Note_off_c, 1, 59, 0
1, 27300, Note_on_c, 1, 50, 127
1, 27312, Note_off_c, 1, 45, 0
1, 27348, Note_off_c, 1, 50, 0
1, 27360, Note_on_c, 1, 38, 127
1, 27420, Note_on_c, 1, 77, 127
1, 27473, Note_off_c, 1, 38, 0
1, 27504, Note_off_c, 1, 77, 0
1, 27510, Note_on_c, 1, 76, 127
1, 27534, Note_off_c, 1, 76, 0
1, 27540, Note_on_c, 1, 74, 127
1, 27564, Note_off_c, 1, 74, 0
1, 27570, Note_on_c, 1, 72, 127
1, 27594, Note_off_c, 1, 72, 0
1, 27600, Note_on_c, 1, 71, 127
1, 27600, Note_on_c, 1, 65, 127
1, 27624, Note_off_c, 1, 71, 0
1, 27630, Note_on_c, 1, 69, 127
1, 27654, Note_off_c, 1, 69, 0
1, 27696, Note_off_c, 1, 65, 0
1, 27720, Note_on_c, 1, 68, 127
1, 27780, Note_on_c, 1, 64, 127
1, 27816, Note_off_c, 1, 68, 0
1, 27840, Note_on_c, 1, 48, 127
1, 27864, Note_off_c, 1, 64, 0
1, 27900, Note_on_c, 1, 60, 127
1, 27924, Note_off_c, 1, 60, 0
1, 28080, Note_on_c, 1, 54, 127
1, 28104, Note_off_c, 1, 54, 0
1, 28176, Note_off_c, 1, 48, 0
1, 28200, Note_on_c, 1, 47, 127
1, 28296, Note_off_c, 1, 47, 0
1, 28440, Note_on_c, 1, 44, 127
1, 28470, Note_on_c, 1, 81, 127
1, 28494, Note_off_c, 1, 81, 0
1, 28500, Note_on_c, 1, 83, 127
1, 28524, Note_off_c, 1, 83, 0
1, 28530, Note_on_c, 1, 84, 127
1, 28536, Note_off_c, 1, 44, 0
1, 28554, Note_off_c, 1, 84, 0
1, 28560, Note_on_c, 1, 40, 127
1, 28620, Note_on_c, 1, 80, 127
1, 28644, Note_off_c, 1, 80, 0
1, 28650, Note_on_c, 1, 78, 127
1, 28656, Note_off_c, 1, 40, 0
1, 28674, Note_off_c, 1, 78, 0
1, 29040, Note_on_c, 1, 60, 127
1, 29040, Note_on_c, 1, 57, 127
1, 29088, Note_off_c, 1, 60, 0
1, 29100, Note_on_c, 1, 61, 127
1, 29136, Note_off_c, 1, 57, 0
1, 29148, Note_off_c, 1, 61, 0
1, 29160, Note_on_c, 1, 69, 127
1, 29160, Note_on_c, 1, 62, 127
1, 29160, Note_on_c, 1, 59, 127
1, 29256, Note_off_c, 1, 69, 0
1, 29280, Note_on_c, 1, 68, 127
1, 29304, Note_off_c, 1, 62, 0
1, 29310, Note_on_c, 1, 60, 127
1, 29334, Note_off_c, 1, 60, 0
1, 29364, Note_off_c, 1, 59, 0
1, 29376, Note_off_c, 1, 68, 0
1, 29400, Note_on_c, 1, 62, 127
1, 29400, Note_on_c, 1, 47, 127
1, 29448, Note_off_c, 1, 62, 0
1, 29460, Note_on_c, 1, 63, 127
1, 29496, Note_off_c, 1, 47, 0
1, 29508, Note_off_c, 1, 63, 0
1, 29520, Note_on_c, 1, 69, 127
1, 29520, Note_on_c, 1, 64, 127
1, 29520, Note_on_c, 1, 48, 127
1, 29568, Note_off_c, 1, 69, 0
1, 29580, Note_on_c, 1, 72, 127
1, 29604, Note_off_c, 1, 72, 0
1, 29610, Note_on_c, 1, 76, 127
1, 29634, Note_off_c, 1, 76, 0
1, 29640, Note_on_c, 1, 81, 127
1, 29664, Note_off_c, 1, 64, 0
1, 29670, Note_on_c, 1, 62, 127
1, 29688, Note_off_c, 1, 81, 0
1, 29694, Note_off_c, 1, 62, 0
1, 29700, Note_on_c, 1, 65, 127
1, 29712, Note_off_c, 1, 48, 0
1, 29724, Note_off_c, 1, 65, 0
1, 29760, Note_on_c, 1, 81, 127
1, 29760, Note_on_c, 1, 62, 127
1, 29760, Note_on_c, 1, 50, 127
1, 29784, Note_off_c, 1, 62, 0
1, 29790, Note_on_c, 1, 60, 127
1, 29808, Note_off_c, 1, 81, 0
1, 29814, Note_off_c, 1, 60, 0
1, 29820, Note_on_c, 1, 59, 127
1, 29844, Note_off_c, 1, 59, 0
1, 29850, Note_on_c, 1, 57, 127
1, 29856, Note_off_c, 1, 50, 0
1, 29874, Note_off_c, 1, 57, 0
1, 29880, Note_on_c, 1, 52, 127
1, 29940, Note_on_c, 1, 79, 127
1, 29964, Note_off_c, 1, 79, 0
1, 29970, Note_on_c, 1, 77, 127
1, 29976, Note_off_c, 1, 52, 0
1, 29994, Note_off_c, 1, 77, 0
1, 30000, Note_on_c, 1, 79, 127
1, 30000, Note_on_c, 1, 50, 127
1, 30048, Note_off_c, 1, 79, 0
1, 30060, Note_on_c, 1, 70, 127
1, 30096, Note_off_c, 1, 50, 0
1, 30108, Note_off_c, 1, 70, 0
1, 30120, Note_on_c, 1, 69, 127
1, 30120, Note_on_c, 1, 64, 127
1, 30120, Note_on_c, 1, 49, 127
1, 30168, Note_off_c, 1, 69, 0
1, 30180, Note_on_c, 1, 79, 127
1, 30216, Note_off_c, 1, 64, 0
1, 30216, Note_off_c, 1, 49, 0
1, 30228, Note_off_c, 1, 79, 0
1, 30240, Note_on_c, 1, 79, 127
1, 30240, Note_on_c, 1, 57, 127
1, 30240, Note_on_c, 1, 50, 127
1, 30288, Note_off_c, 1, 79, 0
1, 30300, Note_on_c, 1, 77, 127
1, 30324, Note_off_c, 1, 77, 0
1, 30330, Note_on_c, 1, 76, 127
1, 30336, Note_off_c, 1, 57, 0
1, 30336, Note_off_c, 1, 50, 0
1, 30354, Note_off_c, 1, 76, 0
1, 30360, Note_on_c, 1, 77, 127
1, 30360, Note_on_c, 1, 48, 127
1, 30408, Note_off_c, 1, 77, 0
1, 30420, Note_on_c, 1, 69, 127
1, 30456, Note_off_c, 1, 48, 0
1, 30468, Note_off_c, 1, 69, 0
1, 30480, Note_on_c, 1, 68, 127
1, 30480, Note_on_c, 1, 62, 127
1, 30480, Note_on_c, 1, 47, 127
1, 30528, Note_off_c, 1, 68, 0
1, 30540, Note_on_c, 1, 77, 127
1, 30576, Note_off_c, 1, 47, 0
1, 30588, Note_off_c, 1, 77, 0
1, 30600, Note_on_c, 1, 76, 127
1, 30600, Note_on_c, 1, 48, 127
1, 30624, Note_off_c, 1, 76, 0
1, 30630, Note_on_c, 1, 74, 127
1, 30648, Note_off_c, 1, 62, 0
1, 30654, Note_off_c, 1, 74, 0
1, 30660, Note_on_c, 1, 60, 127
1, 30696, Note_off_c, 1, 48, 0
1, 30708, Note_off_c, 1, 60, 0
1, 30720, Note_on_c, 1, 74, 127
1, 30720, Note_on_c, 1, 59, 127
1, 30720, Note_on_c, 1, 50, 127
1, 30744, Note_off_c, 1, 74, 0
1, 30744, Note_off_c, 1, 59, 0
1, 30750, Note_on_c, 1, 72, 127
1, 30750, Note_on_c, 1, 60, 127
1, 30774, Note_off_c, 1, 72, 0
1, 30774, Note_off_c, 1, 60, 0
1, 30780, Note_on_c, 1, 71, 127
1, 30780, Note_on_c, 1, 62, 127
1, 30804, Note_off_c, 1, 71, 0
1, 30810, Note_on_c, 1, 69, 127
1, 30816, Note_off_c, 1, 50, 0
1, 30834, Note_off_c, 1, 69, 0
1, 30840, Note_on_c, 1, 68, 127
1, 30840, Note_on_c, 1, 52, 127
1, 30864, Note_off_c, 1, 68, 0
1, 30876, Note_off_c, 1, 62, 0
1, 30900, Note_on_c, 1, 56, 127
1, 30936, Note_off_c, 1, 52, 0
1, 30948, Note_off_c, 1, 56, 0
1, 30960, Note_on_c, 1, 72, 127
1, 30960, Note_on_c, 1, 57, 127
1, 30960, Note_on_c, 1, 45, 127
1, 30984, Note_off_c, 1, 72, 0
1, 30990, Note_on_c, 1, 71, 127
1, 31014, Note_off_c, 1, 71, 0
1, 31020, Note_on_c, 1, 69, 127
1, 31056, Note_off_c, 1, 57, 0
1, 31056, Note_off_c, 1, 45, 0
1, 31116, Note_off_c, 1, 69, 0
1, 31200, Note_on_c, 1, 72, 127
1, 31200, Note_on_c, 1, 55, 127
1, 31248, Note_off_c, 1, 72, 0
1, 31260, Note_on_c, 1, 73, 127
1, 31296, Note_off_c, 1, 55, 0
1, 31308, Note_off_c, 1, 73, 0
1, 31320, Note_on_c, 1, 74, 127
1, 31320, Note_on_c, 1, 54, 127
1, 31368, Note_off_c, 1, 74, 0
1, 31380, Note_on_c, 1, 75, 127
1, 31416, Note_off_c, 1, 54, 0
1, 31440, Note_on_c, 1, 59, 127
1, 31464, Note_off_c, 1, 75, 0
1, 31470, Note_on_c, 1, 76, 127
1, 31494, Note_off_c, 1, 76, 0
1, 31500, Note_on_c, 1, 78, 127
1, 31524, Note_off_c, 1, 78, 0
1, 31530, Note_on_c, 1, 79, 127
1, 31536, Note_off_c, 1, 59, 0
1, 31554, Note_off_c, 1, 79, 0
1, 31560, Note_on_c, 1, 81, 127
1, 31560, Note_on_c, 1, 47, 127
1, 31584, Note_off_c, 1, 81, 0
1, 31590, Note_on_c, 1, 79, 127
1, 31614, Note_off_c, 1, 79, 0
1, 31620, Note_on_c, 1, 78, 127
1, 31644, Note_off_c, 1, 78, 0
1, 31656, Note_off_c, 1, 47, 0
1, 31680, Note_on_c, 1, 79, 127
1, 31680, Note_on_c, 1, 64, 127
1, 31680, Note_on_c, 1, 52, 127
1, 31728, Note_off_c, 1, 64, 0
1, 31740, Note_on_c, 1, 67, 127
1, 31764, Note_off_c, 1, 67, 0
1, 31770, Note_on_c, 1, 71, 127
1, 31794, Note_off_c, 1, 71, 0
1, 31800, Note_on_c, 1, 72, 127
1, 31824, Note_off_c, 1, 79, 0
1, 31830, Note_on_c, 1, 78, 127
1, 31854, Note_off_c, 1, 78, 0
1, 31860, Note_on_c, 1, 76, 127
1, 31872, Note_off_c, 1, 52, 0
1, 31884, Note_off_c, 1, 76, 0
1, 31896, Note_off_c, 1, 72, 0
1, 31920, Note_on_c, 1, 79, 127
1, 31920, Note_on_c, 1, 40, 127
1, 31968, Note_off_c, 1, 79, 0
1, 31980, Note_on_c, 1, 80, 127
1, 32016, Note_off_c, 1, 40, 0
1, 32028, Note_off_c, 1, 80, 0
1, 32040, Note_on_c, 1, 81, 127
1, 32040, Note_on_c, 1, 64, 127
1, 32040, Note_on_c, 1, 42, 127
1, 32136, Note_off_c, 1, 64, 0
1, 32160, Note_on_c, 1, 63, 127
1, 32184, Note_off_c, 1, 81, 0
1, 32190, Note_on_c, 1, 79, 127
1, 32214, Note_off_c, 1, 79, 0
1, 32220, Note_on_c, 1, 78, 127
1, 32232, Note_off_c, 1, 42, 0
1, 32244, Note_off_c, 1, 78, 0
1, 32256, Note_off_c, 1, 63, 0
1, 32280, Note_on_c, 1, 81, 127
1, 32280, Note_on_c, 1, 54, 127
1, 32328, Note_off_c, 1, 81, 0
1, 32340, Note_on_c, 1, 82, 127
1, 32376, Note_off_c, 1, 54, 0
1, 32388, Note_off_c, 1, 82, 0
1, 32400, Note_on_c, 1, 83, 127
1, 32400, Note_on_c, 1, 64, 127
1, 32400, Note_on_c, 1, 55, 127
1, 32448, Note_off_c, 1, 64, 0
1, 32460, Note_on_c, 1, 67, 127
1, 32484, Note_off_c, 1, 67, 0
1, 32490, Note_on_c, 1, 71, 127
1, 32514, Note_off_c, 1, 71, 0
1, 32520, Note_on_c, 1, 76, 127
1, 32544, Note_off_c, 1, 83, 0
1, 32550, Note_on_c, 1, 81, 127
1, 32568, Note_off_c, 1, 76, 0
1, 32574, Note_off_c, 1, 81, 0
1, 32580, Note_on_c, 1, 84, 127
1, 32592, Note_off_c, 1, 55, 0
1, 32604, Note_off_c, 1, 84, 0
1, 32640, Note_on_c, 1, 81, 127
1, 32640, Note_on_c, 1, 76, 127
1, 32640, Note_on_c, 1, 57, 127
1, 32664, Note_off_c, 1, 81, 0
1, 32670, Note_on_c, 1, 79, 127
1, 32688, Note_off_c, 1, 76, 0
1, 32694, Note_off_c, 1, 79, 0
1, 32700, Note_on_c, 1, 78, 127
1, 32724, Note_off_c, 1, 78, 0
1, 32736, Note_off_c, 1, 57, 0
1, 32760, Note_on_c, 1, 59, 127
1, 32820, Note_on_c, 1, 74, 127
1, 32844, Note_off_c, 1, 74, 0
1, 32850, Note_on_c, 1, 72, 127
1, 32856, Note_off_c, 1, 59, 0
1, 32874, Note_off_c, 1, 72, 0
1, 32880, Note_on_c, 1, 74, 127
1, 32880, Note_on_c, 1, 57, 127
1, 32928, Note_off_c, 1, 74, 0
1, 32940, Note_on_c, 1, 65, 127
1, 32976, Note_off_c, 1, 57, 0
1, 32988, Note_off_c, 1, 65, 0
1, 33000, Note_on_c, 1, 83, 127
1, 33000, Note_on_c, 1, 64, 127
1, 33000, Note_on_c, 1, 56, 127
1, 33048, Note_off_c, 1, 64, 0
1, 33060, Note_on_c, 1, 74, 127
1, 33096, Note_off_c, 1, 83, 0
1, 33096, Note_off_c, 1, 56, 0
1, 33120, Note_on_c, 1, 76, 127
1, 33120, Note_on_c, 1, 57, 127
1, 33168, Note_off_c, 1, 74, 0
1, 33180, Note_on_c, 1, 72, 127
1, 33204, Note_off_c, 1, 72, 0
1, 33210, Note_on_c, 1, 71, 127
1, 33216, Note_off_c, 1, 76, 0
1, 33216, Note_off_c, 1, 57, 0
1, 33234, Note_off_c, 1, 71, 0
1, 33240, Note_on_c, 1, 72, 127
1, 33240, Note_on_c, 1, 55, 127
1, 33288, Note_off_c, 1, 72, 0
1, 33300, Note_on_c, 1, 64, 127
1, 33336, Note_off_c, 1, 55, 0
1, 33348, Note_off_c, 1, 64, 0
1, 33360, Note_on_c, 1, 81, 127
1, 33360, Note_on_c, 1, 63, 127
1, 33360, Note_on_c, 1, 54, 127
1, 33408, Note_off_c, 1, 63, 0
1, 33420, Note_on_c, 1, 72, 127
1, 33456, Note_off_c, 1, 54, 0
1, 33468, Note_off_c, 1, 72, 0
1, 33480, Note_on_c, 1, 71, 127
1, 33480, Note_on_c, 1, 55, 127
1, 33509, Note_off_c, 1, 71, 0
1, 33510, Note_on_c, 1, 69, 127
1, 33528, Note_off_c, 1, 81, 0
1, 33539, Note_off_c, 1, 69, 0
1, 33540, Note_on_c, 1, 79, 127
1, 33576, Note_off_c, 1, 55, 0
1, 33588, Note_off_c, 1, 79, 0
1, 33600, Note_on_c, 1, 78, 127
1, 33600, Note_on_c, 1, 69, 127
1, 33600, Note_on_c, 1, 57, 127
1, 33624, Note_off_c, 1, 78, 0
1, 33629, Note_off_c, 1, 69, 0
1, 33630, Note_on_c, 1, 79, 127
1, 33630, Note_on_c, 1, 67, 127
1, 33654, Note_off_c, 1, 79, 0
1, 33659, Note_off_c, 1, 67, 0
1, 33660, Note_on_c, 1, 81, 127
1, 33660, Note_on_c, 1, 66, 127
1, 33684, Note_off_c, 1, 66, 0
1, 33690, Note_on_c, 1, 64, 127
1, 33696, Note_off_c, 1, 57, 0
1, 33714, Note_off_c, 1, 64, 0
1, 33720, Note_on_c, 1, 63, 127
1, 33720, Note_on_c, 1, 59, 127
1, 33744, Note_off_c, 1, 63, 0
1, 33756, Note_off_c, 1, 81, 0
1, 33780, Note_on_c, 1, 75, 127
1, 33816, Note_off_c, 1, 59, 0
1, 33828, Note_off_c, 1, 75, 0
1, 33840, Note_on_c, 1, 76, 127
1, 33840, Note_on_c, 1, 67, 127
1, 33840, Note_on_c, 1, 52, 127
1, 33864, Note_off_c, 1, 76, 0
1, 33864, Note_off_c, 1, 67, 0
1, 33870, Note_on_c, 1, 78, 127
1, 33870, Note_on_c, 1, 66, 127
1, 33894, Note_off_c, 1, 78, 0
1, 33894, Note_off_c, 1, 66, 0
1, 33900, Note_on_c, 1, 79, 127
1, 33900, Note_on_c, 1, 64, 127
1, 33924, Note_off_c, 1, 79, 0
1, 33930, Note_on_c, 1, 81, 127
1, 33936, Note_off_c, 1, 52, 0
1, 33954, Note_off_c, 1, 81, 0
1, 33960, Note_on_c, 1, 82, 127
1, 33960, Note_on_c, 1, 55, 127
1, 33996, Note_off_c, 1, 64, 0
1, 34020, Note_on_c, 1, 62, 127
1, 34056, Note_off_c, 1, 82, 0
1, 34056, Note_off_c, 1, 55, 0
1, 34068, Note_off_c, 1, 62, 0
1, 34080, Note_on_c, 1, 61, 127
1, 34080, Note_on_c, 1, 57, 127
1, 34128, Note_off_c, 1, 61, 0
1, 34140, Note_on_c, 1, 73, 127
1, 34140, Note_on_c, 1, 67, 127
1, 34176, Note_off_c, 1, 57, 0
1, 34188, Note_off_c, 1, 73, 0
1, 34188, Note_off_c, 1, 67, 0
1, 34200, Note_on_c, 1, 74, 127
1, 34200, Note_on_c, 1, 65, 127
1, 34200, Note_on_c, 1, 50, 127
1, 34224, Note_off_c, 1, 74, 0
1, 34224, Note_off_c, 1, 65, 0
1, 34230, Note_on_c, 1, 76, 127
1, 34230, Note_on_c, 1, 64, 127
1, 34254, Note_off_c, 1, 76, 0
1, 34254, Note_off_c, 1, 64, 0
1, 34260, Note_on_c, 1, 77, 127
1, 34260, Note_on_c, 1, 62, 127
1, 34284, Note_off_c, 1, 77, 0
1, 34290, Note_on_c, 1, 79, 127
1, 34296, Note_off_c, 1, 50, 0
1, 34314, Note_off_c, 1, 79, 0
1, 34320, Note_on_c, 1, 80, 127
1, 34320, Note_on_c, 1, 53, 127
1, 34356, Note_off_c, 1, 62, 0
1, 34380, Note_on_c, 1, 60, 127
1, 34416, Note_off_c, 1, 80, 0
1, 34416, Note_off_c, 1, 53, 0
1, 34428, Note_off_c, 1, 60, 0
1, 34440, Note_on_c, 1, 59, 127
1, 34440, Note_on_c, 1, 55, 127
1, 34488, Note_off_c, 1, 59, 0
1, 34500, Note_on_c, 1, 71, 127
1, 34500, Note_on_c, 1, 65, 127
1, 34536, Note_off_c, 1, 55, 0
1, 34548, Note_off_c, 1, 71, 0
1, 34548, Note_off_c, 1, 65, 0
1, 34560, Note_on_c, 1, 72, 127
1, 34560, Note_on_c, 1, 64, 127
1, 34560, Note_on_c, 1, 48, 127
1, 34584, Note_off_c, 1, 64, 0
1, 34590, Note_on_c, 1, 62, 127
1, 34608, Note_off_c, 1, 72, 0
1, 34614, Note_off_c, 1, 62, 0
1, 34620, Note_on_c, 1, 76, 127
1, 34620, Note_on_c, 1, 60, 127
1, 34644, Note_off_c, 1, 76, 0
1, 34650, Note_on_c, 1, 79, 127
1, 34656, Note_off_c, 1, 48, 0
1, 34674, Note_off_c, 1, 79, 0
1, 34680, Note_on_c, 1, 84, 127
1, 34680, Note_on_c, 1, 47, 127
1, 34716, Note_off_c, 1, 60, 0
1, 34776, Note_off_c, 1, 84, 0
1, 34776, Note_off_c, 1, 47, 0
1, 34800, Note_on_c, 1, 65, 127
1, 34800, Note_on_c, 1, 45, 127
1, 34830, Note_on_c, 1, 72, 127
1, 34848, Note_off_c, 1, 65, 0
1, 34854, Note_off_c, 1, 72, 0
1, 34860, Note_on_c, 1, 74, 127
1, 34860, Note_on_c, 1, 66, 127
1, 34884, Note_off_c, 1, 74, 0
1, 34890, Note_on_c, 1, 76, 127
1, 34896, Note_off_c, 1, 45, 0
1, 34908, Note_off_c, 1, 66, 0
1, 34914, Note_off_c, 1, 76, 0
1, 34920, Note_on_c, 1, 74, 127
1, 34920, Note_on_c, 1, 67, 127
1, 34920, Note_on_c, 1, 47, 127
1, 34944, Note_off_c, 1, 74, 0
1, 34950, Note_on_c, 1, 72, 127
1, 34968, Note_off_c, 1, 67, 0
1, 34974, Note_off_c, 1, 72, 0
1, 34980, Note_on_c, 1, 71, 127
1, 34980, Note_on_c, 1, 68, 127
1, 35004, Note_off_c, 1, 71, 0
1, 35016, Note_off_c, 1, 47, 0
1, 35040, Note_on_c, 1, 83, 127
1, 35040, Note_on_c, 1, 52, 127
1, 35064, Note_off_c, 1, 68, 0
1, 35070, Note_on_c, 1, 69, 127
1, 35094, Note_off_c, 1, 69, 0
1, 35136, Note_off_c, 1, 52, 0
1, 35160, Note_on_c, 1, 40, 127
1, 35256, Note_off_c, 1, 40, 0
1, 35280, Note_on_c, 1, 45, 127
1, 35304, Note_off_c, 1, 83, 0
1, 35310, Note_on_c, 1, 76, 127
1, 35334, Note_off_c, 1, 76, 0
1, 35376, Note_off_c, 1, 45, 0
1, 35400, Note_on_c, 1, 81, 127
1, 35400, Note_on_c, 1, 47, 127
1, 35448, Note_off_c, 1, 81, 0
1, 35460, Note_on_c, 1, 79, 127
1, 35496, Note_off_c, 1, 47, 0
1, 35520, Note_on_c, 1, 76, 127
1, 35520, Note_on_c, 1, 49, 127
1, 35544, Note_off_c, 1, 79, 0
1, 35550, Note_on_c, 1, 77, 127
1, 35574, Note_off_c, 1, 77, 0
1, 35616, Note_off_c, 1, 49, 0
1, 35640, Note_on_c, 1, 50, 127
1, 35664, Note_off_c, 1, 76, 0
1, 35670, Note_on_c, 1, 69, 127
1, 35694, Note_off_c, 1, 69, 0
1, 35700, Note_on_c, 1, 67, 127
1, 35724, Note_off_c, 1, 67, 0
1, 35760, Note_on_c, 1, 74, 127
1, 35808, Note_off_c, 1, 74, 0
1, 35820, Note_on_c, 1, 72, 127
1, 35832, Note_off_c, 1, 50, 0
1, 35904, Note_off_c, 1, 72, 0
1, 35910, Note_on_c, 1, 70, 127
1, 35934, Note_off_c, 1, 70, 0
1, 36000, Note_on_c, 1, 38, 127
1, 36060, Note_on_c, 1, 73, 127
1, 36084, Note_off_c, 1, 73, 0
1, 36096, Note_off_c, 1, 38, 0
1, 36120, Note_on_c, 1, 79, 127
1, 36168, Note_off_c, 1, 79, 0
1, 36180, Note_on_c, 1, 77, 127
1, 36240, Note_on_c, 1, 69, 127
1, 36240, Note_on_c, 1, 50, 127
1, 36264, Note_off_c, 1, 77, 0
1, 36270, Note_on_c, 1, 76, 127
1, 36294, Note_off_c, 1, 76, 0
1, 36300, Note_on_c, 1, 74, 127
1, 36324, Note_off_c, 1, 74, 0
1, 36336, Note_off_c, 1, 69, 0
1, 36360, Note_on_c, 1, 71, 127
1, 36360, Note_on_c, 1, 68, 127
1, 36384, Note_off_c, 1, 71, 0
1, 36456, Note_off_c, 1, 50, 0
1, 36456, Note_off_c, 1, 68, 0
1, 36480, Note_on_c, 1, 72, 127
1, 36480, Note_on_c, 1, 69, 127
1, 36480, Note_on_c, 1, 48, 127
1, 36504, Note_off_c, 1, 72, 0
1, 36510, Note_on_c, 1, 77, 127
1, 36534, Note_off_c, 1, 77, 0
1, 36540, Note_on_c, 1, 76, 127
1, 36564, Note_off_c, 1, 76, 0
1, 36576, Note_off_c, 1, 69, 0
1, 36576, Note_off_c, 1, 48, 0
1, 36600, Note_on_c, 1, 74, 127
1, 36600, Note_on_c, 1, 71, 127
1, 36600, Note_on_c, 1, 44, 127
1, 36624, Note_off_c, 1, 74, 0
1, 36630, Note_on_c, 1, 77, 127
1, 36654, Note_off_c, 1, 77, 0
1, 36660, Note_on_c, 1, 76, 127
1, 36684, Note_off_c, 1, 76, 0
1, 36696, Note_off_c, 1, 71, 0
1, 36696, Note_off_c, 1, 44, 0
1, 36720, Note_on_c, 1, 72, 127
1, 36720, Note_on_c, 1, 64, 127
1, 36720, Note_on_c, 1, 45, 127
1, 36744, Note_off_c, 1, 72, 0
1, 36750, Note_on_c, 1, 71, 127
1, 36774, Note_off_c, 1, 71, 0
1, 36780, Note_on_c, 1, 69, 127
1, 36804, Note_off_c, 1, 69, 0
1, 36816, Note_off_c, 1, 45, 0
1, 36840, Note_on_c, 1, 43, 127
1, 36864, Note_off_c, 1, 64, 0
1, 36870, Note_on_c, 1, 62, 127
1, 36894, Note_off_c, 1, 62, 0
1, 36900, Note_on_c, 1, 73, 127
1, 36936, Note_off_c, 1, 43, 0
1, 36948, Note_off_c, 1, 73, 0
1, 36960, Note_on_c, 1, 74, 127
1, 36960, Note_on_c, 1, 57, 127
1, 36960, Note_on_c, 1, 41, 127
1, 37008, Note_off_c, 1, 74, 0
1, 37020, Note_on_c, 1, 75, 127
1, 37056, Note_off_c, 1, 41, 0
1, 37068, Note_off_c, 1, 75, 0
1, 37080, Note_on_c, 1, 76, 127
1, 37080, Note_on_c, 1, 48, 127
1, 37104, Note_off_c, 1, 76, 0
1, 37128, Note_off_c, 1, 48, 0
1, 37140, Note_on_c, 1, 50, 127
1, 37170, Note_on_c, 1, 77, 127
1, 37188, Note_off_c, 1, 50, 0
1, 37194, Note_off_c, 1, 77, 0
1, 37200, Note_on_c, 1, 72, 127
1, 37200, Note_on_c, 1, 52, 127
1, 37212, Note_off_c, 1, 72, 0
1, 37215, Note_on_c, 1, 71, 127
1, 37224, Note_off_c, 1, 57, 0
1, 37227, Note_off_c, 1, 71, 0
1, 37230, Note_on_c, 1, 56, 127
1, 37254, Note_off_c, 1, 56, 0
1, 37260, Note_on_c, 1, 54, 127
1, 37284, Note_off_c, 1, 54, 0
1, 37296, Note_off_c, 1, 52, 0
1, 37320, Note_on_c, 1, 72, 127
1, 37320, Note_on_c, 1, 57, 127
1, 37320, Note_on_c, 1, 40, 127
1, 37332, Note_off_c, 1, 72, 0
1, 37332, Note_off_c, 1, 57, 0
1, 37335, Note_on_c, 1, 71, 127
1, 37335, Note_on_c, 1, 56, 127
1, 37347, Note_off_c, 1, 71, 0
1, 37347, Note_off_c, 1, 56, 0
1, 37380, Note_on_c, 1, 69, 127
1, 37416, Note_off_c, 1, 40, 0
1, 37440, Note_on_c, 1, 45, 127
1, 37488, Note_off_c, 1, 69, 0
1, 37500, Note_on_c, 1, 77, 127
1, 37560, Note_on_c, 1, 60, 127
1, 37596, Note_off_c, 1, 77, 0
1, 37620, Note_on_c, 1, 75, 127
1, 37632, Note_off_c, 1, 45, 0
1, 37656, Note_off_c, 1, 60, 0
1, 37680, Note_on_c, 1, 59, 127
1, 37680, Note_on_c, 1, 43, 127
1, 37716, Note_off_c, 1, 75, 0
1, 37740, Note_on_c, 1, 76, 127
1, 37776, Note_off_c, 1, 59, 0
1, 37776, Note_off_c, 1, 43, 0
1, 37800, Note_on_c, 1, 41, 127
1, 37824, Note_off_c, 1, 76, 0
1, 37830, Note_on_c, 1, 74, 127
1, 37854, Note_off_c, 1, 74, 0
1, 37920, Note_on_c, 1, 64, 127
1, 38016, Note_off_c, 1, 64, 0
1, 38055, Note_on_c, 1, 62, 127
1, 38067, Note_off_c, 1, 62, 0
1, 38088, Note_off_c, 1, 41, 0
1, 38100, Note_on_c, 1, 72, 127
1, 38100, Note_on_c, 1, 64, 127
1, 38112, Note_off_c, 1, 64, 0
1, 38115, Note_on_c, 1, 62, 127
1, 38124, Note_off_c, 1, 72, 0
1, 38127, Note_off_c, 1, 62, 0
1, 38130, Note_on_c, 1, 69, 127
1, 38130, Note_on_c, 1, 64, 127
1, 38142, Note_off_c, 1, 64, 0
1, 38145, Note_on_c, 1, 62, 127
1, 38154, Note_off_c, 1, 69, 0
1, 38157, Note_off_c, 1, 62, 0
1, 38160, Note_on_c, 1, 68, 127
1, 38160, Note_on_c, 1, 64, 127
1, 38160, Note_on_c, 1, 40, 127
1, 38736, Note_off_c, 1, 68, 0
1, 38736, Note_off_c, 1, 64, 0
1, 38736, Note_off_c, 1, 40, 0
1, 38736, End_track
0, 0, End_of_file