0, 0, Header, 1, 1, 480
1, 0, Start_track
1, 0, Title_t, "Test"
1, 0, Tempo, 500000
1, 0, Instrument_name_t, "Church Organ"
1, 480, Note_on_c, 1, 50, 127
1, 864, Note_off_c, 1, 50, 0
1, 960, Note_on_c, 1, 57, 127
1, 1536, Note_off_c, 1, 57, 0
1, 1680, Note_on_c, 1, 57, 127
1, 1872, Note_off_c, 1, 57, 0
1, 1920, Note_on_c, 1, 58, 127
1, 2112, Note_off_c, 1, 58, 0
1, 2160, Note_on_c, 1, 57, 127
1, 2256, Note_off_c, 1, 57, 0
1, 2280, Note_on_c, 1, 55, 127
1, 2376, Note_off_c, 1, 55, 0
1, 2400, Note_on_c, 1, 53, 127
1, 2592, Note_off_c, 1, 53, 0
1, 2640, Note_on_c, 1, 55, 127
1, 2832, Note_off_c, 1, 55, 0
1, 2880, Note_on_c, 1, 57, 127
1, 3072, Note_off_c, 1, 57, 0
1, 3120, Note_on_c, 1, 55, 127
1, 3216, Note_off_c, 1, 55, 0
1, 3240, Note_on_c, 1, 53, 127
1, 3353, Note_off_c, 1, 53, 0
1, 3360, Note_on_c, 1, 52, 127
1, 3552, Note_off_c, 1, 52, 0
1, 3600, Note_on_c, 1, 53, 127
1, 3792, Note_off_c, 1, 53, 0
1, 3840, Note_on_c, 1, 55, 127
1, 4032, Note_off_c, 1, 55, 0
1, 4080, Note_on_c, 1, 50, 127
1, 4272, Note_off_c, 1, 50, 0
1, 4320, Note_on_c, 1, 55, 127
1, 4992, Note_off_c, 1, 55, 0
1, 5040, Note_on_c, 1, 53, 127
1, 5136, Note_off_c, 1, 53, 0
1, 5160, Note_on_c, 1, 52, 127
1, 5256, Note_off_c, 1, 52, 0
1, 5280, Note_on_c, 1, 53, 127
1, 5952, Note_off_c, 1, 53, 0
1, 6000, Note_on_c, 1, 52, 127
1, 6096, Note_off_c, 1, 52, 0
1, 6120, Note_on_c, 1, 50, 127
1, 6216, Note_off_c, 1, 50, 0
1, 6240, Note_on_c, 1, 52, 127
1, 6624, Note_off_c, 1, 52, 0
1, 6720, Note_on_c, 1, 50, 127
1, 7200, Note_on_c, 1, 57, 127
1, 7296, Note_off_c, 1, 50, 0
1, 7440, Note_on_c, 1, 52, 127
1, 7584, Note_off_c, 1, 57, 0
1, 7632, Note_off_c, 1, 52, 0
1, 7680, Note_on_c, 1, 62, 127
1, 7680, Note_on_c, 1, 53, 127
1, 7872, Note_off_c, 1, 53, 0
1, 7920, Note_on_c, 1, 52, 127
1, 8112, Note_off_c, 1, 52, 0
1, 8256, Note_off_c, 1, 62, 0
1, 8400, Note_on_c, 1, 62, 127
1, 8400, Note_on_c, 1, 55, 127
1, 8592, Note_off_c, 1, 62, 0
1, 8592, Note_off_c, 1, 55, 0
1, 8640, Note_on_c, 1, 65, 127
1, 8640, Note_on_c, 1, 57, 127
1, 8832, Note_off_c, 1, 65, 0
1, 8880, Note_on_c, 1, 64, 127
1, 8976, Note_off_c, 1, 64, 0
1, 9000, Note_on_c, 1, 62, 127
1, 9024, Note_off_c, 1, 57, 0
1, 9096, Note_off_c, 1, 62, 0
1, 9120, Note_on_c, 1, 60, 127
1, 9120, Note_on_c, 1, 57, 127
1, 9312, Note_off_c, 1, 60, 0
1, 9360, Note_on_c, 1, 62, 127
1, 9504, Note_off_c, 1, 57, 0
1, 9552, Note_off_c, 1, 62, 0
1, 9600, Note_on_c, 1, 64, 127
1, 9600, Note_on_c, 1, 56, 127
1, 9792, Note_off_c, 1, 64, 0
1, 9840, Note_on_c, 1, 62, 127
1, 9936, Note_off_c, 1, 62, 0
1, 9960, Note_on_c, 1, 60, 127
1, 9984, Note_off_c, 1, 56, 0
1, 10056, Note_off_c, 1, 60, 0
1, 10080, Note_on_c, 1, 59, 127
1, 10080, Note_on_c, 1, 55, 127
1, 10272, Note_off_c, 1, 59, 0
1, 10320, Note_on_c, 1, 60, 127
1, 10464, Note_off_c, 1, 55, 0
1, 10512, Note_off_c, 1, 60, 0
1, 10560, Note_on_c, 1, 62, 127
1, 10560, Note_on_c, 1, 54, 127
1, 10752, Note_off_c, 1, 62, 0
1, 10800, Note_on_c, 1, 57, 127
1, 10944, Note_off_c, 1, 54, 0
1, 10992, Note_off_c, 1, 57, 0
1, 11040, Note_on_c, 1, 62, 127
1, 11040, Note_on_c, 1, 53, 127
1, 11232, Note_off_c, 1, 53, 0
1, 11280, Note_on_c, 1, 52, 127
1, 11376, Note_off_c, 1, 52, 0
1, 11400, Note_on_c, 1, 50, 127
1, 11496, Note_off_c, 1, 50, 0
1, 11712, Note_off_c, 1, 62, 0
1, 11760, Note_on_c, 1, 60, 127
1, 11856, Note_off_c, 1, 60, 0
1, 11880, Note_on_c, 1, 59, 127
1, 11976, Note_off_c, 1, 59, 0
1, 12240, Note_on_c, 1, 57, 127
1, 12432, Note_off_c, 1, 57, 0
1, 12720, Note_on_c, 1, 59, 127
1, 12720, Note_on_c, 1, 48, 127
1, 12816, Note_off_c, 1, 59, 0
1, 12840, Note_on_c, 1, 57, 127
1, 12912, Note_off_c, 1, 48, 0
1, 12936, Note_off_c, 1, 57, 0
1, 12960, Note_on_c, 1, 59, 127
1, 12960, Note_on_c, 1, 50, 127
1, 13152, Note_off_c, 1, 50, 0
1, 13200, Note_on_c, 1, 52, 127
1, 13344, Note_off_c, 1, 59, 0
1, 13392, Note_off_c, 1, 52, 0
1, 13440, Note_on_c, 1, 57, 127
1, 13440, Note_on_c, 1, 53, 127
1, 13632, Note_off_c, 1, 57, 0
1, 13680, Note_on_c, 1, 59, 127
1, 13776, Note_off_c, 1, 59, 0
1, 13800, Note_on_c, 1, 61, 127
1, 13896, Note_off_c, 1, 61, 0
1, 13920, Note_on_c, 1, 62, 127
1, 14016, Note_off_c, 1, 53, 0
1, 14160, Note_on_c, 1, 52, 127
1, 14256, Note_off_c, 1, 52, 0
1, 14280, Note_on_c, 1, 50, 127
1, 14304, Note_off_c, 1, 62, 0
1, 14376, Note_off_c, 1, 50, 0
1, 14400, Note_on_c, 1, 69, 127
1, 14400, Note_on_c, 1, 49, 127
1, 14640, Note_on_c, 1, 64, 127
1, 14784, Note_off_c, 1, 49, 0
1, 14832, Note_off_c, 1, 64, 0
1, 14880, Note_on_c, 1, 65, 127
1, 14880, Note_on_c, 1, 50, 127
1, 14976, Note_off_c, 1, 69, 0
1, 15264, Note_off_c, 1, 65, 0
1, 15264, Note_off_c, 1, 50, 0
1, 15360, Note_on_c, 1, 70, 127
1, 15360, Note_on_c, 1, 43, 127
1, 15552, Note_off_c, 1, 70, 0
1, 15552, Note_off_c, 1, 43, 0
1, 15600, Note_on_c, 1, 69, 127
1, 15600, Note_on_c, 1, 45, 127
1, 15696, Note_off_c, 1, 69, 0
1, 15720, Note_on_c, 1, 67, 127
1, 15792, Note_off_c, 1, 45, 0
1, 15816, Note_off_c, 1, 67, 0
1, 15840, Note_on_c, 1, 65, 127
1, 15840, Note_on_c, 1, 62, 127
1, 15840, Note_on_c, 1, 46, 127
1, 16032, Note_off_c, 1, 65, 0
1, 16080, Note_on_c, 1, 67, 127
1, 16224, Note_off_c, 1, 62, 0
1, 16224, Note_off_c, 1, 46, 0
1, 16272, Note_off_c, 1, 67, 0
1, 16320, Note_on_c, 1, 69, 127
1, 16320, Note_on_c, 1, 61, 127
1, 16320, Note_on_c, 1, 45, 127
1, 16512, Note_off_c, 1, 69, 0
1, 16560, Note_on_c, 1, 67, 127
1, 16656, Note_off_c, 1, 67, 0
1, 16680, Note_on_c, 1, 65, 127
1, 16704, Note_off_c, 1, 61, 0
1, 16704, Note_off_c, 1, 45, 0
1, 16776, Note_off_c, 1, 65, 0
1, 16800, Note_on_c, 1, 64, 127
1, 16800, Note_on_c, 1, 60, 127
1, 16800, Note_on_c, 1, 57, 127
1, 16992, Note_off_c, 1, 64, 0
1, 17040, Note_on_c, 1, 65, 127
1, 17184, Note_off_c, 1, 60, 0
1, 17184, Note_off_c, 1, 57, 0
1, 17232, Note_off_c, 1, 65, 0
1, 17280, Note_on_c, 1, 67, 127
1, 17280, Note_on_c, 1, 59, 127
1, 17280, Note_on_c, 1, 55, 127
1, 17472, Note_off_c, 1, 67, 0
1, 17520, Note_on_c, 1, 62, 127
1, 17664, Note_off_c, 1, 59, 0
1, 17664, Note_off_c, 1, 55, 0
1, 17745, Note_off_c, 1, 62, 0
1, 17760, Note_on_c, 1, 67, 127
1, 17760, Note_on_c, 1, 58, 127
1, 17760, Note_on_c, 1, 52, 127
1, 17952, Note_off_c, 1, 58, 0
1, 18000, Note_on_c, 1, 57, 127
1, 18096, Note_off_c, 1, 57, 0
1, 18120, Note_on_c, 1, 55, 127
1, 18144, Note_off_c, 1, 52, 0
1, 18216, Note_off_c, 1, 55, 0
1, 18240, Note_on_c, 1, 49, 127
1, 18432, Note_off_c, 1, 67, 0
1, 18480, Note_on_c, 1, 65, 127
1, 18576, Note_off_c, 1, 65, 0
1, 18600, Note_on_c, 1, 64, 127
1, 18624, Note_off_c, 1, 49, 0
1, 18696, Note_off_c, 1, 64, 0
1, 18720, Note_on_c, 1, 50, 127
1, 18960, Note_on_c, 1, 62, 127
1, 19104, Note_off_c, 1, 50, 0
1, 19152, Note_off_c, 1, 62, 0
1, 19200, Note_on_c, 1, 47, 127
1, 19584, Note_off_c, 1, 47, 0
1, 20160, Note_on_c, 1, 53, 127
1, 20640, Note_on_c, 1, 69, 127
1, 20736, Note_off_c, 1, 53, 0
1, 21024, Note_off_c, 1, 69, 0
1, 21120, Note_on_c, 1, 74, 127
1, 21696, Note_off_c, 1, 74, 0
1, 22080, Note_on_c, 1, 77, 127
1, 22272, Note_off_c, 1, 77, 0
1, 22320, Note_on_c, 1, 76, 127
1, 22416, Note_off_c, 1, 76, 0
1, 22560, Note_on_c, 1, 72, 127
1, 22560, Note_on_c, 1, 69, 127
1, 22560, Note_on_c, 1, 57, 127
1, 22560, Note_on_c, 1, 53, 127
1, 22752, Note_off_c, 1, 72, 0
1, 22800, Note_on_c, 1, 74, 127
1, 22944, Note_off_c, 1, 69, 0
1, 22944, Note_off_c, 1, 57, 0
1, 22944, Note_off_c, 1, 53, 0
1, 22992, Note_off_c, 1, 74, 0
1, 23040, Note_on_c, 1, 76, 127
1, 23040, Note_on_c, 1, 68, 127
1, 23040, Note_on_c, 1, 59, 127
1, 23040, Note_on_c, 1, 52, 127
1, 23232, Note_off_c, 1, 76, 0
1, 23280, Note_on_c, 1, 74, 127
1, 23376, Note_off_c, 1, 74, 0
1, 23400, Note_on_c, 1, 72, 127
1, 23424, Note_off_c, 1, 68, 0
1, 23496, Note_off_c, 1, 72, 0
1, 23520, Note_on_c, 1, 71, 127
1, 23520, Note_on_c, 1, 67, 127
1, 23616, Note_off_c, 1, 59, 0
1, 23712, Note_off_c, 1, 71, 0
1, 23760, Note_on_c, 1, 73, 127
1, 23760, Note_on_c, 1, 57, 127
1, 23808, Note_off_c, 1, 52, 0
1, 23856, Note_off_c, 1, 57, 0
1, 23880, Note_on_c, 1, 55, 127
1, 23904, Note_off_c, 1, 67, 0
1, 23952, Note_off_c, 1, 73, 0
1, 23976, Note_off_c, 1, 55, 0
1, 24000, Note_on_c, 1, 74, 127
1, 24000, Note_on_c, 1, 66, 127
1, 24000, Note_on_c, 1, 57, 127
1, 24000, Note_on_c, 1, 50, 127
1, 24192, Note_off_c, 1, 74, 0
1, 24192, Note_off_c, 1, 50, 0
1, 24240, Note_on_c, 1, 69, 127
1, 24240, Note_on_c, 1, 48, 127
1, 24384, Note_off_c, 1, 66, 0
1, 24384, Note_off_c, 1, 57, 0
1, 24432, Note_off_c, 1, 69, 0
1, 24432, Note_off_c, 1, 48, 0
1, 24480, Note_on_c, 1, 65, 127
1, 24480, Note_on_c, 1, 74, 127
1, 24480, Note_on_c, 1, 59, 127
1, 24480, Note_on_c, 1, 47, 127
1, 24672, Note_off_c, 1, 65, 0
1, 24672, Note_off_c, 1, 47, 0
1, 24720, Note_on_c, 1, 64, 127
1, 24720, Note_on_c, 1, 57, 127
1, 24816, Note_off_c, 1, 64, 0
1, 24840, Note_on_c, 1, 62, 127
1, 24912, Note_off_c, 1, 57, 0
1, 24936, Note_off_c, 1, 62, 0
1, 24960, Note_on_c, 1, 56, 127
1, 25152, Note_off_c, 1, 59, 0
1, 25152, Note_off_c, 1, 56, 0
1, 25185, Note_off_c, 1, 74, 0
1, 25200, Note_on_c, 1, 72, 127
1, 25200, Note_on_c, 1, 52, 127
1, 25313, Note_off_c, 1, 72, 0
1, 25320, Note_on_c, 1, 71, 127
1, 25392, Note_off_c, 1, 52, 0
1, 25433, Note_off_c, 1, 71, 0
1, 25680, Note_on_c, 1, 69, 127
1, 25872, Note_off_c, 1, 69, 0
1, 26640, Note_on_c, 1, 60, 127
1, 26736, Note_off_c, 1, 60, 0
1, 27240, Note_on_c, 1, 68, 127
1, 27336, Note_off_c, 1, 68, 0
1, 27360, Note_on_c, 1, 54, 127
1, 27600, Note_on_c, 1, 63, 127
1, 27744, Note_off_c, 1, 54, 0
1, 27792, Note_off_c, 1, 63, 0
1, 28800, Note_on_c, 1, 61, 127
1, 28800, Note_on_c, 1, 69, 127
1, 28800, Note_on_c, 1, 57, 127
1, 28800, Note_on_c, 1, 45, 127
1, 28992, Note_off_c, 1, 61, 0
1, 28992, Note_off_c, 1, 69, 0
1, 29040, Note_on_c, 1, 62, 127
1, 29040, Note_on_c, 1, 71, 127
1, 29184, Note_off_c, 1, 45, 0
1, 29232, Note_off_c, 1, 62, 0
1, 29232, Note_off_c, 1, 71, 0
1, 29280, Note_on_c, 1, 73, 127
1, 29280, Note_on_c, 1, 64, 127
1, 29472, Note_off_c, 1, 73, 0
1, 29664, Note_off_c, 1, 64, 0
1, 29760, Note_off_c, 1, 57, 0
1, 29760, Note_on_c, 1, 74, 127
1, 29760, Note_on_c, 1, 58, 127
1, 30144, Note_off_c, 1, 74, 0
1, 30144, Note_off_c, 1, 58, 0
1, 30240, Note_on_c, 1, 66, 127
1, 30240, Note_on_c, 1, 72, 127
1, 30240, Note_on_c, 1, 57, 127
1, 30432, Note_off_c, 1, 66, 0
1, 30480, Note_on_c, 1, 64, 127
1, 30576, Note_off_c, 1, 64, 0
1, 30624, Note_off_c, 1, 72, 0
1, 30624, Note_off_c, 1, 57, 0
1, 30720, Note_on_c, 1, 70, 127
1, 30720, Note_on_c, 1, 67, 127
1, 30720, Note_on_c, 1, 55, 127
1, 30912, Note_off_c, 1, 55, 0
1, 30960, Note_on_c, 1, 57, 127
1, 31104, Note_off_c, 1, 70, 0
1, 31104, Note_off_c, 1, 67, 0
1, 31152, Note_off_c, 1, 57, 0
1, 31200, Note_on_c, 1, 69, 127
1, 31200, Note_on_c, 1, 65, 127
1, 31200, Note_on_c, 1, 58, 127
1, 31392, Note_off_c, 1, 58, 0
1, 31440, Note_on_c, 1, 57, 127
1, 31536, Note_off_c, 1, 57, 0
1, 31584, Note_off_c, 1, 69, 0
1, 31584, Note_off_c, 1, 65, 0
1, 31680, Note_on_c, 1, 67, 127
1, 31680, Note_on_c, 1, 64, 127
1, 31680, Note_on_c, 1, 60, 127
1, 31872, Note_off_c, 1, 67, 0
1, 31872, Note_off_c, 1, 64, 0
1, 31920, Note_on_c, 1, 65, 127
1, 31920, Note_on_c, 1, 69, 127
1, 32064, Note_off_c, 1, 60, 0
1, 32112, Note_off_c, 1, 65, 0
1, 32112, Note_off_c, 1, 69, 0
1, 32160, Note_on_c, 1, 67, 127
1, 32160, Note_on_c, 1, 70, 127
1, 32160, Note_on_c, 1, 58, 127
1, 32352, Note_off_c, 1, 67, 0
1, 32352, Note_off_c, 1, 70, 0
1, 32400, Note_on_c, 1, 65, 127
1, 32400, Note_on_c, 1, 69, 127
1, 32496, Note_off_c, 1, 65, 0
1, 32496, Note_off_c, 1, 69, 0
1, 32544, Note_off_c, 1, 58, 0
1, 32640, Note_on_c, 1, 72, 127
1, 32640, Note_on_c, 1, 69, 127
1, 32640, Note_on_c, 1, 57, 127
1, 32832, Note_off_c, 1, 72, 0
1, 32832, Note_off_c, 1, 69, 0
1, 32880, Note_on_c, 1, 77, 127
1, 32880, Note_on_c, 1, 67, 127
1, 32976, Note_off_c, 1, 77, 0
1, 33000, Note_on_c, 1, 76, 127
1, 33024, Note_off_c, 1, 57, 0
1, 33072, Note_off_c, 1, 67, 0
1, 33096, Note_off_c, 1, 76, 0
1, 33120, Note_on_c, 1, 74, 127
1, 33120, Note_on_c, 1, 65, 127
1, 33120, Note_on_c, 1, 58, 127
1, 33312, Note_off_c, 1, 74, 0
1, 33312, Note_off_c, 1, 65, 0
1, 33360, Note_on_c, 1, 79, 127
1, 33360, Note_on_c, 1, 70, 127
1, 33456, Note_off_c, 1, 79, 0
1, 33480, Note_on_c, 1, 77, 127
1, 33504, Note_off_c, 1, 58, 0
1, 33576, Note_off_c, 1, 77, 0
1, 33600, Note_on_c, 1, 76, 127
1, 33600, Note_on_c, 1, 60, 127
1, 33720, Note_on_c, 1, 72, 127
1, 33792, Note_off_c, 1, 70, 0
1, 33816, Note_off_c, 1, 72, 0
1, 33840, Note_on_c, 1, 69, 127
1, 34032, Note_off_c, 1, 69, 0
1, 34080, Note_on_c, 1, 67, 127
1, 34272, Note_off_c, 1, 67, 0
1, 34320, Note_on_c, 1, 75, 127
1, 34368, Note_off_c, 1, 60, 0
1, 34440, Note_on_c, 1, 48, 127
1, 34512, Note_off_c, 1, 75, 0
1, 34536, Note_off_c, 1, 48, 0
1, 34560, Note_on_c, 1, 50, 127
1, 34848, Note_off_c, 1, 50, 0
1, 34920, Note_on_c, 1, 52, 127
1, 35016, Note_off_c, 1, 52, 0
1, 35040, Note_on_c, 1, 54, 127
1, 35232, Note_off_c, 1, 54, 0
1, 35520, Note_on_c, 1, 55, 127
1, 36000, Note_on_c, 1, 64, 127
1, 36192, Note_off_c, 1, 64, 0
1, 36480, Note_on_c, 1, 61, 127
1, 36672, Note_off_c, 1, 55, 0
1, 36720, Note_on_c, 1, 57, 127
1, 36816, Note_off_c, 1, 57, 0
1, 36864, Note_off_c, 1, 61, 0
1, 36960, Note_on_c, 1, 62, 127
1, 36960, Note_on_c, 1, 53, 127
1, 37152, Note_off_c, 1, 62, 0
1, 37152, Note_off_c, 1, 53, 0
1, 37440, Note_on_c, 1, 49, 127
1, 37680, Note_on_c, 1, 66, 127
1, 37776, Note_off_c, 1, 66, 0
1, 37824, Note_off_c, 1, 49, 0
1, 38400, Note_on_c, 1, 43, 127
1, 38592, Note_off_c, 1, 43, 0
1, 38640, Note_on_c, 1, 45, 127
1, 38832, Note_off_c, 1, 45, 0
1, 38880, Note_on_c, 1, 46, 127
1, 39264, Note_off_c, 1, 46, 0
1, 39360, Note_on_c, 1, 73, 127
1, 39744, Note_off_c, 1, 73, 0
1, 40320, Note_on_c, 1, 71, 127
1, 40704, Note_off_c, 1, 71, 0
1, 42240, Note_on_c, 1, 47, 127
1, 42624, Note_off_c, 1, 47, 0
1, 42720, Note_on_c, 1, 51, 127
1, 43104, Note_off_c, 1, 51, 0
1, 44640, Note_on_c, 1, 38, 127
1, 45024, Note_off_c, 1, 38, 0
1, 46464, Note_off_c, 1, 76, 0
1, 46560, Note_on_c, 1, 81, 127
1, 46560, Note_on_c, 1, 64, 127
1, 46560, Note_on_c, 1, 60, 127
1, 46656, Note_off_c, 1, 81, 0
1, 46680, Note_on_c, 1, 79, 127
1, 46752, Note_off_c, 1, 64, 0
1, 46776, Note_off_c, 1, 79, 0
1, 46800, Note_on_c, 1, 77, 127
1, 46800, Note_on_c, 1, 65, 127
1, 46896, Note_off_c, 1, 77, 0
1, 46920, Note_on_c, 1, 76, 127
1, 46944, Note_off_c, 1, 60, 0
1, 46992, Note_off_c, 1, 65, 0
1, 47016, Note_off_c, 1, 76, 0
1, 47040, Note_on_c, 1, 67, 127
1, 47040, Note_on_c, 1, 74, 127
1, 47040, Note_on_c, 1, 59, 127
1, 47232, Note_off_c, 1, 67, 0
1, 47280, Note_on_c, 1, 62, 127
1, 47424, Note_off_c, 1, 59, 0
1, 47472, Note_off_c, 1, 62, 0
1, 47520, Note_on_c, 1, 58, 127
1, 47616, Note_off_c, 1, 74, 0
1, 47640, Note_on_c, 1, 82, 127
1, 47736, Note_off_c, 1, 82, 0
1, 47760, Note_on_c, 1, 81, 127
1, 47856, Note_off_c, 1, 81, 0
1, 47880, Note_on_c, 1, 79, 127
1, 47904, Note_off_c, 1, 58, 0
1, 47976, Note_off_c, 1, 79, 0
1, 48000, Note_on_c, 1, 84, 127
1, 48000, Note_on_c, 1, 57, 127
1, 48240, Note_on_c, 1, 65, 127
1, 48336, Note_off_c, 1, 65, 0
1, 48360, Note_on_c, 1, 64, 127
1, 48456, Note_off_c, 1, 64, 0
1, 48576, Note_off_c, 1, 84, 0
1, 48576, Note_off_c, 1, 57, 0
1, 48960, Note_on_c, 1, 55, 127
1, 49728, Note_off_c, 1, 55, 0
1, 49920, Note_on_c, 1, 53, 127
1, 50040, Note_on_c, 1, 69, 127
1, 50136, Note_off_c, 1, 69, 0
1, 50160, Note_on_c, 1, 71, 127
1, 50256, Note_off_c, 1, 71, 0
1, 50280, Note_on_c, 1, 73, 127
1, 50376, Note_off_c, 1, 73, 0
1, 50460, Note_on_c, 1, 76, 127
1, 50496, Note_off_c, 1, 53, 0
1, 50508, Note_off_c, 1, 76, 0
1, 50520, Note_on_c, 1, 77, 127
1, 50616, Note_off_c, 1, 77, 0
1, 50880, Note_on_c, 1, 52, 127
1, 51120, Note_on_c, 1, 61, 127
1, 51216, Note_off_c, 1, 61, 0
1, 51264, Note_off_c, 1, 52, 0
1, 51600, Note_on_c, 1, 45, 127
1, 51792, Note_off_c, 1, 45, 0
1, 51840, Note_on_c, 1, 50, 127
1, 52416, Note_off_c, 1, 50, 0
1, 52440, Note_on_c, 1, 79, 127
1, 52536, Note_off_c, 1, 79, 0
1, 52560, Note_on_c, 1, 77, 127
1, 52560, Note_on_c, 1, 50, 127
1, 52656, Note_off_c, 1, 77, 0
1, 52680, Note_on_c, 1, 76, 127
1, 52752, Note_off_c, 1, 50, 0
1, 52776, Note_off_c, 1, 76, 0
1, 52800, Note_on_c, 1, 74, 127
1, 52800, Note_on_c, 1, 53, 127
1, 52992, Note_off_c, 1, 74, 0
1, 52992, Note_off_c, 1, 53, 0
1, 53040, Note_on_c, 1, 72, 127
1, 53040, Note_on_c, 1, 52, 127
1, 53136, Note_off_c, 1, 72, 0
1, 53136, Note_off_c, 1, 52, 0
1, 53160, Note_on_c, 1, 74, 127
1, 53160, Note_on_c, 1, 50, 127
1, 53256, Note_off_c, 1, 74, 0
1, 53256, Note_off_c, 1, 50, 0
1, 53280, Note_on_c, 1, 76, 127
1, 53280, Note_on_c, 1, 69, 127
1, 53280, Note_on_c, 1, 48, 127
1, 53472, Note_off_c, 1, 76, 0
1, 53472, Note_off_c, 1, 48, 0
1, 53520, Note_on_c, 1, 74, 127
1, 53520, Note_on_c, 1, 50, 127
1, 53616, Note_off_c, 1, 74, 0
1, 53640, Note_on_c, 1, 72, 127
1, 53664, Note_off_c, 1, 69, 0
1, 53712, Note_off_c, 1, 50, 0
1, 53736, Note_off_c, 1, 72, 0
1, 53760, Note_on_c, 1, 71, 127
1, 53760, Note_on_c, 1, 68, 127
1, 53760, Note_on_c, 1, 52, 127
1, 53952, Note_off_c, 1, 52, 0
1, 54000, Note_on_c, 1, 50, 127
1, 54048, Note_off_c, 1, 71, 0
1, 54096, Note_off_c, 1, 50, 0
1, 54120, Note_on_c, 1, 72, 127
1, 54120, Note_on_c, 1, 48, 127
1, 54144, Note_off_c, 1, 68, 0
1, 54216, Note_off_c, 1, 72, 0
1, 54216, Note_off_c, 1, 48, 0
1, 54240, Note_on_c, 1, 74, 127
1, 54240, Note_on_c, 1, 67, 127
1, 54240, Note_on_c, 1, 47, 127
1, 54336, Note_off_c, 1, 74, 0
1, 54360, Note_on_c, 1, 73, 127
1, 54432, Note_off_c, 1, 47, 0
1, 54456, Note_off_c, 1, 73, 0
1, 54480, Note_on_c, 1, 49, 127
1, 54600, Note_on_c, 1, 76, 127
1, 54624, Note_off_c, 1, 67, 0
1, 54672, Note_off_c, 1, 49, 0
1, 54696, Note_off_c, 1, 76, 0
1, 54720, Note_on_c, 1, 69, 127
1, 54720, Note_on_c, 1, 66, 127
1, 54720, Note_on_c, 1, 50, 127
1, 54912, Note_off_c, 1, 69, 0
1, 54912, Note_off_c, 1, 50, 0
1, 54960, Note_on_c, 1, 71, 127
1, 54960, Note_on_c, 1, 45, 127
1, 55056, Note_off_c, 1, 71, 0
1, 55080, Note_on_c, 1, 72, 127
1, 55104, Note_off_c, 1, 66, 0
1, 55152, Note_off_c, 1, 45, 0
1, 55176, Note_off_c, 1, 72, 0
1, 55200, Note_on_c, 1, 71, 127
1, 55200, Note_on_c, 1, 65, 127
1, 55200, Note_on_c, 1, 50, 127
1, 55392, Note_off_c, 1, 71, 0
1, 55440, Note_on_c, 1, 72, 127
1, 55536, Note_off_c, 1, 72, 0
1, 55560, Note_on_c, 1, 74, 127
1, 55584, Note_off_c, 1, 65, 0
1, 55656, Note_off_c, 1, 74, 0
1, 55680, Note_on_c, 1, 68, 127
1, 55872, Note_off_c, 1, 50, 0
1, 55872, Note_off_c, 1, 68, 0
1, 55920, Note_on_c, 1, 66, 127
1, 55920, Note_on_c, 1, 48, 127
1, 56016, Note_off_c, 1, 66, 0
1, 56016, Note_off_c, 1, 48, 0
1, 56040, Note_on_c, 1, 64, 127
1, 56040, Note_on_c, 1, 47, 127
1, 56136, Note_off_c, 1, 47, 0
1, 56160, Note_on_c, 1, 69, 127
1, 56160, Note_on_c, 1, 48, 127
1, 56256, Note_off_c, 1, 64, 0
1, 56400, Note_on_c, 1, 57, 127
1, 56448, Note_off_c, 1, 69, 0
1, 56520, Note_on_c, 1, 67, 127
1, 56592, Note_off_c, 1, 57, 0
1, 56616, Note_off_c, 1, 67, 0
1, 56640, Note_on_c, 1, 66, 127
1, 56640, Note_on_c, 1, 62, 127
1, 56832, Note_off_c, 1, 48, 0
1, 56832, Note_off_c, 1, 66, 0
1, 56880, Note_on_c, 1, 68, 127
1, 56976, Note_off_c, 1, 68, 0
1, 57000, Note_on_c, 1, 45, 127
1, 57096, Note_off_c, 1, 45, 0
1, 57120, Note_on_c, 1, 50, 127
1, 57360, Note_on_c, 1, 74, 127
1, 57408, Note_off_c, 1, 62, 0
1, 57504, Note_off_c, 1, 50, 0
1, 57792, Note_off_c, 1, 74, 0
1, 57840, Note_on_c, 1, 72, 127
1, 57936, Note_off_c, 1, 72, 0
1, 57960, Note_on_c, 1, 71, 127
1, 58056, Note_off_c, 1, 71, 0
1, 58320, Note_on_c, 1, 66, 127
1, 58320, Note_on_c, 1, 74, 127
1, 58320, Note_on_c, 1, 57, 127
1, 58320, Note_on_c, 1, 50, 127
1, 58512, Note_off_c, 1, 66, 0
1, 58512, Note_off_c, 1, 57, 0
1, 58512, Note_off_c, 1, 50, 0
1, 58560, Note_on_c, 1, 67, 127
1, 58560, Note_on_c, 1, 58, 127
1, 58560, Note_on_c, 1, 43, 127
1, 58752, Note_off_c, 1, 74, 0
1, 58752, Note_off_c, 1, 58, 0
1, 58800, Note_on_c, 1, 76, 127
1, 58920, Note_on_c, 1, 55, 127
1, 58944, Note_off_c, 1, 67, 0
1, 58944, Note_off_c, 1, 43, 0
1, 58992, Note_off_c, 1, 76, 0
1, 59016, Note_off_c, 1, 55, 0
1, 59040, Note_on_c, 1, 69, 127
1, 59040, Note_on_c, 1, 77, 127
1, 59040, Note_on_c, 1, 53, 127
1, 59040, Note_on_c, 1, 50, 127
1, 59232, Note_off_c, 1, 53, 0
1, 59280, Note_on_c, 1, 55, 127
1, 59424, Note_off_c, 1, 69, 0
1, 59424, Note_off_c, 1, 50, 0
1, 59472, Note_off_c, 1, 55, 0
1, 59520, Note_on_c, 1, 57, 127
1, 59520, Note_on_c, 1, 49, 127
1, 59712, Note_off_c, 1, 77, 0
1, 59712, Note_off_c, 1, 57, 0
1, 59760, Note_on_c, 1, 76, 127
1, 59856, Note_off_c, 1, 76, 0
1, 59880, Note_on_c, 1, 74, 127
1, 59904, Note_off_c, 1, 49, 0
1, 59976, Note_off_c, 1, 74, 0
1, 60000, Note_on_c, 1, 52, 127
1, 60000, Note_on_c, 1, 48, 127
1, 60192, Note_off_c, 1, 52, 0
1, 60384, Note_off_c, 1, 48, 0
1, 60480, Note_on_c, 1, 67, 127
1, 60480, Note_on_c, 1, 47, 127
1, 60840, Note_on_c, 1, 73, 127
1, 60864, Note_off_c, 1, 47, 0
1, 60936, Note_off_c, 1, 73, 0
1, 60960, Note_on_c, 1, 46, 127
1, 61056, Note_off_c, 1, 67, 0
1, 61320, Note_on_c, 1, 70, 127
1, 61344, Note_off_c, 1, 46, 0
1, 61416, Note_off_c, 1, 70, 0
1, 61440, Note_on_c, 1, 64, 127
1, 61440, Note_on_c, 1, 45, 127
1, 61632, Note_off_c, 1, 64, 0
1, 61680, Note_on_c, 1, 54, 127
1, 61776, Note_off_c, 1, 54, 0
1, 61824, Note_off_c, 1, 45, 0
1, 61920, Note_on_c, 1, 72, 127
1, 61920, Note_on_c, 1, 54, 127
1, 61920, Note_on_c, 1, 50, 127
1, 62160, Note_on_c, 1, 69, 127
1, 62304, Note_off_c, 1, 72, 0
1, 62304, Note_off_c, 1, 54, 0
1, 62304, Note_off_c, 1, 50, 0
1, 62352, Note_off_c, 1, 69, 0
1, 62400, Note_on_c, 1, 67, 127
1, 62400, Note_on_c, 1, 71, 127
1, 62400, Note_on_c, 1, 55, 127
1, 62400, Note_on_c, 1, 43, 127
1, 62592, Note_off_c, 1, 67, 0
1, 62592, Note_off_c, 1, 55, 0
1, 62640, Note_on_c, 1, 65, 127
1, 62640, Note_on_c, 1, 57, 127
1, 62736, Note_off_c, 1, 65, 0
1, 62760, Note_on_c, 1, 64, 127
1, 62784, Note_off_c, 1, 71, 0
1, 62784, Note_off_c, 1, 43, 0
1, 62832, Note_off_c, 1, 57, 0
1, 62856, Note_off_c, 1, 64, 0
1, 62880, Note_on_c, 1, 62, 127
1, 62880, Note_on_c, 1, 70, 127
1, 62880, Note_on_c, 1, 58, 127
1, 62880, Note_on_c, 1, 55, 127
1, 63072, Note_off_c, 1, 62, 0
1, 63072, Note_off_c, 1, 58, 0
1, 63120, Note_on_c, 1, 64, 127
1, 63120, Note_on_c, 1, 60, 127
1, 63264, Note_off_c, 1, 70, 0
1, 63264, Note_off_c, 1, 55, 0
1, 63312, Note_off_c, 1, 64, 0
1, 63312, Note_off_c, 1, 60, 0
1, 63360, Note_on_c, 1, 69, 127
1, 63360, Note_on_c, 1, 65, 127
1, 63360, Note_on_c, 1, 62, 127
1, 63360, Note_on_c, 1, 53, 127
1, 63552, Note_off_c, 1, 53, 0
1, 63600, Note_on_c, 1, 57, 127
1, 63696, Note_off_c, 1, 57, 0
1, 63840, Note_on_c, 1, 58, 127
1, 63936, Note_off_c, 1, 69, 0
1, 64080, Note_on_c, 1, 72, 127
1, 64176, Note_off_c, 1, 72, 0
1, 64320, Note_on_c, 1, 74, 127
1, 64512, Note_off_c, 1, 74, 0
1, 64560, Note_on_c, 1, 77, 127
1, 64656, Note_off_c, 1, 77, 0
1, 64704, Note_off_c, 1, 65, 0
1, 64800, Note_on_c, 1, 79, 127
1, 64800, Note_on_c, 1, 64, 127
1, 64800, Note_on_c, 1, 67, 127
1, 64992, Note_off_c, 1, 79, 0
1, 65040, Note_on_c, 1, 81, 127
1, 65088, Note_off_c, 1, 58, 0
1, 65136, Note_off_c, 1, 81, 0
1, 65160, Note_on_c, 1, 82, 127
1, 65184, Note_off_c, 1, 64, 0
1, 65184, Note_off_c, 1, 67, 0
1, 65256, Note_off_c, 1, 82, 0
1, 65280, Note_on_c, 1, 68, 127
1, 65280, Note_on_c, 1, 59, 127
1, 65568, Note_off_c, 1, 62, 0
1, 65568, Note_off_c, 1, 68, 0
1, 65568, Note_off_c, 1, 59, 0
1, 65640, Note_on_c, 1, 65, 127
1, 65640, Note_on_c, 1, 68, 127
1, 65640, Note_on_c, 1, 74, 127
1, 65640, Note_on_c, 1, 62, 127
1, 65640, Note_on_c, 1, 59, 127
1, 65736, Note_off_c, 1, 65, 0
1, 65736, Note_off_c, 1, 68, 0
1, 65736, Note_off_c, 1, 74, 0
1, 65736, Note_off_c, 1, 62, 0
1, 65736, Note_off_c, 1, 59, 0
1, 65760, Note_on_c, 1, 68, 127
1, 65760, Note_on_c, 1, 65, 127
1, 65760, Note_on_c, 1, 74, 127
1, 65760, Note_on_c, 1, 62, 127
1, 65760, Note_on_c, 1, 59, 127
1, 65952, Note_off_c, 1, 68, 0
1, 65952, Note_off_c, 1, 65, 0
1, 65952, Note_off_c, 1, 74, 0
1, 66000, Note_on_c, 1, 64, 127
1, 66000, Note_on_c, 1, 76, 127
1, 66096, Note_off_c, 1, 64, 0
1, 66096, Note_off_c, 1, 76, 0
1, 66120, Note_on_c, 1, 77, 127
1, 66144, Note_off_c, 1, 59, 0
1, 66168, Note_off_c, 1, 77, 0
1, 66180, Note_on_c, 1, 79, 127
1, 66216, Note_off_c, 1, 62, 0
1, 66228, Note_off_c, 1, 79, 0
1, 66240, Note_on_c, 1, 74, 127
1, 66240, Note_on_c, 1, 69, 127
1, 66240, Note_on_c, 1, 64, 127
1, 66240, Note_on_c, 1, 57, 127
1, 66270, Note_off_c, 1, 74, 0
1, 66360, Note_on_c, 1, 73, 127
1, 67008, Note_off_c, 1, 69, 0
1, 67008, Note_off_c, 1, 64, 0
1, 67008, Note_off_c, 1, 57, 0
1, 67128, Note_off_c, 1, 73, 0
1, 67440, Note_on_c, 1, 62, 127
1, 67632, Note_off_c, 1, 62, 0
1, 67680, Note_on_c, 1, 69, 127
1, 68256, Note_off_c, 1, 69, 0
1, 68400, Note_on_c, 1, 69, 127
1, 68592, Note_off_c, 1, 69, 0
1, 68640, Note_on_c, 1, 70, 127
1, 68832, Note_off_c, 1, 70, 0
1, 68880, Note_on_c, 1, 70, 127
1, 69072, Note_off_c, 1, 70, 0
1, 69120, Note_on_c, 1, 65, 127
1, 69600, Note_on_c, 1, 62, 127
1, 69696, Note_off_c, 1, 65, 0
1, 69840, Note_on_c, 1, 67, 127
1, 69984, Note_off_c, 1, 62, 0
1, 70032, Note_off_c, 1, 67, 0
1, 70080, Note_on_c, 1, 69, 127
1, 70080, Note_on_c, 1, 61, 127
1, 70272, Note_off_c, 1, 69, 0
1, 70560, Note_on_c, 1, 64, 127
1, 70848, Note_off_c, 1, 61, 0
1, 71040, Note_on_c, 1, 60, 127
1, 71136, Note_off_c, 1, 64, 0
1, 71280, Note_on_c, 1, 66, 127
1, 71424, Note_off_c, 1, 60, 0
1, 71472, Note_off_c, 1, 66, 0
1, 71520, Note_on_c, 1, 67, 127
1, 71520, Note_on_c, 1, 59, 127
1, 71712, Note_off_c, 1, 67, 0
1, 71760, Note_on_c, 1, 62, 127
1, 71952, Note_off_c, 1, 62, 0
1, 72096, Note_off_c, 1, 59, 0
1, 72240, Note_on_c, 1, 57, 127
1, 72432, Note_off_c, 1, 57, 0
1, 72480, Note_on_c, 1, 58, 127
1, 72672, Note_off_c, 1, 58, 0
1, 72720, Note_on_c, 1, 55, 127
1, 72912, Note_off_c, 1, 55, 0
1, 73200, Note_on_c, 1, 60, 127
1, 73392, Note_off_c, 1, 60, 0
1, 73440, Note_on_c, 1, 65, 127
1, 74160, Note_on_c, 1, 53, 127
1, 74352, Note_off_c, 1, 53, 0
1, 74592, Note_off_c, 1, 65, 0
1, 74880, Note_on_c, 1, 64, 127
1, 75600, Note_on_c, 1, 52, 127
1, 75792, Note_off_c, 1, 52, 0
1, 76032, Note_off_c, 1, 64, 0
1, 77520, Note_on_c, 1, 69, 127
1, 77712, Note_off_c, 1, 69, 0
1, 77760, Note_on_c, 1, 76, 127
1, 78240, Note_on_c, 1, 61, 127
1, 78336, Note_off_c, 1, 76, 0
1, 78624, Note_off_c, 1, 61, 0
1, 78720, Note_on_c, 1, 77, 127
1, 78720, Note_on_c, 1, 62, 127
1, 78720, Note_on_c, 1, 50, 127
1, 78912, Note_off_c, 1, 77, 0
1, 79104, Note_off_c, 1, 62, 0
1, 79104, Note_off_c, 1, 50, 0
1, 79200, Note_on_c, 1, 72, 127
1, 79200, Note_on_c, 1, 64, 127
1, 79200, Note_on_c, 1, 45, 127
1, 79584, Note_off_c, 1, 45, 0
1, 79680, Note_on_c, 1, 60, 127
1, 79680, Note_on_c, 1, 57, 127
1, 79776, Note_off_c, 1, 72, 0
1, 79920, Note_on_c, 1, 74, 127
1, 80064, Note_off_c, 1, 60, 0
1, 80064, Note_off_c, 1, 57, 0
1, 80112, Note_off_c, 1, 74, 0
1, 80160, Note_on_c, 1, 76, 127
1, 80160, Note_on_c, 1, 59, 127
1, 80160, Note_on_c, 1, 56, 127
1, 80352, Note_off_c, 1, 76, 0
1, 80640, Note_on_c, 1, 71, 127
1, 80928, Note_off_c, 1, 64, 0
1, 80928, Note_off_c, 1, 59, 0
1, 80928, Note_off_c, 1, 56, 0
1, 81120, Note_on_c, 1, 55, 127
1, 81216, Note_off_c, 1, 71, 0
1, 81360, Note_on_c, 1, 73, 127
1, 81504, Note_off_c, 1, 55, 0
1, 81552, Note_off_c, 1, 73, 0
1, 81600, Note_on_c, 1, 74, 127
1, 81600, Note_on_c, 1, 57, 127
1, 81600, Note_on_c, 1, 54, 127
1, 81792, Note_off_c, 1, 74, 0
1, 81840, Note_on_c, 1, 69, 127
1, 82032, Note_off_c, 1, 69, 0
1, 82176, Note_off_c, 1, 54, 0
1, 82320, Note_on_c, 1, 52, 127
1, 82512, Note_off_c, 1, 52, 0
1, 82560, Note_on_c, 1, 53, 127
1, 82752, Note_off_c, 1, 57, 0
1, 82752, Note_off_c, 1, 53, 0
1, 82800, Note_on_c, 1, 50, 127
1, 82992, Note_off_c, 1, 50, 0
1, 83040, Note_on_c, 1, 55, 127
1, 83280, Note_on_c, 1, 67, 127
1, 83472, Note_off_c, 1, 67, 0
1, 83520, Note_on_c, 1, 72, 127
1, 84192, Note_off_c, 1, 55, 0
1, 84240, Note_on_c, 1, 48, 127
1, 84432, Note_off_c, 1, 48, 0
1, 84672, Note_off_c, 1, 72, 0
1, 84720, Note_on_c, 1, 66, 127
1, 84912, Note_off_c, 1, 66, 0
1, 84960, Note_on_c, 1, 71, 127
1, 85680, Note_on_c, 1, 47, 127
1, 85872, Note_off_c, 1, 47, 0
1, 86112, Note_off_c, 1, 71, 0
1, 86160, Note_on_c, 1, 64, 127
1, 86352, Note_off_c, 1, 64, 0
1, 86640, Note_on_c, 1, 65, 127
1, 86832, Note_off_c, 1, 65, 0
1, 87120, Note_on_c, 1, 62, 127
1, 87312, Note_off_c, 1, 62, 0
1, 87600, Note_on_c, 1, 60, 127
1, 87600, Note_on_c, 1, 45, 127
1, 87792, Note_off_c, 1, 60, 0
1, 87792, Note_off_c, 1, 45, 0
1, 87840, Note_on_c, 1, 59, 127
1, 88320, Note_on_c, 1, 68, 127
1, 88608, Note_off_c, 1, 59, 0
1, 88704, Note_off_c, 1, 68, 0
1, 88800, Note_on_c, 1, 69, 127
1, 88800, Note_on_c, 1, 57, 127
1, 88800, Note_on_c, 1, 53, 127
1, 88992, Note_off_c, 1, 69, 0
1, 88992, Note_off_c, 1, 53, 0
1, 89040, Note_on_c, 1, 71, 127
1, 89232, Note_off_c, 1, 71, 0
1, 89280, Note_on_c, 1, 72, 127
1, 89280, Note_on_c, 1, 48, 127
1, 89472, Note_off_c, 1, 72, 0
1, 89520, Note_on_c, 1, 74, 127
1, 89712, Note_off_c, 1, 74, 0
1, 89760, Note_on_c, 1, 76, 127
1, 89856, Note_off_c, 1, 48, 0
1, 89952, Note_off_c, 1, 57, 0
1, 89952, Note_off_c, 1, 76, 0
1, 90000, Note_on_c, 1, 77, 127
1, 90000, Note_on_c, 1, 50, 127
1, 90192, Note_off_c, 1, 77, 0
1, 90192, Note_off_c, 1, 50, 0
1, 90240, Note_on_c, 1, 71, 127
1, 90240, Note_on_c, 1, 68, 127
1, 90240, Note_on_c, 1, 52, 127
1, 90432, Note_off_c, 1, 52, 0
1, 90720, Note_on_c, 1, 47, 127
1, 90816, Note_off_c, 1, 71, 0
1, 90960, Note_on_c, 1, 73, 127
1, 91008, Note_off_c, 1, 68, 0
1, 91152, Note_off_c, 1, 73, 0
1, 91200, Note_on_c, 1, 74, 127
1, 91200, Note_on_c, 1, 67, 127
1, 91296, Note_off_c, 1, 47, 0
1, 91392, Note_off_c, 1, 74, 0
1, 91440, Note_on_c, 1, 76, 127
1, 91440, Note_on_c, 1, 49, 127
1, 91584, Note_off_c, 1, 67, 0
1, 91632, Note_off_c, 1, 76, 0
1, 91632, Note_off_c, 1, 49, 0
1, 91680, Note_on_c, 1, 66, 127
1, 91680, Note_on_c, 1, 69, 127
1, 91680, Note_on_c, 1, 50, 127
1, 91872, Note_off_c, 1, 50, 0
1, 91920, Note_on_c, 1, 45, 127
1, 92112, Note_off_c, 1, 45, 0
1, 92256, Note_off_c, 1, 66, 0
1, 92400, Note_on_c, 1, 64, 127
1, 92448, Note_off_c, 1, 69, 0
1, 92592, Note_off_c, 1, 64, 0
1, 92640, Note_on_c, 1, 65, 127
1, 92640, Note_on_c, 1, 71, 127
1, 92832, Note_off_c, 1, 65, 0
1, 92880, Note_on_c, 1, 62, 127
1, 93264, Note_off_c, 1, 62, 0
1, 93360, Note_on_c, 1, 44, 127
1, 93504, Note_off_c, 1, 71, 0
1, 93552, Note_off_c, 1, 44, 0
1, 93600, Note_on_c, 1, 48, 127
1, 94320, Note_on_c, 1, 60, 127
1, 94512, Note_off_c, 1, 60, 0
1, 94752, Note_off_c, 1, 48, 0
1, 94800, Note_on_c, 1, 42, 127
1, 94992, Note_off_c, 1, 42, 0
1, 95040, Note_on_c, 1, 67, 127
1, 95040, Note_on_c, 1, 47, 127
1, 95760, Note_on_c, 1, 59, 127
1, 95952, Note_off_c, 1, 59, 0
1, 96192, Note_off_c, 1, 47, 0
1, 96240, Note_on_c, 1, 40, 127
1, 96384, Note_off_c, 1, 67, 0
1, 96432, Note_off_c, 1, 40, 0
1, 97200, Note_on_c, 1, 57, 127
1, 97392, Note_off_c, 1, 57, 0
1, 97920, Note_on_c, 1, 43, 127
1, 98400, Note_on_c, 1, 58, 127
1, 98784, Note_off_c, 1, 58, 0
1, 98880, Note_on_c, 1, 61, 127
1, 99264, Note_off_c, 1, 43, 0
1, 99456, Note_off_c, 1, 61, 0
1, 99840, Note_on_c, 1, 41, 127
1, 100080, Note_on_c, 1, 70, 127
1, 100224, Note_off_c, 1, 41, 0
1, 100272, Note_off_c, 1, 70, 0
1, 101760, Note_on_c, 1, 62, 127
1, 101760, Note_on_c, 1, 65, 127
1, 101760, Note_on_c, 1, 38, 127
1, 102000, Note_on_c, 1, 50, 127
1, 102144, Note_off_c, 1, 62, 0
1, 102144, Note_off_c, 1, 65, 0
1, 102192, Note_off_c, 1, 50, 0
1, 102240, Note_on_c, 1, 66, 127
1, 102240, Note_on_c, 1, 57, 127
1, 102336, Note_off_c, 1, 38, 0
1, 102720, Note_on_c, 1, 48, 127
1, 102816, Note_off_c, 1, 66, 0
1, 102816, Note_off_c, 1, 57, 0
1, 102912, Note_off_c, 1, 48, 0
1, 102960, Note_on_c, 1, 66, 127
1, 102960, Note_on_c, 1, 57, 127
1, 102960, Note_on_c, 1, 50, 127
1, 103152, Note_off_c, 1, 66, 0
1, 103152, Note_off_c, 1, 57, 0
1, 103152, Note_off_c, 1, 50, 0
1, 103200, Note_on_c, 1, 67, 127
1, 103200, Note_on_c, 1, 58, 127
1, 103200, Note_on_c, 1, 43, 127
1, 103392, Note_off_c, 1, 58, 0
1, 103584, Note_off_c, 1, 67, 0
1, 103584, Note_off_c, 1, 43, 0
1, 103680, Note_on_c, 1, 62, 127
1, 103680, Note_on_c, 1, 53, 127
1, 103680, Note_on_c, 1, 46, 127
1, 104064, Note_off_c, 1, 62, 0
1, 104160, Note_on_c, 1, 74, 127
1, 104160, Note_on_c, 1, 70, 127
1, 104256, Note_off_c, 1, 53, 0
1, 104400, Note_on_c, 1, 55, 127
1, 104448, Note_off_c, 1, 46, 0
1, 104544, Note_off_c, 1, 74, 0
1, 104544, Note_off_c, 1, 70, 0
1, 104592, Note_off_c, 1, 55, 0
1, 104640, Note_on_c, 1, 73, 127
1, 104640, Note_on_c, 1, 64, 127
1, 104640, Note_on_c, 1, 57, 127
1, 104640, Note_on_c, 1, 45, 127
1, 104832, Note_off_c, 1, 57, 0
1, 105120, Note_on_c, 1, 52, 127
1, 105408, Note_off_c, 1, 73, 0
1, 105408, Note_off_c, 1, 64, 0
1, 105600, Note_on_c, 1, 72, 127
1, 105600, Note_on_c, 1, 69, 127
1, 105696, Note_off_c, 1, 52, 0
1, 105792, Note_off_c, 1, 45, 0
1, 105840, Note_on_c, 1, 54, 127
1, 105984, Note_off_c, 1, 72, 0
1, 105984, Note_off_c, 1, 69, 0
1, 106032, Note_off_c, 1, 54, 0
1, 106080, Note_on_c, 1, 71, 127
1, 106080, Note_on_c, 1, 62, 127
1, 106080, Note_on_c, 1, 55, 127
1, 106080, Note_on_c, 1, 43, 127
1, 106272, Note_off_c, 1, 55, 0
1, 106320, Note_on_c, 1, 50, 127
1, 106512, Note_off_c, 1, 50, 0
1, 106656, Note_off_c, 1, 71, 0
1, 106800, Note_on_c, 1, 69, 127
1, 106848, Note_off_c, 1, 62, 0
1, 106848, Note_off_c, 1, 43, 0
1, 106992, Note_off_c, 1, 69, 0
1, 107040, Note_on_c, 1, 70, 127
1, 107040, Note_on_c, 1, 64, 127
1, 107040, Note_on_c, 1, 48, 127
1, 107232, Note_off_c, 1, 70, 0
1, 107280, Note_on_c, 1, 67, 127
1, 107424, Note_off_c, 1, 64, 0
1, 107424, Note_off_c, 1, 48, 0
1, 107472, Note_off_c, 1, 67, 0
1, 107520, Note_on_c, 1, 60, 127
1, 107520, Note_on_c, 1, 41, 127
1, 107904, Note_off_c, 1, 60, 0
1, 108000, Note_on_c, 1, 53, 127
1, 108240, Note_on_c, 1, 79, 127
1, 108288, Note_off_c, 1, 41, 0
1, 108432, Note_off_c, 1, 79, 0
1, 108480, Note_on_c, 1, 81, 127
1, 108672, Note_off_c, 1, 81, 0
1, 108720, Note_on_c, 1, 77, 127
1, 108912, Note_off_c, 1, 77, 0
1, 109152, Note_off_c, 1, 53, 0
1, 109200, Note_on_c, 1, 47, 127
1, 109392, Note_off_c, 1, 47, 0
1, 109440, Note_on_c, 1, 52, 127
1, 110160, Note_on_c, 1, 76, 127
1, 110352, Note_off_c, 1, 76, 0
1, 110592, Note_off_c, 1, 52, 0
1, 110640, Note_on_c, 1, 45, 127
1, 110832, Note_off_c, 1, 45, 0
1, 112080, Note_on_c, 1, 38, 127
1, 112272, Note_off_c, 1, 38, 0
1, 112800, Note_on_c, 1, 49, 127
1, 113040, Note_on_c, 1, 74, 127
1, 113184, Note_off_c, 1, 49, 0
1, 113232, Note_off_c, 1, 74, 0
1, 113280, Note_on_c, 1, 74, 127
1, 113280, Note_on_c, 1, 50, 127
1, 113280, Note_on_c, 1, 46, 127
1, 113472, Note_off_c, 1, 46, 0
1, 113664, Note_off_c, 1, 74, 0
1, 113760, Note_on_c, 1, 69, 127
1, 113760, Note_on_c, 1, 41, 127
1, 114240, Note_on_c, 1, 62, 127
1, 114336, Note_off_c, 1, 69, 0
1, 114336, Note_off_c, 1, 41, 0
1, 114432, Note_off_c, 1, 50, 0
1, 114480, Note_on_c, 1, 70, 127
1, 114480, Note_on_c, 1, 55, 127
1, 114480, Note_on_c, 1, 43, 127
1, 114624, Note_off_c, 1, 62, 0
1, 114672, Note_off_c, 1, 70, 0
1, 114672, Note_off_c, 1, 55, 0
1, 114672, Note_off_c, 1, 43, 0
1, 114720, Note_on_c, 1, 69, 127
1, 114720, Note_on_c, 1, 61, 127
1, 114720, Note_on_c, 1, 52, 127
1, 114720, Note_on_c, 1, 45, 127
1, 114912, Note_off_c, 1, 45, 0
1, 115104, Note_off_c, 1, 69, 0
1, 115104, Note_off_c, 1, 52, 0
1, 115200, Note_on_c, 1, 55, 127
1, 115200, Note_on_c, 1, 40, 127
1, 115488, Note_off_c, 1, 61, 0
1, 115680, Note_on_c, 1, 60, 127
1, 115776, Note_off_c, 1, 55, 0
1, 115776, Note_off_c, 1, 40, 0
1, 115920, Note_on_c, 1, 57, 127
1, 115920, Note_on_c, 1, 42, 127
1, 116064, Note_off_c, 1, 60, 0
1, 116112, Note_off_c, 1, 57, 0
1, 116112, Note_off_c, 1, 42, 0
1, 116160, Note_on_c, 1, 59, 127
1, 116160, Note_on_c, 1, 50, 127
1, 116160, Note_on_c, 1, 43, 127
1, 116352, Note_off_c, 1, 43, 0
1, 116400, Note_on_c, 1, 38, 127
1, 116592, Note_off_c, 1, 38, 0
1, 116736, Note_off_c, 1, 59, 0
1, 116880, Note_on_c, 1, 57, 127
1, 117072, Note_off_c, 1, 57, 0
1, 117120, Note_on_c, 1, 58, 127
1, 117312, Note_off_c, 1, 50, 0
1, 117312, Note_off_c, 1, 58, 0
1, 117360, Note_on_c, 1, 55, 127
1, 117360, Note_on_c, 1, 52, 127
1, 117552, Note_off_c, 1, 55, 0
1, 117552, Note_off_c, 1, 52, 0
1, 117600, Note_on_c, 1, 49, 127
1, 117840, Note_on_c, 1, 45, 127
1, 118032, Note_off_c, 1, 45, 0
1, 118050, Note_off_c, 1, 49, 0
1, 118080, Note_on_c, 1, 59, 127
1, 118080, Note_on_c, 1, 50, 127
1, 118080, Note_on_c, 1, 41, 127
1, 118272, Note_off_c, 1, 41, 0
1, 118320, Note_on_c, 1, 43, 127
1, 118464, Note_off_c, 1, 59, 0
1, 118512, Note_off_c, 1, 43, 0
1, 118530, Note_off_c, 1, 50, 0
1, 118560, Note_on_c, 1, 61, 127
1, 118560, Note_on_c, 1, 52, 127
1, 118560, Note_on_c, 1, 40, 127
1, 118752, Note_off_c, 1, 40, 0
1, 118800, Note_on_c, 1, 41, 127
1, 118944, Note_off_c, 1, 61, 0
1, 118992, Note_off_c, 1, 41, 0
1, 119010, Note_off_c, 1, 52, 0
1, 119040, Note_on_c, 1, 62, 127
1, 119040, Note_on_c, 1, 53, 127
1, 119040, Note_on_c, 1, 38, 127
1, 119232, Note_off_c, 1, 53, 0
1, 119280, Note_on_c, 1, 58, 127
1, 119424, Note_off_c, 1, 62, 0
1, 119424, Note_off_c, 1, 38, 0
1, 119760, Note_on_c, 1, 65, 127
1, 119856, Note_off_c, 1, 58, 0
1, 120336, Note_off_c, 1, 65, 0
1, 120480, Note_on_c, 1, 55, 127
1, 120480, Note_on_c, 1, 40, 127
1, 120672, Note_off_c, 1, 55, 0
1, 120720, Note_on_c, 1, 60, 127
1, 120864, Note_off_c, 1, 40, 0
1, 120960, Note_on_c, 1, 64, 127
1, 121152, Note_off_c, 1, 64, 0
1, 121200, Note_on_c, 1, 67, 127
1, 121296, Note_off_c, 1, 60, 0
1, 121680, Note_on_c, 1, 58, 127
1, 121872, Note_off_c, 1, 58, 0
1, 121920, Note_on_c, 1, 57, 127
1, 121920, Note_on_c, 1, 41, 127
1, 122112, Note_off_c, 1, 67, 0
1, 122304, Note_off_c, 1, 41, 0
1, 122400, Note_on_c, 1, 65, 127
1, 122496, Note_off_c, 1, 57, 0
1, 122592, Note_off_c, 1, 65, 0
1, 122640, Note_on_c, 1, 69, 127
1, 122880, Note_on_c, 1, 57, 127
1, 122880, Note_on_c, 1, 42, 127
1, 123072, Note_off_c, 1, 57, 0
1, 123120, Note_on_c, 1, 60, 127
1, 123264, Note_off_c, 1, 42, 0
1, 123312, Note_off_c, 1, 60, 0
1, 123360, Note_on_c, 1, 58, 127
1, 123360, Note_on_c, 1, 43, 127
1, 123552, Note_off_c, 1, 69, 0
1, 123600, Note_on_c, 1, 62, 127
1, 123744, Note_off_c, 1, 43, 0
1, 123792, Note_off_c, 1, 62, 0
1, 123840, Note_on_c, 1, 67, 127
1, 123936, Note_off_c, 1, 58, 0
1, 124032, Note_off_c, 1, 67, 0
1, 124080, Note_on_c, 1, 70, 127
1, 124320, Note_on_c, 1, 63, 127
1, 124320, Note_on_c, 1, 55, 127
1, 124512, Note_off_c, 1, 63, 0
1, 124560, Note_on_c, 1, 62, 127
1, 124704, Note_off_c, 1, 55, 0
1, 124752, Note_off_c, 1, 62, 0
1, 124800, Note_on_c, 1, 61, 127
1, 124800, Note_on_c, 1, 57, 127
1, 124992, Note_off_c, 1, 70, 0
1, 125040, Note_on_c, 1, 69, 127
1, 125184, Note_off_c, 1, 61, 0
1, 125184, Note_off_c, 1, 57, 0
1, 125280, Note_on_c, 1, 58, 127
1, 125424, Note_off_c, 1, 69, 0
1, 125664, Note_off_c, 1, 58, 0
1, 125760, Note_on_c, 1, 74, 127
1, 125760, Note_on_c, 1, 59, 127
1, 125952, Note_off_c, 1, 74, 0
1, 126000, Note_on_c, 1, 68, 127
1, 126144, Note_off_c, 1, 59, 0
1, 126192, Note_off_c, 1, 68, 0
1, 126240, Note_on_c, 1, 69, 127
1, 126240, Note_on_c, 1, 64, 127
1, 126240, Note_on_c, 1, 60, 127
1, 126432, Note_off_c, 1, 69, 0
1, 126480, Note_on_c, 1, 76, 127
1, 126624, Note_off_c, 1, 64, 0
1, 126720, Note_on_c, 1, 67, 127
1, 126912, Note_off_c, 1, 67, 0
1, 126960, Note_on_c, 1, 70, 127
1, 127008, Note_off_c, 1, 60, 0
1, 127152, Note_off_c, 1, 70, 0
1, 127200, Note_on_c, 1, 61, 127
1, 127584, Note_off_c, 1, 61, 0
1, 127680, Note_on_c, 1, 65, 127
1, 127680, Note_on_c, 1, 62, 127
1, 127872, Note_off_c, 1, 76, 0
1, 128064, Note_off_c, 1, 65, 0
1, 128160, Note_on_c, 1, 74, 127
1, 128160, Note_on_c, 1, 66, 127
1, 128352, Note_off_c, 1, 74, 0
1, 128400, Note_on_c, 1, 72, 127
1, 128448, Note_off_c, 1, 62, 0
1, 128544, Note_off_c, 1, 66, 0
1, 128592, Note_off_c, 1, 72, 0
1, 128640, Note_on_c, 1, 70, 127
1, 128640, Note_on_c, 1, 67, 127
1, 128640, Note_on_c, 1, 55, 127
1, 128832, Note_off_c, 1, 70, 0
1, 128832, Note_off_c, 1, 67, 0
1, 128880, Note_on_c, 1, 69, 127
1, 128880, Note_on_c, 1, 65, 127
1, 129072, Note_off_c, 1, 69, 0
1, 129072, Note_off_c, 1, 65, 0
1, 129120, Note_on_c, 1, 64, 127
1, 129312, Note_off_c, 1, 64, 0
1, 129360, Note_on_c, 1, 74, 127
1, 129360, Note_on_c, 1, 62, 127
1, 129504, Note_off_c, 1, 55, 0
1, 129552, Note_off_c, 1, 74, 0
1, 129552, Note_off_c, 1, 62, 0
1, 129600, Note_on_c, 1, 64, 127
1, 129600, Note_on_c, 1, 81, 127
1, 129600, Note_on_c, 1, 61, 127
1, 129600, Note_on_c, 1, 57, 127
1, 129792, Note_off_c, 1, 64, 0
1, 129792, Note_off_c, 1, 61, 0
1, 129840, Note_on_c, 1, 65, 127
1, 129840, Note_on_c, 1, 62, 127
1, 130032, Note_off_c, 1, 65, 0
1, 130176, Note_off_c, 1, 81, 0
1, 130224, Note_off_c, 1, 62, 0
1, 130368, Note_off_c, 1, 57, 0
1, 130560, Note_on_c, 1, 82, 127
1, 130560, Note_on_c, 1, 65, 127
1, 130560, Note_on_c, 1, 62, 127
1, 130560, Note_on_c, 1, 50, 127
1, 130752, Note_off_c, 1, 82, 0
1, 130944, Note_off_c, 1, 65, 0
1, 130944, Note_off_c, 1, 62, 0
1, 130944, Note_off_c, 1, 50, 0
1, 131040, Note_on_c, 1, 77, 127
1, 131280, Note_on_c, 1, 65, 127
1, 131472, Note_off_c, 1, 65, 0
1, 131520, Note_on_c, 1, 70, 127
1, 131520, Note_on_c, 1, 62, 127
1, 131616, Note_off_c, 1, 77, 0
1, 131760, Note_on_c, 1, 79, 127
1, 131904, Note_off_c, 1, 70, 0
1, 131904, Note_off_c, 1, 62, 0
1, 131952, Note_off_c, 1, 79, 0
1, 132000, Note_on_c, 1, 81, 127
1, 132000, Note_on_c, 1, 64, 127
1, 132000, Note_on_c, 1, 61, 127
1, 132192, Note_off_c, 1, 81, 0
1, 132384, Note_off_c, 1, 64, 0
1, 132384, Note_off_c, 1, 61, 0
1, 132480, Note_on_c, 1, 76, 127
1, 132720, Note_on_c, 1, 64, 127
1, 132912, Note_off_c, 1, 64, 0
1, 132960, Note_on_c, 1, 69, 127
1, 132960, Note_on_c, 1, 60, 127
1, 133056, Note_off_c, 1, 76, 0
1, 133200, Note_on_c, 1, 78, 127
1, 133344, Note_off_c, 1, 69, 0
1, 133344, Note_off_c, 1, 60, 0
1, 133392, Note_off_c, 1, 78, 0
1, 133440, Note_on_c, 1, 79, 127
1, 133440, Note_on_c, 1, 62, 127
1, 133440, Note_on_c, 1, 59, 127
1, 133632, Note_off_c, 1, 79, 0
1, 133680, Note_on_c, 1, 74, 127
1, 133824, Note_off_c, 1, 62, 0
1, 133872, Note_off_c, 1, 74, 0
1, 134016, Note_off_c, 1, 59, 0
1, 134160, Note_on_c, 1, 57, 127
1, 134352, Note_off_c, 1, 57, 0
1, 134400, Note_on_c, 1, 58, 127
1, 134592, Note_off_c, 1, 58, 0
1, 134640, Note_on_c, 1, 55, 127
1, 134832, Note_off_c, 1, 55, 0
1, 134880, Note_on_c, 1, 61, 127
1, 135120, Note_on_c, 1, 73, 127
1, 135264, Note_off_c, 1, 61, 0
1, 135312, Note_off_c, 1, 73, 0
1, 135360, Note_on_c, 1, 77, 127
1, 135840, Note_on_c, 1, 60, 127
1, 136080, Note_on_c, 1, 50, 127
1, 136224, Note_off_c, 1, 60, 0
1, 136272, Note_off_c, 1, 50, 0
1, 136512, Note_off_c, 1, 77, 0
1, 136560, Note_on_c, 1, 71, 127
1, 136752, Note_off_c, 1, 71, 0
1, 136800, Note_on_c, 1, 76, 127
1, 137040, Note_on_c, 1, 53, 127
1, 137232, Note_off_c, 1, 53, 0
1, 137520, Note_on_c, 1, 48, 127
1, 137712, Note_off_c, 1, 48, 0
1, 137952, Note_off_c, 1, 76, 0
1, 138000, Note_on_c, 1, 69, 127
1, 138192, Note_off_c, 1, 69, 0
1, 138480, Note_on_c, 1, 52, 127
1, 138672, Note_off_c, 1, 52, 0
1, 139440, Note_on_c, 1, 67, 127
1, 139824, Note_off_c, 1, 67, 0
1, 140160, Note_on_c, 1, 65, 127
1, 140352, Note_off_c, 1, 65, 0
1, 140400, Note_on_c, 1, 64, 127
1, 140592, Note_off_c, 1, 64, 0
1, 140640, Note_on_c, 1, 70, 127
1, 140640, Note_on_c, 1, 74, 127
1, 140640, Note_on_c, 1, 65, 127
1, 140640, Note_on_c, 1, 50, 127
1, 140832, Note_off_c, 1, 70, 0
1, 141024, Note_off_c, 1, 74, 0
1, 141024, Note_off_c, 1, 65, 0
1, 141408, Note_off_c, 1, 50, 0
1, 141840, Note_on_c, 1, 67, 127
1, 142032, Note_off_c, 1, 67, 0
1, 142080, Note_on_c, 1, 69, 127
1, 142080, Note_on_c, 1, 73, 127
1, 142272, Note_off_c, 1, 69, 0
1, 142560, Note_on_c, 1, 64, 127
1, 142848, Note_off_c, 1, 73, 0
1, 143040, Note_on_c, 1, 72, 127
1, 143136, Note_off_c, 1, 64, 0
1, 143280, Note_on_c, 1, 66, 127
1, 143424, Note_off_c, 1, 72, 0
1, 143472, Note_off_c, 1, 66, 0
1, 143520, Note_on_c, 1, 67, 127
1, 143520, Note_on_c, 1, 71, 127
1, 143712, Note_off_c, 1, 67, 0
1, 143760, Note_on_c, 1, 62, 127
1, 143952, Note_off_c, 1, 62, 0
1, 144096, Note_off_c, 1, 71, 0
1, 144240, Note_on_c, 1, 69, 127
1, 144432, Note_off_c, 1, 69, 0
1, 144480, Note_on_c, 1, 70, 127
1, 144672, Note_off_c, 1, 70, 0
1, 144720, Note_on_c, 1, 67, 127
1, 144960, Note_on_c, 1, 69, 127
1, 145152, Note_off_c, 1, 67, 0
1, 145200, Note_on_c, 1, 61, 127
1, 145200, Note_on_c, 1, 57, 127
1, 145392, Note_off_c, 1, 61, 0
1, 145392, Note_off_c, 1, 57, 0
1, 145440, Note_on_c, 1, 65, 127
1, 145440, Note_on_c, 1, 62, 127
1, 145536, Note_off_c, 1, 69, 0
1, 145920, Note_on_c, 1, 74, 127
1, 146016, Note_off_c, 1, 65, 0
1, 146016, Note_off_c, 1, 62, 0
1, 146160, Note_on_c, 1, 64, 127
1, 146352, Note_off_c, 1, 64, 0
1, 146592, Note_off_c, 1, 74, 0
1, 146880, Note_on_c, 1, 76, 127
1, 146880, Note_on_c, 1, 60, 127
1, 147072, Note_off_c, 1, 76, 0
1, 147120, Note_on_c, 1, 74, 127
1, 147312, Note_off_c, 1, 74, 0
1, 147360, Note_on_c, 1, 69, 127
1, 147456, Note_off_c, 1, 60, 0
1, 147600, Note_on_c, 1, 77, 127
1, 147600, Note_on_c, 1, 62, 127
1, 147744, Note_off_c, 1, 69, 0
1, 147792, Note_off_c, 1, 77, 0
1, 147825, Note_off_c, 1, 62, 0
1, 147840, Note_on_c, 1, 71, 127
1, 147840, Note_on_c, 1, 68, 127
1, 147840, Note_on_c, 1, 64, 127
1, 148032, Note_off_c, 1, 71, 0
1, 148065, Note_off_c, 1, 64, 0
1, 148080, Note_on_c, 1, 72, 127
1, 148272, Note_off_c, 1, 72, 0
1, 148320, Note_on_c, 1, 74, 127
1, 148320, Note_on_c, 1, 59, 127
1, 148512, Note_off_c, 1, 74, 0
1, 148608, Note_off_c, 1, 68, 0
1, 148800, Note_on_c, 1, 67, 127
1, 148896, Note_off_c, 1, 59, 0
1, 149040, Note_on_c, 1, 76, 127
1, 149040, Note_on_c, 1, 61, 127
1, 149232, Note_off_c, 1, 61, 0
1, 149250, Note_off_c, 1, 67, 0
1, 149280, Note_on_c, 1, 66, 127
1, 149280, Note_on_c, 1, 62, 127
1, 149472, Note_off_c, 1, 62, 0
1, 149520, Note_on_c, 1, 57, 127
1, 149664, Note_off_c, 1, 76, 0
1, 149712, Note_off_c, 1, 57, 0
1, 149856, Note_off_c, 1, 66, 0
1, 150240, Note_on_c, 1, 65, 127
1, 150432, Note_off_c, 1, 65, 0
1, 150960, Note_on_c, 1, 56, 127
1, 151152, Note_off_c, 1, 56, 0
1, 151200, Note_on_c, 1, 69, 127
1, 151200, Note_on_c, 1, 60, 127
1, 151584, Note_off_c, 1, 69, 0
1, 152352, Note_off_c, 1, 60, 0
1, 152400, Note_on_c, 1, 54, 127
1, 152592, Note_off_c, 1, 54, 0
1, 153840, Note_on_c, 1, 52, 127
1, 154032, Note_off_c, 1, 52, 0
1, 155040, Note_on_c, 1, 63, 127
1, 155424, Note_off_c, 1, 63, 0
1, 155520, Note_on_c, 1, 55, 127
1, 155712, Note_off_c, 1, 55, 0
1, 156000, Note_on_c, 1, 51, 127
1, 156192, Note_off_c, 1, 51, 0
1, 156240, Note_on_c, 1, 66, 127
1, 156240, Note_on_c, 1, 52, 127
1, 156336, Note_off_c, 1, 66, 0
1, 156360, Note_on_c, 1, 64, 127
1, 156432, Note_off_c, 1, 52, 0
1, 156456, Note_off_c, 1, 64, 0
1, 156480, Note_on_c, 1, 69, 127
1, 156480, Note_on_c, 1, 64, 127
1, 156480, Note_on_c, 1, 48, 127
1, 156672, Note_off_c, 1, 69, 0
1, 156720, Note_on_c, 1, 71, 127
1, 156768, Note_off_c, 1, 48, 0
1, 156840, Note_on_c, 1, 47, 127
1, 156912, Note_off_c, 1, 71, 0
1, 156936, Note_off_c, 1, 47, 0
1, 156960, Note_on_c, 1, 72, 127
1, 156960, Note_on_c, 1, 45, 127
1, 157152, Note_off_c, 1, 72, 0
1, 157152, Note_off_c, 1, 45, 0
1, 157200, Note_on_c, 1, 66, 127
1, 157200, Note_on_c, 1, 57, 127
1, 157248, Note_off_c, 1, 64, 0
1, 157392, Note_off_c, 1, 66, 0
1, 157392, Note_off_c, 1, 57, 0
1, 157440, Note_on_c, 1, 68, 127
1, 157440, Note_on_c, 1, 62, 127
1, 157440, Note_on_c, 1, 59, 127
1, 157632, Note_off_c, 1, 68, 0
1, 157632, Note_off_c, 1, 59, 0
1, 157680, Note_on_c, 1, 69, 127
1, 157680, Note_on_c, 1, 47, 127
1, 157824, Note_off_c, 1, 62, 0
1, 157872, Note_off_c, 1, 69, 0
1, 157872, Note_off_c, 1, 47, 0
1, 157920, Note_on_c, 1, 68, 127
1, 157920, Note_on_c, 1, 52, 127
1, 158112, Note_off_c, 1, 68, 0
1, 158160, Note_on_c, 1, 64, 127
1, 158304, Note_off_c, 1, 52, 0
1, 158400, Note_on_c, 1, 76, 127
1, 158496, Note_off_c, 1, 64, 0
1, 158640, Note_on_c, 1, 62, 127
1, 158832, Note_off_c, 1, 62, 0
1, 158880, Note_on_c, 1, 61, 127
1, 158976, Note_off_c, 1, 76, 0
1, 159072, Note_off_c, 1, 61, 0
1, 159120, Note_on_c, 1, 59, 127
1, 159120, Note_on_c, 1, 74, 127
1, 159312, Note_off_c, 1, 59, 0
1, 159312, Note_off_c, 1, 74, 0
1, 159360, Note_on_c, 1, 73, 127
1, 159360, Note_on_c, 1, 57, 127
1, 159552, Note_off_c, 1, 73, 0
1, 159600, Note_on_c, 1, 76, 127
1, 159744, Note_off_c, 1, 57, 0
1, 159792, Note_off_c, 1, 76, 0
1, 159840, Note_on_c, 1, 81, 127
1, 160080, Note_on_c, 1, 55, 127
1, 160272, Note_off_c, 1, 55, 0
1, 160320, Note_on_c, 1, 53, 127
1, 160416, Note_off_c, 1, 81, 0
1, 160512, Note_off_c, 1, 53, 0
1, 160560, Note_on_c, 1, 79, 127
1, 160560, Note_on_c, 1, 52, 127
1, 160752, Note_off_c, 1, 79, 0
1, 160752, Note_off_c, 1, 52, 0
1, 160800, Note_on_c, 1, 77, 127
1, 160800, Note_on_c, 1, 50, 127
1, 160992, Note_off_c, 1, 77, 0
1, 161040, Note_on_c, 1, 69, 127
1, 161232, Note_off_c, 1, 69, 0
1, 161280, Note_off_c, 1, 50, 0
1, 161280, Note_on_c, 1, 74, 127
1, 161520, Note_on_c, 1, 60, 127
1, 161712, Note_off_c, 1, 60, 0
1, 161760, Note_on_c, 1, 58, 127
1, 161856, Note_off_c, 1, 74, 0
1, 161952, Note_off_c, 1, 58, 0
1, 162000, Note_on_c, 1, 72, 127
1, 162000, Note_on_c, 1, 57, 127
1, 162192, Note_off_c, 1, 72, 0
1, 162192, Note_off_c, 1, 57, 0
1, 162240, Note_on_c, 1, 70, 127
1, 162240, Note_on_c, 1, 55, 127
1, 162432, Note_off_c, 1, 70, 0
1, 162480, Note_on_c, 1, 67, 127
1, 162624, Note_off_c, 1, 55, 0
1, 162672, Note_off_c, 1, 67, 0
1, 162720, Note_on_c, 1, 74, 127
1, 162960, Note_on_c, 1, 58, 127
1, 163152, Note_off_c, 1, 58, 0
1, 163200, Note_on_c, 1, 63, 127
1, 163296, Note_off_c, 1, 74, 0
1, 163392, Note_off_c, 1, 63, 0
1, 163440, Note_on_c, 1, 72, 127
1, 163440, Note_on_c, 1, 57, 127
1, 163632, Note_off_c, 1, 57, 0
1, 163680, Note_on_c, 1, 62, 127
1, 163872, Note_off_c, 1, 72, 0
1, 163872, Note_off_c, 1, 62, 0
1, 163920, Note_on_c, 1, 70, 127
1, 163920, Note_on_c, 1, 55, 127
1, 164112, Note_off_c, 1, 55, 0
1, 164160, Note_on_c, 1, 60, 127
1, 164304, Note_off_c, 1, 70, 0
1, 164352, Note_off_c, 1, 60, 0
1, 164400, Note_on_c, 1, 69, 127
1, 164400, Note_on_c, 1, 62, 127
1, 164592, Note_off_c, 1, 62, 0
1, 164640, Note_on_c, 1, 63, 127
1, 164784, Note_off_c, 1, 69, 0
1, 164832, Note_off_c, 1, 63, 0
1, 164880, Note_on_c, 1, 67, 127
1, 164880, Note_on_c, 1, 58, 127
1, 165072, Note_off_c, 1, 58, 0
1, 165120, Note_on_c, 1, 60, 127
1, 165312, Note_off_c, 1, 67, 0
1, 165312, Note_off_c, 1, 60, 0
1, 165360, Note_on_c, 1, 69, 127
1, 165360, Note_on_c, 1, 57, 127
1, 165552, Note_off_c, 1, 69, 0
1, 165552, Note_off_c, 1, 57, 0
1, 165600, Note_on_c, 1, 66, 127
1, 165600, Note_on_c, 1, 62, 127
1, 165600, Note_on_c, 1, 67, 127
1, 165657, Note_off_c, 1, 67, 0
1, 165984, Note_off_c, 1, 62, 0
1, 166080, Note_on_c, 1, 50, 127
1, 166197, Note_off_c, 1, 66, 0
1, 166464, Note_off_c, 1, 50, 0
1, 166560, Note_on_c, 1, 67, 127
1, 166560, Note_on_c, 1, 55, 127
1, 166752, Note_off_c, 1, 67, 0
1, 166944, Note_off_c, 1, 55, 0
1, 167040, Note_on_c, 1, 74, 127
1, 167280, Note_on_c, 1, 62, 127
1, 167472, Note_off_c, 1, 62, 0
1, 167520, Note_on_c, 1, 67, 127
1, 167616, Note_off_c, 1, 74, 0
1, 167760, Note_on_c, 1, 55, 127
1, 167952, Note_off_c, 1, 55, 0
1, 168000, Note_on_c, 1, 75, 127
1, 168000, Note_on_c, 1, 60, 127
1, 168192, Note_off_c, 1, 75, 0
1, 168192, Note_off_c, 1, 60, 0
1, 168384, Note_off_c, 1, 67, 0
1, 168480, Note_on_c, 1, 70, 127
1, 168480, Note_on_c, 1, 55, 127
1, 168720, Note_on_c, 1, 58, 127
1, 168912, Note_off_c, 1, 58, 0
1, 168960, Note_on_c, 1, 63, 127
1, 169056, Note_off_c, 1, 70, 0
1, 169056, Note_off_c, 1, 55, 0
1, 169200, Note_on_c, 1, 72, 127
1, 169200, Note_on_c, 1, 57, 127
1, 169344, Note_off_c, 1, 63, 0
1, 169392, Note_off_c, 1, 72, 0
1, 169392, Note_off_c, 1, 57, 0
1, 169440, Note_on_c, 1, 74, 127
1, 169440, Note_on_c, 1, 62, 127
1, 169440, Note_on_c, 1, 58, 127
1, 169632, Note_off_c, 1, 74, 0
1, 169632, Note_off_c, 1, 58, 0
1, 169824, Note_off_c, 1, 62, 0
1, 169920, Note_on_c, 1, 69, 127
1, 169920, Note_on_c, 1, 54, 127
1, 170160, Note_on_c, 1, 57, 127
1, 170352, Note_off_c, 1, 57, 0
1, 170400, Note_on_c, 1, 62, 127
1, 170496, Note_off_c, 1, 69, 0
1, 170496, Note_off_c, 1, 54, 0
1, 170640, Note_on_c, 1, 70, 127
1, 170640, Note_on_c, 1, 55, 127
1, 170784, Note_off_c, 1, 62, 0
1, 170832, Note_off_c, 1, 70, 0
1, 170832, Note_off_c, 1, 55, 0
1, 170880, Note_on_c, 1, 72, 127
1, 170880, Note_on_c, 1, 60, 127
1, 170880, Note_on_c, 1, 57, 127
1, 171072, Note_off_c, 1, 72, 0
1, 171072, Note_off_c, 1, 57, 0
1, 171264, Note_off_c, 1, 60, 0
1, 171360, Note_on_c, 1, 67, 127
1, 171360, Note_on_c, 1, 52, 127
1, 171600, Note_on_c, 1, 55, 127
1, 171792, Note_off_c, 1, 55, 0
1, 171840, Note_on_c, 1, 60, 127
1, 171936, Note_off_c, 1, 67, 0
1, 171936, Note_off_c, 1, 52, 0
1, 172080, Note_on_c, 1, 69, 127
1, 172080, Note_on_c, 1, 54, 127
1, 172224, Note_off_c, 1, 60, 0
1, 172272, Note_off_c, 1, 69, 0
1, 172272, Note_off_c, 1, 54, 0
1, 172320, Note_on_c, 1, 70, 127
1, 172320, Note_on_c, 1, 55, 127
1, 172560, Note_on_c, 1, 62, 127
1, 172752, Note_off_c, 1, 62, 0
1, 172800, Note_on_c, 1, 67, 127
1, 172896, Note_off_c, 1, 70, 0
1, 173040, Note_on_c, 1, 69, 127
1, 173232, Note_off_c, 1, 69, 0
1, 173376, Note_off_c, 1, 67, 0
1, 173520, Note_on_c, 1, 72, 127
1, 173712, Note_off_c, 1, 72, 0
1, 173760, Note_on_c, 1, 74, 127
1, 173952, Note_off_c, 1, 55, 0
1, 173952, Note_off_c, 1, 74, 0
1, 174000, Note_on_c, 1, 70, 127
1, 174000, Note_on_c, 1, 76, 127
1, 174000, Note_on_c, 1, 55, 127
1, 174192, Note_off_c, 1, 70, 0
1, 174192, Note_off_c, 1, 76, 0
1, 174192, Note_off_c, 1, 55, 0
1, 174240, Note_on_c, 1, 77, 127
1, 174240, Note_on_c, 1, 65, 127
1, 174240, Note_on_c, 1, 62, 127
1, 174432, Note_off_c, 1, 77, 0
1, 174480, Note_on_c, 1, 81, 127
1, 174672, Note_off_c, 1, 81, 0
1, 174720, Note_on_c, 1, 79, 127
1, 174816, Note_off_c, 1, 65, 0
1, 174816, Note_off_c, 1, 62, 0
1, 174912, Note_off_c, 1, 79, 0
1, 174960, Note_on_c, 1, 77, 127
1, 174960, Note_on_c, 1, 67, 127
1, 174960, Note_on_c, 1, 62, 127
1, 175152, Note_off_c, 1, 77, 0
1, 175152, Note_off_c, 1, 67, 0
1, 175152, Note_off_c, 1, 62, 0
1, 175200, Note_on_c, 1, 69, 127
1, 175200, Note_on_c, 1, 76, 127
1, 175200, Note_on_c, 1, 61, 127
1, 175392, Note_off_c, 1, 69, 0
1, 175680, Note_on_c, 1, 64, 127
1, 175776, Note_off_c, 1, 76, 0
1, 175920, Note_on_c, 1, 79, 127
1, 175968, Note_off_c, 1, 61, 0
1, 176112, Note_off_c, 1, 79, 0
1, 176160, Note_on_c, 1, 77, 127
1, 176160, Note_on_c, 1, 60, 127
1, 176256, Note_off_c, 1, 64, 0
1, 176352, Note_off_c, 1, 77, 0
1, 176400, Note_on_c, 1, 65, 127
1, 176544, Note_off_c, 1, 60, 0
1, 176592, Note_off_c, 1, 65, 0
1, 176640, Note_on_c, 1, 67, 127
1, 176640, Note_on_c, 1, 74, 127
1, 176640, Note_on_c, 1, 59, 127
1, 176832, Note_off_c, 1, 67, 0
1, 176880, Note_on_c, 1, 62, 127
1, 177072, Note_off_c, 1, 62, 0
1, 177216, Note_off_c, 1, 74, 0
1, 177216, Note_off_c, 1, 59, 0
1, 177360, Note_on_c, 1, 73, 127
1, 177360, Note_on_c, 1, 57, 127
1, 177552, Note_off_c, 1, 73, 0
1, 177552, Note_off_c, 1, 57, 0
1, 177600, Note_on_c, 1, 58, 127
1, 177792, Note_off_c, 1, 58, 0
1, 177840, Note_on_c, 1, 76, 127
1, 177840, Note_on_c, 1, 55, 127
1, 178032, Note_off_c, 1, 76, 0
1, 178032, Note_off_c, 1, 55, 0
1, 178320, Note_on_c, 1, 61, 127
1, 178512, Note_off_c, 1, 61, 0
1, 178560, Note_on_c, 1, 65, 127
1, 178800, Note_on_c, 1, 69, 127
1, 178992, Note_off_c, 1, 69, 0
1, 179280, Note_on_c, 1, 77, 127
1, 179472, Note_off_c, 1, 77, 0
1, 179520, Note_on_c, 1, 79, 127
1, 179712, Note_off_c, 1, 65, 0
1, 179760, Note_on_c, 1, 64, 127
1, 179904, Note_off_c, 1, 79, 0
1, 180144, Note_off_c, 1, 64, 0
1, 180960, Note_on_c, 1, 77, 127
1, 180960, Note_on_c, 1, 62, 127
1, 181200, Note_on_c, 1, 50, 127
1, 181344, Note_off_c, 1, 77, 0
1, 181344, Note_off_c, 1, 62, 0
1, 181392, Note_off_c, 1, 50, 0
1, 181440, Note_on_c, 1, 73, 127
1, 181440, Note_on_c, 1, 57, 127
1, 181680, Note_on_c, 1, 64, 127
1, 181872, Note_off_c, 1, 64, 0
1, 181920, Note_on_c, 1, 69, 127
1, 182016, Note_off_c, 1, 57, 0
1, 182112, Note_off_c, 1, 69, 0
1, 182160, Note_on_c, 1, 67, 127
1, 182208, Note_off_c, 1, 73, 0
1, 182352, Note_off_c, 1, 67, 0
1, 182400, Note_on_c, 1, 65, 127
1, 182400, Note_on_c, 1, 74, 127
1, 182400, Note_on_c, 1, 58, 127
1, 182592, Note_off_c, 1, 65, 0
1, 182592, Note_off_c, 1, 58, 0
1, 182640, Note_on_c, 1, 67, 127
1, 182784, Note_off_c, 1, 74, 0
1, 182832, Note_off_c, 1, 67, 0
1, 182880, Note_on_c, 1, 69, 127
1, 182880, Note_on_c, 1, 53, 127
1, 183072, Note_off_c, 1, 69, 0
1, 183120, Note_on_c, 1, 70, 127
1, 183312, Note_off_c, 1, 70, 0
1, 183360, Note_on_c, 1, 67, 127
1, 183360, Note_on_c, 1, 74, 127
1, 183456, Note_off_c, 1, 53, 0
1, 183552, Note_off_c, 1, 67, 0
1, 183600, Note_on_c, 1, 65, 127
1, 183600, Note_on_c, 1, 55, 127
1, 183744, Note_off_c, 1, 74, 0
1, 183792, Note_off_c, 1, 65, 0
1, 183792, Note_off_c, 1, 55, 0
1, 183840, Note_on_c, 1, 64, 127
1, 183840, Note_on_c, 1, 73, 127
1, 183840, Note_on_c, 1, 57, 127
1, 184032, Note_off_c, 1, 64, 0
1, 184032, Note_off_c, 1, 57, 0
1, 184080, Note_on_c, 1, 65, 127
1, 184272, Note_off_c, 1, 65, 0
1, 184320, Note_on_c, 1, 67, 127
1, 184320, Note_on_c, 1, 52, 127
1, 184512, Note_off_c, 1, 67, 0
1, 184560, Note_on_c, 1, 66, 127
1, 184608, Note_off_c, 1, 73, 0
1, 184752, Note_off_c, 1, 66, 0
1, 184800, Note_on_c, 1, 72, 127
1, 184896, Note_off_c, 1, 52, 0
1, 185040, Note_on_c, 1, 69, 127
1, 185040, Note_on_c, 1, 54, 127
1, 185184, Note_off_c, 1, 72, 0
1, 185232, Note_off_c, 1, 69, 0
1, 185232, Note_off_c, 1, 54, 0
1, 185280, Note_on_c, 1, 62, 127
1, 185280, Note_on_c, 1, 71, 127
1, 185280, Note_on_c, 1, 55, 127
1, 185472, Note_off_c, 1, 55, 0
1, 185520, Note_on_c, 1, 50, 127
1, 185664, Note_off_c, 1, 62, 0
1, 185712, Note_off_c, 1, 50, 0
1, 185760, Note_on_c, 1, 64, 127
1, 185856, Note_off_c, 1, 71, 0
1, 186000, Note_on_c, 1, 69, 127
1, 186192, Note_off_c, 1, 69, 0
1, 186240, Note_on_c, 1, 70, 127
1, 186432, Note_off_c, 1, 70, 0
1, 186480, Note_on_c, 1, 67, 127
1, 186528, Note_off_c, 1, 64, 0
1, 186672, Note_off_c, 1, 67, 0
1, 186720, Note_on_c, 1, 61, 127
1, 186960, Note_on_c, 1, 49, 127
1, 187104, Note_off_c, 1, 61, 0
1, 187152, Note_off_c, 1, 49, 0
1, 187200, Note_on_c, 1, 53, 127
1, 187920, Note_on_c, 1, 65, 127
1, 188112, Note_off_c, 1, 65, 0
1, 188160, Note_on_c, 1, 59, 127
1, 188352, Note_off_c, 1, 53, 0
1, 188400, Note_on_c, 1, 47, 127
1, 188544, Note_off_c, 1, 59, 0
1, 188592, Note_off_c, 1, 47, 0
1, 188640, Note_on_c, 1, 52, 127
1, 189024, Note_off_c, 1, 52, 0
1, 189120, Note_on_c, 1, 45, 127
1, 189504, Note_off_c, 1, 45, 0
1, 189600, Note_on_c, 1, 62, 127
1, 189600, Note_on_c, 1, 65, 127
1, 189600, Note_on_c, 1, 50, 127
1, 189792, Note_off_c, 1, 50, 0
1, 189840, Note_on_c, 1, 48, 127
1, 190032, Note_off_c, 1, 48, 0
1, 190080, Note_on_c, 1, 46, 127
1, 190176, Note_off_c, 1, 62, 0
1, 190320, Note_on_c, 1, 64, 127
1, 190368, Note_off_c, 1, 65, 0
1, 190512, Note_off_c, 1, 64, 0
1, 190560, Note_on_c, 1, 70, 127
1, 190560, Note_on_c, 1, 67, 127
1, 190656, Note_off_c, 1, 46, 0
1, 190800, Note_on_c, 1, 58, 127
1, 190944, Note_off_c, 1, 70, 0
1, 190992, Note_off_c, 1, 58, 0
1, 191040, Note_on_c, 1, 72, 127
1, 191040, Note_on_c, 1, 57, 127
1, 191232, Note_off_c, 1, 67, 0
1, 191280, Note_on_c, 1, 60, 127
1, 191472, Note_off_c, 1, 60, 0
1, 191616, Note_off_c, 1, 72, 0
1, 191616, Note_off_c, 1, 57, 0
1, 192000, Note_on_c, 1, 77, 127
1, 192000, Note_on_c, 1, 55, 127
1, 192192, Note_off_c, 1, 77, 0
1, 192192, Note_off_c, 1, 55, 0
1, 192240, Note_on_c, 1, 69, 127
1, 192240, Note_on_c, 1, 53, 127
1, 192432, Note_off_c, 1, 69, 0
1, 192432, Note_off_c, 1, 53, 0
1, 193440, Note_on_c, 1, 76, 127
1, 193632, Note_off_c, 1, 76, 0
1, 194880, Note_on_c, 1, 74, 127
1, 194880, Note_on_c, 1, 52, 127
1, 195072, Note_off_c, 1, 74, 0
1, 195072, Note_off_c, 1, 52, 0
1, 195600, Note_on_c, 1, 61, 127
1, 195600, Note_on_c, 1, 69, 127
1, 195600, Note_on_c, 1, 45, 127
1, 195792, Note_off_c, 1, 61, 0
1, 195792, Note_off_c, 1, 69, 0
1, 195792, Note_off_c, 1, 45, 0
1, 195840, Note_on_c, 1, 65, 127
1, 195840, Note_on_c, 1, 62, 127
1, 195840, Note_on_c, 1, 67, 127
1, 195840, Note_on_c, 1, 50, 127
1, 195897, Note_off_c, 1, 67, 0
1, 196224, Note_off_c, 1, 50, 0
1, 196320, Note_on_c, 1, 44, 127
1, 196416, Note_off_c, 1, 62, 0
1, 196437, Note_off_c, 1, 65, 0
1, 196560, Note_on_c, 1, 64, 127
1, 196560, Note_on_c, 1, 61, 127
1, 196656, Note_off_c, 1, 64, 0
1, 196656, Note_off_c, 1, 61, 0
1, 196704, Note_off_c, 1, 44, 0
1, 196800, Note_on_c, 1, 64, 127
1, 196800, Note_on_c, 1, 61, 127
1, 196800, Note_on_c, 1, 45, 127
1, 196992, Note_off_c, 1, 64, 0
1, 196992, Note_off_c, 1, 61, 0
1, 197040, Note_on_c, 1, 76, 127
1, 197040, Note_on_c, 1, 73, 127
1, 197184, Note_off_c, 1, 45, 0
1, 197232, Note_off_c, 1, 76, 0
1, 197232, Note_off_c, 1, 73, 0
1, 197280, Note_on_c, 1, 77, 127
1, 197280, Note_on_c, 1, 74, 127
1, 197340, Note_on_c, 1, 76, 127
1, 197397, Note_off_c, 1, 76, 0
1, 197760, Note_on_c, 1, 56, 127
1, 197856, Note_off_c, 1, 77, 0
1, 198144, Note_off_c, 1, 56, 0
1, 198240, Note_on_c, 1, 57, 127
1, 198720, Note_on_c, 1, 64, 127
1, 198816, Note_off_c, 1, 74, 0
1, 198960, Note_on_c, 1, 73, 127
1, 199056, Note_off_c, 1, 73, 0
1, 199080, Note_on_c, 1, 71, 127
1, 199176, Note_off_c, 1, 71, 0
1, 199296, Note_off_c, 1, 64, 0
1, 199440, Note_on_c, 1, 82, 127
1, 199632, Note_off_c, 1, 82, 0
1, 199680, Note_on_c, 1, 81, 127
1, 199680, Note_on_c, 1, 65, 127
1, 199872, Note_off_c, 1, 81, 0
1, 199872, Note_off_c, 1, 65, 0
1, 199920, Note_on_c, 1, 80, 127
1, 200112, Note_off_c, 1, 80, 0
1, 200160, Note_on_c, 1, 60, 127
1, 200736, Note_off_c, 1, 60, 0
1, 200880, Note_on_c, 1, 83, 127
1, 200880, Note_on_c, 1, 62, 127
1, 201072, Note_off_c, 1, 83, 0
1, 201072, Note_off_c, 1, 62, 0
1, 201600, Note_on_c, 1, 59, 127
1, 201840, Note_on_c, 1, 78, 127
1, 202032, Note_off_c, 1, 78, 0
1, 202080, Note_on_c, 1, 79, 127
1, 202176, Note_off_c, 1, 59, 0
1, 202272, Note_off_c, 1, 79, 0
1, 202320, Note_on_c, 1, 61, 127
1, 202512, Note_off_c, 1, 61, 0
1, 202560, Note_on_c, 1, 69, 127
1, 203460, Note_off_c, 1, 69, 0
1, 203712, Note_off_c, 1, 57, 0
1, 204000, Note_on_c, 1, 70, 127
1, 204000, Note_on_c, 1, 55, 127
1, 204384, Note_off_c, 1, 70, 0
1, 204384, Note_off_c, 1, 55, 0
1, 204480, Note_on_c, 1, 69, 127
1, 204480, Note_on_c, 1, 76, 127
1, 204480, Note_on_c, 1, 61, 127
1, 204480, Note_on_c, 1, 57, 127
1, 205056, Note_off_c, 1, 69, 0
1, 205056, Note_off_c, 1, 76, 0
1, 205056, Note_off_c, 1, 61, 0
1, 205056, Note_off_c, 1, 57, 0
1, 205200, Note_on_c, 1, 67, 127
1, 205200, Note_on_c, 1, 77, 127
1, 205200, Note_on_c, 1, 61, 127
1, 205200, Note_on_c, 1, 57, 127
1, 205392, Note_off_c, 1, 67, 0
1, 205392, Note_off_c, 1, 77, 0
1, 205392, Note_off_c, 1, 61, 0
1, 205392, Note_off_c, 1, 57, 0
1, 205440, Note_on_c, 1, 65, 127
1, 205440, Note_on_c, 1, 74, 127
1, 205440, Note_on_c, 1, 62, 127
1, 205440, Note_on_c, 1, 58, 127
1, 205824, Note_off_c, 1, 65, 0
1, 205824, Note_off_c, 1, 74, 0
1, 205824, Note_off_c, 1, 58, 0
1, 206016, Note_off_c, 1, 62, 0
1, 206880, Note_on_c, 1, 65, 127
1, 206880, Note_on_c, 1, 74, 127
1, 206880, Note_on_c, 1, 59, 127
1, 206880, Note_on_c, 1, 56, 127
1, 207072, Note_off_c, 1, 65, 0
1, 207120, Note_on_c, 1, 64, 127
1, 207264, Note_off_c, 1, 74, 0
1, 207264, Note_off_c, 1, 59, 0
1, 207264, Note_off_c, 1, 56, 0
1, 207312, Note_off_c, 1, 64, 0
1, 207360, Note_on_c, 1, 74, 127
1, 207360, Note_on_c, 1, 64, 127
1, 207360, Note_on_c, 1, 57, 127
1, 207840, Note_on_c, 1, 45, 127
1, 207936, Note_off_c, 1, 74, 0
1, 208080, Note_on_c, 1, 73, 127
1, 208128, Note_off_c, 1, 64, 0
1, 208128, Note_off_c, 1, 57, 0
1, 208224, Note_off_c, 1, 45, 0
1, 208272, Note_off_c, 1, 73, 0
1, 208320, Note_on_c, 1, 66, 127
1, 208320, Note_on_c, 1, 74, 127
1, 208320, Note_on_c, 1, 57, 127
1, 208320, Note_on_c, 1, 50, 127
1, 209472, Note_off_c, 1, 66, 0
1, 209472, Note_off_c, 1, 74, 0
1, 209472, Note_off_c, 1, 57, 0
1, 209472, Note_off_c, 1, 50, 0
1, 209472, End_track
0, 0, End_of_file