0, 0, Header, 1, 1, 480
1, 0, Start_track
1, 0, Title_t, "Test"
1, 0, Tempo, 500000
1, 0, Instrument_name_t, "Church Organ"
1, 120, Note_on_c, 1, 69, 127
1, 176, Note_off_c, 1, 69, 0
1, 240, Note_on_c, 1, 69, 127
1, 294, Note_off_c, 1, 69, 0
1, 360, Note_on_c, 1, 69, 127
1, 408, Note_off_c, 1, 69, 0
1, 480, Note_on_c, 1, 69, 127
1, 600, Note_on_c, 1, 67, 127
1, 603, Note_off_c, 1, 69, 0
1, 640, Note_off_c, 1, 67, 0
1, 660, Note_on_c, 1, 65, 127
1, 707, Note_off_c, 1, 65, 0
1, 720, Note_on_c, 1, 67, 127
1, 815, Note_off_c, 1, 67, 0
1, 840, Note_on_c, 1, 64, 127
1, 908, Note_off_c, 1, 64, 0
1, 960, Note_on_c, 1, 65, 127
1, 1030, Note_off_c, 1, 65, 0
1, 1080, Note_on_c, 1, 62, 127
1, 1128, Note_off_c, 1, 62, 0
1, 1200, Note_on_c, 1, 70, 127
1, 1200, Note_on_c, 1, 62, 127
1, 1250, Note_off_c, 1, 62, 0
1, 1271, Note_off_c, 1, 70, 0
1, 1320, Note_on_c, 1, 62, 127
1, 1351, Note_off_c, 1, 62, 0
1, 1440, Note_on_c, 1, 64, 127
1, 1440, Note_on_c, 1, 62, 127
1, 1515, Note_off_c, 1, 64, 0
1, 1560, Note_on_c, 1, 60, 127
1, 1565, Note_off_c, 1, 62, 0
1, 1605, Note_off_c, 1, 60, 0
1, 1620, Note_on_c, 1, 58, 127
1, 1674, Note_off_c, 1, 58, 0
1, 1680, Note_on_c, 1, 69, 127
1, 1680, Note_on_c, 1, 60, 127
1, 1750, Note_off_c, 1, 69, 0
1, 1791, Note_off_c, 1, 60, 0
1, 1800, Note_on_c, 1, 57, 127
1, 1916, Note_off_c, 1, 57, 0
1, 1920, Note_on_c, 1, 69, 127
1, 1920, Note_on_c, 1, 58, 127
1, 1981, Note_off_c, 1, 58, 0
1, 2036, Note_off_c, 1, 69, 0
1, 2040, Note_on_c, 1, 74, 127
1, 2040, Note_on_c, 1, 67, 127
1, 2077, Note_off_c, 1, 67, 0
1, 2100, Note_off_c, 1, 74, 0
1, 2100, Note_on_c, 1, 65, 127
1, 2136, Note_off_c, 1, 65, 0
1, 2160, Note_on_c, 1, 74, 127
1, 2160, Note_on_c, 1, 67, 127
1, 2160, Note_on_c, 1, 58, 127
1, 2201, Note_off_c, 1, 74, 0
1, 2222, Note_off_c, 1, 67, 0
1, 2224, Note_off_c, 1, 58, 0
1, 2280, Note_on_c, 1, 74, 127
1, 2280, Note_on_c, 1, 64, 127
1, 2320, Note_off_c, 1, 74, 0
1, 2327, Note_off_c, 1, 64, 0
1, 2400, Note_on_c, 1, 74, 127
1, 2400, Note_on_c, 1, 65, 127
1, 2400, Note_on_c, 1, 57, 127
1, 2456, Note_off_c, 1, 57, 0
1, 2485, Note_off_c, 1, 65, 0
1, 2520, Note_on_c, 1, 72, 127
1, 2528, Note_off_c, 1, 74, 0
1, 2556, Note_off_c, 1, 72, 0
1, 2580, Note_on_c, 1, 70, 127
1, 2627, Note_off_c, 1, 70, 0
1, 2640, Note_on_c, 1, 72, 127
1, 2640, Note_on_c, 1, 64, 127
1, 2640, Note_on_c, 1, 57, 127
1, 2704, Note_off_c, 1, 64, 0
1, 2747, Note_off_c, 1, 72, 0
1, 2760, Note_on_c, 1, 69, 127
1, 2853, Note_off_c, 1, 69, 0
1, 2880, Note_on_c, 1, 70, 127
1, 2880, Note_on_c, 1, 62, 127
1, 2975, Note_off_c, 1, 57, 0
1, 3000, Note_on_c, 1, 50, 127
1, 3099, Note_off_c, 1, 50, 0
1, 3120, Note_on_c, 1, 55, 127
1, 3172, Note_off_c, 1, 62, 0
1, 3180, Note_on_c, 1, 65, 127
1, 3214, Note_off_c, 1, 65, 0
1, 3330, Note_on_c, 1, 67, 127
1, 3365, Note_on_c, 1, 61, 127
1, 3370, Note_off_c, 1, 70, 0
1, 3370, Note_off_c, 1, 67, 0
1, 3408, Note_off_c, 1, 55, 0
1, 3459, Note_off_c, 1, 61, 0
1, 3480, Note_on_c, 1, 81, 127
1, 3536, Note_off_c, 1, 81, 0
1, 3600, Note_on_c, 1, 81, 127
1, 3600, Note_on_c, 1, 69, 127
1, 3600, Note_on_c, 1, 62, 127
1, 3600, Note_on_c, 1, 53, 127
1, 3646, Note_off_c, 1, 53, 0
1, 3647, Note_off_c, 1, 81, 0
1, 3649, Note_off_c, 1, 62, 0
1, 3658, Note_off_c, 1, 69, 0
1, 3720, Note_on_c, 1, 81, 127
1, 3764, Note_off_c, 1, 81, 0
1, 3840, Note_on_c, 1, 81, 127
1, 3840, Note_on_c, 1, 70, 127
1, 3840, Note_on_c, 1, 62, 127
1, 3840, Note_on_c, 1, 52, 127
1, 3892, Note_off_c, 1, 62, 0
1, 3901, Note_off_c, 1, 52, 0
1, 3912, Note_off_c, 1, 70, 0
1, 3960, Note_on_c, 1, 79, 127
1, 3972, Note_off_c, 1, 81, 0
1, 4010, Note_off_c, 1, 79, 0
1, 4020, Note_on_c, 1, 77, 127
1, 4058, Note_off_c, 1, 77, 0
1, 4080, Note_on_c, 1, 79, 127
1, 4080, Note_on_c, 1, 69, 127
1, 4080, Note_on_c, 1, 61, 127
1, 4080, Note_on_c, 1, 57, 127
1, 4139, Note_off_c, 1, 69, 0
1, 4140, Note_off_c, 1, 57, 0
1, 4144, Note_off_c, 1, 61, 0
1, 4153, Note_off_c, 1, 79, 0
1, 4200, Note_on_c, 1, 76, 127
1, 4278, Note_off_c, 1, 76, 0
1, 4320, Note_on_c, 1, 77, 127
1, 4320, Note_on_c, 1, 76, 127
1, 4320, Note_on_c, 1, 62, 127
1, 4320, Note_on_c, 1, 50, 127
1, 4382, Note_off_c, 1, 50, 0
1, 4387, Note_off_c, 1, 62, 0
1, 4440, Note_off_c, 1, 77, 0
1, 4440, Note_on_c, 1, 74, 127
1, 4440, Note_on_c, 1, 45, 127
1, 4454, Note_off_c, 1, 76, 0
1, 4483, Note_off_c, 1, 45, 0
1, 4493, Note_off_c, 1, 74, 0
1, 4500, Note_on_c, 1, 73, 127
1, 4528, Note_off_c, 1, 73, 0
1, 4560, Note_on_c, 1, 77, 127
1, 4560, Note_on_c, 1, 74, 127
1, 4560, Note_on_c, 1, 62, 127
1, 4560, Note_on_c, 1, 53, 127
1, 4560, Note_on_c, 1, 45, 127
1, 4610, Note_off_c, 1, 45, 0
1, 4625, Note_off_c, 1, 53, 0
1, 4626, Note_off_c, 1, 62, 0
1, 4643, Note_off_c, 1, 77, 0
1, 4677, Note_off_c, 1, 74, 0
1, 4680, Note_on_c, 1, 45, 127
1, 4716, Note_off_c, 1, 45, 0
1, 4800, Note_on_c, 1, 76, 127
1, 4800, Note_on_c, 1, 74, 127
1, 4800, Note_on_c, 1, 64, 127
1, 4800, Note_on_c, 1, 57, 127
1, 4800, Note_on_c, 1, 45, 127
1, 4873, Note_off_c, 1, 57, 0
1, 4883, Note_off_c, 1, 64, 0
1, 4893, Note_off_c, 1, 74, 0
1, 4896, Note_off_c, 1, 76, 0
1, 4920, Note_on_c, 1, 43, 127
1, 4934, Note_off_c, 1, 45, 0
1, 4974, Note_off_c, 1, 43, 0
1, 4980, Note_on_c, 1, 41, 127
1, 5040, Note_on_c, 1, 76, 127
1, 5040, Note_on_c, 1, 73, 127
1, 5040, Note_on_c, 1, 64, 127
1, 5040, Note_on_c, 1, 57, 127
1, 5040, Note_on_c, 1, 43, 127
1, 5046, Note_off_c, 1, 41, 0
1, 5094, Note_off_c, 1, 57, 0
1, 5113, Note_off_c, 1, 76, 0
1, 5125, Note_off_c, 1, 73, 0
1, 5131, Note_off_c, 1, 64, 0
1, 5149, Note_off_c, 1, 43, 0
1, 5160, Note_on_c, 1, 40, 127
1, 5278, Note_off_c, 1, 40, 0
1, 5280, Note_on_c, 1, 76, 127
1, 5280, Note_on_c, 1, 69, 127
1, 5280, Note_on_c, 1, 57, 127
1, 5280, Note_on_c, 1, 41, 127
1, 5337, Note_off_c, 1, 57, 0
1, 5351, Note_off_c, 1, 69, 0
1, 5360, Note_off_c, 1, 41, 0
1, 5400, Note_on_c, 1, 77, 127
1, 5400, Note_on_c, 1, 74, 127
1, 5410, Note_off_c, 1, 76, 0
1, 5448, Note_off_c, 1, 74, 0
1, 5455, Note_off_c, 1, 77, 0
1, 5460, Note_on_c, 1, 73, 127
1, 5505, Note_off_c, 1, 73, 0
1, 5520, Note_on_c, 1, 77, 127
1, 5520, Note_on_c, 1, 74, 127
1, 5520, Note_on_c, 1, 69, 127
1, 5520, Note_on_c, 1, 62, 127
1, 5520, Note_on_c, 1, 38, 127
1, 5563, Note_off_c, 1, 77, 0
1, 5577, Note_off_c, 1, 62, 0
1, 5582, Note_off_c, 1, 38, 0
1, 5588, Note_off_c, 1, 69, 0
1, 5592, Note_off_c, 1, 74, 0
1, 5640, Note_on_c, 1, 77, 127
1, 5640, Note_on_c, 1, 69, 127
1, 5677, Note_off_c, 1, 77, 0
1, 5700, Note_off_c, 1, 69, 0
1, 5760, Note_on_c, 1, 77, 127
1, 5760, Note_on_c, 1, 70, 127
1, 5760, Note_on_c, 1, 67, 127
1, 5760, Note_on_c, 1, 62, 127
1, 5760, Note_on_c, 1, 43, 127
1, 5819, Note_off_c, 1, 62, 0
1, 5828, Note_off_c, 1, 67, 0
1, 5839, Note_off_c, 1, 43, 0
1, 5851, Note_off_c, 1, 70, 0
1, 5880, Note_on_c, 1, 76, 127
1, 5890, Note_off_c, 1, 77, 0
1, 5925, Note_off_c, 1, 76, 0
1, 5940, Note_on_c, 1, 74, 127
1, 5980, Note_off_c, 1, 74, 0
1, 6000, Note_on_c, 1, 76, 127
1, 6000, Note_on_c, 1, 67, 127
1, 6000, Note_on_c, 1, 64, 127
1, 6000, Note_on_c, 1, 58, 127
1, 6000, Note_on_c, 1, 31, 127
1, 6058, Note_off_c, 1, 64, 0
1, 6060, Note_on_c, 1, 79, 127
1, 6064, Note_off_c, 1, 76, 0
1, 6072, Note_off_c, 1, 31, 0
1, 6078, Note_off_c, 1, 58, 0
1, 6081, Note_off_c, 1, 67, 0
1, 6120, Note_on_c, 1, 73, 127
1, 6129, Note_off_c, 1, 79, 0
1, 6152, Note_off_c, 1, 73, 0
1, 6180, Note_on_c, 1, 74, 127
1, 6228, Note_off_c, 1, 74, 0
1, 6240, Note_on_c, 1, 73, 127
1, 6240, Note_on_c, 1, 67, 127
1, 6240, Note_on_c, 1, 64, 127
1, 6240, Note_on_c, 1, 57, 127
1, 6240, Note_on_c, 1, 33, 127
1, 6278, Note_off_c, 1, 67, 0
1, 6300, Note_off_c, 1, 57, 0
1, 6300, Note_on_c, 1, 70, 127
1, 6307, Note_off_c, 1, 64, 0
1, 6307, Note_off_c, 1, 33, 0
1, 6308, Note_off_c, 1, 73, 0
1, 6355, Note_off_c, 1, 70, 0
1, 6360, Note_on_c, 1, 69, 127
1, 6411, Note_off_c, 1, 69, 0
1, 6420, Note_on_c, 1, 67, 127
1, 6470, Note_off_c, 1, 67, 0
1, 6480, Note_on_c, 1, 65, 127
1, 6540, Note_on_c, 1, 74, 127
1, 6588, Note_off_c, 1, 65, 0
1, 6600, Note_off_c, 1, 74, 0
1, 6600, Note_on_c, 1, 64, 127
1, 6645, Note_off_c, 1, 64, 0
1, 6660, Note_on_c, 1, 62, 127
1, 6707, Note_off_c, 1, 62, 0
1, 6720, Note_on_c, 1, 57, 127
1, 6720, Note_on_c, 1, 33, 127
1, 6780, Note_on_c, 1, 64, 127
1, 6792, Note_off_c, 1, 33, 0
1, 6822, Note_off_c, 1, 57, 0
1, 6839, Note_off_c, 1, 64, 0
1, 6840, Note_on_c, 1, 68, 127
1, 6870, Note_off_c, 1, 68, 0
1, 6900, Note_on_c, 1, 71, 127
1, 6952, Note_off_c, 1, 71, 0
1, 6960, Note_on_c, 1, 72, 127
1, 7020, Note_on_c, 1, 76, 127
1, 7029, Note_off_c, 1, 72, 0
1, 7080, Note_on_c, 1, 69, 127
1, 7083, Note_off_c, 1, 76, 0
1, 7128, Note_off_c, 1, 69, 0
1, 7140, Note_on_c, 1, 67, 127
1, 7181, Note_off_c, 1, 67, 0
1, 7200, Note_on_c, 1, 66, 127
1, 7200, Note_on_c, 1, 57, 127
1, 7200, Note_on_c, 1, 38, 127
1, 7260, Note_on_c, 1, 69, 127
1, 7276, Note_off_c, 1, 38, 0
1, 7281, Note_off_c, 1, 57, 0
1, 7307, Note_off_c, 1, 69, 0
1, 7316, Note_off_c, 1, 66, 0
1, 7320, Note_on_c, 1, 72, 127
1, 7365, Note_off_c, 1, 72, 0
1, 7380, Note_on_c, 1, 75, 127
1, 7419, Note_off_c, 1, 75, 0
1, 7440, Note_on_c, 1, 66, 127
1, 7440, Note_on_c, 1, 74, 127
1, 7440, Note_on_c, 1, 57, 127
1, 7440, Note_on_c, 1, 26, 127
1, 7500, Note_on_c, 1, 72, 127
1, 7502, Note_off_c, 1, 74, 0
1, 7516, Note_off_c, 1, 26, 0
1, 7517, Note_off_c, 1, 57, 0
1, 7552, Note_off_c, 1, 66, 0
1, 7560, Note_on_c, 1, 70, 127
1, 7563, Note_off_c, 1, 72, 0
1, 7604, Note_off_c, 1, 70, 0
1, 7620, Note_on_c, 1, 69, 127
1, 7671, Note_off_c, 1, 69, 0
1, 7680, Note_on_c, 1, 67, 127
1, 7680, Note_on_c, 1, 70, 127
1, 7680, Note_on_c, 1, 55, 127
1, 7680, Note_on_c, 1, 31, 127
1, 7740, Note_on_c, 1, 62, 127
1, 7747, Note_off_c, 1, 31, 0
1, 7763, Note_off_c, 1, 70, 0
1, 7768, Note_off_c, 1, 55, 0
1, 7784, Note_off_c, 1, 67, 0
1, 7792, Note_off_c, 1, 62, 0
1, 7800, Note_on_c, 1, 67, 127
1, 7840, Note_off_c, 1, 67, 0
1, 7860, Note_on_c, 1, 69, 127
1, 7902, Note_off_c, 1, 69, 0
1, 7920, Note_on_c, 1, 70, 127
1, 7980, Note_on_c, 1, 74, 127
1, 7985, Note_off_c, 1, 70, 0
1, 8030, Note_off_c, 1, 74, 0
1, 8040, Note_on_c, 1, 67, 127
1, 8088, Note_off_c, 1, 67, 0
1, 8100, Note_on_c, 1, 65, 127
1, 8141, Note_off_c, 1, 65, 0
1, 8160, Note_on_c, 1, 64, 127
1, 8160, Note_on_c, 1, 55, 127
1, 8160, Note_on_c, 1, 36, 127
1, 8220, Note_on_c, 1, 67, 127
1, 8234, Note_off_c, 1, 64, 0
1, 8243, Note_off_c, 1, 36, 0
1, 8247, Note_off_c, 1, 55, 0
1, 8280, Note_on_c, 1, 70, 127
1, 8290, Note_off_c, 1, 67, 0
1, 8338, Note_off_c, 1, 70, 0
1, 8340, Note_on_c, 1, 74, 127
1, 8381, Note_off_c, 1, 74, 0
1, 8400, Note_on_c, 1, 72, 127
1, 8400, Note_on_c, 1, 64, 127
1, 8400, Note_on_c, 1, 55, 127
1, 8400, Note_on_c, 1, 24, 127
1, 8460, Note_on_c, 1, 70, 127
1, 8465, Note_off_c, 1, 55, 0
1, 8469, Note_off_c, 1, 72, 0
1, 8472, Note_off_c, 1, 24, 0
1, 8474, Note_off_c, 1, 64, 0
1, 8520, Note_on_c, 1, 69, 127
1, 8534, Note_off_c, 1, 70, 0
1, 8569, Note_off_c, 1, 69, 0
1, 8580, Note_on_c, 1, 67, 127
1, 8638, Note_off_c, 1, 67, 0
1, 8640, Note_on_c, 1, 69, 127
1, 8640, Note_on_c, 1, 60, 127
1, 8640, Note_on_c, 1, 53, 127
1, 8640, Note_on_c, 1, 29, 127
1, 8700, Note_on_c, 1, 64, 127
1, 8712, Note_off_c, 1, 69, 0
1, 8713, Note_off_c, 1, 29, 0
1, 8722, Note_off_c, 1, 53, 0
1, 8730, Note_off_c, 1, 60, 0
1, 8760, Note_on_c, 1, 65, 127
1, 8762, Note_off_c, 1, 64, 0
1, 8798, Note_off_c, 1, 65, 0
1, 8820, Note_on_c, 1, 61, 127
1, 8876, Note_off_c, 1, 61, 0
1, 8880, Note_on_c, 1, 62, 127
1, 8937, Note_off_c, 1, 62, 0
1, 8940, Note_on_c, 1, 65, 127
1, 8998, Note_off_c, 1, 65, 0
1, 9000, Note_on_c, 1, 69, 127
1, 9000, Note_on_c, 1, 57, 127
1, 9000, Note_on_c, 1, 50, 127
1, 9000, Note_on_c, 1, 29, 127
1, 9047, Note_off_c, 1, 50, 0
1, 9054, Note_off_c, 1, 29, 0
1, 9060, Note_on_c, 1, 60, 127
1, 9099, Note_off_c, 1, 57, 0
1, 9119, Note_off_c, 1, 60, 0
1, 9120, Note_on_c, 1, 58, 127
1, 9120, Note_on_c, 1, 55, 127
1, 9120, Note_on_c, 1, 31, 127
1, 9129, Note_off_c, 1, 69, 0
1, 9180, Note_on_c, 1, 62, 127
1, 9207, Note_off_c, 1, 31, 0
1, 9218, Note_off_c, 1, 55, 0
1, 9239, Note_off_c, 1, 58, 0
1, 9240, Note_on_c, 1, 65, 127
1, 9244, Note_off_c, 1, 62, 0
1, 9281, Note_off_c, 1, 65, 0
1, 9300, Note_on_c, 1, 69, 127
1, 9338, Note_off_c, 1, 69, 0
1, 9360, Note_on_c, 1, 67, 127
1, 9420, Note_on_c, 1, 64, 127
1, 9421, Note_off_c, 1, 67, 0
1, 9480, Note_on_c, 1, 58, 127
1, 9480, Note_on_c, 1, 65, 127
1, 9480, Note_on_c, 1, 55, 127
1, 9480, Note_on_c, 1, 31, 127
1, 9482, Note_off_c, 1, 64, 0
1, 9530, Note_off_c, 1, 55, 0
1, 9532, Note_off_c, 1, 65, 0
1, 9537, Note_off_c, 1, 31, 0
1, 9540, Note_on_c, 1, 62, 127
1, 9595, Note_off_c, 1, 58, 0
1, 9600, Note_on_c, 1, 57, 127
1, 9600, Note_on_c, 1, 61, 127
1, 9600, Note_on_c, 1, 52, 127
1, 9600, Note_on_c, 1, 33, 127
1, 9602, Note_off_c, 1, 62, 0
1, 9661, Note_off_c, 1, 61, 0
1, 9683, Note_off_c, 1, 52, 0
1, 9688, Note_off_c, 1, 33, 0
1, 9704, Note_off_c, 1, 57, 0
1, 9780, Note_on_c, 1, 70, 127
1, 9833, Note_off_c, 1, 70, 0
1, 9840, Note_on_c, 1, 69, 127
1, 9890, Note_off_c, 1, 69, 0
1, 9900, Note_on_c, 1, 67, 127
1, 9945, Note_off_c, 1, 67, 0
1, 9960, Note_on_c, 1, 57, 127
1, 9960, Note_on_c, 1, 65, 127
1, 9960, Note_on_c, 1, 52, 127
1, 9960, Note_on_c, 1, 37, 127
1, 10006, Note_off_c, 1, 52, 0
1, 10018, Note_off_c, 1, 65, 0
1, 10019, Note_off_c, 1, 57, 0
1, 10020, Note_on_c, 1, 64, 127
1, 10028, Note_off_c, 1, 37, 0
1, 10070, Note_off_c, 1, 64, 0
1, 10080, Note_on_c, 1, 57, 127
1, 10080, Note_on_c, 1, 65, 127
1, 10080, Note_on_c, 1, 50, 127
1, 10080, Note_on_c, 1, 38, 127
1, 10134, Note_off_c, 1, 65, 0
1, 10140, Note_on_c, 1, 62, 127
1, 10169, Note_off_c, 1, 38, 0
1, 10187, Note_off_c, 1, 57, 0
1, 10190, Note_off_c, 1, 62, 0
1, 10200, Note_on_c, 1, 69, 127
1, 10200, Note_on_c, 1, 52, 127
1, 10200, Note_on_c, 1, 36, 127
1, 10201, Note_off_c, 1, 50, 0
1, 10254, Note_off_c, 1, 36, 0
1, 10260, Note_on_c, 1, 64, 127
1, 10289, Note_off_c, 1, 64, 0
1, 10299, Note_off_c, 1, 52, 0
1, 10320, Note_on_c, 1, 34, 127
1, 10330, Note_off_c, 1, 69, 0
1, 10440, Note_on_c, 1, 74, 127
1, 10440, Note_on_c, 1, 58, 127
1, 10500, Note_on_c, 1, 67, 127
1, 10509, Note_off_c, 1, 58, 0
1, 10530, Note_off_c, 1, 67, 0
1, 10560, Note_on_c, 1, 73, 127
1, 10560, Note_on_c, 1, 33, 127
1, 10570, Note_off_c, 1, 34, 0
1, 10576, Note_off_c, 1, 74, 0
1, 10606, Note_off_c, 1, 73, 0
1, 10620, Note_on_c, 1, 71, 127
1, 10668, Note_off_c, 1, 71, 0
1, 10740, Note_on_c, 1, 76, 127
1, 10765, Note_off_c, 1, 33, 0
1, 10778, Note_off_c, 1, 76, 0
1, 10800, Note_on_c, 1, 77, 127
1, 10851, Note_off_c, 1, 77, 0
1, 10920, Note_on_c, 1, 74, 127
1, 10920, Note_on_c, 1, 77, 127
1, 10920, Note_on_c, 1, 69, 127
1, 10920, Note_on_c, 1, 62, 127
1, 10920, Note_on_c, 1, 38, 127
1, 10968, Note_off_c, 1, 62, 0
1, 10970, Note_off_c, 1, 77, 0
1, 10975, Note_off_c, 1, 38, 0
1, 10980, Note_off_c, 1, 74, 0
1, 10982, Note_off_c, 1, 69, 0
1, 11040, Note_on_c, 1, 74, 127
1, 11040, Note_on_c, 1, 77, 127
1, 11040, Note_on_c, 1, 67, 127
1, 11040, Note_on_c, 1, 55, 127
1, 11040, Note_on_c, 1, 34, 127
1, 11160, Note_on_c, 1, 76, 127
1, 11163, Note_off_c, 1, 67, 0
1, 11171, Note_off_c, 1, 77, 0
1, 11202, Note_off_c, 1, 34, 0
1, 11204, Note_off_c, 1, 76, 0
1, 11207, Note_off_c, 1, 74, 0
1, 11217, Note_off_c, 1, 55, 0
1, 11220, Note_on_c, 1, 74, 127
1, 11253, Note_off_c, 1, 74, 0
1, 11280, Note_on_c, 1, 76, 127
1, 11331, Note_off_c, 1, 76, 0
1, 11400, Note_on_c, 1, 72, 127
1, 11400, Note_on_c, 1, 76, 127
1, 11400, Note_on_c, 1, 67, 127
1, 11400, Note_on_c, 1, 60, 127
1, 11400, Note_on_c, 1, 36, 127
1, 11449, Note_off_c, 1, 60, 0
1, 11450, Note_off_c, 1, 67, 0
1, 11452, Note_off_c, 1, 36, 0
1, 11458, Note_off_c, 1, 76, 0
1, 11462, Note_off_c, 1, 72, 0
1, 11520, Note_on_c, 1, 72, 127
1, 11520, Note_on_c, 1, 75, 127
1, 11520, Note_on_c, 1, 65, 127
1, 11520, Note_on_c, 1, 53, 127
1, 11520, Note_on_c, 1, 33, 127
1, 11578, Note_off_c, 1, 75, 0
1, 11580, Note_on_c, 1, 74, 127
1, 11623, Note_off_c, 1, 74, 0
1, 11700, Note_on_c, 1, 73, 127
1, 11739, Note_off_c, 1, 73, 0
1, 11746, Note_off_c, 1, 72, 0
1, 11750, Note_off_c, 1, 53, 0
1, 11760, Note_on_c, 1, 58, 127
1, 11760, Note_on_c, 1, 34, 127
1, 11768, Note_off_c, 1, 33, 0
1, 11789, Note_off_c, 1, 65, 0
1, 11829, Note_off_c, 1, 58, 0
1, 11830, Note_off_c, 1, 34, 0
1, 11880, Note_on_c, 1, 60, 127
1, 11926, Note_off_c, 1, 60, 0
1, 11940, Note_on_c, 1, 66, 127
1, 11966, Note_off_c, 1, 66, 0
1, 12000, Note_on_c, 1, 70, 127
1, 12000, Note_on_c, 1, 67, 127
1, 12000, Note_on_c, 1, 62, 127
1, 12000, Note_on_c, 1, 31, 127
1, 12060, Note_off_c, 1, 70, 0
1, 12060, Note_on_c, 1, 69, 127
1, 12060, Note_on_c, 1, 60, 127
1, 12063, Note_off_c, 1, 62, 0
1, 12087, Note_off_c, 1, 69, 0
1, 12091, Note_off_c, 1, 60, 0
1, 12110, Note_off_c, 1, 67, 0
1, 12180, Note_on_c, 1, 58, 127
1, 12217, Note_off_c, 1, 58, 0
1, 12300, Note_on_c, 1, 65, 127
1, 12300, Note_on_c, 1, 57, 127
1, 12325, Note_off_c, 1, 65, 0
1, 12329, Note_off_c, 1, 57, 0
1, 12420, Note_on_c, 1, 63, 127
1, 12420, Note_on_c, 1, 55, 127
1, 12443, Note_off_c, 1, 63, 0
1, 12456, Note_off_c, 1, 55, 0
1, 12540, Note_on_c, 1, 61, 127
1, 12540, Note_on_c, 1, 52, 127
1, 12565, Note_off_c, 1, 61, 0
1, 12577, Note_off_c, 1, 52, 0
1, 12660, Note_on_c, 1, 53, 127
1, 12691, Note_off_c, 1, 53, 0
1, 12720, Note_on_c, 1, 29, 127
1, 12736, Note_off_c, 1, 31, 0
1, 12808, Note_off_c, 1, 29, 0
1, 12900, Note_on_c, 1, 53, 127
1, 12900, Note_on_c, 1, 50, 127
1, 12960, Note_on_c, 1, 52, 127
1, 12960, Note_on_c, 1, 57, 127
1, 12960, Note_on_c, 1, 33, 127
1, 12961, Note_off_c, 1, 50, 0
1, 12964, Note_off_c, 1, 53, 0
1, 13020, Note_on_c, 1, 62, 127
1, 13039, Note_off_c, 1, 57, 0
1, 13070, Note_off_c, 1, 52, 0
1, 13080, Note_on_c, 1, 67, 127
1, 13080, Note_on_c, 1, 58, 127
1, 13084, Note_off_c, 1, 62, 0
1, 13130, Note_off_c, 1, 67, 0
1, 13135, Note_off_c, 1, 58, 0
1, 13140, Note_on_c, 1, 70, 127
1, 13200, Note_on_c, 1, 55, 127
1, 13201, Note_off_c, 1, 70, 0
1, 13320, Note_on_c, 1, 64, 127
1, 13380, Note_on_c, 1, 61, 127
1, 13384, Note_off_c, 1, 64, 0
1, 13440, Note_on_c, 1, 26, 127
1, 13442, Note_off_c, 1, 61, 0
1, 13446, Note_off_c, 1, 33, 0
1, 13459, Note_off_c, 1, 55, 0
1, 13528, Note_off_c, 1, 26, 0
1, 13560, Note_on_c, 1, 81, 127
1, 13613, Note_off_c, 1, 81, 0
1, 13680, Note_on_c, 1, 81, 127
1, 13680, Note_on_c, 1, 38, 127
1, 13730, Note_off_c, 1, 81, 0
1, 13772, Note_off_c, 1, 38, 0
1, 13800, Note_on_c, 1, 81, 127
1, 13839, Note_off_c, 1, 81, 0
1, 13920, Note_on_c, 1, 81, 127
1, 13920, Note_on_c, 1, 37, 127
1, 14003, Note_off_c, 1, 37, 0
1, 14040, Note_on_c, 1, 79, 127
1, 14053, Note_off_c, 1, 81, 0
1, 14092, Note_off_c, 1, 79, 0
1, 14100, Note_on_c, 1, 77, 127
1, 14143, Note_off_c, 1, 77, 0
1, 14160, Note_on_c, 1, 79, 127
1, 14160, Note_on_c, 1, 33, 127
1, 14228, Note_off_c, 1, 33, 0
1, 14232, Note_off_c, 1, 79, 0
1, 14280, Note_on_c, 1, 76, 127
1, 14332, Note_off_c, 1, 76, 0
1, 14400, Note_on_c, 1, 77, 127
1, 14400, Note_on_c, 1, 38, 127
1, 14472, Note_off_c, 1, 38, 0
1, 14488, Note_off_c, 1, 77, 0
1, 14520, Note_on_c, 1, 74, 127
1, 14571, Note_off_c, 1, 74, 0
1, 14640, Note_on_c, 1, 82, 127
1, 14640, Note_on_c, 1, 74, 127
1, 14640, Note_on_c, 1, 43, 127
1, 14697, Note_off_c, 1, 74, 0
1, 14713, Note_off_c, 1, 43, 0
1, 14729, Note_off_c, 1, 82, 0
1, 14760, Note_on_c, 1, 74, 127
1, 14805, Note_off_c, 1, 74, 0
1, 14880, Note_on_c, 1, 76, 127
1, 14880, Note_on_c, 1, 74, 127
1, 14880, Note_on_c, 1, 45, 127
1, 14952, Note_off_c, 1, 45, 0
1, 14985, Note_off_c, 1, 76, 0
1, 15000, Note_on_c, 1, 72, 127
1, 15025, Note_off_c, 1, 74, 0
1, 15048, Note_off_c, 1, 72, 0
1, 15060, Note_on_c, 1, 70, 127
1, 15083, Note_off_c, 1, 70, 0
1, 15120, Note_on_c, 1, 81, 127
1, 15120, Note_on_c, 1, 72, 127
1, 15120, Note_on_c, 1, 42, 127
1, 15183, Note_off_c, 1, 42, 0
1, 15214, Note_off_c, 1, 72, 0
1, 15240, Note_on_c, 1, 69, 127
1, 15348, Note_off_c, 1, 69, 0
1, 15360, Note_on_c, 1, 70, 127
1, 15360, Note_on_c, 1, 43, 127
1, 15426, Note_off_c, 1, 70, 0
1, 15433, Note_off_c, 1, 43, 0
1, 15480, Note_on_c, 1, 79, 127
1, 15497, Note_off_c, 1, 81, 0
1, 15549, Note_off_c, 1, 79, 0
1, 15600, Note_on_c, 1, 79, 127
1, 15600, Note_on_c, 1, 70, 127
1, 15600, Note_on_c, 1, 40, 127
1, 15660, Note_off_c, 1, 40, 0
1, 15687, Note_off_c, 1, 79, 0
1, 15715, Note_off_c, 1, 70, 0
1, 15720, Note_on_c, 1, 79, 127
1, 15720, Note_on_c, 1, 67, 127
1, 15789, Note_off_c, 1, 79, 0
1, 15831, Note_off_c, 1, 67, 0
1, 15840, Note_on_c, 1, 79, 127
1, 15840, Note_on_c, 1, 69, 127
1, 15840, Note_on_c, 1, 37, 127
1, 15907, Note_off_c, 1, 37, 0
1, 15939, Note_off_c, 1, 69, 0
1, 15960, Note_on_c, 1, 77, 127
1, 15960, Note_on_c, 1, 57, 127
1, 15975, Note_off_c, 1, 79, 0
1, 16011, Note_off_c, 1, 57, 0
1, 16016, Note_off_c, 1, 77, 0
1, 16020, Note_on_c, 1, 76, 127
1, 16048, Note_off_c, 1, 76, 0
1, 16080, Note_on_c, 1, 77, 127
1, 16080, Note_on_c, 1, 74, 127
1, 16080, Note_on_c, 1, 57, 127
1, 16080, Note_on_c, 1, 38, 127
1, 16137, Note_off_c, 1, 57, 0
1, 16139, Note_off_c, 1, 38, 0
1, 16163, Note_off_c, 1, 74, 0
1, 16190, Note_off_c, 1, 77, 0
1, 16200, Note_on_c, 1, 74, 127
1, 16200, Note_on_c, 1, 57, 127
1, 16243, Note_off_c, 1, 57, 0
1, 16285, Note_off_c, 1, 74, 0
1, 16320, Note_on_c, 1, 76, 127
1, 16320, Note_on_c, 1, 74, 127
1, 16320, Note_on_c, 1, 57, 127
1, 16320, Note_on_c, 1, 33, 127
1, 16391, Note_off_c, 1, 33, 0
1, 16427, Note_off_c, 1, 74, 0
1, 16440, Note_on_c, 1, 72, 127
1, 16440, Note_on_c, 1, 55, 127
1, 16441, Note_off_c, 1, 57, 0
1, 16448, Note_off_c, 1, 76, 0
1, 16476, Note_off_c, 1, 55, 0
1, 16483, Note_off_c, 1, 72, 0
1, 16500, Note_on_c, 1, 54, 127
1, 16534, Note_off_c, 1, 54, 0
1, 16560, Note_on_c, 1, 81, 127
1, 16560, Note_on_c, 1, 72, 127
1, 16560, Note_on_c, 1, 55, 127
1, 16560, Note_on_c, 1, 36, 127
1, 16613, Note_off_c, 1, 72, 0
1, 16624, Note_off_c, 1, 36, 0
1, 16675, Note_off_c, 1, 55, 0
1, 16679, Note_off_c, 1, 81, 0
1, 16680, Note_on_c, 1, 72, 127
1, 16680, Note_on_c, 1, 52, 127
1, 16726, Note_off_c, 1, 72, 0
1, 16799, Note_off_c, 1, 52, 0
1, 16800, Note_on_c, 1, 74, 127
1, 16800, Note_on_c, 1, 72, 127
1, 16800, Note_on_c, 1, 54, 127
1, 16800, Note_on_c, 1, 38, 127
1, 16868, Note_off_c, 1, 38, 0
1, 16869, Note_off_c, 1, 54, 0
1, 16915, Note_off_c, 1, 72, 0
1, 16920, Note_on_c, 1, 70, 127
1, 16920, Note_on_c, 1, 55, 127
1, 16922, Note_off_c, 1, 74, 0
1, 16951, Note_off_c, 1, 55, 0
1, 16977, Note_off_c, 1, 70, 0
1, 16980, Note_on_c, 1, 69, 127
1, 16980, Note_on_c, 1, 54, 127
1, 17013, Note_off_c, 1, 54, 0
1, 17024, Note_off_c, 1, 69, 0
1, 17040, Note_on_c, 1, 79, 127
1, 17040, Note_on_c, 1, 70, 127
1, 17040, Note_on_c, 1, 55, 127
1, 17149, Note_off_c, 1, 70, 0
1, 17160, Note_on_c, 1, 67, 127
1, 17160, Note_on_c, 1, 58, 127
1, 17171, Note_off_c, 1, 55, 0
1, 17280, Note_on_c, 1, 69, 127
1, 17280, Note_on_c, 1, 52, 127
1, 17280, Note_on_c, 1, 37, 127
1, 17281, Note_off_c, 1, 67, 0
1, 17285, Note_off_c, 1, 58, 0
1, 17331, Note_off_c, 1, 69, 0
1, 17376, Note_off_c, 1, 37, 0
1, 17400, Note_on_c, 1, 77, 127
1, 17400, Note_on_c, 1, 49, 127
1, 17400, Note_on_c, 1, 33, 127
1, 17401, Note_off_c, 1, 52, 0
1, 17409, Note_off_c, 1, 79, 0
1, 17439, Note_off_c, 1, 77, 0
1, 17493, Note_off_c, 1, 33, 0
1, 17505, Note_off_c, 1, 49, 0
1, 17520, Note_on_c, 1, 77, 127
1, 17520, Note_on_c, 1, 69, 127
1, 17520, Note_on_c, 1, 50, 127
1, 17520, Note_on_c, 1, 38, 127
1, 17615, Note_off_c, 1, 38, 0
1, 17626, Note_off_c, 1, 77, 0
1, 17636, Note_off_c, 1, 50, 0
1, 17640, Note_on_c, 1, 70, 127
1, 17640, Note_on_c, 1, 36, 127
1, 17645, Note_off_c, 1, 69, 0
1, 17695, Note_off_c, 1, 70, 0
1, 17748, Note_off_c, 1, 36, 0
1, 17760, Note_on_c, 1, 77, 127
1, 17760, Note_on_c, 1, 67, 127
1, 17760, Note_on_c, 1, 35, 127
1, 17834, Note_off_c, 1, 67, 0
1, 17866, Note_off_c, 1, 35, 0
1, 17880, Note_on_c, 1, 76, 127
1, 17880, Note_on_c, 1, 36, 127
1, 17882, Note_off_c, 1, 77, 0
1, 17918, Note_off_c, 1, 36, 0
1, 17919, Note_off_c, 1, 76, 0
1, 17940, Note_on_c, 1, 74, 127
1, 17940, Note_on_c, 1, 35, 127
1, 17976, Note_off_c, 1, 74, 0
1, 17987, Note_off_c, 1, 35, 0
1, 18000, Note_on_c, 1, 76, 127
1, 18000, Note_on_c, 1, 72, 127
1, 18000, Note_on_c, 1, 36, 127
1, 18088, Note_off_c, 1, 36, 0
1, 18095, Note_off_c, 1, 72, 0
1, 18120, Note_on_c, 1, 77, 127
1, 18120, Note_on_c, 1, 69, 127
1, 18125, Note_off_c, 1, 76, 0
1, 18178, Note_off_c, 1, 77, 0
1, 18219, Note_off_c, 1, 69, 0
1, 18240, Note_on_c, 1, 74, 127
1, 18240, Note_on_c, 1, 72, 127
1, 18240, Note_on_c, 1, 66, 127
1, 18349, Note_off_c, 1, 66, 0
1, 18354, Note_off_c, 1, 72, 0
1, 18360, Note_on_c, 1, 70, 127
1, 18360, Note_on_c, 1, 62, 127
1, 18360, Note_on_c, 1, 43, 127
1, 18375, Note_off_c, 1, 74, 0
1, 18403, Note_off_c, 1, 43, 0
1, 18406, Note_off_c, 1, 70, 0
1, 18420, Note_on_c, 1, 69, 127
1, 18420, Note_on_c, 1, 42, 127
1, 18450, Note_off_c, 1, 62, 0
1, 18453, Note_off_c, 1, 69, 0
1, 18453, Note_off_c, 1, 42, 0
1, 18480, Note_on_c, 1, 79, 127
1, 18480, Note_on_c, 1, 70, 127
1, 18480, Note_on_c, 1, 43, 127
1, 18584, Note_off_c, 1, 43, 0
1, 18597, Note_off_c, 1, 70, 0
1, 18600, Note_on_c, 1, 72, 127
1, 18600, Note_on_c, 1, 64, 127
1, 18656, Note_off_c, 1, 72, 0
1, 18700, Note_off_c, 1, 64, 0
1, 18720, Note_on_c, 1, 69, 127
1, 18720, Note_on_c, 1, 61, 127
1, 18832, Note_off_c, 1, 69, 0
1, 18835, Note_off_c, 1, 61, 0
1, 18840, Note_on_c, 1, 77, 127
1, 18840, Note_on_c, 1, 57, 127
1, 18840, Note_on_c, 1, 38, 127
1, 18858, Note_off_c, 1, 79, 0
1, 18881, Note_off_c, 1, 38, 0
1, 18893, Note_off_c, 1, 77, 0
1, 18900, Note_on_c, 1, 76, 127
1, 18900, Note_on_c, 1, 37, 127
1, 18912, Note_off_c, 1, 57, 0
1, 18940, Note_off_c, 1, 37, 0
1, 18941, Note_off_c, 1, 76, 0
1, 18960, Note_on_c, 1, 77, 127
1, 18960, Note_on_c, 1, 74, 127
1, 18960, Note_on_c, 1, 38, 127
1, 19061, Note_off_c, 1, 38, 0
1, 19080, Note_on_c, 1, 79, 127
1, 19080, Note_on_c, 1, 71, 127
1, 19090, Note_off_c, 1, 77, 0
1, 19129, Note_off_c, 1, 79, 0
1, 19163, Note_off_c, 1, 71, 0
1, 19200, Note_on_c, 1, 76, 127
1, 19200, Note_on_c, 1, 68, 127
1, 19299, Note_off_c, 1, 68, 0
1, 19318, Note_off_c, 1, 76, 0
1, 19320, Note_on_c, 1, 72, 127
1, 19320, Note_on_c, 1, 64, 127
1, 19320, Note_on_c, 1, 45, 127
1, 19328, Note_off_c, 1, 74, 0
1, 19363, Note_off_c, 1, 45, 0
1, 19369, Note_off_c, 1, 72, 0
1, 19380, Note_on_c, 1, 44, 127
1, 19405, Note_off_c, 1, 64, 0
1, 19415, Note_off_c, 1, 44, 0
1, 19440, Note_on_c, 1, 81, 127
1, 19440, Note_on_c, 1, 72, 127
1, 19440, Note_on_c, 1, 60, 127
1, 19440, Note_on_c, 1, 45, 127
1, 19525, Note_off_c, 1, 45, 0
1, 19534, Note_off_c, 1, 60, 0
1, 19554, Note_off_c, 1, 81, 0
1, 19560, Note_off_c, 1, 72, 0
1, 19560, Note_on_c, 1, 74, 127
1, 19560, Note_on_c, 1, 57, 127
1, 19617, Note_off_c, 1, 74, 0
1, 19680, Note_on_c, 1, 71, 127
1, 19680, Note_on_c, 1, 64, 127
1, 19686, Note_off_c, 1, 57, 0
1, 19735, Note_off_c, 1, 64, 0
1, 19778, Note_off_c, 1, 71, 0
1, 19800, Note_on_c, 1, 40, 127
1, 19850, Note_off_c, 1, 40, 0
1, 19920, Note_on_c, 1, 79, 127
1, 19920, Note_on_c, 1, 71, 127
1, 19920, Note_on_c, 1, 64, 127
1, 19920, Note_on_c, 1, 40, 127
1, 19973, Note_off_c, 1, 40, 0
1, 19997, Note_off_c, 1, 64, 0
1, 20005, Note_off_c, 1, 71, 0
1, 20034, Note_off_c, 1, 79, 0
1, 20040, Note_on_c, 1, 40, 127
1, 20076, Note_off_c, 1, 40, 0
1, 20160, Note_on_c, 1, 72, 127
1, 20160, Note_on_c, 1, 69, 127
1, 20160, Note_on_c, 1, 64, 127
1, 20160, Note_on_c, 1, 40, 127
1, 20245, Note_off_c, 1, 64, 0
1, 20272, Note_off_c, 1, 69, 0
1, 20280, Note_on_c, 1, 38, 127
1, 20282, Note_off_c, 1, 40, 0
1, 20293, Note_off_c, 1, 72, 0
1, 20320, Note_off_c, 1, 38, 0
1, 20340, Note_on_c, 1, 36, 127
1, 20379, Note_off_c, 1, 36, 0
1, 20400, Note_on_c, 1, 77, 127
1, 20400, Note_on_c, 1, 68, 127
1, 20400, Note_on_c, 1, 59, 127
1, 20400, Note_on_c, 1, 38, 127
1, 20507, Note_off_c, 1, 59, 0
1, 20509, Note_off_c, 1, 68, 0
1, 20509, Note_off_c, 1, 38, 0
1, 20520, Note_on_c, 1, 35, 127
1, 20526, Note_off_c, 1, 77, 0
1, 20622, Note_off_c, 1, 35, 0
1, 20640, Note_on_c, 1, 76, 127
1, 20640, Note_on_c, 1, 36, 127
1, 20700, Note_on_c, 1, 69, 127
1, 20754, Note_off_c, 1, 76, 0
1, 20758, Note_off_c, 1, 36, 0
1, 20760, Note_on_c, 1, 72, 127
1, 20760, Note_on_c, 1, 67, 127
1, 20760, Note_on_c, 1, 33, 127
1, 20769, Note_off_c, 1, 69, 0
1, 20861, Note_off_c, 1, 67, 0
1, 20862, Note_off_c, 1, 33, 0
1, 20880, Note_on_c, 1, 74, 127
1, 20880, Note_on_c, 1, 65, 127
1, 20880, Note_on_c, 1, 35, 127
1, 20884, Note_off_c, 1, 72, 0
1, 20986, Note_off_c, 1, 35, 0
1, 21000, Note_on_c, 1, 64, 127
1, 21000, Note_on_c, 1, 37, 127
1, 21002, Note_off_c, 1, 65, 0
1, 21006, Note_off_c, 1, 74, 0
1, 21100, Note_off_c, 1, 37, 0
1, 21115, Note_off_c, 1, 64, 0
1, 21120, Note_on_c, 1, 77, 127
1, 21120, Note_on_c, 1, 62, 127
1, 21120, Note_on_c, 1, 38, 127
1, 21219, Note_off_c, 1, 38, 0
1, 21241, Note_off_c, 1, 62, 0
1, 21259, Note_off_c, 1, 77, 0
1, 21480, Note_on_c, 1, 68, 127
1, 21530, Note_off_c, 1, 68, 0
1, 21540, Note_on_c, 1, 66, 127
1, 21540, Note_on_c, 1, 63, 127
1, 21574, Note_off_c, 1, 66, 0
1, 21579, Note_off_c, 1, 63, 0
1, 21600, Note_on_c, 1, 40, 127
1, 21660, Note_on_c, 1, 59, 127
1, 21677, Note_off_c, 1, 40, 0
1, 21720, Note_on_c, 1, 57, 127
1, 21722, Note_off_c, 1, 59, 0
1, 21766, Note_off_c, 1, 57, 0
1, 21780, Note_on_c, 1, 71, 127
1, 21780, Note_on_c, 1, 56, 127
1, 21808, Note_off_c, 1, 56, 0
1, 21837, Note_off_c, 1, 71, 0
1, 21840, Note_on_c, 1, 72, 127
1, 21840, Note_on_c, 1, 57, 127
1, 21900, Note_on_c, 1, 68, 127
1, 21900, Note_on_c, 1, 59, 127
1, 21912, Note_off_c, 1, 57, 0
1, 21940, Note_off_c, 1, 68, 0
1, 21949, Note_off_c, 1, 59, 0
1, 21960, Note_on_c, 1, 69, 127
1, 21960, Note_on_c, 1, 60, 127
1, 21960, Note_on_c, 1, 33, 127
1, 22009, Note_off_c, 1, 69, 0
1, 22018, Note_off_c, 1, 33, 0
1, 22020, Note_on_c, 1, 64, 127
1, 22076, Note_off_c, 1, 64, 0
1, 22080, Note_on_c, 1, 65, 127
1, 22080, Note_on_c, 1, 38, 127
1, 22083, Note_off_c, 1, 72, 0
1, 22152, Note_off_c, 1, 60, 0
1, 22165, Note_off_c, 1, 38, 0
1, 22200, Note_on_c, 1, 71, 127
1, 22200, Note_on_c, 1, 62, 127
1, 22253, Note_off_c, 1, 71, 0
1, 22253, Note_off_c, 1, 62, 0
1, 22255, Note_off_c, 1, 65, 0
1, 22260, Note_on_c, 1, 69, 127
1, 22260, Note_on_c, 1, 60, 127
1, 22299, Note_off_c, 1, 60, 0
1, 22306, Note_off_c, 1, 69, 0
1, 22320, Note_on_c, 1, 71, 127
1, 22320, Note_on_c, 1, 62, 127
1, 22380, Note_on_c, 1, 65, 127
1, 22427, Note_off_c, 1, 62, 0
1, 22440, Note_on_c, 1, 68, 127
1, 22440, Note_on_c, 1, 60, 127
1, 22440, Note_on_c, 1, 40, 127
1, 22453, Note_off_c, 1, 71, 0
1, 22494, Note_off_c, 1, 65, 0
1, 22500, Note_off_c, 1, 40, 0
1, 22500, Note_on_c, 1, 64, 127
1, 22555, Note_off_c, 1, 68, 0
1, 22560, Note_on_c, 1, 69, 127
1, 22560, Note_on_c, 1, 41, 127
1, 22579, Note_off_c, 1, 64, 0
1, 22600, Note_off_c, 1, 60, 0
1, 22680, Note_on_c, 1, 59, 127
1, 22729, Note_off_c, 1, 59, 0
1, 22740, Note_on_c, 1, 57, 127
1, 22763, Note_off_c, 1, 41, 0
1, 22782, Note_off_c, 1, 69, 0
1, 22786, Note_off_c, 1, 57, 0
1, 22800, Note_on_c, 1, 62, 127
1, 22800, Note_on_c, 1, 59, 127
1, 22860, Note_on_c, 1, 69, 127
1, 22893, Note_off_c, 1, 59, 0
1, 22920, Note_on_c, 1, 54, 127
1, 22920, Note_on_c, 1, 39, 127
1, 22921, Note_off_c, 1, 62, 0
1, 22930, Note_off_c, 1, 69, 0
1, 22979, Note_off_c, 1, 39, 0
1, 23030, Note_off_c, 1, 54, 0
1, 23040, Note_on_c, 1, 60, 127
1, 23040, Note_on_c, 1, 52, 127
1, 23040, Note_on_c, 1, 40, 127
1, 23100, Note_on_c, 1, 68, 127
1, 23101, Note_off_c, 1, 60, 0
1, 23160, Note_on_c, 1, 66, 127
1, 23160, Note_on_c, 1, 57, 127
1, 23163, Note_off_c, 1, 68, 0
1, 23203, Note_off_c, 1, 66, 0
1, 23211, Note_off_c, 1, 57, 0
1, 23278, Note_off_c, 1, 40, 0
1, 23280, Note_on_c, 1, 28, 127
1, 23377, Note_off_c, 1, 52, 0
1, 23400, Note_on_c, 1, 50, 127
1, 23466, Note_off_c, 1, 50, 0
1, 23507, Note_off_c, 1, 28, 0
1, 23520, Note_on_c, 1, 69, 127
1, 23520, Note_on_c, 1, 57, 127
1, 23520, Note_on_c, 1, 48, 127
1, 23520, Note_on_c, 1, 33, 127
1, 23628, Note_off_c, 1, 57, 0
1, 23637, Note_off_c, 1, 33, 0
1, 23654, Note_off_c, 1, 69, 0
1, 23655, Note_off_c, 1, 48, 0
1, 23760, Note_on_c, 1, 57, 127
1, 23802, Note_off_c, 1, 57, 0
1, 23880, Note_on_c, 1, 57, 127
1, 23919, Note_off_c, 1, 57, 0
1, 24000, Note_on_c, 1, 59, 127
1, 24000, Note_on_c, 1, 57, 127
1, 24111, Note_off_c, 1, 59, 0
1, 24120, Note_on_c, 1, 55, 127
1, 24124, Note_off_c, 1, 57, 0
1, 24168, Note_off_c, 1, 55, 0
1, 24180, Note_on_c, 1, 53, 127
1, 24240, Note_on_c, 1, 55, 127
1, 24241, Note_off_c, 1, 53, 0
1, 24349, Note_off_c, 1, 55, 0
1, 24360, Note_on_c, 1, 61, 127
1, 24360, Note_on_c, 1, 52, 127
1, 24466, Note_off_c, 1, 61, 0
1, 24475, Note_off_c, 1, 52, 0
1, 24480, Note_on_c, 1, 62, 127
1, 24480, Note_on_c, 1, 53, 127
1, 24537, Note_off_c, 1, 53, 0
1, 24547, Note_off_c, 1, 62, 0
1, 24600, Note_on_c, 1, 62, 127
1, 24640, Note_off_c, 1, 62, 0
1, 24720, Note_on_c, 1, 62, 127
1, 24720, Note_on_c, 1, 50, 127
1, 24767, Note_off_c, 1, 62, 0
1, 24789, Note_off_c, 1, 50, 0
1, 24840, Note_on_c, 1, 62, 127
1, 24883, Note_off_c, 1, 62, 0
1, 24960, Note_on_c, 1, 62, 127
1, 24960, Note_on_c, 1, 52, 127
1, 25027, Note_off_c, 1, 52, 0
1, 25080, Note_on_c, 1, 60, 127
1, 25091, Note_off_c, 1, 62, 0
1, 25118, Note_off_c, 1, 60, 0
1, 25140, Note_on_c, 1, 58, 127
1, 25182, Note_off_c, 1, 58, 0
1, 25200, Note_on_c, 1, 60, 127
1, 25309, Note_off_c, 1, 60, 0
1, 25320, Note_on_c, 1, 57, 127
1, 25320, Note_on_c, 1, 54, 127
1, 25379, Note_off_c, 1, 54, 0
1, 25420, Note_off_c, 1, 57, 0
1, 25440, Note_on_c, 1, 58, 127
1, 25440, Note_on_c, 1, 55, 127
1, 25512, Note_off_c, 1, 55, 0
1, 25524, Note_off_c, 1, 58, 0
1, 25560, Note_on_c, 1, 67, 127
1, 25612, Note_off_c, 1, 67, 0
1, 25680, Note_on_c, 1, 67, 127
1, 25680, Note_on_c, 1, 59, 127
1, 25680, Note_on_c, 1, 52, 127
1, 25729, Note_off_c, 1, 67, 0
1, 25740, Note_off_c, 1, 52, 0
1, 25758, Note_off_c, 1, 59, 0
1, 25800, Note_on_c, 1, 67, 127
1, 25840, Note_off_c, 1, 67, 0
1, 25920, Note_on_c, 1, 67, 127
1, 25920, Note_on_c, 1, 61, 127
1, 25920, Note_on_c, 1, 57, 127
1, 25989, Note_off_c, 1, 57, 0
1, 25992, Note_off_c, 1, 61, 0
1, 26040, Note_on_c, 1, 65, 127
1, 26054, Note_off_c, 1, 67, 0
1, 26075, Note_off_c, 1, 65, 0
1, 26100, Note_on_c, 1, 64, 127
1, 26132, Note_off_c, 1, 64, 0
1, 26160, Note_on_c, 1, 65, 127
1, 26160, Note_on_c, 1, 62, 127
1, 26236, Note_off_c, 1, 62, 0
1, 26271, Note_off_c, 1, 65, 0
1, 26280, Note_on_c, 1, 67, 127
1, 26333, Note_off_c, 1, 67, 0
1, 26340, Note_on_c, 1, 65, 127
1, 26372, Note_off_c, 1, 65, 0
1, 26400, Note_on_c, 1, 64, 127
1, 26400, Note_on_c, 1, 62, 127
1, 26400, Note_on_c, 1, 57, 127
1, 26483, Note_off_c, 1, 57, 0
1, 26520, Note_on_c, 1, 60, 127
1, 26534, Note_off_c, 1, 62, 0
1, 26547, Note_off_c, 1, 64, 0
1, 26558, Note_off_c, 1, 60, 0
1, 26580, Note_on_c, 1, 59, 127
1, 26623, Note_off_c, 1, 59, 0
1, 26640, Note_on_c, 1, 69, 127
1, 26640, Note_on_c, 1, 60, 127
1, 26737, Note_off_c, 1, 69, 0
1, 26750, Note_off_c, 1, 60, 0
1, 26760, Note_on_c, 1, 62, 127
1, 26813, Note_off_c, 1, 62, 0
1, 26820, Note_on_c, 1, 60, 127
1, 26856, Note_off_c, 1, 60, 0
1, 26880, Note_on_c, 1, 69, 127
1, 26880, Note_on_c, 1, 59, 127
1, 26880, Note_on_c, 1, 51, 127
1, 26977, Note_off_c, 1, 51, 0
1, 26991, Note_off_c, 1, 59, 0
1, 26998, Note_off_c, 1, 69, 0
1, 27000, Note_on_c, 1, 71, 127
1, 27040, Note_off_c, 1, 71, 0
1, 27060, Note_on_c, 1, 72, 127
1, 27102, Note_off_c, 1, 72, 0
1, 27120, Note_on_c, 1, 71, 127
1, 27180, Note_on_c, 1, 69, 127
1, 27181, Note_off_c, 1, 71, 0
1, 27240, Note_on_c, 1, 68, 127
1, 27250, Note_off_c, 1, 69, 0
1, 27287, Note_off_c, 1, 68, 0
1, 27300, Note_on_c, 1, 69, 127
1, 27344, Note_off_c, 1, 69, 0
1, 27360, Note_on_c, 1, 68, 127
1, 27360, Note_on_c, 1, 59, 127
1, 27360, Note_on_c, 1, 50, 127
1, 27445, Note_off_c, 1, 50, 0
1, 27459, Note_off_c, 1, 59, 0
1, 27473, Note_off_c, 1, 68, 0
1, 27480, Note_on_c, 1, 40, 127
1, 27532, Note_off_c, 1, 40, 0
1, 27600, Note_on_c, 1, 69, 127
1, 27600, Note_on_c, 1, 64, 127
1, 27600, Note_on_c, 1, 48, 127
1, 27600, Note_on_c, 1, 40, 127
1, 27641, Note_off_c, 1, 40, 0
1, 27686, Note_off_c, 1, 48, 0
1, 27689, Note_off_c, 1, 64, 0
1, 27696, Note_off_c, 1, 69, 0
1, 27720, Note_on_c, 1, 40, 127
1, 27754, Note_off_c, 1, 40, 0
1, 27840, Note_on_c, 1, 69, 127
1, 27840, Note_on_c, 1, 64, 127
1, 27840, Note_on_c, 1, 47, 127
1, 27840, Note_on_c, 1, 40, 127
1, 27918, Note_off_c, 1, 47, 0
1, 27933, Note_off_c, 1, 64, 0
1, 27942, Note_off_c, 1, 69, 0
1, 27960, Note_on_c, 1, 71, 127
1, 27960, Note_on_c, 1, 38, 127
1, 27975, Note_off_c, 1, 40, 0
1, 28010, Note_off_c, 1, 38, 0
1, 28012, Note_off_c, 1, 71, 0
1, 28020, Note_on_c, 1, 36, 127
1, 28077, Note_off_c, 1, 36, 0
1, 28080, Note_on_c, 1, 71, 127
1, 28080, Note_on_c, 1, 68, 127
1, 28080, Note_on_c, 1, 59, 127
1, 28080, Note_on_c, 1, 52, 127
1, 28080, Note_on_c, 1, 38, 127
1, 28083, Note_on_c, 1, 64, 127
1, 28133, Note_off_c, 1, 71, 0
1, 28161, Note_off_c, 1, 52, 0
1, 28180, Note_off_c, 1, 59, 0
1, 28192, Note_off_c, 1, 68, 0
1, 28193, Note_off_c, 1, 38, 0
1, 28200, Note_on_c, 1, 35, 127
1, 28201, Note_off_c, 1, 64, 0
1, 28313, Note_off_c, 1, 35, 0
1, 28320, Note_on_c, 1, 69, 127
1, 28320, Note_on_c, 1, 64, 127
1, 28320, Note_on_c, 1, 60, 127
1, 28320, Note_on_c, 1, 52, 127
1, 28320, Note_on_c, 1, 36, 127
1, 28400, Note_off_c, 1, 52, 0
1, 28400, Note_off_c, 1, 36, 0
1, 28426, Note_off_c, 1, 60, 0
1, 28434, Note_off_c, 1, 64, 0
1, 28440, Note_on_c, 1, 76, 127
1, 28492, Note_off_c, 1, 69, 0
1, 28500, Note_on_c, 1, 74, 127
1, 28503, Note_off_c, 1, 76, 0
1, 28557, Note_off_c, 1, 74, 0
1, 28560, Note_on_c, 1, 76, 127
1, 28560, Note_on_c, 1, 72, 127
1, 28604, Note_off_c, 1, 76, 0
1, 28615, Note_off_c, 1, 72, 0
1, 28620, Note_on_c, 1, 71, 127
1, 28675, Note_off_c, 1, 71, 0
1, 28680, Note_on_c, 1, 76, 127
1, 28680, Note_on_c, 1, 69, 127
1, 28680, Note_on_c, 1, 64, 127
1, 28680, Note_on_c, 1, 60, 127
1, 28680, Note_on_c, 1, 36, 127
1, 28721, Note_off_c, 1, 76, 0
1, 28733, Note_off_c, 1, 60, 0
1, 28734, Note_off_c, 1, 36, 0
1, 28738, Note_off_c, 1, 69, 0
1, 28738, Note_off_c, 1, 64, 0
1, 28740, Note_on_c, 1, 68, 127
1, 28792, Note_off_c, 1, 68, 0
1, 28800, Note_on_c, 1, 76, 127
1, 28800, Note_on_c, 1, 69, 127
1, 28800, Note_on_c, 1, 60, 127
1, 28800, Note_on_c, 1, 57, 127
1, 28800, Note_on_c, 1, 41, 127
1, 28879, Note_off_c, 1, 41, 0
1, 28883, Note_off_c, 1, 60, 0
1, 28885, Note_off_c, 1, 57, 0
1, 28920, Note_off_c, 1, 76, 0
1, 28920, Note_on_c, 1, 74, 127
1, 28937, Note_off_c, 1, 69, 0
1, 28954, Note_off_c, 1, 74, 0
1, 28980, Note_on_c, 1, 72, 127
1, 29014, Note_off_c, 1, 72, 0
1, 29040, Note_on_c, 1, 74, 127
1, 29102, Note_off_c, 1, 74, 0
1, 29160, Note_on_c, 1, 74, 127
1, 29160, Note_on_c, 1, 69, 127
1, 29160, Note_on_c, 1, 62, 127
1, 29160, Note_on_c, 1, 59, 127
1, 29160, Note_on_c, 1, 35, 127
1, 29201, Note_off_c, 1, 74, 0
1, 29203, Note_off_c, 1, 59, 0
1, 29216, Note_off_c, 1, 35, 0
1, 29219, Note_off_c, 1, 62, 0
1, 29265, Note_off_c, 1, 69, 0
1, 29280, Note_on_c, 1, 74, 127
1, 29280, Note_on_c, 1, 68, 127
1, 29280, Note_on_c, 1, 64, 127
1, 29280, Note_on_c, 1, 59, 127
1, 29280, Note_on_c, 1, 40, 127
1, 29365, Note_off_c, 1, 40, 0
1, 29387, Note_off_c, 1, 64, 0
1, 29394, Note_off_c, 1, 59, 0
1, 29400, Note_on_c, 1, 72, 127
1, 29414, Note_off_c, 1, 68, 0
1, 29418, Note_off_c, 1, 74, 0
1, 29444, Note_off_c, 1, 72, 0
1, 29460, Note_on_c, 1, 71, 127
1, 29503, Note_off_c, 1, 71, 0
1, 29520, Note_on_c, 1, 72, 127
1, 29576, Note_off_c, 1, 72, 0
1, 29640, Note_on_c, 1, 72, 127
1, 29640, Note_on_c, 1, 69, 127
1, 29640, Note_on_c, 1, 64, 127
1, 29640, Note_on_c, 1, 57, 127
1, 29640, Note_on_c, 1, 33, 127
1, 29688, Note_off_c, 1, 33, 0
1, 29689, Note_off_c, 1, 57, 0
1, 29700, Note_off_c, 1, 72, 0
1, 29701, Note_off_c, 1, 69, 0
1, 29701, Note_off_c, 1, 64, 0
1, 29760, Note_on_c, 1, 77, 127
1, 29760, Note_on_c, 1, 69, 127
1, 29760, Note_on_c, 1, 62, 127
1, 29760, Note_on_c, 1, 57, 127
1, 29760, Note_on_c, 1, 38, 127
1, 29820, Note_on_c, 1, 79, 127
1, 29831, Note_off_c, 1, 77, 0
1, 29838, Note_off_c, 1, 38, 0
1, 29845, Note_off_c, 1, 57, 0
1, 29848, Note_off_c, 1, 62, 0
1, 29875, Note_off_c, 1, 79, 0
1, 29904, Note_off_c, 1, 69, 0
1, 29940, Note_on_c, 1, 76, 127
1, 29962, Note_off_c, 1, 76, 0
1, 30000, Note_on_c, 1, 76, 127
1, 30000, Note_on_c, 1, 69, 127
1, 30000, Note_on_c, 1, 64, 127
1, 30000, Note_on_c, 1, 60, 127
1, 30000, Note_on_c, 1, 36, 127
1, 30056, Note_off_c, 1, 76, 0
1, 30060, Note_on_c, 1, 77, 127
1, 30065, Note_off_c, 1, 60, 0
1, 30074, Note_off_c, 1, 64, 0
1, 30090, Note_off_c, 1, 36, 0
1, 30112, Note_off_c, 1, 69, 0
1, 30118, Note_off_c, 1, 77, 0
1, 30120, Note_on_c, 1, 76, 127
1, 30164, Note_off_c, 1, 76, 0
1, 30180, Note_on_c, 1, 75, 127
1, 30206, Note_off_c, 1, 75, 0
1, 30240, Note_on_c, 1, 75, 127
1, 30240, Note_on_c, 1, 69, 127
1, 30240, Note_on_c, 1, 66, 127
1, 30240, Note_on_c, 1, 54, 127
1, 30240, Note_on_c, 1, 35, 127
1, 30310, Note_off_c, 1, 66, 0
1, 30312, Note_off_c, 1, 35, 0
1, 30318, Note_off_c, 1, 54, 0
1, 30360, Note_on_c, 1, 76, 127
1, 30366, Note_off_c, 1, 75, 0
1, 30376, Note_off_c, 1, 69, 0
1, 30480, Note_on_c, 1, 68, 127
1, 30480, Note_on_c, 1, 64, 127
1, 30480, Note_on_c, 1, 59, 127
1, 30480, Note_on_c, 1, 28, 127
1, 30540, Note_on_c, 1, 74, 127
1, 30544, Note_off_c, 1, 59, 0
1, 30547, Note_off_c, 1, 64, 0
1, 30551, Note_off_c, 1, 76, 0
1, 30552, Note_off_c, 1, 28, 0
1, 30586, Note_off_c, 1, 68, 0
1, 30596, Note_off_c, 1, 74, 0
1, 30600, Note_on_c, 1, 73, 127
1, 30646, Note_off_c, 1, 73, 0
1, 30660, Note_on_c, 1, 71, 127
1, 30711, Note_off_c, 1, 71, 0
1, 30720, Note_on_c, 1, 73, 127
1, 30720, Note_on_c, 1, 67, 127
1, 30720, Note_on_c, 1, 64, 127
1, 30720, Note_on_c, 1, 57, 127
1, 30720, Note_on_c, 1, 33, 127
1, 30781, Note_off_c, 1, 57, 0
1, 30802, Note_off_c, 1, 33, 0
1, 30804, Note_off_c, 1, 64, 0
1, 30838, Note_off_c, 1, 67, 0
1, 30840, Note_on_c, 1, 74, 127
1, 30849, Note_off_c, 1, 73, 0
1, 30960, Note_on_c, 1, 65, 127
1, 30960, Note_on_c, 1, 62, 127
1, 30960, Note_on_c, 1, 45, 127
1, 31020, Note_on_c, 1, 72, 127
1, 31025, Note_off_c, 1, 74, 0
1, 31030, Note_off_c, 1, 45, 0
1, 31033, Note_off_c, 1, 62, 0
1, 31060, Note_off_c, 1, 72, 0
1, 31076, Note_off_c, 1, 65, 0
1, 31080, Note_on_c, 1, 71, 127
1, 31128, Note_off_c, 1, 71, 0
1, 31140, Note_on_c, 1, 69, 127
1, 31186, Note_off_c, 1, 69, 0
1, 31200, Note_on_c, 1, 71, 127
1, 31200, Note_on_c, 1, 65, 127
1, 31200, Note_on_c, 1, 62, 127
1, 31200, Note_on_c, 1, 44, 127
1, 31260, Note_on_c, 1, 74, 127
1, 31264, Note_off_c, 1, 44, 0
1, 31268, Note_off_c, 1, 71, 0
1, 31286, Note_off_c, 1, 62, 0
1, 31301, Note_off_c, 1, 74, 0
1, 31316, Note_off_c, 1, 65, 0
1, 31320, Note_on_c, 1, 72, 127
1, 31440, Note_on_c, 1, 64, 127
1, 31440, Note_on_c, 1, 60, 127
1, 31440, Note_on_c, 1, 45, 127
1, 31499, Note_off_c, 1, 45, 0
1, 31500, Note_on_c, 1, 71, 127
1, 31514, Note_off_c, 1, 60, 0
1, 31517, Note_off_c, 1, 72, 0
1, 31560, Note_on_c, 1, 69, 127
1, 31567, Note_off_c, 1, 71, 0
1, 31568, Note_off_c, 1, 64, 0
1, 31618, Note_off_c, 1, 69, 0
1, 31620, Note_on_c, 1, 68, 127
1, 31680, Note_on_c, 1, 69, 127
1, 31680, Note_on_c, 1, 64, 127
1, 31680, Note_on_c, 1, 60, 127
1, 31680, Note_on_c, 1, 41, 127
1, 31689, Note_off_c, 1, 68, 0
1, 31726, Note_off_c, 1, 69, 0
1, 31740, Note_on_c, 1, 77, 127
1, 31757, Note_off_c, 1, 41, 0
1, 31780, Note_off_c, 1, 77, 0
1, 31781, Note_off_c, 1, 60, 0
1, 31795, Note_off_c, 1, 64, 0
1, 31800, Note_on_c, 1, 70, 127
1, 31920, Note_on_c, 1, 62, 127
1, 31920, Note_on_c, 1, 57, 127
1, 31920, Note_on_c, 1, 41, 127
1, 31980, Note_on_c, 1, 69, 127
1, 31990, Note_off_c, 1, 70, 0
1, 31998, Note_off_c, 1, 57, 0
1, 31998, Note_off_c, 1, 41, 0
1, 32035, Note_off_c, 1, 69, 0
1, 32039, Note_off_c, 1, 62, 0
1, 32040, Note_on_c, 1, 68, 127
1, 32100, Note_off_c, 1, 68, 0
1, 32100, Note_on_c, 1, 69, 127
1, 32160, Note_on_c, 1, 62, 127
1, 32160, Note_on_c, 1, 59, 127
1, 32160, Note_on_c, 1, 40, 127
1, 32162, Note_off_c, 1, 69, 0
1, 32225, Note_off_c, 1, 59, 0
1, 32229, Note_off_c, 1, 40, 0
1, 32280, Note_on_c, 1, 77, 127
1, 32291, Note_off_c, 1, 62, 0
1, 32319, Note_off_c, 1, 77, 0
1, 32340, Note_on_c, 1, 74, 127
1, 32383, Note_off_c, 1, 74, 0
1, 32400, Note_on_c, 1, 76, 127
1, 32520, Note_on_c, 1, 68, 127
1, 32520, Note_on_c, 1, 62, 127
1, 32520, Note_on_c, 1, 59, 127
1, 32520, Note_on_c, 1, 40, 127
1, 32569, Note_off_c, 1, 59, 0
1, 32580, Note_off_c, 1, 40, 0
1, 32599, Note_off_c, 1, 62, 0
1, 32610, Note_off_c, 1, 68, 0
1, 32640, Note_on_c, 1, 69, 127
1, 32640, Note_on_c, 1, 60, 127
1, 32640, Note_on_c, 1, 57, 127
1, 32640, Note_on_c, 1, 28, 127
1, 32713, Note_off_c, 1, 76, 0
1, 32715, Note_off_c, 1, 60, 0
1, 32734, Note_off_c, 1, 28, 0
1, 32747, Note_off_c, 1, 57, 0
1, 32760, Note_on_c, 1, 77, 127
1, 32774, Note_off_c, 1, 69, 0
1, 32804, Note_off_c, 1, 77, 0
1, 32820, Note_on_c, 1, 75, 127
1, 32880, Note_on_c, 1, 76, 127
1, 32886, Note_off_c, 1, 75, 0
1, 32991, Note_off_c, 1, 76, 0
1, 33000, Note_on_c, 1, 80, 127
1, 33000, Note_on_c, 1, 62, 127
1, 33000, Note_on_c, 1, 59, 127
1, 33000, Note_on_c, 1, 40, 127
1, 33056, Note_off_c, 1, 62, 0
1, 33057, Note_off_c, 1, 40, 0
1, 33059, Note_off_c, 1, 59, 0
1, 33087, Note_off_c, 1, 80, 0
1, 33120, Note_on_c, 1, 81, 127
1, 33120, Note_on_c, 1, 60, 127
1, 33120, Note_on_c, 1, 57, 127
1, 33120, Note_on_c, 1, 41, 127
1, 33180, Note_on_c, 1, 82, 127
1, 33185, Note_off_c, 1, 81, 0
1, 33200, Note_off_c, 1, 60, 0
1, 33208, Note_off_c, 1, 57, 0
1, 33214, Note_off_c, 1, 41, 0
1, 33248, Note_off_c, 1, 82, 0
1, 33300, Note_on_c, 1, 79, 127
1, 33325, Note_off_c, 1, 79, 0
1, 33360, Note_on_c, 1, 79, 127
1, 33360, Note_on_c, 1, 61, 127
1, 33360, Note_on_c, 1, 57, 127
1, 33360, Note_on_c, 1, 40, 127
1, 33417, Note_off_c, 1, 79, 0
1, 33420, Note_off_c, 1, 61, 0
1, 33420, Note_on_c, 1, 81, 127
1, 33424, Note_off_c, 1, 40, 0
1, 33425, Note_off_c, 1, 57, 0
1, 33485, Note_off_c, 1, 81, 0
1, 33540, Note_on_c, 1, 77, 127
1, 33579, Note_off_c, 1, 77, 0
1, 33600, Note_on_c, 1, 77, 127
1, 33600, Note_on_c, 1, 62, 127
1, 33600, Note_on_c, 1, 57, 127
1, 33600, Note_on_c, 1, 38, 127
1, 33653, Note_off_c, 1, 62, 0
1, 33660, Note_on_c, 1, 79, 127
1, 33660, Note_on_c, 1, 64, 127
1, 33672, Note_off_c, 1, 77, 0
1, 33687, Note_off_c, 1, 57, 0
1, 33687, Note_off_c, 1, 38, 0
1, 33713, Note_off_c, 1, 79, 0
1, 33715, Note_off_c, 1, 64, 0
1, 33720, Note_on_c, 1, 77, 127
1, 33720, Note_on_c, 1, 62, 127
1, 33758, Note_off_c, 1, 62, 0
1, 33769, Note_off_c, 1, 77, 0
1, 33780, Note_on_c, 1, 76, 127
1, 33780, Note_on_c, 1, 60, 127
1, 33811, Note_off_c, 1, 60, 0
1, 33818, Note_off_c, 1, 76, 0
1, 33840, Note_on_c, 1, 76, 127
1, 33840, Note_on_c, 1, 60, 127
1, 33892, Note_off_c, 1, 60, 0
1, 33900, Note_on_c, 1, 62, 127
1, 33914, Note_off_c, 1, 76, 0
1, 33960, Note_on_c, 1, 80, 127
1, 33960, Note_on_c, 1, 74, 127
1, 33960, Note_on_c, 1, 40, 127
1, 33964, Note_off_c, 1, 62, 0
1, 34004, Note_off_c, 1, 80, 0
1, 34014, Note_off_c, 1, 74, 0
1, 34016, Note_off_c, 1, 40, 0
1, 34020, Note_on_c, 1, 59, 127
1, 34058, Note_off_c, 1, 59, 0
1, 34080, Note_on_c, 1, 80, 127
1, 34080, Note_on_c, 1, 74, 127
1, 34080, Note_on_c, 1, 59, 127
1, 34080, Note_on_c, 1, 41, 127
1, 34145, Note_on_c, 1, 60, 127
1, 34146, Note_off_c, 1, 59, 0
1, 34161, Note_off_c, 1, 41, 0
1, 34200, Note_on_c, 1, 81, 127
1, 34200, Note_on_c, 1, 72, 127
1, 34204, Note_off_c, 1, 74, 0
1, 34205, Note_off_c, 1, 60, 0
1, 34213, Note_off_c, 1, 80, 0
1, 34246, Note_off_c, 1, 72, 0
1, 34260, Note_on_c, 1, 57, 127
1, 34267, Note_off_c, 1, 81, 0
1, 34290, Note_off_c, 1, 57, 0
1, 34320, Note_on_c, 1, 81, 127
1, 34320, Note_on_c, 1, 72, 127
1, 34320, Note_on_c, 1, 57, 127
1, 34380, Note_on_c, 1, 59, 127
1, 34392, Note_off_c, 1, 57, 0
1, 34435, Note_off_c, 1, 81, 0
1, 34440, Note_off_c, 1, 59, 0
1, 34440, Note_on_c, 1, 74, 127
1, 34440, Note_on_c, 1, 71, 127
1, 34440, Note_on_c, 1, 29, 127
1, 34472, Note_off_c, 1, 72, 0
1, 34485, Note_off_c, 1, 71, 0
1, 34488, Note_off_c, 1, 29, 0
1, 34490, Note_off_c, 1, 74, 0
1, 34500, Note_on_c, 1, 56, 127
1, 34539, Note_off_c, 1, 56, 0
1, 34560, Note_on_c, 1, 74, 127
1, 34560, Note_on_c, 1, 71, 127
1, 34560, Note_on_c, 1, 56, 127
1, 34560, Note_on_c, 1, 28, 127
1, 34662, Note_off_c, 1, 28, 0
1, 34680, Note_on_c, 1, 52, 127
1, 34680, Note_on_c, 1, 32, 127
1, 34683, Note_off_c, 1, 56, 0
1, 34727, Note_off_c, 1, 74, 0
1, 34740, Note_on_c, 1, 76, 127
1, 34759, Note_off_c, 1, 52, 0
1, 34784, Note_off_c, 1, 32, 0
1, 34785, Note_off_c, 1, 76, 0
1, 34800, Note_on_c, 1, 72, 127
1, 34800, Note_on_c, 1, 69, 127
1, 34800, Note_on_c, 1, 64, 127
1, 34800, Note_on_c, 1, 33, 127
1, 34808, Note_off_c, 1, 71, 0
1, 34857, Note_off_c, 1, 69, 0
1, 34914, Note_off_c, 1, 33, 0
1, 34915, Note_off_c, 1, 64, 0
1, 34920, Note_on_c, 1, 65, 127
1, 34920, Note_on_c, 1, 38, 127
1, 34928, Note_off_c, 1, 72, 0
1, 35021, Note_off_c, 1, 38, 0
1, 35036, Note_off_c, 1, 65, 0
1, 35040, Note_on_c, 1, 71, 127
1, 35040, Note_on_c, 1, 69, 127
1, 35040, Note_on_c, 1, 64, 127
1, 35040, Note_on_c, 1, 59, 127
1, 35040, Note_on_c, 1, 40, 127
1, 35154, Note_off_c, 1, 40, 0
1, 35160, Note_on_c, 1, 38, 127
1, 35267, Note_off_c, 1, 38, 0
1, 35400, Note_on_c, 1, 36, 127
1, 35501, Note_off_c, 1, 36, 0
1, 35520, Note_on_c, 1, 68, 127
1, 35526, Note_off_c, 1, 69, 0
1, 35880, Note_on_c, 1, 62, 127
1, 35880, Note_on_c, 1, 35, 127
1, 35888, Note_off_c, 1, 59, 0
1, 35984, Note_off_c, 1, 71, 0
1, 35985, Note_off_c, 1, 35, 0
1, 35997, Note_off_c, 1, 62, 0
1, 36000, Note_on_c, 1, 76, 127
1, 36000, Note_on_c, 1, 60, 127
1, 36015, Note_off_c, 1, 68, 0
1, 36103, Note_off_c, 1, 76, 0
1, 36120, Note_on_c, 1, 74, 127
1, 36234, Note_off_c, 1, 74, 0
1, 36349, Note_off_c, 1, 64, 0
1, 36360, Note_on_c, 1, 72, 127
1, 36360, Note_on_c, 1, 65, 127
1, 36360, Note_on_c, 1, 33, 127
1, 36459, Note_off_c, 1, 33, 0
1, 36481, Note_off_c, 1, 72, 0
1, 36493, Note_off_c, 1, 60, 0
1, 36620, Note_off_c, 1, 65, 0
1, 36840, Note_on_c, 1, 66, 127
1, 36963, Note_off_c, 1, 66, 0
1, 37080, Note_on_c, 1, 57, 127
1, 37182, Note_off_c, 1, 57, 0
1, 37320, Note_on_c, 1, 52, 127
1, 37320, Note_on_c, 1, 28, 127
1, 37378, Note_off_c, 1, 52, 0
1, 37383, Note_off_c, 1, 28, 0
1, 38040, Note_on_c, 1, 77, 127
1, 38162, Note_off_c, 1, 77, 0
1, 38280, Note_on_c, 1, 56, 127
1, 38385, Note_off_c, 1, 56, 0
1, 38760, Note_on_c, 1, 53, 127
1, 38857, Note_off_c, 1, 53, 0
1, 39240, Note_on_c, 1, 78, 127
1, 39360, Note_off_c, 1, 78, 0
1, 39360, Note_on_c, 1, 80, 127
1, 39481, Note_off_c, 1, 80, 0
1, 39720, Note_on_c, 1, 81, 127
1, 39840, Note_on_c, 1, 83, 127
1, 39849, Note_off_c, 1, 81, 0
1, 39960, Note_off_c, 1, 83, 0
1, 39960, Note_on_c, 1, 84, 127
1, 40093, Note_off_c, 1, 84, 0
1, 41400, Note_on_c, 1, 72, 127
1, 41400, Note_on_c, 1, 64, 127
1, 41455, Note_off_c, 1, 72, 0
1, 41460, Note_on_c, 1, 76, 127
1, 41504, Note_off_c, 1, 64, 0
1, 41515, Note_off_c, 1, 76, 0
1, 41520, Note_on_c, 1, 81, 127
1, 41520, Note_on_c, 1, 60, 127
1, 41578, Note_off_c, 1, 81, 0
1, 41580, Note_on_c, 1, 76, 127
1, 41632, Note_off_c, 1, 60, 0
1, 41632, Note_off_c, 1, 76, 0
1, 41640, Note_on_c, 1, 72, 127
1, 41640, Note_on_c, 1, 57, 127
1, 41640, Note_on_c, 1, 33, 127
1, 41694, Note_off_c, 1, 72, 0
1, 41700, Note_on_c, 1, 69, 127
1, 41716, Note_off_c, 1, 33, 0
1, 41751, Note_off_c, 1, 57, 0
1, 41760, Note_on_c, 1, 64, 127
1, 41760, Note_on_c, 1, 59, 127
1, 41760, Note_on_c, 1, 40, 127
1, 41766, Note_off_c, 1, 69, 0
1, 41820, Note_on_c, 1, 81, 127
1, 41833, Note_off_c, 1, 40, 0
1, 41837, Note_off_c, 1, 64, 0
1, 41860, Note_off_c, 1, 59, 0
1, 41880, Note_on_c, 1, 79, 127
1, 41882, Note_off_c, 1, 81, 0
1, 41940, Note_on_c, 1, 77, 127
1, 41945, Note_off_c, 1, 79, 0
1, 41987, Note_off_c, 1, 77, 0
1, 42000, Note_on_c, 1, 79, 127
1, 42000, Note_on_c, 1, 61, 127
1, 42060, Note_on_c, 1, 76, 127
1, 42074, Note_off_c, 1, 79, 0
1, 42108, Note_off_c, 1, 61, 0
1, 42119, Note_off_c, 1, 76, 0
1, 42120, Note_on_c, 1, 73, 127
1, 42120, Note_on_c, 1, 64, 127
1, 42120, Note_on_c, 1, 57, 127
1, 42120, Note_on_c, 1, 33, 127
1, 42177, Note_off_c, 1, 57, 0
1, 42180, Note_on_c, 1, 69, 127
1, 42184, Note_off_c, 1, 64, 0
1, 42187, Note_off_c, 1, 33, 0
1, 42189, Note_off_c, 1, 73, 0
1, 42236, Note_off_c, 1, 69, 0
1, 42240, Note_on_c, 1, 77, 127
1, 42240, Note_on_c, 1, 62, 127
1, 42240, Note_on_c, 1, 57, 127
1, 42240, Note_on_c, 1, 38, 127
1, 42313, Note_off_c, 1, 77, 0
1, 42321, Note_off_c, 1, 38, 0
1, 42329, Note_off_c, 1, 57, 0
1, 42359, Note_off_c, 1, 62, 0
1, 42360, Note_on_c, 1, 65, 127
1, 42360, Note_on_c, 1, 57, 127
1, 42420, Note_off_c, 1, 57, 0
1, 42420, Note_on_c, 1, 69, 127
1, 42424, Note_off_c, 1, 65, 0
1, 42480, Note_on_c, 1, 74, 127
1, 42480, Note_on_c, 1, 53, 127
1, 42483, Note_off_c, 1, 69, 0
1, 42543, Note_off_c, 1, 74, 0
1, 42583, Note_off_c, 1, 53, 0
1, 42600, Note_on_c, 1, 65, 127
1, 42600, Note_on_c, 1, 50, 127
1, 42600, Note_on_c, 1, 26, 127
1, 42660, Note_on_c, 1, 62, 127
1, 42661, Note_off_c, 1, 65, 0
1, 42664, Note_off_c, 1, 26, 0
1, 42676, Note_off_c, 1, 50, 0
1, 42720, Note_on_c, 1, 57, 127
1, 42720, Note_on_c, 1, 52, 127
1, 42720, Note_on_c, 1, 33, 127
1, 42722, Note_off_c, 1, 62, 0
1, 42780, Note_on_c, 1, 74, 127
1, 42791, Note_off_c, 1, 57, 0
1, 42805, Note_off_c, 1, 33, 0
1, 42833, Note_off_c, 1, 74, 0
1, 42835, Note_off_c, 1, 52, 0
1, 42840, Note_on_c, 1, 72, 127
1, 42840, Note_on_c, 1, 57, 127
1, 42890, Note_off_c, 1, 72, 0
1, 42900, Note_on_c, 1, 70, 127
1, 42919, Note_off_c, 1, 57, 0
1, 42953, Note_off_c, 1, 70, 0
1, 42960, Note_on_c, 1, 72, 127
1, 42960, Note_on_c, 1, 54, 127
1, 43020, Note_on_c, 1, 69, 127
1, 43024, Note_off_c, 1, 72, 0
1, 43053, Note_off_c, 1, 54, 0
1, 43080, Note_on_c, 1, 66, 127
1, 43080, Note_on_c, 1, 50, 127
1, 43080, Note_on_c, 1, 57, 127
1, 43080, Note_on_c, 1, 26, 127
1, 43081, Note_off_c, 1, 69, 0
1, 43134, Note_off_c, 1, 57, 0
1, 43140, Note_on_c, 1, 62, 127
1, 43143, Note_off_c, 1, 66, 0
1, 43150, Note_off_c, 1, 26, 0
1, 43151, Note_off_c, 1, 50, 0
1, 43191, Note_off_c, 1, 62, 0
1, 43200, Note_on_c, 1, 70, 127
1, 43200, Note_on_c, 1, 55, 127
1, 43200, Note_on_c, 1, 31, 127
1, 43255, Note_off_c, 1, 70, 0
1, 43260, Note_on_c, 1, 67, 127
1, 43292, Note_off_c, 1, 31, 0
1, 43320, Note_on_c, 1, 62, 127
1, 43321, Note_off_c, 1, 55, 0
1, 43326, Note_off_c, 1, 67, 0
1, 43380, Note_on_c, 1, 74, 127
1, 43387, Note_off_c, 1, 62, 0
1, 43437, Note_off_c, 1, 74, 0
1, 43440, Note_on_c, 1, 79, 127
1, 43440, Note_on_c, 1, 58, 127
1, 43500, Note_on_c, 1, 74, 127
1, 43502, Note_off_c, 1, 79, 0
1, 43537, Note_off_c, 1, 58, 0
1, 43543, Note_off_c, 1, 74, 0
1, 43560, Note_on_c, 1, 70, 127
1, 43560, Note_on_c, 1, 55, 127
1, 43560, Note_on_c, 1, 31, 127
1, 43620, Note_on_c, 1, 67, 127
1, 43622, Note_off_c, 1, 70, 0
1, 43623, Note_off_c, 1, 31, 0
1, 43629, Note_off_c, 1, 55, 0
1, 43674, Note_off_c, 1, 67, 0
1, 43680, Note_on_c, 1, 62, 127
1, 43680, Note_on_c, 1, 57, 127
1, 43680, Note_on_c, 1, 38, 127
1, 43734, Note_off_c, 1, 62, 0
1, 43740, Note_on_c, 1, 79, 127
1, 43779, Note_off_c, 1, 38, 0
1, 43782, Note_off_c, 1, 57, 0
1, 43800, Note_on_c, 1, 77, 127
1, 43813, Note_off_c, 1, 79, 0
1, 43858, Note_off_c, 1, 77, 0
1, 43860, Note_on_c, 1, 76, 127
1, 43908, Note_off_c, 1, 76, 0
1, 43920, Note_on_c, 1, 77, 127
1, 43920, Note_on_c, 1, 59, 127
1, 43980, Note_on_c, 1, 74, 127
1, 43989, Note_off_c, 1, 77, 0
1, 44021, Note_off_c, 1, 59, 0
1, 44024, Note_off_c, 1, 74, 0
1, 44040, Note_on_c, 1, 71, 127
1, 44040, Note_on_c, 1, 62, 127
1, 44040, Note_on_c, 1, 55, 127
1, 44040, Note_on_c, 1, 31, 127
1, 44100, Note_on_c, 1, 67, 127
1, 44101, Note_off_c, 1, 31, 0
1, 44107, Note_off_c, 1, 71, 0
1, 44114, Note_off_c, 1, 55, 0
1, 44116, Note_off_c, 1, 62, 0
1, 44160, Note_on_c, 1, 76, 127
1, 44160, Note_on_c, 1, 60, 127
1, 44160, Note_on_c, 1, 36, 127
1, 44169, Note_off_c, 1, 67, 0
1, 44221, Note_off_c, 1, 76, 0
1, 44264, Note_off_c, 1, 36, 0
1, 44280, Note_on_c, 1, 72, 127
1, 44280, Note_on_c, 1, 58, 127
1, 44283, Note_off_c, 1, 60, 0
1, 44330, Note_off_c, 1, 72, 0
1, 44340, Note_on_c, 1, 74, 127
1, 44389, Note_off_c, 1, 58, 0
1, 44391, Note_off_c, 1, 74, 0
1, 44400, Note_on_c, 1, 75, 127
1, 44400, Note_on_c, 1, 57, 127
1, 44449, Note_off_c, 1, 75, 0
1, 44460, Note_on_c, 1, 72, 127
1, 44506, Note_off_c, 1, 57, 0
1, 44507, Note_off_c, 1, 72, 0
1, 44520, Note_on_c, 1, 69, 127
1, 44520, Note_on_c, 1, 60, 127
1, 44520, Note_on_c, 1, 53, 127
1, 44520, Note_on_c, 1, 29, 127
1, 44566, Note_off_c, 1, 53, 0
1, 44578, Note_off_c, 1, 29, 0
1, 44580, Note_on_c, 1, 65, 127
1, 44586, Note_off_c, 1, 69, 0
1, 44606, Note_off_c, 1, 60, 0
1, 44640, Note_on_c, 1, 74, 127
1, 44640, Note_on_c, 1, 58, 127
1, 44640, Note_on_c, 1, 34, 127
1, 44648, Note_off_c, 1, 65, 0
1, 44699, Note_off_c, 1, 74, 0
1, 44742, Note_off_c, 1, 34, 0
1, 44756, Note_off_c, 1, 58, 0
1, 44760, Note_on_c, 1, 70, 127
1, 44760, Note_on_c, 1, 57, 127
1, 44820, Note_on_c, 1, 72, 127
1, 44836, Note_off_c, 1, 70, 0
1, 44865, Note_off_c, 1, 57, 0
1, 44873, Note_off_c, 1, 72, 0
1, 44880, Note_on_c, 1, 74, 127
1, 44880, Note_on_c, 1, 55, 127
1, 44940, Note_on_c, 1, 70, 127
1, 44947, Note_off_c, 1, 74, 0
1, 44990, Note_off_c, 1, 55, 0
1, 45000, Note_on_c, 1, 67, 127
1, 45000, Note_on_c, 1, 58, 127
1, 45000, Note_on_c, 1, 51, 127
1, 45000, Note_on_c, 1, 39, 127
1, 45010, Note_off_c, 1, 70, 0
1, 45057, Note_off_c, 1, 67, 0
1, 45060, Note_on_c, 1, 63, 127
1, 45062, Note_off_c, 1, 39, 0
1, 45092, Note_off_c, 1, 58, 0
1, 45105, Note_off_c, 1, 63, 0
1, 45120, Note_on_c, 1, 60, 127
1, 45120, Note_on_c, 1, 72, 127
1, 45120, Note_on_c, 1, 33, 127
1, 45180, Note_on_c, 1, 69, 127
1, 45185, Note_off_c, 1, 72, 0
1, 45230, Note_off_c, 1, 51, 0
1, 45236, Note_off_c, 1, 69, 0
1, 45240, Note_on_c, 1, 66, 127
1, 45240, Note_on_c, 1, 57, 127
1, 45240, Note_on_c, 1, 50, 127
1, 45240, Note_on_c, 1, 38, 127
1, 45243, Note_off_c, 1, 33, 0
1, 45295, Note_off_c, 1, 66, 0
1, 45300, Note_on_c, 1, 62, 127
1, 45335, Note_off_c, 1, 38, 0
1, 45358, Note_off_c, 1, 57, 0
1, 45360, Note_on_c, 1, 31, 127
1, 45373, Note_off_c, 1, 62, 0
1, 45377, Note_off_c, 1, 60, 0
1, 45440, Note_off_c, 1, 50, 0
1, 45466, Note_off_c, 1, 31, 0
1, 45480, Note_on_c, 1, 48, 127
1, 45480, Note_on_c, 1, 36, 127
1, 45577, Note_off_c, 1, 36, 0
1, 45600, Note_on_c, 1, 56, 127
1, 45600, Note_on_c, 1, 68, 127
1, 45600, Note_on_c, 1, 53, 127
1, 45600, Note_on_c, 1, 29, 127
1, 45649, Note_off_c, 1, 68, 0
1, 45660, Note_on_c, 1, 65, 127
1, 45703, Note_off_c, 1, 48, 0
1, 45710, Note_off_c, 1, 65, 0
1, 45720, Note_on_c, 1, 46, 127
1, 45720, Note_on_c, 1, 34, 127
1, 45721, Note_off_c, 1, 29, 0
1, 45840, Note_on_c, 1, 27, 127
1, 45842, Note_off_c, 1, 34, 0
1, 45847, Note_off_c, 1, 56, 0
1, 45850, Note_off_c, 1, 53, 0
1, 45972, Note_off_c, 1, 46, 0
1, 46080, Note_on_c, 1, 54, 127
1, 46080, Note_on_c, 1, 26, 127
1, 46100, Note_off_c, 1, 27, 0
1, 46166, Note_off_c, 1, 26, 0
1, 46179, Note_off_c, 1, 54, 0
1, 46260, Note_on_c, 1, 66, 127
1, 46306, Note_off_c, 1, 66, 0
1, 46320, Note_on_c, 1, 69, 127
1, 46380, Note_on_c, 1, 66, 127
1, 46391, Note_off_c, 1, 69, 0
1, 46438, Note_off_c, 1, 66, 0
1, 46440, Note_on_c, 1, 60, 127
1, 46487, Note_off_c, 1, 60, 0
1, 46500, Note_on_c, 1, 57, 127
1, 46542, Note_off_c, 1, 57, 0
1, 46560, Note_on_c, 1, 54, 127
1, 46560, Note_on_c, 1, 50, 127
1, 46560, Note_on_c, 1, 26, 127
1, 46620, Note_on_c, 1, 57, 127
1, 46636, Note_off_c, 1, 26, 0
1, 46643, Note_off_c, 1, 54, 0
1, 46651, Note_off_c, 1, 50, 0
1, 46680, Note_off_c, 1, 57, 0
1, 46680, Note_on_c, 1, 60, 127
1, 46725, Note_off_c, 1, 60, 0
1, 46740, Note_on_c, 1, 66, 127
1, 46774, Note_off_c, 1, 66, 0
1, 46800, Note_on_c, 1, 69, 127
1, 46859, Note_off_c, 1, 69, 0
1, 46860, Note_on_c, 1, 66, 127
1, 46902, Note_off_c, 1, 66, 0
1, 46920, Note_on_c, 1, 60, 127
1, 46963, Note_off_c, 1, 60, 0
1, 46980, Note_on_c, 1, 57, 127
1, 47031, Note_off_c, 1, 57, 0
1, 47040, Note_on_c, 1, 55, 127
1, 47040, Note_on_c, 1, 50, 127
1, 47040, Note_on_c, 1, 26, 127
1, 47100, Note_on_c, 1, 57, 127
1, 47116, Note_off_c, 1, 26, 0
1, 47119, Note_off_c, 1, 50, 0
1, 47143, Note_off_c, 1, 55, 0
1, 47149, Note_off_c, 1, 57, 0
1, 47160, Note_on_c, 1, 58, 127
1, 47205, Note_off_c, 1, 58, 0
1, 47220, Note_on_c, 1, 62, 127
1, 47259, Note_off_c, 1, 62, 0
1, 47280, Note_on_c, 1, 67, 127
1, 47334, Note_off_c, 1, 67, 0
1, 47340, Note_on_c, 1, 62, 127
1, 47376, Note_off_c, 1, 62, 0
1, 47400, Note_on_c, 1, 58, 127
1, 47455, Note_off_c, 1, 58, 0
1, 47460, Note_on_c, 1, 57, 127
1, 47504, Note_off_c, 1, 57, 0
1, 47520, Note_on_c, 1, 55, 127
1, 47520, Note_on_c, 1, 50, 127
1, 47520, Note_on_c, 1, 26, 127
1, 47580, Note_on_c, 1, 57, 127
1, 47587, Note_off_c, 1, 50, 0
1, 47594, Note_off_c, 1, 26, 0
1, 47619, Note_off_c, 1, 55, 0
1, 47633, Note_off_c, 1, 57, 0
1, 47640, Note_on_c, 1, 58, 127
1, 47686, Note_off_c, 1, 58, 0
1, 47700, Note_on_c, 1, 62, 127
1, 47746, Note_off_c, 1, 62, 0
1, 47760, Note_on_c, 1, 67, 127
1, 47814, Note_off_c, 1, 67, 0
1, 47820, Note_on_c, 1, 62, 127
1, 47851, Note_off_c, 1, 62, 0
1, 47880, Note_on_c, 1, 58, 127
1, 47926, Note_off_c, 1, 58, 0
1, 47940, Note_on_c, 1, 57, 127
1, 47975, Note_off_c, 1, 57, 0
1, 48000, Note_on_c, 1, 55, 127
1, 48000, Note_on_c, 1, 50, 127
1, 48000, Note_on_c, 1, 27, 127
1, 48060, Note_on_c, 1, 57, 127
1, 48082, Note_off_c, 1, 50, 0
1, 48089, Note_off_c, 1, 55, 0
1, 48092, Note_off_c, 1, 27, 0
1, 48115, Note_off_c, 1, 57, 0
1, 48120, Note_on_c, 1, 58, 127
1, 48163, Note_off_c, 1, 58, 0
1, 48180, Note_on_c, 1, 62, 127
1, 48228, Note_off_c, 1, 62, 0
1, 48240, Note_on_c, 1, 67, 127
1, 48295, Note_off_c, 1, 67, 0
1, 48300, Note_on_c, 1, 62, 127
1, 48335, Note_off_c, 1, 62, 0
1, 48360, Note_on_c, 1, 58, 127
1, 48417, Note_off_c, 1, 58, 0
1, 48420, Note_on_c, 1, 57, 127
1, 48461, Note_off_c, 1, 57, 0
1, 48480, Note_on_c, 1, 55, 127
1, 48480, Note_on_c, 1, 50, 127
1, 48480, Note_on_c, 1, 27, 127
1, 48540, Note_on_c, 1, 57, 127
1, 48553, Note_off_c, 1, 27, 0
1, 48567, Note_off_c, 1, 55, 0
1, 48573, Note_off_c, 1, 50, 0
1, 48599, Note_off_c, 1, 57, 0
1, 48600, Note_on_c, 1, 58, 127
1, 48645, Note_off_c, 1, 58, 0
1, 48660, Note_on_c, 1, 62, 127
1, 48704, Note_off_c, 1, 62, 0
1, 48720, Note_on_c, 1, 67, 127
1, 48766, Note_off_c, 1, 67, 0
1, 48780, Note_on_c, 1, 62, 127
1, 48813, Note_off_c, 1, 62, 0
1, 48840, Note_on_c, 1, 58, 127
1, 48894, Note_off_c, 1, 58, 0
1, 48900, Note_on_c, 1, 57, 127
1, 48943, Note_off_c, 1, 57, 0
1, 48960, Note_on_c, 1, 55, 127
1, 48960, Note_on_c, 1, 49, 127
1, 48960, Note_on_c, 1, 28, 127
1, 49020, Note_on_c, 1, 57, 127
1, 49039, Note_off_c, 1, 28, 0
1, 49040, Note_off_c, 1, 55, 0
1, 49047, Note_off_c, 1, 49, 0
1, 49074, Note_off_c, 1, 57, 0
1, 49080, Note_on_c, 1, 61, 127
1, 49122, Note_off_c, 1, 61, 0
1, 49140, Note_on_c, 1, 64, 127
1, 49182, Note_off_c, 1, 64, 0
1, 49200, Note_on_c, 1, 67, 127
1, 49259, Note_off_c, 1, 67, 0
1, 49260, Note_on_c, 1, 64, 127
1, 49304, Note_off_c, 1, 64, 0
1, 49320, Note_on_c, 1, 61, 127
1, 49350, Note_off_c, 1, 61, 0
1, 49380, Note_on_c, 1, 57, 127
1, 49425, Note_off_c, 1, 57, 0
1, 49440, Note_on_c, 1, 55, 127
1, 49440, Note_on_c, 1, 49, 127
1, 49440, Note_on_c, 1, 28, 127
1, 49500, Note_on_c, 1, 57, 127
1, 49503, Note_off_c, 1, 28, 0
1, 49506, Note_off_c, 1, 55, 0
1, 49509, Note_off_c, 1, 49, 0
1, 49560, Note_on_c, 1, 61, 127
1, 49561, Note_off_c, 1, 57, 0
1, 49607, Note_off_c, 1, 61, 0
1, 49620, Note_on_c, 1, 64, 127
1, 49659, Note_off_c, 1, 64, 0
1, 49680, Note_on_c, 1, 67, 127
1, 49740, Note_on_c, 1, 64, 127
1, 49743, Note_off_c, 1, 67, 0
1, 49783, Note_off_c, 1, 64, 0
1, 49800, Note_on_c, 1, 61, 127
1, 49852, Note_off_c, 1, 61, 0
1, 49860, Note_on_c, 1, 57, 127
1, 49893, Note_off_c, 1, 57, 0
1, 49920, Note_on_c, 1, 55, 127
1, 49920, Note_on_c, 1, 50, 127
1, 49920, Note_on_c, 1, 26, 127
1, 49977, Note_off_c, 1, 26, 0
1, 49980, Note_on_c, 1, 57, 127
1, 50008, Note_off_c, 1, 50, 0
1, 50015, Note_off_c, 1, 55, 0
1, 50040, Note_on_c, 1, 58, 127
1, 50044, Note_off_c, 1, 57, 0
1, 50100, Note_on_c, 1, 62, 127
1, 50102, Note_off_c, 1, 58, 0
1, 50138, Note_off_c, 1, 62, 0
1, 50160, Note_on_c, 1, 67, 127
1, 50220, Note_on_c, 1, 70, 127
1, 50229, Note_off_c, 1, 67, 0
1, 50280, Note_on_c, 1, 68, 127
1, 50289, Note_off_c, 1, 70, 0
1, 50327, Note_off_c, 1, 68, 0
1, 50340, Note_on_c, 1, 66, 127
1, 50400, Note_on_c, 1, 67, 127
1, 50401, Note_off_c, 1, 66, 0
1, 50452, Note_off_c, 1, 67, 0
1, 50460, Note_on_c, 1, 77, 127
1, 50520, Note_on_c, 1, 75, 127
1, 50525, Note_off_c, 1, 77, 0
1, 50567, Note_off_c, 1, 75, 0
1, 50580, Note_on_c, 1, 73, 127
1, 50630, Note_off_c, 1, 73, 0
1, 50640, Note_on_c, 1, 74, 127
1, 50700, Note_on_c, 1, 72, 127
1, 50702, Note_off_c, 1, 74, 0
1, 50756, Note_off_c, 1, 72, 0
1, 50760, Note_on_c, 1, 71, 127
1, 50817, Note_off_c, 1, 71, 0
1, 50820, Note_on_c, 1, 72, 127
1, 50864, Note_off_c, 1, 72, 0
1, 50880, Note_on_c, 1, 78, 127
1, 50880, Note_on_c, 1, 72, 127
1, 50880, Note_on_c, 1, 57, 127
1, 50880, Note_on_c, 1, 26, 127
1, 50950, Note_off_c, 1, 26, 0
1, 50966, Note_off_c, 1, 57, 0
1, 50976, Note_off_c, 1, 72, 0
1, 50990, Note_off_c, 1, 78, 0
1, 51000, Note_on_c, 1, 62, 127
1, 51056, Note_off_c, 1, 62, 0
1, 51120, Note_on_c, 1, 79, 127
1, 51120, Note_on_c, 1, 70, 127
1, 51120, Note_on_c, 1, 62, 127
1, 51172, Note_off_c, 1, 62, 0
1, 51197, Note_off_c, 1, 70, 0
1, 51236, Note_off_c, 1, 79, 0
1, 51240, Note_on_c, 1, 62, 127
1, 51240, Note_on_c, 1, 55, 127
1, 51278, Note_off_c, 1, 62, 0
1, 51306, Note_off_c, 1, 55, 0
1, 51360, Note_on_c, 1, 79, 127
1, 51360, Note_on_c, 1, 69, 127
1, 51360, Note_on_c, 1, 62, 127
1, 51360, Note_on_c, 1, 57, 127
1, 51360, Note_on_c, 1, 26, 127
1, 51422, Note_off_c, 1, 26, 0
1, 51440, Note_off_c, 1, 69, 0
1, 51441, Note_off_c, 1, 57, 0
1, 51475, Note_off_c, 1, 62, 0
1, 51480, Note_on_c, 1, 60, 127
1, 51501, Note_off_c, 1, 79, 0
1, 51525, Note_off_c, 1, 60, 0
1, 51540, Note_on_c, 1, 58, 127
1, 51571, Note_off_c, 1, 58, 0
1, 51600, Note_on_c, 1, 78, 127
1, 51600, Note_on_c, 1, 69, 127
1, 51600, Note_on_c, 1, 60, 127
1, 51670, Note_off_c, 1, 69, 0
1, 51698, Note_off_c, 1, 60, 0
1, 51713, Note_off_c, 1, 78, 0
1, 51720, Note_on_c, 1, 81, 127
1, 51720, Note_on_c, 1, 72, 127
1, 51720, Note_on_c, 1, 57, 127
1, 51720, Note_on_c, 1, 54, 127
1, 51778, Note_off_c, 1, 54, 0
1, 51786, Note_off_c, 1, 57, 0
1, 51838, Note_off_c, 1, 81, 0
1, 51840, Note_on_c, 1, 74, 127
1, 51840, Note_on_c, 1, 58, 127
1, 51840, Note_on_c, 1, 55, 127
1, 51840, Note_on_c, 1, 26, 127
1, 51900, Note_on_c, 1, 69, 127
1, 51904, Note_off_c, 1, 72, 0
1, 51911, Note_off_c, 1, 26, 0
1, 51926, Note_off_c, 1, 55, 0
1, 51937, Note_off_c, 1, 58, 0
1, 51951, Note_off_c, 1, 69, 0
1, 51960, Note_on_c, 1, 70, 127
1, 51968, Note_off_c, 1, 74, 0
1, 52009, Note_off_c, 1, 70, 0
1, 52020, Note_on_c, 1, 66, 127
1, 52071, Note_off_c, 1, 66, 0
1, 52080, Note_on_c, 1, 67, 127
1, 52135, Note_off_c, 1, 67, 0
1, 52200, Note_on_c, 1, 74, 127
1, 52200, Note_on_c, 1, 67, 127
1, 52200, Note_on_c, 1, 62, 127
1, 52200, Note_on_c, 1, 58, 127
1, 52248, Note_off_c, 1, 67, 0
1, 52250, Note_off_c, 1, 74, 0
1, 52255, Note_off_c, 1, 62, 0
1, 52270, Note_off_c, 1, 58, 0
1, 52320, Note_on_c, 1, 74, 127
1, 52320, Note_on_c, 1, 67, 127
1, 52320, Note_on_c, 1, 62, 127
1, 52320, Note_on_c, 1, 57, 127
1, 52320, Note_on_c, 1, 26, 127
1, 52395, Note_off_c, 1, 26, 0
1, 52401, Note_off_c, 1, 57, 0
1, 52414, Note_off_c, 1, 62, 0
1, 52437, Note_off_c, 1, 67, 0
1, 52440, Note_on_c, 1, 72, 127
1, 52449, Note_off_c, 1, 74, 0
1, 52465, Note_off_c, 1, 72, 0
1, 52500, Note_on_c, 1, 70, 127
1, 52531, Note_off_c, 1, 70, 0
1, 52560, Note_on_c, 1, 74, 127
1, 52620, Note_on_c, 1, 72, 127
1, 52630, Note_off_c, 1, 74, 0
1, 52664, Note_off_c, 1, 72, 0
1, 52680, Note_on_c, 1, 70, 127
1, 52680, Note_on_c, 1, 66, 127
1, 52680, Note_on_c, 1, 62, 127
1, 52680, Note_on_c, 1, 57, 127
1, 52680, Note_on_c, 1, 38, 127
1, 52729, Note_off_c, 1, 62, 0
1, 52734, Note_off_c, 1, 70, 0
1, 52734, Note_off_c, 1, 66, 0
1, 52738, Note_off_c, 1, 57, 0
1, 52740, Note_on_c, 1, 69, 127
1, 52742, Note_off_c, 1, 38, 0
1, 52785, Note_off_c, 1, 69, 0
1, 52800, Note_on_c, 1, 72, 127
1, 52800, Note_on_c, 1, 67, 127
1, 52800, Note_on_c, 1, 62, 127
1, 52800, Note_on_c, 1, 55, 127
1, 52800, Note_on_c, 1, 31, 127
1, 52860, Note_on_c, 1, 70, 127
1, 52873, Note_off_c, 1, 72, 0
1, 52895, Note_off_c, 1, 55, 0
1, 52900, Note_off_c, 1, 67, 0
1, 52900, Note_off_c, 1, 31, 0
1, 52903, Note_off_c, 1, 62, 0
1, 52920, Note_on_c, 1, 69, 127
1, 52920, Note_on_c, 1, 34, 127
1, 52935, Note_off_c, 1, 70, 0
1, 52971, Note_off_c, 1, 69, 0
1, 53027, Note_off_c, 1, 34, 0
1, 53040, Note_on_c, 1, 70, 127
1, 53040, Note_on_c, 1, 36, 127
1, 53100, Note_on_c, 1, 68, 127
1, 53122, Note_off_c, 1, 70, 0
1, 53152, Note_off_c, 1, 36, 0
1, 53157, Note_off_c, 1, 68, 0
1, 53160, Note_on_c, 1, 67, 127
1, 53160, Note_on_c, 1, 62, 127
1, 53160, Note_on_c, 1, 58, 127
1, 53160, Note_on_c, 1, 38, 127
1, 53210, Note_off_c, 1, 62, 0
1, 53213, Note_off_c, 1, 67, 0
1, 53220, Note_off_c, 1, 58, 0
1, 53220, Note_on_c, 1, 66, 127
1, 53220, Note_on_c, 1, 60, 127
1, 53220, Note_on_c, 1, 57, 127
1, 53260, Note_off_c, 1, 60, 0
1, 53272, Note_off_c, 1, 66, 0
1, 53273, Note_off_c, 1, 57, 0
1, 53277, Note_off_c, 1, 38, 0
1, 53280, Note_on_c, 1, 67, 127
1, 53280, Note_on_c, 1, 58, 127
1, 53280, Note_on_c, 1, 55, 127
1, 53280, Note_on_c, 1, 39, 127
1, 53340, Note_on_c, 1, 53, 127
1, 53352, Note_off_c, 1, 55, 0
1, 53382, Note_off_c, 1, 53, 0
1, 53389, Note_off_c, 1, 58, 0
1, 53400, Note_on_c, 1, 57, 127
1, 53400, Note_on_c, 1, 52, 127
1, 53400, Note_on_c, 1, 37, 127
1, 53402, Note_off_c, 1, 39, 0
1, 53431, Note_off_c, 1, 67, 0
1, 53460, Note_on_c, 1, 69, 127
1, 53511, Note_off_c, 1, 37, 0
1, 53513, Note_off_c, 1, 69, 0
1, 53520, Note_on_c, 1, 66, 127
1, 53520, Note_on_c, 1, 50, 127
1, 53520, Note_on_c, 1, 38, 127
1, 53522, Note_off_c, 1, 52, 0
1, 53627, Note_off_c, 1, 38, 0
1, 53635, Note_off_c, 1, 57, 0
1, 53640, Note_on_c, 1, 60, 127
1, 53640, Note_on_c, 1, 26, 127
1, 53692, Note_off_c, 1, 66, 0
1, 53755, Note_off_c, 1, 26, 0
1, 53759, Note_off_c, 1, 60, 0
1, 53760, Note_on_c, 1, 31, 127
1, 53889, Note_off_c, 1, 31, 0
1, 53896, Note_off_c, 1, 50, 0
1, 54000, Note_on_c, 1, 55, 127
1, 54049, Note_off_c, 1, 55, 0
1, 54120, Note_on_c, 1, 55, 127
1, 54165, Note_off_c, 1, 55, 0
1, 54240, Note_on_c, 1, 57, 127
1, 54240, Note_on_c, 1, 55, 127
1, 54351, Note_off_c, 1, 57, 0
1, 54360, Note_on_c, 1, 53, 127
1, 54363, Note_off_c, 1, 55, 0
1, 54408, Note_off_c, 1, 53, 0
1, 54420, Note_on_c, 1, 52, 127
1, 54471, Note_off_c, 1, 52, 0
1, 54480, Note_on_c, 1, 53, 127
1, 54581, Note_off_c, 1, 53, 0
1, 54600, Note_on_c, 1, 59, 127
1, 54600, Note_on_c, 1, 50, 127
1, 54699, Note_off_c, 1, 50, 0
1, 54720, Note_on_c, 1, 60, 127
1, 54720, Note_on_c, 1, 52, 127
1, 54728, Note_off_c, 1, 59, 0
1, 54771, Note_off_c, 1, 60, 0
1, 54788, Note_off_c, 1, 52, 0
1, 54840, Note_on_c, 1, 60, 127
1, 54877, Note_off_c, 1, 60, 0
1, 54960, Note_on_c, 1, 64, 127
1, 54960, Note_on_c, 1, 60, 127
1, 54960, Note_on_c, 1, 48, 127
1, 55007, Note_off_c, 1, 60, 0
1, 55019, Note_off_c, 1, 48, 0
1, 55043, Note_off_c, 1, 64, 0
1, 55080, Note_on_c, 1, 60, 127
1, 55120, Note_off_c, 1, 60, 0
1, 55200, Note_on_c, 1, 65, 127
1, 55200, Note_on_c, 1, 60, 127
1, 55200, Note_on_c, 1, 50, 127
1, 55264, Note_off_c, 1, 50, 0
1, 55278, Note_off_c, 1, 65, 0
1, 55309, Note_off_c, 1, 60, 0
1, 55320, Note_on_c, 1, 58, 127
1, 55354, Note_off_c, 1, 58, 0
1, 55380, Note_on_c, 1, 57, 127
1, 55412, Note_off_c, 1, 57, 0
1, 55440, Note_on_c, 1, 58, 127
1, 55540, Note_off_c, 1, 58, 0
1, 55560, Note_on_c, 1, 67, 127
1, 55560, Note_on_c, 1, 55, 127
1, 55560, Note_on_c, 1, 52, 127
1, 55608, Note_off_c, 1, 67, 0
1, 55608, Note_off_c, 1, 52, 0
1, 55674, Note_off_c, 1, 55, 0
1, 55680, Note_on_c, 1, 67, 127
1, 55680, Note_on_c, 1, 57, 127
1, 55680, Note_on_c, 1, 53, 127
1, 55725, Note_off_c, 1, 57, 0
1, 55795, Note_off_c, 1, 67, 0
1, 55800, Note_on_c, 1, 72, 127
1, 55800, Note_on_c, 1, 65, 127
1, 55848, Note_off_c, 1, 65, 0
1, 55859, Note_off_c, 1, 53, 0
1, 55860, Note_off_c, 1, 72, 0
1, 55860, Note_on_c, 1, 64, 127
1, 55860, Note_on_c, 1, 55, 127
1, 55901, Note_off_c, 1, 64, 0
1, 55902, Note_off_c, 1, 55, 0
1, 55920, Note_on_c, 1, 72, 127
1, 55920, Note_on_c, 1, 65, 127
1, 55920, Note_on_c, 1, 57, 127
1, 55920, Note_on_c, 1, 53, 127
1, 55920, Note_on_c, 1, 33, 127
1, 55976, Note_off_c, 1, 57, 0
1, 55979, Note_off_c, 1, 72, 0
1, 55981, Note_off_c, 1, 65, 0
1, 55990, Note_off_c, 1, 33, 0
1, 56009, Note_off_c, 1, 53, 0
1, 56040, Note_on_c, 1, 72, 127
1, 56040, Note_on_c, 1, 57, 127
1, 56083, Note_off_c, 1, 57, 0
1, 56085, Note_off_c, 1, 72, 0
1, 56160, Note_on_c, 1, 72, 127
1, 56160, Note_on_c, 1, 65, 127
1, 56160, Note_on_c, 1, 57, 127
1, 56160, Note_on_c, 1, 50, 127
1, 56160, Note_on_c, 1, 34, 127
1, 56242, Note_off_c, 1, 34, 0
1, 56253, Note_off_c, 1, 50, 0
1, 56263, Note_off_c, 1, 65, 0
1, 56279, Note_off_c, 1, 57, 0
1, 56280, Note_on_c, 1, 70, 127
1, 56280, Note_on_c, 1, 55, 127
1, 56289, Note_off_c, 1, 72, 0
1, 56319, Note_off_c, 1, 55, 0
1, 56327, Note_off_c, 1, 70, 0
1, 56340, Note_on_c, 1, 69, 127
1, 56340, Note_on_c, 1, 53, 127
1, 56374, Note_off_c, 1, 69, 0
1, 56385, Note_off_c, 1, 53, 0
1, 56400, Note_on_c, 1, 70, 127
1, 56400, Note_on_c, 1, 55, 127
1, 56496, Note_off_c, 1, 55, 0
1, 56505, Note_off_c, 1, 70, 0
1, 56520, Note_on_c, 1, 67, 127
1, 56520, Note_on_c, 1, 64, 127
1, 56520, Note_on_c, 1, 60, 127
1, 56520, Note_on_c, 1, 55, 127
1, 56520, Note_on_c, 1, 36, 127
1, 56575, Note_off_c, 1, 60, 0
1, 56580, Note_on_c, 1, 69, 127
1, 56584, Note_off_c, 1, 55, 0
1, 56587, Note_off_c, 1, 64, 0
1, 56590, Note_off_c, 1, 36, 0
1, 56602, Note_off_c, 1, 67, 0
1, 56610, Note_on_c, 1, 70, 127
1, 56612, Note_off_c, 1, 69, 0
1, 56640, Note_on_c, 1, 65, 127
1, 56640, Note_on_c, 1, 53, 127
1, 56640, Note_on_c, 1, 29, 127
1, 56649, Note_off_c, 1, 70, 0
1, 56698, Note_off_c, 1, 29, 0
1, 56700, Note_on_c, 1, 41, 127
1, 56711, Note_off_c, 1, 53, 0
1, 56728, Note_off_c, 1, 65, 0
1, 56751, Note_off_c, 1, 41, 0
1, 56760, Note_on_c, 1, 77, 127
1, 56760, Note_on_c, 1, 72, 127
1, 56795, Note_off_c, 1, 77, 0
1, 56816, Note_off_c, 1, 72, 0
1, 56880, Note_on_c, 1, 77, 127
1, 56880, Note_on_c, 1, 72, 127
1, 56880, Note_on_c, 1, 69, 127
1, 56880, Note_on_c, 1, 33, 127
1, 56923, Note_off_c, 1, 69, 0
1, 56940, Note_on_c, 1, 36, 127
1, 56941, Note_off_c, 1, 72, 0
1, 56942, Note_off_c, 1, 33, 0
1, 56946, Note_off_c, 1, 77, 0
1, 56991, Note_off_c, 1, 36, 0
1, 57000, Note_on_c, 1, 77, 127
1, 57000, Note_on_c, 1, 72, 127
1, 57000, Note_on_c, 1, 69, 127
1, 57000, Note_on_c, 1, 60, 127
1, 57000, Note_on_c, 1, 53, 127
1, 57000, Note_on_c, 1, 29, 127
1, 57038, Note_off_c, 1, 77, 0
1, 57038, Note_off_c, 1, 53, 0
1, 57040, Note_off_c, 1, 69, 0
1, 57060, Note_off_c, 1, 29, 0
1, 57060, Note_on_c, 1, 33, 127
1, 57103, Note_off_c, 1, 60, 0
1, 57104, Note_off_c, 1, 72, 0
1, 57109, Note_off_c, 1, 33, 0
1, 57120, Note_on_c, 1, 77, 127
1, 57120, Note_on_c, 1, 71, 127
1, 57120, Note_on_c, 1, 68, 127
1, 57120, Note_on_c, 1, 62, 127
1, 57120, Note_on_c, 1, 53, 127
1, 57120, Note_on_c, 1, 24, 127
1, 57229, Note_off_c, 1, 24, 0
1, 57236, Note_off_c, 1, 53, 0
1, 57238, Note_off_c, 1, 62, 0
1, 57240, Note_on_c, 1, 76, 127
1, 57240, Note_on_c, 1, 72, 127
1, 57240, Note_on_c, 1, 67, 127
1, 57240, Note_on_c, 1, 64, 127
1, 57240, Note_on_c, 1, 55, 127
1, 57246, Note_off_c, 1, 77, 0
1, 57247, Note_off_c, 1, 71, 0
1, 57250, Note_off_c, 1, 68, 0
1, 57277, Note_off_c, 1, 76, 0
1, 57284, Note_off_c, 1, 67, 0
1, 57300, Note_on_c, 1, 74, 127
1, 57300, Note_on_c, 1, 65, 127
1, 57321, Note_off_c, 1, 55, 0
1, 57326, Note_off_c, 1, 72, 0
1, 57331, Note_off_c, 1, 74, 0
1, 57346, Note_off_c, 1, 64, 0
1, 57347, Note_off_c, 1, 65, 0
1, 57360, Note_on_c, 1, 76, 127
1, 57360, Note_on_c, 1, 67, 127
1, 57437, Note_off_c, 1, 67, 0
1, 57480, Note_on_c, 1, 78, 127
1, 57480, Note_on_c, 1, 69, 127
1, 57503, Note_off_c, 1, 76, 0
1, 57517, Note_off_c, 1, 69, 0
1, 57600, Note_off_c, 1, 78, 0
1, 57600, Note_on_c, 1, 79, 127
1, 57600, Note_on_c, 1, 70, 127
1, 57600, Note_on_c, 1, 62, 127
1, 57600, Note_on_c, 1, 55, 127
1, 57655, Note_off_c, 1, 55, 0
1, 57660, Note_on_c, 1, 43, 127
1, 57666, Note_off_c, 1, 70, 0
1, 57686, Note_off_c, 1, 79, 0
1, 57708, Note_off_c, 1, 43, 0
1, 57717, Note_off_c, 1, 62, 0
1, 57720, Note_on_c, 1, 79, 127
1, 57720, Note_on_c, 1, 74, 127
1, 57720, Note_on_c, 1, 70, 127
1, 57720, Note_on_c, 1, 38, 127
1, 57760, Note_off_c, 1, 70, 0
1, 57768, Note_off_c, 1, 79, 0
1, 57773, Note_off_c, 1, 38, 0
1, 57780, Note_on_c, 1, 43, 127
1, 57782, Note_off_c, 1, 74, 0
1, 57836, Note_off_c, 1, 43, 0
1, 57840, Note_on_c, 1, 79, 127
1, 57840, Note_on_c, 1, 74, 127
1, 57840, Note_on_c, 1, 70, 127
1, 57840, Note_on_c, 1, 34, 127
1, 57881, Note_off_c, 1, 70, 0
1, 57888, Note_off_c, 1, 74, 0
1, 57890, Note_off_c, 1, 79, 0
1, 57895, Note_off_c, 1, 34, 0
1, 57900, Note_on_c, 1, 38, 127
1, 57960, Note_off_c, 1, 38, 0
1, 57960, Note_on_c, 1, 79, 127
1, 57960, Note_on_c, 1, 74, 127
1, 57960, Note_on_c, 1, 70, 127
1, 57960, Note_on_c, 1, 62, 127
1, 57960, Note_on_c, 1, 55, 127
1, 57960, Note_on_c, 1, 31, 127
1, 57966, Note_on_c, 1, 58, 127
1, 57993, Note_off_c, 1, 79, 0
1, 57996, Note_off_c, 1, 70, 0
1, 58004, Note_off_c, 1, 55, 0
1, 58020, Note_on_c, 1, 34, 127
1, 58022, Note_off_c, 1, 31, 0
1, 58063, Note_off_c, 1, 62, 0
1, 58072, Note_off_c, 1, 34, 0
1, 58073, Note_off_c, 1, 74, 0
1, 58075, Note_off_c, 1, 58, 0
1, 58080, Note_on_c, 1, 79, 127
1, 58080, Note_on_c, 1, 73, 127
1, 58080, Note_on_c, 1, 70, 127
1, 58080, Note_on_c, 1, 64, 127
1, 58080, Note_on_c, 1, 55, 127
1, 58080, Note_on_c, 1, 26, 127
1, 58195, Note_off_c, 1, 64, 0
1, 58200, Note_on_c, 1, 77, 127
1, 58200, Note_on_c, 1, 74, 127
1, 58200, Note_on_c, 1, 69, 127
1, 58200, Note_on_c, 1, 65, 127
1, 58200, Note_on_c, 1, 57, 127
1, 58202, Note_off_c, 1, 55, 0
1, 58209, Note_off_c, 1, 73, 0
1, 58214, Note_off_c, 1, 79, 0
1, 58221, Note_off_c, 1, 70, 0
1, 58240, Note_off_c, 1, 26, 0
1, 58246, Note_off_c, 1, 69, 0
1, 58249, Note_off_c, 1, 77, 0
1, 58260, Note_on_c, 1, 76, 127
1, 58260, Note_on_c, 1, 67, 127
1, 58268, Note_off_c, 1, 57, 0
1, 58294, Note_off_c, 1, 74, 0
1, 58297, Note_off_c, 1, 76, 0
1, 58312, Note_off_c, 1, 65, 0
1, 58315, Note_off_c, 1, 67, 0
1, 58320, Note_on_c, 1, 77, 127
1, 58320, Note_on_c, 1, 69, 127
1, 58320, Note_on_c, 1, 62, 127
1, 58361, Note_off_c, 1, 69, 0
1, 58380, Note_on_c, 1, 65, 127
1, 58407, Note_off_c, 1, 62, 0
1, 58430, Note_off_c, 1, 65, 0
1, 58433, Note_off_c, 1, 77, 0
1, 58440, Note_on_c, 1, 79, 127
1, 58440, Note_on_c, 1, 70, 127
1, 58485, Note_off_c, 1, 79, 0
1, 58500, Note_on_c, 1, 74, 127
1, 58545, Note_off_c, 1, 74, 0
1, 58547, Note_on_c, 1, 60, 127
1, 58560, Note_on_c, 1, 76, 127
1, 58620, Note_on_c, 1, 67, 127
1, 58632, Note_off_c, 1, 70, 0
1, 58660, Note_off_c, 1, 67, 0
1, 58672, Note_off_c, 1, 60, 0
1, 58680, Note_off_c, 1, 76, 0
1, 58680, Note_on_c, 1, 77, 127
1, 58680, Note_on_c, 1, 69, 127
1, 58724, Note_off_c, 1, 77, 0
1, 58740, Note_on_c, 1, 72, 127
1, 58783, Note_off_c, 1, 72, 0
1, 58789, Note_on_c, 1, 58, 127
1, 58853, Note_off_c, 1, 69, 0
1, 58860, Note_on_c, 1, 65, 127
1, 58904, Note_off_c, 1, 65, 0
1, 58906, Note_off_c, 1, 58, 0
1, 58920, Note_on_c, 1, 76, 127
1, 58920, Note_on_c, 1, 67, 127
1, 58968, Note_off_c, 1, 76, 0
1, 58980, Note_on_c, 1, 74, 127
1, 59014, Note_off_c, 1, 74, 0
1, 59035, Note_on_c, 1, 57, 127
1, 59040, Note_on_c, 1, 72, 127
1, 59094, Note_off_c, 1, 67, 0
1, 59100, Note_on_c, 1, 64, 127
1, 59142, Note_off_c, 1, 64, 0
1, 59153, Note_off_c, 1, 57, 0
1, 59160, Note_on_c, 1, 65, 127
1, 59168, Note_off_c, 1, 72, 0
1, 59220, Note_on_c, 1, 69, 127
1, 59269, Note_off_c, 1, 69, 0
1, 59273, Note_on_c, 1, 55, 127
1, 59280, Note_on_c, 1, 70, 127
1, 59335, Note_off_c, 1, 65, 0
1, 59379, Note_off_c, 1, 55, 0
1, 59400, Note_on_c, 1, 48, 127
1, 59460, Note_on_c, 1, 60, 127
1, 59479, Note_off_c, 1, 48, 0
1, 59520, Note_on_c, 1, 53, 127
1, 59574, Note_off_c, 1, 53, 0
1, 59630, Note_off_c, 1, 60, 0
1, 59640, Note_on_c, 1, 29, 127
1, 59654, Note_off_c, 1, 70, 0
1, 59737, Note_off_c, 1, 29, 0
1, 59760, Note_on_c, 1, 69, 127
1, 59760, Note_on_c, 1, 65, 127
1, 59760, Note_on_c, 1, 60, 127
1, 59760, Note_on_c, 1, 53, 127
1, 59760, Note_on_c, 1, 33, 127
1, 59811, Note_off_c, 1, 65, 0
1, 59813, Note_off_c, 1, 69, 0
1, 59820, Note_on_c, 1, 52, 127
1, 59824, Note_off_c, 1, 53, 0
1, 59829, Note_off_c, 1, 60, 0
1, 59875, Note_off_c, 1, 52, 0
1, 59880, Note_off_c, 1, 33, 0
1, 59880, Note_on_c, 1, 50, 127
1, 59880, Note_on_c, 1, 29, 127
1, 59932, Note_off_c, 1, 50, 0
1, 59940, Note_on_c, 1, 48, 127
1, 59992, Note_off_c, 1, 29, 0
1, 60000, Note_on_c, 1, 34, 127
1, 60008, Note_off_c, 1, 48, 0
1, 60120, Note_on_c, 1, 70, 127
1, 60120, Note_on_c, 1, 62, 127
1, 60178, Note_off_c, 1, 70, 0
1, 60183, Note_off_c, 1, 62, 0
1, 60240, Note_on_c, 1, 67, 127
1, 60240, Note_on_c, 1, 58, 127
1, 60300, Note_on_c, 1, 74, 127
1, 60304, Note_off_c, 1, 67, 0
1, 60328, Note_off_c, 1, 58, 0
1, 60356, Note_off_c, 1, 74, 0
1, 60360, Note_on_c, 1, 57, 127
1, 60418, Note_off_c, 1, 57, 0
1, 60480, Note_on_c, 1, 64, 127
1, 60480, Note_on_c, 1, 55, 127
1, 60585, Note_off_c, 1, 34, 0
1, 60590, Note_off_c, 1, 55, 0
1, 60592, Note_off_c, 1, 64, 0
1, 60600, Note_on_c, 1, 72, 127
1, 60600, Note_on_c, 1, 53, 127
1, 60600, Note_on_c, 1, 48, 127
1, 60600, Note_on_c, 1, 33, 127
1, 60659, Note_off_c, 1, 72, 0
1, 60660, Note_on_c, 1, 70, 127
1, 60693, Note_off_c, 1, 53, 0
1, 60693, Note_off_c, 1, 48, 0
1, 60708, Note_off_c, 1, 70, 0
1, 60710, Note_off_c, 1, 33, 0
1, 60720, Note_on_c, 1, 72, 127
1, 60720, Note_on_c, 1, 69, 127
1, 60720, Note_on_c, 1, 57, 127
1, 60720, Note_on_c, 1, 53, 127
1, 60720, Note_on_c, 1, 36, 127
1, 60762, Note_off_c, 1, 72, 0
1, 60766, Note_off_c, 1, 69, 0
1, 60780, Note_on_c, 1, 67, 127
1, 60826, Note_off_c, 1, 53, 0
1, 60829, Note_off_c, 1, 57, 0
1, 60835, Note_off_c, 1, 67, 0
1, 60840, Note_off_c, 1, 36, 0
1, 60840, Note_on_c, 1, 65, 127
1, 60840, Note_on_c, 1, 60, 127
1, 60840, Note_on_c, 1, 33, 127
1, 60900, Note_on_c, 1, 64, 127
1, 60905, Note_off_c, 1, 65, 0
1, 60934, Note_off_c, 1, 60, 0
1, 60950, Note_off_c, 1, 64, 0
1, 60954, Note_off_c, 1, 33, 0
1, 60960, Note_on_c, 1, 72, 127
1, 60960, Note_on_c, 1, 65, 127
1, 60960, Note_on_c, 1, 62, 127
1, 60960, Note_on_c, 1, 57, 127
1, 60960, Note_on_c, 1, 38, 127
1, 61054, Note_off_c, 1, 38, 0
1, 61075, Note_off_c, 1, 62, 0
1, 61079, Note_off_c, 1, 72, 0
1, 61079, Note_off_c, 1, 57, 0
1, 61080, Note_on_c, 1, 74, 127
1, 61080, Note_on_c, 1, 58, 127
1, 61080, Note_on_c, 1, 53, 127
1, 61080, Note_on_c, 1, 26, 127
1, 61118, Note_off_c, 1, 74, 0
1, 61144, Note_off_c, 1, 65, 0
1, 61182, Note_off_c, 1, 58, 0
1, 61188, Note_off_c, 1, 26, 0
1, 61200, Note_on_c, 1, 70, 127
1, 61200, Note_on_c, 1, 60, 127
1, 61200, Note_on_c, 1, 55, 127
1, 61200, Note_on_c, 1, 40, 127
1, 61204, Note_off_c, 1, 53, 0
1, 61247, Note_off_c, 1, 60, 0
1, 61260, Note_on_c, 1, 69, 127
1, 61264, Note_off_c, 1, 40, 0
1, 61269, Note_off_c, 1, 70, 0
1, 61310, Note_off_c, 1, 55, 0
1, 61320, Note_on_c, 1, 67, 127
1, 61320, Note_on_c, 1, 41, 127
1, 61324, Note_off_c, 1, 69, 0
1, 61372, Note_off_c, 1, 67, 0
1, 61384, Note_off_c, 1, 41, 0
1, 61440, Note_on_c, 1, 69, 127
1, 61440, Note_on_c, 1, 62, 127
1, 61440, Note_on_c, 1, 58, 127
1, 61440, Note_on_c, 1, 34, 127
1, 61500, Note_on_c, 1, 74, 127
1, 61502, Note_off_c, 1, 69, 0
1, 61556, Note_off_c, 1, 58, 0
1, 61556, Note_off_c, 1, 74, 0
1, 61560, Note_on_c, 1, 76, 127
1, 61560, Note_on_c, 1, 60, 127
1, 61560, Note_on_c, 1, 57, 127
1, 61565, Note_off_c, 1, 62, 0
1, 61603, Note_off_c, 1, 34, 0
1, 61604, Note_off_c, 1, 76, 0
1, 61620, Note_on_c, 1, 77, 127
1, 61652, Note_off_c, 1, 77, 0
1, 61671, Note_off_c, 1, 57, 0
1, 61680, Note_off_c, 1, 60, 0
1, 61680, Note_on_c, 1, 55, 127
1, 61790, Note_off_c, 1, 55, 0
1, 61800, Note_on_c, 1, 74, 127
1, 61800, Note_on_c, 1, 67, 127
1, 61800, Note_on_c, 1, 58, 127
1, 61847, Note_off_c, 1, 74, 0
1, 61860, Note_on_c, 1, 72, 127
1, 61884, Note_off_c, 1, 67, 0
1, 61909, Note_off_c, 1, 72, 0
1, 61920, Note_off_c, 1, 58, 0
1, 61920, Note_on_c, 1, 77, 127
1, 61920, Note_on_c, 1, 60, 127
1, 61920, Note_on_c, 1, 57, 127
1, 61996, Note_off_c, 1, 77, 0
1, 62022, Note_off_c, 1, 57, 0
1, 62030, Note_off_c, 1, 60, 0
1, 62040, Note_on_c, 1, 72, 127
1, 62040, Note_on_c, 1, 65, 127
1, 62040, Note_on_c, 1, 60, 127
1, 62040, Note_on_c, 1, 33, 127
1, 62042, Note_on_c, 1, 53, 127
1, 62081, Note_off_c, 1, 60, 0
1, 62094, Note_off_c, 1, 65, 0
1, 62104, Note_off_c, 1, 72, 0
1, 62149, Note_off_c, 1, 33, 0
1, 62158, Note_off_c, 1, 53, 0
1, 62160, Note_on_c, 1, 70, 127
1, 62160, Note_on_c, 1, 65, 127
1, 62160, Note_on_c, 1, 60, 127
1, 62160, Note_on_c, 1, 36, 127
1, 62166, Note_on_c, 1, 55, 127
1, 62208, Note_off_c, 1, 60, 0
1, 62219, Note_off_c, 1, 70, 0
1, 62220, Note_on_c, 1, 69, 127
1, 62277, Note_off_c, 1, 65, 0
1, 62280, Note_off_c, 1, 55, 0
1, 62280, Note_on_c, 1, 67, 127
1, 62280, Note_on_c, 1, 64, 127
1, 62280, Note_on_c, 1, 24, 127
1, 62282, Note_off_c, 1, 36, 0
1, 62283, Note_off_c, 1, 69, 0
1, 62284, Note_on_c, 1, 58, 127
1, 62334, Note_off_c, 1, 67, 0
1, 62392, Note_off_c, 1, 64, 0
1, 62400, Note_on_c, 1, 29, 127
1, 62405, Note_off_c, 1, 24, 0
1, 62407, Note_on_c, 1, 57, 127
1, 62413, Note_off_c, 1, 58, 0
1, 62515, Note_off_c, 1, 29, 0
1, 62538, Note_off_c, 1, 57, 0
1, 62640, Note_on_c, 1, 65, 127
1, 62700, Note_on_c, 1, 69, 127
1, 62700, Note_on_c, 1, 57, 127
1, 62754, Note_off_c, 1, 57, 0
1, 62757, Note_off_c, 1, 69, 0
1, 62760, Note_on_c, 1, 64, 127
1, 62760, Note_on_c, 1, 55, 127
1, 62763, Note_off_c, 1, 65, 0
1, 62806, Note_off_c, 1, 55, 0
1, 62879, Note_off_c, 1, 64, 0
1, 62880, Note_on_c, 1, 62, 127
1, 62880, Note_on_c, 1, 53, 127
1, 62990, Note_off_c, 1, 53, 0
1, 62996, Note_off_c, 1, 62, 0
1, 63000, Note_on_c, 1, 60, 127
1, 63000, Note_on_c, 1, 52, 127
1, 63060, Note_on_c, 1, 69, 127
1, 63109, Note_off_c, 1, 69, 0
1, 63117, Note_off_c, 1, 60, 0
1, 63120, Note_on_c, 1, 58, 127
1, 63120, Note_on_c, 1, 50, 127
1, 63121, Note_off_c, 1, 52, 0
1, 63238, Note_off_c, 1, 50, 0
1, 63240, Note_on_c, 1, 57, 127
1, 63240, Note_on_c, 1, 48, 127
1, 63247, Note_off_c, 1, 58, 0
1, 63349, Note_off_c, 1, 48, 0
1, 63360, Note_on_c, 1, 62, 127
1, 63360, Note_on_c, 1, 53, 127
1, 63360, Note_on_c, 1, 34, 127
1, 63362, Note_off_c, 1, 57, 0
1, 63463, Note_off_c, 1, 62, 0
1, 63474, Note_off_c, 1, 53, 0
1, 63480, Note_on_c, 1, 74, 127
1, 63489, Note_off_c, 1, 34, 0
1, 63540, Note_on_c, 1, 72, 127
1, 63552, Note_off_c, 1, 74, 0
1, 63592, Note_off_c, 1, 72, 0
1, 63600, Note_on_c, 1, 70, 127
1, 63605, Note_on_c, 1, 62, 127
1, 63660, Note_on_c, 1, 69, 127
1, 63660, Note_on_c, 1, 60, 127
1, 63664, Note_off_c, 1, 62, 0
1, 63676, Note_off_c, 1, 70, 0
1, 63720, Note_on_c, 1, 67, 127
1, 63720, Note_on_c, 1, 58, 127
1, 63721, Note_off_c, 1, 69, 0
1, 63723, Note_off_c, 1, 60, 0
1, 63772, Note_off_c, 1, 58, 0
1, 63780, Note_on_c, 1, 65, 127
1, 63780, Note_on_c, 1, 57, 127
1, 63783, Note_off_c, 1, 67, 0
1, 63824, Note_off_c, 1, 57, 0
1, 63834, Note_off_c, 1, 65, 0
1, 63840, Note_on_c, 1, 64, 127
1, 63840, Note_on_c, 1, 55, 127
1, 63900, Note_on_c, 1, 67, 127
1, 63949, Note_off_c, 1, 55, 0
1, 63959, Note_off_c, 1, 67, 0
1, 63960, Note_on_c, 1, 62, 127
1, 63960, Note_on_c, 1, 53, 127
1, 63961, Note_off_c, 1, 64, 0
1, 64066, Note_off_c, 1, 53, 0
1, 64080, Note_off_c, 1, 62, 0
1, 64080, Note_on_c, 1, 61, 127
1, 64080, Note_on_c, 1, 52, 127
1, 64180, Note_off_c, 1, 52, 0
1, 64199, Note_off_c, 1, 61, 0
1, 64200, Note_on_c, 1, 59, 127
1, 64200, Note_on_c, 1, 50, 127
1, 64260, Note_on_c, 1, 67, 127
1, 64302, Note_off_c, 1, 50, 0
1, 64315, Note_off_c, 1, 67, 0
1, 64320, Note_off_c, 1, 59, 0
1, 64320, Note_on_c, 1, 57, 127
1, 64320, Note_on_c, 1, 49, 127
1, 64320, Note_on_c, 1, 33, 127
1, 64430, Note_off_c, 1, 57, 0
1, 64437, Note_off_c, 1, 33, 0
1, 64440, Note_on_c, 1, 76, 127
1, 64448, Note_off_c, 1, 49, 0
1, 64488, Note_off_c, 1, 76, 0
1, 64500, Note_on_c, 1, 67, 127
1, 64543, Note_off_c, 1, 67, 0
1, 64560, Note_on_c, 1, 65, 127
1, 64620, Note_on_c, 1, 64, 127
1, 64635, Note_off_c, 1, 65, 0
1, 64680, Note_on_c, 1, 57, 127
1, 64680, Note_on_c, 1, 50, 127
1, 64681, Note_off_c, 1, 64, 0
1, 64734, Note_off_c, 1, 57, 0
1, 64740, Note_on_c, 1, 62, 127
1, 64745, Note_off_c, 1, 50, 0
1, 64797, Note_off_c, 1, 62, 0
1, 64800, Note_on_c, 1, 64, 127
1, 64800, Note_on_c, 1, 57, 127
1, 64800, Note_on_c, 1, 45, 127
1, 64860, Note_on_c, 1, 74, 127
1, 64871, Note_off_c, 1, 64, 0
1, 64905, Note_off_c, 1, 45, 0
1, 64920, Note_on_c, 1, 72, 127
1, 64923, Note_off_c, 1, 74, 0
1, 64932, Note_off_c, 1, 57, 0
1, 64980, Note_on_c, 1, 63, 127
1, 64984, Note_off_c, 1, 72, 0
1, 65028, Note_off_c, 1, 63, 0
1, 65040, Note_on_c, 1, 62, 127
1, 65100, Note_on_c, 1, 60, 127
1, 65107, Note_off_c, 1, 62, 0
1, 65151, Note_off_c, 1, 60, 0
1, 65160, Note_on_c, 1, 62, 127
1, 65160, Note_on_c, 1, 53, 127
1, 65160, Note_on_c, 1, 46, 127
1, 65210, Note_off_c, 1, 53, 0
1, 65220, Note_off_c, 1, 46, 0
1, 65220, Note_on_c, 1, 58, 127
1, 65221, Note_off_c, 1, 62, 0
1, 65267, Note_off_c, 1, 58, 0
1, 65280, Note_on_c, 1, 60, 127
1, 65280, Note_on_c, 1, 53, 127
1, 65280, Note_on_c, 1, 41, 127
1, 65340, Note_on_c, 1, 70, 127
1, 65351, Note_off_c, 1, 60, 0
1, 65381, Note_off_c, 1, 41, 0
1, 65400, Note_on_c, 1, 69, 127
1, 65402, Note_off_c, 1, 53, 0
1, 65403, Note_off_c, 1, 70, 0
1, 65459, Note_off_c, 1, 69, 0
1, 65460, Note_on_c, 1, 60, 127
1, 65514, Note_off_c, 1, 60, 0
1, 65520, Note_on_c, 1, 58, 127
1, 65580, Note_on_c, 1, 57, 127
1, 65582, Note_off_c, 1, 58, 0
1, 65640, Note_on_c, 1, 50, 127
1, 65640, Note_on_c, 1, 43, 127
1, 65648, Note_off_c, 1, 57, 0
1, 65691, Note_off_c, 1, 50, 0
1, 65700, Note_on_c, 1, 55, 127
1, 65702, Note_off_c, 1, 43, 0
1, 65756, Note_off_c, 1, 55, 0
1, 65760, Note_on_c, 1, 57, 127
1, 65760, Note_on_c, 1, 50, 127
1, 65760, Note_on_c, 1, 38, 127
1, 65820, Note_on_c, 1, 67, 127
1, 65824, Note_off_c, 1, 57, 0
1, 65840, Note_off_c, 1, 38, 0
1, 65857, Note_off_c, 1, 50, 0
1, 65880, Note_on_c, 1, 65, 127
1, 65896, Note_off_c, 1, 67, 0
1, 65947, Note_off_c, 1, 65, 0
1, 66000, Note_on_c, 1, 43, 127
1, 66005, Note_on_c, 1, 58, 127
1, 66060, Note_on_c, 1, 69, 127
1, 66064, Note_off_c, 1, 58, 0
1, 66076, Note_off_c, 1, 43, 0
1, 66120, Note_on_c, 1, 52, 127
1, 66121, Note_off_c, 1, 69, 0
1, 66180, Note_on_c, 1, 59, 127
1, 66228, Note_off_c, 1, 59, 0
1, 66240, Note_on_c, 1, 61, 127
1, 66240, Note_on_c, 1, 45, 127
1, 66278, Note_off_c, 1, 61, 0
1, 66347, Note_off_c, 1, 45, 0
1, 66357, Note_off_c, 1, 52, 0
1, 66360, Note_on_c, 1, 64, 127
1, 66360, Note_on_c, 1, 55, 127
1, 66390, Note_on_c, 1, 62, 127
1, 66405, Note_off_c, 1, 64, 0
1, 66420, Note_on_c, 1, 61, 127
1, 66436, Note_off_c, 1, 62, 0
1, 66458, Note_off_c, 1, 55, 0
1, 66466, Note_off_c, 1, 61, 0
1, 66480, Note_on_c, 1, 67, 127
1, 66480, Note_on_c, 1, 58, 127
1, 66510, Note_on_c, 1, 65, 127
1, 66523, Note_off_c, 1, 67, 0
1, 66537, Note_off_c, 1, 65, 0
1, 66540, Note_on_c, 1, 64, 127
1, 66572, Note_off_c, 1, 64, 0
1, 66595, Note_off_c, 1, 58, 0
1, 66600, Note_on_c, 1, 70, 127
1, 66600, Note_on_c, 1, 61, 127
1, 66630, Note_on_c, 1, 69, 127
1, 66634, Note_off_c, 1, 70, 0
1, 66660, Note_on_c, 1, 67, 127
1, 66667, Note_off_c, 1, 69, 0
1, 66706, Note_off_c, 1, 61, 0
1, 66709, Note_off_c, 1, 67, 0
1, 66720, Note_on_c, 1, 73, 127
1, 66720, Note_on_c, 1, 64, 127
1, 66780, Note_on_c, 1, 67, 127
1, 66783, Note_off_c, 1, 73, 0
1, 66819, Note_off_c, 1, 64, 0
1, 66821, Note_off_c, 1, 67, 0
1, 66840, Note_on_c, 1, 76, 127
1, 66840, Note_on_c, 1, 67, 127
1, 66893, Note_off_c, 1, 76, 0
1, 66900, Note_on_c, 1, 73, 127
1, 66941, Note_off_c, 1, 73, 0
1, 66951, Note_off_c, 1, 67, 0
1, 66960, Note_on_c, 1, 70, 127
1, 66960, Note_on_c, 1, 61, 127
1, 67017, Note_off_c, 1, 70, 0
1, 67020, Note_on_c, 1, 69, 127
1, 67067, Note_off_c, 1, 69, 0
1, 67075, Note_off_c, 1, 61, 0
1, 67080, Note_on_c, 1, 67, 127
1, 67080, Note_on_c, 1, 64, 127
1, 67132, Note_off_c, 1, 67, 0
1, 67140, Note_on_c, 1, 65, 127
1, 67179, Note_off_c, 1, 65, 0
1, 67191, Note_off_c, 1, 64, 0
1, 67200, Note_on_c, 1, 57, 127
1, 67200, Note_on_c, 1, 52, 127
1, 67200, Note_on_c, 1, 33, 127
1, 67260, Note_on_c, 1, 67, 127
1, 67278, Note_off_c, 1, 57, 0
1, 67278, Note_off_c, 1, 33, 0
1, 67288, Note_off_c, 1, 52, 0
1, 67315, Note_off_c, 1, 67, 0
1, 67320, Note_on_c, 1, 73, 127
1, 67320, Note_on_c, 1, 64, 127
1, 67368, Note_off_c, 1, 73, 0
1, 67379, Note_off_c, 1, 64, 0
1, 67380, Note_on_c, 1, 67, 127
1, 67420, Note_off_c, 1, 67, 0
1, 67440, Note_on_c, 1, 73, 127
1, 67440, Note_on_c, 1, 57, 127
1, 67498, Note_off_c, 1, 73, 0
1, 67500, Note_on_c, 1, 67, 127
1, 67508, Note_off_c, 1, 57, 0
1, 67543, Note_off_c, 1, 67, 0
1, 67560, Note_on_c, 1, 76, 127
1, 67560, Note_on_c, 1, 61, 127
1, 67604, Note_off_c, 1, 76, 0
1, 67617, Note_off_c, 1, 61, 0
1, 67620, Note_on_c, 1, 67, 127
1, 67671, Note_off_c, 1, 67, 0
1, 67680, Note_on_c, 1, 57, 127
1, 67680, Note_on_c, 1, 52, 127
1, 67680, Note_on_c, 1, 33, 127
1, 67740, Note_on_c, 1, 67, 127
1, 67747, Note_off_c, 1, 57, 0
1, 67762, Note_off_c, 1, 52, 0
1, 67767, Note_off_c, 1, 33, 0
1, 67790, Note_off_c, 1, 67, 0
1, 67800, Note_on_c, 1, 73, 127
1, 67800, Note_on_c, 1, 64, 127
1, 67843, Note_off_c, 1, 73, 0
1, 67860, Note_on_c, 1, 67, 127
1, 67861, Note_off_c, 1, 64, 0
1, 67901, Note_off_c, 1, 67, 0
1, 67920, Note_on_c, 1, 73, 127
1, 67920, Note_on_c, 1, 57, 127
1, 67978, Note_off_c, 1, 73, 0
1, 67979, Note_off_c, 1, 57, 0
1, 67980, Note_on_c, 1, 67, 127
1, 68021, Note_off_c, 1, 67, 0
1, 68040, Note_on_c, 1, 76, 127
1, 68040, Note_on_c, 1, 61, 127
1, 68086, Note_off_c, 1, 61, 0
1, 68087, Note_off_c, 1, 76, 0
1, 68100, Note_on_c, 1, 67, 127
1, 68136, Note_off_c, 1, 67, 0
1, 68160, Note_on_c, 1, 62, 127
1, 68160, Note_on_c, 1, 57, 127
1, 68160, Note_on_c, 1, 33, 127
1, 68220, Note_on_c, 1, 65, 127
1, 68233, Note_off_c, 1, 57, 0
1, 68236, Note_off_c, 1, 33, 0
1, 68256, Note_off_c, 1, 62, 0
1, 68273, Note_off_c, 1, 65, 0
1, 68280, Note_on_c, 1, 69, 127
1, 68280, Note_on_c, 1, 50, 127
1, 68327, Note_off_c, 1, 69, 0
1, 68340, Note_on_c, 1, 65, 127
1, 68351, Note_off_c, 1, 50, 0
1, 68381, Note_off_c, 1, 65, 0
1, 68400, Note_on_c, 1, 69, 127
1, 68400, Note_on_c, 1, 53, 127
1, 68450, Note_off_c, 1, 53, 0
1, 68459, Note_off_c, 1, 69, 0
1, 68460, Note_on_c, 1, 65, 127
1, 68502, Note_off_c, 1, 65, 0
1, 68520, Note_on_c, 1, 74, 127
1, 68520, Note_on_c, 1, 57, 127
1, 68554, Note_off_c, 1, 57, 0
1, 68566, Note_off_c, 1, 74, 0
1, 68580, Note_on_c, 1, 65, 127
1, 68621, Note_off_c, 1, 65, 0
1, 68640, Note_on_c, 1, 62, 127
1, 68640, Note_on_c, 1, 57, 127
1, 68640, Note_on_c, 1, 33, 127
1, 68700, Note_on_c, 1, 65, 127
1, 68707, Note_off_c, 1, 33, 0
1, 68712, Note_off_c, 1, 57, 0
1, 68731, Note_off_c, 1, 62, 0
1, 68752, Note_off_c, 1, 65, 0
1, 68760, Note_on_c, 1, 69, 127
1, 68760, Note_on_c, 1, 50, 127
1, 68802, Note_off_c, 1, 69, 0
1, 68819, Note_off_c, 1, 50, 0
1, 68820, Note_on_c, 1, 65, 127
1, 68859, Note_off_c, 1, 65, 0
1, 68880, Note_on_c, 1, 69, 127
1, 68880, Note_on_c, 1, 53, 127
1, 68934, Note_off_c, 1, 53, 0
1, 68940, Note_on_c, 1, 65, 127
1, 68941, Note_off_c, 1, 69, 0
1, 68987, Note_off_c, 1, 65, 0
1, 69000, Note_on_c, 1, 74, 127
1, 69000, Note_on_c, 1, 57, 127
1, 69039, Note_off_c, 1, 57, 0
1, 69051, Note_off_c, 1, 74, 0
1, 69060, Note_on_c, 1, 65, 127
1, 69097, Note_off_c, 1, 65, 0
1, 69120, Note_on_c, 1, 61, 127
1, 69120, Note_on_c, 1, 57, 127
1, 69120, Note_on_c, 1, 33, 127
1, 69180, Note_on_c, 1, 64, 127
1, 69187, Note_off_c, 1, 33, 0
1, 69205, Note_off_c, 1, 57, 0
1, 69206, Note_off_c, 1, 61, 0
1, 69228, Note_off_c, 1, 64, 0
1, 69240, Note_on_c, 1, 73, 127
1, 69240, Note_on_c, 1, 64, 127
1, 69288, Note_off_c, 1, 73, 0
1, 69296, Note_off_c, 1, 64, 0
1, 69300, Note_on_c, 1, 69, 127
1, 69340, Note_off_c, 1, 69, 0
1, 69360, Note_on_c, 1, 73, 127
1, 69360, Note_on_c, 1, 67, 127
1, 69414, Note_off_c, 1, 73, 0
1, 69417, Note_off_c, 1, 67, 0
1, 69420, Note_on_c, 1, 69, 127
1, 69468, Note_off_c, 1, 69, 0
1, 69480, Note_on_c, 1, 79, 127
1, 69480, Note_on_c, 1, 64, 127
1, 69525, Note_off_c, 1, 79, 0
1, 69526, Note_off_c, 1, 64, 0
1, 69540, Note_on_c, 1, 69, 127
1, 69581, Note_off_c, 1, 69, 0
1, 69600, Note_on_c, 1, 61, 127
1, 69600, Note_on_c, 1, 57, 127
1, 69600, Note_on_c, 1, 33, 127
1, 69660, Note_on_c, 1, 69, 127
1, 69664, Note_off_c, 1, 33, 0
1, 69672, Note_off_c, 1, 57, 0
1, 69687, Note_off_c, 1, 61, 0
1, 69718, Note_off_c, 1, 69, 0
1, 69720, Note_on_c, 1, 73, 127
1, 69720, Note_on_c, 1, 64, 127
1, 69765, Note_off_c, 1, 73, 0
1, 69780, Note_on_c, 1, 69, 127
1, 69800, Note_off_c, 1, 64, 0
1, 69824, Note_off_c, 1, 69, 0
1, 69840, Note_on_c, 1, 73, 127
1, 69840, Note_on_c, 1, 57, 127
1, 69897, Note_off_c, 1, 73, 0
1, 69900, Note_on_c, 1, 69, 127
1, 69913, Note_off_c, 1, 57, 0
1, 69947, Note_off_c, 1, 69, 0
1, 69960, Note_on_c, 1, 79, 127
1, 69960, Note_on_c, 1, 61, 127
1, 70013, Note_off_c, 1, 79, 0
1, 70016, Note_off_c, 1, 61, 0
1, 70020, Note_on_c, 1, 69, 127
1, 70062, Note_off_c, 1, 69, 0
1, 70080, Note_on_c, 1, 62, 127
1, 70080, Note_on_c, 1, 57, 127
1, 70080, Note_on_c, 1, 33, 127
1, 70140, Note_on_c, 1, 69, 127
1, 70148, Note_off_c, 1, 33, 0
1, 70159, Note_off_c, 1, 62, 0
1, 70164, Note_off_c, 1, 57, 0
1, 70192, Note_off_c, 1, 69, 0
1, 70200, Note_on_c, 1, 74, 127
1, 70200, Note_on_c, 1, 65, 127
1, 70242, Note_off_c, 1, 74, 0
1, 70260, Note_on_c, 1, 69, 127
1, 70270, Note_off_c, 1, 65, 0
1, 70301, Note_off_c, 1, 69, 0
1, 70320, Note_on_c, 1, 74, 127
1, 70320, Note_on_c, 1, 62, 127
1, 70378, Note_off_c, 1, 62, 0
1, 70379, Note_off_c, 1, 74, 0
1, 70380, Note_on_c, 1, 69, 127
1, 70427, Note_off_c, 1, 69, 0
1, 70440, Note_on_c, 1, 77, 127
1, 70440, Note_on_c, 1, 57, 127
1, 70486, Note_off_c, 1, 77, 0
1, 70489, Note_off_c, 1, 57, 0
1, 70500, Note_on_c, 1, 69, 127
1, 70541, Note_off_c, 1, 69, 0
1, 70560, Note_on_c, 1, 62, 127
1, 70560, Note_on_c, 1, 57, 127
1, 70560, Note_on_c, 1, 33, 127
1, 70620, Note_on_c, 1, 69, 127
1, 70622, Note_off_c, 1, 33, 0
1, 70634, Note_off_c, 1, 62, 0
1, 70646, Note_off_c, 1, 57, 0
1, 70668, Note_off_c, 1, 69, 0
1, 70680, Note_on_c, 1, 74, 127
1, 70680, Note_on_c, 1, 65, 127
1, 70727, Note_off_c, 1, 74, 0
1, 70740, Note_on_c, 1, 69, 127
1, 70745, Note_off_c, 1, 65, 0
1, 70782, Note_off_c, 1, 69, 0
1, 70800, Note_on_c, 1, 74, 127
1, 70800, Note_on_c, 1, 62, 127
1, 70855, Note_off_c, 1, 62, 0
1, 70857, Note_off_c, 1, 74, 0
1, 70860, Note_on_c, 1, 69, 127
1, 70908, Note_off_c, 1, 69, 0
1, 70920, Note_on_c, 1, 77, 127
1, 70920, Note_on_c, 1, 57, 127
1, 70963, Note_off_c, 1, 57, 0
1, 70980, Note_on_c, 1, 69, 127
1, 70982, Note_off_c, 1, 77, 0
1, 71015, Note_off_c, 1, 69, 0
1, 71040, Note_on_c, 1, 59, 127
1, 71040, Note_on_c, 1, 53, 127
1, 71040, Note_on_c, 1, 33, 127
1, 71095, Note_off_c, 1, 33, 0
1, 71100, Note_on_c, 1, 68, 127
1, 71118, Note_off_c, 1, 59, 0
1, 71120, Note_off_c, 1, 53, 0
1, 71158, Note_off_c, 1, 68, 0
1, 71160, Note_on_c, 1, 71, 127
1, 71160, Note_on_c, 1, 62, 127
1, 71207, Note_off_c, 1, 71, 0
1, 71220, Note_off_c, 1, 62, 0
1, 71220, Note_on_c, 1, 68, 127
1, 71272, Note_off_c, 1, 68, 0
1, 71280, Note_on_c, 1, 71, 127
1, 71280, Note_on_c, 1, 65, 127
1, 71332, Note_off_c, 1, 65, 0
1, 71340, Note_on_c, 1, 68, 127
1, 71350, Note_off_c, 1, 71, 0
1, 71399, Note_off_c, 1, 68, 0
1, 71400, Note_on_c, 1, 77, 127
1, 71400, Note_on_c, 1, 62, 127
1, 71448, Note_off_c, 1, 77, 0
1, 71452, Note_off_c, 1, 62, 0
1, 71460, Note_on_c, 1, 68, 127
1, 71504, Note_off_c, 1, 68, 0
1, 71520, Note_on_c, 1, 59, 127
1, 71520, Note_on_c, 1, 53, 127
1, 71520, Note_on_c, 1, 33, 127
1, 71580, Note_on_c, 1, 68, 127
1, 71588, Note_off_c, 1, 53, 0
1, 71590, Note_off_c, 1, 33, 0
1, 71605, Note_off_c, 1, 59, 0
1, 71640, Note_on_c, 1, 71, 127
1, 71640, Note_on_c, 1, 62, 127
1, 71642, Note_off_c, 1, 68, 0
1, 71684, Note_off_c, 1, 71, 0
1, 71698, Note_off_c, 1, 62, 0
1, 71700, Note_on_c, 1, 68, 127
1, 71754, Note_off_c, 1, 68, 0
1, 71760, Note_on_c, 1, 71, 127
1, 71760, Note_on_c, 1, 65, 127
1, 71820, Note_on_c, 1, 68, 127
1, 71829, Note_off_c, 1, 71, 0
1, 71834, Note_off_c, 1, 65, 0
1, 71875, Note_off_c, 1, 68, 0
1, 71880, Note_on_c, 1, 77, 127
1, 71885, Note_on_c, 1, 56, 127
1, 71940, Note_on_c, 1, 74, 127
1, 71942, Note_off_c, 1, 77, 0
1, 71964, Note_off_c, 1, 56, 0
1, 71970, Note_off_c, 1, 74, 0
1, 72000, Note_on_c, 1, 74, 127
1, 72000, Note_on_c, 1, 57, 127
1, 72000, Note_on_c, 1, 52, 127
1, 72000, Note_on_c, 1, 33, 127
1, 72060, Note_on_c, 1, 73, 127
1, 72066, Note_off_c, 1, 74, 0
1, 72072, Note_off_c, 1, 52, 0
1, 72079, Note_off_c, 1, 33, 0
1, 72087, Note_off_c, 1, 57, 0
1, 72115, Note_off_c, 1, 73, 0
1, 72120, Note_on_c, 1, 71, 127
1, 72165, Note_off_c, 1, 71, 0
1, 72180, Note_on_c, 1, 69, 127
1, 72221, Note_off_c, 1, 69, 0
1, 72240, Note_on_c, 1, 81, 127
1, 72295, Note_off_c, 1, 81, 0
1, 72360, Note_on_c, 1, 81, 127
1, 72360, Note_on_c, 1, 62, 127
1, 72360, Note_on_c, 1, 57, 127
1, 72360, Note_on_c, 1, 41, 127
1, 72402, Note_off_c, 1, 81, 0
1, 72411, Note_off_c, 1, 62, 0
1, 72419, Note_off_c, 1, 57, 0
1, 72426, Note_off_c, 1, 41, 0
1, 72480, Note_on_c, 1, 81, 127
1, 72480, Note_on_c, 1, 62, 127
1, 72480, Note_on_c, 1, 58, 127
1, 72480, Note_on_c, 1, 34, 127
1, 72564, Note_off_c, 1, 34, 0
1, 72570, Note_off_c, 1, 62, 0
1, 72585, Note_off_c, 1, 58, 0
1, 72600, Note_on_c, 1, 79, 127
1, 72600, Note_on_c, 1, 74, 127
1, 72614, Note_off_c, 1, 81, 0
1, 72645, Note_off_c, 1, 74, 0
1, 72656, Note_off_c, 1, 79, 0
1, 72660, Note_on_c, 1, 77, 127
1, 72698, Note_off_c, 1, 77, 0
1, 72720, Note_on_c, 1, 79, 127
1, 72720, Note_on_c, 1, 74, 127
1, 72769, Note_off_c, 1, 79, 0
1, 72840, Note_off_c, 1, 74, 0
1, 72840, Note_on_c, 1, 73, 127
1, 72840, Note_on_c, 1, 64, 127
1, 72840, Note_on_c, 1, 55, 127
1, 72840, Note_on_c, 1, 40, 127
1, 72881, Note_off_c, 1, 64, 0
1, 72882, Note_off_c, 1, 73, 0
1, 72895, Note_off_c, 1, 55, 0
1, 72900, Note_on_c, 1, 71, 127
1, 72903, Note_off_c, 1, 40, 0
1, 72947, Note_off_c, 1, 71, 0
1, 72960, Note_on_c, 1, 79, 127
1, 72960, Note_on_c, 1, 73, 127
1, 72960, Note_on_c, 1, 64, 127
1, 72960, Note_on_c, 1, 57, 127
1, 72960, Note_on_c, 1, 33, 127
1, 73017, Note_off_c, 1, 73, 0
1, 73030, Note_off_c, 1, 57, 0
1, 73041, Note_off_c, 1, 33, 0
1, 73045, Note_off_c, 1, 64, 0
1, 73080, Note_on_c, 1, 77, 127
1, 73080, Note_on_c, 1, 69, 127
1, 73086, Note_off_c, 1, 79, 0
1, 73122, Note_off_c, 1, 77, 0
1, 73140, Note_on_c, 1, 76, 127
1, 73149, Note_off_c, 1, 69, 0
1, 73177, Note_off_c, 1, 76, 0
1, 73200, Note_on_c, 1, 77, 127
1, 73200, Note_on_c, 1, 74, 127
1, 73200, Note_on_c, 1, 69, 127
1, 73254, Note_off_c, 1, 77, 0
1, 73263, Note_off_c, 1, 74, 0
1, 73319, Note_off_c, 1, 69, 0
1, 73320, Note_on_c, 1, 77, 127
1, 73320, Note_on_c, 1, 74, 127
1, 73320, Note_on_c, 1, 67, 127
1, 73320, Note_on_c, 1, 57, 127
1, 73320, Note_on_c, 1, 38, 127
1, 73354, Note_off_c, 1, 67, 0
1, 73358, Note_off_c, 1, 74, 0
1, 73362, Note_off_c, 1, 77, 0
1, 73376, Note_off_c, 1, 57, 0
1, 73378, Note_off_c, 1, 38, 0
1, 73380, Note_on_c, 1, 65, 127
1, 73417, Note_off_c, 1, 65, 0
1, 73440, Note_on_c, 1, 77, 127
1, 73440, Note_on_c, 1, 74, 127
1, 73440, Note_on_c, 1, 67, 127
1, 73440, Note_on_c, 1, 62, 127
1, 73440, Note_on_c, 1, 34, 127
1, 73500, Note_on_c, 1, 79, 127
1, 73507, Note_off_c, 1, 77, 0
1, 73515, Note_off_c, 1, 34, 0
1, 73544, Note_off_c, 1, 62, 0
1, 73557, Note_off_c, 1, 67, 0
1, 73557, Note_off_c, 1, 79, 0
1, 73565, Note_off_c, 1, 74, 0
1, 73620, Note_on_c, 1, 76, 127
1, 73648, Note_off_c, 1, 76, 0
1, 73680, Note_on_c, 1, 76, 127
1, 73680, Note_on_c, 1, 68, 127
1, 73680, Note_on_c, 1, 62, 127
1, 73680, Note_on_c, 1, 59, 127
1, 73680, Note_on_c, 1, 35, 127
1, 73737, Note_off_c, 1, 76, 0
1, 73740, Note_on_c, 1, 77, 127
1, 73751, Note_off_c, 1, 35, 0
1, 73762, Note_off_c, 1, 62, 0
1, 73769, Note_off_c, 1, 59, 0
1, 73773, Note_off_c, 1, 68, 0
1, 73805, Note_off_c, 1, 77, 0
1, 73860, Note_on_c, 1, 74, 127
1, 73903, Note_off_c, 1, 74, 0
1, 73920, Note_on_c, 1, 73, 127
1, 73920, Note_on_c, 1, 67, 127
1, 73920, Note_on_c, 1, 64, 127
1, 73920, Note_on_c, 1, 52, 127
1, 73920, Note_on_c, 1, 33, 127
1, 73978, Note_off_c, 1, 73, 0
1, 73980, Note_on_c, 1, 76, 127
1, 73990, Note_off_c, 1, 33, 0
1, 74005, Note_off_c, 1, 64, 0
1, 74011, Note_off_c, 1, 52, 0
1, 74016, Note_off_c, 1, 76, 0
1, 74039, Note_off_c, 1, 67, 0
1, 74040, Note_on_c, 1, 74, 127
1, 74040, Note_on_c, 1, 65, 127
1, 74078, Note_off_c, 1, 65, 0
1, 74100, Note_on_c, 1, 64, 127
1, 74137, Note_off_c, 1, 64, 0
1, 74220, Note_on_c, 1, 72, 127
1, 74227, Note_off_c, 1, 74, 0
1, 74270, Note_off_c, 1, 72, 0
1, 74280, Note_on_c, 1, 71, 127
1, 74280, Note_on_c, 1, 65, 127
1, 74280, Note_on_c, 1, 62, 127
1, 74280, Note_on_c, 1, 53, 127
1, 74280, Note_on_c, 1, 26, 127
1, 74320, Note_off_c, 1, 65, 0
1, 74328, Note_off_c, 1, 71, 0
1, 74331, Note_off_c, 1, 62, 0
1, 74334, Note_off_c, 1, 26, 0
1, 74338, Note_off_c, 1, 53, 0
1, 74340, Note_on_c, 1, 69, 127
1, 74392, Note_off_c, 1, 69, 0
1, 74400, Note_on_c, 1, 71, 127
1, 74400, Note_on_c, 1, 65, 127
1, 74400, Note_on_c, 1, 62, 127
1, 74400, Note_on_c, 1, 55, 127
1, 74400, Note_on_c, 1, 31, 127
1, 74448, Note_off_c, 1, 71, 0
1, 74460, Note_on_c, 1, 79, 127
1, 74472, Note_off_c, 1, 31, 0
1, 74485, Note_off_c, 1, 55, 0
1, 74497, Note_off_c, 1, 62, 0
1, 74510, Note_off_c, 1, 79, 0
1, 74518, Note_off_c, 1, 65, 0
1, 74520, Note_on_c, 1, 72, 127
1, 74520, Note_on_c, 1, 64, 127
1, 74565, Note_off_c, 1, 64, 0
1, 74580, Note_on_c, 1, 62, 127
1, 74628, Note_off_c, 1, 62, 0
1, 74700, Note_on_c, 1, 70, 127
1, 74706, Note_off_c, 1, 72, 0
1, 74755, Note_off_c, 1, 70, 0
1, 74760, Note_on_c, 1, 69, 127
1, 74760, Note_on_c, 1, 64, 127
1, 74760, Note_on_c, 1, 60, 127
1, 74760, Note_on_c, 1, 55, 127
1, 74760, Note_on_c, 1, 24, 127
1, 74807, Note_off_c, 1, 55, 0
1, 74809, Note_off_c, 1, 69, 0
1, 74812, Note_off_c, 1, 60, 0
1, 74818, Note_off_c, 1, 64, 0
1, 74819, Note_off_c, 1, 24, 0
1, 74820, Note_on_c, 1, 67, 127
1, 74853, Note_off_c, 1, 67, 0
1, 74880, Note_on_c, 1, 69, 127
1, 74880, Note_on_c, 1, 63, 127
1, 74880, Note_on_c, 1, 60, 127
1, 74880, Note_on_c, 1, 53, 127
1, 74880, Note_on_c, 1, 29, 127
1, 74937, Note_off_c, 1, 69, 0
1, 74940, Note_on_c, 1, 65, 127
1, 74952, Note_off_c, 1, 29, 0
1, 74963, Note_off_c, 1, 53, 0
1, 74965, Note_off_c, 1, 60, 0
1, 74985, Note_off_c, 1, 65, 0
1, 74994, Note_off_c, 1, 63, 0
1, 75000, Note_on_c, 1, 70, 127
1, 75000, Note_on_c, 1, 62, 127
1, 75046, Note_off_c, 1, 62, 0
1, 75048, Note_off_c, 1, 70, 0
1, 75060, Note_on_c, 1, 69, 127
1, 75060, Note_on_c, 1, 60, 127
1, 75103, Note_off_c, 1, 60, 0
1, 75105, Note_off_c, 1, 69, 0
1, 75120, Note_on_c, 1, 70, 127
1, 75120, Note_on_c, 1, 62, 127
1, 75176, Note_off_c, 1, 62, 0
1, 75180, Note_on_c, 1, 74, 127
1, 75196, Note_off_c, 1, 70, 0
1, 75239, Note_off_c, 1, 74, 0
1, 75240, Note_on_c, 1, 77, 127
1, 75240, Note_on_c, 1, 62, 127
1, 75240, Note_on_c, 1, 58, 127
1, 75240, Note_on_c, 1, 53, 127
1, 75240, Note_on_c, 1, 34, 127
1, 75283, Note_off_c, 1, 62, 0
1, 75285, Note_off_c, 1, 77, 0
1, 75290, Note_off_c, 1, 53, 0
1, 75299, Note_off_c, 1, 58, 0
1, 75300, Note_on_c, 1, 69, 127
1, 75304, Note_off_c, 1, 34, 0
1, 75343, Note_off_c, 1, 69, 0
1, 75360, Note_on_c, 1, 68, 127
1, 75360, Note_on_c, 1, 62, 127
1, 75360, Note_on_c, 1, 59, 127
1, 75360, Note_on_c, 1, 52, 127
1, 75360, Note_on_c, 1, 28, 127
1, 75420, Note_on_c, 1, 71, 127
1, 75430, Note_off_c, 1, 28, 0
1, 75439, Note_off_c, 1, 52, 0
1, 75443, Note_off_c, 1, 68, 0
1, 75452, Note_off_c, 1, 59, 0
1, 75465, Note_off_c, 1, 71, 0
1, 75480, Note_on_c, 1, 76, 127
1, 75480, Note_on_c, 1, 60, 127
1, 75488, Note_off_c, 1, 62, 0
1, 75516, Note_off_c, 1, 60, 0
1, 75528, Note_off_c, 1, 76, 0
1, 75540, Note_on_c, 1, 68, 127
1, 75540, Note_on_c, 1, 59, 127
1, 75572, Note_off_c, 1, 59, 0
1, 75591, Note_off_c, 1, 68, 0
1, 75600, Note_on_c, 1, 69, 127
1, 75600, Note_on_c, 1, 60, 127
1, 75652, Note_off_c, 1, 60, 0
1, 75660, Note_on_c, 1, 72, 127
1, 75666, Note_off_c, 1, 69, 0
1, 75709, Note_off_c, 1, 72, 0
1, 75720, Note_on_c, 1, 76, 127
1, 75720, Note_on_c, 1, 60, 127
1, 75720, Note_on_c, 1, 57, 127
1, 75720, Note_on_c, 1, 52, 127
1, 75720, Note_on_c, 1, 33, 127
1, 75766, Note_off_c, 1, 76, 0
1, 75771, Note_off_c, 1, 52, 0
1, 75772, Note_off_c, 1, 57, 0
1, 75774, Note_off_c, 1, 60, 0
1, 75774, Note_off_c, 1, 33, 0
1, 75780, Note_on_c, 1, 67, 127
1, 75823, Note_off_c, 1, 67, 0
1, 75840, Note_on_c, 1, 66, 127
1, 75840, Note_on_c, 1, 60, 127
1, 75840, Note_on_c, 1, 57, 127
1, 75840, Note_on_c, 1, 50, 127
1, 75840, Note_on_c, 1, 26, 127
1, 75893, Note_off_c, 1, 66, 0
1, 75900, Note_off_c, 1, 26, 0
1, 75900, Note_on_c, 1, 75, 127
1, 75915, Note_off_c, 1, 50, 0
1, 75922, Note_off_c, 1, 57, 0
1, 75946, Note_off_c, 1, 60, 0
1, 75953, Note_off_c, 1, 75, 0
1, 75960, Note_on_c, 1, 74, 127
1, 76003, Note_off_c, 1, 74, 0
1, 76020, Note_on_c, 1, 72, 127
1, 76064, Note_off_c, 1, 72, 0
1, 76080, Note_on_c, 1, 74, 127
1, 76140, Note_on_c, 1, 69, 127
1, 76141, Note_off_c, 1, 74, 0
1, 76178, Note_off_c, 1, 69, 0
1, 76200, Note_on_c, 1, 70, 127
1, 76244, Note_off_c, 1, 70, 0
1, 76260, Note_on_c, 1, 66, 127
1, 76312, Note_off_c, 1, 66, 0
1, 76320, Note_on_c, 1, 67, 127
1, 76320, Note_on_c, 1, 58, 127
1, 76320, Note_on_c, 1, 55, 127
1, 76320, Note_on_c, 1, 50, 127
1, 76320, Note_on_c, 1, 26, 127
1, 76374, Note_off_c, 1, 67, 0
1, 76380, Note_on_c, 1, 75, 127
1, 76396, Note_off_c, 1, 26, 0
1, 76399, Note_off_c, 1, 50, 0
1, 76408, Note_off_c, 1, 55, 0
1, 76409, Note_off_c, 1, 58, 0
1, 76426, Note_off_c, 1, 75, 0
1, 76440, Note_on_c, 1, 74, 127
1, 76485, Note_off_c, 1, 74, 0
1, 76500, Note_on_c, 1, 72, 127
1, 76548, Note_off_c, 1, 72, 0
1, 76560, Note_on_c, 1, 74, 127
1, 76620, Note_off_c, 1, 74, 0
1, 76620, Note_on_c, 1, 69, 127
1, 76663, Note_off_c, 1, 69, 0
1, 76680, Note_on_c, 1, 70, 127
1, 76737, Note_off_c, 1, 70, 0
1, 76740, Note_on_c, 1, 67, 127
1, 76800, Note_on_c, 1, 61, 127
1, 76800, Note_on_c, 1, 55, 127
1, 76800, Note_on_c, 1, 52, 127
1, 76800, Note_on_c, 1, 46, 127
1, 76800, Note_on_c, 1, 28, 127
1, 76801, Note_off_c, 1, 67, 0
1, 76860, Note_on_c, 1, 64, 127
1, 76864, Note_off_c, 1, 61, 0
1, 76870, Note_off_c, 1, 28, 0
1, 76882, Note_off_c, 1, 52, 0
1, 76890, Note_off_c, 1, 46, 0
1, 76908, Note_off_c, 1, 55, 0
1, 76929, Note_off_c, 1, 64, 0
1, 76980, Note_on_c, 1, 70, 127
1, 77014, Note_off_c, 1, 70, 0
1, 77040, Note_on_c, 1, 69, 127
1, 77100, Note_on_c, 1, 67, 127
1, 77101, Note_off_c, 1, 69, 0
1, 77142, Note_off_c, 1, 67, 0
1, 77160, Note_on_c, 1, 76, 127
1, 77204, Note_off_c, 1, 76, 0
1, 77220, Note_on_c, 1, 67, 127
1, 77259, Note_off_c, 1, 67, 0
1, 77280, Note_on_c, 1, 69, 127
1, 77340, Note_on_c, 1, 70, 127
1, 77349, Note_off_c, 1, 69, 0
1, 77385, Note_off_c, 1, 70, 0
1, 77400, Note_on_c, 1, 64, 127
1, 77455, Note_off_c, 1, 64, 0
1, 77460, Note_on_c, 1, 65, 127
1, 77499, Note_off_c, 1, 65, 0
1, 77520, Note_on_c, 1, 67, 127
1, 77552, Note_off_c, 1, 67, 0
1, 77580, Note_on_c, 1, 61, 127
1, 77640, Note_off_c, 1, 61, 0
1, 77640, Note_on_c, 1, 62, 127
1, 77697, Note_off_c, 1, 62, 0
1, 77700, Note_on_c, 1, 64, 127
1, 77739, Note_off_c, 1, 64, 0
1, 77760, Note_on_c, 1, 57, 127
1, 77760, Note_on_c, 1, 50, 127
1, 77760, Note_on_c, 1, 45, 127
1, 77760, Note_on_c, 1, 29, 127
1, 77830, Note_off_c, 1, 45, 0
1, 77830, Note_off_c, 1, 29, 0
1, 77841, Note_off_c, 1, 50, 0
1, 77876, Note_off_c, 1, 57, 0
1, 77880, Note_on_c, 1, 69, 127
1, 77920, Note_off_c, 1, 69, 0
1, 78000, Note_on_c, 1, 69, 127
1, 78000, Note_on_c, 1, 60, 127
1, 78000, Note_on_c, 1, 57, 127
1, 78000, Note_on_c, 1, 50, 127
1, 78000, Note_on_c, 1, 30, 127
1, 78059, Note_off_c, 1, 69, 0
1, 78069, Note_off_c, 1, 57, 0
1, 78071, Note_off_c, 1, 50, 0
1, 78081, Note_off_c, 1, 30, 0
1, 78093, Note_off_c, 1, 60, 0
1, 78120, Note_on_c, 1, 69, 127
1, 78164, Note_off_c, 1, 69, 0
1, 78240, Note_on_c, 1, 69, 127
1, 78240, Note_on_c, 1, 58, 127
1, 78240, Note_on_c, 1, 50, 127
1, 78240, Note_on_c, 1, 31, 127
1, 78296, Note_off_c, 1, 50, 0
1, 78301, Note_off_c, 1, 58, 0
1, 78319, Note_off_c, 1, 31, 0
1, 78360, Note_on_c, 1, 67, 127
1, 78365, Note_off_c, 1, 69, 0
1, 78400, Note_off_c, 1, 67, 0
1, 78420, Note_on_c, 1, 66, 127
1, 78420, Note_on_c, 1, 57, 127
1, 78458, Note_off_c, 1, 57, 0
1, 78472, Note_off_c, 1, 66, 0
1, 78480, Note_on_c, 1, 67, 127
1, 78480, Note_on_c, 1, 58, 127
1, 78480, Note_on_c, 1, 55, 127
1, 78480, Note_on_c, 1, 40, 127
1, 78550, Note_off_c, 1, 40, 0
1, 78567, Note_off_c, 1, 55, 0
1, 78579, Note_off_c, 1, 67, 0
1, 78579, Note_off_c, 1, 58, 0
1, 78600, Note_on_c, 1, 76, 127
1, 78660, Note_on_c, 1, 73, 127
1, 78661, Note_off_c, 1, 76, 0
1, 78706, Note_off_c, 1, 73, 0
1, 78720, Note_on_c, 1, 67, 127
1, 78720, Note_on_c, 1, 57, 127
1, 78720, Note_on_c, 1, 52, 127
1, 78720, Note_on_c, 1, 37, 127
1, 78770, Note_off_c, 1, 67, 0
1, 78782, Note_off_c, 1, 52, 0
1, 78786, Note_off_c, 1, 37, 0
1, 78803, Note_off_c, 1, 57, 0
1, 78840, Note_on_c, 1, 67, 127
1, 78840, Note_on_c, 1, 64, 127
1, 78872, Note_off_c, 1, 67, 0
1, 78887, Note_off_c, 1, 64, 0
1, 78900, Note_on_c, 1, 65, 127
1, 78900, Note_on_c, 1, 62, 127
1, 78934, Note_off_c, 1, 62, 0
1, 78945, Note_off_c, 1, 65, 0
1, 78960, Note_on_c, 1, 67, 127
1, 78960, Note_on_c, 1, 64, 127
1, 78960, Note_on_c, 1, 61, 127
1, 78960, Note_on_c, 1, 52, 127
1, 78960, Note_on_c, 1, 33, 127
1, 79022, Note_off_c, 1, 52, 0
1, 79025, Note_off_c, 1, 33, 0
1, 79041, Note_off_c, 1, 64, 0
1, 79045, Note_off_c, 1, 61, 0
1, 79051, Note_off_c, 1, 67, 0
1, 79080, Note_on_c, 1, 76, 127
1, 79136, Note_off_c, 1, 76, 0
1, 79140, Note_on_c, 1, 73, 127
1, 79178, Note_off_c, 1, 73, 0
1, 79200, Note_on_c, 1, 65, 127
1, 79200, Note_on_c, 1, 64, 127
1, 79200, Note_on_c, 1, 57, 127
1, 79200, Note_on_c, 1, 53, 127
1, 79200, Note_on_c, 1, 38, 127
1, 79251, Note_off_c, 1, 65, 0
1, 79271, Note_off_c, 1, 38, 0
1, 79277, Note_off_c, 1, 53, 0
1, 79280, Note_off_c, 1, 57, 0
1, 79320, Note_on_c, 1, 62, 127
1, 79321, Note_off_c, 1, 64, 0
1, 79357, Note_off_c, 1, 62, 0
1, 79380, Note_on_c, 1, 64, 127
1, 79380, Note_on_c, 1, 61, 127
1, 79416, Note_off_c, 1, 61, 0
1, 79423, Note_off_c, 1, 64, 0
1, 79440, Note_on_c, 1, 65, 127
1, 79440, Note_on_c, 1, 62, 127
1, 79440, Note_on_c, 1, 57, 127
1, 79440, Note_on_c, 1, 53, 127
1, 79440, Note_on_c, 1, 36, 127
1, 79479, Note_off_c, 1, 65, 0
1, 79500, Note_on_c, 1, 69, 127
1, 79504, Note_off_c, 1, 36, 0
1, 79505, Note_off_c, 1, 53, 0
1, 79507, Note_off_c, 1, 57, 0
1, 79515, Note_off_c, 1, 62, 0
1, 79551, Note_off_c, 1, 69, 0
1, 79560, Note_on_c, 1, 74, 127
1, 79612, Note_off_c, 1, 74, 0
1, 79620, Note_on_c, 1, 76, 127
1, 79659, Note_off_c, 1, 76, 0
1, 79680, Note_on_c, 1, 77, 127
1, 79680, Note_on_c, 1, 74, 127
1, 79680, Note_on_c, 1, 62, 127
1, 79680, Note_on_c, 1, 59, 127
1, 79680, Note_on_c, 1, 50, 127
1, 79680, Note_on_c, 1, 35, 127
1, 79692, Note_on_c, 1, 53, 127
1, 79750, Note_off_c, 1, 62, 0
1, 79756, Note_off_c, 1, 35, 0
1, 79760, Note_off_c, 1, 59, 0
1, 79785, Note_off_c, 1, 50, 0
1, 79794, Note_off_c, 1, 74, 0
1, 79804, Note_off_c, 1, 53, 0
1, 79835, Note_off_c, 1, 77, 0
1, 79860, Note_on_c, 1, 76, 127
1, 79905, Note_off_c, 1, 76, 0
1, 79920, Note_on_c, 1, 74, 127
1, 79980, Note_on_c, 1, 73, 127
1, 79985, Note_off_c, 1, 74, 0
1, 80040, Note_on_c, 1, 67, 127
1, 80040, Note_on_c, 1, 62, 127
1, 80040, Note_on_c, 1, 55, 127
1, 80040, Note_on_c, 1, 34, 127
1, 80045, Note_off_c, 1, 73, 0
1, 80073, Note_off_c, 1, 55, 0
1, 80100, Note_off_c, 1, 34, 0
1, 80100, Note_on_c, 1, 76, 127
1, 80107, Note_off_c, 1, 67, 0
1, 80130, Note_off_c, 1, 62, 0
1, 80137, Note_off_c, 1, 76, 0
1, 80160, Note_on_c, 1, 73, 127
1, 80160, Note_on_c, 1, 69, 127
1, 80160, Note_on_c, 1, 64, 127
1, 80160, Note_on_c, 1, 55, 127
1, 80160, Note_on_c, 1, 33, 127
1, 80257, Note_off_c, 1, 33, 0
1, 80277, Note_off_c, 1, 55, 0
1, 80280, Note_on_c, 1, 57, 127
1, 80280, Note_on_c, 1, 45, 127
1, 80323, Note_off_c, 1, 57, 0
1, 80327, Note_off_c, 1, 45, 0
1, 80389, Note_off_c, 1, 64, 0
1, 80395, Note_off_c, 1, 73, 0
1, 80400, Note_on_c, 1, 74, 127
1, 80400, Note_on_c, 1, 65, 127
1, 80400, Note_on_c, 1, 53, 127
1, 80454, Note_off_c, 1, 53, 0
1, 80460, Note_on_c, 1, 52, 127
1, 80523, Note_off_c, 1, 52, 0
1, 80580, Note_on_c, 1, 50, 127
1, 80637, Note_off_c, 1, 50, 0
1, 80651, Note_off_c, 1, 65, 0
1, 80760, Note_on_c, 1, 43, 127
1, 80808, Note_off_c, 1, 43, 0
1, 80820, Note_on_c, 1, 41, 127
1, 80876, Note_off_c, 1, 41, 0
1, 80885, Note_off_c, 1, 74, 0
1, 81000, Note_on_c, 1, 40, 127
1, 81120, Note_on_c, 1, 72, 127
1, 81120, Note_on_c, 1, 62, 127
1, 81120, Note_on_c, 1, 42, 127
1, 81129, Note_off_c, 1, 40, 0
1, 81211, Note_off_c, 1, 42, 0
1, 81360, Note_on_c, 1, 71, 127
1, 81366, Note_off_c, 1, 72, 0
1, 81480, Note_on_c, 1, 67, 127
1, 81480, Note_on_c, 1, 38, 127
1, 81493, Note_off_c, 1, 69, 0
1, 81526, Note_off_c, 1, 67, 0
1, 81540, Note_on_c, 1, 66, 127
1, 81588, Note_off_c, 1, 66, 0
1, 81597, Note_off_c, 1, 38, 0
1, 81600, Note_on_c, 1, 70, 127
1, 81600, Note_on_c, 1, 60, 127
1, 81619, Note_off_c, 1, 62, 0
1, 81622, Note_off_c, 1, 71, 0
1, 81720, Note_on_c, 1, 48, 127
1, 81798, Note_off_c, 1, 48, 0
1, 81840, Note_off_c, 1, 70, 0
1, 81876, Note_off_c, 1, 60, 0
1, 81960, Note_on_c, 1, 77, 127
1, 81960, Note_on_c, 1, 65, 127
1, 81960, Note_on_c, 1, 60, 127
1, 81960, Note_on_c, 1, 57, 127
1, 81960, Note_on_c, 1, 33, 127
1, 82011, Note_off_c, 1, 65, 0
1, 82022, Note_off_c, 1, 57, 0
1, 82050, Note_off_c, 1, 77, 0
1, 82062, Note_off_c, 1, 33, 0
1, 82067, Note_off_c, 1, 60, 0
1, 82080, Note_on_c, 1, 74, 127
1, 82080, Note_on_c, 1, 65, 127
1, 82080, Note_on_c, 1, 62, 127
1, 82080, Note_on_c, 1, 57, 127
1, 82080, Note_on_c, 1, 34, 127
1, 82164, Note_off_c, 1, 57, 0
1, 82167, Note_off_c, 1, 62, 0
1, 82169, Note_off_c, 1, 34, 0
1, 82187, Note_off_c, 1, 65, 0
1, 82200, Note_on_c, 1, 75, 127
1, 82204, Note_off_c, 1, 74, 0
1, 82258, Note_off_c, 1, 75, 0
1, 82260, Note_on_c, 1, 74, 127
1, 82294, Note_off_c, 1, 74, 0
1, 82320, Note_on_c, 1, 75, 127
1, 82361, Note_off_c, 1, 75, 0
1, 82380, Note_on_c, 1, 73, 127
1, 82420, Note_off_c, 1, 73, 0
1, 82440, Note_on_c, 1, 74, 127
1, 82440, Note_on_c, 1, 67, 127
1, 82440, Note_on_c, 1, 62, 127
1, 82440, Note_on_c, 1, 55, 127
1, 82440, Note_on_c, 1, 34, 127
1, 82485, Note_off_c, 1, 67, 0
1, 82490, Note_off_c, 1, 34, 0
1, 82497, Note_off_c, 1, 62, 0
1, 82498, Note_off_c, 1, 55, 0
1, 82560, Note_on_c, 1, 73, 127
1, 82560, Note_on_c, 1, 64, 127
1, 82560, Note_on_c, 1, 57, 127
1, 82560, Note_on_c, 1, 52, 127
1, 82560, Note_on_c, 1, 33, 127
1, 82574, Note_off_c, 1, 74, 0
1, 82644, Note_off_c, 1, 33, 0
1, 82652, Note_off_c, 1, 52, 0
1, 82655, Note_off_c, 1, 57, 0
1, 82680, Note_on_c, 1, 70, 127
1, 82684, Note_off_c, 1, 73, 0
1, 82695, Note_off_c, 1, 64, 0
1, 82731, Note_off_c, 1, 70, 0
1, 82740, Note_on_c, 1, 67, 127
1, 82778, Note_off_c, 1, 67, 0
1, 82800, Note_on_c, 1, 69, 127
1, 82899, Note_off_c, 1, 69, 0
1, 82920, Note_on_c, 1, 73, 127
1, 82920, Note_on_c, 1, 57, 127
1, 82920, Note_on_c, 1, 55, 127
1, 82920, Note_on_c, 1, 52, 127
1, 82920, Note_on_c, 1, 33, 127
1, 82925, Note_on_c, 1, 64, 127
1, 82969, Note_off_c, 1, 33, 0
1, 82980, Note_off_c, 1, 57, 0
1, 82981, Note_off_c, 1, 52, 0
1, 82983, Note_off_c, 1, 73, 0
1, 83019, Note_off_c, 1, 55, 0
1, 83024, Note_off_c, 1, 64, 0
1, 83040, Note_on_c, 1, 74, 127
1, 83040, Note_on_c, 1, 57, 127
1, 83040, Note_on_c, 1, 65, 127
1, 83040, Note_on_c, 1, 53, 127
1, 83040, Note_on_c, 1, 50, 127
1, 83040, Note_on_c, 1, 33, 127
1, 83123, Note_off_c, 1, 65, 0
1, 83130, Note_off_c, 1, 50, 0
1, 83136, Note_off_c, 1, 33, 0
1, 83159, Note_off_c, 1, 53, 0
1, 83160, Note_on_c, 1, 76, 127
1, 83160, Note_on_c, 1, 70, 127
1, 83166, Note_off_c, 1, 57, 0
1, 83171, Note_off_c, 1, 74, 0
1, 83198, Note_off_c, 1, 70, 0
1, 83220, Note_on_c, 1, 67, 127
1, 83255, Note_off_c, 1, 67, 0
1, 83274, Note_off_c, 1, 76, 0
1, 83280, Note_on_c, 1, 77, 127
1, 83280, Note_on_c, 1, 69, 127
1, 83393, Note_off_c, 1, 69, 0
1, 83400, Note_on_c, 1, 73, 127
1, 83400, Note_on_c, 1, 64, 127
1, 83400, Note_on_c, 1, 57, 127
1, 83400, Note_on_c, 1, 52, 127
1, 83400, Note_on_c, 1, 33, 127
1, 83421, Note_off_c, 1, 77, 0
1, 83442, Note_off_c, 1, 33, 0
1, 83450, Note_off_c, 1, 64, 0
1, 83450, Note_off_c, 1, 52, 0
1, 83454, Note_off_c, 1, 73, 0
1, 83492, Note_off_c, 1, 57, 0
1, 83520, Note_on_c, 1, 73, 127
1, 83520, Note_on_c, 1, 64, 127
1, 83520, Note_on_c, 1, 55, 127
1, 83520, Note_on_c, 1, 52, 127
1, 83520, Note_on_c, 1, 34, 127
1, 83625, Note_off_c, 1, 34, 0
1, 83634, Note_off_c, 1, 52, 0
1, 83639, Note_off_c, 1, 64, 0
1, 83640, Note_on_c, 1, 74, 127
1, 83640, Note_on_c, 1, 65, 127
1, 83640, Note_on_c, 1, 57, 127
1, 83640, Note_on_c, 1, 50, 127
1, 83640, Note_on_c, 1, 33, 127
1, 83642, Note_off_c, 1, 73, 0
1, 83642, Note_off_c, 1, 55, 0
1, 83683, Note_off_c, 1, 57, 0
1, 83685, Note_off_c, 1, 33, 0
1, 83686, Note_off_c, 1, 50, 0
1, 83692, Note_off_c, 1, 65, 0
1, 83696, Note_off_c, 1, 74, 0
1, 83760, Note_on_c, 1, 74, 127
1, 83760, Note_on_c, 1, 65, 127
1, 83760, Note_on_c, 1, 57, 127
1, 83760, Note_on_c, 1, 50, 127
1, 83760, Note_on_c, 1, 33, 127
1, 83812, Note_off_c, 1, 74, 0
1, 83860, Note_off_c, 1, 50, 0
1, 83875, Note_off_c, 1, 65, 0
1, 83877, Note_off_c, 1, 57, 0
1, 83880, Note_on_c, 1, 64, 127
1, 83880, Note_on_c, 1, 59, 127
1, 83880, Note_on_c, 1, 47, 127
1, 83880, Note_on_c, 1, 32, 127
1, 83892, Note_off_c, 1, 33, 0
1, 83965, Note_off_c, 1, 47, 0
1, 83980, Note_off_c, 1, 64, 0
1, 84000, Note_on_c, 1, 53, 127
1, 84005, Note_off_c, 1, 59, 0
1, 84009, Note_off_c, 1, 32, 0
1, 84101, Note_off_c, 1, 53, 0
1, 84180, Note_on_c, 1, 76, 127
1, 84180, Note_on_c, 1, 67, 127
1, 84216, Note_off_c, 1, 67, 0
1, 84229, Note_off_c, 1, 76, 0
1, 84240, Note_on_c, 1, 73, 127
1, 84240, Note_on_c, 1, 45, 127
1, 84357, Note_off_c, 1, 45, 0
1, 84360, Note_on_c, 1, 55, 127
1, 84412, Note_off_c, 1, 73, 0
1, 84460, Note_off_c, 1, 55, 0
1, 84480, Note_on_c, 1, 26, 127
1, 84540, Note_on_c, 1, 62, 127
1, 84546, Note_off_c, 1, 26, 0
1, 84584, Note_off_c, 1, 62, 0
1, 84660, Note_on_c, 1, 69, 127
1, 84703, Note_off_c, 1, 69, 0
1, 84720, Note_on_c, 1, 74, 127
1, 84720, Note_on_c, 1, 57, 127
1, 84720, Note_on_c, 1, 53, 127
1, 84720, Note_on_c, 1, 29, 127
1, 84772, Note_off_c, 1, 29, 0
1, 84780, Note_on_c, 1, 69, 127
1, 84787, Note_off_c, 1, 74, 0
1, 84787, Note_off_c, 1, 53, 0
1, 84790, Note_off_c, 1, 57, 0
1, 84836, Note_off_c, 1, 69, 0
1, 84840, Note_on_c, 1, 65, 127
1, 84896, Note_off_c, 1, 65, 0
1, 84900, Note_on_c, 1, 62, 127
1, 84941, Note_off_c, 1, 62, 0
1, 84960, Note_on_c, 1, 64, 127
1, 84960, Note_on_c, 1, 55, 127
1, 84960, Note_on_c, 1, 52, 127
1, 84960, Note_on_c, 1, 31, 127
1, 85020, Note_on_c, 1, 74, 127
1, 85022, Note_off_c, 1, 52, 0
1, 85022, Note_off_c, 1, 31, 0
1, 85025, Note_off_c, 1, 64, 0
1, 85041, Note_off_c, 1, 55, 0
1, 85078, Note_off_c, 1, 74, 0
1, 85080, Note_on_c, 1, 72, 127
1, 85124, Note_off_c, 1, 72, 0
1, 85140, Note_on_c, 1, 70, 127
1, 85187, Note_off_c, 1, 70, 0
1, 85200, Note_on_c, 1, 72, 127
1, 85200, Note_on_c, 1, 57, 127
1, 85200, Note_on_c, 1, 54, 127
1, 85200, Note_on_c, 1, 26, 127
1, 85260, Note_on_c, 1, 69, 127
1, 85261, Note_off_c, 1, 26, 0
1, 85267, Note_off_c, 1, 72, 0
1, 85271, Note_off_c, 1, 54, 0
1, 85275, Note_off_c, 1, 57, 0
1, 85320, Note_off_c, 1, 69, 0
1, 85320, Note_on_c, 1, 66, 127
1, 85368, Note_off_c, 1, 66, 0
1, 85380, Note_on_c, 1, 62, 127
1, 85431, Note_off_c, 1, 62, 0
1, 85440, Note_on_c, 1, 58, 127
1, 85440, Note_on_c, 1, 55, 127
1, 85440, Note_on_c, 1, 26, 127
1, 85500, Note_on_c, 1, 62, 127
1, 85502, Note_off_c, 1, 26, 0
1, 85506, Note_off_c, 1, 58, 0
1, 85512, Note_off_c, 1, 55, 0
1, 85553, Note_off_c, 1, 62, 0
1, 85560, Note_on_c, 1, 67, 127
1, 85603, Note_off_c, 1, 67, 0
1, 85620, Note_on_c, 1, 69, 127
1, 85656, Note_off_c, 1, 69, 0
1, 85680, Note_on_c, 1, 70, 127
1, 85680, Note_on_c, 1, 62, 127
1, 85680, Note_on_c, 1, 53, 127
1, 85740, Note_on_c, 1, 67, 127
1, 85751, Note_off_c, 1, 62, 0
1, 85751, Note_off_c, 1, 53, 0
1, 85776, Note_off_c, 1, 70, 0
1, 85785, Note_off_c, 1, 67, 0
1, 85800, Note_on_c, 1, 63, 127
1, 85847, Note_off_c, 1, 63, 0
1, 85860, Note_on_c, 1, 62, 127
1, 85902, Note_off_c, 1, 62, 0
1, 85920, Note_on_c, 1, 61, 127
1, 85920, Note_on_c, 1, 55, 127
1, 85920, Note_on_c, 1, 52, 127
1, 85980, Note_on_c, 1, 70, 127
1, 85986, Note_off_c, 1, 61, 0
1, 85986, Note_off_c, 1, 52, 0
1, 85990, Note_off_c, 1, 55, 0
1, 86032, Note_off_c, 1, 70, 0
1, 86040, Note_on_c, 1, 69, 127
1, 86084, Note_off_c, 1, 69, 0
1, 86100, Note_on_c, 1, 67, 127
1, 86146, Note_off_c, 1, 67, 0
1, 86160, Note_on_c, 1, 69, 127
1, 86160, Note_on_c, 1, 62, 127
1, 86160, Note_on_c, 1, 53, 127
1, 86220, Note_off_c, 1, 53, 0
1, 86220, Note_on_c, 1, 65, 127
1, 86222, Note_off_c, 1, 62, 0
1, 86228, Note_off_c, 1, 69, 0
1, 86270, Note_off_c, 1, 65, 0
1, 86280, Note_on_c, 1, 62, 127
1, 86340, Note_on_c, 1, 60, 127
1, 86342, Note_off_c, 1, 62, 0
1, 86386, Note_off_c, 1, 60, 0
1, 86400, Note_on_c, 1, 58, 127
1, 86400, Note_on_c, 1, 55, 127
1, 86400, Note_on_c, 1, 26, 127
1, 86457, Note_off_c, 1, 26, 0
1, 86474, Note_off_c, 1, 55, 0
1, 86520, Note_on_c, 1, 62, 127
1, 86540, Note_off_c, 1, 58, 0
1, 86580, Note_on_c, 1, 66, 127
1, 86589, Note_off_c, 1, 62, 0
1, 86609, Note_off_c, 1, 66, 0
1, 86640, Note_on_c, 1, 67, 127
1, 86640, Note_on_c, 1, 62, 127
1, 86640, Note_on_c, 1, 53, 127
1, 86700, Note_off_c, 1, 62, 0
1, 86700, Note_on_c, 1, 70, 127
1, 86702, Note_off_c, 1, 53, 0
1, 86711, Note_off_c, 1, 67, 0
1, 86749, Note_off_c, 1, 70, 0
1, 86760, Note_on_c, 1, 63, 127
1, 86814, Note_off_c, 1, 63, 0
1, 86820, Note_on_c, 1, 62, 127
1, 86873, Note_off_c, 1, 62, 0
1, 86880, Note_on_c, 1, 52, 127
1, 86880, Note_on_c, 1, 28, 127
1, 86940, Note_on_c, 1, 55, 127
1, 86941, Note_off_c, 1, 28, 0
1, 86944, Note_off_c, 1, 52, 0
1, 86999, Note_off_c, 1, 55, 0
1, 87000, Note_on_c, 1, 60, 127
1, 87059, Note_off_c, 1, 60, 0
1, 87060, Note_on_c, 1, 64, 127
1, 87109, Note_off_c, 1, 64, 0
1, 87125, Note_on_c, 1, 67, 127
1, 87185, Note_on_c, 1, 70, 127
1, 87192, Note_off_c, 1, 67, 0
1, 87240, Note_on_c, 1, 73, 127
1, 87252, Note_off_c, 1, 70, 0
1, 87294, Note_off_c, 1, 73, 0
1, 87300, Note_on_c, 1, 76, 127
1, 87349, Note_off_c, 1, 76, 0
1, 87360, Note_on_c, 1, 53, 127
1, 87360, Note_on_c, 1, 29, 127
1, 87420, Note_on_c, 1, 57, 127
1, 87428, Note_off_c, 1, 29, 0
1, 87434, Note_off_c, 1, 53, 0
1, 87455, Note_off_c, 1, 57, 0
1, 87480, Note_on_c, 1, 62, 127
1, 87521, Note_off_c, 1, 62, 0
1, 87540, Note_on_c, 1, 65, 127
1, 87577, Note_off_c, 1, 65, 0
1, 87600, Note_on_c, 1, 69, 127
1, 87660, Note_on_c, 1, 73, 127
1, 87667, Note_off_c, 1, 69, 0
1, 87704, Note_off_c, 1, 73, 0
1, 87720, Note_on_c, 1, 74, 127
1, 87760, Note_off_c, 1, 74, 0
1, 87780, Note_on_c, 1, 77, 127
1, 87823, Note_off_c, 1, 77, 0
1, 87840, Note_on_c, 1, 55, 127
1, 87840, Note_on_c, 1, 31, 127
1, 87895, Note_off_c, 1, 31, 0
1, 87897, Note_off_c, 1, 55, 0
1, 87900, Note_on_c, 1, 58, 127
1, 87955, Note_off_c, 1, 58, 0
1, 87960, Note_on_c, 1, 62, 127
1, 88009, Note_off_c, 1, 62, 0
1, 88020, Note_on_c, 1, 67, 127
1, 88069, Note_off_c, 1, 67, 0
1, 88080, Note_on_c, 1, 70, 127
1, 88129, Note_off_c, 1, 70, 0
1, 88140, Note_on_c, 1, 74, 127
1, 88189, Note_off_c, 1, 74, 0
1, 88200, Note_on_c, 1, 76, 127
1, 88249, Note_off_c, 1, 76, 0
1, 88260, Note_on_c, 1, 79, 127
1, 88309, Note_off_c, 1, 79, 0
1, 88320, Note_on_c, 1, 57, 127
1, 88320, Note_on_c, 1, 33, 127
1, 88380, Note_on_c, 1, 79, 127
1, 88412, Note_off_c, 1, 33, 0
1, 88423, Note_off_c, 1, 57, 0
1, 88440, Note_on_c, 1, 77, 127
1, 88440, Note_on_c, 1, 45, 127
1, 88454, Note_off_c, 1, 79, 0
1, 88479, Note_off_c, 1, 77, 0
1, 88500, Note_on_c, 1, 69, 127
1, 88531, Note_off_c, 1, 69, 0
1, 88547, Note_off_c, 1, 45, 0
1, 88560, Note_on_c, 1, 68, 127
1, 88560, Note_on_c, 1, 47, 127
1, 88610, Note_off_c, 1, 68, 0
1, 88620, Note_on_c, 1, 77, 127
1, 88667, Note_off_c, 1, 77, 0
1, 88671, Note_off_c, 1, 47, 0
1, 88680, Note_on_c, 1, 76, 127
1, 88680, Note_on_c, 1, 49, 127
1, 88723, Note_off_c, 1, 76, 0
1, 88740, Note_on_c, 1, 67, 127
1, 88780, Note_off_c, 1, 67, 0
1, 88785, Note_off_c, 1, 49, 0
1, 88800, Note_on_c, 1, 66, 127
1, 88800, Note_on_c, 1, 50, 127
1, 88858, Note_off_c, 1, 66, 0
1, 88860, Note_on_c, 1, 76, 127
1, 88910, Note_off_c, 1, 76, 0
1, 88917, Note_off_c, 1, 50, 0
1, 88920, Note_on_c, 1, 74, 127
1, 88920, Note_on_c, 1, 53, 127
1, 88965, Note_off_c, 1, 74, 0
1, 88980, Note_on_c, 1, 65, 127
1, 89024, Note_off_c, 1, 65, 0
1, 89037, Note_off_c, 1, 53, 0
1, 89040, Note_on_c, 1, 64, 127
1, 89040, Note_on_c, 1, 55, 127
1, 89095, Note_off_c, 1, 64, 0
1, 89100, Note_on_c, 1, 74, 127
1, 89149, Note_off_c, 1, 74, 0
1, 89153, Note_off_c, 1, 55, 0
1, 89160, Note_on_c, 1, 72, 127
1, 89160, Note_on_c, 1, 57, 127
1, 89214, Note_off_c, 1, 72, 0
1, 89220, Note_on_c, 1, 63, 127
1, 89262, Note_off_c, 1, 63, 0
1, 89278, Note_off_c, 1, 57, 0
1, 89280, Note_on_c, 1, 62, 127
1, 89280, Note_on_c, 1, 58, 127
1, 89340, Note_on_c, 1, 72, 127
1, 89341, Note_off_c, 1, 62, 0
1, 89393, Note_off_c, 1, 72, 0
1, 89395, Note_off_c, 1, 58, 0
1, 89400, Note_on_c, 1, 70, 127
1, 89400, Note_on_c, 1, 55, 127
1, 89452, Note_off_c, 1, 70, 0
1, 89460, Note_on_c, 1, 62, 127
1, 89502, Note_off_c, 1, 62, 0
1, 89512, Note_off_c, 1, 55, 0
1, 89520, Note_on_c, 1, 61, 127
1, 89520, Note_on_c, 1, 52, 127
1, 89580, Note_on_c, 1, 70, 127
1, 89585, Note_off_c, 1, 61, 0
1, 89633, Note_off_c, 1, 70, 0
1, 89640, Note_off_c, 1, 52, 0
1, 89640, Note_on_c, 1, 69, 127
1, 89640, Note_on_c, 1, 54, 127
1, 89691, Note_off_c, 1, 69, 0
1, 89700, Note_on_c, 1, 60, 127
1, 89747, Note_off_c, 1, 60, 0
1, 89755, Note_off_c, 1, 54, 0
1, 89760, Note_on_c, 1, 59, 127
1, 89760, Note_on_c, 1, 55, 127
1, 89820, Note_off_c, 1, 59, 0
1, 89820, Note_on_c, 1, 69, 127
1, 89865, Note_off_c, 1, 69, 0
1, 89880, Note_on_c, 1, 67, 127
1, 89880, Note_on_c, 1, 52, 127
1, 89883, Note_off_c, 1, 55, 0
1, 89932, Note_off_c, 1, 67, 0
1, 89940, Note_on_c, 1, 66, 127
1, 89982, Note_off_c, 1, 66, 0
1, 89998, Note_off_c, 1, 52, 0
1, 90000, Note_on_c, 1, 67, 127
1, 90000, Note_on_c, 1, 49, 127
1, 90060, Note_on_c, 1, 58, 127
1, 90068, Note_off_c, 1, 67, 0
1, 90102, Note_off_c, 1, 58, 0
1, 90107, Note_off_c, 1, 49, 0
1, 90120, Note_on_c, 1, 57, 127
1, 90120, Note_on_c, 1, 52, 127
1, 90161, Note_off_c, 1, 57, 0
1, 90168, Note_off_c, 1, 52, 0
1, 90180, Note_on_c, 1, 55, 127
1, 90230, Note_off_c, 1, 55, 0
1, 90240, Note_on_c, 1, 67, 127
1, 90240, Note_on_c, 1, 57, 127
1, 90240, Note_on_c, 1, 64, 127
1, 90240, Note_on_c, 1, 52, 127
1, 90240, Note_on_c, 1, 73, 127
1, 90240, Note_on_c, 1, 33, 127
1, 90448, Note_off_c, 1, 52, 0
1, 90477, Note_off_c, 1, 57, 0
1, 90485, Note_off_c, 1, 64, 0
1, 90508, Note_off_c, 1, 33, 0
1, 90509, Note_off_c, 1, 67, 0
1, 90604, Note_off_c, 1, 73, 0
1, 90615, Note_on_c, 1, 74, 127
1, 90629, Note_off_c, 1, 74, 0
1, 90630, Note_on_c, 1, 76, 127
1, 90644, Note_off_c, 1, 76, 0
1, 90645, Note_on_c, 1, 73, 127
1, 90659, Note_off_c, 1, 73, 0
1, 90660, Note_on_c, 1, 74, 127
1, 90674, Note_off_c, 1, 74, 0
1, 90675, Note_on_c, 1, 76, 127
1, 90689, Note_off_c, 1, 76, 0
1, 90690, Note_on_c, 1, 67, 127
1, 90704, Note_off_c, 1, 67, 0
1, 90705, Note_on_c, 1, 69, 127
1, 90719, Note_off_c, 1, 69, 0
1, 90720, Note_on_c, 1, 70, 127
1, 90734, Note_off_c, 1, 70, 0
1, 90735, Note_on_c, 1, 67, 127
1, 90749, Note_off_c, 1, 67, 0
1, 90750, Note_on_c, 1, 69, 127
1, 90764, Note_off_c, 1, 69, 0
1, 90765, Note_on_c, 1, 70, 127
1, 90779, Note_off_c, 1, 70, 0
1, 90780, Note_on_c, 1, 64, 127
1, 90794, Note_off_c, 1, 64, 0
1, 90795, Note_on_c, 1, 65, 127
1, 90809, Note_off_c, 1, 65, 0
1, 90810, Note_on_c, 1, 67, 127
1, 90824, Note_off_c, 1, 67, 0
1, 90825, Note_on_c, 1, 64, 127
1, 90839, Note_off_c, 1, 64, 0
1, 90840, Note_on_c, 1, 65, 127
1, 90854, Note_off_c, 1, 65, 0
1, 90855, Note_on_c, 1, 67, 127
1, 90869, Note_off_c, 1, 67, 0
1, 90870, Note_on_c, 1, 61, 127
1, 90884, Note_off_c, 1, 61, 0
1, 90885, Note_on_c, 1, 62, 127
1, 90899, Note_off_c, 1, 62, 0
1, 90900, Note_on_c, 1, 64, 127
1, 90914, Note_off_c, 1, 64, 0
1, 90915, Note_on_c, 1, 61, 127
1, 90929, Note_off_c, 1, 61, 0
1, 90930, Note_on_c, 1, 62, 127
1, 90944, Note_off_c, 1, 62, 0
1, 90945, Note_on_c, 1, 64, 127
1, 90959, Note_off_c, 1, 64, 0
1, 90960, Note_on_c, 1, 57, 127
1, 91074, Note_off_c, 1, 57, 0
1, 91080, Note_on_c, 1, 74, 127
1, 91080, Note_on_c, 1, 65, 127
1, 91080, Note_on_c, 1, 71, 127
1, 91080, Note_on_c, 1, 59, 127
1, 91080, Note_on_c, 1, 62, 127
1, 91080, Note_on_c, 1, 32, 127
1, 91150, Note_off_c, 1, 71, 0
1, 91150, Note_off_c, 1, 32, 0
1, 91154, Note_off_c, 1, 74, 0
1, 91187, Note_off_c, 1, 65, 0
1, 91194, Note_off_c, 1, 62, 0
1, 91198, Note_off_c, 1, 59, 0
1, 91200, Note_on_c, 1, 74, 127
1, 91200, Note_on_c, 1, 64, 127
1, 91200, Note_on_c, 1, 69, 127
1, 91200, Note_on_c, 1, 52, 127
1, 91200, Note_on_c, 1, 57, 127
1, 91200, Note_on_c, 1, 33, 127
1, 91274, Note_off_c, 1, 74, 0
1, 91290, Note_on_c, 1, 76, 127
1, 91319, Note_off_c, 1, 76, 0
1, 91320, Note_on_c, 1, 53, 127
1, 91344, Note_off_c, 1, 52, 0
1, 91350, Note_on_c, 1, 73, 127
1, 91379, Note_off_c, 1, 73, 0
1, 91395, Note_on_c, 1, 71, 127
1, 91424, Note_off_c, 1, 71, 0
1, 91434, Note_off_c, 1, 53, 0
1, 91440, Note_on_c, 1, 55, 127
1, 91619, Note_off_c, 1, 69, 0
1, 91675, Note_off_c, 1, 64, 0
1, 91680, Note_on_c, 1, 62, 127
1, 91680, Note_on_c, 1, 26, 127
1, 91684, Note_off_c, 1, 33, 0
1, 91800, Note_on_c, 1, 54, 127
1, 91808, Note_off_c, 1, 55, 0
1, 91855, Note_off_c, 1, 54, 0
1, 92160, Note_off_c, 1, 57, 0
1, 92160, Note_off_c, 1, 62, 0
1, 92160, Note_off_c, 1, 26, 0
1, 92160, End_track
0, 0, End_of_file