0, 0, Header, 1, 1, 480
1, 0, Start_track
1, 0, Title_t, "Test"
1, 0, Tempo, 500000
1, 0, Instrument_name_t, "Church Organ"
1, 0, Note_on_c, 1, 70, 127
1, 0, Note_on_c, 1, 63, 127
1, 0, Note_on_c, 1, 55, 127
1, 0, Note_on_c, 1, 58, 127
1, 0, Note_on_c, 1, 51, 127
1, 30, Note_on_c, 1, 68, 127
1, 59, Note_off_c, 1, 68, 0
1, 288, Note_off_c, 1, 70, 0
1, 360, Note_on_c, 1, 67, 127
1, 384, Note_off_c, 1, 63, 0
1, 384, Note_off_c, 1, 55, 0
1, 384, Note_off_c, 1, 58, 0
1, 384, Note_off_c, 1, 51, 0
1, 408, Note_off_c, 1, 67, 0
1, 420, Note_on_c, 1, 65, 127
1, 468, Note_off_c, 1, 65, 0
1, 480, Note_on_c, 1, 63, 127
1, 768, Note_off_c, 1, 63, 0
1, 840, Note_on_c, 1, 70, 127
1, 840, Note_on_c, 1, 75, 127
1, 840, Note_on_c, 1, 63, 127
1, 840, Note_on_c, 1, 58, 127
1, 840, Note_on_c, 1, 55, 127
1, 936, Note_off_c, 1, 70, 0
1, 936, Note_off_c, 1, 75, 0
1, 936, Note_off_c, 1, 63, 0
1, 936, Note_off_c, 1, 58, 0
1, 936, Note_off_c, 1, 55, 0
1, 960, Note_on_c, 1, 75, 127
1, 960, Note_on_c, 1, 68, 127
1, 960, Note_on_c, 1, 65, 127
1, 960, Note_on_c, 1, 58, 127
1, 960, Note_on_c, 1, 53, 127
1, 1344, Note_off_c, 1, 75, 0
1, 1440, Note_on_c, 1, 74, 127
1, 1584, Note_off_c, 1, 53, 0
1, 1620, Note_on_c, 1, 56, 127
1, 1668, Note_off_c, 1, 56, 0
1, 1680, Note_on_c, 1, 55, 127
1, 1824, Note_off_c, 1, 74, 0
1, 1824, Note_off_c, 1, 55, 0
1, 1920, Note_on_c, 1, 77, 127
1, 1920, Note_on_c, 1, 50, 127
1, 2064, Note_off_c, 1, 77, 0
1, 2304, Note_off_c, 1, 68, 0
1, 2304, Note_off_c, 1, 65, 0
1, 2304, Note_off_c, 1, 58, 0
1, 2304, Note_off_c, 1, 50, 0
1, 2340, Note_on_c, 1, 72, 127
1, 2388, Note_off_c, 1, 72, 0
1, 2400, Note_on_c, 1, 70, 127
1, 2688, Note_off_c, 1, 70, 0
1, 2760, Note_on_c, 1, 65, 127
1, 2760, Note_on_c, 1, 68, 127
1, 2760, Note_on_c, 1, 62, 127
1, 2760, Note_on_c, 1, 53, 127
1, 2760, Note_on_c, 1, 46, 127
1, 2856, Note_off_c, 1, 65, 0
1, 2856, Note_off_c, 1, 68, 0
1, 2856, Note_off_c, 1, 62, 0
1, 2856, Note_off_c, 1, 53, 0
1, 2856, Note_off_c, 1, 46, 0
1, 2880, Note_on_c, 1, 65, 127
1, 2880, Note_on_c, 1, 68, 127
1, 2880, Note_on_c, 1, 62, 127
1, 2880, Note_on_c, 1, 51, 127
1, 2880, Note_on_c, 1, 58, 127
1, 3264, Note_off_c, 1, 65, 0
1, 3264, Note_off_c, 1, 68, 0
1, 3264, Note_off_c, 1, 62, 0
1, 3360, Note_on_c, 1, 63, 127
1, 3360, Note_on_c, 1, 67, 127
1, 3540, Note_on_c, 1, 46, 127
1, 3588, Note_off_c, 1, 46, 0
1, 3600, Note_on_c, 1, 43, 127
1, 3648, Note_off_c, 1, 51, 0
1, 3648, Note_off_c, 1, 58, 0
1, 3744, Note_off_c, 1, 63, 0
1, 3744, Note_off_c, 1, 67, 0
1, 3744, Note_off_c, 1, 43, 0
1, 3780, Note_on_c, 1, 46, 127
1, 3828, Note_off_c, 1, 46, 0
1, 3840, Note_on_c, 1, 79, 127
1, 3840, Note_on_c, 1, 39, 127
1, 3870, Note_on_c, 1, 77, 127
1, 3894, Note_off_c, 1, 77, 0
1, 3996, Note_off_c, 1, 79, 0
1, 4020, Note_on_c, 1, 80, 127
1, 4068, Note_off_c, 1, 80, 0
1, 4224, Note_off_c, 1, 39, 0
1, 4260, Note_on_c, 1, 77, 127
1, 4260, Note_on_c, 1, 55, 127
1, 4308, Note_off_c, 1, 77, 0
1, 4308, Note_off_c, 1, 55, 0
1, 4320, Note_on_c, 1, 79, 127
1, 4320, Note_on_c, 1, 60, 127
1, 4464, Note_off_c, 1, 79, 0
1, 4500, Note_on_c, 1, 75, 127
1, 4548, Note_off_c, 1, 75, 0
1, 4560, Note_on_c, 1, 74, 127
1, 4728, Note_off_c, 1, 74, 0
1, 4740, Note_on_c, 1, 72, 127
1, 4740, Note_on_c, 1, 55, 127
1, 4740, Note_on_c, 1, 51, 127
1, 4788, Note_off_c, 1, 72, 0
1, 4788, Note_off_c, 1, 55, 0
1, 4788, Note_off_c, 1, 51, 0
1, 4800, Note_on_c, 1, 77, 127
1, 4800, Note_on_c, 1, 53, 127
1, 4800, Note_on_c, 1, 50, 127
1, 4956, Note_off_c, 1, 77, 0
1, 5088, Note_off_c, 1, 60, 0
1, 5184, Note_off_c, 1, 53, 0
1, 5184, Note_off_c, 1, 50, 0
1, 5220, Note_on_c, 1, 75, 127
1, 5220, Note_on_c, 1, 60, 127
1, 5268, Note_off_c, 1, 75, 0
1, 5268, Note_off_c, 1, 60, 0
1, 5280, Note_on_c, 1, 77, 127
1, 5280, Note_on_c, 1, 58, 127
1, 5424, Note_off_c, 1, 77, 0
1, 5460, Note_on_c, 1, 74, 127
1, 5508, Note_off_c, 1, 74, 0
1, 5520, Note_on_c, 1, 72, 127
1, 5688, Note_off_c, 1, 72, 0
1, 5700, Note_on_c, 1, 70, 127
1, 5700, Note_on_c, 1, 53, 127
1, 5700, Note_on_c, 1, 50, 127
1, 5748, Note_off_c, 1, 70, 0
1, 5748, Note_off_c, 1, 53, 0
1, 5748, Note_off_c, 1, 50, 0
1, 5760, Note_on_c, 1, 75, 127
1, 5760, Note_on_c, 1, 55, 127
1, 5760, Note_on_c, 1, 48, 127
1, 5904, Note_off_c, 1, 75, 0
1, 6048, Note_off_c, 1, 55, 0
1, 6144, Note_off_c, 1, 48, 0
1, 6384, Note_off_c, 1, 58, 0
1, 6420, Note_on_c, 1, 57, 127
1, 6468, Note_off_c, 1, 57, 0
1, 6660, Note_on_c, 1, 69, 127
1, 6708, Note_off_c, 1, 69, 0
1, 6720, Note_on_c, 1, 67, 127
1, 6720, Note_on_c, 1, 46, 127
1, 7104, Note_off_c, 1, 46, 0
1, 7344, Note_off_c, 1, 67, 0
1, 7380, Note_on_c, 1, 62, 127
1, 7428, Note_off_c, 1, 62, 0
1, 7440, Note_on_c, 1, 60, 127
1, 7584, Note_off_c, 1, 60, 0
1, 7680, Note_on_c, 1, 65, 127
1, 7680, Note_on_c, 1, 45, 127
1, 8064, Note_off_c, 1, 45, 0
1, 8304, Note_off_c, 1, 65, 0
1, 8640, Note_on_c, 1, 41, 127
1, 9024, Note_off_c, 1, 41, 0
1, 9060, Note_on_c, 1, 44, 127
1, 9108, Note_off_c, 1, 44, 0
1, 9300, Note_on_c, 1, 51, 127
1, 9348, Note_off_c, 1, 51, 0
1, 10500, Note_on_c, 1, 38, 127
1, 10548, Note_off_c, 1, 38, 0
1, 10560, Note_on_c, 1, 39, 127
1, 10848, Note_off_c, 1, 39, 0
1, 11040, Note_on_c, 1, 63, 127
1, 11352, Note_off_c, 1, 63, 0
1, 11940, Note_on_c, 1, 75, 127
1, 11940, Note_on_c, 1, 48, 127
1, 11988, Note_off_c, 1, 75, 0
1, 11988, Note_off_c, 1, 48, 0
1, 12000, Note_on_c, 1, 77, 127
1, 12000, Note_on_c, 1, 50, 127
1, 12180, Note_on_c, 1, 65, 127
1, 12228, Note_off_c, 1, 65, 0
1, 12240, Note_on_c, 1, 67, 127
1, 12288, Note_off_c, 1, 50, 0
1, 12384, Note_off_c, 1, 67, 0
1, 12420, Note_on_c, 1, 69, 127
1, 12420, Note_on_c, 1, 41, 127
1, 12468, Note_off_c, 1, 69, 0
1, 12468, Note_off_c, 1, 41, 0
1, 12480, Note_on_c, 1, 70, 127
1, 12480, Note_on_c, 1, 43, 127
1, 12660, Note_on_c, 1, 62, 127
1, 12708, Note_off_c, 1, 62, 0
1, 12720, Note_on_c, 1, 63, 127
1, 12768, Note_off_c, 1, 43, 0
1, 12864, Note_off_c, 1, 77, 0
1, 12864, Note_off_c, 1, 63, 0
1, 12960, Note_on_c, 1, 75, 127
1, 12960, Note_on_c, 1, 51, 127
1, 13104, Note_off_c, 1, 70, 0
1, 13140, Note_on_c, 1, 55, 127
1, 13188, Note_off_c, 1, 55, 0
1, 13200, Note_on_c, 1, 72, 127
1, 13200, Note_on_c, 1, 57, 127
1, 13248, Note_off_c, 1, 51, 0
1, 13344, Note_off_c, 1, 72, 0
1, 13344, Note_off_c, 1, 57, 0
1, 13380, Note_on_c, 1, 74, 127
1, 13380, Note_on_c, 1, 58, 127
1, 13428, Note_off_c, 1, 74, 0
1, 13428, Note_off_c, 1, 58, 0
1, 13440, Note_on_c, 1, 60, 127
1, 13440, Note_on_c, 1, 45, 127
1, 13728, Note_off_c, 1, 45, 0
1, 13824, Note_off_c, 1, 75, 0
1, 13824, Note_off_c, 1, 60, 0
1, 13860, Note_on_c, 1, 69, 127
1, 13860, Note_on_c, 1, 53, 127
1, 13908, Note_off_c, 1, 69, 0
1, 13908, Note_off_c, 1, 53, 0
1, 13920, Note_on_c, 1, 70, 127
1, 13920, Note_on_c, 1, 65, 127
1, 13920, Note_on_c, 1, 50, 127
1, 14100, Note_on_c, 1, 72, 127
1, 14148, Note_off_c, 1, 72, 0
1, 14160, Note_on_c, 1, 74, 127
1, 14208, Note_off_c, 1, 50, 0
1, 14304, Note_off_c, 1, 74, 0
1, 14340, Note_on_c, 1, 75, 127
1, 14340, Note_on_c, 1, 46, 127
1, 14388, Note_off_c, 1, 75, 0
1, 14388, Note_off_c, 1, 46, 0
1, 14400, Note_on_c, 1, 53, 127
1, 14784, Note_off_c, 1, 70, 0
1, 14784, Note_off_c, 1, 53, 0
1, 14820, Note_on_c, 1, 79, 127
1, 14868, Note_off_c, 1, 79, 0
1, 14880, Note_on_c, 1, 77, 127
1, 14880, Note_on_c, 1, 69, 127
1, 14880, Note_on_c, 1, 41, 127
1, 15024, Note_off_c, 1, 77, 0
1, 15168, Note_off_c, 1, 65, 0
1, 15264, Note_off_c, 1, 69, 0
1, 15264, Note_off_c, 1, 41, 0
1, 15300, Note_on_c, 1, 75, 127
1, 15348, Note_off_c, 1, 75, 0
1, 15360, Note_on_c, 1, 70, 127
1, 15360, Note_on_c, 1, 74, 127
1, 15360, Note_on_c, 1, 65, 127
1, 15360, Note_on_c, 1, 53, 127
1, 15360, Note_on_c, 1, 46, 127
1, 15648, Note_off_c, 1, 53, 0
1, 15660, Note_on_c, 1, 51, 127
1, 15708, Note_off_c, 1, 51, 0
1, 15720, Note_on_c, 1, 50, 127
1, 15744, Note_off_c, 1, 70, 0
1, 15744, Note_off_c, 1, 74, 0
1, 15744, Note_off_c, 1, 65, 0
1, 15744, Note_off_c, 1, 46, 0
1, 15768, Note_off_c, 1, 50, 0
1, 15780, Note_on_c, 1, 48, 127
1, 15828, Note_off_c, 1, 48, 0
1, 15840, Note_on_c, 1, 46, 127
1, 16128, Note_off_c, 1, 46, 0
1, 16200, Note_on_c, 1, 74, 127
1, 16200, Note_on_c, 1, 65, 127
1, 16200, Note_on_c, 1, 77, 127
1, 16200, Note_on_c, 1, 56, 127
1, 16200, Note_on_c, 1, 46, 127
1, 16296, Note_off_c, 1, 74, 0
1, 16296, Note_off_c, 1, 65, 0
1, 16296, Note_off_c, 1, 56, 0
1, 16313, Note_off_c, 1, 46, 0
1, 16320, Note_on_c, 1, 47, 127
1, 16800, Note_on_c, 1, 67, 127
1, 16800, Note_on_c, 1, 55, 127
1, 16944, Note_off_c, 1, 47, 0
1, 16980, Note_on_c, 1, 50, 127
1, 17028, Note_off_c, 1, 50, 0
1, 17040, Note_on_c, 1, 48, 127
1, 17184, Note_off_c, 1, 55, 0
1, 17184, Note_off_c, 1, 48, 0
1, 17220, Note_on_c, 1, 72, 127
1, 17268, Note_off_c, 1, 72, 0
1, 17280, Note_on_c, 1, 71, 127
1, 17280, Note_on_c, 1, 62, 127
1, 17280, Note_on_c, 1, 43, 127
1, 17310, Note_on_c, 1, 69, 127
1, 17334, Note_off_c, 1, 69, 0
1, 17568, Note_off_c, 1, 62, 0
1, 17580, Note_on_c, 1, 60, 127
1, 17628, Note_off_c, 1, 60, 0
1, 17640, Note_on_c, 1, 59, 127
1, 17664, Note_off_c, 1, 77, 0
1, 17664, Note_off_c, 1, 67, 0
1, 17664, Note_off_c, 1, 43, 0
1, 17688, Note_off_c, 1, 59, 0
1, 17700, Note_on_c, 1, 57, 127
1, 17712, Note_off_c, 1, 71, 0
1, 17748, Note_off_c, 1, 57, 0
1, 17760, Note_on_c, 1, 55, 127
1, 18048, Note_off_c, 1, 55, 0
1, 18120, Note_on_c, 1, 62, 127
1, 18120, Note_on_c, 1, 67, 127
1, 18120, Note_on_c, 1, 74, 127
1, 18120, Note_on_c, 1, 53, 127
1, 18120, Note_on_c, 1, 47, 127
1, 18216, Note_off_c, 1, 62, 0
1, 18216, Note_off_c, 1, 67, 0
1, 18216, Note_off_c, 1, 53, 0
1, 18233, Note_off_c, 1, 47, 0
1, 18240, Note_on_c, 1, 55, 127
1, 18240, Note_on_c, 1, 48, 127
1, 18624, Note_off_c, 1, 74, 0
1, 18720, Note_on_c, 1, 72, 127
1, 18720, Note_on_c, 1, 51, 127
1, 18864, Note_off_c, 1, 48, 0
1, 18960, Note_on_c, 1, 50, 127
1, 19008, Note_off_c, 1, 55, 0
1, 19104, Note_off_c, 1, 50, 0
1, 19200, Note_on_c, 1, 68, 127
1, 19200, Note_on_c, 1, 41, 127
1, 19344, Note_off_c, 1, 68, 0
1, 19380, Note_on_c, 1, 70, 127
1, 19428, Note_off_c, 1, 70, 0
1, 19488, Note_off_c, 1, 51, 0
1, 19584, Note_off_c, 1, 72, 0
1, 19584, Note_off_c, 1, 41, 0
1, 19620, Note_on_c, 1, 67, 127
1, 19620, Note_on_c, 1, 51, 127
1, 19668, Note_off_c, 1, 67, 0
1, 19668, Note_off_c, 1, 51, 0
1, 19680, Note_on_c, 1, 68, 127
1, 19680, Note_on_c, 1, 70, 127
1, 19680, Note_on_c, 1, 50, 127
1, 19824, Note_off_c, 1, 68, 0
1, 19860, Note_on_c, 1, 65, 127
1, 19908, Note_off_c, 1, 65, 0
1, 19920, Note_on_c, 1, 63, 127
1, 20064, Note_off_c, 1, 50, 0
1, 20064, Note_off_c, 1, 63, 0
1, 20100, Note_on_c, 1, 62, 127
1, 20100, Note_on_c, 1, 53, 127
1, 20100, Note_on_c, 1, 46, 127
1, 20148, Note_off_c, 1, 62, 0
1, 20148, Note_off_c, 1, 53, 0
1, 20148, Note_off_c, 1, 46, 0
1, 20160, Note_on_c, 1, 67, 127
1, 20160, Note_on_c, 1, 55, 127
1, 20160, Note_on_c, 1, 51, 127
1, 20160, Note_on_c, 1, 39, 127
1, 20304, Note_off_c, 1, 55, 0
1, 20544, Note_off_c, 1, 51, 0
1, 20544, Note_off_c, 1, 39, 0
1, 20820, Note_on_c, 1, 58, 127
1, 20868, Note_off_c, 1, 58, 0
1, 20880, Note_on_c, 1, 56, 127
1, 21024, Note_off_c, 1, 56, 0
1, 21120, Note_on_c, 1, 60, 127
1, 21120, Note_on_c, 1, 44, 127
1, 21408, Note_off_c, 1, 70, 0
1, 21408, Note_off_c, 1, 67, 0
1, 21504, Note_off_c, 1, 44, 0
1, 21780, Note_on_c, 1, 48, 127
1, 21828, Note_off_c, 1, 48, 0
1, 21888, Note_off_c, 1, 60, 0
1, 22020, Note_on_c, 1, 67, 127
1, 22020, Note_on_c, 1, 63, 127
1, 22020, Note_on_c, 1, 60, 127
1, 22020, Note_on_c, 1, 51, 127
1, 22020, Note_on_c, 1, 45, 127
1, 22068, Note_off_c, 1, 67, 0
1, 22068, Note_off_c, 1, 63, 0
1, 22068, Note_off_c, 1, 60, 0
1, 22068, Note_off_c, 1, 51, 0
1, 22068, Note_off_c, 1, 45, 0
1, 22080, Note_on_c, 1, 63, 127
1, 22080, Note_on_c, 1, 67, 127
1, 22080, Note_on_c, 1, 46, 127
1, 22080, Note_on_c, 1, 58, 127
1, 22260, Note_on_c, 1, 51, 127
1, 22308, Note_off_c, 1, 51, 0
1, 22320, Note_on_c, 1, 55, 127
1, 22368, Note_off_c, 1, 58, 0
1, 22464, Note_off_c, 1, 63, 0
1, 22464, Note_off_c, 1, 67, 0
1, 22464, Note_off_c, 1, 55, 0
1, 22500, Note_on_c, 1, 57, 127
1, 22500, Note_on_c, 1, 60, 127
1, 22548, Note_off_c, 1, 57, 0
1, 22548, Note_off_c, 1, 60, 0
1, 22560, Note_on_c, 1, 65, 127
1, 22560, Note_on_c, 1, 62, 127
1, 22704, Note_off_c, 1, 46, 0
1, 22740, Note_on_c, 1, 50, 127
1, 22788, Note_off_c, 1, 50, 0
1, 22800, Note_on_c, 1, 48, 127
1, 22848, Note_off_c, 1, 65, 0
1, 22944, Note_off_c, 1, 62, 0
1, 22944, Note_off_c, 1, 48, 0
1, 22980, Note_on_c, 1, 67, 127
1, 22980, Note_on_c, 1, 58, 127
1, 22980, Note_on_c, 1, 51, 127
1, 23028, Note_off_c, 1, 67, 0
1, 23028, Note_off_c, 1, 58, 0
1, 23028, Note_off_c, 1, 51, 0
1, 23040, Note_on_c, 1, 68, 127
1, 23040, Note_on_c, 1, 58, 127
1, 23040, Note_on_c, 1, 50, 127
1, 23055, Note_on_c, 1, 56, 127
1, 23067, Note_off_c, 1, 56, 0
1, 23184, Note_off_c, 1, 68, 0
1, 23220, Note_on_c, 1, 70, 127
1, 23268, Note_off_c, 1, 70, 0
1, 23424, Note_off_c, 1, 50, 0
1, 23460, Note_on_c, 1, 67, 127
1, 23508, Note_off_c, 1, 67, 0
1, 23700, Note_on_c, 1, 77, 127
1, 23748, Note_off_c, 1, 77, 0
1, 23940, Note_on_c, 1, 46, 127
1, 23988, Note_off_c, 1, 46, 0
1, 24000, Note_on_c, 1, 51, 127
1, 24384, Note_off_c, 1, 51, 0
1, 24420, Note_on_c, 1, 65, 127
1, 24468, Note_off_c, 1, 65, 0
1, 24660, Note_on_c, 1, 75, 127
1, 24708, Note_off_c, 1, 75, 0
1, 24960, Note_on_c, 1, 63, 127
1, 24960, Note_on_c, 1, 55, 127
1, 25104, Note_off_c, 1, 58, 0
1, 25104, Note_off_c, 1, 63, 0
1, 25344, Note_off_c, 1, 55, 0
1, 25380, Note_on_c, 1, 62, 127
1, 25380, Note_on_c, 1, 53, 127
1, 25428, Note_off_c, 1, 62, 0
1, 25428, Note_off_c, 1, 53, 0
1, 25440, Note_on_c, 1, 63, 127
1, 25440, Note_on_c, 1, 55, 127
1, 25584, Note_off_c, 1, 63, 0
1, 25584, Note_off_c, 1, 55, 0
1, 25620, Note_on_c, 1, 72, 127
1, 25620, Note_on_c, 1, 51, 127
1, 25668, Note_off_c, 1, 72, 0
1, 25668, Note_off_c, 1, 51, 0
1, 25680, Note_on_c, 1, 65, 127
1, 25680, Note_on_c, 1, 51, 127
1, 25680, Note_on_c, 1, 50, 127
1, 25692, Note_off_c, 1, 51, 0
1, 25824, Note_off_c, 1, 65, 0
1, 25848, Note_off_c, 1, 50, 0
1, 25860, Note_on_c, 1, 63, 127
1, 25860, Note_on_c, 1, 48, 127
1, 25860, Note_on_c, 1, 45, 127
1, 25908, Note_off_c, 1, 63, 0
1, 25908, Note_off_c, 1, 48, 0
1, 25908, Note_off_c, 1, 45, 0
1, 25920, Note_on_c, 1, 62, 127
1, 25920, Note_on_c, 1, 46, 127
1, 26064, Note_off_c, 1, 62, 0
1, 26100, Note_on_c, 1, 63, 127
1, 26100, Note_on_c, 1, 55, 127
1, 26148, Note_off_c, 1, 63, 0
1, 26148, Note_off_c, 1, 55, 0
1, 26160, Note_on_c, 1, 53, 127
1, 26304, Note_off_c, 1, 46, 0
1, 26304, Note_off_c, 1, 53, 0
1, 26340, Note_on_c, 1, 60, 127
1, 26340, Note_on_c, 1, 51, 127
1, 26388, Note_off_c, 1, 60, 0
1, 26388, Note_off_c, 1, 51, 0
1, 26400, Note_on_c, 1, 62, 127
1, 26400, Note_on_c, 1, 53, 127
1, 26544, Note_off_c, 1, 62, 0
1, 26580, Note_on_c, 1, 58, 127
1, 26628, Note_off_c, 1, 58, 0
1, 26820, Note_on_c, 1, 65, 127
1, 26820, Note_on_c, 1, 44, 127
1, 26868, Note_off_c, 1, 65, 0
1, 26868, Note_off_c, 1, 44, 0
1, 26880, Note_on_c, 1, 70, 127
1, 26880, Note_on_c, 1, 43, 127
1, 27024, Note_off_c, 1, 70, 0
1, 27060, Note_on_c, 1, 72, 127
1, 27108, Note_off_c, 1, 72, 0
1, 27168, Note_off_c, 1, 53, 0
1, 27264, Note_off_c, 1, 43, 0
1, 27300, Note_on_c, 1, 68, 127
1, 27300, Note_on_c, 1, 53, 127
1, 27348, Note_off_c, 1, 68, 0
1, 27348, Note_off_c, 1, 53, 0
1, 27360, Note_on_c, 1, 70, 127
1, 27360, Note_on_c, 1, 51, 127
1, 27473, Note_off_c, 1, 70, 0
1, 27540, Note_on_c, 1, 63, 127
1, 27588, Note_off_c, 1, 63, 0
1, 27600, Note_on_c, 1, 67, 127
1, 27648, Note_off_c, 1, 51, 0
1, 27744, Note_off_c, 1, 67, 0
1, 27780, Note_on_c, 1, 70, 127
1, 27780, Note_on_c, 1, 55, 127
1, 27780, Note_on_c, 1, 43, 127
1, 27828, Note_off_c, 1, 70, 0
1, 27828, Note_off_c, 1, 55, 0
1, 27828, Note_off_c, 1, 43, 0
1, 27840, Note_on_c, 1, 75, 127
1, 27840, Note_on_c, 1, 56, 127
1, 27840, Note_on_c, 1, 48, 127
1, 28020, Note_on_c, 1, 60, 127
1, 28068, Note_off_c, 1, 60, 0
1, 28080, Note_on_c, 1, 62, 127
1, 28137, Note_off_c, 1, 75, 0
1, 28140, Note_on_c, 1, 74, 127
1, 28197, Note_off_c, 1, 74, 0
1, 28200, Note_on_c, 1, 72, 127
1, 28224, Note_off_c, 1, 56, 0
1, 28224, Note_off_c, 1, 48, 0
1, 28224, Note_off_c, 1, 62, 0
1, 28257, Note_off_c, 1, 72, 0
1, 28260, Note_on_c, 1, 63, 127
1, 28260, Note_on_c, 1, 70, 127
1, 28308, Note_off_c, 1, 63, 0
1, 28317, Note_off_c, 1, 70, 0
1, 28320, Note_on_c, 1, 68, 127
1, 28320, Note_on_c, 1, 65, 127
1, 28464, Note_off_c, 1, 68, 0
1, 28500, Note_on_c, 1, 77, 127
1, 28548, Note_off_c, 1, 77, 0
1, 28560, Note_on_c, 1, 70, 127
1, 28704, Note_off_c, 1, 70, 0
1, 28740, Note_on_c, 1, 58, 127
1, 28740, Note_on_c, 1, 53, 127
1, 28740, Note_on_c, 1, 50, 127
1, 28788, Note_off_c, 1, 58, 0
1, 28788, Note_off_c, 1, 53, 0
1, 28788, Note_off_c, 1, 50, 0
1, 28800, Note_on_c, 1, 67, 127
1, 28800, Note_on_c, 1, 55, 127
1, 28800, Note_on_c, 1, 51, 127
1, 28944, Note_off_c, 1, 67, 0
1, 28992, Note_off_c, 1, 65, 0
1, 28992, Note_off_c, 1, 55, 0
1, 28992, Note_off_c, 1, 51, 0
1, 29040, Note_on_c, 1, 70, 127
1, 29040, Note_on_c, 1, 55, 127
1, 29040, Note_on_c, 1, 58, 127
1, 29040, Note_on_c, 1, 43, 127
1, 29184, Note_off_c, 1, 70, 0
1, 29220, Note_on_c, 1, 63, 127
1, 29232, Note_off_c, 1, 55, 0
1, 29232, Note_off_c, 1, 58, 0
1, 29232, Note_off_c, 1, 43, 0
1, 29268, Note_off_c, 1, 63, 0
1, 29280, Note_on_c, 1, 67, 127
1, 29280, Note_on_c, 1, 60, 127
1, 29280, Note_on_c, 1, 56, 127
1, 29280, Note_on_c, 1, 51, 127
1, 29280, Note_on_c, 1, 44, 127
1, 29424, Note_off_c, 1, 67, 0
1, 29460, Note_on_c, 1, 65, 127
1, 29472, Note_off_c, 1, 60, 0
1, 29472, Note_off_c, 1, 56, 0
1, 29472, Note_off_c, 1, 51, 0
1, 29472, Note_off_c, 1, 44, 0
1, 29508, Note_off_c, 1, 65, 0
1, 29520, Note_on_c, 1, 63, 127
1, 29520, Note_on_c, 1, 58, 127
1, 29520, Note_on_c, 1, 65, 127
1, 29520, Note_on_c, 1, 56, 127
1, 29520, Note_on_c, 1, 46, 127
1, 29532, Note_off_c, 1, 65, 0
1, 29688, Note_off_c, 1, 63, 0
1, 29700, Note_on_c, 1, 62, 127
1, 29712, Note_off_c, 1, 58, 0
1, 29712, Note_off_c, 1, 56, 0
1, 29712, Note_off_c, 1, 46, 0
1, 29748, Note_off_c, 1, 62, 0
1, 29760, Note_on_c, 1, 62, 127
1, 29760, Note_on_c, 1, 58, 127
1, 29760, Note_on_c, 1, 56, 127
1, 29760, Note_on_c, 1, 46, 127
1, 29760, Note_on_c, 1, 39, 127
1, 30144, Note_off_c, 1, 62, 0
1, 30144, Note_off_c, 1, 56, 0
1, 30240, Note_on_c, 1, 63, 127
1, 30240, Note_on_c, 1, 55, 127
1, 30528, Note_off_c, 1, 58, 0
1, 30528, Note_off_c, 1, 46, 0
1, 30528, Note_off_c, 1, 39, 0
1, 30528, Note_off_c, 1, 63, 0
1, 30540, Note_on_c, 1, 67, 127
1, 30588, Note_off_c, 1, 67, 0
1, 30600, Note_on_c, 1, 65, 127
1, 30624, Note_off_c, 1, 55, 0
1, 30648, Note_off_c, 1, 65, 0
1, 30660, Note_on_c, 1, 63, 127
1, 30708, Note_off_c, 1, 63, 0
1, 30720, Note_on_c, 1, 70, 127
1, 30900, Note_off_c, 1, 70, 0
1, 30960, Note_on_c, 1, 63, 127
1, 30960, Note_on_c, 1, 72, 127
1, 30960, Note_on_c, 1, 56, 127
1, 31140, Note_off_c, 1, 63, 0
1, 31140, Note_off_c, 1, 72, 0
1, 31140, Note_off_c, 1, 56, 0
1, 31200, Note_on_c, 1, 62, 127
1, 31200, Note_on_c, 1, 68, 127
1, 31200, Note_on_c, 1, 70, 127
1, 31200, Note_on_c, 1, 53, 127
1, 31212, Note_off_c, 1, 70, 0
1, 31380, Note_off_c, 1, 62, 0
1, 31380, Note_off_c, 1, 53, 0
1, 31433, Note_off_c, 1, 68, 0
1, 31440, Note_on_c, 1, 63, 127
1, 31440, Note_on_c, 1, 67, 127
1, 31440, Note_on_c, 1, 51, 127
1, 31620, Note_off_c, 1, 63, 0
1, 31620, Note_off_c, 1, 51, 0
1, 31632, Note_off_c, 1, 67, 0
1, 31680, Note_on_c, 1, 58, 127
1, 31680, Note_on_c, 1, 50, 127
1, 31680, Note_on_c, 1, 56, 127
1, 31692, Note_off_c, 1, 58, 0
1, 31860, Note_off_c, 1, 50, 0
1, 31896, Note_off_c, 1, 56, 0
1, 31920, Note_on_c, 1, 51, 127
1, 31920, Note_on_c, 1, 55, 127
1, 32100, Note_off_c, 1, 51, 0
1, 32100, Note_off_c, 1, 55, 0
1, 32160, Note_on_c, 1, 39, 127
1, 32340, Note_off_c, 1, 39, 0
1, 32400, Note_on_c, 1, 68, 127
1, 32448, Note_off_c, 1, 68, 0
1, 32460, Note_on_c, 1, 67, 127
1, 32508, Note_off_c, 1, 67, 0
1, 32520, Note_on_c, 1, 65, 127
1, 32568, Note_off_c, 1, 65, 0
1, 32580, Note_on_c, 1, 63, 127
1, 32628, Note_off_c, 1, 63, 0
1, 32640, Note_on_c, 1, 70, 127
1, 32820, Note_off_c, 1, 70, 0
1, 32880, Note_on_c, 1, 72, 127
1, 32880, Note_on_c, 1, 63, 127
1, 32880, Note_on_c, 1, 56, 127
1, 33060, Note_off_c, 1, 72, 0
1, 33060, Note_off_c, 1, 63, 0
1, 33060, Note_off_c, 1, 56, 0
1, 33120, Note_on_c, 1, 62, 127
1, 33120, Note_on_c, 1, 68, 127
1, 33120, Note_on_c, 1, 70, 127
1, 33120, Note_on_c, 1, 53, 127
1, 33132, Note_off_c, 1, 70, 0
1, 33300, Note_off_c, 1, 62, 0
1, 33300, Note_off_c, 1, 53, 0
1, 33336, Note_off_c, 1, 68, 0
1, 33360, Note_on_c, 1, 67, 127
1, 33360, Note_on_c, 1, 63, 127
1, 33360, Note_on_c, 1, 51, 127
1, 33540, Note_off_c, 1, 63, 0
1, 33540, Note_off_c, 1, 51, 0
1, 33552, Note_off_c, 1, 67, 0
1, 33600, Note_on_c, 1, 58, 127
1, 33600, Note_on_c, 1, 50, 127
1, 33600, Note_on_c, 1, 56, 127
1, 33612, Note_off_c, 1, 58, 0
1, 33780, Note_off_c, 1, 50, 0
1, 33792, Note_off_c, 1, 56, 0
1, 33840, Note_on_c, 1, 55, 127
1, 33840, Note_on_c, 1, 51, 127
1, 34020, Note_off_c, 1, 55, 0
1, 34020, Note_off_c, 1, 51, 0
1, 34080, Note_on_c, 1, 39, 127
1, 34260, Note_off_c, 1, 39, 0
1, 34320, Note_on_c, 1, 75, 127
1, 34368, Note_off_c, 1, 75, 0
1, 34380, Note_on_c, 1, 74, 127
1, 34428, Note_off_c, 1, 74, 0
1, 34440, Note_on_c, 1, 72, 127
1, 34488, Note_off_c, 1, 72, 0
1, 34500, Note_on_c, 1, 70, 127
1, 34548, Note_off_c, 1, 70, 0
1, 34560, Note_on_c, 1, 77, 127
1, 34752, Note_off_c, 1, 77, 0
1, 34800, Note_on_c, 1, 79, 127
1, 34800, Note_on_c, 1, 70, 127
1, 34800, Note_on_c, 1, 63, 127
1, 34980, Note_off_c, 1, 79, 0
1, 34980, Note_off_c, 1, 70, 0
1, 34980, Note_off_c, 1, 63, 0
1, 35040, Note_on_c, 1, 69, 127
1, 35040, Note_on_c, 1, 75, 127
1, 35040, Note_on_c, 1, 77, 127
1, 35040, Note_on_c, 1, 60, 127
1, 35052, Note_off_c, 1, 77, 0
1, 35220, Note_off_c, 1, 69, 0
1, 35220, Note_off_c, 1, 60, 0
1, 35256, Note_off_c, 1, 75, 0
1, 35280, Note_on_c, 1, 70, 127
1, 35280, Note_on_c, 1, 74, 127
1, 35280, Note_on_c, 1, 58, 127
1, 35460, Note_off_c, 1, 70, 0
1, 35460, Note_off_c, 1, 58, 0
1, 35472, Note_off_c, 1, 74, 0
1, 35520, Note_on_c, 1, 63, 127
1, 35520, Note_on_c, 1, 65, 127
1, 35520, Note_on_c, 1, 57, 127
1, 35532, Note_off_c, 1, 65, 0
1, 35712, Note_off_c, 1, 57, 0
1, 35736, Note_off_c, 1, 63, 0
1, 35760, Note_on_c, 1, 62, 127
1, 35760, Note_on_c, 1, 58, 127
1, 35940, Note_off_c, 1, 58, 0
1, 35952, Note_off_c, 1, 62, 0
1, 36000, Note_on_c, 1, 46, 127
1, 36180, Note_off_c, 1, 46, 0
1, 36240, Note_on_c, 1, 75, 127
1, 36288, Note_off_c, 1, 75, 0
1, 36300, Note_on_c, 1, 74, 127
1, 36348, Note_off_c, 1, 74, 0
1, 36360, Note_on_c, 1, 72, 127
1, 36408, Note_off_c, 1, 72, 0
1, 36420, Note_on_c, 1, 70, 127
1, 36468, Note_off_c, 1, 70, 0
1, 36480, Note_on_c, 1, 77, 127
1, 36660, Note_off_c, 1, 77, 0
1, 36720, Note_on_c, 1, 70, 127
1, 36720, Note_on_c, 1, 79, 127
1, 36720, Note_on_c, 1, 63, 127
1, 36900, Note_off_c, 1, 70, 0
1, 36900, Note_off_c, 1, 79, 0
1, 36900, Note_off_c, 1, 63, 0
1, 36960, Note_on_c, 1, 69, 127
1, 36960, Note_on_c, 1, 75, 127
1, 36960, Note_on_c, 1, 77, 127
1, 36960, Note_on_c, 1, 60, 127
1, 36972, Note_off_c, 1, 77, 0
1, 37140, Note_off_c, 1, 69, 0
1, 37140, Note_off_c, 1, 60, 0
1, 37176, Note_off_c, 1, 75, 0
1, 37200, Note_on_c, 1, 70, 127
1, 37200, Note_on_c, 1, 74, 127
1, 37200, Note_on_c, 1, 58, 127
1, 37380, Note_off_c, 1, 70, 0
1, 37380, Note_off_c, 1, 58, 0
1, 37392, Note_off_c, 1, 74, 0
1, 37440, Note_on_c, 1, 63, 127
1, 37440, Note_on_c, 1, 65, 127
1, 37440, Note_on_c, 1, 57, 127
1, 37452, Note_off_c, 1, 65, 0
1, 37620, Note_off_c, 1, 57, 0
1, 37656, Note_off_c, 1, 63, 0
1, 37680, Note_on_c, 1, 62, 127
1, 37680, Note_on_c, 1, 58, 127
1, 37860, Note_off_c, 1, 58, 0
1, 37872, Note_off_c, 1, 62, 0
1, 37920, Note_on_c, 1, 46, 127
1, 38100, Note_off_c, 1, 46, 0
1, 38160, Note_on_c, 1, 62, 127
1, 38160, Note_on_c, 1, 58, 127
1, 38280, Note_on_c, 1, 74, 127
1, 38352, Note_off_c, 1, 62, 0
1, 38352, Note_off_c, 1, 58, 0
1, 38400, Note_on_c, 1, 67, 127
1, 38400, Note_on_c, 1, 63, 127
1, 38496, Note_off_c, 1, 74, 0
1, 38520, Note_on_c, 1, 71, 127
1, 38592, Note_off_c, 1, 67, 0
1, 38592, Note_off_c, 1, 63, 0
1, 38640, Note_on_c, 1, 65, 127
1, 38712, Note_off_c, 1, 71, 0
1, 38760, Note_on_c, 1, 72, 127
1, 38832, Note_off_c, 1, 65, 0
1, 38928, Note_off_c, 1, 72, 0
1, 38940, Note_on_c, 1, 75, 127
1, 38988, Note_off_c, 1, 75, 0
1, 39000, Note_on_c, 1, 77, 127
1, 39048, Note_off_c, 1, 77, 0
1, 39060, Note_on_c, 1, 79, 127
1, 39108, Note_off_c, 1, 79, 0
1, 39120, Note_on_c, 1, 77, 127
1, 39120, Note_on_c, 1, 60, 127
1, 39168, Note_off_c, 1, 77, 0
1, 39180, Note_on_c, 1, 75, 127
1, 39228, Note_off_c, 1, 75, 0
1, 39240, Note_on_c, 1, 74, 127
1, 39288, Note_off_c, 1, 74, 0
1, 39300, Note_on_c, 1, 72, 127
1, 39312, Note_off_c, 1, 60, 0
1, 39360, Note_on_c, 1, 65, 127
1, 39360, Note_on_c, 1, 62, 127
1, 39456, Note_off_c, 1, 72, 0
1, 39480, Note_on_c, 1, 69, 127
1, 39552, Note_off_c, 1, 65, 0
1, 39552, Note_off_c, 1, 62, 0
1, 39600, Note_on_c, 1, 63, 127
1, 39672, Note_off_c, 1, 69, 0
1, 39720, Note_on_c, 1, 70, 127
1, 39792, Note_off_c, 1, 63, 0
1, 39888, Note_off_c, 1, 70, 0
1, 40080, Note_on_c, 1, 75, 127
1, 40080, Note_on_c, 1, 58, 127
1, 40128, Note_off_c, 1, 75, 0
1, 40140, Note_on_c, 1, 74, 127
1, 40188, Note_off_c, 1, 74, 0
1, 40200, Note_on_c, 1, 72, 127
1, 40248, Note_off_c, 1, 72, 0
1, 40260, Note_on_c, 1, 70, 127
1, 40272, Note_off_c, 1, 58, 0
1, 40320, Note_on_c, 1, 63, 127
1, 40320, Note_on_c, 1, 60, 127
1, 40416, Note_off_c, 1, 70, 0
1, 40440, Note_on_c, 1, 67, 127
1, 40512, Note_off_c, 1, 63, 0
1, 40512, Note_off_c, 1, 60, 0
1, 40560, Note_on_c, 1, 62, 127
1, 40632, Note_off_c, 1, 67, 0
1, 40680, Note_on_c, 1, 69, 127
1, 40752, Note_off_c, 1, 62, 0
1, 40848, Note_off_c, 1, 69, 0
1, 41040, Note_on_c, 1, 72, 127
1, 41040, Note_on_c, 1, 55, 127
1, 41088, Note_off_c, 1, 72, 0
1, 41100, Note_on_c, 1, 70, 127
1, 41148, Note_off_c, 1, 70, 0
1, 41160, Note_on_c, 1, 69, 127
1, 41208, Note_off_c, 1, 69, 0
1, 41220, Note_on_c, 1, 67, 127
1, 41232, Note_off_c, 1, 55, 0
1, 41280, Note_on_c, 1, 60, 127
1, 41280, Note_on_c, 1, 57, 127
1, 41376, Note_off_c, 1, 67, 0
1, 41400, Note_on_c, 1, 64, 127
1, 41472, Note_off_c, 1, 60, 0
1, 41472, Note_off_c, 1, 57, 0
1, 41520, Note_on_c, 1, 58, 127
1, 41592, Note_off_c, 1, 64, 0
1, 41640, Note_on_c, 1, 65, 127
1, 41712, Note_off_c, 1, 58, 0
1, 41856, Note_off_c, 1, 65, 0
1, 41880, Note_on_c, 1, 75, 127
1, 42000, Note_on_c, 1, 53, 127
1, 42072, Note_off_c, 1, 75, 0
1, 42120, Note_on_c, 1, 73, 127
1, 42192, Note_off_c, 1, 53, 0
1, 42240, Note_on_c, 1, 46, 127
1, 42288, Note_off_c, 1, 73, 0
1, 42432, Note_off_c, 1, 46, 0
1, 42480, Note_on_c, 1, 70, 127
1, 42480, Note_on_c, 1, 48, 127
1, 42510, Note_off_c, 1, 70, 0
1, 42600, Note_on_c, 1, 77, 127
1, 42672, Note_off_c, 1, 48, 0
1, 42720, Note_on_c, 1, 49, 127
1, 42816, Note_off_c, 1, 77, 0
1, 42840, Note_on_c, 1, 76, 127
1, 42888, Note_off_c, 1, 76, 0
1, 42912, Note_off_c, 1, 49, 0
1, 42960, Note_on_c, 1, 78, 127
1, 42960, Note_on_c, 1, 58, 127
1, 42960, Note_on_c, 1, 46, 127
1, 43008, Note_off_c, 1, 78, 0
1, 43020, Note_on_c, 1, 77, 127
1, 43068, Note_off_c, 1, 77, 0
1, 43080, Note_on_c, 1, 75, 127
1, 43128, Note_off_c, 1, 75, 0
1, 43152, Note_off_c, 1, 46, 0
1, 43200, Note_off_c, 1, 58, 0
1, 43200, Note_on_c, 1, 70, 127
1, 43200, Note_on_c, 1, 60, 127
1, 43200, Note_on_c, 1, 53, 127
1, 43296, Note_off_c, 1, 70, 0
1, 43320, Note_on_c, 1, 69, 127
1, 43392, Note_off_c, 1, 60, 0
1, 43392, Note_off_c, 1, 53, 0
1, 43440, Note_on_c, 1, 55, 127
1, 43488, Note_off_c, 1, 69, 0
1, 43560, Note_on_c, 1, 72, 127
1, 43608, Note_off_c, 1, 72, 0
1, 43632, Note_off_c, 1, 55, 0
1, 43680, Note_on_c, 1, 65, 127
1, 43680, Note_on_c, 1, 57, 127
1, 43776, Note_off_c, 1, 65, 0
1, 43800, Note_on_c, 1, 75, 127
1, 43872, Note_off_c, 1, 57, 0
1, 43920, Note_on_c, 1, 53, 127
1, 43992, Note_off_c, 1, 75, 0
1, 44040, Note_on_c, 1, 73, 127
1, 44112, Note_off_c, 1, 53, 0
1, 44160, Note_on_c, 1, 58, 127
1, 44208, Note_off_c, 1, 73, 0
1, 44220, Note_on_c, 1, 70, 127
1, 44268, Note_off_c, 1, 70, 0
1, 44280, Note_on_c, 1, 69, 127
1, 44328, Note_off_c, 1, 69, 0
1, 44352, Note_off_c, 1, 58, 0
1, 44400, Note_on_c, 1, 70, 127
1, 44400, Note_on_c, 1, 60, 127
1, 44496, Note_off_c, 1, 70, 0
1, 44520, Note_on_c, 1, 77, 127
1, 44592, Note_off_c, 1, 60, 0
1, 44640, Note_on_c, 1, 61, 127
1, 44736, Note_off_c, 1, 77, 0
1, 44760, Note_on_c, 1, 76, 127
1, 44808, Note_off_c, 1, 76, 0
1, 44832, Note_off_c, 1, 61, 0
1, 44880, Note_on_c, 1, 78, 127
1, 44880, Note_on_c, 1, 61, 127
1, 44880, Note_on_c, 1, 58, 127
1, 44928, Note_off_c, 1, 78, 0
1, 44940, Note_on_c, 1, 77, 127
1, 44988, Note_off_c, 1, 77, 0
1, 45000, Note_on_c, 1, 76, 127
1, 45048, Note_off_c, 1, 76, 0
1, 45072, Note_off_c, 1, 61, 0
1, 45072, Note_off_c, 1, 58, 0
1, 45120, Note_on_c, 1, 70, 127
1, 45120, Note_on_c, 1, 63, 127
1, 45120, Note_on_c, 1, 60, 127
1, 45216, Note_off_c, 1, 70, 0
1, 45240, Note_on_c, 1, 69, 127
1, 45312, Note_off_c, 1, 63, 0
1, 45312, Note_off_c, 1, 60, 0
1, 45360, Note_on_c, 1, 61, 127
1, 45360, Note_on_c, 1, 58, 127
1, 45408, Note_off_c, 1, 69, 0
1, 45480, Note_on_c, 1, 72, 127
1, 45528, Note_off_c, 1, 72, 0
1, 45552, Note_off_c, 1, 61, 0
1, 45552, Note_off_c, 1, 58, 0
1, 45600, Note_on_c, 1, 65, 127
1, 45600, Note_on_c, 1, 60, 127
1, 45600, Note_on_c, 1, 57, 127
1, 45696, Note_off_c, 1, 65, 0
1, 45720, Note_on_c, 1, 75, 127
1, 45792, Note_off_c, 1, 60, 0
1, 45792, Note_off_c, 1, 57, 0
1, 45840, Note_on_c, 1, 53, 127
1, 45912, Note_off_c, 1, 75, 0
1, 45960, Note_on_c, 1, 73, 127
1, 46032, Note_off_c, 1, 53, 0
1, 46080, Note_on_c, 1, 58, 127
1, 46176, Note_off_c, 1, 73, 0
1, 46200, Note_on_c, 1, 72, 127
1, 46248, Note_off_c, 1, 72, 0
1, 46260, Note_on_c, 1, 70, 127
1, 46272, Note_off_c, 1, 58, 0
1, 46308, Note_off_c, 1, 70, 0
1, 46320, Note_on_c, 1, 72, 127
1, 46320, Note_on_c, 1, 63, 127
1, 46320, Note_on_c, 1, 51, 127
1, 46416, Note_off_c, 1, 72, 0
1, 46440, Note_on_c, 1, 67, 127
1, 46512, Note_off_c, 1, 63, 0
1, 46512, Note_off_c, 1, 51, 0
1, 46536, Note_off_c, 1, 67, 0
1, 46560, Note_on_c, 1, 61, 127
1, 46560, Note_on_c, 1, 70, 127
1, 46560, Note_on_c, 1, 53, 127
1, 46752, Note_off_c, 1, 61, 0
1, 46752, Note_off_c, 1, 70, 0
1, 46800, Note_on_c, 1, 69, 127
1, 46800, Note_on_c, 1, 60, 127
1, 46944, Note_off_c, 1, 53, 0
1, 46968, Note_off_c, 1, 69, 0
1, 46992, Note_off_c, 1, 60, 0
1, 47040, Note_on_c, 1, 70, 127
1, 47040, Note_on_c, 1, 46, 127
1, 47040, Note_on_c, 1, 58, 127
1, 47220, Note_on_c, 1, 67, 127
1, 47220, Note_on_c, 1, 63, 127
1, 47268, Note_off_c, 1, 67, 0
1, 47268, Note_off_c, 1, 63, 0
1, 47280, Note_on_c, 1, 65, 127
1, 47280, Note_on_c, 1, 62, 127
1, 47424, Note_off_c, 1, 46, 0
1, 47424, Note_off_c, 1, 65, 0
1, 47424, Note_off_c, 1, 62, 0
1, 47460, Note_on_c, 1, 60, 127
1, 47508, Note_off_c, 1, 60, 0
1, 47664, Note_off_c, 1, 58, 0
1, 47700, Note_on_c, 1, 55, 127
1, 47748, Note_off_c, 1, 55, 0
1, 47760, Note_on_c, 1, 53, 127
1, 47904, Note_off_c, 1, 53, 0
1, 47940, Note_on_c, 1, 57, 127
1, 47940, Note_on_c, 1, 51, 127
1, 47988, Note_off_c, 1, 57, 0
1, 47988, Note_off_c, 1, 51, 0
1, 48360, Note_on_c, 1, 50, 127
1, 48384, Note_off_c, 1, 70, 0
1, 48408, Note_off_c, 1, 50, 0
1, 48420, Note_on_c, 1, 48, 127
1, 48468, Note_off_c, 1, 48, 0
1, 48480, Note_on_c, 1, 46, 127
1, 48768, Note_off_c, 1, 46, 0
1, 48840, Note_on_c, 1, 62, 127
1, 48840, Note_on_c, 1, 58, 127
1, 48840, Note_on_c, 1, 46, 127
1, 48936, Note_off_c, 1, 62, 0
1, 48936, Note_off_c, 1, 58, 0
1, 48936, Note_off_c, 1, 46, 0
1, 48960, Note_on_c, 1, 79, 127
1, 48960, Note_on_c, 1, 63, 127
1, 48960, Note_on_c, 1, 58, 127
1, 48960, Note_on_c, 1, 48, 127
1, 49104, Note_off_c, 1, 79, 0
1, 49140, Note_on_c, 1, 77, 127
1, 49188, Note_off_c, 1, 77, 0
1, 49200, Note_on_c, 1, 75, 127
1, 49344, Note_off_c, 1, 58, 0
1, 49344, Note_off_c, 1, 75, 0
1, 49380, Note_on_c, 1, 74, 127
1, 49428, Note_off_c, 1, 74, 0
1, 49440, Note_on_c, 1, 72, 127
1, 49440, Note_on_c, 1, 57, 127
1, 49584, Note_off_c, 1, 48, 0
1, 49620, Note_on_c, 1, 51, 127
1, 49668, Note_off_c, 1, 51, 0
1, 49680, Note_on_c, 1, 50, 127
1, 49728, Note_off_c, 1, 72, 0
1, 49824, Note_off_c, 1, 50, 0
1, 49848, Note_off_c, 1, 57, 0
1, 49860, Note_on_c, 1, 84, 127
1, 49908, Note_off_c, 1, 84, 0
1, 49920, Note_on_c, 1, 82, 127
1, 49920, Note_on_c, 1, 60, 127
1, 49920, Note_on_c, 1, 41, 127
1, 50064, Note_off_c, 1, 60, 0
1, 50304, Note_off_c, 1, 63, 0
1, 50304, Note_off_c, 1, 82, 0
1, 50304, Note_off_c, 1, 41, 0
1, 50340, Note_on_c, 1, 55, 127
1, 50388, Note_off_c, 1, 55, 0
1, 50400, Note_on_c, 1, 81, 127
1, 50400, Note_on_c, 1, 53, 127
1, 50688, Note_off_c, 1, 53, 0
1, 50784, Note_off_c, 1, 81, 0
1, 50880, Note_on_c, 1, 77, 127
1, 50880, Note_on_c, 1, 82, 127
1, 50880, Note_on_c, 1, 70, 127
1, 50880, Note_on_c, 1, 51, 127
1, 50880, Note_on_c, 1, 46, 127
1, 50976, Note_off_c, 1, 77, 0
1, 50976, Note_off_c, 1, 82, 0
1, 50976, Note_off_c, 1, 70, 0
1, 51000, Note_on_c, 1, 81, 127
1, 51048, Note_off_c, 1, 81, 0
1, 51060, Note_on_c, 1, 79, 127
1, 51108, Note_off_c, 1, 79, 0
1, 51180, Note_on_c, 1, 75, 127
1, 51228, Note_off_c, 1, 75, 0
1, 51240, Note_on_c, 1, 74, 127
1, 51264, Note_off_c, 1, 51, 0
1, 51288, Note_off_c, 1, 74, 0
1, 51300, Note_on_c, 1, 72, 127
1, 51348, Note_off_c, 1, 72, 0
1, 51360, Note_on_c, 1, 50, 127
1, 51480, Note_on_c, 1, 69, 127
1, 51504, Note_off_c, 1, 46, 0
1, 51528, Note_off_c, 1, 69, 0
1, 51540, Note_on_c, 1, 67, 127
1, 51588, Note_off_c, 1, 67, 0
1, 51600, Note_on_c, 1, 65, 127
1, 51600, Note_on_c, 1, 48, 127
1, 51648, Note_off_c, 1, 65, 0
1, 51660, Note_on_c, 1, 63, 127
1, 51708, Note_off_c, 1, 63, 0
1, 51720, Note_on_c, 1, 62, 127
1, 51744, Note_off_c, 1, 48, 0
1, 51768, Note_off_c, 1, 50, 0
1, 51768, Note_off_c, 1, 62, 0
1, 51780, Note_on_c, 1, 60, 127
1, 51780, Note_on_c, 1, 51, 127
1, 51828, Note_off_c, 1, 60, 0
1, 51828, Note_off_c, 1, 51, 0
1, 51840, Note_on_c, 1, 58, 127
1, 51840, Note_on_c, 1, 50, 127
1, 51960, Note_on_c, 1, 46, 127
1, 52008, Note_off_c, 1, 46, 0
1, 52020, Note_on_c, 1, 48, 127
1, 52032, Note_off_c, 1, 58, 0
1, 52068, Note_off_c, 1, 48, 0
1, 52140, Note_on_c, 1, 51, 127
1, 52188, Note_off_c, 1, 51, 0
1, 52200, Note_on_c, 1, 53, 127
1, 52248, Note_off_c, 1, 53, 0
1, 52260, Note_on_c, 1, 55, 127
1, 52308, Note_off_c, 1, 55, 0
1, 52320, Note_on_c, 1, 56, 127
1, 52464, Note_off_c, 1, 50, 0
1, 52560, Note_on_c, 1, 77, 127
1, 52560, Note_on_c, 1, 74, 127
1, 52560, Note_on_c, 1, 70, 127
1, 52752, Note_off_c, 1, 77, 0
1, 52752, Note_off_c, 1, 74, 0
1, 52752, Note_off_c, 1, 70, 0
1, 52896, Note_off_c, 1, 56, 0
1, 53040, Note_on_c, 1, 67, 127
1, 53040, Note_on_c, 1, 75, 127
1, 53232, Note_off_c, 1, 67, 0
1, 53232, Note_off_c, 1, 75, 0
1, 53460, Note_on_c, 1, 72, 127
1, 53508, Note_off_c, 1, 72, 0
1, 53520, Note_on_c, 1, 70, 127
1, 53520, Note_on_c, 1, 53, 127
1, 53568, Note_off_c, 1, 70, 0
1, 53580, Note_on_c, 1, 68, 127
1, 53628, Note_off_c, 1, 68, 0
1, 53640, Note_on_c, 1, 67, 127
1, 53664, Note_off_c, 1, 53, 0
1, 53688, Note_off_c, 1, 67, 0
1, 53700, Note_on_c, 1, 65, 127
1, 53700, Note_on_c, 1, 56, 127
1, 53748, Note_off_c, 1, 65, 0
1, 53748, Note_off_c, 1, 56, 0
1, 53760, Note_on_c, 1, 63, 127
1, 53760, Note_on_c, 1, 55, 127
1, 53880, Note_on_c, 1, 51, 127
1, 53928, Note_off_c, 1, 51, 0
1, 53940, Note_on_c, 1, 53, 127
1, 53952, Note_off_c, 1, 63, 0
1, 53988, Note_off_c, 1, 53, 0
1, 54060, Note_on_c, 1, 56, 127
1, 54108, Note_off_c, 1, 56, 0
1, 54120, Note_on_c, 1, 58, 127
1, 54168, Note_off_c, 1, 58, 0
1, 54180, Note_on_c, 1, 60, 127
1, 54228, Note_off_c, 1, 60, 0
1, 54240, Note_on_c, 1, 61, 127
1, 54384, Note_off_c, 1, 55, 0
1, 54480, Note_on_c, 1, 75, 127
1, 54480, Note_on_c, 1, 82, 127
1, 54480, Note_on_c, 1, 79, 127
1, 54672, Note_off_c, 1, 75, 0
1, 54672, Note_off_c, 1, 82, 0
1, 54672, Note_off_c, 1, 79, 0
1, 54816, Note_off_c, 1, 61, 0
1, 54960, Note_on_c, 1, 80, 127
1, 54960, Note_on_c, 1, 72, 127
1, 55152, Note_off_c, 1, 80, 0
1, 55152, Note_off_c, 1, 72, 0
1, 55380, Note_on_c, 1, 62, 127
1, 55380, Note_on_c, 1, 58, 127
1, 55428, Note_off_c, 1, 62, 0
1, 55428, Note_off_c, 1, 58, 0
1, 55440, Note_on_c, 1, 70, 127
1, 55440, Note_on_c, 1, 63, 127
1, 55440, Note_on_c, 1, 75, 127
1, 55440, Note_on_c, 1, 58, 127
1, 55440, Note_on_c, 1, 55, 127
1, 55584, Note_off_c, 1, 55, 0
1, 55620, Note_on_c, 1, 56, 127
1, 55632, Note_off_c, 1, 70, 0
1, 55632, Note_off_c, 1, 63, 0
1, 55632, Note_off_c, 1, 58, 0
1, 55668, Note_off_c, 1, 56, 0
1, 55680, Note_on_c, 1, 68, 127
1, 55680, Note_on_c, 1, 65, 127
1, 55680, Note_on_c, 1, 60, 127
1, 55680, Note_on_c, 1, 53, 127
1, 55824, Note_off_c, 1, 68, 0
1, 55968, Note_off_c, 1, 75, 0
1, 56064, Note_off_c, 1, 65, 0
1, 56064, Note_off_c, 1, 60, 0
1, 56064, Note_off_c, 1, 53, 0
1, 56100, Note_on_c, 1, 75, 127
1, 56100, Note_on_c, 1, 67, 127
1, 56148, Note_off_c, 1, 75, 0
1, 56148, Note_off_c, 1, 67, 0
1, 56160, Note_on_c, 1, 68, 127
1, 56160, Note_on_c, 1, 74, 127
1, 56304, Note_off_c, 1, 68, 0
1, 56340, Note_on_c, 1, 65, 127
1, 56388, Note_off_c, 1, 65, 0
1, 56400, Note_on_c, 1, 63, 127
1, 56544, Note_off_c, 1, 63, 0
1, 56580, Note_on_c, 1, 62, 127
1, 56580, Note_on_c, 1, 59, 127
1, 56580, Note_on_c, 1, 56, 127
1, 56580, Note_on_c, 1, 53, 127
1, 56628, Note_off_c, 1, 62, 0
1, 56628, Note_off_c, 1, 59, 0
1, 56628, Note_off_c, 1, 56, 0
1, 56628, Note_off_c, 1, 53, 0
1, 56640, Note_on_c, 1, 67, 127
1, 56640, Note_on_c, 1, 55, 127
1, 56640, Note_on_c, 1, 51, 127
1, 56784, Note_off_c, 1, 67, 0
1, 56928, Note_off_c, 1, 74, 0
1, 57024, Note_off_c, 1, 55, 0
1, 57024, Note_off_c, 1, 51, 0
1, 57060, Note_on_c, 1, 65, 127
1, 57060, Note_on_c, 1, 74, 127
1, 57108, Note_off_c, 1, 65, 0
1, 57108, Note_off_c, 1, 74, 0
1, 57120, Note_on_c, 1, 67, 127
1, 57120, Note_on_c, 1, 72, 127
1, 57264, Note_off_c, 1, 67, 0
1, 57300, Note_on_c, 1, 63, 127
1, 57348, Note_off_c, 1, 63, 0
1, 57360, Note_on_c, 1, 62, 127
1, 57504, Note_off_c, 1, 62, 0
1, 57540, Note_on_c, 1, 60, 127
1, 57540, Note_on_c, 1, 55, 127
1, 57540, Note_on_c, 1, 51, 127
1, 57588, Note_off_c, 1, 60, 0
1, 57588, Note_off_c, 1, 55, 0
1, 57588, Note_off_c, 1, 51, 0
1, 57600, Note_on_c, 1, 65, 127
1, 57600, Note_on_c, 1, 53, 127
1, 57600, Note_on_c, 1, 50, 127
1, 57744, Note_off_c, 1, 65, 0
1, 57984, Note_off_c, 1, 53, 0
1, 57984, Note_off_c, 1, 50, 0
1, 58224, Note_off_c, 1, 72, 0
1, 58260, Note_on_c, 1, 71, 127
1, 58308, Note_off_c, 1, 71, 0
1, 58320, Note_on_c, 1, 69, 127
1, 58464, Note_off_c, 1, 69, 0
1, 58500, Note_on_c, 1, 59, 127
1, 58548, Note_off_c, 1, 59, 0
1, 58560, Note_on_c, 1, 56, 127
1, 58560, Note_on_c, 1, 48, 127
1, 58848, Note_off_c, 1, 56, 0
1, 58944, Note_off_c, 1, 48, 0
1, 59220, Note_on_c, 1, 75, 127
1, 59268, Note_off_c, 1, 75, 0
1, 59280, Note_on_c, 1, 74, 127
1, 59424, Note_off_c, 1, 74, 0
1, 59520, Note_on_c, 1, 47, 127
1, 59904, Note_off_c, 1, 47, 0
1, 60480, Note_on_c, 1, 43, 127
1, 60864, Note_off_c, 1, 43, 0
1, 62340, Note_on_c, 1, 39, 127
1, 62388, Note_off_c, 1, 39, 0
1, 62400, Note_on_c, 1, 41, 127
1, 62688, Note_off_c, 1, 41, 0
1, 64080, Note_on_c, 1, 57, 127
1, 64224, Note_off_c, 1, 57, 0
1, 64320, Note_on_c, 1, 44, 127
1, 64608, Note_off_c, 1, 44, 0
1, 65220, Note_on_c, 1, 45, 127
1, 65268, Note_off_c, 1, 45, 0
1, 66660, Note_on_c, 1, 68, 127
1, 66708, Note_off_c, 1, 68, 0
1, 67740, Note_on_c, 1, 70, 127
1, 67788, Note_off_c, 1, 70, 0
1, 67920, Note_on_c, 1, 65, 127
1, 67920, Note_on_c, 1, 53, 127
1, 67968, Note_off_c, 1, 65, 0
1, 67980, Note_on_c, 1, 63, 127
1, 68028, Note_off_c, 1, 63, 0
1, 68040, Note_on_c, 1, 62, 127
1, 68088, Note_off_c, 1, 62, 0
1, 68100, Note_on_c, 1, 60, 127
1, 68148, Note_off_c, 1, 60, 0
1, 68160, Note_on_c, 1, 59, 127
1, 68208, Note_off_c, 1, 59, 0
1, 68352, Note_off_c, 1, 53, 0
1, 68400, Note_on_c, 1, 60, 127
1, 68400, Note_on_c, 1, 51, 127
1, 68448, Note_off_c, 1, 60, 0
1, 68460, Note_on_c, 1, 63, 127
1, 68508, Note_off_c, 1, 63, 0
1, 68592, Note_off_c, 1, 51, 0
1, 68640, Note_on_c, 1, 60, 127
1, 68640, Note_on_c, 1, 50, 127
1, 68688, Note_off_c, 1, 60, 0
1, 68700, Note_on_c, 1, 65, 127
1, 68748, Note_off_c, 1, 65, 0
1, 68832, Note_off_c, 1, 50, 0
1, 68880, Note_on_c, 1, 59, 127
1, 68880, Note_on_c, 1, 55, 127
1, 68928, Note_off_c, 1, 59, 0
1, 68940, Note_on_c, 1, 65, 127
1, 68988, Note_off_c, 1, 65, 0
1, 69072, Note_off_c, 1, 55, 0
1, 69120, Note_on_c, 1, 63, 127
1, 69120, Note_on_c, 1, 60, 127
1, 69240, Note_on_c, 1, 79, 127
1, 69312, Note_off_c, 1, 63, 0
1, 69312, Note_off_c, 1, 60, 0
1, 69360, Note_on_c, 1, 62, 127
1, 69360, Note_on_c, 1, 58, 127
1, 69432, Note_off_c, 1, 79, 0
1, 69552, Note_off_c, 1, 62, 0
1, 69552, Note_off_c, 1, 58, 0
1, 69600, Note_on_c, 1, 57, 127
1, 69660, Note_on_c, 1, 77, 127
1, 69708, Note_off_c, 1, 77, 0
1, 69720, Note_on_c, 1, 75, 127
1, 69768, Note_off_c, 1, 75, 0
1, 69780, Note_on_c, 1, 74, 127
1, 69792, Note_off_c, 1, 57, 0
1, 69828, Note_off_c, 1, 74, 0
1, 69840, Note_on_c, 1, 72, 127
1, 69840, Note_on_c, 1, 62, 127
1, 69840, Note_on_c, 1, 58, 127
1, 69888, Note_off_c, 1, 72, 0
1, 69900, Note_on_c, 1, 70, 127
1, 69948, Note_off_c, 1, 70, 0
1, 69960, Note_on_c, 1, 69, 127
1, 70008, Note_off_c, 1, 69, 0
1, 70020, Note_on_c, 1, 67, 127
1, 70032, Note_off_c, 1, 62, 0
1, 70032, Note_off_c, 1, 58, 0
1, 70068, Note_off_c, 1, 67, 0
1, 70080, Note_on_c, 1, 66, 127
1, 70080, Note_on_c, 1, 63, 127
1, 70080, Note_on_c, 1, 60, 127
1, 70128, Note_off_c, 1, 66, 0
1, 70140, Note_on_c, 1, 69, 127
1, 70188, Note_off_c, 1, 69, 0
1, 70272, Note_off_c, 1, 63, 0
1, 70272, Note_off_c, 1, 60, 0
1, 70320, Note_on_c, 1, 67, 127
1, 70320, Note_on_c, 1, 62, 127
1, 70320, Note_on_c, 1, 58, 127
1, 70368, Note_off_c, 1, 67, 0
1, 70380, Note_on_c, 1, 70, 127
1, 70428, Note_off_c, 1, 70, 0
1, 70512, Note_off_c, 1, 62, 0
1, 70512, Note_off_c, 1, 58, 0
1, 70560, Note_on_c, 1, 67, 127
1, 70560, Note_on_c, 1, 60, 127
1, 70560, Note_on_c, 1, 57, 127
1, 70608, Note_off_c, 1, 67, 0
1, 70620, Note_on_c, 1, 72, 127
1, 70668, Note_off_c, 1, 72, 0
1, 70752, Note_off_c, 1, 60, 0
1, 70752, Note_off_c, 1, 57, 0
1, 70800, Note_on_c, 1, 66, 127
1, 70800, Note_on_c, 1, 62, 127
1, 70800, Note_on_c, 1, 50, 127
1, 70848, Note_off_c, 1, 66, 0
1, 70860, Note_on_c, 1, 72, 127
1, 70908, Note_off_c, 1, 72, 0
1, 70992, Note_off_c, 1, 50, 0
1, 71040, Note_on_c, 1, 70, 127
1, 71040, Note_on_c, 1, 55, 127
1, 71088, Note_off_c, 1, 70, 0
1, 71100, Note_on_c, 1, 69, 127
1, 71148, Note_off_c, 1, 69, 0
1, 71160, Note_on_c, 1, 67, 127
1, 71208, Note_off_c, 1, 67, 0
1, 71232, Note_off_c, 1, 55, 0
1, 71280, Note_on_c, 1, 58, 127
1, 71472, Note_off_c, 1, 58, 0
1, 71520, Note_on_c, 1, 75, 127
1, 71520, Note_on_c, 1, 48, 127
1, 71568, Note_off_c, 1, 62, 0
1, 71640, Note_on_c, 1, 60, 127
1, 71688, Note_off_c, 1, 60, 0
1, 71700, Note_on_c, 1, 59, 127
1, 71712, Note_off_c, 1, 48, 0
1, 71748, Note_off_c, 1, 59, 0
1, 71880, Note_on_c, 1, 57, 127
1, 71928, Note_off_c, 1, 57, 0
1, 72000, Note_on_c, 1, 53, 127
1, 72048, Note_off_c, 1, 75, 0
1, 72192, Note_off_c, 1, 53, 0
1, 72240, Note_on_c, 1, 69, 127
1, 72240, Note_on_c, 1, 60, 127
1, 72240, Note_on_c, 1, 51, 127
1, 72288, Note_off_c, 1, 69, 0
1, 72300, Note_on_c, 1, 72, 127
1, 72348, Note_off_c, 1, 72, 0
1, 72432, Note_off_c, 1, 51, 0
1, 72480, Note_on_c, 1, 77, 127
1, 72480, Note_on_c, 1, 50, 127
1, 72528, Note_off_c, 1, 60, 0
1, 72540, Note_on_c, 1, 63, 127
1, 72588, Note_off_c, 1, 63, 0
1, 72600, Note_on_c, 1, 62, 127
1, 72648, Note_off_c, 1, 62, 0
1, 72672, Note_off_c, 1, 50, 0
1, 72840, Note_on_c, 1, 59, 127
1, 72888, Note_off_c, 1, 59, 0
1, 72900, Note_on_c, 1, 57, 127
1, 72948, Note_off_c, 1, 57, 0
1, 72960, Note_on_c, 1, 55, 127
1, 73008, Note_off_c, 1, 77, 0
1, 73020, Note_on_c, 1, 80, 127
1, 73068, Note_off_c, 1, 80, 0
1, 73080, Note_on_c, 1, 79, 127
1, 73128, Note_off_c, 1, 79, 0
1, 73320, Note_on_c, 1, 75, 127
1, 73368, Note_off_c, 1, 75, 0
1, 73380, Note_on_c, 1, 74, 127
1, 73428, Note_off_c, 1, 74, 0
1, 73500, Note_on_c, 1, 68, 127
1, 73536, Note_off_c, 1, 55, 0
1, 73548, Note_off_c, 1, 68, 0
1, 73560, Note_on_c, 1, 67, 127
1, 73560, Note_on_c, 1, 75, 127
1, 73608, Note_off_c, 1, 67, 0
1, 73608, Note_off_c, 1, 75, 0
1, 73620, Note_on_c, 1, 74, 127
1, 73620, Note_on_c, 1, 65, 127
1, 73668, Note_off_c, 1, 74, 0
1, 73668, Note_off_c, 1, 65, 0
1, 73680, Note_on_c, 1, 67, 127
1, 73680, Note_on_c, 1, 75, 127
1, 73728, Note_off_c, 1, 67, 0
1, 73728, Note_off_c, 1, 75, 0
1, 73740, Note_on_c, 1, 65, 127
1, 73740, Note_on_c, 1, 74, 127
1, 73788, Note_off_c, 1, 65, 0
1, 73788, Note_off_c, 1, 74, 0
1, 73800, Note_on_c, 1, 72, 127
1, 73800, Note_on_c, 1, 63, 127
1, 73848, Note_off_c, 1, 72, 0
1, 73848, Note_off_c, 1, 63, 0
1, 73860, Note_on_c, 1, 62, 127
1, 73860, Note_on_c, 1, 71, 127
1, 73908, Note_off_c, 1, 62, 0
1, 73908, Note_off_c, 1, 71, 0
1, 73920, Note_on_c, 1, 72, 127
1, 73920, Note_on_c, 1, 63, 127
1, 74040, Note_on_c, 1, 60, 127
1, 74112, Note_off_c, 1, 72, 0
1, 74112, Note_off_c, 1, 63, 0
1, 74160, Note_on_c, 1, 65, 127
1, 74160, Note_on_c, 1, 74, 127
1, 74232, Note_off_c, 1, 60, 0
1, 74352, Note_off_c, 1, 65, 0
1, 74352, Note_off_c, 1, 74, 0
1, 74400, Note_on_c, 1, 67, 127
1, 74400, Note_on_c, 1, 75, 127
1, 74460, Note_on_c, 1, 58, 127
1, 74508, Note_off_c, 1, 58, 0
1, 74520, Note_on_c, 1, 56, 127
1, 74568, Note_off_c, 1, 56, 0
1, 74580, Note_on_c, 1, 55, 127
1, 74592, Note_off_c, 1, 67, 0
1, 74592, Note_off_c, 1, 75, 0
1, 74628, Note_off_c, 1, 55, 0
1, 74640, Note_on_c, 1, 68, 127
1, 74640, Note_on_c, 1, 77, 127
1, 74640, Note_on_c, 1, 53, 127
1, 74688, Note_off_c, 1, 53, 0
1, 74700, Note_on_c, 1, 51, 127
1, 74748, Note_off_c, 1, 51, 0
1, 74760, Note_on_c, 1, 50, 127
1, 74808, Note_off_c, 1, 50, 0
1, 74820, Note_on_c, 1, 48, 127
1, 74832, Note_off_c, 1, 68, 0
1, 74868, Note_off_c, 1, 48, 0
1, 74880, Note_on_c, 1, 67, 127
1, 74880, Note_on_c, 1, 47, 127
1, 74928, Note_off_c, 1, 47, 0
1, 75072, Note_off_c, 1, 77, 0
1, 75120, Note_on_c, 1, 75, 127
1, 75264, Note_off_c, 1, 67, 0
1, 75312, Note_off_c, 1, 75, 0
1, 75360, Note_on_c, 1, 74, 127
1, 75360, Note_on_c, 1, 68, 127
1, 75360, Note_on_c, 1, 48, 127
1, 75408, Note_off_c, 1, 48, 0
1, 75420, Note_on_c, 1, 53, 127
1, 75468, Note_off_c, 1, 53, 0
1, 75552, Note_off_c, 1, 74, 0
1, 75552, Note_off_c, 1, 68, 0
1, 75600, Note_on_c, 1, 79, 127
1, 75600, Note_on_c, 1, 67, 127
1, 75600, Note_on_c, 1, 47, 127
1, 75648, Note_off_c, 1, 47, 0
1, 75660, Note_on_c, 1, 53, 127
1, 75696, Note_off_c, 1, 79, 0
1, 75708, Note_off_c, 1, 53, 0
1, 75720, Note_on_c, 1, 74, 127
1, 75792, Note_off_c, 1, 67, 0
1, 75816, Note_off_c, 1, 74, 0
1, 75840, Note_on_c, 1, 67, 127
1, 75840, Note_on_c, 1, 75, 127
1, 75840, Note_on_c, 1, 48, 127
1, 75888, Note_off_c, 1, 48, 0
1, 75900, Note_on_c, 1, 53, 127
1, 75948, Note_off_c, 1, 53, 0
1, 75960, Note_on_c, 1, 51, 127
1, 76008, Note_off_c, 1, 51, 0
1, 76020, Note_on_c, 1, 50, 127
1, 76032, Note_off_c, 1, 67, 0
1, 76068, Note_off_c, 1, 50, 0
1, 76080, Note_on_c, 1, 72, 127
1, 76140, Note_on_c, 1, 55, 127
1, 76176, Note_off_c, 1, 72, 0
1, 76188, Note_off_c, 1, 55, 0
1, 76320, Note_on_c, 1, 68, 127
1, 76320, Note_on_c, 1, 41, 127
1, 76368, Note_off_c, 1, 41, 0
1, 76416, Note_off_c, 1, 75, 0
1, 76620, Note_on_c, 1, 56, 127
1, 76668, Note_off_c, 1, 56, 0
1, 76680, Note_on_c, 1, 77, 127
1, 76776, Note_off_c, 1, 77, 0
1, 76800, Note_on_c, 1, 74, 127
1, 76800, Note_on_c, 1, 46, 127
1, 76848, Note_off_c, 1, 46, 0
1, 76896, Note_off_c, 1, 68, 0
1, 77040, Note_on_c, 1, 65, 127
1, 77136, Note_off_c, 1, 65, 0
1, 77160, Note_on_c, 1, 70, 127
1, 77256, Note_off_c, 1, 70, 0
1, 77280, Note_on_c, 1, 39, 127
1, 77328, Note_off_c, 1, 39, 0
1, 77376, Note_off_c, 1, 74, 0
1, 77520, Note_on_c, 1, 73, 127
1, 77712, Note_off_c, 1, 73, 0
1, 77760, Note_on_c, 1, 67, 127
1, 77760, Note_on_c, 1, 72, 127
1, 77760, Note_on_c, 1, 44, 127
1, 77808, Note_off_c, 1, 67, 0
1, 77808, Note_off_c, 1, 44, 0
1, 77820, Note_on_c, 1, 70, 127
1, 77820, Note_on_c, 1, 55, 127
1, 77868, Note_off_c, 1, 70, 0
1, 77868, Note_off_c, 1, 55, 0
1, 77880, Note_on_c, 1, 68, 127
1, 77880, Note_on_c, 1, 53, 127
1, 77928, Note_off_c, 1, 68, 0
1, 77928, Note_off_c, 1, 53, 0
1, 77940, Note_on_c, 1, 51, 127
1, 77988, Note_off_c, 1, 51, 0
1, 78120, Note_on_c, 1, 65, 127
1, 78120, Note_on_c, 1, 50, 127
1, 78168, Note_off_c, 1, 65, 0
1, 78168, Note_off_c, 1, 50, 0
1, 78180, Note_on_c, 1, 63, 127
1, 78180, Note_on_c, 1, 48, 127
1, 78228, Note_off_c, 1, 63, 0
1, 78228, Note_off_c, 1, 48, 0
1, 78240, Note_on_c, 1, 62, 127
1, 78240, Note_on_c, 1, 46, 127
1, 78288, Note_off_c, 1, 72, 0
1, 78288, Note_off_c, 1, 46, 0
1, 78300, Note_on_c, 1, 56, 127
1, 78348, Note_off_c, 1, 56, 0
1, 78432, Note_off_c, 1, 62, 0
1, 78480, Note_on_c, 1, 70, 127
1, 78480, Note_on_c, 1, 55, 127
1, 78528, Note_off_c, 1, 70, 0
1, 78528, Note_off_c, 1, 55, 0
1, 78540, Note_on_c, 1, 68, 127
1, 78540, Note_on_c, 1, 53, 127
1, 78588, Note_off_c, 1, 68, 0
1, 78588, Note_off_c, 1, 53, 0
1, 78600, Note_on_c, 1, 67, 127
1, 78600, Note_on_c, 1, 51, 127
1, 78648, Note_off_c, 1, 67, 0
1, 78648, Note_off_c, 1, 51, 0
1, 78660, Note_on_c, 1, 65, 127
1, 78660, Note_on_c, 1, 50, 127
1, 78708, Note_off_c, 1, 65, 0
1, 78708, Note_off_c, 1, 50, 0
1, 78720, Note_on_c, 1, 63, 127
1, 78720, Note_on_c, 1, 48, 127
1, 78768, Note_off_c, 1, 63, 0
1, 78768, Note_off_c, 1, 48, 0
1, 78780, Note_on_c, 1, 67, 127
1, 78780, Note_on_c, 1, 58, 127
1, 78828, Note_off_c, 1, 67, 0
1, 78828, Note_off_c, 1, 58, 0
1, 78840, Note_on_c, 1, 65, 127
1, 78840, Note_on_c, 1, 56, 127
1, 78888, Note_off_c, 1, 65, 0
1, 78888, Note_off_c, 1, 56, 0
1, 78900, Note_on_c, 1, 63, 127
1, 78900, Note_on_c, 1, 55, 127
1, 78948, Note_off_c, 1, 63, 0
1, 78948, Note_off_c, 1, 55, 0
1, 78960, Note_on_c, 1, 72, 127
1, 78960, Note_on_c, 1, 56, 127
1, 79008, Note_off_c, 1, 56, 0
1, 79020, Note_on_c, 1, 55, 127
1, 79068, Note_off_c, 1, 55, 0
1, 79080, Note_on_c, 1, 53, 127
1, 79128, Note_off_c, 1, 53, 0
1, 79140, Note_on_c, 1, 51, 127
1, 79188, Note_off_c, 1, 51, 0
1, 79200, Note_on_c, 1, 50, 127
1, 79248, Note_off_c, 1, 72, 0
1, 79248, Note_off_c, 1, 50, 0
1, 79260, Note_on_c, 1, 75, 127
1, 79260, Note_on_c, 1, 60, 127
1, 79308, Note_off_c, 1, 75, 0
1, 79308, Note_off_c, 1, 60, 0
1, 79320, Note_on_c, 1, 74, 127
1, 79320, Note_on_c, 1, 58, 127
1, 79368, Note_off_c, 1, 74, 0
1, 79368, Note_off_c, 1, 58, 0
1, 79380, Note_on_c, 1, 72, 127
1, 79380, Note_on_c, 1, 56, 127
1, 79428, Note_off_c, 1, 72, 0
1, 79428, Note_off_c, 1, 56, 0
1, 79440, Note_on_c, 1, 77, 127
1, 79440, Note_on_c, 1, 58, 127
1, 79488, Note_off_c, 1, 58, 0
1, 79500, Note_on_c, 1, 56, 127
1, 79536, Note_off_c, 1, 77, 0
1, 79548, Note_off_c, 1, 56, 0
1, 79560, Note_on_c, 1, 68, 127
1, 79560, Note_on_c, 1, 55, 127
1, 79608, Note_off_c, 1, 55, 0
1, 79620, Note_on_c, 1, 53, 127
1, 79656, Note_off_c, 1, 68, 0
1, 79668, Note_off_c, 1, 53, 0
1, 79680, Note_on_c, 1, 67, 127
1, 79680, Note_on_c, 1, 51, 127
1, 79800, Note_on_c, 1, 75, 127
1, 79872, Note_off_c, 1, 67, 0
1, 79872, Note_off_c, 1, 51, 0
1, 79920, Note_on_c, 1, 68, 127
1, 79920, Note_on_c, 1, 53, 127
1, 79992, Note_off_c, 1, 75, 0
1, 80112, Note_off_c, 1, 68, 0
1, 80112, Note_off_c, 1, 53, 0
1, 80160, Note_on_c, 1, 55, 127
1, 80220, Note_on_c, 1, 74, 127
1, 80268, Note_off_c, 1, 74, 0
1, 80280, Note_on_c, 1, 72, 127
1, 80328, Note_off_c, 1, 72, 0
1, 80340, Note_on_c, 1, 70, 127
1, 80352, Note_off_c, 1, 55, 0
1, 80388, Note_off_c, 1, 70, 0
1, 80400, Note_on_c, 1, 68, 127
1, 80400, Note_on_c, 1, 72, 127
1, 80400, Note_on_c, 1, 56, 127
1, 80448, Note_off_c, 1, 68, 0
1, 80460, Note_on_c, 1, 67, 127
1, 80508, Note_off_c, 1, 67, 0
1, 80520, Note_on_c, 1, 65, 127
1, 80568, Note_off_c, 1, 65, 0
1, 80580, Note_on_c, 1, 63, 127
1, 80592, Note_off_c, 1, 72, 0
1, 80628, Note_off_c, 1, 63, 0
1, 80640, Note_on_c, 1, 62, 127
1, 80640, Note_on_c, 1, 70, 127
1, 80688, Note_off_c, 1, 62, 0
1, 80832, Note_off_c, 1, 56, 0
1, 80880, Note_on_c, 1, 55, 127
1, 81024, Note_off_c, 1, 70, 0
1, 81072, Note_off_c, 1, 55, 0
1, 81120, Note_on_c, 1, 63, 127
1, 81120, Note_on_c, 1, 72, 127
1, 81120, Note_on_c, 1, 53, 127
1, 81168, Note_off_c, 1, 63, 0
1, 81180, Note_on_c, 1, 68, 127
1, 81228, Note_off_c, 1, 68, 0
1, 81312, Note_off_c, 1, 72, 0
1, 81312, Note_off_c, 1, 53, 0
1, 81360, Note_on_c, 1, 62, 127
1, 81360, Note_on_c, 1, 70, 127
1, 81360, Note_on_c, 1, 58, 127
1, 81408, Note_off_c, 1, 62, 0
1, 81420, Note_on_c, 1, 68, 127
1, 81468, Note_off_c, 1, 68, 0
1, 81552, Note_off_c, 1, 58, 0
1, 81600, Note_on_c, 1, 67, 127
1, 81600, Note_on_c, 1, 51, 127
1, 81648, Note_off_c, 1, 67, 0
1, 81696, Note_off_c, 1, 51, 0
1, 81780, Note_on_c, 1, 65, 127
1, 81792, Note_off_c, 1, 70, 0
1, 81828, Note_off_c, 1, 65, 0
1, 81840, Note_on_c, 1, 67, 127
1, 81840, Note_on_c, 1, 63, 127
1, 81888, Note_off_c, 1, 67, 0
1, 81900, Note_on_c, 1, 70, 127
1, 81936, Note_off_c, 1, 63, 0
1, 81948, Note_off_c, 1, 70, 0
1, 81960, Note_on_c, 1, 67, 127
1, 81960, Note_on_c, 1, 62, 127
1, 82008, Note_off_c, 1, 67, 0
1, 82020, Note_on_c, 1, 70, 127
1, 82056, Note_off_c, 1, 62, 0
1, 82068, Note_off_c, 1, 70, 0
1, 82080, Note_on_c, 1, 63, 127
1, 82080, Note_on_c, 1, 60, 127
1, 82128, Note_off_c, 1, 63, 0
1, 82140, Note_on_c, 1, 74, 127
1, 82176, Note_off_c, 1, 60, 0
1, 82188, Note_off_c, 1, 74, 0
1, 82200, Note_on_c, 1, 72, 127
1, 82200, Note_on_c, 1, 63, 127
1, 82248, Note_off_c, 1, 72, 0
1, 82260, Note_on_c, 1, 70, 127
1, 82296, Note_off_c, 1, 63, 0
1, 82308, Note_off_c, 1, 70, 0
1, 82320, Note_on_c, 1, 72, 127
1, 82320, Note_on_c, 1, 57, 127
1, 82368, Note_off_c, 1, 72, 0
1, 82380, Note_on_c, 1, 75, 127
1, 82416, Note_off_c, 1, 57, 0
1, 82428, Note_off_c, 1, 75, 0
1, 82440, Note_on_c, 1, 72, 127
1, 82440, Note_on_c, 1, 60, 127
1, 82488, Note_off_c, 1, 72, 0
1, 82500, Note_on_c, 1, 75, 127
1, 82536, Note_off_c, 1, 60, 0
1, 82548, Note_off_c, 1, 75, 0
1, 82560, Note_on_c, 1, 69, 127
1, 82560, Note_on_c, 1, 53, 127
1, 82608, Note_off_c, 1, 69, 0
1, 82620, Note_on_c, 1, 70, 127
1, 82656, Note_off_c, 1, 53, 0
1, 82668, Note_off_c, 1, 70, 0
1, 82680, Note_on_c, 1, 69, 127
1, 82680, Note_on_c, 1, 60, 127
1, 82728, Note_off_c, 1, 69, 0
1, 82740, Note_on_c, 1, 67, 127
1, 82776, Note_off_c, 1, 60, 0
1, 82788, Note_off_c, 1, 67, 0
1, 82800, Note_on_c, 1, 69, 127
1, 82800, Note_on_c, 1, 65, 127
1, 82848, Note_off_c, 1, 69, 0
1, 82860, Note_on_c, 1, 72, 127
1, 82896, Note_off_c, 1, 65, 0
1, 82908, Note_off_c, 1, 72, 0
1, 82920, Note_on_c, 1, 69, 127
1, 82920, Note_on_c, 1, 63, 127
1, 82968, Note_off_c, 1, 69, 0
1, 82980, Note_on_c, 1, 72, 127
1, 83016, Note_off_c, 1, 63, 0
1, 83028, Note_off_c, 1, 72, 0
1, 83040, Note_on_c, 1, 65, 127
1, 83040, Note_on_c, 1, 62, 127
1, 83088, Note_off_c, 1, 65, 0
1, 83100, Note_on_c, 1, 75, 127
1, 83136, Note_off_c, 1, 62, 0
1, 83148, Note_off_c, 1, 75, 0
1, 83160, Note_on_c, 1, 74, 127
1, 83160, Note_on_c, 1, 65, 127
1, 83208, Note_off_c, 1, 74, 0
1, 83220, Note_on_c, 1, 72, 127
1, 83256, Note_off_c, 1, 65, 0
1, 83268, Note_off_c, 1, 72, 0
1, 83280, Note_on_c, 1, 74, 127
1, 83280, Note_on_c, 1, 58, 127
1, 83328, Note_off_c, 1, 74, 0
1, 83340, Note_on_c, 1, 77, 127
1, 83376, Note_off_c, 1, 58, 0
1, 83388, Note_off_c, 1, 77, 0
1, 83400, Note_on_c, 1, 74, 127
1, 83400, Note_on_c, 1, 62, 127
1, 83448, Note_off_c, 1, 74, 0
1, 83460, Note_on_c, 1, 77, 127
1, 83496, Note_off_c, 1, 62, 0
1, 83508, Note_off_c, 1, 77, 0
1, 83520, Note_on_c, 1, 70, 127
1, 83520, Note_on_c, 1, 55, 127
1, 83640, Note_on_c, 1, 82, 127
1, 83712, Note_off_c, 1, 70, 0
1, 83712, Note_off_c, 1, 55, 0
1, 83760, Note_on_c, 1, 72, 127
1, 83760, Note_on_c, 1, 51, 127
1, 83832, Note_off_c, 1, 82, 0
1, 83952, Note_off_c, 1, 72, 0
1, 83952, Note_off_c, 1, 51, 0
1, 84000, Note_on_c, 1, 74, 127
1, 84000, Note_on_c, 1, 53, 127
1, 84060, Note_on_c, 1, 81, 127
1, 84108, Note_off_c, 1, 81, 0
1, 84120, Note_on_c, 1, 79, 127
1, 84168, Note_off_c, 1, 79, 0
1, 84180, Note_on_c, 1, 77, 127
1, 84192, Note_off_c, 1, 74, 0
1, 84192, Note_off_c, 1, 53, 0
1, 84228, Note_off_c, 1, 77, 0
1, 84240, Note_on_c, 1, 75, 127
1, 84240, Note_on_c, 1, 55, 127
1, 84300, Note_on_c, 1, 74, 127
1, 84348, Note_off_c, 1, 74, 0
1, 84360, Note_on_c, 1, 72, 127
1, 84408, Note_off_c, 1, 72, 0
1, 84420, Note_on_c, 1, 70, 127
1, 84432, Note_off_c, 1, 55, 0
1, 84468, Note_off_c, 1, 70, 0
1, 84480, Note_on_c, 1, 69, 127
1, 84480, Note_on_c, 1, 53, 127
1, 84528, Note_off_c, 1, 69, 0
1, 84576, Note_off_c, 1, 53, 0
1, 84600, Note_on_c, 1, 46, 127
1, 84672, Note_off_c, 1, 75, 0
1, 84696, Note_off_c, 1, 46, 0
1, 84720, Note_on_c, 1, 70, 127
1, 84720, Note_on_c, 1, 62, 127
1, 84768, Note_off_c, 1, 70, 0
1, 84780, Note_on_c, 1, 74, 127
1, 84828, Note_off_c, 1, 74, 0
1, 84840, Note_on_c, 1, 65, 127
1, 84936, Note_off_c, 1, 65, 0
1, 84960, Note_on_c, 1, 67, 127
1, 85020, Note_on_c, 1, 75, 127
1, 85068, Note_off_c, 1, 75, 0
1, 85104, Note_off_c, 1, 62, 0
1, 85152, Note_off_c, 1, 67, 0
1, 85200, Note_on_c, 1, 69, 127
1, 85200, Note_on_c, 1, 65, 127
1, 85200, Note_on_c, 1, 60, 127
1, 85248, Note_off_c, 1, 69, 0
1, 85260, Note_on_c, 1, 75, 127
1, 85296, Note_off_c, 1, 65, 0
1, 85308, Note_off_c, 1, 75, 0
1, 85320, Note_on_c, 1, 63, 127
1, 85392, Note_off_c, 1, 60, 0
1, 85416, Note_off_c, 1, 63, 0
1, 85440, Note_on_c, 1, 74, 127
1, 85440, Note_on_c, 1, 65, 127
1, 85440, Note_on_c, 1, 58, 127
1, 85488, Note_off_c, 1, 74, 0
1, 85500, Note_on_c, 1, 72, 127
1, 85548, Note_off_c, 1, 72, 0
1, 85560, Note_on_c, 1, 70, 127
1, 85608, Note_off_c, 1, 70, 0
1, 85620, Note_on_c, 1, 69, 127
1, 85632, Note_off_c, 1, 58, 0
1, 85668, Note_off_c, 1, 69, 0
1, 85800, Note_on_c, 1, 62, 127
1, 85896, Note_off_c, 1, 62, 0
1, 85920, Note_on_c, 1, 79, 127
1, 85920, Note_on_c, 1, 63, 127
1, 85968, Note_off_c, 1, 79, 0
1, 85980, Note_on_c, 1, 80, 127
1, 86016, Note_off_c, 1, 63, 0
1, 86028, Note_off_c, 1, 80, 0
1, 86100, Note_on_c, 1, 77, 127
1, 86112, Note_off_c, 1, 65, 0
1, 86148, Note_off_c, 1, 77, 0
1, 86160, Note_on_c, 1, 79, 127
1, 86160, Note_on_c, 1, 63, 127
1, 86160, Note_on_c, 1, 60, 127
1, 86208, Note_off_c, 1, 79, 0
1, 86220, Note_on_c, 1, 77, 127
1, 86256, Note_off_c, 1, 60, 0
1, 86268, Note_off_c, 1, 77, 0
1, 86280, Note_on_c, 1, 75, 127
1, 86280, Note_on_c, 1, 58, 127
1, 86328, Note_off_c, 1, 75, 0
1, 86340, Note_on_c, 1, 74, 127
1, 86376, Note_off_c, 1, 58, 0
1, 86388, Note_off_c, 1, 74, 0
1, 86400, Note_on_c, 1, 72, 127
1, 86400, Note_on_c, 1, 57, 127
1, 86448, Note_off_c, 1, 72, 0
1, 86496, Note_off_c, 1, 57, 0
1, 86580, Note_on_c, 1, 70, 127
1, 86628, Note_off_c, 1, 70, 0
1, 86760, Note_on_c, 1, 55, 127
1, 86784, Note_off_c, 1, 63, 0
1, 86856, Note_off_c, 1, 55, 0
1, 86880, Note_on_c, 1, 81, 127
1, 86880, Note_on_c, 1, 62, 127
1, 86880, Note_on_c, 1, 54, 127
1, 86928, Note_off_c, 1, 81, 0
1, 86940, Note_on_c, 1, 82, 127
1, 86976, Note_off_c, 1, 54, 0
1, 86988, Note_off_c, 1, 82, 0
1, 87000, Note_on_c, 1, 50, 127
1, 87060, Note_on_c, 1, 79, 127
1, 87096, Note_off_c, 1, 50, 0
1, 87108, Note_off_c, 1, 79, 0
1, 87120, Note_on_c, 1, 78, 127
1, 87120, Note_on_c, 1, 52, 127
1, 87168, Note_off_c, 1, 78, 0
1, 87180, Note_on_c, 1, 76, 127
1, 87216, Note_off_c, 1, 52, 0
1, 87228, Note_off_c, 1, 76, 0
1, 87240, Note_on_c, 1, 74, 127
1, 87288, Note_off_c, 1, 74, 0
1, 87300, Note_on_c, 1, 72, 127
1, 87348, Note_off_c, 1, 72, 0
1, 87360, Note_on_c, 1, 70, 127
1, 87360, Note_on_c, 1, 55, 127
1, 87408, Note_off_c, 1, 70, 0
1, 87456, Note_off_c, 1, 55, 0
1, 87480, Note_on_c, 1, 67, 127
1, 87552, Note_off_c, 1, 62, 0
1, 87600, Note_on_c, 1, 69, 127
1, 87660, Note_on_c, 1, 75, 127
1, 87672, Note_off_c, 1, 67, 0
1, 87708, Note_off_c, 1, 75, 0
1, 87792, Note_off_c, 1, 69, 0
1, 87900, Note_on_c, 1, 65, 127
1, 87948, Note_off_c, 1, 65, 0
1, 87960, Note_on_c, 1, 63, 127
1, 88008, Note_off_c, 1, 63, 0
1, 88080, Note_on_c, 1, 75, 127
1, 88080, Note_on_c, 1, 72, 127
1, 88080, Note_on_c, 1, 60, 127
1, 88128, Note_off_c, 1, 60, 0
1, 88140, Note_on_c, 1, 58, 127
1, 88188, Note_off_c, 1, 58, 0
1, 88200, Note_on_c, 1, 57, 127
1, 88248, Note_off_c, 1, 57, 0
1, 88260, Note_on_c, 1, 55, 127
1, 88272, Note_off_c, 1, 75, 0
1, 88308, Note_off_c, 1, 55, 0
1, 88320, Note_on_c, 1, 74, 127
1, 88320, Note_on_c, 1, 54, 127
1, 88368, Note_off_c, 1, 54, 0
1, 88512, Note_off_c, 1, 72, 0
1, 88560, Note_on_c, 1, 70, 127
1, 88704, Note_off_c, 1, 74, 0
1, 88752, Note_off_c, 1, 70, 0
1, 88800, Note_on_c, 1, 75, 127
1, 88800, Note_on_c, 1, 69, 127
1, 88800, Note_on_c, 1, 55, 127
1, 88848, Note_off_c, 1, 55, 0
1, 88860, Note_on_c, 1, 60, 127
1, 88908, Note_off_c, 1, 60, 0
1, 88992, Note_off_c, 1, 75, 0
1, 89040, Note_on_c, 1, 74, 127
1, 89040, Note_on_c, 1, 54, 127
1, 89088, Note_off_c, 1, 54, 0
1, 89184, Note_off_c, 1, 69, 0
1, 89280, Note_on_c, 1, 70, 127
1, 89328, Note_off_c, 1, 70, 0
1, 89400, Note_on_c, 1, 67, 127
1, 89400, Note_on_c, 1, 58, 127
1, 89448, Note_off_c, 1, 67, 0
1, 89448, Note_off_c, 1, 58, 0
1, 89460, Note_on_c, 1, 66, 127
1, 89460, Note_on_c, 1, 57, 127
1, 89508, Note_off_c, 1, 66, 0
1, 89508, Note_off_c, 1, 57, 0
1, 89580, Note_on_c, 1, 62, 127
1, 89628, Note_off_c, 1, 62, 0
1, 89760, Note_on_c, 1, 63, 127
1, 89760, Note_on_c, 1, 48, 127
1, 89808, Note_off_c, 1, 74, 0
1, 89808, Note_off_c, 1, 48, 0
1, 89820, Note_on_c, 1, 77, 127
1, 89856, Note_off_c, 1, 63, 0
1, 89868, Note_off_c, 1, 77, 0
1, 89880, Note_on_c, 1, 75, 127
1, 89880, Note_on_c, 1, 60, 127
1, 89928, Note_off_c, 1, 75, 0
1, 89928, Note_off_c, 1, 60, 0
1, 89940, Note_on_c, 1, 74, 127
1, 89940, Note_on_c, 1, 58, 127
1, 89988, Note_off_c, 1, 74, 0
1, 89988, Note_off_c, 1, 58, 0
1, 90000, Note_on_c, 1, 75, 127
1, 90000, Note_on_c, 1, 60, 127
1, 90048, Note_off_c, 1, 75, 0
1, 90048, Note_off_c, 1, 60, 0
1, 90060, Note_on_c, 1, 79, 127
1, 90060, Note_on_c, 1, 63, 127
1, 90108, Note_off_c, 1, 79, 0
1, 90108, Note_off_c, 1, 63, 0
1, 90120, Note_on_c, 1, 75, 127
1, 90120, Note_on_c, 1, 60, 127
1, 90168, Note_off_c, 1, 75, 0
1, 90168, Note_off_c, 1, 60, 0
1, 90180, Note_on_c, 1, 79, 127
1, 90180, Note_on_c, 1, 63, 127
1, 90228, Note_off_c, 1, 79, 0
1, 90228, Note_off_c, 1, 63, 0
1, 90240, Note_on_c, 1, 80, 127
1, 90240, Note_on_c, 1, 53, 127
1, 90288, Note_off_c, 1, 53, 0
1, 90300, Note_on_c, 1, 79, 127
1, 90300, Note_on_c, 1, 58, 127
1, 90348, Note_off_c, 1, 79, 0
1, 90348, Note_off_c, 1, 58, 0
1, 90360, Note_on_c, 1, 77, 127
1, 90360, Note_on_c, 1, 56, 127
1, 90408, Note_off_c, 1, 77, 0
1, 90408, Note_off_c, 1, 56, 0
1, 90420, Note_on_c, 1, 75, 127
1, 90420, Note_on_c, 1, 55, 127
1, 90468, Note_off_c, 1, 75, 0
1, 90468, Note_off_c, 1, 55, 0
1, 90540, Note_on_c, 1, 60, 127
1, 90588, Note_off_c, 1, 60, 0
1, 90720, Note_on_c, 1, 46, 127
1, 90768, Note_off_c, 1, 46, 0
1, 90840, Note_on_c, 1, 74, 127
1, 90888, Note_off_c, 1, 74, 0
1, 90900, Note_on_c, 1, 72, 127
1, 90948, Note_off_c, 1, 72, 0
1, 91020, Note_on_c, 1, 62, 127
1, 91068, Note_off_c, 1, 62, 0
1, 91140, Note_off_c, 1, 80, 0
1, 91200, Note_on_c, 1, 51, 127
1, 91248, Note_off_c, 1, 51, 0
1, 91680, Note_on_c, 1, 44, 127
1, 91728, Note_off_c, 1, 44, 0
1, 91860, Note_on_c, 1, 71, 127
1, 91908, Note_off_c, 1, 71, 0
1, 92160, Note_on_c, 1, 49, 127
1, 92208, Note_off_c, 1, 49, 0
1, 92280, Note_on_c, 1, 73, 127
1, 92328, Note_off_c, 1, 73, 0
1, 92340, Note_on_c, 1, 52, 127
1, 92388, Note_off_c, 1, 52, 0
1, 92640, Note_on_c, 1, 43, 127
1, 92688, Note_off_c, 1, 43, 0
1, 92760, Note_on_c, 1, 70, 127
1, 92808, Note_off_c, 1, 70, 0
1, 92820, Note_on_c, 1, 68, 127
1, 92868, Note_off_c, 1, 68, 0
1, 93120, Note_on_c, 1, 76, 127
1, 93120, Note_on_c, 1, 48, 127
1, 93312, Note_off_c, 1, 48, 0
1, 93360, Note_on_c, 1, 67, 127
1, 93408, Note_off_c, 1, 67, 0
1, 93420, Note_on_c, 1, 65, 127
1, 93468, Note_off_c, 1, 65, 0
1, 93480, Note_on_c, 1, 64, 127
1, 93504, Note_off_c, 1, 76, 0
1, 93528, Note_off_c, 1, 64, 0
1, 93540, Note_on_c, 1, 62, 127
1, 93588, Note_off_c, 1, 62, 0
1, 93600, Note_on_c, 1, 60, 127
1, 93888, Note_off_c, 1, 60, 0
1, 93960, Note_on_c, 1, 79, 127
1, 93960, Note_on_c, 1, 72, 127
1, 93960, Note_on_c, 1, 67, 127
1, 93960, Note_on_c, 1, 46, 127
1, 93960, Note_on_c, 1, 52, 127
1, 94056, Note_off_c, 1, 79, 0
1, 94056, Note_off_c, 1, 46, 0
1, 94056, Note_off_c, 1, 52, 0
1, 94080, Note_off_c, 1, 67, 0
1, 94080, Note_on_c, 1, 58, 127
1, 94080, Note_on_c, 1, 60, 127
1, 94080, Note_on_c, 1, 53, 127
1, 94464, Note_off_c, 1, 58, 0
1, 94560, Note_on_c, 1, 77, 127
1, 94560, Note_on_c, 1, 56, 127
1, 94704, Note_off_c, 1, 53, 0
1, 94800, Note_on_c, 1, 55, 127
1, 94848, Note_off_c, 1, 72, 0
1, 94848, Note_off_c, 1, 60, 0
1, 94944, Note_off_c, 1, 77, 0
1, 94944, Note_off_c, 1, 55, 0
1, 95040, Note_on_c, 1, 73, 127
1, 95184, Note_off_c, 1, 73, 0
1, 95220, Note_on_c, 1, 75, 127
1, 95232, Note_off_c, 1, 56, 0
1, 95268, Note_off_c, 1, 75, 0
1, 95460, Note_on_c, 1, 72, 127
1, 95460, Note_on_c, 1, 56, 127
1, 95508, Note_off_c, 1, 72, 0
1, 95508, Note_off_c, 1, 56, 0
1, 95520, Note_on_c, 1, 73, 127
1, 95520, Note_on_c, 1, 75, 127
1, 95520, Note_on_c, 1, 55, 127
1, 95664, Note_off_c, 1, 73, 0
1, 95700, Note_on_c, 1, 70, 127
1, 95748, Note_off_c, 1, 70, 0
1, 95760, Note_on_c, 1, 68, 127
1, 95904, Note_off_c, 1, 55, 0
1, 95904, Note_off_c, 1, 68, 0
1, 95940, Note_on_c, 1, 67, 127
1, 95940, Note_on_c, 1, 58, 127
1, 95940, Note_on_c, 1, 51, 127
1, 95988, Note_off_c, 1, 67, 0
1, 95988, Note_off_c, 1, 58, 0
1, 95988, Note_off_c, 1, 51, 0
1, 96000, Note_on_c, 1, 60, 127
1, 96000, Note_on_c, 1, 72, 127
1, 96000, Note_on_c, 1, 56, 127
1, 96000, Note_on_c, 1, 44, 127
1, 96144, Note_off_c, 1, 60, 0
1, 96384, Note_off_c, 1, 56, 0
1, 96384, Note_off_c, 1, 44, 0
1, 96660, Note_on_c, 1, 63, 127
1, 96708, Note_off_c, 1, 63, 0
1, 96720, Note_on_c, 1, 61, 127
1, 96864, Note_off_c, 1, 61, 0
1, 96960, Note_on_c, 1, 65, 127
1, 96960, Note_on_c, 1, 49, 127
1, 97248, Note_off_c, 1, 75, 0
1, 97248, Note_off_c, 1, 72, 0
1, 97344, Note_off_c, 1, 65, 0
1, 97344, Note_off_c, 1, 49, 0
1, 97380, Note_on_c, 1, 75, 127
1, 97380, Note_on_c, 1, 72, 127
1, 97380, Note_on_c, 1, 56, 127
1, 97428, Note_off_c, 1, 75, 0
1, 97428, Note_off_c, 1, 72, 0
1, 97428, Note_off_c, 1, 56, 0
1, 97440, Note_on_c, 1, 70, 127
1, 97440, Note_on_c, 1, 65, 127
1, 97440, Note_on_c, 1, 73, 127
1, 97440, Note_on_c, 1, 58, 127
1, 97584, Note_off_c, 1, 58, 0
1, 97620, Note_on_c, 1, 53, 127
1, 97668, Note_off_c, 1, 53, 0
1, 97680, Note_on_c, 1, 55, 127
1, 97728, Note_off_c, 1, 70, 0
1, 97728, Note_off_c, 1, 65, 0
1, 97728, Note_off_c, 1, 73, 0
1, 97824, Note_off_c, 1, 55, 0
1, 97860, Note_on_c, 1, 65, 127
1, 97860, Note_on_c, 1, 72, 127
1, 97860, Note_on_c, 1, 68, 127
1, 97860, Note_on_c, 1, 56, 127
1, 97860, Note_on_c, 1, 50, 127
1, 97908, Note_off_c, 1, 65, 0
1, 97908, Note_off_c, 1, 72, 0
1, 97908, Note_off_c, 1, 68, 0
1, 97908, Note_off_c, 1, 56, 0
1, 97908, Note_off_c, 1, 50, 0
1, 97920, Note_on_c, 1, 63, 127
1, 97920, Note_on_c, 1, 72, 127
1, 97920, Note_on_c, 1, 68, 127
1, 97920, Note_on_c, 1, 51, 127
1, 98100, Note_on_c, 1, 56, 127
1, 98148, Note_off_c, 1, 56, 0
1, 98160, Note_on_c, 1, 60, 127
1, 98208, Note_off_c, 1, 63, 0
1, 98304, Note_off_c, 1, 72, 0
1, 98304, Note_off_c, 1, 68, 0
1, 98304, Note_off_c, 1, 60, 0
1, 98340, Note_on_c, 1, 65, 127
1, 98340, Note_on_c, 1, 62, 127
1, 98388, Note_off_c, 1, 65, 0
1, 98388, Note_off_c, 1, 62, 0
1, 98400, Note_on_c, 1, 70, 127
1, 98400, Note_on_c, 1, 67, 127
1, 98544, Note_off_c, 1, 51, 0
1, 98580, Note_on_c, 1, 55, 127
1, 98628, Note_off_c, 1, 55, 0
1, 98640, Note_on_c, 1, 53, 127
1, 98688, Note_off_c, 1, 70, 0
1, 98784, Note_off_c, 1, 67, 0
1, 98784, Note_off_c, 1, 53, 0
1, 98820, Note_on_c, 1, 75, 127
1, 98820, Note_on_c, 1, 60, 127
1, 98820, Note_on_c, 1, 56, 127
1, 98868, Note_off_c, 1, 75, 0
1, 98868, Note_off_c, 1, 60, 0
1, 98868, Note_off_c, 1, 56, 0
1, 98880, Note_on_c, 1, 75, 127
1, 98880, Note_on_c, 1, 77, 127
1, 98880, Note_on_c, 1, 61, 127
1, 98880, Note_on_c, 1, 55, 127
1, 98892, Note_off_c, 1, 77, 0
1, 99024, Note_off_c, 1, 61, 0
1, 99060, Note_on_c, 1, 72, 127
1, 99060, Note_on_c, 1, 63, 127
1, 99108, Note_off_c, 1, 72, 0
1, 99108, Note_off_c, 1, 63, 0
1, 99120, Note_on_c, 1, 70, 127
1, 99264, Note_off_c, 1, 55, 0
1, 99264, Note_off_c, 1, 70, 0
1, 99300, Note_on_c, 1, 68, 127
1, 99300, Note_on_c, 1, 60, 127
1, 99348, Note_off_c, 1, 68, 0
1, 99348, Note_off_c, 1, 60, 0
1, 99780, Note_on_c, 1, 51, 127
1, 99828, Note_off_c, 1, 51, 0
1, 99840, Note_on_c, 1, 56, 127
1, 100224, Note_off_c, 1, 56, 0
1, 100260, Note_on_c, 1, 67, 127
1, 100260, Note_on_c, 1, 58, 127
1, 100308, Note_off_c, 1, 67, 0
1, 100308, Note_off_c, 1, 58, 0
1, 100740, Note_on_c, 1, 49, 127
1, 100788, Note_off_c, 1, 49, 0
1, 100800, Note_on_c, 1, 48, 127
1, 101184, Note_off_c, 1, 48, 0
1, 101424, Note_off_c, 1, 75, 0
1, 101460, Note_on_c, 1, 74, 127
1, 101460, Note_on_c, 1, 65, 127
1, 101508, Note_off_c, 1, 74, 0
1, 101508, Note_off_c, 1, 65, 0
1, 101520, Note_on_c, 1, 75, 127
1, 101520, Note_on_c, 1, 58, 127
1, 101664, Note_off_c, 1, 75, 0
1, 101664, Note_off_c, 1, 58, 0
1, 101700, Note_on_c, 1, 77, 127
1, 101700, Note_on_c, 1, 56, 127
1, 101700, Note_on_c, 1, 50, 127
1, 101748, Note_off_c, 1, 77, 0
1, 101748, Note_off_c, 1, 56, 0
1, 101748, Note_off_c, 1, 50, 0
1, 101760, Note_on_c, 1, 70, 127
1, 101760, Note_on_c, 1, 55, 127
1, 101760, Note_on_c, 1, 51, 127
1, 101904, Note_off_c, 1, 55, 0
1, 101940, Note_on_c, 1, 65, 127
1, 101940, Note_on_c, 1, 56, 127
1, 101988, Note_off_c, 1, 65, 0
1, 101988, Note_off_c, 1, 56, 0
1, 102000, Note_on_c, 1, 63, 127
1, 102144, Note_off_c, 1, 51, 0
1, 102144, Note_off_c, 1, 63, 0
1, 102180, Note_on_c, 1, 62, 127
1, 102180, Note_on_c, 1, 53, 127
1, 102228, Note_off_c, 1, 62, 0
1, 102228, Note_off_c, 1, 53, 0
1, 102660, Note_on_c, 1, 58, 127
1, 102660, Note_on_c, 1, 49, 127
1, 102708, Note_off_c, 1, 58, 0
1, 102708, Note_off_c, 1, 49, 0
1, 102720, Note_on_c, 1, 48, 127
1, 103008, Note_off_c, 1, 70, 0
1, 103104, Note_off_c, 1, 48, 0
1, 103140, Note_on_c, 1, 70, 127
1, 103140, Note_on_c, 1, 61, 127
1, 103188, Note_off_c, 1, 70, 0
1, 103188, Note_off_c, 1, 61, 0
1, 103200, Note_on_c, 1, 68, 127
1, 103200, Note_on_c, 1, 63, 127
1, 103344, Note_off_c, 1, 63, 0
1, 103380, Note_on_c, 1, 56, 127
1, 103428, Note_off_c, 1, 56, 0
1, 103440, Note_on_c, 1, 60, 127
1, 103488, Note_off_c, 1, 68, 0
1, 103584, Note_off_c, 1, 60, 0
1, 103620, Note_on_c, 1, 72, 127
1, 103620, Note_on_c, 1, 63, 127
1, 103620, Note_on_c, 1, 48, 127
1, 103668, Note_off_c, 1, 72, 0
1, 103668, Note_off_c, 1, 63, 0
1, 103668, Note_off_c, 1, 48, 0
1, 103680, Note_on_c, 1, 68, 127
1, 103680, Note_on_c, 1, 73, 127
1, 103680, Note_on_c, 1, 41, 127
1, 103860, Note_on_c, 1, 77, 127
1, 103908, Note_off_c, 1, 77, 0
1, 103920, Note_on_c, 1, 79, 127
1, 103968, Note_off_c, 1, 68, 0
1, 103980, Note_on_c, 1, 67, 127
1, 104028, Note_off_c, 1, 67, 0
1, 104040, Note_on_c, 1, 65, 127
1, 104064, Note_off_c, 1, 73, 0
1, 104064, Note_off_c, 1, 41, 0
1, 104064, Note_off_c, 1, 79, 0
1, 104088, Note_off_c, 1, 65, 0
1, 104100, Note_on_c, 1, 80, 127
1, 104100, Note_on_c, 1, 63, 127
1, 104148, Note_off_c, 1, 80, 0
1, 104148, Note_off_c, 1, 63, 0
1, 104160, Note_on_c, 1, 61, 127
1, 104160, Note_on_c, 1, 82, 127
1, 104304, Note_off_c, 1, 61, 0
1, 104340, Note_on_c, 1, 70, 127
1, 104388, Note_off_c, 1, 70, 0
1, 104400, Note_on_c, 1, 63, 127
1, 104544, Note_off_c, 1, 63, 0
1, 104580, Note_on_c, 1, 43, 127
1, 104628, Note_off_c, 1, 43, 0
1, 104640, Note_on_c, 1, 60, 127
1, 104640, Note_on_c, 1, 44, 127
1, 104784, Note_off_c, 1, 60, 0
1, 104832, Note_off_c, 1, 82, 0
1, 104832, Note_off_c, 1, 44, 0
1, 104880, Note_on_c, 1, 80, 127
1, 104880, Note_on_c, 1, 75, 127
1, 104880, Note_on_c, 1, 63, 127
1, 104880, Note_on_c, 1, 48, 127
1, 105024, Note_off_c, 1, 63, 0
1, 105060, Note_on_c, 1, 56, 127
1, 105072, Note_off_c, 1, 80, 0
1, 105072, Note_off_c, 1, 48, 0
1, 105108, Note_off_c, 1, 56, 0
1, 105120, Note_on_c, 1, 77, 127
1, 105120, Note_on_c, 1, 60, 127
1, 105120, Note_on_c, 1, 49, 127
1, 105264, Note_off_c, 1, 75, 0
1, 105264, Note_off_c, 1, 60, 0
1, 105300, Note_on_c, 1, 73, 127
1, 105300, Note_on_c, 1, 58, 127
1, 105312, Note_off_c, 1, 49, 0
1, 105348, Note_off_c, 1, 73, 0
1, 105348, Note_off_c, 1, 58, 0
1, 105360, Note_on_c, 1, 72, 127
1, 105360, Note_on_c, 1, 51, 127
1, 105408, Note_off_c, 1, 77, 0
1, 105504, Note_off_c, 1, 72, 0
1, 105540, Note_on_c, 1, 70, 127
1, 105540, Note_on_c, 1, 55, 127
1, 105552, Note_off_c, 1, 51, 0
1, 105588, Note_off_c, 1, 70, 0
1, 105588, Note_off_c, 1, 55, 0
1, 105600, Note_on_c, 1, 73, 127
1, 105600, Note_on_c, 1, 70, 127
1, 105600, Note_on_c, 1, 55, 127
1, 105600, Note_on_c, 1, 63, 127
1, 105600, Note_on_c, 1, 44, 127
1, 105984, Note_off_c, 1, 73, 0
1, 105984, Note_off_c, 1, 70, 0
1, 105984, Note_off_c, 1, 55, 0
1, 106080, Note_on_c, 1, 68, 127
1, 106080, Note_on_c, 1, 72, 127
1, 106080, Note_on_c, 1, 56, 127
1, 106272, Note_off_c, 1, 68, 0
1, 106368, Note_off_c, 1, 63, 0
1, 106368, Note_off_c, 1, 44, 0
1, 106368, Note_off_c, 1, 72, 0
1, 106464, Note_off_c, 1, 56, 0
1, 106500, Note_on_c, 1, 68, 127
1, 106548, Note_off_c, 1, 68, 0
1, 106560, Note_on_c, 1, 75, 127
1, 106740, Note_off_c, 1, 75, 0
1, 106800, Note_on_c, 1, 68, 127
1, 106800, Note_on_c, 1, 77, 127
1, 106800, Note_on_c, 1, 61, 127
1, 106980, Note_off_c, 1, 68, 0
1, 106980, Note_off_c, 1, 77, 0
1, 106980, Note_off_c, 1, 61, 0
1, 107040, Note_on_c, 1, 67, 127
1, 107040, Note_on_c, 1, 73, 127
1, 107040, Note_on_c, 1, 75, 127
1, 107040, Note_on_c, 1, 58, 127
1, 107052, Note_off_c, 1, 75, 0
1, 107220, Note_off_c, 1, 67, 0
1, 107220, Note_off_c, 1, 58, 0
1, 107256, Note_off_c, 1, 73, 0
1, 107280, Note_on_c, 1, 72, 127
1, 107280, Note_on_c, 1, 68, 127
1, 107280, Note_on_c, 1, 56, 127
1, 107460, Note_off_c, 1, 68, 0
1, 107460, Note_off_c, 1, 56, 0
1, 107472, Note_off_c, 1, 72, 0
1, 107520, Note_on_c, 1, 61, 127
1, 107520, Note_on_c, 1, 63, 127
1, 107520, Note_on_c, 1, 55, 127
1, 107532, Note_off_c, 1, 63, 0
1, 107700, Note_off_c, 1, 55, 0
1, 107736, Note_off_c, 1, 61, 0
1, 107760, Note_on_c, 1, 60, 127
1, 107760, Note_on_c, 1, 56, 127
1, 107940, Note_off_c, 1, 56, 0
1, 107952, Note_off_c, 1, 60, 0
1, 108000, Note_on_c, 1, 44, 127
1, 108180, Note_off_c, 1, 44, 0
1, 108240, Note_on_c, 1, 73, 127
1, 108288, Note_off_c, 1, 73, 0
1, 108300, Note_on_c, 1, 72, 127
1, 108348, Note_off_c, 1, 72, 0
1, 108360, Note_on_c, 1, 70, 127
1, 108408, Note_off_c, 1, 70, 0
1, 108420, Note_on_c, 1, 68, 127
1, 108468, Note_off_c, 1, 68, 0
1, 108480, Note_on_c, 1, 75, 127
1, 108660, Note_off_c, 1, 75, 0
1, 108720, Note_on_c, 1, 77, 127
1, 108720, Note_on_c, 1, 68, 127
1, 108720, Note_on_c, 1, 61, 127
1, 108900, Note_off_c, 1, 77, 0
1, 108900, Note_off_c, 1, 68, 0
1, 108900, Note_off_c, 1, 61, 0
1, 108960, Note_on_c, 1, 67, 127
1, 108960, Note_on_c, 1, 73, 127
1, 108960, Note_on_c, 1, 75, 127
1, 108960, Note_on_c, 1, 58, 127
1, 108972, Note_off_c, 1, 75, 0
1, 109140, Note_off_c, 1, 67, 0
1, 109140, Note_off_c, 1, 58, 0
1, 109185, Note_off_c, 1, 73, 0
1, 109200, Note_on_c, 1, 68, 127
1, 109200, Note_on_c, 1, 72, 127
1, 109200, Note_on_c, 1, 56, 127
1, 109380, Note_off_c, 1, 68, 0
1, 109380, Note_off_c, 1, 56, 0
1, 109392, Note_off_c, 1, 72, 0
1, 109440, Note_on_c, 1, 61, 127
1, 109440, Note_on_c, 1, 63, 127
1, 109440, Note_on_c, 1, 55, 127
1, 109452, Note_off_c, 1, 63, 0
1, 109620, Note_off_c, 1, 55, 0
1, 109656, Note_off_c, 1, 61, 0
1, 109680, Note_on_c, 1, 60, 127
1, 109680, Note_on_c, 1, 56, 127
1, 109860, Note_off_c, 1, 56, 0
1, 109872, Note_off_c, 1, 60, 0
1, 109920, Note_on_c, 1, 44, 127
1, 110100, Note_off_c, 1, 44, 0
1, 110160, Note_on_c, 1, 68, 127
1, 110208, Note_off_c, 1, 68, 0
1, 110220, Note_on_c, 1, 67, 127
1, 110268, Note_off_c, 1, 67, 0
1, 110280, Note_on_c, 1, 65, 127
1, 110328, Note_off_c, 1, 65, 0
1, 110340, Note_on_c, 1, 63, 127
1, 110388, Note_off_c, 1, 63, 0
1, 110400, Note_on_c, 1, 70, 127
1, 110580, Note_off_c, 1, 70, 0
1, 110640, Note_on_c, 1, 72, 127
1, 110640, Note_on_c, 1, 75, 127
1, 110640, Note_on_c, 1, 56, 127
1, 110820, Note_off_c, 1, 72, 0
1, 110820, Note_off_c, 1, 75, 0
1, 110820, Note_off_c, 1, 56, 0
1, 110880, Note_on_c, 1, 74, 127
1, 110880, Note_on_c, 1, 68, 127
1, 110880, Note_on_c, 1, 70, 127
1, 110880, Note_on_c, 1, 53, 127
1, 110892, Note_off_c, 1, 70, 0
1, 111060, Note_off_c, 1, 74, 0
1, 111060, Note_off_c, 1, 53, 0
1, 111096, Note_off_c, 1, 68, 0
1, 111120, Note_on_c, 1, 67, 127
1, 111120, Note_on_c, 1, 75, 127
1, 111120, Note_on_c, 1, 51, 127
1, 111300, Note_off_c, 1, 67, 0
1, 111300, Note_off_c, 1, 75, 0
1, 111300, Note_off_c, 1, 51, 0
1, 111360, Note_on_c, 1, 56, 127
1, 111360, Note_on_c, 1, 58, 127
1, 111360, Note_on_c, 1, 50, 127
1, 111372, Note_off_c, 1, 58, 0
1, 111540, Note_off_c, 1, 50, 0
1, 111576, Note_off_c, 1, 56, 0
1, 111600, Note_on_c, 1, 55, 127
1, 111600, Note_on_c, 1, 51, 127
1, 111780, Note_off_c, 1, 55, 0
1, 111780, Note_off_c, 1, 51, 0
1, 111840, Note_on_c, 1, 39, 127
1, 112020, Note_off_c, 1, 39, 0
1, 112080, Note_on_c, 1, 68, 127
1, 112128, Note_off_c, 1, 68, 0
1, 112140, Note_on_c, 1, 67, 127
1, 112188, Note_off_c, 1, 67, 0
1, 112200, Note_on_c, 1, 65, 127
1, 112248, Note_off_c, 1, 65, 0
1, 112260, Note_on_c, 1, 63, 127
1, 112308, Note_off_c, 1, 63, 0
1, 112320, Note_on_c, 1, 70, 127
1, 112500, Note_off_c, 1, 70, 0
1, 112560, Note_on_c, 1, 75, 127
1, 112560, Note_on_c, 1, 72, 127
1, 112560, Note_on_c, 1, 56, 127
1, 112740, Note_off_c, 1, 75, 0
1, 112740, Note_off_c, 1, 72, 0
1, 112740, Note_off_c, 1, 56, 0
1, 112800, Note_on_c, 1, 74, 127
1, 112800, Note_on_c, 1, 68, 127
1, 112800, Note_on_c, 1, 70, 127
1, 112800, Note_on_c, 1, 53, 127
1, 112812, Note_off_c, 1, 70, 0
1, 112980, Note_off_c, 1, 74, 0
1, 112980, Note_off_c, 1, 53, 0
1, 113016, Note_off_c, 1, 68, 0
1, 113040, Note_on_c, 1, 75, 127
1, 113040, Note_on_c, 1, 67, 127
1, 113040, Note_on_c, 1, 51, 127
1, 113220, Note_off_c, 1, 75, 0
1, 113220, Note_off_c, 1, 67, 0
1, 113220, Note_off_c, 1, 51, 0
1, 113280, Note_on_c, 1, 56, 127
1, 113280, Note_on_c, 1, 58, 127
1, 113280, Note_on_c, 1, 50, 127
1, 113292, Note_off_c, 1, 58, 0
1, 113460, Note_off_c, 1, 50, 0
1, 113520, Note_off_c, 1, 56, 0
1, 113520, Note_on_c, 1, 55, 127
1, 113520, Note_on_c, 1, 51, 127
1, 113700, Note_off_c, 1, 55, 0
1, 113700, Note_off_c, 1, 51, 0
1, 113760, Note_on_c, 1, 39, 127
1, 113940, Note_off_c, 1, 39, 0
1, 114000, Note_on_c, 1, 63, 127
1, 114000, Note_on_c, 1, 70, 127
1, 114120, Note_on_c, 1, 79, 127
1, 114192, Note_off_c, 1, 63, 0
1, 114192, Note_off_c, 1, 70, 0
1, 114240, Note_on_c, 1, 68, 127
1, 114240, Note_on_c, 1, 72, 127
1, 114360, Note_off_c, 1, 79, 0
1, 114360, Note_on_c, 1, 76, 127
1, 114432, Note_off_c, 1, 68, 0
1, 114432, Note_off_c, 1, 72, 0
1, 114480, Note_on_c, 1, 67, 127
1, 114552, Note_off_c, 1, 76, 0
1, 114600, Note_on_c, 1, 77, 127
1, 114672, Note_off_c, 1, 67, 0
1, 114768, Note_off_c, 1, 77, 0
1, 114780, Note_on_c, 1, 80, 127
1, 114828, Note_off_c, 1, 80, 0
1, 114840, Note_on_c, 1, 82, 127
1, 114888, Note_off_c, 1, 82, 0
1, 114900, Note_on_c, 1, 84, 127
1, 114948, Note_off_c, 1, 84, 0
1, 114960, Note_on_c, 1, 82, 127
1, 114960, Note_on_c, 1, 65, 127
1, 115008, Note_off_c, 1, 82, 0
1, 115020, Note_on_c, 1, 80, 127
1, 115068, Note_off_c, 1, 80, 0
1, 115080, Note_on_c, 1, 79, 127
1, 115128, Note_off_c, 1, 79, 0
1, 115140, Note_on_c, 1, 77, 127
1, 115152, Note_off_c, 1, 65, 0
1, 115200, Note_on_c, 1, 70, 127
1, 115200, Note_on_c, 1, 67, 127
1, 115296, Note_off_c, 1, 77, 0
1, 115320, Note_on_c, 1, 74, 127
1, 115392, Note_off_c, 1, 70, 0
1, 115392, Note_off_c, 1, 67, 0
1, 115440, Note_on_c, 1, 68, 127
1, 115512, Note_off_c, 1, 74, 0
1, 115560, Note_on_c, 1, 75, 127
1, 115632, Note_off_c, 1, 68, 0
1, 115728, Note_off_c, 1, 75, 0
1, 115920, Note_on_c, 1, 80, 127
1, 115920, Note_on_c, 1, 63, 127
1, 115968, Note_off_c, 1, 80, 0
1, 115980, Note_on_c, 1, 79, 127
1, 116028, Note_off_c, 1, 79, 0
1, 116040, Note_on_c, 1, 77, 127
1, 116088, Note_off_c, 1, 77, 0
1, 116100, Note_on_c, 1, 75, 127
1, 116112, Note_off_c, 1, 63, 0
1, 116160, Note_on_c, 1, 68, 127
1, 116160, Note_on_c, 1, 65, 127
1, 116256, Note_off_c, 1, 75, 0
1, 116280, Note_on_c, 1, 72, 127
1, 116352, Note_off_c, 1, 68, 0
1, 116352, Note_off_c, 1, 65, 0
1, 116400, Note_on_c, 1, 67, 127
1, 116472, Note_off_c, 1, 72, 0
1, 116520, Note_on_c, 1, 74, 127
1, 116592, Note_off_c, 1, 67, 0
1, 116688, Note_off_c, 1, 74, 0
1, 116880, Note_on_c, 1, 77, 127
1, 116880, Note_on_c, 1, 60, 127
1, 116928, Note_off_c, 1, 77, 0
1, 116940, Note_on_c, 1, 75, 127
1, 116988, Note_off_c, 1, 75, 0
1, 117000, Note_on_c, 1, 74, 127
1, 117048, Note_off_c, 1, 74, 0
1, 117060, Note_on_c, 1, 72, 127
1, 117072, Note_off_c, 1, 60, 0
1, 117120, Note_on_c, 1, 65, 127
1, 117120, Note_on_c, 1, 62, 127
1, 117216, Note_off_c, 1, 72, 0
1, 117240, Note_on_c, 1, 69, 127
1, 117312, Note_off_c, 1, 65, 0
1, 117312, Note_off_c, 1, 62, 0
1, 117360, Note_on_c, 1, 63, 127
1, 117432, Note_off_c, 1, 69, 0
1, 117480, Note_on_c, 1, 70, 127
1, 117552, Note_off_c, 1, 63, 0
1, 117696, Note_off_c, 1, 70, 0
1, 117720, Note_on_c, 1, 80, 127
1, 117840, Note_on_c, 1, 58, 127
1, 117912, Note_off_c, 1, 80, 0
1, 117960, Note_on_c, 1, 78, 127
1, 118032, Note_off_c, 1, 58, 0
1, 118080, Note_on_c, 1, 51, 127
1, 118128, Note_off_c, 1, 78, 0
1, 118272, Note_off_c, 1, 51, 0
1, 118320, Note_on_c, 1, 82, 127
1, 118320, Note_on_c, 1, 53, 127
1, 118512, Note_off_c, 1, 53, 0
1, 118560, Note_on_c, 1, 54, 127
1, 118656, Note_off_c, 1, 82, 0
1, 118680, Note_on_c, 1, 81, 127
1, 118728, Note_off_c, 1, 81, 0
1, 118752, Note_off_c, 1, 54, 0
1, 118800, Note_on_c, 1, 83, 127
1, 118800, Note_on_c, 1, 51, 127
1, 118848, Note_off_c, 1, 83, 0
1, 118860, Note_on_c, 1, 82, 127
1, 118908, Note_off_c, 1, 82, 0
1, 118920, Note_on_c, 1, 81, 127
1, 118968, Note_off_c, 1, 81, 0
1, 118992, Note_off_c, 1, 51, 0
1, 119040, Note_on_c, 1, 75, 127
1, 119040, Note_on_c, 1, 58, 127
1, 119136, Note_off_c, 1, 75, 0
1, 119160, Note_on_c, 1, 74, 127
1, 119232, Note_off_c, 1, 58, 0
1, 119280, Note_on_c, 1, 60, 127
1, 119328, Note_off_c, 1, 74, 0
1, 119400, Note_on_c, 1, 77, 127
1, 119448, Note_off_c, 1, 77, 0
1, 119472, Note_off_c, 1, 60, 0
1, 119520, Note_on_c, 1, 70, 127
1, 119520, Note_on_c, 1, 62, 127
1, 119616, Note_off_c, 1, 70, 0
1, 119640, Note_on_c, 1, 80, 127
1, 119712, Note_off_c, 1, 62, 0
1, 119760, Note_on_c, 1, 58, 127
1, 119832, Note_off_c, 1, 80, 0
1, 119880, Note_on_c, 1, 78, 127
1, 119952, Note_off_c, 1, 58, 0
1, 120000, Note_on_c, 1, 63, 127
1, 120057, Note_off_c, 1, 78, 0
1, 120060, Note_on_c, 1, 75, 127
1, 120108, Note_off_c, 1, 75, 0
1, 120120, Note_on_c, 1, 74, 127
1, 120168, Note_off_c, 1, 74, 0
1, 120192, Note_off_c, 1, 63, 0
1, 120240, Note_on_c, 1, 65, 127
1, 120240, Note_on_c, 1, 82, 127
1, 120432, Note_off_c, 1, 65, 0
1, 120480, Note_on_c, 1, 66, 127
1, 120576, Note_off_c, 1, 82, 0
1, 120600, Note_on_c, 1, 81, 127
1, 120648, Note_off_c, 1, 81, 0
1, 120672, Note_off_c, 1, 66, 0
1, 120720, Note_on_c, 1, 83, 127
1, 120720, Note_on_c, 1, 66, 127
1, 120720, Note_on_c, 1, 63, 127
1, 120768, Note_off_c, 1, 83, 0
1, 120780, Note_on_c, 1, 82, 127
1, 120828, Note_off_c, 1, 82, 0
1, 120840, Note_on_c, 1, 81, 127
1, 120888, Note_off_c, 1, 81, 0
1, 120912, Note_off_c, 1, 66, 0
1, 120912, Note_off_c, 1, 63, 0
1, 120960, Note_on_c, 1, 75, 127
1, 120960, Note_on_c, 1, 68, 127
1, 120960, Note_on_c, 1, 65, 127
1, 121056, Note_off_c, 1, 75, 0
1, 121080, Note_on_c, 1, 74, 127
1, 121152, Note_off_c, 1, 68, 0
1, 121152, Note_off_c, 1, 65, 0
1, 121200, Note_on_c, 1, 63, 127
1, 121200, Note_on_c, 1, 66, 127
1, 121248, Note_off_c, 1, 74, 0
1, 121320, Note_on_c, 1, 77, 127
1, 121368, Note_off_c, 1, 77, 0
1, 121392, Note_off_c, 1, 63, 0
1, 121392, Note_off_c, 1, 66, 0
1, 121440, Note_on_c, 1, 70, 127
1, 121440, Note_on_c, 1, 65, 127
1, 121440, Note_on_c, 1, 62, 127
1, 121536, Note_off_c, 1, 70, 0
1, 121560, Note_on_c, 1, 80, 127
1, 121632, Note_off_c, 1, 65, 0
1, 121632, Note_off_c, 1, 62, 0
1, 121680, Note_on_c, 1, 58, 127
1, 121752, Note_off_c, 1, 80, 0
1, 121800, Note_on_c, 1, 78, 127
1, 121872, Note_off_c, 1, 58, 0
1, 121920, Note_on_c, 1, 63, 127
1, 122016, Note_off_c, 1, 78, 0
1, 122040, Note_on_c, 1, 77, 127
1, 122088, Note_off_c, 1, 77, 0
1, 122100, Note_on_c, 1, 75, 127
1, 122112, Note_off_c, 1, 63, 0
1, 122148, Note_off_c, 1, 75, 0
1, 122160, Note_on_c, 1, 77, 127
1, 122160, Note_on_c, 1, 56, 127
1, 122160, Note_on_c, 1, 68, 127
1, 122256, Note_off_c, 1, 77, 0
1, 122280, Note_on_c, 1, 72, 127
1, 122352, Note_off_c, 1, 56, 0
1, 122352, Note_off_c, 1, 68, 0
1, 122376, Note_off_c, 1, 72, 0
1, 122400, Note_on_c, 1, 75, 127
1, 122400, Note_on_c, 1, 66, 127
1, 122400, Note_on_c, 1, 58, 127
1, 122592, Note_off_c, 1, 75, 0
1, 122592, Note_off_c, 1, 66, 0
1, 122640, Note_on_c, 1, 74, 127
1, 122640, Note_on_c, 1, 65, 127
1, 122784, Note_off_c, 1, 58, 0
1, 122808, Note_off_c, 1, 74, 0
1, 122832, Note_off_c, 1, 65, 0
1, 122880, Note_on_c, 1, 75, 127
1, 122880, Note_on_c, 1, 63, 127
1, 123060, Note_on_c, 1, 68, 127
1, 123060, Note_on_c, 1, 72, 127
1, 123108, Note_off_c, 1, 68, 0
1, 123108, Note_off_c, 1, 72, 0
1, 123120, Note_on_c, 1, 67, 127
1, 123120, Note_on_c, 1, 70, 127
1, 123264, Note_off_c, 1, 67, 0
1, 123264, Note_off_c, 1, 70, 0
1, 123300, Note_on_c, 1, 65, 127
1, 123348, Note_off_c, 1, 65, 0
1, 123504, Note_off_c, 1, 63, 0
1, 123540, Note_on_c, 1, 60, 127
1, 123588, Note_off_c, 1, 60, 0
1, 123600, Note_on_c, 1, 58, 127
1, 123744, Note_off_c, 1, 58, 0
1, 123780, Note_on_c, 1, 62, 127
1, 123780, Note_on_c, 1, 56, 127
1, 123828, Note_off_c, 1, 62, 0
1, 123828, Note_off_c, 1, 56, 0
1, 123840, Note_on_c, 1, 39, 127
1, 124032, Note_off_c, 1, 75, 0
1, 124032, Note_off_c, 1, 39, 0
1, 124080, Note_on_c, 1, 41, 127
1, 124272, Note_off_c, 1, 41, 0
1, 124320, Note_on_c, 1, 43, 127
1, 124512, Note_off_c, 1, 43, 0
1, 124560, Note_on_c, 1, 56, 127
1, 124560, Note_on_c, 1, 44, 127
1, 124608, Note_off_c, 1, 56, 0
1, 124620, Note_on_c, 1, 55, 127
1, 124668, Note_off_c, 1, 55, 0
1, 124680, Note_on_c, 1, 53, 127
1, 124728, Note_off_c, 1, 53, 0
1, 124740, Note_on_c, 1, 51, 127
1, 124788, Note_off_c, 1, 51, 0
1, 124800, Note_on_c, 1, 50, 127
1, 124848, Note_off_c, 1, 50, 0
1, 124992, Note_off_c, 1, 44, 0
1, 125040, Note_on_c, 1, 51, 127
1, 125040, Note_on_c, 1, 43, 127
1, 125088, Note_off_c, 1, 51, 0
1, 125100, Note_on_c, 1, 55, 127
1, 125148, Note_off_c, 1, 55, 0
1, 125232, Note_off_c, 1, 43, 0
1, 125280, Note_on_c, 1, 51, 127
1, 125280, Note_on_c, 1, 41, 127
1, 125328, Note_off_c, 1, 51, 0
1, 125340, Note_on_c, 1, 56, 127
1, 125388, Note_off_c, 1, 56, 0
1, 125472, Note_off_c, 1, 41, 0
1, 125520, Note_on_c, 1, 50, 127
1, 125520, Note_on_c, 1, 46, 127
1, 125568, Note_off_c, 1, 50, 0
1, 125580, Note_on_c, 1, 56, 127
1, 125628, Note_off_c, 1, 56, 0
1, 125712, Note_off_c, 1, 46, 0
1, 125760, Note_on_c, 1, 55, 127
1, 125760, Note_on_c, 1, 39, 127
1, 125880, Note_on_c, 1, 70, 127
1, 125952, Note_off_c, 1, 55, 0
1, 125952, Note_off_c, 1, 39, 0
1, 126000, Note_on_c, 1, 53, 127
1, 126000, Note_on_c, 1, 38, 127
1, 126072, Note_off_c, 1, 70, 0
1, 126192, Note_off_c, 1, 53, 0
1, 126192, Note_off_c, 1, 38, 0
1, 126240, Note_on_c, 1, 51, 127
1, 126240, Note_on_c, 1, 36, 127
1, 126300, Note_on_c, 1, 69, 127
1, 126348, Note_off_c, 1, 69, 0
1, 126360, Note_on_c, 1, 67, 127
1, 126408, Note_off_c, 1, 67, 0
1, 126420, Note_on_c, 1, 65, 127
1, 126432, Note_off_c, 1, 36, 0
1, 126468, Note_off_c, 1, 65, 0
1, 126480, Note_on_c, 1, 63, 127
1, 126480, Note_on_c, 1, 48, 127
1, 126528, Note_off_c, 1, 63, 0
1, 126540, Note_on_c, 1, 62, 127
1, 126588, Note_off_c, 1, 62, 0
1, 126600, Note_on_c, 1, 60, 127
1, 126648, Note_off_c, 1, 60, 0
1, 126660, Note_on_c, 1, 58, 127
1, 126672, Note_off_c, 1, 48, 0
1, 126708, Note_off_c, 1, 58, 0
1, 126720, Note_on_c, 1, 57, 127
1, 126720, Note_on_c, 1, 41, 127
1, 126768, Note_off_c, 1, 57, 0
1, 126912, Note_off_c, 1, 51, 0
1, 126912, Note_off_c, 1, 41, 0
1, 126960, Note_on_c, 1, 58, 127
1, 126960, Note_on_c, 1, 50, 127
1, 126960, Note_on_c, 1, 43, 127
1, 127008, Note_off_c, 1, 58, 0
1, 127020, Note_on_c, 1, 62, 127
1, 127068, Note_off_c, 1, 62, 0
1, 127152, Note_off_c, 1, 50, 0
1, 127152, Note_off_c, 1, 43, 0
1, 127200, Note_on_c, 1, 58, 127
1, 127200, Note_on_c, 1, 48, 127
1, 127200, Note_on_c, 1, 36, 127
1, 127248, Note_off_c, 1, 58, 0
1, 127260, Note_on_c, 1, 63, 127
1, 127308, Note_off_c, 1, 63, 0
1, 127392, Note_off_c, 1, 36, 0
1, 127440, Note_on_c, 1, 57, 127
1, 127440, Note_on_c, 1, 41, 127
1, 127488, Note_off_c, 1, 57, 0
1, 127584, Note_off_c, 1, 48, 0
1, 127632, Note_off_c, 1, 41, 0
1, 127680, Note_on_c, 1, 62, 127
1, 127680, Note_on_c, 1, 46, 127
1, 127728, Note_off_c, 1, 62, 0
1, 127740, Note_on_c, 1, 60, 127
1, 127788, Note_off_c, 1, 60, 0
1, 127800, Note_on_c, 1, 58, 127
1, 127848, Note_off_c, 1, 58, 0
1, 127860, Note_on_c, 1, 57, 127
1, 127872, Note_off_c, 1, 46, 0
1, 127908, Note_off_c, 1, 57, 0
1, 127920, Note_on_c, 1, 58, 127
1, 127920, Note_on_c, 1, 53, 127
1, 127920, Note_on_c, 1, 38, 127
1, 127968, Note_off_c, 1, 58, 0
1, 127980, Note_on_c, 1, 62, 127
1, 128028, Note_off_c, 1, 62, 0
1, 128112, Note_off_c, 1, 38, 0
1, 128160, Note_on_c, 1, 67, 127
1, 128160, Note_on_c, 1, 39, 127
1, 128217, Note_off_c, 1, 53, 0
1, 128280, Note_on_c, 1, 51, 127
1, 128337, Note_off_c, 1, 51, 0
1, 128340, Note_on_c, 1, 50, 127
1, 128352, Note_off_c, 1, 39, 0
1, 128397, Note_off_c, 1, 50, 0
1, 128400, Note_on_c, 1, 43, 127
1, 128460, Note_on_c, 1, 55, 127
1, 128508, Note_off_c, 1, 55, 0
1, 128592, Note_off_c, 1, 43, 0
1, 128640, Note_on_c, 1, 60, 127
1, 128640, Note_on_c, 1, 44, 127
1, 128688, Note_off_c, 1, 67, 0
1, 128760, Note_on_c, 1, 65, 127
1, 128808, Note_off_c, 1, 65, 0
1, 128820, Note_on_c, 1, 64, 127
1, 128832, Note_off_c, 1, 44, 0
1, 128868, Note_off_c, 1, 64, 0
1, 128880, Note_on_c, 1, 56, 127
1, 128940, Note_on_c, 1, 68, 127
1, 128988, Note_off_c, 1, 68, 0
1, 129024, Note_off_c, 1, 60, 0
1, 129240, Note_on_c, 1, 63, 127
1, 129264, Note_off_c, 1, 56, 0
1, 129288, Note_off_c, 1, 63, 0
1, 129720, Note_on_c, 1, 75, 127
1, 129912, Note_off_c, 1, 75, 0
1, 130140, Note_on_c, 1, 74, 127
1, 130188, Note_off_c, 1, 74, 0
1, 130200, Note_on_c, 1, 72, 127
1, 130248, Note_off_c, 1, 72, 0
1, 130260, Note_on_c, 1, 70, 127
1, 130308, Note_off_c, 1, 70, 0
1, 130320, Note_on_c, 1, 68, 127
1, 130320, Note_on_c, 1, 65, 127
1, 130320, Note_on_c, 1, 60, 127
1, 130320, Note_on_c, 1, 56, 127
1, 130368, Note_off_c, 1, 68, 0
1, 130368, Note_off_c, 1, 65, 0
1, 130380, Note_on_c, 1, 63, 127
1, 130380, Note_on_c, 1, 67, 127
1, 130428, Note_off_c, 1, 63, 0
1, 130428, Note_off_c, 1, 67, 0
1, 130440, Note_on_c, 1, 62, 127
1, 130488, Note_off_c, 1, 62, 0
1, 130548, Note_off_c, 1, 60, 0
1, 130560, Note_on_c, 1, 53, 127
1, 130560, Note_on_c, 1, 58, 127
1, 130752, Note_off_c, 1, 56, 0
1, 130752, Note_off_c, 1, 53, 0
1, 130800, Note_on_c, 1, 55, 127
1, 130944, Note_off_c, 1, 58, 0
1, 130992, Note_off_c, 1, 55, 0
1, 131040, Note_on_c, 1, 63, 127
1, 131040, Note_on_c, 1, 60, 127
1, 131040, Note_on_c, 1, 56, 127
1, 131040, Note_on_c, 1, 53, 127
1, 131088, Note_off_c, 1, 63, 0
1, 131100, Note_on_c, 1, 68, 127
1, 131148, Note_off_c, 1, 68, 0
1, 131232, Note_off_c, 1, 60, 0
1, 131232, Note_off_c, 1, 56, 0
1, 131232, Note_off_c, 1, 53, 0
1, 131280, Note_on_c, 1, 62, 127
1, 131280, Note_on_c, 1, 58, 127
1, 131280, Note_on_c, 1, 53, 127
1, 131280, Note_on_c, 1, 46, 127
1, 131328, Note_off_c, 1, 62, 0
1, 131340, Note_on_c, 1, 68, 127
1, 131388, Note_off_c, 1, 68, 0
1, 131472, Note_off_c, 1, 58, 0
1, 131472, Note_off_c, 1, 53, 0
1, 131472, Note_off_c, 1, 46, 0
1, 131520, Note_on_c, 1, 67, 127
1, 131520, Note_on_c, 1, 58, 127
1, 131520, Note_on_c, 1, 51, 127
1, 131568, Note_off_c, 1, 67, 0
1, 131580, Note_on_c, 1, 65, 127
1, 131628, Note_off_c, 1, 65, 0
1, 131640, Note_on_c, 1, 63, 127
1, 131688, Note_off_c, 1, 63, 0
1, 131700, Note_on_c, 1, 62, 127
1, 131748, Note_off_c, 1, 62, 0
1, 131760, Note_on_c, 1, 43, 127
1, 131952, Note_off_c, 1, 43, 0
1, 132000, Note_on_c, 1, 72, 127
1, 132000, Note_on_c, 1, 44, 127
1, 132048, Note_off_c, 1, 58, 0
1, 132120, Note_on_c, 1, 56, 127
1, 132168, Note_off_c, 1, 56, 0
1, 132180, Note_on_c, 1, 55, 127
1, 132192, Note_off_c, 1, 44, 0
1, 132228, Note_off_c, 1, 55, 0
1, 132240, Note_on_c, 1, 48, 127
1, 132288, Note_off_c, 1, 51, 0
1, 132300, Note_on_c, 1, 60, 127
1, 132348, Note_off_c, 1, 60, 0
1, 132432, Note_off_c, 1, 48, 0
1, 132480, Note_on_c, 1, 53, 127
1, 132480, Note_on_c, 1, 50, 127
1, 132528, Note_off_c, 1, 72, 0
1, 132720, Note_on_c, 1, 41, 127
1, 132912, Note_off_c, 1, 41, 0
1, 132960, Note_on_c, 1, 70, 127
1, 133008, Note_off_c, 1, 53, 0
1, 133200, Note_on_c, 1, 46, 127
1, 133248, Note_off_c, 1, 50, 0
1, 133392, Note_off_c, 1, 46, 0
1, 133488, Note_off_c, 1, 70, 0
1, 133680, Note_on_c, 1, 39, 127
1, 133872, Note_off_c, 1, 39, 0
1, 133920, Note_on_c, 1, 69, 127
1, 133968, Note_off_c, 1, 69, 0
1, 134160, Note_on_c, 1, 69, 127
1, 134160, Note_on_c, 1, 53, 127
1, 134208, Note_off_c, 1, 69, 0
1, 134208, Note_off_c, 1, 53, 0
1, 134220, Note_on_c, 1, 72, 127
1, 134220, Note_on_c, 1, 57, 127
1, 134268, Note_off_c, 1, 72, 0
1, 134268, Note_off_c, 1, 57, 0
1, 134280, Note_on_c, 1, 69, 127
1, 134280, Note_on_c, 1, 53, 127
1, 134328, Note_off_c, 1, 69, 0
1, 134340, Note_on_c, 1, 72, 127
1, 134340, Note_on_c, 1, 57, 127
1, 134388, Note_off_c, 1, 72, 0
1, 134388, Note_off_c, 1, 57, 0
1, 134400, Note_on_c, 1, 74, 127
1, 134400, Note_on_c, 1, 58, 127
1, 134400, Note_on_c, 1, 44, 127
1, 134448, Note_off_c, 1, 74, 0
1, 134448, Note_off_c, 1, 58, 0
1, 134460, Note_on_c, 1, 75, 127
1, 134460, Note_on_c, 1, 60, 127
1, 134508, Note_off_c, 1, 75, 0
1, 134508, Note_off_c, 1, 60, 0
1, 134592, Note_off_c, 1, 44, 0
1, 134700, Note_on_c, 1, 77, 127
1, 134700, Note_on_c, 1, 62, 127
1, 134748, Note_off_c, 1, 77, 0
1, 134748, Note_off_c, 1, 62, 0
1, 134784, Note_off_c, 1, 53, 0
1, 134820, Note_on_c, 1, 77, 127
1, 134820, Note_on_c, 1, 62, 127
1, 134868, Note_off_c, 1, 77, 0
1, 134868, Note_off_c, 1, 62, 0
1, 134880, Note_on_c, 1, 82, 127
1, 134880, Note_on_c, 1, 63, 127
1, 134880, Note_on_c, 1, 43, 127
1, 134928, Note_off_c, 1, 82, 0
1, 134940, Note_on_c, 1, 81, 127
1, 134988, Note_off_c, 1, 81, 0
1, 135000, Note_on_c, 1, 79, 127
1, 135048, Note_off_c, 1, 79, 0
1, 135060, Note_on_c, 1, 77, 127
1, 135072, Note_off_c, 1, 43, 0
1, 135108, Note_off_c, 1, 77, 0
1, 135120, Note_on_c, 1, 75, 127
1, 135120, Note_on_c, 1, 55, 127
1, 135120, Note_on_c, 1, 48, 127
1, 135168, Note_off_c, 1, 75, 0
1, 135180, Note_on_c, 1, 74, 127
1, 135228, Note_off_c, 1, 74, 0
1, 135240, Note_on_c, 1, 72, 127
1, 135288, Note_off_c, 1, 72, 0
1, 135300, Note_on_c, 1, 70, 127
1, 135312, Note_off_c, 1, 55, 0
1, 135312, Note_off_c, 1, 48, 0
1, 135348, Note_off_c, 1, 70, 0
1, 135360, Note_on_c, 1, 69, 127
1, 135360, Note_on_c, 1, 53, 127
1, 135360, Note_on_c, 1, 41, 127
1, 135408, Note_off_c, 1, 69, 0
1, 135552, Note_off_c, 1, 63, 0
1, 135552, Note_off_c, 1, 53, 0
1, 135552, Note_off_c, 1, 41, 0
1, 135600, Note_on_c, 1, 70, 127
1, 135600, Note_on_c, 1, 62, 127
1, 135600, Note_on_c, 1, 58, 127
1, 135600, Note_on_c, 1, 43, 127
1, 135648, Note_off_c, 1, 70, 0
1, 135660, Note_on_c, 1, 74, 127
1, 135708, Note_off_c, 1, 74, 0
1, 135792, Note_off_c, 1, 62, 0
1, 135792, Note_off_c, 1, 58, 0
1, 135792, Note_off_c, 1, 43, 0
1, 135840, Note_on_c, 1, 70, 127
1, 135840, Note_on_c, 1, 55, 127
1, 135840, Note_on_c, 1, 60, 127
1, 135840, Note_on_c, 1, 36, 127
1, 135888, Note_off_c, 1, 70, 0
1, 135900, Note_on_c, 1, 75, 127
1, 135948, Note_off_c, 1, 75, 0
1, 136032, Note_off_c, 1, 55, 0
1, 136032, Note_off_c, 1, 36, 0
1, 136080, Note_on_c, 1, 69, 127
1, 136080, Note_on_c, 1, 53, 127
1, 136080, Note_on_c, 1, 41, 127
1, 136128, Note_off_c, 1, 69, 0
1, 136224, Note_off_c, 1, 60, 0
1, 136272, Note_off_c, 1, 41, 0
1, 136320, Note_on_c, 1, 74, 127
1, 136320, Note_on_c, 1, 58, 127
1, 136320, Note_on_c, 1, 46, 127
1, 136368, Note_off_c, 1, 74, 0
1, 136416, Note_off_c, 1, 53, 0
1, 136416, Note_off_c, 1, 58, 0
1, 136440, Note_on_c, 1, 45, 127
1, 136500, Note_on_c, 1, 72, 127
1, 136512, Note_off_c, 1, 46, 0
1, 136536, Note_off_c, 1, 45, 0
1, 136548, Note_off_c, 1, 72, 0
1, 136560, Note_on_c, 1, 74, 127
1, 136560, Note_on_c, 1, 46, 127
1, 136608, Note_off_c, 1, 74, 0
1, 136620, Note_on_c, 1, 72, 127
1, 136656, Note_off_c, 1, 46, 0
1, 136668, Note_off_c, 1, 72, 0
1, 136680, Note_on_c, 1, 70, 127
1, 136680, Note_on_c, 1, 48, 127
1, 136680, Note_on_c, 1, 51, 127
1, 136728, Note_off_c, 1, 70, 0
1, 136740, Note_on_c, 1, 69, 127
1, 136776, Note_off_c, 1, 48, 0
1, 136776, Note_off_c, 1, 51, 0
1, 136788, Note_off_c, 1, 69, 0
1, 136800, Note_on_c, 1, 70, 127
1, 136800, Note_on_c, 1, 53, 127
1, 136800, Note_on_c, 1, 50, 127
1, 136848, Note_off_c, 1, 70, 0
1, 136860, Note_on_c, 1, 72, 127
1, 136896, Note_off_c, 1, 53, 0
1, 136896, Note_off_c, 1, 50, 0
1, 136908, Note_off_c, 1, 72, 0
1, 136920, Note_on_c, 1, 70, 127
1, 136920, Note_on_c, 1, 46, 127
1, 136968, Note_off_c, 1, 70, 0
1, 136980, Note_on_c, 1, 69, 127
1, 137016, Note_off_c, 1, 46, 0
1, 137028, Note_off_c, 1, 69, 0
1, 137040, Note_on_c, 1, 70, 127
1, 137040, Note_on_c, 1, 48, 127
1, 137088, Note_off_c, 1, 70, 0
1, 137100, Note_on_c, 1, 68, 127
1, 137136, Note_off_c, 1, 48, 0
1, 137148, Note_off_c, 1, 68, 0
1, 137160, Note_on_c, 1, 67, 127
1, 137160, Note_on_c, 1, 50, 127
1, 137160, Note_on_c, 1, 58, 127
1, 137208, Note_off_c, 1, 67, 0
1, 137220, Note_on_c, 1, 65, 127
1, 137256, Note_off_c, 1, 50, 0
1, 137268, Note_off_c, 1, 65, 0
1, 137280, Note_on_c, 1, 51, 127
1, 137328, Note_off_c, 1, 58, 0
1, 137340, Note_on_c, 1, 68, 127
1, 137376, Note_off_c, 1, 51, 0
1, 137388, Note_off_c, 1, 68, 0
1, 137400, Note_on_c, 1, 67, 127
1, 137400, Note_on_c, 1, 50, 127
1, 137448, Note_off_c, 1, 67, 0
1, 137460, Note_on_c, 1, 65, 127
1, 137496, Note_off_c, 1, 50, 0
1, 137508, Note_off_c, 1, 65, 0
1, 137520, Note_on_c, 1, 67, 127
1, 137520, Note_on_c, 1, 51, 127
1, 137568, Note_off_c, 1, 67, 0
1, 137580, Note_on_c, 1, 65, 127
1, 137616, Note_off_c, 1, 51, 0
1, 137628, Note_off_c, 1, 65, 0
1, 137640, Note_on_c, 1, 63, 127
1, 137640, Note_on_c, 1, 53, 127
1, 137688, Note_off_c, 1, 63, 0
1, 137700, Note_on_c, 1, 62, 127
1, 137736, Note_off_c, 1, 53, 0
1, 137748, Note_off_c, 1, 62, 0
1, 137760, Note_on_c, 1, 63, 127
1, 137760, Note_on_c, 1, 55, 127
1, 137808, Note_off_c, 1, 63, 0
1, 137820, Note_on_c, 1, 65, 127
1, 137856, Note_off_c, 1, 55, 0
1, 137868, Note_off_c, 1, 65, 0
1, 137880, Note_on_c, 1, 63, 127
1, 137880, Note_on_c, 1, 51, 127
1, 137928, Note_off_c, 1, 63, 0
1, 137940, Note_on_c, 1, 62, 127
1, 137976, Note_off_c, 1, 51, 0
1, 137988, Note_off_c, 1, 62, 0
1, 138000, Note_on_c, 1, 63, 127
1, 138000, Note_on_c, 1, 53, 127
1, 138048, Note_off_c, 1, 63, 0
1, 138060, Note_on_c, 1, 62, 127
1, 138096, Note_off_c, 1, 53, 0
1, 138108, Note_off_c, 1, 62, 0
1, 138120, Note_on_c, 1, 60, 127
1, 138120, Note_on_c, 1, 55, 127
1, 138168, Note_off_c, 1, 60, 0
1, 138180, Note_on_c, 1, 59, 127
1, 138216, Note_off_c, 1, 55, 0
1, 138228, Note_off_c, 1, 59, 0
1, 138240, Note_on_c, 1, 60, 127
1, 138240, Note_on_c, 1, 56, 127
1, 138360, Note_on_c, 1, 58, 127
1, 138408, Note_off_c, 1, 58, 0
1, 138600, Note_on_c, 1, 55, 127
1, 138648, Note_off_c, 1, 55, 0
1, 138720, Note_on_c, 1, 80, 127
1, 138720, Note_on_c, 1, 53, 127
1, 138768, Note_off_c, 1, 53, 0
1, 138840, Note_on_c, 1, 51, 127
1, 138888, Note_off_c, 1, 51, 0
1, 138912, Note_off_c, 1, 60, 0
1, 138912, Note_off_c, 1, 56, 0
1, 138960, Note_on_c, 1, 77, 127
1, 138960, Note_on_c, 1, 59, 127
1, 138960, Note_on_c, 1, 50, 127
1, 139008, Note_off_c, 1, 50, 0
1, 139056, Note_off_c, 1, 59, 0
1, 139080, Note_on_c, 1, 48, 127
1, 139104, Note_off_c, 1, 80, 0
1, 139128, Note_off_c, 1, 48, 0
1, 139200, Note_on_c, 1, 62, 127
1, 139200, Note_on_c, 1, 79, 127
1, 139200, Note_on_c, 1, 47, 127
1, 139248, Note_off_c, 1, 47, 0
1, 139392, Note_off_c, 1, 77, 0
1, 139392, Note_off_c, 1, 62, 0
1, 139440, Note_on_c, 1, 75, 127
1, 139440, Note_on_c, 1, 63, 127
1, 139584, Note_off_c, 1, 79, 0
1, 139632, Note_off_c, 1, 75, 0
1, 139632, Note_off_c, 1, 63, 0
1, 139680, Note_on_c, 1, 65, 127
1, 139680, Note_on_c, 1, 74, 127
1, 139680, Note_on_c, 1, 77, 127
1, 139680, Note_on_c, 1, 56, 127
1, 139680, Note_on_c, 1, 48, 127
1, 139728, Note_off_c, 1, 48, 0
1, 139740, Note_on_c, 1, 53, 127
1, 139788, Note_off_c, 1, 53, 0
1, 139872, Note_off_c, 1, 65, 0
1, 139872, Note_off_c, 1, 56, 0
1, 139920, Note_on_c, 1, 67, 127
1, 139920, Note_on_c, 1, 55, 127
1, 139920, Note_on_c, 1, 47, 127
1, 139968, Note_off_c, 1, 47, 0
1, 140064, Note_off_c, 1, 74, 0
1, 140064, Note_off_c, 1, 77, 0
1, 140160, Note_on_c, 1, 75, 127
1, 140160, Note_on_c, 1, 60, 127
1, 140160, Note_on_c, 1, 72, 127
1, 140208, Note_off_c, 1, 75, 0
1, 140256, Note_off_c, 1, 67, 0
1, 140256, Note_off_c, 1, 55, 0
1, 140256, Note_off_c, 1, 60, 0
1, 140256, Note_off_c, 1, 72, 0
1, 140280, Note_on_c, 1, 59, 127
1, 140376, Note_off_c, 1, 59, 0
1, 140400, Note_on_c, 1, 75, 127
1, 140400, Note_on_c, 1, 60, 127
1, 140448, Note_off_c, 1, 75, 0
1, 140460, Note_on_c, 1, 74, 127
1, 140496, Note_off_c, 1, 60, 0
1, 140508, Note_off_c, 1, 74, 0
1, 140520, Note_on_c, 1, 72, 127
1, 140520, Note_on_c, 1, 62, 127
1, 140568, Note_off_c, 1, 72, 0
1, 140580, Note_on_c, 1, 71, 127
1, 140616, Note_off_c, 1, 62, 0
1, 140628, Note_off_c, 1, 71, 0
1, 140640, Note_on_c, 1, 72, 127
1, 140640, Note_on_c, 1, 63, 127
1, 140688, Note_off_c, 1, 72, 0
1, 140700, Note_on_c, 1, 74, 127
1, 140736, Note_off_c, 1, 63, 0
1, 140748, Note_off_c, 1, 74, 0
1, 140760, Note_on_c, 1, 72, 127
1, 140760, Note_on_c, 1, 60, 127
1, 140808, Note_off_c, 1, 72, 0
1, 140820, Note_on_c, 1, 71, 127
1, 140856, Note_off_c, 1, 60, 0
1, 140868, Note_off_c, 1, 71, 0
1, 140880, Note_on_c, 1, 72, 127
1, 140880, Note_on_c, 1, 62, 127
1, 140928, Note_off_c, 1, 72, 0
1, 140940, Note_on_c, 1, 70, 127
1, 140976, Note_off_c, 1, 62, 0
1, 140988, Note_off_c, 1, 70, 0
1, 141000, Note_on_c, 1, 69, 127
1, 141000, Note_on_c, 1, 64, 127
1, 141048, Note_off_c, 1, 69, 0
1, 141060, Note_on_c, 1, 67, 127
1, 141096, Note_off_c, 1, 64, 0
1, 141108, Note_off_c, 1, 67, 0
1, 141120, Note_on_c, 1, 65, 127
1, 141120, Note_on_c, 1, 69, 127
1, 141168, Note_off_c, 1, 65, 0
1, 141180, Note_on_c, 1, 70, 127
1, 141216, Note_off_c, 1, 69, 0
1, 141228, Note_off_c, 1, 70, 0
1, 141240, Note_on_c, 1, 69, 127
1, 141240, Note_on_c, 1, 60, 127
1, 141288, Note_off_c, 1, 69, 0
1, 141300, Note_on_c, 1, 67, 127
1, 141336, Note_off_c, 1, 60, 0
1, 141348, Note_off_c, 1, 67, 0
1, 141360, Note_on_c, 1, 69, 127
1, 141360, Note_on_c, 1, 53, 127
1, 141408, Note_off_c, 1, 69, 0
1, 141420, Note_on_c, 1, 67, 127
1, 141456, Note_off_c, 1, 53, 0
1, 141468, Note_off_c, 1, 67, 0
1, 141480, Note_on_c, 1, 65, 127
1, 141480, Note_on_c, 1, 55, 127
1, 141528, Note_off_c, 1, 65, 0
1, 141540, Note_on_c, 1, 64, 127
1, 141576, Note_off_c, 1, 55, 0
1, 141588, Note_off_c, 1, 64, 0
1, 141600, Note_on_c, 1, 65, 127
1, 141600, Note_on_c, 1, 57, 127
1, 141648, Note_off_c, 1, 65, 0
1, 141660, Note_on_c, 1, 67, 127
1, 141696, Note_off_c, 1, 57, 0
1, 141708, Note_off_c, 1, 67, 0
1, 141720, Note_on_c, 1, 65, 127
1, 141720, Note_on_c, 1, 53, 127
1, 141768, Note_off_c, 1, 65, 0
1, 141780, Note_on_c, 1, 64, 127
1, 141816, Note_off_c, 1, 53, 0
1, 141828, Note_off_c, 1, 64, 0
1, 141840, Note_on_c, 1, 65, 127
1, 141840, Note_on_c, 1, 55, 127
1, 141888, Note_off_c, 1, 65, 0
1, 141900, Note_on_c, 1, 63, 127
1, 141936, Note_off_c, 1, 55, 0
1, 141948, Note_off_c, 1, 63, 0
1, 141960, Note_on_c, 1, 62, 127
1, 141960, Note_on_c, 1, 57, 127
1, 142008, Note_off_c, 1, 62, 0
1, 142020, Note_on_c, 1, 60, 127
1, 142056, Note_off_c, 1, 57, 0
1, 142068, Note_off_c, 1, 60, 0
1, 142080, Note_on_c, 1, 62, 127
1, 142080, Note_on_c, 1, 58, 127
1, 142200, Note_on_c, 1, 57, 127
1, 142248, Note_off_c, 1, 57, 0
1, 142320, Note_on_c, 1, 55, 127
1, 142368, Note_off_c, 1, 55, 0
1, 142440, Note_on_c, 1, 53, 127
1, 142488, Note_off_c, 1, 53, 0
1, 142560, Note_on_c, 1, 79, 127
1, 142560, Note_on_c, 1, 51, 127
1, 142608, Note_off_c, 1, 51, 0
1, 142656, Note_off_c, 1, 62, 0
1, 142656, Note_off_c, 1, 58, 0
1, 142680, Note_on_c, 1, 65, 127
1, 142680, Note_on_c, 1, 50, 127
1, 142728, Note_off_c, 1, 50, 0
1, 142776, Note_off_c, 1, 65, 0
1, 142800, Note_on_c, 1, 63, 127
1, 142800, Note_on_c, 1, 75, 127
1, 142800, Note_on_c, 1, 48, 127
1, 142848, Note_off_c, 1, 48, 0
1, 142896, Note_off_c, 1, 63, 0
1, 142920, Note_on_c, 1, 46, 127
1, 142944, Note_off_c, 1, 79, 0
1, 142968, Note_off_c, 1, 46, 0
1, 143040, Note_on_c, 1, 60, 127
1, 143040, Note_on_c, 1, 77, 127
1, 143040, Note_on_c, 1, 45, 127
1, 143088, Note_off_c, 1, 45, 0
1, 143232, Note_off_c, 1, 75, 0
1, 143232, Note_off_c, 1, 60, 0
1, 143280, Note_on_c, 1, 74, 127
1, 143424, Note_off_c, 1, 77, 0
1, 143472, Note_off_c, 1, 74, 0
1, 143520, Note_on_c, 1, 63, 127
1, 143520, Note_on_c, 1, 72, 127
1, 143520, Note_on_c, 1, 75, 127
1, 143520, Note_on_c, 1, 55, 127
1, 143520, Note_on_c, 1, 46, 127
1, 143568, Note_off_c, 1, 46, 0
1, 143580, Note_on_c, 1, 51, 127
1, 143628, Note_off_c, 1, 51, 0
1, 143712, Note_off_c, 1, 63, 0
1, 143712, Note_off_c, 1, 55, 0
1, 143760, Note_on_c, 1, 65, 127
1, 143760, Note_on_c, 1, 53, 127
1, 143760, Note_on_c, 1, 45, 127
1, 143808, Note_off_c, 1, 45, 0
1, 143904, Note_off_c, 1, 72, 0
1, 143904, Note_off_c, 1, 75, 0
1, 143988, Note_off_c, 1, 53, 0
1, 144000, Note_on_c, 1, 74, 127
1, 144000, Note_on_c, 1, 70, 127
1, 144000, Note_on_c, 1, 58, 127
1, 144048, Note_off_c, 1, 65, 0
1, 144060, Note_on_c, 1, 67, 127
1, 144108, Note_off_c, 1, 67, 0
1, 144180, Note_on_c, 1, 64, 127
1, 144192, Note_off_c, 1, 74, 0
1, 144192, Note_off_c, 1, 70, 0
1, 144228, Note_off_c, 1, 64, 0
1, 144240, Note_off_c, 1, 58, 0
1, 144240, Note_on_c, 1, 79, 127
1, 144240, Note_on_c, 1, 73, 127
1, 144240, Note_on_c, 1, 82, 127
1, 144432, Note_off_c, 1, 79, 0
1, 144432, Note_off_c, 1, 73, 0
1, 144432, Note_off_c, 1, 82, 0
1, 144480, Note_on_c, 1, 79, 127
1, 144480, Note_on_c, 1, 72, 127
1, 144480, Note_on_c, 1, 80, 127
1, 144480, Note_on_c, 1, 65, 127
1, 144528, Note_off_c, 1, 65, 0
1, 144540, Note_on_c, 1, 63, 127
1, 144576, Note_off_c, 1, 79, 0
1, 144588, Note_off_c, 1, 63, 0
1, 144600, Note_on_c, 1, 77, 127
1, 144600, Note_on_c, 1, 61, 127
1, 144648, Note_off_c, 1, 61, 0
1, 144660, Note_on_c, 1, 60, 127
1, 144696, Note_off_c, 1, 77, 0
1, 144708, Note_off_c, 1, 60, 0
1, 144720, Note_on_c, 1, 73, 127
1, 144720, Note_on_c, 1, 58, 127
1, 144768, Note_off_c, 1, 72, 0
1, 144768, Note_off_c, 1, 58, 0
1, 144780, Note_on_c, 1, 56, 127
1, 144828, Note_off_c, 1, 56, 0
1, 144840, Note_on_c, 1, 70, 127
1, 144840, Note_on_c, 1, 55, 127
1, 144864, Note_off_c, 1, 80, 0
1, 144888, Note_off_c, 1, 55, 0
1, 144900, Note_on_c, 1, 53, 127
1, 144948, Note_off_c, 1, 53, 0
1, 144960, Note_on_c, 1, 52, 127
1, 145008, Note_off_c, 1, 52, 0
1, 145056, Note_off_c, 1, 73, 0
1, 145152, Note_off_c, 1, 70, 0
1, 145200, Note_on_c, 1, 68, 127
1, 145392, Note_off_c, 1, 68, 0
1, 145440, Note_on_c, 1, 73, 127
1, 145440, Note_on_c, 1, 53, 127
1, 145488, Note_off_c, 1, 53, 0
1, 145500, Note_on_c, 1, 58, 127
1, 145548, Note_off_c, 1, 58, 0
1, 145560, Note_on_c, 1, 70, 127
1, 145656, Note_off_c, 1, 70, 0
1, 145665, Note_off_c, 1, 73, 0
1, 145680, Note_on_c, 1, 67, 127
1, 145680, Note_on_c, 1, 52, 127
1, 145728, Note_off_c, 1, 52, 0
1, 145740, Note_on_c, 1, 58, 127
1, 145788, Note_off_c, 1, 58, 0
1, 145800, Note_on_c, 1, 72, 127
1, 145872, Note_off_c, 1, 67, 0
1, 145920, Note_on_c, 1, 65, 127
1, 145920, Note_on_c, 1, 56, 127
1, 146040, Note_on_c, 1, 55, 127
1, 146088, Note_off_c, 1, 55, 0
1, 146160, Note_on_c, 1, 53, 127
1, 146208, Note_off_c, 1, 53, 0
1, 146280, Note_on_c, 1, 51, 127
1, 146328, Note_off_c, 1, 51, 0
1, 146400, Note_on_c, 1, 77, 127
1, 146400, Note_on_c, 1, 49, 127
1, 146448, Note_off_c, 1, 49, 0
1, 146496, Note_off_c, 1, 72, 0
1, 146496, Note_off_c, 1, 65, 0
1, 146520, Note_on_c, 1, 75, 127
1, 146520, Note_on_c, 1, 48, 127
1, 146568, Note_off_c, 1, 48, 0
1, 146592, Note_off_c, 1, 56, 0
1, 146616, Note_off_c, 1, 75, 0
1, 146640, Note_on_c, 1, 73, 127
1, 146640, Note_on_c, 1, 61, 127
1, 146640, Note_on_c, 1, 46, 127
1, 146688, Note_off_c, 1, 46, 0
1, 146736, Note_off_c, 1, 73, 0
1, 146760, Note_on_c, 1, 68, 127
1, 146760, Note_on_c, 1, 44, 127
1, 146784, Note_off_c, 1, 77, 0
1, 146808, Note_off_c, 1, 44, 0
1, 146856, Note_off_c, 1, 68, 0
1, 146880, Note_on_c, 1, 70, 127
1, 146880, Note_on_c, 1, 43, 127
1, 146928, Note_off_c, 1, 43, 0
1, 147072, Note_off_c, 1, 61, 0
1, 147072, Note_off_c, 1, 70, 0
1, 147120, Note_on_c, 1, 63, 127
1, 147120, Note_on_c, 1, 60, 127
1, 147312, Note_off_c, 1, 63, 0
1, 147312, Note_off_c, 1, 60, 0
1, 147360, Note_on_c, 1, 65, 127
1, 147360, Note_on_c, 1, 73, 127
1, 147360, Note_on_c, 1, 70, 127
1, 147360, Note_on_c, 1, 58, 127
1, 147360, Note_on_c, 1, 44, 127
1, 147408, Note_off_c, 1, 44, 0
1, 147420, Note_on_c, 1, 49, 127
1, 147468, Note_off_c, 1, 49, 0
1, 147552, Note_off_c, 1, 65, 0
1, 147600, Note_on_c, 1, 63, 127
1, 147600, Note_on_c, 1, 43, 127
1, 147648, Note_off_c, 1, 43, 0
1, 147660, Note_on_c, 1, 51, 127
1, 147708, Note_off_c, 1, 51, 0
1, 147744, Note_off_c, 1, 73, 0
1, 147744, Note_off_c, 1, 58, 0
1, 147840, Note_on_c, 1, 72, 127
1, 147840, Note_on_c, 1, 60, 127
1, 147888, Note_off_c, 1, 70, 0
1, 147960, Note_on_c, 1, 68, 127
1, 148008, Note_off_c, 1, 68, 0
1, 148020, Note_on_c, 1, 67, 127
1, 148032, Note_off_c, 1, 63, 0
1, 148032, Note_off_c, 1, 60, 0
1, 148068, Note_off_c, 1, 67, 0
1, 148080, Note_on_c, 1, 56, 127
1, 148224, Note_off_c, 1, 72, 0
1, 148272, Note_off_c, 1, 56, 0
1, 148320, Note_on_c, 1, 58, 127
1, 148320, Note_on_c, 1, 62, 127
1, 148320, Note_on_c, 1, 74, 127
1, 148320, Note_on_c, 1, 56, 127
1, 148320, Note_on_c, 1, 46, 127
1, 148368, Note_off_c, 1, 58, 0
1, 148368, Note_off_c, 1, 56, 0
1, 148380, Note_on_c, 1, 60, 127
1, 148416, Note_off_c, 1, 62, 0
1, 148428, Note_off_c, 1, 60, 0
1, 148440, Note_on_c, 1, 65, 127
1, 148536, Note_off_c, 1, 65, 0
1, 148560, Note_on_c, 1, 70, 127
1, 148560, Note_on_c, 1, 55, 127
1, 148608, Note_off_c, 1, 55, 0
1, 148704, Note_off_c, 1, 74, 0
1, 148704, Note_off_c, 1, 46, 0
1, 148800, Note_on_c, 1, 75, 127
1, 148800, Note_on_c, 1, 51, 127
1, 148800, Note_on_c, 1, 48, 127
1, 148848, Note_off_c, 1, 70, 0
1, 148860, Note_on_c, 1, 73, 127
1, 148896, Note_off_c, 1, 51, 0
1, 148908, Note_off_c, 1, 73, 0
1, 148920, Note_on_c, 1, 72, 127
1, 148968, Note_off_c, 1, 72, 0
1, 149040, Note_on_c, 1, 68, 127
1, 149088, Note_off_c, 1, 68, 0
1, 149184, Note_off_c, 1, 75, 0
1, 149184, Note_off_c, 1, 48, 0
1, 149280, Note_on_c, 1, 77, 127
1, 149280, Note_on_c, 1, 50, 127
1, 149340, Note_on_c, 1, 63, 127
1, 149388, Note_off_c, 1, 63, 0
1, 149400, Note_on_c, 1, 67, 127
1, 149496, Note_off_c, 1, 67, 0
1, 149664, Note_off_c, 1, 50, 0
1, 149700, Note_on_c, 1, 53, 127
1, 149748, Note_off_c, 1, 53, 0
1, 149808, Note_off_c, 1, 77, 0
1, 150960, Note_on_c, 1, 63, 127
1, 150960, Note_on_c, 1, 55, 127
1, 150960, Note_on_c, 1, 48, 127
1, 151008, Note_off_c, 1, 63, 0
1, 151020, Note_on_c, 1, 67, 127
1, 151068, Note_off_c, 1, 67, 0
1, 151152, Note_off_c, 1, 55, 0
1, 151152, Note_off_c, 1, 48, 0
1, 151200, Note_on_c, 1, 63, 127
1, 151200, Note_on_c, 1, 60, 127
1, 151200, Note_on_c, 1, 53, 127
1, 151200, Note_on_c, 1, 41, 127
1, 151248, Note_off_c, 1, 63, 0
1, 151260, Note_on_c, 1, 68, 127
1, 151308, Note_off_c, 1, 68, 0
1, 151392, Note_off_c, 1, 60, 0
1, 151392, Note_off_c, 1, 41, 0
1, 151440, Note_on_c, 1, 62, 127
1, 151440, Note_on_c, 1, 58, 127
1, 151440, Note_on_c, 1, 46, 127
1, 151488, Note_off_c, 1, 62, 0
1, 151584, Note_off_c, 1, 53, 0
1, 151632, Note_off_c, 1, 46, 0
1, 151680, Note_on_c, 1, 67, 127
1, 151680, Note_on_c, 1, 51, 127
1, 151680, Note_on_c, 1, 39, 127
1, 151728, Note_off_c, 1, 58, 0
1, 151728, Note_off_c, 1, 51, 0
1, 151740, Note_on_c, 1, 65, 127
1, 151740, Note_on_c, 1, 50, 127
1, 151788, Note_off_c, 1, 65, 0
1, 151788, Note_off_c, 1, 50, 0
1, 151800, Note_on_c, 1, 48, 127
1, 151848, Note_off_c, 1, 48, 0
1, 151872, Note_off_c, 1, 39, 0
1, 152040, Note_on_c, 1, 44, 127
1, 152088, Note_off_c, 1, 44, 0
1, 152100, Note_on_c, 1, 43, 127
1, 152148, Note_off_c, 1, 43, 0
1, 152160, Note_on_c, 1, 56, 127
1, 152208, Note_off_c, 1, 67, 0
1, 152352, Note_off_c, 1, 56, 0
1, 152400, Note_on_c, 1, 65, 127
1, 152400, Note_on_c, 1, 50, 127
1, 152448, Note_off_c, 1, 65, 0
1, 152448, Note_off_c, 1, 50, 0
1, 152460, Note_on_c, 1, 63, 127
1, 152460, Note_on_c, 1, 48, 127
1, 152508, Note_off_c, 1, 63, 0
1, 152508, Note_off_c, 1, 48, 0
1, 152520, Note_on_c, 1, 62, 127
1, 152520, Note_on_c, 1, 46, 127
1, 152568, Note_off_c, 1, 62, 0
1, 152568, Note_off_c, 1, 46, 0
1, 152580, Note_on_c, 1, 60, 127
1, 152580, Note_on_c, 1, 44, 127
1, 152628, Note_off_c, 1, 60, 0
1, 152628, Note_off_c, 1, 44, 0
1, 152640, Note_on_c, 1, 58, 127
1, 152640, Note_on_c, 1, 43, 127
1, 152688, Note_off_c, 1, 58, 0
1, 152688, Note_off_c, 1, 43, 0
1, 152700, Note_on_c, 1, 62, 127
1, 152700, Note_on_c, 1, 53, 127
1, 152748, Note_off_c, 1, 62, 0
1, 152748, Note_off_c, 1, 53, 0
1, 152760, Note_on_c, 1, 60, 127
1, 152760, Note_on_c, 1, 51, 127
1, 152808, Note_off_c, 1, 60, 0
1, 152808, Note_off_c, 1, 51, 0
1, 152820, Note_on_c, 1, 58, 127
1, 152820, Note_on_c, 1, 50, 127
1, 152868, Note_off_c, 1, 58, 0
1, 152868, Note_off_c, 1, 50, 0
1, 152880, Note_on_c, 1, 67, 127
1, 152880, Note_on_c, 1, 51, 127
1, 152928, Note_off_c, 1, 51, 0
1, 152940, Note_on_c, 1, 50, 127
1, 152988, Note_off_c, 1, 50, 0
1, 153000, Note_on_c, 1, 48, 127
1, 153048, Note_off_c, 1, 48, 0
1, 153060, Note_on_c, 1, 46, 127
1, 153108, Note_off_c, 1, 46, 0
1, 153120, Note_on_c, 1, 45, 127
1, 153168, Note_off_c, 1, 67, 0
1, 153168, Note_off_c, 1, 45, 0
1, 153180, Note_on_c, 1, 70, 127
1, 153180, Note_on_c, 1, 54, 127
1, 153228, Note_off_c, 1, 70, 0
1, 153228, Note_off_c, 1, 54, 0
1, 153240, Note_on_c, 1, 69, 127
1, 153240, Note_on_c, 1, 53, 127
1, 153288, Note_off_c, 1, 69, 0
1, 153288, Note_off_c, 1, 53, 0
1, 153300, Note_on_c, 1, 67, 127
1, 153300, Note_on_c, 1, 51, 127
1, 153348, Note_off_c, 1, 67, 0
1, 153348, Note_off_c, 1, 51, 0
1, 153360, Note_on_c, 1, 72, 127
1, 153360, Note_on_c, 1, 53, 127
1, 153408, Note_off_c, 1, 53, 0
1, 153420, Note_on_c, 1, 51, 127
1, 153456, Note_off_c, 1, 72, 0
1, 153468, Note_off_c, 1, 51, 0
1, 153480, Note_on_c, 1, 63, 127
1, 153480, Note_on_c, 1, 49, 127
1, 153528, Note_off_c, 1, 49, 0
1, 153540, Note_on_c, 1, 48, 127
1, 153576, Note_off_c, 1, 63, 0
1, 153588, Note_off_c, 1, 48, 0
1, 153600, Note_on_c, 1, 61, 127
1, 153600, Note_on_c, 1, 46, 127
1, 153720, Note_on_c, 1, 70, 127
1, 153792, Note_off_c, 1, 61, 0
1, 153792, Note_off_c, 1, 46, 0
1, 153840, Note_on_c, 1, 63, 127
1, 153840, Note_on_c, 1, 48, 127
1, 153912, Note_off_c, 1, 70, 0
1, 154032, Note_off_c, 1, 63, 0
1, 154032, Note_off_c, 1, 48, 0
1, 154080, Note_on_c, 1, 49, 127
1, 154140, Note_on_c, 1, 68, 127
1, 154188, Note_off_c, 1, 68, 0
1, 154200, Note_on_c, 1, 66, 127
1, 154248, Note_off_c, 1, 66, 0
1, 154260, Note_on_c, 1, 65, 127
1, 154272, Note_off_c, 1, 49, 0
1, 154308, Note_off_c, 1, 65, 0
1, 154320, Note_on_c, 1, 63, 127
1, 154320, Note_on_c, 1, 66, 127
1, 154320, Note_on_c, 1, 51, 127
1, 154368, Note_off_c, 1, 63, 0
1, 154380, Note_on_c, 1, 61, 127
1, 154428, Note_off_c, 1, 61, 0
1, 154440, Note_on_c, 1, 60, 127
1, 154488, Note_off_c, 1, 60, 0
1, 154500, Note_on_c, 1, 58, 127
1, 154512, Note_off_c, 1, 66, 0
1, 154548, Note_off_c, 1, 58, 0
1, 154560, Note_on_c, 1, 57, 127
1, 154560, Note_on_c, 1, 65, 127
1, 154608, Note_off_c, 1, 57, 0
1, 154752, Note_off_c, 1, 51, 0
1, 154800, Note_on_c, 1, 49, 127
1, 154944, Note_off_c, 1, 65, 0
1, 154992, Note_off_c, 1, 49, 0
1, 155040, Note_on_c, 1, 58, 127
1, 155040, Note_on_c, 1, 66, 127
1, 155040, Note_on_c, 1, 48, 127
1, 155088, Note_off_c, 1, 58, 0
1, 155100, Note_on_c, 1, 63, 127
1, 155148, Note_off_c, 1, 63, 0
1, 155232, Note_off_c, 1, 66, 0
1, 155232, Note_off_c, 1, 48, 0
1, 155280, Note_on_c, 1, 57, 127
1, 155280, Note_on_c, 1, 65, 127
1, 155280, Note_on_c, 1, 53, 127
1, 155328, Note_off_c, 1, 57, 0
1, 155340, Note_on_c, 1, 63, 127
1, 155388, Note_off_c, 1, 63, 0
1, 155472, Note_off_c, 1, 53, 0
1, 155520, Note_on_c, 1, 61, 127
1, 155520, Note_on_c, 1, 46, 127
1, 155568, Note_off_c, 1, 61, 0
1, 155616, Note_off_c, 1, 46, 0
1, 155700, Note_on_c, 1, 60, 127
1, 155712, Note_off_c, 1, 65, 0
1, 155748, Note_off_c, 1, 60, 0
1, 155760, Note_on_c, 1, 61, 127
1, 155760, Note_on_c, 1, 58, 127
1, 155808, Note_off_c, 1, 61, 0
1, 155820, Note_on_c, 1, 65, 127
1, 155856, Note_off_c, 1, 58, 0
1, 155868, Note_off_c, 1, 65, 0
1, 155880, Note_on_c, 1, 61, 127
1, 155880, Note_on_c, 1, 56, 127
1, 155928, Note_off_c, 1, 61, 0
1, 155940, Note_on_c, 1, 65, 127
1, 155976, Note_off_c, 1, 56, 0
1, 155988, Note_off_c, 1, 65, 0
1, 156000, Note_on_c, 1, 58, 127
1, 156000, Note_on_c, 1, 55, 127
1, 156048, Note_off_c, 1, 58, 0
1, 156060, Note_on_c, 1, 68, 127
1, 156096, Note_off_c, 1, 55, 0
1, 156108, Note_off_c, 1, 68, 0
1, 156120, Note_on_c, 1, 67, 127
1, 156120, Note_on_c, 1, 58, 127
1, 156168, Note_off_c, 1, 67, 0
1, 156180, Note_on_c, 1, 65, 127
1, 156216, Note_off_c, 1, 58, 0
1, 156228, Note_off_c, 1, 65, 0
1, 156240, Note_on_c, 1, 67, 127
1, 156240, Note_on_c, 1, 52, 127
1, 156288, Note_off_c, 1, 67, 0
1, 156300, Note_on_c, 1, 70, 127
1, 156336, Note_off_c, 1, 52, 0
1, 156348, Note_off_c, 1, 70, 0
1, 156360, Note_on_c, 1, 67, 127
1, 156360, Note_on_c, 1, 55, 127
1, 156408, Note_off_c, 1, 67, 0
1, 156420, Note_on_c, 1, 70, 127
1, 156456, Note_off_c, 1, 55, 0
1, 156468, Note_off_c, 1, 70, 0
1, 156480, Note_on_c, 1, 64, 127
1, 156480, Note_on_c, 1, 48, 127
1, 156528, Note_off_c, 1, 64, 0
1, 156540, Note_on_c, 1, 65, 127
1, 156576, Note_off_c, 1, 48, 0
1, 156588, Note_off_c, 1, 65, 0
1, 156600, Note_on_c, 1, 64, 127
1, 156600, Note_on_c, 1, 55, 127
1, 156648, Note_off_c, 1, 64, 0
1, 156660, Note_on_c, 1, 62, 127
1, 156696, Note_off_c, 1, 55, 0
1, 156708, Note_off_c, 1, 62, 0
1, 156720, Note_on_c, 1, 64, 127
1, 156720, Note_on_c, 1, 60, 127
1, 156768, Note_off_c, 1, 64, 0
1, 156780, Note_on_c, 1, 67, 127
1, 156816, Note_off_c, 1, 60, 0
1, 156828, Note_off_c, 1, 67, 0
1, 156840, Note_on_c, 1, 64, 127
1, 156840, Note_on_c, 1, 58, 127
1, 156888, Note_off_c, 1, 64, 0
1, 156900, Note_on_c, 1, 67, 127
1, 156936, Note_off_c, 1, 58, 0
1, 156948, Note_off_c, 1, 67, 0
1, 156960, Note_on_c, 1, 60, 127
1, 156960, Note_on_c, 1, 56, 127
1, 157008, Note_off_c, 1, 60, 0
1, 157020, Note_on_c, 1, 70, 127
1, 157056, Note_off_c, 1, 56, 0
1, 157068, Note_off_c, 1, 70, 0
1, 157080, Note_on_c, 1, 68, 127
1, 157080, Note_on_c, 1, 60, 127
1, 157128, Note_off_c, 1, 68, 0
1, 157140, Note_on_c, 1, 67, 127
1, 157176, Note_off_c, 1, 60, 0
1, 157188, Note_off_c, 1, 67, 0
1, 157200, Note_on_c, 1, 68, 127
1, 157200, Note_on_c, 1, 53, 127
1, 157248, Note_off_c, 1, 68, 0
1, 157260, Note_on_c, 1, 72, 127
1, 157296, Note_off_c, 1, 53, 0
1, 157308, Note_off_c, 1, 72, 0
1, 157320, Note_on_c, 1, 68, 127
1, 157320, Note_on_c, 1, 56, 127
1, 157368, Note_off_c, 1, 68, 0
1, 157380, Note_on_c, 1, 72, 127
1, 157416, Note_off_c, 1, 56, 0
1, 157428, Note_off_c, 1, 72, 0
1, 157440, Note_on_c, 1, 65, 127
1, 157440, Note_on_c, 1, 49, 127
1, 157560, Note_on_c, 1, 77, 127
1, 157632, Note_off_c, 1, 65, 0
1, 157632, Note_off_c, 1, 49, 0
1, 157680, Note_on_c, 1, 67, 127
1, 157680, Note_on_c, 1, 46, 127
1, 157752, Note_off_c, 1, 77, 0
1, 157872, Note_off_c, 1, 67, 0
1, 157872, Note_off_c, 1, 46, 0
1, 157920, Note_on_c, 1, 68, 127
1, 157920, Note_on_c, 1, 48, 127
1, 157980, Note_on_c, 1, 75, 127
1, 158028, Note_off_c, 1, 75, 0
1, 158040, Note_on_c, 1, 73, 127
1, 158088, Note_off_c, 1, 73, 0
1, 158100, Note_on_c, 1, 72, 127
1, 158112, Note_off_c, 1, 68, 0
1, 158112, Note_off_c, 1, 48, 0
1, 158148, Note_off_c, 1, 72, 0
1, 158160, Note_on_c, 1, 70, 127
1, 158160, Note_on_c, 1, 49, 127
1, 158220, Note_on_c, 1, 68, 127
1, 158268, Note_off_c, 1, 68, 0
1, 158280, Note_on_c, 1, 67, 127
1, 158328, Note_off_c, 1, 67, 0
1, 158340, Note_on_c, 1, 65, 127
1, 158352, Note_off_c, 1, 49, 0
1, 158388, Note_off_c, 1, 65, 0
1, 158400, Note_on_c, 1, 64, 127
1, 158400, Note_on_c, 1, 48, 127
1, 158448, Note_off_c, 1, 64, 0
1, 158496, Note_off_c, 1, 48, 0
1, 158520, Note_on_c, 1, 41, 127
1, 158592, Note_off_c, 1, 70, 0
1, 158616, Note_off_c, 1, 41, 0
1, 158640, Note_on_c, 1, 65, 127
1, 158640, Note_on_c, 1, 60, 127
1, 158640, Note_on_c, 1, 56, 127
1, 158688, Note_off_c, 1, 65, 0
1, 158700, Note_on_c, 1, 68, 127
1, 158748, Note_off_c, 1, 68, 0
1, 158832, Note_off_c, 1, 60, 0
1, 158880, Note_on_c, 1, 61, 127
1, 158940, Note_on_c, 1, 70, 127
1, 158988, Note_off_c, 1, 70, 0
1, 159024, Note_off_c, 1, 56, 0
1, 159072, Note_off_c, 1, 61, 0
1, 159120, Note_on_c, 1, 64, 127
1, 159120, Note_on_c, 1, 60, 127
1, 159120, Note_on_c, 1, 55, 127
1, 159168, Note_off_c, 1, 64, 0
1, 159180, Note_on_c, 1, 70, 127
1, 159216, Note_off_c, 1, 60, 0
1, 159228, Note_off_c, 1, 70, 0
1, 159240, Note_on_c, 1, 58, 127
1, 159312, Note_off_c, 1, 55, 0
1, 159336, Note_off_c, 1, 58, 0
1, 159360, Note_on_c, 1, 68, 127
1, 159360, Note_on_c, 1, 60, 127
1, 159360, Note_on_c, 1, 53, 127
1, 159408, Note_off_c, 1, 68, 0
1, 159420, Note_on_c, 1, 67, 127
1, 159468, Note_off_c, 1, 67, 0
1, 159480, Note_on_c, 1, 65, 127
1, 159528, Note_off_c, 1, 65, 0
1, 159540, Note_on_c, 1, 64, 127
1, 159552, Note_off_c, 1, 53, 0
1, 159588, Note_off_c, 1, 64, 0
1, 159720, Note_on_c, 1, 56, 127
1, 159744, Note_off_c, 1, 60, 0
1, 159840, Note_on_c, 1, 74, 127
1, 159840, Note_on_c, 1, 58, 127
1, 159888, Note_off_c, 1, 74, 0
1, 159900, Note_on_c, 1, 75, 127
1, 159936, Note_off_c, 1, 56, 0
1, 159948, Note_off_c, 1, 75, 0
1, 160020, Note_on_c, 1, 72, 127
1, 160068, Note_off_c, 1, 72, 0
1, 160080, Note_on_c, 1, 55, 127
1, 160176, Note_off_c, 1, 55, 0
1, 160200, Note_on_c, 1, 70, 127
1, 160224, Note_off_c, 1, 58, 0
1, 160248, Note_off_c, 1, 70, 0
1, 160320, Note_on_c, 1, 67, 127
1, 160320, Note_on_c, 1, 51, 127
1, 160368, Note_off_c, 1, 67, 0
1, 160368, Note_off_c, 1, 51, 0
1, 160380, Note_on_c, 1, 68, 127
1, 160380, Note_on_c, 1, 53, 127
1, 160428, Note_off_c, 1, 68, 0
1, 160428, Note_off_c, 1, 53, 0
1, 160440, Note_on_c, 1, 67, 127
1, 160440, Note_on_c, 1, 51, 127
1, 160488, Note_off_c, 1, 67, 0
1, 160488, Note_off_c, 1, 51, 0
1, 160500, Note_on_c, 1, 65, 127
1, 160500, Note_on_c, 1, 50, 127
1, 160548, Note_off_c, 1, 65, 0
1, 160548, Note_off_c, 1, 50, 0
1, 160560, Note_on_c, 1, 67, 127
1, 160560, Note_on_c, 1, 51, 127
1, 160608, Note_off_c, 1, 67, 0
1, 160608, Note_off_c, 1, 51, 0
1, 160620, Note_on_c, 1, 69, 127
1, 160620, Note_on_c, 1, 55, 127
1, 160668, Note_off_c, 1, 69, 0
1, 160668, Note_off_c, 1, 55, 0
1, 160680, Note_on_c, 1, 71, 127
1, 160680, Note_on_c, 1, 53, 127
1, 160728, Note_off_c, 1, 71, 0
1, 160728, Note_off_c, 1, 53, 0
1, 160740, Note_on_c, 1, 72, 127
1, 160740, Note_on_c, 1, 51, 127
1, 160788, Note_off_c, 1, 72, 0
1, 160788, Note_off_c, 1, 51, 0
1, 160800, Note_on_c, 1, 71, 127
1, 160800, Note_on_c, 1, 50, 127
1, 160848, Note_off_c, 1, 71, 0
1, 160848, Note_off_c, 1, 50, 0
1, 160860, Note_on_c, 1, 72, 127
1, 160860, Note_on_c, 1, 48, 127
1, 160908, Note_off_c, 1, 72, 0
1, 160908, Note_off_c, 1, 48, 0
1, 160920, Note_on_c, 1, 74, 127
1, 160920, Note_on_c, 1, 47, 127
1, 160968, Note_off_c, 1, 74, 0
1, 160968, Note_off_c, 1, 47, 0
1, 160980, Note_on_c, 1, 75, 127
1, 160980, Note_on_c, 1, 45, 127
1, 161028, Note_off_c, 1, 75, 0
1, 161028, Note_off_c, 1, 45, 0
1, 161040, Note_on_c, 1, 77, 127
1, 161040, Note_on_c, 1, 43, 127
1, 161088, Note_off_c, 1, 77, 0
1, 161088, Note_off_c, 1, 43, 0
1, 161100, Note_on_c, 1, 80, 127
1, 161100, Note_on_c, 1, 41, 127
1, 161148, Note_off_c, 1, 80, 0
1, 161148, Note_off_c, 1, 41, 0
1, 161160, Note_on_c, 1, 79, 127
1, 161160, Note_on_c, 1, 39, 127
1, 161208, Note_off_c, 1, 79, 0
1, 161208, Note_off_c, 1, 39, 0
1, 161220, Note_on_c, 1, 77, 127
1, 161220, Note_on_c, 1, 38, 127
1, 161268, Note_off_c, 1, 77, 0
1, 161268, Note_off_c, 1, 38, 0
1, 161280, Note_on_c, 1, 75, 127
1, 161280, Note_on_c, 1, 72, 127
1, 161280, Note_on_c, 1, 36, 127
1, 161328, Note_off_c, 1, 75, 0
1, 161340, Note_on_c, 1, 79, 127
1, 161376, Note_off_c, 1, 36, 0
1, 161388, Note_off_c, 1, 79, 0
1, 161400, Note_on_c, 1, 60, 127
1, 161472, Note_off_c, 1, 72, 0
1, 161520, Note_on_c, 1, 77, 127
1, 161520, Note_on_c, 1, 74, 127
1, 161568, Note_off_c, 1, 77, 0
1, 161580, Note_on_c, 1, 80, 127
1, 161592, Note_off_c, 1, 60, 0
1, 161628, Note_off_c, 1, 80, 0
1, 161712, Note_off_c, 1, 74, 0
1, 161820, Note_on_c, 1, 58, 127
1, 161868, Note_off_c, 1, 58, 0
1, 161880, Note_on_c, 1, 56, 127
1, 161928, Note_off_c, 1, 56, 0
1, 161940, Note_on_c, 1, 55, 127
1, 161988, Note_off_c, 1, 55, 0
1, 162000, Note_on_c, 1, 77, 127
1, 162000, Note_on_c, 1, 80, 127
1, 162000, Note_on_c, 1, 53, 127
1, 162048, Note_off_c, 1, 53, 0
1, 162060, Note_on_c, 1, 51, 127
1, 162108, Note_off_c, 1, 51, 0
1, 162120, Note_on_c, 1, 50, 127
1, 162168, Note_off_c, 1, 50, 0
1, 162180, Note_on_c, 1, 48, 127
1, 162192, Note_off_c, 1, 77, 0
1, 162192, Note_off_c, 1, 80, 0
1, 162228, Note_off_c, 1, 48, 0
1, 162240, Note_on_c, 1, 77, 127
1, 162240, Note_on_c, 1, 79, 127
1, 162240, Note_on_c, 1, 47, 127
1, 162288, Note_off_c, 1, 47, 0
1, 162300, Note_on_c, 1, 50, 127
1, 162348, Note_off_c, 1, 50, 0
1, 162432, Note_off_c, 1, 77, 0
1, 162480, Note_on_c, 1, 75, 127
1, 162480, Note_on_c, 1, 48, 127
1, 162528, Note_off_c, 1, 48, 0
1, 162540, Note_on_c, 1, 51, 127
1, 162588, Note_off_c, 1, 51, 0
1, 162624, Note_off_c, 1, 79, 0
1, 162672, Note_off_c, 1, 75, 0
1, 162720, Note_on_c, 1, 80, 127
1, 162720, Note_on_c, 1, 74, 127
1, 162720, Note_on_c, 1, 48, 127
1, 162768, Note_off_c, 1, 48, 0
1, 162780, Note_on_c, 1, 53, 127
1, 162828, Note_off_c, 1, 53, 0
1, 162912, Note_off_c, 1, 80, 0
1, 162960, Note_on_c, 1, 79, 127
1, 162960, Note_on_c, 1, 47, 127
1, 163008, Note_off_c, 1, 47, 0
1, 163020, Note_on_c, 1, 55, 127
1, 163056, Note_off_c, 1, 79, 0
1, 163068, Note_off_c, 1, 55, 0
1, 163080, Note_on_c, 1, 77, 127
1, 163176, Note_off_c, 1, 77, 0
1, 163200, Note_on_c, 1, 75, 127
1, 163248, Note_off_c, 1, 74, 0
1, 163320, Note_on_c, 1, 72, 127
1, 163320, Note_on_c, 1, 51, 127
1, 163368, Note_off_c, 1, 72, 0
1, 163368, Note_off_c, 1, 51, 0
1, 163380, Note_on_c, 1, 71, 127
1, 163380, Note_on_c, 1, 50, 127
1, 163428, Note_off_c, 1, 71, 0
1, 163428, Note_off_c, 1, 50, 0
1, 163680, Note_on_c, 1, 41, 127
1, 163728, Note_off_c, 1, 41, 0
1, 163740, Note_on_c, 1, 70, 127
1, 163788, Note_off_c, 1, 70, 0
1, 163800, Note_on_c, 1, 68, 127
1, 163848, Note_off_c, 1, 68, 0
1, 163860, Note_on_c, 1, 67, 127
1, 163908, Note_off_c, 1, 67, 0
1, 163968, Note_off_c, 1, 75, 0
1, 163980, Note_on_c, 1, 56, 127
1, 164028, Note_off_c, 1, 56, 0
1, 164160, Note_on_c, 1, 73, 127
1, 164160, Note_on_c, 1, 46, 127
1, 164208, Note_off_c, 1, 46, 0
1, 164280, Note_on_c, 1, 49, 127
1, 164328, Note_off_c, 1, 49, 0
1, 164640, Note_on_c, 1, 39, 127
1, 164688, Note_off_c, 1, 39, 0
1, 164820, Note_on_c, 1, 65, 127
1, 164868, Note_off_c, 1, 65, 0
1, 164928, Note_off_c, 1, 73, 0
1, 165120, Note_on_c, 1, 44, 127
1, 165168, Note_off_c, 1, 44, 0
1, 165600, Note_on_c, 1, 38, 127
1, 165648, Note_off_c, 1, 38, 0
1, 165780, Note_on_c, 1, 63, 127
1, 165828, Note_off_c, 1, 63, 0
1, 166080, Note_on_c, 1, 43, 127
1, 166272, Note_off_c, 1, 43, 0
1, 166320, Note_on_c, 1, 62, 127
1, 166368, Note_off_c, 1, 62, 0
1, 166380, Note_on_c, 1, 60, 127
1, 166428, Note_off_c, 1, 60, 0
1, 166440, Note_on_c, 1, 59, 127
1, 166488, Note_off_c, 1, 59, 0
1, 166500, Note_on_c, 1, 57, 127
1, 166548, Note_off_c, 1, 57, 0
1, 166560, Note_on_c, 1, 55, 127
1, 166848, Note_off_c, 1, 55, 0
1, 166920, Note_on_c, 1, 74, 127
1, 166920, Note_on_c, 1, 67, 127
1, 166920, Note_on_c, 1, 65, 127
1, 166920, Note_on_c, 1, 55, 127
1, 166920, Note_on_c, 1, 43, 127
1, 167016, Note_off_c, 1, 74, 0
1, 167016, Note_off_c, 1, 67, 0
1, 167016, Note_off_c, 1, 55, 0
1, 167016, Note_off_c, 1, 43, 0
1, 167033, Note_off_c, 1, 65, 0
1, 167040, Note_on_c, 1, 71, 127
1, 167040, Note_on_c, 1, 67, 127
1, 167040, Note_on_c, 1, 74, 127
1, 167040, Note_on_c, 1, 65, 127
1, 167040, Note_on_c, 1, 55, 127
1, 167040, Note_on_c, 1, 48, 127
1, 167424, Note_off_c, 1, 71, 0
1, 167424, Note_off_c, 1, 67, 0
1, 167424, Note_off_c, 1, 74, 0
1, 167424, Note_off_c, 1, 65, 0
1, 167520, Note_on_c, 1, 72, 127
1, 167520, Note_on_c, 1, 63, 127
1, 167664, Note_off_c, 1, 48, 0
1, 167760, Note_on_c, 1, 50, 127
1, 167808, Note_off_c, 1, 55, 0
1, 167904, Note_off_c, 1, 72, 0
1, 167904, Note_off_c, 1, 63, 0
1, 167904, Note_off_c, 1, 50, 0
1, 167940, Note_on_c, 1, 51, 127
1, 167988, Note_off_c, 1, 51, 0
1, 168000, Note_on_c, 1, 77, 127
1, 168000, Note_on_c, 1, 70, 127
1, 168000, Note_on_c, 1, 65, 127
1, 168000, Note_on_c, 1, 58, 127
1, 168000, Note_on_c, 1, 50, 127
1, 168144, Note_off_c, 1, 77, 0
1, 168180, Note_on_c, 1, 75, 127
1, 168228, Note_off_c, 1, 75, 0
1, 168240, Note_on_c, 1, 74, 127
1, 168384, Note_off_c, 1, 70, 0
1, 168384, Note_off_c, 1, 65, 0
1, 168384, Note_off_c, 1, 58, 0
1, 168384, Note_off_c, 1, 50, 0
1, 168384, Note_off_c, 1, 74, 0
1, 168420, Note_on_c, 1, 72, 127
1, 168468, Note_off_c, 1, 72, 0
1, 168480, Note_on_c, 1, 70, 127
1, 168768, Note_off_c, 1, 70, 0
1, 168840, Note_on_c, 1, 68, 127
1, 168840, Note_on_c, 1, 62, 127
1, 168840, Note_on_c, 1, 65, 127
1, 168840, Note_on_c, 1, 53, 127
1, 168840, Note_on_c, 1, 46, 127
1, 168936, Note_off_c, 1, 68, 0
1, 168936, Note_off_c, 1, 62, 0
1, 168936, Note_off_c, 1, 65, 0
1, 168936, Note_off_c, 1, 53, 0
1, 168936, Note_off_c, 1, 46, 0
1, 168960, Note_on_c, 1, 62, 127
1, 168960, Note_on_c, 1, 65, 127
1, 168960, Note_on_c, 1, 68, 127
1, 168960, Note_on_c, 1, 58, 127
1, 168960, Note_on_c, 1, 51, 127
1, 169344, Note_off_c, 1, 62, 0
1, 169344, Note_off_c, 1, 65, 0
1, 169344, Note_off_c, 1, 68, 0
1, 169440, Note_on_c, 1, 63, 127
1, 169440, Note_on_c, 1, 67, 127
1, 169620, Note_on_c, 1, 46, 127
1, 169668, Note_off_c, 1, 46, 0
1, 169680, Note_on_c, 1, 43, 127
1, 169728, Note_off_c, 1, 58, 0
1, 169728, Note_off_c, 1, 51, 0
1, 169824, Note_off_c, 1, 63, 0
1, 169824, Note_off_c, 1, 67, 0
1, 169824, Note_off_c, 1, 43, 0
1, 169860, Note_on_c, 1, 46, 127
1, 169908, Note_off_c, 1, 46, 0
1, 169920, Note_on_c, 1, 79, 127
1, 169920, Note_on_c, 1, 39, 127
1, 170064, Note_off_c, 1, 79, 0
1, 170100, Note_on_c, 1, 80, 127
1, 170148, Note_off_c, 1, 80, 0
1, 170304, Note_off_c, 1, 39, 0
1, 170340, Note_on_c, 1, 77, 127
1, 170340, Note_on_c, 1, 55, 127
1, 170388, Note_off_c, 1, 77, 0
1, 170388, Note_off_c, 1, 55, 0
1, 170400, Note_on_c, 1, 79, 127
1, 170400, Note_on_c, 1, 60, 127
1, 170544, Note_off_c, 1, 79, 0
1, 170580, Note_on_c, 1, 75, 127
1, 170628, Note_off_c, 1, 75, 0
1, 170640, Note_on_c, 1, 74, 127
1, 170808, Note_off_c, 1, 74, 0
1, 170820, Note_on_c, 1, 72, 127
1, 170820, Note_on_c, 1, 55, 127
1, 170820, Note_on_c, 1, 51, 127
1, 170868, Note_off_c, 1, 72, 0
1, 170868, Note_off_c, 1, 55, 0
1, 170868, Note_off_c, 1, 51, 0
1, 170880, Note_on_c, 1, 77, 127
1, 170880, Note_on_c, 1, 53, 127
1, 170880, Note_on_c, 1, 50, 127
1, 171024, Note_off_c, 1, 77, 0
1, 171168, Note_off_c, 1, 60, 0
1, 171264, Note_off_c, 1, 53, 0
1, 171264, Note_off_c, 1, 50, 0
1, 171300, Note_on_c, 1, 75, 127
1, 171300, Note_on_c, 1, 60, 127
1, 171348, Note_off_c, 1, 75, 0
1, 171348, Note_off_c, 1, 60, 0
1, 171360, Note_on_c, 1, 77, 127
1, 171360, Note_on_c, 1, 58, 127
1, 171504, Note_off_c, 1, 77, 0
1, 171540, Note_on_c, 1, 74, 127
1, 171588, Note_off_c, 1, 74, 0
1, 171600, Note_on_c, 1, 72, 127
1, 171768, Note_off_c, 1, 72, 0
1, 171780, Note_on_c, 1, 70, 127
1, 171780, Note_on_c, 1, 53, 127
1, 171780, Note_on_c, 1, 50, 127
1, 171828, Note_off_c, 1, 70, 0
1, 171828, Note_off_c, 1, 53, 0
1, 171828, Note_off_c, 1, 50, 0
1, 171840, Note_on_c, 1, 75, 127
1, 171840, Note_on_c, 1, 55, 127
1, 171840, Note_on_c, 1, 48, 127
1, 171984, Note_off_c, 1, 75, 0
1, 172128, Note_off_c, 1, 55, 0
1, 172224, Note_off_c, 1, 48, 0
1, 172464, Note_off_c, 1, 58, 0
1, 172500, Note_on_c, 1, 57, 127
1, 172548, Note_off_c, 1, 57, 0
1, 172740, Note_on_c, 1, 69, 127
1, 172788, Note_off_c, 1, 69, 0
1, 172800, Note_on_c, 1, 67, 127
1, 172800, Note_on_c, 1, 46, 127
1, 173184, Note_off_c, 1, 46, 0
1, 173424, Note_off_c, 1, 67, 0
1, 173460, Note_on_c, 1, 62, 127
1, 173508, Note_off_c, 1, 62, 0
1, 173520, Note_on_c, 1, 60, 127
1, 173664, Note_off_c, 1, 60, 0
1, 173760, Note_on_c, 1, 65, 127
1, 173760, Note_on_c, 1, 45, 127
1, 174144, Note_off_c, 1, 45, 0
1, 174384, Note_off_c, 1, 65, 0
1, 174720, Note_on_c, 1, 41, 127
1, 175104, Note_off_c, 1, 41, 0
1, 175140, Note_on_c, 1, 44, 127
1, 175188, Note_off_c, 1, 44, 0
1, 175380, Note_on_c, 1, 51, 127
1, 175428, Note_off_c, 1, 51, 0
1, 176580, Note_on_c, 1, 38, 127
1, 176628, Note_off_c, 1, 38, 0
1, 176640, Note_on_c, 1, 39, 127
1, 176928, Note_off_c, 1, 39, 0
1, 177120, Note_on_c, 1, 63, 127
1, 177432, Note_off_c, 1, 63, 0
1, 178020, Note_on_c, 1, 75, 127
1, 178020, Note_on_c, 1, 48, 127
1, 178068, Note_off_c, 1, 75, 0
1, 178068, Note_off_c, 1, 48, 0
1, 178080, Note_on_c, 1, 77, 127
1, 178080, Note_on_c, 1, 50, 127
1, 178260, Note_on_c, 1, 65, 127
1, 178308, Note_off_c, 1, 65, 0
1, 178320, Note_on_c, 1, 67, 127
1, 178368, Note_off_c, 1, 50, 0
1, 178464, Note_off_c, 1, 67, 0
1, 178500, Note_on_c, 1, 69, 127
1, 178500, Note_on_c, 1, 41, 127
1, 178548, Note_off_c, 1, 69, 0
1, 178548, Note_off_c, 1, 41, 0
1, 178560, Note_on_c, 1, 70, 127
1, 178560, Note_on_c, 1, 43, 127
1, 178740, Note_on_c, 1, 62, 127
1, 178788, Note_off_c, 1, 62, 0
1, 178800, Note_on_c, 1, 63, 127
1, 178848, Note_off_c, 1, 43, 0
1, 178944, Note_off_c, 1, 77, 0
1, 178944, Note_off_c, 1, 63, 0
1, 179040, Note_on_c, 1, 75, 127
1, 179040, Note_on_c, 1, 51, 127
1, 179184, Note_off_c, 1, 70, 0
1, 179220, Note_on_c, 1, 55, 127
1, 179268, Note_off_c, 1, 55, 0
1, 179280, Note_on_c, 1, 72, 127
1, 179280, Note_on_c, 1, 57, 127
1, 179328, Note_off_c, 1, 51, 0
1, 179424, Note_off_c, 1, 72, 0
1, 179424, Note_off_c, 1, 57, 0
1, 179460, Note_on_c, 1, 74, 127
1, 179460, Note_on_c, 1, 58, 127
1, 179508, Note_off_c, 1, 74, 0
1, 179508, Note_off_c, 1, 58, 0
1, 179520, Note_on_c, 1, 60, 127
1, 179520, Note_on_c, 1, 45, 127
1, 179808, Note_off_c, 1, 45, 0
1, 179904, Note_off_c, 1, 75, 0
1, 179904, Note_off_c, 1, 60, 0
1, 179940, Note_on_c, 1, 69, 127
1, 179940, Note_on_c, 1, 53, 127
1, 179988, Note_off_c, 1, 69, 0
1, 179988, Note_off_c, 1, 53, 0
1, 180000, Note_on_c, 1, 70, 127
1, 180000, Note_on_c, 1, 65, 127
1, 180000, Note_on_c, 1, 50, 127
1, 180180, Note_on_c, 1, 72, 127
1, 180228, Note_off_c, 1, 72, 0
1, 180240, Note_on_c, 1, 74, 127
1, 180288, Note_off_c, 1, 50, 0
1, 180384, Note_off_c, 1, 74, 0
1, 180420, Note_on_c, 1, 75, 127
1, 180420, Note_on_c, 1, 46, 127
1, 180468, Note_off_c, 1, 75, 0
1, 180468, Note_off_c, 1, 46, 0
1, 180480, Note_on_c, 1, 53, 127
1, 180864, Note_off_c, 1, 70, 0
1, 180864, Note_off_c, 1, 53, 0
1, 180900, Note_on_c, 1, 79, 127
1, 180948, Note_off_c, 1, 79, 0
1, 180960, Note_on_c, 1, 77, 127
1, 180960, Note_on_c, 1, 69, 127
1, 180960, Note_on_c, 1, 41, 127
1, 181104, Note_off_c, 1, 77, 0
1, 181248, Note_off_c, 1, 65, 0
1, 181344, Note_off_c, 1, 69, 0
1, 181344, Note_off_c, 1, 41, 0
1, 181380, Note_on_c, 1, 75, 127
1, 181428, Note_off_c, 1, 75, 0
1, 181440, Note_on_c, 1, 70, 127
1, 181440, Note_on_c, 1, 65, 127
1, 181440, Note_on_c, 1, 74, 127
1, 181440, Note_on_c, 1, 53, 127
1, 181440, Note_on_c, 1, 46, 127
1, 181728, Note_off_c, 1, 53, 0
1, 181740, Note_on_c, 1, 51, 127
1, 181788, Note_off_c, 1, 51, 0
1, 181800, Note_on_c, 1, 50, 127
1, 181824, Note_off_c, 1, 70, 0
1, 181824, Note_off_c, 1, 65, 0
1, 181824, Note_off_c, 1, 74, 0
1, 181824, Note_off_c, 1, 46, 0
1, 181848, Note_off_c, 1, 50, 0
1, 181860, Note_on_c, 1, 48, 127
1, 181908, Note_off_c, 1, 48, 0
1, 181920, Note_on_c, 1, 46, 127
1, 182208, Note_off_c, 1, 46, 0
1, 182280, Note_on_c, 1, 74, 127
1, 182280, Note_on_c, 1, 65, 127
1, 182280, Note_on_c, 1, 77, 127
1, 182280, Note_on_c, 1, 56, 127
1, 182280, Note_on_c, 1, 46, 127
1, 182376, Note_off_c, 1, 74, 0
1, 182376, Note_off_c, 1, 65, 0
1, 182376, Note_off_c, 1, 56, 0
1, 182393, Note_off_c, 1, 46, 0
1, 182400, Note_on_c, 1, 47, 127
1, 182880, Note_on_c, 1, 67, 127
1, 182880, Note_on_c, 1, 55, 127
1, 183024, Note_off_c, 1, 47, 0
1, 183060, Note_on_c, 1, 50, 127
1, 183108, Note_off_c, 1, 50, 0
1, 183120, Note_on_c, 1, 48, 127
1, 183264, Note_off_c, 1, 55, 0
1, 183264, Note_off_c, 1, 48, 0
1, 183300, Note_on_c, 1, 72, 127
1, 183348, Note_off_c, 1, 72, 0
1, 183360, Note_on_c, 1, 71, 127
1, 183360, Note_on_c, 1, 62, 127
1, 183360, Note_on_c, 1, 43, 127
1, 183390, Note_on_c, 1, 69, 127
1, 183414, Note_off_c, 1, 69, 0
1, 183648, Note_off_c, 1, 62, 0
1, 183660, Note_on_c, 1, 60, 127
1, 183708, Note_off_c, 1, 60, 0
1, 183720, Note_on_c, 1, 59, 127
1, 183744, Note_off_c, 1, 77, 0
1, 183744, Note_off_c, 1, 67, 0
1, 183744, Note_off_c, 1, 43, 0
1, 183768, Note_off_c, 1, 59, 0
1, 183780, Note_on_c, 1, 57, 127
1, 183792, Note_off_c, 1, 71, 0
1, 183828, Note_off_c, 1, 57, 0
1, 183840, Note_on_c, 1, 55, 127
1, 184128, Note_off_c, 1, 55, 0
1, 184200, Note_on_c, 1, 62, 127
1, 184200, Note_on_c, 1, 67, 127
1, 184200, Note_on_c, 1, 74, 127
1, 184200, Note_on_c, 1, 53, 127
1, 184200, Note_on_c, 1, 47, 127
1, 184296, Note_off_c, 1, 62, 0
1, 184296, Note_off_c, 1, 67, 0
1, 184296, Note_off_c, 1, 53, 0
1, 184313, Note_off_c, 1, 47, 0
1, 184320, Note_on_c, 1, 55, 127
1, 184320, Note_on_c, 1, 48, 127
1, 184704, Note_off_c, 1, 74, 0
1, 184800, Note_on_c, 1, 72, 127
1, 184800, Note_on_c, 1, 51, 127
1, 184944, Note_off_c, 1, 48, 0
1, 185040, Note_on_c, 1, 50, 127
1, 185088, Note_off_c, 1, 55, 0
1, 185184, Note_off_c, 1, 50, 0
1, 185280, Note_on_c, 1, 68, 127
1, 185280, Note_on_c, 1, 41, 127
1, 185424, Note_off_c, 1, 68, 0
1, 185460, Note_on_c, 1, 70, 127
1, 185508, Note_off_c, 1, 70, 0
1, 185568, Note_off_c, 1, 51, 0
1, 185664, Note_off_c, 1, 72, 0
1, 185664, Note_off_c, 1, 41, 0
1, 185700, Note_on_c, 1, 67, 127
1, 185700, Note_on_c, 1, 51, 127
1, 185748, Note_off_c, 1, 67, 0
1, 185748, Note_off_c, 1, 51, 0
1, 185760, Note_on_c, 1, 68, 127
1, 185760, Note_on_c, 1, 70, 127
1, 185760, Note_on_c, 1, 50, 127
1, 185904, Note_off_c, 1, 68, 0
1, 185940, Note_on_c, 1, 65, 127
1, 185988, Note_off_c, 1, 65, 0
1, 186000, Note_on_c, 1, 63, 127
1, 186144, Note_off_c, 1, 50, 0
1, 186144, Note_off_c, 1, 63, 0
1, 186180, Note_on_c, 1, 62, 127
1, 186180, Note_on_c, 1, 53, 127
1, 186180, Note_on_c, 1, 46, 127
1, 186228, Note_off_c, 1, 62, 0
1, 186228, Note_off_c, 1, 53, 0
1, 186228, Note_off_c, 1, 46, 0
1, 186240, Note_on_c, 1, 67, 127
1, 186240, Note_on_c, 1, 55, 127
1, 186240, Note_on_c, 1, 51, 127
1, 186240, Note_on_c, 1, 39, 127
1, 186384, Note_off_c, 1, 55, 0
1, 186624, Note_off_c, 1, 51, 0
1, 186624, Note_off_c, 1, 39, 0
1, 186900, Note_on_c, 1, 58, 127
1, 186948, Note_off_c, 1, 58, 0
1, 186960, Note_on_c, 1, 56, 127
1, 187104, Note_off_c, 1, 56, 0
1, 187200, Note_on_c, 1, 60, 127
1, 187200, Note_on_c, 1, 44, 127
1, 187488, Note_off_c, 1, 70, 0
1, 187488, Note_off_c, 1, 67, 0
1, 187584, Note_off_c, 1, 44, 0
1, 187860, Note_on_c, 1, 48, 127
1, 187908, Note_off_c, 1, 48, 0
1, 187968, Note_off_c, 1, 60, 0
1, 188100, Note_on_c, 1, 67, 127
1, 188100, Note_on_c, 1, 63, 127
1, 188100, Note_on_c, 1, 51, 127
1, 188100, Note_on_c, 1, 60, 127
1, 188100, Note_on_c, 1, 45, 127
1, 188148, Note_off_c, 1, 67, 0
1, 188148, Note_off_c, 1, 63, 0
1, 188148, Note_off_c, 1, 51, 0
1, 188148, Note_off_c, 1, 60, 0
1, 188148, Note_off_c, 1, 45, 0
1, 188160, Note_on_c, 1, 63, 127
1, 188160, Note_on_c, 1, 67, 127
1, 188160, Note_on_c, 1, 46, 127
1, 188160, Note_on_c, 1, 58, 127
1, 188340, Note_on_c, 1, 51, 127
1, 188388, Note_off_c, 1, 51, 0
1, 188400, Note_on_c, 1, 55, 127
1, 188448, Note_off_c, 1, 58, 0
1, 188544, Note_off_c, 1, 63, 0
1, 188544, Note_off_c, 1, 67, 0
1, 188544, Note_off_c, 1, 55, 0
1, 188580, Note_on_c, 1, 60, 127
1, 188580, Note_on_c, 1, 57, 127
1, 188628, Note_off_c, 1, 60, 0
1, 188628, Note_off_c, 1, 57, 0
1, 188640, Note_on_c, 1, 65, 127
1, 188640, Note_on_c, 1, 62, 127
1, 188784, Note_off_c, 1, 46, 0
1, 188820, Note_on_c, 1, 50, 127
1, 188868, Note_off_c, 1, 50, 0
1, 188880, Note_on_c, 1, 48, 127
1, 188928, Note_off_c, 1, 65, 0
1, 189024, Note_off_c, 1, 62, 0
1, 189024, Note_off_c, 1, 48, 0
1, 189060, Note_on_c, 1, 67, 127
1, 189060, Note_on_c, 1, 58, 127
1, 189060, Note_on_c, 1, 51, 127
1, 189108, Note_off_c, 1, 67, 0
1, 189108, Note_off_c, 1, 58, 0
1, 189108, Note_off_c, 1, 51, 0
1, 189120, Note_on_c, 1, 68, 127
1, 189120, Note_on_c, 1, 58, 127
1, 189120, Note_on_c, 1, 50, 127
1, 189135, Note_on_c, 1, 56, 127
1, 189147, Note_off_c, 1, 56, 0
1, 189264, Note_off_c, 1, 68, 0
1, 189300, Note_on_c, 1, 70, 127
1, 189348, Note_off_c, 1, 70, 0
1, 189504, Note_off_c, 1, 50, 0
1, 189540, Note_on_c, 1, 67, 127
1, 189588, Note_off_c, 1, 67, 0
1, 189780, Note_on_c, 1, 77, 127
1, 189828, Note_off_c, 1, 77, 0
1, 190020, Note_on_c, 1, 46, 127
1, 190068, Note_off_c, 1, 46, 0
1, 190080, Note_on_c, 1, 51, 127
1, 190464, Note_off_c, 1, 51, 0
1, 190500, Note_on_c, 1, 65, 127
1, 190548, Note_off_c, 1, 65, 0
1, 190740, Note_on_c, 1, 75, 127
1, 190788, Note_off_c, 1, 75, 0
1, 191040, Note_on_c, 1, 63, 127
1, 191040, Note_on_c, 1, 55, 127
1, 191184, Note_off_c, 1, 58, 0
1, 191184, Note_off_c, 1, 63, 0
1, 191424, Note_off_c, 1, 55, 0
1, 191460, Note_on_c, 1, 62, 127
1, 191460, Note_on_c, 1, 53, 127
1, 191508, Note_off_c, 1, 62, 0
1, 191508, Note_off_c, 1, 53, 0
1, 191520, Note_on_c, 1, 63, 127
1, 191520, Note_on_c, 1, 55, 127
1, 191664, Note_off_c, 1, 63, 0
1, 191664, Note_off_c, 1, 55, 0
1, 191700, Note_on_c, 1, 72, 127
1, 191700, Note_on_c, 1, 51, 127
1, 191748, Note_off_c, 1, 72, 0
1, 191748, Note_off_c, 1, 51, 0
1, 191760, Note_on_c, 1, 65, 127
1, 191760, Note_on_c, 1, 51, 127
1, 191760, Note_on_c, 1, 50, 127
1, 191772, Note_off_c, 1, 51, 0
1, 191904, Note_off_c, 1, 65, 0
1, 191928, Note_off_c, 1, 50, 0
1, 191940, Note_on_c, 1, 63, 127
1, 191940, Note_on_c, 1, 48, 127
1, 191940, Note_on_c, 1, 45, 127
1, 191988, Note_off_c, 1, 63, 0
1, 191988, Note_off_c, 1, 48, 0
1, 191988, Note_off_c, 1, 45, 0
1, 192000, Note_on_c, 1, 62, 127
1, 192000, Note_on_c, 1, 46, 127
1, 192144, Note_off_c, 1, 62, 0
1, 192180, Note_on_c, 1, 63, 127
1, 192180, Note_on_c, 1, 55, 127
1, 192228, Note_off_c, 1, 63, 0
1, 192228, Note_off_c, 1, 55, 0
1, 192240, Note_on_c, 1, 53, 127
1, 192384, Note_off_c, 1, 46, 0
1, 192384, Note_off_c, 1, 53, 0
1, 192420, Note_on_c, 1, 60, 127
1, 192420, Note_on_c, 1, 51, 127
1, 192468, Note_off_c, 1, 60, 0
1, 192468, Note_off_c, 1, 51, 0
1, 192480, Note_on_c, 1, 62, 127
1, 192480, Note_on_c, 1, 53, 127
1, 192624, Note_off_c, 1, 62, 0
1, 192660, Note_on_c, 1, 58, 127
1, 192708, Note_off_c, 1, 58, 0
1, 192900, Note_on_c, 1, 65, 127
1, 192900, Note_on_c, 1, 44, 127
1, 192948, Note_off_c, 1, 65, 0
1, 192948, Note_off_c, 1, 44, 0
1, 192960, Note_on_c, 1, 70, 127
1, 192960, Note_on_c, 1, 43, 127
1, 193104, Note_off_c, 1, 70, 0
1, 193140, Note_on_c, 1, 72, 127
1, 193188, Note_off_c, 1, 72, 0
1, 193248, Note_off_c, 1, 53, 0
1, 193344, Note_off_c, 1, 43, 0
1, 193380, Note_on_c, 1, 68, 127
1, 193380, Note_on_c, 1, 53, 127
1, 193428, Note_off_c, 1, 68, 0
1, 193428, Note_off_c, 1, 53, 0
1, 193440, Note_on_c, 1, 70, 127
1, 193440, Note_on_c, 1, 51, 127
1, 193553, Note_off_c, 1, 70, 0
1, 193620, Note_on_c, 1, 63, 127
1, 193668, Note_off_c, 1, 63, 0
1, 193680, Note_on_c, 1, 67, 127
1, 193728, Note_off_c, 1, 51, 0
1, 193824, Note_off_c, 1, 67, 0
1, 193860, Note_on_c, 1, 70, 127
1, 193860, Note_on_c, 1, 55, 127
1, 193860, Note_on_c, 1, 43, 127
1, 193908, Note_off_c, 1, 70, 0
1, 193908, Note_off_c, 1, 55, 0
1, 193908, Note_off_c, 1, 43, 0
1, 193920, Note_on_c, 1, 75, 127
1, 193920, Note_on_c, 1, 56, 127
1, 193920, Note_on_c, 1, 48, 127
1, 194100, Note_on_c, 1, 60, 127
1, 194148, Note_off_c, 1, 60, 0
1, 194160, Note_on_c, 1, 62, 127
1, 194217, Note_off_c, 1, 75, 0
1, 194220, Note_on_c, 1, 74, 127
1, 194277, Note_off_c, 1, 74, 0
1, 194280, Note_on_c, 1, 72, 127
1, 194304, Note_off_c, 1, 56, 0
1, 194304, Note_off_c, 1, 48, 0
1, 194304, Note_off_c, 1, 62, 0
1, 194337, Note_off_c, 1, 72, 0
1, 194340, Note_on_c, 1, 63, 127
1, 194340, Note_on_c, 1, 70, 127
1, 194388, Note_off_c, 1, 63, 0
1, 194397, Note_off_c, 1, 70, 0
1, 194400, Note_on_c, 1, 68, 127
1, 194400, Note_on_c, 1, 65, 127
1, 194544, Note_off_c, 1, 68, 0
1, 194580, Note_on_c, 1, 77, 127
1, 194628, Note_off_c, 1, 77, 0
1, 194640, Note_on_c, 1, 70, 127
1, 194784, Note_off_c, 1, 70, 0
1, 194820, Note_on_c, 1, 53, 127
1, 194820, Note_on_c, 1, 58, 127
1, 194820, Note_on_c, 1, 50, 127
1, 194868, Note_off_c, 1, 53, 0
1, 194868, Note_off_c, 1, 58, 0
1, 194868, Note_off_c, 1, 50, 0
1, 194880, Note_on_c, 1, 67, 127
1, 194880, Note_on_c, 1, 55, 127
1, 194880, Note_on_c, 1, 51, 127
1, 195024, Note_off_c, 1, 67, 0
1, 195072, Note_off_c, 1, 65, 0
1, 195072, Note_off_c, 1, 55, 0
1, 195072, Note_off_c, 1, 51, 0
1, 195120, Note_on_c, 1, 70, 127
1, 195120, Note_on_c, 1, 58, 127
1, 195120, Note_on_c, 1, 55, 127
1, 195120, Note_on_c, 1, 43, 127
1, 195264, Note_off_c, 1, 70, 0
1, 195300, Note_on_c, 1, 63, 127
1, 195312, Note_off_c, 1, 58, 0
1, 195312, Note_off_c, 1, 55, 0
1, 195312, Note_off_c, 1, 43, 0
1, 195348, Note_off_c, 1, 63, 0
1, 195360, Note_on_c, 1, 67, 127
1, 195360, Note_on_c, 1, 60, 127
1, 195360, Note_on_c, 1, 56, 127
1, 195360, Note_on_c, 1, 51, 127
1, 195360, Note_on_c, 1, 44, 127
1, 195504, Note_off_c, 1, 67, 0
1, 195540, Note_on_c, 1, 65, 127
1, 195552, Note_off_c, 1, 60, 0
1, 195552, Note_off_c, 1, 56, 0
1, 195552, Note_off_c, 1, 51, 0
1, 195552, Note_off_c, 1, 44, 0
1, 195588, Note_off_c, 1, 65, 0
1, 195600, Note_on_c, 1, 63, 127
1, 195600, Note_on_c, 1, 58, 127
1, 195600, Note_on_c, 1, 65, 127
1, 195600, Note_on_c, 1, 56, 127
1, 195600, Note_on_c, 1, 46, 127
1, 195612, Note_off_c, 1, 65, 0
1, 195768, Note_off_c, 1, 63, 0
1, 195780, Note_on_c, 1, 62, 127
1, 195792, Note_off_c, 1, 58, 0
1, 195792, Note_off_c, 1, 56, 0
1, 195792, Note_off_c, 1, 46, 0
1, 195828, Note_off_c, 1, 62, 0
1, 195840, Note_on_c, 1, 62, 127
1, 195840, Note_on_c, 1, 58, 127
1, 195840, Note_on_c, 1, 56, 127
1, 195840, Note_on_c, 1, 46, 127
1, 195840, Note_on_c, 1, 51, 127
1, 195840, Note_on_c, 1, 39, 127
1, 196224, Note_off_c, 1, 62, 0
1, 196224, Note_off_c, 1, 56, 0
1, 196320, Note_on_c, 1, 63, 127
1, 196320, Note_on_c, 1, 55, 127
1, 196608, Note_off_c, 1, 58, 0
1, 196608, Note_off_c, 1, 46, 0
1, 196608, Note_off_c, 1, 51, 0
1, 196608, Note_off_c, 1, 39, 0
1, 196704, Note_off_c, 1, 55, 0
1, 196770, Note_off_c, 1, 63, 0
1, 196770, End_track
0, 0, End_of_file