0, 0, Header, 1, 1, 480
1, 0, Start_track
1, 0, Title_t, "Test"
1, 0, Tempo, 500000
1, 0, Instrument_name_t, "Church Organ"
1, 0, Note_on_c, 1, 48, 127
1, 60, Note_on_c, 1, 72, 127
1, 108, Note_off_c, 1, 72, 0
1, 120, Note_on_c, 1, 71, 127
1, 168, Note_off_c, 1, 71, 0
1, 192, Note_off_c, 1, 48, 0
1, 240, Note_on_c, 1, 76, 127
1, 288, Note_off_c, 1, 76, 0
1, 300, Note_on_c, 1, 72, 127
1, 348, Note_off_c, 1, 72, 0
1, 360, Note_on_c, 1, 71, 127
1, 408, Note_off_c, 1, 71, 0
1, 420, Note_on_c, 1, 72, 127
1, 468, Note_off_c, 1, 72, 0
1, 480, Note_on_c, 1, 67, 127
1, 528, Note_off_c, 1, 67, 0
1, 540, Note_on_c, 1, 72, 127
1, 588, Note_off_c, 1, 72, 0
1, 600, Note_on_c, 1, 64, 127
1, 648, Note_off_c, 1, 64, 0
1, 660, Note_on_c, 1, 67, 127
1, 708, Note_off_c, 1, 67, 0
1, 720, Note_on_c, 1, 60, 127
1, 816, Note_off_c, 1, 60, 0
1, 840, Note_on_c, 1, 79, 127
1, 840, Note_on_c, 1, 64, 127
1, 840, Note_on_c, 1, 60, 127
1, 936, Note_off_c, 1, 79, 0
1, 936, Note_off_c, 1, 64, 0
1, 936, Note_off_c, 1, 60, 0
1, 960, Note_on_c, 1, 76, 127
1, 960, Note_on_c, 1, 60, 127
1, 960, Note_on_c, 1, 48, 127
1, 1056, Note_off_c, 1, 76, 0
1, 1056, Note_off_c, 1, 60, 0
1, 1056, Note_off_c, 1, 48, 0
1, 1080, Note_on_c, 1, 79, 127
1, 1080, Note_on_c, 1, 64, 127
1, 1080, Note_on_c, 1, 60, 127
1, 1176, Note_off_c, 1, 79, 0
1, 1176, Note_off_c, 1, 64, 0
1, 1176, Note_off_c, 1, 60, 0
1, 1200, Note_on_c, 1, 81, 127
1, 1200, Note_on_c, 1, 65, 127
1, 1200, Note_on_c, 1, 48, 127
1, 1296, Note_off_c, 1, 81, 0
1, 1296, Note_off_c, 1, 65, 0
1, 1296, Note_off_c, 1, 48, 0
1, 1320, Note_on_c, 1, 79, 127
1, 1320, Note_on_c, 1, 64, 127
1, 1320, Note_on_c, 1, 60, 127
1, 1368, Note_off_c, 1, 79, 0
1, 1368, Note_off_c, 1, 64, 0
1, 1380, Note_on_c, 1, 77, 127
1, 1380, Note_on_c, 1, 62, 127
1, 1416, Note_off_c, 1, 60, 0
1, 1428, Note_off_c, 1, 77, 0
1, 1428, Note_off_c, 1, 62, 0
1, 1440, Note_on_c, 1, 79, 127
1, 1440, Note_on_c, 1, 64, 127
1, 1440, Note_on_c, 1, 48, 127
1, 1488, Note_off_c, 1, 64, 0
1, 1500, Note_on_c, 1, 60, 127
1, 1548, Note_off_c, 1, 60, 0
1, 1560, Note_on_c, 1, 59, 127
1, 1608, Note_off_c, 1, 59, 0
1, 1632, Note_off_c, 1, 79, 0
1, 1632, Note_off_c, 1, 48, 0
1, 1680, Note_on_c, 1, 64, 127
1, 1728, Note_off_c, 1, 64, 0
1, 1740, Note_on_c, 1, 60, 127
1, 1788, Note_off_c, 1, 60, 0
1, 1800, Note_on_c, 1, 59, 127
1, 1848, Note_off_c, 1, 59, 0
1, 1860, Note_on_c, 1, 60, 127
1, 1908, Note_off_c, 1, 60, 0
1, 1920, Note_on_c, 1, 55, 127
1, 1968, Note_off_c, 1, 55, 0
1, 1980, Note_on_c, 1, 60, 127
1, 2028, Note_off_c, 1, 60, 0
1, 2040, Note_on_c, 1, 52, 127
1, 2088, Note_off_c, 1, 52, 0
1, 2100, Note_on_c, 1, 55, 127
1, 2148, Note_off_c, 1, 55, 0
1, 2160, Note_on_c, 1, 48, 127
1, 2256, Note_off_c, 1, 48, 0
1, 2280, Note_on_c, 1, 76, 127
1, 2280, Note_on_c, 1, 67, 127
1, 2280, Note_on_c, 1, 60, 127
1, 2376, Note_off_c, 1, 76, 0
1, 2376, Note_off_c, 1, 67, 0
1, 2376, Note_off_c, 1, 60, 0
1, 2400, Note_on_c, 1, 72, 127
1, 2400, Note_on_c, 1, 64, 127
1, 2400, Note_on_c, 1, 48, 127
1, 2496, Note_off_c, 1, 72, 0
1, 2496, Note_off_c, 1, 64, 0
1, 2496, Note_off_c, 1, 48, 0
1, 2520, Note_on_c, 1, 76, 127
1, 2520, Note_on_c, 1, 67, 127
1, 2520, Note_on_c, 1, 60, 127
1, 2616, Note_off_c, 1, 76, 0
1, 2616, Note_off_c, 1, 67, 0
1, 2616, Note_off_c, 1, 60, 0
1, 2640, Note_on_c, 1, 77, 127
1, 2640, Note_on_c, 1, 69, 127
1, 2640, Note_on_c, 1, 48, 127
1, 2736, Note_off_c, 1, 77, 0
1, 2736, Note_off_c, 1, 69, 0
1, 2736, Note_off_c, 1, 48, 0
1, 2760, Note_on_c, 1, 76, 127
1, 2760, Note_on_c, 1, 67, 127
1, 2760, Note_on_c, 1, 60, 127
1, 2808, Note_off_c, 1, 76, 0
1, 2808, Note_off_c, 1, 67, 0
1, 2820, Note_on_c, 1, 74, 127
1, 2820, Note_on_c, 1, 65, 127
1, 2856, Note_off_c, 1, 60, 0
1, 2868, Note_off_c, 1, 74, 0
1, 2868, Note_off_c, 1, 65, 0
1, 2880, Note_on_c, 1, 76, 127
1, 2880, Note_on_c, 1, 67, 127
1, 2880, Note_on_c, 1, 36, 127
1, 2928, Note_off_c, 1, 67, 0
1, 2940, Note_on_c, 1, 64, 127
1, 2976, Note_off_c, 1, 76, 0
1, 2988, Note_off_c, 1, 64, 0
1, 3000, Note_on_c, 1, 79, 127
1, 3000, Note_on_c, 1, 60, 127
1, 3048, Note_off_c, 1, 60, 0
1, 3072, Note_off_c, 1, 36, 0
1, 3096, Note_off_c, 1, 79, 0
1, 3120, Note_on_c, 1, 72, 127
1, 3120, Note_on_c, 1, 69, 127
1, 3120, Note_on_c, 1, 48, 127
1, 3168, Note_off_c, 1, 69, 0
1, 3180, Note_on_c, 1, 64, 127
1, 3216, Note_off_c, 1, 72, 0
1, 3228, Note_off_c, 1, 64, 0
1, 3240, Note_on_c, 1, 76, 127
1, 3240, Note_on_c, 1, 60, 127
1, 3288, Note_off_c, 1, 60, 0
1, 3312, Note_off_c, 1, 48, 0
1, 3336, Note_off_c, 1, 76, 0
1, 3360, Note_on_c, 1, 69, 127
1, 3360, Note_on_c, 1, 72, 127
1, 3408, Note_off_c, 1, 69, 0
1, 3480, Note_on_c, 1, 74, 127
1, 3480, Note_on_c, 1, 36, 127
1, 3528, Note_off_c, 1, 74, 0
1, 3540, Note_on_c, 1, 76, 127
1, 3576, Note_off_c, 1, 36, 0
1, 3588, Note_off_c, 1, 76, 0
1, 3600, Note_on_c, 1, 77, 127
1, 3600, Note_on_c, 1, 38, 127
1, 3648, Note_off_c, 1, 72, 0
1, 3660, Note_on_c, 1, 65, 127
1, 3696, Note_off_c, 1, 77, 0
1, 3708, Note_off_c, 1, 65, 0
1, 3720, Note_on_c, 1, 81, 127
1, 3720, Note_on_c, 1, 62, 127
1, 3768, Note_off_c, 1, 62, 0
1, 3792, Note_off_c, 1, 38, 0
1, 3816, Note_off_c, 1, 81, 0
1, 3840, Note_on_c, 1, 74, 127
1, 3840, Note_on_c, 1, 71, 127
1, 3840, Note_on_c, 1, 50, 127
1, 3888, Note_off_c, 1, 71, 0
1, 3900, Note_on_c, 1, 65, 127
1, 3936, Note_off_c, 1, 74, 0
1, 3948, Note_off_c, 1, 65, 0
1, 3960, Note_on_c, 1, 77, 127
1, 3960, Note_on_c, 1, 62, 127
1, 4008, Note_off_c, 1, 62, 0
1, 4032, Note_off_c, 1, 50, 0
1, 4056, Note_off_c, 1, 77, 0
1, 4080, Note_on_c, 1, 71, 127
1, 4080, Note_on_c, 1, 74, 127
1, 4128, Note_off_c, 1, 71, 0
1, 4200, Note_on_c, 1, 76, 127
1, 4200, Note_on_c, 1, 38, 127
1, 4248, Note_off_c, 1, 76, 0
1, 4260, Note_on_c, 1, 77, 127
1, 4296, Note_off_c, 1, 38, 0
1, 4308, Note_off_c, 1, 77, 0
1, 4320, Note_on_c, 1, 79, 127
1, 4320, Note_on_c, 1, 40, 127
1, 4368, Note_off_c, 1, 74, 0
1, 4380, Note_on_c, 1, 67, 127
1, 4416, Note_off_c, 1, 79, 0
1, 4428, Note_off_c, 1, 67, 0
1, 4440, Note_on_c, 1, 84, 127
1, 4440, Note_on_c, 1, 64, 127
1, 4488, Note_off_c, 1, 84, 0
1, 4488, Note_off_c, 1, 64, 0
1, 4512, Note_off_c, 1, 40, 0
1, 4560, Note_on_c, 1, 76, 127
1, 4560, Note_on_c, 1, 72, 127
1, 4560, Note_on_c, 1, 52, 127
1, 4608, Note_off_c, 1, 72, 0
1, 4620, Note_on_c, 1, 67, 127
1, 4656, Note_off_c, 1, 76, 0
1, 4668, Note_off_c, 1, 67, 0
1, 4680, Note_on_c, 1, 79, 127
1, 4680, Note_on_c, 1, 64, 127
1, 4728, Note_off_c, 1, 79, 0
1, 4728, Note_off_c, 1, 64, 0
1, 4752, Note_off_c, 1, 52, 0
1, 4800, Note_on_c, 1, 72, 127
1, 4800, Note_on_c, 1, 76, 127
1, 4848, Note_off_c, 1, 72, 0
1, 4920, Note_on_c, 1, 77, 127
1, 4920, Note_on_c, 1, 40, 127
1, 4968, Note_off_c, 1, 77, 0
1, 4980, Note_on_c, 1, 79, 127
1, 5016, Note_off_c, 1, 40, 0
1, 5028, Note_off_c, 1, 79, 0
1, 5040, Note_on_c, 1, 81, 127
1, 5040, Note_on_c, 1, 41, 127
1, 5088, Note_off_c, 1, 81, 0
1, 5136, Note_off_c, 1, 76, 0
1, 5160, Note_on_c, 1, 74, 127
1, 5208, Note_off_c, 1, 74, 0
1, 5220, Note_on_c, 1, 82, 127
1, 5232, Note_off_c, 1, 41, 0
1, 5268, Note_off_c, 1, 82, 0
1, 5280, Note_on_c, 1, 81, 127
1, 5280, Note_on_c, 1, 74, 127
1, 5280, Note_on_c, 1, 53, 127
1, 5328, Note_off_c, 1, 81, 0
1, 5340, Note_on_c, 1, 79, 127
1, 5376, Note_off_c, 1, 74, 0
1, 5388, Note_off_c, 1, 79, 0
1, 5400, Note_on_c, 1, 77, 127
1, 5400, Note_on_c, 1, 69, 127
1, 5448, Note_off_c, 1, 77, 0
1, 5460, Note_on_c, 1, 76, 127
1, 5472, Note_off_c, 1, 53, 0
1, 5496, Note_off_c, 1, 69, 0
1, 5508, Note_off_c, 1, 76, 0
1, 5520, Note_on_c, 1, 74, 127
1, 5520, Note_on_c, 1, 77, 127
1, 5568, Note_off_c, 1, 74, 0
1, 5580, Note_on_c, 1, 72, 127
1, 5628, Note_off_c, 1, 72, 0
1, 5640, Note_on_c, 1, 71, 127
1, 5640, Note_on_c, 1, 50, 127
1, 5688, Note_off_c, 1, 71, 0
1, 5700, Note_on_c, 1, 69, 127
1, 5736, Note_off_c, 1, 50, 0
1, 5748, Note_off_c, 1, 69, 0
1, 5760, Note_on_c, 1, 55, 127
1, 5856, Note_off_c, 1, 77, 0
1, 5940, Note_on_c, 1, 67, 127
1, 5952, Note_off_c, 1, 55, 0
1, 5988, Note_off_c, 1, 67, 0
1, 6000, Note_on_c, 1, 74, 127
1, 6000, Note_on_c, 1, 71, 127
1, 6000, Note_on_c, 1, 43, 127
1, 6048, Note_off_c, 1, 74, 0
1, 6060, Note_on_c, 1, 76, 127
1, 6096, Note_off_c, 1, 71, 0
1, 6108, Note_off_c, 1, 76, 0
1, 6240, Note_on_c, 1, 77, 127
1, 6240, Note_on_c, 1, 67, 127
1, 6288, Note_off_c, 1, 77, 0
1, 6300, Note_on_c, 1, 79, 127
1, 6336, Note_off_c, 1, 67, 0
1, 6348, Note_off_c, 1, 79, 0
1, 6480, Note_on_c, 1, 75, 127
1, 6480, Note_on_c, 1, 72, 127
1, 6528, Note_off_c, 1, 72, 0
1, 6576, Note_off_c, 1, 75, 0
1, 6900, Note_on_c, 1, 70, 127
1, 6948, Note_off_c, 1, 70, 0
1, 6960, Note_on_c, 1, 84, 127
1, 6960, Note_on_c, 1, 69, 127
1, 7008, Note_off_c, 1, 69, 0
1, 7080, Note_on_c, 1, 66, 127
1, 7128, Note_off_c, 1, 66, 0
1, 7140, Note_on_c, 1, 64, 127
1, 7188, Note_off_c, 1, 64, 0
1, 7248, Note_off_c, 1, 84, 0
1, 7260, Note_on_c, 1, 82, 127
1, 7308, Note_off_c, 1, 82, 0
1, 7320, Note_on_c, 1, 81, 127
1, 7320, Note_on_c, 1, 60, 127
1, 7368, Note_off_c, 1, 81, 0
1, 7416, Note_off_c, 1, 60, 0
1, 7440, Note_on_c, 1, 78, 127
1, 7488, Note_off_c, 1, 78, 0
1, 8016, Note_off_c, 1, 43, 0
1, 8040, Note_on_c, 1, 72, 127
1, 8040, Note_on_c, 1, 69, 127
1, 8040, Note_on_c, 1, 50, 127
1, 8088, Note_off_c, 1, 72, 0
1, 8088, Note_off_c, 1, 69, 0
1, 8100, Note_on_c, 1, 74, 127
1, 8100, Note_on_c, 1, 71, 127
1, 8136, Note_off_c, 1, 50, 0
1, 8148, Note_off_c, 1, 74, 0
1, 8148, Note_off_c, 1, 71, 0
1, 8160, Note_on_c, 1, 83, 127
1, 8160, Note_on_c, 1, 67, 127
1, 8160, Note_on_c, 1, 52, 127
1, 8208, Note_off_c, 1, 67, 0
1, 8220, Note_on_c, 1, 76, 127
1, 8256, Note_off_c, 1, 52, 0
1, 8268, Note_off_c, 1, 76, 0
1, 8280, Note_on_c, 1, 74, 127
1, 8280, Note_on_c, 1, 54, 127
1, 8328, Note_off_c, 1, 74, 0
1, 8340, Note_on_c, 1, 72, 127
1, 8376, Note_off_c, 1, 54, 0
1, 8388, Note_off_c, 1, 72, 0
1, 8400, Note_on_c, 1, 71, 127
1, 8400, Note_on_c, 1, 55, 127
1, 8448, Note_off_c, 1, 71, 0
1, 8460, Note_on_c, 1, 69, 127
1, 8496, Note_off_c, 1, 55, 0
1, 8508, Note_off_c, 1, 69, 0
1, 8520, Note_on_c, 1, 47, 127
1, 8580, Note_on_c, 1, 66, 127
1, 8616, Note_off_c, 1, 47, 0
1, 8628, Note_off_c, 1, 66, 0
1, 8640, Note_on_c, 1, 64, 127
1, 8640, Note_on_c, 1, 48, 127
1, 8688, Note_off_c, 1, 83, 0
1, 8688, Note_off_c, 1, 64, 0
1, 8736, Note_off_c, 1, 48, 0
1, 8760, Note_on_c, 1, 71, 127
1, 8760, Note_on_c, 1, 62, 127
1, 8760, Note_on_c, 1, 52, 127
1, 8808, Note_off_c, 1, 71, 0
1, 8808, Note_off_c, 1, 62, 0
1, 8820, Note_on_c, 1, 72, 127
1, 8820, Note_on_c, 1, 64, 127
1, 8856, Note_off_c, 1, 52, 0
1, 8868, Note_off_c, 1, 72, 0
1, 8868, Note_off_c, 1, 64, 0
1, 8880, Note_on_c, 1, 81, 127
1, 8880, Note_on_c, 1, 60, 127
1, 8880, Note_on_c, 1, 54, 127
1, 8928, Note_off_c, 1, 60, 0
1, 8940, Note_on_c, 1, 74, 127
1, 8976, Note_off_c, 1, 54, 0
1, 8988, Note_off_c, 1, 74, 0
1, 9000, Note_on_c, 1, 72, 127
1, 9000, Note_on_c, 1, 55, 127
1, 9048, Note_off_c, 1, 72, 0
1, 9060, Note_on_c, 1, 71, 127
1, 9096, Note_off_c, 1, 55, 0
1, 9108, Note_off_c, 1, 71, 0
1, 9120, Note_on_c, 1, 69, 127
1, 9120, Note_on_c, 1, 57, 127
1, 9168, Note_off_c, 1, 69, 0
1, 9180, Note_on_c, 1, 67, 127
1, 9216, Note_off_c, 1, 57, 0
1, 9228, Note_off_c, 1, 67, 0
1, 9240, Note_on_c, 1, 66, 127
1, 9240, Note_on_c, 1, 48, 127
1, 9288, Note_off_c, 1, 66, 0
1, 9300, Note_on_c, 1, 64, 127
1, 9336, Note_off_c, 1, 48, 0
1, 9348, Note_off_c, 1, 64, 0
1, 9360, Note_on_c, 1, 62, 127
1, 9360, Note_on_c, 1, 50, 127
1, 9408, Note_off_c, 1, 81, 0
1, 9408, Note_off_c, 1, 62, 0
1, 9456, Note_off_c, 1, 50, 0
1, 9480, Note_on_c, 1, 69, 127
1, 9480, Note_on_c, 1, 60, 127
1, 9480, Note_on_c, 1, 54, 127
1, 9528, Note_off_c, 1, 69, 0
1, 9528, Note_off_c, 1, 60, 0
1, 9540, Note_on_c, 1, 71, 127
1, 9540, Note_on_c, 1, 62, 127
1, 9576, Note_off_c, 1, 54, 0
1, 9588, Note_off_c, 1, 71, 0
1, 9588, Note_off_c, 1, 62, 0
1, 9600, Note_on_c, 1, 79, 127
1, 9600, Note_on_c, 1, 59, 127
1, 9600, Note_on_c, 1, 55, 127
1, 9648, Note_off_c, 1, 59, 0
1, 9660, Note_on_c, 1, 72, 127
1, 9696, Note_off_c, 1, 55, 0
1, 9708, Note_off_c, 1, 72, 0
1, 9720, Note_on_c, 1, 71, 127
1, 9720, Note_on_c, 1, 57, 127
1, 9768, Note_off_c, 1, 71, 0
1, 9780, Note_on_c, 1, 69, 127
1, 9816, Note_off_c, 1, 57, 0
1, 9828, Note_off_c, 1, 69, 0
1, 9840, Note_on_c, 1, 67, 127
1, 9888, Note_off_c, 1, 67, 0
1, 9900, Note_on_c, 1, 66, 127
1, 9948, Note_off_c, 1, 66, 0
1, 9960, Note_on_c, 1, 64, 127
1, 9960, Note_on_c, 1, 50, 127
1, 10008, Note_off_c, 1, 64, 0
1, 10020, Note_on_c, 1, 62, 127
1, 10056, Note_off_c, 1, 50, 0
1, 10068, Note_off_c, 1, 62, 0
1, 10080, Note_on_c, 1, 60, 127
1, 10080, Note_on_c, 1, 52, 127
1, 10128, Note_off_c, 1, 79, 0
1, 10140, Note_on_c, 1, 78, 127
1, 10176, Note_off_c, 1, 60, 0
1, 10176, Note_off_c, 1, 52, 0
1, 10188, Note_off_c, 1, 78, 0
1, 10200, Note_on_c, 1, 76, 127
1, 10200, Note_on_c, 1, 64, 127
1, 10200, Note_on_c, 1, 55, 127
1, 10248, Note_off_c, 1, 76, 0
1, 10260, Note_on_c, 1, 74, 127
1, 10296, Note_off_c, 1, 55, 0
1, 10308, Note_off_c, 1, 74, 0
1, 10320, Note_on_c, 1, 72, 127
1, 10320, Note_on_c, 1, 57, 127
1, 10368, Note_off_c, 1, 72, 0
1, 10380, Note_on_c, 1, 71, 127
1, 10392, Note_off_c, 1, 64, 0
1, 10416, Note_off_c, 1, 57, 0
1, 10428, Note_off_c, 1, 71, 0
1, 10440, Note_on_c, 1, 69, 127
1, 10440, Note_on_c, 1, 59, 127
1, 10500, Note_on_c, 1, 67, 127
1, 10536, Note_off_c, 1, 59, 0
1, 10548, Note_off_c, 1, 67, 0
1, 10560, Note_on_c, 1, 66, 127
1, 10560, Note_on_c, 1, 60, 127
1, 10608, Note_off_c, 1, 66, 0
1, 10620, Note_on_c, 1, 64, 127
1, 10632, Note_off_c, 1, 69, 0
1, 10656, Note_off_c, 1, 60, 0
1, 10668, Note_off_c, 1, 64, 0
1, 10680, Note_on_c, 1, 62, 127
1, 10680, Note_on_c, 1, 72, 127
1, 10680, Note_on_c, 1, 52, 127
1, 10728, Note_off_c, 1, 62, 0
1, 10740, Note_on_c, 1, 60, 127
1, 10776, Note_off_c, 1, 52, 0
1, 10788, Note_off_c, 1, 60, 0
1, 10800, Note_on_c, 1, 54, 127
1, 10848, Note_off_c, 1, 72, 0
1, 10860, Note_on_c, 1, 67, 127
1, 10896, Note_off_c, 1, 54, 0
1, 10908, Note_off_c, 1, 67, 0
1, 10920, Note_on_c, 1, 72, 127
1, 10920, Note_on_c, 1, 69, 127
1, 10920, Note_on_c, 1, 50, 127
1, 10968, Note_off_c, 1, 69, 0
1, 10980, Note_on_c, 1, 66, 127
1, 11016, Note_off_c, 1, 72, 0
1, 11016, Note_off_c, 1, 50, 0
1, 11028, Note_off_c, 1, 66, 0
1, 11040, Note_on_c, 1, 71, 127
1, 11040, Note_on_c, 1, 67, 127
1, 11040, Note_on_c, 1, 55, 127
1, 11136, Note_off_c, 1, 71, 0
1, 11136, Note_off_c, 1, 67, 0
1, 11136, Note_off_c, 1, 55, 0
1, 11160, Note_on_c, 1, 76, 127
1, 11160, Note_on_c, 1, 69, 127
1, 11160, Note_on_c, 1, 52, 127
1, 11208, Note_off_c, 1, 76, 0
1, 11220, Note_on_c, 1, 74, 127
1, 11256, Note_off_c, 1, 69, 0
1, 11256, Note_off_c, 1, 52, 0
1, 11268, Note_off_c, 1, 74, 0
1, 11280, Note_on_c, 1, 72, 127
1, 11280, Note_on_c, 1, 62, 127
1, 11280, Note_on_c, 1, 50, 127
1, 11328, Note_off_c, 1, 72, 0
1, 11340, Note_on_c, 1, 71, 127
1, 11376, Note_off_c, 1, 62, 0
1, 11376, Note_off_c, 1, 50, 0
1, 11388, Note_off_c, 1, 71, 0
1, 11400, Note_on_c, 1, 69, 127
1, 11400, Note_on_c, 1, 66, 127
1, 11400, Note_on_c, 1, 38, 127
1, 11448, Note_off_c, 1, 69, 0
1, 11460, Note_on_c, 1, 67, 127
1, 11496, Note_off_c, 1, 66, 0
1, 11496, Note_off_c, 1, 38, 0
1, 11508, Note_off_c, 1, 67, 0
1, 11520, Note_on_c, 1, 67, 127
1, 11520, Note_on_c, 1, 43, 127
1, 11640, Note_on_c, 1, 66, 127
1, 11688, Note_off_c, 1, 66, 0
1, 11712, Note_off_c, 1, 43, 0
1, 11748, Note_off_c, 1, 67, 0
1, 11760, Note_on_c, 1, 71, 127
1, 11808, Note_off_c, 1, 71, 0
1, 11820, Note_on_c, 1, 67, 127
1, 11868, Note_off_c, 1, 67, 0
1, 11880, Note_on_c, 1, 66, 127
1, 11928, Note_off_c, 1, 66, 0
1, 11940, Note_on_c, 1, 67, 127
1, 11988, Note_off_c, 1, 67, 0
1, 12000, Note_on_c, 1, 62, 127
1, 12048, Note_off_c, 1, 62, 0
1, 12060, Note_on_c, 1, 67, 127
1, 12108, Note_off_c, 1, 67, 0
1, 12120, Note_on_c, 1, 59, 127
1, 12168, Note_off_c, 1, 59, 0
1, 12180, Note_on_c, 1, 62, 127
1, 12228, Note_off_c, 1, 62, 0
1, 12240, Note_on_c, 1, 55, 127
1, 12336, Note_off_c, 1, 55, 0
1, 12360, Note_on_c, 1, 83, 127
1, 12360, Note_on_c, 1, 74, 127
1, 12360, Note_on_c, 1, 55, 127
1, 12456, Note_off_c, 1, 83, 0
1, 12456, Note_off_c, 1, 74, 0
1, 12456, Note_off_c, 1, 55, 0
1, 12480, Note_on_c, 1, 79, 127
1, 12480, Note_on_c, 1, 71, 127
1, 12480, Note_on_c, 1, 43, 127
1, 12576, Note_off_c, 1, 79, 0
1, 12576, Note_off_c, 1, 71, 0
1, 12576, Note_off_c, 1, 43, 0
1, 12600, Note_on_c, 1, 83, 127
1, 12600, Note_on_c, 1, 74, 127
1, 12600, Note_on_c, 1, 55, 127
1, 12696, Note_off_c, 1, 83, 0
1, 12696, Note_off_c, 1, 74, 0
1, 12696, Note_off_c, 1, 55, 0
1, 12720, Note_on_c, 1, 84, 127
1, 12720, Note_on_c, 1, 76, 127
1, 12720, Note_on_c, 1, 43, 127
1, 12816, Note_off_c, 1, 84, 0
1, 12816, Note_off_c, 1, 76, 0
1, 12816, Note_off_c, 1, 43, 0
1, 12840, Note_on_c, 1, 83, 127
1, 12840, Note_on_c, 1, 74, 127
1, 12840, Note_on_c, 1, 55, 127
1, 12888, Note_off_c, 1, 83, 0
1, 12888, Note_off_c, 1, 74, 0
1, 12900, Note_on_c, 1, 81, 127
1, 12900, Note_on_c, 1, 72, 127
1, 12936, Note_off_c, 1, 55, 0
1, 12948, Note_off_c, 1, 81, 0
1, 12948, Note_off_c, 1, 72, 0
1, 12960, Note_on_c, 1, 83, 127
1, 12960, Note_on_c, 1, 74, 127
1, 12960, Note_on_c, 1, 43, 127
1, 13008, Note_off_c, 1, 83, 0
1, 13020, Note_on_c, 1, 79, 127
1, 13068, Note_off_c, 1, 79, 0
1, 13080, Note_on_c, 1, 78, 127
1, 13128, Note_off_c, 1, 78, 0
1, 13152, Note_off_c, 1, 74, 0
1, 13152, Note_off_c, 1, 43, 0
1, 13200, Note_on_c, 1, 83, 127
1, 13248, Note_off_c, 1, 83, 0
1, 13260, Note_on_c, 1, 79, 127
1, 13308, Note_off_c, 1, 79, 0
1, 13320, Note_on_c, 1, 78, 127
1, 13368, Note_off_c, 1, 78, 0
1, 13380, Note_on_c, 1, 79, 127
1, 13428, Note_off_c, 1, 79, 0
1, 13440, Note_on_c, 1, 74, 127
1, 13488, Note_off_c, 1, 74, 0
1, 13500, Note_on_c, 1, 79, 127
1, 13548, Note_off_c, 1, 79, 0
1, 13560, Note_on_c, 1, 71, 127
1, 13608, Note_off_c, 1, 71, 0
1, 13620, Note_on_c, 1, 74, 127
1, 13668, Note_off_c, 1, 74, 0
1, 13680, Note_on_c, 1, 67, 127
1, 13776, Note_off_c, 1, 67, 0
1, 13800, Note_on_c, 1, 74, 127
1, 13800, Note_on_c, 1, 59, 127
1, 13800, Note_on_c, 1, 55, 127
1, 13896, Note_off_c, 1, 74, 0
1, 13896, Note_off_c, 1, 59, 0
1, 13896, Note_off_c, 1, 55, 0
1, 13920, Note_on_c, 1, 71, 127
1, 13920, Note_on_c, 1, 55, 127
1, 13920, Note_on_c, 1, 43, 127
1, 14016, Note_off_c, 1, 71, 0
1, 14016, Note_off_c, 1, 55, 0
1, 14016, Note_off_c, 1, 43, 0
1, 14040, Note_on_c, 1, 74, 127
1, 14040, Note_on_c, 1, 59, 127
1, 14040, Note_on_c, 1, 55, 127
1, 14136, Note_off_c, 1, 74, 0
1, 14136, Note_off_c, 1, 59, 0
1, 14136, Note_off_c, 1, 55, 0
1, 14160, Note_on_c, 1, 76, 127
1, 14160, Note_on_c, 1, 60, 127
1, 14160, Note_on_c, 1, 43, 127
1, 14256, Note_off_c, 1, 76, 0
1, 14256, Note_off_c, 1, 60, 0
1, 14256, Note_off_c, 1, 43, 0
1, 14280, Note_on_c, 1, 74, 127
1, 14280, Note_on_c, 1, 59, 127
1, 14280, Note_on_c, 1, 55, 127
1, 14328, Note_off_c, 1, 74, 0
1, 14328, Note_off_c, 1, 59, 0
1, 14340, Note_on_c, 1, 72, 127
1, 14340, Note_on_c, 1, 57, 127
1, 14376, Note_off_c, 1, 55, 0
1, 14388, Note_off_c, 1, 72, 0
1, 14388, Note_off_c, 1, 57, 0
1, 14400, Note_on_c, 1, 74, 127
1, 14400, Note_on_c, 1, 59, 127
1, 14400, Note_on_c, 1, 43, 127
1, 14448, Note_off_c, 1, 74, 0
1, 14460, Note_on_c, 1, 71, 127
1, 14496, Note_off_c, 1, 59, 0
1, 14508, Note_off_c, 1, 71, 0
1, 14520, Note_on_c, 1, 67, 127
1, 14520, Note_on_c, 1, 62, 127
1, 14568, Note_off_c, 1, 67, 0
1, 14592, Note_off_c, 1, 43, 0
1, 14616, Note_off_c, 1, 62, 0
1, 14640, Note_on_c, 1, 76, 127
1, 14640, Note_on_c, 1, 55, 127
1, 14688, Note_off_c, 1, 76, 0
1, 14700, Note_on_c, 1, 71, 127
1, 14748, Note_off_c, 1, 71, 0
1, 14760, Note_on_c, 1, 67, 127
1, 14760, Note_on_c, 1, 59, 127
1, 14808, Note_off_c, 1, 67, 0
1, 14832, Note_off_c, 1, 55, 0
1, 14856, Note_off_c, 1, 59, 0
1, 14880, Note_on_c, 1, 79, 127
1, 14880, Note_on_c, 1, 52, 127
1, 14928, Note_off_c, 1, 52, 0
1, 14940, Note_on_c, 1, 55, 127
1, 14988, Note_off_c, 1, 55, 0
1, 15000, Note_on_c, 1, 57, 127
1, 15000, Note_on_c, 1, 43, 127
1, 15048, Note_off_c, 1, 57, 0
1, 15060, Note_on_c, 1, 59, 127
1, 15096, Note_off_c, 1, 43, 0
1, 15108, Note_off_c, 1, 59, 0
1, 15120, Note_on_c, 1, 60, 127
1, 15120, Note_on_c, 1, 45, 127
1, 15168, Note_off_c, 1, 79, 0
1, 15180, Note_on_c, 1, 72, 127
1, 15216, Note_off_c, 1, 60, 0
1, 15228, Note_off_c, 1, 72, 0
1, 15240, Note_on_c, 1, 69, 127
1, 15240, Note_on_c, 1, 64, 127
1, 15288, Note_off_c, 1, 69, 0
1, 15312, Note_off_c, 1, 45, 0
1, 15336, Note_off_c, 1, 64, 0
1, 15360, Note_on_c, 1, 78, 127
1, 15360, Note_on_c, 1, 57, 127
1, 15408, Note_off_c, 1, 78, 0
1, 15420, Note_on_c, 1, 72, 127
1, 15468, Note_off_c, 1, 72, 0
1, 15480, Note_on_c, 1, 69, 127
1, 15480, Note_on_c, 1, 60, 127
1, 15528, Note_off_c, 1, 69, 0
1, 15552, Note_off_c, 1, 57, 0
1, 15576, Note_off_c, 1, 60, 0
1, 15600, Note_on_c, 1, 81, 127
1, 15600, Note_on_c, 1, 54, 127
1, 15648, Note_off_c, 1, 54, 0
1, 15660, Note_on_c, 1, 57, 127
1, 15708, Note_off_c, 1, 57, 0
1, 15720, Note_on_c, 1, 59, 127
1, 15720, Note_on_c, 1, 45, 127
1, 15768, Note_off_c, 1, 59, 0
1, 15780, Note_on_c, 1, 60, 127
1, 15816, Note_off_c, 1, 45, 0
1, 15828, Note_off_c, 1, 60, 0
1, 15840, Note_on_c, 1, 62, 127
1, 15840, Note_on_c, 1, 47, 127
1, 15888, Note_off_c, 1, 81, 0
1, 15900, Note_on_c, 1, 74, 127
1, 15936, Note_off_c, 1, 62, 0
1, 15948, Note_off_c, 1, 74, 0
1, 15960, Note_on_c, 1, 71, 127
1, 15960, Note_on_c, 1, 67, 127
1, 16008, Note_off_c, 1, 71, 0
1, 16008, Note_off_c, 1, 67, 0
1, 16032, Note_off_c, 1, 47, 0
1, 16080, Note_on_c, 1, 79, 127
1, 16080, Note_on_c, 1, 59, 127
1, 16128, Note_off_c, 1, 79, 0
1, 16140, Note_on_c, 1, 74, 127
1, 16188, Note_off_c, 1, 74, 0
1, 16200, Note_on_c, 1, 71, 127
1, 16200, Note_on_c, 1, 62, 127
1, 16248, Note_off_c, 1, 71, 0
1, 16248, Note_off_c, 1, 62, 0
1, 16308, Note_off_c, 1, 59, 0
1, 16320, Note_on_c, 1, 83, 127
1, 16320, Note_on_c, 1, 55, 127
1, 16368, Note_off_c, 1, 55, 0
1, 16380, Note_on_c, 1, 59, 127
1, 16428, Note_off_c, 1, 59, 0
1, 16440, Note_on_c, 1, 60, 127
1, 16440, Note_on_c, 1, 47, 127
1, 16488, Note_off_c, 1, 60, 0
1, 16500, Note_on_c, 1, 62, 127
1, 16536, Note_off_c, 1, 47, 0
1, 16548, Note_off_c, 1, 62, 0
1, 16560, Note_on_c, 1, 64, 127
1, 16560, Note_on_c, 1, 48, 127
1, 16608, Note_off_c, 1, 64, 0
1, 16656, Note_off_c, 1, 83, 0
1, 16680, Note_on_c, 1, 81, 127
1, 16728, Note_off_c, 1, 81, 0
1, 16740, Note_on_c, 1, 80, 127
1, 16740, Note_on_c, 1, 65, 127
1, 16752, Note_off_c, 1, 48, 0
1, 16788, Note_off_c, 1, 80, 0
1, 16788, Note_off_c, 1, 65, 0
1, 16800, Note_on_c, 1, 81, 127
1, 16800, Note_on_c, 1, 64, 127
1, 16800, Note_on_c, 1, 60, 127
1, 16848, Note_off_c, 1, 64, 0
1, 16860, Note_on_c, 1, 62, 127
1, 16896, Note_off_c, 1, 81, 0
1, 16908, Note_off_c, 1, 62, 0
1, 16920, Note_on_c, 1, 76, 127
1, 16980, Note_on_c, 1, 59, 127
1, 16992, Note_off_c, 1, 60, 0
1, 17016, Note_off_c, 1, 76, 0
1, 17028, Note_off_c, 1, 59, 0
1, 17040, Note_on_c, 1, 84, 127
1, 17040, Note_on_c, 1, 57, 127
1, 17088, Note_off_c, 1, 57, 0
1, 17100, Note_on_c, 1, 55, 127
1, 17148, Note_off_c, 1, 55, 0
1, 17160, Note_on_c, 1, 54, 127
1, 17208, Note_off_c, 1, 54, 0
1, 17220, Note_on_c, 1, 52, 127
1, 17268, Note_off_c, 1, 52, 0
1, 17280, Note_on_c, 1, 62, 127
1, 17376, Note_off_c, 1, 84, 0
1, 17400, Note_on_c, 1, 81, 127
1, 17460, Note_on_c, 1, 50, 127
1, 17472, Note_off_c, 1, 62, 0
1, 17496, Note_off_c, 1, 81, 0
1, 17508, Note_off_c, 1, 50, 0
1, 17520, Note_on_c, 1, 78, 127
1, 17520, Note_on_c, 1, 57, 127
1, 17520, Note_on_c, 1, 50, 127
1, 17568, Note_off_c, 1, 57, 0
1, 17580, Note_on_c, 1, 59, 127
1, 17616, Note_off_c, 1, 78, 0
1, 17628, Note_off_c, 1, 59, 0
1, 17640, Note_on_c, 1, 81, 127
1, 17700, Note_on_c, 1, 54, 127
1, 17736, Note_off_c, 1, 81, 0
1, 17748, Note_off_c, 1, 54, 0
1, 17760, Note_on_c, 1, 74, 127
1, 17760, Note_on_c, 1, 60, 127
1, 17808, Note_off_c, 1, 60, 0
1, 17820, Note_on_c, 1, 62, 127
1, 17856, Note_off_c, 1, 74, 0
1, 17868, Note_off_c, 1, 62, 0
1, 18000, Note_on_c, 1, 79, 127
1, 18000, Note_on_c, 1, 58, 127
1, 18048, Note_off_c, 1, 79, 0
1, 18096, Note_off_c, 1, 58, 0
1, 18120, Note_on_c, 1, 82, 127
1, 18120, Note_on_c, 1, 55, 127
1, 18168, Note_off_c, 1, 82, 0
1, 18180, Note_on_c, 1, 84, 127
1, 18216, Note_off_c, 1, 55, 0
1, 18228, Note_off_c, 1, 84, 0
1, 18420, Note_on_c, 1, 77, 127
1, 18468, Note_off_c, 1, 77, 0
1, 18480, Note_on_c, 1, 76, 127
1, 18480, Note_on_c, 1, 67, 127
1, 18528, Note_off_c, 1, 76, 0
1, 18600, Note_on_c, 1, 73, 127
1, 18648, Note_off_c, 1, 73, 0
1, 18660, Note_on_c, 1, 71, 127
1, 18708, Note_off_c, 1, 71, 0
1, 18768, Note_off_c, 1, 67, 0
1, 18780, Note_on_c, 1, 65, 127
1, 18828, Note_off_c, 1, 65, 0
1, 18840, Note_on_c, 1, 64, 127
1, 18888, Note_off_c, 1, 64, 0
1, 18960, Note_on_c, 1, 61, 127
1, 19008, Note_off_c, 1, 61, 0
1, 19536, Note_off_c, 1, 50, 0
1, 19680, Note_on_c, 1, 83, 127
1, 19800, Note_on_c, 1, 69, 127
1, 19848, Note_off_c, 1, 69, 0
1, 19968, Note_off_c, 1, 83, 0
1, 20160, Note_on_c, 1, 52, 127
1, 20256, Note_off_c, 1, 52, 0
1, 20400, Note_on_c, 1, 72, 127
1, 20448, Note_off_c, 1, 72, 0
1, 20520, Note_on_c, 1, 78, 127
1, 20520, Note_on_c, 1, 69, 127
1, 20520, Note_on_c, 1, 59, 127
1, 20568, Note_off_c, 1, 78, 0
1, 20568, Note_off_c, 1, 69, 0
1, 20580, Note_on_c, 1, 76, 127
1, 20580, Note_on_c, 1, 67, 127
1, 20616, Note_off_c, 1, 59, 0
1, 20628, Note_off_c, 1, 76, 0
1, 20628, Note_off_c, 1, 67, 0
1, 20640, Note_on_c, 1, 74, 127
1, 20640, Note_on_c, 1, 66, 127
1, 20640, Note_on_c, 1, 60, 127
1, 20688, Note_off_c, 1, 74, 0
1, 20700, Note_on_c, 1, 72, 127
1, 20736, Note_off_c, 1, 66, 0
1, 20736, Note_off_c, 1, 60, 0
1, 20748, Note_off_c, 1, 72, 0
1, 20760, Note_on_c, 1, 71, 127
1, 20760, Note_on_c, 1, 72, 127
1, 20760, Note_on_c, 1, 54, 127
1, 20808, Note_off_c, 1, 71, 0
1, 20820, Note_on_c, 1, 69, 127
1, 20856, Note_off_c, 1, 54, 0
1, 20868, Note_off_c, 1, 69, 0
1, 20880, Note_on_c, 1, 67, 127
1, 20880, Note_on_c, 1, 55, 127
1, 20928, Note_off_c, 1, 72, 0
1, 20976, Note_off_c, 1, 55, 0
1, 21000, Note_on_c, 1, 47, 127
1, 21096, Note_off_c, 1, 47, 0
1, 21120, Note_on_c, 1, 76, 127
1, 21120, Note_on_c, 1, 48, 127
1, 21168, Note_off_c, 1, 67, 0
1, 21216, Note_off_c, 1, 48, 0
1, 21240, Note_on_c, 1, 74, 127
1, 21240, Note_on_c, 1, 50, 127
1, 21288, Note_off_c, 1, 74, 0
1, 21336, Note_off_c, 1, 50, 0
1, 21360, Note_on_c, 1, 79, 127
1, 21360, Note_on_c, 1, 52, 127
1, 21408, Note_off_c, 1, 76, 0
1, 21420, Note_on_c, 1, 77, 127
1, 21456, Note_off_c, 1, 52, 0
1, 21468, Note_off_c, 1, 77, 0
1, 21480, Note_on_c, 1, 43, 127
1, 21576, Note_off_c, 1, 43, 0
1, 21600, Note_on_c, 1, 45, 127
1, 21648, Note_off_c, 1, 79, 0
1, 21696, Note_off_c, 1, 45, 0
1, 21720, Note_on_c, 1, 81, 127
1, 21768, Note_off_c, 1, 81, 0
1, 21960, Note_on_c, 1, 74, 127
1, 21960, Note_on_c, 1, 71, 127
1, 21960, Note_on_c, 1, 52, 127
1, 22008, Note_off_c, 1, 74, 0
1, 22008, Note_off_c, 1, 71, 0
1, 22020, Note_on_c, 1, 72, 127
1, 22020, Note_on_c, 1, 69, 127
1, 22056, Note_off_c, 1, 52, 0
1, 22068, Note_off_c, 1, 72, 0
1, 22068, Note_off_c, 1, 69, 0
1, 22080, Note_on_c, 1, 71, 127
1, 22080, Note_on_c, 1, 67, 127
1, 22080, Note_on_c, 1, 53, 127
1, 22128, Note_off_c, 1, 67, 0
1, 22140, Note_on_c, 1, 65, 127
1, 22176, Note_off_c, 1, 71, 0
1, 22176, Note_off_c, 1, 53, 0
1, 22188, Note_off_c, 1, 65, 0
1, 22200, Note_on_c, 1, 77, 127
1, 22200, Note_on_c, 1, 64, 127
1, 22200, Note_on_c, 1, 47, 127
1, 22248, Note_off_c, 1, 64, 0
1, 22260, Note_on_c, 1, 62, 127
1, 22296, Note_off_c, 1, 47, 0
1, 22308, Note_off_c, 1, 62, 0
1, 22320, Note_on_c, 1, 60, 127
1, 22320, Note_on_c, 1, 48, 127
1, 22368, Note_off_c, 1, 77, 0
1, 22380, Note_on_c, 1, 76, 127
1, 22416, Note_off_c, 1, 60, 0
1, 22416, Note_off_c, 1, 48, 0
1, 22428, Note_off_c, 1, 76, 0
1, 22440, Note_on_c, 1, 74, 127
1, 22440, Note_on_c, 1, 67, 127
1, 22440, Note_on_c, 1, 48, 127
1, 22488, Note_off_c, 1, 74, 0
1, 22500, Note_on_c, 1, 76, 127
1, 22536, Note_off_c, 1, 67, 0
1, 22536, Note_off_c, 1, 48, 0
1, 22548, Note_off_c, 1, 76, 0
1, 22560, Note_on_c, 1, 79, 127
1, 22560, Note_on_c, 1, 64, 127
1, 22560, Note_on_c, 1, 36, 127
1, 22608, Note_off_c, 1, 79, 0
1, 22620, Note_on_c, 1, 76, 127
1, 22656, Note_off_c, 1, 64, 0
1, 22656, Note_off_c, 1, 36, 0
1, 22668, Note_off_c, 1, 76, 0
1, 22680, Note_on_c, 1, 74, 127
1, 22680, Note_on_c, 1, 67, 127
1, 22680, Note_on_c, 1, 48, 127
1, 22728, Note_off_c, 1, 74, 0
1, 22740, Note_on_c, 1, 76, 127
1, 22776, Note_off_c, 1, 67, 0
1, 22776, Note_off_c, 1, 48, 0
1, 22788, Note_off_c, 1, 76, 0
1, 22800, Note_on_c, 1, 72, 127
1, 22800, Note_on_c, 1, 69, 127
1, 22800, Note_on_c, 1, 36, 127
1, 22848, Note_off_c, 1, 72, 0
1, 22860, Note_on_c, 1, 76, 127
1, 22896, Note_off_c, 1, 36, 0
1, 22908, Note_off_c, 1, 76, 0
1, 22920, Note_on_c, 1, 48, 127
1, 23016, Note_off_c, 1, 48, 0
1, 23040, Note_on_c, 1, 65, 127
1, 23040, Note_on_c, 1, 38, 127
1, 23088, Note_off_c, 1, 69, 0
1, 23136, Note_off_c, 1, 38, 0
1, 23148, Note_off_c, 1, 65, 0
1, 23160, Note_on_c, 1, 81, 127
1, 23160, Note_on_c, 1, 64, 127
1, 23160, Note_on_c, 1, 50, 127
1, 23208, Note_off_c, 1, 64, 0
1, 23220, Note_on_c, 1, 65, 127
1, 23256, Note_off_c, 1, 81, 0
1, 23256, Note_off_c, 1, 50, 0
1, 23268, Note_off_c, 1, 65, 0
1, 23280, Note_on_c, 1, 77, 127
1, 23280, Note_on_c, 1, 69, 127
1, 23280, Note_on_c, 1, 38, 127
1, 23328, Note_off_c, 1, 69, 0
1, 23340, Note_on_c, 1, 65, 127
1, 23376, Note_off_c, 1, 77, 0
1, 23376, Note_off_c, 1, 38, 0
1, 23388, Note_off_c, 1, 65, 0
1, 23400, Note_on_c, 1, 81, 127
1, 23400, Note_on_c, 1, 64, 127
1, 23400, Note_on_c, 1, 50, 127
1, 23448, Note_off_c, 1, 64, 0
1, 23460, Note_on_c, 1, 65, 127
1, 23496, Note_off_c, 1, 81, 0
1, 23496, Note_off_c, 1, 50, 0
1, 23508, Note_off_c, 1, 65, 0
1, 23520, Note_on_c, 1, 82, 127
1, 23520, Note_on_c, 1, 62, 127
1, 23520, Note_on_c, 1, 38, 127
1, 23568, Note_off_c, 1, 62, 0
1, 23580, Note_on_c, 1, 65, 127
1, 23616, Note_off_c, 1, 38, 0
1, 23628, Note_off_c, 1, 65, 0
1, 23640, Note_on_c, 1, 58, 127
1, 23640, Note_on_c, 1, 50, 127
1, 23688, Note_off_c, 1, 58, 0
1, 23736, Note_off_c, 1, 50, 0
1, 23760, Note_on_c, 1, 55, 127
1, 23760, Note_on_c, 1, 40, 127
1, 23808, Note_off_c, 1, 82, 0
1, 23820, Note_on_c, 1, 79, 127
1, 23856, Note_off_c, 1, 55, 0
1, 23856, Note_off_c, 1, 40, 0
1, 23868, Note_off_c, 1, 79, 0
1, 23880, Note_on_c, 1, 77, 127
1, 23880, Note_on_c, 1, 70, 127
1, 23880, Note_on_c, 1, 52, 127
1, 23928, Note_off_c, 1, 77, 0
1, 23940, Note_on_c, 1, 79, 127
1, 23976, Note_off_c, 1, 70, 0
1, 23976, Note_off_c, 1, 52, 0
1, 23988, Note_off_c, 1, 79, 0
1, 24000, Note_on_c, 1, 82, 127
1, 24000, Note_on_c, 1, 67, 127
1, 24000, Note_on_c, 1, 40, 127
1, 24048, Note_off_c, 1, 82, 0
1, 24060, Note_on_c, 1, 79, 127
1, 24096, Note_off_c, 1, 67, 0
1, 24096, Note_off_c, 1, 40, 0
1, 24108, Note_off_c, 1, 79, 0
1, 24120, Note_on_c, 1, 77, 127
1, 24120, Note_on_c, 1, 70, 127
1, 24120, Note_on_c, 1, 52, 127
1, 24168, Note_off_c, 1, 77, 0
1, 24180, Note_on_c, 1, 79, 127
1, 24216, Note_off_c, 1, 70, 0
1, 24216, Note_off_c, 1, 52, 0
1, 24228, Note_off_c, 1, 79, 0
1, 24240, Note_on_c, 1, 76, 127
1, 24240, Note_on_c, 1, 72, 127
1, 24240, Note_on_c, 1, 40, 127
1, 24288, Note_off_c, 1, 76, 0
1, 24300, Note_on_c, 1, 79, 127
1, 24336, Note_off_c, 1, 40, 0
1, 24348, Note_off_c, 1, 79, 0
1, 24360, Note_on_c, 1, 52, 127
1, 24456, Note_off_c, 1, 52, 0
1, 24480, Note_on_c, 1, 69, 127
1, 24480, Note_on_c, 1, 41, 127
1, 24528, Note_off_c, 1, 69, 0
1, 24540, Note_on_c, 1, 81, 127
1, 24576, Note_off_c, 1, 72, 0
1, 24588, Note_off_c, 1, 81, 0
1, 24600, Note_on_c, 1, 65, 127
1, 24696, Note_off_c, 1, 65, 0
1, 24720, Note_on_c, 1, 84, 127
1, 24768, Note_off_c, 1, 84, 0
1, 24960, Note_on_c, 1, 77, 127
1, 24960, Note_on_c, 1, 75, 127
1, 25008, Note_off_c, 1, 77, 0
1, 25056, Note_off_c, 1, 75, 0
1, 25080, Note_on_c, 1, 74, 127
1, 25128, Note_off_c, 1, 74, 0
1, 25260, Note_on_c, 1, 82, 127
1, 25308, Note_off_c, 1, 82, 0
1, 25320, Note_on_c, 1, 70, 127
1, 25416, Note_off_c, 1, 70, 0
1, 26760, Note_on_c, 1, 67, 127
1, 26856, Note_off_c, 1, 67, 0
1, 26880, Note_on_c, 1, 64, 127
1, 26976, Note_off_c, 1, 64, 0
1, 27456, Note_off_c, 1, 41, 0
1, 27480, Note_on_c, 1, 72, 127
1, 27480, Note_on_c, 1, 64, 127
1, 27480, Note_on_c, 1, 53, 127
1, 27528, Note_off_c, 1, 64, 0
1, 27540, Note_on_c, 1, 65, 127
1, 27576, Note_off_c, 1, 72, 0
1, 27576, Note_off_c, 1, 53, 0
1, 27588, Note_off_c, 1, 65, 0
1, 27600, Note_on_c, 1, 77, 127
1, 27600, Note_on_c, 1, 69, 127
1, 27600, Note_on_c, 1, 50, 127
1, 27648, Note_off_c, 1, 69, 0
1, 27660, Note_on_c, 1, 65, 127
1, 27696, Note_off_c, 1, 77, 0
1, 27696, Note_off_c, 1, 50, 0
1, 27708, Note_off_c, 1, 65, 0
1, 27720, Note_on_c, 1, 81, 127
1, 27720, Note_on_c, 1, 64, 127
1, 27720, Note_on_c, 1, 53, 127
1, 27768, Note_off_c, 1, 64, 0
1, 27780, Note_on_c, 1, 65, 127
1, 27816, Note_off_c, 1, 53, 0
1, 27828, Note_off_c, 1, 65, 0
1, 27840, Note_on_c, 1, 62, 127
1, 27840, Note_on_c, 1, 47, 127
1, 27888, Note_off_c, 1, 62, 0
1, 27936, Note_off_c, 1, 81, 0
1, 27936, Note_off_c, 1, 47, 0
1, 27960, Note_on_c, 1, 74, 127
1, 27960, Note_on_c, 1, 59, 127
1, 27960, Note_on_c, 1, 50, 127
1, 28008, Note_off_c, 1, 59, 0
1, 28020, Note_on_c, 1, 62, 127
1, 28056, Note_off_c, 1, 50, 0
1, 28068, Note_off_c, 1, 62, 0
1, 28080, Note_on_c, 1, 55, 127
1, 28080, Note_on_c, 1, 40, 127
1, 28128, Note_off_c, 1, 55, 0
1, 28140, Note_on_c, 1, 64, 127
1, 28176, Note_off_c, 1, 74, 0
1, 28176, Note_off_c, 1, 40, 0
1, 28188, Note_off_c, 1, 64, 0
1, 28200, Note_on_c, 1, 71, 127
1, 28200, Note_on_c, 1, 62, 127
1, 28200, Note_on_c, 1, 52, 127
1, 28248, Note_off_c, 1, 62, 0
1, 28260, Note_on_c, 1, 64, 127
1, 28296, Note_off_c, 1, 71, 0
1, 28296, Note_off_c, 1, 52, 0
1, 28308, Note_off_c, 1, 64, 0
1, 28320, Note_on_c, 1, 76, 127
1, 28320, Note_on_c, 1, 67, 127
1, 28320, Note_on_c, 1, 48, 127
1, 28368, Note_off_c, 1, 67, 0
1, 28380, Note_on_c, 1, 64, 127
1, 28416, Note_off_c, 1, 76, 0
1, 28416, Note_off_c, 1, 48, 0
1, 28428, Note_off_c, 1, 64, 0
1, 28440, Note_on_c, 1, 79, 127
1, 28440, Note_on_c, 1, 62, 127
1, 28440, Note_on_c, 1, 52, 127
1, 28488, Note_off_c, 1, 62, 0
1, 28500, Note_on_c, 1, 64, 127
1, 28536, Note_off_c, 1, 52, 0
1, 28548, Note_off_c, 1, 64, 0
1, 28560, Note_on_c, 1, 60, 127
1, 28560, Note_on_c, 1, 45, 127
1, 28608, Note_off_c, 1, 60, 0
1, 28656, Note_off_c, 1, 79, 0
1, 28656, Note_off_c, 1, 45, 0
1, 28680, Note_on_c, 1, 72, 127
1, 28680, Note_on_c, 1, 57, 127
1, 28680, Note_on_c, 1, 48, 127
1, 28728, Note_off_c, 1, 57, 0
1, 28740, Note_on_c, 1, 60, 127
1, 28776, Note_off_c, 1, 48, 0
1, 28788, Note_off_c, 1, 60, 0
1, 28800, Note_on_c, 1, 53, 127
1, 28800, Note_on_c, 1, 38, 127
1, 28848, Note_off_c, 1, 53, 0
1, 28860, Note_on_c, 1, 62, 127
1, 28896, Note_off_c, 1, 72, 0
1, 28896, Note_off_c, 1, 38, 0
1, 28908, Note_off_c, 1, 62, 0
1, 28920, Note_on_c, 1, 69, 127
1, 28920, Note_on_c, 1, 60, 127
1, 28920, Note_on_c, 1, 50, 127
1, 28968, Note_off_c, 1, 60, 0
1, 28980, Note_on_c, 1, 62, 127
1, 29016, Note_off_c, 1, 69, 0
1, 29016, Note_off_c, 1, 50, 0
1, 29028, Note_off_c, 1, 62, 0
1, 29040, Note_on_c, 1, 74, 127
1, 29040, Note_on_c, 1, 65, 127
1, 29040, Note_on_c, 1, 47, 127
1, 29088, Note_off_c, 1, 65, 0
1, 29100, Note_on_c, 1, 62, 127
1, 29136, Note_off_c, 1, 74, 0
1, 29136, Note_off_c, 1, 47, 0
1, 29148, Note_off_c, 1, 62, 0
1, 29160, Note_on_c, 1, 77, 127
1, 29160, Note_on_c, 1, 60, 127
1, 29160, Note_on_c, 1, 50, 127
1, 29208, Note_off_c, 1, 60, 0
1, 29220, Note_on_c, 1, 62, 127
1, 29256, Note_off_c, 1, 50, 0
1, 29268, Note_off_c, 1, 62, 0
1, 29280, Note_on_c, 1, 59, 127
1, 29280, Note_on_c, 1, 43, 127
1, 29328, Note_off_c, 1, 59, 0
1, 29376, Note_off_c, 1, 77, 0
1, 29376, Note_off_c, 1, 43, 0
1, 29400, Note_on_c, 1, 71, 127
1, 29400, Note_on_c, 1, 55, 127
1, 29400, Note_on_c, 1, 47, 127
1, 29448, Note_off_c, 1, 55, 0
1, 29460, Note_on_c, 1, 59, 127
1, 29496, Note_off_c, 1, 71, 0
1, 29496, Note_off_c, 1, 47, 0
1, 29508, Note_off_c, 1, 59, 0
1, 29520, Note_on_c, 1, 52, 127
1, 29520, Note_on_c, 1, 36, 127
1, 29568, Note_off_c, 1, 52, 0
1, 29580, Note_on_c, 1, 64, 127
1, 29628, Note_off_c, 1, 64, 0
1, 29640, Note_on_c, 1, 72, 127
1, 29640, Note_on_c, 1, 62, 127
1, 29688, Note_off_c, 1, 62, 0
1, 29736, Note_off_c, 1, 72, 0
1, 29760, Note_on_c, 1, 76, 127
1, 29760, Note_on_c, 1, 67, 127
1, 29808, Note_off_c, 1, 67, 0
1, 29856, Note_off_c, 1, 76, 0
1, 29880, Note_on_c, 1, 79, 127
1, 29976, Note_off_c, 1, 79, 0
1, 30000, Note_on_c, 1, 82, 127
1, 30000, Note_on_c, 1, 60, 127
1, 30048, Note_off_c, 1, 60, 0
1, 30096, Note_off_c, 1, 82, 0
1, 30120, Note_on_c, 1, 81, 127
1, 30168, Note_off_c, 1, 81, 0
1, 30300, Note_on_c, 1, 65, 127
1, 30348, Note_off_c, 1, 65, 0
1, 30360, Note_on_c, 1, 77, 127
1, 30456, Note_off_c, 1, 77, 0
1, 31800, Note_on_c, 1, 74, 127
1, 31896, Note_off_c, 1, 74, 0
1, 31920, Note_on_c, 1, 71, 127
1, 32016, Note_off_c, 1, 71, 0
1, 32160, Note_on_c, 1, 59, 127
1, 32256, Note_off_c, 1, 59, 0
1, 32496, Note_off_c, 1, 36, 0
1, 32520, Note_on_c, 1, 74, 127
1, 32520, Note_on_c, 1, 65, 127
1, 32520, Note_on_c, 1, 43, 127
1, 32568, Note_off_c, 1, 74, 0
1, 32568, Note_off_c, 1, 65, 0
1, 32580, Note_on_c, 1, 76, 127
1, 32580, Note_on_c, 1, 67, 127
1, 32616, Note_off_c, 1, 43, 0
1, 32628, Note_off_c, 1, 76, 0
1, 32628, Note_off_c, 1, 67, 0
1, 32640, Note_on_c, 1, 72, 127
1, 32640, Note_on_c, 1, 76, 127
1, 32640, Note_on_c, 1, 45, 127
1, 32688, Note_off_c, 1, 72, 0
1, 32700, Note_on_c, 1, 81, 127
1, 32736, Note_off_c, 1, 45, 0
1, 32748, Note_off_c, 1, 81, 0
1, 32760, Note_on_c, 1, 79, 127
1, 32760, Note_on_c, 1, 47, 127
1, 32808, Note_off_c, 1, 79, 0
1, 32820, Note_on_c, 1, 77, 127
1, 32856, Note_off_c, 1, 47, 0
1, 32868, Note_off_c, 1, 77, 0
1, 32880, Note_on_c, 1, 48, 127
1, 32940, Note_on_c, 1, 74, 127
1, 32976, Note_off_c, 1, 48, 0
1, 32988, Note_off_c, 1, 74, 0
1, 33000, Note_on_c, 1, 40, 127
1, 33060, Note_on_c, 1, 70, 127
1, 33096, Note_off_c, 1, 40, 0
1, 33108, Note_off_c, 1, 70, 0
1, 33120, Note_on_c, 1, 69, 127
1, 33120, Note_on_c, 1, 41, 127
1, 33168, Note_off_c, 1, 76, 0
1, 33168, Note_off_c, 1, 69, 0
1, 33180, Note_on_c, 1, 65, 127
1, 33216, Note_off_c, 1, 41, 0
1, 33228, Note_off_c, 1, 65, 0
1, 33240, Note_on_c, 1, 67, 127
1, 33240, Note_on_c, 1, 64, 127
1, 33240, Note_on_c, 1, 45, 127
1, 33288, Note_off_c, 1, 67, 0
1, 33288, Note_off_c, 1, 64, 0
1, 33300, Note_on_c, 1, 69, 127
1, 33300, Note_on_c, 1, 65, 127
1, 33336, Note_off_c, 1, 45, 0
1, 33348, Note_off_c, 1, 69, 0
1, 33348, Note_off_c, 1, 65, 0
1, 33360, Note_on_c, 1, 65, 127
1, 33360, Note_on_c, 1, 74, 127
1, 33360, Note_on_c, 1, 47, 127
1, 33408, Note_off_c, 1, 65, 0
1, 33420, Note_on_c, 1, 79, 127
1, 33456, Note_off_c, 1, 47, 0
1, 33468, Note_off_c, 1, 79, 0
1, 33480, Note_on_c, 1, 77, 127
1, 33480, Note_on_c, 1, 48, 127
1, 33528, Note_off_c, 1, 77, 0
1, 33540, Note_on_c, 1, 76, 127
1, 33576, Note_off_c, 1, 48, 0
1, 33588, Note_off_c, 1, 76, 0
1, 33600, Note_on_c, 1, 50, 127
1, 33660, Note_on_c, 1, 72, 127
1, 33696, Note_off_c, 1, 50, 0
1, 33708, Note_off_c, 1, 72, 0
1, 33720, Note_on_c, 1, 71, 127
1, 33720, Note_on_c, 1, 41, 127
1, 33768, Note_off_c, 1, 71, 0
1, 33780, Note_on_c, 1, 69, 127
1, 33816, Note_off_c, 1, 41, 0
1, 33828, Note_off_c, 1, 69, 0
1, 33840, Note_on_c, 1, 67, 127
1, 33840, Note_on_c, 1, 43, 127
1, 33888, Note_off_c, 1, 74, 0
1, 33888, Note_off_c, 1, 67, 0
1, 33900, Note_on_c, 1, 64, 127
1, 33936, Note_off_c, 1, 43, 0
1, 33948, Note_off_c, 1, 64, 0
1, 33960, Note_on_c, 1, 65, 127
1, 33960, Note_on_c, 1, 62, 127
1, 33960, Note_on_c, 1, 47, 127
1, 34008, Note_off_c, 1, 65, 0
1, 34008, Note_off_c, 1, 62, 0
1, 34020, Note_on_c, 1, 67, 127
1, 34020, Note_on_c, 1, 64, 127
1, 34056, Note_off_c, 1, 47, 0
1, 34068, Note_off_c, 1, 67, 0
1, 34068, Note_off_c, 1, 64, 0
1, 34080, Note_on_c, 1, 64, 127
1, 34080, Note_on_c, 1, 72, 127
1, 34080, Note_on_c, 1, 48, 127
1, 34128, Note_off_c, 1, 64, 0
1, 34140, Note_on_c, 1, 77, 127
1, 34176, Note_off_c, 1, 48, 0
1, 34188, Note_off_c, 1, 77, 0
1, 34200, Note_on_c, 1, 76, 127
1, 34200, Note_on_c, 1, 50, 127
1, 34248, Note_off_c, 1, 76, 0
1, 34260, Note_on_c, 1, 74, 127
1, 34296, Note_off_c, 1, 50, 0
1, 34308, Note_off_c, 1, 74, 0
1, 34320, Note_on_c, 1, 52, 127
1, 34380, Note_on_c, 1, 71, 127
1, 34416, Note_off_c, 1, 52, 0
1, 34428, Note_off_c, 1, 71, 0
1, 34440, Note_on_c, 1, 69, 127
1, 34440, Note_on_c, 1, 43, 127
1, 34488, Note_off_c, 1, 69, 0
1, 34500, Note_on_c, 1, 67, 127
1, 34536, Note_off_c, 1, 43, 0
1, 34548, Note_off_c, 1, 67, 0
1, 34560, Note_on_c, 1, 65, 127
1, 34560, Note_on_c, 1, 45, 127
1, 34608, Note_off_c, 1, 72, 0
1, 34656, Note_off_c, 1, 65, 0
1, 34656, Note_off_c, 1, 45, 0
1, 34680, Note_on_c, 1, 69, 127
1, 34680, Note_on_c, 1, 48, 127
1, 34740, Note_on_c, 1, 67, 127
1, 34776, Note_off_c, 1, 48, 0
1, 34788, Note_off_c, 1, 67, 0
1, 34800, Note_on_c, 1, 65, 127
1, 34800, Note_on_c, 1, 50, 127
1, 34848, Note_off_c, 1, 65, 0
1, 34860, Note_on_c, 1, 64, 127
1, 34872, Note_off_c, 1, 69, 0
1, 34896, Note_off_c, 1, 50, 0
1, 34908, Note_off_c, 1, 64, 0
1, 34920, Note_on_c, 1, 74, 127
1, 34920, Note_on_c, 1, 62, 127
1, 34920, Note_on_c, 1, 52, 127
1, 34968, Note_off_c, 1, 62, 0
1, 34980, Note_on_c, 1, 60, 127
1, 35016, Note_off_c, 1, 52, 0
1, 35028, Note_off_c, 1, 60, 0
1, 35040, Note_on_c, 1, 59, 127
1, 35040, Note_on_c, 1, 53, 127
1, 35088, Note_off_c, 1, 59, 0
1, 35100, Note_on_c, 1, 57, 127
1, 35112, Note_off_c, 1, 74, 0
1, 35136, Note_off_c, 1, 53, 0
1, 35148, Note_off_c, 1, 57, 0
1, 35160, Note_on_c, 1, 77, 127
1, 35160, Note_on_c, 1, 55, 127
1, 35160, Note_on_c, 1, 45, 127
1, 35208, Note_off_c, 1, 55, 0
1, 35220, Note_on_c, 1, 53, 127
1, 35256, Note_off_c, 1, 45, 0
1, 35268, Note_off_c, 1, 53, 0
1, 35280, Note_on_c, 1, 47, 127
1, 35328, Note_off_c, 1, 77, 0
1, 35340, Note_on_c, 1, 72, 127
1, 35376, Note_off_c, 1, 47, 0
1, 35388, Note_off_c, 1, 72, 0
1, 35400, Note_on_c, 1, 74, 127
1, 35400, Note_on_c, 1, 65, 127
1, 35400, Note_on_c, 1, 43, 127
1, 35448, Note_off_c, 1, 74, 0
1, 35460, Note_on_c, 1, 71, 127
1, 35496, Note_off_c, 1, 65, 0
1, 35496, Note_off_c, 1, 43, 0
1, 35508, Note_off_c, 1, 71, 0
1, 35520, Note_on_c, 1, 72, 127
1, 35520, Note_on_c, 1, 64, 127
1, 35520, Note_on_c, 1, 48, 127
1, 35616, Note_off_c, 1, 72, 0
1, 35616, Note_off_c, 1, 64, 0
1, 35616, Note_off_c, 1, 48, 0
1, 35640, Note_on_c, 1, 74, 127
1, 35640, Note_on_c, 1, 69, 127
1, 35640, Note_on_c, 1, 53, 127
1, 35688, Note_off_c, 1, 69, 0
1, 35700, Note_on_c, 1, 67, 127
1, 35736, Note_off_c, 1, 74, 0
1, 35736, Note_off_c, 1, 53, 0
1, 35748, Note_off_c, 1, 67, 0
1, 35760, Note_on_c, 1, 67, 127
1, 35760, Note_on_c, 1, 65, 127
1, 35760, Note_on_c, 1, 55, 127
1, 35808, Note_off_c, 1, 65, 0
1, 35820, Note_on_c, 1, 64, 127
1, 35856, Note_off_c, 1, 67, 0
1, 35856, Note_off_c, 1, 55, 0
1, 35868, Note_off_c, 1, 64, 0
1, 35880, Note_on_c, 1, 71, 127
1, 35880, Note_on_c, 1, 62, 127
1, 35880, Note_on_c, 1, 43, 127
1, 35928, Note_off_c, 1, 62, 0
1, 35940, Note_on_c, 1, 60, 127
1, 35976, Note_off_c, 1, 71, 0
1, 35976, Note_off_c, 1, 43, 0
1, 35988, Note_off_c, 1, 60, 0
1, 36000, Note_on_c, 1, 72, 127
1, 36000, Note_on_c, 1, 60, 127
1, 36000, Note_on_c, 1, 48, 127
1, 36048, Note_off_c, 1, 72, 0
1, 36060, Note_on_c, 1, 67, 127
1, 36096, Note_off_c, 1, 48, 0
1, 36108, Note_off_c, 1, 67, 0
1, 36120, Note_on_c, 1, 69, 127
1, 36168, Note_off_c, 1, 69, 0
1, 36180, Note_on_c, 1, 71, 127
1, 36192, Note_off_c, 1, 60, 0
1, 36228, Note_off_c, 1, 71, 0
1, 36240, Note_on_c, 1, 72, 127
1, 36240, Note_on_c, 1, 52, 127
1, 36288, Note_off_c, 1, 72, 0
1, 36300, Note_on_c, 1, 71, 127
1, 36336, Note_off_c, 1, 52, 0
1, 36348, Note_off_c, 1, 71, 0
1, 36360, Note_on_c, 1, 72, 127
1, 36408, Note_off_c, 1, 72, 0
1, 36420, Note_on_c, 1, 76, 127
1, 36468, Note_off_c, 1, 76, 0
1, 36480, Note_on_c, 1, 74, 127
1, 36480, Note_on_c, 1, 53, 127
1, 36528, Note_off_c, 1, 74, 0
1, 36540, Note_on_c, 1, 72, 127
1, 36576, Note_off_c, 1, 53, 0
1, 36588, Note_off_c, 1, 72, 0
1, 36600, Note_on_c, 1, 71, 127
1, 36648, Note_off_c, 1, 71, 0
1, 36660, Note_on_c, 1, 69, 127
1, 36708, Note_off_c, 1, 69, 0
1, 36720, Note_on_c, 1, 67, 127
1, 36720, Note_on_c, 1, 47, 127
1, 36768, Note_off_c, 1, 67, 0
1, 36780, Note_on_c, 1, 69, 127
1, 36816, Note_off_c, 1, 47, 0
1, 36828, Note_off_c, 1, 69, 0
1, 36840, Note_on_c, 1, 71, 127
1, 36888, Note_off_c, 1, 71, 0
1, 36900, Note_on_c, 1, 72, 127
1, 36948, Note_off_c, 1, 72, 0
1, 36960, Note_on_c, 1, 74, 127
1, 36960, Note_on_c, 1, 43, 127
1, 37008, Note_off_c, 1, 74, 0
1, 37020, Note_on_c, 1, 77, 127
1, 37056, Note_off_c, 1, 43, 0
1, 37068, Note_off_c, 1, 77, 0
1, 37080, Note_on_c, 1, 76, 127
1, 37128, Note_off_c, 1, 76, 0
1, 37140, Note_on_c, 1, 74, 127
1, 37188, Note_off_c, 1, 74, 0
1, 37200, Note_on_c, 1, 79, 127
1, 37200, Note_on_c, 1, 47, 127
1, 37248, Note_off_c, 1, 79, 0
1, 37260, Note_on_c, 1, 77, 127
1, 37296, Note_off_c, 1, 47, 0
1, 37308, Note_off_c, 1, 77, 0
1, 37320, Note_on_c, 1, 76, 127
1, 37368, Note_off_c, 1, 76, 0
1, 37380, Note_on_c, 1, 74, 127
1, 37428, Note_off_c, 1, 74, 0
1, 37440, Note_on_c, 1, 76, 127
1, 37440, Note_on_c, 1, 48, 127
1, 37500, Note_on_c, 1, 60, 127
1, 37536, Note_off_c, 1, 76, 0
1, 37536, Note_off_c, 1, 48, 0
1, 37548, Note_off_c, 1, 60, 0
1, 37560, Note_on_c, 1, 79, 127
1, 37560, Note_on_c, 1, 64, 127
1, 37608, Note_off_c, 1, 64, 0
1, 37620, Note_on_c, 1, 66, 127
1, 37656, Note_off_c, 1, 79, 0
1, 37668, Note_off_c, 1, 66, 0
1, 37680, Note_on_c, 1, 74, 127
1, 37680, Note_on_c, 1, 67, 127
1, 37680, Note_on_c, 1, 47, 127
1, 37728, Note_off_c, 1, 67, 0
1, 37740, Note_on_c, 1, 66, 127
1, 37776, Note_off_c, 1, 74, 0
1, 37776, Note_off_c, 1, 47, 0
1, 37788, Note_off_c, 1, 66, 0
1, 37800, Note_on_c, 1, 79, 127
1, 37800, Note_on_c, 1, 67, 127
1, 37848, Note_off_c, 1, 67, 0
1, 37860, Note_on_c, 1, 71, 127
1, 37896, Note_off_c, 1, 79, 0
1, 37908, Note_off_c, 1, 71, 0
1, 37920, Note_on_c, 1, 72, 127
1, 37920, Note_on_c, 1, 69, 127
1, 37920, Note_on_c, 1, 48, 127
1, 37968, Note_off_c, 1, 69, 0
1, 37980, Note_on_c, 1, 67, 127
1, 38016, Note_off_c, 1, 72, 0
1, 38016, Note_off_c, 1, 48, 0
1, 38028, Note_off_c, 1, 67, 0
1, 38040, Note_on_c, 1, 84, 127
1, 38040, Note_on_c, 1, 66, 127
1, 38088, Note_off_c, 1, 66, 0
1, 38100, Note_on_c, 1, 64, 127
1, 38148, Note_off_c, 1, 64, 0
1, 38160, Note_on_c, 1, 62, 127
1, 38160, Note_on_c, 1, 42, 127
1, 38208, Note_off_c, 1, 84, 0
1, 38208, Note_off_c, 1, 62, 0
1, 38220, Note_on_c, 1, 83, 127
1, 38256, Note_off_c, 1, 42, 0
1, 38268, Note_off_c, 1, 83, 0
1, 38280, Note_on_c, 1, 81, 127
1, 38280, Note_on_c, 1, 66, 127
1, 38328, Note_off_c, 1, 81, 0
1, 38328, Note_off_c, 1, 66, 0
1, 38340, Note_on_c, 1, 79, 127
1, 38340, Note_on_c, 1, 67, 127
1, 38388, Note_off_c, 1, 79, 0
1, 38388, Note_off_c, 1, 67, 0
1, 38400, Note_on_c, 1, 78, 127
1, 38400, Note_on_c, 1, 69, 127
1, 38400, Note_on_c, 1, 38, 127
1, 38448, Note_off_c, 1, 78, 0
1, 38448, Note_off_c, 1, 69, 0
1, 38460, Note_on_c, 1, 76, 127
1, 38460, Note_on_c, 1, 72, 127
1, 38496, Note_off_c, 1, 38, 0
1, 38508, Note_off_c, 1, 76, 0
1, 38508, Note_off_c, 1, 72, 0
1, 38520, Note_on_c, 1, 74, 127
1, 38520, Note_on_c, 1, 71, 127
1, 38568, Note_off_c, 1, 74, 0
1, 38568, Note_off_c, 1, 71, 0
1, 38580, Note_on_c, 1, 72, 127
1, 38580, Note_on_c, 1, 69, 127
1, 38628, Note_off_c, 1, 72, 0
1, 38628, Note_off_c, 1, 69, 0
1, 38640, Note_on_c, 1, 71, 127
1, 38640, Note_on_c, 1, 74, 127
1, 38640, Note_on_c, 1, 50, 127
1, 38688, Note_off_c, 1, 71, 0
1, 38688, Note_off_c, 1, 74, 0
1, 38700, Note_on_c, 1, 69, 127
1, 38700, Note_on_c, 1, 72, 127
1, 38736, Note_off_c, 1, 50, 0
1, 38748, Note_off_c, 1, 69, 0
1, 38748, Note_off_c, 1, 72, 0
1, 38760, Note_on_c, 1, 67, 127
1, 38760, Note_on_c, 1, 71, 127
1, 38808, Note_off_c, 1, 67, 0
1, 38808, Note_off_c, 1, 71, 0
1, 38820, Note_on_c, 1, 66, 127
1, 38820, Note_on_c, 1, 69, 127
1, 38868, Note_off_c, 1, 66, 0
1, 38868, Note_off_c, 1, 69, 0
1, 38880, Note_on_c, 1, 67, 127
1, 38880, Note_on_c, 1, 71, 127
1, 38880, Note_on_c, 1, 43, 127
1, 38928, Note_off_c, 1, 71, 0
1, 38976, Note_off_c, 1, 43, 0
1, 39000, Note_on_c, 1, 65, 127
1, 39000, Note_on_c, 1, 55, 127
1, 39048, Note_off_c, 1, 65, 0
1, 39060, Note_on_c, 1, 64, 127
1, 39072, Note_off_c, 1, 67, 0
1, 39108, Note_off_c, 1, 64, 0
1, 39120, Note_on_c, 1, 62, 127
1, 39168, Note_off_c, 1, 62, 0
1, 39180, Note_on_c, 1, 60, 127
1, 39192, Note_off_c, 1, 55, 0
1, 39228, Note_off_c, 1, 60, 0
1, 39240, Note_on_c, 1, 67, 127
1, 39240, Note_on_c, 1, 59, 127
1, 39240, Note_on_c, 1, 53, 127
1, 39288, Note_off_c, 1, 59, 0
1, 39300, Note_on_c, 1, 57, 127
1, 39336, Note_off_c, 1, 67, 0
1, 39336, Note_off_c, 1, 53, 0
1, 39348, Note_off_c, 1, 57, 0
1, 39360, Note_on_c, 1, 72, 127
1, 39360, Note_on_c, 1, 55, 127
1, 39360, Note_on_c, 1, 52, 127
1, 39408, Note_off_c, 1, 72, 0
1, 39420, Note_on_c, 1, 71, 127
1, 39456, Note_off_c, 1, 52, 0
1, 39468, Note_off_c, 1, 71, 0
1, 39480, Note_on_c, 1, 50, 127
1, 39540, Note_on_c, 1, 74, 127
1, 39576, Note_off_c, 1, 50, 0
1, 39588, Note_off_c, 1, 74, 0
1, 39600, Note_on_c, 1, 76, 127
1, 39600, Note_on_c, 1, 48, 127
1, 39648, Note_off_c, 1, 76, 0
1, 39655, Note_off_c, 1, 48, 0
1, 39720, Note_on_c, 1, 60, 127
1, 39780, Note_on_c, 1, 69, 127
1, 39792, Note_off_c, 1, 55, 0
1, 39828, Note_off_c, 1, 69, 0
1, 39840, Note_on_c, 1, 67, 127
1, 39888, Note_off_c, 1, 67, 0
1, 39900, Note_on_c, 1, 65, 127
1, 39948, Note_off_c, 1, 65, 0
1, 39960, Note_on_c, 1, 64, 127
1, 39960, Note_on_c, 1, 58, 127
1, 40008, Note_off_c, 1, 64, 0
1, 40020, Note_on_c, 1, 62, 127
1, 40056, Note_off_c, 1, 60, 0
1, 40068, Note_off_c, 1, 62, 0
1, 40080, Note_on_c, 1, 57, 127
1, 40084, Note_off_c, 1, 58, 0
1, 40206, Note_off_c, 1, 57, 0
1, 40320, Note_on_c, 1, 53, 127
1, 40387, Note_off_c, 1, 53, 0
1, 40680, Note_on_c, 1, 61, 127
1, 40728, Note_off_c, 1, 61, 0
1, 40740, Note_on_c, 1, 59, 127
1, 40788, Note_off_c, 1, 59, 0
1, 40860, Note_on_c, 1, 73, 127
1, 40908, Note_off_c, 1, 73, 0
1, 41040, Note_on_c, 1, 77, 127
1, 41088, Note_off_c, 1, 77, 0
1, 41220, Note_on_c, 1, 70, 127
1, 41268, Note_off_c, 1, 70, 0
1, 41400, Note_on_c, 1, 65, 127
1, 41400, Note_on_c, 1, 62, 127
1, 41400, Note_on_c, 1, 60, 127
1, 41448, Note_off_c, 1, 65, 0
1, 41460, Note_on_c, 1, 64, 127
1, 41496, Note_off_c, 1, 62, 0
1, 41508, Note_off_c, 1, 64, 0
1, 41520, Note_on_c, 1, 68, 127
1, 41520, Note_on_c, 1, 59, 127
1, 41529, Note_off_c, 1, 60, 0
1, 41568, Note_off_c, 1, 68, 0
1, 41580, Note_on_c, 1, 66, 127
1, 41628, Note_off_c, 1, 66, 0
1, 41636, Note_off_c, 1, 59, 0
1, 41640, Note_on_c, 1, 57, 127
1, 41687, Note_off_c, 1, 57, 0
1, 41700, Note_on_c, 1, 69, 127
1, 41748, Note_off_c, 1, 69, 0
1, 41760, Note_on_c, 1, 71, 127
1, 41760, Note_on_c, 1, 56, 127
1, 41868, Note_off_c, 1, 71, 0
1, 41873, Note_off_c, 1, 56, 0
1, 41880, Note_on_c, 1, 62, 127
1, 41880, Note_on_c, 1, 64, 127
1, 41928, Note_off_c, 1, 62, 0
1, 41940, Note_on_c, 1, 71, 127
1, 41988, Note_off_c, 1, 71, 0
1, 42000, Note_on_c, 1, 60, 127
1, 42000, Note_on_c, 1, 57, 127
1, 42048, Note_off_c, 1, 60, 0
1, 42060, Note_on_c, 1, 69, 127
1, 42072, Note_off_c, 1, 64, 0
1, 42108, Note_off_c, 1, 69, 0
1, 42113, Note_off_c, 1, 57, 0
1, 42120, Note_on_c, 1, 60, 127
1, 42120, Note_on_c, 1, 69, 127
1, 42168, Note_off_c, 1, 60, 0
1, 42240, Note_on_c, 1, 59, 127
1, 42240, Note_on_c, 1, 53, 127
1, 42288, Note_off_c, 1, 59, 0
1, 42348, Note_off_c, 1, 69, 0
1, 42353, Note_off_c, 1, 53, 0
1, 42360, Note_on_c, 1, 57, 127
1, 42360, Note_on_c, 1, 62, 127
1, 42408, Note_off_c, 1, 57, 0
1, 42420, Note_on_c, 1, 69, 127
1, 42456, Note_off_c, 1, 62, 0
1, 42468, Note_off_c, 1, 69, 0
1, 42480, Note_on_c, 1, 68, 127
1, 42480, Note_on_c, 1, 64, 127
1, 42480, Note_on_c, 1, 52, 127
1, 42528, Note_off_c, 1, 68, 0
1, 42593, Note_off_c, 1, 52, 0
1, 42600, Note_on_c, 1, 66, 127
1, 42648, Note_off_c, 1, 66, 0
1, 42720, Note_on_c, 1, 69, 127
1, 42720, Note_on_c, 1, 53, 127
1, 42768, Note_off_c, 1, 69, 0
1, 42833, Note_off_c, 1, 53, 0
1, 42900, Note_on_c, 1, 72, 127
1, 42948, Note_off_c, 1, 72, 0
1, 42960, Note_on_c, 1, 71, 127
1, 42960, Note_on_c, 1, 54, 127
1, 43008, Note_off_c, 1, 71, 0
1, 43073, Note_off_c, 1, 54, 0
1, 43200, Note_on_c, 1, 55, 127
1, 43313, Note_off_c, 1, 55, 0
1, 43320, Note_on_c, 1, 67, 127
1, 43368, Note_off_c, 1, 67, 0
1, 43440, Note_on_c, 1, 56, 127
1, 43500, Note_on_c, 1, 74, 127
1, 43548, Note_off_c, 1, 74, 0
1, 43553, Note_off_c, 1, 56, 0
1, 43680, Note_on_c, 1, 76, 127
1, 43728, Note_off_c, 1, 76, 0
1, 43920, Note_on_c, 1, 57, 127
1, 43968, Note_off_c, 1, 64, 0
1, 43980, Note_on_c, 1, 60, 127
1, 44028, Note_off_c, 1, 60, 0
1, 44033, Note_off_c, 1, 57, 0
1, 44040, Note_on_c, 1, 62, 127
1, 44088, Note_off_c, 1, 62, 0
1, 44160, Note_on_c, 1, 65, 127
1, 44160, Note_on_c, 1, 45, 127
1, 44208, Note_off_c, 1, 65, 0
1, 44273, Note_off_c, 1, 45, 0
1, 44400, Note_on_c, 1, 48, 127
1, 44513, Note_off_c, 1, 48, 0
1, 44940, Note_on_c, 1, 70, 127
1, 44988, Note_off_c, 1, 70, 0
1, 45540, Note_on_c, 1, 73, 127
1, 45588, Note_off_c, 1, 73, 0
1, 45600, Note_on_c, 1, 46, 127
1, 45713, Note_off_c, 1, 46, 0
1, 45780, Note_on_c, 1, 77, 127
1, 45828, Note_off_c, 1, 77, 0
1, 45840, Note_on_c, 1, 47, 127
1, 45953, Note_off_c, 1, 47, 0
1, 46320, Note_on_c, 1, 49, 127
1, 46380, Note_on_c, 1, 79, 127
1, 46428, Note_off_c, 1, 79, 0
1, 46433, Note_off_c, 1, 49, 0
1, 46560, Note_on_c, 1, 81, 127
1, 46608, Note_off_c, 1, 81, 0
1, 46800, Note_on_c, 1, 50, 127
1, 46913, Note_off_c, 1, 50, 0
1, 46920, Note_on_c, 1, 74, 127
1, 46920, Note_on_c, 1, 59, 127
1, 46968, Note_off_c, 1, 74, 0
1, 46968, Note_off_c, 1, 59, 0
1, 46980, Note_on_c, 1, 76, 127
1, 46980, Note_on_c, 1, 61, 127
1, 47028, Note_off_c, 1, 76, 0
1, 47028, Note_off_c, 1, 61, 0
1, 47040, Note_on_c, 1, 77, 127
1, 47040, Note_on_c, 1, 62, 127
1, 47040, Note_on_c, 1, 38, 127
1, 47088, Note_off_c, 1, 77, 0
1, 47088, Note_off_c, 1, 62, 0
1, 47100, Note_on_c, 1, 76, 127
1, 47100, Note_on_c, 1, 61, 127
1, 47148, Note_off_c, 1, 76, 0
1, 47148, Note_off_c, 1, 61, 0
1, 47153, Note_off_c, 1, 38, 0
1, 47160, Note_on_c, 1, 77, 127
1, 47160, Note_on_c, 1, 62, 127
1, 47208, Note_off_c, 1, 77, 0
1, 47208, Note_off_c, 1, 62, 0
1, 47220, Note_on_c, 1, 81, 127
1, 47220, Note_on_c, 1, 65, 127
1, 47268, Note_off_c, 1, 81, 0
1, 47268, Note_off_c, 1, 65, 0
1, 47280, Note_on_c, 1, 79, 127
1, 47280, Note_on_c, 1, 64, 127
1, 47280, Note_on_c, 1, 50, 127
1, 47328, Note_off_c, 1, 79, 0
1, 47328, Note_off_c, 1, 64, 0
1, 47340, Note_on_c, 1, 77, 127
1, 47340, Note_on_c, 1, 62, 127
1, 47388, Note_off_c, 1, 77, 0
1, 47388, Note_off_c, 1, 62, 0
1, 47393, Note_off_c, 1, 50, 0
1, 47400, Note_on_c, 1, 76, 127
1, 47400, Note_on_c, 1, 61, 127
1, 47448, Note_off_c, 1, 76, 0
1, 47448, Note_off_c, 1, 61, 0
1, 47460, Note_on_c, 1, 74, 127
1, 47460, Note_on_c, 1, 59, 127
1, 47508, Note_off_c, 1, 74, 0
1, 47508, Note_off_c, 1, 59, 0
1, 47520, Note_on_c, 1, 76, 127
1, 47520, Note_on_c, 1, 57, 127
1, 47520, Note_on_c, 1, 50, 127
1, 47568, Note_off_c, 1, 57, 0
1, 47580, Note_on_c, 1, 59, 127
1, 47616, Note_off_c, 1, 76, 0
1, 47628, Note_off_c, 1, 59, 0
1, 47640, Note_on_c, 1, 69, 127
1, 47640, Note_on_c, 1, 61, 127
1, 47688, Note_off_c, 1, 61, 0
1, 47700, Note_on_c, 1, 62, 127
1, 47736, Note_off_c, 1, 69, 0
1, 47747, Note_off_c, 1, 50, 0
1, 47748, Note_off_c, 1, 62, 0
1, 47760, Note_on_c, 1, 64, 127
1, 47760, Note_on_c, 1, 49, 127
1, 47808, Note_off_c, 1, 64, 0
1, 47820, Note_on_c, 1, 67, 127
1, 47854, Note_off_c, 1, 49, 0
1, 47868, Note_off_c, 1, 67, 0
1, 47880, Note_on_c, 1, 65, 127
1, 47880, Note_on_c, 1, 45, 127
1, 47928, Note_off_c, 1, 65, 0
1, 47940, Note_on_c, 1, 64, 127
1, 47988, Note_off_c, 1, 64, 0
1, 48000, Note_on_c, 1, 69, 127
1, 48000, Note_on_c, 1, 47, 127
1, 48008, Note_off_c, 1, 45, 0
1, 48048, Note_off_c, 1, 69, 0
1, 48060, Note_on_c, 1, 67, 127
1, 48105, Note_off_c, 1, 47, 0
1, 48108, Note_off_c, 1, 67, 0
1, 48120, Note_on_c, 1, 65, 127
1, 48120, Note_on_c, 1, 49, 127
1, 48168, Note_off_c, 1, 65, 0
1, 48180, Note_on_c, 1, 64, 127
1, 48214, Note_off_c, 1, 49, 0
1, 48228, Note_off_c, 1, 64, 0
1, 48240, Note_on_c, 1, 65, 127
1, 48240, Note_on_c, 1, 50, 127
1, 48300, Note_on_c, 1, 74, 127
1, 48348, Note_off_c, 1, 74, 0
1, 48350, Note_off_c, 1, 50, 0
1, 48360, Note_on_c, 1, 73, 127
1, 48408, Note_off_c, 1, 73, 0
1, 48480, Note_on_c, 1, 77, 127
1, 48528, Note_off_c, 1, 77, 0
1, 48600, Note_on_c, 1, 52, 127
1, 48720, Note_on_c, 1, 69, 127
1, 48720, Note_on_c, 1, 53, 127
1, 48721, Note_off_c, 1, 52, 0
1, 48768, Note_off_c, 1, 69, 0
1, 48834, Note_off_c, 1, 53, 0
1, 48960, Note_on_c, 1, 62, 127
1, 48960, Note_on_c, 1, 58, 127
1, 49008, Note_off_c, 1, 65, 0
1, 49020, Note_on_c, 1, 64, 127
1, 49056, Note_off_c, 1, 62, 0
1, 49068, Note_off_c, 1, 64, 0
1, 49073, Note_off_c, 1, 58, 0
1, 49080, Note_on_c, 1, 62, 127
1, 49128, Note_off_c, 1, 62, 0
1, 49140, Note_on_c, 1, 64, 127
1, 49188, Note_off_c, 1, 64, 0
1, 49200, Note_on_c, 1, 65, 127
1, 49200, Note_on_c, 1, 46, 127
1, 49248, Note_off_c, 1, 65, 0
1, 49260, Note_on_c, 1, 69, 127
1, 49308, Note_off_c, 1, 69, 0
1, 49313, Note_off_c, 1, 46, 0
1, 49320, Note_on_c, 1, 67, 127
1, 49368, Note_off_c, 1, 67, 0
1, 49380, Note_on_c, 1, 65, 127
1, 49428, Note_off_c, 1, 65, 0
1, 49440, Note_on_c, 1, 70, 127
1, 49440, Note_on_c, 1, 50, 127
1, 49488, Note_off_c, 1, 70, 0
1, 49500, Note_on_c, 1, 69, 127
1, 49548, Note_off_c, 1, 69, 0
1, 49553, Note_off_c, 1, 50, 0
1, 49560, Note_on_c, 1, 67, 127
1, 49608, Note_off_c, 1, 67, 0
1, 49620, Note_on_c, 1, 65, 127
1, 49668, Note_off_c, 1, 65, 0
1, 49680, Note_on_c, 1, 67, 127
1, 49680, Note_on_c, 1, 52, 127
1, 49740, Note_on_c, 1, 72, 127
1, 49788, Note_off_c, 1, 72, 0
1, 49800, Note_on_c, 1, 71, 127
1, 49848, Note_off_c, 1, 71, 0
1, 49856, Note_off_c, 1, 52, 0
1, 49920, Note_on_c, 1, 76, 127
1, 49968, Note_off_c, 1, 76, 0
1, 50040, Note_on_c, 1, 50, 127
1, 50158, Note_off_c, 1, 50, 0
1, 50280, Note_on_c, 1, 64, 127
1, 50280, Note_on_c, 1, 48, 127
1, 50328, Note_off_c, 1, 64, 0
1, 50337, Note_off_c, 1, 48, 0
1, 50400, Note_on_c, 1, 60, 127
1, 50400, Note_on_c, 1, 57, 127
1, 50448, Note_off_c, 1, 67, 0
1, 50460, Note_on_c, 1, 65, 127
1, 50496, Note_off_c, 1, 60, 0
1, 50508, Note_off_c, 1, 65, 0
1, 50513, Note_off_c, 1, 57, 0
1, 50520, Note_on_c, 1, 64, 127
1, 50568, Note_off_c, 1, 64, 0
1, 50580, Note_on_c, 1, 65, 127
1, 50628, Note_off_c, 1, 65, 0
1, 50640, Note_on_c, 1, 67, 127
1, 50640, Note_on_c, 1, 58, 127
1, 50688, Note_off_c, 1, 67, 0
1, 50700, Note_on_c, 1, 70, 127
1, 50748, Note_off_c, 1, 70, 0
1, 50753, Note_off_c, 1, 58, 0
1, 50760, Note_on_c, 1, 69, 127
1, 50808, Note_off_c, 1, 69, 0
1, 50820, Note_on_c, 1, 67, 127
1, 50868, Note_off_c, 1, 67, 0
1, 50880, Note_on_c, 1, 72, 127
1, 50880, Note_on_c, 1, 52, 127
1, 50928, Note_off_c, 1, 72, 0
1, 50940, Note_on_c, 1, 70, 127
1, 50988, Note_off_c, 1, 70, 0
1, 50993, Note_off_c, 1, 52, 0
1, 51000, Note_on_c, 1, 69, 127
1, 51048, Note_off_c, 1, 69, 0
1, 51060, Note_on_c, 1, 67, 127
1, 51108, Note_off_c, 1, 67, 0
1, 51120, Note_on_c, 1, 69, 127
1, 51120, Note_on_c, 1, 53, 127
1, 51180, Note_on_c, 1, 77, 127
1, 51228, Note_off_c, 1, 77, 0
1, 51240, Note_on_c, 1, 76, 127
1, 51288, Note_off_c, 1, 76, 0
1, 51312, Note_off_c, 1, 69, 0
1, 51312, Note_off_c, 1, 53, 0
1, 51360, Note_on_c, 1, 81, 127
1, 51360, Note_on_c, 1, 41, 127
1, 51408, Note_off_c, 1, 81, 0
1, 51420, Note_on_c, 1, 77, 127
1, 51468, Note_off_c, 1, 77, 0
1, 51480, Note_on_c, 1, 76, 127
1, 51528, Note_off_c, 1, 76, 0
1, 51552, Note_off_c, 1, 41, 0
1, 51600, Note_on_c, 1, 72, 127
1, 51648, Note_off_c, 1, 72, 0
1, 51660, Note_on_c, 1, 77, 127
1, 51708, Note_off_c, 1, 77, 0
1, 51720, Note_on_c, 1, 69, 127
1, 51768, Note_off_c, 1, 69, 0
1, 51780, Note_on_c, 1, 72, 127
1, 51828, Note_off_c, 1, 72, 0
1, 51840, Note_on_c, 1, 65, 127
1, 51936, Note_off_c, 1, 65, 0
1, 51960, Note_on_c, 1, 81, 127
1, 51960, Note_on_c, 1, 60, 127
1, 51960, Note_on_c, 1, 53, 127
1, 52056, Note_off_c, 1, 81, 0
1, 52056, Note_off_c, 1, 60, 0
1, 52056, Note_off_c, 1, 53, 0
1, 52080, Note_on_c, 1, 77, 127
1, 52080, Note_on_c, 1, 57, 127
1, 52080, Note_on_c, 1, 41, 127
1, 52176, Note_off_c, 1, 77, 0
1, 52176, Note_off_c, 1, 57, 0
1, 52176, Note_off_c, 1, 41, 0
1, 52200, Note_on_c, 1, 81, 127
1, 52200, Note_on_c, 1, 60, 127
1, 52200, Note_on_c, 1, 53, 127
1, 52296, Note_off_c, 1, 81, 0
1, 52296, Note_off_c, 1, 60, 0
1, 52296, Note_off_c, 1, 53, 0
1, 52320, Note_on_c, 1, 82, 127
1, 52320, Note_on_c, 1, 62, 127
1, 52320, Note_on_c, 1, 41, 127
1, 52416, Note_off_c, 1, 82, 0
1, 52416, Note_off_c, 1, 62, 0
1, 52416, Note_off_c, 1, 41, 0
1, 52440, Note_on_c, 1, 81, 127
1, 52440, Note_on_c, 1, 60, 127
1, 52440, Note_on_c, 1, 53, 127
1, 52488, Note_off_c, 1, 81, 0
1, 52488, Note_off_c, 1, 60, 0
1, 52500, Note_on_c, 1, 79, 127
1, 52500, Note_on_c, 1, 58, 127
1, 52536, Note_off_c, 1, 53, 0
1, 52548, Note_off_c, 1, 79, 0
1, 52548, Note_off_c, 1, 58, 0
1, 52560, Note_on_c, 1, 81, 127
1, 52560, Note_on_c, 1, 60, 127
1, 52560, Note_on_c, 1, 41, 127
1, 52608, Note_off_c, 1, 60, 0
1, 52620, Note_on_c, 1, 65, 127
1, 52668, Note_off_c, 1, 65, 0
1, 52680, Note_on_c, 1, 64, 127
1, 52728, Note_off_c, 1, 64, 0
1, 52752, Note_off_c, 1, 81, 0
1, 52752, Note_off_c, 1, 41, 0
1, 52800, Note_on_c, 1, 69, 127
1, 52848, Note_off_c, 1, 69, 0
1, 52860, Note_on_c, 1, 65, 127
1, 52908, Note_off_c, 1, 65, 0
1, 52920, Note_on_c, 1, 64, 127
1, 52968, Note_off_c, 1, 64, 0
1, 52980, Note_on_c, 1, 65, 127
1, 53028, Note_off_c, 1, 65, 0
1, 53040, Note_on_c, 1, 60, 127
1, 53088, Note_off_c, 1, 60, 0
1, 53100, Note_on_c, 1, 65, 127
1, 53148, Note_off_c, 1, 65, 0
1, 53160, Note_on_c, 1, 57, 127
1, 53208, Note_off_c, 1, 57, 0
1, 53220, Note_on_c, 1, 60, 127
1, 53268, Note_off_c, 1, 60, 0
1, 53280, Note_on_c, 1, 53, 127
1, 53376, Note_off_c, 1, 53, 0
1, 53400, Note_on_c, 1, 72, 127
1, 53400, Note_on_c, 1, 69, 127
1, 53400, Note_on_c, 1, 53, 127
1, 53496, Note_off_c, 1, 72, 0
1, 53496, Note_off_c, 1, 69, 0
1, 53496, Note_off_c, 1, 53, 0
1, 53520, Note_on_c, 1, 69, 127
1, 53520, Note_on_c, 1, 65, 127
1, 53520, Note_on_c, 1, 41, 127
1, 53616, Note_off_c, 1, 69, 0
1, 53616, Note_off_c, 1, 65, 0
1, 53616, Note_off_c, 1, 41, 0
1, 53640, Note_on_c, 1, 72, 127
1, 53640, Note_on_c, 1, 69, 127
1, 53640, Note_on_c, 1, 53, 127
1, 53736, Note_off_c, 1, 72, 0
1, 53736, Note_off_c, 1, 69, 0
1, 53736, Note_off_c, 1, 53, 0
1, 53760, Note_on_c, 1, 74, 127
1, 53760, Note_on_c, 1, 70, 127
1, 53760, Note_on_c, 1, 41, 127
1, 53856, Note_off_c, 1, 74, 0
1, 53856, Note_off_c, 1, 70, 0
1, 53856, Note_off_c, 1, 41, 0
1, 53880, Note_on_c, 1, 72, 127
1, 53880, Note_on_c, 1, 69, 127
1, 53880, Note_on_c, 1, 53, 127
1, 53928, Note_off_c, 1, 72, 0
1, 53928, Note_off_c, 1, 69, 0
1, 53940, Note_on_c, 1, 70, 127
1, 53940, Note_on_c, 1, 67, 127
1, 53976, Note_off_c, 1, 53, 0
1, 53988, Note_off_c, 1, 70, 0
1, 53988, Note_off_c, 1, 67, 0
1, 54000, Note_on_c, 1, 72, 127
1, 54000, Note_on_c, 1, 69, 127
1, 54000, Note_on_c, 1, 41, 127
1, 54048, Note_off_c, 1, 69, 0
1, 54060, Note_on_c, 1, 60, 127
1, 54096, Note_off_c, 1, 72, 0
1, 54096, Note_off_c, 1, 41, 0
1, 54108, Note_off_c, 1, 60, 0
1, 54120, Note_on_c, 1, 65, 127
1, 54120, Note_on_c, 1, 62, 127
1, 54168, Note_off_c, 1, 65, 0
1, 54168, Note_off_c, 1, 62, 0
1, 54180, Note_on_c, 1, 67, 127
1, 54180, Note_on_c, 1, 64, 127
1, 54228, Note_off_c, 1, 67, 0
1, 54228, Note_off_c, 1, 64, 0
1, 54240, Note_on_c, 1, 69, 127
1, 54240, Note_on_c, 1, 65, 127
1, 54240, Note_on_c, 1, 40, 127
1, 54288, Note_off_c, 1, 65, 0
1, 54300, Note_on_c, 1, 64, 127
1, 54336, Note_off_c, 1, 69, 0
1, 54336, Note_off_c, 1, 40, 0
1, 54348, Note_off_c, 1, 64, 0
1, 54360, Note_on_c, 1, 60, 127
1, 54360, Note_on_c, 1, 65, 127
1, 54408, Note_off_c, 1, 65, 0
1, 54420, Note_on_c, 1, 69, 127
1, 54456, Note_off_c, 1, 60, 0
1, 54468, Note_off_c, 1, 69, 0
1, 54480, Note_on_c, 1, 62, 127
1, 54480, Note_on_c, 1, 67, 127
1, 54480, Note_on_c, 1, 38, 127
1, 54528, Note_off_c, 1, 67, 0
1, 54540, Note_on_c, 1, 65, 127
1, 54576, Note_off_c, 1, 62, 0
1, 54576, Note_off_c, 1, 38, 0
1, 54588, Note_off_c, 1, 65, 0
1, 54600, Note_on_c, 1, 71, 127
1, 54600, Note_on_c, 1, 64, 127
1, 54648, Note_off_c, 1, 64, 0
1, 54660, Note_on_c, 1, 62, 127
1, 54696, Note_off_c, 1, 71, 0
1, 54708, Note_off_c, 1, 62, 0
1, 54720, Note_on_c, 1, 72, 127
1, 54720, Note_on_c, 1, 64, 127
1, 54720, Note_on_c, 1, 36, 127
1, 54768, Note_off_c, 1, 72, 0
1, 54780, Note_on_c, 1, 67, 127
1, 54816, Note_off_c, 1, 64, 0
1, 54816, Note_off_c, 1, 36, 0
1, 54828, Note_off_c, 1, 67, 0
1, 54840, Note_on_c, 1, 69, 127
1, 54840, Note_on_c, 1, 60, 127
1, 54888, Note_off_c, 1, 69, 0
1, 54888, Note_off_c, 1, 60, 0
1, 54900, Note_on_c, 1, 71, 127
1, 54900, Note_on_c, 1, 62, 127
1, 54948, Note_off_c, 1, 71, 0
1, 54948, Note_off_c, 1, 62, 0
1, 54960, Note_on_c, 1, 72, 127
1, 54960, Note_on_c, 1, 64, 127
1, 54960, Note_on_c, 1, 47, 127
1, 55008, Note_off_c, 1, 72, 0
1, 55020, Note_on_c, 1, 71, 127
1, 55056, Note_off_c, 1, 64, 0
1, 55056, Note_off_c, 1, 47, 0
1, 55068, Note_off_c, 1, 71, 0
1, 55080, Note_on_c, 1, 72, 127
1, 55080, Note_on_c, 1, 55, 127
1, 55128, Note_off_c, 1, 72, 0
1, 55140, Note_on_c, 1, 76, 127
1, 55176, Note_off_c, 1, 55, 0
1, 55188, Note_off_c, 1, 76, 0
1, 55200, Note_on_c, 1, 74, 127
1, 55200, Note_on_c, 1, 57, 127
1, 55200, Note_on_c, 1, 45, 127
1, 55248, Note_off_c, 1, 74, 0
1, 55260, Note_on_c, 1, 72, 127
1, 55296, Note_off_c, 1, 57, 0
1, 55296, Note_off_c, 1, 45, 0
1, 55308, Note_off_c, 1, 72, 0
1, 55320, Note_on_c, 1, 71, 127
1, 55320, Note_on_c, 1, 66, 127
1, 55368, Note_off_c, 1, 71, 0
1, 55380, Note_on_c, 1, 69, 127
1, 55416, Note_off_c, 1, 66, 0
1, 55428, Note_off_c, 1, 69, 0
1, 55440, Note_on_c, 1, 71, 127
1, 55440, Note_on_c, 1, 67, 127
1, 55440, Note_on_c, 1, 43, 127
1, 55488, Note_off_c, 1, 67, 0
1, 55500, Note_on_c, 1, 62, 127
1, 55536, Note_off_c, 1, 71, 0
1, 55536, Note_off_c, 1, 43, 0
1, 55548, Note_off_c, 1, 62, 0
1, 55560, Note_on_c, 1, 67, 127
1, 55560, Note_on_c, 1, 64, 127
1, 55608, Note_off_c, 1, 67, 0
1, 55608, Note_off_c, 1, 64, 0
1, 55620, Note_on_c, 1, 69, 127
1, 55620, Note_on_c, 1, 65, 127
1, 55668, Note_off_c, 1, 69, 0
1, 55668, Note_off_c, 1, 65, 0
1, 55680, Note_on_c, 1, 71, 127
1, 55680, Note_on_c, 1, 67, 127
1, 55680, Note_on_c, 1, 41, 127
1, 55728, Note_off_c, 1, 67, 0
1, 55740, Note_on_c, 1, 65, 127
1, 55776, Note_off_c, 1, 71, 0
1, 55776, Note_off_c, 1, 41, 0
1, 55788, Note_off_c, 1, 65, 0
1, 55800, Note_on_c, 1, 62, 127
1, 55800, Note_on_c, 1, 67, 127
1, 55848, Note_off_c, 1, 67, 0
1, 55860, Note_on_c, 1, 70, 127
1, 55896, Note_off_c, 1, 62, 0
1, 55908, Note_off_c, 1, 70, 0
1, 55920, Note_on_c, 1, 64, 127
1, 55920, Note_on_c, 1, 69, 127
1, 55920, Note_on_c, 1, 40, 127
1, 55968, Note_off_c, 1, 69, 0
1, 55980, Note_on_c, 1, 67, 127
1, 56016, Note_off_c, 1, 64, 0
1, 56016, Note_off_c, 1, 40, 0
1, 56028, Note_off_c, 1, 67, 0
1, 56040, Note_on_c, 1, 73, 127
1, 56040, Note_on_c, 1, 65, 127
1, 56088, Note_off_c, 1, 65, 0
1, 56100, Note_on_c, 1, 64, 127
1, 56136, Note_off_c, 1, 73, 0
1, 56148, Note_off_c, 1, 64, 0
1, 56160, Note_on_c, 1, 74, 127
1, 56160, Note_on_c, 1, 65, 127
1, 56160, Note_on_c, 1, 38, 127
1, 56208, Note_off_c, 1, 74, 0
1, 56220, Note_on_c, 1, 69, 127
1, 56256, Note_off_c, 1, 65, 0
1, 56256, Note_off_c, 1, 38, 0
1, 56268, Note_off_c, 1, 69, 0
1, 56280, Note_on_c, 1, 71, 127
1, 56280, Note_on_c, 1, 62, 127
1, 56328, Note_off_c, 1, 71, 0
1, 56328, Note_off_c, 1, 62, 0
1, 56340, Note_on_c, 1, 72, 127
1, 56340, Note_on_c, 1, 64, 127
1, 56388, Note_off_c, 1, 72, 0
1, 56388, Note_off_c, 1, 64, 0
1, 56400, Note_on_c, 1, 74, 127
1, 56400, Note_on_c, 1, 66, 127
1, 56400, Note_on_c, 1, 48, 127
1, 56448, Note_off_c, 1, 74, 0
1, 56460, Note_on_c, 1, 72, 127
1, 56496, Note_off_c, 1, 66, 0
1, 56496, Note_off_c, 1, 48, 0
1, 56508, Note_off_c, 1, 72, 0
1, 56520, Note_on_c, 1, 74, 127
1, 56520, Note_on_c, 1, 57, 127
1, 56568, Note_off_c, 1, 74, 0
1, 56580, Note_on_c, 1, 77, 127
1, 56616, Note_off_c, 1, 57, 0
1, 56628, Note_off_c, 1, 77, 0
1, 56640, Note_on_c, 1, 76, 127
1, 56640, Note_on_c, 1, 59, 127
1, 56640, Note_on_c, 1, 47, 127
1, 56688, Note_off_c, 1, 76, 0
1, 56700, Note_on_c, 1, 74, 127
1, 56736, Note_off_c, 1, 59, 0
1, 56736, Note_off_c, 1, 47, 0
1, 56748, Note_off_c, 1, 74, 0
1, 56760, Note_on_c, 1, 72, 127
1, 56760, Note_on_c, 1, 68, 127
1, 56808, Note_off_c, 1, 72, 0
1, 56820, Note_on_c, 1, 71, 127
1, 56856, Note_off_c, 1, 68, 0
1, 56868, Note_off_c, 1, 71, 0
1, 56880, Note_on_c, 1, 72, 127
1, 56880, Note_on_c, 1, 45, 127
1, 56940, Note_on_c, 1, 69, 127
1, 56988, Note_off_c, 1, 69, 0
1, 57000, Note_on_c, 1, 68, 127
1, 57048, Note_off_c, 1, 68, 0
1, 57072, Note_off_c, 1, 72, 0
1, 57072, Note_off_c, 1, 45, 0
1, 57120, Note_on_c, 1, 72, 127
1, 57168, Note_off_c, 1, 72, 0
1, 57180, Note_on_c, 1, 69, 127
1, 57228, Note_off_c, 1, 69, 0
1, 57240, Note_on_c, 1, 68, 127
1, 57288, Note_off_c, 1, 68, 0
1, 57300, Note_on_c, 1, 69, 127
1, 57348, Note_off_c, 1, 69, 0
1, 57360, Note_on_c, 1, 64, 127
1, 57408, Note_off_c, 1, 64, 0
1, 57420, Note_on_c, 1, 69, 127
1, 57468, Note_off_c, 1, 69, 0
1, 57480, Note_on_c, 1, 60, 127
1, 57528, Note_off_c, 1, 60, 0
1, 57540, Note_on_c, 1, 64, 127
1, 57588, Note_off_c, 1, 64, 0
1, 57600, Note_on_c, 1, 57, 127
1, 57696, Note_off_c, 1, 57, 0
1, 57720, Note_on_c, 1, 76, 127
1, 57720, Note_on_c, 1, 72, 127
1, 57720, Note_on_c, 1, 57, 127
1, 57816, Note_off_c, 1, 76, 0
1, 57816, Note_off_c, 1, 72, 0
1, 57816, Note_off_c, 1, 57, 0
1, 57840, Note_on_c, 1, 72, 127
1, 57840, Note_on_c, 1, 69, 127
1, 57840, Note_on_c, 1, 45, 127
1, 57936, Note_off_c, 1, 72, 0
1, 57936, Note_off_c, 1, 69, 0
1, 57936, Note_off_c, 1, 45, 0
1, 57960, Note_on_c, 1, 76, 127
1, 57960, Note_on_c, 1, 72, 127
1, 57960, Note_on_c, 1, 57, 127
1, 58056, Note_off_c, 1, 76, 0
1, 58056, Note_off_c, 1, 72, 0
1, 58056, Note_off_c, 1, 57, 0
1, 58080, Note_on_c, 1, 77, 127
1, 58080, Note_on_c, 1, 74, 127
1, 58080, Note_on_c, 1, 45, 127
1, 58176, Note_off_c, 1, 77, 0
1, 58176, Note_off_c, 1, 74, 0
1, 58176, Note_off_c, 1, 45, 0
1, 58200, Note_on_c, 1, 76, 127
1, 58200, Note_on_c, 1, 72, 127
1, 58200, Note_on_c, 1, 57, 127
1, 58248, Note_off_c, 1, 76, 0
1, 58248, Note_off_c, 1, 72, 0
1, 58260, Note_on_c, 1, 74, 127
1, 58260, Note_on_c, 1, 71, 127
1, 58296, Note_off_c, 1, 57, 0
1, 58308, Note_off_c, 1, 74, 0
1, 58308, Note_off_c, 1, 71, 0
1, 58320, Note_on_c, 1, 76, 127
1, 58320, Note_on_c, 1, 72, 127
1, 58320, Note_on_c, 1, 45, 127
1, 58368, Note_off_c, 1, 76, 0
1, 58380, Note_on_c, 1, 81, 127
1, 58428, Note_off_c, 1, 81, 0
1, 58440, Note_on_c, 1, 80, 127
1, 58488, Note_off_c, 1, 80, 0
1, 58512, Note_off_c, 1, 72, 0
1, 58512, Note_off_c, 1, 45, 0
1, 58560, Note_on_c, 1, 84, 127
1, 58608, Note_off_c, 1, 84, 0
1, 58620, Note_on_c, 1, 81, 127
1, 58668, Note_off_c, 1, 81, 0
1, 58680, Note_on_c, 1, 80, 127
1, 58728, Note_off_c, 1, 80, 0
1, 58740, Note_on_c, 1, 81, 127
1, 58788, Note_off_c, 1, 81, 0
1, 58800, Note_on_c, 1, 76, 127
1, 58848, Note_off_c, 1, 76, 0
1, 58860, Note_on_c, 1, 81, 127
1, 58908, Note_off_c, 1, 81, 0
1, 58920, Note_on_c, 1, 72, 127
1, 58968, Note_off_c, 1, 72, 0
1, 58980, Note_on_c, 1, 76, 127
1, 59028, Note_off_c, 1, 76, 0
1, 59040, Note_on_c, 1, 69, 127
1, 59136, Note_off_c, 1, 69, 0
1, 59160, Note_on_c, 1, 72, 127
1, 59160, Note_on_c, 1, 64, 127
1, 59160, Note_on_c, 1, 57, 127
1, 59256, Note_off_c, 1, 72, 0
1, 59256, Note_off_c, 1, 64, 0
1, 59256, Note_off_c, 1, 57, 0
1, 59280, Note_on_c, 1, 69, 127
1, 59280, Note_on_c, 1, 60, 127
1, 59280, Note_on_c, 1, 45, 127
1, 59376, Note_off_c, 1, 69, 0
1, 59376, Note_off_c, 1, 60, 0
1, 59376, Note_off_c, 1, 45, 0
1, 59400, Note_on_c, 1, 72, 127
1, 59400, Note_on_c, 1, 64, 127
1, 59400, Note_on_c, 1, 57, 127
1, 59496, Note_off_c, 1, 72, 0
1, 59496, Note_off_c, 1, 64, 0
1, 59496, Note_off_c, 1, 57, 0
1, 59520, Note_on_c, 1, 74, 127
1, 59520, Note_on_c, 1, 65, 127
1, 59520, Note_on_c, 1, 45, 127
1, 59616, Note_off_c, 1, 74, 0
1, 59616, Note_off_c, 1, 65, 0
1, 59616, Note_off_c, 1, 45, 0
1, 59640, Note_on_c, 1, 72, 127
1, 59640, Note_on_c, 1, 64, 127
1, 59640, Note_on_c, 1, 57, 127
1, 59688, Note_off_c, 1, 72, 0
1, 59688, Note_off_c, 1, 64, 0
1, 59700, Note_on_c, 1, 71, 127
1, 59700, Note_on_c, 1, 62, 127
1, 59736, Note_off_c, 1, 57, 0
1, 59748, Note_off_c, 1, 71, 0
1, 59748, Note_off_c, 1, 62, 0
1, 59760, Note_on_c, 1, 72, 127
1, 59760, Note_on_c, 1, 64, 127
1, 59760, Note_on_c, 1, 45, 127
1, 59808, Note_off_c, 1, 64, 0
1, 59820, Note_on_c, 1, 52, 127
1, 59856, Note_off_c, 1, 45, 0
1, 59868, Note_off_c, 1, 52, 0
1, 59880, Note_on_c, 1, 54, 127
1, 59928, Note_off_c, 1, 54, 0
1, 59940, Note_on_c, 1, 56, 127
1, 59952, Note_off_c, 1, 72, 0
1, 59988, Note_off_c, 1, 56, 0
1, 60000, Note_on_c, 1, 57, 127
1, 60000, Note_on_c, 1, 48, 127
1, 60048, Note_off_c, 1, 57, 0
1, 60060, Note_on_c, 1, 56, 127
1, 60096, Note_off_c, 1, 48, 0
1, 60108, Note_off_c, 1, 56, 0
1, 60120, Note_on_c, 1, 57, 127
1, 60168, Note_off_c, 1, 57, 0
1, 60180, Note_on_c, 1, 60, 127
1, 60228, Note_off_c, 1, 60, 0
1, 60240, Note_on_c, 1, 59, 127
1, 60240, Note_on_c, 1, 50, 127
1, 60288, Note_off_c, 1, 59, 0
1, 60300, Note_on_c, 1, 57, 127
1, 60336, Note_off_c, 1, 50, 0
1, 60348, Note_off_c, 1, 57, 0
1, 60360, Note_on_c, 1, 56, 127
1, 60408, Note_off_c, 1, 56, 0
1, 60420, Note_on_c, 1, 54, 127
1, 60468, Note_off_c, 1, 54, 0
1, 60480, Note_on_c, 1, 52, 127
1, 60480, Note_on_c, 1, 44, 127
1, 60528, Note_off_c, 1, 52, 0
1, 60540, Note_on_c, 1, 54, 127
1, 60576, Note_off_c, 1, 44, 0
1, 60588, Note_off_c, 1, 54, 0
1, 60600, Note_on_c, 1, 56, 127
1, 60648, Note_off_c, 1, 56, 0
1, 60660, Note_on_c, 1, 57, 127
1, 60708, Note_off_c, 1, 57, 0
1, 60720, Note_on_c, 1, 59, 127
1, 60720, Note_on_c, 1, 40, 127
1, 60768, Note_off_c, 1, 59, 0
1, 60780, Note_on_c, 1, 62, 127
1, 60816, Note_off_c, 1, 40, 0
1, 60828, Note_off_c, 1, 62, 0
1, 60840, Note_on_c, 1, 60, 127
1, 60888, Note_off_c, 1, 60, 0
1, 60900, Note_on_c, 1, 59, 127
1, 60948, Note_off_c, 1, 59, 0
1, 60960, Note_on_c, 1, 64, 127
1, 60960, Note_on_c, 1, 43, 127
1, 61008, Note_off_c, 1, 64, 0
1, 61020, Note_on_c, 1, 62, 127
1, 61068, Note_off_c, 1, 62, 0
1, 61080, Note_on_c, 1, 61, 127
1, 61128, Note_off_c, 1, 61, 0
1, 61140, Note_on_c, 1, 59, 127
1, 61188, Note_off_c, 1, 59, 0
1, 61260, Note_on_c, 1, 69, 127
1, 61308, Note_off_c, 1, 69, 0
1, 61320, Note_on_c, 1, 71, 127
1, 61368, Note_off_c, 1, 71, 0
1, 61380, Note_on_c, 1, 73, 127
1, 61392, Note_off_c, 1, 43, 0
1, 61428, Note_off_c, 1, 73, 0
1, 61440, Note_on_c, 1, 74, 127
1, 61440, Note_on_c, 1, 57, 127
1, 61440, Note_on_c, 1, 41, 127
1, 61488, Note_off_c, 1, 74, 0
1, 61500, Note_on_c, 1, 73, 127
1, 61536, Note_off_c, 1, 57, 0
1, 61536, Note_off_c, 1, 41, 0
1, 61548, Note_off_c, 1, 73, 0
1, 61560, Note_on_c, 1, 74, 127
1, 61560, Note_on_c, 1, 62, 127
1, 61608, Note_off_c, 1, 74, 0
1, 61620, Note_on_c, 1, 77, 127
1, 61656, Note_off_c, 1, 62, 0
1, 61668, Note_off_c, 1, 77, 0
1, 61680, Note_on_c, 1, 76, 127
1, 61680, Note_on_c, 1, 55, 127
1, 61680, Note_on_c, 1, 43, 127
1, 61728, Note_off_c, 1, 76, 0
1, 61740, Note_on_c, 1, 74, 127
1, 61776, Note_off_c, 1, 55, 0
1, 61776, Note_off_c, 1, 43, 0
1, 61788, Note_off_c, 1, 74, 0
1, 61800, Note_on_c, 1, 73, 127
1, 61800, Note_on_c, 1, 67, 127
1, 61848, Note_off_c, 1, 73, 0
1, 61860, Note_on_c, 1, 71, 127
1, 61908, Note_off_c, 1, 71, 0
1, 61920, Note_on_c, 1, 69, 127
1, 61920, Note_on_c, 1, 45, 127
1, 61968, Note_off_c, 1, 67, 0
1, 61968, Note_off_c, 1, 69, 0
1, 61980, Note_on_c, 1, 65, 127
1, 62016, Note_off_c, 1, 45, 0
1, 62028, Note_off_c, 1, 65, 0
1, 62040, Note_on_c, 1, 73, 127
1, 62040, Note_on_c, 1, 64, 127
1, 62040, Note_on_c, 1, 57, 127
1, 62088, Note_off_c, 1, 73, 0
1, 62088, Note_off_c, 1, 64, 0
1, 62100, Note_on_c, 1, 74, 127
1, 62100, Note_on_c, 1, 62, 127
1, 62136, Note_off_c, 1, 57, 0
1, 62148, Note_off_c, 1, 74, 0
1, 62148, Note_off_c, 1, 62, 0
1, 62160, Note_on_c, 1, 76, 127
1, 62160, Note_on_c, 1, 61, 127
1, 62160, Note_on_c, 1, 45, 127
1, 62208, Note_off_c, 1, 76, 0
1, 62208, Note_off_c, 1, 61, 0
1, 62220, Note_on_c, 1, 79, 127
1, 62220, Note_on_c, 1, 59, 127
1, 62256, Note_off_c, 1, 45, 0
1, 62268, Note_off_c, 1, 79, 0
1, 62268, Note_off_c, 1, 59, 0
1, 62280, Note_on_c, 1, 77, 127
1, 62280, Note_on_c, 1, 57, 127
1, 62328, Note_off_c, 1, 77, 0
1, 62340, Note_on_c, 1, 76, 127
1, 62340, Note_on_c, 1, 55, 127
1, 62376, Note_off_c, 1, 57, 0
1, 62388, Note_off_c, 1, 76, 0
1, 62388, Note_off_c, 1, 55, 0
1, 62400, Note_on_c, 1, 81, 127
1, 62400, Note_on_c, 1, 53, 127
1, 62400, Note_on_c, 1, 45, 127
1, 62448, Note_off_c, 1, 81, 0
1, 62448, Note_off_c, 1, 53, 0
1, 62460, Note_on_c, 1, 79, 127
1, 62460, Note_on_c, 1, 52, 127
1, 62496, Note_off_c, 1, 45, 0
1, 62508, Note_off_c, 1, 79, 0
1, 62508, Note_off_c, 1, 52, 0
1, 62520, Note_on_c, 1, 77, 127
1, 62520, Note_on_c, 1, 50, 127
1, 62520, Note_on_c, 1, 57, 127
1, 62568, Note_off_c, 1, 77, 0
1, 62568, Note_off_c, 1, 50, 0
1, 62580, Note_on_c, 1, 76, 127
1, 62580, Note_on_c, 1, 49, 127
1, 62616, Note_off_c, 1, 57, 0
1, 62628, Note_off_c, 1, 76, 0
1, 62628, Note_off_c, 1, 49, 0
1, 62640, Note_on_c, 1, 77, 127
1, 62640, Note_on_c, 1, 50, 127
1, 62640, Note_on_c, 1, 38, 127
1, 62688, Note_off_c, 1, 77, 0
1, 62700, Note_on_c, 1, 74, 127
1, 62736, Note_off_c, 1, 38, 0
1, 62748, Note_off_c, 1, 74, 0
1, 62760, Note_on_c, 1, 73, 127
1, 62808, Note_off_c, 1, 73, 0
1, 62820, Note_on_c, 1, 71, 127
1, 62868, Note_off_c, 1, 71, 0
1, 62880, Note_on_c, 1, 69, 127
1, 62928, Note_off_c, 1, 69, 0
1, 62940, Note_on_c, 1, 67, 127
1, 62952, Note_off_c, 1, 50, 0
1, 62988, Note_off_c, 1, 67, 0
1, 63000, Note_on_c, 1, 65, 127
1, 63000, Note_on_c, 1, 62, 127
1, 63000, Note_on_c, 1, 48, 127
1, 63048, Note_off_c, 1, 65, 0
1, 63060, Note_on_c, 1, 64, 127
1, 63096, Note_off_c, 1, 62, 0
1, 63096, Note_off_c, 1, 48, 0
1, 63108, Note_off_c, 1, 64, 0
1, 63120, Note_on_c, 1, 62, 127
1, 63120, Note_on_c, 1, 67, 127
1, 63120, Note_on_c, 1, 47, 127
1, 63168, Note_off_c, 1, 67, 0
1, 63180, Note_on_c, 1, 66, 127
1, 63216, Note_off_c, 1, 47, 0
1, 63228, Note_off_c, 1, 66, 0
1, 63240, Note_on_c, 1, 45, 127
1, 63300, Note_on_c, 1, 69, 127
1, 63336, Note_off_c, 1, 45, 0
1, 63348, Note_off_c, 1, 69, 0
1, 63360, Note_on_c, 1, 71, 127
1, 63360, Note_on_c, 1, 43, 127
1, 63408, Note_off_c, 1, 71, 0
1, 63456, Note_off_c, 1, 43, 0
1, 63480, Note_on_c, 1, 55, 127
1, 63540, Note_on_c, 1, 64, 127
1, 63552, Note_off_c, 1, 62, 0
1, 63588, Note_off_c, 1, 64, 0
1, 63660, Note_on_c, 1, 60, 127
1, 63672, Note_off_c, 1, 55, 0
1, 63708, Note_off_c, 1, 60, 0
1, 63720, Note_on_c, 1, 67, 127
1, 63720, Note_on_c, 1, 59, 127
1, 63720, Note_on_c, 1, 53, 127
1, 63768, Note_off_c, 1, 59, 0
1, 63780, Note_on_c, 1, 57, 127
1, 63816, Note_off_c, 1, 67, 0
1, 63816, Note_off_c, 1, 53, 0
1, 63828, Note_off_c, 1, 57, 0
1, 63840, Note_on_c, 1, 72, 127
1, 63840, Note_on_c, 1, 55, 127
1, 63840, Note_on_c, 1, 52, 127
1, 63888, Note_off_c, 1, 72, 0
1, 63900, Note_on_c, 1, 71, 127
1, 63936, Note_off_c, 1, 52, 0
1, 63948, Note_off_c, 1, 71, 0
1, 63960, Note_on_c, 1, 50, 127
1, 64020, Note_on_c, 1, 74, 127
1, 64056, Note_off_c, 1, 50, 0
1, 64068, Note_off_c, 1, 74, 0
1, 64080, Note_on_c, 1, 76, 127
1, 64080, Note_on_c, 1, 48, 127
1, 64128, Note_off_c, 1, 76, 0
1, 64176, Note_off_c, 1, 48, 0
1, 64272, Note_off_c, 1, 55, 0
1, 64380, Note_on_c, 1, 69, 127
1, 64428, Note_off_c, 1, 69, 0
1, 64440, Note_on_c, 1, 68, 127
1, 64440, Note_on_c, 1, 64, 127
1, 64440, Note_on_c, 1, 50, 127
1, 64488, Note_off_c, 1, 68, 0
1, 64500, Note_on_c, 1, 66, 127
1, 64536, Note_off_c, 1, 64, 0
1, 64536, Note_off_c, 1, 50, 0
1, 64548, Note_off_c, 1, 66, 0
1, 64560, Note_on_c, 1, 64, 127
1, 64560, Note_on_c, 1, 69, 127
1, 64560, Note_on_c, 1, 48, 127
1, 64608, Note_off_c, 1, 69, 0
1, 64620, Note_on_c, 1, 68, 127
1, 64656, Note_off_c, 1, 48, 0
1, 64668, Note_off_c, 1, 68, 0
1, 64680, Note_on_c, 1, 47, 127
1, 64740, Note_on_c, 1, 71, 127
1, 64776, Note_off_c, 1, 47, 0
1, 64788, Note_off_c, 1, 71, 0
1, 64800, Note_on_c, 1, 72, 127
1, 64800, Note_on_c, 1, 45, 127
1, 64848, Note_off_c, 1, 72, 0
1, 64896, Note_off_c, 1, 45, 0
1, 64920, Note_on_c, 1, 67, 127
1, 64920, Note_on_c, 1, 57, 127
1, 64968, Note_off_c, 1, 67, 0
1, 64980, Note_on_c, 1, 65, 127
1, 64992, Note_off_c, 1, 64, 0
1, 65028, Note_off_c, 1, 65, 0
1, 65100, Note_on_c, 1, 62, 127
1, 65112, Note_off_c, 1, 57, 0
1, 65148, Note_off_c, 1, 62, 0
1, 65160, Note_on_c, 1, 69, 127
1, 65160, Note_on_c, 1, 60, 127
1, 65160, Note_on_c, 1, 55, 127
1, 65208, Note_off_c, 1, 60, 0
1, 65220, Note_on_c, 1, 59, 127
1, 65256, Note_off_c, 1, 69, 0
1, 65256, Note_off_c, 1, 55, 0
1, 65268, Note_off_c, 1, 59, 0
1, 65280, Note_on_c, 1, 75, 127
1, 65280, Note_on_c, 1, 57, 127
1, 65280, Note_on_c, 1, 54, 127
1, 65328, Note_off_c, 1, 75, 0
1, 65340, Note_on_c, 1, 73, 127
1, 65376, Note_off_c, 1, 54, 0
1, 65388, Note_off_c, 1, 73, 0
1, 65400, Note_on_c, 1, 52, 127
1, 65460, Note_on_c, 1, 76, 127
1, 65496, Note_off_c, 1, 52, 0
1, 65508, Note_off_c, 1, 76, 0
1, 65520, Note_on_c, 1, 78, 127
1, 65520, Note_on_c, 1, 51, 127
1, 65568, Note_off_c, 1, 57, 0
1, 65580, Note_on_c, 1, 66, 127
1, 65616, Note_off_c, 1, 78, 0
1, 65616, Note_off_c, 1, 51, 0
1, 65628, Note_off_c, 1, 66, 0
1, 65640, Note_on_c, 1, 71, 127
1, 65640, Note_on_c, 1, 57, 127
1, 65688, Note_off_c, 1, 57, 0
1, 65700, Note_on_c, 1, 66, 127
1, 65748, Note_off_c, 1, 66, 0
1, 65760, Note_on_c, 1, 55, 127
1, 65760, Note_on_c, 1, 52, 127
1, 65808, Note_off_c, 1, 55, 0
1, 65820, Note_on_c, 1, 64, 127
1, 65856, Note_off_c, 1, 71, 0
1, 65856, Note_off_c, 1, 52, 0
1, 65868, Note_off_c, 1, 64, 0
1, 65880, Note_on_c, 1, 76, 127
1, 65880, Note_on_c, 1, 55, 127
1, 65928, Note_off_c, 1, 55, 0
1, 65940, Note_on_c, 1, 64, 127
1, 65988, Note_off_c, 1, 64, 0
1, 66000, Note_on_c, 1, 54, 127
1, 66000, Note_on_c, 1, 48, 127
1, 66048, Note_off_c, 1, 54, 0
1, 66072, Note_off_c, 1, 76, 0
1, 66096, Note_off_c, 1, 48, 0
1, 66120, Note_on_c, 1, 69, 127
1, 66120, Note_on_c, 1, 52, 127
1, 66168, Note_off_c, 1, 52, 0
1, 66180, Note_on_c, 1, 64, 127
1, 66216, Note_off_c, 1, 69, 0
1, 66228, Note_off_c, 1, 64, 0
1, 66240, Note_on_c, 1, 71, 127
1, 66240, Note_on_c, 1, 63, 127
1, 66240, Note_on_c, 1, 47, 127
1, 66288, Note_off_c, 1, 63, 0
1, 66300, Note_on_c, 1, 59, 127
1, 66336, Note_off_c, 1, 47, 0
1, 66348, Note_off_c, 1, 59, 0
1, 66360, Note_on_c, 1, 61, 127
1, 66408, Note_off_c, 1, 61, 0
1, 66480, Note_on_c, 1, 64, 127
1, 66480, Note_on_c, 1, 48, 127
1, 66528, Note_off_c, 1, 64, 0
1, 66576, Note_off_c, 1, 48, 0
1, 66660, Note_on_c, 1, 67, 127
1, 66708, Note_off_c, 1, 67, 0
1, 66720, Note_on_c, 1, 66, 127
1, 66720, Note_on_c, 1, 49, 127
1, 66768, Note_off_c, 1, 66, 0
1, 66816, Note_off_c, 1, 49, 0
1, 66960, Note_on_c, 1, 50, 127
1, 67056, Note_off_c, 1, 50, 0
1, 67080, Note_on_c, 1, 62, 127
1, 67128, Note_off_c, 1, 62, 0
1, 67200, Note_on_c, 1, 51, 127
1, 67260, Note_on_c, 1, 69, 127
1, 67296, Note_off_c, 1, 51, 0
1, 67308, Note_off_c, 1, 69, 0
1, 67680, Note_on_c, 1, 52, 127
1, 67728, Note_off_c, 1, 71, 0
1, 67776, Note_off_c, 1, 52, 0
1, 67920, Note_on_c, 1, 72, 127
1, 67920, Note_on_c, 1, 40, 127
1, 67968, Note_off_c, 1, 72, 0
1, 68016, Note_off_c, 1, 40, 0
1, 68100, Note_on_c, 1, 76, 127
1, 68148, Note_off_c, 1, 76, 0
1, 68160, Note_on_c, 1, 74, 127
1, 68160, Note_on_c, 1, 43, 127
1, 68208, Note_off_c, 1, 74, 0
1, 68256, Note_off_c, 1, 43, 0
1, 68700, Note_on_c, 1, 77, 127
1, 68748, Note_off_c, 1, 77, 0
1, 68880, Note_on_c, 1, 79, 127
1, 68928, Note_off_c, 1, 79, 0
1, 69300, Note_on_c, 1, 68, 127
1, 69348, Note_off_c, 1, 68, 0
1, 69360, Note_on_c, 1, 53, 127
1, 69456, Note_off_c, 1, 53, 0
1, 69600, Note_on_c, 1, 54, 127
1, 69696, Note_off_c, 1, 54, 0
1, 69840, Note_on_c, 1, 55, 127
1, 69936, Note_off_c, 1, 55, 0
1, 70080, Note_on_c, 1, 56, 127
1, 70176, Note_off_c, 1, 56, 0
1, 70560, Note_on_c, 1, 57, 127
1, 70656, Note_off_c, 1, 57, 0
1, 70680, Note_on_c, 1, 66, 127
1, 70680, Note_on_c, 1, 69, 127
1, 70728, Note_off_c, 1, 66, 0
1, 70728, Note_off_c, 1, 69, 0
1, 70740, Note_on_c, 1, 68, 127
1, 70740, Note_on_c, 1, 71, 127
1, 70788, Note_off_c, 1, 68, 0
1, 70788, Note_off_c, 1, 71, 0
1, 70800, Note_on_c, 1, 69, 127
1, 70800, Note_on_c, 1, 72, 127
1, 70800, Note_on_c, 1, 45, 127
1, 70848, Note_off_c, 1, 69, 0
1, 70848, Note_off_c, 1, 72, 0
1, 70860, Note_on_c, 1, 68, 127
1, 70860, Note_on_c, 1, 71, 127
1, 70896, Note_off_c, 1, 45, 0
1, 70908, Note_off_c, 1, 68, 0
1, 70908, Note_off_c, 1, 71, 0
1, 70920, Note_on_c, 1, 69, 127
1, 70920, Note_on_c, 1, 72, 127
1, 70968, Note_off_c, 1, 69, 0
1, 70968, Note_off_c, 1, 72, 0
1, 70980, Note_on_c, 1, 72, 127
1, 70980, Note_on_c, 1, 76, 127
1, 71028, Note_off_c, 1, 72, 0
1, 71028, Note_off_c, 1, 76, 0
1, 71040, Note_on_c, 1, 71, 127
1, 71040, Note_on_c, 1, 74, 127
1, 71040, Note_on_c, 1, 57, 127
1, 71088, Note_off_c, 1, 71, 0
1, 71088, Note_off_c, 1, 74, 0
1, 71100, Note_on_c, 1, 69, 127
1, 71100, Note_on_c, 1, 72, 127
1, 71148, Note_off_c, 1, 69, 0
1, 71148, Note_off_c, 1, 72, 0
1, 71160, Note_on_c, 1, 68, 127
1, 71208, Note_off_c, 1, 68, 0
1, 71220, Note_on_c, 1, 66, 127
1, 71232, Note_off_c, 1, 57, 0
1, 71268, Note_off_c, 1, 66, 0
1, 71280, Note_on_c, 1, 64, 127
1, 71280, Note_on_c, 1, 71, 127
1, 71280, Note_on_c, 1, 57, 127
1, 71328, Note_off_c, 1, 64, 0
1, 71340, Note_on_c, 1, 66, 127
1, 71376, Note_off_c, 1, 71, 0
1, 71388, Note_off_c, 1, 66, 0
1, 71400, Note_on_c, 1, 68, 127
1, 71448, Note_off_c, 1, 68, 0
1, 71460, Note_on_c, 1, 69, 127
1, 71472, Note_off_c, 1, 57, 0
1, 71508, Note_off_c, 1, 69, 0
1, 71520, Note_on_c, 1, 71, 127
1, 71520, Note_on_c, 1, 56, 127
1, 71568, Note_off_c, 1, 71, 0
1, 71580, Note_on_c, 1, 74, 127
1, 71616, Note_off_c, 1, 56, 0
1, 71628, Note_off_c, 1, 74, 0
1, 71640, Note_on_c, 1, 72, 127
1, 71640, Note_on_c, 1, 52, 127
1, 71688, Note_off_c, 1, 72, 0
1, 71700, Note_on_c, 1, 71, 127
1, 71736, Note_off_c, 1, 52, 0
1, 71748, Note_off_c, 1, 71, 0
1, 71760, Note_on_c, 1, 76, 127
1, 71760, Note_on_c, 1, 54, 127
1, 71808, Note_off_c, 1, 76, 0
1, 71820, Note_on_c, 1, 74, 127
1, 71856, Note_off_c, 1, 54, 0
1, 71868, Note_off_c, 1, 74, 0
1, 71880, Note_on_c, 1, 72, 127
1, 71880, Note_on_c, 1, 56, 127
1, 71928, Note_off_c, 1, 72, 0
1, 71940, Note_on_c, 1, 71, 127
1, 71976, Note_off_c, 1, 56, 0
1, 71988, Note_off_c, 1, 71, 0
1, 72000, Note_on_c, 1, 72, 127
1, 72000, Note_on_c, 1, 57, 127
1, 72060, Note_on_c, 1, 69, 127
1, 72108, Note_off_c, 1, 69, 0
1, 72120, Note_on_c, 1, 68, 127
1, 72168, Note_off_c, 1, 68, 0
1, 72192, Note_off_c, 1, 57, 0
1, 72360, Note_on_c, 1, 47, 127
1, 72456, Note_off_c, 1, 47, 0
1, 72480, Note_on_c, 1, 64, 127
1, 72480, Note_on_c, 1, 48, 127
1, 72528, Note_off_c, 1, 64, 0
1, 72576, Note_off_c, 1, 48, 0
1, 72600, Note_on_c, 1, 60, 127
1, 72648, Note_off_c, 1, 60, 0
1, 72720, Note_on_c, 1, 53, 127
1, 72768, Note_off_c, 1, 72, 0
1, 72780, Note_on_c, 1, 71, 127
1, 72816, Note_off_c, 1, 53, 0
1, 72828, Note_off_c, 1, 71, 0
1, 72840, Note_on_c, 1, 69, 127
1, 72888, Note_off_c, 1, 69, 0
1, 72900, Note_on_c, 1, 71, 127
1, 72948, Note_off_c, 1, 71, 0
1, 72960, Note_on_c, 1, 72, 127
1, 72960, Note_on_c, 1, 41, 127
1, 73008, Note_off_c, 1, 72, 0
1, 73020, Note_on_c, 1, 76, 127
1, 73056, Note_off_c, 1, 41, 0
1, 73068, Note_off_c, 1, 76, 0
1, 73080, Note_on_c, 1, 74, 127
1, 73128, Note_off_c, 1, 74, 0
1, 73140, Note_on_c, 1, 72, 127
1, 73188, Note_off_c, 1, 72, 0
1, 73200, Note_on_c, 1, 77, 127
1, 73200, Note_on_c, 1, 45, 127
1, 73248, Note_off_c, 1, 77, 0
1, 73260, Note_on_c, 1, 76, 127
1, 73296, Note_off_c, 1, 45, 0
1, 73308, Note_off_c, 1, 76, 0
1, 73320, Note_on_c, 1, 74, 127
1, 73368, Note_off_c, 1, 74, 0
1, 73380, Note_on_c, 1, 72, 127
1, 73428, Note_off_c, 1, 72, 0
1, 73440, Note_on_c, 1, 74, 127
1, 73440, Note_on_c, 1, 47, 127
1, 73500, Note_on_c, 1, 67, 127
1, 73548, Note_off_c, 1, 67, 0
1, 73560, Note_on_c, 1, 66, 127
1, 73608, Note_off_c, 1, 66, 0
1, 73632, Note_off_c, 1, 47, 0
1, 73680, Note_on_c, 1, 71, 127
1, 73728, Note_off_c, 1, 71, 0
1, 73800, Note_on_c, 1, 45, 127
1, 73896, Note_off_c, 1, 45, 0
1, 73920, Note_on_c, 1, 62, 127
1, 73968, Note_off_c, 1, 62, 0
1, 74040, Note_on_c, 1, 59, 127
1, 74040, Note_on_c, 1, 43, 127
1, 74088, Note_off_c, 1, 59, 0
1, 74136, Note_off_c, 1, 43, 0
1, 74160, Note_on_c, 1, 55, 127
1, 74160, Note_on_c, 1, 52, 127
1, 74208, Note_off_c, 1, 74, 0
1, 74220, Note_on_c, 1, 72, 127
1, 74256, Note_off_c, 1, 55, 0
1, 74256, Note_off_c, 1, 52, 0
1, 74268, Note_off_c, 1, 72, 0
1, 74280, Note_on_c, 1, 71, 127
1, 74328, Note_off_c, 1, 71, 0
1, 74340, Note_on_c, 1, 72, 127
1, 74388, Note_off_c, 1, 72, 0
1, 74400, Note_on_c, 1, 74, 127
1, 74400, Note_on_c, 1, 53, 127
1, 74448, Note_off_c, 1, 74, 0
1, 74460, Note_on_c, 1, 77, 127
1, 74496, Note_off_c, 1, 53, 0
1, 74508, Note_off_c, 1, 77, 0
1, 74520, Note_on_c, 1, 76, 127
1, 74568, Note_off_c, 1, 76, 0
1, 74580, Note_on_c, 1, 74, 127
1, 74628, Note_off_c, 1, 74, 0
1, 74640, Note_on_c, 1, 79, 127
1, 74640, Note_on_c, 1, 47, 127
1, 74688, Note_off_c, 1, 79, 0
1, 74700, Note_on_c, 1, 77, 127
1, 74736, Note_off_c, 1, 47, 0
1, 74748, Note_off_c, 1, 77, 0
1, 74760, Note_on_c, 1, 76, 127
1, 74808, Note_off_c, 1, 76, 0
1, 74820, Note_on_c, 1, 74, 127
1, 74868, Note_off_c, 1, 74, 0
1, 74880, Note_on_c, 1, 76, 127
1, 74880, Note_on_c, 1, 48, 127
1, 74928, Note_off_c, 1, 76, 0
1, 74940, Note_on_c, 1, 72, 127
1, 74988, Note_off_c, 1, 72, 0
1, 75000, Note_on_c, 1, 71, 127
1, 75048, Note_off_c, 1, 71, 0
1, 75072, Note_off_c, 1, 48, 0
1, 75120, Note_on_c, 1, 76, 127
1, 75168, Note_off_c, 1, 76, 0
1, 75180, Note_on_c, 1, 72, 127
1, 75228, Note_off_c, 1, 72, 0
1, 75240, Note_on_c, 1, 71, 127
1, 75288, Note_off_c, 1, 71, 0
1, 75300, Note_on_c, 1, 72, 127
1, 75348, Note_off_c, 1, 72, 0
1, 75360, Note_on_c, 1, 67, 127
1, 75408, Note_off_c, 1, 67, 0
1, 75420, Note_on_c, 1, 72, 127
1, 75468, Note_off_c, 1, 72, 0
1, 75480, Note_on_c, 1, 64, 127
1, 75528, Note_off_c, 1, 64, 0
1, 75540, Note_on_c, 1, 67, 127
1, 75588, Note_off_c, 1, 67, 0
1, 75600, Note_on_c, 1, 60, 127
1, 75696, Note_off_c, 1, 60, 0
1, 75720, Note_on_c, 1, 79, 127
1, 75720, Note_on_c, 1, 64, 127
1, 75720, Note_on_c, 1, 60, 127
1, 75816, Note_off_c, 1, 79, 0
1, 75816, Note_off_c, 1, 64, 0
1, 75816, Note_off_c, 1, 60, 0
1, 75840, Note_on_c, 1, 76, 127
1, 75840, Note_on_c, 1, 60, 127
1, 75840, Note_on_c, 1, 48, 127
1, 75936, Note_off_c, 1, 76, 0
1, 75936, Note_off_c, 1, 60, 0
1, 75936, Note_off_c, 1, 48, 0
1, 75960, Note_on_c, 1, 79, 127
1, 75960, Note_on_c, 1, 64, 127
1, 75960, Note_on_c, 1, 60, 127
1, 76056, Note_off_c, 1, 79, 0
1, 76056, Note_off_c, 1, 64, 0
1, 76056, Note_off_c, 1, 60, 0
1, 76080, Note_on_c, 1, 81, 127
1, 76080, Note_on_c, 1, 65, 127
1, 76080, Note_on_c, 1, 48, 127
1, 76176, Note_off_c, 1, 81, 0
1, 76176, Note_off_c, 1, 65, 0
1, 76176, Note_off_c, 1, 48, 0
1, 76200, Note_on_c, 1, 79, 127
1, 76200, Note_on_c, 1, 64, 127
1, 76200, Note_on_c, 1, 60, 127
1, 76248, Note_off_c, 1, 79, 0
1, 76248, Note_off_c, 1, 64, 0
1, 76260, Note_on_c, 1, 77, 127
1, 76260, Note_on_c, 1, 62, 127
1, 76296, Note_off_c, 1, 60, 0
1, 76308, Note_off_c, 1, 77, 0
1, 76308, Note_off_c, 1, 62, 0
1, 76320, Note_on_c, 1, 79, 127
1, 76320, Note_on_c, 1, 64, 127
1, 76320, Note_on_c, 1, 48, 127
1, 76368, Note_off_c, 1, 64, 0
1, 76380, Note_on_c, 1, 60, 127
1, 76428, Note_off_c, 1, 60, 0
1, 76440, Note_on_c, 1, 59, 127
1, 76488, Note_off_c, 1, 59, 0
1, 76512, Note_off_c, 1, 79, 0
1, 76512, Note_off_c, 1, 48, 0
1, 76560, Note_on_c, 1, 64, 127
1, 76608, Note_off_c, 1, 64, 0
1, 76620, Note_on_c, 1, 60, 127
1, 76668, Note_off_c, 1, 60, 0
1, 76680, Note_on_c, 1, 59, 127
1, 76728, Note_off_c, 1, 59, 0
1, 76740, Note_on_c, 1, 60, 127
1, 76788, Note_off_c, 1, 60, 0
1, 76800, Note_on_c, 1, 55, 127
1, 76848, Note_off_c, 1, 55, 0
1, 76860, Note_on_c, 1, 60, 127
1, 76908, Note_off_c, 1, 60, 0
1, 76920, Note_on_c, 1, 52, 127
1, 76968, Note_off_c, 1, 52, 0
1, 76980, Note_on_c, 1, 55, 127
1, 77028, Note_off_c, 1, 55, 0
1, 77040, Note_on_c, 1, 48, 127
1, 77136, Note_off_c, 1, 48, 0
1, 77160, Note_on_c, 1, 76, 127
1, 77160, Note_on_c, 1, 67, 127
1, 77160, Note_on_c, 1, 48, 127
1, 77256, Note_off_c, 1, 76, 0
1, 77256, Note_off_c, 1, 67, 0
1, 77256, Note_off_c, 1, 48, 0
1, 77280, Note_on_c, 1, 72, 127
1, 77280, Note_on_c, 1, 64, 127
1, 77280, Note_on_c, 1, 36, 127
1, 77376, Note_off_c, 1, 72, 0
1, 77376, Note_off_c, 1, 64, 0
1, 77376, Note_off_c, 1, 36, 0
1, 77400, Note_on_c, 1, 76, 127
1, 77400, Note_on_c, 1, 67, 127
1, 77400, Note_on_c, 1, 48, 127
1, 77496, Note_off_c, 1, 76, 0
1, 77496, Note_off_c, 1, 67, 0
1, 77496, Note_off_c, 1, 48, 0
1, 77520, Note_on_c, 1, 77, 127
1, 77520, Note_on_c, 1, 69, 127
1, 77520, Note_on_c, 1, 36, 127
1, 77616, Note_off_c, 1, 77, 0
1, 77616, Note_off_c, 1, 69, 0
1, 77616, Note_off_c, 1, 36, 0
1, 77640, Note_on_c, 1, 76, 127
1, 77640, Note_on_c, 1, 67, 127
1, 77640, Note_on_c, 1, 48, 127
1, 77688, Note_off_c, 1, 76, 0
1, 77688, Note_off_c, 1, 67, 0
1, 77700, Note_on_c, 1, 74, 127
1, 77700, Note_on_c, 1, 65, 127
1, 77736, Note_off_c, 1, 48, 0
1, 77748, Note_off_c, 1, 74, 0
1, 77748, Note_off_c, 1, 65, 0
1, 77760, Note_on_c, 1, 76, 127
1, 77760, Note_on_c, 1, 67, 127
1, 77760, Note_on_c, 1, 36, 127
1, 77808, Note_off_c, 1, 67, 0
1, 77820, Note_on_c, 1, 64, 127
1, 77856, Note_off_c, 1, 76, 0
1, 77868, Note_off_c, 1, 64, 0
1, 77880, Note_on_c, 1, 79, 127
1, 77880, Note_on_c, 1, 60, 127
1, 77928, Note_off_c, 1, 60, 0
1, 77952, Note_off_c, 1, 36, 0
1, 77976, Note_off_c, 1, 79, 0
1, 78000, Note_on_c, 1, 72, 127
1, 78000, Note_on_c, 1, 69, 127
1, 78000, Note_on_c, 1, 48, 127
1, 78048, Note_off_c, 1, 69, 0
1, 78060, Note_on_c, 1, 64, 127
1, 78096, Note_off_c, 1, 72, 0
1, 78108, Note_off_c, 1, 64, 0
1, 78120, Note_on_c, 1, 76, 127
1, 78120, Note_on_c, 1, 60, 127
1, 78168, Note_off_c, 1, 60, 0
1, 78192, Note_off_c, 1, 48, 0
1, 78216, Note_off_c, 1, 76, 0
1, 78240, Note_on_c, 1, 69, 127
1, 78240, Note_on_c, 1, 72, 127
1, 78288, Note_off_c, 1, 69, 0
1, 78360, Note_on_c, 1, 74, 127
1, 78360, Note_on_c, 1, 36, 127
1, 78408, Note_off_c, 1, 74, 0
1, 78420, Note_on_c, 1, 76, 127
1, 78456, Note_off_c, 1, 36, 0
1, 78468, Note_off_c, 1, 76, 0
1, 78480, Note_on_c, 1, 77, 127
1, 78480, Note_on_c, 1, 38, 127
1, 78528, Note_off_c, 1, 72, 0
1, 78540, Note_on_c, 1, 65, 127
1, 78576, Note_off_c, 1, 77, 0
1, 78588, Note_off_c, 1, 65, 0
1, 78600, Note_on_c, 1, 81, 127
1, 78600, Note_on_c, 1, 62, 127
1, 78648, Note_off_c, 1, 62, 0
1, 78672, Note_off_c, 1, 38, 0
1, 78696, Note_off_c, 1, 81, 0
1, 78720, Note_on_c, 1, 74, 127
1, 78720, Note_on_c, 1, 71, 127
1, 78720, Note_on_c, 1, 50, 127
1, 78768, Note_off_c, 1, 71, 0
1, 78780, Note_on_c, 1, 65, 127
1, 78816, Note_off_c, 1, 74, 0
1, 78828, Note_off_c, 1, 65, 0
1, 78840, Note_on_c, 1, 77, 127
1, 78840, Note_on_c, 1, 62, 127
1, 78888, Note_off_c, 1, 62, 0
1, 78912, Note_off_c, 1, 50, 0
1, 78936, Note_off_c, 1, 77, 0
1, 78960, Note_on_c, 1, 71, 127
1, 78960, Note_on_c, 1, 74, 127
1, 79008, Note_off_c, 1, 71, 0
1, 79080, Note_on_c, 1, 76, 127
1, 79080, Note_on_c, 1, 38, 127
1, 79128, Note_off_c, 1, 76, 0
1, 79140, Note_on_c, 1, 77, 127
1, 79176, Note_off_c, 1, 38, 0
1, 79188, Note_off_c, 1, 77, 0
1, 79200, Note_on_c, 1, 79, 127
1, 79200, Note_on_c, 1, 40, 127
1, 79248, Note_off_c, 1, 74, 0
1, 79260, Note_on_c, 1, 67, 127
1, 79296, Note_off_c, 1, 79, 0
1, 79308, Note_off_c, 1, 67, 0
1, 79320, Note_on_c, 1, 84, 127
1, 79320, Note_on_c, 1, 64, 127
1, 79368, Note_off_c, 1, 84, 0
1, 79368, Note_off_c, 1, 64, 0
1, 79425, Note_off_c, 1, 40, 0
1, 79440, Note_on_c, 1, 76, 127
1, 79440, Note_on_c, 1, 72, 127
1, 79440, Note_on_c, 1, 52, 127
1, 79488, Note_off_c, 1, 72, 0
1, 79500, Note_on_c, 1, 67, 127
1, 79536, Note_off_c, 1, 76, 0
1, 79548, Note_off_c, 1, 67, 0
1, 79560, Note_on_c, 1, 79, 127
1, 79560, Note_on_c, 1, 64, 127
1, 79608, Note_off_c, 1, 79, 0
1, 79608, Note_off_c, 1, 64, 0
1, 79665, Note_off_c, 1, 52, 0
1, 79680, Note_on_c, 1, 72, 127
1, 79680, Note_on_c, 1, 76, 127
1, 79728, Note_off_c, 1, 72, 0
1, 79800, Note_on_c, 1, 77, 127
1, 79800, Note_on_c, 1, 40, 127
1, 79848, Note_off_c, 1, 77, 0
1, 79860, Note_on_c, 1, 79, 127
1, 79896, Note_off_c, 1, 40, 0
1, 79908, Note_off_c, 1, 79, 0
1, 79920, Note_on_c, 1, 81, 127
1, 79920, Note_on_c, 1, 41, 127
1, 79968, Note_off_c, 1, 81, 0
1, 80016, Note_off_c, 1, 76, 0
1, 80040, Note_on_c, 1, 74, 127
1, 80088, Note_off_c, 1, 74, 0
1, 80100, Note_on_c, 1, 82, 127
1, 80145, Note_off_c, 1, 41, 0
1, 80148, Note_off_c, 1, 82, 0
1, 80160, Note_on_c, 1, 81, 127
1, 80160, Note_on_c, 1, 74, 127
1, 80160, Note_on_c, 1, 53, 127
1, 80208, Note_off_c, 1, 81, 0
1, 80220, Note_on_c, 1, 79, 127
1, 80256, Note_off_c, 1, 74, 0
1, 80268, Note_off_c, 1, 79, 0
1, 80280, Note_on_c, 1, 77, 127
1, 80280, Note_on_c, 1, 69, 127
1, 80328, Note_off_c, 1, 77, 0
1, 80340, Note_on_c, 1, 76, 127
1, 80376, Note_off_c, 1, 69, 0
1, 80385, Note_off_c, 1, 53, 0
1, 80388, Note_off_c, 1, 76, 0
1, 80400, Note_on_c, 1, 74, 127
1, 80400, Note_on_c, 1, 77, 127
1, 80448, Note_off_c, 1, 74, 0
1, 80460, Note_on_c, 1, 72, 127
1, 80508, Note_off_c, 1, 72, 0
1, 80520, Note_on_c, 1, 71, 127
1, 80520, Note_on_c, 1, 50, 127
1, 80568, Note_off_c, 1, 71, 0
1, 80580, Note_on_c, 1, 69, 127
1, 80616, Note_off_c, 1, 50, 0
1, 80628, Note_off_c, 1, 69, 0
1, 80640, Note_on_c, 1, 55, 127
1, 80736, Note_off_c, 1, 77, 0
1, 80820, Note_on_c, 1, 67, 127
1, 80832, Note_off_c, 1, 55, 0
1, 80868, Note_off_c, 1, 67, 0
1, 80880, Note_on_c, 1, 74, 127
1, 80880, Note_on_c, 1, 71, 127
1, 80880, Note_on_c, 1, 43, 127
1, 80928, Note_off_c, 1, 74, 0
1, 80940, Note_on_c, 1, 77, 127
1, 80976, Note_off_c, 1, 71, 0
1, 80988, Note_off_c, 1, 77, 0
1, 81120, Note_on_c, 1, 67, 127
1, 81180, Note_on_c, 1, 79, 127
1, 81216, Note_off_c, 1, 67, 0
1, 81228, Note_off_c, 1, 79, 0
1, 81360, Note_on_c, 1, 75, 127
1, 81360, Note_on_c, 1, 72, 127
1, 81408, Note_off_c, 1, 72, 0
1, 81456, Note_off_c, 1, 75, 0
1, 81780, Note_on_c, 1, 70, 127
1, 81828, Note_off_c, 1, 70, 0
1, 81840, Note_on_c, 1, 84, 127
1, 81840, Note_on_c, 1, 69, 127
1, 81888, Note_off_c, 1, 69, 0
1, 81960, Note_on_c, 1, 66, 127
1, 82008, Note_off_c, 1, 66, 0
1, 82020, Note_on_c, 1, 64, 127
1, 82068, Note_off_c, 1, 64, 0
1, 82128, Note_off_c, 1, 84, 0
1, 82140, Note_on_c, 1, 82, 127
1, 82188, Note_off_c, 1, 82, 0
1, 82200, Note_on_c, 1, 81, 127
1, 82200, Note_on_c, 1, 60, 127
1, 82248, Note_off_c, 1, 81, 0
1, 82296, Note_off_c, 1, 60, 0
1, 82320, Note_on_c, 1, 78, 127
1, 82368, Note_off_c, 1, 78, 0
1, 82896, Note_off_c, 1, 43, 0
1, 82920, Note_on_c, 1, 72, 127
1, 82920, Note_on_c, 1, 69, 127
1, 82920, Note_on_c, 1, 50, 127
1, 82968, Note_off_c, 1, 72, 0
1, 82968, Note_off_c, 1, 69, 0
1, 82980, Note_on_c, 1, 74, 127
1, 82980, Note_on_c, 1, 71, 127
1, 83016, Note_off_c, 1, 50, 0
1, 83028, Note_off_c, 1, 74, 0
1, 83028, Note_off_c, 1, 71, 0
1, 83040, Note_on_c, 1, 83, 127
1, 83040, Note_on_c, 1, 67, 127
1, 83040, Note_on_c, 1, 52, 127
1, 83088, Note_off_c, 1, 67, 0
1, 83100, Note_on_c, 1, 76, 127
1, 83136, Note_off_c, 1, 52, 0
1, 83148, Note_off_c, 1, 76, 0
1, 83160, Note_on_c, 1, 74, 127
1, 83160, Note_on_c, 1, 54, 127
1, 83208, Note_off_c, 1, 74, 0
1, 83220, Note_on_c, 1, 72, 127
1, 83256, Note_off_c, 1, 54, 0
1, 83268, Note_off_c, 1, 72, 0
1, 83280, Note_on_c, 1, 71, 127
1, 83280, Note_on_c, 1, 55, 127
1, 83328, Note_off_c, 1, 71, 0
1, 83340, Note_on_c, 1, 69, 127
1, 83376, Note_off_c, 1, 55, 0
1, 83388, Note_off_c, 1, 69, 0
1, 83400, Note_on_c, 1, 47, 127
1, 83460, Note_on_c, 1, 66, 127
1, 83496, Note_off_c, 1, 47, 0
1, 83508, Note_off_c, 1, 66, 0
1, 83520, Note_on_c, 1, 64, 127
1, 83520, Note_on_c, 1, 48, 127
1, 83568, Note_off_c, 1, 83, 0
1, 83568, Note_off_c, 1, 64, 0
1, 83616, Note_off_c, 1, 48, 0
1, 83640, Note_on_c, 1, 71, 127
1, 83640, Note_on_c, 1, 62, 127
1, 83640, Note_on_c, 1, 52, 127
1, 83688, Note_off_c, 1, 71, 0
1, 83688, Note_off_c, 1, 62, 0
1, 83700, Note_on_c, 1, 72, 127
1, 83700, Note_on_c, 1, 64, 127
1, 83736, Note_off_c, 1, 52, 0
1, 83748, Note_off_c, 1, 72, 0
1, 83748, Note_off_c, 1, 64, 0
1, 83760, Note_on_c, 1, 81, 127
1, 83760, Note_on_c, 1, 60, 127
1, 83760, Note_on_c, 1, 54, 127
1, 83808, Note_off_c, 1, 60, 0
1, 83820, Note_on_c, 1, 74, 127
1, 83856, Note_off_c, 1, 54, 0
1, 83868, Note_off_c, 1, 74, 0
1, 83880, Note_on_c, 1, 72, 127
1, 83880, Note_on_c, 1, 55, 127
1, 83928, Note_off_c, 1, 72, 0
1, 83940, Note_on_c, 1, 71, 127
1, 83976, Note_off_c, 1, 55, 0
1, 83988, Note_off_c, 1, 71, 0
1, 84000, Note_on_c, 1, 69, 127
1, 84000, Note_on_c, 1, 57, 127
1, 84048, Note_off_c, 1, 69, 0
1, 84060, Note_on_c, 1, 67, 127
1, 84096, Note_off_c, 1, 57, 0
1, 84108, Note_off_c, 1, 67, 0
1, 84120, Note_on_c, 1, 66, 127
1, 84120, Note_on_c, 1, 48, 127
1, 84168, Note_off_c, 1, 66, 0
1, 84180, Note_on_c, 1, 64, 127
1, 84216, Note_off_c, 1, 48, 0
1, 84228, Note_off_c, 1, 64, 0
1, 84240, Note_on_c, 1, 62, 127
1, 84240, Note_on_c, 1, 50, 127
1, 84288, Note_off_c, 1, 81, 0
1, 84288, Note_off_c, 1, 62, 0
1, 84336, Note_off_c, 1, 50, 0
1, 84360, Note_on_c, 1, 69, 127
1, 84360, Note_on_c, 1, 60, 127
1, 84360, Note_on_c, 1, 54, 127
1, 84408, Note_off_c, 1, 69, 0
1, 84408, Note_off_c, 1, 60, 0
1, 84420, Note_on_c, 1, 71, 127
1, 84420, Note_on_c, 1, 62, 127
1, 84456, Note_off_c, 1, 54, 0
1, 84468, Note_off_c, 1, 71, 0
1, 84468, Note_off_c, 1, 62, 0
1, 84480, Note_on_c, 1, 79, 127
1, 84480, Note_on_c, 1, 59, 127
1, 84480, Note_on_c, 1, 55, 127
1, 84528, Note_off_c, 1, 59, 0
1, 84540, Note_on_c, 1, 72, 127
1, 84576, Note_off_c, 1, 55, 0
1, 84588, Note_off_c, 1, 72, 0
1, 84600, Note_on_c, 1, 71, 127
1, 84600, Note_on_c, 1, 57, 127
1, 84648, Note_off_c, 1, 71, 0
1, 84660, Note_on_c, 1, 69, 127
1, 84696, Note_off_c, 1, 57, 0
1, 84708, Note_off_c, 1, 69, 0
1, 84720, Note_on_c, 1, 67, 127
1, 84768, Note_off_c, 1, 67, 0
1, 84780, Note_on_c, 1, 66, 127
1, 84828, Note_off_c, 1, 66, 0
1, 84840, Note_on_c, 1, 64, 127
1, 84840, Note_on_c, 1, 50, 127
1, 84888, Note_off_c, 1, 64, 0
1, 84900, Note_on_c, 1, 62, 127
1, 84936, Note_off_c, 1, 50, 0
1, 84948, Note_off_c, 1, 62, 0
1, 84960, Note_on_c, 1, 60, 127
1, 84960, Note_on_c, 1, 52, 127
1, 85008, Note_off_c, 1, 79, 0
1, 85020, Note_on_c, 1, 78, 127
1, 85056, Note_off_c, 1, 60, 0
1, 85056, Note_off_c, 1, 52, 0
1, 85068, Note_off_c, 1, 78, 0
1, 85080, Note_on_c, 1, 76, 127
1, 85080, Note_on_c, 1, 64, 127
1, 85080, Note_on_c, 1, 55, 127
1, 85128, Note_off_c, 1, 76, 0
1, 85140, Note_on_c, 1, 74, 127
1, 85176, Note_off_c, 1, 55, 0
1, 85188, Note_off_c, 1, 74, 0
1, 85200, Note_on_c, 1, 72, 127
1, 85200, Note_on_c, 1, 57, 127
1, 85248, Note_off_c, 1, 72, 0
1, 85260, Note_on_c, 1, 71, 127
1, 85272, Note_off_c, 1, 64, 0
1, 85296, Note_off_c, 1, 57, 0
1, 85308, Note_off_c, 1, 71, 0
1, 85320, Note_on_c, 1, 69, 127
1, 85320, Note_on_c, 1, 59, 127
1, 85380, Note_on_c, 1, 67, 127
1, 85416, Note_off_c, 1, 59, 0
1, 85428, Note_off_c, 1, 67, 0
1, 85440, Note_on_c, 1, 66, 127
1, 85440, Note_on_c, 1, 60, 127
1, 85488, Note_off_c, 1, 66, 0
1, 85500, Note_on_c, 1, 64, 127
1, 85512, Note_off_c, 1, 69, 0
1, 85536, Note_off_c, 1, 60, 0
1, 85548, Note_off_c, 1, 64, 0
1, 85560, Note_on_c, 1, 62, 127
1, 85560, Note_on_c, 1, 72, 127
1, 85560, Note_on_c, 1, 52, 127
1, 85608, Note_off_c, 1, 62, 0
1, 85620, Note_on_c, 1, 60, 127
1, 85656, Note_off_c, 1, 52, 0
1, 85668, Note_off_c, 1, 60, 0
1, 85680, Note_on_c, 1, 54, 127
1, 85728, Note_off_c, 1, 72, 0
1, 85740, Note_on_c, 1, 67, 127
1, 85776, Note_off_c, 1, 54, 0
1, 85788, Note_off_c, 1, 67, 0
1, 85800, Note_on_c, 1, 74, 127
1, 85800, Note_on_c, 1, 69, 127
1, 85800, Note_on_c, 1, 50, 127
1, 85848, Note_off_c, 1, 69, 0
1, 85860, Note_on_c, 1, 66, 127
1, 85896, Note_off_c, 1, 74, 0
1, 85896, Note_off_c, 1, 50, 0
1, 85908, Note_off_c, 1, 66, 0
1, 85920, Note_on_c, 1, 71, 127
1, 85920, Note_on_c, 1, 67, 127
1, 85920, Note_on_c, 1, 55, 127
1, 86016, Note_off_c, 1, 71, 0
1, 86016, Note_off_c, 1, 67, 0
1, 86016, Note_off_c, 1, 55, 0
1, 86040, Note_on_c, 1, 76, 127
1, 86040, Note_on_c, 1, 69, 127
1, 86040, Note_on_c, 1, 48, 127
1, 86088, Note_off_c, 1, 76, 0
1, 86100, Note_on_c, 1, 74, 127
1, 86136, Note_off_c, 1, 69, 0
1, 86136, Note_off_c, 1, 48, 0
1, 86148, Note_off_c, 1, 74, 0
1, 86160, Note_on_c, 1, 72, 127
1, 86160, Note_on_c, 1, 62, 127
1, 86160, Note_on_c, 1, 50, 127
1, 86208, Note_off_c, 1, 72, 0
1, 86220, Note_on_c, 1, 71, 127
1, 86256, Note_off_c, 1, 62, 0
1, 86256, Note_off_c, 1, 50, 0
1, 86268, Note_off_c, 1, 71, 0
1, 86280, Note_on_c, 1, 69, 127
1, 86280, Note_on_c, 1, 66, 127
1, 86280, Note_on_c, 1, 38, 127
1, 86328, Note_off_c, 1, 69, 0
1, 86340, Note_on_c, 1, 67, 127
1, 86376, Note_off_c, 1, 66, 0
1, 86376, Note_off_c, 1, 38, 0
1, 86388, Note_off_c, 1, 67, 0
1, 86400, Note_on_c, 1, 67, 127
1, 86400, Note_on_c, 1, 43, 127
1, 86520, Note_on_c, 1, 66, 127
1, 86568, Note_off_c, 1, 66, 0
1, 86592, Note_off_c, 1, 43, 0
1, 86628, Note_off_c, 1, 67, 0
1, 86640, Note_on_c, 1, 71, 127
1, 86688, Note_off_c, 1, 71, 0
1, 86700, Note_on_c, 1, 67, 127
1, 86748, Note_off_c, 1, 67, 0
1, 86760, Note_on_c, 1, 66, 127
1, 86808, Note_off_c, 1, 66, 0
1, 86820, Note_on_c, 1, 67, 127
1, 86868, Note_off_c, 1, 67, 0
1, 86880, Note_on_c, 1, 62, 127
1, 86928, Note_off_c, 1, 62, 0
1, 86940, Note_on_c, 1, 67, 127
1, 86988, Note_off_c, 1, 67, 0
1, 87000, Note_on_c, 1, 59, 127
1, 87048, Note_off_c, 1, 59, 0
1, 87060, Note_on_c, 1, 62, 127
1, 87108, Note_off_c, 1, 62, 0
1, 87120, Note_on_c, 1, 55, 127
1, 87216, Note_off_c, 1, 55, 0
1, 87240, Note_on_c, 1, 83, 127
1, 87240, Note_on_c, 1, 74, 127
1, 87240, Note_on_c, 1, 55, 127
1, 87336, Note_off_c, 1, 83, 0
1, 87336, Note_off_c, 1, 74, 0
1, 87336, Note_off_c, 1, 55, 0
1, 87360, Note_on_c, 1, 79, 127
1, 87360, Note_on_c, 1, 71, 127
1, 87360, Note_on_c, 1, 43, 127
1, 87456, Note_off_c, 1, 79, 0
1, 87456, Note_off_c, 1, 71, 0
1, 87456, Note_off_c, 1, 43, 0
1, 87480, Note_on_c, 1, 83, 127
1, 87480, Note_on_c, 1, 74, 127
1, 87480, Note_on_c, 1, 55, 127
1, 87576, Note_off_c, 1, 83, 0
1, 87576, Note_off_c, 1, 74, 0
1, 87576, Note_off_c, 1, 55, 0
1, 87600, Note_on_c, 1, 84, 127
1, 87600, Note_on_c, 1, 76, 127
1, 87600, Note_on_c, 1, 43, 127
1, 87696, Note_off_c, 1, 84, 0
1, 87696, Note_off_c, 1, 76, 0
1, 87696, Note_off_c, 1, 43, 0
1, 87720, Note_on_c, 1, 83, 127
1, 87720, Note_on_c, 1, 74, 127
1, 87720, Note_on_c, 1, 55, 127
1, 87768, Note_off_c, 1, 83, 0
1, 87768, Note_off_c, 1, 74, 0
1, 87780, Note_on_c, 1, 81, 127
1, 87780, Note_on_c, 1, 72, 127
1, 87816, Note_off_c, 1, 55, 0
1, 87828, Note_off_c, 1, 81, 0
1, 87828, Note_off_c, 1, 72, 0
1, 87840, Note_on_c, 1, 83, 127
1, 87840, Note_on_c, 1, 74, 127
1, 87840, Note_on_c, 1, 43, 127
1, 87888, Note_off_c, 1, 83, 0
1, 87900, Note_on_c, 1, 79, 127
1, 87948, Note_off_c, 1, 79, 0
1, 87960, Note_on_c, 1, 78, 127
1, 88008, Note_off_c, 1, 78, 0
1, 88032, Note_off_c, 1, 74, 0
1, 88032, Note_off_c, 1, 43, 0
1, 88080, Note_on_c, 1, 83, 127
1, 88128, Note_off_c, 1, 83, 0
1, 88140, Note_on_c, 1, 79, 127
1, 88188, Note_off_c, 1, 79, 0
1, 88200, Note_on_c, 1, 78, 127
1, 88248, Note_off_c, 1, 78, 0
1, 88260, Note_on_c, 1, 79, 127
1, 88308, Note_off_c, 1, 79, 0
1, 88320, Note_on_c, 1, 74, 127
1, 88368, Note_off_c, 1, 74, 0
1, 88380, Note_on_c, 1, 79, 127
1, 88428, Note_off_c, 1, 79, 0
1, 88440, Note_on_c, 1, 71, 127
1, 88488, Note_off_c, 1, 71, 0
1, 88500, Note_on_c, 1, 74, 127
1, 88548, Note_off_c, 1, 74, 0
1, 88560, Note_on_c, 1, 67, 127
1, 88656, Note_off_c, 1, 67, 0
1, 88680, Note_on_c, 1, 74, 127
1, 88680, Note_on_c, 1, 59, 127
1, 88680, Note_on_c, 1, 55, 127
1, 88776, Note_off_c, 1, 74, 0
1, 88776, Note_off_c, 1, 59, 0
1, 88776, Note_off_c, 1, 55, 0
1, 88800, Note_on_c, 1, 71, 127
1, 88800, Note_on_c, 1, 55, 127
1, 88800, Note_on_c, 1, 43, 127
1, 88896, Note_off_c, 1, 71, 0
1, 88896, Note_off_c, 1, 55, 0
1, 88896, Note_off_c, 1, 43, 0
1, 88920, Note_on_c, 1, 74, 127
1, 88920, Note_on_c, 1, 59, 127
1, 88920, Note_on_c, 1, 55, 127
1, 89016, Note_off_c, 1, 74, 0
1, 89016, Note_off_c, 1, 59, 0
1, 89016, Note_off_c, 1, 55, 0
1, 89040, Note_on_c, 1, 76, 127
1, 89040, Note_on_c, 1, 60, 127
1, 89040, Note_on_c, 1, 43, 127
1, 89136, Note_off_c, 1, 76, 0
1, 89136, Note_off_c, 1, 60, 0
1, 89136, Note_off_c, 1, 43, 0
1, 89160, Note_on_c, 1, 74, 127
1, 89160, Note_on_c, 1, 59, 127
1, 89160, Note_on_c, 1, 55, 127
1, 89208, Note_off_c, 1, 74, 0
1, 89208, Note_off_c, 1, 59, 0
1, 89220, Note_on_c, 1, 72, 127
1, 89220, Note_on_c, 1, 57, 127
1, 89256, Note_off_c, 1, 55, 0
1, 89268, Note_off_c, 1, 72, 0
1, 89268, Note_off_c, 1, 57, 0
1, 89280, Note_on_c, 1, 74, 127
1, 89280, Note_on_c, 1, 59, 127
1, 89280, Note_on_c, 1, 43, 127
1, 89328, Note_off_c, 1, 74, 0
1, 89340, Note_on_c, 1, 71, 127
1, 89376, Note_off_c, 1, 59, 0
1, 89388, Note_off_c, 1, 71, 0
1, 89400, Note_on_c, 1, 67, 127
1, 89400, Note_on_c, 1, 62, 127
1, 89448, Note_off_c, 1, 67, 0
1, 89472, Note_off_c, 1, 43, 0
1, 89496, Note_off_c, 1, 62, 0
1, 89520, Note_on_c, 1, 76, 127
1, 89520, Note_on_c, 1, 55, 127
1, 89568, Note_off_c, 1, 76, 0
1, 89580, Note_on_c, 1, 71, 127
1, 89628, Note_off_c, 1, 71, 0
1, 89640, Note_on_c, 1, 67, 127
1, 89640, Note_on_c, 1, 59, 127
1, 89688, Note_off_c, 1, 67, 0
1, 89712, Note_off_c, 1, 55, 0
1, 89736, Note_off_c, 1, 59, 0
1, 89760, Note_on_c, 1, 79, 127
1, 89760, Note_on_c, 1, 52, 127
1, 89808, Note_off_c, 1, 52, 0
1, 89820, Note_on_c, 1, 55, 127
1, 89868, Note_off_c, 1, 55, 0
1, 89880, Note_on_c, 1, 57, 127
1, 89880, Note_on_c, 1, 43, 127
1, 89928, Note_off_c, 1, 57, 0
1, 89940, Note_on_c, 1, 59, 127
1, 89976, Note_off_c, 1, 43, 0
1, 89988, Note_off_c, 1, 59, 0
1, 90000, Note_on_c, 1, 60, 127
1, 90000, Note_on_c, 1, 45, 127
1, 90048, Note_off_c, 1, 79, 0
1, 90060, Note_on_c, 1, 72, 127
1, 90096, Note_off_c, 1, 60, 0
1, 90108, Note_off_c, 1, 72, 0
1, 90120, Note_on_c, 1, 69, 127
1, 90120, Note_on_c, 1, 64, 127
1, 90168, Note_off_c, 1, 69, 0
1, 90192, Note_off_c, 1, 45, 0
1, 90216, Note_off_c, 1, 64, 0
1, 90240, Note_on_c, 1, 78, 127
1, 90240, Note_on_c, 1, 57, 127
1, 90288, Note_off_c, 1, 78, 0
1, 90300, Note_on_c, 1, 72, 127
1, 90348, Note_off_c, 1, 72, 0
1, 90360, Note_on_c, 1, 69, 127
1, 90360, Note_on_c, 1, 60, 127
1, 90408, Note_off_c, 1, 69, 0
1, 90432, Note_off_c, 1, 57, 0
1, 90456, Note_off_c, 1, 60, 0
1, 90480, Note_on_c, 1, 81, 127
1, 90480, Note_on_c, 1, 54, 127
1, 90528, Note_off_c, 1, 54, 0
1, 90540, Note_on_c, 1, 57, 127
1, 90588, Note_off_c, 1, 57, 0
1, 90600, Note_on_c, 1, 59, 127
1, 90600, Note_on_c, 1, 45, 127
1, 90648, Note_off_c, 1, 59, 0
1, 90660, Note_on_c, 1, 60, 127
1, 90696, Note_off_c, 1, 45, 0
1, 90708, Note_off_c, 1, 60, 0
1, 90720, Note_on_c, 1, 62, 127
1, 90720, Note_on_c, 1, 47, 127
1, 90768, Note_off_c, 1, 81, 0
1, 90780, Note_on_c, 1, 74, 127
1, 90816, Note_off_c, 1, 62, 0
1, 90828, Note_off_c, 1, 74, 0
1, 90840, Note_on_c, 1, 71, 127
1, 90840, Note_on_c, 1, 67, 127
1, 90888, Note_off_c, 1, 71, 0
1, 90888, Note_off_c, 1, 67, 0
1, 90945, Note_off_c, 1, 47, 0
1, 90960, Note_on_c, 1, 79, 127
1, 90960, Note_on_c, 1, 59, 127
1, 91008, Note_off_c, 1, 79, 0
1, 91020, Note_on_c, 1, 74, 127
1, 91068, Note_off_c, 1, 74, 0
1, 91080, Note_on_c, 1, 71, 127
1, 91080, Note_on_c, 1, 62, 127
1, 91128, Note_off_c, 1, 71, 0
1, 91128, Note_off_c, 1, 62, 0
1, 91188, Note_off_c, 1, 59, 0
1, 91200, Note_on_c, 1, 83, 127
1, 91200, Note_on_c, 1, 55, 127
1, 91248, Note_off_c, 1, 55, 0
1, 91260, Note_on_c, 1, 59, 127
1, 91308, Note_off_c, 1, 59, 0
1, 91320, Note_on_c, 1, 60, 127
1, 91320, Note_on_c, 1, 47, 127
1, 91368, Note_off_c, 1, 60, 0
1, 91380, Note_on_c, 1, 62, 127
1, 91416, Note_off_c, 1, 47, 0
1, 91428, Note_off_c, 1, 62, 0
1, 91440, Note_on_c, 1, 64, 127
1, 91440, Note_on_c, 1, 48, 127
1, 91488, Note_off_c, 1, 64, 0
1, 91536, Note_off_c, 1, 83, 0
1, 91560, Note_on_c, 1, 81, 127
1, 91608, Note_off_c, 1, 81, 0
1, 91620, Note_on_c, 1, 80, 127
1, 91620, Note_on_c, 1, 65, 127
1, 91632, Note_off_c, 1, 48, 0
1, 91668, Note_off_c, 1, 80, 0
1, 91668, Note_off_c, 1, 65, 0
1, 91680, Note_on_c, 1, 81, 127
1, 91680, Note_on_c, 1, 64, 127
1, 91680, Note_on_c, 1, 60, 127
1, 91728, Note_off_c, 1, 64, 0
1, 91740, Note_on_c, 1, 62, 127
1, 91776, Note_off_c, 1, 81, 0
1, 91788, Note_off_c, 1, 62, 0
1, 91800, Note_on_c, 1, 76, 127
1, 91860, Note_on_c, 1, 59, 127
1, 91872, Note_off_c, 1, 60, 0
1, 91896, Note_off_c, 1, 76, 0
1, 91908, Note_off_c, 1, 59, 0
1, 91920, Note_on_c, 1, 84, 127
1, 91920, Note_on_c, 1, 57, 127
1, 91968, Note_off_c, 1, 57, 0
1, 91980, Note_on_c, 1, 55, 127
1, 92028, Note_off_c, 1, 55, 0
1, 92040, Note_on_c, 1, 54, 127
1, 92088, Note_off_c, 1, 54, 0
1, 92100, Note_on_c, 1, 52, 127
1, 92148, Note_off_c, 1, 52, 0
1, 92160, Note_on_c, 1, 62, 127
1, 92256, Note_off_c, 1, 84, 0
1, 92280, Note_on_c, 1, 81, 127
1, 92340, Note_on_c, 1, 50, 127
1, 92352, Note_off_c, 1, 62, 0
1, 92376, Note_off_c, 1, 81, 0
1, 92388, Note_off_c, 1, 50, 0
1, 92400, Note_on_c, 1, 78, 127
1, 92400, Note_on_c, 1, 57, 127
1, 92400, Note_on_c, 1, 50, 127
1, 92448, Note_off_c, 1, 57, 0
1, 92460, Note_on_c, 1, 59, 127
1, 92496, Note_off_c, 1, 78, 0
1, 92508, Note_off_c, 1, 59, 0
1, 92520, Note_on_c, 1, 81, 127
1, 92580, Note_on_c, 1, 54, 127
1, 92616, Note_off_c, 1, 81, 0
1, 92628, Note_off_c, 1, 54, 0
1, 92640, Note_on_c, 1, 74, 127
1, 92640, Note_on_c, 1, 60, 127
1, 92688, Note_off_c, 1, 60, 0
1, 92700, Note_on_c, 1, 62, 127
1, 92736, Note_off_c, 1, 74, 0
1, 92748, Note_off_c, 1, 62, 0
1, 92880, Note_on_c, 1, 79, 127
1, 92880, Note_on_c, 1, 58, 127
1, 92928, Note_off_c, 1, 79, 0
1, 92976, Note_off_c, 1, 58, 0
1, 93000, Note_on_c, 1, 82, 127
1, 93000, Note_on_c, 1, 55, 127
1, 93048, Note_off_c, 1, 82, 0
1, 93060, Note_on_c, 1, 84, 127
1, 93096, Note_off_c, 1, 55, 0
1, 93108, Note_off_c, 1, 84, 0
1, 93300, Note_on_c, 1, 77, 127
1, 93348, Note_off_c, 1, 77, 0
1, 93360, Note_on_c, 1, 76, 127
1, 93360, Note_on_c, 1, 67, 127
1, 93408, Note_off_c, 1, 76, 0
1, 93480, Note_on_c, 1, 73, 127
1, 93528, Note_off_c, 1, 73, 0
1, 93540, Note_on_c, 1, 71, 127
1, 93588, Note_off_c, 1, 71, 0
1, 93648, Note_off_c, 1, 67, 0
1, 93660, Note_on_c, 1, 65, 127
1, 93708, Note_off_c, 1, 65, 0
1, 93720, Note_on_c, 1, 64, 127
1, 93768, Note_off_c, 1, 64, 0
1, 93840, Note_on_c, 1, 61, 127
1, 93888, Note_off_c, 1, 61, 0
1, 94416, Note_off_c, 1, 50, 0
1, 94560, Note_on_c, 1, 83, 127
1, 94680, Note_on_c, 1, 69, 127
1, 94728, Note_off_c, 1, 69, 0
1, 94848, Note_off_c, 1, 83, 0
1, 95040, Note_on_c, 1, 52, 127
1, 95136, Note_off_c, 1, 52, 0
1, 95280, Note_on_c, 1, 72, 127
1, 95328, Note_off_c, 1, 72, 0
1, 95400, Note_on_c, 1, 78, 127
1, 95400, Note_on_c, 1, 69, 127
1, 95400, Note_on_c, 1, 59, 127
1, 95448, Note_off_c, 1, 78, 0
1, 95448, Note_off_c, 1, 69, 0
1, 95460, Note_on_c, 1, 76, 127
1, 95460, Note_on_c, 1, 67, 127
1, 95496, Note_off_c, 1, 59, 0
1, 95508, Note_off_c, 1, 76, 0
1, 95508, Note_off_c, 1, 67, 0
1, 95520, Note_on_c, 1, 74, 127
1, 95520, Note_on_c, 1, 66, 127
1, 95520, Note_on_c, 1, 60, 127
1, 95568, Note_off_c, 1, 74, 0
1, 95580, Note_on_c, 1, 72, 127
1, 95616, Note_off_c, 1, 66, 0
1, 95616, Note_off_c, 1, 60, 0
1, 95628, Note_off_c, 1, 72, 0
1, 95640, Note_on_c, 1, 71, 127
1, 95640, Note_on_c, 1, 72, 127
1, 95640, Note_on_c, 1, 54, 127
1, 95688, Note_off_c, 1, 71, 0
1, 95700, Note_on_c, 1, 69, 127
1, 95736, Note_off_c, 1, 54, 0
1, 95748, Note_off_c, 1, 69, 0
1, 95760, Note_on_c, 1, 67, 127
1, 95760, Note_on_c, 1, 55, 127
1, 95808, Note_off_c, 1, 72, 0
1, 95856, Note_off_c, 1, 55, 0
1, 95880, Note_on_c, 1, 47, 127
1, 95976, Note_off_c, 1, 47, 0
1, 96000, Note_on_c, 1, 76, 127
1, 96000, Note_on_c, 1, 48, 127
1, 96048, Note_off_c, 1, 67, 0
1, 96096, Note_off_c, 1, 48, 0
1, 96120, Note_on_c, 1, 74, 127
1, 96120, Note_on_c, 1, 50, 127
1, 96168, Note_off_c, 1, 74, 0
1, 96216, Note_off_c, 1, 50, 0
1, 96240, Note_on_c, 1, 79, 127
1, 96240, Note_on_c, 1, 52, 127
1, 96288, Note_off_c, 1, 76, 0
1, 96300, Note_on_c, 1, 77, 127
1, 96336, Note_off_c, 1, 52, 0
1, 96348, Note_off_c, 1, 77, 0
1, 96360, Note_on_c, 1, 43, 127
1, 96456, Note_off_c, 1, 43, 0
1, 96480, Note_on_c, 1, 45, 127
1, 96528, Note_off_c, 1, 79, 0
1, 96576, Note_off_c, 1, 45, 0
1, 96600, Note_on_c, 1, 81, 127
1, 96648, Note_off_c, 1, 81, 0
1, 96840, Note_on_c, 1, 74, 127
1, 96840, Note_on_c, 1, 71, 127
1, 96840, Note_on_c, 1, 52, 127
1, 96888, Note_off_c, 1, 74, 0
1, 96888, Note_off_c, 1, 71, 0
1, 96900, Note_on_c, 1, 72, 127
1, 96900, Note_on_c, 1, 69, 127
1, 96936, Note_off_c, 1, 52, 0
1, 96948, Note_off_c, 1, 72, 0
1, 96948, Note_off_c, 1, 69, 0
1, 96960, Note_on_c, 1, 71, 127
1, 96960, Note_on_c, 1, 67, 127
1, 96960, Note_on_c, 1, 53, 127
1, 97008, Note_off_c, 1, 67, 0
1, 97020, Note_on_c, 1, 65, 127
1, 97056, Note_off_c, 1, 71, 0
1, 97056, Note_off_c, 1, 53, 0
1, 97068, Note_off_c, 1, 65, 0
1, 97080, Note_on_c, 1, 77, 127
1, 97080, Note_on_c, 1, 64, 127
1, 97080, Note_on_c, 1, 47, 127
1, 97128, Note_off_c, 1, 64, 0
1, 97140, Note_on_c, 1, 62, 127
1, 97176, Note_off_c, 1, 47, 0
1, 97188, Note_off_c, 1, 62, 0
1, 97200, Note_on_c, 1, 60, 127
1, 97200, Note_on_c, 1, 48, 127
1, 97248, Note_off_c, 1, 77, 0
1, 97260, Note_on_c, 1, 76, 127
1, 97296, Note_off_c, 1, 60, 0
1, 97296, Note_off_c, 1, 48, 0
1, 97308, Note_off_c, 1, 76, 0
1, 97320, Note_on_c, 1, 74, 127
1, 97320, Note_on_c, 1, 67, 127
1, 97320, Note_on_c, 1, 48, 127
1, 97368, Note_off_c, 1, 74, 0
1, 97380, Note_on_c, 1, 76, 127
1, 97416, Note_off_c, 1, 67, 0
1, 97416, Note_off_c, 1, 48, 0
1, 97428, Note_off_c, 1, 76, 0
1, 97440, Note_on_c, 1, 79, 127
1, 97440, Note_on_c, 1, 64, 127
1, 97440, Note_on_c, 1, 36, 127
1, 97488, Note_off_c, 1, 79, 0
1, 97500, Note_on_c, 1, 76, 127
1, 97536, Note_off_c, 1, 64, 0
1, 97536, Note_off_c, 1, 36, 0
1, 97548, Note_off_c, 1, 76, 0
1, 97560, Note_on_c, 1, 74, 127
1, 97560, Note_on_c, 1, 67, 127
1, 97560, Note_on_c, 1, 48, 127
1, 97608, Note_off_c, 1, 74, 0
1, 97620, Note_on_c, 1, 76, 127
1, 97656, Note_off_c, 1, 67, 0
1, 97656, Note_off_c, 1, 48, 0
1, 97668, Note_off_c, 1, 76, 0
1, 97680, Note_on_c, 1, 72, 127
1, 97680, Note_on_c, 1, 69, 127
1, 97680, Note_on_c, 1, 36, 127
1, 97728, Note_off_c, 1, 72, 0
1, 97740, Note_on_c, 1, 76, 127
1, 97776, Note_off_c, 1, 36, 0
1, 97788, Note_off_c, 1, 76, 0
1, 97800, Note_on_c, 1, 48, 127
1, 97872, Note_off_c, 1, 69, 0
1, 97896, Note_off_c, 1, 48, 0
1, 97920, Note_on_c, 1, 69, 127
1, 97920, Note_on_c, 1, 38, 127
1, 97980, Note_on_c, 1, 65, 127
1, 98016, Note_off_c, 1, 69, 0
1, 98016, Note_off_c, 1, 38, 0
1, 98028, Note_off_c, 1, 65, 0
1, 98040, Note_on_c, 1, 81, 127
1, 98040, Note_on_c, 1, 64, 127
1, 98040, Note_on_c, 1, 50, 127
1, 98088, Note_off_c, 1, 64, 0
1, 98100, Note_on_c, 1, 65, 127
1, 98136, Note_off_c, 1, 81, 0
1, 98136, Note_off_c, 1, 50, 0
1, 98148, Note_off_c, 1, 65, 0
1, 98160, Note_on_c, 1, 77, 127
1, 98160, Note_on_c, 1, 69, 127
1, 98160, Note_on_c, 1, 38, 127
1, 98208, Note_off_c, 1, 69, 0
1, 98220, Note_on_c, 1, 65, 127
1, 98256, Note_off_c, 1, 77, 0
1, 98256, Note_off_c, 1, 38, 0
1, 98268, Note_off_c, 1, 65, 0
1, 98280, Note_on_c, 1, 81, 127
1, 98280, Note_on_c, 1, 64, 127
1, 98280, Note_on_c, 1, 50, 127
1, 98328, Note_off_c, 1, 64, 0
1, 98340, Note_on_c, 1, 65, 127
1, 98376, Note_off_c, 1, 81, 0
1, 98376, Note_off_c, 1, 50, 0
1, 98388, Note_off_c, 1, 65, 0
1, 98400, Note_on_c, 1, 82, 127
1, 98400, Note_on_c, 1, 62, 127
1, 98400, Note_on_c, 1, 38, 127
1, 98448, Note_off_c, 1, 62, 0
1, 98460, Note_on_c, 1, 65, 127
1, 98496, Note_off_c, 1, 38, 0
1, 98508, Note_off_c, 1, 65, 0
1, 98520, Note_on_c, 1, 58, 127
1, 98520, Note_on_c, 1, 50, 127
1, 98568, Note_off_c, 1, 58, 0
1, 98616, Note_off_c, 1, 50, 0
1, 98640, Note_on_c, 1, 55, 127
1, 98640, Note_on_c, 1, 40, 127
1, 98688, Note_off_c, 1, 82, 0
1, 98700, Note_on_c, 1, 79, 127
1, 98736, Note_off_c, 1, 55, 0
1, 98736, Note_off_c, 1, 40, 0
1, 98748, Note_off_c, 1, 79, 0
1, 98760, Note_on_c, 1, 77, 127
1, 98760, Note_on_c, 1, 70, 127
1, 98760, Note_on_c, 1, 52, 127
1, 98808, Note_off_c, 1, 77, 0
1, 98820, Note_on_c, 1, 79, 127
1, 98856, Note_off_c, 1, 70, 0
1, 98856, Note_off_c, 1, 52, 0
1, 98868, Note_off_c, 1, 79, 0
1, 98880, Note_on_c, 1, 82, 127
1, 98880, Note_on_c, 1, 67, 127
1, 98880, Note_on_c, 1, 40, 127
1, 98928, Note_off_c, 1, 82, 0
1, 98940, Note_on_c, 1, 79, 127
1, 98976, Note_off_c, 1, 67, 0
1, 98976, Note_off_c, 1, 40, 0
1, 98988, Note_off_c, 1, 79, 0
1, 99000, Note_on_c, 1, 77, 127
1, 99000, Note_on_c, 1, 70, 127
1, 99000, Note_on_c, 1, 52, 127
1, 99048, Note_off_c, 1, 77, 0
1, 99060, Note_on_c, 1, 79, 127
1, 99096, Note_off_c, 1, 70, 0
1, 99096, Note_off_c, 1, 52, 0
1, 99108, Note_off_c, 1, 79, 0
1, 99120, Note_on_c, 1, 76, 127
1, 99120, Note_on_c, 1, 72, 127
1, 99120, Note_on_c, 1, 40, 127
1, 99168, Note_off_c, 1, 76, 0
1, 99180, Note_on_c, 1, 79, 127
1, 99216, Note_off_c, 1, 40, 0
1, 99228, Note_off_c, 1, 79, 0
1, 99240, Note_on_c, 1, 52, 127
1, 99336, Note_off_c, 1, 52, 0
1, 99360, Note_on_c, 1, 69, 127
1, 99360, Note_on_c, 1, 41, 127
1, 99408, Note_off_c, 1, 69, 0
1, 99420, Note_on_c, 1, 81, 127
1, 99456, Note_off_c, 1, 72, 0
1, 99468, Note_off_c, 1, 81, 0
1, 99480, Note_on_c, 1, 65, 127
1, 99576, Note_off_c, 1, 65, 0
1, 99600, Note_on_c, 1, 84, 127
1, 99648, Note_off_c, 1, 84, 0
1, 99840, Note_on_c, 1, 77, 127
1, 99840, Note_on_c, 1, 75, 127
1, 99888, Note_off_c, 1, 77, 0
1, 99936, Note_off_c, 1, 75, 0
1, 99960, Note_on_c, 1, 74, 127
1, 100008, Note_off_c, 1, 74, 0
1, 100140, Note_on_c, 1, 82, 127
1, 100188, Note_off_c, 1, 82, 0
1, 100200, Note_on_c, 1, 70, 127
1, 100296, Note_off_c, 1, 70, 0
1, 101640, Note_on_c, 1, 67, 127
1, 101736, Note_off_c, 1, 67, 0
1, 101760, Note_on_c, 1, 64, 127
1, 101856, Note_off_c, 1, 64, 0
1, 102336, Note_off_c, 1, 41, 0
1, 102360, Note_on_c, 1, 72, 127
1, 102360, Note_on_c, 1, 64, 127
1, 102360, Note_on_c, 1, 53, 127
1, 102408, Note_off_c, 1, 64, 0
1, 102420, Note_on_c, 1, 65, 127
1, 102456, Note_off_c, 1, 72, 0
1, 102456, Note_off_c, 1, 53, 0
1, 102468, Note_off_c, 1, 65, 0
1, 102480, Note_on_c, 1, 77, 127
1, 102480, Note_on_c, 1, 69, 127
1, 102480, Note_on_c, 1, 50, 127
1, 102528, Note_off_c, 1, 69, 0
1, 102540, Note_on_c, 1, 65, 127
1, 102576, Note_off_c, 1, 77, 0
1, 102576, Note_off_c, 1, 50, 0
1, 102588, Note_off_c, 1, 65, 0
1, 102600, Note_on_c, 1, 81, 127
1, 102600, Note_on_c, 1, 64, 127
1, 102600, Note_on_c, 1, 53, 127
1, 102648, Note_off_c, 1, 64, 0
1, 102660, Note_on_c, 1, 65, 127
1, 102696, Note_off_c, 1, 53, 0
1, 102708, Note_off_c, 1, 65, 0
1, 102720, Note_on_c, 1, 62, 127
1, 102720, Note_on_c, 1, 47, 127
1, 102768, Note_off_c, 1, 62, 0
1, 102816, Note_off_c, 1, 81, 0
1, 102816, Note_off_c, 1, 47, 0
1, 102840, Note_on_c, 1, 74, 127
1, 102840, Note_on_c, 1, 59, 127
1, 102840, Note_on_c, 1, 50, 127
1, 102888, Note_off_c, 1, 59, 0
1, 102900, Note_on_c, 1, 62, 127
1, 102936, Note_off_c, 1, 50, 0
1, 102948, Note_off_c, 1, 62, 0
1, 102960, Note_on_c, 1, 55, 127
1, 102960, Note_on_c, 1, 40, 127
1, 103008, Note_off_c, 1, 55, 0
1, 103020, Note_on_c, 1, 64, 127
1, 103056, Note_off_c, 1, 74, 0
1, 103056, Note_off_c, 1, 40, 0
1, 103068, Note_off_c, 1, 64, 0
1, 103080, Note_on_c, 1, 71, 127
1, 103080, Note_on_c, 1, 62, 127
1, 103080, Note_on_c, 1, 52, 127
1, 103128, Note_off_c, 1, 62, 0
1, 103140, Note_on_c, 1, 64, 127
1, 103176, Note_off_c, 1, 71, 0
1, 103176, Note_off_c, 1, 52, 0
1, 103188, Note_off_c, 1, 64, 0
1, 103200, Note_on_c, 1, 76, 127
1, 103200, Note_on_c, 1, 67, 127
1, 103200, Note_on_c, 1, 48, 127
1, 103248, Note_off_c, 1, 67, 0
1, 103260, Note_on_c, 1, 64, 127
1, 103296, Note_off_c, 1, 76, 0
1, 103296, Note_off_c, 1, 48, 0
1, 103308, Note_off_c, 1, 64, 0
1, 103320, Note_on_c, 1, 79, 127
1, 103320, Note_on_c, 1, 62, 127
1, 103320, Note_on_c, 1, 52, 127
1, 103368, Note_off_c, 1, 62, 0
1, 103380, Note_on_c, 1, 64, 127
1, 103416, Note_off_c, 1, 52, 0
1, 103428, Note_off_c, 1, 64, 0
1, 103440, Note_on_c, 1, 60, 127
1, 103440, Note_on_c, 1, 45, 127
1, 103488, Note_off_c, 1, 60, 0
1, 103536, Note_off_c, 1, 79, 0
1, 103536, Note_off_c, 1, 45, 0
1, 103560, Note_on_c, 1, 72, 127
1, 103560, Note_on_c, 1, 57, 127
1, 103560, Note_on_c, 1, 48, 127
1, 103608, Note_off_c, 1, 57, 0
1, 103620, Note_on_c, 1, 60, 127
1, 103656, Note_off_c, 1, 48, 0
1, 103668, Note_off_c, 1, 60, 0
1, 103680, Note_on_c, 1, 53, 127
1, 103680, Note_on_c, 1, 38, 127
1, 103728, Note_off_c, 1, 53, 0
1, 103740, Note_on_c, 1, 62, 127
1, 103776, Note_off_c, 1, 72, 0
1, 103776, Note_off_c, 1, 38, 0
1, 103788, Note_off_c, 1, 62, 0
1, 103800, Note_on_c, 1, 69, 127
1, 103800, Note_on_c, 1, 60, 127
1, 103800, Note_on_c, 1, 50, 127
1, 103848, Note_off_c, 1, 60, 0
1, 103860, Note_on_c, 1, 62, 127
1, 103896, Note_off_c, 1, 69, 0
1, 103896, Note_off_c, 1, 50, 0
1, 103908, Note_off_c, 1, 62, 0
1, 103920, Note_on_c, 1, 74, 127
1, 103920, Note_on_c, 1, 65, 127
1, 103920, Note_on_c, 1, 47, 127
1, 103968, Note_off_c, 1, 65, 0
1, 103980, Note_on_c, 1, 62, 127
1, 104016, Note_off_c, 1, 74, 0
1, 104016, Note_off_c, 1, 47, 0
1, 104028, Note_off_c, 1, 62, 0
1, 104040, Note_on_c, 1, 77, 127
1, 104040, Note_on_c, 1, 60, 127
1, 104040, Note_on_c, 1, 50, 127
1, 104088, Note_off_c, 1, 60, 0
1, 104100, Note_on_c, 1, 62, 127
1, 104136, Note_off_c, 1, 50, 0
1, 104148, Note_off_c, 1, 62, 0
1, 104160, Note_on_c, 1, 59, 127
1, 104160, Note_on_c, 1, 43, 127
1, 104208, Note_off_c, 1, 59, 0
1, 104256, Note_off_c, 1, 77, 0
1, 104256, Note_off_c, 1, 43, 0
1, 104280, Note_on_c, 1, 71, 127
1, 104280, Note_on_c, 1, 55, 127
1, 104280, Note_on_c, 1, 47, 127
1, 104328, Note_off_c, 1, 55, 0
1, 104340, Note_on_c, 1, 59, 127
1, 104376, Note_off_c, 1, 71, 0
1, 104376, Note_off_c, 1, 47, 0
1, 104388, Note_off_c, 1, 59, 0
1, 104400, Note_on_c, 1, 52, 127
1, 104400, Note_on_c, 1, 36, 127
1, 104448, Note_off_c, 1, 52, 0
1, 104460, Note_on_c, 1, 64, 127
1, 104508, Note_off_c, 1, 64, 0
1, 104520, Note_on_c, 1, 72, 127
1, 104520, Note_on_c, 1, 62, 127
1, 104568, Note_off_c, 1, 62, 0
1, 104616, Note_off_c, 1, 72, 0
1, 104640, Note_on_c, 1, 76, 127
1, 104640, Note_on_c, 1, 67, 127
1, 104688, Note_off_c, 1, 67, 0
1, 104736, Note_off_c, 1, 76, 0
1, 104760, Note_on_c, 1, 79, 127
1, 104856, Note_off_c, 1, 79, 0
1, 104880, Note_on_c, 1, 82, 127
1, 104880, Note_on_c, 1, 60, 127
1, 104928, Note_off_c, 1, 60, 0
1, 104976, Note_off_c, 1, 82, 0
1, 105000, Note_on_c, 1, 81, 127
1, 105048, Note_off_c, 1, 81, 0
1, 105180, Note_on_c, 1, 65, 127
1, 105228, Note_off_c, 1, 65, 0
1, 105240, Note_on_c, 1, 77, 127
1, 105336, Note_off_c, 1, 77, 0
1, 106680, Note_on_c, 1, 74, 127
1, 106776, Note_off_c, 1, 74, 0
1, 106800, Note_on_c, 1, 71, 127
1, 106896, Note_off_c, 1, 71, 0
1, 107040, Note_on_c, 1, 59, 127
1, 107136, Note_off_c, 1, 59, 0
1, 107376, Note_off_c, 1, 36, 0
1, 107400, Note_on_c, 1, 74, 127
1, 107400, Note_on_c, 1, 65, 127
1, 107400, Note_on_c, 1, 43, 127
1, 107448, Note_off_c, 1, 74, 0
1, 107448, Note_off_c, 1, 65, 0
1, 107460, Note_on_c, 1, 76, 127
1, 107460, Note_on_c, 1, 67, 127
1, 107496, Note_off_c, 1, 43, 0
1, 107508, Note_off_c, 1, 76, 0
1, 107508, Note_off_c, 1, 67, 0
1, 107520, Note_on_c, 1, 72, 127
1, 107520, Note_on_c, 1, 76, 127
1, 107520, Note_on_c, 1, 45, 127
1, 107568, Note_off_c, 1, 72, 0
1, 107580, Note_on_c, 1, 81, 127
1, 107616, Note_off_c, 1, 45, 0
1, 107628, Note_off_c, 1, 81, 0
1, 107640, Note_on_c, 1, 79, 127
1, 107640, Note_on_c, 1, 47, 127
1, 107688, Note_off_c, 1, 79, 0
1, 107700, Note_on_c, 1, 77, 127
1, 107736, Note_off_c, 1, 47, 0
1, 107748, Note_off_c, 1, 77, 0
1, 107760, Note_on_c, 1, 48, 127
1, 107820, Note_on_c, 1, 74, 127
1, 107856, Note_off_c, 1, 48, 0
1, 107868, Note_off_c, 1, 74, 0
1, 107880, Note_on_c, 1, 40, 127
1, 107940, Note_on_c, 1, 70, 127
1, 107976, Note_off_c, 1, 40, 0
1, 107988, Note_off_c, 1, 70, 0
1, 108000, Note_on_c, 1, 69, 127
1, 108000, Note_on_c, 1, 41, 127
1, 108048, Note_off_c, 1, 76, 0
1, 108048, Note_off_c, 1, 69, 0
1, 108060, Note_on_c, 1, 65, 127
1, 108096, Note_off_c, 1, 41, 0
1, 108108, Note_off_c, 1, 65, 0
1, 108120, Note_on_c, 1, 67, 127
1, 108120, Note_on_c, 1, 64, 127
1, 108120, Note_on_c, 1, 45, 127
1, 108168, Note_off_c, 1, 67, 0
1, 108168, Note_off_c, 1, 64, 0
1, 108180, Note_on_c, 1, 69, 127
1, 108180, Note_on_c, 1, 65, 127
1, 108216, Note_off_c, 1, 45, 0
1, 108228, Note_off_c, 1, 69, 0
1, 108228, Note_off_c, 1, 65, 0
1, 108240, Note_on_c, 1, 65, 127
1, 108240, Note_on_c, 1, 74, 127
1, 108240, Note_on_c, 1, 47, 127
1, 108288, Note_off_c, 1, 65, 0
1, 108300, Note_on_c, 1, 79, 127
1, 108336, Note_off_c, 1, 47, 0
1, 108348, Note_off_c, 1, 79, 0
1, 108360, Note_on_c, 1, 77, 127
1, 108360, Note_on_c, 1, 48, 127
1, 108408, Note_off_c, 1, 77, 0
1, 108420, Note_on_c, 1, 76, 127
1, 108456, Note_off_c, 1, 48, 0
1, 108468, Note_off_c, 1, 76, 0
1, 108480, Note_on_c, 1, 50, 127
1, 108540, Note_on_c, 1, 72, 127
1, 108576, Note_off_c, 1, 50, 0
1, 108588, Note_off_c, 1, 72, 0
1, 108600, Note_on_c, 1, 71, 127
1, 108600, Note_on_c, 1, 41, 127
1, 108648, Note_off_c, 1, 71, 0
1, 108660, Note_on_c, 1, 69, 127
1, 108696, Note_off_c, 1, 41, 0
1, 108708, Note_off_c, 1, 69, 0
1, 108720, Note_on_c, 1, 67, 127
1, 108720, Note_on_c, 1, 43, 127
1, 108768, Note_off_c, 1, 74, 0
1, 108768, Note_off_c, 1, 67, 0
1, 108780, Note_on_c, 1, 64, 127
1, 108816, Note_off_c, 1, 43, 0
1, 108828, Note_off_c, 1, 64, 0
1, 108840, Note_on_c, 1, 65, 127
1, 108840, Note_on_c, 1, 62, 127
1, 108840, Note_on_c, 1, 47, 127
1, 108888, Note_off_c, 1, 62, 0
1, 108897, Note_off_c, 1, 65, 0
1, 108900, Note_on_c, 1, 67, 127
1, 108900, Note_on_c, 1, 64, 127
1, 108936, Note_off_c, 1, 47, 0
1, 108948, Note_off_c, 1, 64, 0
1, 108957, Note_off_c, 1, 67, 0
1, 108960, Note_on_c, 1, 64, 127
1, 108960, Note_on_c, 1, 72, 127
1, 108960, Note_on_c, 1, 48, 127
1, 109008, Note_off_c, 1, 64, 0
1, 109020, Note_on_c, 1, 77, 127
1, 109056, Note_off_c, 1, 48, 0
1, 109068, Note_off_c, 1, 77, 0
1, 109080, Note_on_c, 1, 76, 127
1, 109080, Note_on_c, 1, 50, 127
1, 109128, Note_off_c, 1, 76, 0
1, 109140, Note_on_c, 1, 74, 127
1, 109176, Note_off_c, 1, 50, 0
1, 109188, Note_off_c, 1, 74, 0
1, 109200, Note_on_c, 1, 52, 127
1, 109260, Note_on_c, 1, 71, 127
1, 109296, Note_off_c, 1, 52, 0
1, 109308, Note_off_c, 1, 71, 0
1, 109320, Note_on_c, 1, 69, 127
1, 109320, Note_on_c, 1, 43, 127
1, 109368, Note_off_c, 1, 69, 0
1, 109380, Note_on_c, 1, 67, 127
1, 109416, Note_off_c, 1, 43, 0
1, 109428, Note_off_c, 1, 67, 0
1, 109440, Note_on_c, 1, 65, 127
1, 109440, Note_on_c, 1, 45, 127
1, 109488, Note_off_c, 1, 72, 0
1, 109536, Note_off_c, 1, 65, 0
1, 109536, Note_off_c, 1, 45, 0
1, 109560, Note_on_c, 1, 69, 127
1, 109560, Note_on_c, 1, 48, 127
1, 109620, Note_on_c, 1, 67, 127
1, 109656, Note_off_c, 1, 48, 0
1, 109668, Note_off_c, 1, 67, 0
1, 109680, Note_on_c, 1, 65, 127
1, 109680, Note_on_c, 1, 50, 127
1, 109728, Note_off_c, 1, 65, 0
1, 109740, Note_on_c, 1, 64, 127
1, 109752, Note_off_c, 1, 69, 0
1, 109776, Note_off_c, 1, 50, 0
1, 109788, Note_off_c, 1, 64, 0
1, 109800, Note_on_c, 1, 74, 127
1, 109800, Note_on_c, 1, 62, 127
1, 109800, Note_on_c, 1, 52, 127
1, 109848, Note_off_c, 1, 62, 0
1, 109860, Note_on_c, 1, 60, 127
1, 109896, Note_off_c, 1, 52, 0
1, 109908, Note_off_c, 1, 60, 0
1, 109920, Note_on_c, 1, 59, 127
1, 109920, Note_on_c, 1, 53, 127
1, 109968, Note_off_c, 1, 59, 0
1, 109980, Note_on_c, 1, 57, 127
1, 109992, Note_off_c, 1, 74, 0
1, 110016, Note_off_c, 1, 53, 0
1, 110028, Note_off_c, 1, 57, 0
1, 110040, Note_on_c, 1, 77, 127
1, 110040, Note_on_c, 1, 55, 127
1, 110040, Note_on_c, 1, 45, 127
1, 110088, Note_off_c, 1, 55, 0
1, 110100, Note_on_c, 1, 53, 127
1, 110136, Note_off_c, 1, 45, 0
1, 110148, Note_off_c, 1, 53, 0
1, 110160, Note_on_c, 1, 47, 127
1, 110208, Note_off_c, 1, 77, 0
1, 110220, Note_on_c, 1, 72, 127
1, 110256, Note_off_c, 1, 47, 0
1, 110268, Note_off_c, 1, 72, 0
1, 110280, Note_on_c, 1, 74, 127
1, 110280, Note_on_c, 1, 65, 127
1, 110280, Note_on_c, 1, 43, 127
1, 110328, Note_off_c, 1, 74, 0
1, 110340, Note_on_c, 1, 71, 127
1, 110376, Note_off_c, 1, 65, 0
1, 110376, Note_off_c, 1, 43, 0
1, 110388, Note_off_c, 1, 71, 0
1, 110400, Note_on_c, 1, 72, 127
1, 110400, Note_on_c, 1, 64, 127
1, 110400, Note_on_c, 1, 48, 127
1, 110496, Note_off_c, 1, 72, 0
1, 110496, Note_off_c, 1, 64, 0
1, 110496, Note_off_c, 1, 48, 0
1, 110520, Note_on_c, 1, 74, 127
1, 110520, Note_on_c, 1, 69, 127
1, 110520, Note_on_c, 1, 53, 127
1, 110568, Note_off_c, 1, 69, 0
1, 110580, Note_on_c, 1, 67, 127
1, 110616, Note_off_c, 1, 74, 0
1, 110616, Note_off_c, 1, 53, 0
1, 110628, Note_off_c, 1, 67, 0
1, 110640, Note_on_c, 1, 67, 127
1, 110640, Note_on_c, 1, 65, 127
1, 110640, Note_on_c, 1, 55, 127
1, 110688, Note_off_c, 1, 65, 0
1, 110700, Note_on_c, 1, 64, 127
1, 110736, Note_off_c, 1, 67, 0
1, 110736, Note_off_c, 1, 55, 0
1, 110748, Note_off_c, 1, 64, 0
1, 110760, Note_on_c, 1, 71, 127
1, 110760, Note_on_c, 1, 62, 127
1, 110760, Note_on_c, 1, 43, 127
1, 110808, Note_off_c, 1, 62, 0
1, 110820, Note_on_c, 1, 60, 127
1, 110856, Note_off_c, 1, 71, 0
1, 110856, Note_off_c, 1, 43, 0
1, 110868, Note_off_c, 1, 60, 0
1, 110880, Note_on_c, 1, 72, 127
1, 110880, Note_on_c, 1, 60, 127
1, 110880, Note_on_c, 1, 48, 127
1, 111072, Note_off_c, 1, 72, 0
1, 111072, Note_off_c, 1, 60, 0
1, 111072, Note_off_c, 1, 48, 0
1, 111072, End_track
0, 0, End_of_file