0, 0, Header, 1, 1, 480
1, 0, Start_track
1, 0, Title_t, "Test"
1, 0, Tempo, 500000
1, 0, Instrument_name_t, "Church Organ"
1, 0, Note_on_c, 1, 71, 127
1, 96, Note_off_c, 1, 71, 0
1, 120, Note_on_c, 1, 76, 127
1, 120, Note_on_c, 1, 52, 127
1, 168, Note_off_c, 1, 76, 0
1, 180, Note_on_c, 1, 78, 127
1, 216, Note_off_c, 1, 52, 0
1, 228, Note_off_c, 1, 78, 0
1, 240, Note_on_c, 1, 79, 127
1, 240, Note_on_c, 1, 54, 127
1, 297, Note_off_c, 1, 79, 0
1, 300, Note_on_c, 1, 78, 127
1, 336, Note_off_c, 1, 54, 0
1, 348, Note_off_c, 1, 78, 0
1, 360, Note_on_c, 1, 76, 127
1, 360, Note_on_c, 1, 55, 127
1, 456, Note_off_c, 1, 76, 0
1, 456, Note_off_c, 1, 55, 0
1, 480, Note_on_c, 1, 75, 127
1, 480, Note_on_c, 1, 57, 127
1, 570, Note_off_c, 1, 75, 0
1, 576, Note_off_c, 1, 57, 0
1, 600, Note_on_c, 1, 76, 127
1, 600, Note_on_c, 1, 55, 127
1, 690, Note_off_c, 1, 76, 0
1, 696, Note_off_c, 1, 55, 0
1, 720, Note_on_c, 1, 57, 127
1, 816, Note_off_c, 1, 57, 0
1, 840, Note_on_c, 1, 69, 127
1, 840, Note_on_c, 1, 59, 127
1, 888, Note_off_c, 1, 69, 0
1, 900, Note_on_c, 1, 68, 127
1, 936, Note_off_c, 1, 59, 0
1, 960, Note_on_c, 1, 60, 127
1, 1013, Note_off_c, 1, 68, 0
1, 1050, Note_on_c, 1, 71, 127
1, 1056, Note_off_c, 1, 60, 0
1, 1074, Note_off_c, 1, 71, 0
1, 1080, Note_on_c, 1, 69, 127
1, 1080, Note_on_c, 1, 62, 127
1, 1104, Note_off_c, 1, 69, 0
1, 1110, Note_on_c, 1, 68, 127
1, 1134, Note_off_c, 1, 68, 0
1, 1140, Note_on_c, 1, 66, 127
1, 1164, Note_off_c, 1, 66, 0
1, 1170, Note_on_c, 1, 64, 127
1, 1176, Note_off_c, 1, 62, 0
1, 1194, Note_off_c, 1, 64, 0
1, 1200, Note_on_c, 1, 74, 127
1, 1200, Note_on_c, 1, 52, 127
1, 1224, Note_off_c, 1, 74, 0
1, 1230, Note_on_c, 1, 73, 127
1, 1254, Note_off_c, 1, 73, 0
1, 1260, Note_on_c, 1, 71, 127
1, 1296, Note_off_c, 1, 52, 0
1, 1317, Note_off_c, 1, 71, 0
1, 1320, Note_on_c, 1, 73, 127
1, 1320, Note_on_c, 1, 57, 127
1, 1410, Note_off_c, 1, 73, 0
1, 1416, Note_off_c, 1, 57, 0
1, 1440, Note_on_c, 1, 55, 127
1, 1536, Note_off_c, 1, 55, 0
1, 1560, Note_on_c, 1, 74, 127
1, 1560, Note_on_c, 1, 54, 127
1, 1589, Note_off_c, 1, 74, 0
1, 1590, Note_on_c, 1, 72, 127
1, 1605, Note_off_c, 1, 72, 0
1, 1605, Note_on_c, 1, 71, 127
1, 1620, Note_off_c, 1, 71, 0
1, 1656, Note_off_c, 1, 54, 0
1, 1680, Note_on_c, 1, 57, 127
1, 1740, Note_on_c, 1, 75, 127
1, 1776, Note_off_c, 1, 57, 0
1, 1800, Note_on_c, 1, 60, 127
1, 1836, Note_off_c, 1, 75, 0
1, 1860, Note_on_c, 1, 78, 127
1, 1896, Note_off_c, 1, 60, 0
1, 1908, Note_off_c, 1, 78, 0
1, 1920, Note_on_c, 1, 81, 127
1, 1920, Note_on_c, 1, 51, 127
1, 1968, Note_off_c, 1, 81, 0
1, 1980, Note_on_c, 1, 72, 127
1, 2016, Note_off_c, 1, 51, 0
1, 2028, Note_off_c, 1, 72, 0
1, 2040, Note_on_c, 1, 72, 127
1, 2040, Note_on_c, 1, 52, 127
1, 2088, Note_off_c, 1, 72, 0
1, 2100, Note_on_c, 1, 71, 127
1, 2136, Note_off_c, 1, 52, 0
1, 2160, Note_on_c, 1, 54, 127
1, 2213, Note_off_c, 1, 71, 0
1, 2220, Note_on_c, 1, 70, 127
1, 2256, Note_off_c, 1, 54, 0
1, 2268, Note_off_c, 1, 70, 0
1, 2280, Note_on_c, 1, 71, 127
1, 2280, Note_on_c, 1, 55, 127
1, 2304, Note_off_c, 1, 71, 0
1, 2310, Note_on_c, 1, 75, 127
1, 2334, Note_off_c, 1, 75, 0
1, 2340, Note_on_c, 1, 76, 127
1, 2376, Note_off_c, 1, 55, 0
1, 2388, Note_off_c, 1, 76, 0
1, 2400, Note_on_c, 1, 64, 127
1, 2400, Note_on_c, 1, 57, 127
1, 2448, Note_off_c, 1, 64, 0
1, 2460, Note_on_c, 1, 69, 127
1, 2496, Note_off_c, 1, 57, 0
1, 2520, Note_on_c, 1, 59, 127
1, 2556, Note_off_c, 1, 69, 0
1, 2580, Note_on_c, 1, 67, 127
1, 2604, Note_off_c, 1, 67, 0
1, 2610, Note_on_c, 1, 66, 127
1, 2616, Note_off_c, 1, 59, 0
1, 2634, Note_off_c, 1, 66, 0
1, 2640, Note_on_c, 1, 67, 127
1, 2640, Note_on_c, 1, 52, 127
1, 2688, Note_off_c, 1, 67, 0
1, 2700, Note_on_c, 1, 79, 127
1, 2736, Note_off_c, 1, 52, 0
1, 2748, Note_off_c, 1, 79, 0
1, 2760, Note_on_c, 1, 78, 127
1, 2760, Note_on_c, 1, 50, 127
1, 2856, Note_off_c, 1, 50, 0
1, 2873, Note_off_c, 1, 78, 0
1, 2880, Note_on_c, 1, 71, 127
1, 2880, Note_on_c, 1, 64, 127
1, 2880, Note_on_c, 1, 49, 127
1, 2928, Note_off_c, 1, 71, 0
1, 2940, Note_on_c, 1, 70, 127
1, 2976, Note_off_c, 1, 64, 0
1, 2976, Note_off_c, 1, 49, 0
1, 2988, Note_off_c, 1, 70, 0
1, 3000, Note_on_c, 1, 71, 127
1, 3000, Note_on_c, 1, 47, 127
1, 3030, Note_on_c, 1, 69, 127
1, 3048, Note_off_c, 1, 71, 0
1, 3054, Note_off_c, 1, 69, 0
1, 3060, Note_on_c, 1, 67, 127
1, 3060, Note_on_c, 1, 73, 127
1, 3096, Note_off_c, 1, 47, 0
1, 3108, Note_off_c, 1, 67, 0
1, 3108, Note_off_c, 1, 73, 0
1, 3120, Note_on_c, 1, 66, 127
1, 3120, Note_on_c, 1, 74, 127
1, 3120, Note_on_c, 1, 49, 127
1, 3177, Note_off_c, 1, 74, 0
1, 3180, Note_on_c, 1, 73, 127
1, 3216, Note_off_c, 1, 49, 0
1, 3228, Note_off_c, 1, 73, 0
1, 3240, Note_on_c, 1, 71, 127
1, 3240, Note_on_c, 1, 50, 127
1, 3336, Note_off_c, 1, 71, 0
1, 3336, Note_off_c, 1, 50, 0
1, 3360, Note_on_c, 1, 52, 127
1, 3420, Note_on_c, 1, 70, 127
1, 3456, Note_off_c, 1, 52, 0
1, 3465, Note_off_c, 1, 70, 0
1, 3504, Note_off_c, 1, 66, 0
1, 3540, Note_on_c, 1, 78, 127
1, 3588, Note_off_c, 1, 78, 0
1, 3600, Note_on_c, 1, 76, 127
1, 3600, Note_on_c, 1, 52, 127
1, 3624, Note_off_c, 1, 76, 0
1, 3630, Note_on_c, 1, 75, 127
1, 3654, Note_off_c, 1, 75, 0
1, 3660, Note_on_c, 1, 73, 127
1, 3684, Note_off_c, 1, 73, 0
1, 3696, Note_off_c, 1, 52, 0
1, 3720, Note_on_c, 1, 81, 127
1, 3720, Note_on_c, 1, 64, 127
1, 3720, Note_on_c, 1, 54, 127
1, 3768, Note_off_c, 1, 81, 0
1, 3768, Note_off_c, 1, 64, 0
1, 3780, Note_on_c, 1, 72, 127
1, 3780, Note_on_c, 1, 63, 127
1, 3816, Note_off_c, 1, 54, 0
1, 3828, Note_off_c, 1, 72, 0
1, 3840, Note_on_c, 1, 71, 127
1, 3840, Note_on_c, 1, 55, 127
1, 3893, Note_off_c, 1, 63, 0
1, 3930, Note_on_c, 1, 66, 127
1, 3936, Note_off_c, 1, 71, 0
1, 3936, Note_off_c, 1, 55, 0
1, 3959, Note_off_c, 1, 66, 0
1, 3960, Note_on_c, 1, 64, 127
1, 3960, Note_on_c, 1, 57, 127
1, 3989, Note_off_c, 1, 64, 0
1, 3990, Note_on_c, 1, 63, 127
1, 4019, Note_off_c, 1, 63, 0
1, 4020, Note_on_c, 1, 79, 127
1, 4020, Note_on_c, 1, 61, 127
1, 4049, Note_off_c, 1, 61, 0
1, 4050, Note_on_c, 1, 59, 127
1, 4056, Note_off_c, 1, 57, 0
1, 4068, Note_off_c, 1, 79, 0
1, 4079, Note_off_c, 1, 59, 0
1, 4080, Note_on_c, 1, 78, 127
1, 4080, Note_on_c, 1, 69, 127
1, 4080, Note_on_c, 1, 47, 127
1, 4104, Note_off_c, 1, 78, 0
1, 4109, Note_off_c, 1, 69, 0
1, 4110, Note_on_c, 1, 76, 127
1, 4110, Note_on_c, 1, 68, 127
1, 4134, Note_off_c, 1, 76, 0
1, 4139, Note_off_c, 1, 68, 0
1, 4140, Note_on_c, 1, 75, 127
1, 4140, Note_on_c, 1, 66, 127
1, 4176, Note_off_c, 1, 47, 0
1, 4188, Note_off_c, 1, 75, 0
1, 4197, Note_off_c, 1, 66, 0
1, 4200, Note_on_c, 1, 76, 127
1, 4200, Note_on_c, 1, 68, 127
1, 4200, Note_on_c, 1, 52, 127
1, 4248, Note_off_c, 1, 76, 0
1, 4260, Note_on_c, 1, 74, 127
1, 4284, Note_off_c, 1, 74, 0
1, 4290, Note_off_c, 1, 68, 0
1, 4290, Note_on_c, 1, 73, 127
1, 4296, Note_off_c, 1, 52, 0
1, 4314, Note_off_c, 1, 73, 0
1, 4320, Note_on_c, 1, 71, 127
1, 4320, Note_on_c, 1, 50, 127
1, 4344, Note_off_c, 1, 71, 0
1, 4350, Note_on_c, 1, 70, 127
1, 4374, Note_off_c, 1, 70, 0
1, 4416, Note_off_c, 1, 50, 0
1, 4440, Note_on_c, 1, 64, 127
1, 4440, Note_on_c, 1, 69, 127
1, 4440, Note_on_c, 1, 49, 127
1, 4469, Note_off_c, 1, 69, 0
1, 4470, Note_on_c, 1, 67, 127
1, 4485, Note_off_c, 1, 67, 0
1, 4485, Note_on_c, 1, 66, 127
1, 4488, Note_off_c, 1, 64, 0
1, 4500, Note_off_c, 1, 66, 0
1, 4500, Note_on_c, 1, 71, 127
1, 4536, Note_off_c, 1, 49, 0
1, 4548, Note_off_c, 1, 71, 0
1, 4560, Note_on_c, 1, 70, 127
1, 4560, Note_on_c, 1, 52, 127
1, 4656, Note_off_c, 1, 52, 0
1, 4680, Note_on_c, 1, 55, 127
1, 4716, Note_off_c, 1, 70, 0
1, 4740, Note_on_c, 1, 73, 127
1, 4776, Note_off_c, 1, 55, 0
1, 4788, Note_off_c, 1, 73, 0
1, 4800, Note_on_c, 1, 73, 127
1, 4800, Note_on_c, 1, 76, 127
1, 4800, Note_on_c, 1, 46, 127
1, 4848, Note_off_c, 1, 76, 0
1, 4857, Note_off_c, 1, 73, 0
1, 4860, Note_on_c, 1, 64, 127
1, 4860, Note_on_c, 1, 67, 127
1, 4896, Note_off_c, 1, 46, 0
1, 4908, Note_off_c, 1, 67, 0
1, 4917, Note_off_c, 1, 64, 0
1, 4920, Note_on_c, 1, 63, 127
1, 4920, Note_on_c, 1, 66, 127
1, 4920, Note_on_c, 1, 47, 127
1, 4977, Note_off_c, 1, 63, 0
1, 5016, Note_off_c, 1, 47, 0
1, 5040, Note_on_c, 1, 70, 127
1, 5040, Note_on_c, 1, 49, 127
1, 5064, Note_off_c, 1, 66, 0
1, 5100, Note_on_c, 1, 65, 127
1, 5136, Note_off_c, 1, 70, 0
1, 5136, Note_off_c, 1, 49, 0
1, 5148, Note_off_c, 1, 65, 0
1, 5160, Note_on_c, 1, 66, 127
1, 5160, Note_on_c, 1, 50, 127
1, 5184, Note_off_c, 1, 66, 0
1, 5190, Note_on_c, 1, 70, 127
1, 5214, Note_off_c, 1, 70, 0
1, 5220, Note_on_c, 1, 78, 127
1, 5220, Note_on_c, 1, 71, 127
1, 5256, Note_off_c, 1, 50, 0
1, 5268, Note_off_c, 1, 78, 0
1, 5268, Note_off_c, 1, 71, 0
1, 5280, Note_on_c, 1, 79, 127
1, 5280, Note_on_c, 1, 59, 127
1, 5280, Note_on_c, 1, 52, 127
1, 5328, Note_off_c, 1, 79, 0
1, 5328, Note_off_c, 1, 59, 0
1, 5340, Note_on_c, 1, 76, 127
1, 5340, Note_on_c, 1, 64, 127
1, 5376, Note_off_c, 1, 52, 0
1, 5388, Note_off_c, 1, 76, 0
1, 5400, Note_on_c, 1, 73, 127
1, 5400, Note_on_c, 1, 54, 127
1, 5436, Note_off_c, 1, 64, 0
1, 5448, Note_off_c, 1, 73, 0
1, 5460, Note_on_c, 1, 82, 127
1, 5460, Note_on_c, 1, 62, 127
1, 5484, Note_off_c, 1, 62, 0
1, 5490, Note_on_c, 1, 61, 127
1, 5496, Note_off_c, 1, 54, 0
1, 5508, Note_off_c, 1, 82, 0
1, 5514, Note_off_c, 1, 61, 0
1, 5520, Note_on_c, 1, 83, 127
1, 5520, Note_on_c, 1, 62, 127
1, 5520, Note_on_c, 1, 47, 127
1, 5568, Note_off_c, 1, 83, 0
1, 5580, Note_on_c, 1, 71, 127
1, 5616, Note_off_c, 1, 62, 0
1, 5616, Note_off_c, 1, 47, 0
1, 5640, Note_on_c, 1, 48, 127
1, 5676, Note_off_c, 1, 71, 0
1, 5700, Note_on_c, 1, 69, 127
1, 5736, Note_off_c, 1, 48, 0
1, 5760, Note_on_c, 1, 77, 127
1, 5760, Note_on_c, 1, 50, 127
1, 5784, Note_off_c, 1, 69, 0
1, 5790, Note_on_c, 1, 68, 127
1, 5814, Note_off_c, 1, 68, 0
1, 5856, Note_off_c, 1, 50, 0
1, 5880, Note_on_c, 1, 52, 127
1, 5928, Note_off_c, 1, 77, 0
1, 5940, Note_on_c, 1, 76, 127
1, 5976, Note_off_c, 1, 52, 0
1, 6000, Note_on_c, 1, 54, 127
1, 6036, Note_off_c, 1, 76, 0
1, 6060, Note_on_c, 1, 74, 127
1, 6096, Note_off_c, 1, 54, 0
1, 6120, Note_on_c, 1, 56, 127
1, 6144, Note_off_c, 1, 74, 0
1, 6150, Note_on_c, 1, 72, 127
1, 6174, Note_off_c, 1, 72, 0
1, 6216, Note_off_c, 1, 56, 0
1, 6240, Note_on_c, 1, 45, 127
1, 6300, Note_on_c, 1, 81, 127
1, 6336, Note_off_c, 1, 45, 0
1, 6396, Note_off_c, 1, 81, 0
1, 6420, Note_on_c, 1, 79, 127
1, 6480, Note_on_c, 1, 64, 127
1, 6504, Note_off_c, 1, 79, 0
1, 6510, Note_on_c, 1, 78, 127
1, 6534, Note_off_c, 1, 78, 0
1, 6648, Note_off_c, 1, 64, 0
1, 6780, Note_on_c, 1, 60, 127
1, 6864, Note_off_c, 1, 60, 0
1, 6870, Note_on_c, 1, 59, 127
1, 6894, Note_off_c, 1, 59, 0
1, 6900, Note_on_c, 1, 57, 127
1, 6948, Note_off_c, 1, 57, 0
1, 6960, Note_on_c, 1, 43, 127
1, 7020, Note_on_c, 1, 67, 127
1, 7056, Note_off_c, 1, 43, 0
1, 7116, Note_off_c, 1, 67, 0
1, 7140, Note_on_c, 1, 65, 127
1, 7224, Note_off_c, 1, 65, 0
1, 7500, Note_on_c, 1, 67, 127
1, 7500, Note_on_c, 1, 72, 127
1, 7500, Note_on_c, 1, 47, 127
1, 7548, Note_off_c, 1, 67, 0
1, 7548, Note_off_c, 1, 47, 0
1, 7560, Note_on_c, 1, 69, 127
1, 7560, Note_on_c, 1, 45, 127
1, 7656, Note_off_c, 1, 45, 0
1, 7680, Note_on_c, 1, 51, 127
1, 7704, Note_off_c, 1, 69, 0
1, 7740, Note_on_c, 1, 66, 127
1, 7776, Note_off_c, 1, 51, 0
1, 7788, Note_off_c, 1, 66, 0
1, 7800, Note_on_c, 1, 52, 127
1, 7824, Note_off_c, 1, 72, 0
1, 7860, Note_on_c, 1, 71, 127
1, 7884, Note_off_c, 1, 71, 0
1, 7890, Note_on_c, 1, 73, 127
1, 7896, Note_off_c, 1, 52, 0
1, 7914, Note_off_c, 1, 73, 0
1, 7920, Note_on_c, 1, 81, 127
1, 7920, Note_on_c, 1, 75, 127
1, 7920, Note_on_c, 1, 54, 127
1, 7944, Note_off_c, 1, 75, 0
1, 7950, Note_on_c, 1, 76, 127
1, 7974, Note_off_c, 1, 76, 0
1, 7980, Note_on_c, 1, 78, 127
1, 8016, Note_off_c, 1, 54, 0
1, 8028, Note_off_c, 1, 78, 0
1, 8040, Note_on_c, 1, 71, 127
1, 8040, Note_on_c, 1, 55, 127
1, 8064, Note_off_c, 1, 81, 0
1, 8070, Note_on_c, 1, 79, 127
1, 8094, Note_off_c, 1, 79, 0
1, 8136, Note_off_c, 1, 71, 0
1, 8184, Note_off_c, 1, 55, 0
1, 8280, Note_on_c, 1, 52, 127
1, 8376, Note_off_c, 1, 52, 0
1, 8400, Note_on_c, 1, 58, 127
1, 8430, Note_on_c, 1, 74, 127
1, 8454, Note_off_c, 1, 74, 0
1, 8460, Note_on_c, 1, 73, 127
1, 8496, Note_off_c, 1, 58, 0
1, 8508, Note_off_c, 1, 73, 0
1, 8520, Note_on_c, 1, 59, 127
1, 8616, Note_off_c, 1, 59, 0
1, 8640, Note_on_c, 1, 74, 127
1, 8640, Note_on_c, 1, 64, 127
1, 8640, Note_on_c, 1, 49, 127
1, 8664, Note_off_c, 1, 74, 0
1, 8670, Note_on_c, 1, 73, 127
1, 8694, Note_off_c, 1, 73, 0
1, 8700, Note_on_c, 1, 71, 127
1, 8736, Note_off_c, 1, 49, 0
1, 8748, Note_off_c, 1, 71, 0
1, 8760, Note_on_c, 1, 70, 127
1, 8760, Note_on_c, 1, 50, 127
1, 8784, Note_off_c, 1, 64, 0
1, 8790, Note_on_c, 1, 62, 127
1, 8814, Note_off_c, 1, 62, 0
1, 8820, Note_on_c, 1, 61, 127
1, 8856, Note_off_c, 1, 70, 0
1, 8868, Note_off_c, 1, 61, 0
1, 8904, Note_off_c, 1, 50, 0
1, 9000, Note_on_c, 1, 83, 127
1, 9000, Note_on_c, 1, 47, 127
1, 9096, Note_off_c, 1, 47, 0
1, 9120, Note_on_c, 1, 53, 127
1, 9144, Note_off_c, 1, 83, 0
1, 9150, Note_on_c, 1, 82, 127
1, 9174, Note_off_c, 1, 82, 0
1, 9180, Note_on_c, 1, 80, 127
1, 9216, Note_off_c, 1, 53, 0
1, 9228, Note_off_c, 1, 80, 0
1, 9240, Note_on_c, 1, 54, 127
1, 9330, Note_on_c, 1, 59, 127
1, 9336, Note_off_c, 1, 54, 0
1, 9354, Note_off_c, 1, 59, 0
1, 9360, Note_on_c, 1, 81, 127
1, 9360, Note_on_c, 1, 61, 127
1, 9384, Note_off_c, 1, 61, 0
1, 9390, Note_on_c, 1, 63, 127
1, 9414, Note_off_c, 1, 63, 0
1, 9420, Note_on_c, 1, 64, 127
1, 9468, Note_off_c, 1, 64, 0
1, 9480, Note_on_c, 1, 66, 127
1, 9480, Note_on_c, 1, 51, 127
1, 9504, Note_off_c, 1, 81, 0
1, 9510, Note_on_c, 1, 80, 127
1, 9534, Note_off_c, 1, 80, 0
1, 9540, Note_on_c, 1, 78, 127
1, 9576, Note_off_c, 1, 51, 0
1, 9588, Note_off_c, 1, 78, 0
1, 9600, Note_on_c, 1, 52, 127
1, 9624, Note_off_c, 1, 66, 0
1, 9696, Note_off_c, 1, 52, 0
1, 9720, Note_on_c, 1, 79, 127
1, 9720, Note_on_c, 1, 64, 127
1, 9744, Note_off_c, 1, 64, 0
1, 9750, Note_on_c, 1, 66, 127
1, 9774, Note_off_c, 1, 66, 0
1, 9780, Note_on_c, 1, 67, 127
1, 9828, Note_off_c, 1, 67, 0
1, 9840, Note_on_c, 1, 70, 127
1, 9840, Note_on_c, 1, 49, 127
1, 9864, Note_off_c, 1, 79, 0
1, 9870, Note_on_c, 1, 78, 127
1, 9894, Note_off_c, 1, 78, 0
1, 9900, Note_on_c, 1, 77, 127
1, 9936, Note_off_c, 1, 49, 0
1, 9948, Note_off_c, 1, 77, 0
1, 9960, Note_on_c, 1, 50, 127
1, 9984, Note_off_c, 1, 70, 0
1, 10020, Note_on_c, 1, 71, 127
1, 10044, Note_off_c, 1, 71, 0
1, 10056, Note_off_c, 1, 50, 0
1, 10080, Note_on_c, 1, 77, 127
1, 10080, Note_on_c, 1, 71, 127
1, 10104, Note_off_c, 1, 71, 0
1, 10110, Note_on_c, 1, 73, 127
1, 10134, Note_off_c, 1, 73, 0
1, 10140, Note_on_c, 1, 74, 127
1, 10188, Note_off_c, 1, 74, 0
1, 10200, Note_on_c, 1, 68, 127
1, 10200, Note_on_c, 1, 47, 127
1, 10224, Note_off_c, 1, 77, 0
1, 10230, Note_on_c, 1, 76, 127
1, 10254, Note_off_c, 1, 76, 0
1, 10260, Note_on_c, 1, 75, 127
1, 10296, Note_off_c, 1, 47, 0
1, 10308, Note_off_c, 1, 75, 0
1, 10320, Note_on_c, 1, 48, 127
1, 10344, Note_off_c, 1, 68, 0
1, 10380, Note_on_c, 1, 69, 127
1, 10404, Note_off_c, 1, 69, 0
1, 10416, Note_off_c, 1, 48, 0
1, 10440, Note_on_c, 1, 64, 127
1, 10440, Note_on_c, 1, 69, 127
1, 10464, Note_off_c, 1, 69, 0
1, 10470, Note_on_c, 1, 67, 127
1, 10494, Note_off_c, 1, 67, 0
1, 10500, Note_on_c, 1, 66, 127
1, 10548, Note_off_c, 1, 66, 0
1, 10560, Note_on_c, 1, 46, 127
1, 10584, Note_off_c, 1, 64, 0
1, 10590, Note_on_c, 1, 62, 127
1, 10614, Note_off_c, 1, 62, 0
1, 10620, Note_on_c, 1, 61, 127
1, 10656, Note_off_c, 1, 46, 0
1, 10668, Note_off_c, 1, 61, 0
1, 10680, Note_on_c, 1, 47, 127
1, 10770, Note_on_c, 1, 65, 127
1, 10776, Note_off_c, 1, 47, 0
1, 10794, Note_off_c, 1, 65, 0
1, 10800, Note_on_c, 1, 74, 127
1, 10800, Note_on_c, 1, 66, 127
1, 10824, Note_off_c, 1, 66, 0
1, 10830, Note_on_c, 1, 70, 127
1, 10854, Note_off_c, 1, 70, 0
1, 10860, Note_on_c, 1, 71, 127
1, 10908, Note_off_c, 1, 71, 0
1, 10920, Note_on_c, 1, 59, 127
1, 10920, Note_on_c, 1, 43, 127
1, 10944, Note_off_c, 1, 74, 0
1, 10950, Note_on_c, 1, 73, 127
1, 10974, Note_off_c, 1, 73, 0
1, 11016, Note_off_c, 1, 59, 0
1, 11016, Note_off_c, 1, 43, 0
1, 11040, Note_on_c, 1, 73, 127
1, 11040, Note_on_c, 1, 64, 127
1, 11040, Note_on_c, 1, 40, 127
1, 11130, Note_off_c, 1, 73, 0
1, 11130, Note_off_c, 1, 64, 0
1, 11136, Note_off_c, 1, 40, 0
1, 11160, Note_on_c, 1, 71, 127
1, 11160, Note_on_c, 1, 62, 127
1, 11160, Note_on_c, 1, 42, 127
1, 11172, Note_off_c, 1, 71, 0
1, 11172, Note_off_c, 1, 62, 0
1, 11175, Note_on_c, 1, 70, 127
1, 11175, Note_on_c, 1, 61, 127
1, 11187, Note_off_c, 1, 70, 0
1, 11187, Note_off_c, 1, 61, 0
1, 11256, Note_off_c, 1, 42, 0
1, 11280, Note_on_c, 1, 59, 127
1, 11280, Note_on_c, 1, 47, 127
1, 11472, Note_off_c, 1, 59, 0
1, 11505, Note_off_c, 1, 47, 0
1, 11520, Note_on_c, 1, 71, 127
1, 11616, Note_off_c, 1, 71, 0
1, 11640, Note_on_c, 1, 76, 127
1, 11640, Note_on_c, 1, 52, 127
1, 11688, Note_off_c, 1, 76, 0
1, 11700, Note_on_c, 1, 78, 127
1, 11736, Note_off_c, 1, 52, 0
1, 11748, Note_off_c, 1, 78, 0
1, 11760, Note_on_c, 1, 79, 127
1, 11760, Note_on_c, 1, 54, 127
1, 11817, Note_off_c, 1, 79, 0
1, 11820, Note_on_c, 1, 78, 127
1, 11856, Note_off_c, 1, 54, 0
1, 11868, Note_off_c, 1, 78, 0
1, 11880, Note_on_c, 1, 76, 127
1, 11880, Note_on_c, 1, 55, 127
1, 11976, Note_off_c, 1, 76, 0
1, 11976, Note_off_c, 1, 55, 0
1, 12000, Note_on_c, 1, 75, 127
1, 12000, Note_on_c, 1, 57, 127
1, 12090, Note_off_c, 1, 75, 0
1, 12096, Note_off_c, 1, 57, 0
1, 12120, Note_on_c, 1, 76, 127
1, 12120, Note_on_c, 1, 55, 127
1, 12210, Note_off_c, 1, 76, 0
1, 12216, Note_off_c, 1, 55, 0
1, 12240, Note_on_c, 1, 57, 127
1, 12336, Note_off_c, 1, 57, 0
1, 12360, Note_on_c, 1, 69, 127
1, 12360, Note_on_c, 1, 59, 127
1, 12408, Note_off_c, 1, 69, 0
1, 12420, Note_on_c, 1, 68, 127
1, 12456, Note_off_c, 1, 59, 0
1, 12480, Note_on_c, 1, 60, 127
1, 12533, Note_off_c, 1, 68, 0
1, 12570, Note_on_c, 1, 71, 127
1, 12576, Note_off_c, 1, 60, 0
1, 12594, Note_off_c, 1, 71, 0
1, 12600, Note_on_c, 1, 69, 127
1, 12600, Note_on_c, 1, 62, 127
1, 12624, Note_off_c, 1, 69, 0
1, 12630, Note_on_c, 1, 68, 127
1, 12654, Note_off_c, 1, 68, 0
1, 12660, Note_on_c, 1, 66, 127
1, 12684, Note_off_c, 1, 66, 0
1, 12690, Note_on_c, 1, 64, 127
1, 12696, Note_off_c, 1, 62, 0
1, 12714, Note_off_c, 1, 64, 0
1, 12720, Note_on_c, 1, 74, 127
1, 12720, Note_on_c, 1, 52, 127
1, 12744, Note_off_c, 1, 74, 0
1, 12750, Note_on_c, 1, 73, 127
1, 12774, Note_off_c, 1, 73, 0
1, 12780, Note_on_c, 1, 71, 127
1, 12816, Note_off_c, 1, 52, 0
1, 12837, Note_off_c, 1, 71, 0
1, 12840, Note_on_c, 1, 73, 127
1, 12840, Note_on_c, 1, 57, 127
1, 12930, Note_off_c, 1, 73, 0
1, 12936, Note_off_c, 1, 57, 0
1, 12960, Note_on_c, 1, 55, 127
1, 13056, Note_off_c, 1, 55, 0
1, 13080, Note_on_c, 1, 74, 127
1, 13080, Note_on_c, 1, 54, 127
1, 13109, Note_off_c, 1, 74, 0
1, 13110, Note_on_c, 1, 72, 127
1, 13125, Note_off_c, 1, 72, 0
1, 13125, Note_on_c, 1, 71, 127
1, 13140, Note_off_c, 1, 71, 0
1, 13176, Note_off_c, 1, 54, 0
1, 13200, Note_on_c, 1, 57, 127
1, 13260, Note_on_c, 1, 75, 127
1, 13296, Note_off_c, 1, 57, 0
1, 13320, Note_on_c, 1, 60, 127
1, 13356, Note_off_c, 1, 75, 0
1, 13380, Note_on_c, 1, 78, 127
1, 13416, Note_off_c, 1, 60, 0
1, 13428, Note_off_c, 1, 78, 0
1, 13440, Note_on_c, 1, 81, 127
1, 13440, Note_on_c, 1, 51, 127
1, 13488, Note_off_c, 1, 81, 0
1, 13500, Note_on_c, 1, 72, 127
1, 13536, Note_off_c, 1, 51, 0
1, 13548, Note_off_c, 1, 72, 0
1, 13560, Note_on_c, 1, 72, 127
1, 13560, Note_on_c, 1, 52, 127
1, 13608, Note_off_c, 1, 72, 0
1, 13620, Note_on_c, 1, 71, 127
1, 13656, Note_off_c, 1, 52, 0
1, 13680, Note_on_c, 1, 54, 127
1, 13733, Note_off_c, 1, 71, 0
1, 13740, Note_on_c, 1, 70, 127
1, 13776, Note_off_c, 1, 54, 0
1, 13788, Note_off_c, 1, 70, 0
1, 13800, Note_on_c, 1, 71, 127
1, 13800, Note_on_c, 1, 55, 127
1, 13824, Note_off_c, 1, 71, 0
1, 13830, Note_on_c, 1, 75, 127
1, 13854, Note_off_c, 1, 75, 0
1, 13860, Note_on_c, 1, 76, 127
1, 13896, Note_off_c, 1, 55, 0
1, 13908, Note_off_c, 1, 76, 0
1, 13920, Note_on_c, 1, 64, 127
1, 13920, Note_on_c, 1, 57, 127
1, 13968, Note_off_c, 1, 64, 0
1, 13980, Note_on_c, 1, 69, 127
1, 14016, Note_off_c, 1, 57, 0
1, 14040, Note_on_c, 1, 59, 127
1, 14076, Note_off_c, 1, 69, 0
1, 14100, Note_on_c, 1, 67, 127
1, 14124, Note_off_c, 1, 67, 0
1, 14130, Note_on_c, 1, 66, 127
1, 14136, Note_off_c, 1, 59, 0
1, 14154, Note_off_c, 1, 66, 0
1, 14160, Note_on_c, 1, 67, 127
1, 14160, Note_on_c, 1, 52, 127
1, 14208, Note_off_c, 1, 67, 0
1, 14220, Note_on_c, 1, 79, 127
1, 14256, Note_off_c, 1, 52, 0
1, 14268, Note_off_c, 1, 79, 0
1, 14280, Note_on_c, 1, 78, 127
1, 14280, Note_on_c, 1, 50, 127
1, 14376, Note_off_c, 1, 50, 0
1, 14393, Note_off_c, 1, 78, 0
1, 14400, Note_on_c, 1, 71, 127
1, 14400, Note_on_c, 1, 64, 127
1, 14400, Note_on_c, 1, 49, 127
1, 14448, Note_off_c, 1, 71, 0
1, 14460, Note_on_c, 1, 70, 127
1, 14496, Note_off_c, 1, 64, 0
1, 14496, Note_off_c, 1, 49, 0
1, 14508, Note_off_c, 1, 70, 0
1, 14520, Note_on_c, 1, 71, 127
1, 14520, Note_on_c, 1, 47, 127
1, 14550, Note_on_c, 1, 69, 127
1, 14568, Note_off_c, 1, 71, 0
1, 14574, Note_off_c, 1, 69, 0
1, 14580, Note_on_c, 1, 67, 127
1, 14580, Note_on_c, 1, 73, 127
1, 14616, Note_off_c, 1, 47, 0
1, 14628, Note_off_c, 1, 67, 0
1, 14628, Note_off_c, 1, 73, 0
1, 14640, Note_on_c, 1, 66, 127
1, 14640, Note_on_c, 1, 74, 127
1, 14640, Note_on_c, 1, 49, 127
1, 14697, Note_off_c, 1, 74, 0
1, 14700, Note_on_c, 1, 73, 127
1, 14736, Note_off_c, 1, 49, 0
1, 14748, Note_off_c, 1, 73, 0
1, 14760, Note_on_c, 1, 71, 127
1, 14760, Note_on_c, 1, 50, 127
1, 14856, Note_off_c, 1, 71, 0
1, 14856, Note_off_c, 1, 50, 0
1, 14880, Note_on_c, 1, 52, 127
1, 14940, Note_on_c, 1, 70, 127
1, 14976, Note_off_c, 1, 52, 0
1, 14985, Note_off_c, 1, 70, 0
1, 15024, Note_off_c, 1, 66, 0
1, 15060, Note_on_c, 1, 78, 127
1, 15108, Note_off_c, 1, 78, 0
1, 15120, Note_on_c, 1, 76, 127
1, 15120, Note_on_c, 1, 52, 127
1, 15144, Note_off_c, 1, 76, 0
1, 15150, Note_on_c, 1, 75, 127
1, 15174, Note_off_c, 1, 75, 0
1, 15180, Note_on_c, 1, 73, 127
1, 15204, Note_off_c, 1, 73, 0
1, 15216, Note_off_c, 1, 52, 0
1, 15240, Note_on_c, 1, 81, 127
1, 15240, Note_on_c, 1, 64, 127
1, 15240, Note_on_c, 1, 54, 127
1, 15288, Note_off_c, 1, 81, 0
1, 15288, Note_off_c, 1, 64, 0
1, 15300, Note_on_c, 1, 72, 127
1, 15300, Note_on_c, 1, 63, 127
1, 15336, Note_off_c, 1, 54, 0
1, 15348, Note_off_c, 1, 72, 0
1, 15360, Note_on_c, 1, 71, 127
1, 15360, Note_on_c, 1, 55, 127
1, 15413, Note_off_c, 1, 63, 0
1, 15450, Note_on_c, 1, 66, 127
1, 15456, Note_off_c, 1, 71, 0
1, 15456, Note_off_c, 1, 55, 0
1, 15479, Note_off_c, 1, 66, 0
1, 15480, Note_on_c, 1, 64, 127
1, 15480, Note_on_c, 1, 57, 127
1, 15509, Note_off_c, 1, 64, 0
1, 15510, Note_on_c, 1, 63, 127
1, 15539, Note_off_c, 1, 63, 0
1, 15540, Note_on_c, 1, 79, 127
1, 15540, Note_on_c, 1, 61, 127
1, 15569, Note_off_c, 1, 61, 0
1, 15570, Note_on_c, 1, 59, 127
1, 15576, Note_off_c, 1, 57, 0
1, 15588, Note_off_c, 1, 79, 0
1, 15599, Note_off_c, 1, 59, 0
1, 15600, Note_on_c, 1, 78, 127
1, 15600, Note_on_c, 1, 69, 127
1, 15600, Note_on_c, 1, 47, 127
1, 15624, Note_off_c, 1, 78, 0
1, 15629, Note_off_c, 1, 69, 0
1, 15630, Note_on_c, 1, 76, 127
1, 15630, Note_on_c, 1, 68, 127
1, 15654, Note_off_c, 1, 76, 0
1, 15659, Note_off_c, 1, 68, 0
1, 15660, Note_on_c, 1, 75, 127
1, 15660, Note_on_c, 1, 66, 127
1, 15696, Note_off_c, 1, 47, 0
1, 15708, Note_off_c, 1, 75, 0
1, 15717, Note_off_c, 1, 66, 0
1, 15720, Note_on_c, 1, 76, 127
1, 15720, Note_on_c, 1, 68, 127
1, 15720, Note_on_c, 1, 52, 127
1, 15768, Note_off_c, 1, 76, 0
1, 15780, Note_on_c, 1, 74, 127
1, 15804, Note_off_c, 1, 74, 0
1, 15810, Note_off_c, 1, 68, 0
1, 15810, Note_on_c, 1, 73, 127
1, 15816, Note_off_c, 1, 52, 0
1, 15834, Note_off_c, 1, 73, 0
1, 15840, Note_on_c, 1, 71, 127
1, 15840, Note_on_c, 1, 50, 127
1, 15864, Note_off_c, 1, 71, 0
1, 15870, Note_on_c, 1, 70, 127
1, 15894, Note_off_c, 1, 70, 0
1, 15936, Note_off_c, 1, 50, 0
1, 15960, Note_on_c, 1, 64, 127
1, 15960, Note_on_c, 1, 69, 127
1, 15960, Note_on_c, 1, 49, 127
1, 15989, Note_off_c, 1, 69, 0
1, 15990, Note_on_c, 1, 67, 127
1, 16005, Note_off_c, 1, 67, 0
1, 16005, Note_on_c, 1, 66, 127
1, 16008, Note_off_c, 1, 64, 0
1, 16020, Note_off_c, 1, 66, 0
1, 16020, Note_on_c, 1, 71, 127
1, 16056, Note_off_c, 1, 49, 0
1, 16068, Note_off_c, 1, 71, 0
1, 16080, Note_on_c, 1, 70, 127
1, 16080, Note_on_c, 1, 52, 127
1, 16176, Note_off_c, 1, 52, 0
1, 16200, Note_on_c, 1, 55, 127
1, 16236, Note_off_c, 1, 70, 0
1, 16260, Note_on_c, 1, 73, 127
1, 16296, Note_off_c, 1, 55, 0
1, 16308, Note_off_c, 1, 73, 0
1, 16320, Note_on_c, 1, 73, 127
1, 16320, Note_on_c, 1, 76, 127
1, 16320, Note_on_c, 1, 46, 127
1, 16368, Note_off_c, 1, 76, 0
1, 16377, Note_off_c, 1, 73, 0
1, 16380, Note_on_c, 1, 64, 127
1, 16380, Note_on_c, 1, 67, 127
1, 16416, Note_off_c, 1, 46, 0
1, 16428, Note_off_c, 1, 67, 0
1, 16437, Note_off_c, 1, 64, 0
1, 16440, Note_on_c, 1, 63, 127
1, 16440, Note_on_c, 1, 66, 127
1, 16440, Note_on_c, 1, 47, 127
1, 16497, Note_off_c, 1, 63, 0
1, 16536, Note_off_c, 1, 47, 0
1, 16560, Note_on_c, 1, 70, 127
1, 16560, Note_on_c, 1, 49, 127
1, 16584, Note_off_c, 1, 66, 0
1, 16620, Note_on_c, 1, 65, 127
1, 16656, Note_off_c, 1, 70, 0
1, 16656, Note_off_c, 1, 49, 0
1, 16668, Note_off_c, 1, 65, 0
1, 16680, Note_on_c, 1, 66, 127
1, 16680, Note_on_c, 1, 50, 127
1, 16704, Note_off_c, 1, 66, 0
1, 16710, Note_on_c, 1, 70, 127
1, 16734, Note_off_c, 1, 70, 0
1, 16740, Note_on_c, 1, 78, 127
1, 16740, Note_on_c, 1, 71, 127
1, 16776, Note_off_c, 1, 50, 0
1, 16788, Note_off_c, 1, 78, 0
1, 16788, Note_off_c, 1, 71, 0
1, 16800, Note_on_c, 1, 79, 127
1, 16800, Note_on_c, 1, 59, 127
1, 16800, Note_on_c, 1, 52, 127
1, 16848, Note_off_c, 1, 79, 0
1, 16848, Note_off_c, 1, 59, 0
1, 16860, Note_on_c, 1, 76, 127
1, 16860, Note_on_c, 1, 64, 127
1, 16896, Note_off_c, 1, 52, 0
1, 16908, Note_off_c, 1, 76, 0
1, 16920, Note_on_c, 1, 73, 127
1, 16920, Note_on_c, 1, 54, 127
1, 16956, Note_off_c, 1, 64, 0
1, 16968, Note_off_c, 1, 73, 0
1, 16980, Note_on_c, 1, 82, 127
1, 16980, Note_on_c, 1, 62, 127
1, 17004, Note_off_c, 1, 62, 0
1, 17010, Note_on_c, 1, 61, 127
1, 17016, Note_off_c, 1, 54, 0
1, 17028, Note_off_c, 1, 82, 0
1, 17034, Note_off_c, 1, 61, 0
1, 17040, Note_on_c, 1, 83, 127
1, 17040, Note_on_c, 1, 62, 127
1, 17040, Note_on_c, 1, 47, 127
1, 17088, Note_off_c, 1, 83, 0
1, 17100, Note_on_c, 1, 71, 127
1, 17136, Note_off_c, 1, 62, 0
1, 17136, Note_off_c, 1, 47, 0
1, 17160, Note_on_c, 1, 48, 127
1, 17196, Note_off_c, 1, 71, 0
1, 17220, Note_on_c, 1, 69, 127
1, 17256, Note_off_c, 1, 48, 0
1, 17280, Note_on_c, 1, 77, 127
1, 17280, Note_on_c, 1, 50, 127
1, 17304, Note_off_c, 1, 69, 0
1, 17310, Note_on_c, 1, 68, 127
1, 17334, Note_off_c, 1, 68, 0
1, 17376, Note_off_c, 1, 50, 0
1, 17400, Note_on_c, 1, 52, 127
1, 17448, Note_off_c, 1, 77, 0
1, 17460, Note_on_c, 1, 76, 127
1, 17496, Note_off_c, 1, 52, 0
1, 17520, Note_on_c, 1, 54, 127
1, 17556, Note_off_c, 1, 76, 0
1, 17580, Note_on_c, 1, 74, 127
1, 17616, Note_off_c, 1, 54, 0
1, 17640, Note_on_c, 1, 56, 127
1, 17664, Note_off_c, 1, 74, 0
1, 17670, Note_on_c, 1, 72, 127
1, 17694, Note_off_c, 1, 72, 0
1, 17736, Note_off_c, 1, 56, 0
1, 17760, Note_on_c, 1, 45, 127
1, 17820, Note_on_c, 1, 81, 127
1, 17856, Note_off_c, 1, 45, 0
1, 17916, Note_off_c, 1, 81, 0
1, 17940, Note_on_c, 1, 79, 127
1, 18000, Note_on_c, 1, 64, 127
1, 18024, Note_off_c, 1, 79, 0
1, 18030, Note_on_c, 1, 78, 127
1, 18054, Note_off_c, 1, 78, 0
1, 18168, Note_off_c, 1, 64, 0
1, 18300, Note_on_c, 1, 60, 127
1, 18384, Note_off_c, 1, 60, 0
1, 18390, Note_on_c, 1, 59, 127
1, 18414, Note_off_c, 1, 59, 0
1, 18420, Note_on_c, 1, 57, 127
1, 18468, Note_off_c, 1, 57, 0
1, 18480, Note_on_c, 1, 43, 127
1, 18540, Note_on_c, 1, 67, 127
1, 18576, Note_off_c, 1, 43, 0
1, 18636, Note_off_c, 1, 67, 0
1, 18660, Note_on_c, 1, 65, 127
1, 18744, Note_off_c, 1, 65, 0
1, 19020, Note_on_c, 1, 67, 127
1, 19020, Note_on_c, 1, 72, 127
1, 19020, Note_on_c, 1, 47, 127
1, 19068, Note_off_c, 1, 67, 0
1, 19068, Note_off_c, 1, 47, 0
1, 19080, Note_on_c, 1, 69, 127
1, 19080, Note_on_c, 1, 45, 127
1, 19176, Note_off_c, 1, 45, 0
1, 19200, Note_on_c, 1, 51, 127
1, 19224, Note_off_c, 1, 69, 0
1, 19260, Note_on_c, 1, 66, 127
1, 19296, Note_off_c, 1, 51, 0
1, 19308, Note_off_c, 1, 66, 0
1, 19320, Note_on_c, 1, 52, 127
1, 19344, Note_off_c, 1, 72, 0
1, 19380, Note_on_c, 1, 71, 127
1, 19404, Note_off_c, 1, 71, 0
1, 19410, Note_on_c, 1, 73, 127
1, 19416, Note_off_c, 1, 52, 0
1, 19434, Note_off_c, 1, 73, 0
1, 19440, Note_on_c, 1, 81, 127
1, 19440, Note_on_c, 1, 75, 127
1, 19440, Note_on_c, 1, 54, 127
1, 19464, Note_off_c, 1, 75, 0
1, 19470, Note_on_c, 1, 76, 127
1, 19494, Note_off_c, 1, 76, 0
1, 19500, Note_on_c, 1, 78, 127
1, 19536, Note_off_c, 1, 54, 0
1, 19548, Note_off_c, 1, 78, 0
1, 19560, Note_on_c, 1, 71, 127
1, 19560, Note_on_c, 1, 55, 127
1, 19584, Note_off_c, 1, 81, 0
1, 19590, Note_on_c, 1, 79, 127
1, 19614, Note_off_c, 1, 79, 0
1, 19656, Note_off_c, 1, 71, 0
1, 19704, Note_off_c, 1, 55, 0
1, 19800, Note_on_c, 1, 52, 127
1, 19896, Note_off_c, 1, 52, 0
1, 19920, Note_on_c, 1, 58, 127
1, 19950, Note_on_c, 1, 74, 127
1, 19974, Note_off_c, 1, 74, 0
1, 19980, Note_on_c, 1, 73, 127
1, 20016, Note_off_c, 1, 58, 0
1, 20028, Note_off_c, 1, 73, 0
1, 20040, Note_on_c, 1, 59, 127
1, 20136, Note_off_c, 1, 59, 0
1, 20160, Note_on_c, 1, 74, 127
1, 20160, Note_on_c, 1, 64, 127
1, 20160, Note_on_c, 1, 49, 127
1, 20184, Note_off_c, 1, 74, 0
1, 20190, Note_on_c, 1, 73, 127
1, 20214, Note_off_c, 1, 73, 0
1, 20220, Note_on_c, 1, 71, 127
1, 20256, Note_off_c, 1, 49, 0
1, 20268, Note_off_c, 1, 71, 0
1, 20280, Note_on_c, 1, 70, 127
1, 20280, Note_on_c, 1, 50, 127
1, 20304, Note_off_c, 1, 64, 0
1, 20310, Note_on_c, 1, 62, 127
1, 20334, Note_off_c, 1, 62, 0
1, 20340, Note_on_c, 1, 61, 127
1, 20376, Note_off_c, 1, 70, 0
1, 20388, Note_off_c, 1, 61, 0
1, 20424, Note_off_c, 1, 50, 0
1, 20520, Note_on_c, 1, 83, 127
1, 20520, Note_on_c, 1, 47, 127
1, 20616, Note_off_c, 1, 47, 0
1, 20640, Note_on_c, 1, 53, 127
1, 20664, Note_off_c, 1, 83, 0
1, 20670, Note_on_c, 1, 82, 127
1, 20694, Note_off_c, 1, 82, 0
1, 20700, Note_on_c, 1, 80, 127
1, 20736, Note_off_c, 1, 53, 0
1, 20748, Note_off_c, 1, 80, 0
1, 20760, Note_on_c, 1, 54, 127
1, 20850, Note_on_c, 1, 59, 127
1, 20856, Note_off_c, 1, 54, 0
1, 20874, Note_off_c, 1, 59, 0
1, 20880, Note_on_c, 1, 81, 127
1, 20880, Note_on_c, 1, 61, 127
1, 20904, Note_off_c, 1, 61, 0
1, 20910, Note_on_c, 1, 63, 127
1, 20934, Note_off_c, 1, 63, 0
1, 20940, Note_on_c, 1, 64, 127
1, 20988, Note_off_c, 1, 64, 0
1, 21000, Note_on_c, 1, 66, 127
1, 21000, Note_on_c, 1, 51, 127
1, 21024, Note_off_c, 1, 81, 0
1, 21030, Note_on_c, 1, 80, 127
1, 21054, Note_off_c, 1, 80, 0
1, 21060, Note_on_c, 1, 78, 127
1, 21096, Note_off_c, 1, 51, 0
1, 21108, Note_off_c, 1, 78, 0
1, 21120, Note_on_c, 1, 52, 127
1, 21144, Note_off_c, 1, 66, 0
1, 21216, Note_off_c, 1, 52, 0
1, 21240, Note_on_c, 1, 79, 127
1, 21240, Note_on_c, 1, 64, 127
1, 21264, Note_off_c, 1, 64, 0
1, 21270, Note_on_c, 1, 66, 127
1, 21294, Note_off_c, 1, 66, 0
1, 21300, Note_on_c, 1, 67, 127
1, 21348, Note_off_c, 1, 67, 0
1, 21360, Note_on_c, 1, 70, 127
1, 21360, Note_on_c, 1, 49, 127
1, 21384, Note_off_c, 1, 79, 0
1, 21390, Note_on_c, 1, 78, 127
1, 21414, Note_off_c, 1, 78, 0
1, 21420, Note_on_c, 1, 77, 127
1, 21456, Note_off_c, 1, 49, 0
1, 21468, Note_off_c, 1, 77, 0
1, 21480, Note_on_c, 1, 50, 127
1, 21504, Note_off_c, 1, 70, 0
1, 21540, Note_on_c, 1, 71, 127
1, 21564, Note_off_c, 1, 71, 0
1, 21576, Note_off_c, 1, 50, 0
1, 21600, Note_on_c, 1, 77, 127
1, 21600, Note_on_c, 1, 71, 127
1, 21624, Note_off_c, 1, 71, 0
1, 21630, Note_on_c, 1, 73, 127
1, 21654, Note_off_c, 1, 73, 0
1, 21660, Note_on_c, 1, 74, 127
1, 21708, Note_off_c, 1, 74, 0
1, 21720, Note_on_c, 1, 68, 127
1, 21720, Note_on_c, 1, 47, 127
1, 21744, Note_off_c, 1, 77, 0
1, 21750, Note_on_c, 1, 76, 127
1, 21774, Note_off_c, 1, 76, 0
1, 21780, Note_on_c, 1, 75, 127
1, 21816, Note_off_c, 1, 47, 0
1, 21828, Note_off_c, 1, 75, 0
1, 21840, Note_on_c, 1, 48, 127
1, 21864, Note_off_c, 1, 68, 0
1, 21900, Note_on_c, 1, 69, 127
1, 21924, Note_off_c, 1, 69, 0
1, 21936, Note_off_c, 1, 48, 0
1, 21960, Note_on_c, 1, 64, 127
1, 21960, Note_on_c, 1, 69, 127
1, 21984, Note_off_c, 1, 69, 0
1, 21990, Note_on_c, 1, 67, 127
1, 22014, Note_off_c, 1, 67, 0
1, 22020, Note_on_c, 1, 66, 127
1, 22068, Note_off_c, 1, 66, 0
1, 22080, Note_on_c, 1, 46, 127
1, 22104, Note_off_c, 1, 64, 0
1, 22110, Note_on_c, 1, 62, 127
1, 22134, Note_off_c, 1, 62, 0
1, 22140, Note_on_c, 1, 61, 127
1, 22176, Note_off_c, 1, 46, 0
1, 22188, Note_off_c, 1, 61, 0
1, 22200, Note_on_c, 1, 47, 127
1, 22290, Note_on_c, 1, 65, 127
1, 22296, Note_off_c, 1, 47, 0
1, 22314, Note_off_c, 1, 65, 0
1, 22320, Note_on_c, 1, 74, 127
1, 22320, Note_on_c, 1, 66, 127
1, 22344, Note_off_c, 1, 66, 0
1, 22350, Note_on_c, 1, 70, 127
1, 22374, Note_off_c, 1, 70, 0
1, 22380, Note_on_c, 1, 71, 127
1, 22428, Note_off_c, 1, 71, 0
1, 22440, Note_on_c, 1, 59, 127
1, 22440, Note_on_c, 1, 43, 127
1, 22470, Note_on_c, 1, 73, 127
1, 22494, Note_off_c, 1, 73, 0
1, 22536, Note_off_c, 1, 59, 0
1, 22536, Note_off_c, 1, 43, 0
1, 22560, Note_on_c, 1, 64, 127
1, 22560, Note_on_c, 1, 40, 127
1, 22650, Note_off_c, 1, 64, 0
1, 22656, Note_off_c, 1, 40, 0
1, 22680, Note_on_c, 1, 62, 127
1, 22680, Note_on_c, 1, 42, 127
1, 22692, Note_off_c, 1, 62, 0
1, 22695, Note_on_c, 1, 61, 127
1, 22707, Note_off_c, 1, 61, 0
1, 22776, Note_off_c, 1, 42, 0
1, 22800, Note_on_c, 1, 47, 127
1, 23025, Note_off_c, 1, 47, 0
1, 23064, Note_off_c, 1, 74, 0
1, 23160, Note_on_c, 1, 73, 127
1, 23160, Note_on_c, 1, 64, 127
1, 23160, Note_on_c, 1, 40, 127
1, 23250, Note_off_c, 1, 73, 0
1, 23250, Note_off_c, 1, 64, 0
1, 23256, Note_off_c, 1, 40, 0
1, 23280, Note_on_c, 1, 71, 127
1, 23280, Note_on_c, 1, 62, 127
1, 23280, Note_on_c, 1, 42, 127
1, 23295, Note_off_c, 1, 71, 0
1, 23295, Note_off_c, 1, 62, 0
1, 23295, Note_on_c, 1, 70, 127
1, 23295, Note_on_c, 1, 61, 127
1, 23310, Note_off_c, 1, 70, 0
1, 23310, Note_off_c, 1, 61, 0
1, 23376, Note_off_c, 1, 42, 0
1, 23385, Note_on_c, 1, 70, 127
1, 23385, Note_on_c, 1, 61, 127
1, 23397, Note_off_c, 1, 70, 0
1, 23397, Note_off_c, 1, 61, 0
1, 23400, Note_on_c, 1, 71, 127
1, 23400, Note_on_c, 1, 59, 127
1, 23400, Note_on_c, 1, 47, 127
1, 23496, Note_off_c, 1, 47, 0
1, 23513, Note_off_c, 1, 59, 0
1, 23520, Note_on_c, 1, 50, 127
1, 23592, Note_off_c, 1, 71, 0
1, 23616, Note_off_c, 1, 50, 0
1, 23640, Note_on_c, 1, 66, 127
1, 23640, Note_on_c, 1, 54, 127
1, 23736, Note_off_c, 1, 66, 0
1, 23736, Note_off_c, 1, 54, 0
1, 23760, Note_on_c, 1, 64, 127
1, 23760, Note_on_c, 1, 63, 127
1, 23760, Note_on_c, 1, 57, 127
1, 23775, Note_off_c, 1, 64, 0
1, 23856, Note_off_c, 1, 57, 0
1, 23904, Note_off_c, 1, 63, 0
1, 23940, Note_on_c, 1, 59, 127
1, 23964, Note_off_c, 1, 59, 0
1, 23970, Note_on_c, 1, 61, 127
1, 23994, Note_off_c, 1, 61, 0
1, 24000, Note_on_c, 1, 63, 127
1, 24000, Note_on_c, 1, 57, 127
1, 24024, Note_off_c, 1, 63, 0
1, 24030, Note_on_c, 1, 64, 127
1, 24054, Note_off_c, 1, 64, 0
1, 24060, Note_on_c, 1, 66, 127
1, 24096, Note_off_c, 1, 57, 0
1, 24108, Note_off_c, 1, 66, 0
1, 24120, Note_on_c, 1, 69, 127
1, 24120, Note_on_c, 1, 54, 127
1, 24216, Note_off_c, 1, 54, 0
1, 24264, Note_off_c, 1, 69, 0
1, 24300, Note_on_c, 1, 63, 127
1, 24324, Note_off_c, 1, 63, 0
1, 24330, Note_on_c, 1, 64, 127
1, 24354, Note_off_c, 1, 64, 0
1, 24360, Note_on_c, 1, 66, 127
1, 24360, Note_on_c, 1, 54, 127
1, 24384, Note_off_c, 1, 66, 0
1, 24390, Note_on_c, 1, 67, 127
1, 24414, Note_off_c, 1, 67, 0
1, 24420, Note_on_c, 1, 69, 127
1, 24456, Note_off_c, 1, 54, 0
1, 24468, Note_off_c, 1, 69, 0
1, 24480, Note_on_c, 1, 72, 127
1, 24480, Note_on_c, 1, 51, 127
1, 24528, Note_off_c, 1, 72, 0
1, 24540, Note_on_c, 1, 71, 127
1, 24576, Note_off_c, 1, 51, 0
1, 24636, Note_off_c, 1, 71, 0
1, 24660, Note_on_c, 1, 69, 127
1, 24684, Note_off_c, 1, 69, 0
1, 24690, Note_on_c, 1, 67, 127
1, 24714, Note_off_c, 1, 67, 0
1, 24720, Note_on_c, 1, 66, 127
1, 24720, Note_on_c, 1, 51, 127
1, 24744, Note_off_c, 1, 66, 0
1, 24750, Note_on_c, 1, 67, 127
1, 24774, Note_off_c, 1, 67, 0
1, 24780, Note_on_c, 1, 69, 127
1, 24816, Note_off_c, 1, 51, 0
1, 24840, Note_on_c, 1, 52, 127
1, 24888, Note_off_c, 1, 69, 0
1, 24936, Note_off_c, 1, 52, 0
1, 24960, Note_on_c, 1, 55, 127
1, 25050, Note_on_c, 1, 64, 127
1, 25056, Note_off_c, 1, 55, 0
1, 25074, Note_off_c, 1, 64, 0
1, 25080, Note_on_c, 1, 71, 127
1, 25080, Note_on_c, 1, 63, 127
1, 25080, Note_on_c, 1, 59, 127
1, 25104, Note_off_c, 1, 63, 0
1, 25110, Note_on_c, 1, 64, 127
1, 25134, Note_off_c, 1, 64, 0
1, 25140, Note_on_c, 1, 66, 127
1, 25176, Note_off_c, 1, 71, 0
1, 25176, Note_off_c, 1, 59, 0
1, 25188, Note_off_c, 1, 66, 0
1, 25200, Note_on_c, 1, 69, 127
1, 25200, Note_on_c, 1, 64, 127
1, 25200, Note_on_c, 1, 62, 127
1, 25248, Note_off_c, 1, 69, 0
1, 25248, Note_off_c, 1, 64, 0
1, 25260, Note_on_c, 1, 68, 127
1, 25296, Note_off_c, 1, 62, 0
1, 25320, Note_on_c, 1, 71, 127
1, 25373, Note_off_c, 1, 68, 0
1, 25410, Note_on_c, 1, 66, 127
1, 25416, Note_off_c, 1, 71, 0
1, 25434, Note_off_c, 1, 66, 0
1, 25440, Note_on_c, 1, 68, 127
1, 25440, Note_on_c, 1, 62, 127
1, 25464, Note_off_c, 1, 68, 0
1, 25470, Note_on_c, 1, 69, 127
1, 25494, Note_off_c, 1, 69, 0
1, 25500, Note_on_c, 1, 71, 127
1, 25536, Note_off_c, 1, 62, 0
1, 25557, Note_off_c, 1, 71, 0
1, 25560, Note_on_c, 1, 74, 127
1, 25560, Note_on_c, 1, 68, 127
1, 25560, Note_on_c, 1, 59, 127
1, 25608, Note_off_c, 1, 68, 0
1, 25620, Note_on_c, 1, 71, 127
1, 25656, Note_off_c, 1, 59, 0
1, 25668, Note_off_c, 1, 71, 0
1, 25770, Note_on_c, 1, 69, 127
1, 25776, Note_off_c, 1, 74, 0
1, 25794, Note_off_c, 1, 69, 0
1, 25800, Note_on_c, 1, 71, 127
1, 25800, Note_on_c, 1, 59, 127
1, 25824, Note_off_c, 1, 71, 0
1, 25830, Note_on_c, 1, 72, 127
1, 25854, Note_off_c, 1, 72, 0
1, 25860, Note_on_c, 1, 74, 127
1, 25896, Note_off_c, 1, 59, 0
1, 25908, Note_off_c, 1, 74, 0
1, 25920, Note_on_c, 1, 77, 127
1, 25920, Note_on_c, 1, 56, 127
1, 25968, Note_off_c, 1, 77, 0
1, 25980, Note_on_c, 1, 76, 127
1, 26016, Note_off_c, 1, 56, 0
1, 26040, Note_on_c, 1, 71, 127
1, 26076, Note_off_c, 1, 76, 0
1, 26088, Note_off_c, 1, 71, 0
1, 26100, Note_on_c, 1, 74, 127
1, 26130, Note_on_c, 1, 72, 127
1, 26148, Note_off_c, 1, 74, 0
1, 26154, Note_off_c, 1, 72, 0
1, 26160, Note_on_c, 1, 71, 127
1, 26160, Note_on_c, 1, 77, 127
1, 26160, Note_on_c, 1, 56, 127
1, 26184, Note_off_c, 1, 71, 0
1, 26190, Note_on_c, 1, 72, 127
1, 26214, Note_off_c, 1, 72, 0
1, 26220, Note_on_c, 1, 74, 127
1, 26256, Note_off_c, 1, 77, 0
1, 26256, Note_off_c, 1, 56, 0
1, 26280, Note_on_c, 1, 76, 127
1, 26280, Note_on_c, 1, 57, 127
1, 26328, Note_off_c, 1, 74, 0
1, 26376, Note_off_c, 1, 76, 0
1, 26376, Note_off_c, 1, 57, 0
1, 26400, Note_on_c, 1, 69, 127
1, 26400, Note_on_c, 1, 48, 127
1, 26496, Note_off_c, 1, 48, 0
1, 26514, Note_off_c, 1, 69, 0
1, 26520, Note_on_c, 1, 68, 127
1, 26520, Note_on_c, 1, 71, 127
1, 26520, Note_on_c, 1, 52, 127
1, 26544, Note_off_c, 1, 68, 0
1, 26550, Note_on_c, 1, 69, 127
1, 26574, Note_off_c, 1, 69, 0
1, 26616, Note_off_c, 1, 52, 0
1, 26628, Note_off_c, 1, 71, 0
1, 26640, Note_on_c, 1, 69, 127
1, 26640, Note_on_c, 1, 72, 127
1, 26640, Note_on_c, 1, 45, 127
1, 26663, Note_off_c, 1, 72, 0
1, 26670, Note_on_c, 1, 77, 127
1, 26694, Note_off_c, 1, 77, 0
1, 26700, Note_on_c, 1, 76, 127
1, 26724, Note_off_c, 1, 76, 0
1, 26730, Note_on_c, 1, 74, 127
1, 26736, Note_off_c, 1, 69, 0
1, 26754, Note_off_c, 1, 74, 0
1, 26784, Note_off_c, 1, 45, 0
1, 26790, Note_on_c, 1, 81, 127
1, 26814, Note_off_c, 1, 81, 0
1, 26820, Note_on_c, 1, 79, 127
1, 26820, Note_on_c, 1, 47, 127
1, 26844, Note_off_c, 1, 79, 0
1, 26850, Note_on_c, 1, 77, 127
1, 26868, Note_off_c, 1, 47, 0
1, 26874, Note_off_c, 1, 77, 0
1, 26880, Note_on_c, 1, 76, 127
1, 26880, Note_on_c, 1, 79, 127
1, 26880, Note_on_c, 1, 49, 127
1, 26903, Note_off_c, 1, 79, 0
1, 26910, Note_on_c, 1, 70, 127
1, 26934, Note_off_c, 1, 70, 0
1, 26940, Note_on_c, 1, 69, 127
1, 26964, Note_off_c, 1, 69, 0
1, 26970, Note_on_c, 1, 67, 127
1, 26976, Note_off_c, 1, 49, 0
1, 26994, Note_off_c, 1, 67, 0
1, 27000, Note_on_c, 1, 73, 127
1, 27000, Note_on_c, 1, 43, 127
1, 27024, Note_off_c, 1, 76, 0
1, 27090, Note_off_c, 1, 73, 0
1, 27096, Note_off_c, 1, 43, 0
1, 27120, Note_on_c, 1, 69, 127
1, 27120, Note_on_c, 1, 74, 127
1, 27120, Note_on_c, 1, 41, 127
1, 27143, Note_off_c, 1, 69, 0
1, 27150, Note_on_c, 1, 75, 127
1, 27174, Note_off_c, 1, 75, 0
1, 27210, Note_off_c, 1, 74, 0
1, 27210, Note_on_c, 1, 73, 127
1, 27216, Note_off_c, 1, 41, 0
1, 27234, Note_off_c, 1, 73, 0
1, 27240, Note_on_c, 1, 74, 127
1, 27263, Note_off_c, 1, 74, 0
1, 27270, Note_on_c, 1, 82, 127
1, 27294, Note_off_c, 1, 82, 0
1, 27300, Note_on_c, 1, 81, 127
1, 27324, Note_off_c, 1, 81, 0
1, 27330, Note_on_c, 1, 80, 127
1, 27354, Note_off_c, 1, 80, 0
1, 27360, Note_on_c, 1, 81, 127
1, 27360, Note_on_c, 1, 75, 127
1, 27360, Note_on_c, 1, 47, 127
1, 27383, Note_off_c, 1, 75, 0
1, 27390, Note_on_c, 1, 79, 127
1, 27414, Note_off_c, 1, 79, 0
1, 27420, Note_on_c, 1, 78, 127
1, 27444, Note_off_c, 1, 78, 0
1, 27450, Note_off_c, 1, 81, 0
1, 27450, Note_on_c, 1, 76, 127
1, 27474, Note_off_c, 1, 76, 0
1, 27504, Note_off_c, 1, 47, 0
1, 27510, Note_on_c, 1, 83, 127
1, 27534, Note_off_c, 1, 83, 0
1, 27540, Note_on_c, 1, 49, 127
1, 27588, Note_off_c, 1, 49, 0
1, 27600, Note_on_c, 1, 78, 127
1, 27600, Note_on_c, 1, 81, 127
1, 27600, Note_on_c, 1, 51, 127
1, 27623, Note_off_c, 1, 81, 0
1, 27630, Note_on_c, 1, 72, 127
1, 27654, Note_off_c, 1, 72, 0
1, 27660, Note_on_c, 1, 71, 127
1, 27684, Note_off_c, 1, 71, 0
1, 27690, Note_on_c, 1, 69, 127
1, 27696, Note_off_c, 1, 51, 0
1, 27714, Note_off_c, 1, 69, 0
1, 27720, Note_on_c, 1, 75, 127
1, 27720, Note_on_c, 1, 45, 127
1, 27744, Note_off_c, 1, 78, 0
1, 27810, Note_off_c, 1, 75, 0
1, 27816, Note_off_c, 1, 45, 0
1, 27840, Note_on_c, 1, 71, 127
1, 27840, Note_on_c, 1, 76, 127
1, 27840, Note_on_c, 1, 43, 127
1, 27863, Note_off_c, 1, 71, 0
1, 27870, Note_on_c, 1, 77, 127
1, 27894, Note_off_c, 1, 77, 0
1, 27930, Note_off_c, 1, 76, 0
1, 27930, Note_on_c, 1, 75, 127
1, 27936, Note_off_c, 1, 43, 0
1, 27954, Note_off_c, 1, 75, 0
1, 27960, Note_on_c, 1, 76, 127
1, 27983, Note_off_c, 1, 76, 0
1, 27990, Note_on_c, 1, 84, 127
1, 28014, Note_off_c, 1, 84, 0
1, 28020, Note_on_c, 1, 83, 127
1, 28044, Note_off_c, 1, 83, 0
1, 28050, Note_on_c, 1, 82, 127
1, 28074, Note_off_c, 1, 82, 0
1, 28080, Note_on_c, 1, 83, 127
1, 28080, Note_on_c, 1, 56, 127
1, 28140, Note_on_c, 1, 64, 127
1, 28164, Note_off_c, 1, 64, 0
1, 28170, Note_on_c, 1, 66, 127
1, 28176, Note_off_c, 1, 83, 0
1, 28194, Note_off_c, 1, 66, 0
1, 28200, Note_on_c, 1, 68, 127
1, 28224, Note_off_c, 1, 56, 0
1, 28224, Note_off_c, 1, 68, 0
1, 28230, Note_on_c, 1, 69, 127
1, 28254, Note_off_c, 1, 69, 0
1, 28260, Note_on_c, 1, 77, 127
1, 28260, Note_on_c, 1, 71, 127
1, 28260, Note_on_c, 1, 57, 127
1, 28284, Note_off_c, 1, 77, 0
1, 28284, Note_off_c, 1, 71, 0
1, 28290, Note_on_c, 1, 76, 127
1, 28290, Note_on_c, 1, 72, 127
1, 28308, Note_off_c, 1, 57, 0
1, 28314, Note_off_c, 1, 76, 0
1, 28314, Note_off_c, 1, 72, 0
1, 28320, Note_on_c, 1, 74, 127
1, 28320, Note_on_c, 1, 59, 127
1, 28350, Note_on_c, 1, 72, 127
1, 28374, Note_off_c, 1, 72, 0
1, 28380, Note_on_c, 1, 71, 127
1, 28404, Note_off_c, 1, 71, 0
1, 28410, Note_on_c, 1, 69, 127
1, 28416, Note_off_c, 1, 59, 0
1, 28434, Note_off_c, 1, 69, 0
1, 28440, Note_on_c, 1, 53, 127
1, 28455, Note_on_c, 1, 68, 127
1, 28464, Note_off_c, 1, 74, 0
1, 28467, Note_off_c, 1, 68, 0
1, 28536, Note_off_c, 1, 53, 0
1, 28560, Note_on_c, 1, 69, 127
1, 28560, Note_on_c, 1, 71, 127
1, 28560, Note_on_c, 1, 52, 127
1, 28572, Note_off_c, 1, 69, 0
1, 28575, Note_on_c, 1, 68, 127
1, 28584, Note_off_c, 1, 71, 0
1, 28587, Note_off_c, 1, 68, 0
1, 28590, Note_on_c, 1, 72, 127
1, 28614, Note_off_c, 1, 72, 0
1, 28620, Note_on_c, 1, 74, 127
1, 28644, Note_off_c, 1, 74, 0
1, 28650, Note_on_c, 1, 76, 127
1, 28656, Note_off_c, 1, 52, 0
1, 28674, Note_off_c, 1, 76, 0
1, 28680, Note_on_c, 1, 69, 127
1, 28680, Note_on_c, 1, 77, 127
1, 28692, Note_off_c, 1, 69, 0
1, 28695, Note_on_c, 1, 68, 127
1, 28704, Note_off_c, 1, 77, 0
1, 28707, Note_off_c, 1, 68, 0
1, 28710, Note_on_c, 1, 69, 127
1, 28710, Note_on_c, 1, 76, 127
1, 28722, Note_off_c, 1, 69, 0
1, 28725, Note_on_c, 1, 68, 127
1, 28734, Note_off_c, 1, 76, 0
1, 28737, Note_off_c, 1, 68, 0
1, 28740, Note_on_c, 1, 69, 127
1, 28740, Note_on_c, 1, 75, 127
1, 28752, Note_off_c, 1, 69, 0
1, 28755, Note_on_c, 1, 68, 127
1, 28764, Note_off_c, 1, 75, 0
1, 28767, Note_off_c, 1, 68, 0
1, 28770, Note_on_c, 1, 69, 127
1, 28770, Note_on_c, 1, 76, 127
1, 28782, Note_off_c, 1, 69, 0
1, 28785, Note_on_c, 1, 68, 127
1, 28794, Note_off_c, 1, 76, 0
1, 28797, Note_off_c, 1, 68, 0
1, 28800, Note_on_c, 1, 68, 127
1, 28800, Note_on_c, 1, 74, 127
1, 28800, Note_on_c, 1, 52, 127
1, 28815, Note_off_c, 1, 74, 0
1, 28815, Note_on_c, 1, 73, 127
1, 28824, Note_off_c, 1, 68, 0
1, 28827, Note_off_c, 1, 73, 0
1, 28830, Note_on_c, 1, 71, 127
1, 28854, Note_off_c, 1, 71, 0
1, 28860, Note_on_c, 1, 69, 127
1, 28884, Note_off_c, 1, 69, 0
1, 28896, Note_off_c, 1, 52, 0
1, 28920, Note_on_c, 1, 69, 127
1, 28920, Note_on_c, 1, 74, 127
1, 28920, Note_on_c, 1, 51, 127
1, 28932, Note_off_c, 1, 74, 0
1, 28935, Note_on_c, 1, 73, 127
1, 28944, Note_off_c, 1, 69, 0
1, 28947, Note_off_c, 1, 73, 0
1, 28980, Note_on_c, 1, 76, 127
1, 29004, Note_off_c, 1, 76, 0
1, 29010, Note_on_c, 1, 80, 127
1, 29016, Note_off_c, 1, 51, 0
1, 29034, Note_off_c, 1, 80, 0
1, 29040, Note_on_c, 1, 81, 127
1, 29160, Note_on_c, 1, 52, 127
1, 29256, Note_off_c, 1, 81, 0
1, 29256, Note_off_c, 1, 52, 0
1, 29280, Note_on_c, 1, 79, 127
1, 29280, Note_on_c, 1, 71, 127
1, 29280, Note_on_c, 1, 40, 127
1, 29370, Note_off_c, 1, 79, 0
1, 29370, Note_off_c, 1, 71, 0
1, 29376, Note_off_c, 1, 40, 0
1, 29400, Note_on_c, 1, 64, 127
1, 29400, Note_on_c, 1, 44, 127
1, 29496, Note_off_c, 1, 64, 0
1, 29496, Note_off_c, 1, 44, 0
1, 29520, Note_on_c, 1, 69, 127
1, 29520, Note_on_c, 1, 45, 127
1, 29568, Note_off_c, 1, 69, 0
1, 29580, Note_on_c, 1, 71, 127
1, 29616, Note_off_c, 1, 45, 0
1, 29628, Note_off_c, 1, 71, 0
1, 29640, Note_on_c, 1, 72, 127
1, 29640, Note_on_c, 1, 47, 127
1, 29697, Note_off_c, 1, 72, 0
1, 29700, Note_on_c, 1, 71, 127
1, 29736, Note_off_c, 1, 47, 0
1, 29757, Note_off_c, 1, 71, 0
1, 29760, Note_on_c, 1, 69, 127
1, 29760, Note_on_c, 1, 48, 127
1, 29856, Note_off_c, 1, 69, 0
1, 29856, Note_off_c, 1, 48, 0
1, 29880, Note_on_c, 1, 69, 127
1, 29880, Note_on_c, 1, 50, 127
1, 29904, Note_off_c, 1, 69, 0
1, 29910, Note_on_c, 1, 68, 127
1, 29934, Note_off_c, 1, 68, 0
1, 29976, Note_off_c, 1, 50, 0
1, 30000, Note_on_c, 1, 69, 127
1, 30000, Note_on_c, 1, 48, 127
1, 30090, Note_off_c, 1, 69, 0
1, 30096, Note_off_c, 1, 48, 0
1, 30120, Note_on_c, 1, 50, 127
1, 30216, Note_off_c, 1, 50, 0
1, 30240, Note_on_c, 1, 62, 127
1, 30240, Note_on_c, 1, 52, 127
1, 30288, Note_off_c, 1, 62, 0
1, 30300, Note_on_c, 1, 61, 127
1, 30336, Note_off_c, 1, 52, 0
1, 30360, Note_on_c, 1, 53, 127
1, 30413, Note_off_c, 1, 61, 0
1, 30450, Note_on_c, 1, 64, 127
1, 30456, Note_off_c, 1, 53, 0
1, 30474, Note_off_c, 1, 64, 0
1, 30480, Note_on_c, 1, 62, 127
1, 30480, Note_on_c, 1, 55, 127
1, 30504, Note_off_c, 1, 62, 0
1, 30510, Note_on_c, 1, 61, 127
1, 30534, Note_off_c, 1, 61, 0
1, 30540, Note_on_c, 1, 59, 127
1, 30564, Note_off_c, 1, 59, 0
1, 30570, Note_on_c, 1, 57, 127
1, 30576, Note_off_c, 1, 55, 0
1, 30594, Note_off_c, 1, 57, 0
1, 30600, Note_on_c, 1, 67, 127
1, 30600, Note_on_c, 1, 45, 127
1, 30624, Note_off_c, 1, 67, 0
1, 30630, Note_on_c, 1, 66, 127
1, 30654, Note_off_c, 1, 66, 0
1, 30660, Note_on_c, 1, 64, 127
1, 30696, Note_off_c, 1, 45, 0
1, 30708, Note_off_c, 1, 64, 0
1, 30720, Note_on_c, 1, 66, 127
1, 30720, Note_on_c, 1, 50, 127
1, 30816, Note_off_c, 1, 66, 0
1, 30816, Note_off_c, 1, 50, 0
1, 30840, Note_on_c, 1, 48, 127
1, 30936, Note_off_c, 1, 48, 0
1, 30960, Note_on_c, 1, 67, 127
1, 30960, Note_on_c, 1, 47, 127
1, 30967, Note_off_c, 1, 67, 0
1, 30967, Note_on_c, 1, 65, 127
1, 30974, Note_off_c, 1, 65, 0
1, 30988, Note_on_c, 1, 64, 127
1, 31012, Note_off_c, 1, 64, 0
1, 31056, Note_off_c, 1, 47, 0
1, 31080, Note_on_c, 1, 50, 127
1, 31138, Note_on_c, 1, 68, 127
1, 31176, Note_off_c, 1, 50, 0
1, 31200, Note_on_c, 1, 53, 127
1, 31234, Note_off_c, 1, 68, 0
1, 31258, Note_on_c, 1, 71, 127
1, 31296, Note_off_c, 1, 53, 0
1, 31306, Note_off_c, 1, 71, 0
1, 31318, Note_on_c, 1, 74, 127
1, 31320, Note_on_c, 1, 44, 127
1, 31366, Note_off_c, 1, 74, 0
1, 31378, Note_on_c, 1, 65, 127
1, 31416, Note_off_c, 1, 44, 0
1, 31426, Note_off_c, 1, 65, 0
1, 31438, Note_on_c, 1, 64, 127
1, 31440, Note_on_c, 1, 45, 127
1, 31536, Note_off_c, 1, 45, 0
1, 31560, Note_on_c, 1, 47, 127
1, 31582, Note_off_c, 1, 64, 0
1, 31618, Note_on_c, 1, 63, 127
1, 31656, Note_off_c, 1, 47, 0
1, 31666, Note_off_c, 1, 63, 0
1, 31680, Note_on_c, 1, 64, 127
1, 31680, Note_on_c, 1, 48, 127
1, 31704, Note_off_c, 1, 64, 0
1, 31710, Note_on_c, 1, 68, 127
1, 31734, Note_off_c, 1, 68, 0
1, 31740, Note_on_c, 1, 69, 127
1, 31776, Note_off_c, 1, 48, 0
1, 31788, Note_off_c, 1, 69, 0
1, 31800, Note_on_c, 1, 57, 127
1, 31800, Note_on_c, 1, 50, 127
1, 31848, Note_off_c, 1, 57, 0
1, 31860, Note_on_c, 1, 62, 127
1, 31896, Note_off_c, 1, 50, 0
1, 31920, Note_on_c, 1, 52, 127
1, 31956, Note_off_c, 1, 62, 0
1, 31980, Note_on_c, 1, 60, 127
1, 32004, Note_off_c, 1, 60, 0
1, 32010, Note_on_c, 1, 59, 127
1, 32016, Note_off_c, 1, 52, 0
1, 32034, Note_off_c, 1, 59, 0
1, 32040, Note_on_c, 1, 60, 127
1, 32040, Note_on_c, 1, 45, 127
1, 32088, Note_off_c, 1, 60, 0
1, 32100, Note_on_c, 1, 72, 127
1, 32136, Note_off_c, 1, 45, 0
1, 32148, Note_off_c, 1, 72, 0
1, 32160, Note_on_c, 1, 71, 127
1, 32160, Note_on_c, 1, 43, 127
1, 32208, Note_off_c, 1, 71, 0
1, 32220, Note_on_c, 1, 64, 127
1, 32256, Note_off_c, 1, 43, 0
1, 32280, Note_on_c, 1, 69, 127
1, 32280, Note_on_c, 1, 42, 127
1, 32316, Note_off_c, 1, 64, 0
1, 32340, Note_on_c, 1, 63, 127
1, 32376, Note_off_c, 1, 69, 0
1, 32376, Note_off_c, 1, 42, 0
1, 32388, Note_off_c, 1, 63, 0
1, 32400, Note_on_c, 1, 76, 127
1, 32400, Note_on_c, 1, 64, 127
1, 32400, Note_on_c, 1, 40, 127
1, 32424, Note_off_c, 1, 64, 0
1, 32430, Note_on_c, 1, 62, 127
1, 32448, Note_off_c, 1, 76, 0
1, 32454, Note_off_c, 1, 62, 0
1, 32460, Note_on_c, 1, 78, 127
1, 32460, Note_on_c, 1, 60, 127
1, 32496, Note_off_c, 1, 40, 0
1, 32508, Note_off_c, 1, 78, 0
1, 32508, Note_off_c, 1, 60, 0
1, 32520, Note_on_c, 1, 79, 127
1, 32520, Note_on_c, 1, 59, 127
1, 32520, Note_on_c, 1, 42, 127
1, 32577, Note_off_c, 1, 79, 0
1, 32580, Note_on_c, 1, 78, 127
1, 32616, Note_off_c, 1, 42, 0
1, 32628, Note_off_c, 1, 78, 0
1, 32640, Note_on_c, 1, 76, 127
1, 32640, Note_on_c, 1, 43, 127
1, 32712, Note_off_c, 1, 59, 0
1, 32736, Note_off_c, 1, 76, 0
1, 32736, Note_off_c, 1, 43, 0
1, 32760, Note_on_c, 1, 75, 127
1, 32760, Note_on_c, 1, 59, 127
1, 32760, Note_on_c, 1, 45, 127
1, 32856, Note_off_c, 1, 75, 0
1, 32856, Note_off_c, 1, 45, 0
1, 32880, Note_on_c, 1, 76, 127
1, 32880, Note_on_c, 1, 43, 127
1, 32904, Note_off_c, 1, 59, 0
1, 32940, Note_on_c, 1, 71, 127
1, 32976, Note_off_c, 1, 76, 0
1, 32976, Note_off_c, 1, 43, 0
1, 32988, Note_off_c, 1, 71, 0
1, 33000, Note_on_c, 1, 69, 127
1, 33000, Note_on_c, 1, 45, 127
1, 33024, Note_off_c, 1, 69, 0
1, 33030, Note_on_c, 1, 68, 127
1, 33054, Note_off_c, 1, 68, 0
1, 33060, Note_on_c, 1, 66, 127
1, 33084, Note_off_c, 1, 66, 0
1, 33096, Note_off_c, 1, 45, 0
1, 33120, Note_on_c, 1, 68, 127
1, 33120, Note_on_c, 1, 74, 127
1, 33120, Note_on_c, 1, 47, 127
1, 33168, Note_off_c, 1, 74, 0
1, 33180, Note_on_c, 1, 65, 127
1, 33216, Note_off_c, 1, 47, 0
1, 33228, Note_off_c, 1, 65, 0
1, 33240, Note_on_c, 1, 64, 127
1, 33240, Note_on_c, 1, 48, 127
1, 33264, Note_off_c, 1, 68, 0
1, 33300, Note_on_c, 1, 69, 127
1, 33324, Note_off_c, 1, 69, 0
1, 33330, Note_on_c, 1, 71, 127
1, 33336, Note_off_c, 1, 64, 0
1, 33336, Note_off_c, 1, 48, 0
1, 33354, Note_off_c, 1, 71, 0
1, 33360, Note_on_c, 1, 69, 127
1, 33360, Note_on_c, 1, 50, 127
1, 33384, Note_off_c, 1, 69, 0
1, 33390, Note_on_c, 1, 68, 127
1, 33414, Note_off_c, 1, 68, 0
1, 33420, Note_on_c, 1, 66, 127
1, 33420, Note_on_c, 1, 72, 127
1, 33444, Note_off_c, 1, 66, 0
1, 33450, Note_on_c, 1, 64, 127
1, 33456, Note_off_c, 1, 50, 0
1, 33468, Note_off_c, 1, 72, 0
1, 33474, Note_off_c, 1, 64, 0
1, 33480, Note_on_c, 1, 74, 127
1, 33480, Note_on_c, 1, 71, 127
1, 33480, Note_on_c, 1, 40, 127
1, 33504, Note_off_c, 1, 74, 0
1, 33504, Note_off_c, 1, 71, 0
1, 33510, Note_on_c, 1, 73, 127
1, 33510, Note_on_c, 1, 69, 127
1, 33534, Note_off_c, 1, 73, 0
1, 33534, Note_off_c, 1, 69, 0
1, 33540, Note_on_c, 1, 68, 127
1, 33576, Note_off_c, 1, 40, 0
1, 33588, Note_off_c, 1, 68, 0
1, 33600, Note_on_c, 1, 73, 127
1, 33600, Note_on_c, 1, 69, 127
1, 33600, Note_on_c, 1, 45, 127
1, 33648, Note_off_c, 1, 69, 0
1, 33660, Note_on_c, 1, 67, 127
1, 33684, Note_off_c, 1, 67, 0
1, 33690, Note_on_c, 1, 66, 127
1, 33696, Note_off_c, 1, 73, 0
1, 33696, Note_off_c, 1, 45, 0
1, 33714, Note_off_c, 1, 66, 0
1, 33720, Note_on_c, 1, 64, 127
1, 33720, Note_on_c, 1, 43, 127
1, 33744, Note_off_c, 1, 64, 0
1, 33750, Note_on_c, 1, 63, 127
1, 33774, Note_off_c, 1, 63, 0
1, 33816, Note_off_c, 1, 43, 0
1, 33840, Note_on_c, 1, 72, 127
1, 33840, Note_on_c, 1, 57, 127
1, 33840, Note_on_c, 1, 42, 127
1, 33864, Note_off_c, 1, 72, 0
1, 33870, Note_on_c, 1, 71, 127
1, 33888, Note_off_c, 1, 57, 0
1, 33894, Note_off_c, 1, 71, 0
1, 33900, Note_on_c, 1, 64, 127
1, 33936, Note_off_c, 1, 42, 0
1, 33948, Note_off_c, 1, 64, 0
1, 33960, Note_on_c, 1, 63, 127
1, 33960, Note_on_c, 1, 45, 127
1, 34020, Note_on_c, 1, 75, 127
1, 34056, Note_off_c, 1, 63, 0
1, 34056, Note_off_c, 1, 45, 0
1, 34080, Note_on_c, 1, 48, 127
1, 34116, Note_off_c, 1, 75, 0
1, 34140, Note_on_c, 1, 78, 127
1, 34176, Note_off_c, 1, 48, 0
1, 34188, Note_off_c, 1, 78, 0
1, 34200, Note_on_c, 1, 81, 127
1, 34200, Note_on_c, 1, 66, 127
1, 34200, Note_on_c, 1, 39, 127
1, 34248, Note_off_c, 1, 81, 0
1, 34248, Note_off_c, 1, 66, 0
1, 34260, Note_on_c, 1, 72, 127
1, 34260, Note_on_c, 1, 57, 127
1, 34296, Note_off_c, 1, 39, 0
1, 34308, Note_off_c, 1, 72, 0
1, 34308, Note_off_c, 1, 57, 0
1, 34320, Note_on_c, 1, 71, 127
1, 34320, Note_on_c, 1, 55, 127
1, 34320, Note_on_c, 1, 40, 127
1, 34368, Note_off_c, 1, 55, 0
1, 34380, Note_on_c, 1, 59, 127
1, 34416, Note_off_c, 1, 40, 0
1, 34428, Note_off_c, 1, 59, 0
1, 34440, Note_on_c, 1, 63, 127
1, 34440, Note_on_c, 1, 42, 127
1, 34464, Note_off_c, 1, 71, 0
1, 34500, Note_on_c, 1, 70, 127
1, 34536, Note_off_c, 1, 63, 0
1, 34536, Note_off_c, 1, 42, 0
1, 34548, Note_off_c, 1, 70, 0
1, 34560, Note_on_c, 1, 71, 127
1, 34560, Note_on_c, 1, 43, 127
1, 34584, Note_off_c, 1, 71, 0
1, 34590, Note_on_c, 1, 75, 127
1, 34614, Note_off_c, 1, 75, 0
1, 34620, Note_on_c, 1, 76, 127
1, 34656, Note_off_c, 1, 43, 0
1, 34668, Note_off_c, 1, 76, 0
1, 34680, Note_on_c, 1, 64, 127
1, 34680, Note_on_c, 1, 72, 127
1, 34680, Note_on_c, 1, 45, 127
1, 34728, Note_off_c, 1, 64, 0
1, 34728, Note_off_c, 1, 72, 0
1, 34740, Note_on_c, 1, 69, 127
1, 34776, Note_off_c, 1, 45, 0
1, 34800, Note_on_c, 1, 66, 127
1, 34800, Note_on_c, 1, 47, 127
1, 34836, Note_off_c, 1, 69, 0
1, 34848, Note_off_c, 1, 66, 0
1, 34860, Note_on_c, 1, 67, 127
1, 34860, Note_on_c, 1, 75, 127
1, 34884, Note_off_c, 1, 67, 0
1, 34896, Note_off_c, 1, 47, 0
1, 34908, Note_off_c, 1, 75, 0
1, 34920, Note_on_c, 1, 67, 127
1, 34920, Note_on_c, 1, 76, 127
1, 34920, Note_on_c, 1, 40, 127
1, 34968, Note_off_c, 1, 76, 0
1, 34980, Note_on_c, 1, 64, 127
1, 35016, Note_off_c, 1, 67, 0
1, 35016, Note_off_c, 1, 40, 0
1, 35040, Note_on_c, 1, 41, 127
1, 35076, Note_off_c, 1, 64, 0
1, 35100, Note_on_c, 1, 62, 127
1, 35136, Note_off_c, 1, 41, 0
1, 35160, Note_on_c, 1, 82, 127
1, 35160, Note_on_c, 1, 43, 127
1, 35184, Note_off_c, 1, 62, 0
1, 35190, Note_on_c, 1, 61, 127
1, 35214, Note_off_c, 1, 61, 0
1, 35256, Note_off_c, 1, 43, 0
1, 35280, Note_on_c, 1, 45, 127
1, 35328, Note_off_c, 1, 82, 0
1, 35340, Note_on_c, 1, 81, 127
1, 35376, Note_off_c, 1, 45, 0
1, 35400, Note_on_c, 1, 47, 127
1, 35436, Note_off_c, 1, 81, 0
1, 35460, Note_on_c, 1, 79, 127
1, 35496, Note_off_c, 1, 47, 0
1, 35520, Note_on_c, 1, 49, 127
1, 35544, Note_off_c, 1, 79, 0
1, 35550, Note_on_c, 1, 77, 127
1, 35574, Note_off_c, 1, 77, 0
1, 35616, Note_off_c, 1, 49, 0
1, 35640, Note_on_c, 1, 50, 127
1, 35700, Note_on_c, 1, 74, 127
1, 35736, Note_off_c, 1, 50, 0
1, 35760, Note_on_c, 1, 52, 127
1, 35796, Note_off_c, 1, 74, 0
1, 35820, Note_on_c, 1, 72, 127
1, 35856, Note_off_c, 1, 52, 0
1, 35880, Note_on_c, 1, 69, 127
1, 35880, Note_on_c, 1, 53, 127
1, 35904, Note_off_c, 1, 72, 0
1, 35910, Note_on_c, 1, 71, 127
1, 35934, Note_off_c, 1, 71, 0
1, 35976, Note_off_c, 1, 53, 0
1, 36000, Note_on_c, 1, 55, 127
1, 36048, Note_off_c, 1, 69, 0
1, 36096, Note_off_c, 1, 55, 0
1, 36120, Note_on_c, 1, 57, 127
1, 36180, Note_on_c, 1, 65, 127
1, 36216, Note_off_c, 1, 57, 0
1, 36240, Note_on_c, 1, 59, 127
1, 36264, Note_off_c, 1, 65, 0
1, 36336, Note_off_c, 1, 59, 0
1, 36360, Note_on_c, 1, 48, 127
1, 36420, Note_on_c, 1, 60, 127
1, 36456, Note_off_c, 1, 48, 0
1, 36516, Note_off_c, 1, 60, 0
1, 36540, Note_on_c, 1, 58, 127
1, 36624, Note_off_c, 1, 58, 0
1, 36870, Note_on_c, 1, 77, 127
1, 36870, Note_on_c, 1, 62, 127
1, 36894, Note_off_c, 1, 62, 0
1, 36899, Note_off_c, 1, 77, 0
1, 36900, Note_on_c, 1, 79, 127
1, 36900, Note_on_c, 1, 64, 127
1, 36900, Note_on_c, 1, 40, 127
1, 36924, Note_off_c, 1, 64, 0
1, 36929, Note_off_c, 1, 79, 0
1, 36930, Note_on_c, 1, 77, 127
1, 36930, Note_on_c, 1, 62, 127
1, 36948, Note_off_c, 1, 40, 0
1, 36954, Note_off_c, 1, 62, 0
1, 36960, Note_on_c, 1, 38, 127
1, 37056, Note_off_c, 1, 38, 0
1, 37080, Note_on_c, 1, 44, 127
1, 37104, Note_off_c, 1, 77, 0
1, 37110, Note_on_c, 1, 60, 127
1, 37134, Note_off_c, 1, 60, 0
1, 37140, Note_on_c, 1, 76, 127
1, 37140, Note_on_c, 1, 59, 127
1, 37164, Note_off_c, 1, 76, 0
1, 37170, Note_on_c, 1, 78, 127
1, 37176, Note_off_c, 1, 44, 0
1, 37188, Note_off_c, 1, 59, 0
1, 37194, Note_off_c, 1, 78, 0
1, 37200, Note_on_c, 1, 80, 127
1, 37200, Note_on_c, 1, 60, 127
1, 37200, Note_on_c, 1, 45, 127
1, 37224, Note_off_c, 1, 80, 0
1, 37230, Note_on_c, 1, 81, 127
1, 37254, Note_off_c, 1, 81, 0
1, 37260, Note_on_c, 1, 83, 127
1, 37296, Note_off_c, 1, 60, 0
1, 37296, Note_off_c, 1, 45, 0
1, 37308, Note_off_c, 1, 83, 0
1, 37320, Note_on_c, 1, 74, 127
1, 37320, Note_on_c, 1, 47, 127
1, 37416, Note_off_c, 1, 47, 0
1, 37440, Note_on_c, 1, 76, 127
1, 37440, Note_on_c, 1, 48, 127
1, 37464, Note_off_c, 1, 74, 0
1, 37470, Note_on_c, 1, 72, 127
1, 37494, Note_off_c, 1, 72, 0
1, 37500, Note_on_c, 1, 71, 127
1, 37536, Note_off_c, 1, 76, 0
1, 37548, Note_off_c, 1, 71, 0
1, 37560, Note_on_c, 1, 83, 127
1, 37584, Note_off_c, 1, 48, 0
1, 37584, Note_off_c, 1, 83, 0
1, 37590, Note_on_c, 1, 81, 127
1, 37590, Note_on_c, 1, 72, 127
1, 37614, Note_off_c, 1, 81, 0
1, 37614, Note_off_c, 1, 72, 0
1, 37620, Note_on_c, 1, 83, 127
1, 37620, Note_on_c, 1, 74, 127
1, 37620, Note_on_c, 1, 47, 127
1, 37644, Note_off_c, 1, 83, 0
1, 37644, Note_off_c, 1, 74, 0
1, 37650, Note_on_c, 1, 81, 127
1, 37650, Note_on_c, 1, 72, 127
1, 37668, Note_off_c, 1, 47, 0
1, 37674, Note_off_c, 1, 72, 0
1, 37680, Note_on_c, 1, 45, 127
1, 37704, Note_off_c, 1, 81, 0
1, 37710, Note_on_c, 1, 79, 127
1, 37734, Note_off_c, 1, 79, 0
1, 37740, Note_on_c, 1, 78, 127
1, 37776, Note_off_c, 1, 45, 0
1, 37788, Note_off_c, 1, 78, 0
1, 37800, Note_on_c, 1, 51, 127
1, 37896, Note_off_c, 1, 51, 0
1, 37920, Note_on_c, 1, 69, 127
1, 37920, Note_on_c, 1, 52, 127
1, 37980, Note_on_c, 1, 71, 127
1, 38004, Note_off_c, 1, 71, 0
1, 38016, Note_off_c, 1, 52, 0
1, 38040, Note_on_c, 1, 67, 127
1, 38040, Note_on_c, 1, 54, 127
1, 38064, Note_off_c, 1, 67, 0
1, 38070, Note_on_c, 1, 65, 127
1, 38094, Note_off_c, 1, 65, 0
1, 38100, Note_on_c, 1, 64, 127
1, 38136, Note_off_c, 1, 54, 0
1, 38148, Note_off_c, 1, 64, 0
1, 38160, Note_on_c, 1, 63, 127
1, 38160, Note_on_c, 1, 55, 127
1, 38184, Note_off_c, 1, 69, 0
1, 38220, Note_on_c, 1, 66, 127
1, 38256, Note_off_c, 1, 63, 0
1, 38268, Note_off_c, 1, 66, 0
1, 38304, Note_off_c, 1, 55, 0
1, 38310, Note_on_c, 1, 66, 127
1, 38310, Note_on_c, 1, 63, 127
1, 38334, Note_off_c, 1, 66, 0
1, 38334, Note_off_c, 1, 63, 0
1, 38340, Note_on_c, 1, 67, 127
1, 38340, Note_on_c, 1, 64, 127
1, 38340, Note_on_c, 1, 54, 127
1, 38388, Note_off_c, 1, 67, 0
1, 38388, Note_off_c, 1, 54, 0
1, 38397, Note_off_c, 1, 64, 0
1, 38400, Note_on_c, 1, 67, 127
1, 38400, Note_on_c, 1, 76, 127
1, 38400, Note_on_c, 1, 52, 127
1, 38496, Note_off_c, 1, 52, 0
1, 38520, Note_on_c, 1, 58, 127
1, 38544, Note_off_c, 1, 76, 0
1, 38550, Note_on_c, 1, 75, 127
1, 38574, Note_off_c, 1, 75, 0
1, 38580, Note_on_c, 1, 73, 127
1, 38616, Note_off_c, 1, 58, 0
1, 38628, Note_off_c, 1, 73, 0
1, 38640, Note_on_c, 1, 59, 127
1, 38664, Note_off_c, 1, 67, 0
1, 38700, Note_on_c, 1, 66, 127
1, 38724, Note_off_c, 1, 66, 0
1, 38730, Note_on_c, 1, 64, 127
1, 38736, Note_off_c, 1, 59, 0
1, 38754, Note_off_c, 1, 64, 0
1, 38760, Note_on_c, 1, 66, 127
1, 38760, Note_on_c, 1, 74, 127
1, 38784, Note_off_c, 1, 66, 0
1, 38790, Note_on_c, 1, 68, 127
1, 38814, Note_off_c, 1, 68, 0
1, 38820, Note_on_c, 1, 69, 127
1, 38868, Note_off_c, 1, 69, 0
1, 38880, Note_on_c, 1, 71, 127
1, 38880, Note_on_c, 1, 56, 127
1, 38904, Note_off_c, 1, 74, 0
1, 38910, Note_on_c, 1, 73, 127
1, 38934, Note_off_c, 1, 73, 0
1, 38976, Note_off_c, 1, 56, 0
1, 39000, Note_on_c, 1, 57, 127
1, 39024, Note_off_c, 1, 71, 0
1, 39096, Note_off_c, 1, 57, 0
1, 39120, Note_on_c, 1, 69, 127
1, 39120, Note_on_c, 1, 72, 127
1, 39144, Note_off_c, 1, 69, 0
1, 39150, Note_on_c, 1, 71, 127
1, 39174, Note_off_c, 1, 71, 0
1, 39240, Note_on_c, 1, 75, 127
1, 39240, Note_on_c, 1, 54, 127
1, 39264, Note_off_c, 1, 72, 0
1, 39300, Note_on_c, 1, 70, 127
1, 39336, Note_off_c, 1, 54, 0
1, 39348, Note_off_c, 1, 70, 0
1, 39360, Note_on_c, 1, 55, 127
1, 39384, Note_off_c, 1, 75, 0
1, 39420, Note_on_c, 1, 76, 127
1, 39444, Note_off_c, 1, 76, 0
1, 39456, Note_off_c, 1, 55, 0
1, 39480, Note_on_c, 1, 76, 127
1, 39480, Note_on_c, 1, 70, 127
1, 39504, Note_off_c, 1, 76, 0
1, 39510, Note_on_c, 1, 78, 127
1, 39534, Note_off_c, 1, 78, 0
1, 39540, Note_on_c, 1, 79, 127
1, 39588, Note_off_c, 1, 79, 0
1, 39600, Note_on_c, 1, 73, 127
1, 39600, Note_on_c, 1, 52, 127
1, 39624, Note_off_c, 1, 70, 0
1, 39630, Note_on_c, 1, 69, 127
1, 39654, Note_off_c, 1, 69, 0
1, 39660, Note_on_c, 1, 68, 127
1, 39696, Note_off_c, 1, 52, 0
1, 39708, Note_off_c, 1, 68, 0
1, 39720, Note_on_c, 1, 53, 127
1, 39744, Note_off_c, 1, 73, 0
1, 39780, Note_on_c, 1, 74, 127
1, 39804, Note_off_c, 1, 74, 0
1, 39816, Note_off_c, 1, 53, 0
1, 39840, Note_on_c, 1, 74, 127
1, 39840, Note_on_c, 1, 57, 127
1, 39864, Note_off_c, 1, 74, 0
1, 39870, Note_on_c, 1, 72, 127
1, 39894, Note_off_c, 1, 72, 0
1, 39900, Note_on_c, 1, 71, 127
1, 39948, Note_off_c, 1, 71, 0
1, 39960, Note_on_c, 1, 51, 127
1, 39984, Note_off_c, 1, 57, 0
1, 39990, Note_on_c, 1, 55, 127
1, 40014, Note_off_c, 1, 55, 0
1, 40020, Note_on_c, 1, 54, 127
1, 40056, Note_off_c, 1, 51, 0
1, 40068, Note_off_c, 1, 54, 0
1, 40080, Note_on_c, 1, 52, 127
1, 40170, Note_on_c, 1, 70, 127
1, 40176, Note_off_c, 1, 52, 0
1, 40194, Note_off_c, 1, 70, 0
1, 40200, Note_on_c, 1, 71, 127
1, 40200, Note_on_c, 1, 67, 127
1, 40224, Note_off_c, 1, 71, 0
1, 40230, Note_on_c, 1, 75, 127
1, 40254, Note_off_c, 1, 75, 0
1, 40260, Note_on_c, 1, 76, 127
1, 40308, Note_off_c, 1, 76, 0
1, 40320, Note_on_c, 1, 64, 127
1, 40320, Note_on_c, 1, 48, 127
1, 40344, Note_off_c, 1, 67, 0
1, 40350, Note_on_c, 1, 66, 127
1, 40374, Note_off_c, 1, 66, 0
1, 40416, Note_off_c, 1, 48, 0
1, 40428, Note_off_c, 1, 64, 0
1, 40440, Note_on_c, 1, 69, 127
1, 40440, Note_on_c, 1, 66, 127
1, 40440, Note_on_c, 1, 45, 127
1, 40530, Note_off_c, 1, 69, 0
1, 40530, Note_off_c, 1, 66, 0
1, 40536, Note_off_c, 1, 45, 0
1, 40560, Note_on_c, 1, 67, 127
1, 40560, Note_on_c, 1, 64, 127
1, 40560, Note_on_c, 1, 47, 127
1, 40584, Note_off_c, 1, 67, 0
1, 40584, Note_off_c, 1, 64, 0
1, 40590, Note_on_c, 1, 66, 127
1, 40590, Note_on_c, 1, 63, 127
1, 40614, Note_off_c, 1, 66, 0
1, 40614, Note_off_c, 1, 63, 0
1, 40656, Note_off_c, 1, 47, 0
1, 40680, Note_on_c, 1, 64, 127
1, 40680, Note_on_c, 1, 52, 127
1, 40776, Note_off_c, 1, 52, 0
1, 40800, Note_on_c, 1, 55, 127
1, 40872, Note_off_c, 1, 64, 0
1, 40896, Note_off_c, 1, 55, 0
1, 40920, Note_on_c, 1, 66, 127
1, 40920, Note_on_c, 1, 59, 127
1, 41016, Note_off_c, 1, 66, 0
1, 41016, Note_off_c, 1, 59, 0
1, 41040, Note_on_c, 1, 64, 127
1, 41040, Note_on_c, 1, 63, 127
1, 41040, Note_on_c, 1, 57, 127
1, 41055, Note_off_c, 1, 64, 0
1, 41136, Note_off_c, 1, 57, 0
1, 41184, Note_off_c, 1, 63, 0
1, 41220, Note_on_c, 1, 59, 127
1, 41244, Note_off_c, 1, 59, 0
1, 41250, Note_on_c, 1, 61, 127
1, 41274, Note_off_c, 1, 61, 0
1, 41280, Note_on_c, 1, 63, 127
1, 41280, Note_on_c, 1, 57, 127
1, 41304, Note_off_c, 1, 63, 0
1, 41310, Note_on_c, 1, 64, 127
1, 41334, Note_off_c, 1, 64, 0
1, 41340, Note_on_c, 1, 66, 127
1, 41376, Note_off_c, 1, 57, 0
1, 41388, Note_off_c, 1, 66, 0
1, 41400, Note_on_c, 1, 69, 127
1, 41400, Note_on_c, 1, 54, 127
1, 41496, Note_off_c, 1, 54, 0
1, 41544, Note_off_c, 1, 69, 0
1, 41580, Note_on_c, 1, 63, 127
1, 41604, Note_off_c, 1, 63, 0
1, 41610, Note_on_c, 1, 64, 127
1, 41634, Note_off_c, 1, 64, 0
1, 41640, Note_on_c, 1, 66, 127
1, 41640, Note_on_c, 1, 54, 127
1, 41664, Note_off_c, 1, 66, 0
1, 41670, Note_on_c, 1, 67, 127
1, 41694, Note_off_c, 1, 67, 0
1, 41700, Note_on_c, 1, 69, 127
1, 41736, Note_off_c, 1, 54, 0
1, 41748, Note_off_c, 1, 69, 0
1, 41760, Note_on_c, 1, 72, 127
1, 41760, Note_on_c, 1, 51, 127
1, 41808, Note_off_c, 1, 72, 0
1, 41820, Note_on_c, 1, 71, 127
1, 41856, Note_off_c, 1, 51, 0
1, 41916, Note_off_c, 1, 71, 0
1, 41940, Note_on_c, 1, 69, 127
1, 41964, Note_off_c, 1, 69, 0
1, 41970, Note_on_c, 1, 67, 127
1, 41994, Note_off_c, 1, 67, 0
1, 42000, Note_on_c, 1, 66, 127
1, 42000, Note_on_c, 1, 51, 127
1, 42024, Note_off_c, 1, 66, 0
1, 42030, Note_on_c, 1, 67, 127
1, 42054, Note_off_c, 1, 67, 0
1, 42060, Note_on_c, 1, 69, 127
1, 42096, Note_off_c, 1, 51, 0
1, 42120, Note_on_c, 1, 52, 127
1, 42168, Note_off_c, 1, 69, 0
1, 42216, Note_off_c, 1, 52, 0
1, 42240, Note_on_c, 1, 55, 127
1, 42330, Note_on_c, 1, 64, 127
1, 42336, Note_off_c, 1, 55, 0
1, 42354, Note_off_c, 1, 64, 0
1, 42360, Note_on_c, 1, 71, 127
1, 42360, Note_on_c, 1, 63, 127
1, 42360, Note_on_c, 1, 59, 127
1, 42384, Note_off_c, 1, 63, 0
1, 42390, Note_on_c, 1, 64, 127
1, 42414, Note_off_c, 1, 64, 0
1, 42420, Note_on_c, 1, 66, 127
1, 42456, Note_off_c, 1, 71, 0
1, 42456, Note_off_c, 1, 59, 0
1, 42468, Note_off_c, 1, 66, 0
1, 42480, Note_on_c, 1, 69, 127
1, 42480, Note_on_c, 1, 64, 127
1, 42480, Note_on_c, 1, 62, 127
1, 42528, Note_off_c, 1, 69, 0
1, 42528, Note_off_c, 1, 64, 0
1, 42540, Note_on_c, 1, 68, 127
1, 42576, Note_off_c, 1, 62, 0
1, 42600, Note_on_c, 1, 71, 127
1, 42653, Note_off_c, 1, 68, 0
1, 42690, Note_on_c, 1, 66, 127
1, 42696, Note_off_c, 1, 71, 0
1, 42714, Note_off_c, 1, 66, 0
1, 42720, Note_on_c, 1, 68, 127
1, 42720, Note_on_c, 1, 62, 127
1, 42744, Note_off_c, 1, 68, 0
1, 42750, Note_on_c, 1, 69, 127
1, 42774, Note_off_c, 1, 69, 0
1, 42780, Note_on_c, 1, 71, 127
1, 42816, Note_off_c, 1, 62, 0
1, 42837, Note_off_c, 1, 71, 0
1, 42840, Note_on_c, 1, 74, 127
1, 42840, Note_on_c, 1, 68, 127
1, 42840, Note_on_c, 1, 59, 127
1, 42888, Note_off_c, 1, 68, 0
1, 42900, Note_on_c, 1, 71, 127
1, 42936, Note_off_c, 1, 59, 0
1, 42948, Note_off_c, 1, 71, 0
1, 43050, Note_on_c, 1, 69, 127
1, 43056, Note_off_c, 1, 74, 0
1, 43074, Note_off_c, 1, 69, 0
1, 43080, Note_on_c, 1, 71, 127
1, 43080, Note_on_c, 1, 59, 127
1, 43104, Note_off_c, 1, 71, 0
1, 43110, Note_on_c, 1, 72, 127
1, 43134, Note_off_c, 1, 72, 0
1, 43140, Note_on_c, 1, 74, 127
1, 43176, Note_off_c, 1, 59, 0
1, 43188, Note_off_c, 1, 74, 0
1, 43200, Note_on_c, 1, 77, 127
1, 43200, Note_on_c, 1, 56, 127
1, 43248, Note_off_c, 1, 77, 0
1, 43260, Note_on_c, 1, 76, 127
1, 43296, Note_off_c, 1, 56, 0
1, 43320, Note_on_c, 1, 71, 127
1, 43356, Note_off_c, 1, 76, 0
1, 43368, Note_off_c, 1, 71, 0
1, 43380, Note_on_c, 1, 74, 127
1, 43410, Note_on_c, 1, 72, 127
1, 43428, Note_off_c, 1, 74, 0
1, 43434, Note_off_c, 1, 72, 0
1, 43440, Note_on_c, 1, 71, 127
1, 43440, Note_on_c, 1, 77, 127
1, 43440, Note_on_c, 1, 56, 127
1, 43464, Note_off_c, 1, 71, 0
1, 43470, Note_on_c, 1, 72, 127
1, 43494, Note_off_c, 1, 72, 0
1, 43500, Note_on_c, 1, 74, 127
1, 43536, Note_off_c, 1, 77, 0
1, 43536, Note_off_c, 1, 56, 0
1, 43560, Note_on_c, 1, 76, 127
1, 43560, Note_on_c, 1, 57, 127
1, 43608, Note_off_c, 1, 74, 0
1, 43656, Note_off_c, 1, 76, 0
1, 43656, Note_off_c, 1, 57, 0
1, 43680, Note_on_c, 1, 69, 127
1, 43680, Note_on_c, 1, 48, 127
1, 43776, Note_off_c, 1, 48, 0
1, 43794, Note_off_c, 1, 69, 0
1, 43800, Note_on_c, 1, 68, 127
1, 43800, Note_on_c, 1, 71, 127
1, 43800, Note_on_c, 1, 52, 127
1, 43824, Note_off_c, 1, 68, 0
1, 43830, Note_on_c, 1, 69, 127
1, 43854, Note_off_c, 1, 69, 0
1, 43896, Note_off_c, 1, 52, 0
1, 43908, Note_off_c, 1, 71, 0
1, 43920, Note_on_c, 1, 69, 127
1, 43920, Note_on_c, 1, 72, 127
1, 43920, Note_on_c, 1, 45, 127
1, 43943, Note_off_c, 1, 72, 0
1, 43950, Note_on_c, 1, 77, 127
1, 43974, Note_off_c, 1, 77, 0
1, 43980, Note_on_c, 1, 76, 127
1, 44004, Note_off_c, 1, 76, 0
1, 44010, Note_on_c, 1, 74, 127
1, 44016, Note_off_c, 1, 69, 0
1, 44034, Note_off_c, 1, 74, 0
1, 44064, Note_off_c, 1, 45, 0
1, 44070, Note_on_c, 1, 81, 127
1, 44094, Note_off_c, 1, 81, 0
1, 44100, Note_on_c, 1, 79, 127
1, 44100, Note_on_c, 1, 47, 127
1, 44124, Note_off_c, 1, 79, 0
1, 44130, Note_on_c, 1, 77, 127
1, 44148, Note_off_c, 1, 47, 0
1, 44154, Note_off_c, 1, 77, 0
1, 44160, Note_on_c, 1, 76, 127
1, 44160, Note_on_c, 1, 79, 127
1, 44160, Note_on_c, 1, 49, 127
1, 44183, Note_off_c, 1, 79, 0
1, 44190, Note_on_c, 1, 70, 127
1, 44214, Note_off_c, 1, 70, 0
1, 44220, Note_on_c, 1, 69, 127
1, 44244, Note_off_c, 1, 69, 0
1, 44250, Note_on_c, 1, 67, 127
1, 44256, Note_off_c, 1, 49, 0
1, 44274, Note_off_c, 1, 67, 0
1, 44280, Note_on_c, 1, 73, 127
1, 44280, Note_on_c, 1, 43, 127
1, 44304, Note_off_c, 1, 76, 0
1, 44370, Note_off_c, 1, 73, 0
1, 44376, Note_off_c, 1, 43, 0
1, 44400, Note_on_c, 1, 69, 127
1, 44400, Note_on_c, 1, 74, 127
1, 44400, Note_on_c, 1, 41, 127
1, 44423, Note_off_c, 1, 69, 0
1, 44430, Note_on_c, 1, 75, 127
1, 44454, Note_off_c, 1, 75, 0
1, 44490, Note_off_c, 1, 74, 0
1, 44490, Note_on_c, 1, 73, 127
1, 44496, Note_off_c, 1, 41, 0
1, 44514, Note_off_c, 1, 73, 0
1, 44520, Note_on_c, 1, 74, 127
1, 44543, Note_off_c, 1, 74, 0
1, 44550, Note_on_c, 1, 82, 127
1, 44574, Note_off_c, 1, 82, 0
1, 44580, Note_on_c, 1, 81, 127
1, 44604, Note_off_c, 1, 81, 0
1, 44610, Note_on_c, 1, 80, 127
1, 44634, Note_off_c, 1, 80, 0
1, 44640, Note_on_c, 1, 81, 127
1, 44640, Note_on_c, 1, 75, 127
1, 44640, Note_on_c, 1, 47, 127
1, 44663, Note_off_c, 1, 75, 0
1, 44670, Note_on_c, 1, 79, 127
1, 44694, Note_off_c, 1, 79, 0
1, 44700, Note_on_c, 1, 78, 127
1, 44724, Note_off_c, 1, 78, 0
1, 44730, Note_off_c, 1, 81, 0
1, 44730, Note_on_c, 1, 76, 127
1, 44754, Note_off_c, 1, 76, 0
1, 44784, Note_off_c, 1, 47, 0
1, 44790, Note_on_c, 1, 83, 127
1, 44814, Note_off_c, 1, 83, 0
1, 44820, Note_on_c, 1, 49, 127
1, 44868, Note_off_c, 1, 49, 0
1, 44880, Note_on_c, 1, 78, 127
1, 44880, Note_on_c, 1, 81, 127
1, 44880, Note_on_c, 1, 51, 127
1, 44903, Note_off_c, 1, 81, 0
1, 44910, Note_on_c, 1, 72, 127
1, 44934, Note_off_c, 1, 72, 0
1, 44940, Note_on_c, 1, 71, 127
1, 44964, Note_off_c, 1, 71, 0
1, 44970, Note_on_c, 1, 69, 127
1, 44976, Note_off_c, 1, 51, 0
1, 44994, Note_off_c, 1, 69, 0
1, 45000, Note_on_c, 1, 75, 127
1, 45000, Note_on_c, 1, 45, 127
1, 45024, Note_off_c, 1, 78, 0
1, 45090, Note_off_c, 1, 75, 0
1, 45096, Note_off_c, 1, 45, 0
1, 45120, Note_on_c, 1, 71, 127
1, 45120, Note_on_c, 1, 76, 127
1, 45120, Note_on_c, 1, 43, 127
1, 45143, Note_off_c, 1, 71, 0
1, 45150, Note_on_c, 1, 77, 127
1, 45174, Note_off_c, 1, 77, 0
1, 45210, Note_off_c, 1, 76, 0
1, 45210, Note_on_c, 1, 75, 127
1, 45216, Note_off_c, 1, 43, 0
1, 45234, Note_off_c, 1, 75, 0
1, 45240, Note_on_c, 1, 76, 127
1, 45263, Note_off_c, 1, 76, 0
1, 45270, Note_on_c, 1, 84, 127
1, 45294, Note_off_c, 1, 84, 0
1, 45300, Note_on_c, 1, 83, 127
1, 45324, Note_off_c, 1, 83, 0
1, 45330, Note_on_c, 1, 82, 127
1, 45354, Note_off_c, 1, 82, 0
1, 45360, Note_on_c, 1, 83, 127
1, 45360, Note_on_c, 1, 56, 127
1, 45420, Note_on_c, 1, 64, 127
1, 45444, Note_off_c, 1, 64, 0
1, 45450, Note_on_c, 1, 66, 127
1, 45456, Note_off_c, 1, 83, 0
1, 45474, Note_off_c, 1, 66, 0
1, 45480, Note_on_c, 1, 68, 127
1, 45504, Note_off_c, 1, 56, 0
1, 45504, Note_off_c, 1, 68, 0
1, 45510, Note_on_c, 1, 69, 127
1, 45534, Note_off_c, 1, 69, 0
1, 45540, Note_on_c, 1, 77, 127
1, 45540, Note_on_c, 1, 71, 127
1, 45540, Note_on_c, 1, 57, 127
1, 45564, Note_off_c, 1, 77, 0
1, 45564, Note_off_c, 1, 71, 0
1, 45570, Note_on_c, 1, 76, 127
1, 45570, Note_on_c, 1, 72, 127
1, 45588, Note_off_c, 1, 57, 0
1, 45594, Note_off_c, 1, 76, 0
1, 45594, Note_off_c, 1, 72, 0
1, 45600, Note_on_c, 1, 74, 127
1, 45600, Note_on_c, 1, 59, 127
1, 45630, Note_on_c, 1, 72, 127
1, 45654, Note_off_c, 1, 72, 0
1, 45660, Note_on_c, 1, 71, 127
1, 45684, Note_off_c, 1, 71, 0
1, 45690, Note_on_c, 1, 69, 127
1, 45696, Note_off_c, 1, 59, 0
1, 45714, Note_off_c, 1, 69, 0
1, 45720, Note_on_c, 1, 53, 127
1, 45735, Note_on_c, 1, 68, 127
1, 45744, Note_off_c, 1, 74, 0
1, 45747, Note_off_c, 1, 68, 0
1, 45816, Note_off_c, 1, 53, 0
1, 45840, Note_on_c, 1, 69, 127
1, 45840, Note_on_c, 1, 71, 127
1, 45840, Note_on_c, 1, 52, 127
1, 45852, Note_off_c, 1, 69, 0
1, 45855, Note_on_c, 1, 68, 127
1, 45864, Note_off_c, 1, 71, 0
1, 45867, Note_off_c, 1, 68, 0
1, 45870, Note_on_c, 1, 72, 127
1, 45894, Note_off_c, 1, 72, 0
1, 45900, Note_on_c, 1, 74, 127
1, 45924, Note_off_c, 1, 74, 0
1, 45930, Note_on_c, 1, 76, 127
1, 45936, Note_off_c, 1, 52, 0
1, 45954, Note_off_c, 1, 76, 0
1, 45960, Note_on_c, 1, 69, 127
1, 45960, Note_on_c, 1, 77, 127
1, 45972, Note_off_c, 1, 69, 0
1, 45975, Note_on_c, 1, 68, 127
1, 45984, Note_off_c, 1, 77, 0
1, 45987, Note_off_c, 1, 68, 0
1, 45990, Note_on_c, 1, 69, 127
1, 45990, Note_on_c, 1, 76, 127
1, 46002, Note_off_c, 1, 69, 0
1, 46005, Note_on_c, 1, 68, 127
1, 46014, Note_off_c, 1, 76, 0
1, 46017, Note_off_c, 1, 68, 0
1, 46020, Note_on_c, 1, 69, 127
1, 46020, Note_on_c, 1, 75, 127
1, 46032, Note_off_c, 1, 69, 0
1, 46035, Note_on_c, 1, 68, 127
1, 46044, Note_off_c, 1, 75, 0
1, 46047, Note_off_c, 1, 68, 0
1, 46050, Note_on_c, 1, 69, 127
1, 46050, Note_on_c, 1, 76, 127
1, 46062, Note_off_c, 1, 69, 0
1, 46065, Note_on_c, 1, 68, 127
1, 46074, Note_off_c, 1, 76, 0
1, 46077, Note_off_c, 1, 68, 0
1, 46080, Note_on_c, 1, 68, 127
1, 46080, Note_on_c, 1, 74, 127
1, 46080, Note_on_c, 1, 52, 127
1, 46095, Note_off_c, 1, 74, 0
1, 46095, Note_on_c, 1, 73, 127
1, 46104, Note_off_c, 1, 68, 0
1, 46107, Note_off_c, 1, 73, 0
1, 46110, Note_on_c, 1, 71, 127
1, 46134, Note_off_c, 1, 71, 0
1, 46140, Note_on_c, 1, 69, 127
1, 46164, Note_off_c, 1, 69, 0
1, 46176, Note_off_c, 1, 52, 0
1, 46200, Note_on_c, 1, 69, 127
1, 46200, Note_on_c, 1, 74, 127
1, 46200, Note_on_c, 1, 51, 127
1, 46212, Note_off_c, 1, 74, 0
1, 46215, Note_on_c, 1, 73, 127
1, 46224, Note_off_c, 1, 69, 0
1, 46227, Note_off_c, 1, 73, 0
1, 46260, Note_on_c, 1, 76, 127
1, 46284, Note_off_c, 1, 76, 0
1, 46290, Note_on_c, 1, 80, 127
1, 46296, Note_off_c, 1, 51, 0
1, 46314, Note_off_c, 1, 80, 0
1, 46320, Note_on_c, 1, 81, 127
1, 46440, Note_on_c, 1, 52, 127
1, 46536, Note_off_c, 1, 81, 0
1, 46536, Note_off_c, 1, 52, 0
1, 46560, Note_on_c, 1, 79, 127
1, 46560, Note_on_c, 1, 71, 127
1, 46560, Note_on_c, 1, 40, 127
1, 46650, Note_off_c, 1, 79, 0
1, 46650, Note_off_c, 1, 71, 0
1, 46656, Note_off_c, 1, 40, 0
1, 46680, Note_on_c, 1, 64, 127
1, 46680, Note_on_c, 1, 44, 127
1, 46776, Note_off_c, 1, 64, 0
1, 46776, Note_off_c, 1, 44, 0
1, 46800, Note_on_c, 1, 69, 127
1, 46800, Note_on_c, 1, 45, 127
1, 46848, Note_off_c, 1, 69, 0
1, 46860, Note_on_c, 1, 71, 127
1, 46896, Note_off_c, 1, 45, 0
1, 46908, Note_off_c, 1, 71, 0
1, 46920, Note_on_c, 1, 72, 127
1, 46920, Note_on_c, 1, 47, 127
1, 46977, Note_off_c, 1, 72, 0
1, 46980, Note_on_c, 1, 71, 127
1, 47016, Note_off_c, 1, 47, 0
1, 47037, Note_off_c, 1, 71, 0
1, 47040, Note_on_c, 1, 69, 127
1, 47040, Note_on_c, 1, 48, 127
1, 47136, Note_off_c, 1, 69, 0
1, 47136, Note_off_c, 1, 48, 0
1, 47160, Note_on_c, 1, 69, 127
1, 47160, Note_on_c, 1, 50, 127
1, 47184, Note_off_c, 1, 69, 0
1, 47190, Note_on_c, 1, 68, 127
1, 47214, Note_off_c, 1, 68, 0
1, 47256, Note_off_c, 1, 50, 0
1, 47280, Note_on_c, 1, 69, 127
1, 47280, Note_on_c, 1, 48, 127
1, 47370, Note_off_c, 1, 69, 0
1, 47376, Note_off_c, 1, 48, 0
1, 47400, Note_on_c, 1, 50, 127
1, 47496, Note_off_c, 1, 50, 0
1, 47520, Note_on_c, 1, 62, 127
1, 47520, Note_on_c, 1, 52, 127
1, 47568, Note_off_c, 1, 62, 0
1, 47580, Note_on_c, 1, 61, 127
1, 47616, Note_off_c, 1, 52, 0
1, 47640, Note_on_c, 1, 53, 127
1, 47693, Note_off_c, 1, 61, 0
1, 47730, Note_on_c, 1, 64, 127
1, 47736, Note_off_c, 1, 53, 0
1, 47754, Note_off_c, 1, 64, 0
1, 47760, Note_on_c, 1, 62, 127
1, 47760, Note_on_c, 1, 55, 127
1, 47784, Note_off_c, 1, 62, 0
1, 47790, Note_on_c, 1, 61, 127
1, 47814, Note_off_c, 1, 61, 0
1, 47820, Note_on_c, 1, 59, 127
1, 47844, Note_off_c, 1, 59, 0
1, 47850, Note_on_c, 1, 57, 127
1, 47856, Note_off_c, 1, 55, 0
1, 47874, Note_off_c, 1, 57, 0
1, 47880, Note_on_c, 1, 67, 127
1, 47880, Note_on_c, 1, 45, 127
1, 47904, Note_off_c, 1, 67, 0
1, 47910, Note_on_c, 1, 66, 127
1, 47934, Note_off_c, 1, 66, 0
1, 47940, Note_on_c, 1, 64, 127
1, 47976, Note_off_c, 1, 45, 0
1, 47988, Note_off_c, 1, 64, 0
1, 48000, Note_on_c, 1, 66, 127
1, 48000, Note_on_c, 1, 50, 127
1, 48096, Note_off_c, 1, 66, 0
1, 48096, Note_off_c, 1, 50, 0
1, 48120, Note_on_c, 1, 48, 127
1, 48216, Note_off_c, 1, 48, 0
1, 48240, Note_on_c, 1, 67, 127
1, 48240, Note_on_c, 1, 47, 127
1, 48247, Note_off_c, 1, 67, 0
1, 48247, Note_on_c, 1, 65, 127
1, 48254, Note_off_c, 1, 65, 0
1, 48268, Note_on_c, 1, 64, 127
1, 48292, Note_off_c, 1, 64, 0
1, 48336, Note_off_c, 1, 47, 0
1, 48360, Note_on_c, 1, 50, 127
1, 48418, Note_on_c, 1, 68, 127
1, 48456, Note_off_c, 1, 50, 0
1, 48480, Note_on_c, 1, 53, 127
1, 48514, Note_off_c, 1, 68, 0
1, 48538, Note_on_c, 1, 71, 127
1, 48576, Note_off_c, 1, 53, 0
1, 48586, Note_off_c, 1, 71, 0
1, 48598, Note_on_c, 1, 74, 127
1, 48600, Note_on_c, 1, 44, 127
1, 48646, Note_off_c, 1, 74, 0
1, 48658, Note_on_c, 1, 65, 127
1, 48696, Note_off_c, 1, 44, 0
1, 48706, Note_off_c, 1, 65, 0
1, 48718, Note_on_c, 1, 64, 127
1, 48720, Note_on_c, 1, 45, 127
1, 48816, Note_off_c, 1, 45, 0
1, 48840, Note_on_c, 1, 47, 127
1, 48862, Note_off_c, 1, 64, 0
1, 48898, Note_on_c, 1, 63, 127
1, 48936, Note_off_c, 1, 47, 0
1, 48946, Note_off_c, 1, 63, 0
1, 48960, Note_on_c, 1, 64, 127
1, 48960, Note_on_c, 1, 48, 127
1, 48984, Note_off_c, 1, 64, 0
1, 48990, Note_on_c, 1, 68, 127
1, 49014, Note_off_c, 1, 68, 0
1, 49020, Note_on_c, 1, 69, 127
1, 49056, Note_off_c, 1, 48, 0
1, 49068, Note_off_c, 1, 69, 0
1, 49080, Note_on_c, 1, 57, 127
1, 49080, Note_on_c, 1, 50, 127
1, 49128, Note_off_c, 1, 57, 0
1, 49140, Note_on_c, 1, 62, 127
1, 49176, Note_off_c, 1, 50, 0
1, 49200, Note_on_c, 1, 52, 127
1, 49236, Note_off_c, 1, 62, 0
1, 49260, Note_on_c, 1, 60, 127
1, 49284, Note_off_c, 1, 60, 0
1, 49290, Note_on_c, 1, 59, 127
1, 49296, Note_off_c, 1, 52, 0
1, 49314, Note_off_c, 1, 59, 0
1, 49320, Note_on_c, 1, 60, 127
1, 49320, Note_on_c, 1, 45, 127
1, 49368, Note_off_c, 1, 60, 0
1, 49380, Note_on_c, 1, 72, 127
1, 49416, Note_off_c, 1, 45, 0
1, 49428, Note_off_c, 1, 72, 0
1, 49440, Note_on_c, 1, 71, 127
1, 49440, Note_on_c, 1, 43, 127
1, 49488, Note_off_c, 1, 71, 0
1, 49500, Note_on_c, 1, 64, 127
1, 49536, Note_off_c, 1, 43, 0
1, 49560, Note_on_c, 1, 69, 127
1, 49560, Note_on_c, 1, 42, 127
1, 49596, Note_off_c, 1, 64, 0
1, 49620, Note_on_c, 1, 63, 127
1, 49656, Note_off_c, 1, 69, 0
1, 49656, Note_off_c, 1, 42, 0
1, 49668, Note_off_c, 1, 63, 0
1, 49680, Note_on_c, 1, 76, 127
1, 49680, Note_on_c, 1, 64, 127
1, 49680, Note_on_c, 1, 40, 127
1, 49704, Note_off_c, 1, 64, 0
1, 49710, Note_on_c, 1, 62, 127
1, 49728, Note_off_c, 1, 76, 0
1, 49734, Note_off_c, 1, 62, 0
1, 49740, Note_on_c, 1, 78, 127
1, 49740, Note_on_c, 1, 60, 127
1, 49776, Note_off_c, 1, 40, 0
1, 49788, Note_off_c, 1, 78, 0
1, 49788, Note_off_c, 1, 60, 0
1, 49800, Note_on_c, 1, 79, 127
1, 49800, Note_on_c, 1, 59, 127
1, 49800, Note_on_c, 1, 42, 127
1, 49857, Note_off_c, 1, 79, 0
1, 49860, Note_on_c, 1, 78, 127
1, 49896, Note_off_c, 1, 42, 0
1, 49908, Note_off_c, 1, 78, 0
1, 49920, Note_on_c, 1, 76, 127
1, 49920, Note_on_c, 1, 43, 127
1, 49992, Note_off_c, 1, 59, 0
1, 50016, Note_off_c, 1, 76, 0
1, 50016, Note_off_c, 1, 43, 0
1, 50040, Note_on_c, 1, 75, 127
1, 50040, Note_on_c, 1, 59, 127
1, 50040, Note_on_c, 1, 45, 127
1, 50136, Note_off_c, 1, 75, 0
1, 50136, Note_off_c, 1, 45, 0
1, 50160, Note_on_c, 1, 76, 127
1, 50160, Note_on_c, 1, 43, 127
1, 50184, Note_off_c, 1, 59, 0
1, 50220, Note_on_c, 1, 71, 127
1, 50256, Note_off_c, 1, 76, 0
1, 50256, Note_off_c, 1, 43, 0
1, 50268, Note_off_c, 1, 71, 0
1, 50280, Note_on_c, 1, 69, 127
1, 50280, Note_on_c, 1, 45, 127
1, 50304, Note_off_c, 1, 69, 0
1, 50310, Note_on_c, 1, 68, 127
1, 50334, Note_off_c, 1, 68, 0
1, 50340, Note_on_c, 1, 66, 127
1, 50364, Note_off_c, 1, 66, 0
1, 50376, Note_off_c, 1, 45, 0
1, 50400, Note_on_c, 1, 68, 127
1, 50400, Note_on_c, 1, 74, 127
1, 50400, Note_on_c, 1, 47, 127
1, 50448, Note_off_c, 1, 74, 0
1, 50460, Note_on_c, 1, 65, 127
1, 50496, Note_off_c, 1, 47, 0
1, 50508, Note_off_c, 1, 65, 0
1, 50520, Note_on_c, 1, 64, 127
1, 50520, Note_on_c, 1, 48, 127
1, 50544, Note_off_c, 1, 68, 0
1, 50580, Note_on_c, 1, 69, 127
1, 50604, Note_off_c, 1, 69, 0
1, 50610, Note_on_c, 1, 71, 127
1, 50616, Note_off_c, 1, 64, 0
1, 50616, Note_off_c, 1, 48, 0
1, 50634, Note_off_c, 1, 71, 0
1, 50640, Note_on_c, 1, 69, 127
1, 50640, Note_on_c, 1, 50, 127
1, 50664, Note_off_c, 1, 69, 0
1, 50670, Note_on_c, 1, 68, 127
1, 50694, Note_off_c, 1, 68, 0
1, 50700, Note_on_c, 1, 66, 127
1, 50700, Note_on_c, 1, 72, 127
1, 50724, Note_off_c, 1, 66, 0
1, 50730, Note_on_c, 1, 64, 127
1, 50736, Note_off_c, 1, 50, 0
1, 50748, Note_off_c, 1, 72, 0
1, 50754, Note_off_c, 1, 64, 0
1, 50760, Note_on_c, 1, 74, 127
1, 50760, Note_on_c, 1, 71, 127
1, 50760, Note_on_c, 1, 40, 127
1, 50784, Note_off_c, 1, 74, 0
1, 50784, Note_off_c, 1, 71, 0
1, 50790, Note_on_c, 1, 73, 127
1, 50790, Note_on_c, 1, 69, 127
1, 50814, Note_off_c, 1, 73, 0
1, 50814, Note_off_c, 1, 69, 0
1, 50820, Note_on_c, 1, 68, 127
1, 50856, Note_off_c, 1, 40, 0
1, 50868, Note_off_c, 1, 68, 0
1, 50880, Note_on_c, 1, 73, 127
1, 50880, Note_on_c, 1, 69, 127
1, 50880, Note_on_c, 1, 45, 127
1, 50928, Note_off_c, 1, 69, 0
1, 50940, Note_on_c, 1, 67, 127
1, 50964, Note_off_c, 1, 67, 0
1, 50970, Note_on_c, 1, 66, 127
1, 50976, Note_off_c, 1, 73, 0
1, 50976, Note_off_c, 1, 45, 0
1, 50994, Note_off_c, 1, 66, 0
1, 51000, Note_on_c, 1, 64, 127
1, 51000, Note_on_c, 1, 43, 127
1, 51024, Note_off_c, 1, 64, 0
1, 51030, Note_on_c, 1, 63, 127
1, 51054, Note_off_c, 1, 63, 0
1, 51096, Note_off_c, 1, 43, 0
1, 51120, Note_on_c, 1, 72, 127
1, 51120, Note_on_c, 1, 57, 127
1, 51120, Note_on_c, 1, 42, 127
1, 51144, Note_off_c, 1, 72, 0
1, 51150, Note_on_c, 1, 71, 127
1, 51168, Note_off_c, 1, 57, 0
1, 51174, Note_off_c, 1, 71, 0
1, 51180, Note_on_c, 1, 64, 127
1, 51216, Note_off_c, 1, 42, 0
1, 51228, Note_off_c, 1, 64, 0
1, 51240, Note_on_c, 1, 63, 127
1, 51240, Note_on_c, 1, 45, 127
1, 51300, Note_on_c, 1, 75, 127
1, 51336, Note_off_c, 1, 63, 0
1, 51336, Note_off_c, 1, 45, 0
1, 51360, Note_on_c, 1, 48, 127
1, 51396, Note_off_c, 1, 75, 0
1, 51420, Note_on_c, 1, 78, 127
1, 51456, Note_off_c, 1, 48, 0
1, 51468, Note_off_c, 1, 78, 0
1, 51480, Note_on_c, 1, 81, 127
1, 51480, Note_on_c, 1, 66, 127
1, 51480, Note_on_c, 1, 39, 127
1, 51528, Note_off_c, 1, 81, 0
1, 51528, Note_off_c, 1, 66, 0
1, 51540, Note_on_c, 1, 72, 127
1, 51540, Note_on_c, 1, 57, 127
1, 51576, Note_off_c, 1, 39, 0
1, 51588, Note_off_c, 1, 72, 0
1, 51588, Note_off_c, 1, 57, 0
1, 51600, Note_on_c, 1, 71, 127
1, 51600, Note_on_c, 1, 55, 127
1, 51600, Note_on_c, 1, 40, 127
1, 51648, Note_off_c, 1, 55, 0
1, 51660, Note_on_c, 1, 59, 127
1, 51696, Note_off_c, 1, 40, 0
1, 51708, Note_off_c, 1, 59, 0
1, 51720, Note_on_c, 1, 63, 127
1, 51720, Note_on_c, 1, 42, 127
1, 51744, Note_off_c, 1, 71, 0
1, 51780, Note_on_c, 1, 70, 127
1, 51816, Note_off_c, 1, 63, 0
1, 51816, Note_off_c, 1, 42, 0
1, 51828, Note_off_c, 1, 70, 0
1, 51840, Note_on_c, 1, 71, 127
1, 51840, Note_on_c, 1, 43, 127
1, 51864, Note_off_c, 1, 71, 0
1, 51870, Note_on_c, 1, 75, 127
1, 51894, Note_off_c, 1, 75, 0
1, 51900, Note_on_c, 1, 76, 127
1, 51936, Note_off_c, 1, 43, 0
1, 51948, Note_off_c, 1, 76, 0
1, 51960, Note_on_c, 1, 64, 127
1, 51960, Note_on_c, 1, 72, 127
1, 51960, Note_on_c, 1, 45, 127
1, 52008, Note_off_c, 1, 64, 0
1, 52008, Note_off_c, 1, 72, 0
1, 52020, Note_on_c, 1, 69, 127
1, 52056, Note_off_c, 1, 45, 0
1, 52080, Note_on_c, 1, 66, 127
1, 52080, Note_on_c, 1, 47, 127
1, 52116, Note_off_c, 1, 69, 0
1, 52128, Note_off_c, 1, 66, 0
1, 52140, Note_on_c, 1, 67, 127
1, 52140, Note_on_c, 1, 75, 127
1, 52164, Note_off_c, 1, 67, 0
1, 52176, Note_off_c, 1, 47, 0
1, 52188, Note_off_c, 1, 75, 0
1, 52200, Note_on_c, 1, 67, 127
1, 52200, Note_on_c, 1, 76, 127
1, 52200, Note_on_c, 1, 40, 127
1, 52248, Note_off_c, 1, 76, 0
1, 52260, Note_on_c, 1, 64, 127
1, 52296, Note_off_c, 1, 67, 0
1, 52296, Note_off_c, 1, 40, 0
1, 52320, Note_on_c, 1, 41, 127
1, 52356, Note_off_c, 1, 64, 0
1, 52380, Note_on_c, 1, 62, 127
1, 52416, Note_off_c, 1, 41, 0
1, 52440, Note_on_c, 1, 82, 127
1, 52440, Note_on_c, 1, 43, 127
1, 52464, Note_off_c, 1, 62, 0
1, 52470, Note_on_c, 1, 61, 127
1, 52494, Note_off_c, 1, 61, 0
1, 52536, Note_off_c, 1, 43, 0
1, 52560, Note_on_c, 1, 45, 127
1, 52608, Note_off_c, 1, 82, 0
1, 52620, Note_on_c, 1, 81, 127
1, 52656, Note_off_c, 1, 45, 0
1, 52680, Note_on_c, 1, 47, 127
1, 52716, Note_off_c, 1, 81, 0
1, 52740, Note_on_c, 1, 79, 127
1, 52776, Note_off_c, 1, 47, 0
1, 52800, Note_on_c, 1, 49, 127
1, 52824, Note_off_c, 1, 79, 0
1, 52830, Note_on_c, 1, 77, 127
1, 52854, Note_off_c, 1, 77, 0
1, 52896, Note_off_c, 1, 49, 0
1, 52920, Note_on_c, 1, 50, 127
1, 52980, Note_on_c, 1, 74, 127
1, 53016, Note_off_c, 1, 50, 0
1, 53040, Note_on_c, 1, 52, 127
1, 53076, Note_off_c, 1, 74, 0
1, 53100, Note_on_c, 1, 72, 127
1, 53136, Note_off_c, 1, 52, 0
1, 53160, Note_on_c, 1, 69, 127
1, 53160, Note_on_c, 1, 53, 127
1, 53184, Note_off_c, 1, 72, 0
1, 53190, Note_on_c, 1, 71, 127
1, 53214, Note_off_c, 1, 71, 0
1, 53256, Note_off_c, 1, 53, 0
1, 53280, Note_on_c, 1, 55, 127
1, 53328, Note_off_c, 1, 69, 0
1, 53376, Note_off_c, 1, 55, 0
1, 53400, Note_on_c, 1, 57, 127
1, 53460, Note_on_c, 1, 65, 127
1, 53496, Note_off_c, 1, 57, 0
1, 53520, Note_on_c, 1, 59, 127
1, 53544, Note_off_c, 1, 65, 0
1, 53616, Note_off_c, 1, 59, 0
1, 53640, Note_on_c, 1, 48, 127
1, 53700, Note_on_c, 1, 60, 127
1, 53736, Note_off_c, 1, 48, 0
1, 53796, Note_off_c, 1, 60, 0
1, 53820, Note_on_c, 1, 58, 127
1, 53904, Note_off_c, 1, 58, 0
1, 54150, Note_on_c, 1, 77, 127
1, 54150, Note_on_c, 1, 62, 127
1, 54174, Note_off_c, 1, 62, 0
1, 54179, Note_off_c, 1, 77, 0
1, 54180, Note_on_c, 1, 79, 127
1, 54180, Note_on_c, 1, 64, 127
1, 54180, Note_on_c, 1, 40, 127
1, 54204, Note_off_c, 1, 64, 0
1, 54209, Note_off_c, 1, 79, 0
1, 54210, Note_on_c, 1, 77, 127
1, 54210, Note_on_c, 1, 62, 127
1, 54228, Note_off_c, 1, 40, 0
1, 54234, Note_off_c, 1, 62, 0
1, 54240, Note_on_c, 1, 38, 127
1, 54336, Note_off_c, 1, 38, 0
1, 54360, Note_on_c, 1, 44, 127
1, 54384, Note_off_c, 1, 77, 0
1, 54390, Note_on_c, 1, 60, 127
1, 54414, Note_off_c, 1, 60, 0
1, 54420, Note_on_c, 1, 76, 127
1, 54420, Note_on_c, 1, 59, 127
1, 54444, Note_off_c, 1, 76, 0
1, 54450, Note_on_c, 1, 78, 127
1, 54456, Note_off_c, 1, 44, 0
1, 54468, Note_off_c, 1, 59, 0
1, 54474, Note_off_c, 1, 78, 0
1, 54480, Note_on_c, 1, 80, 127
1, 54480, Note_on_c, 1, 60, 127
1, 54480, Note_on_c, 1, 45, 127
1, 54504, Note_off_c, 1, 80, 0
1, 54510, Note_on_c, 1, 81, 127
1, 54534, Note_off_c, 1, 81, 0
1, 54540, Note_on_c, 1, 83, 127
1, 54576, Note_off_c, 1, 60, 0
1, 54576, Note_off_c, 1, 45, 0
1, 54588, Note_off_c, 1, 83, 0
1, 54600, Note_on_c, 1, 74, 127
1, 54600, Note_on_c, 1, 47, 127
1, 54696, Note_off_c, 1, 47, 0
1, 54720, Note_on_c, 1, 76, 127
1, 54720, Note_on_c, 1, 48, 127
1, 54744, Note_off_c, 1, 74, 0
1, 54750, Note_on_c, 1, 72, 127
1, 54774, Note_off_c, 1, 72, 0
1, 54780, Note_on_c, 1, 71, 127
1, 54816, Note_off_c, 1, 76, 0
1, 54828, Note_off_c, 1, 71, 0
1, 54840, Note_on_c, 1, 83, 127
1, 54864, Note_off_c, 1, 48, 0
1, 54864, Note_off_c, 1, 83, 0
1, 54870, Note_on_c, 1, 81, 127
1, 54870, Note_on_c, 1, 72, 127
1, 54894, Note_off_c, 1, 81, 0
1, 54894, Note_off_c, 1, 72, 0
1, 54900, Note_on_c, 1, 83, 127
1, 54900, Note_on_c, 1, 74, 127
1, 54900, Note_on_c, 1, 47, 127
1, 54924, Note_off_c, 1, 83, 0
1, 54924, Note_off_c, 1, 74, 0
1, 54930, Note_on_c, 1, 81, 127
1, 54930, Note_on_c, 1, 72, 127
1, 54948, Note_off_c, 1, 47, 0
1, 54954, Note_off_c, 1, 72, 0
1, 54960, Note_on_c, 1, 45, 127
1, 54984, Note_off_c, 1, 81, 0
1, 54990, Note_on_c, 1, 79, 127
1, 55014, Note_off_c, 1, 79, 0
1, 55020, Note_on_c, 1, 78, 127
1, 55056, Note_off_c, 1, 45, 0
1, 55068, Note_off_c, 1, 78, 0
1, 55080, Note_on_c, 1, 51, 127
1, 55176, Note_off_c, 1, 51, 0
1, 55200, Note_on_c, 1, 69, 127
1, 55200, Note_on_c, 1, 52, 127
1, 55260, Note_on_c, 1, 71, 127
1, 55284, Note_off_c, 1, 71, 0
1, 55296, Note_off_c, 1, 52, 0
1, 55320, Note_on_c, 1, 67, 127
1, 55320, Note_on_c, 1, 54, 127
1, 55344, Note_off_c, 1, 67, 0
1, 55350, Note_on_c, 1, 65, 127
1, 55374, Note_off_c, 1, 65, 0
1, 55380, Note_on_c, 1, 64, 127
1, 55416, Note_off_c, 1, 54, 0
1, 55428, Note_off_c, 1, 64, 0
1, 55440, Note_on_c, 1, 63, 127
1, 55440, Note_on_c, 1, 55, 127
1, 55464, Note_off_c, 1, 69, 0
1, 55500, Note_on_c, 1, 66, 127
1, 55536, Note_off_c, 1, 63, 0
1, 55548, Note_off_c, 1, 66, 0
1, 55584, Note_off_c, 1, 55, 0
1, 55590, Note_on_c, 1, 66, 127
1, 55590, Note_on_c, 1, 63, 127
1, 55614, Note_off_c, 1, 66, 0
1, 55614, Note_off_c, 1, 63, 0
1, 55620, Note_on_c, 1, 67, 127
1, 55620, Note_on_c, 1, 64, 127
1, 55620, Note_on_c, 1, 54, 127
1, 55668, Note_off_c, 1, 67, 0
1, 55668, Note_off_c, 1, 54, 0
1, 55677, Note_off_c, 1, 64, 0
1, 55680, Note_on_c, 1, 67, 127
1, 55680, Note_on_c, 1, 76, 127
1, 55680, Note_on_c, 1, 52, 127
1, 55776, Note_off_c, 1, 52, 0
1, 55800, Note_on_c, 1, 58, 127
1, 55824, Note_off_c, 1, 76, 0
1, 55830, Note_on_c, 1, 75, 127
1, 55854, Note_off_c, 1, 75, 0
1, 55860, Note_on_c, 1, 73, 127
1, 55896, Note_off_c, 1, 58, 0
1, 55908, Note_off_c, 1, 73, 0
1, 55920, Note_on_c, 1, 59, 127
1, 55944, Note_off_c, 1, 67, 0
1, 55980, Note_on_c, 1, 66, 127
1, 56004, Note_off_c, 1, 66, 0
1, 56010, Note_on_c, 1, 64, 127
1, 56016, Note_off_c, 1, 59, 0
1, 56034, Note_off_c, 1, 64, 0
1, 56040, Note_on_c, 1, 66, 127
1, 56040, Note_on_c, 1, 74, 127
1, 56064, Note_off_c, 1, 66, 0
1, 56070, Note_on_c, 1, 68, 127
1, 56094, Note_off_c, 1, 68, 0
1, 56100, Note_on_c, 1, 69, 127
1, 56148, Note_off_c, 1, 69, 0
1, 56160, Note_on_c, 1, 71, 127
1, 56160, Note_on_c, 1, 56, 127
1, 56184, Note_off_c, 1, 74, 0
1, 56190, Note_on_c, 1, 73, 127
1, 56214, Note_off_c, 1, 73, 0
1, 56256, Note_off_c, 1, 56, 0
1, 56280, Note_on_c, 1, 57, 127
1, 56304, Note_off_c, 1, 71, 0
1, 56376, Note_off_c, 1, 57, 0
1, 56400, Note_on_c, 1, 69, 127
1, 56400, Note_on_c, 1, 72, 127
1, 56424, Note_off_c, 1, 69, 0
1, 56430, Note_on_c, 1, 71, 127
1, 56454, Note_off_c, 1, 71, 0
1, 56520, Note_on_c, 1, 75, 127
1, 56520, Note_on_c, 1, 54, 127
1, 56544, Note_off_c, 1, 72, 0
1, 56580, Note_on_c, 1, 70, 127
1, 56616, Note_off_c, 1, 54, 0
1, 56628, Note_off_c, 1, 70, 0
1, 56640, Note_on_c, 1, 55, 127
1, 56664, Note_off_c, 1, 75, 0
1, 56700, Note_on_c, 1, 76, 127
1, 56724, Note_off_c, 1, 76, 0
1, 56736, Note_off_c, 1, 55, 0
1, 56760, Note_on_c, 1, 76, 127
1, 56760, Note_on_c, 1, 70, 127
1, 56784, Note_off_c, 1, 76, 0
1, 56790, Note_on_c, 1, 78, 127
1, 56814, Note_off_c, 1, 78, 0
1, 56820, Note_on_c, 1, 79, 127
1, 56868, Note_off_c, 1, 79, 0
1, 56880, Note_on_c, 1, 73, 127
1, 56880, Note_on_c, 1, 52, 127
1, 56904, Note_off_c, 1, 70, 0
1, 56910, Note_on_c, 1, 69, 127
1, 56934, Note_off_c, 1, 69, 0
1, 56940, Note_on_c, 1, 68, 127
1, 56976, Note_off_c, 1, 52, 0
1, 56988, Note_off_c, 1, 68, 0
1, 57000, Note_on_c, 1, 53, 127
1, 57024, Note_off_c, 1, 73, 0
1, 57060, Note_on_c, 1, 74, 127
1, 57084, Note_off_c, 1, 74, 0
1, 57096, Note_off_c, 1, 53, 0
1, 57120, Note_on_c, 1, 74, 127
1, 57120, Note_on_c, 1, 57, 127
1, 57144, Note_off_c, 1, 74, 0
1, 57150, Note_on_c, 1, 72, 127
1, 57174, Note_off_c, 1, 72, 0
1, 57180, Note_on_c, 1, 71, 127
1, 57228, Note_off_c, 1, 71, 0
1, 57240, Note_on_c, 1, 51, 127
1, 57264, Note_off_c, 1, 57, 0
1, 57270, Note_on_c, 1, 55, 127
1, 57294, Note_off_c, 1, 55, 0
1, 57300, Note_on_c, 1, 54, 127
1, 57336, Note_off_c, 1, 51, 0
1, 57348, Note_off_c, 1, 54, 0
1, 57360, Note_on_c, 1, 52, 127
1, 57450, Note_on_c, 1, 70, 127
1, 57456, Note_off_c, 1, 52, 0
1, 57474, Note_off_c, 1, 70, 0
1, 57480, Note_on_c, 1, 71, 127
1, 57504, Note_off_c, 1, 71, 0
1, 57510, Note_on_c, 1, 75, 127
1, 57534, Note_off_c, 1, 75, 0
1, 57540, Note_on_c, 1, 76, 127
1, 57588, Note_off_c, 1, 76, 0
1, 57600, Note_on_c, 1, 64, 127
1, 57600, Note_on_c, 1, 67, 127
1, 57600, Note_on_c, 1, 48, 127
1, 57624, Note_off_c, 1, 67, 0
1, 57630, Note_on_c, 1, 66, 127
1, 57654, Note_off_c, 1, 66, 0
1, 57696, Note_off_c, 1, 48, 0
1, 57708, Note_off_c, 1, 64, 0
1, 57720, Note_on_c, 1, 69, 127
1, 57720, Note_on_c, 1, 66, 127
1, 57720, Note_on_c, 1, 45, 127
1, 57810, Note_off_c, 1, 69, 0
1, 57810, Note_off_c, 1, 66, 0
1, 57816, Note_off_c, 1, 45, 0
1, 57840, Note_on_c, 1, 67, 127
1, 57840, Note_on_c, 1, 64, 127
1, 57840, Note_on_c, 1, 47, 127
1, 57864, Note_off_c, 1, 67, 0
1, 57864, Note_off_c, 1, 64, 0
1, 57870, Note_on_c, 1, 66, 127
1, 57870, Note_on_c, 1, 63, 127
1, 57894, Note_off_c, 1, 66, 0
1, 57894, Note_off_c, 1, 63, 0
1, 57936, Note_off_c, 1, 47, 0
1, 57960, Note_on_c, 1, 64, 127
1, 57960, Note_on_c, 1, 40, 127
1, 58248, Note_off_c, 1, 64, 0
1, 58248, Note_off_c, 1, 40, 0
1, 58248, End_track
0, 0, End_of_file