0, 0, Header, 1, 1, 480
1, 0, Start_track
1, 0, Title_t, "Test"
1, 0, Tempo, 500000
1, 0, Instrument_name_t, "Church Organ"
1, 0, Note_on_c, 1, 58, 127
1, 768, Note_off_c, 1, 58, 0
1, 960, Note_on_c, 1, 55, 127
1, 1440, Note_on_c, 1, 60, 127
1, 1464, Note_off_c, 1, 55, 0
1, 1920, Note_on_c, 1, 58, 127
1, 1933, Note_off_c, 1, 60, 0
1, 2398, Note_off_c, 1, 58, 0
1, 2400, Note_on_c, 1, 63, 127
1, 3360, Note_on_c, 1, 62, 127
1, 3385, Note_off_c, 1, 63, 0
1, 3833, Note_off_c, 1, 62, 0
1, 3840, Note_on_c, 1, 63, 127
1, 3840, Note_on_c, 1, 51, 127
1, 4061, Note_off_c, 1, 63, 0
1, 4080, Note_on_c, 1, 65, 127
1, 4320, Note_on_c, 1, 67, 127
1, 4325, Note_off_c, 1, 65, 0
1, 4560, Note_on_c, 1, 68, 127
1, 4565, Note_off_c, 1, 67, 0
1, 4790, Note_off_c, 1, 51, 0
1, 4800, Note_on_c, 1, 70, 127
1, 4800, Note_on_c, 1, 50, 127
1, 4811, Note_off_c, 1, 68, 0
1, 5032, Note_off_c, 1, 70, 0
1, 5040, Note_on_c, 1, 58, 127
1, 5280, Note_on_c, 1, 55, 127
1, 5284, Note_off_c, 1, 58, 0
1, 5309, Note_off_c, 1, 50, 0
1, 5803, Note_off_c, 1, 55, 0
1, 6480, Note_on_c, 1, 62, 127
1, 6732, Note_off_c, 1, 62, 0
1, 6960, Note_on_c, 1, 60, 127
1, 7200, Note_on_c, 1, 57, 127
1, 7223, Note_off_c, 1, 60, 0
1, 7724, Note_off_c, 1, 57, 0
1, 8880, Note_on_c, 1, 53, 127
1, 9146, Note_off_c, 1, 53, 0
1, 10560, Note_on_c, 1, 56, 127
1, 11776, Note_off_c, 1, 56, 0
1, 12960, Note_on_c, 1, 72, 127
1, 13463, Note_off_c, 1, 72, 0
1, 13920, Note_on_c, 1, 75, 127
1, 14877, Note_off_c, 1, 75, 0
1, 14880, Note_on_c, 1, 74, 127
1, 15418, Note_off_c, 1, 74, 0
1, 18480, Note_on_c, 1, 48, 127
1, 18718, Note_off_c, 1, 48, 0
1, 18720, Note_on_c, 1, 69, 127
1, 19248, Note_off_c, 1, 69, 0
1, 19680, Note_on_c, 1, 46, 127
1, 19872, Note_off_c, 1, 46, 0
1, 20160, Note_on_c, 1, 77, 127
1, 20648, Note_off_c, 1, 77, 0
1, 21600, Note_on_c, 1, 79, 127
1, 22752, Note_off_c, 1, 79, 0
1, 25920, Note_on_c, 1, 43, 127
1, 26428, Note_off_c, 1, 43, 0
1, 27120, Note_on_c, 1, 82, 127
1, 27360, Note_on_c, 1, 80, 127
1, 27378, Note_off_c, 1, 82, 0
1, 27610, Note_off_c, 1, 80, 0
1, 30720, Note_on_c, 1, 44, 127
1, 31695, Note_off_c, 1, 44, 0
1, 36720, Note_on_c, 1, 81, 127
1, 36989, Note_off_c, 1, 81, 0
1, 37920, Note_on_c, 1, 41, 127
1, 38433, Note_off_c, 1, 41, 0
1, 38880, Note_on_c, 1, 70, 127
1, 38880, Note_on_c, 1, 60, 127
1, 39120, Note_on_c, 1, 62, 127
1, 39141, Note_off_c, 1, 60, 0
1, 39360, Note_on_c, 1, 67, 127
1, 39360, Note_on_c, 1, 63, 127
1, 39363, Note_off_c, 1, 70, 0
1, 39370, Note_off_c, 1, 62, 0
1, 39605, Note_off_c, 1, 63, 0
1, 39834, Note_off_c, 1, 67, 0
1, 39840, Note_on_c, 1, 75, 127
1, 39840, Note_on_c, 1, 72, 127
1, 40080, Note_on_c, 1, 65, 127
1, 40301, Note_off_c, 1, 72, 0
1, 40320, Note_on_c, 1, 74, 127
1, 40335, Note_off_c, 1, 75, 0
1, 40364, Note_off_c, 1, 65, 0
1, 40785, Note_off_c, 1, 74, 0
1, 40800, Note_on_c, 1, 79, 127
1, 41040, Note_on_c, 1, 68, 127
1, 41280, Note_on_c, 1, 77, 127
1, 41280, Note_on_c, 1, 58, 127
1, 41312, Note_off_c, 1, 68, 0
1, 41313, Note_off_c, 1, 79, 0
1, 41664, Note_off_c, 1, 77, 0
1, 41760, Note_on_c, 1, 82, 127
1, 42048, Note_off_c, 1, 58, 0
1, 42240, Note_on_c, 1, 55, 127
1, 42624, Note_off_c, 1, 55, 0
1, 42720, Note_on_c, 1, 80, 127
1, 42755, Note_off_c, 1, 82, 0
1, 43686, Note_off_c, 1, 80, 0
1, 47040, Note_on_c, 1, 56, 127
1, 48514, Note_off_c, 1, 56, 0
1, 49200, Note_on_c, 1, 53, 127
1, 49440, Note_on_c, 1, 51, 127
1, 49483, Note_off_c, 1, 53, 0
1, 49680, Note_on_c, 1, 50, 127
1, 49704, Note_off_c, 1, 51, 0
1, 49959, Note_off_c, 1, 50, 0
1, 52800, Note_on_c, 1, 76, 127
1, 53283, Note_off_c, 1, 76, 0
1, 53760, Note_on_c, 1, 48, 127
1, 54720, Note_on_c, 1, 57, 127
1, 54729, Note_off_c, 1, 48, 0
1, 55221, Note_off_c, 1, 57, 0
1, 56880, Note_on_c, 1, 46, 127
1, 57072, Note_off_c, 1, 46, 0
1, 58560, Note_on_c, 1, 43, 127
1, 59042, Note_off_c, 1, 43, 0
1, 60720, Note_on_c, 1, 84, 127
1, 60960, Note_on_c, 1, 49, 127
1, 60976, Note_off_c, 1, 84, 0
1, 61704, Note_off_c, 1, 49, 0
1, 65760, Note_on_c, 1, 73, 127
1, 65760, Note_on_c, 1, 61, 127
1, 65992, Note_off_c, 1, 61, 0
1, 66715, Note_off_c, 1, 73, 0
1, 69120, Note_on_c, 1, 39, 127
1, 69345, Note_off_c, 1, 39, 0
1, 69360, Note_on_c, 1, 51, 127
1, 69456, Note_off_c, 1, 51, 0
1, 69480, Note_on_c, 1, 50, 127
1, 69576, Note_off_c, 1, 50, 0
1, 69600, Note_on_c, 1, 51, 127
1, 69696, Note_off_c, 1, 51, 0
1, 69720, Note_on_c, 1, 53, 127
1, 69816, Note_off_c, 1, 53, 0
1, 69840, Note_on_c, 1, 55, 127
1, 69936, Note_off_c, 1, 55, 0
1, 69960, Note_on_c, 1, 53, 127
1, 70056, Note_off_c, 1, 53, 0
1, 70080, Note_on_c, 1, 55, 127
1, 70176, Note_off_c, 1, 55, 0
1, 70200, Note_on_c, 1, 56, 127
1, 70296, Note_off_c, 1, 56, 0
1, 70320, Note_on_c, 1, 55, 127
1, 70416, Note_off_c, 1, 55, 0
1, 70440, Note_on_c, 1, 56, 127
1, 70536, Note_off_c, 1, 56, 0
1, 70560, Note_on_c, 1, 53, 127
1, 70656, Note_off_c, 1, 53, 0
1, 70680, Note_on_c, 1, 51, 127
1, 70776, Note_off_c, 1, 51, 0
1, 70800, Note_on_c, 1, 53, 127
1, 70896, Note_off_c, 1, 53, 0
1, 70920, Note_on_c, 1, 55, 127
1, 71016, Note_off_c, 1, 55, 0
1, 71040, Note_on_c, 1, 53, 127
1, 71136, Note_off_c, 1, 53, 0
1, 71160, Note_on_c, 1, 55, 127
1, 71256, Note_off_c, 1, 55, 0
1, 71280, Note_on_c, 1, 56, 127
1, 71376, Note_off_c, 1, 56, 0
1, 71400, Note_on_c, 1, 55, 127
1, 71496, Note_off_c, 1, 55, 0
1, 71520, Note_on_c, 1, 56, 127
1, 71616, Note_off_c, 1, 56, 0
1, 71640, Note_on_c, 1, 58, 127
1, 71736, Note_off_c, 1, 58, 0
1, 71760, Note_on_c, 1, 56, 127
1, 71856, Note_off_c, 1, 56, 0
1, 71880, Note_on_c, 1, 58, 127
1, 71976, Note_off_c, 1, 58, 0
1, 72000, Note_on_c, 1, 55, 127
1, 72096, Note_off_c, 1, 55, 0
1, 72120, Note_on_c, 1, 53, 127
1, 72216, Note_off_c, 1, 53, 0
1, 72240, Note_on_c, 1, 58, 127
1, 72240, Note_on_c, 1, 51, 127
1, 72336, Note_off_c, 1, 58, 0
1, 72336, Note_off_c, 1, 51, 0
1, 72360, Note_on_c, 1, 57, 127
1, 72360, Note_on_c, 1, 53, 127
1, 72456, Note_off_c, 1, 57, 0
1, 72456, Note_off_c, 1, 53, 0
1, 72480, Note_on_c, 1, 58, 127
1, 72480, Note_on_c, 1, 55, 127
1, 72576, Note_off_c, 1, 58, 0
1, 72576, Note_off_c, 1, 55, 0
1, 72600, Note_on_c, 1, 60, 127
1, 72600, Note_on_c, 1, 57, 127
1, 72696, Note_off_c, 1, 60, 0
1, 72696, Note_off_c, 1, 57, 0
1, 72720, Note_on_c, 1, 62, 127
1, 72720, Note_on_c, 1, 58, 127
1, 72816, Note_off_c, 1, 62, 0
1, 72840, Note_on_c, 1, 60, 127
1, 72912, Note_off_c, 1, 58, 0
1, 72936, Note_off_c, 1, 60, 0
1, 72960, Note_on_c, 1, 62, 127
1, 72960, Note_on_c, 1, 53, 127
1, 73056, Note_off_c, 1, 62, 0
1, 73080, Note_on_c, 1, 63, 127
1, 73152, Note_off_c, 1, 53, 0
1, 73176, Note_off_c, 1, 63, 0
1, 73200, Note_on_c, 1, 62, 127
1, 73200, Note_on_c, 1, 58, 127
1, 73296, Note_off_c, 1, 62, 0
1, 73320, Note_on_c, 1, 63, 127
1, 73416, Note_off_c, 1, 63, 0
1, 73440, Note_on_c, 1, 60, 127
1, 73536, Note_off_c, 1, 60, 0
1, 73656, Note_off_c, 1, 58, 0
1, 73680, Note_on_c, 1, 60, 127
1, 73680, Note_on_c, 1, 57, 127
1, 73776, Note_off_c, 1, 60, 0
1, 73776, Note_off_c, 1, 57, 0
1, 73800, Note_on_c, 1, 62, 127
1, 73800, Note_on_c, 1, 55, 127
1, 73896, Note_off_c, 1, 62, 0
1, 73896, Note_off_c, 1, 55, 0
1, 73920, Note_on_c, 1, 60, 127
1, 73920, Note_on_c, 1, 57, 127
1, 74016, Note_off_c, 1, 60, 0
1, 74016, Note_off_c, 1, 57, 0
1, 74040, Note_on_c, 1, 62, 127
1, 74040, Note_on_c, 1, 58, 127
1, 74136, Note_off_c, 1, 62, 0
1, 74136, Note_off_c, 1, 58, 0
1, 74160, Note_on_c, 1, 63, 127
1, 74160, Note_on_c, 1, 60, 127
1, 74256, Note_off_c, 1, 63, 0
1, 74280, Note_on_c, 1, 62, 127
1, 74352, Note_off_c, 1, 60, 0
1, 74376, Note_off_c, 1, 62, 0
1, 74400, Note_on_c, 1, 63, 127
1, 74400, Note_on_c, 1, 55, 127
1, 74496, Note_off_c, 1, 63, 0
1, 74520, Note_on_c, 1, 65, 127
1, 74592, Note_off_c, 1, 55, 0
1, 74616, Note_off_c, 1, 65, 0
1, 74640, Note_on_c, 1, 63, 127
1, 74640, Note_on_c, 1, 57, 127
1, 74736, Note_off_c, 1, 63, 0
1, 74760, Note_on_c, 1, 65, 127
1, 74832, Note_off_c, 1, 57, 0
1, 74856, Note_off_c, 1, 65, 0
1, 74880, Note_on_c, 1, 62, 127
1, 74880, Note_on_c, 1, 58, 127
1, 74976, Note_off_c, 1, 62, 0
1, 75000, Note_on_c, 1, 63, 127
1, 75072, Note_off_c, 1, 58, 0
1, 75096, Note_off_c, 1, 63, 0
1, 75120, Note_on_c, 1, 62, 127
1, 75120, Note_on_c, 1, 53, 127
1, 75216, Note_off_c, 1, 62, 0
1, 75216, Note_off_c, 1, 53, 0
1, 75240, Note_on_c, 1, 60, 127
1, 75240, Note_on_c, 1, 51, 127
1, 75336, Note_off_c, 1, 60, 0
1, 75336, Note_off_c, 1, 51, 0
1, 75360, Note_on_c, 1, 62, 127
1, 75360, Note_on_c, 1, 53, 127
1, 75456, Note_off_c, 1, 62, 0
1, 75456, Note_off_c, 1, 53, 0
1, 75480, Note_on_c, 1, 58, 127
1, 75480, Note_on_c, 1, 55, 127
1, 75576, Note_off_c, 1, 58, 0
1, 75576, Note_off_c, 1, 55, 0
1, 75600, Note_on_c, 1, 60, 127
1, 75600, Note_on_c, 1, 56, 127
1, 75696, Note_off_c, 1, 60, 0
1, 75720, Note_on_c, 1, 58, 127
1, 75792, Note_off_c, 1, 56, 0
1, 75816, Note_off_c, 1, 58, 0
1, 75840, Note_on_c, 1, 60, 127
1, 75840, Note_on_c, 1, 51, 127
1, 75936, Note_off_c, 1, 60, 0
1, 75960, Note_on_c, 1, 62, 127
1, 76032, Note_off_c, 1, 51, 0
1, 76056, Note_off_c, 1, 62, 0
1, 76080, Note_on_c, 1, 60, 127
1, 76080, Note_on_c, 1, 53, 127
1, 76176, Note_off_c, 1, 60, 0
1, 76200, Note_on_c, 1, 62, 127
1, 76272, Note_off_c, 1, 53, 0
1, 76296, Note_off_c, 1, 62, 0
1, 76320, Note_on_c, 1, 58, 127
1, 76320, Note_on_c, 1, 55, 127
1, 76416, Note_off_c, 1, 58, 0
1, 76440, Note_on_c, 1, 60, 127
1, 76512, Note_off_c, 1, 55, 0
1, 76536, Note_off_c, 1, 60, 0
1, 76560, Note_on_c, 1, 58, 127
1, 76560, Note_on_c, 1, 50, 127
1, 76656, Note_off_c, 1, 58, 0
1, 76656, Note_off_c, 1, 50, 0
1, 76680, Note_on_c, 1, 56, 127
1, 76680, Note_on_c, 1, 48, 127
1, 76776, Note_off_c, 1, 56, 0
1, 76776, Note_off_c, 1, 48, 0
1, 76800, Note_on_c, 1, 58, 127
1, 76800, Note_on_c, 1, 50, 127
1, 76896, Note_off_c, 1, 58, 0
1, 76896, Note_off_c, 1, 50, 0
1, 76920, Note_on_c, 1, 55, 127
1, 76920, Note_on_c, 1, 51, 127
1, 77016, Note_off_c, 1, 55, 0
1, 77016, Note_off_c, 1, 51, 0
1, 77040, Note_on_c, 1, 56, 127
1, 77040, Note_on_c, 1, 53, 127
1, 77136, Note_off_c, 1, 56, 0
1, 77160, Note_on_c, 1, 55, 127
1, 77232, Note_off_c, 1, 53, 0
1, 77256, Note_off_c, 1, 55, 0
1, 77280, Note_on_c, 1, 56, 127
1, 77280, Note_on_c, 1, 48, 127
1, 77376, Note_off_c, 1, 56, 0
1, 77400, Note_on_c, 1, 58, 127
1, 77472, Note_off_c, 1, 48, 0
1, 77496, Note_off_c, 1, 58, 0
1, 77520, Note_on_c, 1, 56, 127
1, 77520, Note_on_c, 1, 50, 127
1, 77616, Note_off_c, 1, 56, 0
1, 77640, Note_on_c, 1, 58, 127
1, 77712, Note_off_c, 1, 50, 0
1, 77736, Note_off_c, 1, 58, 0
1, 77760, Note_on_c, 1, 55, 127
1, 77760, Note_on_c, 1, 51, 127
1, 77856, Note_off_c, 1, 55, 0
1, 77880, Note_on_c, 1, 53, 127
1, 77976, Note_off_c, 1, 53, 0
1, 78000, Note_on_c, 1, 63, 127
1, 78096, Note_off_c, 1, 63, 0
1, 78120, Note_on_c, 1, 62, 127
1, 78120, Note_on_c, 1, 56, 127
1, 78144, Note_off_c, 1, 51, 0
1, 78216, Note_off_c, 1, 62, 0
1, 78216, Note_off_c, 1, 56, 0
1, 78240, Note_on_c, 1, 63, 127
1, 78240, Note_on_c, 1, 55, 127
1, 78240, Note_on_c, 1, 50, 127
1, 78336, Note_off_c, 1, 63, 0
1, 78336, Note_off_c, 1, 55, 0
1, 78360, Note_on_c, 1, 65, 127
1, 78360, Note_on_c, 1, 53, 127
1, 78432, Note_off_c, 1, 50, 0
1, 78456, Note_off_c, 1, 65, 0
1, 78456, Note_off_c, 1, 53, 0
1, 78480, Note_on_c, 1, 67, 127
1, 78480, Note_on_c, 1, 51, 127
1, 78480, Note_on_c, 1, 48, 127
1, 78576, Note_off_c, 1, 67, 0
1, 78600, Note_on_c, 1, 65, 127
1, 78672, Note_off_c, 1, 51, 0
1, 78672, Note_off_c, 1, 48, 0
1, 78696, Note_off_c, 1, 65, 0
1, 78720, Note_on_c, 1, 67, 127
1, 78720, Note_on_c, 1, 63, 127
1, 78720, Note_on_c, 1, 60, 127
1, 78816, Note_off_c, 1, 67, 0
1, 78840, Note_on_c, 1, 68, 127
1, 78912, Note_off_c, 1, 60, 0
1, 78936, Note_off_c, 1, 68, 0
1, 78960, Note_on_c, 1, 58, 127
1, 79152, Note_off_c, 1, 58, 0
1, 79200, Note_on_c, 1, 65, 127
1, 79200, Note_on_c, 1, 56, 127
1, 79296, Note_off_c, 1, 65, 0
1, 79392, Note_off_c, 1, 56, 0
1, 79440, Note_on_c, 1, 55, 127
1, 79632, Note_off_c, 1, 55, 0
1, 79920, Note_on_c, 1, 53, 127
1, 80112, Note_off_c, 1, 63, 0
1, 80112, Note_off_c, 1, 53, 0
1, 80160, Note_on_c, 1, 68, 127
1, 80160, Note_on_c, 1, 62, 127
1, 80160, Note_on_c, 1, 58, 127
1, 80256, Note_off_c, 1, 68, 0
1, 80280, Note_on_c, 1, 70, 127
1, 80352, Note_off_c, 1, 58, 0
1, 80376, Note_off_c, 1, 70, 0
1, 80400, Note_on_c, 1, 46, 127
1, 80544, Note_off_c, 1, 62, 0
1, 80592, Note_off_c, 1, 46, 0
1, 80640, Note_on_c, 1, 67, 127
1, 80640, Note_on_c, 1, 63, 127
1, 80640, Note_on_c, 1, 51, 127
1, 80753, Note_off_c, 1, 51, 0
1, 80760, Note_on_c, 1, 50, 127
1, 80832, Note_off_c, 1, 67, 0
1, 80832, Note_off_c, 1, 63, 0
1, 80873, Note_off_c, 1, 50, 0
1, 80880, Note_on_c, 1, 70, 127
1, 80880, Note_on_c, 1, 67, 127
1, 80880, Note_on_c, 1, 63, 127
1, 80880, Note_on_c, 1, 51, 127
1, 80976, Note_off_c, 1, 70, 0
1, 80993, Note_off_c, 1, 51, 0
1, 81000, Note_on_c, 1, 69, 127
1, 81000, Note_on_c, 1, 53, 127
1, 81096, Note_off_c, 1, 69, 0
1, 81113, Note_off_c, 1, 53, 0
1, 81120, Note_on_c, 1, 55, 127
1, 81233, Note_off_c, 1, 55, 0
1, 81240, Note_on_c, 1, 72, 127
1, 81240, Note_on_c, 1, 57, 127
1, 81264, Note_off_c, 1, 67, 0
1, 81264, Note_off_c, 1, 63, 0
1, 81336, Note_off_c, 1, 72, 0
1, 81353, Note_off_c, 1, 57, 0
1, 81360, Note_on_c, 1, 74, 127
1, 81360, Note_on_c, 1, 65, 127
1, 81360, Note_on_c, 1, 62, 127
1, 81360, Note_on_c, 1, 58, 127
1, 81456, Note_off_c, 1, 74, 0
1, 81480, Note_on_c, 1, 72, 127
1, 81552, Note_off_c, 1, 65, 0
1, 81552, Note_off_c, 1, 62, 0
1, 81576, Note_off_c, 1, 72, 0
1, 81600, Note_on_c, 1, 70, 127
1, 81600, Note_on_c, 1, 67, 127
1, 81720, Note_on_c, 1, 75, 127
1, 81792, Note_off_c, 1, 70, 0
1, 81792, Note_off_c, 1, 67, 0
1, 81816, Note_off_c, 1, 75, 0
1, 81840, Note_on_c, 1, 69, 127
1, 82032, Note_off_c, 1, 69, 0
1, 82080, Note_on_c, 1, 63, 127
1, 82176, Note_off_c, 1, 63, 0
1, 82656, Note_off_c, 1, 58, 0
1, 82800, Note_on_c, 1, 60, 127
1, 83040, Note_on_c, 1, 57, 127
1, 83160, Note_on_c, 1, 77, 127
1, 83256, Note_off_c, 1, 77, 0
1, 83376, Note_off_c, 1, 60, 0
1, 83424, Note_off_c, 1, 57, 0
1, 83760, Note_on_c, 1, 74, 127
1, 83760, Note_on_c, 1, 70, 127
1, 83856, Note_off_c, 1, 74, 0
1, 83856, Note_off_c, 1, 70, 0
1, 83880, Note_on_c, 1, 75, 127
1, 83880, Note_on_c, 1, 72, 127
1, 83976, Note_off_c, 1, 75, 0
1, 83976, Note_off_c, 1, 72, 0
1, 84000, Note_on_c, 1, 77, 127
1, 84000, Note_on_c, 1, 70, 127
1, 84096, Note_off_c, 1, 77, 0
1, 84096, Note_off_c, 1, 70, 0
1, 84120, Note_on_c, 1, 74, 127
1, 84120, Note_on_c, 1, 68, 127
1, 84216, Note_off_c, 1, 74, 0
1, 84216, Note_off_c, 1, 68, 0
1, 84240, Note_on_c, 1, 75, 127
1, 84240, Note_on_c, 1, 67, 127
1, 84336, Note_off_c, 1, 67, 0
1, 84360, Note_on_c, 1, 68, 127
1, 84432, Note_off_c, 1, 75, 0
1, 84456, Note_off_c, 1, 68, 0
1, 84480, Note_on_c, 1, 82, 127
1, 84480, Note_on_c, 1, 67, 127
1, 84576, Note_off_c, 1, 67, 0
1, 84600, Note_on_c, 1, 65, 127
1, 84672, Note_off_c, 1, 82, 0
1, 84696, Note_off_c, 1, 65, 0
1, 84720, Note_on_c, 1, 73, 127
1, 84720, Note_on_c, 1, 67, 127
1, 84816, Note_off_c, 1, 67, 0
1, 84840, Note_on_c, 1, 63, 127
1, 84936, Note_off_c, 1, 63, 0
1, 84960, Note_on_c, 1, 68, 127
1, 85056, Note_off_c, 1, 68, 0
1, 85080, Note_on_c, 1, 70, 127
1, 85152, Note_off_c, 1, 73, 0
1, 85176, Note_off_c, 1, 70, 0
1, 85200, Note_on_c, 1, 72, 127
1, 85200, Note_on_c, 1, 68, 127
1, 85296, Note_off_c, 1, 72, 0
1, 85296, Note_off_c, 1, 68, 0
1, 85320, Note_on_c, 1, 71, 127
1, 85320, Note_on_c, 1, 67, 127
1, 85416, Note_off_c, 1, 71, 0
1, 85416, Note_off_c, 1, 67, 0
1, 85440, Note_on_c, 1, 72, 127
1, 85440, Note_on_c, 1, 68, 127
1, 85536, Note_off_c, 1, 72, 0
1, 85536, Note_off_c, 1, 68, 0
1, 85560, Note_on_c, 1, 75, 127
1, 85560, Note_on_c, 1, 67, 127
1, 85656, Note_off_c, 1, 75, 0
1, 85656, Note_off_c, 1, 67, 0
1, 85680, Note_on_c, 1, 74, 127
1, 85680, Note_on_c, 1, 65, 127
1, 85776, Note_off_c, 1, 65, 0
1, 85800, Note_on_c, 1, 67, 127
1, 85872, Note_off_c, 1, 74, 0
1, 85896, Note_off_c, 1, 67, 0
1, 85920, Note_on_c, 1, 80, 127
1, 85920, Note_on_c, 1, 65, 127
1, 86016, Note_off_c, 1, 65, 0
1, 86040, Note_on_c, 1, 63, 127
1, 86112, Note_off_c, 1, 80, 0
1, 86136, Note_off_c, 1, 63, 0
1, 86160, Note_on_c, 1, 72, 127
1, 86160, Note_on_c, 1, 65, 127
1, 86256, Note_off_c, 1, 65, 0
1, 86280, Note_on_c, 1, 62, 127
1, 86376, Note_off_c, 1, 62, 0
1, 86400, Note_on_c, 1, 67, 127
1, 86496, Note_off_c, 1, 67, 0
1, 86520, Note_on_c, 1, 68, 127
1, 86592, Note_off_c, 1, 72, 0
1, 86616, Note_off_c, 1, 68, 0
1, 86640, Note_on_c, 1, 70, 127
1, 86640, Note_on_c, 1, 67, 127
1, 86640, Note_on_c, 1, 63, 127
1, 86736, Note_off_c, 1, 70, 0
1, 86736, Note_off_c, 1, 63, 0
1, 86760, Note_on_c, 1, 74, 127
1, 86760, Note_on_c, 1, 65, 127
1, 86856, Note_off_c, 1, 74, 0
1, 86856, Note_off_c, 1, 65, 0
1, 86880, Note_on_c, 1, 72, 127
1, 86976, Note_off_c, 1, 72, 0
1, 87000, Note_on_c, 1, 62, 127
1, 87024, Note_off_c, 1, 67, 0
1, 87096, Note_off_c, 1, 62, 0
1, 87120, Note_on_c, 1, 75, 127
1, 87120, Note_on_c, 1, 67, 127
1, 87120, Note_on_c, 1, 60, 127
1, 87216, Note_off_c, 1, 60, 0
1, 87240, Note_on_c, 1, 62, 127
1, 87312, Note_off_c, 1, 67, 0
1, 87336, Note_off_c, 1, 62, 0
1, 87360, Note_on_c, 1, 68, 127
1, 87480, Note_on_c, 1, 59, 127
1, 87552, Note_off_c, 1, 68, 0
1, 87576, Note_off_c, 1, 59, 0
1, 87720, Note_on_c, 1, 57, 127
1, 87816, Note_off_c, 1, 57, 0
1, 87840, Note_on_c, 1, 65, 127
1, 87960, Note_on_c, 1, 63, 127
1, 88032, Note_off_c, 1, 75, 0
1, 88056, Note_off_c, 1, 63, 0
1, 88080, Note_on_c, 1, 77, 127
1, 88272, Note_off_c, 1, 77, 0
1, 88416, Note_off_c, 1, 65, 0
1, 88560, Note_on_c, 1, 74, 127
1, 88560, Note_on_c, 1, 65, 127
1, 88560, Note_on_c, 1, 59, 127
1, 88656, Note_off_c, 1, 59, 0
1, 88680, Note_on_c, 1, 60, 127
1, 88752, Note_off_c, 1, 65, 0
1, 88776, Note_off_c, 1, 60, 0
1, 88800, Note_on_c, 1, 67, 127
1, 88920, Note_on_c, 1, 57, 127
1, 88992, Note_off_c, 1, 67, 0
1, 89016, Note_off_c, 1, 57, 0
1, 89160, Note_on_c, 1, 55, 127
1, 89256, Note_off_c, 1, 55, 0
1, 89280, Note_on_c, 1, 63, 127
1, 89376, Note_off_c, 1, 74, 0
1, 89472, Note_off_c, 1, 63, 0
1, 89520, Note_on_c, 1, 72, 127
1, 89520, Note_on_c, 1, 65, 127
1, 89520, Note_on_c, 1, 62, 127
1, 89520, Note_on_c, 1, 56, 127
1, 89616, Note_off_c, 1, 56, 0
1, 89640, Note_on_c, 1, 58, 127
1, 89712, Note_off_c, 1, 72, 0
1, 89712, Note_off_c, 1, 65, 0
1, 89712, Note_off_c, 1, 62, 0
1, 89736, Note_off_c, 1, 58, 0
1, 89760, Note_on_c, 1, 71, 127
1, 89760, Note_on_c, 1, 67, 127
1, 89760, Note_on_c, 1, 63, 127
1, 89760, Note_on_c, 1, 56, 127
1, 89856, Note_off_c, 1, 56, 0
1, 89880, Note_on_c, 1, 55, 127
1, 89952, Note_off_c, 1, 71, 0
1, 89952, Note_off_c, 1, 67, 0
1, 89952, Note_off_c, 1, 63, 0
1, 89976, Note_off_c, 1, 55, 0
1, 90000, Note_on_c, 1, 72, 127
1, 90000, Note_on_c, 1, 68, 127
1, 90000, Note_on_c, 1, 56, 127
1, 90000, Note_on_c, 1, 53, 127
1, 90096, Note_off_c, 1, 53, 0
1, 90120, Note_on_c, 1, 55, 127
1, 90192, Note_off_c, 1, 72, 0
1, 90192, Note_off_c, 1, 56, 0
1, 90216, Note_off_c, 1, 55, 0
1, 90240, Note_on_c, 1, 74, 127
1, 90240, Note_on_c, 1, 65, 127
1, 90360, Note_on_c, 1, 51, 127
1, 90432, Note_off_c, 1, 74, 0
1, 90456, Note_off_c, 1, 51, 0
1, 90576, Note_off_c, 1, 68, 0
1, 90600, Note_on_c, 1, 50, 127
1, 90696, Note_off_c, 1, 50, 0
1, 90720, Note_on_c, 1, 70, 127
1, 90720, Note_on_c, 1, 67, 127
1, 90912, Note_off_c, 1, 65, 0
1, 90960, Note_on_c, 1, 63, 127
1, 91152, Note_off_c, 1, 63, 0
1, 91200, Note_on_c, 1, 62, 127
1, 91392, Note_off_c, 1, 62, 0
1, 91440, Note_on_c, 1, 60, 127
1, 91440, Note_on_c, 1, 52, 127
1, 91536, Note_off_c, 1, 52, 0
1, 91632, Note_off_c, 1, 70, 0
1, 92040, Note_on_c, 1, 48, 127
1, 92136, Note_off_c, 1, 48, 0
1, 92256, Note_off_c, 1, 67, 0
1, 92520, Note_on_c, 1, 64, 127
1, 92610, Note_off_c, 1, 60, 0
1, 92616, Note_off_c, 1, 64, 0
1, 92640, Note_on_c, 1, 61, 127
1, 92832, Note_off_c, 1, 61, 0
1, 93600, Note_on_c, 1, 75, 127
1, 93600, Note_on_c, 1, 67, 127
1, 93600, Note_on_c, 1, 58, 127
1, 93600, Note_on_c, 1, 55, 127
1, 93696, Note_off_c, 1, 67, 0
1, 93696, Note_off_c, 1, 58, 0
1, 93720, Note_on_c, 1, 65, 127
1, 93720, Note_on_c, 1, 57, 127
1, 93816, Note_off_c, 1, 65, 0
1, 93816, Note_off_c, 1, 57, 0
1, 93960, Note_on_c, 1, 69, 127
1, 93960, Note_on_c, 1, 60, 127
1, 94056, Note_off_c, 1, 69, 0
1, 94056, Note_off_c, 1, 60, 0
1, 94176, Note_off_c, 1, 75, 0
1, 94320, Note_on_c, 1, 74, 127
1, 94320, Note_on_c, 1, 70, 127
1, 94320, Note_on_c, 1, 62, 127
1, 94368, Note_off_c, 1, 55, 0
1, 94416, Note_off_c, 1, 62, 0
1, 94512, Note_off_c, 1, 74, 0
1, 94560, Note_on_c, 1, 79, 127
1, 94680, Note_on_c, 1, 63, 127
1, 94704, Note_off_c, 1, 70, 0
1, 94776, Note_off_c, 1, 63, 0
1, 94944, Note_off_c, 1, 79, 0
1, 95040, Note_on_c, 1, 77, 127
1, 95760, Note_on_c, 1, 72, 127
1, 95856, Note_off_c, 1, 72, 0
1, 96576, Note_off_c, 1, 77, 0
1, 97080, Note_on_c, 1, 79, 127
1, 97080, Note_on_c, 1, 63, 127
1, 97176, Note_off_c, 1, 79, 0
1, 97176, Note_off_c, 1, 63, 0
1, 97200, Note_on_c, 1, 80, 127
1, 97200, Note_on_c, 1, 65, 127
1, 97296, Note_off_c, 1, 80, 0
1, 97320, Note_on_c, 1, 79, 127
1, 97392, Note_off_c, 1, 65, 0
1, 97416, Note_off_c, 1, 79, 0
1, 97440, Note_on_c, 1, 80, 127
1, 97440, Note_on_c, 1, 77, 127
1, 97440, Note_on_c, 1, 58, 127
1, 97440, Note_on_c, 1, 50, 127
1, 97536, Note_off_c, 1, 80, 0
1, 97560, Note_on_c, 1, 82, 127
1, 97632, Note_off_c, 1, 50, 0
1, 97656, Note_off_c, 1, 82, 0
1, 97680, Note_on_c, 1, 46, 127
1, 97824, Note_off_c, 1, 77, 0
1, 97872, Note_off_c, 1, 46, 0
1, 97920, Note_on_c, 1, 79, 127
1, 97920, Note_on_c, 1, 75, 127
1, 97920, Note_on_c, 1, 51, 127
1, 98016, Note_off_c, 1, 79, 0
1, 98112, Note_off_c, 1, 58, 0
1, 98112, Note_off_c, 1, 75, 0
1, 98112, Note_off_c, 1, 51, 0
1, 98160, Note_on_c, 1, 79, 127
1, 98160, Note_on_c, 1, 63, 127
1, 98256, Note_off_c, 1, 79, 0
1, 98256, Note_off_c, 1, 63, 0
1, 98280, Note_on_c, 1, 81, 127
1, 98280, Note_on_c, 1, 65, 127
1, 98376, Note_off_c, 1, 81, 0
1, 98376, Note_off_c, 1, 65, 0
1, 98400, Note_on_c, 1, 79, 127
1, 98400, Note_on_c, 1, 63, 127
1, 98496, Note_off_c, 1, 79, 0
1, 98496, Note_off_c, 1, 63, 0
1, 98520, Note_on_c, 1, 81, 127
1, 98520, Note_on_c, 1, 65, 127
1, 98616, Note_off_c, 1, 81, 0
1, 98616, Note_off_c, 1, 65, 0
1, 98640, Note_on_c, 1, 82, 127
1, 98640, Note_on_c, 1, 67, 127
1, 98736, Note_off_c, 1, 82, 0
1, 98760, Note_on_c, 1, 81, 127
1, 98832, Note_off_c, 1, 67, 0
1, 98856, Note_off_c, 1, 81, 0
1, 98880, Note_on_c, 1, 82, 127
1, 98880, Note_on_c, 1, 79, 127
1, 98880, Note_on_c, 1, 60, 127
1, 98880, Note_on_c, 1, 52, 127
1, 98976, Note_off_c, 1, 82, 0
1, 99000, Note_on_c, 1, 84, 127
1, 99072, Note_off_c, 1, 52, 0
1, 99096, Note_off_c, 1, 84, 0
1, 99120, Note_on_c, 1, 48, 127
1, 99312, Note_off_c, 1, 48, 0
1, 99360, Note_on_c, 1, 81, 127
1, 99360, Note_on_c, 1, 53, 127
1, 99456, Note_off_c, 1, 79, 0
1, 99552, Note_off_c, 1, 53, 0
1, 99600, Note_on_c, 1, 77, 127
1, 99600, Note_on_c, 1, 50, 127
1, 99696, Note_off_c, 1, 77, 0
1, 99720, Note_on_c, 1, 75, 127
1, 99744, Note_off_c, 1, 60, 0
1, 99744, Note_off_c, 1, 81, 0
1, 99792, Note_off_c, 1, 50, 0
1, 99816, Note_off_c, 1, 75, 0
1, 99840, Note_on_c, 1, 82, 127
1, 99840, Note_on_c, 1, 74, 127
1, 99840, Note_on_c, 1, 58, 127
1, 99840, Note_on_c, 1, 55, 127
1, 99936, Note_off_c, 1, 74, 0
1, 99960, Note_on_c, 1, 72, 127
1, 100032, Note_off_c, 1, 58, 0
1, 100032, Note_off_c, 1, 55, 0
1, 100056, Note_off_c, 1, 72, 0
1, 100080, Note_on_c, 1, 51, 127
1, 100200, Note_on_c, 1, 75, 127
1, 100224, Note_off_c, 1, 82, 0
1, 100272, Note_off_c, 1, 51, 0
1, 100296, Note_off_c, 1, 75, 0
1, 100320, Note_on_c, 1, 82, 127
1, 100320, Note_on_c, 1, 72, 127
1, 100320, Note_on_c, 1, 53, 127
1, 100368, Note_off_c, 1, 82, 0
1, 100380, Note_on_c, 1, 81, 127
1, 100428, Note_off_c, 1, 81, 0
1, 100440, Note_on_c, 1, 57, 127
1, 100536, Note_off_c, 1, 57, 0
1, 100560, Note_on_c, 1, 60, 127
1, 100656, Note_off_c, 1, 60, 0
1, 100680, Note_on_c, 1, 65, 127
1, 100704, Note_off_c, 1, 72, 0
1, 100770, Note_off_c, 1, 53, 0
1, 100800, Note_on_c, 1, 74, 127
1, 100800, Note_on_c, 1, 58, 127
1, 100992, Note_off_c, 1, 65, 0
1, 100992, Note_off_c, 1, 58, 0
1, 101040, Note_on_c, 1, 46, 127
1, 101136, Note_off_c, 1, 46, 0
1, 101160, Note_on_c, 1, 45, 127
1, 101256, Note_off_c, 1, 45, 0
1, 101376, Note_off_c, 1, 74, 0
1, 101400, Note_on_c, 1, 48, 127
1, 101496, Note_off_c, 1, 48, 0
1, 101520, Note_on_c, 1, 50, 127
1, 101616, Note_off_c, 1, 50, 0
1, 101640, Note_on_c, 1, 48, 127
1, 101736, Note_off_c, 1, 48, 0
1, 101760, Note_on_c, 1, 58, 127
1, 101760, Note_on_c, 1, 50, 127
1, 101856, Note_off_c, 1, 50, 0
1, 101880, Note_on_c, 1, 51, 127
1, 101976, Note_off_c, 1, 51, 0
1, 102000, Note_on_c, 1, 48, 127
1, 102096, Note_off_c, 1, 48, 0
1, 102144, Note_off_c, 1, 58, 0
1, 102240, Note_on_c, 1, 55, 127
1, 102240, Note_on_c, 1, 51, 127
1, 102336, Note_off_c, 1, 51, 0
1, 102360, Note_on_c, 1, 50, 127
1, 102432, Note_off_c, 1, 55, 0
1, 102456, Note_off_c, 1, 50, 0
1, 102480, Note_on_c, 1, 60, 127
1, 102480, Note_on_c, 1, 51, 127
1, 102576, Note_off_c, 1, 51, 0
1, 102600, Note_on_c, 1, 53, 127
1, 102696, Note_off_c, 1, 53, 0
1, 102864, Note_off_c, 1, 60, 0
1, 102960, Note_on_c, 1, 58, 127
1, 102960, Note_on_c, 1, 55, 127
1, 103056, Note_off_c, 1, 55, 0
1, 103080, Note_on_c, 1, 53, 127
1, 103152, Note_off_c, 1, 58, 0
1, 103176, Note_off_c, 1, 53, 0
1, 103200, Note_on_c, 1, 63, 127
1, 103200, Note_on_c, 1, 55, 127
1, 103296, Note_off_c, 1, 55, 0
1, 103320, Note_on_c, 1, 56, 127
1, 103416, Note_off_c, 1, 56, 0
1, 103680, Note_on_c, 1, 58, 127
1, 103776, Note_off_c, 1, 58, 0
1, 103872, Note_off_c, 1, 63, 0
1, 103920, Note_on_c, 1, 63, 127
1, 103920, Note_on_c, 1, 58, 127
1, 103968, Note_off_c, 1, 63, 0
1, 103980, Note_on_c, 1, 62, 127
1, 104016, Note_off_c, 1, 58, 0
1, 104028, Note_off_c, 1, 62, 0
1, 104040, Note_on_c, 1, 63, 127
1, 104040, Note_on_c, 1, 60, 127
1, 104088, Note_off_c, 1, 63, 0
1, 104100, Note_on_c, 1, 62, 127
1, 104136, Note_off_c, 1, 60, 0
1, 104148, Note_off_c, 1, 62, 0
1, 104160, Note_on_c, 1, 63, 127
1, 104160, Note_on_c, 1, 58, 127
1, 104208, Note_off_c, 1, 63, 0
1, 104220, Note_on_c, 1, 62, 127
1, 104256, Note_off_c, 1, 58, 0
1, 104268, Note_off_c, 1, 62, 0
1, 104280, Note_on_c, 1, 63, 127
1, 104280, Note_on_c, 1, 56, 127
1, 104328, Note_off_c, 1, 63, 0
1, 104340, Note_on_c, 1, 62, 127
1, 104376, Note_off_c, 1, 56, 0
1, 104388, Note_off_c, 1, 62, 0
1, 104400, Note_on_c, 1, 63, 127
1, 104400, Note_on_c, 1, 55, 127
1, 104496, Note_off_c, 1, 55, 0
1, 104520, Note_on_c, 1, 56, 127
1, 104592, Note_off_c, 1, 63, 0
1, 104616, Note_off_c, 1, 56, 0
1, 104640, Note_on_c, 1, 58, 127
1, 104640, Note_on_c, 1, 51, 127
1, 104736, Note_off_c, 1, 51, 0
1, 104760, Note_on_c, 1, 50, 127
1, 104832, Note_off_c, 1, 58, 0
1, 104856, Note_off_c, 1, 50, 0
1, 104880, Note_on_c, 1, 55, 127
1, 104880, Note_on_c, 1, 51, 127
1, 104976, Note_off_c, 1, 51, 0
1, 105000, Note_on_c, 1, 53, 127
1, 105072, Note_off_c, 1, 55, 0
1, 105096, Note_off_c, 1, 53, 0
1, 105120, Note_on_c, 1, 55, 127
1, 105120, Note_on_c, 1, 51, 127
1, 105216, Note_off_c, 1, 55, 0
1, 105240, Note_on_c, 1, 53, 127
1, 105312, Note_off_c, 1, 51, 0
1, 105336, Note_off_c, 1, 53, 0
1, 105360, Note_on_c, 1, 63, 127
1, 105360, Note_on_c, 1, 55, 127
1, 105456, Note_off_c, 1, 55, 0
1, 105480, Note_on_c, 1, 57, 127
1, 105576, Note_off_c, 1, 57, 0
1, 105600, Note_on_c, 1, 48, 127
1, 105744, Note_off_c, 1, 63, 0
1, 105792, Note_off_c, 1, 48, 0
1, 105840, Note_on_c, 1, 62, 127
1, 105840, Note_on_c, 1, 58, 127
1, 105840, Note_on_c, 1, 55, 127
1, 105936, Note_off_c, 1, 58, 0
1, 105960, Note_on_c, 1, 57, 127
1, 106032, Note_off_c, 1, 62, 0
1, 106032, Note_off_c, 1, 55, 0
1, 106056, Note_off_c, 1, 57, 0
1, 106080, Note_on_c, 1, 67, 127
1, 106080, Note_on_c, 1, 58, 127
1, 106176, Note_off_c, 1, 58, 0
1, 106200, Note_on_c, 1, 60, 127
1, 106296, Note_off_c, 1, 60, 0
1, 106320, Note_on_c, 1, 51, 127
1, 106464, Note_off_c, 1, 67, 0
1, 106512, Note_off_c, 1, 51, 0
1, 106560, Note_on_c, 1, 65, 127
1, 106560, Note_on_c, 1, 62, 127
1, 106560, Note_on_c, 1, 58, 127
1, 106656, Note_off_c, 1, 62, 0
1, 106680, Note_on_c, 1, 60, 127
1, 106752, Note_off_c, 1, 65, 0
1, 106752, Note_off_c, 1, 58, 0
1, 106776, Note_off_c, 1, 60, 0
1, 106800, Note_on_c, 1, 70, 127
1, 106800, Note_on_c, 1, 62, 127
1, 106896, Note_off_c, 1, 62, 0
1, 106920, Note_on_c, 1, 63, 127
1, 107016, Note_off_c, 1, 63, 0
1, 107040, Note_on_c, 1, 55, 127
1, 107232, Note_off_c, 1, 55, 0
1, 107280, Note_on_c, 1, 65, 127
1, 107280, Note_on_c, 1, 50, 127
1, 107376, Note_off_c, 1, 65, 0
1, 107472, Note_off_c, 1, 70, 0
1, 107472, Note_off_c, 1, 50, 0
1, 107520, Note_on_c, 1, 69, 127
1, 107520, Note_on_c, 1, 65, 127
1, 107520, Note_on_c, 1, 51, 127
1, 107616, Note_off_c, 1, 65, 0
1, 107640, Note_on_c, 1, 67, 127
1, 107712, Note_off_c, 1, 51, 0
1, 107736, Note_off_c, 1, 67, 0
1, 107760, Note_on_c, 1, 53, 127
1, 107880, Note_on_c, 1, 63, 127
1, 107904, Note_off_c, 1, 69, 0
1, 107952, Note_off_c, 1, 53, 0
1, 107976, Note_off_c, 1, 63, 0
1, 108000, Note_on_c, 1, 70, 127
1, 108000, Note_on_c, 1, 62, 127
1, 108000, Note_on_c, 1, 46, 127
1, 108096, Note_off_c, 1, 62, 0
1, 108120, Note_on_c, 1, 60, 127
1, 108192, Note_off_c, 1, 46, 0
1, 108216, Note_off_c, 1, 60, 0
1, 108240, Note_on_c, 1, 58, 127
1, 108336, Note_off_c, 1, 58, 0
1, 108360, Note_on_c, 1, 63, 127
1, 108384, Note_off_c, 1, 70, 0
1, 108456, Note_off_c, 1, 63, 0
1, 108480, Note_on_c, 1, 65, 127
1, 108480, Note_on_c, 1, 58, 127
1, 108576, Note_off_c, 1, 58, 0
1, 108600, Note_on_c, 1, 56, 127
1, 108696, Note_off_c, 1, 56, 0
1, 108720, Note_on_c, 1, 70, 127
1, 108720, Note_on_c, 1, 55, 127
1, 108816, Note_off_c, 1, 55, 0
1, 108864, Note_off_c, 1, 65, 0
1, 108960, Note_on_c, 1, 63, 127
1, 109080, Note_on_c, 1, 53, 127
1, 109104, Note_off_c, 1, 70, 0
1, 109152, Note_off_c, 1, 63, 0
1, 109176, Note_off_c, 1, 53, 0
1, 109200, Note_on_c, 1, 68, 127
1, 109200, Note_on_c, 1, 62, 127
1, 109200, Note_on_c, 1, 55, 127
1, 109296, Note_off_c, 1, 55, 0
1, 109320, Note_on_c, 1, 53, 127
1, 109392, Note_off_c, 1, 68, 0
1, 109392, Note_off_c, 1, 62, 0
1, 109416, Note_off_c, 1, 53, 0
1, 109440, Note_on_c, 1, 67, 127
1, 109440, Note_on_c, 1, 63, 127
1, 109440, Note_on_c, 1, 51, 127
1, 109536, Note_off_c, 1, 63, 0
1, 109536, Note_off_c, 1, 51, 0
1, 109560, Note_on_c, 1, 62, 127
1, 109560, Note_on_c, 1, 55, 127
1, 109656, Note_off_c, 1, 62, 0
1, 109656, Note_off_c, 1, 55, 0
1, 109680, Note_on_c, 1, 60, 127
1, 109776, Note_off_c, 1, 60, 0
1, 109800, Note_on_c, 1, 65, 127
1, 109800, Note_on_c, 1, 61, 127
1, 109824, Note_off_c, 1, 67, 0
1, 109896, Note_off_c, 1, 65, 0
1, 109896, Note_off_c, 1, 61, 0
1, 109920, Note_on_c, 1, 67, 127
1, 109920, Note_on_c, 1, 60, 127
1, 110016, Note_off_c, 1, 60, 0
1, 110040, Note_on_c, 1, 58, 127
1, 110136, Note_off_c, 1, 58, 0
1, 110160, Note_on_c, 1, 72, 127
1, 110160, Note_on_c, 1, 56, 127
1, 110256, Note_off_c, 1, 56, 0
1, 110304, Note_off_c, 1, 67, 0
1, 110400, Note_on_c, 1, 65, 127
1, 110520, Note_on_c, 1, 55, 127
1, 110544, Note_off_c, 1, 72, 0
1, 110592, Note_off_c, 1, 65, 0
1, 110616, Note_off_c, 1, 55, 0
1, 110640, Note_on_c, 1, 70, 127
1, 110640, Note_on_c, 1, 64, 127
1, 110640, Note_on_c, 1, 56, 127
1, 110736, Note_off_c, 1, 56, 0
1, 110760, Note_on_c, 1, 55, 127
1, 110832, Note_off_c, 1, 64, 0
1, 110856, Note_off_c, 1, 55, 0
1, 110880, Note_on_c, 1, 65, 127
1, 110880, Note_on_c, 1, 53, 127
1, 110976, Note_off_c, 1, 53, 0
1, 111072, Note_off_c, 1, 70, 0
1, 111072, Note_off_c, 1, 65, 0
1, 111120, Note_on_c, 1, 68, 127
1, 111120, Note_on_c, 1, 60, 127
1, 111120, Note_on_c, 1, 53, 127
1, 111216, Note_off_c, 1, 53, 0
1, 111240, Note_on_c, 1, 51, 127
1, 111312, Note_off_c, 1, 68, 0
1, 111336, Note_off_c, 1, 51, 0
1, 111360, Note_on_c, 1, 67, 127
1, 111552, Note_off_c, 1, 67, 0
1, 111600, Note_on_c, 1, 65, 127
1, 111600, Note_on_c, 1, 49, 127
1, 111696, Note_off_c, 1, 49, 0
1, 111792, Note_off_c, 1, 60, 0
1, 111840, Note_on_c, 1, 58, 127
1, 111960, Note_on_c, 1, 48, 127
1, 112032, Note_off_c, 1, 58, 0
1, 112056, Note_off_c, 1, 48, 0
1, 112080, Note_on_c, 1, 56, 127
1, 112272, Note_off_c, 1, 56, 0
1, 112320, Note_on_c, 1, 55, 127
1, 112320, Note_on_c, 1, 46, 127
1, 112416, Note_off_c, 1, 46, 0
1, 112440, Note_on_c, 1, 44, 127
1, 112512, Note_off_c, 1, 65, 0
1, 112536, Note_off_c, 1, 44, 0
1, 112560, Note_on_c, 1, 64, 127
1, 112752, Note_off_c, 1, 64, 0
1, 113232, Note_off_c, 1, 55, 0
1, 113280, Note_on_c, 1, 50, 127
1, 113664, Note_off_c, 1, 50, 0
1, 113760, Note_on_c, 1, 68, 127
1, 113760, Note_on_c, 1, 60, 127
1, 113760, Note_on_c, 1, 52, 127
1, 113760, Note_on_c, 1, 48, 127
1, 113856, Note_off_c, 1, 68, 0
1, 113880, Note_on_c, 1, 67, 127
1, 113952, Note_off_c, 1, 52, 0
1, 113952, Note_off_c, 1, 48, 0
1, 113976, Note_off_c, 1, 67, 0
1, 114000, Note_on_c, 1, 53, 127
1, 114120, Note_on_c, 1, 70, 127
1, 114144, Note_off_c, 1, 60, 0
1, 114216, Note_off_c, 1, 70, 0
1, 114240, Note_on_c, 1, 65, 127
1, 114240, Note_on_c, 1, 61, 127
1, 114432, Note_off_c, 1, 65, 0
1, 114432, Note_off_c, 1, 61, 0
1, 114480, Note_on_c, 1, 72, 127
1, 114480, Note_on_c, 1, 55, 127
1, 114576, Note_off_c, 1, 53, 0
1, 114576, Note_off_c, 1, 72, 0
1, 114840, Note_on_c, 1, 73, 127
1, 114864, Note_off_c, 1, 55, 0
1, 114936, Note_off_c, 1, 73, 0
1, 115920, Note_on_c, 1, 72, 127
1, 115920, Note_on_c, 1, 63, 127
1, 115920, Note_on_c, 1, 56, 127
1, 116016, Note_off_c, 1, 72, 0
1, 116040, Note_on_c, 1, 70, 127
1, 116112, Note_off_c, 1, 63, 0
1, 116112, Note_off_c, 1, 56, 0
1, 116136, Note_off_c, 1, 70, 0
1, 116160, Note_on_c, 1, 72, 127
1, 116160, Note_on_c, 1, 68, 127
1, 116256, Note_off_c, 1, 72, 0
1, 116280, Note_on_c, 1, 74, 127
1, 116376, Note_off_c, 1, 74, 0
1, 116400, Note_on_c, 1, 53, 127
1, 116544, Note_off_c, 1, 68, 0
1, 116592, Note_off_c, 1, 53, 0
1, 116640, Note_on_c, 1, 75, 127
1, 116640, Note_on_c, 1, 67, 127
1, 116640, Note_on_c, 1, 60, 127
1, 116736, Note_off_c, 1, 75, 0
1, 116760, Note_on_c, 1, 74, 127
1, 116832, Note_off_c, 1, 67, 0
1, 116832, Note_off_c, 1, 60, 0
1, 116856, Note_off_c, 1, 74, 0
1, 116880, Note_on_c, 1, 75, 127
1, 116880, Note_on_c, 1, 72, 127
1, 116976, Note_off_c, 1, 75, 0
1, 117000, Note_on_c, 1, 77, 127
1, 117096, Note_off_c, 1, 77, 0
1, 117120, Note_on_c, 1, 56, 127
1, 117312, Note_off_c, 1, 56, 0
1, 117360, Note_on_c, 1, 79, 127
1, 117360, Note_on_c, 1, 51, 127
1, 117456, Note_off_c, 1, 72, 0
1, 117456, Note_off_c, 1, 79, 0
1, 117552, Note_off_c, 1, 51, 0
1, 117600, Note_on_c, 1, 79, 127
1, 117600, Note_on_c, 1, 71, 127
1, 117600, Note_on_c, 1, 53, 127
1, 117696, Note_off_c, 1, 79, 0
1, 117720, Note_on_c, 1, 80, 127
1, 117792, Note_off_c, 1, 53, 0
1, 117816, Note_off_c, 1, 80, 0
1, 117840, Note_on_c, 1, 55, 127
1, 117960, Note_on_c, 1, 77, 127
1, 117984, Note_off_c, 1, 71, 0
1, 118032, Note_off_c, 1, 55, 0
1, 118056, Note_off_c, 1, 77, 0
1, 118080, Note_on_c, 1, 75, 127
1, 118080, Note_on_c, 1, 72, 127
1, 118080, Note_on_c, 1, 48, 127
1, 118176, Note_off_c, 1, 75, 0
1, 118200, Note_on_c, 1, 74, 127
1, 118272, Note_off_c, 1, 72, 0
1, 118272, Note_off_c, 1, 48, 0
1, 118296, Note_off_c, 1, 74, 0
1, 118320, Note_on_c, 1, 75, 127
1, 118320, Note_on_c, 1, 72, 127
1, 118416, Note_off_c, 1, 75, 0
1, 118416, Note_off_c, 1, 72, 0
1, 118440, Note_on_c, 1, 77, 127
1, 118440, Note_on_c, 1, 74, 127
1, 118536, Note_off_c, 1, 77, 0
1, 118536, Note_off_c, 1, 74, 0
1, 118560, Note_on_c, 1, 79, 127
1, 118560, Note_on_c, 1, 72, 127
1, 118656, Note_off_c, 1, 72, 0
1, 118680, Note_on_c, 1, 70, 127
1, 118776, Note_off_c, 1, 70, 0
1, 118800, Note_on_c, 1, 68, 127
1, 118896, Note_off_c, 1, 68, 0
1, 118944, Note_off_c, 1, 79, 0
1, 119040, Note_on_c, 1, 77, 127
1, 119040, Note_on_c, 1, 68, 127
1, 119136, Note_off_c, 1, 68, 0
1, 119160, Note_on_c, 1, 67, 127
1, 119232, Note_off_c, 1, 77, 0
1, 119256, Note_off_c, 1, 67, 0
1, 119280, Note_on_c, 1, 75, 127
1, 119280, Note_on_c, 1, 68, 127
1, 119376, Note_off_c, 1, 68, 0
1, 119400, Note_on_c, 1, 67, 127
1, 119496, Note_off_c, 1, 67, 0
1, 119520, Note_on_c, 1, 65, 127
1, 119616, Note_off_c, 1, 75, 0
1, 119640, Note_on_c, 1, 72, 127
1, 119712, Note_off_c, 1, 65, 0
1, 119736, Note_off_c, 1, 72, 0
1, 119760, Note_on_c, 1, 74, 127
1, 119760, Note_on_c, 1, 70, 127
1, 119856, Note_off_c, 1, 74, 0
1, 119856, Note_off_c, 1, 70, 0
1, 119880, Note_on_c, 1, 75, 127
1, 119880, Note_on_c, 1, 72, 127
1, 119976, Note_off_c, 1, 75, 0
1, 119976, Note_off_c, 1, 72, 0
1, 120000, Note_on_c, 1, 77, 127
1, 120000, Note_on_c, 1, 70, 127
1, 120096, Note_off_c, 1, 70, 0
1, 120120, Note_on_c, 1, 68, 127
1, 120216, Note_off_c, 1, 68, 0
1, 120240, Note_on_c, 1, 67, 127
1, 120336, Note_off_c, 1, 67, 0
1, 120384, Note_off_c, 1, 77, 0
1, 120480, Note_on_c, 1, 75, 127
1, 120480, Note_on_c, 1, 67, 127
1, 120576, Note_off_c, 1, 67, 0
1, 120600, Note_on_c, 1, 65, 127
1, 120672, Note_off_c, 1, 75, 0
1, 120696, Note_off_c, 1, 65, 0
1, 120720, Note_on_c, 1, 80, 127
1, 120720, Note_on_c, 1, 67, 127
1, 120816, Note_off_c, 1, 67, 0
1, 120840, Note_on_c, 1, 65, 127
1, 120936, Note_off_c, 1, 65, 0
1, 120960, Note_on_c, 1, 63, 127
1, 121056, Note_off_c, 1, 63, 0
1, 121152, Note_off_c, 1, 80, 0
1, 121200, Note_on_c, 1, 79, 127
1, 121200, Note_on_c, 1, 63, 127
1, 121200, Note_on_c, 1, 60, 127
1, 121296, Note_off_c, 1, 63, 0
1, 121320, Note_on_c, 1, 62, 127
1, 121392, Note_off_c, 1, 79, 0
1, 121416, Note_off_c, 1, 62, 0
1, 121440, Note_on_c, 1, 78, 127
1, 121632, Note_off_c, 1, 78, 0
1, 121656, Note_off_c, 1, 60, 0
1, 121680, Note_on_c, 1, 79, 127
1, 121680, Note_on_c, 1, 62, 127
1, 121680, Note_on_c, 1, 59, 127
1, 121776, Note_off_c, 1, 79, 0
1, 121800, Note_on_c, 1, 77, 127
1, 121872, Note_off_c, 1, 62, 0
1, 121872, Note_off_c, 1, 59, 0
1, 121896, Note_off_c, 1, 77, 0
1, 121920, Note_on_c, 1, 79, 127
1, 121920, Note_on_c, 1, 63, 127
1, 122016, Note_off_c, 1, 79, 0
1, 122040, Note_on_c, 1, 80, 127
1, 122136, Note_off_c, 1, 80, 0
1, 122160, Note_on_c, 1, 67, 127
1, 122280, Note_on_c, 1, 77, 127
1, 122304, Note_off_c, 1, 63, 0
1, 122352, Note_off_c, 1, 67, 0
1, 122376, Note_off_c, 1, 77, 0
1, 122400, Note_on_c, 1, 75, 127
1, 122400, Note_on_c, 1, 72, 127
1, 122400, Note_on_c, 1, 60, 127
1, 122496, Note_off_c, 1, 75, 0
1, 122520, Note_on_c, 1, 77, 127
1, 122592, Note_off_c, 1, 60, 0
1, 122616, Note_off_c, 1, 77, 0
1, 122640, Note_on_c, 1, 67, 127
1, 122760, Note_on_c, 1, 74, 127
1, 122784, Note_off_c, 1, 72, 0
1, 122856, Note_off_c, 1, 74, 0
1, 122880, Note_on_c, 1, 70, 127
1, 123072, Note_off_c, 1, 70, 0
1, 123120, Note_on_c, 1, 69, 127
1, 123312, Note_off_c, 1, 67, 0
1, 123360, Note_on_c, 1, 66, 127
1, 123744, Note_off_c, 1, 66, 0
1, 123960, Note_on_c, 1, 65, 127
1, 124032, Note_off_c, 1, 69, 0
1, 124056, Note_off_c, 1, 65, 0
1, 124080, Note_on_c, 1, 63, 127
1, 124176, Note_off_c, 1, 63, 0
1, 124440, Note_on_c, 1, 62, 127
1, 124536, Note_off_c, 1, 62, 0
1, 124920, Note_on_c, 1, 58, 127
1, 125016, Note_off_c, 1, 58, 0
1, 125040, Note_on_c, 1, 76, 127
1, 125232, Note_off_c, 1, 76, 0
1, 125280, Note_on_c, 1, 57, 127
1, 125376, Note_off_c, 1, 57, 0
1, 126480, Note_on_c, 1, 78, 127
1, 126672, Note_off_c, 1, 78, 0
1, 126720, Note_on_c, 1, 79, 127
1, 126720, Note_on_c, 1, 74, 127
1, 126720, Note_on_c, 1, 59, 127
1, 126816, Note_off_c, 1, 74, 0
1, 126816, Note_off_c, 1, 59, 0
1, 126840, Note_on_c, 1, 72, 127
1, 126840, Note_on_c, 1, 57, 127
1, 126936, Note_off_c, 1, 72, 0
1, 126936, Note_off_c, 1, 57, 0
1, 126960, Note_on_c, 1, 55, 127
1, 127080, Note_on_c, 1, 75, 127
1, 127080, Note_on_c, 1, 60, 127
1, 127176, Note_off_c, 1, 75, 0
1, 127176, Note_off_c, 1, 60, 0
1, 127344, Note_off_c, 1, 55, 0
1, 127440, Note_on_c, 1, 51, 127
1, 127632, Note_off_c, 1, 79, 0
1, 127632, Note_off_c, 1, 51, 0
1, 127680, Note_on_c, 1, 84, 127
1, 127680, Note_on_c, 1, 75, 127
1, 127680, Note_on_c, 1, 60, 127
1, 127680, Note_on_c, 1, 56, 127
1, 127776, Note_off_c, 1, 75, 0
1, 127776, Note_off_c, 1, 60, 0
1, 127800, Note_on_c, 1, 77, 127
1, 127800, Note_on_c, 1, 62, 127
1, 127896, Note_off_c, 1, 77, 0
1, 127896, Note_off_c, 1, 62, 0
1, 128064, Note_off_c, 1, 84, 0
1, 128064, Note_off_c, 1, 56, 0
1, 128160, Note_on_c, 1, 82, 127
1, 128160, Note_on_c, 1, 79, 127
1, 128160, Note_on_c, 1, 63, 127
1, 128160, Note_on_c, 1, 55, 127
1, 128256, Note_off_c, 1, 63, 0
1, 128280, Note_on_c, 1, 62, 127
1, 128352, Note_off_c, 1, 82, 0
1, 128352, Note_off_c, 1, 55, 0
1, 128376, Note_off_c, 1, 62, 0
1, 128400, Note_on_c, 1, 80, 127
1, 128400, Note_on_c, 1, 60, 127
1, 128448, Note_off_c, 1, 79, 0
1, 128520, Note_on_c, 1, 72, 127
1, 128520, Note_on_c, 1, 65, 127
1, 128616, Note_off_c, 1, 72, 0
1, 128616, Note_off_c, 1, 65, 0
1, 128640, Note_on_c, 1, 77, 127
1, 128736, Note_off_c, 1, 77, 0
1, 128760, Note_on_c, 1, 75, 127
1, 128856, Note_off_c, 1, 75, 0
1, 128880, Note_on_c, 1, 74, 127
1, 128880, Note_on_c, 1, 67, 127
1, 128976, Note_off_c, 1, 60, 0
1, 128976, Note_off_c, 1, 67, 0
1, 129072, Note_off_c, 1, 80, 0
1, 129120, Note_on_c, 1, 59, 127
1, 129168, Note_off_c, 1, 74, 0
1, 129240, Note_on_c, 1, 68, 127
1, 129336, Note_off_c, 1, 68, 0
1, 129504, Note_off_c, 1, 59, 0
1, 130080, Note_on_c, 1, 58, 127
1, 130272, Note_off_c, 1, 58, 0
1, 130320, Note_on_c, 1, 56, 127
1, 130440, Note_on_c, 1, 61, 127
1, 130536, Note_off_c, 1, 61, 0
1, 130704, Note_off_c, 1, 56, 0
1, 131040, Note_on_c, 1, 53, 127
1, 131280, Note_on_c, 1, 71, 127
1, 131424, Note_off_c, 1, 53, 0
1, 131472, Note_off_c, 1, 71, 0
1, 131520, Note_on_c, 1, 72, 127
1, 131520, Note_on_c, 1, 56, 127
1, 131520, Note_on_c, 1, 51, 127
1, 131616, Note_off_c, 1, 56, 0
1, 131640, Note_on_c, 1, 55, 127
1, 131712, Note_off_c, 1, 51, 0
1, 131736, Note_off_c, 1, 55, 0
1, 131760, Note_on_c, 1, 77, 127
1, 131760, Note_on_c, 1, 53, 127
1, 131760, Note_on_c, 1, 50, 127
1, 131856, Note_off_c, 1, 53, 0
1, 131904, Note_off_c, 1, 72, 0
1, 132000, Note_on_c, 1, 71, 127
1, 132144, Note_off_c, 1, 50, 0
1, 132192, Note_off_c, 1, 71, 0
1, 132240, Note_on_c, 1, 74, 127
1, 132240, Note_on_c, 1, 48, 127
1, 132432, Note_off_c, 1, 74, 0
1, 132432, Note_off_c, 1, 48, 0
1, 132480, Note_on_c, 1, 67, 127
1, 132480, Note_on_c, 1, 47, 127
1, 132576, Note_off_c, 1, 77, 0
1, 132672, Note_off_c, 1, 67, 0
1, 132672, Note_off_c, 1, 47, 0
1, 132720, Note_on_c, 1, 75, 127
1, 132720, Note_on_c, 1, 71, 127
1, 132720, Note_on_c, 1, 55, 127
1, 132720, Note_on_c, 1, 43, 127
1, 132816, Note_off_c, 1, 75, 0
1, 132840, Note_on_c, 1, 74, 127
1, 132912, Note_off_c, 1, 71, 0
1, 132912, Note_off_c, 1, 43, 0
1, 132936, Note_off_c, 1, 74, 0
1, 132960, Note_on_c, 1, 72, 127
1, 132960, Note_on_c, 1, 48, 127
1, 133104, Note_off_c, 1, 55, 0
1, 133152, Note_off_c, 1, 48, 0
1, 133200, Note_on_c, 1, 56, 127
1, 133200, Note_on_c, 1, 53, 127
1, 133320, Note_on_c, 1, 77, 127
1, 133344, Note_off_c, 1, 72, 0
1, 133392, Note_off_c, 1, 56, 0
1, 133392, Note_off_c, 1, 53, 0
1, 133416, Note_off_c, 1, 77, 0
1, 133440, Note_on_c, 1, 74, 127
1, 133440, Note_on_c, 1, 71, 127
1, 133440, Note_on_c, 1, 55, 127
1, 133560, Note_on_c, 1, 59, 127
1, 133656, Note_off_c, 1, 59, 0
1, 133680, Note_on_c, 1, 62, 127
1, 133728, Note_off_c, 1, 74, 0
1, 133776, Note_off_c, 1, 62, 0
1, 133800, Note_on_c, 1, 72, 127
1, 133800, Note_on_c, 1, 65, 127
1, 133824, Note_off_c, 1, 71, 0
1, 133824, Note_off_c, 1, 55, 0
1, 133896, Note_off_c, 1, 72, 0
1, 133896, Note_off_c, 1, 65, 0
1, 133920, Note_on_c, 1, 72, 127
1, 133920, Note_on_c, 1, 67, 127
1, 133920, Note_on_c, 1, 63, 127
1, 133920, Note_on_c, 1, 48, 127
1, 134029, Note_off_c, 1, 48, 0
1, 134040, Note_on_c, 1, 51, 127
1, 134160, Note_on_c, 1, 55, 127
1, 134165, Note_off_c, 1, 51, 0
1, 134208, Note_off_c, 1, 72, 0
1, 134208, Note_off_c, 1, 67, 0
1, 134208, Note_off_c, 1, 63, 0
1, 134280, Note_on_c, 1, 60, 127
1, 134281, Note_off_c, 1, 55, 0
1, 134400, Note_on_c, 1, 58, 127
1, 134412, Note_off_c, 1, 60, 0
1, 134523, Note_off_c, 1, 58, 0
1, 134640, Note_on_c, 1, 53, 127
1, 134757, Note_off_c, 1, 53, 0
1, 134760, Note_on_c, 1, 56, 127
1, 134815, Note_off_c, 1, 56, 0
1, 134820, Note_on_c, 1, 55, 127
1, 134880, Note_on_c, 1, 56, 127
1, 134881, Note_off_c, 1, 55, 0
1, 134940, Note_on_c, 1, 53, 127
1, 134947, Note_off_c, 1, 56, 0
1, 135000, Note_on_c, 1, 58, 127
1, 135007, Note_off_c, 1, 53, 0
1, 135122, Note_off_c, 1, 58, 0
1, 135360, Note_on_c, 1, 51, 127
1, 135480, Note_on_c, 1, 55, 127
1, 135488, Note_off_c, 1, 51, 0
1, 135540, Note_on_c, 1, 53, 127
1, 135550, Note_off_c, 1, 55, 0
1, 135620, Note_off_c, 1, 53, 0
1, 135720, Note_on_c, 1, 67, 127
1, 135720, Note_on_c, 1, 58, 127
1, 135840, Note_on_c, 1, 65, 127
1, 135846, Note_off_c, 1, 67, 0
1, 135962, Note_off_c, 1, 65, 0
1, 136080, Note_on_c, 1, 60, 127
1, 136200, Note_on_c, 1, 63, 127
1, 136204, Note_off_c, 1, 60, 0
1, 136257, Note_off_c, 1, 63, 0
1, 136260, Note_on_c, 1, 62, 127
1, 136325, Note_off_c, 1, 62, 0
1, 136440, Note_on_c, 1, 56, 127
1, 136461, Note_off_c, 1, 58, 0
1, 137174, Note_off_c, 1, 56, 0
1, 137340, Note_on_c, 1, 53, 127
1, 137400, Note_on_c, 1, 55, 127
1, 137415, Note_off_c, 1, 53, 0
1, 137460, Note_on_c, 1, 56, 127
1, 137466, Note_off_c, 1, 55, 0
1, 137520, Note_on_c, 1, 62, 127
1, 137520, Note_on_c, 1, 58, 127
1, 137524, Note_off_c, 1, 56, 0
1, 137580, Note_on_c, 1, 60, 127
1, 137585, Note_off_c, 1, 62, 0
1, 137633, Note_off_c, 1, 58, 0
1, 137641, Note_off_c, 1, 60, 0
1, 137700, Note_on_c, 1, 60, 127
1, 137746, Note_off_c, 1, 60, 0
1, 137760, Note_on_c, 1, 62, 127
1, 137806, Note_off_c, 1, 62, 0
1, 137820, Note_on_c, 1, 63, 127
1, 137863, Note_off_c, 1, 63, 0
1, 137880, Note_on_c, 1, 65, 127
1, 137880, Note_on_c, 1, 56, 127
1, 137940, Note_off_c, 1, 56, 0
1, 137940, Note_on_c, 1, 55, 127
1, 137954, Note_off_c, 1, 65, 0
1, 138000, Note_on_c, 1, 53, 127
1, 138008, Note_off_c, 1, 55, 0
1, 138064, Note_off_c, 1, 53, 0
1, 138180, Note_on_c, 1, 58, 127
1, 138240, Note_on_c, 1, 63, 127
1, 138240, Note_on_c, 1, 60, 127
1, 138245, Note_off_c, 1, 58, 0
1, 138290, Note_off_c, 1, 63, 0
1, 138360, Note_on_c, 1, 67, 127
1, 138426, Note_off_c, 1, 67, 0
1, 138494, Note_off_c, 1, 60, 0
1, 138540, Note_on_c, 1, 62, 127
1, 138575, Note_off_c, 1, 62, 0
1, 138600, Note_on_c, 1, 72, 127
1, 138720, Note_on_c, 1, 70, 127
1, 138720, Note_on_c, 1, 61, 127
1, 138737, Note_off_c, 1, 72, 0
1, 138834, Note_off_c, 1, 70, 0
1, 138857, Note_off_c, 1, 61, 0
1, 139080, Note_on_c, 1, 68, 127
1, 139146, Note_off_c, 1, 68, 0
1, 139920, Note_on_c, 1, 51, 127
1, 140045, Note_off_c, 1, 51, 0
1, 140400, Note_on_c, 1, 46, 127
1, 140520, Note_on_c, 1, 50, 127
1, 140526, Note_off_c, 1, 46, 0
1, 140573, Note_off_c, 1, 50, 0
1, 140580, Note_on_c, 1, 48, 127
1, 140641, Note_off_c, 1, 48, 0
1, 141120, Note_on_c, 1, 45, 127
1, 141250, Note_off_c, 1, 45, 0
1, 141480, Note_on_c, 1, 66, 127
1, 141480, Note_on_c, 1, 57, 127
1, 141705, Note_off_c, 1, 57, 0
1, 141768, Note_off_c, 1, 66, 0
1, 141840, Note_on_c, 1, 43, 127
1, 142065, Note_off_c, 1, 43, 0
1, 142200, Note_on_c, 1, 79, 127
1, 142200, Note_on_c, 1, 58, 127
1, 142320, Note_on_c, 1, 77, 127
1, 142335, Note_off_c, 1, 79, 0
1, 142449, Note_off_c, 1, 77, 0
1, 142560, Note_on_c, 1, 72, 127
1, 142656, Note_off_c, 1, 58, 0
1, 142680, Note_on_c, 1, 76, 127
1, 142680, Note_on_c, 1, 56, 127
1, 142683, Note_off_c, 1, 72, 0
1, 142740, Note_on_c, 1, 74, 127
1, 142744, Note_off_c, 1, 76, 0
1, 142776, Note_off_c, 1, 56, 0
1, 142800, Note_on_c, 1, 55, 127
1, 142810, Note_off_c, 1, 74, 0
1, 142896, Note_off_c, 1, 55, 0
1, 143040, Note_on_c, 1, 75, 127
1, 143173, Note_off_c, 1, 75, 0
1, 143280, Note_on_c, 1, 70, 127
1, 143411, Note_off_c, 1, 70, 0
1, 143520, Note_on_c, 1, 53, 127
1, 143616, Note_off_c, 1, 53, 0
1, 143640, Note_on_c, 1, 75, 127
1, 143640, Note_on_c, 1, 55, 127
1, 143688, Note_off_c, 1, 55, 0
1, 143700, Note_on_c, 1, 53, 127
1, 143748, Note_off_c, 1, 53, 0
1, 143760, Note_on_c, 1, 51, 127
1, 143808, Note_off_c, 1, 51, 0
1, 143940, Note_on_c, 1, 56, 127
1, 143988, Note_off_c, 1, 56, 0
1, 144000, Note_on_c, 1, 58, 127
1, 144048, Note_off_c, 1, 58, 0
1, 144180, Note_on_c, 1, 60, 127
1, 144228, Note_off_c, 1, 60, 0
1, 144240, Note_on_c, 1, 62, 127
1, 144288, Note_off_c, 1, 62, 0
1, 144300, Note_on_c, 1, 63, 127
1, 144348, Note_off_c, 1, 63, 0
1, 144355, Note_off_c, 1, 75, 0
1, 144360, Note_on_c, 1, 74, 127
1, 144360, Note_on_c, 1, 65, 127
1, 144408, Note_off_c, 1, 65, 0
1, 144420, Note_on_c, 1, 63, 127
1, 144468, Note_off_c, 1, 63, 0
1, 144540, Note_on_c, 1, 67, 127
1, 144588, Note_off_c, 1, 67, 0
1, 144600, Note_on_c, 1, 68, 127
1, 144648, Note_off_c, 1, 74, 0
1, 144648, Note_off_c, 1, 68, 0
1, 144660, Note_on_c, 1, 70, 127
1, 144708, Note_off_c, 1, 70, 0
1, 144720, Note_on_c, 1, 79, 127
1, 144720, Note_on_c, 1, 63, 127
1, 144780, Note_on_c, 1, 67, 127
1, 144828, Note_off_c, 1, 67, 0
1, 144840, Note_on_c, 1, 68, 127
1, 144888, Note_off_c, 1, 68, 0
1, 144900, Note_on_c, 1, 70, 127
1, 144948, Note_off_c, 1, 70, 0
1, 144960, Note_on_c, 1, 72, 127
1, 145008, Note_off_c, 1, 63, 0
1, 145008, Note_off_c, 1, 72, 0
1, 145020, Note_on_c, 1, 74, 127
1, 145068, Note_off_c, 1, 74, 0
1, 145080, Note_on_c, 1, 75, 127
1, 145140, Note_on_c, 1, 65, 127
1, 145210, Note_off_c, 1, 65, 0
1, 145260, Note_on_c, 1, 62, 127
1, 145320, Note_on_c, 1, 60, 127
1, 145321, Note_off_c, 1, 62, 0
1, 145377, Note_off_c, 1, 60, 0
1, 145380, Note_on_c, 1, 58, 127
1, 145428, Note_off_c, 1, 58, 0
1, 145440, Note_on_c, 1, 77, 127
1, 145440, Note_on_c, 1, 57, 127
1, 145451, Note_off_c, 1, 79, 0
1, 145488, Note_off_c, 1, 57, 0
1, 145500, Note_on_c, 1, 53, 127
1, 145548, Note_off_c, 1, 53, 0
1, 145560, Note_on_c, 1, 55, 127
1, 145608, Note_off_c, 1, 55, 0
1, 145800, Note_off_c, 1, 75, 0
1, 145800, Note_off_c, 1, 77, 0
1, 145800, Note_on_c, 1, 82, 127
1, 146515, Note_off_c, 1, 82, 0
1, 146520, Note_on_c, 1, 81, 127
1, 146908, Note_off_c, 1, 81, 0
1, 147060, Note_on_c, 1, 69, 127
1, 147111, Note_off_c, 1, 69, 0
1, 147360, Note_on_c, 1, 80, 127
1, 147463, Note_off_c, 1, 80, 0
1, 147960, Note_on_c, 1, 56, 127
1, 148687, Note_off_c, 1, 56, 0
1, 149040, Note_on_c, 1, 48, 127
1, 149160, Note_on_c, 1, 51, 127
1, 149164, Note_off_c, 1, 48, 0
1, 149219, Note_off_c, 1, 51, 0
1, 149220, Note_on_c, 1, 50, 127
1, 149286, Note_off_c, 1, 50, 0
1, 149760, Note_on_c, 1, 46, 127
1, 149883, Note_off_c, 1, 46, 0
1, 150840, Note_on_c, 1, 49, 127
1, 150960, Note_on_c, 1, 73, 127
1, 151034, Note_off_c, 1, 73, 0
1, 151560, Note_off_c, 1, 49, 0
1, 152760, Note_on_c, 1, 61, 127
1, 152811, Note_off_c, 1, 61, 0
1, 154740, Note_on_c, 1, 76, 127
1, 154788, Note_off_c, 1, 76, 0
1, 155220, Note_on_c, 1, 84, 127
1, 155280, Note_on_c, 1, 64, 127
1, 155295, Note_off_c, 1, 84, 0
1, 155413, Note_off_c, 1, 64, 0
1, 156120, Note_on_c, 1, 47, 127
1, 156252, Note_off_c, 1, 47, 0
1, 156600, Note_on_c, 1, 36, 127
1, 156960, Note_on_c, 1, 41, 127
1, 156961, Note_off_c, 1, 36, 0
1, 157248, Note_off_c, 1, 41, 0
1, 161280, Note_on_c, 1, 71, 127
1, 161342, Note_off_c, 1, 71, 0
1, 162900, Note_on_c, 1, 59, 127
1, 162960, Note_off_c, 1, 59, 0
1, 164520, Note_on_c, 1, 54, 127
1, 164808, Note_off_c, 1, 54, 0
1, 165240, Note_on_c, 1, 67, 127
1, 165240, Note_on_c, 1, 63, 127
1, 165300, Note_on_c, 1, 70, 127
1, 165353, Note_off_c, 1, 70, 0
1, 165360, Note_on_c, 1, 72, 127
1, 165398, Note_off_c, 1, 72, 0
1, 165420, Note_on_c, 1, 74, 127
1, 165429, Note_off_c, 1, 74, 0
1, 165480, Note_on_c, 1, 75, 127
1, 165528, Note_off_c, 1, 67, 0
1, 165529, Note_off_c, 1, 75, 0
1, 165540, Note_on_c, 1, 77, 127
1, 165568, Note_off_c, 1, 77, 0
1, 165600, Note_on_c, 1, 79, 127
1, 165657, Note_off_c, 1, 63, 0
1, 165660, Note_on_c, 1, 60, 127
1, 165717, Note_off_c, 1, 60, 0
1, 165720, Note_on_c, 1, 62, 127
1, 165777, Note_off_c, 1, 62, 0
1, 165840, Note_on_c, 1, 65, 127
1, 165897, Note_off_c, 1, 65, 0
1, 165960, Note_on_c, 1, 68, 127
1, 166008, Note_off_c, 1, 79, 0
1, 166020, Note_on_c, 1, 82, 127
1, 166080, Note_on_c, 1, 80, 127
1, 166084, Note_off_c, 1, 82, 0
1, 166139, Note_off_c, 1, 80, 0
1, 166680, Note_off_c, 1, 68, 0
1, 166800, Note_on_c, 1, 58, 127
1, 166926, Note_off_c, 1, 58, 0
1, 167040, Note_on_c, 1, 53, 127
1, 167160, Note_on_c, 1, 56, 127
1, 167171, Note_off_c, 1, 53, 0
1, 167218, Note_off_c, 1, 56, 0
1, 167220, Note_on_c, 1, 55, 127
1, 167287, Note_off_c, 1, 55, 0
1, 167760, Note_on_c, 1, 51, 127
1, 167897, Note_off_c, 1, 51, 0
1, 168120, Note_on_c, 1, 84, 127
1, 168480, Note_on_c, 1, 50, 127
1, 168615, Note_off_c, 1, 50, 0
1, 168872, Note_off_c, 1, 84, 0
1, 169200, Note_on_c, 1, 48, 127
1, 169330, Note_off_c, 1, 48, 0
1, 169920, Note_on_c, 1, 46, 127
1, 170208, Note_off_c, 1, 46, 0
1, 172140, Note_on_c, 1, 73, 127
1, 172209, Note_off_c, 1, 73, 0
1, 172500, Note_on_c, 1, 61, 127
1, 172557, Note_off_c, 1, 61, 0
1, 175200, Note_on_c, 1, 69, 127
1, 175248, Note_off_c, 1, 69, 0
1, 175320, Note_on_c, 1, 81, 127
1, 175686, Note_off_c, 1, 81, 0
1, 176700, Note_on_c, 1, 72, 127
1, 176752, Note_off_c, 1, 72, 0
1, 176760, Note_on_c, 1, 80, 127
1, 176760, Note_on_c, 1, 77, 127
1, 176880, Note_on_c, 1, 75, 127
1, 176885, Note_off_c, 1, 77, 0
1, 177001, Note_off_c, 1, 75, 0
1, 177120, Note_on_c, 1, 70, 127
1, 177232, Note_off_c, 1, 70, 0
1, 177240, Note_on_c, 1, 74, 127
1, 177297, Note_off_c, 1, 74, 0
1, 177300, Note_on_c, 1, 72, 127
1, 177370, Note_off_c, 1, 72, 0
1, 177480, Note_on_c, 1, 79, 127
1, 177492, Note_off_c, 1, 80, 0
1, 177768, Note_off_c, 1, 79, 0
1, 177840, Note_on_c, 1, 65, 127
1, 177960, Note_on_c, 1, 68, 127
1, 177973, Note_off_c, 1, 65, 0
1, 178013, Note_off_c, 1, 68, 0
1, 178020, Note_on_c, 1, 67, 127
1, 178090, Note_off_c, 1, 67, 0
1, 178560, Note_on_c, 1, 63, 127
1, 178697, Note_off_c, 1, 63, 0
1, 178980, Note_on_c, 1, 82, 127
1, 179054, Note_off_c, 1, 82, 0
1, 179280, Note_on_c, 1, 58, 127
1, 179400, Note_on_c, 1, 62, 127
1, 179409, Note_off_c, 1, 58, 0
1, 179460, Note_on_c, 1, 60, 127
1, 179461, Note_off_c, 1, 62, 0
1, 179529, Note_off_c, 1, 60, 0
1, 180000, Note_on_c, 1, 56, 127
1, 180360, Note_on_c, 1, 44, 127
1, 180714, Note_off_c, 1, 56, 0
1, 181079, Note_off_c, 1, 44, 0
1, 181080, Note_on_c, 1, 43, 127
1, 181440, Note_on_c, 1, 51, 127
1, 181440, Note_on_c, 1, 48, 127
1, 181447, Note_off_c, 1, 43, 0
1, 181560, Note_on_c, 1, 55, 127
1, 181569, Note_off_c, 1, 51, 0
1, 181620, Note_on_c, 1, 53, 127
1, 181624, Note_off_c, 1, 55, 0
1, 181689, Note_off_c, 1, 53, 0
1, 182160, Note_on_c, 1, 50, 127
1, 182160, Note_on_c, 1, 46, 127
1, 182170, Note_off_c, 1, 48, 0
1, 182216, Note_off_c, 1, 50, 0
1, 182521, Note_off_c, 1, 46, 0
1, 184980, Note_on_c, 1, 72, 127
1, 185004, Note_off_c, 1, 72, 0
1, 185010, Note_on_c, 1, 74, 127
1, 185034, Note_off_c, 1, 74, 0
1, 185040, Note_on_c, 1, 75, 127
1, 185040, Note_on_c, 1, 67, 127
1, 185040, Note_on_c, 1, 63, 127
1, 185040, Note_on_c, 1, 58, 127
1, 185040, Note_on_c, 1, 39, 127
1, 185668, Note_off_c, 1, 63, 0
1, 185669, Note_off_c, 1, 67, 0
1, 185677, Note_off_c, 1, 75, 0
1, 185719, Note_off_c, 1, 39, 0
1, 185722, Note_off_c, 1, 58, 0
1, 185722, End_track
0, 0, End_of_file