0, 0, Header, 1, 1, 480
1, 0, Start_track
1, 0, Title_t, "Test"
1, 0, Tempo, 500000
1, 0, Instrument_name_t, "Church Organ"
1, 0, Note_on_c, 1, 48, 127
1, 120, Note_on_c, 1, 79, 127
1, 216, Note_off_c, 1, 79, 0
1, 224, Note_off_c, 1, 48, 0
1, 240, Note_on_c, 1, 76, 127
1, 240, Note_on_c, 1, 60, 127
1, 336, Note_off_c, 1, 76, 0
1, 360, Note_on_c, 1, 81, 127
1, 456, Note_off_c, 1, 81, 0
1, 480, Note_on_c, 1, 77, 127
1, 576, Note_off_c, 1, 77, 0
1, 600, Note_on_c, 1, 74, 127
1, 600, Note_on_c, 1, 59, 127
1, 613, Note_off_c, 1, 60, 0
1, 660, Note_off_c, 1, 59, 0
1, 660, Note_on_c, 1, 57, 127
1, 696, Note_off_c, 1, 74, 0
1, 718, Note_off_c, 1, 57, 0
1, 720, Note_on_c, 1, 79, 127
1, 720, Note_on_c, 1, 59, 127
1, 840, Note_on_c, 1, 55, 127
1, 841, Note_off_c, 1, 59, 0
1, 960, Note_on_c, 1, 57, 127
1, 964, Note_off_c, 1, 55, 0
1, 1008, Note_off_c, 1, 79, 0
1, 1020, Note_on_c, 1, 72, 127
1, 1068, Note_off_c, 1, 72, 0
1, 1080, Note_on_c, 1, 74, 127
1, 1128, Note_off_c, 1, 74, 0
1, 1140, Note_on_c, 1, 76, 127
1, 1185, Note_off_c, 1, 57, 0
1, 1188, Note_off_c, 1, 76, 0
1, 1200, Note_on_c, 1, 77, 127
1, 1296, Note_off_c, 1, 77, 0
1, 1320, Note_on_c, 1, 69, 127
1, 1320, Note_on_c, 1, 62, 127
1, 1416, Note_off_c, 1, 69, 0
1, 1440, Note_on_c, 1, 67, 127
1, 1440, Note_on_c, 1, 59, 127
1, 1447, Note_off_c, 1, 62, 0
1, 1536, Note_off_c, 1, 67, 0
1, 1558, Note_off_c, 1, 59, 0
1, 1560, Note_on_c, 1, 77, 127
1, 1560, Note_on_c, 1, 55, 127
1, 1656, Note_off_c, 1, 77, 0
1, 1680, Note_on_c, 1, 60, 127
1, 1681, Note_off_c, 1, 55, 0
1, 1695, Note_on_c, 1, 76, 127
1, 1710, Note_off_c, 1, 76, 0
1, 1740, Note_on_c, 1, 74, 127
1, 1788, Note_off_c, 1, 74, 0
1, 1793, Note_off_c, 1, 60, 0
1, 1800, Note_on_c, 1, 76, 127
1, 1800, Note_on_c, 1, 48, 127
1, 1848, Note_off_c, 1, 76, 0
1, 1860, Note_on_c, 1, 77, 127
1, 1905, Note_off_c, 1, 48, 0
1, 1908, Note_off_c, 1, 77, 0
1, 1920, Note_on_c, 1, 74, 127
1, 1920, Note_on_c, 1, 55, 127
1, 2016, Note_off_c, 1, 74, 0
1, 2040, Note_on_c, 1, 76, 127
1, 2040, Note_on_c, 1, 72, 127
1, 2088, Note_off_c, 1, 76, 0
1, 2100, Note_on_c, 1, 78, 127
1, 2148, Note_off_c, 1, 78, 0
1, 2160, Note_on_c, 1, 79, 127
1, 2160, Note_on_c, 1, 71, 127
1, 2169, Note_off_c, 1, 72, 0
1, 2208, Note_off_c, 1, 79, 0
1, 2220, Note_on_c, 1, 81, 127
1, 2268, Note_off_c, 1, 81, 0
1, 2280, Note_on_c, 1, 83, 127
1, 2293, Note_off_c, 1, 71, 0
1, 2328, Note_off_c, 1, 83, 0
1, 2520, Note_on_c, 1, 69, 127
1, 2520, Note_on_c, 1, 54, 127
1, 2525, Note_off_c, 1, 55, 0
1, 2580, Note_on_c, 1, 52, 127
1, 2591, Note_off_c, 1, 54, 0
1, 2638, Note_off_c, 1, 69, 0
1, 2647, Note_off_c, 1, 52, 0
1, 2700, Note_on_c, 1, 84, 127
1, 2748, Note_off_c, 1, 84, 0
1, 2760, Note_on_c, 1, 50, 127
1, 2878, Note_off_c, 1, 50, 0
1, 2940, Note_on_c, 1, 67, 127
1, 2997, Note_off_c, 1, 67, 0
1, 3240, Note_on_c, 1, 64, 127
1, 3240, Note_on_c, 1, 57, 127
1, 3316, Note_off_c, 1, 64, 0
1, 3335, Note_off_c, 1, 57, 0
1, 3360, Note_on_c, 1, 81, 127
1, 3360, Note_on_c, 1, 62, 127
1, 3360, Note_on_c, 1, 54, 127
1, 3408, Note_off_c, 1, 81, 0
1, 3420, Note_on_c, 1, 79, 127
1, 3468, Note_off_c, 1, 79, 0
1, 3475, Note_off_c, 1, 62, 0
1, 3478, Note_off_c, 1, 54, 0
1, 3480, Note_on_c, 1, 78, 127
1, 3480, Note_on_c, 1, 50, 127
1, 3528, Note_off_c, 1, 78, 0
1, 3540, Note_on_c, 1, 76, 127
1, 3588, Note_off_c, 1, 76, 0
1, 3600, Note_on_c, 1, 74, 127
1, 3600, Note_on_c, 1, 72, 127
1, 3600, Note_on_c, 1, 55, 127
1, 3609, Note_off_c, 1, 50, 0
1, 3615, Note_on_c, 1, 71, 127
1, 3616, Note_off_c, 1, 72, 0
1, 3630, Note_off_c, 1, 71, 0
1, 3660, Note_on_c, 1, 69, 127
1, 3696, Note_off_c, 1, 74, 0
1, 3720, Note_on_c, 1, 79, 127
1, 3720, Note_on_c, 1, 43, 127
1, 3728, Note_off_c, 1, 69, 0
1, 3733, Note_off_c, 1, 55, 0
1, 3802, Note_off_c, 1, 43, 0
1, 3888, Note_off_c, 1, 79, 0
1, 4200, Note_on_c, 1, 83, 127
1, 4296, Note_off_c, 1, 83, 0
1, 4440, Note_on_c, 1, 48, 127
1, 4499, Note_off_c, 1, 48, 0
1, 4500, Note_on_c, 1, 47, 127
1, 4560, Note_on_c, 1, 81, 127
1, 4566, Note_off_c, 1, 47, 0
1, 4680, Note_on_c, 1, 45, 127
1, 4811, Note_off_c, 1, 45, 0
1, 4848, Note_off_c, 1, 81, 0
1, 5160, Note_on_c, 1, 52, 127
1, 5220, Note_on_c, 1, 67, 127
1, 5268, Note_off_c, 1, 67, 0
1, 5285, Note_off_c, 1, 52, 0
1, 5640, Note_on_c, 1, 79, 127
1, 5640, Note_on_c, 1, 74, 127
1, 5640, Note_on_c, 1, 38, 127
1, 5652, Note_off_c, 1, 79, 0
1, 5655, Note_on_c, 1, 78, 127
1, 5667, Note_off_c, 1, 78, 0
1, 5700, Note_on_c, 1, 76, 127
1, 5724, Note_off_c, 1, 76, 0
1, 5750, Note_off_c, 1, 38, 0
1, 5760, Note_on_c, 1, 71, 127
1, 5760, Note_on_c, 1, 43, 127
1, 5780, Note_off_c, 1, 74, 0
1, 5820, Note_off_c, 1, 71, 0
1, 5820, Note_on_c, 1, 67, 127
1, 5887, Note_off_c, 1, 67, 0
1, 6025, Note_off_c, 1, 43, 0
1, 6120, Note_on_c, 1, 47, 127
1, 6180, Note_on_c, 1, 77, 127
1, 6223, Note_off_c, 1, 47, 0
1, 6228, Note_off_c, 1, 77, 0
1, 6240, Note_on_c, 1, 48, 127
1, 6351, Note_off_c, 1, 48, 0
1, 6360, Note_on_c, 1, 50, 127
1, 6480, Note_on_c, 1, 72, 127
1, 6480, Note_on_c, 1, 52, 127
1, 6486, Note_off_c, 1, 50, 0
1, 6528, Note_off_c, 1, 72, 0
1, 6600, Note_on_c, 1, 53, 127
1, 6619, Note_off_c, 1, 52, 0
1, 6720, Note_on_c, 1, 55, 127
1, 6727, Note_off_c, 1, 53, 0
1, 6840, Note_on_c, 1, 57, 127
1, 6852, Note_off_c, 1, 55, 0
1, 6952, Note_off_c, 1, 57, 0
1, 6960, Note_on_c, 1, 79, 127
1, 6960, Note_on_c, 1, 59, 127
1, 7080, Note_on_c, 1, 74, 127
1, 7080, Note_on_c, 1, 55, 127
1, 7091, Note_off_c, 1, 59, 0
1, 7128, Note_off_c, 1, 74, 0
1, 7140, Note_on_c, 1, 77, 127
1, 7188, Note_off_c, 1, 77, 0
1, 7200, Note_on_c, 1, 76, 127
1, 7200, Note_on_c, 1, 60, 127
1, 7207, Note_off_c, 1, 55, 0
1, 7255, Note_off_c, 1, 76, 0
1, 7320, Note_on_c, 1, 71, 127
1, 7324, Note_off_c, 1, 60, 0
1, 7365, Note_off_c, 1, 71, 0
1, 7440, Note_on_c, 1, 72, 127
1, 7440, Note_on_c, 1, 52, 127
1, 7492, Note_off_c, 1, 72, 0
1, 7558, Note_off_c, 1, 52, 0
1, 7560, Note_on_c, 1, 48, 127
1, 7676, Note_off_c, 1, 48, 0
1, 7740, Note_on_c, 1, 67, 127
1, 7794, Note_off_c, 1, 67, 0
1, 7872, Note_off_c, 1, 79, 0
1, 7920, Note_on_c, 1, 79, 127
1, 7980, Note_on_c, 1, 76, 127
1, 8028, Note_off_c, 1, 76, 0
1, 8040, Note_on_c, 1, 71, 127
1, 8040, Note_on_c, 1, 52, 127
1, 8088, Note_off_c, 1, 71, 0
1, 8100, Note_on_c, 1, 74, 127
1, 8148, Note_off_c, 1, 74, 0
1, 8151, Note_off_c, 1, 52, 0
1, 8160, Note_on_c, 1, 72, 127
1, 8160, Note_on_c, 1, 57, 127
1, 8220, Note_on_c, 1, 77, 127
1, 8228, Note_off_c, 1, 79, 0
1, 8256, Note_off_c, 1, 72, 0
1, 8280, Note_off_c, 1, 57, 0
1, 8280, Note_on_c, 1, 81, 127
1, 8280, Note_on_c, 1, 48, 127
1, 8285, Note_off_c, 1, 77, 0
1, 8376, Note_off_c, 1, 81, 0
1, 8394, Note_off_c, 1, 48, 0
1, 8400, Note_on_c, 1, 50, 127
1, 8520, Note_on_c, 1, 69, 127
1, 8520, Note_on_c, 1, 53, 127
1, 8524, Note_off_c, 1, 50, 0
1, 8568, Note_off_c, 1, 69, 0
1, 8640, Note_on_c, 1, 55, 127
1, 8653, Note_off_c, 1, 53, 0
1, 8700, Note_on_c, 1, 67, 127
1, 8740, Note_off_c, 1, 55, 0
1, 8760, Note_on_c, 1, 43, 127
1, 8764, Note_off_c, 1, 67, 0
1, 8880, Note_off_c, 1, 43, 0
1, 9060, Note_on_c, 1, 70, 127
1, 9108, Note_off_c, 1, 70, 0
1, 10320, Note_on_c, 1, 74, 127
1, 10320, Note_on_c, 1, 71, 127
1, 10320, Note_on_c, 1, 55, 127
1, 10368, Note_off_c, 1, 74, 0
1, 10380, Note_on_c, 1, 79, 127
1, 10428, Note_off_c, 1, 79, 0
1, 10560, Note_on_c, 1, 72, 127
1, 10599, Note_off_c, 1, 55, 0
1, 10608, Note_off_c, 1, 72, 0
1, 10680, Note_on_c, 1, 52, 127
1, 10798, Note_off_c, 1, 52, 0
1, 10800, Note_on_c, 1, 69, 127
1, 10800, Note_on_c, 1, 48, 127
1, 10806, Note_off_c, 1, 71, 0
1, 10860, Note_on_c, 1, 76, 127
1, 10908, Note_off_c, 1, 76, 0
1, 10913, Note_off_c, 1, 48, 0
1, 10920, Note_on_c, 1, 53, 127
1, 11038, Note_off_c, 1, 53, 0
1, 11040, Note_on_c, 1, 50, 127
1, 11157, Note_off_c, 1, 50, 0
1, 11160, Note_on_c, 1, 67, 127
1, 11160, Note_on_c, 1, 47, 127
1, 11190, Note_off_c, 1, 69, 0
1, 11220, Note_on_c, 1, 65, 127
1, 11222, Note_off_c, 1, 67, 0
1, 11272, Note_off_c, 1, 47, 0
1, 11274, Note_off_c, 1, 65, 0
1, 11280, Note_on_c, 1, 71, 127
1, 11280, Note_on_c, 1, 67, 127
1, 11280, Note_on_c, 1, 52, 127
1, 11328, Note_off_c, 1, 71, 0
1, 11340, Note_on_c, 1, 76, 127
1, 11388, Note_off_c, 1, 76, 0
1, 11520, Note_on_c, 1, 69, 127
1, 11539, Note_off_c, 1, 52, 0
1, 11568, Note_off_c, 1, 69, 0
1, 11640, Note_on_c, 1, 48, 127
1, 11760, Note_on_c, 1, 65, 127
1, 11760, Note_on_c, 1, 45, 127
1, 11765, Note_off_c, 1, 48, 0
1, 11778, Note_off_c, 1, 67, 0
1, 11820, Note_on_c, 1, 72, 127
1, 11868, Note_off_c, 1, 72, 0
1, 11878, Note_off_c, 1, 45, 0
1, 11880, Note_on_c, 1, 50, 127
1, 12000, Note_on_c, 1, 47, 127
1, 12008, Note_off_c, 1, 50, 0
1, 12060, Note_on_c, 1, 62, 127
1, 12064, Note_off_c, 1, 65, 0
1, 12120, Note_off_c, 1, 47, 0
1, 12120, Note_on_c, 1, 64, 127
1, 12120, Note_on_c, 1, 43, 127
1, 12121, Note_off_c, 1, 62, 0
1, 12174, Note_off_c, 1, 64, 0
1, 12246, Note_off_c, 1, 43, 0
1, 12420, Note_on_c, 1, 60, 127
1, 12472, Note_off_c, 1, 60, 0
1, 12900, Note_on_c, 1, 59, 127
1, 12948, Note_off_c, 1, 59, 0
1, 13200, Note_on_c, 1, 41, 127
1, 13334, Note_off_c, 1, 41, 0
1, 13440, Note_on_c, 1, 60, 127
1, 13440, Note_on_c, 1, 48, 127
1, 13500, Note_on_c, 1, 62, 127
1, 13548, Note_off_c, 1, 62, 0
1, 13553, Note_off_c, 1, 48, 0
1, 13608, Note_off_c, 1, 60, 0
1, 13620, Note_on_c, 1, 62, 127
1, 13668, Note_off_c, 1, 62, 0
1, 13680, Note_on_c, 1, 64, 127
1, 13680, Note_on_c, 1, 45, 127
1, 13728, Note_off_c, 1, 64, 0
1, 13740, Note_on_c, 1, 65, 127
1, 13788, Note_off_c, 1, 65, 0
1, 13793, Note_off_c, 1, 45, 0
1, 13800, Note_on_c, 1, 64, 127
1, 13848, Note_off_c, 1, 64, 0
1, 13860, Note_on_c, 1, 65, 127
1, 13908, Note_off_c, 1, 65, 0
1, 13920, Note_on_c, 1, 62, 127
1, 13920, Note_on_c, 1, 41, 127
1, 13968, Note_off_c, 1, 62, 0
1, 13980, Note_on_c, 1, 64, 127
1, 14028, Note_off_c, 1, 64, 0
1, 14033, Note_off_c, 1, 41, 0
1, 14040, Note_on_c, 1, 62, 127
1, 14088, Note_off_c, 1, 62, 0
1, 14100, Note_on_c, 1, 64, 127
1, 14148, Note_off_c, 1, 64, 0
1, 14160, Note_on_c, 1, 65, 127
1, 14160, Note_on_c, 1, 43, 127
1, 14208, Note_off_c, 1, 65, 0
1, 14220, Note_on_c, 1, 67, 127
1, 14268, Note_off_c, 1, 67, 0
1, 14273, Note_off_c, 1, 43, 0
1, 14280, Note_on_c, 1, 65, 127
1, 14328, Note_off_c, 1, 65, 0
1, 14340, Note_on_c, 1, 67, 127
1, 14388, Note_off_c, 1, 67, 0
1, 14400, Note_on_c, 1, 64, 127
1, 14400, Note_on_c, 1, 60, 127
1, 14400, Note_on_c, 1, 36, 127
1, 14451, Note_off_c, 1, 60, 0
1, 14460, Note_on_c, 1, 62, 127
1, 14496, Note_off_c, 1, 64, 0
1, 14513, Note_off_c, 1, 36, 0
1, 14516, Note_off_c, 1, 62, 0
1, 14520, Note_on_c, 1, 72, 127
1, 14520, Note_on_c, 1, 60, 127
1, 14580, Note_on_c, 1, 62, 127
1, 14586, Note_off_c, 1, 60, 0
1, 14616, Note_off_c, 1, 72, 0
1, 14640, Note_on_c, 1, 64, 127
1, 14645, Note_off_c, 1, 62, 0
1, 14700, Note_on_c, 1, 65, 127
1, 14705, Note_off_c, 1, 64, 0
1, 14762, Note_off_c, 1, 65, 0
1, 15000, Note_on_c, 1, 72, 127
1, 15000, Note_on_c, 1, 62, 127
1, 15060, Note_on_c, 1, 64, 127
1, 15062, Note_off_c, 1, 62, 0
1, 15096, Note_off_c, 1, 72, 0
1, 15120, Note_off_c, 1, 64, 0
1, 15120, Note_on_c, 1, 65, 127
1, 15176, Note_off_c, 1, 65, 0
1, 15180, Note_on_c, 1, 67, 127
1, 15240, Note_on_c, 1, 71, 127
1, 15247, Note_off_c, 1, 67, 0
1, 15336, Note_off_c, 1, 71, 0
1, 15360, Note_on_c, 1, 72, 127
1, 15360, Note_on_c, 1, 64, 127
1, 15360, Note_on_c, 1, 48, 127
1, 15410, Note_off_c, 1, 48, 0
1, 15420, Note_on_c, 1, 50, 127
1, 15456, Note_off_c, 1, 72, 0
1, 15471, Note_off_c, 1, 50, 0
1, 15482, Note_off_c, 1, 64, 0
1, 15600, Note_on_c, 1, 79, 127
1, 15600, Note_on_c, 1, 60, 127
1, 15600, Note_on_c, 1, 52, 127
1, 15660, Note_on_c, 1, 53, 127
1, 15663, Note_off_c, 1, 52, 0
1, 15696, Note_off_c, 1, 79, 0
1, 15717, Note_off_c, 1, 53, 0
1, 15720, Note_on_c, 1, 72, 127
1, 15722, Note_off_c, 1, 60, 0
1, 15840, Note_on_c, 1, 81, 127
1, 15840, Note_on_c, 1, 65, 127
1, 15840, Note_on_c, 1, 50, 127
1, 15850, Note_off_c, 1, 72, 0
1, 15881, Note_off_c, 1, 50, 0
1, 15936, Note_off_c, 1, 81, 0
1, 15959, Note_off_c, 1, 65, 0
1, 15960, Note_on_c, 1, 72, 127
1, 15960, Note_on_c, 1, 50, 127
1, 16020, Note_on_c, 1, 52, 127
1, 16021, Note_off_c, 1, 50, 0
1, 16080, Note_on_c, 1, 83, 127
1, 16080, Note_on_c, 1, 62, 127
1, 16080, Note_on_c, 1, 53, 127
1, 16082, Note_off_c, 1, 52, 0
1, 16090, Note_off_c, 1, 72, 0
1, 16140, Note_on_c, 1, 55, 127
1, 16143, Note_off_c, 1, 53, 0
1, 16176, Note_off_c, 1, 83, 0
1, 16196, Note_off_c, 1, 62, 0
1, 16200, Note_on_c, 1, 71, 127
1, 16205, Note_off_c, 1, 55, 0
1, 16327, Note_off_c, 1, 71, 0
1, 16440, Note_on_c, 1, 84, 127
1, 16440, Note_on_c, 1, 67, 127
1, 16440, Note_on_c, 1, 60, 127
1, 16452, Note_off_c, 1, 67, 0
1, 16488, Note_off_c, 1, 84, 0
1, 16553, Note_off_c, 1, 60, 0
1, 16560, Note_on_c, 1, 81, 127
1, 16560, Note_on_c, 1, 72, 127
1, 16560, Note_on_c, 1, 48, 127
1, 16608, Note_off_c, 1, 81, 0
1, 16620, Note_on_c, 1, 79, 127
1, 16668, Note_off_c, 1, 79, 0
1, 16673, Note_off_c, 1, 48, 0
1, 16680, Note_on_c, 1, 77, 127
1, 16680, Note_on_c, 1, 60, 127
1, 16728, Note_off_c, 1, 77, 0
1, 16740, Note_on_c, 1, 76, 127
1, 16788, Note_off_c, 1, 76, 0
1, 16793, Note_off_c, 1, 60, 0
1, 16800, Note_on_c, 1, 74, 127
1, 16800, Note_on_c, 1, 53, 127
1, 16848, Note_off_c, 1, 74, 0
1, 16906, Note_off_c, 1, 53, 0
1, 17040, Note_on_c, 1, 71, 127
1, 17040, Note_on_c, 1, 50, 127
1, 17050, Note_off_c, 1, 72, 0
1, 17160, Note_on_c, 1, 59, 127
1, 17165, Note_off_c, 1, 50, 0
1, 17280, Note_on_c, 1, 52, 127
1, 17284, Note_off_c, 1, 59, 0
1, 17388, Note_off_c, 1, 52, 0
1, 17520, Note_on_c, 1, 69, 127
1, 17529, Note_off_c, 1, 71, 0
1, 17640, Note_on_c, 1, 57, 127
1, 17764, Note_off_c, 1, 57, 0
1, 18000, Note_on_c, 1, 68, 127
1, 18000, Note_on_c, 1, 47, 127
1, 18005, Note_off_c, 1, 69, 0
1, 18117, Note_off_c, 1, 47, 0
1, 18120, Note_on_c, 1, 64, 127
1, 18120, Note_on_c, 1, 56, 127
1, 18123, Note_off_c, 1, 68, 0
1, 18228, Note_off_c, 1, 56, 0
1, 18240, Note_on_c, 1, 45, 127
1, 18244, Note_off_c, 1, 64, 0
1, 18353, Note_off_c, 1, 45, 0
1, 18360, Note_on_c, 1, 76, 127
1, 18360, Note_on_c, 1, 69, 127
1, 18420, Note_on_c, 1, 71, 127
1, 18424, Note_off_c, 1, 69, 0
1, 18456, Note_off_c, 1, 76, 0
1, 18480, Note_on_c, 1, 72, 127
1, 18480, Note_on_c, 1, 41, 127
1, 18482, Note_off_c, 1, 71, 0
1, 18540, Note_off_c, 1, 72, 0
1, 18540, Note_on_c, 1, 74, 127
1, 18593, Note_off_c, 1, 41, 0
1, 18600, Note_on_c, 1, 81, 127
1, 18604, Note_off_c, 1, 74, 0
1, 18696, Note_off_c, 1, 81, 0
1, 18720, Note_on_c, 1, 77, 127
1, 18720, Note_on_c, 1, 38, 127
1, 18816, Note_off_c, 1, 77, 0
1, 18833, Note_off_c, 1, 38, 0
1, 18960, Note_on_c, 1, 71, 127
1, 18960, Note_on_c, 1, 74, 127
1, 18960, Note_on_c, 1, 40, 127
1, 19020, Note_on_c, 1, 76, 127
1, 19025, Note_off_c, 1, 74, 0
1, 19056, Note_off_c, 1, 71, 0
1, 19073, Note_off_c, 1, 40, 0
1, 19080, Note_on_c, 1, 80, 127
1, 19095, Note_off_c, 1, 76, 0
1, 19176, Note_off_c, 1, 80, 0
1, 19200, Note_on_c, 1, 69, 127
1, 19200, Note_on_c, 1, 72, 127
1, 19200, Note_on_c, 1, 45, 127
1, 19248, Note_off_c, 1, 69, 0
1, 19260, Note_on_c, 1, 71, 127
1, 19260, Note_on_c, 1, 74, 127
1, 19262, Note_off_c, 1, 72, 0
1, 19278, Note_off_c, 1, 45, 0
1, 19308, Note_off_c, 1, 71, 0
1, 19319, Note_off_c, 1, 74, 0
1, 19320, Note_on_c, 1, 69, 127
1, 19320, Note_on_c, 1, 72, 127
1, 19320, Note_on_c, 1, 52, 127
1, 19368, Note_off_c, 1, 69, 0
1, 19380, Note_on_c, 1, 71, 127
1, 19380, Note_on_c, 1, 74, 127
1, 19384, Note_off_c, 1, 72, 0
1, 19397, Note_off_c, 1, 52, 0
1, 19428, Note_off_c, 1, 71, 0
1, 19430, Note_off_c, 1, 74, 0
1, 19440, Note_on_c, 1, 72, 127
1, 19440, Note_on_c, 1, 76, 127
1, 19440, Note_on_c, 1, 57, 127
1, 19488, Note_off_c, 1, 72, 0
1, 19491, Note_off_c, 1, 76, 0
1, 19500, Note_on_c, 1, 74, 127
1, 19500, Note_on_c, 1, 77, 127
1, 19548, Note_off_c, 1, 74, 0
1, 19567, Note_off_c, 1, 77, 0
1, 19680, Note_on_c, 1, 71, 127
1, 19728, Note_off_c, 1, 71, 0
1, 19920, Note_on_c, 1, 56, 127
1, 19940, Note_off_c, 1, 57, 0
1, 20164, Note_off_c, 1, 56, 0
1, 20400, Note_on_c, 1, 81, 127
1, 20460, Note_on_c, 1, 50, 127
1, 20514, Note_off_c, 1, 50, 0
1, 20520, Note_on_c, 1, 48, 127
1, 20573, Note_off_c, 1, 48, 0
1, 20640, Note_on_c, 1, 47, 127
1, 20736, Note_off_c, 1, 81, 0
1, 20760, Note_on_c, 1, 79, 127
1, 20808, Note_off_c, 1, 79, 0
1, 20850, Note_off_c, 1, 47, 0
1, 20880, Note_on_c, 1, 79, 127
1, 20880, Note_on_c, 1, 76, 127
1, 20928, Note_off_c, 1, 79, 0
1, 21000, Note_on_c, 1, 69, 127
1, 21000, Note_on_c, 1, 49, 127
1, 21048, Note_off_c, 1, 69, 0
1, 21114, Note_off_c, 1, 49, 0
1, 21120, Note_on_c, 1, 77, 127
1, 21120, Note_on_c, 1, 50, 127
1, 21184, Note_off_c, 1, 76, 0
1, 21240, Note_on_c, 1, 71, 127
1, 21243, Note_off_c, 1, 50, 0
1, 21300, Note_on_c, 1, 72, 127
1, 21301, Note_off_c, 1, 71, 0
1, 21360, Note_on_c, 1, 74, 127
1, 21363, Note_off_c, 1, 72, 0
1, 21408, Note_off_c, 1, 77, 0
1, 21469, Note_off_c, 1, 74, 0
1, 21480, Note_on_c, 1, 71, 127
1, 21480, Note_on_c, 1, 65, 127
1, 21480, Note_on_c, 1, 62, 127
1, 21528, Note_off_c, 1, 71, 0
1, 21540, Note_on_c, 1, 74, 127
1, 21564, Note_off_c, 1, 65, 0
1, 21588, Note_off_c, 1, 74, 0
1, 21600, Note_on_c, 1, 68, 127
1, 21600, Note_on_c, 1, 64, 127
1, 21648, Note_off_c, 1, 68, 0
1, 21660, Note_on_c, 1, 69, 127
1, 21676, Note_off_c, 1, 62, 0
1, 21708, Note_off_c, 1, 69, 0
1, 21720, Note_on_c, 1, 56, 127
1, 21729, Note_off_c, 1, 64, 0
1, 21840, Note_on_c, 1, 57, 127
1, 21855, Note_on_c, 1, 72, 127
1, 21867, Note_off_c, 1, 56, 0
1, 21870, Note_off_c, 1, 72, 0
1, 21948, Note_off_c, 1, 57, 0
1, 21960, Note_on_c, 1, 81, 127
1, 21960, Note_on_c, 1, 51, 127
1, 22062, Note_off_c, 1, 51, 0
1, 22080, Note_on_c, 1, 52, 127
1, 22128, Note_off_c, 1, 81, 0
1, 22140, Note_on_c, 1, 79, 127
1, 22188, Note_off_c, 1, 79, 0
1, 22200, Note_on_c, 1, 73, 127
1, 22259, Note_off_c, 1, 73, 0
1, 22260, Note_on_c, 1, 78, 127
1, 22260, Note_on_c, 1, 75, 127
1, 22308, Note_off_c, 1, 78, 0
1, 22320, Note_on_c, 1, 76, 127
1, 22321, Note_off_c, 1, 75, 0
1, 22386, Note_off_c, 1, 76, 0
1, 22440, Note_on_c, 1, 84, 127
1, 22536, Note_off_c, 1, 84, 0
1, 22680, Note_on_c, 1, 50, 127
1, 22691, Note_off_c, 1, 52, 0
1, 22738, Note_off_c, 1, 50, 0
1, 22740, Note_on_c, 1, 48, 127
1, 22798, Note_off_c, 1, 48, 0
1, 22800, Note_on_c, 1, 83, 127
1, 22800, Note_on_c, 1, 78, 127
1, 22800, Note_on_c, 1, 50, 127
1, 22855, Note_off_c, 1, 78, 0
1, 22860, Note_on_c, 1, 81, 127
1, 22912, Note_off_c, 1, 50, 0
1, 22920, Note_on_c, 1, 79, 127
1, 22920, Note_on_c, 1, 47, 127
1, 22923, Note_off_c, 1, 81, 0
1, 22971, Note_off_c, 1, 79, 0
1, 23040, Note_on_c, 1, 76, 127
1, 23040, Note_on_c, 1, 48, 127
1, 23047, Note_off_c, 1, 47, 0
1, 23088, Note_off_c, 1, 83, 0
1, 23262, Note_off_c, 1, 48, 0
1, 23328, Note_off_c, 1, 76, 0
1, 23340, Note_on_c, 1, 72, 127
1, 23400, Note_on_c, 1, 71, 127
1, 23400, Note_on_c, 1, 54, 127
1, 23447, Note_off_c, 1, 71, 0
1, 23460, Note_on_c, 1, 69, 127
1, 23496, Note_off_c, 1, 72, 0
1, 23513, Note_off_c, 1, 69, 0
1, 23517, Note_off_c, 1, 54, 0
1, 23520, Note_on_c, 1, 71, 127
1, 23520, Note_on_c, 1, 78, 127
1, 23520, Note_on_c, 1, 51, 127
1, 23576, Note_off_c, 1, 78, 0
1, 23580, Note_on_c, 1, 76, 127
1, 23616, Note_off_c, 1, 71, 0
1, 23638, Note_off_c, 1, 51, 0
1, 23640, Note_off_c, 1, 76, 0
1, 23640, Note_on_c, 1, 81, 127
1, 23640, Note_on_c, 1, 75, 127
1, 23640, Note_on_c, 1, 47, 127
1, 23685, Note_off_c, 1, 75, 0
1, 23700, Note_on_c, 1, 73, 127
1, 23736, Note_off_c, 1, 81, 0
1, 23737, Note_off_c, 1, 73, 0
1, 23750, Note_off_c, 1, 47, 0
1, 23760, Note_on_c, 1, 79, 127
1, 23760, Note_on_c, 1, 71, 127
1, 23760, Note_on_c, 1, 52, 127
1, 23808, Note_off_c, 1, 79, 0
1, 23820, Note_on_c, 1, 78, 127
1, 23868, Note_off_c, 1, 78, 0
1, 23870, Note_off_c, 1, 71, 0
1, 23870, Note_off_c, 1, 52, 0
1, 23880, Note_on_c, 1, 79, 127
1, 23880, Note_on_c, 1, 76, 127
1, 23880, Note_on_c, 1, 40, 127
1, 23928, Note_off_c, 1, 79, 0
1, 23940, Note_on_c, 1, 81, 127
1, 23988, Note_off_c, 1, 81, 0
1, 23992, Note_off_c, 1, 40, 0
1, 24000, Note_on_c, 1, 78, 127
1, 24000, Note_on_c, 1, 47, 127
1, 24060, Note_on_c, 1, 75, 127
1, 24082, Note_off_c, 1, 76, 0
1, 24100, Note_off_c, 1, 47, 0
1, 24119, Note_off_c, 1, 75, 0
1, 24120, Note_on_c, 1, 73, 127
1, 24120, Note_on_c, 1, 59, 127
1, 24185, Note_off_c, 1, 73, 0
1, 24192, Note_off_c, 1, 78, 0
1, 24230, Note_off_c, 1, 59, 0
1, 24240, Note_on_c, 1, 76, 127
1, 24240, Note_on_c, 1, 55, 127
1, 24300, Note_on_c, 1, 83, 127
1, 24348, Note_off_c, 1, 83, 0
1, 24360, Note_off_c, 1, 55, 0
1, 24360, Note_on_c, 1, 81, 127
1, 24360, Note_on_c, 1, 60, 127
1, 24408, Note_off_c, 1, 81, 0
1, 24420, Note_on_c, 1, 79, 127
1, 24468, Note_off_c, 1, 60, 0
1, 24468, Note_off_c, 1, 79, 0
1, 24480, Note_on_c, 1, 78, 127
1, 24480, Note_on_c, 1, 57, 127
1, 24528, Note_off_c, 1, 78, 0
1, 24598, Note_off_c, 1, 57, 0
1, 24600, Note_on_c, 1, 54, 127
1, 24720, Note_on_c, 1, 74, 127
1, 24720, Note_on_c, 1, 59, 127
1, 24728, Note_off_c, 1, 54, 0
1, 24732, Note_off_c, 1, 76, 0
1, 24955, Note_off_c, 1, 59, 0
1, 25020, Note_on_c, 1, 80, 127
1, 25068, Note_off_c, 1, 80, 0
1, 25080, Note_on_c, 1, 52, 127
1, 25200, Note_on_c, 1, 48, 127
1, 25210, Note_off_c, 1, 52, 0
1, 25211, Note_off_c, 1, 74, 0
1, 25320, Note_on_c, 1, 53, 127
1, 25321, Note_off_c, 1, 48, 0
1, 25380, Note_on_c, 1, 72, 127
1, 25432, Note_off_c, 1, 72, 0
1, 25434, Note_off_c, 1, 53, 0
1, 25440, Note_on_c, 1, 71, 127
1, 25440, Note_on_c, 1, 50, 127
1, 25495, Note_off_c, 1, 71, 0
1, 25560, Note_on_c, 1, 47, 127
1, 25566, Note_off_c, 1, 50, 0
1, 25685, Note_off_c, 1, 47, 0
1, 25980, Note_on_c, 1, 73, 127
1, 26046, Note_off_c, 1, 73, 0
1, 26100, Note_on_c, 1, 69, 127
1, 26145, Note_off_c, 1, 69, 0
1, 26160, Note_on_c, 1, 74, 127
1, 26160, Note_on_c, 1, 53, 127
1, 26220, Note_on_c, 1, 81, 127
1, 26268, Note_off_c, 1, 81, 0
1, 26280, Note_on_c, 1, 79, 127
1, 26280, Note_on_c, 1, 58, 127
1, 26288, Note_off_c, 1, 53, 0
1, 26328, Note_off_c, 1, 79, 0
1, 26340, Note_on_c, 1, 77, 127
1, 26388, Note_off_c, 1, 77, 0
1, 26396, Note_off_c, 1, 58, 0
1, 26400, Note_on_c, 1, 76, 127
1, 26400, Note_on_c, 1, 55, 127
1, 26448, Note_off_c, 1, 76, 0
1, 26520, Note_on_c, 1, 52, 127
1, 26521, Note_off_c, 1, 55, 0
1, 26640, Note_on_c, 1, 72, 127
1, 26640, Note_on_c, 1, 57, 127
1, 26642, Note_off_c, 1, 74, 0
1, 26642, Note_off_c, 1, 52, 0
1, 26901, Note_off_c, 1, 57, 0
1, 26940, Note_on_c, 1, 78, 127
1, 26988, Note_off_c, 1, 78, 0
1, 27000, Note_on_c, 1, 50, 127
1, 27120, Note_on_c, 1, 47, 127
1, 27136, Note_off_c, 1, 50, 0
1, 27137, Note_off_c, 1, 72, 0
1, 27228, Note_off_c, 1, 47, 0
1, 27300, Note_on_c, 1, 71, 127
1, 27358, Note_off_c, 1, 71, 0
1, 27360, Note_on_c, 1, 69, 127
1, 27360, Note_on_c, 1, 48, 127
1, 27413, Note_off_c, 1, 69, 0
1, 27480, Note_on_c, 1, 45, 127
1, 27481, Note_off_c, 1, 48, 0
1, 27602, Note_off_c, 1, 45, 0
1, 27840, Note_on_c, 1, 43, 127
1, 28049, Note_off_c, 1, 43, 0
1, 28080, Note_on_c, 1, 71, 127
1, 28176, Note_off_c, 1, 71, 0
1, 28200, Note_on_c, 1, 76, 127
1, 28200, Note_on_c, 1, 67, 127
1, 28296, Note_off_c, 1, 76, 0
1, 28315, Note_off_c, 1, 67, 0
1, 28320, Note_on_c, 1, 72, 127
1, 28320, Note_on_c, 1, 64, 127
1, 28416, Note_off_c, 1, 72, 0
1, 28440, Note_on_c, 1, 69, 127
1, 28448, Note_off_c, 1, 64, 0
1, 28559, Note_off_c, 1, 69, 0
1, 28560, Note_on_c, 1, 74, 127
1, 28560, Note_on_c, 1, 66, 127
1, 28680, Note_on_c, 1, 62, 127
1, 28680, Note_on_c, 1, 50, 127
1, 28681, Note_off_c, 1, 66, 0
1, 28800, Note_on_c, 1, 67, 127
1, 28800, Note_on_c, 1, 47, 127
1, 28805, Note_off_c, 1, 50, 0
1, 28807, Note_off_c, 1, 62, 0
1, 28848, Note_off_c, 1, 74, 0
1, 28909, Note_off_c, 1, 47, 0
1, 28920, Note_on_c, 1, 69, 127
1, 28920, Note_on_c, 1, 52, 127
1, 28968, Note_off_c, 1, 69, 0
1, 28980, Note_on_c, 1, 71, 127
1, 29028, Note_off_c, 1, 71, 0
1, 29040, Note_on_c, 1, 72, 127
1, 29040, Note_on_c, 1, 48, 127
1, 29041, Note_off_c, 1, 52, 0
1, 29088, Note_off_c, 1, 67, 0
1, 29160, Note_on_c, 1, 45, 127
1, 29164, Note_off_c, 1, 48, 0
1, 29220, Note_on_c, 1, 76, 127
1, 29244, Note_off_c, 1, 76, 0
1, 29280, Note_off_c, 1, 45, 0
1, 29328, Note_off_c, 1, 72, 0
1, 29400, Note_on_c, 1, 42, 127
1, 29494, Note_off_c, 1, 42, 0
1, 29520, Note_on_c, 1, 71, 127
1, 29520, Note_on_c, 1, 62, 127
1, 29520, Note_on_c, 1, 43, 127
1, 29562, Note_off_c, 1, 62, 0
1, 29568, Note_off_c, 1, 71, 0
1, 29580, Note_on_c, 1, 69, 127
1, 29580, Note_on_c, 1, 66, 127
1, 29583, Note_off_c, 1, 43, 0
1, 29604, Note_off_c, 1, 66, 0
1, 29628, Note_off_c, 1, 69, 0
1, 29640, Note_on_c, 1, 71, 127
1, 29640, Note_on_c, 1, 67, 127
1, 29640, Note_on_c, 1, 36, 127
1, 29667, Note_off_c, 1, 67, 0
1, 29688, Note_off_c, 1, 71, 0
1, 29700, Note_on_c, 1, 72, 127
1, 29700, Note_on_c, 1, 69, 127
1, 29714, Note_off_c, 1, 69, 0
1, 29727, Note_off_c, 1, 36, 0
1, 29748, Note_off_c, 1, 72, 0
1, 29760, Note_on_c, 1, 69, 127
1, 29760, Note_on_c, 1, 66, 127
1, 29760, Note_on_c, 1, 38, 127
1, 29808, Note_off_c, 1, 69, 0
1, 29820, Note_on_c, 1, 62, 127
1, 29868, Note_off_c, 1, 62, 0
1, 29992, Note_off_c, 1, 66, 0
1, 30000, Note_on_c, 1, 74, 127
1, 30011, Note_off_c, 1, 38, 0
1, 30120, Note_on_c, 1, 42, 127
1, 30180, Note_on_c, 1, 72, 127
1, 30218, Note_off_c, 1, 72, 0
1, 30238, Note_off_c, 1, 42, 0
1, 30240, Note_on_c, 1, 71, 127
1, 30240, Note_on_c, 1, 43, 127
1, 30289, Note_off_c, 1, 71, 0
1, 30356, Note_off_c, 1, 43, 0
1, 30360, Note_on_c, 1, 45, 127
1, 30480, Note_on_c, 1, 67, 127
1, 30480, Note_on_c, 1, 47, 127
1, 30494, Note_off_c, 1, 45, 0
1, 30518, Note_off_c, 1, 67, 0
1, 30600, Note_on_c, 1, 48, 127
1, 30606, Note_off_c, 1, 47, 0
1, 30717, Note_off_c, 1, 48, 0
1, 30720, Note_on_c, 1, 50, 127
1, 30840, Note_on_c, 1, 52, 127
1, 30865, Note_off_c, 1, 50, 0
1, 30912, Note_off_c, 1, 74, 0
1, 30953, Note_off_c, 1, 52, 0
1, 30960, Note_on_c, 1, 74, 127
1, 30960, Note_on_c, 1, 54, 127
1, 31080, Note_on_c, 1, 69, 127
1, 31080, Note_on_c, 1, 50, 127
1, 31098, Note_off_c, 1, 54, 0
1, 31128, Note_off_c, 1, 69, 0
1, 31140, Note_on_c, 1, 72, 127
1, 31188, Note_off_c, 1, 72, 0
1, 31197, Note_off_c, 1, 50, 0
1, 31200, Note_on_c, 1, 71, 127
1, 31200, Note_on_c, 1, 55, 127
1, 31248, Note_off_c, 1, 71, 0
1, 31320, Note_on_c, 1, 66, 127
1, 31321, Note_off_c, 1, 55, 0
1, 31368, Note_off_c, 1, 66, 0
1, 31440, Note_on_c, 1, 67, 127
1, 31440, Note_on_c, 1, 47, 127
1, 31488, Note_off_c, 1, 67, 0
1, 31560, Note_on_c, 1, 43, 127
1, 31575, Note_off_c, 1, 47, 0
1, 31694, Note_off_c, 1, 43, 0
1, 31740, Note_on_c, 1, 62, 127
1, 31788, Note_off_c, 1, 62, 0
1, 32160, Note_on_c, 1, 52, 127
1, 32208, Note_off_c, 1, 74, 0
1, 32275, Note_off_c, 1, 52, 0
1, 32280, Note_on_c, 1, 71, 127
1, 32280, Note_on_c, 1, 76, 127
1, 32280, Note_on_c, 1, 43, 127
1, 32328, Note_off_c, 1, 71, 0
1, 32340, Note_on_c, 1, 74, 127
1, 32378, Note_off_c, 1, 76, 0
1, 32388, Note_off_c, 1, 74, 0
1, 32400, Note_on_c, 1, 72, 127
1, 32400, Note_on_c, 1, 45, 127
1, 32402, Note_off_c, 1, 43, 0
1, 32460, Note_on_c, 1, 69, 127
1, 32508, Note_off_c, 1, 69, 0
1, 32520, Note_on_c, 1, 64, 127
1, 32520, Note_on_c, 1, 48, 127
1, 32531, Note_off_c, 1, 45, 0
1, 32568, Note_off_c, 1, 64, 0
1, 32580, Note_on_c, 1, 67, 127
1, 32628, Note_off_c, 1, 67, 0
1, 32640, Note_on_c, 1, 66, 127
1, 32640, Note_on_c, 1, 50, 127
1, 32660, Note_off_c, 1, 48, 0
1, 32688, Note_off_c, 1, 72, 0
1, 32700, Note_on_c, 1, 62, 127
1, 32741, Note_off_c, 1, 66, 0
1, 32748, Note_off_c, 1, 62, 0
1, 32760, Note_on_c, 1, 38, 127
1, 32771, Note_off_c, 1, 50, 0
1, 32867, Note_off_c, 1, 38, 0
1, 32880, Note_on_c, 1, 71, 127
1, 32880, Note_on_c, 1, 43, 127
1, 32940, Note_on_c, 1, 67, 127
1, 32980, Note_off_c, 1, 67, 0
1, 33000, Note_on_c, 1, 62, 127
1, 33000, Note_on_c, 1, 47, 127
1, 33003, Note_off_c, 1, 43, 0
1, 33036, Note_off_c, 1, 62, 0
1, 33060, Note_on_c, 1, 65, 127
1, 33100, Note_off_c, 1, 65, 0
1, 33120, Note_on_c, 1, 64, 127
1, 33120, Note_on_c, 1, 48, 127
1, 33134, Note_off_c, 1, 47, 0
1, 33168, Note_off_c, 1, 71, 0
1, 33180, Note_on_c, 1, 69, 127
1, 33204, Note_off_c, 1, 64, 0
1, 33228, Note_off_c, 1, 69, 0
1, 33240, Note_on_c, 1, 76, 127
1, 33274, Note_off_c, 1, 76, 0
1, 33300, Note_on_c, 1, 74, 127
1, 33359, Note_off_c, 1, 74, 0
1, 33360, Note_on_c, 1, 72, 127
1, 33416, Note_off_c, 1, 72, 0
1, 33600, Note_on_c, 1, 66, 127
1, 33696, Note_off_c, 1, 48, 0
1, 33720, Note_on_c, 1, 50, 127
1, 33768, Note_off_c, 1, 66, 0
1, 33816, Note_off_c, 1, 50, 0
1, 33840, Note_on_c, 1, 67, 127
1, 33840, Note_on_c, 1, 47, 127
1, 33900, Note_on_c, 1, 62, 127
1, 33936, Note_off_c, 1, 47, 0
1, 33957, Note_off_c, 1, 62, 0
1, 33960, Note_on_c, 1, 60, 127
1, 33960, Note_on_c, 1, 52, 127
1, 34004, Note_off_c, 1, 60, 0
1, 34020, Note_on_c, 1, 59, 127
1, 34056, Note_off_c, 1, 52, 0
1, 34069, Note_off_c, 1, 59, 0
1, 34080, Note_on_c, 1, 64, 127
1, 34080, Note_on_c, 1, 48, 127
1, 34128, Note_off_c, 1, 64, 0
1, 34200, Note_off_c, 1, 48, 0
1, 34200, Note_on_c, 1, 45, 127
1, 34272, Note_off_c, 1, 67, 0
1, 34319, Note_off_c, 1, 45, 0
1, 34320, Note_on_c, 1, 67, 127
1, 34320, Note_on_c, 1, 57, 127
1, 34320, Note_on_c, 1, 50, 127
1, 34332, Note_off_c, 1, 67, 0
1, 34335, Note_on_c, 1, 66, 127
1, 34347, Note_off_c, 1, 66, 0
1, 34350, Note_on_c, 1, 64, 127
1, 34362, Note_off_c, 1, 64, 0
1, 34372, Note_off_c, 1, 57, 0
1, 34380, Note_on_c, 1, 59, 127
1, 34440, Note_on_c, 1, 60, 127
1, 34440, Note_on_c, 1, 38, 127
1, 34442, Note_off_c, 1, 59, 0
1, 34473, Note_off_c, 1, 50, 0
1, 34496, Note_off_c, 1, 60, 0
1, 34524, Note_off_c, 1, 38, 0
1, 34545, Note_on_c, 1, 66, 127
1, 34557, Note_off_c, 1, 66, 0
1, 34560, Note_on_c, 1, 67, 127
1, 34560, Note_on_c, 1, 59, 127
1, 34560, Note_on_c, 1, 43, 127
1, 34656, Note_off_c, 1, 67, 0
1, 34680, Note_on_c, 1, 74, 127
1, 34744, Note_off_c, 1, 59, 0
1, 34770, Note_off_c, 1, 43, 0
1, 34776, Note_off_c, 1, 74, 0
1, 34800, Note_on_c, 1, 71, 127
1, 34800, Note_on_c, 1, 55, 127
1, 34896, Note_off_c, 1, 71, 0
1, 34920, Note_on_c, 1, 76, 127
1, 35016, Note_off_c, 1, 76, 0
1, 35040, Note_on_c, 1, 73, 127
1, 35136, Note_off_c, 1, 73, 0
1, 35160, Note_on_c, 1, 69, 127
1, 35160, Note_on_c, 1, 53, 127
1, 35165, Note_off_c, 1, 55, 0
1, 35215, Note_off_c, 1, 53, 0
1, 35220, Note_on_c, 1, 52, 127
1, 35256, Note_off_c, 1, 69, 0
1, 35280, Note_on_c, 1, 74, 127
1, 35285, Note_off_c, 1, 52, 0
1, 35400, Note_on_c, 1, 58, 127
1, 35508, Note_off_c, 1, 58, 0
1, 35568, Note_off_c, 1, 74, 0
1, 35580, Note_on_c, 1, 79, 127
1, 35628, Note_off_c, 1, 79, 0
1, 35640, Note_on_c, 1, 81, 127
1, 35640, Note_on_c, 1, 52, 127
1, 35688, Note_off_c, 1, 81, 0
1, 35700, Note_on_c, 1, 82, 127
1, 35748, Note_off_c, 1, 82, 0
1, 35753, Note_off_c, 1, 52, 0
1, 35760, Note_on_c, 1, 73, 127
1, 35760, Note_on_c, 1, 57, 127
1, 35808, Note_off_c, 1, 73, 0
1, 35820, Note_on_c, 1, 82, 127
1, 35868, Note_off_c, 1, 82, 0
1, 35880, Note_on_c, 1, 81, 127
1, 35880, Note_on_c, 1, 45, 127
1, 35882, Note_off_c, 1, 57, 0
1, 35928, Note_off_c, 1, 81, 0
1, 35940, Note_on_c, 1, 79, 127
1, 35988, Note_off_c, 1, 79, 0
1, 36000, Note_on_c, 1, 77, 127
1, 36000, Note_on_c, 1, 50, 127
1, 36011, Note_off_c, 1, 45, 0
1, 36048, Note_off_c, 1, 77, 0
1, 36120, Note_on_c, 1, 69, 127
1, 36180, Note_on_c, 1, 76, 127
1, 36228, Note_off_c, 1, 76, 0
1, 36232, Note_off_c, 1, 69, 0
1, 36240, Note_on_c, 1, 74, 127
1, 36240, Note_on_c, 1, 65, 127
1, 36288, Note_off_c, 1, 74, 0
1, 36350, Note_off_c, 1, 65, 0
1, 36360, Note_on_c, 1, 70, 127
1, 36479, Note_off_c, 1, 70, 0
1, 36480, Note_on_c, 1, 68, 127
1, 36592, Note_off_c, 1, 50, 0
1, 36600, Note_on_c, 1, 64, 127
1, 36600, Note_on_c, 1, 48, 127
1, 36609, Note_off_c, 1, 68, 0
1, 36715, Note_off_c, 1, 64, 0
1, 36720, Note_on_c, 1, 72, 127
1, 36720, Note_on_c, 1, 53, 127
1, 36746, Note_off_c, 1, 48, 0
1, 36768, Note_off_c, 1, 72, 0
1, 36844, Note_off_c, 1, 53, 0
1, 36960, Note_on_c, 1, 47, 127
1, 37073, Note_off_c, 1, 47, 0
1, 37080, Note_on_c, 1, 71, 127
1, 37176, Note_off_c, 1, 71, 0
1, 37200, Note_on_c, 1, 83, 127
1, 37200, Note_on_c, 1, 68, 127
1, 37200, Note_on_c, 1, 52, 127
1, 37255, Note_off_c, 1, 68, 0
1, 37260, Note_on_c, 1, 77, 127
1, 37313, Note_off_c, 1, 52, 0
1, 37313, Note_off_c, 1, 77, 0
1, 37320, Note_on_c, 1, 76, 127
1, 37320, Note_on_c, 1, 40, 127
1, 37378, Note_off_c, 1, 76, 0
1, 37380, Note_on_c, 1, 74, 127
1, 37426, Note_off_c, 1, 74, 0
1, 37433, Note_off_c, 1, 40, 0
1, 37440, Note_on_c, 1, 72, 127
1, 37440, Note_on_c, 1, 45, 127
1, 37493, Note_off_c, 1, 72, 0
1, 37536, Note_off_c, 1, 83, 0
1, 37560, Note_on_c, 1, 81, 127
1, 37564, Note_off_c, 1, 45, 0
1, 37608, Note_off_c, 1, 81, 0
1, 37620, Note_on_c, 1, 80, 127
1, 37620, Note_on_c, 1, 71, 127
1, 37668, Note_off_c, 1, 80, 0
1, 37680, Note_on_c, 1, 69, 127
1, 37680, Note_on_c, 1, 48, 127
1, 37688, Note_off_c, 1, 71, 0
1, 37748, Note_off_c, 1, 69, 0
1, 37800, Note_on_c, 1, 53, 127
1, 37802, Note_off_c, 1, 48, 0
1, 37920, Note_on_c, 1, 51, 127
1, 37937, Note_off_c, 1, 53, 0
1, 38033, Note_off_c, 1, 51, 0
1, 38040, Note_on_c, 1, 79, 127
1, 38040, Note_on_c, 1, 47, 127
1, 38088, Note_off_c, 1, 79, 0
1, 38100, Note_on_c, 1, 78, 127
1, 38148, Note_off_c, 1, 78, 0
1, 38160, Note_on_c, 1, 67, 127
1, 38167, Note_off_c, 1, 47, 0
1, 38216, Note_off_c, 1, 67, 0
1, 38520, Note_on_c, 1, 66, 127
1, 38555, Note_off_c, 1, 66, 0
1, 38640, Note_on_c, 1, 66, 127
1, 38640, Note_on_c, 1, 78, 127
1, 38640, Note_on_c, 1, 51, 127
1, 38688, Note_off_c, 1, 66, 0
1, 38700, Note_on_c, 1, 64, 127
1, 38748, Note_off_c, 1, 64, 0
1, 38753, Note_off_c, 1, 51, 0
1, 38760, Note_on_c, 1, 63, 127
1, 38760, Note_on_c, 1, 59, 127
1, 38808, Note_off_c, 1, 63, 0
1, 38820, Note_on_c, 1, 61, 127
1, 38868, Note_off_c, 1, 61, 0
1, 38873, Note_off_c, 1, 59, 0
1, 38880, Note_on_c, 1, 55, 127
1, 39000, Note_on_c, 1, 76, 127
1, 39000, Note_on_c, 1, 60, 127
1, 39003, Note_off_c, 1, 55, 0
1, 39007, Note_off_c, 1, 78, 0
1, 39055, Note_off_c, 1, 76, 0
1, 39060, Note_on_c, 1, 75, 127
1, 39118, Note_off_c, 1, 75, 0
1, 39119, Note_off_c, 1, 60, 0
1, 39120, Note_on_c, 1, 76, 127
1, 39120, Note_on_c, 1, 57, 127
1, 39240, Note_on_c, 1, 54, 127
1, 39247, Note_off_c, 1, 57, 0
1, 39360, Note_on_c, 1, 59, 127
1, 39362, Note_off_c, 1, 54, 0
1, 39480, Note_on_c, 1, 78, 127
1, 39480, Note_on_c, 1, 74, 127
1, 39498, Note_off_c, 1, 76, 0
1, 39536, Note_off_c, 1, 74, 0
1, 39540, Note_on_c, 1, 73, 127
1, 39576, Note_off_c, 1, 78, 0
1, 39594, Note_off_c, 1, 73, 0
1, 39660, Note_on_c, 1, 72, 127
1, 39681, Note_off_c, 1, 72, 0
1, 39720, Note_on_c, 1, 79, 127
1, 39720, Note_on_c, 1, 71, 127
1, 39777, Note_off_c, 1, 71, 0
1, 39780, Note_on_c, 1, 69, 127
1, 39816, Note_off_c, 1, 79, 0
1, 39828, Note_off_c, 1, 69, 0
1, 39840, Note_on_c, 1, 67, 127
1, 39888, Note_off_c, 1, 67, 0
1, 39900, Note_on_c, 1, 66, 127
1, 39948, Note_off_c, 1, 66, 0
1, 39960, Note_on_c, 1, 64, 127
1, 40008, Note_off_c, 1, 64, 0
1, 40020, Note_on_c, 1, 62, 127
1, 40068, Note_off_c, 1, 62, 0
1, 40080, Note_on_c, 1, 60, 127
1, 40096, Note_off_c, 1, 59, 0
1, 40128, Note_off_c, 1, 60, 0
1, 40200, Note_on_c, 1, 81, 127
1, 40260, Note_on_c, 1, 55, 127
1, 40296, Note_off_c, 1, 81, 0
1, 40308, Note_off_c, 1, 55, 0
1, 40320, Note_on_c, 1, 75, 127
1, 40416, Note_off_c, 1, 75, 0
1, 40500, Note_on_c, 1, 52, 127
1, 40560, Note_off_c, 1, 52, 0
1, 41040, Note_on_c, 1, 53, 127
1, 41097, Note_off_c, 1, 53, 0
1, 41220, Note_on_c, 1, 50, 127
1, 41280, Note_on_c, 1, 68, 127
1, 41284, Note_off_c, 1, 50, 0
1, 41376, Note_off_c, 1, 68, 0
1, 41400, Note_on_c, 1, 68, 127
1, 41400, Note_on_c, 1, 64, 127
1, 41400, Note_on_c, 1, 52, 127
1, 41448, Note_off_c, 1, 68, 0
1, 41460, Note_on_c, 1, 71, 127
1, 41496, Note_off_c, 1, 64, 0
1, 41503, Note_off_c, 1, 52, 0
1, 41508, Note_off_c, 1, 71, 0
1, 41520, Note_on_c, 1, 72, 127
1, 41520, Note_on_c, 1, 69, 127
1, 41520, Note_on_c, 1, 48, 127
1, 41568, Note_off_c, 1, 72, 0
1, 41580, Note_on_c, 1, 76, 127
1, 41628, Note_off_c, 1, 76, 0
1, 41634, Note_off_c, 1, 48, 0
1, 41640, Note_on_c, 1, 53, 127
1, 41760, Note_on_c, 1, 77, 127
1, 41760, Note_on_c, 1, 50, 127
1, 41776, Note_off_c, 1, 53, 0
1, 41808, Note_off_c, 1, 77, 0
1, 41820, Note_on_c, 1, 74, 127
1, 41856, Note_off_c, 1, 69, 0
1, 41868, Note_off_c, 1, 74, 0
1, 41880, Note_on_c, 1, 67, 127
1, 41880, Note_on_c, 1, 47, 127
1, 41892, Note_off_c, 1, 50, 0
1, 41928, Note_off_c, 1, 67, 0
1, 41940, Note_on_c, 1, 65, 127
1, 41988, Note_off_c, 1, 65, 0
1, 41997, Note_off_c, 1, 47, 0
1, 42000, Note_on_c, 1, 76, 127
1, 42000, Note_on_c, 1, 67, 127
1, 42000, Note_on_c, 1, 52, 127
1, 42048, Note_off_c, 1, 76, 0
1, 42060, Note_on_c, 1, 74, 127
1, 42108, Note_off_c, 1, 74, 0
1, 42120, Note_on_c, 1, 73, 127
1, 42120, Note_on_c, 1, 55, 127
1, 42134, Note_off_c, 1, 52, 0
1, 42168, Note_off_c, 1, 73, 0
1, 42180, Note_on_c, 1, 71, 127
1, 42228, Note_off_c, 1, 71, 0
1, 42240, Note_off_c, 1, 55, 0
1, 42240, Note_on_c, 1, 69, 127
1, 42240, Note_on_c, 1, 49, 127
1, 42288, Note_off_c, 1, 67, 0
1, 42300, Note_on_c, 1, 64, 127
1, 42336, Note_off_c, 1, 69, 0
1, 42348, Note_off_c, 1, 64, 0
1, 42360, Note_on_c, 1, 81, 127
1, 42360, Note_on_c, 1, 61, 127
1, 42360, Note_on_c, 1, 45, 127
1, 42363, Note_off_c, 1, 49, 0
1, 42408, Note_off_c, 1, 61, 0
1, 42456, Note_off_c, 1, 81, 0
1, 42480, Note_off_c, 1, 45, 0
1, 42480, Note_on_c, 1, 77, 127
1, 42480, Note_on_c, 1, 65, 127
1, 42480, Note_on_c, 1, 50, 127
1, 42528, Note_off_c, 1, 65, 0
1, 42576, Note_off_c, 1, 77, 0
1, 42600, Note_on_c, 1, 82, 127
1, 42600, Note_on_c, 1, 62, 127
1, 42648, Note_off_c, 1, 62, 0
1, 42696, Note_off_c, 1, 82, 0
1, 42720, Note_on_c, 1, 79, 127
1, 42720, Note_on_c, 1, 70, 127
1, 42768, Note_off_c, 1, 70, 0
1, 42816, Note_off_c, 1, 79, 0
1, 42840, Note_on_c, 1, 48, 127
1, 42845, Note_off_c, 1, 50, 0
1, 42900, Note_on_c, 1, 46, 127
1, 42909, Note_off_c, 1, 48, 0
1, 42952, Note_off_c, 1, 46, 0
1, 42960, Note_on_c, 1, 81, 127
1, 42960, Note_on_c, 1, 64, 127
1, 42960, Note_on_c, 1, 48, 127
1, 43008, Note_off_c, 1, 64, 0
1, 43020, Note_on_c, 1, 67, 127
1, 43068, Note_off_c, 1, 67, 0
1, 43080, Note_on_c, 1, 65, 127
1, 43080, Note_on_c, 1, 45, 127
1, 43084, Note_off_c, 1, 48, 0
1, 43128, Note_off_c, 1, 65, 0
1, 43200, Note_on_c, 1, 62, 127
1, 43200, Note_on_c, 1, 46, 127
1, 43212, Note_off_c, 1, 45, 0
1, 43248, Note_off_c, 1, 81, 0
1, 43260, Note_on_c, 1, 74, 127
1, 43308, Note_off_c, 1, 74, 0
1, 43320, Note_on_c, 1, 76, 127
1, 43368, Note_off_c, 1, 76, 0
1, 43380, Note_on_c, 1, 77, 127
1, 43392, Note_off_c, 1, 62, 0
1, 43404, Note_off_c, 1, 46, 0
1, 43428, Note_off_c, 1, 77, 0
1, 43440, Note_on_c, 1, 79, 127
1, 43500, Note_on_c, 1, 52, 127
1, 43536, Note_off_c, 1, 79, 0
1, 43554, Note_off_c, 1, 52, 0
1, 43560, Note_on_c, 1, 70, 127
1, 43560, Note_on_c, 1, 50, 127
1, 43608, Note_off_c, 1, 50, 0
1, 43620, Note_on_c, 1, 52, 127
1, 43656, Note_off_c, 1, 70, 0
1, 43674, Note_off_c, 1, 52, 0
1, 43680, Note_on_c, 1, 69, 127
1, 43680, Note_on_c, 1, 49, 127
1, 43697, Note_off_c, 1, 49, 0
1, 43740, Note_on_c, 1, 52, 127
1, 43776, Note_off_c, 1, 69, 0
1, 43796, Note_off_c, 1, 52, 0
1, 43800, Note_on_c, 1, 79, 127
1, 43800, Note_on_c, 1, 45, 127
1, 43850, Note_off_c, 1, 45, 0
1, 43860, Note_on_c, 1, 49, 127
1, 43880, Note_off_c, 1, 49, 0
1, 43896, Note_off_c, 1, 79, 0
1, 43920, Note_on_c, 1, 77, 127
1, 43920, Note_on_c, 1, 41, 127
1, 43968, Note_off_c, 1, 77, 0
1, 43980, Note_on_c, 1, 76, 127
1, 44028, Note_off_c, 1, 76, 0
1, 44040, Note_on_c, 1, 50, 127
1, 44044, Note_off_c, 1, 41, 0
1, 44100, Note_on_c, 1, 79, 127
1, 44148, Note_off_c, 1, 79, 0
1, 44220, Note_on_c, 1, 74, 127
1, 44268, Note_off_c, 1, 74, 0
1, 44278, Note_off_c, 1, 50, 0
1, 44280, Note_on_c, 1, 76, 127
1, 44280, Note_on_c, 1, 69, 127
1, 44280, Note_on_c, 1, 49, 127
1, 44328, Note_off_c, 1, 76, 0
1, 44340, Note_on_c, 1, 77, 127
1, 44376, Note_off_c, 1, 69, 0
1, 44388, Note_off_c, 1, 77, 0
1, 44393, Note_off_c, 1, 49, 0
1, 44400, Note_on_c, 1, 76, 127
1, 44400, Note_on_c, 1, 65, 127
1, 44400, Note_on_c, 1, 50, 127
1, 44448, Note_off_c, 1, 76, 0
1, 44460, Note_on_c, 1, 74, 127
1, 44496, Note_off_c, 1, 65, 0
1, 44508, Note_off_c, 1, 74, 0
1, 44520, Note_off_c, 1, 50, 0
1, 44520, Note_on_c, 1, 73, 127
1, 44520, Note_on_c, 1, 70, 127
1, 44520, Note_on_c, 1, 55, 127
1, 44568, Note_off_c, 1, 73, 0
1, 44616, Note_off_c, 1, 70, 0
1, 44632, Note_off_c, 1, 55, 0
1, 44640, Note_on_c, 1, 82, 127
1, 44640, Note_on_c, 1, 67, 127
1, 44640, Note_on_c, 1, 52, 127
1, 44688, Note_off_c, 1, 82, 0
1, 44700, Note_on_c, 1, 73, 127
1, 44736, Note_off_c, 1, 67, 0
1, 44748, Note_off_c, 1, 73, 0
1, 44758, Note_off_c, 1, 52, 0
1, 44760, Note_on_c, 1, 74, 127
1, 44760, Note_on_c, 1, 64, 127
1, 44760, Note_on_c, 1, 58, 127
1, 44808, Note_off_c, 1, 74, 0
1, 44820, Note_on_c, 1, 76, 127
1, 44856, Note_off_c, 1, 64, 0
1, 44868, Note_off_c, 1, 58, 0
1, 44868, Note_off_c, 1, 76, 0
1, 44880, Note_on_c, 1, 74, 127
1, 44880, Note_on_c, 1, 69, 127
1, 44880, Note_on_c, 1, 57, 127
1, 44928, Note_off_c, 1, 74, 0
1, 44940, Note_on_c, 1, 73, 127
1, 44988, Note_off_c, 1, 73, 0
1, 44998, Note_off_c, 1, 57, 0
1, 45000, Note_on_c, 1, 71, 127
1, 45000, Note_on_c, 1, 55, 127
1, 45048, Note_off_c, 1, 71, 0
1, 45120, Note_on_c, 1, 53, 127
1, 45139, Note_off_c, 1, 55, 0
1, 45168, Note_off_c, 1, 69, 0
1, 45180, Note_on_c, 1, 72, 127
1, 45180, Note_on_c, 1, 62, 127
1, 45228, Note_off_c, 1, 72, 0
1, 45228, Note_off_c, 1, 62, 0
1, 45240, Note_on_c, 1, 70, 127
1, 45240, Note_on_c, 1, 64, 127
1, 45240, Note_on_c, 1, 50, 127
1, 45261, Note_off_c, 1, 53, 0
1, 45288, Note_off_c, 1, 70, 0
1, 45288, Note_off_c, 1, 64, 0
1, 45300, Note_on_c, 1, 65, 127
1, 45315, Note_off_c, 1, 50, 0
1, 45348, Note_off_c, 1, 65, 0
1, 45360, Note_on_c, 1, 70, 127
1, 45360, Note_on_c, 1, 67, 127
1, 45408, Note_off_c, 1, 70, 0
1, 45420, Note_on_c, 1, 74, 127
1, 45456, Note_off_c, 1, 67, 0
1, 45468, Note_off_c, 1, 74, 0
1, 45480, Note_on_c, 1, 79, 127
1, 45480, Note_on_c, 1, 58, 127
1, 45528, Note_off_c, 1, 79, 0
1, 45540, Note_on_c, 1, 76, 127
1, 45576, Note_off_c, 1, 58, 0
1, 45588, Note_off_c, 1, 76, 0
1, 45600, Note_on_c, 1, 74, 127
1, 45600, Note_on_c, 1, 57, 127
1, 45648, Note_off_c, 1, 74, 0
1, 45660, Note_on_c, 1, 73, 127
1, 45696, Note_off_c, 1, 57, 0
1, 45708, Note_off_c, 1, 73, 0
1, 45720, Note_on_c, 1, 71, 127
1, 45720, Note_on_c, 1, 67, 127
1, 45768, Note_off_c, 1, 71, 0
1, 45780, Note_on_c, 1, 69, 127
1, 45816, Note_off_c, 1, 67, 0
1, 45828, Note_off_c, 1, 69, 0
1, 45840, Note_on_c, 1, 81, 127
1, 45840, Note_on_c, 1, 67, 127
1, 45855, Note_off_c, 1, 67, 0
1, 45855, Note_on_c, 1, 65, 127
1, 45867, Note_off_c, 1, 65, 0
1, 45900, Note_on_c, 1, 64, 127
1, 45936, Note_off_c, 1, 81, 0
1, 45948, Note_off_c, 1, 64, 0
1, 45960, Note_on_c, 1, 74, 127
1, 45960, Note_on_c, 1, 65, 127
1, 46008, Note_off_c, 1, 65, 0
1, 46020, Note_on_c, 1, 67, 127
1, 46068, Note_off_c, 1, 67, 0
1, 46080, Note_on_c, 1, 64, 127
1, 46128, Note_off_c, 1, 74, 0
1, 46140, Note_on_c, 1, 73, 127
1, 46188, Note_off_c, 1, 73, 0
1, 46200, Note_on_c, 1, 71, 127
1, 46200, Note_on_c, 1, 57, 127
1, 46248, Note_off_c, 1, 71, 0
1, 46272, Note_off_c, 1, 64, 0
1, 46315, Note_off_c, 1, 57, 0
1, 46320, Note_on_c, 1, 74, 127
1, 46320, Note_on_c, 1, 53, 127
1, 46368, Note_off_c, 1, 74, 0
1, 46380, Note_on_c, 1, 69, 127
1, 46428, Note_off_c, 1, 69, 0
1, 46440, Note_on_c, 1, 65, 127
1, 46440, Note_on_c, 1, 58, 127
1, 46443, Note_off_c, 1, 53, 0
1, 46488, Note_off_c, 1, 65, 0
1, 46500, Note_on_c, 1, 62, 127
1, 46548, Note_off_c, 1, 62, 0
1, 46559, Note_off_c, 1, 58, 0
1, 46560, Note_on_c, 1, 64, 127
1, 46560, Note_on_c, 1, 55, 127
1, 46608, Note_off_c, 1, 64, 0
1, 46680, Note_on_c, 1, 72, 127
1, 46680, Note_on_c, 1, 52, 127
1, 46689, Note_off_c, 1, 55, 0
1, 46728, Note_off_c, 1, 72, 0
1, 46740, Note_on_c, 1, 71, 127
1, 46788, Note_off_c, 1, 71, 0
1, 46800, Note_on_c, 1, 57, 127
1, 46808, Note_off_c, 1, 52, 0
1, 46980, Note_on_c, 1, 60, 127
1, 47028, Note_off_c, 1, 60, 0
1, 47059, Note_off_c, 1, 57, 0
1, 47280, Note_on_c, 1, 70, 127
1, 47280, Note_on_c, 1, 50, 127
1, 47413, Note_off_c, 1, 50, 0
1, 47616, Note_off_c, 1, 70, 0
1, 47640, Note_on_c, 1, 48, 127
1, 47700, Note_on_c, 1, 67, 127
1, 47748, Note_off_c, 1, 67, 0
1, 47760, Note_off_c, 1, 48, 0
1, 48480, Note_on_c, 1, 49, 127
1, 48600, Note_on_c, 1, 45, 127
1, 48606, Note_off_c, 1, 49, 0
1, 48712, Note_off_c, 1, 45, 0
1, 49380, Note_on_c, 1, 61, 127
1, 49428, Note_off_c, 1, 61, 0
1, 49560, Note_on_c, 1, 46, 127
1, 49672, Note_off_c, 1, 46, 0
1, 49680, Note_on_c, 1, 67, 127
1, 49680, Note_on_c, 1, 52, 127
1, 49680, Note_on_c, 1, 43, 127
1, 49728, Note_off_c, 1, 67, 0
1, 49740, Note_on_c, 1, 65, 127
1, 49776, Note_off_c, 1, 52, 0
1, 49788, Note_off_c, 1, 65, 0
1, 49793, Note_off_c, 1, 43, 0
1, 49800, Note_on_c, 1, 64, 127
1, 49800, Note_on_c, 1, 61, 127
1, 49800, Note_on_c, 1, 45, 127
1, 49848, Note_off_c, 1, 64, 0
1, 49860, Note_on_c, 1, 67, 127
1, 49896, Note_off_c, 1, 61, 0
1, 49902, Note_off_c, 1, 45, 0
1, 49908, Note_off_c, 1, 67, 0
1, 49920, Note_on_c, 1, 65, 127
1, 49920, Note_on_c, 1, 62, 127
1, 49920, Note_on_c, 1, 38, 127
1, 49968, Note_off_c, 1, 65, 0
1, 50040, Note_on_c, 1, 50, 127
1, 50041, Note_off_c, 1, 38, 0
1, 50100, Note_on_c, 1, 69, 127
1, 50112, Note_off_c, 1, 62, 0
1, 50148, Note_off_c, 1, 69, 0
1, 50160, Note_on_c, 1, 74, 127
1, 50160, Note_on_c, 1, 53, 127
1, 50169, Note_off_c, 1, 50, 0
1, 50220, Note_on_c, 1, 57, 127
1, 50268, Note_off_c, 1, 57, 0
1, 50269, Note_off_c, 1, 53, 0
1, 50400, Note_on_c, 1, 58, 127
1, 50448, Note_off_c, 1, 74, 0
1, 50448, Note_off_c, 1, 58, 0
1, 50460, Note_on_c, 1, 70, 127
1, 50460, Note_on_c, 1, 55, 127
1, 50508, Note_off_c, 1, 70, 0
1, 50508, Note_off_c, 1, 55, 0
1, 50520, Note_on_c, 1, 74, 127
1, 50520, Note_on_c, 1, 58, 127
1, 50520, Note_on_c, 1, 55, 127
1, 50568, Note_off_c, 1, 74, 0
1, 50568, Note_off_c, 1, 58, 0
1, 50580, Note_on_c, 1, 79, 127
1, 50580, Note_on_c, 1, 62, 127
1, 50628, Note_off_c, 1, 79, 0
1, 50628, Note_off_c, 1, 62, 0
1, 50632, Note_off_c, 1, 55, 0
1, 50640, Note_on_c, 1, 67, 127
1, 50640, Note_on_c, 1, 58, 127
1, 50700, Note_on_c, 1, 74, 127
1, 50748, Note_off_c, 1, 74, 0
1, 50760, Note_on_c, 1, 70, 127
1, 50760, Note_on_c, 1, 55, 127
1, 50762, Note_off_c, 1, 58, 0
1, 50808, Note_off_c, 1, 70, 0
1, 50853, Note_off_c, 1, 55, 0
1, 50880, Note_on_c, 1, 76, 127
1, 50928, Note_off_c, 1, 67, 0
1, 50928, Note_off_c, 1, 76, 0
1, 50940, Note_on_c, 1, 60, 127
1, 50940, Note_on_c, 1, 64, 127
1, 50988, Note_off_c, 1, 60, 0
1, 50988, Note_off_c, 1, 64, 0
1, 51000, Note_on_c, 1, 64, 127
1, 51000, Note_on_c, 1, 67, 127
1, 51000, Note_on_c, 1, 48, 127
1, 51048, Note_off_c, 1, 64, 0
1, 51048, Note_off_c, 1, 67, 0
1, 51060, Note_on_c, 1, 72, 127
1, 51108, Note_off_c, 1, 72, 0
1, 51114, Note_off_c, 1, 48, 0
1, 51120, Note_on_c, 1, 72, 127
1, 51120, Note_on_c, 1, 60, 127
1, 51120, Note_on_c, 1, 52, 127
1, 51168, Note_off_c, 1, 60, 0
1, 51180, Note_on_c, 1, 67, 127
1, 51228, Note_off_c, 1, 67, 0
1, 51240, Note_on_c, 1, 64, 127
1, 51240, Note_on_c, 1, 48, 127
1, 51248, Note_off_c, 1, 52, 0
1, 51288, Note_off_c, 1, 64, 0
1, 51319, Note_off_c, 1, 48, 0
1, 51360, Note_on_c, 1, 69, 127
1, 51408, Note_off_c, 1, 72, 0
1, 51408, Note_off_c, 1, 69, 0
1, 51420, Note_on_c, 1, 69, 127
1, 51420, Note_on_c, 1, 53, 127
1, 51468, Note_off_c, 1, 69, 0
1, 51468, Note_off_c, 1, 53, 0
1, 51480, Note_on_c, 1, 72, 127
1, 51480, Note_on_c, 1, 57, 127
1, 51480, Note_on_c, 1, 53, 127
1, 51528, Note_off_c, 1, 72, 0
1, 51528, Note_off_c, 1, 57, 0
1, 51540, Note_on_c, 1, 77, 127
1, 51540, Note_on_c, 1, 60, 127
1, 51588, Note_off_c, 1, 77, 0
1, 51588, Note_off_c, 1, 60, 0
1, 51598, Note_off_c, 1, 53, 0
1, 51600, Note_on_c, 1, 65, 127
1, 51600, Note_on_c, 1, 57, 127
1, 51660, Note_on_c, 1, 72, 127
1, 51708, Note_off_c, 1, 72, 0
1, 51720, Note_on_c, 1, 69, 127
1, 51720, Note_on_c, 1, 53, 127
1, 51726, Note_off_c, 1, 57, 0
1, 51768, Note_off_c, 1, 69, 0
1, 51792, Note_off_c, 1, 53, 0
1, 51840, Note_on_c, 1, 74, 127
1, 51888, Note_off_c, 1, 65, 0
1, 51888, Note_off_c, 1, 74, 0
1, 51900, Note_on_c, 1, 70, 127
1, 51900, Note_on_c, 1, 62, 127
1, 51948, Note_off_c, 1, 70, 0
1, 51948, Note_off_c, 1, 62, 0
1, 51960, Note_on_c, 1, 74, 127
1, 51960, Note_on_c, 1, 65, 127
1, 51960, Note_on_c, 1, 46, 127
1, 52008, Note_off_c, 1, 74, 0
1, 52008, Note_off_c, 1, 65, 0
1, 52020, Note_on_c, 1, 77, 127
1, 52020, Note_on_c, 1, 70, 127
1, 52068, Note_off_c, 1, 77, 0
1, 52068, Note_off_c, 1, 70, 0
1, 52080, Note_on_c, 1, 82, 127
1, 52080, Note_on_c, 1, 58, 127
1, 52080, Note_on_c, 1, 50, 127
1, 52086, Note_off_c, 1, 46, 0
1, 52128, Note_off_c, 1, 58, 0
1, 52193, Note_off_c, 1, 50, 0
1, 52200, Note_on_c, 1, 62, 127
1, 52248, Note_off_c, 1, 62, 0
1, 52320, Note_on_c, 1, 67, 127
1, 52320, Note_on_c, 1, 52, 127
1, 52368, Note_off_c, 1, 82, 0
1, 52380, Note_on_c, 1, 79, 127
1, 52428, Note_off_c, 1, 79, 0
1, 52434, Note_off_c, 1, 52, 0
1, 52440, Note_on_c, 1, 76, 127
1, 52440, Note_on_c, 1, 48, 127
1, 52488, Note_off_c, 1, 76, 0
1, 52500, Note_on_c, 1, 72, 127
1, 52548, Note_off_c, 1, 72, 0
1, 52554, Note_off_c, 1, 48, 0
1, 52560, Note_on_c, 1, 81, 127
1, 52560, Note_on_c, 1, 53, 127
1, 52608, Note_off_c, 1, 67, 0
1, 52620, Note_on_c, 1, 64, 127
1, 52668, Note_off_c, 1, 64, 0
1, 52680, Note_on_c, 1, 57, 127
1, 52698, Note_off_c, 1, 53, 0
1, 52704, Note_off_c, 1, 81, 0
1, 52799, Note_off_c, 1, 57, 0
1, 52980, Note_on_c, 1, 55, 127
1, 53028, Note_off_c, 1, 55, 0
1, 53040, Note_on_c, 1, 69, 127
1, 53136, Note_off_c, 1, 69, 0
1, 54120, Note_on_c, 1, 62, 127
1, 54120, Note_on_c, 1, 60, 127
1, 54120, Note_on_c, 1, 55, 127
1, 54168, Note_off_c, 1, 60, 0
1, 54180, Note_on_c, 1, 58, 127
1, 54216, Note_off_c, 1, 62, 0
1, 54228, Note_off_c, 1, 58, 0
1, 54235, Note_off_c, 1, 55, 0
1, 54240, Note_on_c, 1, 60, 127
1, 54240, Note_on_c, 1, 67, 127
1, 54240, Note_on_c, 1, 52, 127
1, 54288, Note_off_c, 1, 67, 0
1, 54300, Note_on_c, 1, 65, 127
1, 54336, Note_off_c, 1, 60, 0
1, 54348, Note_off_c, 1, 65, 0
1, 54355, Note_off_c, 1, 52, 0
1, 54360, Note_on_c, 1, 70, 127
1, 54360, Note_on_c, 1, 64, 127
1, 54360, Note_on_c, 1, 48, 127
1, 54408, Note_off_c, 1, 64, 0
1, 54420, Note_on_c, 1, 62, 127
1, 54456, Note_off_c, 1, 70, 0
1, 54468, Note_off_c, 1, 62, 0
1, 54479, Note_off_c, 1, 48, 0
1, 54480, Note_on_c, 1, 69, 127
1, 54480, Note_on_c, 1, 60, 127
1, 54480, Note_on_c, 1, 53, 127
1, 54528, Note_off_c, 1, 69, 0
1, 54540, Note_on_c, 1, 67, 127
1, 54576, Note_off_c, 1, 60, 0
1, 54588, Note_off_c, 1, 67, 0
1, 54598, Note_off_c, 1, 53, 0
1, 54600, Note_on_c, 1, 69, 127
1, 54600, Note_on_c, 1, 65, 127
1, 54600, Note_on_c, 1, 41, 127
1, 54648, Note_off_c, 1, 69, 0
1, 54660, Note_on_c, 1, 70, 127
1, 54708, Note_off_c, 1, 70, 0
1, 54720, Note_on_c, 1, 67, 127
1, 54720, Note_on_c, 1, 48, 127
1, 54730, Note_off_c, 1, 41, 0
1, 54768, Note_off_c, 1, 65, 0
1, 54780, Note_on_c, 1, 64, 127
1, 54816, Note_off_c, 1, 67, 0
1, 54828, Note_off_c, 1, 64, 0
1, 54900, Note_on_c, 1, 62, 127
1, 54948, Note_off_c, 1, 62, 0
1, 54960, Note_on_c, 1, 72, 127
1, 55008, Note_off_c, 1, 72, 0
1, 55020, Note_on_c, 1, 74, 127
1, 55068, Note_off_c, 1, 74, 0
1, 55080, Note_on_c, 1, 76, 127
1, 55128, Note_off_c, 1, 76, 0
1, 55320, Note_on_c, 1, 58, 127
1, 55334, Note_off_c, 1, 48, 0
1, 55380, Note_off_c, 1, 58, 0
1, 55380, Note_on_c, 1, 57, 127
1, 55436, Note_off_c, 1, 57, 0
1, 55440, Note_on_c, 1, 74, 127
1, 55440, Note_on_c, 1, 67, 127
1, 55440, Note_on_c, 1, 58, 127
1, 55488, Note_off_c, 1, 74, 0
1, 55500, Note_on_c, 1, 77, 127
1, 55547, Note_off_c, 1, 58, 0
1, 55548, Note_off_c, 1, 77, 0
1, 55560, Note_on_c, 1, 76, 127
1, 55560, Note_on_c, 1, 55, 127
1, 55608, Note_off_c, 1, 76, 0
1, 55680, Note_on_c, 1, 72, 127
1, 55680, Note_on_c, 1, 57, 127
1, 55690, Note_off_c, 1, 55, 0
1, 55728, Note_off_c, 1, 67, 0
1, 55740, Note_on_c, 1, 60, 127
1, 55788, Note_off_c, 1, 60, 0
1, 55800, Note_on_c, 1, 62, 127
1, 55848, Note_off_c, 1, 62, 0
1, 55860, Note_on_c, 1, 64, 127
1, 55908, Note_off_c, 1, 64, 0
1, 55920, Note_on_c, 1, 65, 127
1, 55945, Note_off_c, 1, 57, 0
1, 55968, Note_off_c, 1, 72, 0
1, 55980, Note_on_c, 1, 69, 127
1, 56028, Note_off_c, 1, 69, 0
1, 56280, Note_on_c, 1, 70, 127
1, 56328, Note_off_c, 1, 70, 0
1, 56352, Note_off_c, 1, 65, 0
1, 56400, Note_on_c, 1, 67, 127
1, 56400, Note_on_c, 1, 65, 127
1, 56400, Note_on_c, 1, 60, 127
1, 56415, Note_off_c, 1, 65, 0
1, 56415, Note_on_c, 1, 64, 127
1, 56427, Note_off_c, 1, 64, 0
1, 56448, Note_off_c, 1, 67, 0
1, 56460, Note_on_c, 1, 72, 127
1, 56508, Note_off_c, 1, 72, 0
1, 56520, Note_on_c, 1, 70, 127
1, 56520, Note_on_c, 1, 48, 127
1, 56527, Note_off_c, 1, 60, 0
1, 56568, Note_off_c, 1, 70, 0
1, 56580, Note_on_c, 1, 62, 127
1, 56604, Note_off_c, 1, 62, 0
1, 56623, Note_off_c, 1, 48, 0
1, 56640, Note_on_c, 1, 69, 127
1, 56640, Note_on_c, 1, 65, 127
1, 56640, Note_on_c, 1, 53, 127
1, 56688, Note_off_c, 1, 65, 0
1, 56700, Note_on_c, 1, 67, 127
1, 56748, Note_off_c, 1, 67, 0
1, 56753, Note_off_c, 1, 69, 0
1, 56753, Note_off_c, 1, 53, 0
1, 56760, Note_on_c, 1, 77, 127
1, 56760, Note_on_c, 1, 65, 127
1, 56808, Note_off_c, 1, 65, 0
1, 56820, Note_on_c, 1, 67, 127
1, 56868, Note_off_c, 1, 67, 0
1, 56873, Note_off_c, 1, 77, 0
1, 56880, Note_on_c, 1, 65, 127
1, 56880, Note_on_c, 1, 69, 127
1, 56880, Note_on_c, 1, 50, 127
1, 56928, Note_off_c, 1, 69, 0
1, 56940, Note_on_c, 1, 70, 127
1, 56988, Note_off_c, 1, 70, 0
1, 56993, Note_off_c, 1, 65, 0
1, 56993, Note_off_c, 1, 50, 0
1, 57000, Note_on_c, 1, 77, 127
1, 57000, Note_on_c, 1, 69, 127
1, 57048, Note_off_c, 1, 69, 0
1, 57060, Note_on_c, 1, 70, 127
1, 57108, Note_off_c, 1, 70, 0
1, 57113, Note_off_c, 1, 77, 0
1, 57120, Note_on_c, 1, 70, 127
1, 57120, Note_on_c, 1, 67, 127
1, 57120, Note_on_c, 1, 55, 127
1, 57168, Note_off_c, 1, 67, 0
1, 57180, Note_on_c, 1, 69, 127
1, 57228, Note_off_c, 1, 69, 0
1, 57233, Note_off_c, 1, 70, 0
1, 57233, Note_off_c, 1, 55, 0
1, 57240, Note_on_c, 1, 77, 127
1, 57240, Note_on_c, 1, 67, 127
1, 57288, Note_off_c, 1, 67, 0
1, 57300, Note_on_c, 1, 69, 127
1, 57348, Note_off_c, 1, 69, 0
1, 57353, Note_off_c, 1, 77, 0
1, 57360, Note_on_c, 1, 67, 127
1, 57360, Note_on_c, 1, 70, 127
1, 57360, Note_on_c, 1, 48, 127
1, 57408, Note_off_c, 1, 70, 0
1, 57420, Note_on_c, 1, 72, 127
1, 57468, Note_off_c, 1, 72, 0
1, 57473, Note_off_c, 1, 67, 0
1, 57473, Note_off_c, 1, 48, 0
1, 57480, Note_on_c, 1, 76, 127
1, 57480, Note_on_c, 1, 70, 127
1, 57528, Note_off_c, 1, 70, 0
1, 57540, Note_on_c, 1, 72, 127
1, 57588, Note_off_c, 1, 72, 0
1, 57593, Note_off_c, 1, 76, 0
1, 57600, Note_on_c, 1, 77, 127
1, 57600, Note_on_c, 1, 69, 127
1, 57600, Note_on_c, 1, 53, 127
1, 57648, Note_off_c, 1, 77, 0
1, 57660, Note_on_c, 1, 79, 127
1, 57696, Note_off_c, 1, 69, 0
1, 57708, Note_off_c, 1, 79, 0
1, 57713, Note_off_c, 1, 53, 0
1, 57720, Note_on_c, 1, 77, 127
1, 57720, Note_on_c, 1, 65, 127
1, 57768, Note_off_c, 1, 77, 0
1, 57780, Note_on_c, 1, 79, 127
1, 57816, Note_off_c, 1, 65, 0
1, 57828, Note_off_c, 1, 79, 0
1, 57840, Note_on_c, 1, 81, 127
1, 57840, Note_on_c, 1, 53, 127
1, 57888, Note_off_c, 1, 81, 0
1, 57900, Note_on_c, 1, 82, 127
1, 57936, Note_off_c, 1, 53, 0
1, 57948, Note_off_c, 1, 82, 0
1, 57960, Note_on_c, 1, 81, 127
1, 57960, Note_on_c, 1, 65, 127
1, 58008, Note_off_c, 1, 81, 0
1, 58020, Note_on_c, 1, 82, 127
1, 58056, Note_off_c, 1, 65, 0
1, 58068, Note_off_c, 1, 82, 0
1, 58080, Note_on_c, 1, 79, 127
1, 58080, Note_on_c, 1, 58, 127
1, 58128, Note_off_c, 1, 79, 0
1, 58140, Note_on_c, 1, 81, 127
1, 58176, Note_off_c, 1, 58, 0
1, 58188, Note_off_c, 1, 81, 0
1, 58200, Note_on_c, 1, 79, 127
1, 58200, Note_on_c, 1, 65, 127
1, 58248, Note_off_c, 1, 79, 0
1, 58260, Note_on_c, 1, 81, 127
1, 58296, Note_off_c, 1, 65, 0
1, 58308, Note_off_c, 1, 81, 0
1, 58320, Note_on_c, 1, 82, 127
1, 58320, Note_on_c, 1, 55, 127
1, 58368, Note_off_c, 1, 82, 0
1, 58380, Note_on_c, 1, 84, 127
1, 58416, Note_off_c, 1, 55, 0
1, 58428, Note_off_c, 1, 84, 0
1, 58440, Note_on_c, 1, 82, 127
1, 58440, Note_on_c, 1, 64, 127
1, 58488, Note_off_c, 1, 82, 0
1, 58500, Note_on_c, 1, 84, 127
1, 58536, Note_off_c, 1, 64, 0
1, 58548, Note_off_c, 1, 84, 0
1, 58560, Note_on_c, 1, 81, 127
1, 58560, Note_on_c, 1, 65, 127
1, 58560, Note_on_c, 1, 53, 127
1, 58620, Note_on_c, 1, 55, 127
1, 58621, Note_off_c, 1, 53, 0
1, 58656, Note_off_c, 1, 81, 0
1, 58656, Note_off_c, 1, 65, 0
1, 58680, Note_on_c, 1, 77, 127
1, 58684, Note_off_c, 1, 55, 0
1, 58776, Note_off_c, 1, 77, 0
1, 58800, Note_on_c, 1, 72, 127
1, 58800, Note_on_c, 1, 57, 127
1, 58855, Note_off_c, 1, 57, 0
1, 58860, Note_on_c, 1, 58, 127
1, 58896, Note_off_c, 1, 72, 0
1, 58928, Note_off_c, 1, 58, 0
1, 59040, Note_on_c, 1, 70, 127
1, 59040, Note_on_c, 1, 74, 127
1, 59040, Note_on_c, 1, 55, 127
1, 59098, Note_off_c, 1, 55, 0
1, 59100, Note_on_c, 1, 57, 127
1, 59136, Note_off_c, 1, 70, 0
1, 59136, Note_off_c, 1, 74, 0
1, 59160, Note_on_c, 1, 77, 127
1, 59164, Note_off_c, 1, 57, 0
1, 59256, Note_off_c, 1, 77, 0
1, 59280, Note_on_c, 1, 67, 127
1, 59280, Note_on_c, 1, 76, 127
1, 59280, Note_on_c, 1, 58, 127
1, 59340, Note_on_c, 1, 60, 127
1, 59341, Note_off_c, 1, 58, 0
1, 59376, Note_off_c, 1, 67, 0
1, 59376, Note_off_c, 1, 76, 0
1, 59410, Note_off_c, 1, 60, 0
1, 59520, Note_on_c, 1, 77, 127
1, 59520, Note_on_c, 1, 57, 127
1, 59616, Note_off_c, 1, 77, 0
1, 59640, Note_on_c, 1, 72, 127
1, 59640, Note_on_c, 1, 53, 127
1, 59653, Note_off_c, 1, 57, 0
1, 59700, Note_on_c, 1, 76, 127
1, 59736, Note_off_c, 1, 72, 0
1, 59748, Note_off_c, 1, 76, 0
1, 59760, Note_on_c, 1, 74, 127
1, 59760, Note_on_c, 1, 55, 127
1, 59761, Note_off_c, 1, 53, 0
1, 59808, Note_off_c, 1, 74, 0
1, 59880, Note_on_c, 1, 70, 127
1, 59885, Note_off_c, 1, 55, 0
1, 59928, Note_off_c, 1, 70, 0
1, 59940, Note_on_c, 1, 69, 127
1, 59988, Note_off_c, 1, 69, 0
1, 60000, Note_on_c, 1, 67, 127
1, 60000, Note_on_c, 1, 58, 127
1, 60048, Note_off_c, 1, 67, 0
1, 60120, Note_on_c, 1, 50, 127
1, 60124, Note_off_c, 1, 58, 0
1, 60238, Note_off_c, 1, 50, 0
1, 60240, Note_on_c, 1, 76, 127
1, 60240, Note_on_c, 1, 70, 127
1, 60240, Note_on_c, 1, 55, 127
1, 60288, Note_off_c, 1, 70, 0
1, 60300, Note_on_c, 1, 72, 127
1, 60348, Note_off_c, 1, 72, 0
1, 60353, Note_off_c, 1, 55, 0
1, 60360, Note_on_c, 1, 52, 127
1, 60480, Note_on_c, 1, 65, 127
1, 60480, Note_on_c, 1, 57, 127
1, 60498, Note_off_c, 1, 52, 0
1, 60528, Note_off_c, 1, 65, 0
1, 60540, Note_on_c, 1, 67, 127
1, 60588, Note_off_c, 1, 67, 0
1, 60595, Note_off_c, 1, 57, 0
1, 60600, Note_on_c, 1, 48, 127
1, 60672, Note_off_c, 1, 76, 0
1, 60714, Note_off_c, 1, 48, 0
1, 60720, Note_on_c, 1, 74, 127
1, 60720, Note_on_c, 1, 69, 127
1, 60720, Note_on_c, 1, 53, 127
1, 60768, Note_off_c, 1, 69, 0
1, 60780, Note_on_c, 1, 70, 127
1, 60828, Note_off_c, 1, 70, 0
1, 60840, Note_on_c, 1, 50, 127
1, 60843, Note_off_c, 1, 53, 0
1, 60960, Note_on_c, 1, 64, 127
1, 60960, Note_on_c, 1, 55, 127
1, 60973, Note_off_c, 1, 50, 0
1, 61008, Note_off_c, 1, 64, 0
1, 61020, Note_on_c, 1, 65, 127
1, 61068, Note_off_c, 1, 65, 0
1, 61080, Note_on_c, 1, 47, 127
1, 61083, Note_off_c, 1, 55, 0
1, 61152, Note_off_c, 1, 74, 0
1, 61196, Note_off_c, 1, 47, 0
1, 61200, Note_on_c, 1, 73, 127
1, 61200, Note_on_c, 1, 67, 127
1, 61200, Note_on_c, 1, 52, 127
1, 61248, Note_off_c, 1, 67, 0
1, 61260, Note_on_c, 1, 69, 127
1, 61308, Note_off_c, 1, 69, 0
1, 61313, Note_off_c, 1, 73, 0
1, 61317, Note_off_c, 1, 52, 0
1, 61320, Note_on_c, 1, 81, 127
1, 61320, Note_on_c, 1, 67, 127
1, 61320, Note_on_c, 1, 49, 127
1, 61368, Note_off_c, 1, 67, 0
1, 61380, Note_on_c, 1, 69, 127
1, 61423, Note_off_c, 1, 49, 0
1, 61428, Note_off_c, 1, 69, 0
1, 61433, Note_off_c, 1, 81, 0
1, 61440, Note_on_c, 1, 74, 127
1, 61440, Note_on_c, 1, 65, 127
1, 61440, Note_on_c, 1, 50, 127
1, 61488, Note_off_c, 1, 74, 0
1, 61500, Note_on_c, 1, 76, 127
1, 61536, Note_off_c, 1, 65, 0
1, 61548, Note_off_c, 1, 76, 0
1, 61553, Note_off_c, 1, 50, 0
1, 61560, Note_on_c, 1, 74, 127
1, 61560, Note_on_c, 1, 69, 127
1, 61608, Note_off_c, 1, 74, 0
1, 61620, Note_on_c, 1, 76, 127
1, 61656, Note_off_c, 1, 69, 0
1, 61668, Note_off_c, 1, 76, 0
1, 61680, Note_on_c, 1, 77, 127
1, 61680, Note_on_c, 1, 62, 127
1, 61680, Note_on_c, 1, 46, 127
1, 61728, Note_off_c, 1, 77, 0
1, 61740, Note_on_c, 1, 79, 127
1, 61776, Note_off_c, 1, 62, 0
1, 61788, Note_off_c, 1, 79, 0
1, 61793, Note_off_c, 1, 46, 0
1, 61800, Note_on_c, 1, 77, 127
1, 61800, Note_on_c, 1, 74, 127
1, 61848, Note_off_c, 1, 77, 0
1, 61860, Note_on_c, 1, 79, 127
1, 61896, Note_off_c, 1, 74, 0
1, 61908, Note_off_c, 1, 79, 0
1, 61920, Note_on_c, 1, 76, 127
1, 61920, Note_on_c, 1, 70, 127
1, 61920, Note_on_c, 1, 43, 127
1, 61968, Note_off_c, 1, 76, 0
1, 61980, Note_on_c, 1, 77, 127
1, 62016, Note_off_c, 1, 70, 0
1, 62028, Note_off_c, 1, 77, 0
1, 62033, Note_off_c, 1, 43, 0
1, 62040, Note_on_c, 1, 76, 127
1, 62040, Note_on_c, 1, 74, 127
1, 62088, Note_off_c, 1, 76, 0
1, 62100, Note_on_c, 1, 77, 127
1, 62136, Note_off_c, 1, 74, 0
1, 62148, Note_off_c, 1, 77, 0
1, 62160, Note_on_c, 1, 79, 127
1, 62160, Note_on_c, 1, 64, 127
1, 62160, Note_on_c, 1, 45, 127
1, 62208, Note_off_c, 1, 79, 0
1, 62220, Note_on_c, 1, 81, 127
1, 62256, Note_off_c, 1, 64, 0
1, 62268, Note_off_c, 1, 81, 0
1, 62273, Note_off_c, 1, 45, 0
1, 62280, Note_on_c, 1, 79, 127
1, 62280, Note_on_c, 1, 73, 127
1, 62328, Note_off_c, 1, 79, 0
1, 62340, Note_on_c, 1, 81, 127
1, 62376, Note_off_c, 1, 73, 0
1, 62388, Note_off_c, 1, 81, 0
1, 62400, Note_on_c, 1, 77, 127
1, 62400, Note_on_c, 1, 62, 127
1, 62400, Note_on_c, 1, 38, 127
1, 62448, Note_off_c, 1, 77, 0
1, 62448, Note_off_c, 1, 62, 0
1, 62460, Note_on_c, 1, 79, 127
1, 62460, Note_on_c, 1, 64, 127
1, 62508, Note_off_c, 1, 79, 0
1, 62508, Note_off_c, 1, 64, 0
1, 62513, Note_off_c, 1, 38, 0
1, 62520, Note_on_c, 1, 77, 127
1, 62520, Note_on_c, 1, 62, 127
1, 62520, Note_on_c, 1, 45, 127
1, 62568, Note_off_c, 1, 77, 0
1, 62568, Note_off_c, 1, 62, 0
1, 62580, Note_on_c, 1, 79, 127
1, 62580, Note_on_c, 1, 64, 127
1, 62628, Note_off_c, 1, 79, 0
1, 62628, Note_off_c, 1, 64, 0
1, 62640, Note_on_c, 1, 81, 127
1, 62640, Note_on_c, 1, 65, 127
1, 62640, Note_on_c, 1, 50, 127
1, 62644, Note_off_c, 1, 45, 0
1, 62688, Note_off_c, 1, 81, 0
1, 62688, Note_off_c, 1, 65, 0
1, 62700, Note_on_c, 1, 82, 127
1, 62700, Note_on_c, 1, 67, 127
1, 62748, Note_off_c, 1, 82, 0
1, 62748, Note_off_c, 1, 67, 0
1, 63120, Note_on_c, 1, 76, 127
1, 63120, Note_on_c, 1, 49, 127
1, 63140, Note_off_c, 1, 50, 0
1, 63180, Note_on_c, 1, 69, 127
1, 63228, Note_off_c, 1, 69, 0
1, 63373, Note_off_c, 1, 49, 0
1, 63456, Note_off_c, 1, 76, 0
1, 63600, Note_on_c, 1, 74, 127
1, 63660, Note_on_c, 1, 55, 127
1, 63700, Note_off_c, 1, 55, 0
1, 63720, Note_on_c, 1, 53, 127
1, 63771, Note_off_c, 1, 53, 0
1, 63840, Note_on_c, 1, 52, 127
1, 63936, Note_off_c, 1, 74, 0
1, 63960, Note_on_c, 1, 72, 127
1, 64008, Note_off_c, 1, 72, 0
1, 64020, Note_on_c, 1, 70, 127
1, 64062, Note_off_c, 1, 52, 0
1, 64068, Note_off_c, 1, 70, 0
1, 64080, Note_on_c, 1, 81, 127
1, 64080, Note_on_c, 1, 72, 127
1, 64128, Note_off_c, 1, 72, 0
1, 64140, Note_on_c, 1, 69, 127
1, 64188, Note_off_c, 1, 69, 0
1, 64200, Note_on_c, 1, 62, 127
1, 64200, Note_on_c, 1, 54, 127
1, 64248, Note_off_c, 1, 62, 0
1, 64314, Note_off_c, 1, 54, 0
1, 64320, Note_on_c, 1, 70, 127
1, 64320, Note_on_c, 1, 55, 127
1, 64368, Note_off_c, 1, 81, 0
1, 64380, Note_on_c, 1, 74, 127
1, 64428, Note_off_c, 1, 74, 0
1, 64440, Note_on_c, 1, 76, 127
1, 64488, Note_off_c, 1, 76, 0
1, 64500, Note_on_c, 1, 77, 127
1, 64548, Note_off_c, 1, 77, 0
1, 64557, Note_off_c, 1, 55, 0
1, 64560, Note_on_c, 1, 79, 127
1, 64608, Note_off_c, 1, 70, 0
1, 64620, Note_on_c, 1, 67, 127
1, 64656, Note_off_c, 1, 79, 0
1, 64668, Note_off_c, 1, 67, 0
1, 64680, Note_on_c, 1, 70, 127
1, 64680, Note_on_c, 1, 64, 127
1, 64680, Note_on_c, 1, 55, 127
1, 64728, Note_off_c, 1, 64, 0
1, 64740, Note_on_c, 1, 67, 127
1, 64776, Note_off_c, 1, 70, 0
1, 64788, Note_off_c, 1, 67, 0
1, 64800, Note_on_c, 1, 69, 127
1, 64800, Note_on_c, 1, 61, 127
1, 64848, Note_off_c, 1, 61, 0
1, 64860, Note_on_c, 1, 62, 127
1, 64896, Note_off_c, 1, 69, 0
1, 64908, Note_off_c, 1, 55, 0
1, 64908, Note_off_c, 1, 62, 0
1, 64920, Note_on_c, 1, 79, 127
1, 64920, Note_on_c, 1, 64, 127
1, 64920, Note_on_c, 1, 49, 127
1, 64968, Note_off_c, 1, 64, 0
1, 64980, Note_on_c, 1, 61, 127
1, 65016, Note_off_c, 1, 79, 0
1, 65028, Note_off_c, 1, 61, 0
1, 65040, Note_on_c, 1, 57, 127
1, 65040, Note_on_c, 1, 50, 127
1, 65054, Note_off_c, 1, 49, 0
1, 65055, Note_on_c, 1, 77, 127
1, 65067, Note_off_c, 1, 77, 0
1, 65100, Note_on_c, 1, 76, 127
1, 65136, Note_off_c, 1, 57, 0
1, 65148, Note_off_c, 1, 76, 0
1, 65153, Note_off_c, 1, 50, 0
1, 65160, Note_on_c, 1, 77, 127
1, 65160, Note_on_c, 1, 74, 127
1, 65160, Note_on_c, 1, 44, 127
1, 65208, Note_off_c, 1, 77, 0
1, 65220, Note_on_c, 1, 79, 127
1, 65268, Note_off_c, 1, 79, 0
1, 65277, Note_off_c, 1, 44, 0
1, 65280, Note_on_c, 1, 76, 127
1, 65280, Note_on_c, 1, 45, 127
1, 65328, Note_off_c, 1, 74, 0
1, 65340, Note_on_c, 1, 72, 127
1, 65376, Note_off_c, 1, 76, 0
1, 65388, Note_off_c, 1, 72, 0
1, 65400, Note_on_c, 1, 78, 127
1, 65448, Note_off_c, 1, 78, 0
1, 65460, Note_on_c, 1, 80, 127
1, 65460, Note_on_c, 1, 71, 127
1, 65508, Note_off_c, 1, 80, 0
1, 65508, Note_off_c, 1, 71, 0
1, 65520, Note_on_c, 1, 81, 127
1, 65568, Note_off_c, 1, 81, 0
1, 65580, Note_on_c, 1, 83, 127
1, 65628, Note_off_c, 1, 83, 0
1, 65640, Note_on_c, 1, 84, 127
1, 65688, Note_off_c, 1, 84, 0
1, 65856, Note_off_c, 1, 45, 0
1, 65880, Note_on_c, 1, 83, 127
1, 65880, Note_on_c, 1, 71, 127
1, 65880, Note_on_c, 1, 55, 127
1, 65928, Note_off_c, 1, 83, 0
1, 65940, Note_on_c, 1, 84, 127
1, 65940, Note_on_c, 1, 53, 127
1, 65946, Note_off_c, 1, 55, 0
1, 65976, Note_off_c, 1, 71, 0
1, 65988, Note_off_c, 1, 84, 0
1, 66000, Note_on_c, 1, 76, 127
1, 66007, Note_off_c, 1, 53, 0
1, 66120, Note_on_c, 1, 78, 127
1, 66120, Note_on_c, 1, 52, 127
1, 66168, Note_off_c, 1, 78, 0
1, 66180, Note_on_c, 1, 80, 127
1, 66217, Note_off_c, 1, 52, 0
1, 66228, Note_off_c, 1, 80, 0
1, 66240, Note_on_c, 1, 81, 127
1, 66288, Note_off_c, 1, 76, 0
1, 66300, Note_on_c, 1, 69, 127
1, 66348, Note_off_c, 1, 69, 0
1, 66420, Note_on_c, 1, 72, 127
1, 66468, Note_off_c, 1, 72, 0
1, 66480, Note_on_c, 1, 74, 127
1, 66528, Note_off_c, 1, 81, 0
1, 66540, Note_on_c, 1, 77, 127
1, 66576, Note_off_c, 1, 74, 0
1, 66588, Note_off_c, 1, 77, 0
1, 66600, Note_on_c, 1, 76, 127
1, 66600, Note_on_c, 1, 65, 127
1, 66600, Note_on_c, 1, 59, 127
1, 66648, Note_off_c, 1, 76, 0
1, 66660, Note_on_c, 1, 74, 127
1, 66696, Note_off_c, 1, 65, 0
1, 66708, Note_off_c, 1, 74, 0
1, 66709, Note_off_c, 1, 59, 0
1, 66720, Note_on_c, 1, 83, 127
1, 66720, Note_on_c, 1, 64, 127
1, 66720, Note_on_c, 1, 56, 127
1, 66768, Note_off_c, 1, 83, 0
1, 66780, Note_on_c, 1, 81, 127
1, 66816, Note_off_c, 1, 64, 0
1, 66828, Note_off_c, 1, 81, 0
1, 66830, Note_off_c, 1, 56, 0
1, 66840, Note_on_c, 1, 80, 127
1, 66840, Note_on_c, 1, 74, 127
1, 66840, Note_on_c, 1, 52, 127
1, 66888, Note_off_c, 1, 80, 0
1, 66900, Note_on_c, 1, 78, 127
1, 66936, Note_off_c, 1, 74, 0
1, 66948, Note_off_c, 1, 78, 0
1, 66958, Note_off_c, 1, 52, 0
1, 66960, Note_on_c, 1, 76, 127
1, 66960, Note_on_c, 1, 72, 127
1, 66960, Note_on_c, 1, 57, 127
1, 67008, Note_off_c, 1, 72, 0
1, 67020, Note_on_c, 1, 71, 127
1, 67056, Note_off_c, 1, 76, 0
1, 67068, Note_off_c, 1, 71, 0
1, 67080, Note_off_c, 1, 57, 0
1, 67080, Note_on_c, 1, 81, 127
1, 67080, Note_on_c, 1, 45, 127
1, 67140, Note_on_c, 1, 74, 127
1, 67188, Note_off_c, 1, 74, 0
1, 67200, Note_on_c, 1, 40, 127
1, 67201, Note_off_c, 1, 45, 0
1, 67248, Note_off_c, 1, 81, 0
1, 67260, Note_on_c, 1, 80, 127
1, 67306, Note_off_c, 1, 40, 0
1, 67308, Note_off_c, 1, 80, 0
1, 67320, Note_on_c, 1, 78, 127
1, 67320, Note_on_c, 1, 52, 127
1, 67368, Note_off_c, 1, 78, 0
1, 67437, Note_off_c, 1, 52, 0
1, 67440, Note_on_c, 1, 81, 127
1, 67440, Note_on_c, 1, 48, 127
1, 67500, Note_on_c, 1, 74, 127
1, 67548, Note_off_c, 1, 74, 0
1, 67560, Note_off_c, 1, 48, 0
1, 67560, Note_on_c, 1, 72, 127
1, 67560, Note_on_c, 1, 53, 127
1, 67608, Note_off_c, 1, 72, 0
1, 67620, Note_on_c, 1, 71, 127
1, 67668, Note_off_c, 1, 71, 0
1, 67680, Note_on_c, 1, 50, 127
1, 67683, Note_off_c, 1, 53, 0
1, 67800, Note_on_c, 1, 47, 127
1, 67804, Note_off_c, 1, 50, 0
1, 67872, Note_off_c, 1, 81, 0
1, 67920, Note_on_c, 1, 79, 127
1, 67920, Note_on_c, 1, 52, 127
1, 67924, Note_off_c, 1, 47, 0
1, 67980, Note_on_c, 1, 76, 127
1, 68028, Note_off_c, 1, 76, 0
1, 68180, Note_off_c, 1, 52, 0
1, 68220, Note_on_c, 1, 73, 127
1, 68268, Note_off_c, 1, 73, 0
1, 68280, Note_on_c, 1, 57, 127
1, 68340, Note_on_c, 1, 69, 127
1, 68352, Note_off_c, 1, 79, 0
1, 68388, Note_off_c, 1, 69, 0
1, 68399, Note_off_c, 1, 57, 0
1, 68400, Note_on_c, 1, 74, 127
1, 68400, Note_on_c, 1, 53, 127
1, 68460, Note_on_c, 1, 81, 127
1, 68508, Note_off_c, 1, 81, 0
1, 68520, Note_on_c, 1, 79, 127
1, 68520, Note_on_c, 1, 58, 127
1, 68537, Note_off_c, 1, 53, 0
1, 68568, Note_off_c, 1, 79, 0
1, 68580, Note_on_c, 1, 77, 127
1, 68628, Note_off_c, 1, 77, 0
1, 68640, Note_on_c, 1, 76, 127
1, 68640, Note_on_c, 1, 55, 127
1, 68641, Note_off_c, 1, 58, 0
1, 68688, Note_off_c, 1, 76, 0
1, 68759, Note_off_c, 1, 55, 0
1, 68760, Note_on_c, 1, 52, 127
1, 68832, Note_off_c, 1, 74, 0
1, 68880, Note_on_c, 1, 72, 127
1, 68880, Note_on_c, 1, 57, 127
1, 68887, Note_off_c, 1, 52, 0
1, 69105, Note_off_c, 1, 57, 0
1, 69180, Note_on_c, 1, 78, 127
1, 69228, Note_off_c, 1, 78, 0
1, 69240, Note_on_c, 1, 50, 127
1, 69312, Note_off_c, 1, 72, 0
1, 69360, Note_on_c, 1, 47, 127
1, 69364, Note_off_c, 1, 50, 0
1, 69482, Note_off_c, 1, 47, 0
1, 69540, Note_on_c, 1, 71, 127
1, 69588, Note_off_c, 1, 71, 0
1, 69600, Note_on_c, 1, 69, 127
1, 69600, Note_on_c, 1, 48, 127
1, 69648, Note_off_c, 1, 69, 0
1, 69718, Note_off_c, 1, 48, 0
1, 69720, Note_on_c, 1, 45, 127
1, 69841, Note_off_c, 1, 45, 0
1, 70260, Note_on_c, 1, 67, 127
1, 70308, Note_off_c, 1, 67, 0
1, 70320, Note_on_c, 1, 72, 127
1, 70320, Note_on_c, 1, 52, 127
1, 70380, Note_on_c, 1, 79, 127
1, 70428, Note_off_c, 1, 79, 0
1, 70440, Note_on_c, 1, 77, 127
1, 70440, Note_on_c, 1, 57, 127
1, 70448, Note_off_c, 1, 52, 0
1, 70488, Note_off_c, 1, 77, 0
1, 70500, Note_on_c, 1, 76, 127
1, 70548, Note_off_c, 1, 76, 0
1, 70554, Note_off_c, 1, 57, 0
1, 70560, Note_on_c, 1, 74, 127
1, 70560, Note_on_c, 1, 53, 127
1, 70608, Note_off_c, 1, 74, 0
1, 70680, Note_on_c, 1, 50, 127
1, 70686, Note_off_c, 1, 53, 0
1, 70752, Note_off_c, 1, 72, 0
1, 70800, Note_on_c, 1, 71, 127
1, 70800, Note_on_c, 1, 55, 127
1, 70808, Note_off_c, 1, 50, 0
1, 70920, Note_off_c, 1, 55, 0
1, 70920, Note_on_c, 1, 43, 127
1, 70992, Note_off_c, 1, 71, 0
1, 71040, Note_on_c, 1, 48, 127
1, 71046, Note_off_c, 1, 43, 0
1, 71160, Note_on_c, 1, 67, 127
1, 71256, Note_off_c, 1, 67, 0
1, 71277, Note_off_c, 1, 48, 0
1, 71280, Note_on_c, 1, 64, 127
1, 71376, Note_off_c, 1, 64, 0
1, 71400, Note_on_c, 1, 72, 127
1, 71400, Note_on_c, 1, 69, 127
1, 71496, Note_off_c, 1, 72, 0
1, 71496, Note_off_c, 1, 69, 0
1, 71520, Note_on_c, 1, 69, 127
1, 71520, Note_on_c, 1, 65, 127
1, 71616, Note_off_c, 1, 69, 0
1, 71616, Note_off_c, 1, 65, 0
1, 71640, Note_on_c, 1, 74, 127
1, 71640, Note_on_c, 1, 62, 127
1, 71736, Note_off_c, 1, 74, 0
1, 71736, Note_off_c, 1, 62, 0
1, 71760, Note_on_c, 1, 71, 127
1, 71760, Note_on_c, 1, 67, 127
1, 71856, Note_off_c, 1, 71, 0
1, 71880, Note_on_c, 1, 55, 127
1, 72000, Note_on_c, 1, 72, 127
1, 72000, Note_on_c, 1, 52, 127
1, 72009, Note_off_c, 1, 55, 0
1, 72048, Note_off_c, 1, 67, 0
1, 72060, Note_on_c, 1, 60, 127
1, 72108, Note_off_c, 1, 60, 0
1, 72119, Note_off_c, 1, 52, 0
1, 72120, Note_on_c, 1, 62, 127
1, 72120, Note_on_c, 1, 57, 127
1, 72168, Note_off_c, 1, 62, 0
1, 72180, Note_on_c, 1, 64, 127
1, 72228, Note_off_c, 1, 64, 0
1, 72236, Note_off_c, 1, 57, 0
1, 72240, Note_on_c, 1, 65, 127
1, 72240, Note_on_c, 1, 53, 127
1, 72288, Note_off_c, 1, 72, 0
1, 72300, Note_on_c, 1, 77, 127
1, 72348, Note_off_c, 1, 77, 0
1, 72360, Note_on_c, 1, 79, 127
1, 72360, Note_on_c, 1, 50, 127
1, 72373, Note_off_c, 1, 53, 0
1, 72408, Note_off_c, 1, 79, 0
1, 72420, Note_on_c, 1, 81, 127
1, 72468, Note_off_c, 1, 81, 0
1, 72489, Note_off_c, 1, 50, 0
1, 72528, Note_off_c, 1, 65, 0
1, 72540, Note_on_c, 1, 74, 127
1, 72540, Note_on_c, 1, 59, 127
1, 72588, Note_off_c, 1, 74, 0
1, 72588, Note_off_c, 1, 59, 0
1, 72600, Note_on_c, 1, 76, 127
1, 72600, Note_on_c, 1, 47, 127
1, 72648, Note_off_c, 1, 76, 0
1, 72710, Note_off_c, 1, 47, 0
1, 72720, Note_on_c, 1, 67, 127
1, 72720, Note_on_c, 1, 64, 127
1, 72720, Note_on_c, 1, 48, 127
1, 72768, Note_off_c, 1, 67, 0
1, 72768, Note_off_c, 1, 64, 0
1, 72780, Note_on_c, 1, 71, 127
1, 72780, Note_on_c, 1, 62, 127
1, 72828, Note_off_c, 1, 71, 0
1, 72828, Note_off_c, 1, 62, 0
1, 72838, Note_off_c, 1, 48, 0
1, 72840, Note_on_c, 1, 72, 127
1, 72840, Note_on_c, 1, 64, 127
1, 72840, Note_on_c, 1, 42, 127
1, 72888, Note_off_c, 1, 72, 0
1, 72888, Note_off_c, 1, 64, 0
1, 72900, Note_on_c, 1, 74, 127
1, 72900, Note_on_c, 1, 65, 127
1, 72948, Note_off_c, 1, 74, 0
1, 72948, Note_off_c, 1, 65, 0
1, 72960, Note_on_c, 1, 71, 127
1, 72960, Note_on_c, 1, 62, 127
1, 72960, Note_on_c, 1, 43, 127
1, 72989, Note_off_c, 1, 42, 0
1, 73008, Note_off_c, 1, 62, 0
1, 73020, Note_on_c, 1, 55, 127
1, 73068, Note_off_c, 1, 55, 0
1, 73080, Note_on_c, 1, 59, 127
1, 73128, Note_off_c, 1, 59, 0
1, 73152, Note_off_c, 1, 71, 0
1, 73200, Note_on_c, 1, 67, 127
1, 73201, Note_off_c, 1, 43, 0
1, 73260, Note_on_c, 1, 79, 127
1, 73308, Note_off_c, 1, 79, 0
1, 73320, Note_on_c, 1, 47, 127
1, 73380, Note_on_c, 1, 77, 127
1, 73428, Note_off_c, 1, 77, 0
1, 73435, Note_off_c, 1, 47, 0
1, 73440, Note_on_c, 1, 76, 127
1, 73440, Note_on_c, 1, 48, 127
1, 73488, Note_off_c, 1, 76, 0
1, 73557, Note_off_c, 1, 48, 0
1, 73560, Note_on_c, 1, 50, 127
1, 73674, Note_off_c, 1, 50, 0
1, 73680, Note_on_c, 1, 52, 127
1, 73800, Note_off_c, 1, 52, 0
1, 73800, Note_on_c, 1, 53, 127
1, 73932, Note_off_c, 1, 53, 0
1, 74040, Note_on_c, 1, 57, 127
1, 74112, Note_off_c, 1, 67, 0
1, 74164, Note_off_c, 1, 57, 0
1, 74400, Note_on_c, 1, 60, 127
1, 74534, Note_off_c, 1, 60, 0
1, 75480, Note_on_c, 1, 81, 127
1, 75576, Note_off_c, 1, 81, 0
1, 75600, Note_on_c, 1, 65, 127
1, 75600, Note_on_c, 1, 50, 127
1, 75660, Note_on_c, 1, 74, 127
1, 75708, Note_off_c, 1, 74, 0
1, 75720, Note_on_c, 1, 69, 127
1, 75720, Note_on_c, 1, 53, 127
1, 75728, Note_off_c, 1, 50, 0
1, 75768, Note_off_c, 1, 69, 0
1, 75780, Note_on_c, 1, 72, 127
1, 75828, Note_off_c, 1, 72, 0
1, 75840, Note_on_c, 1, 71, 127
1, 75840, Note_on_c, 1, 55, 127
1, 75842, Note_off_c, 1, 53, 0
1, 75888, Note_off_c, 1, 65, 0
1, 75936, Note_off_c, 1, 71, 0
1, 75960, Note_on_c, 1, 79, 127
1, 75960, Note_on_c, 1, 59, 127
1, 75960, Note_on_c, 1, 47, 127
1, 75968, Note_off_c, 1, 55, 0
1, 76008, Note_off_c, 1, 59, 0
1, 76020, Note_on_c, 1, 62, 127
1, 76056, Note_off_c, 1, 79, 0
1, 76068, Note_off_c, 1, 62, 0
1, 76076, Note_off_c, 1, 47, 0
1, 76080, Note_on_c, 1, 64, 127
1, 76080, Note_on_c, 1, 48, 127
1, 76140, Note_on_c, 1, 72, 127
1, 76188, Note_off_c, 1, 72, 0
1, 76200, Note_on_c, 1, 67, 127
1, 76200, Note_on_c, 1, 52, 127
1, 76207, Note_off_c, 1, 48, 0
1, 76248, Note_off_c, 1, 67, 0
1, 76260, Note_on_c, 1, 70, 127
1, 76308, Note_off_c, 1, 70, 0
1, 76320, Note_on_c, 1, 69, 127
1, 76320, Note_on_c, 1, 53, 127
1, 76329, Note_off_c, 1, 52, 0
1, 76368, Note_off_c, 1, 64, 0
1, 76380, Note_on_c, 1, 62, 127
1, 76416, Note_off_c, 1, 69, 0
1, 76428, Note_off_c, 1, 62, 0
1, 76440, Note_on_c, 1, 81, 127
1, 76440, Note_on_c, 1, 60, 127
1, 76488, Note_off_c, 1, 81, 0
1, 76488, Note_off_c, 1, 60, 0
1, 76500, Note_on_c, 1, 79, 127
1, 76548, Note_off_c, 1, 79, 0
1, 76560, Note_on_c, 1, 77, 127
1, 76608, Note_off_c, 1, 77, 0
1, 76620, Note_on_c, 1, 76, 127
1, 76668, Note_off_c, 1, 76, 0
1, 76680, Note_on_c, 1, 74, 127
1, 76728, Note_off_c, 1, 74, 0
1, 76800, Note_on_c, 1, 71, 127
1, 76896, Note_off_c, 1, 71, 0
1, 76920, Note_on_c, 1, 55, 127
1, 76924, Note_off_c, 1, 53, 0
1, 77057, Note_off_c, 1, 55, 0
1, 77100, Note_on_c, 1, 65, 127
1, 77148, Note_off_c, 1, 65, 0
1, 77160, Note_on_c, 1, 57, 127
1, 77285, Note_off_c, 1, 57, 0
1, 77400, Note_on_c, 1, 50, 127
1, 77528, Note_off_c, 1, 50, 0
1, 77640, Note_on_c, 1, 43, 127
1, 77760, Note_on_c, 1, 36, 127
1, 77781, Note_off_c, 1, 43, 0
1, 78210, Note_off_c, 1, 36, 0
1, 78210, End_track
0, 0, End_of_file