0, 0, Header, 1, 1, 480
1, 0, Start_track
1, 0, Title_t, "Test"
1, 0, Tempo, 500000
1, 0, Instrument_name_t, "Church Organ"
1, 0, Note_on_c, 1, 67, 127
1, 0, Note_on_c, 1, 43, 127
1, 192, Note_off_c, 1, 43, 0
1, 240, Note_on_c, 1, 55, 127
1, 297, Note_off_c, 1, 67, 0
1, 300, Note_on_c, 1, 66, 127
1, 357, Note_off_c, 1, 66, 0
1, 360, Note_on_c, 1, 64, 127
1, 417, Note_off_c, 1, 64, 0
1, 420, Note_on_c, 1, 69, 127
1, 477, Note_off_c, 1, 69, 0
1, 480, Note_on_c, 1, 62, 127
1, 576, Note_off_c, 1, 62, 0
1, 624, Note_off_c, 1, 55, 0
1, 630, Note_on_c, 1, 71, 127
1, 654, Note_off_c, 1, 71, 0
1, 660, Note_on_c, 1, 72, 127
1, 708, Note_off_c, 1, 72, 0
1, 720, Note_on_c, 1, 71, 127
1, 720, Note_on_c, 1, 54, 127
1, 810, Note_off_c, 1, 71, 0
1, 840, Note_on_c, 1, 69, 127
1, 912, Note_off_c, 1, 54, 0
1, 930, Note_off_c, 1, 69, 0
1, 960, Note_on_c, 1, 71, 127
1, 960, Note_on_c, 1, 55, 127
1, 1008, Note_off_c, 1, 71, 0
1, 1020, Note_on_c, 1, 67, 127
1, 1068, Note_off_c, 1, 67, 0
1, 1140, Note_on_c, 1, 74, 127
1, 1152, Note_off_c, 1, 55, 0
1, 1188, Note_off_c, 1, 74, 0
1, 1200, Note_on_c, 1, 72, 127
1, 1290, Note_off_c, 1, 72, 0
1, 1320, Note_on_c, 1, 71, 127
1, 1320, Note_on_c, 1, 43, 127
1, 1410, Note_off_c, 1, 71, 0
1, 1416, Note_off_c, 1, 43, 0
1, 1440, Note_on_c, 1, 74, 127
1, 1440, Note_on_c, 1, 69, 127
1, 1440, Note_on_c, 1, 50, 127
1, 1536, Note_off_c, 1, 69, 0
1, 1536, Note_off_c, 1, 50, 0
1, 1560, Note_on_c, 1, 62, 127
1, 1560, Note_on_c, 1, 52, 127
1, 1656, Note_off_c, 1, 62, 0
1, 1656, Note_off_c, 1, 52, 0
1, 1680, Note_on_c, 1, 54, 127
1, 1740, Note_on_c, 1, 73, 127
1, 1776, Note_off_c, 1, 54, 0
1, 1788, Note_off_c, 1, 73, 0
1, 1800, Note_on_c, 1, 71, 127
1, 1800, Note_on_c, 1, 55, 127
1, 1848, Note_off_c, 1, 71, 0
1, 1860, Note_on_c, 1, 76, 127
1, 1896, Note_off_c, 1, 55, 0
1, 1908, Note_off_c, 1, 76, 0
1, 1920, Note_on_c, 1, 57, 127
1, 2016, Note_off_c, 1, 74, 0
1, 2016, Note_off_c, 1, 57, 0
1, 2040, Note_on_c, 1, 76, 127
1, 2040, Note_on_c, 1, 73, 127
1, 2040, Note_on_c, 1, 59, 127
1, 2064, Note_off_c, 1, 76, 0
1, 2070, Note_on_c, 1, 78, 127
1, 2088, Note_off_c, 1, 73, 0
1, 2094, Note_off_c, 1, 78, 0
1, 2100, Note_on_c, 1, 79, 127
1, 2100, Note_on_c, 1, 71, 127
1, 2136, Note_off_c, 1, 59, 0
1, 2148, Note_off_c, 1, 79, 0
1, 2148, Note_off_c, 1, 71, 0
1, 2160, Note_on_c, 1, 78, 127
1, 2160, Note_on_c, 1, 73, 127
1, 2160, Note_on_c, 1, 57, 127
1, 2250, Note_off_c, 1, 78, 0
1, 2256, Note_off_c, 1, 57, 0
1, 2280, Note_on_c, 1, 76, 127
1, 2280, Note_on_c, 1, 55, 127
1, 2304, Note_off_c, 1, 73, 0
1, 2340, Note_on_c, 1, 71, 127
1, 2364, Note_off_c, 1, 71, 0
1, 2370, Note_off_c, 1, 76, 0
1, 2376, Note_off_c, 1, 55, 0
1, 2400, Note_on_c, 1, 78, 127
1, 2400, Note_on_c, 1, 74, 127
1, 2400, Note_on_c, 1, 54, 127
1, 2448, Note_off_c, 1, 78, 0
1, 2496, Note_off_c, 1, 54, 0
1, 2520, Note_on_c, 1, 57, 127
1, 2580, Note_on_c, 1, 81, 127
1, 2592, Note_off_c, 1, 74, 0
1, 2616, Note_off_c, 1, 57, 0
1, 2628, Note_off_c, 1, 81, 0
1, 2640, Note_on_c, 1, 79, 127
1, 2640, Note_on_c, 1, 49, 127
1, 2730, Note_off_c, 1, 79, 0
1, 2736, Note_off_c, 1, 49, 0
1, 2760, Note_on_c, 1, 78, 127
1, 2760, Note_on_c, 1, 74, 127
1, 2760, Note_on_c, 1, 50, 127
1, 2850, Note_off_c, 1, 78, 0
1, 2856, Note_off_c, 1, 74, 0
1, 2856, Note_off_c, 1, 50, 0
1, 2880, Note_on_c, 1, 76, 127
1, 2880, Note_on_c, 1, 73, 127
1, 2880, Note_on_c, 1, 45, 127
1, 2928, Note_off_c, 1, 73, 0
1, 2940, Note_on_c, 1, 69, 127
1, 2976, Note_off_c, 1, 76, 0
1, 2976, Note_off_c, 1, 45, 0
1, 2988, Note_off_c, 1, 69, 0
1, 3000, Note_on_c, 1, 69, 127
1, 3000, Note_on_c, 1, 73, 127
1, 3000, Note_on_c, 1, 57, 127
1, 3048, Note_off_c, 1, 73, 0
1, 3060, Note_on_c, 1, 76, 127
1, 3096, Note_off_c, 1, 69, 0
1, 3096, Note_off_c, 1, 57, 0
1, 3108, Note_off_c, 1, 76, 0
1, 3120, Note_on_c, 1, 79, 127
1, 3120, Note_on_c, 1, 49, 127
1, 3168, Note_off_c, 1, 79, 0
1, 3180, Note_on_c, 1, 69, 127
1, 3180, Note_on_c, 1, 78, 127
1, 3216, Note_off_c, 1, 49, 0
1, 3228, Note_off_c, 1, 69, 0
1, 3228, Note_off_c, 1, 78, 0
1, 3240, Note_on_c, 1, 73, 127
1, 3240, Note_on_c, 1, 79, 127
1, 3240, Note_on_c, 1, 52, 127
1, 3288, Note_off_c, 1, 73, 0
1, 3300, Note_on_c, 1, 76, 127
1, 3336, Note_off_c, 1, 79, 0
1, 3336, Note_off_c, 1, 52, 0
1, 3348, Note_off_c, 1, 76, 0
1, 3360, Note_on_c, 1, 79, 127
1, 3360, Note_on_c, 1, 45, 127
1, 3408, Note_off_c, 1, 79, 0
1, 3420, Note_on_c, 1, 78, 127
1, 3420, Note_on_c, 1, 69, 127
1, 3456, Note_off_c, 1, 45, 0
1, 3468, Note_off_c, 1, 78, 0
1, 3468, Note_off_c, 1, 69, 0
1, 3480, Note_on_c, 1, 79, 127
1, 3480, Note_on_c, 1, 73, 127
1, 3480, Note_on_c, 1, 57, 127
1, 3528, Note_off_c, 1, 73, 0
1, 3540, Note_on_c, 1, 76, 127
1, 3576, Note_off_c, 1, 79, 0
1, 3576, Note_off_c, 1, 57, 0
1, 3588, Note_off_c, 1, 76, 0
1, 3600, Note_on_c, 1, 79, 127
1, 3600, Note_on_c, 1, 49, 127
1, 3648, Note_off_c, 1, 79, 0
1, 3660, Note_on_c, 1, 69, 127
1, 3660, Note_on_c, 1, 78, 127
1, 3696, Note_off_c, 1, 49, 0
1, 3708, Note_off_c, 1, 69, 0
1, 3708, Note_off_c, 1, 78, 0
1, 3720, Note_on_c, 1, 73, 127
1, 3720, Note_on_c, 1, 79, 127
1, 3720, Note_on_c, 1, 52, 127
1, 3768, Note_off_c, 1, 73, 0
1, 3780, Note_on_c, 1, 76, 127
1, 3816, Note_off_c, 1, 79, 0
1, 3816, Note_off_c, 1, 52, 0
1, 3828, Note_off_c, 1, 76, 0
1, 3840, Note_on_c, 1, 79, 127
1, 3840, Note_on_c, 1, 45, 127
1, 3888, Note_off_c, 1, 79, 0
1, 3900, Note_on_c, 1, 78, 127
1, 3900, Note_on_c, 1, 69, 127
1, 3936, Note_off_c, 1, 45, 0
1, 3948, Note_off_c, 1, 78, 0
1, 3948, Note_off_c, 1, 69, 0
1, 3960, Note_on_c, 1, 79, 127
1, 3960, Note_on_c, 1, 73, 127
1, 3960, Note_on_c, 1, 57, 127
1, 4008, Note_off_c, 1, 73, 0
1, 4020, Note_on_c, 1, 76, 127
1, 4056, Note_off_c, 1, 79, 0
1, 4056, Note_off_c, 1, 57, 0
1, 4068, Note_off_c, 1, 76, 0
1, 4080, Note_on_c, 1, 79, 127
1, 4080, Note_on_c, 1, 49, 127
1, 4128, Note_off_c, 1, 79, 0
1, 4140, Note_on_c, 1, 78, 127
1, 4176, Note_off_c, 1, 49, 0
1, 4188, Note_off_c, 1, 78, 0
1, 4200, Note_on_c, 1, 76, 127
1, 4200, Note_on_c, 1, 52, 127
1, 4248, Note_off_c, 1, 76, 0
1, 4260, Note_on_c, 1, 74, 127
1, 4296, Note_off_c, 1, 52, 0
1, 4308, Note_off_c, 1, 74, 0
1, 4320, Note_on_c, 1, 73, 127
1, 4320, Note_on_c, 1, 45, 127
1, 4368, Note_off_c, 1, 73, 0
1, 4380, Note_on_c, 1, 69, 127
1, 4416, Note_off_c, 1, 45, 0
1, 4428, Note_off_c, 1, 69, 0
1, 4440, Note_on_c, 1, 73, 127
1, 4440, Note_on_c, 1, 55, 127
1, 4488, Note_off_c, 1, 73, 0
1, 4500, Note_on_c, 1, 76, 127
1, 4536, Note_off_c, 1, 55, 0
1, 4548, Note_off_c, 1, 76, 0
1, 4560, Note_on_c, 1, 81, 127
1, 4560, Note_on_c, 1, 54, 127
1, 4608, Note_off_c, 1, 81, 0
1, 4620, Note_on_c, 1, 79, 127
1, 4656, Note_off_c, 1, 54, 0
1, 4668, Note_off_c, 1, 79, 0
1, 4680, Note_on_c, 1, 73, 127
1, 4680, Note_on_c, 1, 78, 127
1, 4680, Note_on_c, 1, 57, 127
1, 4728, Note_off_c, 1, 78, 0
1, 4740, Note_on_c, 1, 76, 127
1, 4776, Note_off_c, 1, 73, 0
1, 4776, Note_off_c, 1, 57, 0
1, 4788, Note_off_c, 1, 76, 0
1, 4800, Note_on_c, 1, 74, 127
1, 4800, Note_on_c, 1, 78, 127
1, 4800, Note_on_c, 1, 50, 127
1, 4848, Note_off_c, 1, 74, 0
1, 4860, Note_on_c, 1, 62, 127
1, 4896, Note_off_c, 1, 78, 0
1, 4896, Note_off_c, 1, 50, 0
1, 4908, Note_off_c, 1, 62, 0
1, 4920, Note_on_c, 1, 66, 127
1, 4920, Note_on_c, 1, 74, 127
1, 4920, Note_on_c, 1, 62, 127
1, 4968, Note_off_c, 1, 66, 0
1, 4980, Note_on_c, 1, 69, 127
1, 5016, Note_off_c, 1, 74, 0
1, 5016, Note_off_c, 1, 62, 0
1, 5028, Note_off_c, 1, 69, 0
1, 5040, Note_on_c, 1, 72, 127
1, 5040, Note_on_c, 1, 54, 127
1, 5088, Note_off_c, 1, 72, 0
1, 5100, Note_on_c, 1, 71, 127
1, 5100, Note_on_c, 1, 62, 127
1, 5136, Note_off_c, 1, 54, 0
1, 5148, Note_off_c, 1, 71, 0
1, 5148, Note_off_c, 1, 62, 0
1, 5160, Note_on_c, 1, 72, 127
1, 5160, Note_on_c, 1, 66, 127
1, 5160, Note_on_c, 1, 57, 127
1, 5208, Note_off_c, 1, 66, 0
1, 5220, Note_on_c, 1, 69, 127
1, 5256, Note_off_c, 1, 72, 0
1, 5256, Note_off_c, 1, 57, 0
1, 5268, Note_off_c, 1, 69, 0
1, 5280, Note_on_c, 1, 72, 127
1, 5280, Note_on_c, 1, 50, 127
1, 5328, Note_off_c, 1, 72, 0
1, 5340, Note_on_c, 1, 62, 127
1, 5340, Note_on_c, 1, 71, 127
1, 5376, Note_off_c, 1, 50, 0
1, 5388, Note_off_c, 1, 62, 0
1, 5388, Note_off_c, 1, 71, 0
1, 5400, Note_on_c, 1, 66, 127
1, 5400, Note_on_c, 1, 72, 127
1, 5400, Note_on_c, 1, 62, 127
1, 5448, Note_off_c, 1, 66, 0
1, 5460, Note_on_c, 1, 69, 127
1, 5496, Note_off_c, 1, 72, 0
1, 5496, Note_off_c, 1, 62, 0
1, 5508, Note_off_c, 1, 69, 0
1, 5520, Note_on_c, 1, 72, 127
1, 5520, Note_on_c, 1, 54, 127
1, 5568, Note_off_c, 1, 72, 0
1, 5580, Note_on_c, 1, 71, 127
1, 5580, Note_on_c, 1, 62, 127
1, 5616, Note_off_c, 1, 54, 0
1, 5628, Note_off_c, 1, 71, 0
1, 5628, Note_off_c, 1, 62, 0
1, 5640, Note_on_c, 1, 72, 127
1, 5640, Note_on_c, 1, 66, 127
1, 5640, Note_on_c, 1, 57, 127
1, 5688, Note_off_c, 1, 66, 0
1, 5700, Note_on_c, 1, 69, 127
1, 5736, Note_off_c, 1, 72, 0
1, 5736, Note_off_c, 1, 57, 0
1, 5748, Note_off_c, 1, 69, 0
1, 5760, Note_on_c, 1, 72, 127
1, 5760, Note_on_c, 1, 50, 127
1, 5808, Note_off_c, 1, 72, 0
1, 5820, Note_on_c, 1, 62, 127
1, 5820, Note_on_c, 1, 71, 127
1, 5856, Note_off_c, 1, 50, 0
1, 5868, Note_off_c, 1, 62, 0
1, 5868, Note_off_c, 1, 71, 0
1, 5880, Note_on_c, 1, 66, 127
1, 5880, Note_on_c, 1, 72, 127
1, 5880, Note_on_c, 1, 62, 127
1, 5928, Note_off_c, 1, 66, 0
1, 5940, Note_on_c, 1, 69, 127
1, 5976, Note_off_c, 1, 72, 0
1, 5976, Note_off_c, 1, 62, 0
1, 5988, Note_off_c, 1, 69, 0
1, 6000, Note_on_c, 1, 72, 127
1, 6000, Note_on_c, 1, 54, 127
1, 6048, Note_off_c, 1, 72, 0
1, 6060, Note_on_c, 1, 71, 127
1, 6096, Note_off_c, 1, 54, 0
1, 6108, Note_off_c, 1, 71, 0
1, 6120, Note_on_c, 1, 69, 127
1, 6120, Note_on_c, 1, 57, 127
1, 6168, Note_off_c, 1, 69, 0
1, 6180, Note_on_c, 1, 67, 127
1, 6216, Note_off_c, 1, 57, 0
1, 6228, Note_off_c, 1, 67, 0
1, 6240, Note_on_c, 1, 66, 127
1, 6240, Note_on_c, 1, 50, 127
1, 6288, Note_off_c, 1, 66, 0
1, 6300, Note_on_c, 1, 62, 127
1, 6336, Note_off_c, 1, 50, 0
1, 6348, Note_off_c, 1, 62, 0
1, 6360, Note_on_c, 1, 66, 127
1, 6360, Note_on_c, 1, 60, 127
1, 6408, Note_off_c, 1, 66, 0
1, 6420, Note_on_c, 1, 69, 127
1, 6456, Note_off_c, 1, 60, 0
1, 6468, Note_off_c, 1, 69, 0
1, 6480, Note_on_c, 1, 74, 127
1, 6480, Note_on_c, 1, 59, 127
1, 6528, Note_off_c, 1, 74, 0
1, 6540, Note_on_c, 1, 72, 127
1, 6576, Note_off_c, 1, 59, 0
1, 6588, Note_off_c, 1, 72, 0
1, 6600, Note_on_c, 1, 71, 127
1, 6600, Note_on_c, 1, 78, 127
1, 6600, Note_on_c, 1, 62, 127
1, 6648, Note_off_c, 1, 71, 0
1, 6660, Note_on_c, 1, 69, 127
1, 6696, Note_off_c, 1, 78, 0
1, 6696, Note_off_c, 1, 62, 0
1, 6708, Note_off_c, 1, 69, 0
1, 6720, Note_on_c, 1, 71, 127
1, 6720, Note_on_c, 1, 79, 127
1, 6720, Note_on_c, 1, 55, 127
1, 6768, Note_off_c, 1, 79, 0
1, 6780, Note_on_c, 1, 81, 127
1, 6816, Note_off_c, 1, 71, 0
1, 6828, Note_off_c, 1, 81, 0
1, 6840, Note_on_c, 1, 74, 127
1, 6900, Note_on_c, 1, 78, 127
1, 6936, Note_off_c, 1, 74, 0
1, 6948, Note_off_c, 1, 78, 0
1, 6960, Note_on_c, 1, 76, 127
1, 7008, Note_off_c, 1, 55, 0
1, 7008, Note_off_c, 1, 76, 0
1, 7080, Note_on_c, 1, 72, 127
1, 7080, Note_on_c, 1, 57, 127
1, 7128, Note_off_c, 1, 72, 0
1, 7176, Note_off_c, 1, 57, 0
1, 7200, Note_on_c, 1, 69, 127
1, 7200, Note_on_c, 1, 50, 127
1, 7248, Note_off_c, 1, 69, 0
1, 7260, Note_on_c, 1, 67, 127
1, 7296, Note_off_c, 1, 50, 0
1, 7308, Note_off_c, 1, 67, 0
1, 7320, Note_on_c, 1, 78, 127
1, 7320, Note_on_c, 1, 69, 127
1, 7320, Note_on_c, 1, 60, 127
1, 7368, Note_off_c, 1, 69, 0
1, 7380, Note_on_c, 1, 71, 127
1, 7416, Note_off_c, 1, 78, 0
1, 7416, Note_off_c, 1, 60, 0
1, 7428, Note_off_c, 1, 71, 0
1, 7440, Note_on_c, 1, 72, 127
1, 7440, Note_on_c, 1, 59, 127
1, 7488, Note_off_c, 1, 72, 0
1, 7500, Note_on_c, 1, 74, 127
1, 7536, Note_off_c, 1, 59, 0
1, 7548, Note_off_c, 1, 74, 0
1, 7560, Note_on_c, 1, 72, 127
1, 7560, Note_on_c, 1, 76, 127
1, 7560, Note_on_c, 1, 57, 127
1, 7608, Note_off_c, 1, 76, 0
1, 7620, Note_on_c, 1, 78, 127
1, 7656, Note_off_c, 1, 57, 0
1, 7668, Note_off_c, 1, 78, 0
1, 7680, Note_on_c, 1, 79, 127
1, 7680, Note_on_c, 1, 59, 127
1, 7728, Note_off_c, 1, 72, 0
1, 7740, Note_on_c, 1, 69, 127
1, 7776, Note_off_c, 1, 79, 0
1, 7776, Note_off_c, 1, 59, 0
1, 7788, Note_off_c, 1, 69, 0
1, 7800, Note_on_c, 1, 71, 127
1, 7800, Note_on_c, 1, 74, 127
1, 7800, Note_on_c, 1, 62, 127
1, 7848, Note_off_c, 1, 71, 0
1, 7860, Note_on_c, 1, 72, 127
1, 7896, Note_off_c, 1, 74, 0
1, 7896, Note_off_c, 1, 62, 0
1, 7908, Note_off_c, 1, 72, 0
1, 7920, Note_on_c, 1, 74, 127
1, 7920, Note_on_c, 1, 79, 127
1, 7920, Note_on_c, 1, 60, 127
1, 7968, Note_off_c, 1, 74, 0
1, 7980, Note_on_c, 1, 78, 127
1, 8016, Note_off_c, 1, 60, 0
1, 8028, Note_off_c, 1, 78, 0
1, 8040, Note_on_c, 1, 76, 127
1, 8040, Note_on_c, 1, 59, 127
1, 8088, Note_off_c, 1, 76, 0
1, 8136, Note_off_c, 1, 59, 0
1, 8160, Note_on_c, 1, 72, 127
1, 8160, Note_on_c, 1, 57, 127
1, 8208, Note_off_c, 1, 72, 0
1, 8220, Note_on_c, 1, 71, 127
1, 8256, Note_off_c, 1, 79, 0
1, 8256, Note_off_c, 1, 57, 0
1, 8268, Note_off_c, 1, 71, 0
1, 8280, Note_on_c, 1, 69, 127
1, 8280, Note_on_c, 1, 78, 127
1, 8280, Note_on_c, 1, 50, 127
1, 8328, Note_off_c, 1, 69, 0
1, 8328, Note_off_c, 1, 78, 0
1, 8340, Note_on_c, 1, 67, 127
1, 8340, Note_on_c, 1, 76, 127
1, 8376, Note_off_c, 1, 50, 0
1, 8388, Note_off_c, 1, 67, 0
1, 8388, Note_off_c, 1, 76, 0
1, 8400, Note_on_c, 1, 66, 127
1, 8400, Note_on_c, 1, 74, 127
1, 8448, Note_off_c, 1, 74, 0
1, 8460, Note_on_c, 1, 72, 127
1, 8496, Note_off_c, 1, 66, 0
1, 8508, Note_off_c, 1, 72, 0
1, 8520, Note_on_c, 1, 78, 127
1, 8520, Note_on_c, 1, 71, 127
1, 8520, Note_on_c, 1, 51, 127
1, 8568, Note_off_c, 1, 71, 0
1, 8580, Note_on_c, 1, 69, 127
1, 8616, Note_off_c, 1, 51, 0
1, 8628, Note_off_c, 1, 69, 0
1, 8640, Note_on_c, 1, 67, 127
1, 8640, Note_on_c, 1, 52, 127
1, 8688, Note_off_c, 1, 78, 0
1, 8736, Note_off_c, 1, 67, 0
1, 8760, Note_on_c, 1, 76, 127
1, 8808, Note_off_c, 1, 76, 0
1, 8820, Note_on_c, 1, 74, 127
1, 8868, Note_off_c, 1, 74, 0
1, 8880, Note_on_c, 1, 72, 127
1, 8928, Note_off_c, 1, 52, 0
1, 8928, Note_off_c, 1, 72, 0
1, 9000, Note_on_c, 1, 54, 127
1, 9096, Note_off_c, 1, 54, 0
1, 9120, Note_on_c, 1, 66, 127
1, 9120, Note_on_c, 1, 76, 127
1, 9120, Note_on_c, 1, 47, 127
1, 9168, Note_off_c, 1, 66, 0
1, 9180, Note_on_c, 1, 64, 127
1, 9216, Note_off_c, 1, 76, 0
1, 9216, Note_off_c, 1, 47, 0
1, 9228, Note_off_c, 1, 64, 0
1, 9240, Note_on_c, 1, 66, 127
1, 9240, Note_on_c, 1, 75, 127
1, 9240, Note_on_c, 1, 57, 127
1, 9288, Note_off_c, 1, 66, 0
1, 9300, Note_on_c, 1, 67, 127
1, 9336, Note_off_c, 1, 75, 0
1, 9336, Note_off_c, 1, 57, 0
1, 9348, Note_off_c, 1, 67, 0
1, 9360, Note_on_c, 1, 69, 127
1, 9360, Note_on_c, 1, 55, 127
1, 9408, Note_off_c, 1, 69, 0
1, 9420, Note_on_c, 1, 71, 127
1, 9456, Note_off_c, 1, 55, 0
1, 9468, Note_off_c, 1, 71, 0
1, 9480, Note_on_c, 1, 73, 127
1, 9480, Note_on_c, 1, 69, 127
1, 9480, Note_on_c, 1, 54, 127
1, 9528, Note_off_c, 1, 73, 0
1, 9540, Note_on_c, 1, 75, 127
1, 9576, Note_off_c, 1, 54, 0
1, 9588, Note_off_c, 1, 75, 0
1, 9600, Note_on_c, 1, 76, 127
1, 9600, Note_on_c, 1, 55, 127
1, 9648, Note_off_c, 1, 69, 0
1, 9660, Note_on_c, 1, 66, 127
1, 9696, Note_off_c, 1, 76, 0
1, 9696, Note_off_c, 1, 55, 0
1, 9708, Note_off_c, 1, 66, 0
1, 9720, Note_on_c, 1, 71, 127
1, 9720, Note_on_c, 1, 67, 127
1, 9720, Note_on_c, 1, 59, 127
1, 9768, Note_off_c, 1, 67, 0
1, 9780, Note_on_c, 1, 69, 127
1, 9816, Note_off_c, 1, 71, 0
1, 9816, Note_off_c, 1, 59, 0
1, 9828, Note_off_c, 1, 69, 0
1, 9840, Note_on_c, 1, 76, 127
1, 9840, Note_on_c, 1, 71, 127
1, 9840, Note_on_c, 1, 57, 127
1, 9888, Note_off_c, 1, 71, 0
1, 9900, Note_on_c, 1, 74, 127
1, 9936, Note_off_c, 1, 57, 0
1, 9948, Note_off_c, 1, 74, 0
1, 9960, Note_on_c, 1, 72, 127
1, 9960, Note_on_c, 1, 55, 127
1, 10008, Note_off_c, 1, 72, 0
1, 10056, Note_off_c, 1, 55, 0
1, 10080, Note_on_c, 1, 69, 127
1, 10080, Note_on_c, 1, 54, 127
1, 10128, Note_off_c, 1, 69, 0
1, 10140, Note_on_c, 1, 67, 127
1, 10176, Note_off_c, 1, 76, 0
1, 10176, Note_off_c, 1, 54, 0
1, 10188, Note_off_c, 1, 67, 0
1, 10200, Note_on_c, 1, 74, 127
1, 10200, Note_on_c, 1, 66, 127
1, 10200, Note_on_c, 1, 47, 127
1, 10248, Note_off_c, 1, 74, 0
1, 10248, Note_off_c, 1, 66, 0
1, 10260, Note_on_c, 1, 72, 127
1, 10260, Note_on_c, 1, 64, 127
1, 10296, Note_off_c, 1, 47, 0
1, 10308, Note_off_c, 1, 72, 0
1, 10308, Note_off_c, 1, 64, 0
1, 10320, Note_on_c, 1, 71, 127
1, 10320, Note_on_c, 1, 62, 127
1, 10368, Note_off_c, 1, 71, 0
1, 10380, Note_on_c, 1, 69, 127
1, 10416, Note_off_c, 1, 62, 0
1, 10428, Note_off_c, 1, 69, 0
1, 10440, Note_on_c, 1, 67, 127
1, 10440, Note_on_c, 1, 74, 127
1, 10440, Note_on_c, 1, 47, 127
1, 10488, Note_off_c, 1, 67, 0
1, 10500, Note_on_c, 1, 65, 127
1, 10536, Note_off_c, 1, 47, 0
1, 10548, Note_off_c, 1, 65, 0
1, 10560, Note_on_c, 1, 64, 127
1, 10560, Note_on_c, 1, 48, 127
1, 10608, Note_off_c, 1, 74, 0
1, 10656, Note_off_c, 1, 64, 0
1, 10680, Note_on_c, 1, 72, 127
1, 10728, Note_off_c, 1, 72, 0
1, 10740, Note_on_c, 1, 71, 127
1, 10788, Note_off_c, 1, 71, 0
1, 10800, Note_on_c, 1, 69, 127
1, 10848, Note_off_c, 1, 48, 0
1, 10848, Note_off_c, 1, 69, 0
1, 10920, Note_on_c, 1, 50, 127
1, 11016, Note_off_c, 1, 50, 0
1, 11040, Note_on_c, 1, 62, 127
1, 11040, Note_on_c, 1, 43, 127
1, 11088, Note_off_c, 1, 62, 0
1, 11100, Note_on_c, 1, 60, 127
1, 11136, Note_off_c, 1, 43, 0
1, 11148, Note_off_c, 1, 60, 0
1, 11160, Note_on_c, 1, 71, 127
1, 11160, Note_on_c, 1, 62, 127
1, 11160, Note_on_c, 1, 54, 127
1, 11208, Note_off_c, 1, 62, 0
1, 11220, Note_on_c, 1, 64, 127
1, 11256, Note_off_c, 1, 71, 0
1, 11256, Note_off_c, 1, 54, 0
1, 11268, Note_off_c, 1, 64, 0
1, 11280, Note_on_c, 1, 66, 127
1, 11280, Note_on_c, 1, 52, 127
1, 11328, Note_off_c, 1, 66, 0
1, 11340, Note_on_c, 1, 67, 127
1, 11376, Note_off_c, 1, 52, 0
1, 11388, Note_off_c, 1, 67, 0
1, 11400, Note_on_c, 1, 65, 127
1, 11400, Note_on_c, 1, 69, 127
1, 11400, Note_on_c, 1, 50, 127
1, 11448, Note_off_c, 1, 69, 0
1, 11460, Note_on_c, 1, 71, 127
1, 11496, Note_off_c, 1, 65, 0
1, 11496, Note_off_c, 1, 50, 0
1, 11508, Note_off_c, 1, 71, 0
1, 11520, Note_on_c, 1, 65, 127
1, 11520, Note_on_c, 1, 72, 127
1, 11520, Note_on_c, 1, 52, 127
1, 11568, Note_off_c, 1, 65, 0
1, 11580, Note_on_c, 1, 62, 127
1, 11616, Note_off_c, 1, 72, 0
1, 11616, Note_off_c, 1, 52, 0
1, 11628, Note_off_c, 1, 62, 0
1, 11640, Note_on_c, 1, 64, 127
1, 11640, Note_on_c, 1, 67, 127
1, 11640, Note_on_c, 1, 55, 127
1, 11688, Note_off_c, 1, 64, 0
1, 11700, Note_on_c, 1, 66, 127
1, 11736, Note_off_c, 1, 67, 0
1, 11736, Note_off_c, 1, 55, 0
1, 11748, Note_off_c, 1, 66, 0
1, 11760, Note_on_c, 1, 67, 127
1, 11760, Note_on_c, 1, 72, 127
1, 11760, Note_on_c, 1, 54, 127
1, 11808, Note_off_c, 1, 67, 0
1, 11820, Note_on_c, 1, 71, 127
1, 11856, Note_off_c, 1, 54, 0
1, 11868, Note_off_c, 1, 71, 0
1, 11880, Note_on_c, 1, 69, 127
1, 11880, Note_on_c, 1, 52, 127
1, 11928, Note_off_c, 1, 69, 0
1, 11976, Note_off_c, 1, 52, 0
1, 12048, Note_off_c, 1, 72, 0
1, 12120, Note_on_c, 1, 66, 127
1, 12120, Note_on_c, 1, 69, 127
1, 12120, Note_on_c, 1, 57, 127
1, 12168, Note_off_c, 1, 66, 0
1, 12168, Note_off_c, 1, 69, 0
1, 12180, Note_on_c, 1, 67, 127
1, 12180, Note_on_c, 1, 71, 127
1, 12216, Note_off_c, 1, 57, 0
1, 12228, Note_off_c, 1, 67, 0
1, 12228, Note_off_c, 1, 71, 0
1, 12240, Note_on_c, 1, 69, 127
1, 12240, Note_on_c, 1, 72, 127
1, 12240, Note_on_c, 1, 55, 127
1, 12288, Note_off_c, 1, 69, 0
1, 12288, Note_off_c, 1, 72, 0
1, 12300, Note_on_c, 1, 76, 127
1, 12336, Note_off_c, 1, 55, 0
1, 12348, Note_off_c, 1, 76, 0
1, 12360, Note_on_c, 1, 71, 127
1, 12360, Note_on_c, 1, 74, 127
1, 12360, Note_on_c, 1, 54, 127
1, 12408, Note_off_c, 1, 71, 0
1, 12408, Note_off_c, 1, 74, 0
1, 12420, Note_on_c, 1, 69, 127
1, 12420, Note_on_c, 1, 72, 127
1, 12456, Note_off_c, 1, 54, 0
1, 12468, Note_off_c, 1, 69, 0
1, 12468, Note_off_c, 1, 72, 0
1, 12480, Note_on_c, 1, 67, 127
1, 12480, Note_on_c, 1, 71, 127
1, 12480, Note_on_c, 1, 55, 127
1, 12528, Note_off_c, 1, 71, 0
1, 12576, Note_off_c, 1, 55, 0
1, 12600, Note_on_c, 1, 69, 127
1, 12600, Note_on_c, 1, 52, 127
1, 12648, Note_off_c, 1, 69, 0
1, 12696, Note_off_c, 1, 52, 0
1, 12720, Note_on_c, 1, 72, 127
1, 12720, Note_on_c, 1, 50, 127
1, 12768, Note_off_c, 1, 67, 0
1, 12768, Note_off_c, 1, 72, 0
1, 12780, Note_on_c, 1, 66, 127
1, 12780, Note_on_c, 1, 74, 127
1, 12816, Note_off_c, 1, 50, 0
1, 12828, Note_off_c, 1, 66, 0
1, 12828, Note_off_c, 1, 74, 0
1, 12840, Note_on_c, 1, 64, 127
1, 12840, Note_on_c, 1, 76, 127
1, 12840, Note_on_c, 1, 48, 127
1, 12888, Note_off_c, 1, 64, 0
1, 12888, Note_off_c, 1, 76, 0
1, 12900, Note_on_c, 1, 69, 127
1, 12900, Note_on_c, 1, 78, 127
1, 12936, Note_off_c, 1, 48, 0
1, 12948, Note_off_c, 1, 69, 0
1, 12948, Note_off_c, 1, 78, 0
1, 12960, Note_on_c, 1, 62, 127
1, 12960, Note_on_c, 1, 79, 127
1, 12960, Note_on_c, 1, 47, 127
1, 13056, Note_off_c, 1, 62, 0
1, 13056, Note_off_c, 1, 79, 0
1, 13056, Note_off_c, 1, 47, 0
1, 13080, Note_on_c, 1, 69, 127
1, 13080, Note_on_c, 1, 45, 127
1, 13104, Note_off_c, 1, 69, 0
1, 13110, Note_on_c, 1, 71, 127
1, 13134, Note_off_c, 1, 71, 0
1, 13140, Note_on_c, 1, 72, 127
1, 13176, Note_off_c, 1, 45, 0
1, 13188, Note_off_c, 1, 72, 0
1, 13200, Note_on_c, 1, 71, 127
1, 13200, Note_on_c, 1, 43, 127
1, 13290, Note_off_c, 1, 71, 0
1, 13296, Note_off_c, 1, 43, 0
1, 13320, Note_on_c, 1, 69, 127
1, 13320, Note_on_c, 1, 42, 127
1, 13410, Note_off_c, 1, 69, 0
1, 13416, Note_off_c, 1, 42, 0
1, 13440, Note_on_c, 1, 71, 127
1, 13440, Note_on_c, 1, 67, 127
1, 13440, Note_on_c, 1, 43, 127
1, 13488, Note_off_c, 1, 71, 0
1, 13536, Note_off_c, 1, 43, 0
1, 13560, Note_on_c, 1, 55, 127
1, 13620, Note_on_c, 1, 74, 127
1, 13656, Note_off_c, 1, 55, 0
1, 13668, Note_off_c, 1, 74, 0
1, 13680, Note_on_c, 1, 72, 127
1, 13680, Note_on_c, 1, 52, 127
1, 13728, Note_off_c, 1, 67, 0
1, 13740, Note_on_c, 1, 66, 127
1, 13776, Note_off_c, 1, 52, 0
1, 13788, Note_off_c, 1, 66, 0
1, 13800, Note_on_c, 1, 64, 127
1, 13800, Note_on_c, 1, 57, 127
1, 13848, Note_off_c, 1, 64, 0
1, 13860, Note_on_c, 1, 69, 127
1, 13896, Note_off_c, 1, 57, 0
1, 13908, Note_off_c, 1, 69, 0
1, 13920, Note_on_c, 1, 62, 127
1, 13920, Note_on_c, 1, 54, 127
1, 13968, Note_off_c, 1, 72, 0
1, 14016, Note_off_c, 1, 62, 0
1, 14016, Note_off_c, 1, 54, 0
1, 14040, Note_on_c, 1, 72, 127
1, 14040, Note_on_c, 1, 69, 127
1, 14040, Note_on_c, 1, 50, 127
1, 14064, Note_off_c, 1, 69, 0
1, 14070, Note_on_c, 1, 71, 127
1, 14088, Note_off_c, 1, 72, 0
1, 14094, Note_off_c, 1, 71, 0
1, 14100, Note_on_c, 1, 76, 127
1, 14136, Note_off_c, 1, 50, 0
1, 14148, Note_off_c, 1, 76, 0
1, 14160, Note_on_c, 1, 74, 127
1, 14160, Note_on_c, 1, 71, 127
1, 14250, Note_off_c, 1, 71, 0
1, 14280, Note_on_c, 1, 69, 127
1, 14280, Note_on_c, 1, 54, 127
1, 14370, Note_off_c, 1, 69, 0
1, 14376, Note_off_c, 1, 54, 0
1, 14400, Note_on_c, 1, 55, 127
1, 14448, Note_off_c, 1, 74, 0
1, 14460, Note_on_c, 1, 67, 127
1, 14496, Note_off_c, 1, 55, 0
1, 14508, Note_off_c, 1, 67, 0
1, 14520, Note_on_c, 1, 74, 127
1, 14520, Note_on_c, 1, 71, 127
1, 14520, Note_on_c, 1, 43, 127
1, 14568, Note_off_c, 1, 74, 0
1, 14568, Note_off_c, 1, 71, 0
1, 14580, Note_on_c, 1, 77, 127
1, 14616, Note_off_c, 1, 43, 0
1, 14628, Note_off_c, 1, 77, 0
1, 14640, Note_on_c, 1, 76, 127
1, 14640, Note_on_c, 1, 72, 127
1, 14640, Note_on_c, 1, 48, 127
1, 14688, Note_off_c, 1, 76, 0
1, 14700, Note_on_c, 1, 74, 127
1, 14736, Note_off_c, 1, 48, 0
1, 14748, Note_off_c, 1, 74, 0
1, 14760, Note_on_c, 1, 52, 127
1, 14820, Note_on_c, 1, 71, 127
1, 14856, Note_off_c, 1, 52, 0
1, 14868, Note_off_c, 1, 71, 0
1, 14880, Note_on_c, 1, 69, 127
1, 14880, Note_on_c, 1, 54, 127
1, 14928, Note_off_c, 1, 72, 0
1, 14928, Note_off_c, 1, 69, 0
1, 14940, Note_on_c, 1, 66, 127
1, 14976, Note_off_c, 1, 54, 0
1, 14988, Note_off_c, 1, 66, 0
1, 15000, Note_on_c, 1, 69, 127
1, 15000, Note_on_c, 1, 72, 127
1, 15000, Note_on_c, 1, 42, 127
1, 15048, Note_off_c, 1, 69, 0
1, 15048, Note_off_c, 1, 72, 0
1, 15060, Note_on_c, 1, 76, 127
1, 15096, Note_off_c, 1, 42, 0
1, 15108, Note_off_c, 1, 76, 0
1, 15120, Note_on_c, 1, 71, 127
1, 15120, Note_on_c, 1, 74, 127
1, 15120, Note_on_c, 1, 47, 127
1, 15168, Note_off_c, 1, 71, 0
1, 15180, Note_on_c, 1, 69, 127
1, 15216, Note_off_c, 1, 47, 0
1, 15228, Note_off_c, 1, 69, 0
1, 15240, Note_on_c, 1, 67, 127
1, 15240, Note_on_c, 1, 50, 127
1, 15288, Note_off_c, 1, 67, 0
1, 15300, Note_on_c, 1, 66, 127
1, 15312, Note_off_c, 1, 74, 0
1, 15336, Note_off_c, 1, 50, 0
1, 15348, Note_off_c, 1, 66, 0
1, 15360, Note_on_c, 1, 67, 127
1, 15360, Note_on_c, 1, 74, 127
1, 15360, Note_on_c, 1, 52, 127
1, 15408, Note_off_c, 1, 74, 0
1, 15420, Note_on_c, 1, 71, 127
1, 15456, Note_off_c, 1, 52, 0
1, 15468, Note_off_c, 1, 71, 0
1, 15480, Note_on_c, 1, 47, 127
1, 15540, Note_on_c, 1, 77, 127
1, 15576, Note_off_c, 1, 47, 0
1, 15588, Note_off_c, 1, 77, 0
1, 15600, Note_on_c, 1, 76, 127
1, 15600, Note_on_c, 1, 48, 127
1, 15648, Note_off_c, 1, 76, 0
1, 15696, Note_off_c, 1, 48, 0
1, 15720, Note_on_c, 1, 72, 127
1, 15720, Note_on_c, 1, 45, 127
1, 15768, Note_off_c, 1, 72, 0
1, 15816, Note_off_c, 1, 45, 0
1, 15840, Note_on_c, 1, 69, 127
1, 15840, Note_on_c, 1, 50, 127
1, 15888, Note_off_c, 1, 67, 0
1, 15888, Note_off_c, 1, 69, 0
1, 15900, Note_on_c, 1, 62, 127
1, 15900, Note_on_c, 1, 66, 127
1, 15936, Note_off_c, 1, 50, 0
1, 15948, Note_off_c, 1, 62, 0
1, 15948, Note_off_c, 1, 66, 0
1, 15960, Note_on_c, 1, 66, 127
1, 15960, Note_on_c, 1, 69, 127
1, 15960, Note_on_c, 1, 38, 127
1, 16008, Note_off_c, 1, 66, 0
1, 16008, Note_off_c, 1, 69, 0
1, 16020, Note_on_c, 1, 72, 127
1, 16056, Note_off_c, 1, 38, 0
1, 16068, Note_off_c, 1, 72, 0
1, 16080, Note_on_c, 1, 67, 127
1, 16080, Note_on_c, 1, 71, 127
1, 16128, Note_off_c, 1, 67, 0
1, 16128, Note_off_c, 1, 71, 0
1, 16140, Note_on_c, 1, 66, 127
1, 16140, Note_on_c, 1, 69, 127
1, 16188, Note_off_c, 1, 66, 0
1, 16188, Note_off_c, 1, 69, 0
1, 16200, Note_on_c, 1, 64, 127
1, 16200, Note_on_c, 1, 67, 127
1, 16200, Note_on_c, 1, 48, 127
1, 16248, Note_off_c, 1, 64, 0
1, 16248, Note_off_c, 1, 67, 0
1, 16260, Note_on_c, 1, 62, 127
1, 16260, Note_on_c, 1, 66, 127
1, 16296, Note_off_c, 1, 48, 0
1, 16308, Note_off_c, 1, 62, 0
1, 16308, Note_off_c, 1, 66, 0
1, 16320, Note_on_c, 1, 74, 127
1, 16320, Note_on_c, 1, 67, 127
1, 16320, Note_on_c, 1, 47, 127
1, 16368, Note_off_c, 1, 74, 0
1, 16380, Note_on_c, 1, 72, 127
1, 16416, Note_off_c, 1, 67, 0
1, 16416, Note_off_c, 1, 47, 0
1, 16428, Note_off_c, 1, 72, 0
1, 16440, Note_on_c, 1, 76, 127
1, 16440, Note_on_c, 1, 59, 127
1, 16440, Note_on_c, 1, 43, 127
1, 16488, Note_off_c, 1, 76, 0
1, 16500, Note_on_c, 1, 74, 127
1, 16536, Note_off_c, 1, 59, 0
1, 16536, Note_off_c, 1, 43, 0
1, 16548, Note_off_c, 1, 74, 0
1, 16560, Note_on_c, 1, 72, 127
1, 16560, Note_on_c, 1, 57, 127
1, 16560, Note_on_c, 1, 50, 127
1, 16608, Note_off_c, 1, 72, 0
1, 16620, Note_on_c, 1, 71, 127
1, 16656, Note_off_c, 1, 57, 0
1, 16656, Note_off_c, 1, 50, 0
1, 16668, Note_off_c, 1, 71, 0
1, 16680, Note_on_c, 1, 69, 127
1, 16680, Note_on_c, 1, 66, 127
1, 16680, Note_on_c, 1, 38, 127
1, 16728, Note_off_c, 1, 69, 0
1, 16740, Note_on_c, 1, 71, 127
1, 16776, Note_off_c, 1, 66, 0
1, 16776, Note_off_c, 1, 38, 0
1, 16788, Note_off_c, 1, 71, 0
1, 16800, Note_on_c, 1, 67, 127
1, 16800, Note_on_c, 1, 43, 127
1, 16896, Note_off_c, 1, 43, 0
1, 16920, Note_on_c, 1, 55, 127
1, 16992, Note_off_c, 1, 67, 0
1, 17016, Note_off_c, 1, 55, 0
1, 17040, Note_on_c, 1, 54, 127
1, 17136, Note_off_c, 1, 54, 0
1, 17160, Note_on_c, 1, 71, 127
1, 17160, Note_on_c, 1, 52, 127
1, 17256, Note_off_c, 1, 71, 0
1, 17256, Note_off_c, 1, 52, 0
1, 17280, Note_on_c, 1, 72, 127
1, 17280, Note_on_c, 1, 45, 127
1, 17304, Note_off_c, 1, 72, 0
1, 17310, Note_on_c, 1, 71, 127
1, 17334, Note_off_c, 1, 71, 0
1, 17340, Note_on_c, 1, 69, 127
1, 17376, Note_off_c, 1, 45, 0
1, 17388, Note_off_c, 1, 69, 0
1, 17400, Note_on_c, 1, 71, 127
1, 17400, Note_on_c, 1, 57, 127
1, 17490, Note_off_c, 1, 71, 0
1, 17496, Note_off_c, 1, 57, 0
1, 17520, Note_on_c, 1, 64, 127
1, 17520, Note_on_c, 1, 55, 127
1, 17616, Note_off_c, 1, 64, 0
1, 17616, Note_off_c, 1, 55, 0
1, 17640, Note_on_c, 1, 66, 127
1, 17640, Note_on_c, 1, 54, 127
1, 17664, Note_off_c, 1, 66, 0
1, 17670, Note_on_c, 1, 64, 127
1, 17694, Note_off_c, 1, 64, 0
1, 17736, Note_off_c, 1, 54, 0
1, 17760, Note_on_c, 1, 67, 127
1, 17760, Note_on_c, 1, 52, 127
1, 17856, Note_off_c, 1, 67, 0
1, 17856, Note_off_c, 1, 52, 0
1, 17880, Note_on_c, 1, 75, 127
1, 17880, Note_on_c, 1, 66, 127
1, 17880, Note_on_c, 1, 59, 127
1, 17928, Note_off_c, 1, 66, 0
1, 17940, Note_on_c, 1, 67, 127
1, 17970, Note_off_c, 1, 75, 0
1, 17976, Note_off_c, 1, 59, 0
1, 17988, Note_off_c, 1, 67, 0
1, 18000, Note_on_c, 1, 76, 127
1, 18000, Note_on_c, 1, 64, 127
1, 18000, Note_on_c, 1, 55, 127
1, 18048, Note_off_c, 1, 64, 0
1, 18060, Note_on_c, 1, 59, 127
1, 18090, Note_off_c, 1, 76, 0
1, 18096, Note_off_c, 1, 55, 0
1, 18108, Note_off_c, 1, 59, 0
1, 18120, Note_on_c, 1, 75, 127
1, 18120, Note_on_c, 1, 66, 127
1, 18120, Note_on_c, 1, 59, 127
1, 18168, Note_off_c, 1, 66, 0
1, 18210, Note_off_c, 1, 75, 0
1, 18228, Note_off_c, 1, 59, 0
1, 18240, Note_on_c, 1, 76, 127
1, 18240, Note_on_c, 1, 67, 127
1, 18240, Note_on_c, 1, 52, 127
1, 18288, Note_off_c, 1, 67, 0
1, 18300, Note_on_c, 1, 59, 127
1, 18330, Note_off_c, 1, 76, 0
1, 18336, Note_off_c, 1, 52, 0
1, 18348, Note_off_c, 1, 59, 0
1, 18360, Note_on_c, 1, 71, 127
1, 18360, Note_on_c, 1, 66, 127
1, 18360, Note_on_c, 1, 51, 127
1, 18408, Note_off_c, 1, 66, 0
1, 18420, Note_on_c, 1, 59, 127
1, 18450, Note_off_c, 1, 71, 0
1, 18456, Note_off_c, 1, 51, 0
1, 18468, Note_off_c, 1, 59, 0
1, 18480, Note_on_c, 1, 67, 127
1, 18480, Note_on_c, 1, 52, 127
1, 18528, Note_off_c, 1, 67, 0
1, 18540, Note_on_c, 1, 64, 127
1, 18576, Note_off_c, 1, 52, 0
1, 18588, Note_off_c, 1, 64, 0
1, 18600, Note_on_c, 1, 69, 127
1, 18600, Note_on_c, 1, 49, 127
1, 18690, Note_off_c, 1, 69, 0
1, 18696, Note_off_c, 1, 49, 0
1, 18720, Note_on_c, 1, 67, 127
1, 18720, Note_on_c, 1, 50, 127
1, 18744, Note_off_c, 1, 67, 0
1, 18750, Note_on_c, 1, 66, 127
1, 18774, Note_off_c, 1, 66, 0
1, 18816, Note_off_c, 1, 50, 0
1, 18840, Note_on_c, 1, 73, 127
1, 18840, Note_on_c, 1, 64, 127
1, 18840, Note_on_c, 1, 57, 127
1, 18888, Note_off_c, 1, 64, 0
1, 18900, Note_on_c, 1, 66, 127
1, 18930, Note_off_c, 1, 73, 0
1, 18936, Note_off_c, 1, 57, 0
1, 18948, Note_off_c, 1, 66, 0
1, 18960, Note_on_c, 1, 74, 127
1, 18960, Note_on_c, 1, 62, 127
1, 18960, Note_on_c, 1, 54, 127
1, 19008, Note_off_c, 1, 62, 0
1, 19020, Note_on_c, 1, 57, 127
1, 19050, Note_off_c, 1, 74, 0
1, 19056, Note_off_c, 1, 54, 0
1, 19068, Note_off_c, 1, 57, 0
1, 19080, Note_on_c, 1, 73, 127
1, 19080, Note_on_c, 1, 64, 127
1, 19080, Note_on_c, 1, 57, 127
1, 19128, Note_off_c, 1, 64, 0
1, 19170, Note_off_c, 1, 73, 0
1, 19188, Note_off_c, 1, 57, 0
1, 19200, Note_on_c, 1, 74, 127
1, 19200, Note_on_c, 1, 66, 127
1, 19200, Note_on_c, 1, 50, 127
1, 19248, Note_off_c, 1, 66, 0
1, 19260, Note_on_c, 1, 57, 127
1, 19290, Note_off_c, 1, 74, 0
1, 19296, Note_off_c, 1, 50, 0
1, 19308, Note_off_c, 1, 57, 0
1, 19320, Note_on_c, 1, 69, 127
1, 19320, Note_on_c, 1, 64, 127
1, 19320, Note_on_c, 1, 49, 127
1, 19368, Note_off_c, 1, 64, 0
1, 19380, Note_on_c, 1, 57, 127
1, 19410, Note_off_c, 1, 69, 0
1, 19416, Note_off_c, 1, 49, 0
1, 19428, Note_off_c, 1, 57, 0
1, 19440, Note_on_c, 1, 66, 127
1, 19440, Note_on_c, 1, 50, 127
1, 19488, Note_off_c, 1, 66, 0
1, 19500, Note_on_c, 1, 62, 127
1, 19536, Note_off_c, 1, 50, 0
1, 19548, Note_off_c, 1, 62, 0
1, 19560, Note_on_c, 1, 67, 127
1, 19560, Note_on_c, 1, 47, 127
1, 19650, Note_off_c, 1, 67, 0
1, 19656, Note_off_c, 1, 47, 0
1, 19680, Note_on_c, 1, 66, 127
1, 19680, Note_on_c, 1, 48, 127
1, 19725, Note_off_c, 1, 66, 0
1, 19740, Note_on_c, 1, 64, 127
1, 19776, Note_off_c, 1, 48, 0
1, 19788, Note_off_c, 1, 64, 0
1, 19800, Note_on_c, 1, 63, 127
1, 19800, Note_on_c, 1, 36, 127
1, 19848, Note_off_c, 1, 63, 0
1, 19860, Note_on_c, 1, 64, 127
1, 19896, Note_off_c, 1, 36, 0
1, 19908, Note_off_c, 1, 64, 0
1, 19920, Note_on_c, 1, 68, 127
1, 19965, Note_off_c, 1, 68, 0
1, 19980, Note_on_c, 1, 64, 127
1, 20028, Note_off_c, 1, 64, 0
1, 20040, Note_on_c, 1, 63, 127
1, 20040, Note_on_c, 1, 47, 127
1, 20088, Note_off_c, 1, 63, 0
1, 20100, Note_on_c, 1, 64, 127
1, 20136, Note_off_c, 1, 47, 0
1, 20148, Note_off_c, 1, 64, 0
1, 20160, Note_on_c, 1, 69, 127
1, 20160, Note_on_c, 1, 48, 127
1, 20205, Note_off_c, 1, 69, 0
1, 20220, Note_on_c, 1, 64, 127
1, 20256, Note_off_c, 1, 48, 0
1, 20268, Note_off_c, 1, 64, 0
1, 20280, Note_on_c, 1, 63, 127
1, 20280, Note_on_c, 1, 57, 127
1, 20328, Note_off_c, 1, 63, 0
1, 20340, Note_on_c, 1, 64, 127
1, 20376, Note_off_c, 1, 57, 0
1, 20388, Note_off_c, 1, 64, 0
1, 20400, Note_on_c, 1, 70, 127
1, 20400, Note_on_c, 1, 49, 127
1, 20445, Note_off_c, 1, 70, 0
1, 20460, Note_on_c, 1, 64, 127
1, 20496, Note_off_c, 1, 49, 0
1, 20508, Note_off_c, 1, 64, 0
1, 20520, Note_on_c, 1, 63, 127
1, 20520, Note_on_c, 1, 58, 127
1, 20568, Note_off_c, 1, 63, 0
1, 20580, Note_on_c, 1, 64, 127
1, 20616, Note_off_c, 1, 58, 0
1, 20628, Note_off_c, 1, 64, 0
1, 20640, Note_on_c, 1, 71, 127
1, 20640, Note_on_c, 1, 50, 127
1, 20736, Note_off_c, 1, 50, 0
1, 20760, Note_on_c, 1, 59, 127
1, 20856, Note_off_c, 1, 59, 0
1, 20880, Note_on_c, 1, 51, 127
1, 20976, Note_off_c, 1, 51, 0
1, 21000, Note_on_c, 1, 78, 127
1, 21096, Note_off_c, 1, 78, 0
1, 21120, Note_on_c, 1, 79, 127
1, 21120, Note_on_c, 1, 40, 127
1, 21144, Note_off_c, 1, 79, 0
1, 21180, Note_on_c, 1, 76, 127
1, 21216, Note_off_c, 1, 71, 0
1, 21216, Note_off_c, 1, 40, 0
1, 21228, Note_off_c, 1, 76, 0
1, 21240, Note_on_c, 1, 78, 127
1, 21240, Note_on_c, 1, 70, 127
1, 21240, Note_on_c, 1, 52, 127
1, 21336, Note_off_c, 1, 78, 0
1, 21336, Note_off_c, 1, 70, 0
1, 21336, Note_off_c, 1, 52, 0
1, 21360, Note_on_c, 1, 71, 127
1, 21360, Note_on_c, 1, 50, 127
1, 21456, Note_off_c, 1, 71, 0
1, 21456, Note_off_c, 1, 50, 0
1, 21480, Note_on_c, 1, 73, 127
1, 21480, Note_on_c, 1, 49, 127
1, 21509, Note_off_c, 1, 73, 0
1, 21510, Note_on_c, 1, 71, 127
1, 21534, Note_off_c, 1, 71, 0
1, 21576, Note_off_c, 1, 49, 0
1, 21600, Note_on_c, 1, 74, 127
1, 21600, Note_on_c, 1, 47, 127
1, 21696, Note_off_c, 1, 74, 0
1, 21696, Note_off_c, 1, 47, 0
1, 21720, Note_on_c, 1, 73, 127
1, 21720, Note_on_c, 1, 70, 127
1, 21720, Note_on_c, 1, 54, 127
1, 21768, Note_off_c, 1, 73, 0
1, 21780, Note_on_c, 1, 74, 127
1, 21816, Note_off_c, 1, 70, 0
1, 21816, Note_off_c, 1, 54, 0
1, 21828, Note_off_c, 1, 74, 0
1, 21840, Note_on_c, 1, 71, 127
1, 21840, Note_on_c, 1, 50, 127
1, 21900, Note_on_c, 1, 66, 127
1, 21936, Note_off_c, 1, 71, 0
1, 21936, Note_off_c, 1, 50, 0
1, 21948, Note_off_c, 1, 66, 0
1, 21960, Note_on_c, 1, 73, 127
1, 21960, Note_on_c, 1, 70, 127
1, 21960, Note_on_c, 1, 54, 127
1, 22008, Note_off_c, 1, 73, 0
1, 22020, Note_on_c, 1, 66, 127
1, 22056, Note_off_c, 1, 70, 0
1, 22056, Note_off_c, 1, 54, 0
1, 22068, Note_off_c, 1, 66, 0
1, 22080, Note_on_c, 1, 74, 127
1, 22080, Note_on_c, 1, 71, 127
1, 22080, Note_on_c, 1, 47, 127
1, 22128, Note_off_c, 1, 74, 0
1, 22140, Note_on_c, 1, 66, 127
1, 22176, Note_off_c, 1, 71, 0
1, 22176, Note_off_c, 1, 47, 0
1, 22188, Note_off_c, 1, 66, 0
1, 22200, Note_on_c, 1, 73, 127
1, 22200, Note_on_c, 1, 66, 127
1, 22200, Note_on_c, 1, 58, 127
1, 22248, Note_off_c, 1, 73, 0
1, 22296, Note_off_c, 1, 58, 0
1, 22308, Note_off_c, 1, 66, 0
1, 22320, Note_on_c, 1, 74, 127
1, 22320, Note_on_c, 1, 59, 127
1, 22368, Note_off_c, 1, 74, 0
1, 22380, Note_on_c, 1, 71, 127
1, 22416, Note_off_c, 1, 59, 0
1, 22428, Note_off_c, 1, 71, 0
1, 22440, Note_on_c, 1, 76, 127
1, 22440, Note_on_c, 1, 56, 127
1, 22530, Note_off_c, 1, 76, 0
1, 22536, Note_off_c, 1, 56, 0
1, 22560, Note_on_c, 1, 74, 127
1, 22560, Note_on_c, 1, 57, 127
1, 22584, Note_off_c, 1, 74, 0
1, 22590, Note_on_c, 1, 73, 127
1, 22614, Note_off_c, 1, 73, 0
1, 22656, Note_off_c, 1, 57, 0
1, 22680, Note_on_c, 1, 71, 127
1, 22680, Note_on_c, 1, 68, 127
1, 22680, Note_on_c, 1, 52, 127
1, 22728, Note_off_c, 1, 71, 0
1, 22740, Note_on_c, 1, 73, 127
1, 22776, Note_off_c, 1, 68, 0
1, 22776, Note_off_c, 1, 52, 0
1, 22788, Note_off_c, 1, 73, 0
1, 22800, Note_on_c, 1, 69, 127
1, 22800, Note_on_c, 1, 49, 127
1, 22860, Note_on_c, 1, 64, 127
1, 22896, Note_off_c, 1, 69, 0
1, 22896, Note_off_c, 1, 49, 0
1, 22908, Note_off_c, 1, 64, 0
1, 22920, Note_on_c, 1, 71, 127
1, 22920, Note_on_c, 1, 68, 127
1, 22920, Note_on_c, 1, 52, 127
1, 22968, Note_off_c, 1, 71, 0
1, 22980, Note_on_c, 1, 64, 127
1, 23016, Note_off_c, 1, 68, 0
1, 23016, Note_off_c, 1, 52, 0
1, 23028, Note_off_c, 1, 64, 0
1, 23040, Note_on_c, 1, 73, 127
1, 23040, Note_on_c, 1, 69, 127
1, 23040, Note_on_c, 1, 45, 127
1, 23088, Note_off_c, 1, 73, 0
1, 23100, Note_on_c, 1, 64, 127
1, 23136, Note_off_c, 1, 69, 0
1, 23136, Note_off_c, 1, 45, 0
1, 23148, Note_off_c, 1, 64, 0
1, 23160, Note_on_c, 1, 71, 127
1, 23160, Note_on_c, 1, 64, 127
1, 23160, Note_on_c, 1, 56, 127
1, 23208, Note_off_c, 1, 71, 0
1, 23256, Note_off_c, 1, 56, 0
1, 23268, Note_off_c, 1, 64, 0
1, 23280, Note_on_c, 1, 73, 127
1, 23280, Note_on_c, 1, 57, 127
1, 23328, Note_off_c, 1, 73, 0
1, 23340, Note_on_c, 1, 69, 127
1, 23376, Note_off_c, 1, 57, 0
1, 23388, Note_off_c, 1, 69, 0
1, 23400, Note_on_c, 1, 74, 127
1, 23400, Note_on_c, 1, 54, 127
1, 23490, Note_off_c, 1, 74, 0
1, 23496, Note_off_c, 1, 54, 0
1, 23520, Note_on_c, 1, 73, 127
1, 23520, Note_on_c, 1, 55, 127
1, 23565, Note_off_c, 1, 73, 0
1, 23580, Note_on_c, 1, 71, 127
1, 23616, Note_off_c, 1, 55, 0
1, 23628, Note_off_c, 1, 71, 0
1, 23640, Note_on_c, 1, 70, 127
1, 23640, Note_on_c, 1, 43, 127
1, 23688, Note_off_c, 1, 70, 0
1, 23700, Note_on_c, 1, 71, 127
1, 23736, Note_off_c, 1, 43, 0
1, 23748, Note_off_c, 1, 71, 0
1, 23760, Note_on_c, 1, 75, 127
1, 23805, Note_off_c, 1, 75, 0
1, 23820, Note_on_c, 1, 71, 127
1, 23868, Note_off_c, 1, 71, 0
1, 23880, Note_on_c, 1, 70, 127
1, 23880, Note_on_c, 1, 42, 127
1, 23928, Note_off_c, 1, 70, 0
1, 23940, Note_on_c, 1, 71, 127
1, 23976, Note_off_c, 1, 42, 0
1, 23988, Note_off_c, 1, 71, 0
1, 24000, Note_on_c, 1, 76, 127
1, 24000, Note_on_c, 1, 43, 127
1, 24045, Note_off_c, 1, 76, 0
1, 24060, Note_on_c, 1, 71, 127
1, 24096, Note_off_c, 1, 43, 0
1, 24108, Note_off_c, 1, 71, 0
1, 24120, Note_on_c, 1, 70, 127
1, 24120, Note_on_c, 1, 52, 127
1, 24168, Note_off_c, 1, 70, 0
1, 24180, Note_on_c, 1, 71, 127
1, 24216, Note_off_c, 1, 52, 0
1, 24228, Note_off_c, 1, 71, 0
1, 24240, Note_on_c, 1, 77, 127
1, 24240, Note_on_c, 1, 44, 127
1, 24285, Note_off_c, 1, 77, 0
1, 24300, Note_on_c, 1, 71, 127
1, 24336, Note_off_c, 1, 44, 0
1, 24348, Note_off_c, 1, 71, 0
1, 24360, Note_on_c, 1, 70, 127
1, 24360, Note_on_c, 1, 53, 127
1, 24408, Note_off_c, 1, 70, 0
1, 24420, Note_on_c, 1, 71, 127
1, 24456, Note_off_c, 1, 53, 0
1, 24468, Note_off_c, 1, 71, 0
1, 24480, Note_on_c, 1, 78, 127
1, 24480, Note_on_c, 1, 45, 127
1, 24540, Note_on_c, 1, 73, 127
1, 24576, Note_off_c, 1, 45, 0
1, 24588, Note_off_c, 1, 73, 0
1, 24600, Note_on_c, 1, 74, 127
1, 24600, Note_on_c, 1, 54, 127
1, 24648, Note_off_c, 1, 74, 0
1, 24660, Note_on_c, 1, 76, 127
1, 24696, Note_off_c, 1, 54, 0
1, 24708, Note_off_c, 1, 76, 0
1, 24720, Note_on_c, 1, 66, 127
1, 24720, Note_on_c, 1, 46, 127
1, 24765, Note_off_c, 1, 66, 0
1, 24816, Note_off_c, 1, 46, 0
1, 24960, Note_on_c, 1, 47, 127
1, 25020, Note_on_c, 1, 71, 127
1, 25056, Note_off_c, 1, 47, 0
1, 25068, Note_off_c, 1, 71, 0
1, 25200, Note_on_c, 1, 70, 127
1, 25200, Note_on_c, 1, 49, 127
1, 25245, Note_off_c, 1, 70, 0
1, 25296, Note_off_c, 1, 49, 0
1, 25320, Note_on_c, 1, 52, 127
1, 25416, Note_off_c, 1, 52, 0
1, 25440, Note_on_c, 1, 50, 127
1, 25488, Note_off_c, 1, 78, 0
1, 25536, Note_off_c, 1, 50, 0
1, 25560, Note_on_c, 1, 79, 127
1, 25560, Note_on_c, 1, 59, 127
1, 25608, Note_off_c, 1, 79, 0
1, 25620, Note_on_c, 1, 81, 127
1, 25656, Note_off_c, 1, 59, 0
1, 25668, Note_off_c, 1, 81, 0
1, 25680, Note_on_c, 1, 51, 127
1, 25776, Note_off_c, 1, 51, 0
1, 26160, Note_on_c, 1, 75, 127
1, 26205, Note_off_c, 1, 75, 0
1, 26280, Note_on_c, 1, 57, 127
1, 26376, Note_off_c, 1, 57, 0
1, 26400, Note_on_c, 1, 55, 127
1, 26496, Note_off_c, 1, 55, 0
1, 26520, Note_on_c, 1, 72, 127
1, 26568, Note_off_c, 1, 72, 0
1, 26640, Note_on_c, 1, 64, 127
1, 26640, Note_on_c, 1, 56, 127
1, 26685, Note_off_c, 1, 64, 0
1, 26736, Note_off_c, 1, 56, 0
1, 26940, Note_on_c, 1, 69, 127
1, 26988, Note_off_c, 1, 69, 0
1, 27120, Note_on_c, 1, 68, 127
1, 27165, Note_off_c, 1, 68, 0
1, 27360, Note_on_c, 1, 60, 127
1, 27456, Note_off_c, 1, 60, 0
1, 27600, Note_on_c, 1, 61, 127
1, 27696, Note_off_c, 1, 61, 0
1, 28560, Note_on_c, 1, 62, 127
1, 28605, Note_off_c, 1, 62, 0
1, 28860, Note_on_c, 1, 67, 127
1, 28908, Note_off_c, 1, 67, 0
1, 28920, Note_on_c, 1, 72, 127
1, 28920, Note_on_c, 1, 69, 127
1, 28920, Note_on_c, 1, 50, 127
1, 28968, Note_off_c, 1, 72, 0
1, 28968, Note_off_c, 1, 69, 0
1, 28980, Note_on_c, 1, 74, 127
1, 28980, Note_on_c, 1, 71, 127
1, 29016, Note_off_c, 1, 50, 0
1, 29028, Note_off_c, 1, 74, 0
1, 29028, Note_off_c, 1, 71, 0
1, 29040, Note_on_c, 1, 62, 127
1, 29040, Note_on_c, 1, 66, 127
1, 29085, Note_off_c, 1, 66, 0
1, 29100, Note_on_c, 1, 72, 127
1, 29100, Note_on_c, 1, 69, 127
1, 29136, Note_off_c, 1, 62, 0
1, 29148, Note_off_c, 1, 72, 0
1, 29148, Note_off_c, 1, 69, 0
1, 29160, Note_on_c, 1, 71, 127
1, 29160, Note_on_c, 1, 67, 127
1, 29160, Note_on_c, 1, 50, 127
1, 29208, Note_off_c, 1, 71, 0
1, 29208, Note_off_c, 1, 67, 0
1, 29220, Note_on_c, 1, 69, 127
1, 29220, Note_on_c, 1, 66, 127
1, 29256, Note_off_c, 1, 50, 0
1, 29268, Note_off_c, 1, 69, 0
1, 29268, Note_off_c, 1, 66, 0
1, 29280, Note_on_c, 1, 71, 127
1, 29280, Note_on_c, 1, 67, 127
1, 29280, Note_on_c, 1, 55, 127
1, 29325, Note_off_c, 1, 71, 0
1, 29376, Note_off_c, 1, 55, 0
1, 29400, Note_on_c, 1, 69, 127
1, 29400, Note_on_c, 1, 54, 127
1, 29448, Note_off_c, 1, 69, 0
1, 29496, Note_off_c, 1, 54, 0
1, 29520, Note_on_c, 1, 62, 127
1, 29565, Note_off_c, 1, 62, 0
1, 29568, Note_off_c, 1, 67, 0
1, 29580, Note_on_c, 1, 66, 127
1, 29628, Note_off_c, 1, 66, 0
1, 29640, Note_on_c, 1, 67, 127
1, 29640, Note_on_c, 1, 64, 127
1, 29640, Note_on_c, 1, 57, 127
1, 29688, Note_off_c, 1, 67, 0
1, 29688, Note_off_c, 1, 64, 0
1, 29700, Note_on_c, 1, 66, 127
1, 29700, Note_on_c, 1, 69, 127
1, 29736, Note_off_c, 1, 57, 0
1, 29748, Note_off_c, 1, 66, 0
1, 29748, Note_off_c, 1, 69, 0
1, 29760, Note_on_c, 1, 67, 127
1, 29760, Note_on_c, 1, 62, 127
1, 29760, Note_on_c, 1, 59, 127
1, 29856, Note_off_c, 1, 62, 0
1, 29856, Note_off_c, 1, 59, 0
1, 29880, Note_on_c, 1, 69, 127
1, 29880, Note_on_c, 1, 60, 127
1, 29904, Note_off_c, 1, 69, 0
1, 29910, Note_on_c, 1, 71, 127
1, 29934, Note_off_c, 1, 71, 0
1, 29940, Note_on_c, 1, 72, 127
1, 29976, Note_off_c, 1, 60, 0
1, 29988, Note_off_c, 1, 72, 0
1, 30048, Note_off_c, 1, 67, 0
1, 30060, Note_on_c, 1, 66, 127
1, 30108, Note_off_c, 1, 66, 0
1, 30120, Note_on_c, 1, 64, 127
1, 30120, Note_on_c, 1, 69, 127
1, 30120, Note_on_c, 1, 60, 127
1, 30168, Note_off_c, 1, 64, 0
1, 30216, Note_off_c, 1, 60, 0
1, 30228, Note_off_c, 1, 69, 0
1, 30240, Note_on_c, 1, 62, 127
1, 30240, Note_on_c, 1, 67, 127
1, 30240, Note_on_c, 1, 59, 127
1, 30330, Note_off_c, 1, 67, 0
1, 30336, Note_off_c, 1, 62, 0
1, 30336, Note_off_c, 1, 59, 0
1, 30360, Note_on_c, 1, 69, 127
1, 30360, Note_on_c, 1, 57, 127
1, 30384, Note_off_c, 1, 69, 0
1, 30390, Note_on_c, 1, 71, 127
1, 30414, Note_off_c, 1, 71, 0
1, 30420, Note_on_c, 1, 72, 127
1, 30456, Note_off_c, 1, 57, 0
1, 30468, Note_off_c, 1, 72, 0
1, 30480, Note_on_c, 1, 71, 127
1, 30480, Note_on_c, 1, 55, 127
1, 30570, Note_off_c, 1, 71, 0
1, 30576, Note_off_c, 1, 55, 0
1, 30600, Note_on_c, 1, 69, 127
1, 30600, Note_on_c, 1, 54, 127
1, 30690, Note_off_c, 1, 69, 0
1, 30696, Note_off_c, 1, 54, 0
1, 30720, Note_on_c, 1, 72, 127
1, 30720, Note_on_c, 1, 74, 127
1, 30720, Note_on_c, 1, 55, 127
1, 30744, Note_off_c, 1, 72, 0
1, 30750, Note_on_c, 1, 71, 127
1, 30774, Note_off_c, 1, 71, 0
1, 30816, Note_off_c, 1, 55, 0
1, 30840, Note_on_c, 1, 59, 127
1, 30936, Note_off_c, 1, 59, 0
1, 30960, Note_on_c, 1, 57, 127
1, 31008, Note_off_c, 1, 74, 0
1, 31020, Note_on_c, 1, 73, 127
1, 31056, Note_off_c, 1, 57, 0
1, 31068, Note_off_c, 1, 73, 0
1, 31080, Note_on_c, 1, 71, 127
1, 31080, Note_on_c, 1, 55, 127
1, 31128, Note_off_c, 1, 71, 0
1, 31140, Note_on_c, 1, 76, 127
1, 31176, Note_off_c, 1, 55, 0
1, 31188, Note_off_c, 1, 76, 0
1, 31200, Note_on_c, 1, 74, 127
1, 31200, Note_on_c, 1, 69, 127
1, 31200, Note_on_c, 1, 54, 127
1, 31290, Note_off_c, 1, 69, 0
1, 31296, Note_off_c, 1, 54, 0
1, 31320, Note_on_c, 1, 76, 127
1, 31320, Note_on_c, 1, 55, 127
1, 31344, Note_off_c, 1, 76, 0
1, 31350, Note_on_c, 1, 78, 127
1, 31374, Note_off_c, 1, 78, 0
1, 31380, Note_on_c, 1, 79, 127
1, 31416, Note_off_c, 1, 55, 0
1, 31428, Note_off_c, 1, 79, 0
1, 31440, Note_on_c, 1, 57, 127
1, 31488, Note_off_c, 1, 74, 0
1, 31500, Note_on_c, 1, 73, 127
1, 31536, Note_off_c, 1, 57, 0
1, 31548, Note_off_c, 1, 73, 0
1, 31560, Note_on_c, 1, 71, 127
1, 31560, Note_on_c, 1, 78, 127
1, 31560, Note_on_c, 1, 55, 127
1, 31584, Note_off_c, 1, 78, 0
1, 31590, Note_on_c, 1, 76, 127
1, 31608, Note_off_c, 1, 71, 0
1, 31614, Note_off_c, 1, 76, 0
1, 31656, Note_off_c, 1, 55, 0
1, 31680, Note_on_c, 1, 69, 127
1, 31680, Note_on_c, 1, 74, 127
1, 31680, Note_on_c, 1, 54, 127
1, 31776, Note_off_c, 1, 69, 0
1, 31776, Note_off_c, 1, 74, 0
1, 31776, Note_off_c, 1, 54, 0
1, 31800, Note_on_c, 1, 76, 127
1, 31800, Note_on_c, 1, 52, 127
1, 31824, Note_off_c, 1, 76, 0
1, 31830, Note_on_c, 1, 78, 127
1, 31854, Note_off_c, 1, 78, 0
1, 31860, Note_on_c, 1, 79, 127
1, 31896, Note_off_c, 1, 52, 0
1, 31908, Note_off_c, 1, 79, 0
1, 31920, Note_on_c, 1, 78, 127
1, 31920, Note_on_c, 1, 50, 127
1, 32016, Note_off_c, 1, 78, 0
1, 32016, Note_off_c, 1, 50, 0
1, 32040, Note_on_c, 1, 78, 127
1, 32040, Note_on_c, 1, 49, 127
1, 32064, Note_off_c, 1, 78, 0
1, 32070, Note_on_c, 1, 76, 127
1, 32094, Note_off_c, 1, 76, 0
1, 32136, Note_off_c, 1, 49, 0
1, 32160, Note_on_c, 1, 78, 127
1, 32160, Note_on_c, 1, 50, 127
1, 32208, Note_off_c, 1, 78, 0
1, 32220, Note_on_c, 1, 74, 127
1, 32256, Note_off_c, 1, 50, 0
1, 32268, Note_off_c, 1, 74, 0
1, 32280, Note_on_c, 1, 78, 127
1, 32280, Note_on_c, 1, 57, 127
1, 32328, Note_off_c, 1, 78, 0
1, 32340, Note_on_c, 1, 81, 127
1, 32376, Note_off_c, 1, 57, 0
1, 32388, Note_off_c, 1, 81, 0
1, 32400, Note_on_c, 1, 79, 127
1, 32400, Note_on_c, 1, 49, 127
1, 32496, Note_off_c, 1, 79, 0
1, 32496, Note_off_c, 1, 49, 0
1, 32520, Note_on_c, 1, 78, 127
1, 32520, Note_on_c, 1, 74, 127
1, 32520, Note_on_c, 1, 50, 127
1, 32616, Note_off_c, 1, 78, 0
1, 32616, Note_off_c, 1, 50, 0
1, 32640, Note_on_c, 1, 76, 127
1, 32640, Note_on_c, 1, 45, 127
1, 32688, Note_off_c, 1, 74, 0
1, 32700, Note_on_c, 1, 71, 127
1, 32736, Note_off_c, 1, 76, 0
1, 32748, Note_off_c, 1, 71, 0
1, 32760, Note_on_c, 1, 69, 127
1, 32760, Note_on_c, 1, 73, 127
1, 32808, Note_off_c, 1, 73, 0
1, 32832, Note_off_c, 1, 45, 0
1, 32856, Note_off_c, 1, 69, 0
1, 32880, Note_on_c, 1, 74, 127
1, 32976, Note_off_c, 1, 74, 0
1, 33000, Note_on_c, 1, 81, 127
1, 33000, Note_on_c, 1, 73, 127
1, 33096, Note_off_c, 1, 73, 0
1, 33120, Note_on_c, 1, 71, 127
1, 33120, Note_on_c, 1, 40, 127
1, 33168, Note_off_c, 1, 81, 0
1, 33180, Note_on_c, 1, 78, 127
1, 33216, Note_off_c, 1, 71, 0
1, 33228, Note_off_c, 1, 78, 0
1, 33240, Note_on_c, 1, 79, 127
1, 33240, Note_on_c, 1, 64, 127
1, 33288, Note_off_c, 1, 79, 0
1, 33300, Note_on_c, 1, 83, 127
1, 33312, Note_off_c, 1, 40, 0
1, 33336, Note_off_c, 1, 64, 0
1, 33348, Note_off_c, 1, 83, 0
1, 33360, Note_on_c, 1, 81, 127
1, 33456, Note_off_c, 1, 81, 0
1, 33480, Note_on_c, 1, 79, 127
1, 33480, Note_on_c, 1, 76, 127
1, 33576, Note_off_c, 1, 79, 0
1, 33600, Note_on_c, 1, 78, 127
1, 33600, Note_on_c, 1, 47, 127
1, 33648, Note_off_c, 1, 76, 0
1, 33660, Note_on_c, 1, 73, 127
1, 33696, Note_off_c, 1, 78, 0
1, 33708, Note_off_c, 1, 73, 0
1, 33720, Note_on_c, 1, 71, 127
1, 33720, Note_on_c, 1, 74, 127
1, 33768, Note_off_c, 1, 74, 0
1, 33792, Note_off_c, 1, 47, 0
1, 33816, Note_off_c, 1, 71, 0
1, 33840, Note_on_c, 1, 76, 127
1, 33936, Note_off_c, 1, 76, 0
1, 33960, Note_on_c, 1, 83, 127
1, 33960, Note_on_c, 1, 74, 127
1, 34056, Note_off_c, 1, 74, 0
1, 34080, Note_on_c, 1, 73, 127
1, 34080, Note_on_c, 1, 42, 127
1, 34128, Note_off_c, 1, 83, 0
1, 34140, Note_on_c, 1, 79, 127
1, 34176, Note_off_c, 1, 73, 0
1, 34176, Note_off_c, 1, 42, 0
1, 34188, Note_off_c, 1, 79, 0
1, 34200, Note_on_c, 1, 81, 127
1, 34200, Note_on_c, 1, 66, 127
1, 34248, Note_off_c, 1, 81, 0
1, 34260, Note_on_c, 1, 78, 127
1, 34296, Note_off_c, 1, 66, 0
1, 34308, Note_off_c, 1, 78, 0
1, 34320, Note_on_c, 1, 75, 127
1, 34320, Note_on_c, 1, 47, 127
1, 34368, Note_off_c, 1, 75, 0
1, 34380, Note_on_c, 1, 73, 127
1, 34416, Note_off_c, 1, 47, 0
1, 34428, Note_off_c, 1, 73, 0
1, 34440, Note_on_c, 1, 75, 127
1, 34440, Note_on_c, 1, 66, 127
1, 34488, Note_off_c, 1, 75, 0
1, 34500, Note_on_c, 1, 78, 127
1, 34548, Note_off_c, 1, 78, 0
1, 34560, Note_on_c, 1, 81, 127
1, 34560, Note_on_c, 1, 40, 127
1, 34608, Note_off_c, 1, 81, 0
1, 34656, Note_off_c, 1, 66, 0
1, 34656, Note_off_c, 1, 40, 0
1, 34680, Note_on_c, 1, 79, 127
1, 34680, Note_on_c, 1, 64, 127
1, 34728, Note_off_c, 1, 79, 0
1, 34740, Note_on_c, 1, 76, 127
1, 34776, Note_off_c, 1, 64, 0
1, 34788, Note_off_c, 1, 76, 0
1, 34800, Note_on_c, 1, 73, 127
1, 34800, Note_on_c, 1, 45, 127
1, 34848, Note_off_c, 1, 73, 0
1, 34860, Note_on_c, 1, 71, 127
1, 34896, Note_off_c, 1, 45, 0
1, 34908, Note_off_c, 1, 71, 0
1, 34920, Note_on_c, 1, 73, 127
1, 34920, Note_on_c, 1, 76, 127
1, 34968, Note_off_c, 1, 73, 0
1, 35040, Note_on_c, 1, 79, 127
1, 35040, Note_on_c, 1, 50, 127
1, 35097, Note_off_c, 1, 76, 0
1, 35136, Note_off_c, 1, 79, 0
1, 35136, Note_off_c, 1, 50, 0
1, 35160, Note_on_c, 1, 78, 127
1, 35160, Note_on_c, 1, 74, 127
1, 35217, Note_off_c, 1, 74, 0
1, 35220, Note_on_c, 1, 71, 127
1, 35256, Note_off_c, 1, 78, 0
1, 35277, Note_off_c, 1, 71, 0
1, 35280, Note_on_c, 1, 68, 127
1, 35280, Note_on_c, 1, 52, 127
1, 35337, Note_off_c, 1, 68, 0
1, 35340, Note_on_c, 1, 66, 127
1, 35376, Note_off_c, 1, 52, 0
1, 35397, Note_off_c, 1, 66, 0
1, 35400, Note_on_c, 1, 71, 127
1, 35400, Note_on_c, 1, 68, 127
1, 35457, Note_off_c, 1, 68, 0
1, 35520, Note_on_c, 1, 74, 127
1, 35520, Note_on_c, 1, 45, 127
1, 35568, Note_off_c, 1, 74, 0
1, 35616, Note_off_c, 1, 45, 0
1, 35628, Note_off_c, 1, 71, 0
1, 35640, Note_on_c, 1, 69, 127
1, 35640, Note_on_c, 1, 72, 127
1, 35688, Note_off_c, 1, 72, 0
1, 35748, Note_off_c, 1, 69, 0
1, 35760, Note_on_c, 1, 66, 127
1, 35760, Note_on_c, 1, 50, 127
1, 35808, Note_off_c, 1, 66, 0
1, 35820, Note_on_c, 1, 64, 127
1, 35856, Note_off_c, 1, 50, 0
1, 35868, Note_off_c, 1, 64, 0
1, 35880, Note_on_c, 1, 81, 127
1, 35880, Note_on_c, 1, 66, 127
1, 35928, Note_off_c, 1, 66, 0
1, 35940, Note_on_c, 1, 69, 127
1, 35988, Note_off_c, 1, 69, 0
1, 36000, Note_on_c, 1, 72, 127
1, 36000, Note_on_c, 1, 55, 127
1, 36048, Note_off_c, 1, 81, 0
1, 36060, Note_on_c, 1, 78, 127
1, 36096, Note_off_c, 1, 72, 0
1, 36096, Note_off_c, 1, 55, 0
1, 36108, Note_off_c, 1, 78, 0
1, 36120, Note_on_c, 1, 79, 127
1, 36120, Note_on_c, 1, 71, 127
1, 36168, Note_off_c, 1, 79, 0
1, 36180, Note_on_c, 1, 76, 127
1, 36216, Note_off_c, 1, 71, 0
1, 36228, Note_off_c, 1, 76, 0
1, 36240, Note_on_c, 1, 73, 127
1, 36240, Note_on_c, 1, 57, 127
1, 36288, Note_off_c, 1, 73, 0
1, 36300, Note_on_c, 1, 71, 127
1, 36336, Note_off_c, 1, 57, 0
1, 36348, Note_off_c, 1, 71, 0
1, 36360, Note_on_c, 1, 73, 127
1, 36360, Note_on_c, 1, 64, 127
1, 36408, Note_off_c, 1, 73, 0
1, 36420, Note_on_c, 1, 76, 127
1, 36468, Note_off_c, 1, 76, 0
1, 36480, Note_on_c, 1, 79, 127
1, 36480, Note_on_c, 1, 50, 127
1, 36528, Note_off_c, 1, 79, 0
1, 36576, Note_off_c, 1, 64, 0
1, 36576, Note_off_c, 1, 50, 0
1, 36600, Note_on_c, 1, 78, 127
1, 36600, Note_on_c, 1, 62, 127
1, 36648, Note_off_c, 1, 78, 0
1, 36660, Note_on_c, 1, 74, 127
1, 36696, Note_off_c, 1, 62, 0
1, 36708, Note_off_c, 1, 74, 0
1, 36720, Note_on_c, 1, 71, 127
1, 36720, Note_on_c, 1, 55, 127
1, 36768, Note_off_c, 1, 71, 0
1, 36780, Note_on_c, 1, 69, 127
1, 36816, Note_off_c, 1, 55, 0
1, 36828, Note_off_c, 1, 69, 0
1, 36840, Note_on_c, 1, 71, 127
1, 36840, Note_on_c, 1, 74, 127
1, 36888, Note_off_c, 1, 71, 0
1, 36960, Note_on_c, 1, 77, 127
1, 36960, Note_on_c, 1, 48, 127
1, 37008, Note_off_c, 1, 74, 0
1, 37056, Note_off_c, 1, 77, 0
1, 37056, Note_off_c, 1, 48, 0
1, 37080, Note_on_c, 1, 76, 127
1, 37080, Note_on_c, 1, 72, 127
1, 37128, Note_off_c, 1, 72, 0
1, 37140, Note_on_c, 1, 69, 127
1, 37176, Note_off_c, 1, 76, 0
1, 37188, Note_off_c, 1, 69, 0
1, 37200, Note_on_c, 1, 66, 127
1, 37200, Note_on_c, 1, 50, 127
1, 37248, Note_off_c, 1, 66, 0
1, 37260, Note_on_c, 1, 64, 127
1, 37296, Note_off_c, 1, 50, 0
1, 37308, Note_off_c, 1, 64, 0
1, 37320, Note_on_c, 1, 69, 127
1, 37320, Note_on_c, 1, 66, 127
1, 37368, Note_off_c, 1, 66, 0
1, 37440, Note_on_c, 1, 72, 127
1, 37440, Note_on_c, 1, 55, 127
1, 37488, Note_off_c, 1, 72, 0
1, 37536, Note_off_c, 1, 55, 0
1, 37548, Note_off_c, 1, 69, 0
1, 37560, Note_on_c, 1, 67, 127
1, 37560, Note_on_c, 1, 71, 127
1, 37608, Note_off_c, 1, 71, 0
1, 37668, Note_off_c, 1, 67, 0
1, 37680, Note_on_c, 1, 64, 127
1, 37680, Note_on_c, 1, 49, 127
1, 37728, Note_off_c, 1, 64, 0
1, 37740, Note_on_c, 1, 62, 127
1, 37776, Note_off_c, 1, 49, 0
1, 37788, Note_off_c, 1, 62, 0
1, 37800, Note_on_c, 1, 79, 127
1, 37800, Note_on_c, 1, 64, 127
1, 37848, Note_off_c, 1, 64, 0
1, 37860, Note_on_c, 1, 67, 127
1, 37908, Note_off_c, 1, 67, 0
1, 37920, Note_on_c, 1, 70, 127
1, 37920, Note_on_c, 1, 50, 127
1, 37968, Note_off_c, 1, 79, 0
1, 37980, Note_on_c, 1, 76, 127
1, 38016, Note_off_c, 1, 70, 0
1, 38016, Note_off_c, 1, 50, 0
1, 38028, Note_off_c, 1, 76, 0
1, 38040, Note_on_c, 1, 78, 127
1, 38040, Note_on_c, 1, 69, 127
1, 38088, Note_off_c, 1, 78, 0
1, 38100, Note_on_c, 1, 74, 127
1, 38136, Note_off_c, 1, 69, 0
1, 38148, Note_off_c, 1, 74, 0
1, 38160, Note_on_c, 1, 71, 127
1, 38160, Note_on_c, 1, 51, 127
1, 38208, Note_off_c, 1, 71, 0
1, 38220, Note_on_c, 1, 69, 127
1, 38256, Note_off_c, 1, 51, 0
1, 38268, Note_off_c, 1, 69, 0
1, 38280, Note_on_c, 1, 71, 127
1, 38280, Note_on_c, 1, 66, 127
1, 38328, Note_off_c, 1, 71, 0
1, 38340, Note_on_c, 1, 78, 127
1, 38388, Note_off_c, 1, 78, 0
1, 38400, Note_on_c, 1, 81, 127
1, 38400, Note_on_c, 1, 52, 127
1, 38448, Note_off_c, 1, 81, 0
1, 38496, Note_off_c, 1, 66, 0
1, 38496, Note_off_c, 1, 52, 0
1, 38520, Note_on_c, 1, 79, 127
1, 38520, Note_on_c, 1, 64, 127
1, 38568, Note_off_c, 1, 79, 0
1, 38580, Note_on_c, 1, 76, 127
1, 38616, Note_off_c, 1, 64, 0
1, 38628, Note_off_c, 1, 76, 0
1, 38640, Note_on_c, 1, 73, 127
1, 38640, Note_on_c, 1, 51, 127
1, 38688, Note_off_c, 1, 73, 0
1, 38700, Note_on_c, 1, 71, 127
1, 38736, Note_off_c, 1, 51, 0
1, 38748, Note_off_c, 1, 71, 0
1, 38760, Note_on_c, 1, 73, 127
1, 38760, Note_on_c, 1, 68, 127
1, 38808, Note_off_c, 1, 73, 0
1, 38820, Note_on_c, 1, 80, 127
1, 38868, Note_off_c, 1, 80, 0
1, 38880, Note_on_c, 1, 83, 127
1, 38880, Note_on_c, 1, 54, 127
1, 38928, Note_off_c, 1, 68, 0
1, 38940, Note_on_c, 1, 65, 127
1, 38976, Note_off_c, 1, 83, 0
1, 38976, Note_off_c, 1, 54, 0
1, 38988, Note_off_c, 1, 65, 0
1, 39000, Note_on_c, 1, 82, 127
1, 39000, Note_on_c, 1, 66, 127
1, 39000, Note_on_c, 1, 42, 127
1, 39048, Note_off_c, 1, 66, 0
1, 39060, Note_on_c, 1, 61, 127
1, 39096, Note_off_c, 1, 82, 0
1, 39096, Note_off_c, 1, 42, 0
1, 39108, Note_off_c, 1, 61, 0
1, 39120, Note_on_c, 1, 58, 127
1, 39168, Note_off_c, 1, 58, 0
1, 39180, Note_on_c, 1, 56, 127
1, 39228, Note_off_c, 1, 56, 0
1, 39240, Note_on_c, 1, 78, 127
1, 39240, Note_on_c, 1, 58, 127
1, 39288, Note_off_c, 1, 58, 0
1, 39300, Note_on_c, 1, 61, 127
1, 39336, Note_off_c, 1, 78, 0
1, 39348, Note_off_c, 1, 61, 0
1, 39360, Note_on_c, 1, 79, 127
1, 39360, Note_on_c, 1, 64, 127
1, 39384, Note_off_c, 1, 79, 0
1, 39390, Note_on_c, 1, 78, 127
1, 39408, Note_off_c, 1, 64, 0
1, 39414, Note_off_c, 1, 78, 0
1, 39420, Note_on_c, 1, 76, 127
1, 39420, Note_on_c, 1, 61, 127
1, 39468, Note_off_c, 1, 76, 0
1, 39468, Note_off_c, 1, 61, 0
1, 39480, Note_on_c, 1, 78, 127
1, 39480, Note_on_c, 1, 62, 127
1, 39528, Note_off_c, 1, 62, 0
1, 39540, Note_on_c, 1, 59, 127
1, 39576, Note_off_c, 1, 78, 0
1, 39588, Note_off_c, 1, 59, 0
1, 39600, Note_on_c, 1, 71, 127
1, 39600, Note_on_c, 1, 56, 127
1, 39648, Note_off_c, 1, 56, 0
1, 39660, Note_on_c, 1, 54, 127
1, 39696, Note_off_c, 1, 71, 0
1, 39708, Note_off_c, 1, 54, 0
1, 39720, Note_on_c, 1, 73, 127
1, 39720, Note_on_c, 1, 56, 127
1, 39720, Note_on_c, 1, 54, 127
1, 39768, Note_off_c, 1, 56, 0
1, 39780, Note_on_c, 1, 58, 127
1, 39816, Note_off_c, 1, 73, 0
1, 39816, Note_off_c, 1, 54, 0
1, 39828, Note_off_c, 1, 58, 0
1, 39840, Note_on_c, 1, 76, 127
1, 39840, Note_on_c, 1, 59, 127
1, 39840, Note_on_c, 1, 47, 127
1, 39864, Note_off_c, 1, 76, 0
1, 39870, Note_on_c, 1, 74, 127
1, 39894, Note_off_c, 1, 74, 0
1, 39936, Note_off_c, 1, 59, 0
1, 39936, Note_off_c, 1, 47, 0
1, 39960, Note_on_c, 1, 73, 127
1, 39960, Note_on_c, 1, 70, 127
1, 39960, Note_on_c, 1, 54, 127
1, 40008, Note_off_c, 1, 73, 0
1, 40020, Note_on_c, 1, 74, 127
1, 40056, Note_off_c, 1, 70, 0
1, 40056, Note_off_c, 1, 54, 0
1, 40068, Note_off_c, 1, 74, 0
1, 40080, Note_on_c, 1, 71, 127
1, 40080, Note_on_c, 1, 50, 127
1, 40140, Note_on_c, 1, 66, 127
1, 40176, Note_off_c, 1, 71, 0
1, 40176, Note_off_c, 1, 50, 0
1, 40188, Note_off_c, 1, 66, 0
1, 40200, Note_on_c, 1, 73, 127
1, 40200, Note_on_c, 1, 70, 127
1, 40200, Note_on_c, 1, 54, 127
1, 40248, Note_off_c, 1, 73, 0
1, 40260, Note_on_c, 1, 66, 127
1, 40296, Note_off_c, 1, 70, 0
1, 40296, Note_off_c, 1, 54, 0
1, 40308, Note_off_c, 1, 66, 0
1, 40320, Note_on_c, 1, 74, 127
1, 40320, Note_on_c, 1, 71, 127
1, 40320, Note_on_c, 1, 47, 127
1, 40368, Note_off_c, 1, 74, 0
1, 40380, Note_on_c, 1, 66, 127
1, 40416, Note_off_c, 1, 71, 0
1, 40416, Note_off_c, 1, 47, 0
1, 40428, Note_off_c, 1, 66, 0
1, 40440, Note_on_c, 1, 73, 127
1, 40440, Note_on_c, 1, 66, 127
1, 40440, Note_on_c, 1, 46, 127
1, 40488, Note_off_c, 1, 73, 0
1, 40536, Note_off_c, 1, 46, 0
1, 40548, Note_off_c, 1, 66, 0
1, 40560, Note_on_c, 1, 74, 127
1, 40560, Note_on_c, 1, 47, 127
1, 40608, Note_off_c, 1, 74, 0
1, 40620, Note_on_c, 1, 71, 127
1, 40656, Note_off_c, 1, 47, 0
1, 40668, Note_off_c, 1, 71, 0
1, 40680, Note_on_c, 1, 76, 127
1, 40680, Note_on_c, 1, 44, 127
1, 40770, Note_off_c, 1, 76, 0
1, 40776, Note_off_c, 1, 44, 0
1, 40800, Note_on_c, 1, 74, 127
1, 40800, Note_on_c, 1, 45, 127
1, 40824, Note_off_c, 1, 74, 0
1, 40830, Note_on_c, 1, 73, 127
1, 40854, Note_off_c, 1, 73, 0
1, 40896, Note_off_c, 1, 45, 0
1, 40920, Note_on_c, 1, 71, 127
1, 40920, Note_on_c, 1, 68, 127
1, 40920, Note_on_c, 1, 52, 127
1, 40968, Note_off_c, 1, 71, 0
1, 40980, Note_on_c, 1, 73, 127
1, 41016, Note_off_c, 1, 68, 0
1, 41016, Note_off_c, 1, 52, 0
1, 41028, Note_off_c, 1, 73, 0
1, 41040, Note_on_c, 1, 69, 127
1, 41040, Note_on_c, 1, 49, 127
1, 41100, Note_on_c, 1, 64, 127
1, 41136, Note_off_c, 1, 69, 0
1, 41136, Note_off_c, 1, 49, 0
1, 41148, Note_off_c, 1, 64, 0
1, 41160, Note_on_c, 1, 71, 127
1, 41160, Note_on_c, 1, 68, 127
1, 41160, Note_on_c, 1, 52, 127
1, 41208, Note_off_c, 1, 71, 0
1, 41220, Note_on_c, 1, 64, 127
1, 41256, Note_off_c, 1, 68, 0
1, 41256, Note_off_c, 1, 52, 0
1, 41268, Note_off_c, 1, 64, 0
1, 41280, Note_on_c, 1, 73, 127
1, 41280, Note_on_c, 1, 69, 127
1, 41280, Note_on_c, 1, 45, 127
1, 41328, Note_off_c, 1, 73, 0
1, 41340, Note_on_c, 1, 64, 127
1, 41376, Note_off_c, 1, 69, 0
1, 41376, Note_off_c, 1, 45, 0
1, 41388, Note_off_c, 1, 64, 0
1, 41400, Note_on_c, 1, 71, 127
1, 41400, Note_on_c, 1, 64, 127
1, 41400, Note_on_c, 1, 44, 127
1, 41448, Note_off_c, 1, 71, 0
1, 41496, Note_off_c, 1, 44, 0
1, 41508, Note_off_c, 1, 64, 0
1, 41520, Note_on_c, 1, 73, 127
1, 41520, Note_on_c, 1, 45, 127
1, 41568, Note_off_c, 1, 73, 0
1, 41580, Note_on_c, 1, 69, 127
1, 41616, Note_off_c, 1, 45, 0
1, 41628, Note_off_c, 1, 69, 0
1, 41640, Note_on_c, 1, 74, 127
1, 41640, Note_on_c, 1, 42, 127
1, 41730, Note_off_c, 1, 74, 0
1, 41736, Note_off_c, 1, 42, 0
1, 41760, Note_on_c, 1, 72, 127
1, 41760, Note_on_c, 1, 43, 127
1, 41805, Note_off_c, 1, 72, 0
1, 41820, Note_on_c, 1, 71, 127
1, 41856, Note_off_c, 1, 43, 0
1, 41868, Note_off_c, 1, 71, 0
1, 41880, Note_on_c, 1, 70, 127
1, 41880, Note_on_c, 1, 64, 127
1, 41928, Note_off_c, 1, 70, 0
1, 41940, Note_on_c, 1, 71, 127
1, 41976, Note_off_c, 1, 64, 0
1, 41988, Note_off_c, 1, 71, 0
1, 42000, Note_on_c, 1, 75, 127
1, 42000, Note_on_c, 1, 66, 127
1, 42000, Note_on_c, 1, 45, 127
1, 42045, Note_off_c, 1, 75, 0
1, 42060, Note_on_c, 1, 71, 127
1, 42096, Note_off_c, 1, 66, 0
1, 42096, Note_off_c, 1, 45, 0
1, 42108, Note_off_c, 1, 71, 0
1, 42120, Note_on_c, 1, 70, 127
1, 42120, Note_on_c, 1, 63, 127
1, 42168, Note_off_c, 1, 70, 0
1, 42180, Note_on_c, 1, 71, 127
1, 42216, Note_off_c, 1, 63, 0
1, 42228, Note_off_c, 1, 71, 0
1, 42240, Note_on_c, 1, 76, 127
1, 42240, Note_on_c, 1, 67, 127
1, 42240, Note_on_c, 1, 43, 127
1, 42285, Note_off_c, 1, 76, 0
1, 42300, Note_on_c, 1, 71, 127
1, 42336, Note_off_c, 1, 67, 0
1, 42336, Note_off_c, 1, 43, 0
1, 42348, Note_off_c, 1, 71, 0
1, 42360, Note_on_c, 1, 70, 127
1, 42360, Note_on_c, 1, 64, 127
1, 42408, Note_off_c, 1, 70, 0
1, 42420, Note_on_c, 1, 71, 127
1, 42456, Note_off_c, 1, 64, 0
1, 42468, Note_off_c, 1, 71, 0
1, 42480, Note_on_c, 1, 78, 127
1, 42480, Note_on_c, 1, 69, 127
1, 42480, Note_on_c, 1, 42, 127
1, 42525, Note_off_c, 1, 78, 0
1, 42540, Note_on_c, 1, 71, 127
1, 42576, Note_off_c, 1, 69, 0
1, 42576, Note_off_c, 1, 42, 0
1, 42588, Note_off_c, 1, 71, 0
1, 42600, Note_on_c, 1, 70, 127
1, 42600, Note_on_c, 1, 66, 127
1, 42648, Note_off_c, 1, 70, 0
1, 42660, Note_on_c, 1, 71, 127
1, 42696, Note_off_c, 1, 66, 0
1, 42708, Note_off_c, 1, 71, 0
1, 42720, Note_on_c, 1, 79, 127
1, 42720, Note_on_c, 1, 71, 127
1, 42720, Note_on_c, 1, 40, 127
1, 42768, Note_off_c, 1, 71, 0
1, 42780, Note_on_c, 1, 69, 127
1, 42816, Note_off_c, 1, 40, 0
1, 42828, Note_off_c, 1, 69, 0
1, 42840, Note_on_c, 1, 43, 127
1, 42900, Note_on_c, 1, 67, 127
1, 42936, Note_off_c, 1, 43, 0
1, 42945, Note_off_c, 1, 67, 0
1, 42960, Note_on_c, 1, 64, 127
1, 42960, Note_on_c, 1, 48, 127
1, 43008, Note_off_c, 1, 64, 0
1, 43020, Note_on_c, 1, 63, 127
1, 43056, Note_off_c, 1, 48, 0
1, 43068, Note_off_c, 1, 63, 0
1, 43080, Note_on_c, 1, 47, 127
1, 43176, Note_off_c, 1, 47, 0
1, 43200, Note_on_c, 1, 72, 127
1, 43200, Note_on_c, 1, 45, 127
1, 43224, Note_off_c, 1, 72, 0
1, 43248, Note_off_c, 1, 79, 0
1, 43260, Note_on_c, 1, 78, 127
1, 43296, Note_off_c, 1, 45, 0
1, 43308, Note_off_c, 1, 78, 0
1, 43320, Note_on_c, 1, 79, 127
1, 43320, Note_on_c, 1, 71, 127
1, 43320, Note_on_c, 1, 43, 127
1, 43368, Note_off_c, 1, 79, 0
1, 43380, Note_on_c, 1, 76, 127
1, 43410, Note_off_c, 1, 71, 0
1, 43428, Note_off_c, 1, 76, 0
1, 43440, Note_on_c, 1, 73, 127
1, 43440, Note_on_c, 1, 64, 127
1, 43488, Note_off_c, 1, 73, 0
1, 43512, Note_off_c, 1, 43, 0
1, 43536, Note_off_c, 1, 64, 0
1, 43560, Note_on_c, 1, 81, 127
1, 43560, Note_on_c, 1, 66, 127
1, 43560, Note_on_c, 1, 42, 127
1, 43608, Note_off_c, 1, 81, 0
1, 43620, Note_on_c, 1, 75, 127
1, 43656, Note_off_c, 1, 66, 0
1, 43656, Note_off_c, 1, 42, 0
1, 43668, Note_off_c, 1, 75, 0
1, 43680, Note_on_c, 1, 76, 127
1, 43680, Note_on_c, 1, 69, 127
1, 43680, Note_on_c, 1, 40, 127
1, 43704, Note_off_c, 1, 69, 0
1, 43710, Note_on_c, 1, 67, 127
1, 43734, Note_off_c, 1, 67, 0
1, 43776, Note_off_c, 1, 76, 0
1, 43776, Note_off_c, 1, 40, 0
1, 43800, Note_on_c, 1, 75, 127
1, 43800, Note_on_c, 1, 66, 127
1, 43800, Note_on_c, 1, 59, 127
1, 43848, Note_off_c, 1, 66, 0
1, 43860, Note_on_c, 1, 67, 127
1, 43896, Note_off_c, 1, 75, 0
1, 43896, Note_off_c, 1, 59, 0
1, 43908, Note_off_c, 1, 67, 0
1, 43920, Note_on_c, 1, 76, 127
1, 43920, Note_on_c, 1, 64, 127
1, 43920, Note_on_c, 1, 55, 127
1, 43968, Note_off_c, 1, 64, 0
1, 43980, Note_on_c, 1, 59, 127
1, 44016, Note_off_c, 1, 76, 0
1, 44016, Note_off_c, 1, 55, 0
1, 44028, Note_off_c, 1, 59, 0
1, 44040, Note_on_c, 1, 75, 127
1, 44040, Note_on_c, 1, 66, 127
1, 44040, Note_on_c, 1, 59, 127
1, 44088, Note_off_c, 1, 66, 0
1, 44136, Note_off_c, 1, 75, 0
1, 44148, Note_off_c, 1, 59, 0
1, 44160, Note_on_c, 1, 76, 127
1, 44160, Note_on_c, 1, 67, 127
1, 44160, Note_on_c, 1, 52, 127
1, 44208, Note_off_c, 1, 67, 0
1, 44220, Note_on_c, 1, 59, 127
1, 44256, Note_off_c, 1, 76, 0
1, 44256, Note_off_c, 1, 52, 0
1, 44268, Note_off_c, 1, 59, 0
1, 44280, Note_on_c, 1, 71, 127
1, 44280, Note_on_c, 1, 66, 127
1, 44280, Note_on_c, 1, 51, 127
1, 44328, Note_off_c, 1, 66, 0
1, 44340, Note_on_c, 1, 59, 127
1, 44376, Note_off_c, 1, 71, 0
1, 44376, Note_off_c, 1, 51, 0
1, 44388, Note_off_c, 1, 59, 0
1, 44400, Note_on_c, 1, 67, 127
1, 44400, Note_on_c, 1, 52, 127
1, 44448, Note_off_c, 1, 67, 0
1, 44460, Note_on_c, 1, 64, 127
1, 44496, Note_off_c, 1, 52, 0
1, 44508, Note_off_c, 1, 64, 0
1, 44520, Note_on_c, 1, 69, 127
1, 44520, Note_on_c, 1, 49, 127
1, 44610, Note_off_c, 1, 69, 0
1, 44616, Note_off_c, 1, 49, 0
1, 44640, Note_on_c, 1, 67, 127
1, 44640, Note_on_c, 1, 50, 127
1, 44664, Note_off_c, 1, 67, 0
1, 44670, Note_on_c, 1, 66, 127
1, 44694, Note_off_c, 1, 66, 0
1, 44736, Note_off_c, 1, 50, 0
1, 44760, Note_on_c, 1, 73, 127
1, 44760, Note_on_c, 1, 64, 127
1, 44760, Note_on_c, 1, 57, 127
1, 44808, Note_off_c, 1, 64, 0
1, 44820, Note_on_c, 1, 66, 127
1, 44856, Note_off_c, 1, 73, 0
1, 44856, Note_off_c, 1, 57, 0
1, 44868, Note_off_c, 1, 66, 0
1, 44880, Note_on_c, 1, 74, 127
1, 44880, Note_on_c, 1, 62, 127
1, 44880, Note_on_c, 1, 54, 127
1, 44928, Note_off_c, 1, 62, 0
1, 44940, Note_on_c, 1, 57, 127
1, 44976, Note_off_c, 1, 74, 0
1, 44976, Note_off_c, 1, 54, 0
1, 44988, Note_off_c, 1, 57, 0
1, 45000, Note_on_c, 1, 73, 127
1, 45000, Note_on_c, 1, 64, 127
1, 45000, Note_on_c, 1, 57, 127
1, 45048, Note_off_c, 1, 64, 0
1, 45096, Note_off_c, 1, 73, 0
1, 45108, Note_off_c, 1, 57, 0
1, 45120, Note_on_c, 1, 74, 127
1, 45120, Note_on_c, 1, 66, 127
1, 45120, Note_on_c, 1, 50, 127
1, 45168, Note_off_c, 1, 66, 0
1, 45180, Note_on_c, 1, 57, 127
1, 45216, Note_off_c, 1, 74, 0
1, 45216, Note_off_c, 1, 50, 0
1, 45228, Note_off_c, 1, 57, 0
1, 45240, Note_on_c, 1, 69, 127
1, 45240, Note_on_c, 1, 64, 127
1, 45240, Note_on_c, 1, 49, 127
1, 45288, Note_off_c, 1, 64, 0
1, 45300, Note_on_c, 1, 57, 127
1, 45336, Note_off_c, 1, 69, 0
1, 45336, Note_off_c, 1, 49, 0
1, 45348, Note_off_c, 1, 57, 0
1, 45360, Note_on_c, 1, 66, 127
1, 45360, Note_on_c, 1, 50, 127
1, 45408, Note_off_c, 1, 66, 0
1, 45420, Note_on_c, 1, 62, 127
1, 45456, Note_off_c, 1, 50, 0
1, 45468, Note_off_c, 1, 62, 0
1, 45480, Note_on_c, 1, 67, 127
1, 45480, Note_on_c, 1, 47, 127
1, 45570, Note_off_c, 1, 67, 0
1, 45576, Note_off_c, 1, 47, 0
1, 45600, Note_on_c, 1, 65, 127
1, 45600, Note_on_c, 1, 48, 127
1, 45645, Note_off_c, 1, 65, 0
1, 45660, Note_on_c, 1, 64, 127
1, 45696, Note_off_c, 1, 48, 0
1, 45708, Note_off_c, 1, 64, 0
1, 45720, Note_on_c, 1, 69, 127
1, 45720, Note_on_c, 1, 63, 127
1, 45768, Note_off_c, 1, 63, 0
1, 45780, Note_on_c, 1, 64, 127
1, 45816, Note_off_c, 1, 69, 0
1, 45828, Note_off_c, 1, 64, 0
1, 45840, Note_on_c, 1, 71, 127
1, 45840, Note_on_c, 1, 68, 127
1, 45840, Note_on_c, 1, 50, 127
1, 45885, Note_off_c, 1, 68, 0
1, 45900, Note_on_c, 1, 64, 127
1, 45936, Note_off_c, 1, 71, 0
1, 45936, Note_off_c, 1, 50, 0
1, 45948, Note_off_c, 1, 64, 0
1, 45960, Note_on_c, 1, 68, 127
1, 45960, Note_on_c, 1, 63, 127
1, 46008, Note_off_c, 1, 63, 0
1, 46020, Note_on_c, 1, 64, 127
1, 46056, Note_off_c, 1, 68, 0
1, 46068, Note_off_c, 1, 64, 0
1, 46080, Note_on_c, 1, 72, 127
1, 46080, Note_on_c, 1, 69, 127
1, 46080, Note_on_c, 1, 48, 127
1, 46125, Note_off_c, 1, 69, 0
1, 46140, Note_on_c, 1, 64, 127
1, 46176, Note_off_c, 1, 72, 0
1, 46176, Note_off_c, 1, 48, 0
1, 46188, Note_off_c, 1, 64, 0
1, 46200, Note_on_c, 1, 69, 127
1, 46200, Note_on_c, 1, 63, 127
1, 46248, Note_off_c, 1, 63, 0
1, 46260, Note_on_c, 1, 64, 127
1, 46296, Note_off_c, 1, 69, 0
1, 46308, Note_off_c, 1, 64, 0
1, 46320, Note_on_c, 1, 74, 127
1, 46320, Note_on_c, 1, 71, 127
1, 46320, Note_on_c, 1, 47, 127
1, 46365, Note_off_c, 1, 71, 0
1, 46380, Note_on_c, 1, 64, 127
1, 46416, Note_off_c, 1, 74, 0
1, 46416, Note_off_c, 1, 47, 0
1, 46428, Note_off_c, 1, 64, 0
1, 46440, Note_on_c, 1, 71, 127
1, 46440, Note_on_c, 1, 63, 127
1, 46488, Note_off_c, 1, 63, 0
1, 46500, Note_on_c, 1, 64, 127
1, 46536, Note_off_c, 1, 71, 0
1, 46548, Note_off_c, 1, 64, 0
1, 46560, Note_on_c, 1, 76, 127
1, 46560, Note_on_c, 1, 72, 127
1, 46560, Note_on_c, 1, 45, 127
1, 46605, Note_off_c, 1, 76, 0
1, 46620, Note_on_c, 1, 69, 127
1, 46656, Note_off_c, 1, 72, 0
1, 46656, Note_off_c, 1, 45, 0
1, 46668, Note_off_c, 1, 69, 0
1, 46680, Note_on_c, 1, 68, 127
1, 46680, Note_on_c, 1, 62, 127
1, 46728, Note_off_c, 1, 68, 0
1, 46740, Note_on_c, 1, 69, 127
1, 46776, Note_off_c, 1, 62, 0
1, 46788, Note_off_c, 1, 69, 0
1, 46800, Note_on_c, 1, 73, 127
1, 46800, Note_on_c, 1, 64, 127
1, 46800, Note_on_c, 1, 55, 127
1, 46845, Note_off_c, 1, 73, 0
1, 46860, Note_on_c, 1, 69, 127
1, 46896, Note_off_c, 1, 64, 0
1, 46896, Note_off_c, 1, 55, 0
1, 46908, Note_off_c, 1, 69, 0
1, 46920, Note_on_c, 1, 68, 127
1, 46920, Note_on_c, 1, 61, 127
1, 46968, Note_off_c, 1, 68, 0
1, 46980, Note_on_c, 1, 69, 127
1, 47016, Note_off_c, 1, 61, 0
1, 47028, Note_off_c, 1, 69, 0
1, 47040, Note_on_c, 1, 74, 127
1, 47040, Note_on_c, 1, 66, 127
1, 47040, Note_on_c, 1, 54, 127
1, 47085, Note_off_c, 1, 74, 0
1, 47100, Note_on_c, 1, 69, 127
1, 47136, Note_off_c, 1, 66, 0
1, 47136, Note_off_c, 1, 54, 0
1, 47148, Note_off_c, 1, 69, 0
1, 47160, Note_on_c, 1, 68, 127
1, 47160, Note_on_c, 1, 62, 127
1, 47208, Note_off_c, 1, 68, 0
1, 47220, Note_on_c, 1, 69, 127
1, 47256, Note_off_c, 1, 62, 0
1, 47268, Note_off_c, 1, 69, 0
1, 47280, Note_on_c, 1, 76, 127
1, 47280, Note_on_c, 1, 67, 127
1, 47280, Note_on_c, 1, 52, 127
1, 47325, Note_off_c, 1, 76, 0
1, 47340, Note_on_c, 1, 69, 127
1, 47376, Note_off_c, 1, 67, 0
1, 47376, Note_off_c, 1, 52, 0
1, 47388, Note_off_c, 1, 69, 0
1, 47400, Note_on_c, 1, 68, 127
1, 47400, Note_on_c, 1, 64, 127
1, 47448, Note_off_c, 1, 68, 0
1, 47460, Note_on_c, 1, 69, 127
1, 47496, Note_off_c, 1, 64, 0
1, 47508, Note_off_c, 1, 69, 0
1, 47520, Note_on_c, 1, 78, 127
1, 47520, Note_on_c, 1, 69, 127
1, 47520, Note_on_c, 1, 50, 127
1, 47565, Note_off_c, 1, 78, 0
1, 47565, Note_off_c, 1, 69, 0
1, 47580, Note_on_c, 1, 62, 127
1, 47616, Note_off_c, 1, 50, 0
1, 47628, Note_off_c, 1, 62, 0
1, 47640, Note_on_c, 1, 79, 127
1, 47640, Note_on_c, 1, 61, 127
1, 47688, Note_off_c, 1, 79, 0
1, 47688, Note_off_c, 1, 61, 0
1, 47700, Note_on_c, 1, 78, 127
1, 47700, Note_on_c, 1, 62, 127
1, 47748, Note_off_c, 1, 78, 0
1, 47748, Note_off_c, 1, 62, 0
1, 47760, Note_on_c, 1, 69, 127
1, 47760, Note_on_c, 1, 66, 127
1, 47760, Note_on_c, 1, 48, 127
1, 47805, Note_off_c, 1, 69, 0
1, 47805, Note_off_c, 1, 66, 0
1, 47820, Note_on_c, 1, 78, 127
1, 47820, Note_on_c, 1, 62, 127
1, 47856, Note_off_c, 1, 48, 0
1, 47868, Note_off_c, 1, 78, 0
1, 47868, Note_off_c, 1, 62, 0
1, 47880, Note_on_c, 1, 79, 127
1, 47880, Note_on_c, 1, 61, 127
1, 47928, Note_off_c, 1, 79, 0
1, 47928, Note_off_c, 1, 61, 0
1, 47940, Note_on_c, 1, 78, 127
1, 47940, Note_on_c, 1, 62, 127
1, 47988, Note_off_c, 1, 78, 0
1, 47988, Note_off_c, 1, 62, 0
1, 48000, Note_on_c, 1, 71, 127
1, 48000, Note_on_c, 1, 67, 127
1, 48000, Note_on_c, 1, 47, 127
1, 48045, Note_off_c, 1, 71, 0
1, 48045, Note_off_c, 1, 67, 0
1, 48060, Note_on_c, 1, 78, 127
1, 48060, Note_on_c, 1, 62, 127
1, 48096, Note_off_c, 1, 47, 0
1, 48108, Note_off_c, 1, 78, 0
1, 48108, Note_off_c, 1, 62, 0
1, 48120, Note_on_c, 1, 79, 127
1, 48120, Note_on_c, 1, 61, 127
1, 48168, Note_off_c, 1, 79, 0
1, 48168, Note_off_c, 1, 61, 0
1, 48180, Note_on_c, 1, 78, 127
1, 48180, Note_on_c, 1, 62, 127
1, 48228, Note_off_c, 1, 78, 0
1, 48228, Note_off_c, 1, 62, 0
1, 48240, Note_on_c, 1, 72, 127
1, 48240, Note_on_c, 1, 69, 127
1, 48240, Note_on_c, 1, 45, 127
1, 48285, Note_off_c, 1, 72, 0
1, 48285, Note_off_c, 1, 69, 0
1, 48300, Note_on_c, 1, 78, 127
1, 48300, Note_on_c, 1, 62, 127
1, 48336, Note_off_c, 1, 45, 0
1, 48348, Note_off_c, 1, 78, 0
1, 48348, Note_off_c, 1, 62, 0
1, 48360, Note_on_c, 1, 79, 127
1, 48360, Note_on_c, 1, 61, 127
1, 48408, Note_off_c, 1, 79, 0
1, 48408, Note_off_c, 1, 61, 0
1, 48420, Note_on_c, 1, 78, 127
1, 48420, Note_on_c, 1, 62, 127
1, 48468, Note_off_c, 1, 78, 0
1, 48468, Note_off_c, 1, 62, 0
1, 48480, Note_on_c, 1, 79, 127
1, 48480, Note_on_c, 1, 71, 127
1, 48480, Note_on_c, 1, 43, 127
1, 48525, Note_off_c, 1, 79, 0
1, 48525, Note_off_c, 1, 71, 0
1, 48540, Note_on_c, 1, 67, 127
1, 48576, Note_off_c, 1, 43, 0
1, 48588, Note_off_c, 1, 67, 0
1, 48600, Note_on_c, 1, 66, 127
1, 48600, Note_on_c, 1, 72, 127
1, 48648, Note_off_c, 1, 66, 0
1, 48648, Note_off_c, 1, 72, 0
1, 48660, Note_on_c, 1, 67, 127
1, 48660, Note_on_c, 1, 71, 127
1, 48708, Note_off_c, 1, 67, 0
1, 48708, Note_off_c, 1, 71, 0
1, 48720, Note_on_c, 1, 71, 127
1, 48720, Note_on_c, 1, 62, 127
1, 48720, Note_on_c, 1, 41, 127
1, 48765, Note_off_c, 1, 71, 0
1, 48765, Note_off_c, 1, 62, 0
1, 48780, Note_on_c, 1, 67, 127
1, 48816, Note_off_c, 1, 41, 0
1, 48828, Note_off_c, 1, 67, 0
1, 48840, Note_on_c, 1, 66, 127
1, 48840, Note_on_c, 1, 72, 127
1, 48888, Note_off_c, 1, 66, 0
1, 48888, Note_off_c, 1, 72, 0
1, 48900, Note_on_c, 1, 67, 127
1, 48900, Note_on_c, 1, 71, 127
1, 48948, Note_off_c, 1, 67, 0
1, 48948, Note_off_c, 1, 71, 0
1, 48960, Note_on_c, 1, 72, 127
1, 48960, Note_on_c, 1, 64, 127
1, 48960, Note_on_c, 1, 40, 127
1, 49005, Note_off_c, 1, 72, 0
1, 49005, Note_off_c, 1, 64, 0
1, 49020, Note_on_c, 1, 67, 127
1, 49020, Note_on_c, 1, 71, 127
1, 49056, Note_off_c, 1, 40, 0
1, 49068, Note_off_c, 1, 67, 0
1, 49068, Note_off_c, 1, 71, 0
1, 49080, Note_on_c, 1, 66, 127
1, 49080, Note_on_c, 1, 72, 127
1, 49128, Note_off_c, 1, 66, 0
1, 49128, Note_off_c, 1, 72, 0
1, 49140, Note_on_c, 1, 67, 127
1, 49140, Note_on_c, 1, 71, 127
1, 49188, Note_off_c, 1, 67, 0
1, 49188, Note_off_c, 1, 71, 0
1, 49200, Note_on_c, 1, 74, 127
1, 49200, Note_on_c, 1, 65, 127
1, 49200, Note_on_c, 1, 38, 127
1, 49245, Note_off_c, 1, 74, 0
1, 49245, Note_off_c, 1, 65, 0
1, 49260, Note_on_c, 1, 67, 127
1, 49260, Note_on_c, 1, 71, 127
1, 49296, Note_off_c, 1, 38, 0
1, 49308, Note_off_c, 1, 67, 0
1, 49308, Note_off_c, 1, 71, 0
1, 49320, Note_on_c, 1, 66, 127
1, 49320, Note_on_c, 1, 72, 127
1, 49368, Note_off_c, 1, 66, 0
1, 49368, Note_off_c, 1, 72, 0
1, 49380, Note_on_c, 1, 67, 127
1, 49380, Note_on_c, 1, 71, 127
1, 49428, Note_off_c, 1, 67, 0
1, 49428, Note_off_c, 1, 71, 0
1, 49440, Note_on_c, 1, 76, 127
1, 49440, Note_on_c, 1, 67, 127
1, 49440, Note_on_c, 1, 36, 127
1, 49488, Note_off_c, 1, 76, 0
1, 49488, Note_off_c, 1, 67, 0
1, 49500, Note_on_c, 1, 74, 127
1, 49500, Note_on_c, 1, 71, 127
1, 49548, Note_off_c, 1, 74, 0
1, 49548, Note_off_c, 1, 71, 0
1, 49560, Note_on_c, 1, 72, 127
1, 49632, Note_off_c, 1, 36, 0
1, 49680, Note_on_c, 1, 64, 127
1, 49680, Note_on_c, 1, 48, 127
1, 49728, Note_off_c, 1, 72, 0
1, 49728, Note_off_c, 1, 64, 0
1, 49800, Note_on_c, 1, 69, 127
1, 49800, Note_on_c, 1, 60, 127
1, 49848, Note_off_c, 1, 69, 0
1, 49872, Note_off_c, 1, 48, 0
1, 49896, Note_off_c, 1, 60, 0
1, 49920, Note_on_c, 1, 67, 127
1, 49920, Note_on_c, 1, 48, 127
1, 50016, Note_off_c, 1, 67, 0
1, 50040, Note_on_c, 1, 74, 127
1, 50064, Note_off_c, 1, 74, 0
1, 50070, Note_on_c, 1, 76, 127
1, 50094, Note_off_c, 1, 76, 0
1, 50100, Note_on_c, 1, 77, 127
1, 50112, Note_off_c, 1, 48, 0
1, 50148, Note_off_c, 1, 77, 0
1, 50160, Note_on_c, 1, 76, 127
1, 50160, Note_on_c, 1, 47, 127
1, 50250, Note_off_c, 1, 76, 0
1, 50280, Note_on_c, 1, 74, 127
1, 50309, Note_off_c, 1, 74, 0
1, 50310, Note_on_c, 1, 72, 127
1, 50334, Note_off_c, 1, 72, 0
1, 50352, Note_off_c, 1, 47, 0
1, 50400, Note_on_c, 1, 76, 127
1, 50400, Note_on_c, 1, 48, 127
1, 50448, Note_off_c, 1, 76, 0
1, 50460, Note_on_c, 1, 72, 127
1, 50508, Note_off_c, 1, 72, 0
1, 50580, Note_on_c, 1, 79, 127
1, 50592, Note_off_c, 1, 48, 0
1, 50628, Note_off_c, 1, 79, 0
1, 50640, Note_on_c, 1, 78, 127
1, 50736, Note_off_c, 1, 78, 0
1, 50760, Note_on_c, 1, 78, 127
1, 50760, Note_on_c, 1, 36, 127
1, 50784, Note_off_c, 1, 78, 0
1, 50790, Note_on_c, 1, 76, 127
1, 50814, Note_off_c, 1, 76, 0
1, 50856, Note_off_c, 1, 36, 0
1, 50880, Note_on_c, 1, 74, 127
1, 50880, Note_on_c, 1, 67, 127
1, 50880, Note_on_c, 1, 43, 127
1, 50976, Note_off_c, 1, 74, 0
1, 50976, Note_off_c, 1, 43, 0
1, 51000, Note_on_c, 1, 69, 127
1, 51000, Note_on_c, 1, 45, 127
1, 51096, Note_off_c, 1, 69, 0
1, 51096, Note_off_c, 1, 45, 0
1, 51120, Note_on_c, 1, 79, 127
1, 51120, Note_on_c, 1, 47, 127
1, 51168, Note_off_c, 1, 67, 0
1, 51180, Note_on_c, 1, 66, 127
1, 51216, Note_off_c, 1, 47, 0
1, 51228, Note_off_c, 1, 66, 0
1, 51240, Note_on_c, 1, 64, 127
1, 51240, Note_on_c, 1, 48, 127
1, 51288, Note_off_c, 1, 64, 0
1, 51336, Note_off_c, 1, 48, 0
1, 51360, Note_on_c, 1, 62, 127
1, 51360, Note_on_c, 1, 50, 127
1, 51456, Note_off_c, 1, 79, 0
1, 51456, Note_off_c, 1, 62, 0
1, 51456, Note_off_c, 1, 50, 0
1, 51480, Note_on_c, 1, 78, 127
1, 51480, Note_on_c, 1, 69, 127
1, 51480, Note_on_c, 1, 52, 127
1, 51504, Note_off_c, 1, 69, 0
1, 51510, Note_on_c, 1, 71, 127
1, 51528, Note_off_c, 1, 78, 0
1, 51534, Note_off_c, 1, 71, 0
1, 51540, Note_on_c, 1, 76, 127
1, 51540, Note_on_c, 1, 72, 127
1, 51576, Note_off_c, 1, 52, 0
1, 51588, Note_off_c, 1, 76, 0
1, 51588, Note_off_c, 1, 72, 0
1, 51600, Note_on_c, 1, 79, 127
1, 51600, Note_on_c, 1, 71, 127
1, 51600, Note_on_c, 1, 50, 127
1, 51624, Note_off_c, 1, 79, 0
1, 51630, Note_on_c, 1, 78, 127
1, 51654, Note_off_c, 1, 78, 0
1, 51690, Note_off_c, 1, 71, 0
1, 51696, Note_off_c, 1, 50, 0
1, 51720, Note_on_c, 1, 79, 127
1, 51720, Note_on_c, 1, 69, 127
1, 51720, Note_on_c, 1, 48, 127
1, 51744, Note_off_c, 1, 79, 0
1, 51750, Note_on_c, 1, 78, 127
1, 51779, Note_off_c, 1, 78, 0
1, 51780, Note_on_c, 1, 76, 127
1, 51804, Note_off_c, 1, 76, 0
1, 51816, Note_off_c, 1, 69, 0
1, 51816, Note_off_c, 1, 48, 0
1, 51840, Note_on_c, 1, 79, 127
1, 51840, Note_on_c, 1, 71, 127
1, 51840, Note_on_c, 1, 47, 127
1, 51888, Note_off_c, 1, 71, 0
1, 51900, Note_on_c, 1, 67, 127
1, 51936, Note_off_c, 1, 47, 0
1, 51948, Note_off_c, 1, 67, 0
1, 51960, Note_on_c, 1, 50, 127
1, 52020, Note_on_c, 1, 74, 127
1, 52032, Note_off_c, 1, 79, 0
1, 52056, Note_off_c, 1, 50, 0
1, 52068, Note_off_c, 1, 74, 0
1, 52080, Note_on_c, 1, 72, 127
1, 52080, Note_on_c, 1, 42, 127
1, 52176, Note_off_c, 1, 72, 0
1, 52176, Note_off_c, 1, 42, 0
1, 52200, Note_on_c, 1, 67, 127
1, 52200, Note_on_c, 1, 71, 127
1, 52200, Note_on_c, 1, 43, 127
1, 52296, Note_off_c, 1, 67, 0
1, 52296, Note_off_c, 1, 71, 0
1, 52296, Note_off_c, 1, 43, 0
1, 52320, Note_on_c, 1, 66, 127
1, 52320, Note_on_c, 1, 69, 127
1, 52320, Note_on_c, 1, 38, 127
1, 52368, Note_off_c, 1, 66, 0
1, 52380, Note_on_c, 1, 62, 127
1, 52416, Note_off_c, 1, 69, 0
1, 52416, Note_off_c, 1, 38, 0
1, 52428, Note_off_c, 1, 62, 0
1, 52440, Note_on_c, 1, 66, 127
1, 52440, Note_on_c, 1, 62, 127
1, 52488, Note_off_c, 1, 66, 0
1, 52500, Note_on_c, 1, 69, 127
1, 52536, Note_off_c, 1, 62, 0
1, 52548, Note_off_c, 1, 69, 0
1, 52560, Note_on_c, 1, 72, 127
1, 52560, Note_on_c, 1, 54, 127
1, 52608, Note_off_c, 1, 72, 0
1, 52620, Note_on_c, 1, 71, 127
1, 52620, Note_on_c, 1, 62, 127
1, 52656, Note_off_c, 1, 54, 0
1, 52668, Note_off_c, 1, 71, 0
1, 52668, Note_off_c, 1, 62, 0
1, 52680, Note_on_c, 1, 72, 127
1, 52680, Note_on_c, 1, 66, 127
1, 52680, Note_on_c, 1, 57, 127
1, 52728, Note_off_c, 1, 66, 0
1, 52740, Note_on_c, 1, 69, 127
1, 52776, Note_off_c, 1, 72, 0
1, 52776, Note_off_c, 1, 57, 0
1, 52788, Note_off_c, 1, 69, 0
1, 52800, Note_on_c, 1, 72, 127
1, 52800, Note_on_c, 1, 50, 127
1, 52848, Note_off_c, 1, 72, 0
1, 52860, Note_on_c, 1, 62, 127
1, 52860, Note_on_c, 1, 71, 127
1, 52896, Note_off_c, 1, 50, 0
1, 52908, Note_off_c, 1, 62, 0
1, 52908, Note_off_c, 1, 71, 0
1, 52920, Note_on_c, 1, 66, 127
1, 52920, Note_on_c, 1, 72, 127
1, 52920, Note_on_c, 1, 62, 127
1, 52968, Note_off_c, 1, 66, 0
1, 52980, Note_on_c, 1, 69, 127
1, 53016, Note_off_c, 1, 72, 0
1, 53016, Note_off_c, 1, 62, 0
1, 53028, Note_off_c, 1, 69, 0
1, 53040, Note_on_c, 1, 72, 127
1, 53040, Note_on_c, 1, 54, 127
1, 53088, Note_off_c, 1, 72, 0
1, 53100, Note_on_c, 1, 71, 127
1, 53100, Note_on_c, 1, 62, 127
1, 53136, Note_off_c, 1, 54, 0
1, 53148, Note_off_c, 1, 71, 0
1, 53148, Note_off_c, 1, 62, 0
1, 53160, Note_on_c, 1, 72, 127
1, 53160, Note_on_c, 1, 66, 127
1, 53160, Note_on_c, 1, 57, 127
1, 53208, Note_off_c, 1, 66, 0
1, 53220, Note_on_c, 1, 69, 127
1, 53256, Note_off_c, 1, 72, 0
1, 53256, Note_off_c, 1, 57, 0
1, 53268, Note_off_c, 1, 69, 0
1, 53280, Note_on_c, 1, 72, 127
1, 53280, Note_on_c, 1, 50, 127
1, 53328, Note_off_c, 1, 72, 0
1, 53340, Note_on_c, 1, 62, 127
1, 53340, Note_on_c, 1, 71, 127
1, 53376, Note_off_c, 1, 50, 0
1, 53388, Note_off_c, 1, 62, 0
1, 53388, Note_off_c, 1, 71, 0
1, 53400, Note_on_c, 1, 66, 127
1, 53400, Note_on_c, 1, 72, 127
1, 53400, Note_on_c, 1, 62, 127
1, 53448, Note_off_c, 1, 66, 0
1, 53460, Note_on_c, 1, 69, 127
1, 53496, Note_off_c, 1, 72, 0
1, 53496, Note_off_c, 1, 62, 0
1, 53508, Note_off_c, 1, 69, 0
1, 53520, Note_on_c, 1, 72, 127
1, 53520, Note_on_c, 1, 54, 127
1, 53568, Note_off_c, 1, 72, 0
1, 53580, Note_on_c, 1, 71, 127
1, 53616, Note_off_c, 1, 54, 0
1, 53628, Note_off_c, 1, 71, 0
1, 53640, Note_on_c, 1, 69, 127
1, 53640, Note_on_c, 1, 57, 127
1, 53688, Note_off_c, 1, 69, 0
1, 53700, Note_on_c, 1, 67, 127
1, 53736, Note_off_c, 1, 57, 0
1, 53748, Note_off_c, 1, 67, 0
1, 53760, Note_on_c, 1, 66, 127
1, 53760, Note_on_c, 1, 50, 127
1, 53808, Note_off_c, 1, 66, 0
1, 53820, Note_on_c, 1, 62, 127
1, 53856, Note_off_c, 1, 50, 0
1, 53868, Note_off_c, 1, 62, 0
1, 53880, Note_on_c, 1, 66, 127
1, 53880, Note_on_c, 1, 69, 127
1, 53880, Note_on_c, 1, 48, 127
1, 53928, Note_off_c, 1, 66, 0
1, 53928, Note_off_c, 1, 69, 0
1, 53940, Note_on_c, 1, 74, 127
1, 53976, Note_off_c, 1, 48, 0
1, 53988, Note_off_c, 1, 74, 0
1, 54000, Note_on_c, 1, 74, 127
1, 54000, Note_on_c, 1, 78, 127
1, 54000, Note_on_c, 1, 47, 127
1, 54048, Note_off_c, 1, 74, 0
1, 54048, Note_off_c, 1, 78, 0
1, 54060, Note_on_c, 1, 72, 127
1, 54060, Note_on_c, 1, 81, 127
1, 54096, Note_off_c, 1, 47, 0
1, 54108, Note_off_c, 1, 72, 0
1, 54108, Note_off_c, 1, 81, 0
1, 54120, Note_on_c, 1, 71, 127
1, 54120, Note_on_c, 1, 79, 127
1, 54120, Note_on_c, 1, 50, 127
1, 54168, Note_off_c, 1, 71, 0
1, 54168, Note_off_c, 1, 79, 0
1, 54180, Note_on_c, 1, 69, 127
1, 54180, Note_on_c, 1, 78, 127
1, 54216, Note_off_c, 1, 50, 0
1, 54228, Note_off_c, 1, 69, 0
1, 54228, Note_off_c, 1, 78, 0
1, 54240, Note_on_c, 1, 71, 127
1, 54240, Note_on_c, 1, 79, 127
1, 54240, Note_on_c, 1, 43, 127
1, 54288, Note_off_c, 1, 71, 0
1, 54300, Note_on_c, 1, 69, 127
1, 54336, Note_off_c, 1, 79, 0
1, 54336, Note_off_c, 1, 43, 0
1, 54348, Note_off_c, 1, 69, 0
1, 54360, Note_on_c, 1, 67, 127
1, 54360, Note_on_c, 1, 62, 127
1, 54360, Note_on_c, 1, 45, 127
1, 54456, Note_off_c, 1, 62, 0
1, 54456, Note_off_c, 1, 45, 0
1, 54480, Note_on_c, 1, 47, 127
1, 54540, Note_on_c, 1, 66, 127
1, 54576, Note_off_c, 1, 47, 0
1, 54588, Note_off_c, 1, 66, 0
1, 54600, Note_on_c, 1, 64, 127
1, 54600, Note_on_c, 1, 48, 127
1, 54648, Note_off_c, 1, 64, 0
1, 54660, Note_on_c, 1, 69, 127
1, 54696, Note_off_c, 1, 48, 0
1, 54708, Note_off_c, 1, 69, 0
1, 54720, Note_on_c, 1, 50, 127
1, 54816, Note_off_c, 1, 67, 0
1, 54816, Note_off_c, 1, 50, 0
1, 54840, Note_on_c, 1, 69, 127
1, 54840, Note_on_c, 1, 66, 127
1, 54840, Note_on_c, 1, 52, 127
1, 54864, Note_off_c, 1, 69, 0
1, 54870, Note_on_c, 1, 71, 127
1, 54888, Note_off_c, 1, 66, 0
1, 54894, Note_off_c, 1, 71, 0
1, 54900, Note_on_c, 1, 72, 127
1, 54900, Note_on_c, 1, 64, 127
1, 54936, Note_off_c, 1, 52, 0
1, 54948, Note_off_c, 1, 72, 0
1, 54948, Note_off_c, 1, 64, 0
1, 54960, Note_on_c, 1, 71, 127
1, 54960, Note_on_c, 1, 67, 127
1, 54960, Note_on_c, 1, 50, 127
1, 54984, Note_off_c, 1, 67, 0
1, 54990, Note_on_c, 1, 66, 127
1, 55014, Note_off_c, 1, 66, 0
1, 55050, Note_off_c, 1, 71, 0
1, 55056, Note_off_c, 1, 50, 0
1, 55080, Note_on_c, 1, 71, 127
1, 55080, Note_on_c, 1, 67, 127
1, 55080, Note_on_c, 1, 48, 127
1, 55104, Note_off_c, 1, 71, 0
1, 55104, Note_off_c, 1, 67, 0
1, 55110, Note_on_c, 1, 69, 127
1, 55110, Note_on_c, 1, 66, 127
1, 55134, Note_off_c, 1, 69, 0
1, 55139, Note_off_c, 1, 66, 0
1, 55140, Note_on_c, 1, 64, 127
1, 55164, Note_off_c, 1, 64, 0
1, 55176, Note_off_c, 1, 48, 0
1, 55200, Note_on_c, 1, 71, 127
1, 55200, Note_on_c, 1, 67, 127
1, 55200, Note_on_c, 1, 47, 127
1, 55248, Note_off_c, 1, 71, 0
1, 55296, Note_off_c, 1, 47, 0
1, 55320, Note_on_c, 1, 50, 127
1, 55380, Note_on_c, 1, 74, 127
1, 55392, Note_off_c, 1, 67, 0
1, 55416, Note_off_c, 1, 50, 0
1, 55428, Note_off_c, 1, 74, 0
1, 55440, Note_on_c, 1, 72, 127
1, 55440, Note_on_c, 1, 42, 127
1, 55536, Note_off_c, 1, 72, 0
1, 55536, Note_off_c, 1, 42, 0
1, 55560, Note_on_c, 1, 71, 127
1, 55560, Note_on_c, 1, 43, 127
1, 55656, Note_off_c, 1, 71, 0
1, 55656, Note_off_c, 1, 43, 0
1, 55680, Note_on_c, 1, 69, 127
1, 55680, Note_on_c, 1, 62, 127
1, 55680, Note_on_c, 1, 50, 127
1, 55776, Note_off_c, 1, 69, 0
1, 55776, Note_off_c, 1, 50, 0
1, 55800, Note_on_c, 1, 52, 127
1, 55896, Note_off_c, 1, 52, 0
1, 55920, Note_on_c, 1, 74, 127
1, 55920, Note_on_c, 1, 54, 127
1, 55968, Note_off_c, 1, 62, 0
1, 55980, Note_on_c, 1, 61, 127
1, 56016, Note_off_c, 1, 54, 0
1, 56028, Note_off_c, 1, 61, 0
1, 56040, Note_on_c, 1, 59, 127
1, 56040, Note_on_c, 1, 55, 127
1, 56088, Note_off_c, 1, 59, 0
1, 56100, Note_on_c, 1, 64, 127
1, 56136, Note_off_c, 1, 55, 0
1, 56148, Note_off_c, 1, 64, 0
1, 56160, Note_on_c, 1, 57, 127
1, 56256, Note_off_c, 1, 74, 0
1, 56256, Note_off_c, 1, 57, 0
1, 56280, Note_on_c, 1, 73, 127
1, 56280, Note_on_c, 1, 64, 127
1, 56280, Note_on_c, 1, 59, 127
1, 56304, Note_off_c, 1, 64, 0
1, 56310, Note_on_c, 1, 66, 127
1, 56328, Note_off_c, 1, 73, 0
1, 56334, Note_off_c, 1, 66, 0
1, 56340, Note_on_c, 1, 71, 127
1, 56340, Note_on_c, 1, 67, 127
1, 56376, Note_off_c, 1, 59, 0
1, 56388, Note_off_c, 1, 71, 0
1, 56388, Note_off_c, 1, 67, 0
1, 56400, Note_on_c, 1, 74, 127
1, 56400, Note_on_c, 1, 66, 127
1, 56400, Note_on_c, 1, 57, 127
1, 56424, Note_off_c, 1, 74, 0
1, 56430, Note_on_c, 1, 73, 127
1, 56454, Note_off_c, 1, 73, 0
1, 56490, Note_off_c, 1, 66, 0
1, 56496, Note_off_c, 1, 57, 0
1, 56520, Note_on_c, 1, 74, 127
1, 56520, Note_on_c, 1, 66, 127
1, 56520, Note_on_c, 1, 55, 127
1, 56544, Note_off_c, 1, 74, 0
1, 56544, Note_off_c, 1, 66, 0
1, 56550, Note_on_c, 1, 73, 127
1, 56550, Note_on_c, 1, 64, 127
1, 56574, Note_off_c, 1, 64, 0
1, 56579, Note_off_c, 1, 73, 0
1, 56580, Note_on_c, 1, 71, 127
1, 56604, Note_off_c, 1, 71, 0
1, 56616, Note_off_c, 1, 55, 0
1, 56640, Note_on_c, 1, 74, 127
1, 56640, Note_on_c, 1, 66, 127
1, 56640, Note_on_c, 1, 54, 127
1, 56688, Note_off_c, 1, 66, 0
1, 56700, Note_on_c, 1, 62, 127
1, 56736, Note_off_c, 1, 54, 0
1, 56748, Note_off_c, 1, 62, 0
1, 56760, Note_on_c, 1, 57, 127
1, 56820, Note_on_c, 1, 69, 127
1, 56832, Note_off_c, 1, 74, 0
1, 56856, Note_off_c, 1, 57, 0
1, 56868, Note_off_c, 1, 69, 0
1, 56880, Note_on_c, 1, 67, 127
1, 56880, Note_on_c, 1, 49, 127
1, 56976, Note_off_c, 1, 67, 0
1, 56976, Note_off_c, 1, 49, 0
1, 57000, Note_on_c, 1, 74, 127
1, 57000, Note_on_c, 1, 66, 127
1, 57000, Note_on_c, 1, 50, 127
1, 57096, Note_off_c, 1, 74, 0
1, 57096, Note_off_c, 1, 66, 0
1, 57096, Note_off_c, 1, 50, 0
1, 57120, Note_on_c, 1, 73, 127
1, 57120, Note_on_c, 1, 64, 127
1, 57120, Note_on_c, 1, 45, 127
1, 57168, Note_off_c, 1, 73, 0
1, 57180, Note_on_c, 1, 69, 127
1, 57216, Note_off_c, 1, 64, 0
1, 57216, Note_off_c, 1, 45, 0
1, 57228, Note_off_c, 1, 69, 0
1, 57240, Note_on_c, 1, 73, 127
1, 57240, Note_on_c, 1, 57, 127
1, 57288, Note_off_c, 1, 73, 0
1, 57300, Note_on_c, 1, 76, 127
1, 57336, Note_off_c, 1, 57, 0
1, 57348, Note_off_c, 1, 76, 0
1, 57360, Note_on_c, 1, 79, 127
1, 57360, Note_on_c, 1, 49, 127
1, 57408, Note_off_c, 1, 79, 0
1, 57420, Note_on_c, 1, 78, 127
1, 57420, Note_on_c, 1, 69, 127
1, 57456, Note_off_c, 1, 49, 0
1, 57468, Note_off_c, 1, 78, 0
1, 57468, Note_off_c, 1, 69, 0
1, 57480, Note_on_c, 1, 79, 127
1, 57480, Note_on_c, 1, 73, 127
1, 57480, Note_on_c, 1, 52, 127
1, 57528, Note_off_c, 1, 73, 0
1, 57540, Note_on_c, 1, 76, 127
1, 57576, Note_off_c, 1, 79, 0
1, 57576, Note_off_c, 1, 52, 0
1, 57588, Note_off_c, 1, 76, 0
1, 57600, Note_on_c, 1, 79, 127
1, 57600, Note_on_c, 1, 45, 127
1, 57648, Note_off_c, 1, 79, 0
1, 57660, Note_on_c, 1, 69, 127
1, 57660, Note_on_c, 1, 78, 127
1, 57696, Note_off_c, 1, 45, 0
1, 57708, Note_off_c, 1, 69, 0
1, 57708, Note_off_c, 1, 78, 0
1, 57720, Note_on_c, 1, 73, 127
1, 57720, Note_on_c, 1, 79, 127
1, 57720, Note_on_c, 1, 57, 127
1, 57768, Note_off_c, 1, 73, 0
1, 57780, Note_on_c, 1, 76, 127
1, 57816, Note_off_c, 1, 79, 0
1, 57816, Note_off_c, 1, 57, 0
1, 57828, Note_off_c, 1, 76, 0
1, 57840, Note_on_c, 1, 79, 127
1, 57840, Note_on_c, 1, 49, 127
1, 57888, Note_off_c, 1, 79, 0
1, 57900, Note_on_c, 1, 78, 127
1, 57900, Note_on_c, 1, 69, 127
1, 57936, Note_off_c, 1, 49, 0
1, 57948, Note_off_c, 1, 78, 0
1, 57948, Note_off_c, 1, 69, 0
1, 57960, Note_on_c, 1, 79, 127
1, 57960, Note_on_c, 1, 73, 127
1, 57960, Note_on_c, 1, 52, 127
1, 58008, Note_off_c, 1, 73, 0
1, 58020, Note_on_c, 1, 76, 127
1, 58056, Note_off_c, 1, 79, 0
1, 58056, Note_off_c, 1, 52, 0
1, 58068, Note_off_c, 1, 76, 0
1, 58080, Note_on_c, 1, 79, 127
1, 58080, Note_on_c, 1, 45, 127
1, 58128, Note_off_c, 1, 79, 0
1, 58140, Note_on_c, 1, 69, 127
1, 58140, Note_on_c, 1, 78, 127
1, 58176, Note_off_c, 1, 45, 0
1, 58188, Note_off_c, 1, 69, 0
1, 58188, Note_off_c, 1, 78, 0
1, 58200, Note_on_c, 1, 73, 127
1, 58200, Note_on_c, 1, 79, 127
1, 58200, Note_on_c, 1, 57, 127
1, 58248, Note_off_c, 1, 73, 0
1, 58260, Note_on_c, 1, 76, 127
1, 58296, Note_off_c, 1, 79, 0
1, 58296, Note_off_c, 1, 57, 0
1, 58308, Note_off_c, 1, 76, 0
1, 58320, Note_on_c, 1, 79, 127
1, 58320, Note_on_c, 1, 49, 127
1, 58368, Note_off_c, 1, 79, 0
1, 58380, Note_on_c, 1, 78, 127
1, 58416, Note_off_c, 1, 49, 0
1, 58428, Note_off_c, 1, 78, 0
1, 58440, Note_on_c, 1, 76, 127
1, 58440, Note_on_c, 1, 52, 127
1, 58488, Note_off_c, 1, 76, 0
1, 58500, Note_on_c, 1, 74, 127
1, 58536, Note_off_c, 1, 52, 0
1, 58548, Note_off_c, 1, 74, 0
1, 58560, Note_on_c, 1, 73, 127
1, 58560, Note_on_c, 1, 45, 127
1, 58608, Note_off_c, 1, 73, 0
1, 58620, Note_on_c, 1, 69, 127
1, 58620, Note_on_c, 1, 61, 127
1, 58656, Note_off_c, 1, 45, 0
1, 58668, Note_off_c, 1, 69, 0
1, 58668, Note_off_c, 1, 61, 0
1, 58680, Note_on_c, 1, 73, 127
1, 58680, Note_on_c, 1, 64, 127
1, 58680, Note_on_c, 1, 55, 127
1, 58728, Note_off_c, 1, 73, 0
1, 58728, Note_off_c, 1, 64, 0
1, 58740, Note_on_c, 1, 76, 127
1, 58740, Note_on_c, 1, 69, 127
1, 58776, Note_off_c, 1, 55, 0
1, 58788, Note_off_c, 1, 76, 0
1, 58788, Note_off_c, 1, 69, 0
1, 58800, Note_on_c, 1, 81, 127
1, 58800, Note_on_c, 1, 73, 127
1, 58800, Note_on_c, 1, 54, 127
1, 58848, Note_off_c, 1, 81, 0
1, 58848, Note_off_c, 1, 73, 0
1, 58860, Note_on_c, 1, 79, 127
1, 58860, Note_on_c, 1, 76, 127
1, 58896, Note_off_c, 1, 54, 0
1, 58908, Note_off_c, 1, 79, 0
1, 58908, Note_off_c, 1, 76, 0
1, 58920, Note_on_c, 1, 78, 127
1, 58920, Note_on_c, 1, 74, 127
1, 58920, Note_on_c, 1, 57, 127
1, 58968, Note_off_c, 1, 78, 0
1, 58968, Note_off_c, 1, 74, 0
1, 58980, Note_on_c, 1, 76, 127
1, 58980, Note_on_c, 1, 73, 127
1, 59016, Note_off_c, 1, 57, 0
1, 59028, Note_off_c, 1, 76, 0
1, 59028, Note_off_c, 1, 73, 0
1, 59040, Note_on_c, 1, 78, 127
1, 59040, Note_on_c, 1, 74, 127
1, 59040, Note_on_c, 1, 50, 127
1, 59088, Note_off_c, 1, 74, 0
1, 59100, Note_on_c, 1, 57, 127
1, 59136, Note_off_c, 1, 78, 0
1, 59136, Note_off_c, 1, 50, 0
1, 59148, Note_off_c, 1, 57, 0
1, 59160, Note_on_c, 1, 74, 127
1, 59160, Note_on_c, 1, 62, 127
1, 59160, Note_on_c, 1, 59, 127
1, 59208, Note_off_c, 1, 62, 0
1, 59220, Note_on_c, 1, 66, 127
1, 59256, Note_off_c, 1, 74, 0
1, 59256, Note_off_c, 1, 59, 0
1, 59268, Note_off_c, 1, 66, 0
1, 59280, Note_on_c, 1, 69, 127
1, 59280, Note_on_c, 1, 51, 127
1, 59328, Note_off_c, 1, 69, 0
1, 59340, Note_on_c, 1, 71, 127
1, 59340, Note_on_c, 1, 67, 127
1, 59376, Note_off_c, 1, 51, 0
1, 59388, Note_off_c, 1, 71, 0
1, 59388, Note_off_c, 1, 67, 0
1, 59400, Note_on_c, 1, 75, 127
1, 59400, Note_on_c, 1, 69, 127
1, 59400, Note_on_c, 1, 54, 127
1, 59448, Note_off_c, 1, 75, 0
1, 59460, Note_on_c, 1, 78, 127
1, 59496, Note_off_c, 1, 69, 0
1, 59496, Note_off_c, 1, 54, 0
1, 59508, Note_off_c, 1, 78, 0
1, 59520, Note_on_c, 1, 81, 127
1, 59520, Note_on_c, 1, 47, 127
1, 59568, Note_off_c, 1, 81, 0
1, 59580, Note_on_c, 1, 79, 127
1, 59580, Note_on_c, 1, 59, 127
1, 59616, Note_off_c, 1, 47, 0
1, 59628, Note_off_c, 1, 79, 0
1, 59628, Note_off_c, 1, 59, 0
1, 59640, Note_on_c, 1, 81, 127
1, 59640, Note_on_c, 1, 63, 127
1, 59640, Note_on_c, 1, 59, 127
1, 59688, Note_off_c, 1, 63, 0
1, 59700, Note_on_c, 1, 66, 127
1, 59736, Note_off_c, 1, 81, 0
1, 59736, Note_off_c, 1, 59, 0
1, 59748, Note_off_c, 1, 66, 0
1, 59760, Note_on_c, 1, 69, 127
1, 59760, Note_on_c, 1, 51, 127
1, 59808, Note_off_c, 1, 69, 0
1, 59820, Note_on_c, 1, 71, 127
1, 59820, Note_on_c, 1, 67, 127
1, 59856, Note_off_c, 1, 51, 0
1, 59868, Note_off_c, 1, 71, 0
1, 59868, Note_off_c, 1, 67, 0
1, 59880, Note_on_c, 1, 75, 127
1, 59880, Note_on_c, 1, 69, 127
1, 59880, Note_on_c, 1, 54, 127
1, 59928, Note_off_c, 1, 75, 0
1, 59940, Note_on_c, 1, 78, 127
1, 59976, Note_off_c, 1, 69, 0
1, 59976, Note_off_c, 1, 54, 0
1, 59988, Note_off_c, 1, 78, 0
1, 60000, Note_on_c, 1, 81, 127
1, 60000, Note_on_c, 1, 47, 127
1, 60048, Note_off_c, 1, 81, 0
1, 60060, Note_on_c, 1, 79, 127
1, 60060, Note_on_c, 1, 59, 127
1, 60096, Note_off_c, 1, 47, 0
1, 60108, Note_off_c, 1, 79, 0
1, 60108, Note_off_c, 1, 59, 0
1, 60120, Note_on_c, 1, 81, 127
1, 60120, Note_on_c, 1, 63, 127
1, 60120, Note_on_c, 1, 59, 127
1, 60168, Note_off_c, 1, 63, 0
1, 60180, Note_on_c, 1, 66, 127
1, 60216, Note_off_c, 1, 81, 0
1, 60216, Note_off_c, 1, 59, 0
1, 60228, Note_off_c, 1, 66, 0
1, 60240, Note_on_c, 1, 69, 127
1, 60240, Note_on_c, 1, 51, 127
1, 60288, Note_off_c, 1, 69, 0
1, 60300, Note_on_c, 1, 67, 127
1, 60336, Note_off_c, 1, 51, 0
1, 60348, Note_off_c, 1, 67, 0
1, 60360, Note_on_c, 1, 66, 127
1, 60360, Note_on_c, 1, 54, 127
1, 60408, Note_off_c, 1, 66, 0
1, 60420, Note_on_c, 1, 64, 127
1, 60456, Note_off_c, 1, 54, 0
1, 60468, Note_off_c, 1, 64, 0
1, 60480, Note_on_c, 1, 63, 127
1, 60480, Note_on_c, 1, 47, 127
1, 60528, Note_off_c, 1, 63, 0
1, 60540, Note_on_c, 1, 75, 127
1, 60540, Note_on_c, 1, 59, 127
1, 60576, Note_off_c, 1, 47, 0
1, 60588, Note_off_c, 1, 75, 0
1, 60588, Note_off_c, 1, 59, 0
1, 60600, Note_on_c, 1, 78, 127
1, 60600, Note_on_c, 1, 63, 127
1, 60600, Note_on_c, 1, 57, 127
1, 60648, Note_off_c, 1, 78, 0
1, 60648, Note_off_c, 1, 63, 0
1, 60660, Note_on_c, 1, 83, 127
1, 60660, Note_on_c, 1, 66, 127
1, 60696, Note_off_c, 1, 57, 0
1, 60708, Note_off_c, 1, 83, 0
1, 60708, Note_off_c, 1, 66, 0
1, 60720, Note_on_c, 1, 71, 127
1, 60720, Note_on_c, 1, 55, 127
1, 60768, Note_off_c, 1, 71, 0
1, 60780, Note_on_c, 1, 78, 127
1, 60780, Note_on_c, 1, 69, 127
1, 60816, Note_off_c, 1, 55, 0
1, 60828, Note_off_c, 1, 78, 0
1, 60828, Note_off_c, 1, 69, 0
1, 60840, Note_on_c, 1, 76, 127
1, 60840, Note_on_c, 1, 67, 127
1, 60840, Note_on_c, 1, 59, 127
1, 60888, Note_off_c, 1, 76, 0
1, 60888, Note_off_c, 1, 67, 0
1, 60900, Note_on_c, 1, 75, 127
1, 60900, Note_on_c, 1, 66, 127
1, 60936, Note_off_c, 1, 59, 0
1, 60948, Note_off_c, 1, 75, 0
1, 60948, Note_off_c, 1, 66, 0
1, 60960, Note_on_c, 1, 76, 127
1, 60960, Note_on_c, 1, 67, 127
1, 60960, Note_on_c, 1, 52, 127
1, 61008, Note_off_c, 1, 67, 0
1, 61020, Note_on_c, 1, 64, 127
1, 61056, Note_off_c, 1, 76, 0
1, 61056, Note_off_c, 1, 52, 0
1, 61068, Note_off_c, 1, 64, 0
1, 61080, Note_on_c, 1, 71, 127
1, 61080, Note_on_c, 1, 67, 127
1, 61080, Note_on_c, 1, 50, 127
1, 61128, Note_off_c, 1, 67, 0
1, 61176, Note_off_c, 1, 50, 0
1, 61188, Note_off_c, 1, 71, 0
1, 61200, Note_on_c, 1, 76, 127
1, 61200, Note_on_c, 1, 69, 127
1, 61200, Note_on_c, 1, 49, 127
1, 61296, Note_off_c, 1, 69, 0
1, 61296, Note_off_c, 1, 49, 0
1, 61320, Note_on_c, 1, 67, 127
1, 61320, Note_on_c, 1, 45, 127
1, 61416, Note_off_c, 1, 67, 0
1, 61416, Note_off_c, 1, 45, 0
1, 61440, Note_on_c, 1, 66, 127
1, 61440, Note_on_c, 1, 50, 127
1, 61488, Note_off_c, 1, 76, 0
1, 61500, Note_on_c, 1, 74, 127
1, 61536, Note_off_c, 1, 66, 0
1, 61536, Note_off_c, 1, 50, 0
1, 61548, Note_off_c, 1, 74, 0
1, 61560, Note_on_c, 1, 78, 127
1, 61560, Note_on_c, 1, 69, 127
1, 61560, Note_on_c, 1, 48, 127
1, 61608, Note_off_c, 1, 78, 0
1, 61620, Note_on_c, 1, 81, 127
1, 61656, Note_off_c, 1, 69, 0
1, 61656, Note_off_c, 1, 48, 0
1, 61668, Note_off_c, 1, 81, 0
1, 61680, Note_on_c, 1, 79, 127
1, 61680, Note_on_c, 1, 74, 127
1, 61680, Note_on_c, 1, 47, 127
1, 61776, Note_off_c, 1, 79, 0
1, 61776, Note_off_c, 1, 47, 0
1, 61800, Note_on_c, 1, 77, 127
1, 61800, Note_on_c, 1, 43, 127
1, 61896, Note_off_c, 1, 77, 0
1, 61896, Note_off_c, 1, 43, 0
1, 61920, Note_on_c, 1, 76, 127
1, 61920, Note_on_c, 1, 48, 127
1, 61968, Note_off_c, 1, 74, 0
1, 61980, Note_on_c, 1, 71, 127
1, 62016, Note_off_c, 1, 76, 0
1, 62016, Note_off_c, 1, 48, 0
1, 62028, Note_off_c, 1, 71, 0
1, 62040, Note_on_c, 1, 67, 127
1, 62040, Note_on_c, 1, 72, 127
1, 62040, Note_on_c, 1, 40, 127
1, 62088, Note_off_c, 1, 72, 0
1, 62100, Note_on_c, 1, 76, 127
1, 62136, Note_off_c, 1, 67, 0
1, 62136, Note_off_c, 1, 40, 0
1, 62148, Note_off_c, 1, 76, 0
1, 62160, Note_on_c, 1, 69, 127
1, 62160, Note_on_c, 1, 74, 127
1, 62160, Note_on_c, 1, 42, 127
1, 62256, Note_off_c, 1, 74, 0
1, 62256, Note_off_c, 1, 42, 0
1, 62280, Note_on_c, 1, 72, 127
1, 62280, Note_on_c, 1, 38, 127
1, 62376, Note_off_c, 1, 72, 0
1, 62376, Note_off_c, 1, 38, 0
1, 62400, Note_on_c, 1, 71, 127
1, 62400, Note_on_c, 1, 43, 127
1, 62448, Note_off_c, 1, 69, 0
1, 62448, Note_off_c, 1, 71, 0
1, 62460, Note_on_c, 1, 66, 127
1, 62496, Note_off_c, 1, 43, 0
1, 62508, Note_off_c, 1, 66, 0
1, 62520, Note_on_c, 1, 67, 127
1, 62520, Note_on_c, 1, 71, 127
1, 62520, Note_on_c, 1, 50, 127
1, 62568, Note_off_c, 1, 67, 0
1, 62568, Note_off_c, 1, 71, 0
1, 62580, Note_on_c, 1, 74, 127
1, 62616, Note_off_c, 1, 50, 0
1, 62628, Note_off_c, 1, 74, 0
1, 62640, Note_on_c, 1, 69, 127
1, 62640, Note_on_c, 1, 72, 127
1, 62640, Note_on_c, 1, 42, 127
1, 62736, Note_off_c, 1, 69, 0
1, 62736, Note_off_c, 1, 72, 0
1, 62736, Note_off_c, 1, 42, 0
1, 62760, Note_on_c, 1, 67, 127
1, 62760, Note_on_c, 1, 71, 127
1, 62760, Note_on_c, 1, 43, 127
1, 62856, Note_off_c, 1, 71, 0
1, 62856, Note_off_c, 1, 43, 0
1, 62880, Note_on_c, 1, 72, 127
1, 62880, Note_on_c, 1, 38, 127
1, 62904, Note_off_c, 1, 72, 0
1, 62928, Note_off_c, 1, 67, 0
1, 62940, Note_on_c, 1, 64, 127
1, 62988, Note_off_c, 1, 64, 0
1, 63000, Note_on_c, 1, 66, 127
1, 63000, Note_on_c, 1, 69, 127
1, 63048, Note_off_c, 1, 66, 0
1, 63072, Note_off_c, 1, 38, 0
1, 63108, Note_off_c, 1, 69, 0
1, 63120, Note_on_c, 1, 74, 127
1, 63180, Note_on_c, 1, 69, 127
1, 63216, Note_off_c, 1, 74, 0
1, 63228, Note_off_c, 1, 69, 0
1, 63240, Note_on_c, 1, 72, 127
1, 63240, Note_on_c, 1, 74, 127
1, 63288, Note_off_c, 1, 74, 0
1, 63300, Note_on_c, 1, 78, 127
1, 63348, Note_off_c, 1, 78, 0
1, 63360, Note_on_c, 1, 79, 127
1, 63360, Note_on_c, 1, 55, 127
1, 63408, Note_off_c, 1, 72, 0
1, 63408, Note_off_c, 1, 79, 0
1, 63420, Note_on_c, 1, 69, 127
1, 63420, Note_on_c, 1, 81, 127
1, 63468, Note_off_c, 1, 69, 0
1, 63468, Note_off_c, 1, 81, 0
1, 63480, Note_on_c, 1, 71, 127
1, 63528, Note_off_c, 1, 71, 0
1, 63600, Note_on_c, 1, 76, 127
1, 63648, Note_off_c, 1, 55, 0
1, 63648, Note_off_c, 1, 76, 0
1, 63720, Note_on_c, 1, 57, 127
1, 63816, Note_off_c, 1, 57, 0
1, 63840, Note_on_c, 1, 50, 127
1, 63900, Note_on_c, 1, 67, 127
1, 63936, Note_off_c, 1, 50, 0
1, 63948, Note_off_c, 1, 67, 0
1, 63960, Note_on_c, 1, 78, 127
1, 63960, Note_on_c, 1, 69, 127
1, 63960, Note_on_c, 1, 60, 127
1, 64008, Note_off_c, 1, 69, 0
1, 64020, Note_on_c, 1, 71, 127
1, 64056, Note_off_c, 1, 78, 0
1, 64056, Note_off_c, 1, 60, 0
1, 64068, Note_off_c, 1, 71, 0
1, 64080, Note_on_c, 1, 72, 127
1, 64080, Note_on_c, 1, 59, 127
1, 64128, Note_off_c, 1, 72, 0
1, 64140, Note_on_c, 1, 74, 127
1, 64176, Note_off_c, 1, 59, 0
1, 64188, Note_off_c, 1, 74, 0
1, 64200, Note_on_c, 1, 72, 127
1, 64200, Note_on_c, 1, 76, 127
1, 64200, Note_on_c, 1, 57, 127
1, 64248, Note_off_c, 1, 76, 0
1, 64260, Note_on_c, 1, 78, 127
1, 64296, Note_off_c, 1, 57, 0
1, 64308, Note_off_c, 1, 78, 0
1, 64320, Note_on_c, 1, 79, 127
1, 64320, Note_on_c, 1, 59, 127
1, 64368, Note_off_c, 1, 72, 0
1, 64380, Note_on_c, 1, 69, 127
1, 64416, Note_off_c, 1, 79, 0
1, 64416, Note_off_c, 1, 59, 0
1, 64428, Note_off_c, 1, 69, 0
1, 64440, Note_on_c, 1, 71, 127
1, 64440, Note_on_c, 1, 74, 127
1, 64440, Note_on_c, 1, 62, 127
1, 64488, Note_off_c, 1, 71, 0
1, 64500, Note_on_c, 1, 72, 127
1, 64536, Note_off_c, 1, 74, 0
1, 64536, Note_off_c, 1, 62, 0
1, 64548, Note_off_c, 1, 72, 0
1, 64560, Note_on_c, 1, 74, 127
1, 64560, Note_on_c, 1, 79, 127
1, 64560, Note_on_c, 1, 60, 127
1, 64608, Note_off_c, 1, 74, 0
1, 64620, Note_on_c, 1, 78, 127
1, 64656, Note_off_c, 1, 60, 0
1, 64668, Note_off_c, 1, 78, 0
1, 64680, Note_on_c, 1, 76, 127
1, 64680, Note_on_c, 1, 59, 127
1, 64728, Note_off_c, 1, 76, 0
1, 64776, Note_off_c, 1, 59, 0
1, 64800, Note_on_c, 1, 72, 127
1, 64800, Note_on_c, 1, 57, 127
1, 64848, Note_off_c, 1, 72, 0
1, 64860, Note_on_c, 1, 71, 127
1, 64896, Note_off_c, 1, 79, 0
1, 64896, Note_off_c, 1, 57, 0
1, 64908, Note_off_c, 1, 71, 0
1, 64920, Note_on_c, 1, 69, 127
1, 64920, Note_on_c, 1, 78, 127
1, 64920, Note_on_c, 1, 54, 127
1, 64968, Note_off_c, 1, 69, 0
1, 64968, Note_off_c, 1, 78, 0
1, 64980, Note_on_c, 1, 67, 127
1, 64980, Note_on_c, 1, 76, 127
1, 65016, Note_off_c, 1, 54, 0
1, 65028, Note_off_c, 1, 67, 0
1, 65028, Note_off_c, 1, 76, 0
1, 65040, Note_on_c, 1, 66, 127
1, 65040, Note_on_c, 1, 74, 127
1, 65088, Note_off_c, 1, 74, 0
1, 65100, Note_on_c, 1, 72, 127
1, 65136, Note_off_c, 1, 66, 0
1, 65148, Note_off_c, 1, 72, 0
1, 65160, Note_on_c, 1, 78, 127
1, 65160, Note_on_c, 1, 71, 127
1, 65160, Note_on_c, 1, 51, 127
1, 65208, Note_off_c, 1, 71, 0
1, 65220, Note_on_c, 1, 69, 127
1, 65256, Note_off_c, 1, 51, 0
1, 65268, Note_off_c, 1, 69, 0
1, 65280, Note_on_c, 1, 67, 127
1, 65280, Note_on_c, 1, 52, 127
1, 65328, Note_off_c, 1, 78, 0
1, 65328, Note_off_c, 1, 67, 0
1, 65340, Note_on_c, 1, 66, 127
1, 65388, Note_off_c, 1, 66, 0
1, 65400, Note_on_c, 1, 76, 127
1, 65448, Note_off_c, 1, 76, 0
1, 65460, Note_on_c, 1, 74, 127
1, 65508, Note_off_c, 1, 74, 0
1, 65520, Note_on_c, 1, 72, 127
1, 65568, Note_off_c, 1, 52, 0
1, 65568, Note_off_c, 1, 72, 0
1, 65640, Note_on_c, 1, 54, 127
1, 65736, Note_off_c, 1, 54, 0
1, 65760, Note_on_c, 1, 47, 127
1, 65820, Note_on_c, 1, 64, 127
1, 65856, Note_off_c, 1, 47, 0
1, 65868, Note_off_c, 1, 64, 0
1, 65880, Note_on_c, 1, 66, 127
1, 65880, Note_on_c, 1, 75, 127
1, 65880, Note_on_c, 1, 57, 127
1, 65928, Note_off_c, 1, 66, 0
1, 65940, Note_on_c, 1, 67, 127
1, 65976, Note_off_c, 1, 75, 0
1, 65976, Note_off_c, 1, 57, 0
1, 65988, Note_off_c, 1, 67, 0
1, 66000, Note_on_c, 1, 69, 127
1, 66000, Note_on_c, 1, 55, 127
1, 66048, Note_off_c, 1, 69, 0
1, 66060, Note_on_c, 1, 71, 127
1, 66096, Note_off_c, 1, 55, 0
1, 66108, Note_off_c, 1, 71, 0
1, 66120, Note_on_c, 1, 73, 127
1, 66120, Note_on_c, 1, 69, 127
1, 66120, Note_on_c, 1, 54, 127
1, 66168, Note_off_c, 1, 73, 0
1, 66180, Note_on_c, 1, 75, 127
1, 66216, Note_off_c, 1, 69, 0
1, 66216, Note_off_c, 1, 54, 0
1, 66228, Note_off_c, 1, 75, 0
1, 66240, Note_on_c, 1, 76, 127
1, 66240, Note_on_c, 1, 69, 127
1, 66240, Note_on_c, 1, 55, 127
1, 66288, Note_off_c, 1, 69, 0
1, 66300, Note_on_c, 1, 66, 127
1, 66336, Note_off_c, 1, 76, 0
1, 66336, Note_off_c, 1, 55, 0
1, 66348, Note_off_c, 1, 66, 0
1, 66360, Note_on_c, 1, 71, 127
1, 66360, Note_on_c, 1, 67, 127
1, 66360, Note_on_c, 1, 59, 127
1, 66408, Note_off_c, 1, 67, 0
1, 66420, Note_on_c, 1, 69, 127
1, 66456, Note_off_c, 1, 71, 0
1, 66456, Note_off_c, 1, 59, 0
1, 66468, Note_off_c, 1, 69, 0
1, 66480, Note_on_c, 1, 76, 127
1, 66480, Note_on_c, 1, 71, 127
1, 66480, Note_on_c, 1, 57, 127
1, 66528, Note_off_c, 1, 71, 0
1, 66540, Note_on_c, 1, 74, 127
1, 66576, Note_off_c, 1, 57, 0
1, 66588, Note_off_c, 1, 74, 0
1, 66600, Note_on_c, 1, 72, 127
1, 66600, Note_on_c, 1, 55, 127
1, 66648, Note_off_c, 1, 72, 0
1, 66696, Note_off_c, 1, 55, 0
1, 66720, Note_on_c, 1, 69, 127
1, 66720, Note_on_c, 1, 54, 127
1, 66768, Note_off_c, 1, 69, 0
1, 66780, Note_on_c, 1, 67, 127
1, 66816, Note_off_c, 1, 76, 0
1, 66816, Note_off_c, 1, 54, 0
1, 66828, Note_off_c, 1, 67, 0
1, 66840, Note_on_c, 1, 74, 127
1, 66840, Note_on_c, 1, 66, 127
1, 66840, Note_on_c, 1, 47, 127
1, 66888, Note_off_c, 1, 74, 0
1, 66888, Note_off_c, 1, 66, 0
1, 66900, Note_on_c, 1, 72, 127
1, 66900, Note_on_c, 1, 64, 127
1, 66936, Note_off_c, 1, 47, 0
1, 66948, Note_off_c, 1, 72, 0
1, 66948, Note_off_c, 1, 64, 0
1, 66960, Note_on_c, 1, 71, 127
1, 66960, Note_on_c, 1, 62, 127
1, 67008, Note_off_c, 1, 71, 0
1, 67020, Note_on_c, 1, 69, 127
1, 67056, Note_off_c, 1, 62, 0
1, 67068, Note_off_c, 1, 69, 0
1, 67080, Note_on_c, 1, 67, 127
1, 67080, Note_on_c, 1, 74, 127
1, 67080, Note_on_c, 1, 47, 127
1, 67128, Note_off_c, 1, 67, 0
1, 67140, Note_on_c, 1, 65, 127
1, 67176, Note_off_c, 1, 47, 0
1, 67188, Note_off_c, 1, 65, 0
1, 67200, Note_on_c, 1, 64, 127
1, 67200, Note_on_c, 1, 48, 127
1, 67248, Note_off_c, 1, 74, 0
1, 67296, Note_off_c, 1, 64, 0
1, 67320, Note_on_c, 1, 72, 127
1, 67368, Note_off_c, 1, 72, 0
1, 67380, Note_on_c, 1, 71, 127
1, 67428, Note_off_c, 1, 71, 0
1, 67440, Note_on_c, 1, 69, 127
1, 67488, Note_off_c, 1, 48, 0
1, 67488, Note_off_c, 1, 69, 0
1, 67560, Note_on_c, 1, 50, 127
1, 67656, Note_off_c, 1, 50, 0
1, 67680, Note_on_c, 1, 62, 127
1, 67680, Note_on_c, 1, 43, 127
1, 67728, Note_off_c, 1, 62, 0
1, 67740, Note_on_c, 1, 60, 127
1, 67776, Note_off_c, 1, 43, 0
1, 67788, Note_off_c, 1, 60, 0
1, 67800, Note_on_c, 1, 71, 127
1, 67800, Note_on_c, 1, 62, 127
1, 67800, Note_on_c, 1, 53, 127
1, 67848, Note_off_c, 1, 62, 0
1, 67860, Note_on_c, 1, 64, 127
1, 67896, Note_off_c, 1, 71, 0
1, 67896, Note_off_c, 1, 53, 0
1, 67908, Note_off_c, 1, 64, 0
1, 67920, Note_on_c, 1, 65, 127
1, 67920, Note_on_c, 1, 52, 127
1, 67968, Note_off_c, 1, 65, 0
1, 67980, Note_on_c, 1, 67, 127
1, 68016, Note_off_c, 1, 52, 0
1, 68028, Note_off_c, 1, 67, 0
1, 68040, Note_on_c, 1, 65, 127
1, 68040, Note_on_c, 1, 69, 127
1, 68040, Note_on_c, 1, 50, 127
1, 68088, Note_off_c, 1, 69, 0
1, 68100, Note_on_c, 1, 71, 127
1, 68136, Note_off_c, 1, 50, 0
1, 68148, Note_off_c, 1, 71, 0
1, 68160, Note_on_c, 1, 72, 127
1, 68160, Note_on_c, 1, 52, 127
1, 68208, Note_off_c, 1, 65, 0
1, 68220, Note_on_c, 1, 62, 127
1, 68256, Note_off_c, 1, 72, 0
1, 68256, Note_off_c, 1, 52, 0
1, 68268, Note_off_c, 1, 62, 0
1, 68280, Note_on_c, 1, 64, 127
1, 68280, Note_on_c, 1, 67, 127
1, 68280, Note_on_c, 1, 55, 127
1, 68328, Note_off_c, 1, 64, 0
1, 68340, Note_on_c, 1, 66, 127
1, 68376, Note_off_c, 1, 67, 0
1, 68376, Note_off_c, 1, 55, 0
1, 68388, Note_off_c, 1, 66, 0
1, 68400, Note_on_c, 1, 67, 127
1, 68400, Note_on_c, 1, 72, 127
1, 68400, Note_on_c, 1, 54, 127
1, 68448, Note_off_c, 1, 67, 0
1, 68460, Note_on_c, 1, 71, 127
1, 68496, Note_off_c, 1, 54, 0
1, 68508, Note_off_c, 1, 71, 0
1, 68520, Note_on_c, 1, 69, 127
1, 68520, Note_on_c, 1, 52, 127
1, 68568, Note_off_c, 1, 69, 0
1, 68616, Note_off_c, 1, 52, 0
1, 68688, Note_off_c, 1, 72, 0
1, 68760, Note_on_c, 1, 66, 127
1, 68760, Note_on_c, 1, 69, 127
1, 68760, Note_on_c, 1, 57, 127
1, 68808, Note_off_c, 1, 66, 0
1, 68808, Note_off_c, 1, 69, 0
1, 68820, Note_on_c, 1, 67, 127
1, 68820, Note_on_c, 1, 71, 127
1, 68856, Note_off_c, 1, 57, 0
1, 68868, Note_off_c, 1, 67, 0
1, 68868, Note_off_c, 1, 71, 0
1, 68880, Note_on_c, 1, 69, 127
1, 68880, Note_on_c, 1, 72, 127
1, 68880, Note_on_c, 1, 55, 127
1, 68928, Note_off_c, 1, 69, 0
1, 68928, Note_off_c, 1, 72, 0
1, 68940, Note_on_c, 1, 76, 127
1, 68976, Note_off_c, 1, 55, 0
1, 68988, Note_off_c, 1, 76, 0
1, 69000, Note_on_c, 1, 71, 127
1, 69000, Note_on_c, 1, 74, 127
1, 69000, Note_on_c, 1, 54, 127
1, 69048, Note_off_c, 1, 71, 0
1, 69048, Note_off_c, 1, 74, 0
1, 69060, Note_on_c, 1, 69, 127
1, 69060, Note_on_c, 1, 72, 127
1, 69096, Note_off_c, 1, 54, 0
1, 69108, Note_off_c, 1, 69, 0
1, 69108, Note_off_c, 1, 72, 0
1, 69120, Note_on_c, 1, 67, 127
1, 69120, Note_on_c, 1, 71, 127
1, 69120, Note_on_c, 1, 55, 127
1, 69168, Note_off_c, 1, 71, 0
1, 69216, Note_off_c, 1, 55, 0
1, 69240, Note_on_c, 1, 69, 127
1, 69240, Note_on_c, 1, 52, 127
1, 69288, Note_off_c, 1, 69, 0
1, 69336, Note_off_c, 1, 52, 0
1, 69360, Note_on_c, 1, 72, 127
1, 69360, Note_on_c, 1, 50, 127
1, 69408, Note_off_c, 1, 67, 0
1, 69408, Note_off_c, 1, 72, 0
1, 69420, Note_on_c, 1, 66, 127
1, 69420, Note_on_c, 1, 74, 127
1, 69456, Note_off_c, 1, 50, 0
1, 69468, Note_off_c, 1, 66, 0
1, 69468, Note_off_c, 1, 74, 0
1, 69480, Note_on_c, 1, 64, 127
1, 69480, Note_on_c, 1, 76, 127
1, 69480, Note_on_c, 1, 48, 127
1, 69528, Note_off_c, 1, 64, 0
1, 69528, Note_off_c, 1, 76, 0
1, 69540, Note_on_c, 1, 69, 127
1, 69540, Note_on_c, 1, 78, 127
1, 69576, Note_off_c, 1, 48, 0
1, 69588, Note_off_c, 1, 69, 0
1, 69588, Note_off_c, 1, 78, 0
1, 69600, Note_on_c, 1, 62, 127
1, 69600, Note_on_c, 1, 79, 127
1, 69600, Note_on_c, 1, 47, 127
1, 69696, Note_off_c, 1, 62, 0
1, 69696, Note_off_c, 1, 79, 0
1, 69696, Note_off_c, 1, 47, 0
1, 69720, Note_on_c, 1, 69, 127
1, 69720, Note_on_c, 1, 45, 127
1, 69744, Note_off_c, 1, 69, 0
1, 69750, Note_on_c, 1, 71, 127
1, 69774, Note_off_c, 1, 71, 0
1, 69780, Note_on_c, 1, 72, 127
1, 69816, Note_off_c, 1, 45, 0
1, 69828, Note_off_c, 1, 72, 0
1, 69840, Note_on_c, 1, 71, 127
1, 69840, Note_on_c, 1, 43, 127
1, 69930, Note_off_c, 1, 71, 0
1, 69936, Note_off_c, 1, 43, 0
1, 69960, Note_on_c, 1, 71, 127
1, 69960, Note_on_c, 1, 42, 127
1, 69984, Note_off_c, 1, 71, 0
1, 69990, Note_on_c, 1, 69, 127
1, 70014, Note_off_c, 1, 69, 0
1, 70056, Note_off_c, 1, 42, 0
1, 70080, Note_on_c, 1, 71, 127
1, 70080, Note_on_c, 1, 67, 127
1, 70080, Note_on_c, 1, 43, 127
1, 70128, Note_off_c, 1, 71, 0
1, 70176, Note_off_c, 1, 43, 0
1, 70200, Note_on_c, 1, 55, 127
1, 70260, Note_on_c, 1, 74, 127
1, 70296, Note_off_c, 1, 55, 0
1, 70308, Note_off_c, 1, 74, 0
1, 70320, Note_on_c, 1, 72, 127
1, 70320, Note_on_c, 1, 52, 127
1, 70368, Note_off_c, 1, 67, 0
1, 70380, Note_on_c, 1, 66, 127
1, 70416, Note_off_c, 1, 52, 0
1, 70428, Note_off_c, 1, 66, 0
1, 70440, Note_on_c, 1, 64, 127
1, 70440, Note_on_c, 1, 57, 127
1, 70488, Note_off_c, 1, 64, 0
1, 70500, Note_on_c, 1, 69, 127
1, 70536, Note_off_c, 1, 57, 0
1, 70548, Note_off_c, 1, 69, 0
1, 70560, Note_on_c, 1, 62, 127
1, 70560, Note_on_c, 1, 54, 127
1, 70608, Note_off_c, 1, 72, 0
1, 70656, Note_off_c, 1, 62, 0
1, 70656, Note_off_c, 1, 54, 0
1, 70680, Note_on_c, 1, 72, 127
1, 70680, Note_on_c, 1, 69, 127
1, 70680, Note_on_c, 1, 50, 127
1, 70704, Note_off_c, 1, 69, 0
1, 70710, Note_on_c, 1, 71, 127
1, 70728, Note_off_c, 1, 72, 0
1, 70734, Note_off_c, 1, 71, 0
1, 70740, Note_on_c, 1, 76, 127
1, 70776, Note_off_c, 1, 50, 0
1, 70788, Note_off_c, 1, 76, 0
1, 70800, Note_on_c, 1, 74, 127
1, 70800, Note_on_c, 1, 71, 127
1, 70890, Note_off_c, 1, 71, 0
1, 70920, Note_on_c, 1, 54, 127
1, 70950, Note_on_c, 1, 69, 127
1, 70974, Note_off_c, 1, 69, 0
1, 71016, Note_off_c, 1, 54, 0
1, 71040, Note_on_c, 1, 55, 127
1, 71088, Note_off_c, 1, 74, 0
1, 71100, Note_on_c, 1, 67, 127
1, 71136, Note_off_c, 1, 55, 0
1, 71148, Note_off_c, 1, 67, 0
1, 71160, Note_on_c, 1, 74, 127
1, 71160, Note_on_c, 1, 71, 127
1, 71160, Note_on_c, 1, 43, 127
1, 71208, Note_off_c, 1, 74, 0
1, 71208, Note_off_c, 1, 71, 0
1, 71220, Note_on_c, 1, 77, 127
1, 71256, Note_off_c, 1, 43, 0
1, 71268, Note_off_c, 1, 77, 0
1, 71280, Note_on_c, 1, 76, 127
1, 71280, Note_on_c, 1, 72, 127
1, 71280, Note_on_c, 1, 48, 127
1, 71328, Note_off_c, 1, 76, 0
1, 71340, Note_on_c, 1, 74, 127
1, 71376, Note_off_c, 1, 48, 0
1, 71388, Note_off_c, 1, 74, 0
1, 71400, Note_on_c, 1, 52, 127
1, 71460, Note_on_c, 1, 71, 127
1, 71496, Note_off_c, 1, 52, 0
1, 71508, Note_off_c, 1, 71, 0
1, 71520, Note_on_c, 1, 69, 127
1, 71520, Note_on_c, 1, 54, 127
1, 71568, Note_off_c, 1, 72, 0
1, 71568, Note_off_c, 1, 69, 0
1, 71580, Note_on_c, 1, 66, 127
1, 71616, Note_off_c, 1, 54, 0
1, 71628, Note_off_c, 1, 66, 0
1, 71640, Note_on_c, 1, 69, 127
1, 71640, Note_on_c, 1, 72, 127
1, 71640, Note_on_c, 1, 42, 127
1, 71688, Note_off_c, 1, 69, 0
1, 71688, Note_off_c, 1, 72, 0
1, 71700, Note_on_c, 1, 76, 127
1, 71736, Note_off_c, 1, 42, 0
1, 71748, Note_off_c, 1, 76, 0
1, 71760, Note_on_c, 1, 71, 127
1, 71760, Note_on_c, 1, 74, 127
1, 71760, Note_on_c, 1, 47, 127
1, 71808, Note_off_c, 1, 71, 0
1, 71820, Note_on_c, 1, 69, 127
1, 71856, Note_off_c, 1, 47, 0
1, 71868, Note_off_c, 1, 69, 0
1, 71880, Note_on_c, 1, 67, 127
1, 71880, Note_on_c, 1, 50, 127
1, 71928, Note_off_c, 1, 67, 0
1, 71940, Note_on_c, 1, 66, 127
1, 71976, Note_off_c, 1, 50, 0
1, 71988, Note_off_c, 1, 66, 0
1, 72000, Note_on_c, 1, 52, 127
1, 72048, Note_off_c, 1, 74, 0
1, 72096, Note_off_c, 1, 52, 0
1, 72180, Note_on_c, 1, 77, 127
1, 72228, Note_off_c, 1, 77, 0
1, 72240, Note_on_c, 1, 76, 127
1, 72240, Note_on_c, 1, 48, 127
1, 72288, Note_off_c, 1, 76, 0
1, 72336, Note_off_c, 1, 48, 0
1, 72360, Note_on_c, 1, 72, 127
1, 72360, Note_on_c, 1, 45, 127
1, 72408, Note_off_c, 1, 72, 0
1, 72456, Note_off_c, 1, 45, 0
1, 72540, Note_on_c, 1, 62, 127
1, 72588, Note_off_c, 1, 62, 0
1, 72600, Note_on_c, 1, 66, 127
1, 72600, Note_on_c, 1, 69, 127
1, 72600, Note_on_c, 1, 38, 127
1, 72648, Note_off_c, 1, 66, 0
1, 72648, Note_off_c, 1, 69, 0
1, 72660, Note_on_c, 1, 72, 127
1, 72696, Note_off_c, 1, 38, 0
1, 72708, Note_off_c, 1, 72, 0
1, 72720, Note_on_c, 1, 67, 127
1, 72720, Note_on_c, 1, 71, 127
1, 72768, Note_off_c, 1, 67, 0
1, 72768, Note_off_c, 1, 71, 0
1, 72780, Note_on_c, 1, 66, 127
1, 72780, Note_on_c, 1, 69, 127
1, 72828, Note_off_c, 1, 66, 0
1, 72828, Note_off_c, 1, 69, 0
1, 72840, Note_on_c, 1, 64, 127
1, 72840, Note_on_c, 1, 67, 127
1, 72840, Note_on_c, 1, 48, 127
1, 72888, Note_off_c, 1, 64, 0
1, 72888, Note_off_c, 1, 67, 0
1, 72900, Note_on_c, 1, 62, 127
1, 72900, Note_on_c, 1, 66, 127
1, 72936, Note_off_c, 1, 48, 0
1, 72948, Note_off_c, 1, 62, 0
1, 72948, Note_off_c, 1, 66, 0
1, 72960, Note_on_c, 1, 74, 127
1, 72960, Note_on_c, 1, 67, 127
1, 72960, Note_on_c, 1, 47, 127
1, 73008, Note_off_c, 1, 74, 0
1, 73020, Note_on_c, 1, 72, 127
1, 73056, Note_off_c, 1, 67, 0
1, 73056, Note_off_c, 1, 47, 0
1, 73068, Note_off_c, 1, 72, 0
1, 73080, Note_on_c, 1, 76, 127
1, 73080, Note_on_c, 1, 59, 127
1, 73080, Note_on_c, 1, 43, 127
1, 73128, Note_off_c, 1, 76, 0
1, 73140, Note_on_c, 1, 74, 127
1, 73176, Note_off_c, 1, 59, 0
1, 73176, Note_off_c, 1, 43, 0
1, 73188, Note_off_c, 1, 74, 0
1, 73200, Note_on_c, 1, 72, 127
1, 73200, Note_on_c, 1, 57, 127
1, 73200, Note_on_c, 1, 50, 127
1, 73248, Note_off_c, 1, 72, 0
1, 73260, Note_on_c, 1, 71, 127
1, 73296, Note_off_c, 1, 57, 0
1, 73296, Note_off_c, 1, 50, 0
1, 73308, Note_off_c, 1, 71, 0
1, 73320, Note_on_c, 1, 69, 127
1, 73320, Note_on_c, 1, 66, 127
1, 73320, Note_on_c, 1, 38, 127
1, 73368, Note_off_c, 1, 69, 0
1, 73380, Note_on_c, 1, 67, 127
1, 73416, Note_off_c, 1, 66, 0
1, 73416, Note_off_c, 1, 38, 0
1, 73428, Note_off_c, 1, 67, 0
1, 73440, Note_on_c, 1, 67, 127
1, 73440, Note_on_c, 1, 43, 127
1, 73824, Note_off_c, 1, 67, 0
1, 73824, Note_off_c, 1, 43, 0
1, 73824, End_track
0, 0, End_of_file