0, 0, Header, 1, 1, 480
1, 0, Start_track
1, 0, Title_t, "Test"
1, 0, Tempo, 500000
1, 0, Instrument_name_t, "Church Organ"
1, 0, Note_on_c, 1, 36, 127
1, 384, Note_on_c, 1, 67, 127
1, 544, Note_off_c, 1, 67, 0
1, 576, Note_on_c, 1, 75, 127
1, 832, Note_off_c, 1, 75, 0
1, 864, Note_on_c, 1, 74, 127
1, 958, Note_off_c, 1, 74, 0
1, 960, Note_on_c, 1, 60, 127
1, 1120, Note_off_c, 1, 60, 0
1, 1152, Note_on_c, 1, 72, 127
1, 1152, Note_on_c, 1, 68, 127
1, 1312, Note_off_c, 1, 72, 0
1, 1344, Note_on_c, 1, 77, 127
1, 1408, Note_off_c, 1, 68, 0
1, 1822, Note_off_c, 1, 77, 0
1, 2016, Note_on_c, 1, 80, 127
1, 2110, Note_off_c, 1, 80, 0
1, 2112, Note_on_c, 1, 79, 127
1, 2206, Note_off_c, 1, 79, 0
1, 2400, Note_on_c, 1, 70, 127
1, 2446, Note_off_c, 1, 70, 0
1, 2880, Note_on_c, 1, 69, 127
1, 3040, Note_off_c, 1, 69, 0
1, 3264, Note_on_c, 1, 71, 127
1, 3264, Note_on_c, 1, 55, 127
1, 3358, Note_off_c, 1, 71, 0
1, 3424, Note_off_c, 1, 55, 0
1, 3456, Note_on_c, 1, 63, 127
1, 3712, Note_off_c, 1, 63, 0
1, 3744, Note_on_c, 1, 62, 127
1, 3838, Note_off_c, 1, 62, 0
1, 4416, Note_on_c, 1, 76, 127
1, 4510, Note_off_c, 1, 76, 0
1, 4608, Note_on_c, 1, 73, 127
1, 4608, Note_on_c, 1, 82, 127
1, 4702, Note_off_c, 1, 73, 0
1, 4704, Note_on_c, 1, 65, 127
1, 4750, Note_off_c, 1, 65, 0
1, 4752, Note_on_c, 1, 64, 127
1, 4768, Note_off_c, 1, 82, 0
1, 4798, Note_off_c, 1, 64, 0
1, 5184, Note_on_c, 1, 84, 127
1, 6016, Note_off_c, 1, 84, 0
1, 6144, Note_on_c, 1, 83, 127
1, 6238, Note_off_c, 1, 83, 0
1, 7296, Note_on_c, 1, 59, 127
1, 7390, Note_off_c, 1, 59, 0
1, 7824, Note_off_c, 1, 36, 0
1, 7872, Note_on_c, 1, 48, 127
1, 8032, Note_off_c, 1, 48, 0
1, 8064, Note_on_c, 1, 56, 127
1, 8320, Note_off_c, 1, 56, 0
1, 9408, Note_on_c, 1, 58, 127
1, 9952, Note_off_c, 1, 58, 0
1, 11040, Note_on_c, 1, 66, 127
1, 11472, Note_off_c, 1, 66, 0
1, 11616, Note_on_c, 1, 43, 127
1, 11710, Note_off_c, 1, 43, 0
1, 11808, Note_on_c, 1, 53, 127
1, 11902, Note_off_c, 1, 53, 0
1, 12000, Note_on_c, 1, 51, 127
1, 12094, Note_off_c, 1, 51, 0
1, 12576, Note_on_c, 1, 50, 127
1, 12670, Note_off_c, 1, 50, 0
1, 12672, Note_on_c, 1, 51, 127
1, 12768, Note_on_c, 1, 67, 127
1, 12862, Note_off_c, 1, 67, 0
1, 12864, Note_on_c, 1, 79, 127
1, 12960, Note_off_c, 1, 79, 0
1, 12960, Note_on_c, 1, 77, 127
1, 13008, Note_off_c, 1, 51, 0
1, 13054, Note_off_c, 1, 77, 0
1, 13056, Note_on_c, 1, 77, 127
1, 13056, Note_on_c, 1, 56, 127
1, 13152, Note_off_c, 1, 77, 0
1, 13152, Note_on_c, 1, 75, 127
1, 13216, Note_off_c, 1, 56, 0
1, 13246, Note_off_c, 1, 75, 0
1, 13248, Note_on_c, 1, 77, 127
1, 13248, Note_on_c, 1, 50, 127
1, 13342, Note_off_c, 1, 77, 0
1, 13344, Note_on_c, 1, 65, 127
1, 13438, Note_off_c, 1, 65, 0
1, 13536, Note_on_c, 1, 75, 127
1, 13584, Note_off_c, 1, 50, 0
1, 13630, Note_off_c, 1, 75, 0
1, 13632, Note_on_c, 1, 75, 127
1, 13632, Note_on_c, 1, 55, 127
1, 13726, Note_off_c, 1, 75, 0
1, 13728, Note_on_c, 1, 74, 127
1, 13792, Note_off_c, 1, 55, 0
1, 13822, Note_off_c, 1, 74, 0
1, 13824, Note_on_c, 1, 75, 127
1, 13824, Note_on_c, 1, 48, 127
1, 13920, Note_on_c, 1, 60, 127
1, 13984, Note_off_c, 1, 75, 0
1, 14014, Note_off_c, 1, 60, 0
1, 14016, Note_on_c, 1, 80, 127
1, 14016, Note_on_c, 1, 72, 127
1, 14112, Note_off_c, 1, 72, 0
1, 14112, Note_on_c, 1, 70, 127
1, 14160, Note_off_c, 1, 48, 0
1, 14206, Note_off_c, 1, 70, 0
1, 14208, Note_on_c, 1, 53, 127
1, 14304, Note_on_c, 1, 68, 127
1, 14368, Note_off_c, 1, 53, 0
1, 14398, Note_off_c, 1, 68, 0
1, 14400, Note_on_c, 1, 50, 127
1, 14496, Note_on_c, 1, 58, 127
1, 14560, Note_off_c, 1, 80, 0
1, 14560, Note_off_c, 1, 50, 0
1, 14590, Note_off_c, 1, 58, 0
1, 14592, Note_on_c, 1, 79, 127
1, 14592, Note_on_c, 1, 70, 127
1, 14592, Note_on_c, 1, 52, 127
1, 14688, Note_off_c, 1, 70, 0
1, 14688, Note_on_c, 1, 68, 127
1, 14752, Note_off_c, 1, 52, 0
1, 14782, Note_off_c, 1, 68, 0
1, 14784, Note_on_c, 1, 48, 127
1, 14880, Note_on_c, 1, 67, 127
1, 14944, Note_off_c, 1, 48, 0
1, 14974, Note_off_c, 1, 67, 0
1, 14976, Note_on_c, 1, 53, 127
1, 15072, Note_off_c, 1, 79, 0
1, 15072, Note_on_c, 1, 77, 127
1, 15136, Note_off_c, 1, 53, 0
1, 15166, Note_off_c, 1, 77, 0
1, 15168, Note_on_c, 1, 77, 127
1, 15168, Note_on_c, 1, 62, 127
1, 15168, Note_on_c, 1, 47, 127
1, 15264, Note_off_c, 1, 77, 0
1, 15264, Note_on_c, 1, 75, 127
1, 15328, Note_off_c, 1, 62, 0
1, 15358, Note_off_c, 1, 75, 0
1, 15360, Note_on_c, 1, 67, 127
1, 15456, Note_on_c, 1, 74, 127
1, 15504, Note_off_c, 1, 47, 0
1, 15550, Note_off_c, 1, 74, 0
1, 15552, Note_on_c, 1, 48, 127
1, 15646, Note_off_c, 1, 67, 0
1, 15648, Note_on_c, 1, 72, 127
1, 15712, Note_off_c, 1, 48, 0
1, 15742, Note_off_c, 1, 72, 0
1, 15744, Note_on_c, 1, 69, 127
1, 15744, Note_on_c, 1, 72, 127
1, 15744, Note_on_c, 1, 42, 127
1, 15840, Note_off_c, 1, 72, 0
1, 15840, Note_on_c, 1, 70, 127
1, 15904, Note_off_c, 1, 69, 0
1, 15934, Note_off_c, 1, 70, 0
1, 15936, Note_on_c, 1, 74, 127
1, 16032, Note_on_c, 1, 68, 127
1, 16080, Note_off_c, 1, 42, 0
1, 16126, Note_off_c, 1, 68, 0
1, 16128, Note_on_c, 1, 43, 127
1, 16224, Note_on_c, 1, 55, 127
1, 16288, Note_off_c, 1, 74, 0
1, 16318, Note_off_c, 1, 55, 0
1, 16320, Note_on_c, 1, 75, 127
1, 16320, Note_on_c, 1, 67, 127
1, 16416, Note_off_c, 1, 67, 0
1, 16416, Note_on_c, 1, 65, 127
1, 16464, Note_off_c, 1, 43, 0
1, 16510, Note_off_c, 1, 65, 0
1, 16512, Note_on_c, 1, 48, 127
1, 16608, Note_on_c, 1, 63, 127
1, 16672, Note_off_c, 1, 48, 0
1, 16702, Note_off_c, 1, 63, 0
1, 16704, Note_on_c, 1, 41, 127
1, 16800, Note_on_c, 1, 53, 127
1, 16864, Note_off_c, 1, 75, 0
1, 16894, Note_off_c, 1, 53, 0
1, 17040, Note_off_c, 1, 41, 0
1, 17088, Note_on_c, 1, 46, 127
1, 17184, Note_on_c, 1, 62, 127
1, 17248, Note_off_c, 1, 46, 0
1, 17278, Note_off_c, 1, 62, 0
1, 17280, Note_on_c, 1, 39, 127
1, 17376, Note_on_c, 1, 71, 127
1, 17422, Note_off_c, 1, 71, 0
1, 17440, Note_off_c, 1, 39, 0
1, 17472, Note_on_c, 1, 51, 127
1, 17808, Note_on_c, 1, 60, 127
1, 17854, Note_off_c, 1, 60, 0
1, 18016, Note_off_c, 1, 51, 0
1, 18048, Note_on_c, 1, 77, 127
1, 18048, Note_on_c, 1, 59, 127
1, 18048, Note_on_c, 1, 50, 127
1, 18208, Note_off_c, 1, 50, 0
1, 18286, Note_off_c, 1, 77, 0
1, 18384, Note_off_c, 1, 59, 0
1, 18720, Note_on_c, 1, 58, 127
1, 18814, Note_off_c, 1, 58, 0
1, 18912, Note_on_c, 1, 66, 127
1, 18912, Note_on_c, 1, 57, 127
1, 19006, Note_off_c, 1, 66, 0
1, 19006, Note_off_c, 1, 57, 0
1, 19200, Note_on_c, 1, 67, 127
1, 19200, Note_on_c, 1, 74, 127
1, 19200, Note_on_c, 1, 46, 127
1, 19248, Note_on_c, 1, 55, 127
1, 19294, Note_off_c, 1, 67, 0
1, 19294, Note_off_c, 1, 55, 0
1, 19296, Note_on_c, 1, 72, 127
1, 19296, Note_on_c, 1, 54, 127
1, 19342, Note_off_c, 1, 54, 0
1, 19390, Note_off_c, 1, 72, 0
1, 19392, Note_on_c, 1, 70, 127
1, 19392, Note_on_c, 1, 57, 127
1, 19438, Note_off_c, 1, 57, 0
1, 19440, Note_on_c, 1, 58, 127
1, 19486, Note_off_c, 1, 70, 0
1, 19486, Note_off_c, 1, 58, 0
1, 19488, Note_on_c, 1, 69, 127
1, 19488, Note_on_c, 1, 60, 127
1, 19534, Note_off_c, 1, 60, 0
1, 19536, Note_on_c, 1, 62, 127
1, 19582, Note_off_c, 1, 69, 0
1, 19582, Note_off_c, 1, 62, 0
1, 19584, Note_on_c, 1, 63, 127
1, 19680, Note_off_c, 1, 74, 0
1, 19744, Note_off_c, 1, 46, 0
1, 19776, Note_on_c, 1, 66, 127
1, 19776, Note_on_c, 1, 45, 127
1, 19936, Note_off_c, 1, 45, 0
1, 19968, Note_on_c, 1, 43, 127
1, 20032, Note_off_c, 1, 66, 0
1, 20128, Note_off_c, 1, 43, 0
1, 20160, Note_on_c, 1, 42, 127
1, 20206, Note_off_c, 1, 63, 0
1, 20256, Note_on_c, 1, 75, 127
1, 20320, Note_off_c, 1, 42, 0
1, 20350, Note_off_c, 1, 75, 0
1, 20352, Note_on_c, 1, 66, 127
1, 20352, Note_on_c, 1, 75, 127
1, 20352, Note_on_c, 1, 60, 127
1, 20352, Note_on_c, 1, 38, 127
1, 20398, Note_off_c, 1, 60, 0
1, 20400, Note_on_c, 1, 58, 127
1, 20446, Note_off_c, 1, 66, 0
1, 20446, Note_off_c, 1, 58, 0
1, 20448, Note_off_c, 1, 75, 0
1, 20448, Note_on_c, 1, 74, 127
1, 20448, Note_on_c, 1, 57, 127
1, 20494, Note_off_c, 1, 57, 0
1, 20496, Note_on_c, 1, 55, 127
1, 20512, Note_off_c, 1, 38, 0
1, 20542, Note_off_c, 1, 74, 0
1, 20542, Note_off_c, 1, 55, 0
1, 20544, Note_on_c, 1, 74, 127
1, 20544, Note_on_c, 1, 42, 127
1, 20640, Note_off_c, 1, 74, 0
1, 20640, Note_on_c, 1, 72, 127
1, 20704, Note_off_c, 1, 42, 0
1, 20734, Note_off_c, 1, 72, 0
1, 20736, Note_on_c, 1, 70, 127
1, 20736, Note_on_c, 1, 43, 127
1, 20784, Note_on_c, 1, 62, 127
1, 20830, Note_off_c, 1, 62, 0
1, 20832, Note_on_c, 1, 64, 127
1, 20878, Note_off_c, 1, 64, 0
1, 20880, Note_on_c, 1, 66, 127
1, 20896, Note_off_c, 1, 43, 0
1, 20926, Note_off_c, 1, 66, 0
1, 20928, Note_on_c, 1, 67, 127
1, 20928, Note_on_c, 1, 55, 127
1, 20928, Note_on_c, 1, 51, 127
1, 20974, Note_off_c, 1, 70, 0
1, 20976, Note_on_c, 1, 69, 127
1, 21022, Note_off_c, 1, 55, 0
1, 21022, Note_off_c, 1, 69, 0
1, 21024, Note_on_c, 1, 57, 127
1, 21072, Note_on_c, 1, 72, 127
1, 21088, Note_off_c, 1, 51, 0
1, 21118, Note_off_c, 1, 57, 0
1, 21118, Note_off_c, 1, 72, 0
1, 21120, Note_on_c, 1, 74, 127
1, 21120, Note_on_c, 1, 58, 127
1, 21120, Note_on_c, 1, 46, 127
1, 21214, Note_off_c, 1, 74, 0
1, 21214, Note_off_c, 1, 58, 0
1, 21216, Note_on_c, 1, 79, 127
1, 21264, Note_off_c, 1, 67, 0
1, 21280, Note_off_c, 1, 46, 0
1, 21312, Note_on_c, 1, 63, 127
1, 21312, Note_on_c, 1, 48, 127
1, 21358, Note_off_c, 1, 79, 0
1, 21360, Note_on_c, 1, 77, 127
1, 21406, Note_off_c, 1, 77, 0
1, 21408, Note_on_c, 1, 75, 127
1, 21454, Note_off_c, 1, 75, 0
1, 21472, Note_off_c, 1, 63, 0
1, 21472, Note_off_c, 1, 48, 0
1, 21504, Note_on_c, 1, 69, 127
1, 21504, Note_on_c, 1, 72, 127
1, 21504, Note_on_c, 1, 54, 127
1, 21504, Note_on_c, 1, 50, 127
1, 21550, Note_off_c, 1, 69, 0
1, 21552, Note_on_c, 1, 70, 127
1, 21598, Note_off_c, 1, 70, 0
1, 21648, Note_on_c, 1, 67, 127
1, 21664, Note_off_c, 1, 54, 0
1, 21664, Note_off_c, 1, 50, 0
1, 21694, Note_off_c, 1, 67, 0
1, 21696, Note_on_c, 1, 66, 127
1, 21696, Note_on_c, 1, 62, 127
1, 21696, Note_on_c, 1, 38, 127
1, 21742, Note_off_c, 1, 72, 0
1, 21856, Note_off_c, 1, 66, 0
1, 21856, Note_off_c, 1, 38, 0
1, 21888, Note_on_c, 1, 39, 127
1, 21982, Note_off_c, 1, 62, 0
1, 21984, Note_on_c, 1, 60, 127
1, 22078, Note_off_c, 1, 60, 0
1, 22080, Note_on_c, 1, 78, 127
1, 22176, Note_on_c, 1, 58, 127
1, 22224, Note_off_c, 1, 39, 0
1, 22240, Note_off_c, 1, 78, 0
1, 22270, Note_off_c, 1, 58, 0
1, 22272, Note_on_c, 1, 74, 127
1, 22272, Note_on_c, 1, 79, 127
1, 22272, Note_on_c, 1, 58, 127
1, 22272, Note_on_c, 1, 38, 127
1, 22366, Note_off_c, 1, 58, 0
1, 22368, Note_on_c, 1, 57, 127
1, 22432, Note_off_c, 1, 74, 0
1, 22432, Note_off_c, 1, 38, 0
1, 22462, Note_off_c, 1, 57, 0
1, 22464, Note_on_c, 1, 75, 127
1, 22464, Note_on_c, 1, 36, 127
1, 22512, Note_on_c, 1, 60, 127
1, 22534, Note_off_c, 1, 60, 0
1, 22606, Note_off_c, 1, 79, 0
1, 22608, Note_on_c, 1, 81, 127
1, 22608, Note_on_c, 1, 55, 127
1, 22624, Note_off_c, 1, 75, 0
1, 22624, Note_off_c, 1, 36, 0
1, 22654, Note_off_c, 1, 81, 0
1, 22654, Note_off_c, 1, 55, 0
1, 22656, Note_on_c, 1, 79, 127
1, 22656, Note_on_c, 1, 74, 127
1, 22656, Note_on_c, 1, 62, 127
1, 22656, Note_on_c, 1, 38, 127
1, 22752, Note_on_c, 1, 58, 127
1, 22774, Note_off_c, 1, 58, 0
1, 22776, Note_on_c, 1, 57, 127
1, 22798, Note_off_c, 1, 57, 0
1, 22816, Note_off_c, 1, 79, 0
1, 22816, Note_off_c, 1, 74, 0
1, 22848, Note_on_c, 1, 78, 127
1, 22848, Note_on_c, 1, 72, 127
1, 22870, Note_off_c, 1, 78, 0
1, 22872, Note_on_c, 1, 75, 127
1, 22894, Note_off_c, 1, 75, 0
1, 22944, Note_on_c, 1, 55, 127
1, 22992, Note_off_c, 1, 38, 0
1, 23008, Note_off_c, 1, 72, 0
1, 23038, Note_off_c, 1, 55, 0
1, 23040, Note_on_c, 1, 70, 127
1, 23040, Note_on_c, 1, 43, 127
1, 23376, Note_off_c, 1, 62, 0
1, 23376, Note_off_c, 1, 70, 0
1, 23424, Note_on_c, 1, 50, 127
1, 23584, Note_off_c, 1, 50, 0
1, 24000, Note_on_c, 1, 67, 127
1, 24160, Note_off_c, 1, 67, 0
1, 24384, Note_on_c, 1, 60, 127
1, 24862, Note_off_c, 1, 60, 0
1, 24912, Note_on_c, 1, 56, 127
1, 24958, Note_off_c, 1, 56, 0
1, 25056, Note_on_c, 1, 63, 127
1, 25150, Note_off_c, 1, 63, 0
1, 25440, Note_on_c, 1, 77, 127
1, 25486, Note_off_c, 1, 77, 0
1, 25632, Note_on_c, 1, 82, 127
1, 25726, Note_off_c, 1, 82, 0
1, 25728, Note_on_c, 1, 81, 127
1, 25822, Note_off_c, 1, 81, 0
1, 25920, Note_on_c, 1, 76, 127
1, 26080, Note_off_c, 1, 76, 0
1, 26304, Note_on_c, 1, 54, 127
1, 26398, Note_off_c, 1, 54, 0
1, 26784, Note_on_c, 1, 68, 127
1, 26878, Note_off_c, 1, 68, 0
1, 27072, Note_on_c, 1, 69, 127
1, 27232, Note_off_c, 1, 69, 0
1, 27456, Note_on_c, 1, 59, 127
1, 27550, Note_off_c, 1, 59, 0
1, 27648, Note_on_c, 1, 80, 127
1, 27648, Note_on_c, 1, 65, 127
1, 27742, Note_off_c, 1, 80, 0
1, 27792, Note_on_c, 1, 71, 127
1, 27808, Note_off_c, 1, 65, 0
1, 27838, Note_off_c, 1, 71, 0
1, 28368, Note_on_c, 1, 83, 127
1, 28414, Note_off_c, 1, 83, 0
1, 28416, Note_on_c, 1, 84, 127
1, 28510, Note_off_c, 1, 84, 0
1, 29184, Note_on_c, 1, 66, 127
1, 29278, Note_off_c, 1, 66, 0
1, 30864, Note_off_c, 1, 43, 0
1, 31104, Note_on_c, 1, 51, 127
1, 31360, Note_off_c, 1, 51, 0
1, 31680, Note_on_c, 1, 69, 127
1, 31680, Note_on_c, 1, 60, 127
1, 31680, Note_on_c, 1, 50, 127
1, 31776, Note_on_c, 1, 78, 127
1, 31840, Note_off_c, 1, 69, 0
1, 31840, Note_off_c, 1, 60, 0
1, 31840, Note_off_c, 1, 50, 0
1, 31870, Note_off_c, 1, 78, 0
1, 31872, Note_on_c, 1, 80, 127
1, 31872, Note_on_c, 1, 58, 127
1, 31872, Note_on_c, 1, 55, 127
1, 31968, Note_on_c, 1, 70, 127
1, 31968, Note_on_c, 1, 62, 127
1, 32062, Note_off_c, 1, 70, 0
1, 32062, Note_off_c, 1, 62, 0
1, 32064, Note_on_c, 1, 75, 127
1, 32064, Note_on_c, 1, 67, 127
1, 32128, Note_off_c, 1, 80, 0
1, 32158, Note_off_c, 1, 75, 0
1, 32160, Note_on_c, 1, 77, 127
1, 32160, Note_on_c, 1, 74, 127
1, 32208, Note_off_c, 1, 58, 0
1, 32224, Note_off_c, 1, 67, 0
1, 32254, Note_off_c, 1, 77, 0
1, 32254, Note_off_c, 1, 74, 0
1, 32256, Note_on_c, 1, 72, 127
1, 32256, Note_on_c, 1, 69, 127
1, 32256, Note_on_c, 1, 60, 127
1, 32350, Note_off_c, 1, 72, 0
1, 32416, Note_off_c, 1, 55, 0
1, 32416, Note_off_c, 1, 69, 0
1, 32448, Note_on_c, 1, 53, 127
1, 32494, Note_off_c, 1, 60, 0
1, 32496, Note_on_c, 1, 63, 127
1, 32542, Note_off_c, 1, 63, 0
1, 32784, Note_on_c, 1, 57, 127
1, 32830, Note_off_c, 1, 57, 0
1, 32992, Note_off_c, 1, 53, 0
1, 33024, Note_on_c, 1, 51, 127
1, 33216, Note_on_c, 1, 66, 127
1, 33262, Note_off_c, 1, 66, 0
1, 33360, Note_off_c, 1, 51, 0
1, 33408, Note_on_c, 1, 50, 127
1, 33696, Note_on_c, 1, 76, 127
1, 33742, Note_off_c, 1, 76, 0
1, 33744, Note_on_c, 1, 78, 127
1, 33790, Note_off_c, 1, 78, 0
1, 33792, Note_on_c, 1, 79, 127
1, 33838, Note_off_c, 1, 79, 0
1, 33840, Note_on_c, 1, 81, 127
1, 33886, Note_off_c, 1, 81, 0
1, 33888, Note_on_c, 1, 82, 127
1, 33934, Note_off_c, 1, 82, 0
1, 34176, Note_on_c, 1, 73, 127
1, 34176, Note_on_c, 1, 64, 127
1, 34512, Note_off_c, 1, 73, 0
1, 34512, Note_off_c, 1, 64, 0
1, 34560, Note_on_c, 1, 54, 127
1, 34654, Note_off_c, 1, 54, 0
1, 34750, Note_off_c, 1, 50, 0
1, 35328, Note_on_c, 1, 60, 127
1, 35328, Note_on_c, 1, 54, 127
1, 35424, Note_off_c, 1, 60, 0
1, 35424, Note_on_c, 1, 58, 127
1, 35518, Note_off_c, 1, 58, 0
1, 35616, Note_on_c, 1, 57, 127
1, 35664, Note_off_c, 1, 54, 0
1, 35710, Note_off_c, 1, 57, 0
1, 35712, Note_on_c, 1, 58, 127
1, 35712, Note_on_c, 1, 55, 127
1, 35806, Note_off_c, 1, 58, 0
1, 35808, Note_on_c, 1, 67, 127
1, 35808, Note_on_c, 1, 79, 127
1, 35808, Note_on_c, 1, 60, 127
1, 35902, Note_off_c, 1, 67, 0
1, 35902, Note_off_c, 1, 79, 0
1, 35902, Note_off_c, 1, 60, 0
1, 35904, Note_on_c, 1, 62, 127
1, 35904, Note_on_c, 1, 59, 127
1, 36000, Note_on_c, 1, 69, 127
1, 36064, Note_off_c, 1, 62, 0
1, 36064, Note_off_c, 1, 59, 0
1, 36094, Note_off_c, 1, 69, 0
1, 36096, Note_on_c, 1, 63, 127
1, 36192, Note_on_c, 1, 70, 127
1, 36286, Note_off_c, 1, 70, 0
1, 36384, Note_on_c, 1, 77, 127
1, 36448, Note_off_c, 1, 63, 0
1, 36478, Note_off_c, 1, 77, 0
1, 36480, Note_on_c, 1, 65, 127
1, 36576, Note_on_c, 1, 71, 127
1, 36640, Note_off_c, 1, 65, 0
1, 36670, Note_off_c, 1, 71, 0
1, 36768, Note_on_c, 1, 72, 127
1, 36862, Note_off_c, 1, 72, 0
1, 36958, Note_off_c, 1, 55, 0
1, 36960, Note_on_c, 1, 43, 127
1, 37054, Note_off_c, 1, 43, 0
1, 37056, Note_on_c, 1, 75, 127
1, 37056, Note_on_c, 1, 60, 127
1, 37056, Note_on_c, 1, 55, 127
1, 37150, Note_off_c, 1, 75, 0
1, 37150, Note_off_c, 1, 55, 0
1, 37152, Note_on_c, 1, 74, 127
1, 37152, Note_on_c, 1, 53, 127
1, 37246, Note_off_c, 1, 74, 0
1, 37246, Note_off_c, 1, 53, 0
1, 37248, Note_on_c, 1, 67, 127
1, 37344, Note_on_c, 1, 72, 127
1, 37344, Note_on_c, 1, 51, 127
1, 37408, Note_off_c, 1, 67, 0
1, 37438, Note_off_c, 1, 72, 0
1, 37438, Note_off_c, 1, 51, 0
1, 37440, Note_on_c, 1, 68, 127
1, 37536, Note_on_c, 1, 43, 127
1, 37584, Note_on_c, 1, 77, 127
1, 37600, Note_off_c, 1, 60, 0
1, 37600, Note_off_c, 1, 68, 0
1, 37630, Note_off_c, 1, 43, 0
1, 37630, Note_off_c, 1, 77, 0
1, 37632, Note_on_c, 1, 75, 127
1, 37632, Note_on_c, 1, 67, 127
1, 37632, Note_on_c, 1, 53, 127
1, 37654, Note_off_c, 1, 75, 0
1, 37656, Note_on_c, 1, 74, 127
1, 37678, Note_off_c, 1, 74, 0
1, 37726, Note_off_c, 1, 53, 0
1, 37728, Note_on_c, 1, 51, 127
1, 37822, Note_off_c, 1, 51, 0
1, 37920, Note_on_c, 1, 50, 127
1, 37968, Note_off_c, 1, 67, 0
1, 38014, Note_off_c, 1, 50, 0
1, 38016, Note_on_c, 1, 75, 127
1, 38016, Note_on_c, 1, 67, 127
1, 38016, Note_on_c, 1, 51, 127
1, 38038, Note_off_c, 1, 75, 0
1, 38040, Note_on_c, 1, 74, 127
1, 38062, Note_off_c, 1, 74, 0
1, 38112, Note_on_c, 1, 55, 127
1, 38176, Note_off_c, 1, 67, 0
1, 38206, Note_off_c, 1, 55, 0
1, 38208, Note_on_c, 1, 60, 127
1, 38304, Note_on_c, 1, 72, 127
1, 38352, Note_off_c, 1, 51, 0
1, 38400, Note_on_c, 1, 65, 127
1, 38400, Note_on_c, 1, 56, 127
1, 38494, Note_off_c, 1, 65, 0
1, 38544, Note_off_c, 1, 60, 0
1, 38560, Note_off_c, 1, 56, 0
1, 38592, Note_on_c, 1, 63, 127
1, 38592, Note_on_c, 1, 62, 127
1, 38592, Note_on_c, 1, 50, 127
1, 38686, Note_off_c, 1, 63, 0
1, 38752, Note_off_c, 1, 62, 0
1, 38784, Note_on_c, 1, 71, 127
1, 38784, Note_on_c, 1, 53, 127
1, 38848, Note_off_c, 1, 72, 0
1, 38928, Note_off_c, 1, 50, 0
1, 38944, Note_off_c, 1, 53, 0
1, 39120, Note_off_c, 1, 71, 0
1, 39168, Note_on_c, 1, 63, 127
1, 39168, Note_on_c, 1, 72, 127
1, 39168, Note_on_c, 1, 48, 127
1, 39264, Note_on_c, 1, 60, 127
1, 39328, Note_off_c, 1, 63, 0
1, 39328, Note_off_c, 1, 48, 0
1, 39358, Note_off_c, 1, 60, 0
1, 39360, Note_on_c, 1, 64, 127
1, 39360, Note_on_c, 1, 46, 127
1, 39456, Note_on_c, 1, 50, 127
1, 39520, Note_off_c, 1, 64, 0
1, 39520, Note_off_c, 1, 46, 0
1, 39550, Note_off_c, 1, 50, 0
1, 39552, Note_on_c, 1, 65, 127
1, 39552, Note_on_c, 1, 45, 127
1, 39648, Note_on_c, 1, 51, 127
1, 39712, Note_off_c, 1, 45, 0
1, 39742, Note_off_c, 1, 51, 0
1, 39838, Note_off_c, 1, 72, 0
1, 39838, Note_off_c, 1, 65, 0
1, 39840, Note_on_c, 1, 62, 127
1, 39840, Note_on_c, 1, 58, 127
1, 39934, Note_off_c, 1, 62, 0
1, 39934, Note_off_c, 1, 58, 0
1, 39936, Note_on_c, 1, 58, 127
1, 39936, Note_on_c, 1, 70, 127
1, 39936, Note_on_c, 1, 50, 127
1, 39936, Note_on_c, 1, 44, 127
1, 40030, Note_off_c, 1, 58, 0
1, 40032, Note_off_c, 1, 50, 0
1, 40032, Note_on_c, 1, 60, 127
1, 40032, Note_on_c, 1, 52, 127
1, 40096, Note_off_c, 1, 44, 0
1, 40126, Note_off_c, 1, 60, 0
1, 40126, Note_off_c, 1, 52, 0
1, 40128, Note_on_c, 1, 43, 127
1, 40224, Note_on_c, 1, 61, 127
1, 40224, Note_on_c, 1, 53, 127
1, 40288, Note_off_c, 1, 43, 0
1, 40318, Note_off_c, 1, 61, 0
1, 40318, Note_off_c, 1, 53, 0
1, 40416, Note_on_c, 1, 72, 127
1, 40416, Note_on_c, 1, 48, 127
1, 40480, Note_off_c, 1, 70, 0
1, 40510, Note_off_c, 1, 72, 0
1, 40510, Note_off_c, 1, 48, 0
1, 40512, Note_on_c, 1, 68, 127
1, 40606, Note_off_c, 1, 68, 0
1, 40608, Note_on_c, 1, 62, 127
1, 40702, Note_off_c, 1, 62, 0
1, 40800, Note_on_c, 1, 63, 127
1, 40894, Note_off_c, 1, 63, 0
1, 40896, Note_on_c, 1, 65, 127
1, 40944, Note_on_c, 1, 55, 127
1, 40990, Note_off_c, 1, 55, 0
1, 41040, Note_on_c, 1, 51, 127
1, 41056, Note_off_c, 1, 65, 0
1, 41086, Note_off_c, 1, 51, 0
1, 41184, Note_on_c, 1, 64, 127
1, 41278, Note_off_c, 1, 64, 0
1, 41472, Note_on_c, 1, 41, 127
1, 41760, Note_on_c, 1, 67, 127
1, 41854, Note_off_c, 1, 67, 0
1, 41952, Note_on_c, 1, 56, 127
1, 42046, Note_off_c, 1, 56, 0
1, 42144, Note_on_c, 1, 46, 127
1, 42208, Note_off_c, 1, 41, 0
1, 42238, Note_off_c, 1, 46, 0
1, 42240, Note_on_c, 1, 40, 127
1, 42576, Note_off_c, 1, 40, 0
1, 43008, Note_on_c, 1, 70, 127
1, 43008, Note_on_c, 1, 77, 127
1, 43008, Note_on_c, 1, 61, 127
1, 43102, Note_off_c, 1, 70, 0
1, 43104, Note_on_c, 1, 68, 127
1, 43168, Note_off_c, 1, 61, 0
1, 43198, Note_off_c, 1, 68, 0
1, 43200, Note_on_c, 1, 55, 127
1, 43360, Note_off_c, 1, 77, 0
1, 43392, Note_on_c, 1, 76, 127
1, 43392, Note_on_c, 1, 58, 127
1, 43536, Note_off_c, 1, 55, 0
1, 43552, Note_off_c, 1, 58, 0
1, 43584, Note_on_c, 1, 60, 127
1, 43680, Note_on_c, 1, 67, 127
1, 43728, Note_off_c, 1, 76, 0
1, 43744, Note_off_c, 1, 60, 0
1, 43774, Note_off_c, 1, 67, 0
1, 43776, Note_on_c, 1, 68, 127
1, 43776, Note_on_c, 1, 77, 127
1, 43776, Note_on_c, 1, 53, 127
1, 43872, Note_on_c, 1, 41, 127
1, 43936, Note_off_c, 1, 68, 0
1, 43936, Note_off_c, 1, 53, 0
1, 43966, Note_off_c, 1, 41, 0
1, 43968, Note_on_c, 1, 69, 127
1, 43968, Note_on_c, 1, 61, 127
1, 44064, Note_on_c, 1, 51, 127
1, 44128, Note_off_c, 1, 69, 0
1, 44158, Note_off_c, 1, 51, 0
1, 44160, Note_on_c, 1, 70, 127
1, 44256, Note_on_c, 1, 49, 127
1, 44304, Note_off_c, 1, 61, 0
1, 44350, Note_off_c, 1, 49, 0
1, 44352, Note_on_c, 1, 60, 127
1, 44446, Note_off_c, 1, 70, 0
1, 44496, Note_on_c, 1, 67, 127
1, 44542, Note_off_c, 1, 67, 0
1, 44832, Note_on_c, 1, 72, 127
1, 44832, Note_on_c, 1, 48, 127
1, 44926, Note_off_c, 1, 72, 0
1, 44926, Note_off_c, 1, 48, 0
1, 44928, Note_on_c, 1, 65, 127
1, 45022, Note_off_c, 1, 65, 0
1, 45088, Note_off_c, 1, 60, 0
1, 45504, Note_on_c, 1, 62, 127
1, 45504, Note_on_c, 1, 46, 127
1, 45598, Note_off_c, 1, 77, 0
1, 45792, Note_on_c, 1, 75, 127
1, 45840, Note_off_c, 1, 62, 0
1, 45840, Note_off_c, 1, 46, 0
1, 45886, Note_off_c, 1, 75, 0
1, 45888, Note_on_c, 1, 59, 127
1, 45888, Note_on_c, 1, 43, 127
1, 45984, Note_on_c, 1, 74, 127
1, 46048, Note_off_c, 1, 59, 0
1, 46048, Note_off_c, 1, 43, 0
1, 46078, Note_off_c, 1, 74, 0
1, 46080, Note_on_c, 1, 55, 127
1, 46240, Note_off_c, 1, 55, 0
1, 46272, Note_on_c, 1, 56, 127
1, 46368, Note_on_c, 1, 73, 127
1, 46462, Note_off_c, 1, 73, 0
1, 46750, Note_off_c, 1, 56, 0
1, 46752, Note_on_c, 1, 58, 127
1, 46846, Note_off_c, 1, 58, 0
1, 47232, Note_on_c, 1, 44, 127
1, 47328, Note_on_c, 1, 52, 127
1, 47374, Note_off_c, 1, 52, 0
1, 47808, Note_on_c, 1, 64, 127
1, 47854, Note_off_c, 1, 64, 0
1, 47968, Note_off_c, 1, 44, 0
1, 48672, Note_on_c, 1, 63, 127
1, 48766, Note_off_c, 1, 63, 0
1, 49152, Note_on_c, 1, 72, 127
1, 49152, Note_on_c, 1, 55, 127
1, 49152, Note_on_c, 1, 51, 127
1, 49198, Note_off_c, 1, 72, 0
1, 49200, Note_on_c, 1, 67, 127
1, 49246, Note_off_c, 1, 67, 0
1, 49248, Note_on_c, 1, 69, 127
1, 49248, Note_on_c, 1, 60, 127
1, 49294, Note_off_c, 1, 69, 0
1, 49296, Note_on_c, 1, 70, 127
1, 49342, Note_off_c, 1, 60, 0
1, 49342, Note_off_c, 1, 70, 0
1, 49344, Note_on_c, 1, 63, 127
1, 49392, Note_on_c, 1, 74, 127
1, 49408, Note_off_c, 1, 55, 0
1, 49438, Note_off_c, 1, 63, 0
1, 49438, Note_off_c, 1, 74, 0
1, 49440, Note_on_c, 1, 75, 127
1, 49486, Note_off_c, 1, 75, 0
1, 49536, Note_on_c, 1, 68, 127
1, 49536, Note_on_c, 1, 77, 127
1, 49584, Note_on_c, 1, 58, 127
1, 49630, Note_off_c, 1, 68, 0
1, 49630, Note_off_c, 1, 58, 0
1, 49632, Note_on_c, 1, 65, 127
1, 49632, Note_on_c, 1, 56, 127
1, 49678, Note_off_c, 1, 56, 0
1, 49696, Note_off_c, 1, 51, 0
1, 49726, Note_off_c, 1, 65, 0
1, 49728, Note_on_c, 1, 71, 127
1, 49728, Note_on_c, 1, 53, 127
1, 49728, Note_on_c, 1, 50, 127
1, 49774, Note_off_c, 1, 53, 0
1, 49888, Note_off_c, 1, 50, 0
1, 49920, Note_on_c, 1, 48, 127
1, 49984, Note_off_c, 1, 71, 0
1, 50080, Note_off_c, 1, 48, 0
1, 50112, Note_on_c, 1, 47, 127
1, 50158, Note_off_c, 1, 77, 0
1, 50160, Note_on_c, 1, 79, 127
1, 50206, Note_off_c, 1, 79, 0
1, 50208, Note_on_c, 1, 80, 127
1, 50272, Note_off_c, 1, 47, 0
1, 50302, Note_off_c, 1, 80, 0
1, 50304, Note_on_c, 1, 80, 127
1, 50304, Note_on_c, 1, 71, 127
1, 50304, Note_on_c, 1, 53, 127
1, 50304, Note_on_c, 1, 43, 127
1, 50350, Note_off_c, 1, 53, 0
1, 50352, Note_on_c, 1, 51, 127
1, 50398, Note_off_c, 1, 80, 0
1, 50398, Note_off_c, 1, 51, 0
1, 50400, Note_on_c, 1, 79, 127
1, 50400, Note_on_c, 1, 50, 127
1, 50446, Note_off_c, 1, 50, 0
1, 50448, Note_on_c, 1, 48, 127
1, 50464, Note_off_c, 1, 71, 0
1, 50464, Note_off_c, 1, 43, 0
1, 50494, Note_off_c, 1, 79, 0
1, 50494, Note_off_c, 1, 48, 0
1, 50496, Note_on_c, 1, 79, 127
1, 50496, Note_on_c, 1, 74, 127
1, 50496, Note_on_c, 1, 55, 127
1, 50496, Note_on_c, 1, 47, 127
1, 50590, Note_off_c, 1, 79, 0
1, 50592, Note_on_c, 1, 77, 127
1, 50656, Note_off_c, 1, 47, 0
1, 50686, Note_off_c, 1, 77, 0
1, 50688, Note_on_c, 1, 75, 127
1, 50688, Note_on_c, 1, 48, 127
1, 50734, Note_off_c, 1, 55, 0
1, 50736, Note_on_c, 1, 59, 127
1, 50782, Note_off_c, 1, 74, 0
1, 50782, Note_off_c, 1, 59, 0
1, 50784, Note_on_c, 1, 67, 127
1, 50784, Note_on_c, 1, 60, 127
1, 50830, Note_off_c, 1, 60, 0
1, 50832, Note_on_c, 1, 62, 127
1, 50848, Note_off_c, 1, 48, 0
1, 50878, Note_off_c, 1, 67, 0
1, 50878, Note_off_c, 1, 62, 0
1, 50880, Note_on_c, 1, 72, 127
1, 50880, Note_on_c, 1, 63, 127
1, 50880, Note_on_c, 1, 56, 127
1, 50926, Note_off_c, 1, 63, 0
1, 50928, Note_on_c, 1, 65, 127
1, 50974, Note_off_c, 1, 72, 0
1, 50974, Note_off_c, 1, 65, 0
1, 50976, Note_on_c, 1, 71, 127
1, 51024, Note_on_c, 1, 68, 127
1, 51040, Note_off_c, 1, 56, 0
1, 51070, Note_off_c, 1, 71, 0
1, 51070, Note_off_c, 1, 68, 0
1, 51072, Note_on_c, 1, 51, 127
1, 51232, Note_off_c, 1, 51, 0
1, 51264, Note_on_c, 1, 53, 127
1, 51358, Note_off_c, 1, 75, 0
1, 51424, Note_off_c, 1, 53, 0
1, 51648, Note_on_c, 1, 43, 127
1, 51808, Note_off_c, 1, 43, 0
1, 51840, Note_on_c, 1, 44, 127
1, 52176, Note_off_c, 1, 44, 0
1, 52272, Note_on_c, 1, 58, 127
1, 52318, Note_off_c, 1, 58, 0
1, 52320, Note_on_c, 1, 57, 127
1, 52366, Note_off_c, 1, 57, 0
1, 52416, Note_on_c, 1, 42, 127
1, 52560, Note_on_c, 1, 69, 127
1, 52576, Note_off_c, 1, 42, 0
1, 52606, Note_off_c, 1, 69, 0
1, 52608, Note_on_c, 1, 72, 127
1, 52608, Note_on_c, 1, 74, 127
1, 52608, Note_on_c, 1, 55, 127
1, 52608, Note_on_c, 1, 43, 127
1, 52630, Note_off_c, 1, 72, 0
1, 52630, Note_off_c, 1, 74, 0
1, 52632, Note_on_c, 1, 71, 127
1, 52632, Note_on_c, 1, 62, 127
1, 52654, Note_off_c, 1, 71, 0
1, 52702, Note_off_c, 1, 62, 0
1, 52704, Note_on_c, 1, 63, 127
1, 52798, Note_off_c, 1, 63, 0
1, 52800, Note_on_c, 1, 65, 127
1, 52944, Note_off_c, 1, 43, 0
1, 52992, Note_on_c, 1, 36, 127
1, 53086, Note_off_c, 1, 65, 0
1, 53152, Note_off_c, 1, 55, 0
1, 53184, Note_on_c, 1, 68, 127
1, 53328, Note_off_c, 1, 36, 0
1, 53376, Note_on_c, 1, 75, 127
1, 53376, Note_on_c, 1, 60, 127
1, 53376, Note_on_c, 1, 48, 127
1, 53422, Note_off_c, 1, 75, 0
1, 53424, Note_on_c, 1, 77, 127
1, 53470, Note_off_c, 1, 60, 0
1, 53470, Note_off_c, 1, 77, 0
1, 53472, Note_on_c, 1, 79, 127
1, 53518, Note_off_c, 1, 79, 0
1, 53520, Note_on_c, 1, 80, 127
1, 53566, Note_off_c, 1, 80, 0
1, 53616, Note_on_c, 1, 67, 127
1, 53662, Note_off_c, 1, 67, 0
1, 53728, Note_off_c, 1, 68, 0
1, 53728, Note_off_c, 1, 48, 0
1, 53760, Note_on_c, 1, 79, 127
1, 53760, Note_on_c, 1, 62, 127
1, 53760, Note_on_c, 1, 46, 127
1, 53806, Note_off_c, 1, 62, 0
1, 53808, Note_on_c, 1, 60, 127
1, 53854, Note_off_c, 1, 60, 0
1, 53856, Note_on_c, 1, 74, 127
1, 53856, Note_on_c, 1, 58, 127
1, 53902, Note_off_c, 1, 58, 0
1, 53950, Note_off_c, 1, 74, 0
1, 53952, Note_on_c, 1, 70, 127
1, 54112, Note_off_c, 1, 70, 0
1, 54144, Note_on_c, 1, 63, 127
1, 54190, Note_off_c, 1, 79, 0
1, 54192, Note_on_c, 1, 77, 127
1, 54238, Note_off_c, 1, 63, 0
1, 54238, Note_off_c, 1, 77, 0
1, 54240, Note_on_c, 1, 75, 127
1, 54286, Note_off_c, 1, 75, 0
1, 54304, Note_off_c, 1, 46, 0
1, 54336, Note_on_c, 1, 72, 127
1, 54336, Note_on_c, 1, 44, 127
1, 54382, Note_off_c, 1, 72, 0
1, 54384, Note_on_c, 1, 71, 127
1, 54430, Note_off_c, 1, 71, 0
1, 54432, Note_on_c, 1, 64, 127
1, 54526, Note_off_c, 1, 64, 0
1, 54528, Note_on_c, 1, 65, 127
1, 54622, Note_off_c, 1, 65, 0
1, 54624, Note_on_c, 1, 66, 127
1, 54672, Note_off_c, 1, 44, 0
1, 54718, Note_off_c, 1, 66, 0
1, 54720, Note_on_c, 1, 71, 127
1, 54720, Note_on_c, 1, 67, 127
1, 54720, Note_on_c, 1, 62, 127
1, 54720, Note_on_c, 1, 43, 127
1, 55248, Note_off_c, 1, 71, 0
1, 55248, Note_off_c, 1, 67, 0
1, 55248, Note_off_c, 1, 62, 0
1, 55248, Note_off_c, 1, 43, 0
1, 55872, Note_on_c, 1, 60, 127
1, 56032, Note_off_c, 1, 60, 0
1, 56064, Note_on_c, 1, 67, 127
1, 56224, Note_off_c, 1, 67, 0
1, 56256, Note_on_c, 1, 67, 127
1, 56416, Note_off_c, 1, 67, 0
1, 56448, Note_on_c, 1, 67, 127
1, 56608, Note_off_c, 1, 67, 0
1, 56640, Note_on_c, 1, 67, 127
1, 56800, Note_off_c, 1, 67, 0
1, 56832, Note_on_c, 1, 68, 127
1, 57310, Note_off_c, 1, 68, 0
1, 57312, Note_on_c, 1, 65, 127
1, 57406, Note_off_c, 1, 65, 0
1, 57408, Note_on_c, 1, 62, 127
1, 57502, Note_off_c, 1, 62, 0
1, 57504, Note_on_c, 1, 65, 127
1, 57598, Note_off_c, 1, 65, 0
1, 57600, Note_on_c, 1, 59, 127
1, 57760, Note_off_c, 1, 59, 0
1, 57792, Note_on_c, 1, 68, 127
1, 57952, Note_off_c, 1, 68, 0
1, 57984, Note_on_c, 1, 67, 127
1, 58144, Note_off_c, 1, 67, 0
1, 58176, Note_on_c, 1, 65, 127
1, 58336, Note_off_c, 1, 65, 0
1, 58368, Note_on_c, 1, 63, 127
1, 58528, Note_off_c, 1, 63, 0
1, 58560, Note_on_c, 1, 62, 127
1, 58654, Note_off_c, 1, 62, 0
1, 58656, Note_on_c, 1, 63, 127
1, 58750, Note_off_c, 1, 63, 0
1, 58752, Note_on_c, 1, 60, 127
1, 58846, Note_off_c, 1, 60, 0
1, 58848, Note_on_c, 1, 59, 127
1, 58942, Note_off_c, 1, 59, 0
1, 58944, Note_on_c, 1, 67, 127
1, 58944, Note_on_c, 1, 60, 127
1, 59038, Note_off_c, 1, 60, 0
1, 59040, Note_on_c, 1, 62, 127
1, 59104, Note_off_c, 1, 67, 0
1, 59134, Note_off_c, 1, 62, 0
1, 59136, Note_on_c, 1, 72, 127
1, 59136, Note_on_c, 1, 63, 127
1, 59230, Note_off_c, 1, 63, 0
1, 59232, Note_on_c, 1, 60, 127
1, 59296, Note_off_c, 1, 72, 0
1, 59326, Note_off_c, 1, 60, 0
1, 59328, Note_on_c, 1, 72, 127
1, 59328, Note_on_c, 1, 62, 127
1, 59422, Note_off_c, 1, 62, 0
1, 59424, Note_on_c, 1, 63, 127
1, 59488, Note_off_c, 1, 72, 0
1, 59518, Note_off_c, 1, 63, 0
1, 59520, Note_on_c, 1, 72, 127
1, 59520, Note_on_c, 1, 65, 127
1, 59614, Note_off_c, 1, 65, 0
1, 59616, Note_on_c, 1, 67, 127
1, 59680, Note_off_c, 1, 72, 0
1, 59710, Note_off_c, 1, 67, 0
1, 59712, Note_on_c, 1, 72, 127
1, 59712, Note_on_c, 1, 69, 127
1, 59806, Note_off_c, 1, 69, 0
1, 59808, Note_on_c, 1, 71, 127
1, 59872, Note_off_c, 1, 72, 0
1, 59902, Note_off_c, 1, 71, 0
1, 59904, Note_on_c, 1, 75, 127
1, 59904, Note_on_c, 1, 72, 127
1, 59998, Note_off_c, 1, 72, 0
1, 60000, Note_on_c, 1, 67, 127
1, 60094, Note_off_c, 1, 67, 0
1, 60096, Note_on_c, 1, 63, 127
1, 60190, Note_off_c, 1, 63, 0
1, 60288, Note_on_c, 1, 60, 127
1, 60382, Note_off_c, 1, 75, 0
1, 60480, Note_on_c, 1, 69, 127
1, 60574, Note_off_c, 1, 69, 0
1, 60672, Note_on_c, 1, 66, 127
1, 60766, Note_off_c, 1, 60, 0
1, 60768, Note_on_c, 1, 58, 127
1, 60832, Note_off_c, 1, 66, 0
1, 60862, Note_off_c, 1, 58, 0
1, 60864, Note_on_c, 1, 75, 127
1, 60864, Note_on_c, 1, 57, 127
1, 60958, Note_off_c, 1, 57, 0
1, 60960, Note_on_c, 1, 60, 127
1, 61024, Note_off_c, 1, 75, 0
1, 61054, Note_off_c, 1, 60, 0
1, 61056, Note_on_c, 1, 74, 127
1, 61056, Note_on_c, 1, 58, 127
1, 61150, Note_off_c, 1, 58, 0
1, 61152, Note_on_c, 1, 57, 127
1, 61216, Note_off_c, 1, 74, 0
1, 61246, Note_off_c, 1, 57, 0
1, 61248, Note_on_c, 1, 72, 127
1, 61248, Note_on_c, 1, 55, 127
1, 61342, Note_off_c, 1, 55, 0
1, 61344, Note_on_c, 1, 54, 127
1, 61408, Note_off_c, 1, 72, 0
1, 61438, Note_off_c, 1, 54, 0
1, 61440, Note_on_c, 1, 70, 127
1, 61440, Note_on_c, 1, 55, 127
1, 61534, Note_off_c, 1, 55, 0
1, 61536, Note_on_c, 1, 58, 127
1, 61600, Note_off_c, 1, 70, 0
1, 61630, Note_off_c, 1, 58, 0
1, 61632, Note_on_c, 1, 69, 127
1, 61632, Note_on_c, 1, 60, 127
1, 61726, Note_off_c, 1, 69, 0
1, 61726, Note_off_c, 1, 60, 0
1, 61728, Note_on_c, 1, 70, 127
1, 61728, Note_on_c, 1, 62, 127
1, 61822, Note_off_c, 1, 70, 0
1, 61822, Note_off_c, 1, 62, 0
1, 61824, Note_on_c, 1, 67, 127
1, 61824, Note_on_c, 1, 63, 127
1, 61918, Note_off_c, 1, 67, 0
1, 61920, Note_on_c, 1, 79, 127
1, 62014, Note_off_c, 1, 79, 0
1, 62016, Note_on_c, 1, 77, 127
1, 62110, Note_off_c, 1, 77, 0
1, 62208, Note_on_c, 1, 68, 127
1, 62302, Note_off_c, 1, 63, 0
1, 62304, Note_on_c, 1, 62, 127
1, 62368, Note_off_c, 1, 68, 0
1, 62398, Note_off_c, 1, 62, 0
1, 62400, Note_on_c, 1, 79, 127
1, 62400, Note_on_c, 1, 60, 127
1, 62494, Note_off_c, 1, 60, 0
1, 62496, Note_on_c, 1, 63, 127
1, 62560, Note_off_c, 1, 79, 0
1, 62590, Note_off_c, 1, 63, 0
1, 62592, Note_on_c, 1, 77, 127
1, 62592, Note_on_c, 1, 62, 127
1, 62686, Note_off_c, 1, 62, 0
1, 62688, Note_on_c, 1, 60, 127
1, 62752, Note_off_c, 1, 77, 0
1, 62782, Note_off_c, 1, 60, 0
1, 62784, Note_on_c, 1, 74, 127
1, 62784, Note_on_c, 1, 59, 127
1, 62878, Note_off_c, 1, 59, 0
1, 62880, Note_on_c, 1, 57, 127
1, 62944, Note_off_c, 1, 74, 0
1, 62974, Note_off_c, 1, 57, 0
1, 62976, Note_on_c, 1, 67, 127
1, 62976, Note_on_c, 1, 59, 127
1, 63070, Note_off_c, 1, 59, 0
1, 63072, Note_on_c, 1, 55, 127
1, 63136, Note_off_c, 1, 67, 0
1, 63166, Note_off_c, 1, 55, 0
1, 63168, Note_on_c, 1, 77, 127
1, 63168, Note_on_c, 1, 57, 127
1, 63262, Note_off_c, 1, 57, 0
1, 63264, Note_on_c, 1, 59, 127
1, 63328, Note_off_c, 1, 77, 0
1, 63358, Note_off_c, 1, 59, 0
1, 63360, Note_on_c, 1, 75, 127
1, 63360, Note_on_c, 1, 60, 127
1, 63454, Note_off_c, 1, 60, 0
1, 63456, Note_on_c, 1, 62, 127
1, 63520, Note_off_c, 1, 75, 0
1, 63550, Note_off_c, 1, 62, 0
1, 63552, Note_on_c, 1, 72, 127
1, 63552, Note_on_c, 1, 63, 127
1, 63552, Note_on_c, 1, 48, 127
1, 63646, Note_off_c, 1, 63, 0
1, 63648, Note_on_c, 1, 65, 127
1, 63712, Note_off_c, 1, 48, 0
1, 63742, Note_off_c, 1, 65, 0
1, 63744, Note_on_c, 1, 55, 127
1, 63838, Note_off_c, 1, 72, 0
1, 63840, Note_on_c, 1, 75, 127
1, 63840, Note_on_c, 1, 60, 127
1, 63904, Note_off_c, 1, 55, 0
1, 63934, Note_off_c, 1, 75, 0
1, 63934, Note_off_c, 1, 60, 0
1, 63936, Note_on_c, 1, 74, 127
1, 63936, Note_on_c, 1, 62, 127
1, 63936, Note_on_c, 1, 55, 127
1, 64030, Note_off_c, 1, 74, 0
1, 64030, Note_off_c, 1, 62, 0
1, 64032, Note_on_c, 1, 72, 127
1, 64032, Note_on_c, 1, 63, 127
1, 64096, Note_off_c, 1, 55, 0
1, 64126, Note_off_c, 1, 72, 0
1, 64126, Note_off_c, 1, 63, 0
1, 64128, Note_on_c, 1, 71, 127
1, 64128, Note_on_c, 1, 62, 127
1, 64128, Note_on_c, 1, 55, 127
1, 64222, Note_off_c, 1, 71, 0
1, 64222, Note_off_c, 1, 62, 0
1, 64224, Note_on_c, 1, 69, 127
1, 64224, Note_on_c, 1, 65, 127
1, 64288, Note_off_c, 1, 55, 0
1, 64318, Note_off_c, 1, 69, 0
1, 64318, Note_off_c, 1, 65, 0
1, 64320, Note_on_c, 1, 67, 127
1, 64320, Note_on_c, 1, 63, 127
1, 64320, Note_on_c, 1, 55, 127
1, 64414, Note_off_c, 1, 67, 0
1, 64414, Note_off_c, 1, 63, 0
1, 64416, Note_on_c, 1, 65, 127
1, 64416, Note_on_c, 1, 62, 127
1, 64480, Note_off_c, 1, 55, 0
1, 64510, Note_off_c, 1, 65, 0
1, 64510, Note_off_c, 1, 62, 0
1, 64512, Note_on_c, 1, 63, 127
1, 64512, Note_on_c, 1, 60, 127
1, 64512, Note_on_c, 1, 56, 127
1, 64606, Note_off_c, 1, 60, 0
1, 64608, Note_on_c, 1, 62, 127
1, 64672, Note_off_c, 1, 63, 0
1, 64702, Note_off_c, 1, 62, 0
1, 64704, Note_on_c, 1, 72, 127
1, 64896, Note_on_c, 1, 65, 127
1, 64990, Note_off_c, 1, 56, 0
1, 64992, Note_on_c, 1, 53, 127
1, 65040, Note_off_c, 1, 72, 0
1, 65086, Note_off_c, 1, 53, 0
1, 65088, Note_on_c, 1, 77, 127
1, 65088, Note_on_c, 1, 50, 127
1, 65182, Note_off_c, 1, 50, 0
1, 65248, Note_off_c, 1, 77, 0
1, 65280, Note_on_c, 1, 67, 127
1, 65280, Note_on_c, 1, 47, 127
1, 65374, Note_off_c, 1, 65, 0
1, 65440, Note_off_c, 1, 67, 0
1, 65440, Note_off_c, 1, 47, 0
1, 65472, Note_on_c, 1, 71, 127
1, 65472, Note_on_c, 1, 62, 127
1, 65472, Note_on_c, 1, 56, 127
1, 65566, Note_off_c, 1, 62, 0
1, 65568, Note_on_c, 1, 65, 127
1, 65632, Note_off_c, 1, 71, 0
1, 65632, Note_off_c, 1, 56, 0
1, 65662, Note_off_c, 1, 65, 0
1, 65664, Note_on_c, 1, 72, 127
1, 65664, Note_on_c, 1, 63, 127
1, 65664, Note_on_c, 1, 55, 127
1, 65758, Note_off_c, 1, 63, 0
1, 65760, Note_on_c, 1, 65, 127
1, 65824, Note_off_c, 1, 72, 0
1, 65824, Note_off_c, 1, 55, 0
1, 65854, Note_off_c, 1, 65, 0
1, 65856, Note_on_c, 1, 71, 127
1, 65856, Note_on_c, 1, 62, 127
1, 65856, Note_on_c, 1, 53, 127
1, 65950, Note_off_c, 1, 62, 0
1, 65952, Note_on_c, 1, 63, 127
1, 66016, Note_off_c, 1, 71, 0
1, 66016, Note_off_c, 1, 53, 0
1, 66046, Note_off_c, 1, 63, 0
1, 66048, Note_on_c, 1, 72, 127
1, 66048, Note_on_c, 1, 55, 127
1, 66048, Note_on_c, 1, 51, 127
1, 66142, Note_off_c, 1, 72, 0
1, 66144, Note_on_c, 1, 79, 127
1, 66208, Note_off_c, 1, 55, 0
1, 66208, Note_off_c, 1, 51, 0
1, 66238, Note_off_c, 1, 79, 0
1, 66240, Note_on_c, 1, 77, 127
1, 66240, Note_on_c, 1, 59, 127
1, 66240, Note_on_c, 1, 50, 127
1, 66334, Note_off_c, 1, 77, 0
1, 66334, Note_off_c, 1, 50, 0
1, 66336, Note_on_c, 1, 79, 127
1, 66336, Note_on_c, 1, 51, 127
1, 66400, Note_off_c, 1, 59, 0
1, 66430, Note_off_c, 1, 79, 0
1, 66430, Note_off_c, 1, 51, 0
1, 66432, Note_on_c, 1, 75, 127
1, 66432, Note_on_c, 1, 60, 127
1, 66432, Note_on_c, 1, 48, 127
1, 66526, Note_off_c, 1, 75, 0
1, 66528, Note_on_c, 1, 77, 127
1, 66592, Note_off_c, 1, 60, 0
1, 66592, Note_off_c, 1, 48, 0
1, 66622, Note_off_c, 1, 77, 0
1, 66624, Note_on_c, 1, 74, 127
1, 66624, Note_on_c, 1, 67, 127
1, 66624, Note_on_c, 1, 55, 127
1, 66624, Note_on_c, 1, 46, 127
1, 66718, Note_off_c, 1, 74, 0
1, 66720, Note_on_c, 1, 75, 127
1, 66784, Note_off_c, 1, 55, 0
1, 66784, Note_off_c, 1, 46, 0
1, 66814, Note_off_c, 1, 75, 0
1, 66816, Note_on_c, 1, 72, 127
1, 66816, Note_on_c, 1, 60, 127
1, 66816, Note_on_c, 1, 45, 127
1, 66910, Note_off_c, 1, 67, 0
1, 66912, Note_on_c, 1, 70, 127
1, 66976, Note_off_c, 1, 60, 0
1, 67006, Note_off_c, 1, 70, 0
1, 67008, Note_on_c, 1, 69, 127
1, 67102, Note_off_c, 1, 69, 0
1, 67200, Note_on_c, 1, 66, 127
1, 67294, Note_off_c, 1, 66, 0
1, 67392, Note_on_c, 1, 64, 127
1, 67486, Note_off_c, 1, 64, 0
1, 67536, Note_off_c, 1, 45, 0
1, 67584, Note_on_c, 1, 63, 127
1, 67584, Note_on_c, 1, 43, 127
1, 67678, Note_off_c, 1, 72, 0
1, 67678, Note_off_c, 1, 43, 0
1, 67680, Note_on_c, 1, 71, 127
1, 67774, Note_off_c, 1, 71, 0
1, 67776, Note_on_c, 1, 51, 127
1, 67870, Note_off_c, 1, 51, 0
1, 67968, Note_on_c, 1, 48, 127
1, 68062, Note_off_c, 1, 63, 0
1, 68160, Note_on_c, 1, 57, 127
1, 68254, Note_off_c, 1, 57, 0
1, 68352, Note_on_c, 1, 54, 127
1, 68446, Note_off_c, 1, 48, 0
1, 68512, Note_off_c, 1, 54, 0
1, 68736, Note_on_c, 1, 81, 127
1, 68736, Note_on_c, 1, 62, 127
1, 68896, Note_off_c, 1, 62, 0
1, 69072, Note_off_c, 1, 81, 0
1, 69120, Note_on_c, 1, 80, 127
1, 69120, Note_on_c, 1, 74, 127
1, 69120, Note_on_c, 1, 58, 127
1, 69120, Note_on_c, 1, 55, 127
1, 69214, Note_off_c, 1, 80, 0
1, 69216, Note_on_c, 1, 79, 127
1, 69280, Note_off_c, 1, 58, 0
1, 69310, Note_off_c, 1, 79, 0
1, 69312, Note_on_c, 1, 78, 127
1, 69312, Note_on_c, 1, 57, 127
1, 69406, Note_off_c, 1, 78, 0
1, 69406, Note_off_c, 1, 57, 0
1, 69504, Note_on_c, 1, 82, 127
1, 69648, Note_off_c, 1, 74, 0
1, 69694, Note_off_c, 1, 55, 0
1, 69696, Note_on_c, 1, 65, 127
1, 69696, Note_on_c, 1, 50, 127
1, 69790, Note_off_c, 1, 50, 0
1, 69792, Note_on_c, 1, 53, 127
1, 69856, Note_off_c, 1, 65, 0
1, 69886, Note_off_c, 1, 53, 0
1, 69888, Note_on_c, 1, 72, 127
1, 69888, Note_on_c, 1, 67, 127
1, 69888, Note_on_c, 1, 52, 127
1, 69982, Note_off_c, 1, 82, 0
1, 69984, Note_on_c, 1, 77, 127
1, 70048, Note_off_c, 1, 52, 0
1, 70078, Note_off_c, 1, 77, 0
1, 70080, Note_on_c, 1, 76, 127
1, 70174, Note_off_c, 1, 76, 0
1, 70224, Note_off_c, 1, 72, 0
1, 70224, Note_off_c, 1, 67, 0
1, 70272, Note_on_c, 1, 76, 127
1, 70272, Note_on_c, 1, 48, 127
1, 70366, Note_off_c, 1, 76, 0
1, 70368, Note_on_c, 1, 79, 127
1, 70432, Note_off_c, 1, 48, 0
1, 70462, Note_off_c, 1, 79, 0
1, 70464, Note_on_c, 1, 72, 127
1, 70464, Note_on_c, 1, 67, 127
1, 70464, Note_on_c, 1, 60, 127
1, 70464, Note_on_c, 1, 52, 127
1, 70558, Note_off_c, 1, 72, 0
1, 70560, Note_on_c, 1, 70, 127
1, 70624, Note_off_c, 1, 67, 0
1, 70624, Note_off_c, 1, 52, 0
1, 70654, Note_off_c, 1, 70, 0
1, 70656, Note_on_c, 1, 68, 127
1, 70656, Note_on_c, 1, 65, 127
1, 70656, Note_on_c, 1, 53, 127
1, 70750, Note_off_c, 1, 60, 0
1, 70750, Note_off_c, 1, 68, 0
1, 70752, Note_on_c, 1, 58, 127
1, 70816, Note_off_c, 1, 65, 0
1, 70846, Note_off_c, 1, 58, 0
1, 70848, Note_on_c, 1, 77, 127
1, 70848, Note_on_c, 1, 56, 127
1, 70942, Note_off_c, 1, 77, 0
1, 70942, Note_off_c, 1, 56, 0
1, 70944, Note_on_c, 1, 79, 127
1, 70944, Note_on_c, 1, 55, 127
1, 71038, Note_off_c, 1, 79, 0
1, 71038, Note_off_c, 1, 55, 0
1, 71040, Note_on_c, 1, 80, 127
1, 71230, Note_off_c, 1, 53, 0
1, 71232, Note_on_c, 1, 63, 127
1, 71232, Note_on_c, 1, 48, 127
1, 71326, Note_off_c, 1, 48, 0
1, 71328, Note_on_c, 1, 51, 127
1, 71392, Note_off_c, 1, 63, 0
1, 71422, Note_off_c, 1, 51, 0
1, 71424, Note_on_c, 1, 50, 127
1, 71518, Note_off_c, 1, 80, 0
1, 71520, Note_on_c, 1, 75, 127
1, 71584, Note_off_c, 1, 50, 0
1, 71614, Note_off_c, 1, 75, 0
1, 71616, Note_on_c, 1, 74, 127
1, 71710, Note_off_c, 1, 74, 0
1, 71808, Note_on_c, 1, 74, 127
1, 71808, Note_on_c, 1, 46, 127
1, 71902, Note_off_c, 1, 74, 0
1, 71904, Note_on_c, 1, 77, 127
1, 71968, Note_off_c, 1, 46, 0
1, 71998, Note_off_c, 1, 77, 0
1, 72000, Note_on_c, 1, 70, 127
1, 72000, Note_on_c, 1, 65, 127
1, 72000, Note_on_c, 1, 58, 127
1, 72000, Note_on_c, 1, 50, 127
1, 72094, Note_off_c, 1, 70, 0
1, 72096, Note_on_c, 1, 68, 127
1, 72160, Note_off_c, 1, 65, 0
1, 72160, Note_off_c, 1, 50, 0
1, 72190, Note_off_c, 1, 68, 0
1, 72192, Note_on_c, 1, 67, 127
1, 72192, Note_on_c, 1, 63, 127
1, 72192, Note_on_c, 1, 51, 127
1, 72286, Note_off_c, 1, 58, 0
1, 72286, Note_off_c, 1, 67, 0
1, 72288, Note_on_c, 1, 56, 127
1, 72352, Note_off_c, 1, 63, 0
1, 72382, Note_off_c, 1, 56, 0
1, 72384, Note_on_c, 1, 75, 127
1, 72384, Note_on_c, 1, 55, 127
1, 72478, Note_off_c, 1, 75, 0
1, 72478, Note_off_c, 1, 55, 0
1, 72480, Note_on_c, 1, 77, 127
1, 72480, Note_on_c, 1, 53, 127
1, 72574, Note_off_c, 1, 77, 0
1, 72574, Note_off_c, 1, 53, 0
1, 72576, Note_on_c, 1, 79, 127
1, 72766, Note_off_c, 1, 51, 0
1, 72768, Note_on_c, 1, 48, 127
1, 72862, Note_off_c, 1, 48, 0
1, 72960, Note_on_c, 1, 60, 127
1, 72960, Note_on_c, 1, 44, 127
1, 73054, Note_off_c, 1, 79, 0
1, 73054, Note_off_c, 1, 60, 0
1, 73056, Note_on_c, 1, 72, 127
1, 73150, Note_off_c, 1, 72, 0
1, 73152, Note_on_c, 1, 74, 127
1, 73246, Note_off_c, 1, 74, 0
1, 73438, Note_off_c, 1, 44, 0
1, 73728, Note_on_c, 1, 47, 127
1, 73888, Note_off_c, 1, 47, 0
1, 73920, Note_on_c, 1, 77, 127
1, 73920, Note_on_c, 1, 59, 127
1, 73920, Note_on_c, 1, 43, 127
1, 74014, Note_off_c, 1, 77, 0
1, 74016, Note_on_c, 1, 79, 127
1, 74080, Note_off_c, 1, 59, 0
1, 74080, Note_off_c, 1, 43, 0
1, 74110, Note_off_c, 1, 79, 0
1, 74112, Note_on_c, 1, 77, 127
1, 74112, Note_on_c, 1, 60, 127
1, 74112, Note_on_c, 1, 48, 127
1, 74206, Note_off_c, 1, 77, 0
1, 74208, Note_on_c, 1, 75, 127
1, 74272, Note_off_c, 1, 60, 0
1, 74302, Note_off_c, 1, 75, 0
1, 74304, Note_on_c, 1, 74, 127
1, 74304, Note_on_c, 1, 63, 127
1, 74398, Note_off_c, 1, 74, 0
1, 74400, Note_on_c, 1, 72, 127
1, 74464, Note_off_c, 1, 63, 0
1, 74494, Note_off_c, 1, 72, 0
1, 74496, Note_on_c, 1, 67, 127
1, 74496, Note_on_c, 1, 62, 127
1, 74590, Note_off_c, 1, 62, 0
1, 74592, Note_on_c, 1, 53, 127
1, 74656, Note_off_c, 1, 67, 0
1, 74686, Note_off_c, 1, 53, 0
1, 74688, Note_on_c, 1, 55, 127
1, 74782, Note_off_c, 1, 55, 0
1, 74784, Note_on_c, 1, 56, 127
1, 74832, Note_off_c, 1, 48, 0
1, 74878, Note_off_c, 1, 56, 0
1, 74880, Note_on_c, 1, 47, 127
1, 75072, Note_on_c, 1, 51, 127
1, 75166, Note_off_c, 1, 51, 0
1, 75168, Note_on_c, 1, 50, 127
1, 75216, Note_off_c, 1, 47, 0
1, 75262, Note_off_c, 1, 50, 0
1, 75264, Note_on_c, 1, 68, 127
1, 75742, Note_off_c, 1, 68, 0
1, 75744, Note_on_c, 1, 65, 127
1, 75838, Note_off_c, 1, 65, 0
1, 75840, Note_on_c, 1, 71, 127
1, 75934, Note_off_c, 1, 71, 0
1, 76032, Note_on_c, 1, 59, 127
1, 76192, Note_off_c, 1, 59, 0
1, 76224, Note_on_c, 1, 71, 127
1, 76224, Note_on_c, 1, 68, 127
1, 76224, Note_on_c, 1, 51, 127
1, 76318, Note_off_c, 1, 51, 0
1, 76320, Note_on_c, 1, 53, 127
1, 76384, Note_off_c, 1, 71, 0
1, 76384, Note_off_c, 1, 68, 0
1, 76414, Note_off_c, 1, 53, 0
1, 76416, Note_on_c, 1, 72, 127
1, 76416, Note_on_c, 1, 67, 127
1, 76416, Note_on_c, 1, 51, 127
1, 76510, Note_off_c, 1, 51, 0
1, 76512, Note_on_c, 1, 50, 127
1, 76576, Note_off_c, 1, 72, 0
1, 76576, Note_off_c, 1, 67, 0
1, 76606, Note_off_c, 1, 50, 0
1, 76608, Note_on_c, 1, 74, 127
1, 76608, Note_on_c, 1, 65, 127
1, 76608, Note_on_c, 1, 48, 127
1, 76702, Note_off_c, 1, 48, 0
1, 76704, Note_on_c, 1, 47, 127
1, 76768, Note_off_c, 1, 74, 0
1, 76768, Note_off_c, 1, 65, 0
1, 76798, Note_off_c, 1, 47, 0
1, 76800, Note_on_c, 1, 63, 127
1, 76800, Note_on_c, 1, 67, 127
1, 76800, Note_on_c, 1, 48, 127
1, 76894, Note_off_c, 1, 48, 0
1, 76896, Note_on_c, 1, 51, 127
1, 76960, Note_off_c, 1, 63, 0
1, 76990, Note_off_c, 1, 51, 0
1, 76992, Note_on_c, 1, 62, 127
1, 76992, Note_on_c, 1, 53, 127
1, 77086, Note_off_c, 1, 62, 0
1, 77086, Note_off_c, 1, 53, 0
1, 77088, Note_on_c, 1, 55, 127
1, 77182, Note_off_c, 1, 55, 0
1, 77184, Note_on_c, 1, 60, 127
1, 77184, Note_on_c, 1, 56, 127
1, 77278, Note_off_c, 1, 60, 0
1, 77280, Note_on_c, 1, 59, 127
1, 77344, Note_off_c, 1, 67, 0
1, 77374, Note_off_c, 1, 59, 0
1, 77376, Note_on_c, 1, 65, 127
1, 77520, Note_off_c, 1, 56, 0
1, 77536, Note_off_c, 1, 65, 0
1, 77568, Note_on_c, 1, 64, 127
1, 77568, Note_on_c, 1, 70, 127
1, 77568, Note_on_c, 1, 55, 127
1, 77662, Note_off_c, 1, 64, 0
1, 77664, Note_on_c, 1, 62, 127
1, 77728, Note_off_c, 1, 55, 0
1, 77758, Note_off_c, 1, 62, 0
1, 77760, Note_on_c, 1, 53, 127
1, 77856, Note_on_c, 1, 65, 127
1, 77920, Note_off_c, 1, 53, 0
1, 77950, Note_off_c, 1, 65, 0
1, 77952, Note_on_c, 1, 67, 127
1, 77952, Note_on_c, 1, 52, 127
1, 78046, Note_off_c, 1, 70, 0
1, 78048, Note_on_c, 1, 68, 127
1, 78112, Note_off_c, 1, 52, 0
1, 78142, Note_off_c, 1, 68, 0
1, 78144, Note_on_c, 1, 48, 127
1, 78240, Note_on_c, 1, 72, 127
1, 78304, Note_off_c, 1, 48, 0
1, 78334, Note_off_c, 1, 72, 0
1, 78496, Note_off_c, 1, 67, 0
1, 78528, Note_on_c, 1, 73, 127
1, 78528, Note_on_c, 1, 65, 127
1, 78528, Note_on_c, 1, 53, 127
1, 78622, Note_off_c, 1, 53, 0
1, 78624, Note_on_c, 1, 55, 127
1, 78688, Note_off_c, 1, 73, 0
1, 78718, Note_off_c, 1, 55, 0
1, 78720, Note_on_c, 1, 72, 127
1, 78720, Note_on_c, 1, 56, 127
1, 78814, Note_off_c, 1, 65, 0
1, 78816, Note_on_c, 1, 64, 127
1, 78880, Note_off_c, 1, 56, 0
1, 78910, Note_off_c, 1, 64, 0
1, 79008, Note_on_c, 1, 67, 127
1, 79102, Note_off_c, 1, 67, 0
1, 79104, Note_on_c, 1, 68, 127
1, 79198, Note_off_c, 1, 72, 0
1, 79296, Note_on_c, 1, 74, 127
1, 79296, Note_on_c, 1, 51, 127
1, 79390, Note_off_c, 1, 74, 0
1, 79392, Note_on_c, 1, 75, 127
1, 79456, Note_off_c, 1, 51, 0
1, 79486, Note_off_c, 1, 75, 0
1, 79488, Note_on_c, 1, 77, 127
1, 79488, Note_on_c, 1, 50, 127
1, 79582, Note_off_c, 1, 68, 0
1, 79648, Note_off_c, 1, 50, 0
1, 79680, Note_on_c, 1, 48, 127
1, 79840, Note_off_c, 1, 48, 0
1, 79872, Note_on_c, 1, 47, 127
1, 79966, Note_off_c, 1, 47, 0
1, 79968, Note_off_c, 1, 77, 0
1, 79968, Note_on_c, 1, 71, 127
1, 80062, Note_off_c, 1, 71, 0
1, 80064, Note_on_c, 1, 57, 127
1, 80158, Note_off_c, 1, 57, 0
1, 80160, Note_on_c, 1, 59, 127
1, 80254, Note_off_c, 1, 59, 0
1, 80256, Note_on_c, 1, 67, 127
1, 80256, Note_on_c, 1, 75, 127
1, 80256, Note_on_c, 1, 60, 127
1, 80350, Note_off_c, 1, 67, 0
1, 80416, Note_off_c, 1, 60, 0
1, 80448, Note_on_c, 1, 69, 127
1, 80448, Note_on_c, 1, 58, 127
1, 80542, Note_off_c, 1, 69, 0
1, 80544, Note_on_c, 1, 70, 127
1, 80608, Note_off_c, 1, 58, 0
1, 80638, Note_off_c, 1, 70, 0
1, 80640, Note_on_c, 1, 57, 127
1, 80734, Note_off_c, 1, 75, 0
1, 80736, Note_on_c, 1, 74, 127
1, 80800, Note_off_c, 1, 57, 0
1, 80830, Note_off_c, 1, 74, 0
1, 80832, Note_on_c, 1, 75, 127
1, 80832, Note_on_c, 1, 55, 127
1, 80926, Note_off_c, 1, 75, 0
1, 80928, Note_on_c, 1, 72, 127
1, 80992, Note_off_c, 1, 55, 0
1, 81024, Note_on_c, 1, 74, 127
1, 81024, Note_on_c, 1, 54, 127
1, 81118, Note_off_c, 1, 54, 0
1, 81120, Note_on_c, 1, 50, 127
1, 81168, Note_off_c, 1, 72, 0
1, 81214, Note_off_c, 1, 50, 0
1, 81216, Note_on_c, 1, 52, 127
1, 81310, Note_off_c, 1, 52, 0
1, 81408, Note_on_c, 1, 70, 127
1, 81504, Note_on_c, 1, 57, 127
1, 81568, Note_off_c, 1, 74, 0
1, 81598, Note_off_c, 1, 57, 0
1, 81600, Note_on_c, 1, 79, 127
1, 81600, Note_on_c, 1, 58, 127
1, 81694, Note_off_c, 1, 58, 0
1, 81696, Note_on_c, 1, 60, 127
1, 81744, Note_off_c, 1, 70, 0
1, 81790, Note_off_c, 1, 60, 0
1, 81792, Note_on_c, 1, 62, 127
1, 81886, Note_off_c, 1, 79, 0
1, 81886, Note_off_c, 1, 62, 0
1, 81888, Note_on_c, 1, 78, 127
1, 81888, Note_on_c, 1, 63, 127
1, 81982, Note_off_c, 1, 63, 0
1, 81984, Note_off_c, 1, 78, 0
1, 81984, Note_on_c, 1, 79, 127
1, 81984, Note_on_c, 1, 62, 127
1, 82078, Note_off_c, 1, 62, 0
1, 82080, Note_off_c, 1, 79, 0
1, 82080, Note_on_c, 1, 80, 127
1, 82080, Note_on_c, 1, 60, 127
1, 82174, Note_off_c, 1, 60, 0
1, 82176, Note_off_c, 1, 80, 0
1, 82176, Note_on_c, 1, 68, 127
1, 82176, Note_on_c, 1, 74, 127
1, 82176, Note_on_c, 1, 58, 127
1, 82272, Note_off_c, 1, 68, 0
1, 82272, Note_on_c, 1, 72, 127
1, 82366, Note_off_c, 1, 72, 0
1, 82368, Note_on_c, 1, 70, 127
1, 82462, Note_off_c, 1, 70, 0
1, 82464, Note_on_c, 1, 69, 127
1, 82558, Note_off_c, 1, 69, 0
1, 82560, Note_on_c, 1, 67, 127
1, 82654, Note_off_c, 1, 67, 0
1, 82656, Note_on_c, 1, 65, 127
1, 82720, Note_off_c, 1, 74, 0
1, 82750, Note_off_c, 1, 65, 0
1, 82752, Note_on_c, 1, 82, 127
1, 82896, Note_off_c, 1, 58, 0
1, 83038, Note_off_c, 1, 82, 0
1, 83136, Note_on_c, 1, 81, 127
1, 83230, Note_off_c, 1, 81, 0
1, 83712, Note_on_c, 1, 54, 127
1, 83808, Note_on_c, 1, 75, 127
1, 83902, Note_off_c, 1, 75, 0
1, 84048, Note_off_c, 1, 54, 0
1, 84096, Note_on_c, 1, 55, 127
1, 84190, Note_off_c, 1, 55, 0
1, 84192, Note_on_c, 1, 57, 127
1, 84286, Note_off_c, 1, 57, 0
1, 84672, Note_on_c, 1, 77, 127
1, 84766, Note_off_c, 1, 77, 0
1, 85248, Note_on_c, 1, 71, 127
1, 85342, Note_off_c, 1, 71, 0
1, 86688, Note_on_c, 1, 66, 127
1, 86782, Note_off_c, 1, 66, 0
1, 86784, Note_on_c, 1, 67, 127
1, 86784, Note_on_c, 1, 58, 127
1, 86880, Note_on_c, 1, 74, 127
1, 86944, Note_off_c, 1, 58, 0
1, 86974, Note_off_c, 1, 74, 0
1, 86976, Note_on_c, 1, 72, 127
1, 86976, Note_on_c, 1, 57, 127
1, 87070, Note_off_c, 1, 72, 0
1, 87070, Note_off_c, 1, 57, 0
1, 87120, Note_off_c, 1, 67, 0
1, 87168, Note_on_c, 1, 70, 127
1, 87168, Note_on_c, 1, 55, 127
1, 87262, Note_off_c, 1, 55, 0
1, 87264, Note_on_c, 1, 57, 127
1, 87328, Note_off_c, 1, 70, 0
1, 87358, Note_off_c, 1, 57, 0
1, 87360, Note_on_c, 1, 79, 127
1, 87360, Note_on_c, 1, 58, 127
1, 87454, Note_off_c, 1, 58, 0
1, 87456, Note_on_c, 1, 60, 127
1, 87520, Note_off_c, 1, 79, 0
1, 87550, Note_off_c, 1, 60, 0
1, 87552, Note_on_c, 1, 77, 127
1, 87552, Note_on_c, 1, 62, 127
1, 87646, Note_off_c, 1, 62, 0
1, 87648, Note_on_c, 1, 63, 127
1, 87742, Note_off_c, 1, 63, 0
1, 87744, Note_on_c, 1, 74, 127
1, 87744, Note_on_c, 1, 65, 127
1, 87838, Note_off_c, 1, 65, 0
1, 87904, Note_off_c, 1, 74, 0
1, 87936, Note_on_c, 1, 71, 127
1, 87936, Note_on_c, 1, 67, 127
1, 88030, Note_off_c, 1, 77, 0
1, 88030, Note_off_c, 1, 67, 0
1, 88032, Note_on_c, 1, 80, 127
1, 88126, Note_off_c, 1, 80, 0
1, 88128, Note_on_c, 1, 79, 127
1, 88222, Note_off_c, 1, 79, 0
1, 88272, Note_off_c, 1, 71, 0
1, 88320, Note_on_c, 1, 75, 127
1, 88320, Note_on_c, 1, 60, 127
1, 88414, Note_off_c, 1, 60, 0
1, 88416, Note_on_c, 1, 67, 127
1, 88416, Note_on_c, 1, 62, 127
1, 88510, Note_off_c, 1, 67, 0
1, 88510, Note_off_c, 1, 62, 0
1, 88512, Note_on_c, 1, 72, 127
1, 88512, Note_on_c, 1, 63, 127
1, 88606, Note_off_c, 1, 72, 0
1, 88606, Note_off_c, 1, 63, 0
1, 88608, Note_on_c, 1, 70, 127
1, 88702, Note_off_c, 1, 70, 0
1, 88704, Note_on_c, 1, 68, 127
1, 88704, Note_on_c, 1, 65, 127
1, 88798, Note_off_c, 1, 75, 0
1, 88798, Note_off_c, 1, 65, 0
1, 88896, Note_on_c, 1, 77, 127
1, 88990, Note_off_c, 1, 77, 0
1, 89088, Note_on_c, 1, 74, 127
1, 89088, Note_on_c, 1, 58, 127
1, 89182, Note_off_c, 1, 68, 0
1, 89182, Note_off_c, 1, 58, 0
1, 89566, Note_off_c, 1, 74, 0
1, 89856, Note_on_c, 1, 57, 127
1, 90192, Note_off_c, 1, 57, 0
1, 90240, Note_on_c, 1, 56, 127
1, 90576, Note_off_c, 1, 56, 0
1, 90624, Note_on_c, 1, 79, 127
1, 90624, Note_on_c, 1, 55, 127
1, 90720, Note_on_c, 1, 64, 127
1, 90784, Note_off_c, 1, 79, 0
1, 90816, Note_on_c, 1, 73, 127
1, 90910, Note_off_c, 1, 73, 0
1, 90960, Note_off_c, 1, 55, 0
1, 91056, Note_off_c, 1, 64, 0
1, 91200, Note_on_c, 1, 79, 127
1, 91200, Note_on_c, 1, 56, 127
1, 91294, Note_off_c, 1, 56, 0
1, 91296, Note_on_c, 1, 60, 127
1, 91360, Note_off_c, 1, 79, 0
1, 91390, Note_off_c, 1, 60, 0
1, 91392, Note_on_c, 1, 80, 127
1, 91392, Note_on_c, 1, 53, 127
1, 91488, Note_on_c, 1, 60, 127
1, 91582, Note_off_c, 1, 60, 0
1, 91584, Note_on_c, 1, 62, 127
1, 91678, Note_off_c, 1, 62, 0
1, 91680, Note_on_c, 1, 64, 127
1, 91728, Note_off_c, 1, 53, 0
1, 91774, Note_off_c, 1, 64, 0
1, 91776, Note_on_c, 1, 65, 127
1, 91870, Note_off_c, 1, 80, 0
1, 91870, Note_off_c, 1, 65, 0
1, 91872, Note_on_c, 1, 77, 127
1, 91872, Note_on_c, 1, 67, 127
1, 91966, Note_off_c, 1, 77, 0
1, 91966, Note_off_c, 1, 67, 0
1, 91968, Note_on_c, 1, 74, 127
1, 91968, Note_on_c, 1, 68, 127
1, 91968, Note_on_c, 1, 65, 127
1, 92062, Note_off_c, 1, 74, 0
1, 92064, Note_on_c, 1, 77, 127
1, 92128, Note_off_c, 1, 68, 0
1, 92158, Note_off_c, 1, 77, 0
1, 92160, Note_on_c, 1, 71, 127
1, 92160, Note_on_c, 1, 67, 127
1, 92254, Note_off_c, 1, 65, 0
1, 92256, Note_on_c, 1, 63, 127
1, 92320, Note_off_c, 1, 71, 0
1, 92320, Note_off_c, 1, 67, 0
1, 92350, Note_off_c, 1, 63, 0
1, 92352, Note_on_c, 1, 80, 127
1, 92352, Note_on_c, 1, 71, 127
1, 92352, Note_on_c, 1, 62, 127
1, 92446, Note_off_c, 1, 62, 0
1, 92448, Note_on_c, 1, 65, 127
1, 92512, Note_off_c, 1, 80, 0
1, 92512, Note_off_c, 1, 71, 0
1, 92542, Note_off_c, 1, 65, 0
1, 92544, Note_on_c, 1, 79, 127
1, 92544, Note_on_c, 1, 72, 127
1, 92544, Note_on_c, 1, 63, 127
1, 92638, Note_off_c, 1, 63, 0
1, 92640, Note_on_c, 1, 62, 127
1, 92704, Note_off_c, 1, 79, 0
1, 92704, Note_off_c, 1, 72, 0
1, 92734, Note_off_c, 1, 62, 0
1, 92736, Note_on_c, 1, 77, 127
1, 92736, Note_on_c, 1, 74, 127
1, 92736, Note_on_c, 1, 60, 127
1, 92830, Note_off_c, 1, 60, 0
1, 92832, Note_on_c, 1, 59, 127
1, 92896, Note_off_c, 1, 77, 0
1, 92926, Note_off_c, 1, 59, 0
1, 92928, Note_on_c, 1, 75, 127
1, 93022, Note_off_c, 1, 74, 0
1, 93024, Note_on_c, 1, 55, 127
1, 93118, Note_off_c, 1, 55, 0
1, 93120, Note_on_c, 1, 72, 127
1, 93120, Note_on_c, 1, 57, 127
1, 93214, Note_off_c, 1, 72, 0
1, 93214, Note_off_c, 1, 57, 0
1, 93264, Note_off_c, 1, 75, 0
1, 93312, Note_on_c, 1, 75, 127
1, 93312, Note_on_c, 1, 60, 127
1, 93406, Note_off_c, 1, 60, 0
1, 93408, Note_on_c, 1, 77, 127
1, 93408, Note_on_c, 1, 62, 127
1, 93502, Note_off_c, 1, 77, 0
1, 93502, Note_off_c, 1, 62, 0
1, 93504, Note_on_c, 1, 79, 127
1, 93504, Note_on_c, 1, 63, 127
1, 93504, Note_on_c, 1, 48, 127
1, 93598, Note_off_c, 1, 79, 0
1, 93598, Note_off_c, 1, 63, 0
1, 93600, Note_on_c, 1, 81, 127
1, 93600, Note_on_c, 1, 65, 127
1, 93648, Note_off_c, 1, 75, 0
1, 93664, Note_off_c, 1, 48, 0
1, 93694, Note_off_c, 1, 81, 0
1, 93694, Note_off_c, 1, 65, 0
1, 93696, Note_on_c, 1, 83, 127
1, 93696, Note_on_c, 1, 67, 127
1, 93696, Note_on_c, 1, 55, 127
1, 93792, Note_on_c, 1, 74, 127
1, 93856, Note_off_c, 1, 83, 0
1, 93856, Note_off_c, 1, 67, 0
1, 93856, Note_off_c, 1, 55, 0
1, 93886, Note_off_c, 1, 74, 0
1, 93888, Note_on_c, 1, 75, 127
1, 93888, Note_on_c, 1, 55, 127
1, 93982, Note_off_c, 1, 75, 0
1, 93984, Note_on_c, 1, 77, 127
1, 94048, Note_off_c, 1, 55, 0
1, 94078, Note_off_c, 1, 77, 0
1, 94080, Note_on_c, 1, 75, 127
1, 94080, Note_on_c, 1, 55, 127
1, 94174, Note_off_c, 1, 75, 0
1, 94176, Note_on_c, 1, 74, 127
1, 94176, Note_on_c, 1, 62, 127
1, 94240, Note_off_c, 1, 55, 0
1, 94270, Note_off_c, 1, 74, 0
1, 94270, Note_off_c, 1, 62, 0
1, 94272, Note_on_c, 1, 72, 127
1, 94272, Note_on_c, 1, 79, 127
1, 94272, Note_on_c, 1, 63, 127
1, 94272, Note_on_c, 1, 55, 127
1, 94366, Note_off_c, 1, 72, 0
1, 94366, Note_off_c, 1, 63, 0
1, 94368, Note_on_c, 1, 71, 127
1, 94368, Note_on_c, 1, 65, 127
1, 94432, Note_off_c, 1, 55, 0
1, 94462, Note_off_c, 1, 71, 0
1, 94462, Note_off_c, 1, 65, 0
1, 94464, Note_on_c, 1, 56, 127
1, 94558, Note_off_c, 1, 79, 0
1, 94560, Note_on_c, 1, 82, 127
1, 94560, Note_on_c, 1, 62, 127
1, 94654, Note_off_c, 1, 82, 0
1, 94654, Note_off_c, 1, 62, 0
1, 94656, Note_on_c, 1, 80, 127
1, 94656, Note_on_c, 1, 60, 127
1, 94750, Note_off_c, 1, 80, 0
1, 94750, Note_off_c, 1, 60, 0
1, 94752, Note_on_c, 1, 59, 127
1, 94846, Note_off_c, 1, 59, 0
1, 94848, Note_on_c, 1, 77, 127
1, 94942, Note_off_c, 1, 56, 0
1, 94944, Note_on_c, 1, 53, 127
1, 95038, Note_off_c, 1, 53, 0
1, 95040, Note_on_c, 1, 68, 127
1, 95040, Note_on_c, 1, 50, 127
1, 95134, Note_off_c, 1, 50, 0
1, 95232, Note_on_c, 1, 74, 127
1, 95232, Note_on_c, 1, 47, 127
1, 95326, Note_off_c, 1, 68, 0
1, 95328, Note_on_c, 1, 67, 127
1, 95392, Note_off_c, 1, 77, 0
1, 95392, Note_off_c, 1, 74, 0
1, 95392, Note_off_c, 1, 47, 0
1, 95488, Note_off_c, 1, 67, 0
1, 96000, Note_on_c, 1, 70, 127
1, 96000, Note_on_c, 1, 79, 127
1, 96000, Note_on_c, 1, 63, 127
1, 96000, Note_on_c, 1, 51, 127
1, 96094, Note_off_c, 1, 70, 0
1, 96096, Note_on_c, 1, 72, 127
1, 96160, Note_off_c, 1, 79, 0
1, 96160, Note_off_c, 1, 63, 0
1, 96160, Note_off_c, 1, 51, 0
1, 96192, Note_on_c, 1, 77, 127
1, 96192, Note_on_c, 1, 65, 127
1, 96192, Note_on_c, 1, 50, 127
1, 96256, Note_off_c, 1, 72, 0
1, 96286, Note_off_c, 1, 50, 0
1, 96288, Note_on_c, 1, 71, 127
1, 96352, Note_off_c, 1, 77, 0
1, 96352, Note_off_c, 1, 65, 0
1, 96382, Note_off_c, 1, 71, 0
1, 96384, Note_on_c, 1, 75, 127
1, 96384, Note_on_c, 1, 72, 127
1, 96384, Note_on_c, 1, 67, 127
1, 96384, Note_on_c, 1, 48, 127
1, 96478, Note_off_c, 1, 67, 0
1, 96478, Note_off_c, 1, 48, 0
1, 96480, Note_on_c, 1, 63, 127
1, 96480, Note_on_c, 1, 51, 127
1, 96574, Note_off_c, 1, 63, 0
1, 96574, Note_off_c, 1, 51, 0
1, 96576, Note_on_c, 1, 60, 127
1, 96576, Note_on_c, 1, 44, 127
1, 96670, Note_off_c, 1, 60, 0
1, 96670, Note_off_c, 1, 44, 0
1, 96768, Note_on_c, 1, 56, 127
1, 96768, Note_on_c, 1, 41, 127
1, 96862, Note_off_c, 1, 75, 0
1, 96928, Note_off_c, 1, 72, 0
1, 96928, Note_off_c, 1, 41, 0
1, 96960, Note_on_c, 1, 77, 127
1, 97054, Note_off_c, 1, 77, 0
1, 97056, Note_on_c, 1, 79, 127
1, 97150, Note_off_c, 1, 79, 0
1, 97152, Note_on_c, 1, 65, 127
1, 97152, Note_on_c, 1, 50, 127
1, 97312, Note_off_c, 1, 50, 0
1, 97344, Note_on_c, 1, 74, 127
1, 97438, Note_off_c, 1, 74, 0
1, 97536, Note_on_c, 1, 47, 127
1, 97630, Note_off_c, 1, 56, 0
1, 97632, Note_on_c, 1, 71, 127
1, 97632, Note_on_c, 1, 55, 127
1, 97696, Note_off_c, 1, 47, 0
1, 97726, Note_off_c, 1, 71, 0
1, 97726, Note_off_c, 1, 55, 0
1, 97728, Note_on_c, 1, 57, 127
1, 97728, Note_on_c, 1, 43, 127
1, 97822, Note_off_c, 1, 57, 0
1, 97824, Note_on_c, 1, 59, 127
1, 97872, Note_off_c, 1, 65, 0
1, 97888, Note_off_c, 1, 43, 0
1, 97918, Note_off_c, 1, 59, 0
1, 97920, Note_on_c, 1, 75, 127
1, 97920, Note_on_c, 1, 60, 127
1, 97920, Note_on_c, 1, 48, 127
1, 98014, Note_off_c, 1, 75, 0
1, 98016, Note_on_c, 1, 77, 127
1, 98016, Note_on_c, 1, 62, 127
1, 98080, Note_off_c, 1, 48, 0
1, 98110, Note_off_c, 1, 77, 0
1, 98110, Note_off_c, 1, 62, 0
1, 98112, Note_on_c, 1, 79, 127
1, 98112, Note_on_c, 1, 63, 127
1, 98112, Note_on_c, 1, 39, 127
1, 98176, Note_off_c, 1, 60, 0
1, 98208, Note_on_c, 1, 59, 127
1, 98272, Note_off_c, 1, 39, 0
1, 98302, Note_off_c, 1, 59, 0
1, 98304, Note_on_c, 1, 44, 127
1, 98398, Note_off_c, 1, 79, 0
1, 98464, Note_off_c, 1, 63, 0
1, 98496, Note_on_c, 1, 80, 127
1, 98496, Note_on_c, 1, 64, 127
1, 98590, Note_off_c, 1, 80, 0
1, 98656, Note_off_c, 1, 64, 0
1, 98688, Note_on_c, 1, 65, 127
1, 98848, Note_off_c, 1, 65, 0
1, 98880, Note_on_c, 1, 74, 127
1, 98880, Note_on_c, 1, 66, 127
1, 98974, Note_off_c, 1, 74, 0
1, 98976, Note_on_c, 1, 72, 127
1, 99024, Note_off_c, 1, 44, 0
1, 99040, Note_off_c, 1, 66, 0
1, 99070, Note_off_c, 1, 72, 0
1, 99072, Note_on_c, 1, 71, 127
1, 99072, Note_on_c, 1, 67, 127
1, 99072, Note_on_c, 1, 62, 127
1, 99072, Note_on_c, 1, 43, 127
1, 99166, Note_off_c, 1, 67, 0
1, 99262, Note_off_c, 1, 62, 0
1, 99264, Note_on_c, 1, 63, 127
1, 99358, Note_off_c, 1, 63, 0
1, 99360, Note_on_c, 1, 65, 127
1, 99408, Note_off_c, 1, 71, 0
1, 99408, Note_off_c, 1, 43, 0
1, 99454, Note_off_c, 1, 65, 0
1, 99456, Note_on_c, 1, 63, 127
1, 99456, Note_on_c, 1, 55, 127
1, 99550, Note_off_c, 1, 63, 0
1, 99552, Note_on_c, 1, 62, 127
1, 99646, Note_off_c, 1, 62, 0
1, 99648, Note_on_c, 1, 60, 127
1, 99742, Note_off_c, 1, 60, 0
1, 99744, Note_on_c, 1, 59, 127
1, 99792, Note_off_c, 1, 55, 0
1, 99838, Note_off_c, 1, 59, 0
1, 99840, Note_on_c, 1, 60, 127
1, 99840, Note_on_c, 1, 56, 127
1, 99934, Note_off_c, 1, 60, 0
1, 99936, Note_on_c, 1, 64, 127
1, 100030, Note_off_c, 1, 64, 0
1, 100032, Note_on_c, 1, 65, 127
1, 100126, Note_off_c, 1, 65, 0
1, 100128, Note_on_c, 1, 67, 127
1, 100176, Note_off_c, 1, 56, 0
1, 100222, Note_off_c, 1, 67, 0
1, 100224, Note_on_c, 1, 65, 127
1, 100224, Note_on_c, 1, 57, 127
1, 100318, Note_off_c, 1, 65, 0
1, 100320, Note_on_c, 1, 63, 127
1, 100414, Note_off_c, 1, 63, 0
1, 100416, Note_on_c, 1, 62, 127
1, 100510, Note_off_c, 1, 62, 0
1, 100512, Note_on_c, 1, 60, 127
1, 100560, Note_off_c, 1, 57, 0
1, 100606, Note_off_c, 1, 60, 0
1, 100608, Note_on_c, 1, 62, 127
1, 100608, Note_on_c, 1, 58, 127
1, 100702, Note_off_c, 1, 62, 0
1, 100704, Note_on_c, 1, 66, 127
1, 100798, Note_off_c, 1, 66, 0
1, 100800, Note_on_c, 1, 67, 127
1, 100894, Note_off_c, 1, 67, 0
1, 100896, Note_on_c, 1, 68, 127
1, 100944, Note_off_c, 1, 58, 0
1, 100990, Note_off_c, 1, 68, 0
1, 100992, Note_on_c, 1, 67, 127
1, 100992, Note_on_c, 1, 59, 127
1, 101086, Note_off_c, 1, 67, 0
1, 101088, Note_on_c, 1, 65, 127
1, 101182, Note_off_c, 1, 65, 0
1, 101184, Note_on_c, 1, 63, 127
1, 101278, Note_off_c, 1, 63, 0
1, 101280, Note_on_c, 1, 62, 127
1, 101328, Note_off_c, 1, 59, 0
1, 101374, Note_off_c, 1, 62, 0
1, 101376, Note_on_c, 1, 63, 127
1, 101376, Note_on_c, 1, 60, 127
1, 101472, Note_on_c, 1, 71, 127
1, 101566, Note_off_c, 1, 71, 0
1, 101568, Note_on_c, 1, 72, 127
1, 101662, Note_off_c, 1, 72, 0
1, 101664, Note_on_c, 1, 74, 127
1, 101712, Note_off_c, 1, 63, 0
1, 101712, Note_off_c, 1, 60, 0
1, 101758, Note_off_c, 1, 74, 0
1, 101760, Note_on_c, 1, 72, 127
1, 101760, Note_on_c, 1, 64, 127
1, 101854, Note_off_c, 1, 72, 0
1, 101856, Note_on_c, 1, 70, 127
1, 101950, Note_off_c, 1, 70, 0
1, 101952, Note_on_c, 1, 69, 127
1, 102046, Note_off_c, 1, 69, 0
1, 102048, Note_on_c, 1, 67, 127
1, 102096, Note_off_c, 1, 64, 0
1, 102142, Note_off_c, 1, 67, 0
1, 102144, Note_on_c, 1, 69, 127
1, 102144, Note_on_c, 1, 65, 127
1, 102238, Note_off_c, 1, 69, 0
1, 102240, Note_on_c, 1, 73, 127
1, 102334, Note_off_c, 1, 73, 0
1, 102336, Note_on_c, 1, 74, 127
1, 102430, Note_off_c, 1, 74, 0
1, 102432, Note_on_c, 1, 75, 127
1, 102480, Note_off_c, 1, 65, 0
1, 102526, Note_off_c, 1, 75, 0
1, 102528, Note_on_c, 1, 74, 127
1, 102528, Note_on_c, 1, 66, 127
1, 102622, Note_off_c, 1, 74, 0
1, 102624, Note_on_c, 1, 72, 127
1, 102718, Note_off_c, 1, 72, 0
1, 102720, Note_on_c, 1, 70, 127
1, 102814, Note_off_c, 1, 70, 0
1, 102816, Note_on_c, 1, 69, 127
1, 102864, Note_off_c, 1, 66, 0
1, 102910, Note_off_c, 1, 69, 0
1, 102912, Note_on_c, 1, 70, 127
1, 102912, Note_on_c, 1, 67, 127
1, 103008, Note_on_c, 1, 63, 127
1, 103072, Note_off_c, 1, 70, 0
1, 103072, Note_off_c, 1, 67, 0
1, 103102, Note_off_c, 1, 63, 0
1, 103104, Note_on_c, 1, 72, 127
1, 103104, Note_on_c, 1, 69, 127
1, 103104, Note_on_c, 1, 62, 127
1, 103198, Note_off_c, 1, 62, 0
1, 103200, Note_on_c, 1, 60, 127
1, 103264, Note_off_c, 1, 72, 0
1, 103264, Note_off_c, 1, 69, 0
1, 103294, Note_off_c, 1, 60, 0
1, 103296, Note_on_c, 1, 70, 127
1, 103296, Note_on_c, 1, 58, 127
1, 103390, Note_off_c, 1, 70, 0
1, 103390, Note_off_c, 1, 58, 0
1, 103392, Note_on_c, 1, 72, 127
1, 103392, Note_on_c, 1, 57, 127
1, 103486, Note_off_c, 1, 72, 0
1, 103486, Note_off_c, 1, 57, 0
1, 103488, Note_on_c, 1, 74, 127
1, 103488, Note_on_c, 1, 55, 127
1, 103582, Note_off_c, 1, 55, 0
1, 103584, Note_on_c, 1, 54, 127
1, 103678, Note_off_c, 1, 54, 0
1, 103680, Note_on_c, 1, 75, 127
1, 103776, Note_on_c, 1, 59, 127
1, 103840, Note_off_c, 1, 74, 0
1, 103870, Note_off_c, 1, 59, 0
1, 103872, Note_on_c, 1, 67, 127
1, 103872, Note_on_c, 1, 60, 127
1, 103966, Note_off_c, 1, 60, 0
1, 103968, Note_on_c, 1, 62, 127
1, 104016, Note_off_c, 1, 75, 0
1, 104062, Note_off_c, 1, 62, 0
1, 104064, Note_on_c, 1, 76, 127
1, 104158, Note_off_c, 1, 67, 0
1, 104160, Note_on_c, 1, 58, 127
1, 104254, Note_off_c, 1, 58, 0
1, 104256, Note_on_c, 1, 72, 127
1, 104256, Note_on_c, 1, 57, 127
1, 104350, Note_off_c, 1, 72, 0
1, 104350, Note_off_c, 1, 57, 0
1, 104352, Note_on_c, 1, 70, 127
1, 104400, Note_off_c, 1, 76, 0
1, 104446, Note_off_c, 1, 70, 0
1, 104448, Note_on_c, 1, 69, 127
1, 104448, Note_on_c, 1, 77, 127
1, 104448, Note_on_c, 1, 57, 127
1, 104542, Note_off_c, 1, 57, 0
1, 104544, Note_on_c, 1, 61, 127
1, 104608, Note_off_c, 1, 69, 0
1, 104638, Note_off_c, 1, 61, 0
1, 104640, Note_on_c, 1, 70, 127
1, 104640, Note_on_c, 1, 62, 127
1, 104734, Note_off_c, 1, 62, 0
1, 104736, Note_on_c, 1, 63, 127
1, 104784, Note_off_c, 1, 77, 0
1, 104800, Note_off_c, 1, 70, 0
1, 104830, Note_off_c, 1, 63, 0
1, 104832, Note_on_c, 1, 78, 127
1, 104832, Note_on_c, 1, 72, 127
1, 104832, Note_on_c, 1, 62, 127
1, 104926, Note_off_c, 1, 62, 0
1, 104928, Note_on_c, 1, 60, 127
1, 105022, Note_off_c, 1, 60, 0
1, 105024, Note_on_c, 1, 58, 127
1, 105118, Note_off_c, 1, 58, 0
1, 105120, Note_on_c, 1, 57, 127
1, 105168, Note_off_c, 1, 78, 0
1, 105168, Note_off_c, 1, 72, 0
1, 105214, Note_off_c, 1, 57, 0
1, 105216, Note_on_c, 1, 79, 127
1, 105216, Note_on_c, 1, 58, 127
1, 105310, Note_off_c, 1, 79, 0
1, 105312, Note_on_c, 1, 78, 127
1, 105406, Note_off_c, 1, 78, 0
1, 105504, Note_on_c, 1, 80, 127
1, 105552, Note_off_c, 1, 58, 0
1, 105598, Note_off_c, 1, 80, 0
1, 105600, Note_on_c, 1, 79, 127
1, 105600, Note_on_c, 1, 59, 127
1, 105694, Note_off_c, 1, 79, 0
1, 105696, Note_on_c, 1, 77, 127
1, 105790, Note_off_c, 1, 77, 0
1, 105792, Note_on_c, 1, 75, 127
1, 105886, Note_off_c, 1, 75, 0
1, 105888, Note_on_c, 1, 74, 127
1, 105936, Note_off_c, 1, 59, 0
1, 105982, Note_off_c, 1, 74, 0
1, 105984, Note_on_c, 1, 74, 127
1, 105984, Note_on_c, 1, 75, 127
1, 105984, Note_on_c, 1, 60, 127
1, 106078, Note_off_c, 1, 74, 0
1, 106080, Note_on_c, 1, 71, 127
1, 106174, Note_off_c, 1, 71, 0
1, 106176, Note_on_c, 1, 72, 127
1, 106270, Note_off_c, 1, 72, 0
1, 106320, Note_off_c, 1, 75, 0
1, 106368, Note_on_c, 1, 76, 127
1, 106368, Note_on_c, 1, 48, 127
1, 106464, Note_on_c, 1, 70, 127
1, 106558, Note_off_c, 1, 70, 0
1, 106560, Note_on_c, 1, 68, 127
1, 106654, Note_off_c, 1, 68, 0
1, 106656, Note_on_c, 1, 67, 127
1, 106704, Note_off_c, 1, 76, 0
1, 106704, Note_off_c, 1, 48, 0
1, 106750, Note_off_c, 1, 67, 0
1, 106752, Note_on_c, 1, 77, 127
1, 106752, Note_on_c, 1, 65, 127
1, 106752, Note_on_c, 1, 49, 127
1, 106846, Note_off_c, 1, 60, 0
1, 106848, Note_on_c, 1, 57, 127
1, 106912, Note_off_c, 1, 77, 0
1, 106912, Note_off_c, 1, 65, 0
1, 106942, Note_off_c, 1, 57, 0
1, 106944, Note_on_c, 1, 79, 127
1, 106944, Note_on_c, 1, 58, 127
1, 107038, Note_off_c, 1, 58, 0
1, 107088, Note_off_c, 1, 49, 0
1, 107104, Note_off_c, 1, 79, 0
1, 107136, Note_on_c, 1, 80, 127
1, 107136, Note_on_c, 1, 58, 127
1, 107136, Note_on_c, 1, 50, 127
1, 107230, Note_off_c, 1, 58, 0
1, 107232, Note_on_c, 1, 56, 127
1, 107326, Note_off_c, 1, 56, 0
1, 107328, Note_on_c, 1, 70, 127
1, 107328, Note_on_c, 1, 55, 127
1, 107422, Note_off_c, 1, 55, 0
1, 107424, Note_on_c, 1, 53, 127
1, 107472, Note_off_c, 1, 80, 0
1, 107472, Note_off_c, 1, 50, 0
1, 107518, Note_off_c, 1, 53, 0
1, 107520, Note_on_c, 1, 79, 127
1, 107520, Note_on_c, 1, 51, 127
1, 107614, Note_off_c, 1, 70, 0
1, 107616, Note_on_c, 1, 71, 127
1, 107710, Note_off_c, 1, 71, 0
1, 107712, Note_on_c, 1, 72, 127
1, 107806, Note_off_c, 1, 72, 0
1, 107808, Note_on_c, 1, 73, 127
1, 107856, Note_off_c, 1, 51, 0
1, 107902, Note_off_c, 1, 73, 0
1, 107904, Note_on_c, 1, 52, 127
1, 108096, Note_on_c, 1, 68, 127
1, 108190, Note_off_c, 1, 68, 0
1, 108192, Note_on_c, 1, 67, 127
1, 108240, Note_off_c, 1, 52, 0
1, 108286, Note_off_c, 1, 67, 0
1, 108382, Note_off_c, 1, 79, 0
1, 108384, Note_on_c, 1, 76, 127
1, 108478, Note_off_c, 1, 76, 0
1, 108480, Note_on_c, 1, 77, 127
1, 108574, Note_off_c, 1, 77, 0
1, 108576, Note_on_c, 1, 78, 127
1, 108670, Note_off_c, 1, 78, 0
1, 108672, Note_on_c, 1, 69, 127
1, 108768, Note_on_c, 1, 75, 127
1, 108862, Note_off_c, 1, 75, 0
1, 109008, Note_off_c, 1, 69, 0
1, 109152, Note_on_c, 1, 65, 127
1, 109246, Note_off_c, 1, 65, 0
1, 109632, Note_on_c, 1, 64, 127
1, 109726, Note_off_c, 1, 64, 0
1, 109728, Note_on_c, 1, 62, 127
1, 109822, Note_off_c, 1, 62, 0
1, 109824, Note_on_c, 1, 60, 127
1, 109918, Note_off_c, 1, 60, 0
1, 110304, Note_on_c, 1, 63, 127
1, 110398, Note_off_c, 1, 63, 0
1, 110688, Note_on_c, 1, 74, 127
1, 110782, Note_off_c, 1, 74, 0
1, 111360, Note_on_c, 1, 48, 127
1, 111696, Note_off_c, 1, 48, 0
1, 112224, Note_on_c, 1, 66, 127
1, 112318, Note_off_c, 1, 66, 0
1, 112512, Note_on_c, 1, 59, 127
1, 112848, Note_off_c, 1, 59, 0
1, 113280, Note_on_c, 1, 61, 127
1, 113472, Note_on_c, 1, 57, 127
1, 113616, Note_off_c, 1, 61, 0
1, 113632, Note_off_c, 1, 57, 0
1, 113664, Note_on_c, 1, 67, 127
1, 113664, Note_on_c, 1, 62, 127
1, 113664, Note_on_c, 1, 58, 127
1, 113664, Note_on_c, 1, 50, 127
1, 113758, Note_off_c, 1, 67, 0
1, 113760, Note_on_c, 1, 79, 127
1, 113824, Note_off_c, 1, 62, 0
1, 113824, Note_off_c, 1, 58, 0
1, 113854, Note_off_c, 1, 79, 0
1, 113856, Note_on_c, 1, 81, 127
1, 113856, Note_on_c, 1, 55, 127
1, 113950, Note_off_c, 1, 81, 0
1, 113952, Note_on_c, 1, 82, 127
1, 114000, Note_off_c, 1, 50, 0
1, 114016, Note_off_c, 1, 55, 0
1, 114046, Note_off_c, 1, 82, 0
1, 114048, Note_on_c, 1, 81, 127
1, 114048, Note_on_c, 1, 64, 127
1, 114048, Note_on_c, 1, 49, 127
1, 114142, Note_off_c, 1, 81, 0
1, 114144, Note_on_c, 1, 79, 127
1, 114238, Note_off_c, 1, 79, 0
1, 114240, Note_on_c, 1, 78, 127
1, 114240, Note_on_c, 1, 69, 127
1, 114334, Note_off_c, 1, 78, 0
1, 114384, Note_off_c, 1, 64, 0
1, 114384, Note_off_c, 1, 49, 0
1, 114400, Note_off_c, 1, 69, 0
1, 114432, Note_on_c, 1, 68, 127
1, 114432, Note_on_c, 1, 70, 127
1, 114432, Note_on_c, 1, 62, 127
1, 114432, Note_on_c, 1, 50, 127
1, 114526, Note_off_c, 1, 68, 0
1, 114528, Note_on_c, 1, 66, 127
1, 114622, Note_off_c, 1, 66, 0
1, 114624, Note_on_c, 1, 67, 127
1, 114688, Note_off_c, 1, 70, 0
1, 114720, Note_on_c, 1, 72, 127
1, 114768, Note_off_c, 1, 50, 0
1, 114814, Note_off_c, 1, 72, 0
1, 114816, Note_on_c, 1, 69, 127
1, 114816, Note_on_c, 1, 38, 127
1, 114910, Note_off_c, 1, 67, 0
1, 114912, Note_on_c, 1, 64, 127
1, 115006, Note_off_c, 1, 64, 0
1, 115072, Note_off_c, 1, 62, 0
1, 115104, Note_on_c, 1, 60, 127
1, 115152, Note_off_c, 1, 69, 0
1, 115152, Note_off_c, 1, 38, 0
1, 115200, Note_on_c, 1, 43, 127
1, 115294, Note_off_c, 1, 60, 0
1, 115392, Note_on_c, 1, 59, 127
1, 115486, Note_off_c, 1, 59, 0
1, 115488, Note_on_c, 1, 57, 127
1, 115536, Note_off_c, 1, 43, 0
1, 115582, Note_off_c, 1, 57, 0
1, 115584, Note_on_c, 1, 74, 127
1, 115584, Note_on_c, 1, 55, 127
1, 115678, Note_off_c, 1, 55, 0
1, 115680, Note_on_c, 1, 53, 127
1, 115774, Note_off_c, 1, 53, 0
1, 115776, Note_on_c, 1, 51, 127
1, 115870, Note_off_c, 1, 51, 0
1, 115872, Note_on_c, 1, 50, 127
1, 115920, Note_off_c, 1, 74, 0
1, 115966, Note_off_c, 1, 50, 0
1, 115968, Note_on_c, 1, 75, 127
1, 115968, Note_on_c, 1, 48, 127
1, 116062, Note_off_c, 1, 48, 0
1, 116064, Note_on_c, 1, 59, 127
1, 116158, Note_off_c, 1, 59, 0
1, 116160, Note_on_c, 1, 60, 127
1, 116254, Note_off_c, 1, 60, 0
1, 116256, Note_on_c, 1, 61, 127
1, 116304, Note_off_c, 1, 75, 0
1, 116350, Note_off_c, 1, 61, 0
1, 116352, Note_on_c, 1, 76, 127
1, 116352, Note_on_c, 1, 67, 127
1, 116352, Note_on_c, 1, 60, 127
1, 116446, Note_off_c, 1, 60, 0
1, 116448, Note_on_c, 1, 58, 127
1, 116542, Note_off_c, 1, 58, 0
1, 116544, Note_on_c, 1, 56, 127
1, 116638, Note_off_c, 1, 56, 0
1, 116640, Note_on_c, 1, 55, 127
1, 116688, Note_off_c, 1, 76, 0
1, 116688, Note_off_c, 1, 67, 0
1, 116734, Note_off_c, 1, 55, 0
1, 116736, Note_on_c, 1, 68, 127
1, 116736, Note_on_c, 1, 77, 127
1, 116736, Note_on_c, 1, 53, 127
1, 116830, Note_off_c, 1, 53, 0
1, 116832, Note_on_c, 1, 52, 127
1, 116926, Note_off_c, 1, 52, 0
1, 117024, Note_on_c, 1, 54, 127
1, 117072, Note_off_c, 1, 68, 0
1, 117118, Note_off_c, 1, 54, 0
1, 117120, Note_on_c, 1, 69, 127
1, 117216, Note_on_c, 1, 51, 127
1, 117310, Note_off_c, 1, 51, 0
1, 117312, Note_on_c, 1, 49, 127
1, 117406, Note_off_c, 1, 49, 0
1, 117408, Note_on_c, 1, 48, 127
1, 117456, Note_off_c, 1, 69, 0
1, 117502, Note_off_c, 1, 48, 0
1, 117504, Note_on_c, 1, 70, 127
1, 117598, Note_off_c, 1, 77, 0
1, 117600, Note_on_c, 1, 75, 127
1, 117694, Note_off_c, 1, 75, 0
1, 117792, Note_on_c, 1, 78, 127
1, 117886, Note_off_c, 1, 78, 0
1, 118080, Note_on_c, 1, 73, 127
1, 118080, Note_on_c, 1, 46, 127
1, 118174, Note_off_c, 1, 73, 0
1, 118174, Note_off_c, 1, 46, 0
1, 118176, Note_on_c, 1, 72, 127
1, 118176, Note_on_c, 1, 45, 127
1, 118270, Note_off_c, 1, 72, 0
1, 118270, Note_off_c, 1, 45, 0
1, 118366, Note_off_c, 1, 70, 0
1, 118560, Note_on_c, 1, 71, 127
1, 118654, Note_off_c, 1, 71, 0
1, 118656, Note_on_c, 1, 70, 127
1, 118656, Note_on_c, 1, 74, 127
1, 118656, Note_on_c, 1, 53, 127
1, 118750, Note_off_c, 1, 70, 0
1, 118750, Note_off_c, 1, 53, 0
1, 118752, Note_on_c, 1, 68, 127
1, 118752, Note_on_c, 1, 54, 127
1, 118846, Note_off_c, 1, 68, 0
1, 118846, Note_off_c, 1, 54, 0
1, 118848, Note_on_c, 1, 66, 127
1, 118848, Note_on_c, 1, 56, 127
1, 118942, Note_off_c, 1, 66, 0
1, 118942, Note_off_c, 1, 56, 0
1, 118944, Note_on_c, 1, 65, 127
1, 118944, Note_on_c, 1, 58, 127
1, 118992, Note_off_c, 1, 74, 0
1, 119038, Note_off_c, 1, 65, 0
1, 119038, Note_off_c, 1, 58, 0
1, 119040, Note_on_c, 1, 66, 127
1, 119040, Note_on_c, 1, 75, 127
1, 119040, Note_on_c, 1, 51, 127
1, 119134, Note_off_c, 1, 51, 0
1, 119136, Note_on_c, 1, 50, 127
1, 119230, Note_off_c, 1, 50, 0
1, 119328, Note_on_c, 1, 53, 127
1, 119376, Note_off_c, 1, 66, 0
1, 119422, Note_off_c, 1, 53, 0
1, 119424, Note_on_c, 1, 67, 127
1, 119520, Note_on_c, 1, 49, 127
1, 119614, Note_off_c, 1, 49, 0
1, 119616, Note_on_c, 1, 48, 127
1, 119710, Note_off_c, 1, 48, 0
1, 119712, Note_on_c, 1, 46, 127
1, 119760, Note_off_c, 1, 67, 0
1, 119806, Note_off_c, 1, 46, 0
1, 119808, Note_on_c, 1, 68, 127
1, 119902, Note_off_c, 1, 75, 0
1, 119904, Note_on_c, 1, 73, 127
1, 119998, Note_off_c, 1, 73, 0
1, 120096, Note_on_c, 1, 77, 127
1, 120190, Note_off_c, 1, 77, 0
1, 120384, Note_on_c, 1, 72, 127
1, 120384, Note_on_c, 1, 44, 127
1, 120478, Note_off_c, 1, 72, 0
1, 120478, Note_off_c, 1, 44, 0
1, 120480, Note_on_c, 1, 71, 127
1, 120480, Note_on_c, 1, 43, 127
1, 120574, Note_off_c, 1, 71, 0
1, 120574, Note_off_c, 1, 43, 0
1, 120670, Note_off_c, 1, 68, 0
1, 120864, Note_on_c, 1, 70, 127
1, 120958, Note_off_c, 1, 70, 0
1, 121152, Note_on_c, 1, 65, 127
1, 121152, Note_on_c, 1, 55, 127
1, 121246, Note_off_c, 1, 65, 0
1, 121246, Note_off_c, 1, 55, 0
1, 121248, Note_on_c, 1, 64, 127
1, 121248, Note_on_c, 1, 56, 127
1, 121342, Note_off_c, 1, 64, 0
1, 121342, Note_off_c, 1, 56, 0
1, 121920, Note_on_c, 1, 74, 127
1, 121920, Note_on_c, 1, 47, 127
1, 122014, Note_off_c, 1, 74, 0
1, 122014, Note_off_c, 1, 47, 0
1, 122016, Note_on_c, 1, 45, 127
1, 122110, Note_off_c, 1, 45, 0
1, 122304, Note_on_c, 1, 79, 127
1, 122398, Note_off_c, 1, 79, 0
1, 122400, Note_on_c, 1, 80, 127
1, 122494, Note_off_c, 1, 80, 0
1, 122880, Note_on_c, 1, 72, 127
1, 122880, Note_on_c, 1, 51, 127
1, 122880, Note_on_c, 1, 44, 127
1, 122974, Note_off_c, 1, 51, 0
1, 122976, Note_on_c, 1, 76, 127
1, 122976, Note_on_c, 1, 55, 127
1, 123070, Note_off_c, 1, 76, 0
1, 123070, Note_off_c, 1, 55, 0
1, 123072, Note_on_c, 1, 77, 127
1, 123072, Note_on_c, 1, 56, 127
1, 123166, Note_off_c, 1, 77, 0
1, 123166, Note_off_c, 1, 56, 0
1, 123168, Note_on_c, 1, 79, 127
1, 123168, Note_on_c, 1, 58, 127
1, 123216, Note_off_c, 1, 72, 0
1, 123216, Note_off_c, 1, 44, 0
1, 123262, Note_off_c, 1, 79, 0
1, 123262, Note_off_c, 1, 58, 0
1, 123264, Note_on_c, 1, 77, 127
1, 123264, Note_on_c, 1, 60, 127
1, 123264, Note_on_c, 1, 45, 127
1, 123358, Note_off_c, 1, 77, 0
1, 123360, Note_on_c, 1, 75, 127
1, 123360, Note_on_c, 1, 67, 127
1, 123454, Note_off_c, 1, 75, 0
1, 123454, Note_off_c, 1, 67, 0
1, 123456, Note_on_c, 1, 74, 127
1, 123456, Note_on_c, 1, 65, 127
1, 123550, Note_off_c, 1, 74, 0
1, 123550, Note_off_c, 1, 65, 0
1, 123552, Note_on_c, 1, 72, 127
1, 123552, Note_on_c, 1, 63, 127
1, 123600, Note_off_c, 1, 60, 0
1, 123600, Note_off_c, 1, 45, 0
1, 123646, Note_off_c, 1, 72, 0
1, 123646, Note_off_c, 1, 63, 0
1, 123648, Note_on_c, 1, 74, 127
1, 123648, Note_on_c, 1, 60, 127
1, 123648, Note_on_c, 1, 62, 127
1, 123648, Note_on_c, 1, 46, 127
1, 123742, Note_off_c, 1, 74, 0
1, 123742, Note_off_c, 1, 60, 0
1, 123744, Note_on_c, 1, 78, 127
1, 123744, Note_on_c, 1, 57, 127
1, 123838, Note_off_c, 1, 78, 0
1, 123838, Note_off_c, 1, 57, 0
1, 123840, Note_on_c, 1, 79, 127
1, 123840, Note_on_c, 1, 58, 127
1, 123934, Note_off_c, 1, 79, 0
1, 123934, Note_off_c, 1, 58, 0
1, 123936, Note_on_c, 1, 80, 127
1, 123984, Note_off_c, 1, 62, 0
1, 123984, Note_off_c, 1, 46, 0
1, 124030, Note_off_c, 1, 80, 0
1, 124032, Note_on_c, 1, 79, 127
1, 124032, Note_on_c, 1, 62, 127
1, 124032, Note_on_c, 1, 47, 127
1, 124126, Note_off_c, 1, 79, 0
1, 124128, Note_on_c, 1, 77, 127
1, 124128, Note_on_c, 1, 68, 127
1, 124222, Note_off_c, 1, 77, 0
1, 124222, Note_off_c, 1, 68, 0
1, 124224, Note_on_c, 1, 75, 127
1, 124224, Note_on_c, 1, 67, 127
1, 124318, Note_off_c, 1, 75, 0
1, 124318, Note_off_c, 1, 67, 0
1, 124320, Note_on_c, 1, 74, 127
1, 124320, Note_on_c, 1, 65, 127
1, 124368, Note_off_c, 1, 62, 0
1, 124368, Note_off_c, 1, 47, 0
1, 124414, Note_off_c, 1, 74, 0
1, 124414, Note_off_c, 1, 65, 0
1, 124416, Note_on_c, 1, 72, 127
1, 124416, Note_on_c, 1, 63, 127
1, 124416, Note_on_c, 1, 48, 127
1, 124510, Note_off_c, 1, 72, 0
1, 124512, Note_on_c, 1, 70, 127
1, 124576, Note_off_c, 1, 48, 0
1, 124606, Note_off_c, 1, 70, 0
1, 124608, Note_on_c, 1, 46, 127
1, 124704, Note_on_c, 1, 73, 127
1, 124752, Note_off_c, 1, 63, 0
1, 124768, Note_off_c, 1, 46, 0
1, 124798, Note_off_c, 1, 73, 0
1, 124800, Note_on_c, 1, 72, 127
1, 124800, Note_on_c, 1, 64, 127
1, 124800, Note_on_c, 1, 44, 127
1, 124894, Note_off_c, 1, 72, 0
1, 124896, Note_on_c, 1, 70, 127
1, 124960, Note_off_c, 1, 44, 0
1, 124990, Note_off_c, 1, 70, 0
1, 124992, Note_on_c, 1, 68, 127
1, 124992, Note_on_c, 1, 48, 127
1, 125086, Note_off_c, 1, 68, 0
1, 125088, Note_on_c, 1, 67, 127
1, 125136, Note_off_c, 1, 64, 0
1, 125152, Note_off_c, 1, 48, 0
1, 125182, Note_off_c, 1, 67, 0
1, 125184, Note_on_c, 1, 68, 127
1, 125184, Note_on_c, 1, 65, 127
1, 125184, Note_on_c, 1, 41, 127
1, 125278, Note_off_c, 1, 68, 0
1, 125280, Note_on_c, 1, 72, 127
1, 125344, Note_off_c, 1, 41, 0
1, 125374, Note_off_c, 1, 72, 0
1, 125376, Note_on_c, 1, 77, 127
1, 125376, Note_on_c, 1, 44, 127
1, 125470, Note_off_c, 1, 77, 0
1, 125472, Note_on_c, 1, 79, 127
1, 125520, Note_off_c, 1, 65, 0
1, 125536, Note_off_c, 1, 44, 0
1, 125566, Note_off_c, 1, 79, 0
1, 125568, Note_on_c, 1, 81, 127
1, 125568, Note_on_c, 1, 66, 127
1, 125568, Note_on_c, 1, 38, 127
1, 125662, Note_off_c, 1, 81, 0
1, 125664, Note_on_c, 1, 75, 127
1, 125728, Note_off_c, 1, 38, 0
1, 125758, Note_off_c, 1, 75, 0
1, 125760, Note_on_c, 1, 74, 127
1, 125760, Note_on_c, 1, 50, 127
1, 125854, Note_off_c, 1, 74, 0
1, 125856, Note_on_c, 1, 72, 127
1, 125904, Note_off_c, 1, 66, 0
1, 125920, Note_off_c, 1, 50, 0
1, 125950, Note_off_c, 1, 72, 0
1, 125952, Note_on_c, 1, 71, 127
1, 125952, Note_on_c, 1, 67, 127
1, 125952, Note_on_c, 1, 43, 127
1, 126046, Note_off_c, 1, 67, 0
1, 126048, Note_on_c, 1, 65, 127
1, 126112, Note_off_c, 1, 43, 0
1, 126142, Note_off_c, 1, 65, 0
1, 126144, Note_on_c, 1, 50, 127
1, 126240, Note_on_c, 1, 68, 127
1, 126304, Note_off_c, 1, 50, 0
1, 126334, Note_off_c, 1, 68, 0
1, 126336, Note_on_c, 1, 55, 127
1, 126430, Note_off_c, 1, 71, 0
1, 126432, Note_on_c, 1, 80, 127
1, 126496, Note_off_c, 1, 55, 0
1, 126526, Note_off_c, 1, 80, 0
1, 126528, Note_on_c, 1, 79, 127
1, 126528, Note_on_c, 1, 63, 127
1, 126622, Note_off_c, 1, 79, 0
1, 126622, Note_off_c, 1, 63, 0
1, 126624, Note_on_c, 1, 77, 127
1, 126624, Note_on_c, 1, 62, 127
1, 126718, Note_off_c, 1, 77, 0
1, 126718, Note_off_c, 1, 62, 0
1, 126720, Note_on_c, 1, 75, 127
1, 126720, Note_on_c, 1, 68, 127
1, 126720, Note_on_c, 1, 60, 127
1, 126720, Note_on_c, 1, 48, 127
1, 126814, Note_off_c, 1, 75, 0
1, 126816, Note_on_c, 1, 74, 127
1, 126880, Note_off_c, 1, 48, 0
1, 126910, Note_off_c, 1, 74, 0
1, 126912, Note_on_c, 1, 72, 127
1, 126912, Note_on_c, 1, 51, 127
1, 127006, Note_off_c, 1, 72, 0
1, 127008, Note_on_c, 1, 70, 127
1, 127056, Note_off_c, 1, 68, 0
1, 127072, Note_off_c, 1, 51, 0
1, 127102, Note_off_c, 1, 70, 0
1, 127104, Note_on_c, 1, 69, 127
1, 127104, Note_on_c, 1, 42, 127
1, 127198, Note_off_c, 1, 60, 0
1, 127264, Note_off_c, 1, 42, 0
1, 127296, Note_on_c, 1, 58, 127
1, 127296, Note_on_c, 1, 50, 127
1, 127390, Note_off_c, 1, 58, 0
1, 127392, Note_on_c, 1, 78, 127
1, 127392, Note_on_c, 1, 57, 127
1, 127440, Note_off_c, 1, 69, 0
1, 127456, Note_off_c, 1, 50, 0
1, 127486, Note_off_c, 1, 78, 0
1, 127486, Note_off_c, 1, 57, 0
1, 127488, Note_on_c, 1, 79, 127
1, 127488, Note_on_c, 1, 70, 127
1, 127488, Note_on_c, 1, 55, 127
1, 127488, Note_on_c, 1, 43, 127
1, 127582, Note_off_c, 1, 55, 0
1, 127584, Note_on_c, 1, 54, 127
1, 127678, Note_off_c, 1, 54, 0
1, 127776, Note_on_c, 1, 56, 127
1, 127824, Note_off_c, 1, 79, 0
1, 127824, Note_off_c, 1, 70, 0
1, 127824, Note_off_c, 1, 43, 0
1, 127870, Note_off_c, 1, 56, 0
1, 127872, Note_on_c, 1, 74, 127
1, 127872, Note_on_c, 1, 71, 127
1, 127872, Note_on_c, 1, 55, 127
1, 127966, Note_off_c, 1, 55, 0
1, 127968, Note_on_c, 1, 53, 127
1, 128062, Note_off_c, 1, 53, 0
1, 128064, Note_on_c, 1, 51, 127
1, 128158, Note_off_c, 1, 51, 0
1, 128160, Note_on_c, 1, 50, 127
1, 128208, Note_off_c, 1, 74, 0
1, 128208, Note_off_c, 1, 71, 0
1, 128254, Note_off_c, 1, 50, 0
1, 128256, Note_on_c, 1, 72, 127
1, 128256, Note_on_c, 1, 75, 127
1, 128256, Note_on_c, 1, 48, 127
1, 128350, Note_off_c, 1, 72, 0
1, 128352, Note_on_c, 1, 71, 127
1, 128416, Note_off_c, 1, 48, 0
1, 128446, Note_off_c, 1, 71, 0
1, 128448, Note_on_c, 1, 55, 127
1, 128544, Note_on_c, 1, 73, 127
1, 128592, Note_off_c, 1, 75, 0
1, 128608, Note_off_c, 1, 55, 0
1, 128638, Note_off_c, 1, 73, 0
1, 128640, Note_on_c, 1, 72, 127
1, 128640, Note_on_c, 1, 76, 127
1, 128640, Note_on_c, 1, 60, 127
1, 128734, Note_off_c, 1, 72, 0
1, 128736, Note_on_c, 1, 70, 127
1, 128800, Note_off_c, 1, 60, 0
1, 128830, Note_off_c, 1, 70, 0
1, 128832, Note_on_c, 1, 68, 127
1, 128832, Note_on_c, 1, 48, 127
1, 128926, Note_off_c, 1, 68, 0
1, 128928, Note_on_c, 1, 67, 127
1, 128976, Note_off_c, 1, 76, 0
1, 128992, Note_off_c, 1, 48, 0
1, 129022, Note_off_c, 1, 67, 0
1, 129024, Note_on_c, 1, 77, 127
1, 129024, Note_on_c, 1, 68, 127
1, 129024, Note_on_c, 1, 53, 127
1, 129118, Note_off_c, 1, 53, 0
1, 129120, Note_on_c, 1, 56, 127
1, 129214, Note_off_c, 1, 56, 0
1, 129216, Note_on_c, 1, 60, 127
1, 129310, Note_off_c, 1, 60, 0
1, 129312, Note_on_c, 1, 63, 127
1, 129360, Note_off_c, 1, 77, 0
1, 129360, Note_off_c, 1, 68, 0
1, 129406, Note_off_c, 1, 63, 0
1, 129408, Note_on_c, 1, 78, 127
1, 129408, Note_on_c, 1, 69, 127
1, 129408, Note_on_c, 1, 62, 127
1, 129502, Note_off_c, 1, 62, 0
1, 129504, Note_on_c, 1, 60, 127
1, 129598, Note_off_c, 1, 60, 0
1, 129600, Note_on_c, 1, 58, 127
1, 129694, Note_off_c, 1, 58, 0
1, 129696, Note_on_c, 1, 57, 127
1, 129744, Note_off_c, 1, 78, 0
1, 129744, Note_off_c, 1, 69, 0
1, 129790, Note_off_c, 1, 57, 0
1, 129792, Note_on_c, 1, 79, 127
1, 129792, Note_on_c, 1, 71, 127
1, 129792, Note_on_c, 1, 55, 127
1, 129886, Note_off_c, 1, 79, 0
1, 129886, Note_off_c, 1, 55, 0
1, 129888, Note_on_c, 1, 77, 127
1, 129888, Note_on_c, 1, 62, 127
1, 129982, Note_off_c, 1, 77, 0
1, 129982, Note_off_c, 1, 62, 0
1, 129984, Note_on_c, 1, 63, 127
1, 130078, Note_off_c, 1, 63, 0
1, 130080, Note_on_c, 1, 80, 127
1, 130080, Note_on_c, 1, 65, 127
1, 130174, Note_off_c, 1, 80, 0
1, 130174, Note_off_c, 1, 65, 0
1, 130176, Note_on_c, 1, 43, 127
1, 130368, Note_on_c, 1, 75, 127
1, 130368, Note_on_c, 1, 67, 127
1, 130462, Note_off_c, 1, 75, 0
1, 130462, Note_off_c, 1, 67, 0
1, 130464, Note_on_c, 1, 74, 127
1, 130512, Note_off_c, 1, 71, 0
1, 130512, Note_off_c, 1, 43, 0
1, 130558, Note_off_c, 1, 74, 0
1, 130560, Note_on_c, 1, 72, 127
1, 130560, Note_on_c, 1, 63, 127
1, 130560, Note_on_c, 1, 44, 127
1, 130656, Note_on_c, 1, 70, 127
1, 130750, Note_off_c, 1, 70, 0
1, 130752, Note_on_c, 1, 68, 127
1, 130846, Note_off_c, 1, 68, 0
1, 130848, Note_on_c, 1, 67, 127
1, 130896, Note_off_c, 1, 72, 0
1, 130896, Note_off_c, 1, 44, 0
1, 130942, Note_off_c, 1, 67, 0
1, 130944, Note_on_c, 1, 65, 127
1, 130944, Note_on_c, 1, 45, 127
1, 131038, Note_off_c, 1, 63, 0
1, 131136, Note_on_c, 1, 77, 127
1, 131136, Note_on_c, 1, 62, 127
1, 131230, Note_off_c, 1, 77, 0
1, 131230, Note_off_c, 1, 62, 0
1, 131232, Note_on_c, 1, 75, 127
1, 131232, Note_on_c, 1, 60, 127
1, 131280, Note_off_c, 1, 45, 0
1, 131326, Note_off_c, 1, 75, 0
1, 131326, Note_off_c, 1, 60, 0
1, 131328, Note_on_c, 1, 74, 127
1, 131328, Note_on_c, 1, 58, 127
1, 131328, Note_on_c, 1, 46, 127
1, 131422, Note_off_c, 1, 65, 0
1, 131488, Note_off_c, 1, 58, 0
1, 131664, Note_off_c, 1, 46, 0
1, 131712, Note_on_c, 1, 47, 127
1, 131806, Note_off_c, 1, 74, 0
1, 131904, Note_on_c, 1, 79, 127
1, 131998, Note_off_c, 1, 79, 0
1, 132048, Note_off_c, 1, 47, 0
1, 132096, Note_on_c, 1, 75, 127
1, 132096, Note_on_c, 1, 67, 127
1, 132096, Note_on_c, 1, 60, 127
1, 132096, Note_on_c, 1, 48, 127
1, 132190, Note_off_c, 1, 75, 0
1, 132190, Note_off_c, 1, 60, 0
1, 132192, Note_on_c, 1, 79, 127
1, 132192, Note_on_c, 1, 63, 127
1, 132256, Note_off_c, 1, 67, 0
1, 132286, Note_off_c, 1, 79, 0
1, 132286, Note_off_c, 1, 63, 0
1, 132288, Note_on_c, 1, 71, 127
1, 132288, Note_on_c, 1, 62, 127
1, 132382, Note_off_c, 1, 71, 0
1, 132382, Note_off_c, 1, 62, 0
1, 132384, Note_on_c, 1, 74, 127
1, 132384, Note_on_c, 1, 65, 127
1, 132478, Note_off_c, 1, 74, 0
1, 132478, Note_off_c, 1, 65, 0
1, 132480, Note_on_c, 1, 72, 127
1, 132574, Note_off_c, 1, 72, 0
1, 132672, Note_on_c, 1, 59, 127
1, 132766, Note_off_c, 1, 59, 0
1, 132768, Note_on_c, 1, 77, 127
1, 132862, Note_off_c, 1, 77, 0
1, 132912, Note_on_c, 1, 66, 127
1, 132912, Note_on_c, 1, 58, 127
1, 132958, Note_off_c, 1, 48, 0
1, 132958, Note_off_c, 1, 66, 0
1, 132958, Note_off_c, 1, 58, 0
1, 132960, Note_on_c, 1, 75, 127
1, 132960, Note_on_c, 1, 67, 127
1, 132960, Note_on_c, 1, 60, 127
1, 132960, Note_on_c, 1, 51, 127
1, 133006, Note_off_c, 1, 75, 0
1, 133006, Note_off_c, 1, 67, 0
1, 133006, Note_off_c, 1, 60, 0
1, 133008, Note_on_c, 1, 74, 127
1, 133008, Note_on_c, 1, 66, 127
1, 133008, Note_on_c, 1, 58, 127
1, 133054, Note_off_c, 1, 51, 0
1, 133054, Note_off_c, 1, 74, 0
1, 133054, Note_off_c, 1, 66, 0
1, 133054, Note_off_c, 1, 58, 0
1, 133056, Note_on_c, 1, 75, 127
1, 133056, Note_on_c, 1, 67, 127
1, 133056, Note_on_c, 1, 60, 127
1, 133056, Note_on_c, 1, 50, 127
1, 133102, Note_off_c, 1, 75, 0
1, 133102, Note_off_c, 1, 67, 0
1, 133102, Note_off_c, 1, 60, 0
1, 133104, Note_on_c, 1, 74, 127
1, 133104, Note_on_c, 1, 66, 127
1, 133104, Note_on_c, 1, 58, 127
1, 133150, Note_off_c, 1, 50, 0
1, 133150, Note_off_c, 1, 74, 0
1, 133150, Note_off_c, 1, 66, 0
1, 133150, Note_off_c, 1, 58, 0
1, 133152, Note_on_c, 1, 75, 127
1, 133152, Note_on_c, 1, 67, 127
1, 133152, Note_on_c, 1, 60, 127
1, 133152, Note_on_c, 1, 53, 127
1, 133198, Note_off_c, 1, 75, 0
1, 133198, Note_off_c, 1, 67, 0
1, 133198, Note_off_c, 1, 60, 0
1, 133200, Note_on_c, 1, 74, 127
1, 133200, Note_on_c, 1, 66, 127
1, 133200, Note_on_c, 1, 58, 127
1, 133246, Note_off_c, 1, 53, 0
1, 133246, Note_off_c, 1, 74, 0
1, 133246, Note_off_c, 1, 66, 0
1, 133246, Note_off_c, 1, 58, 0
1, 133248, Note_on_c, 1, 75, 127
1, 133248, Note_on_c, 1, 67, 127
1, 133248, Note_on_c, 1, 60, 127
1, 133248, Note_on_c, 1, 51, 127
1, 133294, Note_off_c, 1, 75, 0
1, 133294, Note_off_c, 1, 67, 0
1, 133294, Note_off_c, 1, 60, 0
1, 133296, Note_on_c, 1, 74, 127
1, 133296, Note_on_c, 1, 66, 127
1, 133296, Note_on_c, 1, 58, 127
1, 133342, Note_off_c, 1, 51, 0
1, 133342, Note_off_c, 1, 74, 0
1, 133342, Note_off_c, 1, 66, 0
1, 133342, Note_off_c, 1, 58, 0
1, 133344, Note_on_c, 1, 75, 127
1, 133344, Note_on_c, 1, 67, 127
1, 133344, Note_on_c, 1, 60, 127
1, 133344, Note_on_c, 1, 55, 127
1, 133390, Note_off_c, 1, 75, 0
1, 133390, Note_off_c, 1, 67, 0
1, 133390, Note_off_c, 1, 60, 0
1, 133392, Note_on_c, 1, 74, 127
1, 133392, Note_on_c, 1, 66, 127
1, 133392, Note_on_c, 1, 58, 127
1, 133438, Note_off_c, 1, 55, 0
1, 133438, Note_off_c, 1, 74, 0
1, 133438, Note_off_c, 1, 66, 0
1, 133438, Note_off_c, 1, 58, 0
1, 133440, Note_on_c, 1, 75, 127
1, 133440, Note_on_c, 1, 67, 127
1, 133440, Note_on_c, 1, 60, 127
1, 133440, Note_on_c, 1, 47, 127
1, 133486, Note_off_c, 1, 75, 0
1, 133486, Note_off_c, 1, 67, 0
1, 133486, Note_off_c, 1, 60, 0
1, 133488, Note_on_c, 1, 74, 127
1, 133488, Note_on_c, 1, 66, 127
1, 133488, Note_on_c, 1, 58, 127
1, 133534, Note_off_c, 1, 47, 0
1, 133534, Note_off_c, 1, 74, 0
1, 133534, Note_off_c, 1, 66, 0
1, 133534, Note_off_c, 1, 58, 0
1, 133536, Note_on_c, 1, 75, 127
1, 133536, Note_on_c, 1, 67, 127
1, 133536, Note_on_c, 1, 60, 127
1, 133536, Note_on_c, 1, 50, 127
1, 133582, Note_off_c, 1, 75, 0
1, 133582, Note_off_c, 1, 67, 0
1, 133582, Note_off_c, 1, 60, 0
1, 133584, Note_on_c, 1, 74, 127
1, 133584, Note_on_c, 1, 66, 127
1, 133584, Note_on_c, 1, 58, 127
1, 133630, Note_off_c, 1, 50, 0
1, 133630, Note_off_c, 1, 74, 0
1, 133630, Note_off_c, 1, 66, 0
1, 133630, Note_off_c, 1, 58, 0
1, 133632, Note_on_c, 1, 75, 127
1, 133632, Note_on_c, 1, 67, 127
1, 133632, Note_on_c, 1, 60, 127
1, 133632, Note_on_c, 1, 48, 127
1, 133678, Note_off_c, 1, 75, 0
1, 133678, Note_off_c, 1, 67, 0
1, 133678, Note_off_c, 1, 60, 0
1, 133680, Note_on_c, 1, 74, 127
1, 133680, Note_on_c, 1, 66, 127
1, 133680, Note_on_c, 1, 58, 127
1, 133726, Note_off_c, 1, 48, 0
1, 133726, Note_off_c, 1, 74, 0
1, 133726, Note_off_c, 1, 66, 0
1, 133726, Note_off_c, 1, 58, 0
1, 133728, Note_on_c, 1, 75, 127
1, 133728, Note_on_c, 1, 67, 127
1, 133728, Note_on_c, 1, 60, 127
1, 133728, Note_on_c, 1, 51, 127
1, 133774, Note_off_c, 1, 75, 0
1, 133774, Note_off_c, 1, 67, 0
1, 133774, Note_off_c, 1, 60, 0
1, 133776, Note_on_c, 1, 74, 127
1, 133776, Note_on_c, 1, 66, 127
1, 133776, Note_on_c, 1, 58, 127
1, 133822, Note_off_c, 1, 51, 0
1, 133822, Note_off_c, 1, 74, 0
1, 133822, Note_off_c, 1, 66, 0
1, 133822, Note_off_c, 1, 58, 0
1, 133824, Note_on_c, 1, 75, 127
1, 133824, Note_on_c, 1, 67, 127
1, 133824, Note_on_c, 1, 60, 127
1, 133824, Note_on_c, 1, 47, 127
1, 133870, Note_off_c, 1, 75, 0
1, 133870, Note_off_c, 1, 67, 0
1, 133870, Note_off_c, 1, 60, 0
1, 133872, Note_on_c, 1, 74, 127
1, 133872, Note_on_c, 1, 66, 127
1, 133872, Note_on_c, 1, 58, 127
1, 133918, Note_off_c, 1, 47, 0
1, 133918, Note_off_c, 1, 74, 0
1, 133918, Note_off_c, 1, 66, 0
1, 133918, Note_off_c, 1, 58, 0
1, 133920, Note_on_c, 1, 75, 127
1, 133920, Note_on_c, 1, 67, 127
1, 133920, Note_on_c, 1, 60, 127
1, 133920, Note_on_c, 1, 50, 127
1, 133966, Note_off_c, 1, 75, 0
1, 133966, Note_off_c, 1, 67, 0
1, 133966, Note_off_c, 1, 60, 0
1, 133968, Note_on_c, 1, 74, 127
1, 133968, Note_on_c, 1, 66, 127
1, 133968, Note_on_c, 1, 58, 127
1, 134014, Note_off_c, 1, 50, 0
1, 134014, Note_off_c, 1, 74, 0
1, 134014, Note_off_c, 1, 66, 0
1, 134014, Note_off_c, 1, 58, 0
1, 134016, Note_on_c, 1, 75, 127
1, 134016, Note_on_c, 1, 67, 127
1, 134016, Note_on_c, 1, 60, 127
1, 134016, Note_on_c, 1, 48, 127
1, 134062, Note_off_c, 1, 75, 0
1, 134062, Note_off_c, 1, 67, 0
1, 134062, Note_off_c, 1, 60, 0
1, 134064, Note_on_c, 1, 74, 127
1, 134064, Note_on_c, 1, 66, 127
1, 134064, Note_on_c, 1, 58, 127
1, 134110, Note_off_c, 1, 48, 0
1, 134110, Note_off_c, 1, 74, 0
1, 134110, Note_off_c, 1, 66, 0
1, 134110, Note_off_c, 1, 58, 0
1, 134112, Note_on_c, 1, 75, 127
1, 134112, Note_on_c, 1, 67, 127
1, 134112, Note_on_c, 1, 60, 127
1, 134112, Note_on_c, 1, 51, 127
1, 134158, Note_off_c, 1, 75, 0
1, 134158, Note_off_c, 1, 67, 0
1, 134158, Note_off_c, 1, 60, 0
1, 134160, Note_on_c, 1, 74, 127
1, 134160, Note_on_c, 1, 66, 127
1, 134160, Note_on_c, 1, 58, 127
1, 134206, Note_off_c, 1, 51, 0
1, 134206, Note_off_c, 1, 74, 0
1, 134206, Note_off_c, 1, 66, 0
1, 134206, Note_off_c, 1, 58, 0
1, 134208, Note_on_c, 1, 75, 127
1, 134208, Note_on_c, 1, 67, 127
1, 134208, Note_on_c, 1, 60, 127
1, 134208, Note_on_c, 1, 43, 127
1, 134254, Note_off_c, 1, 75, 0
1, 134254, Note_off_c, 1, 67, 0
1, 134254, Note_off_c, 1, 60, 0
1, 134256, Note_on_c, 1, 74, 127
1, 134256, Note_on_c, 1, 66, 127
1, 134256, Note_on_c, 1, 58, 127
1, 134302, Note_off_c, 1, 43, 0
1, 134302, Note_off_c, 1, 74, 0
1, 134302, Note_off_c, 1, 66, 0
1, 134302, Note_off_c, 1, 58, 0
1, 134304, Note_on_c, 1, 75, 127
1, 134304, Note_on_c, 1, 67, 127
1, 134304, Note_on_c, 1, 60, 127
1, 134304, Note_on_c, 1, 46, 127
1, 134350, Note_off_c, 1, 75, 0
1, 134350, Note_off_c, 1, 67, 0
1, 134350, Note_off_c, 1, 60, 0
1, 134352, Note_on_c, 1, 74, 127
1, 134352, Note_on_c, 1, 66, 127
1, 134352, Note_on_c, 1, 58, 127
1, 134398, Note_off_c, 1, 46, 0
1, 134398, Note_off_c, 1, 74, 0
1, 134398, Note_off_c, 1, 66, 0
1, 134398, Note_off_c, 1, 58, 0
1, 134400, Note_on_c, 1, 75, 127
1, 134400, Note_on_c, 1, 65, 127
1, 134400, Note_on_c, 1, 60, 127
1, 134400, Note_on_c, 1, 44, 127
1, 134446, Note_off_c, 1, 60, 0
1, 134448, Note_on_c, 1, 58, 127
1, 134494, Note_off_c, 1, 75, 0
1, 134494, Note_off_c, 1, 58, 0
1, 134496, Note_on_c, 1, 74, 127
1, 134590, Note_off_c, 1, 74, 0
1, 134592, Note_on_c, 1, 77, 127
1, 134686, Note_off_c, 1, 77, 0
1, 134736, Note_off_c, 1, 65, 0
1, 134784, Note_on_c, 1, 66, 127
1, 134880, Note_on_c, 1, 72, 127
1, 134974, Note_off_c, 1, 72, 0
1, 134976, Note_on_c, 1, 71, 127
1, 135070, Note_off_c, 1, 71, 0
1, 135120, Note_off_c, 1, 44, 0
1, 135120, Note_off_c, 1, 66, 0
1, 135168, Note_on_c, 1, 72, 127
1, 135168, Note_on_c, 1, 67, 127
1, 135168, Note_on_c, 1, 62, 127
1, 135168, Note_on_c, 1, 43, 127
1, 135262, Note_off_c, 1, 43, 0
1, 135264, Note_on_c, 1, 55, 127
1, 135328, Note_off_c, 1, 72, 0
1, 135358, Note_off_c, 1, 55, 0
1, 135360, Note_on_c, 1, 71, 127
1, 135360, Note_on_c, 1, 53, 127
1, 135454, Note_off_c, 1, 53, 0
1, 135504, Note_off_c, 1, 67, 0
1, 135504, Note_off_c, 1, 62, 0
1, 135520, Note_off_c, 1, 71, 0
1, 135552, Note_on_c, 1, 51, 127
1, 135646, Note_off_c, 1, 51, 0
1, 135648, Note_on_c, 1, 53, 127
1, 135742, Note_off_c, 1, 53, 0
1, 135744, Note_on_c, 1, 67, 127
1, 135744, Note_on_c, 1, 65, 127
1, 135744, Note_on_c, 1, 50, 127
1, 135838, Note_off_c, 1, 65, 0
1, 135838, Note_off_c, 1, 50, 0
1, 135840, Note_on_c, 1, 51, 127
1, 135934, Note_off_c, 1, 67, 0
1, 135934, Note_off_c, 1, 51, 0
1, 135936, Note_on_c, 1, 72, 127
1, 135936, Note_on_c, 1, 63, 127
1, 135936, Note_on_c, 1, 48, 127
1, 136030, Note_off_c, 1, 63, 0
1, 136032, Note_on_c, 1, 60, 127
1, 136096, Note_off_c, 1, 72, 0
1, 136096, Note_off_c, 1, 48, 0
1, 136126, Note_off_c, 1, 60, 0
1, 136128, Note_on_c, 1, 72, 127
1, 136128, Note_on_c, 1, 62, 127
1, 136128, Note_on_c, 1, 53, 127
1, 136222, Note_off_c, 1, 62, 0
1, 136224, Note_on_c, 1, 63, 127
1, 136288, Note_off_c, 1, 72, 0
1, 136288, Note_off_c, 1, 53, 0
1, 136318, Note_off_c, 1, 63, 0
1, 136320, Note_on_c, 1, 72, 127
1, 136320, Note_on_c, 1, 65, 127
1, 136320, Note_on_c, 1, 51, 127
1, 136414, Note_off_c, 1, 65, 0
1, 136416, Note_on_c, 1, 67, 127
1, 136480, Note_off_c, 1, 72, 0
1, 136480, Note_off_c, 1, 51, 0
1, 136510, Note_off_c, 1, 67, 0
1, 136512, Note_on_c, 1, 72, 127
1, 136512, Note_on_c, 1, 69, 127
1, 136512, Note_on_c, 1, 50, 127
1, 136606, Note_off_c, 1, 72, 0
1, 136606, Note_off_c, 1, 69, 0
1, 136608, Note_on_c, 1, 74, 127
1, 136608, Note_on_c, 1, 71, 127
1, 136672, Note_off_c, 1, 50, 0
1, 136702, Note_off_c, 1, 74, 0
1, 136702, Note_off_c, 1, 71, 0
1, 136704, Note_on_c, 1, 75, 127
1, 136704, Note_on_c, 1, 72, 127
1, 136704, Note_on_c, 1, 48, 127
1, 136798, Note_off_c, 1, 72, 0
1, 136800, Note_on_c, 1, 67, 127
1, 136894, Note_off_c, 1, 67, 0
1, 136896, Note_on_c, 1, 63, 127
1, 136990, Note_off_c, 1, 63, 0
1, 137088, Note_on_c, 1, 60, 127
1, 137182, Note_off_c, 1, 75, 0
1, 137182, Note_off_c, 1, 48, 0
1, 137184, Note_on_c, 1, 57, 127
1, 137278, Note_off_c, 1, 57, 0
1, 137280, Note_on_c, 1, 69, 127
1, 137280, Note_on_c, 1, 54, 127
1, 137374, Note_off_c, 1, 69, 0
1, 137374, Note_off_c, 1, 54, 0
1, 137472, Note_on_c, 1, 66, 127
1, 137472, Note_on_c, 1, 50, 127
1, 137566, Note_off_c, 1, 60, 0
1, 137568, Note_on_c, 1, 58, 127
1, 137632, Note_off_c, 1, 66, 0
1, 137632, Note_off_c, 1, 50, 0
1, 137662, Note_off_c, 1, 58, 0
1, 137664, Note_on_c, 1, 75, 127
1, 137664, Note_on_c, 1, 57, 127
1, 137664, Note_on_c, 1, 48, 127
1, 137758, Note_off_c, 1, 57, 0
1, 137760, Note_on_c, 1, 60, 127
1, 137824, Note_off_c, 1, 75, 0
1, 137824, Note_off_c, 1, 48, 0
1, 137854, Note_off_c, 1, 60, 0
1, 137856, Note_on_c, 1, 74, 127
1, 137856, Note_on_c, 1, 58, 127
1, 137856, Note_on_c, 1, 50, 127
1, 137950, Note_off_c, 1, 58, 0
1, 137952, Note_on_c, 1, 57, 127
1, 138016, Note_off_c, 1, 74, 0
1, 138016, Note_off_c, 1, 50, 0
1, 138046, Note_off_c, 1, 57, 0
1, 138048, Note_on_c, 1, 72, 127
1, 138048, Note_on_c, 1, 55, 127
1, 138048, Note_on_c, 1, 38, 127
1, 138142, Note_off_c, 1, 55, 0
1, 138144, Note_on_c, 1, 54, 127
1, 138208, Note_off_c, 1, 72, 0
1, 138208, Note_off_c, 1, 38, 0
1, 138238, Note_off_c, 1, 54, 0
1, 138240, Note_on_c, 1, 70, 127
1, 138240, Note_on_c, 1, 55, 127
1, 138240, Note_on_c, 1, 43, 127
1, 138334, Note_off_c, 1, 55, 0
1, 138336, Note_on_c, 1, 58, 127
1, 138400, Note_off_c, 1, 70, 0
1, 138430, Note_off_c, 1, 58, 0
1, 138432, Note_on_c, 1, 69, 127
1, 138432, Note_on_c, 1, 60, 127
1, 138526, Note_off_c, 1, 69, 0
1, 138526, Note_off_c, 1, 60, 0
1, 138528, Note_on_c, 1, 62, 127
1, 138576, Note_off_c, 1, 43, 0
1, 138622, Note_off_c, 1, 62, 0
1, 138624, Note_on_c, 1, 67, 127
1, 138624, Note_on_c, 1, 63, 127
1, 138718, Note_off_c, 1, 67, 0
1, 138720, Note_on_c, 1, 79, 127
1, 138814, Note_off_c, 1, 79, 0
1, 138816, Note_on_c, 1, 77, 127
1, 138816, Note_on_c, 1, 48, 127
1, 138910, Note_off_c, 1, 77, 0
1, 138976, Note_off_c, 1, 48, 0
1, 139008, Note_on_c, 1, 68, 127
1, 139008, Note_on_c, 1, 41, 127
1, 139102, Note_off_c, 1, 63, 0
1, 139104, Note_on_c, 1, 62, 127
1, 139168, Note_off_c, 1, 68, 0
1, 139198, Note_off_c, 1, 62, 0
1, 139200, Note_on_c, 1, 60, 127
1, 139294, Note_off_c, 1, 60, 0
1, 139344, Note_off_c, 1, 41, 0
1, 139392, Note_on_c, 1, 77, 127
1, 139392, Note_on_c, 1, 62, 127
1, 139486, Note_off_c, 1, 62, 0
1, 139488, Note_on_c, 1, 60, 127
1, 139552, Note_off_c, 1, 77, 0
1, 139582, Note_off_c, 1, 60, 0
1, 139584, Note_on_c, 1, 74, 127
1, 139584, Note_on_c, 1, 59, 127
1, 139584, Note_on_c, 1, 41, 127
1, 139678, Note_off_c, 1, 59, 0
1, 139680, Note_on_c, 1, 57, 127
1, 139744, Note_off_c, 1, 74, 0
1, 139744, Note_off_c, 1, 41, 0
1, 139774, Note_off_c, 1, 57, 0
1, 139776, Note_on_c, 1, 67, 127
1, 139776, Note_on_c, 1, 59, 127
1, 139776, Note_on_c, 1, 43, 127
1, 139870, Note_off_c, 1, 59, 0
1, 139872, Note_on_c, 1, 55, 127
1, 139936, Note_off_c, 1, 67, 0
1, 139966, Note_off_c, 1, 55, 0
1, 139968, Note_on_c, 1, 77, 127
1, 139968, Note_on_c, 1, 57, 127
1, 140062, Note_off_c, 1, 57, 0
1, 140112, Note_off_c, 1, 43, 0
1, 140128, Note_off_c, 1, 77, 0
1, 140160, Note_on_c, 1, 75, 127
1, 140160, Note_on_c, 1, 60, 127
1, 140254, Note_off_c, 1, 60, 0
1, 140256, Note_on_c, 1, 62, 127
1, 140320, Note_off_c, 1, 75, 0
1, 140350, Note_off_c, 1, 62, 0
1, 140352, Note_on_c, 1, 72, 127
1, 140352, Note_on_c, 1, 63, 127
1, 140352, Note_on_c, 1, 48, 127
1, 140446, Note_off_c, 1, 63, 0
1, 140448, Note_on_c, 1, 65, 127
1, 140512, Note_off_c, 1, 48, 0
1, 140542, Note_off_c, 1, 65, 0
1, 140544, Note_on_c, 1, 55, 127
1, 140638, Note_off_c, 1, 72, 0
1, 140640, Note_on_c, 1, 75, 127
1, 140640, Note_on_c, 1, 60, 127
1, 140704, Note_off_c, 1, 55, 0
1, 140734, Note_off_c, 1, 75, 0
1, 140734, Note_off_c, 1, 60, 0
1, 140736, Note_on_c, 1, 74, 127
1, 140736, Note_on_c, 1, 62, 127
1, 140736, Note_on_c, 1, 55, 127
1, 140830, Note_off_c, 1, 74, 0
1, 140830, Note_off_c, 1, 62, 0
1, 140832, Note_on_c, 1, 72, 127
1, 140832, Note_on_c, 1, 63, 127
1, 140896, Note_off_c, 1, 55, 0
1, 140926, Note_off_c, 1, 72, 0
1, 140926, Note_off_c, 1, 63, 0
1, 140928, Note_on_c, 1, 71, 127
1, 140928, Note_on_c, 1, 62, 127
1, 140928, Note_on_c, 1, 55, 127
1, 141022, Note_off_c, 1, 71, 0
1, 141022, Note_off_c, 1, 62, 0
1, 141024, Note_on_c, 1, 69, 127
1, 141024, Note_on_c, 1, 65, 127
1, 141088, Note_off_c, 1, 55, 0
1, 141118, Note_off_c, 1, 69, 0
1, 141118, Note_off_c, 1, 65, 0
1, 141120, Note_on_c, 1, 67, 127
1, 141120, Note_on_c, 1, 63, 127
1, 141120, Note_on_c, 1, 55, 127
1, 141214, Note_off_c, 1, 67, 0
1, 141214, Note_off_c, 1, 63, 0
1, 141216, Note_on_c, 1, 65, 127
1, 141216, Note_on_c, 1, 62, 127
1, 141280, Note_off_c, 1, 55, 0
1, 141310, Note_off_c, 1, 65, 0
1, 141310, Note_off_c, 1, 62, 0
1, 141312, Note_on_c, 1, 63, 127
1, 141312, Note_on_c, 1, 60, 127
1, 141312, Note_on_c, 1, 56, 127
1, 141406, Note_off_c, 1, 60, 0
1, 141408, Note_on_c, 1, 62, 127
1, 141472, Note_off_c, 1, 63, 0
1, 141502, Note_off_c, 1, 62, 0
1, 141504, Note_on_c, 1, 72, 127
1, 141696, Note_on_c, 1, 65, 127
1, 141790, Note_off_c, 1, 56, 0
1, 141792, Note_on_c, 1, 53, 127
1, 141840, Note_off_c, 1, 72, 0
1, 141886, Note_off_c, 1, 53, 0
1, 141888, Note_on_c, 1, 77, 127
1, 141888, Note_on_c, 1, 50, 127
1, 141982, Note_off_c, 1, 50, 0
1, 142048, Note_off_c, 1, 77, 0
1, 142080, Note_on_c, 1, 67, 127
1, 142080, Note_on_c, 1, 47, 127
1, 142174, Note_off_c, 1, 65, 0
1, 142240, Note_off_c, 1, 67, 0
1, 142240, Note_off_c, 1, 47, 0
1, 142272, Note_on_c, 1, 71, 127
1, 142272, Note_on_c, 1, 62, 127
1, 142272, Note_on_c, 1, 56, 127
1, 142366, Note_off_c, 1, 62, 0
1, 142368, Note_on_c, 1, 65, 127
1, 142432, Note_off_c, 1, 71, 0
1, 142432, Note_off_c, 1, 56, 0
1, 142462, Note_off_c, 1, 65, 0
1, 142464, Note_on_c, 1, 72, 127
1, 142464, Note_on_c, 1, 63, 127
1, 142464, Note_on_c, 1, 55, 127
1, 142558, Note_off_c, 1, 63, 0
1, 142560, Note_on_c, 1, 65, 127
1, 142624, Note_off_c, 1, 72, 0
1, 142624, Note_off_c, 1, 55, 0
1, 142654, Note_off_c, 1, 65, 0
1, 142656, Note_on_c, 1, 71, 127
1, 142656, Note_on_c, 1, 62, 127
1, 142656, Note_on_c, 1, 53, 127
1, 142750, Note_off_c, 1, 62, 0
1, 142752, Note_on_c, 1, 63, 127
1, 142816, Note_off_c, 1, 71, 0
1, 142816, Note_off_c, 1, 53, 0
1, 142846, Note_off_c, 1, 63, 0
1, 142848, Note_on_c, 1, 72, 127
1, 142848, Note_on_c, 1, 55, 127
1, 142848, Note_on_c, 1, 51, 127
1, 142942, Note_off_c, 1, 72, 0
1, 142944, Note_on_c, 1, 79, 127
1, 143008, Note_off_c, 1, 55, 0
1, 143008, Note_off_c, 1, 51, 0
1, 143038, Note_off_c, 1, 79, 0
1, 143040, Note_on_c, 1, 77, 127
1, 143040, Note_on_c, 1, 59, 127
1, 143040, Note_on_c, 1, 50, 127
1, 143134, Note_off_c, 1, 77, 0
1, 143134, Note_off_c, 1, 50, 0
1, 143136, Note_on_c, 1, 79, 127
1, 143136, Note_on_c, 1, 51, 127
1, 143200, Note_off_c, 1, 59, 0
1, 143230, Note_off_c, 1, 79, 0
1, 143230, Note_off_c, 1, 51, 0
1, 143232, Note_on_c, 1, 75, 127
1, 143232, Note_on_c, 1, 60, 127
1, 143232, Note_on_c, 1, 48, 127
1, 143326, Note_off_c, 1, 75, 0
1, 143326, Note_off_c, 1, 48, 0
1, 143328, Note_on_c, 1, 77, 127
1, 143328, Note_on_c, 1, 50, 127
1, 143392, Note_off_c, 1, 60, 0
1, 143422, Note_off_c, 1, 77, 0
1, 143422, Note_off_c, 1, 50, 0
1, 143424, Note_on_c, 1, 74, 127
1, 143424, Note_on_c, 1, 55, 127
1, 143424, Note_on_c, 1, 67, 127
1, 143424, Note_on_c, 1, 46, 127
1, 143518, Note_off_c, 1, 74, 0
1, 143518, Note_off_c, 1, 46, 0
1, 143520, Note_on_c, 1, 75, 127
1, 143520, Note_on_c, 1, 48, 127
1, 143584, Note_off_c, 1, 55, 0
1, 143614, Note_off_c, 1, 75, 0
1, 143614, Note_off_c, 1, 48, 0
1, 143616, Note_on_c, 1, 72, 127
1, 143616, Note_on_c, 1, 60, 127
1, 143616, Note_on_c, 1, 45, 127
1, 143710, Note_off_c, 1, 67, 0
1, 143712, Note_on_c, 1, 70, 127
1, 143776, Note_off_c, 1, 60, 0
1, 143806, Note_off_c, 1, 70, 0
1, 143808, Note_on_c, 1, 69, 127
1, 143902, Note_off_c, 1, 69, 0
1, 144000, Note_on_c, 1, 66, 127
1, 144094, Note_off_c, 1, 66, 0
1, 144192, Note_on_c, 1, 64, 127
1, 144286, Note_off_c, 1, 64, 0
1, 144336, Note_off_c, 1, 45, 0
1, 144384, Note_on_c, 1, 63, 127
1, 144384, Note_on_c, 1, 43, 127
1, 144478, Note_off_c, 1, 72, 0
1, 144478, Note_off_c, 1, 43, 0
1, 144480, Note_on_c, 1, 71, 127
1, 144574, Note_off_c, 1, 71, 0
1, 144576, Note_on_c, 1, 51, 127
1, 144670, Note_off_c, 1, 51, 0
1, 144862, Note_off_c, 1, 63, 0
1, 144960, Note_on_c, 1, 57, 127
1, 145054, Note_off_c, 1, 57, 0
1, 145152, Note_on_c, 1, 54, 127
1, 145312, Note_off_c, 1, 54, 0
1, 145536, Note_on_c, 1, 81, 127
1, 145536, Note_on_c, 1, 62, 127
1, 145696, Note_off_c, 1, 62, 0
1, 145920, Note_on_c, 1, 80, 127
1, 145920, Note_on_c, 1, 58, 127
1, 146014, Note_off_c, 1, 80, 0
1, 146016, Note_on_c, 1, 79, 127
1, 146080, Note_off_c, 1, 58, 0
1, 146110, Note_off_c, 1, 79, 0
1, 146112, Note_on_c, 1, 78, 127
1, 146206, Note_off_c, 1, 78, 0
1, 146304, Note_on_c, 1, 82, 127
1, 146496, Note_on_c, 1, 65, 127
1, 146496, Note_on_c, 1, 50, 127
1, 146590, Note_off_c, 1, 50, 0
1, 146592, Note_on_c, 1, 53, 127
1, 146656, Note_off_c, 1, 65, 0
1, 146686, Note_off_c, 1, 53, 0
1, 146688, Note_on_c, 1, 52, 127
1, 146782, Note_off_c, 1, 82, 0
1, 146784, Note_on_c, 1, 77, 127
1, 146848, Note_off_c, 1, 52, 0
1, 146878, Note_off_c, 1, 77, 0
1, 146880, Note_on_c, 1, 76, 127
1, 146974, Note_off_c, 1, 76, 0
1, 147456, Note_on_c, 1, 68, 127
1, 147616, Note_off_c, 1, 68, 0
1, 147648, Note_on_c, 1, 56, 127
1, 147742, Note_off_c, 1, 56, 0
1, 149760, Note_on_c, 1, 44, 127
1, 150480, Note_off_c, 1, 44, 0
1, 150528, Note_on_c, 1, 59, 127
1, 150622, Note_off_c, 1, 59, 0
1, 155136, Note_on_c, 1, 36, 127
1, 155664, Note_off_c, 1, 36, 0
1, 155712, Note_off_c, 1, 81, 0
1, 155712, End_track
0, 0, End_of_file