0, 0, Header, 1, 1, 480
1, 0, Start_track
1, 0, Title_t, "Test"
1, 0, Tempo, 500000
1, 0, Instrument_name_t, "Church Organ"
1, 0, Note_on_c, 1, 48, 127
1, 192, Note_off_c, 1, 48, 0
1, 240, Note_on_c, 1, 55, 127
1, 624, Note_off_c, 1, 55, 0
1, 720, Note_on_c, 1, 51, 127
1, 945, Note_off_c, 1, 51, 0
1, 960, Note_on_c, 1, 53, 127
1, 1344, Note_off_c, 1, 53, 0
1, 1440, Note_on_c, 1, 55, 127
1, 1632, Note_off_c, 1, 55, 0
1, 1680, Note_on_c, 1, 56, 127
1, 2064, Note_off_c, 1, 56, 0
1, 2160, Note_on_c, 1, 53, 127
1, 2352, Note_off_c, 1, 53, 0
1, 2400, Note_on_c, 1, 55, 127
1, 2784, Note_off_c, 1, 55, 0
1, 2880, Note_on_c, 1, 50, 127
1, 3072, Note_off_c, 1, 50, 0
1, 3120, Note_on_c, 1, 51, 127
1, 3504, Note_off_c, 1, 51, 0
1, 3600, Note_on_c, 1, 47, 127
1, 3792, Note_off_c, 1, 47, 0
1, 3840, Note_on_c, 1, 48, 127
1, 4224, Note_off_c, 1, 48, 0
1, 4320, Note_on_c, 1, 41, 127
1, 4512, Note_off_c, 1, 41, 0
1, 4560, Note_on_c, 1, 43, 127
1, 5136, Note_off_c, 1, 43, 0
1, 5280, Note_on_c, 1, 36, 127
1, 5664, Note_off_c, 1, 36, 0
1, 5760, Note_on_c, 1, 48, 127
1, 5880, Note_on_c, 1, 72, 127
1, 5880, Note_on_c, 1, 67, 127
1, 5880, Note_on_c, 1, 63, 127
1, 5952, Note_off_c, 1, 48, 0
1, 6000, Note_on_c, 1, 55, 127
1, 6096, Note_off_c, 1, 63, 0
1, 6120, Note_on_c, 1, 62, 127
1, 6144, Note_off_c, 1, 72, 0
1, 6180, Note_on_c, 1, 74, 127
1, 6192, Note_off_c, 1, 67, 0
1, 6228, Note_off_c, 1, 74, 0
1, 6240, Note_on_c, 1, 71, 127
1, 6384, Note_off_c, 1, 55, 0
1, 6432, Note_off_c, 1, 62, 0
1, 6432, Note_off_c, 1, 71, 0
1, 6480, Note_on_c, 1, 51, 127
1, 6600, Note_on_c, 1, 75, 127
1, 6600, Note_on_c, 1, 72, 127
1, 6600, Note_on_c, 1, 67, 127
1, 6705, Note_off_c, 1, 51, 0
1, 6720, Note_on_c, 1, 53, 127
1, 6816, Note_off_c, 1, 67, 0
1, 6840, Note_on_c, 1, 65, 127
1, 6864, Note_off_c, 1, 75, 0
1, 6900, Note_on_c, 1, 77, 127
1, 6912, Note_off_c, 1, 72, 0
1, 6948, Note_off_c, 1, 77, 0
1, 6960, Note_on_c, 1, 68, 127
1, 6960, Note_on_c, 1, 74, 127
1, 7104, Note_off_c, 1, 53, 0
1, 7152, Note_off_c, 1, 65, 0
1, 7152, Note_off_c, 1, 68, 0
1, 7152, Note_off_c, 1, 74, 0
1, 7200, Note_on_c, 1, 55, 127
1, 7320, Note_on_c, 1, 67, 127
1, 7320, Note_on_c, 1, 74, 127
1, 7320, Note_on_c, 1, 59, 127
1, 7392, Note_off_c, 1, 55, 0
1, 7440, Note_on_c, 1, 56, 127
1, 7536, Note_off_c, 1, 67, 0
1, 7560, Note_on_c, 1, 65, 127
1, 7584, Note_off_c, 1, 74, 0
1, 7620, Note_on_c, 1, 75, 127
1, 7632, Note_off_c, 1, 59, 0
1, 7668, Note_off_c, 1, 75, 0
1, 7680, Note_on_c, 1, 72, 127
1, 7680, Note_on_c, 1, 60, 127
1, 7824, Note_off_c, 1, 56, 0
1, 7872, Note_off_c, 1, 65, 0
1, 7872, Note_off_c, 1, 72, 0
1, 7872, Note_off_c, 1, 60, 0
1, 7920, Note_on_c, 1, 53, 127
1, 8040, Note_on_c, 1, 72, 127
1, 8040, Note_on_c, 1, 68, 127
1, 8040, Note_on_c, 1, 63, 127
1, 8112, Note_off_c, 1, 53, 0
1, 8160, Note_on_c, 1, 55, 127
1, 8256, Note_off_c, 1, 63, 0
1, 8280, Note_on_c, 1, 62, 127
1, 8304, Note_off_c, 1, 72, 0
1, 8340, Note_on_c, 1, 74, 127
1, 8352, Note_off_c, 1, 68, 0
1, 8388, Note_off_c, 1, 74, 0
1, 8400, Note_on_c, 1, 71, 127
1, 8400, Note_on_c, 1, 67, 127
1, 8544, Note_off_c, 1, 55, 0
1, 8592, Note_off_c, 1, 62, 0
1, 8592, Note_off_c, 1, 71, 0
1, 8592, Note_off_c, 1, 67, 0
1, 8640, Note_on_c, 1, 50, 127
1, 8760, Note_on_c, 1, 80, 127
1, 8760, Note_on_c, 1, 71, 127
1, 8760, Note_on_c, 1, 65, 127
1, 8832, Note_off_c, 1, 50, 0
1, 8880, Note_on_c, 1, 51, 127
1, 8976, Note_off_c, 1, 65, 0
1, 9000, Note_on_c, 1, 63, 127
1, 9024, Note_off_c, 1, 80, 0
1, 9060, Note_on_c, 1, 82, 127
1, 9072, Note_off_c, 1, 71, 0
1, 9108, Note_off_c, 1, 82, 0
1, 9120, Note_on_c, 1, 72, 127
1, 9120, Note_on_c, 1, 79, 127
1, 9264, Note_off_c, 1, 51, 0
1, 9312, Note_off_c, 1, 63, 0
1, 9312, Note_off_c, 1, 72, 0
1, 9312, Note_off_c, 1, 79, 0
1, 9360, Note_on_c, 1, 47, 127
1, 9480, Note_on_c, 1, 77, 127
1, 9480, Note_on_c, 1, 68, 127
1, 9480, Note_on_c, 1, 62, 127
1, 9552, Note_off_c, 1, 47, 0
1, 9600, Note_on_c, 1, 48, 127
1, 9696, Note_off_c, 1, 62, 0
1, 9720, Note_on_c, 1, 60, 127
1, 9744, Note_off_c, 1, 77, 0
1, 9780, Note_on_c, 1, 79, 127
1, 9792, Note_off_c, 1, 68, 0
1, 9828, Note_off_c, 1, 79, 0
1, 9840, Note_on_c, 1, 75, 127
1, 9840, Note_on_c, 1, 67, 127
1, 9984, Note_off_c, 1, 48, 0
1, 10032, Note_off_c, 1, 60, 0
1, 10032, Note_off_c, 1, 75, 0
1, 10032, Note_off_c, 1, 67, 0
1, 10080, Note_on_c, 1, 41, 127
1, 10200, Note_on_c, 1, 68, 127
1, 10200, Note_on_c, 1, 75, 127
1, 10200, Note_on_c, 1, 60, 127
1, 10272, Note_off_c, 1, 41, 0
1, 10320, Note_on_c, 1, 43, 127
1, 10416, Note_off_c, 1, 68, 0
1, 10440, Note_on_c, 1, 67, 127
1, 10464, Note_off_c, 1, 75, 0
1, 10500, Note_on_c, 1, 77, 127
1, 10536, Note_off_c, 1, 67, 0
1, 10548, Note_off_c, 1, 77, 0
1, 10560, Note_on_c, 1, 74, 127
1, 10560, Note_on_c, 1, 65, 127
1, 10704, Note_off_c, 1, 60, 0
1, 10740, Note_on_c, 1, 62, 127
1, 10752, Note_off_c, 1, 74, 0
1, 10752, Note_off_c, 1, 65, 0
1, 10788, Note_off_c, 1, 62, 0
1, 10800, Note_on_c, 1, 59, 127
1, 10896, Note_off_c, 1, 43, 0
1, 10992, Note_off_c, 1, 59, 0
1, 11040, Note_on_c, 1, 36, 127
1, 11160, Note_on_c, 1, 55, 127
1, 11280, Note_on_c, 1, 63, 127
1, 11280, Note_on_c, 1, 72, 127
1, 11424, Note_off_c, 1, 36, 0
1, 11472, Note_off_c, 1, 55, 0
1, 11472, Note_off_c, 1, 63, 0
1, 11472, Note_off_c, 1, 72, 0
1, 11520, Note_on_c, 1, 48, 127
1, 11640, Note_on_c, 1, 72, 127
1, 11640, Note_on_c, 1, 67, 127
1, 11640, Note_on_c, 1, 63, 127
1, 11712, Note_off_c, 1, 48, 0
1, 11760, Note_on_c, 1, 55, 127
1, 11856, Note_off_c, 1, 63, 0
1, 11880, Note_on_c, 1, 62, 127
1, 11904, Note_off_c, 1, 72, 0
1, 11940, Note_on_c, 1, 74, 127
1, 11952, Note_off_c, 1, 67, 0
1, 11988, Note_off_c, 1, 74, 0
1, 12000, Note_on_c, 1, 71, 127
1, 12144, Note_off_c, 1, 55, 0
1, 12192, Note_off_c, 1, 62, 0
1, 12192, Note_off_c, 1, 71, 0
1, 12240, Note_on_c, 1, 51, 127
1, 12360, Note_on_c, 1, 70, 127
1, 12360, Note_on_c, 1, 67, 127
1, 12360, Note_on_c, 1, 61, 127
1, 12465, Note_off_c, 1, 51, 0
1, 12480, Note_on_c, 1, 53, 127
1, 12576, Note_off_c, 1, 61, 0
1, 12600, Note_on_c, 1, 60, 127
1, 12624, Note_off_c, 1, 70, 0
1, 12660, Note_on_c, 1, 72, 127
1, 12672, Note_off_c, 1, 67, 0
1, 12708, Note_off_c, 1, 72, 0
1, 12720, Note_on_c, 1, 68, 127
1, 12720, Note_on_c, 1, 65, 127
1, 12864, Note_off_c, 1, 53, 0
1, 12912, Note_off_c, 1, 60, 0
1, 12912, Note_off_c, 1, 68, 0
1, 12960, Note_off_c, 1, 65, 0
1, 12960, Note_on_c, 1, 55, 127
1, 13080, Note_on_c, 1, 63, 127
1, 13080, Note_on_c, 1, 59, 127
1, 13152, Note_off_c, 1, 55, 0
1, 13200, Note_on_c, 1, 56, 127
1, 13296, Note_off_c, 1, 59, 0
1, 13440, Note_off_c, 1, 63, 0
1, 13440, Note_on_c, 1, 62, 127
1, 13584, Note_off_c, 1, 56, 0
1, 13680, Note_off_c, 1, 62, 0
1, 14400, Note_on_c, 1, 50, 127
1, 14520, Note_on_c, 1, 65, 127
1, 14520, Note_on_c, 1, 59, 127
1, 14520, Note_on_c, 1, 56, 127
1, 14592, Note_off_c, 1, 50, 0
1, 14640, Note_on_c, 1, 51, 127
1, 14736, Note_off_c, 1, 56, 0
1, 14760, Note_on_c, 1, 55, 127
1, 14784, Note_off_c, 1, 65, 0
1, 14820, Note_on_c, 1, 67, 127
1, 14832, Note_off_c, 1, 59, 0
1, 14868, Note_off_c, 1, 67, 0
1, 14880, Note_on_c, 1, 63, 127
1, 14880, Note_on_c, 1, 60, 127
1, 15024, Note_off_c, 1, 51, 0
1, 15072, Note_off_c, 1, 55, 0
1, 15072, Note_off_c, 1, 63, 0
1, 15072, Note_off_c, 1, 60, 0
1, 15120, Note_on_c, 1, 47, 127
1, 15240, Note_on_c, 1, 56, 127
1, 15240, Note_on_c, 1, 62, 127
1, 15240, Note_on_c, 1, 53, 127
1, 15312, Note_off_c, 1, 47, 0
1, 15360, Note_on_c, 1, 48, 127
1, 15456, Note_off_c, 1, 56, 0
1, 15480, Note_on_c, 1, 55, 127
1, 15504, Note_off_c, 1, 62, 0
1, 15540, Note_on_c, 1, 63, 127
1, 15552, Note_off_c, 1, 53, 0
1, 15576, Note_off_c, 1, 55, 0
1, 15588, Note_off_c, 1, 63, 0
1, 15600, Note_on_c, 1, 60, 127
1, 15600, Note_on_c, 1, 51, 127
1, 15744, Note_off_c, 1, 48, 0
1, 15792, Note_off_c, 1, 60, 0
1, 15792, Note_off_c, 1, 51, 0
1, 15840, Note_on_c, 1, 41, 127
1, 15960, Note_on_c, 1, 56, 127
1, 15960, Note_on_c, 1, 60, 127
1, 15960, Note_on_c, 1, 51, 127
1, 16032, Note_off_c, 1, 41, 0
1, 16056, Note_off_c, 1, 56, 0
1, 16080, Note_on_c, 1, 43, 127
1, 16176, Note_off_c, 1, 51, 0
1, 16200, Note_on_c, 1, 50, 127
1, 16224, Note_off_c, 1, 60, 0
1, 16260, Note_on_c, 1, 62, 127
1, 16317, Note_off_c, 1, 62, 0
1, 16320, Note_on_c, 1, 59, 127
1, 16416, Note_off_c, 1, 50, 0
1, 16440, Note_on_c, 1, 53, 127
1, 16536, Note_off_c, 1, 53, 0
1, 16560, Note_on_c, 1, 55, 127
1, 16632, Note_off_c, 1, 59, 0
1, 16656, Note_off_c, 1, 43, 0
1, 16704, Note_off_c, 1, 55, 0
1, 16800, Note_on_c, 1, 60, 127
1, 16800, Note_on_c, 1, 51, 127
1, 16800, Note_on_c, 1, 48, 127
1, 16800, Note_on_c, 1, 36, 127
1, 16896, Note_off_c, 1, 60, 0
1, 16920, Note_on_c, 1, 67, 127
1, 16992, Note_off_c, 1, 51, 0
1, 16992, Note_off_c, 1, 48, 0
1, 17016, Note_off_c, 1, 67, 0
1, 17040, Note_on_c, 1, 72, 127
1, 17136, Note_off_c, 1, 72, 0
1, 17160, Note_on_c, 1, 74, 127
1, 17160, Note_on_c, 1, 55, 127
1, 17184, Note_off_c, 1, 36, 0
1, 17256, Note_off_c, 1, 74, 0
1, 17256, Note_off_c, 1, 55, 0
1, 17280, Note_on_c, 1, 75, 127
1, 17280, Note_on_c, 1, 60, 127
1, 17280, Note_on_c, 1, 48, 127
1, 17376, Note_off_c, 1, 75, 0
1, 17376, Note_off_c, 1, 60, 0
1, 17400, Note_on_c, 1, 77, 127
1, 17400, Note_on_c, 1, 62, 127
1, 17472, Note_off_c, 1, 48, 0
1, 17496, Note_off_c, 1, 77, 0
1, 17496, Note_off_c, 1, 62, 0
1, 17520, Note_on_c, 1, 74, 127
1, 17520, Note_on_c, 1, 59, 127
1, 17520, Note_on_c, 1, 55, 127
1, 17640, Note_on_c, 1, 62, 127
1, 17736, Note_off_c, 1, 62, 0
1, 17760, Note_on_c, 1, 67, 127
1, 17808, Note_off_c, 1, 59, 0
1, 17856, Note_off_c, 1, 67, 0
1, 17880, Note_on_c, 1, 68, 127
1, 17880, Note_on_c, 1, 60, 127
1, 17904, Note_off_c, 1, 74, 0
1, 17904, Note_off_c, 1, 55, 0
1, 17976, Note_off_c, 1, 68, 0
1, 17976, Note_off_c, 1, 60, 0
1, 18000, Note_on_c, 1, 70, 127
1, 18000, Note_on_c, 1, 79, 127
1, 18000, Note_on_c, 1, 61, 127
1, 18000, Note_on_c, 1, 51, 127
1, 18096, Note_off_c, 1, 70, 0
1, 18096, Note_off_c, 1, 61, 0
1, 18120, Note_on_c, 1, 72, 127
1, 18120, Note_on_c, 1, 63, 127
1, 18192, Note_off_c, 1, 79, 0
1, 18216, Note_off_c, 1, 72, 0
1, 18216, Note_off_c, 1, 63, 0
1, 18225, Note_off_c, 1, 51, 0
1, 18240, Note_on_c, 1, 79, 127
1, 18240, Note_on_c, 1, 68, 127
1, 18240, Note_on_c, 1, 60, 127
1, 18240, Note_on_c, 1, 53, 127
1, 18336, Note_off_c, 1, 60, 0
1, 18360, Note_on_c, 1, 65, 127
1, 18432, Note_off_c, 1, 79, 0
1, 18456, Note_off_c, 1, 65, 0
1, 18480, Note_on_c, 1, 77, 127
1, 18480, Note_on_c, 1, 62, 127
1, 18528, Note_off_c, 1, 68, 0
1, 18576, Note_off_c, 1, 62, 0
1, 18624, Note_off_c, 1, 53, 0
1, 18672, Note_off_c, 1, 77, 0
1, 18720, Note_on_c, 1, 67, 127
1, 18720, Note_on_c, 1, 75, 127
1, 18720, Note_on_c, 1, 59, 127
1, 18720, Note_on_c, 1, 55, 127
1, 18816, Note_off_c, 1, 67, 0
1, 18840, Note_on_c, 1, 65, 127
1, 18912, Note_off_c, 1, 75, 0
1, 18912, Note_off_c, 1, 59, 0
1, 18912, Note_off_c, 1, 55, 0
1, 18936, Note_off_c, 1, 65, 0
1, 18960, Note_on_c, 1, 63, 127
1, 18960, Note_on_c, 1, 75, 127
1, 18960, Note_on_c, 1, 60, 127
1, 18960, Note_on_c, 1, 56, 127
1, 19056, Note_off_c, 1, 63, 0
1, 19056, Note_off_c, 1, 75, 0
1, 19056, Note_off_c, 1, 60, 0
1, 19080, Note_on_c, 1, 79, 127
1, 19080, Note_on_c, 1, 58, 127
1, 19176, Note_off_c, 1, 79, 0
1, 19176, Note_off_c, 1, 58, 0
1, 19200, Note_on_c, 1, 77, 127
1, 19200, Note_on_c, 1, 65, 127
1, 19296, Note_off_c, 1, 77, 0
1, 19296, Note_off_c, 1, 65, 0
1, 19320, Note_on_c, 1, 67, 127
1, 19344, Note_off_c, 1, 56, 0
1, 19416, Note_off_c, 1, 67, 0
1, 19440, Note_on_c, 1, 74, 127
1, 19440, Note_on_c, 1, 68, 127
1, 19440, Note_on_c, 1, 65, 127
1, 19440, Note_on_c, 1, 53, 127
1, 19536, Note_off_c, 1, 74, 0
1, 19536, Note_off_c, 1, 65, 0
1, 19560, Note_on_c, 1, 72, 127
1, 19560, Note_on_c, 1, 63, 127
1, 19632, Note_off_c, 1, 53, 0
1, 19656, Note_off_c, 1, 72, 0
1, 19656, Note_off_c, 1, 63, 0
1, 19680, Note_on_c, 1, 71, 127
1, 19680, Note_on_c, 1, 62, 127
1, 19680, Note_on_c, 1, 55, 127
1, 19776, Note_off_c, 1, 68, 0
1, 19872, Note_off_c, 1, 71, 0
1, 19920, Note_on_c, 1, 67, 127
1, 19968, Note_off_c, 1, 62, 0
1, 20016, Note_off_c, 1, 67, 0
1, 20064, Note_off_c, 1, 55, 0
1, 20160, Note_on_c, 1, 71, 127
1, 20160, Note_on_c, 1, 65, 127
1, 20160, Note_on_c, 1, 50, 127
1, 20280, Note_on_c, 1, 80, 127
1, 20352, Note_off_c, 1, 71, 0
1, 20352, Note_off_c, 1, 65, 0
1, 20352, Note_off_c, 1, 50, 0
1, 20376, Note_off_c, 1, 80, 0
1, 20400, Note_on_c, 1, 79, 127
1, 20400, Note_on_c, 1, 72, 127
1, 20400, Note_on_c, 1, 63, 127
1, 20400, Note_on_c, 1, 51, 127
1, 20496, Note_off_c, 1, 79, 0
1, 20496, Note_off_c, 1, 63, 0
1, 20520, Note_on_c, 1, 77, 127
1, 20520, Note_on_c, 1, 65, 127
1, 20616, Note_off_c, 1, 77, 0
1, 20633, Note_off_c, 1, 65, 0
1, 20640, Note_on_c, 1, 75, 127
1, 20640, Note_on_c, 1, 67, 127
1, 20688, Note_off_c, 1, 72, 0
1, 20760, Note_on_c, 1, 68, 127
1, 20784, Note_off_c, 1, 51, 0
1, 20832, Note_off_c, 1, 75, 0
1, 20832, Note_off_c, 1, 67, 0
1, 20856, Note_off_c, 1, 68, 0
1, 20880, Note_on_c, 1, 67, 127
1, 20880, Note_on_c, 1, 62, 127
1, 20880, Note_on_c, 1, 47, 127
1, 20976, Note_off_c, 1, 67, 0
1, 21000, Note_on_c, 1, 80, 127
1, 21000, Note_on_c, 1, 65, 127
1, 21072, Note_off_c, 1, 62, 0
1, 21072, Note_off_c, 1, 47, 0
1, 21096, Note_off_c, 1, 80, 0
1, 21096, Note_off_c, 1, 65, 0
1, 21120, Note_on_c, 1, 79, 127
1, 21120, Note_on_c, 1, 63, 127
1, 21120, Note_on_c, 1, 48, 127
1, 21216, Note_off_c, 1, 79, 0
1, 21216, Note_off_c, 1, 63, 0
1, 21240, Note_on_c, 1, 62, 127
1, 21240, Note_on_c, 1, 77, 127
1, 21240, Note_on_c, 1, 56, 127
1, 21336, Note_off_c, 1, 62, 0
1, 21336, Note_off_c, 1, 77, 0
1, 21336, Note_off_c, 1, 56, 0
1, 21360, Note_on_c, 1, 75, 127
1, 21360, Note_on_c, 1, 60, 127
1, 21360, Note_on_c, 1, 55, 127
1, 21456, Note_off_c, 1, 55, 0
1, 21480, Note_on_c, 1, 53, 127
1, 21504, Note_off_c, 1, 48, 0
1, 21552, Note_off_c, 1, 75, 0
1, 21576, Note_off_c, 1, 53, 0
1, 21600, Note_on_c, 1, 51, 127
1, 21600, Note_on_c, 1, 41, 127
1, 21696, Note_off_c, 1, 51, 0
1, 21720, Note_on_c, 1, 80, 127
1, 21720, Note_on_c, 1, 50, 127
1, 21792, Note_off_c, 1, 41, 0
1, 21816, Note_off_c, 1, 80, 0
1, 21816, Note_off_c, 1, 50, 0
1, 21840, Note_on_c, 1, 43, 127
1, 21936, Note_off_c, 1, 60, 0
1, 21960, Note_on_c, 1, 59, 127
1, 21960, Note_on_c, 1, 68, 127
1, 22056, Note_off_c, 1, 59, 0
1, 22056, Note_off_c, 1, 68, 0
1, 22080, Note_on_c, 1, 67, 127
1, 22176, Note_off_c, 1, 67, 0
1, 22200, Note_on_c, 1, 74, 127
1, 22200, Note_on_c, 1, 65, 127
1, 22296, Note_off_c, 1, 74, 0
1, 22296, Note_off_c, 1, 65, 0
1, 22320, Note_on_c, 1, 72, 127
1, 22416, Note_off_c, 1, 43, 0
1, 22416, Note_off_c, 1, 72, 0
1, 22440, Note_on_c, 1, 71, 127
1, 22536, Note_off_c, 1, 71, 0
1, 22560, Note_on_c, 1, 36, 127
1, 22944, Note_off_c, 1, 36, 0
1, 22980, Note_on_c, 1, 62, 127
1, 22980, Note_on_c, 1, 53, 127
1, 23028, Note_off_c, 1, 62, 0
1, 23028, Note_off_c, 1, 53, 0
1, 23040, Note_on_c, 1, 63, 127
1, 23040, Note_on_c, 1, 55, 127
1, 23040, Note_on_c, 1, 48, 127
1, 23136, Note_off_c, 1, 63, 0
1, 23136, Note_off_c, 1, 55, 0
1, 23160, Note_on_c, 1, 67, 127
1, 23160, Note_on_c, 1, 60, 127
1, 23208, Note_off_c, 1, 67, 0
1, 23220, Note_on_c, 1, 65, 127
1, 23220, Note_on_c, 1, 69, 127
1, 23232, Note_off_c, 1, 48, 0
1, 23256, Note_off_c, 1, 60, 0
1, 23268, Note_off_c, 1, 65, 0
1, 23268, Note_off_c, 1, 69, 0
1, 23280, Note_on_c, 1, 71, 127
1, 23280, Note_on_c, 1, 67, 127
1, 23280, Note_on_c, 1, 62, 127
1, 23280, Note_on_c, 1, 55, 127
1, 23376, Note_off_c, 1, 71, 0
1, 23376, Note_off_c, 1, 62, 0
1, 23460, Note_on_c, 1, 72, 127
1, 23460, Note_on_c, 1, 57, 127
1, 23508, Note_off_c, 1, 72, 0
1, 23508, Note_off_c, 1, 57, 0
1, 23520, Note_on_c, 1, 74, 127
1, 23520, Note_on_c, 1, 59, 127
1, 23616, Note_off_c, 1, 74, 0
1, 23616, Note_off_c, 1, 59, 0
1, 23664, Note_off_c, 1, 55, 0
1, 23760, Note_on_c, 1, 75, 127
1, 23760, Note_on_c, 1, 60, 127
1, 23760, Note_on_c, 1, 51, 127
1, 23856, Note_off_c, 1, 67, 0
1, 23880, Note_on_c, 1, 65, 127
1, 23928, Note_off_c, 1, 65, 0
1, 23985, Note_off_c, 1, 51, 0
1, 24000, Note_on_c, 1, 68, 127
1, 24000, Note_on_c, 1, 53, 127
1, 24096, Note_off_c, 1, 60, 0
1, 24180, Note_on_c, 1, 63, 127
1, 24228, Note_off_c, 1, 63, 0
1, 24288, Note_off_c, 1, 75, 0
1, 24384, Note_off_c, 1, 53, 0
1, 24576, Note_off_c, 1, 68, 0
1, 24720, Note_on_c, 1, 63, 127
1, 24720, Note_on_c, 1, 60, 127
1, 24720, Note_on_c, 1, 56, 127
1, 24840, Note_on_c, 1, 72, 127
1, 24888, Note_off_c, 1, 72, 0
1, 24900, Note_on_c, 1, 74, 127
1, 24912, Note_off_c, 1, 60, 0
1, 24948, Note_off_c, 1, 74, 0
1, 24960, Note_on_c, 1, 75, 127
1, 25008, Note_off_c, 1, 63, 0
1, 25056, Note_off_c, 1, 75, 0
1, 25080, Note_on_c, 1, 62, 127
1, 25080, Note_on_c, 1, 77, 127
1, 25104, Note_off_c, 1, 56, 0
1, 25128, Note_off_c, 1, 62, 0
1, 25128, Note_off_c, 1, 77, 0
1, 25140, Note_on_c, 1, 63, 127
1, 25140, Note_on_c, 1, 79, 127
1, 25188, Note_off_c, 1, 63, 0
1, 25188, Note_off_c, 1, 79, 0
1, 25200, Note_on_c, 1, 80, 127
1, 25200, Note_on_c, 1, 65, 127
1, 25200, Note_on_c, 1, 53, 127
1, 25296, Note_off_c, 1, 80, 0
1, 25296, Note_off_c, 1, 65, 0
1, 25320, Note_on_c, 1, 74, 127
1, 25320, Note_on_c, 1, 68, 127
1, 25368, Note_off_c, 1, 74, 0
1, 25380, Note_on_c, 1, 72, 127
1, 25380, Note_on_c, 1, 63, 127
1, 25392, Note_off_c, 1, 53, 0
1, 25416, Note_off_c, 1, 68, 0
1, 25428, Note_off_c, 1, 72, 0
1, 25428, Note_off_c, 1, 63, 0
1, 25440, Note_on_c, 1, 67, 127
1, 25440, Note_on_c, 1, 71, 127
1, 25440, Note_on_c, 1, 62, 127
1, 25440, Note_on_c, 1, 55, 127
1, 25536, Note_off_c, 1, 67, 0
1, 25536, Note_off_c, 1, 62, 0
1, 25560, Note_on_c, 1, 59, 127
1, 25608, Note_off_c, 1, 59, 0
1, 25620, Note_on_c, 1, 69, 127
1, 25620, Note_on_c, 1, 60, 127
1, 25632, Note_off_c, 1, 71, 0
1, 25668, Note_off_c, 1, 69, 0
1, 25668, Note_off_c, 1, 60, 0
1, 25800, Note_on_c, 1, 79, 127
1, 25824, Note_off_c, 1, 55, 0
1, 25848, Note_off_c, 1, 79, 0
1, 25860, Note_on_c, 1, 81, 127
1, 25860, Note_on_c, 1, 72, 127
1, 25860, Note_on_c, 1, 63, 127
1, 25908, Note_off_c, 1, 81, 0
1, 25908, Note_off_c, 1, 72, 0
1, 25908, Note_off_c, 1, 63, 0
1, 25920, Note_on_c, 1, 83, 127
1, 25920, Note_on_c, 1, 74, 127
1, 25920, Note_on_c, 1, 65, 127
1, 25920, Note_on_c, 1, 50, 127
1, 26016, Note_off_c, 1, 83, 0
1, 26040, Note_on_c, 1, 81, 127
1, 26088, Note_off_c, 1, 81, 0
1, 26112, Note_off_c, 1, 74, 0
1, 26112, Note_off_c, 1, 65, 0
1, 26112, Note_off_c, 1, 50, 0
1, 26160, Note_on_c, 1, 72, 127
1, 26160, Note_on_c, 1, 84, 127
1, 26160, Note_on_c, 1, 67, 127
1, 26160, Note_on_c, 1, 51, 127
1, 26256, Note_off_c, 1, 72, 0
1, 26256, Note_off_c, 1, 84, 0
1, 26280, Note_on_c, 1, 79, 127
1, 26280, Note_on_c, 1, 75, 127
1, 26328, Note_off_c, 1, 79, 0
1, 26328, Note_off_c, 1, 75, 0
1, 26340, Note_on_c, 1, 77, 127
1, 26340, Note_on_c, 1, 74, 127
1, 26352, Note_off_c, 1, 67, 0
1, 26388, Note_off_c, 1, 77, 0
1, 26388, Note_off_c, 1, 74, 0
1, 26544, Note_off_c, 1, 51, 0
1, 26580, Note_on_c, 1, 65, 127
1, 26628, Note_off_c, 1, 65, 0
1, 26640, Note_on_c, 1, 74, 127
1, 26640, Note_on_c, 1, 67, 127
1, 26640, Note_on_c, 1, 47, 127
1, 26736, Note_off_c, 1, 74, 0
1, 26760, Note_on_c, 1, 72, 127
1, 26760, Note_on_c, 1, 55, 127
1, 26808, Note_off_c, 1, 72, 0
1, 26832, Note_off_c, 1, 47, 0
1, 26856, Note_off_c, 1, 55, 0
1, 26880, Note_on_c, 1, 75, 127
1, 26880, Note_on_c, 1, 60, 127
1, 26880, Note_on_c, 1, 48, 127
1, 26976, Note_off_c, 1, 75, 0
1, 26976, Note_off_c, 1, 60, 0
1, 27000, Note_on_c, 1, 63, 127
1, 27048, Note_off_c, 1, 63, 0
1, 27060, Note_on_c, 1, 71, 127
1, 27060, Note_on_c, 1, 62, 127
1, 27072, Note_off_c, 1, 67, 0
1, 27108, Note_off_c, 1, 71, 0
1, 27108, Note_off_c, 1, 62, 0
1, 27264, Note_off_c, 1, 48, 0
1, 27300, Note_on_c, 1, 59, 127
1, 27348, Note_off_c, 1, 59, 0
1, 27360, Note_on_c, 1, 68, 127
1, 27360, Note_on_c, 1, 63, 127
1, 27360, Note_on_c, 1, 60, 127
1, 27360, Note_on_c, 1, 41, 127
1, 27456, Note_off_c, 1, 68, 0
1, 27456, Note_off_c, 1, 63, 0
1, 27456, Note_off_c, 1, 60, 0
1, 27480, Note_on_c, 1, 80, 127
1, 27480, Note_on_c, 1, 51, 127
1, 27528, Note_off_c, 1, 51, 0
1, 27540, Note_on_c, 1, 59, 127
1, 27540, Note_on_c, 1, 50, 127
1, 27552, Note_off_c, 1, 41, 0
1, 27576, Note_off_c, 1, 80, 0
1, 27588, Note_off_c, 1, 59, 0
1, 27588, Note_off_c, 1, 50, 0
1, 27600, Note_on_c, 1, 60, 127
1, 27600, Note_on_c, 1, 79, 127
1, 27600, Note_on_c, 1, 51, 127
1, 27600, Note_on_c, 1, 43, 127
1, 27696, Note_off_c, 1, 60, 0
1, 27696, Note_off_c, 1, 79, 0
1, 27720, Note_on_c, 1, 72, 127
1, 27720, Note_on_c, 1, 63, 127
1, 27768, Note_off_c, 1, 72, 0
1, 27768, Note_off_c, 1, 63, 0
1, 27780, Note_on_c, 1, 71, 127
1, 27780, Note_on_c, 1, 62, 127
1, 27792, Note_off_c, 1, 51, 0
1, 27828, Note_off_c, 1, 71, 0
1, 27828, Note_off_c, 1, 62, 0
1, 27960, Note_on_c, 1, 55, 127
1, 28008, Note_off_c, 1, 55, 0
1, 28020, Note_on_c, 1, 53, 127
1, 28068, Note_off_c, 1, 53, 0
1, 28176, Note_off_c, 1, 43, 0
1, 28200, Note_on_c, 1, 59, 127
1, 28200, Note_on_c, 1, 50, 127
1, 28296, Note_off_c, 1, 59, 0
1, 28296, Note_off_c, 1, 50, 0
1, 28320, Note_on_c, 1, 60, 127
1, 28320, Note_on_c, 1, 51, 127
1, 28320, Note_on_c, 1, 36, 127
1, 28440, Note_on_c, 1, 79, 127
1, 28488, Note_off_c, 1, 79, 0
1, 28500, Note_on_c, 1, 67, 127
1, 28512, Note_off_c, 1, 60, 0
1, 28512, Note_off_c, 1, 51, 0
1, 28548, Note_off_c, 1, 67, 0
1, 28560, Note_on_c, 1, 72, 127
1, 28656, Note_off_c, 1, 72, 0
1, 28680, Note_on_c, 1, 74, 127
1, 28704, Note_off_c, 1, 36, 0
1, 28737, Note_off_c, 1, 74, 0
1, 28740, Note_on_c, 1, 75, 127
1, 28740, Note_on_c, 1, 55, 127
1, 28788, Note_off_c, 1, 55, 0
1, 28797, Note_off_c, 1, 75, 0
1, 28800, Note_on_c, 1, 75, 127
1, 28800, Note_on_c, 1, 60, 127
1, 28920, Note_on_c, 1, 67, 127
1, 28968, Note_off_c, 1, 67, 0
1, 28980, Note_on_c, 1, 66, 127
1, 28980, Note_on_c, 1, 48, 127
1, 28992, Note_off_c, 1, 75, 0
1, 28992, Note_off_c, 1, 60, 0
1, 29028, Note_off_c, 1, 66, 0
1, 29028, Note_off_c, 1, 48, 0
1, 29040, Note_on_c, 1, 67, 127
1, 29040, Note_on_c, 1, 74, 127
1, 29040, Note_on_c, 1, 59, 127
1, 29040, Note_on_c, 1, 55, 127
1, 29136, Note_off_c, 1, 67, 0
1, 29136, Note_off_c, 1, 74, 0
1, 29220, Note_on_c, 1, 62, 127
1, 29232, Note_off_c, 1, 59, 0
1, 29232, Note_off_c, 1, 55, 0
1, 29268, Note_off_c, 1, 62, 0
1, 29280, Note_on_c, 1, 67, 127
1, 29400, Note_on_c, 1, 74, 127
1, 29400, Note_on_c, 1, 59, 127
1, 29448, Note_off_c, 1, 74, 0
1, 29448, Note_off_c, 1, 59, 0
1, 29460, Note_on_c, 1, 71, 127
1, 29460, Note_on_c, 1, 55, 127
1, 29472, Note_off_c, 1, 67, 0
1, 29508, Note_off_c, 1, 71, 0
1, 29508, Note_off_c, 1, 55, 0
1, 29520, Note_on_c, 1, 75, 127
1, 29520, Note_on_c, 1, 60, 127
1, 29640, Note_on_c, 1, 67, 127
1, 29640, Note_on_c, 1, 51, 127
1, 29688, Note_off_c, 1, 67, 0
1, 29688, Note_off_c, 1, 51, 0
1, 29700, Note_on_c, 1, 63, 127
1, 29700, Note_on_c, 1, 48, 127
1, 29748, Note_off_c, 1, 63, 0
1, 29748, Note_off_c, 1, 48, 0
1, 29760, Note_on_c, 1, 68, 127
1, 29760, Note_on_c, 1, 53, 127
1, 29856, Note_off_c, 1, 75, 0
1, 29940, Note_on_c, 1, 72, 127
1, 29952, Note_off_c, 1, 60, 0
1, 29952, Note_off_c, 1, 53, 0
1, 29988, Note_off_c, 1, 72, 0
1, 30000, Note_on_c, 1, 77, 127
1, 30096, Note_off_c, 1, 68, 0
1, 30120, Note_on_c, 1, 65, 127
1, 30120, Note_on_c, 1, 62, 127
1, 30168, Note_off_c, 1, 62, 0
1, 30180, Note_on_c, 1, 57, 127
1, 30216, Note_off_c, 1, 65, 0
1, 30228, Note_off_c, 1, 57, 0
1, 30240, Note_on_c, 1, 59, 127
1, 30336, Note_off_c, 1, 77, 0
1, 30360, Note_on_c, 1, 55, 127
1, 30408, Note_off_c, 1, 55, 0
1, 30420, Note_on_c, 1, 79, 127
1, 30432, Note_off_c, 1, 59, 0
1, 30468, Note_off_c, 1, 79, 0
1, 30480, Note_on_c, 1, 72, 127
1, 30480, Note_on_c, 1, 63, 127
1, 30480, Note_on_c, 1, 60, 127
1, 30480, Note_on_c, 1, 56, 127
1, 30593, Note_off_c, 1, 72, 0
1, 30600, Note_on_c, 1, 84, 127
1, 30657, Note_off_c, 1, 84, 0
1, 30672, Note_off_c, 1, 63, 0
1, 30672, Note_off_c, 1, 60, 0
1, 30672, Note_off_c, 1, 56, 0
1, 30720, Note_on_c, 1, 77, 127
1, 30816, Note_off_c, 1, 77, 0
1, 30840, Note_on_c, 1, 79, 127
1, 30840, Note_on_c, 1, 72, 127
1, 30888, Note_off_c, 1, 79, 0
1, 30888, Note_off_c, 1, 72, 0
1, 30900, Note_on_c, 1, 80, 127
1, 30900, Note_on_c, 1, 60, 127
1, 30948, Note_off_c, 1, 80, 0
1, 30948, Note_off_c, 1, 60, 0
1, 30960, Note_on_c, 1, 80, 127
1, 30960, Note_on_c, 1, 65, 127
1, 30960, Note_on_c, 1, 82, 127
1, 30972, Note_off_c, 1, 82, 0
1, 31080, Note_on_c, 1, 74, 127
1, 31080, Note_on_c, 1, 53, 127
1, 31128, Note_off_c, 1, 80, 0
1, 31128, Note_off_c, 1, 74, 0
1, 31128, Note_off_c, 1, 53, 0
1, 31140, Note_on_c, 1, 79, 127
1, 31140, Note_on_c, 1, 77, 127
1, 31140, Note_on_c, 1, 50, 127
1, 31152, Note_off_c, 1, 65, 0
1, 31164, Note_off_c, 1, 79, 0
1, 31188, Note_off_c, 1, 77, 0
1, 31188, Note_off_c, 1, 50, 0
1, 31200, Note_on_c, 1, 79, 127
1, 31200, Note_on_c, 1, 71, 127
1, 31200, Note_on_c, 1, 62, 127
1, 31200, Note_on_c, 1, 55, 127
1, 31296, Note_off_c, 1, 79, 0
1, 31320, Note_on_c, 1, 74, 127
1, 31368, Note_off_c, 1, 74, 0
1, 31392, Note_off_c, 1, 71, 0
1, 31392, Note_off_c, 1, 55, 0
1, 31428, Note_off_c, 1, 62, 0
1, 31440, Note_on_c, 1, 67, 127
1, 31553, Note_off_c, 1, 67, 0
1, 31560, Note_on_c, 1, 69, 127
1, 31560, Note_on_c, 1, 62, 127
1, 31608, Note_off_c, 1, 69, 0
1, 31608, Note_off_c, 1, 62, 0
1, 31620, Note_on_c, 1, 71, 127
1, 31620, Note_on_c, 1, 50, 127
1, 31668, Note_off_c, 1, 71, 0
1, 31668, Note_off_c, 1, 50, 0
1, 31680, Note_on_c, 1, 71, 127
1, 31680, Note_on_c, 1, 55, 127
1, 31680, Note_on_c, 1, 72, 127
1, 31692, Note_off_c, 1, 72, 0
1, 31776, Note_off_c, 1, 55, 0
1, 31800, Note_on_c, 1, 67, 127
1, 31800, Note_on_c, 1, 62, 127
1, 31848, Note_off_c, 1, 67, 0
1, 31860, Note_on_c, 1, 65, 127
1, 31860, Note_on_c, 1, 50, 127
1, 31896, Note_off_c, 1, 71, 0
1, 31896, Note_off_c, 1, 62, 0
1, 31908, Note_off_c, 1, 65, 0
1, 31908, Note_off_c, 1, 50, 0
1, 31920, Note_on_c, 1, 72, 127
1, 31920, Note_on_c, 1, 60, 127
1, 31920, Note_on_c, 1, 51, 127
1, 32016, Note_off_c, 1, 72, 0
1, 32040, Note_on_c, 1, 79, 127
1, 32088, Note_off_c, 1, 79, 0
1, 32100, Note_on_c, 1, 67, 127
1, 32112, Note_off_c, 1, 60, 0
1, 32112, Note_off_c, 1, 51, 0
1, 32148, Note_off_c, 1, 67, 0
1, 32160, Note_on_c, 1, 72, 127
1, 32256, Note_off_c, 1, 72, 0
1, 32280, Note_on_c, 1, 74, 127
1, 32280, Note_on_c, 1, 67, 127
1, 32328, Note_off_c, 1, 67, 0
1, 32340, Note_on_c, 1, 55, 127
1, 32376, Note_off_c, 1, 74, 0
1, 32388, Note_off_c, 1, 55, 0
1, 32400, Note_on_c, 1, 75, 127
1, 32400, Note_on_c, 1, 60, 127
1, 32496, Note_off_c, 1, 75, 0
1, 32496, Note_off_c, 1, 60, 0
1, 32520, Note_on_c, 1, 74, 127
1, 32520, Note_on_c, 1, 67, 127
1, 32520, Note_on_c, 1, 59, 127
1, 32520, Note_on_c, 1, 55, 127
1, 32568, Note_off_c, 1, 74, 0
1, 32568, Note_off_c, 1, 59, 0
1, 32568, Note_off_c, 1, 55, 0
1, 32580, Note_on_c, 1, 77, 127
1, 32580, Note_on_c, 1, 62, 127
1, 32580, Note_on_c, 1, 47, 127
1, 32616, Note_off_c, 1, 67, 0
1, 32628, Note_off_c, 1, 77, 0
1, 32628, Note_off_c, 1, 62, 0
1, 32628, Note_off_c, 1, 47, 0
1, 32640, Note_on_c, 1, 75, 127
1, 32640, Note_on_c, 1, 67, 127
1, 32640, Note_on_c, 1, 60, 127
1, 32640, Note_on_c, 1, 48, 127
1, 32736, Note_off_c, 1, 75, 0
1, 32760, Note_on_c, 1, 84, 127
1, 32808, Note_off_c, 1, 84, 0
1, 32820, Note_on_c, 1, 72, 127
1, 32832, Note_off_c, 1, 67, 0
1, 32832, Note_off_c, 1, 60, 0
1, 32832, Note_off_c, 1, 48, 0
1, 32868, Note_off_c, 1, 72, 0
1, 32880, Note_on_c, 1, 77, 127
1, 32976, Note_off_c, 1, 77, 0
1, 33000, Note_on_c, 1, 79, 127
1, 33000, Note_on_c, 1, 72, 127
1, 33048, Note_off_c, 1, 72, 0
1, 33060, Note_on_c, 1, 60, 127
1, 33096, Note_off_c, 1, 79, 0
1, 33108, Note_off_c, 1, 60, 0
1, 33120, Note_on_c, 1, 80, 127
1, 33120, Note_on_c, 1, 65, 127
1, 33216, Note_off_c, 1, 80, 0
1, 33240, Note_on_c, 1, 74, 127
1, 33240, Note_on_c, 1, 77, 127
1, 33240, Note_on_c, 1, 53, 127
1, 33264, Note_off_c, 1, 65, 0
1, 33288, Note_off_c, 1, 74, 0
1, 33288, Note_off_c, 1, 53, 0
1, 33300, Note_on_c, 1, 69, 127
1, 33300, Note_on_c, 1, 63, 127
1, 33300, Note_on_c, 1, 41, 127
1, 33348, Note_off_c, 1, 69, 0
1, 33348, Note_off_c, 1, 63, 0
1, 33348, Note_off_c, 1, 41, 0
1, 33360, Note_on_c, 1, 71, 127
1, 33360, Note_on_c, 1, 62, 127
1, 33360, Note_on_c, 1, 43, 127
1, 33456, Note_off_c, 1, 77, 0
1, 33480, Note_on_c, 1, 79, 127
1, 33528, Note_off_c, 1, 79, 0
1, 33552, Note_off_c, 1, 71, 0
1, 33552, Note_off_c, 1, 62, 0
1, 33600, Note_on_c, 1, 75, 127
1, 33720, Note_on_c, 1, 72, 127
1, 33744, Note_off_c, 1, 75, 0
1, 33780, Note_off_c, 1, 72, 0
1, 33936, Note_off_c, 1, 43, 0
1, 33960, Note_on_c, 1, 67, 127
1, 34008, Note_off_c, 1, 67, 0
1, 34080, Note_on_c, 1, 36, 127
1, 34140, Note_on_c, 1, 55, 127
1, 34188, Note_off_c, 1, 55, 0
1, 34200, Note_on_c, 1, 57, 127
1, 34248, Note_off_c, 1, 57, 0
1, 34260, Note_on_c, 1, 59, 127
1, 34308, Note_off_c, 1, 59, 0
1, 34320, Note_on_c, 1, 60, 127
1, 34464, Note_off_c, 1, 36, 0
1, 34464, Note_off_c, 1, 60, 0
1, 34500, Note_on_c, 1, 65, 127
1, 34500, Note_on_c, 1, 62, 127
1, 34548, Note_off_c, 1, 65, 0
1, 34548, Note_off_c, 1, 62, 0
1, 34560, Note_on_c, 1, 67, 127
1, 34560, Note_on_c, 1, 63, 127
1, 34560, Note_on_c, 1, 48, 127
1, 34620, Note_on_c, 1, 69, 127
1, 34668, Note_off_c, 1, 69, 0
1, 34680, Note_on_c, 1, 71, 127
1, 34728, Note_off_c, 1, 71, 0
1, 34740, Note_on_c, 1, 72, 127
1, 34752, Note_off_c, 1, 63, 0
1, 34752, Note_off_c, 1, 48, 0
1, 34788, Note_off_c, 1, 72, 0
1, 34800, Note_on_c, 1, 55, 127
1, 34860, Note_on_c, 1, 62, 127
1, 34908, Note_off_c, 1, 62, 0
1, 34980, Note_on_c, 1, 65, 127
1, 34992, Note_off_c, 1, 67, 0
1, 35028, Note_off_c, 1, 65, 0
1, 35184, Note_off_c, 1, 55, 0
1, 35280, Note_on_c, 1, 51, 127
1, 35340, Note_on_c, 1, 75, 127
1, 35388, Note_off_c, 1, 75, 0
1, 35400, Note_on_c, 1, 77, 127
1, 35448, Note_off_c, 1, 77, 0
1, 35460, Note_on_c, 1, 79, 127
1, 35505, Note_off_c, 1, 51, 0
1, 35508, Note_off_c, 1, 79, 0
1, 35520, Note_on_c, 1, 80, 127
1, 35520, Note_on_c, 1, 53, 127
1, 35580, Note_on_c, 1, 60, 127
1, 35628, Note_off_c, 1, 60, 0
1, 35712, Note_off_c, 1, 80, 0
1, 35904, Note_off_c, 1, 53, 0
1, 35940, Note_on_c, 1, 72, 127
1, 35940, Note_on_c, 1, 63, 127
1, 35988, Note_off_c, 1, 72, 0
1, 35988, Note_off_c, 1, 63, 0
1, 36000, Note_on_c, 1, 71, 127
1, 36000, Note_on_c, 1, 62, 127
1, 36000, Note_on_c, 1, 55, 127
1, 36060, Note_on_c, 1, 79, 127
1, 36096, Note_off_c, 1, 71, 0
1, 36096, Note_off_c, 1, 62, 0
1, 36108, Note_off_c, 1, 79, 0
1, 36120, Note_on_c, 1, 81, 127
1, 36120, Note_on_c, 1, 67, 127
1, 36120, Note_on_c, 1, 65, 127
1, 36168, Note_off_c, 1, 81, 0
1, 36180, Note_on_c, 1, 83, 127
1, 36192, Note_off_c, 1, 55, 0
1, 36216, Note_off_c, 1, 65, 0
1, 36228, Note_off_c, 1, 83, 0
1, 36240, Note_on_c, 1, 84, 127
1, 36240, Note_on_c, 1, 63, 127
1, 36240, Note_on_c, 1, 56, 127
1, 36288, Note_off_c, 1, 63, 0
1, 36300, Note_on_c, 1, 60, 127
1, 36348, Note_off_c, 1, 60, 0
1, 36432, Note_off_c, 1, 67, 0
1, 36432, Note_off_c, 1, 84, 0
1, 36600, Note_on_c, 1, 68, 127
1, 36624, Note_off_c, 1, 56, 0
1, 36648, Note_off_c, 1, 68, 0
1, 36660, Note_on_c, 1, 70, 127
1, 36660, Note_on_c, 1, 67, 127
1, 36708, Note_off_c, 1, 70, 0
1, 36708, Note_off_c, 1, 67, 0
1, 36720, Note_on_c, 1, 72, 127
1, 36720, Note_on_c, 1, 68, 127
1, 36720, Note_on_c, 1, 53, 127
1, 36780, Note_on_c, 1, 74, 127
1, 36816, Note_off_c, 1, 72, 0
1, 36816, Note_off_c, 1, 68, 0
1, 36828, Note_off_c, 1, 74, 0
1, 36840, Note_on_c, 1, 75, 127
1, 36840, Note_on_c, 1, 65, 127
1, 36888, Note_off_c, 1, 75, 0
1, 36900, Note_on_c, 1, 77, 127
1, 36912, Note_off_c, 1, 53, 0
1, 36936, Note_off_c, 1, 65, 0
1, 36948, Note_off_c, 1, 77, 0
1, 36960, Note_on_c, 1, 67, 127
1, 36960, Note_on_c, 1, 71, 127
1, 36960, Note_on_c, 1, 62, 127
1, 36960, Note_on_c, 1, 55, 127
1, 37008, Note_off_c, 1, 62, 0
1, 37020, Note_on_c, 1, 50, 127
1, 37068, Note_off_c, 1, 50, 0
1, 37080, Note_on_c, 1, 51, 127
1, 37128, Note_off_c, 1, 51, 0
1, 37140, Note_on_c, 1, 53, 127
1, 37152, Note_off_c, 1, 67, 0
1, 37152, Note_off_c, 1, 71, 0
1, 37188, Note_off_c, 1, 53, 0
1, 37260, Note_on_c, 1, 57, 127
1, 37308, Note_off_c, 1, 57, 0
1, 37320, Note_on_c, 1, 59, 127
1, 37344, Note_off_c, 1, 55, 0
1, 37368, Note_off_c, 1, 59, 0
1, 37380, Note_on_c, 1, 60, 127
1, 37380, Note_on_c, 1, 57, 127
1, 37428, Note_off_c, 1, 60, 0
1, 37428, Note_off_c, 1, 57, 0
1, 37440, Note_on_c, 1, 62, 127
1, 37440, Note_on_c, 1, 59, 127
1, 37440, Note_on_c, 1, 50, 127
1, 37500, Note_on_c, 1, 63, 127
1, 37548, Note_off_c, 1, 63, 0
1, 37560, Note_on_c, 1, 65, 127
1, 37608, Note_off_c, 1, 65, 0
1, 37620, Note_on_c, 1, 67, 127
1, 37632, Note_off_c, 1, 62, 0
1, 37632, Note_off_c, 1, 59, 0
1, 37632, Note_off_c, 1, 50, 0
1, 37668, Note_off_c, 1, 67, 0
1, 37680, Note_on_c, 1, 63, 127
1, 37680, Note_on_c, 1, 60, 127
1, 37680, Note_on_c, 1, 51, 127
1, 37740, Note_on_c, 1, 55, 127
1, 37788, Note_off_c, 1, 55, 0
1, 37800, Note_on_c, 1, 57, 127
1, 37848, Note_off_c, 1, 57, 0
1, 37860, Note_on_c, 1, 59, 127
1, 37872, Note_off_c, 1, 63, 0
1, 37872, Note_off_c, 1, 60, 0
1, 37908, Note_off_c, 1, 59, 0
1, 37980, Note_on_c, 1, 62, 127
1, 38028, Note_off_c, 1, 62, 0
1, 38064, Note_off_c, 1, 51, 0
1, 38100, Note_on_c, 1, 65, 127
1, 38148, Note_off_c, 1, 65, 0
1, 38160, Note_on_c, 1, 67, 127
1, 38160, Note_on_c, 1, 62, 127
1, 38160, Note_on_c, 1, 47, 127
1, 38220, Note_on_c, 1, 71, 127
1, 38268, Note_off_c, 1, 71, 0
1, 38280, Note_on_c, 1, 72, 127
1, 38328, Note_off_c, 1, 72, 0
1, 38340, Note_on_c, 1, 74, 127
1, 38352, Note_off_c, 1, 62, 0
1, 38352, Note_off_c, 1, 47, 0
1, 38388, Note_off_c, 1, 74, 0
1, 38400, Note_on_c, 1, 75, 127
1, 38400, Note_on_c, 1, 48, 127
1, 38460, Note_on_c, 1, 55, 127
1, 38508, Note_off_c, 1, 55, 0
1, 38520, Note_on_c, 1, 57, 127
1, 38568, Note_off_c, 1, 57, 0
1, 38580, Note_on_c, 1, 59, 127
1, 38592, Note_off_c, 1, 67, 0
1, 38592, Note_off_c, 1, 75, 0
1, 38628, Note_off_c, 1, 59, 0
1, 38640, Note_on_c, 1, 60, 127
1, 38700, Note_on_c, 1, 63, 127
1, 38748, Note_off_c, 1, 63, 0
1, 38760, Note_on_c, 1, 65, 127
1, 38784, Note_off_c, 1, 48, 0
1, 38808, Note_off_c, 1, 65, 0
1, 38880, Note_on_c, 1, 68, 127
1, 38880, Note_on_c, 1, 41, 127
1, 39072, Note_off_c, 1, 68, 0
1, 39072, Note_off_c, 1, 41, 0
1, 39120, Note_on_c, 1, 43, 127
1, 39180, Note_on_c, 1, 79, 127
1, 39228, Note_off_c, 1, 79, 0
1, 39240, Note_on_c, 1, 77, 127
1, 39288, Note_off_c, 1, 77, 0
1, 39408, Note_off_c, 1, 60, 0
1, 39696, Note_off_c, 1, 43, 0
1, 39840, Note_on_c, 1, 72, 127
1, 39840, Note_on_c, 1, 63, 127
1, 39840, Note_on_c, 1, 60, 127
1, 39840, Note_on_c, 1, 36, 127
1, 39888, Note_off_c, 1, 72, 0
1, 39960, Note_on_c, 1, 70, 127
1, 40008, Note_off_c, 1, 70, 0
1, 40020, Note_on_c, 1, 68, 127
1, 40032, Note_off_c, 1, 63, 0
1, 40032, Note_off_c, 1, 60, 0
1, 40068, Note_off_c, 1, 68, 0
1, 40080, Note_on_c, 1, 67, 127
1, 40128, Note_off_c, 1, 67, 0
1, 40140, Note_on_c, 1, 65, 127
1, 40188, Note_off_c, 1, 65, 0
1, 40224, Note_off_c, 1, 36, 0
1, 40260, Note_on_c, 1, 65, 127
1, 40260, Note_on_c, 1, 62, 127
1, 40308, Note_off_c, 1, 65, 0
1, 40308, Note_off_c, 1, 62, 0
1, 40320, Note_on_c, 1, 60, 127
1, 40320, Note_on_c, 1, 48, 127
1, 40368, Note_off_c, 1, 60, 0
1, 40380, Note_on_c, 1, 63, 127
1, 40380, Note_on_c, 1, 55, 127
1, 40428, Note_off_c, 1, 63, 0
1, 40428, Note_off_c, 1, 55, 0
1, 40440, Note_on_c, 1, 62, 127
1, 40440, Note_on_c, 1, 53, 127
1, 40488, Note_off_c, 1, 62, 0
1, 40488, Note_off_c, 1, 53, 0
1, 40500, Note_on_c, 1, 51, 127
1, 40512, Note_off_c, 1, 48, 0
1, 40548, Note_off_c, 1, 51, 0
1, 40560, Note_on_c, 1, 59, 127
1, 40560, Note_on_c, 1, 50, 127
1, 40560, Note_on_c, 1, 55, 127
1, 40620, Note_on_c, 1, 79, 127
1, 40668, Note_off_c, 1, 79, 0
1, 40680, Note_on_c, 1, 77, 127
1, 40728, Note_off_c, 1, 77, 0
1, 40740, Note_on_c, 1, 75, 127
1, 40752, Note_off_c, 1, 59, 0
1, 40752, Note_off_c, 1, 50, 0
1, 40788, Note_off_c, 1, 75, 0
1, 40800, Note_on_c, 1, 74, 127
1, 40848, Note_off_c, 1, 74, 0
1, 40860, Note_on_c, 1, 72, 127
1, 40908, Note_off_c, 1, 72, 0
1, 40920, Note_on_c, 1, 71, 127
1, 40944, Note_off_c, 1, 55, 0
1, 40968, Note_off_c, 1, 71, 0
1, 40980, Note_on_c, 1, 75, 127
1, 40980, Note_on_c, 1, 69, 127
1, 41028, Note_off_c, 1, 75, 0
1, 41028, Note_off_c, 1, 69, 0
1, 41040, Note_on_c, 1, 67, 127
1, 41040, Note_on_c, 1, 72, 127
1, 41040, Note_on_c, 1, 51, 127
1, 41088, Note_off_c, 1, 67, 0
1, 41100, Note_on_c, 1, 68, 127
1, 41100, Note_on_c, 1, 65, 127
1, 41148, Note_off_c, 1, 68, 0
1, 41148, Note_off_c, 1, 65, 0
1, 41160, Note_on_c, 1, 63, 127
1, 41208, Note_off_c, 1, 63, 0
1, 41220, Note_on_c, 1, 70, 127
1, 41220, Note_on_c, 1, 62, 127
1, 41265, Note_off_c, 1, 51, 0
1, 41268, Note_off_c, 1, 70, 0
1, 41268, Note_off_c, 1, 62, 0
1, 41280, Note_on_c, 1, 60, 127
1, 41280, Note_on_c, 1, 53, 127
1, 41328, Note_off_c, 1, 72, 0
1, 41340, Note_on_c, 1, 82, 127
1, 41388, Note_off_c, 1, 82, 0
1, 41400, Note_on_c, 1, 80, 127
1, 41448, Note_off_c, 1, 80, 0
1, 41460, Note_on_c, 1, 79, 127
1, 41472, Note_off_c, 1, 60, 0
1, 41508, Note_off_c, 1, 79, 0
1, 41520, Note_on_c, 1, 77, 127
1, 41568, Note_off_c, 1, 77, 0
1, 41580, Note_on_c, 1, 75, 127
1, 41628, Note_off_c, 1, 75, 0
1, 41640, Note_on_c, 1, 74, 127
1, 41664, Note_off_c, 1, 53, 0
1, 41688, Note_off_c, 1, 74, 0
1, 41700, Note_on_c, 1, 72, 127
1, 41700, Note_on_c, 1, 63, 127
1, 41748, Note_off_c, 1, 72, 0
1, 41748, Note_off_c, 1, 63, 0
1, 41760, Note_on_c, 1, 71, 127
1, 41760, Note_on_c, 1, 62, 127
1, 41760, Note_on_c, 1, 55, 127
1, 41808, Note_off_c, 1, 62, 0
1, 41820, Note_on_c, 1, 68, 127
1, 41820, Note_on_c, 1, 65, 127
1, 41868, Note_off_c, 1, 68, 0
1, 41868, Note_off_c, 1, 65, 0
1, 41880, Note_on_c, 1, 67, 127
1, 41880, Note_on_c, 1, 63, 127
1, 41928, Note_off_c, 1, 67, 0
1, 41928, Note_off_c, 1, 63, 0
1, 41952, Note_off_c, 1, 71, 0
1, 41952, Note_off_c, 1, 55, 0
1, 42000, Note_on_c, 1, 72, 127
1, 42000, Note_on_c, 1, 63, 127
1, 42000, Note_on_c, 1, 60, 127
1, 42000, Note_on_c, 1, 56, 127
1, 42048, Note_off_c, 1, 72, 0
1, 42060, Note_on_c, 1, 77, 127
1, 42108, Note_off_c, 1, 77, 0
1, 42120, Note_on_c, 1, 75, 127
1, 42168, Note_off_c, 1, 75, 0
1, 42180, Note_on_c, 1, 74, 127
1, 42192, Note_off_c, 1, 63, 0
1, 42192, Note_off_c, 1, 60, 0
1, 42228, Note_off_c, 1, 74, 0
1, 42300, Note_on_c, 1, 70, 127
1, 42300, Note_on_c, 1, 67, 127
1, 42348, Note_off_c, 1, 70, 0
1, 42348, Note_off_c, 1, 67, 0
1, 42360, Note_on_c, 1, 68, 127
1, 42360, Note_on_c, 1, 65, 127
1, 42384, Note_off_c, 1, 56, 0
1, 42408, Note_off_c, 1, 68, 0
1, 42408, Note_off_c, 1, 65, 0
1, 42420, Note_on_c, 1, 67, 127
1, 42420, Note_on_c, 1, 63, 127
1, 42468, Note_off_c, 1, 67, 0
1, 42468, Note_off_c, 1, 63, 0
1, 42480, Note_on_c, 1, 68, 127
1, 42480, Note_on_c, 1, 62, 127
1, 42480, Note_on_c, 1, 53, 127
1, 42528, Note_off_c, 1, 62, 0
1, 42540, Note_on_c, 1, 67, 127
1, 42540, Note_on_c, 1, 63, 127
1, 42588, Note_off_c, 1, 67, 0
1, 42588, Note_off_c, 1, 63, 0
1, 42600, Note_on_c, 1, 65, 127
1, 42648, Note_off_c, 1, 65, 0
1, 42660, Note_on_c, 1, 60, 127
1, 42672, Note_off_c, 1, 68, 0
1, 42672, Note_off_c, 1, 53, 0
1, 42708, Note_off_c, 1, 60, 0
1, 42720, Note_on_c, 1, 67, 127
1, 42720, Note_on_c, 1, 62, 127
1, 42720, Note_on_c, 1, 59, 127
1, 42720, Note_on_c, 1, 55, 127
1, 42768, Note_off_c, 1, 67, 0
1, 42780, Note_on_c, 1, 79, 127
1, 42828, Note_off_c, 1, 79, 0
1, 42840, Note_on_c, 1, 77, 127
1, 42888, Note_off_c, 1, 77, 0
1, 42900, Note_on_c, 1, 75, 127
1, 42912, Note_off_c, 1, 62, 0
1, 42912, Note_off_c, 1, 59, 0
1, 42948, Note_off_c, 1, 75, 0
1, 42960, Note_on_c, 1, 74, 127
1, 43008, Note_off_c, 1, 74, 0
1, 43020, Note_on_c, 1, 72, 127
1, 43068, Note_off_c, 1, 72, 0
1, 43080, Note_on_c, 1, 71, 127
1, 43104, Note_off_c, 1, 55, 0
1, 43128, Note_off_c, 1, 71, 0
1, 43140, Note_on_c, 1, 75, 127
1, 43140, Note_on_c, 1, 69, 127
1, 43188, Note_off_c, 1, 75, 0
1, 43188, Note_off_c, 1, 69, 0
1, 43200, Note_on_c, 1, 71, 127
1, 43200, Note_on_c, 1, 77, 127
1, 43200, Note_on_c, 1, 50, 127
1, 43260, Note_on_c, 1, 68, 127
1, 43308, Note_off_c, 1, 68, 0
1, 43320, Note_on_c, 1, 67, 127
1, 43368, Note_off_c, 1, 67, 0
1, 43380, Note_on_c, 1, 65, 127
1, 43392, Note_off_c, 1, 71, 0
1, 43392, Note_off_c, 1, 50, 0
1, 43428, Note_off_c, 1, 65, 0
1, 43440, Note_on_c, 1, 51, 127
1, 43488, Note_off_c, 1, 77, 0
1, 43500, Note_on_c, 1, 75, 127
1, 43548, Note_off_c, 1, 75, 0
1, 43560, Note_on_c, 1, 74, 127
1, 43608, Note_off_c, 1, 74, 0
1, 43620, Note_on_c, 1, 72, 127
1, 43668, Note_off_c, 1, 72, 0
1, 43740, Note_on_c, 1, 69, 127
1, 43788, Note_off_c, 1, 69, 0
1, 43824, Note_off_c, 1, 51, 0
1, 43860, Note_on_c, 1, 63, 127
1, 43860, Note_on_c, 1, 72, 127
1, 43908, Note_off_c, 1, 63, 0
1, 43908, Note_off_c, 1, 72, 0
1, 43920, Note_on_c, 1, 65, 127
1, 43920, Note_on_c, 1, 74, 127
1, 43920, Note_on_c, 1, 62, 127
1, 43920, Note_on_c, 1, 47, 127
1, 43968, Note_off_c, 1, 65, 0
1, 43968, Note_off_c, 1, 62, 0
1, 43980, Note_on_c, 1, 68, 127
1, 43980, Note_on_c, 1, 60, 127
1, 44028, Note_off_c, 1, 68, 0
1, 44028, Note_off_c, 1, 60, 0
1, 44040, Note_on_c, 1, 67, 127
1, 44040, Note_on_c, 1, 59, 127
1, 44088, Note_off_c, 1, 67, 0
1, 44088, Note_off_c, 1, 59, 0
1, 44100, Note_on_c, 1, 57, 127
1, 44112, Note_off_c, 1, 47, 0
1, 44148, Note_off_c, 1, 57, 0
1, 44160, Note_on_c, 1, 63, 127
1, 44160, Note_on_c, 1, 55, 127
1, 44160, Note_on_c, 1, 48, 127
1, 44208, Note_off_c, 1, 74, 0
1, 44220, Note_on_c, 1, 77, 127
1, 44268, Note_off_c, 1, 77, 0
1, 44280, Note_on_c, 1, 75, 127
1, 44328, Note_off_c, 1, 75, 0
1, 44352, Note_off_c, 1, 63, 0
1, 44352, Note_off_c, 1, 55, 0
1, 44400, Note_on_c, 1, 72, 127
1, 44460, Note_on_c, 1, 70, 127
1, 44508, Note_off_c, 1, 70, 0
1, 44544, Note_off_c, 1, 48, 0
1, 44544, Note_off_c, 1, 72, 0
1, 44580, Note_on_c, 1, 70, 127
1, 44580, Note_on_c, 1, 67, 127
1, 44628, Note_off_c, 1, 70, 0
1, 44628, Note_off_c, 1, 67, 0
1, 44640, Note_on_c, 1, 65, 127
1, 44640, Note_on_c, 1, 68, 127
1, 44640, Note_on_c, 1, 41, 127
1, 44700, Note_on_c, 1, 63, 127
1, 44748, Note_off_c, 1, 63, 0
1, 44760, Note_on_c, 1, 62, 127
1, 44784, Note_off_c, 1, 65, 0
1, 44808, Note_off_c, 1, 62, 0
1, 44820, Note_on_c, 1, 60, 127
1, 44832, Note_off_c, 1, 41, 0
1, 44868, Note_off_c, 1, 60, 0
1, 44880, Note_on_c, 1, 59, 127
1, 44880, Note_on_c, 1, 43, 127
1, 44928, Note_off_c, 1, 68, 0
1, 45000, Note_on_c, 1, 67, 127
1, 45048, Note_off_c, 1, 67, 0
1, 45072, Note_off_c, 1, 59, 0
1, 45420, Note_on_c, 1, 56, 127
1, 45456, Note_off_c, 1, 43, 0
1, 45468, Note_off_c, 1, 56, 0
1, 45480, Note_on_c, 1, 55, 127
1, 45528, Note_off_c, 1, 55, 0
1, 45540, Note_on_c, 1, 53, 127
1, 45588, Note_off_c, 1, 53, 0
1, 45600, Note_on_c, 1, 60, 127
1, 45600, Note_on_c, 1, 51, 127
1, 45600, Note_on_c, 1, 36, 127
1, 45648, Note_off_c, 1, 51, 0
1, 45660, Note_on_c, 1, 48, 127
1, 45708, Note_off_c, 1, 48, 0
1, 45720, Note_on_c, 1, 46, 127
1, 45768, Note_off_c, 1, 46, 0
1, 45780, Note_on_c, 1, 44, 127
1, 45792, Note_off_c, 1, 60, 0
1, 45828, Note_off_c, 1, 44, 0
1, 45840, Note_on_c, 1, 43, 127
1, 45888, Note_off_c, 1, 43, 0
1, 45900, Note_on_c, 1, 41, 127
1, 45948, Note_off_c, 1, 41, 0
1, 45960, Note_on_c, 1, 39, 127
1, 45984, Note_off_c, 1, 36, 0
1, 46008, Note_off_c, 1, 39, 0
1, 46020, Note_on_c, 1, 38, 127
1, 46068, Note_off_c, 1, 38, 0
1, 46080, Note_on_c, 1, 36, 127
1, 46080, Note_on_c, 1, 48, 127
1, 46128, Note_off_c, 1, 36, 0
1, 46140, Note_on_c, 1, 63, 127
1, 46188, Note_off_c, 1, 63, 0
1, 46200, Note_on_c, 1, 62, 127
1, 46248, Note_off_c, 1, 62, 0
1, 46260, Note_on_c, 1, 60, 127
1, 46272, Note_off_c, 1, 48, 0
1, 46308, Note_off_c, 1, 60, 0
1, 46320, Note_on_c, 1, 59, 127
1, 46320, Note_on_c, 1, 55, 127
1, 46380, Note_on_c, 1, 62, 127
1, 46428, Note_off_c, 1, 62, 0
1, 46440, Note_on_c, 1, 63, 127
1, 46488, Note_off_c, 1, 63, 0
1, 46500, Note_on_c, 1, 65, 127
1, 46548, Note_off_c, 1, 65, 0
1, 46560, Note_on_c, 1, 67, 127
1, 46608, Note_off_c, 1, 59, 0
1, 46608, Note_off_c, 1, 67, 0
1, 46620, Note_on_c, 1, 74, 127
1, 46620, Note_on_c, 1, 71, 127
1, 46620, Note_on_c, 1, 60, 127
1, 46668, Note_off_c, 1, 74, 0
1, 46668, Note_off_c, 1, 71, 0
1, 46668, Note_off_c, 1, 60, 0
1, 46680, Note_on_c, 1, 75, 127
1, 46680, Note_on_c, 1, 72, 127
1, 46704, Note_off_c, 1, 55, 0
1, 46728, Note_off_c, 1, 75, 0
1, 46728, Note_off_c, 1, 72, 0
1, 46740, Note_on_c, 1, 77, 127
1, 46740, Note_on_c, 1, 74, 127
1, 46740, Note_on_c, 1, 57, 127
1, 46788, Note_off_c, 1, 77, 0
1, 46788, Note_off_c, 1, 74, 0
1, 46788, Note_off_c, 1, 57, 0
1, 46800, Note_on_c, 1, 79, 127
1, 46800, Note_on_c, 1, 75, 127
1, 46800, Note_on_c, 1, 55, 127
1, 46800, Note_on_c, 1, 51, 127
1, 46848, Note_off_c, 1, 79, 0
1, 46848, Note_off_c, 1, 75, 0
1, 46848, Note_off_c, 1, 55, 0
1, 46860, Note_on_c, 1, 77, 127
1, 46860, Note_on_c, 1, 74, 127
1, 46908, Note_off_c, 1, 77, 0
1, 46908, Note_off_c, 1, 74, 0
1, 46920, Note_on_c, 1, 72, 127
1, 46920, Note_on_c, 1, 53, 127
1, 46968, Note_off_c, 1, 72, 0
1, 46968, Note_off_c, 1, 53, 0
1, 46980, Note_on_c, 1, 70, 127
1, 47025, Note_off_c, 1, 51, 0
1, 47028, Note_off_c, 1, 70, 0
1, 47040, Note_on_c, 1, 72, 127
1, 47040, Note_on_c, 1, 68, 127
1, 47040, Note_on_c, 1, 56, 127
1, 47040, Note_on_c, 1, 53, 127
1, 47088, Note_off_c, 1, 72, 0
1, 47088, Note_off_c, 1, 68, 0
1, 47100, Note_on_c, 1, 73, 127
1, 47100, Note_on_c, 1, 60, 127
1, 47148, Note_off_c, 1, 73, 0
1, 47148, Note_off_c, 1, 60, 0
1, 47160, Note_on_c, 1, 62, 127
1, 47184, Note_off_c, 1, 56, 0
1, 47208, Note_off_c, 1, 62, 0
1, 47220, Note_on_c, 1, 64, 127
1, 47220, Note_on_c, 1, 70, 127
1, 47220, Note_on_c, 1, 58, 127
1, 47268, Note_off_c, 1, 64, 0
1, 47268, Note_off_c, 1, 70, 0
1, 47268, Note_off_c, 1, 58, 0
1, 47280, Note_on_c, 1, 65, 127
1, 47328, Note_off_c, 1, 65, 0
1, 47340, Note_on_c, 1, 77, 127
1, 47340, Note_on_c, 1, 67, 127
1, 47388, Note_off_c, 1, 77, 0
1, 47388, Note_off_c, 1, 67, 0
1, 47400, Note_on_c, 1, 79, 127
1, 47424, Note_off_c, 1, 53, 0
1, 47448, Note_off_c, 1, 79, 0
1, 47460, Note_on_c, 1, 63, 127
1, 47460, Note_on_c, 1, 80, 127
1, 47508, Note_off_c, 1, 63, 0
1, 47508, Note_off_c, 1, 80, 0
1, 47520, Note_on_c, 1, 62, 127
1, 47520, Note_on_c, 1, 71, 127
1, 47520, Note_on_c, 1, 55, 127
1, 47568, Note_off_c, 1, 62, 0
1, 47580, Note_on_c, 1, 68, 127
1, 47628, Note_off_c, 1, 68, 0
1, 47640, Note_on_c, 1, 67, 127
1, 47640, Note_on_c, 1, 57, 127
1, 47688, Note_off_c, 1, 67, 0
1, 47688, Note_off_c, 1, 57, 0
1, 47700, Note_on_c, 1, 65, 127
1, 47700, Note_on_c, 1, 59, 127
1, 47712, Note_off_c, 1, 71, 0
1, 47712, Note_off_c, 1, 55, 0
1, 47748, Note_off_c, 1, 65, 0
1, 47748, Note_off_c, 1, 59, 0
1, 47760, Note_on_c, 1, 63, 127
1, 47760, Note_on_c, 1, 60, 127
1, 47760, Note_on_c, 1, 56, 127
1, 47808, Note_off_c, 1, 63, 0
1, 47808, Note_off_c, 1, 60, 0
1, 47820, Note_on_c, 1, 65, 127
1, 47820, Note_on_c, 1, 72, 127
1, 47820, Note_on_c, 1, 61, 127
1, 47868, Note_off_c, 1, 65, 0
1, 47868, Note_off_c, 1, 72, 0
1, 47868, Note_off_c, 1, 61, 0
1, 47880, Note_on_c, 1, 74, 127
1, 47928, Note_off_c, 1, 74, 0
1, 47940, Note_on_c, 1, 62, 127
1, 47940, Note_on_c, 1, 75, 127
1, 47940, Note_on_c, 1, 58, 127
1, 47988, Note_off_c, 1, 62, 0
1, 47988, Note_off_c, 1, 75, 0
1, 47988, Note_off_c, 1, 58, 0
1, 48000, Note_on_c, 1, 77, 127
1, 48048, Note_off_c, 1, 77, 0
1, 48060, Note_on_c, 1, 79, 127
1, 48108, Note_off_c, 1, 79, 0
1, 48144, Note_off_c, 1, 56, 0
1, 48180, Note_on_c, 1, 75, 127
1, 48180, Note_on_c, 1, 63, 127
1, 48228, Note_off_c, 1, 75, 0
1, 48228, Note_off_c, 1, 63, 0
1, 48240, Note_on_c, 1, 74, 127
1, 48240, Note_on_c, 1, 65, 127
1, 48240, Note_on_c, 1, 53, 127
1, 48288, Note_off_c, 1, 74, 0
1, 48288, Note_off_c, 1, 65, 0
1, 48300, Note_on_c, 1, 81, 127
1, 48300, Note_on_c, 1, 67, 127
1, 48348, Note_off_c, 1, 81, 0
1, 48348, Note_off_c, 1, 67, 0
1, 48360, Note_on_c, 1, 83, 127
1, 48408, Note_off_c, 1, 83, 0
1, 48420, Note_on_c, 1, 84, 127
1, 48420, Note_on_c, 1, 63, 127
1, 48432, Note_off_c, 1, 53, 0
1, 48468, Note_off_c, 1, 84, 0
1, 48468, Note_off_c, 1, 63, 0
1, 48480, Note_on_c, 1, 83, 127
1, 48480, Note_on_c, 1, 62, 127
1, 48480, Note_on_c, 1, 55, 127
1, 48528, Note_off_c, 1, 83, 0
1, 48540, Note_on_c, 1, 84, 127
1, 48540, Note_on_c, 1, 66, 127
1, 48588, Note_off_c, 1, 84, 0
1, 48588, Note_off_c, 1, 66, 0
1, 48600, Note_on_c, 1, 67, 127
1, 48648, Note_off_c, 1, 67, 0
1, 48660, Note_on_c, 1, 81, 127
1, 48660, Note_on_c, 1, 69, 127
1, 48708, Note_off_c, 1, 81, 0
1, 48708, Note_off_c, 1, 69, 0
1, 48720, Note_on_c, 1, 71, 127
1, 48720, Note_on_c, 1, 79, 127
1, 48768, Note_off_c, 1, 62, 0
1, 48768, Note_off_c, 1, 71, 0
1, 48780, Note_on_c, 1, 63, 127
1, 48816, Note_off_c, 1, 79, 0
1, 48828, Note_off_c, 1, 63, 0
1, 48840, Note_on_c, 1, 77, 127
1, 48864, Note_off_c, 1, 55, 0
1, 48888, Note_off_c, 1, 77, 0
1, 48900, Note_on_c, 1, 72, 127
1, 48900, Note_on_c, 1, 75, 127
1, 48900, Note_on_c, 1, 60, 127
1, 48948, Note_off_c, 1, 72, 0
1, 48948, Note_off_c, 1, 75, 0
1, 48948, Note_off_c, 1, 60, 0
1, 48960, Note_on_c, 1, 77, 127
1, 48960, Note_on_c, 1, 74, 127
1, 48960, Note_on_c, 1, 59, 127
1, 48960, Note_on_c, 1, 50, 127
1, 49008, Note_off_c, 1, 59, 0
1, 49020, Note_on_c, 1, 60, 127
1, 49068, Note_off_c, 1, 60, 0
1, 49140, Note_on_c, 1, 57, 127
1, 49152, Note_off_c, 1, 50, 0
1, 49188, Note_off_c, 1, 57, 0
1, 49200, Note_on_c, 1, 55, 127
1, 49200, Note_on_c, 1, 51, 127
1, 49248, Note_off_c, 1, 77, 0
1, 49248, Note_off_c, 1, 74, 0
1, 49260, Note_on_c, 1, 67, 127
1, 49260, Note_on_c, 1, 80, 127
1, 49308, Note_off_c, 1, 67, 0
1, 49308, Note_off_c, 1, 80, 0
1, 49320, Note_on_c, 1, 69, 127
1, 49320, Note_on_c, 1, 79, 127
1, 49368, Note_off_c, 1, 69, 0
1, 49368, Note_off_c, 1, 79, 0
1, 49380, Note_on_c, 1, 71, 127
1, 49392, Note_off_c, 1, 55, 0
1, 49428, Note_off_c, 1, 71, 0
1, 49440, Note_on_c, 1, 75, 127
1, 49440, Note_on_c, 1, 72, 127
1, 49488, Note_off_c, 1, 75, 0
1, 49560, Note_on_c, 1, 62, 127
1, 49584, Note_off_c, 1, 51, 0
1, 49608, Note_off_c, 1, 62, 0
1, 49620, Note_on_c, 1, 63, 127
1, 49632, Note_off_c, 1, 72, 0
1, 49668, Note_off_c, 1, 63, 0
1, 49680, Note_on_c, 1, 74, 127
1, 49680, Note_on_c, 1, 65, 127
1, 49680, Note_on_c, 1, 47, 127
1, 49728, Note_off_c, 1, 65, 0
1, 49740, Note_on_c, 1, 68, 127
1, 49788, Note_off_c, 1, 68, 0
1, 49800, Note_on_c, 1, 67, 127
1, 49848, Note_off_c, 1, 67, 0
1, 49872, Note_off_c, 1, 47, 0
1, 49920, Note_on_c, 1, 63, 127
1, 49920, Note_on_c, 1, 48, 127
1, 49968, Note_off_c, 1, 74, 0
1, 49980, Note_on_c, 1, 59, 127
1, 49980, Note_on_c, 1, 77, 127
1, 50028, Note_off_c, 1, 59, 0
1, 50028, Note_off_c, 1, 77, 0
1, 50040, Note_on_c, 1, 75, 127
1, 50040, Note_on_c, 1, 60, 127
1, 50088, Note_off_c, 1, 75, 0
1, 50088, Note_off_c, 1, 60, 0
1, 50100, Note_on_c, 1, 62, 127
1, 50112, Note_off_c, 1, 63, 0
1, 50148, Note_off_c, 1, 62, 0
1, 50160, Note_on_c, 1, 72, 127
1, 50208, Note_off_c, 1, 72, 0
1, 50220, Note_on_c, 1, 51, 127
1, 50268, Note_off_c, 1, 51, 0
1, 50280, Note_on_c, 1, 53, 127
1, 50304, Note_off_c, 1, 48, 0
1, 50328, Note_off_c, 1, 53, 0
1, 50340, Note_on_c, 1, 72, 127
1, 50340, Note_on_c, 1, 63, 127
1, 50340, Note_on_c, 1, 55, 127
1, 50388, Note_off_c, 1, 72, 0
1, 50388, Note_off_c, 1, 63, 0
1, 50388, Note_off_c, 1, 55, 0
1, 50400, Note_on_c, 1, 73, 127
1, 50400, Note_on_c, 1, 65, 127
1, 50400, Note_on_c, 1, 56, 127
1, 50400, Note_on_c, 1, 41, 127
1, 50448, Note_off_c, 1, 73, 0
1, 50460, Note_on_c, 1, 75, 127
1, 50508, Note_off_c, 1, 75, 0
1, 50580, Note_on_c, 1, 72, 127
1, 50592, Note_off_c, 1, 56, 0
1, 50592, Note_off_c, 1, 41, 0
1, 50628, Note_off_c, 1, 72, 0
1, 50640, Note_on_c, 1, 71, 127
1, 50640, Note_on_c, 1, 55, 127
1, 50640, Note_on_c, 1, 43, 127
1, 50688, Note_off_c, 1, 65, 0
1, 50688, Note_off_c, 1, 71, 0
1, 50700, Note_on_c, 1, 68, 127
1, 50736, Note_off_c, 1, 55, 0
1, 50748, Note_off_c, 1, 68, 0
1, 50760, Note_on_c, 1, 67, 127
1, 50760, Note_on_c, 1, 74, 127
1, 50760, Note_on_c, 1, 57, 127
1, 50808, Note_off_c, 1, 67, 0
1, 50808, Note_off_c, 1, 57, 0
1, 50820, Note_on_c, 1, 59, 127
1, 50868, Note_off_c, 1, 59, 0
1, 50880, Note_on_c, 1, 63, 127
1, 50880, Note_on_c, 1, 60, 127
1, 50928, Note_off_c, 1, 74, 0
1, 50928, Note_off_c, 1, 63, 0
1, 50928, Note_off_c, 1, 60, 0
1, 50940, Note_on_c, 1, 48, 127
1, 50988, Note_off_c, 1, 48, 0
1, 51000, Note_on_c, 1, 50, 127
1, 51048, Note_off_c, 1, 50, 0
1, 51060, Note_on_c, 1, 51, 127
1, 51108, Note_off_c, 1, 51, 0
1, 51120, Note_on_c, 1, 62, 127
1, 51120, Note_on_c, 1, 53, 127
1, 51168, Note_off_c, 1, 53, 0
1, 51216, Note_off_c, 1, 43, 0
1, 51312, Note_off_c, 1, 62, 0
1, 51360, Note_on_c, 1, 60, 127
1, 51360, Note_on_c, 1, 72, 127
1, 51360, Note_on_c, 1, 51, 127
1, 51360, Note_on_c, 1, 36, 127
1, 51408, Note_off_c, 1, 60, 0
1, 51456, Note_off_c, 1, 51, 0
1, 51480, Note_on_c, 1, 63, 127
1, 51480, Note_on_c, 1, 48, 127
1, 51528, Note_off_c, 1, 63, 0
1, 51552, Note_off_c, 1, 72, 0
1, 51552, Note_off_c, 1, 36, 0
1, 51576, Note_off_c, 1, 48, 0
1, 51600, Note_on_c, 1, 67, 127
1, 51660, Note_on_c, 1, 55, 127
1, 51708, Note_off_c, 1, 55, 0
1, 51720, Note_on_c, 1, 59, 127
1, 51744, Note_off_c, 1, 67, 0
1, 51768, Note_off_c, 1, 59, 0
1, 51780, Note_on_c, 1, 65, 127
1, 51780, Note_on_c, 1, 55, 127
1, 51828, Note_off_c, 1, 65, 0
1, 51828, Note_off_c, 1, 55, 0
1, 51840, Note_on_c, 1, 63, 127
1, 51840, Note_on_c, 1, 60, 127
1, 51840, Note_on_c, 1, 65, 127
1, 51840, Note_on_c, 1, 62, 127
1, 51852, Note_off_c, 1, 65, 0
1, 51852, Note_off_c, 1, 62, 0
1, 51900, Note_on_c, 1, 48, 127
1, 51948, Note_off_c, 1, 48, 0
1, 51960, Note_on_c, 1, 51, 127
1, 52008, Note_off_c, 1, 51, 0
1, 52056, Note_off_c, 1, 63, 0
1, 52056, Note_off_c, 1, 60, 0
1, 52080, Note_on_c, 1, 62, 127
1, 52080, Note_on_c, 1, 59, 127
1, 52080, Note_on_c, 1, 55, 127
1, 52140, Note_on_c, 1, 67, 127
1, 52188, Note_off_c, 1, 67, 0
1, 52200, Note_on_c, 1, 71, 127
1, 52248, Note_off_c, 1, 71, 0
1, 52272, Note_off_c, 1, 62, 0
1, 52272, Note_off_c, 1, 59, 0
1, 52272, Note_off_c, 1, 55, 0
1, 52320, Note_on_c, 1, 74, 127
1, 52380, Note_on_c, 1, 55, 127
1, 52428, Note_off_c, 1, 55, 0
1, 52440, Note_on_c, 1, 67, 127
1, 52440, Note_on_c, 1, 59, 127
1, 52488, Note_off_c, 1, 59, 0
1, 52512, Note_off_c, 1, 74, 0
1, 52560, Note_on_c, 1, 75, 127
1, 52560, Note_on_c, 1, 60, 127
1, 52620, Note_on_c, 1, 51, 127
1, 52668, Note_off_c, 1, 51, 0
1, 52728, Note_off_c, 1, 67, 0
1, 52752, Note_off_c, 1, 60, 0
1, 52800, Note_on_c, 1, 68, 127
1, 52800, Note_on_c, 1, 53, 127
1, 52920, Note_on_c, 1, 63, 127
1, 52968, Note_off_c, 1, 63, 0
1, 52992, Note_off_c, 1, 75, 0
1, 52992, Note_off_c, 1, 68, 0
1, 52992, Note_off_c, 1, 53, 0
1, 53040, Note_on_c, 1, 65, 127
1, 53100, Note_on_c, 1, 73, 127
1, 53148, Note_off_c, 1, 73, 0
1, 53160, Note_on_c, 1, 77, 127
1, 53208, Note_off_c, 1, 77, 0
1, 53280, Note_on_c, 1, 70, 127
1, 53340, Note_on_c, 1, 55, 127
1, 53388, Note_off_c, 1, 55, 0
1, 53400, Note_on_c, 1, 58, 127
1, 53424, Note_off_c, 1, 65, 0
1, 53448, Note_off_c, 1, 58, 0
1, 53472, Note_off_c, 1, 70, 0
1, 53520, Note_on_c, 1, 56, 127
1, 53580, Note_on_c, 1, 63, 127
1, 53628, Note_off_c, 1, 63, 0
1, 53640, Note_on_c, 1, 67, 127
1, 53688, Note_off_c, 1, 67, 0
1, 53712, Note_off_c, 1, 56, 0
1, 53760, Note_on_c, 1, 72, 127
1, 53760, Note_on_c, 1, 68, 127
1, 53820, Note_on_c, 1, 60, 127
1, 53868, Note_off_c, 1, 60, 0
1, 53880, Note_on_c, 1, 63, 127
1, 53928, Note_off_c, 1, 63, 0
1, 53952, Note_off_c, 1, 72, 0
1, 54000, Note_on_c, 1, 74, 127
1, 54000, Note_on_c, 1, 65, 127
1, 54060, Note_on_c, 1, 53, 127
1, 54108, Note_off_c, 1, 53, 0
1, 54120, Note_on_c, 1, 56, 127
1, 54144, Note_off_c, 1, 68, 0
1, 54168, Note_off_c, 1, 56, 0
1, 54192, Note_off_c, 1, 74, 0
1, 54192, Note_off_c, 1, 65, 0
1, 54240, Note_on_c, 1, 71, 127
1, 54240, Note_on_c, 1, 67, 127
1, 54240, Note_on_c, 1, 62, 127
1, 54240, Note_on_c, 1, 55, 127
1, 54288, Note_off_c, 1, 62, 0
1, 54360, Note_on_c, 1, 59, 127
1, 54408, Note_off_c, 1, 59, 0
1, 54432, Note_off_c, 1, 71, 0
1, 54432, Note_off_c, 1, 67, 0
1, 54468, Note_off_c, 1, 55, 0
1, 54480, Note_on_c, 1, 62, 127
1, 54528, Note_off_c, 1, 62, 0
1, 54540, Note_on_c, 1, 67, 127
1, 54540, Note_on_c, 1, 59, 127
1, 54588, Note_off_c, 1, 67, 0
1, 54588, Note_off_c, 1, 59, 0
1, 54600, Note_on_c, 1, 71, 127
1, 54600, Note_on_c, 1, 62, 127
1, 54648, Note_off_c, 1, 71, 0
1, 54648, Note_off_c, 1, 62, 0
1, 54660, Note_on_c, 1, 67, 127
1, 54660, Note_on_c, 1, 59, 127
1, 54708, Note_off_c, 1, 67, 0
1, 54708, Note_off_c, 1, 59, 0
1, 54720, Note_on_c, 1, 74, 127
1, 54720, Note_on_c, 1, 65, 127
1, 54768, Note_off_c, 1, 74, 0
1, 54780, Note_on_c, 1, 71, 127
1, 54780, Note_on_c, 1, 50, 127
1, 54828, Note_off_c, 1, 71, 0
1, 54828, Note_off_c, 1, 50, 0
1, 54840, Note_on_c, 1, 53, 127
1, 54888, Note_off_c, 1, 53, 0
1, 54912, Note_off_c, 1, 65, 0
1, 54960, Note_on_c, 1, 72, 127
1, 54960, Note_on_c, 1, 67, 127
1, 54960, Note_on_c, 1, 51, 127
1, 55008, Note_off_c, 1, 67, 0
1, 55020, Note_on_c, 1, 55, 127
1, 55068, Note_off_c, 1, 55, 0
1, 55080, Note_on_c, 1, 59, 127
1, 55128, Note_off_c, 1, 59, 0
1, 55152, Note_off_c, 1, 72, 0
1, 55152, Note_off_c, 1, 51, 0
1, 55200, Note_on_c, 1, 60, 127
1, 55260, Note_on_c, 1, 63, 127
1, 55260, Note_on_c, 1, 72, 127
1, 55308, Note_off_c, 1, 63, 0
1, 55308, Note_off_c, 1, 72, 0
1, 55320, Note_on_c, 1, 67, 127
1, 55320, Note_on_c, 1, 75, 127
1, 55368, Note_off_c, 1, 67, 0
1, 55368, Note_off_c, 1, 75, 0
1, 55392, Note_off_c, 1, 60, 0
1, 55440, Note_on_c, 1, 77, 127
1, 55440, Note_on_c, 1, 68, 127
1, 55488, Note_off_c, 1, 77, 0
1, 55500, Note_on_c, 1, 74, 127
1, 55500, Note_on_c, 1, 47, 127
1, 55548, Note_off_c, 1, 74, 0
1, 55548, Note_off_c, 1, 47, 0
1, 55560, Note_on_c, 1, 50, 127
1, 55608, Note_off_c, 1, 50, 0
1, 55632, Note_off_c, 1, 68, 0
1, 55680, Note_on_c, 1, 75, 127
1, 55680, Note_on_c, 1, 67, 127
1, 55680, Note_on_c, 1, 48, 127
1, 55740, Note_on_c, 1, 55, 127
1, 55788, Note_off_c, 1, 55, 0
1, 55800, Note_on_c, 1, 59, 127
1, 55848, Note_off_c, 1, 59, 0
1, 55872, Note_off_c, 1, 75, 0
1, 55872, Note_off_c, 1, 67, 0
1, 55872, Note_off_c, 1, 48, 0
1, 55920, Note_on_c, 1, 60, 127
1, 55980, Note_on_c, 1, 72, 127
1, 55980, Note_on_c, 1, 63, 127
1, 56028, Note_off_c, 1, 72, 0
1, 56028, Note_off_c, 1, 63, 0
1, 56040, Note_on_c, 1, 75, 127
1, 56040, Note_on_c, 1, 67, 127
1, 56088, Note_off_c, 1, 75, 0
1, 56088, Note_off_c, 1, 67, 0
1, 56112, Note_off_c, 1, 60, 0
1, 56160, Note_on_c, 1, 77, 127
1, 56160, Note_on_c, 1, 68, 127
1, 56208, Note_off_c, 1, 77, 0
1, 56220, Note_on_c, 1, 74, 127
1, 56220, Note_on_c, 1, 41, 127
1, 56268, Note_off_c, 1, 74, 0
1, 56268, Note_off_c, 1, 41, 0
1, 56280, Note_on_c, 1, 44, 127
1, 56328, Note_off_c, 1, 44, 0
1, 56352, Note_off_c, 1, 68, 0
1, 56400, Note_on_c, 1, 75, 127
1, 56400, Note_on_c, 1, 67, 127
1, 56400, Note_on_c, 1, 43, 127
1, 56460, Note_on_c, 1, 55, 127
1, 56508, Note_off_c, 1, 55, 0
1, 56520, Note_on_c, 1, 59, 127
1, 56568, Note_off_c, 1, 59, 0
1, 56592, Note_off_c, 1, 75, 0
1, 56592, Note_off_c, 1, 67, 0
1, 56592, Note_off_c, 1, 43, 0
1, 56640, Note_on_c, 1, 60, 127
1, 56700, Note_on_c, 1, 72, 127
1, 56700, Note_on_c, 1, 63, 127
1, 56748, Note_off_c, 1, 72, 0
1, 56748, Note_off_c, 1, 63, 0
1, 56760, Note_on_c, 1, 75, 127
1, 56760, Note_on_c, 1, 67, 127
1, 56808, Note_off_c, 1, 75, 0
1, 56808, Note_off_c, 1, 67, 0
1, 56832, Note_off_c, 1, 60, 0
1, 56880, Note_on_c, 1, 77, 127
1, 56880, Note_on_c, 1, 62, 127
1, 56880, Note_on_c, 1, 60, 127
1, 56928, Note_off_c, 1, 77, 0
1, 56940, Note_on_c, 1, 74, 127
1, 56940, Note_on_c, 1, 43, 127
1, 56988, Note_off_c, 1, 74, 0
1, 56988, Note_off_c, 1, 43, 0
1, 57000, Note_on_c, 1, 41, 127
1, 57024, Note_off_c, 1, 60, 0
1, 57048, Note_off_c, 1, 41, 0
1, 57060, Note_on_c, 1, 59, 127
1, 57072, Note_off_c, 1, 62, 0
1, 57108, Note_off_c, 1, 59, 0
1, 57120, Note_on_c, 1, 75, 127
1, 57120, Note_on_c, 1, 60, 127
1, 57120, Note_on_c, 1, 36, 127
1, 57168, Note_off_c, 1, 75, 0
1, 57180, Note_on_c, 1, 84, 127
1, 57228, Note_off_c, 1, 84, 0
1, 57240, Note_on_c, 1, 82, 127
1, 57288, Note_off_c, 1, 82, 0
1, 57300, Note_on_c, 1, 80, 127
1, 57312, Note_off_c, 1, 60, 0
1, 57312, Note_off_c, 1, 36, 0
1, 57348, Note_off_c, 1, 80, 0
1, 57360, Note_on_c, 1, 79, 127
1, 57408, Note_off_c, 1, 79, 0
1, 57420, Note_on_c, 1, 77, 127
1, 57468, Note_off_c, 1, 77, 0
1, 57480, Note_on_c, 1, 75, 127
1, 57528, Note_off_c, 1, 75, 0
1, 57540, Note_on_c, 1, 74, 127
1, 57588, Note_off_c, 1, 74, 0
1, 57600, Note_on_c, 1, 72, 127
1, 57600, Note_on_c, 1, 67, 127
1, 57600, Note_on_c, 1, 63, 127
1, 57600, Note_on_c, 1, 48, 127
1, 57648, Note_off_c, 1, 72, 0
1, 57660, Note_on_c, 1, 75, 127
1, 57708, Note_off_c, 1, 75, 0
1, 57720, Note_on_c, 1, 74, 127
1, 57768, Note_off_c, 1, 74, 0
1, 57792, Note_off_c, 1, 67, 0
1, 57792, Note_off_c, 1, 63, 0
1, 57792, Note_off_c, 1, 48, 0
1, 57840, Note_on_c, 1, 71, 127
1, 57840, Note_on_c, 1, 67, 127
1, 57840, Note_on_c, 1, 62, 127
1, 57840, Note_on_c, 1, 55, 127
1, 57888, Note_off_c, 1, 71, 0
1, 57900, Note_on_c, 1, 72, 127
1, 57948, Note_off_c, 1, 72, 0
1, 58020, Note_on_c, 1, 69, 127
1, 58032, Note_off_c, 1, 67, 0
1, 58032, Note_off_c, 1, 62, 0
1, 58032, Note_off_c, 1, 55, 0
1, 58068, Note_off_c, 1, 69, 0
1, 58080, Note_on_c, 1, 67, 127
1, 58128, Note_off_c, 1, 67, 0
1, 58140, Note_on_c, 1, 65, 127
1, 58188, Note_off_c, 1, 65, 0
1, 58200, Note_on_c, 1, 63, 127
1, 58248, Note_off_c, 1, 63, 0
1, 58260, Note_on_c, 1, 62, 127
1, 58308, Note_off_c, 1, 62, 0
1, 58320, Note_on_c, 1, 60, 127
1, 58320, Note_on_c, 1, 67, 127
1, 58320, Note_on_c, 1, 51, 127
1, 58380, Note_on_c, 1, 82, 127
1, 58428, Note_off_c, 1, 82, 0
1, 58440, Note_on_c, 1, 80, 127
1, 58488, Note_off_c, 1, 80, 0
1, 58500, Note_on_c, 1, 79, 127
1, 58512, Note_off_c, 1, 60, 0
1, 58512, Note_off_c, 1, 67, 0
1, 58512, Note_off_c, 1, 51, 0
1, 58548, Note_off_c, 1, 79, 0
1, 58560, Note_on_c, 1, 80, 127
1, 58560, Note_on_c, 1, 65, 127
1, 58560, Note_on_c, 1, 60, 127
1, 58560, Note_on_c, 1, 53, 127
1, 58608, Note_off_c, 1, 80, 0
1, 58620, Note_on_c, 1, 82, 127
1, 58668, Note_off_c, 1, 82, 0
1, 58740, Note_on_c, 1, 79, 127
1, 58752, Note_off_c, 1, 65, 0
1, 58752, Note_off_c, 1, 60, 0
1, 58752, Note_off_c, 1, 53, 0
1, 58788, Note_off_c, 1, 79, 0
1, 58800, Note_on_c, 1, 77, 127
1, 58848, Note_off_c, 1, 77, 0
1, 58860, Note_on_c, 1, 75, 127
1, 58908, Note_off_c, 1, 75, 0
1, 58920, Note_on_c, 1, 74, 127
1, 58968, Note_off_c, 1, 74, 0
1, 58980, Note_on_c, 1, 72, 127
1, 59028, Note_off_c, 1, 72, 0
1, 59040, Note_on_c, 1, 71, 127
1, 59040, Note_on_c, 1, 65, 127
1, 59040, Note_on_c, 1, 67, 127
1, 59040, Note_on_c, 1, 55, 127
1, 59088, Note_off_c, 1, 71, 0
1, 59100, Note_on_c, 1, 74, 127
1, 59148, Note_off_c, 1, 74, 0
1, 59160, Note_on_c, 1, 72, 127
1, 59208, Note_off_c, 1, 72, 0
1, 59232, Note_off_c, 1, 65, 0
1, 59232, Note_off_c, 1, 67, 0
1, 59232, Note_off_c, 1, 55, 0
1, 59280, Note_on_c, 1, 72, 127
1, 59280, Note_on_c, 1, 63, 127
1, 59280, Note_on_c, 1, 60, 127
1, 59280, Note_on_c, 1, 56, 127
1, 59328, Note_off_c, 1, 72, 0
1, 59340, Note_on_c, 1, 74, 127
1, 59388, Note_off_c, 1, 74, 0
1, 59460, Note_on_c, 1, 70, 127
1, 59472, Note_off_c, 1, 63, 0
1, 59472, Note_off_c, 1, 60, 0
1, 59472, Note_off_c, 1, 56, 0
1, 59508, Note_off_c, 1, 70, 0
1, 59520, Note_on_c, 1, 68, 127
1, 59568, Note_off_c, 1, 68, 0
1, 59580, Note_on_c, 1, 67, 127
1, 59628, Note_off_c, 1, 67, 0
1, 59640, Note_on_c, 1, 65, 127
1, 59688, Note_off_c, 1, 65, 0
1, 59700, Note_on_c, 1, 63, 127
1, 59748, Note_off_c, 1, 63, 0
1, 59760, Note_on_c, 1, 62, 127
1, 59760, Note_on_c, 1, 65, 127
1, 59760, Note_on_c, 1, 56, 127
1, 59760, Note_on_c, 1, 53, 127
1, 59808, Note_off_c, 1, 62, 0
1, 59820, Note_on_c, 1, 63, 127
1, 59868, Note_off_c, 1, 63, 0
1, 59940, Note_on_c, 1, 60, 127
1, 59952, Note_off_c, 1, 65, 0
1, 59952, Note_off_c, 1, 56, 0
1, 59952, Note_off_c, 1, 53, 0
1, 59988, Note_off_c, 1, 60, 0
1, 60000, Note_on_c, 1, 59, 127
1, 60000, Note_on_c, 1, 62, 127
1, 60000, Note_on_c, 1, 55, 127
1, 60048, Note_off_c, 1, 59, 0
1, 60060, Note_on_c, 1, 60, 127
1, 60108, Note_off_c, 1, 60, 0
1, 60180, Note_on_c, 1, 57, 127
1, 60192, Note_off_c, 1, 62, 0
1, 60192, Note_off_c, 1, 55, 0
1, 60228, Note_off_c, 1, 57, 0
1, 60240, Note_on_c, 1, 55, 127
1, 60288, Note_off_c, 1, 55, 0
1, 60300, Note_on_c, 1, 57, 127
1, 60348, Note_off_c, 1, 57, 0
1, 60360, Note_on_c, 1, 59, 127
1, 60408, Note_off_c, 1, 59, 0
1, 60420, Note_on_c, 1, 60, 127
1, 60468, Note_off_c, 1, 60, 0
1, 60480, Note_on_c, 1, 59, 127
1, 60480, Note_on_c, 1, 53, 127
1, 60480, Note_on_c, 1, 50, 127
1, 60528, Note_off_c, 1, 59, 0
1, 60540, Note_on_c, 1, 62, 127
1, 60600, Note_on_c, 1, 60, 127
1, 60648, Note_off_c, 1, 60, 0
1, 60672, Note_off_c, 1, 53, 0
1, 60672, Note_off_c, 1, 50, 0
1, 60672, Note_off_c, 1, 62, 0
1, 60720, Note_on_c, 1, 60, 127
1, 60720, Note_on_c, 1, 55, 127
1, 60720, Note_on_c, 1, 51, 127
1, 60780, Note_on_c, 1, 62, 127
1, 60828, Note_off_c, 1, 62, 0
1, 60840, Note_on_c, 1, 63, 127
1, 60888, Note_off_c, 1, 63, 0
1, 60900, Note_on_c, 1, 65, 127
1, 60912, Note_off_c, 1, 60, 0
1, 60912, Note_off_c, 1, 55, 0
1, 60912, Note_off_c, 1, 51, 0
1, 60948, Note_off_c, 1, 65, 0
1, 60960, Note_on_c, 1, 67, 127
1, 61008, Note_off_c, 1, 67, 0
1, 61020, Note_on_c, 1, 69, 127
1, 61068, Note_off_c, 1, 69, 0
1, 61080, Note_on_c, 1, 71, 127
1, 61128, Note_off_c, 1, 71, 0
1, 61140, Note_on_c, 1, 72, 127
1, 61188, Note_off_c, 1, 72, 0
1, 61200, Note_on_c, 1, 74, 127
1, 61200, Note_on_c, 1, 67, 127
1, 61200, Note_on_c, 1, 55, 127
1, 61200, Note_on_c, 1, 47, 127
1, 61248, Note_off_c, 1, 74, 0
1, 61260, Note_on_c, 1, 77, 127
1, 61308, Note_off_c, 1, 77, 0
1, 61320, Note_on_c, 1, 75, 127
1, 61368, Note_off_c, 1, 75, 0
1, 61392, Note_off_c, 1, 67, 0
1, 61392, Note_off_c, 1, 55, 0
1, 61392, Note_off_c, 1, 47, 0
1, 61440, Note_on_c, 1, 75, 127
1, 61440, Note_on_c, 1, 67, 127
1, 61440, Note_on_c, 1, 60, 127
1, 61440, Note_on_c, 1, 48, 127
1, 61488, Note_off_c, 1, 75, 0
1, 61500, Note_on_c, 1, 79, 127
1, 61548, Note_off_c, 1, 79, 0
1, 61560, Note_on_c, 1, 84, 127
1, 61608, Note_off_c, 1, 84, 0
1, 61620, Note_on_c, 1, 82, 127
1, 61632, Note_off_c, 1, 67, 0
1, 61632, Note_off_c, 1, 60, 0
1, 61632, Note_off_c, 1, 48, 0
1, 61668, Note_off_c, 1, 82, 0
1, 61680, Note_on_c, 1, 80, 127
1, 61728, Note_off_c, 1, 80, 0
1, 61740, Note_on_c, 1, 79, 127
1, 61788, Note_off_c, 1, 79, 0
1, 61800, Note_on_c, 1, 77, 127
1, 61848, Note_off_c, 1, 77, 0
1, 61860, Note_on_c, 1, 75, 127
1, 61908, Note_off_c, 1, 75, 0
1, 61920, Note_on_c, 1, 74, 127
1, 61920, Note_on_c, 1, 65, 127
1, 61920, Note_on_c, 1, 56, 127
1, 61920, Note_on_c, 1, 41, 127
1, 61968, Note_off_c, 1, 74, 0
1, 61980, Note_on_c, 1, 75, 127
1, 62028, Note_off_c, 1, 75, 0
1, 62100, Note_on_c, 1, 72, 127
1, 62112, Note_off_c, 1, 65, 0
1, 62112, Note_off_c, 1, 56, 0
1, 62112, Note_off_c, 1, 41, 0
1, 62148, Note_off_c, 1, 72, 0
1, 62160, Note_on_c, 1, 71, 127
1, 62160, Note_on_c, 1, 62, 127
1, 62160, Note_on_c, 1, 55, 127
1, 62160, Note_on_c, 1, 43, 127
1, 62208, Note_off_c, 1, 71, 0
1, 62220, Note_on_c, 1, 72, 127
1, 62268, Note_off_c, 1, 72, 0
1, 62280, Note_on_c, 1, 74, 127
1, 62328, Note_off_c, 1, 74, 0
1, 62340, Note_on_c, 1, 75, 127
1, 62352, Note_off_c, 1, 62, 0
1, 62352, Note_off_c, 1, 55, 0
1, 62352, Note_off_c, 1, 43, 0
1, 62388, Note_off_c, 1, 75, 0
1, 62400, Note_on_c, 1, 74, 127
1, 62448, Note_off_c, 1, 74, 0
1, 62460, Note_on_c, 1, 72, 127
1, 62508, Note_off_c, 1, 72, 0
1, 62520, Note_on_c, 1, 71, 127
1, 62568, Note_off_c, 1, 71, 0
1, 62580, Note_on_c, 1, 69, 127
1, 62628, Note_off_c, 1, 69, 0
1, 62640, Note_on_c, 1, 67, 127
1, 62640, Note_on_c, 1, 62, 127
1, 62640, Note_on_c, 1, 59, 127
1, 62640, Note_on_c, 1, 43, 127
1, 62688, Note_off_c, 1, 67, 0
1, 62700, Note_on_c, 1, 68, 127
1, 62748, Note_off_c, 1, 68, 0
1, 62820, Note_on_c, 1, 65, 127
1, 62832, Note_off_c, 1, 62, 0
1, 62832, Note_off_c, 1, 59, 0
1, 62832, Note_off_c, 1, 43, 0
1, 62868, Note_off_c, 1, 65, 0
1, 62880, Note_on_c, 1, 63, 127
1, 62880, Note_on_c, 1, 60, 127
1, 62880, Note_on_c, 1, 55, 127
1, 62880, Note_on_c, 1, 36, 127
1, 62928, Note_off_c, 1, 63, 0
1, 62940, Note_on_c, 1, 65, 127
1, 62988, Note_off_c, 1, 65, 0
1, 63000, Note_on_c, 1, 67, 127
1, 63048, Note_off_c, 1, 67, 0
1, 63060, Note_on_c, 1, 68, 127
1, 63072, Note_off_c, 1, 60, 0
1, 63072, Note_off_c, 1, 55, 0
1, 63072, Note_off_c, 1, 36, 0
1, 63108, Note_off_c, 1, 68, 0
1, 63120, Note_on_c, 1, 67, 127
1, 63168, Note_off_c, 1, 67, 0
1, 63180, Note_on_c, 1, 65, 127
1, 63228, Note_off_c, 1, 65, 0
1, 63240, Note_on_c, 1, 63, 127
1, 63288, Note_off_c, 1, 63, 0
1, 63300, Note_on_c, 1, 62, 127
1, 63348, Note_off_c, 1, 62, 0
1, 63360, Note_on_c, 1, 72, 127
1, 63360, Note_on_c, 1, 60, 127
1, 63408, Note_off_c, 1, 60, 0
1, 63420, Note_on_c, 1, 63, 127
1, 63468, Note_off_c, 1, 63, 0
1, 63480, Note_on_c, 1, 62, 127
1, 63528, Note_off_c, 1, 62, 0
1, 63552, Note_off_c, 1, 72, 0
1, 63600, Note_on_c, 1, 79, 127
1, 63600, Note_on_c, 1, 59, 127
1, 63648, Note_off_c, 1, 59, 0
1, 63660, Note_on_c, 1, 60, 127
1, 63708, Note_off_c, 1, 60, 0
1, 63780, Note_on_c, 1, 57, 127
1, 63828, Note_off_c, 1, 57, 0
1, 63840, Note_on_c, 1, 55, 127
1, 63888, Note_off_c, 1, 55, 0
1, 63900, Note_on_c, 1, 53, 127
1, 63948, Note_off_c, 1, 53, 0
1, 63960, Note_on_c, 1, 51, 127
1, 63984, Note_off_c, 1, 79, 0
1, 64008, Note_off_c, 1, 51, 0
1, 64020, Note_on_c, 1, 50, 127
1, 64068, Note_off_c, 1, 50, 0
1, 64080, Note_on_c, 1, 75, 127
1, 64080, Note_on_c, 1, 48, 127
1, 64128, Note_off_c, 1, 48, 0
1, 64140, Note_on_c, 1, 70, 127
1, 64188, Note_off_c, 1, 70, 0
1, 64200, Note_on_c, 1, 68, 127
1, 64248, Note_off_c, 1, 68, 0
1, 64260, Note_on_c, 1, 67, 127
1, 64272, Note_off_c, 1, 75, 0
1, 64308, Note_off_c, 1, 67, 0
1, 64320, Note_on_c, 1, 77, 127
1, 64320, Note_on_c, 1, 68, 127
1, 64368, Note_off_c, 1, 68, 0
1, 64380, Note_on_c, 1, 70, 127
1, 64428, Note_off_c, 1, 70, 0
1, 64500, Note_on_c, 1, 67, 127
1, 64548, Note_off_c, 1, 67, 0
1, 64560, Note_on_c, 1, 65, 127
1, 64608, Note_off_c, 1, 65, 0
1, 64620, Note_on_c, 1, 63, 127
1, 64668, Note_off_c, 1, 63, 0
1, 64680, Note_on_c, 1, 62, 127
1, 64704, Note_off_c, 1, 77, 0
1, 64728, Note_off_c, 1, 62, 0
1, 64740, Note_on_c, 1, 60, 127
1, 64788, Note_off_c, 1, 60, 0
1, 64800, Note_on_c, 1, 79, 127
1, 64800, Note_on_c, 1, 59, 127
1, 64848, Note_off_c, 1, 59, 0
1, 64860, Note_on_c, 1, 62, 127
1, 64908, Note_off_c, 1, 62, 0
1, 64920, Note_on_c, 1, 60, 127
1, 64968, Note_off_c, 1, 60, 0
1, 64992, Note_off_c, 1, 79, 0
1, 65040, Note_on_c, 1, 80, 127
1, 65040, Note_on_c, 1, 60, 127
1, 65088, Note_off_c, 1, 60, 0
1, 65100, Note_on_c, 1, 62, 127
1, 65148, Note_off_c, 1, 62, 0
1, 65220, Note_on_c, 1, 58, 127
1, 65268, Note_off_c, 1, 58, 0
1, 65280, Note_on_c, 1, 56, 127
1, 65328, Note_off_c, 1, 56, 0
1, 65340, Note_on_c, 1, 55, 127
1, 65388, Note_off_c, 1, 55, 0
1, 65400, Note_on_c, 1, 53, 127
1, 65424, Note_off_c, 1, 80, 0
1, 65448, Note_off_c, 1, 53, 0
1, 65460, Note_on_c, 1, 51, 127
1, 65508, Note_off_c, 1, 51, 0
1, 65520, Note_on_c, 1, 77, 127
1, 65520, Note_on_c, 1, 50, 127
1, 65568, Note_off_c, 1, 50, 0
1, 65580, Note_on_c, 1, 51, 127
1, 65628, Note_off_c, 1, 51, 0
1, 65700, Note_on_c, 1, 48, 127
1, 65712, Note_off_c, 1, 77, 0
1, 65748, Note_off_c, 1, 48, 0
1, 65760, Note_on_c, 1, 79, 127
1, 65760, Note_on_c, 1, 47, 127
1, 65808, Note_off_c, 1, 47, 0
1, 65820, Note_on_c, 1, 48, 127
1, 65868, Note_off_c, 1, 48, 0
1, 65940, Note_on_c, 1, 45, 127
1, 65988, Note_off_c, 1, 45, 0
1, 66000, Note_on_c, 1, 43, 127
1, 66048, Note_off_c, 1, 43, 0
1, 66144, Note_off_c, 1, 79, 0
1, 66180, Note_on_c, 1, 48, 127
1, 66228, Note_off_c, 1, 48, 0
1, 66240, Note_on_c, 1, 74, 127
1, 66240, Note_on_c, 1, 47, 127
1, 66288, Note_off_c, 1, 47, 0
1, 66300, Note_on_c, 1, 50, 127
1, 66348, Note_off_c, 1, 50, 0
1, 66360, Note_on_c, 1, 48, 127
1, 66408, Note_off_c, 1, 48, 0
1, 66432, Note_off_c, 1, 74, 0
1, 66480, Note_on_c, 1, 75, 127
1, 66480, Note_on_c, 1, 48, 127
1, 66528, Note_off_c, 1, 48, 0
1, 66540, Note_on_c, 1, 50, 127
1, 66588, Note_off_c, 1, 50, 0
1, 66600, Note_on_c, 1, 51, 127
1, 66648, Note_off_c, 1, 51, 0
1, 66660, Note_on_c, 1, 53, 127
1, 66708, Note_off_c, 1, 53, 0
1, 66720, Note_on_c, 1, 55, 127
1, 66768, Note_off_c, 1, 55, 0
1, 66780, Note_on_c, 1, 57, 127
1, 66828, Note_off_c, 1, 57, 0
1, 66840, Note_on_c, 1, 59, 127
1, 66864, Note_off_c, 1, 75, 0
1, 66888, Note_off_c, 1, 59, 0
1, 66900, Note_on_c, 1, 60, 127
1, 66948, Note_off_c, 1, 60, 0
1, 66960, Note_on_c, 1, 71, 127
1, 66960, Note_on_c, 1, 62, 127
1, 67008, Note_off_c, 1, 62, 0
1, 67020, Note_on_c, 1, 65, 127
1, 67068, Note_off_c, 1, 65, 0
1, 67080, Note_on_c, 1, 63, 127
1, 67128, Note_off_c, 1, 63, 0
1, 67152, Note_off_c, 1, 71, 0
1, 67200, Note_on_c, 1, 72, 127
1, 67200, Note_on_c, 1, 63, 127
1, 67248, Note_off_c, 1, 63, 0
1, 67260, Note_on_c, 1, 67, 127
1, 67308, Note_off_c, 1, 67, 0
1, 67380, Note_on_c, 1, 70, 127
1, 67428, Note_off_c, 1, 70, 0
1, 67440, Note_on_c, 1, 68, 127
1, 67488, Note_off_c, 1, 68, 0
1, 67560, Note_on_c, 1, 65, 127
1, 67584, Note_off_c, 1, 72, 0
1, 67608, Note_off_c, 1, 65, 0
1, 67620, Note_on_c, 1, 63, 127
1, 67668, Note_off_c, 1, 63, 0
1, 67680, Note_on_c, 1, 65, 127
1, 67680, Note_on_c, 1, 62, 127
1, 67728, Note_off_c, 1, 62, 0
1, 67740, Note_on_c, 1, 63, 127
1, 67788, Note_off_c, 1, 63, 0
1, 67860, Note_on_c, 1, 60, 127
1, 67872, Note_off_c, 1, 65, 0
1, 67908, Note_off_c, 1, 60, 0
1, 67920, Note_on_c, 1, 67, 127
1, 67920, Note_on_c, 1, 59, 127
1, 67968, Note_off_c, 1, 59, 0
1, 67980, Note_on_c, 1, 60, 127
1, 68028, Note_off_c, 1, 60, 0
1, 68040, Note_on_c, 1, 62, 127
1, 68088, Note_off_c, 1, 62, 0
1, 68100, Note_on_c, 1, 63, 127
1, 68148, Note_off_c, 1, 63, 0
1, 68340, Note_on_c, 1, 57, 127
1, 68388, Note_off_c, 1, 57, 0
1, 68400, Note_on_c, 1, 55, 127
1, 68448, Note_off_c, 1, 55, 0
1, 68460, Note_on_c, 1, 56, 127
1, 68496, Note_off_c, 1, 67, 0
1, 68508, Note_off_c, 1, 56, 0
1, 68520, Note_on_c, 1, 55, 127
1, 68568, Note_off_c, 1, 55, 0
1, 68580, Note_on_c, 1, 53, 127
1, 68628, Note_off_c, 1, 53, 0
1, 68640, Note_on_c, 1, 60, 127
1, 68640, Note_on_c, 1, 51, 127
1, 68688, Note_off_c, 1, 51, 0
1, 68700, Note_on_c, 1, 53, 127
1, 68748, Note_off_c, 1, 53, 0
1, 68760, Note_on_c, 1, 55, 127
1, 68808, Note_off_c, 1, 55, 0
1, 68820, Note_on_c, 1, 56, 127
1, 68868, Note_off_c, 1, 56, 0
1, 69024, Note_off_c, 1, 60, 0
1, 69060, Note_on_c, 1, 50, 127
1, 69108, Note_off_c, 1, 50, 0
1, 69120, Note_on_c, 1, 72, 127
1, 69120, Note_on_c, 1, 48, 127
1, 69168, Note_off_c, 1, 48, 0
1, 69180, Note_on_c, 1, 51, 127
1, 69228, Note_off_c, 1, 51, 0
1, 69240, Note_on_c, 1, 50, 127
1, 69240, Note_on_c, 1, 56, 127
1, 69288, Note_off_c, 1, 50, 0
1, 69312, Note_off_c, 1, 72, 0
1, 69336, Note_off_c, 1, 56, 0
1, 69360, Note_on_c, 1, 79, 127
1, 69360, Note_on_c, 1, 47, 127
1, 69360, Note_on_c, 1, 55, 127
1, 69408, Note_off_c, 1, 55, 0
1, 69420, Note_on_c, 1, 56, 127
1, 69456, Note_off_c, 1, 47, 0
1, 69468, Note_off_c, 1, 56, 0
1, 69480, Note_on_c, 1, 67, 127
1, 69480, Note_on_c, 1, 43, 127
1, 69480, Note_on_c, 1, 53, 127
1, 69528, Note_off_c, 1, 53, 0
1, 69576, Note_off_c, 1, 67, 0
1, 69576, Note_off_c, 1, 43, 0
1, 69600, Note_on_c, 1, 69, 127
1, 69600, Note_on_c, 1, 51, 127
1, 69648, Note_off_c, 1, 51, 0
1, 69696, Note_off_c, 1, 69, 0
1, 69720, Note_on_c, 1, 71, 127
1, 69720, Note_on_c, 1, 50, 127
1, 69744, Note_off_c, 1, 79, 0
1, 69768, Note_off_c, 1, 50, 0
1, 69816, Note_off_c, 1, 71, 0
1, 69840, Note_on_c, 1, 75, 127
1, 69840, Note_on_c, 1, 72, 127
1, 69840, Note_on_c, 1, 56, 127
1, 69840, Note_on_c, 1, 48, 127
1, 69888, Note_off_c, 1, 48, 0
1, 69900, Note_on_c, 1, 50, 127
1, 69936, Note_off_c, 1, 56, 0
1, 69948, Note_off_c, 1, 50, 0
1, 69960, Note_on_c, 1, 58, 127
1, 69960, Note_on_c, 1, 46, 127
1, 70008, Note_off_c, 1, 46, 0
1, 70032, Note_off_c, 1, 75, 0
1, 70056, Note_off_c, 1, 58, 0
1, 70080, Note_on_c, 1, 77, 127
1, 70080, Note_on_c, 1, 60, 127
1, 70080, Note_on_c, 1, 44, 127
1, 70128, Note_off_c, 1, 72, 0
1, 70140, Note_on_c, 1, 73, 127
1, 70188, Note_off_c, 1, 73, 0
1, 70200, Note_on_c, 1, 70, 127
1, 70248, Note_off_c, 1, 70, 0
1, 70320, Note_on_c, 1, 68, 127
1, 70368, Note_off_c, 1, 44, 0
1, 70368, Note_off_c, 1, 68, 0
1, 70440, Note_on_c, 1, 67, 127
1, 70464, Note_off_c, 1, 77, 0
1, 70464, Note_off_c, 1, 60, 0
1, 70488, Note_off_c, 1, 67, 0
1, 70560, Note_on_c, 1, 65, 127
1, 70560, Note_on_c, 1, 79, 127
1, 70560, Note_on_c, 1, 61, 127
1, 70560, Note_on_c, 1, 46, 127
1, 70608, Note_off_c, 1, 65, 0
1, 70620, Note_on_c, 1, 67, 127
1, 70656, Note_off_c, 1, 61, 0
1, 70656, Note_off_c, 1, 46, 0
1, 70668, Note_off_c, 1, 67, 0
1, 70680, Note_on_c, 1, 64, 127
1, 70680, Note_on_c, 1, 60, 127
1, 70680, Note_on_c, 1, 48, 127
1, 70728, Note_off_c, 1, 64, 0
1, 70752, Note_off_c, 1, 79, 0
1, 70776, Note_off_c, 1, 48, 0
1, 70800, Note_on_c, 1, 80, 127
1, 70800, Note_on_c, 1, 41, 127
1, 70848, Note_off_c, 1, 60, 0
1, 70896, Note_off_c, 1, 41, 0
1, 70920, Note_on_c, 1, 58, 127
1, 70968, Note_off_c, 1, 58, 0
1, 71040, Note_on_c, 1, 56, 127
1, 71040, Note_on_c, 1, 53, 127
1, 71088, Note_off_c, 1, 53, 0
1, 71100, Note_on_c, 1, 55, 127
1, 71136, Note_off_c, 1, 56, 0
1, 71148, Note_off_c, 1, 55, 0
1, 71160, Note_on_c, 1, 51, 127
1, 71184, Note_off_c, 1, 80, 0
1, 71208, Note_off_c, 1, 51, 0
1, 71280, Note_on_c, 1, 77, 127
1, 71280, Note_on_c, 1, 65, 127
1, 71280, Note_on_c, 1, 50, 127
1, 71328, Note_off_c, 1, 65, 0
1, 71328, Note_off_c, 1, 50, 0
1, 71340, Note_on_c, 1, 67, 127
1, 71340, Note_on_c, 1, 51, 127
1, 71388, Note_off_c, 1, 67, 0
1, 71388, Note_off_c, 1, 51, 0
1, 71400, Note_on_c, 1, 69, 127
1, 71400, Note_on_c, 1, 63, 127
1, 71400, Note_on_c, 1, 48, 127
1, 71448, Note_off_c, 1, 63, 0
1, 71448, Note_off_c, 1, 48, 0
1, 71472, Note_off_c, 1, 77, 0
1, 71496, Note_off_c, 1, 69, 0
1, 71520, Note_on_c, 1, 74, 127
1, 71520, Note_on_c, 1, 79, 127
1, 71520, Note_on_c, 1, 62, 127
1, 71520, Note_on_c, 1, 47, 127
1, 71568, Note_off_c, 1, 74, 0
1, 71568, Note_off_c, 1, 47, 0
1, 71580, Note_on_c, 1, 75, 127
1, 71580, Note_on_c, 1, 48, 127
1, 71628, Note_off_c, 1, 75, 0
1, 71628, Note_off_c, 1, 48, 0
1, 71640, Note_on_c, 1, 72, 127
1, 71640, Note_on_c, 1, 45, 127
1, 71688, Note_off_c, 1, 72, 0
1, 71688, Note_off_c, 1, 45, 0
1, 71760, Note_on_c, 1, 71, 127
1, 71760, Note_on_c, 1, 43, 127
1, 71808, Note_off_c, 1, 62, 0
1, 71808, Note_off_c, 1, 71, 0
1, 71820, Note_on_c, 1, 63, 127
1, 71868, Note_off_c, 1, 63, 0
1, 71880, Note_on_c, 1, 69, 127
1, 71880, Note_on_c, 1, 60, 127
1, 71904, Note_off_c, 1, 79, 0
1, 71928, Note_off_c, 1, 69, 0
1, 71928, Note_off_c, 1, 60, 0
1, 72000, Note_on_c, 1, 67, 127
1, 72000, Note_on_c, 1, 59, 127
1, 72048, Note_off_c, 1, 67, 0
1, 72048, Note_off_c, 1, 59, 0
1, 72060, Note_on_c, 1, 68, 127
1, 72108, Note_off_c, 1, 68, 0
1, 72120, Note_on_c, 1, 65, 127
1, 72120, Note_on_c, 1, 57, 127
1, 72144, Note_off_c, 1, 43, 0
1, 72168, Note_off_c, 1, 65, 0
1, 72168, Note_off_c, 1, 57, 0
1, 72240, Note_on_c, 1, 63, 127
1, 72240, Note_on_c, 1, 75, 127
1, 72240, Note_on_c, 1, 60, 127
1, 72240, Note_on_c, 1, 48, 127
1, 72288, Note_off_c, 1, 60, 0
1, 72300, Note_on_c, 1, 62, 127
1, 72336, Note_off_c, 1, 63, 0
1, 72348, Note_off_c, 1, 62, 0
1, 72360, Note_on_c, 1, 67, 127
1, 72360, Note_on_c, 1, 58, 127
1, 72408, Note_off_c, 1, 58, 0
1, 72456, Note_off_c, 1, 67, 0
1, 72480, Note_on_c, 1, 72, 127
1, 72480, Note_on_c, 1, 56, 127
1, 72528, Note_off_c, 1, 48, 0
1, 72528, Note_off_c, 1, 56, 0
1, 72576, Note_off_c, 1, 72, 0
1, 72600, Note_on_c, 1, 70, 127
1, 72600, Note_on_c, 1, 55, 127
1, 72600, Note_on_c, 1, 36, 127
1, 72624, Note_off_c, 1, 75, 0
1, 72648, Note_off_c, 1, 55, 0
1, 72696, Note_off_c, 1, 70, 0
1, 72696, Note_off_c, 1, 36, 0
1, 72720, Note_on_c, 1, 68, 127
1, 72720, Note_on_c, 1, 71, 127
1, 72720, Note_on_c, 1, 53, 127
1, 72720, Note_on_c, 1, 38, 127
1, 72768, Note_off_c, 1, 53, 0
1, 72780, Note_on_c, 1, 55, 127
1, 72816, Note_off_c, 1, 68, 0
1, 72828, Note_off_c, 1, 55, 0
1, 72840, Note_on_c, 1, 67, 127
1, 72840, Note_on_c, 1, 51, 127
1, 72888, Note_off_c, 1, 67, 0
1, 72888, Note_off_c, 1, 51, 0
1, 72900, Note_on_c, 1, 65, 127
1, 72900, Note_on_c, 1, 50, 127
1, 72912, Note_off_c, 1, 71, 0
1, 72912, Note_off_c, 1, 38, 0
1, 72948, Note_off_c, 1, 65, 0
1, 72948, Note_off_c, 1, 50, 0
1, 72960, Note_on_c, 1, 67, 127
1, 72960, Note_on_c, 1, 72, 127
1, 72960, Note_on_c, 1, 48, 127
1, 72960, Note_on_c, 1, 39, 127
1, 73008, Note_off_c, 1, 67, 0
1, 73020, Note_on_c, 1, 68, 127
1, 73056, Note_off_c, 1, 48, 0
1, 73056, Note_off_c, 1, 39, 0
1, 73068, Note_off_c, 1, 68, 0
1, 73080, Note_on_c, 1, 65, 127
1, 73080, Note_on_c, 1, 43, 127
1, 73128, Note_off_c, 1, 65, 0
1, 73176, Note_off_c, 1, 43, 0
1, 73200, Note_on_c, 1, 63, 127
1, 73248, Note_off_c, 1, 63, 0
1, 73260, Note_on_c, 1, 50, 127
1, 73308, Note_off_c, 1, 50, 0
1, 73320, Note_on_c, 1, 62, 127
1, 73320, Note_on_c, 1, 51, 127
1, 73320, Note_on_c, 1, 46, 127
1, 73344, Note_off_c, 1, 72, 0
1, 73368, Note_off_c, 1, 62, 0
1, 73368, Note_off_c, 1, 46, 0
1, 73416, Note_off_c, 1, 51, 0
1, 73440, Note_on_c, 1, 60, 127
1, 73440, Note_on_c, 1, 53, 127
1, 73440, Note_on_c, 1, 45, 127
1, 73488, Note_off_c, 1, 53, 0
1, 73500, Note_on_c, 1, 55, 127
1, 73536, Note_off_c, 1, 60, 0
1, 73548, Note_off_c, 1, 55, 0
1, 73560, Note_on_c, 1, 65, 127
1, 73560, Note_on_c, 1, 51, 127
1, 73608, Note_off_c, 1, 51, 0
1, 73632, Note_off_c, 1, 45, 0
1, 73680, Note_on_c, 1, 50, 127
1, 73680, Note_on_c, 1, 47, 127
1, 73728, Note_off_c, 1, 65, 0
1, 73728, Note_off_c, 1, 50, 0
1, 73740, Note_on_c, 1, 67, 127
1, 73776, Note_off_c, 1, 47, 0
1, 73800, Note_on_c, 1, 63, 127
1, 73800, Note_on_c, 1, 48, 127
1, 73848, Note_off_c, 1, 63, 0
1, 73896, Note_off_c, 1, 48, 0
1, 73920, Note_on_c, 1, 62, 127
1, 73920, Note_on_c, 1, 43, 127
1, 73968, Note_off_c, 1, 43, 0
1, 73980, Note_on_c, 1, 44, 127
1, 74016, Note_off_c, 1, 62, 0
1, 74028, Note_off_c, 1, 44, 0
1, 74040, Note_on_c, 1, 59, 127
1, 74040, Note_on_c, 1, 41, 127
1, 74088, Note_off_c, 1, 41, 0
1, 74136, Note_off_c, 1, 59, 0
1, 74160, Note_on_c, 1, 39, 127
1, 74208, Note_off_c, 1, 39, 0
1, 74256, Note_off_c, 1, 67, 0
1, 74280, Note_on_c, 1, 59, 127
1, 74280, Note_on_c, 1, 53, 127
1, 74280, Note_on_c, 1, 38, 127
1, 74328, Note_off_c, 1, 38, 0
1, 74340, Note_on_c, 1, 41, 127
1, 74376, Note_off_c, 1, 59, 0
1, 74376, Note_off_c, 1, 53, 0
1, 74388, Note_off_c, 1, 41, 0
1, 74400, Note_on_c, 1, 60, 127
1, 74400, Note_on_c, 1, 55, 127
1, 74400, Note_on_c, 1, 39, 127
1, 74448, Note_off_c, 1, 55, 0
1, 74448, Note_off_c, 1, 39, 0
1, 74460, Note_on_c, 1, 56, 127
1, 74460, Note_on_c, 1, 41, 127
1, 74508, Note_off_c, 1, 56, 0
1, 74508, Note_off_c, 1, 41, 0
1, 74520, Note_on_c, 1, 53, 127
1, 74520, Note_on_c, 1, 38, 127
1, 74568, Note_off_c, 1, 53, 0
1, 74568, Note_off_c, 1, 38, 0
1, 74640, Note_on_c, 1, 51, 127
1, 74640, Note_on_c, 1, 36, 127
1, 74688, Note_off_c, 1, 51, 0
1, 74760, Note_on_c, 1, 50, 127
1, 74784, Note_off_c, 1, 60, 0
1, 74808, Note_off_c, 1, 50, 0
1, 74832, Note_off_c, 1, 36, 0
1, 74880, Note_on_c, 1, 60, 127
1, 74880, Note_on_c, 1, 48, 127
1, 74928, Note_off_c, 1, 60, 0
1, 74940, Note_on_c, 1, 63, 127
1, 74976, Note_off_c, 1, 48, 0
1, 74988, Note_off_c, 1, 63, 0
1, 75000, Note_on_c, 1, 62, 127
1, 75048, Note_off_c, 1, 62, 0
1, 75060, Note_on_c, 1, 60, 127
1, 75108, Note_off_c, 1, 60, 0
1, 75120, Note_on_c, 1, 67, 127
1, 75120, Note_on_c, 1, 55, 127
1, 75168, Note_off_c, 1, 55, 0
1, 75180, Note_on_c, 1, 59, 127
1, 75228, Note_off_c, 1, 59, 0
1, 75240, Note_on_c, 1, 57, 127
1, 75288, Note_off_c, 1, 57, 0
1, 75360, Note_on_c, 1, 72, 127
1, 75360, Note_on_c, 1, 60, 127
1, 75408, Note_off_c, 1, 72, 0
1, 75420, Note_on_c, 1, 75, 127
1, 75468, Note_off_c, 1, 75, 0
1, 75480, Note_on_c, 1, 74, 127
1, 75504, Note_off_c, 1, 67, 0
1, 75528, Note_off_c, 1, 74, 0
1, 75600, Note_on_c, 1, 79, 127
1, 75600, Note_on_c, 1, 63, 127
1, 75648, Note_off_c, 1, 60, 0
1, 75660, Note_on_c, 1, 61, 127
1, 75708, Note_off_c, 1, 61, 0
1, 75780, Note_on_c, 1, 58, 127
1, 75792, Note_off_c, 1, 79, 0
1, 75792, Note_off_c, 1, 63, 0
1, 75828, Note_off_c, 1, 58, 0
1, 75840, Note_on_c, 1, 72, 127
1, 75840, Note_on_c, 1, 65, 127
1, 75840, Note_on_c, 1, 56, 127
1, 75888, Note_off_c, 1, 72, 0
1, 75900, Note_on_c, 1, 76, 127
1, 75948, Note_off_c, 1, 76, 0
1, 75960, Note_on_c, 1, 74, 127
1, 76008, Note_off_c, 1, 74, 0
1, 76080, Note_on_c, 1, 77, 127
1, 76128, Note_off_c, 1, 65, 0
1, 76128, Note_off_c, 1, 56, 0
1, 76140, Note_on_c, 1, 68, 127
1, 76188, Note_off_c, 1, 68, 0
1, 76200, Note_on_c, 1, 67, 127
1, 76200, Note_on_c, 1, 61, 127
1, 76248, Note_off_c, 1, 67, 0
1, 76296, Note_off_c, 1, 61, 0
1, 76320, Note_on_c, 1, 58, 127
1, 76368, Note_off_c, 1, 77, 0
1, 76380, Note_on_c, 1, 70, 127
1, 76416, Note_off_c, 1, 58, 0
1, 76428, Note_off_c, 1, 70, 0
1, 76440, Note_on_c, 1, 68, 127
1, 76440, Note_on_c, 1, 76, 127
1, 76440, Note_on_c, 1, 60, 127
1, 76488, Note_off_c, 1, 68, 0
1, 76500, Note_on_c, 1, 67, 127
1, 76536, Note_off_c, 1, 76, 0
1, 76536, Note_off_c, 1, 60, 0
1, 76548, Note_off_c, 1, 67, 0
1, 76560, Note_on_c, 1, 77, 127
1, 76560, Note_on_c, 1, 68, 127
1, 76560, Note_on_c, 1, 65, 127
1, 76608, Note_off_c, 1, 77, 0
1, 76620, Note_on_c, 1, 80, 127
1, 76668, Note_off_c, 1, 80, 0
1, 76680, Note_on_c, 1, 79, 127
1, 76728, Note_off_c, 1, 79, 0
1, 76752, Note_off_c, 1, 65, 0
1, 76800, Note_on_c, 1, 84, 127
1, 76848, Note_off_c, 1, 68, 0
1, 76860, Note_on_c, 1, 70, 127
1, 76908, Note_off_c, 1, 70, 0
1, 76980, Note_on_c, 1, 67, 127
1, 77028, Note_off_c, 1, 67, 0
1, 77040, Note_on_c, 1, 56, 127
1, 77088, Note_off_c, 1, 84, 0
1, 77100, Note_on_c, 1, 75, 127
1, 77148, Note_off_c, 1, 75, 0
1, 77160, Note_on_c, 1, 74, 127
1, 77208, Note_off_c, 1, 74, 0
1, 77220, Note_on_c, 1, 72, 127
1, 77232, Note_off_c, 1, 56, 0
1, 77268, Note_off_c, 1, 72, 0
1, 77280, Note_on_c, 1, 71, 127
1, 77280, Note_on_c, 1, 67, 127
1, 77280, Note_on_c, 1, 55, 127
1, 77328, Note_off_c, 1, 55, 0
1, 77340, Note_on_c, 1, 56, 127
1, 77388, Note_off_c, 1, 56, 0
1, 77460, Note_on_c, 1, 53, 127
1, 77472, Note_off_c, 1, 71, 0
1, 77508, Note_off_c, 1, 53, 0
1, 77520, Note_on_c, 1, 72, 127
1, 77520, Note_on_c, 1, 51, 127
1, 77568, Note_off_c, 1, 67, 0
1, 77616, Note_off_c, 1, 51, 0
1, 77640, Note_on_c, 1, 65, 127
1, 77640, Note_on_c, 1, 50, 127
1, 77688, Note_off_c, 1, 65, 0
1, 77688, Note_off_c, 1, 50, 0
1, 77700, Note_on_c, 1, 63, 127
1, 77700, Note_on_c, 1, 48, 127
1, 77712, Note_off_c, 1, 72, 0
1, 77748, Note_off_c, 1, 63, 0
1, 77748, Note_off_c, 1, 48, 0
1, 77760, Note_on_c, 1, 62, 127
1, 77760, Note_on_c, 1, 74, 127
1, 77760, Note_on_c, 1, 47, 127
1, 77808, Note_off_c, 1, 62, 0
1, 77820, Note_on_c, 1, 65, 127
1, 77868, Note_off_c, 1, 65, 0
1, 77880, Note_on_c, 1, 63, 127
1, 77928, Note_off_c, 1, 63, 0
1, 77952, Note_off_c, 1, 74, 0
1, 77952, Note_off_c, 1, 47, 0
1, 78000, Note_on_c, 1, 67, 127
1, 78000, Note_on_c, 1, 63, 127
1, 78000, Note_on_c, 1, 48, 127
1, 78048, Note_off_c, 1, 48, 0
1, 78060, Note_on_c, 1, 51, 127
1, 78096, Note_off_c, 1, 67, 0
1, 78108, Note_off_c, 1, 51, 0
1, 78120, Note_on_c, 1, 72, 127
1, 78120, Note_on_c, 1, 50, 127
1, 78168, Note_off_c, 1, 50, 0
1, 78240, Note_on_c, 1, 55, 127
1, 78288, Note_off_c, 1, 63, 0
1, 78288, Note_off_c, 1, 72, 0
1, 78360, Note_on_c, 1, 62, 127
1, 78360, Note_on_c, 1, 71, 127
1, 78408, Note_off_c, 1, 62, 0
1, 78408, Note_off_c, 1, 71, 0
1, 78420, Note_on_c, 1, 60, 127
1, 78420, Note_on_c, 1, 69, 127
1, 78468, Note_off_c, 1, 60, 0
1, 78468, Note_off_c, 1, 69, 0
1, 78480, Note_on_c, 1, 59, 127
1, 78528, Note_off_c, 1, 55, 0
1, 78528, Note_off_c, 1, 59, 0
1, 78600, Note_on_c, 1, 60, 127
1, 78600, Note_on_c, 1, 65, 127
1, 78600, Note_on_c, 1, 43, 127
1, 78648, Note_off_c, 1, 60, 0
1, 78660, Note_on_c, 1, 59, 127
1, 78696, Note_off_c, 1, 65, 0
1, 78696, Note_off_c, 1, 43, 0
1, 78708, Note_off_c, 1, 59, 0
1, 78720, Note_on_c, 1, 63, 127
1, 78720, Note_on_c, 1, 44, 127
1, 78720, Note_on_c, 1, 60, 127
1, 78768, Note_off_c, 1, 44, 0
1, 78780, Note_on_c, 1, 48, 127
1, 78816, Note_off_c, 1, 63, 0
1, 78828, Note_off_c, 1, 48, 0
1, 78840, Note_on_c, 1, 68, 127
1, 78840, Note_on_c, 1, 46, 127
1, 78888, Note_off_c, 1, 46, 0
1, 78960, Note_on_c, 1, 51, 127
1, 79008, Note_off_c, 1, 60, 0
1, 79008, Note_off_c, 1, 68, 0
1, 79020, Note_on_c, 1, 67, 127
1, 79020, Note_on_c, 1, 58, 127
1, 79056, Note_off_c, 1, 51, 0
1, 79068, Note_off_c, 1, 67, 0
1, 79068, Note_off_c, 1, 58, 0
1, 79080, Note_on_c, 1, 72, 127
1, 79080, Note_on_c, 1, 56, 127
1, 79080, Note_on_c, 1, 52, 127
1, 79128, Note_off_c, 1, 72, 0
1, 79128, Note_off_c, 1, 56, 0
1, 79140, Note_on_c, 1, 70, 127
1, 79140, Note_on_c, 1, 55, 127
1, 79176, Note_off_c, 1, 52, 0
1, 79188, Note_off_c, 1, 70, 0
1, 79188, Note_off_c, 1, 55, 0
1, 79200, Note_on_c, 1, 68, 127
1, 79200, Note_on_c, 1, 53, 127
1, 79248, Note_off_c, 1, 68, 0
1, 79248, Note_off_c, 1, 53, 0
1, 79260, Note_on_c, 1, 77, 127
1, 79260, Note_on_c, 1, 56, 127
1, 79308, Note_off_c, 1, 77, 0
1, 79308, Note_off_c, 1, 56, 0
1, 79320, Note_on_c, 1, 79, 127
1, 79320, Note_on_c, 1, 55, 127
1, 79368, Note_off_c, 1, 79, 0
1, 79368, Note_off_c, 1, 55, 0
1, 79380, Note_on_c, 1, 80, 127
1, 79380, Note_on_c, 1, 53, 127
1, 79428, Note_off_c, 1, 80, 0
1, 79440, Note_on_c, 1, 71, 127
1, 79440, Note_on_c, 1, 55, 127
1, 79488, Note_off_c, 1, 53, 0
1, 79560, Note_on_c, 1, 51, 127
1, 79608, Note_off_c, 1, 51, 0
1, 79620, Note_on_c, 1, 50, 127
1, 79632, Note_off_c, 1, 71, 0
1, 79668, Note_off_c, 1, 50, 0
1, 79680, Note_on_c, 1, 72, 127
1, 79728, Note_off_c, 1, 55, 0
1, 79728, Note_off_c, 1, 72, 0
1, 79740, Note_on_c, 1, 75, 127
1, 79740, Note_on_c, 1, 55, 127
1, 79788, Note_off_c, 1, 75, 0
1, 79788, Note_off_c, 1, 55, 0
1, 79800, Note_on_c, 1, 74, 127
1, 79800, Note_on_c, 1, 53, 127
1, 79848, Note_off_c, 1, 74, 0
1, 79848, Note_off_c, 1, 53, 0
1, 79860, Note_on_c, 1, 72, 127
1, 79860, Note_on_c, 1, 51, 127
1, 79908, Note_off_c, 1, 72, 0
1, 79908, Note_off_c, 1, 51, 0
1, 79920, Note_on_c, 1, 79, 127
1, 79920, Note_on_c, 1, 50, 127
1, 79920, Note_on_c, 1, 47, 127
1, 79968, Note_off_c, 1, 50, 0
1, 79980, Note_on_c, 1, 53, 127
1, 80028, Note_off_c, 1, 53, 0
1, 80040, Note_on_c, 1, 51, 127
1, 80088, Note_off_c, 1, 51, 0
1, 80112, Note_off_c, 1, 47, 0
1, 80160, Note_on_c, 1, 48, 127
1, 80208, Note_off_c, 1, 79, 0
1, 80220, Note_on_c, 1, 83, 127
1, 80268, Note_off_c, 1, 83, 0
1, 80280, Note_on_c, 1, 81, 127
1, 80328, Note_off_c, 1, 81, 0
1, 80400, Note_on_c, 1, 84, 127
1, 80496, Note_off_c, 1, 84, 0
1, 80520, Note_on_c, 1, 72, 127
1, 80616, Note_off_c, 1, 72, 0
1, 80736, Note_off_c, 1, 48, 0
1, 80760, Note_on_c, 1, 75, 127
1, 80760, Note_on_c, 1, 36, 127
1, 80808, Note_off_c, 1, 75, 0
1, 80820, Note_on_c, 1, 72, 127
1, 80856, Note_off_c, 1, 36, 0
1, 80868, Note_off_c, 1, 72, 0
1, 80880, Note_on_c, 1, 71, 127
1, 80940, Note_on_c, 1, 55, 127
1, 80976, Note_off_c, 1, 71, 0
1, 80988, Note_off_c, 1, 55, 0
1, 81000, Note_on_c, 1, 67, 127
1, 81000, Note_on_c, 1, 59, 127
1, 81048, Note_off_c, 1, 59, 0
1, 81060, Note_on_c, 1, 62, 127
1, 81096, Note_off_c, 1, 67, 0
1, 81108, Note_off_c, 1, 62, 0
1, 81120, Note_on_c, 1, 67, 127
1, 81168, Note_off_c, 1, 67, 0
1, 81180, Note_on_c, 1, 71, 127
1, 81228, Note_off_c, 1, 71, 0
1, 81240, Note_on_c, 1, 74, 127
1, 81288, Note_off_c, 1, 74, 0
1, 81300, Note_on_c, 1, 79, 127
1, 81348, Note_off_c, 1, 79, 0
1, 81360, Note_on_c, 1, 51, 127
1, 81408, Note_off_c, 1, 51, 0
1, 81420, Note_on_c, 1, 79, 127
1, 81420, Note_on_c, 1, 55, 127
1, 81468, Note_off_c, 1, 79, 0
1, 81468, Note_off_c, 1, 55, 0
1, 81480, Note_on_c, 1, 75, 127
1, 81480, Note_on_c, 1, 60, 127
1, 81528, Note_off_c, 1, 75, 0
1, 81528, Note_off_c, 1, 60, 0
1, 81540, Note_on_c, 1, 72, 127
1, 81540, Note_on_c, 1, 63, 127
1, 81588, Note_off_c, 1, 72, 0
1, 81588, Note_off_c, 1, 63, 0
1, 81600, Note_on_c, 1, 80, 127
1, 81660, Note_on_c, 1, 53, 127
1, 81696, Note_off_c, 1, 80, 0
1, 81708, Note_off_c, 1, 53, 0
1, 81720, Note_on_c, 1, 77, 127
1, 81720, Note_on_c, 1, 56, 127
1, 81768, Note_off_c, 1, 56, 0
1, 81780, Note_on_c, 1, 60, 127
1, 81816, Note_off_c, 1, 77, 0
1, 81828, Note_off_c, 1, 60, 0
1, 81840, Note_on_c, 1, 65, 127
1, 81888, Note_off_c, 1, 65, 0
1, 81900, Note_on_c, 1, 68, 127
1, 81948, Note_off_c, 1, 68, 0
1, 81960, Note_on_c, 1, 72, 127
1, 82008, Note_off_c, 1, 72, 0
1, 82020, Note_on_c, 1, 77, 127
1, 82068, Note_off_c, 1, 77, 0
1, 82080, Note_on_c, 1, 55, 127
1, 82128, Note_off_c, 1, 55, 0
1, 82140, Note_on_c, 1, 79, 127
1, 82140, Note_on_c, 1, 59, 127
1, 82188, Note_off_c, 1, 79, 0
1, 82188, Note_off_c, 1, 59, 0
1, 82200, Note_on_c, 1, 75, 127
1, 82200, Note_on_c, 1, 63, 127
1, 82248, Note_off_c, 1, 75, 0
1, 82248, Note_off_c, 1, 63, 0
1, 82260, Note_on_c, 1, 71, 127
1, 82260, Note_on_c, 1, 67, 127
1, 82308, Note_off_c, 1, 71, 0
1, 82308, Note_off_c, 1, 67, 0
1, 82320, Note_on_c, 1, 72, 127
1, 82380, Note_on_c, 1, 56, 127
1, 82416, Note_off_c, 1, 72, 0
1, 82428, Note_off_c, 1, 56, 0
1, 82440, Note_on_c, 1, 56, 127
1, 82440, Note_on_c, 1, 60, 127
1, 82488, Note_off_c, 1, 60, 0
1, 82500, Note_on_c, 1, 63, 127
1, 82536, Note_off_c, 1, 56, 0
1, 82548, Note_off_c, 1, 63, 0
1, 82560, Note_on_c, 1, 68, 127
1, 82608, Note_off_c, 1, 68, 0
1, 82620, Note_on_c, 1, 72, 127
1, 82668, Note_off_c, 1, 72, 0
1, 82680, Note_on_c, 1, 75, 127
1, 82728, Note_off_c, 1, 75, 0
1, 82740, Note_on_c, 1, 80, 127
1, 82788, Note_off_c, 1, 80, 0
1, 82800, Note_on_c, 1, 53, 127
1, 82848, Note_off_c, 1, 53, 0
1, 82860, Note_on_c, 1, 80, 127
1, 82860, Note_on_c, 1, 56, 127
1, 82908, Note_off_c, 1, 80, 0
1, 82908, Note_off_c, 1, 56, 0
1, 82920, Note_on_c, 1, 77, 127
1, 82920, Note_on_c, 1, 62, 127
1, 82968, Note_off_c, 1, 77, 0
1, 82968, Note_off_c, 1, 62, 0
1, 82980, Note_on_c, 1, 74, 127
1, 82980, Note_on_c, 1, 65, 127
1, 83028, Note_off_c, 1, 74, 0
1, 83028, Note_off_c, 1, 65, 0
1, 83040, Note_on_c, 1, 71, 127
1, 83100, Note_on_c, 1, 55, 127
1, 83136, Note_off_c, 1, 71, 0
1, 83148, Note_off_c, 1, 55, 0
1, 83160, Note_on_c, 1, 67, 127
1, 83160, Note_on_c, 1, 59, 127
1, 83208, Note_off_c, 1, 59, 0
1, 83220, Note_on_c, 1, 62, 127
1, 83256, Note_off_c, 1, 67, 0
1, 83268, Note_off_c, 1, 62, 0
1, 83280, Note_on_c, 1, 67, 127
1, 83328, Note_off_c, 1, 67, 0
1, 83340, Note_on_c, 1, 71, 127
1, 83388, Note_off_c, 1, 71, 0
1, 83400, Note_on_c, 1, 74, 127
1, 83448, Note_off_c, 1, 74, 0
1, 83460, Note_on_c, 1, 79, 127
1, 83508, Note_off_c, 1, 79, 0
1, 83520, Note_on_c, 1, 50, 127
1, 83568, Note_off_c, 1, 50, 0
1, 83580, Note_on_c, 1, 80, 127
1, 83580, Note_on_c, 1, 53, 127
1, 83628, Note_off_c, 1, 80, 0
1, 83628, Note_off_c, 1, 53, 0
1, 83640, Note_on_c, 1, 77, 127
1, 83640, Note_on_c, 1, 58, 127
1, 83688, Note_off_c, 1, 77, 0
1, 83688, Note_off_c, 1, 58, 0
1, 83700, Note_on_c, 1, 70, 127
1, 83700, Note_on_c, 1, 62, 127
1, 83748, Note_off_c, 1, 70, 0
1, 83748, Note_off_c, 1, 62, 0
1, 83760, Note_on_c, 1, 79, 127
1, 83820, Note_on_c, 1, 51, 127
1, 83856, Note_off_c, 1, 79, 0
1, 83868, Note_off_c, 1, 51, 0
1, 83880, Note_on_c, 1, 75, 127
1, 83880, Note_on_c, 1, 55, 127
1, 83928, Note_off_c, 1, 55, 0
1, 83940, Note_on_c, 1, 58, 127
1, 83976, Note_off_c, 1, 75, 0
1, 83988, Note_off_c, 1, 58, 0
1, 84000, Note_on_c, 1, 63, 127
1, 84048, Note_off_c, 1, 63, 0
1, 84060, Note_on_c, 1, 67, 127
1, 84108, Note_off_c, 1, 67, 0
1, 84120, Note_on_c, 1, 70, 127
1, 84168, Note_off_c, 1, 70, 0
1, 84180, Note_on_c, 1, 75, 127
1, 84228, Note_off_c, 1, 75, 0
1, 84240, Note_on_c, 1, 47, 127
1, 84288, Note_off_c, 1, 47, 0
1, 84300, Note_on_c, 1, 77, 127
1, 84300, Note_on_c, 1, 50, 127
1, 84348, Note_off_c, 1, 77, 0
1, 84348, Note_off_c, 1, 50, 0
1, 84360, Note_on_c, 1, 74, 127
1, 84360, Note_on_c, 1, 55, 127
1, 84408, Note_off_c, 1, 74, 0
1, 84408, Note_off_c, 1, 55, 0
1, 84420, Note_on_c, 1, 67, 127
1, 84420, Note_on_c, 1, 59, 127
1, 84468, Note_off_c, 1, 67, 0
1, 84468, Note_off_c, 1, 59, 0
1, 84480, Note_on_c, 1, 75, 127
1, 84540, Note_on_c, 1, 48, 127
1, 84576, Note_off_c, 1, 75, 0
1, 84588, Note_off_c, 1, 48, 0
1, 84600, Note_on_c, 1, 72, 127
1, 84600, Note_on_c, 1, 51, 127
1, 84648, Note_off_c, 1, 51, 0
1, 84660, Note_on_c, 1, 55, 127
1, 84696, Note_off_c, 1, 72, 0
1, 84708, Note_off_c, 1, 55, 0
1, 84720, Note_on_c, 1, 60, 127
1, 84768, Note_off_c, 1, 60, 0
1, 84780, Note_on_c, 1, 63, 127
1, 84828, Note_off_c, 1, 63, 0
1, 84840, Note_on_c, 1, 67, 127
1, 84888, Note_off_c, 1, 67, 0
1, 84900, Note_on_c, 1, 72, 127
1, 84948, Note_off_c, 1, 72, 0
1, 84960, Note_on_c, 1, 41, 127
1, 85008, Note_off_c, 1, 41, 0
1, 85020, Note_on_c, 1, 68, 127
1, 85020, Note_on_c, 1, 48, 127
1, 85068, Note_off_c, 1, 68, 0
1, 85068, Note_off_c, 1, 48, 0
1, 85080, Note_on_c, 1, 65, 127
1, 85080, Note_on_c, 1, 50, 127
1, 85128, Note_off_c, 1, 65, 0
1, 85128, Note_off_c, 1, 50, 0
1, 85140, Note_on_c, 1, 62, 127
1, 85140, Note_on_c, 1, 53, 127
1, 85188, Note_off_c, 1, 62, 0
1, 85188, Note_off_c, 1, 53, 0
1, 85200, Note_on_c, 1, 63, 127
1, 85215, Note_on_c, 1, 62, 127
1, 85230, Note_off_c, 1, 62, 0
1, 85260, Note_on_c, 1, 43, 127
1, 85296, Note_off_c, 1, 63, 0
1, 85308, Note_off_c, 1, 43, 0
1, 85320, Note_on_c, 1, 60, 127
1, 85320, Note_on_c, 1, 48, 127
1, 85368, Note_off_c, 1, 48, 0
1, 85380, Note_on_c, 1, 51, 127
1, 85416, Note_off_c, 1, 60, 0
1, 85428, Note_off_c, 1, 51, 0
1, 85440, Note_on_c, 1, 55, 127
1, 85488, Note_off_c, 1, 55, 0
1, 85500, Note_on_c, 1, 60, 127
1, 85548, Note_off_c, 1, 60, 0
1, 85560, Note_on_c, 1, 63, 127
1, 85608, Note_off_c, 1, 63, 0
1, 85620, Note_on_c, 1, 67, 127
1, 85668, Note_off_c, 1, 67, 0
1, 85680, Note_on_c, 1, 59, 127
1, 85680, Note_on_c, 1, 43, 127
1, 85728, Note_off_c, 1, 59, 0
1, 85728, Note_off_c, 1, 43, 0
1, 85740, Note_on_c, 1, 62, 127
1, 85740, Note_on_c, 1, 47, 127
1, 85788, Note_off_c, 1, 62, 0
1, 85788, Note_off_c, 1, 47, 0
1, 85800, Note_on_c, 1, 65, 127
1, 85800, Note_on_c, 1, 50, 127
1, 85848, Note_off_c, 1, 65, 0
1, 85848, Note_off_c, 1, 50, 0
1, 85860, Note_on_c, 1, 59, 127
1, 85860, Note_on_c, 1, 55, 127
1, 85908, Note_off_c, 1, 59, 0
1, 85908, Note_off_c, 1, 55, 0
1, 85920, Note_on_c, 1, 63, 127
1, 85920, Note_on_c, 1, 60, 127
1, 85920, Note_on_c, 1, 36, 127
1, 85968, Note_off_c, 1, 36, 0
1, 85980, Note_on_c, 1, 48, 127
1, 86016, Note_off_c, 1, 63, 0
1, 86016, Note_off_c, 1, 60, 0
1, 86028, Note_off_c, 1, 48, 0
1, 86040, Note_on_c, 1, 51, 127
1, 86088, Note_off_c, 1, 51, 0
1, 86100, Note_on_c, 1, 55, 127
1, 86148, Note_off_c, 1, 55, 0
1, 86160, Note_on_c, 1, 60, 127
1, 86208, Note_off_c, 1, 60, 0
1, 86220, Note_on_c, 1, 63, 127
1, 86268, Note_off_c, 1, 63, 0
1, 86280, Note_on_c, 1, 67, 127
1, 86328, Note_off_c, 1, 67, 0
1, 86340, Note_on_c, 1, 72, 127
1, 86388, Note_off_c, 1, 72, 0
1, 86400, Note_on_c, 1, 72, 127
1, 86448, Note_off_c, 1, 72, 0
1, 86460, Note_on_c, 1, 75, 127
1, 86508, Note_off_c, 1, 75, 0
1, 86520, Note_on_c, 1, 79, 127
1, 86568, Note_off_c, 1, 79, 0
1, 86580, Note_on_c, 1, 84, 127
1, 86628, Note_off_c, 1, 84, 0
1, 86640, Note_on_c, 1, 43, 127
1, 86688, Note_off_c, 1, 43, 0
1, 86700, Note_on_c, 1, 55, 127
1, 86748, Note_off_c, 1, 55, 0
1, 86760, Note_on_c, 1, 59, 127
1, 86808, Note_off_c, 1, 59, 0
1, 86820, Note_on_c, 1, 62, 127
1, 86868, Note_off_c, 1, 62, 0
1, 86880, Note_on_c, 1, 67, 127
1, 86928, Note_off_c, 1, 67, 0
1, 86940, Note_on_c, 1, 71, 127
1, 86988, Note_off_c, 1, 71, 0
1, 87000, Note_on_c, 1, 74, 127
1, 87048, Note_off_c, 1, 74, 0
1, 87060, Note_on_c, 1, 79, 127
1, 87108, Note_off_c, 1, 79, 0
1, 87120, Note_on_c, 1, 63, 127
1, 87168, Note_off_c, 1, 63, 0
1, 87180, Note_on_c, 1, 72, 127
1, 87228, Note_off_c, 1, 72, 0
1, 87240, Note_on_c, 1, 79, 127
1, 87288, Note_off_c, 1, 79, 0
1, 87300, Note_on_c, 1, 84, 127
1, 87348, Note_off_c, 1, 84, 0
1, 87360, Note_on_c, 1, 41, 127
1, 87408, Note_off_c, 1, 41, 0
1, 87420, Note_on_c, 1, 53, 127
1, 87468, Note_off_c, 1, 53, 0
1, 87480, Note_on_c, 1, 56, 127
1, 87528, Note_off_c, 1, 56, 0
1, 87540, Note_on_c, 1, 60, 127
1, 87588, Note_off_c, 1, 60, 0
1, 87600, Note_on_c, 1, 65, 127
1, 87648, Note_off_c, 1, 65, 0
1, 87660, Note_on_c, 1, 68, 127
1, 87708, Note_off_c, 1, 68, 0
1, 87720, Note_on_c, 1, 72, 127
1, 87768, Note_off_c, 1, 72, 0
1, 87780, Note_on_c, 1, 77, 127
1, 87828, Note_off_c, 1, 77, 0
1, 87840, Note_on_c, 1, 67, 127
1, 87888, Note_off_c, 1, 67, 0
1, 87900, Note_on_c, 1, 75, 127
1, 87948, Note_off_c, 1, 75, 0
1, 87960, Note_on_c, 1, 79, 127
1, 88008, Note_off_c, 1, 79, 0
1, 88020, Note_on_c, 1, 83, 127
1, 88068, Note_off_c, 1, 83, 0
1, 88080, Note_on_c, 1, 44, 127
1, 88128, Note_off_c, 1, 44, 0
1, 88140, Note_on_c, 1, 56, 127
1, 88188, Note_off_c, 1, 56, 0
1, 88200, Note_on_c, 1, 60, 127
1, 88248, Note_off_c, 1, 60, 0
1, 88260, Note_on_c, 1, 63, 127
1, 88308, Note_off_c, 1, 63, 0
1, 88320, Note_on_c, 1, 68, 127
1, 88368, Note_off_c, 1, 68, 0
1, 88380, Note_on_c, 1, 72, 127
1, 88428, Note_off_c, 1, 72, 0
1, 88440, Note_on_c, 1, 75, 127
1, 88488, Note_off_c, 1, 75, 0
1, 88500, Note_on_c, 1, 80, 127
1, 88548, Note_off_c, 1, 80, 0
1, 88560, Note_on_c, 1, 65, 127
1, 88608, Note_off_c, 1, 65, 0
1, 88620, Note_on_c, 1, 74, 127
1, 88668, Note_off_c, 1, 74, 0
1, 88680, Note_on_c, 1, 80, 127
1, 88728, Note_off_c, 1, 80, 0
1, 88740, Note_on_c, 1, 84, 127
1, 88788, Note_off_c, 1, 84, 0
1, 88800, Note_on_c, 1, 43, 127
1, 88848, Note_off_c, 1, 43, 0
1, 88860, Note_on_c, 1, 55, 127
1, 88908, Note_off_c, 1, 55, 0
1, 88920, Note_on_c, 1, 59, 127
1, 88968, Note_off_c, 1, 59, 0
1, 88980, Note_on_c, 1, 62, 127
1, 89028, Note_off_c, 1, 62, 0
1, 89040, Note_on_c, 1, 67, 127
1, 89088, Note_off_c, 1, 67, 0
1, 89100, Note_on_c, 1, 71, 127
1, 89148, Note_off_c, 1, 71, 0
1, 89160, Note_on_c, 1, 74, 127
1, 89208, Note_off_c, 1, 74, 0
1, 89220, Note_on_c, 1, 79, 127
1, 89268, Note_off_c, 1, 79, 0
1, 89280, Note_on_c, 1, 62, 127
1, 89328, Note_off_c, 1, 62, 0
1, 89340, Note_on_c, 1, 74, 127
1, 89388, Note_off_c, 1, 74, 0
1, 89400, Note_on_c, 1, 77, 127
1, 89448, Note_off_c, 1, 77, 0
1, 89460, Note_on_c, 1, 83, 127
1, 89508, Note_off_c, 1, 83, 0
1, 89520, Note_on_c, 1, 39, 127
1, 89568, Note_off_c, 1, 39, 0
1, 89580, Note_on_c, 1, 51, 127
1, 89628, Note_off_c, 1, 51, 0
1, 89640, Note_on_c, 1, 55, 127
1, 89688, Note_off_c, 1, 55, 0
1, 89700, Note_on_c, 1, 60, 127
1, 89748, Note_off_c, 1, 60, 0
1, 89760, Note_on_c, 1, 63, 127
1, 89808, Note_off_c, 1, 63, 0
1, 89820, Note_on_c, 1, 67, 127
1, 89868, Note_off_c, 1, 67, 0
1, 89880, Note_on_c, 1, 72, 127
1, 89928, Note_off_c, 1, 72, 0
1, 89940, Note_on_c, 1, 75, 127
1, 89988, Note_off_c, 1, 75, 0
1, 90000, Note_on_c, 1, 59, 127
1, 90048, Note_off_c, 1, 59, 0
1, 90060, Note_on_c, 1, 67, 127
1, 90108, Note_off_c, 1, 67, 0
1, 90120, Note_on_c, 1, 74, 127
1, 90168, Note_off_c, 1, 74, 0
1, 90180, Note_on_c, 1, 77, 127
1, 90228, Note_off_c, 1, 77, 0
1, 90240, Note_on_c, 1, 36, 127
1, 90288, Note_off_c, 1, 36, 0
1, 90300, Note_on_c, 1, 48, 127
1, 90348, Note_off_c, 1, 48, 0
1, 90360, Note_on_c, 1, 51, 127
1, 90408, Note_off_c, 1, 51, 0
1, 90420, Note_on_c, 1, 55, 127
1, 90468, Note_off_c, 1, 55, 0
1, 90480, Note_on_c, 1, 60, 127
1, 90528, Note_off_c, 1, 60, 0
1, 90540, Note_on_c, 1, 63, 127
1, 90588, Note_off_c, 1, 63, 0
1, 90600, Note_on_c, 1, 67, 127
1, 90648, Note_off_c, 1, 67, 0
1, 90660, Note_on_c, 1, 72, 127
1, 90708, Note_off_c, 1, 72, 0
1, 90720, Note_on_c, 1, 53, 127
1, 90768, Note_off_c, 1, 53, 0
1, 90780, Note_on_c, 1, 62, 127
1, 90828, Note_off_c, 1, 62, 0
1, 90840, Note_on_c, 1, 68, 127
1, 90888, Note_off_c, 1, 68, 0
1, 90900, Note_on_c, 1, 77, 127
1, 90948, Note_off_c, 1, 77, 0
1, 90960, Note_on_c, 1, 43, 127
1, 91008, Note_off_c, 1, 43, 0
1, 91020, Note_on_c, 1, 55, 127
1, 91068, Note_off_c, 1, 55, 0
1, 91080, Note_on_c, 1, 60, 127
1, 91128, Note_off_c, 1, 60, 0
1, 91140, Note_on_c, 1, 63, 127
1, 91188, Note_off_c, 1, 63, 0
1, 91200, Note_on_c, 1, 67, 127
1, 91248, Note_off_c, 1, 67, 0
1, 91260, Note_on_c, 1, 72, 127
1, 91308, Note_off_c, 1, 72, 0
1, 91320, Note_on_c, 1, 75, 127
1, 91368, Note_off_c, 1, 75, 0
1, 91380, Note_on_c, 1, 79, 127
1, 91428, Note_off_c, 1, 79, 0
1, 91440, Note_on_c, 1, 55, 127
1, 91488, Note_off_c, 1, 55, 0
1, 91500, Note_on_c, 1, 74, 127
1, 91548, Note_off_c, 1, 74, 0
1, 91560, Note_on_c, 1, 77, 127
1, 91608, Note_off_c, 1, 77, 0
1, 91620, Note_on_c, 1, 83, 127
1, 91668, Note_off_c, 1, 83, 0
1, 91680, Note_on_c, 1, 48, 127
1, 91728, Note_off_c, 1, 48, 0
1, 91740, Note_on_c, 1, 60, 127
1, 91788, Note_off_c, 1, 60, 0
1, 91800, Note_on_c, 1, 63, 127
1, 91848, Note_off_c, 1, 63, 0
1, 91860, Note_on_c, 1, 67, 127
1, 91908, Note_off_c, 1, 67, 0
1, 91920, Note_on_c, 1, 72, 127
1, 91968, Note_off_c, 1, 72, 0
1, 91980, Note_on_c, 1, 75, 127
1, 92028, Note_off_c, 1, 75, 0
1, 92040, Note_on_c, 1, 79, 127
1, 92088, Note_off_c, 1, 79, 0
1, 92100, Note_on_c, 1, 84, 127
1, 92148, Note_off_c, 1, 84, 0
1, 92160, Note_on_c, 1, 48, 127
1, 92280, Note_on_c, 1, 63, 127
1, 92280, Note_on_c, 1, 67, 127
1, 92280, Note_on_c, 1, 72, 127
1, 92280, Note_on_c, 1, 60, 127
1, 92280, Note_on_c, 1, 55, 127
1, 92352, Note_off_c, 1, 48, 0
1, 92376, Note_off_c, 1, 63, 0
1, 92376, Note_off_c, 1, 67, 0
1, 92376, Note_off_c, 1, 72, 0
1, 92376, Note_off_c, 1, 60, 0
1, 92376, Note_off_c, 1, 55, 0
1, 92400, Note_on_c, 1, 55, 127
1, 92460, Note_on_c, 1, 72, 127
1, 92508, Note_off_c, 1, 72, 0
1, 92520, Note_on_c, 1, 74, 127
1, 92580, Note_on_c, 1, 69, 127
1, 92628, Note_off_c, 1, 69, 0
1, 92640, Note_on_c, 1, 71, 127
1, 92700, Note_on_c, 1, 66, 127
1, 92748, Note_off_c, 1, 66, 0
1, 92760, Note_on_c, 1, 67, 127
1, 92784, Note_off_c, 1, 55, 0
1, 92820, Note_on_c, 1, 62, 127
1, 92868, Note_off_c, 1, 62, 0
1, 92880, Note_on_c, 1, 63, 127
1, 92880, Note_on_c, 1, 51, 127
1, 92976, Note_off_c, 1, 74, 0
1, 92976, Note_off_c, 1, 71, 0
1, 92976, Note_off_c, 1, 67, 0
1, 92976, Note_off_c, 1, 63, 0
1, 93000, Note_on_c, 1, 60, 127
1, 93096, Note_off_c, 1, 60, 0
1, 93105, Note_off_c, 1, 51, 0
1, 93120, Note_on_c, 1, 53, 127
1, 93180, Note_on_c, 1, 70, 127
1, 93228, Note_off_c, 1, 70, 0
1, 93240, Note_on_c, 1, 72, 127
1, 93300, Note_on_c, 1, 67, 127
1, 93348, Note_off_c, 1, 67, 0
1, 93360, Note_on_c, 1, 68, 127
1, 93420, Note_on_c, 1, 64, 127
1, 93468, Note_off_c, 1, 64, 0
1, 93480, Note_on_c, 1, 65, 127
1, 93504, Note_off_c, 1, 53, 0
1, 93540, Note_on_c, 1, 60, 127
1, 93552, Note_off_c, 1, 68, 0
1, 93576, Note_off_c, 1, 65, 0
1, 93600, Note_on_c, 1, 63, 127
1, 93600, Note_on_c, 1, 55, 127
1, 93696, Note_off_c, 1, 72, 0
1, 93696, Note_off_c, 1, 60, 0
1, 93696, Note_off_c, 1, 63, 0
1, 93720, Note_on_c, 1, 62, 127
1, 93720, Note_on_c, 1, 71, 127
1, 93816, Note_off_c, 1, 55, 0
1, 93816, Note_off_c, 1, 62, 0
1, 93816, Note_off_c, 1, 71, 0
1, 93840, Note_on_c, 1, 56, 127
1, 93900, Note_on_c, 1, 74, 127
1, 93948, Note_off_c, 1, 74, 0
1, 93960, Note_on_c, 1, 75, 127
1, 94020, Note_on_c, 1, 71, 127
1, 94068, Note_off_c, 1, 71, 0
1, 94080, Note_on_c, 1, 72, 127
1, 94140, Note_on_c, 1, 67, 127
1, 94188, Note_off_c, 1, 67, 0
1, 94200, Note_on_c, 1, 68, 127
1, 94224, Note_off_c, 1, 56, 0
1, 94260, Note_on_c, 1, 63, 127
1, 94308, Note_off_c, 1, 63, 0
1, 94320, Note_on_c, 1, 65, 127
1, 94320, Note_on_c, 1, 53, 127
1, 94416, Note_off_c, 1, 75, 0
1, 94416, Note_off_c, 1, 72, 0
1, 94416, Note_off_c, 1, 68, 0
1, 94416, Note_off_c, 1, 65, 0
1, 94440, Note_on_c, 1, 62, 127
1, 94512, Note_off_c, 1, 53, 0
1, 94536, Note_off_c, 1, 62, 0
1, 94560, Note_on_c, 1, 55, 127
1, 94620, Note_on_c, 1, 72, 127
1, 94668, Note_off_c, 1, 72, 0
1, 94680, Note_on_c, 1, 74, 127
1, 94740, Note_on_c, 1, 69, 127
1, 94788, Note_off_c, 1, 69, 0
1, 94800, Note_on_c, 1, 71, 127
1, 94860, Note_on_c, 1, 66, 127
1, 94908, Note_off_c, 1, 66, 0
1, 94920, Note_on_c, 1, 67, 127
1, 94944, Note_off_c, 1, 55, 0
1, 94980, Note_on_c, 1, 62, 127
1, 95016, Note_off_c, 1, 67, 0
1, 95040, Note_on_c, 1, 65, 127
1, 95040, Note_on_c, 1, 50, 127
1, 95136, Note_off_c, 1, 74, 0
1, 95136, Note_off_c, 1, 71, 0
1, 95136, Note_off_c, 1, 62, 0
1, 95136, Note_off_c, 1, 65, 0
1, 95160, Note_on_c, 1, 77, 127
1, 95232, Note_off_c, 1, 50, 0
1, 95256, Note_off_c, 1, 77, 0
1, 95280, Note_on_c, 1, 51, 127
1, 95340, Note_on_c, 1, 78, 127
1, 95388, Note_off_c, 1, 78, 0
1, 95400, Note_on_c, 1, 79, 127
1, 95460, Note_on_c, 1, 74, 127
1, 95508, Note_off_c, 1, 74, 0
1, 95520, Note_on_c, 1, 75, 127
1, 95580, Note_on_c, 1, 71, 127
1, 95628, Note_off_c, 1, 71, 0
1, 95640, Note_on_c, 1, 72, 127
1, 95664, Note_off_c, 1, 51, 0
1, 95700, Note_on_c, 1, 66, 127
1, 95712, Note_off_c, 1, 75, 0
1, 95736, Note_off_c, 1, 72, 0
1, 95748, Note_off_c, 1, 66, 0
1, 95760, Note_on_c, 1, 67, 127
1, 95760, Note_on_c, 1, 47, 127
1, 95856, Note_off_c, 1, 79, 0
1, 95856, Note_off_c, 1, 67, 0
1, 95880, Note_on_c, 1, 77, 127
1, 95880, Note_on_c, 1, 62, 127
1, 95880, Note_on_c, 1, 55, 127
1, 95952, Note_off_c, 1, 47, 0
1, 95976, Note_off_c, 1, 77, 0
1, 95976, Note_off_c, 1, 62, 0
1, 95976, Note_off_c, 1, 55, 0
1, 96000, Note_on_c, 1, 48, 127
1, 96060, Note_on_c, 1, 77, 127
1, 96108, Note_off_c, 1, 77, 0
1, 96120, Note_on_c, 1, 79, 127
1, 96180, Note_on_c, 1, 74, 127
1, 96228, Note_off_c, 1, 74, 0
1, 96240, Note_on_c, 1, 75, 127
1, 96300, Note_on_c, 1, 71, 127
1, 96348, Note_off_c, 1, 71, 0
1, 96360, Note_on_c, 1, 72, 127
1, 96384, Note_off_c, 1, 48, 0
1, 96420, Note_on_c, 1, 67, 127
1, 96468, Note_off_c, 1, 67, 0
1, 96480, Note_on_c, 1, 68, 127
1, 96480, Note_on_c, 1, 41, 127
1, 96576, Note_off_c, 1, 79, 0
1, 96576, Note_off_c, 1, 75, 0
1, 96576, Note_off_c, 1, 72, 0
1, 96576, Note_off_c, 1, 68, 0
1, 96600, Note_on_c, 1, 62, 127
1, 96672, Note_off_c, 1, 41, 0
1, 96696, Note_off_c, 1, 62, 0
1, 96720, Note_on_c, 1, 43, 127
1, 96780, Note_on_c, 1, 77, 127
1, 96828, Note_off_c, 1, 77, 0
1, 96840, Note_on_c, 1, 79, 127
1, 96900, Note_on_c, 1, 74, 127
1, 96948, Note_off_c, 1, 74, 0
1, 96960, Note_on_c, 1, 75, 127
1, 97020, Note_on_c, 1, 71, 127
1, 97068, Note_off_c, 1, 71, 0
1, 97080, Note_on_c, 1, 72, 127
1, 97140, Note_on_c, 1, 66, 127
1, 97152, Note_off_c, 1, 75, 0
1, 97188, Note_off_c, 1, 66, 0
1, 97200, Note_on_c, 1, 67, 127
1, 97296, Note_off_c, 1, 43, 0
1, 97296, Note_off_c, 1, 79, 0
1, 97296, Note_off_c, 1, 72, 0
1, 97296, Note_off_c, 1, 67, 0
1, 97320, Note_on_c, 1, 67, 127
1, 97320, Note_on_c, 1, 71, 127
1, 97320, Note_on_c, 1, 74, 127
1, 97320, Note_on_c, 1, 77, 127
1, 97320, Note_on_c, 1, 62, 127
1, 97416, Note_off_c, 1, 67, 0
1, 97416, Note_off_c, 1, 71, 0
1, 97416, Note_off_c, 1, 74, 0
1, 97416, Note_off_c, 1, 77, 0
1, 97416, Note_off_c, 1, 62, 0
1, 97440, Note_on_c, 1, 36, 127
1, 97500, Note_on_c, 1, 77, 127
1, 97548, Note_off_c, 1, 77, 0
1, 97560, Note_on_c, 1, 79, 127
1, 97620, Note_on_c, 1, 74, 127
1, 97668, Note_off_c, 1, 74, 0
1, 97740, Note_on_c, 1, 71, 127
1, 97788, Note_off_c, 1, 71, 0
1, 97800, Note_on_c, 1, 72, 127
1, 97824, Note_off_c, 1, 36, 0
1, 97860, Note_on_c, 1, 66, 127
1, 97896, Note_off_c, 1, 72, 0
1, 97908, Note_off_c, 1, 66, 0
1, 97920, Note_on_c, 1, 67, 127
1, 97920, Note_on_c, 1, 48, 127
1, 97952, Note_off_c, 1, 79, 0
1, 98000, Note_on_c, 1, 75, 127
1, 98032, Note_off_c, 1, 75, 0
1, 98040, Note_on_c, 1, 60, 127
1, 98072, Note_off_c, 1, 67, 0
1, 98080, Note_on_c, 1, 65, 127
1, 98112, Note_off_c, 1, 48, 0
1, 98112, Note_off_c, 1, 65, 0
1, 98120, Note_on_c, 1, 63, 127
1, 98136, Note_off_c, 1, 60, 0
1, 98152, Note_off_c, 1, 63, 0
1, 98160, Note_on_c, 1, 72, 127
1, 98160, Note_on_c, 1, 63, 127
1, 98160, Note_on_c, 1, 55, 127
1, 98192, Note_off_c, 1, 72, 0
1, 98192, Note_off_c, 1, 63, 0
1, 98200, Note_on_c, 1, 62, 127
1, 98200, Note_on_c, 1, 71, 127
1, 98232, Note_off_c, 1, 62, 0
1, 98232, Note_off_c, 1, 71, 0
1, 98240, Note_on_c, 1, 69, 127
1, 98240, Note_on_c, 1, 60, 127
1, 98272, Note_off_c, 1, 69, 0
1, 98272, Note_off_c, 1, 60, 0
1, 98320, Note_on_c, 1, 59, 127
1, 98352, Note_off_c, 1, 59, 0
1, 98360, Note_on_c, 1, 57, 127
1, 98392, Note_off_c, 1, 57, 0
1, 98480, Note_on_c, 1, 74, 127
1, 98512, Note_off_c, 1, 74, 0
1, 98544, Note_off_c, 1, 55, 0
1, 98560, Note_on_c, 1, 75, 127
1, 98560, Note_on_c, 1, 60, 127
1, 98592, Note_off_c, 1, 75, 0
1, 98592, Note_off_c, 1, 60, 0
1, 98600, Note_on_c, 1, 77, 127
1, 98600, Note_on_c, 1, 62, 127
1, 98632, Note_off_c, 1, 77, 0
1, 98632, Note_off_c, 1, 62, 0
1, 98640, Note_on_c, 1, 60, 127
1, 98640, Note_on_c, 1, 75, 127
1, 98640, Note_on_c, 1, 51, 127
1, 98672, Note_off_c, 1, 60, 0
1, 98672, Note_off_c, 1, 75, 0
1, 98680, Note_on_c, 1, 62, 127
1, 98680, Note_on_c, 1, 77, 127
1, 98712, Note_off_c, 1, 62, 0
1, 98712, Note_off_c, 1, 77, 0
1, 98720, Note_on_c, 1, 79, 127
1, 98720, Note_on_c, 1, 63, 127
1, 98752, Note_off_c, 1, 79, 0
1, 98752, Note_off_c, 1, 63, 0
1, 98800, Note_on_c, 1, 65, 127
1, 98800, Note_on_c, 1, 80, 127
1, 98832, Note_off_c, 1, 65, 0
1, 98832, Note_off_c, 1, 80, 0
1, 98840, Note_on_c, 1, 67, 127
1, 98840, Note_on_c, 1, 82, 127
1, 98865, Note_off_c, 1, 51, 0
1, 98872, Note_off_c, 1, 67, 0
1, 98872, Note_off_c, 1, 82, 0
1, 98880, Note_on_c, 1, 65, 127
1, 98880, Note_on_c, 1, 80, 127
1, 98880, Note_on_c, 1, 53, 127
1, 98912, Note_off_c, 1, 65, 0
1, 98912, Note_off_c, 1, 80, 0
1, 98920, Note_on_c, 1, 67, 127
1, 98920, Note_on_c, 1, 79, 127
1, 98952, Note_off_c, 1, 67, 0
1, 98952, Note_off_c, 1, 79, 0
1, 98960, Note_on_c, 1, 77, 127
1, 98960, Note_on_c, 1, 68, 127
1, 98992, Note_off_c, 1, 77, 0
1, 98992, Note_off_c, 1, 68, 0
1, 99040, Note_on_c, 1, 75, 127
1, 99072, Note_off_c, 1, 75, 0
1, 99080, Note_on_c, 1, 74, 127
1, 99112, Note_off_c, 1, 74, 0
1, 99160, Note_on_c, 1, 63, 127
1, 99192, Note_off_c, 1, 63, 0
1, 99200, Note_on_c, 1, 62, 127
1, 99232, Note_off_c, 1, 62, 0
1, 99264, Note_off_c, 1, 53, 0
1, 99280, Note_on_c, 1, 63, 127
1, 99280, Note_on_c, 1, 79, 127
1, 99312, Note_off_c, 1, 63, 0
1, 99312, Note_off_c, 1, 79, 0
1, 99320, Note_on_c, 1, 65, 127
1, 99320, Note_on_c, 1, 80, 127
1, 99352, Note_off_c, 1, 65, 0
1, 99352, Note_off_c, 1, 80, 0
1, 99360, Note_on_c, 1, 65, 127
1, 99360, Note_on_c, 1, 71, 127
1, 99360, Note_on_c, 1, 55, 127
1, 99360, Note_on_c, 1, 72, 127
1, 99372, Note_off_c, 1, 72, 0
1, 99392, Note_off_c, 1, 65, 0
1, 99400, Note_on_c, 1, 67, 127
1, 99432, Note_off_c, 1, 67, 0
1, 99440, Note_on_c, 1, 68, 127
1, 99472, Note_off_c, 1, 68, 0
1, 99552, Note_off_c, 1, 55, 0
1, 99576, Note_off_c, 1, 71, 0
1, 99600, Note_on_c, 1, 84, 127
1, 99600, Note_on_c, 1, 63, 127
1, 99600, Note_on_c, 1, 56, 127
1, 99632, Note_off_c, 1, 84, 0
1, 99640, Note_on_c, 1, 82, 127
1, 99672, Note_off_c, 1, 82, 0
1, 99680, Note_on_c, 1, 80, 127
1, 99696, Note_off_c, 1, 63, 0
1, 99712, Note_off_c, 1, 80, 0
1, 99720, Note_on_c, 1, 72, 127
1, 99752, Note_off_c, 1, 72, 0
1, 99760, Note_on_c, 1, 70, 127
1, 99760, Note_on_c, 1, 79, 127
1, 99792, Note_off_c, 1, 70, 0
1, 99792, Note_off_c, 1, 79, 0
1, 99800, Note_on_c, 1, 77, 127
1, 99800, Note_on_c, 1, 68, 127
1, 99832, Note_off_c, 1, 77, 0
1, 99832, Note_off_c, 1, 68, 0
1, 99880, Note_on_c, 1, 75, 127
1, 99880, Note_on_c, 1, 67, 127
1, 99912, Note_off_c, 1, 75, 0
1, 99912, Note_off_c, 1, 67, 0
1, 99920, Note_on_c, 1, 65, 127
1, 99920, Note_on_c, 1, 74, 127
1, 99952, Note_off_c, 1, 65, 0
1, 99952, Note_off_c, 1, 74, 0
1, 99984, Note_off_c, 1, 56, 0
1, 100000, Note_on_c, 1, 75, 127
1, 100000, Note_on_c, 1, 63, 127
1, 100032, Note_off_c, 1, 75, 0
1, 100032, Note_off_c, 1, 63, 0
1, 100040, Note_on_c, 1, 62, 127
1, 100040, Note_on_c, 1, 77, 127
1, 100072, Note_off_c, 1, 62, 0
1, 100072, Note_off_c, 1, 77, 0
1, 100080, Note_on_c, 1, 62, 127
1, 100080, Note_on_c, 1, 77, 127
1, 100080, Note_on_c, 1, 53, 127
1, 100112, Note_off_c, 1, 62, 0
1, 100112, Note_off_c, 1, 77, 0
1, 100120, Note_on_c, 1, 63, 127
1, 100120, Note_on_c, 1, 79, 127
1, 100152, Note_off_c, 1, 63, 0
1, 100152, Note_off_c, 1, 79, 0
1, 100160, Note_on_c, 1, 65, 127
1, 100160, Note_on_c, 1, 81, 127
1, 100192, Note_off_c, 1, 65, 0
1, 100192, Note_off_c, 1, 81, 0
1, 100240, Note_on_c, 1, 67, 127
1, 100240, Note_on_c, 1, 83, 127
1, 100272, Note_off_c, 1, 53, 0
1, 100272, Note_off_c, 1, 67, 0
1, 100272, Note_off_c, 1, 83, 0
1, 100280, Note_on_c, 1, 68, 127
1, 100280, Note_on_c, 1, 84, 127
1, 100312, Note_off_c, 1, 68, 0
1, 100312, Note_off_c, 1, 84, 0
1, 100320, Note_on_c, 1, 67, 127
1, 100320, Note_on_c, 1, 83, 127
1, 100320, Note_on_c, 1, 55, 127
1, 100352, Note_off_c, 1, 67, 0
1, 100360, Note_on_c, 1, 69, 127
1, 100392, Note_off_c, 1, 69, 0
1, 100400, Note_on_c, 1, 71, 127
1, 100432, Note_off_c, 1, 71, 0
1, 100464, Note_off_c, 1, 83, 0
1, 100480, Note_on_c, 1, 72, 127
1, 100500, Note_on_c, 1, 81, 127
1, 100512, Note_off_c, 1, 72, 0
1, 100520, Note_on_c, 1, 74, 127
1, 100548, Note_off_c, 1, 81, 0
1, 100552, Note_off_c, 1, 74, 0
1, 100600, Note_on_c, 1, 75, 127
1, 100632, Note_off_c, 1, 75, 0
1, 100640, Note_on_c, 1, 77, 127
1, 100672, Note_off_c, 1, 77, 0
1, 100704, Note_off_c, 1, 55, 0
1, 100720, Note_on_c, 1, 79, 127
1, 100752, Note_off_c, 1, 79, 0
1, 100760, Note_on_c, 1, 80, 127
1, 100792, Note_off_c, 1, 80, 0
1, 100800, Note_on_c, 1, 80, 127
1, 100800, Note_on_c, 1, 50, 127
1, 100832, Note_off_c, 1, 80, 0
1, 100840, Note_on_c, 1, 79, 127
1, 100872, Note_off_c, 1, 79, 0
1, 100880, Note_on_c, 1, 77, 127
1, 100912, Note_off_c, 1, 77, 0
1, 100920, Note_on_c, 1, 59, 127
1, 100960, Note_on_c, 1, 75, 127
1, 100992, Note_off_c, 1, 50, 0
1, 100992, Note_off_c, 1, 75, 0
1, 101000, Note_on_c, 1, 74, 127
1, 101016, Note_off_c, 1, 59, 0
1, 101032, Note_off_c, 1, 74, 0
1, 101040, Note_on_c, 1, 60, 127
1, 101040, Note_on_c, 1, 79, 127
1, 101040, Note_on_c, 1, 51, 127
1, 101072, Note_off_c, 1, 60, 0
1, 101080, Note_on_c, 1, 62, 127
1, 101112, Note_off_c, 1, 62, 0
1, 101120, Note_on_c, 1, 63, 127
1, 101152, Note_off_c, 1, 63, 0
1, 101200, Note_on_c, 1, 65, 127
1, 101232, Note_off_c, 1, 79, 0
1, 101232, Note_off_c, 1, 65, 0
1, 101240, Note_on_c, 1, 67, 127
1, 101272, Note_off_c, 1, 67, 0
1, 101320, Note_on_c, 1, 69, 127
1, 101352, Note_off_c, 1, 69, 0
1, 101360, Note_on_c, 1, 71, 127
1, 101392, Note_off_c, 1, 71, 0
1, 101424, Note_off_c, 1, 51, 0
1, 101440, Note_on_c, 1, 72, 127
1, 101472, Note_off_c, 1, 72, 0
1, 101480, Note_on_c, 1, 74, 127
1, 101512, Note_off_c, 1, 74, 0
1, 101520, Note_on_c, 1, 74, 127
1, 101520, Note_on_c, 1, 47, 127
1, 101552, Note_off_c, 1, 74, 0
1, 101560, Note_on_c, 1, 75, 127
1, 101592, Note_off_c, 1, 75, 0
1, 101600, Note_on_c, 1, 77, 127
1, 101632, Note_off_c, 1, 77, 0
1, 101640, Note_on_c, 1, 67, 127
1, 101712, Note_off_c, 1, 47, 0
1, 101760, Note_on_c, 1, 48, 127
1, 101792, Note_off_c, 1, 67, 0
1, 101800, Note_on_c, 1, 65, 127
1, 101832, Note_off_c, 1, 65, 0
1, 101840, Note_on_c, 1, 63, 127
1, 101872, Note_off_c, 1, 63, 0
1, 101880, Note_on_c, 1, 79, 127
1, 101912, Note_off_c, 1, 79, 0
1, 101920, Note_on_c, 1, 62, 127
1, 101952, Note_off_c, 1, 62, 0
1, 101960, Note_on_c, 1, 60, 127
1, 101992, Note_off_c, 1, 60, 0
1, 102040, Note_on_c, 1, 58, 127
1, 102072, Note_off_c, 1, 58, 0
1, 102080, Note_on_c, 1, 72, 127
1, 102080, Note_on_c, 1, 56, 127
1, 102112, Note_off_c, 1, 72, 0
1, 102112, Note_off_c, 1, 56, 0
1, 102120, Note_on_c, 1, 84, 127
1, 102144, Note_off_c, 1, 48, 0
1, 102152, Note_off_c, 1, 84, 0
1, 102160, Note_on_c, 1, 82, 127
1, 102160, Note_on_c, 1, 55, 127
1, 102192, Note_off_c, 1, 82, 0
1, 102192, Note_off_c, 1, 55, 0
1, 102200, Note_on_c, 1, 80, 127
1, 102200, Note_on_c, 1, 53, 127
1, 102232, Note_off_c, 1, 80, 0
1, 102232, Note_off_c, 1, 53, 0
1, 102240, Note_on_c, 1, 80, 127
1, 102240, Note_on_c, 1, 53, 127
1, 102240, Note_on_c, 1, 41, 127
1, 102272, Note_off_c, 1, 80, 0
1, 102272, Note_off_c, 1, 53, 0
1, 102280, Note_on_c, 1, 79, 127
1, 102280, Note_on_c, 1, 51, 127
1, 102312, Note_off_c, 1, 79, 0
1, 102312, Note_off_c, 1, 51, 0
1, 102320, Note_on_c, 1, 77, 127
1, 102320, Note_on_c, 1, 50, 127
1, 102352, Note_off_c, 1, 77, 0
1, 102352, Note_off_c, 1, 50, 0
1, 102400, Note_on_c, 1, 75, 127
1, 102400, Note_on_c, 1, 48, 127
1, 102432, Note_off_c, 1, 41, 0
1, 102432, Note_off_c, 1, 75, 0
1, 102432, Note_off_c, 1, 48, 0
1, 102440, Note_on_c, 1, 74, 127
1, 102440, Note_on_c, 1, 47, 127
1, 102472, Note_off_c, 1, 74, 0
1, 102472, Note_off_c, 1, 47, 0
1, 102480, Note_on_c, 1, 74, 127
1, 102480, Note_on_c, 1, 47, 127
1, 102480, Note_on_c, 1, 43, 127
1, 102512, Note_off_c, 1, 74, 0
1, 102512, Note_off_c, 1, 47, 0
1, 102520, Note_on_c, 1, 72, 127
1, 102520, Note_on_c, 1, 45, 127
1, 102552, Note_off_c, 1, 72, 0
1, 102552, Note_off_c, 1, 45, 0
1, 102560, Note_on_c, 1, 71, 127
1, 102592, Note_off_c, 1, 71, 0
1, 102760, Note_on_c, 1, 75, 127
1, 102760, Note_on_c, 1, 48, 127
1, 102792, Note_off_c, 1, 75, 0
1, 102792, Note_off_c, 1, 48, 0
1, 102800, Note_on_c, 1, 77, 127
1, 102800, Note_on_c, 1, 50, 127
1, 102832, Note_off_c, 1, 77, 0
1, 102832, Note_off_c, 1, 50, 0
1, 102880, Note_on_c, 1, 79, 127
1, 102880, Note_on_c, 1, 51, 127
1, 102912, Note_off_c, 1, 79, 0
1, 102912, Note_off_c, 1, 51, 0
1, 102920, Note_on_c, 1, 80, 127
1, 102920, Note_on_c, 1, 53, 127
1, 102952, Note_off_c, 1, 80, 0
1, 102952, Note_off_c, 1, 53, 0
1, 103000, Note_on_c, 1, 55, 127
1, 103032, Note_off_c, 1, 55, 0
1, 103040, Note_on_c, 1, 56, 127
1, 103056, Note_off_c, 1, 43, 0
1, 103072, Note_off_c, 1, 56, 0
1, 103200, Note_on_c, 1, 72, 127
1, 103200, Note_on_c, 1, 51, 127
1, 103200, Note_on_c, 1, 36, 127
1, 103232, Note_off_c, 1, 51, 0
1, 103240, Note_on_c, 1, 53, 127
1, 103272, Note_off_c, 1, 53, 0
1, 103280, Note_on_c, 1, 50, 127
1, 103296, Note_off_c, 1, 72, 0
1, 103312, Note_off_c, 1, 50, 0
1, 103320, Note_on_c, 1, 67, 127
1, 103320, Note_on_c, 1, 48, 127
1, 103352, Note_off_c, 1, 67, 0
1, 103360, Note_on_c, 1, 65, 127
1, 103392, Note_off_c, 1, 65, 0
1, 103400, Note_on_c, 1, 63, 127
1, 103416, Note_off_c, 1, 48, 0
1, 103432, Note_off_c, 1, 63, 0
1, 103440, Note_on_c, 1, 43, 127
1, 103472, Note_off_c, 1, 43, 0
1, 103480, Note_on_c, 1, 62, 127
1, 103480, Note_on_c, 1, 41, 127
1, 103512, Note_off_c, 1, 62, 0
1, 103512, Note_off_c, 1, 41, 0
1, 103520, Note_on_c, 1, 60, 127
1, 103520, Note_on_c, 1, 39, 127
1, 103552, Note_off_c, 1, 60, 0
1, 103552, Note_off_c, 1, 39, 0
1, 103584, Note_off_c, 1, 36, 0
1, 103600, Note_on_c, 1, 38, 127
1, 103632, Note_off_c, 1, 38, 0
1, 103680, Note_on_c, 1, 72, 127
1, 103680, Note_on_c, 1, 63, 127
1, 103680, Note_on_c, 1, 67, 127
1, 103680, Note_on_c, 1, 36, 127
1, 103800, Note_on_c, 1, 48, 127
1, 103872, Note_off_c, 1, 36, 0
1, 103913, Note_off_c, 1, 48, 0
1, 103920, Note_on_c, 1, 55, 127
1, 104016, Note_off_c, 1, 72, 0
1, 104016, Note_off_c, 1, 63, 0
1, 104040, Note_on_c, 1, 62, 127
1, 104040, Note_on_c, 1, 71, 127
1, 104088, Note_off_c, 1, 62, 0
1, 104088, Note_off_c, 1, 71, 0
1, 104100, Note_on_c, 1, 69, 127
1, 104100, Note_on_c, 1, 60, 127
1, 104148, Note_off_c, 1, 69, 0
1, 104148, Note_off_c, 1, 60, 0
1, 104304, Note_off_c, 1, 67, 0
1, 104304, Note_off_c, 1, 55, 0
1, 104340, Note_on_c, 1, 74, 127
1, 104340, Note_on_c, 1, 65, 127
1, 104388, Note_off_c, 1, 74, 0
1, 104388, Note_off_c, 1, 65, 0
1, 104400, Note_on_c, 1, 67, 127
1, 104400, Note_on_c, 1, 75, 127
1, 104520, Note_on_c, 1, 72, 127
1, 104520, Note_on_c, 1, 51, 127
1, 104616, Note_off_c, 1, 72, 0
1, 104633, Note_off_c, 1, 51, 0
1, 104640, Note_on_c, 1, 70, 127
1, 104640, Note_on_c, 1, 53, 127
1, 104655, Note_off_c, 1, 70, 0
1, 104736, Note_off_c, 1, 67, 0
1, 104736, Note_off_c, 1, 75, 0
1, 104760, Note_on_c, 1, 65, 127
1, 104760, Note_on_c, 1, 74, 127
1, 104808, Note_off_c, 1, 65, 0
1, 104808, Note_off_c, 1, 74, 0
1, 104820, Note_on_c, 1, 63, 127
1, 104868, Note_off_c, 1, 63, 0
1, 105024, Note_off_c, 1, 53, 0
1, 105060, Note_on_c, 1, 77, 127
1, 105060, Note_on_c, 1, 68, 127
1, 105108, Note_off_c, 1, 77, 0
1, 105120, Note_on_c, 1, 71, 127
1, 105120, Note_on_c, 1, 62, 127
1, 105150, Note_off_c, 1, 68, 0
1, 105240, Note_on_c, 1, 55, 127
1, 105300, Note_on_c, 1, 67, 127
1, 105312, Note_off_c, 1, 62, 0
1, 105353, Note_off_c, 1, 55, 0
1, 105360, Note_on_c, 1, 65, 127
1, 105360, Note_on_c, 1, 56, 127
1, 105396, Note_off_c, 1, 67, 0
1, 105456, Note_off_c, 1, 71, 0
1, 105456, Note_off_c, 1, 65, 0
1, 105480, Note_on_c, 1, 72, 127
1, 105480, Note_on_c, 1, 63, 127
1, 105480, Note_on_c, 1, 60, 127
1, 105528, Note_off_c, 1, 72, 0
1, 105528, Note_off_c, 1, 63, 0
1, 105576, Note_off_c, 1, 60, 0
1, 105720, Note_on_c, 1, 74, 127
1, 105744, Note_off_c, 1, 56, 0
1, 105768, Note_off_c, 1, 74, 0
1, 105780, Note_on_c, 1, 75, 127
1, 105828, Note_off_c, 1, 75, 0
1, 105840, Note_on_c, 1, 68, 127
1, 105840, Note_on_c, 1, 77, 127
1, 105960, Note_on_c, 1, 62, 127
1, 105960, Note_on_c, 1, 53, 127
1, 106032, Note_off_c, 1, 68, 0
1, 106056, Note_off_c, 1, 62, 0
1, 106073, Note_off_c, 1, 53, 0
1, 106080, Note_on_c, 1, 67, 127
1, 106080, Note_on_c, 1, 60, 127
1, 106080, Note_on_c, 1, 55, 127
1, 106128, Note_off_c, 1, 60, 0
1, 106140, Note_on_c, 1, 59, 127
1, 106176, Note_off_c, 1, 77, 0
1, 106197, Note_off_c, 1, 59, 0
1, 106200, Note_on_c, 1, 75, 127
1, 106248, Note_off_c, 1, 75, 0
1, 106260, Note_on_c, 1, 74, 127
1, 106308, Note_off_c, 1, 74, 0
1, 106464, Note_off_c, 1, 67, 0
1, 106464, Note_off_c, 1, 55, 0
1, 106500, Note_on_c, 1, 79, 127
1, 106500, Note_on_c, 1, 63, 127
1, 106548, Note_off_c, 1, 79, 0
1, 106548, Note_off_c, 1, 63, 0
1, 106560, Note_on_c, 1, 74, 127
1, 106560, Note_on_c, 1, 59, 127
1, 106680, Note_on_c, 1, 65, 127
1, 106680, Note_on_c, 1, 50, 127
1, 106776, Note_off_c, 1, 65, 0
1, 106793, Note_off_c, 1, 50, 0
1, 106800, Note_on_c, 1, 67, 127
1, 106800, Note_on_c, 1, 51, 127
1, 106896, Note_off_c, 1, 74, 0
1, 106896, Note_off_c, 1, 59, 0
1, 106920, Note_on_c, 1, 72, 127
1, 106920, Note_on_c, 1, 60, 127
1, 106968, Note_off_c, 1, 72, 0
1, 106968, Note_off_c, 1, 60, 0
1, 106980, Note_on_c, 1, 71, 127
1, 106980, Note_on_c, 1, 62, 127
1, 107028, Note_off_c, 1, 71, 0
1, 107028, Note_off_c, 1, 62, 0
1, 107040, Note_on_c, 1, 63, 127
1, 107088, Note_off_c, 1, 67, 0
1, 107184, Note_off_c, 1, 51, 0
1, 107220, Note_on_c, 1, 75, 127
1, 107232, Note_off_c, 1, 63, 0
1, 107268, Note_off_c, 1, 75, 0
1, 107280, Note_on_c, 1, 68, 127
1, 107280, Note_on_c, 1, 77, 127
1, 107400, Note_on_c, 1, 62, 127
1, 107400, Note_on_c, 1, 47, 127
1, 107496, Note_off_c, 1, 62, 0
1, 107513, Note_off_c, 1, 47, 0
1, 107520, Note_on_c, 1, 60, 127
1, 107520, Note_on_c, 1, 48, 127
1, 107616, Note_off_c, 1, 68, 0
1, 107616, Note_off_c, 1, 77, 0
1, 107640, Note_on_c, 1, 75, 127
1, 107640, Note_on_c, 1, 67, 127
1, 107688, Note_off_c, 1, 75, 0
1, 107688, Note_off_c, 1, 67, 0
1, 107700, Note_on_c, 1, 74, 127
1, 107700, Note_on_c, 1, 65, 127
1, 107748, Note_off_c, 1, 74, 0
1, 107748, Note_off_c, 1, 65, 0
1, 107808, Note_off_c, 1, 60, 0
1, 107904, Note_off_c, 1, 48, 0
1, 107940, Note_on_c, 1, 70, 127
1, 107940, Note_on_c, 1, 79, 127
1, 107940, Note_on_c, 1, 64, 127
1, 107988, Note_off_c, 1, 70, 0
1, 107988, Note_off_c, 1, 79, 0
1, 107988, Note_off_c, 1, 64, 0
1, 108000, Note_on_c, 1, 72, 127
1, 108000, Note_on_c, 1, 80, 127
1, 108000, Note_on_c, 1, 65, 127
1, 108113, Note_off_c, 1, 72, 0
1, 108120, Note_on_c, 1, 74, 127
1, 108120, Note_on_c, 1, 41, 127
1, 108233, Note_off_c, 1, 74, 0
1, 108233, Note_off_c, 1, 41, 0
1, 108240, Note_on_c, 1, 71, 127
1, 108240, Note_on_c, 1, 43, 127
1, 108336, Note_off_c, 1, 80, 0
1, 108353, Note_off_c, 1, 65, 0
1, 108360, Note_on_c, 1, 79, 127
1, 108360, Note_on_c, 1, 63, 127
1, 108408, Note_off_c, 1, 79, 0
1, 108408, Note_off_c, 1, 63, 0
1, 108420, Note_on_c, 1, 77, 127
1, 108420, Note_on_c, 1, 62, 127
1, 108432, Note_off_c, 1, 71, 0
1, 108468, Note_off_c, 1, 77, 0
1, 108468, Note_off_c, 1, 62, 0
1, 108660, Note_on_c, 1, 75, 127
1, 108660, Note_on_c, 1, 60, 127
1, 108690, Note_off_c, 1, 43, 0
1, 108708, Note_off_c, 1, 75, 0
1, 108708, Note_off_c, 1, 60, 0
1, 108720, Note_on_c, 1, 67, 127
1, 108833, Note_off_c, 1, 67, 0
1, 108840, Note_on_c, 1, 74, 127
1, 108840, Note_on_c, 1, 71, 127
1, 108840, Note_on_c, 1, 65, 127
1, 108840, Note_on_c, 1, 43, 127
1, 108888, Note_off_c, 1, 74, 0
1, 108900, Note_on_c, 1, 72, 127
1, 108936, Note_off_c, 1, 71, 0
1, 108948, Note_off_c, 1, 72, 0
1, 108953, Note_off_c, 1, 43, 0
1, 108960, Note_on_c, 1, 36, 127
1, 109073, Note_off_c, 1, 65, 0
1, 109080, Note_on_c, 1, 67, 127
1, 109080, Note_on_c, 1, 63, 127
1, 109128, Note_off_c, 1, 63, 0
1, 109140, Note_on_c, 1, 62, 127
1, 109188, Note_off_c, 1, 62, 0
1, 109272, Note_off_c, 1, 67, 0
1, 109320, Note_on_c, 1, 84, 127
1, 109344, Note_off_c, 1, 36, 0
1, 109368, Note_off_c, 1, 84, 0
1, 109380, Note_on_c, 1, 65, 127
1, 109380, Note_on_c, 1, 83, 127
1, 109380, Note_on_c, 1, 62, 127
1, 109428, Note_off_c, 1, 65, 0
1, 109428, Note_off_c, 1, 83, 0
1, 109428, Note_off_c, 1, 62, 0
1, 109440, Note_on_c, 1, 84, 127
1, 109440, Note_on_c, 1, 63, 127
1, 109440, Note_on_c, 1, 60, 127
1, 109440, Note_on_c, 1, 48, 127
1, 109536, Note_off_c, 1, 84, 0
1, 109536, Note_off_c, 1, 63, 0
1, 109536, Note_off_c, 1, 60, 0
1, 109560, Note_on_c, 1, 72, 127
1, 109560, Note_on_c, 1, 67, 127
1, 109632, Note_off_c, 1, 48, 0
1, 109680, Note_on_c, 1, 55, 127
1, 109740, Note_on_c, 1, 65, 127
1, 109788, Note_off_c, 1, 65, 0
1, 109860, Note_on_c, 1, 62, 127
1, 109908, Note_off_c, 1, 62, 0
1, 109968, Note_off_c, 1, 72, 0
1, 109980, Note_on_c, 1, 74, 127
1, 110028, Note_off_c, 1, 74, 0
1, 110064, Note_off_c, 1, 67, 0
1, 110064, Note_off_c, 1, 55, 0
1, 110100, Note_on_c, 1, 71, 127
1, 110148, Note_off_c, 1, 71, 0
1, 110160, Note_on_c, 1, 51, 127
1, 110385, Note_off_c, 1, 51, 0
1, 110400, Note_on_c, 1, 68, 127
1, 110400, Note_on_c, 1, 53, 127
1, 110784, Note_off_c, 1, 68, 0
1, 110784, Note_off_c, 1, 53, 0
1, 111120, Note_on_c, 1, 56, 127
1, 111504, Note_off_c, 1, 56, 0
1, 112260, Note_on_c, 1, 69, 127
1, 112308, Note_off_c, 1, 69, 0
1, 112320, Note_on_c, 1, 50, 127
1, 112512, Note_off_c, 1, 50, 0
1, 112980, Note_on_c, 1, 75, 127
1, 113028, Note_off_c, 1, 75, 0
1, 113040, Note_on_c, 1, 74, 127
1, 113040, Note_on_c, 1, 67, 127
1, 113040, Note_on_c, 1, 62, 127
1, 113040, Note_on_c, 1, 47, 127
1, 113088, Note_off_c, 1, 74, 0
1, 113100, Note_on_c, 1, 77, 127
1, 113148, Note_off_c, 1, 77, 0
1, 113160, Note_on_c, 1, 75, 127
1, 113208, Note_off_c, 1, 75, 0
1, 113232, Note_off_c, 1, 67, 0
1, 113232, Note_off_c, 1, 47, 0
1, 113280, Note_on_c, 1, 48, 127
1, 113340, Note_on_c, 1, 68, 127
1, 113388, Note_off_c, 1, 68, 0
1, 113460, Note_on_c, 1, 65, 127
1, 113472, Note_off_c, 1, 62, 0
1, 113508, Note_off_c, 1, 65, 0
1, 113520, Note_on_c, 1, 60, 127
1, 113580, Note_on_c, 1, 79, 127
1, 113628, Note_off_c, 1, 79, 0
1, 113664, Note_off_c, 1, 48, 0
1, 113760, Note_on_c, 1, 80, 127
1, 113760, Note_on_c, 1, 41, 127
1, 113904, Note_off_c, 1, 60, 0
1, 113952, Note_off_c, 1, 80, 0
1, 113952, Note_off_c, 1, 41, 0
1, 114000, Note_on_c, 1, 59, 127
1, 114000, Note_on_c, 1, 43, 127
1, 114192, Note_off_c, 1, 59, 0
1, 114240, Note_on_c, 1, 63, 127
1, 114420, Note_on_c, 1, 72, 127
1, 114432, Note_off_c, 1, 63, 0
1, 114468, Note_off_c, 1, 72, 0
1, 114576, Note_off_c, 1, 43, 0
1, 114600, Note_on_c, 1, 55, 127
1, 114660, Note_on_c, 1, 71, 127
1, 114708, Note_off_c, 1, 71, 0
1, 114720, Note_on_c, 1, 36, 127
1, 115008, Note_off_c, 1, 55, 0
1, 115020, Note_on_c, 1, 56, 127
1, 115068, Note_off_c, 1, 56, 0
1, 115104, Note_off_c, 1, 36, 0
1, 115140, Note_on_c, 1, 62, 127
1, 115140, Note_on_c, 1, 53, 127
1, 115188, Note_off_c, 1, 62, 0
1, 115188, Note_off_c, 1, 53, 0
1, 115200, Note_on_c, 1, 60, 127
1, 115200, Note_on_c, 1, 51, 127
1, 115200, Note_on_c, 1, 48, 127
1, 115296, Note_off_c, 1, 60, 0
1, 115313, Note_off_c, 1, 51, 0
1, 115320, Note_on_c, 1, 75, 127
1, 115392, Note_off_c, 1, 48, 0
1, 115440, Note_on_c, 1, 55, 127
1, 115488, Note_off_c, 1, 75, 0
1, 115500, Note_on_c, 1, 77, 127
1, 115500, Note_on_c, 1, 62, 127
1, 115548, Note_off_c, 1, 77, 0
1, 115548, Note_off_c, 1, 62, 0
1, 115620, Note_on_c, 1, 74, 127
1, 115620, Note_on_c, 1, 59, 127
1, 115668, Note_off_c, 1, 74, 0
1, 115668, Note_off_c, 1, 59, 0
1, 115680, Note_on_c, 1, 72, 127
1, 115680, Note_on_c, 1, 63, 127
1, 115728, Note_off_c, 1, 72, 0
1, 115728, Note_off_c, 1, 63, 0
1, 115740, Note_on_c, 1, 65, 127
1, 115788, Note_off_c, 1, 65, 0
1, 115824, Note_off_c, 1, 55, 0
1, 115860, Note_on_c, 1, 71, 127
1, 115908, Note_off_c, 1, 71, 0
1, 116160, Note_on_c, 1, 53, 127
1, 116544, Note_off_c, 1, 53, 0
1, 116880, Note_on_c, 1, 56, 127
1, 117060, Note_on_c, 1, 68, 127
1, 117108, Note_off_c, 1, 68, 0
1, 117264, Note_off_c, 1, 56, 0
1, 117900, Note_on_c, 1, 79, 127
1, 117948, Note_off_c, 1, 79, 0
1, 118020, Note_on_c, 1, 72, 127
1, 118020, Note_on_c, 1, 75, 127
1, 118020, Note_on_c, 1, 63, 127
1, 118020, Note_on_c, 1, 67, 127
1, 118068, Note_off_c, 1, 72, 0
1, 118068, Note_off_c, 1, 75, 0
1, 118068, Note_off_c, 1, 63, 0
1, 118068, Note_off_c, 1, 67, 0
1, 118080, Note_on_c, 1, 74, 127
1, 118080, Note_on_c, 1, 71, 127
1, 118080, Note_on_c, 1, 68, 127
1, 118080, Note_on_c, 1, 65, 127
1, 118080, Note_on_c, 1, 50, 127
1, 118176, Note_off_c, 1, 74, 0
1, 118176, Note_off_c, 1, 71, 0
1, 118176, Note_off_c, 1, 68, 0
1, 118176, Note_off_c, 1, 65, 0
1, 118200, Note_on_c, 1, 80, 127
1, 118200, Note_on_c, 1, 53, 127
1, 118272, Note_off_c, 1, 50, 0
1, 118296, Note_off_c, 1, 80, 0
1, 118296, Note_off_c, 1, 53, 0
1, 118320, Note_on_c, 1, 72, 127
1, 118320, Note_on_c, 1, 79, 127
1, 118320, Note_on_c, 1, 63, 127
1, 118320, Note_on_c, 1, 60, 127
1, 118320, Note_on_c, 1, 51, 127
1, 118368, Note_off_c, 1, 72, 0
1, 118368, Note_off_c, 1, 63, 0
1, 118380, Note_on_c, 1, 74, 127
1, 118380, Note_on_c, 1, 65, 127
1, 118428, Note_off_c, 1, 74, 0
1, 118428, Note_off_c, 1, 65, 0
1, 118500, Note_on_c, 1, 71, 127
1, 118500, Note_on_c, 1, 62, 127
1, 118548, Note_off_c, 1, 71, 0
1, 118548, Note_off_c, 1, 62, 0
1, 118608, Note_off_c, 1, 79, 0
1, 118608, Note_off_c, 1, 60, 0
1, 118620, Note_on_c, 1, 80, 127
1, 118668, Note_off_c, 1, 80, 0
1, 118680, Note_on_c, 1, 59, 127
1, 118704, Note_off_c, 1, 51, 0
1, 118728, Note_off_c, 1, 59, 0
1, 118740, Note_on_c, 1, 77, 127
1, 118740, Note_on_c, 1, 57, 127
1, 118788, Note_off_c, 1, 77, 0
1, 118788, Note_off_c, 1, 57, 0
1, 118800, Note_on_c, 1, 74, 127
1, 118800, Note_on_c, 1, 79, 127
1, 118800, Note_on_c, 1, 65, 127
1, 118800, Note_on_c, 1, 62, 127
1, 118800, Note_on_c, 1, 47, 127
1, 118848, Note_off_c, 1, 74, 0
1, 118848, Note_off_c, 1, 65, 0
1, 118860, Note_on_c, 1, 77, 127
1, 118860, Note_on_c, 1, 68, 127
1, 118908, Note_off_c, 1, 77, 0
1, 118908, Note_off_c, 1, 68, 0
1, 118920, Note_on_c, 1, 75, 127
1, 118920, Note_on_c, 1, 67, 127
1, 118968, Note_off_c, 1, 75, 0
1, 118968, Note_off_c, 1, 67, 0
1, 118992, Note_off_c, 1, 62, 0
1, 118992, Note_off_c, 1, 47, 0
1, 119040, Note_on_c, 1, 72, 127
1, 119040, Note_on_c, 1, 63, 127
1, 119040, Note_on_c, 1, 55, 127
1, 119040, Note_on_c, 1, 48, 127
1, 119088, Note_off_c, 1, 79, 0
1, 119088, Note_off_c, 1, 63, 0
1, 119100, Note_on_c, 1, 80, 127
1, 119148, Note_off_c, 1, 80, 0
1, 119280, Note_on_c, 1, 60, 127
1, 119328, Note_off_c, 1, 72, 0
1, 119328, Note_off_c, 1, 55, 0
1, 119340, Note_on_c, 1, 58, 127
1, 119388, Note_off_c, 1, 58, 0
1, 119400, Note_on_c, 1, 56, 127
1, 119424, Note_off_c, 1, 48, 0
1, 119448, Note_off_c, 1, 56, 0
1, 119460, Note_on_c, 1, 70, 127
1, 119508, Note_off_c, 1, 70, 0
1, 119520, Note_on_c, 1, 53, 127
1, 119520, Note_on_c, 1, 41, 127
1, 119568, Note_off_c, 1, 60, 0
1, 119700, Note_on_c, 1, 59, 127
1, 119712, Note_off_c, 1, 53, 0
1, 119712, Note_off_c, 1, 41, 0
1, 119748, Note_off_c, 1, 59, 0
1, 119760, Note_on_c, 1, 67, 127
1, 119760, Note_on_c, 1, 75, 127
1, 119760, Note_on_c, 1, 51, 127
1, 119760, Note_on_c, 1, 60, 127
1, 119760, Note_on_c, 1, 43, 127
1, 119808, Note_off_c, 1, 67, 0
1, 119808, Note_off_c, 1, 51, 0
1, 119820, Note_on_c, 1, 68, 127
1, 119820, Note_on_c, 1, 53, 127
1, 119868, Note_off_c, 1, 68, 0
1, 119868, Note_off_c, 1, 53, 0
1, 119940, Note_on_c, 1, 65, 127
1, 119940, Note_on_c, 1, 50, 127
1, 119988, Note_off_c, 1, 65, 0
1, 119988, Note_off_c, 1, 50, 0
1, 120048, Note_off_c, 1, 75, 0
1, 120048, Note_off_c, 1, 60, 0
1, 120060, Note_on_c, 1, 77, 127
1, 120060, Note_on_c, 1, 62, 127
1, 120108, Note_off_c, 1, 77, 0
1, 120108, Note_off_c, 1, 62, 0
1, 120180, Note_on_c, 1, 74, 127
1, 120180, Note_on_c, 1, 59, 127
1, 120228, Note_off_c, 1, 74, 0
1, 120228, Note_off_c, 1, 59, 0
1, 120240, Note_on_c, 1, 55, 127
1, 120288, Note_off_c, 1, 55, 0
1, 120336, Note_off_c, 1, 43, 0
1, 120360, Note_on_c, 1, 67, 127
1, 120360, Note_on_c, 1, 75, 127
1, 120360, Note_on_c, 1, 55, 127
1, 120360, Note_on_c, 1, 60, 127
1, 120408, Note_off_c, 1, 67, 0
1, 120408, Note_off_c, 1, 75, 0
1, 120408, Note_off_c, 1, 55, 0
1, 120408, Note_off_c, 1, 60, 0
1, 120420, Note_on_c, 1, 65, 127
1, 120420, Note_on_c, 1, 74, 127
1, 120420, Note_on_c, 1, 59, 127
1, 120420, Note_on_c, 1, 56, 127
1, 120468, Note_off_c, 1, 65, 0
1, 120468, Note_off_c, 1, 74, 0
1, 120468, Note_off_c, 1, 59, 0
1, 120468, Note_off_c, 1, 56, 0
1, 120480, Note_on_c, 1, 72, 127
1, 120480, Note_on_c, 1, 63, 127
1, 120480, Note_on_c, 1, 60, 127
1, 120480, Note_on_c, 1, 55, 127
1, 120480, Note_on_c, 1, 36, 127
1, 120528, Note_off_c, 1, 72, 0
1, 120528, Note_off_c, 1, 63, 0
1, 120540, Note_on_c, 1, 65, 127
1, 120540, Note_on_c, 1, 74, 127
1, 120588, Note_off_c, 1, 65, 0
1, 120588, Note_off_c, 1, 74, 0
1, 120660, Note_on_c, 1, 62, 127
1, 120660, Note_on_c, 1, 71, 127
1, 120708, Note_off_c, 1, 62, 0
1, 120708, Note_off_c, 1, 71, 0
1, 120768, Note_off_c, 1, 60, 0
1, 120768, Note_off_c, 1, 55, 0
1, 120780, Note_on_c, 1, 56, 127
1, 120780, Note_on_c, 1, 53, 127
1, 120828, Note_off_c, 1, 56, 0
1, 120828, Note_off_c, 1, 53, 0
1, 120840, Note_on_c, 1, 51, 127
1, 120888, Note_off_c, 1, 51, 0
1, 120900, Note_on_c, 1, 50, 127
1, 120948, Note_off_c, 1, 50, 0
1, 120960, Note_on_c, 1, 75, 127
1, 120960, Note_on_c, 1, 67, 127
1, 120960, Note_on_c, 1, 48, 127
1, 121056, Note_off_c, 1, 36, 0
1, 121152, Note_off_c, 1, 75, 0
1, 121152, Note_off_c, 1, 67, 0
1, 121152, Note_off_c, 1, 48, 0
1, 121200, Note_on_c, 1, 60, 127
1, 121425, Note_off_c, 1, 60, 0
1, 121440, Note_on_c, 1, 67, 127
1, 121560, Note_on_c, 1, 63, 127
1, 121656, Note_off_c, 1, 63, 0
1, 121680, Note_on_c, 1, 59, 127
1, 121776, Note_off_c, 1, 59, 0
1, 121824, Note_off_c, 1, 67, 0
1, 121920, Note_on_c, 1, 63, 127
1, 121920, Note_on_c, 1, 60, 127
1, 122016, Note_off_c, 1, 60, 0
1, 122112, Note_off_c, 1, 63, 0
1, 122160, Note_on_c, 1, 65, 127
1, 122280, Note_on_c, 1, 68, 127
1, 122376, Note_off_c, 1, 68, 0
1, 122400, Note_on_c, 1, 62, 127
1, 122496, Note_off_c, 1, 62, 0
1, 122544, Note_off_c, 1, 65, 0
1, 122640, Note_on_c, 1, 67, 127
1, 122640, Note_on_c, 1, 64, 127
1, 122736, Note_off_c, 1, 64, 0
1, 122832, Note_off_c, 1, 67, 0
1, 122880, Note_on_c, 1, 68, 127
1, 123000, Note_on_c, 1, 65, 127
1, 123096, Note_off_c, 1, 65, 0
1, 123120, Note_on_c, 1, 60, 127
1, 123216, Note_off_c, 1, 60, 0
1, 123264, Note_off_c, 1, 68, 0
1, 123360, Note_on_c, 1, 65, 127
1, 123360, Note_on_c, 1, 62, 127
1, 123456, Note_off_c, 1, 62, 0
1, 123552, Note_off_c, 1, 65, 0
1, 123600, Note_on_c, 1, 67, 127
1, 123720, Note_on_c, 1, 63, 127
1, 123816, Note_off_c, 1, 63, 0
1, 123840, Note_on_c, 1, 59, 127
1, 123888, Note_off_c, 1, 67, 0
1, 123936, Note_off_c, 1, 59, 0
1, 123960, Note_on_c, 1, 65, 127
1, 123960, Note_on_c, 1, 59, 127
1, 124056, Note_off_c, 1, 65, 0
1, 124056, Note_off_c, 1, 59, 0
1, 124080, Note_on_c, 1, 63, 127
1, 124080, Note_on_c, 1, 60, 127
1, 124128, Note_off_c, 1, 63, 0
1, 124140, Note_on_c, 1, 67, 127
1, 124176, Note_off_c, 1, 60, 0
1, 124188, Note_off_c, 1, 67, 0
1, 124200, Note_on_c, 1, 65, 127
1, 124200, Note_on_c, 1, 60, 127
1, 124248, Note_off_c, 1, 65, 0
1, 124260, Note_on_c, 1, 63, 127
1, 124308, Note_off_c, 1, 63, 0
1, 124320, Note_on_c, 1, 62, 127
1, 124368, Note_off_c, 1, 60, 0
1, 124440, Note_on_c, 1, 58, 127
1, 124488, Note_off_c, 1, 58, 0
1, 124500, Note_on_c, 1, 57, 127
1, 124548, Note_off_c, 1, 57, 0
1, 124608, Note_off_c, 1, 62, 0
1, 124680, Note_on_c, 1, 64, 127
1, 124728, Note_off_c, 1, 64, 0
1, 124740, Note_on_c, 1, 66, 127
1, 124788, Note_off_c, 1, 66, 0
1, 124800, Note_on_c, 1, 67, 127
1, 124980, Note_on_c, 1, 55, 127
1, 124992, Note_off_c, 1, 67, 0
1, 125028, Note_off_c, 1, 55, 0
1, 125040, Note_on_c, 1, 74, 127
1, 125040, Note_on_c, 1, 54, 127
1, 125088, Note_off_c, 1, 54, 0
1, 125100, Note_on_c, 1, 50, 127
1, 125148, Note_off_c, 1, 50, 0
1, 125160, Note_on_c, 1, 70, 127
1, 125160, Note_on_c, 1, 55, 127
1, 125208, Note_off_c, 1, 55, 0
1, 125220, Note_on_c, 1, 48, 127
1, 125256, Note_off_c, 1, 70, 0
1, 125268, Note_off_c, 1, 48, 0
1, 125280, Note_on_c, 1, 66, 127
1, 125340, Note_on_c, 1, 62, 127
1, 125376, Note_off_c, 1, 66, 0
1, 125388, Note_off_c, 1, 62, 0
1, 125400, Note_on_c, 1, 60, 127
1, 125424, Note_off_c, 1, 74, 0
1, 125448, Note_off_c, 1, 60, 0
1, 125520, Note_on_c, 1, 67, 127
1, 125520, Note_on_c, 1, 70, 127
1, 125520, Note_on_c, 1, 55, 127
1, 125568, Note_off_c, 1, 55, 0
1, 125628, Note_off_c, 1, 67, 0
1, 125640, Note_on_c, 1, 65, 127
1, 125688, Note_off_c, 1, 65, 0
1, 125712, Note_off_c, 1, 70, 0
1, 125760, Note_on_c, 1, 72, 127
1, 125760, Note_on_c, 1, 63, 127
1, 125808, Note_off_c, 1, 63, 0
1, 125820, Note_on_c, 1, 67, 127
1, 125868, Note_off_c, 1, 67, 0
1, 125880, Note_on_c, 1, 75, 127
1, 125976, Note_off_c, 1, 75, 0
1, 126000, Note_on_c, 1, 69, 127
1, 126060, Note_on_c, 1, 65, 127
1, 126096, Note_off_c, 1, 69, 0
1, 126108, Note_off_c, 1, 65, 0
1, 126144, Note_off_c, 1, 72, 0
1, 126240, Note_on_c, 1, 71, 127
1, 126240, Note_on_c, 1, 74, 127
1, 126240, Note_on_c, 1, 62, 127
1, 126288, Note_off_c, 1, 62, 0
1, 126300, Note_on_c, 1, 65, 127
1, 126336, Note_off_c, 1, 71, 0
1, 126348, Note_off_c, 1, 65, 0
1, 126432, Note_off_c, 1, 74, 0
1, 126480, Note_on_c, 1, 75, 127
1, 126480, Note_on_c, 1, 60, 127
1, 126528, Note_off_c, 1, 60, 0
1, 126540, Note_on_c, 1, 63, 127
1, 126588, Note_off_c, 1, 63, 0
1, 126600, Note_on_c, 1, 72, 127
1, 126600, Note_on_c, 1, 62, 127
1, 126648, Note_off_c, 1, 62, 0
1, 126660, Note_on_c, 1, 65, 127
1, 126696, Note_off_c, 1, 72, 0
1, 126708, Note_off_c, 1, 65, 0
1, 126720, Note_on_c, 1, 67, 127
1, 126816, Note_off_c, 1, 67, 0
1, 126864, Note_off_c, 1, 75, 0
1, 126960, Note_on_c, 1, 69, 127
1, 126960, Note_on_c, 1, 72, 127
1, 126960, Note_on_c, 1, 63, 127
1, 127008, Note_off_c, 1, 63, 0
1, 127020, Note_on_c, 1, 65, 127
1, 127056, Note_off_c, 1, 69, 0
1, 127068, Note_off_c, 1, 65, 0
1, 127152, Note_off_c, 1, 72, 0
1, 127200, Note_on_c, 1, 74, 127
1, 127200, Note_on_c, 1, 62, 127
1, 127248, Note_off_c, 1, 62, 0
1, 127260, Note_on_c, 1, 63, 127
1, 127308, Note_off_c, 1, 63, 0
1, 127320, Note_on_c, 1, 70, 127
1, 127416, Note_off_c, 1, 70, 0
1, 127440, Note_on_c, 1, 66, 127
1, 127536, Note_off_c, 1, 66, 0
1, 127560, Note_on_c, 1, 60, 127
1, 127584, Note_off_c, 1, 74, 0
1, 127608, Note_off_c, 1, 60, 0
1, 127680, Note_on_c, 1, 67, 127
1, 127680, Note_on_c, 1, 59, 127
1, 127740, Note_on_c, 1, 79, 127
1, 127776, Note_off_c, 1, 67, 0
1, 127776, Note_off_c, 1, 59, 0
1, 127788, Note_off_c, 1, 79, 0
1, 127800, Note_on_c, 1, 77, 127
1, 127800, Note_on_c, 1, 67, 127
1, 127800, Note_on_c, 1, 59, 127
1, 127848, Note_off_c, 1, 77, 0
1, 127860, Note_on_c, 1, 79, 127
1, 127896, Note_off_c, 1, 67, 0
1, 127896, Note_off_c, 1, 59, 0
1, 127908, Note_off_c, 1, 79, 0
1, 127920, Note_on_c, 1, 75, 127
1, 127920, Note_on_c, 1, 60, 127
1, 127980, Note_on_c, 1, 72, 127
1, 128016, Note_off_c, 1, 60, 0
1, 128028, Note_off_c, 1, 72, 0
1, 128040, Note_on_c, 1, 70, 127
1, 128088, Note_off_c, 1, 70, 0
1, 128112, Note_off_c, 1, 75, 0
1, 128160, Note_on_c, 1, 68, 127
1, 128160, Note_on_c, 1, 53, 127
1, 128220, Note_on_c, 1, 74, 127
1, 128256, Note_off_c, 1, 53, 0
1, 128268, Note_off_c, 1, 74, 0
1, 128280, Note_on_c, 1, 72, 127
1, 128328, Note_off_c, 1, 72, 0
1, 128352, Note_off_c, 1, 68, 0
1, 128400, Note_on_c, 1, 71, 127
1, 128400, Note_on_c, 1, 55, 127
1, 128460, Note_on_c, 1, 67, 127
1, 128496, Note_off_c, 1, 55, 0
1, 128508, Note_off_c, 1, 67, 0
1, 128520, Note_on_c, 1, 65, 127
1, 128568, Note_off_c, 1, 65, 0
1, 128592, Note_off_c, 1, 71, 0
1, 128640, Note_on_c, 1, 63, 127
1, 128640, Note_on_c, 1, 56, 127
1, 128700, Note_on_c, 1, 72, 127
1, 128736, Note_off_c, 1, 56, 0
1, 128748, Note_off_c, 1, 72, 0
1, 128760, Note_on_c, 1, 70, 127
1, 128760, Note_on_c, 1, 55, 127
1, 128808, Note_off_c, 1, 70, 0
1, 128832, Note_off_c, 1, 63, 0
1, 128856, Note_off_c, 1, 55, 0
1, 128880, Note_on_c, 1, 68, 127
1, 128880, Note_on_c, 1, 65, 127
1, 128880, Note_on_c, 1, 53, 127
1, 128928, Note_off_c, 1, 68, 0
1, 128940, Note_on_c, 1, 72, 127
1, 128976, Note_off_c, 1, 65, 0
1, 128988, Note_off_c, 1, 72, 0
1, 129000, Note_on_c, 1, 70, 127
1, 129000, Note_on_c, 1, 60, 127
1, 129048, Note_off_c, 1, 70, 0
1, 129096, Note_off_c, 1, 60, 0
1, 129120, Note_on_c, 1, 62, 127
1, 129180, Note_on_c, 1, 77, 127
1, 129216, Note_off_c, 1, 53, 0
1, 129228, Note_off_c, 1, 77, 0
1, 129240, Note_on_c, 1, 75, 127
1, 129288, Note_off_c, 1, 75, 0
1, 129360, Note_on_c, 1, 71, 127
1, 129360, Note_on_c, 1, 55, 127
1, 129408, Note_off_c, 1, 71, 0
1, 129420, Note_on_c, 1, 74, 127
1, 129456, Note_off_c, 1, 62, 0
1, 129468, Note_off_c, 1, 74, 0
1, 129480, Note_on_c, 1, 57, 127
1, 129576, Note_off_c, 1, 57, 0
1, 129600, Note_on_c, 1, 67, 127
1, 129600, Note_on_c, 1, 59, 127
1, 129648, Note_off_c, 1, 55, 0
1, 129648, Note_off_c, 1, 67, 0
1, 129660, Note_on_c, 1, 79, 127
1, 129708, Note_off_c, 1, 79, 0
1, 129792, Note_off_c, 1, 59, 0
1, 129840, Note_on_c, 1, 48, 127
1, 129960, Note_on_c, 1, 63, 127
1, 130008, Note_off_c, 1, 63, 0
1, 130032, Note_off_c, 1, 48, 0
1, 130080, Note_on_c, 1, 67, 127
1, 130080, Note_on_c, 1, 59, 127
1, 130080, Note_on_c, 1, 55, 127
1, 130128, Note_off_c, 1, 59, 0
1, 130140, Note_on_c, 1, 62, 127
1, 130176, Note_off_c, 1, 67, 0
1, 130188, Note_off_c, 1, 62, 0
1, 130200, Note_on_c, 1, 75, 127
1, 130200, Note_on_c, 1, 60, 127
1, 130248, Note_off_c, 1, 60, 0
1, 130260, Note_on_c, 1, 63, 127
1, 130296, Note_off_c, 1, 75, 0
1, 130308, Note_off_c, 1, 63, 0
1, 130320, Note_on_c, 1, 71, 127
1, 130416, Note_off_c, 1, 71, 0
1, 130440, Note_on_c, 1, 65, 127
1, 130488, Note_off_c, 1, 65, 0
1, 130560, Note_on_c, 1, 51, 127
1, 130620, Note_on_c, 1, 72, 127
1, 130632, Note_off_c, 1, 55, 0
1, 130668, Note_off_c, 1, 72, 0
1, 130680, Note_on_c, 1, 70, 127
1, 130728, Note_off_c, 1, 70, 0
1, 130785, Note_off_c, 1, 51, 0
1, 130800, Note_on_c, 1, 68, 127
1, 130800, Note_on_c, 1, 53, 127
1, 130848, Note_off_c, 1, 68, 0
1, 130920, Note_on_c, 1, 80, 127
1, 131016, Note_off_c, 1, 80, 0
1, 131040, Note_on_c, 1, 74, 127
1, 131136, Note_off_c, 1, 74, 0
1, 131184, Note_off_c, 1, 53, 0
1, 131280, Note_on_c, 1, 67, 127
1, 131280, Note_on_c, 1, 76, 127
1, 131280, Note_on_c, 1, 58, 127
1, 131280, Note_on_c, 1, 55, 127
1, 131328, Note_off_c, 1, 67, 0
1, 131340, Note_on_c, 1, 70, 127
1, 131376, Note_off_c, 1, 76, 0
1, 131388, Note_off_c, 1, 70, 0
1, 131472, Note_off_c, 1, 58, 0
1, 131472, Note_off_c, 1, 55, 0
1, 131520, Note_on_c, 1, 65, 127
1, 131520, Note_on_c, 1, 60, 127
1, 131520, Note_on_c, 1, 56, 127
1, 131568, Note_off_c, 1, 65, 0
1, 131580, Note_on_c, 1, 68, 127
1, 131628, Note_off_c, 1, 68, 0
1, 131640, Note_on_c, 1, 67, 127
1, 131640, Note_on_c, 1, 77, 127
1, 131688, Note_off_c, 1, 67, 0
1, 131700, Note_on_c, 1, 70, 127
1, 131712, Note_off_c, 1, 60, 0
1, 131736, Note_off_c, 1, 77, 0
1, 131748, Note_off_c, 1, 70, 0
1, 131760, Note_on_c, 1, 72, 127
1, 131856, Note_off_c, 1, 72, 0
1, 131880, Note_on_c, 1, 63, 127
1, 131904, Note_off_c, 1, 56, 0
1, 131976, Note_off_c, 1, 63, 0
1, 132000, Note_on_c, 1, 68, 127
1, 132000, Note_on_c, 1, 74, 127
1, 132000, Note_on_c, 1, 62, 127
1, 132000, Note_on_c, 1, 53, 127
1, 132048, Note_off_c, 1, 68, 0
1, 132060, Note_on_c, 1, 70, 127
1, 132096, Note_off_c, 1, 74, 0
1, 132096, Note_off_c, 1, 62, 0
1, 132108, Note_off_c, 1, 70, 0
1, 132120, Note_on_c, 1, 60, 127
1, 132192, Note_off_c, 1, 53, 0
1, 132216, Note_off_c, 1, 60, 0
1, 132240, Note_on_c, 1, 67, 127
1, 132240, Note_on_c, 1, 59, 127
1, 132240, Note_on_c, 1, 55, 127
1, 132288, Note_off_c, 1, 67, 0
1, 132300, Note_on_c, 1, 68, 127
1, 132336, Note_off_c, 1, 59, 0
1, 132348, Note_off_c, 1, 68, 0
1, 132360, Note_on_c, 1, 75, 127
1, 132360, Note_on_c, 1, 60, 127
1, 132456, Note_off_c, 1, 75, 0
1, 132456, Note_off_c, 1, 60, 0
1, 132480, Note_on_c, 1, 71, 127
1, 132480, Note_on_c, 1, 62, 127
1, 132528, Note_off_c, 1, 55, 0
1, 132576, Note_off_c, 1, 71, 0
1, 132600, Note_on_c, 1, 65, 127
1, 132600, Note_on_c, 1, 50, 127
1, 132648, Note_off_c, 1, 65, 0
1, 132672, Note_off_c, 1, 62, 0
1, 132696, Note_off_c, 1, 50, 0
1, 132720, Note_on_c, 1, 79, 127
1, 132720, Note_on_c, 1, 63, 127
1, 132720, Note_on_c, 1, 55, 127
1, 132720, Note_on_c, 1, 51, 127
1, 132768, Note_off_c, 1, 79, 0
1, 132768, Note_off_c, 1, 63, 0
1, 132780, Note_on_c, 1, 80, 127
1, 132780, Note_on_c, 1, 65, 127
1, 132816, Note_off_c, 1, 51, 0
1, 132828, Note_off_c, 1, 80, 0
1, 132828, Note_off_c, 1, 65, 0
1, 132840, Note_on_c, 1, 62, 127
1, 132840, Note_on_c, 1, 77, 127
1, 132840, Note_on_c, 1, 47, 127
1, 132888, Note_off_c, 1, 62, 0
1, 132888, Note_off_c, 1, 77, 0
1, 132936, Note_off_c, 1, 47, 0
1, 132960, Note_on_c, 1, 75, 127
1, 132960, Note_on_c, 1, 60, 127
1, 132960, Note_on_c, 1, 48, 127
1, 133008, Note_off_c, 1, 75, 0
1, 133008, Note_off_c, 1, 60, 0
1, 133020, Note_on_c, 1, 67, 127
1, 133068, Note_off_c, 1, 67, 0
1, 133080, Note_on_c, 1, 74, 127
1, 133128, Note_off_c, 1, 74, 0
1, 133152, Note_off_c, 1, 55, 0
1, 133200, Note_on_c, 1, 72, 127
1, 133248, Note_off_c, 1, 48, 0
1, 133248, Note_off_c, 1, 72, 0
1, 133260, Note_on_c, 1, 65, 127
1, 133260, Note_on_c, 1, 74, 127
1, 133308, Note_off_c, 1, 65, 0
1, 133308, Note_off_c, 1, 74, 0
1, 133320, Note_on_c, 1, 62, 127
1, 133320, Note_on_c, 1, 70, 127
1, 133320, Note_on_c, 1, 50, 127
1, 133368, Note_off_c, 1, 62, 0
1, 133368, Note_off_c, 1, 70, 0
1, 133380, Note_on_c, 1, 72, 127
1, 133380, Note_on_c, 1, 63, 127
1, 133416, Note_off_c, 1, 50, 0
1, 133428, Note_off_c, 1, 72, 0
1, 133428, Note_off_c, 1, 63, 0
1, 133440, Note_on_c, 1, 69, 127
1, 133440, Note_on_c, 1, 60, 127
1, 133440, Note_on_c, 1, 55, 127
1, 133440, Note_on_c, 1, 51, 127
1, 133488, Note_off_c, 1, 69, 0
1, 133488, Note_off_c, 1, 60, 0
1, 133500, Note_on_c, 1, 70, 127
1, 133500, Note_on_c, 1, 62, 127
1, 133536, Note_off_c, 1, 51, 0
1, 133548, Note_off_c, 1, 70, 0
1, 133548, Note_off_c, 1, 62, 0
1, 133560, Note_on_c, 1, 58, 127
1, 133560, Note_on_c, 1, 67, 127
1, 133560, Note_on_c, 1, 48, 127
1, 133608, Note_off_c, 1, 58, 0
1, 133608, Note_off_c, 1, 67, 0
1, 133632, Note_off_c, 1, 55, 0
1, 133656, Note_off_c, 1, 48, 0
1, 133680, Note_on_c, 1, 66, 127
1, 133680, Note_on_c, 1, 57, 127
1, 133680, Note_on_c, 1, 62, 127
1, 133680, Note_on_c, 1, 50, 127
1, 133728, Note_off_c, 1, 66, 0
1, 133740, Note_on_c, 1, 69, 127
1, 133776, Note_off_c, 1, 57, 0
1, 133776, Note_off_c, 1, 50, 0
1, 133788, Note_off_c, 1, 69, 0
1, 133800, Note_on_c, 1, 67, 127
1, 133800, Note_on_c, 1, 58, 127
1, 133800, Note_on_c, 1, 46, 127
1, 133848, Note_off_c, 1, 67, 0
1, 133860, Note_on_c, 1, 70, 127
1, 133896, Note_off_c, 1, 58, 0
1, 133896, Note_off_c, 1, 46, 0
1, 133908, Note_off_c, 1, 70, 0
1, 133920, Note_on_c, 1, 60, 127
1, 133920, Note_on_c, 1, 42, 127
1, 133980, Note_on_c, 1, 74, 127
1, 134016, Note_off_c, 1, 60, 0
1, 134016, Note_off_c, 1, 42, 0
1, 134028, Note_off_c, 1, 74, 0
1, 134040, Note_on_c, 1, 72, 127
1, 134064, Note_off_c, 1, 62, 0
1, 134088, Note_off_c, 1, 72, 0
1, 134160, Note_on_c, 1, 67, 127
1, 134160, Note_on_c, 1, 58, 127
1, 134160, Note_on_c, 1, 43, 127
1, 134208, Note_off_c, 1, 67, 0
1, 134220, Note_on_c, 1, 79, 127
1, 134256, Note_off_c, 1, 43, 0
1, 134268, Note_off_c, 1, 79, 0
1, 134280, Note_on_c, 1, 77, 127
1, 134328, Note_off_c, 1, 77, 0
1, 134352, Note_off_c, 1, 58, 0
1, 134400, Note_on_c, 1, 75, 127
1, 134400, Note_on_c, 1, 67, 127
1, 134400, Note_on_c, 1, 60, 127
1, 134448, Note_off_c, 1, 75, 0
1, 134460, Note_on_c, 1, 79, 127
1, 134508, Note_off_c, 1, 79, 0
1, 134520, Note_on_c, 1, 51, 127
1, 134592, Note_off_c, 1, 67, 0
1, 134616, Note_off_c, 1, 51, 0
1, 134640, Note_on_c, 1, 72, 127
1, 134640, Note_on_c, 1, 45, 127
1, 134700, Note_on_c, 1, 77, 127
1, 134736, Note_off_c, 1, 45, 0
1, 134748, Note_off_c, 1, 77, 0
1, 134784, Note_off_c, 1, 60, 0
1, 134832, Note_off_c, 1, 72, 0
1, 134880, Note_on_c, 1, 74, 127
1, 134880, Note_on_c, 1, 67, 127
1, 134880, Note_on_c, 1, 62, 127
1, 134880, Note_on_c, 1, 47, 127
1, 134928, Note_off_c, 1, 74, 0
1, 134940, Note_on_c, 1, 77, 127
1, 134976, Note_off_c, 1, 47, 0
1, 134988, Note_off_c, 1, 77, 0
1, 135072, Note_off_c, 1, 67, 0
1, 135072, Note_off_c, 1, 62, 0
1, 135120, Note_on_c, 1, 72, 127
1, 135120, Note_on_c, 1, 67, 127
1, 135120, Note_on_c, 1, 63, 127
1, 135168, Note_off_c, 1, 72, 0
1, 135180, Note_on_c, 1, 75, 127
1, 135228, Note_off_c, 1, 75, 0
1, 135240, Note_on_c, 1, 74, 127
1, 135240, Note_on_c, 1, 48, 127
1, 135288, Note_off_c, 1, 74, 0
1, 135300, Note_on_c, 1, 77, 127
1, 135312, Note_off_c, 1, 67, 0
1, 135336, Note_off_c, 1, 48, 0
1, 135348, Note_off_c, 1, 77, 0
1, 135360, Note_on_c, 1, 70, 127
1, 135360, Note_on_c, 1, 43, 127
1, 135456, Note_off_c, 1, 43, 0
1, 135504, Note_off_c, 1, 63, 0
1, 135552, Note_off_c, 1, 70, 0
1, 135600, Note_on_c, 1, 75, 127
1, 135600, Note_on_c, 1, 65, 127
1, 135600, Note_on_c, 1, 60, 127
1, 135600, Note_on_c, 1, 45, 127
1, 135648, Note_off_c, 1, 75, 0
1, 135660, Note_on_c, 1, 77, 127
1, 135696, Note_off_c, 1, 45, 0
1, 135708, Note_off_c, 1, 77, 0
1, 135792, Note_off_c, 1, 65, 0
1, 135792, Note_off_c, 1, 60, 0
1, 135840, Note_on_c, 1, 74, 127
1, 135840, Note_on_c, 1, 65, 127
1, 135840, Note_on_c, 1, 62, 127
1, 135888, Note_off_c, 1, 74, 0
1, 135900, Note_on_c, 1, 75, 127
1, 135936, Note_off_c, 1, 65, 0
1, 135948, Note_off_c, 1, 75, 0
1, 135960, Note_on_c, 1, 67, 127
1, 135960, Note_on_c, 1, 46, 127
1, 136056, Note_off_c, 1, 67, 0
1, 136056, Note_off_c, 1, 46, 0
1, 136080, Note_on_c, 1, 69, 127
1, 136080, Note_on_c, 1, 42, 127
1, 136128, Note_off_c, 1, 62, 0
1, 136176, Note_off_c, 1, 42, 0
1, 136200, Note_on_c, 1, 72, 127
1, 136248, Note_off_c, 1, 72, 0
1, 136272, Note_off_c, 1, 69, 0
1, 136320, Note_on_c, 1, 70, 127
1, 136320, Note_on_c, 1, 43, 127
1, 136368, Note_off_c, 1, 70, 0
1, 136416, Note_off_c, 1, 43, 0
1, 136440, Note_on_c, 1, 72, 127
1, 136440, Note_on_c, 1, 66, 127
1, 136440, Note_on_c, 1, 57, 127
1, 136440, Note_on_c, 1, 45, 127
1, 136488, Note_off_c, 1, 72, 0
1, 136500, Note_on_c, 1, 75, 127
1, 136536, Note_off_c, 1, 66, 0
1, 136536, Note_off_c, 1, 57, 0
1, 136536, Note_off_c, 1, 45, 0
1, 136548, Note_off_c, 1, 75, 0
1, 136560, Note_on_c, 1, 67, 127
1, 136560, Note_on_c, 1, 74, 127
1, 136560, Note_on_c, 1, 62, 127
1, 136560, Note_on_c, 1, 46, 127
1, 136608, Note_off_c, 1, 67, 0
1, 136620, Note_on_c, 1, 65, 127
1, 136656, Note_off_c, 1, 74, 0
1, 136656, Note_off_c, 1, 62, 0
1, 136656, Note_off_c, 1, 46, 0
1, 136668, Note_off_c, 1, 65, 0
1, 136680, Note_on_c, 1, 64, 127
1, 136680, Note_on_c, 1, 67, 127
1, 136680, Note_on_c, 1, 60, 127
1, 136680, Note_on_c, 1, 48, 127
1, 136728, Note_off_c, 1, 64, 0
1, 136728, Note_off_c, 1, 67, 0
1, 136740, Note_on_c, 1, 70, 127
1, 136776, Note_off_c, 1, 48, 0
1, 136788, Note_off_c, 1, 70, 0
1, 136800, Note_on_c, 1, 69, 127
1, 136800, Note_on_c, 1, 66, 127
1, 136800, Note_on_c, 1, 45, 127
1, 136848, Note_off_c, 1, 69, 0
1, 136860, Note_on_c, 1, 72, 127
1, 136872, Note_off_c, 1, 60, 0
1, 136896, Note_off_c, 1, 66, 0
1, 136896, Note_off_c, 1, 45, 0
1, 136908, Note_off_c, 1, 72, 0
1, 136920, Note_on_c, 1, 70, 127
1, 136920, Note_on_c, 1, 67, 127
1, 136920, Note_on_c, 1, 62, 127
1, 136920, Note_on_c, 1, 43, 127
1, 136968, Note_off_c, 1, 70, 0
1, 136980, Note_on_c, 1, 72, 127
1, 137016, Note_off_c, 1, 43, 0
1, 137028, Note_off_c, 1, 72, 0
1, 137040, Note_on_c, 1, 69, 127
1, 137040, Note_on_c, 1, 50, 127
1, 137112, Note_off_c, 1, 67, 0
1, 137112, Note_off_c, 1, 62, 0
1, 137136, Note_off_c, 1, 50, 0
1, 137160, Note_on_c, 1, 66, 127
1, 137160, Note_on_c, 1, 57, 127
1, 137160, Note_on_c, 1, 38, 127
1, 137208, Note_off_c, 1, 69, 0
1, 137256, Note_off_c, 1, 66, 0
1, 137256, Note_off_c, 1, 57, 0
1, 137256, Note_off_c, 1, 38, 0
1, 137280, Note_on_c, 1, 67, 127
1, 137280, Note_on_c, 1, 59, 127
1, 137280, Note_on_c, 1, 43, 127
1, 137340, Note_on_c, 1, 71, 127
1, 137376, Note_off_c, 1, 59, 0
1, 137388, Note_off_c, 1, 71, 0
1, 137400, Note_on_c, 1, 69, 127
1, 137400, Note_on_c, 1, 60, 127
1, 137448, Note_off_c, 1, 69, 0
1, 137460, Note_on_c, 1, 72, 127
1, 137472, Note_off_c, 1, 67, 0
1, 137496, Note_off_c, 1, 60, 0
1, 137508, Note_off_c, 1, 72, 0
1, 137520, Note_on_c, 1, 62, 127
1, 137580, Note_on_c, 1, 79, 127
1, 137616, Note_off_c, 1, 62, 0
1, 137628, Note_off_c, 1, 79, 0
1, 137640, Note_on_c, 1, 77, 127
1, 137640, Note_on_c, 1, 55, 127
1, 137664, Note_off_c, 1, 43, 0
1, 137688, Note_off_c, 1, 77, 0
1, 137736, Note_off_c, 1, 55, 0
1, 137760, Note_on_c, 1, 75, 127
1, 137760, Note_on_c, 1, 60, 127
1, 137808, Note_off_c, 1, 75, 0
1, 137820, Note_on_c, 1, 79, 127
1, 137868, Note_off_c, 1, 79, 0
1, 137880, Note_on_c, 1, 77, 127
1, 137880, Note_on_c, 1, 56, 127
1, 137928, Note_off_c, 1, 77, 0
1, 137940, Note_on_c, 1, 80, 127
1, 137952, Note_off_c, 1, 60, 0
1, 137976, Note_off_c, 1, 56, 0
1, 137988, Note_off_c, 1, 80, 0
1, 138000, Note_on_c, 1, 71, 127
1, 138000, Note_on_c, 1, 67, 127
1, 138000, Note_on_c, 1, 55, 127
1, 138048, Note_off_c, 1, 71, 0
1, 138060, Note_on_c, 1, 74, 127
1, 138096, Note_off_c, 1, 55, 0
1, 138108, Note_off_c, 1, 74, 0
1, 138120, Note_on_c, 1, 72, 127
1, 138120, Note_on_c, 1, 63, 127
1, 138168, Note_off_c, 1, 72, 0
1, 138180, Note_on_c, 1, 75, 127
1, 138216, Note_off_c, 1, 63, 0
1, 138228, Note_off_c, 1, 75, 0
1, 138240, Note_on_c, 1, 59, 127
1, 138336, Note_off_c, 1, 59, 0
1, 138360, Note_on_c, 1, 53, 127
1, 138384, Note_off_c, 1, 67, 0
1, 138408, Note_off_c, 1, 53, 0
1, 138480, Note_on_c, 1, 72, 127
1, 138480, Note_on_c, 1, 63, 127
1, 138480, Note_on_c, 1, 60, 127
1, 138480, Note_on_c, 1, 48, 127
1, 138528, Note_off_c, 1, 72, 0
1, 138528, Note_off_c, 1, 48, 0
1, 138540, Note_on_c, 1, 75, 127
1, 138588, Note_off_c, 1, 60, 0
1, 138588, Note_off_c, 1, 75, 0
1, 138600, Note_on_c, 1, 74, 127
1, 138600, Note_on_c, 1, 58, 127
1, 138648, Note_off_c, 1, 74, 0
1, 138648, Note_off_c, 1, 58, 0
1, 138672, Note_off_c, 1, 63, 0
1, 138720, Note_on_c, 1, 72, 127
1, 138720, Note_on_c, 1, 65, 127
1, 138720, Note_on_c, 1, 56, 127
1, 138768, Note_off_c, 1, 56, 0
1, 138780, Note_on_c, 1, 60, 127
1, 138828, Note_off_c, 1, 60, 0
1, 138840, Note_on_c, 1, 68, 127
1, 138912, Note_off_c, 1, 72, 0
1, 138936, Note_off_c, 1, 68, 0
1, 138960, Note_on_c, 1, 70, 127
1, 138960, Note_on_c, 1, 62, 127
1, 139020, Note_on_c, 1, 58, 127
1, 139056, Note_off_c, 1, 62, 0
1, 139068, Note_off_c, 1, 58, 0
1, 139104, Note_off_c, 1, 65, 0
1, 139200, Note_on_c, 1, 67, 127
1, 139200, Note_on_c, 1, 64, 127
1, 139200, Note_on_c, 1, 55, 127
1, 139248, Note_off_c, 1, 55, 0
1, 139296, Note_off_c, 1, 70, 0
1, 139296, Note_off_c, 1, 64, 0
1, 139392, Note_off_c, 1, 67, 0
1, 139440, Note_on_c, 1, 68, 127
1, 139440, Note_on_c, 1, 53, 127
1, 139488, Note_off_c, 1, 53, 0
1, 139500, Note_on_c, 1, 56, 127
1, 139548, Note_off_c, 1, 56, 0
1, 139560, Note_on_c, 1, 72, 127
1, 139560, Note_on_c, 1, 65, 127
1, 139560, Note_on_c, 1, 55, 127
1, 139608, Note_off_c, 1, 55, 0
1, 139620, Note_on_c, 1, 58, 127
1, 139656, Note_off_c, 1, 72, 0
1, 139656, Note_off_c, 1, 65, 0
1, 139668, Note_off_c, 1, 58, 0
1, 139680, Note_on_c, 1, 77, 127
1, 139680, Note_on_c, 1, 60, 127
1, 139776, Note_off_c, 1, 60, 0
1, 139824, Note_off_c, 1, 68, 0
1, 139824, Note_off_c, 1, 77, 0
1, 139860, Note_on_c, 1, 75, 127
1, 139908, Note_off_c, 1, 75, 0
1, 139920, Note_on_c, 1, 74, 127
1, 139920, Note_on_c, 1, 65, 127
1, 139920, Note_on_c, 1, 62, 127
1, 139920, Note_on_c, 1, 56, 127
1, 139968, Note_off_c, 1, 56, 0
1, 139980, Note_on_c, 1, 58, 127
1, 140016, Note_off_c, 1, 74, 0
1, 140016, Note_off_c, 1, 62, 0
1, 140028, Note_off_c, 1, 58, 0
1, 140040, Note_on_c, 1, 72, 127
1, 140112, Note_off_c, 1, 65, 0
1, 140136, Note_off_c, 1, 72, 0
1, 140160, Note_on_c, 1, 70, 127
1, 140160, Note_on_c, 1, 67, 127
1, 140160, Note_on_c, 1, 55, 127
1, 140208, Note_off_c, 1, 55, 0
1, 140220, Note_on_c, 1, 56, 127
1, 140268, Note_off_c, 1, 56, 0
1, 140280, Note_on_c, 1, 63, 127
1, 140352, Note_off_c, 1, 70, 0
1, 140376, Note_off_c, 1, 63, 0
1, 140400, Note_on_c, 1, 75, 127
1, 140400, Note_on_c, 1, 58, 127
1, 140496, Note_off_c, 1, 58, 0
1, 140544, Note_off_c, 1, 67, 0
1, 140592, Note_off_c, 1, 75, 0
1, 140640, Note_on_c, 1, 77, 127
1, 140640, Note_on_c, 1, 65, 127
1, 140640, Note_on_c, 1, 60, 127
1, 140640, Note_on_c, 1, 56, 127
1, 140688, Note_off_c, 1, 56, 0
1, 140700, Note_on_c, 1, 58, 127
1, 140736, Note_off_c, 1, 60, 0
1, 140748, Note_off_c, 1, 58, 0
1, 140832, Note_off_c, 1, 77, 0
1, 140880, Note_on_c, 1, 79, 127
1, 140880, Note_on_c, 1, 62, 127
1, 140928, Note_off_c, 1, 79, 0
1, 140940, Note_on_c, 1, 80, 127
1, 140976, Note_off_c, 1, 65, 0
1, 140976, Note_off_c, 1, 62, 0
1, 140988, Note_off_c, 1, 80, 0
1, 141000, Note_on_c, 1, 82, 127
1, 141000, Note_on_c, 1, 63, 127
1, 141048, Note_off_c, 1, 82, 0
1, 141048, Note_off_c, 1, 63, 0
1, 141060, Note_on_c, 1, 67, 127
1, 141060, Note_on_c, 1, 75, 127
1, 141108, Note_off_c, 1, 67, 0
1, 141108, Note_off_c, 1, 75, 0
1, 141120, Note_on_c, 1, 65, 127
1, 141120, Note_on_c, 1, 75, 127
1, 141120, Note_on_c, 1, 46, 127
1, 141168, Note_off_c, 1, 65, 0
1, 141180, Note_on_c, 1, 68, 127
1, 141228, Note_off_c, 1, 68, 0
1, 141240, Note_on_c, 1, 67, 127
1, 141288, Note_off_c, 1, 67, 0
1, 141300, Note_on_c, 1, 70, 127
1, 141312, Note_off_c, 1, 75, 0
1, 141348, Note_off_c, 1, 70, 0
1, 141360, Note_on_c, 1, 74, 127
1, 141420, Note_on_c, 1, 72, 127
1, 141468, Note_off_c, 1, 72, 0
1, 141504, Note_off_c, 1, 46, 0
1, 141528, Note_off_c, 1, 74, 0
1, 141540, Note_on_c, 1, 75, 127
1, 141540, Note_on_c, 1, 68, 127
1, 141588, Note_off_c, 1, 75, 0
1, 141588, Note_off_c, 1, 68, 0
1, 141600, Note_on_c, 1, 75, 127
1, 141600, Note_on_c, 1, 67, 127
1, 141600, Note_on_c, 1, 39, 127
1, 141648, Note_off_c, 1, 75, 0
1, 141660, Note_on_c, 1, 82, 127
1, 141708, Note_off_c, 1, 82, 0
1, 141720, Note_on_c, 1, 80, 127
1, 141768, Note_off_c, 1, 80, 0
1, 141792, Note_off_c, 1, 67, 0
1, 141792, Note_off_c, 1, 39, 0
1, 141840, Note_on_c, 1, 79, 127
1, 141888, Note_off_c, 1, 79, 0
1, 141900, Note_on_c, 1, 80, 127
1, 141900, Note_on_c, 1, 70, 127
1, 141948, Note_off_c, 1, 80, 0
1, 141948, Note_off_c, 1, 70, 0
1, 141960, Note_on_c, 1, 68, 127
1, 141960, Note_on_c, 1, 77, 127
1, 142008, Note_off_c, 1, 68, 0
1, 142008, Note_off_c, 1, 77, 0
1, 142020, Note_on_c, 1, 70, 127
1, 142020, Note_on_c, 1, 79, 127
1, 142068, Note_off_c, 1, 70, 0
1, 142068, Note_off_c, 1, 79, 0
1, 142080, Note_on_c, 1, 75, 127
1, 142080, Note_on_c, 1, 67, 127
1, 142080, Note_on_c, 1, 51, 127
1, 142128, Note_off_c, 1, 75, 0
1, 142140, Note_on_c, 1, 79, 127
1, 142188, Note_off_c, 1, 79, 0
1, 142200, Note_on_c, 1, 77, 127
1, 142248, Note_off_c, 1, 77, 0
1, 142272, Note_off_c, 1, 67, 0
1, 142272, Note_off_c, 1, 51, 0
1, 142320, Note_on_c, 1, 74, 127
1, 142320, Note_on_c, 1, 58, 127
1, 142368, Note_off_c, 1, 74, 0
1, 142380, Note_on_c, 1, 77, 127
1, 142428, Note_off_c, 1, 77, 0
1, 142440, Note_on_c, 1, 75, 127
1, 142440, Note_on_c, 1, 67, 127
1, 142488, Note_off_c, 1, 75, 0
1, 142500, Note_on_c, 1, 79, 127
1, 142536, Note_off_c, 1, 67, 0
1, 142548, Note_off_c, 1, 79, 0
1, 142560, Note_on_c, 1, 62, 127
1, 142620, Note_on_c, 1, 80, 127
1, 142656, Note_off_c, 1, 62, 0
1, 142668, Note_off_c, 1, 80, 0
1, 142704, Note_off_c, 1, 58, 0
1, 142800, Note_on_c, 1, 82, 127
1, 142800, Note_on_c, 1, 63, 127
1, 142800, Note_on_c, 1, 55, 127
1, 142848, Note_off_c, 1, 82, 0
1, 142860, Note_on_c, 1, 75, 127
1, 142896, Note_off_c, 1, 63, 0
1, 142908, Note_off_c, 1, 75, 0
1, 142920, Note_on_c, 1, 74, 127
1, 142968, Note_off_c, 1, 74, 0
1, 142992, Note_off_c, 1, 55, 0
1, 143040, Note_on_c, 1, 72, 127
1, 143040, Note_on_c, 1, 56, 127
1, 143088, Note_off_c, 1, 72, 0
1, 143100, Note_on_c, 1, 75, 127
1, 143148, Note_off_c, 1, 75, 0
1, 143280, Note_on_c, 1, 65, 127
1, 143340, Note_on_c, 1, 73, 127
1, 143376, Note_off_c, 1, 65, 0
1, 143388, Note_off_c, 1, 73, 0
1, 143424, Note_off_c, 1, 56, 0
1, 143520, Note_on_c, 1, 70, 127
1, 143520, Note_on_c, 1, 67, 127
1, 143520, Note_on_c, 1, 58, 127
1, 143568, Note_off_c, 1, 70, 0
1, 143580, Note_on_c, 1, 73, 127
1, 143616, Note_off_c, 1, 67, 0
1, 143628, Note_off_c, 1, 73, 0
1, 143712, Note_off_c, 1, 58, 0
1, 143760, Note_on_c, 1, 68, 127
1, 143760, Note_on_c, 1, 60, 127
1, 143808, Note_off_c, 1, 68, 0
1, 143820, Note_on_c, 1, 72, 127
1, 143868, Note_off_c, 1, 72, 0
1, 143880, Note_on_c, 1, 70, 127
1, 143928, Note_off_c, 1, 70, 0
1, 143940, Note_on_c, 1, 73, 127
1, 143988, Note_off_c, 1, 73, 0
1, 144000, Note_on_c, 1, 63, 127
1, 144060, Note_on_c, 1, 75, 127
1, 144096, Note_off_c, 1, 63, 0
1, 144108, Note_off_c, 1, 75, 0
1, 144120, Note_on_c, 1, 74, 127
1, 144144, Note_off_c, 1, 60, 0
1, 144168, Note_off_c, 1, 74, 0
1, 144240, Note_on_c, 1, 72, 127
1, 144240, Note_on_c, 1, 65, 127
1, 144240, Note_on_c, 1, 56, 127
1, 144288, Note_off_c, 1, 72, 0
1, 144300, Note_on_c, 1, 77, 127
1, 144336, Note_off_c, 1, 65, 0
1, 144348, Note_off_c, 1, 77, 0
1, 144360, Note_on_c, 1, 75, 127
1, 144408, Note_off_c, 1, 75, 0
1, 144432, Note_off_c, 1, 56, 0
1, 144480, Note_on_c, 1, 74, 127
1, 144480, Note_on_c, 1, 58, 127
1, 144528, Note_off_c, 1, 74, 0
1, 144540, Note_on_c, 1, 77, 127
1, 144588, Note_off_c, 1, 77, 0
1, 144600, Note_on_c, 1, 75, 127
1, 144600, Note_on_c, 1, 67, 127
1, 144648, Note_off_c, 1, 75, 0
1, 144660, Note_on_c, 1, 79, 127
1, 144696, Note_off_c, 1, 67, 0
1, 144708, Note_off_c, 1, 79, 0
1, 144720, Note_on_c, 1, 62, 127
1, 144780, Note_on_c, 1, 82, 127
1, 144816, Note_off_c, 1, 62, 0
1, 144828, Note_off_c, 1, 82, 0
1, 144840, Note_on_c, 1, 80, 127
1, 144864, Note_off_c, 1, 58, 0
1, 144888, Note_off_c, 1, 80, 0
1, 144960, Note_on_c, 1, 79, 127
1, 144960, Note_on_c, 1, 63, 127
1, 144960, Note_on_c, 1, 60, 127
1, 145008, Note_off_c, 1, 79, 0
1, 145020, Note_on_c, 1, 84, 127
1, 145056, Note_off_c, 1, 63, 0
1, 145068, Note_off_c, 1, 84, 0
1, 145080, Note_on_c, 1, 82, 127
1, 145128, Note_off_c, 1, 82, 0
1, 145152, Note_off_c, 1, 60, 0
1, 145200, Note_on_c, 1, 80, 127
1, 145200, Note_on_c, 1, 53, 127
1, 145248, Note_off_c, 1, 80, 0
1, 145260, Note_on_c, 1, 84, 127
1, 145308, Note_off_c, 1, 84, 0
1, 145320, Note_on_c, 1, 82, 127
1, 145320, Note_on_c, 1, 65, 127
1, 145368, Note_off_c, 1, 82, 0
1, 145416, Note_off_c, 1, 65, 0
1, 145440, Note_on_c, 1, 60, 127
1, 145536, Note_off_c, 1, 60, 0
1, 145560, Note_on_c, 1, 79, 127
1, 145584, Note_off_c, 1, 53, 0
1, 145608, Note_off_c, 1, 79, 0
1, 145680, Note_on_c, 1, 77, 127
1, 145680, Note_on_c, 1, 62, 127
1, 145680, Note_on_c, 1, 58, 127
1, 145728, Note_off_c, 1, 77, 0
1, 145740, Note_on_c, 1, 82, 127
1, 145776, Note_off_c, 1, 62, 0
1, 145788, Note_off_c, 1, 82, 0
1, 145800, Note_on_c, 1, 80, 127
1, 145848, Note_off_c, 1, 80, 0
1, 145872, Note_off_c, 1, 58, 0
1, 145920, Note_on_c, 1, 79, 127
1, 145920, Note_on_c, 1, 63, 127
1, 145920, Note_on_c, 1, 51, 127
1, 145968, Note_off_c, 1, 79, 0
1, 145980, Note_on_c, 1, 82, 127
1, 146016, Note_off_c, 1, 63, 0
1, 146028, Note_off_c, 1, 82, 0
1, 146040, Note_on_c, 1, 80, 127
1, 146040, Note_on_c, 1, 58, 127
1, 146088, Note_off_c, 1, 80, 0
1, 146136, Note_off_c, 1, 58, 0
1, 146208, Note_off_c, 1, 51, 0
1, 146280, Note_on_c, 1, 77, 127
1, 146328, Note_off_c, 1, 77, 0
1, 146400, Note_on_c, 1, 75, 127
1, 146400, Note_on_c, 1, 53, 127
1, 146448, Note_off_c, 1, 75, 0
1, 146460, Note_on_c, 1, 77, 127
1, 146496, Note_off_c, 1, 53, 0
1, 146508, Note_off_c, 1, 77, 0
1, 146520, Note_on_c, 1, 74, 127
1, 146520, Note_on_c, 1, 55, 127
1, 146568, Note_off_c, 1, 74, 0
1, 146580, Note_on_c, 1, 75, 127
1, 146616, Note_off_c, 1, 55, 0
1, 146628, Note_off_c, 1, 75, 0
1, 146640, Note_on_c, 1, 72, 127
1, 146640, Note_on_c, 1, 56, 127
1, 146688, Note_off_c, 1, 56, 0
1, 146700, Note_on_c, 1, 60, 127
1, 146736, Note_off_c, 1, 72, 0
1, 146748, Note_off_c, 1, 60, 0
1, 146760, Note_on_c, 1, 75, 127
1, 146760, Note_on_c, 1, 56, 127
1, 146808, Note_off_c, 1, 56, 0
1, 146820, Note_on_c, 1, 60, 127
1, 146856, Note_off_c, 1, 75, 0
1, 146868, Note_off_c, 1, 60, 0
1, 146880, Note_on_c, 1, 80, 127
1, 146880, Note_on_c, 1, 53, 127
1, 146928, Note_off_c, 1, 53, 0
1, 146940, Note_on_c, 1, 56, 127
1, 146976, Note_off_c, 1, 80, 0
1, 146988, Note_off_c, 1, 56, 0
1, 147000, Note_on_c, 1, 72, 127
1, 147000, Note_on_c, 1, 53, 127
1, 147048, Note_off_c, 1, 53, 0
1, 147060, Note_on_c, 1, 56, 127
1, 147096, Note_off_c, 1, 72, 0
1, 147108, Note_off_c, 1, 56, 0
1, 147120, Note_on_c, 1, 70, 127
1, 147120, Note_on_c, 1, 50, 127
1, 147168, Note_off_c, 1, 50, 0
1, 147180, Note_on_c, 1, 53, 127
1, 147216, Note_off_c, 1, 70, 0
1, 147228, Note_off_c, 1, 53, 0
1, 147240, Note_on_c, 1, 80, 127
1, 147240, Note_on_c, 1, 50, 127
1, 147288, Note_off_c, 1, 50, 0
1, 147300, Note_on_c, 1, 53, 127
1, 147336, Note_off_c, 1, 80, 0
1, 147348, Note_off_c, 1, 53, 0
1, 147360, Note_on_c, 1, 70, 127
1, 147360, Note_on_c, 1, 55, 127
1, 147408, Note_off_c, 1, 55, 0
1, 147420, Note_on_c, 1, 58, 127
1, 147456, Note_off_c, 1, 70, 0
1, 147468, Note_off_c, 1, 58, 0
1, 147480, Note_on_c, 1, 74, 127
1, 147480, Note_on_c, 1, 55, 127
1, 147528, Note_off_c, 1, 55, 0
1, 147540, Note_on_c, 1, 58, 127
1, 147576, Note_off_c, 1, 74, 0
1, 147588, Note_off_c, 1, 58, 0
1, 147600, Note_on_c, 1, 79, 127
1, 147600, Note_on_c, 1, 51, 127
1, 147648, Note_off_c, 1, 51, 0
1, 147660, Note_on_c, 1, 55, 127
1, 147696, Note_off_c, 1, 79, 0
1, 147708, Note_off_c, 1, 55, 0
1, 147720, Note_on_c, 1, 70, 127
1, 147720, Note_on_c, 1, 51, 127
1, 147768, Note_off_c, 1, 51, 0
1, 147780, Note_on_c, 1, 55, 127
1, 147816, Note_off_c, 1, 70, 0
1, 147828, Note_off_c, 1, 55, 0
1, 147840, Note_on_c, 1, 68, 127
1, 147840, Note_on_c, 1, 48, 127
1, 147888, Note_off_c, 1, 48, 0
1, 147900, Note_on_c, 1, 51, 127
1, 147936, Note_off_c, 1, 68, 0
1, 147948, Note_off_c, 1, 51, 0
1, 147960, Note_on_c, 1, 79, 127
1, 147960, Note_on_c, 1, 48, 127
1, 148008, Note_off_c, 1, 48, 0
1, 148020, Note_on_c, 1, 51, 127
1, 148056, Note_off_c, 1, 79, 0
1, 148068, Note_off_c, 1, 51, 0
1, 148080, Note_on_c, 1, 68, 127
1, 148080, Note_on_c, 1, 53, 127
1, 148128, Note_off_c, 1, 53, 0
1, 148140, Note_on_c, 1, 56, 127
1, 148176, Note_off_c, 1, 68, 0
1, 148188, Note_off_c, 1, 56, 0
1, 148200, Note_on_c, 1, 72, 127
1, 148200, Note_on_c, 1, 53, 127
1, 148248, Note_off_c, 1, 53, 0
1, 148260, Note_on_c, 1, 56, 127
1, 148296, Note_off_c, 1, 72, 0
1, 148308, Note_off_c, 1, 56, 0
1, 148320, Note_on_c, 1, 77, 127
1, 148320, Note_on_c, 1, 50, 127
1, 148368, Note_off_c, 1, 50, 0
1, 148380, Note_on_c, 1, 53, 127
1, 148416, Note_off_c, 1, 77, 0
1, 148428, Note_off_c, 1, 53, 0
1, 148440, Note_on_c, 1, 68, 127
1, 148440, Note_on_c, 1, 50, 127
1, 148488, Note_off_c, 1, 50, 0
1, 148500, Note_on_c, 1, 53, 127
1, 148536, Note_off_c, 1, 68, 0
1, 148548, Note_off_c, 1, 53, 0
1, 148560, Note_on_c, 1, 67, 127
1, 148560, Note_on_c, 1, 46, 127
1, 148608, Note_off_c, 1, 46, 0
1, 148620, Note_on_c, 1, 50, 127
1, 148656, Note_off_c, 1, 67, 0
1, 148668, Note_off_c, 1, 50, 0
1, 148680, Note_on_c, 1, 77, 127
1, 148680, Note_on_c, 1, 46, 127
1, 148728, Note_off_c, 1, 46, 0
1, 148740, Note_on_c, 1, 50, 127
1, 148776, Note_off_c, 1, 77, 0
1, 148788, Note_off_c, 1, 50, 0
1, 148800, Note_on_c, 1, 67, 127
1, 148800, Note_on_c, 1, 51, 127
1, 148848, Note_off_c, 1, 51, 0
1, 148860, Note_on_c, 1, 55, 127
1, 148896, Note_off_c, 1, 67, 0
1, 148908, Note_off_c, 1, 55, 0
1, 148920, Note_on_c, 1, 70, 127
1, 148920, Note_on_c, 1, 51, 127
1, 148968, Note_off_c, 1, 51, 0
1, 148980, Note_on_c, 1, 55, 127
1, 149016, Note_off_c, 1, 70, 0
1, 149028, Note_off_c, 1, 55, 0
1, 149040, Note_on_c, 1, 75, 127
1, 149040, Note_on_c, 1, 48, 127
1, 149088, Note_off_c, 1, 48, 0
1, 149100, Note_on_c, 1, 51, 127
1, 149136, Note_off_c, 1, 75, 0
1, 149148, Note_off_c, 1, 51, 0
1, 149160, Note_on_c, 1, 67, 127
1, 149160, Note_on_c, 1, 48, 127
1, 149208, Note_off_c, 1, 48, 0
1, 149220, Note_on_c, 1, 51, 127
1, 149256, Note_off_c, 1, 67, 0
1, 149268, Note_off_c, 1, 51, 0
1, 149280, Note_on_c, 1, 65, 127
1, 149280, Note_on_c, 1, 45, 127
1, 149328, Note_off_c, 1, 45, 0
1, 149340, Note_on_c, 1, 48, 127
1, 149376, Note_off_c, 1, 65, 0
1, 149388, Note_off_c, 1, 48, 0
1, 149400, Note_on_c, 1, 75, 127
1, 149400, Note_on_c, 1, 45, 127
1, 149448, Note_off_c, 1, 45, 0
1, 149460, Note_on_c, 1, 48, 127
1, 149496, Note_off_c, 1, 75, 0
1, 149508, Note_off_c, 1, 48, 0
1, 149520, Note_on_c, 1, 74, 127
1, 149520, Note_on_c, 1, 46, 127
1, 149568, Note_off_c, 1, 74, 0
1, 149580, Note_on_c, 1, 77, 127
1, 149628, Note_off_c, 1, 77, 0
1, 149760, Note_on_c, 1, 70, 127
1, 149808, Note_off_c, 1, 46, 0
1, 149820, Note_on_c, 1, 50, 127
1, 149856, Note_off_c, 1, 70, 0
1, 149868, Note_off_c, 1, 50, 0
1, 149880, Note_on_c, 1, 69, 127
1, 149880, Note_on_c, 1, 48, 127
1, 149928, Note_off_c, 1, 69, 0
1, 149928, Note_off_c, 1, 48, 0
1, 149940, Note_on_c, 1, 67, 127
1, 149940, Note_on_c, 1, 51, 127
1, 149988, Note_off_c, 1, 67, 0
1, 149988, Note_off_c, 1, 51, 0
1, 150000, Note_on_c, 1, 65, 127
1, 150000, Note_on_c, 1, 58, 127
1, 150000, Note_on_c, 1, 50, 127
1, 150048, Note_off_c, 1, 50, 0
1, 150060, Note_on_c, 1, 53, 127
1, 150096, Note_off_c, 1, 65, 0
1, 150108, Note_off_c, 1, 53, 0
1, 150120, Note_on_c, 1, 67, 127
1, 150120, Note_on_c, 1, 51, 127
1, 150168, Note_off_c, 1, 51, 0
1, 150180, Note_on_c, 1, 55, 127
1, 150192, Note_off_c, 1, 58, 0
1, 150216, Note_off_c, 1, 67, 0
1, 150228, Note_off_c, 1, 55, 0
1, 150240, Note_on_c, 1, 69, 127
1, 150240, Note_on_c, 1, 65, 127
1, 150240, Note_on_c, 1, 53, 127
1, 150288, Note_off_c, 1, 53, 0
1, 150300, Note_on_c, 1, 55, 127
1, 150336, Note_off_c, 1, 69, 0
1, 150348, Note_off_c, 1, 55, 0
1, 150360, Note_on_c, 1, 74, 127
1, 150420, Note_on_c, 1, 51, 127
1, 150456, Note_off_c, 1, 74, 0
1, 150468, Note_off_c, 1, 51, 0
1, 150480, Note_on_c, 1, 50, 127
1, 150528, Note_off_c, 1, 50, 0
1, 150624, Note_off_c, 1, 65, 0
1, 150720, Note_on_c, 1, 70, 127
1, 150720, Note_on_c, 1, 62, 127
1, 150720, Note_on_c, 1, 46, 127
1, 150768, Note_off_c, 1, 46, 0
1, 150780, Note_on_c, 1, 58, 127
1, 150816, Note_off_c, 1, 70, 0
1, 150828, Note_off_c, 1, 58, 0
1, 150840, Note_on_c, 1, 57, 127
1, 150888, Note_off_c, 1, 57, 0
1, 150912, Note_off_c, 1, 62, 0
1, 150960, Note_on_c, 1, 63, 127
1, 150960, Note_on_c, 1, 55, 127
1, 151008, Note_off_c, 1, 55, 0
1, 151020, Note_on_c, 1, 58, 127
1, 151068, Note_off_c, 1, 58, 0
1, 151080, Note_on_c, 1, 79, 127
1, 151176, Note_off_c, 1, 79, 0
1, 151200, Note_on_c, 1, 72, 127
1, 151260, Note_on_c, 1, 56, 127
1, 151296, Note_off_c, 1, 72, 0
1, 151308, Note_off_c, 1, 56, 0
1, 151344, Note_off_c, 1, 63, 0
1, 151440, Note_on_c, 1, 74, 127
1, 151440, Note_on_c, 1, 65, 127
1, 151440, Note_on_c, 1, 53, 127
1, 151488, Note_off_c, 1, 53, 0
1, 151500, Note_on_c, 1, 56, 127
1, 151536, Note_off_c, 1, 74, 0
1, 151548, Note_off_c, 1, 56, 0
1, 151665, Note_off_c, 1, 65, 0
1, 151680, Note_on_c, 1, 67, 127
1, 151680, Note_on_c, 1, 51, 127
1, 151728, Note_off_c, 1, 51, 0
1, 151740, Note_on_c, 1, 55, 127
1, 151788, Note_off_c, 1, 55, 0
1, 151800, Note_on_c, 1, 75, 127
1, 151800, Note_on_c, 1, 53, 127
1, 151848, Note_off_c, 1, 53, 0
1, 151860, Note_on_c, 1, 56, 127
1, 151896, Note_off_c, 1, 75, 0
1, 151908, Note_off_c, 1, 56, 0
1, 151920, Note_on_c, 1, 70, 127
1, 151980, Note_on_c, 1, 58, 127
1, 152016, Note_off_c, 1, 70, 0
1, 152028, Note_off_c, 1, 58, 0
1, 152064, Note_off_c, 1, 67, 0
1, 152160, Note_on_c, 1, 72, 127
1, 152160, Note_on_c, 1, 63, 127
1, 152160, Note_on_c, 1, 48, 127
1, 152208, Note_off_c, 1, 48, 0
1, 152220, Note_on_c, 1, 51, 127
1, 152256, Note_off_c, 1, 72, 0
1, 152268, Note_off_c, 1, 51, 0
1, 152280, Note_on_c, 1, 50, 127
1, 152328, Note_off_c, 1, 50, 0
1, 152352, Note_off_c, 1, 63, 0
1, 152400, Note_on_c, 1, 65, 127
1, 152400, Note_on_c, 1, 46, 127
1, 152460, Note_on_c, 1, 74, 127
1, 152496, Note_off_c, 1, 46, 0
1, 152508, Note_off_c, 1, 74, 0
1, 152520, Note_on_c, 1, 72, 127
1, 152520, Note_on_c, 1, 58, 127
1, 152568, Note_off_c, 1, 72, 0
1, 152592, Note_off_c, 1, 65, 0
1, 152616, Note_off_c, 1, 58, 0
1, 152640, Note_on_c, 1, 75, 127
1, 152640, Note_on_c, 1, 60, 127
1, 152700, Note_on_c, 1, 68, 127
1, 152736, Note_off_c, 1, 60, 0
1, 152748, Note_off_c, 1, 68, 0
1, 152760, Note_on_c, 1, 67, 127
1, 152808, Note_off_c, 1, 67, 0
1, 152832, Note_off_c, 1, 75, 0
1, 152880, Note_on_c, 1, 65, 127
1, 152880, Note_on_c, 1, 77, 127
1, 152880, Note_on_c, 1, 62, 127
1, 152928, Note_off_c, 1, 65, 0
1, 152940, Note_on_c, 1, 70, 127
1, 152976, Note_off_c, 1, 62, 0
1, 152988, Note_off_c, 1, 70, 0
1, 153000, Note_on_c, 1, 68, 127
1, 153048, Note_off_c, 1, 68, 0
1, 153072, Note_off_c, 1, 77, 0
1, 153120, Note_on_c, 1, 67, 127
1, 153120, Note_on_c, 1, 63, 127
1, 153180, Note_on_c, 1, 79, 127
1, 153216, Note_off_c, 1, 63, 0
1, 153228, Note_off_c, 1, 79, 0
1, 153240, Note_on_c, 1, 77, 127
1, 153240, Note_on_c, 1, 51, 127
1, 153288, Note_off_c, 1, 77, 0
1, 153312, Note_off_c, 1, 67, 0
1, 153336, Note_off_c, 1, 51, 0
1, 153360, Note_on_c, 1, 80, 127
1, 153360, Note_on_c, 1, 53, 127
1, 153420, Note_on_c, 1, 73, 127
1, 153456, Note_off_c, 1, 53, 0
1, 153468, Note_off_c, 1, 73, 0
1, 153480, Note_on_c, 1, 72, 127
1, 153528, Note_off_c, 1, 72, 0
1, 153552, Note_off_c, 1, 80, 0
1, 153600, Note_on_c, 1, 70, 127
1, 153600, Note_on_c, 1, 82, 127
1, 153600, Note_on_c, 1, 55, 127
1, 153648, Note_off_c, 1, 70, 0
1, 153660, Note_on_c, 1, 75, 127
1, 153696, Note_off_c, 1, 55, 0
1, 153708, Note_off_c, 1, 75, 0
1, 153720, Note_on_c, 1, 73, 127
1, 153768, Note_off_c, 1, 73, 0
1, 153792, Note_off_c, 1, 82, 0
1, 153840, Note_on_c, 1, 72, 127
1, 153840, Note_on_c, 1, 56, 127
1, 153900, Note_on_c, 1, 84, 127
1, 153936, Note_off_c, 1, 56, 0
1, 153948, Note_off_c, 1, 84, 0
1, 153960, Note_on_c, 1, 82, 127
1, 153960, Note_on_c, 1, 68, 127
1, 154008, Note_off_c, 1, 82, 0
1, 154032, Note_off_c, 1, 72, 0
1, 154056, Note_off_c, 1, 68, 0
1, 154080, Note_on_c, 1, 77, 127
1, 154080, Note_on_c, 1, 62, 127
1, 154140, Note_on_c, 1, 70, 127
1, 154176, Note_off_c, 1, 62, 0
1, 154188, Note_off_c, 1, 70, 0
1, 154200, Note_on_c, 1, 68, 127
1, 154248, Note_off_c, 1, 68, 0
1, 154272, Note_off_c, 1, 77, 0
1, 154320, Note_on_c, 1, 67, 127
1, 154320, Note_on_c, 1, 79, 127
1, 154320, Note_on_c, 1, 64, 127
1, 154368, Note_off_c, 1, 67, 0
1, 154380, Note_on_c, 1, 72, 127
1, 154416, Note_off_c, 1, 64, 0
1, 154428, Note_off_c, 1, 72, 0
1, 154440, Note_on_c, 1, 70, 127
1, 154488, Note_off_c, 1, 70, 0
1, 154512, Note_off_c, 1, 79, 0
1, 154560, Note_on_c, 1, 68, 127
1, 154560, Note_on_c, 1, 65, 127
1, 154620, Note_on_c, 1, 80, 127
1, 154656, Note_off_c, 1, 68, 0
1, 154668, Note_off_c, 1, 80, 0
1, 154680, Note_on_c, 1, 79, 127
1, 154680, Note_on_c, 1, 72, 127
1, 154728, Note_off_c, 1, 79, 0
1, 154752, Note_off_c, 1, 65, 0
1, 154776, Note_off_c, 1, 72, 0
1, 154800, Note_on_c, 1, 71, 127
1, 154800, Note_on_c, 1, 74, 127
1, 154860, Note_on_c, 1, 67, 127
1, 154896, Note_off_c, 1, 71, 0
1, 154896, Note_off_c, 1, 74, 0
1, 154908, Note_off_c, 1, 67, 0
1, 154920, Note_on_c, 1, 74, 127
1, 154920, Note_on_c, 1, 71, 127
1, 154920, Note_on_c, 1, 65, 127
1, 154968, Note_off_c, 1, 65, 0
1, 154980, Note_on_c, 1, 67, 127
1, 155016, Note_off_c, 1, 74, 0
1, 155016, Note_off_c, 1, 71, 0
1, 155028, Note_off_c, 1, 67, 0
1, 155040, Note_on_c, 1, 72, 127
1, 155040, Note_on_c, 1, 75, 127
1, 155040, Note_on_c, 1, 63, 127
1, 155088, Note_off_c, 1, 63, 0
1, 155100, Note_on_c, 1, 68, 127
1, 155136, Note_off_c, 1, 72, 0
1, 155136, Note_off_c, 1, 75, 0
1, 155148, Note_off_c, 1, 68, 0
1, 155160, Note_on_c, 1, 72, 127
1, 155160, Note_on_c, 1, 75, 127
1, 155160, Note_on_c, 1, 67, 127
1, 155208, Note_off_c, 1, 67, 0
1, 155220, Note_on_c, 1, 68, 127
1, 155256, Note_off_c, 1, 72, 0
1, 155256, Note_off_c, 1, 75, 0
1, 155268, Note_off_c, 1, 68, 0
1, 155280, Note_on_c, 1, 62, 127
1, 155340, Note_on_c, 1, 74, 127
1, 155340, Note_on_c, 1, 77, 127
1, 155388, Note_off_c, 1, 74, 0
1, 155388, Note_off_c, 1, 77, 0
1, 155400, Note_on_c, 1, 72, 127
1, 155400, Note_on_c, 1, 75, 127
1, 155448, Note_off_c, 1, 72, 0
1, 155448, Note_off_c, 1, 75, 0
1, 155472, Note_off_c, 1, 62, 0
1, 155520, Note_on_c, 1, 72, 127
1, 155520, Note_on_c, 1, 69, 127
1, 155580, Note_on_c, 1, 65, 127
1, 155616, Note_off_c, 1, 72, 0
1, 155616, Note_off_c, 1, 69, 0
1, 155628, Note_off_c, 1, 65, 0
1, 155640, Note_on_c, 1, 72, 127
1, 155640, Note_on_c, 1, 69, 127
1, 155640, Note_on_c, 1, 63, 127
1, 155688, Note_off_c, 1, 63, 0
1, 155700, Note_on_c, 1, 65, 127
1, 155736, Note_off_c, 1, 72, 0
1, 155736, Note_off_c, 1, 69, 0
1, 155748, Note_off_c, 1, 65, 0
1, 155760, Note_on_c, 1, 71, 127
1, 155760, Note_on_c, 1, 74, 127
1, 155760, Note_on_c, 1, 62, 127
1, 155808, Note_off_c, 1, 62, 0
1, 155820, Note_on_c, 1, 67, 127
1, 155856, Note_off_c, 1, 71, 0
1, 155856, Note_off_c, 1, 74, 0
1, 155868, Note_off_c, 1, 67, 0
1, 155880, Note_on_c, 1, 74, 127
1, 155880, Note_on_c, 1, 71, 127
1, 155880, Note_on_c, 1, 65, 127
1, 155928, Note_off_c, 1, 65, 0
1, 155940, Note_on_c, 1, 67, 127
1, 155976, Note_off_c, 1, 74, 0
1, 155976, Note_off_c, 1, 71, 0
1, 155988, Note_off_c, 1, 67, 0
1, 156000, Note_on_c, 1, 60, 127
1, 156060, Note_on_c, 1, 75, 127
1, 156060, Note_on_c, 1, 72, 127
1, 156108, Note_off_c, 1, 75, 0
1, 156108, Note_off_c, 1, 72, 0
1, 156120, Note_on_c, 1, 74, 127
1, 156120, Note_on_c, 1, 70, 127
1, 156168, Note_off_c, 1, 74, 0
1, 156168, Note_off_c, 1, 70, 0
1, 156192, Note_off_c, 1, 60, 0
1, 156240, Note_on_c, 1, 69, 127
1, 156300, Note_on_c, 1, 72, 127
1, 156300, Note_on_c, 1, 75, 127
1, 156348, Note_off_c, 1, 72, 0
1, 156348, Note_off_c, 1, 75, 0
1, 156360, Note_on_c, 1, 74, 127
1, 156360, Note_on_c, 1, 70, 127
1, 156408, Note_off_c, 1, 74, 0
1, 156408, Note_off_c, 1, 70, 0
1, 156432, Note_off_c, 1, 69, 0
1, 156480, Note_on_c, 1, 65, 127
1, 156540, Note_on_c, 1, 75, 127
1, 156540, Note_on_c, 1, 72, 127
1, 156588, Note_off_c, 1, 75, 0
1, 156588, Note_off_c, 1, 72, 0
1, 156600, Note_on_c, 1, 70, 127
1, 156600, Note_on_c, 1, 74, 127
1, 156648, Note_off_c, 1, 70, 0
1, 156648, Note_off_c, 1, 74, 0
1, 156672, Note_off_c, 1, 65, 0
1, 156720, Note_on_c, 1, 58, 127
1, 156780, Note_on_c, 1, 70, 127
1, 156780, Note_on_c, 1, 74, 127
1, 156828, Note_off_c, 1, 70, 0
1, 156828, Note_off_c, 1, 74, 0
1, 156840, Note_on_c, 1, 72, 127
1, 156840, Note_on_c, 1, 69, 127
1, 156888, Note_off_c, 1, 72, 0
1, 156888, Note_off_c, 1, 69, 0
1, 156912, Note_off_c, 1, 58, 0
1, 156960, Note_on_c, 1, 60, 127
1, 157020, Note_on_c, 1, 72, 127
1, 157020, Note_on_c, 1, 69, 127
1, 157068, Note_off_c, 1, 72, 0
1, 157068, Note_off_c, 1, 69, 0
1, 157080, Note_on_c, 1, 70, 127
1, 157080, Note_on_c, 1, 67, 127
1, 157128, Note_off_c, 1, 70, 0
1, 157128, Note_off_c, 1, 67, 0
1, 157152, Note_off_c, 1, 60, 0
1, 157200, Note_on_c, 1, 62, 127
1, 157260, Note_on_c, 1, 72, 127
1, 157260, Note_on_c, 1, 69, 127
1, 157308, Note_off_c, 1, 72, 0
1, 157308, Note_off_c, 1, 69, 0
1, 157320, Note_on_c, 1, 67, 127
1, 157320, Note_on_c, 1, 70, 127
1, 157368, Note_off_c, 1, 67, 0
1, 157368, Note_off_c, 1, 70, 0
1, 157392, Note_off_c, 1, 62, 0
1, 157440, Note_on_c, 1, 63, 127
1, 157500, Note_on_c, 1, 67, 127
1, 157500, Note_on_c, 1, 70, 127
1, 157548, Note_off_c, 1, 67, 0
1, 157548, Note_off_c, 1, 70, 0
1, 157560, Note_on_c, 1, 69, 127
1, 157560, Note_on_c, 1, 66, 127
1, 157608, Note_off_c, 1, 69, 0
1, 157608, Note_off_c, 1, 66, 0
1, 157632, Note_off_c, 1, 63, 0
1, 157680, Note_on_c, 1, 62, 127
1, 157740, Note_on_c, 1, 70, 127
1, 157740, Note_on_c, 1, 67, 127
1, 157788, Note_off_c, 1, 70, 0
1, 157788, Note_off_c, 1, 67, 0
1, 157800, Note_on_c, 1, 69, 127
1, 157800, Note_on_c, 1, 66, 127
1, 157848, Note_off_c, 1, 69, 0
1, 157848, Note_off_c, 1, 66, 0
1, 157872, Note_off_c, 1, 62, 0
1, 157920, Note_on_c, 1, 60, 127
1, 157980, Note_on_c, 1, 72, 127
1, 157980, Note_on_c, 1, 69, 127
1, 158028, Note_off_c, 1, 72, 0
1, 158028, Note_off_c, 1, 69, 0
1, 158040, Note_on_c, 1, 67, 127
1, 158040, Note_on_c, 1, 70, 127
1, 158088, Note_off_c, 1, 67, 0
1, 158088, Note_off_c, 1, 70, 0
1, 158112, Note_off_c, 1, 60, 0
1, 158160, Note_on_c, 1, 62, 127
1, 158220, Note_on_c, 1, 66, 127
1, 158220, Note_on_c, 1, 69, 127
1, 158268, Note_off_c, 1, 66, 0
1, 158268, Note_off_c, 1, 69, 0
1, 158280, Note_on_c, 1, 64, 127
1, 158280, Note_on_c, 1, 67, 127
1, 158328, Note_off_c, 1, 64, 0
1, 158328, Note_off_c, 1, 67, 0
1, 158352, Note_off_c, 1, 62, 0
1, 158400, Note_on_c, 1, 60, 127
1, 158460, Note_on_c, 1, 66, 127
1, 158460, Note_on_c, 1, 69, 127
1, 158508, Note_off_c, 1, 66, 0
1, 158508, Note_off_c, 1, 69, 0
1, 158520, Note_on_c, 1, 64, 127
1, 158520, Note_on_c, 1, 67, 127
1, 158568, Note_off_c, 1, 64, 0
1, 158568, Note_off_c, 1, 67, 0
1, 158592, Note_off_c, 1, 60, 0
1, 158640, Note_on_c, 1, 70, 127
1, 158640, Note_on_c, 1, 67, 127
1, 158640, Note_on_c, 1, 58, 127
1, 158640, Note_on_c, 1, 43, 127
1, 158688, Note_off_c, 1, 70, 0
1, 158688, Note_off_c, 1, 58, 0
1, 158700, Note_on_c, 1, 72, 127
1, 158700, Note_on_c, 1, 57, 127
1, 158748, Note_off_c, 1, 72, 0
1, 158748, Note_off_c, 1, 57, 0
1, 158760, Note_on_c, 1, 55, 127
1, 158808, Note_off_c, 1, 55, 0
1, 158832, Note_off_c, 1, 43, 0
1, 158880, Note_on_c, 1, 74, 127
1, 158880, Note_on_c, 1, 50, 127
1, 158940, Note_on_c, 1, 62, 127
1, 158976, Note_off_c, 1, 67, 0
1, 158988, Note_off_c, 1, 62, 0
1, 159000, Note_on_c, 1, 60, 127
1, 159048, Note_off_c, 1, 60, 0
1, 159060, Note_on_c, 1, 63, 127
1, 159072, Note_off_c, 1, 74, 0
1, 159108, Note_off_c, 1, 63, 0
1, 159120, Note_on_c, 1, 66, 127
1, 159216, Note_off_c, 1, 66, 0
1, 159264, Note_off_c, 1, 50, 0
1, 159360, Note_on_c, 1, 67, 127
1, 159360, Note_on_c, 1, 62, 127
1, 159360, Note_on_c, 1, 46, 127
1, 159420, Note_on_c, 1, 79, 127
1, 159456, Note_off_c, 1, 67, 0
1, 159468, Note_off_c, 1, 79, 0
1, 159480, Note_on_c, 1, 77, 127
1, 159528, Note_off_c, 1, 77, 0
1, 159552, Note_off_c, 1, 46, 0
1, 159600, Note_on_c, 1, 75, 127
1, 159600, Note_on_c, 1, 48, 127
1, 159648, Note_off_c, 1, 75, 0
1, 159696, Note_off_c, 1, 62, 0
1, 159720, Note_on_c, 1, 55, 127
1, 159816, Note_off_c, 1, 55, 0
1, 159840, Note_on_c, 1, 69, 127
1, 159840, Note_on_c, 1, 60, 127
1, 159936, Note_off_c, 1, 69, 0
1, 159984, Note_off_c, 1, 48, 0
1, 160032, Note_off_c, 1, 60, 0
1, 160080, Note_on_c, 1, 74, 127
1, 160080, Note_on_c, 1, 70, 127
1, 160080, Note_on_c, 1, 54, 127
1, 160080, Note_on_c, 1, 50, 127
1, 160128, Note_off_c, 1, 74, 0
1, 160140, Note_on_c, 1, 75, 127
1, 160176, Note_off_c, 1, 70, 0
1, 160188, Note_off_c, 1, 75, 0
1, 160272, Note_off_c, 1, 54, 0
1, 160272, Note_off_c, 1, 50, 0
1, 160320, Note_on_c, 1, 72, 127
1, 160320, Note_on_c, 1, 55, 127
1, 160320, Note_on_c, 1, 51, 127
1, 160368, Note_off_c, 1, 72, 0
1, 160380, Note_on_c, 1, 75, 127
1, 160428, Note_off_c, 1, 75, 0
1, 160440, Note_on_c, 1, 74, 127
1, 160488, Note_off_c, 1, 74, 0
1, 160500, Note_on_c, 1, 77, 127
1, 160512, Note_off_c, 1, 55, 0
1, 160548, Note_off_c, 1, 77, 0
1, 160560, Note_on_c, 1, 67, 127
1, 160560, Note_on_c, 1, 60, 127
1, 160620, Note_on_c, 1, 79, 127
1, 160656, Note_off_c, 1, 67, 0
1, 160656, Note_off_c, 1, 60, 0
1, 160668, Note_off_c, 1, 79, 0
1, 160680, Note_on_c, 1, 78, 127
1, 160680, Note_on_c, 1, 62, 127
1, 160704, Note_off_c, 1, 51, 0
1, 160728, Note_off_c, 1, 78, 0
1, 160740, Note_on_c, 1, 81, 127
1, 160776, Note_off_c, 1, 62, 0
1, 160788, Note_off_c, 1, 81, 0
1, 160800, Note_on_c, 1, 79, 127
1, 160800, Note_on_c, 1, 69, 127
1, 160800, Note_on_c, 1, 63, 127
1, 160800, Note_on_c, 1, 48, 127
1, 160848, Note_off_c, 1, 79, 0
1, 160860, Note_on_c, 1, 82, 127
1, 160896, Note_off_c, 1, 69, 0
1, 160908, Note_off_c, 1, 82, 0
1, 160920, Note_on_c, 1, 81, 127
1, 160968, Note_off_c, 1, 81, 0
1, 160992, Note_off_c, 1, 63, 0
1, 160992, Note_off_c, 1, 48, 0
1, 161040, Note_on_c, 1, 78, 127
1, 161040, Note_on_c, 1, 62, 127
1, 161040, Note_on_c, 1, 50, 127
1, 161088, Note_off_c, 1, 78, 0
1, 161100, Note_on_c, 1, 81, 127
1, 161148, Note_off_c, 1, 81, 0
1, 161160, Note_on_c, 1, 79, 127
1, 161160, Note_on_c, 1, 70, 127
1, 161208, Note_off_c, 1, 79, 0
1, 161220, Note_on_c, 1, 82, 127
1, 161256, Note_off_c, 1, 70, 0
1, 161268, Note_off_c, 1, 82, 0
1, 161280, Note_on_c, 1, 66, 127
1, 161328, Note_off_c, 1, 50, 0
1, 161328, Note_off_c, 1, 66, 0
1, 161340, Note_on_c, 1, 69, 127
1, 161388, Note_off_c, 1, 69, 0
1, 161400, Note_on_c, 1, 67, 127
1, 161400, Note_on_c, 1, 74, 127
1, 161400, Note_on_c, 1, 52, 127
1, 161448, Note_off_c, 1, 67, 0
1, 161496, Note_off_c, 1, 74, 0
1, 161496, Note_off_c, 1, 52, 0
1, 161520, Note_on_c, 1, 54, 127
1, 161580, Note_on_c, 1, 72, 127
1, 161616, Note_off_c, 1, 54, 0
1, 161628, Note_off_c, 1, 72, 0
1, 161760, Note_on_c, 1, 55, 127
1, 161808, Note_off_c, 1, 62, 0
1, 161820, Note_on_c, 1, 65, 127
1, 161856, Note_off_c, 1, 55, 0
1, 161868, Note_off_c, 1, 65, 0
1, 161880, Note_on_c, 1, 63, 127
1, 161928, Note_off_c, 1, 63, 0
1, 162240, Note_on_c, 1, 51, 127
1, 162336, Note_off_c, 1, 51, 0
1, 162360, Note_on_c, 1, 67, 127
1, 162360, Note_on_c, 1, 60, 127
1, 162360, Note_on_c, 1, 51, 127
1, 162408, Note_off_c, 1, 67, 0
1, 162420, Note_on_c, 1, 70, 127
1, 162456, Note_off_c, 1, 51, 0
1, 162468, Note_off_c, 1, 70, 0
1, 162480, Note_on_c, 1, 69, 127
1, 162480, Note_on_c, 1, 53, 127
1, 162528, Note_off_c, 1, 60, 0
1, 162540, Note_on_c, 1, 63, 127
1, 162576, Note_off_c, 1, 53, 0
1, 162588, Note_off_c, 1, 63, 0
1, 162600, Note_on_c, 1, 62, 127
1, 162648, Note_off_c, 1, 62, 0
1, 162660, Note_on_c, 1, 65, 127
1, 162708, Note_off_c, 1, 65, 0
1, 162720, Note_on_c, 1, 48, 127
1, 162816, Note_off_c, 1, 48, 0
1, 162960, Note_on_c, 1, 50, 127
1, 163008, Note_off_c, 1, 69, 0
1, 163056, Note_off_c, 1, 50, 0
1, 163080, Note_on_c, 1, 66, 127
1, 163080, Note_on_c, 1, 58, 127
1, 163080, Note_on_c, 1, 50, 127
1, 163128, Note_off_c, 1, 66, 0
1, 163140, Note_on_c, 1, 69, 127
1, 163176, Note_off_c, 1, 50, 0
1, 163188, Note_off_c, 1, 69, 0
1, 163200, Note_on_c, 1, 67, 127
1, 163200, Note_on_c, 1, 51, 127
1, 163248, Note_off_c, 1, 58, 0
1, 163260, Note_on_c, 1, 62, 127
1, 163296, Note_off_c, 1, 51, 0
1, 163308, Note_off_c, 1, 62, 0
1, 163320, Note_on_c, 1, 60, 127
1, 163368, Note_off_c, 1, 60, 0
1, 163380, Note_on_c, 1, 63, 127
1, 163428, Note_off_c, 1, 63, 0
1, 163440, Note_on_c, 1, 46, 127
1, 163536, Note_off_c, 1, 46, 0
1, 163680, Note_on_c, 1, 48, 127
1, 163728, Note_off_c, 1, 67, 0
1, 163776, Note_off_c, 1, 48, 0
1, 163800, Note_on_c, 1, 64, 127
1, 163800, Note_on_c, 1, 57, 127
1, 163800, Note_on_c, 1, 48, 127
1, 163848, Note_off_c, 1, 64, 0
1, 163860, Note_on_c, 1, 67, 127
1, 163896, Note_off_c, 1, 48, 0
1, 163908, Note_off_c, 1, 67, 0
1, 163920, Note_on_c, 1, 66, 127
1, 163920, Note_on_c, 1, 50, 127
1, 163968, Note_off_c, 1, 66, 0
1, 163980, Note_on_c, 1, 69, 127
1, 164016, Note_off_c, 1, 57, 0
1, 164028, Note_off_c, 1, 69, 0
1, 164040, Note_on_c, 1, 60, 127
1, 164136, Note_off_c, 1, 60, 0
1, 164160, Note_on_c, 1, 62, 127
1, 164160, Note_on_c, 1, 58, 127
1, 164208, Note_off_c, 1, 50, 0
1, 164208, Note_off_c, 1, 62, 0
1, 164256, Note_off_c, 1, 58, 0
1, 164280, Note_on_c, 1, 62, 127
1, 164280, Note_on_c, 1, 57, 127
1, 164280, Note_on_c, 1, 50, 127
1, 164328, Note_off_c, 1, 62, 0
1, 164340, Note_on_c, 1, 66, 127
1, 164376, Note_off_c, 1, 57, 0
1, 164376, Note_off_c, 1, 50, 0
1, 164388, Note_off_c, 1, 66, 0
1, 164400, Note_on_c, 1, 67, 127
1, 164400, Note_on_c, 1, 55, 127
1, 164400, Note_on_c, 1, 51, 127
1, 164448, Note_off_c, 1, 55, 0
1, 164460, Note_on_c, 1, 58, 127
1, 164496, Note_off_c, 1, 67, 0
1, 164496, Note_off_c, 1, 51, 0
1, 164508, Note_off_c, 1, 58, 0
1, 164520, Note_on_c, 1, 65, 127
1, 164520, Note_on_c, 1, 55, 127
1, 164520, Note_on_c, 1, 50, 127
1, 164568, Note_off_c, 1, 55, 0
1, 164580, Note_on_c, 1, 58, 127
1, 164616, Note_off_c, 1, 65, 0
1, 164616, Note_off_c, 1, 50, 0
1, 164628, Note_off_c, 1, 58, 0
1, 164640, Note_on_c, 1, 63, 127
1, 164640, Note_on_c, 1, 60, 127
1, 164640, Note_on_c, 1, 48, 127
1, 164688, Note_off_c, 1, 60, 0
1, 164832, Note_off_c, 1, 48, 0
1, 164880, Note_on_c, 1, 57, 127
1, 164880, Note_on_c, 1, 53, 127
1, 164928, Note_off_c, 1, 57, 0
1, 165000, Note_on_c, 1, 58, 127
1, 165048, Note_off_c, 1, 58, 0
1, 165060, Note_on_c, 1, 62, 127
1, 165072, Note_off_c, 1, 53, 0
1, 165108, Note_off_c, 1, 62, 0
1, 165120, Note_on_c, 1, 45, 127
1, 165168, Note_off_c, 1, 63, 0
1, 165180, Note_on_c, 1, 67, 127
1, 165228, Note_off_c, 1, 67, 0
1, 165240, Note_on_c, 1, 65, 127
1, 165288, Note_off_c, 1, 65, 0
1, 165312, Note_off_c, 1, 45, 0
1, 165360, Note_on_c, 1, 62, 127
1, 165360, Note_on_c, 1, 53, 127
1, 165360, Note_on_c, 1, 46, 127
1, 165408, Note_off_c, 1, 62, 0
1, 165420, Note_on_c, 1, 65, 127
1, 165456, Note_off_c, 1, 53, 0
1, 165468, Note_off_c, 1, 65, 0
1, 165480, Note_on_c, 1, 63, 127
1, 165480, Note_on_c, 1, 55, 127
1, 165528, Note_off_c, 1, 63, 0
1, 165540, Note_on_c, 1, 67, 127
1, 165576, Note_off_c, 1, 55, 0
1, 165588, Note_off_c, 1, 67, 0
1, 165600, Note_on_c, 1, 56, 127
1, 165744, Note_off_c, 1, 46, 0
1, 165780, Note_on_c, 1, 68, 127
1, 165828, Note_off_c, 1, 68, 0
1, 165840, Note_on_c, 1, 47, 127
1, 165888, Note_off_c, 1, 56, 0
1, 165960, Note_on_c, 1, 50, 127
1, 166008, Note_off_c, 1, 50, 0
1, 166032, Note_off_c, 1, 47, 0
1, 166080, Note_on_c, 1, 51, 127
1, 166080, Note_on_c, 1, 48, 127
1, 166128, Note_off_c, 1, 51, 0
1, 166176, Note_off_c, 1, 48, 0
1, 166200, Note_on_c, 1, 44, 127
1, 166296, Note_off_c, 1, 44, 0
1, 166320, Note_on_c, 1, 60, 127
1, 166320, Note_on_c, 1, 55, 127
1, 166320, Note_on_c, 1, 39, 127
1, 166368, Note_off_c, 1, 55, 0
1, 166380, Note_on_c, 1, 56, 127
1, 166416, Note_off_c, 1, 39, 0
1, 166428, Note_off_c, 1, 56, 0
1, 166440, Note_on_c, 1, 53, 127
1, 166488, Note_off_c, 1, 53, 0
1, 166560, Note_on_c, 1, 41, 127
1, 166608, Note_off_c, 1, 60, 0
1, 166620, Note_on_c, 1, 63, 127
1, 166656, Note_off_c, 1, 41, 0
1, 166668, Note_off_c, 1, 63, 0
1, 166680, Note_on_c, 1, 62, 127
1, 166728, Note_off_c, 1, 62, 0
1, 166740, Note_on_c, 1, 65, 127
1, 166788, Note_off_c, 1, 65, 0
1, 166800, Note_on_c, 1, 59, 127
1, 166800, Note_on_c, 1, 50, 127
1, 166800, Note_on_c, 1, 43, 127
1, 166848, Note_off_c, 1, 59, 0
1, 166860, Note_on_c, 1, 62, 127
1, 166896, Note_off_c, 1, 50, 0
1, 166896, Note_off_c, 1, 43, 0
1, 166908, Note_off_c, 1, 62, 0
1, 166920, Note_on_c, 1, 60, 127
1, 166920, Note_on_c, 1, 45, 127
1, 166968, Note_off_c, 1, 60, 0
1, 166980, Note_on_c, 1, 63, 127
1, 167016, Note_off_c, 1, 45, 0
1, 167028, Note_off_c, 1, 63, 0
1, 167040, Note_on_c, 1, 62, 127
1, 167040, Note_on_c, 1, 47, 127
1, 167088, Note_off_c, 1, 62, 0
1, 167100, Note_on_c, 1, 63, 127
1, 167136, Note_off_c, 1, 47, 0
1, 167148, Note_off_c, 1, 63, 0
1, 167160, Note_on_c, 1, 60, 127
1, 167160, Note_on_c, 1, 43, 127
1, 167208, Note_off_c, 1, 60, 0
1, 167220, Note_on_c, 1, 62, 127
1, 167256, Note_off_c, 1, 43, 0
1, 167268, Note_off_c, 1, 62, 0
1, 167280, Note_on_c, 1, 63, 127
1, 167280, Note_on_c, 1, 48, 127
1, 167328, Note_off_c, 1, 63, 0
1, 167340, Note_on_c, 1, 65, 127
1, 167376, Note_off_c, 1, 48, 0
1, 167388, Note_off_c, 1, 65, 0
1, 167400, Note_on_c, 1, 62, 127
1, 167400, Note_on_c, 1, 46, 127
1, 167448, Note_off_c, 1, 62, 0
1, 167460, Note_on_c, 1, 64, 127
1, 167496, Note_off_c, 1, 46, 0
1, 167508, Note_off_c, 1, 64, 0
1, 167520, Note_on_c, 1, 65, 127
1, 167520, Note_on_c, 1, 44, 127
1, 167568, Note_off_c, 1, 65, 0
1, 167580, Note_on_c, 1, 68, 127
1, 167616, Note_off_c, 1, 44, 0
1, 167628, Note_off_c, 1, 68, 0
1, 167640, Note_on_c, 1, 67, 127
1, 167640, Note_on_c, 1, 48, 127
1, 167688, Note_off_c, 1, 67, 0
1, 167700, Note_on_c, 1, 70, 127
1, 167736, Note_off_c, 1, 48, 0
1, 167748, Note_off_c, 1, 70, 0
1, 167760, Note_on_c, 1, 68, 127
1, 167760, Note_on_c, 1, 41, 127
1, 167808, Note_off_c, 1, 68, 0
1, 167820, Note_on_c, 1, 60, 127
1, 167856, Note_off_c, 1, 41, 0
1, 167868, Note_off_c, 1, 60, 0
1, 167880, Note_on_c, 1, 68, 127
1, 167880, Note_on_c, 1, 53, 127
1, 167928, Note_off_c, 1, 68, 0
1, 167940, Note_on_c, 1, 67, 127
1, 167976, Note_off_c, 1, 53, 0
1, 167988, Note_off_c, 1, 67, 0
1, 168000, Note_on_c, 1, 65, 127
1, 168000, Note_on_c, 1, 48, 127
1, 168000, Note_on_c, 1, 44, 127
1, 168048, Note_off_c, 1, 65, 0
1, 168060, Note_on_c, 1, 63, 127
1, 168096, Note_off_c, 1, 44, 0
1, 168108, Note_off_c, 1, 63, 0
1, 168120, Note_on_c, 1, 62, 127
1, 168120, Note_on_c, 1, 53, 127
1, 168168, Note_off_c, 1, 62, 0
1, 168180, Note_on_c, 1, 60, 127
1, 168192, Note_off_c, 1, 48, 0
1, 168216, Note_off_c, 1, 53, 0
1, 168228, Note_off_c, 1, 60, 0
1, 168240, Note_on_c, 1, 59, 127
1, 168240, Note_on_c, 1, 55, 127
1, 168240, Note_on_c, 1, 43, 127
1, 168288, Note_off_c, 1, 59, 0
1, 168300, Note_on_c, 1, 62, 127
1, 168336, Note_off_c, 1, 43, 0
1, 168348, Note_off_c, 1, 62, 0
1, 168360, Note_on_c, 1, 60, 127
1, 168360, Note_on_c, 1, 51, 127
1, 168408, Note_off_c, 1, 60, 0
1, 168420, Note_on_c, 1, 63, 127
1, 168456, Note_off_c, 1, 51, 0
1, 168468, Note_off_c, 1, 63, 0
1, 168480, Note_on_c, 1, 47, 127
1, 168540, Note_on_c, 1, 65, 127
1, 168576, Note_off_c, 1, 47, 0
1, 168588, Note_off_c, 1, 65, 0
1, 168624, Note_off_c, 1, 55, 0
1, 168720, Note_on_c, 1, 60, 127
1, 168720, Note_on_c, 1, 51, 127
1, 168720, Note_on_c, 1, 48, 127
1, 168768, Note_off_c, 1, 60, 0
1, 168780, Note_on_c, 1, 72, 127
1, 168816, Note_off_c, 1, 48, 0
1, 168828, Note_off_c, 1, 72, 0
1, 168840, Note_on_c, 1, 70, 127
1, 168888, Note_off_c, 1, 70, 0
1, 168912, Note_off_c, 1, 51, 0
1, 168960, Note_on_c, 1, 68, 127
1, 168960, Note_on_c, 1, 53, 127
1, 169008, Note_off_c, 1, 68, 0
1, 169020, Note_on_c, 1, 72, 127
1, 169068, Note_off_c, 1, 72, 0
1, 169080, Note_on_c, 1, 56, 127
1, 169176, Note_off_c, 1, 56, 0
1, 169200, Note_on_c, 1, 50, 127
1, 169260, Note_on_c, 1, 70, 127
1, 169296, Note_off_c, 1, 50, 0
1, 169308, Note_off_c, 1, 70, 0
1, 169344, Note_off_c, 1, 53, 0
1, 169440, Note_on_c, 1, 67, 127
1, 169440, Note_on_c, 1, 55, 127
1, 169440, Note_on_c, 1, 52, 127
1, 169488, Note_off_c, 1, 67, 0
1, 169500, Note_on_c, 1, 70, 127
1, 169536, Note_off_c, 1, 52, 0
1, 169548, Note_off_c, 1, 70, 0
1, 169632, Note_off_c, 1, 55, 0
1, 169680, Note_on_c, 1, 65, 127
1, 169680, Note_on_c, 1, 56, 127
1, 169728, Note_off_c, 1, 65, 0
1, 169740, Note_on_c, 1, 68, 127
1, 169788, Note_off_c, 1, 68, 0
1, 169800, Note_on_c, 1, 67, 127
1, 169800, Note_on_c, 1, 53, 127
1, 169848, Note_off_c, 1, 67, 0
1, 169860, Note_on_c, 1, 70, 127
1, 169896, Note_off_c, 1, 53, 0
1, 169908, Note_off_c, 1, 70, 0
1, 169920, Note_on_c, 1, 48, 127
1, 170016, Note_off_c, 1, 48, 0
1, 170064, Note_off_c, 1, 56, 0
1, 170160, Note_on_c, 1, 70, 127
1, 170160, Note_on_c, 1, 53, 127
1, 170160, Note_on_c, 1, 50, 127
1, 170208, Note_off_c, 1, 70, 0
1, 170220, Note_on_c, 1, 72, 127
1, 170256, Note_off_c, 1, 50, 0
1, 170268, Note_off_c, 1, 72, 0
1, 170280, Note_on_c, 1, 68, 127
1, 170328, Note_off_c, 1, 68, 0
1, 170352, Note_off_c, 1, 53, 0
1, 170400, Note_on_c, 1, 67, 127
1, 170400, Note_on_c, 1, 55, 127
1, 170400, Note_on_c, 1, 51, 127
1, 170448, Note_off_c, 1, 67, 0
1, 170448, Note_off_c, 1, 55, 0
1, 170460, Note_on_c, 1, 58, 127
1, 170508, Note_off_c, 1, 58, 0
1, 170520, Note_on_c, 1, 65, 127
1, 170520, Note_on_c, 1, 56, 127
1, 170568, Note_off_c, 1, 65, 0
1, 170568, Note_off_c, 1, 56, 0
1, 170592, Note_off_c, 1, 51, 0
1, 170640, Note_on_c, 1, 56, 127
1, 170700, Note_on_c, 1, 68, 127
1, 170700, Note_on_c, 1, 60, 127
1, 170748, Note_off_c, 1, 68, 0
1, 170748, Note_off_c, 1, 60, 0
1, 170760, Note_on_c, 1, 67, 127
1, 170760, Note_on_c, 1, 58, 127
1, 170808, Note_off_c, 1, 67, 0
1, 170808, Note_off_c, 1, 58, 0
1, 170832, Note_off_c, 1, 56, 0
1, 170880, Note_on_c, 1, 58, 127
1, 170940, Note_on_c, 1, 65, 127
1, 170940, Note_on_c, 1, 62, 127
1, 170988, Note_off_c, 1, 65, 0
1, 170988, Note_off_c, 1, 62, 0
1, 171000, Note_on_c, 1, 63, 127
1, 171000, Note_on_c, 1, 60, 127
1, 171048, Note_off_c, 1, 63, 0
1, 171048, Note_off_c, 1, 60, 0
1, 171072, Note_off_c, 1, 58, 0
1, 171120, Note_on_c, 1, 51, 127
1, 171180, Note_on_c, 1, 67, 127
1, 171180, Note_on_c, 1, 63, 127
1, 171228, Note_off_c, 1, 67, 0
1, 171228, Note_off_c, 1, 63, 0
1, 171240, Note_on_c, 1, 68, 127
1, 171240, Note_on_c, 1, 65, 127
1, 171288, Note_off_c, 1, 68, 0
1, 171288, Note_off_c, 1, 65, 0
1, 171312, Note_off_c, 1, 51, 0
1, 171360, Note_on_c, 1, 53, 127
1, 171420, Note_on_c, 1, 65, 127
1, 171420, Note_on_c, 1, 62, 127
1, 171468, Note_off_c, 1, 65, 0
1, 171468, Note_off_c, 1, 62, 0
1, 171480, Note_on_c, 1, 63, 127
1, 171480, Note_on_c, 1, 60, 127
1, 171528, Note_off_c, 1, 63, 0
1, 171528, Note_off_c, 1, 60, 0
1, 171552, Note_off_c, 1, 53, 0
1, 171600, Note_on_c, 1, 55, 127
1, 171660, Note_on_c, 1, 62, 127
1, 171660, Note_on_c, 1, 59, 127
1, 171708, Note_off_c, 1, 62, 0
1, 171708, Note_off_c, 1, 59, 0
1, 171720, Note_on_c, 1, 60, 127
1, 171720, Note_on_c, 1, 57, 127
1, 171768, Note_off_c, 1, 60, 0
1, 171768, Note_off_c, 1, 57, 0
1, 171792, Note_off_c, 1, 55, 0
1, 171840, Note_on_c, 1, 63, 127
1, 171840, Note_on_c, 1, 60, 127
1, 171840, Note_on_c, 1, 48, 127
1, 171888, Note_off_c, 1, 48, 0
1, 171900, Note_on_c, 1, 51, 127
1, 171936, Note_off_c, 1, 63, 0
1, 171936, Note_off_c, 1, 60, 0
1, 171948, Note_off_c, 1, 51, 0
1, 171960, Note_on_c, 1, 65, 127
1, 171960, Note_on_c, 1, 50, 127
1, 172008, Note_off_c, 1, 50, 0
1, 172020, Note_on_c, 1, 53, 127
1, 172056, Note_off_c, 1, 65, 0
1, 172068, Note_off_c, 1, 53, 0
1, 172080, Note_on_c, 1, 67, 127
1, 172080, Note_on_c, 1, 51, 127
1, 172128, Note_off_c, 1, 51, 0
1, 172140, Note_on_c, 1, 55, 127
1, 172176, Note_off_c, 1, 67, 0
1, 172188, Note_off_c, 1, 55, 0
1, 172200, Note_on_c, 1, 69, 127
1, 172200, Note_on_c, 1, 53, 127
1, 172248, Note_off_c, 1, 53, 0
1, 172260, Note_on_c, 1, 57, 127
1, 172296, Note_off_c, 1, 69, 0
1, 172308, Note_off_c, 1, 57, 0
1, 172320, Note_on_c, 1, 70, 127
1, 172320, Note_on_c, 1, 55, 127
1, 172368, Note_off_c, 1, 55, 0
1, 172380, Note_on_c, 1, 58, 127
1, 172416, Note_off_c, 1, 70, 0
1, 172428, Note_off_c, 1, 58, 0
1, 172440, Note_on_c, 1, 72, 127
1, 172440, Note_on_c, 1, 65, 127
1, 172440, Note_on_c, 1, 57, 127
1, 172488, Note_off_c, 1, 57, 0
1, 172500, Note_on_c, 1, 60, 127
1, 172536, Note_off_c, 1, 72, 0
1, 172536, Note_off_c, 1, 65, 0
1, 172548, Note_off_c, 1, 60, 0
1, 172560, Note_on_c, 1, 74, 127
1, 172560, Note_on_c, 1, 58, 127
1, 172620, Note_on_c, 1, 62, 127
1, 172656, Note_off_c, 1, 74, 0
1, 172656, Note_off_c, 1, 58, 0
1, 172668, Note_off_c, 1, 62, 0
1, 172680, Note_on_c, 1, 75, 127
1, 172680, Note_on_c, 1, 60, 127
1, 172728, Note_off_c, 1, 60, 0
1, 172740, Note_on_c, 1, 63, 127
1, 172776, Note_off_c, 1, 75, 0
1, 172788, Note_off_c, 1, 63, 0
1, 172800, Note_on_c, 1, 77, 127
1, 172800, Note_on_c, 1, 62, 127
1, 172848, Note_off_c, 1, 62, 0
1, 172860, Note_on_c, 1, 65, 127
1, 172896, Note_off_c, 1, 77, 0
1, 172908, Note_off_c, 1, 65, 0
1, 172920, Note_on_c, 1, 79, 127
1, 172920, Note_on_c, 1, 63, 127
1, 172968, Note_off_c, 1, 63, 0
1, 172980, Note_on_c, 1, 67, 127
1, 173016, Note_off_c, 1, 79, 0
1, 173028, Note_off_c, 1, 67, 0
1, 173040, Note_on_c, 1, 80, 127
1, 173040, Note_on_c, 1, 65, 127
1, 173088, Note_off_c, 1, 65, 0
1, 173100, Note_on_c, 1, 68, 127
1, 173136, Note_off_c, 1, 80, 0
1, 173148, Note_off_c, 1, 68, 0
1, 173160, Note_on_c, 1, 82, 127
1, 173160, Note_on_c, 1, 67, 127
1, 173160, Note_on_c, 1, 51, 127
1, 173208, Note_off_c, 1, 67, 0
1, 173220, Note_on_c, 1, 70, 127
1, 173256, Note_off_c, 1, 82, 0
1, 173256, Note_off_c, 1, 51, 0
1, 173268, Note_off_c, 1, 70, 0
1, 173280, Note_on_c, 1, 84, 127
1, 173280, Note_on_c, 1, 68, 127
1, 173280, Note_on_c, 1, 48, 127
1, 173328, Note_off_c, 1, 48, 0
1, 173340, Note_on_c, 1, 51, 127
1, 173376, Note_off_c, 1, 84, 0
1, 173376, Note_off_c, 1, 68, 0
1, 173388, Note_off_c, 1, 51, 0
1, 173400, Note_on_c, 1, 62, 127
1, 173400, Note_on_c, 1, 50, 127
1, 173448, Note_off_c, 1, 50, 0
1, 173460, Note_on_c, 1, 53, 127
1, 173496, Note_off_c, 1, 62, 0
1, 173508, Note_off_c, 1, 53, 0
1, 173520, Note_on_c, 1, 63, 127
1, 173520, Note_on_c, 1, 51, 127
1, 173568, Note_off_c, 1, 51, 0
1, 173580, Note_on_c, 1, 55, 127
1, 173616, Note_off_c, 1, 63, 0
1, 173628, Note_off_c, 1, 55, 0
1, 173640, Note_on_c, 1, 65, 127
1, 173640, Note_on_c, 1, 50, 127
1, 173688, Note_off_c, 1, 50, 0
1, 173700, Note_on_c, 1, 53, 127
1, 173736, Note_off_c, 1, 65, 0
1, 173748, Note_off_c, 1, 53, 0
1, 173760, Note_on_c, 1, 67, 127
1, 173760, Note_on_c, 1, 51, 127
1, 173808, Note_off_c, 1, 51, 0
1, 173820, Note_on_c, 1, 55, 127
1, 173856, Note_off_c, 1, 67, 0
1, 173868, Note_off_c, 1, 55, 0
1, 173880, Note_on_c, 1, 68, 127
1, 173880, Note_on_c, 1, 62, 127
1, 173880, Note_on_c, 1, 53, 127
1, 173928, Note_off_c, 1, 53, 0
1, 173940, Note_on_c, 1, 56, 127
1, 173976, Note_off_c, 1, 68, 0
1, 173976, Note_off_c, 1, 62, 0
1, 173988, Note_off_c, 1, 56, 0
1, 174000, Note_on_c, 1, 70, 127
1, 174000, Note_on_c, 1, 55, 127
1, 174060, Note_on_c, 1, 58, 127
1, 174096, Note_off_c, 1, 70, 0
1, 174096, Note_off_c, 1, 55, 0
1, 174108, Note_off_c, 1, 58, 0
1, 174120, Note_on_c, 1, 72, 127
1, 174120, Note_on_c, 1, 57, 127
1, 174168, Note_off_c, 1, 57, 0
1, 174180, Note_on_c, 1, 60, 127
1, 174216, Note_off_c, 1, 72, 0
1, 174228, Note_off_c, 1, 60, 0
1, 174240, Note_on_c, 1, 74, 127
1, 174240, Note_on_c, 1, 58, 127
1, 174288, Note_off_c, 1, 58, 0
1, 174300, Note_on_c, 1, 62, 127
1, 174336, Note_off_c, 1, 74, 0
1, 174348, Note_off_c, 1, 62, 0
1, 174360, Note_on_c, 1, 75, 127
1, 174360, Note_on_c, 1, 60, 127
1, 174408, Note_off_c, 1, 60, 0
1, 174420, Note_on_c, 1, 63, 127
1, 174456, Note_off_c, 1, 75, 0
1, 174468, Note_off_c, 1, 63, 0
1, 174480, Note_on_c, 1, 77, 127
1, 174480, Note_on_c, 1, 62, 127
1, 174528, Note_off_c, 1, 62, 0
1, 174540, Note_on_c, 1, 65, 127
1, 174576, Note_off_c, 1, 77, 0
1, 174588, Note_off_c, 1, 65, 0
1, 174600, Note_on_c, 1, 79, 127
1, 174600, Note_on_c, 1, 64, 127
1, 174600, Note_on_c, 1, 48, 127
1, 174648, Note_off_c, 1, 64, 0
1, 174660, Note_on_c, 1, 67, 127
1, 174696, Note_off_c, 1, 79, 0
1, 174696, Note_off_c, 1, 48, 0
1, 174708, Note_off_c, 1, 67, 0
1, 174720, Note_on_c, 1, 80, 127
1, 174720, Note_on_c, 1, 65, 127
1, 174720, Note_on_c, 1, 41, 127
1, 174768, Note_off_c, 1, 41, 0
1, 174780, Note_on_c, 1, 44, 127
1, 174816, Note_off_c, 1, 80, 0
1, 174816, Note_off_c, 1, 65, 0
1, 174828, Note_off_c, 1, 44, 0
1, 174840, Note_on_c, 1, 58, 127
1, 174840, Note_on_c, 1, 43, 127
1, 174888, Note_off_c, 1, 43, 0
1, 174900, Note_on_c, 1, 46, 127
1, 174936, Note_off_c, 1, 58, 0
1, 174948, Note_off_c, 1, 46, 0
1, 174960, Note_on_c, 1, 60, 127
1, 174960, Note_on_c, 1, 44, 127
1, 175008, Note_off_c, 1, 44, 0
1, 175020, Note_on_c, 1, 48, 127
1, 175056, Note_off_c, 1, 60, 0
1, 175068, Note_off_c, 1, 48, 0
1, 175080, Note_on_c, 1, 62, 127
1, 175080, Note_on_c, 1, 58, 127
1, 175080, Note_on_c, 1, 46, 127
1, 175128, Note_off_c, 1, 46, 0
1, 175140, Note_on_c, 1, 50, 127
1, 175176, Note_off_c, 1, 62, 0
1, 175188, Note_off_c, 1, 50, 0
1, 175200, Note_on_c, 1, 63, 127
1, 175200, Note_on_c, 1, 48, 127
1, 175248, Note_off_c, 1, 58, 0
1, 175248, Note_off_c, 1, 48, 0
1, 175260, Note_on_c, 1, 60, 127
1, 175260, Note_on_c, 1, 51, 127
1, 175296, Note_off_c, 1, 63, 0
1, 175308, Note_off_c, 1, 60, 0
1, 175308, Note_off_c, 1, 51, 0
1, 175320, Note_on_c, 1, 65, 127
1, 175320, Note_on_c, 1, 58, 127
1, 175320, Note_on_c, 1, 50, 127
1, 175368, Note_off_c, 1, 58, 0
1, 175368, Note_off_c, 1, 50, 0
1, 175380, Note_on_c, 1, 56, 127
1, 175380, Note_on_c, 1, 53, 127
1, 175416, Note_off_c, 1, 65, 0
1, 175428, Note_off_c, 1, 56, 0
1, 175428, Note_off_c, 1, 53, 0
1, 175440, Note_on_c, 1, 67, 127
1, 175440, Note_on_c, 1, 55, 127
1, 175440, Note_on_c, 1, 51, 127
1, 175488, Note_off_c, 1, 55, 0
1, 175500, Note_on_c, 1, 58, 127
1, 175548, Note_off_c, 1, 58, 0
1, 175560, Note_on_c, 1, 56, 127
1, 175608, Note_off_c, 1, 56, 0
1, 175620, Note_on_c, 1, 60, 127
1, 175668, Note_off_c, 1, 60, 0
1, 175728, Note_off_c, 1, 67, 0
1, 175728, Note_off_c, 1, 51, 0
1, 175740, Note_on_c, 1, 53, 127
1, 175788, Note_off_c, 1, 53, 0
1, 175800, Note_on_c, 1, 50, 127
1, 175848, Note_off_c, 1, 50, 0
1, 175920, Note_on_c, 1, 69, 127
1, 175920, Note_on_c, 1, 60, 127
1, 175920, Note_on_c, 1, 48, 127
1, 175968, Note_off_c, 1, 69, 0
1, 175968, Note_off_c, 1, 60, 0
1, 175980, Note_on_c, 1, 70, 127
1, 175980, Note_on_c, 1, 62, 127
1, 176028, Note_off_c, 1, 70, 0
1, 176028, Note_off_c, 1, 62, 0
1, 176040, Note_on_c, 1, 67, 127
1, 176040, Note_on_c, 1, 58, 127
1, 176088, Note_off_c, 1, 67, 0
1, 176088, Note_off_c, 1, 58, 0
1, 176112, Note_off_c, 1, 48, 0
1, 176160, Note_on_c, 1, 66, 127
1, 176160, Note_on_c, 1, 57, 127
1, 176160, Note_on_c, 1, 50, 127
1, 176208, Note_off_c, 1, 66, 0
1, 176208, Note_off_c, 1, 57, 0
1, 176220, Note_on_c, 1, 67, 127
1, 176220, Note_on_c, 1, 58, 127
1, 176268, Note_off_c, 1, 67, 0
1, 176268, Note_off_c, 1, 58, 0
1, 176280, Note_on_c, 1, 64, 127
1, 176280, Note_on_c, 1, 55, 127
1, 176328, Note_off_c, 1, 64, 0
1, 176328, Note_off_c, 1, 55, 0
1, 176400, Note_on_c, 1, 62, 127
1, 176400, Note_on_c, 1, 54, 127
1, 176448, Note_off_c, 1, 50, 0
1, 176460, Note_on_c, 1, 51, 127
1, 176508, Note_off_c, 1, 51, 0
1, 176520, Note_on_c, 1, 48, 127
1, 176568, Note_off_c, 1, 48, 0
1, 176592, Note_off_c, 1, 54, 0
1, 176640, Note_on_c, 1, 46, 127
1, 176832, Note_off_c, 1, 46, 0
1, 176880, Note_on_c, 1, 74, 127
1, 176880, Note_on_c, 1, 42, 127
1, 176928, Note_off_c, 1, 62, 0
1, 176940, Note_on_c, 1, 69, 127
1, 176976, Note_off_c, 1, 42, 0
1, 176988, Note_off_c, 1, 69, 0
1, 177000, Note_on_c, 1, 43, 127
1, 177060, Note_on_c, 1, 70, 127
1, 177096, Note_off_c, 1, 43, 0
1, 177108, Note_off_c, 1, 70, 0
1, 177120, Note_on_c, 1, 38, 127
1, 177168, Note_off_c, 1, 38, 0
1, 177180, Note_on_c, 1, 72, 127
1, 177228, Note_off_c, 1, 72, 0
1, 177264, Note_off_c, 1, 74, 0
1, 177360, Note_on_c, 1, 67, 127
1, 177360, Note_on_c, 1, 70, 127
1, 177360, Note_on_c, 1, 55, 127
1, 177360, Note_on_c, 1, 43, 127
1, 177408, Note_off_c, 1, 43, 0
1, 177456, Note_off_c, 1, 67, 0
1, 177468, Note_off_c, 1, 55, 0
1, 177480, Note_on_c, 1, 62, 127
1, 177480, Note_on_c, 1, 53, 127
1, 177528, Note_off_c, 1, 53, 0
1, 177552, Note_off_c, 1, 70, 0
1, 177576, Note_off_c, 1, 62, 0
1, 177600, Note_on_c, 1, 67, 127
1, 177600, Note_on_c, 1, 72, 127
1, 177600, Note_on_c, 1, 51, 127
1, 177648, Note_off_c, 1, 51, 0
1, 177660, Note_on_c, 1, 55, 127
1, 177708, Note_off_c, 1, 55, 0
1, 177720, Note_on_c, 1, 63, 127
1, 177792, Note_off_c, 1, 67, 0
1, 177816, Note_off_c, 1, 63, 0
1, 177840, Note_on_c, 1, 65, 127
1, 177840, Note_on_c, 1, 57, 127
1, 177900, Note_on_c, 1, 53, 127
1, 177936, Note_off_c, 1, 57, 0
1, 177948, Note_off_c, 1, 53, 0
1, 177984, Note_off_c, 1, 72, 0
1, 178032, Note_off_c, 1, 65, 0
1, 178080, Note_on_c, 1, 74, 127
1, 178080, Note_on_c, 1, 65, 127
1, 178080, Note_on_c, 1, 59, 127
1, 178080, Note_on_c, 1, 50, 127
1, 178128, Note_off_c, 1, 50, 0
1, 178140, Note_on_c, 1, 53, 127
1, 178176, Note_off_c, 1, 59, 0
1, 178188, Note_off_c, 1, 53, 0
1, 178272, Note_off_c, 1, 74, 0
1, 178272, Note_off_c, 1, 65, 0
1, 178320, Note_on_c, 1, 63, 127
1, 178320, Note_on_c, 1, 75, 127
1, 178320, Note_on_c, 1, 48, 127
1, 178368, Note_off_c, 1, 48, 0
1, 178380, Note_on_c, 1, 51, 127
1, 178416, Note_off_c, 1, 63, 0
1, 178428, Note_off_c, 1, 51, 0
1, 178440, Note_on_c, 1, 65, 127
1, 178440, Note_on_c, 1, 60, 127
1, 178440, Note_on_c, 1, 50, 127
1, 178488, Note_off_c, 1, 50, 0
1, 178500, Note_on_c, 1, 53, 127
1, 178536, Note_off_c, 1, 65, 0
1, 178536, Note_off_c, 1, 60, 0
1, 178548, Note_off_c, 1, 53, 0
1, 178560, Note_on_c, 1, 67, 127
1, 178560, Note_on_c, 1, 55, 127
1, 178656, Note_off_c, 1, 67, 0
1, 178656, Note_off_c, 1, 55, 0
1, 178680, Note_on_c, 1, 70, 127
1, 178704, Note_off_c, 1, 75, 0
1, 178776, Note_off_c, 1, 70, 0
1, 178800, Note_on_c, 1, 69, 127
1, 178800, Note_on_c, 1, 72, 127
1, 178800, Note_on_c, 1, 57, 127
1, 178800, Note_on_c, 1, 51, 127
1, 178848, Note_off_c, 1, 51, 0
1, 178860, Note_on_c, 1, 53, 127
1, 178896, Note_off_c, 1, 69, 0
1, 178896, Note_off_c, 1, 57, 0
1, 178908, Note_off_c, 1, 53, 0
1, 178920, Note_on_c, 1, 67, 127
1, 178992, Note_off_c, 1, 72, 0
1, 179016, Note_off_c, 1, 67, 0
1, 179040, Note_on_c, 1, 66, 127
1, 179040, Note_on_c, 1, 74, 127
1, 179040, Note_on_c, 1, 58, 127
1, 179040, Note_on_c, 1, 50, 127
1, 179088, Note_off_c, 1, 66, 0
1, 179100, Note_on_c, 1, 69, 127
1, 179136, Note_off_c, 1, 50, 0
1, 179148, Note_off_c, 1, 69, 0
1, 179160, Note_on_c, 1, 67, 127
1, 179160, Note_on_c, 1, 52, 127
1, 179184, Note_off_c, 1, 58, 0
1, 179208, Note_off_c, 1, 67, 0
1, 179220, Note_on_c, 1, 70, 127
1, 179220, Note_on_c, 1, 57, 127
1, 179244, Note_off_c, 1, 57, 0
1, 179250, Note_on_c, 1, 55, 127
1, 179256, Note_off_c, 1, 52, 0
1, 179268, Note_off_c, 1, 70, 0
1, 179274, Note_off_c, 1, 55, 0
1, 179280, Note_on_c, 1, 54, 127
1, 179340, Note_on_c, 1, 62, 127
1, 179376, Note_off_c, 1, 54, 0
1, 179388, Note_off_c, 1, 62, 0
1, 179400, Note_on_c, 1, 60, 127
1, 179448, Note_off_c, 1, 60, 0
1, 179568, Note_off_c, 1, 74, 0
1, 179640, Note_on_c, 1, 72, 127
1, 179640, Note_on_c, 1, 59, 127
1, 179640, Note_on_c, 1, 43, 127
1, 179688, Note_off_c, 1, 72, 0
1, 179736, Note_off_c, 1, 59, 0
1, 179736, Note_off_c, 1, 43, 0
1, 179760, Note_on_c, 1, 75, 127
1, 179760, Note_on_c, 1, 67, 127
1, 179760, Note_on_c, 1, 60, 127
1, 179760, Note_on_c, 1, 48, 127
1, 179808, Note_off_c, 1, 75, 0
1, 179820, Note_on_c, 1, 77, 127
1, 179856, Note_off_c, 1, 67, 0
1, 179856, Note_off_c, 1, 48, 0
1, 179868, Note_off_c, 1, 77, 0
1, 179880, Note_on_c, 1, 74, 127
1, 179880, Note_on_c, 1, 46, 127
1, 179928, Note_off_c, 1, 74, 0
1, 179940, Note_on_c, 1, 76, 127
1, 179976, Note_off_c, 1, 46, 0
1, 179988, Note_off_c, 1, 76, 0
1, 180000, Note_on_c, 1, 69, 127
1, 180000, Note_on_c, 1, 45, 127
1, 180048, Note_off_c, 1, 60, 0
1, 180060, Note_on_c, 1, 79, 127
1, 180096, Note_off_c, 1, 45, 0
1, 180108, Note_off_c, 1, 79, 0
1, 180120, Note_on_c, 1, 62, 127
1, 180120, Note_on_c, 1, 50, 127
1, 180180, Note_on_c, 1, 78, 127
1, 180192, Note_off_c, 1, 69, 0
1, 180216, Note_off_c, 1, 50, 0
1, 180228, Note_off_c, 1, 78, 0
1, 180300, Note_on_c, 1, 81, 127
1, 180312, Note_off_c, 1, 62, 0
1, 180348, Note_off_c, 1, 81, 0
1, 180360, Note_on_c, 1, 58, 127
1, 180360, Note_on_c, 1, 43, 127
1, 180456, Note_off_c, 1, 43, 0
1, 180576, Note_off_c, 1, 58, 0
1, 180600, Note_on_c, 1, 72, 127
1, 180600, Note_on_c, 1, 65, 127
1, 180600, Note_on_c, 1, 57, 127
1, 180600, Note_on_c, 1, 53, 127
1, 180648, Note_off_c, 1, 72, 0
1, 180660, Note_on_c, 1, 75, 127
1, 180696, Note_off_c, 1, 53, 0
1, 180708, Note_off_c, 1, 75, 0
1, 180720, Note_on_c, 1, 74, 127
1, 180720, Note_on_c, 1, 46, 127
1, 180768, Note_off_c, 1, 74, 0
1, 180792, Note_off_c, 1, 65, 0
1, 180792, Note_off_c, 1, 57, 0
1, 180816, Note_off_c, 1, 46, 0
1, 180840, Note_on_c, 1, 70, 127
1, 180840, Note_on_c, 1, 63, 127
1, 180840, Note_on_c, 1, 55, 127
1, 180840, Note_on_c, 1, 51, 127
1, 180888, Note_off_c, 1, 70, 0
1, 180900, Note_on_c, 1, 74, 127
1, 180936, Note_off_c, 1, 51, 0
1, 180948, Note_off_c, 1, 74, 0
1, 180960, Note_on_c, 1, 72, 127
1, 180960, Note_on_c, 1, 45, 127
1, 181008, Note_off_c, 1, 72, 0
1, 181032, Note_off_c, 1, 63, 0
1, 181032, Note_off_c, 1, 55, 0
1, 181056, Note_off_c, 1, 45, 0
1, 181080, Note_on_c, 1, 69, 127
1, 181080, Note_on_c, 1, 62, 127
1, 181080, Note_on_c, 1, 54, 127
1, 181080, Note_on_c, 1, 50, 127
1, 181128, Note_off_c, 1, 69, 0
1, 181140, Note_on_c, 1, 72, 127
1, 181176, Note_off_c, 1, 54, 0
1, 181176, Note_off_c, 1, 50, 0
1, 181188, Note_off_c, 1, 72, 0
1, 181200, Note_on_c, 1, 70, 127
1, 181200, Note_on_c, 1, 55, 127
1, 181200, Note_on_c, 1, 43, 127
1, 181248, Note_off_c, 1, 70, 0
1, 181296, Note_off_c, 1, 62, 0
1, 181296, Note_off_c, 1, 43, 0
1, 181320, Note_on_c, 1, 53, 127
1, 181380, Note_on_c, 1, 71, 127
1, 181416, Note_off_c, 1, 53, 0
1, 181428, Note_off_c, 1, 71, 0
1, 181440, Note_on_c, 1, 63, 127
1, 181440, Note_on_c, 1, 51, 127
1, 181488, Note_off_c, 1, 55, 0
1, 181500, Note_on_c, 1, 74, 127
1, 181500, Note_on_c, 1, 58, 127
1, 181536, Note_off_c, 1, 51, 0
1, 181548, Note_off_c, 1, 74, 0
1, 181548, Note_off_c, 1, 58, 0
1, 181560, Note_on_c, 1, 75, 127
1, 181560, Note_on_c, 1, 57, 127
1, 181560, Note_on_c, 1, 48, 127
1, 181608, Note_off_c, 1, 75, 0
1, 181608, Note_off_c, 1, 57, 0
1, 181632, Note_off_c, 1, 63, 0
1, 181656, Note_off_c, 1, 48, 0
1, 181680, Note_on_c, 1, 62, 127
1, 181680, Note_on_c, 1, 69, 127
1, 181680, Note_on_c, 1, 54, 127
1, 181680, Note_on_c, 1, 50, 127
1, 181680, Note_on_c, 1, 70, 127
1, 181692, Note_off_c, 1, 70, 0
1, 181776, Note_off_c, 1, 62, 0
1, 181776, Note_off_c, 1, 50, 0
1, 181800, Note_on_c, 1, 60, 127
1, 181800, Note_on_c, 1, 38, 127
1, 181824, Note_off_c, 1, 54, 0
1, 181848, Note_off_c, 1, 69, 0
1, 181860, Note_on_c, 1, 67, 127
1, 181860, Note_on_c, 1, 55, 127
1, 181896, Note_off_c, 1, 60, 0
1, 181896, Note_off_c, 1, 38, 0
1, 181908, Note_off_c, 1, 67, 0
1, 181908, Note_off_c, 1, 55, 0
1, 181920, Note_on_c, 1, 67, 127
1, 181920, Note_on_c, 1, 59, 127
1, 181920, Note_on_c, 1, 55, 127
1, 181920, Note_on_c, 1, 43, 127
1, 181968, Note_off_c, 1, 67, 0
1, 181980, Note_on_c, 1, 71, 127
1, 182016, Note_off_c, 1, 59, 0
1, 182028, Note_off_c, 1, 71, 0
1, 182040, Note_on_c, 1, 69, 127
1, 182040, Note_on_c, 1, 60, 127
1, 182088, Note_off_c, 1, 69, 0
1, 182100, Note_on_c, 1, 72, 127
1, 182112, Note_off_c, 1, 43, 0
1, 182136, Note_off_c, 1, 60, 0
1, 182148, Note_off_c, 1, 72, 0
1, 182160, Note_on_c, 1, 62, 127
1, 182208, Note_off_c, 1, 55, 0
1, 182220, Note_on_c, 1, 74, 127
1, 182268, Note_off_c, 1, 74, 0
1, 182280, Note_on_c, 1, 57, 127
1, 182340, Note_on_c, 1, 75, 127
1, 182376, Note_off_c, 1, 57, 0
1, 182388, Note_off_c, 1, 75, 0
1, 182460, Note_on_c, 1, 77, 127
1, 182496, Note_off_c, 1, 62, 0
1, 182508, Note_off_c, 1, 77, 0
1, 182640, Note_on_c, 1, 67, 127
1, 182640, Note_on_c, 1, 75, 127
1, 182640, Note_on_c, 1, 60, 127
1, 182640, Note_on_c, 1, 48, 127
1, 182688, Note_off_c, 1, 60, 0
1, 182700, Note_on_c, 1, 63, 127
1, 182748, Note_off_c, 1, 63, 0
1, 182760, Note_on_c, 1, 62, 127
1, 182808, Note_off_c, 1, 62, 0
1, 182820, Note_on_c, 1, 65, 127
1, 182832, Note_off_c, 1, 67, 0
1, 182832, Note_off_c, 1, 75, 0
1, 182868, Note_off_c, 1, 65, 0
1, 182880, Note_on_c, 1, 72, 127
1, 182928, Note_off_c, 1, 48, 0
1, 183000, Note_on_c, 1, 50, 127
1, 183060, Note_on_c, 1, 68, 127
1, 183096, Note_off_c, 1, 50, 0
1, 183108, Note_off_c, 1, 68, 0
1, 183120, Note_on_c, 1, 52, 127
1, 183168, Note_off_c, 1, 72, 0
1, 183180, Note_on_c, 1, 70, 127
1, 183216, Note_off_c, 1, 52, 0
1, 183228, Note_off_c, 1, 70, 0
1, 183240, Note_on_c, 1, 76, 127
1, 183240, Note_on_c, 1, 72, 127
1, 183240, Note_on_c, 1, 68, 127
1, 183240, Note_on_c, 1, 48, 127
1, 183288, Note_off_c, 1, 68, 0
1, 183300, Note_on_c, 1, 67, 127
1, 183336, Note_off_c, 1, 76, 0
1, 183336, Note_off_c, 1, 72, 0
1, 183336, Note_off_c, 1, 48, 0
1, 183348, Note_off_c, 1, 67, 0
1, 183360, Note_on_c, 1, 77, 127
1, 183360, Note_on_c, 1, 72, 127
1, 183360, Note_on_c, 1, 68, 127
1, 183360, Note_on_c, 1, 53, 127
1, 183408, Note_off_c, 1, 77, 0
1, 183420, Note_on_c, 1, 80, 127
1, 183456, Note_off_c, 1, 68, 0
1, 183468, Note_off_c, 1, 80, 0
1, 183480, Note_on_c, 1, 79, 127
1, 183480, Note_on_c, 1, 64, 127
1, 183528, Note_off_c, 1, 79, 0
1, 183540, Note_on_c, 1, 82, 127
1, 183552, Note_off_c, 1, 72, 0
1, 183576, Note_off_c, 1, 64, 0
1, 183588, Note_off_c, 1, 82, 0
1, 183600, Note_on_c, 1, 65, 127
1, 183648, Note_off_c, 1, 65, 0
1, 183720, Note_on_c, 1, 67, 127
1, 183720, Note_on_c, 1, 84, 127
1, 183732, Note_off_c, 1, 84, 0
1, 183744, Note_off_c, 1, 53, 0
1, 183768, Note_off_c, 1, 67, 0
1, 183780, Note_on_c, 1, 80, 127
1, 183780, Note_on_c, 1, 70, 127
1, 183804, Note_off_c, 1, 80, 0
1, 183810, Note_on_c, 1, 82, 127
1, 183828, Note_off_c, 1, 70, 0
1, 183834, Note_off_c, 1, 82, 0
1, 183840, Note_on_c, 1, 84, 127
1, 183840, Note_on_c, 1, 68, 127
1, 183840, Note_on_c, 1, 41, 127
1, 183888, Note_off_c, 1, 84, 0
1, 183900, Note_on_c, 1, 72, 127
1, 183900, Note_on_c, 1, 80, 127
1, 183936, Note_off_c, 1, 68, 0
1, 183948, Note_off_c, 1, 72, 0
1, 183948, Note_off_c, 1, 80, 0
1, 183960, Note_on_c, 1, 79, 127
1, 183960, Note_on_c, 1, 70, 127
1, 184008, Note_off_c, 1, 79, 0
1, 184008, Note_off_c, 1, 70, 0
1, 184020, Note_on_c, 1, 77, 127
1, 184032, Note_off_c, 1, 41, 0
1, 184068, Note_off_c, 1, 77, 0
1, 184080, Note_on_c, 1, 76, 127
1, 184080, Note_on_c, 1, 67, 127
1, 184080, Note_on_c, 1, 48, 127
1, 184128, Note_off_c, 1, 76, 0
1, 184140, Note_on_c, 1, 79, 127
1, 184176, Note_off_c, 1, 67, 0
1, 184188, Note_off_c, 1, 79, 0
1, 184200, Note_on_c, 1, 77, 127
1, 184200, Note_on_c, 1, 68, 127
1, 184248, Note_off_c, 1, 77, 0
1, 184260, Note_on_c, 1, 80, 127
1, 184296, Note_off_c, 1, 68, 0
1, 184308, Note_off_c, 1, 80, 0
1, 184320, Note_on_c, 1, 64, 127
1, 184380, Note_on_c, 1, 82, 127
1, 184380, Note_on_c, 1, 60, 127
1, 184416, Note_off_c, 1, 64, 0
1, 184428, Note_off_c, 1, 82, 0
1, 184428, Note_off_c, 1, 60, 0
1, 184440, Note_on_c, 1, 58, 127
1, 184464, Note_off_c, 1, 48, 0
1, 184488, Note_off_c, 1, 58, 0
1, 184560, Note_on_c, 1, 65, 127
1, 184560, Note_on_c, 1, 80, 127
1, 184560, Note_on_c, 1, 53, 127
1, 184560, Note_on_c, 1, 44, 127
1, 184608, Note_off_c, 1, 53, 0
1, 184668, Note_off_c, 1, 65, 0
1, 184680, Note_on_c, 1, 63, 127
1, 184728, Note_off_c, 1, 63, 0
1, 184752, Note_off_c, 1, 44, 0
1, 184800, Note_on_c, 1, 61, 127
1, 184800, Note_on_c, 1, 46, 127
1, 184848, Note_off_c, 1, 61, 0
1, 184920, Note_on_c, 1, 73, 127
1, 184992, Note_off_c, 1, 80, 0
1, 185016, Note_off_c, 1, 73, 0
1, 185040, Note_on_c, 1, 67, 127
1, 185040, Note_on_c, 1, 79, 127
1, 185136, Note_off_c, 1, 67, 0
1, 185184, Note_off_c, 1, 46, 0
1, 185232, Note_off_c, 1, 79, 0
1, 185280, Note_on_c, 1, 69, 127
1, 185280, Note_on_c, 1, 78, 127
1, 185280, Note_on_c, 1, 60, 127
1, 185280, Note_on_c, 1, 48, 127
1, 185328, Note_off_c, 1, 60, 0
1, 185340, Note_on_c, 1, 63, 127
1, 185376, Note_off_c, 1, 69, 0
1, 185388, Note_off_c, 1, 63, 0
1, 185472, Note_off_c, 1, 78, 0
1, 185472, Note_off_c, 1, 48, 0
1, 185520, Note_on_c, 1, 77, 127
1, 185520, Note_on_c, 1, 58, 127
1, 185520, Note_on_c, 1, 49, 127
1, 185568, Note_off_c, 1, 58, 0
1, 185580, Note_on_c, 1, 61, 127
1, 185628, Note_off_c, 1, 61, 0
1, 185640, Note_on_c, 1, 70, 127
1, 185640, Note_on_c, 1, 60, 127
1, 185688, Note_off_c, 1, 60, 0
1, 185700, Note_on_c, 1, 63, 127
1, 185736, Note_off_c, 1, 70, 0
1, 185748, Note_off_c, 1, 63, 0
1, 185760, Note_on_c, 1, 65, 127
1, 185856, Note_off_c, 1, 65, 0
1, 185904, Note_off_c, 1, 49, 0
1, 186000, Note_on_c, 1, 67, 127
1, 186000, Note_on_c, 1, 46, 127
1, 186096, Note_off_c, 1, 67, 0
1, 186192, Note_off_c, 1, 46, 0
1, 186240, Note_on_c, 1, 68, 127
1, 186240, Note_on_c, 1, 48, 127
1, 186288, Note_off_c, 1, 77, 0
1, 186336, Note_off_c, 1, 68, 0
1, 186360, Note_on_c, 1, 79, 127
1, 186408, Note_off_c, 1, 79, 0
1, 186480, Note_on_c, 1, 76, 127
1, 186528, Note_off_c, 1, 48, 0
1, 186540, Note_on_c, 1, 52, 127
1, 186576, Note_off_c, 1, 76, 0
1, 186588, Note_off_c, 1, 52, 0
1, 186600, Note_on_c, 1, 50, 127
1, 186648, Note_off_c, 1, 50, 0
1, 186660, Note_on_c, 1, 53, 127
1, 186708, Note_off_c, 1, 53, 0
1, 186780, Note_on_c, 1, 55, 127
1, 186828, Note_off_c, 1, 55, 0
1, 186960, Note_on_c, 1, 72, 127
1, 186960, Note_on_c, 1, 44, 127
1, 187020, Note_on_c, 1, 64, 127
1, 187068, Note_off_c, 1, 64, 0
1, 187080, Note_on_c, 1, 80, 127
1, 187128, Note_off_c, 1, 80, 0
1, 187248, Note_off_c, 1, 72, 0
1, 187248, Note_off_c, 1, 44, 0
1, 187320, Note_on_c, 1, 73, 127
1, 187320, Note_on_c, 1, 79, 127
1, 187320, Note_on_c, 1, 67, 127
1, 187320, Note_on_c, 1, 46, 127
1, 187368, Note_off_c, 1, 67, 0
1, 187368, Note_off_c, 1, 46, 0
1, 187380, Note_on_c, 1, 65, 127
1, 187380, Note_on_c, 1, 49, 127
1, 187416, Note_off_c, 1, 73, 0
1, 187416, Note_off_c, 1, 79, 0
1, 187428, Note_off_c, 1, 65, 0
1, 187428, Note_off_c, 1, 49, 0
1, 187440, Note_on_c, 1, 64, 127
1, 187440, Note_on_c, 1, 80, 127
1, 187440, Note_on_c, 1, 72, 127
1, 187440, Note_on_c, 1, 48, 127
1, 187488, Note_off_c, 1, 48, 0
1, 187500, Note_on_c, 1, 49, 127
1, 187548, Note_off_c, 1, 49, 0
1, 187632, Note_off_c, 1, 64, 0
1, 187632, Note_off_c, 1, 72, 0
1, 187680, Note_on_c, 1, 65, 127
1, 187680, Note_on_c, 1, 70, 127
1, 187680, Note_on_c, 1, 38, 127
1, 187728, Note_off_c, 1, 80, 0
1, 187776, Note_off_c, 1, 65, 0
1, 187776, Note_off_c, 1, 70, 0
1, 187800, Note_on_c, 1, 82, 127
1, 187848, Note_off_c, 1, 82, 0
1, 187872, Note_off_c, 1, 38, 0
1, 187920, Note_on_c, 1, 79, 127
1, 187920, Note_on_c, 1, 67, 127
1, 187920, Note_on_c, 1, 40, 127
1, 187968, Note_off_c, 1, 79, 0
1, 188100, Note_on_c, 1, 84, 127
1, 188148, Note_off_c, 1, 84, 0
1, 188160, Note_on_c, 1, 73, 127
1, 188208, Note_off_c, 1, 67, 0
1, 188208, Note_off_c, 1, 40, 0
1, 188220, Note_on_c, 1, 52, 127
1, 188268, Note_off_c, 1, 52, 0
1, 188280, Note_on_c, 1, 68, 127
1, 188280, Note_on_c, 1, 50, 127
1, 188328, Note_off_c, 1, 68, 0
1, 188328, Note_off_c, 1, 50, 0
1, 188400, Note_on_c, 1, 41, 127
1, 188496, Note_off_c, 1, 73, 0
1, 188688, Note_off_c, 1, 41, 0
1, 188700, Note_on_c, 1, 53, 127
1, 188748, Note_off_c, 1, 53, 0
1, 188880, Note_on_c, 1, 63, 127
1, 189120, Note_on_c, 1, 78, 127
1, 189180, Note_on_c, 1, 74, 127
1, 189216, Note_off_c, 1, 63, 0
1, 189228, Note_off_c, 1, 74, 0
1, 189240, Note_on_c, 1, 62, 127
1, 189288, Note_off_c, 1, 62, 0
1, 189360, Note_on_c, 1, 69, 127
1, 189360, Note_on_c, 1, 60, 127
1, 189408, Note_off_c, 1, 69, 0
1, 189408, Note_off_c, 1, 60, 0
1, 189504, Note_off_c, 1, 78, 0
1, 189540, Note_on_c, 1, 69, 127
1, 189540, Note_on_c, 1, 60, 127
1, 189588, Note_off_c, 1, 69, 0
1, 189588, Note_off_c, 1, 60, 0
1, 189600, Note_on_c, 1, 67, 127
1, 189600, Note_on_c, 1, 58, 127
1, 189660, Note_on_c, 1, 79, 127
1, 189660, Note_on_c, 1, 51, 127
1, 189708, Note_off_c, 1, 79, 0
1, 189708, Note_off_c, 1, 51, 0
1, 189720, Note_on_c, 1, 77, 127
1, 189720, Note_on_c, 1, 50, 127
1, 189768, Note_off_c, 1, 77, 0
1, 189768, Note_off_c, 1, 50, 0
1, 189792, Note_off_c, 1, 67, 0
1, 189792, Note_off_c, 1, 58, 0
1, 189840, Note_on_c, 1, 75, 127
1, 189840, Note_on_c, 1, 48, 127
1, 189900, Note_on_c, 1, 69, 127
1, 189900, Note_on_c, 1, 60, 127
1, 189948, Note_off_c, 1, 69, 0
1, 189948, Note_off_c, 1, 60, 0
1, 189960, Note_on_c, 1, 67, 127
1, 189960, Note_on_c, 1, 58, 127
1, 190008, Note_off_c, 1, 67, 0
1, 190008, Note_off_c, 1, 58, 0
1, 190032, Note_off_c, 1, 75, 0
1, 190032, Note_off_c, 1, 48, 0
1, 190080, Note_on_c, 1, 66, 127
1, 190080, Note_on_c, 1, 57, 127
1, 190080, Note_on_c, 1, 50, 127
1, 190128, Note_off_c, 1, 57, 0
1, 190140, Note_on_c, 1, 74, 127
1, 190140, Note_on_c, 1, 58, 127
1, 190188, Note_off_c, 1, 74, 0
1, 190188, Note_off_c, 1, 58, 0
1, 190200, Note_on_c, 1, 72, 127
1, 190248, Note_off_c, 1, 72, 0
1, 190272, Note_off_c, 1, 66, 0
1, 190272, Note_off_c, 1, 50, 0
1, 190320, Note_on_c, 1, 70, 127
1, 190320, Note_on_c, 1, 55, 127
1, 190380, Note_on_c, 1, 67, 127
1, 190380, Note_on_c, 1, 51, 127
1, 190428, Note_off_c, 1, 67, 0
1, 190428, Note_off_c, 1, 51, 0
1, 190440, Note_on_c, 1, 65, 127
1, 190440, Note_on_c, 1, 50, 127
1, 190488, Note_off_c, 1, 65, 0
1, 190488, Note_off_c, 1, 50, 0
1, 190512, Note_off_c, 1, 70, 0
1, 190512, Note_off_c, 1, 55, 0
1, 190560, Note_on_c, 1, 63, 127
1, 190560, Note_on_c, 1, 48, 127
1, 190620, Note_on_c, 1, 69, 127
1, 190620, Note_on_c, 1, 60, 127
1, 190668, Note_off_c, 1, 69, 0
1, 190668, Note_off_c, 1, 60, 0
1, 190680, Note_on_c, 1, 67, 127
1, 190680, Note_on_c, 1, 58, 127
1, 190728, Note_off_c, 1, 67, 0
1, 190728, Note_off_c, 1, 58, 0
1, 190752, Note_off_c, 1, 63, 0
1, 190752, Note_off_c, 1, 48, 0
1, 190800, Note_on_c, 1, 66, 127
1, 190800, Note_on_c, 1, 57, 127
1, 190800, Note_on_c, 1, 50, 127
1, 190848, Note_off_c, 1, 57, 0
1, 190860, Note_on_c, 1, 62, 127
1, 190860, Note_on_c, 1, 58, 127
1, 190908, Note_off_c, 1, 62, 0
1, 190908, Note_off_c, 1, 58, 0
1, 190920, Note_on_c, 1, 60, 127
1, 190968, Note_off_c, 1, 60, 0
1, 190992, Note_off_c, 1, 66, 0
1, 190992, Note_off_c, 1, 50, 0
1, 191040, Note_on_c, 1, 58, 127
1, 191040, Note_on_c, 1, 55, 127
1, 191100, Note_on_c, 1, 67, 127
1, 191100, Note_on_c, 1, 51, 127
1, 191148, Note_off_c, 1, 67, 0
1, 191148, Note_off_c, 1, 51, 0
1, 191160, Note_on_c, 1, 65, 127
1, 191160, Note_on_c, 1, 50, 127
1, 191208, Note_off_c, 1, 65, 0
1, 191208, Note_off_c, 1, 50, 0
1, 191232, Note_off_c, 1, 58, 0
1, 191232, Note_off_c, 1, 55, 0
1, 191280, Note_on_c, 1, 63, 127
1, 191280, Note_on_c, 1, 60, 127
1, 191280, Note_on_c, 1, 48, 127
1, 191340, Note_on_c, 1, 57, 127
1, 191388, Note_off_c, 1, 57, 0
1, 191400, Note_on_c, 1, 55, 127
1, 191448, Note_off_c, 1, 55, 0
1, 191472, Note_off_c, 1, 63, 0
1, 191472, Note_off_c, 1, 60, 0
1, 191472, Note_off_c, 1, 48, 0
1, 191520, Note_on_c, 1, 62, 127
1, 191520, Note_on_c, 1, 54, 127
1, 191520, Note_on_c, 1, 50, 127
1, 191580, Note_on_c, 1, 60, 127
1, 191616, Note_off_c, 1, 54, 0
1, 191628, Note_off_c, 1, 60, 0
1, 191640, Note_on_c, 1, 58, 127
1, 191640, Note_on_c, 1, 55, 127
1, 191688, Note_off_c, 1, 58, 0
1, 191712, Note_off_c, 1, 62, 0
1, 191712, Note_off_c, 1, 50, 0
1, 191760, Note_on_c, 1, 57, 127
1, 191760, Note_on_c, 1, 38, 127
1, 191832, Note_off_c, 1, 55, 0
1, 191952, Note_off_c, 1, 57, 0
1, 191952, Note_off_c, 1, 38, 0
1, 192000, Note_on_c, 1, 59, 127
1, 192000, Note_on_c, 1, 55, 127
1, 192000, Note_on_c, 1, 43, 127
1, 192048, Note_off_c, 1, 59, 0
1, 192060, Note_on_c, 1, 62, 127
1, 192096, Note_off_c, 1, 43, 0
1, 192108, Note_off_c, 1, 62, 0
1, 192120, Note_on_c, 1, 60, 127
1, 192120, Note_on_c, 1, 45, 127
1, 192168, Note_off_c, 1, 60, 0
1, 192180, Note_on_c, 1, 63, 127
1, 192192, Note_off_c, 1, 55, 0
1, 192216, Note_off_c, 1, 45, 0
1, 192228, Note_off_c, 1, 63, 0
1, 192240, Note_on_c, 1, 62, 127
1, 192240, Note_on_c, 1, 47, 127
1, 192288, Note_off_c, 1, 62, 0
1, 192300, Note_on_c, 1, 65, 127
1, 192336, Note_off_c, 1, 47, 0
1, 192348, Note_off_c, 1, 65, 0
1, 192360, Note_on_c, 1, 63, 127
1, 192360, Note_on_c, 1, 48, 127
1, 192408, Note_off_c, 1, 63, 0
1, 192420, Note_on_c, 1, 67, 127
1, 192456, Note_off_c, 1, 48, 0
1, 192468, Note_off_c, 1, 67, 0
1, 192480, Note_on_c, 1, 65, 127
1, 192480, Note_on_c, 1, 50, 127
1, 192528, Note_off_c, 1, 65, 0
1, 192540, Note_on_c, 1, 68, 127
1, 192576, Note_off_c, 1, 50, 0
1, 192588, Note_off_c, 1, 68, 0
1, 192600, Note_on_c, 1, 67, 127
1, 192600, Note_on_c, 1, 47, 127
1, 192648, Note_off_c, 1, 67, 0
1, 192660, Note_on_c, 1, 65, 127
1, 192696, Note_off_c, 1, 47, 0
1, 192708, Note_off_c, 1, 65, 0
1, 192720, Note_on_c, 1, 63, 127
1, 192720, Note_on_c, 1, 48, 127
1, 192768, Note_off_c, 1, 63, 0
1, 192780, Note_on_c, 1, 67, 127
1, 192780, Note_on_c, 1, 51, 127
1, 192828, Note_off_c, 1, 67, 0
1, 192828, Note_off_c, 1, 51, 0
1, 192840, Note_on_c, 1, 65, 127
1, 192840, Note_on_c, 1, 50, 127
1, 192888, Note_off_c, 1, 65, 0
1, 192888, Note_off_c, 1, 50, 0
1, 192900, Note_on_c, 1, 68, 127
1, 192900, Note_on_c, 1, 53, 127
1, 192912, Note_off_c, 1, 48, 0
1, 192948, Note_off_c, 1, 68, 0
1, 192948, Note_off_c, 1, 53, 0
1, 192960, Note_on_c, 1, 67, 127
1, 192960, Note_on_c, 1, 51, 127
1, 193008, Note_off_c, 1, 67, 0
1, 193008, Note_off_c, 1, 51, 0
1, 193020, Note_on_c, 1, 70, 127
1, 193020, Note_on_c, 1, 55, 127
1, 193068, Note_off_c, 1, 70, 0
1, 193068, Note_off_c, 1, 55, 0
1, 193080, Note_on_c, 1, 68, 127
1, 193080, Note_on_c, 1, 53, 127
1, 193128, Note_off_c, 1, 68, 0
1, 193128, Note_off_c, 1, 53, 0
1, 193140, Note_on_c, 1, 72, 127
1, 193140, Note_on_c, 1, 56, 127
1, 193188, Note_off_c, 1, 72, 0
1, 193188, Note_off_c, 1, 56, 0
1, 193200, Note_on_c, 1, 70, 127
1, 193200, Note_on_c, 1, 55, 127
1, 193248, Note_off_c, 1, 70, 0
1, 193248, Note_off_c, 1, 55, 0
1, 193260, Note_on_c, 1, 73, 127
1, 193260, Note_on_c, 1, 58, 127
1, 193308, Note_off_c, 1, 73, 0
1, 193308, Note_off_c, 1, 58, 0
1, 193320, Note_on_c, 1, 72, 127
1, 193320, Note_on_c, 1, 56, 127
1, 193320, Note_on_c, 1, 48, 127
1, 193368, Note_off_c, 1, 72, 0
1, 193368, Note_off_c, 1, 56, 0
1, 193380, Note_on_c, 1, 70, 127
1, 193380, Note_on_c, 1, 55, 127
1, 193416, Note_off_c, 1, 48, 0
1, 193428, Note_off_c, 1, 70, 0
1, 193428, Note_off_c, 1, 55, 0
1, 193440, Note_on_c, 1, 68, 127
1, 193440, Note_on_c, 1, 53, 127
1, 193440, Note_on_c, 1, 70, 127
1, 193440, Note_on_c, 1, 55, 127
1, 193452, Note_off_c, 1, 70, 0
1, 193452, Note_off_c, 1, 55, 0
1, 193500, Note_on_c, 1, 56, 127
1, 193548, Note_off_c, 1, 56, 0
1, 193620, Note_on_c, 1, 58, 127
1, 193668, Note_off_c, 1, 58, 0
1, 193740, Note_on_c, 1, 60, 127
1, 193788, Note_off_c, 1, 60, 0
1, 194040, Note_on_c, 1, 51, 127
1, 194088, Note_off_c, 1, 51, 0
1, 194160, Note_on_c, 1, 50, 127
1, 194208, Note_off_c, 1, 50, 0
1, 194736, Note_off_c, 1, 68, 0
1, 194760, Note_on_c, 1, 48, 127
1, 194808, Note_off_c, 1, 48, 0
1, 194880, Note_on_c, 1, 67, 127
1, 194880, Note_on_c, 1, 47, 127
1, 194928, Note_off_c, 1, 53, 0
1, 195072, Note_off_c, 1, 47, 0
1, 195168, Note_off_c, 1, 67, 0
1, 195240, Note_on_c, 1, 63, 127
1, 195360, Note_on_c, 1, 72, 127
1, 195360, Note_on_c, 1, 65, 127
1, 195360, Note_on_c, 1, 44, 127
1, 195408, Note_off_c, 1, 63, 0
1, 195480, Note_on_c, 1, 62, 127
1, 195528, Note_off_c, 1, 62, 0
1, 195552, Note_off_c, 1, 72, 0
1, 195552, Note_off_c, 1, 44, 0
1, 195600, Note_on_c, 1, 79, 127
1, 195600, Note_on_c, 1, 59, 127
1, 195600, Note_on_c, 1, 43, 127
1, 195648, Note_off_c, 1, 59, 0
1, 195696, Note_off_c, 1, 65, 0
1, 195792, Note_off_c, 1, 43, 0
1, 195984, Note_off_c, 1, 79, 0
1, 196080, Note_on_c, 1, 60, 127
1, 196080, Note_on_c, 1, 75, 127
1, 196080, Note_on_c, 1, 48, 127
1, 196128, Note_off_c, 1, 48, 0
1, 196140, Note_on_c, 1, 63, 127
1, 196188, Note_off_c, 1, 60, 0
1, 196188, Note_off_c, 1, 63, 0
1, 196200, Note_on_c, 1, 62, 127
1, 196200, Note_on_c, 1, 58, 127
1, 196248, Note_off_c, 1, 62, 0
1, 196248, Note_off_c, 1, 58, 0
1, 196272, Note_off_c, 1, 75, 0
1, 196320, Note_on_c, 1, 77, 127
1, 196320, Note_on_c, 1, 60, 127
1, 196320, Note_on_c, 1, 56, 127
1, 196368, Note_off_c, 1, 56, 0
1, 196440, Note_on_c, 1, 68, 127
1, 196536, Note_off_c, 1, 68, 0
1, 196548, Note_off_c, 1, 60, 0
1, 196560, Note_on_c, 1, 62, 127
1, 196560, Note_on_c, 1, 58, 127
1, 196656, Note_off_c, 1, 62, 0
1, 196704, Note_off_c, 1, 77, 0
1, 196788, Note_off_c, 1, 58, 0
1, 196800, Note_on_c, 1, 64, 127
1, 196800, Note_on_c, 1, 79, 127
1, 196800, Note_on_c, 1, 58, 127
1, 196800, Note_on_c, 1, 55, 127
1, 196848, Note_off_c, 1, 55, 0
1, 196896, Note_off_c, 1, 64, 0
1, 196992, Note_off_c, 1, 79, 0
1, 197028, Note_off_c, 1, 58, 0
1, 197040, Note_on_c, 1, 80, 127
1, 197040, Note_on_c, 1, 60, 127
1, 197040, Note_on_c, 1, 53, 127
1, 197088, Note_off_c, 1, 53, 0
1, 197100, Note_on_c, 1, 56, 127
1, 197148, Note_off_c, 1, 56, 0
1, 197160, Note_on_c, 1, 65, 127
1, 197160, Note_on_c, 1, 55, 127
1, 197208, Note_off_c, 1, 55, 0
1, 197220, Note_on_c, 1, 58, 127
1, 197232, Note_off_c, 1, 60, 0
1, 197256, Note_off_c, 1, 65, 0
1, 197268, Note_off_c, 1, 58, 0
1, 197340, Note_on_c, 1, 67, 127
1, 197388, Note_off_c, 1, 67, 0
1, 197424, Note_off_c, 1, 80, 0
1, 197460, Note_on_c, 1, 63, 127
1, 197508, Note_off_c, 1, 63, 0
1, 197520, Note_on_c, 1, 62, 127
1, 197520, Note_on_c, 1, 77, 127
1, 197520, Note_on_c, 1, 56, 127
1, 197568, Note_off_c, 1, 56, 0
1, 197580, Note_on_c, 1, 58, 127
1, 197616, Note_off_c, 1, 62, 0
1, 197628, Note_off_c, 1, 58, 0
1, 197640, Note_on_c, 1, 60, 127
1, 197712, Note_off_c, 1, 77, 0
1, 197760, Note_on_c, 1, 63, 127
1, 197760, Note_on_c, 1, 79, 127
1, 197760, Note_on_c, 1, 55, 127
1, 197808, Note_off_c, 1, 60, 0
1, 197820, Note_on_c, 1, 59, 127
1, 197868, Note_off_c, 1, 59, 0
1, 197904, Note_off_c, 1, 63, 0
1, 197940, Note_on_c, 1, 65, 127
1, 197988, Note_off_c, 1, 65, 0
1, 198000, Note_on_c, 1, 67, 127
1, 198096, Note_off_c, 1, 67, 0
1, 198120, Note_on_c, 1, 69, 127
1, 198168, Note_off_c, 1, 69, 0
1, 198180, Note_on_c, 1, 71, 127
1, 198228, Note_off_c, 1, 71, 0
1, 198240, Note_on_c, 1, 72, 127
1, 198288, Note_off_c, 1, 72, 0
1, 198300, Note_on_c, 1, 75, 127
1, 198348, Note_off_c, 1, 75, 0
1, 198360, Note_on_c, 1, 74, 127
1, 198408, Note_off_c, 1, 74, 0
1, 198528, Note_off_c, 1, 55, 0
1, 198720, Note_on_c, 1, 51, 127
1, 198768, Note_off_c, 1, 51, 0
1, 198960, Note_on_c, 1, 48, 127
1, 199008, Note_off_c, 1, 48, 0
1, 199080, Note_on_c, 1, 70, 127
1, 199176, Note_off_c, 1, 70, 0
1, 199200, Note_on_c, 1, 68, 127
1, 199200, Note_on_c, 1, 53, 127
1, 199248, Note_off_c, 1, 53, 0
1, 199392, Note_off_c, 1, 79, 0
1, 199440, Note_on_c, 1, 50, 127
1, 199488, Note_off_c, 1, 50, 0
1, 199680, Note_on_c, 1, 47, 127
1, 199728, Note_off_c, 1, 47, 0
1, 199776, Note_off_c, 1, 68, 0
1, 200400, Note_on_c, 1, 45, 127
1, 200448, Note_off_c, 1, 45, 0
1, 200640, Note_on_c, 1, 57, 127
1, 200832, Note_off_c, 1, 57, 0
1, 201120, Note_on_c, 1, 43, 127
1, 201168, Note_off_c, 1, 43, 0
1, 201600, Note_on_c, 1, 44, 127
1, 201648, Note_off_c, 1, 44, 0
1, 201840, Note_on_c, 1, 74, 127
1, 201840, Note_on_c, 1, 65, 127
1, 201840, Note_on_c, 1, 56, 127
1, 201840, Note_on_c, 1, 41, 127
1, 201888, Note_off_c, 1, 74, 0
1, 201888, Note_off_c, 1, 41, 0
1, 201900, Note_on_c, 1, 77, 127
1, 201900, Note_on_c, 1, 44, 127
1, 201936, Note_off_c, 1, 56, 0
1, 201948, Note_off_c, 1, 77, 0
1, 201948, Note_off_c, 1, 44, 0
1, 202080, Note_on_c, 1, 71, 127
1, 202080, Note_on_c, 1, 50, 127
1, 202080, Note_on_c, 1, 43, 127
1, 202128, Note_off_c, 1, 65, 0
1, 202140, Note_on_c, 1, 67, 127
1, 202188, Note_off_c, 1, 67, 0
1, 202272, Note_off_c, 1, 71, 0
1, 202272, Note_off_c, 1, 50, 0
1, 202272, Note_off_c, 1, 43, 0
1, 202320, Note_on_c, 1, 59, 127
1, 202380, Note_on_c, 1, 79, 127
1, 202380, Note_on_c, 1, 43, 127
1, 202416, Note_off_c, 1, 59, 0
1, 202428, Note_off_c, 1, 79, 0
1, 202428, Note_off_c, 1, 43, 0
1, 202440, Note_on_c, 1, 77, 127
1, 202440, Note_on_c, 1, 62, 127
1, 202440, Note_on_c, 1, 55, 127
1, 202440, Note_on_c, 1, 47, 127
1, 202488, Note_off_c, 1, 77, 0
1, 202488, Note_off_c, 1, 47, 0
1, 202500, Note_on_c, 1, 79, 127
1, 202500, Note_on_c, 1, 43, 127
1, 202536, Note_off_c, 1, 62, 0
1, 202536, Note_off_c, 1, 55, 0
1, 202548, Note_off_c, 1, 79, 0
1, 202548, Note_off_c, 1, 43, 0
1, 202560, Note_on_c, 1, 75, 127
1, 202560, Note_on_c, 1, 60, 127
1, 202560, Note_on_c, 1, 55, 127
1, 202560, Note_on_c, 1, 48, 127
1, 202608, Note_off_c, 1, 75, 0
1, 202608, Note_off_c, 1, 48, 0
1, 202620, Note_on_c, 1, 79, 127
1, 202620, Note_on_c, 1, 43, 127
1, 202656, Note_off_c, 1, 60, 0
1, 202656, Note_off_c, 1, 55, 0
1, 202668, Note_off_c, 1, 79, 0
1, 202668, Note_off_c, 1, 43, 0
1, 202680, Note_on_c, 1, 72, 127
1, 202680, Note_on_c, 1, 60, 127
1, 202680, Note_on_c, 1, 55, 127
1, 202680, Note_on_c, 1, 51, 127
1, 202728, Note_off_c, 1, 72, 0
1, 202728, Note_off_c, 1, 51, 0
1, 202740, Note_on_c, 1, 75, 127
1, 202740, Note_on_c, 1, 48, 127
1, 202776, Note_off_c, 1, 60, 0
1, 202776, Note_off_c, 1, 55, 0
1, 202788, Note_off_c, 1, 75, 0
1, 202788, Note_off_c, 1, 48, 0
1, 202800, Note_on_c, 1, 62, 127
1, 202800, Note_on_c, 1, 71, 127
1, 202800, Note_on_c, 1, 55, 127
1, 202848, Note_off_c, 1, 62, 0
1, 202860, Note_on_c, 1, 67, 127
1, 202908, Note_off_c, 1, 67, 0
1, 202920, Note_on_c, 1, 65, 127
1, 202968, Note_off_c, 1, 65, 0
1, 202992, Note_off_c, 1, 71, 0
1, 202992, Note_off_c, 1, 55, 0
1, 203040, Note_on_c, 1, 62, 127
1, 203100, Note_on_c, 1, 55, 127
1, 203148, Note_off_c, 1, 55, 0
1, 203153, Note_off_c, 1, 62, 0
1, 203160, Note_on_c, 1, 71, 127
1, 203160, Note_on_c, 1, 62, 127
1, 203160, Note_on_c, 1, 55, 127
1, 203160, Note_on_c, 1, 53, 127
1, 203208, Note_off_c, 1, 53, 0
1, 203256, Note_off_c, 1, 71, 0
1, 203268, Note_off_c, 1, 55, 0
1, 203273, Note_off_c, 1, 62, 0
1, 203280, Note_on_c, 1, 72, 127
1, 203280, Note_on_c, 1, 63, 127
1, 203280, Note_on_c, 1, 55, 127
1, 203280, Note_on_c, 1, 51, 127
1, 203328, Note_off_c, 1, 51, 0
1, 203376, Note_off_c, 1, 72, 0
1, 203388, Note_off_c, 1, 55, 0
1, 203393, Note_off_c, 1, 63, 0
1, 203400, Note_on_c, 1, 72, 127
1, 203400, Note_on_c, 1, 63, 127
1, 203400, Note_on_c, 1, 55, 127
1, 203400, Note_on_c, 1, 48, 127
1, 203448, Note_off_c, 1, 48, 0
1, 203460, Note_on_c, 1, 51, 127
1, 203496, Note_off_c, 1, 72, 0
1, 203496, Note_off_c, 1, 55, 0
1, 203508, Note_off_c, 1, 51, 0
1, 203513, Note_off_c, 1, 63, 0
1, 203520, Note_on_c, 1, 65, 127
1, 203520, Note_on_c, 1, 74, 127
1, 203520, Note_on_c, 1, 55, 127
1, 203520, Note_on_c, 1, 47, 127
1, 203568, Note_off_c, 1, 65, 0
1, 203580, Note_on_c, 1, 67, 127
1, 203628, Note_off_c, 1, 67, 0
1, 203712, Note_off_c, 1, 74, 0
1, 203712, Note_off_c, 1, 55, 0
1, 203712, Note_off_c, 1, 47, 0
1, 203760, Note_on_c, 1, 62, 127
1, 203820, Note_on_c, 1, 55, 127
1, 203856, Note_off_c, 1, 62, 0
1, 203868, Note_off_c, 1, 55, 0
1, 203880, Note_on_c, 1, 74, 127
1, 203880, Note_on_c, 1, 67, 127
1, 203880, Note_on_c, 1, 59, 127
1, 203880, Note_on_c, 1, 53, 127
1, 203928, Note_off_c, 1, 53, 0
1, 203940, Note_on_c, 1, 55, 127
1, 203976, Note_off_c, 1, 74, 0
1, 203976, Note_off_c, 1, 67, 0
1, 203976, Note_off_c, 1, 59, 0
1, 203988, Note_off_c, 1, 55, 0
1, 204000, Note_on_c, 1, 75, 127
1, 204000, Note_on_c, 1, 67, 127
1, 204000, Note_on_c, 1, 60, 127
1, 204000, Note_on_c, 1, 51, 127
1, 204048, Note_off_c, 1, 51, 0
1, 204060, Note_on_c, 1, 55, 127
1, 204096, Note_off_c, 1, 75, 0
1, 204096, Note_off_c, 1, 67, 0
1, 204096, Note_off_c, 1, 60, 0
1, 204108, Note_off_c, 1, 55, 0
1, 204120, Note_on_c, 1, 75, 127
1, 204120, Note_on_c, 1, 67, 127
1, 204120, Note_on_c, 1, 60, 127
1, 204120, Note_on_c, 1, 48, 127
1, 204168, Note_off_c, 1, 48, 0
1, 204180, Note_on_c, 1, 51, 127
1, 204216, Note_off_c, 1, 75, 0
1, 204216, Note_off_c, 1, 67, 0
1, 204216, Note_off_c, 1, 60, 0
1, 204228, Note_off_c, 1, 51, 0
1, 204240, Note_on_c, 1, 67, 127
1, 204240, Note_on_c, 1, 74, 127
1, 204240, Note_on_c, 1, 59, 127
1, 204240, Note_on_c, 1, 43, 127
1, 204288, Note_off_c, 1, 67, 0
1, 204360, Note_on_c, 1, 65, 127
1, 204408, Note_off_c, 1, 65, 0
1, 204432, Note_off_c, 1, 74, 0
1, 204432, Note_off_c, 1, 59, 0
1, 204432, Note_off_c, 1, 43, 0
1, 204480, Note_on_c, 1, 62, 127
1, 204540, Note_on_c, 1, 55, 127
1, 204576, Note_off_c, 1, 62, 0
1, 204588, Note_off_c, 1, 55, 0
1, 204600, Note_on_c, 1, 67, 127
1, 204600, Note_on_c, 1, 74, 127
1, 204600, Note_on_c, 1, 59, 127
1, 204600, Note_on_c, 1, 53, 127
1, 204648, Note_off_c, 1, 53, 0
1, 204660, Note_on_c, 1, 55, 127
1, 204696, Note_off_c, 1, 67, 0
1, 204696, Note_off_c, 1, 74, 0
1, 204696, Note_off_c, 1, 59, 0
1, 204708, Note_off_c, 1, 55, 0
1, 204720, Note_on_c, 1, 79, 127
1, 204720, Note_on_c, 1, 67, 127
1, 204720, Note_on_c, 1, 60, 127
1, 204720, Note_on_c, 1, 51, 127
1, 204768, Note_off_c, 1, 51, 0
1, 204780, Note_on_c, 1, 55, 127
1, 204816, Note_off_c, 1, 79, 0
1, 204816, Note_off_c, 1, 67, 0
1, 204816, Note_off_c, 1, 60, 0
1, 204828, Note_off_c, 1, 55, 0
1, 204840, Note_on_c, 1, 75, 127
1, 204840, Note_on_c, 1, 67, 127
1, 204840, Note_on_c, 1, 63, 127
1, 204840, Note_on_c, 1, 48, 127
1, 204888, Note_off_c, 1, 48, 0
1, 204900, Note_on_c, 1, 51, 127
1, 204936, Note_off_c, 1, 75, 0
1, 204936, Note_off_c, 1, 67, 0
1, 204936, Note_off_c, 1, 63, 0
1, 204948, Note_off_c, 1, 51, 0
1, 204960, Note_on_c, 1, 65, 127
1, 204960, Note_on_c, 1, 80, 127
1, 204960, Note_on_c, 1, 61, 127
1, 204960, Note_on_c, 1, 41, 127
1, 205056, Note_off_c, 1, 65, 0
1, 205056, Note_off_c, 1, 80, 0
1, 205056, Note_off_c, 1, 61, 0
1, 205056, Note_off_c, 1, 41, 0
1, 205320, Note_on_c, 1, 67, 127
1, 205320, Note_on_c, 1, 71, 127
1, 205320, Note_on_c, 1, 62, 127
1, 205320, Note_on_c, 1, 53, 127
1, 205416, Note_off_c, 1, 67, 0
1, 205416, Note_off_c, 1, 71, 0
1, 205416, Note_off_c, 1, 62, 0
1, 205416, Note_off_c, 1, 53, 0
1, 205440, Note_on_c, 1, 67, 127
1, 205440, Note_on_c, 1, 72, 127
1, 205440, Note_on_c, 1, 63, 127
1, 205440, Note_on_c, 1, 51, 127
1, 205488, Note_off_c, 1, 67, 0
1, 205500, Note_on_c, 1, 68, 127
1, 205536, Note_off_c, 1, 51, 0
1, 205548, Note_off_c, 1, 68, 0
1, 205560, Note_on_c, 1, 65, 127
1, 205560, Note_on_c, 1, 48, 127
1, 205608, Note_off_c, 1, 65, 0
1, 205632, Note_off_c, 1, 63, 0
1, 205656, Note_off_c, 1, 48, 0
1, 205680, Note_on_c, 1, 60, 127
1, 205680, Note_on_c, 1, 53, 127
1, 205728, Note_off_c, 1, 72, 0
1, 205740, Note_on_c, 1, 75, 127
1, 205788, Note_off_c, 1, 75, 0
1, 205800, Note_on_c, 1, 74, 127
1, 205848, Note_off_c, 1, 74, 0
1, 205860, Note_on_c, 1, 77, 127
1, 205872, Note_off_c, 1, 53, 0
1, 205908, Note_off_c, 1, 77, 0
1, 205920, Note_on_c, 1, 55, 127
1, 205980, Note_on_c, 1, 79, 127
1, 206028, Note_off_c, 1, 79, 0
1, 206064, Note_off_c, 1, 60, 0
1, 206100, Note_on_c, 1, 80, 127
1, 206112, Note_off_c, 1, 55, 0
1, 206148, Note_off_c, 1, 80, 0
1, 206160, Note_on_c, 1, 59, 127
1, 206160, Note_on_c, 1, 43, 127
1, 206352, Note_off_c, 1, 59, 0
1, 206352, Note_off_c, 1, 43, 0
1, 206400, Note_on_c, 1, 64, 127
1, 206400, Note_on_c, 1, 72, 127
1, 206400, Note_on_c, 1, 60, 127
1, 206400, Note_on_c, 1, 36, 127
1, 206448, Note_off_c, 1, 64, 0
1, 206460, Note_on_c, 1, 67, 127
1, 206496, Note_off_c, 1, 60, 0
1, 206508, Note_off_c, 1, 67, 0
1, 206520, Note_on_c, 1, 65, 127
1, 206520, Note_on_c, 1, 62, 127
1, 206568, Note_off_c, 1, 65, 0
1, 206580, Note_on_c, 1, 68, 127
1, 206592, Note_off_c, 1, 72, 0
1, 206592, Note_off_c, 1, 36, 0
1, 206616, Note_off_c, 1, 62, 0
1, 206628, Note_off_c, 1, 68, 0
1, 206640, Note_on_c, 1, 67, 127
1, 206640, Note_on_c, 1, 64, 127
1, 206700, Note_on_c, 1, 84, 127
1, 206700, Note_on_c, 1, 48, 127
1, 206736, Note_off_c, 1, 67, 0
1, 206736, Note_off_c, 1, 64, 0
1, 206748, Note_off_c, 1, 84, 0
1, 206748, Note_off_c, 1, 48, 0
1, 206760, Note_on_c, 1, 82, 127
1, 206760, Note_on_c, 1, 72, 127
1, 206760, Note_on_c, 1, 67, 127
1, 206760, Note_on_c, 1, 52, 127
1, 206808, Note_off_c, 1, 82, 0
1, 206808, Note_off_c, 1, 52, 0
1, 206820, Note_on_c, 1, 84, 127
1, 206820, Note_on_c, 1, 48, 127
1, 206856, Note_off_c, 1, 72, 0
1, 206856, Note_off_c, 1, 67, 0
1, 206868, Note_off_c, 1, 84, 0
1, 206868, Note_off_c, 1, 48, 0
1, 206880, Note_on_c, 1, 80, 127
1, 206880, Note_on_c, 1, 72, 127
1, 206880, Note_on_c, 1, 65, 127
1, 206880, Note_on_c, 1, 53, 127
1, 206928, Note_off_c, 1, 80, 0
1, 206928, Note_off_c, 1, 53, 0
1, 206940, Note_on_c, 1, 84, 127
1, 206940, Note_on_c, 1, 48, 127
1, 206976, Note_off_c, 1, 72, 0
1, 206976, Note_off_c, 1, 65, 0
1, 206988, Note_off_c, 1, 84, 0
1, 206988, Note_off_c, 1, 48, 0
1, 207000, Note_on_c, 1, 77, 127
1, 207000, Note_on_c, 1, 72, 127
1, 207000, Note_on_c, 1, 65, 127
1, 207000, Note_on_c, 1, 56, 127
1, 207048, Note_off_c, 1, 77, 0
1, 207048, Note_off_c, 1, 56, 0
1, 207060, Note_on_c, 1, 80, 127
1, 207060, Note_on_c, 1, 53, 127
1, 207096, Note_off_c, 1, 65, 0
1, 207108, Note_off_c, 1, 80, 0
1, 207108, Note_off_c, 1, 53, 0
1, 207113, Note_off_c, 1, 72, 0
1, 207120, Note_on_c, 1, 72, 127
1, 207120, Note_on_c, 1, 76, 127
1, 207120, Note_on_c, 1, 67, 127
1, 207120, Note_on_c, 1, 60, 127
1, 207168, Note_off_c, 1, 72, 0
1, 207240, Note_on_c, 1, 70, 127
1, 207288, Note_off_c, 1, 70, 0
1, 207312, Note_off_c, 1, 76, 0
1, 207312, Note_off_c, 1, 67, 0
1, 207312, Note_off_c, 1, 60, 0
1, 207360, Note_on_c, 1, 67, 127
1, 207420, Note_on_c, 1, 60, 127
1, 207468, Note_off_c, 1, 60, 0
1, 207473, Note_off_c, 1, 67, 0
1, 207480, Note_on_c, 1, 76, 127
1, 207480, Note_on_c, 1, 68, 127
1, 207480, Note_on_c, 1, 60, 127
1, 207480, Note_on_c, 1, 58, 127
1, 207528, Note_off_c, 1, 58, 0
1, 207576, Note_off_c, 1, 76, 0
1, 207588, Note_off_c, 1, 60, 0
1, 207593, Note_off_c, 1, 68, 0
1, 207600, Note_on_c, 1, 77, 127
1, 207600, Note_on_c, 1, 68, 127
1, 207600, Note_on_c, 1, 60, 127
1, 207600, Note_on_c, 1, 56, 127
1, 207648, Note_off_c, 1, 56, 0
1, 207696, Note_off_c, 1, 77, 0
1, 207708, Note_off_c, 1, 60, 0
1, 207713, Note_off_c, 1, 68, 0
1, 207720, Note_on_c, 1, 77, 127
1, 207720, Note_on_c, 1, 68, 127
1, 207720, Note_on_c, 1, 60, 127
1, 207720, Note_on_c, 1, 53, 127
1, 207768, Note_off_c, 1, 53, 0
1, 207780, Note_on_c, 1, 56, 127
1, 207816, Note_off_c, 1, 77, 0
1, 207816, Note_off_c, 1, 60, 0
1, 207828, Note_off_c, 1, 56, 0
1, 207833, Note_off_c, 1, 68, 0
1, 207840, Note_on_c, 1, 70, 127
1, 207840, Note_on_c, 1, 79, 127
1, 207840, Note_on_c, 1, 60, 127
1, 207840, Note_on_c, 1, 52, 127
1, 207888, Note_off_c, 1, 70, 0
1, 207900, Note_on_c, 1, 72, 127
1, 207948, Note_off_c, 1, 72, 0
1, 208032, Note_off_c, 1, 79, 0
1, 208032, Note_off_c, 1, 60, 0
1, 208032, Note_off_c, 1, 52, 0
1, 208080, Note_on_c, 1, 67, 127
1, 208140, Note_on_c, 1, 60, 127
1, 208176, Note_off_c, 1, 67, 0
1, 208188, Note_off_c, 1, 60, 0
1, 208200, Note_on_c, 1, 72, 127
1, 208200, Note_on_c, 1, 79, 127
1, 208200, Note_on_c, 1, 64, 127
1, 208200, Note_on_c, 1, 58, 127
1, 208248, Note_off_c, 1, 58, 0
1, 208260, Note_on_c, 1, 60, 127
1, 208296, Note_off_c, 1, 72, 0
1, 208296, Note_off_c, 1, 79, 0
1, 208296, Note_off_c, 1, 64, 0
1, 208308, Note_off_c, 1, 60, 0
1, 208320, Note_on_c, 1, 80, 127
1, 208320, Note_on_c, 1, 72, 127
1, 208320, Note_on_c, 1, 65, 127
1, 208320, Note_on_c, 1, 56, 127
1, 208368, Note_off_c, 1, 56, 0
1, 208380, Note_on_c, 1, 60, 127
1, 208416, Note_off_c, 1, 80, 0
1, 208416, Note_off_c, 1, 72, 0
1, 208416, Note_off_c, 1, 65, 0
1, 208428, Note_off_c, 1, 60, 0
1, 208440, Note_on_c, 1, 72, 127
1, 208440, Note_on_c, 1, 80, 127
1, 208440, Note_on_c, 1, 65, 127
1, 208440, Note_on_c, 1, 53, 127
1, 208488, Note_off_c, 1, 53, 0
1, 208500, Note_on_c, 1, 56, 127
1, 208536, Note_off_c, 1, 72, 0
1, 208536, Note_off_c, 1, 80, 0
1, 208536, Note_off_c, 1, 65, 0
1, 208548, Note_off_c, 1, 56, 0
1, 208560, Note_on_c, 1, 79, 127
1, 208560, Note_on_c, 1, 72, 127
1, 208560, Note_on_c, 1, 64, 127
1, 208560, Note_on_c, 1, 48, 127
1, 208608, Note_off_c, 1, 79, 0
1, 208608, Note_off_c, 1, 72, 0
1, 208620, Note_on_c, 1, 82, 127
1, 208620, Note_on_c, 1, 73, 127
1, 208668, Note_off_c, 1, 82, 0
1, 208668, Note_off_c, 1, 73, 0
1, 208680, Note_on_c, 1, 80, 127
1, 208728, Note_off_c, 1, 80, 0
1, 208752, Note_off_c, 1, 64, 0
1, 208752, Note_off_c, 1, 48, 0
1, 208800, Note_on_c, 1, 79, 127
1, 208800, Note_on_c, 1, 70, 127
1, 208860, Note_on_c, 1, 64, 127
1, 208860, Note_on_c, 1, 48, 127
1, 208908, Note_off_c, 1, 64, 0
1, 208908, Note_off_c, 1, 48, 0
1, 208920, Note_on_c, 1, 62, 127
1, 208920, Note_on_c, 1, 46, 127
1, 208968, Note_off_c, 1, 62, 0
1, 208968, Note_off_c, 1, 46, 0
1, 209040, Note_on_c, 1, 60, 127
1, 209040, Note_on_c, 1, 44, 127
1, 209088, Note_off_c, 1, 79, 0
1, 209088, Note_off_c, 1, 70, 0
1, 209088, Note_off_c, 1, 44, 0
1, 209160, Note_on_c, 1, 68, 127
1, 209160, Note_on_c, 1, 77, 127
1, 209160, Note_on_c, 1, 65, 127
1, 209160, Note_on_c, 1, 41, 127
1, 209208, Note_off_c, 1, 41, 0
1, 209232, Note_off_c, 1, 60, 0
1, 209256, Note_off_c, 1, 68, 0
1, 209256, Note_off_c, 1, 65, 0
1, 209280, Note_on_c, 1, 36, 127
1, 209328, Note_off_c, 1, 77, 0
1, 209400, Note_on_c, 1, 76, 127
1, 209400, Note_on_c, 1, 67, 127
1, 209448, Note_off_c, 1, 76, 0
1, 209448, Note_off_c, 1, 67, 0
1, 209520, Note_on_c, 1, 71, 127
1, 209580, Note_on_c, 1, 56, 127
1, 209628, Note_off_c, 1, 56, 0
1, 209640, Note_on_c, 1, 55, 127
1, 209688, Note_off_c, 1, 55, 0
1, 209760, Note_on_c, 1, 53, 127
1, 209808, Note_off_c, 1, 71, 0
1, 209820, Note_on_c, 1, 74, 127
1, 209868, Note_off_c, 1, 74, 0
1, 209940, Note_on_c, 1, 59, 127
1, 209952, Note_off_c, 1, 53, 0
1, 209988, Note_off_c, 1, 59, 0
1, 210000, Note_on_c, 1, 72, 127
1, 210576, Note_off_c, 1, 36, 0
1, 210576, Note_off_c, 1, 72, 0
1, 210576, End_track
0, 0, End_of_file