0, 0, Header, 1, 1, 480
1, 0, Start_track
1, 0, Title_t, "Test"
1, 0, Tempo, 500000
1, 0, Instrument_name_t, "Church Organ"
1, 0, Note_on_c, 1, 74, 127
1, 0, Note_on_c, 1, 71, 127
1, 0, Note_on_c, 1, 55, 127
1, 120, Note_on_c, 1, 62, 127
1, 192, Note_off_c, 1, 74, 0
1, 192, Note_off_c, 1, 71, 0
1, 192, Note_off_c, 1, 55, 0
1, 216, Note_off_c, 1, 62, 0
1, 240, Note_on_c, 1, 69, 127
1, 240, Note_on_c, 1, 76, 127
1, 240, Note_on_c, 1, 60, 127
1, 240, Note_on_c, 1, 48, 127
1, 336, Note_off_c, 1, 69, 0
1, 336, Note_off_c, 1, 60, 0
1, 360, Note_on_c, 1, 67, 127
1, 360, Note_on_c, 1, 59, 127
1, 432, Note_off_c, 1, 76, 0
1, 432, Note_off_c, 1, 48, 0
1, 456, Note_off_c, 1, 67, 0
1, 456, Note_off_c, 1, 59, 0
1, 480, Note_on_c, 1, 74, 127
1, 480, Note_on_c, 1, 66, 127
1, 480, Note_on_c, 1, 50, 127
1, 480, Note_on_c, 1, 57, 127
1, 576, Note_off_c, 1, 74, 0
1, 600, Note_on_c, 1, 72, 127
1, 672, Note_off_c, 1, 66, 0
1, 672, Note_off_c, 1, 50, 0
1, 672, Note_off_c, 1, 57, 0
1, 696, Note_off_c, 1, 72, 0
1, 720, Note_on_c, 1, 67, 127
1, 720, Note_on_c, 1, 71, 127
1, 720, Note_on_c, 1, 55, 127
1, 720, Note_on_c, 1, 52, 127
1, 816, Note_off_c, 1, 55, 0
1, 840, Note_on_c, 1, 54, 127
1, 912, Note_off_c, 1, 67, 0
1, 912, Note_off_c, 1, 52, 0
1, 936, Note_off_c, 1, 54, 0
1, 960, Note_on_c, 1, 66, 127
1, 960, Note_on_c, 1, 50, 127
1, 1008, Note_off_c, 1, 71, 0
1, 1056, Note_off_c, 1, 66, 0
1, 1056, Note_off_c, 1, 50, 0
1, 1080, Note_on_c, 1, 72, 127
1, 1080, Note_on_c, 1, 64, 127
1, 1080, Note_on_c, 1, 57, 127
1, 1080, Note_on_c, 1, 48, 127
1, 1176, Note_off_c, 1, 72, 0
1, 1176, Note_off_c, 1, 64, 0
1, 1176, Note_off_c, 1, 57, 0
1, 1176, Note_off_c, 1, 48, 0
1, 1200, Note_on_c, 1, 62, 127
1, 1200, Note_on_c, 1, 74, 127
1, 1200, Note_on_c, 1, 47, 127
1, 1200, Note_on_c, 1, 59, 127
1, 1296, Note_off_c, 1, 47, 0
1, 1320, Note_on_c, 1, 43, 127
1, 1392, Note_off_c, 1, 62, 0
1, 1392, Note_off_c, 1, 59, 0
1, 1416, Note_off_c, 1, 43, 0
1, 1440, Note_on_c, 1, 64, 127
1, 1440, Note_on_c, 1, 48, 127
1, 1560, Note_on_c, 1, 55, 127
1, 1632, Note_off_c, 1, 74, 0
1, 1632, Note_off_c, 1, 64, 0
1, 1632, Note_off_c, 1, 48, 0
1, 1656, Note_off_c, 1, 55, 0
1, 1680, Note_on_c, 1, 72, 127
1, 1680, Note_on_c, 1, 66, 127
1, 1680, Note_on_c, 1, 57, 127
1, 1680, Note_on_c, 1, 45, 127
1, 1776, Note_off_c, 1, 72, 0
1, 1776, Note_off_c, 1, 57, 0
1, 1800, Note_on_c, 1, 71, 127
1, 1800, Note_on_c, 1, 55, 127
1, 1872, Note_off_c, 1, 45, 0
1, 1896, Note_off_c, 1, 71, 0
1, 1896, Note_off_c, 1, 55, 0
1, 1920, Note_on_c, 1, 50, 127
1, 2040, Note_on_c, 1, 74, 127
1, 2040, Note_on_c, 1, 59, 127
1, 2064, Note_off_c, 1, 66, 0
1, 2112, Note_off_c, 1, 50, 0
1, 2136, Note_off_c, 1, 74, 0
1, 2136, Note_off_c, 1, 59, 0
1, 2160, Note_on_c, 1, 71, 127
1, 2160, Note_on_c, 1, 67, 127
1, 2160, Note_on_c, 1, 55, 127
1, 2280, Note_on_c, 1, 54, 127
1, 2352, Note_off_c, 1, 71, 0
1, 2352, Note_off_c, 1, 55, 0
1, 2376, Note_off_c, 1, 54, 0
1, 2400, Note_on_c, 1, 52, 127
1, 2400, Note_on_c, 1, 59, 127
1, 2448, Note_off_c, 1, 67, 0
1, 2496, Note_off_c, 1, 52, 0
1, 2520, Note_on_c, 1, 50, 127
1, 2592, Note_off_c, 1, 59, 0
1, 2616, Note_off_c, 1, 50, 0
1, 2640, Note_on_c, 1, 66, 127
1, 2640, Note_on_c, 1, 57, 127
1, 2640, Note_on_c, 1, 49, 127
1, 2736, Note_off_c, 1, 66, 0
1, 2736, Note_off_c, 1, 57, 0
1, 2736, Note_off_c, 1, 49, 0
1, 2760, Note_on_c, 1, 64, 127
1, 2760, Note_on_c, 1, 45, 127
1, 2760, Note_on_c, 1, 55, 127
1, 2856, Note_off_c, 1, 64, 0
1, 2856, Note_off_c, 1, 45, 0
1, 2856, Note_off_c, 1, 55, 0
1, 2880, Note_on_c, 1, 66, 127
1, 2880, Note_on_c, 1, 69, 127
1, 2880, Note_on_c, 1, 50, 127
1, 2880, Note_on_c, 1, 54, 127
1, 2976, Note_off_c, 1, 50, 0
1, 3000, Note_on_c, 1, 38, 127
1, 3072, Note_off_c, 1, 66, 0
1, 3072, Note_off_c, 1, 69, 0
1, 3072, Note_off_c, 1, 54, 0
1, 3096, Note_off_c, 1, 38, 0
1, 3120, Note_on_c, 1, 71, 127
1, 3120, Note_on_c, 1, 64, 127
1, 3120, Note_on_c, 1, 43, 127
1, 3120, Note_on_c, 1, 55, 127
1, 3216, Note_off_c, 1, 43, 0
1, 3240, Note_on_c, 1, 40, 127
1, 3312, Note_off_c, 1, 71, 0
1, 3312, Note_off_c, 1, 55, 0
1, 3336, Note_off_c, 1, 40, 0
1, 3360, Note_on_c, 1, 73, 127
1, 3360, Note_on_c, 1, 42, 127
1, 3360, Note_on_c, 1, 57, 127
1, 3408, Note_off_c, 1, 64, 0
1, 3480, Note_on_c, 1, 67, 127
1, 3552, Note_off_c, 1, 73, 0
1, 3552, Note_off_c, 1, 42, 0
1, 3576, Note_off_c, 1, 67, 0
1, 3600, Note_on_c, 1, 66, 127
1, 3600, Note_on_c, 1, 74, 127
1, 3600, Note_on_c, 1, 38, 127
1, 3696, Note_off_c, 1, 66, 0
1, 3792, Note_off_c, 1, 57, 0
1, 3840, Note_on_c, 1, 69, 127
1, 3888, Note_off_c, 1, 74, 0
1, 3960, Note_on_c, 1, 72, 127
1, 3960, Note_on_c, 1, 54, 127
1, 3984, Note_off_c, 1, 38, 0
1, 4032, Note_off_c, 1, 69, 0
1, 4056, Note_off_c, 1, 72, 0
1, 4056, Note_off_c, 1, 54, 0
1, 4080, Note_on_c, 1, 71, 127
1, 4080, Note_on_c, 1, 62, 127
1, 4080, Note_on_c, 1, 55, 127
1, 4176, Note_off_c, 1, 71, 0
1, 4176, Note_off_c, 1, 55, 0
1, 4200, Note_on_c, 1, 69, 127
1, 4200, Note_on_c, 1, 57, 127
1, 4272, Note_off_c, 1, 62, 0
1, 4296, Note_off_c, 1, 69, 0
1, 4296, Note_off_c, 1, 57, 0
1, 4320, Note_on_c, 1, 74, 127
1, 4320, Note_on_c, 1, 72, 127
1, 4320, Note_on_c, 1, 69, 127
1, 4320, Note_on_c, 1, 54, 127
1, 4416, Note_off_c, 1, 72, 0
1, 4416, Note_off_c, 1, 69, 0
1, 4416, Note_off_c, 1, 54, 0
1, 4440, Note_on_c, 1, 71, 127
1, 4440, Note_on_c, 1, 67, 127
1, 4440, Note_on_c, 1, 43, 127
1, 4440, Note_on_c, 1, 55, 127
1, 4512, Note_off_c, 1, 74, 0
1, 4536, Note_off_c, 1, 71, 0
1, 4536, Note_off_c, 1, 43, 0
1, 4536, Note_off_c, 1, 55, 0
1, 4560, Note_on_c, 1, 76, 127
1, 4560, Note_on_c, 1, 48, 127
1, 4560, Note_on_c, 1, 52, 127
1, 4656, Note_off_c, 1, 48, 0
1, 4656, Note_off_c, 1, 52, 0
1, 4680, Note_on_c, 1, 45, 127
1, 4752, Note_off_c, 1, 67, 0
1, 4752, Note_off_c, 1, 76, 0
1, 4776, Note_off_c, 1, 45, 0
1, 4800, Note_on_c, 1, 66, 127
1, 4800, Note_on_c, 1, 50, 127
1, 4920, Note_on_c, 1, 38, 127
1, 4992, Note_off_c, 1, 66, 0
1, 5016, Note_off_c, 1, 38, 0
1, 5136, Note_off_c, 1, 50, 0
1, 5520, Note_on_c, 1, 47, 127
1, 5712, Note_off_c, 1, 47, 0
1, 6000, Note_on_c, 1, 72, 127
1, 6000, Note_on_c, 1, 78, 127
1, 6000, Note_on_c, 1, 57, 127
1, 6000, Note_on_c, 1, 45, 127
1, 6096, Note_off_c, 1, 57, 0
1, 6120, Note_on_c, 1, 71, 127
1, 6120, Note_on_c, 1, 55, 127
1, 6192, Note_off_c, 1, 72, 0
1, 6192, Note_off_c, 1, 45, 0
1, 6216, Note_off_c, 1, 71, 0
1, 6216, Note_off_c, 1, 55, 0
1, 6240, Note_on_c, 1, 74, 127
1, 6240, Note_on_c, 1, 50, 127
1, 6360, Note_on_c, 1, 59, 127
1, 6384, Note_off_c, 1, 78, 0
1, 6432, Note_off_c, 1, 50, 0
1, 6456, Note_off_c, 1, 59, 0
1, 6480, Note_on_c, 1, 79, 127
1, 6576, Note_off_c, 1, 74, 0
1, 6600, Note_on_c, 1, 67, 127
1, 6696, Note_off_c, 1, 67, 0
1, 6720, Note_on_c, 1, 52, 127
1, 6768, Note_off_c, 1, 79, 0
1, 6912, Note_off_c, 1, 52, 0
1, 6960, Note_on_c, 1, 78, 127
1, 6960, Note_on_c, 1, 73, 127
1, 6960, Note_on_c, 1, 57, 127
1, 7056, Note_off_c, 1, 78, 0
1, 7080, Note_on_c, 1, 76, 127
1, 7152, Note_off_c, 1, 73, 0
1, 7152, Note_off_c, 1, 57, 0
1, 7176, Note_off_c, 1, 76, 0
1, 7200, Note_on_c, 1, 69, 127
1, 7200, Note_on_c, 1, 78, 127
1, 7200, Note_on_c, 1, 74, 127
1, 7200, Note_on_c, 1, 50, 127
1, 7320, Note_on_c, 1, 57, 127
1, 7392, Note_off_c, 1, 69, 0
1, 7392, Note_off_c, 1, 78, 0
1, 7392, Note_off_c, 1, 50, 0
1, 7416, Note_off_c, 1, 57, 0
1, 7440, Note_on_c, 1, 71, 127
1, 7440, Note_on_c, 1, 76, 127
1, 7440, Note_on_c, 1, 55, 127
1, 7440, Note_on_c, 1, 43, 127
1, 7488, Note_off_c, 1, 74, 0
1, 7536, Note_off_c, 1, 55, 0
1, 7560, Note_on_c, 1, 54, 127
1, 7632, Note_off_c, 1, 43, 0
1, 7656, Note_off_c, 1, 71, 0
1, 7656, Note_off_c, 1, 54, 0
1, 7680, Note_on_c, 1, 73, 127
1, 7680, Note_on_c, 1, 45, 127
1, 7680, Note_on_c, 1, 52, 127
1, 7794, Note_off_c, 1, 73, 0
1, 7800, Note_on_c, 1, 67, 127
1, 7824, Note_off_c, 1, 76, 0
1, 7872, Note_off_c, 1, 45, 0
1, 7872, Note_off_c, 1, 52, 0
1, 7896, Note_off_c, 1, 67, 0
1, 7920, Note_on_c, 1, 74, 127
1, 7920, Note_on_c, 1, 66, 127
1, 7920, Note_on_c, 1, 59, 127
1, 7920, Note_on_c, 1, 47, 127
1, 8016, Note_off_c, 1, 66, 0
1, 8040, Note_on_c, 1, 71, 127
1, 8112, Note_off_c, 1, 59, 0
1, 8112, Note_off_c, 1, 47, 0
1, 8160, Note_on_c, 1, 62, 127
1, 8160, Note_on_c, 1, 42, 127
1, 8208, Note_off_c, 1, 74, 0
1, 8256, Note_off_c, 1, 71, 0
1, 8280, Note_on_c, 1, 72, 127
1, 8280, Note_on_c, 1, 69, 127
1, 8352, Note_off_c, 1, 62, 0
1, 8352, Note_off_c, 1, 42, 0
1, 8376, Note_off_c, 1, 72, 0
1, 8400, Note_on_c, 1, 55, 127
1, 8400, Note_on_c, 1, 43, 127
1, 8496, Note_off_c, 1, 69, 0
1, 8496, Note_off_c, 1, 55, 0
1, 8520, Note_on_c, 1, 67, 127
1, 8592, Note_off_c, 1, 43, 0
1, 8640, Note_on_c, 1, 76, 127
1, 8640, Note_on_c, 1, 57, 127
1, 8640, Note_on_c, 1, 36, 127
1, 8736, Note_off_c, 1, 57, 0
1, 8832, Note_off_c, 1, 36, 0
1, 8868, Note_off_c, 1, 76, 0
1, 8880, Note_on_c, 1, 38, 127
1, 9024, Note_off_c, 1, 67, 0
1, 9264, Note_off_c, 1, 38, 0
1, 9600, Note_on_c, 1, 45, 127
1, 9720, Note_on_c, 1, 64, 127
1, 9792, Note_off_c, 1, 45, 0
1, 9816, Note_off_c, 1, 64, 0
1, 9840, Note_on_c, 1, 54, 127
1, 9936, Note_off_c, 1, 54, 0
1, 10080, Note_on_c, 1, 52, 127
1, 10080, Note_on_c, 1, 48, 127
1, 10176, Note_off_c, 1, 52, 0
1, 10272, Note_off_c, 1, 48, 0
1, 10320, Note_on_c, 1, 72, 127
1, 10320, Note_on_c, 1, 66, 127
1, 10320, Note_on_c, 1, 57, 127
1, 10320, Note_on_c, 1, 45, 127
1, 10416, Note_off_c, 1, 72, 0
1, 10416, Note_off_c, 1, 57, 0
1, 10440, Note_on_c, 1, 71, 127
1, 10440, Note_on_c, 1, 55, 127
1, 10512, Note_off_c, 1, 45, 0
1, 10536, Note_off_c, 1, 71, 0
1, 10536, Note_off_c, 1, 55, 0
1, 10560, Note_on_c, 1, 50, 127
1, 10680, Note_on_c, 1, 74, 127
1, 10680, Note_on_c, 1, 59, 127
1, 10704, Note_off_c, 1, 66, 0
1, 10752, Note_off_c, 1, 50, 0
1, 10776, Note_off_c, 1, 74, 0
1, 10776, Note_off_c, 1, 59, 0
1, 10800, Note_on_c, 1, 71, 127
1, 10800, Note_on_c, 1, 67, 127
1, 10800, Note_on_c, 1, 55, 127
1, 10920, Note_on_c, 1, 54, 127
1, 10992, Note_off_c, 1, 71, 0
1, 10992, Note_off_c, 1, 55, 0
1, 11016, Note_off_c, 1, 54, 0
1, 11040, Note_on_c, 1, 52, 127
1, 11040, Note_on_c, 1, 59, 127
1, 11088, Note_off_c, 1, 67, 0
1, 11136, Note_off_c, 1, 52, 0
1, 11160, Note_on_c, 1, 50, 127
1, 11232, Note_off_c, 1, 59, 0
1, 11256, Note_off_c, 1, 50, 0
1, 11280, Note_on_c, 1, 66, 127
1, 11280, Note_on_c, 1, 49, 127
1, 11280, Note_on_c, 1, 57, 127
1, 11376, Note_off_c, 1, 66, 0
1, 11376, Note_off_c, 1, 49, 0
1, 11376, Note_off_c, 1, 57, 0
1, 11400, Note_on_c, 1, 64, 127
1, 11400, Note_on_c, 1, 45, 127
1, 11400, Note_on_c, 1, 55, 127
1, 11496, Note_off_c, 1, 64, 0
1, 11496, Note_off_c, 1, 45, 0
1, 11496, Note_off_c, 1, 55, 0
1, 11520, Note_on_c, 1, 66, 127
1, 11520, Note_on_c, 1, 69, 127
1, 11520, Note_on_c, 1, 50, 127
1, 11520, Note_on_c, 1, 54, 127
1, 11616, Note_off_c, 1, 50, 0
1, 11640, Note_on_c, 1, 38, 127
1, 11712, Note_off_c, 1, 66, 0
1, 11712, Note_off_c, 1, 69, 0
1, 11712, Note_off_c, 1, 54, 0
1, 11736, Note_off_c, 1, 38, 0
1, 11760, Note_on_c, 1, 71, 127
1, 11760, Note_on_c, 1, 64, 127
1, 11760, Note_on_c, 1, 43, 127
1, 11760, Note_on_c, 1, 55, 127
1, 11856, Note_off_c, 1, 43, 0
1, 11880, Note_on_c, 1, 40, 127
1, 11952, Note_off_c, 1, 71, 0
1, 11952, Note_off_c, 1, 55, 0
1, 11976, Note_off_c, 1, 40, 0
1, 12000, Note_on_c, 1, 73, 127
1, 12000, Note_on_c, 1, 45, 127
1, 12000, Note_on_c, 1, 57, 127
1, 12048, Note_off_c, 1, 64, 0
1, 12120, Note_on_c, 1, 67, 127
1, 12192, Note_off_c, 1, 73, 0
1, 12192, Note_off_c, 1, 45, 0
1, 12216, Note_off_c, 1, 67, 0
1, 12240, Note_on_c, 1, 66, 127
1, 12240, Note_on_c, 1, 74, 127
1, 12240, Note_on_c, 1, 38, 127
1, 12336, Note_off_c, 1, 66, 0
1, 12432, Note_off_c, 1, 57, 0
1, 12480, Note_on_c, 1, 69, 127
1, 12528, Note_off_c, 1, 74, 0
1, 12600, Note_on_c, 1, 72, 127
1, 12600, Note_on_c, 1, 54, 127
1, 12624, Note_off_c, 1, 38, 0
1, 12672, Note_off_c, 1, 69, 0
1, 12696, Note_off_c, 1, 72, 0
1, 12696, Note_off_c, 1, 54, 0
1, 12720, Note_on_c, 1, 71, 127
1, 12720, Note_on_c, 1, 62, 127
1, 12720, Note_on_c, 1, 55, 127
1, 12816, Note_off_c, 1, 71, 0
1, 12816, Note_off_c, 1, 55, 0
1, 12840, Note_on_c, 1, 69, 127
1, 12840, Note_on_c, 1, 57, 127
1, 12912, Note_off_c, 1, 62, 0
1, 12936, Note_off_c, 1, 69, 0
1, 12936, Note_off_c, 1, 57, 0
1, 12960, Note_on_c, 1, 74, 127
1, 12960, Note_on_c, 1, 72, 127
1, 12960, Note_on_c, 1, 69, 127
1, 12960, Note_on_c, 1, 54, 127
1, 13056, Note_off_c, 1, 72, 0
1, 13056, Note_off_c, 1, 69, 0
1, 13056, Note_off_c, 1, 54, 0
1, 13080, Note_on_c, 1, 71, 127
1, 13080, Note_on_c, 1, 67, 127
1, 13080, Note_on_c, 1, 43, 127
1, 13080, Note_on_c, 1, 55, 127
1, 13152, Note_off_c, 1, 74, 0
1, 13176, Note_off_c, 1, 71, 0
1, 13176, Note_off_c, 1, 43, 0
1, 13176, Note_off_c, 1, 55, 0
1, 13200, Note_on_c, 1, 76, 127
1, 13200, Note_on_c, 1, 52, 127
1, 13200, Note_on_c, 1, 48, 127
1, 13296, Note_off_c, 1, 52, 0
1, 13296, Note_off_c, 1, 48, 0
1, 13320, Note_on_c, 1, 45, 127
1, 13392, Note_off_c, 1, 67, 0
1, 13392, Note_off_c, 1, 76, 0
1, 13416, Note_off_c, 1, 45, 0
1, 13440, Note_on_c, 1, 66, 127
1, 13440, Note_on_c, 1, 50, 127
1, 13560, Note_on_c, 1, 38, 127
1, 13632, Note_off_c, 1, 66, 0
1, 13656, Note_off_c, 1, 38, 0
1, 13776, Note_off_c, 1, 50, 0
1, 14160, Note_on_c, 1, 47, 127
1, 14352, Note_off_c, 1, 47, 0
1, 14640, Note_on_c, 1, 72, 127
1, 14640, Note_on_c, 1, 78, 127
1, 14640, Note_on_c, 1, 57, 127
1, 14640, Note_on_c, 1, 45, 127
1, 14736, Note_off_c, 1, 57, 0
1, 14760, Note_on_c, 1, 71, 127
1, 14760, Note_on_c, 1, 55, 127
1, 14832, Note_off_c, 1, 72, 0
1, 14832, Note_off_c, 1, 45, 0
1, 14856, Note_off_c, 1, 71, 0
1, 14856, Note_off_c, 1, 55, 0
1, 14880, Note_on_c, 1, 74, 127
1, 14880, Note_on_c, 1, 50, 127
1, 15000, Note_on_c, 1, 59, 127
1, 15024, Note_off_c, 1, 78, 0
1, 15072, Note_off_c, 1, 50, 0
1, 15096, Note_off_c, 1, 59, 0
1, 15120, Note_on_c, 1, 79, 127
1, 15216, Note_off_c, 1, 74, 0
1, 15240, Note_on_c, 1, 67, 127
1, 15336, Note_off_c, 1, 67, 0
1, 15360, Note_on_c, 1, 52, 127
1, 15408, Note_off_c, 1, 79, 0
1, 15552, Note_off_c, 1, 52, 0
1, 15600, Note_on_c, 1, 78, 127
1, 15600, Note_on_c, 1, 73, 127
1, 15600, Note_on_c, 1, 57, 127
1, 15696, Note_off_c, 1, 78, 0
1, 15720, Note_on_c, 1, 76, 127
1, 15792, Note_off_c, 1, 73, 0
1, 15792, Note_off_c, 1, 57, 0
1, 15816, Note_off_c, 1, 76, 0
1, 15840, Note_on_c, 1, 69, 127
1, 15840, Note_on_c, 1, 78, 127
1, 15840, Note_on_c, 1, 74, 127
1, 15840, Note_on_c, 1, 50, 127
1, 15960, Note_on_c, 1, 57, 127
1, 16032, Note_off_c, 1, 69, 0
1, 16032, Note_off_c, 1, 78, 0
1, 16032, Note_off_c, 1, 50, 0
1, 16056, Note_off_c, 1, 57, 0
1, 16080, Note_on_c, 1, 71, 127
1, 16080, Note_on_c, 1, 76, 127
1, 16080, Note_on_c, 1, 55, 127
1, 16080, Note_on_c, 1, 43, 127
1, 16128, Note_off_c, 1, 74, 0
1, 16176, Note_off_c, 1, 55, 0
1, 16200, Note_on_c, 1, 54, 127
1, 16272, Note_off_c, 1, 43, 0
1, 16296, Note_off_c, 1, 71, 0
1, 16296, Note_off_c, 1, 54, 0
1, 16320, Note_on_c, 1, 73, 127
1, 16320, Note_on_c, 1, 45, 127
1, 16320, Note_on_c, 1, 52, 127
1, 16434, Note_off_c, 1, 73, 0
1, 16440, Note_on_c, 1, 67, 127
1, 16464, Note_off_c, 1, 76, 0
1, 16512, Note_off_c, 1, 45, 0
1, 16512, Note_off_c, 1, 52, 0
1, 16536, Note_off_c, 1, 67, 0
1, 16560, Note_on_c, 1, 74, 127
1, 16560, Note_on_c, 1, 66, 127
1, 16560, Note_on_c, 1, 59, 127
1, 16560, Note_on_c, 1, 47, 127
1, 16656, Note_off_c, 1, 66, 0
1, 16656, Note_off_c, 1, 59, 0
1, 16680, Note_on_c, 1, 71, 127
1, 16680, Note_on_c, 1, 54, 127
1, 16752, Note_off_c, 1, 47, 0
1, 16776, Note_off_c, 1, 54, 0
1, 16800, Note_on_c, 1, 40, 127
1, 16800, Note_on_c, 1, 55, 127
1, 16848, Note_off_c, 1, 74, 0
1, 16896, Note_off_c, 1, 71, 0
1, 16896, Note_off_c, 1, 40, 0
1, 16896, Note_off_c, 1, 55, 0
1, 16920, Note_on_c, 1, 72, 127
1, 16920, Note_on_c, 1, 69, 127
1, 16920, Note_on_c, 1, 57, 127
1, 16920, Note_on_c, 1, 42, 127
1, 17016, Note_off_c, 1, 72, 0
1, 17016, Note_off_c, 1, 57, 0
1, 17016, Note_off_c, 1, 42, 0
1, 17040, Note_on_c, 1, 71, 127
1, 17040, Note_on_c, 1, 50, 127
1, 17040, Note_on_c, 1, 43, 127
1, 17136, Note_off_c, 1, 69, 0
1, 17160, Note_on_c, 1, 67, 127
1, 17232, Note_off_c, 1, 71, 0
1, 17232, Note_off_c, 1, 50, 0
1, 17232, Note_off_c, 1, 43, 0
1, 17280, Note_on_c, 1, 64, 127
1, 17280, Note_on_c, 1, 36, 127
1, 17400, Note_on_c, 1, 74, 127
1, 17448, Note_off_c, 1, 74, 0
1, 17460, Note_on_c, 1, 76, 127
1, 17472, Note_off_c, 1, 67, 0
1, 17472, Note_off_c, 1, 64, 0
1, 17472, Note_off_c, 1, 36, 0
1, 17508, Note_off_c, 1, 76, 0
1, 17520, Note_on_c, 1, 62, 127
1, 17520, Note_on_c, 1, 66, 127
1, 17520, Note_on_c, 1, 38, 127
1, 17712, Note_off_c, 1, 62, 0
1, 17760, Note_on_c, 1, 60, 127
1, 17904, Note_off_c, 1, 66, 0
1, 17904, Note_off_c, 1, 38, 0
1, 17952, Note_off_c, 1, 60, 0
1, 18000, Note_on_c, 1, 59, 127
1, 18096, Note_off_c, 1, 59, 0
1, 18120, Note_on_c, 1, 47, 127
1, 18216, Note_off_c, 1, 47, 0
1, 18240, Note_on_c, 1, 52, 127
1, 18240, Note_on_c, 1, 40, 127
1, 18336, Note_off_c, 1, 52, 0
1, 18360, Note_on_c, 1, 65, 127
1, 18360, Note_on_c, 1, 53, 127
1, 18432, Note_off_c, 1, 40, 0
1, 18456, Note_off_c, 1, 65, 0
1, 18456, Note_off_c, 1, 53, 0
1, 18480, Note_on_c, 1, 55, 127
1, 18480, Note_on_c, 1, 45, 127
1, 18576, Note_off_c, 1, 55, 0
1, 18600, Note_on_c, 1, 61, 127
1, 18672, Note_off_c, 1, 45, 0
1, 18696, Note_off_c, 1, 61, 0
1, 19200, Note_on_c, 1, 44, 127
1, 19392, Note_off_c, 1, 44, 0
1, 19680, Note_on_c, 1, 54, 127
1, 19776, Note_off_c, 1, 54, 0
1, 19800, Note_on_c, 1, 59, 127
1, 19800, Note_on_c, 1, 52, 127
1, 19800, Note_on_c, 1, 43, 127
1, 19896, Note_off_c, 1, 59, 0
1, 19896, Note_off_c, 1, 52, 0
1, 19896, Note_off_c, 1, 43, 0
1, 19920, Note_on_c, 1, 60, 127
1, 19920, Note_on_c, 1, 69, 127
1, 19920, Note_on_c, 1, 42, 127
1, 19920, Note_on_c, 1, 50, 127
1, 20016, Note_off_c, 1, 60, 0
1, 20040, Note_on_c, 1, 62, 127
1, 20112, Note_off_c, 1, 69, 0
1, 20112, Note_off_c, 1, 42, 0
1, 20136, Note_off_c, 1, 62, 0
1, 20160, Note_on_c, 1, 55, 127
1, 20160, Note_on_c, 1, 71, 127
1, 20160, Note_on_c, 1, 43, 127
1, 20256, Note_off_c, 1, 55, 0
1, 20280, Note_on_c, 1, 67, 127
1, 20352, Note_off_c, 1, 50, 0
1, 20352, Note_off_c, 1, 71, 0
1, 20352, Note_off_c, 1, 43, 0
1, 20400, Note_on_c, 1, 73, 127
1, 20400, Note_on_c, 1, 52, 127
1, 20400, Note_on_c, 1, 40, 127
1, 20496, Note_off_c, 1, 67, 0
1, 20496, Note_off_c, 1, 52, 0
1, 20520, Note_on_c, 1, 54, 127
1, 20616, Note_off_c, 1, 54, 0
1, 20760, Note_on_c, 1, 57, 127
1, 20784, Note_off_c, 1, 73, 0
1, 20784, Note_off_c, 1, 40, 0
1, 20856, Note_off_c, 1, 57, 0
1, 20880, Note_on_c, 1, 66, 127
1, 20880, Note_on_c, 1, 74, 127
1, 20880, Note_on_c, 1, 38, 127
1, 20880, Note_on_c, 1, 59, 127
1, 20976, Note_off_c, 1, 66, 0
1, 21000, Note_on_c, 1, 71, 127
1, 21072, Note_off_c, 1, 38, 0
1, 21120, Note_on_c, 1, 50, 127
1, 21168, Note_off_c, 1, 74, 0
1, 21168, Note_off_c, 1, 59, 0
1, 21216, Note_off_c, 1, 71, 0
1, 21240, Note_on_c, 1, 72, 127
1, 21240, Note_on_c, 1, 69, 127
1, 21240, Note_on_c, 1, 60, 127
1, 21312, Note_off_c, 1, 50, 0
1, 21336, Note_off_c, 1, 72, 0
1, 21336, Note_off_c, 1, 60, 0
1, 21360, Note_on_c, 1, 62, 127
1, 21360, Note_on_c, 1, 52, 127
1, 21456, Note_off_c, 1, 69, 0
1, 21456, Note_off_c, 1, 62, 0
1, 21480, Note_on_c, 1, 68, 127
1, 21480, Note_on_c, 1, 64, 127
1, 21552, Note_off_c, 1, 52, 0
1, 21576, Note_off_c, 1, 68, 0
1, 21600, Note_on_c, 1, 45, 127
1, 21696, Note_off_c, 1, 64, 0
1, 21696, Note_off_c, 1, 45, 0
1, 21720, Note_on_c, 1, 71, 127
1, 21720, Note_on_c, 1, 68, 127
1, 21720, Note_on_c, 1, 62, 127
1, 21720, Note_on_c, 1, 47, 127
1, 21816, Note_off_c, 1, 71, 0
1, 21816, Note_off_c, 1, 68, 0
1, 21816, Note_off_c, 1, 62, 0
1, 21816, Note_off_c, 1, 47, 0
1, 21840, Note_on_c, 1, 69, 127
1, 21840, Note_on_c, 1, 48, 127
1, 21840, Note_on_c, 1, 64, 127
1, 21960, Note_on_c, 1, 67, 127
1, 22032, Note_off_c, 1, 48, 0
1, 22032, Note_off_c, 1, 64, 0
1, 22056, Note_off_c, 1, 67, 0
1, 22080, Note_on_c, 1, 66, 127
1, 22080, Note_on_c, 1, 62, 127
1, 22080, Note_on_c, 1, 50, 127
1, 22176, Note_off_c, 1, 62, 0
1, 22200, Note_on_c, 1, 60, 127
1, 22224, Note_off_c, 1, 69, 0
1, 22272, Note_off_c, 1, 66, 0
1, 22272, Note_off_c, 1, 50, 0
1, 22296, Note_off_c, 1, 60, 0
1, 22320, Note_on_c, 1, 67, 127
1, 22320, Note_on_c, 1, 59, 127
1, 22320, Note_on_c, 1, 43, 127
1, 22440, Note_on_c, 1, 62, 127
1, 22512, Note_off_c, 1, 59, 0
1, 22512, Note_off_c, 1, 43, 0
1, 22536, Note_off_c, 1, 62, 0
1, 22560, Note_on_c, 1, 64, 127
1, 22560, Note_on_c, 1, 36, 127
1, 22680, Note_on_c, 1, 60, 127
1, 22704, Note_off_c, 1, 67, 0
1, 22752, Note_off_c, 1, 64, 0
1, 22752, Note_off_c, 1, 36, 0
1, 22776, Note_off_c, 1, 60, 0
1, 22800, Note_on_c, 1, 62, 127
1, 22800, Note_on_c, 1, 59, 127
1, 22800, Note_on_c, 1, 38, 127
1, 22896, Note_off_c, 1, 62, 0
1, 22896, Note_off_c, 1, 59, 0
1, 22920, Note_on_c, 1, 60, 127
1, 22920, Note_on_c, 1, 57, 127
1, 22992, Note_off_c, 1, 38, 0
1, 23016, Note_off_c, 1, 60, 0
1, 23016, Note_off_c, 1, 57, 0
1, 23040, Note_on_c, 1, 59, 127
1, 23040, Note_on_c, 1, 74, 127
1, 23040, Note_on_c, 1, 55, 127
1, 23040, Note_on_c, 1, 43, 127
1, 23136, Note_off_c, 1, 59, 0
1, 23160, Note_on_c, 1, 71, 127
1, 23232, Note_off_c, 1, 74, 0
1, 23232, Note_off_c, 1, 55, 0
1, 23280, Note_on_c, 1, 76, 127
1, 23376, Note_off_c, 1, 71, 0
1, 23400, Note_on_c, 1, 72, 127
1, 23472, Note_off_c, 1, 76, 0
1, 23496, Note_off_c, 1, 72, 0
1, 23520, Note_on_c, 1, 54, 127
1, 23616, Note_off_c, 1, 54, 0
1, 23640, Note_on_c, 1, 69, 127
1, 23640, Note_on_c, 1, 52, 127
1, 23736, Note_off_c, 1, 69, 0
1, 23736, Note_off_c, 1, 52, 0
1, 23760, Note_on_c, 1, 67, 127
1, 23760, Note_on_c, 1, 50, 127
1, 23856, Note_off_c, 1, 50, 0
1, 24120, Note_on_c, 1, 48, 127
1, 24144, Note_off_c, 1, 67, 0
1, 24216, Note_off_c, 1, 48, 0
1, 24240, Note_on_c, 1, 62, 127
1, 24240, Note_on_c, 1, 47, 127
1, 24336, Note_off_c, 1, 62, 0
1, 24432, Note_off_c, 1, 47, 0
1, 24480, Note_on_c, 1, 64, 127
1, 24672, Note_off_c, 1, 64, 0
1, 24720, Note_on_c, 1, 66, 127
1, 25104, Note_off_c, 1, 66, 0
1, 25392, Note_off_c, 1, 43, 0
1, 26160, Note_on_c, 1, 73, 127
1, 26160, Note_on_c, 1, 64, 127
1, 26160, Note_on_c, 1, 45, 127
1, 26280, Note_on_c, 1, 59, 127
1, 26376, Note_off_c, 1, 59, 0
1, 26400, Note_on_c, 1, 57, 127
1, 26496, Note_off_c, 1, 57, 0
1, 26520, Note_on_c, 1, 55, 127
1, 26544, Note_off_c, 1, 73, 0
1, 26544, Note_off_c, 1, 64, 0
1, 26544, Note_off_c, 1, 45, 0
1, 26616, Note_off_c, 1, 55, 0
1, 26640, Note_on_c, 1, 62, 127
1, 26640, Note_on_c, 1, 74, 127
1, 26640, Note_on_c, 1, 54, 127
1, 26640, Note_on_c, 1, 38, 127
1, 26736, Note_off_c, 1, 54, 0
1, 26760, Note_on_c, 1, 52, 127
1, 26832, Note_off_c, 1, 62, 0
1, 26856, Note_off_c, 1, 52, 0
1, 26880, Note_on_c, 1, 66, 127
1, 26880, Note_on_c, 1, 50, 127
1, 26928, Note_off_c, 1, 74, 0
1, 27000, Note_on_c, 1, 72, 127
1, 27024, Note_off_c, 1, 38, 0
1, 27072, Note_off_c, 1, 66, 0
1, 27072, Note_off_c, 1, 50, 0
1, 27096, Note_off_c, 1, 72, 0
1, 27120, Note_on_c, 1, 71, 127
1, 27120, Note_on_c, 1, 68, 127
1, 27120, Note_on_c, 1, 52, 127
1, 27312, Note_off_c, 1, 71, 0
1, 27312, Note_off_c, 1, 68, 0
1, 27360, Note_on_c, 1, 72, 127
1, 27360, Note_on_c, 1, 45, 127
1, 27473, Note_off_c, 1, 52, 0
1, 27480, Note_on_c, 1, 57, 127
1, 27552, Note_off_c, 1, 72, 0
1, 27552, Note_off_c, 1, 45, 0
1, 27600, Note_on_c, 1, 69, 127
1, 27600, Note_on_c, 1, 49, 127
1, 27696, Note_off_c, 1, 57, 0
1, 27720, Note_on_c, 1, 67, 127
1, 27792, Note_off_c, 1, 49, 0
1, 27816, Note_off_c, 1, 67, 0
1, 27840, Note_on_c, 1, 66, 127
1, 27840, Note_on_c, 1, 59, 127
1, 27840, Note_on_c, 1, 51, 127
1, 27936, Note_off_c, 1, 59, 0
1, 27960, Note_on_c, 1, 60, 127
1, 27984, Note_off_c, 1, 69, 0
1, 28032, Note_off_c, 1, 51, 0
1, 28056, Note_off_c, 1, 60, 0
1, 28176, Note_off_c, 1, 66, 0
1, 28200, Note_on_c, 1, 64, 127
1, 28248, Note_off_c, 1, 64, 0
1, 28440, Note_on_c, 1, 55, 127
1, 28536, Note_off_c, 1, 55, 0
1, 28560, Note_on_c, 1, 73, 127
1, 28560, Note_on_c, 1, 69, 127
1, 28560, Note_on_c, 1, 53, 127
1, 28560, Note_on_c, 1, 45, 127
1, 28656, Note_off_c, 1, 69, 0
1, 28656, Note_off_c, 1, 53, 0
1, 28680, Note_on_c, 1, 67, 127
1, 28680, Note_on_c, 1, 52, 127
1, 28752, Note_off_c, 1, 73, 0
1, 28752, Note_off_c, 1, 45, 0
1, 28776, Note_off_c, 1, 67, 0
1, 28776, Note_off_c, 1, 52, 0
1, 28800, Note_on_c, 1, 74, 127
1, 28800, Note_on_c, 1, 66, 127
1, 28800, Note_on_c, 1, 38, 127
1, 28800, Note_on_c, 1, 50, 127
1, 28992, Note_off_c, 1, 38, 0
1, 28992, Note_off_c, 1, 50, 0
1, 29088, Note_off_c, 1, 74, 0
1, 29088, Note_off_c, 1, 66, 0
1, 29160, Note_on_c, 1, 73, 127
1, 29160, Note_on_c, 1, 67, 127
1, 29160, Note_on_c, 1, 59, 127
1, 29208, Note_off_c, 1, 73, 0
1, 29220, Note_on_c, 1, 71, 127
1, 29256, Note_off_c, 1, 67, 0
1, 29256, Note_off_c, 1, 59, 0
1, 29268, Note_off_c, 1, 71, 0
1, 29280, Note_on_c, 1, 76, 127
1, 29280, Note_on_c, 1, 69, 127
1, 29280, Note_on_c, 1, 57, 127
1, 29280, Note_on_c, 1, 49, 127
1, 29376, Note_off_c, 1, 57, 0
1, 29400, Note_on_c, 1, 55, 127
1, 29472, Note_off_c, 1, 76, 0
1, 29472, Note_off_c, 1, 49, 0
1, 29496, Note_off_c, 1, 55, 0
1, 29520, Note_on_c, 1, 71, 127
1, 29520, Note_on_c, 1, 54, 127
1, 29520, Note_on_c, 1, 50, 127
1, 29568, Note_off_c, 1, 71, 0
1, 29580, Note_on_c, 1, 73, 127
1, 29628, Note_off_c, 1, 73, 0
1, 29712, Note_off_c, 1, 69, 0
1, 29712, Note_off_c, 1, 54, 0
1, 29712, Note_off_c, 1, 50, 0
1, 29760, Note_on_c, 1, 73, 127
1, 29760, Note_on_c, 1, 74, 127
1, 29760, Note_on_c, 1, 67, 127
1, 29760, Note_on_c, 1, 52, 127
1, 29784, Note_off_c, 1, 74, 0
1, 29856, Note_off_c, 1, 67, 0
1, 29880, Note_on_c, 1, 71, 127
1, 29880, Note_on_c, 1, 55, 127
1, 29952, Note_off_c, 1, 52, 0
1, 29976, Note_off_c, 1, 71, 0
1, 29976, Note_off_c, 1, 55, 0
1, 30000, Note_on_c, 1, 69, 127
1, 30000, Note_on_c, 1, 54, 127
1, 30000, Note_on_c, 1, 45, 127
1, 30096, Note_off_c, 1, 69, 0
1, 30096, Note_off_c, 1, 54, 0
1, 30144, Note_off_c, 1, 73, 0
1, 30192, Note_off_c, 1, 45, 0
1, 30240, Note_on_c, 1, 74, 127
1, 30240, Note_on_c, 1, 66, 127
1, 30240, Note_on_c, 1, 50, 127
1, 30336, Note_off_c, 1, 66, 0
1, 30360, Note_on_c, 1, 69, 127
1, 30432, Note_off_c, 1, 74, 0
1, 30432, Note_off_c, 1, 50, 0
1, 30480, Note_on_c, 1, 49, 127
1, 30576, Note_off_c, 1, 69, 0
1, 30600, Note_on_c, 1, 67, 127
1, 30672, Note_off_c, 1, 49, 0
1, 30720, Note_on_c, 1, 81, 127
1, 30816, Note_off_c, 1, 67, 0
1, 30912, Note_off_c, 1, 81, 0
1, 30960, Note_on_c, 1, 83, 127
1, 30960, Note_on_c, 1, 55, 127
1, 31080, Note_on_c, 1, 64, 127
1, 31080, Note_on_c, 1, 40, 127
1, 31152, Note_off_c, 1, 83, 0
1, 31152, Note_off_c, 1, 55, 0
1, 31176, Note_off_c, 1, 40, 0
1, 31200, Note_on_c, 1, 42, 127
1, 31200, Note_on_c, 1, 54, 127
1, 31296, Note_off_c, 1, 64, 0
1, 31296, Note_off_c, 1, 42, 0
1, 31320, Note_on_c, 1, 62, 127
1, 31320, Note_on_c, 1, 43, 127
1, 31392, Note_off_c, 1, 54, 0
1, 31416, Note_off_c, 1, 43, 0
1, 31440, Note_on_c, 1, 79, 127
1, 31440, Note_on_c, 1, 45, 127
1, 31440, Note_on_c, 1, 52, 127
1, 31536, Note_off_c, 1, 62, 0
1, 31560, Note_on_c, 1, 61, 127
1, 31632, Note_off_c, 1, 79, 0
1, 31632, Note_off_c, 1, 45, 0
1, 31632, Note_off_c, 1, 52, 0
1, 31656, Note_off_c, 1, 61, 0
1, 31680, Note_on_c, 1, 62, 127
1, 31680, Note_on_c, 1, 78, 127
1, 31680, Note_on_c, 1, 50, 127
1, 31680, Note_on_c, 1, 47, 127
1, 31776, Note_off_c, 1, 62, 0
1, 31800, Note_on_c, 1, 74, 127
1, 31872, Note_off_c, 1, 50, 0
1, 31920, Note_on_c, 1, 52, 127
1, 31968, Note_off_c, 1, 78, 0
1, 32016, Note_off_c, 1, 74, 0
1, 32040, Note_on_c, 1, 72, 127
1, 32040, Note_on_c, 1, 79, 127
1, 32064, Note_off_c, 1, 47, 0
1, 32112, Note_off_c, 1, 52, 0
1, 32136, Note_off_c, 1, 72, 0
1, 32136, Note_off_c, 1, 79, 0
1, 32160, Note_on_c, 1, 71, 127
1, 32160, Note_on_c, 1, 81, 127
1, 32160, Note_on_c, 1, 45, 127
1, 32160, Note_on_c, 1, 54, 127
1, 32256, Note_off_c, 1, 71, 0
1, 32280, Note_on_c, 1, 69, 127
1, 32352, Note_off_c, 1, 81, 0
1, 32352, Note_off_c, 1, 45, 0
1, 32352, Note_off_c, 1, 54, 0
1, 32376, Note_off_c, 1, 69, 0
1, 32400, Note_on_c, 1, 71, 127
1, 32400, Note_on_c, 1, 74, 127
1, 32400, Note_on_c, 1, 43, 127
1, 32400, Note_on_c, 1, 55, 127
1, 32592, Note_off_c, 1, 74, 0
1, 32592, Note_off_c, 1, 43, 0
1, 32640, Note_on_c, 1, 79, 127
1, 32640, Note_on_c, 1, 47, 127
1, 32736, Note_off_c, 1, 79, 0
1, 32760, Note_on_c, 1, 78, 127
1, 32784, Note_off_c, 1, 71, 0
1, 32784, Note_off_c, 1, 55, 0
1, 32832, Note_off_c, 1, 47, 0
1, 32856, Note_off_c, 1, 78, 0
1, 32880, Note_on_c, 1, 76, 127
1, 32880, Note_on_c, 1, 79, 127
1, 32880, Note_on_c, 1, 69, 127
1, 32880, Note_on_c, 1, 49, 127
1, 32880, Note_on_c, 1, 52, 127
1, 32976, Note_off_c, 1, 79, 0
1, 33000, Note_on_c, 1, 81, 127
1, 33072, Note_off_c, 1, 76, 0
1, 33072, Note_off_c, 1, 49, 0
1, 33072, Note_off_c, 1, 52, 0
1, 33096, Note_off_c, 1, 81, 0
1, 33120, Note_on_c, 1, 74, 127
1, 33120, Note_on_c, 1, 78, 127
1, 33120, Note_on_c, 1, 50, 127
1, 33120, Note_on_c, 1, 54, 127
1, 33216, Note_off_c, 1, 78, 0
1, 33312, Note_off_c, 1, 69, 0
1, 33312, Note_off_c, 1, 50, 0
1, 33312, Note_off_c, 1, 54, 0
1, 33360, Note_on_c, 1, 59, 127
1, 33360, Note_on_c, 1, 47, 127
1, 33456, Note_off_c, 1, 59, 0
1, 33480, Note_on_c, 1, 57, 127
1, 33504, Note_off_c, 1, 74, 0
1, 33552, Note_off_c, 1, 47, 0
1, 33576, Note_off_c, 1, 57, 0
1, 33600, Note_on_c, 1, 71, 127
1, 33600, Note_on_c, 1, 80, 127
1, 33600, Note_on_c, 1, 59, 127
1, 33600, Note_on_c, 1, 52, 127
1, 33696, Note_off_c, 1, 59, 0
1, 33720, Note_on_c, 1, 60, 127
1, 33792, Note_off_c, 1, 71, 0
1, 33792, Note_off_c, 1, 80, 0
1, 33792, Note_off_c, 1, 52, 0
1, 33816, Note_off_c, 1, 60, 0
1, 33840, Note_on_c, 1, 72, 127
1, 33840, Note_on_c, 1, 81, 127
1, 33840, Note_on_c, 1, 45, 127
1, 33840, Note_on_c, 1, 57, 127
1, 33960, Note_on_c, 1, 78, 127
1, 34032, Note_off_c, 1, 45, 0
1, 34080, Note_on_c, 1, 47, 127
1, 34128, Note_off_c, 1, 81, 0
1, 34152, Note_off_c, 1, 78, 0
1, 34200, Note_on_c, 1, 79, 127
1, 34200, Note_on_c, 1, 76, 127
1, 34272, Note_off_c, 1, 47, 0
1, 34296, Note_off_c, 1, 79, 0
1, 34320, Note_on_c, 1, 48, 127
1, 34392, Note_off_c, 1, 76, 0
1, 34416, Note_off_c, 1, 72, 0
1, 34416, Note_off_c, 1, 57, 0
1, 34440, Note_on_c, 1, 75, 127
1, 34512, Note_off_c, 1, 48, 0
1, 34536, Note_off_c, 1, 75, 0
1, 34560, Note_on_c, 1, 71, 127
1, 34560, Note_on_c, 1, 79, 127
1, 34560, Note_on_c, 1, 76, 127
1, 34560, Note_on_c, 1, 59, 127
1, 34560, Note_on_c, 1, 43, 127
1, 34656, Note_off_c, 1, 79, 0
1, 34680, Note_on_c, 1, 81, 127
1, 34752, Note_off_c, 1, 59, 0
1, 34752, Note_off_c, 1, 43, 0
1, 34776, Note_off_c, 1, 81, 0
1, 34800, Note_on_c, 1, 78, 127
1, 34800, Note_on_c, 1, 47, 127
1, 34920, Note_on_c, 1, 60, 127
1, 34944, Note_off_c, 1, 76, 0
1, 35016, Note_off_c, 1, 60, 0
1, 35040, Note_on_c, 1, 74, 127
1, 35160, Note_on_c, 1, 57, 127
1, 35184, Note_off_c, 1, 78, 0
1, 35184, Note_off_c, 1, 47, 0
1, 35232, Note_off_c, 1, 74, 0
1, 35256, Note_off_c, 1, 57, 0
1, 35280, Note_on_c, 1, 56, 127
1, 35280, Note_on_c, 1, 40, 127
1, 35400, Note_on_c, 1, 68, 127
1, 35472, Note_off_c, 1, 71, 0
1, 35472, Note_off_c, 1, 56, 0
1, 35472, Note_off_c, 1, 40, 0
1, 35496, Note_off_c, 1, 68, 0
1, 35520, Note_on_c, 1, 69, 127
1, 35520, Note_on_c, 1, 42, 127
1, 35712, Note_off_c, 1, 69, 0
1, 35712, Note_off_c, 1, 42, 0
1, 35760, Note_on_c, 1, 44, 127
1, 35880, Note_on_c, 1, 73, 127
1, 35952, Note_off_c, 1, 44, 0
1, 35976, Note_off_c, 1, 73, 0
1, 36000, Note_on_c, 1, 45, 127
1, 36120, Note_on_c, 1, 52, 127
1, 36216, Note_off_c, 1, 52, 0
1, 36240, Note_on_c, 1, 54, 127
1, 36288, Note_off_c, 1, 45, 0
1, 36336, Note_off_c, 1, 54, 0
1, 36360, Note_on_c, 1, 75, 127
1, 36360, Note_on_c, 1, 55, 127
1, 36408, Note_off_c, 1, 75, 0
1, 36456, Note_off_c, 1, 55, 0
1, 36660, Note_on_c, 1, 72, 127
1, 36708, Note_off_c, 1, 72, 0
1, 36720, Note_on_c, 1, 71, 127
1, 36720, Note_on_c, 1, 76, 127
1, 36720, Note_on_c, 1, 43, 127
1, 36840, Note_on_c, 1, 59, 127
1, 36912, Note_off_c, 1, 71, 0
1, 36912, Note_off_c, 1, 43, 0
1, 36936, Note_off_c, 1, 59, 0
1, 36960, Note_on_c, 1, 72, 127
1, 36960, Note_on_c, 1, 57, 127
1, 36960, Note_on_c, 1, 42, 127
1, 37008, Note_off_c, 1, 76, 0
1, 37056, Note_off_c, 1, 57, 0
1, 37080, Note_on_c, 1, 81, 127
1, 37080, Note_on_c, 1, 55, 127
1, 37128, Note_off_c, 1, 81, 0
1, 37140, Note_on_c, 1, 78, 127
1, 37152, Note_off_c, 1, 72, 0
1, 37176, Note_off_c, 1, 55, 0
1, 37188, Note_off_c, 1, 78, 0
1, 37200, Note_on_c, 1, 75, 127
1, 37200, Note_on_c, 1, 54, 127
1, 37320, Note_on_c, 1, 69, 127
1, 37344, Note_off_c, 1, 42, 0
1, 37392, Note_off_c, 1, 75, 0
1, 37392, Note_off_c, 1, 54, 0
1, 37416, Note_off_c, 1, 69, 0
1, 37440, Note_on_c, 1, 76, 127
1, 37440, Note_on_c, 1, 68, 127
1, 37440, Note_on_c, 1, 40, 127
1, 37560, Note_on_c, 1, 60, 127
1, 37632, Note_off_c, 1, 76, 0
1, 37656, Note_off_c, 1, 60, 0
1, 37680, Note_on_c, 1, 77, 127
1, 37680, Note_on_c, 1, 59, 127
1, 37728, Note_off_c, 1, 68, 0
1, 37776, Note_off_c, 1, 59, 0
1, 37800, Note_on_c, 1, 69, 127
1, 37800, Note_on_c, 1, 57, 127
1, 37872, Note_off_c, 1, 77, 0
1, 37896, Note_off_c, 1, 69, 0
1, 37896, Note_off_c, 1, 57, 0
1, 37920, Note_on_c, 1, 71, 127
1, 37920, Note_on_c, 1, 56, 127
1, 38016, Note_off_c, 1, 40, 0
1, 38040, Note_on_c, 1, 74, 127
1, 38112, Note_off_c, 1, 56, 0
1, 38136, Note_off_c, 1, 74, 0
1, 38160, Note_on_c, 1, 73, 127
1, 38160, Note_on_c, 1, 45, 127
1, 38280, Note_on_c, 1, 53, 127
1, 38376, Note_off_c, 1, 53, 0
1, 38385, Note_off_c, 1, 71, 0
1, 38400, Note_on_c, 1, 52, 127
1, 38448, Note_off_c, 1, 73, 0
1, 38496, Note_off_c, 1, 52, 0
1, 38520, Note_on_c, 1, 65, 127
1, 38520, Note_on_c, 1, 50, 127
1, 38616, Note_off_c, 1, 65, 0
1, 38616, Note_off_c, 1, 50, 0
1, 38640, Note_on_c, 1, 67, 127
1, 38640, Note_on_c, 1, 49, 127
1, 38736, Note_off_c, 1, 45, 0
1, 38736, Note_off_c, 1, 67, 0
1, 38832, Note_off_c, 1, 49, 0
1, 39000, Note_on_c, 1, 48, 127
1, 39096, Note_off_c, 1, 48, 0
1, 39120, Note_on_c, 1, 74, 127
1, 39120, Note_on_c, 1, 69, 127
1, 39120, Note_on_c, 1, 47, 127
1, 39216, Note_off_c, 1, 74, 0
1, 39240, Note_on_c, 1, 72, 127
1, 39312, Note_off_c, 1, 69, 0
1, 39312, Note_off_c, 1, 47, 0
1, 39336, Note_off_c, 1, 72, 0
1, 39360, Note_on_c, 1, 74, 127
1, 39360, Note_on_c, 1, 68, 127
1, 39360, Note_on_c, 1, 52, 127
1, 39360, Note_on_c, 1, 59, 127
1, 39456, Note_off_c, 1, 74, 0
1, 39480, Note_on_c, 1, 76, 127
1, 39552, Note_off_c, 1, 68, 0
1, 39552, Note_off_c, 1, 52, 0
1, 39576, Note_off_c, 1, 76, 0
1, 39600, Note_on_c, 1, 72, 127
1, 39600, Note_on_c, 1, 64, 127
1, 39600, Note_on_c, 1, 45, 127
1, 39696, Note_off_c, 1, 59, 0
1, 39696, Note_off_c, 1, 72, 0
1, 39720, Note_on_c, 1, 73, 127
1, 39720, Note_on_c, 1, 57, 127
1, 39792, Note_off_c, 1, 45, 0
1, 39816, Note_off_c, 1, 57, 0
1, 39840, Note_on_c, 1, 55, 127
1, 39840, Note_on_c, 1, 47, 127
1, 39888, Note_off_c, 1, 64, 0
1, 39936, Note_off_c, 1, 73, 0
1, 39936, Note_off_c, 1, 55, 0
1, 39960, Note_on_c, 1, 65, 127
1, 39960, Note_on_c, 1, 53, 127
1, 40032, Note_off_c, 1, 47, 0
1, 40056, Note_off_c, 1, 65, 0
1, 40056, Note_off_c, 1, 53, 0
1, 40080, Note_on_c, 1, 76, 127
1, 40080, Note_on_c, 1, 67, 127
1, 40080, Note_on_c, 1, 52, 127
1, 40080, Note_on_c, 1, 49, 127
1, 40176, Note_off_c, 1, 52, 0
1, 40200, Note_on_c, 1, 57, 127
1, 40272, Note_off_c, 1, 49, 0
1, 40320, Note_on_c, 1, 69, 127
1, 40320, Note_on_c, 1, 50, 127
1, 40416, Note_off_c, 1, 57, 0
1, 40440, Note_on_c, 1, 55, 127
1, 40512, Note_off_c, 1, 76, 0
1, 40512, Note_off_c, 1, 67, 0
1, 40536, Note_off_c, 1, 55, 0
1, 40560, Note_on_c, 1, 65, 127
1, 40560, Note_on_c, 1, 74, 127
1, 40608, Note_off_c, 1, 50, 0
1, 40656, Note_off_c, 1, 65, 0
1, 40680, Note_on_c, 1, 64, 127
1, 40680, Note_on_c, 1, 48, 127
1, 40704, Note_off_c, 1, 69, 0
1, 40752, Note_off_c, 1, 74, 0
1, 40776, Note_off_c, 1, 64, 0
1, 40776, Note_off_c, 1, 48, 0
1, 40800, Note_on_c, 1, 74, 127
1, 40800, Note_on_c, 1, 65, 127
1, 40800, Note_on_c, 1, 56, 127
1, 40800, Note_on_c, 1, 47, 127
1, 40896, Note_off_c, 1, 65, 0
1, 40920, Note_on_c, 1, 62, 127
1, 40992, Note_off_c, 1, 74, 0
1, 40992, Note_off_c, 1, 56, 0
1, 40992, Note_off_c, 1, 47, 0
1, 41016, Note_off_c, 1, 62, 0
1, 41040, Note_on_c, 1, 72, 127
1, 41040, Note_on_c, 1, 64, 127
1, 41040, Note_on_c, 1, 76, 127
1, 41040, Note_on_c, 1, 57, 127
1, 41040, Note_on_c, 1, 48, 127
1, 41136, Note_off_c, 1, 64, 0
1, 41136, Note_off_c, 1, 57, 0
1, 41160, Note_on_c, 1, 69, 127
1, 41232, Note_off_c, 1, 72, 0
1, 41232, Note_off_c, 1, 76, 0
1, 41232, Note_off_c, 1, 48, 0
1, 41280, Note_on_c, 1, 71, 127
1, 41280, Note_on_c, 1, 77, 127
1, 41280, Note_on_c, 1, 62, 127
1, 41280, Note_on_c, 1, 50, 127
1, 41376, Note_off_c, 1, 69, 0
1, 41376, Note_off_c, 1, 62, 0
1, 41400, Note_on_c, 1, 60, 127
1, 41472, Note_off_c, 1, 77, 0
1, 41472, Note_off_c, 1, 50, 0
1, 41496, Note_off_c, 1, 60, 0
1, 41520, Note_on_c, 1, 68, 127
1, 41520, Note_on_c, 1, 59, 127
1, 41520, Note_on_c, 1, 52, 127
1, 41616, Note_off_c, 1, 71, 0
1, 41616, Note_off_c, 1, 59, 0
1, 41640, Note_on_c, 1, 74, 127
1, 41712, Note_off_c, 1, 68, 0
1, 41712, Note_off_c, 1, 52, 0
1, 41736, Note_off_c, 1, 74, 0
1, 41760, Note_on_c, 1, 45, 127
1, 42048, Note_off_c, 1, 45, 0
1, 42120, Note_on_c, 1, 67, 127
1, 42120, Note_on_c, 1, 47, 127
1, 42216, Note_off_c, 1, 67, 0
1, 42216, Note_off_c, 1, 47, 0
1, 42240, Note_on_c, 1, 65, 127
1, 42240, Note_on_c, 1, 49, 127
1, 42336, Note_off_c, 1, 65, 0
1, 42432, Note_off_c, 1, 49, 0
1, 42480, Note_on_c, 1, 66, 127
1, 42672, Note_off_c, 1, 66, 0
1, 42720, Note_on_c, 1, 74, 127
1, 42720, Note_on_c, 1, 68, 127
1, 42720, Note_on_c, 1, 47, 127
1, 42720, Note_on_c, 1, 59, 127
1, 42816, Note_off_c, 1, 74, 0
1, 42840, Note_on_c, 1, 72, 127
1, 42912, Note_off_c, 1, 47, 0
1, 42936, Note_off_c, 1, 72, 0
1, 42960, Note_on_c, 1, 52, 127
1, 43080, Note_on_c, 1, 76, 127
1, 43104, Note_off_c, 1, 68, 0
1, 43104, Note_off_c, 1, 59, 0
1, 43152, Note_off_c, 1, 52, 0
1, 43176, Note_off_c, 1, 76, 0
1, 43200, Note_on_c, 1, 72, 127
1, 43200, Note_on_c, 1, 69, 127
1, 43200, Note_on_c, 1, 45, 127
1, 43200, Note_on_c, 1, 57, 127
1, 43296, Note_off_c, 1, 45, 0
1, 43320, Note_on_c, 1, 43, 127
1, 43392, Note_off_c, 1, 72, 0
1, 43392, Note_off_c, 1, 57, 0
1, 43416, Note_off_c, 1, 43, 0
1, 43440, Note_on_c, 1, 41, 127
1, 43440, Note_on_c, 1, 60, 127
1, 43488, Note_off_c, 1, 69, 0
1, 43632, Note_off_c, 1, 41, 0
1, 43632, Note_off_c, 1, 60, 0
1, 43680, Note_on_c, 1, 67, 127
1, 43680, Note_on_c, 1, 59, 127
1, 43680, Note_on_c, 1, 38, 127
1, 43776, Note_off_c, 1, 67, 0
1, 43776, Note_off_c, 1, 59, 0
1, 43800, Note_on_c, 1, 66, 127
1, 43800, Note_on_c, 1, 57, 127
1, 43872, Note_off_c, 1, 38, 0
1, 43896, Note_off_c, 1, 66, 0
1, 43896, Note_off_c, 1, 57, 0
1, 43920, Note_on_c, 1, 71, 127
1, 43920, Note_on_c, 1, 67, 127
1, 43920, Note_on_c, 1, 55, 127
1, 43920, Note_on_c, 1, 40, 127
1, 44112, Note_off_c, 1, 71, 0
1, 44112, Note_off_c, 1, 67, 0
1, 44112, Note_off_c, 1, 55, 0
1, 44112, Note_off_c, 1, 40, 0
1, 44160, Note_on_c, 1, 72, 127
1, 44160, Note_on_c, 1, 66, 127
1, 44160, Note_on_c, 1, 57, 127
1, 44160, Note_on_c, 1, 38, 127
1, 44352, Note_off_c, 1, 72, 0
1, 44352, Note_off_c, 1, 57, 0
1, 44400, Note_on_c, 1, 74, 127
1, 44400, Note_on_c, 1, 59, 127
1, 44544, Note_off_c, 1, 66, 0
1, 44544, Note_off_c, 1, 38, 0
1, 44592, Note_off_c, 1, 74, 0
1, 44640, Note_on_c, 1, 68, 127
1, 44640, Note_on_c, 1, 76, 127
1, 44640, Note_on_c, 1, 36, 127
1, 44736, Note_off_c, 1, 68, 0
1, 44760, Note_on_c, 1, 64, 127
1, 44832, Note_off_c, 1, 59, 0
1, 44832, Note_off_c, 1, 76, 0
1, 44856, Note_off_c, 1, 64, 0
1, 45000, Note_on_c, 1, 71, 127
1, 45000, Note_on_c, 1, 56, 127
1, 45096, Note_off_c, 1, 56, 0
1, 45216, Note_off_c, 1, 71, 0
1, 45240, Note_on_c, 1, 55, 127
1, 45336, Note_off_c, 1, 55, 0
1, 45360, Note_on_c, 1, 69, 127
1, 45360, Note_on_c, 1, 53, 127
1, 45456, Note_off_c, 1, 36, 0
1, 45456, Note_off_c, 1, 53, 0
1, 45480, Note_on_c, 1, 48, 127
1, 45480, Note_on_c, 1, 52, 127
1, 45576, Note_off_c, 1, 48, 0
1, 45576, Note_off_c, 1, 52, 0
1, 45600, Note_on_c, 1, 50, 127
1, 45648, Note_off_c, 1, 69, 0
1, 45696, Note_off_c, 1, 50, 0
1, 45720, Note_on_c, 1, 47, 127
1, 45816, Note_off_c, 1, 47, 0
1, 45960, Note_on_c, 1, 40, 127
1, 46056, Note_off_c, 1, 40, 0
1, 46080, Note_on_c, 1, 69, 127
1, 46080, Note_on_c, 1, 48, 127
1, 46080, Note_on_c, 1, 45, 127
1, 46200, Note_on_c, 1, 76, 127
1, 46272, Note_off_c, 1, 69, 0
1, 46272, Note_off_c, 1, 48, 0
1, 46272, Note_off_c, 1, 45, 0
1, 46296, Note_off_c, 1, 76, 0
1, 46320, Note_on_c, 1, 76, 127
1, 46320, Note_on_c, 1, 72, 127
1, 46320, Note_on_c, 1, 40, 127
1, 46320, Note_on_c, 1, 52, 127
1, 46416, Note_off_c, 1, 76, 0
1, 46440, Note_on_c, 1, 79, 127
1, 46512, Note_off_c, 1, 40, 0
1, 46512, Note_off_c, 1, 52, 0
1, 46536, Note_off_c, 1, 79, 0
1, 46560, Note_on_c, 1, 81, 127
1, 46560, Note_on_c, 1, 42, 127
1, 46560, Note_on_c, 1, 50, 127
1, 46680, Note_on_c, 1, 69, 127
1, 46752, Note_off_c, 1, 72, 0
1, 46752, Note_off_c, 1, 81, 0
1, 46752, Note_off_c, 1, 42, 0
1, 46752, Note_off_c, 1, 50, 0
1, 46776, Note_off_c, 1, 69, 0
1, 46800, Note_on_c, 1, 71, 127
1, 46800, Note_on_c, 1, 67, 127
1, 46800, Note_on_c, 1, 74, 127
1, 46800, Note_on_c, 1, 43, 127
1, 46800, Note_on_c, 1, 55, 127
1, 46896, Note_off_c, 1, 67, 0
1, 46992, Note_off_c, 1, 74, 0
1, 46992, Note_off_c, 1, 43, 0
1, 47040, Note_on_c, 1, 72, 127
1, 47040, Note_on_c, 1, 76, 127
1, 47040, Note_on_c, 1, 36, 127
1, 47136, Note_off_c, 1, 72, 0
1, 47184, Note_off_c, 1, 71, 0
1, 47184, Note_off_c, 1, 55, 0
1, 47232, Note_off_c, 1, 76, 0
1, 47232, Note_off_c, 1, 36, 0
1, 47280, Note_on_c, 1, 69, 127
1, 47280, Note_on_c, 1, 38, 127
1, 47280, Note_on_c, 1, 62, 127
1, 47400, Note_on_c, 1, 66, 127
1, 47472, Note_off_c, 1, 69, 0
1, 47472, Note_off_c, 1, 38, 0
1, 47496, Note_off_c, 1, 66, 0
1, 47640, Note_on_c, 1, 41, 127
1, 47712, Note_off_c, 1, 62, 0
1, 47736, Note_off_c, 1, 41, 0
1, 47760, Note_on_c, 1, 40, 127
1, 47880, Note_on_c, 1, 70, 127
1, 47880, Note_on_c, 1, 73, 127
1, 47952, Note_off_c, 1, 40, 0
1, 47976, Note_off_c, 1, 70, 0
1, 47976, Note_off_c, 1, 73, 0
1, 48000, Note_on_c, 1, 69, 127
1, 48000, Note_on_c, 1, 74, 127
1, 48000, Note_on_c, 1, 41, 127
1, 48096, Note_off_c, 1, 69, 0
1, 48096, Note_off_c, 1, 41, 0
1, 48120, Note_on_c, 1, 67, 127
1, 48120, Note_on_c, 1, 40, 127
1, 48192, Note_off_c, 1, 74, 0
1, 48216, Note_off_c, 1, 67, 0
1, 48216, Note_off_c, 1, 40, 0
1, 48240, Note_on_c, 1, 65, 127
1, 48240, Note_on_c, 1, 69, 127
1, 48240, Note_on_c, 1, 74, 127
1, 48288, Note_off_c, 1, 65, 0
1, 48300, Note_on_c, 1, 67, 127
1, 48348, Note_off_c, 1, 67, 0
1, 48360, Note_on_c, 1, 57, 127
1, 48420, Note_on_c, 1, 64, 127
1, 48432, Note_off_c, 1, 69, 0
1, 48456, Note_off_c, 1, 57, 0
1, 48468, Note_off_c, 1, 64, 0
1, 48480, Note_on_c, 1, 70, 127
1, 48480, Note_on_c, 1, 55, 127
1, 48480, Note_on_c, 1, 43, 127
1, 48528, Note_off_c, 1, 74, 0
1, 48576, Note_off_c, 1, 55, 0
1, 48600, Note_on_c, 1, 76, 127
1, 48600, Note_on_c, 1, 53, 127
1, 48672, Note_off_c, 1, 70, 0
1, 48672, Note_off_c, 1, 43, 0
1, 48696, Note_off_c, 1, 76, 0
1, 48696, Note_off_c, 1, 53, 0
1, 48720, Note_on_c, 1, 73, 127
1, 48720, Note_on_c, 1, 52, 127
1, 48720, Note_on_c, 1, 45, 127
1, 48816, Note_off_c, 1, 52, 0
1, 48840, Note_on_c, 1, 62, 127
1, 48888, Note_off_c, 1, 62, 0
1, 48912, Note_off_c, 1, 73, 0
1, 48912, Note_off_c, 1, 45, 0
1, 48960, Note_on_c, 1, 66, 127
1, 49200, Note_on_c, 1, 71, 127
1, 49200, Note_on_c, 1, 54, 127
1, 49248, Note_off_c, 1, 66, 0
1, 49296, Note_off_c, 1, 54, 0
1, 49392, Note_off_c, 1, 71, 0
1, 49440, Note_on_c, 1, 72, 127
1, 49440, Note_on_c, 1, 69, 127
1, 49440, Note_on_c, 1, 50, 127
1, 49560, Note_on_c, 1, 48, 127
1, 49632, Note_off_c, 1, 72, 0
1, 49656, Note_off_c, 1, 48, 0
1, 49680, Note_on_c, 1, 74, 127
1, 49680, Note_on_c, 1, 47, 127
1, 49776, Note_off_c, 1, 50, 0
1, 49800, Note_on_c, 1, 54, 127
1, 49872, Note_off_c, 1, 69, 0
1, 49896, Note_off_c, 1, 54, 0
1, 49920, Note_on_c, 1, 67, 127
1, 49920, Note_on_c, 1, 55, 127
1, 49968, Note_off_c, 1, 74, 0
1, 49968, Note_off_c, 1, 47, 0
1, 50016, Note_off_c, 1, 67, 0
1, 50016, Note_off_c, 1, 55, 0
1, 50040, Note_on_c, 1, 72, 127
1, 50040, Note_on_c, 1, 66, 127
1, 50040, Note_on_c, 1, 50, 127
1, 50040, Note_on_c, 1, 57, 127
1, 50136, Note_off_c, 1, 72, 0
1, 50136, Note_off_c, 1, 66, 0
1, 50136, Note_off_c, 1, 50, 0
1, 50136, Note_off_c, 1, 57, 0
1, 50160, Note_on_c, 1, 71, 127
1, 50160, Note_on_c, 1, 67, 127
1, 50160, Note_on_c, 1, 59, 127
1, 50160, Note_on_c, 1, 43, 127
1, 50256, Note_off_c, 1, 71, 0
1, 50256, Note_off_c, 1, 67, 0
1, 50256, Note_off_c, 1, 59, 0
1, 50280, Note_on_c, 1, 69, 127
1, 50280, Note_on_c, 1, 60, 127
1, 50352, Note_off_c, 1, 43, 0
1, 50376, Note_off_c, 1, 69, 0
1, 50376, Note_off_c, 1, 60, 0
1, 50400, Note_on_c, 1, 72, 127
1, 50400, Note_on_c, 1, 66, 127
1, 50400, Note_on_c, 1, 57, 127
1, 50400, Note_on_c, 1, 50, 127
1, 50496, Note_off_c, 1, 72, 0
1, 50496, Note_off_c, 1, 66, 0
1, 50496, Note_off_c, 1, 57, 0
1, 50496, Note_off_c, 1, 50, 0
1, 50520, Note_on_c, 1, 71, 127
1, 50520, Note_on_c, 1, 67, 127
1, 50520, Note_on_c, 1, 52, 127
1, 50520, Note_on_c, 1, 55, 127
1, 50616, Note_off_c, 1, 71, 0
1, 50616, Note_off_c, 1, 52, 0
1, 50616, Note_off_c, 1, 55, 0
1, 50640, Note_on_c, 1, 69, 127
1, 50640, Note_on_c, 1, 57, 127
1, 50640, Note_on_c, 1, 48, 127
1, 50736, Note_off_c, 1, 67, 0
1, 50736, Note_off_c, 1, 57, 0
1, 50760, Note_on_c, 1, 59, 127
1, 50832, Note_off_c, 1, 48, 0
1, 50856, Note_off_c, 1, 59, 0
1, 50880, Note_on_c, 1, 66, 127
1, 50880, Note_on_c, 1, 60, 127
1, 50880, Note_on_c, 1, 50, 127
1, 50928, Note_off_c, 1, 69, 0
1, 50976, Note_off_c, 1, 60, 0
1, 51000, Note_on_c, 1, 62, 127
1, 51072, Note_off_c, 1, 66, 0
1, 51072, Note_off_c, 1, 50, 0
1, 51096, Note_off_c, 1, 62, 0
1, 51120, Note_on_c, 1, 67, 127
1, 51120, Note_on_c, 1, 59, 127
1, 51120, Note_on_c, 1, 43, 127
1, 51216, Note_off_c, 1, 67, 0
1, 51216, Note_off_c, 1, 59, 0
1, 51240, Note_on_c, 1, 74, 127
1, 51240, Note_on_c, 1, 62, 127
1, 51336, Note_off_c, 1, 74, 0
1, 51336, Note_off_c, 1, 62, 0
1, 51360, Note_on_c, 1, 60, 127
1, 51360, Note_on_c, 1, 76, 127
1, 51456, Note_off_c, 1, 60, 0
1, 51456, Note_off_c, 1, 76, 0
1, 51600, Note_on_c, 1, 64, 127
1, 51600, Note_on_c, 1, 57, 127
1, 51696, Note_off_c, 1, 64, 0
1, 51720, Note_on_c, 1, 66, 127
1, 51720, Note_on_c, 1, 72, 127
1, 51792, Note_off_c, 1, 57, 0
1, 51816, Note_off_c, 1, 66, 0
1, 51816, Note_off_c, 1, 72, 0
1, 51840, Note_on_c, 1, 55, 127
1, 51960, Note_on_c, 1, 69, 127
1, 52032, Note_off_c, 1, 55, 0
1, 52056, Note_off_c, 1, 69, 0
1, 52080, Note_on_c, 1, 71, 127
1, 52368, Note_off_c, 1, 71, 0
1, 52440, Note_on_c, 1, 53, 127
1, 52536, Note_off_c, 1, 53, 0
1, 52560, Note_on_c, 1, 52, 127
1, 52848, Note_off_c, 1, 52, 0
1, 53760, Note_on_c, 1, 54, 127
1, 53856, Note_off_c, 1, 54, 0
1, 54120, Note_on_c, 1, 50, 127
1, 54216, Note_off_c, 1, 50, 0
1, 54240, Note_on_c, 1, 51, 127
1, 54432, Note_off_c, 1, 51, 0
1, 54600, Note_on_c, 1, 48, 127
1, 54696, Note_off_c, 1, 48, 0
1, 54912, Note_off_c, 1, 43, 0
1, 54912, End_track
0, 0, End_of_file