0, 0, Header, 1, 1, 480
1, 0, Start_track
1, 0, Title_t, "Test"
1, 0, Tempo, 500000
1, 0, Instrument_name_t, "Church Organ"
1, 245, Note_on_c, 1, 67, 127
1, 245, Note_on_c, 1, 91, 127
1, 332, Note_off_c, 1, 67, 0
1, 332, Note_off_c, 1, 91, 0
1, 340, Note_on_c, 1, 69, 127
1, 340, Note_on_c, 1, 93, 127
1, 426, Note_off_c, 1, 69, 0
1, 426, Note_off_c, 1, 93, 0
1, 471, Note_on_c, 1, 71, 127
1, 471, Note_on_c, 1, 95, 127
1, 593, Note_on_c, 1, 72, 127
1, 593, Note_on_c, 1, 96, 127
1, 597, Note_off_c, 1, 71, 0
1, 597, Note_off_c, 1, 95, 0
1, 711, Note_on_c, 1, 74, 127
1, 711, Note_on_c, 1, 98, 127
1, 715, Note_off_c, 1, 72, 0
1, 715, Note_off_c, 1, 96, 0
1, 825, Note_off_c, 1, 74, 0
1, 825, Note_off_c, 1, 98, 0
1, 953, Note_on_c, 1, 71, 127
1, 953, Note_on_c, 1, 95, 127
1, 1077, Note_off_c, 1, 71, 0
1, 1077, Note_off_c, 1, 95, 0
1, 1191, Note_on_c, 1, 74, 127
1, 1191, Note_on_c, 1, 98, 127
1, 1192, Note_on_c, 1, 67, 127
1, 1192, Note_on_c, 1, 79, 127
1, 1302, Note_on_c, 1, 69, 127
1, 1302, Note_on_c, 1, 81, 127
1, 1326, Note_off_c, 1, 67, 0
1, 1326, Note_off_c, 1, 79, 0
1, 1431, Note_on_c, 1, 71, 127
1, 1431, Note_on_c, 1, 83, 127
1, 1442, Note_on_c, 1, 103, 127
1, 1448, Note_off_c, 1, 74, 0
1, 1448, Note_off_c, 1, 98, 0
1, 1451, Note_off_c, 1, 69, 0
1, 1451, Note_off_c, 1, 81, 0
1, 1541, Note_off_c, 1, 71, 0
1, 1541, Note_off_c, 1, 83, 0
1, 1542, Note_on_c, 1, 72, 127
1, 1542, Note_on_c, 1, 84, 127
1, 1545, Note_off_c, 1, 103, 0
1, 1652, Note_off_c, 1, 72, 0
1, 1652, Note_off_c, 1, 84, 0
1, 1657, Note_on_c, 1, 74, 127
1, 1657, Note_on_c, 1, 86, 127
1, 1686, Note_on_c, 1, 78, 127
1, 1686, Note_on_c, 1, 102, 127
1, 1762, Note_on_c, 1, 72, 127
1, 1762, Note_on_c, 1, 84, 127
1, 1766, Note_off_c, 1, 74, 0
1, 1766, Note_off_c, 1, 86, 0
1, 1774, Note_off_c, 1, 78, 0
1, 1774, Note_off_c, 1, 102, 0
1, 1871, Note_off_c, 1, 72, 0
1, 1871, Note_off_c, 1, 84, 0
1, 1895, Note_on_c, 1, 71, 127
1, 1895, Note_on_c, 1, 83, 127
1, 1936, Note_on_c, 1, 79, 127
1, 1936, Note_on_c, 1, 103, 127
1, 2040, Note_off_c, 1, 71, 0
1, 2040, Note_off_c, 1, 83, 0
1, 2099, Note_off_c, 1, 79, 0
1, 2099, Note_off_c, 1, 103, 0
1, 2155, Note_on_c, 1, 43, 127
1, 2155, Note_on_c, 1, 31, 127
1, 2173, Note_on_c, 1, 74, 127
1, 2173, Note_on_c, 1, 86, 127
1, 2178, Note_on_c, 1, 71, 127
1, 2178, Note_on_c, 1, 95, 127
1, 2274, Note_off_c, 1, 71, 0
1, 2274, Note_off_c, 1, 95, 0
1, 2282, Note_on_c, 1, 72, 127
1, 2282, Note_on_c, 1, 96, 127
1, 2367, Note_off_c, 1, 72, 0
1, 2367, Note_off_c, 1, 96, 0
1, 2379, Note_off_c, 1, 43, 0
1, 2379, Note_off_c, 1, 31, 0
1, 2402, Note_on_c, 1, 47, 127
1, 2402, Note_on_c, 1, 35, 127
1, 2412, Note_off_c, 1, 74, 0
1, 2412, Note_off_c, 1, 86, 0
1, 2412, Note_on_c, 1, 79, 127
1, 2412, Note_on_c, 1, 91, 127
1, 2414, Note_on_c, 1, 98, 127
1, 2498, Note_off_c, 1, 47, 0
1, 2498, Note_off_c, 1, 35, 0
1, 2529, Note_on_c, 1, 76, 127
1, 2529, Note_on_c, 1, 100, 127
1, 2530, Note_off_c, 1, 98, 0
1, 2607, Note_off_c, 1, 79, 0
1, 2607, Note_off_c, 1, 91, 0
1, 2621, Note_on_c, 1, 50, 127
1, 2621, Note_on_c, 1, 38, 127
1, 2644, Note_on_c, 1, 78, 127
1, 2644, Note_on_c, 1, 90, 127
1, 2655, Note_off_c, 1, 76, 0
1, 2655, Note_off_c, 1, 100, 0
1, 2735, Note_off_c, 1, 50, 0
1, 2735, Note_off_c, 1, 38, 0
1, 2818, Note_off_c, 1, 78, 0
1, 2818, Note_off_c, 1, 90, 0
1, 3115, Note_on_c, 1, 83, 127
1, 3221, Note_on_c, 1, 103, 127
1, 3310, Note_off_c, 1, 103, 0
1, 3329, Note_on_c, 1, 102, 127
1, 3343, Note_on_c, 1, 81, 127
1, 3343, Note_on_c, 1, 93, 127
1, 3354, Note_off_c, 1, 83, 0
1, 3444, Note_off_c, 1, 102, 0
1, 3548, Note_off_c, 1, 81, 0
1, 3548, Note_off_c, 1, 93, 0
1, 4045, Note_on_c, 1, 74, 127
1, 4045, Note_on_c, 1, 98, 127
1, 4046, Note_on_c, 1, 71, 127
1, 4046, Note_on_c, 1, 83, 127
1, 4050, Note_on_c, 1, 43, 127
1, 4050, Note_on_c, 1, 31, 127
1, 4177, Note_on_c, 1, 72, 127
1, 4177, Note_on_c, 1, 84, 127
1, 4188, Note_off_c, 1, 71, 0
1, 4188, Note_off_c, 1, 83, 0
1, 4218, Note_off_c, 1, 74, 0
1, 4218, Note_off_c, 1, 98, 0
1, 4272, Note_on_c, 1, 47, 127
1, 4272, Note_on_c, 1, 35, 127
1, 4288, Note_off_c, 1, 72, 0
1, 4288, Note_off_c, 1, 84, 0
1, 4294, Note_on_c, 1, 79, 127
1, 4294, Note_on_c, 1, 103, 127
1, 4298, Note_on_c, 1, 86, 127
1, 4301, Note_off_c, 1, 43, 0
1, 4301, Note_off_c, 1, 31, 0
1, 4379, Note_off_c, 1, 47, 0
1, 4379, Note_off_c, 1, 35, 0
1, 4403, Note_on_c, 1, 76, 127
1, 4403, Note_on_c, 1, 88, 127
1, 4406, Note_off_c, 1, 86, 0
1, 4493, Note_off_c, 1, 79, 0
1, 4493, Note_off_c, 1, 103, 0
1, 4509, Note_on_c, 1, 50, 127
1, 4509, Note_on_c, 1, 38, 127
1, 4534, Note_off_c, 1, 76, 0
1, 4534, Note_off_c, 1, 88, 0
1, 4541, Note_on_c, 1, 78, 127
1, 4541, Note_on_c, 1, 102, 127
1, 4657, Note_off_c, 1, 50, 0
1, 4657, Note_off_c, 1, 38, 0
1, 4657, Note_off_c, 1, 78, 0
1, 4657, Note_off_c, 1, 102, 0
1, 4763, Note_on_c, 1, 47, 127
1, 4763, Note_on_c, 1, 35, 127
1, 4768, Note_on_c, 1, 74, 127
1, 4768, Note_on_c, 1, 86, 127
1, 4789, Note_on_c, 1, 79, 127
1, 4789, Note_on_c, 1, 103, 127
1, 4888, Note_on_c, 1, 72, 127
1, 4888, Note_on_c, 1, 84, 127
1, 4891, Note_off_c, 1, 74, 0
1, 4891, Note_off_c, 1, 86, 0
1, 4947, Note_off_c, 1, 47, 0
1, 4947, Note_off_c, 1, 35, 0
1, 4988, Note_off_c, 1, 79, 0
1, 4988, Note_off_c, 1, 103, 0
1, 5013, Note_off_c, 1, 72, 0
1, 5013, Note_off_c, 1, 84, 0
1, 5013, Note_on_c, 1, 43, 127
1, 5013, Note_on_c, 1, 31, 127
1, 5043, Note_on_c, 1, 83, 127
1, 5043, Note_on_c, 1, 107, 127
1, 5134, Note_on_c, 1, 91, 127
1, 5149, Note_off_c, 1, 43, 0
1, 5149, Note_off_c, 1, 31, 0
1, 5249, Note_on_c, 1, 50, 127
1, 5249, Note_on_c, 1, 38, 127
1, 5253, Note_off_c, 1, 91, 0
1, 5255, Note_off_c, 1, 83, 0
1, 5255, Note_off_c, 1, 107, 0
1, 5260, Note_on_c, 1, 78, 127
1, 5260, Note_on_c, 1, 90, 127
1, 5292, Note_on_c, 1, 81, 127
1, 5292, Note_on_c, 1, 105, 127
1, 5381, Note_on_c, 1, 76, 127
1, 5381, Note_on_c, 1, 88, 127
1, 5384, Note_off_c, 1, 78, 0
1, 5384, Note_off_c, 1, 90, 0
1, 5420, Note_off_c, 1, 81, 0
1, 5420, Note_off_c, 1, 105, 0
1, 5478, Note_on_c, 1, 26, 127
1, 5492, Note_off_c, 1, 50, 0
1, 5525, Note_on_c, 1, 102, 127
1, 5528, Note_off_c, 1, 76, 0
1, 5528, Note_off_c, 1, 88, 0
1, 5618, Note_off_c, 1, 102, 0
1, 5657, Note_off_c, 1, 38, 0
1, 5657, Note_off_c, 1, 26, 0
1, 5755, Note_on_c, 1, 71, 127
1, 5996, Note_off_c, 1, 71, 0
1, 6110, Note_on_c, 1, 75, 127
1, 6110, Note_on_c, 1, 87, 127
1, 6187, Note_off_c, 1, 75, 0
1, 6187, Note_off_c, 1, 87, 0
1, 6224, Note_on_c, 1, 76, 127
1, 6224, Note_on_c, 1, 100, 127
1, 6230, Note_on_c, 1, 88, 127
1, 6343, Note_on_c, 1, 79, 127
1, 6343, Note_on_c, 1, 103, 127
1, 6361, Note_off_c, 1, 100, 0
1, 6442, Note_off_c, 1, 79, 0
1, 6442, Note_off_c, 1, 103, 0
1, 6448, Note_on_c, 1, 55, 127
1, 6448, Note_on_c, 1, 43, 127
1, 6453, Note_on_c, 1, 78, 127
1, 6453, Note_on_c, 1, 102, 127
1, 6556, Note_off_c, 1, 78, 0
1, 6556, Note_off_c, 1, 102, 0
1, 6575, Note_off_c, 1, 55, 0
1, 6575, Note_off_c, 1, 43, 0
1, 6693, Note_on_c, 1, 54, 127
1, 6693, Note_on_c, 1, 42, 127
1, 6706, Note_on_c, 1, 81, 127
1, 6706, Note_on_c, 1, 105, 127
1, 6763, Note_off_c, 1, 76, 0
1, 6763, Note_off_c, 1, 88, 0
1, 6840, Note_off_c, 1, 81, 0
1, 6840, Note_off_c, 1, 105, 0
1, 6930, Note_on_c, 1, 69, 127
1, 7042, Note_off_c, 1, 69, 0
1, 7182, Note_on_c, 1, 74, 127
1, 7182, Note_on_c, 1, 86, 127
1, 7215, Note_off_c, 1, 54, 0
1, 7215, Note_off_c, 1, 42, 0
1, 7399, Note_on_c, 1, 59, 127
1, 7399, Note_on_c, 1, 47, 127
1, 7499, Note_off_c, 1, 59, 0
1, 7499, Note_off_c, 1, 47, 0
1, 7519, Note_on_c, 1, 98, 127
1, 7597, Note_off_c, 1, 98, 0
1, 7628, Note_on_c, 1, 52, 127
1, 7628, Note_on_c, 1, 40, 127
1, 8029, Note_off_c, 1, 74, 0
1, 8029, Note_off_c, 1, 86, 0
1, 8179, Note_off_c, 1, 52, 0
1, 8179, Note_off_c, 1, 40, 0
1, 8192, Note_on_c, 1, 73, 127
1, 8192, Note_on_c, 1, 85, 127
1, 8235, Note_off_c, 1, 73, 0
1, 8235, Note_off_c, 1, 85, 0
1, 8274, Note_on_c, 1, 83, 127
1, 8274, Note_on_c, 1, 107, 127
1, 8373, Note_off_c, 1, 83, 0
1, 8373, Note_off_c, 1, 107, 0
1, 8373, Note_on_c, 1, 57, 127
1, 8373, Note_on_c, 1, 45, 127
1, 8490, Note_off_c, 1, 57, 0
1, 8490, Note_off_c, 1, 45, 0
1, 8599, Note_on_c, 1, 78, 127
1, 8599, Note_on_c, 1, 102, 127
1, 8604, Note_on_c, 1, 50, 127
1, 8604, Note_on_c, 1, 38, 127
1, 8615, Note_on_c, 1, 74, 127
1, 8615, Note_on_c, 1, 86, 127
1, 8715, Note_on_c, 1, 76, 127
1, 8715, Note_on_c, 1, 100, 127
1, 8717, Note_off_c, 1, 78, 0
1, 8717, Note_off_c, 1, 102, 0
1, 8758, Note_off_c, 1, 50, 0
1, 8758, Note_off_c, 1, 38, 0
1, 8832, Note_on_c, 1, 54, 127
1, 8832, Note_on_c, 1, 42, 127
1, 8842, Note_on_c, 1, 98, 127
1, 8861, Note_off_c, 1, 76, 0
1, 8861, Note_off_c, 1, 100, 0
1, 8919, Note_off_c, 1, 98, 0
1, 8940, Note_on_c, 1, 73, 127
1, 8940, Note_on_c, 1, 97, 127
1, 9021, Note_off_c, 1, 73, 0
1, 9021, Note_off_c, 1, 97, 0
1, 9046, Note_off_c, 1, 54, 0
1, 9046, Note_off_c, 1, 42, 0
1, 9061, Note_on_c, 1, 71, 127
1, 9061, Note_on_c, 1, 95, 127
1, 9063, Note_on_c, 1, 55, 127
1, 9063, Note_on_c, 1, 43, 127
1, 9170, Note_off_c, 1, 55, 0
1, 9170, Note_off_c, 1, 43, 0
1, 9206, Note_off_c, 1, 71, 0
1, 9206, Note_off_c, 1, 95, 0
1, 9304, Note_on_c, 1, 57, 127
1, 9304, Note_on_c, 1, 45, 127
1, 9418, Note_off_c, 1, 57, 0
1, 9418, Note_off_c, 1, 45, 0
1, 9549, Note_on_c, 1, 59, 127
1, 9549, Note_on_c, 1, 47, 127
1, 9692, Note_on_c, 1, 72, 127
1, 9692, Note_on_c, 1, 84, 127
1, 9704, Note_off_c, 1, 86, 0
1, 9825, Note_on_c, 1, 83, 127
1, 9843, Note_off_c, 1, 72, 0
1, 9843, Note_off_c, 1, 84, 0
1, 9930, Note_on_c, 1, 69, 127
1, 9930, Note_on_c, 1, 81, 127
1, 9933, Note_off_c, 1, 83, 0
1, 10059, Note_on_c, 1, 67, 127
1, 10059, Note_on_c, 1, 79, 127
1, 10060, Note_off_c, 1, 69, 0
1, 10060, Note_off_c, 1, 81, 0
1, 10065, Note_off_c, 1, 59, 0
1, 10065, Note_off_c, 1, 47, 0
1, 10188, Note_off_c, 1, 67, 0
1, 10188, Note_off_c, 1, 79, 0
1, 10695, Note_off_c, 1, 74, 0
1, 10760, Note_on_c, 1, 52, 127
1, 10760, Note_on_c, 1, 40, 127
1, 10863, Note_off_c, 1, 52, 0
1, 10863, Note_off_c, 1, 40, 0
1, 10883, Note_on_c, 1, 66, 127
1, 10993, Note_off_c, 1, 66, 0
1, 10998, Note_on_c, 1, 64, 127
1, 11138, Note_off_c, 1, 64, 0
1, 11218, Note_on_c, 1, 33, 127
1, 11334, Note_off_c, 1, 33, 0
1, 11714, Note_on_c, 1, 26, 127
1, 11731, Note_on_c, 1, 62, 127
1, 11861, Note_off_c, 1, 62, 0
1, 12036, Note_off_c, 1, 26, 0
1, 12212, Note_on_c, 1, 69, 127
1, 12212, Note_on_c, 1, 81, 127
1, 12311, Note_on_c, 1, 67, 127
1, 12311, Note_on_c, 1, 79, 127
1, 12316, Note_off_c, 1, 69, 0
1, 12316, Note_off_c, 1, 81, 0
1, 12402, Note_off_c, 1, 67, 0
1, 12402, Note_off_c, 1, 79, 0
1, 12442, Note_on_c, 1, 66, 127
1, 12442, Note_on_c, 1, 78, 127
1, 12565, Note_off_c, 1, 66, 0
1, 12565, Note_off_c, 1, 78, 0
1, 12685, Note_on_c, 1, 69, 127
1, 12685, Note_on_c, 1, 81, 127
1, 12729, Note_on_c, 1, 62, 127
1, 12729, Note_on_c, 1, 86, 127
1, 12828, Note_on_c, 1, 64, 127
1, 12828, Note_on_c, 1, 88, 127
1, 12838, Note_off_c, 1, 62, 0
1, 12838, Note_off_c, 1, 86, 0
1, 12906, Note_off_c, 1, 69, 0
1, 12906, Note_off_c, 1, 81, 0
1, 12922, Note_off_c, 1, 64, 0
1, 12922, Note_off_c, 1, 88, 0
1, 12944, Note_on_c, 1, 74, 127
1, 12944, Note_on_c, 1, 86, 127
1, 12951, Note_on_c, 1, 66, 127
1, 12951, Note_on_c, 1, 90, 127
1, 13075, Note_on_c, 1, 67, 127
1, 13075, Note_on_c, 1, 91, 127
1, 13080, Note_off_c, 1, 66, 0
1, 13080, Note_off_c, 1, 90, 0
1, 13100, Note_off_c, 1, 74, 0
1, 13100, Note_off_c, 1, 86, 0
1, 13165, Note_on_c, 1, 73, 127
1, 13165, Note_on_c, 1, 85, 127
1, 13192, Note_on_c, 1, 69, 127
1, 13192, Note_on_c, 1, 93, 127
1, 13197, Note_off_c, 1, 67, 0
1, 13197, Note_off_c, 1, 91, 0
1, 13288, Note_off_c, 1, 69, 0
1, 13288, Note_off_c, 1, 93, 0
1, 13291, Note_off_c, 1, 73, 0
1, 13291, Note_off_c, 1, 85, 0
1, 13413, Note_on_c, 1, 66, 127
1, 13413, Note_on_c, 1, 90, 127
1, 13422, Note_on_c, 1, 74, 127
1, 13422, Note_on_c, 1, 86, 127
1, 13487, Note_off_c, 1, 66, 0
1, 13487, Note_off_c, 1, 90, 0
1, 13537, Note_off_c, 1, 74, 0
1, 13537, Note_off_c, 1, 86, 0
1, 13655, Note_on_c, 1, 69, 127
1, 13655, Note_on_c, 1, 93, 127
1, 13672, Note_on_c, 1, 66, 127
1, 13672, Note_on_c, 1, 78, 127
1, 13681, Note_on_c, 1, 50, 127
1, 13681, Note_on_c, 1, 38, 127
1, 13775, Note_off_c, 1, 66, 0
1, 13775, Note_off_c, 1, 78, 0
1, 13787, Note_on_c, 1, 67, 127
1, 13787, Note_on_c, 1, 79, 127
1, 13889, Note_off_c, 1, 67, 0
1, 13889, Note_off_c, 1, 79, 0
1, 13889, Note_on_c, 1, 74, 127
1, 13889, Note_on_c, 1, 98, 127
1, 13895, Note_off_c, 1, 69, 0
1, 13895, Note_off_c, 1, 93, 0
1, 13901, Note_on_c, 1, 54, 127
1, 13901, Note_on_c, 1, 42, 127
1, 13912, Note_on_c, 1, 81, 127
1, 13917, Note_off_c, 1, 50, 0
1, 13917, Note_off_c, 1, 38, 0
1, 13994, Note_off_c, 1, 54, 0
1, 13994, Note_off_c, 1, 42, 0
1, 14001, Note_off_c, 1, 74, 0
1, 14001, Note_off_c, 1, 98, 0
1, 14025, Note_on_c, 1, 71, 127
1, 14025, Note_on_c, 1, 83, 127
1, 14028, Note_off_c, 1, 81, 0
1, 14117, Note_off_c, 1, 71, 0
1, 14117, Note_off_c, 1, 83, 0
1, 14128, Note_on_c, 1, 57, 127
1, 14128, Note_on_c, 1, 45, 127
1, 14142, Note_on_c, 1, 73, 127
1, 14142, Note_on_c, 1, 97, 127
1, 14147, Note_on_c, 1, 69, 127
1, 14147, Note_on_c, 1, 81, 127
1, 14233, Note_off_c, 1, 57, 0
1, 14233, Note_off_c, 1, 45, 0
1, 14237, Note_off_c, 1, 73, 0
1, 14237, Note_off_c, 1, 97, 0
1, 14251, Note_on_c, 1, 71, 127
1, 14251, Note_on_c, 1, 83, 127
1, 14260, Note_off_c, 1, 69, 0
1, 14260, Note_off_c, 1, 81, 0
1, 14334, Note_off_c, 1, 71, 0
1, 14334, Note_off_c, 1, 83, 0
1, 14363, Note_on_c, 1, 54, 127
1, 14363, Note_on_c, 1, 42, 127
1, 14378, Note_on_c, 1, 69, 127
1, 14378, Note_on_c, 1, 81, 127
1, 14381, Note_on_c, 1, 74, 127
1, 14381, Note_on_c, 1, 98, 127
1, 14490, Note_off_c, 1, 54, 0
1, 14490, Note_off_c, 1, 42, 0
1, 14495, Note_on_c, 1, 67, 127
1, 14495, Note_on_c, 1, 79, 127
1, 14499, Note_off_c, 1, 69, 0
1, 14499, Note_off_c, 1, 81, 0
1, 14602, Note_on_c, 1, 50, 127
1, 14602, Note_on_c, 1, 38, 127
1, 14605, Note_off_c, 1, 74, 0
1, 14605, Note_off_c, 1, 98, 0
1, 14607, Note_off_c, 1, 67, 0
1, 14607, Note_off_c, 1, 79, 0
1, 14633, Note_on_c, 1, 78, 127
1, 14633, Note_on_c, 1, 102, 127
1, 14700, Note_on_c, 1, 86, 127
1, 14721, Note_off_c, 1, 50, 0
1, 14721, Note_off_c, 1, 38, 0
1, 14819, Note_off_c, 1, 86, 0
1, 14847, Note_on_c, 1, 73, 127
1, 14847, Note_on_c, 1, 85, 127
1, 14849, Note_on_c, 1, 57, 127
1, 14849, Note_on_c, 1, 45, 127
1, 14863, Note_on_c, 1, 76, 127
1, 14863, Note_on_c, 1, 100, 127
1, 14868, Note_off_c, 1, 78, 0
1, 14868, Note_off_c, 1, 102, 0
1, 14975, Note_on_c, 1, 71, 127
1, 14975, Note_on_c, 1, 83, 127
1, 14979, Note_off_c, 1, 73, 0
1, 14979, Note_off_c, 1, 85, 0
1, 15005, Note_off_c, 1, 76, 0
1, 15005, Note_off_c, 1, 100, 0
1, 15061, Note_off_c, 1, 57, 0
1, 15061, Note_off_c, 1, 45, 0
1, 15113, Note_off_c, 1, 71, 0
1, 15113, Note_off_c, 1, 83, 0
1, 15116, Note_on_c, 1, 97, 127
1, 15241, Note_off_c, 1, 97, 0
1, 15326, Note_on_c, 1, 66, 127
1, 15326, Note_on_c, 1, 78, 127
1, 15364, Note_on_c, 1, 74, 127
1, 15364, Note_on_c, 1, 98, 127
1, 15447, Note_off_c, 1, 66, 0
1, 15447, Note_off_c, 1, 78, 0
1, 15483, Note_on_c, 1, 76, 127
1, 15483, Note_on_c, 1, 100, 127
1, 15492, Note_off_c, 1, 74, 0
1, 15492, Note_off_c, 1, 98, 0
1, 15581, Note_on_c, 1, 69, 127
1, 15581, Note_on_c, 1, 81, 127
1, 15592, Note_on_c, 1, 50, 127
1, 15592, Note_on_c, 1, 38, 127
1, 15605, Note_on_c, 1, 102, 127
1, 15613, Note_off_c, 1, 76, 0
1, 15613, Note_off_c, 1, 100, 0
1, 15713, Note_off_c, 1, 102, 0
1, 15719, Note_on_c, 1, 79, 127
1, 15719, Note_on_c, 1, 103, 127
1, 15734, Note_off_c, 1, 69, 0
1, 15734, Note_off_c, 1, 81, 0
1, 15803, Note_off_c, 1, 79, 0
1, 15803, Note_off_c, 1, 103, 0
1, 15816, Note_on_c, 1, 54, 127
1, 15816, Note_on_c, 1, 42, 127
1, 15820, Note_off_c, 1, 50, 0
1, 15820, Note_off_c, 1, 38, 0
1, 15824, Note_on_c, 1, 86, 127
1, 15839, Note_on_c, 1, 105, 127
1, 15943, Note_off_c, 1, 54, 0
1, 15943, Note_off_c, 1, 42, 0
1, 15960, Note_on_c, 1, 83, 127
1, 15960, Note_on_c, 1, 107, 127
1, 15969, Note_off_c, 1, 105, 0
1, 16049, Note_on_c, 1, 57, 127
1, 16049, Note_on_c, 1, 45, 127
1, 16060, Note_on_c, 1, 73, 127
1, 16060, Note_on_c, 1, 85, 127
1, 16066, Note_off_c, 1, 86, 0
1, 16078, Note_off_c, 1, 83, 0
1, 16078, Note_off_c, 1, 107, 0
1, 16182, Note_off_c, 1, 73, 0
1, 16182, Note_off_c, 1, 85, 0
1, 16192, Note_off_c, 1, 57, 0
1, 16192, Note_off_c, 1, 45, 0
1, 16534, Note_on_c, 1, 78, 127
1, 16534, Note_on_c, 1, 90, 127
1, 16535, Note_on_c, 1, 81, 127
1, 16535, Note_on_c, 1, 105, 127
1, 16536, Note_on_c, 1, 50, 127
1, 16536, Note_on_c, 1, 38, 127
1, 16540, Note_on_c, 1, 83, 127
1, 16540, Note_on_c, 1, 107, 127
1, 16595, Note_off_c, 1, 83, 0
1, 16595, Note_off_c, 1, 107, 0
1, 16651, Note_off_c, 1, 81, 0
1, 16651, Note_off_c, 1, 105, 0
1, 16663, Note_off_c, 1, 50, 0
1, 16663, Note_off_c, 1, 38, 0
1, 16745, Note_on_c, 1, 57, 127
1, 16745, Note_on_c, 1, 45, 127
1, 16750, Note_off_c, 1, 78, 0
1, 16750, Note_off_c, 1, 90, 0
1, 16760, Note_on_c, 1, 73, 127
1, 16760, Note_on_c, 1, 97, 127
1, 16767, Note_on_c, 1, 76, 127
1, 16767, Note_on_c, 1, 88, 127
1, 16857, Note_off_c, 1, 73, 0
1, 16857, Note_off_c, 1, 97, 0
1, 16893, Note_off_c, 1, 57, 0
1, 16893, Note_off_c, 1, 45, 0
1, 16973, Note_off_c, 1, 76, 0
1, 16973, Note_off_c, 1, 88, 0
1, 16987, Note_on_c, 1, 45, 127
1, 16987, Note_on_c, 1, 33, 127
1, 16994, Note_on_c, 1, 81, 127
1, 16994, Note_on_c, 1, 105, 127
1, 16999, Note_on_c, 1, 73, 127
1, 16999, Note_on_c, 1, 85, 127
1, 17076, Note_off_c, 1, 81, 0
1, 17076, Note_off_c, 1, 105, 0
1, 17104, Note_on_c, 1, 79, 127
1, 17104, Note_on_c, 1, 103, 127
1, 17127, Note_off_c, 1, 45, 0
1, 17127, Note_off_c, 1, 33, 0
1, 17150, Note_off_c, 1, 79, 0
1, 17150, Note_off_c, 1, 103, 0
1, 17211, Note_off_c, 1, 73, 0
1, 17211, Note_off_c, 1, 85, 0
1, 17218, Note_on_c, 1, 50, 127
1, 17218, Note_on_c, 1, 38, 127
1, 17246, Note_on_c, 1, 78, 127
1, 17246, Note_on_c, 1, 102, 127
1, 17246, Note_on_c, 1, 74, 127
1, 17246, Note_on_c, 1, 86, 127
1, 17361, Note_off_c, 1, 74, 0
1, 17361, Note_off_c, 1, 86, 0
1, 17364, Note_on_c, 1, 76, 127
1, 17364, Note_on_c, 1, 88, 127
1, 17414, Note_off_c, 1, 78, 0
1, 17414, Note_off_c, 1, 102, 0
1, 17486, Note_on_c, 1, 90, 127
1, 17506, Note_on_c, 1, 83, 127
1, 17506, Note_on_c, 1, 107, 127
1, 17522, Note_off_c, 1, 76, 0
1, 17522, Note_off_c, 1, 88, 0
1, 17574, Note_off_c, 1, 83, 0
1, 17574, Note_off_c, 1, 107, 0
1, 17597, Note_off_c, 1, 90, 0
1, 17606, Note_on_c, 1, 81, 127
1, 17606, Note_on_c, 1, 105, 127
1, 17664, Note_off_c, 1, 81, 0
1, 17664, Note_off_c, 1, 105, 0
1, 17717, Note_on_c, 1, 71, 127
1, 17735, Note_off_c, 1, 50, 0
1, 17735, Note_off_c, 1, 38, 0
1, 17849, Note_off_c, 1, 71, 0
1, 17968, Note_on_c, 1, 73, 127
1, 17968, Note_on_c, 1, 85, 127
1, 18066, Note_off_c, 1, 73, 0
1, 18066, Note_off_c, 1, 85, 0
1, 18212, Note_on_c, 1, 49, 127
1, 18212, Note_on_c, 1, 37, 127
1, 18464, Note_on_c, 1, 100, 127
1, 18551, Note_off_c, 1, 100, 0
1, 18583, Note_off_c, 1, 49, 0
1, 18583, Note_off_c, 1, 37, 0
1, 18931, Note_on_c, 1, 54, 127
1, 18931, Note_on_c, 1, 42, 127
1, 19025, Note_off_c, 1, 54, 0
1, 19025, Note_off_c, 1, 42, 0
1, 19040, Note_on_c, 1, 69, 127
1, 19162, Note_on_c, 1, 47, 127
1, 19162, Note_on_c, 1, 35, 127
1, 19169, Note_off_c, 1, 69, 0
1, 19631, Note_off_c, 1, 47, 0
1, 19631, Note_off_c, 1, 35, 0
1, 19738, Note_on_c, 1, 80, 127
1, 19738, Note_on_c, 1, 104, 127
1, 19783, Note_off_c, 1, 80, 0
1, 19783, Note_off_c, 1, 104, 0
1, 19893, Note_on_c, 1, 52, 127
1, 19893, Note_on_c, 1, 40, 127
1, 19980, Note_off_c, 1, 52, 0
1, 19980, Note_off_c, 1, 40, 0
1, 20134, Note_on_c, 1, 45, 127
1, 20134, Note_on_c, 1, 33, 127
1, 20338, Note_on_c, 1, 93, 127
1, 20373, Note_on_c, 1, 64, 127
1, 20471, Note_on_c, 1, 95, 127
1, 20477, Note_off_c, 1, 93, 0
1, 20509, Note_off_c, 1, 64, 0
1, 20569, Note_on_c, 1, 97, 127
1, 20573, Note_off_c, 1, 95, 0
1, 20598, Note_off_c, 1, 45, 0
1, 20598, Note_off_c, 1, 33, 0
1, 20679, Note_off_c, 1, 97, 0
1, 20685, Note_on_c, 1, 98, 127
1, 20806, Note_off_c, 1, 98, 0
1, 20807, Note_on_c, 1, 76, 127
1, 20807, Note_on_c, 1, 100, 127
1, 20870, Note_on_c, 1, 73, 127
1, 20870, Note_on_c, 1, 85, 127
1, 20909, Note_off_c, 1, 76, 0
1, 20909, Note_off_c, 1, 100, 0
1, 20919, Note_on_c, 1, 78, 127
1, 20919, Note_on_c, 1, 102, 127
1, 21025, Note_off_c, 1, 78, 0
1, 21025, Note_off_c, 1, 102, 0
1, 21043, Note_on_c, 1, 71, 127
1, 21043, Note_on_c, 1, 83, 127
1, 21055, Note_on_c, 1, 52, 127
1, 21055, Note_on_c, 1, 40, 127
1, 21061, Note_on_c, 1, 79, 127
1, 21061, Note_on_c, 1, 103, 127
1, 21080, Note_off_c, 1, 73, 0
1, 21080, Note_off_c, 1, 85, 0
1, 21146, Note_on_c, 1, 67, 127
1, 21165, Note_off_c, 1, 71, 0
1, 21165, Note_off_c, 1, 83, 0
1, 21269, Note_off_c, 1, 103, 0
1, 21276, Note_off_c, 1, 79, 0
1, 21276, Note_off_c, 1, 67, 0
1, 21290, Note_on_c, 1, 64, 127
1, 21332, Note_on_c, 1, 95, 127
1, 21398, Note_on_c, 1, 66, 127
1, 21415, Note_off_c, 1, 64, 0
1, 21465, Note_off_c, 1, 95, 0
1, 21538, Note_off_c, 1, 66, 0
1, 21575, Note_off_c, 1, 52, 0
1, 21575, Note_off_c, 1, 40, 0
1, 21682, Note_on_c, 1, 69, 127
1, 21682, Note_on_c, 1, 81, 127
1, 21808, Note_off_c, 1, 69, 0
1, 21808, Note_off_c, 1, 81, 0
1, 22046, Note_on_c, 1, 47, 127
1, 22046, Note_on_c, 1, 35, 127
1, 22050, Note_on_c, 1, 74, 127
1, 22050, Note_on_c, 1, 86, 127
1, 22179, Note_on_c, 1, 98, 127
1, 22195, Note_off_c, 1, 86, 0
1, 22295, Note_off_c, 1, 74, 0
1, 22295, Note_off_c, 1, 98, 0
1, 22409, Note_on_c, 1, 97, 127
1, 22508, Note_off_c, 1, 97, 0
1, 22567, Note_off_c, 1, 47, 0
1, 22567, Note_off_c, 1, 35, 0
1, 22899, Note_on_c, 1, 79, 127
1, 22899, Note_on_c, 1, 103, 127
1, 22977, Note_off_c, 1, 79, 0
1, 22977, Note_off_c, 1, 103, 0
1, 22996, Note_on_c, 1, 73, 127
1, 22996, Note_on_c, 1, 85, 127
1, 23016, Note_on_c, 1, 54, 127
1, 23016, Note_on_c, 1, 42, 127
1, 23034, Note_on_c, 1, 81, 127
1, 23034, Note_on_c, 1, 105, 127
1, 23160, Note_on_c, 1, 79, 127
1, 23160, Note_on_c, 1, 103, 127
1, 23166, Note_off_c, 1, 81, 0
1, 23166, Note_off_c, 1, 105, 0
1, 23231, Note_off_c, 1, 73, 0
1, 23231, Note_off_c, 1, 85, 0
1, 23236, Note_on_c, 1, 69, 127
1, 23285, Note_on_c, 1, 78, 127
1, 23285, Note_on_c, 1, 102, 127
1, 23295, Note_off_c, 1, 79, 0
1, 23295, Note_off_c, 1, 103, 0
1, 23347, Note_off_c, 1, 69, 0
1, 23392, Note_off_c, 1, 78, 0
1, 23392, Note_off_c, 1, 102, 0
1, 23404, Note_on_c, 1, 76, 127
1, 23404, Note_on_c, 1, 100, 127
1, 23497, Note_on_c, 1, 66, 127
1, 23500, Note_off_c, 1, 54, 0
1, 23500, Note_off_c, 1, 42, 0
1, 23519, Note_off_c, 1, 76, 0
1, 23519, Note_off_c, 1, 100, 0
1, 23519, Note_on_c, 1, 74, 127
1, 23519, Note_on_c, 1, 98, 127
1, 23622, Note_off_c, 1, 74, 0
1, 23622, Note_off_c, 1, 98, 0
1, 23623, Note_off_c, 1, 66, 0
1, 23627, Note_on_c, 1, 73, 127
1, 23627, Note_on_c, 1, 97, 127
1, 23736, Note_on_c, 1, 71, 127
1, 23736, Note_on_c, 1, 95, 127
1, 23738, Note_on_c, 1, 47, 127
1, 23738, Note_on_c, 1, 35, 127
1, 23739, Note_off_c, 1, 73, 0
1, 23739, Note_off_c, 1, 97, 0
1, 23744, Note_on_c, 1, 74, 127
1, 23744, Note_on_c, 1, 86, 127
1, 23824, Note_off_c, 1, 71, 0
1, 23824, Note_off_c, 1, 95, 0
1, 23833, Note_off_c, 1, 47, 0
1, 23833, Note_off_c, 1, 35, 0
1, 23842, Note_off_c, 1, 74, 0
1, 23842, Note_off_c, 1, 86, 0
1, 23859, Note_on_c, 1, 81, 127
1, 23859, Note_on_c, 1, 105, 127
1, 23937, Note_off_c, 1, 81, 0
1, 23937, Note_off_c, 1, 105, 0
1, 23966, Note_on_c, 1, 52, 127
1, 23966, Note_on_c, 1, 40, 127
1, 23978, Note_on_c, 1, 71, 127
1, 23978, Note_on_c, 1, 83, 127
1, 23979, Note_on_c, 1, 79, 127
1, 23979, Note_on_c, 1, 103, 127
1, 24099, Note_on_c, 1, 78, 127
1, 24099, Note_on_c, 1, 102, 127
1, 24106, Note_off_c, 1, 79, 0
1, 24106, Note_off_c, 1, 103, 0
1, 24196, Note_on_c, 1, 67, 127
1, 24219, Note_off_c, 1, 78, 0
1, 24219, Note_off_c, 1, 102, 0
1, 24220, Note_on_c, 1, 76, 127
1, 24220, Note_on_c, 1, 100, 127
1, 24227, Note_off_c, 1, 71, 0
1, 24227, Note_off_c, 1, 83, 0
1, 24314, Note_off_c, 1, 67, 0
1, 24335, Note_on_c, 1, 74, 127
1, 24335, Note_on_c, 1, 98, 127
1, 24340, Note_off_c, 1, 76, 0
1, 24340, Note_off_c, 1, 100, 0
1, 24438, Note_off_c, 1, 74, 0
1, 24438, Note_off_c, 1, 98, 0
1, 24449, Note_on_c, 1, 73, 127
1, 24449, Note_on_c, 1, 97, 127
1, 24456, Note_on_c, 1, 64, 127
1, 24487, Note_off_c, 1, 52, 0
1, 24487, Note_off_c, 1, 40, 0
1, 24555, Note_on_c, 1, 95, 127
1, 24559, Note_off_c, 1, 73, 0
1, 24559, Note_off_c, 1, 97, 0
1, 24580, Note_off_c, 1, 64, 0
1, 24678, Note_on_c, 1, 69, 127
1, 24678, Note_on_c, 1, 93, 127
1, 24681, Note_on_c, 1, 45, 127
1, 24681, Note_on_c, 1, 33, 127
1, 24683, Note_off_c, 1, 95, 0
1, 24694, Note_on_c, 1, 85, 127
1, 24740, Note_off_c, 1, 69, 0
1, 24740, Note_off_c, 1, 93, 0
1, 24770, Note_off_c, 1, 45, 0
1, 24770, Note_off_c, 1, 33, 0
1, 24825, Note_off_c, 1, 85, 0
1, 24907, Note_on_c, 1, 50, 127
1, 24907, Note_on_c, 1, 38, 127
1, 24915, Note_on_c, 1, 69, 127
1, 24915, Note_on_c, 1, 81, 127
1, 24929, Note_on_c, 1, 78, 127
1, 24929, Note_on_c, 1, 102, 127
1, 25045, Note_on_c, 1, 76, 127
1, 25045, Note_on_c, 1, 100, 127
1, 25048, Note_off_c, 1, 78, 0
1, 25048, Note_off_c, 1, 102, 0
1, 25168, Note_off_c, 1, 76, 0
1, 25168, Note_off_c, 1, 100, 0
1, 25171, Note_on_c, 1, 74, 127
1, 25171, Note_on_c, 1, 98, 127
1, 25173, Note_on_c, 1, 66, 127
1, 25211, Note_off_c, 1, 69, 0
1, 25211, Note_off_c, 1, 81, 0
1, 25274, Note_off_c, 1, 66, 0
1, 25293, Note_off_c, 1, 74, 0
1, 25293, Note_off_c, 1, 98, 0
1, 25297, Note_on_c, 1, 73, 127
1, 25297, Note_on_c, 1, 97, 127
1, 25402, Note_off_c, 1, 50, 0
1, 25402, Note_off_c, 1, 38, 0
1, 25405, Note_on_c, 1, 62, 127
1, 25412, Note_off_c, 1, 73, 0
1, 25412, Note_off_c, 1, 97, 0
1, 25413, Note_on_c, 1, 71, 127
1, 25413, Note_on_c, 1, 95, 127
1, 25517, Note_off_c, 1, 62, 0
1, 25523, Note_off_c, 1, 71, 0
1, 25523, Note_off_c, 1, 95, 0
1, 25531, Note_on_c, 1, 69, 127
1, 25531, Note_on_c, 1, 93, 127
1, 25643, Note_off_c, 1, 69, 0
1, 25643, Note_off_c, 1, 93, 0
1, 25649, Note_on_c, 1, 67, 127
1, 25649, Note_on_c, 1, 91, 127
1, 25652, Note_on_c, 1, 55, 127
1, 25652, Note_on_c, 1, 43, 127
1, 25655, Note_on_c, 1, 71, 127
1, 25655, Note_on_c, 1, 83, 127
1, 25742, Note_off_c, 1, 67, 0
1, 25742, Note_off_c, 1, 91, 0
1, 25755, Note_on_c, 1, 66, 127
1, 25755, Note_on_c, 1, 90, 127
1, 25786, Note_off_c, 1, 71, 0
1, 25786, Note_off_c, 1, 83, 0
1, 25888, Note_off_c, 1, 66, 0
1, 25888, Note_off_c, 1, 90, 0
1, 25891, Note_on_c, 1, 64, 127
1, 25891, Note_on_c, 1, 88, 127
1, 25901, Note_on_c, 1, 69, 127
1, 25901, Note_on_c, 1, 81, 127
1, 26021, Note_on_c, 1, 73, 127
1, 26021, Note_on_c, 1, 97, 127
1, 26025, Note_off_c, 1, 64, 0
1, 26025, Note_off_c, 1, 88, 0
1, 26062, Note_off_c, 1, 55, 0
1, 26062, Note_off_c, 1, 43, 0
1, 26129, Note_on_c, 1, 54, 127
1, 26129, Note_on_c, 1, 42, 127
1, 26142, Note_off_c, 1, 73, 0
1, 26142, Note_off_c, 1, 97, 0
1, 26144, Note_on_c, 1, 74, 127
1, 26144, Note_on_c, 1, 98, 127
1, 26202, Note_off_c, 1, 54, 0
1, 26202, Note_off_c, 1, 42, 0
1, 26248, Note_off_c, 1, 69, 0
1, 26248, Note_off_c, 1, 81, 0
1, 26250, Note_on_c, 1, 76, 127
1, 26250, Note_on_c, 1, 100, 127
1, 26253, Note_on_c, 1, 79, 127
1, 26269, Note_off_c, 1, 74, 0
1, 26269, Note_off_c, 1, 98, 0
1, 26342, Note_off_c, 1, 76, 0
1, 26342, Note_off_c, 1, 100, 0
1, 26370, Note_on_c, 1, 57, 127
1, 26370, Note_on_c, 1, 45, 127
1, 26381, Note_off_c, 1, 79, 0
1, 26403, Note_on_c, 1, 78, 127
1, 26507, Note_off_c, 1, 78, 0
1, 26548, Note_off_c, 1, 57, 0
1, 26548, Note_off_c, 1, 45, 0
1, 26549, Note_on_c, 1, 73, 127
1, 26549, Note_on_c, 1, 97, 127
1, 26585, Note_on_c, 1, 74, 127
1, 26585, Note_on_c, 1, 98, 127
1, 26594, Note_off_c, 1, 73, 0
1, 26594, Note_off_c, 1, 97, 0
1, 26602, Note_on_c, 1, 64, 127
1, 26602, Note_on_c, 1, 76, 127
1, 26608, Note_on_c, 1, 45, 127
1, 26608, Note_on_c, 1, 33, 127
1, 26636, Note_off_c, 1, 74, 0
1, 26636, Note_off_c, 1, 98, 0
1, 26709, Note_off_c, 1, 45, 0
1, 26709, Note_off_c, 1, 33, 0
1, 26711, Note_on_c, 1, 62, 127
1, 26721, Note_off_c, 1, 64, 0
1, 26721, Note_off_c, 1, 76, 0
1, 26760, Note_off_c, 1, 62, 0
1, 26848, Note_on_c, 1, 62, 127
1, 26848, Note_on_c, 1, 74, 127
1, 26856, Note_on_c, 1, 98, 127
1, 26861, Note_on_c, 1, 50, 127
1, 26861, Note_on_c, 1, 38, 127
1, 26964, Note_on_c, 1, 57, 127
1, 26964, Note_on_c, 1, 69, 127
1, 26968, Note_off_c, 1, 62, 0
1, 26987, Note_off_c, 1, 74, 0
1, 26987, Note_off_c, 1, 98, 0
1, 27099, Note_on_c, 1, 93, 127
1, 27102, Note_off_c, 1, 57, 0
1, 27213, Note_on_c, 1, 64, 127
1, 27213, Note_on_c, 1, 76, 127
1, 27316, Note_off_c, 1, 64, 0
1, 27316, Note_off_c, 1, 76, 0
1, 27343, Note_on_c, 1, 66, 127
1, 27343, Note_on_c, 1, 78, 127
1, 27357, Note_off_c, 1, 69, 0
1, 27357, Note_off_c, 1, 93, 0
1, 27375, Note_off_c, 1, 50, 0
1, 27375, Note_off_c, 1, 38, 0
1, 27462, Note_on_c, 1, 67, 127
1, 27462, Note_on_c, 1, 79, 127
1, 27469, Note_off_c, 1, 66, 0
1, 27469, Note_off_c, 1, 78, 0
1, 27573, Note_on_c, 1, 73, 127
1, 27573, Note_on_c, 1, 97, 127
1, 27583, Note_on_c, 1, 81, 127
1, 27587, Note_off_c, 1, 67, 0
1, 27587, Note_off_c, 1, 79, 0
1, 27676, Note_off_c, 1, 73, 0
1, 27676, Note_off_c, 1, 97, 0
1, 27685, Note_off_c, 1, 81, 0
1, 27692, Note_on_c, 1, 67, 127
1, 27692, Note_on_c, 1, 79, 127
1, 27803, Note_off_c, 1, 67, 0
1, 27803, Note_off_c, 1, 79, 0
1, 27812, Note_on_c, 1, 74, 127
1, 27812, Note_on_c, 1, 98, 127
1, 27822, Note_on_c, 1, 66, 127
1, 27822, Note_on_c, 1, 78, 127
1, 27929, Note_on_c, 1, 69, 127
1, 27929, Note_on_c, 1, 93, 127
1, 27934, Note_off_c, 1, 66, 0
1, 27934, Note_off_c, 1, 78, 0
1, 27947, Note_off_c, 1, 74, 0
1, 27947, Note_off_c, 1, 98, 0
1, 28047, Note_on_c, 1, 62, 127
1, 28047, Note_on_c, 1, 86, 127
1, 28050, Note_off_c, 1, 69, 0
1, 28050, Note_off_c, 1, 93, 0
1, 28059, Note_on_c, 1, 81, 127
1, 28059, Note_on_c, 1, 50, 127
1, 28059, Note_on_c, 1, 38, 127
1, 28167, Note_on_c, 1, 64, 127
1, 28167, Note_on_c, 1, 88, 127
1, 28170, Note_off_c, 1, 62, 0
1, 28170, Note_off_c, 1, 86, 0
1, 28236, Note_off_c, 1, 81, 0
1, 28289, Note_on_c, 1, 90, 127
1, 28295, Note_off_c, 1, 64, 0
1, 28295, Note_off_c, 1, 88, 0
1, 28298, Note_on_c, 1, 48, 127
1, 28298, Note_on_c, 1, 36, 127
1, 28327, Note_off_c, 1, 50, 0
1, 28327, Note_off_c, 1, 38, 0
1, 28400, Note_off_c, 1, 90, 0
1, 28401, Note_on_c, 1, 68, 127
1, 28401, Note_on_c, 1, 92, 127
1, 28419, Note_off_c, 1, 48, 0
1, 28419, Note_off_c, 1, 36, 0
1, 28529, Note_off_c, 1, 68, 0
1, 28529, Note_off_c, 1, 92, 0
1, 28537, Note_on_c, 1, 80, 127
1, 28540, Note_on_c, 1, 47, 127
1, 28540, Note_on_c, 1, 35, 127
1, 28642, Note_on_c, 1, 71, 127
1, 28642, Note_on_c, 1, 95, 127
1, 28657, Note_off_c, 1, 47, 0
1, 28657, Note_off_c, 1, 35, 0
1, 28675, Note_off_c, 1, 80, 0
1, 28724, Note_off_c, 1, 71, 0
1, 28724, Note_off_c, 1, 95, 0
1, 28768, Note_on_c, 1, 69, 127
1, 28768, Note_on_c, 1, 81, 127
1, 28770, Note_on_c, 1, 72, 127
1, 28770, Note_on_c, 1, 96, 127
1, 28777, Note_on_c, 1, 45, 127
1, 28777, Note_on_c, 1, 33, 127
1, 28897, Note_on_c, 1, 71, 127
1, 28897, Note_on_c, 1, 95, 127
1, 28900, Note_off_c, 1, 72, 0
1, 28900, Note_off_c, 1, 96, 0
1, 28932, Note_off_c, 1, 69, 0
1, 28932, Note_off_c, 1, 81, 0
1, 29026, Note_on_c, 1, 93, 127
1, 29026, Note_on_c, 1, 64, 127
1, 29026, Note_on_c, 1, 76, 127
1, 29031, Note_off_c, 1, 71, 0
1, 29031, Note_off_c, 1, 95, 0
1, 29128, Note_off_c, 1, 93, 0
1, 29201, Note_off_c, 1, 64, 0
1, 29201, Note_off_c, 1, 76, 0
1, 29300, Note_off_c, 1, 45, 0
1, 29300, Note_off_c, 1, 33, 0
1, 29394, Note_on_c, 1, 74, 127
1, 29394, Note_on_c, 1, 98, 127
1, 29499, Note_on_c, 1, 68, 127
1, 29499, Note_on_c, 1, 80, 127
1, 29509, Note_on_c, 1, 100, 127
1, 29522, Note_off_c, 1, 74, 0
1, 29522, Note_off_c, 1, 98, 0
1, 29637, Note_off_c, 1, 100, 0
1, 29711, Note_off_c, 1, 68, 0
1, 29711, Note_off_c, 1, 80, 0
1, 29972, Note_on_c, 1, 57, 127
1, 30091, Note_on_c, 1, 59, 127
1, 30225, Note_on_c, 1, 61, 127
1, 30225, Note_on_c, 1, 73, 127
1, 30228, Note_on_c, 1, 55, 127
1, 30228, Note_on_c, 1, 43, 127
1, 30231, Note_on_c, 1, 105, 127
1, 30243, Note_off_c, 1, 59, 0
1, 30257, Note_off_c, 1, 57, 0
1, 30333, Note_off_c, 1, 105, 0
1, 30349, Note_on_c, 1, 63, 127
1, 30349, Note_on_c, 1, 75, 127
1, 30355, Note_off_c, 1, 55, 0
1, 30355, Note_off_c, 1, 43, 0
1, 30359, Note_off_c, 1, 61, 0
1, 30359, Note_off_c, 1, 73, 0
1, 30462, Note_on_c, 1, 54, 127
1, 30462, Note_on_c, 1, 42, 127
1, 30465, Note_off_c, 1, 63, 0
1, 30465, Note_on_c, 1, 99, 127
1, 30561, Note_off_c, 1, 54, 0
1, 30561, Note_off_c, 1, 42, 0
1, 30567, Note_off_c, 1, 75, 0
1, 30567, Note_off_c, 1, 99, 0
1, 30579, Note_on_c, 1, 66, 127
1, 30579, Note_on_c, 1, 78, 127
1, 30691, Note_on_c, 1, 52, 127
1, 30691, Note_on_c, 1, 40, 127
1, 30698, Note_on_c, 1, 67, 127
1, 30698, Note_on_c, 1, 79, 127
1, 30705, Note_off_c, 1, 66, 0
1, 30705, Note_off_c, 1, 78, 0
1, 30711, Note_on_c, 1, 76, 127
1, 30711, Note_on_c, 1, 100, 127
1, 30839, Note_off_c, 1, 76, 0
1, 30839, Note_off_c, 1, 100, 0
1, 30845, Note_on_c, 1, 71, 127
1, 30845, Note_on_c, 1, 95, 127
1, 30851, Note_off_c, 1, 67, 0
1, 30851, Note_off_c, 1, 79, 0
1, 30948, Note_off_c, 1, 71, 0
1, 30948, Note_off_c, 1, 95, 0
1, 30949, Note_on_c, 1, 59, 127
1, 31076, Note_on_c, 1, 102, 127
1, 31161, Note_off_c, 1, 59, 0
1, 31186, Note_off_c, 1, 102, 0
1, 31195, Note_on_c, 1, 103, 127
1, 31200, Note_on_c, 1, 64, 127
1, 31221, Note_off_c, 1, 52, 0
1, 31221, Note_off_c, 1, 40, 0
1, 31309, Note_on_c, 1, 81, 127
1, 31309, Note_on_c, 1, 105, 127
1, 31312, Note_off_c, 1, 103, 0
1, 31421, Note_off_c, 1, 81, 0
1, 31421, Note_off_c, 1, 105, 0
1, 31422, Note_on_c, 1, 63, 127
1, 31422, Note_on_c, 1, 75, 127
1, 31429, Note_on_c, 1, 83, 127
1, 31429, Note_on_c, 1, 107, 127
1, 31430, Note_off_c, 1, 64, 0
1, 31516, Note_off_c, 1, 83, 0
1, 31516, Note_off_c, 1, 107, 0
1, 31647, Note_off_c, 1, 63, 0
1, 31647, Note_off_c, 1, 75, 0
1, 32132, Note_on_c, 1, 76, 127
1, 32132, Note_on_c, 1, 100, 127
1, 32134, Note_on_c, 1, 67, 127
1, 32134, Note_on_c, 1, 79, 127
1, 32241, Note_off_c, 1, 67, 0
1, 32241, Note_off_c, 1, 79, 0
1, 32250, Note_on_c, 1, 69, 127
1, 32250, Note_on_c, 1, 81, 127
1, 32288, Note_off_c, 1, 76, 0
1, 32288, Note_off_c, 1, 100, 0
1, 32368, Note_on_c, 1, 71, 127
1, 32368, Note_on_c, 1, 83, 127
1, 32371, Note_off_c, 1, 69, 0
1, 32371, Note_off_c, 1, 81, 0
1, 32376, Note_on_c, 1, 75, 127
1, 32376, Note_on_c, 1, 99, 127
1, 32484, Note_off_c, 1, 71, 0
1, 32484, Note_off_c, 1, 83, 0
1, 32495, Note_off_c, 1, 75, 0
1, 32495, Note_off_c, 1, 99, 0
1, 32613, Note_on_c, 1, 67, 127
1, 32613, Note_on_c, 1, 79, 127
1, 32616, Note_on_c, 1, 76, 127
1, 32616, Note_on_c, 1, 100, 127
1, 32709, Note_off_c, 1, 67, 0
1, 32709, Note_off_c, 1, 79, 0
1, 32740, Note_off_c, 1, 76, 0
1, 32740, Note_off_c, 1, 100, 0
1, 32741, Note_on_c, 1, 78, 127
1, 32741, Note_on_c, 1, 102, 127
1, 32850, Note_on_c, 1, 52, 127
1, 32850, Note_on_c, 1, 40, 127
1, 32851, Note_on_c, 1, 71, 127
1, 32851, Note_on_c, 1, 83, 127
1, 32865, Note_off_c, 1, 78, 0
1, 32865, Note_off_c, 1, 102, 0
1, 32867, Note_on_c, 1, 79, 127
1, 32867, Note_on_c, 1, 103, 127
1, 32977, Note_on_c, 1, 81, 127
1, 32977, Note_on_c, 1, 105, 127
1, 32980, Note_off_c, 1, 79, 0
1, 32980, Note_off_c, 1, 103, 0
1, 33059, Note_off_c, 1, 81, 0
1, 33059, Note_off_c, 1, 105, 0
1, 33091, Note_on_c, 1, 55, 127
1, 33091, Note_on_c, 1, 43, 127
1, 33096, Note_off_c, 1, 71, 0
1, 33096, Note_off_c, 1, 83, 0
1, 33101, Note_on_c, 1, 76, 127
1, 33101, Note_on_c, 1, 88, 127
1, 33106, Note_on_c, 1, 107, 127
1, 33113, Note_off_c, 1, 52, 0
1, 33113, Note_off_c, 1, 40, 0
1, 33185, Note_off_c, 1, 55, 0
1, 33185, Note_off_c, 1, 43, 0
1, 33220, Note_on_c, 1, 84, 127
1, 33220, Note_on_c, 1, 108, 127
1, 33225, Note_off_c, 1, 107, 0
1, 33290, Note_off_c, 1, 76, 0
1, 33290, Note_off_c, 1, 88, 0
1, 33327, Note_on_c, 1, 59, 127
1, 33327, Note_on_c, 1, 47, 127
1, 33329, Note_on_c, 1, 75, 127
1, 33329, Note_on_c, 1, 87, 127
1, 33352, Note_off_c, 1, 84, 0
1, 33352, Note_off_c, 1, 108, 0
1, 33450, Note_off_c, 1, 59, 0
1, 33450, Note_off_c, 1, 47, 0
1, 33485, Note_off_c, 1, 75, 0
1, 33485, Note_off_c, 1, 87, 0
1, 33820, Note_on_c, 1, 91, 127
1, 34035, Note_on_c, 1, 99, 127
1, 34046, Note_on_c, 1, 90, 127
1, 34068, Note_off_c, 1, 91, 0
1, 34148, Note_off_c, 1, 99, 0
1, 34262, Note_off_c, 1, 90, 0
1, 34270, Note_on_c, 1, 75, 127
1, 34270, Note_on_c, 1, 87, 127
1, 34282, Note_on_c, 1, 83, 127
1, 34282, Note_on_c, 1, 107, 127
1, 34372, Note_off_c, 1, 83, 0
1, 34372, Note_off_c, 1, 107, 0
1, 34405, Note_on_c, 1, 81, 127
1, 34405, Note_on_c, 1, 105, 127
1, 34475, Note_off_c, 1, 81, 0
1, 34475, Note_off_c, 1, 105, 0
1, 34502, Note_off_c, 1, 75, 0
1, 34502, Note_off_c, 1, 87, 0
1, 34505, Note_on_c, 1, 76, 127
1, 34505, Note_on_c, 1, 88, 127
1, 34535, Note_on_c, 1, 79, 127
1, 34535, Note_on_c, 1, 103, 127
1, 34620, Note_off_c, 1, 76, 0
1, 34620, Note_off_c, 1, 88, 0
1, 34626, Note_on_c, 1, 66, 127
1, 34626, Note_on_c, 1, 78, 127
1, 34654, Note_off_c, 1, 79, 0
1, 34654, Note_off_c, 1, 103, 0
1, 34695, Note_off_c, 1, 66, 0
1, 34695, Note_off_c, 1, 78, 0
1, 34746, Note_on_c, 1, 67, 127
1, 34746, Note_on_c, 1, 79, 127
1, 34776, Note_on_c, 1, 52, 127
1, 34776, Note_on_c, 1, 40, 127
1, 34802, Note_on_c, 1, 71, 127
1, 34802, Note_on_c, 1, 95, 127
1, 34868, Note_on_c, 1, 69, 127
1, 34868, Note_on_c, 1, 81, 127
1, 34886, Note_off_c, 1, 67, 0
1, 34886, Note_off_c, 1, 79, 0
1, 34977, Note_off_c, 1, 71, 0
1, 34977, Note_off_c, 1, 95, 0
1, 34998, Note_off_c, 1, 69, 0
1, 34998, Note_off_c, 1, 81, 0
1, 35000, Note_on_c, 1, 55, 127
1, 35000, Note_on_c, 1, 43, 127
1, 35019, Note_on_c, 1, 83, 127
1, 35022, Note_off_c, 1, 52, 0
1, 35022, Note_off_c, 1, 40, 0
1, 35043, Note_on_c, 1, 76, 127
1, 35043, Note_on_c, 1, 100, 127
1, 35097, Note_off_c, 1, 55, 0
1, 35097, Note_off_c, 1, 43, 0
1, 35145, Note_on_c, 1, 72, 127
1, 35145, Note_on_c, 1, 84, 127
1, 35152, Note_off_c, 1, 83, 0
1, 35153, Note_off_c, 1, 76, 0
1, 35153, Note_off_c, 1, 100, 0
1, 35251, Note_on_c, 1, 59, 127
1, 35251, Note_on_c, 1, 47, 127
1, 35281, Note_on_c, 1, 75, 127
1, 35281, Note_on_c, 1, 99, 127
1, 35287, Note_off_c, 1, 72, 0
1, 35287, Note_off_c, 1, 84, 0
1, 35352, Note_off_c, 1, 59, 0
1, 35352, Note_off_c, 1, 47, 0
1, 35378, Note_off_c, 1, 75, 0
1, 35378, Note_off_c, 1, 99, 0
1, 35767, Note_on_c, 1, 103, 127
1, 35864, Note_on_c, 1, 88, 127
1, 35987, Note_off_c, 1, 88, 0
1, 35989, Note_on_c, 1, 87, 127
1, 35996, Note_on_c, 1, 78, 127
1, 35996, Note_on_c, 1, 102, 127
1, 36008, Note_off_c, 1, 103, 0
1, 36111, Note_on_c, 1, 73, 127
1, 36111, Note_on_c, 1, 85, 127
1, 36121, Note_off_c, 1, 87, 0
1, 36134, Note_off_c, 1, 78, 0
1, 36134, Note_off_c, 1, 102, 0
1, 36212, Note_on_c, 1, 35, 127
1, 36227, Note_off_c, 1, 73, 0
1, 36227, Note_off_c, 1, 85, 0
1, 36316, Note_off_c, 1, 35, 0
1, 36701, Note_on_c, 1, 64, 127
1, 36826, Note_off_c, 1, 64, 0
1, 37084, Note_on_c, 1, 105, 127
1, 37177, Note_off_c, 1, 105, 0
1, 37405, Note_on_c, 1, 97, 127
1, 37424, Note_on_c, 1, 54, 127
1, 37424, Note_on_c, 1, 42, 127
1, 37519, Note_on_c, 1, 74, 127
1, 37519, Note_on_c, 1, 98, 127
1, 37533, Note_off_c, 1, 97, 0
1, 37641, Note_off_c, 1, 74, 0
1, 37641, Note_off_c, 1, 98, 0
1, 37940, Note_off_c, 1, 54, 0
1, 37940, Note_off_c, 1, 42, 0
1, 38488, Note_on_c, 1, 96, 127
1, 38601, Note_off_c, 1, 96, 0
1, 38740, Note_on_c, 1, 66, 127
1, 38870, Note_off_c, 1, 66, 0
1, 39094, Note_on_c, 1, 60, 127
1, 39094, Note_on_c, 1, 48, 127
1, 39189, Note_off_c, 1, 60, 0
1, 39189, Note_off_c, 1, 48, 0
1, 39330, Note_on_c, 1, 57, 127
1, 39330, Note_on_c, 1, 45, 127
1, 39529, Note_off_c, 1, 57, 0
1, 39529, Note_off_c, 1, 45, 0
1, 40265, Note_on_c, 1, 67, 127
1, 40265, Note_on_c, 1, 79, 127
1, 40271, Note_on_c, 1, 52, 127
1, 40271, Note_on_c, 1, 40, 127
1, 40286, Note_on_c, 1, 76, 127
1, 40286, Note_on_c, 1, 100, 127
1, 40384, Note_off_c, 1, 76, 0
1, 40384, Note_off_c, 1, 100, 0
1, 40386, Note_off_c, 1, 52, 0
1, 40386, Note_off_c, 1, 40, 0
1, 40389, Note_off_c, 1, 67, 0
1, 40389, Note_off_c, 1, 79, 0
1, 40513, Note_on_c, 1, 64, 127
1, 40513, Note_on_c, 1, 76, 127
1, 40515, Note_on_c, 1, 59, 127
1, 40515, Note_on_c, 1, 47, 127
1, 40542, Note_on_c, 1, 79, 127
1, 40542, Note_on_c, 1, 103, 127
1, 40660, Note_off_c, 1, 79, 0
1, 40660, Note_off_c, 1, 103, 0
1, 40661, Note_off_c, 1, 59, 0
1, 40661, Note_off_c, 1, 47, 0
1, 40661, Note_on_c, 1, 78, 127
1, 40661, Note_on_c, 1, 102, 127
1, 40697, Note_off_c, 1, 64, 0
1, 40697, Note_off_c, 1, 76, 0
1, 40748, Note_on_c, 1, 55, 127
1, 40748, Note_on_c, 1, 43, 127
1, 40776, Note_off_c, 1, 78, 0
1, 40776, Note_off_c, 1, 102, 0
1, 40777, Note_on_c, 1, 100, 127
1, 40898, Note_on_c, 1, 74, 127
1, 40898, Note_on_c, 1, 98, 127
1, 40900, Note_off_c, 1, 100, 0
1, 40941, Note_off_c, 1, 55, 0
1, 40941, Note_off_c, 1, 43, 0
1, 40986, Note_on_c, 1, 52, 127
1, 40986, Note_on_c, 1, 40, 127
1, 41019, Note_on_c, 1, 73, 127
1, 41019, Note_on_c, 1, 97, 127
1, 41023, Note_off_c, 1, 74, 0
1, 41023, Note_off_c, 1, 98, 0
1, 41088, Note_off_c, 1, 52, 0
1, 41088, Note_off_c, 1, 40, 0
1, 41112, Note_off_c, 1, 73, 0
1, 41112, Note_off_c, 1, 97, 0
1, 41126, Note_on_c, 1, 71, 127
1, 41126, Note_on_c, 1, 95, 127
1, 41223, Note_on_c, 1, 49, 127
1, 41223, Note_on_c, 1, 37, 127
1, 41249, Note_on_c, 1, 69, 127
1, 41249, Note_on_c, 1, 93, 127
1, 41263, Note_off_c, 1, 71, 0
1, 41263, Note_off_c, 1, 95, 0
1, 41356, Note_off_c, 1, 49, 0
1, 41356, Note_off_c, 1, 37, 0
1, 41385, Note_off_c, 1, 69, 0
1, 41385, Note_off_c, 1, 93, 0
1, 41482, Note_on_c, 1, 45, 127
1, 41482, Note_on_c, 1, 33, 127
1, 41487, Note_on_c, 1, 73, 127
1, 41487, Note_on_c, 1, 85, 127
1, 41488, Note_on_c, 1, 76, 127
1, 41488, Note_on_c, 1, 100, 127
1, 41600, Note_on_c, 1, 71, 127
1, 41600, Note_on_c, 1, 83, 127
1, 41609, Note_off_c, 1, 73, 0
1, 41609, Note_off_c, 1, 85, 0
1, 41644, Note_off_c, 1, 45, 0
1, 41644, Note_off_c, 1, 33, 0
1, 41658, Note_off_c, 1, 76, 0
1, 41658, Note_off_c, 1, 100, 0
1, 41715, Note_on_c, 1, 55, 127
1, 41715, Note_on_c, 1, 43, 127
1, 41727, Note_on_c, 1, 97, 127
1, 41729, Note_off_c, 1, 71, 0
1, 41729, Note_off_c, 1, 83, 0
1, 41732, Note_on_c, 1, 69, 127
1, 41732, Note_on_c, 1, 81, 127
1, 41803, Note_off_c, 1, 97, 0
1, 41844, Note_off_c, 1, 69, 0
1, 41844, Note_off_c, 1, 81, 0
1, 41845, Note_on_c, 1, 67, 127
1, 41845, Note_on_c, 1, 79, 127
1, 41956, Note_on_c, 1, 66, 127
1, 41956, Note_on_c, 1, 78, 127
1, 41959, Note_off_c, 1, 67, 0
1, 41959, Note_off_c, 1, 79, 0
1, 41972, Note_off_c, 1, 55, 0
1, 41972, Note_off_c, 1, 43, 0
1, 41979, Note_on_c, 1, 93, 127
1, 42056, Note_off_c, 1, 66, 0
1, 42056, Note_off_c, 1, 78, 0
1, 42061, Note_on_c, 1, 64, 127
1, 42127, Note_off_c, 1, 93, 0
1, 42197, Note_on_c, 1, 54, 127
1, 42197, Note_on_c, 1, 42, 127
1, 42198, Note_on_c, 1, 62, 127
1, 42198, Note_on_c, 1, 74, 127
1, 42201, Note_off_c, 1, 64, 0
1, 42333, Note_off_c, 1, 62, 0
1, 42333, Note_off_c, 1, 74, 0
1, 42476, Note_on_c, 1, 102, 127
1, 42582, Note_off_c, 1, 54, 0
1, 42582, Note_off_c, 1, 42, 0
1, 42614, Note_off_c, 1, 102, 0
1, 42704, Note_on_c, 1, 30, 127
1, 42710, Note_on_c, 1, 98, 127
1, 42844, Note_off_c, 1, 98, 0
1, 42950, Note_on_c, 1, 95, 127
1, 43030, Note_off_c, 1, 95, 0
1, 43180, Note_on_c, 1, 91, 127
1, 43416, Note_off_c, 1, 91, 0
1, 43446, Note_off_c, 1, 30, 0
1, 44143, Note_on_c, 1, 61, 127
1, 44143, Note_on_c, 1, 73, 127
1, 44148, Note_on_c, 1, 52, 127
1, 44148, Note_on_c, 1, 40, 127
1, 44296, Note_off_c, 1, 61, 0
1, 44296, Note_off_c, 1, 73, 0
1, 44394, Note_on_c, 1, 76, 127
1, 44394, Note_on_c, 1, 100, 127
1, 44403, Note_on_c, 1, 67, 127
1, 44403, Note_on_c, 1, 79, 127
1, 44453, Note_off_c, 1, 52, 0
1, 44453, Note_off_c, 1, 40, 0
1, 44511, Note_on_c, 1, 74, 127
1, 44511, Note_on_c, 1, 98, 127
1, 44516, Note_off_c, 1, 76, 0
1, 44516, Note_off_c, 1, 100, 0
1, 44537, Note_off_c, 1, 67, 0
1, 44537, Note_off_c, 1, 79, 0
1, 44611, Note_on_c, 1, 97, 127
1, 44630, Note_on_c, 1, 28, 127
1, 44635, Note_off_c, 1, 74, 0
1, 44635, Note_off_c, 1, 98, 0
1, 44642, Note_on_c, 1, 64, 127
1, 44733, Note_off_c, 1, 97, 0
1, 44733, Note_on_c, 1, 71, 127
1, 44733, Note_on_c, 1, 95, 127
1, 44797, Note_off_c, 1, 64, 0
1, 44842, Note_off_c, 1, 71, 0
1, 44842, Note_off_c, 1, 95, 0
1, 44853, Note_on_c, 1, 70, 127
1, 44853, Note_on_c, 1, 94, 127
1, 44944, Note_off_c, 1, 70, 0
1, 44944, Note_off_c, 1, 94, 0
1, 44959, Note_on_c, 1, 68, 127
1, 44959, Note_on_c, 1, 92, 127
1, 45090, Note_on_c, 1, 66, 127
1, 45090, Note_on_c, 1, 90, 127
1, 45094, Note_off_c, 1, 68, 0
1, 45094, Note_off_c, 1, 92, 0
1, 45240, Note_off_c, 1, 66, 0
1, 45240, Note_off_c, 1, 90, 0
1, 45348, Note_off_c, 1, 28, 0
1, 45358, Note_on_c, 1, 82, 127
1, 45466, Note_on_c, 1, 80, 127
1, 45480, Note_off_c, 1, 82, 0
1, 45575, Note_on_c, 1, 78, 127
1, 45581, Note_off_c, 1, 80, 0
1, 45675, Note_off_c, 1, 78, 0
1, 45803, Note_on_c, 1, 62, 127
1, 45833, Note_on_c, 1, 102, 127
1, 45925, Note_off_c, 1, 62, 0
1, 46055, Note_on_c, 1, 50, 127
1, 46055, Note_on_c, 1, 38, 127
1, 46056, Note_on_c, 1, 59, 127
1, 46138, Note_off_c, 1, 59, 0
1, 46199, Note_off_c, 1, 102, 0
1, 46414, Note_off_c, 1, 50, 0
1, 46414, Note_off_c, 1, 38, 0
1, 46521, Note_on_c, 1, 55, 127
1, 46521, Note_on_c, 1, 43, 127
1, 46565, Note_on_c, 1, 72, 127
1, 46565, Note_on_c, 1, 96, 127
1, 46583, Note_off_c, 1, 72, 0
1, 46583, Note_off_c, 1, 96, 0
1, 46680, Note_on_c, 1, 69, 127
1, 46680, Note_on_c, 1, 93, 127
1, 46739, Note_off_c, 1, 69, 0
1, 46739, Note_off_c, 1, 93, 0
1, 46778, Note_on_c, 1, 83, 127
1, 46797, Note_on_c, 1, 91, 127
1, 46879, Note_off_c, 1, 83, 0
1, 46899, Note_off_c, 1, 55, 0
1, 46899, Note_off_c, 1, 43, 0
1, 46916, Note_off_c, 1, 91, 0
1, 47009, Note_on_c, 1, 49, 127
1, 47009, Note_on_c, 1, 37, 127
1, 47012, Note_on_c, 1, 67, 127
1, 47012, Note_on_c, 1, 79, 127
1, 47035, Note_on_c, 1, 76, 127
1, 47035, Note_on_c, 1, 100, 127
1, 47150, Note_off_c, 1, 76, 0
1, 47150, Note_off_c, 1, 100, 0
1, 47152, Note_on_c, 1, 74, 127
1, 47152, Note_on_c, 1, 98, 127
1, 47254, Note_on_c, 1, 64, 127
1, 47255, Note_off_c, 1, 74, 0
1, 47255, Note_off_c, 1, 98, 0
1, 47263, Note_on_c, 1, 73, 127
1, 47263, Note_on_c, 1, 97, 127
1, 47276, Note_off_c, 1, 67, 0
1, 47276, Note_off_c, 1, 79, 0
1, 47381, Note_on_c, 1, 71, 127
1, 47381, Note_on_c, 1, 95, 127
1, 47389, Note_off_c, 1, 49, 0
1, 47389, Note_off_c, 1, 37, 0
1, 47390, Note_off_c, 1, 64, 0
1, 47399, Note_off_c, 1, 73, 0
1, 47399, Note_off_c, 1, 97, 0
1, 47454, Note_off_c, 1, 71, 0
1, 47454, Note_off_c, 1, 95, 0
1, 47496, Note_on_c, 1, 54, 127
1, 47496, Note_on_c, 1, 42, 127
1, 47499, Note_on_c, 1, 61, 127
1, 47499, Note_on_c, 1, 73, 127
1, 47513, Note_on_c, 1, 70, 127
1, 47513, Note_on_c, 1, 94, 127
1, 47608, Note_off_c, 1, 70, 0
1, 47608, Note_off_c, 1, 94, 0
1, 47615, Note_on_c, 1, 68, 127
1, 47615, Note_on_c, 1, 92, 127
1, 47623, Note_off_c, 1, 61, 0
1, 47623, Note_off_c, 1, 73, 0
1, 47735, Note_off_c, 1, 68, 0
1, 47735, Note_off_c, 1, 92, 0
1, 47737, Note_on_c, 1, 66, 127
1, 47737, Note_on_c, 1, 90, 127
1, 47738, Note_on_c, 1, 82, 127
1, 47781, Note_off_c, 1, 66, 0
1, 47781, Note_off_c, 1, 90, 0
1, 47837, Note_off_c, 1, 82, 0
1, 47845, Note_off_c, 1, 54, 0
1, 47845, Note_off_c, 1, 42, 0
1, 47852, Note_on_c, 1, 76, 127
1, 47852, Note_on_c, 1, 100, 127
1, 47924, Note_off_c, 1, 76, 0
1, 47924, Note_off_c, 1, 100, 0
1, 47962, Note_on_c, 1, 66, 127
1, 47962, Note_on_c, 1, 78, 127
1, 47972, Note_on_c, 1, 47, 127
1, 47972, Note_on_c, 1, 35, 127
1, 48019, Note_on_c, 1, 74, 127
1, 48019, Note_on_c, 1, 98, 127
1, 48122, Note_on_c, 1, 73, 127
1, 48122, Note_on_c, 1, 97, 127
1, 48125, Note_off_c, 1, 74, 0
1, 48125, Note_off_c, 1, 98, 0
1, 48204, Note_on_c, 1, 62, 127
1, 48220, Note_off_c, 1, 73, 0
1, 48220, Note_off_c, 1, 97, 0
1, 48225, Note_off_c, 1, 66, 0
1, 48225, Note_off_c, 1, 78, 0
1, 48235, Note_on_c, 1, 71, 127
1, 48235, Note_on_c, 1, 95, 127
1, 48308, Note_off_c, 1, 47, 0
1, 48308, Note_off_c, 1, 35, 0
1, 48335, Note_on_c, 1, 69, 127
1, 48335, Note_on_c, 1, 93, 127
1, 48337, Note_off_c, 1, 71, 0
1, 48337, Note_off_c, 1, 95, 0
1, 48358, Note_off_c, 1, 62, 0
1, 48397, Note_off_c, 1, 69, 0
1, 48397, Note_off_c, 1, 93, 0
1, 48453, Note_on_c, 1, 59, 127
1, 48453, Note_on_c, 1, 71, 127
1, 48456, Note_on_c, 1, 67, 127
1, 48456, Note_on_c, 1, 91, 127
1, 48462, Note_on_c, 1, 52, 127
1, 48462, Note_on_c, 1, 40, 127
1, 48575, Note_on_c, 1, 66, 127
1, 48575, Note_on_c, 1, 90, 127
1, 48585, Note_off_c, 1, 59, 0
1, 48585, Note_off_c, 1, 71, 0
1, 48591, Note_off_c, 1, 67, 0
1, 48591, Note_off_c, 1, 91, 0
1, 48674, Note_off_c, 1, 66, 0
1, 48674, Note_off_c, 1, 90, 0
1, 48691, Note_on_c, 1, 64, 127
1, 48691, Note_on_c, 1, 88, 127
1, 48699, Note_on_c, 1, 79, 127
1, 48784, Note_off_c, 1, 79, 0
1, 48797, Note_off_c, 1, 64, 0
1, 48797, Note_off_c, 1, 88, 0
1, 48798, Note_on_c, 1, 62, 127
1, 48798, Note_on_c, 1, 86, 127
1, 48926, Note_on_c, 1, 61, 127
1, 48926, Note_on_c, 1, 85, 127
1, 48944, Note_on_c, 1, 78, 127
1, 48953, Note_off_c, 1, 62, 0
1, 48953, Note_off_c, 1, 86, 0
1, 48981, Note_off_c, 1, 61, 0
1, 48981, Note_off_c, 1, 85, 0
1, 49064, Note_on_c, 1, 70, 127
1, 49064, Note_on_c, 1, 94, 127
1, 49075, Note_off_c, 1, 52, 0
1, 49075, Note_off_c, 1, 40, 0
1, 49162, Note_on_c, 1, 50, 127
1, 49162, Note_on_c, 1, 38, 127
1, 49185, Note_on_c, 1, 95, 127
1, 49187, Note_off_c, 1, 70, 0
1, 49187, Note_off_c, 1, 94, 0
1, 49270, Note_off_c, 1, 50, 0
1, 49270, Note_off_c, 1, 38, 0
1, 49282, Note_off_c, 1, 95, 0
1, 49283, Note_on_c, 1, 73, 127
1, 49283, Note_on_c, 1, 97, 127
1, 49283, Note_on_c, 1, 76, 127
1, 49289, Note_off_c, 1, 78, 0
1, 49336, Note_off_c, 1, 73, 0
1, 49336, Note_off_c, 1, 97, 0
1, 49396, Note_off_c, 1, 76, 0
1, 49412, Note_on_c, 1, 71, 127
1, 49412, Note_on_c, 1, 95, 127
1, 49414, Note_on_c, 1, 62, 127
1, 49414, Note_on_c, 1, 74, 127
1, 49425, Note_on_c, 1, 54, 127
1, 49425, Note_on_c, 1, 42, 127
1, 49462, Note_off_c, 1, 71, 0
1, 49462, Note_off_c, 1, 95, 0
1, 49463, Note_on_c, 1, 70, 127
1, 49463, Note_on_c, 1, 94, 127
1, 49528, Note_off_c, 1, 70, 0
1, 49528, Note_off_c, 1, 94, 0
1, 49627, Note_off_c, 1, 54, 0
1, 49627, Note_off_c, 1, 42, 0
1, 49629, Note_off_c, 1, 62, 0
1, 49629, Note_off_c, 1, 74, 0
1, 49636, Note_on_c, 1, 70, 127
1, 49636, Note_on_c, 1, 94, 127
1, 49637, Note_on_c, 1, 61, 127
1, 49637, Note_on_c, 1, 73, 127
1, 49657, Note_on_c, 1, 42, 127
1, 49657, Note_on_c, 1, 30, 127
1, 49752, Note_off_c, 1, 61, 0
1, 49752, Note_off_c, 1, 73, 0
1, 49763, Note_on_c, 1, 59, 127
1, 49763, Note_on_c, 1, 71, 127
1, 49766, Note_on_c, 1, 95, 127
1, 49772, Note_off_c, 1, 42, 0
1, 49772, Note_off_c, 1, 30, 0
1, 49779, Note_off_c, 1, 70, 0
1, 49779, Note_off_c, 1, 94, 0
1, 49834, Note_off_c, 1, 59, 0
1, 49836, Note_off_c, 1, 71, 0
1, 49836, Note_off_c, 1, 95, 0
1, 49892, Note_on_c, 1, 71, 127
1, 49892, Note_on_c, 1, 95, 127
1, 49894, Note_on_c, 1, 47, 127
1, 49894, Note_on_c, 1, 35, 127
1, 49896, Note_on_c, 1, 59, 127
1, 49987, Note_off_c, 1, 59, 0
1, 50002, Note_off_c, 1, 71, 0
1, 50002, Note_off_c, 1, 95, 0
1, 50161, Note_on_c, 1, 66, 127
1, 50161, Note_on_c, 1, 78, 127
1, 50259, Note_on_c, 1, 73, 127
1, 50259, Note_on_c, 1, 97, 127
1, 50376, Note_off_c, 1, 73, 0
1, 50376, Note_off_c, 1, 97, 0
1, 50382, Note_off_c, 1, 66, 0
1, 50382, Note_off_c, 1, 78, 0
1, 50385, Note_on_c, 1, 74, 127
1, 50385, Note_on_c, 1, 98, 127
1, 50389, Note_on_c, 1, 83, 127
1, 50400, Note_off_c, 1, 47, 0
1, 50400, Note_off_c, 1, 35, 0
1, 50497, Note_off_c, 1, 74, 0
1, 50497, Note_off_c, 1, 98, 0
1, 50499, Note_on_c, 1, 76, 127
1, 50499, Note_on_c, 1, 100, 127
1, 50520, Note_off_c, 1, 83, 0
1, 50617, Note_on_c, 1, 102, 127
1, 50618, Note_on_c, 1, 70, 127
1, 50618, Note_on_c, 1, 82, 127
1, 50625, Note_off_c, 1, 76, 0
1, 50625, Note_off_c, 1, 100, 0
1, 50712, Note_off_c, 1, 102, 0
1, 50753, Note_off_c, 1, 70, 0
1, 50753, Note_off_c, 1, 82, 0
1, 50851, Note_on_c, 1, 74, 127
1, 50851, Note_on_c, 1, 98, 127
1, 50860, Note_on_c, 1, 71, 127
1, 50860, Note_on_c, 1, 83, 127
1, 50976, Note_off_c, 1, 74, 0
1, 50976, Note_off_c, 1, 98, 0
1, 50976, Note_on_c, 1, 59, 127
1, 50985, Note_off_c, 1, 83, 0
1, 51082, Note_on_c, 1, 78, 127
1, 51082, Note_on_c, 1, 102, 127
1, 51084, Note_off_c, 1, 71, 0
1, 51084, Note_off_c, 1, 59, 0
1, 51206, Note_on_c, 1, 73, 127
1, 51206, Note_on_c, 1, 85, 127
1, 51324, Note_on_c, 1, 107, 127
1, 51328, Note_off_c, 1, 78, 0
1, 51328, Note_off_c, 1, 102, 0
1, 51329, Note_off_c, 1, 73, 0
1, 51329, Note_off_c, 1, 85, 0
1, 51332, Note_on_c, 1, 86, 127
1, 51448, Note_off_c, 1, 107, 0
1, 51452, Note_on_c, 1, 76, 127
1, 51452, Note_on_c, 1, 88, 127
1, 51454, Note_off_c, 1, 86, 0
1, 51556, Note_off_c, 1, 76, 0
1, 51556, Note_off_c, 1, 88, 0
1, 51572, Note_on_c, 1, 78, 127
1, 51572, Note_on_c, 1, 90, 127
1, 51592, Note_on_c, 1, 82, 127
1, 51592, Note_on_c, 1, 106, 127
1, 51677, Note_on_c, 1, 76, 127
1, 51677, Note_on_c, 1, 88, 127
1, 51679, Note_off_c, 1, 78, 0
1, 51679, Note_off_c, 1, 90, 0
1, 51702, Note_off_c, 1, 82, 0
1, 51702, Note_off_c, 1, 106, 0
1, 51802, Note_on_c, 1, 74, 127
1, 51802, Note_on_c, 1, 86, 127
1, 51825, Note_off_c, 1, 76, 0
1, 51825, Note_off_c, 1, 88, 0
1, 51827, Note_on_c, 1, 83, 127
1, 51827, Note_on_c, 1, 107, 127
1, 51876, Note_off_c, 1, 83, 0
1, 51876, Note_off_c, 1, 107, 0
1, 51892, Note_off_c, 1, 74, 0
1, 51892, Note_off_c, 1, 86, 0
1, 51951, Note_on_c, 1, 71, 127
1, 51951, Note_on_c, 1, 95, 127
1, 52043, Note_off_c, 1, 71, 0
1, 52043, Note_off_c, 1, 95, 0
1, 52058, Note_on_c, 1, 66, 127
1, 52058, Note_on_c, 1, 78, 127
1, 52064, Note_on_c, 1, 47, 127
1, 52064, Note_on_c, 1, 35, 127
1, 52073, Note_on_c, 1, 74, 127
1, 52073, Note_on_c, 1, 98, 127
1, 52168, Note_off_c, 1, 74, 0
1, 52168, Note_off_c, 1, 98, 0
1, 52187, Note_on_c, 1, 76, 127
1, 52187, Note_on_c, 1, 100, 127
1, 52225, Note_off_c, 1, 66, 0
1, 52225, Note_off_c, 1, 78, 0
1, 52285, Note_on_c, 1, 50, 127
1, 52285, Note_on_c, 1, 38, 127
1, 52291, Note_on_c, 1, 71, 127
1, 52291, Note_on_c, 1, 83, 127
1, 52299, Note_off_c, 1, 47, 0
1, 52299, Note_off_c, 1, 35, 0
1, 52308, Note_off_c, 1, 76, 0
1, 52308, Note_off_c, 1, 100, 0
1, 52309, Note_on_c, 1, 102, 127
1, 52378, Note_off_c, 1, 50, 0
1, 52378, Note_off_c, 1, 38, 0
1, 52431, Note_on_c, 1, 79, 127
1, 52431, Note_on_c, 1, 103, 127
1, 52437, Note_off_c, 1, 102, 0
1, 52472, Note_off_c, 1, 71, 0
1, 52472, Note_off_c, 1, 83, 0
1, 52521, Note_on_c, 1, 54, 127
1, 52521, Note_on_c, 1, 42, 127
1, 52538, Note_on_c, 1, 70, 127
1, 52538, Note_on_c, 1, 82, 127
1, 52561, Note_off_c, 1, 79, 0
1, 52561, Note_off_c, 1, 103, 0
1, 52641, Note_off_c, 1, 54, 0
1, 52641, Note_off_c, 1, 42, 0
1, 52652, Note_off_c, 1, 70, 0
1, 52652, Note_off_c, 1, 82, 0
1, 53021, Note_on_c, 1, 86, 127
1, 53128, Note_on_c, 1, 107, 127
1, 53224, Note_off_c, 1, 107, 0
1, 53235, Note_on_c, 1, 73, 127
1, 53235, Note_on_c, 1, 85, 127
1, 53249, Note_on_c, 1, 106, 127
1, 53255, Note_off_c, 1, 86, 0
1, 53367, Note_on_c, 1, 80, 127
1, 53367, Note_on_c, 1, 104, 127
1, 53374, Note_off_c, 1, 106, 0
1, 53468, Note_off_c, 1, 73, 0
1, 53468, Note_off_c, 1, 85, 0
1, 53492, Note_off_c, 1, 80, 0
1, 53492, Note_off_c, 1, 104, 0
1, 53956, Note_on_c, 1, 62, 127
1, 53983, Note_on_c, 1, 90, 127
1, 54066, Note_on_c, 1, 64, 127
1, 54091, Note_off_c, 1, 62, 0
1, 54189, Note_off_c, 1, 64, 0
1, 54230, Note_on_c, 1, 95, 127
1, 54243, Note_off_c, 1, 90, 0
1, 54350, Note_on_c, 1, 67, 127
1, 54361, Note_off_c, 1, 95, 0
1, 54470, Note_off_c, 1, 67, 0
1, 54486, Note_on_c, 1, 94, 127
1, 54621, Note_off_c, 1, 94, 0
1, 55209, Note_on_c, 1, 97, 127
1, 55324, Note_on_c, 1, 68, 127
1, 55421, Note_on_c, 1, 30, 127
1, 55433, Note_off_c, 1, 97, 0
1, 55444, Note_off_c, 1, 68, 0
1, 55539, Note_off_c, 1, 30, 0
1, 56397, Note_on_c, 1, 61, 127
1, 56505, Note_on_c, 1, 59, 127
1, 56521, Note_off_c, 1, 61, 0
1, 56625, Note_off_c, 1, 59, 0
1, 56628, Note_on_c, 1, 52, 127
1, 56628, Note_on_c, 1, 40, 127
1, 56896, Note_off_c, 1, 52, 0
1, 56896, Note_off_c, 1, 40, 0
1, 57093, Note_on_c, 1, 49, 127
1, 57093, Note_on_c, 1, 37, 127
1, 57248, Note_off_c, 1, 49, 0
1, 57248, Note_off_c, 1, 37, 0
1, 57336, Note_on_c, 1, 45, 127
1, 57336, Note_on_c, 1, 33, 127
1, 57493, Note_off_c, 1, 45, 0
1, 57493, Note_off_c, 1, 33, 0
1, 57727, Note_on_c, 1, 69, 127
1, 57727, Note_on_c, 1, 93, 127
1, 57827, Note_off_c, 1, 69, 0
1, 57827, Note_off_c, 1, 93, 0
1, 58328, Note_on_c, 1, 60, 127
1, 58328, Note_on_c, 1, 48, 127
1, 58388, Note_off_c, 1, 60, 0
1, 58388, Note_off_c, 1, 48, 0
1, 58665, Note_on_c, 1, 91, 127
1, 58769, Note_off_c, 1, 91, 0
1, 58774, Note_on_c, 1, 58, 127
1, 58774, Note_on_c, 1, 46, 127
1, 58877, Note_on_c, 1, 88, 127
1, 58881, Note_off_c, 1, 58, 0
1, 58881, Note_off_c, 1, 46, 0
1, 58969, Note_off_c, 1, 88, 0
1, 59244, Note_on_c, 1, 56, 127
1, 59350, Note_off_c, 1, 56, 0
1, 61169, Note_on_c, 1, 57, 127
1, 61269, Note_on_c, 1, 55, 127
1, 61270, Note_off_c, 1, 57, 0
1, 61370, Note_off_c, 1, 55, 0
1, 62502, Note_on_c, 1, 81, 127
1, 62613, Note_off_c, 1, 81, 0
1, 62852, Note_on_c, 1, 64, 127
1, 62852, Note_on_c, 1, 76, 127
1, 62856, Note_on_c, 1, 49, 127
1, 62856, Note_on_c, 1, 37, 127
1, 62873, Note_on_c, 1, 79, 127
1, 62873, Note_on_c, 1, 103, 127
1, 62976, Note_on_c, 1, 62, 127
1, 62976, Note_on_c, 1, 74, 127
1, 62982, Note_off_c, 1, 64, 0
1, 62982, Note_off_c, 1, 76, 0
1, 62985, Note_off_c, 1, 49, 0
1, 62985, Note_off_c, 1, 37, 0
1, 63086, Note_on_c, 1, 52, 127
1, 63086, Note_on_c, 1, 40, 127
1, 63094, Note_on_c, 1, 61, 127
1, 63094, Note_on_c, 1, 73, 127
1, 63102, Note_off_c, 1, 62, 0
1, 63102, Note_off_c, 1, 74, 0
1, 63192, Note_off_c, 1, 61, 0
1, 63192, Note_off_c, 1, 73, 0
1, 63197, Note_on_c, 1, 59, 127
1, 63197, Note_on_c, 1, 71, 127
1, 63208, Note_off_c, 1, 52, 0
1, 63208, Note_off_c, 1, 40, 0
1, 63325, Note_off_c, 1, 59, 0
1, 63325, Note_off_c, 1, 71, 0
1, 63326, Note_on_c, 1, 57, 127
1, 63326, Note_on_c, 1, 69, 127
1, 63345, Note_on_c, 1, 54, 127
1, 63345, Note_on_c, 1, 42, 127
1, 63473, Note_off_c, 1, 79, 0
1, 63473, Note_off_c, 1, 103, 0
1, 63475, Note_on_c, 1, 83, 127
1, 63475, Note_on_c, 1, 107, 127
1, 63575, Note_off_c, 1, 83, 0
1, 63575, Note_off_c, 1, 107, 0
1, 63579, Note_on_c, 1, 81, 127
1, 63579, Note_on_c, 1, 105, 127
1, 63583, Note_off_c, 1, 57, 0
1, 63583, Note_off_c, 1, 69, 0
1, 63607, Note_off_c, 1, 54, 0
1, 63607, Note_off_c, 1, 42, 0
1, 63688, Note_off_c, 1, 81, 0
1, 63688, Note_off_c, 1, 105, 0
1, 63798, Note_on_c, 1, 78, 127
1, 63798, Note_on_c, 1, 102, 127
1, 63808, Note_on_c, 1, 69, 127
1, 63808, Note_on_c, 1, 81, 127
1, 63815, Note_on_c, 1, 50, 127
1, 63815, Note_on_c, 1, 38, 127
1, 63892, Note_on_c, 1, 76, 127
1, 63892, Note_on_c, 1, 100, 127
1, 63896, Note_off_c, 1, 78, 0
1, 63896, Note_off_c, 1, 102, 0
1, 64007, Note_off_c, 1, 50, 0
1, 64007, Note_off_c, 1, 38, 0
1, 64020, Note_on_c, 1, 74, 127
1, 64020, Note_on_c, 1, 98, 127
1, 64025, Note_off_c, 1, 76, 0
1, 64025, Note_off_c, 1, 100, 0
1, 64039, Note_on_c, 1, 54, 127
1, 64039, Note_on_c, 1, 42, 127
1, 64105, Note_off_c, 1, 74, 0
1, 64105, Note_off_c, 1, 98, 0
1, 64118, Note_on_c, 1, 73, 127
1, 64118, Note_on_c, 1, 97, 127
1, 64148, Note_off_c, 1, 54, 0
1, 64148, Note_off_c, 1, 42, 0
1, 64217, Note_off_c, 1, 73, 0
1, 64217, Note_off_c, 1, 97, 0
1, 64259, Note_on_c, 1, 71, 127
1, 64259, Note_on_c, 1, 95, 127
1, 64272, Note_on_c, 1, 55, 127
1, 64272, Note_on_c, 1, 43, 127
1, 64305, Note_off_c, 1, 69, 0
1, 64305, Note_off_c, 1, 81, 0
1, 64390, Note_on_c, 1, 72, 127
1, 64390, Note_on_c, 1, 84, 127
1, 64484, Note_off_c, 1, 71, 0
1, 64484, Note_off_c, 1, 95, 0
1, 64503, Note_on_c, 1, 83, 127
1, 64511, Note_off_c, 1, 72, 0
1, 64511, Note_off_c, 1, 84, 0
1, 64520, Note_off_c, 1, 55, 0
1, 64520, Note_off_c, 1, 43, 0
1, 64627, Note_off_c, 1, 83, 0
1, 64734, Note_on_c, 1, 52, 127
1, 64734, Note_on_c, 1, 40, 127
1, 64748, Note_on_c, 1, 67, 127
1, 64748, Note_on_c, 1, 79, 127
1, 64791, Note_on_c, 1, 107, 127
1, 64862, Note_on_c, 1, 66, 127
1, 64872, Note_off_c, 1, 67, 0
1, 64872, Note_off_c, 1, 79, 0
1, 64896, Note_off_c, 1, 52, 0
1, 64896, Note_off_c, 1, 40, 0
1, 64986, Note_off_c, 1, 66, 0
1, 64992, Note_on_c, 1, 64, 127
1, 65100, Note_on_c, 1, 62, 127
1, 65103, Note_off_c, 1, 64, 0
1, 65227, Note_on_c, 1, 61, 127
1, 65229, Note_off_c, 1, 62, 0
1, 65247, Note_on_c, 1, 57, 127
1, 65247, Note_on_c, 1, 45, 127
1, 65339, Note_off_c, 1, 107, 0
1, 65518, Note_off_c, 1, 57, 0
1, 65518, Note_off_c, 1, 45, 0
1, 65610, Note_on_c, 1, 103, 127
1, 65686, Note_off_c, 1, 103, 0
1, 65735, Note_on_c, 1, 105, 127
1, 65779, Note_off_c, 1, 61, 0
1, 65859, Note_off_c, 1, 105, 0
1, 65957, Note_on_c, 1, 52, 127
1, 65957, Note_on_c, 1, 40, 127
1, 65966, Note_on_c, 1, 81, 127
1, 65966, Note_on_c, 1, 105, 127
1, 66051, Note_off_c, 1, 81, 0
1, 66051, Note_off_c, 1, 105, 0
1, 66078, Note_on_c, 1, 79, 127
1, 66078, Note_on_c, 1, 103, 127
1, 66081, Note_off_c, 1, 52, 0
1, 66081, Note_off_c, 1, 40, 0
1, 66139, Note_off_c, 1, 79, 0
1, 66139, Note_off_c, 1, 103, 0
1, 66194, Note_on_c, 1, 50, 127
1, 66194, Note_on_c, 1, 38, 127
1, 66205, Note_on_c, 1, 78, 127
1, 66205, Note_on_c, 1, 102, 127
1, 66334, Note_on_c, 1, 69, 127
1, 66334, Note_on_c, 1, 81, 127
1, 66429, Note_on_c, 1, 49, 127
1, 66429, Note_on_c, 1, 37, 127
1, 66439, Note_on_c, 1, 71, 127
1, 66439, Note_on_c, 1, 83, 127
1, 66447, Note_off_c, 1, 50, 0
1, 66447, Note_off_c, 1, 38, 0
1, 66481, Note_off_c, 1, 69, 0
1, 66481, Note_off_c, 1, 81, 0
1, 66556, Note_on_c, 1, 73, 127
1, 66556, Note_on_c, 1, 85, 127
1, 66564, Note_off_c, 1, 49, 0
1, 66564, Note_off_c, 1, 37, 0
1, 66564, Note_off_c, 1, 71, 0
1, 66564, Note_off_c, 1, 83, 0
1, 66650, Note_off_c, 1, 73, 0
1, 66650, Note_off_c, 1, 85, 0
1, 66678, Note_on_c, 1, 74, 127
1, 66678, Note_on_c, 1, 86, 127
1, 66686, Note_on_c, 1, 47, 127
1, 66686, Note_on_c, 1, 35, 127
1, 66790, Note_on_c, 1, 76, 127
1, 66790, Note_on_c, 1, 88, 127
1, 66793, Note_off_c, 1, 74, 0
1, 66793, Note_off_c, 1, 86, 0
1, 66817, Note_off_c, 1, 47, 0
1, 66817, Note_off_c, 1, 35, 0
1, 66920, Note_off_c, 1, 76, 0
1, 66920, Note_off_c, 1, 88, 0
1, 66923, Note_on_c, 1, 45, 127
1, 66923, Note_on_c, 1, 33, 127
1, 67055, Note_off_c, 1, 45, 0
1, 67055, Note_off_c, 1, 33, 0
1, 67162, Note_on_c, 1, 43, 127
1, 67162, Note_on_c, 1, 31, 127
1, 67222, Note_off_c, 1, 78, 0
1, 67222, Note_off_c, 1, 102, 0
1, 67320, Note_on_c, 1, 98, 127
1, 67390, Note_on_c, 1, 42, 127
1, 67390, Note_on_c, 1, 30, 127
1, 67426, Note_off_c, 1, 43, 0
1, 67426, Note_off_c, 1, 31, 0
1, 67429, Note_off_c, 1, 98, 0
1, 67432, Note_on_c, 1, 100, 127
1, 67495, Note_off_c, 1, 42, 0
1, 67495, Note_off_c, 1, 30, 0
1, 67516, Note_off_c, 1, 100, 0
1, 67643, Note_on_c, 1, 40, 127
1, 67643, Note_on_c, 1, 28, 127
1, 67650, Note_on_c, 1, 79, 127
1, 67650, Note_on_c, 1, 103, 127
1, 67764, Note_off_c, 1, 79, 0
1, 67764, Note_off_c, 1, 103, 0
1, 67800, Note_off_c, 1, 40, 0
1, 67800, Note_off_c, 1, 28, 0
1, 68109, Note_on_c, 1, 97, 127
1, 68249, Note_on_c, 1, 64, 127
1, 68371, Note_on_c, 1, 66, 127
1, 68402, Note_off_c, 1, 64, 0
1, 68469, Note_off_c, 1, 66, 0
1, 68486, Note_on_c, 1, 67, 127
1, 68620, Note_off_c, 1, 67, 0
1, 68641, Note_off_c, 1, 97, 0
1, 69079, Note_on_c, 1, 62, 127
1, 69347, Note_on_c, 1, 95, 127
1, 69459, Note_on_c, 1, 93, 127
1, 69462, Note_off_c, 1, 95, 0
1, 69566, Note_on_c, 1, 52, 127
1, 69575, Note_on_c, 1, 91, 127
1, 69577, Note_off_c, 1, 93, 0
1, 69708, Note_off_c, 1, 91, 0
1, 69727, Note_off_c, 1, 52, 0
1, 69818, Note_on_c, 1, 54, 127
1, 69909, Note_on_c, 1, 72, 127
1, 69909, Note_on_c, 1, 96, 127
1, 69935, Note_off_c, 1, 54, 0
1, 70004, Note_off_c, 1, 72, 0
1, 70004, Note_off_c, 1, 96, 0
1, 70049, Note_on_c, 1, 55, 127
1, 70311, Note_off_c, 1, 55, 0
1, 70374, Note_on_c, 1, 90, 127
1, 70490, Note_off_c, 1, 90, 0
1, 70741, Note_on_c, 1, 57, 127
1, 70944, Note_off_c, 1, 57, 0
1, 70997, Note_on_c, 1, 59, 127
1, 71222, Note_off_c, 1, 59, 0
1, 71970, Note_off_c, 1, 62, 0
1, 72347, Note_on_c, 1, 67, 127
1, 72347, Note_on_c, 1, 91, 127
1, 72402, Note_on_c, 1, 57, 127
1, 72402, Note_on_c, 1, 45, 127
1, 72421, Note_off_c, 1, 67, 0
1, 72421, Note_off_c, 1, 91, 0
1, 72426, Note_on_c, 1, 62, 127
1, 72426, Note_on_c, 1, 74, 127
1, 72465, Note_on_c, 1, 66, 127
1, 72465, Note_on_c, 1, 90, 127
1, 72475, Note_on_c, 1, 61, 127
1, 72475, Note_on_c, 1, 73, 127
1, 72487, Note_off_c, 1, 62, 0
1, 72487, Note_off_c, 1, 74, 0
1, 72522, Note_off_c, 1, 66, 0
1, 72522, Note_off_c, 1, 90, 0
1, 72523, Note_on_c, 1, 64, 127
1, 72523, Note_on_c, 1, 88, 127
1, 72525, Note_off_c, 1, 61, 0
1, 72525, Note_off_c, 1, 73, 0
1, 72582, Note_off_c, 1, 64, 0
1, 72582, Note_off_c, 1, 88, 0
1, 72670, Note_off_c, 1, 57, 0
1, 72670, Note_off_c, 1, 45, 0
1, 72700, Note_on_c, 1, 33, 127
1, 72800, Note_on_c, 1, 86, 127
1, 72836, Note_off_c, 1, 33, 0
1, 72865, Note_off_c, 1, 86, 0
1, 72921, Note_on_c, 1, 50, 127
1, 72921, Note_on_c, 1, 38, 127
1, 72926, Note_on_c, 1, 62, 127
1, 72926, Note_on_c, 1, 86, 127
1, 72933, Note_on_c, 1, 74, 127
1, 73036, Note_off_c, 1, 74, 0
1, 73045, Note_on_c, 1, 61, 127
1, 73045, Note_on_c, 1, 73, 127
1, 73129, Note_off_c, 1, 62, 0
1, 73129, Note_off_c, 1, 86, 0
1, 73170, Note_off_c, 1, 61, 0
1, 73170, Note_off_c, 1, 73, 0
1, 73195, Note_on_c, 1, 69, 127
1, 73195, Note_on_c, 1, 93, 127
1, 73281, Note_on_c, 1, 64, 127
1, 73281, Note_on_c, 1, 76, 127
1, 73417, Note_on_c, 1, 66, 127
1, 73417, Note_on_c, 1, 78, 127
1, 73434, Note_on_c, 1, 98, 127
1, 73437, Note_off_c, 1, 69, 0
1, 73437, Note_off_c, 1, 93, 0
1, 73439, Note_off_c, 1, 64, 0
1, 73439, Note_off_c, 1, 76, 0
1, 73441, Note_off_c, 1, 50, 0
1, 73441, Note_off_c, 1, 38, 0
1, 73518, Note_off_c, 1, 66, 0
1, 73518, Note_off_c, 1, 78, 0
1, 73532, Note_on_c, 1, 67, 127
1, 73532, Note_on_c, 1, 79, 127
1, 73623, Note_off_c, 1, 98, 0
1, 73656, Note_on_c, 1, 81, 127
1, 73662, Note_off_c, 1, 67, 0
1, 73662, Note_off_c, 1, 79, 0
1, 73682, Note_on_c, 1, 97, 127
1, 73755, Note_off_c, 1, 81, 0
1, 73831, Note_off_c, 1, 97, 0
1, 73896, Note_on_c, 1, 66, 127
1, 73896, Note_on_c, 1, 78, 127
1, 73915, Note_on_c, 1, 74, 127
1, 73915, Note_on_c, 1, 98, 127
1, 74021, Note_off_c, 1, 74, 0
1, 74021, Note_off_c, 1, 98, 0
1, 74028, Note_off_c, 1, 66, 0
1, 74028, Note_off_c, 1, 78, 0
1, 74031, Note_on_c, 1, 73, 127
1, 74031, Note_on_c, 1, 97, 127
1, 74138, Note_on_c, 1, 69, 127
1, 74138, Note_on_c, 1, 81, 127
1, 74149, Note_on_c, 1, 74, 127
1, 74149, Note_on_c, 1, 98, 127
1, 74153, Note_off_c, 1, 73, 0
1, 74153, Note_off_c, 1, 97, 0
1, 74270, Note_on_c, 1, 76, 127
1, 74270, Note_on_c, 1, 100, 127
1, 74278, Note_off_c, 1, 74, 0
1, 74278, Note_off_c, 1, 98, 0
1, 74368, Note_on_c, 1, 86, 127
1, 74371, Note_off_c, 1, 69, 0
1, 74371, Note_off_c, 1, 81, 0
1, 74395, Note_on_c, 1, 78, 127
1, 74395, Note_on_c, 1, 102, 127
1, 74423, Note_off_c, 1, 76, 0
1, 74423, Note_off_c, 1, 100, 0
1, 74518, Note_on_c, 1, 79, 127
1, 74518, Note_on_c, 1, 103, 127
1, 74521, Note_off_c, 1, 78, 0
1, 74521, Note_off_c, 1, 102, 0
1, 74590, Note_off_c, 1, 86, 0
1, 74600, Note_on_c, 1, 85, 127
1, 74632, Note_on_c, 1, 105, 127
1, 74645, Note_off_c, 1, 79, 0
1, 74645, Note_off_c, 1, 103, 0
1, 74734, Note_off_c, 1, 105, 0
1, 74848, Note_off_c, 1, 85, 0
1, 75095, Note_on_c, 1, 62, 127
1, 75095, Note_on_c, 1, 74, 127
1, 75112, Note_on_c, 1, 66, 127
1, 75112, Note_on_c, 1, 90, 127
1, 75114, Note_on_c, 1, 50, 127
1, 75207, Note_on_c, 1, 64, 127
1, 75207, Note_on_c, 1, 76, 127
1, 75224, Note_off_c, 1, 74, 0
1, 75225, Note_on_c, 1, 67, 127
1, 75225, Note_on_c, 1, 91, 127
1, 75231, Note_off_c, 1, 66, 0
1, 75231, Note_off_c, 1, 90, 0
1, 75263, Note_off_c, 1, 62, 0
1, 75263, Note_off_c, 1, 50, 0
1, 75332, Note_on_c, 1, 69, 127
1, 75332, Note_on_c, 1, 93, 127
1, 75338, Note_on_c, 1, 60, 127
1, 75338, Note_on_c, 1, 48, 127
1, 75339, Note_off_c, 1, 67, 0
1, 75339, Note_off_c, 1, 91, 0
1, 75343, Note_on_c, 1, 78, 127
1, 75363, Note_off_c, 1, 64, 0
1, 75363, Note_off_c, 1, 76, 0
1, 75456, Note_off_c, 1, 69, 0
1, 75456, Note_off_c, 1, 93, 0
1, 75456, Note_on_c, 1, 71, 127
1, 75456, Note_on_c, 1, 95, 127
1, 75473, Note_on_c, 1, 79, 127
1, 75478, Note_off_c, 1, 78, 0
1, 75502, Note_off_c, 1, 60, 0
1, 75502, Note_off_c, 1, 48, 0
1, 75565, Note_on_c, 1, 59, 127
1, 75565, Note_on_c, 1, 47, 127
1, 75575, Note_off_c, 1, 71, 0
1, 75575, Note_off_c, 1, 95, 0
1, 75582, Note_on_c, 1, 72, 127
1, 75582, Note_on_c, 1, 96, 127
1, 75582, Note_on_c, 1, 81, 127
1, 75591, Note_off_c, 1, 79, 0
1, 75683, Note_off_c, 1, 72, 0
1, 75683, Note_off_c, 1, 96, 0
1, 75688, Note_off_c, 1, 59, 0
1, 75688, Note_off_c, 1, 47, 0
1, 75694, Note_on_c, 1, 98, 127
1, 75699, Note_off_c, 1, 81, 0
1, 75700, Note_on_c, 1, 83, 127
1, 75795, Note_on_c, 1, 57, 127
1, 75795, Note_on_c, 1, 45, 127
1, 75806, Note_off_c, 1, 98, 0
1, 75808, Note_on_c, 1, 100, 127
1, 75812, Note_off_c, 1, 83, 0
1, 75819, Note_on_c, 1, 84, 127
1, 75928, Note_on_c, 1, 103, 127
1, 75933, Note_off_c, 1, 100, 0
1, 75962, Note_off_c, 1, 84, 0
1, 76031, Note_on_c, 1, 55, 127
1, 76031, Note_on_c, 1, 43, 127
1, 76033, Note_off_c, 1, 57, 0
1, 76033, Note_off_c, 1, 45, 0
1, 76044, Note_on_c, 1, 102, 127
1, 76047, Note_off_c, 1, 103, 0
1, 76162, Note_off_c, 1, 102, 0
1, 76256, Note_on_c, 1, 54, 127
1, 76256, Note_on_c, 1, 42, 127
1, 76280, Note_off_c, 1, 55, 0
1, 76280, Note_off_c, 1, 43, 0
1, 76291, Note_on_c, 1, 105, 127
1, 76382, Note_off_c, 1, 54, 0
1, 76382, Note_off_c, 1, 42, 0
1, 76400, Note_on_c, 1, 88, 127
1, 76417, Note_off_c, 1, 105, 0
1, 76509, Note_on_c, 1, 86, 127
1, 76510, Note_on_c, 1, 38, 127
1, 76524, Note_off_c, 1, 88, 0
1, 76633, Note_off_c, 1, 38, 0
1, 76635, Note_off_c, 1, 86, 0
1, 77738, Note_on_c, 1, 67, 127
1, 77738, Note_on_c, 1, 79, 127
1, 77742, Note_on_c, 1, 71, 127
1, 77742, Note_on_c, 1, 95, 127
1, 77852, Note_on_c, 1, 66, 127
1, 77852, Note_on_c, 1, 78, 127
1, 77862, Note_off_c, 1, 67, 0
1, 77862, Note_off_c, 1, 79, 0
1, 77865, Note_off_c, 1, 71, 0
1, 77865, Note_off_c, 1, 95, 0
1, 77984, Note_on_c, 1, 74, 127
1, 77984, Note_on_c, 1, 98, 127
1, 77992, Note_off_c, 1, 66, 0
1, 77992, Note_off_c, 1, 78, 0
1, 78092, Note_on_c, 1, 69, 127
1, 78092, Note_on_c, 1, 81, 127
1, 78156, Note_off_c, 1, 69, 0
1, 78156, Note_off_c, 1, 81, 0
1, 78227, Note_on_c, 1, 103, 127
1, 78234, Note_on_c, 1, 83, 127
1, 78237, Note_off_c, 1, 74, 0
1, 78237, Note_off_c, 1, 98, 0
1, 78344, Note_on_c, 1, 72, 127
1, 78344, Note_on_c, 1, 84, 127
1, 78355, Note_off_c, 1, 83, 0
1, 78389, Note_off_c, 1, 103, 0
1, 78464, Note_off_c, 1, 72, 0
1, 78464, Note_off_c, 1, 84, 0
1, 78465, Note_on_c, 1, 74, 127
1, 78465, Note_on_c, 1, 86, 127
1, 78480, Note_on_c, 1, 78, 127
1, 78480, Note_on_c, 1, 102, 127
1, 78572, Note_off_c, 1, 78, 0
1, 78572, Note_off_c, 1, 102, 0
1, 78575, Note_on_c, 1, 72, 127
1, 78575, Note_on_c, 1, 84, 127
1, 78577, Note_off_c, 1, 74, 0
1, 78577, Note_off_c, 1, 86, 0
1, 78700, Note_on_c, 1, 71, 127
1, 78700, Note_on_c, 1, 83, 127
1, 78727, Note_on_c, 1, 79, 127
1, 78727, Note_on_c, 1, 103, 127
1, 78734, Note_off_c, 1, 72, 0
1, 78734, Note_off_c, 1, 84, 0
1, 78769, Note_off_c, 1, 71, 0
1, 78769, Note_off_c, 1, 83, 0
1, 78816, Note_off_c, 1, 79, 0
1, 78816, Note_off_c, 1, 103, 0
1, 78959, Note_on_c, 1, 55, 127
1, 78959, Note_on_c, 1, 43, 127
1, 78965, Note_on_c, 1, 59, 127
1, 78965, Note_on_c, 1, 71, 127
1, 78975, Note_on_c, 1, 67, 127
1, 78975, Note_on_c, 1, 91, 127
1, 79081, Note_off_c, 1, 67, 0
1, 79081, Note_off_c, 1, 91, 0
1, 79087, Note_on_c, 1, 69, 127
1, 79087, Note_on_c, 1, 93, 127
1, 79090, Note_on_c, 1, 60, 127
1, 79090, Note_on_c, 1, 72, 127
1, 79115, Note_off_c, 1, 59, 0
1, 79115, Note_off_c, 1, 71, 0
1, 79186, Note_off_c, 1, 55, 0
1, 79186, Note_off_c, 1, 43, 0
1, 79193, Note_off_c, 1, 69, 0
1, 79193, Note_off_c, 1, 93, 0
1, 79193, Note_on_c, 1, 53, 127
1, 79193, Note_on_c, 1, 41, 127
1, 79212, Note_on_c, 1, 95, 127
1, 79216, Note_on_c, 1, 62, 127
1, 79216, Note_on_c, 1, 74, 127
1, 79220, Note_off_c, 1, 60, 0
1, 79220, Note_off_c, 1, 72, 0
1, 79317, Note_off_c, 1, 95, 0
1, 79320, Note_off_c, 1, 53, 0
1, 79320, Note_off_c, 1, 41, 0
1, 79323, Note_on_c, 1, 96, 127
1, 79328, Note_on_c, 1, 64, 127
1, 79328, Note_on_c, 1, 76, 127
1, 79331, Note_off_c, 1, 62, 0
1, 79331, Note_off_c, 1, 74, 0
1, 79430, Note_off_c, 1, 64, 0
1, 79430, Note_off_c, 1, 76, 0
1, 79432, Note_on_c, 1, 52, 127
1, 79432, Note_on_c, 1, 40, 127
1, 79447, Note_on_c, 1, 98, 127
1, 79449, Note_off_c, 1, 96, 0
1, 79449, Note_on_c, 1, 65, 127
1, 79449, Note_on_c, 1, 77, 127
1, 79528, Note_off_c, 1, 98, 0
1, 79555, Note_on_c, 1, 100, 127
1, 79565, Note_off_c, 1, 52, 0
1, 79565, Note_off_c, 1, 40, 0
1, 79569, Note_on_c, 1, 79, 127
1, 79610, Note_off_c, 1, 100, 0
1, 79656, Note_off_c, 1, 65, 0
1, 79656, Note_off_c, 1, 77, 0
1, 79677, Note_on_c, 1, 50, 127
1, 79677, Note_on_c, 1, 38, 127
1, 79680, Note_off_c, 1, 79, 0
1, 79681, Note_on_c, 1, 81, 127
1, 79687, Note_on_c, 1, 101, 127
1, 79787, Note_off_c, 1, 81, 0
1, 79788, Note_on_c, 1, 84, 127
1, 79794, Note_off_c, 1, 101, 0
1, 79883, Note_off_c, 1, 84, 0
1, 79892, Note_on_c, 1, 48, 127
1, 79892, Note_on_c, 1, 36, 127
1, 79894, Note_off_c, 1, 50, 0
1, 79894, Note_off_c, 1, 38, 0
1, 79894, Note_on_c, 1, 83, 127
1, 79999, Note_off_c, 1, 83, 0
1, 80097, Note_off_c, 1, 48, 0
1, 80097, Note_off_c, 1, 36, 0
1, 80131, Note_on_c, 1, 47, 127
1, 80131, Note_on_c, 1, 35, 127
1, 80138, Note_on_c, 1, 74, 127
1, 80138, Note_on_c, 1, 86, 127
1, 80149, Note_on_c, 1, 77, 127
1, 80149, Note_on_c, 1, 101, 127
1, 80261, Note_off_c, 1, 47, 0
1, 80261, Note_off_c, 1, 35, 0
1, 80264, Note_on_c, 1, 81, 127
1, 80264, Note_on_c, 1, 105, 127
1, 80265, Note_on_c, 1, 72, 127
1, 80265, Note_on_c, 1, 84, 127
1, 80266, Note_off_c, 1, 77, 0
1, 80266, Note_off_c, 1, 101, 0
1, 80278, Note_off_c, 1, 74, 0
1, 80278, Note_off_c, 1, 86, 0
1, 80372, Note_on_c, 1, 43, 127
1, 80372, Note_on_c, 1, 31, 127
1, 80376, Note_off_c, 1, 72, 0
1, 80376, Note_off_c, 1, 84, 0
1, 80378, Note_on_c, 1, 79, 127
1, 80378, Note_on_c, 1, 103, 127
1, 80381, Note_on_c, 1, 71, 127
1, 80381, Note_on_c, 1, 83, 127
1, 80399, Note_off_c, 1, 81, 0
1, 80399, Note_off_c, 1, 105, 0
1, 80447, Note_off_c, 1, 79, 0
1, 80447, Note_off_c, 1, 103, 0
1, 80474, Note_on_c, 1, 69, 127
1, 80476, Note_off_c, 1, 71, 0
1, 80476, Note_off_c, 1, 83, 0
1, 80520, Note_off_c, 1, 43, 0
1, 80520, Note_off_c, 1, 31, 0
1, 80584, Note_on_c, 1, 67, 127
1, 80587, Note_on_c, 1, 48, 127
1, 80587, Note_on_c, 1, 36, 127
1, 80597, Note_off_c, 1, 69, 0
1, 80618, Note_on_c, 1, 76, 127
1, 80618, Note_on_c, 1, 100, 127
1, 80698, Note_off_c, 1, 48, 0
1, 80698, Note_off_c, 1, 36, 0
1, 80704, Note_off_c, 1, 67, 0
1, 80740, Note_on_c, 1, 98, 127
1, 80745, Note_off_c, 1, 76, 0
1, 80745, Note_off_c, 1, 100, 0
1, 80844, Note_off_c, 1, 98, 0
1, 80846, Note_on_c, 1, 48, 127
1, 80846, Note_on_c, 1, 36, 127
1, 80853, Note_on_c, 1, 67, 127
1, 80853, Note_on_c, 1, 79, 127
1, 80859, Note_on_c, 1, 76, 127
1, 80859, Note_on_c, 1, 100, 127
1, 80964, Note_off_c, 1, 76, 0
1, 80964, Note_off_c, 1, 100, 0
1, 80980, Note_on_c, 1, 77, 127
1, 80980, Note_on_c, 1, 101, 127
1, 81040, Note_off_c, 1, 77, 0
1, 81040, Note_off_c, 1, 101, 0
1, 81067, Note_off_c, 1, 67, 0
1, 81067, Note_off_c, 1, 79, 0
1, 81069, Note_on_c, 1, 52, 127
1, 81069, Note_on_c, 1, 40, 127
1, 81090, Note_off_c, 1, 48, 0
1, 81090, Note_off_c, 1, 36, 0
1, 81102, Note_on_c, 1, 103, 127
1, 81104, Note_on_c, 1, 72, 127
1, 81104, Note_on_c, 1, 84, 127
1, 81185, Note_off_c, 1, 52, 0
1, 81185, Note_off_c, 1, 40, 0
1, 81214, Note_on_c, 1, 81, 127
1, 81214, Note_on_c, 1, 105, 127
1, 81223, Note_off_c, 1, 103, 0
1, 81311, Note_on_c, 1, 55, 127
1, 81311, Note_on_c, 1, 43, 127
1, 81330, Note_off_c, 1, 81, 0
1, 81330, Note_off_c, 1, 105, 0
1, 81335, Note_on_c, 1, 71, 127
1, 81335, Note_on_c, 1, 83, 127
1, 81340, Note_off_c, 1, 72, 0
1, 81340, Note_off_c, 1, 84, 0
1, 81452, Note_off_c, 1, 55, 0
1, 81452, Note_off_c, 1, 43, 0
1, 81516, Note_off_c, 1, 71, 0
1, 81516, Note_off_c, 1, 83, 0
1, 81545, Note_on_c, 1, 79, 127
1, 81545, Note_on_c, 1, 103, 127
1, 81560, Note_on_c, 1, 52, 127
1, 81560, Note_on_c, 1, 40, 127
1, 81569, Note_on_c, 1, 72, 127
1, 81569, Note_on_c, 1, 84, 127
1, 81678, Note_on_c, 1, 77, 127
1, 81678, Note_on_c, 1, 101, 127
1, 81681, Note_off_c, 1, 79, 0
1, 81681, Note_off_c, 1, 103, 0
1, 81717, Note_off_c, 1, 52, 0
1, 81717, Note_off_c, 1, 40, 0
1, 81791, Note_on_c, 1, 48, 127
1, 81791, Note_on_c, 1, 36, 127
1, 81795, Note_off_c, 1, 77, 0
1, 81795, Note_off_c, 1, 101, 0
1, 81801, Note_off_c, 1, 72, 0
1, 81801, Note_off_c, 1, 84, 0
1, 81806, Note_on_c, 1, 76, 127
1, 81806, Note_on_c, 1, 88, 127
1, 81912, Note_on_c, 1, 108, 127
1, 81931, Note_off_c, 1, 48, 0
1, 81931, Note_off_c, 1, 36, 0
1, 82019, Note_off_c, 1, 76, 0
1, 82019, Note_off_c, 1, 88, 0
1, 82024, Note_off_c, 1, 108, 0
1, 82025, Note_on_c, 1, 74, 127
1, 82025, Note_on_c, 1, 86, 127
1, 82025, Note_on_c, 1, 55, 127
1, 82025, Note_on_c, 1, 43, 127
1, 82031, Note_on_c, 1, 83, 127
1, 82031, Note_on_c, 1, 107, 127
1, 82150, Note_on_c, 1, 81, 127
1, 82150, Note_on_c, 1, 105, 127
1, 82160, Note_off_c, 1, 83, 0
1, 82160, Note_off_c, 1, 107, 0
1, 82257, Note_off_c, 1, 55, 0
1, 82257, Note_off_c, 1, 43, 0
1, 82263, Note_on_c, 1, 71, 127
1, 82272, Note_off_c, 1, 81, 0
1, 82272, Note_off_c, 1, 105, 0
1, 82274, Note_on_c, 1, 79, 127
1, 82274, Note_on_c, 1, 103, 127
1, 82278, Note_off_c, 1, 74, 0
1, 82278, Note_off_c, 1, 86, 0
1, 82374, Note_off_c, 1, 79, 0
1, 82374, Note_off_c, 1, 103, 0
1, 82375, Note_on_c, 1, 77, 127
1, 82375, Note_on_c, 1, 101, 127
1, 82448, Note_off_c, 1, 71, 0
1, 82496, Note_off_c, 1, 77, 0
1, 82496, Note_off_c, 1, 101, 0
1, 82508, Note_on_c, 1, 76, 127
1, 82508, Note_on_c, 1, 100, 127
1, 82509, Note_on_c, 1, 72, 127
1, 82509, Note_on_c, 1, 84, 127
1, 82620, Note_off_c, 1, 76, 0
1, 82620, Note_off_c, 1, 100, 0
1, 82642, Note_on_c, 1, 74, 127
1, 82642, Note_on_c, 1, 86, 127
1, 82654, Note_off_c, 1, 72, 0
1, 82654, Note_off_c, 1, 84, 0
1, 82764, Note_on_c, 1, 88, 127
1, 82772, Note_off_c, 1, 74, 0
1, 82772, Note_off_c, 1, 86, 0
1, 82773, Note_on_c, 1, 67, 127
1, 82773, Note_on_c, 1, 91, 127
1, 82780, Note_on_c, 1, 48, 127
1, 82780, Note_on_c, 1, 36, 127
1, 82868, Note_off_c, 1, 88, 0
1, 82885, Note_on_c, 1, 77, 127
1, 82885, Note_on_c, 1, 89, 127
1, 82966, Note_off_c, 1, 77, 0
1, 82966, Note_off_c, 1, 89, 0
1, 82997, Note_off_c, 1, 67, 0
1, 82997, Note_off_c, 1, 91, 0
1, 83011, Note_on_c, 1, 52, 127
1, 83011, Note_on_c, 1, 40, 127
1, 83019, Note_on_c, 1, 79, 127
1, 83020, Note_on_c, 1, 96, 127
1, 83035, Note_off_c, 1, 48, 0
1, 83035, Note_off_c, 1, 36, 0
1, 83129, Note_off_c, 1, 52, 0
1, 83129, Note_off_c, 1, 40, 0
1, 83133, Note_off_c, 1, 96, 0
1, 83140, Note_on_c, 1, 81, 127
1, 83140, Note_on_c, 1, 93, 127
1, 83148, Note_off_c, 1, 79, 0
1, 83262, Note_on_c, 1, 55, 127
1, 83262, Note_on_c, 1, 43, 127
1, 83270, Note_off_c, 1, 81, 0
1, 83270, Note_off_c, 1, 93, 0
1, 83276, Note_on_c, 1, 71, 127
1, 83276, Note_on_c, 1, 95, 127
1, 83405, Note_off_c, 1, 71, 0
1, 83405, Note_off_c, 1, 95, 0
1, 83419, Note_off_c, 1, 55, 0
1, 83419, Note_off_c, 1, 43, 0
1, 83494, Note_on_c, 1, 52, 127
1, 83494, Note_on_c, 1, 40, 127
1, 83499, Note_on_c, 1, 79, 127
1, 83499, Note_on_c, 1, 91, 127
1, 83525, Note_on_c, 1, 72, 127
1, 83525, Note_on_c, 1, 96, 127
1, 83620, Note_off_c, 1, 79, 0
1, 83620, Note_off_c, 1, 91, 0
1, 83624, Note_on_c, 1, 77, 127
1, 83624, Note_on_c, 1, 89, 127
1, 83640, Note_off_c, 1, 52, 0
1, 83640, Note_off_c, 1, 40, 0
1, 83737, Note_off_c, 1, 77, 0
1, 83737, Note_off_c, 1, 89, 0
1, 83748, Note_on_c, 1, 48, 127
1, 83748, Note_on_c, 1, 36, 127
1, 83780, Note_off_c, 1, 72, 0
1, 83780, Note_off_c, 1, 96, 0
1, 83784, Note_on_c, 1, 76, 127
1, 83784, Note_on_c, 1, 100, 127
1, 83846, Note_on_c, 1, 84, 127
1, 83883, Note_off_c, 1, 48, 0
1, 83883, Note_off_c, 1, 36, 0
1, 83967, Note_on_c, 1, 55, 127
1, 83967, Note_on_c, 1, 43, 127
1, 83973, Note_on_c, 1, 83, 127
1, 83973, Note_on_c, 1, 95, 127
1, 83976, Note_off_c, 1, 84, 0
1, 84019, Note_on_c, 1, 74, 127
1, 84019, Note_on_c, 1, 98, 127
1, 84038, Note_off_c, 1, 76, 0
1, 84038, Note_off_c, 1, 100, 0
1, 84096, Note_on_c, 1, 81, 127
1, 84096, Note_on_c, 1, 93, 127
1, 84109, Note_off_c, 1, 83, 0
1, 84109, Note_off_c, 1, 95, 0
1, 84114, Note_off_c, 1, 74, 0
1, 84114, Note_off_c, 1, 98, 0
1, 84122, Note_off_c, 1, 55, 0
1, 84122, Note_off_c, 1, 43, 0
1, 84200, Note_on_c, 1, 31, 127
1, 84224, Note_off_c, 1, 81, 0
1, 84224, Note_off_c, 1, 93, 0
1, 84236, Note_on_c, 1, 71, 127
1, 84329, Note_off_c, 1, 31, 0
1, 84422, Note_off_c, 1, 71, 0
1, 84449, Note_on_c, 1, 48, 127
1, 84449, Note_on_c, 1, 36, 127
1, 84462, Note_on_c, 1, 76, 127
1, 84462, Note_on_c, 1, 88, 127
1, 84497, Note_on_c, 1, 72, 127
1, 84497, Note_on_c, 1, 96, 127
1, 84606, Note_off_c, 1, 76, 0
1, 84606, Note_off_c, 1, 88, 0
1, 84614, Note_on_c, 1, 74, 127
1, 84614, Note_on_c, 1, 98, 127
1, 84621, Note_off_c, 1, 72, 0
1, 84621, Note_off_c, 1, 96, 0
1, 84718, Note_on_c, 1, 81, 127
1, 84718, Note_on_c, 1, 93, 127
1, 84724, Note_off_c, 1, 74, 0
1, 84724, Note_off_c, 1, 98, 0
1, 84736, Note_on_c, 1, 100, 127
1, 84797, Note_off_c, 1, 81, 0
1, 84797, Note_off_c, 1, 93, 0
1, 84835, Note_on_c, 1, 80, 127
1, 84835, Note_on_c, 1, 92, 127
1, 84841, Note_off_c, 1, 100, 0
1, 84923, Note_off_c, 1, 80, 0
1, 84923, Note_off_c, 1, 92, 0
1, 84949, Note_off_c, 1, 48, 0
1, 84949, Note_off_c, 1, 36, 0
1, 84955, Note_on_c, 1, 69, 127
1, 84955, Note_on_c, 1, 93, 127
1, 84966, Note_on_c, 1, 81, 127
1, 85073, Note_on_c, 1, 72, 127
1, 85073, Note_on_c, 1, 96, 127
1, 85083, Note_off_c, 1, 69, 0
1, 85173, Note_on_c, 1, 60, 127
1, 85173, Note_on_c, 1, 48, 127
1, 85183, Note_off_c, 1, 72, 0
1, 85183, Note_off_c, 1, 96, 0
1, 85189, Note_on_c, 1, 71, 127
1, 85189, Note_on_c, 1, 95, 127
1, 85289, Note_off_c, 1, 60, 0
1, 85289, Note_off_c, 1, 48, 0
1, 85301, Note_off_c, 1, 71, 0
1, 85301, Note_off_c, 1, 95, 0
1, 85423, Note_on_c, 1, 74, 127
1, 85423, Note_on_c, 1, 98, 127
1, 85426, Note_on_c, 1, 59, 127
1, 85426, Note_on_c, 1, 47, 127
1, 85511, Note_off_c, 1, 93, 0
1, 85511, Note_off_c, 1, 81, 0
1, 85540, Note_off_c, 1, 74, 0
1, 85540, Note_off_c, 1, 98, 0
1, 85647, Note_on_c, 1, 86, 127
1, 85763, Note_off_c, 1, 86, 0
1, 85884, Note_on_c, 1, 79, 127
1, 85884, Note_on_c, 1, 91, 127
1, 85911, Note_off_c, 1, 59, 0
1, 85911, Note_off_c, 1, 47, 0
1, 86112, Note_on_c, 1, 52, 127
1, 86112, Note_on_c, 1, 40, 127
1, 86235, Note_off_c, 1, 52, 0
1, 86235, Note_off_c, 1, 40, 0
1, 86259, Note_on_c, 1, 67, 127
1, 86351, Note_on_c, 1, 57, 127
1, 86351, Note_on_c, 1, 45, 127
1, 86357, Note_off_c, 1, 67, 0
1, 86739, Note_off_c, 1, 79, 0
1, 86739, Note_off_c, 1, 91, 0
1, 86831, Note_off_c, 1, 57, 0
1, 86831, Note_off_c, 1, 45, 0
1, 86921, Note_on_c, 1, 78, 127
1, 86921, Note_on_c, 1, 90, 127
1, 86973, Note_off_c, 1, 78, 0
1, 86973, Note_off_c, 1, 90, 0
1, 86988, Note_on_c, 1, 79, 127
1, 86988, Note_on_c, 1, 91, 127
1, 86999, Note_on_c, 1, 76, 127
1, 86999, Note_on_c, 1, 100, 127
1, 87018, Note_on_c, 1, 78, 127
1, 87018, Note_on_c, 1, 90, 127
1, 87044, Note_off_c, 1, 78, 0
1, 87044, Note_off_c, 1, 90, 0
1, 87089, Note_on_c, 1, 50, 127
1, 87089, Note_on_c, 1, 38, 127
1, 87092, Note_off_c, 1, 79, 0
1, 87092, Note_off_c, 1, 91, 0
1, 87112, Note_on_c, 1, 74, 127
1, 87112, Note_on_c, 1, 98, 127
1, 87114, Note_off_c, 1, 76, 0
1, 87114, Note_off_c, 1, 100, 0
1, 87200, Note_off_c, 1, 50, 0
1, 87200, Note_off_c, 1, 38, 0
1, 87215, Note_off_c, 1, 74, 0
1, 87215, Note_off_c, 1, 98, 0
1, 87225, Note_on_c, 1, 72, 127
1, 87225, Note_on_c, 1, 96, 127
1, 87330, Note_on_c, 1, 55, 127
1, 87330, Note_on_c, 1, 43, 127
1, 87332, Note_off_c, 1, 72, 0
1, 87332, Note_off_c, 1, 96, 0
1, 87349, Note_on_c, 1, 71, 127
1, 87349, Note_on_c, 1, 95, 127
1, 87457, Note_on_c, 1, 81, 127
1, 87457, Note_on_c, 1, 93, 127
1, 87530, Note_off_c, 1, 71, 0
1, 87530, Note_off_c, 1, 95, 0
1, 87564, Note_off_c, 1, 81, 0
1, 87564, Note_off_c, 1, 93, 0
1, 87573, Note_on_c, 1, 83, 127
1, 87685, Note_off_c, 1, 83, 0
1, 87696, Note_on_c, 1, 75, 127
1, 87696, Note_on_c, 1, 99, 127
1, 87757, Note_off_c, 1, 75, 0
1, 87757, Note_off_c, 1, 99, 0
1, 87811, Note_on_c, 1, 88, 127
1, 87837, Note_off_c, 1, 55, 0
1, 87837, Note_off_c, 1, 43, 0
1, 87948, Note_off_c, 1, 88, 0
1, 88293, Note_on_c, 1, 54, 127
1, 88293, Note_on_c, 1, 42, 127
1, 88552, Note_on_c, 1, 69, 127
1, 88665, Note_off_c, 1, 69, 0
1, 88774, Note_off_c, 1, 54, 0
1, 88774, Note_off_c, 1, 42, 0
1, 88998, Note_on_c, 1, 59, 127
1, 88998, Note_on_c, 1, 47, 127
1, 89099, Note_off_c, 1, 59, 0
1, 89099, Note_off_c, 1, 47, 0
1, 89145, Note_on_c, 1, 86, 127
1, 89250, Note_on_c, 1, 52, 127
1, 89250, Note_on_c, 1, 40, 127
1, 89255, Note_off_c, 1, 86, 0
1, 89780, Note_off_c, 1, 52, 0
1, 89780, Note_off_c, 1, 40, 0
1, 89812, Note_on_c, 1, 73, 127
1, 89812, Note_on_c, 1, 97, 127
1, 89863, Note_off_c, 1, 73, 0
1, 89863, Note_off_c, 1, 97, 0
1, 89966, Note_on_c, 1, 57, 127
1, 89966, Note_on_c, 1, 45, 127
1, 90053, Note_off_c, 1, 57, 0
1, 90053, Note_off_c, 1, 45, 0
1, 90177, Note_on_c, 1, 74, 127
1, 90177, Note_on_c, 1, 98, 127
1, 90206, Note_on_c, 1, 50, 127
1, 90206, Note_on_c, 1, 38, 127
1, 90219, Note_on_c, 1, 78, 127
1, 90219, Note_on_c, 1, 90, 127
1, 90292, Note_off_c, 1, 74, 0
1, 90292, Note_off_c, 1, 98, 0
1, 90445, Note_on_c, 1, 62, 127
1, 90445, Note_on_c, 1, 86, 127
1, 90466, Note_off_c, 1, 78, 0
1, 90466, Note_off_c, 1, 90, 0
1, 90563, Note_on_c, 1, 64, 127
1, 90563, Note_on_c, 1, 88, 127
1, 90568, Note_off_c, 1, 62, 0
1, 90568, Note_off_c, 1, 86, 0
1, 90680, Note_on_c, 1, 66, 127
1, 90695, Note_off_c, 1, 50, 0
1, 90695, Note_off_c, 1, 38, 0
1, 90699, Note_off_c, 1, 64, 0
1, 90699, Note_off_c, 1, 88, 0
1, 90798, Note_off_c, 1, 66, 0
1, 90806, Note_on_c, 1, 67, 127
1, 90806, Note_on_c, 1, 91, 127
1, 90923, Note_on_c, 1, 69, 127
1, 90923, Note_on_c, 1, 93, 127
1, 90930, Note_off_c, 1, 67, 0
1, 90930, Note_off_c, 1, 91, 0
1, 91023, Note_off_c, 1, 69, 0
1, 91023, Note_off_c, 1, 93, 0
1, 91031, Note_on_c, 1, 71, 127
1, 91031, Note_on_c, 1, 95, 127
1, 91114, Note_off_c, 1, 71, 0
1, 91114, Note_off_c, 1, 95, 0
1, 91153, Note_on_c, 1, 45, 127
1, 91153, Note_on_c, 1, 33, 127
1, 91160, Note_on_c, 1, 72, 127
1, 91160, Note_on_c, 1, 96, 127
1, 91349, Note_off_c, 1, 72, 0
1, 91349, Note_off_c, 1, 96, 0
1, 91399, Note_on_c, 1, 57, 127
1, 91399, Note_on_c, 1, 69, 127
1, 91418, Note_on_c, 1, 64, 127
1, 91418, Note_on_c, 1, 88, 127
1, 91517, Note_on_c, 1, 59, 127
1, 91517, Note_on_c, 1, 71, 127
1, 91546, Note_off_c, 1, 57, 0
1, 91546, Note_off_c, 1, 69, 0
1, 91624, Note_off_c, 1, 64, 0
1, 91624, Note_off_c, 1, 88, 0
1, 91642, Note_on_c, 1, 93, 127
1, 91651, Note_on_c, 1, 60, 127
1, 91653, Note_off_c, 1, 59, 0
1, 91653, Note_off_c, 1, 71, 0
1, 91694, Note_off_c, 1, 45, 0
1, 91694, Note_off_c, 1, 33, 0
1, 91769, Note_off_c, 1, 60, 0
1, 91769, Note_on_c, 1, 62, 127
1, 91769, Note_on_c, 1, 74, 127
1, 91777, Note_off_c, 1, 93, 0
1, 91877, Note_off_c, 1, 62, 0
1, 91877, Note_off_c, 1, 74, 0
1, 91879, Note_on_c, 1, 64, 127
1, 91879, Note_on_c, 1, 76, 127
1, 91908, Note_on_c, 1, 72, 127
1, 91908, Note_on_c, 1, 96, 127
1, 91972, Note_off_c, 1, 64, 0
1, 91972, Note_off_c, 1, 76, 0
1, 91997, Note_on_c, 1, 66, 127
1, 91997, Note_on_c, 1, 78, 127
1, 92024, Note_off_c, 1, 72, 0
1, 92024, Note_off_c, 1, 96, 0
1, 92117, Note_off_c, 1, 66, 0
1, 92117, Note_off_c, 1, 78, 0
1, 92120, Note_on_c, 1, 67, 127
1, 92120, Note_on_c, 1, 79, 127
1, 92127, Note_on_c, 1, 52, 127
1, 92127, Note_on_c, 1, 40, 127
1, 92157, Note_on_c, 1, 71, 127
1, 92157, Note_on_c, 1, 95, 127
1, 92257, Note_off_c, 1, 71, 0
1, 92257, Note_off_c, 1, 95, 0
1, 92271, Note_on_c, 1, 91, 127
1, 92310, Note_off_c, 1, 79, 0
1, 92374, Note_on_c, 1, 59, 127
1, 92390, Note_off_c, 1, 67, 0
1, 92390, Note_off_c, 1, 91, 0
1, 92395, Note_on_c, 1, 64, 127
1, 92395, Note_on_c, 1, 88, 127
1, 92506, Note_off_c, 1, 64, 0
1, 92506, Note_off_c, 1, 88, 0
1, 92508, Note_on_c, 1, 66, 127
1, 92508, Note_on_c, 1, 90, 127
1, 92618, Note_off_c, 1, 59, 0
1, 92621, Note_on_c, 1, 76, 127
1, 92626, Note_off_c, 1, 66, 0
1, 92626, Note_off_c, 1, 90, 0
1, 92655, Note_off_c, 1, 52, 0
1, 92655, Note_off_c, 1, 40, 0
1, 92745, Note_on_c, 1, 69, 127
1, 92745, Note_on_c, 1, 93, 127
1, 92857, Note_off_c, 1, 69, 0
1, 92857, Note_off_c, 1, 93, 0
1, 92858, Note_off_c, 1, 76, 0
1, 92862, Note_on_c, 1, 67, 127
1, 92862, Note_on_c, 1, 79, 127
1, 92867, Note_on_c, 1, 71, 127
1, 92867, Note_on_c, 1, 95, 127
1, 92974, Note_on_c, 1, 72, 127
1, 92974, Note_on_c, 1, 96, 127
1, 92981, Note_off_c, 1, 71, 0
1, 92981, Note_off_c, 1, 95, 0
1, 93007, Note_off_c, 1, 67, 0
1, 93007, Note_off_c, 1, 79, 0
1, 93061, Note_off_c, 1, 72, 0
1, 93061, Note_off_c, 1, 96, 0
1, 93085, Note_on_c, 1, 47, 127
1, 93085, Note_on_c, 1, 35, 127
1, 93096, Note_on_c, 1, 66, 127
1, 93096, Note_on_c, 1, 78, 127
1, 93117, Note_on_c, 1, 74, 127
1, 93117, Note_on_c, 1, 98, 127
1, 93219, Note_off_c, 1, 66, 0
1, 93219, Note_off_c, 1, 78, 0
1, 93233, Note_on_c, 1, 72, 127
1, 93233, Note_on_c, 1, 96, 127
1, 93240, Note_off_c, 1, 74, 0
1, 93240, Note_off_c, 1, 98, 0
1, 93343, Note_on_c, 1, 86, 127
1, 93356, Note_on_c, 1, 71, 127
1, 93356, Note_on_c, 1, 95, 127
1, 93378, Note_off_c, 1, 72, 0
1, 93378, Note_off_c, 1, 96, 0
1, 93449, Note_off_c, 1, 86, 0
1, 93458, Note_on_c, 1, 84, 127
1, 93472, Note_off_c, 1, 71, 0
1, 93472, Note_off_c, 1, 95, 0
1, 93473, Note_on_c, 1, 69, 127
1, 93473, Note_on_c, 1, 93, 127
1, 93581, Note_off_c, 1, 47, 0
1, 93581, Note_off_c, 1, 35, 0
1, 93581, Note_off_c, 1, 69, 0
1, 93581, Note_off_c, 1, 93, 0
1, 93584, Note_on_c, 1, 67, 127
1, 93584, Note_on_c, 1, 91, 127
1, 93587, Note_on_c, 1, 83, 127
1, 93606, Note_off_c, 1, 84, 0
1, 93701, Note_off_c, 1, 67, 0
1, 93701, Note_off_c, 1, 91, 0
1, 93704, Note_on_c, 1, 90, 127
1, 93706, Note_off_c, 1, 83, 0
1, 93706, Note_on_c, 1, 81, 127
1, 93809, Note_on_c, 1, 52, 127
1, 93809, Note_on_c, 1, 40, 127
1, 93818, Note_off_c, 1, 81, 0
1, 93820, Note_on_c, 1, 79, 127
1, 93821, Note_on_c, 1, 64, 127
1, 93821, Note_on_c, 1, 88, 127
1, 93825, Note_off_c, 1, 90, 0
1, 93911, Note_off_c, 1, 64, 0
1, 93911, Note_off_c, 1, 88, 0
1, 93927, Note_off_c, 1, 52, 0
1, 93927, Note_off_c, 1, 40, 0
1, 93945, Note_off_c, 1, 79, 0
1, 94041, Note_on_c, 1, 76, 127
1, 94056, Note_on_c, 1, 57, 127
1, 94056, Note_on_c, 1, 45, 127
1, 94090, Note_off_c, 1, 76, 0
1, 94537, Note_off_c, 1, 57, 0
1, 94537, Note_off_c, 1, 45, 0
1, 94777, Note_on_c, 1, 50, 127
1, 94777, Note_on_c, 1, 38, 127
1, 94778, Note_on_c, 1, 62, 127
1, 94842, Note_off_c, 1, 62, 0
1, 94869, Note_off_c, 1, 50, 0
1, 94869, Note_off_c, 1, 38, 0
1, 94875, Note_on_c, 1, 64, 127
1, 94875, Note_on_c, 1, 76, 127
1, 94899, Note_on_c, 1, 72, 127
1, 94899, Note_on_c, 1, 96, 127
1, 94994, Note_off_c, 1, 72, 0
1, 94994, Note_off_c, 1, 96, 0
1, 94994, Note_on_c, 1, 62, 127
1, 94994, Note_on_c, 1, 74, 127
1, 95002, Note_on_c, 1, 55, 127
1, 95002, Note_on_c, 1, 43, 127
1, 95016, Note_off_c, 1, 64, 0
1, 95016, Note_off_c, 1, 76, 0
1, 95022, Note_on_c, 1, 71, 127
1, 95022, Note_on_c, 1, 95, 127
1, 95121, Note_off_c, 1, 62, 0
1, 95121, Note_off_c, 1, 74, 0
1, 95138, Note_on_c, 1, 69, 127
1, 95138, Note_on_c, 1, 93, 127
1, 95142, Note_off_c, 1, 71, 0
1, 95142, Note_off_c, 1, 95, 0
1, 95253, Note_on_c, 1, 83, 127
1, 95255, Note_on_c, 1, 67, 127
1, 95255, Note_on_c, 1, 91, 127
1, 95260, Note_off_c, 1, 69, 0
1, 95260, Note_off_c, 1, 93, 0
1, 95307, Note_off_c, 1, 55, 0
1, 95307, Note_off_c, 1, 43, 0
1, 95366, Note_on_c, 1, 66, 127
1, 95366, Note_on_c, 1, 90, 127
1, 95368, Note_off_c, 1, 67, 0
1, 95368, Note_off_c, 1, 91, 0
1, 95482, Note_off_c, 1, 66, 0
1, 95482, Note_off_c, 1, 90, 0
1, 95491, Note_on_c, 1, 88, 127
1, 95492, Note_on_c, 1, 48, 127
1, 95492, Note_on_c, 1, 36, 127
1, 95596, Note_on_c, 1, 86, 127
1, 95603, Note_off_c, 1, 88, 0
1, 95701, Note_off_c, 1, 86, 0
1, 95728, Note_on_c, 1, 60, 127
1, 95728, Note_on_c, 1, 84, 127
1, 95734, Note_off_c, 1, 83, 0
1, 95734, Note_on_c, 1, 81, 127
1, 95849, Note_on_c, 1, 79, 127
1, 95852, Note_off_c, 1, 81, 0
1, 95853, Note_off_c, 1, 48, 0
1, 95853, Note_off_c, 1, 36, 0
1, 95951, Note_off_c, 1, 79, 0
1, 95968, Note_on_c, 1, 78, 127
1, 95979, Note_on_c, 1, 50, 127
1, 95979, Note_on_c, 1, 38, 127
1, 96133, Note_off_c, 1, 60, 0
1, 96133, Note_off_c, 1, 84, 0
1, 96221, Note_on_c, 1, 31, 127
1, 96223, Note_off_c, 1, 50, 0
1, 96223, Note_off_c, 1, 38, 0
1, 96244, Note_off_c, 1, 78, 0
1, 96266, Note_on_c, 1, 59, 127
1, 96345, Note_off_c, 1, 31, 0
1, 96403, Note_off_c, 1, 59, 0
1, 96472, Note_on_c, 1, 50, 127
1, 96472, Note_on_c, 1, 38, 127
1, 96505, Note_on_c, 1, 67, 127
1, 96505, Note_on_c, 1, 79, 127
1, 96514, Note_on_c, 1, 59, 127
1, 96514, Note_on_c, 1, 83, 127
1, 96561, Note_on_c, 1, 66, 127
1, 96561, Note_on_c, 1, 78, 127
1, 96569, Note_off_c, 1, 67, 0
1, 96569, Note_off_c, 1, 79, 0
1, 96571, Note_off_c, 1, 59, 0
1, 96571, Note_off_c, 1, 83, 0
1, 96572, Note_on_c, 1, 57, 127
1, 96572, Note_on_c, 1, 81, 127
1, 96603, Note_off_c, 1, 66, 0
1, 96603, Note_off_c, 1, 78, 0
1, 96672, Note_off_c, 1, 50, 0
1, 96672, Note_off_c, 1, 38, 0
1, 96695, Note_on_c, 1, 26, 127
1, 96807, Note_off_c, 1, 26, 0
1, 96861, Note_on_c, 1, 55, 127
1, 96869, Note_off_c, 1, 57, 0
1, 96869, Note_off_c, 1, 81, 0
1, 96927, Note_off_c, 1, 55, 0
1, 96996, Note_on_c, 1, 43, 127
1, 96996, Note_on_c, 1, 31, 127
1, 96997, Note_on_c, 1, 55, 127
1, 96997, Note_on_c, 1, 79, 127
1, 97032, Note_on_c, 1, 67, 127
1, 97132, Note_off_c, 1, 67, 0
1, 97205, Note_off_c, 1, 55, 0
1, 97205, Note_off_c, 1, 79, 0
1, 97353, Note_on_c, 1, 57, 127
1, 97353, Note_on_c, 1, 69, 127
1, 97482, Note_on_c, 1, 59, 127
1, 97482, Note_on_c, 1, 71, 127
1, 97497, Note_off_c, 1, 57, 0
1, 97497, Note_off_c, 1, 69, 0
1, 97547, Note_off_c, 1, 43, 0
1, 97547, Note_off_c, 1, 31, 0
1, 97589, Note_off_c, 1, 59, 0
1, 97589, Note_off_c, 1, 71, 0
1, 97592, Note_on_c, 1, 60, 127
1, 97592, Note_on_c, 1, 72, 127
1, 97704, Note_on_c, 1, 62, 127
1, 97704, Note_on_c, 1, 74, 127
1, 97707, Note_off_c, 1, 60, 0
1, 97707, Note_off_c, 1, 72, 0
1, 97808, Note_off_c, 1, 62, 0
1, 97808, Note_off_c, 1, 74, 0
1, 97822, Note_on_c, 1, 60, 127
1, 97822, Note_on_c, 1, 72, 127
1, 97928, Note_off_c, 1, 60, 0
1, 97928, Note_off_c, 1, 72, 0
1, 97942, Note_on_c, 1, 59, 127
1, 97942, Note_on_c, 1, 71, 127
1, 98043, Note_off_c, 1, 59, 0
1, 98043, Note_off_c, 1, 71, 0
1, 98158, Note_on_c, 1, 67, 127
1, 98158, Note_on_c, 1, 91, 127
1, 98175, Note_on_c, 1, 62, 127
1, 98175, Note_on_c, 1, 74, 127
1, 98259, Note_on_c, 1, 69, 127
1, 98259, Note_on_c, 1, 93, 127
1, 98273, Note_off_c, 1, 67, 0
1, 98273, Note_off_c, 1, 91, 0
1, 98362, Note_off_c, 1, 69, 0
1, 98362, Note_off_c, 1, 93, 0
1, 98384, Note_on_c, 1, 71, 127
1, 98384, Note_on_c, 1, 95, 127
1, 98402, Note_off_c, 1, 62, 0
1, 98402, Note_off_c, 1, 74, 0
1, 98405, Note_on_c, 1, 79, 127
1, 98493, Note_off_c, 1, 71, 0
1, 98493, Note_off_c, 1, 95, 0
1, 98493, Note_on_c, 1, 72, 127
1, 98493, Note_on_c, 1, 96, 127
1, 98620, Note_on_c, 1, 98, 127
1, 98623, Note_off_c, 1, 72, 0
1, 98623, Note_off_c, 1, 96, 0
1, 98629, Note_on_c, 1, 66, 127
1, 98629, Note_on_c, 1, 78, 127
1, 98634, Note_off_c, 1, 79, 0
1, 98721, Note_off_c, 1, 98, 0
1, 98858, Note_on_c, 1, 43, 127
1, 98858, Note_on_c, 1, 31, 127
1, 98869, Note_off_c, 1, 66, 0
1, 98869, Note_off_c, 1, 78, 0
1, 99217, Note_on_c, 1, 81, 127
1, 99328, Note_on_c, 1, 103, 127
1, 99336, Note_on_c, 1, 83, 127
1, 99343, Note_off_c, 1, 81, 0
1, 99453, Note_on_c, 1, 84, 127
1, 99458, Note_off_c, 1, 83, 0
1, 99465, Note_off_c, 1, 103, 0
1, 99553, Note_off_c, 1, 84, 0
1, 99566, Note_on_c, 1, 86, 127
1, 99578, Note_on_c, 1, 102, 127
1, 99669, Note_on_c, 1, 76, 127
1, 99669, Note_on_c, 1, 88, 127
1, 99680, Note_off_c, 1, 102, 0
1, 99685, Note_off_c, 1, 86, 0
1, 99754, Note_off_c, 1, 76, 0
1, 99754, Note_off_c, 1, 88, 0
1, 99778, Note_on_c, 1, 47, 127
1, 99778, Note_on_c, 1, 35, 127
1, 99790, Note_off_c, 1, 43, 0
1, 99790, Note_off_c, 1, 31, 0
1, 100272, Note_on_c, 1, 50, 127
1, 100272, Note_on_c, 1, 38, 127
1, 100280, Note_off_c, 1, 47, 0
1, 100280, Note_off_c, 1, 35, 0
1, 100624, Note_on_c, 1, 100, 127
1, 100715, Note_off_c, 1, 100, 0
1, 100756, Note_off_c, 1, 50, 0
1, 100756, Note_off_c, 1, 38, 0
1, 101473, Note_on_c, 1, 90, 127
1, 101478, Note_on_c, 1, 45, 127
1, 101478, Note_on_c, 1, 33, 127
1, 101697, Note_off_c, 1, 90, 0
1, 101729, Note_off_c, 1, 45, 0
1, 101729, Note_off_c, 1, 33, 0
1, 102159, Note_on_c, 1, 49, 127
1, 102159, Note_on_c, 1, 37, 127
1, 102194, Note_on_c, 1, 105, 127
1, 102311, Note_on_c, 1, 107, 127
1, 102331, Note_off_c, 1, 105, 0
1, 102431, Note_off_c, 1, 107, 0
1, 102436, Note_on_c, 1, 64, 127
1, 102675, Note_off_c, 1, 49, 0
1, 102675, Note_off_c, 1, 37, 0
1, 102786, Note_off_c, 1, 64, 0
1, 103430, Note_on_c, 1, 73, 127
1, 103430, Note_on_c, 1, 97, 127
1, 103543, Note_off_c, 1, 73, 0
1, 103543, Note_off_c, 1, 97, 0
1, 104751, Note_on_c, 1, 62, 127
1, 104751, Note_on_c, 1, 74, 127
1, 104848, Note_off_c, 1, 62, 0
1, 104848, Note_off_c, 1, 74, 0
1, 104856, Note_on_c, 1, 55, 127
1, 104856, Note_on_c, 1, 67, 127
1, 104868, Note_on_c, 1, 74, 127
1, 104868, Note_on_c, 1, 98, 127
1, 104962, Note_on_c, 1, 57, 127
1, 104962, Note_on_c, 1, 69, 127
1, 104972, Note_off_c, 1, 55, 0
1, 104972, Note_off_c, 1, 67, 0
1, 105100, Note_on_c, 1, 59, 127
1, 105100, Note_on_c, 1, 71, 127
1, 105107, Note_off_c, 1, 57, 0
1, 105107, Note_off_c, 1, 69, 0
1, 105109, Note_on_c, 1, 79, 127
1, 105109, Note_on_c, 1, 103, 127
1, 105117, Note_off_c, 1, 74, 0
1, 105117, Note_off_c, 1, 98, 0
1, 105201, Note_off_c, 1, 59, 0
1, 105201, Note_off_c, 1, 71, 0
1, 105217, Note_on_c, 1, 60, 127
1, 105217, Note_on_c, 1, 72, 127
1, 105245, Note_off_c, 1, 79, 0
1, 105245, Note_off_c, 1, 103, 0
1, 105327, Note_off_c, 1, 60, 0
1, 105327, Note_off_c, 1, 72, 0
1, 105335, Note_on_c, 1, 62, 127
1, 105335, Note_on_c, 1, 74, 127
1, 105364, Note_on_c, 1, 78, 127
1, 105364, Note_on_c, 1, 102, 127
1, 105441, Note_on_c, 1, 60, 127
1, 105441, Note_on_c, 1, 72, 127
1, 105446, Note_off_c, 1, 62, 0
1, 105446, Note_off_c, 1, 74, 0
1, 105465, Note_off_c, 1, 78, 0
1, 105465, Note_off_c, 1, 102, 0
1, 105573, Note_off_c, 1, 60, 0
1, 105573, Note_off_c, 1, 72, 0
1, 105585, Note_on_c, 1, 59, 127
1, 105585, Note_on_c, 1, 71, 127
1, 105604, Note_on_c, 1, 79, 127
1, 105604, Note_on_c, 1, 103, 127
1, 105693, Note_off_c, 1, 59, 0
1, 105693, Note_off_c, 1, 71, 0
1, 105724, Note_on_c, 1, 74, 127
1, 105724, Note_on_c, 1, 98, 127
1, 105728, Note_off_c, 1, 79, 0
1, 105728, Note_off_c, 1, 103, 0
1, 105836, Note_on_c, 1, 62, 127
1, 105840, Note_on_c, 1, 67, 127
1, 105840, Note_on_c, 1, 91, 127
1, 105849, Note_off_c, 1, 98, 0
1, 105958, Note_on_c, 1, 69, 127
1, 105958, Note_on_c, 1, 93, 127
1, 105971, Note_off_c, 1, 67, 0
1, 105971, Note_off_c, 1, 91, 0
1, 106072, Note_off_c, 1, 74, 0
1, 106072, Note_off_c, 1, 62, 0
1, 106081, Note_on_c, 1, 95, 127
1, 106086, Note_off_c, 1, 69, 0
1, 106086, Note_off_c, 1, 93, 0
1, 106194, Note_off_c, 1, 95, 0
1, 106194, Note_on_c, 1, 72, 127
1, 106194, Note_on_c, 1, 96, 127
1, 106306, Note_on_c, 1, 66, 127
1, 106306, Note_on_c, 1, 78, 127
1, 106316, Note_off_c, 1, 72, 0
1, 106316, Note_off_c, 1, 96, 0
1, 106474, Note_off_c, 1, 66, 0
1, 106474, Note_off_c, 1, 78, 0
1, 106529, Note_on_c, 1, 52, 127
1, 106529, Note_on_c, 1, 40, 127
1, 106547, Note_on_c, 1, 71, 127
1, 106547, Note_on_c, 1, 95, 127
1, 106551, Note_on_c, 1, 67, 127
1, 106551, Note_on_c, 1, 79, 127
1, 106665, Note_on_c, 1, 64, 127
1, 106665, Note_on_c, 1, 76, 127
1, 106669, Note_on_c, 1, 91, 127
1, 106676, Note_off_c, 1, 79, 0
1, 106678, Note_off_c, 1, 71, 0
1, 106678, Note_off_c, 1, 95, 0
1, 106780, Note_on_c, 1, 69, 127
1, 106780, Note_on_c, 1, 93, 127
1, 106790, Note_off_c, 1, 67, 0
1, 106790, Note_off_c, 1, 91, 0
1, 106790, Note_on_c, 1, 66, 127
1, 106790, Note_on_c, 1, 78, 127
1, 106813, Note_off_c, 1, 64, 0
1, 106813, Note_off_c, 1, 76, 0
1, 106882, Note_off_c, 1, 69, 0
1, 106882, Note_off_c, 1, 93, 0
1, 106899, Note_off_c, 1, 66, 0
1, 106899, Note_off_c, 1, 78, 0
1, 107026, Note_on_c, 1, 72, 127
1, 107026, Note_on_c, 1, 96, 127
1, 107030, Note_on_c, 1, 81, 127
1, 107127, Note_off_c, 1, 81, 0
1, 107147, Note_on_c, 1, 83, 127
1, 107265, Note_off_c, 1, 83, 0
1, 107509, Note_on_c, 1, 50, 127
1, 107509, Note_on_c, 1, 38, 127
1, 107519, Note_off_c, 1, 52, 0
1, 107519, Note_off_c, 1, 40, 0
1, 107533, Note_off_c, 1, 72, 0
1, 107533, Note_off_c, 1, 96, 0
1, 107741, Note_on_c, 1, 48, 127
1, 107741, Note_on_c, 1, 36, 127
1, 107750, Note_off_c, 1, 50, 0
1, 107750, Note_off_c, 1, 38, 0
1, 107967, Note_off_c, 1, 48, 0
1, 107967, Note_off_c, 1, 36, 0
1, 107968, Note_on_c, 1, 47, 127
1, 107968, Note_on_c, 1, 35, 127
1, 107971, Note_on_c, 1, 74, 127
1, 107971, Note_on_c, 1, 98, 127
1, 108064, Note_on_c, 1, 45, 127
1, 108064, Note_on_c, 1, 33, 127
1, 108082, Note_off_c, 1, 45, 0
1, 108082, Note_off_c, 1, 33, 0
1, 108092, Note_off_c, 1, 74, 0
1, 108092, Note_off_c, 1, 98, 0
1, 108304, Note_on_c, 1, 100, 127
1, 108345, Note_off_c, 1, 100, 0
1, 108424, Note_on_c, 1, 102, 127
1, 108460, Note_off_c, 1, 47, 0
1, 108460, Note_off_c, 1, 35, 0
1, 108541, Note_off_c, 1, 102, 0
1, 108549, Note_on_c, 1, 103, 127
1, 108652, Note_off_c, 1, 103, 0
1, 108667, Note_on_c, 1, 105, 127
1, 108670, Note_on_c, 1, 84, 127
1, 108780, Note_off_c, 1, 105, 0
1, 108896, Note_on_c, 1, 43, 127
1, 108896, Note_on_c, 1, 31, 127
1, 109041, Note_off_c, 1, 84, 0
1, 109254, Note_on_c, 1, 107, 127
1, 109284, Note_off_c, 1, 107, 0
1, 109875, Note_on_c, 1, 42, 127
1, 109875, Note_on_c, 1, 30, 127
1, 109898, Note_off_c, 1, 43, 0
1, 109898, Note_off_c, 1, 31, 0
1, 110413, Note_off_c, 1, 42, 0
1, 110413, Note_off_c, 1, 30, 0
1, 110633, Note_on_c, 1, 62, 127
1, 110772, Note_off_c, 1, 62, 0
1, 110973, Note_on_c, 1, 65, 127
1, 110973, Note_on_c, 1, 77, 127
1, 111093, Note_off_c, 1, 65, 0
1, 111093, Note_off_c, 1, 77, 0
1, 111571, Note_on_c, 1, 60, 127
1, 111700, Note_off_c, 1, 60, 0
1, 112557, Note_on_c, 1, 64, 127
1, 112557, Note_on_c, 1, 76, 127
1, 112562, Note_on_c, 1, 67, 127
1, 112562, Note_on_c, 1, 91, 127
1, 112649, Note_off_c, 1, 64, 0
1, 112649, Note_off_c, 1, 76, 0
1, 112649, Note_off_c, 1, 67, 0
1, 112649, Note_off_c, 1, 91, 0
1, 112663, Note_on_c, 1, 69, 127
1, 112663, Note_on_c, 1, 93, 127
1, 112667, Note_on_c, 1, 66, 127
1, 112667, Note_on_c, 1, 78, 127
1, 112732, Note_off_c, 1, 69, 0
1, 112732, Note_off_c, 1, 93, 0
1, 112778, Note_off_c, 1, 66, 0
1, 112778, Note_off_c, 1, 78, 0
1, 112786, Note_on_c, 1, 71, 127
1, 112786, Note_on_c, 1, 95, 127
1, 112788, Note_on_c, 1, 67, 127
1, 112788, Note_on_c, 1, 79, 127
1, 112899, Note_on_c, 1, 72, 127
1, 112899, Note_on_c, 1, 96, 127
1, 112903, Note_off_c, 1, 71, 0
1, 112903, Note_off_c, 1, 95, 0
1, 112936, Note_off_c, 1, 67, 0
1, 112936, Note_off_c, 1, 79, 0
1, 113025, Note_on_c, 1, 66, 127
1, 113025, Note_on_c, 1, 78, 127
1, 113027, Note_on_c, 1, 74, 127
1, 113027, Note_on_c, 1, 98, 127
1, 113029, Note_off_c, 1, 72, 0
1, 113029, Note_off_c, 1, 96, 0
1, 113134, Note_off_c, 1, 66, 0
1, 113134, Note_off_c, 1, 78, 0
1, 113135, Note_off_c, 1, 74, 0
1, 113135, Note_off_c, 1, 98, 0
1, 113136, Note_on_c, 1, 72, 127
1, 113136, Note_on_c, 1, 96, 127
1, 113247, Note_off_c, 1, 72, 0
1, 113247, Note_off_c, 1, 96, 0
1, 113262, Note_on_c, 1, 67, 127
1, 113262, Note_on_c, 1, 79, 127
1, 113264, Note_on_c, 1, 71, 127
1, 113264, Note_on_c, 1, 95, 127
1, 113386, Note_on_c, 1, 69, 127
1, 113386, Note_on_c, 1, 93, 127
1, 113400, Note_off_c, 1, 71, 0
1, 113400, Note_off_c, 1, 95, 0
1, 113463, Note_off_c, 1, 67, 0
1, 113463, Note_off_c, 1, 79, 0
1, 113484, Note_off_c, 1, 69, 0
1, 113484, Note_off_c, 1, 93, 0
1, 113502, Note_on_c, 1, 62, 127
1, 113502, Note_on_c, 1, 74, 127
1, 113517, Note_on_c, 1, 71, 127
1, 113517, Note_on_c, 1, 95, 127
1, 113607, Note_on_c, 1, 64, 127
1, 113607, Note_on_c, 1, 76, 127
1, 113609, Note_off_c, 1, 71, 0
1, 113609, Note_off_c, 1, 95, 0
1, 113630, Note_on_c, 1, 73, 127
1, 113630, Note_on_c, 1, 97, 127
1, 113642, Note_off_c, 1, 62, 0
1, 113642, Note_off_c, 1, 74, 0
1, 113690, Note_off_c, 1, 73, 0
1, 113690, Note_off_c, 1, 97, 0
1, 113735, Note_on_c, 1, 66, 127
1, 113735, Note_on_c, 1, 78, 127
1, 113747, Note_off_c, 1, 64, 0
1, 113747, Note_off_c, 1, 76, 0
1, 113753, Note_on_c, 1, 98, 127
1, 113845, Note_off_c, 1, 66, 0
1, 113845, Note_off_c, 1, 78, 0
1, 113857, Note_on_c, 1, 67, 127
1, 113857, Note_on_c, 1, 79, 127
1, 113868, Note_off_c, 1, 98, 0
1, 113972, Note_off_c, 1, 67, 0
1, 113972, Note_off_c, 1, 79, 0
1, 113977, Note_on_c, 1, 69, 127
1, 113977, Note_on_c, 1, 81, 127
1, 114007, Note_on_c, 1, 73, 127
1, 114007, Note_on_c, 1, 97, 127
1, 114085, Note_on_c, 1, 67, 127
1, 114085, Note_on_c, 1, 79, 127
1, 114095, Note_off_c, 1, 69, 0
1, 114095, Note_off_c, 1, 81, 0
1, 114103, Note_off_c, 1, 73, 0
1, 114103, Note_off_c, 1, 97, 0
1, 114197, Note_off_c, 1, 67, 0
1, 114197, Note_off_c, 1, 79, 0
1, 114203, Note_on_c, 1, 66, 127
1, 114203, Note_on_c, 1, 78, 127
1, 114251, Note_on_c, 1, 74, 127
1, 114251, Note_on_c, 1, 98, 127
1, 114327, Note_on_c, 1, 64, 127
1, 114327, Note_on_c, 1, 76, 127
1, 114340, Note_off_c, 1, 66, 0
1, 114340, Note_off_c, 1, 78, 0
1, 114455, Note_off_c, 1, 64, 0
1, 114455, Note_off_c, 1, 76, 0
1, 114494, Note_on_c, 1, 69, 127
1, 114494, Note_on_c, 1, 93, 127
1, 114496, Note_off_c, 1, 74, 0
1, 114496, Note_off_c, 1, 98, 0
1, 114575, Note_on_c, 1, 68, 127
1, 114575, Note_on_c, 1, 80, 127
1, 114590, Note_off_c, 1, 69, 0
1, 114590, Note_off_c, 1, 93, 0
1, 114601, Note_on_c, 1, 71, 127
1, 114601, Note_on_c, 1, 95, 127
1, 114667, Note_off_c, 1, 68, 0
1, 114667, Note_off_c, 1, 80, 0
1, 114680, Note_off_c, 1, 71, 0
1, 114680, Note_off_c, 1, 95, 0
1, 114713, Note_on_c, 1, 69, 127
1, 114713, Note_on_c, 1, 81, 127
1, 114733, Note_on_c, 1, 72, 127
1, 114733, Note_on_c, 1, 96, 127
1, 114847, Note_on_c, 1, 74, 127
1, 114847, Note_on_c, 1, 98, 127
1, 114850, Note_off_c, 1, 69, 0
1, 114850, Note_off_c, 1, 81, 0
1, 114851, Note_off_c, 1, 72, 0
1, 114851, Note_off_c, 1, 96, 0
1, 114941, Note_on_c, 1, 68, 127
1, 114941, Note_on_c, 1, 80, 127
1, 114973, Note_on_c, 1, 76, 127
1, 114973, Note_on_c, 1, 100, 127
1, 114977, Note_off_c, 1, 74, 0
1, 114977, Note_off_c, 1, 98, 0
1, 115027, Note_off_c, 1, 68, 0
1, 115027, Note_off_c, 1, 80, 0
1, 115084, Note_off_c, 1, 76, 0
1, 115084, Note_off_c, 1, 100, 0
1, 115085, Note_on_c, 1, 74, 127
1, 115085, Note_on_c, 1, 98, 127
1, 115172, Note_on_c, 1, 69, 127
1, 115172, Note_on_c, 1, 81, 127
1, 115200, Note_off_c, 1, 74, 0
1, 115200, Note_off_c, 1, 98, 0
1, 115208, Note_on_c, 1, 72, 127
1, 115208, Note_on_c, 1, 96, 127
1, 115317, Note_off_c, 1, 72, 0
1, 115317, Note_off_c, 1, 96, 0
1, 115322, Note_on_c, 1, 71, 127
1, 115322, Note_on_c, 1, 95, 127
1, 115407, Note_off_c, 1, 71, 0
1, 115407, Note_off_c, 1, 95, 0
1, 115424, Note_off_c, 1, 69, 0
1, 115424, Note_off_c, 1, 81, 0
1, 115430, Note_on_c, 1, 64, 127
1, 115430, Note_on_c, 1, 76, 127
1, 115440, Note_on_c, 1, 73, 127
1, 115440, Note_on_c, 1, 97, 127
1, 115511, Note_off_c, 1, 73, 0
1, 115511, Note_off_c, 1, 97, 0
1, 115536, Note_on_c, 1, 66, 127
1, 115536, Note_on_c, 1, 78, 127
1, 115545, Note_on_c, 1, 75, 127
1, 115545, Note_on_c, 1, 99, 127
1, 115561, Note_off_c, 1, 64, 0
1, 115561, Note_off_c, 1, 76, 0
1, 115606, Note_off_c, 1, 66, 0
1, 115606, Note_off_c, 1, 78, 0
1, 115626, Note_off_c, 1, 75, 0
1, 115626, Note_off_c, 1, 99, 0
1, 115659, Note_on_c, 1, 67, 127
1, 115659, Note_on_c, 1, 79, 127
1, 115680, Note_on_c, 1, 76, 127
1, 115680, Note_on_c, 1, 100, 127
1, 115751, Note_off_c, 1, 67, 0
1, 115751, Note_off_c, 1, 79, 0
1, 115777, Note_on_c, 1, 69, 127
1, 115777, Note_on_c, 1, 81, 127
1, 115850, Note_off_c, 1, 76, 0
1, 115850, Note_off_c, 1, 100, 0
1, 115890, Note_off_c, 1, 69, 0
1, 115890, Note_off_c, 1, 81, 0
1, 115892, Note_on_c, 1, 71, 127
1, 115892, Note_on_c, 1, 83, 127
1, 115917, Note_on_c, 1, 75, 127
1, 115917, Note_on_c, 1, 99, 127
1, 115971, Note_off_c, 1, 71, 0
1, 115971, Note_off_c, 1, 83, 0
1, 115988, Note_on_c, 1, 69, 127
1, 115988, Note_on_c, 1, 81, 127
1, 116046, Note_off_c, 1, 75, 0
1, 116046, Note_off_c, 1, 99, 0
1, 116064, Note_off_c, 1, 69, 0
1, 116064, Note_off_c, 1, 81, 0
1, 116121, Note_on_c, 1, 67, 127
1, 116121, Note_on_c, 1, 79, 127
1, 116155, Note_on_c, 1, 76, 127
1, 116155, Note_on_c, 1, 100, 127
1, 116272, Note_on_c, 1, 78, 127
1, 116272, Note_on_c, 1, 102, 127
1, 116280, Note_off_c, 1, 76, 0
1, 116280, Note_off_c, 1, 100, 0
1, 116395, Note_on_c, 1, 103, 127
1, 116399, Note_off_c, 1, 78, 0
1, 116399, Note_off_c, 1, 102, 0
1, 116509, Note_off_c, 1, 103, 0
1, 116746, Note_on_c, 1, 74, 127
1, 116746, Note_on_c, 1, 98, 127
1, 116847, Note_off_c, 1, 74, 0
1, 116847, Note_off_c, 1, 98, 0
1, 116857, Note_on_c, 1, 73, 127
1, 116857, Note_on_c, 1, 97, 127
1, 116955, Note_off_c, 1, 73, 0
1, 116955, Note_off_c, 1, 97, 0
1, 116969, Note_on_c, 1, 71, 127
1, 116969, Note_on_c, 1, 95, 127
1, 117081, Note_off_c, 1, 71, 0
1, 117081, Note_off_c, 1, 95, 0
1, 117087, Note_on_c, 1, 69, 127
1, 117087, Note_on_c, 1, 93, 127
1, 117153, Note_off_c, 1, 67, 0
1, 117153, Note_off_c, 1, 79, 0
1, 117211, Note_off_c, 1, 69, 0
1, 117211, Note_off_c, 1, 93, 0
1, 117319, Note_on_c, 1, 74, 127
1, 117319, Note_on_c, 1, 98, 127
1, 117322, Note_on_c, 1, 66, 127
1, 117322, Note_on_c, 1, 78, 127
1, 117424, Note_off_c, 1, 74, 0
1, 117424, Note_off_c, 1, 98, 0
1, 117435, Note_on_c, 1, 76, 127
1, 117435, Note_on_c, 1, 100, 127
1, 117441, Note_off_c, 1, 66, 0
1, 117441, Note_off_c, 1, 78, 0
1, 117445, Note_on_c, 1, 67, 127
1, 117445, Note_on_c, 1, 79, 127
1, 117532, Note_off_c, 1, 76, 0
1, 117532, Note_off_c, 1, 100, 0
1, 117550, Note_off_c, 1, 67, 0
1, 117550, Note_off_c, 1, 79, 0
1, 117558, Note_on_c, 1, 78, 127
1, 117558, Note_on_c, 1, 102, 127
1, 117560, Note_on_c, 1, 69, 127
1, 117560, Note_on_c, 1, 81, 127
1, 117655, Note_off_c, 1, 69, 0
1, 117655, Note_off_c, 1, 81, 0
1, 117669, Note_on_c, 1, 71, 127
1, 117669, Note_on_c, 1, 83, 127
1, 117679, Note_off_c, 1, 78, 0
1, 117679, Note_off_c, 1, 102, 0
1, 117684, Note_on_c, 1, 79, 127
1, 117684, Note_on_c, 1, 103, 127
1, 117803, Note_on_c, 1, 73, 127
1, 117803, Note_on_c, 1, 85, 127
1, 117806, Note_off_c, 1, 71, 0
1, 117806, Note_off_c, 1, 83, 0
1, 117807, Note_on_c, 1, 105, 127
1, 117818, Note_off_c, 1, 79, 0
1, 117818, Note_off_c, 1, 103, 0
1, 117897, Note_off_c, 1, 73, 0
1, 117897, Note_off_c, 1, 85, 0
1, 117917, Note_off_c, 1, 105, 0
1, 118029, Note_on_c, 1, 45, 127
1, 118029, Note_on_c, 1, 33, 127
1, 118037, Note_on_c, 1, 74, 127
1, 118037, Note_on_c, 1, 86, 127
1, 118047, Note_on_c, 1, 78, 127
1, 118047, Note_on_c, 1, 102, 127
1, 118134, Note_off_c, 1, 74, 0
1, 118134, Note_off_c, 1, 86, 0
1, 118155, Note_on_c, 1, 69, 127
1, 118155, Note_on_c, 1, 81, 127
1, 118178, Note_on_c, 1, 79, 127
1, 118178, Note_on_c, 1, 103, 127
1, 118181, Note_off_c, 1, 78, 0
1, 118181, Note_off_c, 1, 102, 0
1, 118242, Note_off_c, 1, 69, 0
1, 118242, Note_off_c, 1, 81, 0
1, 118306, Note_off_c, 1, 79, 0
1, 118306, Note_off_c, 1, 103, 0
1, 118401, Note_on_c, 1, 76, 127
1, 118401, Note_on_c, 1, 100, 127
1, 118470, Note_off_c, 1, 76, 0
1, 118470, Note_off_c, 1, 100, 0
1, 118764, Note_on_c, 1, 73, 127
1, 118764, Note_on_c, 1, 85, 127
1, 118831, Note_off_c, 1, 45, 0
1, 118831, Note_off_c, 1, 33, 0
1, 118886, Note_off_c, 1, 73, 0
1, 118886, Note_off_c, 1, 85, 0
1, 118888, Note_on_c, 1, 98, 127
1, 118951, Note_off_c, 1, 98, 0
1, 118998, Note_on_c, 1, 74, 127
1, 118998, Note_on_c, 1, 86, 127
1, 119004, Note_on_c, 1, 98, 127
1, 119011, Note_on_c, 1, 47, 127
1, 119011, Note_on_c, 1, 35, 127
1, 119116, Note_off_c, 1, 86, 0
1, 119127, Note_on_c, 1, 69, 127
1, 119127, Note_on_c, 1, 81, 127
1, 119231, Note_off_c, 1, 69, 0
1, 119231, Note_off_c, 1, 81, 0
1, 119244, Note_on_c, 1, 66, 127
1, 119244, Note_on_c, 1, 78, 127
1, 119341, Note_off_c, 1, 66, 0
1, 119341, Note_off_c, 1, 78, 0
1, 119347, Note_off_c, 1, 47, 0
1, 119347, Note_off_c, 1, 35, 0
1, 119360, Note_on_c, 1, 62, 127
1, 119471, Note_off_c, 1, 62, 0
1, 119481, Note_on_c, 1, 67, 127
1, 119481, Note_on_c, 1, 79, 127
1, 119581, Note_off_c, 1, 74, 0
1, 119581, Note_off_c, 1, 98, 0
1, 119641, Note_on_c, 1, 71, 127
1, 119641, Note_on_c, 1, 95, 127
1, 119749, Note_on_c, 1, 91, 127
1, 119754, Note_off_c, 1, 71, 0
1, 119754, Note_off_c, 1, 95, 0
1, 119847, Note_on_c, 1, 64, 127
1, 119847, Note_on_c, 1, 88, 127
1, 119854, Note_off_c, 1, 91, 0
1, 119975, Note_off_c, 1, 64, 0
1, 119975, Note_off_c, 1, 88, 0
1, 119978, Note_on_c, 1, 73, 127
1, 119978, Note_on_c, 1, 97, 127
1, 119983, Note_on_c, 1, 45, 127
1, 119983, Note_on_c, 1, 33, 127
1, 120006, Note_off_c, 1, 67, 0
1, 120006, Note_off_c, 1, 79, 0
1, 120091, Note_on_c, 1, 76, 127
1, 120207, Note_on_c, 1, 61, 127
1, 120214, Note_off_c, 1, 76, 0
1, 120336, Note_off_c, 1, 61, 0
1, 120338, Note_off_c, 1, 45, 0
1, 120338, Note_off_c, 1, 33, 0
1, 120339, Note_on_c, 1, 57, 127
1, 120454, Note_off_c, 1, 57, 0
1, 120466, Note_on_c, 1, 50, 127
1, 120466, Note_on_c, 1, 38, 127
1, 120475, Note_off_c, 1, 73, 0
1, 120475, Note_off_c, 1, 97, 0
1, 120582, Note_on_c, 1, 93, 127
1, 120693, Note_off_c, 1, 93, 0
1, 120806, Note_on_c, 1, 102, 127
1, 120863, Note_off_c, 1, 50, 0
1, 120863, Note_off_c, 1, 38, 0
1, 120927, Note_off_c, 1, 102, 0
1, 120938, Note_on_c, 1, 103, 127
1, 121064, Note_off_c, 1, 103, 0
1, 121174, Note_on_c, 1, 100, 127
1, 121294, Note_off_c, 1, 100, 0
1, 121399, Note_on_c, 1, 49, 127
1, 121399, Note_on_c, 1, 37, 127
1, 121527, Note_on_c, 1, 105, 127
1, 121645, Note_on_c, 1, 83, 127
1, 121645, Note_on_c, 1, 107, 127
1, 121648, Note_off_c, 1, 105, 0
1, 121761, Note_off_c, 1, 83, 0
1, 121761, Note_off_c, 1, 107, 0
1, 121817, Note_off_c, 1, 49, 0
1, 121817, Note_off_c, 1, 37, 0
1, 122473, Note_on_c, 1, 72, 127
1, 122473, Note_on_c, 1, 84, 127
1, 122588, Note_off_c, 1, 72, 0
1, 122588, Note_off_c, 1, 84, 0
1, 124158, Note_on_c, 1, 85, 127
1, 124248, Note_off_c, 1, 85, 0
1, 124286, Note_on_c, 1, 74, 127
1, 124286, Note_on_c, 1, 86, 127
1, 124305, Note_on_c, 1, 78, 127
1, 124305, Note_on_c, 1, 102, 127
1, 124421, Note_on_c, 1, 79, 127
1, 124421, Note_on_c, 1, 103, 127
1, 124424, Note_off_c, 1, 78, 0
1, 124424, Note_off_c, 1, 102, 0
1, 124429, Note_off_c, 1, 74, 0
1, 124429, Note_off_c, 1, 86, 0
1, 124534, Note_on_c, 1, 73, 127
1, 124534, Note_on_c, 1, 85, 127
1, 124537, Note_on_c, 1, 81, 127
1, 124537, Note_on_c, 1, 105, 127
1, 124542, Note_off_c, 1, 79, 0
1, 124542, Note_off_c, 1, 103, 0
1, 124644, Note_off_c, 1, 73, 0
1, 124644, Note_off_c, 1, 85, 0
1, 124648, Note_off_c, 1, 81, 0
1, 124648, Note_off_c, 1, 105, 0
1, 124651, Note_on_c, 1, 79, 127
1, 124651, Note_on_c, 1, 103, 127
1, 124751, Note_off_c, 1, 79, 0
1, 124751, Note_off_c, 1, 103, 0
1, 124769, Note_on_c, 1, 74, 127
1, 124769, Note_on_c, 1, 86, 127
1, 124771, Note_on_c, 1, 78, 127
1, 124771, Note_on_c, 1, 102, 127
1, 124894, Note_off_c, 1, 78, 0
1, 124894, Note_off_c, 1, 102, 0
1, 124896, Note_on_c, 1, 76, 127
1, 124896, Note_on_c, 1, 100, 127
1, 124975, Note_off_c, 1, 76, 0
1, 124975, Note_off_c, 1, 100, 0
1, 125018, Note_on_c, 1, 69, 127
1, 125018, Note_on_c, 1, 81, 127
1, 125024, Note_off_c, 1, 74, 0
1, 125024, Note_off_c, 1, 86, 0
1, 125074, Note_off_c, 1, 69, 0
1, 125074, Note_off_c, 1, 81, 0
1, 125113, Note_on_c, 1, 80, 127
1, 125113, Note_on_c, 1, 104, 127
1, 125133, Note_on_c, 1, 71, 127
1, 125133, Note_on_c, 1, 83, 127
1, 125169, Note_off_c, 1, 80, 0
1, 125169, Note_off_c, 1, 104, 0
1, 125191, Note_off_c, 1, 71, 0
1, 125191, Note_off_c, 1, 83, 0
1, 125245, Note_on_c, 1, 81, 127
1, 125245, Note_on_c, 1, 105, 127
1, 125254, Note_on_c, 1, 72, 127
1, 125254, Note_on_c, 1, 84, 127
1, 125359, Note_off_c, 1, 72, 0
1, 125359, Note_off_c, 1, 84, 0
1, 125370, Note_on_c, 1, 74, 127
1, 125370, Note_on_c, 1, 86, 127
1, 125375, Note_off_c, 1, 81, 0
1, 125375, Note_off_c, 1, 105, 0
1, 125457, Note_off_c, 1, 74, 0
1, 125457, Note_off_c, 1, 86, 0
1, 125479, Note_on_c, 1, 76, 127
1, 125479, Note_on_c, 1, 88, 127
1, 125493, Note_on_c, 1, 80, 127
1, 125493, Note_on_c, 1, 104, 127
1, 125551, Note_off_c, 1, 76, 0
1, 125551, Note_off_c, 1, 88, 0
1, 125568, Note_off_c, 1, 80, 0
1, 125568, Note_off_c, 1, 104, 0
1, 125597, Note_on_c, 1, 74, 127
1, 125597, Note_on_c, 1, 86, 127
1, 125654, Note_off_c, 1, 74, 0
1, 125654, Note_off_c, 1, 86, 0
1, 125721, Note_on_c, 1, 72, 127
1, 125721, Note_on_c, 1, 84, 127
1, 125737, Note_on_c, 1, 81, 127
1, 125737, Note_on_c, 1, 105, 127
1, 125836, Note_off_c, 1, 72, 0
1, 125836, Note_off_c, 1, 84, 0
1, 125836, Note_on_c, 1, 71, 127
1, 125836, Note_on_c, 1, 83, 127
1, 125959, Note_on_c, 1, 73, 127
1, 125959, Note_on_c, 1, 85, 127
1, 125961, Note_off_c, 1, 71, 0
1, 125961, Note_off_c, 1, 83, 0
1, 125982, Note_on_c, 1, 76, 127
1, 125982, Note_on_c, 1, 100, 127
1, 125990, Note_off_c, 1, 81, 0
1, 125990, Note_off_c, 1, 105, 0
1, 126023, Note_off_c, 1, 73, 0
1, 126023, Note_off_c, 1, 85, 0
1, 126068, Note_on_c, 1, 75, 127
1, 126068, Note_on_c, 1, 87, 127
1, 126073, Note_off_c, 1, 76, 0
1, 126073, Note_off_c, 1, 100, 0
1, 126103, Note_on_c, 1, 78, 127
1, 126103, Note_on_c, 1, 102, 127
1, 126162, Note_off_c, 1, 75, 0
1, 126162, Note_off_c, 1, 87, 0
1, 126173, Note_off_c, 1, 78, 0
1, 126173, Note_off_c, 1, 102, 0
1, 126199, Note_on_c, 1, 76, 127
1, 126199, Note_on_c, 1, 88, 127
1, 126236, Note_on_c, 1, 79, 127
1, 126236, Note_on_c, 1, 103, 127
1, 126317, Note_off_c, 1, 76, 0
1, 126317, Note_off_c, 1, 88, 0
1, 126346, Note_on_c, 1, 81, 127
1, 126346, Note_on_c, 1, 105, 127
1, 126349, Note_off_c, 1, 79, 0
1, 126349, Note_off_c, 1, 103, 0
1, 126451, Note_on_c, 1, 75, 127
1, 126451, Note_on_c, 1, 87, 127
1, 126457, Note_off_c, 1, 81, 0
1, 126457, Note_off_c, 1, 105, 0
1, 126462, Note_on_c, 1, 83, 127
1, 126462, Note_on_c, 1, 107, 127
1, 126539, Note_off_c, 1, 75, 0
1, 126539, Note_off_c, 1, 87, 0
1, 126558, Note_off_c, 1, 83, 0
1, 126558, Note_off_c, 1, 107, 0
1, 126580, Note_on_c, 1, 81, 127
1, 126580, Note_on_c, 1, 105, 127
1, 126673, Note_off_c, 1, 81, 0
1, 126673, Note_off_c, 1, 105, 0
1, 126687, Note_on_c, 1, 76, 127
1, 126687, Note_on_c, 1, 88, 127
1, 126698, Note_on_c, 1, 79, 127
1, 126698, Note_on_c, 1, 103, 127
1, 126810, Note_off_c, 1, 79, 0
1, 126810, Note_off_c, 1, 103, 0
1, 126814, Note_on_c, 1, 78, 127
1, 126814, Note_on_c, 1, 102, 127
1, 126897, Note_off_c, 1, 76, 0
1, 126897, Note_off_c, 1, 88, 0
1, 126901, Note_off_c, 1, 78, 0
1, 126901, Note_off_c, 1, 102, 0
1, 126933, Note_on_c, 1, 71, 127
1, 126933, Note_on_c, 1, 83, 127
1, 126940, Note_on_c, 1, 79, 127
1, 126940, Note_on_c, 1, 103, 127
1, 127018, Note_off_c, 1, 71, 0
1, 127018, Note_off_c, 1, 83, 0
1, 127035, Note_off_c, 1, 79, 0
1, 127035, Note_off_c, 1, 103, 0
1, 127048, Note_on_c, 1, 81, 127
1, 127048, Note_on_c, 1, 105, 127
1, 127050, Note_on_c, 1, 73, 127
1, 127050, Note_on_c, 1, 85, 127
1, 127139, Note_off_c, 1, 73, 0
1, 127139, Note_off_c, 1, 85, 0
1, 127153, Note_off_c, 1, 81, 0
1, 127153, Note_off_c, 1, 105, 0
1, 127174, Note_on_c, 1, 74, 127
1, 127174, Note_on_c, 1, 86, 127
1, 127193, Note_on_c, 1, 83, 127
1, 127193, Note_on_c, 1, 107, 127
1, 127283, Note_off_c, 1, 74, 0
1, 127283, Note_off_c, 1, 86, 0
1, 127287, Note_on_c, 1, 76, 127
1, 127287, Note_on_c, 1, 88, 127
1, 127297, Note_off_c, 1, 83, 0
1, 127297, Note_off_c, 1, 107, 0
1, 127380, Note_off_c, 1, 76, 0
1, 127380, Note_off_c, 1, 88, 0
1, 127407, Note_on_c, 1, 78, 127
1, 127407, Note_on_c, 1, 90, 127
1, 127457, Note_on_c, 1, 81, 127
1, 127457, Note_on_c, 1, 105, 127
1, 127510, Note_on_c, 1, 76, 127
1, 127510, Note_on_c, 1, 88, 127
1, 127511, Note_off_c, 1, 78, 0
1, 127511, Note_off_c, 1, 90, 0
1, 127652, Note_on_c, 1, 47, 127
1, 127652, Note_on_c, 1, 35, 127
1, 127658, Note_off_c, 1, 76, 0
1, 127658, Note_off_c, 1, 88, 0
1, 127664, Note_on_c, 1, 75, 127
1, 127664, Note_on_c, 1, 87, 127
1, 127777, Note_off_c, 1, 75, 0
1, 127777, Note_off_c, 1, 87, 0
1, 127810, Note_on_c, 1, 102, 127
1, 127823, Note_off_c, 1, 81, 0
1, 127823, Note_off_c, 1, 105, 0
1, 127897, Note_on_c, 1, 64, 127
1, 127905, Note_off_c, 1, 102, 0
1, 127917, Note_on_c, 1, 79, 127
1, 127917, Note_on_c, 1, 103, 127
1, 127983, Note_off_c, 1, 64, 0
1, 128009, Note_on_c, 1, 66, 127
1, 128013, Note_on_c, 1, 100, 127
1, 128015, Note_off_c, 1, 79, 0
1, 128015, Note_off_c, 1, 103, 0
1, 128080, Note_off_c, 1, 100, 0
1, 128105, Note_off_c, 1, 66, 0
1, 128137, Note_on_c, 1, 67, 127
1, 128189, Note_on_c, 1, 99, 127
1, 128226, Note_off_c, 1, 99, 0
1, 128228, Note_off_c, 1, 67, 0
1, 128246, Note_on_c, 1, 69, 127
1, 128341, Note_off_c, 1, 69, 0
1, 128359, Note_on_c, 1, 71, 127
1, 128359, Note_on_c, 1, 83, 127
1, 128443, Note_off_c, 1, 71, 0
1, 128443, Note_off_c, 1, 83, 0
1, 128593, Note_off_c, 1, 47, 0
1, 128593, Note_off_c, 1, 35, 0
1, 128597, Note_on_c, 1, 48, 127
1, 128597, Note_on_c, 1, 36, 127
1, 128848, Note_on_c, 1, 91, 127
1, 128949, Note_on_c, 1, 93, 127
1, 128952, Note_off_c, 1, 91, 0
1, 129069, Note_on_c, 1, 95, 127
1, 129094, Note_off_c, 1, 93, 0
1, 129112, Note_off_c, 1, 48, 0
1, 129112, Note_off_c, 1, 36, 0
1, 129194, Note_off_c, 1, 95, 0
1, 129195, Note_on_c, 1, 72, 127
1, 129195, Note_on_c, 1, 96, 127
1, 129317, Note_off_c, 1, 72, 0
1, 129317, Note_off_c, 1, 96, 0
1, 129327, Note_on_c, 1, 74, 127
1, 129327, Note_on_c, 1, 98, 127
1, 129332, Note_on_c, 1, 86, 127
1, 129439, Note_off_c, 1, 98, 0
1, 129562, Note_on_c, 1, 45, 127
1, 129562, Note_on_c, 1, 33, 127
1, 129808, Note_off_c, 1, 74, 0
1, 129808, Note_off_c, 1, 86, 0
1, 129820, Note_on_c, 1, 84, 127
1, 130043, Note_on_c, 1, 43, 127
1, 130043, Note_on_c, 1, 31, 127
1, 130049, Note_off_c, 1, 45, 0
1, 130049, Note_off_c, 1, 33, 0
1, 130302, Note_off_c, 1, 84, 0
1, 130409, Note_on_c, 1, 107, 127
1, 130443, Note_off_c, 1, 107, 0
1, 131037, Note_on_c, 1, 42, 127
1, 131037, Note_on_c, 1, 30, 127
1, 131055, Note_off_c, 1, 43, 0
1, 131055, Note_off_c, 1, 31, 0
1, 131460, Note_off_c, 1, 42, 0
1, 131460, Note_off_c, 1, 30, 0
1, 131732, Note_on_c, 1, 62, 127
1, 131956, Note_off_c, 1, 62, 0
1, 132084, Note_on_c, 1, 65, 127
1, 132084, Note_on_c, 1, 77, 127
1, 132190, Note_off_c, 1, 65, 0
1, 132190, Note_off_c, 1, 77, 0
1, 132694, Note_on_c, 1, 60, 127
1, 132813, Note_off_c, 1, 60, 0
1, 134026, Note_on_c, 1, 101, 127
1, 134145, Note_off_c, 1, 101, 0
1, 134622, Note_on_c, 1, 41, 127
1, 134622, Note_on_c, 1, 29, 127
1, 134866, Note_off_c, 1, 41, 0
1, 134866, Note_off_c, 1, 29, 0
1, 134871, Note_on_c, 1, 40, 127
1, 134871, Note_on_c, 1, 28, 127
1, 134877, Note_on_c, 1, 108, 127
1, 134979, Note_on_c, 1, 89, 127
1, 135002, Note_off_c, 1, 40, 0
1, 135002, Note_off_c, 1, 28, 0
1, 135082, Note_on_c, 1, 38, 127
1, 135082, Note_on_c, 1, 26, 127
1, 135091, Note_off_c, 1, 89, 0
1, 135133, Note_off_c, 1, 108, 0
1, 135216, Note_off_c, 1, 38, 0
1, 135216, Note_off_c, 1, 26, 0
1, 135324, Note_on_c, 1, 24, 127
1, 135615, Note_off_c, 1, 24, 0
1, 135820, Note_on_c, 1, 52, 127
1, 135948, Note_off_c, 1, 52, 0
1, 136047, Note_on_c, 1, 55, 127
1, 136186, Note_off_c, 1, 55, 0
1, 136284, Note_on_c, 1, 52, 127
1, 136284, Note_on_c, 1, 40, 127
1, 136296, Note_on_c, 1, 79, 127
1, 136296, Note_on_c, 1, 91, 127
1, 136306, Note_on_c, 1, 72, 127
1, 136306, Note_on_c, 1, 96, 127
1, 136420, Note_off_c, 1, 52, 0
1, 136420, Note_off_c, 1, 40, 0
1, 136422, Note_off_c, 1, 79, 0
1, 136422, Note_off_c, 1, 91, 0
1, 136425, Note_on_c, 1, 77, 127
1, 136425, Note_on_c, 1, 89, 127
1, 136515, Note_on_c, 1, 48, 127
1, 136515, Note_on_c, 1, 36, 127
1, 136540, Note_off_c, 1, 77, 0
1, 136540, Note_off_c, 1, 89, 0
1, 136551, Note_on_c, 1, 76, 127
1, 136551, Note_on_c, 1, 100, 127
1, 136560, Note_off_c, 1, 72, 0
1, 136560, Note_off_c, 1, 96, 0
1, 136660, Note_on_c, 1, 84, 127
1, 136676, Note_off_c, 1, 48, 0
1, 136676, Note_off_c, 1, 36, 0
1, 136769, Note_on_c, 1, 55, 127
1, 136769, Note_on_c, 1, 43, 127
1, 136775, Note_on_c, 1, 83, 127
1, 136775, Note_on_c, 1, 95, 127
1, 136780, Note_off_c, 1, 84, 0
1, 136788, Note_on_c, 1, 74, 127
1, 136788, Note_on_c, 1, 98, 127
1, 136805, Note_off_c, 1, 76, 0
1, 136805, Note_off_c, 1, 100, 0
1, 136887, Note_on_c, 1, 81, 127
1, 136887, Note_on_c, 1, 93, 127
1, 136902, Note_off_c, 1, 83, 0
1, 136902, Note_off_c, 1, 95, 0
1, 136906, Note_off_c, 1, 74, 0
1, 136906, Note_off_c, 1, 98, 0
1, 137016, Note_off_c, 1, 81, 0
1, 137016, Note_off_c, 1, 93, 0
1, 137031, Note_on_c, 1, 71, 127
1, 137114, Note_off_c, 1, 55, 0
1, 137114, Note_off_c, 1, 43, 0
1, 137132, Note_off_c, 1, 71, 0
1, 137247, Note_on_c, 1, 88, 127
1, 137352, Note_off_c, 1, 88, 0
1, 137642, Note_on_c, 1, 101, 127
1, 137688, Note_off_c, 1, 101, 0
1, 137771, Note_on_c, 1, 103, 127
1, 137878, Note_off_c, 1, 103, 0
1, 137889, Note_on_c, 1, 81, 127
1, 137889, Note_on_c, 1, 105, 127
1, 137972, Note_on_c, 1, 55, 127
1, 137972, Note_on_c, 1, 43, 127
1, 137991, Note_on_c, 1, 71, 127
1, 137991, Note_on_c, 1, 83, 127
1, 138002, Note_on_c, 1, 79, 127
1, 138002, Note_on_c, 1, 103, 127
1, 138007, Note_off_c, 1, 81, 0
1, 138007, Note_off_c, 1, 105, 0
1, 138098, Note_off_c, 1, 55, 0
1, 138098, Note_off_c, 1, 43, 0
1, 138124, Note_off_c, 1, 79, 0
1, 138124, Note_off_c, 1, 103, 0
1, 138214, Note_on_c, 1, 52, 127
1, 138214, Note_on_c, 1, 40, 127
1, 138225, Note_off_c, 1, 71, 0
1, 138225, Note_off_c, 1, 83, 0
1, 138240, Note_on_c, 1, 72, 127
1, 138240, Note_on_c, 1, 84, 127
1, 138334, Note_off_c, 1, 52, 0
1, 138334, Note_off_c, 1, 40, 0
1, 138344, Note_off_c, 1, 72, 0
1, 138344, Note_off_c, 1, 84, 0
1, 138362, Note_on_c, 1, 77, 127
1, 138362, Note_on_c, 1, 101, 127
1, 138454, Note_on_c, 1, 48, 127
1, 138454, Note_on_c, 1, 36, 127
1, 138467, Note_off_c, 1, 77, 0
1, 138467, Note_off_c, 1, 101, 0
1, 138484, Note_on_c, 1, 76, 127
1, 138484, Note_on_c, 1, 88, 127
1, 138485, Note_on_c, 1, 67, 127
1, 138595, Note_off_c, 1, 48, 0
1, 138595, Note_off_c, 1, 36, 0
1, 138605, Note_off_c, 1, 76, 0
1, 138605, Note_off_c, 1, 88, 0
1, 138625, Note_on_c, 1, 108, 127
1, 138730, Note_on_c, 1, 74, 127
1, 138730, Note_on_c, 1, 86, 127
1, 138744, Note_off_c, 1, 67, 0
1, 138749, Note_off_c, 1, 108, 0
1, 138757, Note_on_c, 1, 107, 127
1, 138879, Note_off_c, 1, 107, 0
1, 139102, Note_off_c, 1, 74, 0
1, 139102, Note_off_c, 1, 86, 0
1, 139112, Note_on_c, 1, 78, 127
1, 139112, Note_on_c, 1, 102, 127
1, 139146, Note_on_c, 1, 69, 127
1, 139146, Note_on_c, 1, 81, 127
1, 139149, Note_on_c, 1, 72, 127
1, 139149, Note_on_c, 1, 84, 127
1, 139236, Note_off_c, 1, 78, 0
1, 139236, Note_off_c, 1, 102, 0
1, 139242, Note_on_c, 1, 79, 127
1, 139242, Note_on_c, 1, 103, 127
1, 139253, Note_off_c, 1, 72, 0
1, 139253, Note_off_c, 1, 84, 0
1, 139255, Note_off_c, 1, 69, 0
1, 139255, Note_off_c, 1, 81, 0
1, 139280, Note_on_c, 1, 43, 127
1, 139280, Note_on_c, 1, 31, 127
1, 139282, Note_on_c, 1, 71, 127
1, 139282, Note_on_c, 1, 83, 127
1, 139285, Note_on_c, 1, 74, 127
1, 139285, Note_on_c, 1, 86, 127
1, 140182, Note_off_c, 1, 79, 0
1, 140182, Note_off_c, 1, 103, 0
1, 140205, Note_off_c, 1, 71, 0
1, 140205, Note_off_c, 1, 83, 0
1, 140210, Note_off_c, 1, 74, 0
1, 140210, Note_off_c, 1, 86, 0
1, 140244, Note_off_c, 1, 43, 0
1, 140244, Note_off_c, 1, 31, 0
1, 140244, End_track
0, 0, End_of_file