0, 0, Header, 1, 1, 480
1, 0, Start_track
1, 0, Title_t, "Test"
1, 0, Tempo, 500000
1, 0, Instrument_name_t, "Church Organ"
1, 3, Note_on_c, 1, 53, 127
1, 3, Note_on_c, 1, 41, 127
1, 3, Note_on_c, 1, 29, 127
1, 3, Note_on_c, 1, 17, 127
1, 30, Note_on_c, 1, 60, 127
1, 30, Note_on_c, 1, 72, 127
1, 30, Note_on_c, 1, 84, 127
1, 30, Note_on_c, 1, 79, 127
1, 60, Note_off_c, 1, 60, 0
1, 60, Note_off_c, 1, 72, 0
1, 60, Note_off_c, 1, 79, 0
1, 60, Note_on_c, 1, 65, 127
1, 60, Note_on_c, 1, 77, 127
1, 60, Note_on_c, 1, 89, 127
1, 88, Note_off_c, 1, 84, 0
1, 88, Note_off_c, 1, 65, 0
1, 88, Note_off_c, 1, 77, 0
1, 88, Note_off_c, 1, 89, 0
1, 88, Note_on_c, 1, 69, 127
1, 88, Note_on_c, 1, 81, 127
1, 88, Note_on_c, 1, 93, 127
1, 88, Note_on_c, 1, 88, 127
1, 120, Note_off_c, 1, 69, 0
1, 120, Note_off_c, 1, 81, 0
1, 120, Note_off_c, 1, 93, 0
1, 120, Note_off_c, 1, 88, 0
1, 120, Note_on_c, 1, 96, 127
1, 120, Note_on_c, 1, 91, 127
1, 153, Note_off_c, 1, 96, 0
1, 153, Note_off_c, 1, 91, 0
1, 244, Note_on_c, 1, 74, 127
1, 244, Note_on_c, 1, 86, 127
1, 244, Note_on_c, 1, 98, 127
1, 273, Note_on_c, 1, 70, 127
1, 273, Note_on_c, 1, 82, 127
1, 273, Note_on_c, 1, 94, 127
1, 275, Note_off_c, 1, 74, 0
1, 275, Note_off_c, 1, 86, 0
1, 275, Note_off_c, 1, 98, 0
1, 303, Note_off_c, 1, 70, 0
1, 303, Note_off_c, 1, 82, 0
1, 303, Note_off_c, 1, 94, 0
1, 303, Note_on_c, 1, 67, 127
1, 335, Note_off_c, 1, 67, 0
1, 364, Note_on_c, 1, 64, 127
1, 364, Note_on_c, 1, 76, 127
1, 364, Note_on_c, 1, 83, 127
1, 395, Note_off_c, 1, 64, 0
1, 395, Note_off_c, 1, 76, 0
1, 395, Note_off_c, 1, 83, 0
1, 545, Note_on_c, 1, 57, 127
1, 545, Note_on_c, 1, 101, 127
1, 576, Note_off_c, 1, 57, 0
1, 665, Note_on_c, 1, 100, 127
1, 665, Note_on_c, 1, 95, 127
1, 670, Note_off_c, 1, 101, 0
1, 697, Note_off_c, 1, 100, 0
1, 697, Note_off_c, 1, 95, 0
1, 783, Note_on_c, 1, 62, 127
1, 810, Note_off_c, 1, 62, 0
1, 843, Note_on_c, 1, 58, 127
1, 872, Note_off_c, 1, 58, 0
1, 1261, Note_on_c, 1, 55, 127
1, 1291, Note_off_c, 1, 55, 0
1, 1681, Note_on_c, 1, 48, 127
1, 1681, Note_on_c, 1, 105, 127
1, 1713, Note_off_c, 1, 105, 0
1, 1716, Note_off_c, 1, 48, 0
1, 1862, Note_on_c, 1, 103, 127
1, 1892, Note_off_c, 1, 103, 0
1, 1987, Note_on_c, 1, 106, 127
1, 2038, Note_on_c, 1, 52, 127
1, 2038, Note_on_c, 1, 71, 127
1, 2098, Note_off_c, 1, 106, 0
1, 2157, Note_off_c, 1, 52, 0
1, 2157, Note_off_c, 1, 71, 0
1, 2464, Note_on_c, 1, 75, 127
1, 2464, Note_on_c, 1, 87, 127
1, 2464, Note_on_c, 1, 99, 127
1, 2572, Note_off_c, 1, 75, 0
1, 2572, Note_off_c, 1, 87, 0
1, 2572, Note_off_c, 1, 99, 0
1, 2613, Note_on_c, 1, 63, 127
1, 2642, Note_off_c, 1, 63, 0
1, 3172, Note_off_c, 1, 53, 0
1, 3172, Note_off_c, 1, 41, 0
1, 3172, Note_off_c, 1, 29, 0
1, 3172, Note_off_c, 1, 17, 0
1, 3180, Note_on_c, 1, 43, 127
1, 3180, Note_on_c, 1, 31, 127
1, 3180, Note_on_c, 1, 19, 127
1, 3238, Note_on_c, 1, 45, 127
1, 3238, Note_on_c, 1, 33, 127
1, 3238, Note_on_c, 1, 21, 127
1, 3241, Note_off_c, 1, 43, 0
1, 3241, Note_off_c, 1, 31, 0
1, 3241, Note_off_c, 1, 19, 0
1, 3302, Note_off_c, 1, 45, 0
1, 3302, Note_off_c, 1, 33, 0
1, 3302, Note_off_c, 1, 21, 0
1, 3304, Note_on_c, 1, 46, 127
1, 3304, Note_on_c, 1, 34, 127
1, 3304, Note_on_c, 1, 22, 127
1, 3338, Note_off_c, 1, 46, 0
1, 3338, Note_off_c, 1, 34, 0
1, 3338, Note_off_c, 1, 22, 0
1, 3357, Note_on_c, 1, 36, 127
1, 3357, Note_on_c, 1, 24, 127
1, 3627, Note_on_c, 1, 59, 127
1, 3627, Note_on_c, 1, 78, 127
1, 3659, Note_off_c, 1, 59, 0
1, 3659, Note_off_c, 1, 78, 0
1, 3837, Note_on_c, 1, 50, 127
1, 3837, Note_on_c, 1, 38, 127
1, 3837, Note_on_c, 1, 26, 127
1, 3846, Note_off_c, 1, 36, 0
1, 3846, Note_off_c, 1, 24, 0
1, 3905, Note_on_c, 1, 90, 127
1, 3939, Note_off_c, 1, 90, 0
1, 4083, Note_off_c, 1, 50, 0
1, 4083, Note_off_c, 1, 38, 0
1, 4083, Note_off_c, 1, 26, 0
1, 4766, Note_on_c, 1, 66, 127
1, 4766, Note_on_c, 1, 85, 127
1, 4797, Note_off_c, 1, 66, 0
1, 4797, Note_off_c, 1, 85, 0
1, 5521, Note_on_c, 1, 47, 127
1, 5521, Note_on_c, 1, 35, 127
1, 5521, Note_on_c, 1, 23, 127
1, 5743, Note_off_c, 1, 47, 0
1, 5743, Note_off_c, 1, 35, 0
1, 5743, Note_off_c, 1, 23, 0
1, 7803, Note_on_c, 1, 107, 127
1, 7803, Note_on_c, 1, 102, 127
1, 7921, Note_off_c, 1, 107, 0
1, 7921, Note_off_c, 1, 102, 0
1, 7921, Note_on_c, 1, 108, 127
1, 7962, Note_off_c, 1, 108, 0
1, 8067, Note_on_c, 1, 61, 127
1, 8067, Note_on_c, 1, 73, 127
1, 8067, Note_on_c, 1, 80, 127
1, 8095, Note_off_c, 1, 61, 0
1, 8095, Note_off_c, 1, 73, 0
1, 8095, Note_off_c, 1, 80, 0
1, 10711, Note_on_c, 1, 72, 127
1, 10711, Note_on_c, 1, 84, 127
1, 10711, Note_on_c, 1, 96, 127
1, 10711, Note_on_c, 1, 91, 127
1, 10738, Note_on_c, 1, 67, 127
1, 10738, Note_on_c, 1, 60, 127
1, 10738, Note_on_c, 1, 79, 127
1, 10738, Note_on_c, 1, 86, 127
1, 10741, Note_on_c, 1, 76, 127
1, 10741, Note_on_c, 1, 88, 127
1, 10741, Note_on_c, 1, 100, 127
1, 10741, Note_on_c, 1, 95, 127
1, 10742, Note_off_c, 1, 96, 0
1, 10764, Note_off_c, 1, 91, 0
1, 10764, Note_off_c, 1, 67, 0
1, 10764, Note_off_c, 1, 86, 0
1, 10770, Note_on_c, 1, 103, 127
1, 10770, Note_on_c, 1, 98, 127
1, 10771, Note_off_c, 1, 76, 0
1, 10771, Note_off_c, 1, 88, 0
1, 10771, Note_off_c, 1, 100, 0
1, 10771, Note_off_c, 1, 95, 0
1, 10784, Note_off_c, 1, 72, 0
1, 10784, Note_off_c, 1, 84, 0
1, 10784, Note_off_c, 1, 60, 0
1, 10798, Note_on_c, 1, 65, 127
1, 10798, Note_on_c, 1, 77, 127
1, 10798, Note_on_c, 1, 89, 127
1, 10802, Note_on_c, 1, 81, 127
1, 10802, Note_on_c, 1, 93, 127
1, 10802, Note_on_c, 1, 105, 127
1, 10805, Note_off_c, 1, 103, 0
1, 10805, Note_off_c, 1, 98, 0
1, 10822, Note_off_c, 1, 79, 0
1, 10832, Note_off_c, 1, 81, 0
1, 10832, Note_off_c, 1, 93, 0
1, 10832, Note_off_c, 1, 105, 0
1, 10833, Note_on_c, 1, 101, 127
1, 10840, Note_off_c, 1, 65, 0
1, 10859, Note_on_c, 1, 59, 127
1, 10859, Note_on_c, 1, 71, 127
1, 10859, Note_on_c, 1, 83, 127
1, 10859, Note_on_c, 1, 78, 127
1, 10862, Note_on_c, 1, 74, 127
1, 10864, Note_off_c, 1, 77, 0
1, 10864, Note_off_c, 1, 89, 0
1, 10864, Note_off_c, 1, 101, 0
1, 10889, Note_off_c, 1, 59, 0
1, 10889, Note_off_c, 1, 71, 0
1, 10889, Note_off_c, 1, 83, 0
1, 10889, Note_off_c, 1, 78, 0
1, 10890, Note_off_c, 1, 74, 0
1, 10919, Note_on_c, 1, 62, 127
1, 10921, Note_on_c, 1, 90, 127
1, 10951, Note_off_c, 1, 90, 0
1, 10957, Note_off_c, 1, 62, 0
1, 10977, Note_on_c, 1, 55, 127
1, 11021, Note_off_c, 1, 55, 0
1, 11070, Note_on_c, 1, 64, 127
1, 11098, Note_on_c, 1, 69, 127
1, 11101, Note_on_c, 1, 102, 127
1, 11101, Note_on_c, 1, 97, 127
1, 11102, Note_off_c, 1, 64, 0
1, 11102, Note_on_c, 1, 57, 127
1, 11152, Note_off_c, 1, 102, 0
1, 11152, Note_off_c, 1, 97, 0
1, 11156, Note_on_c, 1, 58, 127
1, 11156, Note_on_c, 1, 70, 127
1, 11156, Note_on_c, 1, 82, 127
1, 11157, Note_off_c, 1, 69, 0
1, 11157, Note_off_c, 1, 57, 0
1, 11197, Note_off_c, 1, 58, 0
1, 11197, Note_off_c, 1, 70, 0
1, 11197, Note_off_c, 1, 82, 0
1, 11221, Note_on_c, 1, 94, 127
1, 11250, Note_off_c, 1, 94, 0
1, 11281, Note_on_c, 1, 75, 127
1, 11281, Note_on_c, 1, 87, 127
1, 11281, Note_on_c, 1, 99, 127
1, 11307, Note_off_c, 1, 75, 0
1, 11307, Note_off_c, 1, 87, 0
1, 11307, Note_off_c, 1, 99, 0
1, 11335, Note_on_c, 1, 63, 127
1, 11390, Note_off_c, 1, 63, 0
1, 11393, Note_on_c, 1, 66, 127
1, 11393, Note_on_c, 1, 85, 127
1, 11421, Note_off_c, 1, 66, 0
1, 11421, Note_off_c, 1, 85, 0
1, 11818, Note_on_c, 1, 73, 127
1, 11818, Note_on_c, 1, 92, 127
1, 11847, Note_off_c, 1, 73, 0
1, 11847, Note_off_c, 1, 92, 0
1, 11874, Note_on_c, 1, 61, 127
1, 11874, Note_on_c, 1, 80, 127
1, 11906, Note_off_c, 1, 61, 0
1, 11906, Note_off_c, 1, 80, 0
1, 12177, Note_on_c, 1, 74, 127
1, 12177, Note_on_c, 1, 67, 127
1, 12177, Note_on_c, 1, 86, 127
1, 12177, Note_on_c, 1, 79, 127
1, 12177, Note_on_c, 1, 98, 127
1, 12177, Note_on_c, 1, 91, 127
1, 12177, Note_on_c, 1, 93, 127
1, 12178, Note_on_c, 1, 77, 127
1, 12178, Note_on_c, 1, 89, 127
1, 12178, Note_on_c, 1, 101, 127
1, 12178, Note_on_c, 1, 96, 127
1, 12198, Note_off_c, 1, 74, 0
1, 12198, Note_off_c, 1, 98, 0
1, 12198, Note_off_c, 1, 93, 0
1, 12198, Note_off_c, 1, 77, 0
1, 12198, Note_off_c, 1, 89, 0
1, 12198, Note_off_c, 1, 101, 0
1, 12198, Note_off_c, 1, 96, 0
1, 12204, Note_on_c, 1, 65, 127
1, 12204, Note_on_c, 1, 84, 127
1, 12209, Note_off_c, 1, 67, 0
1, 12209, Note_off_c, 1, 86, 0
1, 12209, Note_off_c, 1, 79, 0
1, 12209, Note_off_c, 1, 91, 0
1, 12225, Note_off_c, 1, 65, 0
1, 12225, Note_off_c, 1, 84, 0
1, 12235, Note_on_c, 1, 64, 127
1, 12235, Note_on_c, 1, 76, 127
1, 12235, Note_on_c, 1, 88, 127
1, 12235, Note_on_c, 1, 83, 127
1, 12239, Note_on_c, 1, 74, 127
1, 12239, Note_on_c, 1, 86, 127
1, 12239, Note_on_c, 1, 98, 127
1, 12239, Note_on_c, 1, 93, 127
1, 12240, Note_on_c, 1, 77, 127
1, 12240, Note_on_c, 1, 89, 127
1, 12240, Note_on_c, 1, 101, 127
1, 12240, Note_on_c, 1, 96, 127
1, 12269, Note_on_c, 1, 60, 127
1, 12269, Note_on_c, 1, 72, 127
1, 12269, Note_on_c, 1, 84, 127
1, 12269, Note_on_c, 1, 79, 127
1, 12270, Note_off_c, 1, 64, 0
1, 12270, Note_off_c, 1, 76, 0
1, 12270, Note_off_c, 1, 88, 0
1, 12270, Note_off_c, 1, 83, 0
1, 12297, Note_off_c, 1, 74, 0
1, 12297, Note_off_c, 1, 86, 0
1, 12297, Note_off_c, 1, 98, 0
1, 12297, Note_off_c, 1, 93, 0
1, 12299, Note_on_c, 1, 91, 127
1, 12300, Note_off_c, 1, 60, 0
1, 12300, Note_off_c, 1, 79, 0
1, 12300, Note_on_c, 1, 100, 127
1, 12300, Note_on_c, 1, 95, 127
1, 12301, Note_off_c, 1, 77, 0
1, 12301, Note_off_c, 1, 89, 0
1, 12301, Note_off_c, 1, 101, 0
1, 12330, Note_on_c, 1, 67, 127
1, 12358, Note_off_c, 1, 67, 0
1, 12358, Note_on_c, 1, 57, 127
1, 12358, Note_on_c, 1, 69, 127
1, 12358, Note_on_c, 1, 81, 127
1, 12361, Note_off_c, 1, 100, 0
1, 12361, Note_off_c, 1, 95, 0
1, 12362, Note_off_c, 1, 96, 0
1, 12362, Note_off_c, 1, 72, 0
1, 12362, Note_off_c, 1, 84, 0
1, 12362, Note_off_c, 1, 91, 0
1, 12389, Note_off_c, 1, 57, 0
1, 12389, Note_off_c, 1, 69, 0
1, 12389, Note_off_c, 1, 81, 0
1, 12417, Note_on_c, 1, 65, 127
1, 12450, Note_off_c, 1, 65, 0
1, 12477, Note_on_c, 1, 62, 127
1, 12477, Note_on_c, 1, 74, 127
1, 12477, Note_on_c, 1, 86, 127
1, 12477, Note_on_c, 1, 81, 127
1, 12479, Note_on_c, 1, 72, 127
1, 12479, Note_on_c, 1, 84, 127
1, 12479, Note_on_c, 1, 96, 127
1, 12479, Note_on_c, 1, 91, 127
1, 12480, Note_on_c, 1, 76, 127
1, 12480, Note_on_c, 1, 88, 127
1, 12480, Note_on_c, 1, 100, 127
1, 12480, Note_on_c, 1, 95, 127
1, 12508, Note_off_c, 1, 62, 0
1, 12508, Note_off_c, 1, 74, 0
1, 12508, Note_off_c, 1, 86, 0
1, 12508, Note_off_c, 1, 81, 0
1, 12508, Note_on_c, 1, 59, 127
1, 12508, Note_on_c, 1, 71, 127
1, 12508, Note_on_c, 1, 83, 127
1, 12508, Note_on_c, 1, 78, 127
1, 12538, Note_off_c, 1, 72, 0
1, 12538, Note_off_c, 1, 84, 0
1, 12538, Note_off_c, 1, 96, 0
1, 12538, Note_off_c, 1, 91, 0
1, 12539, Note_off_c, 1, 59, 0
1, 12539, Note_off_c, 1, 71, 0
1, 12539, Note_off_c, 1, 83, 0
1, 12539, Note_off_c, 1, 78, 0
1, 12540, Note_on_c, 1, 98, 127
1, 12540, Note_on_c, 1, 93, 127
1, 12540, Note_on_c, 1, 90, 127
1, 12544, Note_off_c, 1, 76, 0
1, 12544, Note_off_c, 1, 88, 0
1, 12544, Note_off_c, 1, 100, 0
1, 12567, Note_on_c, 1, 65, 127
1, 12567, Note_on_c, 1, 77, 127
1, 12567, Note_on_c, 1, 89, 127
1, 12596, Note_on_c, 1, 56, 127
1, 12596, Note_on_c, 1, 68, 127
1, 12596, Note_on_c, 1, 80, 127
1, 12596, Note_on_c, 1, 75, 127
1, 12598, Note_off_c, 1, 65, 0
1, 12598, Note_off_c, 1, 77, 0
1, 12598, Note_off_c, 1, 89, 0
1, 12603, Note_off_c, 1, 98, 0
1, 12603, Note_off_c, 1, 93, 0
1, 12604, Note_off_c, 1, 95, 0
1, 12604, Note_off_c, 1, 90, 0
1, 12628, Note_off_c, 1, 56, 0
1, 12628, Note_off_c, 1, 68, 0
1, 12628, Note_off_c, 1, 80, 0
1, 12628, Note_off_c, 1, 75, 0
1, 12658, Note_on_c, 1, 64, 127
1, 12658, Note_on_c, 1, 76, 127
1, 12658, Note_on_c, 1, 88, 127
1, 12658, Note_on_c, 1, 83, 127
1, 12659, Note_on_c, 1, 71, 127
1, 12659, Note_on_c, 1, 74, 127
1, 12659, Note_on_c, 1, 86, 127
1, 12659, Note_on_c, 1, 95, 127
1, 12659, Note_on_c, 1, 98, 127
1, 12659, Note_on_c, 1, 90, 127
1, 12659, Note_on_c, 1, 93, 127
1, 12678, Note_off_c, 1, 71, 0
1, 12678, Note_off_c, 1, 74, 0
1, 12678, Note_off_c, 1, 86, 0
1, 12678, Note_off_c, 1, 95, 0
1, 12678, Note_off_c, 1, 98, 0
1, 12678, Note_off_c, 1, 90, 0
1, 12678, Note_off_c, 1, 93, 0
1, 12686, Note_on_c, 1, 62, 127
1, 12686, Note_on_c, 1, 81, 127
1, 12690, Note_off_c, 1, 64, 0
1, 12690, Note_off_c, 1, 76, 0
1, 12690, Note_off_c, 1, 88, 0
1, 12690, Note_off_c, 1, 83, 0
1, 12706, Note_off_c, 1, 62, 0
1, 12706, Note_off_c, 1, 81, 0
1, 12716, Note_on_c, 1, 60, 127
1, 12716, Note_on_c, 1, 72, 127
1, 12716, Note_on_c, 1, 84, 127
1, 12716, Note_on_c, 1, 79, 127
1, 12718, Note_on_c, 1, 71, 127
1, 12718, Note_on_c, 1, 83, 127
1, 12718, Note_on_c, 1, 95, 127
1, 12718, Note_on_c, 1, 90, 127
1, 12719, Note_on_c, 1, 74, 127
1, 12719, Note_on_c, 1, 86, 127
1, 12719, Note_on_c, 1, 98, 127
1, 12719, Note_on_c, 1, 93, 127
1, 12746, Note_on_c, 1, 57, 127
1, 12746, Note_on_c, 1, 69, 127
1, 12746, Note_on_c, 1, 81, 127
1, 12746, Note_on_c, 1, 76, 127
1, 12748, Note_off_c, 1, 60, 0
1, 12748, Note_off_c, 1, 72, 0
1, 12748, Note_off_c, 1, 84, 0
1, 12748, Note_off_c, 1, 79, 0
1, 12766, Note_off_c, 1, 57, 0
1, 12766, Note_off_c, 1, 69, 0
1, 12766, Note_off_c, 1, 81, 0
1, 12766, Note_off_c, 1, 76, 0
1, 12775, Note_off_c, 1, 71, 0
1, 12775, Note_off_c, 1, 83, 0
1, 12775, Note_off_c, 1, 95, 0
1, 12775, Note_off_c, 1, 90, 0
1, 12776, Note_off_c, 1, 74, 0
1, 12776, Note_off_c, 1, 86, 0
1, 12776, Note_off_c, 1, 98, 0
1, 12776, Note_off_c, 1, 93, 0
1, 12777, Note_on_c, 1, 96, 127
1, 12777, Note_on_c, 1, 91, 127
1, 12777, Note_on_c, 1, 88, 127
1, 12804, Note_on_c, 1, 64, 127
1, 12824, Note_off_c, 1, 64, 0
1, 12828, Note_off_c, 1, 96, 0
1, 12828, Note_off_c, 1, 91, 0
1, 12834, Note_on_c, 1, 53, 127
1, 12834, Note_on_c, 1, 65, 127
1, 12834, Note_on_c, 1, 77, 127
1, 12859, Note_off_c, 1, 53, 0
1, 12859, Note_off_c, 1, 65, 0
1, 12859, Note_off_c, 1, 77, 0
1, 12867, Note_off_c, 1, 88, 0
1, 12870, Note_on_c, 1, 74, 127
1, 12870, Note_on_c, 1, 86, 127
1, 12870, Note_on_c, 1, 98, 127
1, 12870, Note_on_c, 1, 93, 127
1, 12898, Note_on_c, 1, 65, 127
1, 12898, Note_on_c, 1, 77, 127
1, 12898, Note_on_c, 1, 89, 127
1, 12898, Note_on_c, 1, 84, 127
1, 12900, Note_on_c, 1, 69, 127
1, 12900, Note_on_c, 1, 81, 127
1, 12900, Note_on_c, 1, 88, 127
1, 12901, Note_on_c, 1, 101, 127
1, 12901, Note_on_c, 1, 96, 127
1, 12902, Note_off_c, 1, 74, 0
1, 12902, Note_off_c, 1, 86, 0
1, 12902, Note_off_c, 1, 98, 0
1, 12929, Note_off_c, 1, 101, 0
1, 12929, Note_off_c, 1, 96, 0
1, 12929, Note_on_c, 1, 105, 127
1, 12929, Note_on_c, 1, 100, 127
1, 12937, Note_off_c, 1, 105, 0
1, 12937, Note_off_c, 1, 100, 0
1, 12957, Note_off_c, 1, 93, 0
1, 12957, Note_off_c, 1, 69, 0
1, 12957, Note_off_c, 1, 81, 0
1, 12957, Note_off_c, 1, 88, 0
1, 12957, Note_on_c, 1, 67, 127
1, 12957, Note_on_c, 1, 79, 127
1, 12957, Note_on_c, 1, 91, 127
1, 12960, Note_on_c, 1, 71, 127
1, 12960, Note_on_c, 1, 83, 127
1, 12960, Note_on_c, 1, 95, 127
1, 12960, Note_on_c, 1, 90, 127
1, 12986, Note_off_c, 1, 65, 0
1, 12986, Note_off_c, 1, 77, 0
1, 12986, Note_off_c, 1, 89, 0
1, 12986, Note_off_c, 1, 84, 0
1, 12991, Note_off_c, 1, 71, 0
1, 12991, Note_off_c, 1, 83, 0
1, 12991, Note_off_c, 1, 95, 0
1, 12991, Note_off_c, 1, 90, 0
1, 13015, Note_on_c, 1, 64, 127
1, 13015, Note_on_c, 1, 76, 127
1, 13022, Note_on_c, 1, 103, 127
1, 13046, Note_on_c, 1, 62, 127
1, 13047, Note_off_c, 1, 64, 0
1, 13047, Note_off_c, 1, 76, 0
1, 13080, Note_off_c, 1, 62, 0
1, 13081, Note_off_c, 1, 67, 0
1, 13089, Note_off_c, 1, 79, 0
1, 13089, Note_off_c, 1, 91, 0
1, 13089, Note_off_c, 1, 103, 0
1, 13138, Note_on_c, 1, 72, 127
1, 13170, Note_off_c, 1, 72, 0
1, 13283, Note_on_c, 1, 60, 127
1, 13310, Note_off_c, 1, 60, 0
1, 13374, Note_on_c, 1, 55, 127
1, 13410, Note_off_c, 1, 55, 0
1, 13436, Note_on_c, 1, 60, 127
1, 13436, Note_on_c, 1, 72, 127
1, 13436, Note_on_c, 1, 84, 127
1, 13436, Note_on_c, 1, 79, 127
1, 13440, Note_on_c, 1, 76, 127
1, 13440, Note_on_c, 1, 88, 127
1, 13440, Note_on_c, 1, 100, 127
1, 13440, Note_on_c, 1, 95, 127
1, 13462, Note_off_c, 1, 60, 0
1, 13462, Note_off_c, 1, 72, 0
1, 13462, Note_off_c, 1, 84, 0
1, 13462, Note_off_c, 1, 79, 0
1, 13473, Note_on_c, 1, 91, 127
1, 13473, Note_on_c, 1, 103, 127
1, 13473, Note_on_c, 1, 98, 127
1, 13474, Note_off_c, 1, 76, 0
1, 13474, Note_off_c, 1, 88, 0
1, 13474, Note_off_c, 1, 100, 0
1, 13474, Note_off_c, 1, 95, 0
1, 13497, Note_on_c, 1, 48, 127
1, 13497, Note_on_c, 1, 67, 127
1, 13501, Note_off_c, 1, 91, 0
1, 13501, Note_off_c, 1, 103, 0
1, 13501, Note_off_c, 1, 98, 0
1, 13525, Note_off_c, 1, 48, 0
1, 13525, Note_off_c, 1, 67, 0
1, 13532, Note_on_c, 1, 96, 127
1, 13564, Note_off_c, 1, 96, 0
1, 13564, Note_on_c, 1, 69, 127
1, 13564, Note_on_c, 1, 81, 127
1, 13564, Note_on_c, 1, 93, 127
1, 13585, Note_off_c, 1, 69, 0
1, 13585, Note_off_c, 1, 81, 0
1, 13585, Note_off_c, 1, 93, 0
1, 13683, Note_on_c, 1, 65, 127
1, 13683, Note_on_c, 1, 77, 127
1, 13683, Note_on_c, 1, 89, 127
1, 13720, Note_off_c, 1, 65, 0
1, 13720, Note_off_c, 1, 77, 0
1, 13720, Note_off_c, 1, 89, 0
1, 13741, Note_on_c, 1, 58, 127
1, 13741, Note_on_c, 1, 70, 127
1, 13741, Note_on_c, 1, 82, 127
1, 13741, Note_on_c, 1, 77, 127
1, 13745, Note_on_c, 1, 74, 127
1, 13745, Note_on_c, 1, 86, 127
1, 13745, Note_on_c, 1, 98, 127
1, 13745, Note_on_c, 1, 93, 127
1, 13757, Note_off_c, 1, 58, 0
1, 13757, Note_off_c, 1, 70, 0
1, 13757, Note_off_c, 1, 82, 0
1, 13757, Note_off_c, 1, 77, 0
1, 13772, Note_on_c, 1, 57, 127
1, 13772, Note_on_c, 1, 69, 127
1, 13772, Note_on_c, 1, 81, 127
1, 13772, Note_on_c, 1, 76, 127
1, 13773, Note_on_c, 1, 72, 127
1, 13773, Note_on_c, 1, 84, 127
1, 13773, Note_on_c, 1, 96, 127
1, 13773, Note_on_c, 1, 91, 127
1, 13775, Note_off_c, 1, 74, 0
1, 13775, Note_off_c, 1, 86, 0
1, 13775, Note_off_c, 1, 98, 0
1, 13775, Note_off_c, 1, 93, 0
1, 13790, Note_off_c, 1, 57, 0
1, 13790, Note_off_c, 1, 69, 0
1, 13790, Note_off_c, 1, 81, 0
1, 13790, Note_off_c, 1, 76, 0
1, 13809, Note_off_c, 1, 72, 0
1, 13809, Note_off_c, 1, 84, 0
1, 13809, Note_off_c, 1, 96, 0
1, 13809, Note_off_c, 1, 91, 0
1, 13835, Note_on_c, 1, 94, 127
1, 13835, Note_on_c, 1, 89, 127
1, 13863, Note_on_c, 1, 67, 127
1, 13863, Note_on_c, 1, 79, 127
1, 13868, Note_off_c, 1, 94, 0
1, 13868, Note_off_c, 1, 89, 0
1, 13896, Note_off_c, 1, 67, 0
1, 13896, Note_off_c, 1, 79, 0
1, 13936, Note_on_c, 1, 64, 127
1, 13936, Note_on_c, 1, 88, 127
1, 13936, Note_on_c, 1, 83, 127
1, 13965, Note_on_c, 1, 60, 127
1, 13966, Note_off_c, 1, 64, 0
1, 13966, Note_off_c, 1, 88, 0
1, 13966, Note_off_c, 1, 83, 0
1, 13994, Note_off_c, 1, 60, 0
1, 14019, Note_on_c, 1, 55, 127
1, 14051, Note_off_c, 1, 55, 0
1, 14082, Note_on_c, 1, 65, 127
1, 14110, Note_off_c, 1, 65, 0
1, 14112, Note_on_c, 1, 53, 127
1, 14114, Note_on_c, 1, 101, 127
1, 14166, Note_off_c, 1, 53, 0
1, 14170, Note_off_c, 1, 101, 0
1, 14230, Note_on_c, 1, 106, 127
1, 14348, Note_off_c, 1, 106, 0
1, 14349, Note_on_c, 1, 105, 127
1, 14349, Note_on_c, 1, 100, 127
1, 14380, Note_on_c, 1, 103, 127
1, 14381, Note_off_c, 1, 105, 0
1, 14381, Note_off_c, 1, 100, 0
1, 14410, Note_off_c, 1, 103, 0
1, 14411, Note_on_c, 1, 41, 127
1, 14411, Note_on_c, 1, 29, 127
1, 14411, Note_on_c, 1, 17, 127
1, 14469, Note_on_c, 1, 95, 127
1, 14498, Note_off_c, 1, 95, 0
1, 14705, Note_on_c, 1, 75, 127
1, 14705, Note_on_c, 1, 87, 127
1, 14705, Note_on_c, 1, 99, 127
1, 14821, Note_off_c, 1, 75, 0
1, 14821, Note_off_c, 1, 87, 0
1, 14821, Note_off_c, 1, 99, 0
1, 14849, Note_on_c, 1, 63, 127
1, 14880, Note_off_c, 1, 63, 0
1, 14881, Note_on_c, 1, 62, 127
1, 14882, Note_off_c, 1, 41, 0
1, 14882, Note_off_c, 1, 29, 0
1, 14882, Note_off_c, 1, 17, 0
1, 14884, Note_on_c, 1, 43, 127
1, 14884, Note_on_c, 1, 31, 127
1, 14884, Note_on_c, 1, 19, 127
1, 14917, Note_off_c, 1, 62, 0
1, 14994, Note_off_c, 1, 43, 0
1, 14994, Note_off_c, 1, 31, 0
1, 14994, Note_off_c, 1, 19, 0
1, 14996, Note_on_c, 1, 45, 127
1, 14996, Note_on_c, 1, 33, 127
1, 14996, Note_on_c, 1, 21, 127
1, 15118, Note_on_c, 1, 46, 127
1, 15118, Note_on_c, 1, 34, 127
1, 15118, Note_on_c, 1, 22, 127
1, 15122, Note_off_c, 1, 45, 0
1, 15122, Note_off_c, 1, 33, 0
1, 15122, Note_off_c, 1, 21, 0
1, 15176, Note_on_c, 1, 52, 127
1, 15176, Note_on_c, 1, 71, 127
1, 15208, Note_off_c, 1, 52, 0
1, 15208, Note_off_c, 1, 71, 0
1, 15326, Note_on_c, 1, 50, 127
1, 15351, Note_off_c, 1, 46, 0
1, 15351, Note_off_c, 1, 34, 0
1, 15351, Note_off_c, 1, 22, 0
1, 15356, Note_on_c, 1, 48, 127
1, 15363, Note_off_c, 1, 50, 0
1, 15385, Note_off_c, 1, 48, 0
1, 15598, Note_on_c, 1, 36, 127
1, 15598, Note_on_c, 1, 24, 127
1, 15961, Note_on_c, 1, 66, 127
1, 15961, Note_on_c, 1, 78, 127
1, 15961, Note_on_c, 1, 90, 127
1, 15961, Note_on_c, 1, 85, 127
1, 15984, Note_off_c, 1, 66, 0
1, 15984, Note_off_c, 1, 78, 0
1, 15984, Note_off_c, 1, 90, 0
1, 15984, Note_off_c, 1, 85, 0
1, 16019, Note_on_c, 1, 54, 127
1, 16019, Note_on_c, 1, 73, 127
1, 16043, Note_off_c, 1, 54, 0
1, 16043, Note_off_c, 1, 73, 0
1, 16055, Note_off_c, 1, 36, 0
1, 16055, Note_off_c, 1, 24, 0
1, 16078, Note_on_c, 1, 55, 127
1, 16078, Note_on_c, 1, 67, 127
1, 16078, Note_on_c, 1, 79, 127
1, 16078, Note_on_c, 1, 74, 127
1, 16079, Note_on_c, 1, 62, 127
1, 16079, Note_on_c, 1, 86, 127
1, 16079, Note_on_c, 1, 81, 127
1, 16080, Note_on_c, 1, 71, 127
1, 16080, Note_on_c, 1, 83, 127
1, 16080, Note_on_c, 1, 95, 127
1, 16080, Note_on_c, 1, 90, 127
1, 16082, Note_on_c, 1, 43, 127
1, 16082, Note_on_c, 1, 31, 127
1, 16082, Note_on_c, 1, 19, 127
1, 16104, Note_off_c, 1, 62, 0
1, 16104, Note_off_c, 1, 86, 0
1, 16104, Note_off_c, 1, 81, 0
1, 16108, Note_off_c, 1, 74, 0
1, 16108, Note_on_c, 1, 91, 127
1, 16109, Note_off_c, 1, 71, 0
1, 16109, Note_off_c, 1, 83, 0
1, 16109, Note_off_c, 1, 95, 0
1, 16109, Note_off_c, 1, 90, 0
1, 16116, Note_off_c, 1, 67, 0
1, 16116, Note_off_c, 1, 79, 0
1, 16116, Note_off_c, 1, 91, 0
1, 16169, Note_on_c, 1, 98, 127
1, 16169, Note_on_c, 1, 93, 127
1, 16184, Note_off_c, 1, 98, 0
1, 16184, Note_off_c, 1, 93, 0
1, 16202, Note_on_c, 1, 76, 127
1, 16202, Note_on_c, 1, 88, 127
1, 16202, Note_on_c, 1, 100, 127
1, 16227, Note_on_c, 1, 59, 127
1, 16227, Note_on_c, 1, 78, 127
1, 16246, Note_off_c, 1, 59, 0
1, 16246, Note_off_c, 1, 78, 0
1, 16257, Note_on_c, 1, 60, 127
1, 16257, Note_on_c, 1, 72, 127
1, 16257, Note_on_c, 1, 84, 127
1, 16282, Note_off_c, 1, 60, 0
1, 16282, Note_off_c, 1, 72, 0
1, 16282, Note_off_c, 1, 84, 0
1, 16284, Note_on_c, 1, 64, 127
1, 16314, Note_off_c, 1, 64, 0
1, 16315, Note_off_c, 1, 55, 0
1, 16315, Note_off_c, 1, 43, 0
1, 16315, Note_off_c, 1, 31, 0
1, 16315, Note_off_c, 1, 19, 0
1, 16316, Note_on_c, 1, 69, 127
1, 16321, Note_on_c, 1, 53, 127
1, 16321, Note_on_c, 1, 41, 127
1, 16321, Note_on_c, 1, 29, 127
1, 16321, Note_on_c, 1, 17, 127
1, 16340, Note_off_c, 1, 69, 0
1, 16346, Note_on_c, 1, 57, 127
1, 16374, Note_off_c, 1, 57, 0
1, 16381, Note_off_c, 1, 76, 0
1, 16381, Note_off_c, 1, 88, 0
1, 16381, Note_off_c, 1, 100, 0
1, 16402, Note_on_c, 1, 65, 127
1, 16402, Note_on_c, 1, 77, 127
1, 16402, Note_on_c, 1, 89, 127
1, 16433, Note_off_c, 1, 65, 0
1, 16433, Note_off_c, 1, 77, 0
1, 16433, Note_off_c, 1, 89, 0
1, 16435, Note_off_c, 1, 53, 0
1, 16435, Note_off_c, 1, 41, 0
1, 16435, Note_off_c, 1, 29, 0
1, 16435, Note_off_c, 1, 17, 0
1, 16439, Note_on_c, 1, 52, 127
1, 16439, Note_on_c, 1, 40, 127
1, 16439, Note_on_c, 1, 28, 127
1, 16439, Note_on_c, 1, 16, 127
1, 16496, Note_on_c, 1, 96, 127
1, 16550, Note_off_c, 1, 52, 0
1, 16550, Note_off_c, 1, 40, 0
1, 16550, Note_off_c, 1, 28, 0
1, 16550, Note_off_c, 1, 16, 0
1, 16552, Note_on_c, 1, 50, 127
1, 16552, Note_on_c, 1, 38, 127
1, 16552, Note_on_c, 1, 26, 127
1, 16552, Note_on_c, 1, 14, 127
1, 16558, Note_off_c, 1, 96, 0
1, 16675, Note_on_c, 1, 101, 127
1, 16717, Note_off_c, 1, 101, 0
1, 16785, Note_off_c, 1, 50, 0
1, 16785, Note_off_c, 1, 38, 0
1, 16785, Note_off_c, 1, 26, 0
1, 16785, Note_off_c, 1, 14, 0
1, 16789, Note_on_c, 1, 72, 127
1, 16789, Note_on_c, 1, 84, 127
1, 16789, Note_on_c, 1, 96, 127
1, 16789, Note_on_c, 1, 91, 127
1, 16789, Note_on_c, 1, 48, 127
1, 16789, Note_on_c, 1, 36, 127
1, 16789, Note_on_c, 1, 24, 127
1, 16789, Note_on_c, 1, 12, 127
1, 16791, Note_on_c, 1, 64, 127
1, 16791, Note_on_c, 1, 76, 127
1, 16791, Note_on_c, 1, 88, 127
1, 16791, Note_on_c, 1, 83, 127
1, 16823, Note_off_c, 1, 64, 0
1, 16823, Note_off_c, 1, 76, 0
1, 16823, Note_off_c, 1, 88, 0
1, 16823, Note_off_c, 1, 83, 0
1, 16824, Note_on_c, 1, 65, 127
1, 16824, Note_on_c, 1, 77, 127
1, 16824, Note_on_c, 1, 89, 127
1, 16843, Note_off_c, 1, 65, 0
1, 16843, Note_off_c, 1, 77, 0
1, 16843, Note_off_c, 1, 89, 0
1, 16851, Note_on_c, 1, 62, 127
1, 16851, Note_on_c, 1, 60, 127
1, 16851, Note_on_c, 1, 74, 127
1, 16851, Note_on_c, 1, 86, 127
1, 16851, Note_on_c, 1, 81, 127
1, 16851, Note_on_c, 1, 79, 127
1, 16886, Note_off_c, 1, 62, 0
1, 16886, Note_off_c, 1, 74, 0
1, 16886, Note_off_c, 1, 86, 0
1, 16886, Note_off_c, 1, 81, 0
1, 16922, Note_off_c, 1, 96, 0
1, 16922, Note_off_c, 1, 91, 0
1, 16922, Note_on_c, 1, 98, 127
1, 16922, Note_on_c, 1, 93, 127
1, 16952, Note_on_c, 1, 67, 127
1, 16979, Note_on_c, 1, 59, 127
1, 16979, Note_on_c, 1, 71, 127
1, 16979, Note_on_c, 1, 78, 127
1, 16982, Note_off_c, 1, 72, 0
1, 16982, Note_off_c, 1, 84, 0
1, 16982, Note_off_c, 1, 60, 0
1, 16984, Note_off_c, 1, 79, 0
1, 16984, Note_off_c, 1, 67, 0
1, 17007, Note_on_c, 1, 57, 127
1, 17007, Note_on_c, 1, 69, 127
1, 17008, Note_off_c, 1, 59, 0
1, 17008, Note_off_c, 1, 71, 0
1, 17008, Note_off_c, 1, 78, 0
1, 17038, Note_on_c, 1, 55, 127
1, 17041, Note_off_c, 1, 57, 0
1, 17041, Note_off_c, 1, 69, 0
1, 17069, Note_off_c, 1, 55, 0
1, 17075, Note_off_c, 1, 98, 0
1, 17075, Note_off_c, 1, 93, 0
1, 17100, Note_on_c, 1, 53, 127
1, 17130, Note_off_c, 1, 53, 0
1, 17193, Note_on_c, 1, 100, 127
1, 17193, Note_on_c, 1, 95, 127
1, 17222, Note_off_c, 1, 100, 0
1, 17222, Note_off_c, 1, 95, 0
1, 17248, Note_on_c, 1, 52, 127
1, 17264, Note_off_c, 1, 52, 0
1, 17276, Note_on_c, 1, 50, 127
1, 17281, Note_on_c, 1, 90, 127
1, 17303, Note_off_c, 1, 50, 0
1, 17316, Note_off_c, 1, 90, 0
1, 17699, Note_on_c, 1, 70, 127
1, 17699, Note_on_c, 1, 82, 127
1, 17699, Note_on_c, 1, 94, 127
1, 17729, Note_off_c, 1, 70, 0
1, 17729, Note_off_c, 1, 82, 0
1, 17729, Note_off_c, 1, 94, 0
1, 17761, Note_off_c, 1, 36, 0
1, 17761, Note_off_c, 1, 24, 0
1, 17761, Note_off_c, 1, 12, 0
1, 17793, Note_off_c, 1, 48, 0
1, 18302, Note_on_c, 1, 58, 127
1, 18353, Note_off_c, 1, 58, 0
1, 18721, Note_on_c, 1, 41, 127
1, 18721, Note_on_c, 1, 29, 127
1, 18721, Note_on_c, 1, 17, 127
1, 18959, Note_off_c, 1, 41, 0
1, 18959, Note_off_c, 1, 29, 0
1, 18959, Note_off_c, 1, 17, 0
1, 18960, Note_on_c, 1, 43, 127
1, 18960, Note_on_c, 1, 31, 127
1, 18960, Note_on_c, 1, 19, 127
1, 19182, Note_off_c, 1, 43, 0
1, 19182, Note_off_c, 1, 31, 0
1, 19182, Note_off_c, 1, 19, 0
1, 19192, Note_on_c, 1, 45, 127
1, 19192, Note_on_c, 1, 33, 127
1, 19192, Note_on_c, 1, 21, 127
1, 19195, Note_on_c, 1, 101, 127
1, 19313, Note_on_c, 1, 46, 127
1, 19313, Note_on_c, 1, 34, 127
1, 19313, Note_on_c, 1, 22, 127
1, 19316, Note_off_c, 1, 45, 0
1, 19316, Note_off_c, 1, 33, 0
1, 19316, Note_off_c, 1, 21, 0
1, 19426, Note_off_c, 1, 101, 0
1, 19429, Note_off_c, 1, 46, 0
1, 19429, Note_off_c, 1, 34, 0
1, 19429, Note_off_c, 1, 22, 0
1, 19431, Note_on_c, 1, 67, 127
1, 19431, Note_on_c, 1, 79, 127
1, 19431, Note_on_c, 1, 91, 127
1, 19431, Note_on_c, 1, 86, 127
1, 19432, Note_on_c, 1, 52, 127
1, 19432, Note_on_c, 1, 64, 127
1, 19432, Note_on_c, 1, 76, 127
1, 19432, Note_on_c, 1, 71, 127
1, 19433, Note_on_c, 1, 60, 127
1, 19433, Note_on_c, 1, 48, 127
1, 19433, Note_on_c, 1, 36, 127
1, 19433, Note_on_c, 1, 24, 127
1, 19460, Note_off_c, 1, 52, 0
1, 19460, Note_off_c, 1, 64, 0
1, 19460, Note_off_c, 1, 76, 0
1, 19460, Note_off_c, 1, 71, 0
1, 19460, Note_on_c, 1, 53, 127
1, 19460, Note_on_c, 1, 65, 127
1, 19460, Note_on_c, 1, 77, 127
1, 19460, Note_on_c, 1, 72, 127
1, 19489, Note_on_c, 1, 50, 127
1, 19489, Note_on_c, 1, 62, 127
1, 19489, Note_on_c, 1, 74, 127
1, 19489, Note_on_c, 1, 69, 127
1, 19490, Note_off_c, 1, 53, 0
1, 19490, Note_off_c, 1, 65, 0
1, 19490, Note_off_c, 1, 77, 0
1, 19490, Note_off_c, 1, 72, 0
1, 19490, Note_on_c, 1, 103, 127
1, 19490, Note_on_c, 1, 98, 127
1, 19522, Note_off_c, 1, 50, 0
1, 19522, Note_off_c, 1, 62, 0
1, 19522, Note_off_c, 1, 74, 0
1, 19522, Note_off_c, 1, 69, 0
1, 19548, Note_off_c, 1, 67, 0
1, 19548, Note_off_c, 1, 86, 0
1, 19549, Note_on_c, 1, 81, 127
1, 19549, Note_on_c, 1, 93, 127
1, 19549, Note_on_c, 1, 88, 127
1, 19604, Note_off_c, 1, 79, 0
1, 19604, Note_off_c, 1, 91, 0
1, 19604, Note_off_c, 1, 103, 0
1, 19604, Note_off_c, 1, 98, 0
1, 19612, Note_on_c, 1, 89, 127
1, 19612, Note_on_c, 1, 83, 127
1, 19612, Note_on_c, 1, 101, 127
1, 19612, Note_on_c, 1, 95, 127
1, 19612, Note_on_c, 1, 96, 127
1, 19612, Note_on_c, 1, 90, 127
1, 19613, Note_off_c, 1, 81, 0
1, 19613, Note_off_c, 1, 93, 0
1, 19613, Note_off_c, 1, 88, 0
1, 19654, Note_off_c, 1, 89, 0
1, 19654, Note_off_c, 1, 101, 0
1, 19654, Note_off_c, 1, 96, 0
1, 19657, Note_off_c, 1, 83, 0
1, 19657, Note_off_c, 1, 95, 0
1, 19657, Note_off_c, 1, 90, 0
1, 19668, Note_on_c, 1, 55, 127
1, 19675, Note_on_c, 1, 84, 127
1, 19675, Note_on_c, 1, 100, 127
1, 19712, Note_off_c, 1, 100, 0
1, 19721, Note_off_c, 1, 55, 0
1, 19746, Note_off_c, 1, 84, 0
1, 19794, Note_on_c, 1, 57, 127
1, 19829, Note_on_c, 1, 75, 127
1, 19829, Note_on_c, 1, 87, 127
1, 19829, Note_on_c, 1, 99, 127
1, 19829, Note_on_c, 1, 94, 127
1, 19860, Note_off_c, 1, 75, 0
1, 19860, Note_off_c, 1, 87, 0
1, 19860, Note_off_c, 1, 99, 0
1, 19860, Note_off_c, 1, 94, 0
1, 19892, Note_off_c, 1, 60, 0
1, 19892, Note_off_c, 1, 48, 0
1, 19892, Note_off_c, 1, 36, 0
1, 19892, Note_off_c, 1, 24, 0
1, 19916, Note_on_c, 1, 58, 127
1, 19916, Note_on_c, 1, 46, 127
1, 19916, Note_on_c, 1, 34, 127
1, 19916, Note_on_c, 1, 22, 127
1, 19978, Note_off_c, 1, 57, 0
1, 20007, Note_on_c, 1, 54, 127
1, 20007, Note_on_c, 1, 66, 127
1, 20007, Note_on_c, 1, 78, 127
1, 20007, Note_on_c, 1, 73, 127
1, 20013, Note_on_c, 1, 70, 127
1, 20013, Note_on_c, 1, 82, 127
1, 20018, Note_off_c, 1, 54, 0
1, 20018, Note_off_c, 1, 66, 0
1, 20018, Note_off_c, 1, 78, 0
1, 20018, Note_off_c, 1, 73, 0
1, 20042, Note_off_c, 1, 70, 0
1, 20042, Note_off_c, 1, 82, 0
1, 20157, Note_off_c, 1, 58, 0
1, 20157, Note_off_c, 1, 46, 0
1, 20157, Note_off_c, 1, 34, 0
1, 20157, Note_off_c, 1, 22, 0
1, 20165, Note_on_c, 1, 45, 127
1, 20165, Note_on_c, 1, 33, 127
1, 20165, Note_on_c, 1, 21, 127
1, 20280, Note_on_c, 1, 85, 127
1, 20293, Note_off_c, 1, 85, 0
1, 20340, Note_on_c, 1, 102, 127
1, 20340, Note_on_c, 1, 97, 127
1, 20363, Note_off_c, 1, 102, 0
1, 20363, Note_off_c, 1, 97, 0
1, 20393, Note_off_c, 1, 45, 0
1, 20393, Note_off_c, 1, 33, 0
1, 20393, Note_off_c, 1, 21, 0
1, 20399, Note_on_c, 1, 43, 127
1, 20399, Note_on_c, 1, 31, 127
1, 20399, Note_on_c, 1, 19, 127
1, 20428, Note_on_c, 1, 105, 127
1, 20459, Note_off_c, 1, 105, 0
1, 20459, Note_on_c, 1, 106, 127
1, 20486, Note_off_c, 1, 106, 0
1, 20638, Note_off_c, 1, 43, 0
1, 20638, Note_off_c, 1, 31, 0
1, 20638, Note_off_c, 1, 19, 0
1, 20638, Note_on_c, 1, 92, 127
1, 20689, Note_off_c, 1, 92, 0
1, 20757, Note_on_c, 1, 61, 127
1, 20757, Note_on_c, 1, 80, 127
1, 20895, Note_off_c, 1, 61, 0
1, 20895, Note_off_c, 1, 80, 0
1, 21476, Note_on_c, 1, 62, 127
1, 21476, Note_on_c, 1, 59, 127
1, 21476, Note_on_c, 1, 74, 127
1, 21476, Note_on_c, 1, 71, 127
1, 21476, Note_on_c, 1, 86, 127
1, 21476, Note_on_c, 1, 83, 127
1, 21476, Note_on_c, 1, 81, 127
1, 21476, Note_on_c, 1, 78, 127
1, 21479, Note_on_c, 1, 68, 127
1, 21479, Note_on_c, 1, 80, 127
1, 21479, Note_on_c, 1, 92, 127
1, 21479, Note_on_c, 1, 87, 127
1, 21501, Note_off_c, 1, 62, 0
1, 21501, Note_off_c, 1, 74, 0
1, 21501, Note_off_c, 1, 86, 0
1, 21501, Note_off_c, 1, 81, 0
1, 21502, Note_off_c, 1, 59, 0
1, 21502, Note_off_c, 1, 71, 0
1, 21502, Note_off_c, 1, 83, 0
1, 21502, Note_off_c, 1, 78, 0
1, 21506, Note_off_c, 1, 68, 0
1, 21506, Note_off_c, 1, 80, 0
1, 21506, Note_off_c, 1, 92, 0
1, 21506, Note_off_c, 1, 87, 0
1, 21509, Note_on_c, 1, 77, 127
1, 21509, Note_on_c, 1, 89, 127
1, 21509, Note_on_c, 1, 101, 127
1, 21509, Note_on_c, 1, 96, 127
1, 21527, Note_off_c, 1, 77, 0
1, 21527, Note_off_c, 1, 89, 0
1, 21527, Note_off_c, 1, 101, 0
1, 21527, Note_off_c, 1, 96, 0
1, 21535, Note_on_c, 1, 59, 127
1, 21535, Note_on_c, 1, 71, 127
1, 21535, Note_on_c, 1, 83, 127
1, 21535, Note_on_c, 1, 78, 127
1, 21536, Note_on_c, 1, 56, 127
1, 21536, Note_on_c, 1, 68, 127
1, 21536, Note_on_c, 1, 80, 127
1, 21536, Note_on_c, 1, 75, 127
1, 21540, Note_on_c, 1, 76, 127
1, 21540, Note_on_c, 1, 88, 127
1, 21540, Note_on_c, 1, 100, 127
1, 21540, Note_on_c, 1, 95, 127
1, 21562, Note_off_c, 1, 56, 0
1, 21562, Note_off_c, 1, 68, 0
1, 21562, Note_off_c, 1, 80, 0
1, 21562, Note_off_c, 1, 75, 0
1, 21563, Note_off_c, 1, 59, 0
1, 21563, Note_off_c, 1, 71, 0
1, 21563, Note_off_c, 1, 83, 0
1, 21563, Note_off_c, 1, 78, 0
1, 21568, Note_on_c, 1, 74, 127
1, 21568, Note_on_c, 1, 86, 127
1, 21568, Note_on_c, 1, 98, 127
1, 21568, Note_on_c, 1, 93, 127
1, 21570, Note_off_c, 1, 76, 0
1, 21570, Note_off_c, 1, 88, 0
1, 21570, Note_off_c, 1, 100, 0
1, 21570, Note_off_c, 1, 95, 0
1, 21576, Note_off_c, 1, 74, 0
1, 21576, Note_off_c, 1, 86, 0
1, 21576, Note_off_c, 1, 98, 0
1, 21576, Note_off_c, 1, 93, 0
1, 21597, Note_on_c, 1, 57, 127
1, 21597, Note_on_c, 1, 69, 127
1, 21597, Note_on_c, 1, 81, 127
1, 21597, Note_on_c, 1, 76, 127
1, 21600, Note_on_c, 1, 73, 127
1, 21600, Note_on_c, 1, 85, 127
1, 21600, Note_on_c, 1, 97, 127
1, 21600, Note_on_c, 1, 92, 127
1, 21632, Note_on_c, 1, 93, 127
1, 21632, Note_on_c, 1, 88, 127
1, 21637, Note_off_c, 1, 57, 0
1, 21637, Note_off_c, 1, 76, 0
1, 21650, Note_off_c, 1, 69, 0
1, 21650, Note_off_c, 1, 81, 0
1, 21650, Note_off_c, 1, 93, 0
1, 21650, Note_off_c, 1, 88, 0
1, 21661, Note_on_c, 1, 45, 127
1, 21661, Note_on_c, 1, 64, 127
1, 21663, Note_on_c, 1, 83, 127
1, 21687, Note_off_c, 1, 83, 0
1, 21691, Note_on_c, 1, 67, 127
1, 21691, Note_on_c, 1, 79, 127
1, 21691, Note_on_c, 1, 91, 127
1, 21691, Note_on_c, 1, 86, 127
1, 21695, Note_off_c, 1, 73, 0
1, 21695, Note_off_c, 1, 85, 0
1, 21695, Note_off_c, 1, 97, 0
1, 21695, Note_off_c, 1, 92, 0
1, 21701, Note_off_c, 1, 45, 0
1, 21701, Note_off_c, 1, 64, 0
1, 21703, Note_off_c, 1, 67, 0
1, 21703, Note_off_c, 1, 79, 0
1, 21703, Note_off_c, 1, 91, 0
1, 21703, Note_off_c, 1, 86, 0
1, 21721, Note_on_c, 1, 66, 127
1, 21721, Note_on_c, 1, 78, 127
1, 21721, Note_on_c, 1, 90, 127
1, 21721, Note_on_c, 1, 85, 127
1, 21753, Note_on_c, 1, 75, 127
1, 21753, Note_on_c, 1, 87, 127
1, 21753, Note_on_c, 1, 99, 127
1, 21753, Note_on_c, 1, 94, 127
1, 21756, Note_off_c, 1, 66, 0
1, 21756, Note_off_c, 1, 78, 0
1, 21756, Note_off_c, 1, 90, 0
1, 21756, Note_off_c, 1, 85, 0
1, 21780, Note_on_c, 1, 50, 127
1, 21780, Note_on_c, 1, 62, 127
1, 21780, Note_on_c, 1, 74, 127
1, 21780, Note_on_c, 1, 69, 127
1, 21781, Note_off_c, 1, 75, 0
1, 21781, Note_off_c, 1, 87, 0
1, 21781, Note_off_c, 1, 99, 0
1, 21781, Note_off_c, 1, 94, 0
1, 21783, Note_on_c, 1, 86, 127
1, 21783, Note_on_c, 1, 98, 127
1, 21783, Note_on_c, 1, 93, 127
1, 21805, Note_off_c, 1, 50, 0
1, 21805, Note_off_c, 1, 62, 0
1, 21805, Note_off_c, 1, 69, 0
1, 21809, Note_off_c, 1, 74, 0
1, 21809, Note_off_c, 1, 86, 0
1, 21809, Note_off_c, 1, 98, 0
1, 21809, Note_off_c, 1, 93, 0
1, 21812, Note_on_c, 1, 72, 127
1, 21812, Note_on_c, 1, 84, 127
1, 21812, Note_on_c, 1, 96, 127
1, 21812, Note_on_c, 1, 91, 127
1, 21824, Note_off_c, 1, 72, 0
1, 21824, Note_off_c, 1, 84, 0
1, 21824, Note_off_c, 1, 96, 0
1, 21824, Note_off_c, 1, 91, 0
1, 21840, Note_on_c, 1, 55, 127
1, 21840, Note_on_c, 1, 67, 127
1, 21840, Note_on_c, 1, 79, 127
1, 21840, Note_on_c, 1, 74, 127
1, 21843, Note_on_c, 1, 71, 127
1, 21843, Note_on_c, 1, 83, 127
1, 21843, Note_on_c, 1, 95, 127
1, 21843, Note_on_c, 1, 90, 127
1, 21871, Note_off_c, 1, 55, 0
1, 21871, Note_off_c, 1, 74, 0
1, 21871, Note_on_c, 1, 91, 127
1, 21871, Note_on_c, 1, 86, 127
1, 21900, Note_on_c, 1, 62, 127
1, 21900, Note_on_c, 1, 43, 127
1, 21900, Note_on_c, 1, 81, 127
1, 21902, Note_off_c, 1, 79, 0
1, 21902, Note_off_c, 1, 91, 0
1, 21917, Note_off_c, 1, 86, 0
1, 21917, Note_off_c, 1, 81, 0
1, 21930, Note_on_c, 1, 65, 127
1, 21930, Note_on_c, 1, 77, 127
1, 21930, Note_on_c, 1, 89, 127
1, 21930, Note_on_c, 1, 84, 127
1, 21942, Note_off_c, 1, 67, 0
1, 21942, Note_off_c, 1, 62, 0
1, 21942, Note_off_c, 1, 43, 0
1, 21942, Note_off_c, 1, 65, 0
1, 21942, Note_off_c, 1, 77, 0
1, 21942, Note_off_c, 1, 89, 0
1, 21942, Note_off_c, 1, 84, 0
1, 21950, Note_off_c, 1, 71, 0
1, 21950, Note_off_c, 1, 83, 0
1, 21950, Note_off_c, 1, 95, 0
1, 21950, Note_off_c, 1, 90, 0
1, 21963, Note_on_c, 1, 64, 127
1, 21963, Note_on_c, 1, 76, 127
1, 21963, Note_on_c, 1, 88, 127
1, 21963, Note_on_c, 1, 83, 127
1, 21991, Note_on_c, 1, 74, 127
1, 21991, Note_on_c, 1, 86, 127
1, 21991, Note_on_c, 1, 98, 127
1, 21991, Note_on_c, 1, 93, 127
1, 22019, Note_on_c, 1, 48, 127
1, 22019, Note_on_c, 1, 60, 127
1, 22019, Note_on_c, 1, 72, 127
1, 22019, Note_on_c, 1, 67, 127
1, 22022, Note_off_c, 1, 74, 0
1, 22022, Note_off_c, 1, 86, 0
1, 22022, Note_off_c, 1, 98, 0
1, 22022, Note_off_c, 1, 93, 0
1, 22022, Note_on_c, 1, 84, 127
1, 22022, Note_on_c, 1, 96, 127
1, 22022, Note_on_c, 1, 91, 127
1, 22034, Note_off_c, 1, 48, 0
1, 22034, Note_off_c, 1, 60, 0
1, 22034, Note_off_c, 1, 67, 0
1, 22047, Note_off_c, 1, 72, 0
1, 22047, Note_off_c, 1, 84, 0
1, 22047, Note_off_c, 1, 96, 0
1, 22047, Note_off_c, 1, 91, 0
1, 22054, Note_on_c, 1, 70, 127
1, 22054, Note_on_c, 1, 82, 127
1, 22054, Note_on_c, 1, 94, 127
1, 22054, Note_on_c, 1, 89, 127
1, 22063, Note_off_c, 1, 70, 0
1, 22063, Note_off_c, 1, 82, 0
1, 22063, Note_off_c, 1, 94, 0
1, 22063, Note_off_c, 1, 89, 0
1, 22082, Note_on_c, 1, 69, 127
1, 22082, Note_on_c, 1, 81, 127
1, 22083, Note_on_c, 1, 53, 127
1, 22083, Note_on_c, 1, 65, 127
1, 22083, Note_on_c, 1, 77, 127
1, 22088, Note_off_c, 1, 64, 0
1, 22088, Note_off_c, 1, 76, 0
1, 22088, Note_off_c, 1, 83, 0
1, 22114, Note_off_c, 1, 88, 0
1, 22114, Note_off_c, 1, 69, 0
1, 22114, Note_off_c, 1, 81, 0
1, 22116, Note_on_c, 1, 57, 127
1, 22135, Note_off_c, 1, 57, 0
1, 22148, Note_on_c, 1, 62, 127
1, 22175, Note_off_c, 1, 62, 0
1, 22270, Note_off_c, 1, 53, 0
1, 22295, Note_off_c, 1, 65, 0
1, 22295, Note_off_c, 1, 77, 0
1, 22320, Note_on_c, 1, 54, 127
1, 22320, Note_on_c, 1, 66, 127
1, 22320, Note_on_c, 1, 78, 127
1, 22320, Note_on_c, 1, 73, 127
1, 22324, Note_on_c, 1, 72, 127
1, 22324, Note_on_c, 1, 84, 127
1, 22324, Note_on_c, 1, 96, 127
1, 22324, Note_on_c, 1, 91, 127
1, 22325, Note_on_c, 1, 75, 127
1, 22325, Note_on_c, 1, 87, 127
1, 22325, Note_on_c, 1, 99, 127
1, 22325, Note_on_c, 1, 94, 127
1, 22353, Note_on_c, 1, 69, 127
1, 22353, Note_on_c, 1, 81, 127
1, 22353, Note_on_c, 1, 93, 127
1, 22353, Note_on_c, 1, 88, 127
1, 22357, Note_off_c, 1, 72, 0
1, 22357, Note_off_c, 1, 84, 0
1, 22357, Note_off_c, 1, 96, 0
1, 22357, Note_off_c, 1, 91, 0
1, 22381, Note_on_c, 1, 90, 127
1, 22381, Note_on_c, 1, 85, 127
1, 22382, Note_off_c, 1, 69, 0
1, 22382, Note_off_c, 1, 81, 0
1, 22382, Note_off_c, 1, 93, 0
1, 22382, Note_off_c, 1, 88, 0
1, 22407, Note_off_c, 1, 90, 0
1, 22407, Note_off_c, 1, 85, 0
1, 22436, Note_off_c, 1, 54, 0
1, 22436, Note_off_c, 1, 66, 0
1, 22436, Note_off_c, 1, 78, 0
1, 22436, Note_off_c, 1, 73, 0
1, 22438, Note_off_c, 1, 99, 0
1, 22438, Note_off_c, 1, 94, 0
1, 22438, Note_on_c, 1, 63, 127
1, 22438, Note_on_c, 1, 82, 127
1, 22467, Note_off_c, 1, 75, 0
1, 22467, Note_off_c, 1, 87, 0
1, 22467, Note_off_c, 1, 63, 0
1, 22467, Note_off_c, 1, 82, 0
1, 22469, Note_on_c, 1, 72, 127
1, 22469, Note_on_c, 1, 84, 127
1, 22469, Note_on_c, 1, 96, 127
1, 22469, Note_on_c, 1, 91, 127
1, 22497, Note_on_c, 1, 71, 127
1, 22497, Note_on_c, 1, 83, 127
1, 22497, Note_on_c, 1, 95, 127
1, 22497, Note_on_c, 1, 90, 127
1, 22498, Note_off_c, 1, 72, 0
1, 22498, Note_off_c, 1, 84, 0
1, 22498, Note_off_c, 1, 96, 0
1, 22498, Note_off_c, 1, 91, 0
1, 22524, Note_on_c, 1, 69, 127
1, 22524, Note_on_c, 1, 81, 127
1, 22524, Note_on_c, 1, 93, 127
1, 22524, Note_on_c, 1, 88, 127
1, 22525, Note_off_c, 1, 71, 0
1, 22525, Note_off_c, 1, 83, 0
1, 22525, Note_off_c, 1, 95, 0
1, 22525, Note_off_c, 1, 90, 0
1, 22541, Note_off_c, 1, 69, 0
1, 22541, Note_off_c, 1, 81, 0
1, 22541, Note_off_c, 1, 93, 0
1, 22541, Note_off_c, 1, 88, 0
1, 22554, Note_on_c, 1, 68, 127
1, 22554, Note_on_c, 1, 80, 127
1, 22554, Note_on_c, 1, 92, 127
1, 22554, Note_on_c, 1, 87, 127
1, 22555, Note_on_c, 1, 76, 127
1, 22555, Note_on_c, 1, 88, 127
1, 22555, Note_on_c, 1, 100, 127
1, 22555, Note_on_c, 1, 95, 127
1, 22581, Note_on_c, 1, 52, 127
1, 22581, Note_on_c, 1, 64, 127
1, 22581, Note_on_c, 1, 71, 127
1, 22588, Note_off_c, 1, 88, 0
1, 22588, Note_off_c, 1, 100, 0
1, 22588, Note_off_c, 1, 95, 0
1, 22604, Note_off_c, 1, 68, 0
1, 22604, Note_off_c, 1, 80, 0
1, 22604, Note_off_c, 1, 92, 0
1, 22604, Note_off_c, 1, 87, 0
1, 22613, Note_on_c, 1, 56, 127
1, 22613, Note_on_c, 1, 75, 127
1, 22615, Note_off_c, 1, 76, 0
1, 22615, Note_off_c, 1, 52, 0
1, 22615, Note_off_c, 1, 64, 0
1, 22615, Note_off_c, 1, 71, 0
1, 22619, Note_on_c, 1, 74, 127
1, 22619, Note_on_c, 1, 86, 127
1, 22619, Note_on_c, 1, 98, 127
1, 22619, Note_on_c, 1, 93, 127
1, 22620, Note_on_c, 1, 83, 127
1, 22620, Note_on_c, 1, 90, 127
1, 22641, Note_off_c, 1, 56, 0
1, 22641, Note_off_c, 1, 75, 0
1, 22641, Note_on_c, 1, 59, 127
1, 22641, Note_on_c, 1, 78, 127
1, 22643, Note_off_c, 1, 74, 0
1, 22643, Note_off_c, 1, 86, 0
1, 22643, Note_off_c, 1, 98, 0
1, 22643, Note_off_c, 1, 93, 0
1, 22675, Note_off_c, 1, 59, 0
1, 22675, Note_off_c, 1, 78, 0
1, 22676, Note_on_c, 1, 72, 127
1, 22676, Note_on_c, 1, 84, 127
1, 22676, Note_on_c, 1, 96, 127
1, 22676, Note_on_c, 1, 91, 127
1, 22705, Note_on_c, 1, 57, 127
1, 22705, Note_on_c, 1, 69, 127
1, 22705, Note_on_c, 1, 81, 127
1, 22709, Note_off_c, 1, 83, 0
1, 22709, Note_off_c, 1, 90, 0
1, 22737, Note_on_c, 1, 60, 127
1, 22737, Note_on_c, 1, 79, 127
1, 22739, Note_off_c, 1, 57, 0
1, 22766, Note_off_c, 1, 60, 0
1, 22766, Note_off_c, 1, 79, 0
1, 22794, Note_off_c, 1, 72, 0
1, 22794, Note_off_c, 1, 84, 0
1, 22794, Note_off_c, 1, 96, 0
1, 22794, Note_off_c, 1, 91, 0
1, 22795, Note_on_c, 1, 65, 127
1, 22795, Note_on_c, 1, 77, 127
1, 22795, Note_on_c, 1, 89, 127
1, 22824, Note_on_c, 1, 62, 127
1, 22826, Note_off_c, 1, 65, 0
1, 22826, Note_off_c, 1, 77, 0
1, 22826, Note_off_c, 1, 89, 0
1, 22856, Note_off_c, 1, 62, 0
1, 22860, Note_off_c, 1, 69, 0
1, 22860, Note_off_c, 1, 81, 0
1, 23153, Note_on_c, 1, 54, 127
1, 23153, Note_on_c, 1, 66, 127
1, 23153, Note_on_c, 1, 73, 127
1, 23184, Note_on_c, 1, 63, 127
1, 23184, Note_on_c, 1, 82, 127
1, 23185, Note_off_c, 1, 54, 0
1, 23185, Note_off_c, 1, 66, 0
1, 23185, Note_off_c, 1, 73, 0
1, 23214, Note_off_c, 1, 63, 0
1, 23214, Note_off_c, 1, 82, 0
1, 23272, Note_on_c, 1, 58, 127
1, 23272, Note_on_c, 1, 70, 127
1, 23272, Note_on_c, 1, 82, 127
1, 23272, Note_on_c, 1, 77, 127
1, 23274, Note_on_c, 1, 72, 127
1, 23274, Note_on_c, 1, 69, 127
1, 23274, Note_on_c, 1, 84, 127
1, 23274, Note_on_c, 1, 81, 127
1, 23274, Note_on_c, 1, 96, 127
1, 23274, Note_on_c, 1, 93, 127
1, 23274, Note_on_c, 1, 91, 127
1, 23274, Note_on_c, 1, 88, 127
1, 23304, Note_on_c, 1, 55, 127
1, 23304, Note_on_c, 1, 67, 127
1, 23304, Note_on_c, 1, 79, 127
1, 23304, Note_on_c, 1, 74, 127
1, 23305, Note_off_c, 1, 58, 0
1, 23305, Note_off_c, 1, 70, 0
1, 23305, Note_off_c, 1, 82, 0
1, 23305, Note_off_c, 1, 77, 0
1, 23333, Note_off_c, 1, 72, 0
1, 23333, Note_off_c, 1, 84, 0
1, 23333, Note_off_c, 1, 96, 0
1, 23333, Note_off_c, 1, 91, 0
1, 23334, Note_on_c, 1, 94, 127
1, 23334, Note_on_c, 1, 89, 127
1, 23335, Note_off_c, 1, 69, 0
1, 23335, Note_off_c, 1, 81, 0
1, 23335, Note_off_c, 1, 93, 0
1, 23335, Note_off_c, 1, 88, 0
1, 23335, Note_off_c, 1, 55, 0
1, 23335, Note_off_c, 1, 74, 0
1, 23335, Note_on_c, 1, 86, 127
1, 23364, Note_on_c, 1, 62, 127
1, 23366, Note_off_c, 1, 94, 0
1, 23366, Note_off_c, 1, 89, 0
1, 23388, Note_off_c, 1, 67, 0
1, 23388, Note_off_c, 1, 79, 0
1, 23392, Note_off_c, 1, 86, 0
1, 23392, Note_off_c, 1, 62, 0
1, 23393, Note_on_c, 1, 52, 127
1, 23393, Note_on_c, 1, 64, 127
1, 23393, Note_on_c, 1, 76, 127
1, 23393, Note_on_c, 1, 71, 127
1, 23426, Note_on_c, 1, 62, 127
1, 23426, Note_on_c, 1, 74, 127
1, 23426, Note_on_c, 1, 86, 127
1, 23426, Note_on_c, 1, 81, 127
1, 23427, Note_off_c, 1, 52, 0
1, 23427, Note_off_c, 1, 64, 0
1, 23427, Note_off_c, 1, 76, 0
1, 23427, Note_off_c, 1, 71, 0
1, 23451, Note_on_c, 1, 70, 127
1, 23451, Note_on_c, 1, 82, 127
1, 23451, Note_on_c, 1, 94, 127
1, 23451, Note_on_c, 1, 89, 127
1, 23452, Note_on_c, 1, 79, 127
1, 23452, Note_on_c, 1, 91, 127
1, 23452, Note_on_c, 1, 103, 127
1, 23452, Note_on_c, 1, 98, 127
1, 23455, Note_off_c, 1, 62, 0
1, 23455, Note_off_c, 1, 74, 0
1, 23455, Note_off_c, 1, 86, 0
1, 23455, Note_off_c, 1, 81, 0
1, 23455, Note_on_c, 1, 60, 127
1, 23455, Note_on_c, 1, 72, 127
1, 23455, Note_on_c, 1, 84, 127
1, 23467, Note_off_c, 1, 91, 0
1, 23467, Note_off_c, 1, 103, 0
1, 23467, Note_off_c, 1, 98, 0
1, 23468, Note_off_c, 1, 70, 0
1, 23468, Note_off_c, 1, 82, 0
1, 23468, Note_off_c, 1, 94, 0
1, 23468, Note_off_c, 1, 89, 0
1, 23480, Note_on_c, 1, 58, 127
1, 23480, Note_on_c, 1, 77, 127
1, 23486, Note_off_c, 1, 79, 0
1, 23486, Note_off_c, 1, 60, 0
1, 23486, Note_off_c, 1, 72, 0
1, 23486, Note_off_c, 1, 84, 0
1, 23498, Note_off_c, 1, 58, 0
1, 23498, Note_off_c, 1, 77, 0
1, 23509, Note_on_c, 1, 57, 127
1, 23509, Note_on_c, 1, 69, 127
1, 23509, Note_on_c, 1, 81, 127
1, 23509, Note_on_c, 1, 76, 127
1, 23514, Note_on_c, 1, 79, 127
1, 23514, Note_on_c, 1, 91, 127
1, 23514, Note_on_c, 1, 103, 127
1, 23514, Note_on_c, 1, 98, 127
1, 23515, Note_on_c, 1, 70, 127
1, 23515, Note_on_c, 1, 82, 127
1, 23515, Note_on_c, 1, 94, 127
1, 23515, Note_on_c, 1, 89, 127
1, 23544, Note_off_c, 1, 57, 0
1, 23544, Note_off_c, 1, 69, 0
1, 23544, Note_off_c, 1, 81, 0
1, 23544, Note_off_c, 1, 76, 0
1, 23544, Note_on_c, 1, 53, 127
1, 23544, Note_on_c, 1, 65, 127
1, 23544, Note_on_c, 1, 77, 127
1, 23544, Note_on_c, 1, 72, 127
1, 23576, Note_off_c, 1, 53, 0
1, 23576, Note_off_c, 1, 65, 0
1, 23576, Note_off_c, 1, 77, 0
1, 23576, Note_off_c, 1, 72, 0
1, 23578, Note_off_c, 1, 79, 0
1, 23578, Note_off_c, 1, 91, 0
1, 23578, Note_off_c, 1, 103, 0
1, 23578, Note_off_c, 1, 98, 0
1, 23578, Note_on_c, 1, 101, 127
1, 23578, Note_on_c, 1, 96, 127
1, 23579, Note_off_c, 1, 70, 0
1, 23579, Note_off_c, 1, 82, 0
1, 23579, Note_off_c, 1, 94, 0
1, 23579, Note_on_c, 1, 93, 127
1, 23579, Note_on_c, 1, 88, 127
1, 23604, Note_on_c, 1, 60, 127
1, 23604, Note_on_c, 1, 84, 127
1, 23634, Note_off_c, 1, 60, 0
1, 23634, Note_off_c, 1, 84, 0
1, 23635, Note_off_c, 1, 93, 0
1, 23635, Note_off_c, 1, 88, 0
1, 23635, Note_on_c, 1, 50, 127
1, 23635, Note_on_c, 1, 62, 127
1, 23635, Note_on_c, 1, 74, 127
1, 23639, Note_off_c, 1, 89, 0
1, 23639, Note_off_c, 1, 101, 0
1, 23639, Note_off_c, 1, 96, 0
1, 23665, Note_off_c, 1, 50, 0
1, 23665, Note_off_c, 1, 62, 0
1, 23665, Note_off_c, 1, 74, 0
1, 23695, Note_on_c, 1, 58, 127
1, 23699, Note_on_c, 1, 86, 127
1, 23715, Note_off_c, 1, 86, 0
1, 23727, Note_off_c, 1, 58, 0
1, 23755, Note_on_c, 1, 55, 127
1, 23755, Note_on_c, 1, 67, 127
1, 23755, Note_on_c, 1, 79, 127
1, 23755, Note_on_c, 1, 74, 127
1, 23762, Note_on_c, 1, 77, 127
1, 23762, Note_on_c, 1, 89, 127
1, 23762, Note_on_c, 1, 86, 127
1, 23762, Note_on_c, 1, 101, 127
1, 23762, Note_on_c, 1, 98, 127
1, 23762, Note_on_c, 1, 96, 127
1, 23762, Note_on_c, 1, 93, 127
1, 23791, Note_on_c, 1, 52, 127
1, 23791, Note_on_c, 1, 64, 127
1, 23791, Note_on_c, 1, 76, 127
1, 23791, Note_on_c, 1, 71, 127
1, 23795, Note_off_c, 1, 55, 0
1, 23795, Note_off_c, 1, 67, 0
1, 23795, Note_off_c, 1, 79, 0
1, 23820, Note_off_c, 1, 52, 0
1, 23820, Note_off_c, 1, 64, 0
1, 23820, Note_off_c, 1, 76, 0
1, 23820, Note_off_c, 1, 71, 0
1, 23822, Note_off_c, 1, 77, 0
1, 23822, Note_off_c, 1, 89, 0
1, 23822, Note_off_c, 1, 101, 0
1, 23822, Note_off_c, 1, 96, 0
1, 23822, Note_on_c, 1, 73, 127
1, 23822, Note_on_c, 1, 85, 127
1, 23822, Note_on_c, 1, 97, 127
1, 23822, Note_on_c, 1, 92, 127
1, 23823, Note_on_c, 1, 88, 127
1, 23823, Note_on_c, 1, 100, 127
1, 23823, Note_on_c, 1, 95, 127
1, 23826, Note_off_c, 1, 86, 0
1, 23826, Note_off_c, 1, 98, 0
1, 23826, Note_off_c, 1, 93, 0
1, 23847, Note_off_c, 1, 74, 0
1, 23847, Note_on_c, 1, 58, 127
1, 23847, Note_on_c, 1, 70, 127
1, 23847, Note_on_c, 1, 82, 127
1, 23876, Note_off_c, 1, 58, 0
1, 23876, Note_off_c, 1, 70, 0
1, 23876, Note_off_c, 1, 82, 0
1, 23877, Note_on_c, 1, 49, 127
1, 23877, Note_on_c, 1, 61, 127
1, 23877, Note_on_c, 1, 68, 127
1, 23883, Note_off_c, 1, 85, 0
1, 23883, Note_off_c, 1, 97, 0
1, 23883, Note_off_c, 1, 92, 0
1, 23884, Note_off_c, 1, 88, 0
1, 23884, Note_off_c, 1, 100, 0
1, 23884, Note_off_c, 1, 95, 0
1, 23910, Note_off_c, 1, 73, 0
1, 23910, Note_off_c, 1, 49, 0
1, 23910, Note_off_c, 1, 61, 0
1, 23910, Note_off_c, 1, 68, 0
1, 23936, Note_on_c, 1, 57, 127
1, 23936, Note_on_c, 1, 69, 127
1, 23936, Note_on_c, 1, 81, 127
1, 23937, Note_on_c, 1, 91, 127
1, 23938, Note_on_c, 1, 83, 127
1, 23954, Note_off_c, 1, 83, 0
1, 23955, Note_off_c, 1, 91, 0
1, 23969, Note_off_c, 1, 57, 0
1, 23969, Note_off_c, 1, 69, 0
1, 23969, Note_off_c, 1, 81, 0
1, 23994, Note_on_c, 1, 53, 127
1, 23994, Note_on_c, 1, 65, 127
1, 23994, Note_on_c, 1, 77, 127
1, 23994, Note_on_c, 1, 72, 127
1, 24000, Note_on_c, 1, 67, 127
1, 24000, Note_on_c, 1, 64, 127
1, 24000, Note_on_c, 1, 79, 127
1, 24000, Note_on_c, 1, 76, 127
1, 24000, Note_on_c, 1, 91, 127
1, 24000, Note_on_c, 1, 88, 127
1, 24000, Note_on_c, 1, 86, 127
1, 24000, Note_on_c, 1, 83, 127
1, 24026, Note_on_c, 1, 50, 127
1, 24026, Note_on_c, 1, 62, 127
1, 24026, Note_on_c, 1, 74, 127
1, 24026, Note_on_c, 1, 69, 127
1, 24027, Note_off_c, 1, 53, 0
1, 24027, Note_off_c, 1, 65, 0
1, 24027, Note_off_c, 1, 77, 0
1, 24027, Note_off_c, 1, 72, 0
1, 24059, Note_off_c, 1, 50, 0
1, 24059, Note_off_c, 1, 62, 0
1, 24059, Note_off_c, 1, 74, 0
1, 24059, Note_off_c, 1, 69, 0
1, 24065, Note_off_c, 1, 67, 0
1, 24065, Note_off_c, 1, 79, 0
1, 24065, Note_off_c, 1, 91, 0
1, 24065, Note_on_c, 1, 89, 127
1, 24065, Note_on_c, 1, 84, 127
1, 24065, Note_on_c, 1, 81, 127
1, 24068, Note_off_c, 1, 64, 0
1, 24068, Note_off_c, 1, 76, 0
1, 24068, Note_off_c, 1, 88, 0
1, 24068, Note_off_c, 1, 83, 0
1, 24086, Note_on_c, 1, 57, 127
1, 24119, Note_on_c, 1, 47, 127
1, 24119, Note_on_c, 1, 59, 127
1, 24119, Note_on_c, 1, 71, 127
1, 24119, Note_on_c, 1, 66, 127
1, 24120, Note_off_c, 1, 57, 0
1, 24125, Note_off_c, 1, 89, 0
1, 24125, Note_off_c, 1, 84, 0
1, 24126, Note_off_c, 1, 86, 0
1, 24126, Note_off_c, 1, 81, 0
1, 24150, Note_off_c, 1, 47, 0
1, 24150, Note_off_c, 1, 59, 0
1, 24150, Note_off_c, 1, 71, 0
1, 24150, Note_off_c, 1, 66, 0
1, 24175, Note_on_c, 1, 98, 127
1, 24175, Note_on_c, 1, 95, 127
1, 24175, Note_on_c, 1, 93, 127
1, 24175, Note_on_c, 1, 90, 127
1, 24179, Note_on_c, 1, 56, 127
1, 24179, Note_on_c, 1, 68, 127
1, 24179, Note_on_c, 1, 80, 127
1, 24179, Note_on_c, 1, 75, 127
1, 24189, Note_off_c, 1, 98, 0
1, 24189, Note_off_c, 1, 93, 0
1, 24190, Note_off_c, 1, 95, 0
1, 24190, Note_off_c, 1, 90, 0
1, 24205, Note_on_c, 1, 54, 127
1, 24205, Note_on_c, 1, 78, 127
1, 24205, Note_on_c, 1, 73, 127
1, 24211, Note_off_c, 1, 56, 0
1, 24211, Note_off_c, 1, 68, 0
1, 24211, Note_off_c, 1, 80, 0
1, 24211, Note_off_c, 1, 75, 0
1, 24224, Note_off_c, 1, 54, 0
1, 24224, Note_off_c, 1, 78, 0
1, 24224, Note_off_c, 1, 73, 0
1, 24233, Note_on_c, 1, 52, 127
1, 24233, Note_on_c, 1, 64, 127
1, 24233, Note_on_c, 1, 76, 127
1, 24233, Note_on_c, 1, 71, 127
1, 24234, Note_on_c, 1, 74, 127
1, 24234, Note_on_c, 1, 86, 127
1, 24234, Note_on_c, 1, 98, 127
1, 24234, Note_on_c, 1, 93, 127
1, 24235, Note_on_c, 1, 83, 127
1, 24235, Note_on_c, 1, 95, 127
1, 24235, Note_on_c, 1, 90, 127
1, 24262, Note_on_c, 1, 48, 127
1, 24262, Note_on_c, 1, 60, 127
1, 24262, Note_on_c, 1, 72, 127
1, 24262, Note_on_c, 1, 67, 127
1, 24263, Note_off_c, 1, 52, 0
1, 24263, Note_off_c, 1, 64, 0
1, 24263, Note_off_c, 1, 76, 0
1, 24290, Note_off_c, 1, 48, 0
1, 24290, Note_off_c, 1, 60, 0
1, 24290, Note_off_c, 1, 72, 0
1, 24290, Note_off_c, 1, 67, 0
1, 24294, Note_off_c, 1, 74, 0
1, 24294, Note_off_c, 1, 86, 0
1, 24294, Note_off_c, 1, 98, 0
1, 24294, Note_off_c, 1, 93, 0
1, 24297, Note_on_c, 1, 84, 127
1, 24297, Note_on_c, 1, 96, 127
1, 24297, Note_on_c, 1, 91, 127
1, 24320, Note_off_c, 1, 83, 0
1, 24320, Note_off_c, 1, 95, 0
1, 24320, Note_off_c, 1, 90, 0
1, 24322, Note_on_c, 1, 56, 127
1, 24322, Note_on_c, 1, 68, 127
1, 24322, Note_on_c, 1, 80, 127
1, 24322, Note_on_c, 1, 75, 127
1, 24326, Note_off_c, 1, 71, 0
1, 24341, Note_off_c, 1, 56, 0
1, 24341, Note_off_c, 1, 68, 0
1, 24341, Note_off_c, 1, 80, 0
1, 24341, Note_off_c, 1, 75, 0
1, 24354, Note_on_c, 1, 69, 127
1, 24354, Note_on_c, 1, 81, 127
1, 24354, Note_on_c, 1, 88, 127
1, 24356, Note_on_c, 1, 79, 127
1, 24381, Note_on_c, 1, 57, 127
1, 24384, Note_off_c, 1, 79, 0
1, 24409, Note_off_c, 1, 57, 0
1, 24414, Note_off_c, 1, 69, 0
1, 24414, Note_off_c, 1, 81, 0
1, 24414, Note_off_c, 1, 88, 0
1, 24438, Note_on_c, 1, 63, 127
1, 24438, Note_on_c, 1, 87, 127
1, 24438, Note_on_c, 1, 82, 127
1, 24461, Note_off_c, 1, 63, 0
1, 24461, Note_off_c, 1, 87, 0
1, 24461, Note_off_c, 1, 82, 0
1, 24467, Note_on_c, 1, 54, 127
1, 24467, Note_on_c, 1, 66, 127
1, 24467, Note_on_c, 1, 78, 127
1, 24467, Note_on_c, 1, 73, 127
1, 24497, Note_on_c, 1, 50, 127
1, 24497, Note_on_c, 1, 62, 127
1, 24498, Note_off_c, 1, 54, 0
1, 24498, Note_off_c, 1, 66, 0
1, 24498, Note_off_c, 1, 78, 0
1, 24498, Note_off_c, 1, 73, 0
1, 24532, Note_off_c, 1, 84, 0
1, 24532, Note_off_c, 1, 96, 0
1, 24532, Note_off_c, 1, 91, 0
1, 24534, Note_off_c, 1, 50, 0
1, 24534, Note_off_c, 1, 62, 0
1, 24598, Note_on_c, 1, 70, 127
1, 24598, Note_on_c, 1, 94, 127
1, 24598, Note_on_c, 1, 89, 127
1, 24621, Note_on_c, 1, 58, 127
1, 24621, Note_on_c, 1, 77, 127
1, 24652, Note_on_c, 1, 55, 127
1, 24654, Note_off_c, 1, 58, 0
1, 24654, Note_off_c, 1, 77, 0
1, 24681, Note_off_c, 1, 55, 0
1, 24691, Note_on_c, 1, 65, 127
1, 24716, Note_on_c, 1, 45, 127
1, 24716, Note_on_c, 1, 33, 127
1, 24716, Note_on_c, 1, 21, 127
1, 24721, Note_off_c, 1, 65, 0
1, 24785, Note_off_c, 1, 70, 0
1, 24785, Note_off_c, 1, 94, 0
1, 24785, Note_off_c, 1, 89, 0
1, 24898, Note_off_c, 1, 45, 0
1, 24898, Note_off_c, 1, 33, 0
1, 24898, Note_off_c, 1, 21, 0
1, 24900, Note_on_c, 1, 46, 127
1, 24900, Note_on_c, 1, 34, 127
1, 24900, Note_on_c, 1, 22, 127
1, 24905, Note_on_c, 1, 53, 127
1, 24931, Note_off_c, 1, 53, 0
1, 24949, Note_off_c, 1, 46, 0
1, 24949, Note_off_c, 1, 34, 0
1, 24949, Note_off_c, 1, 22, 0
1, 24962, Note_on_c, 1, 36, 127
1, 24962, Note_on_c, 1, 24, 127
1, 25201, Note_on_c, 1, 59, 127
1, 25205, Note_off_c, 1, 36, 0
1, 25205, Note_off_c, 1, 24, 0
1, 25205, Note_on_c, 1, 38, 127
1, 25205, Note_on_c, 1, 26, 127
1, 25235, Note_on_c, 1, 101, 127
1, 25264, Note_off_c, 1, 101, 0
1, 25264, Note_on_c, 1, 100, 127
1, 25294, Note_off_c, 1, 100, 0
1, 25321, Note_on_c, 1, 103, 127
1, 25324, Note_off_c, 1, 59, 0
1, 25353, Note_off_c, 1, 103, 0
1, 25437, Note_off_c, 1, 38, 0
1, 25437, Note_off_c, 1, 26, 0
1, 25668, Note_on_c, 1, 43, 127
1, 25668, Note_on_c, 1, 31, 127
1, 25668, Note_on_c, 1, 19, 127
1, 25903, Note_off_c, 1, 43, 0
1, 25903, Note_off_c, 1, 31, 0
1, 25903, Note_off_c, 1, 19, 0
1, 26155, Note_on_c, 1, 47, 127
1, 26155, Note_on_c, 1, 35, 127
1, 26155, Note_on_c, 1, 23, 127
1, 26405, Note_off_c, 1, 47, 0
1, 26405, Note_off_c, 1, 35, 0
1, 26405, Note_off_c, 1, 23, 0
1, 27837, Note_on_c, 1, 105, 127
1, 27869, Note_off_c, 1, 105, 0
1, 28434, Note_on_c, 1, 107, 127
1, 28434, Note_on_c, 1, 102, 127
1, 28556, Note_on_c, 1, 108, 127
1, 28557, Note_off_c, 1, 107, 0
1, 28557, Note_off_c, 1, 102, 0
1, 28595, Note_off_c, 1, 108, 0
1, 28673, Note_on_c, 1, 106, 127
1, 28719, Note_off_c, 1, 106, 0
1, 28734, Note_on_c, 1, 99, 127
1, 28737, Note_on_c, 1, 85, 127
1, 28764, Note_off_c, 1, 85, 0
1, 28770, Note_off_c, 1, 99, 0
1, 29753, Note_on_c, 1, 41, 127
1, 29753, Note_on_c, 1, 29, 127
1, 29753, Note_on_c, 1, 17, 127
1, 30175, Note_on_c, 1, 61, 127
1, 30234, Note_off_c, 1, 61, 0
1, 30491, Note_off_c, 1, 41, 0
1, 30491, Note_off_c, 1, 29, 0
1, 30491, Note_off_c, 1, 17, 0
1, 31346, Note_on_c, 1, 72, 127
1, 31346, Note_on_c, 1, 84, 127
1, 31346, Note_on_c, 1, 96, 127
1, 31346, Note_on_c, 1, 91, 127
1, 31370, Note_off_c, 1, 96, 0
1, 31370, Note_off_c, 1, 91, 0
1, 31370, Note_on_c, 1, 60, 127
1, 31370, Note_on_c, 1, 79, 127
1, 31372, Note_on_c, 1, 67, 127
1, 31372, Note_on_c, 1, 86, 127
1, 31375, Note_on_c, 1, 76, 127
1, 31375, Note_on_c, 1, 88, 127
1, 31375, Note_on_c, 1, 100, 127
1, 31375, Note_on_c, 1, 95, 127
1, 31394, Note_off_c, 1, 76, 0
1, 31394, Note_off_c, 1, 88, 0
1, 31394, Note_off_c, 1, 100, 0
1, 31394, Note_off_c, 1, 95, 0
1, 31400, Note_off_c, 1, 67, 0
1, 31400, Note_off_c, 1, 86, 0
1, 31403, Note_on_c, 1, 103, 127
1, 31403, Note_on_c, 1, 98, 127
1, 31417, Note_off_c, 1, 103, 0
1, 31417, Note_off_c, 1, 98, 0
1, 31431, Note_on_c, 1, 65, 127
1, 31431, Note_on_c, 1, 77, 127
1, 31431, Note_on_c, 1, 89, 127
1, 31433, Note_on_c, 1, 81, 127
1, 31433, Note_on_c, 1, 93, 127
1, 31433, Note_on_c, 1, 105, 127
1, 31451, Note_off_c, 1, 72, 0
1, 31451, Note_off_c, 1, 60, 0
1, 31451, Note_off_c, 1, 79, 0
1, 31468, Note_off_c, 1, 81, 0
1, 31468, Note_off_c, 1, 93, 0
1, 31468, Note_off_c, 1, 105, 0
1, 31468, Note_on_c, 1, 101, 127
1, 31491, Note_on_c, 1, 59, 127
1, 31491, Note_on_c, 1, 71, 127
1, 31491, Note_on_c, 1, 83, 127
1, 31491, Note_on_c, 1, 78, 127
1, 31497, Note_on_c, 1, 74, 127
1, 31498, Note_off_c, 1, 101, 0
1, 31524, Note_off_c, 1, 65, 0
1, 31524, Note_off_c, 1, 77, 0
1, 31524, Note_off_c, 1, 89, 0
1, 31524, Note_off_c, 1, 59, 0
1, 31524, Note_off_c, 1, 71, 0
1, 31524, Note_off_c, 1, 83, 0
1, 31524, Note_off_c, 1, 78, 0
1, 31526, Note_off_c, 1, 74, 0
1, 31553, Note_off_c, 1, 84, 0
1, 31553, Note_on_c, 1, 62, 127
1, 31556, Note_on_c, 1, 90, 127
1, 31587, Note_off_c, 1, 90, 0
1, 31597, Note_off_c, 1, 62, 0
1, 31611, Note_on_c, 1, 55, 127
1, 31649, Note_off_c, 1, 55, 0
1, 31701, Note_on_c, 1, 64, 127
1, 31733, Note_on_c, 1, 69, 127
1, 31733, Note_on_c, 1, 57, 127
1, 31734, Note_on_c, 1, 102, 127
1, 31734, Note_on_c, 1, 97, 127
1, 31737, Note_off_c, 1, 64, 0
1, 31770, Note_off_c, 1, 69, 0
1, 31770, Note_off_c, 1, 57, 0
1, 31791, Note_on_c, 1, 58, 127
1, 31791, Note_on_c, 1, 70, 127
1, 31791, Note_on_c, 1, 82, 127
1, 31795, Note_off_c, 1, 102, 0
1, 31795, Note_off_c, 1, 97, 0
1, 31832, Note_off_c, 1, 58, 0
1, 31832, Note_off_c, 1, 70, 0
1, 31832, Note_off_c, 1, 82, 0
1, 31854, Note_on_c, 1, 94, 127
1, 31885, Note_off_c, 1, 94, 0
1, 31914, Note_on_c, 1, 75, 127
1, 31914, Note_on_c, 1, 87, 127
1, 31914, Note_on_c, 1, 99, 127
1, 31945, Note_off_c, 1, 75, 0
1, 31945, Note_off_c, 1, 87, 0
1, 31945, Note_off_c, 1, 99, 0
1, 31971, Note_on_c, 1, 63, 127
1, 31997, Note_off_c, 1, 63, 0
1, 32030, Note_on_c, 1, 66, 127
1, 32030, Note_on_c, 1, 85, 127
1, 32056, Note_off_c, 1, 66, 0
1, 32056, Note_off_c, 1, 85, 0
1, 32462, Note_on_c, 1, 73, 127
1, 32462, Note_on_c, 1, 92, 127
1, 32491, Note_off_c, 1, 73, 0
1, 32491, Note_off_c, 1, 92, 0
1, 32519, Note_on_c, 1, 61, 127
1, 32519, Note_on_c, 1, 80, 127
1, 32550, Note_off_c, 1, 61, 0
1, 32550, Note_off_c, 1, 80, 0
1, 32789, Note_on_c, 1, 69, 127
1, 32789, Note_on_c, 1, 81, 127
1, 32789, Note_on_c, 1, 93, 127
1, 32789, Note_on_c, 1, 88, 127
1, 32815, Note_on_c, 1, 74, 127
1, 32815, Note_on_c, 1, 86, 127
1, 32815, Note_on_c, 1, 98, 127
1, 32816, Note_on_c, 1, 77, 127
1, 32816, Note_on_c, 1, 89, 127
1, 32816, Note_on_c, 1, 101, 127
1, 32816, Note_on_c, 1, 96, 127
1, 32819, Note_on_c, 1, 67, 127
1, 32819, Note_on_c, 1, 79, 127
1, 32819, Note_on_c, 1, 91, 127
1, 32820, Note_off_c, 1, 69, 0
1, 32820, Note_off_c, 1, 81, 0
1, 32820, Note_off_c, 1, 88, 0
1, 32832, Note_off_c, 1, 93, 0
1, 32832, Note_off_c, 1, 74, 0
1, 32832, Note_off_c, 1, 98, 0
1, 32832, Note_off_c, 1, 77, 0
1, 32832, Note_off_c, 1, 89, 0
1, 32832, Note_off_c, 1, 101, 0
1, 32832, Note_off_c, 1, 96, 0
1, 32845, Note_on_c, 1, 65, 127
1, 32845, Note_on_c, 1, 84, 127
1, 32846, Note_off_c, 1, 86, 0
1, 32846, Note_off_c, 1, 67, 0
1, 32846, Note_off_c, 1, 79, 0
1, 32846, Note_off_c, 1, 91, 0
1, 32863, Note_off_c, 1, 65, 0
1, 32863, Note_off_c, 1, 84, 0
1, 32873, Note_on_c, 1, 64, 127
1, 32873, Note_on_c, 1, 76, 127
1, 32873, Note_on_c, 1, 88, 127
1, 32873, Note_on_c, 1, 83, 127
1, 32877, Note_on_c, 1, 77, 127
1, 32877, Note_on_c, 1, 89, 127
1, 32877, Note_on_c, 1, 101, 127
1, 32877, Note_on_c, 1, 96, 127
1, 32878, Note_on_c, 1, 74, 127
1, 32878, Note_on_c, 1, 86, 127
1, 32878, Note_on_c, 1, 98, 127
1, 32878, Note_on_c, 1, 93, 127
1, 32906, Note_off_c, 1, 64, 0
1, 32906, Note_off_c, 1, 76, 0
1, 32906, Note_off_c, 1, 88, 0
1, 32906, Note_off_c, 1, 83, 0
1, 32906, Note_on_c, 1, 60, 127
1, 32906, Note_on_c, 1, 72, 127
1, 32906, Note_on_c, 1, 84, 127
1, 32906, Note_on_c, 1, 79, 127
1, 32933, Note_off_c, 1, 60, 0
1, 32933, Note_off_c, 1, 72, 0
1, 32933, Note_off_c, 1, 84, 0
1, 32933, Note_off_c, 1, 79, 0
1, 32936, Note_on_c, 1, 100, 127
1, 32936, Note_on_c, 1, 95, 127
1, 32937, Note_on_c, 1, 91, 127
1, 32938, Note_off_c, 1, 74, 0
1, 32938, Note_off_c, 1, 86, 0
1, 32938, Note_off_c, 1, 98, 0
1, 32938, Note_off_c, 1, 93, 0
1, 32939, Note_off_c, 1, 77, 0
1, 32939, Note_off_c, 1, 89, 0
1, 32939, Note_off_c, 1, 101, 0
1, 32963, Note_on_c, 1, 67, 127
1, 32978, Note_off_c, 1, 67, 0
1, 32993, Note_on_c, 1, 57, 127
1, 32993, Note_on_c, 1, 69, 127
1, 32993, Note_on_c, 1, 81, 127
1, 32998, Note_off_c, 1, 96, 0
1, 32998, Note_off_c, 1, 91, 0
1, 33000, Note_off_c, 1, 100, 0
1, 33000, Note_off_c, 1, 95, 0
1, 33026, Note_off_c, 1, 57, 0
1, 33026, Note_off_c, 1, 69, 0
1, 33026, Note_off_c, 1, 81, 0
1, 33055, Note_on_c, 1, 65, 127
1, 33083, Note_off_c, 1, 65, 0
1, 33113, Note_on_c, 1, 62, 127
1, 33145, Note_off_c, 1, 62, 0
1, 33145, Note_on_c, 1, 59, 127
1, 33145, Note_on_c, 1, 71, 127
1, 33145, Note_on_c, 1, 78, 127
1, 33178, Note_off_c, 1, 59, 0
1, 33178, Note_off_c, 1, 71, 0
1, 33178, Note_off_c, 1, 78, 0
1, 33181, Note_on_c, 1, 90, 127
1, 33239, Note_on_c, 1, 56, 127
1, 33239, Note_on_c, 1, 68, 127
1, 33239, Note_on_c, 1, 80, 127
1, 33239, Note_on_c, 1, 75, 127
1, 33245, Note_off_c, 1, 90, 0
1, 33263, Note_off_c, 1, 56, 0
1, 33263, Note_off_c, 1, 68, 0
1, 33263, Note_off_c, 1, 80, 0
1, 33263, Note_off_c, 1, 75, 0
1, 33268, Note_on_c, 1, 65, 127
1, 33268, Note_on_c, 1, 77, 127
1, 33268, Note_on_c, 1, 89, 127
1, 33268, Note_on_c, 1, 84, 127
1, 33296, Note_on_c, 1, 71, 127
1, 33296, Note_on_c, 1, 74, 127
1, 33296, Note_on_c, 1, 64, 127
1, 33296, Note_on_c, 1, 83, 127
1, 33296, Note_on_c, 1, 86, 127
1, 33296, Note_on_c, 1, 76, 127
1, 33296, Note_on_c, 1, 95, 127
1, 33296, Note_on_c, 1, 98, 127
1, 33296, Note_on_c, 1, 88, 127
1, 33296, Note_on_c, 1, 90, 127
1, 33296, Note_on_c, 1, 93, 127
1, 33298, Note_off_c, 1, 65, 0
1, 33298, Note_off_c, 1, 77, 0
1, 33298, Note_off_c, 1, 89, 0
1, 33298, Note_off_c, 1, 84, 0
1, 33310, Note_off_c, 1, 71, 0
1, 33310, Note_off_c, 1, 95, 0
1, 33310, Note_off_c, 1, 90, 0
1, 33312, Note_off_c, 1, 74, 0
1, 33312, Note_off_c, 1, 86, 0
1, 33312, Note_off_c, 1, 98, 0
1, 33312, Note_off_c, 1, 93, 0
1, 33323, Note_on_c, 1, 62, 127
1, 33323, Note_on_c, 1, 81, 127
1, 33325, Note_off_c, 1, 64, 0
1, 33325, Note_off_c, 1, 83, 0
1, 33325, Note_off_c, 1, 76, 0
1, 33325, Note_off_c, 1, 88, 0
1, 33341, Note_off_c, 1, 62, 0
1, 33341, Note_off_c, 1, 81, 0
1, 33356, Note_on_c, 1, 60, 127
1, 33356, Note_on_c, 1, 72, 127
1, 33356, Note_on_c, 1, 84, 127
1, 33356, Note_on_c, 1, 79, 127
1, 33357, Note_on_c, 1, 71, 127
1, 33357, Note_on_c, 1, 83, 127
1, 33357, Note_on_c, 1, 95, 127
1, 33357, Note_on_c, 1, 90, 127
1, 33358, Note_on_c, 1, 74, 127
1, 33358, Note_on_c, 1, 86, 127
1, 33358, Note_on_c, 1, 98, 127
1, 33358, Note_on_c, 1, 93, 127
1, 33385, Note_on_c, 1, 57, 127
1, 33385, Note_on_c, 1, 69, 127
1, 33385, Note_on_c, 1, 81, 127
1, 33385, Note_on_c, 1, 76, 127
1, 33388, Note_off_c, 1, 60, 0
1, 33388, Note_off_c, 1, 72, 0
1, 33388, Note_off_c, 1, 84, 0
1, 33388, Note_off_c, 1, 79, 0
1, 33400, Note_off_c, 1, 57, 0
1, 33400, Note_off_c, 1, 69, 0
1, 33400, Note_off_c, 1, 81, 0
1, 33400, Note_off_c, 1, 76, 0
1, 33417, Note_on_c, 1, 96, 127
1, 33417, Note_on_c, 1, 91, 127
1, 33418, Note_off_c, 1, 74, 0
1, 33418, Note_off_c, 1, 86, 0
1, 33418, Note_off_c, 1, 98, 0
1, 33418, Note_on_c, 1, 88, 127
1, 33419, Note_off_c, 1, 71, 0
1, 33419, Note_off_c, 1, 83, 0
1, 33419, Note_off_c, 1, 95, 0
1, 33419, Note_off_c, 1, 90, 0
1, 33445, Note_on_c, 1, 64, 127
1, 33450, Note_off_c, 1, 96, 0
1, 33450, Note_off_c, 1, 91, 0
1, 33460, Note_off_c, 1, 64, 0
1, 33478, Note_on_c, 1, 53, 127
1, 33478, Note_on_c, 1, 65, 127
1, 33478, Note_on_c, 1, 77, 127
1, 33488, Note_off_c, 1, 93, 0
1, 33488, Note_off_c, 1, 88, 0
1, 33497, Note_off_c, 1, 53, 0
1, 33497, Note_off_c, 1, 65, 0
1, 33497, Note_off_c, 1, 77, 0
1, 33506, Note_on_c, 1, 74, 127
1, 33506, Note_on_c, 1, 86, 127
1, 33506, Note_on_c, 1, 98, 127
1, 33506, Note_on_c, 1, 93, 127
1, 33535, Note_off_c, 1, 74, 0
1, 33535, Note_off_c, 1, 86, 0
1, 33535, Note_off_c, 1, 98, 0
1, 33535, Note_off_c, 1, 93, 0
1, 33538, Note_on_c, 1, 77, 127
1, 33538, Note_on_c, 1, 69, 127
1, 33538, Note_on_c, 1, 89, 127
1, 33538, Note_on_c, 1, 81, 127
1, 33538, Note_on_c, 1, 101, 127
1, 33538, Note_on_c, 1, 93, 127
1, 33538, Note_on_c, 1, 96, 127
1, 33538, Note_on_c, 1, 88, 127
1, 33539, Note_on_c, 1, 65, 127
1, 33539, Note_on_c, 1, 84, 127
1, 33564, Note_on_c, 1, 105, 127
1, 33564, Note_on_c, 1, 100, 127
1, 33565, Note_off_c, 1, 101, 0
1, 33565, Note_off_c, 1, 96, 0
1, 33574, Note_off_c, 1, 69, 0
1, 33574, Note_off_c, 1, 88, 0
1, 33581, Note_off_c, 1, 81, 0
1, 33581, Note_off_c, 1, 93, 0
1, 33581, Note_off_c, 1, 105, 0
1, 33581, Note_off_c, 1, 100, 0
1, 33595, Note_on_c, 1, 71, 127
1, 33595, Note_on_c, 1, 67, 127
1, 33595, Note_on_c, 1, 83, 127
1, 33595, Note_on_c, 1, 79, 127
1, 33595, Note_on_c, 1, 95, 127
1, 33595, Note_on_c, 1, 91, 127
1, 33595, Note_on_c, 1, 90, 127
1, 33595, Note_on_c, 1, 86, 127
1, 33627, Note_on_c, 1, 74, 127
1, 33627, Note_on_c, 1, 98, 127
1, 33632, Note_off_c, 1, 71, 0
1, 33632, Note_off_c, 1, 83, 0
1, 33632, Note_off_c, 1, 95, 0
1, 33632, Note_off_c, 1, 90, 0
1, 33644, Note_off_c, 1, 77, 0
1, 33644, Note_off_c, 1, 89, 0
1, 33644, Note_off_c, 1, 65, 0
1, 33644, Note_off_c, 1, 84, 0
1, 33647, Note_off_c, 1, 74, 0
1, 33647, Note_off_c, 1, 98, 0
1, 33656, Note_on_c, 1, 64, 127
1, 33656, Note_on_c, 1, 76, 127
1, 33660, Note_on_c, 1, 103, 127
1, 33676, Note_off_c, 1, 64, 0
1, 33676, Note_off_c, 1, 76, 0
1, 33684, Note_on_c, 1, 62, 127
1, 33697, Note_off_c, 1, 62, 0
1, 33722, Note_off_c, 1, 103, 0
1, 33723, Note_off_c, 1, 67, 0
1, 33723, Note_off_c, 1, 79, 0
1, 33723, Note_off_c, 1, 91, 0
1, 33723, Note_off_c, 1, 86, 0
1, 33780, Note_on_c, 1, 72, 127
1, 33809, Note_off_c, 1, 72, 0
1, 33927, Note_on_c, 1, 60, 127
1, 33958, Note_off_c, 1, 60, 0
1, 34013, Note_on_c, 1, 55, 127
1, 34052, Note_off_c, 1, 55, 0
1, 34111, Note_on_c, 1, 79, 127
1, 34111, Note_on_c, 1, 91, 127
1, 34111, Note_on_c, 1, 103, 127
1, 34111, Note_on_c, 1, 98, 127
1, 34136, Note_on_c, 1, 48, 127
1, 34136, Note_on_c, 1, 60, 127
1, 34136, Note_on_c, 1, 72, 127
1, 34136, Note_on_c, 1, 67, 127
1, 34141, Note_off_c, 1, 79, 0
1, 34141, Note_off_c, 1, 91, 0
1, 34141, Note_off_c, 1, 103, 0
1, 34141, Note_off_c, 1, 98, 0
1, 34141, Note_on_c, 1, 76, 127
1, 34141, Note_on_c, 1, 88, 127
1, 34141, Note_on_c, 1, 100, 127
1, 34141, Note_on_c, 1, 95, 127
1, 34165, Note_off_c, 1, 48, 0
1, 34165, Note_off_c, 1, 60, 0
1, 34165, Note_off_c, 1, 72, 0
1, 34165, Note_off_c, 1, 67, 0
1, 34168, Note_off_c, 1, 76, 0
1, 34168, Note_off_c, 1, 88, 0
1, 34168, Note_off_c, 1, 100, 0
1, 34168, Note_off_c, 1, 95, 0
1, 34168, Note_on_c, 1, 84, 127
1, 34168, Note_on_c, 1, 96, 127
1, 34197, Note_off_c, 1, 96, 0
1, 34197, Note_on_c, 1, 69, 127
1, 34197, Note_on_c, 1, 81, 127
1, 34197, Note_on_c, 1, 93, 127
1, 34232, Note_off_c, 1, 69, 0
1, 34232, Note_off_c, 1, 81, 0
1, 34232, Note_off_c, 1, 93, 0
1, 34317, Note_on_c, 1, 65, 127
1, 34317, Note_on_c, 1, 77, 127
1, 34317, Note_on_c, 1, 89, 127
1, 34356, Note_off_c, 1, 65, 0
1, 34356, Note_off_c, 1, 77, 0
1, 34356, Note_off_c, 1, 89, 0
1, 34370, Note_off_c, 1, 84, 0
1, 34376, Note_on_c, 1, 58, 127
1, 34376, Note_on_c, 1, 70, 127
1, 34376, Note_on_c, 1, 82, 127
1, 34376, Note_on_c, 1, 77, 127
1, 34380, Note_on_c, 1, 74, 127
1, 34380, Note_on_c, 1, 86, 127
1, 34380, Note_on_c, 1, 98, 127
1, 34380, Note_on_c, 1, 93, 127
1, 34390, Note_off_c, 1, 58, 0
1, 34390, Note_off_c, 1, 70, 0
1, 34390, Note_off_c, 1, 82, 0
1, 34390, Note_off_c, 1, 77, 0
1, 34404, Note_on_c, 1, 57, 127
1, 34404, Note_on_c, 1, 69, 127
1, 34404, Note_on_c, 1, 81, 127
1, 34404, Note_on_c, 1, 76, 127
1, 34409, Note_on_c, 1, 72, 127
1, 34409, Note_on_c, 1, 84, 127
1, 34409, Note_on_c, 1, 96, 127
1, 34409, Note_on_c, 1, 91, 127
1, 34410, Note_off_c, 1, 74, 0
1, 34410, Note_off_c, 1, 86, 0
1, 34410, Note_off_c, 1, 98, 0
1, 34410, Note_off_c, 1, 93, 0
1, 34419, Note_off_c, 1, 57, 0
1, 34419, Note_off_c, 1, 69, 0
1, 34419, Note_off_c, 1, 81, 0
1, 34419, Note_off_c, 1, 76, 0
1, 34442, Note_off_c, 1, 72, 0
1, 34442, Note_off_c, 1, 84, 0
1, 34442, Note_off_c, 1, 96, 0
1, 34442, Note_off_c, 1, 91, 0
1, 34468, Note_on_c, 1, 94, 127
1, 34468, Note_on_c, 1, 89, 127
1, 34499, Note_on_c, 1, 67, 127
1, 34499, Note_on_c, 1, 79, 127
1, 34500, Note_off_c, 1, 94, 0
1, 34500, Note_off_c, 1, 89, 0
1, 34530, Note_off_c, 1, 67, 0
1, 34530, Note_off_c, 1, 79, 0
1, 34558, Note_on_c, 1, 64, 127
1, 34558, Note_on_c, 1, 88, 127
1, 34558, Note_on_c, 1, 83, 127
1, 34584, Note_on_c, 1, 60, 127
1, 34599, Note_off_c, 1, 64, 0
1, 34599, Note_off_c, 1, 88, 0
1, 34599, Note_off_c, 1, 83, 0
1, 34611, Note_off_c, 1, 60, 0
1, 34616, Note_on_c, 1, 57, 127
1, 34616, Note_on_c, 1, 69, 127
1, 34616, Note_on_c, 1, 81, 127
1, 34616, Note_on_c, 1, 76, 127
1, 34621, Note_on_c, 1, 64, 127
1, 34621, Note_on_c, 1, 88, 127
1, 34621, Note_on_c, 1, 83, 127
1, 34646, Note_on_c, 1, 55, 127
1, 34646, Note_on_c, 1, 67, 127
1, 34646, Note_on_c, 1, 79, 127
1, 34646, Note_on_c, 1, 74, 127
1, 34649, Note_off_c, 1, 57, 0
1, 34649, Note_off_c, 1, 69, 0
1, 34649, Note_off_c, 1, 81, 0
1, 34649, Note_off_c, 1, 76, 0
1, 34649, Note_off_c, 1, 64, 0
1, 34649, Note_off_c, 1, 88, 0
1, 34649, Note_off_c, 1, 83, 0
1, 34650, Note_on_c, 1, 91, 127
1, 34650, Note_on_c, 1, 86, 127
1, 34678, Note_off_c, 1, 91, 0
1, 34678, Note_off_c, 1, 86, 0
1, 34679, Note_off_c, 1, 55, 0
1, 34679, Note_off_c, 1, 67, 0
1, 34679, Note_off_c, 1, 79, 0
1, 34679, Note_off_c, 1, 74, 0
1, 34679, Note_on_c, 1, 72, 127
1, 34679, Note_on_c, 1, 84, 127
1, 34679, Note_on_c, 1, 96, 127
1, 34700, Note_off_c, 1, 72, 0
1, 34700, Note_off_c, 1, 84, 0
1, 34700, Note_off_c, 1, 96, 0
1, 34707, Note_on_c, 1, 65, 127
1, 34707, Note_on_c, 1, 77, 127
1, 34707, Note_on_c, 1, 89, 127
1, 34735, Note_on_c, 1, 93, 127
1, 34736, Note_off_c, 1, 65, 0
1, 34736, Note_off_c, 1, 77, 0
1, 34736, Note_off_c, 1, 89, 0
1, 34737, Note_on_c, 1, 53, 127
1, 34737, Note_on_c, 1, 101, 127
1, 34765, Note_off_c, 1, 93, 0
1, 34792, Note_on_c, 1, 58, 127
1, 34792, Note_on_c, 1, 70, 127
1, 34792, Note_on_c, 1, 82, 127
1, 34794, Note_off_c, 1, 53, 0
1, 34796, Note_on_c, 1, 98, 127
1, 34798, Note_off_c, 1, 101, 0
1, 34824, Note_on_c, 1, 94, 127
1, 34826, Note_off_c, 1, 98, 0
1, 34844, Note_off_c, 1, 94, 0
1, 34853, Note_on_c, 1, 106, 127
1, 34911, Note_off_c, 1, 58, 0
1, 34911, Note_off_c, 1, 70, 0
1, 34913, Note_on_c, 1, 60, 127
1, 34967, Note_off_c, 1, 82, 0
1, 34967, Note_off_c, 1, 106, 0
1, 34973, Note_on_c, 1, 105, 127
1, 34973, Note_on_c, 1, 100, 127
1, 35001, Note_on_c, 1, 103, 127
1, 35003, Note_off_c, 1, 105, 0
1, 35003, Note_off_c, 1, 100, 0
1, 35032, Note_off_c, 1, 103, 0
1, 35033, Note_on_c, 1, 41, 127
1, 35033, Note_on_c, 1, 29, 127
1, 35033, Note_on_c, 1, 17, 127
1, 35093, Note_off_c, 1, 60, 0
1, 35096, Note_on_c, 1, 95, 127
1, 35124, Note_off_c, 1, 95, 0
1, 35339, Note_on_c, 1, 75, 127
1, 35339, Note_on_c, 1, 87, 127
1, 35339, Note_on_c, 1, 99, 127
1, 35460, Note_off_c, 1, 75, 0
1, 35460, Note_off_c, 1, 87, 0
1, 35460, Note_off_c, 1, 99, 0
1, 35488, Note_on_c, 1, 63, 127
1, 35504, Note_off_c, 1, 63, 0
1, 35511, Note_off_c, 1, 41, 0
1, 35511, Note_off_c, 1, 29, 0
1, 35511, Note_off_c, 1, 17, 0
1, 35514, Note_on_c, 1, 43, 127
1, 35514, Note_on_c, 1, 31, 127
1, 35514, Note_on_c, 1, 19, 127
1, 35518, Note_on_c, 1, 62, 127
1, 35551, Note_off_c, 1, 62, 0
1, 35635, Note_off_c, 1, 43, 0
1, 35635, Note_off_c, 1, 31, 0
1, 35635, Note_off_c, 1, 19, 0
1, 35637, Note_on_c, 1, 45, 127
1, 35637, Note_on_c, 1, 33, 127
1, 35637, Note_on_c, 1, 21, 127
1, 35756, Note_on_c, 1, 46, 127
1, 35756, Note_on_c, 1, 34, 127
1, 35756, Note_on_c, 1, 22, 127
1, 35763, Note_off_c, 1, 45, 0
1, 35763, Note_off_c, 1, 33, 0
1, 35763, Note_off_c, 1, 21, 0
1, 35817, Note_on_c, 1, 52, 127
1, 35817, Note_on_c, 1, 71, 127
1, 35848, Note_off_c, 1, 52, 0
1, 35848, Note_off_c, 1, 71, 0
1, 35969, Note_on_c, 1, 50, 127
1, 35985, Note_off_c, 1, 46, 0
1, 35985, Note_off_c, 1, 34, 0
1, 35985, Note_off_c, 1, 22, 0
1, 35999, Note_on_c, 1, 48, 127
1, 36002, Note_off_c, 1, 50, 0
1, 36027, Note_off_c, 1, 48, 0
1, 36241, Note_on_c, 1, 36, 127
1, 36241, Note_on_c, 1, 24, 127
1, 36591, Note_on_c, 1, 66, 127
1, 36591, Note_on_c, 1, 78, 127
1, 36591, Note_on_c, 1, 90, 127
1, 36591, Note_on_c, 1, 85, 127
1, 36625, Note_off_c, 1, 66, 0
1, 36625, Note_off_c, 1, 78, 0
1, 36625, Note_off_c, 1, 90, 0
1, 36625, Note_off_c, 1, 85, 0
1, 36649, Note_on_c, 1, 54, 127
1, 36649, Note_on_c, 1, 73, 127
1, 36664, Note_off_c, 1, 36, 0
1, 36664, Note_off_c, 1, 24, 0
1, 36682, Note_off_c, 1, 54, 0
1, 36682, Note_off_c, 1, 73, 0
1, 36707, Note_on_c, 1, 55, 127
1, 36707, Note_on_c, 1, 67, 127
1, 36707, Note_on_c, 1, 79, 127
1, 36707, Note_on_c, 1, 74, 127
1, 36708, Note_on_c, 1, 62, 127
1, 36708, Note_on_c, 1, 86, 127
1, 36708, Note_on_c, 1, 81, 127
1, 36712, Note_on_c, 1, 71, 127
1, 36712, Note_on_c, 1, 83, 127
1, 36712, Note_on_c, 1, 95, 127
1, 36712, Note_on_c, 1, 90, 127
1, 36714, Note_on_c, 1, 43, 127
1, 36714, Note_on_c, 1, 31, 127
1, 36714, Note_on_c, 1, 19, 127
1, 36732, Note_off_c, 1, 71, 0
1, 36732, Note_off_c, 1, 83, 0
1, 36732, Note_off_c, 1, 95, 0
1, 36732, Note_off_c, 1, 90, 0
1, 36735, Note_off_c, 1, 62, 0
1, 36735, Note_off_c, 1, 86, 0
1, 36735, Note_off_c, 1, 81, 0
1, 36744, Note_on_c, 1, 91, 127
1, 36746, Note_off_c, 1, 74, 0
1, 36760, Note_off_c, 1, 67, 0
1, 36760, Note_off_c, 1, 79, 0
1, 36760, Note_off_c, 1, 91, 0
1, 36803, Note_on_c, 1, 98, 127
1, 36803, Note_on_c, 1, 93, 127
1, 36816, Note_off_c, 1, 98, 0
1, 36816, Note_off_c, 1, 93, 0
1, 36836, Note_on_c, 1, 76, 127
1, 36836, Note_on_c, 1, 88, 127
1, 36836, Note_on_c, 1, 100, 127
1, 36860, Note_on_c, 1, 59, 127
1, 36860, Note_on_c, 1, 78, 127
1, 36886, Note_off_c, 1, 59, 0
1, 36886, Note_off_c, 1, 78, 0
1, 36891, Note_on_c, 1, 60, 127
1, 36891, Note_on_c, 1, 72, 127
1, 36891, Note_on_c, 1, 84, 127
1, 36911, Note_off_c, 1, 60, 0
1, 36911, Note_off_c, 1, 72, 0
1, 36911, Note_off_c, 1, 84, 0
1, 36920, Note_on_c, 1, 64, 127
1, 36928, Note_off_c, 1, 64, 0
1, 36952, Note_on_c, 1, 69, 127
1, 36954, Note_off_c, 1, 55, 0
1, 36954, Note_off_c, 1, 43, 0
1, 36954, Note_off_c, 1, 31, 0
1, 36954, Note_off_c, 1, 19, 0
1, 36958, Note_on_c, 1, 53, 127
1, 36958, Note_on_c, 1, 41, 127
1, 36958, Note_on_c, 1, 29, 127
1, 36958, Note_on_c, 1, 17, 127
1, 36978, Note_off_c, 1, 69, 0
1, 36982, Note_on_c, 1, 57, 127
1, 37013, Note_off_c, 1, 57, 0
1, 37024, Note_off_c, 1, 76, 0
1, 37024, Note_off_c, 1, 88, 0
1, 37024, Note_off_c, 1, 100, 0
1, 37045, Note_on_c, 1, 65, 127
1, 37045, Note_on_c, 1, 77, 127
1, 37045, Note_on_c, 1, 89, 127
1, 37061, Note_off_c, 1, 65, 0
1, 37061, Note_off_c, 1, 77, 0
1, 37061, Note_off_c, 1, 89, 0
1, 37079, Note_off_c, 1, 41, 0
1, 37081, Note_on_c, 1, 16, 127
1, 37082, Note_off_c, 1, 53, 0
1, 37082, Note_off_c, 1, 17, 0
1, 37083, Note_on_c, 1, 52, 127
1, 37083, Note_on_c, 1, 40, 127
1, 37083, Note_on_c, 1, 28, 127
1, 37084, Note_off_c, 1, 29, 0
1, 37135, Note_on_c, 1, 96, 127
1, 37199, Note_off_c, 1, 16, 0
1, 37200, Note_off_c, 1, 52, 0
1, 37200, Note_off_c, 1, 40, 0
1, 37201, Note_on_c, 1, 38, 127
1, 37201, Note_on_c, 1, 26, 127
1, 37202, Note_off_c, 1, 96, 0
1, 37204, Note_off_c, 1, 28, 0
1, 37205, Note_on_c, 1, 50, 127
1, 37206, Note_on_c, 1, 14, 127
1, 37318, Note_on_c, 1, 101, 127
1, 37355, Note_off_c, 1, 101, 0
1, 37432, Note_off_c, 1, 26, 0
1, 37435, Note_off_c, 1, 50, 0
1, 37437, Note_off_c, 1, 38, 0
1, 37438, Note_on_c, 1, 48, 127
1, 37438, Note_on_c, 1, 36, 127
1, 37438, Note_on_c, 1, 24, 127
1, 37438, Note_on_c, 1, 12, 127
1, 37445, Note_off_c, 1, 14, 0
1, 38114, Note_off_c, 1, 48, 0
1, 38114, Note_off_c, 1, 36, 0
1, 38114, Note_off_c, 1, 24, 0
1, 38114, Note_off_c, 1, 12, 0
1, 38217, Note_on_c, 1, 52, 127
1, 38217, Note_on_c, 1, 64, 127
1, 38217, Note_on_c, 1, 76, 127
1, 38217, Note_on_c, 1, 71, 127
1, 38218, Note_on_c, 1, 72, 127
1, 38218, Note_on_c, 1, 84, 127
1, 38218, Note_on_c, 1, 88, 127
1, 38218, Note_on_c, 1, 96, 127
1, 38218, Note_on_c, 1, 83, 127
1, 38218, Note_on_c, 1, 91, 127
1, 38247, Note_on_c, 1, 60, 127
1, 38247, Note_on_c, 1, 79, 127
1, 38249, Note_off_c, 1, 88, 0
1, 38249, Note_off_c, 1, 83, 0
1, 38268, Note_off_c, 1, 60, 0
1, 38268, Note_off_c, 1, 79, 0
1, 38273, Note_off_c, 1, 52, 0
1, 38273, Note_off_c, 1, 64, 0
1, 38273, Note_off_c, 1, 76, 0
1, 38273, Note_off_c, 1, 71, 0
1, 38275, Note_on_c, 1, 53, 127
1, 38275, Note_on_c, 1, 65, 127
1, 38275, Note_on_c, 1, 77, 127
1, 38278, Note_on_c, 1, 62, 127
1, 38278, Note_on_c, 1, 74, 127
1, 38278, Note_on_c, 1, 86, 127
1, 38278, Note_on_c, 1, 81, 127
1, 38311, Note_off_c, 1, 62, 0
1, 38311, Note_off_c, 1, 74, 0
1, 38311, Note_off_c, 1, 86, 0
1, 38311, Note_off_c, 1, 81, 0
1, 38318, Note_off_c, 1, 53, 0
1, 38318, Note_off_c, 1, 65, 0
1, 38318, Note_off_c, 1, 77, 0
1, 38336, Note_on_c, 1, 55, 127
1, 38336, Note_on_c, 1, 67, 127
1, 38338, Note_on_c, 1, 70, 127
1, 38338, Note_on_c, 1, 82, 127
1, 38338, Note_on_c, 1, 94, 127
1, 38338, Note_on_c, 1, 89, 127
1, 38340, Note_off_c, 1, 72, 0
1, 38340, Note_off_c, 1, 96, 0
1, 38340, Note_off_c, 1, 91, 0
1, 38370, Note_off_c, 1, 70, 0
1, 38370, Note_off_c, 1, 82, 0
1, 38370, Note_off_c, 1, 94, 0
1, 38370, Note_on_c, 1, 69, 127
1, 38370, Note_on_c, 1, 93, 127
1, 38379, Note_off_c, 1, 84, 0
1, 38379, Note_off_c, 1, 89, 0
1, 38397, Note_off_c, 1, 55, 0
1, 38397, Note_on_c, 1, 48, 127
1, 38402, Note_off_c, 1, 69, 0
1, 38402, Note_off_c, 1, 93, 0
1, 38436, Note_off_c, 1, 67, 0
1, 38436, Note_off_c, 1, 48, 0
1, 38459, Note_on_c, 1, 57, 127
1, 38492, Note_off_c, 1, 57, 0
1, 38517, Note_on_c, 1, 53, 127
1, 38517, Note_on_c, 1, 65, 127
1, 38517, Note_on_c, 1, 77, 127
1, 38517, Note_on_c, 1, 72, 127
1, 38520, Note_on_c, 1, 69, 127
1, 38520, Note_on_c, 1, 81, 127
1, 38520, Note_on_c, 1, 93, 127
1, 38520, Note_on_c, 1, 88, 127
1, 38547, Note_on_c, 1, 64, 127
1, 38547, Note_on_c, 1, 76, 127
1, 38547, Note_on_c, 1, 83, 127
1, 38549, Note_off_c, 1, 53, 0
1, 38549, Note_off_c, 1, 65, 0
1, 38549, Note_off_c, 1, 77, 0
1, 38549, Note_off_c, 1, 72, 0
1, 38549, Note_on_c, 1, 67, 127
1, 38549, Note_on_c, 1, 79, 127
1, 38549, Note_on_c, 1, 91, 127
1, 38549, Note_on_c, 1, 86, 127
1, 38550, Note_off_c, 1, 69, 0
1, 38550, Note_off_c, 1, 81, 0
1, 38550, Note_off_c, 1, 93, 0
1, 38576, Note_on_c, 1, 62, 127
1, 38576, Note_on_c, 1, 74, 127
1, 38577, Note_off_c, 1, 88, 0
1, 38577, Note_off_c, 1, 64, 0
1, 38577, Note_off_c, 1, 76, 0
1, 38577, Note_off_c, 1, 83, 0
1, 38579, Note_on_c, 1, 89, 127
1, 38579, Note_on_c, 1, 84, 127
1, 38580, Note_off_c, 1, 67, 0
1, 38580, Note_off_c, 1, 79, 0
1, 38580, Note_off_c, 1, 91, 0
1, 38606, Note_on_c, 1, 60, 127
1, 38610, Note_off_c, 1, 86, 0
1, 38610, Note_off_c, 1, 62, 0
1, 38610, Note_off_c, 1, 74, 0
1, 38613, Note_off_c, 1, 89, 0
1, 38626, Note_off_c, 1, 84, 0
1, 38626, Note_off_c, 1, 60, 0
1, 38637, Note_on_c, 1, 59, 127
1, 38637, Note_on_c, 1, 71, 127
1, 38637, Note_on_c, 1, 83, 127
1, 38637, Note_on_c, 1, 78, 127
1, 38639, Note_on_c, 1, 62, 127
1, 38639, Note_on_c, 1, 74, 127
1, 38639, Note_on_c, 1, 86, 127
1, 38639, Note_on_c, 1, 81, 127
1, 38666, Note_off_c, 1, 59, 0
1, 38666, Note_off_c, 1, 71, 0
1, 38666, Note_off_c, 1, 83, 0
1, 38666, Note_off_c, 1, 78, 0
1, 38666, Note_on_c, 1, 60, 127
1, 38666, Note_on_c, 1, 72, 127
1, 38666, Note_on_c, 1, 84, 127
1, 38666, Note_on_c, 1, 79, 127
1, 38667, Note_off_c, 1, 62, 0
1, 38667, Note_off_c, 1, 74, 0
1, 38667, Note_off_c, 1, 86, 0
1, 38667, Note_off_c, 1, 81, 0
1, 38667, Note_on_c, 1, 64, 127
1, 38667, Note_on_c, 1, 76, 127
1, 38667, Note_on_c, 1, 88, 127
1, 38684, Note_off_c, 1, 64, 0
1, 38684, Note_off_c, 1, 76, 0
1, 38684, Note_off_c, 1, 88, 0
1, 38696, Note_on_c, 1, 57, 127
1, 38696, Note_on_c, 1, 69, 127
1, 38697, Note_off_c, 1, 60, 0
1, 38697, Note_off_c, 1, 72, 0
1, 38697, Note_off_c, 1, 84, 0
1, 38697, Note_off_c, 1, 79, 0
1, 38699, Note_on_c, 1, 65, 127
1, 38699, Note_on_c, 1, 77, 127
1, 38699, Note_on_c, 1, 89, 127
1, 38727, Note_off_c, 1, 57, 0
1, 38727, Note_off_c, 1, 69, 0
1, 38815, Note_on_c, 1, 55, 127
1, 38815, Note_on_c, 1, 67, 127
1, 38817, Note_off_c, 1, 65, 0
1, 38817, Note_off_c, 1, 77, 0
1, 38817, Note_off_c, 1, 89, 0
1, 38841, Note_on_c, 1, 53, 127
1, 38842, Note_off_c, 1, 55, 0
1, 38842, Note_off_c, 1, 67, 0
1, 38867, Note_off_c, 1, 53, 0
1, 38870, Note_on_c, 1, 55, 127
1, 38870, Note_on_c, 1, 67, 127
1, 38870, Note_on_c, 1, 79, 127
1, 38870, Note_on_c, 1, 74, 127
1, 38870, Note_on_c, 1, 48, 127
1, 38870, Note_on_c, 1, 36, 127
1, 38870, Note_on_c, 1, 24, 127
1, 38870, Note_on_c, 1, 12, 127
1, 38876, Note_on_c, 1, 64, 127
1, 38876, Note_on_c, 1, 76, 127
1, 38876, Note_on_c, 1, 88, 127
1, 38876, Note_on_c, 1, 83, 127
1, 38909, Note_on_c, 1, 60, 127
1, 38909, Note_on_c, 1, 72, 127
1, 38909, Note_on_c, 1, 84, 127
1, 38910, Note_off_c, 1, 64, 0
1, 38910, Note_off_c, 1, 76, 0
1, 38910, Note_off_c, 1, 88, 0
1, 38910, Note_off_c, 1, 83, 0
1, 38934, Note_on_c, 1, 58, 127
1, 38934, Note_on_c, 1, 70, 127
1, 38934, Note_on_c, 1, 82, 127
1, 38934, Note_on_c, 1, 77, 127
1, 38942, Note_off_c, 1, 60, 0
1, 38942, Note_off_c, 1, 72, 0
1, 38942, Note_off_c, 1, 84, 0
1, 38968, Note_on_c, 1, 91, 127
1, 38968, Note_on_c, 1, 86, 127
1, 38973, Note_off_c, 1, 55, 0
1, 38973, Note_off_c, 1, 74, 0
1, 38992, Note_on_c, 1, 57, 127
1, 38992, Note_on_c, 1, 69, 127
1, 38992, Note_on_c, 1, 81, 127
1, 38995, Note_off_c, 1, 67, 0
1, 38995, Note_off_c, 1, 79, 0
1, 38995, Note_off_c, 1, 91, 0
1, 38995, Note_off_c, 1, 86, 0
1, 38998, Note_on_c, 1, 96, 127
1, 39010, Note_off_c, 1, 58, 0
1, 39010, Note_off_c, 1, 70, 0
1, 39010, Note_off_c, 1, 82, 0
1, 39010, Note_off_c, 1, 77, 0
1, 39015, Note_off_c, 1, 96, 0
1, 39029, Note_on_c, 1, 65, 127
1, 39029, Note_on_c, 1, 89, 127
1, 39058, Note_on_c, 1, 93, 127
1, 39062, Note_off_c, 1, 65, 0
1, 39062, Note_off_c, 1, 89, 0
1, 39079, Note_off_c, 1, 57, 0
1, 39088, Note_off_c, 1, 69, 0
1, 39088, Note_off_c, 1, 81, 0
1, 39088, Note_off_c, 1, 93, 0
1, 39117, Note_on_c, 1, 98, 127
1, 39149, Note_on_c, 1, 94, 127
1, 39150, Note_off_c, 1, 98, 0
1, 39174, Note_on_c, 1, 62, 127
1, 39185, Note_off_c, 1, 94, 0
1, 39272, Note_off_c, 1, 62, 0
1, 39359, Note_on_c, 1, 53, 127
1, 39359, Note_on_c, 1, 41, 127
1, 39359, Note_on_c, 1, 29, 127
1, 39359, Note_on_c, 1, 17, 127
1, 39360, Note_off_c, 1, 48, 0
1, 39360, Note_off_c, 1, 36, 0
1, 39360, Note_off_c, 1, 24, 0
1, 39360, Note_off_c, 1, 12, 0
1, 39447, Note_on_c, 1, 52, 127
1, 39447, Note_on_c, 1, 71, 127
1, 39477, Note_off_c, 1, 52, 0
1, 39477, Note_off_c, 1, 71, 0
1, 39594, Note_on_c, 1, 43, 127
1, 39594, Note_on_c, 1, 31, 127
1, 39594, Note_on_c, 1, 19, 127
1, 39595, Note_off_c, 1, 53, 0
1, 39595, Note_off_c, 1, 41, 0
1, 39595, Note_off_c, 1, 29, 0
1, 39595, Note_off_c, 1, 17, 0
1, 39714, Note_on_c, 1, 100, 127
1, 39714, Note_on_c, 1, 95, 127
1, 39822, Note_off_c, 1, 43, 0
1, 39822, Note_off_c, 1, 31, 0
1, 39822, Note_off_c, 1, 19, 0
1, 39827, Note_on_c, 1, 101, 127
1, 39828, Note_off_c, 1, 100, 0
1, 39828, Note_off_c, 1, 95, 0
1, 39829, Note_on_c, 1, 45, 127
1, 39829, Note_on_c, 1, 33, 127
1, 39829, Note_on_c, 1, 21, 127
1, 39955, Note_on_c, 1, 46, 127
1, 39955, Note_on_c, 1, 34, 127
1, 39955, Note_on_c, 1, 22, 127
1, 39962, Note_off_c, 1, 45, 0
1, 39962, Note_off_c, 1, 33, 0
1, 39962, Note_off_c, 1, 21, 0
1, 40066, Note_off_c, 1, 101, 0
1, 40073, Note_off_c, 1, 46, 0
1, 40073, Note_off_c, 1, 34, 0
1, 40073, Note_off_c, 1, 22, 0
1, 40135, Note_on_c, 1, 50, 127
1, 40137, Note_on_c, 1, 103, 127
1, 40167, Note_off_c, 1, 50, 0
1, 40258, Note_off_c, 1, 103, 0
1, 40258, Note_on_c, 1, 90, 127
1, 40288, Note_off_c, 1, 90, 0
1, 40471, Note_on_c, 1, 75, 127
1, 40471, Note_on_c, 1, 87, 127
1, 40471, Note_on_c, 1, 99, 127
1, 40501, Note_off_c, 1, 75, 0
1, 40501, Note_off_c, 1, 87, 0
1, 40501, Note_off_c, 1, 99, 0
1, 40643, Note_on_c, 1, 54, 127
1, 40643, Note_on_c, 1, 66, 127
1, 40643, Note_on_c, 1, 78, 127
1, 40643, Note_on_c, 1, 73, 127
1, 40653, Note_off_c, 1, 54, 0
1, 40653, Note_off_c, 1, 66, 0
1, 40653, Note_off_c, 1, 78, 0
1, 40653, Note_off_c, 1, 73, 0
1, 40915, Note_on_c, 1, 85, 127
1, 40936, Note_off_c, 1, 85, 0
1, 40974, Note_on_c, 1, 102, 127
1, 40974, Note_on_c, 1, 97, 127
1, 41008, Note_off_c, 1, 102, 0
1, 41008, Note_off_c, 1, 97, 0
1, 41095, Note_on_c, 1, 106, 127
1, 41213, Note_off_c, 1, 106, 0
1, 41214, Note_on_c, 1, 61, 127
1, 41214, Note_on_c, 1, 80, 127
1, 41217, Note_on_c, 1, 105, 127
1, 41235, Note_off_c, 1, 61, 0
1, 41235, Note_off_c, 1, 80, 0
1, 41246, Note_off_c, 1, 105, 0
1, 41272, Note_on_c, 1, 38, 127
1, 41272, Note_on_c, 1, 26, 127
1, 41272, Note_on_c, 1, 14, 127
1, 41511, Note_on_c, 1, 40, 127
1, 41511, Note_on_c, 1, 28, 127
1, 41511, Note_on_c, 1, 16, 127
1, 41519, Note_off_c, 1, 38, 0
1, 41519, Note_off_c, 1, 26, 0
1, 41519, Note_off_c, 1, 14, 0
1, 41753, Note_off_c, 1, 40, 0
1, 41753, Note_off_c, 1, 28, 0
1, 41753, Note_off_c, 1, 16, 0
1, 42001, Note_on_c, 1, 63, 127
1, 42028, Note_off_c, 1, 63, 0
1, 42503, Note_on_c, 1, 51, 127
1, 42532, Note_off_c, 1, 51, 0
1, 42809, Note_on_c, 1, 52, 127
1, 42809, Note_on_c, 1, 64, 127
1, 42809, Note_on_c, 1, 76, 127
1, 42809, Note_on_c, 1, 71, 127
1, 42811, Note_on_c, 1, 65, 127
1, 42811, Note_on_c, 1, 77, 127
1, 42811, Note_on_c, 1, 89, 127
1, 42811, Note_on_c, 1, 84, 127
1, 42837, Note_off_c, 1, 65, 0
1, 42837, Note_off_c, 1, 77, 0
1, 42837, Note_off_c, 1, 89, 0
1, 42837, Note_off_c, 1, 84, 0
1, 42838, Note_off_c, 1, 52, 0
1, 42838, Note_off_c, 1, 64, 0
1, 42838, Note_off_c, 1, 76, 0
1, 42838, Note_off_c, 1, 71, 0
1, 42840, Note_on_c, 1, 67, 127
1, 42840, Note_on_c, 1, 79, 127
1, 42840, Note_on_c, 1, 91, 127
1, 42840, Note_on_c, 1, 86, 127
1, 42841, Note_on_c, 1, 53, 127
1, 42841, Note_on_c, 1, 65, 127
1, 42841, Note_on_c, 1, 77, 127
1, 42841, Note_on_c, 1, 72, 127
1, 42854, Note_on_c, 1, 52, 127
1, 42854, Note_on_c, 1, 64, 127
1, 42854, Note_on_c, 1, 76, 127
1, 42854, Note_on_c, 1, 71, 127
1, 42855, Note_off_c, 1, 53, 0
1, 42855, Note_off_c, 1, 65, 0
1, 42855, Note_off_c, 1, 77, 0
1, 42855, Note_off_c, 1, 72, 0
1, 42867, Note_off_c, 1, 52, 0
1, 42867, Note_off_c, 1, 64, 0
1, 42867, Note_off_c, 1, 76, 0
1, 42867, Note_off_c, 1, 71, 0
1, 42870, Note_off_c, 1, 67, 0
1, 42870, Note_off_c, 1, 79, 0
1, 42870, Note_off_c, 1, 91, 0
1, 42870, Note_off_c, 1, 86, 0
1, 42870, Note_on_c, 1, 89, 127
1, 42870, Note_on_c, 1, 84, 127
1, 42899, Note_off_c, 1, 89, 0
1, 42899, Note_off_c, 1, 84, 0
1, 42900, Note_on_c, 1, 88, 127
1, 42900, Note_on_c, 1, 83, 127
1, 42919, Note_on_c, 1, 50, 127
1, 42919, Note_on_c, 1, 62, 127
1, 42919, Note_on_c, 1, 74, 127
1, 42919, Note_on_c, 1, 69, 127
1, 42929, Note_on_c, 1, 81, 127
1, 42933, Note_off_c, 1, 88, 0
1, 42933, Note_off_c, 1, 83, 0
1, 42939, Note_off_c, 1, 50, 0
1, 42939, Note_off_c, 1, 69, 0
1, 42940, Note_off_c, 1, 62, 0
1, 42940, Note_off_c, 1, 74, 0
1, 42940, Note_off_c, 1, 81, 0
1, 42956, Note_on_c, 1, 53, 127
1, 42956, Note_on_c, 1, 65, 127
1, 42956, Note_on_c, 1, 77, 127
1, 42956, Note_on_c, 1, 72, 127
1, 42959, Note_on_c, 1, 60, 127
1, 42959, Note_on_c, 1, 84, 127
1, 42959, Note_on_c, 1, 79, 127
1, 42987, Note_on_c, 1, 58, 127
1, 42987, Note_on_c, 1, 70, 127
1, 42987, Note_on_c, 1, 82, 127
1, 42990, Note_on_c, 1, 96, 127
1, 42990, Note_on_c, 1, 91, 127
1, 42995, Note_off_c, 1, 60, 0
1, 42995, Note_off_c, 1, 79, 0
1, 42995, Note_on_c, 1, 57, 127
1, 42995, Note_on_c, 1, 69, 127
1, 42995, Note_on_c, 1, 81, 127
1, 42995, Note_on_c, 1, 76, 127
1, 43010, Note_off_c, 1, 53, 0
1, 43010, Note_off_c, 1, 65, 0
1, 43014, Note_on_c, 1, 55, 127
1, 43014, Note_on_c, 1, 67, 127
1, 43014, Note_on_c, 1, 74, 127
1, 43015, Note_off_c, 1, 57, 0
1, 43015, Note_off_c, 1, 69, 0
1, 43015, Note_off_c, 1, 81, 0
1, 43015, Note_off_c, 1, 76, 0
1, 43021, Note_on_c, 1, 94, 127
1, 43021, Note_on_c, 1, 89, 127
1, 43023, Note_off_c, 1, 84, 0
1, 43023, Note_off_c, 1, 96, 0
1, 43023, Note_off_c, 1, 91, 0
1, 43038, Note_off_c, 1, 55, 0
1, 43038, Note_off_c, 1, 67, 0
1, 43038, Note_off_c, 1, 74, 0
1, 43050, Note_off_c, 1, 94, 0
1, 43050, Note_off_c, 1, 89, 0
1, 43071, Note_off_c, 1, 58, 0
1, 43071, Note_off_c, 1, 70, 0
1, 43071, Note_off_c, 1, 82, 0
1, 43077, Note_on_c, 1, 86, 127
1, 43077, Note_on_c, 1, 98, 127
1, 43077, Note_on_c, 1, 93, 127
1, 43106, Note_off_c, 1, 72, 0
1, 43109, Note_off_c, 1, 77, 0
1, 43109, Note_off_c, 1, 86, 0
1, 43109, Note_off_c, 1, 98, 0
1, 43109, Note_off_c, 1, 93, 0
1, 43165, Note_on_c, 1, 88, 127
1, 43193, Note_off_c, 1, 88, 0
1, 43221, Note_on_c, 1, 52, 127
1, 43221, Note_on_c, 1, 64, 127
1, 43221, Note_on_c, 1, 71, 127
1, 43226, Note_on_c, 1, 103, 127
1, 43251, Note_on_c, 1, 50, 127
1, 43251, Note_on_c, 1, 62, 127
1, 43254, Note_off_c, 1, 52, 0
1, 43254, Note_off_c, 1, 64, 0
1, 43254, Note_off_c, 1, 71, 0
1, 43256, Note_off_c, 1, 103, 0
1, 43256, Note_on_c, 1, 101, 127
1, 43285, Note_off_c, 1, 50, 0
1, 43285, Note_off_c, 1, 62, 0
1, 43287, Note_off_c, 1, 101, 0
1, 43315, Note_on_c, 1, 105, 127
1, 43315, Note_on_c, 1, 100, 127
1, 43349, Note_off_c, 1, 105, 0
1, 43349, Note_off_c, 1, 100, 0
1, 43405, Note_on_c, 1, 95, 127
1, 43416, Note_off_c, 1, 95, 0
1, 43658, Note_on_c, 1, 76, 127
1, 43658, Note_on_c, 1, 88, 127
1, 43658, Note_on_c, 1, 100, 127
1, 43658, Note_on_c, 1, 95, 127
1, 43667, Note_on_c, 1, 57, 127
1, 43667, Note_on_c, 1, 69, 127
1, 43667, Note_on_c, 1, 81, 127
1, 43668, Note_on_c, 1, 50, 127
1, 43668, Note_on_c, 1, 62, 127
1, 43668, Note_on_c, 1, 74, 127
1, 43671, Note_off_c, 1, 88, 0
1, 43671, Note_off_c, 1, 100, 0
1, 43671, Note_off_c, 1, 95, 0
1, 43677, Note_on_c, 1, 77, 127
1, 43677, Note_on_c, 1, 89, 127
1, 43677, Note_on_c, 1, 101, 127
1, 43677, Note_on_c, 1, 96, 127
1, 43705, Note_off_c, 1, 76, 0
1, 43705, Note_off_c, 1, 57, 0
1, 43705, Note_off_c, 1, 81, 0
1, 43708, Note_on_c, 1, 93, 127
1, 43737, Note_on_c, 1, 67, 127
1, 43737, Note_on_c, 1, 79, 127
1, 43737, Note_on_c, 1, 91, 127
1, 43737, Note_on_c, 1, 86, 127
1, 43740, Note_off_c, 1, 93, 0
1, 43749, Note_off_c, 1, 69, 0
1, 43749, Note_off_c, 1, 50, 0
1, 43749, Note_off_c, 1, 62, 0
1, 43749, Note_off_c, 1, 74, 0
1, 43771, Note_off_c, 1, 67, 0
1, 43771, Note_off_c, 1, 79, 0
1, 43771, Note_off_c, 1, 91, 0
1, 43771, Note_off_c, 1, 86, 0
1, 43798, Note_on_c, 1, 70, 127
1, 43798, Note_on_c, 1, 82, 127
1, 43798, Note_on_c, 1, 94, 127
1, 43831, Note_off_c, 1, 70, 0
1, 43831, Note_off_c, 1, 82, 0
1, 43831, Note_off_c, 1, 94, 0
1, 43886, Note_on_c, 1, 65, 127
1, 43886, Note_on_c, 1, 84, 127
1, 43918, Note_off_c, 1, 65, 0
1, 43918, Note_off_c, 1, 84, 0
1, 43919, Note_off_c, 1, 77, 0
1, 43919, Note_off_c, 1, 89, 0
1, 43919, Note_off_c, 1, 101, 0
1, 43919, Note_off_c, 1, 96, 0
1, 43946, Note_on_c, 1, 61, 127
1, 43946, Note_on_c, 1, 73, 127
1, 43946, Note_on_c, 1, 85, 127
1, 43946, Note_on_c, 1, 80, 127
1, 43975, Note_off_c, 1, 61, 0
1, 43975, Note_off_c, 1, 73, 0
1, 43975, Note_off_c, 1, 85, 0
1, 43975, Note_off_c, 1, 80, 0
1, 43975, Note_on_c, 1, 59, 127
1, 43975, Note_on_c, 1, 71, 127
1, 43975, Note_on_c, 1, 83, 127
1, 43975, Note_on_c, 1, 78, 127
1, 44005, Note_off_c, 1, 59, 0
1, 44005, Note_off_c, 1, 71, 0
1, 44005, Note_off_c, 1, 83, 0
1, 44005, Note_off_c, 1, 78, 0
1, 44185, Note_on_c, 1, 98, 127
1, 44214, Note_on_c, 1, 97, 127
1, 44214, Note_on_c, 1, 92, 127
1, 44215, Note_off_c, 1, 98, 0
1, 44239, Note_on_c, 1, 60, 127
1, 44239, Note_on_c, 1, 72, 127
1, 44245, Note_off_c, 1, 97, 0
1, 44245, Note_off_c, 1, 92, 0
1, 44252, Note_off_c, 1, 60, 0
1, 44252, Note_off_c, 1, 72, 0
1, 44273, Note_on_c, 1, 60, 127
1, 44273, Note_on_c, 1, 72, 127
1, 44273, Note_on_c, 1, 84, 127
1, 44273, Note_on_c, 1, 79, 127
1, 44276, Note_on_c, 1, 76, 127
1, 44276, Note_on_c, 1, 69, 127
1, 44276, Note_on_c, 1, 88, 127
1, 44276, Note_on_c, 1, 81, 127
1, 44276, Note_on_c, 1, 100, 127
1, 44276, Note_on_c, 1, 93, 127
1, 44276, Note_on_c, 1, 95, 127
1, 44284, Note_off_c, 1, 60, 0
1, 44284, Note_off_c, 1, 72, 0
1, 44284, Note_off_c, 1, 84, 0
1, 44284, Note_off_c, 1, 79, 0
1, 44285, Note_on_c, 1, 58, 127
1, 44285, Note_on_c, 1, 70, 127
1, 44285, Note_on_c, 1, 82, 127
1, 44285, Note_on_c, 1, 77, 127
1, 44294, Note_off_c, 1, 58, 0
1, 44294, Note_off_c, 1, 70, 0
1, 44294, Note_off_c, 1, 82, 0
1, 44294, Note_off_c, 1, 77, 0
1, 44307, Note_on_c, 1, 74, 127
1, 44307, Note_on_c, 1, 86, 127
1, 44307, Note_on_c, 1, 98, 127
1, 44309, Note_off_c, 1, 76, 0
1, 44309, Note_off_c, 1, 100, 0
1, 44309, Note_off_c, 1, 95, 0
1, 44338, Note_off_c, 1, 74, 0
1, 44338, Note_off_c, 1, 86, 0
1, 44338, Note_off_c, 1, 98, 0
1, 44338, Note_on_c, 1, 73, 127
1, 44338, Note_on_c, 1, 85, 127
1, 44338, Note_on_c, 1, 97, 127
1, 44338, Note_on_c, 1, 92, 127
1, 44364, Note_on_c, 1, 57, 127
1, 44366, Note_off_c, 1, 73, 0
1, 44366, Note_off_c, 1, 85, 0
1, 44366, Note_off_c, 1, 97, 0
1, 44366, Note_off_c, 1, 92, 0
1, 44381, Note_off_c, 1, 57, 0
1, 44451, Note_on_c, 1, 55, 127
1, 44451, Note_on_c, 1, 67, 127
1, 44460, Note_off_c, 1, 69, 0
1, 44460, Note_off_c, 1, 88, 0
1, 44460, Note_off_c, 1, 81, 0
1, 44460, Note_off_c, 1, 93, 0
1, 44484, Note_off_c, 1, 55, 0
1, 44484, Note_off_c, 1, 67, 0
1, 44522, Note_on_c, 1, 65, 127
1, 44522, Note_on_c, 1, 89, 127
1, 44584, Note_off_c, 1, 65, 0
1, 44584, Note_off_c, 1, 89, 0
1, 44607, Note_on_c, 1, 53, 127
1, 44612, Note_on_c, 1, 62, 127
1, 44626, Note_off_c, 1, 62, 0
1, 44637, Note_off_c, 1, 53, 0
1, 44649, Note_on_c, 1, 64, 127
1, 44649, Note_on_c, 1, 83, 127
1, 44768, Note_on_c, 1, 96, 127
1, 44768, Note_on_c, 1, 91, 127
1, 44822, Note_on_c, 1, 54, 127
1, 44822, Note_on_c, 1, 66, 127
1, 44822, Note_on_c, 1, 78, 127
1, 44843, Note_off_c, 1, 64, 0
1, 44843, Note_off_c, 1, 83, 0
1, 44852, Note_off_c, 1, 54, 0
1, 44852, Note_off_c, 1, 66, 0
1, 44852, Note_off_c, 1, 78, 0
1, 44852, Note_on_c, 1, 52, 127
1, 44852, Note_on_c, 1, 71, 127
1, 44881, Note_off_c, 1, 52, 0
1, 44881, Note_off_c, 1, 71, 0
1, 44907, Note_on_c, 1, 63, 127
1, 44907, Note_on_c, 1, 75, 127
1, 44907, Note_on_c, 1, 87, 127
1, 44936, Note_off_c, 1, 63, 0
1, 44936, Note_off_c, 1, 75, 0
1, 44936, Note_off_c, 1, 87, 0
1, 44961, Note_on_c, 1, 50, 127
1, 44988, Note_off_c, 1, 50, 0
1, 44993, Note_off_c, 1, 96, 0
1, 44993, Note_off_c, 1, 91, 0
1, 44995, Note_on_c, 1, 94, 127
1, 45072, Note_off_c, 1, 94, 0
1, 45082, Note_on_c, 1, 99, 127
1, 45093, Note_off_c, 1, 99, 0
1, 45350, Note_on_c, 1, 43, 127
1, 45350, Note_on_c, 1, 31, 127
1, 45350, Note_on_c, 1, 19, 127
1, 45387, Note_on_c, 1, 101, 127
1, 45416, Note_off_c, 1, 101, 0
1, 45478, Note_on_c, 1, 103, 127
1, 45510, Note_off_c, 1, 103, 0
1, 45587, Note_off_c, 1, 43, 0
1, 45587, Note_off_c, 1, 31, 0
1, 45587, Note_off_c, 1, 19, 0
1, 45596, Note_on_c, 1, 45, 127
1, 45596, Note_on_c, 1, 33, 127
1, 45596, Note_on_c, 1, 21, 127
1, 45657, Note_on_c, 1, 61, 127
1, 45657, Note_on_c, 1, 80, 127
1, 45684, Note_off_c, 1, 61, 0
1, 45684, Note_off_c, 1, 80, 0
1, 45769, Note_off_c, 1, 45, 0
1, 45769, Note_off_c, 1, 33, 0
1, 45769, Note_off_c, 1, 21, 0
1, 45773, Note_on_c, 1, 61, 127
1, 45773, Note_on_c, 1, 73, 127
1, 45773, Note_on_c, 1, 85, 127
1, 45773, Note_on_c, 1, 80, 127
1, 45776, Note_on_c, 1, 55, 127
1, 45776, Note_on_c, 1, 43, 127
1, 45776, Note_on_c, 1, 31, 127
1, 45776, Note_on_c, 1, 19, 127
1, 45780, Note_on_c, 1, 64, 127
1, 45780, Note_on_c, 1, 76, 127
1, 45780, Note_on_c, 1, 88, 127
1, 45780, Note_on_c, 1, 83, 127
1, 45803, Note_on_c, 1, 59, 127
1, 45803, Note_on_c, 1, 71, 127
1, 45803, Note_on_c, 1, 78, 127
1, 45804, Note_off_c, 1, 61, 0
1, 45804, Note_off_c, 1, 73, 0
1, 45804, Note_off_c, 1, 85, 0
1, 45804, Note_off_c, 1, 80, 0
1, 45822, Note_off_c, 1, 55, 0
1, 45822, Note_off_c, 1, 43, 0
1, 45822, Note_off_c, 1, 31, 0
1, 45822, Note_off_c, 1, 19, 0
1, 45833, Note_off_c, 1, 59, 0
1, 45833, Note_off_c, 1, 71, 0
1, 45833, Note_off_c, 1, 78, 0
1, 45833, Note_on_c, 1, 57, 127
1, 45833, Note_on_c, 1, 69, 127
1, 45833, Note_on_c, 1, 81, 127
1, 45833, Note_on_c, 1, 53, 127
1, 45833, Note_on_c, 1, 41, 127
1, 45833, Note_on_c, 1, 29, 127
1, 45833, Note_on_c, 1, 17, 127
1, 45867, Note_on_c, 1, 93, 127
1, 45893, Note_off_c, 1, 93, 0
1, 45894, Note_off_c, 1, 64, 0
1, 45894, Note_off_c, 1, 76, 0
1, 45894, Note_off_c, 1, 88, 0
1, 45894, Note_off_c, 1, 83, 0
1, 45894, Note_off_c, 1, 57, 0
1, 45894, Note_off_c, 1, 69, 0
1, 45894, Note_off_c, 1, 81, 0
1, 45894, Note_on_c, 1, 65, 127
1, 45894, Note_on_c, 1, 77, 127
1, 45894, Note_on_c, 1, 72, 127
1, 45897, Note_on_c, 1, 70, 127
1, 45897, Note_on_c, 1, 62, 127
1, 45897, Note_on_c, 1, 82, 127
1, 45897, Note_on_c, 1, 74, 127
1, 45897, Note_on_c, 1, 94, 127
1, 45897, Note_on_c, 1, 86, 127
1, 45897, Note_on_c, 1, 89, 127
1, 45926, Note_off_c, 1, 70, 0
1, 45926, Note_off_c, 1, 82, 0
1, 45926, Note_off_c, 1, 94, 0
1, 45926, Note_off_c, 1, 89, 0
1, 45934, Note_off_c, 1, 62, 0
1, 45934, Note_off_c, 1, 74, 0
1, 45934, Note_off_c, 1, 86, 0
1, 45952, Note_off_c, 1, 65, 0
1, 45952, Note_off_c, 1, 72, 0
1, 45952, Note_on_c, 1, 58, 127
1, 45955, Note_on_c, 1, 67, 127
1, 45955, Note_on_c, 1, 79, 127
1, 45955, Note_on_c, 1, 91, 127
1, 45994, Note_off_c, 1, 53, 0
1, 45994, Note_off_c, 1, 41, 0
1, 45994, Note_off_c, 1, 29, 0
1, 45994, Note_off_c, 1, 17, 0
1, 46007, Note_on_c, 1, 52, 127
1, 46007, Note_on_c, 1, 40, 127
1, 46007, Note_on_c, 1, 28, 127
1, 46007, Note_on_c, 1, 16, 127
1, 46016, Note_on_c, 1, 95, 127
1, 46016, Note_on_c, 1, 90, 127
1, 46047, Note_off_c, 1, 95, 0
1, 46047, Note_off_c, 1, 90, 0
1, 46047, Note_on_c, 1, 97, 127
1, 46047, Note_on_c, 1, 92, 127
1, 46048, Note_off_c, 1, 52, 0
1, 46048, Note_off_c, 1, 40, 0
1, 46048, Note_off_c, 1, 28, 0
1, 46048, Note_off_c, 1, 16, 0
1, 46055, Note_off_c, 1, 77, 0
1, 46055, Note_off_c, 1, 58, 0
1, 46075, Note_off_c, 1, 97, 0
1, 46075, Note_off_c, 1, 92, 0
1, 46077, Note_on_c, 1, 98, 127
1, 46079, Note_off_c, 1, 67, 0
1, 46079, Note_off_c, 1, 79, 0
1, 46079, Note_off_c, 1, 91, 0
1, 46080, Note_on_c, 1, 50, 127
1, 46080, Note_on_c, 1, 38, 127
1, 46080, Note_on_c, 1, 26, 127
1, 46080, Note_on_c, 1, 14, 127
1, 46193, Note_on_c, 1, 60, 127
1, 46193, Note_on_c, 1, 84, 127
1, 46195, Note_on_c, 1, 66, 127
1, 46227, Note_off_c, 1, 66, 0
1, 46228, Note_off_c, 1, 60, 0
1, 46228, Note_off_c, 1, 84, 0
1, 46313, Note_on_c, 1, 54, 127
1, 46318, Note_on_c, 1, 96, 127
1, 46339, Note_off_c, 1, 98, 0
1, 46341, Note_off_c, 1, 96, 0
1, 46371, Note_off_c, 1, 54, 0
1, 46372, Note_on_c, 1, 103, 127
1, 46375, Note_on_c, 1, 63, 127
1, 46375, Note_on_c, 1, 75, 127
1, 46375, Note_on_c, 1, 87, 127
1, 46401, Note_off_c, 1, 63, 0
1, 46401, Note_off_c, 1, 75, 0
1, 46401, Note_off_c, 1, 87, 0
1, 46418, Note_off_c, 1, 103, 0
1, 46432, Note_on_c, 1, 102, 127
1, 46461, Note_off_c, 1, 102, 0
1, 46491, Note_on_c, 1, 105, 127
1, 46491, Note_on_c, 1, 100, 127
1, 46507, Note_off_c, 1, 105, 0
1, 46507, Note_off_c, 1, 100, 0
1, 46795, Note_off_c, 1, 50, 0
1, 46795, Note_off_c, 1, 38, 0
1, 46795, Note_off_c, 1, 26, 0
1, 46795, Note_off_c, 1, 14, 0
1, 46800, Note_on_c, 1, 62, 127
1, 46800, Note_on_c, 1, 74, 127
1, 46800, Note_on_c, 1, 86, 127
1, 46800, Note_on_c, 1, 81, 127
1, 46803, Note_on_c, 1, 69, 127
1, 46803, Note_on_c, 1, 93, 127
1, 46803, Note_on_c, 1, 88, 127
1, 46804, Note_on_c, 1, 76, 127
1, 46804, Note_on_c, 1, 67, 127
1, 46804, Note_on_c, 1, 79, 127
1, 46804, Note_on_c, 1, 100, 127
1, 46804, Note_on_c, 1, 91, 127
1, 46804, Note_on_c, 1, 95, 127
1, 46832, Note_off_c, 1, 62, 0
1, 46832, Note_off_c, 1, 74, 0
1, 46832, Note_on_c, 1, 45, 127
1, 46832, Note_on_c, 1, 57, 127
1, 46832, Note_on_c, 1, 64, 127
1, 46856, Note_off_c, 1, 45, 0
1, 46856, Note_off_c, 1, 57, 0
1, 46856, Note_off_c, 1, 64, 0
1, 46859, Note_on_c, 1, 50, 127
1, 46862, Note_on_c, 1, 65, 127
1, 46862, Note_on_c, 1, 77, 127
1, 46862, Note_on_c, 1, 98, 127
1, 46862, Note_on_c, 1, 89, 127
1, 46862, Note_on_c, 1, 84, 127
1, 46863, Note_off_c, 1, 76, 0
1, 46863, Note_off_c, 1, 100, 0
1, 46863, Note_off_c, 1, 95, 0
1, 46864, Note_off_c, 1, 67, 0
1, 46864, Note_off_c, 1, 79, 0
1, 46864, Note_off_c, 1, 91, 0
1, 46890, Note_off_c, 1, 50, 0
1, 46890, Note_on_c, 1, 53, 127
1, 46890, Note_on_c, 1, 72, 127
1, 46892, Note_off_c, 1, 86, 0
1, 46892, Note_off_c, 1, 98, 0
1, 46894, Note_off_c, 1, 81, 0
1, 46894, Note_off_c, 1, 69, 0
1, 46894, Note_off_c, 1, 93, 0
1, 46894, Note_off_c, 1, 88, 0
1, 46894, Note_off_c, 1, 89, 0
1, 46894, Note_off_c, 1, 84, 0
1, 46922, Note_off_c, 1, 65, 0
1, 46922, Note_off_c, 1, 77, 0
1, 46922, Note_off_c, 1, 53, 0
1, 46922, Note_off_c, 1, 72, 0
1, 46951, Note_on_c, 1, 50, 127
1, 46951, Note_on_c, 1, 62, 127
1, 46951, Note_on_c, 1, 74, 127
1, 46951, Note_on_c, 1, 69, 127
1, 46977, Note_on_c, 1, 81, 127
1, 46977, Note_on_c, 1, 93, 127
1, 46977, Note_on_c, 1, 86, 127
1, 46977, Note_on_c, 1, 105, 127
1, 46977, Note_on_c, 1, 98, 127
1, 46977, Note_on_c, 1, 100, 127
1, 46977, Note_on_c, 1, 88, 127
1, 46979, Note_on_c, 1, 53, 127
1, 46979, Note_on_c, 1, 65, 127
1, 46979, Note_on_c, 1, 77, 127
1, 46979, Note_on_c, 1, 72, 127
1, 46981, Note_off_c, 1, 50, 0
1, 46981, Note_off_c, 1, 62, 0
1, 46995, Note_off_c, 1, 105, 0
1, 46995, Note_off_c, 1, 100, 0
1, 46996, Note_off_c, 1, 74, 0
1, 46996, Note_off_c, 1, 86, 0
1, 46996, Note_off_c, 1, 98, 0
1, 46997, Note_off_c, 1, 69, 0
1, 46997, Note_off_c, 1, 81, 0
1, 46997, Note_off_c, 1, 93, 0
1, 46997, Note_off_c, 1, 88, 0
1, 47005, Note_on_c, 1, 57, 127
1, 47005, Note_on_c, 1, 76, 127
1, 47006, Note_off_c, 1, 53, 0
1, 47006, Note_off_c, 1, 65, 0
1, 47006, Note_off_c, 1, 77, 0
1, 47006, Note_off_c, 1, 72, 0
1, 47032, Note_off_c, 1, 57, 0
1, 47032, Note_off_c, 1, 76, 0
1, 47035, Note_on_c, 1, 58, 127
1, 47035, Note_on_c, 1, 70, 127
1, 47035, Note_on_c, 1, 82, 127
1, 47035, Note_on_c, 1, 77, 127
1, 47039, Note_on_c, 1, 74, 127
1, 47039, Note_on_c, 1, 86, 127
1, 47039, Note_on_c, 1, 98, 127
1, 47039, Note_on_c, 1, 93, 127
1, 47040, Note_on_c, 1, 81, 127
1, 47040, Note_on_c, 1, 89, 127
1, 47040, Note_on_c, 1, 105, 127
1, 47040, Note_on_c, 1, 101, 127
1, 47040, Note_on_c, 1, 100, 127
1, 47040, Note_on_c, 1, 96, 127
1, 47066, Note_on_c, 1, 55, 127
1, 47066, Note_on_c, 1, 67, 127
1, 47066, Note_on_c, 1, 79, 127
1, 47067, Note_off_c, 1, 58, 0
1, 47067, Note_off_c, 1, 70, 0
1, 47067, Note_off_c, 1, 82, 0
1, 47093, Note_off_c, 1, 81, 0
1, 47093, Note_off_c, 1, 105, 0
1, 47093, Note_off_c, 1, 100, 0
1, 47094, Note_off_c, 1, 77, 0
1, 47094, Note_off_c, 1, 89, 0
1, 47094, Note_off_c, 1, 101, 0
1, 47094, Note_off_c, 1, 96, 0
1, 47098, Note_on_c, 1, 52, 127
1, 47098, Note_on_c, 1, 91, 127
1, 47098, Note_on_c, 1, 64, 127
1, 47098, Note_on_c, 1, 103, 127
1, 47098, Note_on_c, 1, 76, 127
1, 47098, Note_on_c, 1, 71, 127
1, 47099, Note_on_c, 1, 88, 127
1, 47099, Note_on_c, 1, 95, 127
1, 47102, Note_off_c, 1, 55, 0
1, 47102, Note_off_c, 1, 67, 0
1, 47124, Note_off_c, 1, 88, 0
1, 47124, Note_off_c, 1, 95, 0
1, 47125, Note_off_c, 1, 79, 0
1, 47125, Note_off_c, 1, 91, 0
1, 47125, Note_off_c, 1, 103, 0
1, 47127, Note_off_c, 1, 52, 0
1, 47127, Note_off_c, 1, 64, 0
1, 47127, Note_off_c, 1, 76, 0
1, 47127, Note_off_c, 1, 71, 0
1, 47130, Note_off_c, 1, 86, 0
1, 47130, Note_off_c, 1, 98, 0
1, 47130, Note_off_c, 1, 93, 0
1, 47157, Note_on_c, 1, 49, 127
1, 47157, Note_on_c, 1, 61, 127
1, 47157, Note_on_c, 1, 73, 127
1, 47157, Note_on_c, 1, 68, 127
1, 47160, Note_off_c, 1, 74, 0
1, 47188, Note_off_c, 1, 49, 0
1, 47188, Note_off_c, 1, 61, 0
1, 47188, Note_off_c, 1, 73, 0
1, 47188, Note_off_c, 1, 68, 0
1, 47215, Note_on_c, 1, 57, 127
1, 47215, Note_on_c, 1, 69, 127
1, 47219, Note_on_c, 1, 85, 127
1, 47219, Note_on_c, 1, 97, 127
1, 47219, Note_on_c, 1, 92, 127
1, 47233, Note_off_c, 1, 85, 0
1, 47233, Note_off_c, 1, 97, 0
1, 47233, Note_off_c, 1, 92, 0
1, 47247, Note_off_c, 1, 57, 0
1, 47247, Note_off_c, 1, 69, 0
1, 47275, Note_on_c, 1, 53, 127
1, 47275, Note_on_c, 1, 65, 127
1, 47275, Note_on_c, 1, 77, 127
1, 47275, Note_on_c, 1, 72, 127
1, 47279, Note_on_c, 1, 79, 127
1, 47279, Note_on_c, 1, 76, 127
1, 47279, Note_on_c, 1, 69, 127
1, 47279, Note_on_c, 1, 91, 127
1, 47279, Note_on_c, 1, 88, 127
1, 47279, Note_on_c, 1, 81, 127
1, 47279, Note_on_c, 1, 103, 127
1, 47279, Note_on_c, 1, 100, 127
1, 47279, Note_on_c, 1, 93, 127
1, 47279, Note_on_c, 1, 98, 127
1, 47279, Note_on_c, 1, 95, 127
1, 47306, Note_on_c, 1, 50, 127
1, 47306, Note_on_c, 1, 62, 127
1, 47306, Note_on_c, 1, 74, 127
1, 47308, Note_off_c, 1, 53, 0
1, 47308, Note_off_c, 1, 65, 0
1, 47308, Note_off_c, 1, 77, 0
1, 47308, Note_off_c, 1, 72, 0
1, 47321, Note_off_c, 1, 79, 0
1, 47321, Note_off_c, 1, 91, 0
1, 47321, Note_off_c, 1, 103, 0
1, 47321, Note_off_c, 1, 98, 0
1, 47326, Note_off_c, 1, 76, 0
1, 47326, Note_off_c, 1, 100, 0
1, 47326, Note_off_c, 1, 95, 0
1, 47336, Note_off_c, 1, 50, 0
1, 47336, Note_off_c, 1, 62, 0
1, 47336, Note_off_c, 1, 74, 0
1, 47338, Note_on_c, 1, 86, 127
1, 47339, Note_on_c, 1, 89, 127
1, 47339, Note_on_c, 1, 101, 127
1, 47339, Note_on_c, 1, 96, 127
1, 47354, Note_off_c, 1, 89, 0
1, 47354, Note_off_c, 1, 101, 0
1, 47354, Note_off_c, 1, 96, 0
1, 47355, Note_off_c, 1, 86, 0
1, 47362, Note_on_c, 1, 57, 127
1, 47368, Note_on_c, 1, 84, 127
1, 47370, Note_off_c, 1, 57, 0
1, 47377, Note_off_c, 1, 84, 0
1, 47392, Note_off_c, 1, 69, 0
1, 47392, Note_off_c, 1, 88, 0
1, 47392, Note_off_c, 1, 81, 0
1, 47392, Note_off_c, 1, 93, 0
1, 47396, Note_on_c, 1, 62, 127
1, 47396, Note_on_c, 1, 74, 127
1, 47396, Note_on_c, 1, 86, 127
1, 47396, Note_on_c, 1, 81, 127
1, 47400, Note_on_c, 1, 98, 127
1, 47400, Note_on_c, 1, 93, 127
1, 47401, Note_on_c, 1, 77, 127
1, 47401, Note_on_c, 1, 89, 127
1, 47401, Note_on_c, 1, 101, 127
1, 47401, Note_on_c, 1, 96, 127
1, 47430, Note_on_c, 1, 69, 127
1, 47430, Note_on_c, 1, 88, 127
1, 47460, Note_off_c, 1, 69, 0
1, 47460, Note_off_c, 1, 88, 0
1, 47460, Note_on_c, 1, 70, 127
1, 47460, Note_on_c, 1, 82, 127
1, 47460, Note_on_c, 1, 94, 127
1, 47487, Note_off_c, 1, 98, 0
1, 47487, Note_on_c, 1, 72, 127
1, 47487, Note_on_c, 1, 84, 127
1, 47487, Note_on_c, 1, 91, 127
1, 47488, Note_off_c, 1, 70, 0
1, 47488, Note_off_c, 1, 82, 0
1, 47488, Note_off_c, 1, 94, 0
1, 47493, Note_off_c, 1, 93, 0
1, 47514, Note_off_c, 1, 72, 0
1, 47514, Note_off_c, 1, 84, 0
1, 47514, Note_off_c, 1, 91, 0
1, 47517, Note_on_c, 1, 76, 127
1, 47517, Note_on_c, 1, 100, 127
1, 47517, Note_on_c, 1, 95, 127
1, 47518, Note_on_c, 1, 67, 127
1, 47518, Note_on_c, 1, 79, 127
1, 47520, Note_off_c, 1, 77, 0
1, 47520, Note_off_c, 1, 101, 0
1, 47520, Note_off_c, 1, 96, 0
1, 47545, Note_off_c, 1, 89, 0
1, 47545, Note_off_c, 1, 67, 0
1, 47545, Note_off_c, 1, 79, 0
1, 47574, Note_on_c, 1, 65, 127
1, 47606, Note_off_c, 1, 65, 0
1, 47631, Note_off_c, 1, 62, 0
1, 47631, Note_off_c, 1, 74, 0
1, 47631, Note_off_c, 1, 86, 0
1, 47631, Note_on_c, 1, 60, 127
1, 47671, Note_off_c, 1, 81, 0
1, 47690, Note_on_c, 1, 66, 127
1, 47690, Note_on_c, 1, 78, 127
1, 47690, Note_on_c, 1, 90, 127
1, 47690, Note_on_c, 1, 85, 127
1, 47718, Note_off_c, 1, 66, 0
1, 47718, Note_off_c, 1, 78, 0
1, 47718, Note_off_c, 1, 90, 0
1, 47718, Note_off_c, 1, 85, 0
1, 47719, Note_on_c, 1, 64, 127
1, 47719, Note_on_c, 1, 83, 127
1, 47749, Note_off_c, 1, 100, 0
1, 47749, Note_off_c, 1, 95, 0
1, 47751, Note_off_c, 1, 76, 0
1, 47751, Note_off_c, 1, 64, 0
1, 47751, Note_off_c, 1, 83, 0
1, 47781, Note_on_c, 1, 105, 127
1, 47812, Note_off_c, 1, 105, 0
1, 47812, Note_on_c, 1, 103, 127
1, 47842, Note_off_c, 1, 103, 0
1, 47869, Note_off_c, 1, 60, 0
1, 47872, Note_on_c, 1, 58, 127
1, 47872, Note_on_c, 1, 106, 127
1, 47897, Note_off_c, 1, 106, 0
1, 47928, Note_on_c, 1, 63, 127
1, 47928, Note_on_c, 1, 75, 127
1, 47928, Note_on_c, 1, 87, 127
1, 47954, Note_off_c, 1, 63, 0
1, 47954, Note_off_c, 1, 75, 0
1, 47954, Note_off_c, 1, 87, 0
1, 47988, Note_off_c, 1, 58, 0
1, 48017, Note_on_c, 1, 48, 127
1, 48050, Note_on_c, 1, 52, 127
1, 48050, Note_on_c, 1, 71, 127
1, 48053, Note_off_c, 1, 48, 0
1, 48077, Note_on_c, 1, 55, 127
1, 48078, Note_off_c, 1, 52, 0
1, 48078, Note_off_c, 1, 71, 0
1, 48107, Note_off_c, 1, 55, 0
1, 48140, Note_on_c, 1, 53, 127
1, 48169, Note_on_c, 1, 57, 127
1, 48170, Note_off_c, 1, 53, 0
1, 48202, Note_off_c, 1, 57, 0
1, 48231, Note_on_c, 1, 43, 127
1, 48231, Note_on_c, 1, 31, 127
1, 48231, Note_on_c, 1, 19, 127
1, 48476, Note_on_c, 1, 50, 127
1, 48476, Note_on_c, 1, 38, 127
1, 48476, Note_on_c, 1, 26, 127
1, 48476, Note_on_c, 1, 14, 127
1, 48477, Note_off_c, 1, 43, 0
1, 48477, Note_off_c, 1, 31, 0
1, 48477, Note_off_c, 1, 19, 0
1, 48705, Note_on_c, 1, 40, 127
1, 48705, Note_on_c, 1, 28, 127
1, 48705, Note_on_c, 1, 16, 127
1, 48712, Note_off_c, 1, 50, 0
1, 48712, Note_off_c, 1, 38, 0
1, 48712, Note_off_c, 1, 26, 0
1, 48712, Note_off_c, 1, 14, 0
1, 48952, Note_on_c, 1, 41, 127
1, 48952, Note_on_c, 1, 29, 127
1, 48952, Note_on_c, 1, 17, 127
1, 48954, Note_off_c, 1, 40, 0
1, 48954, Note_off_c, 1, 28, 0
1, 48954, Note_off_c, 1, 16, 0
1, 49256, Note_on_c, 1, 46, 127
1, 49311, Note_off_c, 1, 46, 0
1, 49549, Note_off_c, 1, 41, 0
1, 49549, Note_off_c, 1, 29, 0
1, 49549, Note_off_c, 1, 17, 0
1, 49583, Note_on_c, 1, 65, 127
1, 49583, Note_on_c, 1, 77, 127
1, 49583, Note_on_c, 1, 89, 127
1, 49583, Note_on_c, 1, 84, 127
1, 49586, Note_on_c, 1, 72, 127
1, 49586, Note_on_c, 1, 96, 127
1, 49586, Note_on_c, 1, 91, 127
1, 49606, Note_off_c, 1, 65, 0
1, 49606, Note_off_c, 1, 77, 0
1, 49606, Note_off_c, 1, 89, 0
1, 49611, Note_on_c, 1, 57, 127
1, 49611, Note_on_c, 1, 45, 127
1, 49611, Note_on_c, 1, 33, 127
1, 49611, Note_on_c, 1, 21, 127
1, 49613, Note_on_c, 1, 60, 127
1, 49613, Note_on_c, 1, 79, 127
1, 49614, Note_off_c, 1, 96, 0
1, 49614, Note_off_c, 1, 91, 0
1, 49619, Note_on_c, 1, 101, 127
1, 49631, Note_off_c, 1, 57, 0
1, 49631, Note_off_c, 1, 45, 0
1, 49631, Note_off_c, 1, 33, 0
1, 49631, Note_off_c, 1, 21, 0
1, 49639, Note_off_c, 1, 101, 0
1, 49642, Note_on_c, 1, 69, 127
1, 49642, Note_on_c, 1, 81, 127
1, 49642, Note_on_c, 1, 76, 127
1, 49647, Note_on_c, 1, 103, 127
1, 49647, Note_on_c, 1, 98, 127
1, 49663, Note_off_c, 1, 69, 0
1, 49663, Note_off_c, 1, 81, 0
1, 49663, Note_off_c, 1, 76, 0
1, 49665, Note_off_c, 1, 103, 0
1, 49665, Note_off_c, 1, 98, 0
1, 49676, Note_on_c, 1, 53, 127
1, 49678, Note_on_c, 1, 80, 127
1, 49678, Note_on_c, 1, 92, 127
1, 49678, Note_on_c, 1, 104, 127
1, 49678, Note_on_c, 1, 99, 127
1, 49681, Note_on_c, 1, 50, 127
1, 49681, Note_on_c, 1, 38, 127
1, 49681, Note_on_c, 1, 26, 127
1, 49681, Note_on_c, 1, 14, 127
1, 49710, Note_off_c, 1, 80, 0
1, 49710, Note_off_c, 1, 92, 0
1, 49710, Note_off_c, 1, 104, 0
1, 49710, Note_off_c, 1, 99, 0
1, 49738, Note_on_c, 1, 59, 127
1, 49738, Note_on_c, 1, 71, 127
1, 49738, Note_on_c, 1, 83, 127
1, 49738, Note_on_c, 1, 78, 127
1, 49739, Note_off_c, 1, 84, 0
1, 49739, Note_off_c, 1, 60, 0
1, 49739, Note_off_c, 1, 79, 0
1, 49740, Note_on_c, 1, 74, 127
1, 49740, Note_on_c, 1, 86, 127
1, 49740, Note_on_c, 1, 93, 127
1, 49771, Note_off_c, 1, 74, 0
1, 49771, Note_off_c, 1, 86, 0
1, 49771, Note_off_c, 1, 93, 0
1, 49775, Note_off_c, 1, 59, 0
1, 49775, Note_off_c, 1, 71, 0
1, 49775, Note_off_c, 1, 83, 0
1, 49775, Note_off_c, 1, 78, 0
1, 49777, Note_off_c, 1, 72, 0
1, 49777, Note_off_c, 1, 53, 0
1, 49798, Note_off_c, 1, 50, 0
1, 49798, Note_off_c, 1, 38, 0
1, 49798, Note_off_c, 1, 26, 0
1, 49798, Note_off_c, 1, 14, 0
1, 49801, Note_on_c, 1, 71, 127
1, 49801, Note_on_c, 1, 83, 127
1, 49801, Note_on_c, 1, 95, 127
1, 49801, Note_on_c, 1, 90, 127
1, 49833, Note_on_c, 1, 80, 127
1, 49833, Note_on_c, 1, 92, 127
1, 49833, Note_on_c, 1, 104, 127
1, 49833, Note_on_c, 1, 99, 127
1, 49834, Note_off_c, 1, 71, 0
1, 49834, Note_off_c, 1, 83, 0
1, 49834, Note_off_c, 1, 95, 0
1, 49834, Note_off_c, 1, 90, 0
1, 49857, Note_off_c, 1, 80, 0
1, 49857, Note_off_c, 1, 92, 0
1, 49857, Note_off_c, 1, 104, 0
1, 49857, Note_off_c, 1, 99, 0
1, 49860, Note_on_c, 1, 50, 127
1, 49860, Note_on_c, 1, 62, 127
1, 49860, Note_on_c, 1, 74, 127
1, 49860, Note_on_c, 1, 69, 127
1, 49861, Note_on_c, 1, 59, 127
1, 49861, Note_on_c, 1, 55, 127
1, 49861, Note_on_c, 1, 71, 127
1, 49861, Note_on_c, 1, 67, 127
1, 49861, Note_on_c, 1, 83, 127
1, 49861, Note_on_c, 1, 79, 127
1, 49861, Note_on_c, 1, 78, 127
1, 49863, Note_on_c, 1, 43, 127
1, 49863, Note_on_c, 1, 31, 127
1, 49863, Note_on_c, 1, 19, 127
1, 49864, Note_on_c, 1, 91, 127
1, 49864, Note_on_c, 1, 103, 127
1, 49864, Note_on_c, 1, 98, 127
1, 49885, Note_off_c, 1, 43, 0
1, 49885, Note_off_c, 1, 31, 0
1, 49885, Note_off_c, 1, 19, 0
1, 49886, Note_off_c, 1, 59, 0
1, 49886, Note_off_c, 1, 71, 0
1, 49886, Note_off_c, 1, 83, 0
1, 49886, Note_off_c, 1, 78, 0
1, 49888, Note_off_c, 1, 50, 0
1, 49888, Note_off_c, 1, 62, 0
1, 49888, Note_off_c, 1, 74, 0
1, 49888, Note_off_c, 1, 69, 0
1, 49888, Note_off_c, 1, 55, 0
1, 49888, Note_off_c, 1, 67, 0
1, 49892, Note_on_c, 1, 77, 127
1, 49892, Note_on_c, 1, 89, 127
1, 49892, Note_on_c, 1, 101, 127
1, 49892, Note_on_c, 1, 96, 127
1, 49897, Note_off_c, 1, 79, 0
1, 49897, Note_off_c, 1, 91, 0
1, 49897, Note_off_c, 1, 103, 0
1, 49897, Note_off_c, 1, 98, 0
1, 49922, Note_off_c, 1, 77, 0
1, 49922, Note_off_c, 1, 89, 0
1, 49922, Note_off_c, 1, 101, 0
1, 49922, Note_off_c, 1, 96, 0
1, 49922, Note_on_c, 1, 48, 127
1, 49924, Note_on_c, 1, 60, 127
1, 49924, Note_on_c, 1, 72, 127
1, 49924, Note_on_c, 1, 84, 127
1, 49926, Note_on_c, 1, 76, 127
1, 49926, Note_on_c, 1, 88, 127
1, 49926, Note_on_c, 1, 100, 127
1, 49926, Note_on_c, 1, 95, 127
1, 49928, Note_on_c, 1, 36, 127
1, 49928, Note_on_c, 1, 24, 127
1, 49928, Note_on_c, 1, 12, 127
1, 49957, Note_on_c, 1, 86, 127
1, 49957, Note_on_c, 1, 93, 127
1, 49986, Note_off_c, 1, 86, 0
1, 49986, Note_off_c, 1, 93, 0
1, 50016, Note_on_c, 1, 70, 127
1, 50016, Note_on_c, 1, 82, 127
1, 50016, Note_on_c, 1, 94, 127
1, 50044, Note_off_c, 1, 76, 0
1, 50044, Note_off_c, 1, 88, 0
1, 50044, Note_off_c, 1, 100, 0
1, 50044, Note_off_c, 1, 95, 0
1, 50044, Note_off_c, 1, 70, 0
1, 50044, Note_off_c, 1, 82, 0
1, 50044, Note_off_c, 1, 94, 0
1, 50045, Note_on_c, 1, 81, 127
1, 50102, Note_on_c, 1, 53, 127
1, 50102, Note_on_c, 1, 65, 127
1, 50132, Note_off_c, 1, 81, 0
1, 50132, Note_on_c, 1, 68, 127
1, 50132, Note_on_c, 1, 80, 127
1, 50132, Note_on_c, 1, 92, 127
1, 50132, Note_on_c, 1, 87, 127
1, 50134, Note_off_c, 1, 84, 0
1, 50154, Note_off_c, 1, 68, 0
1, 50154, Note_off_c, 1, 80, 0
1, 50154, Note_off_c, 1, 92, 0
1, 50154, Note_off_c, 1, 87, 0
1, 50164, Note_off_c, 1, 53, 0
1, 50164, Note_off_c, 1, 65, 0
1, 50412, Note_off_c, 1, 36, 0
1, 50412, Note_off_c, 1, 24, 0
1, 50412, Note_off_c, 1, 12, 0
1, 50435, Note_on_c, 1, 41, 127
1, 50435, Note_on_c, 1, 29, 127
1, 50435, Note_on_c, 1, 17, 127
1, 50880, Note_off_c, 1, 17, 0
1, 50882, Note_off_c, 1, 72, 0
1, 50882, Note_off_c, 1, 41, 0
1, 50882, Note_off_c, 1, 29, 0
1, 50885, Note_off_c, 1, 48, 0
1, 50888, Note_off_c, 1, 60, 0
1, 50888, End_track
0, 0, End_of_file