0, 0, Header, 1, 1, 480
1, 0, Start_track
1, 0, Title_t, "Test"
1, 0, Tempo, 500000
1, 0, Instrument_name_t, "Church Organ"
1, 2643, Note_on_c, 1, 69, 127
1, 2809, Note_on_c, 1, 71, 127
1, 2841, Note_off_c, 1, 69, 0
1, 2937, Note_off_c, 1, 71, 0
1, 2995, Note_on_c, 1, 33, 127
1, 2995, Note_on_c, 1, 45, 127
1, 3027, Note_on_c, 1, 73, 127
1, 3167, Note_off_c, 1, 73, 0
1, 3187, Note_on_c, 1, 71, 127
1, 3366, Note_on_c, 1, 69, 127
1, 3379, Note_off_c, 1, 71, 0
1, 3513, Note_off_c, 1, 69, 0
1, 3712, Note_on_c, 1, 74, 127
1, 3776, Note_on_c, 1, 35, 127
1, 3776, Note_on_c, 1, 47, 127
1, 3781, Note_off_c, 1, 33, 0
1, 3781, Note_off_c, 1, 45, 0
1, 3942, Note_off_c, 1, 74, 0
1, 4505, Note_on_c, 1, 76, 127
1, 4511, Note_off_c, 1, 35, 0
1, 4511, Note_off_c, 1, 47, 0
1, 4582, Note_on_c, 1, 37, 127
1, 4582, Note_on_c, 1, 49, 127
1, 4773, Note_off_c, 1, 76, 0
1, 5420, Note_off_c, 1, 37, 0
1, 5420, Note_off_c, 1, 49, 0
1, 5670, Note_on_c, 1, 64, 127
1, 5964, Note_off_c, 1, 64, 0
1, 6060, Note_on_c, 1, 66, 127
1, 6092, Note_on_c, 1, 38, 127
1, 6092, Note_on_c, 1, 50, 127
1, 6264, Note_off_c, 1, 66, 0
1, 6835, Note_on_c, 1, 68, 127
1, 6872, Note_off_c, 1, 38, 0
1, 6872, Note_off_c, 1, 50, 0
1, 6873, Note_on_c, 1, 40, 127
1, 6873, Note_on_c, 1, 52, 127
1, 7027, Note_off_c, 1, 68, 0
1, 7564, Note_off_c, 1, 40, 0
1, 7564, Note_off_c, 1, 52, 0
1, 7628, Note_on_c, 1, 42, 127
1, 7628, Note_on_c, 1, 54, 127
1, 8460, Note_off_c, 1, 42, 0
1, 8460, Note_off_c, 1, 54, 0
1, 9888, Note_on_c, 1, 78, 127
1, 10092, Note_off_c, 1, 78, 0
1, 10329, Note_on_c, 1, 28, 127
1, 10508, Note_off_c, 1, 28, 0
1, 10681, Note_on_c, 1, 69, 127
1, 10688, Note_on_c, 1, 73, 127
1, 10726, Note_on_c, 1, 33, 127
1, 10726, Note_on_c, 1, 45, 127
1, 10879, Note_off_c, 1, 33, 0
1, 10879, Note_off_c, 1, 45, 0
1, 10880, Note_on_c, 1, 71, 127
1, 10886, Note_off_c, 1, 73, 0
1, 11084, Note_off_c, 1, 71, 0
1, 11123, Note_on_c, 1, 57, 127
1, 11276, Note_off_c, 1, 57, 0
1, 11442, Note_off_c, 1, 69, 0
1, 11456, Note_on_c, 1, 73, 127
1, 11532, Note_on_c, 1, 44, 127
1, 11532, Note_on_c, 1, 56, 127
1, 11648, Note_off_c, 1, 73, 0
1, 11648, Note_on_c, 1, 75, 127
1, 11846, Note_on_c, 1, 64, 127
1, 11852, Note_on_c, 1, 76, 127
1, 11872, Note_off_c, 1, 75, 0
1, 11980, Note_off_c, 1, 76, 0
1, 12037, Note_off_c, 1, 44, 0
1, 12037, Note_off_c, 1, 56, 0
1, 12038, Note_on_c, 1, 66, 127
1, 12070, Note_off_c, 1, 64, 0
1, 12121, Note_on_c, 1, 42, 127
1, 12121, Note_on_c, 1, 54, 127
1, 12153, Note_off_c, 1, 66, 0
1, 12204, Note_off_c, 1, 42, 0
1, 12204, Note_off_c, 1, 54, 0
1, 12236, Note_on_c, 1, 68, 127
1, 12243, Note_on_c, 1, 76, 127
1, 12300, Note_on_c, 1, 40, 127
1, 12300, Note_on_c, 1, 52, 127
1, 12440, Note_off_c, 1, 68, 0
1, 12441, Note_on_c, 1, 66, 127
1, 12614, Note_on_c, 1, 64, 127
1, 12626, Note_off_c, 1, 66, 0
1, 12742, Note_off_c, 1, 64, 0
1, 13004, Note_off_c, 1, 76, 0
1, 13004, Note_on_c, 1, 69, 127
1, 13010, Note_off_c, 1, 40, 0
1, 13010, Note_off_c, 1, 52, 0
1, 13068, Note_on_c, 1, 42, 127
1, 13068, Note_on_c, 1, 54, 127
1, 13247, Note_off_c, 1, 69, 0
1, 13733, Note_off_c, 1, 42, 0
1, 13733, Note_off_c, 1, 54, 0
1, 13772, Note_on_c, 1, 71, 127
1, 13824, Note_on_c, 1, 44, 127
1, 13824, Note_on_c, 1, 56, 127
1, 13996, Note_off_c, 1, 71, 0
1, 14630, Note_off_c, 1, 44, 0
1, 14630, Note_off_c, 1, 56, 0
1, 15251, Note_on_c, 1, 73, 127
1, 15321, Note_on_c, 1, 45, 127
1, 15321, Note_on_c, 1, 57, 127
1, 15462, Note_off_c, 1, 73, 0
1, 15993, Note_off_c, 1, 45, 0
1, 15993, Note_off_c, 1, 57, 0
1, 16006, Note_on_c, 1, 75, 127
1, 16025, Note_on_c, 1, 69, 127
1, 16076, Note_on_c, 1, 68, 127
1, 16082, Note_off_c, 1, 69, 0
1, 16089, Note_on_c, 1, 47, 127
1, 16089, Note_on_c, 1, 59, 127
1, 16146, Note_off_c, 1, 68, 0
1, 16198, Note_off_c, 1, 75, 0
1, 16217, Note_on_c, 1, 73, 127
1, 16389, Note_off_c, 1, 73, 0
1, 16576, Note_on_c, 1, 78, 127
1, 16633, Note_off_c, 1, 47, 0
1, 16633, Note_off_c, 1, 59, 0
1, 16697, Note_off_c, 1, 78, 0
1, 16819, Note_on_c, 1, 76, 127
1, 16832, Note_on_c, 1, 49, 127
1, 16832, Note_on_c, 1, 61, 127
1, 16863, Note_off_c, 1, 76, 0
1, 16992, Note_on_c, 1, 71, 127
1, 17190, Note_off_c, 1, 71, 0
1, 17350, Note_on_c, 1, 66, 127
1, 17465, Note_off_c, 1, 66, 0
1, 17702, Note_off_c, 1, 49, 0
1, 17702, Note_off_c, 1, 61, 0
1, 18124, Note_on_c, 1, 64, 127
1, 18355, Note_on_c, 1, 45, 127
1, 18355, Note_on_c, 1, 57, 127
1, 18373, Note_off_c, 1, 64, 0
1, 18752, Note_on_c, 1, 42, 127
1, 18752, Note_on_c, 1, 54, 127
1, 18758, Note_off_c, 1, 45, 0
1, 18758, Note_off_c, 1, 57, 0
1, 19052, Note_off_c, 1, 42, 0
1, 19052, Note_off_c, 1, 54, 0
1, 19488, Note_on_c, 1, 35, 127
1, 19596, Note_off_c, 1, 35, 0
1, 19955, Note_on_c, 1, 28, 127
1, 19955, Note_on_c, 1, 40, 127
1, 20217, Note_off_c, 1, 28, 0
1, 20217, Note_off_c, 1, 40, 0
1, 20326, Note_on_c, 1, 52, 127
1, 20575, Note_off_c, 1, 52, 0
1, 20697, Note_on_c, 1, 39, 127
1, 20697, Note_on_c, 1, 51, 127
1, 20851, Note_on_c, 1, 70, 127
1, 21055, Note_off_c, 1, 70, 0
1, 21138, Note_off_c, 1, 39, 0
1, 21138, Note_off_c, 1, 51, 0
1, 21235, Note_on_c, 1, 70, 127
1, 21273, Note_on_c, 1, 37, 127
1, 21273, Note_on_c, 1, 49, 127
1, 21318, Note_off_c, 1, 70, 0
1, 21343, Note_off_c, 1, 37, 0
1, 21343, Note_off_c, 1, 49, 0
1, 21420, Note_on_c, 1, 71, 127
1, 21452, Note_on_c, 1, 35, 127
1, 21452, Note_on_c, 1, 47, 127
1, 21459, Note_on_c, 1, 74, 127
1, 21619, Note_off_c, 1, 74, 0
1, 21632, Note_on_c, 1, 73, 127
1, 21817, Note_off_c, 1, 73, 0
1, 21996, Note_on_c, 1, 78, 127
1, 22124, Note_off_c, 1, 78, 0
1, 22149, Note_off_c, 1, 71, 0
1, 22181, Note_off_c, 1, 35, 0
1, 22181, Note_off_c, 1, 47, 0
1, 22214, Note_on_c, 1, 76, 127
1, 22233, Note_on_c, 1, 37, 127
1, 22233, Note_on_c, 1, 49, 127
1, 22412, Note_on_c, 1, 74, 127
1, 22425, Note_off_c, 1, 76, 0
1, 22572, Note_off_c, 1, 74, 0
1, 22585, Note_on_c, 1, 71, 127
1, 22752, Note_on_c, 1, 79, 127
1, 22828, Note_off_c, 1, 79, 0
1, 22905, Note_off_c, 1, 37, 0
1, 22905, Note_off_c, 1, 49, 0
1, 22963, Note_on_c, 1, 78, 127
1, 22963, Note_on_c, 1, 69, 127
1, 22981, Note_off_c, 1, 71, 0
1, 23014, Note_on_c, 1, 39, 127
1, 23014, Note_on_c, 1, 51, 127
1, 23148, Note_on_c, 1, 68, 127
1, 23167, Note_off_c, 1, 69, 0
1, 23353, Note_on_c, 1, 66, 127
1, 23359, Note_off_c, 1, 68, 0
1, 23545, Note_off_c, 1, 66, 0
1, 23711, Note_off_c, 1, 78, 0
1, 23743, Note_off_c, 1, 39, 0
1, 23743, Note_off_c, 1, 51, 0
1, 23744, Note_on_c, 1, 69, 127
1, 23929, Note_on_c, 1, 71, 127
1, 23936, Note_off_c, 1, 69, 0
1, 24050, Note_off_c, 1, 71, 0
1, 24096, Note_on_c, 1, 78, 127
1, 24115, Note_on_c, 1, 73, 127
1, 24140, Note_on_c, 1, 26, 127
1, 24140, Note_on_c, 1, 38, 127
1, 24204, Note_off_c, 1, 78, 0
1, 24236, Note_off_c, 1, 73, 0
1, 24300, Note_on_c, 1, 71, 127
1, 24344, Note_off_c, 1, 26, 0
1, 24344, Note_off_c, 1, 38, 0
1, 24376, Note_off_c, 1, 71, 0
1, 24480, Note_on_c, 1, 76, 127
1, 24486, Note_on_c, 1, 73, 127
1, 24524, Note_on_c, 1, 33, 127
1, 24524, Note_on_c, 1, 45, 127
1, 24632, Note_off_c, 1, 33, 0
1, 24632, Note_off_c, 1, 45, 0
1, 24672, Note_on_c, 1, 74, 127
1, 24678, Note_off_c, 1, 76, 0
1, 24864, Note_off_c, 1, 74, 0
1, 24889, Note_off_c, 1, 73, 0
1, 24896, Note_on_c, 1, 57, 127
1, 25043, Note_off_c, 1, 57, 0
1, 25062, Note_on_c, 1, 80, 127
1, 25145, Note_off_c, 1, 80, 0
1, 25254, Note_on_c, 1, 78, 127
1, 25292, Note_on_c, 1, 39, 127
1, 25292, Note_on_c, 1, 51, 127
1, 25446, Note_on_c, 1, 76, 127
1, 25452, Note_off_c, 1, 78, 0
1, 25464, Note_off_c, 1, 39, 0
1, 25464, Note_off_c, 1, 51, 0
1, 25644, Note_on_c, 1, 75, 127
1, 25670, Note_off_c, 1, 76, 0
1, 25676, Note_on_c, 1, 35, 127
1, 25676, Note_on_c, 1, 47, 127
1, 25810, Note_off_c, 1, 75, 0
1, 25823, Note_off_c, 1, 35, 0
1, 25823, Note_off_c, 1, 47, 0
1, 25824, Note_on_c, 1, 81, 127
1, 25907, Note_off_c, 1, 81, 0
1, 26022, Note_on_c, 1, 80, 127
1, 26022, Note_on_c, 1, 76, 127
1, 26073, Note_on_c, 1, 40, 127
1, 26073, Note_on_c, 1, 52, 127
1, 26227, Note_on_c, 1, 78, 127
1, 26239, Note_off_c, 1, 76, 0
1, 26329, Note_off_c, 1, 40, 0
1, 26329, Note_off_c, 1, 52, 0
1, 26367, Note_off_c, 1, 80, 0
1, 26406, Note_off_c, 1, 78, 0
1, 26457, Note_on_c, 1, 37, 127
1, 26457, Note_on_c, 1, 49, 127
1, 26592, Note_on_c, 1, 74, 127
1, 26642, Note_off_c, 1, 37, 0
1, 26642, Note_off_c, 1, 49, 0
1, 26771, Note_on_c, 1, 81, 127
1, 26777, Note_off_c, 1, 74, 0
1, 26784, Note_on_c, 1, 73, 127
1, 26867, Note_on_c, 1, 42, 127
1, 26867, Note_on_c, 1, 54, 127
1, 26969, Note_on_c, 1, 71, 127
1, 26976, Note_off_c, 1, 73, 0
1, 27148, Note_off_c, 1, 81, 0
1, 27168, Note_on_c, 1, 69, 127
1, 27173, Note_off_c, 1, 71, 0
1, 27231, Note_off_c, 1, 42, 0
1, 27231, Note_off_c, 1, 54, 0
1, 27347, Note_on_c, 1, 68, 127
1, 27360, Note_off_c, 1, 69, 0
1, 27475, Note_off_c, 1, 68, 0
1, 27571, Note_on_c, 1, 71, 127
1, 27577, Note_on_c, 1, 66, 127
1, 27635, Note_on_c, 1, 38, 127
1, 27635, Note_on_c, 1, 50, 127
1, 27743, Note_off_c, 1, 66, 0
1, 27750, Note_on_c, 1, 64, 127
1, 27891, Note_off_c, 1, 38, 0
1, 27891, Note_off_c, 1, 50, 0
1, 27942, Note_off_c, 1, 71, 0
1, 27948, Note_on_c, 1, 81, 127
1, 27948, Note_on_c, 1, 62, 127
1, 27954, Note_off_c, 1, 64, 0
1, 28019, Note_on_c, 1, 35, 127
1, 28019, Note_on_c, 1, 47, 127
1, 28134, Note_on_c, 1, 61, 127
1, 28140, Note_off_c, 1, 62, 0
1, 28185, Note_off_c, 1, 35, 0
1, 28185, Note_off_c, 1, 47, 0
1, 28345, Note_off_c, 1, 61, 0
1, 28352, Note_on_c, 1, 59, 127
1, 28364, Note_off_c, 1, 81, 0
1, 28364, Note_on_c, 1, 76, 127
1, 28390, Note_on_c, 1, 40, 127
1, 28390, Note_on_c, 1, 52, 127
1, 28562, Note_off_c, 1, 40, 0
1, 28562, Note_off_c, 1, 52, 0
1, 28595, Note_off_c, 1, 59, 0
1, 28684, Note_off_c, 1, 76, 0
1, 28716, Note_on_c, 1, 80, 127
1, 28774, Note_on_c, 1, 28, 127
1, 28888, Note_off_c, 1, 80, 0
1, 28946, Note_off_c, 1, 28, 0
1, 29171, Note_on_c, 1, 33, 127
1, 29171, Note_on_c, 1, 45, 127
1, 29632, Note_on_c, 1, 57, 127
1, 29689, Note_off_c, 1, 57, 0
1, 29849, Note_on_c, 1, 69, 127
1, 29900, Note_on_c, 1, 68, 127
1, 29919, Note_off_c, 1, 69, 0
1, 29970, Note_off_c, 1, 68, 0
1, 30022, Note_off_c, 1, 33, 0
1, 30022, Note_off_c, 1, 45, 0
1, 30323, Note_on_c, 1, 73, 127
1, 30489, Note_on_c, 1, 74, 127
1, 30495, Note_off_c, 1, 73, 0
1, 30668, Note_off_c, 1, 74, 0
1, 30681, Note_on_c, 1, 37, 127
1, 30681, Note_on_c, 1, 49, 127
1, 30949, Note_off_c, 1, 37, 0
1, 30949, Note_off_c, 1, 49, 0
1, 31238, Note_on_c, 1, 79, 127
1, 31321, Note_off_c, 1, 79, 0
1, 31424, Note_on_c, 1, 78, 127
1, 31609, Note_off_c, 1, 78, 0
1, 36000, Note_on_c, 1, 67, 127
1, 36179, Note_off_c, 1, 67, 0
1, 38336, Note_on_c, 1, 62, 127
1, 38336, Note_on_c, 1, 69, 127
1, 38387, Note_on_c, 1, 33, 127
1, 38387, Note_on_c, 1, 45, 127
1, 38528, Note_on_c, 1, 61, 127
1, 38553, Note_off_c, 1, 62, 0
1, 38713, Note_off_c, 1, 61, 0
1, 38713, Note_on_c, 1, 59, 127
1, 38899, Note_on_c, 1, 57, 127
1, 38911, Note_off_c, 1, 59, 0
1, 39059, Note_off_c, 1, 57, 0
1, 39091, Note_off_c, 1, 69, 0
1, 39161, Note_off_c, 1, 33, 0
1, 39161, Note_off_c, 1, 45, 0
1, 39168, Note_on_c, 1, 73, 127
1, 39545, Note_on_c, 1, 61, 127
1, 39545, Note_on_c, 1, 33, 127
1, 39545, Note_on_c, 1, 45, 127
1, 39653, Note_off_c, 1, 61, 0
1, 39653, Note_off_c, 1, 33, 0
1, 39653, Note_off_c, 1, 45, 0
1, 39859, Note_on_c, 1, 35, 127
1, 39859, Note_on_c, 1, 47, 127
1, 39929, Note_on_c, 1, 63, 127
1, 40095, Note_off_c, 1, 63, 0
1, 40198, Note_off_c, 1, 73, 0
1, 40228, Note_on_c, 1, 71, 127
1, 40441, Note_on_c, 1, 66, 127
1, 40479, Note_off_c, 1, 71, 0
1, 40582, Note_off_c, 1, 35, 0
1, 40582, Note_off_c, 1, 47, 0
1, 40613, Note_off_c, 1, 66, 0
1, 40640, Note_on_c, 1, 65, 127
1, 40640, Note_on_c, 1, 37, 127
1, 40640, Note_on_c, 1, 49, 127
1, 40661, Note_on_c, 1, 69, 127
1, 40778, Note_off_c, 1, 69, 0
1, 40793, Note_off_c, 1, 65, 0
1, 41152, Note_on_c, 1, 68, 127
1, 41273, Note_off_c, 1, 37, 0
1, 41273, Note_off_c, 1, 49, 0
1, 41344, Note_off_c, 1, 68, 0
1, 41408, Note_on_c, 1, 30, 127
1, 41408, Note_on_c, 1, 42, 127
1, 41728, Note_on_c, 1, 78, 127
1, 41849, Note_off_c, 1, 78, 0
1, 41920, Note_on_c, 1, 77, 127
1, 42028, Note_off_c, 1, 77, 0
1, 42182, Note_off_c, 1, 30, 0
1, 42182, Note_off_c, 1, 42, 0
1, 42560, Note_on_c, 1, 38, 127
1, 42560, Note_on_c, 1, 50, 127
1, 42720, Note_off_c, 1, 38, 0
1, 42720, Note_off_c, 1, 50, 0
1, 42931, Note_on_c, 1, 40, 127
1, 42931, Note_on_c, 1, 52, 127
1, 43283, Note_on_c, 1, 76, 127
1, 43404, Note_off_c, 1, 76, 0
1, 43622, Note_off_c, 1, 40, 0
1, 43622, Note_off_c, 1, 52, 0
1, 43724, Note_on_c, 1, 54, 127
1, 43731, Note_on_c, 1, 75, 127
1, 43734, Note_on_c, 1, 70, 127
1, 43795, Note_off_c, 1, 75, 0
1, 43910, Note_off_c, 1, 70, 0
1, 44402, Note_off_c, 1, 54, 0
1, 44812, Note_on_c, 1, 83, 127
1, 44933, Note_off_c, 1, 83, 0
1, 44998, Note_on_c, 1, 82, 127
1, 45119, Note_off_c, 1, 82, 0
1, 45190, Note_on_c, 1, 74, 127
1, 45369, Note_off_c, 1, 74, 0
1, 45632, Note_on_c, 1, 44, 127
1, 45632, Note_on_c, 1, 56, 127
1, 45792, Note_off_c, 1, 44, 0
1, 45792, Note_off_c, 1, 56, 0
1, 46016, Note_on_c, 1, 57, 127
1, 46387, Note_on_c, 1, 81, 127
1, 46527, Note_off_c, 1, 81, 0
1, 46809, Note_on_c, 1, 59, 127
1, 46816, Note_off_c, 1, 57, 0
1, 46822, Note_on_c, 1, 80, 127
1, 46879, Note_off_c, 1, 80, 0
1, 47641, Note_off_c, 1, 59, 0
1, 53881, Note_on_c, 1, 64, 127
1, 54111, Note_off_c, 1, 64, 0
1, 57504, Note_on_c, 1, 62, 127
1, 57721, Note_off_c, 1, 62, 0
1, 62086, Note_on_c, 1, 72, 127
1, 62278, Note_off_c, 1, 72, 0
1, 65952, Note_on_c, 1, 66, 127
1, 65996, Note_on_c, 1, 30, 127
1, 65996, Note_on_c, 1, 42, 127
1, 66176, Note_on_c, 1, 73, 127
1, 66304, Note_off_c, 1, 66, 0
1, 66316, Note_on_c, 1, 54, 127
1, 66355, Note_on_c, 1, 71, 127
1, 66361, Note_off_c, 1, 73, 0
1, 66399, Note_off_c, 1, 54, 0
1, 66534, Note_on_c, 1, 68, 127
1, 66540, Note_off_c, 1, 71, 0
1, 66720, Note_on_c, 1, 69, 127
1, 66726, Note_off_c, 1, 68, 0
1, 66726, Note_on_c, 1, 78, 127
1, 66784, Note_on_c, 1, 76, 127
1, 66796, Note_off_c, 1, 78, 0
1, 66821, Note_off_c, 1, 30, 0
1, 66821, Note_off_c, 1, 42, 0
1, 66873, Note_off_c, 1, 76, 0
1, 66931, Note_off_c, 1, 69, 0
1, 67161, Note_on_c, 1, 39, 127
1, 67161, Note_on_c, 1, 51, 127
1, 67340, Note_off_c, 1, 39, 0
1, 67340, Note_off_c, 1, 51, 0
1, 67558, Note_on_c, 1, 40, 127
1, 67558, Note_on_c, 1, 52, 127
1, 68256, Note_on_c, 1, 70, 127
1, 68300, Note_off_c, 1, 40, 0
1, 68300, Note_off_c, 1, 52, 0
1, 68467, Note_off_c, 1, 70, 0
1, 69094, Note_on_c, 1, 35, 127
1, 69094, Note_on_c, 1, 47, 127
1, 69382, Note_on_c, 1, 59, 127
1, 69478, Note_off_c, 1, 59, 0
1, 69779, Note_on_c, 1, 83, 127
1, 69811, Note_on_c, 1, 81, 127
1, 69849, Note_off_c, 1, 83, 0
1, 69873, Note_on_c, 1, 74, 127
1, 69894, Note_off_c, 1, 81, 0
1, 69900, Note_off_c, 1, 35, 0
1, 69900, Note_off_c, 1, 47, 0
1, 70064, Note_off_c, 1, 74, 0
1, 70195, Note_on_c, 1, 32, 127
1, 70195, Note_on_c, 1, 44, 127
1, 70335, Note_off_c, 1, 32, 0
1, 70335, Note_off_c, 1, 44, 0
1, 70592, Note_on_c, 1, 33, 127
1, 70592, Note_on_c, 1, 45, 127
1, 71332, Note_on_c, 1, 75, 127
1, 71392, Note_off_c, 1, 33, 0
1, 71392, Note_off_c, 1, 45, 0
1, 71500, Note_off_c, 1, 75, 0
1, 72140, Note_on_c, 1, 28, 127
1, 72876, Note_off_c, 1, 28, 0
1, 72908, Note_on_c, 1, 80, 127
1, 73100, Note_off_c, 1, 80, 0
1, 73254, Note_on_c, 1, 37, 127
1, 73254, Note_on_c, 1, 49, 127
1, 73478, Note_off_c, 1, 37, 0
1, 73478, Note_off_c, 1, 49, 0
1, 73625, Note_on_c, 1, 38, 127
1, 73625, Note_on_c, 1, 50, 127
1, 74437, Note_off_c, 1, 38, 0
1, 74437, Note_off_c, 1, 50, 0
1, 77856, Note_on_c, 1, 74, 127
1, 77862, Note_on_c, 1, 80, 127
1, 77862, Note_on_c, 1, 28, 127
1, 77862, Note_on_c, 1, 40, 127
1, 77907, Note_on_c, 1, 81, 127
1, 77932, Note_off_c, 1, 81, 0
1, 78028, Note_on_c, 1, 76, 127
1, 78047, Note_off_c, 1, 74, 0
1, 78086, Note_off_c, 1, 28, 0
1, 78086, Note_off_c, 1, 40, 0
1, 78220, Note_on_c, 1, 73, 127
1, 78226, Note_off_c, 1, 76, 0
1, 78239, Note_off_c, 1, 80, 0
1, 78272, Note_on_c, 1, 33, 127
1, 78272, Note_on_c, 1, 45, 127
1, 78418, Note_off_c, 1, 73, 0
1, 78419, Note_on_c, 1, 71, 127
1, 78604, Note_on_c, 1, 69, 127
1, 78611, Note_off_c, 1, 71, 0
1, 78643, Note_on_c, 1, 31, 127
1, 78643, Note_on_c, 1, 43, 127
1, 78694, Note_off_c, 1, 33, 0
1, 78694, Note_off_c, 1, 45, 0
1, 78764, Note_off_c, 1, 69, 0
1, 78943, Note_off_c, 1, 31, 0
1, 78943, Note_off_c, 1, 43, 0
1, 79040, Note_on_c, 1, 30, 127
1, 79040, Note_on_c, 1, 42, 127
1, 79180, Note_off_c, 1, 30, 0
1, 79180, Note_off_c, 1, 42, 0
1, 79788, Note_on_c, 1, 78, 127
1, 79820, Note_on_c, 1, 26, 127
1, 79820, Note_on_c, 1, 38, 127
1, 79967, Note_off_c, 1, 78, 0
1, 79974, Note_on_c, 1, 76, 127
1, 80166, Note_on_c, 1, 74, 127
1, 80172, Note_off_c, 1, 76, 0
1, 80377, Note_off_c, 1, 74, 0
1, 80543, Note_off_c, 1, 26, 0
1, 80543, Note_off_c, 1, 38, 0
1, 80550, Note_on_c, 1, 79, 127
1, 80601, Note_on_c, 1, 28, 127
1, 80601, Note_on_c, 1, 40, 127
1, 80780, Note_off_c, 1, 79, 0
1, 81305, Note_on_c, 1, 81, 127
1, 81356, Note_on_c, 1, 30, 127
1, 81356, Note_on_c, 1, 42, 127
1, 81362, Note_off_c, 1, 28, 0
1, 81362, Note_off_c, 1, 40, 0
1, 81522, Note_off_c, 1, 81, 0
1, 82149, Note_off_c, 1, 30, 0
1, 82149, Note_off_c, 1, 42, 0
1, 82470, Note_on_c, 1, 69, 127
1, 82508, Note_on_c, 1, 54, 127
1, 82680, Note_off_c, 1, 54, 0
1, 82706, Note_off_c, 1, 69, 0
1, 82835, Note_on_c, 1, 71, 127
1, 82931, Note_on_c, 1, 43, 127
1, 82931, Note_on_c, 1, 55, 127
1, 83065, Note_off_c, 1, 71, 0
1, 83622, Note_on_c, 1, 73, 127
1, 83667, Note_off_c, 1, 43, 0
1, 83667, Note_off_c, 1, 55, 0
1, 83673, Note_on_c, 1, 45, 127
1, 83673, Note_on_c, 1, 57, 127
1, 83814, Note_off_c, 1, 73, 0
1, 84403, Note_on_c, 1, 47, 127
1, 84403, Note_on_c, 1, 59, 127
1, 84428, Note_off_c, 1, 45, 0
1, 84428, Note_off_c, 1, 57, 0
1, 85177, Note_off_c, 1, 47, 0
1, 85177, Note_off_c, 1, 59, 0
1, 86284, Note_on_c, 1, 52, 127
1, 86687, Note_off_c, 1, 52, 0
1, 87065, Note_on_c, 1, 50, 127
1, 87276, Note_off_c, 1, 50, 0
1, 87859, Note_on_c, 1, 33, 127
1, 88083, Note_off_c, 1, 33, 0
1, 89600, Note_on_c, 1, 84, 127
1, 89785, Note_off_c, 1, 84, 0
1, 89792, Note_on_c, 1, 83, 127
1, 90003, Note_off_c, 1, 83, 0
1, 91513, Note_on_c, 1, 68, 127
1, 91705, Note_off_c, 1, 68, 0
1, 94355, Note_on_c, 1, 72, 127
1, 94559, Note_off_c, 1, 72, 0
1, 95507, Note_on_c, 1, 67, 127
1, 95686, Note_off_c, 1, 67, 0
1, 95686, Note_on_c, 1, 66, 127
1, 95865, Note_off_c, 1, 66, 0
1, 95878, Note_on_c, 1, 64, 127
1, 96095, Note_off_c, 1, 64, 0
1, 97100, Note_on_c, 1, 62, 127
1, 97420, Note_off_c, 1, 62, 0
1, 97484, Note_on_c, 1, 49, 127
1, 97484, Note_on_c, 1, 61, 127
1, 97848, Note_off_c, 1, 49, 0
1, 97848, Note_off_c, 1, 61, 0
1, 98988, Note_on_c, 1, 61, 127
1, 99020, Note_on_c, 1, 31, 127
1, 99020, Note_on_c, 1, 43, 127
1, 99167, Note_off_c, 1, 61, 0
1, 99168, Note_on_c, 1, 63, 127
1, 99308, Note_off_c, 1, 63, 0
1, 99366, Note_on_c, 1, 64, 127
1, 99378, Note_off_c, 1, 31, 0
1, 99378, Note_off_c, 1, 43, 0
1, 99379, Note_on_c, 1, 69, 127
1, 99392, Note_on_c, 1, 30, 127
1, 99392, Note_on_c, 1, 42, 127
1, 99455, Note_off_c, 1, 64, 0
1, 99590, Note_off_c, 1, 69, 0
1, 99622, Note_off_c, 1, 30, 0
1, 99622, Note_off_c, 1, 42, 0
1, 99763, Note_on_c, 1, 67, 127
1, 99763, Note_on_c, 1, 64, 127
1, 99776, Note_on_c, 1, 28, 127
1, 99776, Note_on_c, 1, 40, 127
1, 99936, Note_off_c, 1, 28, 0
1, 99936, Note_off_c, 1, 40, 0
1, 99961, Note_on_c, 1, 66, 127
1, 99967, Note_off_c, 1, 67, 0
1, 100165, Note_off_c, 1, 66, 0
1, 100185, Note_on_c, 1, 52, 127
1, 100345, Note_off_c, 1, 64, 0
1, 100524, Note_on_c, 1, 68, 127
1, 100543, Note_off_c, 1, 52, 0
1, 100556, Note_on_c, 1, 38, 127
1, 100556, Note_on_c, 1, 50, 127
1, 100722, Note_off_c, 1, 68, 0
1, 100723, Note_on_c, 1, 70, 127
1, 100748, Note_off_c, 1, 38, 0
1, 100748, Note_off_c, 1, 50, 0
1, 100915, Note_off_c, 1, 70, 0
1, 100915, Note_on_c, 1, 71, 127
1, 100928, Note_on_c, 1, 37, 127
1, 100928, Note_on_c, 1, 49, 127
1, 101055, Note_off_c, 1, 71, 0
1, 101062, Note_off_c, 1, 37, 0
1, 101062, Note_off_c, 1, 49, 0
1, 101292, Note_on_c, 1, 62, 127
1, 101305, Note_on_c, 1, 71, 127
1, 101324, Note_on_c, 1, 35, 127
1, 101324, Note_on_c, 1, 47, 127
1, 101490, Note_off_c, 1, 62, 0
1, 101491, Note_on_c, 1, 61, 127
1, 101676, Note_off_c, 1, 61, 0
1, 101810, Note_off_c, 1, 71, 0
1, 101862, Note_on_c, 1, 66, 127
1, 102041, Note_off_c, 1, 66, 0
1, 102060, Note_on_c, 1, 64, 127
1, 102092, Note_off_c, 1, 35, 0
1, 102092, Note_off_c, 1, 47, 0
1, 102092, Note_on_c, 1, 37, 127
1, 102092, Note_on_c, 1, 49, 127
1, 102258, Note_off_c, 1, 64, 0
1, 102464, Note_on_c, 1, 76, 127
1, 102611, Note_on_c, 1, 67, 127
1, 102675, Note_off_c, 1, 76, 0
1, 102757, Note_off_c, 1, 37, 0
1, 102757, Note_off_c, 1, 49, 0
1, 102796, Note_off_c, 1, 67, 0
1, 102803, Note_on_c, 1, 66, 127
1, 102809, Note_on_c, 1, 69, 127
1, 102835, Note_on_c, 1, 38, 127
1, 102835, Note_on_c, 1, 50, 127
1, 102995, Note_off_c, 1, 66, 0
1, 103001, Note_on_c, 1, 64, 127
1, 103020, Note_off_c, 1, 69, 0
1, 103020, Note_on_c, 1, 68, 127
1, 103205, Note_off_c, 1, 68, 0
1, 103237, Note_off_c, 1, 64, 0
1, 103385, Note_on_c, 1, 73, 127
1, 103519, Note_off_c, 1, 73, 0
1, 103584, Note_on_c, 1, 71, 127
1, 103673, Note_off_c, 1, 38, 0
1, 103673, Note_off_c, 1, 50, 0
1, 103769, Note_off_c, 1, 71, 0
1, 104000, Note_on_c, 1, 35, 127
1, 104000, Note_on_c, 1, 47, 127
1, 104134, Note_on_c, 1, 74, 127
1, 104185, Note_off_c, 1, 35, 0
1, 104185, Note_off_c, 1, 47, 0
1, 104236, Note_off_c, 1, 74, 0
1, 104352, Note_on_c, 1, 73, 127
1, 104352, Note_on_c, 1, 69, 127
1, 104409, Note_on_c, 1, 42, 127
1, 104409, Note_on_c, 1, 54, 127
1, 104544, Note_off_c, 1, 73, 0
1, 104544, Note_on_c, 1, 71, 127
1, 104742, Note_off_c, 1, 71, 0
1, 104819, Note_on_c, 1, 40, 127
1, 104819, Note_on_c, 1, 52, 127
1, 104850, Note_off_c, 1, 42, 0
1, 104850, Note_off_c, 1, 54, 0
1, 104921, Note_on_c, 1, 76, 127
1, 105138, Note_off_c, 1, 76, 0
1, 105215, Note_off_c, 1, 40, 0
1, 105215, Note_off_c, 1, 52, 0
1, 105344, Note_on_c, 1, 68, 127
1, 105536, Note_off_c, 1, 68, 0
1, 105600, Note_on_c, 1, 37, 127
1, 105600, Note_on_c, 1, 49, 127
1, 105760, Note_off_c, 1, 37, 0
1, 105760, Note_off_c, 1, 49, 0
1, 105920, Note_on_c, 1, 66, 127
1, 105971, Note_on_c, 1, 38, 127
1, 105971, Note_on_c, 1, 50, 127
1, 106124, Note_off_c, 1, 66, 0
1, 106310, Note_on_c, 1, 62, 127
1, 106342, Note_on_c, 1, 35, 127
1, 106342, Note_on_c, 1, 47, 127
1, 106361, Note_off_c, 1, 38, 0
1, 106361, Note_off_c, 1, 50, 0
1, 106482, Note_off_c, 1, 62, 0
1, 106681, Note_off_c, 1, 35, 0
1, 106681, Note_off_c, 1, 47, 0
1, 106681, Note_on_c, 1, 59, 127
1, 106739, Note_off_c, 1, 69, 0
1, 106873, Note_off_c, 1, 59, 0
1, 107052, Note_on_c, 1, 64, 127
1, 107059, Note_on_c, 1, 28, 127
1, 107199, Note_off_c, 1, 28, 0
1, 107250, Note_off_c, 1, 64, 0
1, 107424, Note_on_c, 1, 69, 127
1, 107430, Note_on_c, 1, 61, 127
1, 107481, Note_on_c, 1, 33, 127
1, 107481, Note_on_c, 1, 45, 127
1, 107635, Note_on_c, 1, 64, 127
1, 107641, Note_off_c, 1, 61, 0
1, 107807, Note_off_c, 1, 64, 0
1, 107814, Note_off_c, 1, 69, 0
1, 107814, Note_on_c, 1, 57, 127
1, 107999, Note_off_c, 1, 57, 0
1, 108236, Note_off_c, 1, 33, 0
1, 108236, Note_off_c, 1, 45, 0
1, 108935, Note_on_c, 1, 64, 127
1, 108953, Note_on_c, 1, 69, 127
1, 109123, Note_off_c, 1, 64, 0
1, 109139, Note_on_c, 1, 73, 127
1, 109326, Note_off_c, 1, 69, 0
1, 109328, Note_on_c, 1, 61, 127
1, 109331, Note_off_c, 1, 73, 0
1, 109525, Note_off_c, 1, 61, 0
1, 109705, Note_on_c, 1, 69, 127
1, 109708, Note_on_c, 1, 73, 127
1, 109900, Note_off_c, 1, 73, 0
1, 109900, Note_on_c, 1, 76, 127
1, 109928, Note_off_c, 1, 69, 0
1, 110072, Note_off_c, 1, 76, 0
1, 110104, Note_on_c, 1, 64, 127
1, 110273, Note_off_c, 1, 64, 0
1, 110432, Note_on_c, 1, 78, 127
1, 110579, Note_on_c, 1, 33, 127
1, 110579, Note_on_c, 1, 45, 127
1, 110598, Note_off_c, 1, 78, 0
1, 111295, Note_off_c, 1, 33, 0
1, 111295, Note_off_c, 1, 45, 0
1, 111398, Note_on_c, 1, 81, 127
1, 111614, Note_off_c, 1, 81, 0
1, 112268, Note_on_c, 1, 74, 127
1, 112447, Note_off_c, 1, 74, 0
1, 112460, Note_on_c, 1, 76, 127
1, 112627, Note_on_c, 1, 81, 127
1, 112675, Note_off_c, 1, 76, 0
1, 112825, Note_off_c, 1, 81, 0
1, 112825, Note_on_c, 1, 73, 127
1, 112993, Note_off_c, 1, 73, 0
1, 113177, Note_on_c, 1, 45, 127
1, 113177, Note_on_c, 1, 57, 127
1, 113206, Note_on_c, 1, 69, 127
1, 113285, Note_off_c, 1, 45, 0
1, 113285, Note_off_c, 1, 57, 0
1, 113431, Note_off_c, 1, 69, 0
1, 113548, Note_on_c, 1, 74, 127
1, 113561, Note_on_c, 1, 45, 127
1, 113561, Note_on_c, 1, 57, 127
1, 113721, Note_on_c, 1, 73, 127
1, 113740, Note_off_c, 1, 74, 0
1, 113900, Note_off_c, 1, 73, 0
1, 113945, Note_on_c, 1, 81, 127
1, 113945, Note_on_c, 1, 33, 127
1, 114034, Note_off_c, 1, 57, 0
1, 114181, Note_off_c, 1, 45, 0
1, 114181, Note_off_c, 1, 33, 0
1, 114278, Note_off_c, 1, 81, 0
1, 114297, Note_on_c, 1, 78, 127
1, 114636, Note_on_c, 1, 71, 127
1, 114789, Note_off_c, 1, 78, 0
1, 114847, Note_off_c, 1, 71, 0
1, 115040, Note_on_c, 1, 73, 127
1, 115123, Note_on_c, 1, 45, 127
1, 115123, Note_on_c, 1, 57, 127
1, 115238, Note_on_c, 1, 71, 127
1, 115257, Note_off_c, 1, 73, 0
1, 115410, Note_off_c, 1, 71, 0
1, 115449, Note_on_c, 1, 81, 127
1, 115494, Note_on_c, 1, 33, 127
1, 115532, Note_off_c, 1, 57, 0
1, 115711, Note_off_c, 1, 45, 0
1, 115711, Note_off_c, 1, 33, 0
1, 115794, Note_off_c, 1, 81, 0
1, 115801, Note_on_c, 1, 76, 127
1, 115954, Note_off_c, 1, 76, 0
1, 115980, Note_on_c, 1, 76, 127
1, 116140, Note_off_c, 1, 76, 0
1, 116147, Note_on_c, 1, 69, 127
1, 116192, Note_on_c, 1, 73, 127
1, 116224, Note_on_c, 1, 45, 127
1, 116224, Note_on_c, 1, 57, 127
1, 116307, Note_off_c, 1, 73, 0
1, 116326, Note_on_c, 1, 76, 127
1, 116339, Note_off_c, 1, 69, 0
1, 116339, Note_off_c, 1, 45, 0
1, 116339, Note_off_c, 1, 57, 0
1, 116383, Note_off_c, 1, 76, 0
1, 116576, Note_on_c, 1, 78, 127
1, 116615, Note_on_c, 1, 45, 127
1, 116615, Note_on_c, 1, 57, 127
1, 116768, Note_off_c, 1, 78, 0
1, 116774, Note_on_c, 1, 76, 127
1, 116966, Note_off_c, 1, 76, 0
1, 116992, Note_off_c, 1, 45, 0
1, 116992, Note_off_c, 1, 57, 0
1, 116992, Note_on_c, 1, 81, 127
1, 117030, Note_on_c, 1, 33, 127
1, 117266, Note_off_c, 1, 33, 0
1, 117356, Note_off_c, 1, 81, 0
1, 117363, Note_on_c, 1, 78, 127
1, 117369, Note_on_c, 1, 74, 127
1, 117516, Note_off_c, 1, 74, 0
1, 117555, Note_on_c, 1, 81, 127
1, 117567, Note_off_c, 1, 78, 0
1, 117715, Note_off_c, 1, 81, 0
1, 117740, Note_on_c, 1, 74, 127
1, 117760, Note_on_c, 1, 71, 127
1, 117785, Note_on_c, 1, 45, 127
1, 117785, Note_on_c, 1, 57, 127
1, 117888, Note_off_c, 1, 71, 0
1, 117913, Note_off_c, 1, 45, 0
1, 117913, Note_off_c, 1, 57, 0
1, 117913, Note_on_c, 1, 78, 127
1, 117919, Note_off_c, 1, 74, 0
1, 118009, Note_off_c, 1, 78, 0
1, 118112, Note_on_c, 1, 76, 127
1, 118131, Note_on_c, 1, 73, 127
1, 118182, Note_on_c, 1, 45, 127
1, 118182, Note_on_c, 1, 57, 127
1, 118316, Note_off_c, 1, 73, 0
1, 118323, Note_off_c, 1, 76, 0
1, 118323, Note_on_c, 1, 81, 127
1, 118451, Note_off_c, 1, 81, 0
1, 118502, Note_off_c, 1, 45, 0
1, 118502, Note_off_c, 1, 57, 0
1, 118515, Note_on_c, 1, 73, 127
1, 118528, Note_on_c, 1, 81, 127
1, 118566, Note_on_c, 1, 33, 127
1, 118566, Note_on_c, 1, 45, 127
1, 118668, Note_off_c, 1, 81, 0
1, 118713, Note_off_c, 1, 73, 0
1, 118783, Note_off_c, 1, 33, 0
1, 118783, Note_off_c, 1, 45, 0
1, 118886, Note_on_c, 1, 71, 127
1, 118905, Note_on_c, 1, 74, 127
1, 119071, Note_off_c, 1, 71, 0
1, 119091, Note_on_c, 1, 81, 127
1, 119109, Note_off_c, 1, 74, 0
1, 119276, Note_off_c, 1, 81, 0
1, 119283, Note_on_c, 1, 71, 127
1, 119296, Note_on_c, 1, 80, 127
1, 119334, Note_on_c, 1, 45, 127
1, 119334, Note_on_c, 1, 57, 127
1, 119474, Note_off_c, 1, 45, 0
1, 119474, Note_off_c, 1, 57, 0
1, 119475, Note_off_c, 1, 80, 0
1, 119481, Note_on_c, 1, 81, 127
1, 119487, Note_off_c, 1, 71, 0
1, 119628, Note_off_c, 1, 81, 0
1, 119680, Note_on_c, 1, 73, 127
1, 119680, Note_on_c, 1, 81, 127
1, 119782, Note_on_c, 1, 45, 127
1, 119782, Note_on_c, 1, 57, 127
1, 119910, Note_off_c, 1, 73, 0
1, 120012, Note_off_c, 1, 81, 0
1, 120076, Note_on_c, 1, 69, 127
1, 120096, Note_on_c, 1, 76, 127
1, 120211, Note_off_c, 1, 76, 0
1, 120262, Note_on_c, 1, 71, 127
1, 120274, Note_off_c, 1, 69, 0
1, 120326, Note_off_c, 1, 45, 0
1, 120326, Note_off_c, 1, 57, 0
1, 120454, Note_off_c, 1, 71, 0
1, 120633, Note_on_c, 1, 74, 127
1, 120837, Note_off_c, 1, 74, 0
1, 120998, Note_on_c, 1, 78, 127
1, 121113, Note_off_c, 1, 78, 0
1, 121203, Note_on_c, 1, 79, 127
1, 121212, Note_on_c, 1, 78, 127
1, 121321, Note_off_c, 1, 78, 0
1, 121325, Note_on_c, 1, 76, 127
1, 121395, Note_on_c, 1, 81, 127
1, 121414, Note_off_c, 1, 79, 0
1, 121437, Note_off_c, 1, 76, 0
1, 121587, Note_off_c, 1, 81, 0
1, 121676, Note_on_c, 1, 33, 127
1, 121676, Note_on_c, 1, 45, 127
1, 121785, Note_on_c, 1, 69, 127
1, 121829, Note_off_c, 1, 33, 0
1, 121829, Note_off_c, 1, 45, 0
1, 121881, Note_off_c, 1, 69, 0
1, 121907, Note_on_c, 1, 76, 127
1, 121991, Note_on_c, 1, 78, 127
1, 121996, Note_off_c, 1, 76, 0
1, 122022, Note_on_c, 1, 79, 127
1, 122068, Note_off_c, 1, 78, 0
1, 122073, Note_on_c, 1, 37, 127
1, 122073, Note_on_c, 1, 49, 127
1, 122220, Note_on_c, 1, 81, 127
1, 122246, Note_off_c, 1, 79, 0
1, 122412, Note_off_c, 1, 81, 0
1, 122425, Note_off_c, 1, 37, 0
1, 122425, Note_off_c, 1, 49, 0
1, 122444, Note_on_c, 1, 33, 127
1, 122444, Note_on_c, 1, 45, 127
1, 122585, Note_on_c, 1, 69, 127
1, 122655, Note_off_c, 1, 33, 0
1, 122655, Note_off_c, 1, 45, 0
1, 122687, Note_off_c, 1, 69, 0
1, 122700, Note_on_c, 1, 78, 127
1, 122741, Note_off_c, 1, 78, 0
1, 122755, Note_on_c, 1, 76, 127
1, 122790, Note_on_c, 1, 78, 127
1, 122801, Note_off_c, 1, 76, 0
1, 122976, Note_on_c, 1, 79, 127
1, 123001, Note_off_c, 1, 78, 0
1, 123193, Note_off_c, 1, 79, 0
1, 123212, Note_on_c, 1, 38, 127
1, 123212, Note_on_c, 1, 50, 127
1, 123353, Note_on_c, 1, 69, 127
1, 123372, Note_off_c, 1, 38, 0
1, 123372, Note_off_c, 1, 50, 0
1, 123436, Note_off_c, 1, 69, 0
1, 123558, Note_on_c, 1, 78, 127
1, 123596, Note_on_c, 1, 42, 127
1, 123596, Note_on_c, 1, 54, 127
1, 123612, Note_on_c, 1, 76, 127
1, 123695, Note_off_c, 1, 76, 0
1, 123698, Note_on_c, 1, 74, 127
1, 123756, Note_on_c, 1, 79, 127
1, 123762, Note_off_c, 1, 78, 0
1, 123796, Note_off_c, 1, 74, 0
1, 123948, Note_off_c, 1, 79, 0
1, 123968, Note_on_c, 1, 38, 127
1, 123968, Note_on_c, 1, 50, 127
1, 123980, Note_off_c, 1, 42, 0
1, 123980, Note_off_c, 1, 54, 0
1, 124108, Note_on_c, 1, 69, 127
1, 124115, Note_off_c, 1, 38, 0
1, 124115, Note_off_c, 1, 50, 0
1, 124210, Note_off_c, 1, 69, 0
1, 124263, Note_on_c, 1, 74, 127
1, 124313, Note_on_c, 1, 76, 127
1, 124334, Note_off_c, 1, 74, 0
1, 124518, Note_on_c, 1, 78, 127
1, 124548, Note_off_c, 1, 76, 0
1, 124710, Note_on_c, 1, 45, 127
1, 124710, Note_on_c, 1, 57, 127
1, 124716, Note_off_c, 1, 78, 0
1, 124876, Note_off_c, 1, 45, 0
1, 124876, Note_off_c, 1, 57, 0
1, 124876, Note_on_c, 1, 69, 127
1, 124978, Note_off_c, 1, 69, 0
1, 125075, Note_on_c, 1, 76, 127
1, 125081, Note_on_c, 1, 49, 127
1, 125081, Note_on_c, 1, 61, 127
1, 125097, Note_on_c, 1, 74, 127
1, 125191, Note_off_c, 1, 74, 0
1, 125194, Note_on_c, 1, 73, 127
1, 125267, Note_off_c, 1, 76, 0
1, 125267, Note_on_c, 1, 78, 127
1, 125273, Note_off_c, 1, 73, 0
1, 125433, Note_off_c, 1, 49, 0
1, 125433, Note_off_c, 1, 61, 0
1, 125452, Note_on_c, 1, 45, 127
1, 125452, Note_on_c, 1, 57, 127
1, 125478, Note_off_c, 1, 78, 0
1, 125592, Note_off_c, 1, 45, 0
1, 125592, Note_off_c, 1, 57, 0
1, 125632, Note_on_c, 1, 69, 127
1, 125638, Note_on_c, 1, 74, 127
1, 125717, Note_off_c, 1, 74, 0
1, 125724, Note_on_c, 1, 73, 127
1, 125754, Note_off_c, 1, 73, 0
1, 125772, Note_off_c, 1, 69, 0
1, 125849, Note_on_c, 1, 47, 127
1, 125849, Note_on_c, 1, 59, 127
1, 126009, Note_on_c, 1, 76, 127
1, 126207, Note_off_c, 1, 76, 0
1, 126246, Note_on_c, 1, 45, 127
1, 126246, Note_on_c, 1, 57, 127
1, 126284, Note_off_c, 1, 47, 0
1, 126284, Note_off_c, 1, 59, 0
1, 126380, Note_on_c, 1, 66, 127
1, 126431, Note_off_c, 1, 45, 0
1, 126431, Note_off_c, 1, 57, 0
1, 126559, Note_off_c, 1, 66, 0
1, 126585, Note_on_c, 1, 74, 127
1, 126611, Note_on_c, 1, 73, 127
1, 126630, Note_on_c, 1, 44, 127
1, 126630, Note_on_c, 1, 56, 127
1, 126728, Note_on_c, 1, 71, 127
1, 126732, Note_off_c, 1, 73, 0
1, 126752, Note_on_c, 1, 76, 127
1, 126764, Note_off_c, 1, 74, 0
1, 126802, Note_off_c, 1, 44, 0
1, 126802, Note_off_c, 1, 56, 0
1, 126830, Note_off_c, 1, 71, 0
1, 126924, Note_off_c, 1, 76, 0
1, 126942, Note_on_c, 1, 71, 127
1, 126944, Note_on_c, 1, 74, 127
1, 127001, Note_on_c, 1, 40, 127
1, 127001, Note_on_c, 1, 52, 127
1, 127029, Note_off_c, 1, 71, 0
1, 127039, Note_on_c, 1, 73, 127
1, 127111, Note_off_c, 1, 73, 0
1, 127129, Note_on_c, 1, 68, 127
1, 127136, Note_off_c, 1, 74, 0
1, 127173, Note_off_c, 1, 40, 0
1, 127173, Note_off_c, 1, 52, 0
1, 127340, Note_off_c, 1, 68, 0
1, 127398, Note_on_c, 1, 45, 127
1, 127398, Note_on_c, 1, 57, 127
1, 127795, Note_on_c, 1, 44, 127
1, 127795, Note_on_c, 1, 56, 127
1, 127839, Note_off_c, 1, 45, 0
1, 127839, Note_off_c, 1, 57, 0
1, 127884, Note_on_c, 1, 64, 127
1, 127987, Note_off_c, 1, 44, 0
1, 127987, Note_off_c, 1, 56, 0
1, 128082, Note_off_c, 1, 64, 0
1, 128083, Note_on_c, 1, 73, 127
1, 128179, Note_on_c, 1, 71, 127
1, 128179, Note_on_c, 1, 42, 127
1, 128179, Note_on_c, 1, 54, 127
1, 128288, Note_on_c, 1, 74, 127
1, 128307, Note_off_c, 1, 73, 0
1, 128313, Note_off_c, 1, 71, 0
1, 128314, Note_on_c, 1, 69, 127
1, 128409, Note_off_c, 1, 69, 0
1, 128505, Note_off_c, 1, 74, 0
1, 128524, Note_off_c, 1, 42, 0
1, 128524, Note_off_c, 1, 54, 0
1, 128550, Note_on_c, 1, 40, 127
1, 128550, Note_on_c, 1, 52, 127
1, 128729, Note_off_c, 1, 40, 0
1, 128729, Note_off_c, 1, 52, 0
1, 128748, Note_on_c, 1, 66, 127
1, 128934, Note_on_c, 1, 39, 127
1, 128934, Note_on_c, 1, 51, 127
1, 128940, Note_off_c, 1, 66, 0
1, 129164, Note_off_c, 1, 39, 0
1, 129164, Note_off_c, 1, 51, 0
1, 129305, Note_on_c, 1, 44, 127
1, 129305, Note_on_c, 1, 56, 127
1, 129477, Note_off_c, 1, 44, 0
1, 129477, Note_off_c, 1, 56, 0
1, 129484, Note_on_c, 1, 63, 127
1, 129688, Note_off_c, 1, 63, 0
1, 129689, Note_on_c, 1, 41, 127
1, 129689, Note_on_c, 1, 53, 127
1, 129793, Note_on_c, 1, 68, 127
1, 129883, Note_off_c, 1, 68, 0
1, 130015, Note_off_c, 1, 41, 0
1, 130015, Note_off_c, 1, 53, 0
1, 130086, Note_on_c, 1, 37, 127
1, 130086, Note_on_c, 1, 49, 127
1, 130233, Note_off_c, 1, 37, 0
1, 130233, Note_off_c, 1, 49, 0
1, 130246, Note_on_c, 1, 65, 127
1, 130361, Note_off_c, 1, 65, 0
1, 131225, Note_on_c, 1, 45, 127
1, 131225, Note_on_c, 1, 57, 127
1, 131461, Note_off_c, 1, 45, 0
1, 131461, Note_off_c, 1, 57, 0
1, 132006, Note_on_c, 1, 47, 127
1, 132006, Note_on_c, 1, 59, 127
1, 132396, Note_off_c, 1, 47, 0
1, 132396, Note_off_c, 1, 59, 0
1, 132761, Note_on_c, 1, 61, 127
1, 132959, Note_off_c, 1, 61, 0
1, 134259, Note_on_c, 1, 69, 127
1, 134457, Note_on_c, 1, 68, 127
1, 134483, Note_off_c, 1, 69, 0
1, 134642, Note_off_c, 1, 68, 0
1, 134643, Note_on_c, 1, 66, 127
1, 134828, Note_on_c, 1, 65, 127
1, 134841, Note_off_c, 1, 66, 0
1, 134854, Note_on_c, 1, 68, 127
1, 134924, Note_off_c, 1, 68, 0
1, 134943, Note_off_c, 1, 65, 0
1, 135027, Note_on_c, 1, 66, 127
1, 135065, Note_on_c, 1, 69, 127
1, 135238, Note_on_c, 1, 65, 127
1, 135249, Note_off_c, 1, 66, 0
1, 135321, Note_off_c, 1, 69, 0
1, 135460, Note_off_c, 1, 65, 0
1, 135795, Note_on_c, 1, 71, 127
1, 135811, Note_on_c, 1, 68, 127
1, 135999, Note_off_c, 1, 71, 0
1, 136001, Note_off_c, 1, 68, 0
1, 136002, Note_on_c, 1, 66, 127
1, 136215, Note_on_c, 1, 68, 127
1, 136319, Note_off_c, 1, 66, 0
1, 136420, Note_off_c, 1, 68, 0
1, 136423, Note_on_c, 1, 71, 127
1, 136588, Note_on_c, 1, 73, 127
1, 136637, Note_off_c, 1, 71, 0
1, 136644, Note_on_c, 1, 69, 127
1, 136754, Note_off_c, 1, 73, 0
1, 136854, Note_on_c, 1, 68, 127
1, 136863, Note_off_c, 1, 69, 0
1, 137036, Note_on_c, 1, 42, 127
1, 137036, Note_on_c, 1, 54, 127
1, 137046, Note_off_c, 1, 68, 0
1, 137202, Note_off_c, 1, 42, 0
1, 137202, Note_off_c, 1, 54, 0
1, 137382, Note_on_c, 1, 73, 127
1, 137408, Note_on_c, 1, 45, 127
1, 137408, Note_on_c, 1, 57, 127
1, 137446, Note_on_c, 1, 78, 127
1, 137629, Note_on_c, 1, 77, 127
1, 137635, Note_off_c, 1, 78, 0
1, 137696, Note_off_c, 1, 45, 0
1, 137696, Note_off_c, 1, 57, 0
1, 137792, Note_on_c, 1, 42, 127
1, 137792, Note_on_c, 1, 54, 127
1, 137822, Note_off_c, 1, 77, 0
1, 138005, Note_on_c, 1, 81, 127
1, 138124, Note_off_c, 1, 42, 0
1, 138124, Note_off_c, 1, 54, 0
1, 138150, Note_on_c, 1, 47, 127
1, 138150, Note_on_c, 1, 59, 127
1, 138188, Note_off_c, 1, 81, 0
1, 138188, Note_on_c, 1, 75, 127
1, 138290, Note_off_c, 1, 47, 0
1, 138290, Note_off_c, 1, 59, 0
1, 138396, Note_off_c, 1, 75, 0
1, 138521, Note_on_c, 1, 71, 127
1, 138534, Note_on_c, 1, 35, 127
1, 138570, Note_off_c, 1, 73, 0
1, 138757, Note_off_c, 1, 71, 0
1, 138866, Note_off_c, 1, 35, 0
1, 138918, Note_on_c, 1, 38, 127
1, 138918, Note_on_c, 1, 50, 127
1, 138925, Note_on_c, 1, 80, 127
1, 138963, Note_on_c, 1, 69, 127
1, 139046, Note_off_c, 1, 69, 0
1, 139109, Note_off_c, 1, 80, 0
1, 139289, Note_off_c, 1, 38, 0
1, 139289, Note_off_c, 1, 50, 0
1, 139491, Note_on_c, 1, 83, 127
1, 139673, Note_on_c, 1, 37, 127
1, 139673, Note_on_c, 1, 49, 127
1, 139694, Note_off_c, 1, 83, 0
1, 139858, Note_off_c, 1, 37, 0
1, 139858, Note_off_c, 1, 49, 0
1, 140057, Note_on_c, 1, 33, 127
1, 140243, Note_on_c, 1, 68, 127
1, 140313, Note_off_c, 1, 33, 0
1, 140447, Note_off_c, 1, 68, 0
1, 140992, Note_on_c, 1, 66, 127
1, 141196, Note_off_c, 1, 66, 0
1, 141619, Note_on_c, 1, 32, 127
1, 141619, Note_on_c, 1, 44, 127
1, 141855, Note_off_c, 1, 32, 0
1, 141855, Note_off_c, 1, 44, 0
1, 141958, Note_on_c, 1, 74, 127
1, 142194, Note_off_c, 1, 74, 0
1, 142784, Note_on_c, 1, 30, 127
1, 143104, Note_off_c, 1, 30, 0
1, 144268, Note_on_c, 1, 73, 127
1, 144288, Note_on_c, 1, 68, 127
1, 144320, Note_on_c, 1, 71, 127
1, 144345, Note_on_c, 1, 44, 127
1, 144345, Note_on_c, 1, 56, 127
1, 144421, Note_off_c, 1, 73, 0
1, 144473, Note_on_c, 1, 66, 127
1, 144480, Note_off_c, 1, 68, 0
1, 144556, Note_off_c, 1, 71, 0
1, 144563, Note_on_c, 1, 69, 127
1, 144626, Note_off_c, 1, 66, 0
1, 144665, Note_off_c, 1, 69, 0
1, 145049, Note_on_c, 1, 76, 127
1, 145132, Note_off_c, 1, 44, 0
1, 145132, Note_off_c, 1, 56, 0
1, 145273, Note_off_c, 1, 76, 0
1, 145440, Note_on_c, 1, 71, 127
1, 145446, Note_on_c, 1, 44, 127
1, 145446, Note_on_c, 1, 56, 127
1, 145452, Note_on_c, 1, 68, 127
1, 145535, Note_off_c, 1, 44, 0
1, 145535, Note_off_c, 1, 56, 0
1, 145605, Note_off_c, 1, 68, 0
1, 145606, Note_on_c, 1, 76, 127
1, 145619, Note_off_c, 1, 71, 0
1, 145716, Note_off_c, 1, 76, 0
1, 145785, Note_on_c, 1, 71, 127
1, 145811, Note_on_c, 1, 66, 127
1, 145817, Note_on_c, 1, 69, 127
1, 145856, Note_on_c, 1, 45, 127
1, 145856, Note_on_c, 1, 57, 127
1, 145925, Note_off_c, 1, 71, 0
1, 145996, Note_on_c, 1, 65, 127
1, 146003, Note_off_c, 1, 66, 0
1, 146080, Note_on_c, 1, 68, 127
1, 146085, Note_off_c, 1, 69, 0
1, 146149, Note_off_c, 1, 65, 0
1, 146156, Note_off_c, 1, 68, 0
1, 146560, Note_on_c, 1, 74, 127
1, 146592, Note_off_c, 1, 45, 0
1, 146592, Note_off_c, 1, 57, 0
1, 146860, Note_off_c, 1, 74, 0
1, 146956, Note_on_c, 1, 47, 127
1, 146956, Note_on_c, 1, 59, 127
1, 147556, Note_on_c, 1, 63, 127
1, 147772, Note_off_c, 1, 63, 0
1, 147775, Note_off_c, 1, 47, 0
1, 147775, Note_off_c, 1, 59, 0
1, 147890, Note_on_c, 1, 73, 127
1, 147994, Note_off_c, 1, 73, 0
1, 148121, Note_on_c, 1, 44, 127
1, 148121, Note_on_c, 1, 56, 127
1, 148485, Note_off_c, 1, 44, 0
1, 148485, Note_off_c, 1, 56, 0
1, 148489, Note_on_c, 1, 68, 127
1, 148518, Note_on_c, 1, 42, 127
1, 148518, Note_on_c, 1, 54, 127
1, 148674, Note_on_c, 1, 71, 127
1, 148702, Note_off_c, 1, 68, 0
1, 148774, Note_off_c, 1, 42, 0
1, 148774, Note_off_c, 1, 54, 0
1, 148801, Note_off_c, 1, 71, 0
1, 148872, Note_on_c, 1, 65, 127
1, 148883, Note_on_c, 1, 71, 127
1, 148915, Note_on_c, 1, 44, 127
1, 148915, Note_on_c, 1, 56, 127
1, 149067, Note_on_c, 1, 63, 127
1, 149109, Note_off_c, 1, 65, 0
1, 149286, Note_on_c, 1, 42, 127
1, 149286, Note_on_c, 1, 54, 127
1, 149299, Note_off_c, 1, 44, 0
1, 149299, Note_off_c, 1, 56, 0
1, 149313, Note_off_c, 1, 63, 0
1, 149631, Note_off_c, 1, 42, 0
1, 149631, Note_off_c, 1, 54, 0
1, 149632, Note_on_c, 1, 41, 127
1, 149632, Note_on_c, 1, 53, 127
1, 149701, Note_on_c, 1, 68, 127
1, 149894, Note_off_c, 1, 41, 0
1, 149894, Note_off_c, 1, 53, 0
1, 149910, Note_off_c, 1, 68, 0
1, 150028, Note_on_c, 1, 37, 127
1, 150028, Note_on_c, 1, 49, 127
1, 150181, Note_off_c, 1, 37, 0
1, 150181, Note_off_c, 1, 49, 0
1, 150406, Note_on_c, 1, 61, 127
1, 150617, Note_off_c, 1, 71, 0
1, 150809, Note_on_c, 1, 70, 127
1, 150822, Note_on_c, 1, 66, 127
1, 150828, Note_off_c, 1, 61, 0
1, 150956, Note_off_c, 1, 70, 0
1, 150988, Note_on_c, 1, 78, 127
1, 151154, Note_off_c, 1, 78, 0
1, 151186, Note_off_c, 1, 66, 0
1, 151212, Note_on_c, 1, 76, 127
1, 151333, Note_off_c, 1, 76, 0
1, 151379, Note_on_c, 1, 79, 127
1, 151545, Note_on_c, 1, 73, 127
1, 151551, Note_off_c, 1, 79, 0
1, 151903, Note_off_c, 1, 73, 0
1, 151916, Note_on_c, 1, 76, 127
1, 151961, Note_on_c, 1, 70, 127
1, 152000, Note_on_c, 1, 30, 127
1, 152000, Note_on_c, 1, 42, 127
1, 152140, Note_on_c, 1, 68, 127
1, 152146, Note_off_c, 1, 70, 0
1, 152313, Note_on_c, 1, 73, 127
1, 152338, Note_off_c, 1, 76, 0
1, 152370, Note_off_c, 1, 68, 0
1, 152697, Note_off_c, 1, 73, 0
1, 152806, Note_off_c, 1, 30, 0
1, 152806, Note_off_c, 1, 42, 0
1, 153081, Note_on_c, 1, 64, 127
1, 153504, Note_on_c, 1, 66, 127
1, 153523, Note_on_c, 1, 35, 127
1, 153523, Note_on_c, 1, 47, 127
1, 153701, Note_off_c, 1, 64, 0
1, 153708, Note_on_c, 1, 61, 127
1, 153862, Note_off_c, 1, 66, 0
1, 153887, Note_off_c, 1, 61, 0
1, 153888, Note_on_c, 1, 71, 127
1, 153888, Note_on_c, 1, 63, 127
1, 154054, Note_off_c, 1, 63, 0
1, 154240, Note_on_c, 1, 75, 127
1, 154259, Note_off_c, 1, 35, 0
1, 154259, Note_off_c, 1, 47, 0
1, 154278, Note_on_c, 1, 69, 127
1, 154284, Note_off_c, 1, 71, 0
1, 154457, Note_on_c, 1, 72, 127
1, 154476, Note_off_c, 1, 69, 0
1, 154540, Note_off_c, 1, 75, 0
1, 154611, Note_on_c, 1, 78, 127
1, 154629, Note_off_c, 1, 72, 0
1, 154790, Note_off_c, 1, 78, 0
1, 154982, Note_on_c, 1, 81, 127
1, 154995, Note_on_c, 1, 63, 127
1, 154995, Note_on_c, 1, 35, 127
1, 154995, Note_on_c, 1, 47, 127
1, 155174, Note_on_c, 1, 61, 127
1, 155180, Note_off_c, 1, 63, 0
1, 155359, Note_off_c, 1, 61, 0
1, 155366, Note_on_c, 1, 78, 127
1, 155398, Note_off_c, 1, 81, 0
1, 155545, Note_on_c, 1, 69, 127
1, 155737, Note_on_c, 1, 66, 127
1, 155743, Note_off_c, 1, 78, 0
1, 155743, Note_off_c, 1, 69, 0
1, 155744, Note_on_c, 1, 75, 127
1, 155859, Note_off_c, 1, 35, 0
1, 155859, Note_off_c, 1, 47, 0
1, 155922, Note_off_c, 1, 66, 0
1, 155942, Note_off_c, 1, 75, 0
1, 156499, Note_on_c, 1, 59, 127
1, 156595, Note_on_c, 1, 40, 127
1, 156595, Note_on_c, 1, 52, 127
1, 156934, Note_on_c, 1, 64, 127
1, 156947, Note_off_c, 1, 59, 0
1, 156947, Note_on_c, 1, 68, 127
1, 157119, Note_off_c, 1, 68, 0
1, 157120, Note_on_c, 1, 76, 127
1, 157277, Note_off_c, 1, 76, 0
1, 157318, Note_off_c, 1, 64, 0
1, 157344, Note_on_c, 1, 74, 127
1, 157382, Note_off_c, 1, 40, 0
1, 157382, Note_off_c, 1, 52, 0
1, 157561, Note_off_c, 1, 74, 0
1, 157696, Note_on_c, 1, 71, 127
1, 157906, Note_off_c, 1, 71, 0
1, 158086, Note_on_c, 1, 74, 127
1, 158099, Note_on_c, 1, 68, 127
1, 158131, Note_on_c, 1, 28, 127
1, 158131, Note_on_c, 1, 40, 127
1, 158291, Note_off_c, 1, 68, 0
1, 158291, Note_on_c, 1, 66, 127
1, 158489, Note_on_c, 1, 71, 127
1, 158502, Note_off_c, 1, 74, 0
1, 158540, Note_off_c, 1, 66, 0
1, 158853, Note_off_c, 1, 71, 0
1, 158969, Note_off_c, 1, 28, 0
1, 158969, Note_off_c, 1, 40, 0
1, 159244, Note_on_c, 1, 62, 127
1, 159635, Note_on_c, 1, 64, 127
1, 159654, Note_on_c, 1, 33, 127
1, 159654, Note_on_c, 1, 45, 127
1, 159820, Note_off_c, 1, 62, 0
1, 159838, Note_on_c, 1, 59, 127
1, 159998, Note_on_c, 1, 61, 127
1, 160012, Note_on_c, 1, 69, 127
1, 160031, Note_off_c, 1, 64, 0
1, 160032, Note_off_c, 1, 59, 0
1, 160178, Note_off_c, 1, 61, 0
1, 160358, Note_on_c, 1, 73, 127
1, 160374, Note_on_c, 1, 67, 127
1, 160376, Note_off_c, 1, 69, 0
1, 160447, Note_off_c, 1, 33, 0
1, 160447, Note_off_c, 1, 45, 0
1, 160561, Note_on_c, 1, 70, 127
1, 160585, Note_off_c, 1, 67, 0
1, 160684, Note_off_c, 1, 73, 0
1, 160742, Note_on_c, 1, 76, 127
1, 160748, Note_off_c, 1, 70, 0
1, 160844, Note_off_c, 1, 76, 0
1, 161094, Note_on_c, 1, 79, 127
1, 161535, Note_off_c, 1, 79, 0
1, 162486, Note_on_c, 1, 64, 127
1, 162628, Note_off_c, 1, 64, 0
1, 162656, Note_on_c, 1, 66, 127
1, 162676, Note_on_c, 1, 62, 127
1, 162726, Note_on_c, 1, 38, 127
1, 162726, Note_on_c, 1, 50, 127
1, 162842, Note_on_c, 1, 61, 127
1, 162846, Note_off_c, 1, 62, 0
1, 162867, Note_on_c, 1, 64, 127
1, 162873, Note_off_c, 1, 66, 0
1, 163059, Note_off_c, 1, 64, 0
1, 163069, Note_off_c, 1, 61, 0
1, 163232, Note_on_c, 1, 69, 127
1, 163308, Note_off_c, 1, 69, 0
1, 163506, Note_off_c, 1, 38, 0
1, 163506, Note_off_c, 1, 50, 0
1, 164044, Note_on_c, 1, 67, 127
1, 164120, Note_off_c, 1, 67, 0
1, 164202, Note_on_c, 1, 62, 127
1, 164236, Note_on_c, 1, 66, 127
1, 164288, Note_on_c, 1, 35, 127
1, 164288, Note_on_c, 1, 47, 127
1, 164428, Note_on_c, 1, 61, 127
1, 164437, Note_off_c, 1, 62, 0
1, 164460, Note_on_c, 1, 64, 127
1, 164472, Note_off_c, 1, 66, 0
1, 164646, Note_off_c, 1, 61, 0
1, 164658, Note_off_c, 1, 64, 0
1, 164838, Note_on_c, 1, 69, 127
1, 164914, Note_off_c, 1, 69, 0
1, 165094, Note_off_c, 1, 35, 0
1, 165094, Note_off_c, 1, 47, 0
1, 165625, Note_on_c, 1, 67, 127
1, 165689, Note_off_c, 1, 67, 0
1, 165817, Note_on_c, 1, 62, 127
1, 165824, Note_on_c, 1, 66, 127
1, 165862, Note_on_c, 1, 30, 127
1, 165862, Note_on_c, 1, 42, 127
1, 166028, Note_on_c, 1, 64, 127
1, 166054, Note_off_c, 1, 66, 0
1, 166070, Note_off_c, 1, 62, 0
1, 166214, Note_on_c, 1, 50, 127
1, 166258, Note_off_c, 1, 64, 0
1, 166393, Note_on_c, 1, 69, 127
1, 166399, Note_off_c, 1, 50, 0
1, 166444, Note_off_c, 1, 69, 0
1, 166579, Note_on_c, 1, 57, 127
1, 166624, Note_on_c, 1, 74, 127
1, 166681, Note_off_c, 1, 30, 0
1, 166681, Note_off_c, 1, 42, 0
1, 166809, Note_on_c, 1, 78, 127
1, 166828, Note_off_c, 1, 74, 0
1, 167001, Note_off_c, 1, 78, 0
1, 167168, Note_on_c, 1, 72, 127
1, 167232, Note_off_c, 1, 72, 0
1, 167372, Note_on_c, 1, 71, 127
1, 167385, Note_on_c, 1, 31, 127
1, 167385, Note_on_c, 1, 43, 127
1, 167583, Note_off_c, 1, 71, 0
1, 167737, Note_on_c, 1, 55, 127
1, 167763, Note_off_c, 1, 57, 0
1, 167877, Note_off_c, 1, 55, 0
1, 167923, Note_on_c, 1, 54, 127
1, 168019, Note_off_c, 1, 54, 0
1, 168121, Note_on_c, 1, 76, 127
1, 168185, Note_off_c, 1, 31, 0
1, 168185, Note_off_c, 1, 43, 0
1, 168306, Note_off_c, 1, 76, 0
1, 168307, Note_on_c, 1, 79, 127
1, 168396, Note_off_c, 1, 79, 0
1, 168864, Note_on_c, 1, 73, 127
1, 168921, Note_on_c, 1, 33, 127
1, 168921, Note_on_c, 1, 45, 127
1, 169068, Note_off_c, 1, 73, 0
1, 169254, Note_on_c, 1, 59, 127
1, 169580, Note_off_c, 1, 59, 0
1, 169701, Note_off_c, 1, 33, 0
1, 169701, Note_off_c, 1, 45, 0
1, 169811, Note_on_c, 1, 81, 127
1, 169971, Note_off_c, 1, 81, 0
1, 170457, Note_on_c, 1, 35, 127
1, 170457, Note_on_c, 1, 47, 127
1, 170553, Note_on_c, 1, 52, 127
1, 170732, Note_off_c, 1, 52, 0
1, 170841, Note_off_c, 1, 35, 0
1, 170841, Note_off_c, 1, 47, 0
1, 171104, Note_on_c, 1, 54, 127
1, 171116, Note_on_c, 1, 74, 127
1, 171212, Note_off_c, 1, 74, 0
1, 171212, Note_on_c, 1, 33, 127
1, 171212, Note_on_c, 1, 45, 127
1, 171219, Note_on_c, 1, 73, 127
1, 171289, Note_on_c, 1, 52, 127
1, 171296, Note_off_c, 1, 54, 0
1, 171302, Note_off_c, 1, 73, 0
1, 171378, Note_off_c, 1, 52, 0
1, 171647, Note_off_c, 1, 33, 0
1, 171647, Note_off_c, 1, 45, 0
1, 171916, Note_on_c, 1, 54, 127
1, 171942, Note_on_c, 1, 74, 127
1, 172006, Note_on_c, 1, 26, 127
1, 172006, Note_on_c, 1, 38, 127
1, 172095, Note_off_c, 1, 54, 0
1, 172096, Note_on_c, 1, 57, 127
1, 172217, Note_off_c, 1, 57, 0
1, 172294, Note_on_c, 1, 50, 127
1, 172358, Note_off_c, 1, 74, 0
1, 172409, Note_off_c, 1, 50, 0
1, 172690, Note_off_c, 1, 26, 0
1, 172690, Note_off_c, 1, 38, 0
1, 172864, Note_on_c, 1, 62, 127
1, 173062, Note_off_c, 1, 62, 0
1, 173516, Note_on_c, 1, 62, 127
1, 173523, Note_on_c, 1, 57, 127
1, 173708, Note_off_c, 1, 62, 0
1, 173708, Note_on_c, 1, 66, 127
1, 173734, Note_off_c, 1, 57, 0
1, 173881, Note_on_c, 1, 54, 127
1, 173887, Note_off_c, 1, 66, 0
1, 174060, Note_off_c, 1, 54, 0
1, 174464, Note_on_c, 1, 69, 127
1, 174643, Note_off_c, 1, 69, 0
1, 175014, Note_on_c, 1, 66, 127
1, 175027, Note_on_c, 1, 69, 127
1, 175065, Note_on_c, 1, 26, 127
1, 175065, Note_on_c, 1, 38, 127
1, 175244, Note_off_c, 1, 66, 0
1, 175424, Note_on_c, 1, 62, 127
1, 175532, Note_off_c, 1, 62, 0
1, 175858, Note_off_c, 1, 26, 0
1, 175858, Note_off_c, 1, 38, 0
1, 176006, Note_on_c, 1, 74, 127
1, 176191, Note_off_c, 1, 74, 0
1, 176620, Note_off_c, 1, 69, 0
1, 176761, Note_on_c, 1, 67, 127
1, 176933, Note_off_c, 1, 67, 0
1, 177715, Note_on_c, 1, 50, 127
1, 177823, Note_off_c, 1, 50, 0
1, 177894, Note_on_c, 1, 69, 127
1, 178060, Note_off_c, 1, 69, 0
1, 178080, Note_on_c, 1, 67, 127
1, 178099, Note_on_c, 1, 38, 127
1, 178099, Note_on_c, 1, 50, 127
1, 178265, Note_on_c, 1, 66, 127
1, 178272, Note_off_c, 1, 67, 0
1, 178431, Note_off_c, 1, 38, 0
1, 178431, Note_off_c, 1, 50, 0
1, 178457, Note_off_c, 1, 66, 0
1, 178464, Note_on_c, 1, 74, 127
1, 178464, Note_on_c, 1, 67, 127
1, 178470, Note_on_c, 1, 26, 127
1, 178470, Note_on_c, 1, 38, 127
1, 178649, Note_off_c, 1, 67, 0
1, 178655, Note_off_c, 1, 26, 0
1, 178655, Note_off_c, 1, 38, 0
1, 178828, Note_on_c, 1, 71, 127
1, 178854, Note_off_c, 1, 74, 0
1, 178968, Note_off_c, 1, 71, 0
1, 179193, Note_on_c, 1, 64, 127
1, 179225, Note_on_c, 1, 50, 127
1, 179333, Note_off_c, 1, 50, 0
1, 179397, Note_off_c, 1, 64, 0
1, 179571, Note_on_c, 1, 66, 127
1, 179622, Note_on_c, 1, 38, 127
1, 179622, Note_on_c, 1, 50, 127
1, 179763, Note_on_c, 1, 64, 127
1, 179769, Note_off_c, 1, 66, 0
1, 179980, Note_off_c, 1, 64, 0
1, 179980, Note_on_c, 1, 74, 127
1, 179993, Note_on_c, 1, 26, 127
1, 179999, Note_off_c, 1, 50, 0
1, 180133, Note_off_c, 1, 38, 0
1, 180133, Note_off_c, 1, 26, 0
1, 180326, Note_on_c, 1, 69, 127
1, 180351, Note_off_c, 1, 74, 0
1, 180466, Note_off_c, 1, 69, 0
1, 180716, Note_on_c, 1, 62, 127
1, 180895, Note_off_c, 1, 62, 0
1, 181100, Note_on_c, 1, 71, 127
1, 181158, Note_on_c, 1, 38, 127
1, 181158, Note_on_c, 1, 50, 127
1, 181299, Note_on_c, 1, 69, 127
1, 181311, Note_off_c, 1, 71, 0
1, 181523, Note_off_c, 1, 69, 0
1, 181523, Note_on_c, 1, 74, 127
1, 181542, Note_on_c, 1, 26, 127
1, 181599, Note_off_c, 1, 50, 0
1, 181734, Note_off_c, 1, 38, 0
1, 181734, Note_off_c, 1, 26, 0
1, 181907, Note_on_c, 1, 67, 127
1, 181945, Note_off_c, 1, 74, 0
1, 182060, Note_off_c, 1, 67, 0
1, 182284, Note_on_c, 1, 64, 127
1, 182412, Note_off_c, 1, 64, 0
1, 182662, Note_on_c, 1, 69, 127
1, 182694, Note_on_c, 1, 66, 127
1, 182694, Note_on_c, 1, 38, 127
1, 182694, Note_on_c, 1, 50, 127
1, 182854, Note_on_c, 1, 74, 127
1, 182866, Note_off_c, 1, 69, 0
1, 183039, Note_off_c, 1, 38, 0
1, 183039, Note_off_c, 1, 50, 0
1, 183052, Note_on_c, 1, 26, 127
1, 183071, Note_off_c, 1, 74, 0
1, 183212, Note_off_c, 1, 26, 0
1, 183225, Note_off_c, 1, 66, 0
1, 183238, Note_on_c, 1, 69, 127
1, 183430, Note_on_c, 1, 64, 127
1, 183442, Note_off_c, 1, 69, 0
1, 183443, Note_on_c, 1, 67, 127
1, 183641, Note_off_c, 1, 67, 0
1, 183641, Note_on_c, 1, 74, 127
1, 183679, Note_off_c, 1, 64, 0
1, 183808, Note_on_c, 1, 73, 127
1, 183813, Note_off_c, 1, 74, 0
1, 183820, Note_on_c, 1, 38, 127
1, 183820, Note_on_c, 1, 50, 127
1, 183955, Note_off_c, 1, 73, 0
1, 183960, Note_off_c, 1, 38, 0
1, 183960, Note_off_c, 1, 50, 0
1, 184000, Note_on_c, 1, 74, 127
1, 184140, Note_off_c, 1, 74, 0
1, 184179, Note_on_c, 1, 62, 127
1, 184192, Note_on_c, 1, 66, 127
1, 184256, Note_on_c, 1, 38, 127
1, 184256, Note_on_c, 1, 50, 127
1, 184377, Note_on_c, 1, 74, 127
1, 184403, Note_off_c, 1, 66, 0
1, 184454, Note_off_c, 1, 62, 0
1, 184466, Note_off_c, 1, 74, 0
1, 184563, Note_on_c, 1, 69, 127
1, 184691, Note_off_c, 1, 69, 0
1, 184755, Note_on_c, 1, 64, 127
1, 184921, Note_off_c, 1, 64, 0
1, 185024, Note_off_c, 1, 38, 0
1, 185024, Note_off_c, 1, 50, 0
1, 185120, Note_on_c, 1, 67, 127
1, 185132, Note_on_c, 1, 76, 127
1, 185285, Note_off_c, 1, 76, 0
1, 185299, Note_on_c, 1, 69, 127
1, 185305, Note_off_c, 1, 67, 0
1, 185312, Note_on_c, 1, 78, 127
1, 185478, Note_on_c, 1, 71, 127
1, 185484, Note_on_c, 1, 79, 127
1, 185497, Note_off_c, 1, 69, 0
1, 185497, Note_off_c, 1, 78, 0
1, 185548, Note_off_c, 1, 79, 0
1, 185650, Note_off_c, 1, 71, 0
1, 185670, Note_on_c, 1, 72, 127
1, 185676, Note_on_c, 1, 83, 127
1, 185862, Note_on_c, 1, 74, 127
1, 185881, Note_off_c, 1, 72, 0
1, 185900, Note_off_c, 1, 83, 0
1, 185904, Note_on_c, 1, 81, 127
1, 186028, Note_off_c, 1, 81, 0
1, 186047, Note_off_c, 1, 74, 0
1, 186163, Note_on_c, 1, 26, 127
1, 186163, Note_on_c, 1, 38, 127
1, 186246, Note_on_c, 1, 62, 127
1, 186323, Note_off_c, 1, 26, 0
1, 186323, Note_off_c, 1, 38, 0
1, 186386, Note_off_c, 1, 62, 0
1, 186572, Note_on_c, 1, 30, 127
1, 186572, Note_on_c, 1, 42, 127
1, 186834, Note_off_c, 1, 30, 0
1, 186834, Note_off_c, 1, 42, 0
1, 187207, Note_on_c, 1, 81, 127
1, 187248, Note_on_c, 1, 83, 127
1, 187267, Note_off_c, 1, 81, 0
1, 187289, Note_on_c, 1, 71, 127
1, 187326, Note_off_c, 1, 83, 0
1, 187488, Note_on_c, 1, 72, 127
1, 187500, Note_off_c, 1, 71, 0
1, 187686, Note_off_c, 1, 72, 0
1, 187712, Note_on_c, 1, 31, 127
1, 187712, Note_on_c, 1, 43, 127
1, 187840, Note_off_c, 1, 31, 0
1, 187840, Note_off_c, 1, 43, 0
1, 187878, Note_on_c, 1, 62, 127
1, 188031, Note_off_c, 1, 62, 0
1, 188057, Note_on_c, 1, 71, 127
1, 188068, Note_on_c, 1, 81, 127
1, 188108, Note_on_c, 1, 35, 127
1, 188108, Note_on_c, 1, 47, 127
1, 188227, Note_on_c, 1, 79, 127
1, 188236, Note_on_c, 1, 72, 127
1, 188242, Note_off_c, 1, 71, 0
1, 188246, Note_off_c, 1, 81, 0
1, 188345, Note_off_c, 1, 79, 0
1, 188434, Note_off_c, 1, 35, 0
1, 188434, Note_off_c, 1, 47, 0
1, 188460, Note_off_c, 1, 72, 0
1, 188467, Note_on_c, 1, 31, 127
1, 188467, Note_on_c, 1, 43, 127
1, 188601, Note_off_c, 1, 31, 0
1, 188601, Note_off_c, 1, 43, 0
1, 188633, Note_on_c, 1, 62, 127
1, 188793, Note_off_c, 1, 62, 0
1, 188814, Note_on_c, 1, 79, 127
1, 188825, Note_on_c, 1, 69, 127
1, 188869, Note_on_c, 1, 81, 127
1, 188873, Note_off_c, 1, 79, 0
1, 188925, Note_off_c, 1, 81, 0
1, 189030, Note_on_c, 1, 71, 127
1, 189049, Note_off_c, 1, 69, 0
1, 189222, Note_on_c, 1, 38, 127
1, 189222, Note_on_c, 1, 50, 127
1, 189241, Note_off_c, 1, 71, 0
1, 189356, Note_off_c, 1, 38, 0
1, 189356, Note_off_c, 1, 50, 0
1, 189414, Note_on_c, 1, 62, 127
1, 189586, Note_off_c, 1, 62, 0
1, 189632, Note_on_c, 1, 42, 127
1, 189632, Note_on_c, 1, 54, 127
1, 189676, Note_on_c, 1, 78, 127
1, 189765, Note_off_c, 1, 78, 0
1, 190016, Note_off_c, 1, 42, 0
1, 190016, Note_off_c, 1, 54, 0
1, 190342, Note_on_c, 1, 67, 127
1, 190400, Note_on_c, 1, 40, 127
1, 190400, Note_on_c, 1, 52, 127
1, 190559, Note_off_c, 1, 67, 0
1, 190784, Note_off_c, 1, 40, 0
1, 190784, Note_off_c, 1, 52, 0
1, 190905, Note_on_c, 1, 59, 127
1, 191103, Note_off_c, 1, 59, 0
1, 191104, Note_on_c, 1, 67, 127
1, 191155, Note_on_c, 1, 37, 127
1, 191155, Note_on_c, 1, 49, 127
1, 191165, Note_on_c, 1, 78, 127
1, 191296, Note_on_c, 1, 69, 127
1, 191308, Note_off_c, 1, 37, 0
1, 191308, Note_off_c, 1, 49, 0
1, 191315, Note_off_c, 1, 67, 0
1, 191339, Note_off_c, 1, 78, 0
1, 191340, Note_on_c, 1, 76, 127
1, 191435, Note_off_c, 1, 76, 0
1, 191468, Note_off_c, 1, 69, 0
1, 191526, Note_on_c, 1, 33, 127
1, 191526, Note_on_c, 1, 45, 127
1, 191673, Note_on_c, 1, 61, 127
1, 191705, Note_off_c, 1, 33, 0
1, 191705, Note_off_c, 1, 45, 0
1, 191859, Note_on_c, 1, 66, 127
1, 191877, Note_off_c, 1, 61, 0
1, 191923, Note_on_c, 1, 38, 127
1, 191923, Note_on_c, 1, 50, 127
1, 192063, Note_off_c, 1, 66, 0
1, 192332, Note_off_c, 1, 38, 0
1, 192332, Note_off_c, 1, 50, 0
1, 192441, Note_on_c, 1, 57, 127
1, 192639, Note_off_c, 1, 57, 0
1, 192678, Note_on_c, 1, 35, 127
1, 192678, Note_on_c, 1, 47, 127
1, 192823, Note_on_c, 1, 74, 127
1, 192924, Note_off_c, 1, 74, 0
1, 193068, Note_off_c, 1, 35, 0
1, 193068, Note_off_c, 1, 47, 0
1, 193395, Note_on_c, 1, 64, 127
1, 193446, Note_on_c, 1, 32, 127
1, 193446, Note_on_c, 1, 44, 127
1, 193619, Note_off_c, 1, 64, 0
1, 193849, Note_off_c, 1, 32, 0
1, 193849, Note_off_c, 1, 44, 0
1, 193977, Note_on_c, 1, 56, 127
1, 194201, Note_off_c, 1, 56, 0
1, 194227, Note_on_c, 1, 34, 127
1, 194227, Note_on_c, 1, 46, 127
1, 194364, Note_on_c, 1, 73, 127
1, 194450, Note_off_c, 1, 73, 0
1, 194585, Note_on_c, 1, 30, 127
1, 194585, Note_on_c, 1, 42, 127
1, 194598, Note_off_c, 1, 34, 0
1, 194598, Note_off_c, 1, 46, 0
1, 194777, Note_on_c, 1, 58, 127
1, 194828, Note_off_c, 1, 30, 0
1, 194828, Note_off_c, 1, 42, 0
1, 194949, Note_off_c, 1, 58, 0
1, 194969, Note_on_c, 1, 62, 127
1, 195167, Note_off_c, 1, 62, 0
1, 195692, Note_on_c, 1, 59, 127
1, 195877, Note_off_c, 1, 59, 0
1, 195889, Note_on_c, 1, 71, 127
1, 195990, Note_off_c, 1, 71, 0
1, 196505, Note_on_c, 1, 40, 127
1, 196505, Note_on_c, 1, 52, 127
1, 196901, Note_off_c, 1, 40, 0
1, 196901, Note_off_c, 1, 52, 0
1, 197248, Note_on_c, 1, 54, 127
1, 197410, Note_on_c, 1, 70, 127
1, 197459, Note_off_c, 1, 54, 0
1, 197501, Note_off_c, 1, 70, 0
1, 199174, Note_on_c, 1, 59, 127
1, 199187, Note_on_c, 1, 71, 127
1, 199321, Note_off_c, 1, 71, 0
1, 199340, Note_off_c, 1, 59, 0
1, 199340, Note_on_c, 1, 57, 127
1, 199379, Note_on_c, 1, 73, 127
1, 199443, Note_off_c, 1, 73, 0
1, 199525, Note_off_c, 1, 57, 0
1, 199566, Note_on_c, 1, 59, 127
1, 199577, Note_on_c, 1, 74, 127
1, 199757, Note_on_c, 1, 58, 127
1, 199767, Note_off_c, 1, 59, 0
1, 199801, Note_off_c, 1, 74, 0
1, 199943, Note_off_c, 1, 58, 0
1, 199945, Note_on_c, 1, 59, 127
1, 199974, Note_on_c, 1, 71, 127
1, 200107, Note_off_c, 1, 59, 0
1, 200108, Note_off_c, 1, 71, 0
1, 200128, Note_on_c, 1, 62, 127
1, 200300, Note_off_c, 1, 62, 0
1, 200317, Note_on_c, 1, 61, 127
1, 200339, Note_on_c, 1, 76, 127
1, 200501, Note_on_c, 1, 59, 127
1, 200505, Note_off_c, 1, 61, 0
1, 200518, Note_off_c, 1, 76, 0
1, 200704, Note_on_c, 1, 71, 127
1, 200713, Note_off_c, 1, 59, 0
1, 200857, Note_off_c, 1, 71, 0
1, 200886, Note_on_c, 1, 64, 127
1, 201094, Note_on_c, 1, 78, 127
1, 201107, Note_off_c, 1, 64, 0
1, 201129, Note_on_c, 1, 62, 127
1, 201305, Note_on_c, 1, 76, 127
1, 201318, Note_off_c, 1, 78, 0
1, 201356, Note_on_c, 1, 61, 127
1, 201360, Note_off_c, 1, 62, 0
1, 201445, Note_off_c, 1, 76, 0
1, 201504, Note_on_c, 1, 74, 127
1, 201537, Note_off_c, 1, 61, 0
1, 201574, Note_on_c, 1, 35, 127
1, 201574, Note_on_c, 1, 47, 127
1, 201612, Note_off_c, 1, 74, 0
1, 201721, Note_off_c, 1, 35, 0
1, 201721, Note_off_c, 1, 47, 0
1, 201736, Note_on_c, 1, 66, 127
1, 201929, Note_off_c, 1, 66, 0
1, 201957, Note_on_c, 1, 71, 127
1, 201958, Note_on_c, 1, 38, 127
1, 201958, Note_on_c, 1, 50, 127
1, 202137, Note_off_c, 1, 71, 0
1, 202145, Note_on_c, 1, 70, 127
1, 202324, Note_off_c, 1, 70, 0
1, 202329, Note_off_c, 1, 38, 0
1, 202329, Note_off_c, 1, 50, 0
1, 202675, Note_on_c, 1, 40, 127
1, 202675, Note_on_c, 1, 52, 127
1, 202700, Note_on_c, 1, 68, 127
1, 202841, Note_off_c, 1, 40, 0
1, 202841, Note_off_c, 1, 52, 0
1, 202912, Note_off_c, 1, 68, 0
1, 203452, Note_on_c, 1, 73, 127
1, 203456, Note_on_c, 1, 43, 127
1, 203456, Note_on_c, 1, 55, 127
1, 203647, Note_off_c, 1, 73, 0
1, 203820, Note_off_c, 1, 43, 0
1, 203820, Note_off_c, 1, 55, 0
1, 204198, Note_on_c, 1, 42, 127
1, 204198, Note_on_c, 1, 54, 127
1, 204383, Note_off_c, 1, 42, 0
1, 204383, Note_off_c, 1, 54, 0
1, 204940, Note_on_c, 1, 74, 127
1, 204974, Note_on_c, 1, 71, 127
1, 204979, Note_on_c, 1, 43, 127
1, 204979, Note_on_c, 1, 55, 127
1, 205120, Note_on_c, 1, 76, 127
1, 205132, Note_off_c, 1, 74, 0
1, 205312, Note_off_c, 1, 76, 0
1, 205350, Note_on_c, 1, 42, 127
1, 205350, Note_on_c, 1, 54, 127
1, 205388, Note_off_c, 1, 43, 0
1, 205388, Note_off_c, 1, 55, 0
1, 205663, Note_off_c, 1, 42, 0
1, 205663, Note_off_c, 1, 54, 0
1, 205696, Note_on_c, 1, 73, 127
1, 205734, Note_on_c, 1, 40, 127
1, 205734, Note_on_c, 1, 52, 127
1, 205894, Note_off_c, 1, 73, 0
1, 206143, Note_off_c, 1, 40, 0
1, 206143, Note_off_c, 1, 52, 0
1, 206144, Note_on_c, 1, 37, 127
1, 206144, Note_on_c, 1, 49, 127
1, 206259, Note_on_c, 1, 78, 127
1, 206348, Note_off_c, 1, 78, 0
1, 206457, Note_on_c, 1, 79, 127
1, 206492, Note_on_c, 1, 70, 127
1, 206496, Note_off_c, 1, 71, 0
1, 206508, Note_off_c, 1, 37, 0
1, 206508, Note_off_c, 1, 49, 0
1, 206693, Note_off_c, 1, 79, 0
1, 206886, Note_on_c, 1, 30, 127
1, 207033, Note_off_c, 1, 30, 0
1, 207212, Note_off_c, 1, 70, 0
1, 207232, Note_on_c, 1, 74, 127
1, 207232, Note_on_c, 1, 71, 127
1, 207308, Note_on_c, 1, 35, 127
1, 207308, Note_on_c, 1, 47, 127
1, 207411, Note_off_c, 1, 74, 0
1, 207417, Note_on_c, 1, 73, 127
1, 207596, Note_off_c, 1, 71, 0
1, 207615, Note_off_c, 1, 73, 0
1, 207808, Note_on_c, 1, 78, 127
1, 207987, Note_off_c, 1, 78, 0
1, 208006, Note_on_c, 1, 83, 127
1, 208076, Note_off_c, 1, 35, 0
1, 208076, Note_off_c, 1, 47, 0
1, 208204, Note_on_c, 1, 62, 127
1, 208223, Note_off_c, 1, 83, 0
1, 208383, Note_off_c, 1, 62, 0
1, 208403, Note_on_c, 1, 66, 127
1, 208409, Note_on_c, 1, 74, 127
1, 208435, Note_on_c, 1, 35, 127
1, 208435, Note_on_c, 1, 47, 127
1, 208556, Note_off_c, 1, 35, 0
1, 208556, Note_off_c, 1, 47, 0
1, 208556, Note_on_c, 1, 71, 127
1, 208575, Note_off_c, 1, 66, 0
1, 208581, Note_off_c, 1, 74, 0
1, 208613, Note_off_c, 1, 71, 0
1, 208748, Note_on_c, 1, 66, 127
1, 208800, Note_on_c, 1, 73, 127
1, 208806, Note_on_c, 1, 64, 127
1, 208857, Note_on_c, 1, 37, 127
1, 208857, Note_on_c, 1, 49, 127
1, 208895, Note_off_c, 1, 66, 0
1, 208979, Note_on_c, 1, 71, 127
1, 209011, Note_off_c, 1, 73, 0
1, 209030, Note_off_c, 1, 64, 0
1, 209043, Note_on_c, 1, 62, 127
1, 209139, Note_off_c, 1, 71, 0
1, 209164, Note_off_c, 1, 62, 0
1, 209369, Note_on_c, 1, 76, 127
1, 209458, Note_off_c, 1, 76, 0
1, 209555, Note_on_c, 1, 81, 127
1, 209631, Note_off_c, 1, 37, 0
1, 209631, Note_off_c, 1, 49, 0
1, 209740, Note_off_c, 1, 81, 0
1, 209747, Note_on_c, 1, 61, 127
1, 209913, Note_off_c, 1, 61, 0
1, 209939, Note_on_c, 1, 73, 127
1, 209945, Note_on_c, 1, 64, 127
1, 209971, Note_on_c, 1, 37, 127
1, 209971, Note_on_c, 1, 49, 127
1, 210067, Note_off_c, 1, 37, 0
1, 210067, Note_off_c, 1, 49, 0
1, 210105, Note_off_c, 1, 73, 0
1, 210118, Note_on_c, 1, 69, 127
1, 210137, Note_off_c, 1, 64, 0
1, 210175, Note_off_c, 1, 69, 0
1, 210304, Note_on_c, 1, 64, 127
1, 210323, Note_on_c, 1, 71, 127
1, 210348, Note_on_c, 1, 62, 127
1, 210368, Note_on_c, 1, 38, 127
1, 210368, Note_on_c, 1, 50, 127
1, 210380, Note_off_c, 1, 64, 0
1, 210502, Note_off_c, 1, 71, 0
1, 210508, Note_on_c, 1, 70, 127
1, 210591, Note_off_c, 1, 62, 0
1, 210611, Note_on_c, 1, 61, 127
1, 210668, Note_off_c, 1, 70, 0
1, 210713, Note_off_c, 1, 61, 0
1, 210886, Note_on_c, 1, 74, 127
1, 210962, Note_off_c, 1, 74, 0
1, 211072, Note_on_c, 1, 79, 127
1, 211110, Note_off_c, 1, 38, 0
1, 211110, Note_off_c, 1, 50, 0
1, 211238, Note_off_c, 1, 79, 0
1, 211251, Note_on_c, 1, 59, 127
1, 211430, Note_off_c, 1, 59, 0
1, 211443, Note_on_c, 1, 71, 127
1, 211449, Note_on_c, 1, 64, 127
1, 211481, Note_on_c, 1, 40, 127
1, 211481, Note_on_c, 1, 52, 127
1, 211571, Note_off_c, 1, 71, 0
1, 211609, Note_on_c, 1, 67, 127
1, 211628, Note_off_c, 1, 64, 0
1, 211653, Note_off_c, 1, 67, 0
1, 211820, Note_on_c, 1, 70, 127
1, 211820, Note_on_c, 1, 62, 127
1, 211858, Note_off_c, 1, 62, 0
1, 211878, Note_on_c, 1, 61, 127
1, 211954, Note_off_c, 1, 61, 0
1, 211999, Note_off_c, 1, 70, 0
1, 212000, Note_on_c, 1, 68, 127
1, 212006, Note_on_c, 1, 59, 127
1, 212146, Note_off_c, 1, 59, 0
1, 212172, Note_off_c, 1, 68, 0
1, 212288, Note_on_c, 1, 38, 127
1, 212288, Note_on_c, 1, 50, 127
1, 212293, Note_off_c, 1, 40, 0
1, 212293, Note_off_c, 1, 52, 0
1, 212377, Note_on_c, 1, 78, 127
1, 212466, Note_off_c, 1, 78, 0
1, 212505, Note_off_c, 1, 38, 0
1, 212505, Note_off_c, 1, 50, 0
1, 212627, Note_on_c, 1, 76, 127
1, 212659, Note_on_c, 1, 37, 127
1, 212659, Note_on_c, 1, 49, 127
1, 212844, Note_on_c, 1, 79, 127
1, 212857, Note_off_c, 1, 76, 0
1, 212997, Note_off_c, 1, 79, 0
1, 213011, Note_on_c, 1, 73, 127
1, 213017, Note_off_c, 1, 37, 0
1, 213017, Note_off_c, 1, 49, 0
1, 213030, Note_on_c, 1, 35, 127
1, 213030, Note_on_c, 1, 47, 127
1, 213209, Note_off_c, 1, 73, 0
1, 213222, Note_off_c, 1, 35, 0
1, 213222, Note_off_c, 1, 47, 0
1, 213376, Note_on_c, 1, 70, 127
1, 213401, Note_on_c, 1, 37, 127
1, 213401, Note_on_c, 1, 49, 127
1, 213408, Note_on_c, 1, 64, 127
1, 213561, Note_on_c, 1, 68, 127
1, 213580, Note_off_c, 1, 70, 0
1, 213797, Note_off_c, 1, 68, 0
1, 213798, Note_on_c, 1, 35, 127
1, 213798, Note_on_c, 1, 47, 127
1, 213810, Note_off_c, 1, 37, 0
1, 213810, Note_off_c, 1, 49, 0
1, 213964, Note_on_c, 1, 76, 127
1, 214092, Note_off_c, 1, 35, 0
1, 214092, Note_off_c, 1, 47, 0
1, 214098, Note_off_c, 1, 76, 0
1, 214169, Note_on_c, 1, 73, 127
1, 214182, Note_on_c, 1, 34, 127
1, 214182, Note_on_c, 1, 46, 127
1, 214361, Note_off_c, 1, 73, 0
1, 214380, Note_off_c, 1, 34, 0
1, 214380, Note_off_c, 1, 46, 0
1, 214566, Note_on_c, 1, 30, 127
1, 214566, Note_on_c, 1, 42, 127
1, 214751, Note_off_c, 1, 30, 0
1, 214751, Note_off_c, 1, 42, 0
1, 214835, Note_off_c, 1, 64, 0
1, 214924, Note_on_c, 1, 66, 127
1, 215001, Note_on_c, 1, 35, 127
1, 215001, Note_on_c, 1, 47, 127
1, 215116, Note_on_c, 1, 61, 127
1, 215295, Note_off_c, 1, 66, 0
1, 215308, Note_on_c, 1, 63, 127
1, 215321, Note_on_c, 1, 71, 127
1, 215340, Note_off_c, 1, 61, 0
1, 215436, Note_off_c, 1, 35, 0
1, 215436, Note_off_c, 1, 47, 0
1, 215480, Note_off_c, 1, 63, 0
1, 215679, Note_off_c, 1, 71, 0
1, 215680, Note_on_c, 1, 75, 127
1, 215692, Note_on_c, 1, 69, 127
1, 215801, Note_off_c, 1, 75, 0
1, 215871, Note_off_c, 1, 69, 0
1, 215878, Note_on_c, 1, 72, 127
1, 216038, Note_on_c, 1, 78, 127
1, 216057, Note_on_c, 1, 66, 127
1, 216063, Note_off_c, 1, 72, 0
1, 216140, Note_off_c, 1, 78, 0
1, 216224, Note_on_c, 1, 69, 127
1, 216236, Note_off_c, 1, 66, 0
1, 216268, Note_off_c, 1, 69, 0
1, 216422, Note_on_c, 1, 63, 127
1, 216428, Note_on_c, 1, 81, 127
1, 216470, Note_on_c, 1, 35, 127
1, 216470, Note_on_c, 1, 47, 127
1, 216608, Note_on_c, 1, 61, 127
1, 216614, Note_off_c, 1, 63, 0
1, 216800, Note_off_c, 1, 61, 0
1, 216832, Note_on_c, 1, 78, 127
1, 216863, Note_off_c, 1, 81, 0
1, 216962, Note_off_c, 1, 35, 0
1, 216962, Note_off_c, 1, 47, 0
1, 216998, Note_on_c, 1, 69, 127
1, 217177, Note_off_c, 1, 78, 0
1, 217177, Note_on_c, 1, 75, 127
1, 217177, Note_on_c, 1, 66, 127
1, 217183, Note_off_c, 1, 69, 0
1, 217330, Note_off_c, 1, 75, 0
1, 217381, Note_off_c, 1, 66, 0
1, 217382, Note_on_c, 1, 69, 127
1, 217568, Note_on_c, 1, 63, 127
1, 217574, Note_off_c, 1, 69, 0
1, 217740, Note_off_c, 1, 63, 0
1, 217753, Note_on_c, 1, 66, 127
1, 217829, Note_off_c, 1, 66, 0
1, 217964, Note_on_c, 1, 59, 127
1, 218048, Note_on_c, 1, 40, 127
1, 218048, Note_on_c, 1, 52, 127
1, 218387, Note_on_c, 1, 68, 127
1, 218419, Note_on_c, 1, 64, 127
1, 218424, Note_off_c, 1, 59, 0
1, 218476, Note_off_c, 1, 68, 0
1, 218547, Note_off_c, 1, 64, 0
1, 218585, Note_on_c, 1, 76, 127
1, 218592, Note_off_c, 1, 40, 0
1, 218592, Note_off_c, 1, 52, 0
1, 218703, Note_off_c, 1, 76, 0
1, 218784, Note_on_c, 1, 68, 127
1, 218790, Note_on_c, 1, 74, 127
1, 218982, Note_on_c, 1, 78, 127
1, 219001, Note_off_c, 1, 74, 0
1, 219014, Note_off_c, 1, 68, 0
1, 219155, Note_on_c, 1, 71, 127
1, 219161, Note_off_c, 1, 78, 0
1, 219353, Note_off_c, 1, 71, 0
1, 219539, Note_on_c, 1, 68, 127
1, 219552, Note_on_c, 1, 74, 127
1, 219596, Note_on_c, 1, 28, 127
1, 219596, Note_on_c, 1, 40, 127
1, 219737, Note_on_c, 1, 66, 127
1, 219756, Note_off_c, 1, 68, 0
1, 219916, Note_off_c, 1, 74, 0
1, 219942, Note_on_c, 1, 71, 127
1, 219980, Note_off_c, 1, 66, 0
1, 220050, Note_off_c, 1, 71, 0
1, 220159, Note_off_c, 1, 28, 0
1, 220159, Note_off_c, 1, 40, 0
1, 220313, Note_on_c, 1, 68, 127
1, 220320, Note_on_c, 1, 71, 127
1, 220485, Note_off_c, 1, 68, 0
1, 220531, Note_on_c, 1, 74, 127
1, 220537, Note_off_c, 1, 71, 0
1, 220684, Note_on_c, 1, 62, 127
1, 220710, Note_off_c, 1, 74, 0
1, 221080, Note_off_c, 1, 62, 0
1, 221094, Note_on_c, 1, 64, 127
1, 221145, Note_on_c, 1, 33, 127
1, 221145, Note_on_c, 1, 45, 127
1, 221280, Note_on_c, 1, 59, 127
1, 221465, Note_on_c, 1, 61, 127
1, 221478, Note_off_c, 1, 64, 0
1, 221478, Note_off_c, 1, 59, 0
1, 221478, Note_on_c, 1, 69, 127
1, 221625, Note_off_c, 1, 61, 0
1, 221823, Note_off_c, 1, 69, 0
1, 221824, Note_on_c, 1, 73, 127
1, 221849, Note_off_c, 1, 33, 0
1, 221849, Note_off_c, 1, 45, 0
1, 221856, Note_on_c, 1, 67, 127
1, 222016, Note_off_c, 1, 73, 0
1, 222035, Note_on_c, 1, 70, 127
1, 222048, Note_off_c, 1, 67, 0
1, 222188, Note_on_c, 1, 76, 127
1, 222201, Note_off_c, 1, 70, 0
1, 222328, Note_off_c, 1, 76, 0
1, 222572, Note_on_c, 1, 79, 127
1, 222572, Note_on_c, 1, 61, 127
1, 222630, Note_on_c, 1, 33, 127
1, 222630, Note_on_c, 1, 45, 127
1, 222751, Note_off_c, 1, 61, 0
1, 222764, Note_on_c, 1, 59, 127
1, 222956, Note_off_c, 1, 59, 0
1, 222976, Note_on_c, 1, 76, 127
1, 222988, Note_off_c, 1, 79, 0
1, 223129, Note_on_c, 1, 67, 127
1, 223321, Note_off_c, 1, 76, 0
1, 223321, Note_off_c, 1, 67, 0
1, 223321, Note_on_c, 1, 64, 127
1, 223347, Note_on_c, 1, 73, 127
1, 223449, Note_off_c, 1, 33, 0
1, 223449, Note_off_c, 1, 45, 0
1, 223507, Note_off_c, 1, 73, 0
1, 223545, Note_off_c, 1, 64, 0
1, 223718, Note_on_c, 1, 61, 127
1, 223750, Note_on_c, 1, 67, 127
1, 223890, Note_off_c, 1, 61, 0
1, 223897, Note_on_c, 1, 64, 127
1, 223954, Note_off_c, 1, 64, 0
1, 224128, Note_on_c, 1, 57, 127
1, 224179, Note_on_c, 1, 38, 127
1, 224179, Note_on_c, 1, 50, 127
1, 224243, Note_off_c, 1, 57, 0
1, 224262, Note_off_c, 1, 67, 0
1, 224569, Note_on_c, 1, 66, 127
1, 224594, Note_on_c, 1, 69, 127
1, 224665, Note_off_c, 1, 66, 0
1, 224844, Note_off_c, 1, 38, 0
1, 224844, Note_off_c, 1, 50, 0
1, 224940, Note_on_c, 1, 71, 127
1, 225149, Note_off_c, 1, 69, 0
1, 225266, Note_off_c, 1, 71, 0
1, 225356, Note_on_c, 1, 39, 127
1, 225356, Note_on_c, 1, 51, 127
1, 225535, Note_off_c, 1, 39, 0
1, 225535, Note_off_c, 1, 51, 0
1, 225700, Note_on_c, 1, 59, 127
1, 225740, Note_on_c, 1, 40, 127
1, 225740, Note_on_c, 1, 52, 127
1, 225926, Note_on_c, 1, 66, 127
1, 225938, Note_off_c, 1, 59, 0
1, 226099, Note_on_c, 1, 68, 127
1, 226101, Note_on_c, 1, 71, 127
1, 226111, Note_off_c, 1, 66, 0
1, 226233, Note_off_c, 1, 68, 0
1, 226483, Note_on_c, 1, 73, 127
1, 226488, Note_off_c, 1, 40, 0
1, 226488, Note_off_c, 1, 52, 0
1, 226680, Note_off_c, 1, 71, 0
1, 226803, Note_off_c, 1, 73, 0
1, 226841, Note_on_c, 1, 41, 127
1, 226841, Note_on_c, 1, 53, 127
1, 227052, Note_off_c, 1, 41, 0
1, 227052, Note_off_c, 1, 53, 0
1, 227230, Note_on_c, 1, 61, 127
1, 227238, Note_on_c, 1, 42, 127
1, 227238, Note_on_c, 1, 54, 127
1, 227385, Note_on_c, 1, 68, 127
1, 227460, Note_off_c, 1, 61, 0
1, 227584, Note_on_c, 1, 69, 127
1, 227609, Note_off_c, 1, 68, 0
1, 227644, Note_on_c, 1, 73, 127
1, 227724, Note_off_c, 1, 69, 0
1, 227980, Note_on_c, 1, 74, 127
1, 228050, Note_off_c, 1, 42, 0
1, 228050, Note_off_c, 1, 54, 0
1, 228173, Note_off_c, 1, 73, 0
1, 228376, Note_off_c, 1, 74, 0
1, 228732, Note_on_c, 1, 62, 127
1, 228812, Note_on_c, 1, 44, 127
1, 228812, Note_on_c, 1, 56, 127
1, 228940, Note_on_c, 1, 69, 127
1, 229131, Note_off_c, 1, 62, 0
1, 229132, Note_on_c, 1, 71, 127
1, 229164, Note_off_c, 1, 69, 0
1, 229168, Note_on_c, 1, 74, 127
1, 229266, Note_off_c, 1, 71, 0
1, 229516, Note_on_c, 1, 76, 127
1, 229573, Note_off_c, 1, 44, 0
1, 229573, Note_off_c, 1, 56, 0
1, 229709, Note_off_c, 1, 74, 0
1, 229848, Note_off_c, 1, 76, 0
1, 230259, Note_on_c, 1, 64, 127
1, 230310, Note_on_c, 1, 45, 127
1, 230310, Note_on_c, 1, 57, 127
1, 230438, Note_on_c, 1, 71, 127
1, 230532, Note_off_c, 1, 64, 0
1, 230617, Note_on_c, 1, 73, 127
1, 230642, Note_off_c, 1, 71, 0
1, 230679, Note_on_c, 1, 76, 127
1, 230719, Note_off_c, 1, 73, 0
1, 231001, Note_on_c, 1, 81, 127
1, 231092, Note_on_c, 1, 42, 127
1, 231092, Note_on_c, 1, 54, 127
1, 231116, Note_off_c, 1, 45, 0
1, 231116, Note_off_c, 1, 57, 0
1, 231169, Note_off_c, 1, 76, 0
1, 231263, Note_off_c, 1, 81, 0
1, 231375, Note_on_c, 1, 69, 127
1, 231561, Note_off_c, 1, 69, 0
1, 231804, Note_on_c, 1, 66, 127
1, 231858, Note_on_c, 1, 38, 127
1, 231858, Note_on_c, 1, 50, 127
1, 231904, Note_off_c, 1, 42, 0
1, 231904, Note_off_c, 1, 54, 0
1, 232058, Note_off_c, 1, 66, 0
1, 232231, Note_on_c, 1, 74, 127
1, 232614, Note_on_c, 1, 80, 127
1, 232652, Note_on_c, 1, 40, 127
1, 232652, Note_on_c, 1, 52, 127
1, 232670, Note_off_c, 1, 38, 0
1, 232670, Note_off_c, 1, 50, 0
1, 232789, Note_off_c, 1, 74, 0
1, 232889, Note_off_c, 1, 80, 0
1, 232978, Note_on_c, 1, 68, 127
1, 233134, Note_off_c, 1, 68, 0
1, 233383, Note_on_c, 1, 61, 127
1, 233407, Note_off_c, 1, 40, 0
1, 233407, Note_off_c, 1, 52, 0
1, 233585, Note_off_c, 1, 61, 0
1, 234188, Note_on_c, 1, 78, 127
1, 234508, Note_off_c, 1, 78, 0
1, 234907, Note_on_c, 1, 62, 127
1, 234944, Note_on_c, 1, 35, 127
1, 234944, Note_on_c, 1, 47, 127
1, 235132, Note_off_c, 1, 62, 0
1, 235321, Note_on_c, 1, 67, 127
1, 235481, Note_off_c, 1, 67, 0
1, 235724, Note_on_c, 1, 37, 127
1, 235724, Note_on_c, 1, 49, 127
1, 235782, Note_off_c, 1, 35, 0
1, 235782, Note_off_c, 1, 47, 0
1, 236472, Note_off_c, 1, 37, 0
1, 236472, Note_off_c, 1, 49, 0
1, 238016, Note_on_c, 1, 32, 127
1, 238016, Note_on_c, 1, 44, 127
1, 238416, Note_on_c, 1, 59, 127
1, 238771, Note_on_c, 1, 33, 127
1, 238796, Note_off_c, 1, 32, 0
1, 238796, Note_off_c, 1, 44, 0
1, 238857, Note_off_c, 1, 59, 0
1, 239487, Note_off_c, 1, 33, 0
1, 239515, Note_on_c, 1, 54, 127
1, 239552, Note_on_c, 1, 35, 127
1, 239552, Note_on_c, 1, 47, 127
1, 239705, Note_on_c, 1, 61, 127
1, 239777, Note_off_c, 1, 54, 0
1, 239884, Note_on_c, 1, 62, 127
1, 239909, Note_off_c, 1, 61, 0
1, 239933, Note_on_c, 1, 66, 127
1, 240012, Note_off_c, 1, 62, 0
1, 240243, Note_on_c, 1, 71, 127
1, 240259, Note_off_c, 1, 66, 0
1, 240294, Note_on_c, 1, 32, 127
1, 240294, Note_on_c, 1, 44, 127
1, 240326, Note_off_c, 1, 35, 0
1, 240326, Note_off_c, 1, 47, 0
1, 240444, Note_on_c, 1, 64, 127
1, 240583, Note_off_c, 1, 64, 0
1, 240633, Note_on_c, 1, 68, 127
1, 240716, Note_off_c, 1, 68, 0
1, 241024, Note_on_c, 1, 33, 127
1, 241024, Note_on_c, 1, 45, 127
1, 241074, Note_off_c, 1, 32, 0
1, 241074, Note_off_c, 1, 44, 0
1, 241190, Note_off_c, 1, 33, 0
1, 241190, Note_off_c, 1, 45, 0
1, 241241, Note_off_c, 1, 71, 0
1, 241420, Note_on_c, 1, 69, 127
1, 241433, Note_on_c, 1, 30, 127
1, 241433, Note_on_c, 1, 42, 127
1, 241573, Note_off_c, 1, 30, 0
1, 241573, Note_off_c, 1, 42, 0
1, 241817, Note_on_c, 1, 37, 127
1, 241817, Note_on_c, 1, 49, 127
1, 241944, Note_off_c, 1, 69, 0
1, 242201, Note_off_c, 1, 37, 0
1, 242201, Note_off_c, 1, 49, 0
1, 242214, Note_on_c, 1, 67, 127
1, 242569, Note_on_c, 1, 57, 127
1, 242572, Note_on_c, 1, 38, 127
1, 242572, Note_on_c, 1, 50, 127
1, 242745, Note_off_c, 1, 67, 0
1, 242815, Note_off_c, 1, 38, 0
1, 242815, Note_off_c, 1, 50, 0
1, 242899, Note_off_c, 1, 57, 0
1, 242912, Note_on_c, 1, 66, 127
1, 242991, Note_on_c, 1, 62, 127
1, 242995, Note_on_c, 1, 35, 127
1, 242995, Note_on_c, 1, 47, 127
1, 243110, Note_off_c, 1, 66, 0
1, 243116, Note_on_c, 1, 68, 127
1, 243187, Note_off_c, 1, 35, 0
1, 243187, Note_off_c, 1, 47, 0
1, 243301, Note_off_c, 1, 68, 0
1, 243308, Note_on_c, 1, 69, 127
1, 243335, Note_off_c, 1, 62, 0
1, 243342, Note_on_c, 1, 64, 127
1, 243392, Note_on_c, 1, 37, 127
1, 243392, Note_on_c, 1, 49, 127
1, 243493, Note_off_c, 1, 69, 0
1, 243507, Note_on_c, 1, 73, 127
1, 243564, Note_off_c, 1, 73, 0
1, 243616, Note_off_c, 1, 64, 0
1, 243692, Note_on_c, 1, 71, 127
1, 243763, Note_on_c, 1, 38, 127
1, 243763, Note_on_c, 1, 50, 127
1, 243776, Note_off_c, 1, 37, 0
1, 243776, Note_off_c, 1, 49, 0
1, 243877, Note_off_c, 1, 71, 0
1, 243942, Note_off_c, 1, 38, 0
1, 243942, Note_off_c, 1, 50, 0
1, 244067, Note_on_c, 1, 59, 127
1, 244089, Note_on_c, 1, 68, 127
1, 244172, Note_on_c, 1, 40, 127
1, 244172, Note_on_c, 1, 52, 127
1, 244281, Note_off_c, 1, 68, 0
1, 244288, Note_on_c, 1, 64, 127
1, 244323, Note_off_c, 1, 59, 0
1, 244486, Note_on_c, 1, 71, 127
1, 244505, Note_off_c, 1, 64, 0
1, 244505, Note_on_c, 1, 66, 127
1, 244582, Note_on_c, 1, 38, 127
1, 244582, Note_on_c, 1, 50, 127
1, 244613, Note_off_c, 1, 40, 0
1, 244613, Note_off_c, 1, 52, 0
1, 244619, Note_off_c, 1, 71, 0
1, 244690, Note_off_c, 1, 66, 0
1, 244923, Note_on_c, 1, 69, 127
1, 244953, Note_on_c, 1, 37, 127
1, 244953, Note_on_c, 1, 49, 127
1, 245010, Note_off_c, 1, 38, 0
1, 245010, Note_off_c, 1, 50, 0
1, 245016, Note_off_c, 1, 69, 0
1, 245093, Note_off_c, 1, 37, 0
1, 245093, Note_off_c, 1, 49, 0
1, 245337, Note_on_c, 1, 35, 127
1, 245337, Note_on_c, 1, 47, 127
1, 245465, Note_off_c, 1, 35, 0
1, 245465, Note_off_c, 1, 47, 0
1, 245744, Note_on_c, 1, 73, 127
1, 245747, Note_on_c, 1, 33, 127
1, 245747, Note_on_c, 1, 45, 127
1, 245876, Note_off_c, 1, 73, 0
1, 246111, Note_on_c, 1, 57, 127
1, 246335, Note_off_c, 1, 57, 0
1, 246463, Note_off_c, 1, 33, 0
1, 246463, Note_off_c, 1, 45, 0
1, 246476, Note_on_c, 1, 74, 127
1, 246515, Note_on_c, 1, 35, 127
1, 246515, Note_on_c, 1, 47, 127
1, 246688, Note_on_c, 1, 73, 127
1, 246706, Note_off_c, 1, 74, 0
1, 246867, Note_off_c, 1, 73, 0
1, 246867, Note_on_c, 1, 71, 127
1, 247046, Note_on_c, 1, 69, 127
1, 247065, Note_off_c, 1, 71, 0
1, 247206, Note_off_c, 1, 69, 0
1, 247225, Note_on_c, 1, 76, 127
1, 247232, Note_on_c, 1, 37, 127
1, 247232, Note_on_c, 1, 49, 127
1, 247257, Note_off_c, 1, 35, 0
1, 247257, Note_off_c, 1, 47, 0
1, 247442, Note_off_c, 1, 76, 0
1, 248051, Note_off_c, 1, 37, 0
1, 248051, Note_off_c, 1, 49, 0
1, 248347, Note_on_c, 1, 64, 127
1, 248576, Note_off_c, 1, 64, 0
1, 248738, Note_on_c, 1, 66, 127
1, 248780, Note_on_c, 1, 38, 127
1, 248780, Note_on_c, 1, 50, 127
1, 248957, Note_off_c, 1, 66, 0
1, 249491, Note_on_c, 1, 68, 127
1, 249523, Note_on_c, 1, 40, 127
1, 249523, Note_on_c, 1, 52, 127
1, 249528, Note_off_c, 1, 38, 0
1, 249528, Note_off_c, 1, 50, 0
1, 249670, Note_off_c, 1, 68, 0
1, 250278, Note_on_c, 1, 42, 127
1, 250278, Note_on_c, 1, 54, 127
1, 250316, Note_off_c, 1, 40, 0
1, 250316, Note_off_c, 1, 52, 0
1, 251039, Note_off_c, 1, 42, 0
1, 251039, Note_off_c, 1, 54, 0
1, 252537, Note_on_c, 1, 78, 127
1, 252741, Note_off_c, 1, 78, 0
1, 252966, Note_on_c, 1, 28, 127
1, 253158, Note_off_c, 1, 28, 0
1, 253295, Note_on_c, 1, 69, 127
1, 253324, Note_on_c, 1, 73, 127
1, 253350, Note_on_c, 1, 33, 127
1, 253350, Note_on_c, 1, 45, 127
1, 253458, Note_off_c, 1, 33, 0
1, 253458, Note_off_c, 1, 45, 0
1, 253509, Note_off_c, 1, 73, 0
1, 253516, Note_on_c, 1, 71, 127
1, 253714, Note_off_c, 1, 71, 0
1, 253721, Note_on_c, 1, 57, 127
1, 253842, Note_off_c, 1, 57, 0
1, 254047, Note_off_c, 1, 69, 0
1, 254073, Note_on_c, 1, 73, 127
1, 254144, Note_on_c, 1, 44, 127
1, 254144, Note_on_c, 1, 56, 127
1, 254265, Note_on_c, 1, 75, 127
1, 254271, Note_off_c, 1, 73, 0
1, 254438, Note_on_c, 1, 76, 127
1, 254443, Note_on_c, 1, 64, 127
1, 254444, Note_off_c, 1, 75, 0
1, 254534, Note_off_c, 1, 44, 0
1, 254534, Note_off_c, 1, 56, 0
1, 254610, Note_off_c, 1, 76, 0
1, 254624, Note_on_c, 1, 66, 127
1, 254649, Note_off_c, 1, 64, 0
1, 254717, Note_on_c, 1, 42, 127
1, 254717, Note_on_c, 1, 54, 127
1, 254755, Note_off_c, 1, 66, 0
1, 254813, Note_off_c, 1, 42, 0
1, 254813, Note_off_c, 1, 54, 0
1, 254848, Note_on_c, 1, 76, 127
1, 254850, Note_on_c, 1, 68, 127
1, 254924, Note_on_c, 1, 40, 127
1, 254924, Note_on_c, 1, 52, 127
1, 255064, Note_on_c, 1, 66, 127
1, 255068, Note_off_c, 1, 68, 0
1, 255078, Note_on_c, 1, 78, 127
1, 255091, Note_off_c, 1, 76, 0
1, 255242, Note_on_c, 1, 64, 127
1, 255248, Note_off_c, 1, 66, 0
1, 255257, Note_off_c, 1, 78, 0
1, 255257, Note_on_c, 1, 80, 127
1, 255364, Note_off_c, 1, 64, 0
1, 255365, Note_off_c, 1, 80, 0
1, 255633, Note_on_c, 1, 69, 127
1, 255858, Note_off_c, 1, 69, 0
1, 255993, Note_on_c, 1, 81, 127
1, 256172, Note_off_c, 1, 81, 0
1, 256356, Note_on_c, 1, 71, 127
1, 256472, Note_off_c, 1, 40, 0
1, 256472, Note_off_c, 1, 52, 0
1, 256581, Note_off_c, 1, 71, 0
1, 256768, Note_on_c, 1, 83, 127
1, 256819, Note_on_c, 1, 28, 127
1, 256947, Note_off_c, 1, 83, 0
1, 256979, Note_off_c, 1, 28, 0
1, 257561, Note_on_c, 1, 44, 127
1, 257561, Note_on_c, 1, 56, 127
1, 257663, Note_off_c, 1, 44, 0
1, 257663, Note_off_c, 1, 56, 0
1, 257753, Note_on_c, 1, 74, 127
1, 257919, Note_off_c, 1, 74, 0
1, 257945, Note_on_c, 1, 73, 127
1, 257945, Note_on_c, 1, 45, 127
1, 257945, Note_on_c, 1, 57, 127
1, 258149, Note_off_c, 1, 73, 0
1, 258309, Note_off_c, 1, 45, 0
1, 258309, Note_off_c, 1, 57, 0
1, 258329, Note_on_c, 1, 42, 127
1, 258329, Note_on_c, 1, 54, 127
1, 258675, Note_on_c, 1, 75, 127
1, 258713, Note_off_c, 1, 42, 0
1, 258713, Note_off_c, 1, 54, 0
1, 258726, Note_on_c, 1, 47, 127
1, 258726, Note_on_c, 1, 59, 127
1, 258828, Note_off_c, 1, 47, 0
1, 258828, Note_off_c, 1, 59, 0
1, 258867, Note_off_c, 1, 75, 0
1, 259110, Note_on_c, 1, 35, 127
1, 259206, Note_off_c, 1, 35, 0
1, 261839, Note_on_c, 1, 68, 127
1, 261843, Note_on_c, 1, 74, 127
1, 262032, Note_off_c, 1, 68, 0
1, 262040, Note_on_c, 1, 66, 127
1, 262240, Note_off_c, 1, 66, 0
1, 262418, Note_on_c, 1, 71, 127
1, 262571, Note_off_c, 1, 71, 0
1, 262604, Note_on_c, 1, 33, 127
1, 262604, Note_on_c, 1, 45, 127
1, 262626, Note_on_c, 1, 69, 127
1, 262828, Note_on_c, 1, 76, 127
1, 262841, Note_off_c, 1, 74, 0
1, 262856, Note_off_c, 1, 69, 0
1, 263000, Note_off_c, 1, 76, 0
1, 263017, Note_on_c, 1, 64, 127
1, 263196, Note_off_c, 1, 64, 0
1, 263360, Note_on_c, 1, 73, 127
1, 263539, Note_off_c, 1, 73, 0
1, 264128, Note_on_c, 1, 37, 127
1, 264128, Note_on_c, 1, 49, 127
1, 264159, Note_off_c, 1, 33, 0
1, 264159, Note_off_c, 1, 45, 0
1, 264864, Note_off_c, 1, 37, 0
1, 264864, Note_off_c, 1, 49, 0
1, 264883, Note_on_c, 1, 38, 127
1, 264883, Note_on_c, 1, 50, 127
1, 265222, Note_on_c, 1, 78, 127
1, 265638, Note_on_c, 1, 40, 127
1, 265638, Note_on_c, 1, 52, 127
1, 265651, Note_off_c, 1, 38, 0
1, 265651, Note_off_c, 1, 50, 0
1, 265798, Note_off_c, 1, 78, 0
1, 265811, Note_on_c, 1, 80, 127
1, 266047, Note_off_c, 1, 80, 0
1, 266176, Note_on_c, 1, 75, 127
1, 266265, Note_off_c, 1, 75, 0
1, 266809, Note_off_c, 1, 40, 0
1, 266809, Note_off_c, 1, 52, 0
1, 267134, Note_on_c, 1, 70, 127
1, 267483, Note_off_c, 1, 70, 0
1, 267559, Note_on_c, 1, 58, 127
1, 267692, Note_off_c, 1, 58, 0
1, 267904, Note_on_c, 1, 59, 127
1, 267980, Note_on_c, 1, 35, 127
1, 267980, Note_on_c, 1, 47, 127
1, 268143, Note_off_c, 1, 59, 0
1, 268659, Note_on_c, 1, 77, 127
1, 268735, Note_off_c, 1, 35, 0
1, 268735, Note_off_c, 1, 47, 0
1, 268870, Note_off_c, 1, 77, 0
1, 269024, Note_on_c, 1, 65, 127
1, 269139, Note_off_c, 1, 65, 0
1, 270380, Note_on_c, 1, 81, 127
1, 270546, Note_off_c, 1, 81, 0
1, 270566, Note_on_c, 1, 80, 127
1, 270598, Note_on_c, 1, 71, 127
1, 270751, Note_off_c, 1, 80, 0
1, 270752, Note_on_c, 1, 78, 127
1, 270767, Note_off_c, 1, 71, 0
1, 270922, Note_on_c, 1, 61, 127
1, 270944, Note_off_c, 1, 78, 0
1, 270950, Note_on_c, 1, 77, 127
1, 271094, Note_off_c, 1, 61, 0
1, 271148, Note_on_c, 1, 75, 127
1, 271154, Note_off_c, 1, 77, 0
1, 271340, Note_on_c, 1, 73, 127
1, 271352, Note_off_c, 1, 75, 0
1, 271367, Note_on_c, 1, 68, 127
1, 271532, Note_off_c, 1, 73, 0
1, 271737, Note_on_c, 1, 69, 127
1, 271808, Note_on_c, 1, 37, 127
1, 271808, Note_on_c, 1, 49, 127
1, 271911, Note_off_c, 1, 68, 0
1, 272309, Note_on_c, 1, 65, 127
1, 272493, Note_off_c, 1, 65, 0
1, 272528, Note_on_c, 1, 66, 127
1, 272773, Note_off_c, 1, 69, 0
1, 273248, Note_off_c, 1, 37, 0
1, 273248, Note_off_c, 1, 49, 0
1, 273526, Note_on_c, 1, 63, 127
1, 273530, Note_off_c, 1, 66, 0
1, 273635, Note_off_c, 1, 63, 0
1, 273723, Note_on_c, 1, 64, 127
1, 273907, Note_on_c, 1, 70, 127
1, 274003, Note_off_c, 1, 70, 0
1, 274107, Note_off_c, 1, 64, 0
1, 274124, Note_on_c, 1, 35, 127
1, 274124, Note_on_c, 1, 47, 127
1, 274269, Note_on_c, 1, 62, 127
1, 274362, Note_off_c, 1, 62, 0
1, 274472, Note_on_c, 1, 67, 127
1, 274668, Note_on_c, 1, 76, 127
1, 274725, Note_off_c, 1, 35, 0
1, 274725, Note_off_c, 1, 47, 0
1, 274841, Note_on_c, 1, 38, 127
1, 274841, Note_on_c, 1, 50, 127
1, 274855, Note_off_c, 1, 67, 0
1, 274860, Note_off_c, 1, 76, 0
1, 275250, Note_off_c, 1, 38, 0
1, 275250, Note_off_c, 1, 50, 0
1, 275603, Note_on_c, 1, 74, 127
1, 275807, Note_off_c, 1, 74, 0
1, 276364, Note_on_c, 1, 33, 127
1, 276364, Note_on_c, 1, 45, 127
1, 276748, Note_on_c, 1, 30, 127
1, 276748, Note_on_c, 1, 42, 127
1, 276780, Note_off_c, 1, 33, 0
1, 276780, Note_off_c, 1, 45, 0
1, 277145, Note_on_c, 1, 32, 127
1, 277145, Note_on_c, 1, 44, 127
1, 277183, Note_off_c, 1, 30, 0
1, 277183, Note_off_c, 1, 42, 0
1, 277951, Note_off_c, 1, 32, 0
1, 277951, Note_off_c, 1, 44, 0
1, 278489, Note_on_c, 1, 79, 127
1, 278687, Note_off_c, 1, 79, 0
1, 279238, Note_on_c, 1, 81, 127
1, 279436, Note_off_c, 1, 81, 0
1, 282694, Note_on_c, 1, 83, 127
1, 282847, Note_off_c, 1, 83, 0
1, 286561, Note_on_c, 1, 82, 127
1, 286750, Note_off_c, 1, 82, 0
1, 289124, Note_on_c, 1, 57, 127
1, 289515, Note_off_c, 1, 57, 0
1, 291370, Note_on_c, 1, 59, 127
1, 291624, Note_off_c, 1, 59, 0
1, 291761, Note_on_c, 1, 56, 127
1, 291972, Note_on_c, 1, 54, 127
1, 291976, Note_off_c, 1, 56, 0
1, 292188, Note_off_c, 1, 54, 0
1, 294818, Note_on_c, 1, 52, 127
1, 297956, Note_off_c, 1, 52, 0
1, 297956, End_track
0, 0, End_of_file