0, 0, Header, 1, 1, 480
1, 0, Start_track
1, 0, Title_t, "Test"
1, 0, Tempo, 500000
1, 0, Instrument_name_t, "Church Organ"
1, 0, Note_on_c, 1, 43, 127
1, 0, Note_on_c, 1, 31, 127
1, 116, Note_on_c, 1, 67, 127
1, 171, Note_on_c, 1, 69, 127
1, 178, Note_off_c, 1, 67, 0
1, 224, Note_off_c, 1, 43, 0
1, 224, Note_off_c, 1, 31, 0
1, 225, Note_on_c, 1, 55, 127
1, 229, Note_off_c, 1, 69, 0
1, 229, Note_on_c, 1, 71, 127
1, 291, Note_off_c, 1, 71, 0
1, 348, Note_on_c, 1, 66, 127
1, 402, Note_off_c, 1, 66, 0
1, 447, Note_off_c, 1, 55, 0
1, 451, Note_on_c, 1, 57, 127
1, 451, Note_on_c, 1, 45, 127
1, 456, Note_on_c, 1, 72, 127
1, 518, Note_off_c, 1, 72, 0
1, 683, Note_on_c, 1, 59, 127
1, 683, Note_on_c, 1, 47, 127
1, 686, Note_off_c, 1, 57, 0
1, 686, Note_off_c, 1, 45, 0
1, 693, Note_on_c, 1, 74, 127
1, 759, Note_off_c, 1, 74, 0
1, 931, Note_off_c, 1, 59, 0
1, 931, Note_off_c, 1, 47, 0
1, 1059, Note_on_c, 1, 35, 127
1, 1064, Note_on_c, 1, 64, 127
1, 1126, Note_on_c, 1, 62, 127
1, 1137, Note_off_c, 1, 64, 0
1, 1140, Note_off_c, 1, 35, 0
1, 1169, Note_off_c, 1, 62, 0
1, 1185, Note_on_c, 1, 48, 127
1, 1185, Note_on_c, 1, 36, 127
1, 1188, Note_on_c, 1, 64, 127
1, 1250, Note_on_c, 1, 67, 127
1, 1251, Note_off_c, 1, 64, 0
1, 1304, Note_on_c, 1, 50, 127
1, 1304, Note_on_c, 1, 38, 127
1, 1306, Note_off_c, 1, 48, 0
1, 1306, Note_off_c, 1, 36, 0
1, 1310, Note_on_c, 1, 72, 127
1, 1313, Note_off_c, 1, 67, 0
1, 1369, Note_on_c, 1, 66, 127
1, 1371, Note_off_c, 1, 72, 0
1, 1409, Note_off_c, 1, 66, 0
1, 1422, Note_off_c, 1, 50, 0
1, 1422, Note_off_c, 1, 38, 0
1, 1429, Note_on_c, 1, 52, 127
1, 1429, Note_on_c, 1, 40, 127
1, 1435, Note_on_c, 1, 67, 127
1, 1494, Note_on_c, 1, 69, 127
1, 1503, Note_off_c, 1, 67, 0
1, 1508, Note_off_c, 1, 52, 0
1, 1508, Note_off_c, 1, 40, 0
1, 1554, Note_on_c, 1, 47, 127
1, 1554, Note_on_c, 1, 35, 127
1, 1560, Note_on_c, 1, 71, 127
1, 1568, Note_off_c, 1, 69, 0
1, 1619, Note_on_c, 1, 62, 127
1, 1621, Note_off_c, 1, 71, 0
1, 1634, Note_off_c, 1, 47, 0
1, 1634, Note_off_c, 1, 35, 0
1, 1669, Note_off_c, 1, 62, 0
1, 1673, Note_on_c, 1, 48, 127
1, 1673, Note_on_c, 1, 36, 127
1, 1680, Note_on_c, 1, 64, 127
1, 1739, Note_on_c, 1, 71, 127
1, 1744, Note_off_c, 1, 64, 0
1, 1774, Note_off_c, 1, 48, 0
1, 1774, Note_off_c, 1, 36, 0
1, 1793, Note_on_c, 1, 69, 127
1, 1796, Note_on_c, 1, 45, 127
1, 1796, Note_on_c, 1, 33, 127
1, 1805, Note_off_c, 1, 71, 0
1, 1852, Note_on_c, 1, 67, 127
1, 1855, Note_off_c, 1, 69, 0
1, 1858, Note_off_c, 1, 45, 0
1, 1858, Note_off_c, 1, 33, 0
1, 1902, Note_on_c, 1, 50, 127
1, 1902, Note_on_c, 1, 38, 127
1, 1917, Note_on_c, 1, 66, 127
1, 1918, Note_off_c, 1, 67, 0
1, 1948, Note_off_c, 1, 66, 0
1, 1973, Note_off_c, 1, 50, 0
1, 1973, Note_off_c, 1, 38, 0
1, 1977, Note_on_c, 1, 76, 127
1, 2029, Note_on_c, 1, 38, 127
1, 2029, Note_on_c, 1, 26, 127
1, 2035, Note_off_c, 1, 76, 0
1, 2037, Note_on_c, 1, 74, 127
1, 2079, Note_off_c, 1, 74, 0
1, 2094, Note_off_c, 1, 38, 0
1, 2094, Note_off_c, 1, 26, 0
1, 2096, Note_on_c, 1, 72, 127
1, 2139, Note_off_c, 1, 72, 0
1, 2155, Note_on_c, 1, 71, 127
1, 2156, Note_on_c, 1, 43, 127
1, 2156, Note_on_c, 1, 31, 127
1, 2212, Note_on_c, 1, 69, 127
1, 2214, Note_off_c, 1, 71, 0
1, 2274, Note_off_c, 1, 69, 0
1, 2280, Note_on_c, 1, 62, 127
1, 2298, Note_off_c, 1, 43, 0
1, 2298, Note_off_c, 1, 31, 0
1, 2328, Note_off_c, 1, 62, 0
1, 2334, Note_on_c, 1, 64, 127
1, 2336, Note_on_c, 1, 73, 127
1, 2362, Note_off_c, 1, 64, 0
1, 2395, Note_off_c, 1, 73, 0
1, 2395, Note_on_c, 1, 66, 127
1, 2396, Note_on_c, 1, 74, 127
1, 2397, Note_on_c, 1, 50, 127
1, 2397, Note_on_c, 1, 38, 127
1, 2452, Note_off_c, 1, 66, 0
1, 2513, Note_on_c, 1, 61, 127
1, 2566, Note_off_c, 1, 61, 0
1, 2630, Note_on_c, 1, 67, 127
1, 2631, Note_on_c, 1, 52, 127
1, 2631, Note_on_c, 1, 40, 127
1, 2633, Note_off_c, 1, 50, 0
1, 2633, Note_off_c, 1, 38, 0
1, 2690, Note_off_c, 1, 67, 0
1, 2861, Note_on_c, 1, 54, 127
1, 2861, Note_on_c, 1, 42, 127
1, 2867, Note_off_c, 1, 52, 0
1, 2867, Note_off_c, 1, 40, 0
1, 2900, Note_off_c, 1, 74, 0
1, 3049, Note_on_c, 1, 76, 127
1, 3110, Note_on_c, 1, 78, 127
1, 3111, Note_off_c, 1, 76, 0
1, 3117, Note_off_c, 1, 54, 0
1, 3117, Note_off_c, 1, 42, 0
1, 3230, Note_on_c, 1, 59, 127
1, 3293, Note_on_c, 1, 57, 127
1, 3294, Note_off_c, 1, 59, 0
1, 3346, Note_on_c, 1, 55, 127
1, 3351, Note_off_c, 1, 57, 0
1, 3456, Note_off_c, 1, 55, 0
1, 3459, Note_on_c, 1, 45, 127
1, 3483, Note_off_c, 1, 78, 0
1, 3593, Note_off_c, 1, 45, 0
1, 3594, Note_on_c, 1, 47, 127
1, 3672, Note_off_c, 1, 47, 0
1, 3957, Note_on_c, 1, 52, 127
1, 3957, Note_on_c, 1, 40, 127
1, 3958, Note_on_c, 1, 64, 127
1, 3959, Note_on_c, 1, 74, 127
1, 4016, Note_off_c, 1, 64, 0
1, 4016, Note_off_c, 1, 74, 0
1, 4017, Note_on_c, 1, 62, 127
1, 4018, Note_on_c, 1, 76, 127
1, 4048, Note_off_c, 1, 76, 0
1, 4057, Note_off_c, 1, 52, 0
1, 4057, Note_off_c, 1, 40, 0
1, 4071, Note_on_c, 1, 57, 127
1, 4071, Note_on_c, 1, 45, 127
1, 4076, Note_on_c, 1, 61, 127
1, 4079, Note_off_c, 1, 62, 0
1, 4081, Note_on_c, 1, 78, 127
1, 4108, Note_off_c, 1, 78, 0
1, 4112, Note_off_c, 1, 61, 0
1, 4135, Note_off_c, 1, 57, 0
1, 4135, Note_off_c, 1, 45, 0
1, 4141, Note_on_c, 1, 71, 127
1, 4192, Note_on_c, 1, 33, 127
1, 4204, Note_off_c, 1, 71, 0
1, 4208, Note_on_c, 1, 69, 127
1, 4255, Note_off_c, 1, 33, 0
1, 4269, Note_on_c, 1, 67, 127
1, 4270, Note_off_c, 1, 69, 0
1, 4302, Note_off_c, 1, 67, 0
1, 4335, Note_on_c, 1, 50, 127
1, 4335, Note_on_c, 1, 38, 127
1, 4342, Note_on_c, 1, 66, 127
1, 4396, Note_off_c, 1, 66, 0
1, 4509, Note_on_c, 1, 79, 127
1, 4567, Note_on_c, 1, 81, 127
1, 4571, Note_off_c, 1, 79, 0
1, 4587, Note_off_c, 1, 50, 0
1, 4587, Note_off_c, 1, 38, 0
1, 4627, Note_off_c, 1, 81, 0
1, 4685, Note_on_c, 1, 73, 127
1, 4733, Note_off_c, 1, 73, 0
1, 4735, Note_on_c, 1, 74, 127
1, 4789, Note_off_c, 1, 74, 0
1, 4793, Note_on_c, 1, 83, 127
1, 4798, Note_on_c, 1, 68, 127
1, 4839, Note_off_c, 1, 83, 0
1, 4850, Note_on_c, 1, 74, 127
1, 4902, Note_off_c, 1, 68, 0
1, 4910, Note_off_c, 1, 74, 0
1, 4912, Note_on_c, 1, 76, 127
1, 4958, Note_off_c, 1, 76, 0
1, 4963, Note_on_c, 1, 71, 127
1, 5018, Note_off_c, 1, 71, 0
1, 5021, Note_on_c, 1, 72, 127
1, 5025, Note_on_c, 1, 69, 127
1, 5060, Note_off_c, 1, 72, 0
1, 5086, Note_on_c, 1, 74, 127
1, 5133, Note_off_c, 1, 69, 0
1, 5138, Note_off_c, 1, 74, 0
1, 5142, Note_on_c, 1, 76, 127
1, 5199, Note_off_c, 1, 76, 0
1, 5199, Note_on_c, 1, 78, 127
1, 5256, Note_off_c, 1, 78, 0
1, 5260, Note_on_c, 1, 79, 127
1, 5263, Note_on_c, 1, 64, 127
1, 5317, Note_off_c, 1, 79, 0
1, 5320, Note_on_c, 1, 72, 127
1, 5331, Note_off_c, 1, 64, 0
1, 5382, Note_on_c, 1, 71, 127
1, 5383, Note_off_c, 1, 72, 0
1, 5429, Note_off_c, 1, 71, 0
1, 5434, Note_on_c, 1, 72, 127
1, 5492, Note_on_c, 1, 81, 127
1, 5493, Note_off_c, 1, 72, 0
1, 5495, Note_on_c, 1, 66, 127
1, 5551, Note_off_c, 1, 81, 0
1, 5571, Note_off_c, 1, 66, 0
1, 5612, Note_on_c, 1, 74, 127
1, 5664, Note_off_c, 1, 74, 0
1, 5668, Note_on_c, 1, 69, 127
1, 5717, Note_off_c, 1, 69, 0
1, 5726, Note_on_c, 1, 71, 127
1, 5727, Note_on_c, 1, 67, 127
1, 5728, Note_on_c, 1, 43, 127
1, 5728, Note_on_c, 1, 31, 127
1, 5777, Note_off_c, 1, 71, 0
1, 5799, Note_on_c, 1, 69, 127
1, 5855, Note_off_c, 1, 69, 0
1, 5857, Note_off_c, 1, 67, 0
1, 5915, Note_on_c, 1, 72, 127
1, 5928, Note_off_c, 1, 43, 0
1, 5928, Note_off_c, 1, 31, 0
1, 5965, Note_on_c, 1, 47, 127
1, 5965, Note_on_c, 1, 35, 127
1, 5975, Note_on_c, 1, 74, 127
1, 5978, Note_off_c, 1, 72, 0
1, 6041, Note_off_c, 1, 74, 0
1, 6099, Note_on_c, 1, 66, 127
1, 6154, Note_off_c, 1, 66, 0
1, 6210, Note_on_c, 1, 48, 127
1, 6210, Note_on_c, 1, 36, 127
1, 6218, Note_off_c, 1, 47, 0
1, 6218, Note_off_c, 1, 35, 0
1, 6218, Note_on_c, 1, 76, 127
1, 6272, Note_off_c, 1, 76, 0
1, 6393, Note_on_c, 1, 64, 127
1, 6450, Note_on_c, 1, 50, 127
1, 6450, Note_on_c, 1, 38, 127
1, 6454, Note_off_c, 1, 48, 0
1, 6454, Note_off_c, 1, 36, 0
1, 6460, Note_off_c, 1, 64, 0
1, 6526, Note_on_c, 1, 54, 127
1, 6527, Note_on_c, 1, 62, 127
1, 6581, Note_off_c, 1, 54, 0
1, 6586, Note_off_c, 1, 62, 0
1, 6586, Note_on_c, 1, 55, 127
1, 6645, Note_on_c, 1, 57, 127
1, 6646, Note_off_c, 1, 55, 0
1, 6704, Note_off_c, 1, 57, 0
1, 6706, Note_on_c, 1, 59, 127
1, 6766, Note_off_c, 1, 59, 0
1, 6935, Note_on_c, 1, 60, 127
1, 6941, Note_off_c, 1, 50, 0
1, 6941, Note_off_c, 1, 38, 0
1, 7001, Note_off_c, 1, 60, 0
1, 7294, Note_on_c, 1, 52, 127
1, 7357, Note_off_c, 1, 52, 0
1, 7644, Note_on_c, 1, 45, 127
1, 7644, Note_on_c, 1, 33, 127
1, 7866, Note_off_c, 1, 45, 0
1, 7866, Note_off_c, 1, 33, 0
1, 8623, Note_on_c, 1, 40, 127
1, 8704, Note_off_c, 1, 40, 0
1, 9225, Note_on_c, 1, 26, 127
1, 9295, Note_off_c, 1, 26, 0
1, 10541, Note_on_c, 1, 78, 127
1, 10602, Note_off_c, 1, 78, 0
1, 10777, Note_on_c, 1, 79, 127
1, 10845, Note_off_c, 1, 79, 0
1, 11487, Note_on_c, 1, 59, 127
1, 11495, Note_on_c, 1, 74, 127
1, 11496, Note_on_c, 1, 67, 127
1, 11527, Note_off_c, 1, 59, 0
1, 11553, Note_on_c, 1, 50, 127
1, 11601, Note_off_c, 1, 74, 0
1, 11603, Note_off_c, 1, 67, 0
1, 11611, Note_on_c, 1, 52, 127
1, 11620, Note_off_c, 1, 50, 0
1, 11666, Note_on_c, 1, 54, 127
1, 11671, Note_off_c, 1, 52, 0
1, 11724, Note_off_c, 1, 54, 0
1, 11726, Note_on_c, 1, 55, 127
1, 11736, Note_on_c, 1, 43, 127
1, 11786, Note_on_c, 1, 57, 127
1, 11842, Note_on_c, 1, 59, 127
1, 11845, Note_off_c, 1, 57, 0
1, 11910, Note_on_c, 1, 60, 127
1, 11913, Note_off_c, 1, 59, 0
1, 11963, Note_off_c, 1, 60, 0
1, 11965, Note_on_c, 1, 62, 127
1, 11980, Note_on_c, 1, 45, 127
1, 11984, Note_off_c, 1, 55, 0
1, 11984, Note_off_c, 1, 43, 0
1, 12004, Note_off_c, 1, 62, 0
1, 12177, Note_off_c, 1, 45, 0
1, 12211, Note_on_c, 1, 62, 127
1, 12216, Note_on_c, 1, 59, 127
1, 12216, Note_on_c, 1, 47, 127
1, 12300, Note_on_c, 1, 67, 127
1, 12358, Note_on_c, 1, 69, 127
1, 12364, Note_off_c, 1, 67, 0
1, 12409, Note_off_c, 1, 69, 0
1, 12412, Note_on_c, 1, 71, 127
1, 12447, Note_off_c, 1, 59, 0
1, 12447, Note_off_c, 1, 47, 0
1, 12461, Note_on_c, 1, 57, 127
1, 12461, Note_on_c, 1, 45, 127
1, 12465, Note_off_c, 1, 71, 0
1, 12467, Note_on_c, 1, 72, 127
1, 12534, Note_off_c, 1, 72, 0
1, 12587, Note_on_c, 1, 66, 127
1, 12639, Note_off_c, 1, 66, 0
1, 12697, Note_on_c, 1, 74, 127
1, 12699, Note_on_c, 1, 55, 127
1, 12699, Note_on_c, 1, 43, 127
1, 12702, Note_off_c, 1, 57, 0
1, 12702, Note_off_c, 1, 45, 0
1, 12753, Note_off_c, 1, 74, 0
1, 12753, Note_on_c, 1, 65, 127
1, 12806, Note_off_c, 1, 65, 0
1, 12922, Note_on_c, 1, 60, 127
1, 12922, Note_on_c, 1, 48, 127
1, 12923, Note_off_c, 1, 55, 0
1, 12923, Note_off_c, 1, 43, 0
1, 12931, Note_on_c, 1, 64, 127
1, 12938, Note_off_c, 1, 62, 0
1, 13160, Note_off_c, 1, 60, 0
1, 13160, Note_off_c, 1, 48, 0
1, 13251, Note_off_c, 1, 64, 0
1, 13355, Note_on_c, 1, 55, 127
1, 13411, Note_off_c, 1, 55, 0
1, 13413, Note_on_c, 1, 57, 127
1, 13488, Note_on_c, 1, 60, 127
1, 13494, Note_off_c, 1, 57, 0
1, 13546, Note_off_c, 1, 60, 0
1, 13548, Note_on_c, 1, 59, 127
1, 13605, Note_on_c, 1, 62, 127
1, 13614, Note_off_c, 1, 59, 0
1, 13638, Note_on_c, 1, 60, 127
1, 13647, Note_off_c, 1, 62, 0
1, 13658, Note_off_c, 1, 60, 0
1, 13674, Note_on_c, 1, 45, 127
1, 13674, Note_on_c, 1, 33, 127
1, 13681, Note_on_c, 1, 60, 127
1, 13736, Note_on_c, 1, 69, 127
1, 13789, Note_off_c, 1, 69, 0
1, 13790, Note_on_c, 1, 71, 127
1, 13843, Note_off_c, 1, 71, 0
1, 13844, Note_on_c, 1, 72, 127
1, 13893, Note_on_c, 1, 47, 127
1, 13893, Note_on_c, 1, 35, 127
1, 13896, Note_off_c, 1, 45, 0
1, 13896, Note_off_c, 1, 33, 0
1, 13902, Note_on_c, 1, 74, 127
1, 13906, Note_off_c, 1, 72, 0
1, 13966, Note_off_c, 1, 74, 0
1, 14021, Note_on_c, 1, 68, 127
1, 14075, Note_off_c, 1, 68, 0
1, 14128, Note_on_c, 1, 48, 127
1, 14128, Note_on_c, 1, 36, 127
1, 14130, Note_off_c, 1, 47, 0
1, 14130, Note_off_c, 1, 35, 0
1, 14132, Note_on_c, 1, 76, 127
1, 14186, Note_off_c, 1, 76, 0
1, 14190, Note_on_c, 1, 67, 127
1, 14250, Note_off_c, 1, 67, 0
1, 14307, Note_on_c, 1, 64, 127
1, 14356, Note_off_c, 1, 64, 0
1, 14362, Note_on_c, 1, 50, 127
1, 14362, Note_on_c, 1, 38, 127
1, 14363, Note_off_c, 1, 48, 0
1, 14363, Note_off_c, 1, 36, 0
1, 14373, Note_on_c, 1, 66, 127
1, 14424, Note_on_c, 1, 59, 127
1, 14430, Note_off_c, 1, 60, 0
1, 14437, Note_off_c, 1, 66, 0
1, 14489, Note_on_c, 1, 57, 127
1, 14493, Note_off_c, 1, 59, 0
1, 14549, Note_off_c, 1, 57, 0
1, 14551, Note_on_c, 1, 55, 127
1, 14606, Note_off_c, 1, 50, 0
1, 14606, Note_off_c, 1, 38, 0
1, 14615, Note_on_c, 1, 54, 127
1, 14617, Note_off_c, 1, 55, 0
1, 14676, Note_off_c, 1, 54, 0
1, 14677, Note_on_c, 1, 52, 127
1, 14723, Note_on_c, 1, 42, 127
1, 14741, Note_off_c, 1, 52, 0
1, 14811, Note_off_c, 1, 42, 0
1, 14845, Note_on_c, 1, 43, 127
1, 14966, Note_off_c, 1, 43, 0
1, 14969, Note_on_c, 1, 51, 127
1, 14969, Note_on_c, 1, 39, 127
1, 15089, Note_off_c, 1, 51, 0
1, 15089, Note_off_c, 1, 39, 0
1, 15105, Note_on_c, 1, 40, 127
1, 15195, Note_off_c, 1, 40, 0
1, 15355, Note_on_c, 1, 65, 127
1, 15408, Note_on_c, 1, 63, 127
1, 15415, Note_off_c, 1, 65, 0
1, 15465, Note_off_c, 1, 63, 0
1, 15469, Note_on_c, 1, 79, 127
1, 15546, Note_off_c, 1, 79, 0
1, 15580, Note_on_c, 1, 49, 127
1, 15580, Note_on_c, 1, 37, 127
1, 15595, Note_on_c, 1, 78, 127
1, 15617, Note_on_c, 1, 58, 127
1, 15641, Note_off_c, 1, 58, 0
1, 15658, Note_off_c, 1, 78, 0
1, 15718, Note_on_c, 1, 75, 127
1, 15774, Note_off_c, 1, 75, 0
1, 15829, Note_off_c, 1, 49, 0
1, 15829, Note_off_c, 1, 37, 0
1, 15897, Note_on_c, 1, 73, 127
1, 15935, Note_off_c, 1, 73, 0
1, 16182, Note_on_c, 1, 70, 127
1, 16234, Note_off_c, 1, 70, 0
1, 16537, Note_on_c, 1, 81, 127
1, 16782, Note_off_c, 1, 81, 0
1, 16836, Note_on_c, 1, 84, 127
1, 16888, Note_off_c, 1, 84, 0
1, 16893, Note_on_c, 1, 83, 127
1, 16953, Note_off_c, 1, 83, 0
1, 18215, Note_on_c, 1, 31, 127
1, 18319, Note_off_c, 1, 31, 0
1, 18450, Note_on_c, 1, 47, 127
1, 18450, Note_on_c, 1, 35, 127
1, 18459, Note_on_c, 1, 59, 127
1, 18524, Note_on_c, 1, 64, 127
1, 18566, Note_off_c, 1, 64, 0
1, 18581, Note_on_c, 1, 66, 127
1, 18582, Note_on_c, 1, 57, 127
1, 18583, Note_off_c, 1, 59, 0
1, 18634, Note_off_c, 1, 47, 0
1, 18634, Note_off_c, 1, 35, 0
1, 18634, Note_off_c, 1, 57, 0
1, 18635, Note_off_c, 1, 66, 0
1, 18638, Note_on_c, 1, 63, 127
1, 18698, Note_on_c, 1, 40, 127
1, 18698, Note_on_c, 1, 28, 127
1, 18700, Note_off_c, 1, 63, 0
1, 18701, Note_on_c, 1, 64, 127
1, 18702, Note_on_c, 1, 55, 127
1, 18705, Note_on_c, 1, 59, 127
1, 18731, Note_off_c, 1, 64, 0
1, 18777, Note_on_c, 1, 71, 127
1, 18791, Note_off_c, 1, 55, 0
1, 18832, Note_on_c, 1, 73, 127
1, 18833, Note_off_c, 1, 71, 0
1, 18862, Note_off_c, 1, 40, 0
1, 18862, Note_off_c, 1, 28, 0
1, 18891, Note_off_c, 1, 73, 0
1, 18893, Note_on_c, 1, 75, 127
1, 18949, Note_off_c, 1, 75, 0
1, 18950, Note_on_c, 1, 76, 127
1, 18951, Note_on_c, 1, 43, 127
1, 18951, Note_on_c, 1, 31, 127
1, 19009, Note_off_c, 1, 76, 0
1, 19071, Note_on_c, 1, 69, 127
1, 19125, Note_off_c, 1, 69, 0
1, 19143, Note_off_c, 1, 43, 0
1, 19143, Note_off_c, 1, 31, 0
1, 19184, Note_on_c, 1, 78, 127
1, 19184, Note_on_c, 1, 47, 127
1, 19184, Note_on_c, 1, 35, 127
1, 19267, Note_off_c, 1, 59, 0
1, 19269, Note_off_c, 1, 78, 0
1, 19302, Note_on_c, 1, 60, 127
1, 19369, Note_off_c, 1, 60, 0
1, 19388, Note_off_c, 1, 47, 0
1, 19388, Note_off_c, 1, 35, 0
1, 19426, Note_on_c, 1, 59, 127
1, 19428, Note_on_c, 1, 52, 127
1, 19428, Note_on_c, 1, 40, 127
1, 19436, Note_on_c, 1, 79, 127
1, 19436, Note_on_c, 1, 76, 127
1, 19497, Note_on_c, 1, 78, 127
1, 19498, Note_off_c, 1, 79, 0
1, 19502, Note_off_c, 1, 76, 0
1, 19556, Note_off_c, 1, 78, 0
1, 19614, Note_on_c, 1, 74, 127
1, 19616, Note_off_c, 1, 52, 0
1, 19616, Note_off_c, 1, 40, 0
1, 19672, Note_on_c, 1, 72, 127
1, 19672, Note_on_c, 1, 28, 127
1, 19674, Note_off_c, 1, 74, 0
1, 19732, Note_off_c, 1, 59, 0
1, 19732, Note_on_c, 1, 62, 127
1, 19733, Note_on_c, 1, 71, 127
1, 19736, Note_off_c, 1, 72, 0
1, 19787, Note_on_c, 1, 60, 127
1, 19790, Note_off_c, 1, 71, 0
1, 19792, Note_on_c, 1, 69, 127
1, 19794, Note_off_c, 1, 62, 0
1, 19849, Note_off_c, 1, 60, 0
1, 19849, Note_off_c, 1, 69, 0
1, 19850, Note_on_c, 1, 67, 127
1, 19864, Note_off_c, 1, 67, 0
1, 19894, Note_off_c, 1, 28, 0
1, 19906, Note_on_c, 1, 57, 127
1, 19970, Note_off_c, 1, 57, 0
1, 20085, Note_on_c, 1, 77, 127
1, 20144, Note_off_c, 1, 77, 0
1, 20145, Note_on_c, 1, 76, 127
1, 20151, Note_on_c, 1, 60, 127
1, 20154, Note_on_c, 1, 45, 127
1, 20154, Note_on_c, 1, 33, 127
1, 20208, Note_off_c, 1, 76, 0
1, 20211, Note_on_c, 1, 81, 127
1, 20272, Note_on_c, 1, 79, 127
1, 20276, Note_off_c, 1, 81, 0
1, 20331, Note_on_c, 1, 77, 127
1, 20332, Note_off_c, 1, 79, 0
1, 20379, Note_on_c, 1, 47, 127
1, 20379, Note_on_c, 1, 35, 127
1, 20385, Note_off_c, 1, 45, 0
1, 20385, Note_off_c, 1, 33, 0
1, 20391, Note_off_c, 1, 77, 0
1, 20447, Note_on_c, 1, 74, 127
1, 20505, Note_on_c, 1, 72, 127
1, 20510, Note_off_c, 1, 74, 0
1, 20556, Note_off_c, 1, 72, 0
1, 20558, Note_on_c, 1, 71, 127
1, 20612, Note_on_c, 1, 48, 127
1, 20612, Note_on_c, 1, 36, 127
1, 20620, Note_on_c, 1, 69, 127
1, 20621, Note_off_c, 1, 47, 0
1, 20621, Note_off_c, 1, 35, 0
1, 20622, Note_off_c, 1, 71, 0
1, 20695, Note_off_c, 1, 69, 0
1, 20802, Note_on_c, 1, 67, 127
1, 20856, Note_off_c, 1, 67, 0
1, 20862, Note_off_c, 1, 60, 0
1, 20862, Note_on_c, 1, 50, 127
1, 20862, Note_on_c, 1, 38, 127
1, 20866, Note_on_c, 1, 66, 127
1, 20868, Note_off_c, 1, 48, 0
1, 20868, Note_off_c, 1, 36, 0
1, 20926, Note_on_c, 1, 62, 127
1, 20977, Note_off_c, 1, 66, 0
1, 20981, Note_on_c, 1, 64, 127
1, 20982, Note_off_c, 1, 62, 0
1, 21034, Note_off_c, 1, 64, 0
1, 21099, Note_on_c, 1, 59, 127
1, 21107, Note_off_c, 1, 50, 0
1, 21107, Note_off_c, 1, 38, 0
1, 21211, Note_on_c, 1, 43, 127
1, 21211, Note_on_c, 1, 31, 127
1, 21334, Note_off_c, 1, 43, 0
1, 21334, Note_off_c, 1, 31, 0
1, 21336, Note_on_c, 1, 65, 127
1, 21396, Note_off_c, 1, 65, 0
1, 21571, Note_off_c, 1, 59, 0
1, 21637, Note_on_c, 1, 52, 127
1, 21696, Note_on_c, 1, 54, 127
1, 21702, Note_off_c, 1, 52, 0
1, 21752, Note_on_c, 1, 55, 127
1, 21758, Note_off_c, 1, 54, 0
1, 21813, Note_off_c, 1, 55, 0
1, 21813, Note_on_c, 1, 57, 127
1, 21869, Note_off_c, 1, 57, 0
1, 23265, Note_on_c, 1, 78, 127
1, 23335, Note_off_c, 1, 78, 0
1, 23503, Note_on_c, 1, 26, 127
1, 23675, Note_off_c, 1, 26, 0
1, 24945, Note_on_c, 1, 48, 127
1, 24945, Note_on_c, 1, 36, 127
1, 24948, Note_on_c, 1, 64, 127
1, 25010, Note_on_c, 1, 67, 127
1, 25011, Note_off_c, 1, 64, 0
1, 25064, Note_on_c, 1, 50, 127
1, 25064, Note_on_c, 1, 38, 127
1, 25066, Note_off_c, 1, 48, 0
1, 25066, Note_off_c, 1, 36, 0
1, 25070, Note_on_c, 1, 72, 127
1, 25073, Note_off_c, 1, 67, 0
1, 25129, Note_on_c, 1, 66, 127
1, 25131, Note_off_c, 1, 72, 0
1, 25169, Note_off_c, 1, 66, 0
1, 25182, Note_off_c, 1, 50, 0
1, 25182, Note_off_c, 1, 38, 0
1, 25189, Note_on_c, 1, 52, 127
1, 25189, Note_on_c, 1, 40, 127
1, 25195, Note_on_c, 1, 67, 127
1, 25254, Note_on_c, 1, 69, 127
1, 25263, Note_off_c, 1, 67, 0
1, 25268, Note_off_c, 1, 52, 0
1, 25268, Note_off_c, 1, 40, 0
1, 25314, Note_on_c, 1, 47, 127
1, 25314, Note_on_c, 1, 35, 127
1, 25320, Note_on_c, 1, 71, 127
1, 25328, Note_off_c, 1, 69, 0
1, 25379, Note_on_c, 1, 62, 127
1, 25381, Note_off_c, 1, 71, 0
1, 25394, Note_off_c, 1, 47, 0
1, 25394, Note_off_c, 1, 35, 0
1, 25429, Note_off_c, 1, 62, 0
1, 25433, Note_on_c, 1, 48, 127
1, 25433, Note_on_c, 1, 36, 127
1, 25440, Note_on_c, 1, 64, 127
1, 25499, Note_on_c, 1, 71, 127
1, 25504, Note_off_c, 1, 64, 0
1, 25534, Note_off_c, 1, 48, 0
1, 25534, Note_off_c, 1, 36, 0
1, 25553, Note_on_c, 1, 69, 127
1, 25556, Note_on_c, 1, 45, 127
1, 25556, Note_on_c, 1, 33, 127
1, 25565, Note_off_c, 1, 71, 0
1, 25612, Note_on_c, 1, 67, 127
1, 25615, Note_off_c, 1, 69, 0
1, 25618, Note_off_c, 1, 45, 0
1, 25618, Note_off_c, 1, 33, 0
1, 25662, Note_on_c, 1, 50, 127
1, 25662, Note_on_c, 1, 38, 127
1, 25677, Note_on_c, 1, 66, 127
1, 25678, Note_off_c, 1, 67, 0
1, 25708, Note_off_c, 1, 66, 0
1, 25733, Note_off_c, 1, 50, 0
1, 25733, Note_off_c, 1, 38, 0
1, 25737, Note_on_c, 1, 76, 127
1, 25789, Note_on_c, 1, 38, 127
1, 25789, Note_on_c, 1, 26, 127
1, 25795, Note_off_c, 1, 76, 0
1, 25797, Note_on_c, 1, 74, 127
1, 25839, Note_off_c, 1, 74, 0
1, 25854, Note_off_c, 1, 38, 0
1, 25854, Note_off_c, 1, 26, 0
1, 25856, Note_on_c, 1, 72, 127
1, 25899, Note_off_c, 1, 72, 0
1, 25915, Note_on_c, 1, 71, 127
1, 25916, Note_on_c, 1, 43, 127
1, 25916, Note_on_c, 1, 31, 127
1, 25972, Note_on_c, 1, 69, 127
1, 25974, Note_off_c, 1, 71, 0
1, 26034, Note_off_c, 1, 69, 0
1, 26040, Note_on_c, 1, 62, 127
1, 26058, Note_off_c, 1, 43, 0
1, 26058, Note_off_c, 1, 31, 0
1, 26088, Note_off_c, 1, 62, 0
1, 26094, Note_on_c, 1, 64, 127
1, 26096, Note_on_c, 1, 73, 127
1, 26122, Note_off_c, 1, 64, 0
1, 26155, Note_off_c, 1, 73, 0
1, 26155, Note_on_c, 1, 66, 127
1, 26156, Note_on_c, 1, 74, 127
1, 26157, Note_on_c, 1, 50, 127
1, 26157, Note_on_c, 1, 38, 127
1, 26212, Note_off_c, 1, 66, 0
1, 26273, Note_on_c, 1, 61, 127
1, 26326, Note_off_c, 1, 61, 0
1, 26390, Note_on_c, 1, 67, 127
1, 26391, Note_on_c, 1, 52, 127
1, 26391, Note_on_c, 1, 40, 127
1, 26393, Note_off_c, 1, 50, 0
1, 26393, Note_off_c, 1, 38, 0
1, 26450, Note_off_c, 1, 67, 0
1, 26621, Note_on_c, 1, 54, 127
1, 26621, Note_on_c, 1, 42, 127
1, 26627, Note_off_c, 1, 52, 0
1, 26627, Note_off_c, 1, 40, 0
1, 26660, Note_off_c, 1, 74, 0
1, 26809, Note_on_c, 1, 76, 127
1, 26870, Note_on_c, 1, 78, 127
1, 26871, Note_off_c, 1, 76, 0
1, 26877, Note_off_c, 1, 54, 0
1, 26877, Note_off_c, 1, 42, 0
1, 26990, Note_on_c, 1, 59, 127
1, 27053, Note_on_c, 1, 57, 127
1, 27054, Note_off_c, 1, 59, 0
1, 27106, Note_on_c, 1, 55, 127
1, 27111, Note_off_c, 1, 57, 0
1, 27216, Note_off_c, 1, 55, 0
1, 27219, Note_on_c, 1, 45, 127
1, 27243, Note_off_c, 1, 78, 0
1, 27353, Note_off_c, 1, 45, 0
1, 27354, Note_on_c, 1, 47, 127
1, 27432, Note_off_c, 1, 47, 0
1, 27717, Note_on_c, 1, 52, 127
1, 27717, Note_on_c, 1, 40, 127
1, 27718, Note_on_c, 1, 64, 127
1, 27719, Note_on_c, 1, 74, 127
1, 27776, Note_off_c, 1, 64, 0
1, 27776, Note_off_c, 1, 74, 0
1, 27777, Note_on_c, 1, 62, 127
1, 27778, Note_on_c, 1, 76, 127
1, 27808, Note_off_c, 1, 76, 0
1, 27817, Note_off_c, 1, 52, 0
1, 27817, Note_off_c, 1, 40, 0
1, 27831, Note_on_c, 1, 57, 127
1, 27831, Note_on_c, 1, 45, 127
1, 27836, Note_on_c, 1, 61, 127
1, 27839, Note_off_c, 1, 62, 0
1, 27841, Note_on_c, 1, 78, 127
1, 27868, Note_off_c, 1, 78, 0
1, 27872, Note_off_c, 1, 61, 0
1, 27895, Note_off_c, 1, 57, 0
1, 27895, Note_off_c, 1, 45, 0
1, 27901, Note_on_c, 1, 71, 127
1, 27952, Note_on_c, 1, 33, 127
1, 27964, Note_off_c, 1, 71, 0
1, 27968, Note_on_c, 1, 69, 127
1, 28015, Note_off_c, 1, 33, 0
1, 28029, Note_on_c, 1, 67, 127
1, 28030, Note_off_c, 1, 69, 0
1, 28062, Note_off_c, 1, 67, 0
1, 28095, Note_on_c, 1, 50, 127
1, 28095, Note_on_c, 1, 38, 127
1, 28102, Note_on_c, 1, 66, 127
1, 28156, Note_off_c, 1, 66, 0
1, 28269, Note_on_c, 1, 79, 127
1, 28327, Note_on_c, 1, 81, 127
1, 28331, Note_off_c, 1, 79, 0
1, 28347, Note_off_c, 1, 50, 0
1, 28347, Note_off_c, 1, 38, 0
1, 28387, Note_off_c, 1, 81, 0
1, 28445, Note_on_c, 1, 73, 127
1, 28493, Note_off_c, 1, 73, 0
1, 28495, Note_on_c, 1, 74, 127
1, 28549, Note_off_c, 1, 74, 0
1, 28553, Note_on_c, 1, 83, 127
1, 28558, Note_on_c, 1, 68, 127
1, 28599, Note_off_c, 1, 83, 0
1, 28610, Note_on_c, 1, 74, 127
1, 28662, Note_off_c, 1, 68, 0
1, 28670, Note_off_c, 1, 74, 0
1, 28672, Note_on_c, 1, 76, 127
1, 28718, Note_off_c, 1, 76, 0
1, 28723, Note_on_c, 1, 71, 127
1, 28778, Note_off_c, 1, 71, 0
1, 28781, Note_on_c, 1, 72, 127
1, 28785, Note_on_c, 1, 69, 127
1, 28820, Note_off_c, 1, 72, 0
1, 28846, Note_on_c, 1, 74, 127
1, 28893, Note_off_c, 1, 69, 0
1, 28898, Note_off_c, 1, 74, 0
1, 28902, Note_on_c, 1, 76, 127
1, 28959, Note_off_c, 1, 76, 0
1, 28959, Note_on_c, 1, 78, 127
1, 29016, Note_off_c, 1, 78, 0
1, 29020, Note_on_c, 1, 79, 127
1, 29023, Note_on_c, 1, 64, 127
1, 29077, Note_off_c, 1, 79, 0
1, 29080, Note_on_c, 1, 72, 127
1, 29091, Note_off_c, 1, 64, 0
1, 29142, Note_on_c, 1, 71, 127
1, 29143, Note_off_c, 1, 72, 0
1, 29189, Note_off_c, 1, 71, 0
1, 29194, Note_on_c, 1, 72, 127
1, 29252, Note_on_c, 1, 81, 127
1, 29253, Note_off_c, 1, 72, 0
1, 29255, Note_on_c, 1, 66, 127
1, 29311, Note_off_c, 1, 81, 0
1, 29331, Note_off_c, 1, 66, 0
1, 29372, Note_on_c, 1, 74, 127
1, 29424, Note_off_c, 1, 74, 0
1, 29428, Note_on_c, 1, 69, 127
1, 29477, Note_off_c, 1, 69, 0
1, 29486, Note_on_c, 1, 71, 127
1, 29487, Note_on_c, 1, 67, 127
1, 29488, Note_on_c, 1, 43, 127
1, 29488, Note_on_c, 1, 31, 127
1, 29537, Note_off_c, 1, 71, 0
1, 29559, Note_on_c, 1, 69, 127
1, 29615, Note_off_c, 1, 69, 0
1, 29617, Note_off_c, 1, 67, 0
1, 29675, Note_on_c, 1, 72, 127
1, 29688, Note_off_c, 1, 43, 0
1, 29688, Note_off_c, 1, 31, 0
1, 29725, Note_on_c, 1, 47, 127
1, 29725, Note_on_c, 1, 35, 127
1, 29735, Note_on_c, 1, 74, 127
1, 29738, Note_off_c, 1, 72, 0
1, 29801, Note_off_c, 1, 74, 0
1, 29859, Note_on_c, 1, 66, 127
1, 29914, Note_off_c, 1, 66, 0
1, 29970, Note_on_c, 1, 48, 127
1, 29970, Note_on_c, 1, 36, 127
1, 29978, Note_off_c, 1, 47, 0
1, 29978, Note_off_c, 1, 35, 0
1, 29978, Note_on_c, 1, 76, 127
1, 30032, Note_off_c, 1, 76, 0
1, 30153, Note_on_c, 1, 64, 127
1, 30210, Note_on_c, 1, 50, 127
1, 30210, Note_on_c, 1, 38, 127
1, 30214, Note_off_c, 1, 48, 0
1, 30214, Note_off_c, 1, 36, 0
1, 30220, Note_off_c, 1, 64, 0
1, 30286, Note_on_c, 1, 54, 127
1, 30287, Note_on_c, 1, 62, 127
1, 30341, Note_off_c, 1, 54, 0
1, 30346, Note_off_c, 1, 62, 0
1, 30346, Note_on_c, 1, 55, 127
1, 30405, Note_on_c, 1, 57, 127
1, 30406, Note_off_c, 1, 55, 0
1, 30464, Note_off_c, 1, 57, 0
1, 30466, Note_on_c, 1, 59, 127
1, 30526, Note_off_c, 1, 59, 0
1, 30695, Note_on_c, 1, 60, 127
1, 30701, Note_off_c, 1, 50, 0
1, 30701, Note_off_c, 1, 38, 0
1, 30761, Note_off_c, 1, 60, 0
1, 31054, Note_on_c, 1, 52, 127
1, 31117, Note_off_c, 1, 52, 0
1, 31404, Note_on_c, 1, 45, 127
1, 31404, Note_on_c, 1, 33, 127
1, 31626, Note_off_c, 1, 45, 0
1, 31626, Note_off_c, 1, 33, 0
1, 32383, Note_on_c, 1, 40, 127
1, 32464, Note_off_c, 1, 40, 0
1, 32985, Note_on_c, 1, 26, 127
1, 33055, Note_off_c, 1, 26, 0
1, 34301, Note_on_c, 1, 78, 127
1, 34362, Note_off_c, 1, 78, 0
1, 34537, Note_on_c, 1, 79, 127
1, 34605, Note_off_c, 1, 79, 0
1, 35247, Note_on_c, 1, 59, 127
1, 35255, Note_on_c, 1, 74, 127
1, 35256, Note_on_c, 1, 67, 127
1, 35287, Note_off_c, 1, 59, 0
1, 35313, Note_on_c, 1, 50, 127
1, 35361, Note_off_c, 1, 74, 0
1, 35363, Note_off_c, 1, 67, 0
1, 35371, Note_on_c, 1, 52, 127
1, 35380, Note_off_c, 1, 50, 0
1, 35426, Note_on_c, 1, 54, 127
1, 35431, Note_off_c, 1, 52, 0
1, 35484, Note_off_c, 1, 54, 0
1, 35486, Note_on_c, 1, 55, 127
1, 35496, Note_on_c, 1, 43, 127
1, 35546, Note_on_c, 1, 57, 127
1, 35602, Note_on_c, 1, 59, 127
1, 35605, Note_off_c, 1, 57, 0
1, 35670, Note_on_c, 1, 60, 127
1, 35673, Note_off_c, 1, 59, 0
1, 35723, Note_off_c, 1, 60, 0
1, 35725, Note_on_c, 1, 62, 127
1, 35740, Note_on_c, 1, 45, 127
1, 35744, Note_off_c, 1, 55, 0
1, 35744, Note_off_c, 1, 43, 0
1, 35764, Note_off_c, 1, 62, 0
1, 35937, Note_off_c, 1, 45, 0
1, 35971, Note_on_c, 1, 62, 127
1, 35976, Note_on_c, 1, 59, 127
1, 35976, Note_on_c, 1, 47, 127
1, 36060, Note_on_c, 1, 67, 127
1, 36118, Note_on_c, 1, 69, 127
1, 36124, Note_off_c, 1, 67, 0
1, 36169, Note_off_c, 1, 69, 0
1, 36172, Note_on_c, 1, 71, 127
1, 36207, Note_off_c, 1, 59, 0
1, 36207, Note_off_c, 1, 47, 0
1, 36221, Note_on_c, 1, 57, 127
1, 36221, Note_on_c, 1, 45, 127
1, 36225, Note_off_c, 1, 71, 0
1, 36227, Note_on_c, 1, 72, 127
1, 36294, Note_off_c, 1, 72, 0
1, 36347, Note_on_c, 1, 66, 127
1, 36399, Note_off_c, 1, 66, 0
1, 36457, Note_on_c, 1, 74, 127
1, 36459, Note_on_c, 1, 55, 127
1, 36459, Note_on_c, 1, 43, 127
1, 36462, Note_off_c, 1, 57, 0
1, 36462, Note_off_c, 1, 45, 0
1, 36513, Note_off_c, 1, 74, 0
1, 36513, Note_on_c, 1, 65, 127
1, 36566, Note_off_c, 1, 65, 0
1, 36682, Note_on_c, 1, 60, 127
1, 36682, Note_on_c, 1, 48, 127
1, 36683, Note_off_c, 1, 55, 0
1, 36683, Note_off_c, 1, 43, 0
1, 36691, Note_on_c, 1, 64, 127
1, 36698, Note_off_c, 1, 62, 0
1, 36920, Note_off_c, 1, 60, 0
1, 36920, Note_off_c, 1, 48, 0
1, 37011, Note_off_c, 1, 64, 0
1, 37115, Note_on_c, 1, 55, 127
1, 37171, Note_off_c, 1, 55, 0
1, 37173, Note_on_c, 1, 57, 127
1, 37248, Note_on_c, 1, 60, 127
1, 37254, Note_off_c, 1, 57, 0
1, 37306, Note_off_c, 1, 60, 0
1, 37308, Note_on_c, 1, 59, 127
1, 37365, Note_on_c, 1, 62, 127
1, 37374, Note_off_c, 1, 59, 0
1, 37398, Note_on_c, 1, 60, 127
1, 37407, Note_off_c, 1, 62, 0
1, 37418, Note_off_c, 1, 60, 0
1, 37434, Note_on_c, 1, 45, 127
1, 37434, Note_on_c, 1, 33, 127
1, 37441, Note_on_c, 1, 60, 127
1, 37496, Note_on_c, 1, 69, 127
1, 37549, Note_off_c, 1, 69, 0
1, 37550, Note_on_c, 1, 71, 127
1, 37603, Note_off_c, 1, 71, 0
1, 37604, Note_on_c, 1, 72, 127
1, 37653, Note_on_c, 1, 47, 127
1, 37653, Note_on_c, 1, 35, 127
1, 37656, Note_off_c, 1, 45, 0
1, 37656, Note_off_c, 1, 33, 0
1, 37662, Note_on_c, 1, 74, 127
1, 37666, Note_off_c, 1, 72, 0
1, 37726, Note_off_c, 1, 74, 0
1, 37781, Note_on_c, 1, 68, 127
1, 37835, Note_off_c, 1, 68, 0
1, 37888, Note_on_c, 1, 48, 127
1, 37888, Note_on_c, 1, 36, 127
1, 37890, Note_off_c, 1, 47, 0
1, 37890, Note_off_c, 1, 35, 0
1, 37892, Note_on_c, 1, 76, 127
1, 37946, Note_off_c, 1, 76, 0
1, 37950, Note_on_c, 1, 67, 127
1, 38010, Note_off_c, 1, 67, 0
1, 38067, Note_on_c, 1, 64, 127
1, 38116, Note_off_c, 1, 64, 0
1, 38122, Note_on_c, 1, 50, 127
1, 38122, Note_on_c, 1, 38, 127
1, 38123, Note_off_c, 1, 48, 0
1, 38123, Note_off_c, 1, 36, 0
1, 38133, Note_on_c, 1, 66, 127
1, 38184, Note_on_c, 1, 59, 127
1, 38190, Note_off_c, 1, 60, 0
1, 38197, Note_off_c, 1, 66, 0
1, 38249, Note_on_c, 1, 57, 127
1, 38253, Note_off_c, 1, 59, 0
1, 38309, Note_off_c, 1, 57, 0
1, 38311, Note_on_c, 1, 55, 127
1, 38366, Note_off_c, 1, 50, 0
1, 38366, Note_off_c, 1, 38, 0
1, 38375, Note_on_c, 1, 54, 127
1, 38377, Note_off_c, 1, 55, 0
1, 38436, Note_off_c, 1, 54, 0
1, 38437, Note_on_c, 1, 52, 127
1, 38483, Note_on_c, 1, 42, 127
1, 38501, Note_off_c, 1, 52, 0
1, 38571, Note_off_c, 1, 42, 0
1, 38605, Note_on_c, 1, 43, 127
1, 38726, Note_off_c, 1, 43, 0
1, 38729, Note_on_c, 1, 51, 127
1, 38729, Note_on_c, 1, 39, 127
1, 38849, Note_off_c, 1, 51, 0
1, 38849, Note_off_c, 1, 39, 0
1, 38865, Note_on_c, 1, 40, 127
1, 38955, Note_off_c, 1, 40, 0
1, 39115, Note_on_c, 1, 65, 127
1, 39168, Note_on_c, 1, 63, 127
1, 39175, Note_off_c, 1, 65, 0
1, 39225, Note_off_c, 1, 63, 0
1, 39229, Note_on_c, 1, 79, 127
1, 39306, Note_off_c, 1, 79, 0
1, 39340, Note_on_c, 1, 49, 127
1, 39340, Note_on_c, 1, 37, 127
1, 39355, Note_on_c, 1, 78, 127
1, 39377, Note_on_c, 1, 58, 127
1, 39401, Note_off_c, 1, 58, 0
1, 39418, Note_off_c, 1, 78, 0
1, 39478, Note_on_c, 1, 75, 127
1, 39534, Note_off_c, 1, 75, 0
1, 39589, Note_off_c, 1, 49, 0
1, 39589, Note_off_c, 1, 37, 0
1, 39657, Note_on_c, 1, 73, 127
1, 39695, Note_off_c, 1, 73, 0
1, 39942, Note_on_c, 1, 70, 127
1, 39994, Note_off_c, 1, 70, 0
1, 40297, Note_on_c, 1, 81, 127
1, 40542, Note_off_c, 1, 81, 0
1, 40596, Note_on_c, 1, 84, 127
1, 40648, Note_off_c, 1, 84, 0
1, 40653, Note_on_c, 1, 83, 127
1, 40713, Note_off_c, 1, 83, 0
1, 41975, Note_on_c, 1, 31, 127
1, 42079, Note_off_c, 1, 31, 0
1, 42210, Note_on_c, 1, 47, 127
1, 42210, Note_on_c, 1, 35, 127
1, 42219, Note_on_c, 1, 59, 127
1, 42284, Note_on_c, 1, 64, 127
1, 42326, Note_off_c, 1, 64, 0
1, 42341, Note_on_c, 1, 66, 127
1, 42342, Note_on_c, 1, 57, 127
1, 42343, Note_off_c, 1, 59, 0
1, 42394, Note_off_c, 1, 47, 0
1, 42394, Note_off_c, 1, 35, 0
1, 42394, Note_off_c, 1, 57, 0
1, 42395, Note_off_c, 1, 66, 0
1, 42398, Note_on_c, 1, 63, 127
1, 42458, Note_on_c, 1, 40, 127
1, 42458, Note_on_c, 1, 28, 127
1, 42460, Note_off_c, 1, 63, 0
1, 42461, Note_on_c, 1, 64, 127
1, 42462, Note_on_c, 1, 55, 127
1, 42465, Note_on_c, 1, 59, 127
1, 42491, Note_off_c, 1, 64, 0
1, 42537, Note_on_c, 1, 71, 127
1, 42551, Note_off_c, 1, 55, 0
1, 42592, Note_on_c, 1, 73, 127
1, 42593, Note_off_c, 1, 71, 0
1, 42622, Note_off_c, 1, 40, 0
1, 42622, Note_off_c, 1, 28, 0
1, 42651, Note_off_c, 1, 73, 0
1, 42653, Note_on_c, 1, 75, 127
1, 42709, Note_off_c, 1, 75, 0
1, 42710, Note_on_c, 1, 76, 127
1, 42711, Note_on_c, 1, 43, 127
1, 42711, Note_on_c, 1, 31, 127
1, 42769, Note_off_c, 1, 76, 0
1, 42831, Note_on_c, 1, 69, 127
1, 42885, Note_off_c, 1, 69, 0
1, 42903, Note_off_c, 1, 43, 0
1, 42903, Note_off_c, 1, 31, 0
1, 42944, Note_on_c, 1, 78, 127
1, 42944, Note_on_c, 1, 47, 127
1, 42944, Note_on_c, 1, 35, 127
1, 43027, Note_off_c, 1, 59, 0
1, 43029, Note_off_c, 1, 78, 0
1, 43062, Note_on_c, 1, 60, 127
1, 43129, Note_off_c, 1, 60, 0
1, 43148, Note_off_c, 1, 47, 0
1, 43148, Note_off_c, 1, 35, 0
1, 43186, Note_on_c, 1, 59, 127
1, 43188, Note_on_c, 1, 52, 127
1, 43188, Note_on_c, 1, 40, 127
1, 43196, Note_on_c, 1, 79, 127
1, 43196, Note_on_c, 1, 76, 127
1, 43257, Note_on_c, 1, 78, 127
1, 43258, Note_off_c, 1, 79, 0
1, 43262, Note_off_c, 1, 76, 0
1, 43316, Note_off_c, 1, 78, 0
1, 43374, Note_on_c, 1, 74, 127
1, 43376, Note_off_c, 1, 52, 0
1, 43376, Note_off_c, 1, 40, 0
1, 43432, Note_on_c, 1, 72, 127
1, 43432, Note_on_c, 1, 28, 127
1, 43434, Note_off_c, 1, 74, 0
1, 43492, Note_off_c, 1, 59, 0
1, 43492, Note_on_c, 1, 62, 127
1, 43493, Note_on_c, 1, 71, 127
1, 43496, Note_off_c, 1, 72, 0
1, 43547, Note_on_c, 1, 60, 127
1, 43550, Note_off_c, 1, 71, 0
1, 43552, Note_on_c, 1, 69, 127
1, 43554, Note_off_c, 1, 62, 0
1, 43609, Note_off_c, 1, 60, 0
1, 43609, Note_off_c, 1, 69, 0
1, 43610, Note_on_c, 1, 67, 127
1, 43624, Note_off_c, 1, 67, 0
1, 43654, Note_off_c, 1, 28, 0
1, 43666, Note_on_c, 1, 57, 127
1, 43730, Note_off_c, 1, 57, 0
1, 43845, Note_on_c, 1, 77, 127
1, 43904, Note_off_c, 1, 77, 0
1, 43905, Note_on_c, 1, 76, 127
1, 43911, Note_on_c, 1, 60, 127
1, 43914, Note_on_c, 1, 45, 127
1, 43914, Note_on_c, 1, 33, 127
1, 43968, Note_off_c, 1, 76, 0
1, 43971, Note_on_c, 1, 81, 127
1, 44032, Note_on_c, 1, 79, 127
1, 44036, Note_off_c, 1, 81, 0
1, 44091, Note_on_c, 1, 77, 127
1, 44092, Note_off_c, 1, 79, 0
1, 44139, Note_on_c, 1, 47, 127
1, 44139, Note_on_c, 1, 35, 127
1, 44145, Note_off_c, 1, 45, 0
1, 44145, Note_off_c, 1, 33, 0
1, 44151, Note_off_c, 1, 77, 0
1, 44207, Note_on_c, 1, 74, 127
1, 44265, Note_on_c, 1, 72, 127
1, 44270, Note_off_c, 1, 74, 0
1, 44316, Note_off_c, 1, 72, 0
1, 44318, Note_on_c, 1, 71, 127
1, 44372, Note_on_c, 1, 48, 127
1, 44372, Note_on_c, 1, 36, 127
1, 44380, Note_on_c, 1, 69, 127
1, 44381, Note_off_c, 1, 47, 0
1, 44381, Note_off_c, 1, 35, 0
1, 44382, Note_off_c, 1, 71, 0
1, 44455, Note_off_c, 1, 69, 0
1, 44562, Note_on_c, 1, 67, 127
1, 44616, Note_off_c, 1, 67, 0
1, 44622, Note_off_c, 1, 60, 0
1, 44622, Note_on_c, 1, 50, 127
1, 44622, Note_on_c, 1, 38, 127
1, 44626, Note_on_c, 1, 66, 127
1, 44628, Note_off_c, 1, 48, 0
1, 44628, Note_off_c, 1, 36, 0
1, 44686, Note_on_c, 1, 62, 127
1, 44737, Note_off_c, 1, 66, 0
1, 44741, Note_on_c, 1, 64, 127
1, 44742, Note_off_c, 1, 62, 0
1, 44794, Note_off_c, 1, 64, 0
1, 44859, Note_on_c, 1, 59, 127
1, 44867, Note_off_c, 1, 50, 0
1, 44867, Note_off_c, 1, 38, 0
1, 44971, Note_on_c, 1, 43, 127
1, 44971, Note_on_c, 1, 31, 127
1, 45094, Note_off_c, 1, 43, 0
1, 45094, Note_off_c, 1, 31, 0
1, 45096, Note_on_c, 1, 65, 127
1, 45156, Note_off_c, 1, 65, 0
1, 45331, Note_off_c, 1, 59, 0
1, 45397, Note_on_c, 1, 52, 127
1, 45456, Note_on_c, 1, 54, 127
1, 45462, Note_off_c, 1, 52, 0
1, 45512, Note_on_c, 1, 55, 127
1, 45518, Note_off_c, 1, 54, 0
1, 45573, Note_off_c, 1, 55, 0
1, 45573, Note_on_c, 1, 57, 127
1, 45629, Note_off_c, 1, 57, 0
1, 47025, Note_on_c, 1, 78, 127
1, 47095, Note_off_c, 1, 78, 0
1, 47263, Note_on_c, 1, 26, 127
1, 47435, Note_off_c, 1, 26, 0
1, 49664, Note_on_c, 1, 60, 127
1, 49664, Note_on_c, 1, 48, 127
1, 49676, Note_on_c, 1, 64, 127
1, 49678, Note_on_c, 1, 67, 127
1, 49739, Note_on_c, 1, 62, 127
1, 49741, Note_off_c, 1, 64, 0
1, 49797, Note_off_c, 1, 62, 0
1, 49921, Note_off_c, 1, 67, 0
1, 49921, Note_on_c, 1, 54, 127
1, 49921, Note_on_c, 1, 69, 127
1, 49969, Note_off_c, 1, 54, 0
1, 49986, Note_on_c, 1, 57, 127
1, 50041, Note_off_c, 1, 57, 0
1, 50042, Note_on_c, 1, 59, 127
1, 50091, Note_off_c, 1, 59, 0
1, 50157, Note_on_c, 1, 47, 127
1, 50160, Note_on_c, 1, 71, 127
1, 50162, Note_off_c, 1, 69, 0
1, 50164, Note_off_c, 1, 60, 0
1, 50164, Note_off_c, 1, 48, 0
1, 50218, Note_on_c, 1, 56, 127
1, 50278, Note_off_c, 1, 56, 0
1, 50396, Note_off_c, 1, 71, 0
1, 50396, Note_on_c, 1, 72, 127
1, 50401, Note_on_c, 1, 45, 127
1, 50408, Note_off_c, 1, 47, 0
1, 50636, Note_on_c, 1, 65, 127
1, 50698, Note_off_c, 1, 65, 0
1, 50869, Note_on_c, 1, 44, 127
1, 50878, Note_off_c, 1, 45, 0
1, 50882, Note_off_c, 1, 72, 0
1, 51116, Note_off_c, 1, 44, 0
1, 51295, Note_on_c, 1, 55, 127
1, 51353, Note_on_c, 1, 53, 127
1, 51356, Note_off_c, 1, 55, 0
1, 51360, Note_on_c, 1, 50, 127
1, 51360, Note_on_c, 1, 38, 127
1, 51412, Note_on_c, 1, 52, 127
1, 51417, Note_off_c, 1, 53, 0
1, 51469, Note_off_c, 1, 52, 0
1, 51579, Note_on_c, 1, 68, 127
1, 51580, Note_on_c, 1, 40, 127
1, 51581, Note_off_c, 1, 50, 0
1, 51581, Note_off_c, 1, 38, 0
1, 51779, Note_off_c, 1, 40, 0
1, 51806, Note_on_c, 1, 33, 127
1, 51813, Note_off_c, 1, 68, 0
1, 51936, Note_on_c, 1, 76, 127
1, 51995, Note_off_c, 1, 76, 0
1, 51996, Note_on_c, 1, 81, 127
1, 52029, Note_off_c, 1, 33, 0
1, 52049, Note_on_c, 1, 35, 127
1, 52055, Note_off_c, 1, 81, 0
1, 52056, Note_on_c, 1, 74, 127
1, 52124, Note_on_c, 1, 73, 127
1, 52130, Note_off_c, 1, 74, 0
1, 52179, Note_off_c, 1, 73, 0
1, 52298, Note_on_c, 1, 49, 127
1, 52298, Note_on_c, 1, 37, 127
1, 52304, Note_off_c, 1, 35, 0
1, 52483, Note_on_c, 1, 79, 127
1, 52538, Note_off_c, 1, 49, 0
1, 52538, Note_off_c, 1, 37, 0
1, 52551, Note_on_c, 1, 77, 127
1, 52556, Note_off_c, 1, 79, 0
1, 52617, Note_off_c, 1, 77, 0
1, 53458, Note_on_c, 1, 78, 127
1, 53518, Note_off_c, 1, 78, 0
1, 54004, Note_on_c, 1, 75, 127
1, 54066, Note_off_c, 1, 75, 0
1, 54301, Note_on_c, 1, 66, 127
1, 54360, Note_off_c, 1, 66, 0
1, 54477, Note_on_c, 1, 42, 127
1, 54482, Note_on_c, 1, 61, 127
1, 54688, Note_off_c, 1, 42, 0
1, 54705, Note_off_c, 1, 61, 0
1, 54718, Note_on_c, 1, 63, 127
1, 54782, Note_off_c, 1, 63, 0
1, 55174, Note_on_c, 1, 51, 127
1, 55174, Note_on_c, 1, 39, 127
1, 55423, Note_off_c, 1, 51, 0
1, 55423, Note_off_c, 1, 39, 0
1, 56133, Note_on_c, 1, 36, 127
1, 56613, Note_off_c, 1, 36, 0
1, 57945, Note_on_c, 1, 43, 127
1, 57945, Note_on_c, 1, 31, 127
1, 58052, Note_off_c, 1, 43, 0
1, 58052, Note_off_c, 1, 31, 0
1, 59024, Note_on_c, 1, 41, 127
1, 59086, Note_on_c, 1, 58, 127
1, 59149, Note_off_c, 1, 58, 0
1, 59279, Note_off_c, 1, 41, 0
1, 60221, Note_on_c, 1, 28, 127
1, 60402, Note_off_c, 1, 28, 0
1, 60452, Note_on_c, 1, 45, 127
1, 60452, Note_on_c, 1, 33, 127
1, 60453, Note_on_c, 1, 57, 127
1, 60462, Note_on_c, 1, 69, 127
1, 60463, Note_on_c, 1, 72, 127
1, 60498, Note_off_c, 1, 69, 0
1, 60537, Note_off_c, 1, 72, 0
1, 60588, Note_on_c, 1, 68, 127
1, 60646, Note_off_c, 1, 68, 0
1, 60697, Note_on_c, 1, 47, 127
1, 60697, Note_on_c, 1, 35, 127
1, 60703, Note_off_c, 1, 45, 0
1, 60703, Note_off_c, 1, 33, 0
1, 60707, Note_on_c, 1, 74, 127
1, 60768, Note_off_c, 1, 74, 0
1, 60935, Note_on_c, 1, 49, 127
1, 60935, Note_on_c, 1, 37, 127
1, 60936, Note_off_c, 1, 47, 0
1, 60936, Note_off_c, 1, 35, 0
1, 60943, Note_on_c, 1, 76, 127
1, 61004, Note_off_c, 1, 76, 0
1, 61007, Note_on_c, 1, 67, 127
1, 61062, Note_off_c, 1, 67, 0
1, 61119, Note_on_c, 1, 64, 127
1, 61144, Note_off_c, 1, 64, 0
1, 61175, Note_off_c, 1, 49, 0
1, 61175, Note_off_c, 1, 37, 0
1, 61177, Note_on_c, 1, 50, 127
1, 61177, Note_on_c, 1, 38, 127
1, 61185, Note_on_c, 1, 62, 127
1, 61186, Note_on_c, 1, 65, 127
1, 61249, Note_off_c, 1, 65, 0
1, 61394, Note_off_c, 1, 62, 0
1, 61490, Note_on_c, 1, 66, 127
1, 61549, Note_off_c, 1, 66, 0
1, 61847, Note_off_c, 1, 50, 0
1, 61847, Note_off_c, 1, 38, 0
1, 61904, Note_off_c, 1, 57, 0
1, 61908, Note_on_c, 1, 52, 127
1, 61908, Note_on_c, 1, 40, 127
1, 61915, Note_on_c, 1, 64, 127
1, 61916, Note_on_c, 1, 68, 127
1, 61975, Note_on_c, 1, 66, 127
1, 61976, Note_off_c, 1, 68, 0
1, 62039, Note_off_c, 1, 66, 0
1, 62096, Note_on_c, 1, 71, 127
1, 62148, Note_on_c, 1, 54, 127
1, 62148, Note_on_c, 1, 42, 127
1, 62151, Note_off_c, 1, 52, 0
1, 62151, Note_off_c, 1, 40, 0
1, 62154, Note_on_c, 1, 69, 127
1, 62157, Note_off_c, 1, 71, 0
1, 62210, Note_off_c, 1, 69, 0
1, 62328, Note_on_c, 1, 72, 127
1, 62359, Note_off_c, 1, 72, 0
1, 62381, Note_off_c, 1, 54, 0
1, 62381, Note_off_c, 1, 42, 0
1, 62381, Note_on_c, 1, 56, 127
1, 62381, Note_on_c, 1, 44, 127
1, 62559, Note_on_c, 1, 74, 127
1, 62593, Note_off_c, 1, 56, 0
1, 62593, Note_off_c, 1, 44, 0
1, 62615, Note_on_c, 1, 57, 127
1, 62615, Note_on_c, 1, 45, 127
1, 62624, Note_off_c, 1, 74, 0
1, 62855, Note_off_c, 1, 57, 0
1, 62855, Note_off_c, 1, 45, 0
1, 62855, Note_on_c, 1, 59, 127
1, 62855, Note_on_c, 1, 47, 127
1, 63099, Note_on_c, 1, 76, 127
1, 63105, Note_on_c, 1, 60, 127
1, 63105, Note_on_c, 1, 48, 127
1, 63106, Note_off_c, 1, 59, 0
1, 63106, Note_off_c, 1, 47, 0
1, 63142, Note_off_c, 1, 76, 0
1, 63273, Note_off_c, 1, 60, 0
1, 63273, Note_off_c, 1, 48, 0
1, 63279, Note_off_c, 1, 64, 0
1, 63331, Note_on_c, 1, 50, 127
1, 63331, Note_on_c, 1, 38, 127
1, 63339, Note_on_c, 1, 65, 127
1, 63529, Note_off_c, 1, 65, 0
1, 63563, Note_off_c, 1, 50, 0
1, 63563, Note_off_c, 1, 38, 0
1, 63821, Note_on_c, 1, 28, 127
1, 63824, Note_on_c, 1, 62, 127
1, 63995, Note_off_c, 1, 28, 0
1, 64058, Note_on_c, 1, 33, 127
1, 64064, Note_off_c, 1, 62, 0
1, 64193, Note_on_c, 1, 61, 127
1, 64309, Note_off_c, 1, 61, 0
1, 64611, Note_on_c, 1, 67, 127
1, 64655, Note_off_c, 1, 67, 0
1, 64684, Note_off_c, 1, 33, 0
1, 64732, Note_on_c, 1, 73, 127
1, 64764, Note_off_c, 1, 73, 0
1, 64923, Note_on_c, 1, 36, 127
1, 65040, Note_on_c, 1, 55, 127
1, 65040, Note_on_c, 1, 35, 127
1, 65044, Note_off_c, 1, 36, 0
1, 65103, Note_off_c, 1, 55, 0
1, 65270, Note_off_c, 1, 35, 0
1, 65276, Note_on_c, 1, 78, 127
1, 65338, Note_on_c, 1, 79, 127
1, 65342, Note_off_c, 1, 78, 0
1, 65400, Note_off_c, 1, 79, 0
1, 65509, Note_on_c, 1, 43, 127
1, 65509, Note_on_c, 1, 31, 127
1, 65691, Note_on_c, 1, 83, 127
1, 65753, Note_off_c, 1, 43, 0
1, 65753, Note_off_c, 1, 31, 0
1, 65815, Note_off_c, 1, 83, 0
1, 66171, Note_on_c, 1, 81, 127
1, 66201, Note_off_c, 1, 81, 0
1, 66946, Note_on_c, 1, 26, 127
1, 67181, Note_off_c, 1, 26, 0
1, 67432, Note_on_c, 1, 77, 127
1, 67489, Note_off_c, 1, 77, 0
1, 67665, Note_on_c, 1, 24, 127
1, 67840, Note_on_c, 1, 63, 127
1, 67900, Note_off_c, 1, 63, 0
1, 67908, Note_off_c, 1, 24, 0
1, 67953, Note_on_c, 1, 59, 127
1, 68011, Note_on_c, 1, 60, 127
1, 68013, Note_off_c, 1, 59, 0
1, 68070, Note_on_c, 1, 56, 127
1, 68072, Note_off_c, 1, 60, 0
1, 68130, Note_off_c, 1, 56, 0
1, 68131, Note_on_c, 1, 57, 127
1, 68189, Note_on_c, 1, 52, 127
1, 68192, Note_off_c, 1, 57, 0
1, 68246, Note_off_c, 1, 52, 0
1, 68247, Note_on_c, 1, 53, 127
1, 68299, Note_off_c, 1, 53, 0
1, 68306, Note_on_c, 1, 51, 127
1, 68350, Note_off_c, 1, 51, 0
1, 68369, Note_on_c, 1, 52, 127
1, 68498, Note_off_c, 1, 52, 0
1, 68514, Note_on_c, 1, 54, 127
1, 68544, Note_off_c, 1, 54, 0
1, 68544, Note_on_c, 1, 56, 127
1, 68572, Note_off_c, 1, 56, 0
1, 68573, Note_on_c, 1, 57, 127
1, 68602, Note_off_c, 1, 57, 0
1, 68602, Note_on_c, 1, 59, 127
1, 68629, Note_off_c, 1, 59, 0
1, 68631, Note_on_c, 1, 61, 127
1, 68657, Note_on_c, 1, 63, 127
1, 68658, Note_off_c, 1, 61, 0
1, 68684, Note_off_c, 1, 63, 0
1, 68684, Note_on_c, 1, 64, 127
1, 68698, Note_on_c, 1, 66, 127
1, 68699, Note_off_c, 1, 64, 0
1, 68715, Note_off_c, 1, 66, 0
1, 68716, Note_on_c, 1, 67, 127
1, 68779, Note_off_c, 1, 67, 0
1, 68792, Note_on_c, 1, 66, 127
1, 68804, Note_off_c, 1, 66, 0
1, 68807, Note_on_c, 1, 64, 127
1, 68818, Note_off_c, 1, 64, 0
1, 68818, Note_on_c, 1, 63, 127
1, 68833, Note_off_c, 1, 63, 0
1, 68835, Note_on_c, 1, 64, 127
1, 68895, Note_off_c, 1, 64, 0
1, 68903, Note_on_c, 1, 62, 127
1, 68917, Note_on_c, 1, 60, 127
1, 68918, Note_off_c, 1, 62, 0
1, 68928, Note_off_c, 1, 60, 0
1, 68928, Note_on_c, 1, 59, 127
1, 68945, Note_off_c, 1, 59, 0
1, 69023, Note_on_c, 1, 64, 127
1, 69047, Note_off_c, 1, 64, 0
1, 69054, Note_on_c, 1, 58, 127
1, 69093, Note_off_c, 1, 58, 0
1, 69120, Note_on_c, 1, 76, 127
1, 69122, Note_on_c, 1, 79, 127
1, 69122, Note_on_c, 1, 59, 127
1, 69122, Note_on_c, 1, 49, 127
1, 69122, Note_on_c, 1, 37, 127
1, 69174, Note_off_c, 1, 76, 0
1, 69175, Note_on_c, 1, 74, 127
1, 69230, Note_off_c, 1, 74, 0
1, 69232, Note_on_c, 1, 73, 127
1, 69292, Note_off_c, 1, 73, 0
1, 69338, Note_off_c, 1, 49, 0
1, 69338, Note_off_c, 1, 37, 0
1, 69345, Note_on_c, 1, 54, 127
1, 69345, Note_on_c, 1, 42, 127
1, 69354, Note_on_c, 1, 78, 127
1, 69357, Note_off_c, 1, 79, 0
1, 69402, Note_off_c, 1, 59, 0
1, 69405, Note_on_c, 1, 58, 127
1, 69461, Note_on_c, 1, 56, 127
1, 69463, Note_off_c, 1, 58, 0
1, 69515, Note_off_c, 1, 56, 0
1, 69566, Note_off_c, 1, 54, 0
1, 69566, Note_off_c, 1, 42, 0
1, 69566, Note_on_c, 1, 52, 127
1, 69566, Note_on_c, 1, 40, 127
1, 69701, Note_on_c, 1, 71, 127
1, 69759, Note_off_c, 1, 71, 0
1, 69814, Note_on_c, 1, 51, 127
1, 69814, Note_on_c, 1, 39, 127
1, 69822, Note_off_c, 1, 52, 0
1, 69822, Note_off_c, 1, 40, 0
1, 69886, Note_on_c, 1, 72, 127
1, 69949, Note_off_c, 1, 72, 0
1, 70003, Note_on_c, 1, 69, 127
1, 70062, Note_off_c, 1, 51, 0
1, 70062, Note_off_c, 1, 39, 0
1, 70064, Note_off_c, 1, 69, 0
1, 70065, Note_on_c, 1, 67, 127
1, 70134, Note_off_c, 1, 78, 0
1, 70195, Note_off_c, 1, 67, 0
1, 70316, Note_on_c, 1, 66, 127
1, 70497, Note_on_c, 1, 75, 127
1, 70561, Note_on_c, 1, 55, 127
1, 70561, Note_on_c, 1, 43, 127
1, 70562, Note_off_c, 1, 75, 0
1, 70572, Note_off_c, 1, 66, 0
1, 70800, Note_on_c, 1, 57, 127
1, 70800, Note_on_c, 1, 45, 127
1, 70807, Note_off_c, 1, 55, 0
1, 70807, Note_off_c, 1, 43, 0
1, 71038, Note_on_c, 1, 47, 127
1, 71039, Note_off_c, 1, 57, 0
1, 71039, Note_off_c, 1, 45, 0
1, 71042, Note_on_c, 1, 68, 127
1, 71159, Note_off_c, 1, 68, 0
1, 71269, Note_on_c, 1, 60, 127
1, 71269, Note_on_c, 1, 48, 127
1, 71278, Note_off_c, 1, 47, 0
1, 71338, Note_off_c, 1, 60, 0
1, 71338, Note_off_c, 1, 48, 0
1, 71641, Note_on_c, 1, 64, 127
1, 71766, Note_on_c, 1, 63, 127
1, 71772, Note_off_c, 1, 64, 0
1, 71969, Note_off_c, 1, 63, 0
1, 72471, Note_on_c, 1, 62, 127
1, 72581, Note_on_c, 1, 35, 127
1, 72643, Note_off_c, 1, 35, 0
1, 72709, Note_off_c, 1, 62, 0
1, 73063, Note_on_c, 1, 61, 127
1, 73112, Note_off_c, 1, 61, 0
1, 73174, Note_on_c, 1, 44, 127
1, 73406, Note_off_c, 1, 44, 0
1, 73652, Note_on_c, 1, 62, 127
1, 73652, Note_on_c, 1, 71, 127
1, 73711, Note_on_c, 1, 55, 127
1, 73713, Note_off_c, 1, 62, 0
1, 73768, Note_on_c, 1, 54, 127
1, 73771, Note_off_c, 1, 55, 0
1, 73772, Note_off_c, 1, 71, 0
1, 73826, Note_off_c, 1, 54, 0
1, 73887, Note_on_c, 1, 64, 127
1, 73890, Note_on_c, 1, 73, 127
1, 73944, Note_on_c, 1, 55, 127
1, 73946, Note_off_c, 1, 64, 0
1, 74003, Note_off_c, 1, 55, 0
1, 74004, Note_on_c, 1, 57, 127
1, 74015, Note_off_c, 1, 73, 0
1, 74059, Note_off_c, 1, 57, 0
1, 74062, Note_on_c, 1, 52, 127
1, 74121, Note_on_c, 1, 50, 127
1, 74121, Note_on_c, 1, 38, 127
1, 74125, Note_on_c, 1, 54, 127
1, 74128, Note_on_c, 1, 74, 127
1, 74140, Note_off_c, 1, 52, 0
1, 74154, Note_off_c, 1, 54, 0
1, 74195, Note_on_c, 1, 62, 127
1, 74255, Note_on_c, 1, 64, 127
1, 74256, Note_off_c, 1, 62, 0
1, 74311, Note_on_c, 1, 66, 127
1, 74312, Note_off_c, 1, 64, 0
1, 74365, Note_on_c, 1, 40, 127
1, 74371, Note_off_c, 1, 50, 0
1, 74371, Note_off_c, 1, 38, 0
1, 74371, Note_off_c, 1, 66, 0
1, 74371, Note_on_c, 1, 67, 127
1, 74426, Note_on_c, 1, 60, 127
1, 74428, Note_off_c, 1, 67, 0
1, 74491, Note_on_c, 1, 59, 127
1, 74494, Note_off_c, 1, 60, 0
1, 74544, Note_off_c, 1, 59, 0
1, 74602, Note_on_c, 1, 42, 127
1, 74606, Note_off_c, 1, 40, 0
1, 74612, Note_on_c, 1, 69, 127
1, 74682, Note_off_c, 1, 69, 0
1, 74793, Note_on_c, 1, 57, 127
1, 74839, Note_off_c, 1, 42, 0
1, 74843, Note_off_c, 1, 57, 0
1, 74852, Note_on_c, 1, 55, 127
1, 74852, Note_on_c, 1, 43, 127
1, 74919, Note_off_c, 1, 74, 0
1, 74921, Note_on_c, 1, 71, 127
1, 74977, Note_on_c, 1, 72, 127
1, 74982, Note_off_c, 1, 71, 0
1, 75035, Note_off_c, 1, 72, 0
1, 75089, Note_off_c, 1, 55, 0
1, 75089, Note_off_c, 1, 43, 0
1, 75094, Note_on_c, 1, 76, 127
1, 75154, Note_off_c, 1, 76, 0
1, 75328, Note_on_c, 1, 78, 127
1, 75332, Note_on_c, 1, 57, 127
1, 75333, Note_on_c, 1, 60, 127
1, 75388, Note_on_c, 1, 72, 127
1, 75405, Note_off_c, 1, 60, 0
1, 75410, Note_off_c, 1, 57, 0
1, 75438, Note_off_c, 1, 72, 0
1, 75448, Note_on_c, 1, 74, 127
1, 75490, Note_off_c, 1, 78, 0
1, 75500, Note_on_c, 1, 69, 127
1, 75501, Note_off_c, 1, 74, 0
1, 75539, Note_off_c, 1, 69, 0
1, 75561, Note_on_c, 1, 43, 127
1, 75561, Note_on_c, 1, 31, 127
1, 75563, Note_on_c, 1, 79, 127
1, 75564, Note_on_c, 1, 71, 127
1, 75567, Note_on_c, 1, 55, 127
1, 75629, Note_on_c, 1, 69, 127
1, 75632, Note_off_c, 1, 71, 0
1, 75692, Note_off_c, 1, 69, 0
1, 75746, Note_on_c, 1, 74, 127
1, 75780, Note_off_c, 1, 74, 0
1, 75799, Note_off_c, 1, 43, 0
1, 75799, Note_off_c, 1, 31, 0
1, 75807, Note_on_c, 1, 72, 127
1, 75807, Note_on_c, 1, 45, 127
1, 75807, Note_on_c, 1, 33, 127
1, 75882, Note_off_c, 1, 72, 0
1, 75990, Note_on_c, 1, 76, 127
1, 76041, Note_on_c, 1, 47, 127
1, 76041, Note_on_c, 1, 35, 127
1, 76044, Note_off_c, 1, 45, 0
1, 76044, Note_off_c, 1, 33, 0
1, 76062, Note_off_c, 1, 76, 0
1, 76212, Note_off_c, 1, 79, 0
1, 76242, Note_on_c, 1, 77, 127
1, 76279, Note_off_c, 1, 77, 0
1, 76303, Note_on_c, 1, 48, 127
1, 76303, Note_on_c, 1, 36, 127
1, 76306, Note_off_c, 1, 47, 0
1, 76306, Note_off_c, 1, 35, 0
1, 76370, Note_off_c, 1, 55, 0
1, 76478, Note_on_c, 1, 64, 127
1, 76507, Note_off_c, 1, 64, 0
1, 76538, Note_on_c, 1, 57, 127
1, 76543, Note_off_c, 1, 48, 0
1, 76543, Note_off_c, 1, 36, 0
1, 76543, Note_on_c, 1, 66, 127
1, 76599, Note_off_c, 1, 57, 0
1, 76606, Note_off_c, 1, 66, 0
1, 76716, Note_on_c, 1, 60, 127
1, 76767, Note_off_c, 1, 60, 0
1, 76770, Note_on_c, 1, 59, 127
1, 76776, Note_on_c, 1, 68, 127
1, 76837, Note_off_c, 1, 59, 0
1, 76838, Note_off_c, 1, 68, 0
1, 76947, Note_on_c, 1, 62, 127
1, 77015, Note_off_c, 1, 62, 0
1, 77627, Note_on_c, 1, 67, 127
1, 77693, Note_off_c, 1, 67, 0
1, 77741, Note_on_c, 1, 50, 127
1, 77741, Note_on_c, 1, 38, 127
1, 77978, Note_off_c, 1, 50, 0
1, 77978, Note_off_c, 1, 38, 0
1, 78221, Note_on_c, 1, 51, 127
1, 78221, Note_on_c, 1, 39, 127
1, 78352, Note_on_c, 1, 78, 127
1, 78421, Note_off_c, 1, 78, 0
1, 78460, Note_on_c, 1, 52, 127
1, 78460, Note_on_c, 1, 40, 127
1, 78463, Note_off_c, 1, 51, 0
1, 78463, Note_off_c, 1, 39, 0
1, 78932, Note_off_c, 1, 52, 0
1, 78932, Note_off_c, 1, 40, 0
1, 79843, Note_on_c, 1, 65, 127
1, 79899, Note_off_c, 1, 65, 0
1, 81150, Note_on_c, 1, 53, 127
1, 81204, Note_off_c, 1, 53, 0
1, 81205, Note_on_c, 1, 52, 127
1, 81264, Note_on_c, 1, 53, 127
1, 81267, Note_off_c, 1, 52, 0
1, 81292, Note_off_c, 1, 53, 0
1, 81330, Note_on_c, 1, 52, 127
1, 81417, Note_on_c, 1, 74, 127
1, 81476, Note_on_c, 1, 77, 127
1, 81478, Note_off_c, 1, 74, 0
1, 81535, Note_on_c, 1, 76, 127
1, 81540, Note_off_c, 1, 77, 0
1, 81591, Note_off_c, 1, 76, 0
1, 81591, Note_on_c, 1, 44, 127
1, 81591, Note_on_c, 1, 32, 127
1, 81650, Note_on_c, 1, 72, 127
1, 81705, Note_off_c, 1, 72, 0
1, 81706, Note_on_c, 1, 71, 127
1, 81764, Note_on_c, 1, 69, 127
1, 81768, Note_off_c, 1, 71, 0
1, 81785, Note_off_c, 1, 44, 0
1, 81785, Note_off_c, 1, 32, 0
1, 81817, Note_on_c, 1, 40, 127
1, 81817, Note_on_c, 1, 28, 127
1, 81824, Note_on_c, 1, 68, 127
1, 81828, Note_off_c, 1, 69, 0
1, 81888, Note_off_c, 1, 68, 0
1, 81991, Note_off_c, 1, 40, 0
1, 81991, Note_off_c, 1, 28, 0
1, 82051, Note_on_c, 1, 45, 127
1, 82051, Note_on_c, 1, 33, 127
1, 82064, Note_on_c, 1, 64, 127
1, 82137, Note_off_c, 1, 64, 0
1, 82193, Note_off_c, 1, 52, 0
1, 82238, Note_on_c, 1, 54, 127
1, 82270, Note_on_c, 1, 56, 127
1, 82276, Note_off_c, 1, 54, 0
1, 82300, Note_off_c, 1, 56, 0
1, 82305, Note_on_c, 1, 57, 127
1, 82306, Note_off_c, 1, 45, 0
1, 82306, Note_off_c, 1, 33, 0
1, 82363, Note_on_c, 1, 59, 127
1, 82366, Note_off_c, 1, 57, 0
1, 82420, Note_on_c, 1, 60, 127
1, 82423, Note_off_c, 1, 59, 0
1, 82477, Note_on_c, 1, 62, 127
1, 82478, Note_off_c, 1, 60, 0
1, 82535, Note_off_c, 1, 62, 0
1, 82713, Note_on_c, 1, 55, 127
1, 82731, Note_off_c, 1, 55, 0
1, 82773, Note_on_c, 1, 55, 127
1, 82780, Note_on_c, 1, 72, 127
1, 82835, Note_on_c, 1, 54, 127
1, 82836, Note_off_c, 1, 55, 0
1, 82842, Note_on_c, 1, 74, 127
1, 82843, Note_off_c, 1, 72, 0
1, 82879, Note_off_c, 1, 74, 0
1, 82895, Note_off_c, 1, 54, 0
1, 82898, Note_on_c, 1, 71, 127
1, 82951, Note_off_c, 1, 71, 0
1, 82954, Note_on_c, 1, 52, 127
1, 82994, Note_off_c, 1, 52, 0
1, 83018, Note_on_c, 1, 50, 127
1, 83018, Note_on_c, 1, 38, 127
1, 83141, Note_on_c, 1, 69, 127
1, 83167, Note_on_c, 1, 67, 127
1, 83168, Note_off_c, 1, 69, 0
1, 83199, Note_off_c, 1, 67, 0
1, 83252, Note_on_c, 1, 48, 127
1, 83252, Note_on_c, 1, 36, 127
1, 83259, Note_off_c, 1, 50, 0
1, 83259, Note_off_c, 1, 38, 0
1, 83488, Note_on_c, 1, 47, 127
1, 83488, Note_on_c, 1, 35, 127
1, 83497, Note_off_c, 1, 48, 0
1, 83497, Note_off_c, 1, 36, 0
1, 83729, Note_on_c, 1, 45, 127
1, 83729, Note_on_c, 1, 33, 127
1, 83730, Note_off_c, 1, 47, 0
1, 83730, Note_off_c, 1, 35, 0
1, 83916, Note_on_c, 1, 76, 127
1, 83974, Note_off_c, 1, 45, 0
1, 83974, Note_off_c, 1, 33, 0
1, 83989, Note_off_c, 1, 76, 0
1, 84164, Note_on_c, 1, 77, 127
1, 84237, Note_off_c, 1, 77, 0
1, 84887, Note_on_c, 1, 79, 127
1, 84948, Note_off_c, 1, 79, 0
1, 85596, Note_on_c, 1, 65, 127
1, 85617, Note_off_c, 1, 65, 0
1, 85652, Note_on_c, 1, 40, 127
1, 85895, Note_off_c, 1, 40, 0
1, 86009, Note_on_c, 1, 64, 127
1, 86034, Note_off_c, 1, 64, 0
1, 86065, Note_on_c, 1, 62, 127
1, 86087, Note_off_c, 1, 62, 0
1, 86370, Note_on_c, 1, 43, 127
1, 86981, Note_on_c, 1, 60, 127
1, 87040, Note_on_c, 1, 59, 127
1, 87041, Note_off_c, 1, 60, 0
1, 87105, Note_off_c, 1, 59, 0
1, 87220, Note_on_c, 1, 57, 127
1, 87277, Note_off_c, 1, 57, 0
1, 87805, Note_off_c, 1, 43, 0
1, 87817, Note_on_c, 1, 31, 127
1, 88293, Note_on_c, 1, 66, 127
1, 88504, Note_off_c, 1, 66, 0
1, 89490, Note_on_c, 1, 63, 127
1, 89968, Note_off_c, 1, 63, 0
1, 90642, Note_on_c, 1, 78, 127
1, 90723, Note_off_c, 1, 78, 0
1, 90962, Note_off_c, 1, 31, 0
1, 90962, End_track
0, 0, End_of_file