0, 0, Header, 1, 1, 480
1, 0, Start_track
1, 0, Title_t, "Test"
1, 0, Tempo, 500000
1, 0, Instrument_name_t, "Church Organ"
1, 245, Note_on_c, 1, 62, 127
1, 356, Note_off_c, 1, 62, 0
1, 360, Note_on_c, 1, 64, 127
1, 455, Note_off_c, 1, 64, 0
1, 475, Note_on_c, 1, 64, 127
1, 494, Note_off_c, 1, 64, 0
1, 494, Note_on_c, 1, 62, 127
1, 508, Note_off_c, 1, 62, 0
1, 508, Note_on_c, 1, 60, 127
1, 524, Note_off_c, 1, 60, 0
1, 536, Note_on_c, 1, 64, 127
1, 548, Note_off_c, 1, 64, 0
1, 549, Note_on_c, 1, 62, 127
1, 559, Note_on_c, 1, 64, 127
1, 560, Note_off_c, 1, 62, 0
1, 568, Note_off_c, 1, 64, 0
1, 639, Note_on_c, 1, 60, 127
1, 680, Note_off_c, 1, 60, 0
1, 697, Note_on_c, 1, 60, 127
1, 716, Note_on_c, 1, 59, 127
1, 718, Note_off_c, 1, 60, 0
1, 731, Note_off_c, 1, 59, 0
1, 731, Note_on_c, 1, 57, 127
1, 750, Note_off_c, 1, 57, 0
1, 774, Note_on_c, 1, 59, 127
1, 785, Note_on_c, 1, 60, 127
1, 786, Note_off_c, 1, 59, 0
1, 794, Note_off_c, 1, 60, 0
1, 939, Note_on_c, 1, 62, 127
1, 1064, Note_on_c, 1, 57, 127
1, 1065, Note_off_c, 1, 62, 0
1, 1434, Note_off_c, 1, 57, 0
1, 1522, Note_on_c, 1, 61, 127
1, 1538, Note_off_c, 1, 61, 0
1, 1558, Note_on_c, 1, 62, 127
1, 1574, Note_on_c, 1, 61, 127
1, 1575, Note_off_c, 1, 62, 0
1, 1588, Note_off_c, 1, 61, 0
1, 1590, Note_on_c, 1, 62, 127
1, 1604, Note_off_c, 1, 62, 0
1, 1605, Note_on_c, 1, 61, 127
1, 1615, Note_off_c, 1, 61, 0
1, 1615, Note_on_c, 1, 62, 127
1, 1628, Note_off_c, 1, 62, 0
1, 1629, Note_on_c, 1, 61, 127
1, 1639, Note_off_c, 1, 61, 0
1, 1639, Note_on_c, 1, 62, 127
1, 1648, Note_off_c, 1, 62, 0
1, 1730, Note_on_c, 1, 59, 127
1, 1755, Note_on_c, 1, 61, 127
1, 1758, Note_off_c, 1, 59, 0
1, 1786, Note_off_c, 1, 61, 0
1, 1791, Note_on_c, 1, 62, 127
1, 1832, Note_off_c, 1, 62, 0
1, 1855, Note_on_c, 1, 57, 127
1, 1913, Note_off_c, 1, 57, 0
1, 1914, Note_on_c, 1, 62, 127
1, 1974, Note_on_c, 1, 60, 127
1, 1975, Note_off_c, 1, 62, 0
1, 2032, Note_on_c, 1, 67, 127
1, 2033, Note_on_c, 1, 59, 127
1, 2039, Note_off_c, 1, 60, 0
1, 2093, Note_on_c, 1, 57, 127
1, 2094, Note_off_c, 1, 59, 0
1, 2153, Note_on_c, 1, 55, 127
1, 2154, Note_off_c, 1, 57, 0
1, 2154, Note_on_c, 1, 71, 127
1, 2155, Note_off_c, 1, 67, 0
1, 2234, Note_off_c, 1, 71, 0
1, 2286, Note_on_c, 1, 69, 127
1, 2300, Note_off_c, 1, 69, 0
1, 2327, Note_on_c, 1, 54, 127
1, 2332, Note_off_c, 1, 55, 0
1, 2383, Note_off_c, 1, 54, 0
1, 2383, Note_on_c, 1, 52, 127
1, 2502, Note_off_c, 1, 52, 0
1, 2506, Note_on_c, 1, 50, 127
1, 2508, Note_on_c, 1, 67, 127
1, 2538, Note_on_c, 1, 66, 127
1, 2539, Note_off_c, 1, 67, 0
1, 2552, Note_off_c, 1, 66, 0
1, 2585, Note_off_c, 1, 50, 0
1, 2596, Note_on_c, 1, 67, 127
1, 2607, Note_on_c, 1, 66, 127
1, 2611, Note_off_c, 1, 66, 0
1, 2613, Note_on_c, 1, 62, 127
1, 2622, Note_off_c, 1, 67, 0
1, 2750, Note_on_c, 1, 69, 127
1, 2810, Note_on_c, 1, 60, 127
1, 2812, Note_off_c, 1, 62, 0
1, 2870, Note_off_c, 1, 69, 0
1, 2874, Note_on_c, 1, 59, 127
1, 2875, Note_off_c, 1, 60, 0
1, 2931, Note_off_c, 1, 59, 0
1, 2931, Note_on_c, 1, 57, 127
1, 2992, Note_off_c, 1, 57, 0
1, 3223, Note_on_c, 1, 64, 127
1, 3225, Note_on_c, 1, 55, 127
1, 3256, Note_off_c, 1, 55, 0
1, 3280, Note_on_c, 1, 60, 127
1, 3305, Note_on_c, 1, 66, 127
1, 3309, Note_off_c, 1, 64, 0
1, 3318, Note_off_c, 1, 66, 0
1, 3338, Note_on_c, 1, 67, 127
1, 3349, Note_off_c, 1, 60, 0
1, 3352, Note_off_c, 1, 67, 0
1, 3353, Note_on_c, 1, 66, 127
1, 3366, Note_off_c, 1, 66, 0
1, 3368, Note_on_c, 1, 67, 127
1, 3380, Note_off_c, 1, 67, 0
1, 3382, Note_on_c, 1, 66, 127
1, 3389, Note_on_c, 1, 57, 127
1, 3391, Note_off_c, 1, 66, 0
1, 3392, Note_on_c, 1, 67, 127
1, 3404, Note_off_c, 1, 67, 0
1, 3417, Note_off_c, 1, 57, 0
1, 3426, Note_on_c, 1, 66, 127
1, 3431, Note_off_c, 1, 66, 0
1, 3433, Note_on_c, 1, 67, 127
1, 3440, Note_off_c, 1, 67, 0
1, 3442, Note_on_c, 1, 66, 127
1, 3446, Note_on_c, 1, 67, 127
1, 3447, Note_off_c, 1, 66, 0
1, 3450, Note_on_c, 1, 62, 127
1, 3451, Note_on_c, 1, 50, 127
1, 3451, Note_on_c, 1, 38, 127
1, 3463, Note_off_c, 1, 67, 0
1, 3503, Note_on_c, 1, 64, 127
1, 3536, Note_off_c, 1, 64, 0
1, 3561, Note_off_c, 1, 50, 0
1, 3561, Note_off_c, 1, 38, 0
1, 3562, Note_on_c, 1, 52, 127
1, 3562, Note_on_c, 1, 40, 127
1, 3640, Note_on_c, 1, 60, 127
1, 3644, Note_off_c, 1, 62, 0
1, 3698, Note_off_c, 1, 52, 0
1, 3698, Note_off_c, 1, 40, 0
1, 3702, Note_on_c, 1, 59, 127
1, 3708, Note_off_c, 1, 60, 0
1, 3762, Note_on_c, 1, 57, 127
1, 3765, Note_off_c, 1, 59, 0
1, 3824, Note_on_c, 1, 55, 127
1, 3827, Note_off_c, 1, 57, 0
1, 3884, Note_on_c, 1, 48, 127
1, 3884, Note_on_c, 1, 36, 127
1, 3887, Note_off_c, 1, 55, 0
1, 3945, Note_off_c, 1, 48, 0
1, 3945, Note_off_c, 1, 36, 0
1, 3946, Note_on_c, 1, 47, 127
1, 3946, Note_on_c, 1, 35, 127
1, 4073, Note_on_c, 1, 74, 127
1, 4132, Note_off_c, 1, 47, 0
1, 4132, Note_off_c, 1, 35, 0
1, 4312, Note_on_c, 1, 45, 127
1, 4312, Note_on_c, 1, 33, 127
1, 4321, Note_off_c, 1, 74, 0
1, 4429, Note_on_c, 1, 73, 127
1, 4484, Note_off_c, 1, 73, 0
1, 4485, Note_on_c, 1, 71, 127
1, 4545, Note_off_c, 1, 71, 0
1, 4545, Note_on_c, 1, 69, 127
1, 4546, Note_on_c, 1, 61, 127
1, 4604, Note_off_c, 1, 69, 0
1, 4664, Note_off_c, 1, 45, 0
1, 4664, Note_off_c, 1, 33, 0
1, 4680, Note_off_c, 1, 61, 0
1, 4782, Note_on_c, 1, 49, 127
1, 4782, Note_on_c, 1, 37, 127
1, 5027, Note_off_c, 1, 49, 0
1, 5027, Note_off_c, 1, 37, 0
1, 5201, Note_on_c, 1, 48, 127
1, 5201, Note_on_c, 1, 36, 127
1, 5209, Note_on_c, 1, 57, 127
1, 5210, Note_on_c, 1, 66, 127
1, 5266, Note_on_c, 1, 47, 127
1, 5266, Note_on_c, 1, 35, 127
1, 5269, Note_off_c, 1, 48, 0
1, 5269, Note_off_c, 1, 36, 0
1, 5269, Note_off_c, 1, 57, 0
1, 5270, Note_on_c, 1, 59, 127
1, 5271, Note_off_c, 1, 66, 0
1, 5271, Note_on_c, 1, 67, 127
1, 5323, Note_off_c, 1, 47, 0
1, 5323, Note_off_c, 1, 35, 0
1, 5323, Note_on_c, 1, 45, 127
1, 5323, Note_on_c, 1, 33, 127
1, 5327, Note_on_c, 1, 60, 127
1, 5329, Note_off_c, 1, 59, 0
1, 5330, Note_off_c, 1, 67, 0
1, 5330, Note_on_c, 1, 69, 127
1, 5381, Note_off_c, 1, 45, 0
1, 5381, Note_off_c, 1, 33, 0
1, 5383, Note_on_c, 1, 43, 127
1, 5383, Note_on_c, 1, 31, 127
1, 5386, Note_off_c, 1, 69, 0
1, 5388, Note_off_c, 1, 60, 0
1, 5389, Note_on_c, 1, 62, 127
1, 5389, Note_on_c, 1, 71, 127
1, 5422, Note_off_c, 1, 43, 0
1, 5422, Note_off_c, 1, 31, 0
1, 5443, Note_on_c, 1, 50, 127
1, 5443, Note_on_c, 1, 38, 127
1, 5449, Note_off_c, 1, 62, 0
1, 5487, Note_off_c, 1, 50, 0
1, 5487, Note_off_c, 1, 38, 0
1, 5501, Note_on_c, 1, 55, 127
1, 5560, Note_off_c, 1, 55, 0
1, 5563, Note_on_c, 1, 53, 127
1, 5563, Note_on_c, 1, 41, 127
1, 5574, Note_off_c, 1, 71, 0
1, 5622, Note_on_c, 1, 52, 127
1, 5622, Note_on_c, 1, 40, 127
1, 5625, Note_off_c, 1, 53, 0
1, 5625, Note_off_c, 1, 41, 0
1, 5640, Note_on_c, 1, 74, 127
1, 5649, Note_on_c, 1, 72, 127
1, 5650, Note_off_c, 1, 74, 0
1, 5660, Note_off_c, 1, 72, 0
1, 5681, Note_off_c, 1, 52, 0
1, 5681, Note_off_c, 1, 40, 0
1, 5689, Note_on_c, 1, 65, 127
1, 5729, Note_on_c, 1, 76, 127
1, 5745, Note_off_c, 1, 76, 0
1, 5747, Note_off_c, 1, 65, 0
1, 5749, Note_on_c, 1, 64, 127
1, 5878, Note_off_c, 1, 64, 0
1, 6469, Note_on_c, 1, 61, 127
1, 6519, Note_off_c, 1, 61, 0
1, 6592, Note_on_c, 1, 54, 127
1, 6592, Note_on_c, 1, 42, 127
1, 6797, Note_off_c, 1, 54, 0
1, 6797, Note_off_c, 1, 42, 0
1, 6918, Note_on_c, 1, 73, 127
1, 6932, Note_off_c, 1, 73, 0
1, 7548, Note_on_c, 1, 30, 127
1, 7725, Note_off_c, 1, 30, 0
1, 7914, Note_on_c, 1, 26, 127
1, 8266, Note_on_c, 1, 28, 127
1, 8271, Note_off_c, 1, 26, 0
1, 8396, Note_off_c, 1, 28, 0
1, 11153, Note_on_c, 1, 49, 127
1, 11209, Note_off_c, 1, 49, 0
1, 12115, Note_on_c, 1, 56, 127
1, 12240, Note_off_c, 1, 56, 0
1, 12589, Note_on_c, 1, 47, 127
1, 12589, Note_on_c, 1, 35, 127
1, 12590, Note_on_c, 1, 55, 127
1, 12650, Note_on_c, 1, 62, 127
1, 12705, Note_on_c, 1, 45, 127
1, 12705, Note_on_c, 1, 33, 127
1, 12706, Note_off_c, 1, 47, 0
1, 12706, Note_off_c, 1, 35, 0
1, 12710, Note_off_c, 1, 62, 0
1, 12710, Note_on_c, 1, 64, 127
1, 12711, Note_on_c, 1, 60, 127
1, 12712, Note_off_c, 1, 55, 0
1, 12768, Note_off_c, 1, 60, 0
1, 12768, Note_on_c, 1, 59, 127
1, 12769, Note_off_c, 1, 64, 0
1, 12833, Note_off_c, 1, 59, 0
1, 12886, Note_on_c, 1, 66, 127
1, 12909, Note_off_c, 1, 66, 0
1, 12942, Note_on_c, 1, 43, 127
1, 12942, Note_on_c, 1, 31, 127
1, 12944, Note_off_c, 1, 45, 0
1, 12944, Note_off_c, 1, 33, 0
1, 12944, Note_on_c, 1, 74, 127
1, 12948, Note_on_c, 1, 67, 127
1, 12970, Note_off_c, 1, 43, 0
1, 12970, Note_off_c, 1, 31, 0
1, 13032, Note_on_c, 1, 76, 127
1, 13035, Note_off_c, 1, 74, 0
1, 13045, Note_off_c, 1, 76, 0
1, 13046, Note_on_c, 1, 77, 127
1, 13060, Note_off_c, 1, 77, 0
1, 13062, Note_on_c, 1, 48, 127
1, 13113, Note_off_c, 1, 67, 0
1, 13122, Note_off_c, 1, 48, 0
1, 13123, Note_on_c, 1, 69, 127
1, 13177, Note_on_c, 1, 57, 127
1, 13182, Note_off_c, 1, 69, 0
1, 13183, Note_on_c, 1, 71, 127
1, 13237, Note_off_c, 1, 57, 0
1, 13246, Note_off_c, 1, 71, 0
1, 13250, Note_on_c, 1, 72, 127
1, 13306, Note_on_c, 1, 54, 127
1, 13306, Note_on_c, 1, 42, 127
1, 13311, Note_off_c, 1, 72, 0
1, 13353, Note_off_c, 1, 54, 0
1, 13353, Note_off_c, 1, 42, 0
1, 13543, Note_on_c, 1, 52, 127
1, 13543, Note_on_c, 1, 40, 127
1, 13612, Note_off_c, 1, 52, 0
1, 13612, Note_off_c, 1, 40, 0
1, 13796, Note_on_c, 1, 36, 127
1, 13849, Note_off_c, 1, 36, 0
1, 13976, Note_on_c, 1, 50, 127
1, 13976, Note_on_c, 1, 38, 127
1, 14026, Note_off_c, 1, 50, 0
1, 14026, Note_off_c, 1, 38, 0
1, 14214, Note_on_c, 1, 65, 127
1, 14241, Note_off_c, 1, 65, 0
1, 16126, Note_on_c, 1, 62, 127
1, 16162, Note_off_c, 1, 62, 0
1, 16181, Note_on_c, 1, 57, 127
1, 16184, Note_on_c, 1, 62, 127
1, 16192, Note_off_c, 1, 62, 0
1, 16193, Note_on_c, 1, 61, 127
1, 16203, Note_off_c, 1, 61, 0
1, 16303, Note_on_c, 1, 64, 127
1, 16365, Note_on_c, 1, 55, 127
1, 16368, Note_off_c, 1, 57, 0
1, 16427, Note_on_c, 1, 54, 127
1, 16431, Note_off_c, 1, 55, 0
1, 16489, Note_off_c, 1, 64, 0
1, 16604, Note_off_c, 1, 54, 0
1, 16684, Note_on_c, 1, 52, 127
1, 16699, Note_off_c, 1, 52, 0
1, 16846, Note_on_c, 1, 50, 127
1, 16879, Note_off_c, 1, 50, 0
1, 16970, Note_on_c, 1, 60, 127
1, 17028, Note_on_c, 1, 59, 127
1, 17032, Note_off_c, 1, 60, 0
1, 17094, Note_off_c, 1, 59, 0
1, 17448, Note_on_c, 1, 66, 127
1, 17502, Note_off_c, 1, 66, 0
1, 17509, Note_on_c, 1, 67, 127
1, 17626, Note_off_c, 1, 67, 0
1, 17754, Note_on_c, 1, 69, 127
1, 17995, Note_off_c, 1, 69, 0
1, 18890, Note_on_c, 1, 48, 127
1, 18951, Note_off_c, 1, 48, 0
1, 18951, Note_on_c, 1, 43, 127
1, 18951, Note_on_c, 1, 31, 127
1, 19038, Note_off_c, 1, 43, 0
1, 19038, Note_off_c, 1, 31, 0
1, 19067, Note_on_c, 1, 60, 127
1, 19067, Note_on_c, 1, 52, 127
1, 19067, Note_on_c, 1, 45, 127
1, 19067, Note_on_c, 1, 33, 127
1, 19125, Note_on_c, 1, 59, 127
1, 19127, Note_off_c, 1, 60, 0
1, 19186, Note_on_c, 1, 57, 127
1, 19187, Note_off_c, 1, 52, 0
1, 19187, Note_off_c, 1, 59, 0
1, 19243, Note_on_c, 1, 62, 127
1, 19244, Note_off_c, 1, 45, 0
1, 19244, Note_off_c, 1, 33, 0
1, 19244, Note_on_c, 1, 47, 127
1, 19244, Note_on_c, 1, 35, 127
1, 19269, Note_off_c, 1, 62, 0
1, 19300, Note_off_c, 1, 47, 0
1, 19300, Note_off_c, 1, 35, 0
1, 19302, Note_on_c, 1, 48, 127
1, 19302, Note_on_c, 1, 36, 127
1, 19304, Note_on_c, 1, 64, 127
1, 19306, Note_on_c, 1, 55, 127
1, 19308, Note_off_c, 1, 57, 0
1, 19368, Note_off_c, 1, 55, 0
1, 19393, Note_off_c, 1, 64, 0
1, 19424, Note_off_c, 1, 48, 0
1, 19424, Note_off_c, 1, 36, 0
1, 19541, Note_on_c, 1, 66, 127
1, 19544, Note_on_c, 1, 50, 127
1, 19544, Note_on_c, 1, 38, 127
1, 19602, Note_off_c, 1, 66, 0
1, 19603, Note_on_c, 1, 67, 127
1, 19659, Note_off_c, 1, 67, 0
1, 19660, Note_on_c, 1, 69, 127
1, 19720, Note_on_c, 1, 71, 127
1, 19722, Note_off_c, 1, 69, 0
1, 19739, Note_off_c, 1, 50, 0
1, 19739, Note_off_c, 1, 38, 0
1, 19786, Note_on_c, 1, 73, 127
1, 19788, Note_off_c, 1, 71, 0
1, 19846, Note_off_c, 1, 73, 0
1, 19847, Note_on_c, 1, 74, 127
1, 19908, Note_off_c, 1, 74, 0
1, 19909, Note_on_c, 1, 61, 127
1, 19909, Note_on_c, 1, 76, 127
1, 19966, Note_on_c, 1, 43, 127
1, 19966, Note_on_c, 1, 31, 127
1, 19971, Note_off_c, 1, 61, 0
1, 19999, Note_off_c, 1, 43, 0
1, 19999, Note_off_c, 1, 31, 0
1, 20026, Note_on_c, 1, 42, 127
1, 20026, Note_on_c, 1, 30, 127
1, 20036, Note_off_c, 1, 76, 0
1, 20148, Note_on_c, 1, 54, 127
1, 20197, Note_off_c, 1, 42, 0
1, 20197, Note_off_c, 1, 30, 0
1, 20206, Note_off_c, 1, 54, 0
1, 20265, Note_on_c, 1, 40, 127
1, 20265, Note_on_c, 1, 28, 127
1, 20496, Note_off_c, 1, 40, 0
1, 20496, Note_off_c, 1, 28, 0
1, 20506, Note_on_c, 1, 26, 127
1, 20571, Note_on_c, 1, 72, 127
1, 20631, Note_off_c, 1, 72, 0
1, 20706, Note_off_c, 1, 26, 0
1, 21410, Note_on_c, 1, 65, 127
1, 21433, Note_off_c, 1, 65, 0
1, 22601, Note_on_c, 1, 49, 127
1, 22601, Note_on_c, 1, 37, 127
1, 22663, Note_off_c, 1, 49, 0
1, 22663, Note_off_c, 1, 37, 0
1, 24114, Note_on_c, 1, 59, 127
1, 24179, Note_on_c, 1, 62, 127
1, 24235, Note_off_c, 1, 62, 0
1, 24237, Note_on_c, 1, 67, 127
1, 24293, Note_on_c, 1, 60, 127
1, 24296, Note_off_c, 1, 59, 0
1, 24354, Note_off_c, 1, 60, 0
1, 24413, Note_off_c, 1, 67, 0
1, 24414, Note_on_c, 1, 66, 127
1, 24470, Note_off_c, 1, 66, 0
1, 24472, Note_on_c, 1, 64, 127
1, 24519, Note_off_c, 1, 64, 0
1, 24526, Note_on_c, 1, 57, 127
1, 24565, Note_off_c, 1, 57, 0
1, 24649, Note_on_c, 1, 69, 127
1, 24707, Note_off_c, 1, 69, 0
1, 24987, Note_on_c, 1, 59, 127
1, 25002, Note_off_c, 1, 59, 0
1, 25005, Note_on_c, 1, 57, 127
1, 25011, Note_on_c, 1, 67, 127
1, 25019, Note_off_c, 1, 57, 0
1, 25019, Note_on_c, 1, 59, 127
1, 25034, Note_off_c, 1, 59, 0
1, 25067, Note_off_c, 1, 67, 0
1, 25067, Note_on_c, 1, 66, 127
1, 25124, Note_off_c, 1, 66, 0
1, 25125, Note_on_c, 1, 64, 127
1, 25126, Note_on_c, 1, 55, 127
1, 25162, Note_off_c, 1, 55, 0
1, 25191, Note_off_c, 1, 64, 0
1, 25191, Note_on_c, 1, 63, 127
1, 25250, Note_off_c, 1, 63, 0
1, 25367, Note_on_c, 1, 61, 127
1, 25425, Note_off_c, 1, 61, 0
1, 25543, Note_on_c, 1, 69, 127
1, 25721, Note_on_c, 1, 71, 127
1, 25724, Note_off_c, 1, 69, 0
1, 25785, Note_off_c, 1, 71, 0
1, 25963, Note_on_c, 1, 62, 127
1, 26041, Note_off_c, 1, 62, 0
1, 26268, Note_on_c, 1, 58, 127
1, 26326, Note_off_c, 1, 58, 0
1, 26327, Note_on_c, 1, 54, 127
1, 26391, Note_off_c, 1, 54, 0
1, 26628, Note_on_c, 1, 56, 127
1, 26685, Note_off_c, 1, 56, 0
1, 26686, Note_on_c, 1, 52, 127
1, 26711, Note_off_c, 1, 52, 0
1, 26987, Note_on_c, 1, 57, 127
1, 27050, Note_on_c, 1, 55, 127
1, 27100, Note_off_c, 1, 57, 0
1, 27105, Note_on_c, 1, 62, 127
1, 27106, Note_on_c, 1, 54, 127
1, 27109, Note_off_c, 1, 55, 0
1, 27166, Note_off_c, 1, 54, 0
1, 27167, Note_on_c, 1, 52, 127
1, 27223, Note_on_c, 1, 64, 127
1, 27225, Note_on_c, 1, 50, 127
1, 27226, Note_off_c, 1, 62, 0
1, 27226, Note_off_c, 1, 52, 0
1, 27282, Note_on_c, 1, 49, 127
1, 27283, Note_off_c, 1, 50, 0
1, 27313, Note_off_c, 1, 49, 0
1, 27341, Note_on_c, 1, 66, 127
1, 27342, Note_off_c, 1, 64, 0
1, 27524, Note_on_c, 1, 67, 127
1, 27526, Note_off_c, 1, 66, 0
1, 27584, Note_off_c, 1, 67, 0
1, 27587, Note_on_c, 1, 69, 127
1, 27650, Note_on_c, 1, 61, 127
1, 27677, Note_off_c, 1, 61, 0
1, 27714, Note_on_c, 1, 59, 127
1, 27777, Note_off_c, 1, 59, 0
1, 27838, Note_off_c, 1, 69, 0
1, 28204, Note_on_c, 1, 64, 127
1, 28217, Note_off_c, 1, 64, 0
1, 28218, Note_on_c, 1, 66, 127
1, 28228, Note_off_c, 1, 66, 0
1, 28230, Note_on_c, 1, 64, 127
1, 28239, Note_on_c, 1, 62, 127
1, 28242, Note_on_c, 1, 66, 127
1, 28243, Note_off_c, 1, 64, 0
1, 28253, Note_off_c, 1, 66, 0
1, 28296, Note_off_c, 1, 62, 0
1, 28298, Note_on_c, 1, 61, 127
1, 28357, Note_on_c, 1, 59, 127
1, 28358, Note_off_c, 1, 61, 0
1, 28420, Note_on_c, 1, 58, 127
1, 28423, Note_off_c, 1, 59, 0
1, 28491, Note_off_c, 1, 58, 0
1, 28789, Note_on_c, 1, 59, 127
1, 28789, Note_on_c, 1, 67, 127
1, 28850, Note_on_c, 1, 61, 127
1, 28853, Note_off_c, 1, 59, 0
1, 28909, Note_on_c, 1, 62, 127
1, 28912, Note_off_c, 1, 61, 0
1, 28970, Note_on_c, 1, 66, 127
1, 28976, Note_off_c, 1, 67, 0
1, 29027, Note_off_c, 1, 66, 0
1, 29031, Note_on_c, 1, 64, 127
1, 29090, Note_off_c, 1, 62, 0
1, 29132, Note_off_c, 1, 64, 0
1, 29150, Note_on_c, 1, 38, 127
1, 29150, Note_on_c, 1, 26, 127
1, 29216, Note_on_c, 1, 76, 127
1, 29216, Note_on_c, 1, 60, 127
1, 29254, Note_off_c, 1, 38, 0
1, 29254, Note_off_c, 1, 26, 0
1, 29265, Note_off_c, 1, 76, 0
1, 29269, Note_on_c, 1, 43, 127
1, 29269, Note_on_c, 1, 31, 127
1, 29273, Note_on_c, 1, 74, 127
1, 29282, Note_off_c, 1, 60, 0
1, 29328, Note_off_c, 1, 74, 0
1, 29329, Note_on_c, 1, 57, 127
1, 29330, Note_on_c, 1, 72, 127
1, 29382, Note_on_c, 1, 45, 127
1, 29382, Note_on_c, 1, 33, 127
1, 29383, Note_off_c, 1, 43, 0
1, 29383, Note_off_c, 1, 31, 0
1, 29387, Note_off_c, 1, 57, 0
1, 29387, Note_off_c, 1, 72, 0
1, 29388, Note_on_c, 1, 55, 127
1, 29388, Note_on_c, 1, 71, 127
1, 29447, Note_on_c, 1, 69, 127
1, 29447, Note_on_c, 1, 54, 127
1, 29448, Note_off_c, 1, 55, 0
1, 29448, Note_off_c, 1, 71, 0
1, 29490, Note_off_c, 1, 45, 0
1, 29490, Note_off_c, 1, 33, 0
1, 29499, Note_off_c, 1, 69, 0
1, 29504, Note_on_c, 1, 47, 127
1, 29504, Note_on_c, 1, 35, 127
1, 29511, Note_off_c, 1, 54, 0
1, 29685, Note_off_c, 1, 47, 0
1, 29685, Note_off_c, 1, 35, 0
1, 29686, Note_on_c, 1, 48, 127
1, 29686, Note_on_c, 1, 36, 127
1, 29748, Note_off_c, 1, 48, 0
1, 29748, Note_off_c, 1, 36, 0
1, 29748, Note_on_c, 1, 50, 127
1, 29986, Note_off_c, 1, 50, 0
1, 29993, Note_on_c, 1, 52, 127
1, 30054, Note_off_c, 1, 52, 0
1, 30707, Note_on_c, 1, 40, 127
1, 30770, Note_off_c, 1, 40, 0
1, 31241, Note_on_c, 1, 53, 127
1, 31241, Note_on_c, 1, 41, 127
1, 31297, Note_off_c, 1, 53, 0
1, 31297, Note_off_c, 1, 41, 0
1, 31306, Note_on_c, 1, 56, 127
1, 31387, Note_on_c, 1, 77, 127
1, 31408, Note_off_c, 1, 77, 0
1, 31424, Note_off_c, 1, 56, 0
1, 31601, Note_on_c, 1, 42, 127
1, 31663, Note_off_c, 1, 42, 0
1, 31905, Note_on_c, 1, 63, 127
1, 31957, Note_off_c, 1, 63, 0
1, 32021, Note_on_c, 1, 51, 127
1, 32021, Note_on_c, 1, 39, 127
1, 32135, Note_off_c, 1, 51, 0
1, 32135, Note_off_c, 1, 39, 0
1, 32494, Note_on_c, 1, 57, 127
1, 32494, Note_on_c, 1, 45, 127
1, 32499, Note_on_c, 1, 61, 127
1, 32597, Note_off_c, 1, 61, 0
1, 32618, Note_on_c, 1, 55, 127
1, 32619, Note_on_c, 1, 63, 127
1, 32621, Note_on_c, 1, 59, 127
1, 32621, Note_on_c, 1, 47, 127
1, 32622, Note_off_c, 1, 57, 0
1, 32622, Note_off_c, 1, 45, 0
1, 32678, Note_off_c, 1, 55, 0
1, 32679, Note_on_c, 1, 54, 127
1, 32707, Note_off_c, 1, 59, 0
1, 32707, Note_off_c, 1, 47, 0
1, 32709, Note_off_c, 1, 63, 0
1, 32717, Note_off_c, 1, 54, 0
1, 32739, Note_on_c, 1, 52, 127
1, 32739, Note_on_c, 1, 40, 127
1, 32745, Note_on_c, 1, 64, 127
1, 32746, Note_on_c, 1, 55, 127
1, 32810, Note_off_c, 1, 55, 0
1, 32810, Note_on_c, 1, 54, 127
1, 32868, Note_off_c, 1, 54, 0
1, 32873, Note_off_c, 1, 40, 0
1, 32874, Note_off_c, 1, 64, 0
1, 32923, Note_off_c, 1, 52, 0
1, 32928, Note_on_c, 1, 54, 127
1, 32988, Note_off_c, 1, 54, 0
1, 32990, Note_on_c, 1, 55, 127
1, 33051, Note_off_c, 1, 55, 0
1, 33051, Note_on_c, 1, 57, 127
1, 33093, Note_off_c, 1, 57, 0
1, 33113, Note_on_c, 1, 59, 127
1, 33172, Note_on_c, 1, 60, 127
1, 33175, Note_off_c, 1, 59, 0
1, 33226, Note_off_c, 1, 60, 0
1, 33229, Note_on_c, 1, 62, 127
1, 33289, Note_on_c, 1, 74, 127
1, 33351, Note_on_c, 1, 64, 127
1, 33352, Note_off_c, 1, 62, 0
1, 33411, Note_on_c, 1, 73, 127
1, 33415, Note_off_c, 1, 74, 0
1, 33456, Note_off_c, 1, 64, 0
1, 33534, Note_off_c, 1, 73, 0
1, 33536, Note_on_c, 1, 72, 127
1, 33591, Note_on_c, 1, 71, 127
1, 33593, Note_off_c, 1, 72, 0
1, 33651, Note_on_c, 1, 69, 127
1, 33653, Note_off_c, 1, 71, 0
1, 33712, Note_on_c, 1, 67, 127
1, 33712, Note_on_c, 1, 57, 127
1, 33716, Note_off_c, 1, 69, 0
1, 33763, Note_off_c, 1, 67, 0
1, 33765, Note_on_c, 1, 66, 127
1, 33803, Note_off_c, 1, 57, 0
1, 33824, Note_on_c, 1, 59, 127
1, 33827, Note_off_c, 1, 66, 0
1, 33940, Note_off_c, 1, 59, 0
1, 33976, Note_on_c, 1, 61, 127
1, 33993, Note_off_c, 1, 61, 0
1, 34186, Note_on_c, 1, 66, 127
1, 34186, Note_on_c, 1, 62, 127
1, 34245, Note_off_c, 1, 66, 0
1, 34246, Note_on_c, 1, 67, 127
1, 34247, Note_on_c, 1, 60, 127
1, 34248, Note_off_c, 1, 62, 0
1, 34305, Note_on_c, 1, 59, 127
1, 34306, Note_off_c, 1, 67, 0
1, 34306, Note_on_c, 1, 69, 127
1, 34307, Note_off_c, 1, 60, 0
1, 34365, Note_on_c, 1, 57, 127
1, 34367, Note_off_c, 1, 59, 0
1, 34421, Note_off_c, 1, 69, 0
1, 34421, Note_on_c, 1, 71, 127
1, 34422, Note_on_c, 1, 55, 127
1, 34427, Note_off_c, 1, 57, 0
1, 34455, Note_off_c, 1, 55, 0
1, 34553, Note_off_c, 1, 71, 0
1, 34669, Note_on_c, 1, 64, 127
1, 34730, Note_off_c, 1, 64, 0
1, 34789, Note_on_c, 1, 60, 127
1, 34789, Note_on_c, 1, 62, 127
1, 34849, Note_off_c, 1, 60, 0
1, 34851, Note_on_c, 1, 59, 127
1, 34886, Note_off_c, 1, 62, 0
1, 34906, Note_on_c, 1, 64, 127
1, 34907, Note_off_c, 1, 59, 0
1, 34958, Note_off_c, 1, 64, 0
1, 34989, Note_on_c, 1, 66, 127
1, 35005, Note_off_c, 1, 66, 0
1, 35017, Note_on_c, 1, 67, 127
1, 35019, Note_on_c, 1, 57, 127
1, 35034, Note_off_c, 1, 67, 0
1, 35035, Note_on_c, 1, 66, 127
1, 35047, Note_off_c, 1, 66, 0
1, 35071, Note_on_c, 1, 62, 127
1, 35074, Note_off_c, 1, 57, 0
1, 35129, Note_off_c, 1, 62, 0
1, 35130, Note_on_c, 1, 60, 127
1, 35185, Note_on_c, 1, 64, 127
1, 35189, Note_off_c, 1, 60, 0
1, 35216, Note_off_c, 1, 64, 0
1, 35251, Note_on_c, 1, 59, 127
1, 35252, Note_on_c, 1, 67, 127
1, 35304, Note_off_c, 1, 59, 0
1, 35320, Note_on_c, 1, 64, 127
1, 35379, Note_off_c, 1, 64, 0
1, 35379, Note_on_c, 1, 62, 127
1, 35442, Note_off_c, 1, 62, 0
1, 35505, Note_on_c, 1, 61, 127
1, 35562, Note_on_c, 1, 69, 127
1, 35564, Note_off_c, 1, 67, 0
1, 35594, Note_off_c, 1, 69, 0
1, 35618, Note_off_c, 1, 61, 0
1, 35622, Note_on_c, 1, 66, 127
1, 35679, Note_off_c, 1, 66, 0
1, 35680, Note_on_c, 1, 67, 127
1, 35680, Note_on_c, 1, 50, 127
1, 35706, Note_on_c, 1, 69, 127
1, 35710, Note_off_c, 1, 67, 0
1, 35716, Note_off_c, 1, 69, 0
1, 35736, Note_on_c, 1, 52, 127
1, 35737, Note_on_c, 1, 62, 127
1, 35738, Note_off_c, 1, 50, 0
1, 35767, Note_off_c, 1, 62, 0
1, 35767, Note_on_c, 1, 61, 127
1, 35784, Note_off_c, 1, 61, 0
1, 35789, Note_on_c, 1, 57, 127
1, 35790, Note_off_c, 1, 52, 0
1, 35847, Note_off_c, 1, 57, 0
1, 35849, Note_on_c, 1, 55, 127
1, 35910, Note_off_c, 1, 55, 0
1, 35914, Note_on_c, 1, 59, 127
1, 35939, Note_off_c, 1, 59, 0
1, 35972, Note_on_c, 1, 54, 127
1, 35972, Note_on_c, 1, 47, 127
1, 35972, Note_on_c, 1, 35, 127
1, 36021, Note_off_c, 1, 47, 0
1, 36021, Note_off_c, 1, 35, 0
1, 36026, Note_on_c, 1, 49, 127
1, 36026, Note_on_c, 1, 37, 127
1, 36040, Note_on_c, 1, 64, 127
1, 36075, Note_off_c, 1, 49, 0
1, 36075, Note_off_c, 1, 37, 0
1, 36091, Note_on_c, 1, 38, 127
1, 36097, Note_off_c, 1, 64, 0
1, 36098, Note_on_c, 1, 66, 127
1, 36102, Note_off_c, 1, 54, 0
1, 36224, Note_off_c, 1, 66, 0
1, 36224, Note_on_c, 1, 40, 127
1, 36226, Note_off_c, 1, 38, 0
1, 36332, Note_off_c, 1, 40, 0
1, 36553, Note_on_c, 1, 71, 127
1, 36574, Note_off_c, 1, 71, 0
1, 36583, Note_on_c, 1, 55, 127
1, 36585, Note_on_c, 1, 61, 127
1, 36586, Note_on_c, 1, 45, 127
1, 36586, Note_on_c, 1, 33, 127
1, 36615, Note_off_c, 1, 61, 0
1, 36648, Note_on_c, 1, 69, 127
1, 36648, Note_on_c, 1, 54, 127
1, 36654, Note_off_c, 1, 55, 0
1, 36669, Note_off_c, 1, 69, 0
1, 36680, Note_off_c, 1, 45, 0
1, 36680, Note_off_c, 1, 33, 0
1, 36706, Note_on_c, 1, 47, 127
1, 36706, Note_on_c, 1, 35, 127
1, 36709, Note_off_c, 1, 54, 0
1, 36709, Note_on_c, 1, 62, 127
1, 36768, Note_off_c, 1, 62, 0
1, 36771, Note_on_c, 1, 67, 127
1, 36772, Note_on_c, 1, 59, 127
1, 36828, Note_off_c, 1, 47, 0
1, 36828, Note_off_c, 1, 35, 0
1, 36828, Note_on_c, 1, 49, 127
1, 36828, Note_on_c, 1, 37, 127
1, 36832, Note_on_c, 1, 52, 127
1, 36836, Note_off_c, 1, 59, 0
1, 36890, Note_off_c, 1, 67, 0
1, 36891, Note_on_c, 1, 66, 127
1, 36892, Note_on_c, 1, 57, 127
1, 36894, Note_off_c, 1, 52, 0
1, 36949, Note_off_c, 1, 66, 0
1, 36951, Note_off_c, 1, 57, 0
1, 36951, Note_on_c, 1, 64, 127
1, 37008, Note_off_c, 1, 64, 0
1, 37065, Note_on_c, 1, 50, 127
1, 37072, Note_off_c, 1, 49, 0
1, 37072, Note_off_c, 1, 37, 0
1, 37072, Note_on_c, 1, 38, 127
1, 37202, Note_off_c, 1, 50, 0
1, 37202, Note_off_c, 1, 38, 0
1, 37242, Note_on_c, 1, 40, 127
1, 37302, Note_off_c, 1, 40, 0
1, 37303, Note_on_c, 1, 42, 127
1, 37359, Note_on_c, 1, 71, 127
1, 37363, Note_off_c, 1, 42, 0
1, 37387, Note_on_c, 1, 72, 127
1, 37388, Note_off_c, 1, 71, 0
1, 37411, Note_off_c, 1, 72, 0
1, 37419, Note_on_c, 1, 43, 127
1, 37484, Note_off_c, 1, 43, 0
1, 37550, Note_on_c, 1, 74, 127
1, 37660, Note_off_c, 1, 74, 0
1, 37663, Note_on_c, 1, 76, 127
1, 37669, Note_on_c, 1, 60, 127
1, 37669, Note_on_c, 1, 48, 127
1, 37792, Note_off_c, 1, 76, 0
1, 37801, Note_off_c, 1, 60, 0
1, 37801, Note_off_c, 1, 48, 0
1, 38240, Note_on_c, 1, 73, 127
1, 38260, Note_off_c, 1, 73, 0
1, 38803, Note_on_c, 1, 36, 127
1, 38855, Note_off_c, 1, 36, 0
1, 38981, Note_on_c, 1, 31, 127
1, 39012, Note_off_c, 1, 31, 0
1, 39586, Note_on_c, 1, 62, 127
1, 39587, Note_on_c, 1, 74, 127
1, 39589, Note_on_c, 1, 38, 127
1, 39589, Note_on_c, 1, 26, 127
1, 39693, Note_off_c, 1, 62, 0
1, 39706, Note_on_c, 1, 64, 127
1, 39712, Note_off_c, 1, 74, 0
1, 39723, Note_off_c, 1, 38, 0
1, 39723, Note_off_c, 1, 26, 0
1, 39765, Note_on_c, 1, 72, 127
1, 39821, Note_off_c, 1, 64, 0
1, 39881, Note_off_c, 1, 72, 0
1, 39884, Note_on_c, 1, 71, 127
1, 39950, Note_on_c, 1, 57, 127
1, 39952, Note_off_c, 1, 71, 0
1, 40071, Note_on_c, 1, 69, 127
1, 40129, Note_on_c, 1, 67, 127
1, 40130, Note_off_c, 1, 69, 0
1, 40130, Note_on_c, 1, 59, 127
1, 40134, Note_off_c, 1, 57, 0
1, 40189, Note_on_c, 1, 66, 127
1, 40190, Note_on_c, 1, 60, 127
1, 40191, Note_off_c, 1, 67, 0
1, 40192, Note_off_c, 1, 59, 0
1, 40249, Note_off_c, 1, 66, 0
1, 40312, Note_off_c, 1, 60, 0
1, 40599, Note_on_c, 1, 55, 127
1, 40632, Note_off_c, 1, 55, 0
1, 41028, Note_on_c, 1, 67, 127
1, 41029, Note_on_c, 1, 64, 127
1, 41086, Note_on_c, 1, 66, 127
1, 41092, Note_off_c, 1, 64, 0
1, 41111, Note_off_c, 1, 67, 0
1, 41149, Note_off_c, 1, 66, 0
1, 41203, Note_on_c, 1, 62, 127
1, 41266, Note_on_c, 1, 61, 127
1, 41272, Note_off_c, 1, 62, 0
1, 41326, Note_on_c, 1, 59, 127
1, 41328, Note_off_c, 1, 61, 0
1, 41386, Note_on_c, 1, 57, 127
1, 41390, Note_off_c, 1, 59, 0
1, 41445, Note_off_c, 1, 57, 0
1, 41558, Note_on_c, 1, 60, 127
1, 41595, Note_off_c, 1, 60, 0
1, 41755, Note_on_c, 1, 50, 127
1, 41755, Note_on_c, 1, 38, 127
1, 41810, Note_on_c, 1, 74, 127
1, 41865, Note_off_c, 1, 50, 0
1, 41865, Note_off_c, 1, 38, 0
1, 41867, Note_on_c, 1, 72, 127
1, 41868, Note_off_c, 1, 74, 0
1, 41872, Note_on_c, 1, 52, 127
1, 41872, Note_on_c, 1, 40, 127
1, 41926, Note_off_c, 1, 72, 0
1, 41927, Note_on_c, 1, 71, 127
1, 41980, Note_off_c, 1, 52, 0
1, 41980, Note_off_c, 1, 40, 0
1, 41986, Note_on_c, 1, 76, 127
1, 41987, Note_off_c, 1, 71, 0
1, 42044, Note_off_c, 1, 76, 0
1, 42045, Note_on_c, 1, 68, 127
1, 42076, Note_off_c, 1, 68, 0
1, 42104, Note_on_c, 1, 45, 127
1, 42104, Note_on_c, 1, 33, 127
1, 42105, Note_on_c, 1, 69, 127
1, 42168, Note_off_c, 1, 69, 0
1, 42285, Note_on_c, 1, 55, 127
1, 42322, Note_off_c, 1, 45, 0
1, 42322, Note_off_c, 1, 33, 0
1, 42340, Note_on_c, 1, 48, 127
1, 42340, Note_on_c, 1, 36, 127
1, 42347, Note_on_c, 1, 54, 127
1, 42349, Note_off_c, 1, 55, 0
1, 42404, Note_off_c, 1, 54, 0
1, 42406, Note_on_c, 1, 78, 127
1, 42456, Note_off_c, 1, 48, 0
1, 42456, Note_off_c, 1, 36, 0
1, 42460, Note_off_c, 1, 78, 0
1, 42464, Note_on_c, 1, 50, 127
1, 42465, Note_on_c, 1, 47, 127
1, 42465, Note_on_c, 1, 35, 127
1, 42466, Note_on_c, 1, 79, 127
1, 42519, Note_off_c, 1, 50, 0
1, 42531, Note_off_c, 1, 79, 0
1, 42538, Note_on_c, 1, 67, 127
1, 42540, Note_on_c, 1, 74, 127
1, 42598, Note_off_c, 1, 47, 0
1, 42598, Note_off_c, 1, 35, 0
1, 42598, Note_off_c, 1, 74, 0
1, 42599, Note_on_c, 1, 76, 127
1, 42600, Note_on_c, 1, 45, 127
1, 42600, Note_on_c, 1, 33, 127
1, 42657, Note_off_c, 1, 67, 0
1, 42661, Note_on_c, 1, 66, 127
1, 42667, Note_off_c, 1, 76, 0
1, 42690, Note_off_c, 1, 66, 0
1, 42690, Note_on_c, 1, 64, 127
1, 42719, Note_off_c, 1, 64, 0
1, 42776, Note_on_c, 1, 72, 127
1, 42813, Note_off_c, 1, 72, 0
1, 42832, Note_on_c, 1, 43, 127
1, 42832, Note_on_c, 1, 31, 127
1, 42835, Note_off_c, 1, 45, 0
1, 42835, Note_off_c, 1, 33, 0
1, 42836, Note_on_c, 1, 71, 127
1, 42873, Note_off_c, 1, 43, 0
1, 42873, Note_off_c, 1, 31, 0
1, 42897, Note_on_c, 1, 55, 127
1, 42935, Note_off_c, 1, 71, 0
1, 42941, Note_off_c, 1, 55, 0
1, 42957, Note_on_c, 1, 60, 127
1, 42957, Note_on_c, 1, 48, 127
1, 43012, Note_on_c, 1, 69, 127
1, 43013, Note_off_c, 1, 60, 0
1, 43013, Note_off_c, 1, 48, 0
1, 43017, Note_on_c, 1, 59, 127
1, 43056, Note_off_c, 1, 69, 0
1, 43071, Note_off_c, 1, 59, 0
1, 43073, Note_on_c, 1, 57, 127
1, 43128, Note_off_c, 1, 57, 0
1, 43184, Note_on_c, 1, 54, 127
1, 43184, Note_on_c, 1, 42, 127
1, 43245, Note_on_c, 1, 52, 127
1, 43245, Note_on_c, 1, 40, 127
1, 43250, Note_off_c, 1, 54, 0
1, 43250, Note_off_c, 1, 42, 0
1, 43304, Note_off_c, 1, 52, 0
1, 43304, Note_off_c, 1, 40, 0
1, 43305, Note_on_c, 1, 38, 127
1, 43365, Note_on_c, 1, 36, 127
1, 43368, Note_off_c, 1, 38, 0
1, 43431, Note_on_c, 1, 62, 127
1, 43432, Note_off_c, 1, 36, 0
1, 43488, Note_off_c, 1, 62, 0
1, 43842, Note_on_c, 1, 26, 127
1, 43873, Note_off_c, 1, 26, 0
1, 43910, Note_on_c, 1, 28, 127
1, 43967, Note_on_c, 1, 65, 127
1, 43979, Note_off_c, 1, 28, 0
1, 43994, Note_off_c, 1, 65, 0
1, 44869, Note_on_c, 1, 67, 127
1, 44930, Note_on_c, 1, 55, 127
1, 44961, Note_off_c, 1, 55, 0
1, 44994, Note_on_c, 1, 57, 127
1, 45054, Note_on_c, 1, 64, 127
1, 45057, Note_off_c, 1, 67, 0
1, 45112, Note_on_c, 1, 66, 127
1, 45117, Note_off_c, 1, 64, 0
1, 45167, Note_off_c, 1, 66, 0
1, 45168, Note_on_c, 1, 59, 127
1, 45173, Note_off_c, 1, 57, 0
1, 45228, Note_on_c, 1, 69, 127
1, 45229, Note_off_c, 1, 59, 0
1, 45229, Note_on_c, 1, 60, 127
1, 45346, Note_off_c, 1, 60, 0
1, 45375, Note_off_c, 1, 69, 0
1, 45468, Note_on_c, 1, 62, 127
1, 45625, Note_off_c, 1, 62, 0
1, 45642, Note_on_c, 1, 62, 127
1, 45695, Note_off_c, 1, 62, 0
1, 45702, Note_on_c, 1, 57, 127
1, 45703, Note_on_c, 1, 61, 127
1, 45764, Note_off_c, 1, 61, 0
1, 45767, Note_on_c, 1, 62, 127
1, 45825, Note_off_c, 1, 62, 0
1, 45826, Note_on_c, 1, 64, 127
1, 45889, Note_on_c, 1, 55, 127
1, 45892, Note_off_c, 1, 57, 0
1, 45949, Note_off_c, 1, 55, 0
1, 45950, Note_on_c, 1, 54, 127
1, 46008, Note_off_c, 1, 64, 0
1, 46125, Note_off_c, 1, 54, 0
1, 46211, Note_on_c, 1, 52, 127
1, 46227, Note_off_c, 1, 52, 0
1, 46286, Note_on_c, 1, 59, 127
1, 46317, Note_off_c, 1, 59, 0
1, 46373, Note_on_c, 1, 50, 127
1, 46403, Note_off_c, 1, 50, 0
1, 46490, Note_on_c, 1, 60, 127
1, 46558, Note_off_c, 1, 60, 0
1, 46968, Note_on_c, 1, 66, 127
1, 47031, Note_off_c, 1, 66, 0
1, 47031, Note_on_c, 1, 67, 127
1, 47148, Note_off_c, 1, 67, 0
1, 47267, Note_on_c, 1, 69, 127
1, 47469, Note_off_c, 1, 69, 0
1, 48397, Note_on_c, 1, 48, 127
1, 48454, Note_off_c, 1, 48, 0
1, 48454, Note_on_c, 1, 43, 127
1, 48454, Note_on_c, 1, 31, 127
1, 48551, Note_off_c, 1, 43, 0
1, 48551, Note_off_c, 1, 31, 0
1, 48574, Note_on_c, 1, 45, 127
1, 48574, Note_on_c, 1, 33, 127
1, 48756, Note_off_c, 1, 45, 0
1, 48756, Note_off_c, 1, 33, 0
1, 48756, Note_on_c, 1, 47, 127
1, 48756, Note_on_c, 1, 35, 127
1, 48819, Note_on_c, 1, 36, 127
1, 48821, Note_off_c, 1, 47, 0
1, 48821, Note_off_c, 1, 35, 0
1, 48946, Note_off_c, 1, 36, 0
1, 49068, Note_on_c, 1, 38, 127
1, 49241, Note_on_c, 1, 71, 127
1, 49257, Note_off_c, 1, 38, 0
1, 49303, Note_on_c, 1, 73, 127
1, 49304, Note_off_c, 1, 71, 0
1, 49362, Note_off_c, 1, 73, 0
1, 49364, Note_on_c, 1, 74, 127
1, 49424, Note_off_c, 1, 74, 0
1, 49424, Note_on_c, 1, 76, 127
1, 49538, Note_on_c, 1, 42, 127
1, 49538, Note_on_c, 1, 30, 127
1, 49545, Note_off_c, 1, 76, 0
1, 49687, Note_off_c, 1, 42, 0
1, 49687, Note_off_c, 1, 30, 0
1, 49779, Note_on_c, 1, 40, 127
1, 49779, Note_on_c, 1, 28, 127
1, 49986, Note_off_c, 1, 40, 0
1, 49986, Note_off_c, 1, 28, 0
1, 50017, Note_on_c, 1, 26, 127
1, 50086, Note_on_c, 1, 72, 127
1, 50139, Note_off_c, 1, 72, 0
1, 50207, Note_off_c, 1, 26, 0
1, 50925, Note_on_c, 1, 65, 127
1, 50948, Note_off_c, 1, 65, 0
1, 51815, Note_on_c, 1, 69, 127
1, 51817, Note_on_c, 1, 61, 127
1, 51818, Note_on_c, 1, 52, 127
1, 51877, Note_on_c, 1, 57, 127
1, 51877, Note_on_c, 1, 55, 127
1, 51877, Note_on_c, 1, 43, 127
1, 51885, Note_off_c, 1, 61, 0
1, 51903, Note_off_c, 1, 52, 0
1, 51931, Note_on_c, 1, 54, 127
1, 51931, Note_on_c, 1, 42, 127
1, 51934, Note_off_c, 1, 55, 0
1, 51934, Note_off_c, 1, 43, 0
1, 51938, Note_on_c, 1, 62, 127
1, 51939, Note_off_c, 1, 57, 0
1, 51990, Note_off_c, 1, 69, 0
1, 51991, Note_on_c, 1, 67, 127
1, 51992, Note_on_c, 1, 40, 127
1, 51995, Note_off_c, 1, 42, 0
1, 52010, Note_off_c, 1, 54, 0
1, 52053, Note_off_c, 1, 40, 0
1, 52054, Note_off_c, 1, 67, 0
1, 52054, Note_on_c, 1, 50, 127
1, 52054, Note_on_c, 1, 38, 127
1, 52056, Note_on_c, 1, 66, 127
1, 52116, Note_on_c, 1, 49, 127
1, 52116, Note_on_c, 1, 37, 127
1, 52118, Note_off_c, 1, 50, 0
1, 52118, Note_off_c, 1, 38, 0
1, 52168, Note_off_c, 1, 49, 0
1, 52168, Note_off_c, 1, 37, 0
1, 52176, Note_on_c, 1, 47, 127
1, 52176, Note_on_c, 1, 35, 127
1, 52184, Note_on_c, 1, 59, 127
1, 52241, Note_off_c, 1, 66, 0
1, 52242, Note_off_c, 1, 47, 0
1, 52242, Note_off_c, 1, 35, 0
1, 52250, Note_on_c, 1, 45, 127
1, 52250, Note_on_c, 1, 33, 127
1, 52306, Note_on_c, 1, 31, 127
1, 52307, Note_off_c, 1, 45, 0
1, 52307, Note_off_c, 1, 33, 0
1, 52324, Note_on_c, 1, 64, 127
1, 52343, Note_off_c, 1, 64, 0
1, 52364, Note_off_c, 1, 31, 0
1, 52365, Note_on_c, 1, 28, 127
1, 52428, Note_off_c, 1, 28, 0
1, 52429, Note_off_c, 1, 59, 0
1, 52443, Note_off_c, 1, 62, 0
1, 52556, Note_on_c, 1, 60, 127
1, 52556, Note_on_c, 1, 26, 127
1, 52562, Note_off_c, 1, 60, 0
1, 52625, Note_off_c, 1, 26, 0
1, 52674, Note_on_c, 1, 30, 127
1, 52723, Note_off_c, 1, 30, 0
1, 53682, Note_on_c, 1, 72, 127
1, 53739, Note_off_c, 1, 72, 0
1, 53739, Note_on_c, 1, 71, 127
1, 53800, Note_off_c, 1, 71, 0
1, 54529, Note_on_c, 1, 65, 127
1, 54594, Note_off_c, 1, 65, 0
1, 55422, Note_on_c, 1, 62, 127
1, 55422, Note_on_c, 1, 54, 127
1, 55468, Note_off_c, 1, 62, 0
1, 55489, Note_off_c, 1, 54, 0
1, 55489, Note_on_c, 1, 57, 127
1, 55490, Note_on_c, 1, 55, 127
1, 55524, Note_off_c, 1, 57, 0
1, 55551, Note_off_c, 1, 55, 0
1, 55614, Note_on_c, 1, 52, 127
1, 55670, Note_on_c, 1, 64, 127
1, 55672, Note_on_c, 1, 50, 127
1, 55676, Note_off_c, 1, 52, 0
1, 55732, Note_on_c, 1, 49, 127
1, 55736, Note_off_c, 1, 50, 0
1, 55776, Note_off_c, 1, 49, 0
1, 55789, Note_on_c, 1, 66, 127
1, 55792, Note_off_c, 1, 64, 0
1, 55968, Note_on_c, 1, 67, 127
1, 55969, Note_off_c, 1, 66, 0
1, 56022, Note_off_c, 1, 67, 0
1, 56024, Note_on_c, 1, 69, 127
1, 56084, Note_on_c, 1, 60, 127
1, 56144, Note_on_c, 1, 59, 127
1, 56145, Note_off_c, 1, 60, 0
1, 56205, Note_off_c, 1, 69, 0
1, 56329, Note_off_c, 1, 59, 0
1, 56446, Note_on_c, 1, 61, 127
1, 56515, Note_off_c, 1, 61, 0
1, 56867, Note_on_c, 1, 55, 127
1, 56867, Note_on_c, 1, 59, 127
1, 56928, Note_on_c, 1, 54, 127
1, 56937, Note_off_c, 1, 55, 0
1, 56955, Note_off_c, 1, 59, 0
1, 56985, Note_on_c, 1, 52, 127
1, 56986, Note_on_c, 1, 62, 127
1, 56987, Note_off_c, 1, 54, 0
1, 57028, Note_off_c, 1, 62, 0
1, 57029, Note_on_c, 1, 61, 127
1, 57041, Note_off_c, 1, 61, 0
1, 57054, Note_off_c, 1, 52, 0
1, 57153, Note_on_c, 1, 57, 127
1, 57218, Note_on_c, 1, 38, 127
1, 57218, Note_on_c, 1, 26, 127
1, 57221, Note_off_c, 1, 57, 0
1, 57278, Note_on_c, 1, 72, 127
1, 57322, Note_off_c, 1, 38, 0
1, 57322, Note_off_c, 1, 26, 0
1, 57334, Note_on_c, 1, 43, 127
1, 57334, Note_on_c, 1, 31, 127
1, 57335, Note_on_c, 1, 71, 127
1, 57340, Note_off_c, 1, 72, 0
1, 57400, Note_on_c, 1, 69, 127
1, 57406, Note_off_c, 1, 71, 0
1, 57452, Note_on_c, 1, 45, 127
1, 57452, Note_on_c, 1, 33, 127
1, 57453, Note_off_c, 1, 43, 0
1, 57453, Note_off_c, 1, 31, 0
1, 57463, Note_on_c, 1, 67, 127
1, 57464, Note_off_c, 1, 69, 0
1, 57522, Note_off_c, 1, 67, 0
1, 57522, Note_on_c, 1, 66, 127
1, 57523, Note_on_c, 1, 60, 127
1, 57578, Note_off_c, 1, 45, 0
1, 57578, Note_off_c, 1, 33, 0
1, 57583, Note_off_c, 1, 66, 0
1, 57583, Note_off_c, 1, 60, 0
1, 57583, Note_on_c, 1, 47, 127
1, 57583, Note_on_c, 1, 35, 127
1, 57648, Note_on_c, 1, 76, 127
1, 57705, Note_on_c, 1, 74, 127
1, 57709, Note_off_c, 1, 76, 0
1, 57761, Note_off_c, 1, 47, 0
1, 57761, Note_off_c, 1, 35, 0
1, 57763, Note_on_c, 1, 48, 127
1, 57763, Note_on_c, 1, 36, 127
1, 57765, Note_off_c, 1, 74, 0
1, 57820, Note_on_c, 1, 50, 127
1, 57825, Note_off_c, 1, 48, 0
1, 57825, Note_off_c, 1, 36, 0
1, 57978, Note_off_c, 1, 50, 0
1, 58546, Note_on_c, 1, 64, 127
1, 58602, Note_off_c, 1, 64, 0
1, 58661, Note_on_c, 1, 60, 127
1, 58661, Note_on_c, 1, 40, 127
1, 58661, Note_on_c, 1, 28, 127
1, 58663, Note_on_c, 1, 55, 127
1, 58707, Note_off_c, 1, 60, 0
1, 58719, Note_on_c, 1, 59, 127
1, 58736, Note_off_c, 1, 55, 0
1, 58761, Note_off_c, 1, 59, 0
1, 58772, Note_off_c, 1, 40, 0
1, 58772, Note_off_c, 1, 28, 0
1, 58776, Note_on_c, 1, 42, 127
1, 58776, Note_on_c, 1, 30, 127
1, 58779, Note_on_c, 1, 50, 127
1, 58780, Note_on_c, 1, 57, 127
1, 58839, Note_off_c, 1, 57, 0
1, 58840, Note_on_c, 1, 59, 127
1, 58874, Note_off_c, 1, 50, 0
1, 58900, Note_off_c, 1, 59, 0
1, 58906, Note_on_c, 1, 60, 127
1, 58966, Note_off_c, 1, 60, 0
1, 58970, Note_on_c, 1, 62, 127
1, 59005, Note_off_c, 1, 62, 0
1, 59006, Note_off_c, 1, 42, 0
1, 59006, Note_off_c, 1, 30, 0
1, 59024, Note_on_c, 1, 43, 127
1, 59024, Note_on_c, 1, 31, 127
1, 59024, Note_on_c, 1, 62, 127
1, 59029, Note_on_c, 1, 59, 127
1, 59030, Note_on_c, 1, 55, 127
1, 59085, Note_off_c, 1, 59, 0
1, 59086, Note_off_c, 1, 55, 0
1, 59087, Note_on_c, 1, 60, 127
1, 59087, Note_on_c, 1, 57, 127
1, 59139, Note_off_c, 1, 60, 0
1, 59141, Note_off_c, 1, 62, 0
1, 59141, Note_off_c, 1, 57, 0
1, 59145, Note_on_c, 1, 67, 127
1, 59203, Note_on_c, 1, 64, 127
1, 59257, Note_on_c, 1, 69, 127
1, 59266, Note_off_c, 1, 64, 0
1, 59271, Note_off_c, 1, 43, 0
1, 59271, Note_off_c, 1, 31, 0
1, 59320, Note_off_c, 1, 67, 0
1, 59325, Note_on_c, 1, 66, 127
1, 59345, Note_off_c, 1, 66, 0
1, 59382, Note_off_c, 1, 69, 0
1, 59386, Note_on_c, 1, 71, 127
1, 59391, Note_on_c, 1, 67, 127
1, 59391, Note_on_c, 1, 55, 127
1, 59444, Note_off_c, 1, 67, 0
1, 59448, Note_on_c, 1, 60, 127
1, 59448, Note_on_c, 1, 48, 127
1, 59505, Note_off_c, 1, 60, 0
1, 59505, Note_off_c, 1, 48, 0
1, 59506, Note_on_c, 1, 59, 127
1, 59506, Note_on_c, 1, 47, 127
1, 59508, Note_on_c, 1, 62, 127
1, 59562, Note_on_c, 1, 57, 127
1, 59562, Note_on_c, 1, 45, 127
1, 59563, Note_off_c, 1, 59, 0
1, 59563, Note_off_c, 1, 47, 0
1, 59564, Note_on_c, 1, 72, 127
1, 59566, Note_off_c, 1, 71, 0
1, 59569, Note_off_c, 1, 55, 0
1, 59621, Note_off_c, 1, 45, 0
1, 59622, Note_on_c, 1, 43, 127
1, 59629, Note_on_c, 1, 74, 127
1, 59632, Note_off_c, 1, 57, 0
1, 59632, Note_off_c, 1, 72, 0
1, 59684, Note_on_c, 1, 54, 127
1, 59684, Note_on_c, 1, 42, 127
1, 59689, Note_off_c, 1, 43, 0
1, 59700, Note_off_c, 1, 62, 0
1, 59743, Note_off_c, 1, 54, 0
1, 59743, Note_off_c, 1, 42, 0
1, 59745, Note_on_c, 1, 52, 127
1, 59745, Note_on_c, 1, 40, 127
1, 59778, Note_off_c, 1, 74, 0
1, 59885, Note_off_c, 1, 52, 0
1, 59885, Note_off_c, 1, 40, 0
1, 59930, Note_on_c, 1, 65, 127
1, 59932, Note_on_c, 1, 50, 127
1, 59932, Note_on_c, 1, 38, 127
1, 59958, Note_off_c, 1, 65, 0
1, 59994, Note_on_c, 1, 64, 127
1, 60000, Note_off_c, 1, 50, 0
1, 60000, Note_off_c, 1, 38, 0
1, 60084, Note_off_c, 1, 64, 0
1, 60235, Note_on_c, 1, 69, 127
1, 60289, Note_on_c, 1, 53, 127
1, 60289, Note_on_c, 1, 41, 127
1, 60356, Note_off_c, 1, 53, 0
1, 60356, Note_off_c, 1, 41, 0
1, 60413, Note_off_c, 1, 69, 0
1, 60470, Note_on_c, 1, 36, 127
1, 60524, Note_on_c, 1, 35, 127
1, 60535, Note_off_c, 1, 36, 0
1, 60557, Note_on_c, 1, 66, 127
1, 60583, Note_off_c, 1, 35, 0
1, 60584, Note_on_c, 1, 33, 127
1, 60589, Note_off_c, 1, 66, 0
1, 60675, Note_off_c, 1, 33, 0
1, 61537, Note_on_c, 1, 31, 127
1, 61660, Note_off_c, 1, 31, 0
1, 61671, Note_on_c, 1, 59, 127
1, 61730, Note_on_c, 1, 57, 127
1, 61731, Note_off_c, 1, 59, 0
1, 61788, Note_on_c, 1, 55, 127
1, 61789, Note_off_c, 1, 57, 0
1, 61853, Note_on_c, 1, 54, 127
1, 61856, Note_off_c, 1, 55, 0
1, 61893, Note_off_c, 1, 54, 0
1, 61913, Note_on_c, 1, 52, 127
1, 61974, Note_on_c, 1, 62, 127
1, 62032, Note_off_c, 1, 62, 0
1, 62032, Note_on_c, 1, 64, 127
1, 62088, Note_off_c, 1, 64, 0
1, 62146, Note_on_c, 1, 57, 127
1, 62147, Note_on_c, 1, 60, 127
1, 62150, Note_off_c, 1, 52, 0
1, 62205, Note_off_c, 1, 60, 0
1, 62207, Note_on_c, 1, 59, 127
1, 62266, Note_off_c, 1, 59, 0
1, 62268, Note_off_c, 1, 57, 0
1, 62377, Note_on_c, 1, 55, 127
1, 62399, Note_on_c, 1, 54, 127
1, 62400, Note_off_c, 1, 55, 0
1, 62415, Note_off_c, 1, 54, 0
1, 62619, Note_on_c, 1, 59, 127
1, 62619, Note_on_c, 1, 55, 127
1, 62686, Note_on_c, 1, 57, 127
1, 62687, Note_off_c, 1, 59, 0
1, 62692, Note_off_c, 1, 55, 0
1, 62743, Note_on_c, 1, 54, 127
1, 62747, Note_off_c, 1, 57, 0
1, 62803, Note_off_c, 1, 54, 0
1, 62805, Note_on_c, 1, 52, 127
1, 62806, Note_on_c, 1, 61, 127
1, 62865, Note_off_c, 1, 61, 0
1, 62866, Note_off_c, 1, 52, 0
1, 62866, Note_on_c, 1, 62, 127
1, 62927, Note_on_c, 1, 64, 127
1, 62928, Note_off_c, 1, 62, 0
1, 62988, Note_off_c, 1, 64, 0
1, 63050, Note_on_c, 1, 64, 127
1, 63051, Note_on_c, 1, 49, 127
1, 63101, Note_off_c, 1, 49, 0
1, 63108, Note_off_c, 1, 64, 0
1, 63109, Note_on_c, 1, 50, 127
1, 63110, Note_on_c, 1, 66, 127
1, 63169, Note_on_c, 1, 52, 127
1, 63170, Note_off_c, 1, 50, 0
1, 63170, Note_on_c, 1, 64, 127
1, 63173, Note_off_c, 1, 66, 0
1, 63227, Note_on_c, 1, 54, 127
1, 63228, Note_off_c, 1, 52, 0
1, 63229, Note_off_c, 1, 64, 0
1, 63230, Note_on_c, 1, 62, 127
1, 63287, Note_off_c, 1, 54, 0
1, 63288, Note_on_c, 1, 61, 127
1, 63292, Note_off_c, 1, 62, 0
1, 63345, Note_off_c, 1, 61, 0
1, 63348, Note_on_c, 1, 55, 127
1, 63348, Note_on_c, 1, 59, 127
1, 63409, Note_on_c, 1, 57, 127
1, 63410, Note_off_c, 1, 55, 0
1, 63455, Note_off_c, 1, 59, 0
1, 63462, Note_off_c, 1, 57, 0
1, 63468, Note_on_c, 1, 59, 127
1, 63525, Note_on_c, 1, 57, 127
1, 63529, Note_off_c, 1, 59, 0
1, 63584, Note_on_c, 1, 55, 127
1, 63586, Note_on_c, 1, 64, 127
1, 63588, Note_off_c, 1, 57, 0
1, 63645, Note_on_c, 1, 54, 127
1, 63646, Note_off_c, 1, 55, 0
1, 63690, Note_off_c, 1, 64, 0
1, 63703, Note_off_c, 1, 54, 0
1, 63705, Note_on_c, 1, 59, 127
1, 63705, Note_on_c, 1, 55, 127
1, 63750, Note_off_c, 1, 59, 0
1, 63764, Note_off_c, 1, 55, 0
1, 63765, Note_on_c, 1, 59, 127
1, 63820, Note_on_c, 1, 57, 127
1, 63823, Note_off_c, 1, 59, 0
1, 63824, Note_on_c, 1, 62, 127
1, 63843, Note_off_c, 1, 62, 0
1, 63843, Note_on_c, 1, 61, 127
1, 63857, Note_off_c, 1, 61, 0
1, 63874, Note_on_c, 1, 55, 127
1, 63875, Note_off_c, 1, 57, 0
1, 63945, Note_on_c, 1, 54, 127
1, 63948, Note_off_c, 1, 55, 0
1, 64005, Note_on_c, 1, 52, 127
1, 64006, Note_off_c, 1, 54, 0
1, 64069, Note_off_c, 1, 52, 0
1, 64126, Note_on_c, 1, 66, 127
1, 64128, Note_on_c, 1, 50, 127
1, 64187, Note_off_c, 1, 66, 0
1, 64187, Note_on_c, 1, 64, 127
1, 64188, Note_off_c, 1, 50, 0
1, 64188, Note_on_c, 1, 55, 127
1, 64250, Note_off_c, 1, 64, 0
1, 64250, Note_on_c, 1, 62, 127
1, 64309, Note_on_c, 1, 61, 127
1, 64314, Note_off_c, 1, 62, 0
1, 64367, Note_off_c, 1, 61, 0
1, 64370, Note_on_c, 1, 59, 127
1, 64429, Note_off_c, 1, 59, 0
1, 64484, Note_on_c, 1, 45, 127
1, 64484, Note_on_c, 1, 33, 127
1, 64489, Note_on_c, 1, 57, 127
1, 64507, Note_off_c, 1, 55, 0
1, 64543, Note_off_c, 1, 45, 0
1, 64543, Note_off_c, 1, 33, 0
1, 64547, Note_on_c, 1, 47, 127
1, 64547, Note_on_c, 1, 35, 127
1, 64548, Note_on_c, 1, 54, 127
1, 64552, Note_off_c, 1, 57, 0
1, 64606, Note_off_c, 1, 54, 0
1, 64609, Note_off_c, 1, 47, 0
1, 64609, Note_off_c, 1, 35, 0
1, 64668, Note_on_c, 1, 43, 127
1, 64668, Note_on_c, 1, 31, 127
1, 64724, Note_on_c, 1, 42, 127
1, 64724, Note_on_c, 1, 30, 127
1, 64726, Note_off_c, 1, 43, 0
1, 64726, Note_off_c, 1, 31, 0
1, 64774, Note_off_c, 1, 42, 0
1, 64774, Note_off_c, 1, 30, 0
1, 64785, Note_on_c, 1, 40, 127
1, 64785, Note_on_c, 1, 28, 127
1, 64787, Note_on_c, 1, 67, 127
1, 64829, Note_off_c, 1, 67, 0
1, 64848, Note_on_c, 1, 71, 127
1, 64908, Note_on_c, 1, 76, 127
1, 64909, Note_off_c, 1, 71, 0
1, 64966, Note_on_c, 1, 74, 127
1, 64968, Note_off_c, 1, 76, 0
1, 64998, Note_off_c, 1, 40, 0
1, 64998, Note_off_c, 1, 28, 0
1, 65026, Note_on_c, 1, 52, 127
1, 65028, Note_on_c, 1, 73, 127
1, 65031, Note_off_c, 1, 74, 0
1, 65086, Note_off_c, 1, 73, 0
1, 65094, Note_off_c, 1, 52, 0
1, 65147, Note_on_c, 1, 72, 127
1, 65207, Note_off_c, 1, 72, 0
1, 65446, Note_on_c, 1, 69, 127
1, 65511, Note_off_c, 1, 69, 0
1, 65569, Note_on_c, 1, 60, 127
1, 65570, Note_on_c, 1, 38, 127
1, 65607, Note_off_c, 1, 38, 0
1, 65628, Note_off_c, 1, 60, 0
1, 65865, Note_on_c, 1, 49, 127
1, 65865, Note_on_c, 1, 37, 127
1, 66215, Note_off_c, 1, 49, 0
1, 66215, Note_off_c, 1, 37, 0
1, 66594, Note_on_c, 1, 48, 127
1, 66594, Note_on_c, 1, 36, 127
1, 66656, Note_off_c, 1, 48, 0
1, 66656, Note_off_c, 1, 36, 0
1, 66778, Note_on_c, 1, 56, 127
1, 66833, Note_off_c, 1, 56, 0
1, 67398, Note_on_c, 1, 78, 127
1, 67429, Note_on_c, 1, 79, 127
1, 67431, Note_off_c, 1, 78, 0
1, 67585, Note_on_c, 1, 77, 127
1, 67615, Note_off_c, 1, 77, 0
1, 67716, Note_off_c, 1, 79, 0
1, 67798, Note_on_c, 1, 72, 127
1, 67825, Note_on_c, 1, 67, 127
1, 67844, Note_off_c, 1, 67, 0
1, 67850, Note_on_c, 1, 69, 127
1, 67866, Note_off_c, 1, 69, 0
1, 67877, Note_on_c, 1, 71, 127
1, 67888, Note_off_c, 1, 71, 0
1, 67933, Note_on_c, 1, 45, 127
1, 67933, Note_on_c, 1, 33, 127
1, 67951, Note_off_c, 1, 45, 0
1, 67951, Note_off_c, 1, 33, 0
1, 67960, Note_on_c, 1, 60, 127
1, 67960, Note_on_c, 1, 48, 127
1, 67960, Note_on_c, 1, 36, 127
1, 67961, Note_on_c, 1, 64, 127
1, 67978, Note_off_c, 1, 48, 0
1, 67978, Note_off_c, 1, 36, 0
1, 67978, Note_off_c, 1, 64, 0
1, 67979, Note_off_c, 1, 60, 0
1, 68017, Note_on_c, 1, 50, 127
1, 68017, Note_on_c, 1, 38, 127
1, 68021, Note_on_c, 1, 66, 127
1, 68021, Note_on_c, 1, 62, 127
1, 68025, Note_off_c, 1, 72, 0
1, 68054, Note_on_c, 1, 57, 127
1, 68062, Note_off_c, 1, 66, 0
1, 68063, Note_off_c, 1, 50, 0
1, 68063, Note_off_c, 1, 38, 0
1, 68067, Note_off_c, 1, 62, 0
1, 68083, Note_on_c, 1, 59, 127
1, 68086, Note_off_c, 1, 57, 0
1, 68115, Note_off_c, 1, 59, 0
1, 68142, Note_on_c, 1, 62, 127
1, 68171, Note_on_c, 1, 57, 127
1, 68186, Note_off_c, 1, 57, 0
1, 68200, Note_on_c, 1, 59, 127
1, 68214, Note_off_c, 1, 59, 0
1, 68229, Note_on_c, 1, 60, 127
1, 68240, Note_off_c, 1, 60, 0
1, 68292, Note_on_c, 1, 50, 127
1, 68292, Note_on_c, 1, 38, 127
1, 68308, Note_off_c, 1, 50, 0
1, 68308, Note_off_c, 1, 38, 0
1, 68321, Note_on_c, 1, 54, 127
1, 68321, Note_on_c, 1, 42, 127
1, 68335, Note_off_c, 1, 42, 0
1, 68340, Note_off_c, 1, 54, 0
1, 68382, Note_on_c, 1, 55, 127
1, 68382, Note_on_c, 1, 43, 127
1, 68398, Note_off_c, 1, 62, 0
1, 68439, Note_off_c, 1, 55, 0
1, 68439, Note_off_c, 1, 43, 0
1, 68452, Note_on_c, 1, 64, 127
1, 68482, Note_on_c, 1, 66, 127
1, 68483, Note_off_c, 1, 64, 0
1, 68513, Note_off_c, 1, 66, 0
1, 68513, Note_on_c, 1, 67, 127
1, 68537, Note_off_c, 1, 67, 0
1, 68544, Note_on_c, 1, 59, 127
1, 68547, Note_on_c, 1, 62, 127
1, 68564, Note_off_c, 1, 62, 0
1, 68569, Note_on_c, 1, 64, 127
1, 68575, Note_on_c, 1, 60, 127
1, 68577, Note_off_c, 1, 59, 0
1, 68584, Note_off_c, 1, 64, 0
1, 68595, Note_on_c, 1, 66, 127
1, 68604, Note_off_c, 1, 60, 0
1, 68606, Note_off_c, 1, 66, 0
1, 68628, Note_on_c, 1, 67, 127
1, 68630, Note_on_c, 1, 55, 127
1, 68655, Note_on_c, 1, 43, 127
1, 68661, Note_on_c, 1, 65, 127
1, 68669, Note_off_c, 1, 55, 0
1, 68669, Note_off_c, 1, 43, 0
1, 68683, Note_on_c, 1, 47, 127
1, 68691, Note_off_c, 1, 65, 0
1, 68697, Note_off_c, 1, 47, 0
1, 68740, Note_on_c, 1, 48, 127
1, 68777, Note_off_c, 1, 67, 0
1, 68787, Note_off_c, 1, 48, 0
1, 68810, Note_on_c, 1, 69, 127
1, 68841, Note_on_c, 1, 71, 127
1, 68842, Note_off_c, 1, 69, 0
1, 68869, Note_on_c, 1, 72, 127
1, 68871, Note_off_c, 1, 71, 0
1, 68896, Note_off_c, 1, 72, 0
1, 68898, Note_on_c, 1, 64, 127
1, 68900, Note_on_c, 1, 67, 127
1, 68919, Note_off_c, 1, 67, 0
1, 68923, Note_on_c, 1, 69, 127
1, 68930, Note_on_c, 1, 65, 127
1, 68932, Note_off_c, 1, 64, 0
1, 68937, Note_off_c, 1, 69, 0
1, 68953, Note_on_c, 1, 71, 127
1, 68958, Note_off_c, 1, 65, 0
1, 68961, Note_off_c, 1, 71, 0
1, 68984, Note_on_c, 1, 72, 127
1, 68986, Note_on_c, 1, 60, 127
1, 69012, Note_on_c, 1, 57, 127
1, 69012, Note_on_c, 1, 45, 127
1, 69015, Note_off_c, 1, 60, 0
1, 69027, Note_off_c, 1, 57, 0
1, 69027, Note_off_c, 1, 45, 0
1, 69041, Note_on_c, 1, 48, 127
1, 69055, Note_off_c, 1, 48, 0
1, 69096, Note_on_c, 1, 62, 127
1, 69096, Note_on_c, 1, 50, 127
1, 69100, Note_on_c, 1, 66, 127
1, 69113, Note_off_c, 1, 72, 0
1, 69152, Note_off_c, 1, 66, 0
1, 69215, Note_on_c, 1, 74, 127
1, 69243, Note_off_c, 1, 74, 0
1, 69526, Note_on_c, 1, 76, 127
1, 69556, Note_on_c, 1, 78, 127
1, 69557, Note_off_c, 1, 76, 0
1, 69586, Note_on_c, 1, 79, 127
1, 69589, Note_off_c, 1, 78, 0
1, 69612, Note_off_c, 1, 79, 0
1, 69959, Note_off_c, 1, 62, 0
1, 69959, Note_off_c, 1, 50, 0
1, 70065, Note_on_c, 1, 54, 127
1, 70065, Note_on_c, 1, 42, 127
1, 70090, Note_off_c, 1, 54, 0
1, 70090, Note_off_c, 1, 42, 0
1, 70122, Note_on_c, 1, 38, 127
1, 70151, Note_off_c, 1, 38, 0
1, 70192, Note_on_c, 1, 47, 127
1, 70192, Note_on_c, 1, 35, 127
1, 70243, Note_off_c, 1, 47, 0
1, 70243, Note_off_c, 1, 35, 0
1, 70262, Note_on_c, 1, 52, 127
1, 70262, Note_on_c, 1, 40, 127
1, 70314, Note_off_c, 1, 52, 0
1, 70314, Note_off_c, 1, 40, 0
1, 70319, Note_on_c, 1, 74, 127
1, 70322, Note_on_c, 1, 50, 127
1, 70322, Note_on_c, 1, 38, 127
1, 70346, Note_on_c, 1, 66, 127
1, 70351, Note_on_c, 1, 62, 127
1, 70360, Note_off_c, 1, 66, 0
1, 70371, Note_on_c, 1, 67, 127
1, 70374, Note_off_c, 1, 50, 0
1, 70374, Note_off_c, 1, 38, 0
1, 70376, Note_on_c, 1, 64, 127
1, 70377, Note_off_c, 1, 62, 0
1, 70379, Note_on_c, 1, 48, 127
1, 70379, Note_on_c, 1, 36, 127
1, 70395, Note_off_c, 1, 67, 0
1, 70399, Note_on_c, 1, 69, 127
1, 70407, Note_off_c, 1, 64, 0
1, 70410, Note_off_c, 1, 69, 0
1, 70425, Note_off_c, 1, 48, 0
1, 70425, Note_off_c, 1, 36, 0
1, 70430, Note_on_c, 1, 47, 127
1, 70430, Note_on_c, 1, 35, 127
1, 70449, Note_off_c, 1, 74, 0
1, 70480, Note_off_c, 1, 47, 0
1, 70480, Note_off_c, 1, 35, 0
1, 70483, Note_on_c, 1, 45, 127
1, 70483, Note_on_c, 1, 33, 127
1, 70487, Note_on_c, 1, 60, 127
1, 70494, Note_on_c, 1, 71, 127
1, 70520, Note_on_c, 1, 72, 127
1, 70521, Note_off_c, 1, 71, 0
1, 70527, Note_off_c, 1, 60, 0
1, 70529, Note_off_c, 1, 45, 0
1, 70529, Note_off_c, 1, 33, 0
1, 70544, Note_on_c, 1, 59, 127
1, 70549, Note_off_c, 1, 72, 0
1, 70586, Note_off_c, 1, 59, 0
1, 70604, Note_on_c, 1, 57, 127
1, 70633, Note_on_c, 1, 76, 127
1, 70662, Note_off_c, 1, 76, 0
1, 70729, Note_off_c, 1, 57, 0
1, 70787, Note_on_c, 1, 26, 127
1, 70859, Note_off_c, 1, 26, 0
1, 70899, Note_on_c, 1, 43, 127
1, 70899, Note_on_c, 1, 31, 127
1, 71055, Note_off_c, 1, 43, 0
1, 71055, Note_off_c, 1, 31, 0
1, 71145, Note_on_c, 1, 55, 127
1, 71177, Note_on_c, 1, 65, 127
1, 71205, Note_off_c, 1, 65, 0
1, 71335, Note_off_c, 1, 55, 0
1, 71506, Note_on_c, 1, 40, 127
1, 71506, Note_on_c, 1, 28, 127
1, 71544, Note_off_c, 1, 40, 0
1, 71544, Note_off_c, 1, 28, 0
1, 71568, Note_on_c, 1, 24, 127
1, 71606, Note_off_c, 1, 24, 0
1, 71606, End_track
0, 0, End_of_file