0, 0, Header, 1, 1, 480
1, 0, Start_track
1, 0, Title_t, "Test"
1, 0, Tempo, 500000
1, 0, Instrument_name_t, "Church Organ"
1, 9, Note_on_c, 1, 67, 127
1, 9, Note_on_c, 1, 79, 127
1, 9, Note_on_c, 1, 91, 127
1, 65, Note_on_c, 1, 66, 127
1, 65, Note_on_c, 1, 78, 127
1, 65, Note_on_c, 1, 90, 127
1, 66, Note_off_c, 1, 67, 0
1, 66, Note_off_c, 1, 79, 0
1, 66, Note_off_c, 1, 91, 0
1, 126, Note_off_c, 1, 66, 0
1, 126, Note_off_c, 1, 78, 0
1, 126, Note_off_c, 1, 90, 0
1, 127, Note_on_c, 1, 67, 127
1, 127, Note_on_c, 1, 79, 127
1, 127, Note_on_c, 1, 91, 127
1, 178, Note_off_c, 1, 67, 0
1, 178, Note_off_c, 1, 79, 0
1, 178, Note_off_c, 1, 91, 0
1, 182, Note_on_c, 1, 62, 127
1, 182, Note_on_c, 1, 74, 127
1, 182, Note_on_c, 1, 86, 127
1, 239, Note_on_c, 1, 98, 127
1, 240, Note_off_c, 1, 62, 0
1, 296, Note_on_c, 1, 69, 127
1, 296, Note_on_c, 1, 81, 127
1, 296, Note_on_c, 1, 93, 127
1, 298, Note_off_c, 1, 74, 0
1, 298, Note_off_c, 1, 86, 0
1, 298, Note_off_c, 1, 98, 0
1, 347, Note_on_c, 1, 70, 127
1, 347, Note_on_c, 1, 82, 127
1, 347, Note_on_c, 1, 94, 127
1, 354, Note_off_c, 1, 69, 0
1, 354, Note_off_c, 1, 81, 0
1, 354, Note_off_c, 1, 93, 0
1, 404, Note_off_c, 1, 70, 0
1, 404, Note_off_c, 1, 82, 0
1, 404, Note_off_c, 1, 94, 0
1, 406, Note_on_c, 1, 67, 127
1, 406, Note_on_c, 1, 79, 127
1, 406, Note_on_c, 1, 91, 127
1, 434, Note_off_c, 1, 67, 0
1, 434, Note_off_c, 1, 79, 0
1, 434, Note_off_c, 1, 91, 0
1, 463, Note_on_c, 1, 66, 127
1, 463, Note_on_c, 1, 78, 127
1, 463, Note_on_c, 1, 90, 127
1, 528, Note_off_c, 1, 66, 0
1, 528, Note_off_c, 1, 78, 0
1, 528, Note_off_c, 1, 90, 0
1, 529, Note_on_c, 1, 64, 127
1, 529, Note_on_c, 1, 76, 127
1, 529, Note_on_c, 1, 88, 127
1, 588, Note_on_c, 1, 66, 127
1, 588, Note_on_c, 1, 78, 127
1, 588, Note_on_c, 1, 90, 127
1, 592, Note_off_c, 1, 64, 0
1, 592, Note_off_c, 1, 76, 0
1, 592, Note_off_c, 1, 88, 0
1, 642, Note_off_c, 1, 66, 0
1, 642, Note_off_c, 1, 78, 0
1, 642, Note_off_c, 1, 90, 0
1, 645, Note_on_c, 1, 62, 127
1, 645, Note_on_c, 1, 74, 127
1, 645, Note_on_c, 1, 86, 127
1, 682, Note_off_c, 1, 62, 0
1, 682, Note_off_c, 1, 74, 0
1, 682, Note_off_c, 1, 86, 0
1, 706, Note_on_c, 1, 74, 127
1, 706, Note_on_c, 1, 86, 127
1, 706, Note_on_c, 1, 98, 127
1, 770, Note_on_c, 1, 69, 127
1, 770, Note_on_c, 1, 81, 127
1, 770, Note_on_c, 1, 93, 127
1, 777, Note_off_c, 1, 74, 0
1, 777, Note_off_c, 1, 86, 0
1, 777, Note_off_c, 1, 98, 0
1, 825, Note_on_c, 1, 70, 127
1, 825, Note_on_c, 1, 82, 127
1, 825, Note_on_c, 1, 94, 127
1, 833, Note_off_c, 1, 69, 0
1, 833, Note_off_c, 1, 81, 0
1, 833, Note_off_c, 1, 93, 0
1, 880, Note_off_c, 1, 70, 0
1, 880, Note_off_c, 1, 82, 0
1, 880, Note_off_c, 1, 94, 0
1, 884, Note_on_c, 1, 67, 127
1, 884, Note_on_c, 1, 79, 127
1, 884, Note_on_c, 1, 91, 127
1, 918, Note_off_c, 1, 67, 0
1, 918, Note_off_c, 1, 79, 0
1, 918, Note_off_c, 1, 91, 0
1, 953, Note_on_c, 1, 75, 127
1, 953, Note_on_c, 1, 87, 127
1, 953, Note_on_c, 1, 99, 127
1, 1014, Note_on_c, 1, 69, 127
1, 1014, Note_on_c, 1, 81, 127
1, 1014, Note_on_c, 1, 93, 127
1, 1022, Note_off_c, 1, 75, 0
1, 1022, Note_off_c, 1, 87, 0
1, 1022, Note_off_c, 1, 99, 0
1, 1069, Note_on_c, 1, 70, 127
1, 1069, Note_on_c, 1, 82, 127
1, 1069, Note_on_c, 1, 94, 127
1, 1072, Note_off_c, 1, 69, 0
1, 1072, Note_off_c, 1, 81, 0
1, 1072, Note_off_c, 1, 93, 0
1, 1131, Note_off_c, 1, 70, 0
1, 1131, Note_off_c, 1, 82, 0
1, 1131, Note_off_c, 1, 94, 0
1, 1131, Note_on_c, 1, 67, 127
1, 1131, Note_on_c, 1, 79, 127
1, 1131, Note_on_c, 1, 91, 127
1, 1166, Note_off_c, 1, 67, 0
1, 1166, Note_off_c, 1, 79, 0
1, 1166, Note_off_c, 1, 91, 0
1, 1191, Note_on_c, 1, 66, 127
1, 1191, Note_on_c, 1, 78, 127
1, 1191, Note_on_c, 1, 90, 127
1, 1251, Note_on_c, 1, 74, 127
1, 1251, Note_on_c, 1, 86, 127
1, 1251, Note_on_c, 1, 98, 127
1, 1254, Note_off_c, 1, 66, 0
1, 1254, Note_off_c, 1, 78, 0
1, 1254, Note_off_c, 1, 90, 0
1, 1307, Note_on_c, 1, 69, 127
1, 1307, Note_on_c, 1, 81, 127
1, 1307, Note_on_c, 1, 93, 127
1, 1310, Note_off_c, 1, 74, 0
1, 1310, Note_off_c, 1, 86, 0
1, 1310, Note_off_c, 1, 98, 0
1, 1361, Note_off_c, 1, 69, 0
1, 1361, Note_off_c, 1, 81, 0
1, 1361, Note_off_c, 1, 93, 0
1, 1363, Note_on_c, 1, 72, 127
1, 1363, Note_on_c, 1, 84, 127
1, 1363, Note_on_c, 1, 96, 127
1, 1401, Note_off_c, 1, 72, 0
1, 1401, Note_off_c, 1, 84, 0
1, 1401, Note_off_c, 1, 96, 0
1, 1424, Note_on_c, 1, 62, 127
1, 1424, Note_on_c, 1, 74, 127
1, 1424, Note_on_c, 1, 86, 127
1, 1428, Note_on_c, 1, 70, 127
1, 1428, Note_on_c, 1, 82, 127
1, 1428, Note_on_c, 1, 94, 127
1, 1485, Note_on_c, 1, 60, 127
1, 1485, Note_on_c, 1, 72, 127
1, 1485, Note_on_c, 1, 84, 127
1, 1486, Note_off_c, 1, 62, 0
1, 1486, Note_off_c, 1, 74, 0
1, 1486, Note_off_c, 1, 86, 0
1, 1498, Note_off_c, 1, 70, 0
1, 1498, Note_off_c, 1, 82, 0
1, 1498, Note_off_c, 1, 94, 0
1, 1543, Note_on_c, 1, 98, 127
1, 1544, Note_off_c, 1, 60, 0
1, 1544, Note_off_c, 1, 72, 0
1, 1544, Note_off_c, 1, 84, 0
1, 1598, Note_on_c, 1, 55, 127
1, 1598, Note_on_c, 1, 67, 127
1, 1598, Note_on_c, 1, 79, 127
1, 1649, Note_off_c, 1, 55, 0
1, 1649, Note_off_c, 1, 67, 0
1, 1649, Note_off_c, 1, 79, 0
1, 1656, Note_off_c, 1, 98, 0
1, 1658, Note_on_c, 1, 67, 127
1, 1658, Note_on_c, 1, 79, 127
1, 1658, Note_on_c, 1, 91, 127
1, 1662, Note_on_c, 1, 73, 127
1, 1662, Note_on_c, 1, 85, 127
1, 1662, Note_on_c, 1, 97, 127
1, 1715, Note_on_c, 1, 64, 127
1, 1715, Note_on_c, 1, 76, 127
1, 1715, Note_on_c, 1, 88, 127
1, 1720, Note_off_c, 1, 67, 0
1, 1720, Note_off_c, 1, 79, 0
1, 1720, Note_off_c, 1, 91, 0
1, 1774, Note_off_c, 1, 73, 0
1, 1774, Note_off_c, 1, 85, 0
1, 1774, Note_off_c, 1, 97, 0
1, 1775, Note_off_c, 1, 64, 0
1, 1775, Note_off_c, 1, 76, 0
1, 1775, Note_off_c, 1, 88, 0
1, 1775, Note_on_c, 1, 65, 127
1, 1775, Note_on_c, 1, 77, 127
1, 1775, Note_on_c, 1, 89, 127
1, 1780, Note_on_c, 1, 74, 127
1, 1780, Note_on_c, 1, 86, 127
1, 1780, Note_on_c, 1, 98, 127
1, 1830, Note_on_c, 1, 62, 127
1, 1833, Note_off_c, 1, 65, 0
1, 1833, Note_off_c, 1, 77, 0
1, 1833, Note_off_c, 1, 89, 0
1, 1870, Note_off_c, 1, 62, 0
1, 1895, Note_on_c, 1, 61, 127
1, 1896, Note_off_c, 1, 74, 0
1, 1896, Note_off_c, 1, 86, 0
1, 1896, Note_off_c, 1, 98, 0
1, 1897, Note_on_c, 1, 100, 127
1, 1961, Note_on_c, 1, 59, 127
1, 1961, Note_on_c, 1, 71, 127
1, 1961, Note_on_c, 1, 83, 127
1, 1962, Note_off_c, 1, 61, 0
1, 1984, Note_off_c, 1, 100, 0
1, 2019, Note_on_c, 1, 81, 127
1, 2019, Note_on_c, 1, 93, 127
1, 2019, Note_on_c, 1, 105, 127
1, 2029, Note_off_c, 1, 59, 0
1, 2029, Note_off_c, 1, 71, 0
1, 2029, Note_off_c, 1, 83, 0
1, 2081, Note_on_c, 1, 57, 127
1, 2081, Note_on_c, 1, 69, 127
1, 2133, Note_off_c, 1, 57, 0
1, 2133, Note_off_c, 1, 69, 0
1, 2144, Note_off_c, 1, 105, 0
1, 2208, Note_off_c, 1, 81, 0
1, 2208, Note_off_c, 1, 93, 0
1, 2377, Note_on_c, 1, 70, 127
1, 2377, Note_on_c, 1, 82, 127
1, 2377, Note_on_c, 1, 94, 127
1, 2381, Note_on_c, 1, 79, 127
1, 2381, Note_on_c, 1, 91, 127
1, 2381, Note_on_c, 1, 103, 127
1, 2437, Note_on_c, 1, 64, 127
1, 2437, Note_on_c, 1, 76, 127
1, 2437, Note_on_c, 1, 88, 127
1, 2439, Note_off_c, 1, 70, 0
1, 2439, Note_off_c, 1, 82, 0
1, 2439, Note_off_c, 1, 94, 0
1, 2500, Note_off_c, 1, 64, 0
1, 2500, Note_off_c, 1, 76, 0
1, 2500, Note_off_c, 1, 88, 0
1, 2500, Note_on_c, 1, 65, 127
1, 2500, Note_on_c, 1, 77, 127
1, 2500, Note_on_c, 1, 89, 127
1, 2506, Note_on_c, 1, 81, 127
1, 2506, Note_on_c, 1, 93, 127
1, 2506, Note_on_c, 1, 105, 127
1, 2507, Note_off_c, 1, 79, 0
1, 2507, Note_off_c, 1, 91, 0
1, 2507, Note_off_c, 1, 103, 0
1, 2561, Note_on_c, 1, 62, 127
1, 2561, Note_on_c, 1, 74, 127
1, 2561, Note_on_c, 1, 86, 127
1, 2562, Note_on_c, 1, 106, 127
1, 2563, Note_off_c, 1, 65, 0
1, 2563, Note_off_c, 1, 77, 0
1, 2563, Note_off_c, 1, 89, 0
1, 2565, Note_off_c, 1, 81, 0
1, 2565, Note_off_c, 1, 93, 0
1, 2565, Note_off_c, 1, 105, 0
1, 2595, Note_off_c, 1, 62, 0
1, 2595, Note_off_c, 1, 74, 0
1, 2595, Note_off_c, 1, 86, 0
1, 2618, Note_on_c, 1, 61, 127
1, 2618, Note_on_c, 1, 73, 127
1, 2618, Note_on_c, 1, 85, 127
1, 2619, Note_off_c, 1, 106, 0
1, 2677, Note_off_c, 1, 61, 0
1, 2677, Note_off_c, 1, 73, 0
1, 2677, Note_off_c, 1, 85, 0
1, 2678, Note_on_c, 1, 69, 127
1, 2685, Note_on_c, 1, 101, 127
1, 2714, Note_off_c, 1, 69, 0
1, 2748, Note_off_c, 1, 101, 0
1, 2787, Note_on_c, 1, 67, 127
1, 2800, Note_on_c, 1, 100, 127
1, 2814, Note_off_c, 1, 67, 0
1, 2828, Note_off_c, 1, 100, 0
1, 2858, Note_on_c, 1, 65, 127
1, 2858, Note_on_c, 1, 77, 127
1, 2858, Note_on_c, 1, 89, 127
1, 2868, Note_on_c, 1, 74, 127
1, 2868, Note_on_c, 1, 86, 127
1, 2868, Note_on_c, 1, 98, 127
1, 2920, Note_off_c, 1, 65, 0
1, 2920, Note_off_c, 1, 77, 0
1, 2920, Note_off_c, 1, 89, 0
1, 2931, Note_on_c, 1, 76, 127
1, 2931, Note_on_c, 1, 88, 127
1, 2931, Note_on_c, 1, 100, 127
1, 2940, Note_off_c, 1, 74, 0
1, 2940, Note_off_c, 1, 86, 0
1, 2940, Note_off_c, 1, 98, 0
1, 2991, Note_on_c, 1, 101, 127
1, 2995, Note_off_c, 1, 76, 0
1, 2995, Note_off_c, 1, 88, 0
1, 2995, Note_off_c, 1, 100, 0
1, 3051, Note_on_c, 1, 79, 127
1, 3051, Note_on_c, 1, 91, 127
1, 3051, Note_on_c, 1, 103, 127
1, 3054, Note_off_c, 1, 101, 0
1, 3106, Note_on_c, 1, 62, 127
1, 3118, Note_off_c, 1, 79, 0
1, 3118, Note_off_c, 1, 91, 0
1, 3118, Note_off_c, 1, 103, 0
1, 3173, Note_on_c, 1, 75, 127
1, 3173, Note_on_c, 1, 87, 127
1, 3173, Note_on_c, 1, 99, 127
1, 3178, Note_off_c, 1, 62, 0
1, 3231, Note_off_c, 1, 75, 0
1, 3231, Note_off_c, 1, 87, 0
1, 3231, Note_off_c, 1, 99, 0
1, 3287, Note_on_c, 1, 72, 127
1, 3287, Note_on_c, 1, 84, 127
1, 3287, Note_on_c, 1, 96, 127
1, 3308, Note_off_c, 1, 72, 0
1, 3308, Note_off_c, 1, 84, 0
1, 3308, Note_off_c, 1, 96, 0
1, 3350, Note_on_c, 1, 67, 127
1, 3350, Note_on_c, 1, 79, 127
1, 3350, Note_on_c, 1, 91, 127
1, 3351, Note_on_c, 1, 71, 127
1, 3351, Note_on_c, 1, 83, 127
1, 3351, Note_on_c, 1, 95, 127
1, 3410, Note_on_c, 1, 69, 127
1, 3410, Note_on_c, 1, 81, 127
1, 3410, Note_on_c, 1, 93, 127
1, 3421, Note_off_c, 1, 67, 0
1, 3421, Note_off_c, 1, 79, 0
1, 3421, Note_off_c, 1, 91, 0
1, 3453, Note_off_c, 1, 69, 0
1, 3453, Note_off_c, 1, 81, 0
1, 3453, Note_off_c, 1, 93, 0
1, 3455, Note_off_c, 1, 71, 0
1, 3455, Note_off_c, 1, 83, 0
1, 3455, Note_off_c, 1, 95, 0
1, 3466, Note_on_c, 1, 79, 127
1, 3466, Note_on_c, 1, 91, 127
1, 3466, Note_on_c, 1, 103, 127
1, 3467, Note_on_c, 1, 71, 127
1, 3467, Note_on_c, 1, 83, 127
1, 3467, Note_on_c, 1, 95, 127
1, 3523, Note_on_c, 1, 72, 127
1, 3523, Note_on_c, 1, 84, 127
1, 3523, Note_on_c, 1, 96, 127
1, 3526, Note_off_c, 1, 71, 0
1, 3526, Note_off_c, 1, 83, 0
1, 3526, Note_off_c, 1, 95, 0
1, 3550, Note_off_c, 1, 79, 0
1, 3550, Note_off_c, 1, 91, 0
1, 3550, Note_off_c, 1, 103, 0
1, 3582, Note_on_c, 1, 67, 127
1, 3584, Note_off_c, 1, 72, 0
1, 3584, Note_off_c, 1, 84, 0
1, 3584, Note_off_c, 1, 96, 0
1, 3645, Note_on_c, 1, 69, 127
1, 3645, Note_on_c, 1, 81, 127
1, 3645, Note_on_c, 1, 93, 127
1, 3679, Note_off_c, 1, 67, 0
1, 3697, Note_off_c, 1, 69, 0
1, 3697, Note_off_c, 1, 81, 0
1, 3697, Note_off_c, 1, 93, 0
1, 3712, Note_on_c, 1, 67, 127
1, 3712, Note_on_c, 1, 71, 127
1, 3712, Note_on_c, 1, 79, 127
1, 3712, Note_on_c, 1, 83, 127
1, 3712, Note_on_c, 1, 91, 127
1, 3712, Note_on_c, 1, 95, 127
1, 3763, Note_on_c, 1, 65, 127
1, 3763, Note_on_c, 1, 77, 127
1, 3763, Note_on_c, 1, 89, 127
1, 3770, Note_off_c, 1, 67, 0
1, 3770, Note_off_c, 1, 79, 0
1, 3770, Note_off_c, 1, 91, 0
1, 3773, Note_off_c, 1, 71, 0
1, 3773, Note_off_c, 1, 83, 0
1, 3773, Note_off_c, 1, 95, 0
1, 3804, Note_off_c, 1, 65, 0
1, 3804, Note_off_c, 1, 77, 0
1, 3804, Note_off_c, 1, 89, 0
1, 3818, Note_on_c, 1, 63, 127
1, 3818, Note_on_c, 1, 75, 127
1, 3818, Note_on_c, 1, 87, 127
1, 3832, Note_on_c, 1, 72, 127
1, 3832, Note_on_c, 1, 84, 127
1, 3832, Note_on_c, 1, 96, 127
1, 3896, Note_on_c, 1, 74, 127
1, 3896, Note_on_c, 1, 86, 127
1, 3896, Note_on_c, 1, 98, 127
1, 3903, Note_off_c, 1, 72, 0
1, 3903, Note_off_c, 1, 84, 0
1, 3903, Note_off_c, 1, 96, 0
1, 3919, Note_off_c, 1, 63, 0
1, 3919, Note_off_c, 1, 75, 0
1, 3919, Note_off_c, 1, 87, 0
1, 3954, Note_on_c, 1, 99, 127
1, 3966, Note_off_c, 1, 74, 0
1, 3966, Note_off_c, 1, 86, 0
1, 3966, Note_off_c, 1, 98, 0
1, 4006, Note_off_c, 1, 99, 0
1, 4013, Note_on_c, 1, 77, 127
1, 4013, Note_on_c, 1, 89, 127
1, 4013, Note_on_c, 1, 101, 127
1, 4046, Note_off_c, 1, 77, 0
1, 4046, Note_off_c, 1, 89, 0
1, 4046, Note_off_c, 1, 101, 0
1, 4069, Note_on_c, 1, 60, 127
1, 4069, Note_on_c, 1, 72, 127
1, 4069, Note_on_c, 1, 84, 127
1, 4074, Note_on_c, 1, 75, 127
1, 4074, Note_on_c, 1, 87, 127
1, 4074, Note_on_c, 1, 99, 127
1, 4134, Note_on_c, 1, 74, 127
1, 4134, Note_on_c, 1, 86, 127
1, 4134, Note_on_c, 1, 98, 127
1, 4135, Note_off_c, 1, 75, 0
1, 4135, Note_off_c, 1, 87, 0
1, 4135, Note_off_c, 1, 99, 0
1, 4171, Note_off_c, 1, 60, 0
1, 4171, Note_off_c, 1, 72, 0
1, 4171, Note_off_c, 1, 84, 0
1, 4190, Note_on_c, 1, 96, 127
1, 4192, Note_off_c, 1, 74, 0
1, 4192, Note_off_c, 1, 86, 0
1, 4192, Note_off_c, 1, 98, 0
1, 4196, Note_on_c, 1, 63, 127
1, 4248, Note_on_c, 1, 70, 127
1, 4248, Note_on_c, 1, 82, 127
1, 4248, Note_on_c, 1, 94, 127
1, 4250, Note_off_c, 1, 96, 0
1, 4255, Note_off_c, 1, 63, 0
1, 4288, Note_off_c, 1, 70, 0
1, 4288, Note_off_c, 1, 82, 0
1, 4288, Note_off_c, 1, 94, 0
1, 4310, Note_on_c, 1, 65, 127
1, 4310, Note_on_c, 1, 77, 127
1, 4310, Note_on_c, 1, 89, 127
1, 4316, Note_on_c, 1, 69, 127
1, 4316, Note_on_c, 1, 81, 127
1, 4316, Note_on_c, 1, 93, 127
1, 4370, Note_on_c, 1, 67, 127
1, 4370, Note_on_c, 1, 79, 127
1, 4370, Note_on_c, 1, 91, 127
1, 4372, Note_off_c, 1, 65, 0
1, 4372, Note_off_c, 1, 77, 0
1, 4372, Note_off_c, 1, 89, 0
1, 4421, Note_off_c, 1, 69, 0
1, 4421, Note_off_c, 1, 81, 0
1, 4421, Note_off_c, 1, 93, 0
1, 4432, Note_on_c, 1, 101, 127
1, 4433, Note_off_c, 1, 67, 0
1, 4433, Note_off_c, 1, 79, 0
1, 4433, Note_off_c, 1, 91, 0
1, 4489, Note_on_c, 1, 70, 127
1, 4489, Note_on_c, 1, 82, 127
1, 4489, Note_on_c, 1, 94, 127
1, 4518, Note_off_c, 1, 101, 0
1, 4547, Note_off_c, 1, 70, 0
1, 4547, Note_off_c, 1, 82, 0
1, 4547, Note_off_c, 1, 94, 0
1, 4549, Note_on_c, 1, 65, 127
1, 4549, Note_on_c, 1, 77, 127
1, 4549, Note_on_c, 1, 89, 127
1, 4551, Note_on_c, 1, 69, 127
1, 4551, Note_on_c, 1, 81, 127
1, 4551, Note_on_c, 1, 93, 127
1, 4610, Note_on_c, 1, 67, 127
1, 4610, Note_on_c, 1, 79, 127
1, 4610, Note_on_c, 1, 91, 127
1, 4617, Note_off_c, 1, 69, 0
1, 4617, Note_off_c, 1, 81, 0
1, 4617, Note_off_c, 1, 93, 0
1, 4648, Note_off_c, 1, 65, 0
1, 4648, Note_off_c, 1, 77, 0
1, 4648, Note_off_c, 1, 89, 0
1, 4667, Note_off_c, 1, 67, 0
1, 4667, Note_off_c, 1, 79, 0
1, 4667, Note_off_c, 1, 91, 0
1, 4717, Note_on_c, 1, 63, 127
1, 4717, Note_on_c, 1, 75, 127
1, 4717, Note_on_c, 1, 87, 127
1, 4783, Note_off_c, 1, 63, 0
1, 4783, Note_off_c, 1, 75, 0
1, 4783, Note_off_c, 1, 87, 0
1, 4786, Note_on_c, 1, 62, 127
1, 4786, Note_on_c, 1, 74, 127
1, 4786, Note_on_c, 1, 86, 127
1, 4798, Note_on_c, 1, 70, 127
1, 4798, Note_on_c, 1, 82, 127
1, 4798, Note_on_c, 1, 94, 127
1, 4837, Note_off_c, 1, 62, 0
1, 4837, Note_off_c, 1, 74, 0
1, 4837, Note_off_c, 1, 86, 0
1, 4860, Note_on_c, 1, 72, 127
1, 4860, Note_on_c, 1, 84, 127
1, 4860, Note_on_c, 1, 96, 127
1, 4861, Note_off_c, 1, 70, 0
1, 4861, Note_off_c, 1, 82, 0
1, 4861, Note_off_c, 1, 94, 0
1, 4912, Note_off_c, 1, 72, 0
1, 4912, Note_off_c, 1, 84, 0
1, 4912, Note_off_c, 1, 96, 0
1, 4917, Note_on_c, 1, 98, 127
1, 4972, Note_off_c, 1, 98, 0
1, 4972, Note_on_c, 1, 75, 127
1, 4972, Note_on_c, 1, 87, 127
1, 4972, Note_on_c, 1, 99, 127
1, 5031, Note_off_c, 1, 75, 0
1, 5031, Note_off_c, 1, 87, 0
1, 5031, Note_off_c, 1, 99, 0
1, 5032, Note_on_c, 1, 58, 127
1, 5032, Note_on_c, 1, 70, 127
1, 5032, Note_on_c, 1, 82, 127
1, 5033, Note_on_c, 1, 74, 127
1, 5033, Note_on_c, 1, 86, 127
1, 5033, Note_on_c, 1, 98, 127
1, 5090, Note_on_c, 1, 72, 127
1, 5090, Note_on_c, 1, 84, 127
1, 5090, Note_on_c, 1, 96, 127
1, 5093, Note_off_c, 1, 74, 0
1, 5093, Note_off_c, 1, 86, 0
1, 5093, Note_off_c, 1, 98, 0
1, 5111, Note_off_c, 1, 58, 0
1, 5111, Note_off_c, 1, 70, 0
1, 5111, Note_off_c, 1, 82, 0
1, 5149, Note_on_c, 1, 94, 127
1, 5153, Note_off_c, 1, 72, 0
1, 5153, Note_off_c, 1, 84, 0
1, 5153, Note_off_c, 1, 96, 0
1, 5153, Note_on_c, 1, 62, 127
1, 5205, Note_off_c, 1, 94, 0
1, 5207, Note_on_c, 1, 69, 127
1, 5207, Note_on_c, 1, 81, 127
1, 5207, Note_on_c, 1, 93, 127
1, 5220, Note_off_c, 1, 62, 0
1, 5258, Note_on_c, 1, 63, 127
1, 5258, Note_on_c, 1, 75, 127
1, 5258, Note_on_c, 1, 87, 127
1, 5262, Note_off_c, 1, 69, 0
1, 5262, Note_off_c, 1, 81, 0
1, 5262, Note_off_c, 1, 93, 0
1, 5270, Note_on_c, 1, 67, 127
1, 5270, Note_on_c, 1, 79, 127
1, 5270, Note_on_c, 1, 91, 127
1, 5324, Note_off_c, 1, 63, 0
1, 5324, Note_off_c, 1, 75, 0
1, 5324, Note_off_c, 1, 87, 0
1, 5327, Note_off_c, 1, 67, 0
1, 5327, Note_off_c, 1, 79, 0
1, 5327, Note_off_c, 1, 91, 0
1, 5335, Note_on_c, 1, 70, 127
1, 5335, Note_on_c, 1, 82, 127
1, 5335, Note_on_c, 1, 94, 127
1, 5384, Note_on_c, 1, 57, 127
1, 5384, Note_on_c, 1, 69, 127
1, 5384, Note_on_c, 1, 81, 127
1, 5394, Note_on_c, 1, 72, 127
1, 5394, Note_on_c, 1, 84, 127
1, 5394, Note_on_c, 1, 96, 127
1, 5396, Note_off_c, 1, 70, 0
1, 5396, Note_off_c, 1, 82, 0
1, 5396, Note_off_c, 1, 94, 0
1, 5453, Note_on_c, 1, 74, 127
1, 5453, Note_on_c, 1, 86, 127
1, 5453, Note_on_c, 1, 98, 127
1, 5463, Note_off_c, 1, 72, 0
1, 5463, Note_off_c, 1, 84, 0
1, 5463, Note_off_c, 1, 96, 0
1, 5497, Note_off_c, 1, 74, 0
1, 5497, Note_off_c, 1, 86, 0
1, 5497, Note_off_c, 1, 98, 0
1, 5509, Note_on_c, 1, 58, 127
1, 5511, Note_off_c, 1, 57, 0
1, 5511, Note_off_c, 1, 69, 0
1, 5511, Note_off_c, 1, 81, 0
1, 5587, Note_off_c, 1, 58, 0
1, 5633, Note_on_c, 1, 69, 127
1, 5633, Note_on_c, 1, 81, 127
1, 5633, Note_on_c, 1, 93, 127
1, 5635, Note_on_c, 1, 60, 127
1, 5635, Note_on_c, 1, 72, 127
1, 5635, Note_on_c, 1, 84, 127
1, 5685, Note_off_c, 1, 60, 0
1, 5685, Note_off_c, 1, 72, 0
1, 5685, Note_off_c, 1, 84, 0
1, 5695, Note_on_c, 1, 67, 127
1, 5695, Note_on_c, 1, 79, 127
1, 5695, Note_on_c, 1, 91, 127
1, 5698, Note_off_c, 1, 69, 0
1, 5698, Note_off_c, 1, 81, 0
1, 5698, Note_off_c, 1, 93, 0
1, 5753, Note_on_c, 1, 62, 127
1, 5753, Note_on_c, 1, 74, 127
1, 5753, Note_on_c, 1, 86, 127
1, 5756, Note_off_c, 1, 67, 0
1, 5756, Note_off_c, 1, 79, 0
1, 5756, Note_off_c, 1, 91, 0
1, 5764, Note_on_c, 1, 66, 127
1, 5764, Note_on_c, 1, 78, 127
1, 5764, Note_on_c, 1, 90, 127
1, 5816, Note_on_c, 1, 64, 127
1, 5816, Note_on_c, 1, 76, 127
1, 5816, Note_on_c, 1, 88, 127
1, 5821, Note_off_c, 1, 66, 0
1, 5821, Note_off_c, 1, 78, 0
1, 5821, Note_off_c, 1, 90, 0
1, 5823, Note_off_c, 1, 62, 0
1, 5823, Note_off_c, 1, 74, 0
1, 5823, Note_off_c, 1, 86, 0
1, 5873, Note_off_c, 1, 64, 0
1, 5873, Note_off_c, 1, 76, 0
1, 5873, Note_off_c, 1, 88, 0
1, 5874, Note_on_c, 1, 66, 127
1, 5874, Note_on_c, 1, 78, 127
1, 5874, Note_on_c, 1, 90, 127
1, 5882, Note_on_c, 1, 74, 127
1, 5882, Note_on_c, 1, 86, 127
1, 5882, Note_on_c, 1, 98, 127
1, 5932, Note_off_c, 1, 66, 0
1, 5932, Note_off_c, 1, 78, 0
1, 5932, Note_off_c, 1, 90, 0
1, 5934, Note_on_c, 1, 67, 127
1, 5934, Note_on_c, 1, 79, 127
1, 5934, Note_on_c, 1, 91, 127
1, 5947, Note_off_c, 1, 74, 0
1, 5947, Note_off_c, 1, 86, 0
1, 5947, Note_off_c, 1, 98, 0
1, 5996, Note_off_c, 1, 67, 0
1, 5996, Note_off_c, 1, 79, 0
1, 5996, Note_off_c, 1, 91, 0
1, 5998, Note_on_c, 1, 62, 127
1, 6051, Note_on_c, 1, 64, 127
1, 6051, Note_on_c, 1, 76, 127
1, 6051, Note_on_c, 1, 88, 127
1, 6099, Note_off_c, 1, 62, 0
1, 6108, Note_off_c, 1, 64, 0
1, 6108, Note_off_c, 1, 76, 0
1, 6108, Note_off_c, 1, 88, 0
1, 6112, Note_on_c, 1, 62, 127
1, 6112, Note_on_c, 1, 74, 127
1, 6112, Note_on_c, 1, 86, 127
1, 6115, Note_on_c, 1, 66, 127
1, 6115, Note_on_c, 1, 78, 127
1, 6115, Note_on_c, 1, 90, 127
1, 6166, Note_on_c, 1, 60, 127
1, 6166, Note_on_c, 1, 72, 127
1, 6166, Note_on_c, 1, 84, 127
1, 6171, Note_off_c, 1, 66, 0
1, 6171, Note_off_c, 1, 78, 0
1, 6171, Note_off_c, 1, 90, 0
1, 6173, Note_off_c, 1, 62, 0
1, 6173, Note_off_c, 1, 74, 0
1, 6173, Note_off_c, 1, 86, 0
1, 6225, Note_off_c, 1, 60, 0
1, 6225, Note_off_c, 1, 72, 0
1, 6225, Note_off_c, 1, 84, 0
1, 6227, Note_on_c, 1, 58, 127
1, 6227, Note_on_c, 1, 70, 127
1, 6227, Note_on_c, 1, 82, 127
1, 6231, Note_on_c, 1, 67, 127
1, 6231, Note_on_c, 1, 79, 127
1, 6231, Note_on_c, 1, 91, 127
1, 6285, Note_off_c, 1, 58, 0
1, 6285, Note_off_c, 1, 70, 0
1, 6285, Note_off_c, 1, 82, 0
1, 6287, Note_on_c, 1, 62, 127
1, 6287, Note_on_c, 1, 74, 127
1, 6287, Note_on_c, 1, 86, 127
1, 6316, Note_off_c, 1, 67, 0
1, 6316, Note_off_c, 1, 79, 0
1, 6316, Note_off_c, 1, 91, 0
1, 6345, Note_on_c, 1, 75, 127
1, 6345, Note_on_c, 1, 87, 127
1, 6345, Note_on_c, 1, 99, 127
1, 6347, Note_off_c, 1, 62, 0
1, 6347, Note_off_c, 1, 74, 0
1, 6347, Note_off_c, 1, 86, 0
1, 6404, Note_on_c, 1, 69, 127
1, 6404, Note_on_c, 1, 81, 127
1, 6404, Note_on_c, 1, 93, 127
1, 6418, Note_off_c, 1, 75, 0
1, 6418, Note_off_c, 1, 87, 0
1, 6418, Note_off_c, 1, 99, 0
1, 6449, Note_off_c, 1, 69, 0
1, 6449, Note_off_c, 1, 81, 0
1, 6449, Note_off_c, 1, 93, 0
1, 6466, Note_on_c, 1, 69, 127
1, 6466, Note_on_c, 1, 81, 127
1, 6466, Note_on_c, 1, 93, 127
1, 6469, Note_on_c, 1, 67, 127
1, 6469, Note_on_c, 1, 79, 127
1, 6469, Note_on_c, 1, 91, 127
1, 6524, Note_on_c, 1, 66, 127
1, 6524, Note_on_c, 1, 78, 127
1, 6524, Note_on_c, 1, 90, 127
1, 6530, Note_off_c, 1, 67, 0
1, 6530, Note_off_c, 1, 79, 0
1, 6530, Note_off_c, 1, 91, 0
1, 6545, Note_off_c, 1, 69, 0
1, 6545, Note_off_c, 1, 81, 0
1, 6545, Note_off_c, 1, 93, 0
1, 6585, Note_on_c, 1, 64, 127
1, 6585, Note_on_c, 1, 76, 127
1, 6585, Note_on_c, 1, 88, 127
1, 6586, Note_off_c, 1, 66, 0
1, 6586, Note_off_c, 1, 78, 0
1, 6586, Note_off_c, 1, 90, 0
1, 6586, Note_on_c, 1, 74, 127
1, 6586, Note_on_c, 1, 86, 127
1, 6586, Note_on_c, 1, 98, 127
1, 6647, Note_off_c, 1, 64, 0
1, 6647, Note_off_c, 1, 76, 0
1, 6647, Note_off_c, 1, 88, 0
1, 6651, Note_off_c, 1, 74, 0
1, 6651, Note_off_c, 1, 86, 0
1, 6651, Note_off_c, 1, 98, 0
1, 6704, Note_on_c, 1, 55, 127
1, 6708, Note_on_c, 1, 70, 127
1, 6708, Note_on_c, 1, 82, 127
1, 6708, Note_on_c, 1, 94, 127
1, 6764, Note_on_c, 1, 54, 127
1, 6766, Note_off_c, 1, 55, 0
1, 6818, Note_off_c, 1, 54, 0
1, 6827, Note_on_c, 1, 62, 127
1, 6876, Note_on_c, 1, 50, 127
1, 6919, Note_off_c, 1, 62, 0
1, 6919, Note_off_c, 1, 50, 0
1, 6943, Note_off_c, 1, 70, 0
1, 6943, Note_off_c, 1, 82, 0
1, 6943, Note_off_c, 1, 94, 0
1, 7003, Note_on_c, 1, 57, 127
1, 7059, Note_on_c, 1, 58, 127
1, 7061, Note_off_c, 1, 57, 0
1, 7121, Note_off_c, 1, 58, 0
1, 7177, Note_on_c, 1, 54, 127
1, 7177, Note_on_c, 1, 66, 127
1, 7177, Note_on_c, 1, 78, 127
1, 7185, Note_on_c, 1, 72, 127
1, 7185, Note_on_c, 1, 84, 127
1, 7185, Note_on_c, 1, 96, 127
1, 7186, Note_on_c, 1, 69, 127
1, 7186, Note_on_c, 1, 81, 127
1, 7186, Note_on_c, 1, 93, 127
1, 7239, Note_on_c, 1, 52, 127
1, 7239, Note_on_c, 1, 64, 127
1, 7239, Note_on_c, 1, 76, 127
1, 7242, Note_off_c, 1, 54, 0
1, 7242, Note_off_c, 1, 66, 0
1, 7242, Note_off_c, 1, 78, 0
1, 7292, Note_off_c, 1, 72, 0
1, 7292, Note_off_c, 1, 84, 0
1, 7292, Note_off_c, 1, 96, 0
1, 7301, Note_on_c, 1, 74, 127
1, 7301, Note_on_c, 1, 86, 127
1, 7301, Note_on_c, 1, 98, 127
1, 7302, Note_off_c, 1, 69, 0
1, 7302, Note_off_c, 1, 81, 0
1, 7302, Note_off_c, 1, 93, 0
1, 7303, Note_off_c, 1, 52, 0
1, 7303, Note_off_c, 1, 64, 0
1, 7303, Note_off_c, 1, 76, 0
1, 7356, Note_on_c, 1, 50, 127
1, 7356, Note_on_c, 1, 62, 127
1, 7397, Note_off_c, 1, 86, 0
1, 7397, Note_off_c, 1, 98, 0
1, 7401, Note_off_c, 1, 74, 0
1, 7401, Note_off_c, 1, 50, 0
1, 7401, Note_off_c, 1, 62, 0
1, 7412, Note_on_c, 1, 62, 127
1, 7412, Note_on_c, 1, 74, 127
1, 7412, Note_on_c, 1, 86, 127
1, 7417, Note_on_c, 1, 66, 127
1, 7417, Note_on_c, 1, 78, 127
1, 7417, Note_on_c, 1, 90, 127
1, 7471, Note_on_c, 1, 57, 127
1, 7471, Note_on_c, 1, 69, 127
1, 7471, Note_on_c, 1, 81, 127
1, 7476, Note_off_c, 1, 62, 0
1, 7476, Note_off_c, 1, 74, 0
1, 7476, Note_off_c, 1, 86, 0
1, 7493, Note_off_c, 1, 66, 0
1, 7493, Note_off_c, 1, 78, 0
1, 7493, Note_off_c, 1, 90, 0
1, 7530, Note_on_c, 1, 58, 127
1, 7530, Note_on_c, 1, 70, 127
1, 7530, Note_on_c, 1, 82, 127
1, 7531, Note_off_c, 1, 57, 0
1, 7531, Note_off_c, 1, 69, 0
1, 7531, Note_off_c, 1, 81, 0
1, 7531, Note_on_c, 1, 67, 127
1, 7531, Note_on_c, 1, 79, 127
1, 7531, Note_on_c, 1, 91, 127
1, 7532, Note_on_c, 1, 94, 127
1, 7583, Note_on_c, 1, 55, 127
1, 7586, Note_off_c, 1, 58, 0
1, 7600, Note_off_c, 1, 70, 0
1, 7600, Note_off_c, 1, 82, 0
1, 7600, Note_off_c, 1, 94, 0
1, 7604, Note_off_c, 1, 91, 0
1, 7640, Note_off_c, 1, 67, 0
1, 7640, Note_off_c, 1, 79, 0
1, 7640, Note_off_c, 1, 55, 0
1, 7649, Note_on_c, 1, 72, 127
1, 7649, Note_on_c, 1, 84, 127
1, 7649, Note_on_c, 1, 96, 127
1, 7651, Note_on_c, 1, 63, 127
1, 7651, Note_on_c, 1, 66, 127
1, 7651, Note_on_c, 1, 75, 127
1, 7651, Note_on_c, 1, 78, 127
1, 7651, Note_on_c, 1, 87, 127
1, 7651, Note_on_c, 1, 90, 127
1, 7705, Note_on_c, 1, 57, 127
1, 7705, Note_on_c, 1, 69, 127
1, 7705, Note_on_c, 1, 81, 127
1, 7708, Note_off_c, 1, 63, 0
1, 7708, Note_off_c, 1, 75, 0
1, 7708, Note_off_c, 1, 87, 0
1, 7766, Note_on_c, 1, 74, 127
1, 7766, Note_on_c, 1, 86, 127
1, 7766, Note_on_c, 1, 98, 127
1, 7769, Note_off_c, 1, 72, 0
1, 7769, Note_off_c, 1, 84, 0
1, 7769, Note_off_c, 1, 96, 0
1, 7769, Note_off_c, 1, 66, 0
1, 7769, Note_off_c, 1, 78, 0
1, 7769, Note_off_c, 1, 90, 0
1, 7771, Note_on_c, 1, 58, 127
1, 7771, Note_on_c, 1, 70, 127
1, 7771, Note_on_c, 1, 82, 127
1, 7772, Note_off_c, 1, 57, 0
1, 7772, Note_off_c, 1, 69, 0
1, 7772, Note_off_c, 1, 81, 0
1, 7821, Note_on_c, 1, 55, 127
1, 7821, Note_on_c, 1, 67, 127
1, 7821, Note_on_c, 1, 79, 127
1, 7825, Note_off_c, 1, 58, 0
1, 7825, Note_off_c, 1, 70, 0
1, 7825, Note_off_c, 1, 82, 0
1, 7826, Note_on_c, 1, 99, 127
1, 7827, Note_off_c, 1, 74, 0
1, 7827, Note_off_c, 1, 86, 0
1, 7827, Note_off_c, 1, 98, 0
1, 7869, Note_off_c, 1, 55, 0
1, 7869, Note_off_c, 1, 67, 0
1, 7869, Note_off_c, 1, 79, 0
1, 7878, Note_on_c, 1, 54, 127
1, 7884, Note_off_c, 1, 99, 0
1, 7931, Note_off_c, 1, 54, 0
1, 7935, Note_on_c, 1, 62, 127
1, 7944, Note_on_c, 1, 94, 127
1, 7977, Note_off_c, 1, 62, 0
1, 8008, Note_off_c, 1, 94, 0
1, 8009, Note_on_c, 1, 102, 127
1, 8053, Note_on_c, 1, 60, 127
1, 8066, Note_off_c, 1, 102, 0
1, 8069, Note_on_c, 1, 93, 127
1, 8085, Note_off_c, 1, 60, 0
1, 8121, Note_off_c, 1, 93, 0
1, 8134, Note_on_c, 1, 91, 127
1, 8134, Note_on_c, 1, 103, 127
1, 8208, Note_off_c, 1, 91, 0
1, 8208, Note_off_c, 1, 103, 0
1, 8208, Note_on_c, 1, 105, 127
1, 8266, Note_on_c, 1, 106, 127
1, 8269, Note_off_c, 1, 105, 0
1, 8323, Note_off_c, 1, 106, 0
1, 8326, Note_on_c, 1, 108, 127
1, 8388, Note_off_c, 1, 108, 0
1, 8564, Note_on_c, 1, 77, 127
1, 8564, Note_on_c, 1, 89, 127
1, 8564, Note_on_c, 1, 101, 127
1, 8588, Note_off_c, 1, 77, 0
1, 8588, Note_off_c, 1, 89, 0
1, 8588, Note_off_c, 1, 101, 0
1, 8623, Note_on_c, 1, 67, 127
1, 8623, Note_on_c, 1, 79, 127
1, 8623, Note_on_c, 1, 91, 127
1, 8625, Note_on_c, 1, 60, 127
1, 8625, Note_on_c, 1, 72, 127
1, 8625, Note_on_c, 1, 84, 127
1, 8631, Note_on_c, 1, 75, 127
1, 8631, Note_on_c, 1, 87, 127
1, 8631, Note_on_c, 1, 99, 127
1, 8690, Note_on_c, 1, 62, 127
1, 8690, Note_on_c, 1, 74, 127
1, 8690, Note_on_c, 1, 86, 127
1, 8691, Note_off_c, 1, 60, 0
1, 8691, Note_off_c, 1, 72, 0
1, 8691, Note_off_c, 1, 84, 0
1, 8716, Note_off_c, 1, 75, 0
1, 8716, Note_off_c, 1, 87, 0
1, 8716, Note_off_c, 1, 99, 0
1, 8746, Note_off_c, 1, 62, 0
1, 8746, Note_off_c, 1, 74, 0
1, 8746, Note_off_c, 1, 86, 0
1, 8748, Note_on_c, 1, 63, 127
1, 8748, Note_on_c, 1, 96, 127
1, 8748, Note_on_c, 1, 108, 127
1, 8798, Note_off_c, 1, 96, 0
1, 8798, Note_off_c, 1, 108, 0
1, 8802, Note_off_c, 1, 63, 0
1, 8804, Note_on_c, 1, 65, 127
1, 8804, Note_on_c, 1, 77, 127
1, 8804, Note_on_c, 1, 89, 127
1, 8841, Note_off_c, 1, 67, 0
1, 8841, Note_off_c, 1, 79, 0
1, 8841, Note_off_c, 1, 91, 0
1, 8863, Note_off_c, 1, 65, 0
1, 8863, Note_off_c, 1, 77, 0
1, 8863, Note_off_c, 1, 89, 0
1, 8864, Note_on_c, 1, 63, 127
1, 8864, Note_on_c, 1, 72, 127
1, 8864, Note_on_c, 1, 75, 127
1, 8864, Note_on_c, 1, 84, 127
1, 8864, Note_on_c, 1, 87, 127
1, 8864, Note_on_c, 1, 96, 127
1, 8918, Note_on_c, 1, 62, 127
1, 8918, Note_on_c, 1, 74, 127
1, 8918, Note_on_c, 1, 86, 127
1, 8919, Note_off_c, 1, 63, 0
1, 8919, Note_off_c, 1, 75, 0
1, 8919, Note_off_c, 1, 87, 0
1, 8920, Note_off_c, 1, 72, 0
1, 8920, Note_off_c, 1, 84, 0
1, 8920, Note_off_c, 1, 96, 0
1, 8976, Note_on_c, 1, 60, 127
1, 8977, Note_off_c, 1, 62, 0
1, 8977, Note_off_c, 1, 74, 0
1, 8977, Note_off_c, 1, 86, 0
1, 8985, Note_on_c, 1, 76, 127
1, 8985, Note_on_c, 1, 88, 127
1, 8985, Note_on_c, 1, 100, 127
1, 8986, Note_on_c, 1, 67, 127
1, 8986, Note_on_c, 1, 79, 127
1, 8986, Note_on_c, 1, 91, 127
1, 9029, Note_off_c, 1, 67, 0
1, 9029, Note_off_c, 1, 79, 0
1, 9029, Note_off_c, 1, 91, 0
1, 9033, Note_on_c, 1, 58, 127
1, 9033, Note_on_c, 1, 70, 127
1, 9033, Note_on_c, 1, 82, 127
1, 9034, Note_off_c, 1, 76, 0
1, 9034, Note_off_c, 1, 88, 0
1, 9034, Note_off_c, 1, 100, 0
1, 9036, Note_off_c, 1, 60, 0
1, 9063, Note_off_c, 1, 58, 0
1, 9063, Note_off_c, 1, 70, 0
1, 9063, Note_off_c, 1, 82, 0
1, 9099, Note_on_c, 1, 57, 127
1, 9099, Note_on_c, 1, 69, 127
1, 9099, Note_on_c, 1, 81, 127
1, 9106, Note_on_c, 1, 72, 127
1, 9106, Note_on_c, 1, 84, 127
1, 9106, Note_on_c, 1, 96, 127
1, 9107, Note_on_c, 1, 77, 127
1, 9107, Note_on_c, 1, 89, 127
1, 9107, Note_on_c, 1, 101, 127
1, 9171, Note_on_c, 1, 79, 127
1, 9171, Note_on_c, 1, 91, 127
1, 9171, Note_on_c, 1, 103, 127
1, 9177, Note_off_c, 1, 77, 0
1, 9177, Note_off_c, 1, 89, 0
1, 9177, Note_off_c, 1, 101, 0
1, 9190, Note_off_c, 1, 57, 0
1, 9190, Note_off_c, 1, 69, 0
1, 9190, Note_off_c, 1, 81, 0
1, 9225, Note_on_c, 1, 93, 127
1, 9225, Note_on_c, 1, 105, 127
1, 9228, Note_off_c, 1, 79, 0
1, 9228, Note_off_c, 1, 91, 0
1, 9228, Note_off_c, 1, 103, 0
1, 9229, Note_off_c, 1, 72, 0
1, 9229, Note_off_c, 1, 84, 0
1, 9229, Note_off_c, 1, 96, 0
1, 9231, Note_on_c, 1, 65, 127
1, 9281, Note_off_c, 1, 93, 0
1, 9281, Note_off_c, 1, 105, 0
1, 9282, Note_on_c, 1, 82, 127
1, 9282, Note_on_c, 1, 94, 127
1, 9282, Note_on_c, 1, 106, 127
1, 9297, Note_off_c, 1, 65, 0
1, 9342, Note_on_c, 1, 53, 127
1, 9344, Note_off_c, 1, 82, 0
1, 9344, Note_off_c, 1, 94, 0
1, 9344, Note_off_c, 1, 106, 0
1, 9422, Note_off_c, 1, 53, 0
1, 9465, Note_on_c, 1, 60, 127
1, 9529, Note_on_c, 1, 75, 127
1, 9529, Note_on_c, 1, 87, 127
1, 9529, Note_on_c, 1, 99, 127
1, 9557, Note_off_c, 1, 60, 0
1, 9590, Note_on_c, 1, 58, 127
1, 9590, Note_on_c, 1, 70, 127
1, 9595, Note_off_c, 1, 75, 0
1, 9595, Note_off_c, 1, 87, 0
1, 9595, Note_off_c, 1, 99, 0
1, 9596, Note_on_c, 1, 74, 127
1, 9596, Note_on_c, 1, 86, 127
1, 9596, Note_on_c, 1, 98, 127
1, 9646, Note_off_c, 1, 58, 0
1, 9646, Note_off_c, 1, 70, 0
1, 9681, Note_off_c, 1, 74, 0
1, 9681, Note_off_c, 1, 86, 0
1, 9681, Note_off_c, 1, 98, 0
1, 9712, Note_on_c, 1, 62, 127
1, 9769, Note_on_c, 1, 63, 127
1, 9771, Note_off_c, 1, 62, 0
1, 9823, Note_off_c, 1, 63, 0
1, 9828, Note_on_c, 1, 62, 127
1, 9828, Note_on_c, 1, 74, 127
1, 9828, Note_on_c, 1, 86, 127
1, 9830, Note_on_c, 1, 70, 127
1, 9830, Note_on_c, 1, 82, 127
1, 9830, Note_on_c, 1, 94, 127
1, 9886, Note_on_c, 1, 60, 127
1, 9886, Note_on_c, 1, 72, 127
1, 9886, Note_on_c, 1, 84, 127
1, 9889, Note_off_c, 1, 62, 0
1, 9889, Note_off_c, 1, 74, 0
1, 9889, Note_off_c, 1, 86, 0
1, 9901, Note_off_c, 1, 70, 0
1, 9901, Note_off_c, 1, 82, 0
1, 9901, Note_off_c, 1, 94, 0
1, 9944, Note_on_c, 1, 58, 127
1, 9947, Note_off_c, 1, 60, 0
1, 9947, Note_off_c, 1, 72, 0
1, 9947, Note_off_c, 1, 84, 0
1, 9948, Note_on_c, 1, 65, 127
1, 9948, Note_on_c, 1, 77, 127
1, 9948, Note_on_c, 1, 89, 127
1, 9949, Note_on_c, 1, 98, 127
1, 9999, Note_off_c, 1, 65, 0
1, 9999, Note_off_c, 1, 77, 0
1, 9999, Note_off_c, 1, 89, 0
1, 10001, Note_off_c, 1, 98, 0
1, 10005, Note_on_c, 1, 56, 127
1, 10005, Note_on_c, 1, 68, 127
1, 10005, Note_on_c, 1, 80, 127
1, 10012, Note_off_c, 1, 58, 0
1, 10060, Note_off_c, 1, 56, 0
1, 10060, Note_off_c, 1, 68, 0
1, 10060, Note_off_c, 1, 80, 0
1, 10069, Note_on_c, 1, 55, 127
1, 10069, Note_on_c, 1, 67, 127
1, 10069, Note_on_c, 1, 79, 127
1, 10072, Note_on_c, 1, 75, 127
1, 10072, Note_on_c, 1, 87, 127
1, 10072, Note_on_c, 1, 99, 127
1, 10073, Note_on_c, 1, 70, 127
1, 10073, Note_on_c, 1, 82, 127
1, 10073, Note_on_c, 1, 94, 127
1, 10124, Note_off_c, 1, 55, 0
1, 10124, Note_off_c, 1, 67, 0
1, 10124, Note_off_c, 1, 79, 0
1, 10133, Note_on_c, 1, 58, 127
1, 10189, Note_off_c, 1, 58, 0
1, 10191, Note_on_c, 1, 60, 127
1, 10191, Note_on_c, 1, 72, 127
1, 10191, Note_on_c, 1, 84, 127
1, 10193, Note_off_c, 1, 75, 0
1, 10193, Note_off_c, 1, 87, 0
1, 10193, Note_off_c, 1, 99, 0
1, 10199, Note_on_c, 1, 91, 127
1, 10199, Note_on_c, 1, 103, 127
1, 10203, Note_off_c, 1, 70, 0
1, 10203, Note_off_c, 1, 82, 0
1, 10203, Note_off_c, 1, 94, 0
1, 10251, Note_off_c, 1, 91, 0
1, 10251, Note_off_c, 1, 103, 0
1, 10254, Note_on_c, 1, 62, 127
1, 10254, Note_on_c, 1, 74, 127
1, 10254, Note_on_c, 1, 86, 127
1, 10256, Note_off_c, 1, 60, 0
1, 10256, Note_off_c, 1, 72, 0
1, 10256, Note_off_c, 1, 84, 0
1, 10317, Note_off_c, 1, 62, 0
1, 10317, Note_off_c, 1, 74, 0
1, 10317, Note_off_c, 1, 86, 0
1, 10320, Note_on_c, 1, 96, 127
1, 10396, Note_off_c, 1, 96, 0
1, 10431, Note_on_c, 1, 57, 127
1, 10431, Note_on_c, 1, 69, 127
1, 10431, Note_on_c, 1, 81, 127
1, 10435, Note_on_c, 1, 76, 127
1, 10435, Note_on_c, 1, 88, 127
1, 10435, Note_on_c, 1, 100, 127
1, 10480, Note_off_c, 1, 76, 0
1, 10480, Note_off_c, 1, 88, 0
1, 10480, Note_off_c, 1, 100, 0
1, 10495, Note_off_c, 1, 57, 0
1, 10495, Note_off_c, 1, 69, 0
1, 10495, Note_off_c, 1, 81, 0
1, 10545, Note_on_c, 1, 57, 127
1, 10545, Note_on_c, 1, 69, 127
1, 10545, Note_on_c, 1, 81, 127
1, 10558, Note_on_c, 1, 72, 127
1, 10558, Note_on_c, 1, 84, 127
1, 10558, Note_on_c, 1, 96, 127
1, 10559, Note_on_c, 1, 77, 127
1, 10559, Note_on_c, 1, 89, 127
1, 10559, Note_on_c, 1, 101, 127
1, 10588, Note_off_c, 1, 57, 0
1, 10588, Note_off_c, 1, 69, 0
1, 10588, Note_off_c, 1, 81, 0
1, 10609, Note_on_c, 1, 60, 127
1, 10670, Note_on_c, 1, 62, 127
1, 10670, Note_on_c, 1, 74, 127
1, 10670, Note_on_c, 1, 86, 127
1, 10671, Note_off_c, 1, 60, 0
1, 10680, Note_off_c, 1, 77, 0
1, 10680, Note_off_c, 1, 89, 0
1, 10680, Note_off_c, 1, 101, 0
1, 10680, Note_on_c, 1, 93, 127
1, 10680, Note_on_c, 1, 105, 127
1, 10690, Note_off_c, 1, 72, 0
1, 10690, Note_off_c, 1, 84, 0
1, 10690, Note_off_c, 1, 96, 0
1, 10728, Note_on_c, 1, 63, 127
1, 10728, Note_on_c, 1, 75, 127
1, 10728, Note_on_c, 1, 87, 127
1, 10734, Note_off_c, 1, 62, 0
1, 10734, Note_off_c, 1, 74, 0
1, 10734, Note_off_c, 1, 86, 0
1, 10746, Note_off_c, 1, 93, 0
1, 10746, Note_off_c, 1, 105, 0
1, 10790, Note_off_c, 1, 63, 0
1, 10790, Note_off_c, 1, 75, 0
1, 10790, Note_off_c, 1, 87, 0
1, 10795, Note_on_c, 1, 98, 127
1, 10864, Note_off_c, 1, 98, 0
1, 10905, Note_on_c, 1, 58, 127
1, 10905, Note_on_c, 1, 70, 127
1, 10905, Note_on_c, 1, 82, 127
1, 10915, Note_on_c, 1, 78, 127
1, 10915, Note_on_c, 1, 90, 127
1, 10915, Note_on_c, 1, 102, 127
1, 10968, Note_off_c, 1, 58, 0
1, 10968, Note_off_c, 1, 70, 0
1, 10968, Note_off_c, 1, 82, 0
1, 10972, Note_off_c, 1, 78, 0
1, 10972, Note_off_c, 1, 90, 0
1, 10972, Note_off_c, 1, 102, 0
1, 11024, Note_on_c, 1, 19, 127
1, 11024, Note_on_c, 1, 31, 127
1, 11024, Note_on_c, 1, 43, 127
1, 11032, Note_on_c, 1, 58, 127
1, 11032, Note_on_c, 1, 70, 127
1, 11032, Note_on_c, 1, 82, 127
1, 11045, Note_on_c, 1, 79, 127
1, 11045, Note_on_c, 1, 91, 127
1, 11045, Note_on_c, 1, 103, 127
1, 11046, Note_on_c, 1, 74, 127
1, 11046, Note_on_c, 1, 86, 127
1, 11046, Note_on_c, 1, 98, 127
1, 11097, Note_on_c, 1, 57, 127
1, 11097, Note_on_c, 1, 69, 127
1, 11097, Note_on_c, 1, 81, 127
1, 11104, Note_off_c, 1, 58, 0
1, 11104, Note_off_c, 1, 70, 0
1, 11104, Note_off_c, 1, 82, 0
1, 11106, Note_on_c, 1, 72, 127
1, 11106, Note_on_c, 1, 84, 127
1, 11106, Note_on_c, 1, 96, 127
1, 11108, Note_off_c, 1, 74, 0
1, 11108, Note_off_c, 1, 86, 0
1, 11108, Note_off_c, 1, 98, 0
1, 11162, Note_on_c, 1, 55, 127
1, 11162, Note_on_c, 1, 67, 127
1, 11165, Note_off_c, 1, 57, 0
1, 11165, Note_off_c, 1, 69, 0
1, 11165, Note_off_c, 1, 81, 0
1, 11171, Note_off_c, 1, 72, 0
1, 11171, Note_off_c, 1, 84, 0
1, 11171, Note_off_c, 1, 96, 0
1, 11178, Note_off_c, 1, 91, 0
1, 11178, Note_off_c, 1, 103, 0
1, 11236, Note_off_c, 1, 55, 0
1, 11280, Note_off_c, 1, 79, 0
1, 11280, Note_off_c, 1, 67, 0
1, 11337, Note_on_c, 1, 62, 127
1, 11390, Note_on_c, 1, 60, 127
1, 11398, Note_off_c, 1, 62, 0
1, 11399, Note_on_c, 1, 75, 127
1, 11399, Note_on_c, 1, 87, 127
1, 11399, Note_on_c, 1, 99, 127
1, 11426, Note_off_c, 1, 19, 0
1, 11426, Note_off_c, 1, 31, 0
1, 11426, Note_off_c, 1, 43, 0
1, 11447, Note_on_c, 1, 63, 127
1, 11455, Note_off_c, 1, 99, 0
1, 11456, Note_off_c, 1, 60, 0
1, 11486, Note_off_c, 1, 75, 0
1, 11486, Note_off_c, 1, 87, 0
1, 11486, Note_off_c, 1, 63, 0
1, 11509, Note_on_c, 1, 62, 127
1, 11509, Note_on_c, 1, 74, 127
1, 11509, Note_on_c, 1, 86, 127
1, 11514, Note_on_c, 1, 98, 127
1, 11515, Note_on_c, 1, 70, 127
1, 11515, Note_on_c, 1, 82, 127
1, 11515, Note_on_c, 1, 94, 127
1, 11520, Note_on_c, 1, 19, 127
1, 11520, Note_on_c, 1, 31, 127
1, 11520, Note_on_c, 1, 43, 127
1, 11571, Note_off_c, 1, 70, 0
1, 11571, Note_off_c, 1, 82, 0
1, 11571, Note_off_c, 1, 94, 0
1, 11575, Note_on_c, 1, 69, 127
1, 11575, Note_on_c, 1, 81, 127
1, 11575, Note_on_c, 1, 93, 127
1, 11576, Note_off_c, 1, 98, 0
1, 11576, Note_on_c, 1, 72, 127
1, 11576, Note_on_c, 1, 84, 127
1, 11576, Note_on_c, 1, 96, 127
1, 11610, Note_off_c, 1, 72, 0
1, 11610, Note_off_c, 1, 84, 0
1, 11610, Note_off_c, 1, 96, 0
1, 11636, Note_off_c, 1, 69, 0
1, 11636, Note_off_c, 1, 81, 0
1, 11636, Note_off_c, 1, 93, 0
1, 11685, Note_on_c, 1, 67, 127
1, 11685, Note_on_c, 1, 79, 127
1, 11685, Note_on_c, 1, 91, 127
1, 11688, Note_on_c, 1, 75, 127
1, 11688, Note_on_c, 1, 87, 127
1, 11688, Note_on_c, 1, 99, 127
1, 11732, Note_off_c, 1, 67, 0
1, 11732, Note_off_c, 1, 79, 0
1, 11732, Note_off_c, 1, 91, 0
1, 11734, Note_off_c, 1, 75, 0
1, 11734, Note_off_c, 1, 87, 0
1, 11734, Note_off_c, 1, 99, 0
1, 11749, Note_on_c, 1, 18, 127
1, 11749, Note_on_c, 1, 30, 127
1, 11749, Note_on_c, 1, 42, 127
1, 11755, Note_off_c, 1, 19, 0
1, 11755, Note_off_c, 1, 31, 0
1, 11755, Note_off_c, 1, 43, 0
1, 11776, Note_off_c, 1, 62, 0
1, 11818, Note_off_c, 1, 74, 0
1, 11818, Note_off_c, 1, 86, 0
1, 11980, Note_off_c, 1, 18, 0
1, 11980, Note_off_c, 1, 30, 0
1, 11980, Note_off_c, 1, 42, 0
1, 11983, Note_on_c, 1, 22, 127
1, 11983, Note_on_c, 1, 34, 127
1, 11983, Note_on_c, 1, 46, 127
1, 12050, Note_on_c, 1, 66, 127
1, 12050, Note_on_c, 1, 78, 127
1, 12050, Note_on_c, 1, 90, 127
1, 12105, Note_on_c, 1, 55, 127
1, 12107, Note_off_c, 1, 66, 0
1, 12107, Note_off_c, 1, 78, 0
1, 12107, Note_off_c, 1, 90, 0
1, 12196, Note_off_c, 1, 22, 0
1, 12196, Note_off_c, 1, 34, 0
1, 12196, Note_off_c, 1, 46, 0
1, 12207, Note_off_c, 1, 55, 0
1, 12217, Note_on_c, 1, 21, 127
1, 12217, Note_on_c, 1, 33, 127
1, 12217, Note_on_c, 1, 45, 127
1, 12221, Note_on_c, 1, 54, 127
1, 12311, Note_off_c, 1, 21, 0
1, 12311, Note_off_c, 1, 33, 0
1, 12311, Note_off_c, 1, 45, 0
1, 12317, Note_off_c, 1, 54, 0
1, 12448, Note_on_c, 1, 74, 127
1, 12448, Note_on_c, 1, 86, 127
1, 12448, Note_on_c, 1, 98, 127
1, 12449, Note_on_c, 1, 66, 127
1, 12449, Note_on_c, 1, 78, 127
1, 12449, Note_on_c, 1, 90, 127
1, 12450, Note_on_c, 1, 60, 127
1, 12450, Note_on_c, 1, 72, 127
1, 12450, Note_on_c, 1, 84, 127
1, 12450, Note_on_c, 1, 21, 127
1, 12450, Note_on_c, 1, 33, 127
1, 12450, Note_on_c, 1, 45, 127
1, 12508, Note_off_c, 1, 66, 0
1, 12508, Note_off_c, 1, 78, 0
1, 12508, Note_off_c, 1, 90, 0
1, 12509, Note_on_c, 1, 69, 127
1, 12509, Note_on_c, 1, 81, 127
1, 12509, Note_on_c, 1, 93, 127
1, 12565, Note_off_c, 1, 60, 0
1, 12565, Note_off_c, 1, 72, 0
1, 12565, Note_off_c, 1, 84, 0
1, 12565, Note_on_c, 1, 62, 127
1, 12568, Note_off_c, 1, 69, 0
1, 12568, Note_off_c, 1, 81, 0
1, 12568, Note_off_c, 1, 93, 0
1, 12571, Note_on_c, 1, 70, 127
1, 12571, Note_on_c, 1, 82, 127
1, 12571, Note_on_c, 1, 94, 127
1, 12622, Note_off_c, 1, 62, 0
1, 12624, Note_on_c, 1, 63, 127
1, 12624, Note_on_c, 1, 75, 127
1, 12624, Note_on_c, 1, 87, 127
1, 12630, Note_on_c, 1, 67, 127
1, 12630, Note_on_c, 1, 79, 127
1, 12630, Note_on_c, 1, 91, 127
1, 12631, Note_off_c, 1, 70, 0
1, 12631, Note_off_c, 1, 82, 0
1, 12631, Note_off_c, 1, 94, 0
1, 12639, Note_off_c, 1, 74, 0
1, 12639, Note_off_c, 1, 86, 0
1, 12639, Note_off_c, 1, 98, 0
1, 12683, Note_off_c, 1, 63, 0
1, 12683, Note_off_c, 1, 75, 0
1, 12683, Note_off_c, 1, 87, 0
1, 12686, Note_off_c, 1, 67, 0
1, 12686, Note_off_c, 1, 79, 0
1, 12686, Note_off_c, 1, 91, 0
1, 12739, Note_on_c, 1, 58, 127
1, 12797, Note_off_c, 1, 58, 0
1, 12856, Note_on_c, 1, 57, 127
1, 12865, Note_on_c, 1, 96, 127
1, 12896, Note_off_c, 1, 57, 0
1, 12896, Note_off_c, 1, 96, 0
1, 12899, Note_off_c, 1, 21, 0
1, 12899, Note_off_c, 1, 33, 0
1, 12899, Note_off_c, 1, 45, 0
1, 12912, Note_on_c, 1, 19, 127
1, 12912, Note_on_c, 1, 31, 127
1, 12912, Note_on_c, 1, 43, 127
1, 12917, Note_on_c, 1, 58, 127
1, 12917, Note_on_c, 1, 70, 127
1, 12917, Note_on_c, 1, 82, 127
1, 12925, Note_on_c, 1, 74, 127
1, 12925, Note_on_c, 1, 86, 127
1, 12925, Note_on_c, 1, 98, 127
1, 12925, Note_on_c, 1, 94, 127
1, 12977, Note_on_c, 1, 57, 127
1, 12977, Note_on_c, 1, 69, 127
1, 12977, Note_on_c, 1, 81, 127
1, 12981, Note_off_c, 1, 58, 0
1, 12991, Note_off_c, 1, 74, 0
1, 12991, Note_off_c, 1, 86, 0
1, 12991, Note_off_c, 1, 98, 0
1, 12992, Note_on_c, 1, 72, 127
1, 12992, Note_on_c, 1, 84, 127
1, 12992, Note_on_c, 1, 96, 127
1, 13015, Note_off_c, 1, 70, 0
1, 13015, Note_off_c, 1, 82, 0
1, 13015, Note_off_c, 1, 94, 0
1, 13043, Note_on_c, 1, 55, 127
1, 13043, Note_on_c, 1, 67, 127
1, 13043, Note_on_c, 1, 79, 127
1, 13046, Note_off_c, 1, 72, 0
1, 13046, Note_off_c, 1, 84, 0
1, 13046, Note_off_c, 1, 96, 0
1, 13050, Note_off_c, 1, 57, 0
1, 13050, Note_off_c, 1, 69, 0
1, 13050, Note_off_c, 1, 81, 0
1, 13103, Note_off_c, 1, 55, 0
1, 13103, Note_off_c, 1, 67, 0
1, 13103, Note_off_c, 1, 79, 0
1, 13112, Note_on_c, 1, 91, 127
1, 13146, Note_off_c, 1, 91, 0
1, 13164, Note_on_c, 1, 59, 127
1, 13164, Note_on_c, 1, 71, 127
1, 13164, Note_on_c, 1, 83, 127
1, 13167, Note_on_c, 1, 103, 127
1, 13248, Note_off_c, 1, 103, 0
1, 13271, Note_off_c, 1, 59, 0
1, 13271, Note_off_c, 1, 71, 0
1, 13271, Note_off_c, 1, 83, 0
1, 13283, Note_on_c, 1, 60, 127
1, 13292, Note_on_c, 1, 75, 127
1, 13292, Note_on_c, 1, 87, 127
1, 13292, Note_on_c, 1, 99, 127
1, 13353, Note_off_c, 1, 75, 0
1, 13353, Note_off_c, 1, 87, 0
1, 13353, Note_off_c, 1, 99, 0
1, 13366, Note_off_c, 1, 60, 0
1, 13406, Note_on_c, 1, 62, 127
1, 13425, Note_on_c, 1, 95, 127
1, 13489, Note_on_c, 1, 93, 127
1, 13492, Note_off_c, 1, 95, 0
1, 13522, Note_off_c, 1, 62, 0
1, 13553, Note_off_c, 1, 93, 0
1, 13908, Note_on_c, 1, 65, 127
1, 13908, Note_on_c, 1, 77, 127
1, 13908, Note_on_c, 1, 89, 127
1, 13918, Note_on_c, 1, 80, 127
1, 13918, Note_on_c, 1, 92, 127
1, 13918, Note_on_c, 1, 104, 127
1, 13988, Note_off_c, 1, 80, 0
1, 13988, Note_off_c, 1, 92, 0
1, 13988, Note_off_c, 1, 104, 0
1, 14032, Note_off_c, 1, 65, 0
1, 14032, Note_off_c, 1, 77, 0
1, 14032, Note_off_c, 1, 89, 0
1, 14091, Note_on_c, 1, 68, 127
1, 14150, Note_off_c, 1, 68, 0
1, 14211, Note_on_c, 1, 63, 127
1, 14267, Note_off_c, 1, 63, 0
1, 14334, Note_on_c, 1, 101, 127
1, 14394, Note_off_c, 1, 101, 0
1, 14396, Note_off_c, 1, 19, 0
1, 14396, Note_off_c, 1, 31, 0
1, 14396, Note_off_c, 1, 43, 0
1, 14622, Note_on_c, 1, 48, 127
1, 14672, Note_off_c, 1, 48, 0
1, 14738, Note_on_c, 1, 51, 127
1, 14792, Note_off_c, 1, 51, 0
1, 14860, Note_on_c, 1, 53, 127
1, 14929, Note_off_c, 1, 53, 0
1, 14981, Note_on_c, 1, 53, 127
1, 14981, Note_on_c, 1, 65, 127
1, 14981, Note_on_c, 1, 77, 127
1, 14988, Note_on_c, 1, 69, 127
1, 14988, Note_on_c, 1, 81, 127
1, 14988, Note_on_c, 1, 93, 127
1, 14989, Note_on_c, 1, 72, 127
1, 14989, Note_on_c, 1, 84, 127
1, 14989, Note_on_c, 1, 96, 127
1, 15041, Note_off_c, 1, 69, 0
1, 15041, Note_off_c, 1, 81, 0
1, 15041, Note_off_c, 1, 93, 0
1, 15041, Note_off_c, 1, 72, 0
1, 15041, Note_off_c, 1, 84, 0
1, 15041, Note_off_c, 1, 96, 0
1, 15042, Note_on_c, 1, 55, 127
1, 15042, Note_on_c, 1, 67, 127
1, 15042, Note_on_c, 1, 79, 127
1, 15044, Note_off_c, 1, 53, 0
1, 15044, Note_off_c, 1, 65, 0
1, 15044, Note_off_c, 1, 77, 0
1, 15101, Note_off_c, 1, 55, 0
1, 15101, Note_off_c, 1, 67, 0
1, 15101, Note_off_c, 1, 79, 0
1, 15105, Note_on_c, 1, 89, 127
1, 15157, Note_on_c, 1, 51, 127
1, 15157, Note_on_c, 1, 63, 127
1, 15157, Note_on_c, 1, 75, 127
1, 15212, Note_off_c, 1, 51, 0
1, 15212, Note_off_c, 1, 63, 0
1, 15212, Note_off_c, 1, 75, 0
1, 15214, Note_on_c, 1, 50, 127
1, 15214, Note_on_c, 1, 62, 127
1, 15214, Note_on_c, 1, 74, 127
1, 15221, Note_off_c, 1, 89, 0
1, 15275, Note_on_c, 1, 48, 127
1, 15275, Note_on_c, 1, 60, 127
1, 15279, Note_off_c, 1, 50, 0
1, 15279, Note_off_c, 1, 62, 0
1, 15279, Note_off_c, 1, 74, 0
1, 15329, Note_off_c, 1, 48, 0
1, 15329, Note_off_c, 1, 60, 0
1, 15343, Note_on_c, 1, 46, 127
1, 15343, Note_on_c, 1, 70, 127
1, 15343, Note_on_c, 1, 58, 127
1, 15343, Note_on_c, 1, 82, 127
1, 15343, Note_on_c, 1, 94, 127
1, 15345, Note_on_c, 1, 74, 127
1, 15345, Note_on_c, 1, 86, 127
1, 15345, Note_on_c, 1, 98, 127
1, 15410, Note_off_c, 1, 46, 0
1, 15410, Note_off_c, 1, 58, 0
1, 15411, Note_on_c, 1, 69, 127
1, 15411, Note_on_c, 1, 81, 127
1, 15411, Note_on_c, 1, 93, 127
1, 15414, Note_off_c, 1, 70, 0
1, 15414, Note_off_c, 1, 82, 0
1, 15414, Note_off_c, 1, 94, 0
1, 15468, Note_off_c, 1, 69, 0
1, 15468, Note_off_c, 1, 81, 0
1, 15468, Note_off_c, 1, 93, 0
1, 15524, Note_on_c, 1, 72, 127
1, 15524, Note_on_c, 1, 84, 127
1, 15524, Note_on_c, 1, 96, 127
1, 15587, Note_off_c, 1, 72, 0
1, 15587, Note_off_c, 1, 84, 0
1, 15587, Note_off_c, 1, 96, 0
1, 15705, Note_on_c, 1, 67, 127
1, 15705, Note_on_c, 1, 79, 127
1, 15705, Note_on_c, 1, 91, 127
1, 15706, Note_on_c, 1, 50, 127
1, 15706, Note_on_c, 1, 62, 127
1, 15758, Note_off_c, 1, 67, 0
1, 15758, Note_off_c, 1, 79, 0
1, 15758, Note_off_c, 1, 91, 0
1, 15760, Note_on_c, 1, 66, 127
1, 15760, Note_on_c, 1, 78, 127
1, 15760, Note_on_c, 1, 90, 127
1, 15761, Note_off_c, 1, 50, 0
1, 15761, Note_off_c, 1, 62, 0
1, 15821, Note_on_c, 1, 51, 127
1, 15821, Note_on_c, 1, 63, 127
1, 15821, Note_on_c, 1, 75, 127
1, 15822, Note_off_c, 1, 66, 0
1, 15822, Note_off_c, 1, 78, 0
1, 15822, Note_off_c, 1, 90, 0
1, 15887, Note_off_c, 1, 51, 0
1, 15887, Note_off_c, 1, 63, 0
1, 15887, Note_off_c, 1, 75, 0
1, 15900, Note_off_c, 1, 86, 0
1, 15900, Note_off_c, 1, 98, 0
1, 15940, Note_off_c, 1, 74, 0
1, 15997, Note_on_c, 1, 53, 127
1, 15997, Note_on_c, 1, 65, 127
1, 15997, Note_on_c, 1, 77, 127
1, 16058, Note_off_c, 1, 53, 0
1, 16058, Note_off_c, 1, 65, 0
1, 16058, Note_off_c, 1, 77, 0
1, 16058, Note_on_c, 1, 87, 127
1, 16113, Note_off_c, 1, 87, 0
1, 16172, Note_on_c, 1, 48, 127
1, 16172, Note_on_c, 1, 60, 127
1, 16235, Note_off_c, 1, 48, 0
1, 16235, Note_off_c, 1, 60, 0
1, 16291, Note_on_c, 1, 45, 127
1, 16291, Note_on_c, 1, 57, 127
1, 16354, Note_on_c, 1, 43, 127
1, 16354, Note_on_c, 1, 55, 127
1, 16357, Note_off_c, 1, 45, 0
1, 16357, Note_off_c, 1, 57, 0
1, 16423, Note_off_c, 1, 43, 0
1, 16423, Note_off_c, 1, 55, 0
1, 16479, Note_on_c, 1, 64, 127
1, 16479, Note_on_c, 1, 76, 127
1, 16479, Note_on_c, 1, 88, 127
1, 16555, Note_off_c, 1, 64, 0
1, 16555, Note_off_c, 1, 76, 0
1, 16555, Note_off_c, 1, 88, 0
1, 16654, Note_on_c, 1, 42, 127
1, 16654, Note_on_c, 1, 54, 127
1, 16712, Note_on_c, 1, 40, 127
1, 16712, Note_on_c, 1, 52, 127
1, 16717, Note_off_c, 1, 42, 0
1, 16717, Note_off_c, 1, 54, 0
1, 16773, Note_off_c, 1, 40, 0
1, 16773, Note_off_c, 1, 52, 0
1, 17629, Note_on_c, 1, 59, 127
1, 17629, Note_on_c, 1, 71, 127
1, 17629, Note_on_c, 1, 83, 127
1, 17694, Note_on_c, 1, 89, 127
1, 17757, Note_off_c, 1, 89, 0
1, 17780, Note_off_c, 1, 59, 0
1, 17780, Note_off_c, 1, 71, 0
1, 17780, Note_off_c, 1, 83, 0
1, 18223, Note_on_c, 1, 19, 127
1, 18223, Note_on_c, 1, 31, 127
1, 18473, Note_on_c, 1, 22, 127
1, 18473, Note_on_c, 1, 34, 127
1, 18483, Note_off_c, 1, 19, 0
1, 18483, Note_off_c, 1, 31, 0
1, 18693, Note_off_c, 1, 22, 0
1, 18693, Note_off_c, 1, 34, 0
1, 18698, Note_on_c, 1, 24, 127
1, 18698, Note_on_c, 1, 36, 127
1, 18949, Note_off_c, 1, 24, 0
1, 18949, Note_off_c, 1, 36, 0
1, 19186, Note_on_c, 1, 99, 127
1, 19247, Note_off_c, 1, 99, 0
1, 19247, Note_on_c, 1, 103, 127
1, 19307, Note_on_c, 1, 101, 127
1, 19313, Note_off_c, 1, 103, 0
1, 19368, Note_off_c, 1, 101, 0
1, 19415, Note_on_c, 1, 26, 127
1, 19415, Note_on_c, 1, 38, 127
1, 19658, Note_off_c, 1, 26, 0
1, 19658, Note_off_c, 1, 38, 0
1, 21163, Note_on_c, 1, 72, 127
1, 21163, Note_on_c, 1, 84, 127
1, 21163, Note_on_c, 1, 96, 127
1, 21215, Note_off_c, 1, 72, 0
1, 21215, Note_off_c, 1, 84, 0
1, 21215, Note_off_c, 1, 96, 0
1, 21216, Note_on_c, 1, 70, 127
1, 21216, Note_on_c, 1, 65, 127
1, 21216, Note_on_c, 1, 62, 127
1, 21216, Note_on_c, 1, 82, 127
1, 21216, Note_on_c, 1, 77, 127
1, 21216, Note_on_c, 1, 74, 127
1, 21216, Note_on_c, 1, 94, 127
1, 21216, Note_on_c, 1, 89, 127
1, 21216, Note_on_c, 1, 86, 127
1, 21271, Note_off_c, 1, 70, 0
1, 21271, Note_off_c, 1, 82, 0
1, 21271, Note_off_c, 1, 94, 0
1, 21271, Note_on_c, 1, 101, 127
1, 21306, Note_off_c, 1, 101, 0
1, 21311, Note_off_c, 1, 65, 0
1, 21311, Note_off_c, 1, 77, 0
1, 21311, Note_off_c, 1, 89, 0
1, 21331, Note_on_c, 1, 60, 127
1, 21331, Note_on_c, 1, 72, 127
1, 21331, Note_on_c, 1, 84, 127
1, 21332, Note_on_c, 1, 63, 127
1, 21332, Note_on_c, 1, 75, 127
1, 21332, Note_on_c, 1, 87, 127
1, 21336, Note_off_c, 1, 62, 0
1, 21336, Note_off_c, 1, 74, 0
1, 21336, Note_off_c, 1, 86, 0
1, 21373, Note_off_c, 1, 63, 0
1, 21373, Note_off_c, 1, 75, 0
1, 21373, Note_off_c, 1, 87, 0
1, 21380, Note_off_c, 1, 60, 0
1, 21380, Note_off_c, 1, 72, 0
1, 21380, Note_off_c, 1, 84, 0
1, 21409, Note_on_c, 1, 69, 127
1, 21409, Note_on_c, 1, 81, 127
1, 21409, Note_on_c, 1, 93, 127
1, 21448, Note_on_c, 1, 58, 127
1, 21463, Note_on_c, 1, 67, 127
1, 21463, Note_on_c, 1, 79, 127
1, 21463, Note_on_c, 1, 91, 127
1, 21464, Note_off_c, 1, 69, 0
1, 21464, Note_off_c, 1, 81, 0
1, 21464, Note_off_c, 1, 93, 0
1, 21511, Note_off_c, 1, 58, 0
1, 21525, Note_off_c, 1, 67, 0
1, 21525, Note_off_c, 1, 79, 0
1, 21525, Note_off_c, 1, 91, 0
1, 21576, Note_on_c, 1, 60, 127
1, 21576, Note_on_c, 1, 72, 127
1, 21576, Note_on_c, 1, 84, 127
1, 21577, Note_on_c, 1, 57, 127
1, 21577, Note_on_c, 1, 69, 127
1, 21577, Note_on_c, 1, 81, 127
1, 21589, Note_on_c, 1, 96, 127
1, 21642, Note_off_c, 1, 60, 0
1, 21644, Note_off_c, 1, 57, 0
1, 21644, Note_off_c, 1, 69, 0
1, 21644, Note_off_c, 1, 81, 0
1, 21654, Note_off_c, 1, 72, 0
1, 21654, Note_off_c, 1, 84, 0
1, 21654, Note_off_c, 1, 96, 0
1, 21656, Note_on_c, 1, 74, 127
1, 21656, Note_on_c, 1, 86, 127
1, 21656, Note_on_c, 1, 98, 127
1, 21704, Note_on_c, 1, 53, 127
1, 21704, Note_on_c, 1, 65, 127
1, 21704, Note_on_c, 1, 77, 127
1, 21705, Note_on_c, 1, 57, 127
1, 21705, Note_on_c, 1, 69, 127
1, 21705, Note_on_c, 1, 81, 127
1, 21715, Note_on_c, 1, 72, 127
1, 21715, Note_on_c, 1, 84, 127
1, 21715, Note_on_c, 1, 96, 127
1, 21717, Note_off_c, 1, 74, 0
1, 21717, Note_off_c, 1, 86, 0
1, 21717, Note_off_c, 1, 98, 0
1, 21768, Note_on_c, 1, 89, 127
1, 21768, Note_on_c, 1, 101, 127
1, 21772, Note_off_c, 1, 72, 0
1, 21772, Note_off_c, 1, 84, 0
1, 21772, Note_off_c, 1, 96, 0
1, 21793, Note_off_c, 1, 89, 0
1, 21793, Note_off_c, 1, 101, 0
1, 21820, Note_off_c, 1, 57, 0
1, 21820, Note_off_c, 1, 69, 0
1, 21820, Note_off_c, 1, 81, 0
1, 21823, Note_on_c, 1, 62, 127
1, 21826, Note_off_c, 1, 53, 0
1, 21826, Note_off_c, 1, 65, 0
1, 21826, Note_off_c, 1, 77, 0
1, 21889, Note_on_c, 1, 70, 127
1, 21889, Note_on_c, 1, 82, 127
1, 21889, Note_on_c, 1, 94, 127
1, 21929, Note_off_c, 1, 62, 0
1, 21938, Note_on_c, 1, 60, 127
1, 21943, Note_on_c, 1, 93, 127
1, 21950, Note_off_c, 1, 70, 0
1, 21950, Note_off_c, 1, 82, 0
1, 21950, Note_off_c, 1, 94, 0
1, 21979, Note_off_c, 1, 60, 0
1, 22000, Note_off_c, 1, 93, 0
1, 22004, Note_on_c, 1, 72, 127
1, 22004, Note_on_c, 1, 84, 127
1, 22004, Note_on_c, 1, 96, 127
1, 22057, Note_on_c, 1, 55, 127
1, 22057, Note_on_c, 1, 67, 127
1, 22057, Note_on_c, 1, 79, 127
1, 22058, Note_on_c, 1, 58, 127
1, 22058, Note_on_c, 1, 70, 127
1, 22058, Note_on_c, 1, 82, 127
1, 22066, Note_on_c, 1, 64, 127
1, 22066, Note_on_c, 1, 76, 127
1, 22066, Note_on_c, 1, 88, 127
1, 22070, Note_off_c, 1, 72, 0
1, 22070, Note_off_c, 1, 84, 0
1, 22070, Note_off_c, 1, 96, 0
1, 22128, Note_on_c, 1, 94, 127
1, 22134, Note_off_c, 1, 64, 0
1, 22134, Note_off_c, 1, 76, 0
1, 22134, Note_off_c, 1, 88, 0
1, 22184, Note_on_c, 1, 69, 127
1, 22184, Note_on_c, 1, 81, 127
1, 22184, Note_on_c, 1, 93, 127
1, 22186, Note_off_c, 1, 94, 0
1, 22198, Note_off_c, 1, 58, 0
1, 22198, Note_off_c, 1, 70, 0
1, 22198, Note_off_c, 1, 82, 0
1, 22217, Note_off_c, 1, 55, 0
1, 22217, Note_off_c, 1, 67, 0
1, 22217, Note_off_c, 1, 79, 0
1, 22236, Note_on_c, 1, 57, 127
1, 22243, Note_off_c, 1, 93, 0
1, 22299, Note_off_c, 1, 69, 0
1, 22299, Note_off_c, 1, 81, 0
1, 22299, Note_off_c, 1, 57, 0
1, 22304, Note_on_c, 1, 74, 127
1, 22304, Note_on_c, 1, 86, 127
1, 22304, Note_on_c, 1, 98, 127
1, 22349, Note_off_c, 1, 74, 0
1, 22349, Note_off_c, 1, 86, 0
1, 22349, Note_off_c, 1, 98, 0
1, 22356, Note_on_c, 1, 60, 127
1, 22356, Note_on_c, 1, 72, 127
1, 22356, Note_on_c, 1, 84, 127
1, 22358, Note_on_c, 1, 65, 127
1, 22358, Note_on_c, 1, 77, 127
1, 22358, Note_on_c, 1, 89, 127
1, 22418, Note_off_c, 1, 60, 0
1, 22418, Note_off_c, 1, 72, 0
1, 22418, Note_off_c, 1, 84, 0
1, 22418, Note_on_c, 1, 62, 127
1, 22418, Note_on_c, 1, 74, 127
1, 22418, Note_on_c, 1, 86, 127
1, 22424, Note_on_c, 1, 70, 127
1, 22424, Note_on_c, 1, 82, 127
1, 22424, Note_on_c, 1, 94, 127
1, 22425, Note_off_c, 1, 65, 0
1, 22425, Note_off_c, 1, 77, 0
1, 22425, Note_off_c, 1, 89, 0
1, 22466, Note_off_c, 1, 62, 0
1, 22466, Note_off_c, 1, 74, 0
1, 22466, Note_off_c, 1, 86, 0
1, 22473, Note_on_c, 1, 64, 127
1, 22473, Note_on_c, 1, 76, 127
1, 22473, Note_on_c, 1, 88, 127
1, 22477, Note_on_c, 1, 67, 127
1, 22477, Note_on_c, 1, 79, 127
1, 22477, Note_on_c, 1, 91, 127
1, 22480, Note_off_c, 1, 70, 0
1, 22480, Note_off_c, 1, 82, 0
1, 22480, Note_off_c, 1, 94, 0
1, 22521, Note_off_c, 1, 64, 0
1, 22521, Note_off_c, 1, 76, 0
1, 22521, Note_off_c, 1, 88, 0
1, 22533, Note_off_c, 1, 67, 0
1, 22533, Note_off_c, 1, 79, 0
1, 22533, Note_off_c, 1, 91, 0
1, 22536, Note_on_c, 1, 65, 127
1, 22536, Note_on_c, 1, 77, 127
1, 22536, Note_on_c, 1, 89, 127
1, 22539, Note_on_c, 1, 53, 127
1, 22541, Note_on_c, 1, 69, 127
1, 22541, Note_on_c, 1, 81, 127
1, 22541, Note_on_c, 1, 93, 127
1, 22586, Note_off_c, 1, 69, 0
1, 22586, Note_off_c, 1, 81, 0
1, 22586, Note_off_c, 1, 93, 0
1, 22590, Note_on_c, 1, 55, 127
1, 22590, Note_on_c, 1, 67, 127
1, 22590, Note_on_c, 1, 79, 127
1, 22591, Note_off_c, 1, 53, 0
1, 22592, Note_off_c, 1, 65, 0
1, 22592, Note_off_c, 1, 77, 0
1, 22592, Note_off_c, 1, 89, 0
1, 22653, Note_off_c, 1, 55, 0
1, 22653, Note_off_c, 1, 67, 0
1, 22653, Note_off_c, 1, 79, 0
1, 22659, Note_on_c, 1, 101, 127
1, 22660, Note_on_c, 1, 74, 127
1, 22660, Note_on_c, 1, 86, 127
1, 22660, Note_on_c, 1, 98, 127
1, 22708, Note_on_c, 1, 58, 127
1, 22708, Note_on_c, 1, 70, 127
1, 22708, Note_on_c, 1, 82, 127
1, 22755, Note_off_c, 1, 74, 0
1, 22755, Note_off_c, 1, 86, 0
1, 22755, Note_off_c, 1, 98, 0
1, 22761, Note_off_c, 1, 58, 0
1, 22761, Note_off_c, 1, 70, 0
1, 22761, Note_off_c, 1, 82, 0
1, 22764, Note_off_c, 1, 101, 0
1, 22775, Note_on_c, 1, 46, 127
1, 22775, Note_on_c, 1, 58, 127
1, 22775, Note_on_c, 1, 70, 127
1, 22779, Note_on_c, 1, 75, 127
1, 22779, Note_on_c, 1, 87, 127
1, 22779, Note_on_c, 1, 99, 127
1, 22780, Note_on_c, 1, 79, 127
1, 22780, Note_on_c, 1, 91, 127
1, 22780, Note_on_c, 1, 103, 127
1, 22823, Note_off_c, 1, 75, 0
1, 22823, Note_off_c, 1, 87, 0
1, 22823, Note_off_c, 1, 99, 0
1, 22827, Note_off_c, 1, 79, 0
1, 22827, Note_off_c, 1, 91, 0
1, 22827, Note_off_c, 1, 103, 0
1, 22834, Note_on_c, 1, 51, 127
1, 22834, Note_on_c, 1, 63, 127
1, 22836, Note_off_c, 1, 46, 0
1, 22836, Note_off_c, 1, 58, 0
1, 22836, Note_off_c, 1, 70, 0
1, 22887, Note_on_c, 1, 50, 127
1, 22887, Note_on_c, 1, 62, 127
1, 22887, Note_on_c, 1, 74, 127
1, 22889, Note_off_c, 1, 51, 0
1, 22889, Note_off_c, 1, 63, 0
1, 22897, Note_on_c, 1, 82, 127
1, 22897, Note_on_c, 1, 94, 127
1, 22899, Note_on_c, 1, 77, 127
1, 22899, Note_on_c, 1, 89, 127
1, 22899, Note_on_c, 1, 101, 127
1, 22950, Note_off_c, 1, 50, 0
1, 22950, Note_off_c, 1, 62, 0
1, 22950, Note_off_c, 1, 74, 0
1, 22952, Note_on_c, 1, 53, 127
1, 22952, Note_on_c, 1, 65, 127
1, 22964, Note_off_c, 1, 89, 0
1, 22964, Note_off_c, 1, 101, 0
1, 22979, Note_off_c, 1, 77, 0
1, 22979, Note_off_c, 1, 53, 0
1, 22979, Note_off_c, 1, 65, 0
1, 23015, Note_on_c, 1, 55, 127
1, 23015, Note_on_c, 1, 67, 127
1, 23028, Note_off_c, 1, 82, 0
1, 23028, Note_off_c, 1, 94, 0
1, 23083, Note_on_c, 1, 57, 127
1, 23083, Note_on_c, 1, 69, 127
1, 23083, Note_on_c, 1, 81, 127
1, 23085, Note_off_c, 1, 55, 0
1, 23085, Note_off_c, 1, 67, 0
1, 23143, Note_off_c, 1, 57, 0
1, 23143, Note_off_c, 1, 69, 0
1, 23143, Note_off_c, 1, 81, 0
1, 23379, Note_on_c, 1, 50, 127
1, 23379, Note_on_c, 1, 62, 127
1, 23379, Note_on_c, 1, 74, 127
1, 23387, Note_on_c, 1, 70, 127
1, 23387, Note_on_c, 1, 82, 127
1, 23387, Note_on_c, 1, 94, 127
1, 23388, Note_on_c, 1, 77, 127
1, 23388, Note_on_c, 1, 89, 127
1, 23388, Note_on_c, 1, 101, 127
1, 23437, Note_off_c, 1, 50, 0
1, 23437, Note_off_c, 1, 62, 0
1, 23437, Note_off_c, 1, 74, 0
1, 23440, Note_on_c, 1, 53, 127
1, 23440, Note_on_c, 1, 65, 127
1, 23487, Note_off_c, 1, 53, 0
1, 23487, Note_off_c, 1, 65, 0
1, 23498, Note_on_c, 1, 45, 127
1, 23498, Note_on_c, 1, 57, 127
1, 23498, Note_on_c, 1, 69, 127
1, 23503, Note_off_c, 1, 77, 0
1, 23503, Note_off_c, 1, 89, 0
1, 23503, Note_off_c, 1, 101, 0
1, 23513, Note_off_c, 1, 70, 0
1, 23513, Note_off_c, 1, 82, 0
1, 23513, Note_off_c, 1, 94, 0
1, 23513, Note_on_c, 1, 75, 127
1, 23513, Note_on_c, 1, 87, 127
1, 23513, Note_on_c, 1, 99, 127
1, 23516, Note_on_c, 1, 72, 127
1, 23516, Note_on_c, 1, 84, 127
1, 23516, Note_on_c, 1, 96, 127
1, 23563, Note_on_c, 1, 51, 127
1, 23563, Note_on_c, 1, 63, 127
1, 23571, Note_off_c, 1, 45, 0
1, 23571, Note_off_c, 1, 57, 0
1, 23571, Note_off_c, 1, 69, 0
1, 23620, Note_off_c, 1, 51, 0
1, 23620, Note_off_c, 1, 63, 0
1, 23631, Note_off_c, 1, 72, 0
1, 23631, Note_off_c, 1, 84, 0
1, 23631, Note_off_c, 1, 96, 0
1, 23683, Note_on_c, 1, 81, 127
1, 23683, Note_on_c, 1, 93, 127
1, 23745, Note_off_c, 1, 93, 0
1, 23750, Note_off_c, 1, 75, 0
1, 23750, Note_off_c, 1, 87, 0
1, 23750, Note_off_c, 1, 99, 0
1, 23795, Note_on_c, 1, 46, 127
1, 23795, Note_on_c, 1, 58, 127
1, 23796, Note_off_c, 1, 81, 0
1, 23854, Note_off_c, 1, 46, 0
1, 23854, Note_off_c, 1, 58, 0
1, 23906, Note_on_c, 1, 48, 127
1, 23906, Note_on_c, 1, 60, 127
1, 23966, Note_off_c, 1, 48, 0
1, 23966, Note_off_c, 1, 60, 0
1, 24104, Note_on_c, 1, 86, 127
1, 24104, Note_on_c, 1, 98, 127
1, 24162, Note_off_c, 1, 86, 0
1, 24162, Note_off_c, 1, 98, 0
1, 24282, Note_on_c, 1, 76, 127
1, 24282, Note_on_c, 1, 88, 127
1, 24282, Note_on_c, 1, 100, 127
1, 24331, Note_off_c, 1, 76, 0
1, 24331, Note_off_c, 1, 88, 0
1, 24331, Note_off_c, 1, 100, 0
1, 24336, Note_on_c, 1, 77, 127
1, 24336, Note_on_c, 1, 55, 127
1, 24336, Note_on_c, 1, 89, 127
1, 24336, Note_on_c, 1, 67, 127
1, 24336, Note_on_c, 1, 101, 127
1, 24336, Note_on_c, 1, 79, 127
1, 24337, Note_on_c, 1, 64, 127
1, 24337, Note_on_c, 1, 76, 127
1, 24337, Note_on_c, 1, 88, 127
1, 24377, Note_off_c, 1, 77, 0
1, 24377, Note_off_c, 1, 89, 0
1, 24377, Note_off_c, 1, 101, 0
1, 24382, Note_off_c, 1, 64, 0
1, 24382, Note_off_c, 1, 76, 0
1, 24382, Note_off_c, 1, 88, 0
1, 24389, Note_on_c, 1, 91, 127
1, 24389, Note_on_c, 1, 103, 127
1, 24397, Note_off_c, 1, 55, 0
1, 24397, Note_off_c, 1, 67, 0
1, 24423, Note_off_c, 1, 79, 0
1, 24423, Note_off_c, 1, 91, 0
1, 24423, Note_off_c, 1, 103, 0
1, 24452, Note_on_c, 1, 65, 127
1, 24452, Note_on_c, 1, 77, 127
1, 24452, Note_on_c, 1, 89, 127
1, 24453, Note_on_c, 1, 53, 127
1, 24454, Note_on_c, 1, 81, 127
1, 24454, Note_on_c, 1, 93, 127
1, 24454, Note_on_c, 1, 105, 127
1, 24481, Note_off_c, 1, 89, 0
1, 24515, Note_on_c, 1, 58, 127
1, 24515, Note_on_c, 1, 70, 127
1, 24515, Note_on_c, 1, 82, 127
1, 24532, Note_off_c, 1, 81, 0
1, 24532, Note_off_c, 1, 93, 0
1, 24532, Note_off_c, 1, 105, 0
1, 24569, Note_off_c, 1, 58, 0
1, 24569, Note_off_c, 1, 70, 0
1, 24569, Note_off_c, 1, 82, 0
1, 24575, Note_on_c, 1, 57, 127
1, 24575, Note_on_c, 1, 69, 127
1, 24583, Note_on_c, 1, 72, 127
1, 24583, Note_on_c, 1, 84, 127
1, 24583, Note_on_c, 1, 96, 127
1, 24628, Note_on_c, 1, 55, 127
1, 24628, Note_on_c, 1, 67, 127
1, 24628, Note_on_c, 1, 79, 127
1, 24630, Note_off_c, 1, 57, 0
1, 24630, Note_off_c, 1, 69, 0
1, 24631, Note_off_c, 1, 65, 0
1, 24631, Note_off_c, 1, 77, 0
1, 24631, Note_off_c, 1, 53, 0
1, 24639, Note_off_c, 1, 72, 0
1, 24639, Note_off_c, 1, 84, 0
1, 24639, Note_off_c, 1, 96, 0
1, 24692, Note_off_c, 1, 55, 0
1, 24692, Note_off_c, 1, 67, 0
1, 24692, Note_off_c, 1, 79, 0
1, 24701, Note_on_c, 1, 108, 127
1, 24813, Note_on_c, 1, 60, 127
1, 24815, Note_off_c, 1, 108, 0
1, 24873, Note_off_c, 1, 60, 0
1, 24874, Note_on_c, 1, 62, 127
1, 24874, Note_on_c, 1, 74, 127
1, 24874, Note_on_c, 1, 86, 127
1, 24911, Note_off_c, 1, 62, 0
1, 24911, Note_off_c, 1, 74, 0
1, 24911, Note_off_c, 1, 86, 0
1, 24938, Note_on_c, 1, 60, 127
1, 24938, Note_on_c, 1, 72, 127
1, 24938, Note_on_c, 1, 84, 127
1, 24939, Note_on_c, 1, 63, 127
1, 24939, Note_on_c, 1, 75, 127
1, 24939, Note_on_c, 1, 87, 127
1, 24948, Note_on_c, 1, 79, 127
1, 24948, Note_on_c, 1, 91, 127
1, 24948, Note_on_c, 1, 103, 127
1, 25013, Note_on_c, 1, 77, 127
1, 25013, Note_on_c, 1, 89, 127
1, 25013, Note_on_c, 1, 101, 127
1, 25015, Note_off_c, 1, 79, 0
1, 25015, Note_off_c, 1, 91, 0
1, 25015, Note_off_c, 1, 103, 0
1, 25043, Note_off_c, 1, 63, 0
1, 25043, Note_off_c, 1, 75, 0
1, 25043, Note_off_c, 1, 87, 0
1, 25058, Note_off_c, 1, 60, 0
1, 25058, Note_off_c, 1, 72, 0
1, 25058, Note_off_c, 1, 84, 0
1, 25073, Note_on_c, 1, 55, 127
1, 25073, Note_on_c, 1, 67, 127
1, 25078, Note_on_c, 1, 99, 127
1, 25081, Note_off_c, 1, 77, 0
1, 25081, Note_off_c, 1, 89, 0
1, 25081, Note_off_c, 1, 101, 0
1, 25133, Note_off_c, 1, 99, 0
1, 25135, Note_on_c, 1, 74, 127
1, 25135, Note_on_c, 1, 86, 127
1, 25135, Note_on_c, 1, 98, 127
1, 25200, Note_off_c, 1, 55, 0
1, 25206, Note_off_c, 1, 74, 0
1, 25206, Note_off_c, 1, 86, 0
1, 25206, Note_off_c, 1, 98, 0
1, 25276, Note_off_c, 1, 67, 0
1, 25309, Note_on_c, 1, 79, 127
1, 25309, Note_on_c, 1, 91, 127
1, 25309, Note_on_c, 1, 103, 127
1, 25313, Note_on_c, 1, 60, 127
1, 25313, Note_on_c, 1, 72, 127
1, 25313, Note_on_c, 1, 84, 127
1, 25314, Note_on_c, 1, 63, 127
1, 25314, Note_on_c, 1, 75, 127
1, 25314, Note_on_c, 1, 87, 127
1, 25363, Note_off_c, 1, 79, 0
1, 25363, Note_off_c, 1, 91, 0
1, 25363, Note_off_c, 1, 103, 0
1, 25369, Note_on_c, 1, 81, 127
1, 25369, Note_on_c, 1, 93, 127
1, 25369, Note_on_c, 1, 105, 127
1, 25376, Note_off_c, 1, 60, 0
1, 25376, Note_off_c, 1, 72, 0
1, 25376, Note_off_c, 1, 84, 0
1, 25377, Note_off_c, 1, 63, 0
1, 25377, Note_off_c, 1, 75, 0
1, 25377, Note_off_c, 1, 87, 0
1, 25400, Note_off_c, 1, 81, 0
1, 25400, Note_off_c, 1, 93, 0
1, 25400, Note_off_c, 1, 105, 0
1, 25426, Note_on_c, 1, 55, 127
1, 25426, Note_on_c, 1, 67, 127
1, 25426, Note_on_c, 1, 79, 127
1, 25430, Note_on_c, 1, 62, 127
1, 25430, Note_on_c, 1, 74, 127
1, 25430, Note_on_c, 1, 86, 127
1, 25438, Note_on_c, 1, 82, 127
1, 25438, Note_on_c, 1, 94, 127
1, 25438, Note_on_c, 1, 106, 127
1, 25494, Note_on_c, 1, 60, 127
1, 25494, Note_on_c, 1, 72, 127
1, 25494, Note_on_c, 1, 84, 127
1, 25495, Note_off_c, 1, 62, 0
1, 25495, Note_off_c, 1, 74, 0
1, 25495, Note_off_c, 1, 86, 0
1, 25496, Note_off_c, 1, 82, 0
1, 25496, Note_off_c, 1, 94, 0
1, 25496, Note_off_c, 1, 106, 0
1, 25497, Note_on_c, 1, 81, 127
1, 25497, Note_on_c, 1, 93, 127
1, 25497, Note_on_c, 1, 105, 127
1, 25549, Note_off_c, 1, 60, 0
1, 25549, Note_off_c, 1, 72, 0
1, 25549, Note_off_c, 1, 84, 0
1, 25555, Note_off_c, 1, 81, 0
1, 25555, Note_off_c, 1, 93, 0
1, 25555, Note_off_c, 1, 105, 0
1, 25555, Note_on_c, 1, 58, 127
1, 25555, Note_on_c, 1, 91, 127
1, 25555, Note_on_c, 1, 70, 127
1, 25555, Note_on_c, 1, 103, 127
1, 25609, Note_off_c, 1, 91, 0
1, 25609, Note_off_c, 1, 103, 0
1, 25609, Note_on_c, 1, 57, 127
1, 25609, Note_on_c, 1, 69, 127
1, 25611, Note_off_c, 1, 58, 0
1, 25611, Note_off_c, 1, 70, 0
1, 25614, Note_on_c, 1, 78, 127
1, 25614, Note_on_c, 1, 90, 127
1, 25614, Note_on_c, 1, 102, 127
1, 25667, Note_off_c, 1, 57, 0
1, 25667, Note_off_c, 1, 69, 0
1, 25673, Note_off_c, 1, 55, 0
1, 25673, Note_off_c, 1, 67, 0
1, 25673, Note_off_c, 1, 79, 0
1, 25673, Note_off_c, 1, 78, 0
1, 25673, Note_off_c, 1, 90, 0
1, 25673, Note_off_c, 1, 102, 0
1, 25849, Note_on_c, 1, 63, 127
1, 25849, Note_on_c, 1, 75, 127
1, 25849, Note_on_c, 1, 87, 127
1, 25908, Note_off_c, 1, 63, 0
1, 25908, Note_off_c, 1, 75, 0
1, 25908, Note_off_c, 1, 87, 0
1, 25912, Note_on_c, 1, 65, 127
1, 25912, Note_on_c, 1, 77, 127
1, 25912, Note_on_c, 1, 89, 127
1, 25914, Note_on_c, 1, 101, 127
1, 25973, Note_off_c, 1, 101, 0
1, 25973, Note_on_c, 1, 99, 127
1, 25990, Note_off_c, 1, 65, 0
1, 25990, Note_off_c, 1, 77, 0
1, 25990, Note_off_c, 1, 89, 0
1, 26035, Note_off_c, 1, 99, 0
1, 26035, Note_on_c, 1, 98, 127
1, 26089, Note_off_c, 1, 98, 0
1, 26089, Note_on_c, 1, 96, 127
1, 26121, Note_off_c, 1, 96, 0
1, 26145, Note_on_c, 1, 55, 127
1, 26145, Note_on_c, 1, 67, 127
1, 26145, Note_on_c, 1, 79, 127
1, 26152, Note_on_c, 1, 71, 127
1, 26152, Note_on_c, 1, 83, 127
1, 26152, Note_on_c, 1, 95, 127
1, 26211, Note_on_c, 1, 68, 127
1, 26211, Note_on_c, 1, 80, 127
1, 26211, Note_on_c, 1, 92, 127
1, 26218, Note_off_c, 1, 71, 0
1, 26218, Note_off_c, 1, 83, 0
1, 26218, Note_off_c, 1, 95, 0
1, 26222, Note_off_c, 1, 55, 0
1, 26222, Note_off_c, 1, 67, 0
1, 26222, Note_off_c, 1, 79, 0
1, 26269, Note_on_c, 1, 59, 127
1, 26271, Note_on_c, 1, 91, 127
1, 26272, Note_off_c, 1, 68, 0
1, 26272, Note_off_c, 1, 80, 0
1, 26272, Note_off_c, 1, 92, 0
1, 26328, Note_on_c, 1, 65, 127
1, 26328, Note_on_c, 1, 77, 127
1, 26328, Note_on_c, 1, 89, 127
1, 26332, Note_off_c, 1, 91, 0
1, 26352, Note_off_c, 1, 59, 0
1, 26360, Note_off_c, 1, 65, 0
1, 26360, Note_off_c, 1, 77, 0
1, 26360, Note_off_c, 1, 89, 0
1, 26391, Note_on_c, 1, 60, 127
1, 26391, Note_on_c, 1, 72, 127
1, 26391, Note_on_c, 1, 84, 127
1, 26455, Note_on_c, 1, 74, 127
1, 26455, Note_on_c, 1, 86, 127
1, 26455, Note_on_c, 1, 98, 127
1, 26474, Note_off_c, 1, 60, 0
1, 26474, Note_off_c, 1, 72, 0
1, 26474, Note_off_c, 1, 84, 0
1, 26514, Note_on_c, 1, 96, 127
1, 26517, Note_on_c, 1, 63, 127
1, 26517, Note_on_c, 1, 75, 127
1, 26517, Note_on_c, 1, 87, 127
1, 26524, Note_off_c, 1, 74, 0
1, 26524, Note_off_c, 1, 86, 0
1, 26524, Note_off_c, 1, 98, 0
1, 26573, Note_on_c, 1, 70, 127
1, 26573, Note_on_c, 1, 82, 127
1, 26573, Note_on_c, 1, 94, 127
1, 26576, Note_off_c, 1, 63, 0
1, 26576, Note_off_c, 1, 75, 0
1, 26576, Note_off_c, 1, 87, 0
1, 26579, Note_off_c, 1, 96, 0
1, 26615, Note_off_c, 1, 70, 0
1, 26615, Note_off_c, 1, 82, 0
1, 26615, Note_off_c, 1, 94, 0
1, 26628, Note_on_c, 1, 53, 127
1, 26628, Note_on_c, 1, 65, 127
1, 26628, Note_on_c, 1, 77, 127
1, 26634, Note_on_c, 1, 69, 127
1, 26634, Note_on_c, 1, 81, 127
1, 26634, Note_on_c, 1, 93, 127
1, 26694, Note_on_c, 1, 67, 127
1, 26694, Note_on_c, 1, 79, 127
1, 26694, Note_on_c, 1, 91, 127
1, 26704, Note_off_c, 1, 69, 0
1, 26704, Note_off_c, 1, 81, 0
1, 26704, Note_off_c, 1, 93, 0
1, 26726, Note_off_c, 1, 53, 0
1, 26726, Note_off_c, 1, 65, 0
1, 26726, Note_off_c, 1, 77, 0
1, 26749, Note_off_c, 1, 67, 0
1, 26749, Note_off_c, 1, 79, 0
1, 26749, Note_off_c, 1, 91, 0
1, 26752, Note_on_c, 1, 65, 127
1, 26752, Note_on_c, 1, 77, 127
1, 26752, Note_on_c, 1, 89, 127
1, 26757, Note_on_c, 1, 57, 127
1, 26757, Note_on_c, 1, 69, 127
1, 26757, Note_on_c, 1, 81, 127
1, 26788, Note_off_c, 1, 65, 0
1, 26788, Note_off_c, 1, 77, 0
1, 26788, Note_off_c, 1, 89, 0
1, 26796, Note_off_c, 1, 57, 0
1, 26796, Note_off_c, 1, 69, 0
1, 26796, Note_off_c, 1, 81, 0
1, 26803, Note_on_c, 1, 63, 127
1, 26803, Note_on_c, 1, 75, 127
1, 26803, Note_on_c, 1, 87, 127
1, 26821, Note_off_c, 1, 63, 0
1, 26821, Note_off_c, 1, 75, 0
1, 26821, Note_off_c, 1, 87, 0
1, 26866, Note_on_c, 1, 62, 127
1, 26866, Note_on_c, 1, 74, 127
1, 26866, Note_on_c, 1, 86, 127
1, 26867, Note_on_c, 1, 58, 127
1, 26867, Note_on_c, 1, 70, 127
1, 26867, Note_on_c, 1, 82, 127
1, 26867, Note_on_c, 1, 22, 127
1, 26867, Note_on_c, 1, 34, 127
1, 26867, Note_on_c, 1, 46, 127
1, 26928, Note_off_c, 1, 58, 0
1, 26928, Note_off_c, 1, 70, 0
1, 26928, Note_off_c, 1, 82, 0
1, 26929, Note_on_c, 1, 60, 127
1, 26929, Note_on_c, 1, 72, 127
1, 26929, Note_on_c, 1, 84, 127
1, 26974, Note_off_c, 1, 62, 0
1, 26974, Note_off_c, 1, 74, 0
1, 26974, Note_off_c, 1, 86, 0
1, 26979, Note_on_c, 1, 98, 127
1, 26993, Note_off_c, 1, 60, 0
1, 26993, Note_off_c, 1, 72, 0
1, 26993, Note_off_c, 1, 84, 0
1, 27034, Note_off_c, 1, 98, 0
1, 27041, Note_on_c, 1, 65, 127
1, 27041, Note_on_c, 1, 77, 127
1, 27041, Note_on_c, 1, 89, 127
1, 27085, Note_off_c, 1, 65, 0
1, 27085, Note_off_c, 1, 77, 0
1, 27085, Note_off_c, 1, 89, 0
1, 27097, Note_on_c, 1, 53, 127
1, 27098, Note_on_c, 1, 75, 127
1, 27098, Note_on_c, 1, 69, 127
1, 27098, Note_on_c, 1, 87, 127
1, 27098, Note_on_c, 1, 81, 127
1, 27098, Note_on_c, 1, 99, 127
1, 27098, Note_on_c, 1, 93, 127
1, 27101, Note_on_c, 1, 24, 127
1, 27101, Note_on_c, 1, 36, 127
1, 27101, Note_on_c, 1, 48, 127
1, 27103, Note_off_c, 1, 22, 0
1, 27103, Note_off_c, 1, 34, 0
1, 27103, Note_off_c, 1, 46, 0
1, 27162, Note_off_c, 1, 53, 0
1, 27164, Note_off_c, 1, 75, 0
1, 27164, Note_off_c, 1, 87, 0
1, 27164, Note_off_c, 1, 99, 0
1, 27215, Note_on_c, 1, 57, 127
1, 27274, Note_off_c, 1, 57, 0
1, 27280, Note_on_c, 1, 96, 127
1, 27291, Note_off_c, 1, 69, 0
1, 27291, Note_off_c, 1, 81, 0
1, 27291, Note_off_c, 1, 93, 0
1, 27314, Note_off_c, 1, 96, 0
1, 27331, Note_on_c, 1, 26, 127
1, 27331, Note_on_c, 1, 38, 127
1, 27331, Note_on_c, 1, 50, 127
1, 27336, Note_off_c, 1, 24, 0
1, 27336, Note_off_c, 1, 36, 0
1, 27336, Note_off_c, 1, 48, 0
1, 27342, Note_on_c, 1, 101, 127
1, 27400, Note_on_c, 1, 67, 127
1, 27400, Note_on_c, 1, 79, 127
1, 27400, Note_on_c, 1, 91, 127
1, 27408, Note_off_c, 1, 101, 0
1, 27456, Note_off_c, 1, 67, 0
1, 27456, Note_off_c, 1, 79, 0
1, 27456, Note_off_c, 1, 91, 0
1, 27522, Note_on_c, 1, 94, 127
1, 27577, Note_off_c, 1, 26, 0
1, 27577, Note_off_c, 1, 38, 0
1, 27577, Note_off_c, 1, 50, 0
1, 27579, Note_off_c, 1, 94, 0
1, 27584, Note_on_c, 1, 103, 127
1, 27633, Note_on_c, 1, 63, 127
1, 27687, Note_off_c, 1, 63, 0
1, 27891, Note_on_c, 1, 78, 127
1, 27891, Note_on_c, 1, 90, 127
1, 27891, Note_on_c, 1, 102, 127
1, 27892, Note_off_c, 1, 103, 0
1, 27950, Note_off_c, 1, 78, 0
1, 27950, Note_off_c, 1, 90, 0
1, 27950, Note_off_c, 1, 102, 0
1, 28062, Note_on_c, 1, 21, 127
1, 28062, Note_on_c, 1, 33, 127
1, 28062, Note_on_c, 1, 45, 127
1, 28128, Note_on_c, 1, 105, 127
1, 28153, Note_off_c, 1, 105, 0
1, 28251, Note_off_c, 1, 21, 0
1, 28251, Note_off_c, 1, 33, 0
1, 28251, Note_off_c, 1, 45, 0
1, 28295, Note_on_c, 1, 19, 127
1, 28295, Note_on_c, 1, 31, 127
1, 28295, Note_on_c, 1, 43, 127
1, 28544, Note_on_c, 1, 55, 127
1, 28613, Note_off_c, 1, 55, 0
1, 29264, Note_on_c, 1, 54, 127
1, 29264, Note_on_c, 1, 66, 127
1, 29328, Note_off_c, 1, 54, 0
1, 29328, Note_off_c, 1, 66, 0
1, 29749, Note_off_c, 1, 19, 0
1, 29749, Note_off_c, 1, 31, 0
1, 29749, Note_off_c, 1, 43, 0
1, 30704, Note_on_c, 1, 64, 127
1, 30704, Note_on_c, 1, 76, 127
1, 30704, Note_on_c, 1, 88, 127
1, 30711, Note_on_c, 1, 49, 127
1, 30711, Note_on_c, 1, 61, 127
1, 30711, Note_on_c, 1, 73, 127
1, 30754, Note_off_c, 1, 49, 0
1, 30754, Note_off_c, 1, 61, 0
1, 30754, Note_off_c, 1, 73, 0
1, 30792, Note_off_c, 1, 64, 0
1, 30792, Note_off_c, 1, 76, 0
1, 30792, Note_off_c, 1, 88, 0
1, 30822, Note_on_c, 1, 54, 127
1, 30822, Note_on_c, 1, 66, 127
1, 30822, Note_on_c, 1, 78, 127
1, 30828, Note_on_c, 1, 62, 127
1, 30828, Note_on_c, 1, 74, 127
1, 30828, Note_on_c, 1, 86, 127
1, 30877, Note_off_c, 1, 54, 0
1, 30877, Note_off_c, 1, 66, 0
1, 30877, Note_off_c, 1, 78, 0
1, 30877, Note_on_c, 1, 57, 127
1, 30877, Note_on_c, 1, 69, 127
1, 30877, Note_on_c, 1, 81, 127
1, 30888, Note_on_c, 1, 61, 127
1, 30888, Note_on_c, 1, 73, 127
1, 30888, Note_on_c, 1, 85, 127
1, 30893, Note_off_c, 1, 62, 0
1, 30893, Note_off_c, 1, 74, 0
1, 30893, Note_off_c, 1, 86, 0
1, 30933, Note_off_c, 1, 57, 0
1, 30933, Note_off_c, 1, 69, 0
1, 30933, Note_off_c, 1, 81, 0
1, 30936, Note_on_c, 1, 58, 127
1, 30936, Note_on_c, 1, 70, 127
1, 30936, Note_on_c, 1, 82, 127
1, 30949, Note_off_c, 1, 61, 0
1, 30949, Note_off_c, 1, 73, 0
1, 30949, Note_off_c, 1, 85, 0
1, 30992, Note_on_c, 1, 50, 127
1, 30995, Note_off_c, 1, 58, 0
1, 30995, Note_off_c, 1, 70, 0
1, 30995, Note_off_c, 1, 82, 0
1, 31009, Note_on_c, 1, 65, 127
1, 31009, Note_on_c, 1, 77, 127
1, 31009, Note_on_c, 1, 89, 127
1, 31056, Note_on_c, 1, 55, 127
1, 31056, Note_on_c, 1, 67, 127
1, 31056, Note_on_c, 1, 79, 127
1, 31058, Note_off_c, 1, 50, 0
1, 31066, Note_on_c, 1, 64, 127
1, 31066, Note_on_c, 1, 76, 127
1, 31066, Note_on_c, 1, 88, 127
1, 31067, Note_off_c, 1, 65, 0
1, 31067, Note_off_c, 1, 77, 0
1, 31067, Note_off_c, 1, 89, 0
1, 31114, Note_on_c, 1, 52, 127
1, 31115, Note_off_c, 1, 55, 0
1, 31115, Note_off_c, 1, 67, 0
1, 31115, Note_off_c, 1, 79, 0
1, 31122, Note_off_c, 1, 88, 0
1, 31123, Note_on_c, 1, 91, 127
1, 31170, Note_off_c, 1, 64, 0
1, 31170, Note_off_c, 1, 76, 0
1, 31170, Note_off_c, 1, 52, 0
1, 31173, Note_on_c, 1, 53, 127
1, 31185, Note_on_c, 1, 93, 127
1, 31186, Note_off_c, 1, 91, 0
1, 31235, Note_off_c, 1, 53, 0
1, 31259, Note_off_c, 1, 93, 0
1, 31351, Note_on_c, 1, 49, 127
1, 31413, Note_off_c, 1, 49, 0
1, 31652, Note_on_c, 1, 57, 127
1, 31652, Note_on_c, 1, 69, 127
1, 31652, Note_on_c, 1, 81, 127
1, 31665, Note_on_c, 1, 61, 127
1, 31665, Note_on_c, 1, 73, 127
1, 31665, Note_on_c, 1, 85, 127
1, 31718, Note_off_c, 1, 57, 0
1, 31718, Note_off_c, 1, 69, 0
1, 31718, Note_off_c, 1, 81, 0
1, 31731, Note_on_c, 1, 59, 127
1, 31731, Note_on_c, 1, 71, 127
1, 31731, Note_on_c, 1, 83, 127
1, 31736, Note_off_c, 1, 61, 0
1, 31736, Note_off_c, 1, 73, 0
1, 31736, Note_off_c, 1, 85, 0
1, 31780, Note_on_c, 1, 45, 127
1, 31796, Note_off_c, 1, 59, 0
1, 31796, Note_off_c, 1, 71, 0
1, 31796, Note_off_c, 1, 83, 0
1, 31833, Note_off_c, 1, 45, 0
1, 31973, Note_on_c, 1, 62, 127
1, 31973, Note_on_c, 1, 74, 127
1, 31973, Note_on_c, 1, 86, 127
1, 32033, Note_on_c, 1, 55, 127
1, 32033, Note_on_c, 1, 64, 127
1, 32033, Note_on_c, 1, 67, 127
1, 32033, Note_on_c, 1, 76, 127
1, 32033, Note_on_c, 1, 79, 127
1, 32033, Note_on_c, 1, 88, 127
1, 32038, Note_off_c, 1, 62, 0
1, 32038, Note_off_c, 1, 74, 0
1, 32038, Note_off_c, 1, 86, 0
1, 32091, Note_on_c, 1, 53, 127
1, 32091, Note_on_c, 1, 65, 127
1, 32091, Note_on_c, 1, 77, 127
1, 32093, Note_off_c, 1, 55, 0
1, 32093, Note_off_c, 1, 67, 0
1, 32093, Note_off_c, 1, 79, 0
1, 32093, Note_on_c, 1, 89, 127
1, 32095, Note_off_c, 1, 64, 0
1, 32095, Note_off_c, 1, 76, 0
1, 32095, Note_off_c, 1, 88, 0
1, 32110, Note_off_c, 1, 53, 0
1, 32152, Note_on_c, 1, 52, 127
1, 32157, Note_off_c, 1, 65, 0
1, 32157, Note_off_c, 1, 77, 0
1, 32157, Note_off_c, 1, 89, 0
1, 32157, Note_on_c, 1, 91, 127
1, 32211, Note_off_c, 1, 52, 0
1, 32212, Note_on_c, 1, 50, 127
1, 32223, Note_off_c, 1, 91, 0
1, 32269, Note_off_c, 1, 50, 0
1, 32270, Note_on_c, 1, 49, 127
1, 32328, Note_off_c, 1, 49, 0
1, 32453, Note_on_c, 1, 93, 127
1, 32510, Note_off_c, 1, 93, 0
1, 32513, Note_on_c, 1, 70, 127
1, 32513, Note_on_c, 1, 82, 127
1, 32513, Note_on_c, 1, 94, 127
1, 32559, Note_off_c, 1, 70, 0
1, 32559, Note_off_c, 1, 82, 0
1, 32559, Note_off_c, 1, 94, 0
1, 32625, Note_on_c, 1, 58, 127
1, 32630, Note_on_c, 1, 98, 127
1, 32676, Note_off_c, 1, 58, 0
1, 32692, Note_on_c, 1, 100, 127
1, 32693, Note_off_c, 1, 98, 0
1, 32748, Note_off_c, 1, 100, 0
1, 32806, Note_on_c, 1, 105, 127
1, 32830, Note_off_c, 1, 105, 0
1, 32865, Note_on_c, 1, 57, 127
1, 32865, Note_on_c, 1, 69, 127
1, 32865, Note_on_c, 1, 81, 127
1, 32866, Note_on_c, 1, 61, 127
1, 32866, Note_on_c, 1, 73, 127
1, 32866, Note_on_c, 1, 85, 127
1, 32869, Note_on_c, 1, 93, 127
1, 32929, Note_on_c, 1, 97, 127
1, 32932, Note_off_c, 1, 93, 0
1, 32986, Note_on_c, 1, 62, 127
1, 32986, Note_on_c, 1, 74, 127
1, 32986, Note_on_c, 1, 86, 127
1, 32987, Note_off_c, 1, 61, 0
1, 32988, Note_off_c, 1, 73, 0
1, 32988, Note_off_c, 1, 85, 0
1, 32988, Note_off_c, 1, 97, 0
1, 32989, Note_on_c, 1, 71, 127
1, 32989, Note_on_c, 1, 83, 127
1, 32989, Note_on_c, 1, 95, 127
1, 33024, Note_off_c, 1, 62, 0
1, 33024, Note_off_c, 1, 74, 0
1, 33024, Note_off_c, 1, 86, 0
1, 33041, Note_on_c, 1, 59, 127
1, 33046, Note_on_c, 1, 98, 127
1, 33048, Note_off_c, 1, 95, 0
1, 33074, Note_off_c, 1, 71, 0
1, 33074, Note_off_c, 1, 83, 0
1, 33074, Note_off_c, 1, 59, 0
1, 33076, Note_off_c, 1, 98, 0
1, 33108, Note_on_c, 1, 76, 127
1, 33108, Note_on_c, 1, 88, 127
1, 33108, Note_on_c, 1, 100, 127
1, 33169, Note_on_c, 1, 77, 127
1, 33169, Note_on_c, 1, 89, 127
1, 33169, Note_on_c, 1, 101, 127
1, 33179, Note_off_c, 1, 76, 0
1, 33179, Note_off_c, 1, 88, 0
1, 33179, Note_off_c, 1, 100, 0
1, 33216, Note_off_c, 1, 57, 0
1, 33216, Note_off_c, 1, 69, 0
1, 33216, Note_off_c, 1, 81, 0
1, 33225, Note_on_c, 1, 55, 127
1, 33225, Note_on_c, 1, 67, 127
1, 33225, Note_on_c, 1, 79, 127
1, 33228, Note_off_c, 1, 77, 0
1, 33228, Note_off_c, 1, 89, 0
1, 33228, Note_off_c, 1, 101, 0
1, 33288, Note_on_c, 1, 105, 127
1, 33326, Note_off_c, 1, 105, 0
1, 33339, Note_off_c, 1, 55, 0
1, 33339, Note_off_c, 1, 67, 0
1, 33339, Note_off_c, 1, 79, 0
1, 33342, Note_on_c, 1, 53, 127
1, 33342, Note_on_c, 1, 65, 127
1, 33342, Note_on_c, 1, 77, 127
1, 33344, Note_on_c, 1, 62, 127
1, 33344, Note_on_c, 1, 74, 127
1, 33344, Note_on_c, 1, 86, 127
1, 33349, Note_on_c, 1, 69, 127
1, 33349, Note_on_c, 1, 81, 127
1, 33349, Note_on_c, 1, 93, 127
1, 33410, Note_on_c, 1, 98, 127
1, 33413, Note_off_c, 1, 69, 0
1, 33413, Note_off_c, 1, 81, 0
1, 33413, Note_off_c, 1, 93, 0
1, 33446, Note_off_c, 1, 98, 0
1, 33461, Note_on_c, 1, 52, 127
1, 33461, Note_on_c, 1, 64, 127
1, 33461, Note_on_c, 1, 76, 127
1, 33463, Note_on_c, 1, 55, 127
1, 33463, Note_on_c, 1, 67, 127
1, 33463, Note_on_c, 1, 79, 127
1, 33464, Note_off_c, 1, 53, 0
1, 33464, Note_off_c, 1, 65, 0
1, 33464, Note_off_c, 1, 77, 0
1, 33464, Note_off_c, 1, 62, 0
1, 33464, Note_off_c, 1, 74, 0
1, 33464, Note_off_c, 1, 86, 0
1, 33469, Note_on_c, 1, 73, 127
1, 33469, Note_on_c, 1, 85, 127
1, 33469, Note_on_c, 1, 97, 127
1, 33523, Note_on_c, 1, 88, 127
1, 33523, Note_on_c, 1, 100, 127
1, 33526, Note_off_c, 1, 73, 0
1, 33526, Note_off_c, 1, 85, 0
1, 33526, Note_off_c, 1, 97, 0
1, 33539, Note_off_c, 1, 88, 0
1, 33539, Note_off_c, 1, 100, 0
1, 33575, Note_off_c, 1, 55, 0
1, 33575, Note_off_c, 1, 67, 0
1, 33575, Note_off_c, 1, 79, 0
1, 33580, Note_on_c, 1, 57, 127
1, 33581, Note_on_c, 1, 50, 127
1, 33585, Note_off_c, 1, 52, 0
1, 33585, Note_off_c, 1, 64, 0
1, 33585, Note_off_c, 1, 76, 0
1, 33586, Note_on_c, 1, 89, 127
1, 33586, Note_on_c, 1, 101, 127
1, 33650, Note_on_c, 1, 91, 127
1, 33650, Note_on_c, 1, 103, 127
1, 33655, Note_off_c, 1, 89, 0
1, 33655, Note_off_c, 1, 101, 0
1, 33684, Note_off_c, 1, 57, 0
1, 33707, Note_off_c, 1, 91, 0
1, 33707, Note_off_c, 1, 103, 0
1, 33767, Note_on_c, 1, 105, 127
1, 33791, Note_off_c, 1, 105, 0
1, 33819, Note_off_c, 1, 50, 0
1, 33820, Note_on_c, 1, 55, 127
1, 33820, Note_on_c, 1, 67, 127
1, 33820, Note_on_c, 1, 79, 127
1, 33821, Note_on_c, 1, 61, 127
1, 33821, Note_on_c, 1, 73, 127
1, 33821, Note_on_c, 1, 85, 127
1, 33827, Note_on_c, 1, 69, 127
1, 33827, Note_on_c, 1, 81, 127
1, 33827, Note_on_c, 1, 93, 127
1, 33885, Note_on_c, 1, 76, 127
1, 33885, Note_on_c, 1, 88, 127
1, 33885, Note_on_c, 1, 100, 127
1, 33892, Note_off_c, 1, 69, 0
1, 33892, Note_off_c, 1, 81, 0
1, 33892, Note_off_c, 1, 93, 0
1, 33912, Note_off_c, 1, 76, 0
1, 33912, Note_off_c, 1, 88, 0
1, 33912, Note_off_c, 1, 100, 0
1, 33946, Note_off_c, 1, 55, 0
1, 33946, Note_off_c, 1, 67, 0
1, 33946, Note_off_c, 1, 79, 0
1, 33948, Note_off_c, 1, 61, 0
1, 33948, Note_off_c, 1, 73, 0
1, 33948, Note_off_c, 1, 85, 0
1, 33948, Note_on_c, 1, 62, 127
1, 33948, Note_on_c, 1, 74, 127
1, 33948, Note_on_c, 1, 86, 127
1, 33950, Note_on_c, 1, 53, 127
1, 33950, Note_on_c, 1, 65, 127
1, 33950, Note_on_c, 1, 98, 127
1, 33950, Note_on_c, 1, 77, 127
1, 34007, Note_on_c, 1, 89, 127
1, 34007, Note_on_c, 1, 101, 127
1, 34014, Note_off_c, 1, 98, 0
1, 34033, Note_off_c, 1, 89, 0
1, 34033, Note_off_c, 1, 101, 0
1, 34049, Note_off_c, 1, 53, 0
1, 34049, Note_off_c, 1, 65, 0
1, 34049, Note_off_c, 1, 77, 0
1, 34063, Note_on_c, 1, 58, 127
1, 34063, Note_on_c, 1, 70, 127
1, 34063, Note_on_c, 1, 82, 127
1, 34064, Note_on_c, 1, 64, 127
1, 34068, Note_off_c, 1, 62, 0
1, 34068, Note_off_c, 1, 74, 0
1, 34068, Note_off_c, 1, 86, 0
1, 34069, Note_on_c, 1, 97, 127
1, 34128, Note_on_c, 1, 91, 127
1, 34128, Note_on_c, 1, 103, 127
1, 34134, Note_off_c, 1, 64, 0
1, 34135, Note_off_c, 1, 97, 0
1, 34158, Note_off_c, 1, 91, 0
1, 34158, Note_off_c, 1, 103, 0
1, 34186, Note_on_c, 1, 57, 127
1, 34187, Note_off_c, 1, 58, 0
1, 34187, Note_off_c, 1, 70, 0
1, 34187, Note_off_c, 1, 82, 0
1, 34248, Note_on_c, 1, 105, 127
1, 34306, Note_off_c, 1, 57, 0
1, 34306, Note_on_c, 1, 94, 127
1, 34306, Note_on_c, 1, 106, 127
1, 34308, Note_off_c, 1, 105, 0
1, 34360, Note_off_c, 1, 94, 0
1, 34360, Note_off_c, 1, 106, 0
1, 34547, Note_on_c, 1, 50, 127
1, 34786, Note_off_c, 1, 50, 0
1, 34846, Note_on_c, 1, 63, 127
1, 34846, Note_on_c, 1, 75, 127
1, 34846, Note_on_c, 1, 87, 127
1, 34905, Note_off_c, 1, 63, 0
1, 34905, Note_off_c, 1, 75, 0
1, 34905, Note_off_c, 1, 87, 0
1, 34965, Note_on_c, 1, 60, 127
1, 34965, Note_on_c, 1, 72, 127
1, 34965, Note_on_c, 1, 84, 127
1, 34994, Note_off_c, 1, 60, 0
1, 34994, Note_off_c, 1, 72, 0
1, 34994, Note_off_c, 1, 84, 0
1, 35025, Note_on_c, 1, 59, 127
1, 35025, Note_on_c, 1, 71, 127
1, 35025, Note_on_c, 1, 83, 127
1, 35085, Note_on_c, 1, 99, 127
1, 35134, Note_off_c, 1, 59, 0
1, 35134, Note_off_c, 1, 71, 0
1, 35134, Note_off_c, 1, 83, 0
1, 35143, Note_off_c, 1, 99, 0
1, 35255, Note_on_c, 1, 51, 127
1, 35366, Note_off_c, 1, 51, 0
1, 35374, Note_on_c, 1, 50, 127
1, 35374, Note_on_c, 1, 62, 127
1, 35374, Note_on_c, 1, 74, 127
1, 35375, Note_on_c, 1, 53, 127
1, 35375, Note_on_c, 1, 65, 127
1, 35375, Note_on_c, 1, 77, 127
1, 35379, Note_on_c, 1, 81, 127
1, 35379, Note_on_c, 1, 93, 127
1, 35379, Note_on_c, 1, 105, 127
1, 35413, Note_off_c, 1, 81, 0
1, 35413, Note_off_c, 1, 93, 0
1, 35413, Note_off_c, 1, 105, 0
1, 35429, Note_on_c, 1, 83, 127
1, 35429, Note_on_c, 1, 95, 127
1, 35429, Note_on_c, 1, 107, 127
1, 35431, Note_off_c, 1, 53, 0
1, 35431, Note_off_c, 1, 65, 0
1, 35431, Note_off_c, 1, 77, 0
1, 35440, Note_off_c, 1, 50, 0
1, 35440, Note_off_c, 1, 62, 0
1, 35440, Note_off_c, 1, 74, 0
1, 35462, Note_off_c, 1, 83, 0
1, 35462, Note_off_c, 1, 95, 0
1, 35462, Note_off_c, 1, 107, 0
1, 35488, Note_on_c, 1, 51, 127
1, 35488, Note_on_c, 1, 63, 127
1, 35488, Note_on_c, 1, 75, 127
1, 35490, Note_on_c, 1, 48, 127
1, 35490, Note_on_c, 1, 60, 127
1, 35490, Note_on_c, 1, 72, 127
1, 35497, Note_on_c, 1, 84, 127
1, 35497, Note_on_c, 1, 96, 127
1, 35497, Note_on_c, 1, 108, 127
1, 35574, Note_on_c, 1, 80, 127
1, 35574, Note_on_c, 1, 92, 127
1, 35574, Note_on_c, 1, 104, 127
1, 35575, Note_off_c, 1, 84, 0
1, 35575, Note_off_c, 1, 96, 0
1, 35575, Note_off_c, 1, 108, 0
1, 35621, Note_off_c, 1, 80, 0
1, 35621, Note_off_c, 1, 92, 0
1, 35621, Note_off_c, 1, 104, 0
1, 35622, Note_on_c, 1, 46, 127
1, 35622, Note_on_c, 1, 58, 127
1, 35622, Note_on_c, 1, 70, 127
1, 35623, Note_off_c, 1, 48, 0
1, 35623, Note_off_c, 1, 60, 0
1, 35623, Note_off_c, 1, 72, 0
1, 35631, Note_on_c, 1, 79, 127
1, 35631, Note_on_c, 1, 91, 127
1, 35631, Note_on_c, 1, 103, 127
1, 35687, Note_off_c, 1, 79, 0
1, 35687, Note_off_c, 1, 91, 0
1, 35687, Note_off_c, 1, 103, 0
1, 35687, Note_on_c, 1, 77, 127
1, 35687, Note_on_c, 1, 89, 127
1, 35687, Note_on_c, 1, 101, 127
1, 35738, Note_off_c, 1, 46, 0
1, 35738, Note_off_c, 1, 58, 0
1, 35738, Note_off_c, 1, 70, 0
1, 35743, Note_on_c, 1, 45, 127
1, 35743, Note_on_c, 1, 57, 127
1, 35743, Note_on_c, 1, 69, 127
1, 35747, Note_on_c, 1, 87, 127
1, 35747, Note_on_c, 1, 99, 127
1, 35748, Note_off_c, 1, 77, 0
1, 35748, Note_off_c, 1, 89, 0
1, 35748, Note_off_c, 1, 101, 0
1, 35812, Note_on_c, 1, 74, 127
1, 35812, Note_on_c, 1, 86, 127
1, 35812, Note_on_c, 1, 98, 127
1, 35815, Note_off_c, 1, 87, 0
1, 35815, Note_off_c, 1, 99, 0
1, 35858, Note_off_c, 1, 45, 0
1, 35858, Note_off_c, 1, 57, 0
1, 35858, Note_off_c, 1, 69, 0
1, 35861, Note_on_c, 1, 43, 127
1, 35861, Note_on_c, 1, 55, 127
1, 35861, Note_on_c, 1, 67, 127
1, 35874, Note_off_c, 1, 74, 0
1, 35874, Note_off_c, 1, 86, 0
1, 35874, Note_off_c, 1, 98, 0
1, 35931, Note_on_c, 1, 82, 127
1, 35931, Note_on_c, 1, 94, 127
1, 35951, Note_off_c, 1, 43, 0
1, 35951, Note_off_c, 1, 55, 0
1, 35951, Note_off_c, 1, 67, 0
1, 35962, Note_off_c, 1, 82, 0
1, 35962, Note_off_c, 1, 94, 0
1, 35986, Note_on_c, 1, 41, 127
1, 35986, Note_on_c, 1, 53, 127
1, 35986, Note_on_c, 1, 65, 127
1, 35991, Note_on_c, 1, 81, 127
1, 35991, Note_on_c, 1, 93, 127
1, 36048, Note_off_c, 1, 51, 0
1, 36048, Note_off_c, 1, 63, 0
1, 36048, Note_off_c, 1, 75, 0
1, 36050, Note_on_c, 1, 50, 127
1, 36050, Note_on_c, 1, 62, 127
1, 36055, Note_off_c, 1, 81, 0
1, 36055, Note_off_c, 1, 93, 0
1, 36116, Note_off_c, 1, 50, 0
1, 36116, Note_off_c, 1, 62, 0
1, 36354, Note_off_c, 1, 41, 0
1, 36354, Note_off_c, 1, 53, 0
1, 36397, Note_off_c, 1, 65, 0
1, 36700, Note_on_c, 1, 50, 127
1, 36700, Note_on_c, 1, 62, 127
1, 36700, Note_on_c, 1, 74, 127
1, 36703, Note_on_c, 1, 58, 127
1, 36703, Note_on_c, 1, 70, 127
1, 36703, Note_on_c, 1, 82, 127
1, 36760, Note_on_c, 1, 48, 127
1, 36760, Note_on_c, 1, 60, 127
1, 36760, Note_on_c, 1, 72, 127
1, 36767, Note_off_c, 1, 50, 0
1, 36767, Note_off_c, 1, 62, 0
1, 36767, Note_off_c, 1, 74, 0
1, 36775, Note_off_c, 1, 58, 0
1, 36775, Note_off_c, 1, 70, 0
1, 36775, Note_off_c, 1, 82, 0
1, 36822, Note_on_c, 1, 46, 127
1, 36824, Note_off_c, 1, 48, 0
1, 36824, Note_off_c, 1, 60, 0
1, 36824, Note_off_c, 1, 72, 0
1, 36824, Note_on_c, 1, 53, 127
1, 36824, Note_on_c, 1, 65, 127
1, 36824, Note_on_c, 1, 77, 127
1, 36828, Note_on_c, 1, 86, 127
1, 36868, Note_off_c, 1, 86, 0
1, 36881, Note_on_c, 1, 45, 127
1, 36881, Note_on_c, 1, 57, 127
1, 36881, Note_on_c, 1, 69, 127
1, 36882, Note_off_c, 1, 46, 0
1, 36882, Note_off_c, 1, 53, 0
1, 36882, Note_off_c, 1, 65, 0
1, 36882, Note_off_c, 1, 77, 0
1, 36945, Note_on_c, 1, 51, 127
1, 36945, Note_on_c, 1, 43, 127
1, 36945, Note_on_c, 1, 63, 127
1, 36945, Note_on_c, 1, 55, 127
1, 36945, Note_on_c, 1, 75, 127
1, 36945, Note_on_c, 1, 67, 127
1, 36950, Note_off_c, 1, 45, 0
1, 36950, Note_off_c, 1, 57, 0
1, 36950, Note_off_c, 1, 69, 0
1, 36956, Note_on_c, 1, 87, 127
1, 37004, Note_off_c, 1, 51, 0
1, 37016, Note_on_c, 1, 89, 127
1, 37024, Note_off_c, 1, 63, 0
1, 37024, Note_off_c, 1, 75, 0
1, 37024, Note_off_c, 1, 87, 0
1, 37072, Note_off_c, 1, 43, 0
1, 37072, Note_off_c, 1, 55, 0
1, 37072, Note_off_c, 1, 67, 0
1, 37077, Note_on_c, 1, 79, 127
1, 37077, Note_on_c, 1, 91, 127
1, 37078, Note_off_c, 1, 89, 0
1, 37137, Note_on_c, 1, 68, 127
1, 37137, Note_on_c, 1, 80, 127
1, 37137, Note_on_c, 1, 92, 127
1, 37142, Note_off_c, 1, 79, 0
1, 37142, Note_off_c, 1, 91, 0
1, 37178, Note_off_c, 1, 68, 0
1, 37178, Note_off_c, 1, 80, 0
1, 37178, Note_off_c, 1, 92, 0
1, 37186, Note_on_c, 1, 39, 127
1, 37186, Note_on_c, 1, 51, 127
1, 37186, Note_on_c, 1, 63, 127
1, 37197, Note_on_c, 1, 67, 127
1, 37197, Note_on_c, 1, 79, 127
1, 37197, Note_on_c, 1, 91, 127
1, 37252, Note_on_c, 1, 65, 127
1, 37252, Note_on_c, 1, 77, 127
1, 37252, Note_on_c, 1, 89, 127
1, 37259, Note_off_c, 1, 67, 0
1, 37259, Note_off_c, 1, 79, 0
1, 37259, Note_off_c, 1, 91, 0
1, 37269, Note_off_c, 1, 39, 0
1, 37269, Note_off_c, 1, 51, 0
1, 37269, Note_off_c, 1, 63, 0
1, 37310, Note_off_c, 1, 65, 0
1, 37310, Note_off_c, 1, 77, 0
1, 37310, Note_off_c, 1, 89, 0
1, 37312, Note_on_c, 1, 63, 127
1, 37312, Note_on_c, 1, 75, 127
1, 37312, Note_on_c, 1, 87, 127
1, 37314, Note_on_c, 1, 58, 127
1, 37314, Note_on_c, 1, 70, 127
1, 37314, Note_on_c, 1, 82, 127
1, 37315, Note_on_c, 1, 43, 127
1, 37315, Note_on_c, 1, 55, 127
1, 37315, Note_on_c, 1, 67, 127
1, 37364, Note_on_c, 1, 62, 127
1, 37364, Note_on_c, 1, 74, 127
1, 37364, Note_on_c, 1, 86, 127
1, 37366, Note_off_c, 1, 63, 0
1, 37366, Note_off_c, 1, 75, 0
1, 37366, Note_off_c, 1, 87, 0
1, 37366, Note_off_c, 1, 43, 0
1, 37366, Note_off_c, 1, 55, 0
1, 37366, Note_off_c, 1, 67, 0
1, 37399, Note_off_c, 1, 62, 0
1, 37399, Note_off_c, 1, 74, 0
1, 37399, Note_off_c, 1, 86, 0
1, 37426, Note_on_c, 1, 45, 127
1, 37426, Note_on_c, 1, 57, 127
1, 37426, Note_on_c, 1, 69, 127
1, 37430, Note_on_c, 1, 60, 127
1, 37430, Note_on_c, 1, 72, 127
1, 37430, Note_on_c, 1, 84, 127
1, 37438, Note_off_c, 1, 58, 0
1, 37438, Note_off_c, 1, 70, 0
1, 37438, Note_off_c, 1, 82, 0
1, 37487, Note_on_c, 1, 46, 127
1, 37498, Note_off_c, 1, 45, 0
1, 37498, Note_off_c, 1, 57, 0
1, 37498, Note_off_c, 1, 69, 0
1, 37546, Note_off_c, 1, 46, 0
1, 37549, Note_on_c, 1, 48, 127
1, 37554, Note_on_c, 1, 81, 127
1, 37604, Note_on_c, 1, 50, 127
1, 37608, Note_off_c, 1, 48, 0
1, 37610, Note_on_c, 1, 79, 127
1, 37613, Note_off_c, 1, 81, 0
1, 37665, Note_off_c, 1, 84, 0
1, 37665, Note_off_c, 1, 50, 0
1, 37667, Note_off_c, 1, 79, 0
1, 37723, Note_off_c, 1, 60, 0
1, 37723, Note_off_c, 1, 72, 0
1, 37777, Note_on_c, 1, 45, 127
1, 37777, Note_on_c, 1, 57, 127
1, 37777, Note_on_c, 1, 69, 127
1, 37785, Note_on_c, 1, 60, 127
1, 37785, Note_on_c, 1, 72, 127
1, 37785, Note_on_c, 1, 84, 127
1, 37831, Note_on_c, 1, 43, 127
1, 37831, Note_on_c, 1, 55, 127
1, 37831, Note_on_c, 1, 67, 127
1, 37835, Note_off_c, 1, 45, 0
1, 37835, Note_off_c, 1, 57, 0
1, 37835, Note_off_c, 1, 69, 0
1, 37892, Note_off_c, 1, 43, 0
1, 37892, Note_off_c, 1, 55, 0
1, 37892, Note_off_c, 1, 67, 0
1, 37893, Note_on_c, 1, 42, 127
1, 37893, Note_on_c, 1, 54, 127
1, 37893, Note_on_c, 1, 66, 127
1, 37921, Note_off_c, 1, 60, 0
1, 37921, Note_off_c, 1, 72, 0
1, 37921, Note_off_c, 1, 84, 0
1, 37947, Note_off_c, 1, 42, 0
1, 37947, Note_off_c, 1, 54, 0
1, 37947, Note_off_c, 1, 66, 0
1, 37952, Note_on_c, 1, 60, 127
1, 37952, Note_on_c, 1, 72, 127
1, 37952, Note_on_c, 1, 84, 127
1, 38021, Note_off_c, 1, 60, 0
1, 38021, Note_off_c, 1, 72, 0
1, 38021, Note_off_c, 1, 84, 0
1, 38022, Note_on_c, 1, 62, 127
1, 38022, Note_on_c, 1, 74, 127
1, 38022, Note_on_c, 1, 86, 127
1, 38024, Note_on_c, 1, 50, 127
1, 38077, Note_off_c, 1, 86, 0
1, 38094, Note_on_c, 1, 63, 127
1, 38094, Note_on_c, 1, 75, 127
1, 38094, Note_on_c, 1, 87, 127
1, 38138, Note_off_c, 1, 62, 0
1, 38138, Note_off_c, 1, 74, 0
1, 38138, Note_off_c, 1, 50, 0
1, 38140, Note_on_c, 1, 38, 127
1, 38153, Note_off_c, 1, 63, 0
1, 38153, Note_off_c, 1, 75, 0
1, 38153, Note_off_c, 1, 87, 0
1, 38213, Note_on_c, 1, 60, 127
1, 38213, Note_on_c, 1, 72, 127
1, 38213, Note_on_c, 1, 84, 127
1, 38262, Note_on_c, 1, 58, 127
1, 38262, Note_on_c, 1, 70, 127
1, 38262, Note_on_c, 1, 82, 127
1, 38264, Note_off_c, 1, 38, 0
1, 38267, Note_on_c, 1, 54, 127
1, 38267, Note_on_c, 1, 66, 127
1, 38267, Note_on_c, 1, 78, 127
1, 38269, Note_off_c, 1, 60, 0
1, 38269, Note_off_c, 1, 72, 0
1, 38269, Note_off_c, 1, 84, 0
1, 38316, Note_off_c, 1, 58, 0
1, 38316, Note_off_c, 1, 70, 0
1, 38316, Note_off_c, 1, 82, 0
1, 38320, Note_off_c, 1, 54, 0
1, 38320, Note_off_c, 1, 66, 0
1, 38320, Note_off_c, 1, 78, 0
1, 38320, Note_on_c, 1, 57, 127
1, 38320, Note_on_c, 1, 69, 127
1, 38320, Note_on_c, 1, 81, 127
1, 38371, Note_off_c, 1, 57, 0
1, 38371, Note_off_c, 1, 69, 0
1, 38371, Note_off_c, 1, 81, 0
1, 38379, Note_on_c, 1, 19, 127
1, 38379, Note_on_c, 1, 31, 127
1, 38379, Note_on_c, 1, 43, 127
1, 38382, Note_on_c, 1, 58, 127
1, 38382, Note_on_c, 1, 70, 127
1, 38382, Note_on_c, 1, 82, 127
1, 38383, Note_on_c, 1, 55, 127
1, 38383, Note_on_c, 1, 67, 127
1, 38383, Note_on_c, 1, 79, 127
1, 38389, Note_on_c, 1, 91, 127
1, 38436, Note_off_c, 1, 55, 0
1, 38450, Note_on_c, 1, 69, 127
1, 38450, Note_on_c, 1, 81, 127
1, 38450, Note_on_c, 1, 93, 127
1, 38451, Note_off_c, 1, 67, 0
1, 38451, Note_off_c, 1, 79, 0
1, 38451, Note_off_c, 1, 91, 0
1, 38453, Note_off_c, 1, 58, 0
1, 38453, Note_off_c, 1, 70, 0
1, 38453, Note_off_c, 1, 82, 0
1, 38507, Note_off_c, 1, 69, 0
1, 38507, Note_off_c, 1, 81, 0
1, 38507, Note_off_c, 1, 93, 0
1, 38509, Note_on_c, 1, 62, 127
1, 38509, Note_on_c, 1, 74, 127
1, 38509, Note_on_c, 1, 86, 127
1, 38563, Note_on_c, 1, 98, 127
1, 38591, Note_off_c, 1, 98, 0
1, 38599, Note_off_c, 1, 62, 0
1, 38599, Note_off_c, 1, 74, 0
1, 38599, Note_off_c, 1, 86, 0
1, 38617, Note_on_c, 1, 60, 127
1, 38617, Note_on_c, 1, 72, 127
1, 38617, Note_on_c, 1, 84, 127
1, 38618, Note_on_c, 1, 57, 127
1, 38680, Note_on_c, 1, 66, 127
1, 38680, Note_on_c, 1, 78, 127
1, 38680, Note_on_c, 1, 90, 127
1, 38721, Note_off_c, 1, 66, 0
1, 38721, Note_off_c, 1, 78, 0
1, 38721, Note_off_c, 1, 90, 0
1, 38725, Note_off_c, 1, 57, 0
1, 38735, Note_off_c, 1, 60, 0
1, 38735, Note_off_c, 1, 72, 0
1, 38735, Note_off_c, 1, 84, 0
1, 38735, Note_on_c, 1, 64, 127
1, 38735, Note_on_c, 1, 76, 127
1, 38735, Note_on_c, 1, 88, 127
1, 38777, Note_off_c, 1, 19, 0
1, 38777, Note_off_c, 1, 31, 0
1, 38777, Note_off_c, 1, 43, 0
1, 38798, Note_off_c, 1, 64, 0
1, 38798, Note_off_c, 1, 76, 0
1, 38798, Note_off_c, 1, 88, 0
1, 38853, Note_on_c, 1, 69, 127
1, 38853, Note_on_c, 1, 57, 127
1, 38853, Note_on_c, 1, 81, 127
1, 38853, Note_on_c, 1, 93, 127
1, 38854, Note_on_c, 1, 50, 127
1, 38854, Note_on_c, 1, 62, 127
1, 38854, Note_on_c, 1, 74, 127
1, 38860, Note_on_c, 1, 19, 127
1, 38860, Note_on_c, 1, 31, 127
1, 38860, Note_on_c, 1, 43, 127
1, 38911, Note_on_c, 1, 48, 127
1, 38911, Note_on_c, 1, 60, 127
1, 38911, Note_on_c, 1, 72, 127
1, 38913, Note_off_c, 1, 50, 0
1, 38913, Note_off_c, 1, 62, 0
1, 38913, Note_off_c, 1, 74, 0
1, 38919, Note_off_c, 1, 93, 0
1, 38925, Note_on_c, 1, 70, 127
1, 38925, Note_on_c, 1, 82, 127
1, 38925, Note_on_c, 1, 94, 127
1, 38977, Note_off_c, 1, 48, 0
1, 38977, Note_off_c, 1, 60, 0
1, 38977, Note_off_c, 1, 72, 0
1, 38979, Note_off_c, 1, 70, 0
1, 38979, Note_off_c, 1, 82, 0
1, 38979, Note_off_c, 1, 94, 0
1, 38982, Note_off_c, 1, 69, 0
1, 38982, Note_off_c, 1, 57, 0
1, 38982, Note_off_c, 1, 81, 0
1, 39029, Note_on_c, 1, 55, 127
1, 39029, Note_on_c, 1, 67, 127
1, 39040, Note_on_c, 1, 86, 127
1, 39040, Note_on_c, 1, 98, 127
1, 39061, Note_off_c, 1, 55, 0
1, 39061, Note_off_c, 1, 67, 0
1, 39084, Note_off_c, 1, 86, 0
1, 39084, Note_off_c, 1, 98, 0
1, 39102, Note_on_c, 1, 84, 127
1, 39107, Note_on_c, 1, 18, 127
1, 39107, Note_on_c, 1, 30, 127
1, 39107, Note_on_c, 1, 42, 127
1, 39113, Note_off_c, 1, 19, 0
1, 39113, Note_off_c, 1, 31, 0
1, 39113, Note_off_c, 1, 43, 0
1, 39152, Note_on_c, 1, 52, 127
1, 39152, Note_on_c, 1, 64, 127
1, 39152, Note_on_c, 1, 76, 127
1, 39160, Note_on_c, 1, 79, 127
1, 39160, Note_on_c, 1, 91, 127
1, 39194, Note_off_c, 1, 79, 0
1, 39194, Note_off_c, 1, 91, 0
1, 39215, Note_on_c, 1, 54, 127
1, 39215, Note_on_c, 1, 66, 127
1, 39215, Note_on_c, 1, 78, 127
1, 39216, Note_on_c, 1, 90, 127
1, 39217, Note_off_c, 1, 52, 0
1, 39217, Note_off_c, 1, 64, 0
1, 39217, Note_off_c, 1, 76, 0
1, 39272, Note_off_c, 1, 90, 0
1, 39274, Note_off_c, 1, 54, 0
1, 39274, Note_off_c, 1, 66, 0
1, 39274, Note_off_c, 1, 78, 0
1, 39280, Note_off_c, 1, 84, 0
1, 39328, Note_off_c, 1, 18, 0
1, 39328, Note_off_c, 1, 30, 0
1, 39328, Note_off_c, 1, 42, 0
1, 39331, Note_on_c, 1, 55, 127
1, 39331, Note_on_c, 1, 67, 127
1, 39331, Note_on_c, 1, 79, 127
1, 39333, Note_on_c, 1, 58, 127
1, 39333, Note_on_c, 1, 70, 127
1, 39333, Note_on_c, 1, 82, 127
1, 39335, Note_on_c, 1, 62, 127
1, 39335, Note_on_c, 1, 74, 127
1, 39335, Note_on_c, 1, 86, 127
1, 39335, Note_on_c, 1, 22, 127
1, 39335, Note_on_c, 1, 34, 127
1, 39335, Note_on_c, 1, 46, 127
1, 39387, Note_off_c, 1, 62, 0
1, 39387, Note_off_c, 1, 74, 0
1, 39387, Note_off_c, 1, 86, 0
1, 39389, Note_on_c, 1, 54, 127
1, 39389, Note_on_c, 1, 66, 127
1, 39389, Note_on_c, 1, 78, 127
1, 39390, Note_off_c, 1, 55, 0
1, 39390, Note_off_c, 1, 67, 0
1, 39390, Note_off_c, 1, 79, 0
1, 39392, Note_off_c, 1, 58, 0
1, 39392, Note_off_c, 1, 70, 0
1, 39392, Note_off_c, 1, 82, 0
1, 39446, Note_off_c, 1, 54, 0
1, 39446, Note_off_c, 1, 66, 0
1, 39446, Note_off_c, 1, 78, 0
1, 39456, Note_on_c, 1, 98, 127
1, 39511, Note_on_c, 1, 50, 127
1, 39519, Note_off_c, 1, 98, 0
1, 39554, Note_off_c, 1, 50, 0
1, 39563, Note_off_c, 1, 22, 0
1, 39563, Note_off_c, 1, 34, 0
1, 39563, Note_off_c, 1, 46, 0
1, 39568, Note_on_c, 1, 72, 127
1, 39568, Note_on_c, 1, 84, 127
1, 39568, Note_on_c, 1, 96, 127
1, 39570, Note_on_c, 1, 66, 127
1, 39570, Note_on_c, 1, 78, 127
1, 39570, Note_on_c, 1, 90, 127
1, 39572, Note_on_c, 1, 62, 127
1, 39572, Note_on_c, 1, 74, 127
1, 39572, Note_on_c, 1, 86, 127
1, 39572, Note_on_c, 1, 21, 127
1, 39572, Note_on_c, 1, 33, 127
1, 39572, Note_on_c, 1, 45, 127
1, 39625, Note_on_c, 1, 57, 127
1, 39625, Note_on_c, 1, 69, 127
1, 39625, Note_on_c, 1, 81, 127
1, 39631, Note_off_c, 1, 62, 0
1, 39631, Note_off_c, 1, 74, 0
1, 39631, Note_off_c, 1, 86, 0
1, 39659, Note_off_c, 1, 72, 0
1, 39659, Note_off_c, 1, 84, 0
1, 39659, Note_off_c, 1, 96, 0
1, 39673, Note_off_c, 1, 21, 0
1, 39673, Note_off_c, 1, 33, 0
1, 39673, Note_off_c, 1, 45, 0
1, 39683, Note_off_c, 1, 57, 0
1, 39683, Note_off_c, 1, 69, 0
1, 39683, Note_off_c, 1, 81, 0
1, 39683, Note_on_c, 1, 58, 127
1, 39683, Note_on_c, 1, 70, 127
1, 39683, Note_on_c, 1, 82, 127
1, 39686, Note_off_c, 1, 66, 0
1, 39686, Note_off_c, 1, 78, 0
1, 39686, Note_off_c, 1, 90, 0
1, 39689, Note_on_c, 1, 19, 127
1, 39689, Note_on_c, 1, 31, 127
1, 39689, Note_on_c, 1, 43, 127
1, 39690, Note_on_c, 1, 67, 127
1, 39690, Note_on_c, 1, 79, 127
1, 39690, Note_on_c, 1, 91, 127
1, 39691, Note_on_c, 1, 94, 127
1, 39729, Note_off_c, 1, 94, 0
1, 39736, Note_on_c, 1, 55, 127
1, 39740, Note_off_c, 1, 58, 0
1, 39740, Note_off_c, 1, 70, 0
1, 39740, Note_off_c, 1, 82, 0
1, 39784, Note_off_c, 1, 55, 0
1, 39785, Note_off_c, 1, 19, 0
1, 39785, Note_off_c, 1, 31, 0
1, 39785, Note_off_c, 1, 43, 0
1, 39798, Note_on_c, 1, 63, 127
1, 39798, Note_on_c, 1, 75, 127
1, 39798, Note_on_c, 1, 87, 127
1, 39867, Note_off_c, 1, 63, 0
1, 39867, Note_off_c, 1, 75, 0
1, 39867, Note_off_c, 1, 87, 0
1, 39933, Note_on_c, 1, 98, 127
1, 39990, Note_on_c, 1, 99, 127
1, 39998, Note_off_c, 1, 98, 0
1, 40040, Note_off_c, 1, 99, 0
1, 40057, Note_on_c, 1, 54, 127
1, 40116, Note_off_c, 1, 54, 0
1, 40188, Note_off_c, 1, 67, 0
1, 40188, Note_off_c, 1, 79, 0
1, 40188, Note_off_c, 1, 91, 0
1, 40235, Note_on_c, 1, 60, 127
1, 40237, Note_on_c, 1, 93, 127
1, 40267, Note_off_c, 1, 93, 0
1, 40295, Note_off_c, 1, 60, 0
1, 40296, Note_on_c, 1, 62, 127
1, 40296, Note_on_c, 1, 74, 127
1, 40296, Note_on_c, 1, 86, 127
1, 40300, Note_on_c, 1, 70, 127
1, 40300, Note_on_c, 1, 67, 127
1, 40300, Note_on_c, 1, 82, 127
1, 40300, Note_on_c, 1, 79, 127
1, 40300, Note_on_c, 1, 94, 127
1, 40300, Note_on_c, 1, 91, 127
1, 40306, Note_on_c, 1, 19, 127
1, 40306, Note_on_c, 1, 31, 127
1, 40306, Note_on_c, 1, 43, 127
1, 40342, Note_off_c, 1, 70, 0
1, 40342, Note_off_c, 1, 82, 0
1, 40342, Note_off_c, 1, 94, 0
1, 40356, Note_off_c, 1, 67, 0
1, 40356, Note_off_c, 1, 79, 0
1, 40356, Note_off_c, 1, 91, 0
1, 40356, Note_on_c, 1, 63, 127
1, 40356, Note_on_c, 1, 75, 127
1, 40356, Note_on_c, 1, 87, 127
1, 40358, Note_off_c, 1, 62, 0
1, 40358, Note_off_c, 1, 74, 0
1, 40358, Note_off_c, 1, 86, 0
1, 40414, Note_off_c, 1, 63, 0
1, 40414, Note_off_c, 1, 75, 0
1, 40414, Note_off_c, 1, 87, 0
1, 40418, Note_on_c, 1, 77, 127
1, 40418, Note_on_c, 1, 71, 127
1, 40418, Note_on_c, 1, 89, 127
1, 40418, Note_on_c, 1, 83, 127
1, 40418, Note_on_c, 1, 101, 127
1, 40418, Note_on_c, 1, 95, 127
1, 40487, Note_off_c, 1, 77, 0
1, 40487, Note_off_c, 1, 89, 0
1, 40487, Note_off_c, 1, 101, 0
1, 40507, Note_off_c, 1, 71, 0
1, 40507, Note_off_c, 1, 83, 0
1, 40507, Note_off_c, 1, 95, 0
1, 40532, Note_on_c, 1, 55, 127
1, 40536, Note_on_c, 1, 72, 127
1, 40536, Note_on_c, 1, 84, 127
1, 40536, Note_on_c, 1, 96, 127
1, 40537, Note_on_c, 1, 99, 127
1, 40593, Note_on_c, 1, 60, 127
1, 40598, Note_off_c, 1, 55, 0
1, 40613, Note_off_c, 1, 99, 0
1, 40616, Note_off_c, 1, 96, 0
1, 40652, Note_on_c, 1, 59, 127
1, 40655, Note_off_c, 1, 72, 0
1, 40655, Note_off_c, 1, 84, 0
1, 40655, Note_off_c, 1, 60, 0
1, 40657, Note_on_c, 1, 65, 127
1, 40657, Note_on_c, 1, 98, 127
1, 40709, Note_off_c, 1, 59, 0
1, 40725, Note_off_c, 1, 98, 0
1, 40781, Note_off_c, 1, 65, 0
1, 41017, Note_on_c, 1, 103, 127
1, 41080, Note_off_c, 1, 103, 0
1, 41126, Note_on_c, 1, 57, 127
1, 41126, Note_on_c, 1, 69, 127
1, 41126, Note_on_c, 1, 81, 127
1, 41190, Note_off_c, 1, 57, 0
1, 41190, Note_off_c, 1, 69, 0
1, 41190, Note_off_c, 1, 81, 0
1, 41324, Note_on_c, 1, 93, 127
1, 41390, Note_off_c, 1, 93, 0
1, 41750, Note_on_c, 1, 80, 127
1, 41750, Note_on_c, 1, 92, 127
1, 41750, Note_on_c, 1, 104, 127
1, 41812, Note_off_c, 1, 80, 0
1, 41812, Note_off_c, 1, 92, 0
1, 41812, Note_off_c, 1, 104, 0
1, 42349, Note_on_c, 1, 58, 127
1, 42444, Note_off_c, 1, 58, 0
1, 42708, Note_on_c, 1, 66, 127
1, 42708, Note_on_c, 1, 78, 127
1, 42708, Note_on_c, 1, 90, 127
1, 42759, Note_off_c, 1, 66, 0
1, 42759, Note_off_c, 1, 78, 0
1, 42759, Note_off_c, 1, 90, 0
1, 42767, Note_on_c, 1, 64, 127
1, 42767, Note_on_c, 1, 76, 127
1, 42767, Note_on_c, 1, 88, 127
1, 42770, Note_on_c, 1, 73, 127
1, 42770, Note_on_c, 1, 85, 127
1, 42770, Note_on_c, 1, 97, 127
1, 42813, Note_off_c, 1, 73, 0
1, 42813, Note_off_c, 1, 85, 0
1, 42813, Note_off_c, 1, 97, 0
1, 42827, Note_off_c, 1, 64, 0
1, 42827, Note_off_c, 1, 76, 0
1, 42827, Note_off_c, 1, 88, 0
1, 43007, Note_on_c, 1, 102, 127
1, 43052, Note_off_c, 1, 102, 0
1, 43493, Note_on_c, 1, 105, 127
1, 43534, Note_off_c, 1, 105, 0
1, 44197, Note_off_c, 1, 19, 0
1, 44197, Note_off_c, 1, 31, 0
1, 44197, Note_off_c, 1, 43, 0
1, 44197, End_track
0, 0, End_of_file