0, 0, Header, 1, 1, 480
1, 0, Start_track
1, 0, Title_t, "Test"
1, 0, Tempo, 500000
1, 0, Instrument_name_t, "Church Organ"
1, 6, Note_on_c, 1, 57, 127
1, 231, Note_off_c, 1, 57, 0
1, 244, Note_on_c, 1, 61, 127
1, 262, Note_off_c, 1, 61, 0
1, 263, Note_on_c, 1, 59, 127
1, 284, Note_on_c, 1, 61, 127
1, 290, Note_off_c, 1, 59, 0
1, 428, Note_off_c, 1, 61, 0
1, 435, Note_on_c, 1, 62, 127
1, 472, Note_off_c, 1, 62, 0
1, 517, Note_on_c, 1, 64, 127
1, 559, Note_on_c, 1, 62, 127
1, 562, Note_off_c, 1, 64, 0
1, 588, Note_off_c, 1, 62, 0
1, 594, Note_on_c, 1, 64, 127
1, 607, Note_on_c, 1, 62, 127
1, 624, Note_off_c, 1, 62, 0
1, 647, Note_off_c, 1, 64, 0
1, 662, Note_on_c, 1, 61, 127
1, 690, Note_off_c, 1, 61, 0
1, 693, Note_on_c, 1, 62, 127
1, 718, Note_off_c, 1, 62, 0
1, 721, Note_on_c, 1, 64, 127
1, 838, Note_on_c, 1, 52, 127
1, 926, Note_off_c, 1, 52, 0
1, 955, Note_on_c, 1, 54, 127
1, 975, Note_off_c, 1, 64, 0
1, 1018, Note_on_c, 1, 56, 127
1, 1022, Note_off_c, 1, 54, 0
1, 1075, Note_off_c, 1, 56, 0
1, 1078, Note_on_c, 1, 54, 127
1, 1139, Note_on_c, 1, 56, 127
1, 1144, Note_off_c, 1, 54, 0
1, 1193, Note_off_c, 1, 56, 0
1, 1200, Note_on_c, 1, 57, 127
1, 1205, Note_on_c, 1, 64, 127
1, 1231, Note_off_c, 1, 57, 0
1, 1231, Note_on_c, 1, 56, 127
1, 1253, Note_off_c, 1, 56, 0
1, 1338, Note_on_c, 1, 54, 127
1, 1378, Note_off_c, 1, 54, 0
1, 1425, Note_on_c, 1, 66, 127
1, 1427, Note_off_c, 1, 64, 0
1, 1551, Note_on_c, 1, 62, 127
1, 1607, Note_on_c, 1, 61, 127
1, 1609, Note_off_c, 1, 62, 0
1, 1674, Note_off_c, 1, 61, 0
1, 1726, Note_on_c, 1, 59, 127
1, 1794, Note_off_c, 1, 59, 0
1, 1849, Note_on_c, 1, 55, 127
1, 1910, Note_off_c, 1, 55, 0
1, 1971, Note_on_c, 1, 52, 127
1, 2035, Note_off_c, 1, 52, 0
1, 2057, Note_off_c, 1, 66, 0
1, 2095, Note_on_c, 1, 50, 127
1, 2148, Note_off_c, 1, 50, 0
1, 2623, Note_on_c, 1, 49, 127
1, 2678, Note_off_c, 1, 49, 0
1, 2681, Note_on_c, 1, 47, 127
1, 2744, Note_off_c, 1, 47, 0
1, 2800, Note_on_c, 1, 45, 127
1, 2852, Note_off_c, 1, 45, 0
1, 3588, Note_on_c, 1, 57, 127
1, 3590, Note_on_c, 1, 61, 127
1, 3645, Note_on_c, 1, 59, 127
1, 3653, Note_off_c, 1, 57, 0
1, 3703, Note_off_c, 1, 59, 0
1, 3708, Note_on_c, 1, 45, 127
1, 3760, Note_on_c, 1, 56, 127
1, 3765, Note_off_c, 1, 45, 0
1, 3802, Note_off_c, 1, 56, 0
1, 3819, Note_on_c, 1, 49, 127
1, 3892, Note_on_c, 1, 64, 127
1, 3893, Note_off_c, 1, 61, 0
1, 3956, Note_on_c, 1, 62, 127
1, 3961, Note_off_c, 1, 64, 0
1, 4008, Note_on_c, 1, 50, 127
1, 4011, Note_off_c, 1, 49, 0
1, 4017, Note_off_c, 1, 62, 0
1, 4034, Note_off_c, 1, 50, 0
1, 4072, Note_on_c, 1, 52, 127
1, 4104, Note_off_c, 1, 52, 0
1, 4259, Note_on_c, 1, 54, 127
1, 4313, Note_off_c, 1, 54, 0
1, 4431, Note_on_c, 1, 63, 127
1, 4493, Note_off_c, 1, 63, 0
1, 4552, Note_on_c, 1, 66, 127
1, 4613, Note_on_c, 1, 68, 127
1, 4614, Note_off_c, 1, 66, 0
1, 4670, Note_off_c, 1, 68, 0
1, 4784, Note_on_c, 1, 69, 127
1, 4823, Note_off_c, 1, 69, 0
1, 5343, Note_on_c, 1, 71, 127
1, 5393, Note_off_c, 1, 71, 0
1, 5461, Note_on_c, 1, 67, 127
1, 5515, Note_off_c, 1, 67, 0
1, 7188, Note_on_c, 1, 73, 127
1, 7589, Note_off_c, 1, 73, 0
1, 7594, Note_on_c, 1, 55, 127
1, 7616, Note_off_c, 1, 55, 0
1, 7641, Note_on_c, 1, 74, 127
1, 7671, Note_off_c, 1, 74, 0
1, 7672, Note_on_c, 1, 76, 127
1, 7709, Note_off_c, 1, 76, 0
1, 8461, Note_on_c, 1, 47, 127
1, 8526, Note_off_c, 1, 47, 0
1, 8646, Note_on_c, 1, 78, 127
1, 9053, Note_on_c, 1, 43, 127
1, 9065, Note_off_c, 1, 78, 0
1, 9112, Note_off_c, 1, 43, 0
1, 9113, Note_on_c, 1, 42, 127
1, 9170, Note_off_c, 1, 42, 0
1, 9174, Note_on_c, 1, 40, 127
1, 9240, Note_off_c, 1, 40, 0
1, 9291, Note_on_c, 1, 79, 127
1, 9293, Note_on_c, 1, 38, 127
1, 9336, Note_off_c, 1, 79, 0
1, 9347, Note_off_c, 1, 38, 0
1, 9648, Note_on_c, 1, 44, 127
1, 9707, Note_off_c, 1, 44, 0
1, 10257, Note_on_c, 1, 65, 127
1, 10299, Note_off_c, 1, 65, 0
1, 12213, Note_on_c, 1, 45, 127
1, 12215, Note_on_c, 1, 69, 127
1, 12272, Note_on_c, 1, 66, 127
1, 12333, Note_off_c, 1, 66, 0
1, 12334, Note_on_c, 1, 64, 127
1, 12369, Note_off_c, 1, 64, 0
1, 12390, Note_on_c, 1, 62, 127
1, 12416, Note_off_c, 1, 62, 0
1, 12441, Note_off_c, 1, 45, 0
1, 12454, Note_on_c, 1, 61, 127
1, 12502, Note_on_c, 1, 47, 127
1, 12557, Note_off_c, 1, 61, 0
1, 12566, Note_off_c, 1, 47, 0
1, 12620, Note_on_c, 1, 43, 127
1, 12650, Note_off_c, 1, 43, 0
1, 12685, Note_on_c, 1, 42, 127
1, 12696, Note_on_c, 1, 57, 127
1, 12746, Note_off_c, 1, 42, 0
1, 12748, Note_on_c, 1, 40, 127
1, 12791, Note_off_c, 1, 57, 0
1, 12804, Note_off_c, 1, 40, 0
1, 12866, Note_on_c, 1, 38, 127
1, 12896, Note_off_c, 1, 38, 0
1, 13357, Note_on_c, 1, 59, 127
1, 13417, Note_off_c, 1, 59, 0
1, 13587, Note_off_c, 1, 69, 0
1, 13597, Note_on_c, 1, 56, 127
1, 13650, Note_off_c, 1, 56, 0
1, 13653, Note_on_c, 1, 57, 127
1, 13699, Note_off_c, 1, 57, 0
1, 13728, Note_on_c, 1, 50, 127
1, 13735, Note_on_c, 1, 56, 127
1, 13787, Note_off_c, 1, 50, 0
1, 13788, Note_on_c, 1, 49, 127
1, 13794, Note_on_c, 1, 57, 127
1, 13796, Note_off_c, 1, 56, 0
1, 13848, Note_on_c, 1, 47, 127
1, 13851, Note_off_c, 1, 49, 0
1, 13853, Note_on_c, 1, 59, 127
1, 13856, Note_off_c, 1, 57, 0
1, 13891, Note_off_c, 1, 47, 0
1, 13897, Note_off_c, 1, 59, 0
1, 13899, Note_on_c, 1, 45, 127
1, 13911, Note_on_c, 1, 61, 127
1, 13967, Note_off_c, 1, 61, 0
1, 13968, Note_on_c, 1, 62, 127
1, 14020, Note_off_c, 1, 62, 0
1, 14042, Note_off_c, 1, 45, 0
1, 14078, Note_on_c, 1, 62, 127
1, 14123, Note_off_c, 1, 62, 0
1, 14136, Note_on_c, 1, 64, 127
1, 14170, Note_on_c, 1, 62, 127
1, 14176, Note_off_c, 1, 64, 0
1, 14203, Note_off_c, 1, 62, 0
1, 14204, Note_on_c, 1, 64, 127
1, 14225, Note_on_c, 1, 62, 127
1, 14231, Note_off_c, 1, 64, 0
1, 14245, Note_off_c, 1, 62, 0
1, 14250, Note_on_c, 1, 64, 127
1, 14266, Note_on_c, 1, 62, 127
1, 14304, Note_off_c, 1, 64, 0
1, 14310, Note_on_c, 1, 61, 127
1, 14313, Note_off_c, 1, 62, 0
1, 14342, Note_off_c, 1, 61, 0
1, 14388, Note_on_c, 1, 64, 127
1, 14500, Note_on_c, 1, 52, 127
1, 14559, Note_off_c, 1, 52, 0
1, 14608, Note_off_c, 1, 64, 0
1, 14619, Note_on_c, 1, 54, 127
1, 14682, Note_on_c, 1, 56, 127
1, 14683, Note_off_c, 1, 54, 0
1, 14735, Note_off_c, 1, 56, 0
1, 14736, Note_on_c, 1, 54, 127
1, 14795, Note_on_c, 1, 56, 127
1, 14803, Note_off_c, 1, 54, 0
1, 14843, Note_off_c, 1, 56, 0
1, 14852, Note_on_c, 1, 57, 127
1, 14852, Note_on_c, 1, 64, 127
1, 14892, Note_on_c, 1, 56, 127
1, 14894, Note_off_c, 1, 57, 0
1, 14920, Note_off_c, 1, 56, 0
1, 15020, Note_on_c, 1, 54, 127
1, 15060, Note_off_c, 1, 54, 0
1, 15104, Note_on_c, 1, 66, 127
1, 15123, Note_off_c, 1, 64, 0
1, 15251, Note_on_c, 1, 62, 127
1, 15307, Note_on_c, 1, 61, 127
1, 15311, Note_off_c, 1, 62, 0
1, 15373, Note_off_c, 1, 61, 0
1, 15429, Note_on_c, 1, 59, 127
1, 15494, Note_off_c, 1, 59, 0
1, 15546, Note_on_c, 1, 55, 127
1, 15611, Note_off_c, 1, 55, 0
1, 15674, Note_on_c, 1, 52, 127
1, 15735, Note_off_c, 1, 52, 0
1, 15790, Note_on_c, 1, 50, 127
1, 15814, Note_off_c, 1, 66, 0
1, 15848, Note_off_c, 1, 50, 0
1, 16301, Note_on_c, 1, 49, 127
1, 16357, Note_off_c, 1, 49, 0
1, 16358, Note_on_c, 1, 47, 127
1, 16419, Note_off_c, 1, 47, 0
1, 16473, Note_on_c, 1, 45, 127
1, 16531, Note_off_c, 1, 45, 0
1, 18103, Note_on_c, 1, 63, 127
1, 18171, Note_off_c, 1, 63, 0
1, 18289, Note_on_c, 1, 68, 127
1, 18345, Note_off_c, 1, 68, 0
1, 18460, Note_on_c, 1, 69, 127
1, 18506, Note_off_c, 1, 69, 0
1, 19018, Note_on_c, 1, 71, 127
1, 19071, Note_off_c, 1, 71, 0
1, 19136, Note_on_c, 1, 67, 127
1, 19192, Note_off_c, 1, 67, 0
1, 20860, Note_on_c, 1, 73, 127
1, 21145, Note_off_c, 1, 73, 0
1, 21316, Note_on_c, 1, 74, 127
1, 21348, Note_off_c, 1, 74, 0
1, 21349, Note_on_c, 1, 76, 127
1, 21382, Note_off_c, 1, 76, 0
1, 22073, Note_on_c, 1, 49, 127
1, 22081, Note_on_c, 1, 76, 127
1, 22082, Note_on_c, 1, 69, 127
1, 22137, Note_on_c, 1, 47, 127
1, 22138, Note_off_c, 1, 49, 0
1, 22207, Note_off_c, 1, 47, 0
1, 22263, Note_on_c, 1, 45, 127
1, 22316, Note_on_c, 1, 78, 127
1, 22317, Note_off_c, 1, 76, 0
1, 22321, Note_on_c, 1, 50, 127
1, 22328, Note_off_c, 1, 69, 0
1, 22330, Note_off_c, 1, 45, 0
1, 22438, Note_on_c, 1, 71, 127
1, 22499, Note_off_c, 1, 71, 0
1, 22499, Note_on_c, 1, 73, 127
1, 22543, Note_off_c, 1, 73, 0
1, 22559, Note_on_c, 1, 74, 127
1, 22584, Note_off_c, 1, 50, 0
1, 22602, Note_off_c, 1, 74, 0
1, 22726, Note_off_c, 1, 78, 0
1, 22735, Note_on_c, 1, 43, 127
1, 22787, Note_on_c, 1, 42, 127
1, 22790, Note_off_c, 1, 43, 0
1, 22840, Note_off_c, 1, 42, 0
1, 22844, Note_on_c, 1, 40, 127
1, 22909, Note_off_c, 1, 40, 0
1, 22959, Note_on_c, 1, 79, 127
1, 22964, Note_on_c, 1, 38, 127
1, 22985, Note_off_c, 1, 79, 0
1, 23005, Note_off_c, 1, 38, 0
1, 23306, Note_on_c, 1, 44, 127
1, 23368, Note_off_c, 1, 44, 0
1, 23498, Note_on_c, 1, 68, 127
1, 23662, Note_on_c, 1, 52, 127
1, 23715, Note_off_c, 1, 52, 0
1, 23749, Note_off_c, 1, 68, 0
1, 23875, Note_on_c, 1, 66, 127
1, 23925, Note_off_c, 1, 66, 0
1, 23928, Note_on_c, 1, 65, 127
1, 23956, Note_off_c, 1, 65, 0
1, 24038, Note_on_c, 1, 61, 127
1, 24098, Note_off_c, 1, 61, 0
1, 24098, Note_on_c, 1, 59, 127
1, 24109, Note_on_c, 1, 62, 127
1, 24157, Note_on_c, 1, 57, 127
1, 24158, Note_off_c, 1, 59, 0
1, 24204, Note_off_c, 1, 57, 0
1, 24215, Note_on_c, 1, 56, 127
1, 24279, Note_off_c, 1, 56, 0
1, 24280, Note_on_c, 1, 54, 127
1, 24306, Note_off_c, 1, 62, 0
1, 24345, Note_off_c, 1, 54, 0
1, 24349, Note_on_c, 1, 64, 127
1, 24479, Note_off_c, 1, 64, 0
1, 25889, Note_on_c, 1, 45, 127
1, 25891, Note_on_c, 1, 69, 127
1, 25955, Note_on_c, 1, 66, 127
1, 26018, Note_off_c, 1, 66, 0
1, 26019, Note_on_c, 1, 64, 127
1, 26069, Note_off_c, 1, 64, 0
1, 26071, Note_on_c, 1, 62, 127
1, 26100, Note_off_c, 1, 62, 0
1, 26138, Note_on_c, 1, 61, 127
1, 26144, Note_off_c, 1, 45, 0
1, 26188, Note_on_c, 1, 47, 127
1, 26211, Note_off_c, 1, 61, 0
1, 26252, Note_off_c, 1, 47, 0
1, 26311, Note_on_c, 1, 43, 127
1, 26342, Note_off_c, 1, 43, 0
1, 26374, Note_on_c, 1, 42, 127
1, 26384, Note_on_c, 1, 57, 127
1, 26434, Note_off_c, 1, 42, 0
1, 26437, Note_on_c, 1, 40, 127
1, 26499, Note_off_c, 1, 40, 0
1, 26502, Note_off_c, 1, 57, 0
1, 26559, Note_on_c, 1, 38, 127
1, 26603, Note_off_c, 1, 38, 0
1, 27039, Note_on_c, 1, 59, 127
1, 27109, Note_off_c, 1, 59, 0
1, 27110, Note_off_c, 1, 69, 0
1, 27278, Note_on_c, 1, 56, 127
1, 27335, Note_off_c, 1, 56, 0
1, 27416, Note_on_c, 1, 64, 127
1, 27469, Note_on_c, 1, 45, 127
1, 27470, Note_on_c, 1, 66, 127
1, 27473, Note_off_c, 1, 64, 0
1, 27529, Note_on_c, 1, 68, 127
1, 27533, Note_off_c, 1, 45, 0
1, 27536, Note_off_c, 1, 66, 0
1, 27589, Note_on_c, 1, 69, 127
1, 27592, Note_off_c, 1, 68, 0
1, 27651, Note_off_c, 1, 69, 0
1, 27767, Note_on_c, 1, 71, 127
1, 27819, Note_off_c, 1, 71, 0
1, 27828, Note_on_c, 1, 73, 127
1, 27888, Note_off_c, 1, 73, 0
1, 27888, Note_on_c, 1, 71, 127
1, 27947, Note_on_c, 1, 74, 127
1, 27955, Note_off_c, 1, 71, 0
1, 28013, Note_off_c, 1, 74, 0
1, 28068, Note_on_c, 1, 73, 127
1, 28135, Note_on_c, 1, 52, 127
1, 28193, Note_on_c, 1, 54, 127
1, 28203, Note_off_c, 1, 52, 0
1, 28249, Note_on_c, 1, 56, 127
1, 28254, Note_off_c, 1, 54, 0
1, 28308, Note_on_c, 1, 57, 127
1, 28313, Note_off_c, 1, 56, 0
1, 28367, Note_on_c, 1, 61, 127
1, 28425, Note_on_c, 1, 63, 127
1, 28434, Note_off_c, 1, 61, 0
1, 28479, Note_off_c, 1, 63, 0
1, 28482, Note_on_c, 1, 64, 127
1, 28504, Note_off_c, 1, 73, 0
1, 28539, Note_off_c, 1, 64, 0
1, 28543, Note_on_c, 1, 66, 127
1, 28607, Note_off_c, 1, 66, 0
1, 28609, Note_on_c, 1, 68, 127
1, 28666, Note_off_c, 1, 68, 0
1, 28722, Note_on_c, 1, 69, 127
1, 28778, Note_off_c, 1, 69, 0
1, 28784, Note_on_c, 1, 71, 127
1, 28848, Note_on_c, 1, 59, 127
1, 28909, Note_off_c, 1, 59, 0
1, 28998, Note_off_c, 1, 57, 0
1, 29078, Note_on_c, 1, 44, 127
1, 29135, Note_off_c, 1, 44, 0
1, 29138, Note_on_c, 1, 45, 127
1, 29196, Note_off_c, 1, 45, 0
1, 29197, Note_on_c, 1, 47, 127
1, 29253, Note_off_c, 1, 71, 0
1, 29253, Note_on_c, 1, 49, 127
1, 29255, Note_off_c, 1, 47, 0
1, 29313, Note_on_c, 1, 51, 127
1, 29315, Note_off_c, 1, 49, 0
1, 29373, Note_off_c, 1, 51, 0
1, 29492, Note_on_c, 1, 42, 127
1, 29572, Note_off_c, 1, 42, 0
1, 30297, Note_on_c, 1, 62, 127
1, 30356, Note_off_c, 1, 62, 0
1, 30704, Note_on_c, 1, 76, 127
1, 30764, Note_on_c, 1, 50, 127
1, 30821, Note_off_c, 1, 50, 0
1, 30898, Note_off_c, 1, 76, 0
1, 31007, Note_on_c, 1, 74, 127
1, 31070, Note_off_c, 1, 74, 0
1, 32154, Note_on_c, 1, 78, 127
1, 32381, Note_on_c, 1, 43, 127
1, 32383, Note_off_c, 1, 78, 0
1, 32625, Note_off_c, 1, 43, 0
1, 32684, Note_on_c, 1, 79, 127
1, 32749, Note_off_c, 1, 79, 0
1, 32858, Note_on_c, 1, 55, 127
1, 32914, Note_off_c, 1, 55, 0
1, 33102, Note_on_c, 1, 53, 127
1, 33176, Note_off_c, 1, 53, 0
1, 33345, Note_on_c, 1, 65, 127
1, 33397, Note_off_c, 1, 65, 0
1, 34789, Note_on_c, 1, 40, 127
1, 34839, Note_off_c, 1, 40, 0
1, 34909, Note_on_c, 1, 70, 127
1, 35029, Note_off_c, 1, 70, 0
1, 38876, Note_on_c, 1, 57, 127
1, 38882, Note_on_c, 1, 73, 127
1, 38939, Note_on_c, 1, 68, 127
1, 38976, Note_off_c, 1, 68, 0
1, 39005, Note_on_c, 1, 69, 127
1, 39064, Note_on_c, 1, 64, 127
1, 39112, Note_off_c, 1, 64, 0
1, 39122, Note_on_c, 1, 61, 127
1, 39124, Note_off_c, 1, 57, 0
1, 39133, Note_off_c, 1, 69, 0
1, 39174, Note_off_c, 1, 61, 0
1, 39294, Note_on_c, 1, 56, 127
1, 39335, Note_off_c, 1, 56, 0
1, 39414, Note_on_c, 1, 52, 127
1, 39473, Note_on_c, 1, 49, 127
1, 39481, Note_off_c, 1, 52, 0
1, 39496, Note_off_c, 1, 73, 0
1, 39535, Note_off_c, 1, 49, 0
1, 39601, Note_on_c, 1, 45, 127
1, 39798, Note_off_c, 1, 45, 0
1, 39890, Note_on_c, 1, 54, 127
1, 39944, Note_on_c, 1, 59, 127
1, 39953, Note_off_c, 1, 54, 0
1, 39998, Note_off_c, 1, 59, 0
1, 40077, Note_on_c, 1, 63, 127
1, 40136, Note_on_c, 1, 66, 127
1, 40188, Note_on_c, 1, 47, 127
1, 40194, Note_on_c, 1, 71, 127
1, 40197, Note_off_c, 1, 66, 0
1, 40254, Note_off_c, 1, 63, 0
1, 40255, Note_off_c, 1, 71, 0
1, 40262, Note_off_c, 1, 47, 0
1, 40420, Note_on_c, 1, 40, 127
1, 40432, Note_on_c, 1, 76, 127
1, 40468, Note_off_c, 1, 40, 0
1, 40488, Note_on_c, 1, 75, 127
1, 40489, Note_off_c, 1, 76, 0
1, 40556, Note_off_c, 1, 75, 0
1, 40722, Note_on_c, 1, 60, 127
1, 40739, Note_off_c, 1, 60, 0
1, 40914, Note_on_c, 1, 81, 127
1, 40968, Note_on_c, 1, 80, 127
1, 40972, Note_off_c, 1, 81, 0
1, 41018, Note_off_c, 1, 80, 0
1, 41209, Note_on_c, 1, 58, 127
1, 41267, Note_off_c, 1, 58, 0
1, 41927, Note_on_c, 1, 72, 127
1, 41947, Note_off_c, 1, 72, 0
1, 42706, Note_on_c, 1, 50, 127
1, 42779, Note_on_c, 1, 62, 127
1, 42815, Note_off_c, 1, 62, 0
1, 42825, Note_off_c, 1, 50, 0
1, 44268, Note_on_c, 1, 74, 127
1, 44329, Note_off_c, 1, 74, 0
1, 45417, Note_on_c, 1, 64, 127
1, 45425, Note_on_c, 1, 59, 127
1, 45477, Note_on_c, 1, 57, 127
1, 45479, Note_on_c, 1, 73, 127
1, 45482, Note_off_c, 1, 59, 0
1, 45483, Note_off_c, 1, 64, 0
1, 45530, Note_on_c, 1, 56, 127
1, 45532, Note_off_c, 1, 57, 0
1, 45540, Note_off_c, 1, 73, 0
1, 45541, Note_on_c, 1, 71, 127
1, 45590, Note_off_c, 1, 56, 0
1, 45592, Note_on_c, 1, 54, 127
1, 45605, Note_off_c, 1, 71, 0
1, 45642, Note_off_c, 1, 54, 0
1, 45664, Note_on_c, 1, 62, 127
1, 45707, Note_off_c, 1, 62, 0
1, 45780, Note_on_c, 1, 69, 127
1, 45832, Note_on_c, 1, 52, 127
1, 45848, Note_off_c, 1, 69, 0
1, 45871, Note_off_c, 1, 52, 0
1, 45899, Note_on_c, 1, 61, 127
1, 45927, Note_off_c, 1, 61, 0
1, 46017, Note_on_c, 1, 68, 127
1, 46063, Note_on_c, 1, 51, 127
1, 46072, Note_off_c, 1, 68, 0
1, 46150, Note_off_c, 1, 51, 0
1, 46188, Note_on_c, 1, 47, 127
1, 46255, Note_on_c, 1, 66, 127
1, 46263, Note_off_c, 1, 47, 0
1, 46314, Note_off_c, 1, 66, 0
1, 46557, Note_on_c, 1, 76, 127
1, 46609, Note_on_c, 1, 56, 127
1, 46616, Note_off_c, 1, 76, 0
1, 46668, Note_off_c, 1, 56, 0
1, 46669, Note_on_c, 1, 61, 127
1, 46681, Note_on_c, 1, 64, 127
1, 46727, Note_off_c, 1, 61, 0
1, 46729, Note_on_c, 1, 59, 127
1, 46753, Note_off_c, 1, 64, 0
1, 46790, Note_off_c, 1, 59, 0
1, 46810, Note_on_c, 1, 66, 127
1, 46853, Note_on_c, 1, 50, 127
1, 46862, Note_off_c, 1, 66, 0
1, 46868, Note_on_c, 1, 69, 127
1, 46891, Note_off_c, 1, 69, 0
1, 46917, Note_off_c, 1, 50, 0
1, 46928, Note_on_c, 1, 74, 127
1, 46975, Note_on_c, 1, 57, 127
1, 47001, Note_off_c, 1, 74, 0
1, 47034, Note_off_c, 1, 57, 0
1, 47098, Note_on_c, 1, 49, 127
1, 47111, Note_on_c, 1, 68, 127
1, 47135, Note_off_c, 1, 68, 0
1, 47158, Note_off_c, 1, 49, 0
1, 47160, Note_on_c, 1, 57, 127
1, 47173, Note_on_c, 1, 73, 127
1, 47222, Note_on_c, 1, 56, 127
1, 47223, Note_off_c, 1, 57, 0
1, 47239, Note_off_c, 1, 73, 0
1, 47283, Note_off_c, 1, 56, 0
1, 47290, Note_on_c, 1, 62, 127
1, 47341, Note_on_c, 1, 47, 127
1, 47348, Note_on_c, 1, 66, 127
1, 47357, Note_off_c, 1, 62, 0
1, 47373, Note_off_c, 1, 66, 0
1, 47398, Note_off_c, 1, 47, 0
1, 47401, Note_on_c, 1, 56, 127
1, 47413, Note_on_c, 1, 71, 127
1, 47463, Note_off_c, 1, 56, 0
1, 47463, Note_on_c, 1, 54, 127
1, 47464, Note_off_c, 1, 71, 0
1, 47522, Note_off_c, 1, 54, 0
1, 47528, Note_on_c, 1, 61, 127
1, 47577, Note_on_c, 1, 45, 127
1, 47586, Note_on_c, 1, 64, 127
1, 47593, Note_off_c, 1, 61, 0
1, 47638, Note_off_c, 1, 45, 0
1, 47644, Note_on_c, 1, 69, 127
1, 47645, Note_off_c, 1, 64, 0
1, 47696, Note_on_c, 1, 52, 127
1, 47698, Note_off_c, 1, 69, 0
1, 47756, Note_off_c, 1, 52, 0
1, 47763, Note_on_c, 1, 62, 127
1, 47815, Note_on_c, 1, 44, 127
1, 47819, Note_on_c, 1, 59, 127
1, 47821, Note_off_c, 1, 62, 0
1, 47876, Note_off_c, 1, 44, 0
1, 47879, Note_off_c, 1, 59, 0
1, 47881, Note_on_c, 1, 68, 127
1, 47933, Note_on_c, 1, 50, 127
1, 47937, Note_off_c, 1, 68, 0
1, 47989, Note_off_c, 1, 50, 0
1, 48051, Note_on_c, 1, 42, 127
1, 48059, Note_on_c, 1, 57, 127
1, 48113, Note_off_c, 1, 42, 0
1, 48116, Note_off_c, 1, 57, 0
1, 48118, Note_on_c, 1, 66, 127
1, 48172, Note_on_c, 1, 49, 127
1, 48173, Note_off_c, 1, 66, 0
1, 48227, Note_off_c, 1, 49, 0
1, 48287, Note_on_c, 1, 40, 127
1, 48350, Note_off_c, 1, 40, 0
1, 48411, Note_on_c, 1, 47, 127
1, 48468, Note_off_c, 1, 47, 0
1, 49002, Note_on_c, 1, 45, 127
1, 49012, Note_on_c, 1, 64, 127
1, 49059, Note_on_c, 1, 49, 127
1, 49063, Note_off_c, 1, 64, 0
1, 49065, Note_off_c, 1, 45, 0
1, 49069, Note_on_c, 1, 69, 127
1, 49118, Note_off_c, 1, 49, 0
1, 49118, Note_on_c, 1, 52, 127
1, 49127, Note_on_c, 1, 71, 127
1, 49133, Note_off_c, 1, 69, 0
1, 49177, Note_off_c, 1, 52, 0
1, 49179, Note_on_c, 1, 57, 127
1, 49185, Note_on_c, 1, 73, 127
1, 49186, Note_off_c, 1, 71, 0
1, 49236, Note_on_c, 1, 54, 127
1, 49241, Note_off_c, 1, 57, 0
1, 49242, Note_off_c, 1, 73, 0
1, 49295, Note_off_c, 1, 54, 0
1, 49297, Note_on_c, 1, 59, 127
1, 49303, Note_on_c, 1, 74, 127
1, 49354, Note_off_c, 1, 59, 0
1, 49362, Note_off_c, 1, 74, 0
1, 49471, Note_on_c, 1, 56, 127
1, 49539, Note_off_c, 1, 56, 0
1, 49547, Note_on_c, 1, 76, 127
1, 49600, Note_off_c, 1, 76, 0
1, 49659, Note_on_c, 1, 57, 127
1, 49667, Note_on_c, 1, 73, 127
1, 49730, Note_on_c, 1, 68, 127
1, 49789, Note_off_c, 1, 68, 0
1, 49792, Note_on_c, 1, 69, 127
1, 49848, Note_on_c, 1, 64, 127
1, 49899, Note_off_c, 1, 57, 0
1, 49904, Note_off_c, 1, 64, 0
1, 49908, Note_on_c, 1, 61, 127
1, 49971, Note_off_c, 1, 61, 0
1, 50086, Note_on_c, 1, 56, 127
1, 50145, Note_off_c, 1, 56, 0
1, 50158, Note_off_c, 1, 69, 0
1, 50160, Note_off_c, 1, 73, 0
1, 50219, Note_on_c, 1, 52, 127
1, 50279, Note_on_c, 1, 49, 127
1, 50288, Note_off_c, 1, 52, 0
1, 50341, Note_off_c, 1, 49, 0
1, 50402, Note_on_c, 1, 45, 127
1, 50618, Note_off_c, 1, 45, 0
1, 50694, Note_on_c, 1, 54, 127
1, 50753, Note_off_c, 1, 54, 0
1, 50754, Note_on_c, 1, 59, 127
1, 50810, Note_off_c, 1, 59, 0
1, 50875, Note_on_c, 1, 63, 127
1, 50936, Note_on_c, 1, 66, 127
1, 50989, Note_on_c, 1, 47, 127
1, 50991, Note_on_c, 1, 71, 127
1, 50992, Note_off_c, 1, 66, 0
1, 51055, Note_off_c, 1, 63, 0
1, 51055, Note_off_c, 1, 71, 0
1, 51059, Note_off_c, 1, 47, 0
1, 51222, Note_on_c, 1, 40, 127
1, 51234, Note_on_c, 1, 76, 127
1, 51290, Note_off_c, 1, 40, 0
1, 51290, Note_on_c, 1, 75, 127
1, 51291, Note_off_c, 1, 76, 0
1, 51310, Note_off_c, 1, 75, 0
1, 51521, Note_on_c, 1, 60, 127
1, 51540, Note_off_c, 1, 60, 0
1, 51715, Note_on_c, 1, 81, 127
1, 51773, Note_on_c, 1, 80, 127
1, 51776, Note_off_c, 1, 81, 0
1, 51833, Note_off_c, 1, 80, 0
1, 52009, Note_on_c, 1, 58, 127
1, 52066, Note_off_c, 1, 58, 0
1, 52729, Note_on_c, 1, 72, 127
1, 52753, Note_off_c, 1, 72, 0
1, 53506, Note_on_c, 1, 50, 127
1, 53582, Note_on_c, 1, 62, 127
1, 53617, Note_off_c, 1, 62, 0
1, 53631, Note_off_c, 1, 50, 0
1, 55074, Note_on_c, 1, 74, 127
1, 55133, Note_off_c, 1, 74, 0
1, 55433, Note_on_c, 1, 49, 127
1, 55434, Note_on_c, 1, 57, 127
1, 55438, Note_on_c, 1, 81, 127
1, 55494, Note_on_c, 1, 45, 127
1, 55499, Note_off_c, 1, 49, 0
1, 55516, Note_off_c, 1, 45, 0
1, 55551, Note_on_c, 1, 54, 127
1, 55605, Note_off_c, 1, 54, 0
1, 55606, Note_on_c, 1, 52, 127
1, 55665, Note_off_c, 1, 81, 0
1, 55676, Note_off_c, 1, 52, 0
1, 55738, Note_on_c, 1, 69, 127
1, 55799, Note_on_c, 1, 74, 127
1, 55806, Note_off_c, 1, 69, 0
1, 55835, Note_off_c, 1, 74, 0
1, 55855, Note_on_c, 1, 73, 127
1, 55872, Note_off_c, 1, 73, 0
1, 55936, Note_off_c, 1, 57, 0
1, 55974, Note_on_c, 1, 50, 127
1, 56037, Note_off_c, 1, 50, 0
1, 56093, Note_on_c, 1, 56, 127
1, 56123, Note_off_c, 1, 56, 0
1, 56213, Note_on_c, 1, 59, 127
1, 56220, Note_on_c, 1, 64, 127
1, 56270, Note_on_c, 1, 57, 127
1, 56276, Note_off_c, 1, 59, 0
1, 56280, Note_on_c, 1, 73, 127
1, 56286, Note_off_c, 1, 64, 0
1, 56307, Note_off_c, 1, 73, 0
1, 56326, Note_on_c, 1, 56, 127
1, 56327, Note_off_c, 1, 57, 0
1, 56339, Note_on_c, 1, 71, 127
1, 56361, Note_off_c, 1, 71, 0
1, 56390, Note_on_c, 1, 54, 127
1, 56391, Note_off_c, 1, 56, 0
1, 56443, Note_off_c, 1, 54, 0
1, 56463, Note_on_c, 1, 62, 127
1, 56517, Note_off_c, 1, 62, 0
1, 56576, Note_on_c, 1, 69, 127
1, 56602, Note_off_c, 1, 69, 0
1, 56625, Note_on_c, 1, 52, 127
1, 56660, Note_off_c, 1, 52, 0
1, 56695, Note_on_c, 1, 61, 127
1, 56757, Note_off_c, 1, 61, 0
1, 56796, Note_on_c, 1, 52, 127
1, 56809, Note_on_c, 1, 68, 127
1, 56833, Note_off_c, 1, 68, 0
1, 56853, Note_off_c, 1, 52, 0
1, 56858, Note_on_c, 1, 51, 127
1, 56869, Note_on_c, 1, 69, 127
1, 56928, Note_off_c, 1, 69, 0
1, 56930, Note_on_c, 1, 59, 127
1, 56934, Note_off_c, 1, 51, 0
1, 56978, Note_off_c, 1, 59, 0
1, 56982, Note_on_c, 1, 47, 127
1, 56988, Note_on_c, 1, 68, 127
1, 57044, Note_off_c, 1, 68, 0
1, 57046, Note_on_c, 1, 66, 127
1, 57048, Note_off_c, 1, 47, 0
1, 57102, Note_off_c, 1, 66, 0
1, 57103, Note_on_c, 1, 52, 127
1, 57109, Note_on_c, 1, 68, 127
1, 57152, Note_off_c, 1, 68, 0
1, 57180, Note_on_c, 1, 64, 127
1, 57235, Note_off_c, 1, 64, 0
1, 57293, Note_on_c, 1, 71, 127
1, 57314, Note_off_c, 1, 71, 0
1, 57351, Note_on_c, 1, 76, 127
1, 57380, Note_off_c, 1, 52, 0
1, 57403, Note_on_c, 1, 56, 127
1, 57436, Note_off_c, 1, 76, 0
1, 57461, Note_off_c, 1, 56, 0
1, 57465, Note_on_c, 1, 61, 127
1, 57472, Note_on_c, 1, 64, 127
1, 57521, Note_off_c, 1, 61, 0
1, 57523, Note_on_c, 1, 59, 127
1, 57528, Note_off_c, 1, 64, 0
1, 57584, Note_on_c, 1, 66, 127
1, 57585, Note_off_c, 1, 59, 0
1, 57641, Note_off_c, 1, 66, 0
1, 57641, Note_on_c, 1, 50, 127
1, 57646, Note_on_c, 1, 69, 127
1, 57669, Note_off_c, 1, 69, 0
1, 57676, Note_off_c, 1, 50, 0
1, 57703, Note_on_c, 1, 59, 127
1, 57710, Note_on_c, 1, 74, 127
1, 57764, Note_on_c, 1, 57, 127
1, 57767, Note_off_c, 1, 59, 0
1, 57767, Note_off_c, 1, 74, 0
1, 57819, Note_off_c, 1, 57, 0
1, 57821, Note_on_c, 1, 59, 127
1, 57835, Note_on_c, 1, 64, 127
1, 57867, Note_off_c, 1, 59, 0
1, 57888, Note_on_c, 1, 49, 127
1, 57897, Note_on_c, 1, 68, 127
1, 57899, Note_off_c, 1, 64, 0
1, 57918, Note_off_c, 1, 68, 0
1, 57925, Note_off_c, 1, 49, 0
1, 57948, Note_on_c, 1, 57, 127
1, 57962, Note_on_c, 1, 73, 127
1, 58012, Note_on_c, 1, 56, 127
1, 58015, Note_off_c, 1, 57, 0
1, 58044, Note_off_c, 1, 73, 0
1, 58068, Note_off_c, 1, 56, 0
1, 58069, Note_on_c, 1, 57, 127
1, 58083, Note_on_c, 1, 62, 127
1, 58126, Note_off_c, 1, 57, 0
1, 58132, Note_on_c, 1, 47, 127
1, 58139, Note_on_c, 1, 66, 127
1, 58147, Note_off_c, 1, 62, 0
1, 58166, Note_off_c, 1, 66, 0
1, 58171, Note_off_c, 1, 47, 0
1, 58192, Note_on_c, 1, 56, 127
1, 58204, Note_on_c, 1, 71, 127
1, 58254, Note_off_c, 1, 56, 0
1, 58256, Note_on_c, 1, 54, 127
1, 58269, Note_off_c, 1, 71, 0
1, 58314, Note_off_c, 1, 54, 0
1, 58329, Note_on_c, 1, 61, 127
1, 58373, Note_on_c, 1, 45, 127
1, 58390, Note_on_c, 1, 64, 127
1, 58397, Note_off_c, 1, 61, 0
1, 58435, Note_off_c, 1, 45, 0
1, 58447, Note_on_c, 1, 69, 127
1, 58448, Note_off_c, 1, 64, 0
1, 58498, Note_on_c, 1, 52, 127
1, 58499, Note_off_c, 1, 69, 0
1, 58557, Note_off_c, 1, 52, 0
1, 58559, Note_on_c, 1, 54, 127
1, 58568, Note_on_c, 1, 62, 127
1, 58615, Note_off_c, 1, 54, 0
1, 58617, Note_on_c, 1, 44, 127
1, 58627, Note_on_c, 1, 59, 127
1, 58630, Note_off_c, 1, 62, 0
1, 58674, Note_on_c, 1, 52, 127
1, 58680, Note_off_c, 1, 44, 0
1, 58684, Note_off_c, 1, 59, 0
1, 58687, Note_on_c, 1, 68, 127
1, 58733, Note_on_c, 1, 50, 127
1, 58738, Note_off_c, 1, 52, 0
1, 58739, Note_off_c, 1, 68, 0
1, 58787, Note_off_c, 1, 50, 0
1, 58789, Note_on_c, 1, 52, 127
1, 58805, Note_on_c, 1, 61, 127
1, 58846, Note_off_c, 1, 52, 0
1, 58854, Note_on_c, 1, 42, 127
1, 58865, Note_on_c, 1, 57, 127
1, 58866, Note_off_c, 1, 61, 0
1, 58910, Note_on_c, 1, 50, 127
1, 58912, Note_off_c, 1, 42, 0
1, 58922, Note_off_c, 1, 57, 0
1, 58922, Note_on_c, 1, 66, 127
1, 58969, Note_on_c, 1, 49, 127
1, 58971, Note_off_c, 1, 50, 0
1, 58978, Note_off_c, 1, 66, 0
1, 59029, Note_off_c, 1, 49, 0
1, 59038, Note_on_c, 1, 59, 127
1, 59091, Note_on_c, 1, 40, 127
1, 59096, Note_on_c, 1, 56, 127
1, 59100, Note_off_c, 1, 59, 0
1, 59129, Note_off_c, 1, 56, 0
1, 59150, Note_off_c, 1, 40, 0
1, 59157, Note_on_c, 1, 64, 127
1, 59205, Note_on_c, 1, 47, 127
1, 59245, Note_off_c, 1, 47, 0
1, 59271, Note_off_c, 1, 64, 0
1, 59319, Note_on_c, 1, 45, 127
1, 59377, Note_off_c, 1, 45, 0
1, 59437, Note_on_c, 1, 49, 127
1, 59453, Note_on_c, 1, 64, 127
1, 59485, Note_off_c, 1, 64, 0
1, 59491, Note_off_c, 1, 49, 0
1, 59503, Note_on_c, 1, 50, 127
1, 59511, Note_on_c, 1, 66, 127
1, 59565, Note_on_c, 1, 47, 127
1, 59570, Note_off_c, 1, 50, 0
1, 59573, Note_off_c, 1, 66, 0
1, 59574, Note_on_c, 1, 62, 127
1, 59625, Note_off_c, 1, 47, 0
1, 59626, Note_on_c, 1, 52, 127
1, 59629, Note_on_c, 1, 59, 127
1, 59631, Note_off_c, 1, 62, 0
1, 59684, Note_off_c, 1, 52, 0
1, 59689, Note_on_c, 1, 68, 127
1, 59690, Note_off_c, 1, 59, 0
1, 59742, Note_on_c, 1, 49, 127
1, 59748, Note_off_c, 1, 68, 0
1, 59749, Note_on_c, 1, 69, 127
1, 59781, Note_off_c, 1, 49, 0
1, 59783, Note_off_c, 1, 69, 0
1, 59802, Note_on_c, 1, 45, 127
1, 59811, Note_on_c, 1, 64, 127
1, 59862, Note_on_c, 1, 49, 127
1, 59864, Note_off_c, 1, 64, 0
1, 59868, Note_off_c, 1, 45, 0
1, 59871, Note_on_c, 1, 69, 127
1, 59926, Note_on_c, 1, 52, 127
1, 59927, Note_off_c, 1, 49, 0
1, 59930, Note_on_c, 1, 71, 127
1, 59932, Note_off_c, 1, 69, 0
1, 59972, Note_on_c, 1, 57, 127
1, 59975, Note_off_c, 1, 52, 0
1, 59985, Note_off_c, 1, 71, 0
1, 59986, Note_on_c, 1, 73, 127
1, 60034, Note_on_c, 1, 54, 127
1, 60042, Note_off_c, 1, 57, 0
1, 60047, Note_off_c, 1, 73, 0
1, 60094, Note_off_c, 1, 54, 0
1, 60098, Note_on_c, 1, 59, 127
1, 60106, Note_on_c, 1, 74, 127
1, 60157, Note_on_c, 1, 57, 127
1, 60161, Note_on_c, 1, 73, 127
1, 60162, Note_off_c, 1, 74, 0
1, 60165, Note_off_c, 1, 59, 0
1, 60184, Note_off_c, 1, 73, 0
1, 60203, Note_off_c, 1, 57, 0
1, 60217, Note_on_c, 1, 59, 127
1, 60225, Note_on_c, 1, 74, 127
1, 60276, Note_off_c, 1, 59, 0
1, 60276, Note_on_c, 1, 56, 127
1, 60336, Note_on_c, 1, 52, 127
1, 60337, Note_off_c, 1, 56, 0
1, 60395, Note_off_c, 1, 52, 0
1, 60453, Note_on_c, 1, 57, 127
1, 60478, Note_off_c, 1, 74, 0
1, 60536, Note_on_c, 1, 73, 127
1, 60595, Note_off_c, 1, 73, 0
1, 60598, Note_on_c, 1, 78, 127
1, 60627, Note_off_c, 1, 78, 0
1, 60653, Note_on_c, 1, 77, 127
1, 60677, Note_off_c, 1, 77, 0
1, 60725, Note_off_c, 1, 57, 0
1, 60772, Note_on_c, 1, 54, 127
1, 60831, Note_on_c, 1, 61, 127
1, 60834, Note_off_c, 1, 54, 0
1, 60881, Note_off_c, 1, 61, 0
1, 60884, Note_on_c, 1, 60, 127
1, 60921, Note_off_c, 1, 60, 0
1, 61011, Note_on_c, 1, 68, 127
1, 61068, Note_off_c, 1, 68, 0
1, 61129, Note_on_c, 1, 77, 127
1, 61164, Note_off_c, 1, 77, 0
1, 61185, Note_on_c, 1, 61, 127
1, 61187, Note_on_c, 1, 57, 127
1, 61193, Note_on_c, 1, 78, 127
1, 61251, Note_off_c, 1, 78, 0
1, 61251, Note_on_c, 1, 73, 127
1, 61276, Note_off_c, 1, 73, 0
1, 61303, Note_off_c, 1, 57, 0
1, 61305, Note_on_c, 1, 53, 127
1, 61311, Note_on_c, 1, 81, 127
1, 61359, Note_off_c, 1, 81, 0
1, 61363, Note_on_c, 1, 80, 127
1, 61368, Note_off_c, 1, 53, 0
1, 61394, Note_off_c, 1, 80, 0
1, 61425, Note_on_c, 1, 54, 127
1, 61482, Note_off_c, 1, 54, 0
1, 61483, Note_on_c, 1, 49, 127
1, 61508, Note_off_c, 1, 49, 0
1, 61556, Note_on_c, 1, 77, 127
1, 61596, Note_off_c, 1, 61, 0
1, 61604, Note_on_c, 1, 56, 127
1, 61638, Note_off_c, 1, 77, 0
1, 61661, Note_off_c, 1, 56, 0
1, 61667, Note_on_c, 1, 57, 127
1, 61668, Note_on_c, 1, 61, 127
1, 61678, Note_on_c, 1, 78, 127
1, 61741, Note_off_c, 1, 78, 0
1, 61743, Note_on_c, 1, 73, 127
1, 61783, Note_off_c, 1, 57, 0
1, 61786, Note_off_c, 1, 73, 0
1, 61787, Note_on_c, 1, 54, 127
1, 61837, Note_off_c, 1, 61, 0
1, 61839, Note_off_c, 1, 54, 0
1, 61856, Note_on_c, 1, 80, 127
1, 61911, Note_on_c, 1, 51, 127
1, 61912, Note_off_c, 1, 80, 0
1, 61912, Note_on_c, 1, 59, 127
1, 61916, Note_on_c, 1, 81, 127
1, 61974, Note_off_c, 1, 81, 0
1, 61975, Note_on_c, 1, 71, 127
1, 62026, Note_off_c, 1, 51, 0
1, 62029, Note_on_c, 1, 47, 127
1, 62033, Note_off_c, 1, 71, 0
1, 62125, Note_off_c, 1, 47, 0
1, 62150, Note_on_c, 1, 52, 127
1, 62213, Note_off_c, 1, 52, 0
1, 62271, Note_on_c, 1, 56, 127
1, 62281, Note_on_c, 1, 75, 127
1, 62328, Note_off_c, 1, 56, 0
1, 62344, Note_off_c, 1, 75, 0
1, 62355, Note_off_c, 1, 59, 0
1, 62391, Note_on_c, 1, 56, 127
1, 62403, Note_on_c, 1, 76, 127
1, 62463, Note_off_c, 1, 76, 0
1, 62463, Note_on_c, 1, 71, 127
1, 62507, Note_on_c, 1, 52, 127
1, 62519, Note_off_c, 1, 71, 0
1, 62567, Note_off_c, 1, 56, 0
1, 62571, Note_off_c, 1, 52, 0
1, 62582, Note_on_c, 1, 74, 127
1, 62633, Note_on_c, 1, 45, 127
1, 62634, Note_on_c, 1, 57, 127
1, 62642, Note_on_c, 1, 73, 127
1, 62649, Note_off_c, 1, 74, 0
1, 62691, Note_off_c, 1, 73, 0
1, 62699, Note_on_c, 1, 61, 127
1, 62759, Note_off_c, 1, 61, 0
1, 62759, Note_on_c, 1, 47, 127
1, 62760, Note_on_c, 1, 64, 127
1, 62776, Note_off_c, 1, 45, 0
1, 62788, Note_off_c, 1, 57, 0
1, 62817, Note_off_c, 1, 64, 0
1, 62817, Note_on_c, 1, 63, 127
1, 62874, Note_off_c, 1, 63, 0
1, 62877, Note_off_c, 1, 47, 0
1, 62879, Note_on_c, 1, 64, 127
1, 62879, Note_on_c, 1, 56, 127
1, 62882, Note_on_c, 1, 49, 127
1, 62925, Note_off_c, 1, 64, 0
1, 62934, Note_on_c, 1, 59, 127
1, 62937, Note_off_c, 1, 49, 0
1, 62940, Note_on_c, 1, 44, 127
1, 62959, Note_off_c, 1, 59, 0
1, 63001, Note_off_c, 1, 44, 0
1, 63050, Note_on_c, 1, 47, 127
1, 63057, Note_off_c, 1, 56, 0
1, 63093, Note_off_c, 1, 47, 0
1, 63113, Note_on_c, 1, 54, 127
1, 63114, Note_on_c, 1, 45, 127
1, 63176, Note_off_c, 1, 45, 0
1, 63176, Note_on_c, 1, 42, 127
1, 63235, Note_on_c, 1, 63, 127
1, 63236, Note_off_c, 1, 42, 0
1, 63295, Note_off_c, 1, 54, 0
1, 63355, Note_on_c, 1, 52, 127
1, 63370, Note_off_c, 1, 63, 0
1, 63414, Note_on_c, 1, 40, 127
1, 63441, Note_off_c, 1, 40, 0
1, 63659, Note_on_c, 1, 61, 127
1, 63715, Note_on_c, 1, 69, 127
1, 63719, Note_off_c, 1, 61, 0
1, 63774, Note_on_c, 1, 68, 127
1, 63776, Note_off_c, 1, 69, 0
1, 63831, Note_off_c, 1, 52, 0
1, 63831, Note_off_c, 1, 68, 0
1, 64139, Note_on_c, 1, 66, 127
1, 64195, Note_off_c, 1, 66, 0
1, 64196, Note_on_c, 1, 73, 127
1, 64247, Note_off_c, 1, 73, 0
1, 64253, Note_on_c, 1, 71, 127
1, 64300, Note_off_c, 1, 71, 0
1, 64481, Note_on_c, 1, 57, 127
1, 64532, Note_on_c, 1, 62, 127
1, 64545, Note_off_c, 1, 57, 0
1, 64719, Note_off_c, 1, 62, 0
1, 65266, Note_on_c, 1, 50, 127
1, 65331, Note_off_c, 1, 50, 0
1, 65398, Note_on_c, 1, 74, 127
1, 65456, Note_off_c, 1, 74, 0
1, 65634, Note_on_c, 1, 58, 127
1, 65692, Note_off_c, 1, 58, 0
1, 66234, Note_on_c, 1, 53, 127
1, 66299, Note_on_c, 1, 65, 127
1, 66300, Note_off_c, 1, 53, 0
1, 66359, Note_off_c, 1, 65, 0
1, 67081, Note_on_c, 1, 76, 127
1, 67138, Note_on_c, 1, 78, 127
1, 67146, Note_off_c, 1, 76, 0
1, 67198, Note_on_c, 1, 80, 127
1, 67199, Note_off_c, 1, 78, 0
1, 67253, Note_off_c, 1, 80, 0
1, 67338, Note_on_c, 1, 83, 127
1, 67501, Note_on_c, 1, 81, 127
1, 67508, Note_off_c, 1, 83, 0
1, 67561, Note_on_c, 1, 51, 127
1, 67567, Note_off_c, 1, 81, 0
1, 67617, Note_off_c, 1, 51, 0
1, 67620, Note_on_c, 1, 78, 127
1, 67681, Note_on_c, 1, 80, 127
1, 67682, Note_on_c, 1, 52, 127
1, 67685, Note_on_c, 1, 59, 127
1, 67686, Note_off_c, 1, 78, 0
1, 67741, Note_off_c, 1, 80, 0
1, 67745, Note_on_c, 1, 71, 127
1, 67792, Note_off_c, 1, 52, 0
1, 67796, Note_on_c, 1, 54, 127
1, 67802, Note_off_c, 1, 71, 0
1, 67804, Note_on_c, 1, 76, 127
1, 67859, Note_off_c, 1, 76, 0
1, 67860, Note_on_c, 1, 75, 127
1, 67915, Note_on_c, 1, 56, 127
1, 67916, Note_off_c, 1, 54, 0
1, 67921, Note_off_c, 1, 75, 0
1, 67978, Note_on_c, 1, 64, 127
1, 68029, Note_off_c, 1, 64, 0
1, 68033, Note_off_c, 1, 56, 0
1, 68088, Note_on_c, 1, 61, 127
1, 68089, Note_on_c, 1, 70, 127
1, 68101, Note_off_c, 1, 59, 0
1, 68131, Note_off_c, 1, 61, 0
1, 68139, Note_off_c, 1, 70, 0
1, 68150, Note_on_c, 1, 62, 127
1, 68214, Note_off_c, 1, 62, 0
1, 68264, Note_on_c, 1, 57, 127
1, 68333, Note_on_c, 1, 63, 127
1, 68386, Note_off_c, 1, 57, 0
1, 68387, Note_off_c, 1, 63, 0
1, 68459, Note_on_c, 1, 40, 127
1, 68485, Note_off_c, 1, 40, 0
1, 68517, Note_on_c, 1, 49, 127
1, 68521, Note_on_c, 1, 69, 127
1, 68573, Note_off_c, 1, 69, 0
1, 68575, Note_on_c, 1, 68, 127
1, 68578, Note_on_c, 1, 47, 127
1, 68580, Note_off_c, 1, 49, 0
1, 68592, Note_off_c, 1, 68, 0
1, 68636, Note_off_c, 1, 47, 0
1, 68692, Note_on_c, 1, 45, 127
1, 68748, Note_off_c, 1, 45, 0
1, 69115, Note_on_c, 1, 50, 127
1, 69234, Note_on_c, 1, 66, 127
1, 69235, Note_off_c, 1, 50, 0
1, 69292, Note_off_c, 1, 66, 0
1, 70193, Note_on_c, 1, 74, 127
1, 70226, Note_off_c, 1, 74, 0
1, 70252, Note_on_c, 1, 73, 127
1, 70299, Note_off_c, 1, 73, 0
1, 70850, Note_on_c, 1, 67, 127
1, 70916, Note_off_c, 1, 67, 0
1, 71862, Note_on_c, 1, 83, 127
1, 71924, Note_off_c, 1, 83, 0
1, 71984, Note_on_c, 1, 81, 127
1, 72677, Note_off_c, 1, 81, 0
1, 72713, Note_on_c, 1, 57, 127
1, 72775, Note_on_c, 1, 67, 127
1, 72827, Note_on_c, 1, 69, 127
1, 72829, Note_off_c, 1, 67, 0
1, 72886, Note_off_c, 1, 69, 0
1, 72889, Note_on_c, 1, 64, 127
1, 72942, Note_off_c, 1, 64, 0
1, 72944, Note_on_c, 1, 66, 127
1, 73006, Note_on_c, 1, 61, 127
1, 73043, Note_off_c, 1, 61, 0
1, 73063, Note_on_c, 1, 62, 127
1, 73120, Note_on_c, 1, 56, 127
1, 73123, Note_off_c, 1, 57, 0
1, 73169, Note_off_c, 1, 56, 0
1, 73244, Note_on_c, 1, 52, 127
1, 73305, Note_on_c, 1, 54, 127
1, 73311, Note_off_c, 1, 52, 0
1, 73364, Note_on_c, 1, 50, 127
1, 73371, Note_off_c, 1, 54, 0
1, 73407, Note_off_c, 1, 50, 0
1, 73430, Note_on_c, 1, 45, 127
1, 73552, Note_off_c, 1, 66, 0
1, 73553, Note_off_c, 1, 62, 0
1, 73674, Note_on_c, 1, 59, 127
1, 73799, Note_off_c, 1, 59, 0
1, 73852, Note_on_c, 1, 68, 127
1, 73892, Note_off_c, 1, 68, 0
1, 73932, Note_on_c, 1, 33, 127
1, 73932, Note_on_c, 1, 21, 127
1, 74130, Note_off_c, 1, 45, 0
1, 74130, Note_off_c, 1, 33, 0
1, 74130, Note_off_c, 1, 21, 0
1, 74168, Note_on_c, 1, 49, 127
1, 74168, Note_on_c, 1, 37, 127
1, 74168, Note_on_c, 1, 25, 127
1, 74268, Note_on_c, 1, 61, 127
1, 74268, Note_on_c, 1, 73, 127
1, 74268, Note_on_c, 1, 85, 127
1, 74314, Note_off_c, 1, 61, 0
1, 74314, Note_off_c, 1, 73, 0
1, 74314, Note_off_c, 1, 85, 0
1, 74388, Note_on_c, 1, 62, 127
1, 74388, Note_on_c, 1, 74, 127
1, 74388, Note_on_c, 1, 86, 127
1, 74436, Note_off_c, 1, 62, 0
1, 74436, Note_off_c, 1, 74, 0
1, 74436, Note_off_c, 1, 86, 0
1, 74504, Note_on_c, 1, 64, 127
1, 74504, Note_on_c, 1, 76, 127
1, 74504, Note_on_c, 1, 88, 127
1, 74632, Note_on_c, 1, 57, 127
1, 74632, Note_on_c, 1, 69, 127
1, 74632, Note_on_c, 1, 81, 127
1, 74642, Note_off_c, 1, 64, 0
1, 74642, Note_off_c, 1, 76, 0
1, 74642, Note_off_c, 1, 88, 0
1, 74678, Note_off_c, 1, 57, 0
1, 74678, Note_off_c, 1, 69, 0
1, 74678, Note_off_c, 1, 81, 0
1, 74744, Note_on_c, 1, 56, 127
1, 74744, Note_on_c, 1, 68, 127
1, 74744, Note_on_c, 1, 80, 127
1, 74776, Note_off_c, 1, 49, 0
1, 74776, Note_off_c, 1, 37, 0
1, 74776, Note_off_c, 1, 25, 0
1, 74784, Note_off_c, 1, 56, 0
1, 74784, Note_off_c, 1, 68, 0
1, 74784, Note_off_c, 1, 80, 0
1, 74853, Note_on_c, 1, 51, 127
1, 74853, Note_on_c, 1, 39, 127
1, 74853, Note_on_c, 1, 27, 127
1, 74858, Note_on_c, 1, 54, 127
1, 74858, Note_on_c, 1, 66, 127
1, 74858, Note_on_c, 1, 78, 127
1, 74979, Note_on_c, 1, 56, 127
1, 74979, Note_on_c, 1, 68, 127
1, 74979, Note_on_c, 1, 80, 127
1, 74981, Note_off_c, 1, 54, 0
1, 74981, Note_off_c, 1, 66, 0
1, 74981, Note_off_c, 1, 78, 0
1, 75024, Note_off_c, 1, 56, 0
1, 75024, Note_off_c, 1, 68, 0
1, 75024, Note_off_c, 1, 80, 0
1, 75096, Note_on_c, 1, 57, 127
1, 75096, Note_on_c, 1, 69, 127
1, 75096, Note_on_c, 1, 81, 127
1, 75102, Note_off_c, 1, 51, 0
1, 75102, Note_off_c, 1, 39, 0
1, 75102, Note_off_c, 1, 27, 0
1, 75149, Note_off_c, 1, 57, 0
1, 75149, Note_off_c, 1, 69, 0
1, 75149, Note_off_c, 1, 81, 0
1, 75217, Note_on_c, 1, 52, 127
1, 75217, Note_on_c, 1, 40, 127
1, 75217, Note_on_c, 1, 28, 127
1, 75232, Note_on_c, 1, 56, 127
1, 75232, Note_on_c, 1, 68, 127
1, 75232, Note_on_c, 1, 80, 127
1, 75361, Note_off_c, 1, 56, 0
1, 75361, Note_off_c, 1, 68, 0
1, 75361, Note_off_c, 1, 80, 0
1, 75361, Note_on_c, 1, 59, 127
1, 75361, Note_on_c, 1, 71, 127
1, 75361, Note_on_c, 1, 83, 127
1, 75362, Note_on_c, 1, 92, 127
1, 75410, Note_off_c, 1, 92, 0
1, 75411, Note_off_c, 1, 59, 0
1, 75411, Note_off_c, 1, 71, 0
1, 75411, Note_off_c, 1, 83, 0
1, 75465, Note_on_c, 1, 57, 127
1, 75465, Note_on_c, 1, 69, 127
1, 75465, Note_on_c, 1, 81, 127
1, 75467, Note_on_c, 1, 93, 127
1, 75509, Note_off_c, 1, 93, 0
1, 75521, Note_off_c, 1, 57, 0
1, 75521, Note_off_c, 1, 69, 0
1, 75521, Note_off_c, 1, 81, 0
1, 75577, Note_on_c, 1, 95, 127
1, 75699, Note_on_c, 1, 64, 127
1, 75699, Note_on_c, 1, 76, 127
1, 75699, Note_on_c, 1, 88, 127
1, 75700, Note_off_c, 1, 95, 0
1, 75735, Note_off_c, 1, 52, 0
1, 75735, Note_off_c, 1, 40, 0
1, 75735, Note_off_c, 1, 28, 0
1, 75739, Note_off_c, 1, 64, 0
1, 75739, Note_off_c, 1, 76, 0
1, 75739, Note_off_c, 1, 88, 0
1, 75806, Note_on_c, 1, 59, 127
1, 75806, Note_on_c, 1, 71, 127
1, 75806, Note_on_c, 1, 83, 127
1, 75810, Note_on_c, 1, 62, 127
1, 75810, Note_on_c, 1, 74, 127
1, 75810, Note_on_c, 1, 86, 127
1, 75862, Note_off_c, 1, 62, 0
1, 75862, Note_off_c, 1, 74, 0
1, 75862, Note_off_c, 1, 86, 0
1, 75886, Note_off_c, 1, 59, 0
1, 75886, Note_off_c, 1, 71, 0
1, 75886, Note_off_c, 1, 83, 0
1, 75922, Note_on_c, 1, 57, 127
1, 75922, Note_on_c, 1, 69, 127
1, 75922, Note_on_c, 1, 81, 127
1, 75929, Note_on_c, 1, 52, 127
1, 75929, Note_on_c, 1, 40, 127
1, 75929, Note_on_c, 1, 28, 127
1, 75930, Note_on_c, 1, 61, 127
1, 75930, Note_on_c, 1, 73, 127
1, 75930, Note_on_c, 1, 85, 127
1, 76044, Note_on_c, 1, 59, 127
1, 76044, Note_on_c, 1, 71, 127
1, 76044, Note_on_c, 1, 83, 127
1, 76046, Note_off_c, 1, 57, 0
1, 76046, Note_off_c, 1, 69, 0
1, 76046, Note_off_c, 1, 81, 0
1, 76056, Note_on_c, 1, 63, 127
1, 76056, Note_on_c, 1, 75, 127
1, 76056, Note_on_c, 1, 87, 127
1, 76065, Note_off_c, 1, 61, 0
1, 76065, Note_off_c, 1, 73, 0
1, 76065, Note_off_c, 1, 85, 0
1, 76114, Note_off_c, 1, 59, 0
1, 76114, Note_off_c, 1, 71, 0
1, 76114, Note_off_c, 1, 83, 0
1, 76116, Note_off_c, 1, 63, 0
1, 76116, Note_off_c, 1, 75, 0
1, 76116, Note_off_c, 1, 87, 0
1, 76162, Note_on_c, 1, 56, 127
1, 76162, Note_on_c, 1, 68, 127
1, 76162, Note_on_c, 1, 80, 127
1, 76170, Note_on_c, 1, 64, 127
1, 76170, Note_on_c, 1, 76, 127
1, 76170, Note_on_c, 1, 88, 127
1, 76240, Note_off_c, 1, 52, 0
1, 76240, Note_off_c, 1, 40, 0
1, 76240, Note_off_c, 1, 28, 0
1, 76247, Note_off_c, 1, 56, 0
1, 76247, Note_off_c, 1, 68, 0
1, 76247, Note_off_c, 1, 80, 0
1, 76259, Note_off_c, 1, 64, 0
1, 76259, Note_off_c, 1, 76, 0
1, 76259, Note_off_c, 1, 88, 0
1, 76283, Note_on_c, 1, 54, 127
1, 76283, Note_on_c, 1, 42, 127
1, 76283, Note_on_c, 1, 30, 127
1, 76287, Note_on_c, 1, 57, 127
1, 76287, Note_on_c, 1, 69, 127
1, 76287, Note_on_c, 1, 81, 127
1, 76288, Note_on_c, 1, 63, 127
1, 76288, Note_on_c, 1, 75, 127
1, 76288, Note_on_c, 1, 87, 127
1, 76407, Note_on_c, 1, 66, 127
1, 76407, Note_on_c, 1, 78, 127
1, 76407, Note_on_c, 1, 90, 127
1, 76409, Note_off_c, 1, 63, 0
1, 76409, Note_off_c, 1, 75, 0
1, 76409, Note_off_c, 1, 87, 0
1, 76425, Note_on_c, 1, 99, 127
1, 76471, Note_off_c, 1, 66, 0
1, 76471, Note_off_c, 1, 78, 0
1, 76471, Note_off_c, 1, 90, 0
1, 76500, Note_off_c, 1, 99, 0
1, 76531, Note_on_c, 1, 64, 127
1, 76531, Note_on_c, 1, 76, 127
1, 76531, Note_on_c, 1, 88, 127
1, 76534, Note_on_c, 1, 100, 127
1, 76577, Note_off_c, 1, 64, 0
1, 76580, Note_off_c, 1, 76, 0
1, 76580, Note_off_c, 1, 88, 0
1, 76580, Note_off_c, 1, 100, 0
1, 76659, Note_on_c, 1, 102, 127
1, 76774, Note_on_c, 1, 93, 127
1, 76775, Note_off_c, 1, 102, 0
1, 76785, Note_off_c, 1, 57, 0
1, 76848, Note_off_c, 1, 69, 0
1, 76848, Note_off_c, 1, 81, 0
1, 76848, Note_off_c, 1, 93, 0
1, 76888, Note_on_c, 1, 68, 127
1, 76888, Note_on_c, 1, 80, 127
1, 76888, Note_on_c, 1, 92, 127
1, 76897, Note_on_c, 1, 56, 127
1, 76932, Note_off_c, 1, 92, 0
1, 77006, Note_off_c, 1, 68, 0
1, 77006, Note_off_c, 1, 80, 0
1, 77006, Note_off_c, 1, 56, 0
1, 77329, Note_off_c, 1, 54, 0
1, 77329, Note_off_c, 1, 42, 0
1, 77329, Note_off_c, 1, 30, 0
1, 77364, Note_on_c, 1, 59, 127
1, 77364, Note_on_c, 1, 71, 127
1, 77364, Note_on_c, 1, 83, 127
1, 77368, Note_on_c, 1, 52, 127
1, 77368, Note_on_c, 1, 40, 127
1, 77368, Note_on_c, 1, 28, 127
1, 77381, Note_on_c, 1, 68, 127
1, 77381, Note_on_c, 1, 80, 127
1, 77381, Note_on_c, 1, 92, 127
1, 77487, Note_on_c, 1, 64, 127
1, 77487, Note_on_c, 1, 76, 127
1, 77487, Note_on_c, 1, 88, 127
1, 77492, Note_off_c, 1, 68, 0
1, 77492, Note_off_c, 1, 80, 0
1, 77492, Note_off_c, 1, 92, 0
1, 77506, Note_on_c, 1, 104, 127
1, 77543, Note_off_c, 1, 64, 0
1, 77543, Note_off_c, 1, 76, 0
1, 77543, Note_off_c, 1, 88, 0
1, 77608, Note_on_c, 1, 66, 127
1, 77608, Note_on_c, 1, 78, 127
1, 77608, Note_on_c, 1, 90, 127
1, 77623, Note_on_c, 1, 81, 127
1, 77623, Note_on_c, 1, 93, 127
1, 77623, Note_on_c, 1, 105, 127
1, 77629, Note_off_c, 1, 104, 0
1, 77648, Note_off_c, 1, 66, 0
1, 77648, Note_off_c, 1, 78, 0
1, 77648, Note_off_c, 1, 90, 0
1, 77680, Note_off_c, 1, 81, 0
1, 77680, Note_off_c, 1, 93, 0
1, 77680, Note_off_c, 1, 105, 0
1, 77744, Note_off_c, 1, 59, 0
1, 77744, Note_off_c, 1, 71, 0
1, 77744, Note_off_c, 1, 83, 0
1, 77748, Note_on_c, 1, 95, 127
1, 77748, Note_on_c, 1, 107, 127
1, 77865, Note_on_c, 1, 74, 127
1, 77865, Note_on_c, 1, 86, 127
1, 77865, Note_on_c, 1, 98, 127
1, 77867, Note_off_c, 1, 95, 0
1, 77867, Note_off_c, 1, 107, 0
1, 77944, Note_off_c, 1, 74, 0
1, 77944, Note_off_c, 1, 86, 0
1, 77944, Note_off_c, 1, 98, 0
1, 77973, Note_on_c, 1, 69, 127
1, 77974, Note_on_c, 1, 61, 127
1, 77974, Note_on_c, 1, 73, 127
1, 77974, Note_on_c, 1, 85, 127
1, 77983, Note_on_c, 1, 97, 127
1, 78018, Note_off_c, 1, 69, 0
1, 78024, Note_off_c, 1, 97, 0
1, 78048, Note_off_c, 1, 61, 0
1, 78048, Note_off_c, 1, 73, 0
1, 78048, Note_off_c, 1, 85, 0
1, 78054, Note_off_c, 1, 52, 0
1, 78054, Note_off_c, 1, 40, 0
1, 78054, Note_off_c, 1, 28, 0
1, 78092, Note_on_c, 1, 52, 127
1, 78092, Note_on_c, 1, 40, 127
1, 78092, Note_on_c, 1, 28, 127
1, 78099, Note_on_c, 1, 69, 127
1, 78099, Note_on_c, 1, 81, 127
1, 78099, Note_on_c, 1, 93, 127
1, 78102, Note_on_c, 1, 71, 127
1, 78102, Note_on_c, 1, 83, 127
1, 78102, Note_on_c, 1, 95, 127
1, 78104, Note_on_c, 1, 62, 127
1, 78104, Note_on_c, 1, 74, 127
1, 78104, Note_on_c, 1, 86, 127
1, 78218, Note_on_c, 1, 61, 127
1, 78218, Note_on_c, 1, 73, 127
1, 78218, Note_on_c, 1, 85, 127
1, 78229, Note_on_c, 1, 97, 127
1, 78230, Note_off_c, 1, 62, 0
1, 78230, Note_off_c, 1, 74, 0
1, 78230, Note_off_c, 1, 86, 0
1, 78233, Note_off_c, 1, 71, 0
1, 78233, Note_off_c, 1, 83, 0
1, 78233, Note_off_c, 1, 95, 0
1, 78264, Note_off_c, 1, 69, 0
1, 78264, Note_off_c, 1, 81, 0
1, 78264, Note_off_c, 1, 93, 0
1, 78318, Note_off_c, 1, 97, 0
1, 78342, Note_on_c, 1, 98, 127
1, 78344, Note_on_c, 1, 68, 127
1, 78344, Note_on_c, 1, 80, 127
1, 78344, Note_on_c, 1, 92, 127
1, 78346, Note_on_c, 1, 59, 127
1, 78347, Note_off_c, 1, 61, 0
1, 78347, Note_off_c, 1, 73, 0
1, 78347, Note_off_c, 1, 85, 0
1, 78348, Note_off_c, 1, 52, 0
1, 78348, Note_off_c, 1, 40, 0
1, 78348, Note_off_c, 1, 28, 0
1, 78391, Note_off_c, 1, 68, 0
1, 78391, Note_off_c, 1, 80, 0
1, 78391, Note_off_c, 1, 92, 0
1, 78399, Note_off_c, 1, 98, 0
1, 78462, Note_on_c, 1, 45, 127
1, 78462, Note_on_c, 1, 33, 127
1, 78462, Note_on_c, 1, 21, 127
1, 78466, Note_off_c, 1, 59, 0
1, 78468, Note_on_c, 1, 57, 127
1, 78566, Note_off_c, 1, 57, 0
1, 78831, Note_on_c, 1, 64, 127
1, 78831, Note_on_c, 1, 76, 127
1, 78831, Note_on_c, 1, 88, 127
1, 78955, Note_off_c, 1, 64, 0
1, 78955, Note_off_c, 1, 76, 0
1, 78955, Note_off_c, 1, 88, 0
1, 78963, Note_on_c, 1, 66, 127
1, 78963, Note_on_c, 1, 78, 127
1, 78963, Note_on_c, 1, 90, 127
1, 79074, Note_on_c, 1, 56, 127
1, 79088, Note_on_c, 1, 100, 127
1, 79097, Note_off_c, 1, 66, 0
1, 79097, Note_off_c, 1, 78, 0
1, 79097, Note_off_c, 1, 90, 0
1, 79138, Note_off_c, 1, 56, 0
1, 79143, Note_off_c, 1, 100, 0
1, 79198, Note_on_c, 1, 47, 127
1, 79198, Note_on_c, 1, 35, 127
1, 79198, Note_on_c, 1, 23, 127
1, 79203, Note_on_c, 1, 54, 127
1, 79209, Note_off_c, 1, 45, 0
1, 79209, Note_off_c, 1, 33, 0
1, 79209, Note_off_c, 1, 21, 0
1, 79338, Note_off_c, 1, 54, 0
1, 79567, Note_on_c, 1, 49, 127
1, 79567, Note_on_c, 1, 37, 127
1, 79567, Note_on_c, 1, 25, 127
1, 79581, Note_off_c, 1, 47, 0
1, 79581, Note_off_c, 1, 35, 0
1, 79581, Note_off_c, 1, 23, 0
1, 80253, Note_off_c, 1, 49, 0
1, 80253, Note_off_c, 1, 37, 0
1, 80253, Note_off_c, 1, 25, 0
1, 80260, Note_on_c, 1, 50, 127
1, 80260, Note_on_c, 1, 38, 127
1, 80260, Note_on_c, 1, 26, 127
1, 80585, Note_off_c, 1, 50, 0
1, 80585, Note_off_c, 1, 38, 0
1, 80585, Note_off_c, 1, 26, 0
1, 81232, Note_on_c, 1, 102, 127
1, 81283, Note_off_c, 1, 102, 0
1, 81942, Note_on_c, 1, 55, 127
1, 81942, Note_on_c, 1, 67, 127
1, 81942, Note_on_c, 1, 79, 127
1, 82063, Note_off_c, 1, 55, 0
1, 82063, Note_off_c, 1, 67, 0
1, 82063, Note_off_c, 1, 79, 0
1, 82317, Note_on_c, 1, 91, 127
1, 82445, Note_off_c, 1, 91, 0
1, 82553, Note_on_c, 1, 105, 127
1, 82652, Note_off_c, 1, 105, 0
1, 82662, Note_on_c, 1, 104, 127
1, 82717, Note_off_c, 1, 104, 0
1, 83492, Note_on_c, 1, 45, 127
1, 83492, Note_on_c, 1, 33, 127
1, 83492, Note_on_c, 1, 21, 127
1, 83507, Note_on_c, 1, 57, 127
1, 83507, Note_on_c, 1, 69, 127
1, 83507, Note_on_c, 1, 81, 127
1, 83779, Note_off_c, 1, 57, 0
1, 83779, Note_off_c, 1, 69, 0
1, 83779, Note_off_c, 1, 81, 0
1, 83788, Note_off_c, 1, 45, 0
1, 83788, Note_off_c, 1, 33, 0
1, 83788, Note_off_c, 1, 21, 0
1, 83899, Note_on_c, 1, 49, 127
1, 83899, Note_on_c, 1, 37, 127
1, 83899, Note_on_c, 1, 25, 127
1, 83987, Note_on_c, 1, 73, 127
1, 83987, Note_on_c, 1, 85, 127
1, 83987, Note_on_c, 1, 97, 127
1, 84085, Note_off_c, 1, 73, 0
1, 84085, Note_off_c, 1, 85, 0
1, 84085, Note_off_c, 1, 97, 0
1, 84105, Note_on_c, 1, 74, 127
1, 84105, Note_on_c, 1, 86, 127
1, 84105, Note_on_c, 1, 98, 127
1, 84153, Note_off_c, 1, 74, 0
1, 84153, Note_off_c, 1, 86, 0
1, 84153, Note_off_c, 1, 98, 0
1, 84224, Note_on_c, 1, 76, 127
1, 84224, Note_on_c, 1, 88, 127
1, 84224, Note_on_c, 1, 100, 127
1, 84337, Note_off_c, 1, 76, 0
1, 84337, Note_off_c, 1, 88, 0
1, 84337, Note_off_c, 1, 100, 0
1, 84341, Note_on_c, 1, 69, 127
1, 84341, Note_on_c, 1, 81, 127
1, 84341, Note_on_c, 1, 93, 127
1, 84396, Note_off_c, 1, 69, 0
1, 84396, Note_off_c, 1, 81, 0
1, 84396, Note_off_c, 1, 93, 0
1, 84461, Note_on_c, 1, 68, 127
1, 84461, Note_on_c, 1, 80, 127
1, 84461, Note_on_c, 1, 92, 127
1, 84507, Note_off_c, 1, 68, 0
1, 84507, Note_off_c, 1, 80, 0
1, 84507, Note_off_c, 1, 92, 0
1, 84561, Note_off_c, 1, 49, 0
1, 84561, Note_off_c, 1, 37, 0
1, 84561, Note_off_c, 1, 25, 0
1, 84567, Note_on_c, 1, 51, 127
1, 84567, Note_on_c, 1, 39, 127
1, 84567, Note_on_c, 1, 27, 127
1, 84581, Note_on_c, 1, 66, 127
1, 84581, Note_on_c, 1, 78, 127
1, 84581, Note_on_c, 1, 90, 127
1, 84699, Note_on_c, 1, 68, 127
1, 84699, Note_on_c, 1, 80, 127
1, 84699, Note_on_c, 1, 92, 127
1, 84714, Note_off_c, 1, 66, 0
1, 84714, Note_off_c, 1, 78, 0
1, 84714, Note_off_c, 1, 90, 0
1, 84752, Note_off_c, 1, 68, 0
1, 84752, Note_off_c, 1, 80, 0
1, 84752, Note_off_c, 1, 92, 0
1, 84817, Note_on_c, 1, 69, 127
1, 84817, Note_on_c, 1, 81, 127
1, 84817, Note_on_c, 1, 93, 127
1, 84880, Note_off_c, 1, 69, 0
1, 84880, Note_off_c, 1, 81, 0
1, 84880, Note_off_c, 1, 93, 0
1, 84904, Note_off_c, 1, 51, 0
1, 84904, Note_off_c, 1, 39, 0
1, 84904, Note_off_c, 1, 27, 0
1, 84940, Note_on_c, 1, 52, 127
1, 84940, Note_on_c, 1, 40, 127
1, 84940, Note_on_c, 1, 28, 127
1, 84943, Note_on_c, 1, 68, 127
1, 84943, Note_on_c, 1, 80, 127
1, 84943, Note_on_c, 1, 92, 127
1, 85065, Note_off_c, 1, 68, 0
1, 85065, Note_off_c, 1, 80, 0
1, 85065, Note_off_c, 1, 92, 0
1, 85068, Note_on_c, 1, 71, 127
1, 85068, Note_on_c, 1, 83, 127
1, 85068, Note_on_c, 1, 95, 127
1, 85071, Note_on_c, 1, 104, 127
1, 85165, Note_off_c, 1, 71, 0
1, 85165, Note_off_c, 1, 83, 0
1, 85165, Note_off_c, 1, 95, 0
1, 85171, Note_off_c, 1, 104, 0
1, 85181, Note_on_c, 1, 81, 127
1, 85181, Note_on_c, 1, 93, 127
1, 85181, Note_on_c, 1, 105, 127
1, 85183, Note_on_c, 1, 69, 127
1, 85216, Note_off_c, 1, 105, 0
1, 85238, Note_off_c, 1, 81, 0
1, 85238, Note_off_c, 1, 93, 0
1, 85238, Note_off_c, 1, 69, 0
1, 85297, Note_on_c, 1, 107, 127
1, 85420, Note_off_c, 1, 107, 0
1, 85420, Note_on_c, 1, 76, 127
1, 85420, Note_on_c, 1, 88, 127
1, 85420, Note_on_c, 1, 100, 127
1, 85482, Note_off_c, 1, 76, 0
1, 85482, Note_off_c, 1, 88, 0
1, 85482, Note_off_c, 1, 100, 0
1, 85525, Note_off_c, 1, 52, 0
1, 85525, Note_off_c, 1, 40, 0
1, 85525, Note_off_c, 1, 28, 0
1, 85526, Note_on_c, 1, 71, 127
1, 85526, Note_on_c, 1, 83, 127
1, 85526, Note_on_c, 1, 95, 127
1, 85538, Note_on_c, 1, 74, 127
1, 85538, Note_on_c, 1, 86, 127
1, 85538, Note_on_c, 1, 98, 127
1, 85601, Note_off_c, 1, 71, 0
1, 85601, Note_off_c, 1, 83, 0
1, 85601, Note_off_c, 1, 95, 0
1, 85619, Note_off_c, 1, 74, 0
1, 85619, Note_off_c, 1, 86, 0
1, 85619, Note_off_c, 1, 98, 0
1, 85648, Note_on_c, 1, 69, 127
1, 85648, Note_on_c, 1, 81, 127
1, 85648, Note_on_c, 1, 93, 127
1, 85649, Note_on_c, 1, 52, 127
1, 85649, Note_on_c, 1, 40, 127
1, 85649, Note_on_c, 1, 28, 127
1, 85658, Note_on_c, 1, 73, 127
1, 85658, Note_on_c, 1, 85, 127
1, 85658, Note_on_c, 1, 97, 127
1, 85776, Note_on_c, 1, 71, 127
1, 85776, Note_on_c, 1, 83, 127
1, 85776, Note_on_c, 1, 95, 127
1, 85783, Note_off_c, 1, 69, 0
1, 85783, Note_off_c, 1, 81, 0
1, 85783, Note_off_c, 1, 93, 0
1, 85783, Note_on_c, 1, 75, 127
1, 85783, Note_on_c, 1, 87, 127
1, 85783, Note_on_c, 1, 99, 127
1, 85792, Note_off_c, 1, 73, 0
1, 85792, Note_off_c, 1, 85, 0
1, 85792, Note_off_c, 1, 97, 0
1, 85848, Note_off_c, 1, 75, 0
1, 85848, Note_off_c, 1, 87, 0
1, 85848, Note_off_c, 1, 99, 0
1, 85856, Note_off_c, 1, 71, 0
1, 85856, Note_off_c, 1, 83, 0
1, 85856, Note_off_c, 1, 95, 0
1, 85892, Note_on_c, 1, 68, 127
1, 85892, Note_on_c, 1, 80, 127
1, 85892, Note_on_c, 1, 92, 127
1, 85903, Note_on_c, 1, 76, 127
1, 85903, Note_on_c, 1, 88, 127
1, 85903, Note_on_c, 1, 100, 127
1, 85904, Note_off_c, 1, 52, 0
1, 85904, Note_off_c, 1, 40, 0
1, 85904, Note_off_c, 1, 28, 0
1, 85966, Note_off_c, 1, 76, 0
1, 85966, Note_off_c, 1, 88, 0
1, 85966, Note_off_c, 1, 100, 0
1, 85977, Note_off_c, 1, 68, 0
1, 85977, Note_off_c, 1, 80, 0
1, 85977, Note_off_c, 1, 92, 0
1, 86006, Note_on_c, 1, 54, 127
1, 86006, Note_on_c, 1, 42, 127
1, 86006, Note_on_c, 1, 30, 127
1, 86024, Note_on_c, 1, 75, 127
1, 86024, Note_on_c, 1, 87, 127
1, 86024, Note_on_c, 1, 99, 127
1, 86025, Note_on_c, 1, 69, 127
1, 86025, Note_on_c, 1, 81, 127
1, 86025, Note_on_c, 1, 93, 127
1, 86149, Note_on_c, 1, 78, 127
1, 86149, Note_on_c, 1, 90, 127
1, 86149, Note_on_c, 1, 102, 127
1, 86152, Note_on_c, 1, 63, 127
1, 86154, Note_off_c, 1, 99, 0
1, 86208, Note_off_c, 1, 78, 0
1, 86208, Note_off_c, 1, 90, 0
1, 86208, Note_off_c, 1, 102, 0
1, 86212, Note_off_c, 1, 75, 0
1, 86212, Note_off_c, 1, 87, 0
1, 86212, Note_off_c, 1, 63, 0
1, 86259, Note_on_c, 1, 64, 127
1, 86259, Note_on_c, 1, 76, 127
1, 86259, Note_on_c, 1, 88, 127
1, 86262, Note_on_c, 1, 100, 127
1, 86298, Note_off_c, 1, 100, 0
1, 86317, Note_off_c, 1, 64, 0
1, 86317, Note_off_c, 1, 76, 0
1, 86317, Note_off_c, 1, 88, 0
1, 86376, Note_on_c, 1, 66, 127
1, 86479, Note_off_c, 1, 66, 0
1, 86501, Note_on_c, 1, 57, 127
1, 86529, Note_off_c, 1, 93, 0
1, 86557, Note_off_c, 1, 69, 0
1, 86557, Note_off_c, 1, 81, 0
1, 86557, Note_off_c, 1, 57, 0
1, 86617, Note_on_c, 1, 68, 127
1, 86617, Note_on_c, 1, 80, 127
1, 86617, Note_on_c, 1, 92, 127
1, 86618, Note_on_c, 1, 56, 127
1, 86677, Note_off_c, 1, 56, 0
1, 86712, Note_off_c, 1, 68, 0
1, 86712, Note_off_c, 1, 80, 0
1, 86712, Note_off_c, 1, 92, 0
1, 87040, Note_off_c, 1, 54, 0
1, 87040, Note_off_c, 1, 42, 0
1, 87040, Note_off_c, 1, 30, 0
1, 87098, Note_on_c, 1, 56, 127
1, 87098, Note_on_c, 1, 68, 127
1, 87098, Note_on_c, 1, 80, 127
1, 87099, Note_on_c, 1, 52, 127
1, 87099, Note_on_c, 1, 40, 127
1, 87099, Note_on_c, 1, 28, 127
1, 87109, Note_on_c, 1, 71, 127
1, 87109, Note_on_c, 1, 83, 127
1, 87109, Note_on_c, 1, 95, 127
1, 87146, Note_off_c, 1, 56, 0
1, 87146, Note_off_c, 1, 68, 0
1, 87146, Note_off_c, 1, 80, 0
1, 87229, Note_on_c, 1, 76, 127
1, 87229, Note_on_c, 1, 88, 127
1, 87229, Note_on_c, 1, 100, 127
1, 87231, Note_on_c, 1, 92, 127
1, 87280, Note_off_c, 1, 92, 0
1, 87287, Note_off_c, 1, 76, 0
1, 87287, Note_off_c, 1, 88, 0
1, 87287, Note_off_c, 1, 100, 0
1, 87341, Note_on_c, 1, 69, 127
1, 87341, Note_on_c, 1, 81, 127
1, 87341, Note_on_c, 1, 93, 127
1, 87349, Note_on_c, 1, 78, 127
1, 87349, Note_on_c, 1, 90, 127
1, 87349, Note_on_c, 1, 102, 127
1, 87371, Note_off_c, 1, 71, 0
1, 87371, Note_off_c, 1, 83, 0
1, 87371, Note_off_c, 1, 95, 0
1, 87388, Note_off_c, 1, 78, 0
1, 87388, Note_off_c, 1, 90, 0
1, 87388, Note_off_c, 1, 102, 0
1, 87406, Note_off_c, 1, 69, 0
1, 87406, Note_off_c, 1, 81, 0
1, 87406, Note_off_c, 1, 93, 0
1, 87471, Note_on_c, 1, 104, 127
1, 87578, Note_on_c, 1, 62, 127
1, 87578, Note_on_c, 1, 74, 127
1, 87578, Note_on_c, 1, 86, 127
1, 87612, Note_off_c, 1, 104, 0
1, 87641, Note_off_c, 1, 62, 0
1, 87641, Note_off_c, 1, 74, 0
1, 87641, Note_off_c, 1, 86, 0
1, 87677, Note_off_c, 1, 52, 0
1, 87677, Note_off_c, 1, 40, 0
1, 87677, Note_off_c, 1, 28, 0
1, 87701, Note_on_c, 1, 61, 127
1, 87701, Note_on_c, 1, 73, 127
1, 87701, Note_on_c, 1, 85, 127
1, 87714, Note_on_c, 1, 105, 127
1, 87718, Note_on_c, 1, 97, 127
1, 87750, Note_off_c, 1, 105, 0
1, 87762, Note_off_c, 1, 61, 0
1, 87832, Note_on_c, 1, 59, 127
1, 87846, Note_off_c, 1, 73, 0
1, 87846, Note_off_c, 1, 85, 0
1, 87846, Note_off_c, 1, 97, 0
1, 87846, Note_on_c, 1, 98, 127
1, 87973, Note_off_c, 1, 98, 0
1, 87977, Note_off_c, 1, 59, 0
1, 88208, Note_on_c, 1, 45, 127
1, 88208, Note_on_c, 1, 33, 127
1, 88208, Note_on_c, 1, 21, 127
1, 88324, Note_on_c, 1, 57, 127
1, 88386, Note_off_c, 1, 57, 0
1, 88792, Note_on_c, 1, 64, 127
1, 88849, Note_off_c, 1, 64, 0
1, 88875, Note_off_c, 1, 45, 0
1, 88875, Note_off_c, 1, 33, 0
1, 88875, Note_off_c, 1, 21, 0
1, 88899, Note_on_c, 1, 66, 127
1, 88899, Note_on_c, 1, 78, 127
1, 88899, Note_on_c, 1, 90, 127
1, 88902, Note_on_c, 1, 81, 127
1, 88902, Note_on_c, 1, 62, 127
1, 88902, Note_on_c, 1, 93, 127
1, 88902, Note_on_c, 1, 74, 127
1, 88902, Note_on_c, 1, 105, 127
1, 88902, Note_on_c, 1, 86, 127
1, 88904, Note_on_c, 1, 47, 127
1, 88904, Note_on_c, 1, 35, 127
1, 88904, Note_on_c, 1, 23, 127
1, 89021, Note_on_c, 1, 68, 127
1, 89021, Note_on_c, 1, 80, 127
1, 89021, Note_on_c, 1, 92, 127
1, 89022, Note_off_c, 1, 66, 0
1, 89022, Note_off_c, 1, 78, 0
1, 89022, Note_off_c, 1, 90, 0
1, 89026, Note_on_c, 1, 104, 127
1, 89033, Note_off_c, 1, 81, 0
1, 89033, Note_off_c, 1, 93, 0
1, 89033, Note_off_c, 1, 105, 0
1, 89070, Note_off_c, 1, 104, 0
1, 89088, Note_off_c, 1, 68, 0
1, 89088, Note_off_c, 1, 80, 0
1, 89088, Note_off_c, 1, 92, 0
1, 89139, Note_on_c, 1, 69, 127
1, 89145, Note_on_c, 1, 102, 127
1, 89180, Note_off_c, 1, 102, 0
1, 89211, Note_off_c, 1, 69, 0
1, 89264, Note_on_c, 1, 76, 127
1, 89264, Note_on_c, 1, 88, 127
1, 89264, Note_on_c, 1, 100, 127
1, 89266, Note_off_c, 1, 47, 0
1, 89266, Note_off_c, 1, 35, 0
1, 89266, Note_off_c, 1, 23, 0
1, 89267, Note_on_c, 1, 49, 127
1, 89267, Note_on_c, 1, 37, 127
1, 89267, Note_on_c, 1, 25, 127
1, 89368, Note_off_c, 1, 62, 0
1, 89368, Note_off_c, 1, 74, 0
1, 89368, Note_off_c, 1, 86, 0
1, 89376, Note_on_c, 1, 61, 127
1, 89376, Note_on_c, 1, 73, 127
1, 89376, Note_on_c, 1, 85, 127
1, 89489, Note_off_c, 1, 61, 0
1, 89489, Note_off_c, 1, 73, 0
1, 89489, Note_off_c, 1, 85, 0
1, 89508, Note_on_c, 1, 98, 127
1, 89510, Note_off_c, 1, 76, 0
1, 89510, Note_off_c, 1, 88, 0
1, 89510, Note_off_c, 1, 100, 0
1, 89510, Note_on_c, 1, 71, 127
1, 89510, Note_on_c, 1, 83, 127
1, 89510, Note_on_c, 1, 95, 127
1, 89560, Note_off_c, 1, 98, 0
1, 89606, Note_off_c, 1, 71, 0
1, 89606, Note_off_c, 1, 83, 0
1, 89606, Note_off_c, 1, 95, 0
1, 89617, Note_on_c, 1, 64, 127
1, 89625, Note_on_c, 1, 97, 127
1, 89730, Note_off_c, 1, 64, 0
1, 89733, Note_on_c, 1, 59, 127
1, 89741, Note_off_c, 1, 97, 0
1, 89809, Note_off_c, 1, 59, 0
1, 89856, Note_on_c, 1, 57, 127
1, 89928, Note_off_c, 1, 57, 0
1, 89969, Note_off_c, 1, 49, 0
1, 89969, Note_off_c, 1, 37, 0
1, 89969, Note_off_c, 1, 25, 0
1, 89980, Note_on_c, 1, 50, 127
1, 89980, Note_on_c, 1, 38, 127
1, 89980, Note_on_c, 1, 26, 127
1, 89984, Note_on_c, 1, 56, 127
1, 90116, Note_off_c, 1, 56, 0
1, 90288, Note_off_c, 1, 50, 0
1, 90288, Note_off_c, 1, 38, 0
1, 90288, Note_off_c, 1, 26, 0
1, 91409, Note_on_c, 1, 64, 127
1, 91409, Note_on_c, 1, 76, 127
1, 91409, Note_on_c, 1, 88, 127
1, 91410, Note_on_c, 1, 45, 127
1, 91410, Note_on_c, 1, 33, 127
1, 91410, Note_on_c, 1, 21, 127
1, 91539, Note_on_c, 1, 69, 127
1, 91539, Note_on_c, 1, 81, 127
1, 91539, Note_on_c, 1, 93, 127
1, 91613, Note_off_c, 1, 69, 0
1, 91613, Note_off_c, 1, 81, 0
1, 91613, Note_off_c, 1, 93, 0
1, 91652, Note_on_c, 1, 67, 127
1, 91652, Note_on_c, 1, 79, 127
1, 91652, Note_on_c, 1, 91, 127
1, 91704, Note_off_c, 1, 67, 0
1, 91704, Note_off_c, 1, 79, 0
1, 91704, Note_off_c, 1, 91, 0
1, 91760, Note_off_c, 1, 64, 0
1, 91760, Note_off_c, 1, 76, 0
1, 91760, Note_off_c, 1, 88, 0
1, 91769, Note_on_c, 1, 66, 127
1, 91769, Note_on_c, 1, 78, 127
1, 91769, Note_on_c, 1, 90, 127
1, 91888, Note_off_c, 1, 66, 0
1, 91888, Note_off_c, 1, 78, 0
1, 91888, Note_off_c, 1, 90, 0
1, 91901, Note_on_c, 1, 71, 127
1, 91901, Note_on_c, 1, 83, 127
1, 91901, Note_on_c, 1, 95, 127
1, 91912, Note_on_c, 1, 105, 127
1, 91960, Note_off_c, 1, 105, 0
1, 91984, Note_off_c, 1, 71, 0
1, 91984, Note_off_c, 1, 83, 0
1, 91984, Note_off_c, 1, 95, 0
1, 92012, Note_on_c, 1, 73, 127
1, 92012, Note_on_c, 1, 85, 127
1, 92012, Note_on_c, 1, 97, 127
1, 92031, Note_on_c, 1, 103, 127
1, 92068, Note_off_c, 1, 103, 0
1, 92136, Note_off_c, 1, 73, 0
1, 92136, Note_off_c, 1, 85, 0
1, 92136, Note_off_c, 1, 97, 0
1, 92153, Note_on_c, 1, 102, 127
1, 92155, Note_on_c, 1, 74, 127
1, 92155, Note_on_c, 1, 86, 127
1, 92155, Note_on_c, 1, 98, 127
1, 92269, Note_on_c, 1, 100, 127
1, 92272, Note_off_c, 1, 74, 0
1, 92272, Note_off_c, 1, 86, 0
1, 92272, Note_off_c, 1, 98, 0
1, 92279, Note_off_c, 1, 102, 0
1, 92315, Note_off_c, 1, 100, 0
1, 92618, Note_on_c, 1, 57, 127
1, 92706, Note_off_c, 1, 57, 0
1, 92727, Note_on_c, 1, 55, 127
1, 92839, Note_off_c, 1, 55, 0
1, 92845, Note_on_c, 1, 54, 127
1, 92938, Note_off_c, 1, 54, 0
1, 92963, Note_on_c, 1, 59, 127
1, 93051, Note_off_c, 1, 59, 0
1, 93092, Note_on_c, 1, 61, 127
1, 93211, Note_off_c, 1, 61, 0
1, 93214, Note_on_c, 1, 62, 127
1, 93469, Note_on_c, 1, 80, 127
1, 93469, Note_on_c, 1, 92, 127
1, 93469, Note_on_c, 1, 104, 127
1, 93505, Note_off_c, 1, 80, 0
1, 93505, Note_off_c, 1, 92, 0
1, 93505, Note_off_c, 1, 104, 0
1, 93600, Note_off_c, 1, 62, 0
1, 93929, Note_off_c, 1, 45, 0
1, 93929, Note_off_c, 1, 33, 0
1, 93929, Note_off_c, 1, 21, 0
1, 93967, Note_on_c, 1, 61, 127
1, 93967, Note_on_c, 1, 73, 127
1, 93967, Note_on_c, 1, 85, 127
1, 94080, Note_on_c, 1, 57, 127
1, 94080, Note_on_c, 1, 69, 127
1, 94080, Note_on_c, 1, 81, 127
1, 94085, Note_off_c, 1, 61, 0
1, 94085, Note_off_c, 1, 73, 0
1, 94085, Note_off_c, 1, 85, 0
1, 94118, Note_off_c, 1, 57, 0
1, 94118, Note_off_c, 1, 69, 0
1, 94118, Note_off_c, 1, 81, 0
1, 94193, Note_on_c, 1, 61, 127
1, 94193, Note_on_c, 1, 73, 127
1, 94193, Note_on_c, 1, 85, 127
1, 94234, Note_off_c, 1, 61, 0
1, 94234, Note_off_c, 1, 73, 0
1, 94234, Note_off_c, 1, 85, 0
1, 94315, Note_on_c, 1, 61, 127
1, 94315, Note_on_c, 1, 73, 127
1, 94315, Note_on_c, 1, 85, 127
1, 94433, Note_on_c, 1, 56, 127
1, 94433, Note_on_c, 1, 68, 127
1, 94433, Note_on_c, 1, 80, 127
1, 94446, Note_off_c, 1, 61, 0
1, 94446, Note_off_c, 1, 73, 0
1, 94446, Note_off_c, 1, 85, 0
1, 94472, Note_off_c, 1, 56, 0
1, 94472, Note_off_c, 1, 68, 0
1, 94472, Note_off_c, 1, 80, 0
1, 94550, Note_on_c, 1, 61, 127
1, 94550, Note_on_c, 1, 73, 127
1, 94550, Note_on_c, 1, 85, 127
1, 94591, Note_off_c, 1, 61, 0
1, 94591, Note_off_c, 1, 73, 0
1, 94591, Note_off_c, 1, 85, 0
1, 94671, Note_on_c, 1, 57, 127
1, 94671, Note_on_c, 1, 69, 127
1, 94671, Note_on_c, 1, 81, 127
1, 94791, Note_on_c, 1, 54, 127
1, 94791, Note_on_c, 1, 66, 127
1, 94791, Note_on_c, 1, 78, 127
1, 94800, Note_off_c, 1, 57, 0
1, 94800, Note_off_c, 1, 69, 0
1, 94800, Note_off_c, 1, 81, 0
1, 94833, Note_off_c, 1, 54, 0
1, 94833, Note_off_c, 1, 66, 0
1, 94833, Note_off_c, 1, 78, 0
1, 94896, Note_on_c, 1, 66, 127
1, 94896, Note_on_c, 1, 78, 127
1, 94896, Note_on_c, 1, 90, 127
1, 94910, Note_on_c, 1, 58, 127
1, 94910, Note_on_c, 1, 70, 127
1, 94910, Note_on_c, 1, 82, 127
1, 94924, Note_off_c, 1, 66, 0
1, 94924, Note_off_c, 1, 78, 0
1, 94924, Note_off_c, 1, 90, 0
1, 94951, Note_off_c, 1, 58, 0
1, 94951, Note_off_c, 1, 70, 0
1, 94951, Note_off_c, 1, 82, 0
1, 95021, Note_on_c, 1, 59, 127
1, 95021, Note_on_c, 1, 71, 127
1, 95021, Note_on_c, 1, 83, 127
1, 95026, Note_on_c, 1, 66, 127
1, 95026, Note_on_c, 1, 78, 127
1, 95026, Note_on_c, 1, 90, 127
1, 95147, Note_on_c, 1, 63, 127
1, 95147, Note_on_c, 1, 75, 127
1, 95147, Note_on_c, 1, 87, 127
1, 95152, Note_off_c, 1, 66, 0
1, 95152, Note_off_c, 1, 78, 0
1, 95152, Note_off_c, 1, 90, 0
1, 95180, Note_off_c, 1, 63, 0
1, 95180, Note_off_c, 1, 75, 0
1, 95180, Note_off_c, 1, 87, 0
1, 95219, Note_off_c, 1, 59, 0
1, 95219, Note_off_c, 1, 71, 0
1, 95219, Note_off_c, 1, 83, 0
1, 95265, Note_on_c, 1, 66, 127
1, 95265, Note_on_c, 1, 78, 127
1, 95265, Note_on_c, 1, 90, 127
1, 95293, Note_off_c, 1, 66, 0
1, 95293, Note_off_c, 1, 78, 0
1, 95293, Note_off_c, 1, 90, 0
1, 95370, Note_on_c, 1, 58, 127
1, 95370, Note_on_c, 1, 70, 127
1, 95370, Note_on_c, 1, 82, 127
1, 95384, Note_on_c, 1, 66, 127
1, 95384, Note_on_c, 1, 78, 127
1, 95384, Note_on_c, 1, 90, 127
1, 95501, Note_off_c, 1, 58, 0
1, 95501, Note_off_c, 1, 70, 0
1, 95501, Note_off_c, 1, 82, 0
1, 95502, Note_off_c, 1, 66, 0
1, 95502, Note_off_c, 1, 78, 0
1, 95502, Note_off_c, 1, 90, 0
1, 95505, Note_on_c, 1, 61, 127
1, 95505, Note_on_c, 1, 73, 127
1, 95505, Note_on_c, 1, 85, 127
1, 95533, Note_off_c, 1, 61, 0
1, 95533, Note_off_c, 1, 73, 0
1, 95533, Note_off_c, 1, 85, 0
1, 95612, Note_on_c, 1, 66, 127
1, 95612, Note_on_c, 1, 78, 127
1, 95612, Note_on_c, 1, 90, 127
1, 95645, Note_off_c, 1, 66, 0
1, 95645, Note_off_c, 1, 78, 0
1, 95645, Note_off_c, 1, 90, 0
1, 95743, Note_on_c, 1, 63, 127
1, 95743, Note_on_c, 1, 75, 127
1, 95743, Note_on_c, 1, 87, 127
1, 95829, Note_off_c, 1, 63, 0
1, 95829, Note_off_c, 1, 75, 0
1, 95829, Note_off_c, 1, 87, 0
1, 95864, Note_on_c, 1, 59, 127
1, 95864, Note_on_c, 1, 71, 127
1, 95864, Note_on_c, 1, 83, 127
1, 95930, Note_off_c, 1, 59, 0
1, 95930, Note_off_c, 1, 71, 0
1, 95930, Note_off_c, 1, 83, 0
1, 95974, Note_on_c, 1, 57, 127
1, 95974, Note_on_c, 1, 69, 127
1, 95974, Note_on_c, 1, 81, 127
1, 95984, Note_on_c, 1, 71, 127
1, 95984, Note_on_c, 1, 83, 127
1, 95984, Note_on_c, 1, 95, 127
1, 95986, Note_on_c, 1, 63, 127
1, 95986, Note_on_c, 1, 75, 127
1, 95986, Note_on_c, 1, 87, 127
1, 96022, Note_off_c, 1, 63, 0
1, 96022, Note_off_c, 1, 75, 0
1, 96022, Note_off_c, 1, 87, 0
1, 96026, Note_off_c, 1, 71, 0
1, 96026, Note_off_c, 1, 83, 0
1, 96026, Note_off_c, 1, 95, 0
1, 96045, Note_off_c, 1, 57, 0
1, 96045, Note_off_c, 1, 69, 0
1, 96045, Note_off_c, 1, 81, 0
1, 96099, Note_on_c, 1, 56, 127
1, 96099, Note_on_c, 1, 68, 127
1, 96099, Note_on_c, 1, 80, 127
1, 96119, Note_on_c, 1, 71, 127
1, 96119, Note_on_c, 1, 83, 127
1, 96119, Note_on_c, 1, 95, 127
1, 96120, Note_on_c, 1, 64, 127
1, 96120, Note_on_c, 1, 76, 127
1, 96120, Note_on_c, 1, 88, 127
1, 96244, Note_on_c, 1, 92, 127
1, 96245, Note_off_c, 1, 71, 0
1, 96245, Note_off_c, 1, 83, 0
1, 96245, Note_off_c, 1, 95, 0
1, 96279, Note_off_c, 1, 92, 0
1, 96332, Note_off_c, 1, 56, 0
1, 96332, Note_off_c, 1, 68, 0
1, 96332, Note_off_c, 1, 80, 0
1, 96381, Note_off_c, 1, 64, 0
1, 96381, Note_off_c, 1, 76, 0
1, 96381, Note_off_c, 1, 88, 0
1, 96474, Note_on_c, 1, 59, 127
1, 96474, Note_on_c, 1, 71, 127
1, 96474, Note_on_c, 1, 83, 127
1, 96486, Note_on_c, 1, 63, 127
1, 96486, Note_on_c, 1, 75, 127
1, 96486, Note_on_c, 1, 87, 127
1, 96487, Note_on_c, 1, 95, 127
1, 96610, Note_on_c, 1, 66, 127
1, 96610, Note_on_c, 1, 78, 127
1, 96610, Note_on_c, 1, 90, 127
1, 96613, Note_off_c, 1, 95, 0
1, 96648, Note_off_c, 1, 66, 0
1, 96648, Note_off_c, 1, 78, 0
1, 96648, Note_off_c, 1, 90, 0
1, 96713, Note_off_c, 1, 59, 0
1, 96713, Note_off_c, 1, 71, 0
1, 96713, Note_off_c, 1, 83, 0
1, 96762, Note_off_c, 1, 63, 0
1, 96762, Note_off_c, 1, 75, 0
1, 96762, Note_off_c, 1, 87, 0
1, 96833, Note_on_c, 1, 52, 127
1, 96833, Note_on_c, 1, 64, 127
1, 96833, Note_on_c, 1, 76, 127
1, 96845, Note_on_c, 1, 88, 127
1, 96848, Note_on_c, 1, 68, 127
1, 96848, Note_on_c, 1, 80, 127
1, 96848, Note_on_c, 1, 92, 127
1, 96918, Note_off_c, 1, 68, 0
1, 96918, Note_off_c, 1, 80, 0
1, 96918, Note_off_c, 1, 92, 0
1, 96956, Note_off_c, 1, 88, 0
1, 96988, Note_off_c, 1, 52, 0
1, 97007, Note_off_c, 1, 64, 0
1, 97007, Note_off_c, 1, 76, 0
1, 97075, Note_on_c, 1, 52, 127
1, 97075, Note_on_c, 1, 64, 127
1, 97075, Note_on_c, 1, 76, 127
1, 97080, Note_on_c, 1, 68, 127
1, 97080, Note_on_c, 1, 62, 127
1, 97080, Note_on_c, 1, 80, 127
1, 97080, Note_on_c, 1, 74, 127
1, 97080, Note_on_c, 1, 92, 127
1, 97080, Note_on_c, 1, 86, 127
1, 97116, Note_off_c, 1, 52, 0
1, 97116, Note_off_c, 1, 64, 0
1, 97116, Note_off_c, 1, 76, 0
1, 97117, Note_off_c, 1, 68, 0
1, 97117, Note_off_c, 1, 80, 0
1, 97117, Note_off_c, 1, 92, 0
1, 97122, Note_off_c, 1, 62, 0
1, 97122, Note_off_c, 1, 74, 0
1, 97122, Note_off_c, 1, 86, 0
1, 97202, Note_on_c, 1, 52, 127
1, 97202, Note_on_c, 1, 64, 127
1, 97202, Note_on_c, 1, 76, 127
1, 97204, Note_on_c, 1, 61, 127
1, 97204, Note_on_c, 1, 69, 127
1, 97204, Note_on_c, 1, 73, 127
1, 97204, Note_on_c, 1, 81, 127
1, 97204, Note_on_c, 1, 85, 127
1, 97204, Note_on_c, 1, 93, 127
1, 97302, Note_off_c, 1, 61, 0
1, 97302, Note_off_c, 1, 73, 0
1, 97302, Note_off_c, 1, 85, 0
1, 97303, Note_off_c, 1, 69, 0
1, 97303, Note_off_c, 1, 81, 0
1, 97303, Note_off_c, 1, 93, 0
1, 97322, Note_on_c, 1, 49, 127
1, 97335, Note_off_c, 1, 52, 0
1, 97335, Note_off_c, 1, 64, 0
1, 97335, Note_off_c, 1, 76, 0
1, 97357, Note_off_c, 1, 49, 0
1, 97435, Note_on_c, 1, 52, 127
1, 97435, Note_on_c, 1, 64, 127
1, 97435, Note_on_c, 1, 76, 127
1, 97473, Note_off_c, 1, 52, 0
1, 97473, Note_off_c, 1, 64, 0
1, 97473, Note_off_c, 1, 76, 0
1, 97551, Note_on_c, 1, 62, 127
1, 97551, Note_on_c, 1, 74, 127
1, 97551, Note_on_c, 1, 86, 127
1, 97553, Note_on_c, 1, 68, 127
1, 97553, Note_on_c, 1, 80, 127
1, 97553, Note_on_c, 1, 92, 127
1, 97558, Note_on_c, 1, 52, 127
1, 97558, Note_on_c, 1, 64, 127
1, 97558, Note_on_c, 1, 76, 127
1, 97662, Note_off_c, 1, 62, 0
1, 97662, Note_off_c, 1, 74, 0
1, 97662, Note_off_c, 1, 86, 0
1, 97664, Note_off_c, 1, 68, 0
1, 97664, Note_off_c, 1, 80, 0
1, 97664, Note_off_c, 1, 92, 0
1, 97673, Note_on_c, 1, 47, 127
1, 97673, Note_on_c, 1, 59, 127
1, 97673, Note_on_c, 1, 71, 127
1, 97685, Note_off_c, 1, 52, 0
1, 97685, Note_off_c, 1, 64, 0
1, 97685, Note_off_c, 1, 76, 0
1, 97716, Note_off_c, 1, 47, 0
1, 97716, Note_off_c, 1, 59, 0
1, 97716, Note_off_c, 1, 71, 0
1, 97786, Note_on_c, 1, 52, 127
1, 97786, Note_on_c, 1, 64, 127
1, 97786, Note_on_c, 1, 76, 127
1, 97834, Note_off_c, 1, 52, 0
1, 97834, Note_off_c, 1, 64, 0
1, 97834, Note_off_c, 1, 76, 0
1, 97903, Note_on_c, 1, 64, 127
1, 97903, Note_on_c, 1, 76, 127
1, 97903, Note_on_c, 1, 88, 127
1, 97904, Note_on_c, 1, 69, 127
1, 97904, Note_on_c, 1, 81, 127
1, 97904, Note_on_c, 1, 93, 127
1, 97906, Note_on_c, 1, 49, 127
1, 97906, Note_on_c, 1, 61, 127
1, 97906, Note_on_c, 1, 73, 127
1, 98025, Note_off_c, 1, 49, 0
1, 98025, Note_off_c, 1, 61, 0
1, 98025, Note_off_c, 1, 73, 0
1, 98025, Note_on_c, 1, 45, 127
1, 98025, Note_on_c, 1, 57, 127
1, 98041, Note_off_c, 1, 64, 0
1, 98041, Note_off_c, 1, 76, 0
1, 98041, Note_off_c, 1, 88, 0
1, 98046, Note_off_c, 1, 81, 0
1, 98046, Note_off_c, 1, 93, 0
1, 98070, Note_off_c, 1, 69, 0
1, 98070, Note_off_c, 1, 45, 0
1, 98070, Note_off_c, 1, 57, 0
1, 98137, Note_on_c, 1, 47, 127
1, 98137, Note_on_c, 1, 56, 127
1, 98137, Note_on_c, 1, 59, 127
1, 98137, Note_on_c, 1, 68, 127
1, 98137, Note_on_c, 1, 71, 127
1, 98137, Note_on_c, 1, 80, 127
1, 98156, Note_on_c, 1, 76, 127
1, 98156, Note_on_c, 1, 88, 127
1, 98156, Note_on_c, 1, 100, 127
1, 98187, Note_off_c, 1, 47, 0
1, 98187, Note_off_c, 1, 59, 0
1, 98187, Note_off_c, 1, 71, 0
1, 98187, Note_off_c, 1, 76, 0
1, 98187, Note_off_c, 1, 88, 0
1, 98187, Note_off_c, 1, 100, 0
1, 98188, Note_off_c, 1, 56, 0
1, 98188, Note_off_c, 1, 68, 0
1, 98188, Note_off_c, 1, 80, 0
1, 98268, Note_on_c, 1, 49, 127
1, 98268, Note_on_c, 1, 61, 127
1, 98268, Note_on_c, 1, 73, 127
1, 98269, Note_on_c, 1, 57, 127
1, 98269, Note_on_c, 1, 69, 127
1, 98269, Note_on_c, 1, 81, 127
1, 98283, Note_on_c, 1, 76, 127
1, 98283, Note_on_c, 1, 88, 127
1, 98283, Note_on_c, 1, 100, 127
1, 98381, Note_off_c, 1, 49, 0
1, 98381, Note_off_c, 1, 61, 0
1, 98381, Note_off_c, 1, 73, 0
1, 98387, Note_on_c, 1, 52, 127
1, 98387, Note_on_c, 1, 64, 127
1, 98404, Note_on_c, 1, 85, 127
1, 98404, Note_on_c, 1, 97, 127
1, 98415, Note_off_c, 1, 88, 0
1, 98415, Note_off_c, 1, 100, 0
1, 98438, Note_off_c, 1, 85, 0
1, 98438, Note_off_c, 1, 97, 0
1, 98515, Note_on_c, 1, 50, 127
1, 98515, Note_on_c, 1, 62, 127
1, 98515, Note_on_c, 1, 74, 127
1, 98521, Note_off_c, 1, 52, 0
1, 98521, Note_off_c, 1, 64, 0
1, 98551, Note_off_c, 1, 76, 0
1, 98600, Note_off_c, 1, 50, 0
1, 98600, Note_off_c, 1, 62, 0
1, 98600, Note_off_c, 1, 74, 0
1, 98762, Note_on_c, 1, 71, 127
1, 98762, Note_on_c, 1, 83, 127
1, 98762, Note_on_c, 1, 95, 127
1, 98795, Note_off_c, 1, 71, 0
1, 98795, Note_off_c, 1, 83, 0
1, 98795, Note_off_c, 1, 95, 0
1, 98857, Note_off_c, 1, 57, 0
1, 98857, Note_off_c, 1, 69, 0
1, 98857, Note_off_c, 1, 81, 0
1, 98873, Note_on_c, 1, 56, 127
1, 98873, Note_on_c, 1, 68, 127
1, 98873, Note_on_c, 1, 80, 127
1, 98910, Note_off_c, 1, 56, 0
1, 98910, Note_off_c, 1, 68, 0
1, 98910, Note_off_c, 1, 80, 0
1, 98999, Note_on_c, 1, 73, 127
1, 98999, Note_on_c, 1, 57, 127
1, 98999, Note_on_c, 1, 85, 127
1, 98999, Note_on_c, 1, 69, 127
1, 98999, Note_on_c, 1, 97, 127
1, 98999, Note_on_c, 1, 81, 127
1, 99114, Note_on_c, 1, 61, 127
1, 99122, Note_on_c, 1, 93, 127
1, 99125, Note_off_c, 1, 97, 0
1, 99164, Note_off_c, 1, 93, 0
1, 99243, Note_on_c, 1, 64, 127
1, 99243, Note_on_c, 1, 76, 127
1, 99243, Note_on_c, 1, 88, 127
1, 99252, Note_off_c, 1, 61, 0
1, 99267, Note_off_c, 1, 57, 0
1, 99267, Note_off_c, 1, 69, 0
1, 99267, Note_off_c, 1, 81, 0
1, 99272, Note_off_c, 1, 73, 0
1, 99272, Note_off_c, 1, 85, 0
1, 99446, Note_off_c, 1, 64, 0
1, 99446, Note_off_c, 1, 76, 0
1, 99446, Note_off_c, 1, 88, 0
1, 99588, Note_on_c, 1, 66, 127
1, 99588, Note_on_c, 1, 78, 127
1, 99588, Note_on_c, 1, 90, 127
1, 99703, Note_on_c, 1, 49, 127
1, 99703, Note_on_c, 1, 37, 127
1, 99703, Note_on_c, 1, 25, 127
1, 99708, Note_on_c, 1, 56, 127
1, 99708, Note_on_c, 1, 68, 127
1, 99708, Note_on_c, 1, 80, 127
1, 99837, Note_on_c, 1, 92, 127
1, 99869, Note_off_c, 1, 56, 0
1, 99880, Note_off_c, 1, 68, 0
1, 99880, Note_off_c, 1, 80, 0
1, 99880, Note_off_c, 1, 92, 0
1, 99892, Note_off_c, 1, 66, 0
1, 99892, Note_off_c, 1, 78, 0
1, 99892, Note_off_c, 1, 90, 0
1, 99947, Note_on_c, 1, 65, 127
1, 99947, Note_on_c, 1, 77, 127
1, 99947, Note_on_c, 1, 89, 127
1, 99955, Note_off_c, 1, 49, 0
1, 99955, Note_off_c, 1, 37, 0
1, 99955, Note_off_c, 1, 25, 0
1, 100021, Note_off_c, 1, 65, 0
1, 100021, Note_off_c, 1, 77, 0
1, 100021, Note_off_c, 1, 89, 0
1, 100070, Note_on_c, 1, 54, 127
1, 100070, Note_on_c, 1, 66, 127
1, 100070, Note_on_c, 1, 78, 127
1, 100077, Note_on_c, 1, 69, 127
1, 100077, Note_on_c, 1, 81, 127
1, 100077, Note_on_c, 1, 93, 127
1, 100077, Note_on_c, 1, 49, 127
1, 100077, Note_on_c, 1, 37, 127
1, 100077, Note_on_c, 1, 25, 127
1, 100187, Note_on_c, 1, 61, 127
1, 100187, Note_on_c, 1, 73, 127
1, 100187, Note_on_c, 1, 85, 127
1, 100193, Note_on_c, 1, 90, 127
1, 100200, Note_off_c, 1, 69, 0
1, 100200, Note_off_c, 1, 81, 0
1, 100200, Note_off_c, 1, 93, 0
1, 100235, Note_off_c, 1, 61, 0
1, 100235, Note_off_c, 1, 73, 0
1, 100235, Note_off_c, 1, 85, 0
1, 100239, Note_off_c, 1, 90, 0
1, 100397, Note_off_c, 1, 54, 0
1, 100403, Note_off_c, 1, 66, 0
1, 100403, Note_off_c, 1, 78, 0
1, 100420, Note_on_c, 1, 57, 127
1, 100426, Note_on_c, 1, 97, 127
1, 100545, Note_off_c, 1, 97, 0
1, 100667, Note_off_c, 1, 49, 0
1, 100667, Note_off_c, 1, 37, 0
1, 100667, Note_off_c, 1, 25, 0
1, 100777, Note_on_c, 1, 58, 127
1, 100777, Note_on_c, 1, 70, 127
1, 100777, Note_on_c, 1, 82, 127
1, 100786, Note_off_c, 1, 57, 0
1, 100800, Note_on_c, 1, 76, 127
1, 100800, Note_on_c, 1, 88, 127
1, 100800, Note_on_c, 1, 100, 127
1, 100923, Note_off_c, 1, 76, 0
1, 100923, Note_off_c, 1, 88, 0
1, 100923, Note_off_c, 1, 100, 0
1, 101089, Note_off_c, 1, 58, 0
1, 101089, Note_off_c, 1, 70, 0
1, 101089, Note_off_c, 1, 82, 0
1, 101151, Note_on_c, 1, 59, 127
1, 101151, Note_on_c, 1, 71, 127
1, 101151, Note_on_c, 1, 83, 127
1, 101152, Note_on_c, 1, 47, 127
1, 101152, Note_on_c, 1, 35, 127
1, 101152, Note_on_c, 1, 23, 127
1, 101161, Note_on_c, 1, 75, 127
1, 101161, Note_on_c, 1, 87, 127
1, 101161, Note_on_c, 1, 99, 127
1, 101283, Note_on_c, 1, 95, 127
1, 101284, Note_off_c, 1, 75, 0
1, 101284, Note_off_c, 1, 87, 0
1, 101284, Note_off_c, 1, 99, 0
1, 101286, Note_on_c, 1, 63, 127
1, 101339, Note_off_c, 1, 95, 0
1, 101345, Note_off_c, 1, 63, 0
1, 101390, Note_on_c, 1, 66, 127
1, 101390, Note_on_c, 1, 78, 127
1, 101390, Note_on_c, 1, 90, 127
1, 101426, Note_off_c, 1, 66, 0
1, 101426, Note_off_c, 1, 78, 0
1, 101426, Note_off_c, 1, 90, 0
1, 101523, Note_on_c, 1, 102, 127
1, 101644, Note_off_c, 1, 102, 0
1, 101741, Note_off_c, 1, 47, 0
1, 101741, Note_off_c, 1, 35, 0
1, 101741, Note_off_c, 1, 23, 0
1, 101752, Note_on_c, 1, 69, 127
1, 101752, Note_on_c, 1, 81, 127
1, 101752, Note_on_c, 1, 93, 127
1, 101798, Note_off_c, 1, 69, 0
1, 101798, Note_off_c, 1, 81, 0
1, 101798, Note_off_c, 1, 93, 0
1, 101814, Note_off_c, 1, 59, 0
1, 101814, Note_off_c, 1, 71, 0
1, 101814, Note_off_c, 1, 83, 0
1, 101863, Note_on_c, 1, 44, 127
1, 101863, Note_on_c, 1, 32, 127
1, 101863, Note_on_c, 1, 20, 127
1, 101874, Note_on_c, 1, 64, 127
1, 101874, Note_on_c, 1, 76, 127
1, 101874, Note_on_c, 1, 88, 127
1, 101891, Note_on_c, 1, 83, 127
1, 101891, Note_on_c, 1, 95, 127
1, 101891, Note_on_c, 1, 107, 127
1, 102000, Note_off_c, 1, 64, 0
1, 102000, Note_off_c, 1, 76, 0
1, 102000, Note_off_c, 1, 88, 0
1, 102000, Note_on_c, 1, 68, 127
1, 102000, Note_on_c, 1, 80, 127
1, 102000, Note_on_c, 1, 92, 127
1, 102003, Note_off_c, 1, 83, 0
1, 102003, Note_off_c, 1, 95, 0
1, 102003, Note_off_c, 1, 107, 0
1, 102005, Note_on_c, 1, 71, 127
1, 102061, Note_off_c, 1, 71, 0
1, 102078, Note_off_c, 1, 68, 0
1, 102078, Note_off_c, 1, 80, 0
1, 102078, Note_off_c, 1, 92, 0
1, 102126, Note_on_c, 1, 74, 127
1, 102126, Note_on_c, 1, 86, 127
1, 102126, Note_on_c, 1, 98, 127
1, 102135, Note_off_c, 1, 44, 0
1, 102135, Note_off_c, 1, 32, 0
1, 102135, Note_off_c, 1, 20, 0
1, 102160, Note_off_c, 1, 74, 0
1, 102160, Note_off_c, 1, 86, 0
1, 102160, Note_off_c, 1, 98, 0
1, 102238, Note_on_c, 1, 45, 127
1, 102238, Note_on_c, 1, 33, 127
1, 102238, Note_on_c, 1, 21, 127
1, 102247, Note_on_c, 1, 64, 127
1, 102247, Note_on_c, 1, 76, 127
1, 102247, Note_on_c, 1, 88, 127
1, 102248, Note_on_c, 1, 73, 127
1, 102248, Note_on_c, 1, 85, 127
1, 102248, Note_on_c, 1, 97, 127
1, 102249, Note_on_c, 1, 69, 127
1, 102249, Note_on_c, 1, 81, 127
1, 102249, Note_on_c, 1, 93, 127
1, 102333, Note_off_c, 1, 73, 0
1, 102333, Note_off_c, 1, 85, 0
1, 102333, Note_off_c, 1, 97, 0
1, 102338, Note_off_c, 1, 69, 0
1, 102338, Note_off_c, 1, 81, 0
1, 102338, Note_off_c, 1, 93, 0
1, 102362, Note_on_c, 1, 61, 127
1, 102370, Note_on_c, 1, 100, 127
1, 102375, Note_off_c, 1, 64, 0
1, 102399, Note_off_c, 1, 61, 0
1, 102436, Note_off_c, 1, 76, 0
1, 102436, Note_off_c, 1, 88, 0
1, 102436, Note_off_c, 1, 100, 0
1, 102605, Note_on_c, 1, 71, 127
1, 102605, Note_on_c, 1, 83, 127
1, 102605, Note_on_c, 1, 95, 127
1, 102606, Note_on_c, 1, 44, 127
1, 102606, Note_on_c, 1, 32, 127
1, 102606, Note_on_c, 1, 20, 127
1, 102618, Note_off_c, 1, 45, 0
1, 102618, Note_off_c, 1, 33, 0
1, 102618, Note_off_c, 1, 21, 0
1, 102716, Note_on_c, 1, 59, 127
1, 102724, Note_off_c, 1, 95, 0
1, 102771, Note_off_c, 1, 71, 0
1, 102771, Note_off_c, 1, 83, 0
1, 102771, Note_off_c, 1, 59, 0
1, 102839, Note_on_c, 1, 68, 127
1, 102839, Note_on_c, 1, 80, 127
1, 102839, Note_on_c, 1, 92, 127
1, 102873, Note_off_c, 1, 68, 0
1, 102873, Note_off_c, 1, 80, 0
1, 102873, Note_off_c, 1, 92, 0
1, 102955, Note_on_c, 1, 42, 127
1, 102955, Note_on_c, 1, 30, 127
1, 102955, Note_on_c, 1, 18, 127
1, 102968, Note_off_c, 1, 44, 0
1, 102968, Note_off_c, 1, 32, 0
1, 102968, Note_off_c, 1, 20, 0
1, 103069, Note_on_c, 1, 57, 127
1, 103084, Note_on_c, 1, 75, 127
1, 103084, Note_on_c, 1, 87, 127
1, 103084, Note_on_c, 1, 99, 127
1, 103124, Note_off_c, 1, 57, 0
1, 103138, Note_off_c, 1, 75, 0
1, 103138, Note_off_c, 1, 87, 0
1, 103138, Note_off_c, 1, 99, 0
1, 103195, Note_on_c, 1, 63, 127
1, 103197, Note_on_c, 1, 66, 127
1, 103197, Note_on_c, 1, 78, 127
1, 103197, Note_on_c, 1, 90, 127
1, 103241, Note_off_c, 1, 63, 0
1, 103245, Note_off_c, 1, 66, 0
1, 103245, Note_off_c, 1, 78, 0
1, 103245, Note_off_c, 1, 90, 0
1, 103307, Note_off_c, 1, 42, 0
1, 103307, Note_off_c, 1, 30, 0
1, 103307, Note_off_c, 1, 18, 0
1, 103314, Note_on_c, 1, 40, 127
1, 103314, Note_on_c, 1, 28, 127
1, 103314, Note_on_c, 1, 16, 127
1, 103318, Note_on_c, 1, 64, 127
1, 103318, Note_on_c, 1, 76, 127
1, 103318, Note_on_c, 1, 88, 127
1, 103319, Note_on_c, 1, 68, 127
1, 103319, Note_on_c, 1, 80, 127
1, 103319, Note_on_c, 1, 92, 127
1, 103418, Note_off_c, 1, 64, 0
1, 103418, Note_off_c, 1, 76, 0
1, 103418, Note_off_c, 1, 88, 0
1, 103434, Note_on_c, 1, 59, 127
1, 103434, Note_on_c, 1, 71, 127
1, 103434, Note_on_c, 1, 83, 127
1, 103437, Note_off_c, 1, 68, 0
1, 103437, Note_off_c, 1, 80, 0
1, 103437, Note_off_c, 1, 92, 0
1, 103485, Note_off_c, 1, 59, 0
1, 103485, Note_off_c, 1, 71, 0
1, 103485, Note_off_c, 1, 83, 0
1, 103542, Note_on_c, 1, 63, 127
1, 103542, Note_on_c, 1, 75, 127
1, 103542, Note_on_c, 1, 87, 127
1, 103543, Note_on_c, 1, 57, 127
1, 103543, Note_on_c, 1, 69, 127
1, 103543, Note_on_c, 1, 81, 127
1, 103555, Note_on_c, 1, 95, 127
1, 103555, Note_on_c, 1, 107, 127
1, 103584, Note_off_c, 1, 63, 0
1, 103584, Note_off_c, 1, 75, 0
1, 103584, Note_off_c, 1, 87, 0
1, 103587, Note_off_c, 1, 95, 0
1, 103587, Note_off_c, 1, 107, 0
1, 103589, Note_off_c, 1, 57, 0
1, 103589, Note_off_c, 1, 69, 0
1, 103589, Note_off_c, 1, 81, 0
1, 103671, Note_on_c, 1, 56, 127
1, 103800, Note_on_c, 1, 104, 127
1, 103812, Note_off_c, 1, 56, 0
1, 103834, Note_off_c, 1, 104, 0
1, 104033, Note_on_c, 1, 54, 127
1, 104033, Note_on_c, 1, 66, 127
1, 104033, Note_on_c, 1, 78, 127
1, 104160, Note_on_c, 1, 90, 127
1, 104160, Note_on_c, 1, 102, 127
1, 104167, Note_off_c, 1, 54, 0
1, 104167, Note_off_c, 1, 66, 0
1, 104196, Note_off_c, 1, 78, 0
1, 104196, Note_off_c, 1, 90, 0
1, 104196, Note_off_c, 1, 102, 0
1, 104387, Note_on_c, 1, 52, 127
1, 104507, Note_on_c, 1, 100, 127
1, 104511, Note_on_c, 1, 61, 127
1, 104511, Note_on_c, 1, 73, 127
1, 104511, Note_on_c, 1, 85, 127
1, 104546, Note_off_c, 1, 61, 0
1, 104546, Note_off_c, 1, 73, 0
1, 104546, Note_off_c, 1, 85, 0
1, 104552, Note_off_c, 1, 100, 0
1, 104621, Note_on_c, 1, 62, 127
1, 104621, Note_on_c, 1, 74, 127
1, 104621, Note_on_c, 1, 86, 127
1, 104661, Note_off_c, 1, 62, 0
1, 104661, Note_off_c, 1, 74, 0
1, 104661, Note_off_c, 1, 86, 0
1, 104740, Note_off_c, 1, 52, 0
1, 104756, Note_on_c, 1, 93, 127
1, 104756, Note_on_c, 1, 105, 127
1, 104880, Note_on_c, 1, 97, 127
1, 104912, Note_off_c, 1, 97, 0
1, 104998, Note_off_c, 1, 93, 0
1, 104998, Note_off_c, 1, 105, 0
1, 105458, Note_off_c, 1, 40, 0
1, 105458, Note_off_c, 1, 28, 0
1, 105458, Note_off_c, 1, 16, 0
1, 105464, Note_on_c, 1, 81, 127
1, 105464, Note_on_c, 1, 93, 127
1, 105464, Note_on_c, 1, 105, 127
1, 105466, Note_on_c, 1, 73, 127
1, 105466, Note_on_c, 1, 57, 127
1, 105466, Note_on_c, 1, 85, 127
1, 105466, Note_on_c, 1, 69, 127
1, 105466, Note_on_c, 1, 97, 127
1, 105577, Note_off_c, 1, 93, 0
1, 105577, Note_off_c, 1, 105, 0
1, 105595, Note_off_c, 1, 73, 0
1, 105595, Note_off_c, 1, 85, 0
1, 105595, Note_off_c, 1, 97, 0
1, 105607, Note_off_c, 1, 57, 0
1, 105657, Note_off_c, 1, 81, 0
1, 105657, Note_off_c, 1, 69, 0
1, 105697, Note_on_c, 1, 52, 127
1, 105697, Note_on_c, 1, 64, 127
1, 105697, Note_on_c, 1, 76, 127
1, 105707, Note_on_c, 1, 68, 127
1, 105707, Note_on_c, 1, 80, 127
1, 105707, Note_on_c, 1, 92, 127
1, 105710, Note_on_c, 1, 71, 127
1, 105710, Note_on_c, 1, 83, 127
1, 105710, Note_on_c, 1, 95, 127
1, 105738, Note_off_c, 1, 52, 0
1, 105738, Note_off_c, 1, 64, 0
1, 105738, Note_off_c, 1, 76, 0
1, 105758, Note_off_c, 1, 71, 0
1, 105758, Note_off_c, 1, 83, 0
1, 105758, Note_off_c, 1, 95, 0
1, 105760, Note_off_c, 1, 68, 0
1, 105760, Note_off_c, 1, 80, 0
1, 105760, Note_off_c, 1, 92, 0
1, 105827, Note_on_c, 1, 52, 127
1, 105827, Note_on_c, 1, 64, 127
1, 105827, Note_on_c, 1, 76, 127
1, 105829, Note_on_c, 1, 69, 127
1, 105829, Note_on_c, 1, 81, 127
1, 105829, Note_on_c, 1, 93, 127
1, 105830, Note_on_c, 1, 73, 127
1, 105830, Note_on_c, 1, 85, 127
1, 105830, Note_on_c, 1, 97, 127
1, 105893, Note_off_c, 1, 73, 0
1, 105893, Note_off_c, 1, 85, 0
1, 105893, Note_off_c, 1, 97, 0
1, 105946, Note_on_c, 1, 49, 127
1, 105946, Note_on_c, 1, 61, 127
1, 105955, Note_on_c, 1, 88, 127
1, 105955, Note_on_c, 1, 100, 127
1, 105963, Note_off_c, 1, 52, 0
1, 105963, Note_off_c, 1, 64, 0
1, 105985, Note_off_c, 1, 49, 0
1, 105985, Note_off_c, 1, 61, 0
1, 106008, Note_off_c, 1, 76, 0
1, 106008, Note_off_c, 1, 88, 0
1, 106008, Note_off_c, 1, 100, 0
1, 106012, Note_off_c, 1, 69, 0
1, 106012, Note_off_c, 1, 81, 0
1, 106012, Note_off_c, 1, 93, 0
1, 106065, Note_on_c, 1, 52, 127
1, 106065, Note_on_c, 1, 64, 127
1, 106065, Note_on_c, 1, 76, 127
1, 106070, Note_on_c, 1, 69, 127
1, 106070, Note_on_c, 1, 81, 127
1, 106070, Note_on_c, 1, 93, 127
1, 106071, Note_on_c, 1, 73, 127
1, 106071, Note_on_c, 1, 85, 127
1, 106071, Note_on_c, 1, 97, 127
1, 106108, Note_off_c, 1, 52, 0
1, 106108, Note_off_c, 1, 64, 0
1, 106108, Note_off_c, 1, 76, 0
1, 106118, Note_off_c, 1, 73, 0
1, 106118, Note_off_c, 1, 85, 0
1, 106118, Note_off_c, 1, 97, 0
1, 106136, Note_off_c, 1, 69, 0
1, 106136, Note_off_c, 1, 81, 0
1, 106136, Note_off_c, 1, 93, 0
1, 106184, Note_on_c, 1, 52, 127
1, 106184, Note_on_c, 1, 40, 127
1, 106184, Note_on_c, 1, 28, 127
1, 106187, Note_on_c, 1, 68, 127
1, 106187, Note_on_c, 1, 80, 127
1, 106187, Note_on_c, 1, 92, 127
1, 106188, Note_on_c, 1, 71, 127
1, 106188, Note_on_c, 1, 83, 127
1, 106188, Note_on_c, 1, 95, 127
1, 106191, Note_on_c, 1, 64, 127
1, 106191, Note_on_c, 1, 76, 127
1, 106258, Note_off_c, 1, 71, 0
1, 106258, Note_off_c, 1, 83, 0
1, 106258, Note_off_c, 1, 95, 0
1, 106305, Note_on_c, 1, 47, 127
1, 106305, Note_on_c, 1, 74, 127
1, 106305, Note_on_c, 1, 59, 127
1, 106305, Note_on_c, 1, 86, 127
1, 106305, Note_on_c, 1, 98, 127
1, 106318, Note_off_c, 1, 64, 0
1, 106318, Note_off_c, 1, 76, 0
1, 106327, Note_off_c, 1, 68, 0
1, 106327, Note_off_c, 1, 80, 0
1, 106327, Note_off_c, 1, 92, 0
1, 106352, Note_off_c, 1, 47, 0
1, 106352, Note_off_c, 1, 59, 0
1, 106358, Note_off_c, 1, 74, 0
1, 106358, Note_off_c, 1, 86, 0
1, 106358, Note_off_c, 1, 98, 0
1, 106407, Note_off_c, 1, 52, 0
1, 106407, Note_off_c, 1, 40, 0
1, 106407, Note_off_c, 1, 28, 0
1, 106419, Note_on_c, 1, 68, 127
1, 106419, Note_on_c, 1, 80, 127
1, 106419, Note_on_c, 1, 92, 127
1, 106420, Note_on_c, 1, 71, 127
1, 106420, Note_on_c, 1, 83, 127
1, 106420, Note_on_c, 1, 95, 127
1, 106421, Note_on_c, 1, 52, 127
1, 106421, Note_on_c, 1, 64, 127
1, 106421, Note_on_c, 1, 76, 127
1, 106457, Note_off_c, 1, 68, 0
1, 106457, Note_off_c, 1, 80, 0
1, 106457, Note_off_c, 1, 92, 0
1, 106458, Note_off_c, 1, 71, 0
1, 106458, Note_off_c, 1, 83, 0
1, 106458, Note_off_c, 1, 95, 0
1, 106469, Note_off_c, 1, 52, 0
1, 106469, Note_off_c, 1, 64, 0
1, 106469, Note_off_c, 1, 76, 0
1, 106540, Note_on_c, 1, 49, 127
1, 106540, Note_on_c, 1, 61, 127
1, 106540, Note_on_c, 1, 73, 127
1, 106541, Note_on_c, 1, 69, 127
1, 106541, Note_on_c, 1, 81, 127
1, 106541, Note_on_c, 1, 93, 127
1, 106543, Note_on_c, 1, 85, 127
1, 106543, Note_on_c, 1, 97, 127
1, 106554, Note_on_c, 1, 52, 127
1, 106554, Note_on_c, 1, 40, 127
1, 106554, Note_on_c, 1, 28, 127
1, 106663, Note_on_c, 1, 45, 127
1, 106663, Note_on_c, 1, 57, 127
1, 106664, Note_off_c, 1, 49, 0
1, 106664, Note_off_c, 1, 61, 0
1, 106671, Note_on_c, 1, 76, 127
1, 106671, Note_on_c, 1, 88, 127
1, 106671, Note_on_c, 1, 100, 127
1, 106677, Note_off_c, 1, 73, 0
1, 106677, Note_off_c, 1, 85, 0
1, 106677, Note_off_c, 1, 97, 0
1, 106698, Note_off_c, 1, 76, 0
1, 106698, Note_off_c, 1, 88, 0
1, 106698, Note_off_c, 1, 100, 0
1, 106705, Note_off_c, 1, 81, 0
1, 106705, Note_off_c, 1, 93, 0
1, 106722, Note_off_c, 1, 69, 0
1, 106722, Note_off_c, 1, 45, 0
1, 106722, Note_off_c, 1, 57, 0
1, 106777, Note_on_c, 1, 47, 127
1, 106777, Note_on_c, 1, 59, 127
1, 106777, Note_on_c, 1, 71, 127
1, 106794, Note_on_c, 1, 64, 127
1, 106795, Note_on_c, 1, 68, 127
1, 106795, Note_on_c, 1, 80, 127
1, 106795, Note_on_c, 1, 92, 127
1, 106835, Note_off_c, 1, 68, 0
1, 106835, Note_off_c, 1, 80, 0
1, 106835, Note_off_c, 1, 92, 0
1, 106836, Note_off_c, 1, 47, 0
1, 106836, Note_off_c, 1, 59, 0
1, 106836, Note_off_c, 1, 71, 0
1, 106840, Note_off_c, 1, 64, 0
1, 107267, Note_off_c, 1, 52, 0
1, 107267, Note_off_c, 1, 40, 0
1, 107267, Note_off_c, 1, 28, 0
1, 107272, Note_on_c, 1, 50, 127
1, 107272, Note_on_c, 1, 38, 127
1, 107272, Note_on_c, 1, 26, 127
1, 107275, Note_on_c, 1, 52, 127
1, 107275, Note_on_c, 1, 64, 127
1, 107275, Note_on_c, 1, 76, 127
1, 107292, Note_on_c, 1, 68, 127
1, 107292, Note_on_c, 1, 80, 127
1, 107292, Note_on_c, 1, 88, 127
1, 107292, Note_on_c, 1, 92, 127
1, 107360, Note_off_c, 1, 88, 0
1, 107404, Note_on_c, 1, 56, 127
1, 107412, Note_on_c, 1, 59, 127
1, 107412, Note_on_c, 1, 71, 127
1, 107412, Note_on_c, 1, 83, 127
1, 107414, Note_off_c, 1, 52, 0
1, 107414, Note_off_c, 1, 64, 0
1, 107414, Note_off_c, 1, 76, 0
1, 107434, Note_off_c, 1, 59, 0
1, 107434, Note_off_c, 1, 71, 0
1, 107434, Note_off_c, 1, 83, 0
1, 107463, Note_off_c, 1, 56, 0
1, 107558, Note_off_c, 1, 68, 0
1, 107558, Note_off_c, 1, 80, 0
1, 107558, Note_off_c, 1, 92, 0
1, 107649, Note_off_c, 1, 50, 0
1, 107649, Note_off_c, 1, 38, 0
1, 107649, Note_off_c, 1, 26, 0
1, 107651, Note_on_c, 1, 49, 127
1, 107651, Note_on_c, 1, 37, 127
1, 107651, Note_on_c, 1, 25, 127
1, 107654, Note_on_c, 1, 57, 127
1, 107654, Note_on_c, 1, 69, 127
1, 107654, Note_on_c, 1, 81, 127
1, 107657, Note_on_c, 1, 64, 127
1, 107657, Note_on_c, 1, 76, 127
1, 107657, Note_on_c, 1, 88, 127
1, 107658, Note_on_c, 1, 93, 127
1, 107783, Note_off_c, 1, 93, 0
1, 107787, Note_off_c, 1, 64, 0
1, 107787, Note_off_c, 1, 76, 0
1, 107787, Note_off_c, 1, 88, 0
1, 107794, Note_on_c, 1, 73, 127
1, 107794, Note_on_c, 1, 85, 127
1, 107794, Note_on_c, 1, 97, 127
1, 107795, Note_on_c, 1, 61, 127
1, 107917, Note_off_c, 1, 97, 0
1, 107922, Note_on_c, 1, 63, 127
1, 107922, Note_on_c, 1, 75, 127
1, 107922, Note_on_c, 1, 87, 127
1, 107924, Note_on_c, 1, 72, 127
1, 107924, Note_on_c, 1, 84, 127
1, 107924, Note_on_c, 1, 96, 127
1, 107926, Note_off_c, 1, 73, 0
1, 107926, Note_off_c, 1, 85, 0
1, 107926, Note_off_c, 1, 61, 0
1, 108025, Note_off_c, 1, 63, 0
1, 108025, Note_off_c, 1, 75, 0
1, 108025, Note_off_c, 1, 87, 0
1, 108028, Note_on_c, 1, 65, 127
1, 108028, Note_on_c, 1, 77, 127
1, 108028, Note_on_c, 1, 89, 127
1, 108029, Note_on_c, 1, 71, 127
1, 108029, Note_on_c, 1, 83, 127
1, 108029, Note_on_c, 1, 95, 127
1, 108031, Note_off_c, 1, 72, 0
1, 108031, Note_off_c, 1, 84, 0
1, 108031, Note_off_c, 1, 96, 0
1, 108042, Note_on_c, 1, 56, 127
1, 108042, Note_on_c, 1, 68, 127
1, 108042, Note_on_c, 1, 80, 127
1, 108054, Note_off_c, 1, 57, 0
1, 108054, Note_off_c, 1, 69, 0
1, 108054, Note_off_c, 1, 81, 0
1, 108085, Note_off_c, 1, 49, 0
1, 108085, Note_off_c, 1, 37, 0
1, 108085, Note_off_c, 1, 25, 0
1, 108145, Note_on_c, 1, 70, 127
1, 108145, Note_on_c, 1, 82, 127
1, 108145, Note_on_c, 1, 94, 127
1, 108146, Note_on_c, 1, 66, 127
1, 108146, Note_on_c, 1, 78, 127
1, 108146, Note_on_c, 1, 90, 127
1, 108147, Note_off_c, 1, 65, 0
1, 108147, Note_off_c, 1, 77, 0
1, 108147, Note_off_c, 1, 89, 0
1, 108148, Note_on_c, 1, 54, 127
1, 108149, Note_off_c, 1, 56, 0
1, 108149, Note_off_c, 1, 68, 0
1, 108149, Note_off_c, 1, 80, 0
1, 108151, Note_off_c, 1, 71, 0
1, 108151, Note_off_c, 1, 83, 0
1, 108151, Note_off_c, 1, 95, 0
1, 108162, Note_on_c, 1, 42, 127
1, 108162, Note_on_c, 1, 30, 127
1, 108227, Note_off_c, 1, 70, 0
1, 108227, Note_off_c, 1, 82, 0
1, 108227, Note_off_c, 1, 94, 0
1, 108254, Note_on_c, 1, 62, 127
1, 108254, Note_on_c, 1, 74, 127
1, 108254, Note_on_c, 1, 86, 127
1, 108257, Note_on_c, 1, 102, 127
1, 108263, Note_off_c, 1, 66, 0
1, 108364, Note_off_c, 1, 54, 0
1, 108364, Note_off_c, 1, 42, 0
1, 108364, Note_off_c, 1, 30, 0
1, 108370, Note_on_c, 1, 53, 127
1, 108370, Note_on_c, 1, 41, 127
1, 108370, Note_on_c, 1, 29, 127
1, 108375, Note_on_c, 1, 92, 127
1, 108375, Note_on_c, 1, 104, 127
1, 108379, Note_off_c, 1, 78, 0
1, 108379, Note_off_c, 1, 90, 0
1, 108379, Note_off_c, 1, 102, 0
1, 108482, Note_on_c, 1, 67, 127
1, 108482, Note_on_c, 1, 79, 127
1, 108482, Note_on_c, 1, 91, 127
1, 108486, Note_on_c, 1, 106, 127
1, 108486, Note_on_c, 1, 52, 127
1, 108486, Note_on_c, 1, 40, 127
1, 108486, Note_on_c, 1, 28, 127
1, 108487, Note_off_c, 1, 53, 0
1, 108487, Note_off_c, 1, 41, 0
1, 108487, Note_off_c, 1, 29, 0
1, 108487, Note_off_c, 1, 92, 0
1, 108487, Note_off_c, 1, 104, 0
1, 108488, Note_off_c, 1, 62, 0
1, 108488, Note_off_c, 1, 74, 0
1, 108488, Note_off_c, 1, 86, 0
1, 108584, Note_off_c, 1, 67, 0
1, 108584, Note_off_c, 1, 79, 0
1, 108584, Note_off_c, 1, 91, 0
1, 108593, Note_off_c, 1, 106, 0
1, 108593, Note_on_c, 1, 51, 127
1, 108593, Note_on_c, 1, 39, 127
1, 108593, Note_on_c, 1, 27, 127
1, 108597, Note_off_c, 1, 52, 0
1, 108597, Note_off_c, 1, 40, 0
1, 108597, Note_off_c, 1, 28, 0
1, 108601, Note_on_c, 1, 107, 127
1, 108704, Note_off_c, 1, 51, 0
1, 108704, Note_off_c, 1, 39, 0
1, 108704, Note_off_c, 1, 27, 0
1, 108720, Note_on_c, 1, 105, 127
1, 108730, Note_off_c, 1, 107, 0
1, 108817, Note_on_c, 1, 50, 127
1, 108817, Note_on_c, 1, 38, 127
1, 108817, Note_on_c, 1, 26, 127
1, 108829, Note_on_c, 1, 103, 127
1, 108832, Note_off_c, 1, 105, 0
1, 108951, Note_off_c, 1, 103, 0
1, 109064, Note_on_c, 1, 101, 127
1, 109071, Note_off_c, 1, 50, 0
1, 109071, Note_off_c, 1, 38, 0
1, 109071, Note_off_c, 1, 26, 0
1, 109188, Note_off_c, 1, 101, 0
1, 109303, Note_on_c, 1, 60, 127
1, 109303, Note_on_c, 1, 99, 127
1, 109416, Note_off_c, 1, 99, 0
1, 109421, Note_on_c, 1, 59, 127
1, 109423, Note_off_c, 1, 60, 0
1, 109427, Note_on_c, 1, 100, 127
1, 109545, Note_on_c, 1, 58, 127
1, 109549, Note_off_c, 1, 59, 0
1, 109666, Note_off_c, 1, 58, 0
1, 109669, Note_on_c, 1, 98, 127
1, 109675, Note_off_c, 1, 100, 0
1, 109919, Note_off_c, 1, 98, 0
1, 111020, Note_on_c, 1, 54, 127
1, 111020, Note_on_c, 1, 42, 127
1, 111020, Note_on_c, 1, 30, 127
1, 111145, Note_off_c, 1, 54, 0
1, 111145, Note_off_c, 1, 42, 0
1, 111145, Note_off_c, 1, 30, 0
1, 111248, Note_on_c, 1, 52, 127
1, 111248, Note_on_c, 1, 40, 127
1, 111248, Note_on_c, 1, 28, 127
1, 111289, Note_on_c, 1, 64, 127
1, 111289, Note_on_c, 1, 76, 127
1, 111289, Note_on_c, 1, 88, 127
1, 111341, Note_on_c, 1, 66, 127
1, 111341, Note_on_c, 1, 78, 127
1, 111341, Note_on_c, 1, 90, 127
1, 111345, Note_off_c, 1, 64, 0
1, 111345, Note_off_c, 1, 76, 0
1, 111345, Note_off_c, 1, 88, 0
1, 111392, Note_on_c, 1, 68, 127
1, 111392, Note_on_c, 1, 80, 127
1, 111392, Note_on_c, 1, 92, 127
1, 111397, Note_off_c, 1, 66, 0
1, 111397, Note_off_c, 1, 78, 0
1, 111397, Note_off_c, 1, 90, 0
1, 111448, Note_off_c, 1, 68, 0
1, 111448, Note_off_c, 1, 80, 0
1, 111448, Note_off_c, 1, 92, 0
1, 111451, Note_on_c, 1, 69, 127
1, 111451, Note_on_c, 1, 81, 127
1, 111451, Note_on_c, 1, 93, 127
1, 111503, Note_on_c, 1, 71, 127
1, 111503, Note_on_c, 1, 83, 127
1, 111503, Note_on_c, 1, 95, 127
1, 111509, Note_off_c, 1, 69, 0
1, 111509, Note_off_c, 1, 81, 0
1, 111509, Note_off_c, 1, 93, 0
1, 111560, Note_on_c, 1, 50, 127
1, 111560, Note_on_c, 1, 38, 127
1, 111560, Note_on_c, 1, 26, 127
1, 111561, Note_on_c, 1, 73, 127
1, 111561, Note_on_c, 1, 85, 127
1, 111561, Note_on_c, 1, 97, 127
1, 111570, Note_off_c, 1, 71, 0
1, 111570, Note_off_c, 1, 83, 0
1, 111570, Note_off_c, 1, 95, 0
1, 111573, Note_off_c, 1, 52, 0
1, 111573, Note_off_c, 1, 40, 0
1, 111573, Note_off_c, 1, 28, 0
1, 111618, Note_off_c, 1, 73, 0
1, 111618, Note_off_c, 1, 85, 0
1, 111618, Note_off_c, 1, 97, 0
1, 111618, Note_on_c, 1, 74, 127
1, 111618, Note_on_c, 1, 86, 127
1, 111618, Note_on_c, 1, 98, 127
1, 111668, Note_on_c, 1, 49, 127
1, 111668, Note_on_c, 1, 37, 127
1, 111668, Note_on_c, 1, 25, 127
1, 111672, Note_off_c, 1, 50, 0
1, 111672, Note_off_c, 1, 38, 0
1, 111672, Note_off_c, 1, 26, 0
1, 111677, Note_on_c, 1, 100, 127
1, 111686, Note_off_c, 1, 74, 0
1, 111686, Note_off_c, 1, 86, 0
1, 111686, Note_off_c, 1, 98, 0
1, 111742, Note_off_c, 1, 100, 0
1, 111865, Note_off_c, 1, 49, 0
1, 111865, Note_off_c, 1, 37, 0
1, 111865, Note_off_c, 1, 25, 0
1, 111913, Note_on_c, 1, 47, 127
1, 111913, Note_on_c, 1, 35, 127
1, 111913, Note_on_c, 1, 23, 127
1, 112282, Note_on_c, 1, 62, 127
1, 112287, Note_off_c, 1, 47, 0
1, 112287, Note_off_c, 1, 35, 0
1, 112287, Note_off_c, 1, 23, 0
1, 112362, Note_on_c, 1, 61, 127
1, 112363, Note_off_c, 1, 62, 0
1, 112417, Note_off_c, 1, 61, 0
1, 112420, Note_on_c, 1, 59, 127
1, 112421, Note_on_c, 1, 102, 127
1, 112475, Note_off_c, 1, 59, 0
1, 112483, Note_off_c, 1, 102, 0
1, 112668, Note_on_c, 1, 52, 127
1, 112668, Note_on_c, 1, 40, 127
1, 112668, Note_on_c, 1, 28, 127
1, 112671, Note_on_c, 1, 68, 127
1, 112671, Note_on_c, 1, 80, 127
1, 112671, Note_on_c, 1, 92, 127
1, 112672, Note_on_c, 1, 71, 127
1, 112672, Note_on_c, 1, 83, 127
1, 112672, Note_on_c, 1, 95, 127
1, 112731, Note_on_c, 1, 64, 127
1, 112731, Note_on_c, 1, 76, 127
1, 112787, Note_on_c, 1, 54, 127
1, 112787, Note_on_c, 1, 66, 127
1, 112787, Note_on_c, 1, 78, 127
1, 112791, Note_off_c, 1, 71, 0
1, 112791, Note_off_c, 1, 83, 0
1, 112791, Note_off_c, 1, 95, 0
1, 112793, Note_on_c, 1, 69, 127
1, 112793, Note_on_c, 1, 81, 127
1, 112793, Note_on_c, 1, 93, 127
1, 112795, Note_off_c, 1, 68, 0
1, 112795, Note_off_c, 1, 80, 0
1, 112795, Note_off_c, 1, 92, 0
1, 112799, Note_off_c, 1, 64, 0
1, 112799, Note_off_c, 1, 76, 0
1, 112844, Note_on_c, 1, 56, 127
1, 112849, Note_off_c, 1, 69, 0
1, 112849, Note_off_c, 1, 81, 0
1, 112849, Note_off_c, 1, 93, 0
1, 112850, Note_off_c, 1, 54, 0
1, 112850, Note_off_c, 1, 66, 0
1, 112850, Note_off_c, 1, 78, 0
1, 112901, Note_off_c, 1, 56, 0
1, 112903, Note_on_c, 1, 57, 127
1, 112913, Note_on_c, 1, 73, 127
1, 112913, Note_on_c, 1, 85, 127
1, 112913, Note_on_c, 1, 97, 127
1, 112967, Note_on_c, 1, 59, 127
1, 112968, Note_off_c, 1, 57, 0
1, 112979, Note_off_c, 1, 73, 0
1, 112979, Note_off_c, 1, 85, 0
1, 112979, Note_off_c, 1, 97, 0
1, 112980, Note_on_c, 1, 74, 127
1, 112980, Note_on_c, 1, 86, 127
1, 112980, Note_on_c, 1, 98, 127
1, 113022, Note_on_c, 1, 50, 127
1, 113022, Note_on_c, 1, 38, 127
1, 113022, Note_on_c, 1, 26, 127
1, 113025, Note_on_c, 1, 61, 127
1, 113026, Note_off_c, 1, 52, 0
1, 113026, Note_off_c, 1, 40, 0
1, 113026, Note_off_c, 1, 28, 0
1, 113033, Note_off_c, 1, 59, 0
1, 113040, Note_on_c, 1, 88, 127
1, 113040, Note_on_c, 1, 100, 127
1, 113041, Note_off_c, 1, 74, 0
1, 113041, Note_off_c, 1, 86, 0
1, 113041, Note_off_c, 1, 98, 0
1, 113088, Note_off_c, 1, 61, 0
1, 113088, Note_on_c, 1, 62, 127
1, 113149, Note_on_c, 1, 49, 127
1, 113149, Note_on_c, 1, 37, 127
1, 113149, Note_on_c, 1, 25, 127
1, 113157, Note_off_c, 1, 62, 0
1, 113160, Note_off_c, 1, 50, 0
1, 113160, Note_off_c, 1, 38, 0
1, 113160, Note_off_c, 1, 26, 0
1, 113207, Note_off_c, 1, 100, 0
1, 113217, Note_off_c, 1, 88, 0
1, 113339, Note_off_c, 1, 49, 0
1, 113339, Note_off_c, 1, 37, 0
1, 113339, Note_off_c, 1, 25, 0
1, 113386, Note_on_c, 1, 90, 127
1, 113450, Note_on_c, 1, 67, 127
1, 113450, Note_on_c, 1, 79, 127
1, 113450, Note_on_c, 1, 91, 127
1, 113451, Note_off_c, 1, 90, 0
1, 113510, Note_off_c, 1, 67, 0
1, 113510, Note_off_c, 1, 79, 0
1, 113510, Note_off_c, 1, 91, 0
1, 113620, Note_on_c, 1, 47, 127
1, 113620, Note_on_c, 1, 35, 127
1, 113620, Note_on_c, 1, 23, 127
1, 114048, Note_off_c, 1, 47, 0
1, 114048, Note_off_c, 1, 35, 0
1, 114048, Note_off_c, 1, 23, 0
1, 114088, Note_on_c, 1, 45, 127
1, 114088, Note_on_c, 1, 33, 127
1, 114088, Note_on_c, 1, 21, 127
1, 114505, Note_on_c, 1, 55, 127
1, 114573, Note_off_c, 1, 55, 0
1, 115893, Note_on_c, 1, 102, 127
1, 115950, Note_on_c, 1, 103, 127
1, 115951, Note_off_c, 1, 102, 0
1, 116011, Note_on_c, 1, 105, 127
1, 116015, Note_off_c, 1, 103, 0
1, 116077, Note_off_c, 1, 105, 0
1, 117102, Note_on_c, 1, 104, 127
1, 117165, Note_off_c, 1, 104, 0
1, 120607, Note_off_c, 1, 45, 0
1, 120607, Note_off_c, 1, 33, 0
1, 120607, Note_off_c, 1, 21, 0
1, 120607, End_track
0, 0, End_of_file