0, 0, Header, 1, 1, 480
1, 0, Start_track
1, 0, Title_t, "Test"
1, 0, Tempo, 500000
1, 0, Instrument_name_t, "Church Organ"
1, 0, Note_on_c, 1, 59, 127
1, 768, Note_off_c, 1, 59, 0
1, 960, Note_on_c, 1, 52, 127
1, 1344, Note_off_c, 1, 52, 0
1, 1440, Note_on_c, 1, 59, 127
1, 1824, Note_off_c, 1, 59, 0
1, 1920, Note_on_c, 1, 60, 127
1, 2304, Note_off_c, 1, 60, 0
1, 2400, Note_on_c, 1, 59, 127
1, 2592, Note_off_c, 1, 59, 0
1, 2640, Note_on_c, 1, 57, 127
1, 2832, Note_off_c, 1, 57, 0
1, 2880, Note_on_c, 1, 55, 127
1, 3264, Note_off_c, 1, 55, 0
1, 3360, Note_on_c, 1, 57, 127
1, 3744, Note_off_c, 1, 57, 0
1, 3840, Note_on_c, 1, 59, 127
1, 4032, Note_off_c, 1, 59, 0
1, 4080, Note_on_c, 1, 52, 127
1, 4320, Note_on_c, 1, 64, 127
1, 4464, Note_off_c, 1, 52, 0
1, 4560, Note_on_c, 1, 50, 127
1, 4704, Note_off_c, 1, 64, 0
1, 4752, Note_off_c, 1, 50, 0
1, 4800, Note_on_c, 1, 49, 127
1, 4800, Note_on_c, 1, 57, 127
1, 4992, Note_off_c, 1, 49, 0
1, 5040, Note_on_c, 1, 50, 127
1, 5184, Note_off_c, 1, 57, 0
1, 5280, Note_on_c, 1, 76, 127
1, 5280, Note_on_c, 1, 64, 127
1, 5424, Note_off_c, 1, 50, 0
1, 5664, Note_off_c, 1, 76, 0
1, 5664, Note_off_c, 1, 64, 0
1, 5760, Note_on_c, 1, 69, 127
1, 5760, Note_on_c, 1, 50, 127
1, 5760, Note_on_c, 1, 65, 127
1, 5952, Note_off_c, 1, 50, 0
1, 6000, Note_on_c, 1, 62, 127
1, 6144, Note_off_c, 1, 69, 0
1, 6144, Note_off_c, 1, 65, 0
1, 6192, Note_off_c, 1, 62, 0
1, 6240, Note_on_c, 1, 76, 127
1, 6240, Note_on_c, 1, 64, 127
1, 6240, Note_on_c, 1, 60, 127
1, 6432, Note_off_c, 1, 64, 0
1, 6432, Note_off_c, 1, 60, 0
1, 6480, Note_on_c, 1, 59, 127
1, 6480, Note_on_c, 1, 62, 127
1, 6624, Note_off_c, 1, 76, 0
1, 6672, Note_off_c, 1, 59, 0
1, 6672, Note_off_c, 1, 62, 0
1, 6720, Note_on_c, 1, 77, 127
1, 6720, Note_on_c, 1, 60, 127
1, 6720, Note_on_c, 1, 57, 127
1, 7104, Note_off_c, 1, 77, 0
1, 7104, Note_off_c, 1, 60, 0
1, 7200, Note_on_c, 1, 76, 127
1, 7200, Note_on_c, 1, 62, 127
1, 7392, Note_off_c, 1, 76, 0
1, 7440, Note_on_c, 1, 74, 127
1, 7584, Note_off_c, 1, 62, 0
1, 7632, Note_off_c, 1, 74, 0
1, 7680, Note_on_c, 1, 72, 127
1, 7680, Note_on_c, 1, 64, 127
1, 7872, Note_off_c, 1, 64, 0
1, 8130, Note_off_c, 1, 72, 0
1, 8160, Note_on_c, 1, 71, 127
1, 8160, Note_on_c, 1, 65, 127
1, 8544, Note_off_c, 1, 71, 0
1, 8544, Note_off_c, 1, 65, 0
1, 8640, Note_on_c, 1, 59, 127
1, 8832, Note_off_c, 1, 57, 0
1, 8880, Note_on_c, 1, 56, 127
1, 8976, Note_off_c, 1, 56, 0
1, 9000, Note_on_c, 1, 54, 127
1, 9096, Note_off_c, 1, 54, 0
1, 9408, Note_off_c, 1, 59, 0
1, 9600, Note_on_c, 1, 72, 127
1, 9600, Note_on_c, 1, 57, 127
1, 9840, Note_on_c, 1, 69, 127
1, 9984, Note_off_c, 1, 72, 0
1, 9984, Note_off_c, 1, 57, 0
1, 10032, Note_off_c, 1, 69, 0
1, 10080, Note_on_c, 1, 71, 127
1, 10080, Note_on_c, 1, 74, 127
1, 10080, Note_on_c, 1, 67, 127
1, 10080, Note_on_c, 1, 59, 127
1, 10272, Note_off_c, 1, 71, 0
1, 10272, Note_off_c, 1, 67, 0
1, 10320, Note_on_c, 1, 69, 127
1, 10320, Note_on_c, 1, 65, 127
1, 10464, Note_off_c, 1, 74, 0
1, 10464, Note_off_c, 1, 59, 0
1, 10512, Note_off_c, 1, 69, 0
1, 10512, Note_off_c, 1, 65, 0
1, 10560, Note_on_c, 1, 67, 127
1, 10560, Note_on_c, 1, 76, 127
1, 10560, Note_on_c, 1, 64, 127
1, 10560, Note_on_c, 1, 60, 127
1, 10752, Note_off_c, 1, 64, 0
1, 10752, Note_off_c, 1, 60, 0
1, 10800, Note_on_c, 1, 62, 127
1, 10800, Note_on_c, 1, 59, 127
1, 10944, Note_off_c, 1, 67, 0
1, 10992, Note_off_c, 1, 62, 0
1, 10992, Note_off_c, 1, 59, 0
1, 11040, Note_on_c, 1, 69, 127
1, 11040, Note_on_c, 1, 57, 127
1, 11136, Note_off_c, 1, 76, 0
1, 11280, Note_on_c, 1, 78, 127
1, 11424, Note_off_c, 1, 69, 0
1, 11424, Note_off_c, 1, 57, 0
1, 11472, Note_off_c, 1, 78, 0
1, 11520, Note_on_c, 1, 71, 127
1, 11520, Note_on_c, 1, 79, 127
1, 11520, Note_on_c, 1, 55, 127
1, 11520, Note_on_c, 1, 59, 127
1, 11520, Note_on_c, 1, 52, 127
1, 11712, Note_off_c, 1, 71, 0
1, 11760, Note_on_c, 1, 76, 127
1, 11904, Note_off_c, 1, 55, 0
1, 12144, Note_off_c, 1, 76, 0
1, 12240, Note_on_c, 1, 74, 127
1, 12288, Note_off_c, 1, 59, 0
1, 12432, Note_off_c, 1, 74, 0
1, 12480, Note_on_c, 1, 72, 127
1, 12480, Note_on_c, 1, 57, 127
1, 12480, Note_on_c, 1, 45, 127
1, 12672, Note_off_c, 1, 79, 0
1, 12672, Note_off_c, 1, 52, 0
1, 12720, Note_on_c, 1, 77, 127
1, 12720, Note_on_c, 1, 53, 127
1, 12864, Note_off_c, 1, 72, 0
1, 12864, Note_off_c, 1, 57, 0
1, 12864, Note_off_c, 1, 45, 0
1, 12912, Note_off_c, 1, 53, 0
1, 13104, Note_off_c, 1, 77, 0
1, 13200, Note_on_c, 1, 60, 127
1, 13440, Note_on_c, 1, 69, 127
1, 13632, Note_off_c, 1, 60, 0
1, 13680, Note_on_c, 1, 62, 127
1, 13872, Note_off_c, 1, 62, 0
1, 13920, Note_on_c, 1, 64, 127
1, 14016, Note_off_c, 1, 69, 0
1, 14160, Note_on_c, 1, 68, 127
1, 14160, Note_on_c, 1, 50, 127
1, 14352, Note_off_c, 1, 50, 0
1, 14400, Note_off_c, 1, 68, 0
1, 14400, Note_on_c, 1, 48, 127
1, 14688, Note_off_c, 1, 64, 0
1, 14784, Note_off_c, 1, 48, 0
1, 14880, Note_on_c, 1, 71, 127
1, 14880, Note_on_c, 1, 65, 127
1, 14880, Note_on_c, 1, 62, 127
1, 14880, Note_on_c, 1, 50, 127
1, 15072, Note_off_c, 1, 71, 0
1, 15072, Note_off_c, 1, 62, 0
1, 15120, Note_on_c, 1, 69, 127
1, 15120, Note_on_c, 1, 60, 127
1, 15264, Note_off_c, 1, 65, 0
1, 15264, Note_off_c, 1, 50, 0
1, 15312, Note_off_c, 1, 69, 0
1, 15312, Note_off_c, 1, 60, 0
1, 15360, Note_on_c, 1, 64, 127
1, 15360, Note_on_c, 1, 68, 127
1, 15360, Note_on_c, 1, 59, 127
1, 15360, Note_on_c, 1, 52, 127
1, 15552, Note_off_c, 1, 64, 0
1, 15552, Note_off_c, 1, 52, 0
1, 15600, Note_on_c, 1, 62, 127
1, 15600, Note_on_c, 1, 47, 127
1, 15648, Note_off_c, 1, 59, 0
1, 15696, Note_off_c, 1, 62, 0
1, 15720, Note_on_c, 1, 60, 127
1, 15816, Note_off_c, 1, 60, 0
1, 15840, Note_on_c, 1, 65, 127
1, 15936, Note_off_c, 1, 68, 0
1, 15984, Note_off_c, 1, 47, 0
1, 16080, Note_on_c, 1, 69, 127
1, 16080, Note_on_c, 1, 45, 127
1, 16224, Note_off_c, 1, 65, 0
1, 16272, Note_off_c, 1, 69, 0
1, 16272, Note_off_c, 1, 45, 0
1, 16320, Note_on_c, 1, 71, 127
1, 16320, Note_on_c, 1, 44, 127
1, 16512, Note_off_c, 1, 71, 0
1, 16512, Note_off_c, 1, 44, 0
1, 16560, Note_on_c, 1, 72, 127
1, 16656, Note_off_c, 1, 72, 0
1, 16680, Note_on_c, 1, 74, 127
1, 16776, Note_off_c, 1, 74, 0
1, 16800, Note_on_c, 1, 76, 127
1, 17184, Note_off_c, 1, 76, 0
1, 17760, Note_on_c, 1, 48, 127
1, 18000, Note_on_c, 1, 57, 127
1, 18144, Note_off_c, 1, 48, 0
1, 18192, Note_off_c, 1, 57, 0
1, 18240, Note_on_c, 1, 77, 127
1, 18240, Note_on_c, 1, 74, 127
1, 18240, Note_on_c, 1, 56, 127
1, 18240, Note_on_c, 1, 62, 127
1, 18240, Note_on_c, 1, 47, 127
1, 18240, Note_on_c, 1, 59, 127
1, 18432, Note_off_c, 1, 56, 0
1, 18480, Note_on_c, 1, 57, 127
1, 18624, Note_off_c, 1, 77, 0
1, 18624, Note_off_c, 1, 74, 0
1, 18624, Note_off_c, 1, 62, 0
1, 18624, Note_off_c, 1, 47, 0
1, 18720, Note_on_c, 1, 76, 127
1, 18720, Note_on_c, 1, 71, 127
1, 18720, Note_on_c, 1, 64, 127
1, 18720, Note_on_c, 1, 52, 127
1, 18864, Note_off_c, 1, 57, 0
1, 18912, Note_off_c, 1, 76, 0
1, 19008, Note_off_c, 1, 59, 0
1, 19104, Note_off_c, 1, 71, 0
1, 19104, Note_off_c, 1, 52, 0
1, 19200, Note_on_c, 1, 72, 127
1, 19200, Note_on_c, 1, 69, 127
1, 19200, Note_on_c, 1, 45, 127
1, 19200, Note_on_c, 1, 60, 127
1, 19392, Note_off_c, 1, 72, 0
1, 19392, Note_off_c, 1, 45, 0
1, 19680, Note_on_c, 1, 48, 127
1, 19776, Note_off_c, 1, 69, 0
1, 19872, Note_off_c, 1, 48, 0
1, 19920, Note_on_c, 1, 81, 127
1, 19968, Note_off_c, 1, 64, 0
1, 19968, Note_off_c, 1, 60, 0
1, 20160, Note_on_c, 1, 50, 127
1, 20352, Note_off_c, 1, 81, 0
1, 20352, Note_off_c, 1, 50, 0
1, 20400, Note_on_c, 1, 79, 127
1, 20400, Note_on_c, 1, 67, 127
1, 20592, Note_off_c, 1, 67, 0
1, 20640, Note_on_c, 1, 53, 127
1, 20784, Note_off_c, 1, 79, 0
1, 20832, Note_off_c, 1, 53, 0
1, 21120, Note_on_c, 1, 55, 127
1, 21360, Note_on_c, 1, 43, 127
1, 21552, Note_off_c, 1, 43, 0
1, 21888, Note_off_c, 1, 55, 0
1, 23280, Note_on_c, 1, 68, 127
1, 23376, Note_off_c, 1, 68, 0
1, 23400, Note_on_c, 1, 66, 127
1, 23496, Note_off_c, 1, 66, 0
1, 23520, Note_on_c, 1, 40, 127
1, 23904, Note_off_c, 1, 40, 0
1, 24000, Note_on_c, 1, 72, 127
1, 24000, Note_on_c, 1, 69, 127
1, 24000, Note_on_c, 1, 64, 127
1, 24000, Note_on_c, 1, 60, 127
1, 24000, Note_on_c, 1, 45, 127
1, 24192, Note_off_c, 1, 72, 0
1, 24240, Note_on_c, 1, 76, 127
1, 24384, Note_off_c, 1, 69, 0
1, 24384, Note_off_c, 1, 64, 0
1, 24384, Note_off_c, 1, 60, 0
1, 24384, Note_off_c, 1, 45, 0
1, 24432, Note_off_c, 1, 76, 0
1, 24480, Note_on_c, 1, 78, 127
1, 24480, Note_on_c, 1, 62, 127
1, 24672, Note_off_c, 1, 78, 0
1, 24720, Note_on_c, 1, 80, 127
1, 24864, Note_off_c, 1, 62, 0
1, 24912, Note_off_c, 1, 80, 0
1, 24960, Note_on_c, 1, 81, 127
1, 24960, Note_on_c, 1, 60, 127
1, 25152, Note_off_c, 1, 81, 0
1, 25152, Note_off_c, 1, 60, 0
1, 25200, Note_on_c, 1, 59, 127
1, 25392, Note_off_c, 1, 59, 0
1, 25440, Note_on_c, 1, 64, 127
1, 25440, Note_on_c, 1, 60, 127
1, 25440, Note_on_c, 1, 57, 127
1, 25632, Note_off_c, 1, 64, 0
1, 25632, Note_off_c, 1, 60, 0
1, 25680, Note_on_c, 1, 65, 127
1, 25680, Note_on_c, 1, 62, 127
1, 25824, Note_off_c, 1, 57, 0
1, 25872, Note_off_c, 1, 65, 0
1, 25872, Note_off_c, 1, 62, 0
1, 25920, Note_on_c, 1, 67, 127
1, 25920, Note_on_c, 1, 55, 127
1, 25920, Note_on_c, 1, 64, 127
1, 26160, Note_on_c, 1, 71, 127
1, 26304, Note_off_c, 1, 67, 0
1, 26304, Note_off_c, 1, 55, 0
1, 26352, Note_off_c, 1, 71, 0
1, 26400, Note_on_c, 1, 72, 127
1, 26400, Note_on_c, 1, 69, 127
1, 26400, Note_on_c, 1, 53, 127
1, 26496, Note_off_c, 1, 64, 0
1, 26592, Note_off_c, 1, 72, 0
1, 26640, Note_on_c, 1, 74, 127
1, 26640, Note_on_c, 1, 62, 127
1, 26784, Note_off_c, 1, 69, 0
1, 26784, Note_off_c, 1, 53, 0
1, 26832, Note_off_c, 1, 74, 0
1, 26880, Note_on_c, 1, 76, 127
1, 26880, Note_on_c, 1, 52, 127
1, 27072, Note_off_c, 1, 62, 0
1, 27072, Note_off_c, 1, 52, 0
1, 27120, Note_on_c, 1, 65, 127
1, 27120, Note_on_c, 1, 60, 127
1, 27216, Note_off_c, 1, 60, 0
1, 27240, Note_on_c, 1, 59, 127
1, 27312, Note_off_c, 1, 65, 0
1, 27336, Note_off_c, 1, 59, 0
1, 27552, Note_off_c, 1, 76, 0
1, 27840, Note_on_c, 1, 71, 127
1, 27840, Note_on_c, 1, 62, 127
1, 27840, Note_on_c, 1, 55, 127
1, 28080, Note_on_c, 1, 47, 127
1, 28224, Note_off_c, 1, 71, 0
1, 28224, Note_off_c, 1, 62, 0
1, 28272, Note_off_c, 1, 47, 0
1, 28320, Note_on_c, 1, 60, 127
1, 28320, Note_on_c, 1, 48, 127
1, 28320, Note_on_c, 1, 57, 127
1, 28416, Note_off_c, 1, 55, 0
1, 28512, Note_off_c, 1, 48, 0
1, 28560, Note_on_c, 1, 54, 127
1, 28560, Note_on_c, 1, 50, 127
1, 28704, Note_off_c, 1, 60, 0
1, 28704, Note_off_c, 1, 57, 0
1, 28752, Note_off_c, 1, 54, 0
1, 28752, Note_off_c, 1, 50, 0
1, 28800, Note_on_c, 1, 59, 127
1, 28800, Note_on_c, 1, 55, 127
1, 28800, Note_on_c, 1, 52, 127
1, 28992, Note_off_c, 1, 59, 0
1, 29040, Note_on_c, 1, 57, 127
1, 29040, Note_on_c, 1, 53, 127
1, 29232, Note_off_c, 1, 57, 0
1, 29232, Note_off_c, 1, 53, 0
1, 29376, Note_off_c, 1, 55, 0
1, 29520, Note_on_c, 1, 61, 127
1, 29664, Note_off_c, 1, 52, 0
1, 29712, Note_off_c, 1, 61, 0
1, 29760, Note_on_c, 1, 62, 127
1, 29760, Note_on_c, 1, 58, 127
1, 29760, Note_on_c, 1, 53, 127
1, 29760, Note_on_c, 1, 50, 127
1, 29952, Note_off_c, 1, 58, 0
1, 29952, Note_off_c, 1, 53, 0
1, 30000, Note_on_c, 1, 69, 127
1, 30000, Note_on_c, 1, 57, 127
1, 30000, Note_on_c, 1, 54, 127
1, 30144, Note_off_c, 1, 62, 0
1, 30144, Note_off_c, 1, 50, 0
1, 30192, Note_off_c, 1, 69, 0
1, 30192, Note_off_c, 1, 57, 0
1, 30192, Note_off_c, 1, 54, 0
1, 30240, Note_on_c, 1, 71, 127
1, 30240, Note_on_c, 1, 56, 127
1, 30240, Note_on_c, 1, 64, 127
1, 30240, Note_on_c, 1, 48, 127
1, 30432, Note_off_c, 1, 71, 0
1, 30432, Note_off_c, 1, 56, 0
1, 30480, Note_on_c, 1, 69, 127
1, 30480, Note_on_c, 1, 57, 127
1, 30624, Note_off_c, 1, 64, 0
1, 30624, Note_off_c, 1, 48, 0
1, 30672, Note_off_c, 1, 57, 0
1, 30720, Note_on_c, 1, 74, 127
1, 30720, Note_on_c, 1, 59, 127
1, 30720, Note_on_c, 1, 62, 127
1, 30720, Note_on_c, 1, 47, 127
1, 30912, Note_off_c, 1, 69, 0
1, 30912, Note_off_c, 1, 74, 0
1, 30912, Note_off_c, 1, 47, 0
1, 30960, Note_on_c, 1, 68, 127
1, 30960, Note_on_c, 1, 76, 127
1, 31056, Note_off_c, 1, 68, 0
1, 31080, Note_on_c, 1, 66, 127
1, 31104, Note_off_c, 1, 59, 0
1, 31152, Note_off_c, 1, 76, 0
1, 31176, Note_off_c, 1, 66, 0
1, 31200, Note_on_c, 1, 77, 127
1, 31440, Note_on_c, 1, 45, 127
1, 31632, Note_off_c, 1, 45, 0
1, 31680, Note_on_c, 1, 44, 127
1, 31872, Note_off_c, 1, 62, 0
1, 31872, Note_off_c, 1, 77, 0
1, 32064, Note_off_c, 1, 44, 0
1, 32160, Note_on_c, 1, 40, 127
1, 32544, Note_off_c, 1, 40, 0
1, 32640, Note_on_c, 1, 72, 127
1, 32640, Note_on_c, 1, 60, 127
1, 33024, Note_off_c, 1, 72, 0
1, 33120, Note_on_c, 1, 58, 127
1, 33120, Note_on_c, 1, 52, 127
1, 33360, Note_on_c, 1, 67, 127
1, 33408, Note_off_c, 1, 60, 0
1, 33504, Note_off_c, 1, 58, 0
1, 33504, Note_off_c, 1, 52, 0
1, 33552, Note_off_c, 1, 67, 0
1, 33600, Note_on_c, 1, 65, 127
1, 33600, Note_on_c, 1, 57, 127
1, 33600, Note_on_c, 1, 53, 127
1, 33600, Note_on_c, 1, 62, 127
1, 33792, Note_off_c, 1, 57, 0
1, 33792, Note_off_c, 1, 53, 0
1, 33840, Note_on_c, 1, 67, 127
1, 33840, Note_on_c, 1, 55, 127
1, 33840, Note_on_c, 1, 52, 127
1, 34032, Note_off_c, 1, 67, 0
1, 34032, Note_off_c, 1, 55, 0
1, 34032, Note_off_c, 1, 52, 0
1, 34080, Note_on_c, 1, 69, 127
1, 34272, Note_off_c, 1, 69, 0
1, 34320, Note_on_c, 1, 71, 127
1, 34368, Note_off_c, 1, 65, 0
1, 34368, Note_off_c, 1, 62, 0
1, 34512, Note_off_c, 1, 71, 0
1, 34560, Note_on_c, 1, 72, 127
1, 34560, Note_on_c, 1, 52, 127
1, 34560, Note_on_c, 1, 57, 127
1, 34560, Note_on_c, 1, 60, 127
1, 34752, Note_off_c, 1, 72, 0
1, 34752, Note_off_c, 1, 57, 0
1, 34800, Note_on_c, 1, 74, 127
1, 34800, Note_on_c, 1, 45, 127
1, 34896, Note_off_c, 1, 74, 0
1, 34920, Note_on_c, 1, 76, 127
1, 34944, Note_off_c, 1, 52, 0
1, 34944, Note_off_c, 1, 60, 0
1, 35016, Note_off_c, 1, 76, 0
1, 35040, Note_on_c, 1, 77, 127
1, 35040, Note_on_c, 1, 50, 127
1, 35040, Note_on_c, 1, 59, 127
1, 35184, Note_off_c, 1, 45, 0
1, 35232, Note_off_c, 1, 77, 0
1, 35280, Note_on_c, 1, 44, 127
1, 35424, Note_off_c, 1, 50, 0
1, 35472, Note_off_c, 1, 59, 0
1, 35472, Note_off_c, 1, 44, 0
1, 35520, Note_on_c, 1, 48, 127
1, 35760, Note_on_c, 1, 62, 127
1, 35760, Note_on_c, 1, 47, 127
1, 35904, Note_off_c, 1, 48, 0
1, 35952, Note_off_c, 1, 62, 0
1, 35952, Note_off_c, 1, 47, 0
1, 36000, Note_on_c, 1, 64, 127
1, 36240, Note_on_c, 1, 66, 127
1, 36432, Note_off_c, 1, 66, 0
1, 36480, Note_on_c, 1, 67, 127
1, 36480, Note_on_c, 1, 71, 127
1, 36480, Note_on_c, 1, 55, 127
1, 36672, Note_off_c, 1, 67, 0
1, 36720, Note_on_c, 1, 69, 127
1, 36720, Note_on_c, 1, 53, 127
1, 36864, Note_off_c, 1, 71, 0
1, 36912, Note_off_c, 1, 69, 0
1, 36912, Note_off_c, 1, 53, 0
1, 37056, Note_off_c, 1, 64, 0
1, 37200, Note_on_c, 1, 70, 127
1, 37200, Note_on_c, 1, 73, 127
1, 37248, Note_off_c, 1, 55, 0
1, 37392, Note_off_c, 1, 70, 0
1, 37392, Note_off_c, 1, 73, 0
1, 37440, Note_on_c, 1, 65, 127
1, 37536, Note_off_c, 1, 65, 0
1, 37800, Note_on_c, 1, 61, 127
1, 37896, Note_off_c, 1, 61, 0
1, 38160, Note_on_c, 1, 56, 127
1, 38256, Note_off_c, 1, 56, 0
1, 38400, Note_on_c, 1, 68, 127
1, 38592, Note_off_c, 1, 68, 0
1, 40200, Note_on_c, 1, 51, 127
1, 40296, Note_off_c, 1, 51, 0
1, 40320, Note_on_c, 1, 40, 127
1, 40704, Note_off_c, 1, 40, 0
1, 40800, Note_on_c, 1, 59, 127
1, 41184, Note_off_c, 1, 59, 0
1, 41280, Note_on_c, 1, 52, 127
1, 41664, Note_off_c, 1, 52, 0
1, 41760, Note_on_c, 1, 59, 127
1, 42144, Note_off_c, 1, 59, 0
1, 42240, Note_on_c, 1, 60, 127
1, 42624, Note_off_c, 1, 60, 0
1, 42720, Note_on_c, 1, 59, 127
1, 42912, Note_off_c, 1, 59, 0
1, 42960, Note_on_c, 1, 57, 127
1, 43152, Note_off_c, 1, 57, 0
1, 43200, Note_on_c, 1, 55, 127
1, 43584, Note_off_c, 1, 55, 0
1, 43680, Note_on_c, 1, 57, 127
1, 44064, Note_off_c, 1, 57, 0
1, 44160, Note_on_c, 1, 59, 127
1, 44352, Note_off_c, 1, 59, 0
1, 44400, Note_on_c, 1, 52, 127
1, 44640, Note_on_c, 1, 64, 127
1, 44784, Note_off_c, 1, 52, 0
1, 44880, Note_on_c, 1, 50, 127
1, 45024, Note_off_c, 1, 64, 0
1, 45072, Note_off_c, 1, 50, 0
1, 45120, Note_on_c, 1, 49, 127
1, 45120, Note_on_c, 1, 57, 127
1, 45312, Note_off_c, 1, 49, 0
1, 45360, Note_on_c, 1, 50, 127
1, 45504, Note_off_c, 1, 57, 0
1, 45600, Note_on_c, 1, 76, 127
1, 45600, Note_on_c, 1, 64, 127
1, 45744, Note_off_c, 1, 50, 0
1, 45984, Note_off_c, 1, 76, 0
1, 45984, Note_off_c, 1, 64, 0
1, 46080, Note_on_c, 1, 69, 127
1, 46080, Note_on_c, 1, 50, 127
1, 46080, Note_on_c, 1, 65, 127
1, 46272, Note_off_c, 1, 50, 0
1, 46320, Note_on_c, 1, 62, 127
1, 46464, Note_off_c, 1, 69, 0
1, 46464, Note_off_c, 1, 65, 0
1, 46512, Note_off_c, 1, 62, 0
1, 46560, Note_on_c, 1, 76, 127
1, 46560, Note_on_c, 1, 64, 127
1, 46560, Note_on_c, 1, 60, 127
1, 46752, Note_off_c, 1, 64, 0
1, 46752, Note_off_c, 1, 60, 0
1, 46800, Note_on_c, 1, 59, 127
1, 46800, Note_on_c, 1, 62, 127
1, 46944, Note_off_c, 1, 76, 0
1, 46992, Note_off_c, 1, 59, 0
1, 46992, Note_off_c, 1, 62, 0
1, 47040, Note_on_c, 1, 77, 127
1, 47040, Note_on_c, 1, 60, 127
1, 47040, Note_on_c, 1, 57, 127
1, 47424, Note_off_c, 1, 77, 0
1, 47424, Note_off_c, 1, 60, 0
1, 47520, Note_on_c, 1, 76, 127
1, 47520, Note_on_c, 1, 62, 127
1, 47712, Note_off_c, 1, 76, 0
1, 47760, Note_on_c, 1, 74, 127
1, 47904, Note_off_c, 1, 62, 0
1, 47952, Note_off_c, 1, 74, 0
1, 48000, Note_on_c, 1, 72, 127
1, 48000, Note_on_c, 1, 64, 127
1, 48192, Note_off_c, 1, 64, 0
1, 48450, Note_off_c, 1, 72, 0
1, 48480, Note_on_c, 1, 71, 127
1, 48480, Note_on_c, 1, 65, 127
1, 48864, Note_off_c, 1, 71, 0
1, 48864, Note_off_c, 1, 65, 0
1, 48960, Note_on_c, 1, 59, 127
1, 49152, Note_off_c, 1, 57, 0
1, 49200, Note_on_c, 1, 56, 127
1, 49296, Note_off_c, 1, 56, 0
1, 49320, Note_on_c, 1, 54, 127
1, 49416, Note_off_c, 1, 54, 0
1, 49728, Note_off_c, 1, 59, 0
1, 49920, Note_on_c, 1, 72, 127
1, 49920, Note_on_c, 1, 57, 127
1, 50160, Note_on_c, 1, 69, 127
1, 50304, Note_off_c, 1, 72, 0
1, 50304, Note_off_c, 1, 57, 0
1, 50352, Note_off_c, 1, 69, 0
1, 50400, Note_on_c, 1, 71, 127
1, 50400, Note_on_c, 1, 74, 127
1, 50400, Note_on_c, 1, 67, 127
1, 50400, Note_on_c, 1, 59, 127
1, 50592, Note_off_c, 1, 71, 0
1, 50592, Note_off_c, 1, 67, 0
1, 50640, Note_on_c, 1, 69, 127
1, 50640, Note_on_c, 1, 65, 127
1, 50784, Note_off_c, 1, 74, 0
1, 50784, Note_off_c, 1, 59, 0
1, 50832, Note_off_c, 1, 69, 0
1, 50832, Note_off_c, 1, 65, 0
1, 50880, Note_on_c, 1, 67, 127
1, 50880, Note_on_c, 1, 76, 127
1, 50880, Note_on_c, 1, 64, 127
1, 50880, Note_on_c, 1, 60, 127
1, 51072, Note_off_c, 1, 64, 0
1, 51072, Note_off_c, 1, 60, 0
1, 51120, Note_on_c, 1, 62, 127
1, 51120, Note_on_c, 1, 59, 127
1, 51264, Note_off_c, 1, 67, 0
1, 51312, Note_off_c, 1, 62, 0
1, 51312, Note_off_c, 1, 59, 0
1, 51360, Note_on_c, 1, 69, 127
1, 51360, Note_on_c, 1, 57, 127
1, 51456, Note_off_c, 1, 76, 0
1, 51600, Note_on_c, 1, 78, 127
1, 51744, Note_off_c, 1, 69, 0
1, 51744, Note_off_c, 1, 57, 0
1, 51792, Note_off_c, 1, 78, 0
1, 51840, Note_on_c, 1, 71, 127
1, 51840, Note_on_c, 1, 79, 127
1, 51840, Note_on_c, 1, 55, 127
1, 51840, Note_on_c, 1, 59, 127
1, 51840, Note_on_c, 1, 52, 127
1, 52032, Note_off_c, 1, 71, 0
1, 52080, Note_on_c, 1, 76, 127
1, 52224, Note_off_c, 1, 55, 0
1, 52464, Note_off_c, 1, 76, 0
1, 52560, Note_on_c, 1, 74, 127
1, 52608, Note_off_c, 1, 59, 0
1, 52752, Note_off_c, 1, 74, 0
1, 52800, Note_on_c, 1, 72, 127
1, 52800, Note_on_c, 1, 57, 127
1, 52800, Note_on_c, 1, 45, 127
1, 52992, Note_off_c, 1, 79, 0
1, 52992, Note_off_c, 1, 52, 0
1, 53040, Note_on_c, 1, 77, 127
1, 53040, Note_on_c, 1, 53, 127
1, 53184, Note_off_c, 1, 72, 0
1, 53184, Note_off_c, 1, 57, 0
1, 53184, Note_off_c, 1, 45, 0
1, 53232, Note_off_c, 1, 53, 0
1, 53424, Note_off_c, 1, 77, 0
1, 53520, Note_on_c, 1, 60, 127
1, 53760, Note_on_c, 1, 69, 127
1, 53952, Note_off_c, 1, 60, 0
1, 54000, Note_on_c, 1, 62, 127
1, 54192, Note_off_c, 1, 62, 0
1, 54240, Note_on_c, 1, 64, 127
1, 54336, Note_off_c, 1, 69, 0
1, 54480, Note_on_c, 1, 68, 127
1, 54480, Note_on_c, 1, 50, 127
1, 54672, Note_off_c, 1, 50, 0
1, 54720, Note_off_c, 1, 68, 0
1, 54720, Note_on_c, 1, 48, 127
1, 55008, Note_off_c, 1, 64, 0
1, 55104, Note_off_c, 1, 48, 0
1, 55200, Note_on_c, 1, 71, 127
1, 55200, Note_on_c, 1, 65, 127
1, 55200, Note_on_c, 1, 62, 127
1, 55200, Note_on_c, 1, 50, 127
1, 55392, Note_off_c, 1, 71, 0
1, 55392, Note_off_c, 1, 62, 0
1, 55440, Note_on_c, 1, 69, 127
1, 55440, Note_on_c, 1, 60, 127
1, 55584, Note_off_c, 1, 65, 0
1, 55584, Note_off_c, 1, 50, 0
1, 55632, Note_off_c, 1, 69, 0
1, 55632, Note_off_c, 1, 60, 0
1, 55680, Note_on_c, 1, 64, 127
1, 55680, Note_on_c, 1, 68, 127
1, 55680, Note_on_c, 1, 59, 127
1, 55680, Note_on_c, 1, 52, 127
1, 55872, Note_off_c, 1, 64, 0
1, 55872, Note_off_c, 1, 52, 0
1, 55920, Note_on_c, 1, 62, 127
1, 55920, Note_on_c, 1, 47, 127
1, 55968, Note_off_c, 1, 59, 0
1, 56016, Note_off_c, 1, 62, 0
1, 56040, Note_on_c, 1, 60, 127
1, 56136, Note_off_c, 1, 60, 0
1, 56160, Note_on_c, 1, 65, 127
1, 56256, Note_off_c, 1, 68, 0
1, 56304, Note_off_c, 1, 47, 0
1, 56400, Note_on_c, 1, 69, 127
1, 56400, Note_on_c, 1, 45, 127
1, 56544, Note_off_c, 1, 65, 0
1, 56592, Note_off_c, 1, 69, 0
1, 56592, Note_off_c, 1, 45, 0
1, 56640, Note_on_c, 1, 71, 127
1, 56640, Note_on_c, 1, 44, 127
1, 56832, Note_off_c, 1, 71, 0
1, 56832, Note_off_c, 1, 44, 0
1, 56880, Note_on_c, 1, 72, 127
1, 56976, Note_off_c, 1, 72, 0
1, 57000, Note_on_c, 1, 74, 127
1, 57096, Note_off_c, 1, 74, 0
1, 57120, Note_on_c, 1, 76, 127
1, 57504, Note_off_c, 1, 76, 0
1, 58080, Note_on_c, 1, 48, 127
1, 58320, Note_on_c, 1, 57, 127
1, 58464, Note_off_c, 1, 48, 0
1, 58512, Note_off_c, 1, 57, 0
1, 58560, Note_on_c, 1, 77, 127
1, 58560, Note_on_c, 1, 74, 127
1, 58560, Note_on_c, 1, 56, 127
1, 58560, Note_on_c, 1, 62, 127
1, 58560, Note_on_c, 1, 47, 127
1, 58560, Note_on_c, 1, 59, 127
1, 58752, Note_off_c, 1, 56, 0
1, 58800, Note_on_c, 1, 57, 127
1, 58944, Note_off_c, 1, 77, 0
1, 58944, Note_off_c, 1, 74, 0
1, 58944, Note_off_c, 1, 62, 0
1, 58944, Note_off_c, 1, 47, 0
1, 59040, Note_on_c, 1, 76, 127
1, 59040, Note_on_c, 1, 71, 127
1, 59040, Note_on_c, 1, 64, 127
1, 59040, Note_on_c, 1, 52, 127
1, 59184, Note_off_c, 1, 57, 0
1, 59232, Note_off_c, 1, 76, 0
1, 59328, Note_off_c, 1, 59, 0
1, 59424, Note_off_c, 1, 71, 0
1, 59424, Note_off_c, 1, 52, 0
1, 59520, Note_on_c, 1, 72, 127
1, 59520, Note_on_c, 1, 69, 127
1, 59520, Note_on_c, 1, 45, 127
1, 59520, Note_on_c, 1, 60, 127
1, 59712, Note_off_c, 1, 72, 0
1, 59712, Note_off_c, 1, 45, 0
1, 60000, Note_on_c, 1, 48, 127
1, 60096, Note_off_c, 1, 69, 0
1, 60192, Note_off_c, 1, 48, 0
1, 60240, Note_on_c, 1, 81, 127
1, 60288, Note_off_c, 1, 64, 0
1, 60288, Note_off_c, 1, 60, 0
1, 60480, Note_on_c, 1, 50, 127
1, 60672, Note_off_c, 1, 81, 0
1, 60672, Note_off_c, 1, 50, 0
1, 60720, Note_on_c, 1, 79, 127
1, 60720, Note_on_c, 1, 67, 127
1, 60912, Note_off_c, 1, 67, 0
1, 60960, Note_on_c, 1, 53, 127
1, 61104, Note_off_c, 1, 79, 0
1, 61152, Note_off_c, 1, 53, 0
1, 61440, Note_on_c, 1, 55, 127
1, 61680, Note_on_c, 1, 43, 127
1, 61872, Note_off_c, 1, 43, 0
1, 62208, Note_off_c, 1, 55, 0
1, 63600, Note_on_c, 1, 68, 127
1, 63696, Note_off_c, 1, 68, 0
1, 63720, Note_on_c, 1, 66, 127
1, 63816, Note_off_c, 1, 66, 0
1, 63840, Note_on_c, 1, 40, 127
1, 64224, Note_off_c, 1, 40, 0
1, 64320, Note_on_c, 1, 72, 127
1, 64320, Note_on_c, 1, 69, 127
1, 64320, Note_on_c, 1, 64, 127
1, 64320, Note_on_c, 1, 60, 127
1, 64320, Note_on_c, 1, 45, 127
1, 64512, Note_off_c, 1, 72, 0
1, 64560, Note_on_c, 1, 76, 127
1, 64704, Note_off_c, 1, 69, 0
1, 64704, Note_off_c, 1, 64, 0
1, 64704, Note_off_c, 1, 60, 0
1, 64704, Note_off_c, 1, 45, 0
1, 64752, Note_off_c, 1, 76, 0
1, 64800, Note_on_c, 1, 78, 127
1, 64800, Note_on_c, 1, 62, 127
1, 64992, Note_off_c, 1, 78, 0
1, 65040, Note_on_c, 1, 80, 127
1, 65184, Note_off_c, 1, 62, 0
1, 65232, Note_off_c, 1, 80, 0
1, 65280, Note_on_c, 1, 81, 127
1, 65280, Note_on_c, 1, 60, 127
1, 65472, Note_off_c, 1, 81, 0
1, 65472, Note_off_c, 1, 60, 0
1, 65520, Note_on_c, 1, 59, 127
1, 65712, Note_off_c, 1, 59, 0
1, 65760, Note_on_c, 1, 64, 127
1, 65760, Note_on_c, 1, 60, 127
1, 65760, Note_on_c, 1, 57, 127
1, 65952, Note_off_c, 1, 64, 0
1, 65952, Note_off_c, 1, 60, 0
1, 66000, Note_on_c, 1, 65, 127
1, 66000, Note_on_c, 1, 62, 127
1, 66144, Note_off_c, 1, 57, 0
1, 66192, Note_off_c, 1, 65, 0
1, 66192, Note_off_c, 1, 62, 0
1, 66240, Note_on_c, 1, 67, 127
1, 66240, Note_on_c, 1, 55, 127
1, 66240, Note_on_c, 1, 64, 127
1, 66480, Note_on_c, 1, 71, 127
1, 66624, Note_off_c, 1, 67, 0
1, 66624, Note_off_c, 1, 55, 0
1, 66672, Note_off_c, 1, 71, 0
1, 66720, Note_on_c, 1, 72, 127
1, 66720, Note_on_c, 1, 69, 127
1, 66720, Note_on_c, 1, 53, 127
1, 66816, Note_off_c, 1, 64, 0
1, 66912, Note_off_c, 1, 72, 0
1, 66960, Note_on_c, 1, 74, 127
1, 66960, Note_on_c, 1, 62, 127
1, 67104, Note_off_c, 1, 69, 0
1, 67104, Note_off_c, 1, 53, 0
1, 67152, Note_off_c, 1, 74, 0
1, 67200, Note_on_c, 1, 76, 127
1, 67200, Note_on_c, 1, 52, 127
1, 67392, Note_off_c, 1, 62, 0
1, 67392, Note_off_c, 1, 52, 0
1, 67440, Note_on_c, 1, 65, 127
1, 67440, Note_on_c, 1, 60, 127
1, 67536, Note_off_c, 1, 60, 0
1, 67560, Note_on_c, 1, 59, 127
1, 67632, Note_off_c, 1, 65, 0
1, 67656, Note_off_c, 1, 59, 0
1, 67872, Note_off_c, 1, 76, 0
1, 68160, Note_on_c, 1, 71, 127
1, 68160, Note_on_c, 1, 62, 127
1, 68160, Note_on_c, 1, 55, 127
1, 68400, Note_on_c, 1, 47, 127
1, 68544, Note_off_c, 1, 71, 0
1, 68544, Note_off_c, 1, 62, 0
1, 68592, Note_off_c, 1, 47, 0
1, 68640, Note_on_c, 1, 60, 127
1, 68640, Note_on_c, 1, 48, 127
1, 68640, Note_on_c, 1, 57, 127
1, 68736, Note_off_c, 1, 55, 0
1, 68832, Note_off_c, 1, 48, 0
1, 68880, Note_on_c, 1, 54, 127
1, 68880, Note_on_c, 1, 50, 127
1, 69024, Note_off_c, 1, 60, 0
1, 69024, Note_off_c, 1, 57, 0
1, 69072, Note_off_c, 1, 54, 0
1, 69072, Note_off_c, 1, 50, 0
1, 69120, Note_on_c, 1, 59, 127
1, 69120, Note_on_c, 1, 55, 127
1, 69120, Note_on_c, 1, 52, 127
1, 69312, Note_off_c, 1, 59, 0
1, 69360, Note_on_c, 1, 57, 127
1, 69360, Note_on_c, 1, 53, 127
1, 69552, Note_off_c, 1, 57, 0
1, 69552, Note_off_c, 1, 53, 0
1, 69696, Note_off_c, 1, 55, 0
1, 69840, Note_on_c, 1, 61, 127
1, 69984, Note_off_c, 1, 52, 0
1, 70032, Note_off_c, 1, 61, 0
1, 70080, Note_on_c, 1, 62, 127
1, 70080, Note_on_c, 1, 58, 127
1, 70080, Note_on_c, 1, 53, 127
1, 70080, Note_on_c, 1, 50, 127
1, 70272, Note_off_c, 1, 58, 0
1, 70272, Note_off_c, 1, 53, 0
1, 70320, Note_on_c, 1, 69, 127
1, 70320, Note_on_c, 1, 57, 127
1, 70320, Note_on_c, 1, 54, 127
1, 70464, Note_off_c, 1, 62, 0
1, 70464, Note_off_c, 1, 50, 0
1, 70512, Note_off_c, 1, 69, 0
1, 70512, Note_off_c, 1, 57, 0
1, 70512, Note_off_c, 1, 54, 0
1, 70560, Note_on_c, 1, 71, 127
1, 70560, Note_on_c, 1, 56, 127
1, 70560, Note_on_c, 1, 64, 127
1, 70560, Note_on_c, 1, 48, 127
1, 70752, Note_off_c, 1, 71, 0
1, 70752, Note_off_c, 1, 56, 0
1, 70800, Note_on_c, 1, 69, 127
1, 70800, Note_on_c, 1, 57, 127
1, 70944, Note_off_c, 1, 64, 0
1, 70944, Note_off_c, 1, 48, 0
1, 70992, Note_off_c, 1, 57, 0
1, 71040, Note_on_c, 1, 74, 127
1, 71040, Note_on_c, 1, 59, 127
1, 71040, Note_on_c, 1, 62, 127
1, 71040, Note_on_c, 1, 47, 127
1, 71232, Note_off_c, 1, 69, 0
1, 71232, Note_off_c, 1, 74, 0
1, 71232, Note_off_c, 1, 47, 0
1, 71280, Note_on_c, 1, 68, 127
1, 71280, Note_on_c, 1, 76, 127
1, 71376, Note_off_c, 1, 68, 0
1, 71400, Note_on_c, 1, 66, 127
1, 71424, Note_off_c, 1, 59, 0
1, 71472, Note_off_c, 1, 76, 0
1, 71496, Note_off_c, 1, 66, 0
1, 71520, Note_on_c, 1, 77, 127
1, 71760, Note_on_c, 1, 45, 127
1, 71952, Note_off_c, 1, 45, 0
1, 72000, Note_on_c, 1, 44, 127
1, 72192, Note_off_c, 1, 62, 0
1, 72192, Note_off_c, 1, 77, 0
1, 72384, Note_off_c, 1, 44, 0
1, 72480, Note_on_c, 1, 40, 127
1, 72864, Note_off_c, 1, 40, 0
1, 72960, Note_on_c, 1, 72, 127
1, 72960, Note_on_c, 1, 60, 127
1, 73344, Note_off_c, 1, 72, 0
1, 73440, Note_on_c, 1, 58, 127
1, 73440, Note_on_c, 1, 52, 127
1, 73680, Note_on_c, 1, 67, 127
1, 73728, Note_off_c, 1, 60, 0
1, 73824, Note_off_c, 1, 58, 0
1, 73824, Note_off_c, 1, 52, 0
1, 73872, Note_off_c, 1, 67, 0
1, 73920, Note_on_c, 1, 65, 127
1, 73920, Note_on_c, 1, 57, 127
1, 73920, Note_on_c, 1, 53, 127
1, 73920, Note_on_c, 1, 62, 127
1, 74112, Note_off_c, 1, 57, 0
1, 74112, Note_off_c, 1, 53, 0
1, 74160, Note_on_c, 1, 67, 127
1, 74160, Note_on_c, 1, 55, 127
1, 74160, Note_on_c, 1, 52, 127
1, 74352, Note_off_c, 1, 67, 0
1, 74352, Note_off_c, 1, 55, 0
1, 74352, Note_off_c, 1, 52, 0
1, 74400, Note_on_c, 1, 69, 127
1, 74592, Note_off_c, 1, 69, 0
1, 74640, Note_on_c, 1, 71, 127
1, 74688, Note_off_c, 1, 65, 0
1, 74688, Note_off_c, 1, 62, 0
1, 74832, Note_off_c, 1, 71, 0
1, 74880, Note_on_c, 1, 72, 127
1, 74880, Note_on_c, 1, 52, 127
1, 74880, Note_on_c, 1, 57, 127
1, 74880, Note_on_c, 1, 60, 127
1, 75072, Note_off_c, 1, 72, 0
1, 75072, Note_off_c, 1, 57, 0
1, 75120, Note_on_c, 1, 74, 127
1, 75120, Note_on_c, 1, 45, 127
1, 75216, Note_off_c, 1, 74, 0
1, 75240, Note_on_c, 1, 76, 127
1, 75264, Note_off_c, 1, 52, 0
1, 75264, Note_off_c, 1, 60, 0
1, 75336, Note_off_c, 1, 76, 0
1, 75360, Note_on_c, 1, 77, 127
1, 75360, Note_on_c, 1, 50, 127
1, 75360, Note_on_c, 1, 59, 127
1, 75504, Note_off_c, 1, 45, 0
1, 75552, Note_off_c, 1, 77, 0
1, 75600, Note_on_c, 1, 44, 127
1, 75744, Note_off_c, 1, 50, 0
1, 75792, Note_off_c, 1, 59, 0
1, 75792, Note_off_c, 1, 44, 0
1, 75840, Note_on_c, 1, 48, 127
1, 76080, Note_on_c, 1, 62, 127
1, 76080, Note_on_c, 1, 47, 127
1, 76224, Note_off_c, 1, 48, 0
1, 76272, Note_off_c, 1, 62, 0
1, 76272, Note_off_c, 1, 47, 0
1, 76320, Note_on_c, 1, 64, 127
1, 76560, Note_on_c, 1, 66, 127
1, 76752, Note_off_c, 1, 66, 0
1, 76800, Note_on_c, 1, 67, 127
1, 76800, Note_on_c, 1, 71, 127
1, 76800, Note_on_c, 1, 55, 127
1, 76992, Note_off_c, 1, 67, 0
1, 77040, Note_on_c, 1, 69, 127
1, 77040, Note_on_c, 1, 53, 127
1, 77184, Note_off_c, 1, 71, 0
1, 77232, Note_off_c, 1, 69, 0
1, 77232, Note_off_c, 1, 53, 0
1, 77376, Note_off_c, 1, 64, 0
1, 77520, Note_on_c, 1, 70, 127
1, 77520, Note_on_c, 1, 73, 127
1, 77568, Note_off_c, 1, 55, 0
1, 77712, Note_off_c, 1, 70, 0
1, 77712, Note_off_c, 1, 73, 0
1, 77760, Note_on_c, 1, 65, 127
1, 77856, Note_off_c, 1, 65, 0
1, 78120, Note_on_c, 1, 61, 127
1, 78216, Note_off_c, 1, 61, 0
1, 78480, Note_on_c, 1, 56, 127
1, 78576, Note_off_c, 1, 56, 0
1, 78720, Note_on_c, 1, 68, 127
1, 78912, Note_off_c, 1, 68, 0
1, 80520, Note_on_c, 1, 51, 127
1, 80616, Note_off_c, 1, 51, 0
1, 80640, Note_on_c, 1, 40, 127
1, 81024, Note_off_c, 1, 40, 0
1, 81120, Note_on_c, 1, 64, 127
1, 81504, Note_off_c, 1, 64, 0
1, 81600, Note_on_c, 1, 60, 127
1, 81840, Note_on_c, 1, 57, 127
1, 81984, Note_off_c, 1, 60, 0
1, 82080, Note_on_c, 1, 65, 127
1, 82224, Note_off_c, 1, 57, 0
1, 82320, Note_on_c, 1, 59, 127
1, 82464, Note_off_c, 1, 65, 0
1, 82512, Note_off_c, 1, 59, 0
1, 82560, Note_on_c, 1, 64, 127
1, 82560, Note_on_c, 1, 60, 127
1, 82752, Note_off_c, 1, 60, 0
1, 82800, Note_on_c, 1, 59, 127
1, 82800, Note_on_c, 1, 55, 127
1, 82944, Note_off_c, 1, 64, 0
1, 82992, Note_off_c, 1, 59, 0
1, 83040, Note_on_c, 1, 62, 127
1, 83040, Note_on_c, 1, 69, 127
1, 83040, Note_on_c, 1, 57, 127
1, 83184, Note_off_c, 1, 55, 0
1, 83280, Note_on_c, 1, 53, 127
1, 83424, Note_off_c, 1, 62, 0
1, 83424, Note_off_c, 1, 69, 0
1, 83424, Note_off_c, 1, 57, 0
1, 83472, Note_off_c, 1, 53, 0
1, 83520, Note_on_c, 1, 67, 127
1, 83520, Note_on_c, 1, 52, 127
1, 83520, Note_on_c, 1, 59, 127
1, 83712, Note_off_c, 1, 52, 0
1, 83760, Note_on_c, 1, 65, 127
1, 83760, Note_on_c, 1, 50, 127
1, 83904, Note_off_c, 1, 67, 0
1, 83952, Note_off_c, 1, 65, 0
1, 83952, Note_off_c, 1, 50, 0
1, 84000, Note_on_c, 1, 64, 127
1, 84000, Note_on_c, 1, 72, 127
1, 84000, Note_on_c, 1, 48, 127
1, 84096, Note_off_c, 1, 59, 0
1, 84240, Note_on_c, 1, 57, 127
1, 84384, Note_off_c, 1, 64, 0
1, 84384, Note_off_c, 1, 72, 0
1, 84384, Note_off_c, 1, 48, 0
1, 84480, Note_on_c, 1, 71, 127
1, 84480, Note_on_c, 1, 62, 127
1, 84672, Note_off_c, 1, 57, 0
1, 84720, Note_on_c, 1, 55, 127
1, 84864, Note_off_c, 1, 71, 0
1, 84912, Note_off_c, 1, 55, 0
1, 84960, Note_on_c, 1, 69, 127
1, 84960, Note_on_c, 1, 54, 127
1, 85248, Note_off_c, 1, 62, 0
1, 85344, Note_off_c, 1, 69, 0
1, 85344, Note_off_c, 1, 54, 0
1, 85440, Note_on_c, 1, 74, 127
1, 85440, Note_on_c, 1, 65, 127
1, 85440, Note_on_c, 1, 56, 127
1, 85440, Note_on_c, 1, 47, 127
1, 85632, Note_off_c, 1, 74, 0
1, 85632, Note_off_c, 1, 65, 0
1, 85632, Note_off_c, 1, 56, 0
1, 85632, Note_off_c, 1, 47, 0
1, 85680, Note_on_c, 1, 72, 127
1, 85680, Note_on_c, 1, 64, 127
1, 85680, Note_on_c, 1, 48, 127
1, 85680, Note_on_c, 1, 57, 127
1, 85776, Note_off_c, 1, 48, 0
1, 85800, Note_on_c, 1, 50, 127
1, 85872, Note_off_c, 1, 72, 0
1, 85896, Note_off_c, 1, 50, 0
1, 85920, Note_on_c, 1, 71, 127
1, 85920, Note_on_c, 1, 52, 127
1, 86064, Note_off_c, 1, 64, 0
1, 86064, Note_off_c, 1, 57, 0
1, 86160, Note_on_c, 1, 59, 127
1, 86160, Note_on_c, 1, 56, 127
1, 86304, Note_off_c, 1, 71, 0
1, 86304, Note_off_c, 1, 52, 0
1, 86352, Note_off_c, 1, 59, 0
1, 86352, Note_off_c, 1, 56, 0
1, 86400, Note_on_c, 1, 60, 127
1, 86400, Note_on_c, 1, 69, 127
1, 86400, Note_on_c, 1, 57, 127
1, 86400, Note_on_c, 1, 52, 127
1, 86400, Note_on_c, 1, 48, 127
1, 86592, Note_off_c, 1, 60, 0
1, 86592, Note_off_c, 1, 69, 0
1, 86592, Note_off_c, 1, 57, 0
1, 86640, Note_on_c, 1, 76, 127
1, 86784, Note_off_c, 1, 52, 0
1, 86784, Note_off_c, 1, 48, 0
1, 86880, Note_on_c, 1, 61, 127
1, 86880, Note_on_c, 1, 53, 127
1, 87024, Note_off_c, 1, 76, 0
1, 87072, Note_off_c, 1, 61, 0
1, 87120, Note_on_c, 1, 74, 127
1, 87120, Note_on_c, 1, 62, 127
1, 87264, Note_off_c, 1, 53, 0
1, 87312, Note_off_c, 1, 62, 0
1, 87360, Note_on_c, 1, 55, 127
1, 87360, Note_on_c, 1, 64, 127
1, 87456, Note_off_c, 1, 55, 0
1, 87552, Note_off_c, 1, 74, 0
1, 87600, Note_on_c, 1, 73, 127
1, 87600, Note_on_c, 1, 67, 127
1, 87600, Note_on_c, 1, 58, 127
1, 87744, Note_off_c, 1, 64, 0
1, 87792, Note_off_c, 1, 73, 0
1, 87840, Note_on_c, 1, 50, 127
1, 87984, Note_off_c, 1, 67, 0
1, 87984, Note_off_c, 1, 58, 0
1, 88080, Note_on_c, 1, 65, 127
1, 88224, Note_off_c, 1, 50, 0
1, 88272, Note_off_c, 1, 65, 0
1, 88560, Note_on_c, 1, 76, 127
1, 88560, Note_on_c, 1, 62, 127
1, 88560, Note_on_c, 1, 57, 127
1, 88560, Note_on_c, 1, 53, 127
1, 88656, Note_off_c, 1, 76, 0
1, 88680, Note_on_c, 1, 77, 127
1, 88752, Note_off_c, 1, 57, 0
1, 88752, Note_off_c, 1, 53, 0
1, 88776, Note_off_c, 1, 77, 0
1, 88800, Note_on_c, 1, 79, 127
1, 88800, Note_on_c, 1, 55, 127
1, 88800, Note_on_c, 1, 52, 127
1, 88944, Note_off_c, 1, 62, 0
1, 89040, Note_on_c, 1, 61, 127
1, 89184, Note_off_c, 1, 55, 0
1, 89184, Note_off_c, 1, 52, 0
1, 89232, Note_off_c, 1, 61, 0
1, 89280, Note_on_c, 1, 50, 127
1, 89472, Note_off_c, 1, 79, 0
1, 89472, Note_off_c, 1, 50, 0
1, 89520, Note_on_c, 1, 65, 127
1, 89520, Note_on_c, 1, 38, 127
1, 89712, Note_off_c, 1, 65, 0
1, 89760, Note_on_c, 1, 70, 127
1, 89904, Note_off_c, 1, 38, 0
1, 90000, Note_on_c, 1, 40, 127
1, 90144, Note_off_c, 1, 70, 0
1, 90192, Note_off_c, 1, 40, 0
1, 90240, Note_on_c, 1, 69, 127
1, 90240, Note_on_c, 1, 81, 127
1, 90240, Note_on_c, 1, 60, 127
1, 90240, Note_on_c, 1, 41, 127
1, 90480, Note_on_c, 1, 57, 127
1, 90624, Note_off_c, 1, 69, 0
1, 90624, Note_off_c, 1, 60, 0
1, 90624, Note_off_c, 1, 41, 0
1, 90720, Note_on_c, 1, 74, 127
1, 90720, Note_on_c, 1, 65, 127
1, 90720, Note_on_c, 1, 38, 127
1, 90864, Note_off_c, 1, 57, 0
1, 90960, Note_on_c, 1, 59, 127
1, 91104, Note_off_c, 1, 74, 0
1, 91104, Note_off_c, 1, 65, 0
1, 91104, Note_off_c, 1, 38, 0
1, 91152, Note_off_c, 1, 59, 0
1, 91200, Note_on_c, 1, 72, 127
1, 91200, Note_on_c, 1, 64, 127
1, 91200, Note_on_c, 1, 45, 127
1, 91296, Note_off_c, 1, 72, 0
1, 91320, Note_on_c, 1, 71, 127
1, 91392, Note_off_c, 1, 45, 0
1, 91416, Note_off_c, 1, 71, 0
1, 91440, Note_on_c, 1, 43, 127
1, 91584, Note_off_c, 1, 81, 0
1, 91584, Note_off_c, 1, 64, 0
1, 91632, Note_off_c, 1, 43, 0
1, 91680, Note_on_c, 1, 62, 127
1, 92064, Note_off_c, 1, 62, 0
1, 92160, Note_on_c, 1, 67, 127
1, 92160, Note_on_c, 1, 40, 127
1, 92160, Note_on_c, 1, 55, 127
1, 92352, Note_off_c, 1, 67, 0
1, 92352, Note_off_c, 1, 40, 0
1, 92400, Note_on_c, 1, 79, 127
1, 92400, Note_on_c, 1, 48, 127
1, 92640, Note_on_c, 1, 76, 127
1, 92784, Note_off_c, 1, 79, 0
1, 92784, Note_off_c, 1, 48, 0
1, 92832, Note_off_c, 1, 76, 0
1, 92880, Note_on_c, 1, 77, 127
1, 92880, Note_on_c, 1, 50, 127
1, 92928, Note_off_c, 1, 55, 0
1, 93072, Note_off_c, 1, 77, 0
1, 93072, Note_off_c, 1, 50, 0
1, 93120, Note_on_c, 1, 52, 127
1, 93312, Note_off_c, 1, 52, 0
1, 94800, Note_on_c, 1, 53, 127
1, 94992, Note_off_c, 1, 53, 0
1, 95040, Note_on_c, 1, 73, 127
1, 95232, Note_off_c, 1, 73, 0
1, 96000, Note_on_c, 1, 54, 127
1, 96192, Note_off_c, 1, 54, 0
1, 96240, Note_on_c, 1, 71, 127
1, 96240, Note_on_c, 1, 76, 127
1, 96240, Note_on_c, 1, 64, 127
1, 96240, Note_on_c, 1, 59, 127
1, 96240, Note_on_c, 1, 56, 127
1, 96432, Note_off_c, 1, 71, 0
1, 96432, Note_off_c, 1, 59, 0
1, 96432, Note_off_c, 1, 56, 0
1, 96480, Note_on_c, 1, 69, 127
1, 96480, Note_on_c, 1, 60, 127
1, 96480, Note_on_c, 1, 57, 127
1, 96624, Note_off_c, 1, 76, 0
1, 96624, Note_off_c, 1, 64, 0
1, 96672, Note_off_c, 1, 57, 0
1, 96720, Note_on_c, 1, 65, 127
1, 96720, Note_on_c, 1, 74, 127
1, 96720, Note_on_c, 1, 53, 127
1, 96816, Note_off_c, 1, 65, 0
1, 96816, Note_off_c, 1, 74, 0
1, 96840, Note_on_c, 1, 67, 127
1, 96864, Note_off_c, 1, 60, 0
1, 96912, Note_off_c, 1, 53, 0
1, 96936, Note_off_c, 1, 67, 0
1, 96960, Note_on_c, 1, 77, 127
1, 96960, Note_on_c, 1, 50, 127
1, 97152, Note_off_c, 1, 69, 0
1, 97152, Note_off_c, 1, 50, 0
1, 97200, Note_on_c, 1, 62, 127
1, 97200, Note_on_c, 1, 47, 127
1, 97296, Note_off_c, 1, 62, 0
1, 97392, Note_off_c, 1, 47, 0
1, 97440, Note_on_c, 1, 55, 127
1, 97440, Note_on_c, 1, 52, 127
1, 97536, Note_off_c, 1, 77, 0
1, 97632, Note_off_c, 1, 52, 0
1, 97824, Note_off_c, 1, 55, 0
1, 97920, Note_on_c, 1, 49, 127
1, 98112, Note_off_c, 1, 49, 0
1, 98160, Note_on_c, 1, 61, 127
1, 98160, Note_on_c, 1, 45, 127
1, 98352, Note_off_c, 1, 61, 0
1, 98352, Note_off_c, 1, 45, 0
1, 98880, Note_on_c, 1, 64, 127
1, 98880, Note_on_c, 1, 72, 127
1, 98880, Note_on_c, 1, 57, 127
1, 98880, Note_on_c, 1, 60, 127
1, 98880, Note_on_c, 1, 45, 127
1, 99264, Note_off_c, 1, 64, 0
1, 99264, Note_off_c, 1, 72, 0
1, 99264, Note_off_c, 1, 57, 0
1, 99264, Note_off_c, 1, 60, 0
1, 99264, Note_off_c, 1, 45, 0
1, 99360, Note_on_c, 1, 65, 127
1, 99744, Note_off_c, 1, 65, 0
1, 99840, Note_on_c, 1, 64, 127
1, 100080, Note_on_c, 1, 60, 127
1, 100224, Note_off_c, 1, 64, 0
1, 100272, Note_off_c, 1, 60, 0
1, 100320, Note_on_c, 1, 65, 127
1, 100320, Note_on_c, 1, 57, 127
1, 100512, Note_off_c, 1, 57, 0
1, 100560, Note_on_c, 1, 62, 127
1, 100704, Note_off_c, 1, 65, 0
1, 100752, Note_off_c, 1, 62, 0
1, 100800, Note_on_c, 1, 67, 127
1, 100800, Note_on_c, 1, 59, 127
1, 101040, Note_on_c, 1, 55, 127
1, 101184, Note_off_c, 1, 67, 0
1, 101184, Note_off_c, 1, 59, 0
1, 101232, Note_off_c, 1, 55, 0
1, 101280, Note_on_c, 1, 60, 127
1, 101280, Note_on_c, 1, 55, 127
1, 101472, Note_off_c, 1, 55, 0
1, 101520, Note_on_c, 1, 52, 127
1, 101712, Note_off_c, 1, 60, 0
1, 101712, Note_off_c, 1, 52, 0
1, 101760, Note_on_c, 1, 64, 127
1, 101760, Note_on_c, 1, 55, 127
1, 101760, Note_on_c, 1, 59, 127
1, 101952, Note_off_c, 1, 55, 0
1, 101952, Note_off_c, 1, 59, 0
1, 102000, Note_on_c, 1, 52, 127
1, 102000, Note_on_c, 1, 60, 127
1, 102144, Note_off_c, 1, 64, 0
1, 102192, Note_off_c, 1, 52, 0
1, 102240, Note_on_c, 1, 62, 127
1, 102240, Note_on_c, 1, 53, 127
1, 102384, Note_off_c, 1, 60, 0
1, 102432, Note_off_c, 1, 53, 0
1, 102480, Note_on_c, 1, 67, 127
1, 102480, Note_on_c, 1, 58, 127
1, 102624, Note_off_c, 1, 62, 0
1, 102672, Note_off_c, 1, 67, 0
1, 102720, Note_on_c, 1, 48, 127
1, 102912, Note_off_c, 1, 58, 0
1, 102960, Note_on_c, 1, 69, 127
1, 102960, Note_on_c, 1, 65, 127
1, 102960, Note_on_c, 1, 57, 127
1, 103056, Note_off_c, 1, 57, 0
1, 103104, Note_off_c, 1, 48, 0
1, 103152, Note_off_c, 1, 69, 0
1, 103152, Note_off_c, 1, 65, 0
1, 103200, Note_on_c, 1, 64, 127
1, 103200, Note_on_c, 1, 67, 127
1, 103200, Note_on_c, 1, 60, 127
1, 103392, Note_off_c, 1, 64, 0
1, 103392, Note_off_c, 1, 67, 0
1, 103440, Note_on_c, 1, 76, 127
1, 103584, Note_off_c, 1, 60, 0
1, 103632, Note_off_c, 1, 76, 0
1, 103680, Note_on_c, 1, 74, 127
1, 103680, Note_on_c, 1, 59, 127
1, 103872, Note_off_c, 1, 74, 0
1, 103920, Note_on_c, 1, 71, 127
1, 103920, Note_on_c, 1, 79, 127
1, 104064, Note_off_c, 1, 59, 0
1, 104112, Note_off_c, 1, 71, 0
1, 104112, Note_off_c, 1, 79, 0
1, 104160, Note_on_c, 1, 76, 127
1, 104160, Note_on_c, 1, 67, 127
1, 104160, Note_on_c, 1, 60, 127
1, 104352, Note_off_c, 1, 76, 0
1, 104352, Note_off_c, 1, 67, 0
1, 104400, Note_on_c, 1, 81, 127
1, 104400, Note_on_c, 1, 72, 127
1, 104544, Note_off_c, 1, 60, 0
1, 104592, Note_off_c, 1, 81, 0
1, 104592, Note_off_c, 1, 72, 0
1, 104640, Note_on_c, 1, 69, 127
1, 104640, Note_on_c, 1, 78, 127
1, 104640, Note_on_c, 1, 62, 127
1, 104832, Note_off_c, 1, 69, 0
1, 104832, Note_off_c, 1, 78, 0
1, 104880, Note_on_c, 1, 74, 127
1, 104880, Note_on_c, 1, 77, 127
1, 105024, Note_off_c, 1, 62, 0
1, 105072, Note_off_c, 1, 74, 0
1, 105120, Note_on_c, 1, 71, 127
1, 105120, Note_on_c, 1, 55, 127
1, 105264, Note_off_c, 1, 77, 0
1, 105312, Note_off_c, 1, 71, 0
1, 105360, Note_on_c, 1, 76, 127
1, 105360, Note_on_c, 1, 72, 127
1, 105360, Note_on_c, 1, 52, 127
1, 105504, Note_off_c, 1, 55, 0
1, 105552, Note_off_c, 1, 76, 0
1, 105552, Note_off_c, 1, 72, 0
1, 105552, Note_off_c, 1, 52, 0
1, 105600, Note_on_c, 1, 78, 127
1, 105600, Note_on_c, 1, 71, 127
1, 105600, Note_on_c, 1, 50, 127
1, 105600, Note_on_c, 1, 59, 127
1, 105792, Note_off_c, 1, 78, 0
1, 105792, Note_off_c, 1, 71, 0
1, 105792, Note_off_c, 1, 50, 0
1, 105840, Note_on_c, 1, 79, 127
1, 105840, Note_on_c, 1, 76, 127
1, 105840, Note_on_c, 1, 55, 127
1, 105984, Note_off_c, 1, 59, 0
1, 106032, Note_off_c, 1, 79, 0
1, 106032, Note_off_c, 1, 55, 0
1, 106080, Note_on_c, 1, 81, 127
1, 106080, Note_on_c, 1, 54, 127
1, 106080, Note_on_c, 1, 57, 127
1, 106224, Note_off_c, 1, 76, 0
1, 106272, Note_off_c, 1, 81, 0
1, 106272, Note_off_c, 1, 54, 0
1, 106320, Note_on_c, 1, 75, 127
1, 106320, Note_on_c, 1, 83, 127
1, 106320, Note_on_c, 1, 47, 127
1, 106464, Note_off_c, 1, 57, 0
1, 106512, Note_off_c, 1, 75, 0
1, 106512, Note_off_c, 1, 83, 0
1, 106512, Note_off_c, 1, 47, 0
1, 106560, Note_on_c, 1, 84, 127
1, 106560, Note_on_c, 1, 76, 127
1, 106560, Note_on_c, 1, 52, 127
1, 106560, Note_on_c, 1, 55, 127
1, 106752, Note_off_c, 1, 52, 0
1, 106752, Note_off_c, 1, 55, 0
1, 106800, Note_on_c, 1, 54, 127
1, 106800, Note_on_c, 1, 57, 127
1, 106944, Note_off_c, 1, 84, 0
1, 106992, Note_off_c, 1, 54, 0
1, 106992, Note_off_c, 1, 57, 0
1, 107040, Note_on_c, 1, 83, 127
1, 107040, Note_on_c, 1, 59, 127
1, 107232, Note_off_c, 1, 76, 0
1, 107280, Note_on_c, 1, 74, 127
1, 107280, Note_on_c, 1, 56, 127
1, 107424, Note_off_c, 1, 59, 0
1, 107472, Note_off_c, 1, 56, 0
1, 107520, Note_on_c, 1, 60, 127
1, 107520, Note_on_c, 1, 48, 127
1, 107616, Note_off_c, 1, 60, 0
1, 107640, Note_on_c, 1, 62, 127
1, 107712, Note_off_c, 1, 83, 0
1, 107712, Note_off_c, 1, 74, 0
1, 107736, Note_off_c, 1, 62, 0
1, 107760, Note_on_c, 1, 72, 127
1, 107760, Note_on_c, 1, 81, 127
1, 107760, Note_on_c, 1, 64, 127
1, 107904, Note_off_c, 1, 48, 0
1, 107952, Note_off_c, 1, 72, 0
1, 107952, Note_off_c, 1, 81, 0
1, 108000, Note_on_c, 1, 78, 127
1, 108000, Note_on_c, 1, 69, 127
1, 108000, Note_on_c, 1, 50, 127
1, 108144, Note_off_c, 1, 64, 0
1, 108192, Note_off_c, 1, 78, 0
1, 108192, Note_off_c, 1, 69, 0
1, 108384, Note_off_c, 1, 50, 0
1, 108480, Note_on_c, 1, 80, 127
1, 108480, Note_on_c, 1, 71, 127
1, 108672, Note_off_c, 1, 80, 0
1, 108672, Note_off_c, 1, 71, 0
1, 108720, Note_on_c, 1, 68, 127
1, 108912, Note_off_c, 1, 68, 0
1, 108960, Note_on_c, 1, 45, 127
1, 109200, Note_on_c, 1, 53, 127
1, 109344, Note_off_c, 1, 45, 0
1, 109392, Note_off_c, 1, 53, 0
1, 109920, Note_on_c, 1, 77, 127
1, 109920, Note_on_c, 1, 62, 127
1, 109920, Note_on_c, 1, 56, 127
1, 109920, Note_on_c, 1, 47, 127
1, 110112, Note_off_c, 1, 77, 0
1, 110112, Note_off_c, 1, 62, 0
1, 110112, Note_off_c, 1, 56, 0
1, 110160, Note_on_c, 1, 76, 127
1, 110160, Note_on_c, 1, 57, 127
1, 110160, Note_on_c, 1, 59, 127
1, 110256, Note_off_c, 1, 76, 0
1, 110280, Note_on_c, 1, 74, 127
1, 110304, Note_off_c, 1, 47, 0
1, 110352, Note_off_c, 1, 57, 0
1, 110352, Note_off_c, 1, 59, 0
1, 110376, Note_off_c, 1, 74, 0
1, 110400, Note_on_c, 1, 72, 127
1, 110400, Note_on_c, 1, 64, 127
1, 110400, Note_on_c, 1, 45, 127
1, 110400, Note_on_c, 1, 60, 127
1, 110592, Note_off_c, 1, 64, 0
1, 110592, Note_off_c, 1, 45, 0
1, 110640, Note_on_c, 1, 68, 127
1, 110640, Note_on_c, 1, 52, 127
1, 110784, Note_off_c, 1, 72, 0
1, 110832, Note_off_c, 1, 68, 0
1, 110832, Note_off_c, 1, 52, 0
1, 110880, Note_on_c, 1, 69, 127
1, 110880, Note_on_c, 1, 48, 127
1, 111072, Note_off_c, 1, 48, 0
1, 111120, Note_on_c, 1, 53, 127
1, 111168, Note_off_c, 1, 60, 0
1, 111312, Note_off_c, 1, 53, 0
1, 111360, Note_on_c, 1, 77, 127
1, 111360, Note_on_c, 1, 50, 127
1, 111360, Note_on_c, 1, 59, 127
1, 111552, Note_off_c, 1, 69, 0
1, 111552, Note_off_c, 1, 50, 0
1, 111600, Note_on_c, 1, 62, 127
1, 111600, Note_on_c, 1, 47, 127
1, 111744, Note_off_c, 1, 77, 0
1, 111792, Note_off_c, 1, 62, 0
1, 111792, Note_off_c, 1, 47, 0
1, 111840, Note_on_c, 1, 76, 127
1, 112128, Note_off_c, 1, 59, 0
1, 112512, Note_off_c, 1, 76, 0
1, 112560, Note_on_c, 1, 57, 127
1, 112752, Note_off_c, 1, 57, 0
1, 112800, Note_on_c, 1, 65, 127
1, 113280, Note_on_c, 1, 74, 127
1, 113472, Note_off_c, 1, 65, 0
1, 113472, Note_off_c, 1, 74, 0
1, 113520, Note_on_c, 1, 71, 127
1, 113712, Note_off_c, 1, 71, 0
1, 113760, Note_on_c, 1, 67, 127
1, 113760, Note_on_c, 1, 79, 127
1, 113952, Note_off_c, 1, 67, 0
1, 114000, Note_on_c, 1, 55, 127
1, 114192, Note_off_c, 1, 55, 0
1, 114624, Note_off_c, 1, 79, 0
1, 114960, Note_on_c, 1, 54, 127
1, 115152, Note_off_c, 1, 54, 0
1, 115200, Note_on_c, 1, 67, 127
1, 115200, Note_on_c, 1, 59, 127
1, 115200, Note_on_c, 1, 55, 127
1, 115200, Note_on_c, 1, 40, 127
1, 115296, Note_off_c, 1, 67, 0
1, 115320, Note_on_c, 1, 69, 127
1, 115392, Note_off_c, 1, 40, 0
1, 115416, Note_off_c, 1, 69, 0
1, 115440, Note_on_c, 1, 71, 127
1, 115440, Note_on_c, 1, 52, 127
1, 115536, Note_off_c, 1, 71, 0
1, 115560, Note_on_c, 1, 72, 127
1, 115584, Note_off_c, 1, 55, 0
1, 115632, Note_off_c, 1, 52, 0
1, 115656, Note_off_c, 1, 72, 0
1, 115680, Note_on_c, 1, 74, 127
1, 115680, Note_on_c, 1, 79, 127
1, 115680, Note_on_c, 1, 47, 127
1, 115872, Note_off_c, 1, 74, 0
1, 115872, Note_off_c, 1, 47, 0
1, 115920, Note_on_c, 1, 50, 127
1, 116112, Note_off_c, 1, 59, 0
1, 116112, Note_off_c, 1, 50, 0
1, 116160, Note_on_c, 1, 76, 127
1, 116160, Note_on_c, 1, 57, 127
1, 116160, Note_on_c, 1, 60, 127
1, 116160, Note_on_c, 1, 48, 127
1, 116352, Note_off_c, 1, 76, 0
1, 116352, Note_off_c, 1, 48, 0
1, 116400, Note_on_c, 1, 45, 127
1, 116544, Note_off_c, 1, 79, 0
1, 116544, Note_off_c, 1, 60, 0
1, 116592, Note_off_c, 1, 45, 0
1, 116640, Note_on_c, 1, 77, 127
1, 116640, Note_on_c, 1, 53, 127
1, 116640, Note_on_c, 1, 62, 127
1, 116832, Note_off_c, 1, 53, 0
1, 116928, Note_off_c, 1, 57, 0
1, 117312, Note_off_c, 1, 77, 0
1, 117312, Note_off_c, 1, 62, 0
1, 117360, Note_on_c, 1, 43, 127
1, 117552, Note_off_c, 1, 43, 0
1, 117960, Note_on_c, 1, 54, 127
1, 118056, Note_off_c, 1, 54, 0
1, 118560, Note_on_c, 1, 71, 127
1, 118560, Note_on_c, 1, 62, 127
1, 118944, Note_off_c, 1, 71, 0
1, 118944, Note_off_c, 1, 62, 0
1, 119040, Note_on_c, 1, 67, 127
1, 119232, Note_off_c, 1, 67, 0
1, 119280, Note_on_c, 1, 62, 127
1, 119280, Note_on_c, 1, 65, 127
1, 119376, Note_off_c, 1, 62, 0
1, 119400, Note_on_c, 1, 60, 127
1, 119496, Note_off_c, 1, 60, 0
1, 119520, Note_on_c, 1, 67, 127
1, 119520, Note_on_c, 1, 59, 127
1, 119664, Note_off_c, 1, 65, 0
1, 119712, Note_off_c, 1, 59, 0
1, 119760, Note_on_c, 1, 64, 127
1, 119904, Note_off_c, 1, 67, 0
1, 120000, Note_on_c, 1, 72, 127
1, 120000, Note_on_c, 1, 57, 127
1, 120192, Note_off_c, 1, 64, 0
1, 120192, Note_off_c, 1, 72, 0
1, 120192, Note_off_c, 1, 57, 0
1, 120240, Note_on_c, 1, 71, 127
1, 120240, Note_on_c, 1, 59, 127
1, 120240, Note_on_c, 1, 62, 127
1, 120336, Note_off_c, 1, 59, 0
1, 120336, Note_off_c, 1, 62, 0
1, 120360, Note_on_c, 1, 57, 127
1, 120360, Note_on_c, 1, 60, 127
1, 120456, Note_off_c, 1, 57, 0
1, 120456, Note_off_c, 1, 60, 0
1, 120480, Note_on_c, 1, 56, 127
1, 120624, Note_off_c, 1, 71, 0
1, 120672, Note_off_c, 1, 56, 0
1, 120720, Note_on_c, 1, 69, 127
1, 120720, Note_on_c, 1, 57, 127
1, 120720, Note_on_c, 1, 61, 127
1, 120816, Note_off_c, 1, 57, 0
1, 120840, Note_on_c, 1, 55, 127
1, 120912, Note_off_c, 1, 61, 0
1, 120936, Note_off_c, 1, 55, 0
1, 120960, Note_on_c, 1, 53, 127
1, 120960, Note_on_c, 1, 62, 127
1, 121152, Note_off_c, 1, 69, 0
1, 121152, Note_off_c, 1, 53, 0
1, 121200, Note_on_c, 1, 67, 127
1, 121296, Note_off_c, 1, 67, 0
1, 121320, Note_on_c, 1, 65, 127
1, 121344, Note_off_c, 1, 62, 0
1, 121416, Note_off_c, 1, 65, 0
1, 121440, Note_on_c, 1, 64, 127
1, 121440, Note_on_c, 1, 57, 127
1, 121440, Note_on_c, 1, 60, 127
1, 121632, Note_off_c, 1, 64, 0
1, 121680, Note_on_c, 1, 66, 127
1, 121824, Note_off_c, 1, 57, 0
1, 121824, Note_off_c, 1, 60, 0
1, 121872, Note_off_c, 1, 66, 0
1, 121920, Note_on_c, 1, 67, 127
1, 121920, Note_on_c, 1, 59, 127
1, 121920, Note_on_c, 1, 52, 127
1, 122112, Note_off_c, 1, 59, 0
1, 122160, Note_on_c, 1, 64, 127
1, 122256, Note_off_c, 1, 64, 0
1, 122280, Note_on_c, 1, 62, 127
1, 122304, Note_off_c, 1, 67, 0
1, 122304, Note_off_c, 1, 52, 0
1, 122376, Note_off_c, 1, 62, 0
1, 122400, Note_on_c, 1, 65, 127
1, 122400, Note_on_c, 1, 60, 127
1, 122400, Note_on_c, 1, 57, 127
1, 122592, Note_off_c, 1, 60, 0
1, 122592, Note_off_c, 1, 57, 0
1, 122640, Note_on_c, 1, 59, 127
1, 122640, Note_on_c, 1, 55, 127
1, 122784, Note_off_c, 1, 65, 0
1, 122832, Note_off_c, 1, 59, 0
1, 122880, Note_on_c, 1, 64, 127
1, 122880, Note_on_c, 1, 69, 127
1, 122880, Note_on_c, 1, 61, 127
1, 123072, Note_off_c, 1, 55, 0
1, 123072, Note_off_c, 1, 64, 0
1, 123072, Note_off_c, 1, 61, 0
1, 123120, Note_on_c, 1, 62, 127
1, 123120, Note_on_c, 1, 53, 127
1, 123216, Note_off_c, 1, 62, 0
1, 123264, Note_off_c, 1, 69, 0
1, 123360, Note_on_c, 1, 74, 127
1, 123504, Note_off_c, 1, 53, 0
1, 123552, Note_off_c, 1, 74, 0
1, 123600, Note_on_c, 1, 64, 127
1, 123600, Note_on_c, 1, 72, 127
1, 123600, Note_on_c, 1, 52, 127
1, 123600, Note_on_c, 1, 60, 127
1, 123696, Note_off_c, 1, 52, 0
1, 123696, Note_off_c, 1, 60, 0
1, 123720, Note_on_c, 1, 50, 127
1, 123720, Note_on_c, 1, 59, 127
1, 123792, Note_off_c, 1, 64, 0
1, 123816, Note_off_c, 1, 50, 0
1, 123816, Note_off_c, 1, 59, 0
1, 123840, Note_on_c, 1, 69, 127
1, 123840, Note_on_c, 1, 57, 127
1, 123840, Note_on_c, 1, 48, 127
1, 123936, Note_off_c, 1, 69, 0
1, 123960, Note_on_c, 1, 67, 127
1, 124032, Note_off_c, 1, 72, 0
1, 124032, Note_off_c, 1, 57, 0
1, 124032, Note_off_c, 1, 48, 0
1, 124056, Note_off_c, 1, 67, 0
1, 124080, Note_on_c, 1, 71, 127
1, 124080, Note_on_c, 1, 65, 127
1, 124080, Note_on_c, 1, 59, 127
1, 124080, Note_on_c, 1, 50, 127
1, 124176, Note_off_c, 1, 71, 0
1, 124200, Note_on_c, 1, 69, 127
1, 124272, Note_off_c, 1, 65, 0
1, 124272, Note_off_c, 1, 59, 0
1, 124272, Note_off_c, 1, 50, 0
1, 124296, Note_off_c, 1, 69, 0
1, 124320, Note_on_c, 1, 68, 127
1, 124320, Note_on_c, 1, 64, 127
1, 124320, Note_on_c, 1, 60, 127
1, 124320, Note_on_c, 1, 52, 127
1, 124512, Note_off_c, 1, 68, 0
1, 124545, Note_off_c, 1, 60, 0
1, 124560, Note_on_c, 1, 69, 127
1, 124560, Note_on_c, 1, 59, 127
1, 124656, Note_off_c, 1, 59, 0
1, 124704, Note_off_c, 1, 64, 0
1, 124704, Note_off_c, 1, 52, 0
1, 124752, Note_off_c, 1, 69, 0
1, 124800, Note_on_c, 1, 65, 127
1, 124800, Note_on_c, 1, 71, 127
1, 124800, Note_on_c, 1, 62, 127
1, 124800, Note_on_c, 1, 50, 127
1, 124992, Note_off_c, 1, 65, 0
1, 124992, Note_off_c, 1, 62, 0
1, 125040, Note_on_c, 1, 64, 127
1, 125040, Note_on_c, 1, 56, 127
1, 125184, Note_off_c, 1, 71, 0
1, 125232, Note_off_c, 1, 56, 0
1, 125280, Note_on_c, 1, 69, 127
1, 125280, Note_on_c, 1, 57, 127
1, 125376, Note_off_c, 1, 50, 0
1, 125424, Note_off_c, 1, 64, 0
1, 125520, Note_on_c, 1, 48, 127
1, 125664, Note_off_c, 1, 57, 0
1, 125712, Note_off_c, 1, 48, 0
1, 125760, Note_on_c, 1, 47, 127
1, 125760, Note_on_c, 1, 59, 127
1, 125952, Note_off_c, 1, 69, 0
1, 125952, Note_off_c, 1, 47, 0
1, 126000, Note_on_c, 1, 68, 127
1, 126000, Note_on_c, 1, 52, 127
1, 126144, Note_off_c, 1, 59, 0
1, 126192, Note_off_c, 1, 68, 0
1, 126240, Note_on_c, 1, 60, 127
1, 126240, Note_on_c, 1, 45, 127
1, 126336, Note_off_c, 1, 60, 0
1, 126384, Note_off_c, 1, 52, 0
1, 126624, Note_off_c, 1, 45, 0
1, 126840, Note_on_c, 1, 66, 127
1, 126936, Note_off_c, 1, 66, 0
1, 126960, Note_on_c, 1, 68, 127
1, 126960, Note_on_c, 1, 59, 127
1, 126960, Note_on_c, 1, 50, 127
1, 127056, Note_off_c, 1, 68, 0
1, 127056, Note_off_c, 1, 59, 0
1, 127080, Note_on_c, 1, 69, 127
1, 127080, Note_on_c, 1, 57, 127
1, 127176, Note_off_c, 1, 69, 0
1, 127176, Note_off_c, 1, 57, 0
1, 127200, Note_on_c, 1, 71, 127
1, 127200, Note_on_c, 1, 76, 127
1, 127200, Note_on_c, 1, 56, 127
1, 127344, Note_off_c, 1, 50, 0
1, 127392, Note_off_c, 1, 71, 0
1, 127392, Note_off_c, 1, 56, 0
1, 127440, Note_on_c, 1, 72, 127
1, 127440, Note_on_c, 1, 48, 127
1, 127536, Note_off_c, 1, 72, 0
1, 127560, Note_on_c, 1, 55, 127
1, 127584, Note_off_c, 1, 76, 0
1, 127656, Note_off_c, 1, 55, 0
1, 127680, Note_on_c, 1, 81, 127
1, 127680, Note_on_c, 1, 54, 127
1, 127872, Note_off_c, 1, 48, 0
1, 127872, Note_off_c, 1, 81, 0
1, 127872, Note_off_c, 1, 54, 0
1, 127920, Note_on_c, 1, 79, 127
1, 127920, Note_on_c, 1, 47, 127
1, 128016, Note_off_c, 1, 47, 0
1, 128040, Note_on_c, 1, 53, 127
1, 128040, Note_on_c, 1, 45, 127
1, 128136, Note_off_c, 1, 53, 0
1, 128136, Note_off_c, 1, 45, 0
1, 128160, Note_on_c, 1, 52, 127
1, 128160, Note_on_c, 1, 43, 127
1, 128304, Note_off_c, 1, 79, 0
1, 128352, Note_off_c, 1, 52, 0
1, 128352, Note_off_c, 1, 43, 0
1, 128400, Note_on_c, 1, 69, 127
1, 128400, Note_on_c, 1, 77, 127
1, 128400, Note_on_c, 1, 53, 127
1, 128400, Note_on_c, 1, 48, 127
1, 128400, Note_on_c, 1, 45, 127
1, 128496, Note_off_c, 1, 53, 0
1, 128520, Note_on_c, 1, 52, 127
1, 128592, Note_off_c, 1, 69, 0
1, 128592, Note_off_c, 1, 48, 0
1, 128592, Note_off_c, 1, 45, 0
1, 128616, Note_off_c, 1, 52, 0
1, 128640, Note_on_c, 1, 67, 127
1, 128640, Note_on_c, 1, 47, 127
1, 128640, Note_on_c, 1, 50, 127
1, 128832, Note_off_c, 1, 77, 0
1, 128832, Note_off_c, 1, 67, 0
1, 128832, Note_off_c, 1, 50, 0
1, 128880, Note_on_c, 1, 76, 127
1, 128880, Note_on_c, 1, 55, 127
1, 128976, Note_off_c, 1, 76, 0
1, 129000, Note_on_c, 1, 74, 127
1, 129000, Note_on_c, 1, 71, 127
1, 129024, Note_off_c, 1, 47, 0
1, 129096, Note_off_c, 1, 74, 0
1, 129096, Note_off_c, 1, 71, 0
1, 129120, Note_on_c, 1, 72, 127
1, 129264, Note_off_c, 1, 55, 0
1, 129600, Note_on_c, 1, 43, 127
1, 129696, Note_off_c, 1, 72, 0
1, 129984, Note_off_c, 1, 43, 0
1, 130560, Note_on_c, 1, 60, 127
1, 130800, Note_on_c, 1, 54, 127
1, 130896, Note_off_c, 1, 54, 0
1, 131040, Note_on_c, 1, 57, 127
1, 131232, Note_off_c, 1, 57, 0
1, 131328, Note_off_c, 1, 60, 0
1, 131400, Note_on_c, 1, 57, 127
1, 131400, Note_on_c, 1, 54, 127
1, 131496, Note_off_c, 1, 57, 0
1, 131496, Note_off_c, 1, 54, 0
1, 131520, Note_on_c, 1, 59, 127
1, 131520, Note_on_c, 1, 55, 127
1, 131760, Note_on_c, 1, 67, 127
1, 131760, Note_on_c, 1, 62, 127
1, 131856, Note_off_c, 1, 67, 0
1, 131880, Note_on_c, 1, 69, 127
1, 131952, Note_off_c, 1, 62, 0
1, 131976, Note_off_c, 1, 69, 0
1, 132000, Note_on_c, 1, 71, 127
1, 132096, Note_off_c, 1, 55, 0
1, 132192, Note_off_c, 1, 71, 0
1, 132240, Note_on_c, 1, 54, 127
1, 132288, Note_off_c, 1, 59, 0
1, 132336, Note_off_c, 1, 54, 0
1, 132480, Note_on_c, 1, 72, 127
1, 132480, Note_on_c, 1, 57, 127
1, 132720, Note_on_c, 1, 76, 127
1, 132720, Note_on_c, 1, 60, 127
1, 132768, Note_off_c, 1, 72, 0
1, 132816, Note_off_c, 1, 76, 0
1, 132816, Note_off_c, 1, 60, 0
1, 132840, Note_on_c, 1, 74, 127
1, 132936, Note_off_c, 1, 74, 0
1, 132960, Note_on_c, 1, 64, 127
1, 132960, Note_on_c, 1, 45, 127
1, 133152, Note_off_c, 1, 64, 0
1, 133344, Note_off_c, 1, 45, 0
1, 133392, Note_off_c, 1, 57, 0
1, 133440, Note_on_c, 1, 67, 127
1, 133440, Note_on_c, 1, 71, 127
1, 133440, Note_on_c, 1, 59, 127
1, 133440, Note_on_c, 1, 55, 127
1, 133440, Note_on_c, 1, 52, 127
1, 133536, Note_off_c, 1, 59, 0
1, 133560, Note_on_c, 1, 57, 127
1, 133632, Note_off_c, 1, 67, 0
1, 133632, Note_off_c, 1, 55, 0
1, 133656, Note_off_c, 1, 57, 0
1, 133680, Note_on_c, 1, 69, 127
1, 133680, Note_on_c, 1, 50, 127
1, 133776, Note_off_c, 1, 69, 0
1, 133800, Note_on_c, 1, 60, 127
1, 133824, Note_off_c, 1, 52, 0
1, 133896, Note_off_c, 1, 60, 0
1, 133920, Note_on_c, 1, 65, 127
1, 133920, Note_on_c, 1, 62, 127
1, 133920, Note_on_c, 1, 53, 127
1, 134016, Note_off_c, 1, 71, 0
1, 134064, Note_off_c, 1, 50, 0
1, 134112, Note_off_c, 1, 65, 0
1, 134160, Note_on_c, 1, 48, 127
1, 134304, Note_off_c, 1, 62, 0
1, 134304, Note_off_c, 1, 53, 0
1, 134400, Note_on_c, 1, 64, 127
1, 134400, Note_on_c, 1, 72, 127
1, 134592, Note_off_c, 1, 48, 0
1, 134592, Note_off_c, 1, 64, 0
1, 134592, Note_off_c, 1, 72, 0
1, 134640, Note_on_c, 1, 79, 127
1, 134640, Note_on_c, 1, 47, 127
1, 134736, Note_off_c, 1, 79, 0
1, 134736, Note_off_c, 1, 47, 0
1, 134760, Note_on_c, 1, 77, 127
1, 134760, Note_on_c, 1, 45, 127
1, 134856, Note_off_c, 1, 77, 0
1, 134856, Note_off_c, 1, 45, 0
1, 134880, Note_on_c, 1, 76, 127
1, 134880, Note_on_c, 1, 43, 127
1, 135072, Note_off_c, 1, 76, 0
1, 135072, Note_off_c, 1, 43, 0
1, 135360, Note_on_c, 1, 74, 127
1, 135600, Note_on_c, 1, 56, 127
1, 135696, Note_off_c, 1, 56, 0
1, 136320, Note_on_c, 1, 44, 127
1, 136512, Note_off_c, 1, 74, 0
1, 136704, Note_off_c, 1, 44, 0
1, 137040, Note_on_c, 1, 68, 127
1, 137040, Note_on_c, 1, 40, 127
1, 137232, Note_off_c, 1, 68, 0
1, 137232, Note_off_c, 1, 40, 0
1, 137640, Note_on_c, 1, 54, 127
1, 137736, Note_off_c, 1, 54, 0
1, 138960, Note_on_c, 1, 66, 127
1, 139056, Note_off_c, 1, 66, 0
1, 142440, Note_on_c, 1, 61, 127
1, 142536, Note_off_c, 1, 61, 0
1, 142560, Note_on_c, 1, 63, 127
1, 142752, Note_off_c, 1, 63, 0
1, 142752, End_track
0, 0, End_of_file