0, 0, Header, 1, 1, 480
1, 0, Start_track
1, 0, Title_t, "Test"
1, 0, Tempo, 500000
1, 0, Instrument_name_t, "Church Organ"
1, 48, Note_on_c, 1, 69, 127
1, 48, Note_on_c, 1, 45, 127
1, 149, Note_off_c, 1, 69, 0
1, 151, Note_on_c, 1, 68, 127
1, 252, Note_off_c, 1, 68, 0
1, 458, Note_off_c, 1, 45, 0
1, 460, Note_on_c, 1, 57, 127
1, 869, Note_off_c, 1, 57, 0
1, 871, Note_on_c, 1, 71, 127
1, 871, Note_on_c, 1, 56, 127
1, 1261, Note_off_c, 1, 71, 0
1, 1274, Note_off_c, 1, 56, 0
1, 1283, Note_on_c, 1, 72, 127
1, 1283, Note_on_c, 1, 57, 127
1, 1384, Note_off_c, 1, 72, 0
1, 1386, Note_on_c, 1, 71, 127
1, 1487, Note_off_c, 1, 71, 0
1, 1693, Note_off_c, 1, 57, 0
1, 1695, Note_on_c, 1, 52, 127
1, 2104, Note_off_c, 1, 52, 0
1, 2106, Note_on_c, 1, 74, 127
1, 2106, Note_on_c, 1, 53, 127
1, 2496, Note_off_c, 1, 74, 0
1, 2509, Note_off_c, 1, 53, 0
1, 2518, Note_on_c, 1, 72, 127
1, 2518, Note_on_c, 1, 50, 127
1, 2927, Note_off_c, 1, 72, 0
1, 2927, Note_off_c, 1, 50, 0
1, 2929, Note_on_c, 1, 72, 127
1, 2929, Note_on_c, 1, 52, 127
1, 3030, Note_off_c, 1, 72, 0
1, 3032, Note_on_c, 1, 71, 127
1, 3133, Note_off_c, 1, 71, 0
1, 3337, Note_off_c, 1, 52, 0
1, 3339, Note_on_c, 1, 72, 127
1, 3339, Note_on_c, 1, 40, 127
1, 3420, Note_off_c, 1, 72, 0
1, 3441, Note_on_c, 1, 71, 127
1, 3522, Note_off_c, 1, 71, 0
1, 3739, Note_off_c, 1, 40, 0
1, 3748, Note_on_c, 1, 69, 127
1, 3748, Note_on_c, 1, 45, 127
1, 3952, Note_off_c, 1, 69, 0
1, 3954, Note_on_c, 1, 71, 127
1, 4158, Note_off_c, 1, 45, 0
1, 4158, Note_off_c, 1, 71, 0
1, 4160, Note_on_c, 1, 72, 127
1, 4160, Note_on_c, 1, 57, 127
1, 4364, Note_off_c, 1, 72, 0
1, 4364, Note_off_c, 1, 57, 0
1, 4366, Note_on_c, 1, 74, 127
1, 4366, Note_on_c, 1, 59, 127
1, 4552, Note_off_c, 1, 74, 0
1, 4563, Note_off_c, 1, 59, 0
1, 4572, Note_on_c, 1, 76, 127
1, 4572, Note_on_c, 1, 60, 127
1, 4758, Note_off_c, 1, 76, 0
1, 4769, Note_off_c, 1, 60, 0
1, 4778, Note_on_c, 1, 78, 127
1, 4778, Note_on_c, 1, 57, 127
1, 4964, Note_off_c, 1, 78, 0
1, 4975, Note_off_c, 1, 57, 0
1, 4984, Note_on_c, 1, 64, 127
1, 4984, Note_on_c, 1, 79, 127
1, 5085, Note_off_c, 1, 64, 0
1, 5087, Note_on_c, 1, 63, 127
1, 5188, Note_off_c, 1, 79, 0
1, 5188, Note_off_c, 1, 63, 0
1, 5190, Note_on_c, 1, 78, 127
1, 5190, Note_on_c, 1, 64, 127
1, 5394, Note_off_c, 1, 78, 0
1, 5396, Note_on_c, 1, 79, 127
1, 5396, Note_on_c, 1, 52, 127
1, 5597, Note_off_c, 1, 64, 0
1, 5599, Note_off_c, 1, 79, 0
1, 5601, Note_on_c, 1, 81, 127
1, 5787, Note_off_c, 1, 81, 0
1, 5804, Note_off_c, 1, 52, 0
1, 5806, Note_on_c, 1, 83, 127
1, 5806, Note_on_c, 1, 66, 127
1, 5806, Note_on_c, 1, 63, 127
1, 5992, Note_off_c, 1, 83, 0
1, 6011, Note_on_c, 1, 84, 127
1, 6195, Note_off_c, 1, 66, 0
1, 6197, Note_off_c, 1, 84, 0
1, 6208, Note_off_c, 1, 63, 0
1, 6217, Note_on_c, 1, 83, 127
1, 6217, Note_on_c, 1, 64, 127
1, 6217, Note_on_c, 1, 67, 127
1, 6421, Note_off_c, 1, 83, 0
1, 6423, Note_on_c, 1, 81, 127
1, 6627, Note_off_c, 1, 64, 0
1, 6627, Note_off_c, 1, 81, 0
1, 6629, Note_on_c, 1, 79, 127
1, 6629, Note_on_c, 1, 59, 127
1, 6833, Note_off_c, 1, 79, 0
1, 6835, Note_on_c, 1, 78, 127
1, 7021, Note_off_c, 1, 78, 0
1, 7038, Note_off_c, 1, 67, 0
1, 7038, Note_off_c, 1, 59, 0
1, 7040, Note_on_c, 1, 76, 127
1, 7040, Note_on_c, 1, 69, 127
1, 7040, Note_on_c, 1, 60, 127
1, 7226, Note_off_c, 1, 76, 0
1, 7245, Note_on_c, 1, 75, 127
1, 7429, Note_off_c, 1, 69, 0
1, 7431, Note_off_c, 1, 75, 0
1, 7442, Note_off_c, 1, 60, 0
1, 7451, Note_on_c, 1, 76, 127
1, 7451, Note_on_c, 1, 67, 127
1, 7451, Note_on_c, 1, 57, 127
1, 7655, Note_off_c, 1, 76, 0
1, 7657, Note_on_c, 1, 78, 127
1, 7861, Note_off_c, 1, 67, 0
1, 7861, Note_off_c, 1, 57, 0
1, 7861, Note_off_c, 1, 78, 0
1, 7863, Note_on_c, 1, 76, 127
1, 7863, Note_on_c, 1, 59, 127
1, 7863, Note_on_c, 1, 66, 127
1, 8120, Note_on_c, 1, 75, 127
1, 8135, Note_off_c, 1, 76, 0
1, 8186, Note_off_c, 1, 75, 0
1, 8272, Note_off_c, 1, 59, 0
1, 8274, Note_on_c, 1, 47, 127
1, 8676, Note_off_c, 1, 47, 0
1, 8682, Note_off_c, 1, 66, 0
1, 8684, Note_on_c, 1, 64, 127
1, 8684, Note_on_c, 1, 52, 127
1, 8684, Note_on_c, 1, 76, 127
1, 8888, Note_off_c, 1, 64, 0
1, 8890, Note_on_c, 1, 66, 127
1, 9094, Note_off_c, 1, 66, 0
1, 9096, Note_on_c, 1, 67, 127
1, 9300, Note_off_c, 1, 67, 0
1, 9302, Note_on_c, 1, 69, 127
1, 9488, Note_off_c, 1, 69, 0
1, 9499, Note_off_c, 1, 52, 0
1, 9505, Note_off_c, 1, 76, 0
1, 9507, Note_on_c, 1, 71, 127
1, 9507, Note_on_c, 1, 79, 127
1, 9693, Note_off_c, 1, 71, 0
1, 9712, Note_on_c, 1, 73, 127
1, 9898, Note_off_c, 1, 73, 0
1, 9917, Note_on_c, 1, 74, 127
1, 10101, Note_off_c, 1, 79, 0
1, 10122, Note_on_c, 1, 82, 127
1, 10326, Note_off_c, 1, 82, 0
1, 10328, Note_on_c, 1, 81, 127
1, 10532, Note_off_c, 1, 81, 0
1, 10739, Note_on_c, 1, 77, 127
1, 10925, Note_off_c, 1, 77, 0
1, 10944, Note_on_c, 1, 76, 127
1, 11130, Note_off_c, 1, 76, 0
1, 11353, Note_off_c, 1, 74, 0
1, 11767, Note_on_c, 1, 72, 127
1, 11960, Note_off_c, 1, 72, 0
1, 12179, Note_on_c, 1, 69, 127
1, 12372, Note_off_c, 1, 69, 0
1, 12385, Note_on_c, 1, 68, 127
1, 13619, Note_off_c, 1, 68, 0
1, 13621, Note_on_c, 1, 72, 127
1, 13621, Note_on_c, 1, 69, 127
1, 13825, Note_off_c, 1, 72, 0
1, 13825, Note_off_c, 1, 69, 0
1, 13827, Note_on_c, 1, 74, 127
1, 13827, Note_on_c, 1, 65, 127
1, 14031, Note_off_c, 1, 74, 0
1, 14031, Note_off_c, 1, 65, 0
1, 14033, Note_on_c, 1, 72, 127
1, 14033, Note_on_c, 1, 64, 127
1, 14237, Note_off_c, 1, 72, 0
1, 14237, Note_off_c, 1, 64, 0
1, 14239, Note_on_c, 1, 71, 127
1, 14239, Note_on_c, 1, 62, 127
1, 14443, Note_off_c, 1, 71, 0
1, 14443, Note_off_c, 1, 62, 0
1, 14445, Note_on_c, 1, 69, 127
1, 14445, Note_on_c, 1, 60, 127
1, 14634, Note_off_c, 1, 69, 0
1, 14634, Note_off_c, 1, 60, 0
1, 14651, Note_on_c, 1, 68, 127
1, 14651, Note_on_c, 1, 59, 127
1, 14837, Note_off_c, 1, 68, 0
1, 14837, Note_off_c, 1, 59, 0
1, 14856, Note_on_c, 1, 60, 127
1, 14856, Note_on_c, 1, 45, 127
1, 14856, Note_on_c, 1, 69, 127
1, 15060, Note_off_c, 1, 60, 0
1, 15062, Note_on_c, 1, 59, 127
1, 15266, Note_off_c, 1, 59, 0
1, 15474, Note_on_c, 1, 62, 127
1, 15660, Note_off_c, 1, 62, 0
1, 15677, Note_off_c, 1, 45, 0
1, 15679, Note_on_c, 1, 64, 127
1, 15679, Note_on_c, 1, 47, 127
1, 15865, Note_off_c, 1, 64, 0
1, 15884, Note_on_c, 1, 65, 127
1, 16070, Note_off_c, 1, 65, 0
1, 16081, Note_off_c, 1, 47, 0
1, 16090, Note_on_c, 1, 48, 127
1, 16706, Note_off_c, 1, 69, 0
1, 16708, Note_on_c, 1, 71, 127
1, 16894, Note_off_c, 1, 71, 0
1, 16911, Note_off_c, 1, 48, 0
1, 16913, Note_on_c, 1, 72, 127
1, 16913, Note_on_c, 1, 57, 127
1, 16913, Note_on_c, 1, 50, 127
1, 17099, Note_off_c, 1, 72, 0
1, 17099, Note_off_c, 1, 57, 0
1, 17118, Note_on_c, 1, 74, 127
1, 17118, Note_on_c, 1, 56, 127
1, 17304, Note_off_c, 1, 74, 0
1, 17304, Note_off_c, 1, 56, 0
1, 17315, Note_off_c, 1, 50, 0
1, 17324, Note_on_c, 1, 76, 127
1, 17324, Note_on_c, 1, 57, 127
1, 17324, Note_on_c, 1, 48, 127
1, 17528, Note_off_c, 1, 76, 0
1, 17528, Note_off_c, 1, 57, 0
1, 17530, Note_on_c, 1, 77, 127
1, 17530, Note_on_c, 1, 59, 127
1, 17734, Note_off_c, 1, 48, 0
1, 17734, Note_off_c, 1, 77, 0
1, 17734, Note_off_c, 1, 59, 0
1, 17736, Note_on_c, 1, 76, 127
1, 17736, Note_on_c, 1, 57, 127
1, 17736, Note_on_c, 1, 47, 127
1, 17940, Note_off_c, 1, 76, 0
1, 17942, Note_on_c, 1, 74, 127
1, 17961, Note_off_c, 1, 57, 0
1, 17961, Note_on_c, 1, 56, 127
1, 18042, Note_off_c, 1, 56, 0
1, 18128, Note_off_c, 1, 74, 0
1, 18148, Note_on_c, 1, 72, 127
1, 18334, Note_off_c, 1, 72, 0
1, 18353, Note_on_c, 1, 71, 127
1, 18539, Note_off_c, 1, 71, 0
1, 18556, Note_off_c, 1, 47, 0
1, 18558, Note_on_c, 1, 45, 127
1, 18558, Note_on_c, 1, 57, 127
1, 18558, Note_on_c, 1, 72, 127
1, 18762, Note_off_c, 1, 45, 0
1, 18764, Note_on_c, 1, 47, 127
1, 18968, Note_off_c, 1, 57, 0
1, 18968, Note_off_c, 1, 47, 0
1, 18970, Note_on_c, 1, 48, 127
1, 18970, Note_on_c, 1, 64, 127
1, 19174, Note_off_c, 1, 48, 0
1, 19176, Note_on_c, 1, 50, 127
1, 19373, Note_off_c, 1, 50, 0
1, 19379, Note_off_c, 1, 64, 0
1, 19381, Note_on_c, 1, 52, 127
1, 19381, Note_on_c, 1, 69, 127
1, 19578, Note_off_c, 1, 52, 0
1, 19587, Note_on_c, 1, 54, 127
1, 19784, Note_off_c, 1, 54, 0
1, 19790, Note_off_c, 1, 72, 0
1, 19792, Note_on_c, 1, 55, 127
1, 19792, Note_on_c, 1, 71, 127
1, 19996, Note_off_c, 1, 55, 0
1, 20182, Note_off_c, 1, 69, 0
1, 20203, Note_on_c, 1, 59, 127
1, 20203, Note_on_c, 1, 62, 127
1, 20407, Note_off_c, 1, 59, 0
1, 20409, Note_on_c, 1, 60, 127
1, 20606, Note_off_c, 1, 60, 0
1, 20612, Note_off_c, 1, 62, 0
1, 20614, Note_on_c, 1, 67, 127
1, 21021, Note_off_c, 1, 67, 0
1, 21023, Note_off_c, 1, 71, 0
1, 21025, Note_on_c, 1, 69, 127
1, 21025, Note_on_c, 1, 65, 127
1, 21229, Note_off_c, 1, 69, 0
1, 21231, Note_on_c, 1, 67, 127
1, 21432, Note_off_c, 1, 65, 0
1, 21434, Note_off_c, 1, 67, 0
1, 21436, Note_on_c, 1, 69, 127
1, 21436, Note_on_c, 1, 65, 127
1, 21640, Note_off_c, 1, 69, 0
1, 21642, Note_on_c, 1, 71, 127
1, 21642, Note_on_c, 1, 67, 127
1, 21828, Note_off_c, 1, 71, 0
1, 21828, Note_off_c, 1, 67, 0
1, 21847, Note_on_c, 1, 72, 127
1, 22033, Note_off_c, 1, 72, 0
1, 22052, Note_on_c, 1, 74, 127
1, 22238, Note_off_c, 1, 74, 0
1, 22249, Note_off_c, 1, 65, 0
1, 22258, Note_on_c, 1, 76, 127
1, 22258, Note_on_c, 1, 64, 127
1, 22258, Note_on_c, 1, 72, 127
1, 22462, Note_off_c, 1, 76, 0
1, 22464, Note_on_c, 1, 77, 127
1, 22665, Note_off_c, 1, 64, 0
1, 22667, Note_off_c, 1, 72, 0
1, 22667, Note_off_c, 1, 77, 0
1, 22669, Note_on_c, 1, 79, 127
1, 22669, Note_on_c, 1, 64, 127
1, 22873, Note_off_c, 1, 79, 0
1, 22875, Note_on_c, 1, 81, 127
1, 22875, Note_on_c, 1, 65, 127
1, 23061, Note_off_c, 1, 81, 0
1, 23061, Note_off_c, 1, 65, 0
1, 23080, Note_on_c, 1, 83, 127
1, 23080, Note_on_c, 1, 67, 127
1, 23266, Note_off_c, 1, 83, 0
1, 23266, Note_off_c, 1, 67, 0
1, 23285, Note_on_c, 1, 84, 127
1, 23285, Note_on_c, 1, 69, 127
1, 23471, Note_off_c, 1, 84, 0
1, 23471, Note_off_c, 1, 69, 0
1, 23482, Note_off_c, 1, 64, 0
1, 23491, Note_on_c, 1, 77, 127
1, 23491, Note_on_c, 1, 71, 127
1, 23491, Note_on_c, 1, 62, 127
1, 23695, Note_off_c, 1, 77, 0
1, 23697, Note_on_c, 1, 81, 127
1, 23901, Note_off_c, 1, 71, 0
1, 23901, Note_off_c, 1, 81, 0
1, 23903, Note_on_c, 1, 79, 127
1, 23903, Note_on_c, 1, 69, 127
1, 24107, Note_off_c, 1, 79, 0
1, 24312, Note_off_c, 1, 69, 0
1, 24314, Note_on_c, 1, 76, 127
1, 24500, Note_off_c, 1, 76, 0
1, 24519, Note_on_c, 1, 74, 127
1, 24705, Note_off_c, 1, 74, 0
1, 24722, Note_off_c, 1, 62, 0
1, 24724, Note_on_c, 1, 48, 127
1, 24724, Note_on_c, 1, 76, 127
1, 24724, Note_on_c, 1, 72, 127
1, 24928, Note_off_c, 1, 48, 0
1, 24930, Note_on_c, 1, 52, 127
1, 25134, Note_off_c, 1, 76, 0
1, 25134, Note_off_c, 1, 72, 0
1, 25134, Note_off_c, 1, 52, 0
1, 25136, Note_on_c, 1, 55, 127
1, 25136, Note_on_c, 1, 72, 127
1, 25136, Note_on_c, 1, 64, 127
1, 25340, Note_off_c, 1, 55, 0
1, 25342, Note_on_c, 1, 60, 127
1, 25546, Note_off_c, 1, 72, 0
1, 25546, Note_off_c, 1, 64, 0
1, 25548, Note_on_c, 1, 74, 127
1, 25548, Note_on_c, 1, 65, 127
1, 25745, Note_off_c, 1, 60, 0
1, 25754, Note_on_c, 1, 59, 127
1, 25938, Note_off_c, 1, 74, 0
1, 25938, Note_off_c, 1, 65, 0
1, 25951, Note_off_c, 1, 59, 0
1, 25960, Note_on_c, 1, 60, 127
1, 25960, Note_on_c, 1, 76, 127
1, 25960, Note_on_c, 1, 67, 127
1, 26164, Note_off_c, 1, 60, 0
1, 26166, Note_on_c, 1, 55, 127
1, 26370, Note_off_c, 1, 55, 0
1, 26372, Note_on_c, 1, 52, 127
1, 26576, Note_off_c, 1, 52, 0
1, 26578, Note_on_c, 1, 48, 127
1, 26782, Note_off_c, 1, 76, 0
1, 26782, Note_off_c, 1, 67, 0
1, 26784, Note_on_c, 1, 77, 127
1, 26784, Note_on_c, 1, 69, 127
1, 26981, Note_off_c, 1, 48, 0
1, 26990, Note_on_c, 1, 47, 127
1, 27174, Note_off_c, 1, 77, 0
1, 27174, Note_off_c, 1, 69, 0
1, 27187, Note_off_c, 1, 47, 0
1, 27196, Note_on_c, 1, 48, 127
1, 27196, Note_on_c, 1, 76, 127
1, 27196, Note_on_c, 1, 67, 127
1, 27400, Note_off_c, 1, 48, 0
1, 27402, Note_on_c, 1, 52, 127
1, 27606, Note_off_c, 1, 76, 0
1, 27606, Note_off_c, 1, 67, 0
1, 27606, Note_off_c, 1, 52, 0
1, 27608, Note_on_c, 1, 76, 127
1, 27608, Note_on_c, 1, 55, 127
1, 27608, Note_on_c, 1, 65, 127
1, 27743, Note_off_c, 1, 76, 0
1, 27745, Note_on_c, 1, 74, 127
1, 27811, Note_off_c, 1, 55, 0
1, 27813, Note_off_c, 1, 74, 0
1, 27813, Note_on_c, 1, 60, 127
1, 28011, Note_off_c, 1, 60, 0
1, 28020, Note_on_c, 1, 59, 127
1, 28217, Note_off_c, 1, 59, 0
1, 28429, Note_off_c, 1, 65, 0
1, 28431, Note_on_c, 1, 72, 127
1, 28431, Note_on_c, 1, 64, 127
1, 28431, Note_on_c, 1, 48, 127
1, 28635, Note_off_c, 1, 72, 0
1, 28637, Note_on_c, 1, 67, 127
1, 28838, Note_off_c, 1, 64, 0
1, 28840, Note_off_c, 1, 48, 0
1, 28840, Note_off_c, 1, 67, 0
1, 28842, Note_on_c, 1, 69, 127
1, 28842, Note_on_c, 1, 60, 127
1, 29046, Note_off_c, 1, 69, 0
1, 29048, Note_on_c, 1, 71, 127
1, 29234, Note_off_c, 1, 71, 0
1, 29251, Note_off_c, 1, 60, 0
1, 29253, Note_on_c, 1, 72, 127
1, 29253, Note_on_c, 1, 59, 127
1, 29439, Note_off_c, 1, 72, 0
1, 29458, Note_on_c, 1, 74, 127
1, 29644, Note_off_c, 1, 74, 0
1, 29655, Note_off_c, 1, 59, 0
1, 29664, Note_on_c, 1, 57, 127
1, 29664, Note_on_c, 1, 76, 127
1, 29868, Note_off_c, 1, 57, 0
1, 29870, Note_on_c, 1, 69, 127
1, 30074, Note_off_c, 1, 69, 0
1, 30076, Note_on_c, 1, 67, 127
1, 30076, Note_on_c, 1, 72, 127
1, 30280, Note_off_c, 1, 67, 0
1, 30282, Note_on_c, 1, 65, 127
1, 30479, Note_off_c, 1, 65, 0
1, 30485, Note_off_c, 1, 76, 0
1, 30485, Note_off_c, 1, 72, 0
1, 30487, Note_on_c, 1, 64, 127
1, 30487, Note_on_c, 1, 77, 127
1, 30487, Note_on_c, 1, 74, 127
1, 30684, Note_off_c, 1, 64, 0
1, 30693, Note_on_c, 1, 62, 127
1, 30877, Note_off_c, 1, 77, 0
1, 30877, Note_off_c, 1, 74, 0
1, 30890, Note_off_c, 1, 62, 0
1, 30899, Note_on_c, 1, 76, 127
1, 30899, Note_on_c, 1, 60, 127
1, 30899, Note_on_c, 1, 79, 127
1, 31000, Note_off_c, 1, 76, 0
1, 31002, Note_on_c, 1, 74, 127
1, 31103, Note_off_c, 1, 60, 0
1, 31103, Note_off_c, 1, 74, 0
1, 31105, Note_on_c, 1, 64, 127
1, 31309, Note_off_c, 1, 64, 0
1, 31311, Note_on_c, 1, 67, 127
1, 31515, Note_off_c, 1, 67, 0
1, 31517, Note_on_c, 1, 72, 127
1, 31721, Note_off_c, 1, 79, 0
1, 31723, Note_on_c, 1, 81, 127
1, 31723, Note_on_c, 1, 77, 127
1, 31920, Note_off_c, 1, 72, 0
1, 31929, Note_on_c, 1, 71, 127
1, 32113, Note_off_c, 1, 81, 0
1, 32113, Note_off_c, 1, 77, 0
1, 32126, Note_off_c, 1, 71, 0
1, 32135, Note_on_c, 1, 72, 127
1, 32135, Note_on_c, 1, 79, 127
1, 32135, Note_on_c, 1, 76, 127
1, 32339, Note_off_c, 1, 72, 0
1, 32341, Note_on_c, 1, 60, 127
1, 32545, Note_off_c, 1, 79, 0
1, 32545, Note_off_c, 1, 76, 0
1, 32545, Note_off_c, 1, 60, 0
1, 32547, Note_on_c, 1, 72, 127
1, 32547, Note_on_c, 1, 79, 127
1, 32547, Note_on_c, 1, 74, 127
1, 32751, Note_off_c, 1, 72, 0
1, 32753, Note_on_c, 1, 71, 127
1, 32856, Note_off_c, 1, 79, 0
1, 32856, Note_on_c, 1, 77, 127
1, 32937, Note_off_c, 1, 77, 0
1, 32950, Note_off_c, 1, 71, 0
1, 32959, Note_on_c, 1, 69, 127
1, 33155, Note_off_c, 1, 69, 0
1, 33360, Note_off_c, 1, 74, 0
1, 33369, Note_on_c, 1, 72, 127
1, 33369, Note_on_c, 1, 76, 127
1, 33562, Note_off_c, 1, 72, 0
1, 33575, Note_on_c, 1, 74, 127
1, 33779, Note_off_c, 1, 74, 0
1, 33781, Note_on_c, 1, 60, 127
1, 33987, Note_on_c, 1, 70, 127
1, 34173, Note_off_c, 1, 70, 0
1, 34190, Note_off_c, 1, 60, 0
1, 34192, Note_on_c, 1, 69, 127
1, 34192, Note_on_c, 1, 61, 127
1, 34378, Note_off_c, 1, 69, 0
1, 34397, Note_on_c, 1, 67, 127
1, 34583, Note_off_c, 1, 67, 0
1, 34594, Note_off_c, 1, 61, 0
1, 34603, Note_on_c, 1, 62, 127
1, 34603, Note_on_c, 1, 65, 127
1, 34807, Note_off_c, 1, 62, 0
1, 35013, Note_off_c, 1, 76, 0
1, 35013, Note_off_c, 1, 65, 0
1, 35015, Note_on_c, 1, 65, 127
1, 35015, Note_on_c, 1, 74, 127
1, 35015, Note_on_c, 1, 69, 127
1, 35219, Note_off_c, 1, 65, 0
1, 35221, Note_on_c, 1, 64, 127
1, 35418, Note_off_c, 1, 64, 0
1, 35424, Note_off_c, 1, 74, 0
1, 35426, Note_on_c, 1, 62, 127
1, 35426, Note_on_c, 1, 76, 127
1, 35623, Note_off_c, 1, 62, 0
1, 35632, Note_on_c, 1, 61, 127
1, 35816, Note_off_c, 1, 76, 0
1, 35829, Note_off_c, 1, 61, 0
1, 35838, Note_on_c, 1, 77, 127
1, 36248, Note_off_c, 1, 69, 0
1, 36456, Note_on_c, 1, 60, 127
1, 36653, Note_off_c, 1, 60, 0
1, 36659, Note_off_c, 1, 77, 0
1, 36661, Note_on_c, 1, 58, 127
1, 36661, Note_on_c, 1, 79, 127
1, 36661, Note_on_c, 1, 73, 127
1, 36858, Note_off_c, 1, 58, 0
1, 36867, Note_on_c, 1, 57, 127
1, 37051, Note_off_c, 1, 79, 0
1, 37051, Note_off_c, 1, 73, 0
1, 37064, Note_off_c, 1, 57, 0
1, 37073, Note_on_c, 1, 55, 127
1, 37073, Note_on_c, 1, 77, 127
1, 37073, Note_on_c, 1, 74, 127
1, 37277, Note_off_c, 1, 55, 0
1, 37279, Note_on_c, 1, 53, 127
1, 37483, Note_off_c, 1, 53, 0
1, 37588, Note_off_c, 1, 77, 0
1, 37588, Note_on_c, 1, 76, 127
1, 37689, Note_off_c, 1, 76, 0
1, 37691, Note_on_c, 1, 58, 127
1, 37887, Note_off_c, 1, 58, 0
1, 37893, Note_off_c, 1, 74, 0
1, 37895, Note_on_c, 1, 77, 127
1, 37895, Note_on_c, 1, 57, 127
1, 37895, Note_on_c, 1, 73, 127
1, 37976, Note_off_c, 1, 77, 0
1, 37997, Note_on_c, 1, 76, 127
1, 38078, Note_off_c, 1, 76, 0
1, 38091, Note_off_c, 1, 57, 0
1, 38100, Note_on_c, 1, 55, 127
1, 38285, Note_off_c, 1, 73, 0
1, 38296, Note_off_c, 1, 55, 0
1, 38305, Note_on_c, 1, 53, 127
1, 38305, Note_on_c, 1, 74, 127
1, 38509, Note_off_c, 1, 53, 0
1, 38511, Note_on_c, 1, 69, 127
1, 38511, Note_on_c, 1, 55, 127
1, 38715, Note_off_c, 1, 69, 0
1, 38715, Note_off_c, 1, 55, 0
1, 38717, Note_on_c, 1, 71, 127
1, 38906, Note_off_c, 1, 74, 0
1, 38921, Note_off_c, 1, 71, 0
1, 38923, Note_on_c, 1, 73, 127
1, 38923, Note_on_c, 1, 52, 127
1, 39109, Note_off_c, 1, 73, 0
1, 39120, Note_off_c, 1, 52, 0
1, 39129, Note_on_c, 1, 74, 127
1, 39129, Note_on_c, 1, 50, 127
1, 39315, Note_off_c, 1, 74, 0
1, 39326, Note_off_c, 1, 50, 0
1, 39335, Note_on_c, 1, 76, 127
1, 39335, Note_on_c, 1, 49, 127
1, 39521, Note_off_c, 1, 76, 0
1, 39532, Note_off_c, 1, 49, 0
1, 39541, Note_on_c, 1, 50, 127
1, 39541, Note_on_c, 1, 77, 127
1, 39745, Note_off_c, 1, 50, 0
1, 39747, Note_on_c, 1, 53, 127
1, 39951, Note_off_c, 1, 53, 0
1, 39953, Note_on_c, 1, 57, 127
1, 39953, Note_on_c, 1, 74, 127
1, 40157, Note_off_c, 1, 57, 0
1, 40159, Note_on_c, 1, 62, 127
1, 40363, Note_off_c, 1, 77, 0
1, 40363, Note_off_c, 1, 74, 0
1, 40365, Note_on_c, 1, 79, 127
1, 40365, Note_on_c, 1, 76, 127
1, 40562, Note_off_c, 1, 62, 0
1, 40571, Note_on_c, 1, 61, 127
1, 40755, Note_off_c, 1, 79, 0
1, 40755, Note_off_c, 1, 76, 0
1, 40768, Note_off_c, 1, 61, 0
1, 40777, Note_on_c, 1, 62, 127
1, 40777, Note_on_c, 1, 81, 127
1, 40777, Note_on_c, 1, 77, 127
1, 40981, Note_off_c, 1, 62, 0
1, 40983, Note_on_c, 1, 57, 127
1, 41187, Note_off_c, 1, 57, 0
1, 41189, Note_on_c, 1, 53, 127
1, 41393, Note_off_c, 1, 53, 0
1, 41395, Note_on_c, 1, 50, 127
1, 41599, Note_off_c, 1, 81, 0
1, 41599, Note_off_c, 1, 77, 0
1, 41601, Note_on_c, 1, 82, 127
1, 41601, Note_on_c, 1, 79, 127
1, 41798, Note_off_c, 1, 50, 0
1, 41807, Note_on_c, 1, 49, 127
1, 41991, Note_off_c, 1, 82, 0
1, 41991, Note_off_c, 1, 79, 0
1, 42004, Note_off_c, 1, 49, 0
1, 42013, Note_on_c, 1, 50, 127
1, 42013, Note_on_c, 1, 81, 127
1, 42013, Note_on_c, 1, 77, 127
1, 42217, Note_off_c, 1, 50, 0
1, 42219, Note_on_c, 1, 53, 127
1, 42423, Note_off_c, 1, 81, 0
1, 42423, Note_off_c, 1, 77, 0
1, 42423, Note_off_c, 1, 53, 0
1, 42425, Note_on_c, 1, 81, 127
1, 42425, Note_on_c, 1, 57, 127
1, 42425, Note_on_c, 1, 76, 127
1, 42505, Note_on_c, 1, 79, 127
1, 42508, Note_off_c, 1, 81, 0
1, 42588, Note_off_c, 1, 79, 0
1, 42628, Note_off_c, 1, 57, 0
1, 42630, Note_on_c, 1, 62, 127
1, 42827, Note_off_c, 1, 62, 0
1, 42836, Note_on_c, 1, 61, 127
1, 43033, Note_off_c, 1, 61, 0
1, 43239, Note_off_c, 1, 76, 0
1, 43248, Note_on_c, 1, 77, 127
1, 43248, Note_on_c, 1, 50, 127
1, 43452, Note_off_c, 1, 77, 0
1, 43454, Note_on_c, 1, 81, 127
1, 43555, Note_off_c, 1, 81, 0
1, 43557, Note_on_c, 1, 79, 127
1, 43658, Note_off_c, 1, 50, 0
1, 43658, Note_off_c, 1, 79, 0
1, 43660, Note_on_c, 1, 77, 127
1, 43660, Note_on_c, 1, 74, 127
1, 43660, Note_on_c, 1, 53, 127
1, 43864, Note_off_c, 1, 77, 0
1, 43866, Note_on_c, 1, 81, 127
1, 44052, Note_off_c, 1, 81, 0
1, 44069, Note_off_c, 1, 74, 0
1, 44069, Note_off_c, 1, 53, 0
1, 44071, Note_on_c, 1, 76, 127
1, 44071, Note_on_c, 1, 73, 127
1, 44071, Note_on_c, 1, 57, 127
1, 44257, Note_off_c, 1, 76, 0
1, 44276, Note_on_c, 1, 81, 127
1, 44460, Note_off_c, 1, 73, 0
1, 44462, Note_off_c, 1, 81, 0
1, 44473, Note_off_c, 1, 57, 0
1, 44482, Note_on_c, 1, 74, 127
1, 44482, Note_on_c, 1, 50, 127
1, 44482, Note_on_c, 1, 77, 127
1, 44686, Note_off_c, 1, 74, 0
1, 44686, Note_off_c, 1, 50, 0
1, 44688, Note_on_c, 1, 53, 127
1, 44789, Note_off_c, 1, 53, 0
1, 44791, Note_on_c, 1, 72, 127
1, 44791, Note_on_c, 1, 52, 127
1, 44892, Note_off_c, 1, 72, 0
1, 44892, Note_off_c, 1, 52, 0
1, 44894, Note_on_c, 1, 71, 127
1, 45098, Note_off_c, 1, 71, 0
1, 45306, Note_on_c, 1, 69, 127
1, 45306, Note_on_c, 1, 48, 127
1, 45492, Note_off_c, 1, 69, 0
1, 45503, Note_off_c, 1, 48, 0
1, 45718, Note_on_c, 1, 67, 127
1, 45718, Note_on_c, 1, 47, 127
1, 45922, Note_off_c, 1, 77, 0
1, 45924, Note_on_c, 1, 79, 127
1, 46025, Note_off_c, 1, 79, 0
1, 46128, Note_off_c, 1, 67, 0
1, 46128, Note_off_c, 1, 47, 0
1, 46130, Note_on_c, 1, 76, 127
1, 46130, Note_on_c, 1, 72, 127
1, 46130, Note_on_c, 1, 48, 127
1, 46334, Note_off_c, 1, 76, 0
1, 46336, Note_on_c, 1, 79, 127
1, 46522, Note_off_c, 1, 79, 0
1, 46539, Note_off_c, 1, 72, 0
1, 46539, Note_off_c, 1, 48, 0
1, 46541, Note_on_c, 1, 74, 127
1, 46541, Note_on_c, 1, 71, 127
1, 46541, Note_on_c, 1, 55, 127
1, 46727, Note_off_c, 1, 74, 0
1, 46746, Note_on_c, 1, 79, 127
1, 46930, Note_off_c, 1, 71, 0
1, 46932, Note_off_c, 1, 79, 0
1, 46943, Note_off_c, 1, 55, 0
1, 46952, Note_on_c, 1, 72, 127
1, 46952, Note_on_c, 1, 60, 127
1, 46952, Note_on_c, 1, 76, 127
1, 47156, Note_off_c, 1, 72, 0
1, 47156, Note_off_c, 1, 60, 0
1, 47158, Note_on_c, 1, 64, 127
1, 47259, Note_off_c, 1, 64, 0
1, 47261, Note_on_c, 1, 71, 127
1, 47261, Note_on_c, 1, 62, 127
1, 47362, Note_off_c, 1, 71, 0
1, 47362, Note_off_c, 1, 62, 0
1, 47364, Note_on_c, 1, 69, 127
1, 47568, Note_off_c, 1, 69, 0
1, 47776, Note_on_c, 1, 67, 127
1, 47776, Note_on_c, 1, 59, 127
1, 47962, Note_off_c, 1, 67, 0
1, 47973, Note_off_c, 1, 59, 0
1, 48188, Note_on_c, 1, 66, 127
1, 48188, Note_on_c, 1, 57, 127
1, 48392, Note_off_c, 1, 76, 0
1, 48394, Note_on_c, 1, 74, 127
1, 48495, Note_off_c, 1, 74, 0
1, 48598, Note_off_c, 1, 66, 0
1, 48598, Note_off_c, 1, 57, 0
1, 48600, Note_on_c, 1, 71, 127
1, 48600, Note_on_c, 1, 67, 127
1, 48600, Note_on_c, 1, 59, 127
1, 48804, Note_off_c, 1, 71, 0
1, 48806, Note_on_c, 1, 74, 127
1, 48992, Note_off_c, 1, 74, 0
1, 49009, Note_off_c, 1, 67, 0
1, 49009, Note_off_c, 1, 59, 0
1, 49011, Note_on_c, 1, 69, 127
1, 49011, Note_on_c, 1, 66, 127
1, 49011, Note_on_c, 1, 62, 127
1, 49197, Note_off_c, 1, 69, 0
1, 49216, Note_on_c, 1, 74, 127
1, 49400, Note_off_c, 1, 66, 0
1, 49402, Note_off_c, 1, 74, 0
1, 49413, Note_off_c, 1, 62, 0
1, 49422, Note_on_c, 1, 71, 127
1, 49422, Note_on_c, 1, 55, 127
1, 49422, Note_on_c, 1, 67, 127
1, 49626, Note_off_c, 1, 71, 0
1, 49832, Note_off_c, 1, 55, 0
1, 49834, Note_on_c, 1, 74, 127
1, 49834, Note_on_c, 1, 43, 127
1, 50038, Note_off_c, 1, 74, 0
1, 50040, Note_on_c, 1, 79, 127
1, 50244, Note_off_c, 1, 43, 0
1, 50246, Note_on_c, 1, 45, 127
1, 50430, Note_off_c, 1, 79, 0
1, 50451, Note_on_c, 1, 78, 127
1, 50637, Note_off_c, 1, 78, 0
1, 50648, Note_off_c, 1, 45, 0
1, 50657, Note_on_c, 1, 47, 127
1, 51067, Note_off_c, 1, 67, 0
1, 51479, Note_off_c, 1, 47, 0
1, 51481, Note_on_c, 1, 57, 127
1, 51481, Note_on_c, 1, 48, 127
1, 51686, Note_on_c, 1, 66, 127
1, 51870, Note_off_c, 1, 57, 0
1, 51872, Note_off_c, 1, 66, 0
1, 51883, Note_off_c, 1, 48, 0
1, 51892, Note_on_c, 1, 67, 127
1, 51892, Note_on_c, 1, 47, 127
1, 51892, Note_on_c, 1, 59, 127
1, 52096, Note_off_c, 1, 67, 0
1, 52098, Note_on_c, 1, 62, 127
1, 52302, Note_off_c, 1, 47, 0
1, 52302, Note_off_c, 1, 62, 0
1, 52304, Note_on_c, 1, 64, 127
1, 52304, Note_on_c, 1, 45, 127
1, 52407, Note_off_c, 1, 59, 0
1, 52508, Note_off_c, 1, 64, 0
1, 52715, Note_on_c, 1, 60, 127
1, 52920, Note_on_c, 1, 66, 127
1, 53104, Note_off_c, 1, 60, 0
1, 53106, Note_off_c, 1, 66, 0
1, 53123, Note_off_c, 1, 45, 0
1, 53125, Note_on_c, 1, 67, 127
1, 53125, Note_on_c, 1, 59, 127
1, 53125, Note_on_c, 1, 43, 127
1, 53329, Note_off_c, 1, 67, 0
1, 53331, Note_on_c, 1, 74, 127
1, 53535, Note_off_c, 1, 59, 0
1, 53535, Note_off_c, 1, 43, 0
1, 53535, Note_off_c, 1, 74, 0
1, 53537, Note_on_c, 1, 72, 127
1, 53537, Note_on_c, 1, 55, 127
1, 53537, Note_on_c, 1, 57, 127
1, 53741, Note_off_c, 1, 72, 0
1, 53743, Note_on_c, 1, 71, 127
1, 53929, Note_off_c, 1, 71, 0
1, 53946, Note_off_c, 1, 55, 0
1, 53948, Note_on_c, 1, 54, 127
1, 54153, Note_on_c, 1, 74, 127
1, 54339, Note_off_c, 1, 74, 0
1, 54350, Note_off_c, 1, 57, 0
1, 54350, Note_off_c, 1, 54, 0
1, 54359, Note_on_c, 1, 55, 127
1, 54359, Note_on_c, 1, 71, 127
1, 54552, Note_off_c, 1, 55, 0
1, 54769, Note_off_c, 1, 71, 0
1, 54771, Note_on_c, 1, 57, 127
1, 54771, Note_on_c, 1, 72, 127
1, 54975, Note_off_c, 1, 57, 0
1, 54977, Note_on_c, 1, 55, 127
1, 55163, Note_off_c, 1, 55, 0
1, 55180, Note_off_c, 1, 72, 0
1, 55182, Note_on_c, 1, 57, 127
1, 55182, Note_on_c, 1, 74, 127
1, 55182, Note_on_c, 1, 53, 127
1, 55368, Note_off_c, 1, 57, 0
1, 55387, Note_on_c, 1, 59, 127
1, 55571, Note_off_c, 1, 74, 0
1, 55573, Note_off_c, 1, 59, 0
1, 55584, Note_off_c, 1, 53, 0
1, 55593, Note_on_c, 1, 67, 127
1, 55593, Note_on_c, 1, 60, 127
1, 55593, Note_on_c, 1, 52, 127
1, 55786, Note_off_c, 1, 67, 0
1, 55797, Note_off_c, 1, 60, 0
1, 56005, Note_on_c, 1, 65, 127
1, 56005, Note_on_c, 1, 69, 127
1, 56209, Note_off_c, 1, 65, 0
1, 56211, Note_on_c, 1, 64, 127
1, 56397, Note_off_c, 1, 64, 0
1, 56414, Note_off_c, 1, 52, 0
1, 56414, Note_off_c, 1, 69, 0
1, 56416, Note_on_c, 1, 65, 127
1, 56416, Note_on_c, 1, 71, 127
1, 56416, Note_on_c, 1, 50, 127
1, 56602, Note_off_c, 1, 65, 0
1, 56621, Note_on_c, 1, 67, 127
1, 56805, Note_off_c, 1, 71, 0
1, 56807, Note_off_c, 1, 67, 0
1, 56818, Note_off_c, 1, 50, 0
1, 56827, Note_on_c, 1, 48, 127
1, 56827, Note_on_c, 1, 64, 127
1, 56827, Note_on_c, 1, 72, 127
1, 57031, Note_off_c, 1, 48, 0
1, 57033, Note_on_c, 1, 52, 127
1, 57237, Note_off_c, 1, 64, 0
1, 57237, Note_off_c, 1, 52, 0
1, 57239, Note_on_c, 1, 54, 127
1, 57239, Note_on_c, 1, 62, 127
1, 57443, Note_off_c, 1, 54, 0
1, 57648, Note_off_c, 1, 72, 0
1, 57650, Note_on_c, 1, 71, 127
1, 57856, Note_on_c, 1, 56, 127
1, 58053, Note_off_c, 1, 56, 0
1, 58059, Note_off_c, 1, 62, 0
1, 58061, Note_on_c, 1, 57, 127
1, 58061, Note_on_c, 1, 60, 127
1, 58245, Note_off_c, 1, 71, 0
1, 58264, Note_off_c, 1, 57, 0
1, 58266, Note_on_c, 1, 69, 127
1, 58470, Note_off_c, 1, 60, 0
1, 58472, Note_on_c, 1, 50, 127
1, 58472, Note_on_c, 1, 59, 127
1, 58676, Note_off_c, 1, 69, 0
1, 58676, Note_off_c, 1, 50, 0
1, 58881, Note_off_c, 1, 59, 0
1, 59089, Note_on_c, 1, 68, 127
1, 59275, Note_off_c, 1, 68, 0
1, 59295, Note_on_c, 1, 69, 127
1, 59295, Note_on_c, 1, 57, 127
1, 59295, Note_on_c, 1, 48, 127
1, 59499, Note_off_c, 1, 69, 0
1, 59501, Note_on_c, 1, 72, 127
1, 59705, Note_off_c, 1, 57, 0
1, 59705, Note_off_c, 1, 72, 0
1, 59707, Note_on_c, 1, 76, 127
1, 59911, Note_off_c, 1, 76, 0
1, 59913, Note_on_c, 1, 81, 127
1, 60117, Note_off_c, 1, 48, 0
1, 60119, Note_on_c, 1, 59, 127
1, 60119, Note_on_c, 1, 52, 127
1, 60303, Note_off_c, 1, 81, 0
1, 60324, Note_on_c, 1, 80, 127
1, 60508, Note_off_c, 1, 59, 0
1, 60510, Note_off_c, 1, 80, 0
1, 60521, Note_off_c, 1, 52, 0
1, 60530, Note_on_c, 1, 81, 127
1, 60530, Note_on_c, 1, 57, 127
1, 60530, Note_on_c, 1, 60, 127
1, 60734, Note_off_c, 1, 81, 0
1, 60736, Note_on_c, 1, 76, 127
1, 60940, Note_off_c, 1, 57, 0
1, 60940, Note_off_c, 1, 76, 0
1, 60942, Note_on_c, 1, 72, 127
1, 60942, Note_on_c, 1, 55, 127
1, 61146, Note_off_c, 1, 72, 0
1, 61148, Note_on_c, 1, 69, 127
1, 61352, Note_off_c, 1, 60, 0
1, 61352, Note_off_c, 1, 55, 0
1, 61354, Note_on_c, 1, 62, 127
1, 61354, Note_on_c, 1, 53, 127
1, 61538, Note_off_c, 1, 69, 0
1, 61559, Note_on_c, 1, 68, 127
1, 61743, Note_off_c, 1, 62, 0
1, 61745, Note_off_c, 1, 68, 0
1, 61756, Note_off_c, 1, 53, 0
1, 61765, Note_on_c, 1, 69, 127
1, 61765, Note_on_c, 1, 60, 127
1, 61765, Note_on_c, 1, 52, 127
1, 61969, Note_off_c, 1, 69, 0
1, 61971, Note_on_c, 1, 72, 127
1, 62175, Note_off_c, 1, 60, 0
1, 62175, Note_off_c, 1, 72, 0
1, 62177, Note_on_c, 1, 76, 127
1, 62177, Note_on_c, 1, 59, 127
1, 62381, Note_off_c, 1, 76, 0
1, 62383, Note_on_c, 1, 81, 127
1, 62569, Note_off_c, 1, 81, 0
1, 62586, Note_off_c, 1, 52, 0
1, 62588, Note_on_c, 1, 80, 127
1, 62588, Note_on_c, 1, 50, 127
1, 62774, Note_off_c, 1, 80, 0
1, 62793, Note_on_c, 1, 83, 127
1, 62979, Note_off_c, 1, 83, 0
1, 62990, Note_off_c, 1, 50, 0
1, 62999, Note_on_c, 1, 48, 127
1, 63203, Note_off_c, 1, 59, 0
1, 63411, Note_on_c, 1, 54, 127
1, 63615, Note_off_c, 1, 54, 0
1, 63617, Note_on_c, 1, 56, 127
1, 63803, Note_off_c, 1, 56, 0
1, 63820, Note_off_c, 1, 48, 0
1, 63822, Note_on_c, 1, 57, 127
1, 63822, Note_on_c, 1, 71, 127
1, 63822, Note_on_c, 1, 47, 127
1, 64008, Note_off_c, 1, 57, 0
1, 64027, Note_on_c, 1, 56, 127
1, 64211, Note_off_c, 1, 71, 0
1, 64213, Note_off_c, 1, 56, 0
1, 64224, Note_off_c, 1, 47, 0
1, 64233, Note_on_c, 1, 57, 127
1, 64233, Note_on_c, 1, 72, 127
1, 64233, Note_on_c, 1, 45, 127
1, 64437, Note_off_c, 1, 57, 0
1, 64439, Note_on_c, 1, 60, 127
1, 64643, Note_off_c, 1, 60, 0
1, 64645, Note_on_c, 1, 64, 127
1, 64849, Note_off_c, 1, 64, 0
1, 64851, Note_on_c, 1, 69, 127
1, 65055, Note_off_c, 1, 72, 0
1, 65055, Note_off_c, 1, 45, 0
1, 65057, Note_on_c, 1, 74, 127
1, 65057, Note_on_c, 1, 47, 127
1, 65241, Note_off_c, 1, 69, 0
1, 65262, Note_on_c, 1, 68, 127
1, 65446, Note_off_c, 1, 74, 0
1, 65448, Note_off_c, 1, 68, 0
1, 65459, Note_off_c, 1, 47, 0
1, 65468, Note_on_c, 1, 69, 127
1, 65468, Note_on_c, 1, 76, 127
1, 65468, Note_on_c, 1, 48, 127
1, 65672, Note_off_c, 1, 69, 0
1, 65674, Note_on_c, 1, 64, 127
1, 65878, Note_off_c, 1, 64, 0
1, 65880, Note_on_c, 1, 60, 127
1, 66084, Note_off_c, 1, 60, 0
1, 66086, Note_on_c, 1, 57, 127
1, 66290, Note_off_c, 1, 76, 0
1, 66290, Note_off_c, 1, 48, 0
1, 66292, Note_on_c, 1, 77, 127
1, 66292, Note_on_c, 1, 50, 127
1, 66476, Note_off_c, 1, 57, 0
1, 66497, Note_on_c, 1, 56, 127
1, 66681, Note_off_c, 1, 77, 0
1, 66683, Note_off_c, 1, 56, 0
1, 66694, Note_off_c, 1, 50, 0
1, 66703, Note_on_c, 1, 57, 127
1, 66703, Note_on_c, 1, 76, 127
1, 66703, Note_on_c, 1, 48, 127
1, 66907, Note_off_c, 1, 57, 0
1, 66909, Note_on_c, 1, 60, 127
1, 67113, Note_off_c, 1, 76, 0
1, 67113, Note_off_c, 1, 48, 0
1, 67113, Note_off_c, 1, 60, 0
1, 67115, Note_on_c, 1, 76, 127
1, 67115, Note_on_c, 1, 64, 127
1, 67115, Note_on_c, 1, 47, 127
1, 67196, Note_on_c, 1, 74, 127
1, 67198, Note_off_c, 1, 76, 0
1, 67279, Note_off_c, 1, 74, 0
1, 67318, Note_off_c, 1, 64, 0
1, 67320, Note_on_c, 1, 69, 127
1, 67506, Note_off_c, 1, 69, 0
1, 67525, Note_on_c, 1, 68, 127
1, 67711, Note_off_c, 1, 68, 0
1, 67934, Note_off_c, 1, 47, 0
1, 67936, Note_on_c, 1, 72, 127
1, 67936, Note_on_c, 1, 57, 127
1, 67936, Note_on_c, 1, 45, 127
1, 68129, Note_off_c, 1, 72, 0
1, 68140, Note_off_c, 1, 57, 0
1, 68245, Note_on_c, 1, 71, 127
1, 68346, Note_off_c, 1, 45, 0
1, 68346, Note_off_c, 1, 71, 0
1, 68348, Note_on_c, 1, 69, 127
1, 68348, Note_on_c, 1, 48, 127
1, 68348, Note_on_c, 1, 76, 127
1, 68552, Note_off_c, 1, 69, 0
1, 68554, Note_on_c, 1, 72, 127
1, 68740, Note_off_c, 1, 72, 0
1, 68757, Note_off_c, 1, 48, 0
1, 68759, Note_on_c, 1, 67, 127
1, 68759, Note_on_c, 1, 45, 127
1, 68945, Note_off_c, 1, 67, 0
1, 69161, Note_off_c, 1, 45, 0
1, 69170, Note_on_c, 1, 66, 127
1, 69170, Note_on_c, 1, 50, 127
1, 69374, Note_off_c, 1, 66, 0
1, 69376, Note_on_c, 1, 71, 127
1, 69477, Note_off_c, 1, 71, 0
1, 69580, Note_off_c, 1, 76, 0
1, 69580, Note_off_c, 1, 50, 0
1, 69582, Note_on_c, 1, 68, 127
1, 69582, Note_on_c, 1, 47, 127
1, 69582, Note_on_c, 1, 74, 127
1, 69786, Note_off_c, 1, 68, 0
1, 69788, Note_on_c, 1, 71, 127
1, 69974, Note_off_c, 1, 71, 0
1, 69991, Note_off_c, 1, 47, 0
1, 69993, Note_on_c, 1, 66, 127
1, 69993, Note_on_c, 1, 45, 127
1, 70179, Note_off_c, 1, 66, 0
1, 70395, Note_off_c, 1, 45, 0
1, 70404, Note_on_c, 1, 44, 127
1, 70404, Note_on_c, 1, 64, 127
1, 70608, Note_off_c, 1, 74, 0
1, 70610, Note_on_c, 1, 76, 127
1, 70711, Note_off_c, 1, 76, 0
1, 70814, Note_off_c, 1, 44, 0
1, 70816, Note_on_c, 1, 72, 127
1, 71020, Note_off_c, 1, 72, 0
1, 71227, Note_on_c, 1, 43, 127
1, 71629, Note_off_c, 1, 43, 0
1, 71638, Note_on_c, 1, 69, 127
1, 71638, Note_on_c, 1, 42, 127
1, 71842, Note_off_c, 1, 69, 0
1, 72048, Note_off_c, 1, 64, 0
1, 72048, Note_off_c, 1, 42, 0
1, 72050, Note_on_c, 1, 71, 127
1, 72050, Note_on_c, 1, 41, 127
1, 72050, Note_on_c, 1, 62, 127
1, 72254, Note_off_c, 1, 71, 0
1, 72256, Note_on_c, 1, 74, 127
1, 72442, Note_off_c, 1, 74, 0
1, 72459, Note_off_c, 1, 41, 0
1, 72461, Note_on_c, 1, 69, 127
1, 72461, Note_on_c, 1, 53, 127
1, 72647, Note_off_c, 1, 69, 0
1, 72863, Note_off_c, 1, 53, 0
1, 72872, Note_on_c, 1, 68, 127
1, 72872, Note_on_c, 1, 52, 127
1, 73076, Note_off_c, 1, 62, 0
1, 73078, Note_on_c, 1, 64, 127
1, 73179, Note_off_c, 1, 64, 0
1, 73282, Note_off_c, 1, 68, 0
1, 73284, Note_on_c, 1, 60, 127
1, 73488, Note_off_c, 1, 60, 0
1, 73695, Note_on_c, 1, 59, 127
1, 73881, Note_off_c, 1, 59, 0
1, 74105, Note_on_c, 1, 57, 127
1, 74105, Note_on_c, 1, 72, 127
1, 74312, Note_off_c, 1, 52, 0
1, 74419, Note_on_c, 1, 50, 127
1, 74522, Note_off_c, 1, 57, 0
1, 74522, Note_off_c, 1, 50, 0
1, 74524, Note_on_c, 1, 48, 127
1, 74731, Note_off_c, 1, 48, 0
1, 74941, Note_off_c, 1, 72, 0
1, 74943, Note_on_c, 1, 47, 127
1, 74943, Note_on_c, 1, 74, 127
1, 74943, Note_on_c, 1, 68, 127
1, 75144, Note_off_c, 1, 47, 0
1, 75153, Note_on_c, 1, 52, 127
1, 75341, Note_off_c, 1, 74, 0
1, 75341, Note_off_c, 1, 68, 0
1, 75354, Note_off_c, 1, 52, 0
1, 75363, Note_on_c, 1, 45, 127
1, 75363, Note_on_c, 1, 72, 127
1, 75363, Note_on_c, 1, 69, 127
1, 75570, Note_off_c, 1, 45, 0
1, 75572, Note_on_c, 1, 59, 127
1, 75675, Note_off_c, 1, 59, 0
1, 75677, Note_on_c, 1, 57, 127
1, 75780, Note_off_c, 1, 72, 0
1, 75780, Note_off_c, 1, 69, 0
1, 75780, Note_off_c, 1, 57, 0
1, 75782, Note_on_c, 1, 56, 127
1, 75782, Note_on_c, 1, 72, 127
1, 75782, Note_on_c, 1, 62, 127
1, 75989, Note_off_c, 1, 56, 0
1, 75991, Note_on_c, 1, 59, 127
1, 76052, Note_on_c, 1, 71, 127
1, 76059, Note_off_c, 1, 72, 0
1, 76107, Note_off_c, 1, 71, 0
1, 76193, Note_off_c, 1, 59, 0
1, 76202, Note_on_c, 1, 52, 127
1, 76404, Note_off_c, 1, 52, 0
1, 76655, Note_on_c, 1, 48, 127
1, 76851, Note_off_c, 1, 62, 0
1, 76885, Note_on_c, 1, 76, 127
1, 76998, Note_off_c, 1, 76, 0
1, 77000, Note_on_c, 1, 74, 127
1, 77113, Note_off_c, 1, 48, 0
1, 77113, Note_off_c, 1, 74, 0
1, 77115, Note_on_c, 1, 72, 127
1, 77115, Note_on_c, 1, 81, 127
1, 77115, Note_on_c, 1, 50, 127
1, 77343, Note_off_c, 1, 72, 0
1, 77345, Note_on_c, 1, 76, 127
1, 77554, Note_off_c, 1, 76, 0
1, 77573, Note_off_c, 1, 81, 0
1, 77573, Note_off_c, 1, 50, 0
1, 77575, Note_on_c, 1, 71, 127
1, 77575, Note_on_c, 1, 80, 127
1, 77575, Note_on_c, 1, 52, 127
1, 77784, Note_off_c, 1, 71, 0
1, 77806, Note_on_c, 1, 76, 127
1, 78012, Note_off_c, 1, 80, 0
1, 78014, Note_off_c, 1, 76, 0
1, 78026, Note_off_c, 1, 52, 0
1, 78036, Note_on_c, 1, 74, 127
1, 78036, Note_on_c, 1, 81, 127
1, 78036, Note_on_c, 1, 45, 127
1, 78948, Note_off_c, 1, 74, 0
1, 78958, Note_on_c, 1, 73, 127
1, 80336, Note_off_c, 1, 73, 0
1, 80434, Note_off_c, 1, 81, 0
1, 80434, Note_off_c, 1, 45, 0
1, 80434, End_track
0, 0, End_of_file