0, 0, Header, 1, 1, 480
1, 0, Start_track
1, 0, Title_t, "Test"
1, 0, Tempo, 500000
1, 0, Instrument_name_t, "Church Organ"
1, 96, Note_on_c, 1, 58, 127
1, 318, Note_on_c, 1, 70, 127
1, 426, Note_off_c, 1, 70, 0
1, 428, Note_on_c, 1, 72, 127
1, 536, Note_off_c, 1, 72, 0
1, 538, Note_on_c, 1, 74, 127
1, 538, Note_on_c, 1, 46, 127
1, 646, Note_off_c, 1, 74, 0
1, 740, Note_off_c, 1, 58, 0
1, 963, Note_off_c, 1, 46, 0
1, 979, Note_on_c, 1, 77, 127
1, 979, Note_on_c, 1, 50, 127
1, 1198, Note_off_c, 1, 77, 0
1, 1200, Note_on_c, 1, 74, 127
1, 1405, Note_off_c, 1, 50, 0
1, 1419, Note_off_c, 1, 74, 0
1, 1421, Note_on_c, 1, 82, 127
1, 1421, Note_on_c, 1, 53, 127
1, 1640, Note_off_c, 1, 82, 0
1, 1642, Note_on_c, 1, 77, 127
1, 1847, Note_off_c, 1, 53, 0
1, 1861, Note_off_c, 1, 77, 0
1, 1863, Note_on_c, 1, 58, 127
1, 1863, Note_on_c, 1, 74, 127
1, 1971, Note_off_c, 1, 58, 0
1, 1973, Note_on_c, 1, 57, 127
1, 2081, Note_off_c, 1, 74, 0
1, 2081, Note_off_c, 1, 57, 0
1, 2083, Note_on_c, 1, 77, 127
1, 2083, Note_on_c, 1, 58, 127
1, 2191, Note_off_c, 1, 77, 0
1, 2193, Note_on_c, 1, 75, 127
1, 2301, Note_off_c, 1, 75, 0
1, 2303, Note_on_c, 1, 74, 127
1, 2411, Note_off_c, 1, 74, 0
1, 2744, Note_on_c, 1, 70, 127
1, 2963, Note_off_c, 1, 70, 0
1, 3186, Note_on_c, 1, 65, 127
1, 3405, Note_off_c, 1, 65, 0
1, 3407, Note_on_c, 1, 68, 127
1, 3624, Note_off_c, 1, 58, 0
1, 3626, Note_off_c, 1, 68, 0
1, 3628, Note_on_c, 1, 67, 127
1, 3847, Note_off_c, 1, 67, 0
1, 3849, Note_on_c, 1, 63, 127
1, 3957, Note_off_c, 1, 63, 0
1, 3959, Note_on_c, 1, 65, 127
1, 4067, Note_off_c, 1, 65, 0
1, 4069, Note_on_c, 1, 67, 127
1, 4069, Note_on_c, 1, 46, 127
1, 4177, Note_off_c, 1, 67, 0
1, 4179, Note_on_c, 1, 65, 127
1, 4287, Note_off_c, 1, 65, 0
1, 4289, Note_on_c, 1, 63, 127
1, 4494, Note_off_c, 1, 46, 0
1, 4508, Note_off_c, 1, 63, 0
1, 4510, Note_on_c, 1, 70, 127
1, 4510, Note_on_c, 1, 51, 127
1, 4729, Note_off_c, 1, 70, 0
1, 4731, Note_on_c, 1, 67, 127
1, 4936, Note_off_c, 1, 51, 0
1, 4950, Note_off_c, 1, 67, 0
1, 4952, Note_on_c, 1, 75, 127
1, 4952, Note_on_c, 1, 55, 127
1, 5171, Note_off_c, 1, 75, 0
1, 5173, Note_on_c, 1, 70, 127
1, 5378, Note_off_c, 1, 55, 0
1, 5392, Note_off_c, 1, 70, 0
1, 5394, Note_on_c, 1, 58, 127
1, 5394, Note_on_c, 1, 67, 127
1, 5502, Note_off_c, 1, 58, 0
1, 5504, Note_on_c, 1, 56, 127
1, 5612, Note_off_c, 1, 67, 0
1, 5612, Note_off_c, 1, 56, 0
1, 5614, Note_on_c, 1, 70, 127
1, 5614, Note_on_c, 1, 58, 127
1, 5722, Note_off_c, 1, 70, 0
1, 5724, Note_on_c, 1, 68, 127
1, 5832, Note_off_c, 1, 68, 0
1, 5834, Note_on_c, 1, 67, 127
1, 5942, Note_off_c, 1, 67, 0
1, 6275, Note_on_c, 1, 63, 127
1, 6494, Note_off_c, 1, 63, 0
1, 6717, Note_on_c, 1, 60, 127
1, 6936, Note_off_c, 1, 58, 0
1, 6936, Note_off_c, 1, 60, 0
1, 6938, Note_on_c, 1, 63, 127
1, 7157, Note_off_c, 1, 63, 0
1, 7159, Note_on_c, 1, 57, 127
1, 7378, Note_off_c, 1, 57, 0
1, 7380, Note_on_c, 1, 60, 127
1, 7488, Note_off_c, 1, 60, 0
1, 7490, Note_on_c, 1, 62, 127
1, 7598, Note_off_c, 1, 62, 0
1, 7600, Note_on_c, 1, 63, 127
1, 7600, Note_on_c, 1, 46, 127
1, 7708, Note_off_c, 1, 63, 0
1, 7710, Note_on_c, 1, 62, 127
1, 7818, Note_off_c, 1, 62, 0
1, 7820, Note_on_c, 1, 60, 127
1, 8021, Note_off_c, 1, 46, 0
1, 8039, Note_off_c, 1, 60, 0
1, 8041, Note_on_c, 1, 69, 127
1, 8041, Note_on_c, 1, 48, 127
1, 8260, Note_off_c, 1, 69, 0
1, 8262, Note_on_c, 1, 65, 127
1, 8463, Note_off_c, 1, 48, 0
1, 8481, Note_off_c, 1, 65, 0
1, 8483, Note_on_c, 1, 72, 127
1, 8483, Note_on_c, 1, 51, 127
1, 8702, Note_off_c, 1, 72, 0
1, 8704, Note_on_c, 1, 69, 127
1, 8905, Note_off_c, 1, 51, 0
1, 8923, Note_off_c, 1, 69, 0
1, 8925, Note_on_c, 1, 57, 127
1, 8925, Note_on_c, 1, 75, 127
1, 9033, Note_off_c, 1, 57, 0
1, 9035, Note_on_c, 1, 55, 127
1, 9143, Note_off_c, 1, 75, 0
1, 9143, Note_off_c, 1, 55, 0
1, 9145, Note_on_c, 1, 65, 127
1, 9145, Note_on_c, 1, 57, 127
1, 9253, Note_off_c, 1, 65, 0
1, 9255, Note_on_c, 1, 67, 127
1, 9363, Note_off_c, 1, 67, 0
1, 9365, Note_on_c, 1, 69, 127
1, 9473, Note_off_c, 1, 69, 0
1, 9788, Note_off_c, 1, 57, 0
1, 9806, Note_on_c, 1, 72, 127
1, 10025, Note_off_c, 1, 72, 0
1, 10027, Note_on_c, 1, 69, 127
1, 10246, Note_off_c, 1, 69, 0
1, 10248, Note_on_c, 1, 77, 127
1, 10467, Note_off_c, 1, 77, 0
1, 10469, Note_on_c, 1, 72, 127
1, 10681, Note_off_c, 1, 72, 0
1, 10690, Note_on_c, 1, 74, 127
1, 10912, Note_on_c, 1, 58, 127
1, 11020, Note_off_c, 1, 58, 0
1, 11022, Note_on_c, 1, 60, 127
1, 11130, Note_off_c, 1, 60, 0
1, 11132, Note_on_c, 1, 62, 127
1, 11240, Note_off_c, 1, 62, 0
1, 11564, Note_off_c, 1, 74, 0
1, 11573, Note_on_c, 1, 63, 127
1, 11795, Note_on_c, 1, 79, 127
1, 11903, Note_off_c, 1, 79, 0
1, 11905, Note_on_c, 1, 77, 127
1, 12013, Note_off_c, 1, 77, 0
1, 12015, Note_on_c, 1, 75, 127
1, 12123, Note_off_c, 1, 75, 0
1, 12263, Note_off_c, 1, 63, 0
1, 12457, Note_on_c, 1, 72, 127
1, 12679, Note_on_c, 1, 57, 127
1, 12787, Note_off_c, 1, 57, 0
1, 12789, Note_on_c, 1, 58, 127
1, 12897, Note_off_c, 1, 58, 0
1, 12899, Note_on_c, 1, 60, 127
1, 13007, Note_off_c, 1, 60, 0
1, 13331, Note_off_c, 1, 72, 0
1, 13340, Note_on_c, 1, 62, 127
1, 13562, Note_on_c, 1, 77, 127
1, 13670, Note_off_c, 1, 77, 0
1, 13672, Note_on_c, 1, 75, 127
1, 13780, Note_off_c, 1, 75, 0
1, 13782, Note_on_c, 1, 74, 127
1, 13890, Note_off_c, 1, 74, 0
1, 14030, Note_off_c, 1, 62, 0
1, 14224, Note_on_c, 1, 70, 127
1, 14446, Note_on_c, 1, 55, 127
1, 14554, Note_off_c, 1, 55, 0
1, 14556, Note_on_c, 1, 57, 127
1, 14664, Note_off_c, 1, 57, 0
1, 14666, Note_on_c, 1, 58, 127
1, 14774, Note_off_c, 1, 58, 0
1, 15098, Note_off_c, 1, 70, 0
1, 15107, Note_on_c, 1, 60, 127
1, 15329, Note_on_c, 1, 48, 127
1, 15329, Note_on_c, 1, 75, 127
1, 15361, Note_off_c, 1, 60, 0
1, 15437, Note_off_c, 1, 48, 0
1, 15437, Note_off_c, 1, 75, 0
1, 15439, Note_on_c, 1, 50, 127
1, 15439, Note_on_c, 1, 74, 127
1, 15547, Note_off_c, 1, 50, 0
1, 15547, Note_off_c, 1, 74, 0
1, 15549, Note_on_c, 1, 51, 127
1, 15549, Note_on_c, 1, 72, 127
1, 15657, Note_off_c, 1, 51, 0
1, 15657, Note_off_c, 1, 72, 0
1, 15659, Note_on_c, 1, 50, 127
1, 15659, Note_on_c, 1, 74, 127
1, 15767, Note_off_c, 1, 50, 0
1, 15767, Note_off_c, 1, 74, 0
1, 15769, Note_on_c, 1, 48, 127
1, 15769, Note_on_c, 1, 75, 127
1, 15988, Note_off_c, 1, 48, 0
1, 15988, Note_off_c, 1, 75, 0
1, 15990, Note_on_c, 1, 69, 127
1, 15990, Note_on_c, 1, 53, 127
1, 16209, Note_off_c, 1, 69, 0
1, 16211, Note_on_c, 1, 72, 127
1, 16319, Note_off_c, 1, 72, 0
1, 16321, Note_on_c, 1, 70, 127
1, 16429, Note_off_c, 1, 70, 0
1, 16431, Note_on_c, 1, 41, 127
1, 16633, Note_off_c, 1, 53, 0
1, 16868, Note_off_c, 1, 41, 0
1, 16872, Note_on_c, 1, 65, 127
1, 17094, Note_on_c, 1, 60, 127
1, 17313, Note_off_c, 1, 60, 0
1, 17315, Note_on_c, 1, 57, 127
1, 17518, Note_off_c, 1, 65, 0
1, 17534, Note_off_c, 1, 57, 0
1, 17536, Note_on_c, 1, 53, 127
1, 17758, Note_on_c, 1, 77, 127
1, 17869, Note_off_c, 1, 53, 0
1, 18090, Note_on_c, 1, 55, 127
1, 18198, Note_off_c, 1, 55, 0
1, 18200, Note_on_c, 1, 57, 127
1, 18200, Note_on_c, 1, 65, 127
1, 18308, Note_off_c, 1, 57, 0
1, 18632, Note_off_c, 1, 77, 0
1, 18639, Note_off_c, 1, 65, 0
1, 18641, Note_on_c, 1, 60, 127
1, 18641, Note_on_c, 1, 69, 127
1, 18860, Note_off_c, 1, 60, 0
1, 18862, Note_on_c, 1, 57, 127
1, 19081, Note_off_c, 1, 69, 0
1, 19081, Note_off_c, 1, 57, 0
1, 19083, Note_on_c, 1, 65, 127
1, 19083, Note_on_c, 1, 72, 127
1, 19302, Note_off_c, 1, 65, 0
1, 19304, Note_on_c, 1, 60, 127
1, 19523, Note_off_c, 1, 72, 0
1, 19523, Note_off_c, 1, 60, 0
1, 19525, Note_on_c, 1, 77, 127
1, 19525, Note_on_c, 1, 57, 127
1, 19633, Note_off_c, 1, 77, 0
1, 19635, Note_on_c, 1, 76, 127
1, 19743, Note_off_c, 1, 57, 0
1, 19743, Note_off_c, 1, 76, 0
1, 19745, Note_on_c, 1, 60, 127
1, 19745, Note_on_c, 1, 77, 127
1, 19853, Note_off_c, 1, 60, 0
1, 19855, Note_on_c, 1, 58, 127
1, 19963, Note_off_c, 1, 58, 0
1, 19965, Note_on_c, 1, 57, 127
1, 20073, Note_off_c, 1, 57, 0
1, 20406, Note_on_c, 1, 53, 127
1, 20625, Note_off_c, 1, 53, 0
1, 20848, Note_on_c, 1, 48, 127
1, 21067, Note_off_c, 1, 48, 0
1, 21069, Note_on_c, 1, 51, 127
1, 21286, Note_off_c, 1, 77, 0
1, 21288, Note_off_c, 1, 51, 0
1, 21290, Note_on_c, 1, 50, 127
1, 21509, Note_off_c, 1, 50, 0
1, 21511, Note_on_c, 1, 46, 127
1, 21619, Note_off_c, 1, 46, 0
1, 21621, Note_on_c, 1, 48, 127
1, 21729, Note_off_c, 1, 48, 0
1, 21731, Note_on_c, 1, 50, 127
1, 21731, Note_on_c, 1, 65, 127
1, 21839, Note_off_c, 1, 50, 0
1, 21841, Note_on_c, 1, 48, 127
1, 21949, Note_off_c, 1, 48, 0
1, 21951, Note_on_c, 1, 46, 127
1, 22170, Note_off_c, 1, 65, 0
1, 22170, Note_off_c, 1, 46, 0
1, 22172, Note_on_c, 1, 53, 127
1, 22172, Note_on_c, 1, 70, 127
1, 22391, Note_off_c, 1, 53, 0
1, 22393, Note_on_c, 1, 50, 127
1, 22612, Note_off_c, 1, 70, 0
1, 22612, Note_off_c, 1, 50, 0
1, 22614, Note_on_c, 1, 58, 127
1, 22614, Note_on_c, 1, 74, 127
1, 22833, Note_off_c, 1, 58, 0
1, 22835, Note_on_c, 1, 53, 127
1, 23054, Note_off_c, 1, 74, 0
1, 23054, Note_off_c, 1, 53, 0
1, 23056, Note_on_c, 1, 77, 127
1, 23056, Note_on_c, 1, 50, 127
1, 23164, Note_off_c, 1, 77, 0
1, 23166, Note_on_c, 1, 75, 127
1, 23274, Note_off_c, 1, 50, 0
1, 23274, Note_off_c, 1, 75, 0
1, 23276, Note_on_c, 1, 53, 127
1, 23276, Note_on_c, 1, 77, 127
1, 23384, Note_off_c, 1, 53, 0
1, 23386, Note_on_c, 1, 51, 127
1, 23494, Note_off_c, 1, 51, 0
1, 23496, Note_on_c, 1, 50, 127
1, 23604, Note_off_c, 1, 50, 0
1, 23937, Note_on_c, 1, 46, 127
1, 24149, Note_off_c, 1, 77, 0
1, 24156, Note_off_c, 1, 46, 0
1, 24158, Note_on_c, 1, 50, 127
1, 24377, Note_off_c, 1, 50, 0
1, 24379, Note_on_c, 1, 43, 127
1, 24598, Note_off_c, 1, 43, 0
1, 24600, Note_on_c, 1, 46, 127
1, 24819, Note_off_c, 1, 46, 0
1, 24821, Note_on_c, 1, 40, 127
1, 25040, Note_off_c, 1, 40, 0
1, 25042, Note_on_c, 1, 43, 127
1, 25150, Note_off_c, 1, 43, 0
1, 25152, Note_on_c, 1, 45, 127
1, 25260, Note_off_c, 1, 45, 0
1, 25262, Note_on_c, 1, 46, 127
1, 25262, Note_on_c, 1, 67, 127
1, 25370, Note_off_c, 1, 46, 0
1, 25372, Note_on_c, 1, 45, 127
1, 25480, Note_off_c, 1, 45, 0
1, 25482, Note_on_c, 1, 43, 127
1, 25701, Note_off_c, 1, 67, 0
1, 25701, Note_off_c, 1, 43, 0
1, 25703, Note_on_c, 1, 52, 127
1, 25703, Note_on_c, 1, 70, 127
1, 25922, Note_off_c, 1, 52, 0
1, 25924, Note_on_c, 1, 48, 127
1, 26143, Note_off_c, 1, 70, 0
1, 26143, Note_off_c, 1, 48, 0
1, 26145, Note_on_c, 1, 55, 127
1, 26145, Note_on_c, 1, 72, 127
1, 26364, Note_off_c, 1, 55, 0
1, 26366, Note_on_c, 1, 52, 127
1, 26585, Note_off_c, 1, 72, 0
1, 26585, Note_off_c, 1, 52, 0
1, 26587, Note_on_c, 1, 76, 127
1, 26587, Note_on_c, 1, 58, 127
1, 26695, Note_off_c, 1, 76, 0
1, 26697, Note_on_c, 1, 74, 127
1, 26805, Note_off_c, 1, 58, 0
1, 26805, Note_off_c, 1, 74, 0
1, 26807, Note_on_c, 1, 48, 127
1, 26807, Note_on_c, 1, 76, 127
1, 26915, Note_off_c, 1, 48, 0
1, 26917, Note_on_c, 1, 50, 127
1, 27025, Note_off_c, 1, 50, 0
1, 27027, Note_on_c, 1, 52, 127
1, 27135, Note_off_c, 1, 52, 0
1, 27450, Note_off_c, 1, 76, 0
1, 27468, Note_on_c, 1, 55, 127
1, 27687, Note_off_c, 1, 55, 0
1, 27689, Note_on_c, 1, 52, 127
1, 27908, Note_off_c, 1, 52, 0
1, 27910, Note_on_c, 1, 60, 127
1, 28129, Note_off_c, 1, 60, 0
1, 28131, Note_on_c, 1, 55, 127
1, 28350, Note_off_c, 1, 55, 0
1, 28352, Note_on_c, 1, 57, 127
1, 28574, Note_on_c, 1, 65, 127
1, 28682, Note_off_c, 1, 65, 0
1, 28684, Note_on_c, 1, 67, 127
1, 28779, Note_off_c, 1, 57, 0
1, 28793, Note_off_c, 1, 67, 0
1, 28795, Note_on_c, 1, 69, 127
1, 28795, Note_on_c, 1, 60, 127
1, 28903, Note_off_c, 1, 69, 0
1, 28905, Note_on_c, 1, 67, 127
1, 29013, Note_off_c, 1, 67, 0
1, 29015, Note_on_c, 1, 65, 127
1, 29220, Note_off_c, 1, 60, 0
1, 29234, Note_off_c, 1, 65, 0
1, 29236, Note_on_c, 1, 72, 127
1, 29236, Note_on_c, 1, 57, 127
1, 29455, Note_off_c, 1, 72, 0
1, 29457, Note_on_c, 1, 69, 127
1, 29662, Note_off_c, 1, 57, 0
1, 29676, Note_off_c, 1, 69, 0
1, 29678, Note_on_c, 1, 77, 127
1, 29678, Note_on_c, 1, 53, 127
1, 29897, Note_off_c, 1, 77, 0
1, 29899, Note_on_c, 1, 72, 127
1, 30104, Note_off_c, 1, 53, 0
1, 30118, Note_off_c, 1, 72, 0
1, 30120, Note_on_c, 1, 81, 127
1, 30120, Note_on_c, 1, 54, 127
1, 30339, Note_off_c, 1, 81, 0
1, 30341, Note_on_c, 1, 75, 127
1, 30449, Note_off_c, 1, 75, 0
1, 30451, Note_on_c, 1, 74, 127
1, 30546, Note_off_c, 1, 54, 0
1, 30560, Note_off_c, 1, 74, 0
1, 30562, Note_on_c, 1, 72, 127
1, 30562, Note_on_c, 1, 57, 127
1, 30670, Note_off_c, 1, 72, 0
1, 30672, Note_on_c, 1, 74, 127
1, 30780, Note_off_c, 1, 74, 0
1, 30782, Note_on_c, 1, 75, 127
1, 30987, Note_off_c, 1, 57, 0
1, 31001, Note_off_c, 1, 75, 0
1, 31003, Note_on_c, 1, 69, 127
1, 31003, Note_on_c, 1, 54, 127
1, 31222, Note_off_c, 1, 69, 0
1, 31224, Note_on_c, 1, 72, 127
1, 31429, Note_off_c, 1, 54, 0
1, 31443, Note_off_c, 1, 72, 0
1, 31445, Note_on_c, 1, 66, 127
1, 31445, Note_on_c, 1, 50, 127
1, 31664, Note_off_c, 1, 66, 0
1, 31666, Note_on_c, 1, 69, 127
1, 31871, Note_off_c, 1, 50, 0
1, 31885, Note_off_c, 1, 69, 0
1, 31887, Note_on_c, 1, 55, 127
1, 31887, Note_on_c, 1, 70, 127
1, 32106, Note_off_c, 1, 55, 0
1, 32108, Note_on_c, 1, 43, 127
1, 32216, Note_off_c, 1, 43, 0
1, 32218, Note_on_c, 1, 45, 127
1, 32301, Note_off_c, 1, 70, 0
1, 32326, Note_off_c, 1, 45, 0
1, 32328, Note_on_c, 1, 46, 127
1, 32328, Note_on_c, 1, 74, 127
1, 32436, Note_off_c, 1, 46, 0
1, 32438, Note_on_c, 1, 45, 127
1, 32546, Note_off_c, 1, 45, 0
1, 32548, Note_on_c, 1, 43, 127
1, 32742, Note_off_c, 1, 74, 0
1, 32767, Note_off_c, 1, 43, 0
1, 32769, Note_on_c, 1, 50, 127
1, 32769, Note_on_c, 1, 70, 127
1, 32988, Note_off_c, 1, 50, 0
1, 32990, Note_on_c, 1, 46, 127
1, 33184, Note_off_c, 1, 70, 0
1, 33209, Note_off_c, 1, 46, 0
1, 33211, Note_on_c, 1, 55, 127
1, 33211, Note_on_c, 1, 67, 127
1, 33430, Note_off_c, 1, 55, 0
1, 33432, Note_on_c, 1, 50, 127
1, 33626, Note_off_c, 1, 67, 0
1, 33651, Note_off_c, 1, 50, 0
1, 33653, Note_on_c, 1, 58, 127
1, 33653, Note_on_c, 1, 68, 127
1, 33872, Note_off_c, 1, 58, 0
1, 33874, Note_on_c, 1, 56, 127
1, 33982, Note_off_c, 1, 56, 0
1, 33984, Note_on_c, 1, 55, 127
1, 34067, Note_off_c, 1, 68, 0
1, 34092, Note_off_c, 1, 55, 0
1, 34094, Note_on_c, 1, 53, 127
1, 34094, Note_on_c, 1, 77, 127
1, 34202, Note_off_c, 1, 53, 0
1, 34204, Note_on_c, 1, 55, 127
1, 34312, Note_off_c, 1, 55, 0
1, 34314, Note_on_c, 1, 56, 127
1, 34508, Note_off_c, 1, 77, 0
1, 34533, Note_off_c, 1, 56, 0
1, 34535, Note_on_c, 1, 50, 127
1, 34535, Note_on_c, 1, 68, 127
1, 34754, Note_off_c, 1, 50, 0
1, 34756, Note_on_c, 1, 53, 127
1, 34950, Note_off_c, 1, 68, 0
1, 34975, Note_off_c, 1, 53, 0
1, 34977, Note_on_c, 1, 46, 127
1, 34977, Note_on_c, 1, 65, 127
1, 35196, Note_off_c, 1, 46, 0
1, 35198, Note_on_c, 1, 50, 127
1, 35392, Note_off_c, 1, 65, 0
1, 35417, Note_off_c, 1, 50, 0
1, 35419, Note_on_c, 1, 67, 127
1, 35419, Note_on_c, 1, 51, 127
1, 35638, Note_off_c, 1, 67, 0
1, 35640, Note_on_c, 1, 60, 127
1, 35748, Note_off_c, 1, 60, 0
1, 35750, Note_on_c, 1, 62, 127
1, 35845, Note_off_c, 1, 51, 0
1, 35859, Note_off_c, 1, 62, 0
1, 35861, Note_on_c, 1, 63, 127
1, 35861, Note_on_c, 1, 55, 127
1, 35969, Note_off_c, 1, 63, 0
1, 35971, Note_on_c, 1, 62, 127
1, 36079, Note_off_c, 1, 62, 0
1, 36081, Note_on_c, 1, 60, 127
1, 36286, Note_off_c, 1, 55, 0
1, 36300, Note_off_c, 1, 60, 0
1, 36302, Note_on_c, 1, 67, 127
1, 36302, Note_on_c, 1, 51, 127
1, 36521, Note_off_c, 1, 67, 0
1, 36523, Note_on_c, 1, 63, 127
1, 36728, Note_off_c, 1, 51, 0
1, 36742, Note_off_c, 1, 63, 0
1, 36744, Note_on_c, 1, 72, 127
1, 36744, Note_on_c, 1, 48, 127
1, 36963, Note_off_c, 1, 72, 0
1, 36965, Note_on_c, 1, 67, 127
1, 37170, Note_off_c, 1, 48, 0
1, 37184, Note_off_c, 1, 67, 0
1, 37186, Note_on_c, 1, 74, 127
1, 37186, Note_on_c, 1, 47, 127
1, 37405, Note_off_c, 1, 74, 0
1, 37407, Note_on_c, 1, 68, 127
1, 37515, Note_off_c, 1, 68, 0
1, 37517, Note_on_c, 1, 67, 127
1, 37612, Note_off_c, 1, 47, 0
1, 37626, Note_off_c, 1, 67, 0
1, 37628, Note_on_c, 1, 65, 127
1, 37628, Note_on_c, 1, 50, 127
1, 37736, Note_off_c, 1, 65, 0
1, 37738, Note_on_c, 1, 67, 127
1, 37846, Note_off_c, 1, 67, 0
1, 37848, Note_on_c, 1, 68, 127
1, 38053, Note_off_c, 1, 50, 0
1, 38067, Note_off_c, 1, 68, 0
1, 38069, Note_on_c, 1, 62, 127
1, 38069, Note_on_c, 1, 47, 127
1, 38288, Note_off_c, 1, 62, 0
1, 38290, Note_on_c, 1, 65, 127
1, 38495, Note_off_c, 1, 47, 0
1, 38509, Note_off_c, 1, 65, 0
1, 38511, Note_on_c, 1, 59, 127
1, 38511, Note_on_c, 1, 43, 127
1, 38730, Note_off_c, 1, 59, 0
1, 38732, Note_on_c, 1, 67, 127
1, 38937, Note_off_c, 1, 43, 0
1, 38951, Note_off_c, 1, 67, 0
1, 38953, Note_on_c, 1, 48, 127
1, 38953, Note_on_c, 1, 63, 127
1, 39175, Note_on_c, 1, 36, 127
1, 39283, Note_off_c, 1, 36, 0
1, 39285, Note_off_c, 1, 48, 0
1, 39285, Note_on_c, 1, 38, 127
1, 39393, Note_off_c, 1, 38, 0
1, 39395, Note_on_c, 1, 39, 127
1, 39503, Note_off_c, 1, 39, 0
1, 39827, Note_off_c, 1, 63, 0
1, 39836, Note_on_c, 1, 48, 127
1, 39944, Note_off_c, 1, 48, 0
1, 39946, Note_on_c, 1, 46, 127
1, 40054, Note_off_c, 1, 46, 0
1, 40056, Note_on_c, 1, 60, 127
1, 40056, Note_on_c, 1, 48, 127
1, 40164, Note_off_c, 1, 60, 0
1, 40166, Note_on_c, 1, 62, 127
1, 40274, Note_off_c, 1, 62, 0
1, 40276, Note_on_c, 1, 63, 127
1, 40384, Note_off_c, 1, 63, 0
1, 40481, Note_off_c, 1, 48, 0
1, 40497, Note_on_c, 1, 46, 127
1, 40497, Note_on_c, 1, 60, 127
1, 40716, Note_off_c, 1, 46, 0
1, 40716, Note_off_c, 1, 60, 0
1, 40718, Note_on_c, 1, 72, 127
1, 40718, Note_on_c, 1, 45, 127
1, 40826, Note_off_c, 1, 72, 0
1, 40828, Note_on_c, 1, 70, 127
1, 40936, Note_off_c, 1, 45, 0
1, 40936, Note_off_c, 1, 70, 0
1, 40938, Note_on_c, 1, 41, 127
1, 40938, Note_on_c, 1, 72, 127
1, 41046, Note_off_c, 1, 41, 0
1, 41048, Note_on_c, 1, 43, 127
1, 41156, Note_off_c, 1, 43, 0
1, 41158, Note_on_c, 1, 45, 127
1, 41266, Note_off_c, 1, 45, 0
1, 41305, Note_off_c, 1, 72, 0
1, 41379, Note_on_c, 1, 41, 127
1, 41379, Note_on_c, 1, 70, 127
1, 41598, Note_off_c, 1, 41, 0
1, 41598, Note_off_c, 1, 70, 0
1, 41600, Note_on_c, 1, 69, 127
1, 41600, Note_on_c, 1, 53, 127
1, 41818, Note_off_c, 1, 69, 0
1, 41820, Note_on_c, 1, 65, 127
1, 41928, Note_off_c, 1, 65, 0
1, 41930, Note_on_c, 1, 67, 127
1, 42038, Note_off_c, 1, 67, 0
1, 42180, Note_off_c, 1, 53, 0
1, 42261, Note_on_c, 1, 51, 127
1, 42261, Note_on_c, 1, 65, 127
1, 42480, Note_off_c, 1, 51, 0
1, 42480, Note_off_c, 1, 65, 0
1, 42482, Note_on_c, 1, 77, 127
1, 42482, Note_on_c, 1, 50, 127
1, 42590, Note_off_c, 1, 77, 0
1, 42592, Note_on_c, 1, 75, 127
1, 42700, Note_off_c, 1, 50, 0
1, 42700, Note_off_c, 1, 75, 0
1, 42702, Note_on_c, 1, 46, 127
1, 42702, Note_on_c, 1, 77, 127
1, 42810, Note_off_c, 1, 46, 0
1, 42812, Note_on_c, 1, 48, 127
1, 42920, Note_off_c, 1, 48, 0
1, 42922, Note_on_c, 1, 50, 127
1, 43030, Note_off_c, 1, 50, 0
1, 43069, Note_off_c, 1, 77, 0
1, 43143, Note_on_c, 1, 46, 127
1, 43143, Note_on_c, 1, 75, 127
1, 43362, Note_off_c, 1, 46, 0
1, 43362, Note_off_c, 1, 75, 0
1, 43364, Note_on_c, 1, 74, 127
1, 43364, Note_on_c, 1, 58, 127
1, 43582, Note_off_c, 1, 74, 0
1, 43584, Note_on_c, 1, 70, 127
1, 43692, Note_off_c, 1, 70, 0
1, 43694, Note_on_c, 1, 72, 127
1, 43802, Note_off_c, 1, 72, 0
1, 43933, Note_off_c, 1, 58, 0
1, 44025, Note_on_c, 1, 56, 127
1, 44025, Note_on_c, 1, 70, 127
1, 44244, Note_off_c, 1, 56, 0
1, 44244, Note_off_c, 1, 70, 0
1, 44246, Note_on_c, 1, 55, 127
1, 44246, Note_on_c, 1, 82, 127
1, 44464, Note_off_c, 1, 55, 0
1, 44466, Note_on_c, 1, 51, 127
1, 44574, Note_off_c, 1, 51, 0
1, 44576, Note_on_c, 1, 53, 127
1, 44684, Note_off_c, 1, 53, 0
1, 44885, Note_off_c, 1, 82, 0
1, 44906, Note_on_c, 1, 51, 127
1, 44906, Note_on_c, 1, 80, 127
1, 45107, Note_off_c, 1, 51, 0
1, 45125, Note_off_c, 1, 80, 0
1, 45127, Note_on_c, 1, 63, 127
1, 45127, Note_on_c, 1, 79, 127
1, 45235, Note_off_c, 1, 63, 0
1, 45237, Note_on_c, 1, 62, 127
1, 45345, Note_off_c, 1, 79, 0
1, 45345, Note_off_c, 1, 62, 0
1, 45347, Note_on_c, 1, 82, 127
1, 45347, Note_on_c, 1, 63, 127
1, 45455, Note_off_c, 1, 82, 0
1, 45457, Note_on_c, 1, 80, 127
1, 45565, Note_off_c, 1, 80, 0
1, 45567, Note_on_c, 1, 79, 127
1, 45675, Note_off_c, 1, 79, 0
1, 45737, Note_off_c, 1, 63, 0
1, 45788, Note_on_c, 1, 62, 127
1, 45788, Note_on_c, 1, 82, 127
1, 46007, Note_off_c, 1, 62, 0
1, 46007, Note_off_c, 1, 82, 0
1, 46009, Note_on_c, 1, 60, 127
1, 46009, Note_on_c, 1, 75, 127
1, 46228, Note_off_c, 1, 60, 0
1, 46228, Note_off_c, 1, 75, 0
1, 46230, Note_on_c, 1, 63, 127
1, 46230, Note_on_c, 1, 79, 127
1, 46338, Note_off_c, 1, 63, 0
1, 46338, Note_off_c, 1, 79, 0
1, 46340, Note_on_c, 1, 62, 127
1, 46340, Note_on_c, 1, 77, 127
1, 46448, Note_off_c, 1, 62, 0
1, 46448, Note_off_c, 1, 77, 0
1, 46450, Note_on_c, 1, 60, 127
1, 46450, Note_on_c, 1, 75, 127
1, 46558, Note_off_c, 1, 60, 0
1, 46558, Note_off_c, 1, 75, 0
1, 46560, Note_on_c, 1, 62, 127
1, 46560, Note_on_c, 1, 77, 127
1, 46668, Note_off_c, 1, 62, 0
1, 46668, Note_off_c, 1, 77, 0
1, 46670, Note_on_c, 1, 63, 127
1, 46670, Note_on_c, 1, 79, 127
1, 46889, Note_off_c, 1, 63, 0
1, 46889, Note_off_c, 1, 79, 0
1, 46891, Note_on_c, 1, 57, 127
1, 46891, Note_on_c, 1, 72, 127
1, 47110, Note_off_c, 1, 57, 0
1, 47110, Note_off_c, 1, 72, 0
1, 47112, Note_on_c, 1, 60, 127
1, 47112, Note_on_c, 1, 75, 127
1, 47220, Note_off_c, 1, 60, 0
1, 47220, Note_off_c, 1, 75, 0
1, 47222, Note_on_c, 1, 58, 127
1, 47222, Note_on_c, 1, 74, 127
1, 47330, Note_off_c, 1, 58, 0
1, 47330, Note_off_c, 1, 74, 0
1, 47332, Note_on_c, 1, 57, 127
1, 47332, Note_on_c, 1, 72, 127
1, 47440, Note_off_c, 1, 57, 0
1, 47440, Note_off_c, 1, 72, 0
1, 47442, Note_on_c, 1, 58, 127
1, 47442, Note_on_c, 1, 74, 127
1, 47550, Note_off_c, 1, 58, 0
1, 47550, Note_off_c, 1, 74, 0
1, 47552, Note_on_c, 1, 60, 127
1, 47552, Note_on_c, 1, 75, 127
1, 47771, Note_off_c, 1, 60, 0
1, 47771, Note_off_c, 1, 75, 0
1, 47773, Note_on_c, 1, 69, 127
1, 47773, Note_on_c, 1, 53, 127
1, 47958, Note_off_c, 1, 69, 0
1, 47972, Note_off_c, 1, 53, 0
1, 47995, Note_on_c, 1, 57, 127
1, 47995, Note_on_c, 1, 72, 127
1, 48103, Note_off_c, 1, 57, 0
1, 48103, Note_off_c, 1, 72, 0
1, 48105, Note_on_c, 1, 58, 127
1, 48105, Note_on_c, 1, 74, 127
1, 48213, Note_off_c, 1, 58, 0
1, 48213, Note_off_c, 1, 74, 0
1, 48215, Note_on_c, 1, 60, 127
1, 48215, Note_on_c, 1, 75, 127
1, 48323, Note_off_c, 1, 60, 0
1, 48323, Note_off_c, 1, 75, 0
1, 48325, Note_on_c, 1, 58, 127
1, 48325, Note_on_c, 1, 74, 127
1, 48433, Note_off_c, 1, 58, 0
1, 48433, Note_off_c, 1, 74, 0
1, 48435, Note_on_c, 1, 57, 127
1, 48435, Note_on_c, 1, 72, 127
1, 48654, Note_off_c, 1, 57, 0
1, 48654, Note_off_c, 1, 72, 0
1, 48656, Note_on_c, 1, 62, 127
1, 48656, Note_on_c, 1, 77, 127
1, 48875, Note_off_c, 1, 62, 0
1, 48875, Note_off_c, 1, 77, 0
1, 48877, Note_on_c, 1, 53, 127
1, 48877, Note_on_c, 1, 68, 127
1, 48985, Note_off_c, 1, 53, 0
1, 48985, Note_off_c, 1, 68, 0
1, 48987, Note_on_c, 1, 51, 127
1, 48987, Note_on_c, 1, 67, 127
1, 49095, Note_off_c, 1, 51, 0
1, 49095, Note_off_c, 1, 67, 0
1, 49097, Note_on_c, 1, 50, 127
1, 49097, Note_on_c, 1, 65, 127
1, 49205, Note_off_c, 1, 50, 0
1, 49205, Note_off_c, 1, 65, 0
1, 49207, Note_on_c, 1, 51, 127
1, 49207, Note_on_c, 1, 67, 127
1, 49315, Note_off_c, 1, 51, 0
1, 49315, Note_off_c, 1, 67, 0
1, 49317, Note_on_c, 1, 53, 127
1, 49317, Note_on_c, 1, 68, 127
1, 49536, Note_off_c, 1, 53, 0
1, 49536, Note_off_c, 1, 68, 0
1, 49538, Note_on_c, 1, 51, 127
1, 49538, Note_on_c, 1, 67, 127
1, 49757, Note_off_c, 1, 51, 0
1, 49757, Note_off_c, 1, 67, 0
1, 49759, Note_on_c, 1, 55, 127
1, 49759, Note_on_c, 1, 70, 127
1, 49867, Note_off_c, 1, 55, 0
1, 49867, Note_off_c, 1, 70, 0
1, 49869, Note_on_c, 1, 57, 127
1, 49869, Note_on_c, 1, 72, 127
1, 49977, Note_off_c, 1, 57, 0
1, 49977, Note_off_c, 1, 72, 0
1, 49979, Note_on_c, 1, 58, 127
1, 49979, Note_on_c, 1, 74, 127
1, 50087, Note_off_c, 1, 58, 0
1, 50087, Note_off_c, 1, 74, 0
1, 50089, Note_on_c, 1, 57, 127
1, 50089, Note_on_c, 1, 72, 127
1, 50197, Note_off_c, 1, 57, 0
1, 50197, Note_off_c, 1, 72, 0
1, 50199, Note_on_c, 1, 55, 127
1, 50199, Note_on_c, 1, 70, 127
1, 50418, Note_off_c, 1, 55, 0
1, 50418, Note_off_c, 1, 70, 0
1, 50420, Note_on_c, 1, 60, 127
1, 50420, Note_on_c, 1, 75, 127
1, 50639, Note_off_c, 1, 60, 0
1, 50639, Note_off_c, 1, 75, 0
1, 50641, Note_on_c, 1, 51, 127
1, 50641, Note_on_c, 1, 67, 127
1, 50749, Note_off_c, 1, 51, 0
1, 50749, Note_off_c, 1, 67, 0
1, 50751, Note_on_c, 1, 50, 127
1, 50751, Note_on_c, 1, 65, 127
1, 50859, Note_off_c, 1, 50, 0
1, 50859, Note_off_c, 1, 65, 0
1, 50861, Note_on_c, 1, 48, 127
1, 50861, Note_on_c, 1, 63, 127
1, 50969, Note_off_c, 1, 48, 0
1, 50969, Note_off_c, 1, 63, 0
1, 50971, Note_on_c, 1, 50, 127
1, 50971, Note_on_c, 1, 65, 127
1, 51079, Note_off_c, 1, 50, 0
1, 51079, Note_off_c, 1, 65, 0
1, 51081, Note_on_c, 1, 51, 127
1, 51081, Note_on_c, 1, 67, 127
1, 51300, Note_off_c, 1, 51, 0
1, 51300, Note_off_c, 1, 67, 0
1, 51302, Note_on_c, 1, 50, 127
1, 51302, Note_on_c, 1, 65, 127
1, 51521, Note_off_c, 1, 50, 0
1, 51521, Note_off_c, 1, 65, 0
1, 51523, Note_on_c, 1, 53, 127
1, 51523, Note_on_c, 1, 69, 127
1, 51631, Note_off_c, 1, 53, 0
1, 51631, Note_off_c, 1, 69, 0
1, 51633, Note_on_c, 1, 55, 127
1, 51633, Note_on_c, 1, 70, 127
1, 51741, Note_off_c, 1, 55, 0
1, 51741, Note_off_c, 1, 70, 0
1, 51743, Note_on_c, 1, 57, 127
1, 51743, Note_on_c, 1, 72, 127
1, 51851, Note_off_c, 1, 57, 0
1, 51851, Note_off_c, 1, 72, 0
1, 51853, Note_on_c, 1, 55, 127
1, 51853, Note_on_c, 1, 70, 127
1, 51961, Note_off_c, 1, 55, 0
1, 51961, Note_off_c, 1, 70, 0
1, 51963, Note_on_c, 1, 53, 127
1, 51963, Note_on_c, 1, 69, 127
1, 52182, Note_off_c, 1, 53, 0
1, 52182, Note_off_c, 1, 69, 0
1, 52184, Note_on_c, 1, 58, 127
1, 52184, Note_on_c, 1, 74, 127
1, 52403, Note_off_c, 1, 58, 0
1, 52403, Note_off_c, 1, 74, 0
1, 52405, Note_on_c, 1, 50, 127
1, 52405, Note_on_c, 1, 65, 127
1, 52513, Note_off_c, 1, 50, 0
1, 52513, Note_off_c, 1, 65, 0
1, 52515, Note_on_c, 1, 48, 127
1, 52515, Note_on_c, 1, 63, 127
1, 52623, Note_off_c, 1, 48, 0
1, 52623, Note_off_c, 1, 63, 0
1, 52625, Note_on_c, 1, 46, 127
1, 52625, Note_on_c, 1, 62, 127
1, 52733, Note_off_c, 1, 46, 0
1, 52733, Note_off_c, 1, 62, 0
1, 52735, Note_on_c, 1, 48, 127
1, 52735, Note_on_c, 1, 63, 127
1, 52843, Note_off_c, 1, 48, 0
1, 52843, Note_off_c, 1, 63, 0
1, 52845, Note_on_c, 1, 50, 127
1, 52845, Note_on_c, 1, 65, 127
1, 53064, Note_off_c, 1, 50, 0
1, 53064, Note_off_c, 1, 65, 0
1, 53066, Note_on_c, 1, 48, 127
1, 53066, Note_on_c, 1, 63, 127
1, 53285, Note_off_c, 1, 48, 0
1, 53285, Note_off_c, 1, 63, 0
1, 53287, Note_on_c, 1, 51, 127
1, 53287, Note_on_c, 1, 67, 127
1, 53395, Note_off_c, 1, 51, 0
1, 53395, Note_off_c, 1, 67, 0
1, 53397, Note_on_c, 1, 53, 127
1, 53397, Note_on_c, 1, 69, 127
1, 53505, Note_off_c, 1, 53, 0
1, 53505, Note_off_c, 1, 69, 0
1, 53507, Note_on_c, 1, 55, 127
1, 53507, Note_on_c, 1, 70, 127
1, 53615, Note_off_c, 1, 55, 0
1, 53615, Note_off_c, 1, 70, 0
1, 53617, Note_on_c, 1, 53, 127
1, 53617, Note_on_c, 1, 69, 127
1, 53725, Note_off_c, 1, 53, 0
1, 53725, Note_off_c, 1, 69, 0
1, 53727, Note_on_c, 1, 51, 127
1, 53727, Note_on_c, 1, 67, 127
1, 53946, Note_off_c, 1, 51, 0
1, 53946, Note_off_c, 1, 67, 0
1, 53948, Note_on_c, 1, 57, 127
1, 53948, Note_on_c, 1, 72, 127
1, 54167, Note_off_c, 1, 57, 0
1, 54167, Note_off_c, 1, 72, 0
1, 54169, Note_on_c, 1, 48, 127
1, 54169, Note_on_c, 1, 63, 127
1, 54277, Note_off_c, 1, 48, 0
1, 54277, Note_off_c, 1, 63, 0
1, 54279, Note_on_c, 1, 46, 127
1, 54279, Note_on_c, 1, 62, 127
1, 54387, Note_off_c, 1, 46, 0
1, 54387, Note_off_c, 1, 62, 0
1, 54389, Note_on_c, 1, 45, 127
1, 54389, Note_on_c, 1, 60, 127
1, 54497, Note_off_c, 1, 45, 0
1, 54497, Note_off_c, 1, 60, 0
1, 54499, Note_on_c, 1, 46, 127
1, 54499, Note_on_c, 1, 62, 127
1, 54607, Note_off_c, 1, 46, 0
1, 54607, Note_off_c, 1, 62, 0
1, 54609, Note_on_c, 1, 48, 127
1, 54609, Note_on_c, 1, 63, 127
1, 54828, Note_off_c, 1, 48, 0
1, 54828, Note_off_c, 1, 63, 0
1, 54830, Note_on_c, 1, 62, 127
1, 54830, Note_on_c, 1, 46, 127
1, 54938, Note_off_c, 1, 62, 0
1, 54940, Note_on_c, 1, 60, 127
1, 55048, Note_off_c, 1, 46, 0
1, 55048, Note_off_c, 1, 60, 0
1, 55050, Note_on_c, 1, 58, 127
1, 55050, Note_on_c, 1, 62, 127
1, 55158, Note_off_c, 1, 58, 0
1, 55160, Note_on_c, 1, 60, 127
1, 55257, Note_off_c, 1, 62, 0
1, 55269, Note_off_c, 1, 60, 0
1, 55271, Note_on_c, 1, 62, 127
1, 55382, Note_on_c, 1, 60, 127
1, 55490, Note_off_c, 1, 60, 0
1, 55492, Note_on_c, 1, 58, 127
1, 55640, Note_off_c, 1, 62, 0
1, 55712, Note_off_c, 1, 58, 0
1, 55714, Note_on_c, 1, 65, 127
1, 55933, Note_off_c, 1, 65, 0
1, 55935, Note_on_c, 1, 70, 127
1, 55935, Note_on_c, 1, 62, 127
1, 56043, Note_off_c, 1, 70, 0
1, 56045, Note_on_c, 1, 72, 127
1, 56153, Note_off_c, 1, 62, 0
1, 56153, Note_off_c, 1, 72, 0
1, 56155, Note_on_c, 1, 74, 127
1, 56155, Note_on_c, 1, 70, 127
1, 56263, Note_off_c, 1, 74, 0
1, 56265, Note_on_c, 1, 72, 127
1, 56373, Note_off_c, 1, 70, 0
1, 56373, Note_off_c, 1, 72, 0
1, 56375, Note_on_c, 1, 65, 127
1, 56375, Note_on_c, 1, 70, 127
1, 56594, Note_off_c, 1, 65, 0
1, 56594, Note_off_c, 1, 70, 0
1, 56596, Note_on_c, 1, 62, 127
1, 56596, Note_on_c, 1, 77, 127
1, 56815, Note_off_c, 1, 62, 0
1, 56815, Note_off_c, 1, 77, 0
1, 56817, Note_on_c, 1, 65, 127
1, 56817, Note_on_c, 1, 74, 127
1, 56925, Note_off_c, 1, 65, 0
1, 56927, Note_on_c, 1, 63, 127
1, 57035, Note_off_c, 1, 74, 0
1, 57035, Note_off_c, 1, 63, 0
1, 57037, Note_on_c, 1, 62, 127
1, 57037, Note_on_c, 1, 82, 127
1, 57145, Note_off_c, 1, 62, 0
1, 57147, Note_on_c, 1, 63, 127
1, 57255, Note_off_c, 1, 82, 0
1, 57255, Note_off_c, 1, 63, 0
1, 57257, Note_on_c, 1, 65, 127
1, 57257, Note_on_c, 1, 77, 127
1, 57476, Note_off_c, 1, 65, 0
1, 57476, Note_off_c, 1, 77, 0
1, 57478, Note_on_c, 1, 58, 127
1, 57478, Note_on_c, 1, 74, 127
1, 57697, Note_off_c, 1, 58, 0
1, 57697, Note_off_c, 1, 74, 0
1, 57699, Note_on_c, 1, 77, 127
1, 57699, Note_on_c, 1, 62, 127
1, 57807, Note_off_c, 1, 77, 0
1, 57809, Note_on_c, 1, 75, 127
1, 57917, Note_off_c, 1, 62, 0
1, 57917, Note_off_c, 1, 75, 0
1, 57919, Note_on_c, 1, 74, 127
1, 57919, Note_on_c, 1, 53, 127
1, 58027, Note_off_c, 1, 74, 0
1, 58029, Note_on_c, 1, 75, 127
1, 58137, Note_off_c, 1, 53, 0
1, 58137, Note_off_c, 1, 75, 0
1, 58139, Note_on_c, 1, 56, 127
1, 58139, Note_on_c, 1, 77, 127
1, 58358, Note_off_c, 1, 56, 0
1, 58358, Note_off_c, 1, 77, 0
1, 58360, Note_on_c, 1, 55, 127
1, 58360, Note_on_c, 1, 70, 127
1, 58579, Note_off_c, 1, 55, 0
1, 58579, Note_off_c, 1, 70, 0
1, 58581, Note_on_c, 1, 51, 127
1, 58581, Note_on_c, 1, 75, 127
1, 58689, Note_off_c, 1, 51, 0
1, 58691, Note_on_c, 1, 53, 127
1, 58799, Note_off_c, 1, 75, 0
1, 58799, Note_off_c, 1, 53, 0
1, 58801, Note_on_c, 1, 55, 127
1, 58801, Note_on_c, 1, 70, 127
1, 58909, Note_off_c, 1, 55, 0
1, 58911, Note_on_c, 1, 53, 127
1, 59019, Note_off_c, 1, 70, 0
1, 59019, Note_off_c, 1, 53, 0
1, 59021, Note_on_c, 1, 51, 127
1, 59021, Note_on_c, 1, 75, 127
1, 59240, Note_off_c, 1, 51, 0
1, 59240, Note_off_c, 1, 75, 0
1, 59242, Note_on_c, 1, 58, 127
1, 59242, Note_on_c, 1, 67, 127
1, 59461, Note_off_c, 1, 58, 0
1, 59461, Note_off_c, 1, 67, 0
1, 59463, Note_on_c, 1, 63, 127
1, 59463, Note_on_c, 1, 55, 127
1, 59571, Note_off_c, 1, 63, 0
1, 59573, Note_on_c, 1, 65, 127
1, 59681, Note_off_c, 1, 55, 0
1, 59681, Note_off_c, 1, 65, 0
1, 59683, Note_on_c, 1, 67, 127
1, 59683, Note_on_c, 1, 63, 127
1, 59791, Note_off_c, 1, 67, 0
1, 59793, Note_on_c, 1, 65, 127
1, 59901, Note_off_c, 1, 63, 0
1, 59901, Note_off_c, 1, 65, 0
1, 59903, Note_on_c, 1, 58, 127
1, 59903, Note_on_c, 1, 63, 127
1, 60122, Note_off_c, 1, 58, 0
1, 60122, Note_off_c, 1, 63, 0
1, 60124, Note_on_c, 1, 55, 127
1, 60124, Note_on_c, 1, 70, 127
1, 60343, Note_off_c, 1, 55, 0
1, 60343, Note_off_c, 1, 70, 0
1, 60345, Note_on_c, 1, 58, 127
1, 60345, Note_on_c, 1, 67, 127
1, 60453, Note_off_c, 1, 58, 0
1, 60455, Note_on_c, 1, 56, 127
1, 60563, Note_off_c, 1, 67, 0
1, 60563, Note_off_c, 1, 56, 0
1, 60565, Note_on_c, 1, 55, 127
1, 60565, Note_on_c, 1, 75, 127
1, 60673, Note_off_c, 1, 55, 0
1, 60675, Note_on_c, 1, 56, 127
1, 60783, Note_off_c, 1, 75, 0
1, 60783, Note_off_c, 1, 56, 0
1, 60785, Note_on_c, 1, 58, 127
1, 60785, Note_on_c, 1, 70, 127
1, 61004, Note_off_c, 1, 58, 0
1, 61004, Note_off_c, 1, 70, 0
1, 61006, Note_on_c, 1, 51, 127
1, 61006, Note_on_c, 1, 67, 127
1, 61225, Note_off_c, 1, 51, 0
1, 61225, Note_off_c, 1, 67, 0
1, 61227, Note_on_c, 1, 70, 127
1, 61227, Note_on_c, 1, 55, 127
1, 61335, Note_off_c, 1, 70, 0
1, 61337, Note_on_c, 1, 68, 127
1, 61445, Note_off_c, 1, 55, 0
1, 61445, Note_off_c, 1, 68, 0
1, 61447, Note_on_c, 1, 67, 127
1, 61447, Note_on_c, 1, 46, 127
1, 61555, Note_off_c, 1, 67, 0
1, 61557, Note_on_c, 1, 68, 127
1, 61665, Note_off_c, 1, 46, 0
1, 61665, Note_off_c, 1, 68, 0
1, 61667, Note_on_c, 1, 50, 127
1, 61667, Note_on_c, 1, 70, 127
1, 61886, Note_off_c, 1, 50, 0
1, 61886, Note_off_c, 1, 70, 0
1, 61888, Note_on_c, 1, 48, 127
1, 61888, Note_on_c, 1, 63, 127
1, 62096, Note_off_c, 1, 48, 0
1, 62110, Note_on_c, 1, 41, 127
1, 62218, Note_off_c, 1, 41, 0
1, 62220, Note_on_c, 1, 43, 127
1, 62280, Note_off_c, 1, 63, 0
1, 62328, Note_off_c, 1, 43, 0
1, 62330, Note_on_c, 1, 45, 127
1, 62330, Note_on_c, 1, 75, 127
1, 62438, Note_off_c, 1, 45, 0
1, 62438, Note_off_c, 1, 75, 0
1, 62440, Note_on_c, 1, 43, 127
1, 62440, Note_on_c, 1, 74, 127
1, 62548, Note_off_c, 1, 43, 0
1, 62548, Note_off_c, 1, 74, 0
1, 62550, Note_on_c, 1, 41, 127
1, 62550, Note_on_c, 1, 75, 127
1, 62769, Note_off_c, 1, 41, 0
1, 62771, Note_on_c, 1, 48, 127
1, 62990, Note_off_c, 1, 75, 0
1, 62990, Note_off_c, 1, 48, 0
1, 62992, Note_on_c, 1, 75, 127
1, 62992, Note_on_c, 1, 45, 127
1, 63100, Note_off_c, 1, 75, 0
1, 63102, Note_on_c, 1, 74, 127
1, 63210, Note_off_c, 1, 45, 0
1, 63210, Note_off_c, 1, 74, 0
1, 63212, Note_on_c, 1, 72, 127
1, 63212, Note_on_c, 1, 51, 127
1, 63320, Note_off_c, 1, 72, 0
1, 63322, Note_on_c, 1, 74, 127
1, 63430, Note_off_c, 1, 51, 0
1, 63430, Note_off_c, 1, 74, 0
1, 63432, Note_on_c, 1, 48, 127
1, 63432, Note_on_c, 1, 75, 127
1, 63651, Note_off_c, 1, 48, 0
1, 63651, Note_off_c, 1, 75, 0
1, 63653, Note_on_c, 1, 45, 127
1, 63653, Note_on_c, 1, 65, 127
1, 63872, Note_off_c, 1, 45, 0
1, 63874, Note_on_c, 1, 48, 127
1, 63982, Note_off_c, 1, 48, 0
1, 63984, Note_on_c, 1, 46, 127
1, 64044, Note_off_c, 1, 65, 0
1, 64092, Note_off_c, 1, 46, 0
1, 64094, Note_on_c, 1, 45, 127
1, 64094, Note_on_c, 1, 75, 127
1, 64202, Note_off_c, 1, 45, 0
1, 64202, Note_off_c, 1, 75, 0
1, 64204, Note_on_c, 1, 46, 127
1, 64204, Note_on_c, 1, 74, 127
1, 64312, Note_off_c, 1, 46, 0
1, 64312, Note_off_c, 1, 74, 0
1, 64314, Note_on_c, 1, 48, 127
1, 64314, Note_on_c, 1, 75, 127
1, 64533, Note_off_c, 1, 48, 0
1, 64535, Note_on_c, 1, 41, 127
1, 64754, Note_off_c, 1, 75, 0
1, 64754, Note_off_c, 1, 41, 0
1, 64756, Note_on_c, 1, 72, 127
1, 64756, Note_on_c, 1, 45, 127
1, 64864, Note_off_c, 1, 72, 0
1, 64866, Note_on_c, 1, 74, 127
1, 64974, Note_off_c, 1, 45, 0
1, 64974, Note_off_c, 1, 74, 0
1, 64976, Note_on_c, 1, 75, 127
1, 64976, Note_on_c, 1, 36, 127
1, 65084, Note_off_c, 1, 75, 0
1, 65086, Note_on_c, 1, 74, 127
1, 65194, Note_off_c, 1, 36, 0
1, 65194, Note_off_c, 1, 74, 0
1, 65196, Note_on_c, 1, 39, 127
1, 65196, Note_on_c, 1, 72, 127
1, 65415, Note_off_c, 1, 39, 0
1, 65415, Note_off_c, 1, 72, 0
1, 65417, Note_on_c, 1, 38, 127
1, 65417, Note_on_c, 1, 77, 127
1, 65641, Note_off_c, 1, 38, 0
1, 65641, Note_off_c, 1, 77, 0
1, 65643, Note_on_c, 1, 46, 127
1, 65643, Note_on_c, 1, 74, 127
1, 65754, Note_off_c, 1, 46, 0
1, 65754, Note_off_c, 1, 74, 0
1, 65756, Note_on_c, 1, 48, 127
1, 65756, Note_on_c, 1, 72, 127
1, 65867, Note_off_c, 1, 48, 0
1, 65867, Note_off_c, 1, 72, 0
1, 65869, Note_on_c, 1, 50, 127
1, 65869, Note_on_c, 1, 70, 127
1, 65982, Note_off_c, 1, 50, 0
1, 65982, Note_off_c, 1, 70, 0
1, 65984, Note_on_c, 1, 48, 127
1, 65984, Note_on_c, 1, 72, 127
1, 66097, Note_off_c, 1, 48, 0
1, 66097, Note_off_c, 1, 72, 0
1, 66099, Note_on_c, 1, 46, 127
1, 66099, Note_on_c, 1, 74, 127
1, 66327, Note_off_c, 1, 46, 0
1, 66327, Note_off_c, 1, 74, 0
1, 66329, Note_on_c, 1, 65, 127
1, 66329, Note_on_c, 1, 53, 127
1, 66577, Note_off_c, 1, 65, 0
1, 66580, Note_on_c, 1, 70, 127
1, 66828, Note_off_c, 1, 53, 0
1, 66828, Note_off_c, 1, 70, 0
1, 66831, Note_on_c, 1, 72, 127
1, 66831, Note_on_c, 1, 41, 127
1, 67084, Note_off_c, 1, 72, 0
1, 67087, Note_on_c, 1, 69, 127
1, 67340, Note_off_c, 1, 41, 0
1, 67340, Note_off_c, 1, 69, 0
1, 67359, Note_on_c, 1, 70, 127
1, 67359, Note_on_c, 1, 46, 127
1, 70159, Note_off_c, 1, 70, 0
1, 70159, Note_off_c, 1, 46, 0
1, 70159, End_track
0, 0, End_of_file