0, 0, Header, 1, 1, 480
1, 0, Start_track
1, 0, Title_t, "Test"
1, 0, Tempo, 500000
1, 0, Instrument_name_t, "Church Organ"
1, 96, Note_on_c, 1, 69, 127
1, 96, Note_on_c, 1, 57, 127
1, 162, Note_off_c, 1, 69, 0
1, 165, Note_on_c, 1, 68, 127
1, 228, Note_off_c, 1, 57, 0
1, 231, Note_off_c, 1, 68, 0
1, 234, Note_on_c, 1, 59, 127
1, 234, Note_on_c, 1, 69, 127
1, 365, Note_off_c, 1, 59, 0
1, 371, Note_on_c, 1, 61, 127
1, 502, Note_off_c, 1, 61, 0
1, 642, Note_off_c, 1, 69, 0
1, 645, Note_on_c, 1, 57, 127
1, 645, Note_on_c, 1, 69, 127
1, 776, Note_off_c, 1, 57, 0
1, 782, Note_on_c, 1, 56, 127
1, 888, Note_off_c, 1, 69, 0
1, 914, Note_off_c, 1, 56, 0
1, 920, Note_on_c, 1, 69, 127
1, 920, Note_on_c, 1, 54, 127
1, 986, Note_off_c, 1, 69, 0
1, 989, Note_on_c, 1, 68, 127
1, 1052, Note_off_c, 1, 54, 0
1, 1055, Note_off_c, 1, 68, 0
1, 1058, Note_on_c, 1, 56, 127
1, 1058, Note_on_c, 1, 69, 127
1, 1189, Note_off_c, 1, 56, 0
1, 1195, Note_on_c, 1, 57, 127
1, 1326, Note_off_c, 1, 57, 0
1, 1466, Note_off_c, 1, 69, 0
1, 1469, Note_on_c, 1, 54, 127
1, 1469, Note_on_c, 1, 69, 127
1, 1600, Note_off_c, 1, 54, 0
1, 1606, Note_on_c, 1, 52, 127
1, 1712, Note_off_c, 1, 69, 0
1, 1738, Note_off_c, 1, 52, 0
1, 1744, Note_on_c, 1, 69, 127
1, 1744, Note_on_c, 1, 50, 127
1, 1804, Note_off_c, 1, 69, 0
1, 1811, Note_on_c, 1, 71, 127
1, 1871, Note_off_c, 1, 71, 0
1, 1874, Note_on_c, 1, 73, 127
1, 1875, Note_off_c, 1, 50, 0
1, 1881, Note_on_c, 1, 54, 127
1, 1929, Note_off_c, 1, 73, 0
1, 2012, Note_off_c, 1, 54, 0
1, 2018, Note_on_c, 1, 57, 127
1, 2148, Note_off_c, 1, 57, 0
1, 2565, Note_on_c, 1, 47, 127
1, 2696, Note_off_c, 1, 47, 0
1, 3385, Note_on_c, 1, 44, 127
1, 3656, Note_off_c, 1, 44, 0
1, 3659, Note_on_c, 1, 68, 127
1, 3659, Note_on_c, 1, 47, 127
1, 3790, Note_off_c, 1, 68, 0
1, 3796, Note_on_c, 1, 69, 127
1, 3927, Note_off_c, 1, 69, 0
1, 3930, Note_off_c, 1, 47, 0
1, 3933, Note_on_c, 1, 71, 127
1, 3933, Note_on_c, 1, 44, 127
1, 4064, Note_off_c, 1, 71, 0
1, 4070, Note_on_c, 1, 73, 127
1, 4201, Note_off_c, 1, 73, 0
1, 4204, Note_off_c, 1, 44, 0
1, 4207, Note_on_c, 1, 74, 127
1, 4207, Note_on_c, 1, 40, 127
1, 4338, Note_off_c, 1, 74, 0
1, 4344, Note_on_c, 1, 73, 127
1, 4475, Note_off_c, 1, 73, 0
1, 4478, Note_off_c, 1, 40, 0
1, 4481, Note_on_c, 1, 74, 127
1, 4481, Note_on_c, 1, 42, 127
1, 4612, Note_off_c, 1, 74, 0
1, 4618, Note_on_c, 1, 78, 127
1, 4749, Note_off_c, 1, 78, 0
1, 4752, Note_off_c, 1, 42, 0
1, 4755, Note_on_c, 1, 76, 127
1, 4755, Note_on_c, 1, 44, 127
1, 4886, Note_off_c, 1, 76, 0
1, 4892, Note_on_c, 1, 74, 127
1, 5023, Note_off_c, 1, 74, 0
1, 5026, Note_off_c, 1, 44, 0
1, 5029, Note_on_c, 1, 73, 127
1, 5029, Note_on_c, 1, 45, 127
1, 5160, Note_off_c, 1, 73, 0
1, 5166, Note_on_c, 1, 69, 127
1, 5297, Note_off_c, 1, 69, 0
1, 5440, Note_on_c, 1, 76, 127
1, 5571, Note_off_c, 1, 45, 0
1, 5571, Note_off_c, 1, 76, 0
1, 5577, Note_on_c, 1, 81, 127
1, 5708, Note_off_c, 1, 81, 0
1, 5714, Note_on_c, 1, 78, 127
1, 5845, Note_off_c, 1, 78, 0
1, 5851, Note_on_c, 1, 75, 127
1, 5982, Note_off_c, 1, 75, 0
1, 5988, Note_on_c, 1, 71, 127
1, 6119, Note_off_c, 1, 71, 0
1, 6125, Note_on_c, 1, 75, 127
1, 6256, Note_off_c, 1, 75, 0
1, 6262, Note_on_c, 1, 78, 127
1, 6393, Note_off_c, 1, 78, 0
1, 6399, Note_on_c, 1, 81, 127
1, 6530, Note_off_c, 1, 81, 0
1, 6536, Note_on_c, 1, 78, 127
1, 6667, Note_off_c, 1, 78, 0
1, 6673, Note_on_c, 1, 52, 127
1, 6673, Note_on_c, 1, 80, 127
1, 6739, Note_off_c, 1, 52, 0
1, 6742, Note_on_c, 1, 51, 127
1, 6805, Note_off_c, 1, 80, 0
1, 6808, Note_off_c, 1, 51, 0
1, 6811, Note_on_c, 1, 81, 127
1, 6811, Note_on_c, 1, 52, 127
1, 6942, Note_off_c, 1, 81, 0
1, 6948, Note_on_c, 1, 80, 127
1, 7079, Note_off_c, 1, 80, 0
1, 7085, Note_on_c, 1, 78, 127
1, 7216, Note_off_c, 1, 78, 0
1, 7219, Note_off_c, 1, 52, 0
1, 7222, Note_on_c, 1, 76, 127
1, 7222, Note_on_c, 1, 52, 127
1, 7353, Note_off_c, 1, 76, 0
1, 7359, Note_on_c, 1, 75, 127
1, 7490, Note_off_c, 1, 75, 0
1, 7493, Note_off_c, 1, 52, 0
1, 7496, Note_on_c, 1, 52, 127
1, 7496, Note_on_c, 1, 73, 127
1, 7562, Note_off_c, 1, 52, 0
1, 7565, Note_on_c, 1, 51, 127
1, 7628, Note_off_c, 1, 73, 0
1, 7631, Note_off_c, 1, 51, 0
1, 7634, Note_on_c, 1, 75, 127
1, 7634, Note_on_c, 1, 52, 127
1, 7765, Note_off_c, 1, 75, 0
1, 7771, Note_on_c, 1, 76, 127
1, 7902, Note_off_c, 1, 76, 0
1, 8042, Note_off_c, 1, 52, 0
1, 8045, Note_on_c, 1, 73, 127
1, 8045, Note_on_c, 1, 52, 127
1, 8176, Note_off_c, 1, 73, 0
1, 8182, Note_on_c, 1, 71, 127
1, 8313, Note_off_c, 1, 71, 0
1, 8316, Note_off_c, 1, 52, 0
1, 8319, Note_on_c, 1, 52, 127
1, 8319, Note_on_c, 1, 69, 127
1, 8376, Note_off_c, 1, 52, 0
1, 8376, Note_on_c, 1, 54, 127
1, 8433, Note_off_c, 1, 54, 0
1, 8433, Note_on_c, 1, 56, 127
1, 8450, Note_off_c, 1, 69, 0
1, 8456, Note_on_c, 1, 73, 127
1, 8492, Note_off_c, 1, 56, 0
1, 8588, Note_off_c, 1, 73, 0
1, 8594, Note_on_c, 1, 76, 127
1, 8726, Note_off_c, 1, 76, 0
1, 9144, Note_on_c, 1, 66, 127
1, 9275, Note_off_c, 1, 66, 0
1, 9969, Note_on_c, 1, 63, 127
1, 10241, Note_off_c, 1, 63, 0
1, 10244, Note_on_c, 1, 51, 127
1, 10244, Note_on_c, 1, 66, 127
1, 10375, Note_off_c, 1, 51, 0
1, 10381, Note_on_c, 1, 52, 127
1, 10512, Note_off_c, 1, 52, 0
1, 10515, Note_off_c, 1, 66, 0
1, 10518, Note_on_c, 1, 54, 127
1, 10518, Note_on_c, 1, 63, 127
1, 10649, Note_off_c, 1, 54, 0
1, 10655, Note_on_c, 1, 56, 127
1, 10786, Note_off_c, 1, 56, 0
1, 10789, Note_off_c, 1, 63, 0
1, 10792, Note_on_c, 1, 59, 127
1, 10792, Note_on_c, 1, 57, 127
1, 10923, Note_off_c, 1, 59, 0
1, 10923, Note_off_c, 1, 57, 0
1, 10929, Note_on_c, 1, 63, 127
1, 10929, Note_on_c, 1, 56, 127
1, 11060, Note_off_c, 1, 63, 0
1, 11060, Note_off_c, 1, 56, 0
1, 11066, Note_on_c, 1, 66, 127
1, 11066, Note_on_c, 1, 57, 127
1, 11197, Note_off_c, 1, 66, 0
1, 11197, Note_off_c, 1, 57, 0
1, 11203, Note_on_c, 1, 69, 127
1, 11203, Note_on_c, 1, 61, 127
1, 11334, Note_off_c, 1, 69, 0
1, 11334, Note_off_c, 1, 61, 0
1, 11340, Note_on_c, 1, 68, 127
1, 11340, Note_on_c, 1, 59, 127
1, 11471, Note_off_c, 1, 68, 0
1, 11471, Note_off_c, 1, 59, 0
1, 11477, Note_on_c, 1, 66, 127
1, 11477, Note_on_c, 1, 57, 127
1, 11608, Note_off_c, 1, 66, 0
1, 11608, Note_off_c, 1, 57, 0
1, 11614, Note_on_c, 1, 64, 127
1, 11614, Note_on_c, 1, 56, 127
1, 11745, Note_off_c, 1, 64, 0
1, 11745, Note_off_c, 1, 56, 0
1, 11751, Note_on_c, 1, 68, 127
1, 11751, Note_on_c, 1, 52, 127
1, 11882, Note_off_c, 1, 68, 0
1, 11882, Note_off_c, 1, 52, 0
1, 11888, Note_on_c, 1, 71, 127
1, 11888, Note_on_c, 1, 56, 127
1, 12019, Note_off_c, 1, 71, 0
1, 12019, Note_off_c, 1, 56, 0
1, 12025, Note_on_c, 1, 76, 127
1, 12025, Note_on_c, 1, 59, 127
1, 12156, Note_off_c, 1, 76, 0
1, 12156, Note_off_c, 1, 59, 0
1, 12162, Note_on_c, 1, 71, 127
1, 12162, Note_on_c, 1, 64, 127
1, 12293, Note_off_c, 1, 71, 0
1, 12293, Note_off_c, 1, 64, 0
1, 12299, Note_on_c, 1, 68, 127
1, 12299, Note_on_c, 1, 59, 127
1, 12430, Note_off_c, 1, 68, 0
1, 12430, Note_off_c, 1, 59, 0
1, 12436, Note_on_c, 1, 56, 127
1, 12436, Note_on_c, 1, 64, 127
1, 12567, Note_off_c, 1, 56, 0
1, 12573, Note_on_c, 1, 52, 127
1, 12704, Note_off_c, 1, 52, 0
1, 12847, Note_on_c, 1, 59, 127
1, 12978, Note_off_c, 1, 64, 0
1, 12978, Note_off_c, 1, 59, 0
1, 12984, Note_on_c, 1, 62, 127
1, 13121, Note_on_c, 1, 59, 127
1, 13184, Note_off_c, 1, 62, 0
1, 13253, Note_off_c, 1, 59, 0
1, 13259, Note_on_c, 1, 76, 127
1, 13259, Note_on_c, 1, 61, 127
1, 13325, Note_off_c, 1, 76, 0
1, 13328, Note_on_c, 1, 74, 127
1, 13391, Note_off_c, 1, 61, 0
1, 13394, Note_off_c, 1, 74, 0
1, 13397, Note_on_c, 1, 62, 127
1, 13397, Note_on_c, 1, 76, 127
1, 13528, Note_off_c, 1, 62, 0
1, 13534, Note_on_c, 1, 64, 127
1, 13665, Note_off_c, 1, 64, 0
1, 13805, Note_off_c, 1, 76, 0
1, 13808, Note_on_c, 1, 61, 127
1, 13808, Note_on_c, 1, 76, 127
1, 13939, Note_off_c, 1, 61, 0
1, 13945, Note_on_c, 1, 59, 127
1, 14036, Note_off_c, 1, 76, 0
1, 14076, Note_off_c, 1, 59, 0
1, 14082, Note_on_c, 1, 76, 127
1, 14082, Note_on_c, 1, 57, 127
1, 14148, Note_off_c, 1, 76, 0
1, 14151, Note_on_c, 1, 74, 127
1, 14214, Note_off_c, 1, 57, 0
1, 14217, Note_off_c, 1, 74, 0
1, 14220, Note_on_c, 1, 59, 127
1, 14220, Note_on_c, 1, 76, 127
1, 14351, Note_off_c, 1, 59, 0
1, 14357, Note_on_c, 1, 61, 127
1, 14488, Note_off_c, 1, 61, 0
1, 14628, Note_off_c, 1, 76, 0
1, 14631, Note_on_c, 1, 57, 127
1, 14631, Note_on_c, 1, 76, 127
1, 14762, Note_off_c, 1, 57, 0
1, 14768, Note_on_c, 1, 56, 127
1, 14899, Note_off_c, 1, 56, 0
1, 14905, Note_on_c, 1, 54, 127
1, 15039, Note_off_c, 1, 76, 0
1, 15042, Note_on_c, 1, 81, 127
1, 15173, Note_off_c, 1, 81, 0
1, 15176, Note_off_c, 1, 54, 0
1, 15179, Note_on_c, 1, 76, 127
1, 15179, Note_on_c, 1, 66, 127
1, 15310, Note_off_c, 1, 76, 0
1, 15316, Note_on_c, 1, 73, 127
1, 15447, Note_off_c, 1, 73, 0
1, 15450, Note_off_c, 1, 66, 0
1, 15453, Note_on_c, 1, 69, 127
1, 15453, Note_on_c, 1, 61, 127
1, 15584, Note_off_c, 1, 69, 0
1, 15590, Note_on_c, 1, 73, 127
1, 15721, Note_off_c, 1, 73, 0
1, 15724, Note_off_c, 1, 61, 0
1, 15727, Note_on_c, 1, 76, 127
1, 15727, Note_on_c, 1, 57, 127
1, 15858, Note_off_c, 1, 76, 0
1, 15864, Note_on_c, 1, 81, 127
1, 15995, Note_off_c, 1, 81, 0
1, 15998, Note_off_c, 1, 57, 0
1, 16001, Note_on_c, 1, 76, 127
1, 16001, Note_on_c, 1, 54, 127
1, 16132, Note_off_c, 1, 76, 0
1, 16138, Note_on_c, 1, 73, 127
1, 16269, Note_off_c, 1, 73, 0
1, 16272, Note_off_c, 1, 54, 0
1, 16275, Note_on_c, 1, 69, 127
1, 16275, Note_on_c, 1, 57, 127
1, 16406, Note_off_c, 1, 69, 0
1, 16412, Note_on_c, 1, 73, 127
1, 16543, Note_off_c, 1, 73, 0
1, 16546, Note_off_c, 1, 57, 0
1, 16549, Note_on_c, 1, 74, 127
1, 16549, Note_on_c, 1, 59, 127
1, 16615, Note_off_c, 1, 74, 0
1, 16618, Note_on_c, 1, 73, 127
1, 16681, Note_off_c, 1, 59, 0
1, 16684, Note_off_c, 1, 73, 0
1, 16687, Note_on_c, 1, 61, 127
1, 16687, Note_on_c, 1, 74, 127
1, 16818, Note_off_c, 1, 61, 0
1, 16824, Note_on_c, 1, 62, 127
1, 16955, Note_off_c, 1, 62, 0
1, 17095, Note_off_c, 1, 74, 0
1, 17098, Note_on_c, 1, 59, 127
1, 17098, Note_on_c, 1, 74, 127
1, 17229, Note_off_c, 1, 59, 0
1, 17235, Note_on_c, 1, 57, 127
1, 17326, Note_off_c, 1, 74, 0
1, 17366, Note_off_c, 1, 57, 0
1, 17372, Note_on_c, 1, 74, 127
1, 17372, Note_on_c, 1, 56, 127
1, 17438, Note_off_c, 1, 74, 0
1, 17441, Note_on_c, 1, 73, 127
1, 17504, Note_off_c, 1, 56, 0
1, 17507, Note_off_c, 1, 73, 0
1, 17510, Note_on_c, 1, 57, 127
1, 17510, Note_on_c, 1, 74, 127
1, 17641, Note_off_c, 1, 57, 0
1, 17647, Note_on_c, 1, 59, 127
1, 17778, Note_off_c, 1, 59, 0
1, 17918, Note_off_c, 1, 74, 0
1, 17921, Note_on_c, 1, 56, 127
1, 17921, Note_on_c, 1, 74, 127
1, 18052, Note_off_c, 1, 56, 0
1, 18058, Note_on_c, 1, 54, 127
1, 18189, Note_off_c, 1, 54, 0
1, 18195, Note_on_c, 1, 52, 127
1, 18329, Note_off_c, 1, 74, 0
1, 18332, Note_on_c, 1, 83, 127
1, 18463, Note_off_c, 1, 83, 0
1, 18466, Note_off_c, 1, 52, 0
1, 18469, Note_on_c, 1, 80, 127
1, 18469, Note_on_c, 1, 47, 127
1, 18600, Note_off_c, 1, 80, 0
1, 18606, Note_on_c, 1, 74, 127
1, 18737, Note_off_c, 1, 74, 0
1, 18740, Note_off_c, 1, 47, 0
1, 18743, Note_on_c, 1, 71, 127
1, 18743, Note_on_c, 1, 44, 127
1, 18874, Note_off_c, 1, 71, 0
1, 18880, Note_on_c, 1, 74, 127
1, 19011, Note_off_c, 1, 74, 0
1, 19014, Note_off_c, 1, 44, 0
1, 19017, Note_on_c, 1, 80, 127
1, 19017, Note_on_c, 1, 40, 127
1, 19148, Note_off_c, 1, 80, 0
1, 19154, Note_on_c, 1, 83, 127
1, 19285, Note_off_c, 1, 83, 0
1, 19428, Note_on_c, 1, 74, 127
1, 19559, Note_off_c, 1, 74, 0
1, 19565, Note_on_c, 1, 71, 127
1, 19696, Note_off_c, 1, 71, 0
1, 19702, Note_off_c, 1, 40, 0
1, 19839, Note_on_c, 1, 73, 127
1, 19905, Note_off_c, 1, 73, 0
1, 19908, Note_on_c, 1, 71, 127
1, 19974, Note_off_c, 1, 71, 0
1, 19977, Note_on_c, 1, 57, 127
1, 19977, Note_on_c, 1, 73, 127
1, 20108, Note_off_c, 1, 57, 0
1, 20114, Note_on_c, 1, 61, 127
1, 20245, Note_off_c, 1, 61, 0
1, 20251, Note_on_c, 1, 64, 127
1, 20382, Note_off_c, 1, 64, 0
1, 20388, Note_on_c, 1, 69, 127
1, 20519, Note_off_c, 1, 69, 0
1, 20525, Note_on_c, 1, 68, 127
1, 20656, Note_off_c, 1, 68, 0
1, 20662, Note_on_c, 1, 66, 127
1, 20796, Note_off_c, 1, 73, 0
1, 20799, Note_on_c, 1, 62, 127
1, 20930, Note_off_c, 1, 62, 0
1, 20933, Note_off_c, 1, 66, 0
1, 20936, Note_on_c, 1, 66, 127
1, 21067, Note_off_c, 1, 66, 0
1, 21073, Note_on_c, 1, 69, 127
1, 21204, Note_off_c, 1, 69, 0
1, 21210, Note_on_c, 1, 74, 127
1, 21341, Note_off_c, 1, 74, 0
1, 21347, Note_on_c, 1, 73, 127
1, 21478, Note_off_c, 1, 73, 0
1, 21484, Note_on_c, 1, 71, 127
1, 21550, Note_off_c, 1, 71, 0
1, 21553, Note_on_c, 1, 69, 127
1, 21619, Note_off_c, 1, 69, 0
1, 21622, Note_on_c, 1, 56, 127
1, 21622, Note_on_c, 1, 71, 127
1, 21753, Note_off_c, 1, 56, 0
1, 21759, Note_on_c, 1, 59, 127
1, 21890, Note_off_c, 1, 59, 0
1, 21896, Note_on_c, 1, 63, 127
1, 22027, Note_off_c, 1, 63, 0
1, 22033, Note_on_c, 1, 68, 127
1, 22164, Note_off_c, 1, 68, 0
1, 22170, Note_on_c, 1, 66, 127
1, 22301, Note_off_c, 1, 66, 0
1, 22307, Note_on_c, 1, 65, 127
1, 22441, Note_off_c, 1, 71, 0
1, 22444, Note_on_c, 1, 61, 127
1, 22575, Note_off_c, 1, 61, 0
1, 22578, Note_off_c, 1, 65, 0
1, 22581, Note_on_c, 1, 65, 127
1, 22712, Note_off_c, 1, 65, 0
1, 22718, Note_on_c, 1, 68, 127
1, 22849, Note_off_c, 1, 68, 0
1, 22855, Note_on_c, 1, 73, 127
1, 22986, Note_off_c, 1, 73, 0
1, 22992, Note_on_c, 1, 71, 127
1, 23123, Note_off_c, 1, 71, 0
1, 23129, Note_on_c, 1, 69, 127
1, 23195, Note_off_c, 1, 69, 0
1, 23198, Note_on_c, 1, 68, 127
1, 23264, Note_off_c, 1, 68, 0
1, 23267, Note_on_c, 1, 54, 127
1, 23267, Note_on_c, 1, 69, 127
1, 23398, Note_off_c, 1, 54, 0
1, 23404, Note_on_c, 1, 57, 127
1, 23535, Note_off_c, 1, 57, 0
1, 23541, Note_on_c, 1, 61, 127
1, 23672, Note_off_c, 1, 61, 0
1, 23678, Note_on_c, 1, 66, 127
1, 23809, Note_off_c, 1, 66, 0
1, 23815, Note_on_c, 1, 64, 127
1, 23946, Note_off_c, 1, 64, 0
1, 23952, Note_on_c, 1, 62, 127
1, 24086, Note_off_c, 1, 69, 0
1, 24089, Note_on_c, 1, 59, 127
1, 24220, Note_off_c, 1, 59, 0
1, 24223, Note_off_c, 1, 62, 0
1, 24226, Note_on_c, 1, 62, 127
1, 24357, Note_off_c, 1, 62, 0
1, 24363, Note_on_c, 1, 66, 127
1, 24494, Note_off_c, 1, 66, 0
1, 24500, Note_on_c, 1, 71, 127
1, 24631, Note_off_c, 1, 71, 0
1, 24637, Note_on_c, 1, 69, 127
1, 24768, Note_off_c, 1, 69, 0
1, 24774, Note_on_c, 1, 68, 127
1, 24905, Note_off_c, 1, 68, 0
1, 24911, Note_on_c, 1, 66, 127
1, 24911, Note_on_c, 1, 47, 127
1, 25042, Note_off_c, 1, 66, 0
1, 25042, Note_off_c, 1, 47, 0
1, 25048, Note_on_c, 1, 71, 127
1, 25048, Note_on_c, 1, 50, 127
1, 25179, Note_off_c, 1, 71, 0
1, 25179, Note_off_c, 1, 50, 0
1, 25185, Note_on_c, 1, 69, 127
1, 25185, Note_on_c, 1, 54, 127
1, 25316, Note_off_c, 1, 69, 0
1, 25316, Note_off_c, 1, 54, 0
1, 25322, Note_on_c, 1, 68, 127
1, 25322, Note_on_c, 1, 59, 127
1, 25453, Note_off_c, 1, 68, 0
1, 25453, Note_off_c, 1, 59, 0
1, 25459, Note_on_c, 1, 66, 127
1, 25459, Note_on_c, 1, 57, 127
1, 25590, Note_off_c, 1, 66, 0
1, 25590, Note_off_c, 1, 57, 0
1, 25596, Note_on_c, 1, 65, 127
1, 25596, Note_on_c, 1, 56, 127
1, 25727, Note_off_c, 1, 65, 0
1, 25727, Note_off_c, 1, 56, 0
1, 25733, Note_on_c, 1, 68, 127
1, 25733, Note_on_c, 1, 49, 127
1, 25864, Note_off_c, 1, 68, 0
1, 25864, Note_off_c, 1, 49, 0
1, 25870, Note_on_c, 1, 73, 127
1, 25870, Note_on_c, 1, 53, 127
1, 26001, Note_off_c, 1, 73, 0
1, 26001, Note_off_c, 1, 53, 0
1, 26007, Note_on_c, 1, 71, 127
1, 26007, Note_on_c, 1, 56, 127
1, 26138, Note_off_c, 1, 71, 0
1, 26138, Note_off_c, 1, 56, 0
1, 26144, Note_on_c, 1, 69, 127
1, 26144, Note_on_c, 1, 61, 127
1, 26275, Note_off_c, 1, 69, 0
1, 26275, Note_off_c, 1, 61, 0
1, 26281, Note_on_c, 1, 68, 127
1, 26281, Note_on_c, 1, 59, 127
1, 26412, Note_off_c, 1, 68, 0
1, 26412, Note_off_c, 1, 59, 0
1, 26418, Note_on_c, 1, 57, 127
1, 26418, Note_on_c, 1, 66, 127
1, 26549, Note_off_c, 1, 57, 0
1, 26555, Note_on_c, 1, 59, 127
1, 26686, Note_off_c, 1, 59, 0
1, 26692, Note_on_c, 1, 78, 127
1, 26761, Note_off_c, 1, 66, 0
1, 26830, Note_on_c, 1, 56, 127
1, 26961, Note_off_c, 1, 56, 0
1, 26967, Note_on_c, 1, 54, 127
1, 27098, Note_off_c, 1, 54, 0
1, 27104, Note_on_c, 1, 52, 127
1, 27235, Note_off_c, 1, 78, 0
1, 27235, Note_off_c, 1, 52, 0
1, 27241, Note_on_c, 1, 50, 127
1, 27241, Note_on_c, 1, 66, 127
1, 27372, Note_off_c, 1, 50, 0
1, 27378, Note_on_c, 1, 52, 127
1, 27509, Note_off_c, 1, 52, 0
1, 27515, Note_on_c, 1, 54, 127
1, 27515, Note_on_c, 1, 61, 127
1, 27646, Note_off_c, 1, 54, 0
1, 27783, Note_off_c, 1, 66, 0
1, 27786, Note_off_c, 1, 61, 0
1, 27789, Note_on_c, 1, 50, 127
1, 27789, Note_on_c, 1, 66, 127
1, 27920, Note_off_c, 1, 50, 0
1, 27926, Note_on_c, 1, 49, 127
1, 28057, Note_off_c, 1, 49, 0
1, 28060, Note_off_c, 1, 66, 0
1, 28063, Note_on_c, 1, 66, 127
1, 28063, Note_on_c, 1, 47, 127
1, 28119, Note_off_c, 1, 66, 0
1, 28119, Note_on_c, 1, 68, 127
1, 28175, Note_off_c, 1, 68, 0
1, 28175, Note_on_c, 1, 69, 127
1, 28195, Note_off_c, 1, 47, 0
1, 28201, Note_on_c, 1, 50, 127
1, 28232, Note_off_c, 1, 69, 0
1, 28332, Note_off_c, 1, 50, 0
1, 28338, Note_on_c, 1, 54, 127
1, 28470, Note_off_c, 1, 54, 0
1, 28888, Note_on_c, 1, 44, 127
1, 29020, Note_off_c, 1, 44, 0
1, 29713, Note_on_c, 1, 41, 127
1, 29984, Note_off_c, 1, 41, 0
1, 29987, Note_on_c, 1, 65, 127
1, 29987, Note_on_c, 1, 44, 127
1, 30118, Note_off_c, 1, 65, 0
1, 30124, Note_on_c, 1, 66, 127
1, 30255, Note_off_c, 1, 66, 0
1, 30258, Note_off_c, 1, 44, 0
1, 30261, Note_on_c, 1, 68, 127
1, 30261, Note_on_c, 1, 41, 127
1, 30392, Note_off_c, 1, 68, 0
1, 30398, Note_on_c, 1, 69, 127
1, 30529, Note_off_c, 1, 69, 0
1, 30532, Note_off_c, 1, 41, 0
1, 30535, Note_on_c, 1, 71, 127
1, 30535, Note_on_c, 1, 37, 127
1, 30666, Note_off_c, 1, 71, 0
1, 30672, Note_on_c, 1, 69, 127
1, 30803, Note_off_c, 1, 69, 0
1, 30806, Note_off_c, 1, 37, 0
1, 30809, Note_on_c, 1, 71, 127
1, 30809, Note_on_c, 1, 39, 127
1, 30940, Note_off_c, 1, 71, 0
1, 30946, Note_on_c, 1, 74, 127
1, 31077, Note_off_c, 1, 74, 0
1, 31080, Note_off_c, 1, 39, 0
1, 31083, Note_on_c, 1, 73, 127
1, 31083, Note_on_c, 1, 41, 127
1, 31214, Note_off_c, 1, 73, 0
1, 31220, Note_on_c, 1, 71, 127
1, 31351, Note_off_c, 1, 71, 0
1, 31354, Note_off_c, 1, 41, 0
1, 31357, Note_on_c, 1, 69, 127
1, 31357, Note_on_c, 1, 42, 127
1, 31488, Note_off_c, 1, 69, 0
1, 31494, Note_on_c, 1, 66, 127
1, 31625, Note_off_c, 1, 66, 0
1, 31628, Note_off_c, 1, 42, 0
1, 31631, Note_on_c, 1, 69, 127
1, 31631, Note_on_c, 1, 54, 127
1, 31762, Note_off_c, 1, 69, 0
1, 31768, Note_on_c, 1, 73, 127
1, 31899, Note_off_c, 1, 73, 0
1, 31902, Note_off_c, 1, 54, 0
1, 31905, Note_on_c, 1, 78, 127
1, 31905, Note_on_c, 1, 51, 127
1, 32036, Note_off_c, 1, 78, 0
1, 32042, Note_on_c, 1, 75, 127
1, 32173, Note_off_c, 1, 75, 0
1, 32176, Note_off_c, 1, 51, 0
1, 32179, Note_on_c, 1, 72, 127
1, 32179, Note_on_c, 1, 56, 127
1, 32310, Note_off_c, 1, 72, 0
1, 32316, Note_on_c, 1, 68, 127
1, 32447, Note_off_c, 1, 68, 0
1, 32450, Note_off_c, 1, 56, 0
1, 32453, Note_on_c, 1, 72, 127
1, 32453, Note_on_c, 1, 54, 127
1, 32584, Note_off_c, 1, 72, 0
1, 32590, Note_on_c, 1, 75, 127
1, 32721, Note_off_c, 1, 75, 0
1, 32724, Note_off_c, 1, 54, 0
1, 32727, Note_on_c, 1, 78, 127
1, 32727, Note_on_c, 1, 56, 127
1, 32858, Note_off_c, 1, 78, 0
1, 32864, Note_on_c, 1, 75, 127
1, 32995, Note_off_c, 1, 75, 0
1, 32998, Note_off_c, 1, 56, 0
1, 33001, Note_on_c, 1, 49, 127
1, 33001, Note_on_c, 1, 76, 127
1, 33067, Note_off_c, 1, 49, 0
1, 33070, Note_on_c, 1, 48, 127
1, 33133, Note_off_c, 1, 76, 0
1, 33136, Note_off_c, 1, 48, 0
1, 33139, Note_on_c, 1, 78, 127
1, 33139, Note_on_c, 1, 49, 127
1, 33270, Note_off_c, 1, 78, 0
1, 33276, Note_on_c, 1, 76, 127
1, 33407, Note_off_c, 1, 76, 0
1, 33413, Note_on_c, 1, 75, 127
1, 33544, Note_off_c, 1, 75, 0
1, 33547, Note_off_c, 1, 49, 0
1, 33550, Note_on_c, 1, 73, 127
1, 33550, Note_on_c, 1, 49, 127
1, 33681, Note_off_c, 1, 73, 0
1, 33687, Note_on_c, 1, 71, 127
1, 33818, Note_off_c, 1, 71, 0
1, 33821, Note_off_c, 1, 49, 0
1, 33824, Note_on_c, 1, 49, 127
1, 33824, Note_on_c, 1, 69, 127
1, 33890, Note_off_c, 1, 49, 0
1, 33893, Note_on_c, 1, 48, 127
1, 33956, Note_off_c, 1, 69, 0
1, 33959, Note_off_c, 1, 48, 0
1, 33962, Note_on_c, 1, 71, 127
1, 33962, Note_on_c, 1, 49, 127
1, 34093, Note_off_c, 1, 71, 0
1, 34099, Note_on_c, 1, 73, 127
1, 34230, Note_off_c, 1, 73, 0
1, 34370, Note_off_c, 1, 49, 0
1, 34373, Note_on_c, 1, 69, 127
1, 34373, Note_on_c, 1, 49, 127
1, 34504, Note_off_c, 1, 69, 0
1, 34510, Note_on_c, 1, 68, 127
1, 34641, Note_off_c, 1, 68, 0
1, 34644, Note_off_c, 1, 49, 0
1, 34647, Note_on_c, 1, 49, 127
1, 34647, Note_on_c, 1, 66, 127
1, 34704, Note_off_c, 1, 49, 0
1, 34704, Note_on_c, 1, 51, 127
1, 34763, Note_off_c, 1, 51, 0
1, 34763, Note_on_c, 1, 52, 127
1, 34779, Note_off_c, 1, 66, 0
1, 34785, Note_on_c, 1, 69, 127
1, 34822, Note_off_c, 1, 52, 0
1, 34916, Note_off_c, 1, 69, 0
1, 34922, Note_on_c, 1, 73, 127
1, 35054, Note_off_c, 1, 73, 0
1, 35472, Note_on_c, 1, 63, 127
1, 35604, Note_off_c, 1, 63, 0
1, 36301, Note_on_c, 1, 60, 127
1, 36572, Note_off_c, 1, 60, 0
1, 36575, Note_on_c, 1, 48, 127
1, 36575, Note_on_c, 1, 63, 127
1, 36706, Note_off_c, 1, 48, 0
1, 36712, Note_on_c, 1, 49, 127
1, 36843, Note_off_c, 1, 49, 0
1, 36846, Note_off_c, 1, 63, 0
1, 36849, Note_on_c, 1, 51, 127
1, 36849, Note_on_c, 1, 66, 127
1, 36980, Note_off_c, 1, 51, 0
1, 36986, Note_on_c, 1, 52, 127
1, 37117, Note_off_c, 1, 52, 0
1, 37120, Note_off_c, 1, 66, 0
1, 37123, Note_on_c, 1, 54, 127
1, 37123, Note_on_c, 1, 69, 127
1, 37254, Note_off_c, 1, 54, 0
1, 37260, Note_on_c, 1, 52, 127
1, 37391, Note_off_c, 1, 52, 0
1, 37394, Note_off_c, 1, 69, 0
1, 37397, Note_on_c, 1, 54, 127
1, 37397, Note_on_c, 1, 68, 127
1, 37528, Note_off_c, 1, 54, 0
1, 37534, Note_on_c, 1, 57, 127
1, 37665, Note_off_c, 1, 57, 0
1, 37668, Note_off_c, 1, 68, 0
1, 37671, Note_on_c, 1, 56, 127
1, 37671, Note_on_c, 1, 72, 127
1, 37802, Note_off_c, 1, 56, 0
1, 37808, Note_on_c, 1, 54, 127
1, 37939, Note_off_c, 1, 54, 0
1, 37942, Note_off_c, 1, 72, 0
1, 37945, Note_on_c, 1, 52, 127
1, 37945, Note_on_c, 1, 73, 127
1, 38076, Note_off_c, 1, 52, 0
1, 38082, Note_on_c, 1, 76, 127
1, 38082, Note_on_c, 1, 49, 127
1, 38213, Note_off_c, 1, 76, 0
1, 38213, Note_off_c, 1, 49, 0
1, 38219, Note_on_c, 1, 80, 127
1, 38350, Note_off_c, 1, 80, 0
1, 38356, Note_on_c, 1, 56, 127
1, 38487, Note_off_c, 1, 73, 0
1, 38487, Note_off_c, 1, 56, 0
1, 38493, Note_on_c, 1, 61, 127
1, 38493, Note_on_c, 1, 73, 127
1, 38624, Note_off_c, 1, 61, 0
1, 38630, Note_on_c, 1, 76, 127
1, 38630, Note_on_c, 1, 56, 127
1, 38761, Note_off_c, 1, 76, 0
1, 38761, Note_off_c, 1, 56, 0
1, 38767, Note_on_c, 1, 80, 127
1, 38767, Note_on_c, 1, 52, 127
1, 38898, Note_off_c, 1, 80, 0
1, 38898, Note_off_c, 1, 52, 0
1, 38904, Note_on_c, 1, 49, 127
1, 39035, Note_off_c, 1, 73, 0
1, 39035, Note_off_c, 1, 49, 0
1, 39041, Note_on_c, 1, 73, 127
1, 39041, Note_on_c, 1, 52, 127
1, 39172, Note_off_c, 1, 73, 0
1, 39172, Note_off_c, 1, 52, 0
1, 39178, Note_on_c, 1, 76, 127
1, 39178, Note_on_c, 1, 56, 127
1, 39309, Note_off_c, 1, 76, 0
1, 39309, Note_off_c, 1, 56, 0
1, 39315, Note_on_c, 1, 80, 127
1, 39315, Note_on_c, 1, 61, 127
1, 39446, Note_off_c, 1, 80, 0
1, 39446, Note_off_c, 1, 61, 0
1, 39452, Note_on_c, 1, 76, 127
1, 39452, Note_on_c, 1, 59, 127
1, 39583, Note_off_c, 1, 76, 0
1, 39583, Note_off_c, 1, 59, 0
1, 39589, Note_on_c, 1, 58, 127
1, 39589, Note_on_c, 1, 73, 127
1, 39720, Note_off_c, 1, 58, 0
1, 39726, Note_on_c, 1, 76, 127
1, 39726, Note_on_c, 1, 54, 127
1, 39857, Note_off_c, 1, 76, 0
1, 39857, Note_off_c, 1, 54, 0
1, 39863, Note_on_c, 1, 78, 127
1, 39994, Note_off_c, 1, 78, 0
1, 40000, Note_on_c, 1, 61, 127
1, 40131, Note_off_c, 1, 73, 0
1, 40131, Note_off_c, 1, 61, 0
1, 40137, Note_on_c, 1, 66, 127
1, 40137, Note_on_c, 1, 73, 127
1, 40268, Note_off_c, 1, 66, 0
1, 40274, Note_on_c, 1, 76, 127
1, 40274, Note_on_c, 1, 61, 127
1, 40405, Note_off_c, 1, 76, 0
1, 40405, Note_off_c, 1, 61, 0
1, 40411, Note_on_c, 1, 78, 127
1, 40411, Note_on_c, 1, 58, 127
1, 40542, Note_off_c, 1, 78, 0
1, 40542, Note_off_c, 1, 58, 0
1, 40548, Note_on_c, 1, 54, 127
1, 40679, Note_off_c, 1, 73, 0
1, 40679, Note_off_c, 1, 54, 0
1, 40685, Note_on_c, 1, 73, 127
1, 40685, Note_on_c, 1, 58, 127
1, 40816, Note_off_c, 1, 73, 0
1, 40816, Note_off_c, 1, 58, 0
1, 40822, Note_on_c, 1, 76, 127
1, 40822, Note_on_c, 1, 61, 127
1, 40953, Note_off_c, 1, 76, 0
1, 40953, Note_off_c, 1, 61, 0
1, 40959, Note_on_c, 1, 78, 127
1, 40959, Note_on_c, 1, 66, 127
1, 41090, Note_off_c, 1, 78, 0
1, 41090, Note_off_c, 1, 66, 0
1, 41096, Note_on_c, 1, 70, 127
1, 41096, Note_on_c, 1, 64, 127
1, 41227, Note_off_c, 1, 70, 0
1, 41227, Note_off_c, 1, 64, 0
1, 41233, Note_on_c, 1, 62, 127
1, 41233, Note_on_c, 1, 71, 127
1, 41364, Note_off_c, 1, 62, 0
1, 41370, Note_on_c, 1, 74, 127
1, 41370, Note_on_c, 1, 47, 127
1, 41501, Note_off_c, 1, 74, 0
1, 41501, Note_off_c, 1, 47, 0
1, 41507, Note_on_c, 1, 78, 127
1, 41507, Note_on_c, 1, 50, 127
1, 41633, Note_off_c, 1, 71, 0
1, 41639, Note_off_c, 1, 78, 0
1, 41639, Note_off_c, 1, 50, 0
1, 41645, Note_on_c, 1, 74, 127
1, 41645, Note_on_c, 1, 54, 127
1, 41776, Note_off_c, 1, 74, 0
1, 41776, Note_off_c, 1, 54, 0
1, 41782, Note_on_c, 1, 59, 127
1, 41782, Note_on_c, 1, 71, 127
1, 41913, Note_off_c, 1, 59, 0
1, 41919, Note_on_c, 1, 74, 127
1, 41919, Note_on_c, 1, 54, 127
1, 42050, Note_off_c, 1, 74, 0
1, 42050, Note_off_c, 1, 54, 0
1, 42056, Note_on_c, 1, 78, 127
1, 42056, Note_on_c, 1, 50, 127
1, 42182, Note_off_c, 1, 71, 0
1, 42188, Note_off_c, 1, 78, 0
1, 42188, Note_off_c, 1, 50, 0
1, 42194, Note_on_c, 1, 74, 127
1, 42194, Note_on_c, 1, 47, 127
1, 42325, Note_off_c, 1, 74, 0
1, 42325, Note_off_c, 1, 47, 0
1, 42331, Note_on_c, 1, 71, 127
1, 42331, Note_on_c, 1, 50, 127
1, 42462, Note_off_c, 1, 71, 0
1, 42462, Note_off_c, 1, 50, 0
1, 42468, Note_on_c, 1, 74, 127
1, 42468, Note_on_c, 1, 54, 127
1, 42599, Note_off_c, 1, 74, 0
1, 42599, Note_off_c, 1, 54, 0
1, 42605, Note_on_c, 1, 78, 127
1, 42605, Note_on_c, 1, 59, 127
1, 42736, Note_off_c, 1, 78, 0
1, 42736, Note_off_c, 1, 59, 0
1, 42742, Note_on_c, 1, 74, 127
1, 42742, Note_on_c, 1, 57, 127
1, 42873, Note_off_c, 1, 74, 0
1, 42873, Note_off_c, 1, 57, 0
1, 42879, Note_on_c, 1, 56, 127
1, 42879, Note_on_c, 1, 71, 127
1, 43010, Note_off_c, 1, 56, 0
1, 43016, Note_on_c, 1, 74, 127
1, 43016, Note_on_c, 1, 52, 127
1, 43147, Note_off_c, 1, 74, 0
1, 43147, Note_off_c, 1, 52, 0
1, 43150, Note_off_c, 1, 71, 0
1, 43153, Note_on_c, 1, 76, 127
1, 43153, Note_on_c, 1, 56, 127
1, 43284, Note_off_c, 1, 76, 0
1, 43284, Note_off_c, 1, 56, 0
1, 43290, Note_on_c, 1, 74, 127
1, 43290, Note_on_c, 1, 59, 127
1, 43421, Note_off_c, 1, 74, 0
1, 43421, Note_off_c, 1, 59, 0
1, 43427, Note_on_c, 1, 64, 127
1, 43427, Note_on_c, 1, 71, 127
1, 43558, Note_off_c, 1, 64, 0
1, 43564, Note_on_c, 1, 74, 127
1, 43564, Note_on_c, 1, 59, 127
1, 43695, Note_off_c, 1, 74, 0
1, 43695, Note_off_c, 1, 59, 0
1, 43698, Note_off_c, 1, 71, 0
1, 43701, Note_on_c, 1, 76, 127
1, 43701, Note_on_c, 1, 56, 127
1, 43832, Note_off_c, 1, 76, 0
1, 43832, Note_off_c, 1, 56, 0
1, 43838, Note_on_c, 1, 74, 127
1, 43838, Note_on_c, 1, 52, 127
1, 43969, Note_off_c, 1, 74, 0
1, 43969, Note_off_c, 1, 52, 0
1, 43975, Note_on_c, 1, 71, 127
1, 43975, Note_on_c, 1, 56, 127
1, 44106, Note_off_c, 1, 71, 0
1, 44106, Note_off_c, 1, 56, 0
1, 44112, Note_on_c, 1, 74, 127
1, 44112, Note_on_c, 1, 59, 127
1, 44243, Note_off_c, 1, 74, 0
1, 44243, Note_off_c, 1, 59, 0
1, 44249, Note_on_c, 1, 76, 127
1, 44249, Note_on_c, 1, 64, 127
1, 44370, Note_off_c, 1, 76, 0
1, 44380, Note_off_c, 1, 64, 0
1, 44386, Note_on_c, 1, 68, 127
1, 44386, Note_on_c, 1, 62, 127
1, 44507, Note_off_c, 1, 68, 0
1, 44517, Note_off_c, 1, 62, 0
1, 44523, Note_on_c, 1, 69, 127
1, 44523, Note_on_c, 1, 61, 127
1, 44589, Note_off_c, 1, 69, 0
1, 44592, Note_on_c, 1, 68, 127
1, 44655, Note_off_c, 1, 61, 0
1, 44658, Note_off_c, 1, 68, 0
1, 44661, Note_on_c, 1, 62, 127
1, 44661, Note_on_c, 1, 69, 127
1, 44792, Note_off_c, 1, 62, 0
1, 44798, Note_on_c, 1, 64, 127
1, 44929, Note_off_c, 1, 64, 0
1, 45069, Note_off_c, 1, 69, 0
1, 45072, Note_on_c, 1, 61, 127
1, 45072, Note_on_c, 1, 69, 127
1, 45203, Note_off_c, 1, 61, 0
1, 45209, Note_on_c, 1, 59, 127
1, 45286, Note_off_c, 1, 69, 0
1, 45340, Note_off_c, 1, 59, 0
1, 45346, Note_on_c, 1, 69, 127
1, 45346, Note_on_c, 1, 57, 127
1, 45412, Note_off_c, 1, 69, 0
1, 45415, Note_on_c, 1, 68, 127
1, 45478, Note_off_c, 1, 57, 0
1, 45481, Note_off_c, 1, 68, 0
1, 45484, Note_on_c, 1, 59, 127
1, 45484, Note_on_c, 1, 69, 127
1, 45615, Note_off_c, 1, 59, 0
1, 45621, Note_on_c, 1, 61, 127
1, 45752, Note_off_c, 1, 61, 0
1, 45892, Note_off_c, 1, 69, 0
1, 45895, Note_on_c, 1, 57, 127
1, 45895, Note_on_c, 1, 69, 127
1, 46026, Note_off_c, 1, 57, 0
1, 46032, Note_on_c, 1, 56, 127
1, 46163, Note_off_c, 1, 56, 0
1, 46169, Note_on_c, 1, 54, 127
1, 46303, Note_off_c, 1, 69, 0
1, 46306, Note_on_c, 1, 75, 127
1, 46437, Note_off_c, 1, 75, 0
1, 46440, Note_off_c, 1, 54, 0
1, 46443, Note_on_c, 1, 71, 127
1, 46443, Note_on_c, 1, 57, 127
1, 46574, Note_off_c, 1, 71, 0
1, 46580, Note_on_c, 1, 69, 127
1, 46711, Note_off_c, 1, 69, 0
1, 46714, Note_off_c, 1, 57, 0
1, 46717, Note_on_c, 1, 66, 127
1, 46717, Note_on_c, 1, 63, 127
1, 46848, Note_off_c, 1, 66, 0
1, 46854, Note_on_c, 1, 69, 127
1, 46985, Note_off_c, 1, 69, 0
1, 46991, Note_on_c, 1, 71, 127
1, 47122, Note_off_c, 1, 71, 0
1, 47128, Note_on_c, 1, 75, 127
1, 47259, Note_off_c, 1, 75, 0
1, 47262, Note_off_c, 1, 63, 0
1, 47265, Note_on_c, 1, 71, 127
1, 47265, Note_on_c, 1, 61, 127
1, 47396, Note_off_c, 1, 71, 0
1, 47402, Note_on_c, 1, 69, 127
1, 47533, Note_off_c, 1, 69, 0
1, 47536, Note_off_c, 1, 61, 0
1, 47539, Note_on_c, 1, 66, 127
1, 47539, Note_on_c, 1, 59, 127
1, 47670, Note_off_c, 1, 66, 0
1, 47676, Note_on_c, 1, 69, 127
1, 47803, Note_off_c, 1, 69, 0
1, 47810, Note_off_c, 1, 59, 0
1, 47813, Note_on_c, 1, 67, 127
1, 47813, Note_on_c, 1, 64, 127
1, 47879, Note_off_c, 1, 67, 0
1, 47882, Note_on_c, 1, 66, 127
1, 47945, Note_off_c, 1, 64, 0
1, 47948, Note_off_c, 1, 66, 0
1, 47951, Note_on_c, 1, 67, 127
1, 47951, Note_on_c, 1, 66, 127
1, 48082, Note_off_c, 1, 67, 0
1, 48082, Note_off_c, 1, 66, 0
1, 48088, Note_on_c, 1, 67, 127
1, 48225, Note_on_c, 1, 66, 127
1, 48356, Note_off_c, 1, 66, 0
1, 48359, Note_off_c, 1, 67, 0
1, 48362, Note_on_c, 1, 64, 127
1, 48362, Note_on_c, 1, 67, 127
1, 48493, Note_off_c, 1, 64, 0
1, 48499, Note_on_c, 1, 62, 127
1, 48590, Note_off_c, 1, 67, 0
1, 48630, Note_off_c, 1, 62, 0
1, 48636, Note_on_c, 1, 67, 127
1, 48636, Note_on_c, 1, 61, 127
1, 48702, Note_off_c, 1, 67, 0
1, 48705, Note_on_c, 1, 66, 127
1, 48768, Note_off_c, 1, 61, 0
1, 48771, Note_off_c, 1, 66, 0
1, 48774, Note_on_c, 1, 62, 127
1, 48774, Note_on_c, 1, 67, 127
1, 48905, Note_off_c, 1, 62, 0
1, 48911, Note_on_c, 1, 64, 127
1, 49042, Note_off_c, 1, 64, 0
1, 49182, Note_off_c, 1, 67, 0
1, 49185, Note_on_c, 1, 61, 127
1, 49185, Note_on_c, 1, 67, 127
1, 49316, Note_off_c, 1, 61, 0
1, 49322, Note_on_c, 1, 59, 127
1, 49453, Note_off_c, 1, 59, 0
1, 49459, Note_on_c, 1, 57, 127
1, 49593, Note_off_c, 1, 67, 0
1, 49596, Note_on_c, 1, 76, 127
1, 49727, Note_off_c, 1, 76, 0
1, 49730, Note_off_c, 1, 57, 0
1, 49733, Note_on_c, 1, 73, 127
1, 49733, Note_on_c, 1, 52, 127
1, 49864, Note_off_c, 1, 73, 0
1, 49870, Note_on_c, 1, 67, 127
1, 50001, Note_off_c, 1, 67, 0
1, 50004, Note_off_c, 1, 52, 0
1, 50007, Note_on_c, 1, 64, 127
1, 50007, Note_on_c, 1, 49, 127
1, 50138, Note_off_c, 1, 64, 0
1, 50144, Note_on_c, 1, 67, 127
1, 50275, Note_off_c, 1, 67, 0
1, 50278, Note_off_c, 1, 49, 0
1, 50281, Note_on_c, 1, 73, 127
1, 50281, Note_on_c, 1, 45, 127
1, 50412, Note_off_c, 1, 73, 0
1, 50418, Note_on_c, 1, 76, 127
1, 50549, Note_off_c, 1, 76, 0
1, 50692, Note_on_c, 1, 67, 127
1, 50823, Note_off_c, 1, 45, 0
1, 50823, Note_off_c, 1, 67, 0
1, 50829, Note_on_c, 1, 64, 127
1, 50960, Note_off_c, 1, 64, 0
1, 50966, Note_on_c, 1, 67, 127
1, 51097, Note_off_c, 1, 67, 0
1, 51103, Note_on_c, 1, 66, 127
1, 51240, Note_on_c, 1, 50, 127
1, 51371, Note_off_c, 1, 50, 0
1, 51377, Note_on_c, 1, 54, 127
1, 51508, Note_off_c, 1, 54, 0
1, 51514, Note_on_c, 1, 57, 127
1, 51645, Note_off_c, 1, 57, 0
1, 51651, Note_on_c, 1, 62, 127
1, 51782, Note_off_c, 1, 62, 0
1, 51788, Note_on_c, 1, 61, 127
1, 51919, Note_off_c, 1, 61, 0
1, 51925, Note_on_c, 1, 59, 127
1, 52059, Note_off_c, 1, 66, 0
1, 52062, Note_on_c, 1, 56, 127
1, 52193, Note_off_c, 1, 56, 0
1, 52196, Note_off_c, 1, 59, 0
1, 52199, Note_on_c, 1, 59, 127
1, 52330, Note_off_c, 1, 59, 0
1, 52336, Note_on_c, 1, 63, 127
1, 52467, Note_off_c, 1, 63, 0
1, 52473, Note_on_c, 1, 68, 127
1, 52604, Note_off_c, 1, 68, 0
1, 52610, Note_on_c, 1, 66, 127
1, 52741, Note_off_c, 1, 66, 0
1, 52747, Note_on_c, 1, 64, 127
1, 52813, Note_off_c, 1, 64, 0
1, 52816, Note_on_c, 1, 62, 127
1, 52882, Note_off_c, 1, 62, 0
1, 52885, Note_on_c, 1, 49, 127
1, 52885, Note_on_c, 1, 64, 127
1, 53016, Note_off_c, 1, 49, 0
1, 53022, Note_on_c, 1, 52, 127
1, 53153, Note_off_c, 1, 52, 0
1, 53159, Note_on_c, 1, 56, 127
1, 53290, Note_off_c, 1, 56, 0
1, 53296, Note_on_c, 1, 61, 127
1, 53427, Note_off_c, 1, 61, 0
1, 53433, Note_on_c, 1, 59, 127
1, 53564, Note_off_c, 1, 59, 0
1, 53570, Note_on_c, 1, 57, 127
1, 53704, Note_off_c, 1, 64, 0
1, 53707, Note_on_c, 1, 54, 127
1, 53838, Note_off_c, 1, 54, 0
1, 53841, Note_off_c, 1, 57, 0
1, 53844, Note_on_c, 1, 57, 127
1, 53975, Note_off_c, 1, 57, 0
1, 53981, Note_on_c, 1, 61, 127
1, 54112, Note_off_c, 1, 61, 0
1, 54118, Note_on_c, 1, 66, 127
1, 54249, Note_off_c, 1, 66, 0
1, 54255, Note_on_c, 1, 64, 127
1, 54386, Note_off_c, 1, 64, 0
1, 54392, Note_on_c, 1, 62, 127
1, 54458, Note_off_c, 1, 62, 0
1, 54461, Note_on_c, 1, 61, 127
1, 54527, Note_off_c, 1, 61, 0
1, 54530, Note_on_c, 1, 47, 127
1, 54530, Note_on_c, 1, 62, 127
1, 54661, Note_off_c, 1, 47, 0
1, 54667, Note_on_c, 1, 50, 127
1, 54798, Note_off_c, 1, 50, 0
1, 54804, Note_on_c, 1, 54, 127
1, 54935, Note_off_c, 1, 54, 0
1, 54941, Note_on_c, 1, 59, 127
1, 55072, Note_off_c, 1, 59, 0
1, 55078, Note_on_c, 1, 57, 127
1, 55209, Note_off_c, 1, 57, 0
1, 55215, Note_on_c, 1, 56, 127
1, 55349, Note_off_c, 1, 62, 0
1, 55352, Note_on_c, 1, 52, 127
1, 55483, Note_off_c, 1, 52, 0
1, 55486, Note_off_c, 1, 56, 0
1, 55489, Note_on_c, 1, 56, 127
1, 55620, Note_off_c, 1, 56, 0
1, 55626, Note_on_c, 1, 59, 127
1, 55757, Note_off_c, 1, 59, 0
1, 55763, Note_on_c, 1, 64, 127
1, 55894, Note_off_c, 1, 64, 0
1, 55900, Note_on_c, 1, 62, 127
1, 56031, Note_off_c, 1, 62, 0
1, 56037, Note_on_c, 1, 45, 127
1, 56037, Note_on_c, 1, 61, 127
1, 56103, Note_off_c, 1, 45, 0
1, 56106, Note_on_c, 1, 44, 127
1, 56169, Note_off_c, 1, 61, 0
1, 56172, Note_off_c, 1, 44, 0
1, 56175, Note_on_c, 1, 57, 127
1, 56175, Note_on_c, 1, 45, 127
1, 56306, Note_off_c, 1, 57, 0
1, 56312, Note_on_c, 1, 61, 127
1, 56443, Note_off_c, 1, 61, 0
1, 56449, Note_on_c, 1, 64, 127
1, 56580, Note_off_c, 1, 64, 0
1, 56583, Note_off_c, 1, 45, 0
1, 56586, Note_on_c, 1, 69, 127
1, 56586, Note_on_c, 1, 45, 127
1, 56717, Note_off_c, 1, 69, 0
1, 56723, Note_on_c, 1, 64, 127
1, 56854, Note_off_c, 1, 64, 0
1, 56857, Note_off_c, 1, 45, 0
1, 56860, Note_on_c, 1, 45, 127
1, 56860, Note_on_c, 1, 73, 127
1, 56926, Note_off_c, 1, 45, 0
1, 56929, Note_on_c, 1, 44, 127
1, 56992, Note_off_c, 1, 73, 0
1, 56995, Note_off_c, 1, 44, 0
1, 56998, Note_on_c, 1, 69, 127
1, 56998, Note_on_c, 1, 45, 127
1, 57129, Note_off_c, 1, 69, 0
1, 57135, Note_on_c, 1, 73, 127
1, 57266, Note_off_c, 1, 73, 0
1, 57272, Note_on_c, 1, 76, 127
1, 57403, Note_off_c, 1, 76, 0
1, 57406, Note_off_c, 1, 45, 0
1, 57409, Note_on_c, 1, 81, 127
1, 57409, Note_on_c, 1, 45, 127
1, 57540, Note_off_c, 1, 81, 0
1, 57546, Note_on_c, 1, 78, 127
1, 57677, Note_off_c, 1, 78, 0
1, 57680, Note_off_c, 1, 45, 0
1, 57683, Note_on_c, 1, 45, 127
1, 57683, Note_on_c, 1, 74, 127
1, 57743, Note_off_c, 1, 45, 0
1, 57744, Note_on_c, 1, 47, 127
1, 57804, Note_off_c, 1, 47, 0
1, 57805, Note_on_c, 1, 49, 127
1, 57814, Note_off_c, 1, 74, 0
1, 57820, Note_on_c, 1, 78, 127
1, 57866, Note_off_c, 1, 49, 0
1, 57951, Note_off_c, 1, 78, 0
1, 57957, Note_on_c, 1, 81, 127
1, 58088, Note_off_c, 1, 81, 0
1, 58505, Note_on_c, 1, 71, 127
1, 58635, Note_off_c, 1, 71, 0
1, 59324, Note_on_c, 1, 68, 127
1, 59595, Note_off_c, 1, 68, 0
1, 59598, Note_on_c, 1, 44, 127
1, 59598, Note_on_c, 1, 71, 127
1, 59729, Note_off_c, 1, 44, 0
1, 59735, Note_on_c, 1, 45, 127
1, 59866, Note_off_c, 1, 45, 0
1, 59869, Note_off_c, 1, 71, 0
1, 59872, Note_on_c, 1, 47, 127
1, 59872, Note_on_c, 1, 74, 127
1, 60003, Note_off_c, 1, 47, 0
1, 60009, Note_on_c, 1, 49, 127
1, 60140, Note_off_c, 1, 49, 0
1, 60143, Note_off_c, 1, 74, 0
1, 60146, Note_on_c, 1, 50, 127
1, 60146, Note_on_c, 1, 78, 127
1, 60277, Note_off_c, 1, 50, 0
1, 60283, Note_on_c, 1, 49, 127
1, 60414, Note_off_c, 1, 49, 0
1, 60417, Note_off_c, 1, 78, 0
1, 60420, Note_on_c, 1, 50, 127
1, 60420, Note_on_c, 1, 76, 127
1, 60551, Note_off_c, 1, 50, 0
1, 60557, Note_on_c, 1, 54, 127
1, 60684, Note_off_c, 1, 76, 0
1, 60688, Note_off_c, 1, 54, 0
1, 60694, Note_on_c, 1, 52, 127
1, 60694, Note_on_c, 1, 71, 127
1, 60825, Note_off_c, 1, 52, 0
1, 60831, Note_on_c, 1, 50, 127
1, 60958, Note_off_c, 1, 71, 0
1, 60962, Note_off_c, 1, 50, 0
1, 60968, Note_on_c, 1, 49, 127
1, 60968, Note_on_c, 1, 78, 127
1, 61099, Note_off_c, 1, 49, 0
1, 61105, Note_on_c, 1, 47, 127
1, 61236, Note_off_c, 1, 47, 0
1, 61239, Note_off_c, 1, 78, 0
1, 61242, Note_on_c, 1, 49, 127
1, 61242, Note_on_c, 1, 76, 127
1, 61373, Note_off_c, 1, 49, 0
1, 61379, Note_on_c, 1, 52, 127
1, 61506, Note_off_c, 1, 76, 0
1, 61510, Note_off_c, 1, 52, 0
1, 61516, Note_on_c, 1, 50, 127
1, 61516, Note_on_c, 1, 69, 127
1, 61647, Note_off_c, 1, 50, 0
1, 61653, Note_on_c, 1, 49, 127
1, 61780, Note_off_c, 1, 69, 0
1, 61784, Note_off_c, 1, 49, 0
1, 61790, Note_on_c, 1, 47, 127
1, 61790, Note_on_c, 1, 78, 127
1, 61921, Note_off_c, 1, 47, 0
1, 61927, Note_on_c, 1, 45, 127
1, 62058, Note_off_c, 1, 45, 0
1, 62061, Note_off_c, 1, 78, 0
1, 62064, Note_on_c, 1, 47, 127
1, 62064, Note_on_c, 1, 76, 127
1, 62195, Note_off_c, 1, 47, 0
1, 62201, Note_on_c, 1, 50, 127
1, 62328, Note_off_c, 1, 76, 0
1, 62332, Note_off_c, 1, 50, 0
1, 62338, Note_on_c, 1, 49, 127
1, 62338, Note_on_c, 1, 68, 127
1, 62469, Note_off_c, 1, 49, 0
1, 62475, Note_on_c, 1, 47, 127
1, 62602, Note_off_c, 1, 68, 0
1, 62606, Note_off_c, 1, 47, 0
1, 62612, Note_on_c, 1, 45, 127
1, 62612, Note_on_c, 1, 74, 127
1, 62743, Note_off_c, 1, 45, 0
1, 62749, Note_on_c, 1, 44, 127
1, 62880, Note_off_c, 1, 44, 0
1, 62883, Note_off_c, 1, 74, 0
1, 62886, Note_on_c, 1, 45, 127
1, 62886, Note_on_c, 1, 73, 127
1, 63017, Note_off_c, 1, 45, 0
1, 63023, Note_on_c, 1, 47, 127
1, 63150, Note_off_c, 1, 73, 0
1, 63154, Note_off_c, 1, 47, 0
1, 63160, Note_on_c, 1, 49, 127
1, 63160, Note_on_c, 1, 64, 127
1, 63291, Note_off_c, 1, 49, 0
1, 63297, Note_on_c, 1, 45, 127
1, 63424, Note_off_c, 1, 64, 0
1, 63428, Note_off_c, 1, 45, 0
1, 63434, Note_on_c, 1, 50, 127
1, 63434, Note_on_c, 1, 66, 127
1, 63500, Note_off_c, 1, 50, 0
1, 63503, Note_on_c, 1, 49, 127
1, 63566, Note_off_c, 1, 66, 0
1, 63569, Note_off_c, 1, 49, 0
1, 63572, Note_on_c, 1, 68, 127
1, 63572, Note_on_c, 1, 50, 127
1, 63703, Note_off_c, 1, 68, 0
1, 63709, Note_on_c, 1, 69, 127
1, 63840, Note_off_c, 1, 69, 0
1, 63846, Note_on_c, 1, 71, 127
1, 63977, Note_off_c, 1, 71, 0
1, 63980, Note_off_c, 1, 50, 0
1, 63983, Note_on_c, 1, 73, 127
1, 63983, Note_on_c, 1, 50, 127
1, 64114, Note_off_c, 1, 73, 0
1, 64120, Note_on_c, 1, 74, 127
1, 64251, Note_off_c, 1, 74, 0
1, 64254, Note_off_c, 1, 50, 0
1, 64257, Note_on_c, 1, 49, 127
1, 64257, Note_on_c, 1, 68, 127
1, 64323, Note_off_c, 1, 49, 0
1, 64326, Note_on_c, 1, 50, 127
1, 64389, Note_off_c, 1, 68, 0
1, 64392, Note_off_c, 1, 50, 0
1, 64395, Note_on_c, 1, 52, 127
1, 64395, Note_on_c, 1, 64, 127
1, 64461, Note_off_c, 1, 52, 0
1, 64464, Note_on_c, 1, 50, 127
1, 64527, Note_off_c, 1, 64, 0
1, 64530, Note_off_c, 1, 50, 0
1, 64533, Note_on_c, 1, 52, 127
1, 64533, Note_on_c, 1, 68, 127
1, 64599, Note_off_c, 1, 52, 0
1, 64602, Note_on_c, 1, 50, 127
1, 64665, Note_off_c, 1, 68, 0
1, 64668, Note_off_c, 1, 50, 0
1, 64671, Note_on_c, 1, 52, 127
1, 64671, Note_on_c, 1, 71, 127
1, 64737, Note_off_c, 1, 52, 0
1, 64740, Note_on_c, 1, 50, 127
1, 64803, Note_off_c, 1, 71, 0
1, 64806, Note_off_c, 1, 50, 0
1, 64809, Note_on_c, 1, 52, 127
1, 64809, Note_on_c, 1, 76, 127
1, 64875, Note_off_c, 1, 52, 0
1, 64878, Note_on_c, 1, 50, 127
1, 64941, Note_off_c, 1, 76, 0
1, 64944, Note_off_c, 1, 50, 0
1, 64947, Note_on_c, 1, 52, 127
1, 64947, Note_on_c, 1, 71, 127
1, 65013, Note_off_c, 1, 52, 0
1, 65016, Note_on_c, 1, 50, 127
1, 65079, Note_off_c, 1, 71, 0
1, 65082, Note_off_c, 1, 50, 0
1, 65085, Note_on_c, 1, 52, 127
1, 65085, Note_on_c, 1, 80, 127
1, 65151, Note_off_c, 1, 52, 0
1, 65154, Note_on_c, 1, 50, 127
1, 65217, Note_off_c, 1, 80, 0
1, 65220, Note_off_c, 1, 50, 0
1, 65223, Note_on_c, 1, 52, 127
1, 65223, Note_on_c, 1, 76, 127
1, 65289, Note_off_c, 1, 52, 0
1, 65292, Note_on_c, 1, 50, 127
1, 65355, Note_off_c, 1, 76, 0
1, 65358, Note_off_c, 1, 50, 0
1, 65361, Note_on_c, 1, 52, 127
1, 65361, Note_on_c, 1, 83, 127
1, 65427, Note_off_c, 1, 52, 0
1, 65430, Note_on_c, 1, 50, 127
1, 65493, Note_off_c, 1, 83, 0
1, 65496, Note_off_c, 1, 50, 0
1, 65499, Note_on_c, 1, 52, 127
1, 65499, Note_on_c, 1, 80, 127
1, 65565, Note_off_c, 1, 52, 0
1, 65568, Note_on_c, 1, 50, 127
1, 65631, Note_off_c, 1, 80, 0
1, 65634, Note_off_c, 1, 50, 0
1, 65637, Note_on_c, 1, 52, 127
1, 65637, Note_on_c, 1, 76, 127
1, 65703, Note_off_c, 1, 52, 0
1, 65706, Note_on_c, 1, 50, 127
1, 65769, Note_off_c, 1, 76, 0
1, 65772, Note_off_c, 1, 50, 0
1, 65775, Note_on_c, 1, 49, 127
1, 65775, Note_on_c, 1, 80, 127
1, 65841, Note_off_c, 1, 49, 0
1, 65844, Note_on_c, 1, 50, 127
1, 65907, Note_off_c, 1, 80, 0
1, 65910, Note_off_c, 1, 50, 0
1, 65913, Note_on_c, 1, 49, 127
1, 65913, Note_on_c, 1, 81, 127
1, 66046, Note_off_c, 1, 49, 0
1, 66052, Note_on_c, 1, 50, 127
1, 66185, Note_off_c, 1, 50, 0
1, 66188, Note_off_c, 1, 81, 0
1, 66191, Note_on_c, 1, 49, 127
1, 66191, Note_on_c, 1, 76, 127
1, 66326, Note_off_c, 1, 49, 0
1, 66332, Note_on_c, 1, 47, 127
1, 66467, Note_off_c, 1, 47, 0
1, 66470, Note_off_c, 1, 76, 0
1, 66473, Note_on_c, 1, 45, 127
1, 66473, Note_on_c, 1, 73, 127
1, 66609, Note_off_c, 1, 45, 0
1, 66615, Note_on_c, 1, 44, 127
1, 66751, Note_off_c, 1, 44, 0
1, 66754, Note_off_c, 1, 73, 0
1, 66757, Note_on_c, 1, 69, 127
1, 66757, Note_on_c, 1, 42, 127
1, 66899, Note_off_c, 1, 69, 0
1, 66899, Note_off_c, 1, 42, 0
1, 66905, Note_on_c, 1, 74, 127
1, 66905, Note_on_c, 1, 54, 127
1, 67047, Note_off_c, 1, 74, 0
1, 67047, Note_off_c, 1, 54, 0
1, 67053, Note_on_c, 1, 73, 127
1, 67053, Note_on_c, 1, 52, 127
1, 67200, Note_off_c, 1, 73, 0
1, 67200, Note_off_c, 1, 52, 0
1, 67206, Note_on_c, 1, 71, 127
1, 67206, Note_on_c, 1, 50, 127
1, 67353, Note_off_c, 1, 71, 0
1, 67353, Note_off_c, 1, 50, 0
1, 67359, Note_on_c, 1, 76, 127
1, 67359, Note_on_c, 1, 49, 127
1, 67435, Note_off_c, 1, 76, 0
1, 67438, Note_on_c, 1, 74, 127
1, 67510, Note_off_c, 1, 49, 0
1, 67513, Note_off_c, 1, 74, 0
1, 67516, Note_on_c, 1, 47, 127
1, 67516, Note_on_c, 1, 76, 127
1, 67667, Note_off_c, 1, 47, 0
1, 67674, Note_on_c, 1, 49, 127
1, 67829, Note_off_c, 1, 49, 0
1, 67832, Note_off_c, 1, 76, 0
1, 67835, Note_on_c, 1, 78, 127
1, 67835, Note_on_c, 1, 50, 127
1, 67990, Note_off_c, 1, 78, 0
1, 67990, Note_off_c, 1, 50, 0
1, 67997, Note_on_c, 1, 73, 127
1, 67997, Note_on_c, 1, 52, 127
1, 68089, Note_off_c, 1, 73, 0
1, 68093, Note_on_c, 1, 71, 127
1, 68185, Note_off_c, 1, 71, 0
1, 68381, Note_on_c, 1, 40, 127
1, 68573, Note_on_c, 1, 69, 127
1, 68757, Note_off_c, 1, 52, 0
1, 68757, Note_off_c, 1, 69, 0
1, 68761, Note_off_c, 1, 40, 0
1, 68785, Note_on_c, 1, 69, 127
1, 68785, Note_on_c, 1, 45, 127
1, 70585, Note_off_c, 1, 69, 0
1, 70585, Note_off_c, 1, 45, 0
1, 70585, End_track
0, 0, End_of_file