0, 0, Header, 1, 1, 480
1, 0, Start_track
1, 0, Title_t, "Test"
1, 0, Tempo, 500000
1, 0, Instrument_name_t, "Church Organ"
1, 111, Note_on_c, 1, 62, 127
1, 293, Note_off_c, 1, 62, 0
1, 295, Note_on_c, 1, 64, 127
1, 477, Note_off_c, 1, 64, 0
1, 481, Note_on_c, 1, 66, 127
1, 663, Note_off_c, 1, 66, 0
1, 667, Note_on_c, 1, 64, 127
1, 849, Note_off_c, 1, 64, 0
1, 852, Note_on_c, 1, 67, 127
1, 1034, Note_off_c, 1, 67, 0
1, 1038, Note_on_c, 1, 66, 127
1, 1220, Note_off_c, 1, 66, 0
1, 1225, Note_on_c, 1, 64, 127
1, 1407, Note_off_c, 1, 64, 0
1, 1410, Note_on_c, 1, 62, 127
1, 1592, Note_off_c, 1, 62, 0
1, 1596, Note_on_c, 1, 69, 127
1, 1778, Note_off_c, 1, 69, 0
1, 1781, Note_on_c, 1, 67, 127
1, 1963, Note_off_c, 1, 67, 0
1, 1967, Note_on_c, 1, 66, 127
1, 2149, Note_off_c, 1, 66, 0
1, 2152, Note_on_c, 1, 64, 127
1, 2334, Note_off_c, 1, 64, 0
1, 2338, Note_on_c, 1, 50, 127
1, 2338, Note_on_c, 1, 66, 127
1, 2520, Note_off_c, 1, 50, 0
1, 2520, Note_off_c, 1, 66, 0
1, 2525, Note_on_c, 1, 52, 127
1, 2525, Note_on_c, 1, 62, 127
1, 2707, Note_off_c, 1, 52, 0
1, 2707, Note_off_c, 1, 62, 0
1, 2710, Note_on_c, 1, 54, 127
1, 2710, Note_on_c, 1, 69, 127
1, 2892, Note_off_c, 1, 54, 0
1, 2896, Note_on_c, 1, 52, 127
1, 3078, Note_off_c, 1, 69, 0
1, 3078, Note_off_c, 1, 52, 0
1, 3082, Note_on_c, 1, 55, 127
1, 3082, Note_on_c, 1, 71, 127
1, 3264, Note_off_c, 1, 55, 0
1, 3266, Note_on_c, 1, 54, 127
1, 3448, Note_off_c, 1, 54, 0
1, 3450, Note_off_c, 1, 71, 0
1, 3452, Note_on_c, 1, 73, 127
1, 3452, Note_on_c, 1, 52, 127
1, 3541, Note_off_c, 1, 73, 0
1, 3546, Note_on_c, 1, 71, 127
1, 3634, Note_off_c, 1, 52, 0
1, 3635, Note_off_c, 1, 71, 0
1, 3638, Note_on_c, 1, 73, 127
1, 3638, Note_on_c, 1, 50, 127
1, 3727, Note_off_c, 1, 73, 0
1, 3732, Note_on_c, 1, 74, 127
1, 3820, Note_off_c, 1, 50, 0
1, 3821, Note_off_c, 1, 74, 0
1, 3825, Note_on_c, 1, 74, 127
1, 3825, Note_on_c, 1, 57, 127
1, 3914, Note_off_c, 1, 74, 0
1, 3916, Note_on_c, 1, 73, 127
1, 4005, Note_off_c, 1, 73, 0
1, 4007, Note_off_c, 1, 57, 0
1, 4010, Note_on_c, 1, 74, 127
1, 4010, Note_on_c, 1, 55, 127
1, 4099, Note_off_c, 1, 74, 0
1, 4102, Note_on_c, 1, 73, 127
1, 4191, Note_off_c, 1, 73, 0
1, 4192, Note_off_c, 1, 55, 0
1, 4196, Note_on_c, 1, 54, 127
1, 4196, Note_on_c, 1, 71, 127
1, 4378, Note_off_c, 1, 54, 0
1, 4378, Note_off_c, 1, 71, 0
1, 4382, Note_on_c, 1, 69, 127
1, 4382, Note_on_c, 1, 52, 127
1, 4540, Note_off_c, 1, 69, 0
1, 4562, Note_off_c, 1, 52, 0
1, 4565, Note_on_c, 1, 54, 127
1, 4565, Note_on_c, 1, 73, 127
1, 4747, Note_off_c, 1, 54, 0
1, 4747, Note_off_c, 1, 73, 0
1, 4751, Note_on_c, 1, 50, 127
1, 4751, Note_on_c, 1, 74, 127
1, 4933, Note_off_c, 1, 50, 0
1, 4933, Note_off_c, 1, 74, 0
1, 4937, Note_on_c, 1, 76, 127
1, 4937, Note_on_c, 1, 57, 127
1, 5122, Note_on_c, 1, 73, 127
1, 5128, Note_off_c, 1, 76, 0
1, 5304, Note_off_c, 1, 73, 0
1, 5308, Note_on_c, 1, 78, 127
1, 5308, Note_on_c, 1, 45, 127
1, 5493, Note_on_c, 1, 74, 127
1, 5537, Note_off_c, 1, 78, 0
1, 5668, Note_off_c, 1, 57, 0
1, 5673, Note_off_c, 1, 74, 0
1, 5691, Note_off_c, 1, 45, 0
1, 5862, Note_on_c, 1, 71, 127
1, 6044, Note_off_c, 1, 71, 0
1, 6048, Note_on_c, 1, 76, 127
1, 6048, Note_on_c, 1, 57, 127
1, 6233, Note_on_c, 1, 73, 127
1, 6239, Note_off_c, 1, 76, 0
1, 6415, Note_off_c, 1, 73, 0
1, 6418, Note_on_c, 1, 74, 127
1, 6418, Note_on_c, 1, 45, 127
1, 6604, Note_on_c, 1, 71, 127
1, 6647, Note_off_c, 1, 74, 0
1, 6779, Note_off_c, 1, 57, 0
1, 6784, Note_off_c, 1, 71, 0
1, 6789, Note_on_c, 1, 69, 127
1, 6801, Note_off_c, 1, 45, 0
1, 6971, Note_off_c, 1, 69, 0
1, 6973, Note_on_c, 1, 68, 127
1, 7155, Note_off_c, 1, 68, 0
1, 7159, Note_on_c, 1, 76, 127
1, 7159, Note_on_c, 1, 57, 127
1, 7334, Note_off_c, 1, 76, 0
1, 7344, Note_on_c, 1, 73, 127
1, 7514, Note_off_c, 1, 57, 0
1, 7519, Note_off_c, 1, 73, 0
1, 7528, Note_on_c, 1, 78, 127
1, 7528, Note_on_c, 1, 45, 127
1, 7703, Note_off_c, 1, 78, 0
1, 7713, Note_on_c, 1, 74, 127
1, 7883, Note_off_c, 1, 45, 0
1, 7888, Note_off_c, 1, 74, 0
1, 7898, Note_on_c, 1, 73, 127
1, 7898, Note_on_c, 1, 57, 127
1, 8073, Note_off_c, 1, 73, 0
1, 8082, Note_on_c, 1, 71, 127
1, 8253, Note_off_c, 1, 57, 0
1, 8257, Note_off_c, 1, 71, 0
1, 8266, Note_on_c, 1, 76, 127
1, 8266, Note_on_c, 1, 57, 127
1, 8441, Note_off_c, 1, 76, 0
1, 8452, Note_on_c, 1, 73, 127
1, 8621, Note_off_c, 1, 57, 0
1, 8627, Note_off_c, 1, 73, 0
1, 8637, Note_on_c, 1, 74, 127
1, 8637, Note_on_c, 1, 45, 127
1, 8812, Note_off_c, 1, 74, 0
1, 8821, Note_on_c, 1, 71, 127
1, 8992, Note_off_c, 1, 45, 0
1, 8996, Note_off_c, 1, 71, 0
1, 9006, Note_on_c, 1, 69, 127
1, 9006, Note_on_c, 1, 57, 127
1, 9181, Note_off_c, 1, 69, 0
1, 9190, Note_on_c, 1, 68, 127
1, 9333, Note_off_c, 1, 57, 0
1, 9369, Note_off_c, 1, 68, 0
1, 9375, Note_on_c, 1, 73, 127
1, 9375, Note_on_c, 1, 57, 127
1, 9557, Note_off_c, 1, 73, 0
1, 9561, Note_on_c, 1, 71, 127
1, 9743, Note_off_c, 1, 57, 0
1, 9743, Note_off_c, 1, 71, 0
1, 9747, Note_on_c, 1, 74, 127
1, 9747, Note_on_c, 1, 59, 127
1, 9929, Note_off_c, 1, 74, 0
1, 9933, Note_on_c, 1, 73, 127
1, 10115, Note_off_c, 1, 59, 0
1, 10115, Note_off_c, 1, 73, 0
1, 10119, Note_on_c, 1, 71, 127
1, 10119, Note_on_c, 1, 61, 127
1, 10301, Note_off_c, 1, 71, 0
1, 10305, Note_on_c, 1, 69, 127
1, 10487, Note_off_c, 1, 61, 0
1, 10487, Note_off_c, 1, 69, 0
1, 10491, Note_on_c, 1, 62, 127
1, 10491, Note_on_c, 1, 78, 127
1, 10673, Note_off_c, 1, 62, 0
1, 10675, Note_on_c, 1, 61, 127
1, 10857, Note_off_c, 1, 61, 0
1, 10859, Note_off_c, 1, 78, 0
1, 10861, Note_on_c, 1, 64, 127
1, 10861, Note_on_c, 1, 68, 127
1, 11043, Note_off_c, 1, 64, 0
1, 11047, Note_on_c, 1, 62, 127
1, 11229, Note_off_c, 1, 68, 0
1, 11229, Note_off_c, 1, 62, 0
1, 11233, Note_on_c, 1, 61, 127
1, 11233, Note_on_c, 1, 69, 127
1, 11415, Note_off_c, 1, 61, 0
1, 11419, Note_on_c, 1, 59, 127
1, 11508, Note_off_c, 1, 69, 0
1, 11511, Note_on_c, 1, 71, 127
1, 11600, Note_off_c, 1, 71, 0
1, 11601, Note_off_c, 1, 59, 0
1, 11605, Note_on_c, 1, 69, 127
1, 11605, Note_on_c, 1, 61, 127
1, 11694, Note_off_c, 1, 69, 0
1, 11697, Note_on_c, 1, 68, 127
1, 11786, Note_off_c, 1, 68, 0
1, 11787, Note_off_c, 1, 61, 0
1, 11790, Note_on_c, 1, 69, 127
1, 11790, Note_on_c, 1, 62, 127
1, 11879, Note_off_c, 1, 69, 0
1, 11883, Note_on_c, 1, 71, 127
1, 11972, Note_off_c, 1, 62, 0
1, 11972, Note_off_c, 1, 71, 0
1, 11975, Note_on_c, 1, 73, 127
1, 11975, Note_on_c, 1, 64, 127
1, 12095, Note_off_c, 1, 73, 0
1, 12099, Note_on_c, 1, 71, 127
1, 12159, Note_off_c, 1, 71, 0
1, 12344, Note_on_c, 1, 52, 127
1, 12529, Note_on_c, 1, 69, 127
1, 12705, Note_off_c, 1, 64, 0
1, 12709, Note_off_c, 1, 69, 0
1, 12711, Note_off_c, 1, 52, 0
1, 12715, Note_on_c, 1, 57, 127
1, 12715, Note_on_c, 1, 69, 127
1, 12897, Note_off_c, 1, 57, 0
1, 12901, Note_on_c, 1, 52, 127
1, 13083, Note_off_c, 1, 52, 0
1, 13085, Note_on_c, 1, 54, 127
1, 13267, Note_off_c, 1, 54, 0
1, 13271, Note_on_c, 1, 56, 127
1, 13453, Note_off_c, 1, 56, 0
1, 13564, Note_off_c, 1, 69, 0
1, 13642, Note_on_c, 1, 59, 127
1, 13824, Note_off_c, 1, 59, 0
1, 13828, Note_on_c, 1, 61, 127
1, 14010, Note_off_c, 1, 61, 0
1, 14015, Note_on_c, 1, 59, 127
1, 14197, Note_off_c, 1, 59, 0
1, 14201, Note_on_c, 1, 62, 127
1, 14201, Note_on_c, 1, 76, 127
1, 14383, Note_off_c, 1, 62, 0
1, 14386, Note_on_c, 1, 61, 127
1, 14562, Note_off_c, 1, 76, 0
1, 14568, Note_off_c, 1, 61, 0
1, 14571, Note_on_c, 1, 59, 127
1, 14571, Note_on_c, 1, 81, 127
1, 14753, Note_off_c, 1, 59, 0
1, 14757, Note_on_c, 1, 57, 127
1, 14939, Note_off_c, 1, 57, 0
1, 14942, Note_on_c, 1, 64, 127
1, 15125, Note_off_c, 1, 81, 0
1, 15128, Note_on_c, 1, 71, 127
1, 15310, Note_off_c, 1, 71, 0
1, 15315, Note_on_c, 1, 73, 127
1, 15315, Note_on_c, 1, 52, 127
1, 15497, Note_off_c, 1, 73, 0
1, 15500, Note_on_c, 1, 75, 127
1, 15682, Note_off_c, 1, 75, 0
1, 15686, Note_on_c, 1, 76, 127
1, 15868, Note_off_c, 1, 76, 0
1, 15869, Note_off_c, 1, 64, 0
1, 15871, Note_off_c, 1, 52, 0
1, 15872, Note_on_c, 1, 78, 127
1, 16054, Note_off_c, 1, 78, 0
1, 16057, Note_on_c, 1, 79, 127
1, 16239, Note_off_c, 1, 79, 0
1, 16242, Note_on_c, 1, 78, 127
1, 16424, Note_off_c, 1, 78, 0
1, 16428, Note_on_c, 1, 81, 127
1, 16428, Note_on_c, 1, 59, 127
1, 16610, Note_off_c, 1, 81, 0
1, 16615, Note_on_c, 1, 79, 127
1, 16796, Note_off_c, 1, 59, 0
1, 16797, Note_off_c, 1, 79, 0
1, 16800, Note_on_c, 1, 78, 127
1, 16800, Note_on_c, 1, 64, 127
1, 16982, Note_off_c, 1, 78, 0
1, 16986, Note_on_c, 1, 76, 127
1, 17168, Note_off_c, 1, 76, 0
1, 17172, Note_on_c, 1, 83, 127
1, 17354, Note_off_c, 1, 64, 0
1, 17356, Note_on_c, 1, 54, 127
1, 17538, Note_off_c, 1, 54, 0
1, 17542, Note_on_c, 1, 56, 127
1, 17542, Note_on_c, 1, 71, 127
1, 17724, Note_off_c, 1, 56, 0
1, 17728, Note_on_c, 1, 58, 127
1, 17910, Note_off_c, 1, 58, 0
1, 17915, Note_on_c, 1, 59, 127
1, 18097, Note_off_c, 1, 59, 0
1, 18100, Note_on_c, 1, 61, 127
1, 18275, Note_off_c, 1, 71, 0
1, 18280, Note_off_c, 1, 61, 0
1, 18282, Note_off_c, 1, 83, 0
1, 18285, Note_on_c, 1, 62, 127
1, 18467, Note_off_c, 1, 62, 0
1, 18471, Note_on_c, 1, 61, 127
1, 18653, Note_off_c, 1, 61, 0
1, 18655, Note_on_c, 1, 64, 127
1, 18655, Note_on_c, 1, 66, 127
1, 18837, Note_off_c, 1, 64, 0
1, 18841, Note_on_c, 1, 62, 127
1, 19023, Note_off_c, 1, 66, 0
1, 19023, Note_off_c, 1, 62, 0
1, 19027, Note_on_c, 1, 71, 127
1, 19027, Note_on_c, 1, 61, 127
1, 19116, Note_off_c, 1, 71, 0
1, 19121, Note_on_c, 1, 70, 127
1, 19209, Note_off_c, 1, 61, 0
1, 19210, Note_off_c, 1, 70, 0
1, 19212, Note_on_c, 1, 59, 127
1, 19212, Note_on_c, 1, 71, 127
1, 19394, Note_off_c, 1, 59, 0
1, 19399, Note_on_c, 1, 66, 127
1, 19580, Note_off_c, 1, 71, 0
1, 19585, Note_on_c, 1, 70, 127
1, 19767, Note_off_c, 1, 70, 0
1, 19770, Note_on_c, 1, 54, 127
1, 19956, Note_on_c, 1, 73, 127
1, 20056, Note_off_c, 1, 66, 0
1, 20138, Note_off_c, 1, 54, 0
1, 20138, Note_off_c, 1, 73, 0
1, 20141, Note_on_c, 1, 74, 127
1, 20141, Note_on_c, 1, 64, 127
1, 20323, Note_off_c, 1, 74, 0
1, 20327, Note_on_c, 1, 76, 127
1, 20509, Note_off_c, 1, 64, 0
1, 20509, Note_off_c, 1, 76, 0
1, 20512, Note_on_c, 1, 78, 127
1, 20512, Note_on_c, 1, 62, 127
1, 20694, Note_off_c, 1, 78, 0
1, 20699, Note_on_c, 1, 76, 127
1, 20880, Note_off_c, 1, 62, 0
1, 20881, Note_off_c, 1, 76, 0
1, 20885, Note_on_c, 1, 71, 127
1, 20885, Note_on_c, 1, 79, 127
1, 21067, Note_off_c, 1, 71, 0
1, 21067, Note_off_c, 1, 79, 0
1, 21070, Note_on_c, 1, 70, 127
1, 21070, Note_on_c, 1, 78, 127
1, 21252, Note_off_c, 1, 70, 0
1, 21252, Note_off_c, 1, 78, 0
1, 21256, Note_on_c, 1, 76, 127
1, 21256, Note_on_c, 1, 71, 127
1, 21438, Note_off_c, 1, 76, 0
1, 21442, Note_on_c, 1, 74, 127
1, 21612, Note_off_c, 1, 71, 0
1, 21624, Note_off_c, 1, 74, 0
1, 21626, Note_on_c, 1, 76, 127
1, 21626, Note_on_c, 1, 61, 127
1, 21808, Note_off_c, 1, 76, 0
1, 21812, Note_on_c, 1, 74, 127
1, 21994, Note_off_c, 1, 61, 0
1, 21994, Note_off_c, 1, 74, 0
1, 21999, Note_on_c, 1, 70, 127
1, 21999, Note_on_c, 1, 78, 127
1, 22181, Note_off_c, 1, 70, 0
1, 22181, Note_off_c, 1, 78, 0
1, 22185, Note_on_c, 1, 68, 127
1, 22185, Note_on_c, 1, 76, 127
1, 22367, Note_off_c, 1, 68, 0
1, 22367, Note_off_c, 1, 76, 0
1, 22370, Note_on_c, 1, 74, 127
1, 22370, Note_on_c, 1, 70, 127
1, 22552, Note_off_c, 1, 74, 0
1, 22556, Note_on_c, 1, 73, 127
1, 22726, Note_off_c, 1, 70, 0
1, 22738, Note_off_c, 1, 73, 0
1, 22742, Note_on_c, 1, 71, 127
1, 22742, Note_on_c, 1, 74, 127
1, 22924, Note_off_c, 1, 71, 0
1, 22924, Note_off_c, 1, 74, 0
1, 22926, Note_on_c, 1, 69, 127
1, 22926, Note_on_c, 1, 73, 127
1, 23108, Note_off_c, 1, 69, 0
1, 23108, Note_off_c, 1, 73, 0
1, 23112, Note_on_c, 1, 67, 127
1, 23112, Note_on_c, 1, 76, 127
1, 23294, Note_off_c, 1, 67, 0
1, 23294, Note_off_c, 1, 76, 0
1, 23299, Note_on_c, 1, 66, 127
1, 23299, Note_on_c, 1, 74, 127
1, 23481, Note_off_c, 1, 66, 0
1, 23481, Note_off_c, 1, 74, 0
1, 23484, Note_on_c, 1, 64, 127
1, 23484, Note_on_c, 1, 73, 127
1, 23666, Note_off_c, 1, 64, 0
1, 23666, Note_off_c, 1, 73, 0
1, 23670, Note_on_c, 1, 62, 127
1, 23670, Note_on_c, 1, 71, 127
1, 23852, Note_off_c, 1, 62, 0
1, 23852, Note_off_c, 1, 71, 0
1, 23856, Note_on_c, 1, 64, 127
1, 23856, Note_on_c, 1, 73, 127
1, 24038, Note_off_c, 1, 64, 0
1, 24042, Note_on_c, 1, 62, 127
1, 24224, Note_off_c, 1, 73, 0
1, 24224, Note_off_c, 1, 62, 0
1, 24227, Note_on_c, 1, 71, 127
1, 24227, Note_on_c, 1, 66, 127
1, 24316, Note_off_c, 1, 71, 0
1, 24320, Note_on_c, 1, 70, 127
1, 24409, Note_off_c, 1, 66, 0
1, 24409, Note_off_c, 1, 70, 0
1, 24412, Note_on_c, 1, 68, 127
1, 24412, Note_on_c, 1, 64, 127
1, 24501, Note_off_c, 1, 68, 0
1, 24506, Note_on_c, 1, 70, 127
1, 24594, Note_off_c, 1, 64, 0
1, 24595, Note_off_c, 1, 70, 0
1, 24599, Note_on_c, 1, 71, 127
1, 24599, Note_on_c, 1, 62, 127
1, 24688, Note_off_c, 1, 71, 0
1, 24692, Note_on_c, 1, 70, 127
1, 24781, Note_off_c, 1, 62, 0
1, 24781, Note_off_c, 1, 70, 0
1, 24784, Note_on_c, 1, 61, 127
1, 24784, Note_on_c, 1, 71, 127
1, 24966, Note_off_c, 1, 61, 0
1, 24970, Note_on_c, 1, 62, 127
1, 25152, Note_off_c, 1, 71, 0
1, 25152, Note_off_c, 1, 62, 0
1, 25156, Note_on_c, 1, 64, 127
1, 25156, Note_on_c, 1, 73, 127
1, 25338, Note_off_c, 1, 64, 0
1, 25338, Note_off_c, 1, 73, 0
1, 25341, Note_on_c, 1, 74, 127
1, 25341, Note_on_c, 1, 66, 127
1, 25461, Note_off_c, 1, 74, 0
1, 25465, Note_on_c, 1, 73, 127
1, 25525, Note_off_c, 1, 73, 0
1, 25707, Note_off_c, 1, 66, 0
1, 25710, Note_on_c, 1, 73, 127
1, 25710, Note_on_c, 1, 54, 127
1, 25892, Note_off_c, 1, 73, 0
1, 25897, Note_on_c, 1, 71, 127
1, 26078, Note_off_c, 1, 54, 0
1, 26079, Note_off_c, 1, 71, 0
1, 26082, Note_on_c, 1, 71, 127
1, 26082, Note_on_c, 1, 59, 127
1, 26264, Note_off_c, 1, 71, 0
1, 26268, Note_on_c, 1, 66, 127
1, 26450, Note_off_c, 1, 59, 0
1, 26450, Note_off_c, 1, 66, 0
1, 26454, Note_on_c, 1, 68, 127
1, 26454, Note_on_c, 1, 54, 127
1, 26636, Note_off_c, 1, 68, 0
1, 26639, Note_on_c, 1, 70, 127
1, 26821, Note_off_c, 1, 70, 0
1, 26822, Note_off_c, 1, 54, 0
1, 26825, Note_on_c, 1, 71, 127
1, 26825, Note_on_c, 1, 50, 127
1, 27007, Note_off_c, 1, 71, 0
1, 27010, Note_on_c, 1, 73, 127
1, 27192, Note_off_c, 1, 73, 0
1, 27193, Note_off_c, 1, 50, 0
1, 27196, Note_on_c, 1, 74, 127
1, 27196, Note_on_c, 1, 47, 127
1, 27378, Note_off_c, 1, 74, 0
1, 27382, Note_on_c, 1, 73, 127
1, 27564, Note_off_c, 1, 73, 0
1, 27568, Note_on_c, 1, 76, 127
1, 27750, Note_off_c, 1, 76, 0
1, 28123, Note_off_c, 1, 47, 0
1, 28125, Note_on_c, 1, 71, 127
1, 28307, Note_off_c, 1, 71, 0
1, 28311, Note_on_c, 1, 79, 127
1, 28387, Note_on_c, 1, 78, 127
1, 28400, Note_off_c, 1, 79, 0
1, 28475, Note_off_c, 1, 78, 0
1, 28494, Note_on_c, 1, 47, 127
1, 28676, Note_off_c, 1, 47, 0
1, 28681, Note_on_c, 1, 49, 127
1, 28863, Note_off_c, 1, 49, 0
1, 28867, Note_on_c, 1, 51, 127
1, 29049, Note_off_c, 1, 51, 0
1, 29052, Note_on_c, 1, 52, 127
1, 29234, Note_off_c, 1, 52, 0
1, 29238, Note_on_c, 1, 54, 127
1, 29420, Note_off_c, 1, 54, 0
1, 29424, Note_on_c, 1, 55, 127
1, 29604, Note_off_c, 1, 55, 0
1, 29609, Note_on_c, 1, 54, 127
1, 29791, Note_off_c, 1, 54, 0
1, 29793, Note_on_c, 1, 57, 127
1, 29975, Note_off_c, 1, 57, 0
1, 29980, Note_on_c, 1, 55, 127
1, 30162, Note_off_c, 1, 55, 0
1, 30166, Note_on_c, 1, 54, 127
1, 30348, Note_off_c, 1, 54, 0
1, 30351, Note_on_c, 1, 52, 127
1, 30533, Note_off_c, 1, 52, 0
1, 30537, Note_on_c, 1, 57, 127
1, 30626, Note_off_c, 1, 57, 0
1, 30630, Note_on_c, 1, 56, 127
1, 30719, Note_off_c, 1, 56, 0
1, 30723, Note_on_c, 1, 64, 127
1, 30723, Note_on_c, 1, 57, 127
1, 30905, Note_off_c, 1, 64, 0
1, 30908, Note_on_c, 1, 66, 127
1, 31090, Note_off_c, 1, 66, 0
1, 31093, Note_on_c, 1, 68, 127
1, 31275, Note_off_c, 1, 68, 0
1, 31280, Note_on_c, 1, 69, 127
1, 31462, Note_off_c, 1, 69, 0
1, 31466, Note_on_c, 1, 71, 127
1, 31648, Note_off_c, 1, 71, 0
1, 31651, Note_on_c, 1, 73, 127
1, 31833, Note_off_c, 1, 73, 0
1, 32023, Note_on_c, 1, 74, 127
1, 32205, Note_off_c, 1, 74, 0
1, 32579, Note_off_c, 1, 57, 0
1, 32580, Note_on_c, 1, 69, 127
1, 32762, Note_off_c, 1, 69, 0
1, 32765, Note_on_c, 1, 78, 127
1, 32854, Note_off_c, 1, 78, 0
1, 32858, Note_on_c, 1, 76, 127
1, 32947, Note_off_c, 1, 76, 0
1, 32951, Note_on_c, 1, 45, 127
1, 32951, Note_on_c, 1, 78, 127
1, 33133, Note_off_c, 1, 45, 0
1, 33137, Note_on_c, 1, 47, 127
1, 33319, Note_off_c, 1, 47, 0
1, 33323, Note_on_c, 1, 49, 127
1, 33505, Note_off_c, 1, 49, 0
1, 33508, Note_on_c, 1, 50, 127
1, 33690, Note_off_c, 1, 50, 0
1, 33694, Note_on_c, 1, 52, 127
1, 33876, Note_off_c, 1, 52, 0
1, 33881, Note_on_c, 1, 54, 127
1, 34063, Note_off_c, 1, 54, 0
1, 34251, Note_on_c, 1, 55, 127
1, 34433, Note_off_c, 1, 55, 0
1, 34981, Note_off_c, 1, 78, 0
1, 34994, Note_on_c, 1, 56, 127
1, 35180, Note_on_c, 1, 71, 127
1, 35362, Note_off_c, 1, 71, 0
1, 35364, Note_on_c, 1, 76, 127
1, 35546, Note_off_c, 1, 76, 0
1, 35547, Note_off_c, 1, 56, 0
1, 35550, Note_on_c, 1, 52, 127
1, 35550, Note_on_c, 1, 74, 127
1, 35732, Note_off_c, 1, 52, 0
1, 35732, Note_off_c, 1, 74, 0
1, 35736, Note_on_c, 1, 54, 127
1, 35736, Note_on_c, 1, 73, 127
1, 35918, Note_off_c, 1, 54, 0
1, 35918, Note_off_c, 1, 73, 0
1, 35921, Note_on_c, 1, 56, 127
1, 35921, Note_on_c, 1, 71, 127
1, 36103, Note_off_c, 1, 56, 0
1, 36103, Note_off_c, 1, 71, 0
1, 36107, Note_on_c, 1, 57, 127
1, 36107, Note_on_c, 1, 73, 127
1, 36289, Note_off_c, 1, 57, 0
1, 36289, Note_off_c, 1, 73, 0
1, 36293, Note_on_c, 1, 56, 127
1, 36293, Note_on_c, 1, 71, 127
1, 36475, Note_off_c, 1, 56, 0
1, 36475, Note_off_c, 1, 71, 0
1, 36479, Note_on_c, 1, 54, 127
1, 36479, Note_on_c, 1, 74, 127
1, 36661, Note_off_c, 1, 54, 0
1, 36661, Note_off_c, 1, 74, 0
1, 36664, Note_on_c, 1, 52, 127
1, 36664, Note_on_c, 1, 73, 127
1, 36846, Note_off_c, 1, 52, 0
1, 36846, Note_off_c, 1, 73, 0
1, 36850, Note_on_c, 1, 50, 127
1, 36850, Note_on_c, 1, 71, 127
1, 37032, Note_off_c, 1, 50, 0
1, 37032, Note_off_c, 1, 71, 0
1, 37036, Note_on_c, 1, 54, 127
1, 37036, Note_on_c, 1, 69, 127
1, 37218, Note_off_c, 1, 54, 0
1, 37218, Note_off_c, 1, 69, 0
1, 37221, Note_on_c, 1, 52, 127
1, 37221, Note_on_c, 1, 68, 127
1, 37403, Note_off_c, 1, 52, 0
1, 37407, Note_on_c, 1, 50, 127
1, 37466, Note_off_c, 1, 68, 0
1, 37470, Note_on_c, 1, 66, 127
1, 37589, Note_off_c, 1, 50, 0
1, 37590, Note_off_c, 1, 66, 0
1, 37593, Note_on_c, 1, 49, 127
1, 37593, Note_on_c, 1, 64, 127
1, 37775, Note_off_c, 1, 49, 0
1, 37779, Note_on_c, 1, 47, 127
1, 37900, Note_off_c, 1, 64, 0
1, 37961, Note_off_c, 1, 47, 0
1, 37965, Note_on_c, 1, 49, 127
1, 37965, Note_on_c, 1, 69, 127
1, 38147, Note_off_c, 1, 49, 0
1, 38147, Note_off_c, 1, 69, 0
1, 38150, Note_on_c, 1, 45, 127
1, 38150, Note_on_c, 1, 71, 127
1, 38332, Note_off_c, 1, 45, 0
1, 38332, Note_off_c, 1, 71, 0
1, 38335, Note_on_c, 1, 73, 127
1, 38335, Note_on_c, 1, 57, 127
1, 38517, Note_off_c, 1, 73, 0
1, 38521, Note_on_c, 1, 71, 127
1, 38703, Note_off_c, 1, 57, 0
1, 38703, Note_off_c, 1, 71, 0
1, 38707, Note_on_c, 1, 74, 127
1, 38707, Note_on_c, 1, 54, 127
1, 38889, Note_off_c, 1, 74, 0
1, 38893, Note_on_c, 1, 73, 127
1, 39075, Note_off_c, 1, 54, 0
1, 39075, Note_off_c, 1, 73, 0
1, 39079, Note_on_c, 1, 71, 127
1, 39079, Note_on_c, 1, 49, 127
1, 39261, Note_off_c, 1, 71, 0
1, 39265, Note_on_c, 1, 69, 127
1, 39447, Note_off_c, 1, 49, 0
1, 39447, Note_off_c, 1, 69, 0
1, 39451, Note_on_c, 1, 50, 127
1, 39451, Note_on_c, 1, 78, 127
1, 39633, Note_off_c, 1, 50, 0
1, 39635, Note_on_c, 1, 49, 127
1, 39817, Note_off_c, 1, 49, 0
1, 39821, Note_on_c, 1, 52, 127
1, 40003, Note_off_c, 1, 52, 0
1, 40005, Note_off_c, 1, 78, 0
1, 40007, Note_on_c, 1, 50, 127
1, 40007, Note_on_c, 1, 68, 127
1, 40189, Note_off_c, 1, 50, 0
1, 40189, Note_off_c, 1, 68, 0
1, 40192, Note_on_c, 1, 49, 127
1, 40192, Note_on_c, 1, 69, 127
1, 40374, Note_off_c, 1, 49, 0
1, 40374, Note_off_c, 1, 69, 0
1, 40379, Note_on_c, 1, 47, 127
1, 40379, Note_on_c, 1, 68, 127
1, 40561, Note_off_c, 1, 47, 0
1, 40561, Note_off_c, 1, 68, 0
1, 40565, Note_on_c, 1, 49, 127
1, 40565, Note_on_c, 1, 69, 127
1, 40747, Note_off_c, 1, 49, 0
1, 40747, Note_off_c, 1, 69, 0
1, 40751, Note_on_c, 1, 50, 127
1, 40751, Note_on_c, 1, 74, 127
1, 40933, Note_off_c, 1, 50, 0
1, 40933, Note_off_c, 1, 74, 0
1, 40935, Note_on_c, 1, 73, 127
1, 40935, Note_on_c, 1, 52, 127
1, 41055, Note_off_c, 1, 73, 0
1, 41059, Note_on_c, 1, 71, 127
1, 41119, Note_off_c, 1, 71, 0
1, 41301, Note_off_c, 1, 52, 0
1, 41305, Note_on_c, 1, 71, 127
1, 41305, Note_on_c, 1, 40, 127
1, 41487, Note_off_c, 1, 71, 0
1, 41490, Note_on_c, 1, 69, 127
1, 41672, Note_off_c, 1, 69, 0
1, 41673, Note_off_c, 1, 40, 0
1, 41676, Note_on_c, 1, 45, 127
1, 41676, Note_on_c, 1, 69, 127
1, 41858, Note_off_c, 1, 45, 0
1, 41863, Note_on_c, 1, 49, 127
1, 42045, Note_off_c, 1, 49, 0
1, 42048, Note_on_c, 1, 50, 127
1, 42230, Note_off_c, 1, 69, 0
1, 42230, Note_off_c, 1, 50, 0
1, 42233, Note_on_c, 1, 52, 127
1, 42233, Note_on_c, 1, 73, 127
1, 42415, Note_off_c, 1, 52, 0
1, 42415, Note_off_c, 1, 73, 0
1, 42419, Note_on_c, 1, 54, 127
1, 42419, Note_on_c, 1, 74, 127
1, 42601, Note_off_c, 1, 54, 0
1, 42601, Note_off_c, 1, 74, 0
1, 42605, Note_on_c, 1, 55, 127
1, 42605, Note_on_c, 1, 76, 127
1, 42787, Note_off_c, 1, 55, 0
1, 42787, Note_off_c, 1, 76, 0
1, 42790, Note_on_c, 1, 57, 127
1, 42790, Note_on_c, 1, 66, 127
1, 42972, Note_off_c, 1, 57, 0
1, 42976, Note_on_c, 1, 55, 127
1, 43158, Note_off_c, 1, 66, 0
1, 43158, Note_off_c, 1, 55, 0
1, 43163, Note_on_c, 1, 59, 127
1, 43163, Note_on_c, 1, 67, 127
1, 43345, Note_off_c, 1, 59, 0
1, 43348, Note_on_c, 1, 57, 127
1, 43530, Note_off_c, 1, 57, 0
1, 43531, Note_off_c, 1, 67, 0
1, 43534, Note_on_c, 1, 71, 127
1, 43534, Note_on_c, 1, 55, 127
1, 43623, Note_off_c, 1, 71, 0
1, 43626, Note_on_c, 1, 69, 127
1, 43715, Note_off_c, 1, 69, 0
1, 43716, Note_off_c, 1, 55, 0
1, 43719, Note_on_c, 1, 67, 127
1, 43719, Note_on_c, 1, 54, 127
1, 43808, Note_off_c, 1, 67, 0
1, 43813, Note_on_c, 1, 69, 127
1, 43901, Note_off_c, 1, 54, 0
1, 43902, Note_off_c, 1, 69, 0
1, 43904, Note_on_c, 1, 55, 127
1, 43904, Note_on_c, 1, 71, 127
1, 44086, Note_off_c, 1, 55, 0
1, 44090, Note_on_c, 1, 54, 127
1, 44272, Note_off_c, 1, 71, 0
1, 44272, Note_off_c, 1, 54, 0
1, 44276, Note_on_c, 1, 74, 127
1, 44276, Note_on_c, 1, 57, 127
1, 44365, Note_off_c, 1, 74, 0
1, 44369, Note_on_c, 1, 73, 127
1, 44458, Note_off_c, 1, 57, 0
1, 44458, Note_off_c, 1, 73, 0
1, 44463, Note_on_c, 1, 71, 127
1, 44463, Note_on_c, 1, 55, 127
1, 44552, Note_off_c, 1, 71, 0
1, 44554, Note_on_c, 1, 73, 127
1, 44643, Note_off_c, 1, 73, 0
1, 44645, Note_off_c, 1, 55, 0
1, 44648, Note_on_c, 1, 54, 127
1, 44648, Note_on_c, 1, 74, 127
1, 44830, Note_off_c, 1, 54, 0
1, 44834, Note_on_c, 1, 52, 127
1, 45016, Note_off_c, 1, 52, 0
1, 45202, Note_off_c, 1, 74, 0
1, 45204, Note_on_c, 1, 52, 127
1, 45204, Note_on_c, 1, 73, 127
1, 45386, Note_off_c, 1, 52, 0
1, 45386, Note_off_c, 1, 73, 0
1, 45390, Note_on_c, 1, 55, 127
1, 45390, Note_on_c, 1, 76, 127
1, 45572, Note_off_c, 1, 55, 0
1, 45572, Note_off_c, 1, 76, 0
1, 45576, Note_on_c, 1, 54, 127
1, 45576, Note_on_c, 1, 74, 127
1, 45758, Note_off_c, 1, 54, 0
1, 45758, Note_off_c, 1, 74, 0
1, 45762, Note_on_c, 1, 52, 127
1, 45762, Note_on_c, 1, 73, 127
1, 45944, Note_off_c, 1, 52, 0
1, 45944, Note_off_c, 1, 73, 0
1, 45948, Note_on_c, 1, 50, 127
1, 45948, Note_on_c, 1, 74, 127
1, 46130, Note_off_c, 1, 50, 0
1, 46130, Note_off_c, 1, 74, 0
1, 46134, Note_on_c, 1, 76, 127
1, 46134, Note_on_c, 1, 57, 127
1, 46316, Note_off_c, 1, 76, 0
1, 46320, Note_on_c, 1, 74, 127
1, 46502, Note_off_c, 1, 74, 0
1, 46504, Note_on_c, 1, 73, 127
1, 46504, Note_on_c, 1, 45, 127
1, 46686, Note_off_c, 1, 73, 0
1, 46690, Note_on_c, 1, 71, 127
1, 46872, Note_off_c, 1, 71, 0
1, 46876, Note_on_c, 1, 69, 127
1, 47042, Note_off_c, 1, 45, 0
1, 47056, Note_off_c, 1, 69, 0
1, 47060, Note_off_c, 1, 57, 0
1, 47061, Note_on_c, 1, 67, 127
1, 47243, Note_off_c, 1, 67, 0
1, 47247, Note_on_c, 1, 66, 127
1, 47429, Note_off_c, 1, 66, 0
1, 47433, Note_on_c, 1, 64, 127
1, 47615, Note_off_c, 1, 64, 0
1, 47618, Note_on_c, 1, 67, 127
1, 47800, Note_off_c, 1, 67, 0
1, 47803, Note_on_c, 1, 66, 127
1, 47985, Note_off_c, 1, 66, 0
1, 47989, Note_on_c, 1, 64, 127
1, 48171, Note_off_c, 1, 64, 0
1, 48175, Note_on_c, 1, 62, 127
1, 48357, Note_off_c, 1, 62, 0
1, 48361, Note_on_c, 1, 69, 127
1, 48543, Note_off_c, 1, 69, 0
1, 48547, Note_on_c, 1, 67, 127
1, 48729, Note_off_c, 1, 67, 0
1, 48733, Note_on_c, 1, 66, 127
1, 48915, Note_off_c, 1, 66, 0
1, 48918, Note_on_c, 1, 64, 127
1, 49100, Note_off_c, 1, 64, 0
1, 49104, Note_on_c, 1, 50, 127
1, 49104, Note_on_c, 1, 66, 127
1, 49286, Note_off_c, 1, 50, 0
1, 49286, Note_off_c, 1, 66, 0
1, 49289, Note_on_c, 1, 52, 127
1, 49289, Note_on_c, 1, 62, 127
1, 49471, Note_off_c, 1, 52, 0
1, 49471, Note_off_c, 1, 62, 0
1, 49474, Note_on_c, 1, 54, 127
1, 49474, Note_on_c, 1, 69, 127
1, 49656, Note_off_c, 1, 54, 0
1, 49661, Note_on_c, 1, 52, 127
1, 49842, Note_off_c, 1, 69, 0
1, 49843, Note_off_c, 1, 52, 0
1, 49847, Note_on_c, 1, 55, 127
1, 49847, Note_on_c, 1, 71, 127
1, 50029, Note_off_c, 1, 55, 0
1, 50033, Note_on_c, 1, 54, 127
1, 50215, Note_off_c, 1, 71, 0
1, 50215, Note_off_c, 1, 54, 0
1, 50218, Note_on_c, 1, 73, 127
1, 50218, Note_on_c, 1, 52, 127
1, 50307, Note_off_c, 1, 73, 0
1, 50311, Note_on_c, 1, 71, 127
1, 50400, Note_off_c, 1, 52, 0
1, 50400, Note_off_c, 1, 71, 0
1, 50404, Note_on_c, 1, 73, 127
1, 50404, Note_on_c, 1, 50, 127
1, 50493, Note_off_c, 1, 73, 0
1, 50497, Note_on_c, 1, 74, 127
1, 50586, Note_off_c, 1, 50, 0
1, 50586, Note_off_c, 1, 74, 0
1, 50589, Note_on_c, 1, 57, 127
1, 50589, Note_on_c, 1, 73, 127
1, 50771, Note_off_c, 1, 57, 0
1, 50774, Note_on_c, 1, 55, 127
1, 50834, Note_off_c, 1, 73, 0
1, 50838, Note_on_c, 1, 71, 127
1, 50956, Note_off_c, 1, 55, 0
1, 50958, Note_off_c, 1, 71, 0
1, 50961, Note_on_c, 1, 54, 127
1, 50961, Note_on_c, 1, 69, 127
1, 51143, Note_off_c, 1, 54, 0
1, 51147, Note_on_c, 1, 52, 127
1, 51289, Note_off_c, 1, 69, 0
1, 51329, Note_off_c, 1, 52, 0
1, 51332, Note_on_c, 1, 54, 127
1, 51332, Note_on_c, 1, 74, 127
1, 51514, Note_off_c, 1, 54, 0
1, 51518, Note_on_c, 1, 50, 127
1, 51700, Note_off_c, 1, 74, 0
1, 51700, Note_off_c, 1, 50, 0
1, 51704, Note_on_c, 1, 57, 127
1, 51704, Note_on_c, 1, 74, 127
1, 51886, Note_off_c, 1, 57, 0
1, 51890, Note_on_c, 1, 54, 127
1, 52072, Note_off_c, 1, 54, 0
1, 52074, Note_on_c, 1, 59, 127
1, 52074, Note_on_c, 1, 62, 127
1, 52256, Note_off_c, 1, 59, 0
1, 52261, Note_on_c, 1, 55, 127
1, 52437, Note_off_c, 1, 74, 0
1, 52441, Note_off_c, 1, 55, 0
1, 52631, Note_on_c, 1, 52, 127
1, 52813, Note_off_c, 1, 52, 0
1, 53184, Note_off_c, 1, 62, 0
1, 53558, Note_on_c, 1, 50, 127
1, 53740, Note_off_c, 1, 50, 0
1, 53744, Note_on_c, 1, 49, 127
1, 53924, Note_off_c, 1, 49, 0
1, 53929, Note_on_c, 1, 57, 127
1, 53929, Note_on_c, 1, 74, 127
1, 54111, Note_off_c, 1, 57, 0
1, 54115, Note_on_c, 1, 54, 127
1, 54297, Note_off_c, 1, 74, 0
1, 54297, Note_off_c, 1, 54, 0
1, 54301, Note_on_c, 1, 59, 127
1, 54301, Note_on_c, 1, 62, 127
1, 54483, Note_off_c, 1, 59, 0
1, 54486, Note_on_c, 1, 55, 127
1, 54647, Note_off_c, 1, 62, 0
1, 54666, Note_off_c, 1, 55, 0
1, 54670, Note_on_c, 1, 54, 127
1, 54670, Note_on_c, 1, 74, 127
1, 54852, Note_off_c, 1, 54, 0
1, 54856, Note_on_c, 1, 52, 127
1, 55038, Note_off_c, 1, 74, 0
1, 55038, Note_off_c, 1, 52, 0
1, 55042, Note_on_c, 1, 57, 127
1, 55042, Note_on_c, 1, 74, 127
1, 55224, Note_off_c, 1, 57, 0
1, 55228, Note_on_c, 1, 54, 127
1, 55410, Note_off_c, 1, 74, 0
1, 55410, Note_off_c, 1, 54, 0
1, 55414, Note_on_c, 1, 55, 127
1, 55414, Note_on_c, 1, 62, 127
1, 55596, Note_off_c, 1, 55, 0
1, 55599, Note_on_c, 1, 52, 127
1, 55691, Note_off_c, 1, 62, 0
1, 55781, Note_off_c, 1, 52, 0
1, 55785, Note_on_c, 1, 50, 127
1, 55785, Note_on_c, 1, 74, 127
1, 55967, Note_off_c, 1, 50, 0
1, 55967, Note_off_c, 1, 74, 0
1, 55970, Note_on_c, 1, 49, 127
1, 55970, Note_on_c, 1, 76, 127
1, 56152, Note_off_c, 1, 49, 0
1, 56152, Note_off_c, 1, 76, 0
1, 56156, Note_on_c, 1, 78, 127
1, 56156, Note_on_c, 1, 50, 127
1, 56338, Note_off_c, 1, 78, 0
1, 56342, Note_on_c, 1, 76, 127
1, 56524, Note_off_c, 1, 50, 0
1, 56524, Note_off_c, 1, 76, 0
1, 56528, Note_on_c, 1, 79, 127
1, 56528, Note_on_c, 1, 52, 127
1, 56710, Note_off_c, 1, 79, 0
1, 56714, Note_on_c, 1, 78, 127
1, 56896, Note_off_c, 1, 52, 0
1, 56896, Note_off_c, 1, 78, 0
1, 56899, Note_on_c, 1, 76, 127
1, 56899, Note_on_c, 1, 54, 127
1, 57081, Note_off_c, 1, 76, 0
1, 57085, Note_on_c, 1, 74, 127
1, 57267, Note_off_c, 1, 54, 0
1, 57267, Note_off_c, 1, 74, 0
1, 57271, Note_on_c, 1, 55, 127
1, 57271, Note_on_c, 1, 83, 127
1, 57453, Note_off_c, 1, 55, 0
1, 57455, Note_on_c, 1, 54, 127
1, 57637, Note_off_c, 1, 54, 0
1, 57639, Note_off_c, 1, 83, 0
1, 57642, Note_on_c, 1, 57, 127
1, 57642, Note_on_c, 1, 73, 127
1, 57824, Note_off_c, 1, 57, 0
1, 57828, Note_on_c, 1, 55, 127
1, 58010, Note_off_c, 1, 73, 0
1, 58010, Note_off_c, 1, 55, 0
1, 58014, Note_on_c, 1, 54, 127
1, 58014, Note_on_c, 1, 74, 127
1, 58196, Note_off_c, 1, 54, 0
1, 58199, Note_on_c, 1, 52, 127
1, 58289, Note_off_c, 1, 74, 0
1, 58292, Note_on_c, 1, 76, 127
1, 58381, Note_off_c, 1, 52, 0
1, 58381, Note_off_c, 1, 76, 0
1, 58385, Note_on_c, 1, 74, 127
1, 58385, Note_on_c, 1, 54, 127
1, 58474, Note_off_c, 1, 74, 0
1, 58478, Note_on_c, 1, 73, 127
1, 58567, Note_off_c, 1, 54, 0
1, 58567, Note_off_c, 1, 73, 0
1, 58571, Note_on_c, 1, 74, 127
1, 58571, Note_on_c, 1, 55, 127
1, 58660, Note_off_c, 1, 74, 0
1, 58664, Note_on_c, 1, 76, 127
1, 58753, Note_off_c, 1, 55, 0
1, 58753, Note_off_c, 1, 76, 0
1, 58755, Note_on_c, 1, 78, 127
1, 58755, Note_on_c, 1, 57, 127
1, 58875, Note_off_c, 1, 78, 0
1, 58880, Note_on_c, 1, 76, 127
1, 58940, Note_off_c, 1, 76, 0
1, 59121, Note_off_c, 1, 57, 0
1, 59126, Note_on_c, 1, 76, 127
1, 59126, Note_on_c, 1, 45, 127
1, 59308, Note_off_c, 1, 76, 0
1, 59311, Note_on_c, 1, 74, 127
1, 59493, Note_off_c, 1, 74, 0
1, 59494, Note_off_c, 1, 45, 0
1, 59497, Note_on_c, 1, 47, 127
1, 59497, Note_on_c, 1, 74, 127
1, 59681, Note_off_c, 1, 47, 0
1, 59685, Note_on_c, 1, 45, 127
1, 59809, Note_off_c, 1, 74, 0
1, 59870, Note_off_c, 1, 45, 0
1, 59874, Note_on_c, 1, 48, 127
1, 59874, Note_on_c, 1, 62, 127
1, 60058, Note_off_c, 1, 48, 0
1, 60062, Note_on_c, 1, 47, 127
1, 60206, Note_off_c, 1, 62, 0
1, 60247, Note_off_c, 1, 47, 0
1, 60251, Note_on_c, 1, 45, 127
1, 60251, Note_on_c, 1, 67, 127
1, 60435, Note_off_c, 1, 45, 0
1, 60439, Note_on_c, 1, 43, 127
1, 60623, Note_off_c, 1, 43, 0
1, 60626, Note_on_c, 1, 50, 127
1, 60811, Note_off_c, 1, 67, 0
1, 60815, Note_on_c, 1, 57, 127
1, 60999, Note_off_c, 1, 57, 0
1, 61003, Note_on_c, 1, 59, 127
1, 61187, Note_off_c, 1, 59, 0
1, 61191, Note_on_c, 1, 61, 127
1, 61375, Note_off_c, 1, 61, 0
1, 61377, Note_on_c, 1, 62, 127
1, 61561, Note_off_c, 1, 62, 0
1, 61565, Note_on_c, 1, 64, 127
1, 61749, Note_off_c, 1, 64, 0
1, 61750, Note_off_c, 1, 50, 0
1, 61754, Note_on_c, 1, 66, 127
1, 61938, Note_off_c, 1, 66, 0
1, 61942, Note_on_c, 1, 49, 127
1, 61942, Note_on_c, 1, 64, 127
1, 62126, Note_off_c, 1, 49, 0
1, 62126, Note_off_c, 1, 64, 0
1, 62129, Note_on_c, 1, 47, 127
1, 62129, Note_on_c, 1, 67, 127
1, 62313, Note_off_c, 1, 47, 0
1, 62313, Note_off_c, 1, 67, 0
1, 62317, Note_on_c, 1, 45, 127
1, 62317, Note_on_c, 1, 66, 127
1, 62501, Note_off_c, 1, 45, 0
1, 62501, Note_off_c, 1, 66, 0
1, 62506, Note_on_c, 1, 43, 127
1, 62506, Note_on_c, 1, 64, 127
1, 62690, Note_off_c, 1, 43, 0
1, 62690, Note_off_c, 1, 64, 0
1, 62693, Note_on_c, 1, 42, 127
1, 62693, Note_on_c, 1, 62, 127
1, 62877, Note_off_c, 1, 42, 0
1, 62877, Note_off_c, 1, 62, 0
1, 62881, Note_on_c, 1, 43, 127
1, 62881, Note_on_c, 1, 71, 127
1, 63074, Note_off_c, 1, 43, 0
1, 63078, Note_on_c, 1, 42, 127
1, 63271, Note_off_c, 1, 42, 0
1, 63275, Note_on_c, 1, 45, 127
1, 63467, Note_off_c, 1, 71, 0
1, 63468, Note_off_c, 1, 45, 0
1, 63472, Note_on_c, 1, 43, 127
1, 63472, Note_on_c, 1, 61, 127
1, 63665, Note_off_c, 1, 43, 0
1, 63665, Note_off_c, 1, 61, 0
1, 63667, Note_on_c, 1, 42, 127
1, 63667, Note_on_c, 1, 62, 127
1, 63860, Note_off_c, 1, 42, 0
1, 63860, Note_off_c, 1, 62, 0
1, 63864, Note_on_c, 1, 40, 127
1, 63864, Note_on_c, 1, 61, 127
1, 64057, Note_off_c, 1, 40, 0
1, 64057, Note_off_c, 1, 61, 0
1, 64061, Note_on_c, 1, 42, 127
1, 64061, Note_on_c, 1, 62, 127
1, 64254, Note_off_c, 1, 42, 0
1, 64254, Note_off_c, 1, 62, 0
1, 64258, Note_on_c, 1, 43, 127
1, 64258, Note_on_c, 1, 67, 127
1, 64451, Note_off_c, 1, 43, 0
1, 64451, Note_off_c, 1, 67, 0
1, 64455, Note_on_c, 1, 66, 127
1, 64455, Note_on_c, 1, 45, 127
1, 64603, Note_off_c, 1, 66, 0
1, 64606, Note_on_c, 1, 64, 127
1, 64680, Note_off_c, 1, 64, 0
1, 65141, Note_on_c, 1, 62, 127
1, 65366, Note_off_c, 1, 45, 0
1, 65366, Note_off_c, 1, 62, 0
1, 65386, Note_on_c, 1, 62, 127
1, 65386, Note_on_c, 1, 38, 127
1, 67351, Note_off_c, 1, 62, 0
1, 67351, Note_off_c, 1, 38, 0
1, 67351, End_track
0, 0, End_of_file