0, 0, Header, 1, 1, 480
1, 0, Start_track
1, 0, Title_t, "Test"
1, 0, Tempo, 500000
1, 0, Instrument_name_t, "Church Organ"
1, 0, Note_on_c, 1, 57, 127
1, 384, Note_off_c, 1, 57, 0
1, 480, Note_on_c, 1, 60, 127
1, 864, Note_off_c, 1, 60, 0
1, 960, Note_on_c, 1, 57, 127
1, 1080, Note_on_c, 1, 60, 127
1, 1176, Note_off_c, 1, 60, 0
1, 1200, Note_on_c, 1, 62, 127
1, 1296, Note_off_c, 1, 62, 0
1, 1320, Note_on_c, 1, 64, 127
1, 1344, Note_off_c, 1, 57, 0
1, 1416, Note_off_c, 1, 64, 0
1, 1440, Note_on_c, 1, 65, 127
1, 1440, Note_on_c, 1, 57, 127
1, 1536, Note_off_c, 1, 65, 0
1, 1560, Note_on_c, 1, 67, 127
1, 1656, Note_off_c, 1, 67, 0
1, 1680, Note_on_c, 1, 69, 127
1, 1776, Note_off_c, 1, 69, 0
1, 1824, Note_off_c, 1, 57, 0
1, 1920, Note_on_c, 1, 62, 127
1, 1920, Note_on_c, 1, 58, 127
1, 2112, Note_off_c, 1, 62, 0
1, 2160, Note_on_c, 1, 67, 127
1, 2304, Note_off_c, 1, 58, 0
1, 2352, Note_off_c, 1, 67, 0
1, 2400, Note_on_c, 1, 60, 127
1, 2400, Note_on_c, 1, 57, 127
1, 2592, Note_off_c, 1, 60, 0
1, 2640, Note_on_c, 1, 65, 127
1, 2784, Note_off_c, 1, 57, 0
1, 2832, Note_off_c, 1, 65, 0
1, 2880, Note_on_c, 1, 65, 127
1, 2880, Note_on_c, 1, 55, 127
1, 3072, Note_off_c, 1, 65, 0
1, 3120, Note_on_c, 1, 64, 127
1, 3216, Note_off_c, 1, 64, 0
1, 3240, Note_on_c, 1, 62, 127
1, 3336, Note_off_c, 1, 62, 0
1, 3648, Note_off_c, 1, 55, 0
1, 3840, Note_on_c, 1, 53, 127
1, 4416, Note_off_c, 1, 53, 0
1, 4800, Note_on_c, 1, 57, 127
1, 4992, Note_off_c, 1, 57, 0
1, 5040, Note_on_c, 1, 52, 127
1, 5232, Note_off_c, 1, 52, 0
1, 5280, Note_on_c, 1, 60, 127
1, 5280, Note_on_c, 1, 57, 127
1, 5472, Note_off_c, 1, 57, 0
1, 5520, Note_on_c, 1, 55, 127
1, 5712, Note_off_c, 1, 55, 0
1, 5760, Note_on_c, 1, 54, 127
1, 5952, Note_off_c, 1, 60, 0
1, 5952, Note_off_c, 1, 54, 0
1, 6000, Note_on_c, 1, 58, 127
1, 6000, Note_on_c, 1, 50, 127
1, 6096, Note_off_c, 1, 58, 0
1, 6120, Note_on_c, 1, 57, 127
1, 6192, Note_off_c, 1, 50, 0
1, 6216, Note_off_c, 1, 57, 0
1, 6240, Note_on_c, 1, 58, 127
1, 6240, Note_on_c, 1, 55, 127
1, 6432, Note_off_c, 1, 58, 0
1, 6480, Note_on_c, 1, 60, 127
1, 6576, Note_off_c, 1, 60, 0
1, 6720, Note_on_c, 1, 57, 127
1, 6912, Note_off_c, 1, 55, 0
1, 6960, Note_on_c, 1, 53, 127
1, 7056, Note_off_c, 1, 53, 0
1, 7080, Note_on_c, 1, 52, 127
1, 7104, Note_off_c, 1, 57, 0
1, 7176, Note_off_c, 1, 52, 0
1, 7200, Note_on_c, 1, 62, 127
1, 7200, Note_on_c, 1, 53, 127
1, 7392, Note_off_c, 1, 53, 0
1, 7440, Note_on_c, 1, 55, 127
1, 7536, Note_off_c, 1, 55, 0
1, 7680, Note_on_c, 1, 52, 127
1, 7872, Note_off_c, 1, 62, 0
1, 7920, Note_on_c, 1, 61, 127
1, 8016, Note_off_c, 1, 61, 0
1, 8040, Note_on_c, 1, 59, 127
1, 8064, Note_off_c, 1, 52, 0
1, 8136, Note_off_c, 1, 59, 0
1, 8160, Note_on_c, 1, 61, 127
1, 8160, Note_on_c, 1, 57, 127
1, 8352, Note_off_c, 1, 61, 0
1, 8400, Note_on_c, 1, 62, 127
1, 8496, Note_off_c, 1, 62, 0
1, 8520, Note_on_c, 1, 64, 127
1, 8544, Note_off_c, 1, 57, 0
1, 8616, Note_off_c, 1, 64, 0
1, 8640, Note_on_c, 1, 69, 127
1, 8640, Note_on_c, 1, 50, 127
1, 8640, Note_on_c, 1, 65, 127
1, 8736, Note_off_c, 1, 50, 0
1, 8760, Note_on_c, 1, 53, 127
1, 8856, Note_off_c, 1, 53, 0
1, 8880, Note_on_c, 1, 52, 127
1, 8976, Note_off_c, 1, 52, 0
1, 9024, Note_off_c, 1, 69, 0
1, 9024, Note_off_c, 1, 65, 0
1, 9120, Note_on_c, 1, 72, 127
1, 9120, Note_on_c, 1, 48, 127
1, 9120, Note_on_c, 1, 64, 127
1, 9216, Note_off_c, 1, 48, 0
1, 9240, Note_on_c, 1, 46, 127
1, 9336, Note_off_c, 1, 46, 0
1, 9360, Note_on_c, 1, 45, 127
1, 9456, Note_off_c, 1, 45, 0
1, 9504, Note_off_c, 1, 72, 0
1, 9600, Note_on_c, 1, 69, 127
1, 9600, Note_on_c, 1, 41, 127
1, 9696, Note_off_c, 1, 41, 0
1, 9792, Note_off_c, 1, 64, 0
1, 9840, Note_on_c, 1, 62, 127
1, 9840, Note_on_c, 1, 47, 127
1, 9936, Note_off_c, 1, 62, 0
1, 9936, Note_off_c, 1, 47, 0
1, 9960, Note_on_c, 1, 49, 127
1, 9984, Note_off_c, 1, 69, 0
1, 10056, Note_off_c, 1, 49, 0
1, 10080, Note_on_c, 1, 69, 127
1, 10080, Note_on_c, 1, 50, 127
1, 10080, Note_on_c, 1, 65, 127
1, 10176, Note_off_c, 1, 50, 0
1, 10200, Note_on_c, 1, 52, 127
1, 10272, Note_off_c, 1, 65, 0
1, 10296, Note_off_c, 1, 52, 0
1, 10320, Note_on_c, 1, 53, 127
1, 10320, Note_on_c, 1, 62, 127
1, 10416, Note_off_c, 1, 53, 0
1, 10464, Note_off_c, 1, 69, 0
1, 10560, Note_on_c, 1, 70, 127
1, 10560, Note_on_c, 1, 55, 127
1, 10656, Note_off_c, 1, 55, 0
1, 10752, Note_off_c, 1, 62, 0
1, 10800, Note_on_c, 1, 67, 127
1, 10944, Note_off_c, 1, 70, 0
1, 10992, Note_off_c, 1, 67, 0
1, 11040, Note_on_c, 1, 69, 127
1, 11040, Note_on_c, 1, 53, 127
1, 11040, Note_on_c, 1, 60, 127
1, 11136, Note_off_c, 1, 53, 0
1, 11160, Note_on_c, 1, 52, 127
1, 11232, Note_off_c, 1, 60, 0
1, 11256, Note_off_c, 1, 52, 0
1, 11280, Note_on_c, 1, 50, 127
1, 11280, Note_on_c, 1, 65, 127
1, 11376, Note_off_c, 1, 50, 0
1, 11424, Note_off_c, 1, 69, 0
1, 11520, Note_on_c, 1, 67, 127
1, 11520, Note_on_c, 1, 47, 127
1, 11616, Note_off_c, 1, 47, 0
1, 11712, Note_off_c, 1, 65, 0
1, 11760, Note_on_c, 1, 49, 127
1, 11760, Note_on_c, 1, 64, 127
1, 11856, Note_off_c, 1, 49, 0
1, 11856, Note_off_c, 1, 64, 0
1, 11880, Note_on_c, 1, 62, 127
1, 11976, Note_off_c, 1, 62, 0
1, 12240, Note_on_c, 1, 45, 127
1, 12288, Note_off_c, 1, 67, 0
1, 12336, Note_off_c, 1, 45, 0
1, 13440, Note_on_c, 1, 57, 127
1, 13800, Note_on_c, 1, 59, 127
1, 13896, Note_off_c, 1, 59, 0
1, 14016, Note_off_c, 1, 57, 0
1, 14040, Note_on_c, 1, 55, 127
1, 14136, Note_off_c, 1, 55, 0
1, 14640, Note_on_c, 1, 62, 127
1, 14640, Note_on_c, 1, 55, 127
1, 14640, Note_on_c, 1, 59, 127
1, 14736, Note_off_c, 1, 62, 0
1, 14760, Note_on_c, 1, 65, 127
1, 14832, Note_off_c, 1, 55, 0
1, 14856, Note_off_c, 1, 65, 0
1, 14880, Note_on_c, 1, 64, 127
1, 14880, Note_on_c, 1, 48, 127
1, 14976, Note_off_c, 1, 64, 0
1, 15024, Note_off_c, 1, 59, 0
1, 15072, Note_off_c, 1, 48, 0
1, 15120, Note_on_c, 1, 60, 127
1, 15120, Note_on_c, 1, 53, 127
1, 15120, Note_on_c, 1, 57, 127
1, 15216, Note_off_c, 1, 60, 0
1, 15240, Note_on_c, 1, 64, 127
1, 15312, Note_off_c, 1, 53, 0
1, 15336, Note_off_c, 1, 64, 0
1, 15360, Note_on_c, 1, 62, 127
1, 15360, Note_on_c, 1, 47, 127
1, 15456, Note_off_c, 1, 57, 0
1, 15552, Note_off_c, 1, 47, 0
1, 15600, Note_on_c, 1, 59, 127
1, 15600, Note_on_c, 1, 48, 127
1, 15696, Note_off_c, 1, 59, 0
1, 15696, Note_off_c, 1, 48, 0
1, 15720, Note_on_c, 1, 50, 127
1, 15816, Note_off_c, 1, 50, 0
1, 15840, Note_on_c, 1, 52, 127
1, 15840, Note_on_c, 1, 56, 127
1, 15936, Note_off_c, 1, 52, 0
1, 15936, Note_off_c, 1, 56, 0
1, 15960, Note_on_c, 1, 54, 127
1, 16056, Note_off_c, 1, 54, 0
1, 16128, Note_off_c, 1, 62, 0
1, 16440, Note_on_c, 1, 55, 127
1, 16536, Note_off_c, 1, 55, 0
1, 16800, Note_on_c, 1, 65, 127
1, 17040, Note_on_c, 1, 46, 127
1, 17136, Note_off_c, 1, 46, 0
1, 17280, Note_on_c, 1, 43, 127
1, 17280, Note_on_c, 1, 58, 127
1, 17376, Note_off_c, 1, 43, 0
1, 17472, Note_off_c, 1, 58, 0
1, 17664, Note_off_c, 1, 65, 0
1, 18000, Note_on_c, 1, 45, 127
1, 18096, Note_off_c, 1, 45, 0
1, 18240, Note_on_c, 1, 41, 127
1, 18336, Note_off_c, 1, 41, 0
1, 19200, Note_on_c, 1, 40, 127
1, 19296, Note_off_c, 1, 40, 0
1, 19440, Note_on_c, 1, 49, 127
1, 19536, Note_off_c, 1, 49, 0
1, 19680, Note_on_c, 1, 61, 127
1, 20064, Note_off_c, 1, 61, 0
1, 20160, Note_on_c, 1, 62, 127
1, 20160, Note_on_c, 1, 53, 127
1, 20160, Note_on_c, 1, 38, 127
1, 20256, Note_off_c, 1, 53, 0
1, 20280, Note_on_c, 1, 52, 127
1, 20352, Note_off_c, 1, 62, 0
1, 20352, Note_off_c, 1, 38, 0
1, 20376, Note_off_c, 1, 52, 0
1, 20400, Note_on_c, 1, 53, 127
1, 20400, Note_on_c, 1, 50, 127
1, 20496, Note_off_c, 1, 53, 0
1, 20520, Note_on_c, 1, 55, 127
1, 20616, Note_off_c, 1, 55, 0
1, 20640, Note_on_c, 1, 57, 127
1, 20736, Note_off_c, 1, 57, 0
1, 20760, Note_on_c, 1, 59, 127
1, 20784, Note_off_c, 1, 50, 0
1, 20856, Note_off_c, 1, 59, 0
1, 20880, Note_on_c, 1, 60, 127
1, 20880, Note_on_c, 1, 48, 127
1, 20976, Note_off_c, 1, 60, 0
1, 21000, Note_on_c, 1, 57, 127
1, 21096, Note_off_c, 1, 57, 0
1, 21120, Note_on_c, 1, 62, 127
1, 21216, Note_off_c, 1, 48, 0
1, 21240, Note_on_c, 1, 47, 127
1, 21336, Note_off_c, 1, 47, 0
1, 21480, Note_on_c, 1, 50, 127
1, 21576, Note_off_c, 1, 50, 0
1, 21600, Note_on_c, 1, 52, 127
1, 21696, Note_off_c, 1, 52, 0
1, 21720, Note_on_c, 1, 54, 127
1, 21816, Note_off_c, 1, 54, 0
1, 21840, Note_on_c, 1, 56, 127
1, 21936, Note_off_c, 1, 56, 0
1, 22176, Note_off_c, 1, 62, 0
1, 22440, Note_on_c, 1, 64, 127
1, 22536, Note_off_c, 1, 64, 0
1, 22560, Note_on_c, 1, 65, 127
1, 22656, Note_off_c, 1, 65, 0
1, 22680, Note_on_c, 1, 67, 127
1, 22776, Note_off_c, 1, 67, 0
1, 22800, Note_on_c, 1, 69, 127
1, 22896, Note_off_c, 1, 69, 0
1, 23040, Note_on_c, 1, 70, 127
1, 23160, Note_on_c, 1, 55, 127
1, 23256, Note_off_c, 1, 55, 0
1, 23400, Note_on_c, 1, 58, 127
1, 23496, Note_off_c, 1, 58, 0
1, 24096, Note_off_c, 1, 70, 0
1, 24480, Note_on_c, 1, 72, 127
1, 24576, Note_off_c, 1, 72, 0
1, 24600, Note_on_c, 1, 74, 127
1, 24696, Note_off_c, 1, 74, 0
1, 24720, Note_on_c, 1, 76, 127
1, 24720, Note_on_c, 1, 64, 127
1, 24816, Note_off_c, 1, 76, 0
1, 24840, Note_on_c, 1, 72, 127
1, 24912, Note_off_c, 1, 64, 0
1, 24936, Note_off_c, 1, 72, 0
1, 24960, Note_on_c, 1, 77, 127
1, 24960, Note_on_c, 1, 62, 127
1, 25056, Note_off_c, 1, 77, 0
1, 25080, Note_on_c, 1, 76, 127
1, 25176, Note_off_c, 1, 76, 0
1, 25200, Note_on_c, 1, 74, 127
1, 25296, Note_off_c, 1, 74, 0
1, 25320, Note_on_c, 1, 72, 127
1, 25416, Note_off_c, 1, 72, 0
1, 25440, Note_on_c, 1, 71, 127
1, 25536, Note_off_c, 1, 71, 0
1, 25560, Note_on_c, 1, 69, 127
1, 25656, Note_off_c, 1, 69, 0
1, 25680, Note_on_c, 1, 68, 127
1, 25776, Note_off_c, 1, 68, 0
1, 25920, Note_on_c, 1, 64, 127
1, 26016, Note_off_c, 1, 62, 0
1, 26040, Note_on_c, 1, 56, 127
1, 26112, Note_off_c, 1, 64, 0
1, 26136, Note_off_c, 1, 56, 0
1, 26160, Note_on_c, 1, 57, 127
1, 26160, Note_on_c, 1, 66, 127
1, 26256, Note_off_c, 1, 57, 0
1, 26256, Note_off_c, 1, 66, 0
1, 26280, Note_on_c, 1, 68, 127
1, 26280, Note_on_c, 1, 59, 127
1, 26376, Note_off_c, 1, 68, 0
1, 26376, Note_off_c, 1, 59, 0
1, 26400, Note_on_c, 1, 60, 127
1, 26400, Note_on_c, 1, 69, 127
1, 26496, Note_off_c, 1, 60, 0
1, 26520, Note_on_c, 1, 62, 127
1, 26616, Note_off_c, 1, 62, 0
1, 26640, Note_on_c, 1, 64, 127
1, 26736, Note_off_c, 1, 64, 0
1, 26880, Note_on_c, 1, 65, 127
1, 26976, Note_off_c, 1, 65, 0
1, 27072, Note_off_c, 1, 69, 0
1, 27120, Note_on_c, 1, 62, 127
1, 27120, Note_on_c, 1, 71, 127
1, 27216, Note_off_c, 1, 62, 0
1, 27216, Note_off_c, 1, 71, 0
1, 27240, Note_on_c, 1, 69, 127
1, 27240, Note_on_c, 1, 60, 127
1, 27336, Note_off_c, 1, 69, 0
1, 27336, Note_off_c, 1, 60, 0
1, 27360, Note_on_c, 1, 59, 127
1, 27360, Note_on_c, 1, 68, 127
1, 27456, Note_off_c, 1, 59, 0
1, 27480, Note_on_c, 1, 60, 127
1, 27552, Note_off_c, 1, 68, 0
1, 27576, Note_off_c, 1, 60, 0
1, 27600, Note_on_c, 1, 62, 127
1, 27600, Note_on_c, 1, 71, 127
1, 27696, Note_off_c, 1, 62, 0
1, 27720, Note_on_c, 1, 59, 127
1, 27792, Note_off_c, 1, 71, 0
1, 27816, Note_off_c, 1, 59, 0
1, 27840, Note_on_c, 1, 60, 127
1, 27840, Note_on_c, 1, 76, 127
1, 27936, Note_off_c, 1, 60, 0
1, 27960, Note_on_c, 1, 59, 127
1, 28056, Note_off_c, 1, 59, 0
1, 28200, Note_on_c, 1, 62, 127
1, 28224, Note_off_c, 1, 76, 0
1, 28296, Note_off_c, 1, 62, 0
1, 28320, Note_on_c, 1, 64, 127
1, 28320, Note_on_c, 1, 79, 127
1, 28416, Note_off_c, 1, 64, 0
1, 28440, Note_on_c, 1, 65, 127
1, 28536, Note_off_c, 1, 65, 0
1, 28560, Note_on_c, 1, 67, 127
1, 28656, Note_off_c, 1, 67, 0
1, 28704, Note_off_c, 1, 79, 0
1, 28800, Note_on_c, 1, 76, 127
1, 28800, Note_on_c, 1, 69, 127
1, 28800, Note_on_c, 1, 72, 127
1, 28920, Note_on_c, 1, 56, 127
1, 29016, Note_off_c, 1, 56, 0
1, 29040, Note_on_c, 1, 57, 127
1, 29136, Note_off_c, 1, 57, 0
1, 29160, Note_on_c, 1, 59, 127
1, 29184, Note_off_c, 1, 76, 0
1, 29256, Note_off_c, 1, 59, 0
1, 29280, Note_on_c, 1, 60, 127
1, 29376, Note_off_c, 1, 69, 0
1, 29376, Note_off_c, 1, 72, 0
1, 29376, Note_off_c, 1, 60, 0
1, 29400, Note_on_c, 1, 62, 127
1, 29496, Note_off_c, 1, 62, 0
1, 29520, Note_on_c, 1, 71, 127
1, 29520, Note_on_c, 1, 68, 127
1, 29520, Note_on_c, 1, 64, 127
1, 29616, Note_off_c, 1, 64, 0
1, 29712, Note_off_c, 1, 71, 0
1, 29712, Note_off_c, 1, 68, 0
1, 29760, Note_on_c, 1, 72, 127
1, 29760, Note_on_c, 1, 69, 127
1, 29760, Note_on_c, 1, 77, 127
1, 29760, Note_on_c, 1, 57, 127
1, 29856, Note_off_c, 1, 72, 0
1, 29880, Note_on_c, 1, 76, 127
1, 29952, Note_off_c, 1, 69, 0
1, 29952, Note_off_c, 1, 57, 0
1, 29976, Note_off_c, 1, 76, 0
1, 30000, Note_on_c, 1, 74, 127
1, 30000, Note_on_c, 1, 62, 127
1, 30096, Note_off_c, 1, 74, 0
1, 30144, Note_off_c, 1, 77, 0
1, 30192, Note_off_c, 1, 62, 0
1, 30240, Note_on_c, 1, 71, 127
1, 30240, Note_on_c, 1, 76, 127
1, 30240, Note_on_c, 1, 56, 127
1, 30360, Note_on_c, 1, 74, 127
1, 30384, Note_off_c, 1, 71, 0
1, 30432, Note_off_c, 1, 56, 0
1, 30456, Note_off_c, 1, 74, 0
1, 30480, Note_on_c, 1, 72, 127
1, 30480, Note_on_c, 1, 69, 127
1, 30480, Note_on_c, 1, 60, 127
1, 30576, Note_off_c, 1, 72, 0
1, 30576, Note_off_c, 1, 69, 0
1, 30600, Note_on_c, 1, 67, 127
1, 30624, Note_off_c, 1, 76, 0
1, 30696, Note_off_c, 1, 67, 0
1, 30720, Note_on_c, 1, 65, 127
1, 30816, Note_off_c, 1, 65, 0
1, 30840, Note_on_c, 1, 64, 127
1, 30912, Note_off_c, 1, 60, 0
1, 30936, Note_off_c, 1, 64, 0
1, 30960, Note_on_c, 1, 62, 127
1, 30960, Note_on_c, 1, 68, 127
1, 30960, Note_on_c, 1, 59, 127
1, 31056, Note_off_c, 1, 62, 0
1, 31056, Note_off_c, 1, 68, 0
1, 31056, Note_off_c, 1, 59, 0
1, 31080, Note_on_c, 1, 66, 127
1, 31080, Note_on_c, 1, 57, 127
1, 31176, Note_off_c, 1, 66, 0
1, 31176, Note_off_c, 1, 57, 0
1, 31440, Note_on_c, 1, 52, 127
1, 31632, Note_off_c, 1, 52, 0
1, 32760, Note_on_c, 1, 50, 127
1, 32856, Note_off_c, 1, 50, 0
1, 33000, Note_on_c, 1, 53, 127
1, 33096, Note_off_c, 1, 53, 0
1, 33120, Note_on_c, 1, 70, 127
1, 33120, Note_on_c, 1, 55, 127
1, 33216, Note_off_c, 1, 55, 0
1, 33360, Note_on_c, 1, 58, 127
1, 33456, Note_off_c, 1, 58, 0
1, 33720, Note_on_c, 1, 48, 127
1, 33816, Note_off_c, 1, 48, 0
1, 33984, Note_off_c, 1, 70, 0
1, 35520, Note_on_c, 1, 77, 127
1, 35640, Note_on_c, 1, 61, 127
1, 35736, Note_off_c, 1, 61, 0
1, 36288, Note_off_c, 1, 77, 0
1, 37440, Note_on_c, 1, 54, 127
1, 37560, Note_on_c, 1, 84, 127
1, 37656, Note_off_c, 1, 84, 0
1, 37680, Note_on_c, 1, 82, 127
1, 37776, Note_off_c, 1, 82, 0
1, 37800, Note_on_c, 1, 81, 127
1, 37824, Note_off_c, 1, 54, 0
1, 37896, Note_off_c, 1, 81, 0
1, 37920, Note_on_c, 1, 79, 127
1, 37920, Note_on_c, 1, 70, 127
1, 37920, Note_on_c, 1, 58, 127
1, 37920, Note_on_c, 1, 55, 127
1, 38016, Note_off_c, 1, 79, 0
1, 38040, Note_on_c, 1, 77, 127
1, 38112, Note_off_c, 1, 58, 0
1, 38136, Note_off_c, 1, 77, 0
1, 38160, Note_on_c, 1, 76, 127
1, 38160, Note_on_c, 1, 67, 127
1, 38256, Note_off_c, 1, 76, 0
1, 38304, Note_off_c, 1, 70, 0
1, 38352, Note_off_c, 1, 67, 0
1, 38400, Note_on_c, 1, 64, 127
1, 38400, Note_on_c, 1, 73, 127
1, 38400, Note_on_c, 1, 69, 127
1, 38496, Note_off_c, 1, 55, 0
1, 38640, Note_on_c, 1, 57, 127
1, 38736, Note_off_c, 1, 57, 0
1, 38784, Note_off_c, 1, 64, 0
1, 38784, Note_off_c, 1, 73, 0
1, 38784, Note_off_c, 1, 69, 0
1, 38880, Note_on_c, 1, 69, 127
1, 38880, Note_on_c, 1, 65, 127
1, 38880, Note_on_c, 1, 74, 127
1, 38880, Note_on_c, 1, 53, 127
1, 38976, Note_off_c, 1, 53, 0
1, 39000, Note_on_c, 1, 52, 127
1, 39096, Note_off_c, 1, 52, 0
1, 39120, Note_on_c, 1, 50, 127
1, 39216, Note_off_c, 1, 50, 0
1, 39264, Note_off_c, 1, 69, 0
1, 39264, Note_off_c, 1, 65, 0
1, 39360, Note_on_c, 1, 64, 127
1, 39360, Note_on_c, 1, 45, 127
1, 39480, Note_on_c, 1, 47, 127
1, 39576, Note_off_c, 1, 47, 0
1, 39600, Note_on_c, 1, 49, 127
1, 39696, Note_off_c, 1, 49, 0
1, 39744, Note_off_c, 1, 74, 0
1, 39840, Note_on_c, 1, 73, 127
1, 40080, Note_on_c, 1, 55, 127
1, 40128, Note_off_c, 1, 64, 0
1, 40128, Note_off_c, 1, 45, 0
1, 40176, Note_off_c, 1, 55, 0
1, 40224, Note_off_c, 1, 73, 0
1, 40320, Note_on_c, 1, 69, 127
1, 40320, Note_on_c, 1, 74, 127
1, 40320, Note_on_c, 1, 62, 127
1, 40320, Note_on_c, 1, 53, 127
1, 40320, Note_on_c, 1, 50, 127
1, 40512, Note_off_c, 1, 53, 0
1, 40560, Note_on_c, 1, 58, 127
1, 40704, Note_off_c, 1, 69, 0
1, 40704, Note_off_c, 1, 74, 0
1, 40704, Note_off_c, 1, 50, 0
1, 40752, Note_off_c, 1, 58, 0
1, 40800, Note_on_c, 1, 52, 127
1, 40896, Note_off_c, 1, 62, 0
1, 40992, Note_off_c, 1, 52, 0
1, 41040, Note_on_c, 1, 60, 127
1, 41040, Note_on_c, 1, 57, 127
1, 41232, Note_off_c, 1, 57, 0
1, 41280, Note_on_c, 1, 50, 127
1, 41376, Note_off_c, 1, 60, 0
1, 41400, Note_on_c, 1, 63, 127
1, 41496, Note_off_c, 1, 63, 0
1, 41520, Note_on_c, 1, 62, 127
1, 41616, Note_off_c, 1, 62, 0
1, 41760, Note_on_c, 1, 58, 127
1, 41856, Note_off_c, 1, 50, 0
1, 41856, Note_off_c, 1, 58, 0
1, 41880, Note_on_c, 1, 57, 127
1, 41976, Note_off_c, 1, 57, 0
1, 42000, Note_on_c, 1, 55, 127
1, 42000, Note_on_c, 1, 52, 127
1, 42096, Note_off_c, 1, 55, 0
1, 42120, Note_on_c, 1, 58, 127
1, 42192, Note_off_c, 1, 52, 0
1, 42216, Note_off_c, 1, 58, 0
1, 42240, Note_on_c, 1, 57, 127
1, 42240, Note_on_c, 1, 53, 127
1, 42360, Note_on_c, 1, 70, 127
1, 42432, Note_off_c, 1, 57, 0
1, 42456, Note_off_c, 1, 70, 0
1, 42480, Note_on_c, 1, 69, 127
1, 42480, Note_on_c, 1, 61, 127
1, 42576, Note_off_c, 1, 69, 0
1, 42600, Note_on_c, 1, 67, 127
1, 42672, Note_off_c, 1, 61, 0
1, 42696, Note_off_c, 1, 67, 0
1, 42720, Note_on_c, 1, 65, 127
1, 42720, Note_on_c, 1, 62, 127
1, 42816, Note_off_c, 1, 65, 0
1, 42840, Note_on_c, 1, 64, 127
1, 42912, Note_off_c, 1, 62, 0
1, 42936, Note_off_c, 1, 64, 0
1, 43200, Note_on_c, 1, 59, 127
1, 43296, Note_off_c, 1, 53, 0
1, 43392, Note_off_c, 1, 59, 0
1, 43440, Note_on_c, 1, 67, 127
1, 43440, Note_on_c, 1, 55, 127
1, 43560, Note_on_c, 1, 53, 127
1, 43584, Note_off_c, 1, 55, 0
1, 43632, Note_off_c, 1, 67, 0
1, 43656, Note_off_c, 1, 53, 0
1, 43680, Note_on_c, 1, 61, 127
1, 43680, Note_on_c, 1, 52, 127
1, 43680, Note_on_c, 1, 57, 127
1, 43776, Note_off_c, 1, 52, 0
1, 43800, Note_on_c, 1, 50, 127
1, 43872, Note_off_c, 1, 61, 0
1, 43896, Note_off_c, 1, 50, 0
1, 43920, Note_on_c, 1, 67, 127
1, 43920, Note_on_c, 1, 49, 127
1, 44016, Note_off_c, 1, 49, 0
1, 44064, Note_off_c, 1, 57, 0
1, 44112, Note_off_c, 1, 67, 0
1, 44160, Note_on_c, 1, 66, 127
1, 44160, Note_on_c, 1, 58, 127
1, 44160, Note_on_c, 1, 50, 127
1, 44256, Note_off_c, 1, 66, 0
1, 44256, Note_off_c, 1, 58, 0
1, 44280, Note_on_c, 1, 62, 127
1, 44280, Note_on_c, 1, 54, 127
1, 44376, Note_off_c, 1, 62, 0
1, 44376, Note_off_c, 1, 54, 0
1, 44400, Note_on_c, 1, 64, 127
1, 44400, Note_on_c, 1, 55, 127
1, 44496, Note_off_c, 1, 64, 0
1, 44496, Note_off_c, 1, 55, 0
1, 44520, Note_on_c, 1, 57, 127
1, 44616, Note_off_c, 1, 57, 0
1, 44640, Note_on_c, 1, 67, 127
1, 44736, Note_off_c, 1, 50, 0
1, 44760, Note_on_c, 1, 60, 127
1, 44856, Note_off_c, 1, 60, 0
1, 44880, Note_on_c, 1, 46, 127
1, 45072, Note_off_c, 1, 46, 0
1, 45120, Note_on_c, 1, 48, 127
1, 45312, Note_off_c, 1, 48, 0
1, 45360, Note_on_c, 1, 45, 127
1, 45504, Note_off_c, 1, 67, 0
1, 45552, Note_off_c, 1, 45, 0
1, 45600, Note_on_c, 1, 66, 127
1, 45600, Note_on_c, 1, 57, 127
1, 45600, Note_on_c, 1, 50, 127
1, 45696, Note_off_c, 1, 57, 0
1, 45720, Note_on_c, 1, 58, 127
1, 45816, Note_off_c, 1, 58, 0
1, 45840, Note_on_c, 1, 60, 127
1, 45936, Note_off_c, 1, 60, 0
1, 45984, Note_off_c, 1, 66, 0
1, 45984, Note_off_c, 1, 50, 0
1, 46080, Note_on_c, 1, 67, 127
1, 46080, Note_on_c, 1, 43, 127
1, 46080, Note_on_c, 1, 58, 127
1, 46176, Note_off_c, 1, 43, 0
1, 46200, Note_on_c, 1, 45, 127
1, 46296, Note_off_c, 1, 45, 0
1, 46320, Note_on_c, 1, 46, 127
1, 46416, Note_off_c, 1, 46, 0
1, 46440, Note_on_c, 1, 48, 127
1, 46464, Note_off_c, 1, 58, 0
1, 46536, Note_off_c, 1, 48, 0
1, 46560, Note_on_c, 1, 50, 127
1, 46560, Note_on_c, 1, 57, 127
1, 46656, Note_off_c, 1, 67, 0
1, 46656, Note_off_c, 1, 50, 0
1, 46680, Note_on_c, 1, 52, 127
1, 46776, Note_off_c, 1, 52, 0
1, 46800, Note_on_c, 1, 65, 127
1, 46800, Note_on_c, 1, 53, 127
1, 46896, Note_off_c, 1, 53, 0
1, 46944, Note_off_c, 1, 57, 0
1, 47040, Note_on_c, 1, 55, 127
1, 47040, Note_on_c, 1, 59, 127
1, 47136, Note_off_c, 1, 55, 0
1, 47232, Note_off_c, 1, 65, 0
1, 47232, Note_off_c, 1, 59, 0
1, 47280, Note_on_c, 1, 64, 127
1, 47280, Note_on_c, 1, 52, 127
1, 47280, Note_on_c, 1, 60, 127
1, 47376, Note_off_c, 1, 52, 0
1, 47400, Note_on_c, 1, 53, 127
1, 47472, Note_off_c, 1, 64, 0
1, 47472, Note_off_c, 1, 60, 0
1, 47496, Note_off_c, 1, 53, 0
1, 47520, Note_on_c, 1, 62, 127
1, 47520, Note_on_c, 1, 55, 127
1, 47520, Note_on_c, 1, 59, 127
1, 47616, Note_off_c, 1, 55, 0
1, 47640, Note_on_c, 1, 57, 127
1, 47712, Note_off_c, 1, 62, 0
1, 47712, Note_off_c, 1, 59, 0
1, 47736, Note_off_c, 1, 57, 0
1, 47760, Note_on_c, 1, 67, 127
1, 47760, Note_on_c, 1, 59, 127
1, 47760, Note_on_c, 1, 62, 127
1, 47856, Note_off_c, 1, 59, 0
1, 47880, Note_on_c, 1, 55, 127
1, 47952, Note_off_c, 1, 67, 0
1, 47976, Note_off_c, 1, 55, 0
1, 48000, Note_on_c, 1, 64, 127
1, 48000, Note_on_c, 1, 60, 127
1, 48096, Note_off_c, 1, 60, 0
1, 48192, Note_off_c, 1, 62, 0
1, 48240, Note_on_c, 1, 57, 127
1, 48336, Note_off_c, 1, 57, 0
1, 48384, Note_off_c, 1, 64, 0
1, 48480, Note_on_c, 1, 69, 127
1, 48480, Note_on_c, 1, 53, 127
1, 48480, Note_on_c, 1, 60, 127
1, 48576, Note_off_c, 1, 53, 0
1, 48600, Note_on_c, 1, 52, 127
1, 48672, Note_off_c, 1, 60, 0
1, 48696, Note_off_c, 1, 52, 0
1, 48720, Note_on_c, 1, 50, 127
1, 48720, Note_on_c, 1, 65, 127
1, 48816, Note_off_c, 1, 50, 0
1, 48912, Note_off_c, 1, 65, 0
1, 48960, Note_on_c, 1, 62, 127
1, 48960, Note_on_c, 1, 47, 127
1, 49056, Note_off_c, 1, 62, 0
1, 49080, Note_on_c, 1, 64, 127
1, 49152, Note_off_c, 1, 47, 0
1, 49176, Note_off_c, 1, 64, 0
1, 49200, Note_on_c, 1, 48, 127
1, 49296, Note_off_c, 1, 48, 0
1, 49344, Note_off_c, 1, 69, 0
1, 49440, Note_on_c, 1, 68, 127
1, 49440, Note_on_c, 1, 59, 127
1, 49440, Note_on_c, 1, 52, 127
1, 49536, Note_off_c, 1, 59, 0
1, 49560, Note_on_c, 1, 57, 127
1, 49632, Note_off_c, 1, 68, 0
1, 49632, Note_off_c, 1, 52, 0
1, 49656, Note_off_c, 1, 57, 0
1, 49680, Note_on_c, 1, 71, 127
1, 49680, Note_on_c, 1, 56, 127
1, 49680, Note_on_c, 1, 50, 127
1, 49776, Note_off_c, 1, 56, 0
1, 49800, Note_on_c, 1, 59, 127
1, 49872, Note_off_c, 1, 50, 0
1, 49896, Note_off_c, 1, 59, 0
1, 49920, Note_on_c, 1, 48, 127
1, 49920, Note_on_c, 1, 52, 127
1, 50016, Note_off_c, 1, 71, 0
1, 50040, Note_on_c, 1, 64, 127
1, 50112, Note_off_c, 1, 48, 0
1, 50112, Note_off_c, 1, 52, 0
1, 50136, Note_off_c, 1, 64, 0
1, 50160, Note_on_c, 1, 66, 127
1, 50160, Note_on_c, 1, 47, 127
1, 50160, Note_on_c, 1, 50, 127
1, 50256, Note_off_c, 1, 66, 0
1, 50280, Note_on_c, 1, 68, 127
1, 50352, Note_off_c, 1, 47, 0
1, 50352, Note_off_c, 1, 50, 0
1, 50376, Note_off_c, 1, 68, 0
1, 50400, Note_on_c, 1, 69, 127
1, 50400, Note_on_c, 1, 48, 127
1, 50400, Note_on_c, 1, 52, 127
1, 50496, Note_off_c, 1, 69, 0
1, 50520, Note_on_c, 1, 71, 127
1, 50592, Note_off_c, 1, 48, 0
1, 50592, Note_off_c, 1, 52, 0
1, 50616, Note_off_c, 1, 71, 0
1, 50640, Note_on_c, 1, 72, 127
1, 50640, Note_on_c, 1, 53, 127
1, 50640, Note_on_c, 1, 57, 127
1, 50736, Note_off_c, 1, 72, 0
1, 50760, Note_on_c, 1, 69, 127
1, 50856, Note_off_c, 1, 69, 0
1, 50880, Note_on_c, 1, 74, 127
1, 50976, Note_off_c, 1, 53, 0
1, 51000, Note_on_c, 1, 47, 127
1, 51072, Note_off_c, 1, 57, 0
1, 51096, Note_off_c, 1, 47, 0
1, 51120, Note_on_c, 1, 48, 127
1, 51216, Note_off_c, 1, 48, 0
1, 51240, Note_on_c, 1, 50, 127
1, 51336, Note_off_c, 1, 50, 0
1, 51360, Note_on_c, 1, 68, 127
1, 51360, Note_on_c, 1, 52, 127
1, 51456, Note_off_c, 1, 52, 0
1, 51480, Note_on_c, 1, 54, 127
1, 51552, Note_off_c, 1, 68, 0
1, 51576, Note_off_c, 1, 54, 0
1, 51600, Note_on_c, 1, 71, 127
1, 51600, Note_on_c, 1, 56, 127
1, 51648, Note_off_c, 1, 74, 0
1, 51696, Note_off_c, 1, 56, 0
1, 51792, Note_off_c, 1, 71, 0
1, 51840, Note_on_c, 1, 64, 127
1, 51840, Note_on_c, 1, 72, 127
1, 51840, Note_on_c, 1, 57, 127
1, 51936, Note_off_c, 1, 57, 0
1, 51960, Note_on_c, 1, 60, 127
1, 52056, Note_off_c, 1, 60, 0
1, 52080, Note_on_c, 1, 59, 127
1, 52176, Note_off_c, 1, 59, 0
1, 52224, Note_off_c, 1, 64, 0
1, 52224, Note_off_c, 1, 72, 0
1, 52320, Note_on_c, 1, 67, 127
1, 52320, Note_on_c, 1, 71, 127
1, 52320, Note_on_c, 1, 55, 127
1, 52416, Note_off_c, 1, 55, 0
1, 52440, Note_on_c, 1, 53, 127
1, 52536, Note_off_c, 1, 53, 0
1, 52560, Note_on_c, 1, 52, 127
1, 52656, Note_off_c, 1, 52, 0
1, 52704, Note_off_c, 1, 67, 0
1, 52704, Note_off_c, 1, 71, 0
1, 52800, Note_on_c, 1, 64, 127
1, 52800, Note_on_c, 1, 72, 127
1, 52800, Note_on_c, 1, 48, 127
1, 52800, Note_on_c, 1, 57, 127
1, 52896, Note_off_c, 1, 48, 0
1, 52920, Note_on_c, 1, 53, 127
1, 53016, Note_off_c, 1, 53, 0
1, 53040, Note_on_c, 1, 52, 127
1, 53136, Note_off_c, 1, 52, 0
1, 53160, Note_on_c, 1, 50, 127
1, 53184, Note_off_c, 1, 64, 0
1, 53184, Note_off_c, 1, 72, 0
1, 53184, Note_off_c, 1, 57, 0
1, 53256, Note_off_c, 1, 50, 0
1, 53280, Note_on_c, 1, 64, 127
1, 53280, Note_on_c, 1, 67, 127
1, 53280, Note_on_c, 1, 48, 127
1, 53280, Note_on_c, 1, 60, 127
1, 53376, Note_off_c, 1, 48, 0
1, 53400, Note_on_c, 1, 46, 127
1, 53496, Note_off_c, 1, 46, 0
1, 53520, Note_on_c, 1, 45, 127
1, 53616, Note_off_c, 1, 45, 0
1, 53664, Note_off_c, 1, 64, 0
1, 53664, Note_off_c, 1, 67, 0
1, 53664, Note_off_c, 1, 60, 0
1, 53760, Note_on_c, 1, 65, 127
1, 53760, Note_on_c, 1, 69, 127
1, 53760, Note_on_c, 1, 41, 127
1, 53760, Note_on_c, 1, 57, 127
1, 53856, Note_off_c, 1, 41, 0
1, 53880, Note_on_c, 1, 43, 127
1, 53976, Note_off_c, 1, 43, 0
1, 54000, Note_on_c, 1, 45, 127
1, 54096, Note_off_c, 1, 45, 0
1, 54120, Note_on_c, 1, 46, 127
1, 54144, Note_off_c, 1, 65, 0
1, 54144, Note_off_c, 1, 57, 0
1, 54216, Note_off_c, 1, 46, 0
1, 54240, Note_on_c, 1, 64, 127
1, 54240, Note_on_c, 1, 48, 127
1, 54336, Note_off_c, 1, 69, 0
1, 54336, Note_off_c, 1, 48, 0
1, 54360, Note_on_c, 1, 50, 127
1, 54456, Note_off_c, 1, 50, 0
1, 54480, Note_on_c, 1, 67, 127
1, 54480, Note_on_c, 1, 52, 127
1, 54576, Note_off_c, 1, 52, 0
1, 54624, Note_off_c, 1, 64, 0
1, 54672, Note_off_c, 1, 67, 0
1, 54720, Note_on_c, 1, 65, 127
1, 54720, Note_on_c, 1, 50, 127
1, 54720, Note_on_c, 1, 58, 127
1, 54816, Note_off_c, 1, 65, 0
1, 54840, Note_on_c, 1, 70, 127
1, 54912, Note_off_c, 1, 50, 0
1, 54936, Note_off_c, 1, 70, 0
1, 54960, Note_on_c, 1, 69, 127
1, 54960, Note_on_c, 1, 48, 127
1, 55056, Note_off_c, 1, 69, 0
1, 55080, Note_on_c, 1, 67, 127
1, 55104, Note_off_c, 1, 58, 0
1, 55152, Note_off_c, 1, 48, 0
1, 55176, Note_off_c, 1, 67, 0
1, 55200, Note_on_c, 1, 65, 127
1, 55200, Note_on_c, 1, 50, 127
1, 55200, Note_on_c, 1, 57, 127
1, 55296, Note_off_c, 1, 65, 0
1, 55320, Note_on_c, 1, 64, 127
1, 55392, Note_off_c, 1, 50, 0
1, 55416, Note_off_c, 1, 64, 0
1, 55440, Note_on_c, 1, 62, 127
1, 55440, Note_on_c, 1, 46, 127
1, 55536, Note_off_c, 1, 62, 0
1, 55584, Note_off_c, 1, 57, 0
1, 55680, Note_on_c, 1, 60, 127
1, 55680, Note_on_c, 1, 55, 127
1, 55800, Note_on_c, 1, 69, 127
1, 55872, Note_off_c, 1, 46, 0
1, 55896, Note_off_c, 1, 69, 0
1, 55920, Note_on_c, 1, 67, 127
1, 55920, Note_on_c, 1, 48, 127
1, 56016, Note_off_c, 1, 67, 0
1, 56016, Note_off_c, 1, 48, 0
1, 56448, Note_off_c, 1, 55, 0
1, 56640, Note_on_c, 1, 45, 127
1, 56640, Note_on_c, 1, 53, 127
1, 56832, Note_off_c, 1, 60, 0
1, 56832, Note_off_c, 1, 45, 0
1, 56880, Note_on_c, 1, 43, 127
1, 57000, Note_on_c, 1, 70, 127
1, 57072, Note_off_c, 1, 43, 0
1, 57096, Note_off_c, 1, 70, 0
1, 57120, Note_on_c, 1, 72, 127
1, 57216, Note_off_c, 1, 72, 0
1, 57240, Note_on_c, 1, 74, 127
1, 57336, Note_off_c, 1, 74, 0
1, 57360, Note_on_c, 1, 75, 127
1, 57360, Note_on_c, 1, 41, 127
1, 57456, Note_off_c, 1, 75, 0
1, 57552, Note_off_c, 1, 41, 0
1, 57792, Note_off_c, 1, 53, 0
1, 57960, Note_on_c, 1, 52, 127
1, 58056, Note_off_c, 1, 52, 0
1, 59280, Note_on_c, 1, 58, 127
1, 59376, Note_off_c, 1, 58, 0
1, 60000, Note_on_c, 1, 69, 127
1, 60000, Note_on_c, 1, 53, 127
1, 60096, Note_off_c, 1, 69, 0
1, 60120, Note_on_c, 1, 67, 127
1, 60192, Note_off_c, 1, 53, 0
1, 60216, Note_off_c, 1, 67, 0
1, 60240, Note_on_c, 1, 65, 127
1, 60240, Note_on_c, 1, 45, 127
1, 60240, Note_on_c, 1, 60, 127
1, 60336, Note_off_c, 1, 65, 0
1, 60360, Note_on_c, 1, 69, 127
1, 60432, Note_off_c, 1, 45, 0
1, 60456, Note_off_c, 1, 69, 0
1, 60480, Note_on_c, 1, 62, 127
1, 60480, Note_on_c, 1, 46, 127
1, 60576, Note_off_c, 1, 62, 0
1, 60600, Note_on_c, 1, 64, 127
1, 60672, Note_off_c, 1, 60, 0
1, 60672, Note_off_c, 1, 46, 0
1, 60696, Note_off_c, 1, 64, 0
1, 60720, Note_on_c, 1, 65, 127
1, 60720, Note_on_c, 1, 58, 127
1, 60720, Note_on_c, 1, 43, 127
1, 60816, Note_off_c, 1, 58, 0
1, 60840, Note_on_c, 1, 57, 127
1, 60912, Note_off_c, 1, 43, 0
1, 60936, Note_off_c, 1, 57, 0
1, 60960, Note_on_c, 1, 55, 127
1, 60960, Note_on_c, 1, 48, 127
1, 61056, Note_off_c, 1, 55, 0
1, 61104, Note_off_c, 1, 65, 0
1, 61200, Note_on_c, 1, 64, 127
1, 61344, Note_off_c, 1, 48, 0
1, 61392, Note_off_c, 1, 64, 0
1, 61440, Note_on_c, 1, 65, 127
1, 61440, Note_on_c, 1, 57, 127
1, 61440, Note_on_c, 1, 41, 127
1, 61632, Note_off_c, 1, 57, 0
1, 61632, Note_off_c, 1, 41, 0
1, 61680, Note_on_c, 1, 62, 127
1, 61872, Note_off_c, 1, 62, 0
1, 61920, Note_on_c, 1, 55, 127
1, 62016, Note_off_c, 1, 65, 0
1, 62112, Note_off_c, 1, 55, 0
1, 62160, Note_on_c, 1, 64, 127
1, 62160, Note_on_c, 1, 60, 127
1, 62352, Note_off_c, 1, 60, 0
1, 62400, Note_on_c, 1, 53, 127
1, 62496, Note_off_c, 1, 64, 0
1, 62520, Note_on_c, 1, 69, 127
1, 62616, Note_off_c, 1, 69, 0
1, 62640, Note_on_c, 1, 71, 127
1, 62736, Note_off_c, 1, 71, 0
1, 62760, Note_on_c, 1, 73, 127
1, 62784, Note_off_c, 1, 53, 0
1, 62856, Note_off_c, 1, 73, 0
1, 62880, Note_on_c, 1, 74, 127
1, 62880, Note_on_c, 1, 58, 127
1, 62976, Note_off_c, 1, 74, 0
1, 63000, Note_on_c, 1, 76, 127
1, 63096, Note_off_c, 1, 76, 0
1, 63120, Note_on_c, 1, 77, 127
1, 63216, Note_off_c, 1, 77, 0
1, 63360, Note_on_c, 1, 79, 127
1, 63456, Note_off_c, 1, 58, 0
1, 63480, Note_on_c, 1, 52, 127
1, 63576, Note_off_c, 1, 52, 0
1, 63600, Note_on_c, 1, 53, 127
1, 63696, Note_off_c, 1, 53, 0
1, 63720, Note_on_c, 1, 55, 127
1, 63816, Note_off_c, 1, 55, 0
1, 63840, Note_on_c, 1, 57, 127
1, 63936, Note_off_c, 1, 57, 0
1, 63960, Note_on_c, 1, 59, 127
1, 64056, Note_off_c, 1, 59, 0
1, 64080, Note_on_c, 1, 61, 127
1, 64176, Note_off_c, 1, 61, 0
1, 64320, Note_on_c, 1, 62, 127
1, 64440, Note_on_c, 1, 64, 127
1, 64536, Note_off_c, 1, 64, 0
1, 64560, Note_on_c, 1, 65, 127
1, 64680, Note_on_c, 1, 67, 127
1, 64704, Note_off_c, 1, 79, 0
1, 64776, Note_off_c, 1, 67, 0
1, 64800, Note_on_c, 1, 69, 127
1, 64896, Note_off_c, 1, 62, 0
1, 64896, Note_off_c, 1, 69, 0
1, 64920, Note_on_c, 1, 70, 127
1, 64920, Note_on_c, 1, 50, 127
1, 65016, Note_off_c, 1, 70, 0
1, 65016, Note_off_c, 1, 50, 0
1, 65040, Note_on_c, 1, 72, 127
1, 65136, Note_off_c, 1, 72, 0
1, 65760, Note_on_c, 1, 60, 127
1, 65856, Note_off_c, 1, 60, 0
1, 65880, Note_on_c, 1, 48, 127
1, 65976, Note_off_c, 1, 48, 0
1, 67440, Note_on_c, 1, 49, 127
1, 67536, Note_off_c, 1, 49, 0
1, 67680, Note_on_c, 1, 73, 127
1, 67680, Note_on_c, 1, 45, 127
1, 67776, Note_off_c, 1, 45, 0
1, 68064, Note_off_c, 1, 73, 0
1, 68352, Note_off_c, 1, 65, 0
1, 68400, Note_on_c, 1, 72, 127
1, 68400, Note_on_c, 1, 66, 127
1, 68400, Note_on_c, 1, 47, 127
1, 68496, Note_off_c, 1, 47, 0
1, 68520, Note_on_c, 1, 50, 127
1, 68592, Note_off_c, 1, 72, 0
1, 68592, Note_off_c, 1, 66, 0
1, 68616, Note_off_c, 1, 50, 0
1, 68640, Note_on_c, 1, 67, 127
1, 68640, Note_on_c, 1, 70, 127
1, 68640, Note_on_c, 1, 43, 127
1, 68736, Note_off_c, 1, 67, 0
1, 68760, Note_on_c, 1, 65, 127
1, 68832, Note_off_c, 1, 43, 0
1, 68856, Note_off_c, 1, 65, 0
1, 68880, Note_on_c, 1, 64, 127
1, 68880, Note_on_c, 1, 55, 127
1, 68976, Note_off_c, 1, 64, 0
1, 69000, Note_on_c, 1, 62, 127
1, 69024, Note_off_c, 1, 70, 0
1, 69096, Note_off_c, 1, 62, 0
1, 69120, Note_on_c, 1, 61, 127
1, 69120, Note_on_c, 1, 69, 127
1, 69216, Note_off_c, 1, 55, 0
1, 69216, Note_off_c, 1, 61, 0
1, 69240, Note_on_c, 1, 58, 127
1, 69336, Note_off_c, 1, 58, 0
1, 69360, Note_on_c, 1, 57, 127
1, 69456, Note_off_c, 1, 57, 0
1, 69504, Note_off_c, 1, 69, 0
1, 69600, Note_on_c, 1, 57, 127
1, 69600, Note_on_c, 1, 74, 127
1, 69600, Note_on_c, 1, 53, 127
1, 69696, Note_off_c, 1, 53, 0
1, 69720, Note_on_c, 1, 52, 127
1, 69792, Note_off_c, 1, 57, 0
1, 69816, Note_off_c, 1, 52, 0
1, 69840, Note_on_c, 1, 65, 127
1, 69840, Note_on_c, 1, 50, 127
1, 69936, Note_off_c, 1, 50, 0
1, 70032, Note_off_c, 1, 65, 0
1, 70080, Note_on_c, 1, 67, 127
1, 70320, Note_on_c, 1, 49, 127
1, 70416, Note_off_c, 1, 49, 0
1, 70440, Note_on_c, 1, 47, 127
1, 70464, Note_off_c, 1, 74, 0
1, 70536, Note_off_c, 1, 47, 0
1, 70560, Note_on_c, 1, 73, 127
1, 70560, Note_on_c, 1, 45, 127
1, 70656, Note_off_c, 1, 67, 0
1, 70656, Note_off_c, 1, 45, 0
1, 70680, Note_on_c, 1, 70, 127
1, 70680, Note_on_c, 1, 43, 127
1, 70776, Note_off_c, 1, 70, 0
1, 70776, Note_off_c, 1, 43, 0
1, 70800, Note_on_c, 1, 69, 127
1, 70800, Note_on_c, 1, 41, 127
1, 70896, Note_off_c, 1, 69, 0
1, 70896, Note_off_c, 1, 41, 0
1, 70944, Note_off_c, 1, 73, 0
1, 71040, Note_on_c, 1, 74, 127
1, 71040, Note_on_c, 1, 69, 127
1, 71040, Note_on_c, 1, 65, 127
1, 71040, Note_on_c, 1, 38, 127
1, 71136, Note_off_c, 1, 65, 0
1, 71232, Note_off_c, 1, 38, 0
1, 71280, Note_on_c, 1, 64, 127
1, 71376, Note_off_c, 1, 64, 0
1, 71400, Note_on_c, 1, 62, 127
1, 71424, Note_off_c, 1, 74, 0
1, 71424, Note_off_c, 1, 69, 0
1, 71496, Note_off_c, 1, 62, 0
1, 71520, Note_on_c, 1, 76, 127
1, 71520, Note_on_c, 1, 72, 127
1, 71520, Note_on_c, 1, 60, 127
1, 71616, Note_off_c, 1, 60, 0
1, 71640, Note_on_c, 1, 58, 127
1, 71736, Note_off_c, 1, 58, 0
1, 71760, Note_on_c, 1, 57, 127
1, 71856, Note_off_c, 1, 57, 0
1, 71904, Note_off_c, 1, 76, 0
1, 71904, Note_off_c, 1, 72, 0
1, 72000, Note_on_c, 1, 77, 127
1, 72000, Note_on_c, 1, 69, 127
1, 72000, Note_on_c, 1, 53, 127
1, 72000, Note_on_c, 1, 50, 127
1, 72096, Note_off_c, 1, 53, 0
1, 72120, Note_on_c, 1, 52, 127
1, 72192, Note_off_c, 1, 77, 0
1, 72216, Note_off_c, 1, 52, 0
1, 72240, Note_on_c, 1, 74, 127
1, 72360, Note_on_c, 1, 55, 127
1, 72384, Note_off_c, 1, 69, 0
1, 72384, Note_off_c, 1, 50, 0
1, 72432, Note_off_c, 1, 74, 0
1, 72456, Note_off_c, 1, 55, 0
1, 72480, Note_on_c, 1, 72, 127
1, 72480, Note_on_c, 1, 69, 127
1, 72480, Note_on_c, 1, 57, 127
1, 72480, Note_on_c, 1, 53, 127
1, 72576, Note_off_c, 1, 57, 0
1, 72600, Note_on_c, 1, 58, 127
1, 72672, Note_off_c, 1, 72, 0
1, 72696, Note_off_c, 1, 58, 0
1, 72720, Note_on_c, 1, 81, 127
1, 72720, Note_on_c, 1, 60, 127
1, 72816, Note_off_c, 1, 60, 0
1, 72864, Note_off_c, 1, 69, 0
1, 72864, Note_off_c, 1, 53, 0
1, 72960, Note_on_c, 1, 70, 127
1, 72960, Note_on_c, 1, 62, 127
1, 72960, Note_on_c, 1, 50, 127
1, 73056, Note_off_c, 1, 62, 0
1, 73152, Note_off_c, 1, 81, 0
1, 73200, Note_on_c, 1, 79, 127
1, 73344, Note_off_c, 1, 70, 0
1, 73344, Note_off_c, 1, 50, 0
1, 73584, Note_off_c, 1, 79, 0
1, 73680, Note_on_c, 1, 78, 127
1, 73872, Note_off_c, 1, 78, 0
1, 73920, Note_on_c, 1, 79, 127
1, 73920, Note_on_c, 1, 67, 127
1, 73920, Note_on_c, 1, 51, 127
1, 73920, Note_on_c, 1, 58, 127
1, 74016, Note_off_c, 1, 79, 0
1, 74040, Note_on_c, 1, 69, 127
1, 74136, Note_off_c, 1, 69, 0
1, 74160, Note_on_c, 1, 70, 127
1, 74256, Note_off_c, 1, 70, 0
1, 74280, Note_on_c, 1, 72, 127
1, 74304, Note_off_c, 1, 67, 0
1, 74304, Note_off_c, 1, 51, 0
1, 74376, Note_off_c, 1, 72, 0
1, 74400, Note_on_c, 1, 74, 127
1, 74400, Note_on_c, 1, 65, 127
1, 74400, Note_on_c, 1, 50, 127
1, 74496, Note_off_c, 1, 74, 0
1, 74520, Note_on_c, 1, 75, 127
1, 74616, Note_off_c, 1, 75, 0
1, 74640, Note_on_c, 1, 77, 127
1, 74736, Note_off_c, 1, 77, 0
1, 74784, Note_off_c, 1, 65, 0
1, 74784, Note_off_c, 1, 50, 0
1, 74880, Note_on_c, 1, 48, 127
1, 74976, Note_off_c, 1, 58, 0
1, 75120, Note_on_c, 1, 57, 127
1, 75216, Note_off_c, 1, 57, 0
1, 75240, Note_on_c, 1, 55, 127
1, 75336, Note_off_c, 1, 55, 0
1, 75360, Note_on_c, 1, 54, 127
1, 75456, Note_off_c, 1, 54, 0
1, 75480, Note_on_c, 1, 52, 127
1, 75576, Note_off_c, 1, 52, 0
1, 75648, Note_off_c, 1, 48, 0
1, 75840, Note_on_c, 1, 46, 127
1, 76032, Note_off_c, 1, 46, 0
1, 76080, Note_on_c, 1, 76, 127
1, 76080, Note_on_c, 1, 45, 127
1, 76176, Note_off_c, 1, 76, 0
1, 76200, Note_on_c, 1, 78, 127
1, 76272, Note_off_c, 1, 45, 0
1, 76296, Note_off_c, 1, 78, 0
1, 76440, Note_on_c, 1, 81, 127
1, 76536, Note_off_c, 1, 81, 0
1, 76560, Note_on_c, 1, 82, 127
1, 76560, Note_on_c, 1, 43, 127
1, 76656, Note_off_c, 1, 82, 0
1, 76752, Note_off_c, 1, 43, 0
1, 77040, Note_on_c, 1, 63, 127
1, 77136, Note_off_c, 1, 63, 0
1, 77160, Note_on_c, 1, 62, 127
1, 77256, Note_off_c, 1, 62, 0
1, 77520, Note_on_c, 1, 60, 127
1, 77616, Note_off_c, 1, 60, 0
1, 78720, Note_on_c, 1, 55, 127
1, 78720, Note_on_c, 1, 70, 127
1, 78720, Note_on_c, 1, 43, 127
1, 78816, Note_off_c, 1, 43, 0
1, 78840, Note_on_c, 1, 38, 127
1, 78912, Note_off_c, 1, 55, 0
1, 78912, Note_off_c, 1, 70, 0
1, 78936, Note_off_c, 1, 38, 0
1, 78960, Note_on_c, 1, 65, 127
1, 78960, Note_on_c, 1, 69, 127
1, 78960, Note_on_c, 1, 40, 127
1, 79056, Note_off_c, 1, 40, 0
1, 79080, Note_on_c, 1, 41, 127
1, 79152, Note_off_c, 1, 65, 0
1, 79152, Note_off_c, 1, 69, 0
1, 79176, Note_off_c, 1, 41, 0
1, 79200, Note_on_c, 1, 64, 127
1, 79200, Note_on_c, 1, 67, 127
1, 79200, Note_on_c, 1, 43, 127
1, 79296, Note_off_c, 1, 43, 0
1, 79320, Note_on_c, 1, 45, 127
1, 79392, Note_off_c, 1, 64, 0
1, 79416, Note_off_c, 1, 45, 0
1, 79440, Note_on_c, 1, 62, 127
1, 79440, Note_on_c, 1, 46, 127
1, 79536, Note_off_c, 1, 46, 0
1, 79632, Note_off_c, 1, 62, 0
1, 79680, Note_on_c, 1, 49, 127
1, 79776, Note_off_c, 1, 49, 0
1, 79920, Note_on_c, 1, 47, 127
1, 79968, Note_off_c, 1, 67, 0
1, 80016, Note_off_c, 1, 47, 0
1, 80040, Note_on_c, 1, 69, 127
1, 80136, Note_off_c, 1, 69, 0
1, 80160, Note_on_c, 1, 65, 127
1, 80160, Note_on_c, 1, 50, 127
1, 80256, Note_off_c, 1, 50, 0
1, 80280, Note_on_c, 1, 52, 127
1, 80376, Note_off_c, 1, 52, 0
1, 80400, Note_on_c, 1, 62, 127
1, 80400, Note_on_c, 1, 53, 127
1, 80448, Note_off_c, 1, 65, 0
1, 80496, Note_off_c, 1, 53, 0
1, 80520, Note_on_c, 1, 67, 127
1, 80616, Note_off_c, 1, 67, 0
1, 80640, Note_on_c, 1, 64, 127
1, 80640, Note_on_c, 1, 56, 127
1, 80736, Note_off_c, 1, 56, 0
1, 80832, Note_off_c, 1, 62, 0
1, 80880, Note_on_c, 1, 60, 127
1, 80880, Note_on_c, 1, 54, 127
1, 80976, Note_off_c, 1, 60, 0
1, 80976, Note_off_c, 1, 54, 0
1, 81000, Note_on_c, 1, 59, 127
1, 81096, Note_off_c, 1, 59, 0
1, 81120, Note_on_c, 1, 57, 127
1, 81216, Note_off_c, 1, 64, 0
1, 81216, Note_off_c, 1, 57, 0
1, 81240, Note_on_c, 1, 58, 127
1, 81336, Note_off_c, 1, 58, 0
1, 81360, Note_on_c, 1, 69, 127
1, 81552, Note_off_c, 1, 69, 0
1, 82080, Note_on_c, 1, 55, 127
1, 82200, Note_on_c, 1, 77, 127
1, 82296, Note_off_c, 1, 77, 0
1, 82320, Note_on_c, 1, 76, 127
1, 82416, Note_off_c, 1, 76, 0
1, 82440, Note_on_c, 1, 74, 127
1, 82536, Note_off_c, 1, 74, 0
1, 82560, Note_on_c, 1, 73, 127
1, 82656, Note_off_c, 1, 73, 0
1, 82680, Note_on_c, 1, 71, 127
1, 82776, Note_off_c, 1, 71, 0
1, 82944, Note_off_c, 1, 55, 0
1, 83160, Note_on_c, 1, 72, 127
1, 83256, Note_off_c, 1, 72, 0
1, 83280, Note_on_c, 1, 70, 127
1, 83376, Note_off_c, 1, 70, 0
1, 84000, Note_on_c, 1, 67, 127
1, 84000, Note_on_c, 1, 73, 127
1, 84000, Note_on_c, 1, 57, 127
1, 84096, Note_off_c, 1, 67, 0
1, 84120, Note_on_c, 1, 70, 127
1, 84192, Note_off_c, 1, 57, 0
1, 84216, Note_off_c, 1, 70, 0
1, 84240, Note_on_c, 1, 69, 127
1, 84240, Note_on_c, 1, 45, 127
1, 84336, Note_off_c, 1, 69, 0
1, 84384, Note_off_c, 1, 73, 0
1, 84432, Note_off_c, 1, 45, 0
1, 84480, Note_on_c, 1, 74, 127
1, 84480, Note_on_c, 1, 65, 127
1, 84480, Note_on_c, 1, 69, 127
1, 84480, Note_on_c, 1, 50, 127
1, 84576, Note_off_c, 1, 50, 0
1, 84600, Note_on_c, 1, 62, 127
1, 84672, Note_off_c, 1, 74, 0
1, 84696, Note_off_c, 1, 62, 0
1, 84720, Note_on_c, 1, 77, 127
1, 84720, Note_on_c, 1, 60, 127
1, 84816, Note_off_c, 1, 60, 0
1, 84840, Note_on_c, 1, 58, 127
1, 84864, Note_off_c, 1, 65, 0
1, 84864, Note_off_c, 1, 69, 0
1, 84936, Note_off_c, 1, 58, 0
1, 84960, Note_on_c, 1, 72, 127
1, 84960, Note_on_c, 1, 57, 127
1, 85056, Note_off_c, 1, 57, 0
1, 85104, Note_off_c, 1, 77, 0
1, 85200, Note_on_c, 1, 76, 127
1, 85200, Note_on_c, 1, 67, 127
1, 85344, Note_off_c, 1, 72, 0
1, 85440, Note_on_c, 1, 53, 127
1, 85536, Note_off_c, 1, 53, 0
1, 85632, Note_off_c, 1, 76, 0
1, 85632, Note_off_c, 1, 67, 0
1, 85800, Note_on_c, 1, 55, 127
1, 85896, Note_off_c, 1, 55, 0
1, 86160, Note_on_c, 1, 73, 127
1, 86160, Note_on_c, 1, 64, 127
1, 86352, Note_off_c, 1, 73, 0
1, 86352, Note_off_c, 1, 64, 0
1, 86400, Note_on_c, 1, 65, 127
1, 86400, Note_on_c, 1, 74, 127
1, 86400, Note_on_c, 1, 70, 127
1, 86400, Note_on_c, 1, 50, 127
1, 86496, Note_off_c, 1, 50, 0
1, 86520, Note_on_c, 1, 48, 127
1, 86592, Note_off_c, 1, 65, 0
1, 86616, Note_off_c, 1, 48, 0
1, 86625, Note_off_c, 1, 74, 0
1, 86640, Note_on_c, 1, 67, 127
1, 86640, Note_on_c, 1, 72, 127
1, 86760, Note_on_c, 1, 52, 127
1, 86784, Note_off_c, 1, 70, 0
1, 86832, Note_off_c, 1, 67, 0
1, 86856, Note_off_c, 1, 52, 0
1, 86880, Note_on_c, 1, 60, 127
1, 86880, Note_on_c, 1, 69, 127
1, 86880, Note_on_c, 1, 53, 127
1, 86976, Note_off_c, 1, 53, 0
1, 87072, Note_off_c, 1, 60, 0
1, 87090, Note_off_c, 1, 72, 0
1, 87264, Note_off_c, 1, 69, 0
1, 87360, Note_on_c, 1, 55, 127
1, 87456, Note_off_c, 1, 55, 0
1, 87480, Note_on_c, 1, 43, 127
1, 87576, Note_off_c, 1, 43, 0
1, 87600, Note_on_c, 1, 63, 127
1, 87600, Note_on_c, 1, 45, 127
1, 87696, Note_off_c, 1, 63, 0
1, 87696, Note_off_c, 1, 45, 0
1, 87720, Note_on_c, 1, 62, 127
1, 87720, Note_on_c, 1, 46, 127
1, 87816, Note_off_c, 1, 62, 0
1, 87816, Note_off_c, 1, 46, 0
1, 88080, Note_on_c, 1, 51, 127
1, 88176, Note_off_c, 1, 51, 0
1, 88800, Note_on_c, 1, 58, 127
1, 88896, Note_off_c, 1, 58, 0
1, 88920, Note_on_c, 1, 57, 127
1, 89016, Note_off_c, 1, 57, 0
1, 89400, Note_on_c, 1, 64, 127
1, 89496, Note_off_c, 1, 64, 0
1, 89760, Note_on_c, 1, 77, 127
1, 89880, Note_on_c, 1, 71, 127
1, 89976, Note_off_c, 1, 71, 0
1, 90336, Note_off_c, 1, 77, 0
1, 90480, Note_on_c, 1, 79, 127
1, 90576, Note_off_c, 1, 79, 0
1, 90600, Note_on_c, 1, 81, 127
1, 90696, Note_off_c, 1, 81, 0
1, 90960, Note_on_c, 1, 59, 127
1, 91320, Note_on_c, 1, 76, 127
1, 91416, Note_off_c, 1, 76, 0
1, 91440, Note_on_c, 1, 78, 127
1, 91536, Note_off_c, 1, 78, 0
1, 91560, Note_on_c, 1, 80, 127
1, 91584, Note_off_c, 1, 59, 0
1, 91656, Note_off_c, 1, 80, 0
1, 91680, Note_on_c, 1, 81, 127
1, 91680, Note_on_c, 1, 72, 127
1, 91680, Note_on_c, 1, 53, 127
1, 91680, Note_on_c, 1, 57, 127
1, 91776, Note_off_c, 1, 81, 0
1, 91800, Note_on_c, 1, 83, 127
1, 91896, Note_off_c, 1, 83, 0
1, 91920, Note_on_c, 1, 84, 127
1, 92016, Note_off_c, 1, 84, 0
1, 92064, Note_off_c, 1, 72, 0
1, 92160, Note_on_c, 1, 71, 127
1, 92160, Note_on_c, 1, 74, 127
1, 92256, Note_off_c, 1, 53, 0
1, 92280, Note_on_c, 1, 47, 127
1, 92376, Note_off_c, 1, 47, 0
1, 92400, Note_on_c, 1, 48, 127
1, 92496, Note_off_c, 1, 48, 0
1, 92520, Note_on_c, 1, 50, 127
1, 92544, Note_off_c, 1, 57, 0
1, 92616, Note_off_c, 1, 50, 0
1, 92640, Note_on_c, 1, 56, 127
1, 92640, Note_on_c, 1, 52, 127
1, 92736, Note_off_c, 1, 52, 0
1, 92760, Note_on_c, 1, 54, 127
1, 92832, Note_off_c, 1, 56, 0
1, 92856, Note_off_c, 1, 54, 0
1, 92880, Note_on_c, 1, 64, 127
1, 93120, Note_on_c, 1, 45, 127
1, 93216, Note_off_c, 1, 64, 0
1, 93240, Note_on_c, 1, 65, 127
1, 93312, Note_off_c, 1, 71, 0
1, 93312, Note_off_c, 1, 74, 0
1, 93336, Note_off_c, 1, 65, 0
1, 93360, Note_on_c, 1, 69, 127
1, 93456, Note_off_c, 1, 69, 0
1, 93480, Note_on_c, 1, 68, 127
1, 93480, Note_on_c, 1, 62, 127
1, 93576, Note_off_c, 1, 68, 0
1, 93576, Note_off_c, 1, 62, 0
1, 93720, Note_on_c, 1, 60, 127
1, 93816, Note_off_c, 1, 60, 0
1, 93840, Note_on_c, 1, 77, 127
1, 93840, Note_on_c, 1, 58, 127
1, 93888, Note_off_c, 1, 45, 0
1, 93936, Note_off_c, 1, 58, 0
1, 94080, Note_on_c, 1, 55, 127
1, 94272, Note_off_c, 1, 77, 0
1, 94320, Note_on_c, 1, 76, 127
1, 94416, Note_off_c, 1, 76, 0
1, 94560, Note_on_c, 1, 67, 127
1, 94656, Note_off_c, 1, 67, 0
1, 94800, Note_on_c, 1, 79, 127
1, 94848, Note_off_c, 1, 55, 0
1, 95040, Note_on_c, 1, 61, 127
1, 95136, Note_off_c, 1, 79, 0
1, 95160, Note_on_c, 1, 82, 127
1, 95256, Note_off_c, 1, 82, 0
1, 95424, Note_off_c, 1, 61, 0
1, 96600, Note_on_c, 1, 59, 127
1, 96696, Note_off_c, 1, 59, 0
1, 96720, Note_on_c, 1, 75, 127
1, 96912, Note_off_c, 1, 75, 0
1, 96960, Note_on_c, 1, 46, 127
1, 97200, Note_on_c, 1, 70, 127
1, 97296, Note_off_c, 1, 70, 0
1, 97728, Note_off_c, 1, 46, 0
1, 98880, Note_on_c, 1, 43, 127
1, 100320, Note_on_c, 1, 63, 127
1, 100608, Note_off_c, 1, 43, 0
1, 100800, Note_on_c, 1, 41, 127
1, 100896, Note_off_c, 1, 63, 0
1, 103104, Note_off_c, 1, 41, 0
1, 108480, Note_on_c, 1, 66, 127
1, 109056, Note_off_c, 1, 66, 0
1, 111840, Note_on_c, 1, 69, 127
1, 111840, Note_on_c, 1, 52, 127
1, 111840, Note_on_c, 1, 60, 127
1, 111960, Note_on_c, 1, 72, 127
1, 112056, Note_off_c, 1, 72, 0
1, 112080, Note_on_c, 1, 74, 127
1, 112176, Note_off_c, 1, 74, 0
1, 112200, Note_on_c, 1, 76, 127
1, 112224, Note_off_c, 1, 52, 0
1, 112224, Note_off_c, 1, 60, 0
1, 112296, Note_off_c, 1, 76, 0
1, 112320, Note_on_c, 1, 77, 127
1, 112320, Note_on_c, 1, 50, 127
1, 112320, Note_on_c, 1, 59, 127
1, 112416, Note_off_c, 1, 77, 0
1, 112704, Note_off_c, 1, 50, 0
1, 112800, Note_on_c, 1, 71, 127
1, 112896, Note_off_c, 1, 71, 0
1, 113088, Note_off_c, 1, 69, 0
1, 113088, Note_off_c, 1, 59, 0
1, 113160, Note_on_c, 1, 68, 127
1, 113256, Note_off_c, 1, 68, 0
1, 113280, Note_on_c, 1, 57, 127
1, 113280, Note_on_c, 1, 45, 127
1, 113520, Note_on_c, 1, 54, 127
1, 113616, Note_off_c, 1, 54, 0
1, 113640, Note_on_c, 1, 56, 127
1, 113664, Note_off_c, 1, 57, 0
1, 113736, Note_off_c, 1, 56, 0
1, 114000, Note_on_c, 1, 65, 127
1, 114048, Note_off_c, 1, 45, 0
1, 114240, Note_on_c, 1, 55, 127
1, 114240, Note_on_c, 1, 48, 127
1, 114336, Note_off_c, 1, 65, 0
1, 114480, Note_on_c, 1, 67, 127
1, 114576, Note_off_c, 1, 67, 0
1, 114720, Note_on_c, 1, 64, 127
1, 114816, Note_off_c, 1, 55, 0
1, 114816, Note_off_c, 1, 64, 0
1, 114840, Note_on_c, 1, 62, 127
1, 114936, Note_off_c, 1, 62, 0
1, 115008, Note_off_c, 1, 48, 0
1, 115080, Note_on_c, 1, 63, 127
1, 115176, Note_off_c, 1, 63, 0
1, 115200, Note_on_c, 1, 43, 127
1, 115440, Note_on_c, 1, 58, 127
1, 115440, Note_on_c, 1, 70, 127
1, 115536, Note_off_c, 1, 58, 0
1, 115632, Note_off_c, 1, 70, 0
1, 115680, Note_on_c, 1, 66, 127
1, 115872, Note_off_c, 1, 66, 0
1, 115968, Note_off_c, 1, 43, 0
1, 116160, Note_on_c, 1, 67, 127
1, 116160, Note_on_c, 1, 70, 127
1, 116160, Note_on_c, 1, 43, 127
1, 116256, Note_off_c, 1, 67, 0
1, 116256, Note_off_c, 1, 70, 0
1, 116280, Note_on_c, 1, 72, 127
1, 116280, Note_on_c, 1, 69, 127
1, 116376, Note_off_c, 1, 72, 0
1, 116376, Note_off_c, 1, 69, 0
1, 116400, Note_on_c, 1, 74, 127
1, 116496, Note_off_c, 1, 74, 0
1, 116520, Note_on_c, 1, 76, 127
1, 116616, Note_off_c, 1, 76, 0
1, 116640, Note_on_c, 1, 78, 127
1, 116736, Note_off_c, 1, 78, 0
1, 116760, Note_on_c, 1, 79, 127
1, 116856, Note_off_c, 1, 79, 0
1, 116880, Note_on_c, 1, 81, 127
1, 116928, Note_off_c, 1, 43, 0
1, 116976, Note_off_c, 1, 81, 0
1, 117000, Note_on_c, 1, 69, 127
1, 117000, Note_on_c, 1, 78, 127
1, 117096, Note_off_c, 1, 69, 0
1, 117096, Note_off_c, 1, 78, 0
1, 117120, Note_on_c, 1, 67, 127
1, 117120, Note_on_c, 1, 74, 127
1, 117120, Note_on_c, 1, 82, 127
1, 117120, Note_on_c, 1, 43, 127
1, 117240, Note_on_c, 1, 55, 127
1, 117336, Note_off_c, 1, 55, 0
1, 117360, Note_on_c, 1, 57, 127
1, 117456, Note_off_c, 1, 57, 0
1, 117480, Note_on_c, 1, 58, 127
1, 117504, Note_off_c, 1, 67, 0
1, 117576, Note_off_c, 1, 58, 0
1, 117600, Note_on_c, 1, 60, 127
1, 117696, Note_off_c, 1, 74, 0
1, 117696, Note_off_c, 1, 82, 0
1, 117696, Note_off_c, 1, 60, 0
1, 117720, Note_on_c, 1, 62, 127
1, 117816, Note_off_c, 1, 62, 0
1, 117840, Note_on_c, 1, 72, 127
1, 117840, Note_on_c, 1, 81, 127
1, 117840, Note_on_c, 1, 63, 127
1, 117888, Note_off_c, 1, 43, 0
1, 117936, Note_off_c, 1, 63, 0
1, 118200, Note_on_c, 1, 64, 127
1, 118272, Note_off_c, 1, 72, 0
1, 118272, Note_off_c, 1, 81, 0
1, 118296, Note_off_c, 1, 64, 0
1, 118320, Note_on_c, 1, 66, 127
1, 118320, Note_on_c, 1, 70, 127
1, 118320, Note_on_c, 1, 79, 127
1, 118416, Note_off_c, 1, 66, 0
1, 118512, Note_off_c, 1, 70, 0
1, 118560, Note_on_c, 1, 69, 127
1, 118656, Note_off_c, 1, 69, 0
1, 118704, Note_off_c, 1, 79, 0
1, 118800, Note_on_c, 1, 75, 127
1, 118800, Note_on_c, 1, 78, 127
1, 118896, Note_off_c, 1, 75, 0
1, 118992, Note_off_c, 1, 78, 0
1, 119040, Note_on_c, 1, 74, 127
1, 119040, Note_on_c, 1, 70, 127
1, 119040, Note_on_c, 1, 79, 127
1, 119040, Note_on_c, 1, 43, 127
1, 119160, Note_on_c, 1, 65, 127
1, 119256, Note_off_c, 1, 65, 0
1, 119280, Note_on_c, 1, 64, 127
1, 119376, Note_off_c, 1, 64, 0
1, 119400, Note_on_c, 1, 62, 127
1, 119424, Note_off_c, 1, 74, 0
1, 119496, Note_off_c, 1, 62, 0
1, 119520, Note_on_c, 1, 76, 127
1, 119520, Note_on_c, 1, 61, 127
1, 119616, Note_off_c, 1, 61, 0
1, 119808, Note_off_c, 1, 43, 0
1, 120000, Note_on_c, 1, 38, 127
1, 120096, Note_off_c, 1, 70, 0
1, 120192, Note_off_c, 1, 79, 0
1, 120192, Note_off_c, 1, 76, 0
1, 120240, Note_on_c, 1, 77, 127
1, 120240, Note_on_c, 1, 69, 127
1, 120336, Note_off_c, 1, 77, 0
1, 120336, Note_off_c, 1, 69, 0
1, 120360, Note_on_c, 1, 73, 127
1, 120360, Note_on_c, 1, 67, 127
1, 120456, Note_off_c, 1, 73, 0
1, 120456, Note_off_c, 1, 67, 0
1, 120768, Note_off_c, 1, 38, 0
1, 120960, Note_on_c, 1, 81, 127
1, 120960, Note_on_c, 1, 62, 127
1, 120960, Note_on_c, 1, 41, 127
1, 121080, Note_on_c, 1, 69, 127
1, 121176, Note_off_c, 1, 69, 0
1, 121200, Note_on_c, 1, 71, 127
1, 121296, Note_off_c, 1, 71, 0
1, 121320, Note_on_c, 1, 73, 127
1, 121416, Note_off_c, 1, 73, 0
1, 121440, Note_on_c, 1, 74, 127
1, 121536, Note_off_c, 1, 74, 0
1, 121560, Note_on_c, 1, 76, 127
1, 121656, Note_off_c, 1, 76, 0
1, 121680, Note_on_c, 1, 77, 127
1, 121728, Note_off_c, 1, 81, 0
1, 121728, Note_off_c, 1, 41, 0
1, 121776, Note_off_c, 1, 77, 0
1, 121920, Note_on_c, 1, 82, 127
1, 121920, Note_on_c, 1, 79, 127
1, 121920, Note_on_c, 1, 40, 127
1, 122040, Note_on_c, 1, 50, 127
1, 122112, Note_off_c, 1, 82, 0
1, 122112, Note_off_c, 1, 79, 0
1, 122136, Note_off_c, 1, 50, 0
1, 122160, Note_on_c, 1, 52, 127
1, 122256, Note_off_c, 1, 52, 0
1, 122280, Note_on_c, 1, 53, 127
1, 122376, Note_off_c, 1, 53, 0
1, 122400, Note_on_c, 1, 55, 127
1, 122496, Note_off_c, 1, 55, 0
1, 122520, Note_on_c, 1, 57, 127
1, 122616, Note_off_c, 1, 57, 0
1, 122640, Note_on_c, 1, 58, 127
1, 122688, Note_off_c, 1, 62, 0
1, 122736, Note_off_c, 1, 58, 0
1, 122880, Note_on_c, 1, 61, 127
1, 123072, Note_off_c, 1, 61, 0
1, 123360, Note_on_c, 1, 64, 127
1, 123480, Note_on_c, 1, 78, 127
1, 123576, Note_off_c, 1, 78, 0
1, 123600, Note_on_c, 1, 72, 127
1, 123648, Note_off_c, 1, 40, 0
1, 123744, Note_off_c, 1, 64, 0
1, 123840, Note_on_c, 1, 60, 127
1, 123840, Note_on_c, 1, 38, 127
1, 123936, Note_off_c, 1, 72, 0
1, 123960, Note_on_c, 1, 75, 127
1, 124056, Note_off_c, 1, 75, 0
1, 124224, Note_off_c, 1, 60, 0
1, 124320, Note_on_c, 1, 70, 127
1, 124416, Note_off_c, 1, 70, 0
1, 124560, Note_on_c, 1, 67, 127
1, 124656, Note_off_c, 1, 67, 0
1, 124800, Note_on_c, 1, 66, 127
1, 124920, Note_on_c, 1, 63, 127
1, 125016, Note_off_c, 1, 63, 0
1, 125184, Note_off_c, 1, 66, 0
1, 125760, Note_on_c, 1, 54, 127
1, 125952, Note_off_c, 1, 54, 0
1, 126720, Note_on_c, 1, 49, 127
1, 126840, Note_on_c, 1, 65, 127
1, 126912, Note_off_c, 1, 49, 0
1, 126936, Note_off_c, 1, 65, 0
1, 127872, Note_off_c, 1, 38, 0
1, 127920, Note_on_c, 1, 64, 127
1, 127920, Note_on_c, 1, 40, 127
1, 128016, Note_off_c, 1, 64, 0
1, 128040, Note_on_c, 1, 62, 127
1, 128112, Note_off_c, 1, 40, 0
1, 128136, Note_off_c, 1, 62, 0
1, 128160, Note_on_c, 1, 74, 127
1, 128160, Note_on_c, 1, 41, 127
1, 128352, Note_off_c, 1, 41, 0
1, 128400, Note_on_c, 1, 64, 127
1, 128400, Note_on_c, 1, 58, 127
1, 128400, Note_on_c, 1, 55, 127
1, 128400, Note_on_c, 1, 43, 127
1, 128592, Note_off_c, 1, 64, 0
1, 128592, Note_off_c, 1, 58, 0
1, 128592, Note_off_c, 1, 55, 0
1, 128592, Note_off_c, 1, 43, 0
1, 128640, Note_on_c, 1, 65, 127
1, 128640, Note_on_c, 1, 53, 127
1, 128640, Note_on_c, 1, 57, 127
1, 128640, Note_on_c, 1, 45, 127
1, 128736, Note_off_c, 1, 65, 0
1, 128760, Note_on_c, 1, 69, 127
1, 128832, Note_off_c, 1, 53, 0
1, 128856, Note_off_c, 1, 69, 0
1, 128880, Note_on_c, 1, 67, 127
1, 128880, Note_on_c, 1, 52, 127
1, 128976, Note_off_c, 1, 67, 0
1, 128976, Note_off_c, 1, 52, 0
1, 129000, Note_on_c, 1, 50, 127
1, 129024, Note_off_c, 1, 74, 0
1, 129096, Note_off_c, 1, 50, 0
1, 129120, Note_on_c, 1, 73, 127
1, 129240, Note_on_c, 1, 66, 127
1, 129336, Note_off_c, 1, 66, 0
1, 129408, Note_off_c, 1, 45, 0
1, 129504, Note_off_c, 1, 73, 0
1, 129600, Note_on_c, 1, 38, 127
1, 130368, Note_off_c, 1, 57, 0
1, 130368, Note_off_c, 1, 38, 0
1, 130368, End_track
0, 0, End_of_file