0, 0, Header, 1, 1, 480
1, 0, Start_track
1, 0, Title_t, "Test"
1, 0, Tempo, 500000
1, 0, Instrument_name_t, "Church Organ"
1, 88, Note_on_c, 1, 43, 127
1, 265, Note_on_c, 1, 62, 127
1, 438, Note_off_c, 1, 62, 0
1, 443, Note_on_c, 1, 64, 127
1, 616, Note_off_c, 1, 64, 0
1, 620, Note_on_c, 1, 66, 127
1, 793, Note_off_c, 1, 66, 0
1, 798, Note_on_c, 1, 67, 127
1, 971, Note_off_c, 1, 67, 0
1, 975, Note_off_c, 1, 43, 0
1, 976, Note_on_c, 1, 69, 127
1, 1149, Note_off_c, 1, 69, 0
1, 1153, Note_on_c, 1, 70, 127
1, 1153, Note_on_c, 1, 55, 127
1, 1326, Note_off_c, 1, 70, 0
1, 1331, Note_on_c, 1, 67, 127
1, 1503, Note_off_c, 1, 55, 0
1, 1504, Note_off_c, 1, 67, 0
1, 1508, Note_on_c, 1, 69, 127
1, 1508, Note_on_c, 1, 54, 127
1, 1681, Note_off_c, 1, 69, 0
1, 1681, Note_off_c, 1, 54, 0
1, 1685, Note_on_c, 1, 67, 127
1, 1685, Note_on_c, 1, 55, 127
1, 1858, Note_off_c, 1, 67, 0
1, 1858, Note_off_c, 1, 55, 0
1, 1863, Note_on_c, 1, 66, 127
1, 1863, Note_on_c, 1, 57, 127
1, 2036, Note_off_c, 1, 66, 0
1, 2036, Note_off_c, 1, 57, 0
1, 2040, Note_on_c, 1, 64, 127
1, 2040, Note_on_c, 1, 55, 127
1, 2213, Note_off_c, 1, 64, 0
1, 2213, Note_off_c, 1, 55, 0
1, 2219, Note_on_c, 1, 62, 127
1, 2219, Note_on_c, 1, 54, 127
1, 2392, Note_off_c, 1, 62, 0
1, 2396, Note_on_c, 1, 72, 127
1, 2533, Note_off_c, 1, 54, 0
1, 2569, Note_off_c, 1, 72, 0
1, 2573, Note_on_c, 1, 70, 127
1, 2573, Note_on_c, 1, 53, 127
1, 2746, Note_off_c, 1, 70, 0
1, 2751, Note_on_c, 1, 69, 127
1, 2887, Note_off_c, 1, 53, 0
1, 2924, Note_off_c, 1, 69, 0
1, 2928, Note_on_c, 1, 67, 127
1, 2928, Note_on_c, 1, 52, 127
1, 3101, Note_off_c, 1, 67, 0
1, 3101, Note_off_c, 1, 52, 0
1, 3106, Note_on_c, 1, 65, 127
1, 3106, Note_on_c, 1, 53, 127
1, 3279, Note_off_c, 1, 65, 0
1, 3279, Note_off_c, 1, 53, 0
1, 3283, Note_on_c, 1, 64, 127
1, 3283, Note_on_c, 1, 55, 127
1, 3456, Note_off_c, 1, 64, 0
1, 3456, Note_off_c, 1, 55, 0
1, 3460, Note_on_c, 1, 62, 127
1, 3460, Note_on_c, 1, 53, 127
1, 3633, Note_off_c, 1, 62, 0
1, 3633, Note_off_c, 1, 53, 0
1, 3639, Note_on_c, 1, 60, 127
1, 3639, Note_on_c, 1, 52, 127
1, 3812, Note_off_c, 1, 60, 0
1, 3816, Note_on_c, 1, 70, 127
1, 3953, Note_off_c, 1, 52, 0
1, 3989, Note_off_c, 1, 70, 0
1, 3994, Note_on_c, 1, 69, 127
1, 3994, Note_on_c, 1, 51, 127
1, 4167, Note_off_c, 1, 69, 0
1, 4171, Note_on_c, 1, 67, 127
1, 4308, Note_off_c, 1, 51, 0
1, 4344, Note_off_c, 1, 67, 0
1, 4348, Note_on_c, 1, 74, 127
1, 4348, Note_on_c, 1, 50, 127
1, 4521, Note_off_c, 1, 74, 0
1, 4526, Note_on_c, 1, 72, 127
1, 4670, Note_off_c, 1, 50, 0
1, 4699, Note_off_c, 1, 72, 0
1, 4703, Note_on_c, 1, 55, 127
1, 4703, Note_on_c, 1, 70, 127
1, 4787, Note_off_c, 1, 55, 0
1, 4793, Note_on_c, 1, 54, 127
1, 4876, Note_off_c, 1, 70, 0
1, 4877, Note_off_c, 1, 54, 0
1, 4881, Note_on_c, 1, 74, 127
1, 4881, Note_on_c, 1, 55, 127
1, 5054, Note_off_c, 1, 74, 0
1, 5059, Note_on_c, 1, 72, 127
1, 5232, Note_off_c, 1, 72, 0
1, 5237, Note_on_c, 1, 70, 127
1, 5409, Note_off_c, 1, 55, 0
1, 5410, Note_off_c, 1, 70, 0
1, 5414, Note_on_c, 1, 69, 127
1, 5414, Note_on_c, 1, 54, 127
1, 5587, Note_off_c, 1, 69, 0
1, 5591, Note_on_c, 1, 72, 127
1, 5764, Note_off_c, 1, 54, 0
1, 5764, Note_off_c, 1, 72, 0
1, 5769, Note_on_c, 1, 70, 127
1, 5769, Note_on_c, 1, 55, 127
1, 5942, Note_off_c, 1, 70, 0
1, 5942, Note_off_c, 1, 55, 0
1, 5946, Note_on_c, 1, 69, 127
1, 5946, Note_on_c, 1, 50, 127
1, 6119, Note_off_c, 1, 69, 0
1, 6119, Note_off_c, 1, 50, 0
1, 6124, Note_on_c, 1, 67, 127
1, 6124, Note_on_c, 1, 52, 127
1, 6297, Note_off_c, 1, 67, 0
1, 6297, Note_off_c, 1, 52, 0
1, 6301, Note_on_c, 1, 69, 127
1, 6301, Note_on_c, 1, 54, 127
1, 6474, Note_off_c, 1, 69, 0
1, 6474, Note_off_c, 1, 54, 0
1, 6479, Note_on_c, 1, 70, 127
1, 6479, Note_on_c, 1, 55, 127
1, 6652, Note_off_c, 1, 70, 0
1, 6652, Note_off_c, 1, 55, 0
1, 6657, Note_on_c, 1, 72, 127
1, 6657, Note_on_c, 1, 57, 127
1, 6830, Note_off_c, 1, 72, 0
1, 6830, Note_off_c, 1, 57, 0
1, 6834, Note_on_c, 1, 74, 127
1, 6834, Note_on_c, 1, 58, 127
1, 7007, Note_off_c, 1, 74, 0
1, 7007, Note_off_c, 1, 58, 0
1, 7012, Note_on_c, 1, 76, 127
1, 7012, Note_on_c, 1, 55, 127
1, 7185, Note_off_c, 1, 76, 0
1, 7185, Note_off_c, 1, 55, 0
1, 7189, Note_on_c, 1, 77, 127
1, 7189, Note_on_c, 1, 57, 127
1, 7263, Note_on_c, 1, 76, 127
1, 7273, Note_off_c, 1, 77, 0
1, 7347, Note_off_c, 1, 76, 0
1, 7362, Note_off_c, 1, 57, 0
1, 7366, Note_on_c, 1, 55, 127
1, 7539, Note_off_c, 1, 55, 0
1, 7544, Note_on_c, 1, 53, 127
1, 7544, Note_on_c, 1, 74, 127
1, 7717, Note_off_c, 1, 53, 0
1, 7721, Note_on_c, 1, 52, 127
1, 7876, Note_off_c, 1, 74, 0
1, 7894, Note_off_c, 1, 52, 0
1, 7900, Note_on_c, 1, 50, 127
1, 8073, Note_off_c, 1, 50, 0
1, 8077, Note_on_c, 1, 60, 127
1, 8250, Note_off_c, 1, 60, 0
1, 8254, Note_on_c, 1, 58, 127
1, 8254, Note_on_c, 1, 74, 127
1, 8427, Note_off_c, 1, 58, 0
1, 8432, Note_on_c, 1, 57, 127
1, 8595, Note_off_c, 1, 74, 0
1, 8605, Note_off_c, 1, 57, 0
1, 8609, Note_on_c, 1, 75, 127
1, 8609, Note_on_c, 1, 55, 127
1, 8782, Note_off_c, 1, 75, 0
1, 8782, Note_off_c, 1, 55, 0
1, 8787, Note_on_c, 1, 74, 127
1, 8787, Note_on_c, 1, 53, 127
1, 8960, Note_off_c, 1, 74, 0
1, 8960, Note_off_c, 1, 53, 0
1, 8964, Note_on_c, 1, 72, 127
1, 8964, Note_on_c, 1, 51, 127
1, 9137, Note_off_c, 1, 72, 0
1, 9137, Note_off_c, 1, 51, 0
1, 9142, Note_on_c, 1, 74, 127
1, 9142, Note_on_c, 1, 50, 127
1, 9315, Note_off_c, 1, 74, 0
1, 9315, Note_off_c, 1, 50, 0
1, 9320, Note_on_c, 1, 48, 127
1, 9320, Note_on_c, 1, 75, 127
1, 9493, Note_off_c, 1, 48, 0
1, 9497, Note_on_c, 1, 58, 127
1, 9597, Note_off_c, 1, 75, 0
1, 9670, Note_off_c, 1, 58, 0
1, 9675, Note_on_c, 1, 57, 127
1, 9675, Note_on_c, 1, 76, 127
1, 9848, Note_off_c, 1, 57, 0
1, 9852, Note_on_c, 1, 55, 127
1, 9952, Note_off_c, 1, 76, 0
1, 10025, Note_off_c, 1, 55, 0
1, 10030, Note_on_c, 1, 77, 127
1, 10030, Note_on_c, 1, 62, 127
1, 10203, Note_off_c, 1, 77, 0
1, 10203, Note_off_c, 1, 62, 0
1, 10207, Note_on_c, 1, 76, 127
1, 10207, Note_on_c, 1, 60, 127
1, 10380, Note_off_c, 1, 76, 0
1, 10380, Note_off_c, 1, 60, 0
1, 10384, Note_on_c, 1, 74, 127
1, 10384, Note_on_c, 1, 58, 127
1, 10557, Note_off_c, 1, 74, 0
1, 10557, Note_off_c, 1, 58, 0
1, 10562, Note_on_c, 1, 76, 127
1, 10562, Note_on_c, 1, 62, 127
1, 10735, Note_off_c, 1, 76, 0
1, 10735, Note_off_c, 1, 62, 0
1, 10740, Note_on_c, 1, 60, 127
1, 10740, Note_on_c, 1, 77, 127
1, 10913, Note_off_c, 1, 60, 0
1, 10918, Note_on_c, 1, 58, 127
1, 11017, Note_off_c, 1, 77, 0
1, 11091, Note_off_c, 1, 58, 0
1, 11095, Note_on_c, 1, 57, 127
1, 11095, Note_on_c, 1, 78, 127
1, 11268, Note_off_c, 1, 57, 0
1, 11272, Note_on_c, 1, 60, 127
1, 11372, Note_off_c, 1, 78, 0
1, 11445, Note_off_c, 1, 60, 0
1, 11450, Note_on_c, 1, 58, 127
1, 11450, Note_on_c, 1, 79, 127
1, 11623, Note_off_c, 1, 58, 0
1, 11627, Note_on_c, 1, 57, 127
1, 11800, Note_off_c, 1, 79, 0
1, 11800, Note_off_c, 1, 57, 0
1, 11805, Note_on_c, 1, 74, 127
1, 11805, Note_on_c, 1, 55, 127
1, 11978, Note_off_c, 1, 74, 0
1, 11978, Note_off_c, 1, 55, 0
1, 11982, Note_on_c, 1, 72, 127
1, 11982, Note_on_c, 1, 57, 127
1, 12155, Note_off_c, 1, 72, 0
1, 12155, Note_off_c, 1, 57, 0
1, 12160, Note_on_c, 1, 74, 127
1, 12160, Note_on_c, 1, 58, 127
1, 12333, Note_off_c, 1, 74, 0
1, 12333, Note_off_c, 1, 58, 0
1, 12338, Note_on_c, 1, 75, 127
1, 12338, Note_on_c, 1, 60, 127
1, 12511, Note_off_c, 1, 75, 0
1, 12511, Note_off_c, 1, 60, 0
1, 12515, Note_on_c, 1, 77, 127
1, 12515, Note_on_c, 1, 62, 127
1, 12688, Note_off_c, 1, 77, 0
1, 12688, Note_off_c, 1, 62, 0
1, 12693, Note_on_c, 1, 74, 127
1, 12693, Note_on_c, 1, 58, 127
1, 12866, Note_off_c, 1, 74, 0
1, 12866, Note_off_c, 1, 58, 0
1, 12870, Note_on_c, 1, 75, 127
1, 12870, Note_on_c, 1, 60, 127
1, 13043, Note_off_c, 1, 75, 0
1, 13047, Note_on_c, 1, 74, 127
1, 13202, Note_off_c, 1, 60, 0
1, 13220, Note_off_c, 1, 74, 0
1, 13225, Note_on_c, 1, 72, 127
1, 13225, Note_on_c, 1, 51, 127
1, 13398, Note_off_c, 1, 72, 0
1, 13402, Note_on_c, 1, 70, 127
1, 13557, Note_off_c, 1, 51, 0
1, 13575, Note_off_c, 1, 70, 0
1, 13580, Note_on_c, 1, 53, 127
1, 13580, Note_on_c, 1, 69, 127
1, 13664, Note_off_c, 1, 53, 0
1, 13669, Note_on_c, 1, 51, 127
1, 13753, Note_off_c, 1, 69, 0
1, 13753, Note_off_c, 1, 51, 0
1, 13758, Note_on_c, 1, 79, 127
1, 13758, Note_on_c, 1, 53, 127
1, 13931, Note_off_c, 1, 79, 0
1, 13931, Note_off_c, 1, 53, 0
1, 13936, Note_on_c, 1, 77, 127
1, 13936, Note_on_c, 1, 41, 127
1, 14109, Note_off_c, 1, 77, 0
1, 14113, Note_on_c, 1, 75, 127
1, 14268, Note_off_c, 1, 41, 0
1, 14286, Note_off_c, 1, 75, 0
1, 14290, Note_on_c, 1, 74, 127
1, 14290, Note_on_c, 1, 46, 127
1, 14463, Note_off_c, 1, 74, 0
1, 14468, Note_on_c, 1, 72, 127
1, 14640, Note_off_c, 1, 46, 0
1, 14641, Note_off_c, 1, 72, 0
1, 14645, Note_on_c, 1, 74, 127
1, 14645, Note_on_c, 1, 58, 127
1, 14818, Note_off_c, 1, 74, 0
1, 14823, Note_on_c, 1, 76, 127
1, 14995, Note_off_c, 1, 58, 0
1, 14996, Note_off_c, 1, 76, 0
1, 15000, Note_on_c, 1, 77, 127
1, 15000, Note_on_c, 1, 57, 127
1, 15173, Note_off_c, 1, 77, 0
1, 15178, Note_on_c, 1, 79, 127
1, 15332, Note_off_c, 1, 57, 0
1, 15351, Note_off_c, 1, 79, 0
1, 15356, Note_on_c, 1, 81, 127
1, 15356, Note_on_c, 1, 62, 127
1, 15529, Note_off_c, 1, 81, 0
1, 15533, Note_on_c, 1, 77, 127
1, 15688, Note_off_c, 1, 62, 0
1, 15706, Note_off_c, 1, 77, 0
1, 15711, Note_on_c, 1, 79, 127
1, 15711, Note_on_c, 1, 58, 127
1, 15884, Note_off_c, 1, 79, 0
1, 15888, Note_on_c, 1, 77, 127
1, 16061, Note_off_c, 1, 58, 0
1, 16061, Note_off_c, 1, 77, 0
1, 16065, Note_on_c, 1, 76, 127
1, 16065, Note_on_c, 1, 55, 127
1, 16238, Note_off_c, 1, 76, 0
1, 16243, Note_on_c, 1, 74, 127
1, 16397, Note_off_c, 1, 55, 0
1, 16416, Note_off_c, 1, 74, 0
1, 16420, Note_on_c, 1, 57, 127
1, 16420, Note_on_c, 1, 73, 127
1, 16504, Note_off_c, 1, 57, 0
1, 16509, Note_on_c, 1, 55, 127
1, 16593, Note_off_c, 1, 73, 0
1, 16593, Note_off_c, 1, 55, 0
1, 16599, Note_on_c, 1, 82, 127
1, 16599, Note_on_c, 1, 57, 127
1, 16772, Note_off_c, 1, 82, 0
1, 16772, Note_off_c, 1, 57, 0
1, 16776, Note_on_c, 1, 81, 127
1, 16776, Note_on_c, 1, 45, 127
1, 16949, Note_off_c, 1, 81, 0
1, 16953, Note_on_c, 1, 79, 127
1, 17108, Note_off_c, 1, 45, 0
1, 17126, Note_off_c, 1, 79, 0
1, 17131, Note_on_c, 1, 77, 127
1, 17131, Note_on_c, 1, 38, 127
1, 17215, Note_off_c, 1, 77, 0
1, 17220, Note_on_c, 1, 76, 127
1, 17304, Note_off_c, 1, 38, 0
1, 17304, Note_off_c, 1, 76, 0
1, 17308, Note_on_c, 1, 45, 127
1, 17308, Note_on_c, 1, 77, 127
1, 17481, Note_off_c, 1, 45, 0
1, 17486, Note_on_c, 1, 47, 127
1, 17659, Note_off_c, 1, 47, 0
1, 17663, Note_on_c, 1, 49, 127
1, 17836, Note_off_c, 1, 49, 0
1, 17840, Note_on_c, 1, 50, 127
1, 17936, Note_off_c, 1, 77, 0
1, 18013, Note_off_c, 1, 50, 0
1, 18019, Note_on_c, 1, 79, 127
1, 18019, Note_on_c, 1, 52, 127
1, 18192, Note_off_c, 1, 79, 0
1, 18192, Note_off_c, 1, 52, 0
1, 18196, Note_on_c, 1, 81, 127
1, 18196, Note_on_c, 1, 53, 127
1, 18369, Note_off_c, 1, 81, 0
1, 18369, Note_off_c, 1, 53, 0
1, 18374, Note_on_c, 1, 82, 127
1, 18374, Note_on_c, 1, 50, 127
1, 18547, Note_off_c, 1, 82, 0
1, 18547, Note_off_c, 1, 50, 0
1, 18551, Note_on_c, 1, 73, 127
1, 18551, Note_on_c, 1, 52, 127
1, 18724, Note_off_c, 1, 73, 0
1, 18724, Note_off_c, 1, 52, 0
1, 18729, Note_on_c, 1, 74, 127
1, 18729, Note_on_c, 1, 50, 127
1, 18902, Note_off_c, 1, 74, 0
1, 18902, Note_off_c, 1, 50, 0
1, 18906, Note_on_c, 1, 76, 127
1, 18906, Note_on_c, 1, 49, 127
1, 19079, Note_off_c, 1, 76, 0
1, 19079, Note_off_c, 1, 49, 0
1, 19083, Note_on_c, 1, 74, 127
1, 19083, Note_on_c, 1, 47, 127
1, 19256, Note_off_c, 1, 74, 0
1, 19256, Note_off_c, 1, 47, 0
1, 19261, Note_on_c, 1, 45, 127
1, 19261, Note_on_c, 1, 73, 127
1, 19434, Note_off_c, 1, 45, 0
1, 19439, Note_on_c, 1, 55, 127
1, 19556, Note_off_c, 1, 73, 0
1, 19612, Note_off_c, 1, 55, 0
1, 19617, Note_on_c, 1, 53, 127
1, 19617, Note_on_c, 1, 72, 127
1, 19790, Note_off_c, 1, 53, 0
1, 19794, Note_on_c, 1, 52, 127
1, 19912, Note_off_c, 1, 72, 0
1, 19967, Note_off_c, 1, 52, 0
1, 19971, Note_on_c, 1, 71, 127
1, 19971, Note_on_c, 1, 50, 127
1, 20144, Note_off_c, 1, 71, 0
1, 20144, Note_off_c, 1, 50, 0
1, 20149, Note_on_c, 1, 72, 127
1, 20149, Note_on_c, 1, 48, 127
1, 20322, Note_off_c, 1, 72, 0
1, 20322, Note_off_c, 1, 48, 0
1, 20326, Note_on_c, 1, 74, 127
1, 20326, Note_on_c, 1, 47, 127
1, 20499, Note_off_c, 1, 74, 0
1, 20499, Note_off_c, 1, 47, 0
1, 20504, Note_on_c, 1, 72, 127
1, 20504, Note_on_c, 1, 45, 127
1, 20677, Note_off_c, 1, 72, 0
1, 20677, Note_off_c, 1, 45, 0
1, 20681, Note_on_c, 1, 43, 127
1, 20681, Note_on_c, 1, 71, 127
1, 20854, Note_off_c, 1, 43, 0
1, 20859, Note_on_c, 1, 53, 127
1, 20976, Note_off_c, 1, 71, 0
1, 21032, Note_off_c, 1, 53, 0
1, 21037, Note_on_c, 1, 52, 127
1, 21037, Note_on_c, 1, 70, 127
1, 21210, Note_off_c, 1, 52, 0
1, 21214, Note_on_c, 1, 50, 127
1, 21332, Note_off_c, 1, 70, 0
1, 21387, Note_off_c, 1, 50, 0
1, 21392, Note_on_c, 1, 57, 127
1, 21392, Note_on_c, 1, 69, 127
1, 21565, Note_off_c, 1, 57, 0
1, 21569, Note_on_c, 1, 55, 127
1, 21733, Note_off_c, 1, 69, 0
1, 21742, Note_off_c, 1, 55, 0
1, 21746, Note_on_c, 1, 74, 127
1, 21746, Note_on_c, 1, 53, 127
1, 21830, Note_off_c, 1, 74, 0
1, 21836, Note_on_c, 1, 73, 127
1, 21919, Note_off_c, 1, 53, 0
1, 21920, Note_off_c, 1, 73, 0
1, 21924, Note_on_c, 1, 57, 127
1, 21924, Note_on_c, 1, 74, 127
1, 22097, Note_off_c, 1, 57, 0
1, 22101, Note_on_c, 1, 55, 127
1, 22274, Note_off_c, 1, 55, 0
1, 22280, Note_on_c, 1, 53, 127
1, 22452, Note_off_c, 1, 74, 0
1, 22453, Note_off_c, 1, 53, 0
1, 22457, Note_on_c, 1, 52, 127
1, 22457, Note_on_c, 1, 73, 127
1, 22630, Note_off_c, 1, 52, 0
1, 22634, Note_on_c, 1, 55, 127
1, 22771, Note_off_c, 1, 73, 0
1, 22807, Note_off_c, 1, 55, 0
1, 22812, Note_on_c, 1, 53, 127
1, 22812, Note_on_c, 1, 69, 127
1, 22985, Note_off_c, 1, 53, 0
1, 22989, Note_on_c, 1, 52, 127
1, 23157, Note_off_c, 1, 69, 0
1, 23162, Note_off_c, 1, 52, 0
1, 23167, Note_on_c, 1, 77, 127
1, 23167, Note_on_c, 1, 50, 127
1, 23251, Note_off_c, 1, 77, 0
1, 23256, Note_on_c, 1, 76, 127
1, 23340, Note_off_c, 1, 50, 0
1, 23340, Note_off_c, 1, 76, 0
1, 23344, Note_on_c, 1, 53, 127
1, 23344, Note_on_c, 1, 77, 127
1, 23517, Note_off_c, 1, 53, 0
1, 23522, Note_on_c, 1, 52, 127
1, 23695, Note_off_c, 1, 52, 0
1, 23700, Note_on_c, 1, 50, 127
1, 23872, Note_off_c, 1, 77, 0
1, 23873, Note_off_c, 1, 50, 0
1, 23877, Note_on_c, 1, 49, 127
1, 23877, Note_on_c, 1, 76, 127
1, 24050, Note_off_c, 1, 49, 0
1, 24055, Note_on_c, 1, 52, 127
1, 24191, Note_off_c, 1, 76, 0
1, 24228, Note_off_c, 1, 52, 0
1, 24232, Note_on_c, 1, 50, 127
1, 24232, Note_on_c, 1, 69, 127
1, 24405, Note_off_c, 1, 50, 0
1, 24410, Note_on_c, 1, 52, 127
1, 24564, Note_off_c, 1, 69, 0
1, 24583, Note_off_c, 1, 52, 0
1, 24587, Note_on_c, 1, 81, 127
1, 24587, Note_on_c, 1, 53, 127
1, 24671, Note_off_c, 1, 81, 0
1, 24676, Note_on_c, 1, 79, 127
1, 24760, Note_off_c, 1, 53, 0
1, 24760, Note_off_c, 1, 79, 0
1, 24764, Note_on_c, 1, 50, 127
1, 24764, Note_on_c, 1, 81, 127
1, 24937, Note_off_c, 1, 50, 0
1, 24942, Note_on_c, 1, 55, 127
1, 25115, Note_off_c, 1, 55, 0
1, 25120, Note_on_c, 1, 57, 127
1, 25266, Note_off_c, 1, 81, 0
1, 25293, Note_off_c, 1, 57, 0
1, 25298, Note_on_c, 1, 58, 127
1, 25298, Note_on_c, 1, 79, 127
1, 25471, Note_off_c, 1, 58, 0
1, 25475, Note_on_c, 1, 55, 127
1, 25648, Note_off_c, 1, 55, 0
1, 25652, Note_on_c, 1, 61, 127
1, 25825, Note_off_c, 1, 61, 0
1, 25830, Note_on_c, 1, 57, 127
1, 26003, Note_off_c, 1, 79, 0
1, 26003, Note_off_c, 1, 57, 0
1, 26007, Note_on_c, 1, 77, 127
1, 26007, Note_on_c, 1, 59, 127
1, 26180, Note_off_c, 1, 77, 0
1, 26180, Note_off_c, 1, 59, 0
1, 26185, Note_on_c, 1, 76, 127
1, 26185, Note_on_c, 1, 61, 127
1, 26358, Note_off_c, 1, 76, 0
1, 26358, Note_off_c, 1, 61, 0
1, 26362, Note_on_c, 1, 77, 127
1, 26362, Note_on_c, 1, 62, 127
1, 26535, Note_off_c, 1, 77, 0
1, 26535, Note_off_c, 1, 62, 0
1, 26540, Note_on_c, 1, 74, 127
1, 26540, Note_on_c, 1, 53, 127
1, 26713, Note_off_c, 1, 74, 0
1, 26713, Note_off_c, 1, 53, 0
1, 26718, Note_on_c, 1, 76, 127
1, 26718, Note_on_c, 1, 55, 127
1, 26891, Note_off_c, 1, 76, 0
1, 26891, Note_off_c, 1, 55, 0
1, 26895, Note_on_c, 1, 73, 127
1, 26895, Note_on_c, 1, 57, 127
1, 27068, Note_off_c, 1, 73, 0
1, 27068, Note_off_c, 1, 57, 0
1, 27073, Note_on_c, 1, 58, 127
1, 27073, Note_on_c, 1, 74, 127
1, 27246, Note_off_c, 1, 58, 0
1, 27250, Note_on_c, 1, 52, 127
1, 27324, Note_off_c, 1, 74, 0
1, 27339, Note_on_c, 1, 76, 127
1, 27423, Note_off_c, 1, 52, 0
1, 27423, Note_off_c, 1, 76, 0
1, 27428, Note_on_c, 1, 74, 127
1, 27428, Note_on_c, 1, 53, 127
1, 27512, Note_off_c, 1, 74, 0
1, 27517, Note_on_c, 1, 73, 127
1, 27601, Note_off_c, 1, 53, 0
1, 27601, Note_off_c, 1, 73, 0
1, 27605, Note_on_c, 1, 74, 127
1, 27605, Note_on_c, 1, 55, 127
1, 27689, Note_off_c, 1, 74, 0
1, 27694, Note_on_c, 1, 76, 127
1, 27778, Note_off_c, 1, 55, 0
1, 27778, Note_off_c, 1, 76, 0
1, 27782, Note_on_c, 1, 77, 127
1, 27782, Note_on_c, 1, 57, 127
1, 27898, Note_off_c, 1, 77, 0
1, 27901, Note_on_c, 1, 76, 127
1, 27960, Note_off_c, 1, 76, 0
1, 28138, Note_on_c, 1, 45, 127
1, 28299, Note_off_c, 1, 57, 0
1, 28316, Note_on_c, 1, 74, 127
1, 28488, Note_off_c, 1, 45, 0
1, 28489, Note_off_c, 1, 74, 0
1, 28493, Note_on_c, 1, 74, 127
1, 28493, Note_on_c, 1, 50, 127
1, 28843, Note_off_c, 1, 74, 0
1, 28848, Note_on_c, 1, 72, 127
1, 29021, Note_off_c, 1, 72, 0
1, 29025, Note_on_c, 1, 70, 127
1, 29198, Note_off_c, 1, 70, 0
1, 29203, Note_on_c, 1, 69, 127
1, 29324, Note_off_c, 1, 50, 0
1, 29376, Note_off_c, 1, 69, 0
1, 29380, Note_on_c, 1, 70, 127
1, 29380, Note_on_c, 1, 50, 127
1, 29553, Note_off_c, 1, 70, 0
1, 29553, Note_off_c, 1, 50, 0
1, 29558, Note_on_c, 1, 72, 127
1, 29558, Note_on_c, 1, 52, 127
1, 29731, Note_off_c, 1, 72, 0
1, 29731, Note_off_c, 1, 52, 0
1, 29736, Note_on_c, 1, 69, 127
1, 29736, Note_on_c, 1, 53, 127
1, 29909, Note_off_c, 1, 69, 0
1, 29909, Note_off_c, 1, 53, 0
1, 29913, Note_on_c, 1, 70, 127
1, 29913, Note_on_c, 1, 55, 127
1, 30086, Note_off_c, 1, 70, 0
1, 30086, Note_off_c, 1, 55, 0
1, 30091, Note_on_c, 1, 69, 127
1, 30091, Note_on_c, 1, 57, 127
1, 30264, Note_off_c, 1, 69, 0
1, 30264, Note_off_c, 1, 57, 0
1, 30268, Note_on_c, 1, 67, 127
1, 30268, Note_on_c, 1, 58, 127
1, 30441, Note_off_c, 1, 67, 0
1, 30441, Note_off_c, 1, 58, 0
1, 30445, Note_on_c, 1, 65, 127
1, 30445, Note_on_c, 1, 55, 127
1, 30618, Note_off_c, 1, 65, 0
1, 30618, Note_off_c, 1, 55, 0
1, 30623, Note_on_c, 1, 60, 127
1, 30623, Note_on_c, 1, 64, 127
1, 30707, Note_off_c, 1, 60, 0
1, 30712, Note_on_c, 1, 58, 127
1, 30796, Note_off_c, 1, 64, 0
1, 30796, Note_off_c, 1, 58, 0
1, 30800, Note_on_c, 1, 74, 127
1, 30800, Note_on_c, 1, 60, 127
1, 30973, Note_off_c, 1, 74, 0
1, 30973, Note_off_c, 1, 60, 0
1, 30979, Note_on_c, 1, 72, 127
1, 30979, Note_on_c, 1, 48, 127
1, 31152, Note_off_c, 1, 72, 0
1, 31156, Note_on_c, 1, 70, 127
1, 31311, Note_off_c, 1, 48, 0
1, 31329, Note_off_c, 1, 70, 0
1, 31333, Note_on_c, 1, 69, 127
1, 31333, Note_on_c, 1, 53, 127
1, 31506, Note_off_c, 1, 69, 0
1, 31511, Note_on_c, 1, 67, 127
1, 31683, Note_off_c, 1, 53, 0
1, 31684, Note_off_c, 1, 67, 0
1, 31688, Note_on_c, 1, 69, 127
1, 31688, Note_on_c, 1, 51, 127
1, 31861, Note_off_c, 1, 69, 0
1, 31861, Note_off_c, 1, 51, 0
1, 31866, Note_on_c, 1, 71, 127
1, 31866, Note_on_c, 1, 50, 127
1, 32039, Note_off_c, 1, 71, 0
1, 32039, Note_off_c, 1, 50, 0
1, 32043, Note_on_c, 1, 72, 127
1, 32043, Note_on_c, 1, 51, 127
1, 32127, Note_off_c, 1, 72, 0
1, 32132, Note_on_c, 1, 71, 127
1, 32216, Note_off_c, 1, 51, 0
1, 32216, Note_off_c, 1, 71, 0
1, 32221, Note_on_c, 1, 53, 127
1, 32221, Note_on_c, 1, 72, 127
1, 32394, Note_off_c, 1, 53, 0
1, 32399, Note_on_c, 1, 55, 127
1, 32572, Note_off_c, 1, 55, 0
1, 32576, Note_on_c, 1, 51, 127
1, 32749, Note_off_c, 1, 51, 0
1, 32849, Note_off_c, 1, 72, 0
1, 32931, Note_on_c, 1, 69, 127
1, 32931, Note_on_c, 1, 51, 127
1, 33104, Note_off_c, 1, 69, 0
1, 33104, Note_off_c, 1, 51, 0
1, 33109, Note_on_c, 1, 71, 127
1, 33109, Note_on_c, 1, 50, 127
1, 33282, Note_off_c, 1, 71, 0
1, 33282, Note_off_c, 1, 50, 0
1, 33286, Note_on_c, 1, 72, 127
1, 33286, Note_on_c, 1, 48, 127
1, 33459, Note_off_c, 1, 72, 0
1, 33459, Note_off_c, 1, 48, 0
1, 33463, Note_on_c, 1, 74, 127
1, 33463, Note_on_c, 1, 47, 127
1, 33547, Note_off_c, 1, 74, 0
1, 33553, Note_on_c, 1, 72, 127
1, 33636, Note_off_c, 1, 47, 0
1, 33637, Note_off_c, 1, 72, 0
1, 33641, Note_on_c, 1, 56, 127
1, 33641, Note_on_c, 1, 74, 127
1, 33814, Note_off_c, 1, 56, 0
1, 33819, Note_on_c, 1, 55, 127
1, 33992, Note_off_c, 1, 55, 0
1, 33997, Note_on_c, 1, 53, 127
1, 34170, Note_off_c, 1, 53, 0
1, 34174, Note_on_c, 1, 51, 127
1, 34269, Note_off_c, 1, 74, 0
1, 34347, Note_off_c, 1, 51, 0
1, 34351, Note_on_c, 1, 67, 127
1, 34351, Note_on_c, 1, 50, 127
1, 34524, Note_off_c, 1, 67, 0
1, 34524, Note_off_c, 1, 50, 0
1, 34529, Note_on_c, 1, 69, 127
1, 34529, Note_on_c, 1, 48, 127
1, 34702, Note_off_c, 1, 69, 0
1, 34702, Note_off_c, 1, 48, 0
1, 34706, Note_on_c, 1, 71, 127
1, 34706, Note_on_c, 1, 50, 127
1, 34879, Note_off_c, 1, 71, 0
1, 34879, Note_off_c, 1, 50, 0
1, 34884, Note_on_c, 1, 72, 127
1, 34884, Note_on_c, 1, 51, 127
1, 35057, Note_off_c, 1, 72, 0
1, 35057, Note_off_c, 1, 51, 0
1, 35061, Note_on_c, 1, 74, 127
1, 35061, Note_on_c, 1, 53, 127
1, 35234, Note_off_c, 1, 74, 0
1, 35234, Note_off_c, 1, 53, 0
1, 35239, Note_on_c, 1, 75, 127
1, 35239, Note_on_c, 1, 55, 127
1, 35412, Note_off_c, 1, 75, 0
1, 35412, Note_off_c, 1, 55, 0
1, 35417, Note_on_c, 1, 72, 127
1, 35417, Note_on_c, 1, 56, 127
1, 35590, Note_off_c, 1, 72, 0
1, 35590, Note_off_c, 1, 56, 0
1, 35594, Note_on_c, 1, 47, 127
1, 35594, Note_on_c, 1, 74, 127
1, 35678, Note_off_c, 1, 47, 0
1, 35682, Note_on_c, 1, 45, 127
1, 35766, Note_off_c, 1, 45, 0
1, 35767, Note_off_c, 1, 74, 0
1, 35772, Note_on_c, 1, 47, 127
1, 35772, Note_on_c, 1, 72, 127
1, 35943, Note_off_c, 1, 47, 0
1, 35945, Note_off_c, 1, 72, 0
1, 35949, Note_on_c, 1, 71, 127
1, 35949, Note_on_c, 1, 43, 127
1, 36122, Note_off_c, 1, 71, 0
1, 36126, Note_on_c, 1, 69, 127
1, 36299, Note_off_c, 1, 43, 0
1, 36299, Note_off_c, 1, 69, 0
1, 36304, Note_on_c, 1, 67, 127
1, 36477, Note_off_c, 1, 67, 0
1, 36481, Note_on_c, 1, 77, 127
1, 36654, Note_off_c, 1, 77, 0
1, 36660, Note_on_c, 1, 75, 127
1, 36660, Note_on_c, 1, 43, 127
1, 36833, Note_off_c, 1, 75, 0
1, 36837, Note_on_c, 1, 74, 127
1, 37010, Note_off_c, 1, 43, 0
1, 37010, Note_off_c, 1, 74, 0
1, 37015, Note_on_c, 1, 72, 127
1, 37015, Note_on_c, 1, 44, 127
1, 37188, Note_off_c, 1, 72, 0
1, 37188, Note_off_c, 1, 44, 0
1, 37192, Note_on_c, 1, 70, 127
1, 37192, Note_on_c, 1, 43, 127
1, 37365, Note_off_c, 1, 70, 0
1, 37365, Note_off_c, 1, 43, 0
1, 37369, Note_on_c, 1, 68, 127
1, 37369, Note_on_c, 1, 41, 127
1, 37542, Note_off_c, 1, 68, 0
1, 37542, Note_off_c, 1, 41, 0
1, 37547, Note_on_c, 1, 67, 127
1, 37547, Note_on_c, 1, 43, 127
1, 37720, Note_off_c, 1, 67, 0
1, 37720, Note_off_c, 1, 43, 0
1, 37724, Note_on_c, 1, 65, 127
1, 37724, Note_on_c, 1, 44, 127
1, 37897, Note_off_c, 1, 65, 0
1, 37902, Note_on_c, 1, 75, 127
1, 38046, Note_off_c, 1, 44, 0
1, 38075, Note_off_c, 1, 75, 0
1, 38080, Note_on_c, 1, 74, 127
1, 38080, Note_on_c, 1, 45, 127
1, 38253, Note_off_c, 1, 74, 0
1, 38257, Note_on_c, 1, 72, 127
1, 38402, Note_off_c, 1, 45, 0
1, 38430, Note_off_c, 1, 72, 0
1, 38435, Note_on_c, 1, 79, 127
1, 38435, Note_on_c, 1, 46, 127
1, 38608, Note_off_c, 1, 79, 0
1, 38608, Note_off_c, 1, 46, 0
1, 38612, Note_on_c, 1, 77, 127
1, 38612, Note_on_c, 1, 45, 127
1, 38785, Note_off_c, 1, 77, 0
1, 38785, Note_off_c, 1, 45, 0
1, 38790, Note_on_c, 1, 75, 127
1, 38790, Note_on_c, 1, 43, 127
1, 38963, Note_off_c, 1, 75, 0
1, 38963, Note_off_c, 1, 43, 0
1, 38967, Note_on_c, 1, 79, 127
1, 38967, Note_on_c, 1, 45, 127
1, 39140, Note_off_c, 1, 79, 0
1, 39140, Note_off_c, 1, 45, 0
1, 39144, Note_on_c, 1, 77, 127
1, 39144, Note_on_c, 1, 46, 127
1, 39317, Note_off_c, 1, 77, 0
1, 39322, Note_on_c, 1, 75, 127
1, 39466, Note_off_c, 1, 46, 0
1, 39495, Note_off_c, 1, 75, 0
1, 39500, Note_on_c, 1, 74, 127
1, 39500, Note_on_c, 1, 47, 127
1, 39673, Note_off_c, 1, 74, 0
1, 39678, Note_on_c, 1, 77, 127
1, 39822, Note_off_c, 1, 47, 0
1, 39851, Note_off_c, 1, 77, 0
1, 39855, Note_on_c, 1, 75, 127
1, 39855, Note_on_c, 1, 48, 127
1, 40028, Note_off_c, 1, 75, 0
1, 40028, Note_off_c, 1, 48, 0
1, 40032, Note_on_c, 1, 74, 127
1, 40032, Note_on_c, 1, 43, 127
1, 40205, Note_off_c, 1, 74, 0
1, 40205, Note_off_c, 1, 43, 0
1, 40210, Note_on_c, 1, 72, 127
1, 40210, Note_on_c, 1, 45, 127
1, 40383, Note_off_c, 1, 72, 0
1, 40383, Note_off_c, 1, 45, 0
1, 40387, Note_on_c, 1, 74, 127
1, 40387, Note_on_c, 1, 47, 127
1, 40560, Note_off_c, 1, 74, 0
1, 40560, Note_off_c, 1, 47, 0
1, 40565, Note_on_c, 1, 75, 127
1, 40565, Note_on_c, 1, 48, 127
1, 40738, Note_off_c, 1, 75, 0
1, 40738, Note_off_c, 1, 48, 0
1, 40742, Note_on_c, 1, 77, 127
1, 40742, Note_on_c, 1, 50, 127
1, 40915, Note_off_c, 1, 77, 0
1, 40915, Note_off_c, 1, 50, 0
1, 40920, Note_on_c, 1, 79, 127
1, 40920, Note_on_c, 1, 51, 127
1, 41093, Note_off_c, 1, 79, 0
1, 41093, Note_off_c, 1, 51, 0
1, 41098, Note_on_c, 1, 80, 127
1, 41098, Note_on_c, 1, 48, 127
1, 41271, Note_off_c, 1, 80, 0
1, 41271, Note_off_c, 1, 48, 0
1, 41275, Note_on_c, 1, 71, 127
1, 41275, Note_on_c, 1, 50, 127
1, 41349, Note_on_c, 1, 69, 127
1, 41359, Note_off_c, 1, 71, 0
1, 41433, Note_off_c, 1, 69, 0
1, 41448, Note_off_c, 1, 50, 0
1, 41453, Note_on_c, 1, 48, 127
1, 41626, Note_off_c, 1, 48, 0
1, 41630, Note_on_c, 1, 47, 127
1, 41630, Note_on_c, 1, 74, 127
1, 41803, Note_off_c, 1, 47, 0
1, 41808, Note_on_c, 1, 45, 127
1, 41944, Note_off_c, 1, 74, 0
1, 41981, Note_off_c, 1, 45, 0
1, 41985, Note_on_c, 1, 43, 127
1, 42158, Note_off_c, 1, 43, 0
1, 42162, Note_on_c, 1, 53, 127
1, 42335, Note_off_c, 1, 53, 0
1, 42340, Note_on_c, 1, 51, 127
1, 42340, Note_on_c, 1, 65, 127
1, 42513, Note_off_c, 1, 51, 0
1, 42518, Note_on_c, 1, 50, 127
1, 42690, Note_off_c, 1, 65, 0
1, 42691, Note_off_c, 1, 50, 0
1, 42696, Note_on_c, 1, 48, 127
1, 42696, Note_on_c, 1, 63, 127
1, 42869, Note_off_c, 1, 48, 0
1, 42873, Note_on_c, 1, 46, 127
1, 43046, Note_off_c, 1, 63, 0
1, 43046, Note_off_c, 1, 46, 0
1, 43050, Note_on_c, 1, 44, 127
1, 43050, Note_on_c, 1, 72, 127
1, 43223, Note_off_c, 1, 44, 0
1, 43228, Note_on_c, 1, 43, 127
1, 43400, Note_off_c, 1, 72, 0
1, 43401, Note_off_c, 1, 43, 0
1, 43405, Note_on_c, 1, 41, 127
1, 43405, Note_on_c, 1, 62, 127
1, 43578, Note_off_c, 1, 41, 0
1, 43583, Note_on_c, 1, 39, 127
1, 43755, Note_off_c, 1, 62, 0
1, 43756, Note_off_c, 1, 39, 0
1, 43760, Note_on_c, 1, 72, 127
1, 43760, Note_on_c, 1, 41, 127
1, 43844, Note_off_c, 1, 72, 0
1, 43849, Note_on_c, 1, 71, 127
1, 43933, Note_off_c, 1, 41, 0
1, 43933, Note_off_c, 1, 71, 0
1, 43938, Note_on_c, 1, 69, 127
1, 43938, Note_on_c, 1, 43, 127
1, 44022, Note_off_c, 1, 69, 0
1, 44027, Note_on_c, 1, 71, 127
1, 44111, Note_off_c, 1, 43, 0
1, 44111, Note_off_c, 1, 71, 0
1, 44116, Note_on_c, 1, 36, 127
1, 44116, Note_on_c, 1, 72, 127
1, 44277, Note_off_c, 1, 36, 0
1, 44289, Note_off_c, 1, 72, 0
1, 44293, Note_on_c, 1, 67, 127
1, 44293, Note_on_c, 1, 50, 127
1, 44466, Note_off_c, 1, 67, 0
1, 44466, Note_off_c, 1, 50, 0
1, 44471, Note_on_c, 1, 72, 127
1, 44471, Note_on_c, 1, 51, 127
1, 44644, Note_off_c, 1, 72, 0
1, 44644, Note_off_c, 1, 51, 0
1, 44648, Note_on_c, 1, 74, 127
1, 44648, Note_on_c, 1, 53, 127
1, 44821, Note_off_c, 1, 74, 0
1, 44821, Note_off_c, 1, 53, 0
1, 44825, Note_on_c, 1, 75, 127
1, 44825, Note_on_c, 1, 55, 127
1, 44909, Note_off_c, 1, 75, 0
1, 44915, Note_on_c, 1, 74, 127
1, 44998, Note_off_c, 1, 55, 0
1, 44999, Note_off_c, 1, 74, 0
1, 45003, Note_on_c, 1, 56, 127
1, 45003, Note_on_c, 1, 75, 127
1, 45176, Note_off_c, 1, 56, 0
1, 45180, Note_on_c, 1, 58, 127
1, 45353, Note_off_c, 1, 58, 0
1, 45359, Note_on_c, 1, 55, 127
1, 45532, Note_off_c, 1, 55, 0
1, 45631, Note_off_c, 1, 75, 0
1, 45714, Note_on_c, 1, 72, 127
1, 45714, Note_on_c, 1, 55, 127
1, 45887, Note_off_c, 1, 72, 0
1, 45887, Note_off_c, 1, 55, 0
1, 45891, Note_on_c, 1, 74, 127
1, 45891, Note_on_c, 1, 53, 127
1, 46064, Note_off_c, 1, 74, 0
1, 46064, Note_off_c, 1, 53, 0
1, 46068, Note_on_c, 1, 75, 127
1, 46068, Note_on_c, 1, 51, 127
1, 46241, Note_off_c, 1, 75, 0
1, 46241, Note_off_c, 1, 51, 0
1, 46246, Note_on_c, 1, 77, 127
1, 46246, Note_on_c, 1, 50, 127
1, 46330, Note_off_c, 1, 77, 0
1, 46335, Note_on_c, 1, 75, 127
1, 46419, Note_off_c, 1, 50, 0
1, 46419, Note_off_c, 1, 75, 0
1, 46423, Note_on_c, 1, 60, 127
1, 46423, Note_on_c, 1, 77, 127
1, 46596, Note_off_c, 1, 60, 0
1, 46601, Note_on_c, 1, 58, 127
1, 46774, Note_off_c, 1, 58, 0
1, 46779, Note_on_c, 1, 56, 127
1, 46952, Note_off_c, 1, 56, 0
1, 46956, Note_on_c, 1, 55, 127
1, 47129, Note_off_c, 1, 55, 0
1, 47134, Note_on_c, 1, 53, 127
1, 47306, Note_off_c, 1, 77, 0
1, 47307, Note_off_c, 1, 53, 0
1, 47311, Note_on_c, 1, 75, 127
1, 47311, Note_on_c, 1, 55, 127
1, 47484, Note_off_c, 1, 75, 0
1, 47484, Note_off_c, 1, 55, 0
1, 47489, Note_on_c, 1, 74, 127
1, 47489, Note_on_c, 1, 57, 127
1, 47662, Note_off_c, 1, 74, 0
1, 47662, Note_off_c, 1, 57, 0
1, 47666, Note_on_c, 1, 79, 127
1, 47666, Note_on_c, 1, 58, 127
1, 47750, Note_off_c, 1, 79, 0
1, 47755, Note_on_c, 1, 77, 127
1, 47839, Note_off_c, 1, 58, 0
1, 47839, Note_off_c, 1, 77, 0
1, 47843, Note_on_c, 1, 60, 127
1, 47843, Note_on_c, 1, 79, 127
1, 48016, Note_off_c, 1, 60, 0
1, 48021, Note_on_c, 1, 62, 127
1, 48193, Note_off_c, 1, 79, 0
1, 48194, Note_off_c, 1, 62, 0
1, 48199, Note_on_c, 1, 77, 127
1, 48199, Note_on_c, 1, 58, 127
1, 48372, Note_off_c, 1, 77, 0
1, 48372, Note_off_c, 1, 58, 0
1, 48377, Note_on_c, 1, 75, 127
1, 48377, Note_on_c, 1, 60, 127
1, 48550, Note_off_c, 1, 75, 0
1, 48550, Note_off_c, 1, 60, 0
1, 48554, Note_on_c, 1, 74, 127
1, 48554, Note_on_c, 1, 58, 127
1, 48727, Note_off_c, 1, 74, 0
1, 48727, Note_off_c, 1, 58, 0
1, 48731, Note_on_c, 1, 72, 127
1, 48731, Note_on_c, 1, 57, 127
1, 48904, Note_off_c, 1, 72, 0
1, 48904, Note_off_c, 1, 57, 0
1, 48909, Note_on_c, 1, 70, 127
1, 48909, Note_on_c, 1, 55, 127
1, 49082, Note_off_c, 1, 70, 0
1, 49082, Note_off_c, 1, 55, 0
1, 49086, Note_on_c, 1, 69, 127
1, 49086, Note_on_c, 1, 54, 127
1, 49259, Note_off_c, 1, 69, 0
1, 49259, Note_off_c, 1, 54, 0
1, 49264, Note_on_c, 1, 67, 127
1, 49264, Note_on_c, 1, 63, 127
1, 49437, Note_off_c, 1, 67, 0
1, 49437, Note_off_c, 1, 63, 0
1, 49441, Note_on_c, 1, 66, 127
1, 49441, Note_on_c, 1, 62, 127
1, 49614, Note_off_c, 1, 66, 0
1, 49614, Note_off_c, 1, 62, 0
1, 49619, Note_on_c, 1, 69, 127
1, 49619, Note_on_c, 1, 60, 127
1, 49792, Note_off_c, 1, 69, 0
1, 49792, Note_off_c, 1, 60, 0
1, 49797, Note_on_c, 1, 63, 127
1, 49797, Note_on_c, 1, 58, 127
1, 49970, Note_off_c, 1, 63, 0
1, 49974, Note_on_c, 1, 62, 127
1, 50147, Note_off_c, 1, 62, 0
1, 50152, Note_on_c, 1, 64, 127
1, 50325, Note_off_c, 1, 64, 0
1, 50329, Note_on_c, 1, 66, 127
1, 50498, Note_off_c, 1, 58, 0
1, 50502, Note_off_c, 1, 66, 0
1, 50507, Note_on_c, 1, 67, 127
1, 50680, Note_off_c, 1, 67, 0
1, 50684, Note_on_c, 1, 69, 127
1, 50684, Note_on_c, 1, 60, 127
1, 50857, Note_off_c, 1, 69, 0
1, 50857, Note_off_c, 1, 60, 0
1, 50861, Note_on_c, 1, 70, 127
1, 50861, Note_on_c, 1, 62, 127
1, 51034, Note_off_c, 1, 70, 0
1, 51034, Note_off_c, 1, 62, 0
1, 51040, Note_on_c, 1, 67, 127
1, 51040, Note_on_c, 1, 63, 127
1, 51213, Note_off_c, 1, 67, 0
1, 51213, Note_off_c, 1, 63, 0
1, 51217, Note_on_c, 1, 69, 127
1, 51217, Note_on_c, 1, 54, 127
1, 51390, Note_off_c, 1, 69, 0
1, 51390, Note_off_c, 1, 54, 0
1, 51395, Note_on_c, 1, 67, 127
1, 51395, Note_on_c, 1, 55, 127
1, 51568, Note_off_c, 1, 67, 0
1, 51568, Note_off_c, 1, 55, 0
1, 51572, Note_on_c, 1, 66, 127
1, 51572, Note_on_c, 1, 57, 127
1, 51745, Note_off_c, 1, 66, 0
1, 51745, Note_off_c, 1, 57, 0
1, 51749, Note_on_c, 1, 64, 127
1, 51749, Note_on_c, 1, 55, 127
1, 51922, Note_off_c, 1, 64, 0
1, 51922, Note_off_c, 1, 55, 0
1, 51927, Note_on_c, 1, 62, 127
1, 51927, Note_on_c, 1, 54, 127
1, 52100, Note_off_c, 1, 62, 0
1, 52104, Note_on_c, 1, 72, 127
1, 52249, Note_off_c, 1, 54, 0
1, 52277, Note_off_c, 1, 72, 0
1, 52282, Note_on_c, 1, 70, 127
1, 52282, Note_on_c, 1, 53, 127
1, 52455, Note_off_c, 1, 70, 0
1, 52460, Note_on_c, 1, 69, 127
1, 52604, Note_off_c, 1, 53, 0
1, 52633, Note_off_c, 1, 69, 0
1, 52637, Note_on_c, 1, 67, 127
1, 52637, Note_on_c, 1, 52, 127
1, 52810, Note_off_c, 1, 67, 0
1, 52810, Note_off_c, 1, 52, 0
1, 52815, Note_on_c, 1, 65, 127
1, 52815, Note_on_c, 1, 53, 127
1, 52988, Note_off_c, 1, 65, 0
1, 52988, Note_off_c, 1, 53, 0
1, 52992, Note_on_c, 1, 64, 127
1, 52992, Note_on_c, 1, 55, 127
1, 53165, Note_off_c, 1, 64, 0
1, 53165, Note_off_c, 1, 55, 0
1, 53170, Note_on_c, 1, 62, 127
1, 53170, Note_on_c, 1, 53, 127
1, 53343, Note_off_c, 1, 62, 0
1, 53343, Note_off_c, 1, 53, 0
1, 53347, Note_on_c, 1, 60, 127
1, 53347, Note_on_c, 1, 52, 127
1, 53520, Note_off_c, 1, 60, 0
1, 53524, Note_on_c, 1, 70, 127
1, 53669, Note_off_c, 1, 52, 0
1, 53697, Note_off_c, 1, 70, 0
1, 53702, Note_on_c, 1, 69, 127
1, 53702, Note_on_c, 1, 51, 127
1, 53875, Note_off_c, 1, 69, 0
1, 53880, Note_on_c, 1, 67, 127
1, 54024, Note_off_c, 1, 51, 0
1, 54053, Note_off_c, 1, 67, 0
1, 54058, Note_on_c, 1, 74, 127
1, 54058, Note_on_c, 1, 50, 127
1, 54231, Note_off_c, 1, 74, 0
1, 54235, Note_on_c, 1, 72, 127
1, 54390, Note_off_c, 1, 50, 0
1, 54408, Note_off_c, 1, 72, 0
1, 54412, Note_on_c, 1, 55, 127
1, 54412, Note_on_c, 1, 70, 127
1, 54496, Note_off_c, 1, 55, 0
1, 54501, Note_on_c, 1, 54, 127
1, 54585, Note_off_c, 1, 70, 0
1, 54585, Note_off_c, 1, 54, 0
1, 54590, Note_on_c, 1, 74, 127
1, 54590, Note_on_c, 1, 55, 127
1, 54763, Note_off_c, 1, 74, 0
1, 54767, Note_on_c, 1, 72, 127
1, 54940, Note_off_c, 1, 72, 0
1, 54945, Note_on_c, 1, 70, 127
1, 55118, Note_off_c, 1, 55, 0
1, 55118, Note_off_c, 1, 70, 0
1, 55122, Note_on_c, 1, 69, 127
1, 55122, Note_on_c, 1, 54, 127
1, 55295, Note_off_c, 1, 69, 0
1, 55300, Note_on_c, 1, 72, 127
1, 55444, Note_off_c, 1, 54, 0
1, 55473, Note_off_c, 1, 72, 0
1, 55478, Note_on_c, 1, 70, 127
1, 55478, Note_on_c, 1, 50, 127
1, 55651, Note_off_c, 1, 70, 0
1, 55655, Note_on_c, 1, 69, 127
1, 55828, Note_off_c, 1, 50, 0
1, 55828, Note_off_c, 1, 69, 0
1, 55833, Note_on_c, 1, 58, 127
1, 55833, Note_on_c, 1, 67, 127
1, 55917, Note_off_c, 1, 58, 0
1, 55921, Note_on_c, 1, 57, 127
1, 56005, Note_off_c, 1, 57, 0
1, 56006, Note_off_c, 1, 67, 0
1, 56010, Note_on_c, 1, 70, 127
1, 56010, Note_on_c, 1, 58, 127
1, 56183, Note_off_c, 1, 70, 0
1, 56188, Note_on_c, 1, 69, 127
1, 56361, Note_off_c, 1, 69, 0
1, 56365, Note_on_c, 1, 67, 127
1, 56538, Note_off_c, 1, 58, 0
1, 56538, Note_off_c, 1, 67, 0
1, 56542, Note_on_c, 1, 66, 127
1, 56542, Note_on_c, 1, 57, 127
1, 56715, Note_off_c, 1, 66, 0
1, 56720, Note_on_c, 1, 69, 127
1, 56874, Note_off_c, 1, 57, 0
1, 56893, Note_off_c, 1, 69, 0
1, 56898, Note_on_c, 1, 67, 127
1, 56898, Note_on_c, 1, 50, 127
1, 57071, Note_off_c, 1, 67, 0
1, 57076, Note_on_c, 1, 69, 127
1, 57248, Note_off_c, 1, 50, 0
1, 57249, Note_off_c, 1, 69, 0
1, 57253, Note_on_c, 1, 62, 127
1, 57253, Note_on_c, 1, 70, 127
1, 57337, Note_off_c, 1, 62, 0
1, 57341, Note_on_c, 1, 60, 127
1, 57425, Note_off_c, 1, 60, 0
1, 57426, Note_off_c, 1, 70, 0
1, 57430, Note_on_c, 1, 72, 127
1, 57430, Note_on_c, 1, 62, 127
1, 57603, Note_off_c, 1, 72, 0
1, 57608, Note_on_c, 1, 74, 127
1, 57781, Note_off_c, 1, 74, 0
1, 57785, Note_on_c, 1, 76, 127
1, 57934, Note_off_c, 1, 62, 0
1, 57958, Note_off_c, 1, 76, 0
1, 57963, Note_on_c, 1, 78, 127
1, 57963, Note_on_c, 1, 60, 127
1, 58136, Note_off_c, 1, 78, 0
1, 58140, Note_on_c, 1, 79, 127
1, 58313, Note_off_c, 1, 79, 0
1, 58318, Note_on_c, 1, 81, 127
1, 58482, Note_off_c, 1, 60, 0
1, 58491, Note_off_c, 1, 81, 0
1, 58496, Note_on_c, 1, 78, 127
1, 58496, Note_on_c, 1, 63, 127
1, 58669, Note_off_c, 1, 78, 0
1, 58669, Note_off_c, 1, 63, 0
1, 58673, Note_on_c, 1, 79, 127
1, 58673, Note_on_c, 1, 62, 127
1, 58846, Note_off_c, 1, 79, 0
1, 58846, Note_off_c, 1, 62, 0
1, 58851, Note_on_c, 1, 81, 127
1, 58851, Note_on_c, 1, 60, 127
1, 59024, Note_off_c, 1, 81, 0
1, 59024, Note_off_c, 1, 60, 0
1, 59028, Note_on_c, 1, 74, 127
1, 59028, Note_on_c, 1, 58, 127
1, 59112, Note_off_c, 1, 74, 0
1, 59117, Note_on_c, 1, 72, 127
1, 59201, Note_off_c, 1, 58, 0
1, 59201, Note_off_c, 1, 72, 0
1, 59205, Note_on_c, 1, 57, 127
1, 59205, Note_on_c, 1, 74, 127
1, 59378, Note_off_c, 1, 57, 0
1, 59383, Note_on_c, 1, 55, 127
1, 59556, Note_off_c, 1, 55, 0
1, 59560, Note_on_c, 1, 58, 127
1, 59733, Note_off_c, 1, 58, 0
1, 59739, Note_on_c, 1, 51, 127
1, 59823, Note_off_c, 1, 51, 0
1, 59827, Note_on_c, 1, 50, 127
1, 59896, Note_off_c, 1, 74, 0
1, 59911, Note_off_c, 1, 50, 0
1, 59916, Note_on_c, 1, 72, 127
1, 59916, Note_on_c, 1, 51, 127
1, 60089, Note_off_c, 1, 72, 0
1, 60094, Note_on_c, 1, 75, 127
1, 60267, Note_off_c, 1, 75, 0
1, 60271, Note_on_c, 1, 74, 127
1, 60444, Note_off_c, 1, 74, 0
1, 60599, Note_off_c, 1, 51, 0
1, 60626, Note_on_c, 1, 70, 127
1, 60626, Note_on_c, 1, 50, 127
1, 60799, Note_off_c, 1, 70, 0
1, 60799, Note_off_c, 1, 50, 0
1, 60803, Note_on_c, 1, 69, 127
1, 60803, Note_on_c, 1, 48, 127
1, 60976, Note_off_c, 1, 69, 0
1, 60976, Note_off_c, 1, 48, 0
1, 60981, Note_on_c, 1, 72, 127
1, 60981, Note_on_c, 1, 51, 127
1, 61154, Note_off_c, 1, 72, 0
1, 61154, Note_off_c, 1, 51, 0
1, 61159, Note_on_c, 1, 66, 127
1, 61159, Note_on_c, 1, 45, 127
1, 61332, Note_off_c, 1, 66, 0
1, 61336, Note_on_c, 1, 69, 127
1, 61509, Note_off_c, 1, 45, 0
1, 61509, Note_off_c, 1, 69, 0
1, 61514, Note_on_c, 1, 50, 127
1, 61514, Note_on_c, 1, 70, 127
1, 61598, Note_off_c, 1, 50, 0
1, 61602, Note_on_c, 1, 48, 127
1, 61686, Note_off_c, 1, 48, 0
1, 61687, Note_off_c, 1, 70, 0
1, 61691, Note_on_c, 1, 69, 127
1, 61691, Note_on_c, 1, 50, 127
1, 61864, Note_off_c, 1, 69, 0
1, 61869, Note_on_c, 1, 67, 127
1, 62042, Note_off_c, 1, 67, 0
1, 62046, Note_on_c, 1, 65, 127
1, 62190, Note_off_c, 1, 50, 0
1, 62219, Note_off_c, 1, 65, 0
1, 62223, Note_on_c, 1, 64, 127
1, 62223, Note_on_c, 1, 48, 127
1, 62396, Note_off_c, 1, 64, 0
1, 62401, Note_on_c, 1, 67, 127
1, 62566, Note_off_c, 1, 67, 0
1, 62573, Note_off_c, 1, 48, 0
1, 62579, Note_on_c, 1, 61, 127
1, 62579, Note_on_c, 1, 46, 127
1, 62761, Note_off_c, 1, 61, 0
1, 62765, Note_on_c, 1, 67, 127
1, 62947, Note_off_c, 1, 67, 0
1, 62948, Note_off_c, 1, 46, 0
1, 62952, Note_on_c, 1, 69, 127
1, 62952, Note_on_c, 1, 45, 127
1, 63134, Note_off_c, 1, 69, 0
1, 63134, Note_off_c, 1, 45, 0
1, 63140, Note_on_c, 1, 70, 127
1, 63140, Note_on_c, 1, 43, 127
1, 63322, Note_off_c, 1, 70, 0
1, 63322, Note_off_c, 1, 43, 0
1, 63326, Note_on_c, 1, 50, 127
1, 63326, Note_on_c, 1, 62, 127
1, 63420, Note_off_c, 1, 50, 0
1, 63424, Note_on_c, 1, 48, 127
1, 63518, Note_off_c, 1, 48, 0
1, 63522, Note_on_c, 1, 69, 127
1, 63566, Note_off_c, 1, 62, 0
1, 63714, Note_off_c, 1, 69, 0
1, 63719, Note_on_c, 1, 67, 127
1, 63719, Note_on_c, 1, 38, 127
1, 63911, Note_off_c, 1, 67, 0
1, 63916, Note_on_c, 1, 66, 127
1, 64108, Note_off_c, 1, 38, 0
1, 64108, Note_off_c, 1, 66, 0
1, 64149, Note_on_c, 1, 43, 127
1, 64149, Note_on_c, 1, 67, 127
1, 65846, Note_off_c, 1, 43, 0
1, 65846, Note_off_c, 1, 67, 0
1, 65846, End_track
0, 0, End_of_file