0, 0, Header, 1, 1, 480
1, 0, Start_track
1, 0, Title_t, "Test"
1, 0, Tempo, 500000
1, 0, Instrument_name_t, "Church Organ"
1, 151, Note_on_c, 1, 72, 127
1, 324, Note_off_c, 1, 72, 0
1, 326, Note_on_c, 1, 71, 127
1, 499, Note_off_c, 1, 71, 0
1, 501, Note_on_c, 1, 72, 127
1, 674, Note_off_c, 1, 72, 0
1, 676, Note_on_c, 1, 74, 127
1, 849, Note_off_c, 1, 74, 0
1, 851, Note_on_c, 1, 75, 127
1, 1024, Note_off_c, 1, 75, 0
1, 1026, Note_on_c, 1, 67, 127
1, 1199, Note_off_c, 1, 67, 0
1, 1202, Note_on_c, 1, 68, 127
1, 1375, Note_off_c, 1, 68, 0
1, 1377, Note_on_c, 1, 70, 127
1, 1550, Note_off_c, 1, 70, 0
1, 1552, Note_on_c, 1, 68, 127
1, 1725, Note_off_c, 1, 68, 0
1, 1727, Note_on_c, 1, 65, 127
1, 1900, Note_off_c, 1, 65, 0
1, 1902, Note_on_c, 1, 77, 127
1, 2075, Note_off_c, 1, 77, 0
1, 2077, Note_on_c, 1, 75, 127
1, 2250, Note_off_c, 1, 75, 0
1, 2252, Note_on_c, 1, 74, 127
1, 2425, Note_off_c, 1, 74, 0
1, 2427, Note_on_c, 1, 72, 127
1, 2600, Note_off_c, 1, 72, 0
1, 2602, Note_on_c, 1, 71, 127
1, 2775, Note_off_c, 1, 71, 0
1, 2777, Note_on_c, 1, 80, 127
1, 2950, Note_off_c, 1, 80, 0
1, 2953, Note_on_c, 1, 79, 127
1, 3126, Note_off_c, 1, 79, 0
1, 3128, Note_on_c, 1, 77, 127
1, 3301, Note_off_c, 1, 77, 0
1, 3303, Note_on_c, 1, 75, 127
1, 3476, Note_off_c, 1, 75, 0
1, 3478, Note_on_c, 1, 74, 127
1, 3651, Note_off_c, 1, 74, 0
1, 3653, Note_on_c, 1, 72, 127
1, 3826, Note_off_c, 1, 72, 0
1, 3828, Note_on_c, 1, 71, 127
1, 4001, Note_off_c, 1, 71, 0
1, 4003, Note_on_c, 1, 72, 127
1, 4176, Note_off_c, 1, 72, 0
1, 4178, Note_on_c, 1, 74, 127
1, 4351, Note_off_c, 1, 74, 0
1, 4353, Note_on_c, 1, 72, 127
1, 4526, Note_off_c, 1, 72, 0
1, 4528, Note_on_c, 1, 74, 127
1, 4701, Note_off_c, 1, 74, 0
1, 4704, Note_on_c, 1, 75, 127
1, 4787, Note_off_c, 1, 75, 0
1, 4791, Note_on_c, 1, 74, 127
1, 4874, Note_off_c, 1, 74, 0
1, 4879, Note_on_c, 1, 75, 127
1, 4962, Note_off_c, 1, 75, 0
1, 4966, Note_on_c, 1, 74, 127
1, 5049, Note_off_c, 1, 74, 0
1, 5054, Note_on_c, 1, 75, 127
1, 5137, Note_off_c, 1, 75, 0
1, 5141, Note_on_c, 1, 74, 127
1, 5224, Note_off_c, 1, 74, 0
1, 5229, Note_on_c, 1, 72, 127
1, 5312, Note_off_c, 1, 72, 0
1, 5316, Note_on_c, 1, 74, 127
1, 5399, Note_off_c, 1, 74, 0
1, 5404, Note_on_c, 1, 75, 127
1, 5577, Note_off_c, 1, 75, 0
1, 5579, Note_on_c, 1, 74, 127
1, 5752, Note_off_c, 1, 74, 0
1, 5754, Note_on_c, 1, 60, 127
1, 5754, Note_on_c, 1, 72, 127
1, 5924, Note_off_c, 1, 60, 0
1, 5927, Note_off_c, 1, 72, 0
1, 5929, Note_on_c, 1, 59, 127
1, 5929, Note_on_c, 1, 74, 127
1, 6099, Note_off_c, 1, 59, 0
1, 6102, Note_off_c, 1, 74, 0
1, 6104, Note_on_c, 1, 60, 127
1, 6104, Note_on_c, 1, 75, 127
1, 6274, Note_off_c, 1, 60, 0
1, 6277, Note_off_c, 1, 75, 0
1, 6279, Note_on_c, 1, 62, 127
1, 6279, Note_on_c, 1, 77, 127
1, 6449, Note_off_c, 1, 62, 0
1, 6452, Note_off_c, 1, 77, 0
1, 6455, Note_on_c, 1, 63, 127
1, 6455, Note_on_c, 1, 79, 127
1, 6629, Note_on_c, 1, 55, 127
1, 6636, Note_off_c, 1, 63, 0
1, 6672, Note_off_c, 1, 79, 0
1, 6799, Note_off_c, 1, 55, 0
1, 6804, Note_on_c, 1, 80, 127
1, 6804, Note_on_c, 1, 56, 127
1, 6887, Note_off_c, 1, 80, 0
1, 6891, Note_on_c, 1, 79, 127
1, 6974, Note_off_c, 1, 56, 0
1, 6974, Note_off_c, 1, 79, 0
1, 6979, Note_on_c, 1, 80, 127
1, 6979, Note_on_c, 1, 58, 127
1, 7062, Note_off_c, 1, 80, 0
1, 7066, Note_on_c, 1, 79, 127
1, 7149, Note_off_c, 1, 58, 0
1, 7149, Note_off_c, 1, 79, 0
1, 7154, Note_on_c, 1, 56, 127
1, 7154, Note_on_c, 1, 77, 127
1, 7324, Note_off_c, 1, 56, 0
1, 7329, Note_on_c, 1, 53, 127
1, 7499, Note_off_c, 1, 53, 0
1, 7504, Note_on_c, 1, 65, 127
1, 7674, Note_off_c, 1, 65, 0
1, 7679, Note_on_c, 1, 63, 127
1, 7774, Note_off_c, 1, 77, 0
1, 7849, Note_off_c, 1, 63, 0
1, 7854, Note_on_c, 1, 62, 127
1, 7854, Note_on_c, 1, 77, 127
1, 8024, Note_off_c, 1, 62, 0
1, 8029, Note_on_c, 1, 60, 127
1, 8199, Note_off_c, 1, 60, 0
1, 8200, Note_off_c, 1, 77, 0
1, 8204, Note_on_c, 1, 79, 127
1, 8204, Note_on_c, 1, 59, 127
1, 8287, Note_off_c, 1, 79, 0
1, 8292, Note_on_c, 1, 77, 127
1, 8374, Note_off_c, 1, 59, 0
1, 8375, Note_off_c, 1, 77, 0
1, 8380, Note_on_c, 1, 79, 127
1, 8380, Note_on_c, 1, 68, 127
1, 8463, Note_off_c, 1, 79, 0
1, 8467, Note_on_c, 1, 77, 127
1, 8550, Note_off_c, 1, 68, 0
1, 8550, Note_off_c, 1, 77, 0
1, 8555, Note_on_c, 1, 67, 127
1, 8555, Note_on_c, 1, 75, 127
1, 8725, Note_off_c, 1, 67, 0
1, 8730, Note_on_c, 1, 65, 127
1, 8900, Note_off_c, 1, 65, 0
1, 8905, Note_on_c, 1, 63, 127
1, 9075, Note_off_c, 1, 63, 0
1, 9080, Note_on_c, 1, 62, 127
1, 9175, Note_off_c, 1, 75, 0
1, 9250, Note_off_c, 1, 62, 0
1, 9255, Note_on_c, 1, 60, 127
1, 9255, Note_on_c, 1, 74, 127
1, 9425, Note_off_c, 1, 60, 0
1, 9430, Note_on_c, 1, 59, 127
1, 9600, Note_off_c, 1, 59, 0
1, 9601, Note_off_c, 1, 74, 0
1, 9605, Note_on_c, 1, 60, 127
1, 9605, Note_on_c, 1, 75, 127
1, 9775, Note_off_c, 1, 60, 0
1, 9780, Note_on_c, 1, 62, 127
1, 9877, Note_off_c, 1, 75, 0
1, 9950, Note_off_c, 1, 62, 0
1, 9955, Note_on_c, 1, 60, 127
1, 9955, Note_on_c, 1, 68, 127
1, 10125, Note_off_c, 1, 60, 0
1, 10131, Note_on_c, 1, 62, 127
1, 10301, Note_off_c, 1, 62, 0
1, 10306, Note_on_c, 1, 63, 127
1, 10389, Note_off_c, 1, 63, 0
1, 10476, Note_off_c, 1, 68, 0
1, 10481, Note_on_c, 1, 63, 127
1, 10481, Note_on_c, 1, 65, 127
1, 10564, Note_off_c, 1, 63, 0
1, 10568, Note_on_c, 1, 62, 127
1, 10651, Note_off_c, 1, 62, 0
1, 10654, Note_off_c, 1, 65, 0
1, 10656, Note_on_c, 1, 63, 127
1, 10656, Note_on_c, 1, 70, 127
1, 10739, Note_off_c, 1, 63, 0
1, 10743, Note_on_c, 1, 62, 127
1, 10826, Note_off_c, 1, 62, 0
1, 10829, Note_off_c, 1, 70, 0
1, 10831, Note_on_c, 1, 60, 127
1, 10831, Note_on_c, 1, 65, 127
1, 10914, Note_off_c, 1, 60, 0
1, 10919, Note_on_c, 1, 62, 127
1, 11002, Note_off_c, 1, 62, 0
1, 11004, Note_off_c, 1, 65, 0
1, 11006, Note_on_c, 1, 63, 127
1, 11006, Note_on_c, 1, 67, 127
1, 11176, Note_off_c, 1, 63, 0
1, 11181, Note_on_c, 1, 62, 127
1, 11278, Note_off_c, 1, 67, 0
1, 11351, Note_off_c, 1, 62, 0
1, 11356, Note_on_c, 1, 60, 127
1, 11356, Note_on_c, 1, 75, 127
1, 11526, Note_off_c, 1, 60, 0
1, 11531, Note_on_c, 1, 62, 127
1, 11701, Note_off_c, 1, 62, 0
1, 11706, Note_on_c, 1, 63, 127
1, 11876, Note_off_c, 1, 63, 0
1, 11877, Note_off_c, 1, 75, 0
1, 11882, Note_on_c, 1, 65, 127
1, 11882, Note_on_c, 1, 74, 127
1, 12052, Note_off_c, 1, 65, 0
1, 12055, Note_off_c, 1, 74, 0
1, 12057, Note_on_c, 1, 75, 127
1, 12057, Note_on_c, 1, 67, 127
1, 12230, Note_off_c, 1, 75, 0
1, 12232, Note_on_c, 1, 70, 127
1, 12403, Note_off_c, 1, 67, 0
1, 12405, Note_off_c, 1, 70, 0
1, 12407, Note_on_c, 1, 68, 127
1, 12407, Note_on_c, 1, 72, 127
1, 12490, Note_off_c, 1, 68, 0
1, 12494, Note_on_c, 1, 67, 127
1, 12577, Note_off_c, 1, 67, 0
1, 12580, Note_off_c, 1, 72, 0
1, 12582, Note_on_c, 1, 68, 127
1, 12582, Note_on_c, 1, 75, 127
1, 12665, Note_off_c, 1, 68, 0
1, 12670, Note_on_c, 1, 67, 127
1, 12753, Note_off_c, 1, 67, 0
1, 12755, Note_off_c, 1, 75, 0
1, 12757, Note_on_c, 1, 80, 127
1, 12757, Note_on_c, 1, 65, 127
1, 12930, Note_off_c, 1, 80, 0
1, 12932, Note_on_c, 1, 79, 127
1, 13105, Note_off_c, 1, 79, 0
1, 13107, Note_on_c, 1, 77, 127
1, 13280, Note_off_c, 1, 77, 0
1, 13282, Note_on_c, 1, 75, 127
1, 13377, Note_off_c, 1, 65, 0
1, 13455, Note_off_c, 1, 75, 0
1, 13457, Note_on_c, 1, 74, 127
1, 13457, Note_on_c, 1, 65, 127
1, 13630, Note_off_c, 1, 74, 0
1, 13633, Note_on_c, 1, 72, 127
1, 13803, Note_off_c, 1, 65, 0
1, 13806, Note_off_c, 1, 72, 0
1, 13808, Note_on_c, 1, 67, 127
1, 13808, Note_on_c, 1, 70, 127
1, 13891, Note_off_c, 1, 67, 0
1, 13895, Note_on_c, 1, 65, 127
1, 13978, Note_off_c, 1, 65, 0
1, 13981, Note_off_c, 1, 70, 0
1, 13983, Note_on_c, 1, 67, 127
1, 13983, Note_on_c, 1, 74, 127
1, 14066, Note_off_c, 1, 67, 0
1, 14070, Note_on_c, 1, 65, 127
1, 14153, Note_off_c, 1, 65, 0
1, 14156, Note_off_c, 1, 74, 0
1, 14158, Note_on_c, 1, 79, 127
1, 14158, Note_on_c, 1, 63, 127
1, 14331, Note_off_c, 1, 79, 0
1, 14333, Note_on_c, 1, 77, 127
1, 14506, Note_off_c, 1, 77, 0
1, 14508, Note_on_c, 1, 75, 127
1, 14681, Note_off_c, 1, 75, 0
1, 14683, Note_on_c, 1, 74, 127
1, 14795, Note_off_c, 1, 63, 0
1, 14855, Note_off_c, 1, 74, 0
1, 14857, Note_on_c, 1, 72, 127
1, 14857, Note_on_c, 1, 62, 127
1, 15030, Note_off_c, 1, 72, 0
1, 15032, Note_on_c, 1, 70, 127
1, 15203, Note_off_c, 1, 62, 0
1, 15205, Note_off_c, 1, 70, 0
1, 15207, Note_on_c, 1, 68, 127
1, 15207, Note_on_c, 1, 63, 127
1, 15380, Note_off_c, 1, 68, 0
1, 15383, Note_on_c, 1, 72, 127
1, 15534, Note_off_c, 1, 63, 0
1, 15555, Note_off_c, 1, 72, 0
1, 15557, Note_on_c, 1, 77, 127
1, 15557, Note_on_c, 1, 56, 127
1, 15730, Note_off_c, 1, 77, 0
1, 15732, Note_on_c, 1, 72, 127
1, 15905, Note_off_c, 1, 72, 0
1, 15907, Note_on_c, 1, 74, 127
1, 15990, Note_off_c, 1, 74, 0
1, 16078, Note_off_c, 1, 56, 0
1, 16082, Note_on_c, 1, 53, 127
1, 16082, Note_on_c, 1, 74, 127
1, 16252, Note_off_c, 1, 53, 0
1, 16257, Note_on_c, 1, 58, 127
1, 16427, Note_off_c, 1, 58, 0
1, 16428, Note_off_c, 1, 74, 0
1, 16432, Note_on_c, 1, 53, 127
1, 16432, Note_on_c, 1, 74, 127
1, 16602, Note_off_c, 1, 53, 0
1, 16605, Note_off_c, 1, 74, 0
1, 16607, Note_on_c, 1, 75, 127
1, 16607, Note_on_c, 1, 55, 127
1, 16780, Note_off_c, 1, 75, 0
1, 16782, Note_on_c, 1, 70, 127
1, 16953, Note_off_c, 1, 55, 0
1, 16955, Note_off_c, 1, 70, 0
1, 16957, Note_on_c, 1, 63, 127
1, 16957, Note_on_c, 1, 72, 127
1, 17040, Note_off_c, 1, 63, 0
1, 17045, Note_on_c, 1, 62, 127
1, 17128, Note_off_c, 1, 62, 0
1, 17130, Note_off_c, 1, 72, 0
1, 17133, Note_on_c, 1, 70, 127
1, 17133, Note_on_c, 1, 63, 127
1, 17306, Note_off_c, 1, 70, 0
1, 17308, Note_on_c, 1, 79, 127
1, 17391, Note_off_c, 1, 79, 0
1, 17395, Note_on_c, 1, 77, 127
1, 17478, Note_off_c, 1, 77, 0
1, 17479, Note_off_c, 1, 63, 0
1, 17483, Note_on_c, 1, 62, 127
1, 17483, Note_on_c, 1, 79, 127
1, 17653, Note_off_c, 1, 62, 0
1, 17658, Note_on_c, 1, 63, 127
1, 17828, Note_off_c, 1, 63, 0
1, 17833, Note_on_c, 1, 58, 127
1, 18003, Note_off_c, 1, 58, 0
1, 18008, Note_on_c, 1, 60, 127
1, 18103, Note_off_c, 1, 79, 0
1, 18178, Note_off_c, 1, 60, 0
1, 18183, Note_on_c, 1, 63, 127
1, 18183, Note_on_c, 1, 70, 127
1, 18353, Note_off_c, 1, 63, 0
1, 18356, Note_off_c, 1, 70, 0
1, 18358, Note_on_c, 1, 68, 127
1, 18358, Note_on_c, 1, 72, 127
1, 18528, Note_off_c, 1, 68, 0
1, 18531, Note_off_c, 1, 72, 0
1, 18533, Note_on_c, 1, 67, 127
1, 18533, Note_on_c, 1, 70, 127
1, 18703, Note_off_c, 1, 67, 0
1, 18706, Note_off_c, 1, 70, 0
1, 18708, Note_on_c, 1, 80, 127
1, 18708, Note_on_c, 1, 65, 127
1, 18791, Note_off_c, 1, 80, 0
1, 18796, Note_on_c, 1, 79, 127
1, 18878, Note_off_c, 1, 65, 0
1, 18879, Note_off_c, 1, 79, 0
1, 18884, Note_on_c, 1, 63, 127
1, 18884, Note_on_c, 1, 80, 127
1, 19054, Note_off_c, 1, 63, 0
1, 19059, Note_on_c, 1, 62, 127
1, 19229, Note_off_c, 1, 62, 0
1, 19234, Note_on_c, 1, 60, 127
1, 19404, Note_off_c, 1, 60, 0
1, 19409, Note_on_c, 1, 58, 127
1, 19521, Note_off_c, 1, 80, 0
1, 19578, Note_off_c, 1, 58, 0
1, 19583, Note_on_c, 1, 62, 127
1, 19583, Note_on_c, 1, 70, 127
1, 19753, Note_off_c, 1, 62, 0
1, 19756, Note_off_c, 1, 70, 0
1, 19758, Note_on_c, 1, 67, 127
1, 19758, Note_on_c, 1, 75, 127
1, 19928, Note_off_c, 1, 67, 0
1, 19931, Note_off_c, 1, 75, 0
1, 19933, Note_on_c, 1, 65, 127
1, 19933, Note_on_c, 1, 74, 127
1, 20103, Note_off_c, 1, 65, 0
1, 20106, Note_off_c, 1, 74, 0
1, 20108, Note_on_c, 1, 63, 127
1, 20108, Note_on_c, 1, 79, 127
1, 20278, Note_off_c, 1, 63, 0
1, 20281, Note_off_c, 1, 79, 0
1, 20283, Note_on_c, 1, 62, 127
1, 20283, Note_on_c, 1, 77, 127
1, 20453, Note_off_c, 1, 62, 0
1, 20456, Note_off_c, 1, 77, 0
1, 20458, Note_on_c, 1, 60, 127
1, 20458, Note_on_c, 1, 80, 127
1, 20628, Note_off_c, 1, 60, 0
1, 20631, Note_off_c, 1, 80, 0
1, 20633, Note_on_c, 1, 58, 127
1, 20633, Note_on_c, 1, 79, 127
1, 20803, Note_off_c, 1, 58, 0
1, 20806, Note_off_c, 1, 79, 0
1, 20809, Note_on_c, 1, 56, 127
1, 20809, Note_on_c, 1, 84, 127
1, 20979, Note_off_c, 1, 56, 0
1, 20982, Note_off_c, 1, 84, 0
1, 20984, Note_on_c, 1, 60, 127
1, 20984, Note_on_c, 1, 82, 127
1, 21154, Note_off_c, 1, 60, 0
1, 21157, Note_off_c, 1, 82, 0
1, 21159, Note_on_c, 1, 65, 127
1, 21159, Note_on_c, 1, 80, 127
1, 21329, Note_off_c, 1, 65, 0
1, 21332, Note_off_c, 1, 80, 0
1, 21334, Note_on_c, 1, 60, 127
1, 21334, Note_on_c, 1, 79, 127
1, 21504, Note_off_c, 1, 60, 0
1, 21507, Note_off_c, 1, 79, 0
1, 21509, Note_on_c, 1, 63, 127
1, 21509, Note_on_c, 1, 77, 127
1, 21592, Note_off_c, 1, 63, 0
1, 21597, Note_on_c, 1, 62, 127
1, 21680, Note_off_c, 1, 62, 0
1, 21682, Note_off_c, 1, 77, 0
1, 21684, Note_on_c, 1, 63, 127
1, 21684, Note_on_c, 1, 82, 127
1, 21767, Note_off_c, 1, 63, 0
1, 21772, Note_on_c, 1, 62, 127
1, 21855, Note_off_c, 1, 62, 0
1, 21857, Note_off_c, 1, 82, 0
1, 21859, Note_on_c, 1, 63, 127
1, 21859, Note_on_c, 1, 80, 127
1, 21942, Note_off_c, 1, 63, 0
1, 21947, Note_on_c, 1, 62, 127
1, 22030, Note_off_c, 1, 62, 0
1, 22032, Note_off_c, 1, 80, 0
1, 22034, Note_on_c, 1, 60, 127
1, 22034, Note_on_c, 1, 82, 127
1, 22117, Note_off_c, 1, 60, 0
1, 22122, Note_on_c, 1, 62, 127
1, 22205, Note_off_c, 1, 62, 0
1, 22207, Note_off_c, 1, 82, 0
1, 22209, Note_on_c, 1, 63, 127
1, 22209, Note_on_c, 1, 79, 127
1, 22379, Note_off_c, 1, 63, 0
1, 22382, Note_off_c, 1, 79, 0
1, 22384, Note_on_c, 1, 58, 127
1, 22384, Note_on_c, 1, 82, 127
1, 22554, Note_off_c, 1, 58, 0
1, 22557, Note_off_c, 1, 82, 0
1, 22560, Note_on_c, 1, 60, 127
1, 22560, Note_on_c, 1, 80, 127
1, 22730, Note_off_c, 1, 60, 0
1, 22733, Note_off_c, 1, 80, 0
1, 22735, Note_on_c, 1, 58, 127
1, 22735, Note_on_c, 1, 82, 127
1, 22905, Note_off_c, 1, 58, 0
1, 22908, Note_off_c, 1, 82, 0
1, 22910, Note_on_c, 1, 67, 127
1, 22910, Note_on_c, 1, 75, 127
1, 22993, Note_off_c, 1, 67, 0
1, 22997, Note_on_c, 1, 65, 127
1, 23080, Note_off_c, 1, 65, 0
1, 23083, Note_off_c, 1, 75, 0
1, 23085, Note_on_c, 1, 79, 127
1, 23085, Note_on_c, 1, 67, 127
1, 23258, Note_off_c, 1, 79, 0
1, 23260, Note_on_c, 1, 77, 127
1, 23433, Note_off_c, 1, 77, 0
1, 23610, Note_on_c, 1, 72, 127
1, 23722, Note_off_c, 1, 67, 0
1, 23782, Note_off_c, 1, 72, 0
1, 23784, Note_on_c, 1, 58, 127
1, 23784, Note_on_c, 1, 74, 127
1, 23954, Note_off_c, 1, 58, 0
1, 23957, Note_off_c, 1, 74, 0
1, 23959, Note_on_c, 1, 60, 127
1, 23959, Note_on_c, 1, 75, 127
1, 24129, Note_off_c, 1, 60, 0
1, 24132, Note_off_c, 1, 75, 0
1, 24134, Note_on_c, 1, 58, 127
1, 24134, Note_on_c, 1, 77, 127
1, 24304, Note_off_c, 1, 58, 0
1, 24307, Note_off_c, 1, 77, 0
1, 24310, Note_on_c, 1, 68, 127
1, 24310, Note_on_c, 1, 74, 127
1, 24393, Note_off_c, 1, 68, 0
1, 24397, Note_on_c, 1, 67, 127
1, 24480, Note_off_c, 1, 67, 0
1, 24483, Note_off_c, 1, 74, 0
1, 24485, Note_on_c, 1, 75, 127
1, 24485, Note_on_c, 1, 68, 127
1, 24658, Note_off_c, 1, 75, 0
1, 24660, Note_on_c, 1, 77, 127
1, 24833, Note_off_c, 1, 77, 0
1, 24835, Note_on_c, 1, 79, 127
1, 25008, Note_off_c, 1, 79, 0
1, 25105, Note_off_c, 1, 68, 0
1, 25185, Note_on_c, 1, 58, 127
1, 25185, Note_on_c, 1, 77, 127
1, 25355, Note_off_c, 1, 58, 0
1, 25358, Note_off_c, 1, 77, 0
1, 25360, Note_on_c, 1, 63, 127
1, 25360, Note_on_c, 1, 79, 127
1, 25530, Note_off_c, 1, 63, 0
1, 25533, Note_off_c, 1, 79, 0
1, 25535, Note_on_c, 1, 62, 127
1, 25535, Note_on_c, 1, 80, 127
1, 25705, Note_off_c, 1, 62, 0
1, 25708, Note_off_c, 1, 80, 0
1, 25710, Note_on_c, 1, 67, 127
1, 25710, Note_on_c, 1, 82, 127
1, 25880, Note_off_c, 1, 67, 0
1, 25883, Note_off_c, 1, 82, 0
1, 25885, Note_on_c, 1, 65, 127
1, 25885, Note_on_c, 1, 80, 127
1, 26055, Note_off_c, 1, 65, 0
1, 26058, Note_off_c, 1, 80, 0
1, 26061, Note_on_c, 1, 68, 127
1, 26061, Note_on_c, 1, 84, 127
1, 26231, Note_off_c, 1, 68, 0
1, 26234, Note_off_c, 1, 84, 0
1, 26236, Note_on_c, 1, 67, 127
1, 26236, Note_on_c, 1, 82, 127
1, 26406, Note_off_c, 1, 67, 0
1, 26409, Note_off_c, 1, 82, 0
1, 26411, Note_on_c, 1, 72, 127
1, 26411, Note_on_c, 1, 80, 127
1, 26581, Note_off_c, 1, 72, 0
1, 26584, Note_off_c, 1, 80, 0
1, 26586, Note_on_c, 1, 70, 127
1, 26586, Note_on_c, 1, 79, 127
1, 26756, Note_off_c, 1, 70, 0
1, 26759, Note_off_c, 1, 79, 0
1, 26761, Note_on_c, 1, 68, 127
1, 26761, Note_on_c, 1, 77, 127
1, 26931, Note_off_c, 1, 68, 0
1, 26934, Note_off_c, 1, 77, 0
1, 26936, Note_on_c, 1, 67, 127
1, 26936, Note_on_c, 1, 80, 127
1, 27106, Note_off_c, 1, 67, 0
1, 27109, Note_off_c, 1, 80, 0
1, 27111, Note_on_c, 1, 74, 127
1, 27111, Note_on_c, 1, 65, 127
1, 27194, Note_off_c, 1, 74, 0
1, 27199, Note_on_c, 1, 72, 127
1, 27281, Note_off_c, 1, 65, 0
1, 27282, Note_off_c, 1, 72, 0
1, 27286, Note_on_c, 1, 70, 127
1, 27286, Note_on_c, 1, 74, 127
1, 27456, Note_off_c, 1, 70, 0
1, 27461, Note_on_c, 1, 68, 127
1, 27631, Note_off_c, 1, 68, 0
1, 27761, Note_off_c, 1, 74, 0
1, 27812, Note_on_c, 1, 67, 127
1, 27986, Note_on_c, 1, 74, 127
1, 28138, Note_off_c, 1, 67, 0
1, 28158, Note_off_c, 1, 74, 0
1, 28160, Note_on_c, 1, 51, 127
1, 28160, Note_on_c, 1, 79, 127
1, 28330, Note_off_c, 1, 51, 0
1, 28333, Note_off_c, 1, 79, 0
1, 28335, Note_on_c, 1, 53, 127
1, 28335, Note_on_c, 1, 74, 127
1, 28505, Note_off_c, 1, 53, 0
1, 28508, Note_off_c, 1, 74, 0
1, 28510, Note_on_c, 1, 55, 127
1, 28510, Note_on_c, 1, 75, 127
1, 28680, Note_off_c, 1, 55, 0
1, 28683, Note_off_c, 1, 75, 0
1, 28685, Note_on_c, 1, 57, 127
1, 28685, Note_on_c, 1, 72, 127
1, 28855, Note_off_c, 1, 57, 0
1, 28858, Note_off_c, 1, 72, 0
1, 28860, Note_on_c, 1, 58, 127
1, 28860, Note_on_c, 1, 74, 127
1, 29030, Note_off_c, 1, 58, 0
1, 29033, Note_off_c, 1, 74, 0
1, 29035, Note_on_c, 1, 50, 127
1, 29035, Note_on_c, 1, 70, 127
1, 29205, Note_off_c, 1, 50, 0
1, 29208, Note_off_c, 1, 70, 0
1, 29210, Note_on_c, 1, 51, 127
1, 29210, Note_on_c, 1, 72, 127
1, 29380, Note_off_c, 1, 51, 0
1, 29385, Note_on_c, 1, 53, 127
1, 29555, Note_off_c, 1, 53, 0
1, 29736, Note_on_c, 1, 48, 127
1, 29906, Note_off_c, 1, 48, 0
1, 29911, Note_on_c, 1, 60, 127
1, 30012, Note_off_c, 1, 72, 0
1, 30081, Note_off_c, 1, 60, 0
1, 30086, Note_on_c, 1, 58, 127
1, 30086, Note_on_c, 1, 79, 127
1, 30256, Note_off_c, 1, 58, 0
1, 30259, Note_off_c, 1, 79, 0
1, 30261, Note_on_c, 1, 57, 127
1, 30261, Note_on_c, 1, 78, 127
1, 30431, Note_off_c, 1, 57, 0
1, 30434, Note_off_c, 1, 78, 0
1, 30436, Note_on_c, 1, 55, 127
1, 30436, Note_on_c, 1, 81, 127
1, 30606, Note_off_c, 1, 55, 0
1, 30609, Note_off_c, 1, 81, 0
1, 30611, Note_on_c, 1, 54, 127
1, 30611, Note_on_c, 1, 72, 127
1, 30781, Note_off_c, 1, 54, 0
1, 30784, Note_off_c, 1, 72, 0
1, 30786, Note_on_c, 1, 63, 127
1, 30786, Note_on_c, 1, 70, 127
1, 30956, Note_off_c, 1, 63, 0
1, 30959, Note_off_c, 1, 70, 0
1, 30961, Note_on_c, 1, 62, 127
1, 30961, Note_on_c, 1, 72, 127
1, 31131, Note_off_c, 1, 62, 0
1, 31136, Note_on_c, 1, 60, 127
1, 31306, Note_off_c, 1, 60, 0
1, 31312, Note_on_c, 1, 58, 127
1, 31398, Note_off_c, 1, 72, 0
1, 31482, Note_off_c, 1, 58, 0
1, 31487, Note_on_c, 1, 57, 127
1, 31487, Note_on_c, 1, 78, 127
1, 31657, Note_off_c, 1, 57, 0
1, 31660, Note_off_c, 1, 78, 0
1, 31662, Note_on_c, 1, 55, 127
1, 31662, Note_on_c, 1, 76, 127
1, 31832, Note_off_c, 1, 55, 0
1, 31835, Note_off_c, 1, 76, 0
1, 31837, Note_on_c, 1, 54, 127
1, 31837, Note_on_c, 1, 74, 127
1, 32007, Note_off_c, 1, 54, 0
1, 32010, Note_off_c, 1, 74, 0
1, 32012, Note_on_c, 1, 55, 127
1, 32012, Note_on_c, 1, 82, 127
1, 32182, Note_off_c, 1, 55, 0
1, 32187, Note_on_c, 1, 57, 127
1, 32357, Note_off_c, 1, 57, 0
1, 32533, Note_off_c, 1, 82, 0
1, 32537, Note_on_c, 1, 57, 127
1, 32537, Note_on_c, 1, 76, 127
1, 32707, Note_off_c, 1, 57, 0
1, 32710, Note_off_c, 1, 76, 0
1, 32712, Note_on_c, 1, 58, 127
1, 32712, Note_on_c, 1, 78, 127
1, 32795, Note_off_c, 1, 58, 0
1, 32800, Note_on_c, 1, 57, 127
1, 32883, Note_off_c, 1, 57, 0
1, 33233, Note_off_c, 1, 78, 0
1, 33238, Note_on_c, 1, 55, 127
1, 33238, Note_on_c, 1, 79, 127
1, 33321, Note_off_c, 1, 55, 0
1, 33325, Note_on_c, 1, 57, 127
1, 33408, Note_off_c, 1, 57, 0
1, 33411, Note_off_c, 1, 79, 0
1, 33413, Note_on_c, 1, 58, 127
1, 33413, Note_on_c, 1, 79, 127
1, 33583, Note_off_c, 1, 58, 0
1, 33588, Note_on_c, 1, 57, 127
1, 33758, Note_off_c, 1, 57, 0
1, 33759, Note_off_c, 1, 79, 0
1, 33763, Note_on_c, 1, 55, 127
1, 33763, Note_on_c, 1, 67, 127
1, 33933, Note_off_c, 1, 55, 0
1, 33936, Note_off_c, 1, 67, 0
1, 33938, Note_on_c, 1, 57, 127
1, 33938, Note_on_c, 1, 66, 127
1, 34108, Note_off_c, 1, 57, 0
1, 34111, Note_off_c, 1, 66, 0
1, 34113, Note_on_c, 1, 58, 127
1, 34113, Note_on_c, 1, 67, 127
1, 34283, Note_off_c, 1, 58, 0
1, 34286, Note_off_c, 1, 67, 0
1, 34288, Note_on_c, 1, 60, 127
1, 34288, Note_on_c, 1, 69, 127
1, 34458, Note_off_c, 1, 60, 0
1, 34461, Note_off_c, 1, 69, 0
1, 34463, Note_on_c, 1, 62, 127
1, 34463, Note_on_c, 1, 70, 127
1, 34626, Note_off_c, 1, 62, 0
1, 34636, Note_off_c, 1, 70, 0
1, 34638, Note_on_c, 1, 62, 127
1, 34811, Note_off_c, 1, 62, 0
1, 34814, Note_on_c, 1, 63, 127
1, 34901, Note_on_c, 1, 62, 127
1, 34977, Note_off_c, 1, 63, 0
1, 34984, Note_off_c, 1, 62, 0
1, 34989, Note_on_c, 1, 63, 127
1, 34989, Note_on_c, 1, 65, 127
1, 35072, Note_off_c, 1, 63, 0
1, 35076, Note_on_c, 1, 62, 127
1, 35159, Note_off_c, 1, 62, 0
1, 35162, Note_off_c, 1, 65, 0
1, 35164, Note_on_c, 1, 60, 127
1, 35164, Note_on_c, 1, 63, 127
1, 35327, Note_off_c, 1, 60, 0
1, 35337, Note_off_c, 1, 63, 0
1, 35339, Note_on_c, 1, 60, 127
1, 35513, Note_on_c, 1, 72, 127
1, 35686, Note_off_c, 1, 72, 0
1, 35688, Note_on_c, 1, 70, 127
1, 35830, Note_off_c, 1, 60, 0
1, 35861, Note_off_c, 1, 70, 0
1, 35863, Note_on_c, 1, 69, 127
1, 35863, Note_on_c, 1, 60, 127
1, 36036, Note_off_c, 1, 69, 0
1, 36038, Note_on_c, 1, 67, 127
1, 36209, Note_off_c, 1, 60, 0
1, 36211, Note_off_c, 1, 67, 0
1, 36213, Note_on_c, 1, 62, 127
1, 36213, Note_on_c, 1, 66, 127
1, 36296, Note_off_c, 1, 62, 0
1, 36301, Note_on_c, 1, 60, 127
1, 36384, Note_off_c, 1, 60, 0
1, 36386, Note_off_c, 1, 66, 0
1, 36388, Note_on_c, 1, 62, 127
1, 36388, Note_on_c, 1, 75, 127
1, 36471, Note_off_c, 1, 62, 0
1, 36476, Note_on_c, 1, 60, 127
1, 36559, Note_off_c, 1, 60, 0
1, 36561, Note_off_c, 1, 75, 0
1, 36563, Note_on_c, 1, 74, 127
1, 36563, Note_on_c, 1, 58, 127
1, 36736, Note_off_c, 1, 74, 0
1, 36739, Note_on_c, 1, 72, 127
1, 36912, Note_off_c, 1, 72, 0
1, 36914, Note_on_c, 1, 70, 127
1, 37087, Note_off_c, 1, 70, 0
1, 37089, Note_on_c, 1, 69, 127
1, 37183, Note_off_c, 1, 58, 0
1, 37262, Note_off_c, 1, 69, 0
1, 37264, Note_on_c, 1, 67, 127
1, 37264, Note_on_c, 1, 57, 127
1, 37437, Note_off_c, 1, 67, 0
1, 37439, Note_on_c, 1, 66, 127
1, 37610, Note_off_c, 1, 57, 0
1, 37612, Note_off_c, 1, 66, 0
1, 37614, Note_on_c, 1, 67, 127
1, 37614, Note_on_c, 1, 58, 127
1, 37787, Note_off_c, 1, 67, 0
1, 37789, Note_on_c, 1, 69, 127
1, 37932, Note_off_c, 1, 58, 0
1, 37961, Note_off_c, 1, 69, 0
1, 37963, Note_on_c, 1, 67, 127
1, 37963, Note_on_c, 1, 51, 127
1, 38136, Note_off_c, 1, 67, 0
1, 38138, Note_on_c, 1, 69, 127
1, 38311, Note_off_c, 1, 69, 0
1, 38313, Note_on_c, 1, 70, 127
1, 38396, Note_off_c, 1, 70, 0
1, 38484, Note_off_c, 1, 51, 0
1, 38489, Note_on_c, 1, 70, 127
1, 38489, Note_on_c, 1, 48, 127
1, 38572, Note_off_c, 1, 70, 0
1, 38576, Note_on_c, 1, 69, 127
1, 38659, Note_off_c, 1, 48, 0
1, 38659, Note_off_c, 1, 69, 0
1, 38664, Note_on_c, 1, 70, 127
1, 38664, Note_on_c, 1, 53, 127
1, 38747, Note_off_c, 1, 70, 0
1, 38751, Note_on_c, 1, 69, 127
1, 38834, Note_off_c, 1, 53, 0
1, 38834, Note_off_c, 1, 69, 0
1, 38839, Note_on_c, 1, 67, 127
1, 38839, Note_on_c, 1, 48, 127
1, 38922, Note_off_c, 1, 67, 0
1, 38926, Note_on_c, 1, 69, 127
1, 39009, Note_off_c, 1, 48, 0
1, 39009, Note_off_c, 1, 69, 0
1, 39014, Note_on_c, 1, 70, 127
1, 39014, Note_on_c, 1, 50, 127
1, 39187, Note_off_c, 1, 70, 0
1, 39189, Note_on_c, 1, 69, 127
1, 39324, Note_off_c, 1, 50, 0
1, 39362, Note_off_c, 1, 69, 0
1, 39364, Note_on_c, 1, 67, 127
1, 39364, Note_on_c, 1, 58, 127
1, 39537, Note_off_c, 1, 67, 0
1, 39539, Note_on_c, 1, 69, 127
1, 39712, Note_off_c, 1, 69, 0
1, 39714, Note_on_c, 1, 70, 127
1, 39885, Note_off_c, 1, 58, 0
1, 39887, Note_off_c, 1, 70, 0
1, 39889, Note_on_c, 1, 57, 127
1, 39889, Note_on_c, 1, 72, 127
1, 40059, Note_off_c, 1, 57, 0
1, 40062, Note_off_c, 1, 72, 0
1, 40064, Note_on_c, 1, 58, 127
1, 40064, Note_on_c, 1, 74, 127
1, 40234, Note_off_c, 1, 58, 0
1, 40240, Note_on_c, 1, 53, 127
1, 40336, Note_off_c, 1, 74, 0
1, 40410, Note_off_c, 1, 53, 0
1, 40415, Note_on_c, 1, 75, 127
1, 40415, Note_on_c, 1, 55, 127
1, 40498, Note_off_c, 1, 75, 0
1, 40502, Note_on_c, 1, 74, 127
1, 40585, Note_off_c, 1, 55, 0
1, 40585, Note_off_c, 1, 74, 0
1, 40590, Note_on_c, 1, 75, 127
1, 40590, Note_on_c, 1, 58, 127
1, 40673, Note_off_c, 1, 75, 0
1, 40677, Note_on_c, 1, 74, 127
1, 40760, Note_off_c, 1, 58, 0
1, 40760, Note_off_c, 1, 74, 0
1, 40765, Note_on_c, 1, 63, 127
1, 40765, Note_on_c, 1, 72, 127
1, 40935, Note_off_c, 1, 63, 0
1, 40940, Note_on_c, 1, 62, 127
1, 41110, Note_off_c, 1, 62, 0
1, 41115, Note_on_c, 1, 60, 127
1, 41285, Note_off_c, 1, 60, 0
1, 41290, Note_on_c, 1, 58, 127
1, 41366, Note_off_c, 1, 72, 0
1, 41460, Note_off_c, 1, 58, 0
1, 41465, Note_on_c, 1, 57, 127
1, 41465, Note_on_c, 1, 72, 127
1, 41635, Note_off_c, 1, 57, 0
1, 41640, Note_on_c, 1, 55, 127
1, 41810, Note_off_c, 1, 55, 0
1, 41811, Note_off_c, 1, 72, 0
1, 41815, Note_on_c, 1, 74, 127
1, 41815, Note_on_c, 1, 53, 127
1, 41898, Note_off_c, 1, 74, 0
1, 41903, Note_on_c, 1, 72, 127
1, 41985, Note_off_c, 1, 53, 0
1, 41986, Note_off_c, 1, 72, 0
1, 41991, Note_on_c, 1, 74, 127
1, 41991, Note_on_c, 1, 57, 127
1, 42074, Note_off_c, 1, 74, 0
1, 42078, Note_on_c, 1, 72, 127
1, 42161, Note_off_c, 1, 57, 0
1, 42161, Note_off_c, 1, 72, 0
1, 42166, Note_on_c, 1, 62, 127
1, 42166, Note_on_c, 1, 70, 127
1, 42336, Note_off_c, 1, 62, 0
1, 42341, Note_on_c, 1, 60, 127
1, 42511, Note_off_c, 1, 60, 0
1, 42516, Note_on_c, 1, 58, 127
1, 42686, Note_off_c, 1, 58, 0
1, 42691, Note_on_c, 1, 57, 127
1, 42786, Note_off_c, 1, 70, 0
1, 42861, Note_off_c, 1, 57, 0
1, 42866, Note_on_c, 1, 55, 127
1, 42866, Note_on_c, 1, 69, 127
1, 43036, Note_off_c, 1, 55, 0
1, 43041, Note_on_c, 1, 53, 127
1, 43211, Note_off_c, 1, 53, 0
1, 43212, Note_off_c, 1, 69, 0
1, 43216, Note_on_c, 1, 51, 127
1, 43216, Note_on_c, 1, 70, 127
1, 43386, Note_off_c, 1, 51, 0
1, 43391, Note_on_c, 1, 55, 127
1, 43488, Note_off_c, 1, 70, 0
1, 43561, Note_off_c, 1, 55, 0
1, 43566, Note_on_c, 1, 60, 127
1, 43566, Note_on_c, 1, 63, 127
1, 43736, Note_off_c, 1, 60, 0
1, 43742, Note_on_c, 1, 55, 127
1, 43912, Note_off_c, 1, 55, 0
1, 43917, Note_on_c, 1, 58, 127
1, 44000, Note_off_c, 1, 58, 0
1, 44004, Note_on_c, 1, 57, 127
1, 44087, Note_off_c, 1, 63, 0
1, 44087, Note_off_c, 1, 57, 0
1, 44092, Note_on_c, 1, 58, 127
1, 44092, Note_on_c, 1, 60, 127
1, 44175, Note_off_c, 1, 58, 0
1, 44179, Note_on_c, 1, 57, 127
1, 44262, Note_off_c, 1, 57, 0
1, 44265, Note_off_c, 1, 60, 0
1, 44267, Note_on_c, 1, 58, 127
1, 44267, Note_on_c, 1, 65, 127
1, 44350, Note_off_c, 1, 58, 0
1, 44354, Note_on_c, 1, 57, 127
1, 44437, Note_off_c, 1, 57, 0
1, 44440, Note_off_c, 1, 65, 0
1, 44442, Note_on_c, 1, 55, 127
1, 44442, Note_on_c, 1, 60, 127
1, 44525, Note_off_c, 1, 55, 0
1, 44529, Note_on_c, 1, 57, 127
1, 44612, Note_off_c, 1, 57, 0
1, 44615, Note_off_c, 1, 60, 0
1, 44617, Note_on_c, 1, 58, 127
1, 44617, Note_on_c, 1, 62, 127
1, 44787, Note_off_c, 1, 58, 0
1, 44792, Note_on_c, 1, 53, 127
1, 44889, Note_off_c, 1, 62, 0
1, 44962, Note_off_c, 1, 53, 0
1, 44967, Note_on_c, 1, 55, 127
1, 44967, Note_on_c, 1, 70, 127
1, 45137, Note_off_c, 1, 55, 0
1, 45142, Note_on_c, 1, 53, 127
1, 45312, Note_off_c, 1, 53, 0
1, 45317, Note_on_c, 1, 62, 127
1, 45488, Note_off_c, 1, 70, 0
1, 45493, Note_on_c, 1, 69, 127
1, 45666, Note_off_c, 1, 69, 0
1, 45843, Note_on_c, 1, 65, 127
1, 46016, Note_off_c, 1, 65, 0
1, 46018, Note_on_c, 1, 67, 127
1, 46119, Note_off_c, 1, 62, 0
1, 46191, Note_off_c, 1, 67, 0
1, 46193, Note_on_c, 1, 53, 127
1, 46193, Note_on_c, 1, 70, 127
1, 46363, Note_off_c, 1, 53, 0
1, 46366, Note_off_c, 1, 70, 0
1, 46368, Note_on_c, 1, 55, 127
1, 46368, Note_on_c, 1, 75, 127
1, 46538, Note_off_c, 1, 55, 0
1, 46541, Note_off_c, 1, 75, 0
1, 46543, Note_on_c, 1, 53, 127
1, 46543, Note_on_c, 1, 74, 127
1, 46713, Note_off_c, 1, 53, 0
1, 46716, Note_off_c, 1, 74, 0
1, 46718, Note_on_c, 1, 72, 127
1, 46718, Note_on_c, 1, 63, 127
1, 46891, Note_off_c, 1, 72, 0
1, 46893, Note_on_c, 1, 70, 127
1, 47066, Note_off_c, 1, 70, 0
1, 47068, Note_on_c, 1, 69, 127
1, 47241, Note_off_c, 1, 69, 0
1, 47244, Note_on_c, 1, 67, 127
1, 47417, Note_off_c, 1, 67, 0
1, 47419, Note_on_c, 1, 65, 127
1, 47520, Note_off_c, 1, 63, 0
1, 47592, Note_off_c, 1, 65, 0
1, 47594, Note_on_c, 1, 53, 127
1, 47594, Note_on_c, 1, 69, 127
1, 47764, Note_off_c, 1, 53, 0
1, 47767, Note_off_c, 1, 69, 0
1, 47769, Note_on_c, 1, 58, 127
1, 47769, Note_on_c, 1, 74, 127
1, 47939, Note_off_c, 1, 58, 0
1, 47942, Note_off_c, 1, 74, 0
1, 47944, Note_on_c, 1, 57, 127
1, 47944, Note_on_c, 1, 72, 127
1, 48114, Note_off_c, 1, 57, 0
1, 48117, Note_off_c, 1, 72, 0
1, 48119, Note_on_c, 1, 62, 127
1, 48119, Note_on_c, 1, 70, 127
1, 48289, Note_off_c, 1, 62, 0
1, 48292, Note_off_c, 1, 70, 0
1, 48294, Note_on_c, 1, 60, 127
1, 48294, Note_on_c, 1, 69, 127
1, 48464, Note_off_c, 1, 60, 0
1, 48467, Note_off_c, 1, 69, 0
1, 48469, Note_on_c, 1, 63, 127
1, 48469, Note_on_c, 1, 67, 127
1, 48639, Note_off_c, 1, 63, 0
1, 48642, Note_off_c, 1, 67, 0
1, 48644, Note_on_c, 1, 62, 127
1, 48644, Note_on_c, 1, 65, 127
1, 48814, Note_off_c, 1, 62, 0
1, 48817, Note_off_c, 1, 65, 0
1, 48819, Note_on_c, 1, 67, 127
1, 48819, Note_on_c, 1, 63, 127
1, 48989, Note_off_c, 1, 67, 0
1, 48992, Note_off_c, 1, 63, 0
1, 48995, Note_on_c, 1, 65, 127
1, 48995, Note_on_c, 1, 67, 127
1, 49165, Note_off_c, 1, 65, 0
1, 49168, Note_off_c, 1, 67, 0
1, 49170, Note_on_c, 1, 63, 127
1, 49170, Note_on_c, 1, 72, 127
1, 49340, Note_off_c, 1, 63, 0
1, 49343, Note_off_c, 1, 72, 0
1, 49345, Note_on_c, 1, 62, 127
1, 49345, Note_on_c, 1, 67, 127
1, 49515, Note_off_c, 1, 62, 0
1, 49518, Note_off_c, 1, 67, 0
1, 49520, Note_on_c, 1, 69, 127
1, 49520, Note_on_c, 1, 60, 127
1, 49603, Note_off_c, 1, 69, 0
1, 49607, Note_on_c, 1, 67, 127
1, 49690, Note_off_c, 1, 60, 0
1, 49690, Note_off_c, 1, 67, 0
1, 49695, Note_on_c, 1, 65, 127
1, 49695, Note_on_c, 1, 69, 127
1, 49865, Note_off_c, 1, 65, 0
1, 49870, Note_on_c, 1, 63, 127
1, 50040, Note_off_c, 1, 63, 0
1, 50041, Note_off_c, 1, 69, 0
1, 50045, Note_on_c, 1, 65, 127
1, 50045, Note_on_c, 1, 69, 127
1, 50215, Note_off_c, 1, 65, 0
1, 50218, Note_off_c, 1, 69, 0
1, 50220, Note_on_c, 1, 70, 127
1, 50220, Note_on_c, 1, 62, 127
1, 50393, Note_off_c, 1, 70, 0
1, 50395, Note_on_c, 1, 65, 127
1, 50566, Note_off_c, 1, 62, 0
1, 50568, Note_off_c, 1, 65, 0
1, 50570, Note_on_c, 1, 63, 127
1, 50570, Note_on_c, 1, 67, 127
1, 50740, Note_off_c, 1, 63, 0
1, 50743, Note_off_c, 1, 67, 0
1, 50746, Note_on_c, 1, 65, 127
1, 50919, Note_off_c, 1, 65, 0
1, 50921, Note_on_c, 1, 74, 127
1, 50921, Note_on_c, 1, 58, 127
1, 51008, Note_off_c, 1, 74, 0
1, 51008, Note_on_c, 1, 72, 127
1, 51091, Note_off_c, 1, 58, 0
1, 51095, Note_off_c, 1, 72, 0
1, 51096, Note_on_c, 1, 62, 127
1, 51096, Note_on_c, 1, 74, 127
1, 51266, Note_off_c, 1, 62, 0
1, 51271, Note_on_c, 1, 60, 127
1, 51441, Note_off_c, 1, 60, 0
1, 51621, Note_on_c, 1, 55, 127
1, 51697, Note_off_c, 1, 74, 0
1, 51791, Note_off_c, 1, 55, 0
1, 51796, Note_on_c, 1, 57, 127
1, 51796, Note_on_c, 1, 65, 127
1, 51966, Note_off_c, 1, 57, 0
1, 51969, Note_off_c, 1, 65, 0
1, 51971, Note_on_c, 1, 58, 127
1, 51971, Note_on_c, 1, 67, 127
1, 52141, Note_off_c, 1, 58, 0
1, 52144, Note_off_c, 1, 67, 0
1, 52146, Note_on_c, 1, 60, 127
1, 52146, Note_on_c, 1, 65, 127
1, 52316, Note_off_c, 1, 60, 0
1, 52319, Note_off_c, 1, 65, 0
1, 52321, Note_on_c, 1, 75, 127
1, 52321, Note_on_c, 1, 57, 127
1, 52406, Note_off_c, 1, 75, 0
1, 52409, Note_on_c, 1, 74, 127
1, 52491, Note_off_c, 1, 57, 0
1, 52494, Note_off_c, 1, 74, 0
1, 52497, Note_on_c, 1, 58, 127
1, 52497, Note_on_c, 1, 75, 127
1, 52667, Note_off_c, 1, 58, 0
1, 52672, Note_on_c, 1, 60, 127
1, 52842, Note_off_c, 1, 60, 0
1, 52847, Note_on_c, 1, 62, 127
1, 53017, Note_off_c, 1, 62, 0
1, 53098, Note_off_c, 1, 75, 0
1, 53197, Note_on_c, 1, 60, 127
1, 53197, Note_on_c, 1, 65, 127
1, 53367, Note_off_c, 1, 60, 0
1, 53370, Note_off_c, 1, 65, 0
1, 53372, Note_on_c, 1, 62, 127
1, 53372, Note_on_c, 1, 70, 127
1, 53542, Note_off_c, 1, 62, 0
1, 53545, Note_off_c, 1, 70, 0
1, 53547, Note_on_c, 1, 63, 127
1, 53547, Note_on_c, 1, 69, 127
1, 53717, Note_off_c, 1, 63, 0
1, 53720, Note_off_c, 1, 69, 0
1, 53722, Note_on_c, 1, 65, 127
1, 53722, Note_on_c, 1, 74, 127
1, 53892, Note_off_c, 1, 65, 0
1, 53895, Note_off_c, 1, 74, 0
1, 53897, Note_on_c, 1, 63, 127
1, 53897, Note_on_c, 1, 72, 127
1, 54067, Note_off_c, 1, 63, 0
1, 54070, Note_off_c, 1, 72, 0
1, 54072, Note_on_c, 1, 67, 127
1, 54072, Note_on_c, 1, 75, 127
1, 54242, Note_off_c, 1, 67, 0
1, 54245, Note_off_c, 1, 75, 0
1, 54248, Note_on_c, 1, 65, 127
1, 54248, Note_on_c, 1, 74, 127
1, 54418, Note_off_c, 1, 65, 0
1, 54421, Note_off_c, 1, 74, 0
1, 54423, Note_on_c, 1, 63, 127
1, 54423, Note_on_c, 1, 79, 127
1, 54593, Note_off_c, 1, 63, 0
1, 54596, Note_off_c, 1, 79, 0
1, 54598, Note_on_c, 1, 62, 127
1, 54598, Note_on_c, 1, 77, 127
1, 54768, Note_off_c, 1, 62, 0
1, 54771, Note_off_c, 1, 77, 0
1, 54773, Note_on_c, 1, 60, 127
1, 54773, Note_on_c, 1, 75, 127
1, 54943, Note_off_c, 1, 60, 0
1, 54946, Note_off_c, 1, 75, 0
1, 54948, Note_on_c, 1, 63, 127
1, 54948, Note_on_c, 1, 74, 127
1, 55118, Note_off_c, 1, 63, 0
1, 55121, Note_off_c, 1, 74, 0
1, 55123, Note_on_c, 1, 57, 127
1, 55123, Note_on_c, 1, 72, 127
1, 55208, Note_off_c, 1, 57, 0
1, 55211, Note_on_c, 1, 55, 127
1, 55296, Note_off_c, 1, 72, 0
1, 55296, Note_off_c, 1, 55, 0
1, 55298, Note_on_c, 1, 77, 127
1, 55298, Note_on_c, 1, 57, 127
1, 55471, Note_off_c, 1, 77, 0
1, 55473, Note_on_c, 1, 75, 127
1, 55646, Note_off_c, 1, 75, 0
1, 55823, Note_on_c, 1, 74, 127
1, 55918, Note_off_c, 1, 57, 0
1, 55996, Note_off_c, 1, 74, 0
1, 55999, Note_on_c, 1, 50, 127
1, 55999, Note_on_c, 1, 72, 127
1, 56169, Note_off_c, 1, 50, 0
1, 56172, Note_off_c, 1, 72, 0
1, 56174, Note_on_c, 1, 55, 127
1, 56174, Note_on_c, 1, 70, 127
1, 56344, Note_off_c, 1, 55, 0
1, 56347, Note_off_c, 1, 70, 0
1, 56349, Note_on_c, 1, 54, 127
1, 56349, Note_on_c, 1, 69, 127
1, 56519, Note_off_c, 1, 54, 0
1, 56522, Note_off_c, 1, 69, 0
1, 56524, Note_on_c, 1, 58, 127
1, 56524, Note_on_c, 1, 74, 127
1, 56694, Note_off_c, 1, 58, 0
1, 56697, Note_off_c, 1, 74, 0
1, 56699, Note_on_c, 1, 57, 127
1, 56699, Note_on_c, 1, 72, 127
1, 56869, Note_off_c, 1, 57, 0
1, 56872, Note_off_c, 1, 72, 0
1, 56874, Note_on_c, 1, 60, 127
1, 56874, Note_on_c, 1, 75, 127
1, 57044, Note_off_c, 1, 60, 0
1, 57047, Note_off_c, 1, 75, 0
1, 57049, Note_on_c, 1, 58, 127
1, 57049, Note_on_c, 1, 74, 127
1, 57219, Note_off_c, 1, 58, 0
1, 57222, Note_off_c, 1, 74, 0
1, 57224, Note_on_c, 1, 63, 127
1, 57224, Note_on_c, 1, 72, 127
1, 57394, Note_off_c, 1, 63, 0
1, 57397, Note_off_c, 1, 72, 0
1, 57399, Note_on_c, 1, 62, 127
1, 57399, Note_on_c, 1, 70, 127
1, 57569, Note_off_c, 1, 62, 0
1, 57572, Note_off_c, 1, 70, 0
1, 57574, Note_on_c, 1, 60, 127
1, 57574, Note_on_c, 1, 69, 127
1, 57744, Note_off_c, 1, 60, 0
1, 57747, Note_off_c, 1, 69, 0
1, 57750, Note_on_c, 1, 58, 127
1, 57750, Note_on_c, 1, 72, 127
1, 57920, Note_off_c, 1, 58, 0
1, 57923, Note_off_c, 1, 72, 0
1, 57925, Note_on_c, 1, 77, 127
1, 57925, Note_on_c, 1, 57, 127
1, 58010, Note_off_c, 1, 77, 0
1, 58012, Note_on_c, 1, 75, 127
1, 58095, Note_off_c, 1, 57, 0
1, 58097, Note_off_c, 1, 75, 0
1, 58100, Note_on_c, 1, 62, 127
1, 58100, Note_on_c, 1, 77, 127
1, 58270, Note_off_c, 1, 62, 0
1, 58275, Note_on_c, 1, 60, 127
1, 58445, Note_off_c, 1, 60, 0
1, 58625, Note_on_c, 1, 59, 127
1, 58682, Note_off_c, 1, 77, 0
1, 58794, Note_off_c, 1, 59, 0
1, 58799, Note_on_c, 1, 65, 127
1, 58799, Note_on_c, 1, 67, 127
1, 58969, Note_off_c, 1, 65, 0
1, 58972, Note_off_c, 1, 67, 0
1, 58974, Note_on_c, 1, 63, 127
1, 58974, Note_on_c, 1, 72, 127
1, 59144, Note_off_c, 1, 63, 0
1, 59147, Note_off_c, 1, 72, 0
1, 59149, Note_on_c, 1, 62, 127
1, 59149, Note_on_c, 1, 71, 127
1, 59319, Note_off_c, 1, 62, 0
1, 59322, Note_off_c, 1, 71, 0
1, 59324, Note_on_c, 1, 60, 127
1, 59324, Note_on_c, 1, 75, 127
1, 59494, Note_off_c, 1, 60, 0
1, 59497, Note_off_c, 1, 75, 0
1, 59500, Note_on_c, 1, 58, 127
1, 59500, Note_on_c, 1, 74, 127
1, 59670, Note_off_c, 1, 58, 0
1, 59673, Note_off_c, 1, 74, 0
1, 59675, Note_on_c, 1, 56, 127
1, 59675, Note_on_c, 1, 77, 127
1, 59845, Note_off_c, 1, 56, 0
1, 59848, Note_off_c, 1, 77, 0
1, 59850, Note_on_c, 1, 55, 127
1, 59850, Note_on_c, 1, 75, 127
1, 60020, Note_off_c, 1, 55, 0
1, 60023, Note_off_c, 1, 75, 0
1, 60025, Note_on_c, 1, 53, 127
1, 60025, Note_on_c, 1, 80, 127
1, 60195, Note_off_c, 1, 53, 0
1, 60198, Note_off_c, 1, 80, 0
1, 60200, Note_on_c, 1, 51, 127
1, 60200, Note_on_c, 1, 79, 127
1, 60370, Note_off_c, 1, 51, 0
1, 60373, Note_off_c, 1, 79, 0
1, 60375, Note_on_c, 1, 50, 127
1, 60375, Note_on_c, 1, 77, 127
1, 60545, Note_off_c, 1, 50, 0
1, 60548, Note_off_c, 1, 77, 0
1, 60550, Note_on_c, 1, 48, 127
1, 60550, Note_on_c, 1, 75, 127
1, 60720, Note_off_c, 1, 48, 0
1, 60723, Note_off_c, 1, 75, 0
1, 60725, Note_on_c, 1, 74, 127
1, 60725, Note_on_c, 1, 55, 127
1, 60898, Note_off_c, 1, 74, 0
1, 60900, Note_on_c, 1, 79, 127
1, 61073, Note_off_c, 1, 79, 0
1, 61075, Note_on_c, 1, 77, 127
1, 61075, Note_on_c, 1, 43, 127
1, 61234, Note_off_c, 1, 55, 0
1, 61247, Note_off_c, 1, 77, 0
1, 61401, Note_off_c, 1, 43, 0
1, 61424, Note_on_c, 1, 48, 127
1, 61424, Note_on_c, 1, 75, 127
1, 61507, Note_off_c, 1, 48, 0
1, 61511, Note_on_c, 1, 47, 127
1, 61594, Note_off_c, 1, 47, 0
1, 61597, Note_off_c, 1, 75, 0
1, 61599, Note_on_c, 1, 74, 127
1, 61599, Note_on_c, 1, 48, 127
1, 61772, Note_off_c, 1, 74, 0
1, 61774, Note_on_c, 1, 72, 127
1, 61945, Note_off_c, 1, 48, 0
1, 61947, Note_off_c, 1, 72, 0
1, 61949, Note_on_c, 1, 50, 127
1, 61949, Note_on_c, 1, 71, 127
1, 62119, Note_off_c, 1, 50, 0
1, 62122, Note_off_c, 1, 71, 0
1, 62124, Note_on_c, 1, 51, 127
1, 62124, Note_on_c, 1, 72, 127
1, 62294, Note_off_c, 1, 51, 0
1, 62297, Note_off_c, 1, 72, 0
1, 62299, Note_on_c, 1, 53, 127
1, 62299, Note_on_c, 1, 74, 127
1, 62469, Note_off_c, 1, 53, 0
1, 62472, Note_off_c, 1, 74, 0
1, 62474, Note_on_c, 1, 75, 127
1, 62474, Note_on_c, 1, 55, 127
1, 62647, Note_off_c, 1, 75, 0
1, 62649, Note_on_c, 1, 67, 127
1, 62820, Note_off_c, 1, 55, 0
1, 62822, Note_off_c, 1, 67, 0
1, 62824, Note_on_c, 1, 56, 127
1, 62824, Note_on_c, 1, 68, 127
1, 62907, Note_off_c, 1, 56, 0
1, 62912, Note_on_c, 1, 55, 127
1, 62995, Note_off_c, 1, 55, 0
1, 62997, Note_off_c, 1, 68, 0
1, 62999, Note_on_c, 1, 56, 127
1, 62999, Note_on_c, 1, 70, 127
1, 63082, Note_off_c, 1, 56, 0
1, 63087, Note_on_c, 1, 55, 127
1, 63170, Note_off_c, 1, 55, 0
1, 63172, Note_off_c, 1, 70, 0
1, 63175, Note_on_c, 1, 68, 127
1, 63175, Note_on_c, 1, 53, 127
1, 63348, Note_off_c, 1, 68, 0
1, 63350, Note_on_c, 1, 65, 127
1, 63523, Note_off_c, 1, 65, 0
1, 63525, Note_on_c, 1, 77, 127
1, 63698, Note_off_c, 1, 77, 0
1, 63700, Note_on_c, 1, 75, 127
1, 63831, Note_off_c, 1, 53, 0
1, 63873, Note_off_c, 1, 75, 0
1, 63875, Note_on_c, 1, 74, 127
1, 63875, Note_on_c, 1, 53, 127
1, 64048, Note_off_c, 1, 74, 0
1, 64050, Note_on_c, 1, 72, 127
1, 64221, Note_off_c, 1, 53, 0
1, 64223, Note_off_c, 1, 72, 0
1, 64225, Note_on_c, 1, 55, 127
1, 64225, Note_on_c, 1, 71, 127
1, 64308, Note_off_c, 1, 55, 0
1, 64313, Note_on_c, 1, 53, 127
1, 64396, Note_off_c, 1, 53, 0
1, 64398, Note_off_c, 1, 71, 0
1, 64400, Note_on_c, 1, 55, 127
1, 64400, Note_on_c, 1, 80, 127
1, 64483, Note_off_c, 1, 55, 0
1, 64488, Note_on_c, 1, 53, 127
1, 64571, Note_off_c, 1, 53, 0
1, 64573, Note_off_c, 1, 80, 0
1, 64575, Note_on_c, 1, 79, 127
1, 64575, Note_on_c, 1, 51, 127
1, 64748, Note_off_c, 1, 79, 0
1, 64750, Note_on_c, 1, 77, 127
1, 64923, Note_off_c, 1, 77, 0
1, 64926, Note_on_c, 1, 75, 127
1, 65030, Note_off_c, 1, 51, 0
1, 65098, Note_off_c, 1, 75, 0
1, 65100, Note_on_c, 1, 53, 127
1, 65100, Note_on_c, 1, 74, 127
1, 65270, Note_off_c, 1, 53, 0
1, 65273, Note_off_c, 1, 74, 0
1, 65275, Note_on_c, 1, 51, 127
1, 65275, Note_on_c, 1, 72, 127
1, 65445, Note_off_c, 1, 51, 0
1, 65448, Note_off_c, 1, 72, 0
1, 65450, Note_on_c, 1, 50, 127
1, 65450, Note_on_c, 1, 71, 127
1, 65620, Note_off_c, 1, 50, 0
1, 65623, Note_off_c, 1, 71, 0
1, 65625, Note_on_c, 1, 48, 127
1, 65625, Note_on_c, 1, 72, 127
1, 65795, Note_off_c, 1, 48, 0
1, 65798, Note_off_c, 1, 72, 0
1, 65800, Note_on_c, 1, 46, 127
1, 65800, Note_on_c, 1, 74, 127
1, 65970, Note_off_c, 1, 46, 0
1, 65973, Note_off_c, 1, 74, 0
1, 65975, Note_on_c, 1, 44, 127
1, 65975, Note_on_c, 1, 72, 127
1, 66145, Note_off_c, 1, 44, 0
1, 66148, Note_off_c, 1, 72, 0
1, 66150, Note_on_c, 1, 43, 127
1, 66150, Note_on_c, 1, 74, 127
1, 66320, Note_off_c, 1, 43, 0
1, 66323, Note_off_c, 1, 74, 0
1, 66325, Note_on_c, 1, 75, 127
1, 66325, Note_on_c, 1, 41, 127
1, 66408, Note_off_c, 1, 75, 0
1, 66413, Note_on_c, 1, 74, 127
1, 66495, Note_off_c, 1, 41, 0
1, 66496, Note_off_c, 1, 74, 0
1, 66500, Note_on_c, 1, 75, 127
1, 66500, Note_on_c, 1, 39, 127
1, 66583, Note_off_c, 1, 75, 0
1, 66588, Note_on_c, 1, 74, 127
1, 66670, Note_off_c, 1, 39, 0
1, 66671, Note_off_c, 1, 74, 0
1, 66676, Note_on_c, 1, 75, 127
1, 66676, Note_on_c, 1, 41, 127
1, 66759, Note_off_c, 1, 75, 0
1, 66763, Note_on_c, 1, 74, 127
1, 66846, Note_off_c, 1, 41, 0
1, 66846, Note_off_c, 1, 74, 0
1, 66851, Note_on_c, 1, 72, 127
1, 66851, Note_on_c, 1, 43, 127
1, 66934, Note_off_c, 1, 72, 0
1, 66938, Note_on_c, 1, 74, 127
1, 67021, Note_off_c, 1, 43, 0
1, 67021, Note_off_c, 1, 74, 0
1, 67026, Note_on_c, 1, 75, 127
1, 67026, Note_on_c, 1, 36, 127
1, 67199, Note_off_c, 1, 75, 0
1, 67201, Note_on_c, 1, 74, 127
1, 67372, Note_off_c, 1, 36, 0
1, 67374, Note_off_c, 1, 74, 0
1, 67376, Note_on_c, 1, 48, 127
1, 67376, Note_on_c, 1, 72, 127
1, 67546, Note_off_c, 1, 48, 0
1, 67549, Note_off_c, 1, 72, 0
1, 67551, Note_on_c, 1, 47, 127
1, 67551, Note_on_c, 1, 74, 127
1, 67721, Note_off_c, 1, 47, 0
1, 67724, Note_off_c, 1, 74, 0
1, 67726, Note_on_c, 1, 48, 127
1, 67726, Note_on_c, 1, 75, 127
1, 67896, Note_off_c, 1, 48, 0
1, 67899, Note_off_c, 1, 75, 0
1, 67901, Note_on_c, 1, 50, 127
1, 67901, Note_on_c, 1, 77, 127
1, 68071, Note_off_c, 1, 50, 0
1, 68074, Note_off_c, 1, 77, 0
1, 68076, Note_on_c, 1, 51, 127
1, 68076, Note_on_c, 1, 79, 127
1, 68246, Note_off_c, 1, 51, 0
1, 68251, Note_on_c, 1, 43, 127
1, 68348, Note_off_c, 1, 79, 0
1, 68421, Note_off_c, 1, 43, 0
1, 68427, Note_on_c, 1, 80, 127
1, 68427, Note_on_c, 1, 44, 127
1, 68510, Note_off_c, 1, 80, 0
1, 68514, Note_on_c, 1, 79, 127
1, 68597, Note_off_c, 1, 44, 0
1, 68597, Note_off_c, 1, 79, 0
1, 68602, Note_on_c, 1, 80, 127
1, 68602, Note_on_c, 1, 46, 127
1, 68685, Note_off_c, 1, 80, 0
1, 68689, Note_on_c, 1, 79, 127
1, 68772, Note_off_c, 1, 46, 0
1, 68772, Note_off_c, 1, 79, 0
1, 68777, Note_on_c, 1, 44, 127
1, 68777, Note_on_c, 1, 77, 127
1, 68947, Note_off_c, 1, 44, 0
1, 68952, Note_on_c, 1, 41, 127
1, 69122, Note_off_c, 1, 41, 0
1, 69127, Note_on_c, 1, 53, 127
1, 69297, Note_off_c, 1, 53, 0
1, 69302, Note_on_c, 1, 51, 127
1, 69397, Note_off_c, 1, 77, 0
1, 69472, Note_off_c, 1, 51, 0
1, 69477, Note_on_c, 1, 50, 127
1, 69477, Note_on_c, 1, 77, 127
1, 69647, Note_off_c, 1, 50, 0
1, 69652, Note_on_c, 1, 48, 127
1, 69822, Note_off_c, 1, 48, 0
1, 69823, Note_off_c, 1, 77, 0
1, 69827, Note_on_c, 1, 79, 127
1, 69827, Note_on_c, 1, 47, 127
1, 69911, Note_off_c, 1, 79, 0
1, 69916, Note_on_c, 1, 77, 127
1, 70000, Note_off_c, 1, 47, 0
1, 70000, Note_off_c, 1, 77, 0
1, 70004, Note_on_c, 1, 79, 127
1, 70004, Note_on_c, 1, 56, 127
1, 70088, Note_off_c, 1, 79, 0
1, 70093, Note_on_c, 1, 77, 127
1, 70177, Note_off_c, 1, 56, 0
1, 70177, Note_off_c, 1, 77, 0
1, 70182, Note_on_c, 1, 55, 127
1, 70182, Note_on_c, 1, 75, 127
1, 70355, Note_off_c, 1, 55, 0
1, 70357, Note_off_c, 1, 75, 0
1, 70359, Note_on_c, 1, 53, 127
1, 70359, Note_on_c, 1, 74, 127
1, 70532, Note_off_c, 1, 53, 0
1, 70534, Note_off_c, 1, 74, 0
1, 70536, Note_on_c, 1, 51, 127
1, 70536, Note_on_c, 1, 79, 127
1, 70712, Note_off_c, 1, 51, 0
1, 70714, Note_off_c, 1, 79, 0
1, 70716, Note_on_c, 1, 50, 127
1, 70716, Note_on_c, 1, 77, 127
1, 70892, Note_off_c, 1, 50, 0
1, 70894, Note_off_c, 1, 77, 0
1, 70896, Note_on_c, 1, 48, 127
1, 70896, Note_on_c, 1, 80, 127
1, 71072, Note_off_c, 1, 48, 0
1, 71074, Note_off_c, 1, 80, 0
1, 71077, Note_on_c, 1, 47, 127
1, 71077, Note_on_c, 1, 79, 127
1, 71253, Note_off_c, 1, 47, 0
1, 71255, Note_off_c, 1, 79, 0
1, 71257, Note_on_c, 1, 79, 127
1, 71257, Note_on_c, 1, 48, 127
1, 71345, Note_off_c, 1, 79, 0
1, 71350, Note_on_c, 1, 77, 127
1, 71438, Note_off_c, 1, 48, 0
1, 71438, Note_off_c, 1, 77, 0
1, 71442, Note_on_c, 1, 43, 127
1, 71442, Note_on_c, 1, 79, 127
1, 71623, Note_off_c, 1, 43, 0
1, 71628, Note_on_c, 1, 44, 127
1, 71808, Note_off_c, 1, 79, 0
1, 71809, Note_off_c, 1, 44, 0
1, 71813, Note_on_c, 1, 41, 127
1, 71813, Note_on_c, 1, 80, 127
1, 71994, Note_off_c, 1, 41, 0
1, 71996, Note_off_c, 1, 80, 0
1, 71999, Note_on_c, 1, 75, 127
1, 71999, Note_on_c, 1, 43, 127
1, 72138, Note_off_c, 1, 75, 0
1, 72140, Note_on_c, 1, 74, 127
1, 72215, Note_off_c, 1, 74, 0
1, 72417, Note_off_c, 1, 43, 0
1, 72648, Note_on_c, 1, 72, 127
1, 72857, Note_off_c, 1, 72, 0
1, 72876, Note_on_c, 1, 72, 127
1, 72876, Note_on_c, 1, 36, 127
1, 75524, Note_off_c, 1, 72, 0
1, 75524, Note_off_c, 1, 36, 0
1, 75524, End_track
0, 0, End_of_file