0, 0, Header, 1, 1, 480
1, 0, Start_track
1, 0, Title_t, "Test"
1, 0, Tempo, 500000
1, 0, Instrument_name_t, "Church Organ"
1, 96, Note_on_c, 1, 51, 127
1, 172, Note_on_c, 1, 50, 127
1, 187, Note_off_c, 1, 51, 0
1, 236, Note_off_c, 1, 50, 0
1, 249, Note_on_c, 1, 51, 127
1, 445, Note_on_c, 1, 63, 127
1, 618, Note_off_c, 1, 63, 0
1, 620, Note_on_c, 1, 62, 127
1, 793, Note_off_c, 1, 62, 0
1, 795, Note_on_c, 1, 39, 127
1, 1122, Note_off_c, 1, 51, 0
1, 1144, Note_on_c, 1, 65, 127
1, 1359, Note_off_c, 1, 39, 0
1, 1486, Note_off_c, 1, 65, 0
1, 1493, Note_on_c, 1, 67, 127
1, 1578, Note_off_c, 1, 67, 0
1, 1580, Note_on_c, 1, 65, 127
1, 1665, Note_off_c, 1, 65, 0
1, 1667, Note_on_c, 1, 63, 127
1, 1667, Note_on_c, 1, 67, 127
1, 1840, Note_off_c, 1, 63, 0
1, 1842, Note_on_c, 1, 62, 127
1, 1995, Note_off_c, 1, 67, 0
1, 2015, Note_off_c, 1, 62, 0
1, 2017, Note_on_c, 1, 63, 127
1, 2190, Note_off_c, 1, 63, 0
1, 2192, Note_on_c, 1, 60, 127
1, 2192, Note_on_c, 1, 68, 127
1, 2365, Note_off_c, 1, 60, 0
1, 2367, Note_on_c, 1, 62, 127
1, 2538, Note_off_c, 1, 68, 0
1, 2540, Note_off_c, 1, 62, 0
1, 2542, Note_on_c, 1, 58, 127
1, 2715, Note_off_c, 1, 58, 0
1, 2717, Note_on_c, 1, 60, 127
1, 2890, Note_off_c, 1, 60, 0
1, 2892, Note_on_c, 1, 56, 127
1, 3065, Note_off_c, 1, 56, 0
1, 3067, Note_on_c, 1, 60, 127
1, 3240, Note_off_c, 1, 60, 0
1, 3242, Note_on_c, 1, 65, 127
1, 3242, Note_on_c, 1, 58, 127
1, 3415, Note_off_c, 1, 65, 0
1, 3415, Note_off_c, 1, 58, 0
1, 3417, Note_on_c, 1, 63, 127
1, 3417, Note_on_c, 1, 60, 127
1, 3590, Note_off_c, 1, 63, 0
1, 3590, Note_off_c, 1, 60, 0
1, 3592, Note_on_c, 1, 56, 127
1, 3592, Note_on_c, 1, 65, 127
1, 3765, Note_off_c, 1, 56, 0
1, 3767, Note_on_c, 1, 58, 127
1, 3931, Note_off_c, 1, 65, 0
1, 3940, Note_off_c, 1, 58, 0
1, 3942, Note_on_c, 1, 55, 127
1, 3942, Note_on_c, 1, 67, 127
1, 4115, Note_off_c, 1, 55, 0
1, 4117, Note_on_c, 1, 56, 127
1, 4281, Note_off_c, 1, 67, 0
1, 4290, Note_off_c, 1, 56, 0
1, 4292, Note_on_c, 1, 68, 127
1, 4292, Note_on_c, 1, 53, 127
1, 4377, Note_off_c, 1, 68, 0
1, 4379, Note_on_c, 1, 67, 127
1, 4464, Note_off_c, 1, 53, 0
1, 4464, Note_off_c, 1, 67, 0
1, 4466, Note_on_c, 1, 63, 127
1, 4466, Note_on_c, 1, 68, 127
1, 4639, Note_off_c, 1, 63, 0
1, 4641, Note_on_c, 1, 62, 127
1, 4794, Note_off_c, 1, 68, 0
1, 4814, Note_off_c, 1, 62, 0
1, 4816, Note_on_c, 1, 60, 127
1, 4989, Note_off_c, 1, 60, 0
1, 4991, Note_on_c, 1, 62, 127
1, 4991, Note_on_c, 1, 70, 127
1, 5164, Note_off_c, 1, 62, 0
1, 5166, Note_on_c, 1, 63, 127
1, 5337, Note_off_c, 1, 70, 0
1, 5339, Note_off_c, 1, 63, 0
1, 5341, Note_on_c, 1, 60, 127
1, 5514, Note_off_c, 1, 60, 0
1, 5516, Note_on_c, 1, 62, 127
1, 5689, Note_off_c, 1, 62, 0
1, 5691, Note_on_c, 1, 51, 127
1, 5691, Note_on_c, 1, 67, 127
1, 5864, Note_off_c, 1, 51, 0
1, 5866, Note_on_c, 1, 63, 127
1, 6039, Note_off_c, 1, 67, 0
1, 6039, Note_off_c, 1, 63, 0
1, 6041, Note_on_c, 1, 62, 127
1, 6041, Note_on_c, 1, 72, 127
1, 6214, Note_off_c, 1, 62, 0
1, 6216, Note_on_c, 1, 60, 127
1, 6389, Note_off_c, 1, 72, 0
1, 6389, Note_off_c, 1, 60, 0
1, 6391, Note_on_c, 1, 70, 127
1, 6391, Note_on_c, 1, 62, 127
1, 6495, Note_off_c, 1, 70, 0
1, 6497, Note_on_c, 1, 72, 127
1, 6564, Note_off_c, 1, 62, 0
1, 6566, Note_on_c, 1, 63, 127
1, 6601, Note_off_c, 1, 72, 0
1, 6739, Note_off_c, 1, 63, 0
1, 6741, Note_on_c, 1, 60, 127
1, 6741, Note_on_c, 1, 68, 127
1, 6914, Note_off_c, 1, 60, 0
1, 6916, Note_on_c, 1, 62, 127
1, 7060, Note_off_c, 1, 68, 0
1, 7089, Note_off_c, 1, 62, 0
1, 7091, Note_on_c, 1, 67, 127
1, 7091, Note_on_c, 1, 58, 127
1, 7264, Note_off_c, 1, 67, 0
1, 7264, Note_off_c, 1, 58, 0
1, 7266, Note_on_c, 1, 68, 127
1, 7266, Note_on_c, 1, 63, 127
1, 7439, Note_off_c, 1, 68, 0
1, 7439, Note_off_c, 1, 63, 0
1, 7441, Note_on_c, 1, 70, 127
1, 7441, Note_on_c, 1, 62, 127
1, 7614, Note_off_c, 1, 70, 0
1, 7614, Note_off_c, 1, 62, 0
1, 7616, Note_on_c, 1, 68, 127
1, 7616, Note_on_c, 1, 60, 127
1, 7789, Note_off_c, 1, 68, 0
1, 7789, Note_off_c, 1, 60, 0
1, 7791, Note_on_c, 1, 58, 127
1, 7791, Note_on_c, 1, 67, 127
1, 7964, Note_off_c, 1, 58, 0
1, 7966, Note_on_c, 1, 60, 127
1, 8119, Note_off_c, 1, 67, 0
1, 8139, Note_off_c, 1, 60, 0
1, 8141, Note_on_c, 1, 56, 127
1, 8141, Note_on_c, 1, 65, 127
1, 8314, Note_off_c, 1, 56, 0
1, 8316, Note_on_c, 1, 58, 127
1, 8469, Note_off_c, 1, 65, 0
1, 8489, Note_off_c, 1, 58, 0
1, 8491, Note_on_c, 1, 55, 127
1, 8491, Note_on_c, 1, 63, 127
1, 8664, Note_off_c, 1, 55, 0
1, 8666, Note_on_c, 1, 60, 127
1, 8839, Note_off_c, 1, 63, 0
1, 8839, Note_off_c, 1, 60, 0
1, 8841, Note_on_c, 1, 58, 127
1, 8841, Note_on_c, 1, 67, 127
1, 9014, Note_off_c, 1, 58, 0
1, 9016, Note_on_c, 1, 56, 127
1, 9169, Note_off_c, 1, 67, 0
1, 9189, Note_off_c, 1, 56, 0
1, 9191, Note_on_c, 1, 55, 127
1, 9191, Note_on_c, 1, 70, 127
1, 9364, Note_off_c, 1, 55, 0
1, 9366, Note_on_c, 1, 56, 127
1, 9519, Note_off_c, 1, 70, 0
1, 9539, Note_off_c, 1, 56, 0
1, 9541, Note_on_c, 1, 53, 127
1, 9541, Note_on_c, 1, 75, 127
1, 9714, Note_off_c, 1, 53, 0
1, 9716, Note_on_c, 1, 55, 127
1, 9889, Note_off_c, 1, 55, 0
1, 9891, Note_on_c, 1, 48, 127
1, 10064, Note_off_c, 1, 75, 0
1, 10064, Note_off_c, 1, 48, 0
1, 10066, Note_on_c, 1, 72, 127
1, 10066, Note_on_c, 1, 58, 127
1, 10239, Note_off_c, 1, 72, 0
1, 10239, Note_off_c, 1, 58, 0
1, 10241, Note_on_c, 1, 74, 127
1, 10241, Note_on_c, 1, 57, 127
1, 10414, Note_off_c, 1, 74, 0
1, 10414, Note_off_c, 1, 57, 0
1, 10416, Note_on_c, 1, 75, 127
1, 10416, Note_on_c, 1, 55, 127
1, 10589, Note_off_c, 1, 75, 0
1, 10589, Note_off_c, 1, 55, 0
1, 10591, Note_on_c, 1, 57, 127
1, 10591, Note_on_c, 1, 77, 127
1, 10764, Note_off_c, 1, 57, 0
1, 10766, Note_on_c, 1, 58, 127
1, 10939, Note_off_c, 1, 77, 0
1, 10939, Note_off_c, 1, 58, 0
1, 10941, Note_on_c, 1, 55, 127
1, 10941, Note_on_c, 1, 75, 127
1, 11114, Note_off_c, 1, 55, 0
1, 11116, Note_on_c, 1, 57, 127
1, 11289, Note_off_c, 1, 75, 0
1, 11289, Note_off_c, 1, 57, 0
1, 11291, Note_on_c, 1, 74, 127
1, 11291, Note_on_c, 1, 58, 127
1, 11464, Note_off_c, 1, 74, 0
1, 11466, Note_on_c, 1, 75, 127
1, 11639, Note_off_c, 1, 58, 0
1, 11639, Note_off_c, 1, 75, 0
1, 11641, Note_on_c, 1, 74, 127
1, 11641, Note_on_c, 1, 46, 127
1, 11814, Note_off_c, 1, 74, 0
1, 11814, Note_off_c, 1, 46, 0
1, 11816, Note_on_c, 1, 72, 127
1, 11816, Note_on_c, 1, 45, 127
1, 11989, Note_off_c, 1, 72, 0
1, 11989, Note_off_c, 1, 45, 0
1, 11991, Note_on_c, 1, 74, 127
1, 11991, Note_on_c, 1, 46, 127
1, 12164, Note_off_c, 1, 74, 0
1, 12166, Note_on_c, 1, 75, 127
1, 12339, Note_off_c, 1, 46, 0
1, 12339, Note_off_c, 1, 75, 0
1, 12341, Note_on_c, 1, 72, 127
1, 12341, Note_on_c, 1, 48, 127
1, 12514, Note_off_c, 1, 72, 0
1, 12516, Note_on_c, 1, 74, 127
1, 12689, Note_off_c, 1, 48, 0
1, 12689, Note_off_c, 1, 74, 0
1, 12691, Note_on_c, 1, 50, 127
1, 12691, Note_on_c, 1, 70, 127
1, 12776, Note_off_c, 1, 50, 0
1, 12778, Note_on_c, 1, 48, 127
1, 12863, Note_off_c, 1, 48, 0
1, 12865, Note_on_c, 1, 82, 127
1, 12909, Note_off_c, 1, 70, 0
1, 13038, Note_off_c, 1, 82, 0
1, 13040, Note_on_c, 1, 81, 127
1, 13213, Note_off_c, 1, 81, 0
1, 13390, Note_on_c, 1, 79, 127
1, 13390, Note_on_c, 1, 51, 127
1, 13563, Note_off_c, 1, 79, 0
1, 13565, Note_on_c, 1, 81, 127
1, 13738, Note_off_c, 1, 81, 0
1, 13740, Note_on_c, 1, 77, 127
1, 13913, Note_off_c, 1, 77, 0
1, 13937, Note_off_c, 1, 51, 0
1, 14090, Note_on_c, 1, 75, 127
1, 14263, Note_off_c, 1, 75, 0
1, 14265, Note_on_c, 1, 79, 127
1, 14438, Note_off_c, 1, 79, 0
1, 14440, Note_on_c, 1, 77, 127
1, 14440, Note_on_c, 1, 48, 127
1, 14613, Note_off_c, 1, 77, 0
1, 14613, Note_off_c, 1, 48, 0
1, 14615, Note_on_c, 1, 79, 127
1, 14615, Note_on_c, 1, 46, 127
1, 14788, Note_off_c, 1, 79, 0
1, 14788, Note_off_c, 1, 46, 0
1, 14790, Note_on_c, 1, 75, 127
1, 14790, Note_on_c, 1, 48, 127
1, 14963, Note_off_c, 1, 75, 0
1, 14965, Note_on_c, 1, 77, 127
1, 15138, Note_off_c, 1, 48, 0
1, 15138, Note_off_c, 1, 77, 0
1, 15140, Note_on_c, 1, 74, 127
1, 15140, Note_on_c, 1, 50, 127
1, 15313, Note_off_c, 1, 74, 0
1, 15315, Note_on_c, 1, 75, 127
1, 15488, Note_off_c, 1, 50, 0
1, 15488, Note_off_c, 1, 75, 0
1, 15490, Note_on_c, 1, 51, 127
1, 15490, Note_on_c, 1, 72, 127
1, 15575, Note_off_c, 1, 51, 0
1, 15577, Note_on_c, 1, 50, 127
1, 15662, Note_off_c, 1, 72, 0
1, 15662, Note_off_c, 1, 50, 0
1, 15664, Note_on_c, 1, 82, 127
1, 15664, Note_on_c, 1, 51, 127
1, 15837, Note_off_c, 1, 82, 0
1, 15839, Note_on_c, 1, 81, 127
1, 16012, Note_off_c, 1, 81, 0
1, 16014, Note_on_c, 1, 79, 127
1, 16147, Note_off_c, 1, 51, 0
1, 16187, Note_off_c, 1, 79, 0
1, 16189, Note_on_c, 1, 81, 127
1, 16189, Note_on_c, 1, 53, 127
1, 16362, Note_off_c, 1, 81, 0
1, 16364, Note_on_c, 1, 82, 127
1, 16537, Note_off_c, 1, 82, 0
1, 16539, Note_on_c, 1, 79, 127
1, 16712, Note_off_c, 1, 79, 0
1, 16772, Note_off_c, 1, 53, 0
1, 16889, Note_on_c, 1, 70, 127
1, 16889, Note_on_c, 1, 50, 127
1, 17062, Note_off_c, 1, 70, 0
1, 17064, Note_on_c, 1, 82, 127
1, 17237, Note_off_c, 1, 50, 0
1, 17237, Note_off_c, 1, 82, 0
1, 17239, Note_on_c, 1, 81, 127
1, 17239, Note_on_c, 1, 55, 127
1, 17412, Note_off_c, 1, 81, 0
1, 17414, Note_on_c, 1, 79, 127
1, 17587, Note_off_c, 1, 55, 0
1, 17587, Note_off_c, 1, 79, 0
1, 17589, Note_on_c, 1, 53, 127
1, 17589, Note_on_c, 1, 81, 127
1, 17689, Note_off_c, 1, 53, 0
1, 17691, Note_on_c, 1, 55, 127
1, 17762, Note_off_c, 1, 81, 0
1, 17764, Note_on_c, 1, 82, 127
1, 17791, Note_off_c, 1, 55, 0
1, 17937, Note_off_c, 1, 82, 0
1, 17939, Note_on_c, 1, 79, 127
1, 17939, Note_on_c, 1, 51, 127
1, 18112, Note_off_c, 1, 79, 0
1, 18114, Note_on_c, 1, 81, 127
1, 18287, Note_off_c, 1, 51, 0
1, 18287, Note_off_c, 1, 81, 0
1, 18289, Note_on_c, 1, 77, 127
1, 18289, Note_on_c, 1, 50, 127
1, 18462, Note_off_c, 1, 77, 0
1, 18462, Note_off_c, 1, 50, 0
1, 18464, Note_on_c, 1, 82, 127
1, 18464, Note_on_c, 1, 51, 127
1, 18637, Note_off_c, 1, 82, 0
1, 18637, Note_off_c, 1, 51, 0
1, 18639, Note_on_c, 1, 80, 127
1, 18639, Note_on_c, 1, 53, 127
1, 18812, Note_off_c, 1, 80, 0
1, 18812, Note_off_c, 1, 53, 0
1, 18814, Note_on_c, 1, 79, 127
1, 18814, Note_on_c, 1, 51, 127
1, 18987, Note_off_c, 1, 79, 0
1, 18987, Note_off_c, 1, 51, 0
1, 18989, Note_on_c, 1, 77, 127
1, 18989, Note_on_c, 1, 50, 127
1, 19162, Note_off_c, 1, 77, 0
1, 19164, Note_on_c, 1, 79, 127
1, 19337, Note_off_c, 1, 50, 0
1, 19337, Note_off_c, 1, 79, 0
1, 19339, Note_on_c, 1, 75, 127
1, 19339, Note_on_c, 1, 48, 127
1, 19512, Note_off_c, 1, 75, 0
1, 19514, Note_on_c, 1, 77, 127
1, 19687, Note_off_c, 1, 48, 0
1, 19687, Note_off_c, 1, 77, 0
1, 19689, Note_on_c, 1, 74, 127
1, 19689, Note_on_c, 1, 46, 127
1, 19862, Note_off_c, 1, 74, 0
1, 19864, Note_on_c, 1, 79, 127
1, 20037, Note_off_c, 1, 46, 0
1, 20037, Note_off_c, 1, 79, 0
1, 20039, Note_on_c, 1, 77, 127
1, 20039, Note_on_c, 1, 50, 127
1, 20212, Note_off_c, 1, 77, 0
1, 20214, Note_on_c, 1, 75, 127
1, 20387, Note_off_c, 1, 50, 0
1, 20387, Note_off_c, 1, 75, 0
1, 20389, Note_on_c, 1, 74, 127
1, 20389, Note_on_c, 1, 53, 127
1, 20562, Note_off_c, 1, 74, 0
1, 20564, Note_on_c, 1, 75, 127
1, 20737, Note_off_c, 1, 53, 0
1, 20737, Note_off_c, 1, 75, 0
1, 20739, Note_on_c, 1, 72, 127
1, 20739, Note_on_c, 1, 56, 127
1, 20912, Note_off_c, 1, 72, 0
1, 20914, Note_on_c, 1, 74, 127
1, 21089, Note_on_c, 1, 65, 127
1, 21105, Note_off_c, 1, 74, 0
1, 21261, Note_off_c, 1, 56, 0
1, 21261, Note_off_c, 1, 65, 0
1, 21263, Note_on_c, 1, 75, 127
1, 21263, Note_on_c, 1, 53, 127
1, 21436, Note_off_c, 1, 75, 0
1, 21436, Note_off_c, 1, 53, 0
1, 21438, Note_on_c, 1, 74, 127
1, 21438, Note_on_c, 1, 55, 127
1, 21611, Note_off_c, 1, 74, 0
1, 21611, Note_off_c, 1, 55, 0
1, 21613, Note_on_c, 1, 72, 127
1, 21613, Note_on_c, 1, 56, 127
1, 21786, Note_off_c, 1, 72, 0
1, 21786, Note_off_c, 1, 56, 0
1, 21788, Note_on_c, 1, 74, 127
1, 21788, Note_on_c, 1, 58, 127
1, 21961, Note_off_c, 1, 74, 0
1, 21963, Note_on_c, 1, 75, 127
1, 22136, Note_off_c, 1, 58, 0
1, 22136, Note_off_c, 1, 75, 0
1, 22138, Note_on_c, 1, 72, 127
1, 22138, Note_on_c, 1, 56, 127
1, 22311, Note_off_c, 1, 72, 0
1, 22313, Note_on_c, 1, 74, 127
1, 22486, Note_off_c, 1, 56, 0
1, 22486, Note_off_c, 1, 74, 0
1, 22488, Note_on_c, 1, 55, 127
1, 22488, Note_on_c, 1, 75, 127
1, 22661, Note_off_c, 1, 55, 0
1, 22663, Note_on_c, 1, 56, 127
1, 22798, Note_off_c, 1, 75, 0
1, 22836, Note_off_c, 1, 56, 0
1, 22838, Note_on_c, 1, 70, 127
1, 22838, Note_on_c, 1, 55, 127
1, 23011, Note_off_c, 1, 70, 0
1, 23011, Note_off_c, 1, 55, 0
1, 23013, Note_on_c, 1, 68, 127
1, 23013, Note_on_c, 1, 53, 127
1, 23186, Note_off_c, 1, 68, 0
1, 23186, Note_off_c, 1, 53, 0
1, 23188, Note_on_c, 1, 55, 127
1, 23188, Note_on_c, 1, 70, 127
1, 23361, Note_off_c, 1, 55, 0
1, 23363, Note_on_c, 1, 56, 127
1, 23536, Note_off_c, 1, 70, 0
1, 23536, Note_off_c, 1, 56, 0
1, 23538, Note_on_c, 1, 53, 127
1, 23538, Note_on_c, 1, 72, 127
1, 23711, Note_off_c, 1, 53, 0
1, 23713, Note_on_c, 1, 55, 127
1, 23886, Note_off_c, 1, 72, 0
1, 23886, Note_off_c, 1, 55, 0
1, 23888, Note_on_c, 1, 73, 127
1, 23888, Note_on_c, 1, 51, 127
1, 23973, Note_off_c, 1, 73, 0
1, 23975, Note_on_c, 1, 72, 127
1, 24060, Note_off_c, 1, 51, 0
1, 24060, Note_off_c, 1, 72, 0
1, 24062, Note_on_c, 1, 63, 127
1, 24062, Note_on_c, 1, 73, 127
1, 24235, Note_off_c, 1, 63, 0
1, 24237, Note_on_c, 1, 61, 127
1, 24390, Note_off_c, 1, 73, 0
1, 24410, Note_off_c, 1, 61, 0
1, 24412, Note_on_c, 1, 63, 127
1, 24585, Note_off_c, 1, 63, 0
1, 24587, Note_on_c, 1, 60, 127
1, 24587, Note_on_c, 1, 75, 127
1, 24760, Note_off_c, 1, 60, 0
1, 24762, Note_on_c, 1, 61, 127
1, 24933, Note_off_c, 1, 75, 0
1, 24935, Note_off_c, 1, 61, 0
1, 24937, Note_on_c, 1, 58, 127
1, 25110, Note_off_c, 1, 58, 0
1, 25112, Note_on_c, 1, 60, 127
1, 25285, Note_off_c, 1, 60, 0
1, 25287, Note_on_c, 1, 56, 127
1, 25460, Note_off_c, 1, 56, 0
1, 25462, Note_on_c, 1, 58, 127
1, 25635, Note_off_c, 1, 58, 0
1, 25637, Note_on_c, 1, 72, 127
1, 25637, Note_on_c, 1, 56, 127
1, 25810, Note_off_c, 1, 72, 0
1, 25810, Note_off_c, 1, 56, 0
1, 25812, Note_on_c, 1, 70, 127
1, 25812, Note_on_c, 1, 55, 127
1, 25985, Note_off_c, 1, 70, 0
1, 25985, Note_off_c, 1, 55, 0
1, 25987, Note_on_c, 1, 56, 127
1, 25987, Note_on_c, 1, 72, 127
1, 26160, Note_off_c, 1, 56, 0
1, 26162, Note_on_c, 1, 58, 127
1, 26335, Note_off_c, 1, 72, 0
1, 26335, Note_off_c, 1, 58, 0
1, 26337, Note_on_c, 1, 55, 127
1, 26337, Note_on_c, 1, 74, 127
1, 26510, Note_off_c, 1, 55, 0
1, 26512, Note_on_c, 1, 56, 127
1, 26685, Note_off_c, 1, 74, 0
1, 26685, Note_off_c, 1, 56, 0
1, 26687, Note_on_c, 1, 75, 127
1, 26687, Note_on_c, 1, 53, 127
1, 26772, Note_off_c, 1, 75, 0
1, 26774, Note_on_c, 1, 74, 127
1, 26859, Note_off_c, 1, 53, 0
1, 26859, Note_off_c, 1, 74, 0
1, 26861, Note_on_c, 1, 65, 127
1, 26861, Note_on_c, 1, 75, 127
1, 27034, Note_off_c, 1, 65, 0
1, 27036, Note_on_c, 1, 63, 127
1, 27189, Note_off_c, 1, 75, 0
1, 27209, Note_off_c, 1, 63, 0
1, 27211, Note_on_c, 1, 65, 127
1, 27384, Note_off_c, 1, 65, 0
1, 27386, Note_on_c, 1, 62, 127
1, 27386, Note_on_c, 1, 77, 127
1, 27559, Note_off_c, 1, 62, 0
1, 27561, Note_on_c, 1, 63, 127
1, 27732, Note_off_c, 1, 77, 0
1, 27734, Note_off_c, 1, 63, 0
1, 27736, Note_on_c, 1, 60, 127
1, 27909, Note_off_c, 1, 60, 0
1, 27911, Note_on_c, 1, 62, 127
1, 28084, Note_off_c, 1, 62, 0
1, 28086, Note_on_c, 1, 58, 127
1, 28259, Note_off_c, 1, 58, 0
1, 28261, Note_on_c, 1, 60, 127
1, 28434, Note_off_c, 1, 60, 0
1, 28436, Note_on_c, 1, 74, 127
1, 28436, Note_on_c, 1, 58, 127
1, 28609, Note_off_c, 1, 74, 0
1, 28609, Note_off_c, 1, 58, 0
1, 28611, Note_on_c, 1, 72, 127
1, 28611, Note_on_c, 1, 57, 127
1, 28784, Note_off_c, 1, 72, 0
1, 28784, Note_off_c, 1, 57, 0
1, 28786, Note_on_c, 1, 58, 127
1, 28786, Note_on_c, 1, 74, 127
1, 28959, Note_off_c, 1, 58, 0
1, 28961, Note_on_c, 1, 60, 127
1, 29134, Note_off_c, 1, 74, 0
1, 29134, Note_off_c, 1, 60, 0
1, 29136, Note_on_c, 1, 56, 127
1, 29136, Note_on_c, 1, 75, 127
1, 29309, Note_off_c, 1, 56, 0
1, 29311, Note_on_c, 1, 58, 127
1, 29484, Note_off_c, 1, 75, 0
1, 29484, Note_off_c, 1, 58, 0
1, 29486, Note_on_c, 1, 77, 127
1, 29486, Note_on_c, 1, 55, 127
1, 29571, Note_off_c, 1, 77, 0
1, 29573, Note_on_c, 1, 75, 127
1, 29658, Note_off_c, 1, 55, 0
1, 29658, Note_off_c, 1, 75, 0
1, 29660, Note_on_c, 1, 56, 127
1, 29660, Note_on_c, 1, 77, 127
1, 29833, Note_off_c, 1, 56, 0
1, 29835, Note_on_c, 1, 53, 127
1, 30008, Note_off_c, 1, 53, 0
1, 30010, Note_on_c, 1, 55, 127
1, 30025, Note_off_c, 1, 77, 0
1, 30183, Note_off_c, 1, 55, 0
1, 30185, Note_on_c, 1, 51, 127
1, 30185, Note_on_c, 1, 79, 127
1, 30358, Note_off_c, 1, 51, 0
1, 30360, Note_on_c, 1, 53, 127
1, 30533, Note_off_c, 1, 53, 0
1, 30535, Note_on_c, 1, 50, 127
1, 30622, Note_off_c, 1, 79, 0
1, 30707, Note_off_c, 1, 50, 0
1, 30709, Note_on_c, 1, 51, 127
1, 30882, Note_off_c, 1, 51, 0
1, 30884, Note_on_c, 1, 75, 127
1, 30884, Note_on_c, 1, 48, 127
1, 31057, Note_off_c, 1, 75, 0
1, 31059, Note_on_c, 1, 77, 127
1, 31232, Note_off_c, 1, 48, 0
1, 31232, Note_off_c, 1, 77, 0
1, 31234, Note_on_c, 1, 75, 127
1, 31234, Note_on_c, 1, 48, 127
1, 31407, Note_off_c, 1, 75, 0
1, 31407, Note_off_c, 1, 48, 0
1, 31409, Note_on_c, 1, 74, 127
1, 31409, Note_on_c, 1, 47, 127
1, 31582, Note_off_c, 1, 74, 0
1, 31582, Note_off_c, 1, 47, 0
1, 31584, Note_on_c, 1, 75, 127
1, 31584, Note_on_c, 1, 48, 127
1, 31757, Note_off_c, 1, 75, 0
1, 31759, Note_on_c, 1, 77, 127
1, 31932, Note_off_c, 1, 48, 0
1, 31932, Note_off_c, 1, 77, 0
1, 31934, Note_on_c, 1, 74, 127
1, 31934, Note_on_c, 1, 50, 127
1, 32107, Note_off_c, 1, 74, 0
1, 32109, Note_on_c, 1, 75, 127
1, 32282, Note_off_c, 1, 50, 0
1, 32282, Note_off_c, 1, 75, 0
1, 32284, Note_on_c, 1, 51, 127
1, 32284, Note_on_c, 1, 72, 127
1, 32369, Note_off_c, 1, 51, 0
1, 32371, Note_on_c, 1, 50, 127
1, 32456, Note_off_c, 1, 50, 0
1, 32458, Note_on_c, 1, 84, 127
1, 32502, Note_off_c, 1, 72, 0
1, 32631, Note_off_c, 1, 84, 0
1, 32633, Note_on_c, 1, 82, 127
1, 32806, Note_off_c, 1, 82, 0
1, 32983, Note_on_c, 1, 80, 127
1, 32983, Note_on_c, 1, 53, 127
1, 33156, Note_off_c, 1, 80, 0
1, 33158, Note_on_c, 1, 82, 127
1, 33331, Note_off_c, 1, 82, 0
1, 33333, Note_on_c, 1, 79, 127
1, 33506, Note_off_c, 1, 79, 0
1, 33566, Note_off_c, 1, 53, 0
1, 33683, Note_on_c, 1, 77, 127
1, 33856, Note_off_c, 1, 77, 0
1, 33858, Note_on_c, 1, 80, 127
1, 34031, Note_off_c, 1, 80, 0
1, 34033, Note_on_c, 1, 79, 127
1, 34033, Note_on_c, 1, 50, 127
1, 34206, Note_off_c, 1, 79, 0
1, 34206, Note_off_c, 1, 50, 0
1, 34208, Note_on_c, 1, 80, 127
1, 34208, Note_on_c, 1, 48, 127
1, 34381, Note_off_c, 1, 80, 0
1, 34381, Note_off_c, 1, 48, 0
1, 34383, Note_on_c, 1, 77, 127
1, 34383, Note_on_c, 1, 50, 127
1, 34556, Note_off_c, 1, 77, 0
1, 34558, Note_on_c, 1, 79, 127
1, 34731, Note_off_c, 1, 50, 0
1, 34731, Note_off_c, 1, 79, 0
1, 34733, Note_on_c, 1, 75, 127
1, 34733, Note_on_c, 1, 51, 127
1, 34906, Note_off_c, 1, 75, 0
1, 34908, Note_on_c, 1, 77, 127
1, 35081, Note_off_c, 1, 51, 0
1, 35081, Note_off_c, 1, 77, 0
1, 35083, Note_on_c, 1, 53, 127
1, 35083, Note_on_c, 1, 74, 127
1, 35168, Note_off_c, 1, 53, 0
1, 35170, Note_on_c, 1, 51, 127
1, 35255, Note_off_c, 1, 74, 0
1, 35255, Note_off_c, 1, 51, 0
1, 35257, Note_on_c, 1, 84, 127
1, 35257, Note_on_c, 1, 53, 127
1, 35430, Note_off_c, 1, 84, 0
1, 35432, Note_on_c, 1, 83, 127
1, 35605, Note_off_c, 1, 83, 0
1, 35607, Note_on_c, 1, 81, 127
1, 35758, Note_off_c, 1, 53, 0
1, 35780, Note_off_c, 1, 81, 0
1, 35782, Note_on_c, 1, 83, 127
1, 35782, Note_on_c, 1, 55, 127
1, 35955, Note_off_c, 1, 83, 0
1, 35957, Note_on_c, 1, 84, 127
1, 36130, Note_off_c, 1, 84, 0
1, 36132, Note_on_c, 1, 81, 127
1, 36305, Note_off_c, 1, 81, 0
1, 36438, Note_off_c, 1, 55, 0
1, 36482, Note_on_c, 1, 72, 127
1, 36482, Note_on_c, 1, 51, 127
1, 36657, Note_on_c, 1, 84, 127
1, 36701, Note_off_c, 1, 72, 0
1, 36830, Note_off_c, 1, 51, 0
1, 36830, Note_off_c, 1, 84, 0
1, 36832, Note_on_c, 1, 82, 127
1, 36832, Note_on_c, 1, 56, 127
1, 37005, Note_off_c, 1, 82, 0
1, 37007, Note_on_c, 1, 80, 127
1, 37180, Note_off_c, 1, 56, 0
1, 37180, Note_off_c, 1, 80, 0
1, 37182, Note_on_c, 1, 55, 127
1, 37182, Note_on_c, 1, 82, 127
1, 37280, Note_off_c, 1, 55, 0
1, 37282, Note_on_c, 1, 56, 127
1, 37355, Note_off_c, 1, 82, 0
1, 37357, Note_on_c, 1, 84, 127
1, 37381, Note_off_c, 1, 56, 0
1, 37530, Note_off_c, 1, 84, 0
1, 37532, Note_on_c, 1, 80, 127
1, 37532, Note_on_c, 1, 53, 127
1, 37705, Note_off_c, 1, 80, 0
1, 37707, Note_on_c, 1, 82, 127
1, 37880, Note_off_c, 1, 53, 0
1, 37880, Note_off_c, 1, 82, 0
1, 37882, Note_on_c, 1, 79, 127
1, 37882, Note_on_c, 1, 52, 127
1, 38055, Note_off_c, 1, 79, 0
1, 38055, Note_off_c, 1, 52, 0
1, 38057, Note_on_c, 1, 84, 127
1, 38057, Note_on_c, 1, 53, 127
1, 38230, Note_off_c, 1, 84, 0
1, 38230, Note_off_c, 1, 53, 0
1, 38232, Note_on_c, 1, 82, 127
1, 38232, Note_on_c, 1, 55, 127
1, 38405, Note_off_c, 1, 82, 0
1, 38405, Note_off_c, 1, 55, 0
1, 38407, Note_on_c, 1, 80, 127
1, 38407, Note_on_c, 1, 53, 127
1, 38580, Note_off_c, 1, 80, 0
1, 38580, Note_off_c, 1, 53, 0
1, 38582, Note_on_c, 1, 79, 127
1, 38582, Note_on_c, 1, 52, 127
1, 38755, Note_off_c, 1, 79, 0
1, 38757, Note_on_c, 1, 80, 127
1, 38930, Note_off_c, 1, 52, 0
1, 38930, Note_off_c, 1, 80, 0
1, 38932, Note_on_c, 1, 77, 127
1, 38932, Note_on_c, 1, 50, 127
1, 39105, Note_off_c, 1, 77, 0
1, 39107, Note_on_c, 1, 79, 127
1, 39280, Note_off_c, 1, 50, 0
1, 39280, Note_off_c, 1, 79, 0
1, 39282, Note_on_c, 1, 76, 127
1, 39282, Note_on_c, 1, 48, 127
1, 39455, Note_off_c, 1, 76, 0
1, 39457, Note_on_c, 1, 80, 127
1, 39630, Note_off_c, 1, 48, 0
1, 39630, Note_off_c, 1, 80, 0
1, 39632, Note_on_c, 1, 79, 127
1, 39632, Note_on_c, 1, 52, 127
1, 39805, Note_off_c, 1, 79, 0
1, 39807, Note_on_c, 1, 77, 127
1, 39980, Note_off_c, 1, 52, 0
1, 39980, Note_off_c, 1, 77, 0
1, 39982, Note_on_c, 1, 76, 127
1, 39982, Note_on_c, 1, 55, 127
1, 40155, Note_off_c, 1, 76, 0
1, 40157, Note_on_c, 1, 77, 127
1, 40330, Note_off_c, 1, 55, 0
1, 40330, Note_off_c, 1, 77, 0
1, 40332, Note_on_c, 1, 74, 127
1, 40332, Note_on_c, 1, 58, 127
1, 40505, Note_off_c, 1, 74, 0
1, 40507, Note_on_c, 1, 76, 127
1, 40682, Note_on_c, 1, 67, 127
1, 40707, Note_off_c, 1, 76, 0
1, 40854, Note_off_c, 1, 58, 0
1, 40854, Note_off_c, 1, 67, 0
1, 40856, Note_on_c, 1, 77, 127
1, 40856, Note_on_c, 1, 55, 127
1, 41029, Note_off_c, 1, 77, 0
1, 41029, Note_off_c, 1, 55, 0
1, 41031, Note_on_c, 1, 76, 127
1, 41031, Note_on_c, 1, 56, 127
1, 41204, Note_off_c, 1, 76, 0
1, 41204, Note_off_c, 1, 56, 0
1, 41206, Note_on_c, 1, 74, 127
1, 41206, Note_on_c, 1, 58, 127
1, 41379, Note_off_c, 1, 74, 0
1, 41379, Note_off_c, 1, 58, 0
1, 41381, Note_on_c, 1, 76, 127
1, 41381, Note_on_c, 1, 60, 127
1, 41554, Note_off_c, 1, 76, 0
1, 41556, Note_on_c, 1, 77, 127
1, 41729, Note_off_c, 1, 60, 0
1, 41729, Note_off_c, 1, 77, 0
1, 41731, Note_on_c, 1, 74, 127
1, 41731, Note_on_c, 1, 58, 127
1, 41904, Note_off_c, 1, 74, 0
1, 41906, Note_on_c, 1, 76, 127
1, 42079, Note_off_c, 1, 58, 0
1, 42079, Note_off_c, 1, 76, 0
1, 42081, Note_on_c, 1, 56, 127
1, 42081, Note_on_c, 1, 77, 127
1, 42254, Note_off_c, 1, 56, 0
1, 42256, Note_on_c, 1, 58, 127
1, 42429, Note_off_c, 1, 77, 0
1, 42429, Note_off_c, 1, 58, 0
1, 42431, Note_on_c, 1, 65, 127
1, 42431, Note_on_c, 1, 56, 127
1, 42604, Note_off_c, 1, 65, 0
1, 42604, Note_off_c, 1, 56, 0
1, 42606, Note_on_c, 1, 64, 127
1, 42606, Note_on_c, 1, 55, 127
1, 42779, Note_off_c, 1, 64, 0
1, 42779, Note_off_c, 1, 55, 0
1, 42781, Note_on_c, 1, 56, 127
1, 42781, Note_on_c, 1, 65, 127
1, 42954, Note_off_c, 1, 56, 0
1, 42956, Note_on_c, 1, 58, 127
1, 43129, Note_off_c, 1, 65, 0
1, 43129, Note_off_c, 1, 58, 0
1, 43131, Note_on_c, 1, 55, 127
1, 43131, Note_on_c, 1, 67, 127
1, 43304, Note_off_c, 1, 55, 0
1, 43306, Note_on_c, 1, 56, 127
1, 43479, Note_off_c, 1, 67, 0
1, 43479, Note_off_c, 1, 56, 0
1, 43481, Note_on_c, 1, 68, 127
1, 43481, Note_on_c, 1, 53, 127
1, 43566, Note_off_c, 1, 68, 0
1, 43568, Note_on_c, 1, 67, 127
1, 43653, Note_off_c, 1, 53, 0
1, 43653, Note_off_c, 1, 67, 0
1, 43655, Note_on_c, 1, 65, 127
1, 43655, Note_on_c, 1, 68, 127
1, 43828, Note_off_c, 1, 65, 0
1, 43830, Note_on_c, 1, 63, 127
1, 43983, Note_off_c, 1, 68, 0
1, 44003, Note_off_c, 1, 63, 0
1, 44005, Note_on_c, 1, 65, 127
1, 44178, Note_off_c, 1, 65, 0
1, 44180, Note_on_c, 1, 61, 127
1, 44180, Note_on_c, 1, 70, 127
1, 44353, Note_off_c, 1, 61, 0
1, 44355, Note_on_c, 1, 63, 127
1, 44526, Note_off_c, 1, 70, 0
1, 44528, Note_off_c, 1, 63, 0
1, 44530, Note_on_c, 1, 60, 127
1, 44703, Note_off_c, 1, 60, 0
1, 44705, Note_on_c, 1, 61, 127
1, 44878, Note_off_c, 1, 61, 0
1, 44880, Note_on_c, 1, 58, 127
1, 45053, Note_off_c, 1, 58, 0
1, 45055, Note_on_c, 1, 61, 127
1, 45228, Note_off_c, 1, 61, 0
1, 45230, Note_on_c, 1, 67, 127
1, 45230, Note_on_c, 1, 60, 127
1, 45403, Note_off_c, 1, 67, 0
1, 45403, Note_off_c, 1, 60, 0
1, 45405, Note_on_c, 1, 65, 127
1, 45405, Note_on_c, 1, 61, 127
1, 45578, Note_off_c, 1, 65, 0
1, 45578, Note_off_c, 1, 61, 0
1, 45580, Note_on_c, 1, 58, 127
1, 45580, Note_on_c, 1, 67, 127
1, 45753, Note_off_c, 1, 58, 0
1, 45755, Note_on_c, 1, 60, 127
1, 45928, Note_off_c, 1, 67, 0
1, 45928, Note_off_c, 1, 60, 0
1, 45930, Note_on_c, 1, 56, 127
1, 45930, Note_on_c, 1, 68, 127
1, 46103, Note_off_c, 1, 56, 0
1, 46105, Note_on_c, 1, 58, 127
1, 46278, Note_off_c, 1, 68, 0
1, 46278, Note_off_c, 1, 58, 0
1, 46280, Note_on_c, 1, 70, 127
1, 46280, Note_on_c, 1, 55, 127
1, 46365, Note_off_c, 1, 70, 0
1, 46367, Note_on_c, 1, 68, 127
1, 46452, Note_off_c, 1, 55, 0
1, 46452, Note_off_c, 1, 68, 0
1, 46454, Note_on_c, 1, 65, 127
1, 46454, Note_on_c, 1, 70, 127
1, 46627, Note_off_c, 1, 65, 0
1, 46629, Note_on_c, 1, 64, 127
1, 46782, Note_off_c, 1, 70, 0
1, 46802, Note_off_c, 1, 64, 0
1, 46804, Note_on_c, 1, 62, 127
1, 46977, Note_off_c, 1, 62, 0
1, 46979, Note_on_c, 1, 64, 127
1, 46979, Note_on_c, 1, 72, 127
1, 47152, Note_off_c, 1, 64, 0
1, 47154, Note_on_c, 1, 65, 127
1, 47325, Note_off_c, 1, 72, 0
1, 47327, Note_off_c, 1, 65, 0
1, 47329, Note_on_c, 1, 62, 127
1, 47502, Note_off_c, 1, 62, 0
1, 47504, Note_on_c, 1, 64, 127
1, 47677, Note_off_c, 1, 64, 0
1, 47679, Note_on_c, 1, 53, 127
1, 47679, Note_on_c, 1, 68, 127
1, 47852, Note_off_c, 1, 53, 0
1, 47854, Note_on_c, 1, 65, 127
1, 48027, Note_off_c, 1, 68, 0
1, 48027, Note_off_c, 1, 65, 0
1, 48029, Note_on_c, 1, 63, 127
1, 48029, Note_on_c, 1, 73, 127
1, 48202, Note_off_c, 1, 63, 0
1, 48204, Note_on_c, 1, 61, 127
1, 48377, Note_off_c, 1, 73, 0
1, 48377, Note_off_c, 1, 61, 0
1, 48379, Note_on_c, 1, 72, 127
1, 48379, Note_on_c, 1, 63, 127
1, 48486, Note_off_c, 1, 72, 0
1, 48488, Note_on_c, 1, 73, 127
1, 48552, Note_off_c, 1, 63, 0
1, 48554, Note_on_c, 1, 65, 127
1, 48596, Note_off_c, 1, 73, 0
1, 48727, Note_off_c, 1, 65, 0
1, 48729, Note_on_c, 1, 61, 127
1, 48729, Note_on_c, 1, 70, 127
1, 48902, Note_off_c, 1, 61, 0
1, 48904, Note_on_c, 1, 63, 127
1, 49048, Note_off_c, 1, 70, 0
1, 49077, Note_off_c, 1, 63, 0
1, 49079, Note_on_c, 1, 69, 127
1, 49079, Note_on_c, 1, 60, 127
1, 49252, Note_off_c, 1, 69, 0
1, 49252, Note_off_c, 1, 60, 0
1, 49254, Note_on_c, 1, 70, 127
1, 49254, Note_on_c, 1, 65, 127
1, 49427, Note_off_c, 1, 70, 0
1, 49427, Note_off_c, 1, 65, 0
1, 49429, Note_on_c, 1, 72, 127
1, 49429, Note_on_c, 1, 63, 127
1, 49602, Note_off_c, 1, 72, 0
1, 49602, Note_off_c, 1, 63, 0
1, 49604, Note_on_c, 1, 70, 127
1, 49604, Note_on_c, 1, 61, 127
1, 49777, Note_off_c, 1, 70, 0
1, 49777, Note_off_c, 1, 61, 0
1, 49779, Note_on_c, 1, 60, 127
1, 49779, Note_on_c, 1, 69, 127
1, 49952, Note_off_c, 1, 60, 0
1, 49954, Note_on_c, 1, 61, 127
1, 50127, Note_off_c, 1, 69, 0
1, 50127, Note_off_c, 1, 61, 0
1, 50129, Note_on_c, 1, 58, 127
1, 50129, Note_on_c, 1, 67, 127
1, 50302, Note_off_c, 1, 58, 0
1, 50304, Note_on_c, 1, 60, 127
1, 50455, Note_off_c, 1, 67, 0
1, 50477, Note_off_c, 1, 60, 0
1, 50479, Note_on_c, 1, 57, 127
1, 50479, Note_on_c, 1, 65, 127
1, 50652, Note_off_c, 1, 57, 0
1, 50654, Note_on_c, 1, 61, 127
1, 50827, Note_off_c, 1, 65, 0
1, 50827, Note_off_c, 1, 61, 0
1, 50829, Note_on_c, 1, 60, 127
1, 50829, Note_on_c, 1, 69, 127
1, 51002, Note_off_c, 1, 60, 0
1, 51004, Note_on_c, 1, 58, 127
1, 51157, Note_off_c, 1, 69, 0
1, 51177, Note_off_c, 1, 58, 0
1, 51179, Note_on_c, 1, 57, 127
1, 51179, Note_on_c, 1, 72, 127
1, 51352, Note_off_c, 1, 57, 0
1, 51354, Note_on_c, 1, 58, 127
1, 51507, Note_off_c, 1, 72, 0
1, 51527, Note_off_c, 1, 58, 0
1, 51529, Note_on_c, 1, 55, 127
1, 51529, Note_on_c, 1, 75, 127
1, 51702, Note_off_c, 1, 55, 0
1, 51704, Note_on_c, 1, 57, 127
1, 51877, Note_off_c, 1, 57, 0
1, 51879, Note_on_c, 1, 48, 127
1, 52052, Note_off_c, 1, 75, 0
1, 52052, Note_off_c, 1, 48, 0
1, 52054, Note_on_c, 1, 72, 127
1, 52054, Note_on_c, 1, 58, 127
1, 52227, Note_off_c, 1, 72, 0
1, 52227, Note_off_c, 1, 58, 0
1, 52229, Note_on_c, 1, 73, 127
1, 52229, Note_on_c, 1, 57, 127
1, 52402, Note_off_c, 1, 73, 0
1, 52402, Note_off_c, 1, 57, 0
1, 52404, Note_on_c, 1, 75, 127
1, 52404, Note_on_c, 1, 55, 127
1, 52577, Note_off_c, 1, 75, 0
1, 52577, Note_off_c, 1, 55, 0
1, 52579, Note_on_c, 1, 57, 127
1, 52579, Note_on_c, 1, 77, 127
1, 52752, Note_off_c, 1, 57, 0
1, 52754, Note_on_c, 1, 58, 127
1, 52927, Note_off_c, 1, 77, 0
1, 52927, Note_off_c, 1, 58, 0
1, 52929, Note_on_c, 1, 55, 127
1, 52929, Note_on_c, 1, 75, 127
1, 53102, Note_off_c, 1, 55, 0
1, 53104, Note_on_c, 1, 57, 127
1, 53277, Note_off_c, 1, 75, 0
1, 53277, Note_off_c, 1, 57, 0
1, 53279, Note_on_c, 1, 73, 127
1, 53279, Note_on_c, 1, 58, 127
1, 53452, Note_off_c, 1, 73, 0
1, 53454, Note_on_c, 1, 75, 127
1, 53627, Note_off_c, 1, 58, 0
1, 53627, Note_off_c, 1, 75, 0
1, 53629, Note_on_c, 1, 73, 127
1, 53629, Note_on_c, 1, 46, 127
1, 53802, Note_off_c, 1, 73, 0
1, 53802, Note_off_c, 1, 46, 0
1, 53804, Note_on_c, 1, 72, 127
1, 53804, Note_on_c, 1, 45, 127
1, 53977, Note_off_c, 1, 72, 0
1, 53977, Note_off_c, 1, 45, 0
1, 53979, Note_on_c, 1, 73, 127
1, 53979, Note_on_c, 1, 46, 127
1, 54152, Note_off_c, 1, 73, 0
1, 54154, Note_on_c, 1, 75, 127
1, 54327, Note_off_c, 1, 46, 0
1, 54327, Note_off_c, 1, 75, 0
1, 54329, Note_on_c, 1, 72, 127
1, 54329, Note_on_c, 1, 48, 127
1, 54502, Note_off_c, 1, 72, 0
1, 54504, Note_on_c, 1, 73, 127
1, 54677, Note_off_c, 1, 48, 0
1, 54677, Note_off_c, 1, 73, 0
1, 54679, Note_on_c, 1, 49, 127
1, 54679, Note_on_c, 1, 70, 127
1, 54764, Note_off_c, 1, 49, 0
1, 54766, Note_on_c, 1, 48, 127
1, 54851, Note_off_c, 1, 70, 0
1, 54851, Note_off_c, 1, 48, 0
1, 54853, Note_on_c, 1, 80, 127
1, 54853, Note_on_c, 1, 49, 127
1, 55026, Note_off_c, 1, 80, 0
1, 55028, Note_on_c, 1, 79, 127
1, 55201, Note_off_c, 1, 79, 0
1, 55203, Note_on_c, 1, 77, 127
1, 55345, Note_off_c, 1, 49, 0
1, 55376, Note_off_c, 1, 77, 0
1, 55378, Note_on_c, 1, 79, 127
1, 55378, Note_on_c, 1, 51, 127
1, 55551, Note_off_c, 1, 79, 0
1, 55553, Note_on_c, 1, 80, 127
1, 55726, Note_off_c, 1, 80, 0
1, 55728, Note_on_c, 1, 77, 127
1, 55901, Note_off_c, 1, 77, 0
1, 56089, Note_off_c, 1, 51, 0
1, 56253, Note_on_c, 1, 73, 127
1, 56426, Note_off_c, 1, 73, 0
1, 56428, Note_on_c, 1, 72, 127
1, 56428, Note_on_c, 1, 44, 127
1, 56601, Note_off_c, 1, 72, 0
1, 56601, Note_off_c, 1, 44, 0
1, 56603, Note_on_c, 1, 70, 127
1, 56603, Note_on_c, 1, 43, 127
1, 56776, Note_off_c, 1, 70, 0
1, 56776, Note_off_c, 1, 43, 0
1, 56778, Note_on_c, 1, 72, 127
1, 56778, Note_on_c, 1, 44, 127
1, 56951, Note_off_c, 1, 72, 0
1, 56953, Note_on_c, 1, 73, 127
1, 57126, Note_off_c, 1, 44, 0
1, 57126, Note_off_c, 1, 73, 0
1, 57128, Note_on_c, 1, 70, 127
1, 57128, Note_on_c, 1, 46, 127
1, 57301, Note_off_c, 1, 70, 0
1, 57303, Note_on_c, 1, 72, 127
1, 57476, Note_off_c, 1, 46, 0
1, 57476, Note_off_c, 1, 72, 0
1, 57478, Note_on_c, 1, 48, 127
1, 57478, Note_on_c, 1, 68, 127
1, 57563, Note_off_c, 1, 48, 0
1, 57565, Note_on_c, 1, 46, 127
1, 57650, Note_off_c, 1, 68, 0
1, 57650, Note_off_c, 1, 46, 0
1, 57652, Note_on_c, 1, 79, 127
1, 57652, Note_on_c, 1, 48, 127
1, 57825, Note_off_c, 1, 79, 0
1, 57827, Note_on_c, 1, 77, 127
1, 58000, Note_off_c, 1, 77, 0
1, 58002, Note_on_c, 1, 76, 127
1, 58153, Note_off_c, 1, 48, 0
1, 58175, Note_off_c, 1, 76, 0
1, 58177, Note_on_c, 1, 77, 127
1, 58177, Note_on_c, 1, 49, 127
1, 58350, Note_off_c, 1, 77, 0
1, 58352, Note_on_c, 1, 79, 127
1, 58525, Note_off_c, 1, 79, 0
1, 58527, Note_on_c, 1, 76, 127
1, 58700, Note_off_c, 1, 76, 0
1, 58979, Note_off_c, 1, 49, 0
1, 59052, Note_on_c, 1, 72, 127
1, 59225, Note_off_c, 1, 72, 0
1, 59227, Note_on_c, 1, 70, 127
1, 59227, Note_on_c, 1, 43, 127
1, 59400, Note_off_c, 1, 70, 0
1, 59400, Note_off_c, 1, 43, 0
1, 59402, Note_on_c, 1, 68, 127
1, 59402, Note_on_c, 1, 41, 127
1, 59575, Note_off_c, 1, 68, 0
1, 59575, Note_off_c, 1, 41, 0
1, 59577, Note_on_c, 1, 70, 127
1, 59577, Note_on_c, 1, 43, 127
1, 59750, Note_off_c, 1, 70, 0
1, 59752, Note_on_c, 1, 72, 127
1, 59925, Note_off_c, 1, 43, 0
1, 59925, Note_off_c, 1, 72, 0
1, 59927, Note_on_c, 1, 68, 127
1, 59927, Note_on_c, 1, 44, 127
1, 60100, Note_off_c, 1, 68, 0
1, 60102, Note_on_c, 1, 70, 127
1, 60275, Note_off_c, 1, 44, 0
1, 60275, Note_off_c, 1, 70, 0
1, 60277, Note_on_c, 1, 46, 127
1, 60277, Note_on_c, 1, 67, 127
1, 60362, Note_off_c, 1, 46, 0
1, 60364, Note_on_c, 1, 44, 127
1, 60449, Note_off_c, 1, 67, 0
1, 60449, Note_off_c, 1, 44, 0
1, 60451, Note_on_c, 1, 77, 127
1, 60451, Note_on_c, 1, 46, 127
1, 60624, Note_off_c, 1, 77, 0
1, 60626, Note_on_c, 1, 76, 127
1, 60799, Note_off_c, 1, 76, 0
1, 60801, Note_on_c, 1, 74, 127
1, 60952, Note_off_c, 1, 46, 0
1, 60974, Note_off_c, 1, 74, 0
1, 60976, Note_on_c, 1, 76, 127
1, 60976, Note_on_c, 1, 48, 127
1, 61149, Note_off_c, 1, 76, 0
1, 61151, Note_on_c, 1, 77, 127
1, 61324, Note_off_c, 1, 77, 0
1, 61326, Note_on_c, 1, 74, 127
1, 61499, Note_off_c, 1, 74, 0
1, 61661, Note_off_c, 1, 48, 0
1, 61676, Note_on_c, 1, 41, 127
1, 61676, Note_on_c, 1, 77, 127
1, 61836, Note_off_c, 1, 41, 0
1, 61851, Note_on_c, 1, 60, 127
1, 62024, Note_off_c, 1, 77, 0
1, 62024, Note_off_c, 1, 60, 0
1, 62026, Note_on_c, 1, 68, 127
1, 62026, Note_on_c, 1, 58, 127
1, 62199, Note_off_c, 1, 68, 0
1, 62199, Note_off_c, 1, 58, 0
1, 62201, Note_on_c, 1, 67, 127
1, 62201, Note_on_c, 1, 60, 127
1, 62374, Note_off_c, 1, 67, 0
1, 62374, Note_off_c, 1, 60, 0
1, 62376, Note_on_c, 1, 56, 127
1, 62376, Note_on_c, 1, 68, 127
1, 62549, Note_off_c, 1, 56, 0
1, 62551, Note_on_c, 1, 58, 127
1, 62724, Note_off_c, 1, 68, 0
1, 62724, Note_off_c, 1, 58, 0
1, 62726, Note_on_c, 1, 55, 127
1, 62726, Note_on_c, 1, 70, 127
1, 62899, Note_off_c, 1, 55, 0
1, 62901, Note_on_c, 1, 56, 127
1, 63074, Note_off_c, 1, 70, 0
1, 63074, Note_off_c, 1, 56, 0
1, 63076, Note_on_c, 1, 72, 127
1, 63076, Note_on_c, 1, 53, 127
1, 63161, Note_off_c, 1, 72, 0
1, 63163, Note_on_c, 1, 70, 127
1, 63248, Note_off_c, 1, 53, 0
1, 63248, Note_off_c, 1, 70, 0
1, 63250, Note_on_c, 1, 56, 127
1, 63250, Note_on_c, 1, 72, 127
1, 63423, Note_off_c, 1, 56, 0
1, 63425, Note_on_c, 1, 55, 127
1, 63596, Note_off_c, 1, 72, 0
1, 63598, Note_off_c, 1, 55, 0
1, 63600, Note_on_c, 1, 56, 127
1, 63773, Note_off_c, 1, 56, 0
1, 63775, Note_on_c, 1, 53, 127
1, 63775, Note_on_c, 1, 73, 127
1, 63948, Note_off_c, 1, 53, 0
1, 63950, Note_on_c, 1, 55, 127
1, 64123, Note_off_c, 1, 55, 0
1, 64125, Note_on_c, 1, 51, 127
1, 64140, Note_off_c, 1, 73, 0
1, 64298, Note_off_c, 1, 51, 0
1, 64300, Note_on_c, 1, 53, 127
1, 64473, Note_off_c, 1, 53, 0
1, 64475, Note_on_c, 1, 49, 127
1, 64648, Note_off_c, 1, 49, 0
1, 64650, Note_on_c, 1, 53, 127
1, 64823, Note_off_c, 1, 53, 0
1, 64825, Note_on_c, 1, 70, 127
1, 64825, Note_on_c, 1, 51, 127
1, 64998, Note_off_c, 1, 70, 0
1, 64998, Note_off_c, 1, 51, 0
1, 65000, Note_on_c, 1, 68, 127
1, 65000, Note_on_c, 1, 53, 127
1, 65173, Note_off_c, 1, 68, 0
1, 65173, Note_off_c, 1, 53, 0
1, 65175, Note_on_c, 1, 70, 127
1, 65175, Note_on_c, 1, 49, 127
1, 65260, Note_off_c, 1, 70, 0
1, 65262, Note_on_c, 1, 68, 127
1, 65347, Note_off_c, 1, 49, 0
1, 65347, Note_off_c, 1, 68, 0
1, 65349, Note_on_c, 1, 70, 127
1, 65349, Note_on_c, 1, 51, 127
1, 65522, Note_off_c, 1, 70, 0
1, 65522, Note_off_c, 1, 51, 0
1, 65524, Note_on_c, 1, 48, 127
1, 65524, Note_on_c, 1, 72, 127
1, 65697, Note_off_c, 1, 48, 0
1, 65699, Note_on_c, 1, 49, 127
1, 65872, Note_off_c, 1, 72, 0
1, 65872, Note_off_c, 1, 49, 0
1, 65874, Note_on_c, 1, 73, 127
1, 65874, Note_on_c, 1, 46, 127
1, 65959, Note_off_c, 1, 73, 0
1, 65961, Note_on_c, 1, 72, 127
1, 66046, Note_off_c, 1, 46, 0
1, 66046, Note_off_c, 1, 72, 0
1, 66048, Note_on_c, 1, 56, 127
1, 66048, Note_on_c, 1, 73, 127
1, 66221, Note_off_c, 1, 56, 0
1, 66223, Note_on_c, 1, 55, 127
1, 66396, Note_off_c, 1, 55, 0
1, 66398, Note_on_c, 1, 53, 127
1, 66449, Note_off_c, 1, 73, 0
1, 66571, Note_off_c, 1, 53, 0
1, 66573, Note_on_c, 1, 55, 127
1, 66573, Note_on_c, 1, 75, 127
1, 66746, Note_off_c, 1, 55, 0
1, 66748, Note_on_c, 1, 56, 127
1, 66921, Note_off_c, 1, 56, 0
1, 66923, Note_on_c, 1, 53, 127
1, 67010, Note_off_c, 1, 75, 0
1, 67095, Note_off_c, 1, 53, 0
1, 67097, Note_on_c, 1, 55, 127
1, 67270, Note_off_c, 1, 55, 0
1, 67272, Note_on_c, 1, 72, 127
1, 67272, Note_on_c, 1, 56, 127
1, 67445, Note_off_c, 1, 72, 0
1, 67447, Note_on_c, 1, 80, 127
1, 67620, Note_off_c, 1, 56, 0
1, 67620, Note_off_c, 1, 80, 0
1, 67622, Note_on_c, 1, 79, 127
1, 67622, Note_on_c, 1, 51, 127
1, 67795, Note_off_c, 1, 79, 0
1, 67795, Note_off_c, 1, 51, 0
1, 67797, Note_on_c, 1, 80, 127
1, 67797, Note_on_c, 1, 49, 127
1, 67970, Note_off_c, 1, 80, 0
1, 67970, Note_off_c, 1, 49, 0
1, 67972, Note_on_c, 1, 77, 127
1, 67972, Note_on_c, 1, 51, 127
1, 68145, Note_off_c, 1, 77, 0
1, 68147, Note_on_c, 1, 79, 127
1, 68320, Note_off_c, 1, 51, 0
1, 68320, Note_off_c, 1, 79, 0
1, 68322, Note_on_c, 1, 75, 127
1, 68322, Note_on_c, 1, 53, 127
1, 68495, Note_off_c, 1, 75, 0
1, 68497, Note_on_c, 1, 77, 127
1, 68670, Note_off_c, 1, 53, 0
1, 68670, Note_off_c, 1, 77, 0
1, 68672, Note_on_c, 1, 55, 127
1, 68672, Note_on_c, 1, 73, 127
1, 68757, Note_off_c, 1, 55, 0
1, 68759, Note_on_c, 1, 53, 127
1, 68844, Note_off_c, 1, 73, 0
1, 68844, Note_off_c, 1, 53, 0
1, 68846, Note_on_c, 1, 82, 127
1, 68846, Note_on_c, 1, 55, 127
1, 69019, Note_off_c, 1, 82, 0
1, 69021, Note_on_c, 1, 80, 127
1, 69194, Note_off_c, 1, 80, 0
1, 69349, Note_off_c, 1, 55, 0
1, 69371, Note_on_c, 1, 72, 127
1, 69371, Note_on_c, 1, 56, 127
1, 69544, Note_off_c, 1, 72, 0
1, 69546, Note_on_c, 1, 73, 127
1, 69719, Note_off_c, 1, 73, 0
1, 69721, Note_on_c, 1, 70, 127
1, 69894, Note_off_c, 1, 70, 0
1, 70071, Note_on_c, 1, 68, 127
1, 70173, Note_off_c, 1, 56, 0
1, 70244, Note_off_c, 1, 68, 0
1, 70246, Note_on_c, 1, 72, 127
1, 70419, Note_off_c, 1, 72, 0
1, 70421, Note_on_c, 1, 70, 127
1, 70421, Note_on_c, 1, 53, 127
1, 70594, Note_off_c, 1, 70, 0
1, 70594, Note_off_c, 1, 53, 0
1, 70596, Note_on_c, 1, 72, 127
1, 70596, Note_on_c, 1, 51, 127
1, 70769, Note_off_c, 1, 72, 0
1, 70769, Note_off_c, 1, 51, 0
1, 70771, Note_on_c, 1, 68, 127
1, 70771, Note_on_c, 1, 53, 127
1, 70944, Note_off_c, 1, 68, 0
1, 70946, Note_on_c, 1, 70, 127
1, 71119, Note_off_c, 1, 53, 0
1, 71119, Note_off_c, 1, 70, 0
1, 71121, Note_on_c, 1, 67, 127
1, 71121, Note_on_c, 1, 55, 127
1, 71294, Note_off_c, 1, 67, 0
1, 71296, Note_on_c, 1, 68, 127
1, 71469, Note_off_c, 1, 55, 0
1, 71469, Note_off_c, 1, 68, 0
1, 71471, Note_on_c, 1, 56, 127
1, 71471, Note_on_c, 1, 65, 127
1, 71556, Note_off_c, 1, 56, 0
1, 71558, Note_on_c, 1, 55, 127
1, 71643, Note_off_c, 1, 65, 0
1, 71643, Note_off_c, 1, 55, 0
1, 71645, Note_on_c, 1, 75, 127
1, 71645, Note_on_c, 1, 56, 127
1, 71818, Note_off_c, 1, 75, 0
1, 71820, Note_on_c, 1, 74, 127
1, 71993, Note_off_c, 1, 74, 0
1, 71995, Note_on_c, 1, 72, 127
1, 72150, Note_off_c, 1, 56, 0
1, 72168, Note_off_c, 1, 72, 0
1, 72170, Note_on_c, 1, 74, 127
1, 72170, Note_on_c, 1, 58, 127
1, 72343, Note_off_c, 1, 74, 0
1, 72345, Note_on_c, 1, 75, 127
1, 72518, Note_off_c, 1, 75, 0
1, 72520, Note_on_c, 1, 72, 127
1, 72693, Note_off_c, 1, 72, 0
1, 72853, Note_off_c, 1, 58, 0
1, 72870, Note_on_c, 1, 55, 127
1, 72870, Note_on_c, 1, 75, 127
1, 73043, Note_off_c, 1, 55, 0
1, 73045, Note_on_c, 1, 56, 127
1, 73218, Note_off_c, 1, 75, 0
1, 73218, Note_off_c, 1, 56, 0
1, 73220, Note_on_c, 1, 63, 127
1, 73220, Note_on_c, 1, 55, 127
1, 73393, Note_off_c, 1, 63, 0
1, 73393, Note_off_c, 1, 55, 0
1, 73395, Note_on_c, 1, 62, 127
1, 73395, Note_on_c, 1, 53, 127
1, 73568, Note_off_c, 1, 62, 0
1, 73568, Note_off_c, 1, 53, 0
1, 73570, Note_on_c, 1, 55, 127
1, 73570, Note_on_c, 1, 63, 127
1, 73743, Note_off_c, 1, 55, 0
1, 73745, Note_on_c, 1, 56, 127
1, 73918, Note_off_c, 1, 63, 0
1, 73918, Note_off_c, 1, 56, 0
1, 73920, Note_on_c, 1, 53, 127
1, 73920, Note_on_c, 1, 65, 127
1, 74093, Note_off_c, 1, 53, 0
1, 74095, Note_on_c, 1, 55, 127
1, 74268, Note_off_c, 1, 65, 0
1, 74268, Note_off_c, 1, 55, 0
1, 74270, Note_on_c, 1, 67, 127
1, 74270, Note_on_c, 1, 51, 127
1, 74355, Note_off_c, 1, 67, 0
1, 74357, Note_on_c, 1, 65, 127
1, 74442, Note_off_c, 1, 51, 0
1, 74442, Note_off_c, 1, 65, 0
1, 74444, Note_on_c, 1, 63, 127
1, 74444, Note_on_c, 1, 67, 127
1, 74617, Note_off_c, 1, 63, 0
1, 74619, Note_on_c, 1, 62, 127
1, 74772, Note_off_c, 1, 67, 0
1, 74792, Note_off_c, 1, 62, 0
1, 74794, Note_on_c, 1, 63, 127
1, 74967, Note_off_c, 1, 63, 0
1, 74969, Note_on_c, 1, 60, 127
1, 74969, Note_on_c, 1, 68, 127
1, 75142, Note_off_c, 1, 60, 0
1, 75144, Note_on_c, 1, 62, 127
1, 75315, Note_off_c, 1, 68, 0
1, 75317, Note_off_c, 1, 62, 0
1, 75319, Note_on_c, 1, 58, 127
1, 75492, Note_off_c, 1, 58, 0
1, 75494, Note_on_c, 1, 60, 127
1, 75667, Note_off_c, 1, 60, 0
1, 75669, Note_on_c, 1, 56, 127
1, 75842, Note_off_c, 1, 56, 0
1, 75844, Note_on_c, 1, 60, 127
1, 76017, Note_off_c, 1, 60, 0
1, 76019, Note_on_c, 1, 65, 127
1, 76019, Note_on_c, 1, 58, 127
1, 76192, Note_off_c, 1, 65, 0
1, 76192, Note_off_c, 1, 58, 0
1, 76194, Note_on_c, 1, 63, 127
1, 76194, Note_on_c, 1, 60, 127
1, 76367, Note_off_c, 1, 63, 0
1, 76367, Note_off_c, 1, 60, 0
1, 76369, Note_on_c, 1, 56, 127
1, 76369, Note_on_c, 1, 65, 127
1, 76542, Note_off_c, 1, 56, 0
1, 76544, Note_on_c, 1, 58, 127
1, 76717, Note_off_c, 1, 65, 0
1, 76717, Note_off_c, 1, 58, 0
1, 76719, Note_on_c, 1, 55, 127
1, 76719, Note_on_c, 1, 67, 127
1, 76892, Note_off_c, 1, 55, 0
1, 76894, Note_on_c, 1, 56, 127
1, 77067, Note_off_c, 1, 67, 0
1, 77067, Note_off_c, 1, 56, 0
1, 77069, Note_on_c, 1, 68, 127
1, 77069, Note_on_c, 1, 53, 127
1, 77154, Note_off_c, 1, 68, 0
1, 77156, Note_on_c, 1, 67, 127
1, 77241, Note_off_c, 1, 53, 0
1, 77241, Note_off_c, 1, 67, 0
1, 77243, Note_on_c, 1, 63, 127
1, 77243, Note_on_c, 1, 68, 127
1, 77416, Note_off_c, 1, 63, 0
1, 77418, Note_on_c, 1, 62, 127
1, 77589, Note_off_c, 1, 68, 0
1, 77591, Note_off_c, 1, 62, 0
1, 77593, Note_on_c, 1, 60, 127
1, 77766, Note_off_c, 1, 60, 0
1, 77768, Note_on_c, 1, 62, 127
1, 77768, Note_on_c, 1, 70, 127
1, 77941, Note_off_c, 1, 62, 0
1, 77943, Note_on_c, 1, 63, 127
1, 78116, Note_off_c, 1, 63, 0
1, 78118, Note_on_c, 1, 60, 127
1, 78133, Note_off_c, 1, 70, 0
1, 78291, Note_off_c, 1, 60, 0
1, 78293, Note_on_c, 1, 62, 127
1, 78466, Note_off_c, 1, 62, 0
1, 78468, Note_on_c, 1, 51, 127
1, 78468, Note_on_c, 1, 67, 127
1, 78641, Note_off_c, 1, 51, 0
1, 78643, Note_on_c, 1, 63, 127
1, 78816, Note_off_c, 1, 67, 0
1, 78816, Note_off_c, 1, 63, 0
1, 78818, Note_on_c, 1, 62, 127
1, 78818, Note_on_c, 1, 72, 127
1, 78991, Note_off_c, 1, 62, 0
1, 78993, Note_on_c, 1, 60, 127
1, 79166, Note_off_c, 1, 72, 0
1, 79166, Note_off_c, 1, 60, 0
1, 79168, Note_on_c, 1, 70, 127
1, 79168, Note_on_c, 1, 62, 127
1, 79275, Note_off_c, 1, 70, 0
1, 79277, Note_on_c, 1, 72, 127
1, 79341, Note_off_c, 1, 62, 0
1, 79343, Note_on_c, 1, 63, 127
1, 79385, Note_off_c, 1, 72, 0
1, 79516, Note_off_c, 1, 63, 0
1, 79518, Note_on_c, 1, 60, 127
1, 79518, Note_on_c, 1, 68, 127
1, 79691, Note_off_c, 1, 60, 0
1, 79693, Note_on_c, 1, 62, 127
1, 79837, Note_off_c, 1, 68, 0
1, 79866, Note_off_c, 1, 62, 0
1, 79868, Note_on_c, 1, 67, 127
1, 79868, Note_on_c, 1, 58, 127
1, 80041, Note_off_c, 1, 67, 0
1, 80041, Note_off_c, 1, 58, 0
1, 80043, Note_on_c, 1, 68, 127
1, 80043, Note_on_c, 1, 63, 127
1, 80216, Note_off_c, 1, 68, 0
1, 80216, Note_off_c, 1, 63, 0
1, 80218, Note_on_c, 1, 70, 127
1, 80218, Note_on_c, 1, 62, 127
1, 80391, Note_off_c, 1, 70, 0
1, 80391, Note_off_c, 1, 62, 0
1, 80393, Note_on_c, 1, 68, 127
1, 80393, Note_on_c, 1, 60, 127
1, 80566, Note_off_c, 1, 68, 0
1, 80566, Note_off_c, 1, 60, 0
1, 80568, Note_on_c, 1, 58, 127
1, 80568, Note_on_c, 1, 67, 127
1, 80741, Note_off_c, 1, 58, 0
1, 80743, Note_on_c, 1, 60, 127
1, 80916, Note_off_c, 1, 67, 0
1, 80916, Note_off_c, 1, 60, 0
1, 80918, Note_on_c, 1, 56, 127
1, 80918, Note_on_c, 1, 65, 127
1, 81091, Note_off_c, 1, 56, 0
1, 81093, Note_on_c, 1, 58, 127
1, 81255, Note_off_c, 1, 65, 0
1, 81266, Note_off_c, 1, 58, 0
1, 81268, Note_on_c, 1, 55, 127
1, 81268, Note_on_c, 1, 63, 127
1, 81441, Note_off_c, 1, 55, 0
1, 81443, Note_on_c, 1, 60, 127
1, 81603, Note_off_c, 1, 63, 0
1, 81616, Note_off_c, 1, 60, 0
1, 81618, Note_on_c, 1, 58, 127
1, 81618, Note_on_c, 1, 77, 127
1, 81791, Note_off_c, 1, 58, 0
1, 81793, Note_on_c, 1, 56, 127
1, 81966, Note_off_c, 1, 77, 0
1, 81966, Note_off_c, 1, 56, 0
1, 81968, Note_on_c, 1, 75, 127
1, 81968, Note_on_c, 1, 55, 127
1, 82083, Note_off_c, 1, 75, 0
1, 82085, Note_on_c, 1, 77, 127
1, 82141, Note_off_c, 1, 55, 0
1, 82143, Note_on_c, 1, 56, 127
1, 82199, Note_off_c, 1, 77, 0
1, 82316, Note_off_c, 1, 56, 0
1, 82318, Note_on_c, 1, 53, 127
1, 82318, Note_on_c, 1, 73, 127
1, 82491, Note_off_c, 1, 53, 0
1, 82493, Note_on_c, 1, 55, 127
1, 82644, Note_off_c, 1, 73, 0
1, 82666, Note_off_c, 1, 55, 0
1, 82668, Note_on_c, 1, 72, 127
1, 82668, Note_on_c, 1, 51, 127
1, 82841, Note_off_c, 1, 72, 0
1, 82841, Note_off_c, 1, 51, 0
1, 82843, Note_on_c, 1, 73, 127
1, 82843, Note_on_c, 1, 56, 127
1, 83016, Note_off_c, 1, 73, 0
1, 83016, Note_off_c, 1, 56, 0
1, 83018, Note_on_c, 1, 75, 127
1, 83018, Note_on_c, 1, 55, 127
1, 83191, Note_off_c, 1, 75, 0
1, 83191, Note_off_c, 1, 55, 0
1, 83193, Note_on_c, 1, 73, 127
1, 83193, Note_on_c, 1, 53, 127
1, 83366, Note_off_c, 1, 73, 0
1, 83366, Note_off_c, 1, 53, 0
1, 83368, Note_on_c, 1, 51, 127
1, 83368, Note_on_c, 1, 72, 127
1, 83541, Note_off_c, 1, 51, 0
1, 83543, Note_on_c, 1, 53, 127
1, 83716, Note_off_c, 1, 72, 0
1, 83716, Note_off_c, 1, 53, 0
1, 83718, Note_on_c, 1, 49, 127
1, 83718, Note_on_c, 1, 70, 127
1, 83891, Note_off_c, 1, 49, 0
1, 83893, Note_on_c, 1, 51, 127
1, 84055, Note_off_c, 1, 70, 0
1, 84066, Note_off_c, 1, 51, 0
1, 84068, Note_on_c, 1, 48, 127
1, 84068, Note_on_c, 1, 68, 127
1, 84242, Note_off_c, 1, 48, 0
1, 84244, Note_on_c, 1, 53, 127
1, 84418, Note_off_c, 1, 68, 0
1, 84418, Note_off_c, 1, 53, 0
1, 84420, Note_on_c, 1, 51, 127
1, 84420, Note_on_c, 1, 72, 127
1, 84594, Note_off_c, 1, 51, 0
1, 84596, Note_on_c, 1, 49, 127
1, 84750, Note_off_c, 1, 72, 0
1, 84770, Note_off_c, 1, 49, 0
1, 84772, Note_on_c, 1, 48, 127
1, 84772, Note_on_c, 1, 75, 127
1, 84946, Note_off_c, 1, 48, 0
1, 84948, Note_on_c, 1, 49, 127
1, 85102, Note_off_c, 1, 75, 0
1, 85122, Note_off_c, 1, 49, 0
1, 85124, Note_on_c, 1, 46, 127
1, 85124, Note_on_c, 1, 80, 127
1, 85298, Note_off_c, 1, 46, 0
1, 85300, Note_on_c, 1, 48, 127
1, 85474, Note_off_c, 1, 48, 0
1, 85476, Note_on_c, 1, 41, 127
1, 85651, Note_off_c, 1, 80, 0
1, 85651, Note_off_c, 1, 41, 0
1, 85653, Note_on_c, 1, 77, 127
1, 85653, Note_on_c, 1, 51, 127
1, 85828, Note_off_c, 1, 77, 0
1, 85828, Note_off_c, 1, 51, 0
1, 85830, Note_on_c, 1, 79, 127
1, 85830, Note_on_c, 1, 50, 127
1, 86005, Note_off_c, 1, 79, 0
1, 86005, Note_off_c, 1, 50, 0
1, 86007, Note_on_c, 1, 80, 127
1, 86007, Note_on_c, 1, 48, 127
1, 86182, Note_off_c, 1, 80, 0
1, 86182, Note_off_c, 1, 48, 0
1, 86184, Note_on_c, 1, 50, 127
1, 86184, Note_on_c, 1, 82, 127
1, 86359, Note_off_c, 1, 50, 0
1, 86361, Note_on_c, 1, 51, 127
1, 86536, Note_off_c, 1, 82, 0
1, 86536, Note_off_c, 1, 51, 0
1, 86538, Note_on_c, 1, 48, 127
1, 86538, Note_on_c, 1, 80, 127
1, 86713, Note_off_c, 1, 48, 0
1, 86715, Note_on_c, 1, 50, 127
1, 86890, Note_off_c, 1, 80, 0
1, 86890, Note_off_c, 1, 50, 0
1, 86900, Note_on_c, 1, 51, 127
1, 86900, Note_on_c, 1, 79, 127
1, 87282, Note_off_c, 1, 51, 0
1, 87284, Note_on_c, 1, 43, 127
1, 87378, Note_off_c, 1, 79, 0
1, 87380, Note_on_c, 1, 77, 127
1, 87474, Note_off_c, 1, 77, 0
1, 87476, Note_on_c, 1, 75, 127
1, 87570, Note_off_c, 1, 75, 0
1, 87666, Note_off_c, 1, 43, 0
1, 87668, Note_on_c, 1, 79, 127
1, 87668, Note_on_c, 1, 44, 127
1, 87781, Note_off_c, 1, 79, 0
1, 87781, Note_on_c, 1, 77, 127
1, 87857, Note_off_c, 1, 77, 0
1, 88083, Note_off_c, 1, 44, 0
1, 88085, Note_on_c, 1, 46, 127
1, 88294, Note_on_c, 1, 75, 127
1, 88501, Note_off_c, 1, 46, 0
1, 88501, Note_off_c, 1, 75, 0
1, 88519, Note_on_c, 1, 39, 127
1, 88519, Note_on_c, 1, 75, 127
1, 90357, Note_off_c, 1, 39, 0
1, 90357, Note_off_c, 1, 75, 0
1, 90357, End_track
0, 0, End_of_file