0, 0, Header, 1, 1, 480
1, 0, Start_track
1, 0, Title_t, "Test"
1, 0, Tempo, 500000
1, 0, Instrument_name_t, "Church Organ"
1, 64, Note_on_c, 1, 48, 127
1, 64, Note_on_c, 1, 72, 127
1, 183, Note_on_c, 1, 55, 127
1, 183, Note_on_c, 1, 63, 127
1, 284, Note_off_c, 1, 55, 0
1, 284, Note_off_c, 1, 63, 0
1, 302, Note_on_c, 1, 53, 127
1, 302, Note_on_c, 1, 62, 127
1, 403, Note_off_c, 1, 53, 0
1, 403, Note_off_c, 1, 62, 0
1, 540, Note_on_c, 1, 51, 127
1, 540, Note_on_c, 1, 60, 127
1, 996, Note_off_c, 1, 51, 0
1, 996, Note_off_c, 1, 60, 0
1, 1006, Note_off_c, 1, 48, 0
1, 1006, Note_off_c, 1, 72, 0
1, 1016, Note_on_c, 1, 48, 127
1, 1016, Note_on_c, 1, 72, 127
1, 1135, Note_on_c, 1, 55, 127
1, 1135, Note_on_c, 1, 63, 127
1, 1236, Note_off_c, 1, 55, 0
1, 1236, Note_off_c, 1, 63, 0
1, 1254, Note_on_c, 1, 53, 127
1, 1254, Note_on_c, 1, 62, 127
1, 1355, Note_off_c, 1, 53, 0
1, 1355, Note_off_c, 1, 62, 0
1, 1492, Note_on_c, 1, 51, 127
1, 1492, Note_on_c, 1, 60, 127
1, 1948, Note_off_c, 1, 51, 0
1, 1948, Note_off_c, 1, 60, 0
1, 1958, Note_off_c, 1, 48, 0
1, 1958, Note_off_c, 1, 72, 0
1, 1968, Note_on_c, 1, 48, 127
1, 1968, Note_on_c, 1, 68, 127
1, 2087, Note_on_c, 1, 56, 127
1, 2087, Note_on_c, 1, 65, 127
1, 2188, Note_off_c, 1, 56, 0
1, 2188, Note_off_c, 1, 65, 0
1, 2206, Note_on_c, 1, 55, 127
1, 2206, Note_on_c, 1, 64, 127
1, 2307, Note_off_c, 1, 55, 0
1, 2307, Note_off_c, 1, 64, 0
1, 2444, Note_on_c, 1, 53, 127
1, 2444, Note_on_c, 1, 60, 127
1, 2900, Note_off_c, 1, 53, 0
1, 2900, Note_off_c, 1, 60, 0
1, 2910, Note_off_c, 1, 48, 0
1, 2910, Note_off_c, 1, 68, 0
1, 2920, Note_on_c, 1, 48, 127
1, 2920, Note_on_c, 1, 68, 127
1, 3040, Note_on_c, 1, 56, 127
1, 3040, Note_on_c, 1, 65, 127
1, 3141, Note_off_c, 1, 56, 0
1, 3141, Note_off_c, 1, 65, 0
1, 3159, Note_on_c, 1, 55, 127
1, 3159, Note_on_c, 1, 64, 127
1, 3260, Note_off_c, 1, 55, 0
1, 3260, Note_off_c, 1, 64, 0
1, 3397, Note_on_c, 1, 53, 127
1, 3397, Note_on_c, 1, 60, 127
1, 3853, Note_off_c, 1, 53, 0
1, 3853, Note_off_c, 1, 60, 0
1, 3862, Note_off_c, 1, 48, 0
1, 3862, Note_off_c, 1, 68, 0
1, 3873, Note_on_c, 1, 48, 127
1, 3873, Note_on_c, 1, 71, 127
1, 3992, Note_on_c, 1, 56, 127
1, 3992, Note_on_c, 1, 65, 127
1, 4093, Note_off_c, 1, 56, 0
1, 4093, Note_off_c, 1, 65, 0
1, 4111, Note_on_c, 1, 55, 127
1, 4111, Note_on_c, 1, 63, 127
1, 4212, Note_off_c, 1, 55, 0
1, 4212, Note_off_c, 1, 63, 0
1, 4349, Note_on_c, 1, 53, 127
1, 4349, Note_on_c, 1, 62, 127
1, 4805, Note_off_c, 1, 53, 0
1, 4805, Note_off_c, 1, 62, 0
1, 4815, Note_off_c, 1, 48, 0
1, 4815, Note_off_c, 1, 71, 0
1, 4825, Note_on_c, 1, 48, 127
1, 4825, Note_on_c, 1, 71, 127
1, 4944, Note_on_c, 1, 56, 127
1, 4944, Note_on_c, 1, 65, 127
1, 5045, Note_off_c, 1, 56, 0
1, 5045, Note_off_c, 1, 65, 0
1, 5063, Note_on_c, 1, 55, 127
1, 5063, Note_on_c, 1, 63, 127
1, 5164, Note_off_c, 1, 55, 0
1, 5164, Note_off_c, 1, 63, 0
1, 5301, Note_on_c, 1, 53, 127
1, 5301, Note_on_c, 1, 62, 127
1, 5757, Note_off_c, 1, 53, 0
1, 5757, Note_off_c, 1, 62, 0
1, 5767, Note_off_c, 1, 48, 0
1, 5767, Note_off_c, 1, 71, 0
1, 5777, Note_on_c, 1, 48, 127
1, 5777, Note_on_c, 1, 72, 127
1, 5896, Note_on_c, 1, 51, 127
1, 5896, Note_on_c, 1, 67, 127
1, 5997, Note_off_c, 1, 51, 0
1, 5997, Note_off_c, 1, 67, 0
1, 6016, Note_on_c, 1, 50, 127
1, 6016, Note_on_c, 1, 65, 127
1, 6117, Note_off_c, 1, 50, 0
1, 6117, Note_off_c, 1, 65, 0
1, 6254, Note_on_c, 1, 55, 127
1, 6254, Note_on_c, 1, 63, 127
1, 6710, Note_off_c, 1, 55, 0
1, 6710, Note_off_c, 1, 63, 0
1, 6719, Note_off_c, 1, 48, 0
1, 6719, Note_off_c, 1, 72, 0
1, 6730, Note_on_c, 1, 48, 127
1, 6730, Note_on_c, 1, 72, 127
1, 6849, Note_on_c, 1, 51, 127
1, 6849, Note_on_c, 1, 67, 127
1, 6950, Note_off_c, 1, 51, 0
1, 6950, Note_off_c, 1, 67, 0
1, 6968, Note_on_c, 1, 50, 127
1, 6968, Note_on_c, 1, 65, 127
1, 7069, Note_off_c, 1, 50, 0
1, 7069, Note_off_c, 1, 65, 0
1, 7206, Note_on_c, 1, 55, 127
1, 7206, Note_on_c, 1, 63, 127
1, 7486, Note_off_c, 1, 55, 0
1, 7486, Note_off_c, 1, 63, 0
1, 7672, Note_off_c, 1, 48, 0
1, 7672, Note_off_c, 1, 72, 0
1, 7682, Note_on_c, 1, 48, 127
1, 7682, Note_on_c, 1, 75, 127
1, 7801, Note_on_c, 1, 60, 127
1, 7801, Note_on_c, 1, 68, 127
1, 7902, Note_off_c, 1, 60, 0
1, 7902, Note_off_c, 1, 68, 0
1, 7920, Note_on_c, 1, 58, 127
1, 7920, Note_on_c, 1, 67, 127
1, 8021, Note_off_c, 1, 58, 0
1, 8021, Note_off_c, 1, 67, 0
1, 8158, Note_on_c, 1, 56, 127
1, 8158, Note_on_c, 1, 63, 127
1, 8614, Note_off_c, 1, 56, 0
1, 8614, Note_off_c, 1, 63, 0
1, 8624, Note_off_c, 1, 48, 0
1, 8624, Note_off_c, 1, 75, 0
1, 8634, Note_on_c, 1, 48, 127
1, 8634, Note_on_c, 1, 75, 127
1, 8753, Note_on_c, 1, 60, 127
1, 8753, Note_on_c, 1, 68, 127
1, 8854, Note_off_c, 1, 60, 0
1, 8854, Note_off_c, 1, 68, 0
1, 8872, Note_on_c, 1, 58, 127
1, 8872, Note_on_c, 1, 67, 127
1, 8973, Note_off_c, 1, 58, 0
1, 8973, Note_off_c, 1, 67, 0
1, 9111, Note_on_c, 1, 56, 127
1, 9111, Note_on_c, 1, 63, 127
1, 9567, Note_off_c, 1, 56, 0
1, 9567, Note_off_c, 1, 63, 0
1, 9576, Note_off_c, 1, 48, 0
1, 9576, Note_off_c, 1, 75, 0
1, 9587, Note_on_c, 1, 48, 127
1, 9587, Note_on_c, 1, 74, 127
1, 9706, Note_on_c, 1, 57, 127
1, 9706, Note_on_c, 1, 66, 127
1, 9807, Note_off_c, 1, 57, 0
1, 9807, Note_off_c, 1, 66, 0
1, 9825, Note_on_c, 1, 55, 127
1, 9825, Note_on_c, 1, 64, 127
1, 9926, Note_off_c, 1, 55, 0
1, 9926, Note_off_c, 1, 64, 0
1, 10063, Note_on_c, 1, 54, 127
1, 10063, Note_on_c, 1, 62, 127
1, 10519, Note_off_c, 1, 54, 0
1, 10519, Note_off_c, 1, 62, 0
1, 10529, Note_off_c, 1, 48, 0
1, 10529, Note_off_c, 1, 74, 0
1, 10539, Note_on_c, 1, 48, 127
1, 10539, Note_on_c, 1, 74, 127
1, 10658, Note_on_c, 1, 57, 127
1, 10658, Note_on_c, 1, 66, 127
1, 10759, Note_off_c, 1, 57, 0
1, 10759, Note_off_c, 1, 66, 0
1, 10777, Note_on_c, 1, 55, 127
1, 10777, Note_on_c, 1, 64, 127
1, 10878, Note_off_c, 1, 55, 0
1, 10878, Note_off_c, 1, 64, 0
1, 11015, Note_on_c, 1, 54, 127
1, 11015, Note_on_c, 1, 62, 127
1, 11471, Note_off_c, 1, 54, 0
1, 11471, Note_off_c, 1, 62, 0
1, 11481, Note_off_c, 1, 48, 0
1, 11481, Note_off_c, 1, 74, 0
1, 11491, Note_on_c, 1, 46, 127
1, 11491, Note_on_c, 1, 74, 127
1, 11610, Note_on_c, 1, 58, 127
1, 11610, Note_on_c, 1, 67, 127
1, 11711, Note_off_c, 1, 58, 0
1, 11711, Note_off_c, 1, 67, 0
1, 11729, Note_on_c, 1, 57, 127
1, 11729, Note_on_c, 1, 66, 127
1, 11830, Note_off_c, 1, 57, 0
1, 11830, Note_off_c, 1, 66, 0
1, 11968, Note_on_c, 1, 55, 127
1, 11968, Note_on_c, 1, 62, 127
1, 12424, Note_off_c, 1, 55, 0
1, 12424, Note_off_c, 1, 62, 0
1, 12433, Note_off_c, 1, 46, 0
1, 12433, Note_off_c, 1, 74, 0
1, 12444, Note_on_c, 1, 46, 127
1, 12444, Note_on_c, 1, 74, 127
1, 12563, Note_on_c, 1, 58, 127
1, 12563, Note_on_c, 1, 67, 127
1, 12664, Note_off_c, 1, 58, 0
1, 12664, Note_off_c, 1, 67, 0
1, 12682, Note_on_c, 1, 57, 127
1, 12682, Note_on_c, 1, 66, 127
1, 12783, Note_off_c, 1, 57, 0
1, 12783, Note_off_c, 1, 66, 0
1, 12920, Note_on_c, 1, 55, 127
1, 12920, Note_on_c, 1, 62, 127
1, 13376, Note_off_c, 1, 55, 0
1, 13376, Note_off_c, 1, 62, 0
1, 13386, Note_off_c, 1, 46, 0
1, 13386, Note_off_c, 1, 74, 0
1, 13396, Note_on_c, 1, 46, 127
1, 13396, Note_on_c, 1, 72, 127
1, 13515, Note_on_c, 1, 55, 127
1, 13515, Note_on_c, 1, 64, 127
1, 13616, Note_off_c, 1, 55, 0
1, 13616, Note_off_c, 1, 64, 0
1, 13634, Note_on_c, 1, 53, 127
1, 13634, Note_on_c, 1, 62, 127
1, 13735, Note_off_c, 1, 53, 0
1, 13735, Note_off_c, 1, 62, 0
1, 13872, Note_on_c, 1, 52, 127
1, 13872, Note_on_c, 1, 60, 127
1, 14328, Note_off_c, 1, 52, 0
1, 14328, Note_off_c, 1, 60, 0
1, 14338, Note_off_c, 1, 46, 0
1, 14338, Note_off_c, 1, 72, 0
1, 14348, Note_on_c, 1, 46, 127
1, 14348, Note_on_c, 1, 72, 127
1, 14467, Note_on_c, 1, 55, 127
1, 14467, Note_on_c, 1, 64, 127
1, 14568, Note_off_c, 1, 55, 0
1, 14568, Note_off_c, 1, 64, 0
1, 14586, Note_on_c, 1, 53, 127
1, 14586, Note_on_c, 1, 62, 127
1, 14687, Note_off_c, 1, 53, 0
1, 14687, Note_off_c, 1, 62, 0
1, 14824, Note_on_c, 1, 52, 127
1, 14824, Note_on_c, 1, 60, 127
1, 15280, Note_off_c, 1, 52, 0
1, 15280, Note_off_c, 1, 60, 0
1, 15290, Note_off_c, 1, 46, 0
1, 15290, Note_off_c, 1, 72, 0
1, 15301, Note_on_c, 1, 44, 127
1, 15301, Note_on_c, 1, 72, 127
1, 15420, Note_on_c, 1, 56, 127
1, 15420, Note_on_c, 1, 65, 127
1, 15521, Note_off_c, 1, 56, 0
1, 15521, Note_off_c, 1, 65, 0
1, 15539, Note_on_c, 1, 55, 127
1, 15539, Note_on_c, 1, 64, 127
1, 15640, Note_off_c, 1, 55, 0
1, 15640, Note_off_c, 1, 64, 0
1, 15777, Note_on_c, 1, 53, 127
1, 15777, Note_on_c, 1, 60, 127
1, 16233, Note_off_c, 1, 53, 0
1, 16233, Note_off_c, 1, 60, 0
1, 16243, Note_off_c, 1, 44, 0
1, 16243, Note_off_c, 1, 72, 0
1, 16253, Note_on_c, 1, 44, 127
1, 16253, Note_on_c, 1, 72, 127
1, 16372, Note_on_c, 1, 56, 127
1, 16372, Note_on_c, 1, 65, 127
1, 16473, Note_off_c, 1, 56, 0
1, 16473, Note_off_c, 1, 65, 0
1, 16491, Note_on_c, 1, 55, 127
1, 16491, Note_on_c, 1, 64, 127
1, 16592, Note_off_c, 1, 55, 0
1, 16592, Note_off_c, 1, 64, 0
1, 16729, Note_on_c, 1, 53, 127
1, 16729, Note_on_c, 1, 60, 127
1, 17185, Note_off_c, 1, 53, 0
1, 17185, Note_off_c, 1, 60, 0
1, 17195, Note_off_c, 1, 44, 0
1, 17195, Note_off_c, 1, 72, 0
1, 17205, Note_on_c, 1, 44, 127
1, 17205, Note_on_c, 1, 70, 127
1, 17324, Note_on_c, 1, 50, 127
1, 17324, Note_on_c, 1, 65, 127
1, 17425, Note_off_c, 1, 50, 0
1, 17425, Note_off_c, 1, 65, 0
1, 17443, Note_on_c, 1, 48, 127
1, 17443, Note_on_c, 1, 63, 127
1, 17544, Note_off_c, 1, 48, 0
1, 17544, Note_off_c, 1, 63, 0
1, 17681, Note_on_c, 1, 53, 127
1, 17681, Note_on_c, 1, 62, 127
1, 18137, Note_off_c, 1, 53, 0
1, 18137, Note_off_c, 1, 62, 0
1, 18147, Note_off_c, 1, 44, 0
1, 18147, Note_off_c, 1, 70, 0
1, 18158, Note_on_c, 1, 44, 127
1, 18158, Note_on_c, 1, 70, 127
1, 18277, Note_on_c, 1, 50, 127
1, 18277, Note_on_c, 1, 65, 127
1, 18378, Note_off_c, 1, 50, 0
1, 18378, Note_off_c, 1, 65, 0
1, 18396, Note_on_c, 1, 48, 127
1, 18396, Note_on_c, 1, 63, 127
1, 18497, Note_off_c, 1, 48, 0
1, 18497, Note_off_c, 1, 63, 0
1, 18634, Note_on_c, 1, 53, 127
1, 18634, Note_on_c, 1, 62, 127
1, 19090, Note_off_c, 1, 53, 0
1, 19090, Note_off_c, 1, 62, 0
1, 19100, Note_off_c, 1, 44, 0
1, 19100, Note_off_c, 1, 70, 0
1, 19110, Note_on_c, 1, 43, 127
1, 19110, Note_on_c, 1, 70, 127
1, 19229, Note_on_c, 1, 51, 127
1, 19229, Note_on_c, 1, 67, 127
1, 19330, Note_off_c, 1, 51, 0
1, 19330, Note_off_c, 1, 67, 0
1, 19348, Note_on_c, 1, 50, 127
1, 19348, Note_on_c, 1, 65, 127
1, 19449, Note_off_c, 1, 50, 0
1, 19449, Note_off_c, 1, 65, 0
1, 19586, Note_on_c, 1, 55, 127
1, 19586, Note_on_c, 1, 63, 127
1, 20042, Note_off_c, 1, 55, 0
1, 20042, Note_off_c, 1, 63, 0
1, 20052, Note_off_c, 1, 43, 0
1, 20052, Note_off_c, 1, 70, 0
1, 20062, Note_on_c, 1, 43, 127
1, 20062, Note_on_c, 1, 70, 127
1, 20181, Note_on_c, 1, 51, 127
1, 20181, Note_on_c, 1, 67, 127
1, 20282, Note_off_c, 1, 51, 0
1, 20282, Note_off_c, 1, 67, 0
1, 20300, Note_on_c, 1, 50, 127
1, 20300, Note_on_c, 1, 65, 127
1, 20401, Note_off_c, 1, 50, 0
1, 20401, Note_off_c, 1, 65, 0
1, 20538, Note_on_c, 1, 55, 127
1, 20538, Note_on_c, 1, 63, 127
1, 20994, Note_off_c, 1, 55, 0
1, 20994, Note_off_c, 1, 63, 0
1, 21004, Note_off_c, 1, 43, 0
1, 21004, Note_off_c, 1, 70, 0
1, 21015, Note_on_c, 1, 48, 127
1, 21015, Note_on_c, 1, 68, 127
1, 21134, Note_on_c, 1, 51, 127
1, 21134, Note_on_c, 1, 67, 127
1, 21235, Note_off_c, 1, 51, 0
1, 21235, Note_off_c, 1, 67, 0
1, 21253, Note_on_c, 1, 50, 127
1, 21253, Note_on_c, 1, 65, 127
1, 21354, Note_off_c, 1, 50, 0
1, 21354, Note_off_c, 1, 65, 0
1, 21491, Note_on_c, 1, 63, 127
1, 21491, Note_on_c, 1, 56, 127
1, 21531, Note_off_c, 1, 63, 0
1, 21891, Note_off_c, 1, 56, 0
1, 21957, Note_off_c, 1, 48, 0
1, 21957, Note_off_c, 1, 68, 0
1, 21967, Note_on_c, 1, 48, 127
1, 21967, Note_on_c, 1, 68, 127
1, 22086, Note_on_c, 1, 51, 127
1, 22086, Note_on_c, 1, 67, 127
1, 22187, Note_off_c, 1, 51, 0
1, 22187, Note_off_c, 1, 67, 0
1, 22205, Note_on_c, 1, 50, 127
1, 22205, Note_on_c, 1, 65, 127
1, 22306, Note_off_c, 1, 50, 0
1, 22306, Note_off_c, 1, 65, 0
1, 22443, Note_on_c, 1, 56, 127
1, 22443, Note_on_c, 1, 63, 127
1, 22793, Note_off_c, 1, 56, 0
1, 22793, Note_off_c, 1, 63, 0
1, 22909, Note_off_c, 1, 48, 0
1, 22909, Note_off_c, 1, 68, 0
1, 22919, Note_on_c, 1, 50, 127
1, 22919, Note_on_c, 1, 68, 127
1, 23038, Note_on_c, 1, 53, 127
1, 23038, Note_on_c, 1, 62, 127
1, 23139, Note_off_c, 1, 53, 0
1, 23139, Note_off_c, 1, 62, 0
1, 23157, Note_on_c, 1, 51, 127
1, 23157, Note_on_c, 1, 60, 127
1, 23258, Note_off_c, 1, 51, 0
1, 23258, Note_off_c, 1, 60, 0
1, 23395, Note_on_c, 1, 56, 127
1, 23395, Note_on_c, 1, 58, 127
1, 23745, Note_off_c, 1, 56, 0
1, 23745, Note_off_c, 1, 58, 0
1, 23861, Note_off_c, 1, 50, 0
1, 23861, Note_off_c, 1, 68, 0
1, 23872, Note_on_c, 1, 50, 127
1, 23872, Note_on_c, 1, 68, 127
1, 23991, Note_on_c, 1, 53, 127
1, 23991, Note_on_c, 1, 62, 127
1, 24092, Note_off_c, 1, 53, 0
1, 24092, Note_off_c, 1, 62, 0
1, 24110, Note_on_c, 1, 51, 127
1, 24110, Note_on_c, 1, 60, 127
1, 24211, Note_off_c, 1, 51, 0
1, 24211, Note_off_c, 1, 60, 0
1, 24348, Note_on_c, 1, 56, 127
1, 24348, Note_on_c, 1, 58, 127
1, 24648, Note_off_c, 1, 56, 0
1, 24648, Note_off_c, 1, 58, 0
1, 24814, Note_off_c, 1, 50, 0
1, 24814, Note_off_c, 1, 68, 0
1, 24824, Note_on_c, 1, 67, 127
1, 24824, Note_on_c, 1, 51, 127
1, 24943, Note_on_c, 1, 55, 127
1, 24943, Note_on_c, 1, 58, 127
1, 25044, Note_off_c, 1, 55, 0
1, 25044, Note_off_c, 1, 58, 0
1, 25062, Note_on_c, 1, 53, 127
1, 25062, Note_on_c, 1, 56, 127
1, 25163, Note_off_c, 1, 53, 0
1, 25163, Note_off_c, 1, 56, 0
1, 25295, Note_off_c, 1, 67, 0
1, 25300, Note_on_c, 1, 63, 127
1, 25766, Note_off_c, 1, 51, 0
1, 25771, Note_off_c, 1, 63, 0
1, 25776, Note_on_c, 1, 67, 127
1, 25776, Note_on_c, 1, 51, 127
1, 25895, Note_on_c, 1, 55, 127
1, 25895, Note_on_c, 1, 58, 127
1, 25996, Note_off_c, 1, 55, 0
1, 25996, Note_off_c, 1, 58, 0
1, 26014, Note_on_c, 1, 53, 127
1, 26014, Note_on_c, 1, 56, 127
1, 26115, Note_off_c, 1, 53, 0
1, 26115, Note_off_c, 1, 56, 0
1, 26247, Note_off_c, 1, 67, 0
1, 26252, Note_on_c, 1, 63, 127
1, 26718, Note_off_c, 1, 51, 0
1, 26723, Note_off_c, 1, 63, 0
1, 26728, Note_on_c, 1, 51, 127
1, 26728, Note_on_c, 1, 65, 127
1, 26848, Note_on_c, 1, 57, 127
1, 26848, Note_on_c, 1, 60, 127
1, 26949, Note_off_c, 1, 57, 0
1, 26949, Note_off_c, 1, 60, 0
1, 26967, Note_on_c, 1, 55, 127
1, 26967, Note_on_c, 1, 58, 127
1, 27068, Note_off_c, 1, 55, 0
1, 27068, Note_off_c, 1, 58, 0
1, 27205, Note_on_c, 1, 53, 127
1, 27661, Note_off_c, 1, 53, 0
1, 27670, Note_off_c, 1, 51, 0
1, 27670, Note_off_c, 1, 65, 0
1, 27681, Note_on_c, 1, 51, 127
1, 27681, Note_on_c, 1, 65, 127
1, 27800, Note_on_c, 1, 57, 127
1, 27800, Note_on_c, 1, 60, 127
1, 27901, Note_off_c, 1, 57, 0
1, 27901, Note_off_c, 1, 60, 0
1, 27919, Note_on_c, 1, 55, 127
1, 27919, Note_on_c, 1, 58, 127
1, 28020, Note_off_c, 1, 55, 0
1, 28020, Note_off_c, 1, 58, 0
1, 28157, Note_on_c, 1, 53, 127
1, 28609, Note_off_c, 1, 53, 0
1, 28623, Note_off_c, 1, 51, 0
1, 28623, Note_off_c, 1, 65, 0
1, 28633, Note_on_c, 1, 50, 127
1, 28633, Note_on_c, 1, 65, 127
1, 28752, Note_on_c, 1, 53, 127
1, 28752, Note_on_c, 1, 62, 127
1, 28853, Note_off_c, 1, 53, 0
1, 28853, Note_off_c, 1, 62, 0
1, 28871, Note_on_c, 1, 51, 127
1, 28871, Note_on_c, 1, 60, 127
1, 28972, Note_off_c, 1, 51, 0
1, 28972, Note_off_c, 1, 60, 0
1, 29109, Note_on_c, 1, 56, 127
1, 29109, Note_on_c, 1, 59, 127
1, 29344, Note_off_c, 1, 56, 0
1, 29575, Note_off_c, 1, 50, 0
1, 29575, Note_off_c, 1, 65, 0
1, 29659, Note_off_c, 1, 59, 0
1, 30538, Note_on_c, 1, 48, 127
1, 30538, Note_on_c, 1, 65, 127
1, 30657, Note_on_c, 1, 53, 127
1, 30657, Note_on_c, 1, 62, 127
1, 30758, Note_off_c, 1, 53, 0
1, 30758, Note_off_c, 1, 62, 0
1, 30776, Note_on_c, 1, 52, 127
1, 30776, Note_on_c, 1, 60, 127
1, 30877, Note_off_c, 1, 52, 0
1, 30877, Note_off_c, 1, 60, 0
1, 31014, Note_on_c, 1, 59, 127
1, 31014, Note_on_c, 1, 56, 127
1, 31294, Note_off_c, 1, 59, 0
1, 31470, Note_off_c, 1, 56, 0
1, 31480, Note_off_c, 1, 48, 0
1, 31480, Note_off_c, 1, 65, 0
1, 31490, Note_on_c, 1, 48, 127
1, 31490, Note_on_c, 1, 65, 127
1, 31609, Note_on_c, 1, 53, 127
1, 31609, Note_on_c, 1, 62, 127
1, 31710, Note_off_c, 1, 53, 0
1, 31710, Note_off_c, 1, 62, 0
1, 31728, Note_on_c, 1, 52, 127
1, 31728, Note_on_c, 1, 60, 127
1, 31829, Note_off_c, 1, 52, 0
1, 31829, Note_off_c, 1, 60, 0
1, 31966, Note_on_c, 1, 59, 127
1, 31966, Note_on_c, 1, 56, 127
1, 32067, Note_off_c, 1, 59, 0
1, 32246, Note_off_c, 1, 56, 0
1, 32432, Note_off_c, 1, 48, 0
1, 32432, Note_off_c, 1, 65, 0
1, 32442, Note_on_c, 1, 48, 127
1, 32442, Note_on_c, 1, 63, 127
1, 32561, Note_on_c, 1, 51, 127
1, 32561, Note_on_c, 1, 60, 127
1, 32662, Note_off_c, 1, 51, 0
1, 32662, Note_off_c, 1, 60, 0
1, 32680, Note_on_c, 1, 50, 127
1, 32680, Note_on_c, 1, 59, 127
1, 32781, Note_off_c, 1, 50, 0
1, 32781, Note_off_c, 1, 59, 0
1, 32919, Note_on_c, 1, 53, 127
1, 32919, Note_on_c, 1, 55, 127
1, 33020, Note_off_c, 1, 53, 0
1, 33169, Note_off_c, 1, 55, 0
1, 33384, Note_off_c, 1, 48, 0
1, 33384, Note_off_c, 1, 63, 0
1, 33395, Note_on_c, 1, 46, 127
1, 33395, Note_on_c, 1, 63, 127
1, 33514, Note_on_c, 1, 51, 127
1, 33514, Note_on_c, 1, 60, 127
1, 33615, Note_off_c, 1, 51, 0
1, 33615, Note_off_c, 1, 60, 0
1, 33633, Note_on_c, 1, 50, 127
1, 33633, Note_on_c, 1, 59, 127
1, 33734, Note_off_c, 1, 50, 0
1, 33734, Note_off_c, 1, 59, 0
1, 33871, Note_on_c, 1, 53, 127
1, 33871, Note_on_c, 1, 55, 127
1, 33972, Note_off_c, 1, 53, 0
1, 34071, Note_off_c, 1, 55, 0
1, 34337, Note_off_c, 1, 46, 0
1, 34337, Note_off_c, 1, 63, 0
1, 34347, Note_on_c, 1, 44, 127
1, 34347, Note_on_c, 1, 53, 127
1, 34467, Note_on_c, 1, 48, 127
1, 34467, Note_on_c, 1, 63, 127
1, 34569, Note_off_c, 1, 48, 0
1, 34569, Note_off_c, 1, 63, 0
1, 34588, Note_on_c, 1, 47, 127
1, 34588, Note_on_c, 1, 62, 127
1, 34690, Note_off_c, 1, 47, 0
1, 34690, Note_off_c, 1, 62, 0
1, 34828, Note_on_c, 1, 50, 127
1, 34828, Note_on_c, 1, 65, 127
1, 34930, Note_off_c, 1, 50, 0
1, 34930, Note_off_c, 1, 65, 0
1, 35299, Note_off_c, 1, 44, 0
1, 35299, Note_off_c, 1, 53, 0
1, 35309, Note_on_c, 1, 53, 127
1, 35309, Note_on_c, 1, 44, 127
1, 35430, Note_on_c, 1, 48, 127
1, 35430, Note_on_c, 1, 63, 127
1, 35532, Note_off_c, 1, 48, 0
1, 35532, Note_off_c, 1, 63, 0
1, 35550, Note_on_c, 1, 47, 127
1, 35550, Note_on_c, 1, 62, 127
1, 35652, Note_off_c, 1, 47, 0
1, 35652, Note_off_c, 1, 62, 0
1, 35790, Note_on_c, 1, 50, 127
1, 35790, Note_on_c, 1, 65, 127
1, 35892, Note_off_c, 1, 50, 0
1, 35892, Note_off_c, 1, 65, 0
1, 36239, Note_off_c, 1, 53, 0
1, 36261, Note_off_c, 1, 44, 0
1, 36272, Note_on_c, 1, 45, 127
1, 36272, Note_on_c, 1, 54, 127
1, 36392, Note_on_c, 1, 51, 127
1, 36392, Note_on_c, 1, 60, 127
1, 36494, Note_off_c, 1, 51, 0
1, 36494, Note_off_c, 1, 60, 0
1, 36512, Note_on_c, 1, 50, 127
1, 36512, Note_on_c, 1, 59, 127
1, 36614, Note_off_c, 1, 50, 0
1, 36614, Note_off_c, 1, 59, 0
1, 36753, Note_on_c, 1, 63, 127
1, 36753, Note_on_c, 1, 48, 127
1, 36854, Note_off_c, 1, 63, 0
1, 37214, Note_off_c, 1, 48, 0
1, 37224, Note_off_c, 1, 45, 0
1, 37224, Note_off_c, 1, 54, 0
1, 37234, Note_on_c, 1, 54, 127
1, 37234, Note_on_c, 1, 45, 127
1, 37354, Note_on_c, 1, 51, 127
1, 37354, Note_on_c, 1, 60, 127
1, 37456, Note_off_c, 1, 51, 0
1, 37456, Note_off_c, 1, 60, 0
1, 37474, Note_on_c, 1, 50, 127
1, 37474, Note_on_c, 1, 59, 127
1, 37576, Note_off_c, 1, 50, 0
1, 37576, Note_off_c, 1, 59, 0
1, 37684, Note_off_c, 1, 54, 0
1, 37715, Note_on_c, 1, 63, 127
1, 37715, Note_on_c, 1, 48, 127
1, 37816, Note_off_c, 1, 63, 0
1, 38176, Note_off_c, 1, 48, 0
1, 38186, Note_off_c, 1, 45, 0
1, 38196, Note_on_c, 1, 43, 127
1, 38196, Note_on_c, 1, 63, 127
1, 38315, Note_on_c, 1, 51, 127
1, 38315, Note_on_c, 1, 60, 127
1, 38416, Note_off_c, 1, 51, 0
1, 38416, Note_off_c, 1, 60, 0
1, 38434, Note_on_c, 1, 50, 127
1, 38434, Note_on_c, 1, 59, 127
1, 38535, Note_off_c, 1, 50, 0
1, 38535, Note_off_c, 1, 59, 0
1, 38672, Note_on_c, 1, 53, 127
1, 38672, Note_on_c, 1, 55, 127
1, 38952, Note_off_c, 1, 53, 0
1, 39032, Note_off_c, 1, 55, 0
1, 39138, Note_off_c, 1, 43, 0
1, 39138, Note_off_c, 1, 63, 0
1, 39148, Note_on_c, 1, 43, 127
1, 39148, Note_on_c, 1, 63, 127
1, 39267, Note_on_c, 1, 51, 127
1, 39267, Note_on_c, 1, 60, 127
1, 39368, Note_off_c, 1, 51, 0
1, 39368, Note_off_c, 1, 60, 0
1, 39386, Note_on_c, 1, 50, 127
1, 39386, Note_on_c, 1, 59, 127
1, 39487, Note_off_c, 1, 50, 0
1, 39487, Note_off_c, 1, 59, 0
1, 39624, Note_on_c, 1, 53, 127
1, 39624, Note_on_c, 1, 55, 127
1, 39904, Note_off_c, 1, 53, 0
1, 39964, Note_off_c, 1, 55, 0
1, 40090, Note_off_c, 1, 43, 0
1, 40090, Note_off_c, 1, 63, 0
1, 40101, Note_on_c, 1, 43, 127
1, 40101, Note_on_c, 1, 66, 127
1, 40220, Note_on_c, 1, 51, 127
1, 40220, Note_on_c, 1, 60, 127
1, 40321, Note_off_c, 1, 51, 0
1, 40321, Note_off_c, 1, 60, 0
1, 40339, Note_on_c, 1, 50, 127
1, 40339, Note_on_c, 1, 59, 127
1, 40440, Note_off_c, 1, 50, 0
1, 40440, Note_off_c, 1, 59, 0
1, 40577, Note_on_c, 1, 57, 127
1, 40577, Note_on_c, 1, 48, 127
1, 40937, Note_off_c, 1, 57, 0
1, 41033, Note_off_c, 1, 48, 0
1, 41043, Note_off_c, 1, 43, 0
1, 41043, Note_off_c, 1, 66, 0
1, 41053, Note_on_c, 1, 43, 127
1, 41053, Note_on_c, 1, 66, 127
1, 41172, Note_on_c, 1, 51, 127
1, 41172, Note_on_c, 1, 60, 127
1, 41273, Note_off_c, 1, 51, 0
1, 41273, Note_off_c, 1, 60, 0
1, 41291, Note_on_c, 1, 50, 127
1, 41291, Note_on_c, 1, 59, 127
1, 41392, Note_off_c, 1, 50, 0
1, 41392, Note_off_c, 1, 59, 0
1, 41529, Note_on_c, 1, 57, 127
1, 41529, Note_on_c, 1, 48, 127
1, 41889, Note_off_c, 1, 57, 0
1, 41985, Note_off_c, 1, 48, 0
1, 41995, Note_off_c, 1, 43, 0
1, 41995, Note_off_c, 1, 66, 0
1, 42005, Note_on_c, 1, 43, 127
1, 42005, Note_on_c, 1, 67, 127
1, 42124, Note_on_c, 1, 51, 127
1, 42124, Note_on_c, 1, 60, 127
1, 42225, Note_off_c, 1, 51, 0
1, 42225, Note_off_c, 1, 60, 0
1, 42243, Note_on_c, 1, 50, 127
1, 42243, Note_on_c, 1, 59, 127
1, 42344, Note_off_c, 1, 50, 0
1, 42344, Note_off_c, 1, 59, 0
1, 42481, Note_on_c, 1, 53, 127
1, 42481, Note_on_c, 1, 62, 127
1, 42761, Note_off_c, 1, 53, 0
1, 42861, Note_off_c, 1, 62, 0
1, 42947, Note_off_c, 1, 43, 0
1, 42947, Note_off_c, 1, 67, 0
1, 42958, Note_on_c, 1, 43, 127
1, 42958, Note_on_c, 1, 67, 127
1, 43077, Note_on_c, 1, 51, 127
1, 43077, Note_on_c, 1, 60, 127
1, 43178, Note_off_c, 1, 51, 0
1, 43178, Note_off_c, 1, 60, 0
1, 43196, Note_on_c, 1, 50, 127
1, 43196, Note_on_c, 1, 59, 127
1, 43297, Note_off_c, 1, 50, 0
1, 43297, Note_off_c, 1, 59, 0
1, 43434, Note_on_c, 1, 53, 127
1, 43434, Note_on_c, 1, 62, 127
1, 43535, Note_off_c, 1, 53, 0
1, 43535, Note_off_c, 1, 62, 0
1, 43900, Note_off_c, 1, 43, 0
1, 43900, Note_off_c, 1, 67, 0
1, 43910, Note_on_c, 1, 43, 127
1, 43910, Note_on_c, 1, 68, 127
1, 44029, Note_on_c, 1, 51, 127
1, 44029, Note_on_c, 1, 60, 127
1, 44130, Note_off_c, 1, 51, 0
1, 44130, Note_off_c, 1, 60, 0
1, 44148, Note_on_c, 1, 50, 127
1, 44148, Note_on_c, 1, 59, 127
1, 44249, Note_off_c, 1, 50, 0
1, 44249, Note_off_c, 1, 59, 0
1, 44386, Note_on_c, 1, 53, 127
1, 44386, Note_on_c, 1, 62, 127
1, 44487, Note_off_c, 1, 53, 0
1, 44487, Note_off_c, 1, 62, 0
1, 44852, Note_off_c, 1, 43, 0
1, 44852, Note_off_c, 1, 68, 0
1, 44862, Note_on_c, 1, 68, 127
1, 44862, Note_on_c, 1, 43, 127
1, 44963, Note_off_c, 1, 68, 0
1, 44981, Note_on_c, 1, 51, 127
1, 44981, Note_on_c, 1, 60, 127
1, 45071, Note_off_c, 1, 51, 0
1, 45082, Note_off_c, 1, 60, 0
1, 45100, Note_on_c, 1, 50, 127
1, 45100, Note_on_c, 1, 59, 127
1, 45190, Note_off_c, 1, 50, 0
1, 45201, Note_off_c, 1, 59, 0
1, 45338, Note_on_c, 1, 53, 127
1, 45338, Note_on_c, 1, 62, 127
1, 45428, Note_off_c, 1, 53, 0
1, 45439, Note_off_c, 1, 62, 0
1, 45804, Note_off_c, 1, 43, 0
1, 45824, Note_on_c, 1, 59, 127
1, 45824, Note_on_c, 1, 43, 127
1, 45964, Note_on_c, 1, 47, 127
1, 46080, Note_on_c, 1, 50, 127
1, 46189, Note_off_c, 1, 50, 0
1, 46196, Note_on_c, 1, 53, 127
1, 46285, Note_off_c, 1, 59, 0
1, 46305, Note_off_c, 1, 53, 0
1, 46313, Note_on_c, 1, 56, 127
1, 46422, Note_off_c, 1, 56, 0
1, 46546, Note_on_c, 1, 52, 127
1, 46655, Note_off_c, 1, 52, 0
1, 47012, Note_on_c, 1, 62, 127
1, 47121, Note_off_c, 1, 62, 0
1, 47681, Note_off_c, 1, 43, 0
1, 47700, Note_off_c, 1, 47, 0
1, 47705, Note_on_c, 1, 43, 127
1, 47863, Note_on_c, 1, 48, 127
1, 47982, Note_on_c, 1, 51, 127
1, 48101, Note_on_c, 1, 55, 127
1, 48212, Note_off_c, 1, 55, 0
1, 48220, Note_on_c, 1, 60, 127
1, 48331, Note_off_c, 1, 60, 0
1, 48458, Note_on_c, 1, 54, 127
1, 48569, Note_off_c, 1, 54, 0
1, 48696, Note_on_c, 1, 63, 127
1, 48807, Note_off_c, 1, 63, 0
1, 48934, Note_on_c, 1, 67, 127
1, 49045, Note_off_c, 1, 67, 0
1, 49291, Note_on_c, 1, 56, 127
1, 49402, Note_off_c, 1, 56, 0
1, 49594, Note_off_c, 1, 51, 0
1, 49602, Note_off_c, 1, 43, 0
1, 49636, Note_off_c, 1, 48, 0
1, 49655, Note_on_c, 1, 43, 127
1, 49803, Note_on_c, 1, 45, 127
1, 49926, Note_on_c, 1, 54, 127
1, 50048, Note_on_c, 1, 60, 127
1, 50163, Note_off_c, 1, 60, 0
1, 50171, Note_on_c, 1, 63, 127
1, 50286, Note_off_c, 1, 63, 0
1, 50417, Note_on_c, 1, 59, 127
1, 50532, Note_off_c, 1, 59, 0
1, 50662, Note_on_c, 1, 66, 127
1, 50777, Note_off_c, 1, 66, 0
1, 50908, Note_on_c, 1, 69, 127
1, 51023, Note_off_c, 1, 69, 0
1, 51685, Note_off_c, 1, 54, 0
1, 51687, Note_off_c, 1, 45, 0
1, 51692, Note_off_c, 1, 43, 0
1, 51707, Note_on_c, 1, 43, 127
1, 52111, Note_on_c, 1, 74, 127
1, 52192, Note_off_c, 1, 74, 0
1, 52195, Note_on_c, 1, 72, 127
1, 52276, Note_off_c, 1, 72, 0
1, 52364, Note_on_c, 1, 75, 127
1, 52522, Note_off_c, 1, 75, 0
1, 52532, Note_on_c, 1, 71, 127
1, 52613, Note_off_c, 1, 71, 0
1, 52701, Note_on_c, 1, 69, 127
1, 52859, Note_off_c, 1, 69, 0
1, 53038, Note_on_c, 1, 55, 127
1, 53345, Note_off_c, 1, 43, 0
1, 53376, Note_on_c, 1, 67, 127
1, 53413, Note_off_c, 1, 55, 0
1, 53460, Note_on_c, 1, 62, 127
1, 53534, Note_off_c, 1, 67, 0
1, 53541, Note_off_c, 1, 62, 0
1, 53544, Note_on_c, 1, 60, 127
1, 53544, Note_on_c, 1, 69, 127
1, 53625, Note_off_c, 1, 60, 0
1, 53625, Note_off_c, 1, 69, 0
1, 53629, Note_on_c, 1, 62, 127
1, 53629, Note_on_c, 1, 71, 127
1, 53710, Note_off_c, 1, 62, 0
1, 53710, Note_off_c, 1, 71, 0
1, 53713, Note_on_c, 1, 63, 127
1, 53713, Note_on_c, 1, 72, 127
1, 53797, Note_on_c, 1, 60, 127
1, 53797, Note_on_c, 1, 69, 127
1, 53871, Note_off_c, 1, 63, 0
1, 53871, Note_off_c, 1, 72, 0
1, 53878, Note_off_c, 1, 60, 0
1, 53878, Note_off_c, 1, 69, 0
1, 53882, Note_on_c, 1, 59, 127
1, 53882, Note_on_c, 1, 67, 127
1, 53963, Note_off_c, 1, 59, 0
1, 53963, Note_off_c, 1, 67, 0
1, 53966, Note_on_c, 1, 60, 127
1, 53966, Note_on_c, 1, 69, 127
1, 54047, Note_off_c, 1, 60, 0
1, 54047, Note_off_c, 1, 69, 0
1, 54050, Note_on_c, 1, 57, 127
1, 54050, Note_on_c, 1, 66, 127
1, 54135, Note_on_c, 1, 60, 127
1, 54135, Note_on_c, 1, 69, 127
1, 54208, Note_off_c, 1, 57, 0
1, 54208, Note_off_c, 1, 66, 0
1, 54216, Note_off_c, 1, 60, 0
1, 54216, Note_off_c, 1, 69, 0
1, 54219, Note_on_c, 1, 59, 127
1, 54219, Note_on_c, 1, 67, 127
1, 54300, Note_off_c, 1, 59, 0
1, 54300, Note_off_c, 1, 67, 0
1, 54303, Note_on_c, 1, 60, 127
1, 54303, Note_on_c, 1, 69, 127
1, 54384, Note_off_c, 1, 60, 0
1, 54384, Note_off_c, 1, 69, 0
1, 54387, Note_on_c, 1, 62, 127
1, 54387, Note_on_c, 1, 71, 127
1, 54472, Note_on_c, 1, 59, 127
1, 54472, Note_on_c, 1, 67, 127
1, 54545, Note_off_c, 1, 62, 0
1, 54545, Note_off_c, 1, 71, 0
1, 54553, Note_off_c, 1, 59, 0
1, 54553, Note_off_c, 1, 67, 0
1, 54556, Note_on_c, 1, 57, 127
1, 54556, Note_on_c, 1, 66, 127
1, 54637, Note_off_c, 1, 57, 0
1, 54637, Note_off_c, 1, 66, 0
1, 54640, Note_on_c, 1, 59, 127
1, 54640, Note_on_c, 1, 67, 127
1, 54721, Note_off_c, 1, 59, 0
1, 54721, Note_off_c, 1, 67, 0
1, 54725, Note_on_c, 1, 55, 127
1, 54725, Note_on_c, 1, 62, 127
1, 54806, Note_off_c, 1, 55, 0
1, 54806, Note_off_c, 1, 62, 0
1, 54809, Note_on_c, 1, 59, 127
1, 54809, Note_on_c, 1, 79, 127
1, 54890, Note_off_c, 1, 59, 0
1, 54890, Note_off_c, 1, 79, 0
1, 54893, Note_on_c, 1, 57, 127
1, 54893, Note_on_c, 1, 77, 127
1, 54974, Note_off_c, 1, 57, 0
1, 54974, Note_off_c, 1, 77, 0
1, 54978, Note_on_c, 1, 59, 127
1, 54978, Note_on_c, 1, 79, 127
1, 55059, Note_off_c, 1, 59, 0
1, 55059, Note_off_c, 1, 79, 0
1, 55062, Note_on_c, 1, 60, 127
1, 55062, Note_on_c, 1, 80, 127
1, 55146, Note_on_c, 1, 56, 127
1, 55146, Note_on_c, 1, 77, 127
1, 55220, Note_off_c, 1, 60, 0
1, 55220, Note_off_c, 1, 80, 0
1, 55227, Note_off_c, 1, 56, 0
1, 55227, Note_off_c, 1, 77, 0
1, 55231, Note_on_c, 1, 55, 127
1, 55231, Note_on_c, 1, 75, 127
1, 55312, Note_off_c, 1, 55, 0
1, 55312, Note_off_c, 1, 75, 0
1, 55315, Note_on_c, 1, 56, 127
1, 55315, Note_on_c, 1, 77, 127
1, 55396, Note_off_c, 1, 56, 0
1, 55396, Note_off_c, 1, 77, 0
1, 55399, Note_on_c, 1, 53, 127
1, 55399, Note_on_c, 1, 74, 127
1, 55484, Note_on_c, 1, 57, 127
1, 55484, Note_on_c, 1, 77, 127
1, 55557, Note_off_c, 1, 53, 0
1, 55557, Note_off_c, 1, 74, 0
1, 55565, Note_off_c, 1, 57, 0
1, 55565, Note_off_c, 1, 77, 0
1, 55568, Note_on_c, 1, 55, 127
1, 55568, Note_on_c, 1, 75, 127
1, 55649, Note_off_c, 1, 55, 0
1, 55649, Note_off_c, 1, 75, 0
1, 55652, Note_on_c, 1, 57, 127
1, 55652, Note_on_c, 1, 77, 127
1, 55733, Note_off_c, 1, 57, 0
1, 55733, Note_off_c, 1, 77, 0
1, 55737, Note_on_c, 1, 59, 127
1, 55737, Note_on_c, 1, 79, 127
1, 55821, Note_on_c, 1, 55, 127
1, 55821, Note_on_c, 1, 75, 127
1, 55895, Note_off_c, 1, 59, 0
1, 55895, Note_off_c, 1, 79, 0
1, 55902, Note_off_c, 1, 55, 0
1, 55902, Note_off_c, 1, 75, 0
1, 55905, Note_on_c, 1, 53, 127
1, 55905, Note_on_c, 1, 74, 127
1, 55986, Note_off_c, 1, 53, 0
1, 55986, Note_off_c, 1, 74, 0
1, 55990, Note_on_c, 1, 55, 127
1, 55990, Note_on_c, 1, 75, 127
1, 56071, Note_off_c, 1, 55, 0
1, 56071, Note_off_c, 1, 75, 0
1, 56074, Note_on_c, 1, 51, 127
1, 56074, Note_on_c, 1, 72, 127
1, 56155, Note_off_c, 1, 51, 0
1, 56158, Note_on_c, 1, 67, 127
1, 56158, Note_on_c, 1, 75, 127
1, 56232, Note_off_c, 1, 72, 0
1, 56239, Note_off_c, 1, 67, 0
1, 56239, Note_off_c, 1, 75, 0
1, 56243, Note_on_c, 1, 65, 127
1, 56243, Note_on_c, 1, 74, 127
1, 56324, Note_off_c, 1, 65, 0
1, 56324, Note_off_c, 1, 74, 0
1, 56327, Note_on_c, 1, 67, 127
1, 56327, Note_on_c, 1, 75, 127
1, 56408, Note_off_c, 1, 67, 0
1, 56408, Note_off_c, 1, 75, 0
1, 56411, Note_on_c, 1, 68, 127
1, 56411, Note_on_c, 1, 77, 127
1, 56495, Note_on_c, 1, 65, 127
1, 56495, Note_on_c, 1, 74, 127
1, 56569, Note_off_c, 1, 68, 0
1, 56569, Note_off_c, 1, 77, 0
1, 56576, Note_off_c, 1, 65, 0
1, 56576, Note_off_c, 1, 74, 0
1, 56580, Note_on_c, 1, 63, 127
1, 56580, Note_on_c, 1, 72, 127
1, 56661, Note_off_c, 1, 63, 0
1, 56661, Note_off_c, 1, 72, 0
1, 56664, Note_on_c, 1, 65, 127
1, 56664, Note_on_c, 1, 74, 127
1, 56745, Note_off_c, 1, 65, 0
1, 56745, Note_off_c, 1, 74, 0
1, 56748, Note_on_c, 1, 62, 127
1, 56748, Note_on_c, 1, 71, 127
1, 56833, Note_on_c, 1, 65, 127
1, 56833, Note_on_c, 1, 74, 127
1, 56906, Note_off_c, 1, 62, 0
1, 56906, Note_off_c, 1, 71, 0
1, 56914, Note_off_c, 1, 65, 0
1, 56914, Note_off_c, 1, 74, 0
1, 56917, Note_on_c, 1, 63, 127
1, 56917, Note_on_c, 1, 72, 127
1, 56998, Note_off_c, 1, 63, 0
1, 56998, Note_off_c, 1, 72, 0
1, 57001, Note_on_c, 1, 65, 127
1, 57001, Note_on_c, 1, 74, 127
1, 57082, Note_off_c, 1, 65, 0
1, 57082, Note_off_c, 1, 74, 0
1, 57086, Note_on_c, 1, 67, 127
1, 57086, Note_on_c, 1, 75, 127
1, 57170, Note_on_c, 1, 63, 127
1, 57170, Note_on_c, 1, 72, 127
1, 57244, Note_off_c, 1, 67, 0
1, 57244, Note_off_c, 1, 75, 0
1, 57251, Note_off_c, 1, 63, 0
1, 57251, Note_off_c, 1, 72, 0
1, 57254, Note_on_c, 1, 62, 127
1, 57254, Note_on_c, 1, 71, 127
1, 57335, Note_off_c, 1, 62, 0
1, 57335, Note_off_c, 1, 71, 0
1, 57339, Note_on_c, 1, 63, 127
1, 57339, Note_on_c, 1, 72, 127
1, 57420, Note_off_c, 1, 63, 0
1, 57420, Note_off_c, 1, 72, 0
1, 57423, Note_on_c, 1, 60, 127
1, 57423, Note_on_c, 1, 67, 127
1, 57507, Note_on_c, 1, 63, 127
1, 57507, Note_on_c, 1, 72, 127
1, 57581, Note_off_c, 1, 60, 0
1, 57581, Note_off_c, 1, 67, 0
1, 57588, Note_off_c, 1, 63, 0
1, 57588, Note_off_c, 1, 72, 0
1, 57592, Note_on_c, 1, 62, 127
1, 57592, Note_on_c, 1, 71, 127
1, 57673, Note_off_c, 1, 62, 0
1, 57673, Note_off_c, 1, 71, 0
1, 57676, Note_on_c, 1, 63, 127
1, 57676, Note_on_c, 1, 72, 127
1, 57757, Note_off_c, 1, 63, 0
1, 57757, Note_off_c, 1, 72, 0
1, 57760, Note_on_c, 1, 65, 127
1, 57760, Note_on_c, 1, 68, 127
1, 57845, Note_on_c, 1, 62, 127
1, 57845, Note_on_c, 1, 77, 127
1, 57929, Note_off_c, 1, 62, 0
1, 57929, Note_off_c, 1, 77, 0
1, 57931, Note_on_c, 1, 60, 127
1, 57931, Note_on_c, 1, 75, 127
1, 58001, Note_off_c, 1, 65, 0
1, 58001, Note_off_c, 1, 68, 0
1, 58015, Note_off_c, 1, 60, 0
1, 58015, Note_off_c, 1, 75, 0
1, 58018, Note_on_c, 1, 62, 127
1, 58018, Note_on_c, 1, 77, 127
1, 58102, Note_off_c, 1, 62, 0
1, 58102, Note_off_c, 1, 77, 0
1, 58105, Note_on_c, 1, 63, 127
1, 58105, Note_on_c, 1, 67, 127
1, 58192, Note_on_c, 1, 60, 127
1, 58192, Note_on_c, 1, 75, 127
1, 58276, Note_off_c, 1, 60, 0
1, 58276, Note_off_c, 1, 75, 0
1, 58279, Note_on_c, 1, 59, 127
1, 58279, Note_on_c, 1, 74, 127
1, 58349, Note_off_c, 1, 63, 0
1, 58349, Note_off_c, 1, 67, 0
1, 58363, Note_off_c, 1, 59, 0
1, 58363, Note_off_c, 1, 74, 0
1, 58365, Note_on_c, 1, 60, 127
1, 58365, Note_on_c, 1, 75, 127
1, 58449, Note_off_c, 1, 60, 0
1, 58449, Note_off_c, 1, 75, 0
1, 58452, Note_on_c, 1, 62, 127
1, 58452, Note_on_c, 1, 65, 127
1, 58539, Note_on_c, 1, 59, 127
1, 58539, Note_on_c, 1, 74, 127
1, 58623, Note_off_c, 1, 59, 0
1, 58623, Note_off_c, 1, 74, 0
1, 58626, Note_on_c, 1, 57, 127
1, 58626, Note_on_c, 1, 72, 127
1, 58696, Note_off_c, 1, 62, 0
1, 58696, Note_off_c, 1, 65, 0
1, 58710, Note_off_c, 1, 57, 0
1, 58710, Note_off_c, 1, 72, 0
1, 58713, Note_on_c, 1, 59, 127
1, 58713, Note_on_c, 1, 74, 127
1, 58797, Note_off_c, 1, 59, 0
1, 58797, Note_off_c, 1, 74, 0
1, 58799, Note_on_c, 1, 63, 127
1, 58799, Note_on_c, 1, 60, 127
1, 58883, Note_off_c, 1, 63, 0
1, 58886, Note_on_c, 1, 72, 127
1, 58970, Note_off_c, 1, 72, 0
1, 58973, Note_on_c, 1, 62, 127
1, 58973, Note_on_c, 1, 71, 127
1, 59043, Note_off_c, 1, 60, 0
1, 59057, Note_off_c, 1, 62, 0
1, 59057, Note_off_c, 1, 71, 0
1, 59060, Note_on_c, 1, 63, 127
1, 59060, Note_on_c, 1, 72, 127
1, 59144, Note_off_c, 1, 63, 0
1, 59144, Note_off_c, 1, 72, 0
1, 59147, Note_on_c, 1, 68, 127
1, 59147, Note_on_c, 1, 53, 127
1, 59240, Note_on_c, 1, 62, 127
1, 59240, Note_on_c, 1, 65, 127
1, 59321, Note_off_c, 1, 68, 0
1, 59330, Note_off_c, 1, 62, 0
1, 59330, Note_off_c, 1, 65, 0
1, 59333, Note_on_c, 1, 60, 127
1, 59333, Note_on_c, 1, 63, 127
1, 59408, Note_off_c, 1, 53, 0
1, 59423, Note_off_c, 1, 60, 0
1, 59423, Note_off_c, 1, 63, 0
1, 59426, Note_on_c, 1, 62, 127
1, 59426, Note_on_c, 1, 65, 127
1, 59516, Note_off_c, 1, 62, 0
1, 59516, Note_off_c, 1, 65, 0
1, 59519, Note_on_c, 1, 67, 127
1, 59519, Note_on_c, 1, 51, 127
1, 59612, Note_on_c, 1, 60, 127
1, 59612, Note_on_c, 1, 63, 127
1, 59693, Note_off_c, 1, 67, 0
1, 59702, Note_off_c, 1, 60, 0
1, 59702, Note_off_c, 1, 63, 0
1, 59705, Note_on_c, 1, 59, 127
1, 59705, Note_on_c, 1, 62, 127
1, 59780, Note_off_c, 1, 51, 0
1, 59795, Note_off_c, 1, 59, 0
1, 59795, Note_off_c, 1, 62, 0
1, 59798, Note_on_c, 1, 60, 127
1, 59798, Note_on_c, 1, 63, 127
1, 59888, Note_off_c, 1, 60, 0
1, 59888, Note_off_c, 1, 63, 0
1, 59891, Note_on_c, 1, 65, 127
1, 59891, Note_on_c, 1, 50, 127
1, 59984, Note_on_c, 1, 59, 127
1, 59984, Note_on_c, 1, 62, 127
1, 60065, Note_off_c, 1, 65, 0
1, 60074, Note_off_c, 1, 59, 0
1, 60074, Note_off_c, 1, 62, 0
1, 60077, Note_on_c, 1, 57, 127
1, 60077, Note_on_c, 1, 60, 127
1, 60152, Note_off_c, 1, 50, 0
1, 60167, Note_off_c, 1, 57, 0
1, 60167, Note_off_c, 1, 60, 0
1, 60180, Note_on_c, 1, 59, 127
1, 60180, Note_on_c, 1, 62, 127
1, 60290, Note_off_c, 1, 59, 0
1, 60290, Note_off_c, 1, 62, 0
1, 60311, Note_on_c, 1, 65, 127
1, 60311, Note_on_c, 1, 48, 127
1, 60311, Note_on_c, 1, 55, 127
1, 60311, Note_on_c, 1, 58, 127
1, 60582, Note_on_c, 1, 64, 127
1, 60591, Note_off_c, 1, 65, 0
1, 60632, Note_off_c, 1, 64, 0
1, 61975, Note_on_c, 1, 60, 127
1, 62080, Note_off_c, 1, 60, 0
1, 62084, Note_on_c, 1, 62, 127
1, 62189, Note_off_c, 1, 62, 0
1, 62411, Note_on_c, 1, 67, 127
1, 62516, Note_off_c, 1, 67, 0
1, 62520, Note_on_c, 1, 68, 127
1, 62625, Note_off_c, 1, 68, 0
1, 62630, Note_on_c, 1, 70, 127
1, 62735, Note_off_c, 1, 70, 0
1, 62739, Note_on_c, 1, 72, 127
1, 62844, Note_off_c, 1, 72, 0
1, 62916, Note_off_c, 1, 48, 0
1, 62916, Note_off_c, 1, 55, 0
1, 62916, Note_off_c, 1, 58, 0
1, 62957, Note_on_c, 1, 68, 127
1, 63062, Note_off_c, 1, 68, 0
1, 63066, Note_on_c, 1, 67, 127
1, 63171, Note_off_c, 1, 67, 0
1, 63175, Note_on_c, 1, 65, 127
1, 63389, Note_off_c, 1, 65, 0
1, 63393, Note_on_c, 1, 67, 127
1, 63498, Note_off_c, 1, 67, 0
1, 63503, Note_on_c, 1, 64, 127
1, 63608, Note_off_c, 1, 64, 0
1, 63612, Note_on_c, 1, 65, 127
1, 63612, Note_on_c, 1, 60, 127
1, 63612, Note_on_c, 1, 48, 127
1, 63612, Note_on_c, 1, 53, 127
1, 63612, Note_on_c, 1, 56, 127
1, 63662, Note_off_c, 1, 65, 0
1, 63666, Note_on_c, 1, 64, 127
1, 63716, Note_off_c, 1, 64, 0
1, 64550, Note_on_c, 1, 67, 127
1, 64578, Note_off_c, 1, 60, 0
1, 64674, Note_off_c, 1, 67, 0
1, 65149, Note_on_c, 1, 68, 127
1, 65263, Note_off_c, 1, 68, 0
1, 65503, Note_on_c, 1, 63, 127
1, 65617, Note_off_c, 1, 63, 0
1, 65621, Note_on_c, 1, 62, 127
1, 65735, Note_off_c, 1, 62, 0
1, 65985, Note_off_c, 1, 48, 0
1, 65985, Note_off_c, 1, 53, 0
1, 65985, Note_off_c, 1, 56, 0
1, 66092, Note_on_c, 1, 63, 127
1, 66206, Note_off_c, 1, 63, 0
1, 66210, Note_on_c, 1, 65, 127
1, 66324, Note_off_c, 1, 65, 0
1, 66327, Note_on_c, 1, 59, 127
1, 66530, Note_on_c, 1, 36, 127
1, 66648, Note_on_c, 1, 47, 127
1, 66765, Note_on_c, 1, 50, 127
1, 66879, Note_off_c, 1, 50, 0
1, 66883, Note_on_c, 1, 53, 127
1, 66914, Note_off_c, 1, 59, 0
1, 66997, Note_off_c, 1, 53, 0
1, 67001, Note_on_c, 1, 56, 127
1, 67115, Note_off_c, 1, 56, 0
1, 67119, Note_on_c, 1, 55, 127
1, 67233, Note_off_c, 1, 55, 0
1, 67590, Note_on_c, 1, 62, 127
1, 67810, Note_off_c, 1, 62, 0
1, 68222, Note_off_c, 1, 36, 0
1, 68230, Note_off_c, 1, 47, 0
1, 68296, Note_on_c, 1, 52, 127
1, 68296, Note_on_c, 1, 36, 127
1, 68413, Note_on_c, 1, 61, 127
1, 68527, Note_off_c, 1, 61, 0
1, 68531, Note_on_c, 1, 58, 127
1, 68645, Note_off_c, 1, 58, 0
1, 68649, Note_on_c, 1, 55, 127
1, 68737, Note_off_c, 1, 52, 0
1, 68763, Note_off_c, 1, 55, 0
1, 68767, Note_on_c, 1, 60, 127
1, 68881, Note_off_c, 1, 60, 0
1, 68885, Note_on_c, 1, 56, 127
1, 68999, Note_off_c, 1, 56, 0
1, 69002, Note_on_c, 1, 53, 127
1, 69116, Note_off_c, 1, 53, 0
1, 69945, Note_on_c, 1, 50, 127
1, 70060, Note_off_c, 1, 50, 0
1, 70540, Note_on_c, 1, 48, 127
1, 70655, Note_off_c, 1, 48, 0
1, 70882, Note_off_c, 1, 36, 0
1, 70897, Note_on_c, 1, 47, 127
1, 71012, Note_off_c, 1, 47, 0
1, 71016, Note_on_c, 1, 50, 127
1, 71152, Note_off_c, 1, 50, 0
1, 71181, Note_on_c, 1, 36, 127
1, 71347, Note_on_c, 1, 43, 127
1, 71488, Note_on_c, 1, 48, 127
1, 71630, Note_on_c, 1, 50, 127
1, 71766, Note_off_c, 1, 50, 0
1, 71771, Note_on_c, 1, 52, 127
1, 71912, Note_on_c, 1, 55, 127
1, 72048, Note_off_c, 1, 55, 0
1, 72054, Note_on_c, 1, 58, 127
1, 72167, Note_off_c, 1, 52, 0
1, 72190, Note_off_c, 1, 58, 0
1, 72336, Note_on_c, 1, 56, 127
1, 72478, Note_on_c, 1, 60, 127
1, 72614, Note_off_c, 1, 60, 0
1, 72619, Note_on_c, 1, 65, 127
1, 72732, Note_off_c, 1, 56, 0
1, 72755, Note_off_c, 1, 65, 0
1, 72760, Note_on_c, 1, 62, 127
1, 72896, Note_off_c, 1, 62, 0
1, 73043, Note_on_c, 1, 68, 127
1, 73180, Note_off_c, 1, 68, 0
1, 73186, Note_on_c, 1, 72, 127
1, 73362, Note_off_c, 1, 72, 0
1, 73363, Note_on_c, 1, 71, 127
1, 73562, Note_off_c, 1, 71, 0
1, 73948, Note_on_c, 1, 67, 127
1, 74328, Note_off_c, 1, 67, 0
1, 75090, Note_on_c, 1, 64, 127
1, 75099, Note_off_c, 1, 43, 0
1, 77319, Note_off_c, 1, 36, 0
1, 77329, Note_off_c, 1, 48, 0
1, 77333, Note_off_c, 1, 64, 0
1, 78399, Note_on_c, 1, 72, 127
1, 78565, Note_off_c, 1, 72, 0
1, 78566, Note_on_c, 1, 71, 127
1, 78732, Note_off_c, 1, 71, 0
1, 78734, Note_on_c, 1, 72, 127
1, 79068, Note_off_c, 1, 72, 0
1, 79070, Note_on_c, 1, 67, 127
1, 79350, Note_off_c, 1, 67, 0
1, 79406, Note_on_c, 1, 68, 127
1, 79740, Note_off_c, 1, 68, 0
1, 79742, Note_on_c, 1, 72, 127
1, 79908, Note_off_c, 1, 72, 0
1, 79909, Note_on_c, 1, 71, 127
1, 80075, Note_off_c, 1, 71, 0
1, 80076, Note_on_c, 1, 72, 127
1, 80410, Note_off_c, 1, 72, 0
1, 80412, Note_on_c, 1, 74, 127
1, 80697, Note_off_c, 1, 74, 0
1, 80749, Note_on_c, 1, 67, 127
1, 81083, Note_off_c, 1, 67, 0
1, 81085, Note_on_c, 1, 72, 127
1, 81251, Note_off_c, 1, 72, 0
1, 81252, Note_on_c, 1, 71, 127
1, 81418, Note_off_c, 1, 71, 0
1, 81419, Note_on_c, 1, 72, 127
1, 81753, Note_off_c, 1, 72, 0
1, 81755, Note_on_c, 1, 74, 127
1, 82045, Note_off_c, 1, 74, 0
1, 82091, Note_on_c, 1, 65, 127
1, 82257, Note_off_c, 1, 65, 0
1, 82259, Note_on_c, 1, 67, 127
1, 82426, Note_on_c, 1, 68, 127
1, 82432, Note_off_c, 1, 67, 0
1, 82498, Note_off_c, 1, 68, 0
1, 83266, Note_on_c, 1, 65, 127
1, 83428, Note_off_c, 1, 65, 0
1, 83434, Note_on_c, 1, 63, 127
1, 83600, Note_off_c, 1, 63, 0
1, 83602, Note_on_c, 1, 72, 127
1, 83768, Note_off_c, 1, 72, 0
1, 83769, Note_on_c, 1, 71, 127
1, 83769, Note_on_c, 1, 79, 127
1, 83935, Note_off_c, 1, 71, 0
1, 83935, Note_off_c, 1, 79, 0
1, 83937, Note_on_c, 1, 69, 127
1, 83937, Note_on_c, 1, 78, 127
1, 84103, Note_off_c, 1, 69, 0
1, 84103, Note_off_c, 1, 78, 0
1, 84104, Note_on_c, 1, 67, 127
1, 84104, Note_on_c, 1, 79, 127
1, 84270, Note_off_c, 1, 67, 0
1, 84271, Note_on_c, 1, 65, 127
1, 84437, Note_off_c, 1, 79, 0
1, 84437, Note_off_c, 1, 65, 0
1, 84439, Note_on_c, 1, 63, 127
1, 84439, Note_on_c, 1, 72, 127
1, 84605, Note_off_c, 1, 63, 0
1, 84606, Note_on_c, 1, 62, 127
1, 84659, Note_off_c, 1, 72, 0
1, 84772, Note_off_c, 1, 62, 0
1, 84774, Note_on_c, 1, 60, 127
1, 84774, Note_on_c, 1, 75, 127
1, 85108, Note_off_c, 1, 60, 0
1, 85108, Note_off_c, 1, 75, 0
1, 85110, Note_on_c, 1, 79, 127
1, 85110, Note_on_c, 1, 75, 127
1, 85276, Note_off_c, 1, 79, 0
1, 85277, Note_on_c, 1, 78, 127
1, 85443, Note_off_c, 1, 75, 0
1, 85443, Note_off_c, 1, 78, 0
1, 85444, Note_on_c, 1, 74, 127
1, 85444, Note_on_c, 1, 79, 127
1, 85778, Note_off_c, 1, 74, 0
1, 85778, Note_off_c, 1, 79, 0
1, 85780, Note_on_c, 1, 81, 127
1, 85780, Note_on_c, 1, 72, 127
1, 86020, Note_off_c, 1, 81, 0
1, 86114, Note_off_c, 1, 72, 0
1, 86116, Note_on_c, 1, 70, 127
1, 86116, Note_on_c, 1, 74, 127
1, 86450, Note_off_c, 1, 70, 0
1, 86450, Note_off_c, 1, 74, 0
1, 86453, Note_on_c, 1, 79, 127
1, 86453, Note_on_c, 1, 69, 127
1, 86619, Note_off_c, 1, 79, 0
1, 86620, Note_on_c, 1, 78, 127
1, 86786, Note_off_c, 1, 69, 0
1, 86786, Note_off_c, 1, 78, 0
1, 86787, Note_on_c, 1, 70, 127
1, 86787, Note_on_c, 1, 79, 127
1, 87121, Note_off_c, 1, 70, 0
1, 87121, Note_off_c, 1, 79, 0
1, 87123, Note_on_c, 1, 81, 127
1, 87123, Note_on_c, 1, 72, 127
1, 87423, Note_off_c, 1, 81, 0
1, 87457, Note_off_c, 1, 72, 0
1, 87459, Note_on_c, 1, 72, 127
1, 87459, Note_on_c, 1, 66, 127
1, 87625, Note_off_c, 1, 72, 0
1, 87627, Note_on_c, 1, 74, 127
1, 87792, Note_off_c, 1, 66, 0
1, 87793, Note_off_c, 1, 74, 0
1, 87794, Note_on_c, 1, 72, 127
1, 87794, Note_on_c, 1, 67, 127
1, 87875, Note_off_c, 1, 72, 0
1, 87877, Note_on_c, 1, 74, 127
1, 87958, Note_off_c, 1, 74, 0
1, 87960, Note_on_c, 1, 75, 127
1, 88126, Note_off_c, 1, 67, 0
1, 88128, Note_on_c, 1, 69, 127
1, 88462, Note_off_c, 1, 69, 0
1, 88464, Note_on_c, 1, 66, 127
1, 88469, Note_off_c, 1, 75, 0
1, 88797, Note_off_c, 1, 66, 0
1, 88799, Note_on_c, 1, 70, 127
1, 88799, Note_on_c, 1, 67, 127
1, 89133, Note_off_c, 1, 70, 0
1, 89135, Note_on_c, 1, 75, 127
1, 89288, Note_off_c, 1, 67, 0
1, 89301, Note_off_c, 1, 75, 0
1, 89302, Note_on_c, 1, 74, 127
1, 89468, Note_off_c, 1, 74, 0
1, 89469, Note_on_c, 1, 75, 127
1, 89638, Note_on_c, 1, 60, 127
1, 89739, Note_off_c, 1, 75, 0
1, 89804, Note_off_c, 1, 60, 0
1, 89805, Note_on_c, 1, 62, 127
1, 89805, Note_on_c, 1, 67, 127
1, 89971, Note_off_c, 1, 62, 0
1, 89973, Note_on_c, 1, 63, 127
1, 90138, Note_off_c, 1, 67, 0
1, 90139, Note_off_c, 1, 63, 0
1, 90140, Note_on_c, 1, 65, 127
1, 90140, Note_on_c, 1, 68, 127
1, 90306, Note_off_c, 1, 65, 0
1, 90308, Note_on_c, 1, 67, 127
1, 90473, Note_off_c, 1, 68, 0
1, 90474, Note_off_c, 1, 67, 0
1, 90475, Note_on_c, 1, 77, 127
1, 90475, Note_on_c, 1, 68, 127
1, 90641, Note_off_c, 1, 77, 0
1, 90642, Note_on_c, 1, 75, 127
1, 90808, Note_off_c, 1, 75, 0
1, 90894, Note_off_c, 1, 68, 0
1, 90979, Note_on_c, 1, 62, 127
1, 91145, Note_off_c, 1, 62, 0
1, 91146, Note_on_c, 1, 63, 127
1, 91146, Note_on_c, 1, 69, 127
1, 91312, Note_off_c, 1, 63, 0
1, 91313, Note_on_c, 1, 65, 127
1, 91479, Note_off_c, 1, 69, 0
1, 91479, Note_off_c, 1, 65, 0
1, 91481, Note_on_c, 1, 67, 127
1, 91481, Note_on_c, 1, 70, 127
1, 91647, Note_off_c, 1, 67, 0
1, 91648, Note_on_c, 1, 69, 127
1, 91814, Note_off_c, 1, 70, 0
1, 91814, Note_off_c, 1, 69, 0
1, 91816, Note_on_c, 1, 79, 127
1, 91816, Note_on_c, 1, 70, 127
1, 91982, Note_off_c, 1, 79, 0
1, 91983, Note_on_c, 1, 77, 127
1, 92149, Note_off_c, 1, 77, 0
1, 92235, Note_off_c, 1, 70, 0
1, 92319, Note_on_c, 1, 63, 127
1, 92485, Note_off_c, 1, 63, 0
1, 92486, Note_on_c, 1, 65, 127
1, 92486, Note_on_c, 1, 71, 127
1, 92652, Note_off_c, 1, 65, 0
1, 92654, Note_on_c, 1, 67, 127
1, 92819, Note_off_c, 1, 71, 0
1, 92820, Note_off_c, 1, 67, 0
1, 92821, Note_on_c, 1, 72, 127
1, 92821, Note_on_c, 1, 68, 127
1, 92902, Note_off_c, 1, 72, 0
1, 92904, Note_on_c, 1, 71, 127
1, 92985, Note_off_c, 1, 68, 0
1, 92985, Note_off_c, 1, 71, 0
1, 92987, Note_on_c, 1, 67, 127
1, 92987, Note_on_c, 1, 72, 127
1, 93153, Note_off_c, 1, 67, 0
1, 93153, Note_off_c, 1, 72, 0
1, 93155, Note_on_c, 1, 65, 127
1, 93155, Note_on_c, 1, 74, 127
1, 93321, Note_off_c, 1, 65, 0
1, 93321, Note_off_c, 1, 74, 0
1, 93322, Note_on_c, 1, 63, 127
1, 93322, Note_on_c, 1, 75, 127
1, 93488, Note_off_c, 1, 63, 0
1, 93488, Note_off_c, 1, 75, 0
1, 93490, Note_on_c, 1, 62, 127
1, 93490, Note_on_c, 1, 77, 127
1, 93824, Note_off_c, 1, 62, 0
1, 93826, Note_on_c, 1, 72, 127
1, 93992, Note_off_c, 1, 72, 0
1, 93993, Note_on_c, 1, 71, 127
1, 94159, Note_off_c, 1, 71, 0
1, 94496, Note_on_c, 1, 60, 127
1, 94496, Note_on_c, 1, 75, 127
1, 94506, Note_off_c, 1, 77, 0
1, 94662, Note_off_c, 1, 60, 0
1, 94664, Note_on_c, 1, 59, 127
1, 94664, Note_on_c, 1, 74, 127
1, 94673, Note_off_c, 1, 75, 0
1, 94830, Note_off_c, 1, 59, 0
1, 94830, Note_off_c, 1, 74, 0
1, 94831, Note_on_c, 1, 72, 127
1, 94831, Note_on_c, 1, 60, 127
1, 94997, Note_off_c, 1, 72, 0
1, 94999, Note_on_c, 1, 70, 127
1, 95164, Note_off_c, 1, 60, 0
1, 95165, Note_off_c, 1, 70, 0
1, 95166, Note_on_c, 1, 68, 127
1, 95166, Note_on_c, 1, 55, 127
1, 95332, Note_off_c, 1, 68, 0
1, 95333, Note_on_c, 1, 67, 127
1, 95456, Note_off_c, 1, 55, 0
1, 95499, Note_off_c, 1, 67, 0
1, 95501, Note_on_c, 1, 56, 127
1, 95501, Note_on_c, 1, 65, 127
1, 95835, Note_off_c, 1, 56, 0
1, 95835, Note_off_c, 1, 65, 0
1, 95837, Note_on_c, 1, 60, 127
1, 95837, Note_on_c, 1, 77, 127
1, 95837, Note_on_c, 1, 80, 127
1, 96003, Note_off_c, 1, 60, 0
1, 96004, Note_on_c, 1, 59, 127
1, 96170, Note_off_c, 1, 77, 0
1, 96170, Note_off_c, 1, 80, 0
1, 96170, Note_off_c, 1, 59, 0
1, 96172, Note_on_c, 1, 60, 127
1, 96172, Note_on_c, 1, 75, 127
1, 96172, Note_on_c, 1, 79, 127
1, 96506, Note_off_c, 1, 60, 0
1, 96506, Note_off_c, 1, 75, 0
1, 96506, Note_off_c, 1, 79, 0
1, 96508, Note_on_c, 1, 62, 127
1, 96508, Note_on_c, 1, 74, 127
1, 96508, Note_on_c, 1, 77, 127
1, 96798, Note_off_c, 1, 62, 0
1, 96840, Note_off_c, 1, 74, 0
1, 96841, Note_off_c, 1, 77, 0
1, 96842, Note_on_c, 1, 55, 127
1, 96842, Note_on_c, 1, 75, 127
1, 97176, Note_off_c, 1, 55, 0
1, 97176, Note_off_c, 1, 75, 0
1, 97179, Note_on_c, 1, 60, 127
1, 97179, Note_on_c, 1, 68, 127
1, 97179, Note_on_c, 1, 74, 127
1, 97345, Note_off_c, 1, 60, 0
1, 97346, Note_on_c, 1, 59, 127
1, 97512, Note_off_c, 1, 68, 0
1, 97512, Note_off_c, 1, 74, 0
1, 97512, Note_off_c, 1, 59, 0
1, 97513, Note_on_c, 1, 60, 127
1, 97513, Note_on_c, 1, 67, 127
1, 97513, Note_on_c, 1, 75, 127
1, 97847, Note_off_c, 1, 60, 0
1, 97847, Note_off_c, 1, 67, 0
1, 97847, Note_off_c, 1, 75, 0
1, 97849, Note_on_c, 1, 62, 127
1, 97849, Note_on_c, 1, 65, 127
1, 97849, Note_on_c, 1, 77, 127
1, 98139, Note_off_c, 1, 62, 0
1, 98183, Note_off_c, 1, 65, 0
1, 98183, Note_off_c, 1, 77, 0
1, 98185, Note_on_c, 1, 53, 127
1, 98185, Note_on_c, 1, 67, 127
1, 98185, Note_on_c, 1, 71, 127
1, 98351, Note_off_c, 1, 53, 0
1, 98353, Note_on_c, 1, 55, 127
1, 98518, Note_off_c, 1, 67, 0
1, 98518, Note_off_c, 1, 71, 0
1, 98519, Note_off_c, 1, 55, 0
1, 98520, Note_on_c, 1, 65, 127
1, 98520, Note_on_c, 1, 72, 127
1, 98520, Note_on_c, 1, 56, 127
1, 98686, Note_off_c, 1, 65, 0
1, 98688, Note_on_c, 1, 63, 127
1, 98853, Note_off_c, 1, 72, 0
1, 98854, Note_off_c, 1, 63, 0
1, 98855, Note_on_c, 1, 74, 127
1, 99189, Note_off_c, 1, 56, 0
1, 99189, Note_off_c, 1, 74, 0
1, 99191, Note_on_c, 1, 72, 127
1, 99191, Note_on_c, 1, 55, 127
1, 99191, Note_on_c, 1, 62, 127
1, 99272, Note_off_c, 1, 72, 0
1, 99274, Note_on_c, 1, 71, 127
1, 99355, Note_off_c, 1, 55, 0
1, 99355, Note_off_c, 1, 71, 0
1, 99357, Note_on_c, 1, 69, 127
1, 99357, Note_on_c, 1, 53, 127
1, 99438, Note_off_c, 1, 69, 0
1, 99521, Note_off_c, 1, 53, 0
1, 99522, Note_off_c, 1, 62, 0
1, 99523, Note_on_c, 1, 51, 127
1, 99523, Note_on_c, 1, 72, 127
1, 99523, Note_on_c, 1, 67, 127
1, 99689, Note_off_c, 1, 51, 0
1, 99691, Note_on_c, 1, 60, 127
1, 99856, Note_off_c, 1, 72, 0
1, 99857, Note_off_c, 1, 60, 0
1, 99858, Note_on_c, 1, 59, 127
1, 99858, Note_on_c, 1, 79, 127
1, 100024, Note_off_c, 1, 59, 0
1, 100024, Note_off_c, 1, 79, 0
1, 100026, Note_on_c, 1, 57, 127
1, 100026, Note_on_c, 1, 78, 127
1, 100192, Note_off_c, 1, 57, 0
1, 100192, Note_off_c, 1, 78, 0
1, 100193, Note_on_c, 1, 55, 127
1, 100359, Note_off_c, 1, 55, 0
1, 100360, Note_off_c, 1, 67, 0
1, 100360, Note_on_c, 1, 53, 127
1, 100526, Note_off_c, 1, 53, 0
1, 100528, Note_on_c, 1, 51, 127
1, 100528, Note_on_c, 1, 71, 127
1, 100528, Note_on_c, 1, 74, 127
1, 100694, Note_off_c, 1, 51, 0
1, 100695, Note_on_c, 1, 50, 127
1, 100861, Note_off_c, 1, 71, 0
1, 100861, Note_off_c, 1, 74, 0
1, 100861, Note_off_c, 1, 50, 0
1, 100863, Note_on_c, 1, 48, 127
1, 100863, Note_on_c, 1, 72, 127
1, 100863, Note_on_c, 1, 75, 127
1, 101029, Note_off_c, 1, 48, 0
1, 101030, Note_on_c, 1, 50, 127
1, 101196, Note_off_c, 1, 72, 0
1, 101196, Note_off_c, 1, 50, 0
1, 101197, Note_on_c, 1, 51, 127
1, 101363, Note_off_c, 1, 51, 0
1, 101365, Note_on_c, 1, 71, 127
1, 101531, Note_off_c, 1, 71, 0
1, 101700, Note_off_c, 1, 75, 0
1, 101700, Note_on_c, 1, 46, 127
1, 101866, Note_off_c, 1, 46, 0
1, 101867, Note_on_c, 1, 44, 127
1, 101867, Note_on_c, 1, 67, 127
1, 101867, Note_on_c, 1, 76, 127
1, 102033, Note_off_c, 1, 44, 0
1, 102034, Note_on_c, 1, 43, 127
1, 102200, Note_off_c, 1, 67, 0
1, 102200, Note_off_c, 1, 76, 0
1, 102200, Note_off_c, 1, 43, 0
1, 102202, Note_on_c, 1, 41, 127
1, 102202, Note_on_c, 1, 77, 127
1, 102202, Note_on_c, 1, 68, 127
1, 102368, Note_off_c, 1, 41, 0
1, 102369, Note_on_c, 1, 58, 127
1, 102535, Note_off_c, 1, 77, 0
1, 102535, Note_off_c, 1, 58, 0
1, 102537, Note_on_c, 1, 56, 127
1, 102703, Note_off_c, 1, 56, 0
1, 102704, Note_on_c, 1, 55, 127
1, 102704, Note_on_c, 1, 76, 127
1, 102870, Note_off_c, 1, 55, 0
1, 102870, Note_off_c, 1, 76, 0
1, 102871, Note_on_c, 1, 53, 127
1, 103037, Note_off_c, 1, 53, 0
1, 103039, Note_off_c, 1, 68, 0
1, 103039, Note_on_c, 1, 51, 127
1, 103205, Note_off_c, 1, 51, 0
1, 103206, Note_on_c, 1, 50, 127
1, 103206, Note_on_c, 1, 69, 127
1, 103206, Note_on_c, 1, 72, 127
1, 103372, Note_off_c, 1, 50, 0
1, 103374, Note_on_c, 1, 48, 127
1, 103539, Note_off_c, 1, 69, 0
1, 103539, Note_off_c, 1, 72, 0
1, 103540, Note_off_c, 1, 48, 0
1, 103541, Note_on_c, 1, 46, 127
1, 103541, Note_on_c, 1, 70, 127
1, 103541, Note_on_c, 1, 74, 127
1, 103707, Note_off_c, 1, 46, 0
1, 103708, Note_on_c, 1, 48, 127
1, 103874, Note_off_c, 1, 70, 0
1, 103874, Note_off_c, 1, 48, 0
1, 103876, Note_on_c, 1, 50, 127
1, 104042, Note_off_c, 1, 50, 0
1, 104043, Note_on_c, 1, 69, 127
1, 104209, Note_off_c, 1, 69, 0
1, 104378, Note_off_c, 1, 74, 0
1, 104378, Note_on_c, 1, 44, 127
1, 104544, Note_off_c, 1, 44, 0
1, 104545, Note_on_c, 1, 43, 127
1, 104545, Note_on_c, 1, 65, 127
1, 104545, Note_on_c, 1, 74, 127
1, 104711, Note_off_c, 1, 43, 0
1, 104713, Note_on_c, 1, 41, 127
1, 104878, Note_off_c, 1, 65, 0
1, 104878, Note_off_c, 1, 74, 0
1, 104879, Note_off_c, 1, 41, 0
1, 104880, Note_on_c, 1, 39, 127
1, 104880, Note_on_c, 1, 75, 127
1, 104880, Note_on_c, 1, 67, 127
1, 105046, Note_off_c, 1, 39, 0
1, 105048, Note_on_c, 1, 56, 127
1, 105213, Note_off_c, 1, 75, 0
1, 105214, Note_off_c, 1, 56, 0
1, 105215, Note_on_c, 1, 55, 127
1, 105381, Note_off_c, 1, 55, 0
1, 105382, Note_on_c, 1, 53, 127
1, 105382, Note_on_c, 1, 74, 127
1, 105548, Note_off_c, 1, 53, 0
1, 105548, Note_off_c, 1, 74, 0
1, 105550, Note_on_c, 1, 51, 127
1, 105716, Note_off_c, 1, 51, 0
1, 105717, Note_off_c, 1, 67, 0
1, 105717, Note_on_c, 1, 49, 127
1, 105883, Note_off_c, 1, 49, 0
1, 105885, Note_on_c, 1, 48, 127
1, 105885, Note_on_c, 1, 67, 127
1, 105885, Note_on_c, 1, 70, 127
1, 106051, Note_off_c, 1, 48, 0
1, 106052, Note_on_c, 1, 46, 127
1, 106218, Note_off_c, 1, 67, 0
1, 106218, Note_off_c, 1, 70, 0
1, 106218, Note_off_c, 1, 46, 0
1, 106219, Note_on_c, 1, 44, 127
1, 106219, Note_on_c, 1, 68, 127
1, 106219, Note_on_c, 1, 72, 127
1, 106553, Note_off_c, 1, 44, 0
1, 106553, Note_off_c, 1, 68, 0
1, 106553, Note_off_c, 1, 72, 0
1, 106555, Note_on_c, 1, 75, 127
1, 106555, Note_on_c, 1, 60, 127
1, 106555, Note_on_c, 1, 68, 127
1, 106721, Note_off_c, 1, 75, 0
1, 106723, Note_on_c, 1, 74, 127
1, 106888, Note_off_c, 1, 60, 0
1, 106888, Note_off_c, 1, 68, 0
1, 106889, Note_off_c, 1, 74, 0
1, 106890, Note_on_c, 1, 58, 127
1, 106890, Note_on_c, 1, 67, 127
1, 106890, Note_on_c, 1, 75, 127
1, 107224, Note_off_c, 1, 58, 0
1, 107224, Note_off_c, 1, 67, 0
1, 107224, Note_off_c, 1, 75, 0
1, 107226, Note_on_c, 1, 77, 127
1, 107226, Note_on_c, 1, 65, 127
1, 107226, Note_on_c, 1, 56, 127
1, 107496, Note_off_c, 1, 77, 0
1, 107558, Note_off_c, 1, 65, 0
1, 107559, Note_off_c, 1, 56, 0
1, 107561, Note_on_c, 1, 55, 127
1, 107561, Note_on_c, 1, 70, 127
1, 107895, Note_off_c, 1, 55, 0
1, 107895, Note_off_c, 1, 70, 0
1, 107897, Note_on_c, 1, 75, 127
1, 107897, Note_on_c, 1, 53, 127
1, 107897, Note_on_c, 1, 56, 127
1, 108063, Note_off_c, 1, 75, 0
1, 108064, Note_on_c, 1, 74, 127
1, 108230, Note_off_c, 1, 53, 0
1, 108230, Note_off_c, 1, 56, 0
1, 108230, Note_off_c, 1, 74, 0
1, 108232, Note_on_c, 1, 55, 127
1, 108232, Note_on_c, 1, 58, 127
1, 108232, Note_on_c, 1, 75, 127
1, 108566, Note_off_c, 1, 55, 0
1, 108566, Note_off_c, 1, 58, 0
1, 108566, Note_off_c, 1, 75, 0
1, 108568, Note_on_c, 1, 77, 127
1, 108568, Note_on_c, 1, 56, 127
1, 108568, Note_on_c, 1, 60, 127
1, 108838, Note_off_c, 1, 77, 0
1, 108902, Note_off_c, 1, 56, 0
1, 108904, Note_on_c, 1, 68, 127
1, 108904, Note_on_c, 1, 50, 127
1, 109057, Note_off_c, 1, 60, 0
1, 109070, Note_off_c, 1, 68, 0
1, 109071, Note_on_c, 1, 70, 127
1, 109237, Note_off_c, 1, 50, 0
1, 109237, Note_off_c, 1, 70, 0
1, 109239, Note_on_c, 1, 68, 127
1, 109239, Note_on_c, 1, 56, 127
1, 109239, Note_on_c, 1, 51, 127
1, 109320, Note_off_c, 1, 68, 0
1, 109322, Note_on_c, 1, 70, 127
1, 109403, Note_off_c, 1, 56, 0
1, 109403, Note_off_c, 1, 70, 0
1, 109405, Note_on_c, 1, 55, 127
1, 109405, Note_on_c, 1, 72, 127
1, 109571, Note_off_c, 1, 51, 0
1, 109571, Note_off_c, 1, 55, 0
1, 109572, Note_on_c, 1, 53, 127
1, 109906, Note_off_c, 1, 53, 0
1, 109907, Note_off_c, 1, 72, 0
1, 109908, Note_on_c, 1, 70, 127
1, 109908, Note_on_c, 1, 50, 127
1, 109908, Note_on_c, 1, 53, 127
1, 110074, Note_off_c, 1, 70, 0
1, 110076, Note_on_c, 1, 68, 127
1, 110241, Note_off_c, 1, 50, 0
1, 110241, Note_off_c, 1, 53, 0
1, 110242, Note_off_c, 1, 68, 0
1, 110243, Note_on_c, 1, 67, 127
1, 110243, Note_on_c, 1, 51, 127
1, 110243, Note_on_c, 1, 58, 127
1, 110409, Note_off_c, 1, 67, 0
1, 110411, Note_on_c, 1, 63, 127
1, 110576, Note_off_c, 1, 51, 0
1, 110576, Note_off_c, 1, 58, 0
1, 110577, Note_off_c, 1, 63, 0
1, 110578, Note_on_c, 1, 65, 127
1, 110578, Note_on_c, 1, 56, 127
1, 110578, Note_on_c, 1, 60, 127
1, 110744, Note_off_c, 1, 65, 0
1, 110745, Note_on_c, 1, 67, 127
1, 110911, Note_off_c, 1, 56, 0
1, 110911, Note_off_c, 1, 60, 0
1, 110911, Note_off_c, 1, 67, 0
1, 110913, Note_on_c, 1, 68, 127
1, 110913, Note_on_c, 1, 55, 127
1, 110913, Note_on_c, 1, 58, 127
1, 111079, Note_off_c, 1, 68, 0
1, 111080, Note_on_c, 1, 70, 127
1, 111246, Note_off_c, 1, 55, 0
1, 111246, Note_off_c, 1, 58, 0
1, 111246, Note_off_c, 1, 70, 0
1, 111248, Note_on_c, 1, 72, 127
1, 111248, Note_on_c, 1, 53, 127
1, 111248, Note_on_c, 1, 56, 127
1, 111414, Note_off_c, 1, 72, 0
1, 111415, Note_on_c, 1, 74, 127
1, 111581, Note_off_c, 1, 53, 0
1, 111581, Note_off_c, 1, 56, 0
1, 111581, Note_off_c, 1, 74, 0
1, 111582, Note_on_c, 1, 75, 127
1, 111582, Note_on_c, 1, 55, 127
1, 111582, Note_on_c, 1, 58, 127
1, 111748, Note_off_c, 1, 75, 0
1, 111750, Note_on_c, 1, 74, 127
1, 111896, Note_off_c, 1, 55, 0
1, 111896, Note_off_c, 1, 58, 0
1, 111917, Note_off_c, 1, 74, 0
1, 111918, Note_on_c, 1, 72, 127
1, 111918, Note_on_c, 1, 51, 127
1, 111918, Note_on_c, 1, 55, 127
1, 112084, Note_off_c, 1, 72, 0
1, 112086, Note_on_c, 1, 74, 127
1, 112251, Note_off_c, 1, 51, 0
1, 112251, Note_off_c, 1, 55, 0
1, 112252, Note_off_c, 1, 74, 0
1, 112253, Note_on_c, 1, 75, 127
1, 112253, Note_on_c, 1, 50, 127
1, 112253, Note_on_c, 1, 53, 127
1, 112419, Note_off_c, 1, 75, 0
1, 112421, Note_on_c, 1, 77, 127
1, 112586, Note_off_c, 1, 50, 0
1, 112586, Note_off_c, 1, 53, 0
1, 112587, Note_off_c, 1, 77, 0
1, 112588, Note_on_c, 1, 79, 127
1, 112588, Note_on_c, 1, 48, 127
1, 112588, Note_on_c, 1, 51, 127
1, 112754, Note_off_c, 1, 79, 0
1, 112755, Note_on_c, 1, 81, 127
1, 112921, Note_off_c, 1, 48, 0
1, 112921, Note_off_c, 1, 51, 0
1, 112921, Note_off_c, 1, 81, 0
1, 112923, Note_on_c, 1, 82, 127
1, 112923, Note_on_c, 1, 50, 127
1, 112923, Note_on_c, 1, 53, 127
1, 113089, Note_off_c, 1, 82, 0
1, 113090, Note_on_c, 1, 65, 127
1, 113219, Note_off_c, 1, 50, 0
1, 113219, Note_off_c, 1, 53, 0
1, 113256, Note_off_c, 1, 65, 0
1, 113258, Note_on_c, 1, 67, 127
1, 113258, Note_on_c, 1, 58, 127
1, 113258, Note_on_c, 1, 61, 127
1, 113424, Note_off_c, 1, 67, 0
1, 113425, Note_on_c, 1, 68, 127
1, 113591, Note_off_c, 1, 58, 0
1, 113591, Note_off_c, 1, 61, 0
1, 113591, Note_off_c, 1, 68, 0
1, 113592, Note_on_c, 1, 70, 127
1, 113592, Note_on_c, 1, 56, 127
1, 113592, Note_on_c, 1, 60, 127
1, 113758, Note_off_c, 1, 70, 0
1, 113760, Note_on_c, 1, 72, 127
1, 113925, Note_off_c, 1, 56, 0
1, 113925, Note_off_c, 1, 60, 0
1, 113926, Note_off_c, 1, 72, 0
1, 113927, Note_on_c, 1, 74, 127
1, 113927, Note_on_c, 1, 55, 127
1, 113927, Note_on_c, 1, 58, 127
1, 114093, Note_off_c, 1, 74, 0
1, 114095, Note_on_c, 1, 76, 127
1, 114260, Note_off_c, 1, 55, 0
1, 114260, Note_off_c, 1, 58, 0
1, 114261, Note_off_c, 1, 76, 0
1, 114262, Note_on_c, 1, 77, 127
1, 114262, Note_on_c, 1, 56, 127
1, 114262, Note_on_c, 1, 60, 127
1, 114428, Note_off_c, 1, 77, 0
1, 114429, Note_on_c, 1, 75, 127
1, 114576, Note_off_c, 1, 56, 0
1, 114576, Note_off_c, 1, 60, 0
1, 114596, Note_off_c, 1, 75, 0
1, 114598, Note_on_c, 1, 74, 127
1, 114598, Note_on_c, 1, 53, 127
1, 114598, Note_on_c, 1, 56, 127
1, 114764, Note_off_c, 1, 74, 0
1, 114765, Note_on_c, 1, 75, 127
1, 114931, Note_off_c, 1, 53, 0
1, 114931, Note_off_c, 1, 56, 0
1, 114931, Note_off_c, 1, 75, 0
1, 114933, Note_on_c, 1, 77, 127
1, 114933, Note_on_c, 1, 51, 127
1, 114933, Note_on_c, 1, 55, 127
1, 115099, Note_off_c, 1, 77, 0
1, 115100, Note_on_c, 1, 79, 127
1, 115266, Note_off_c, 1, 51, 0
1, 115266, Note_off_c, 1, 55, 0
1, 115266, Note_off_c, 1, 79, 0
1, 115268, Note_on_c, 1, 81, 127
1, 115268, Note_on_c, 1, 50, 127
1, 115268, Note_on_c, 1, 53, 127
1, 115434, Note_off_c, 1, 81, 0
1, 115435, Note_on_c, 1, 83, 127
1, 115601, Note_off_c, 1, 50, 0
1, 115601, Note_off_c, 1, 53, 0
1, 115601, Note_off_c, 1, 83, 0
1, 115602, Note_on_c, 1, 84, 127
1, 115602, Note_on_c, 1, 51, 127
1, 115602, Note_on_c, 1, 55, 127
1, 115935, Note_off_c, 1, 84, 0
1, 115937, Note_on_c, 1, 67, 127
1, 115937, Note_on_c, 1, 83, 127
1, 115944, Note_off_c, 1, 51, 0
1, 115944, Note_off_c, 1, 55, 0
1, 116103, Note_off_c, 1, 67, 0
1, 116103, Note_off_c, 1, 83, 0
1, 116105, Note_on_c, 1, 66, 127
1, 116105, Note_on_c, 1, 81, 127
1, 116271, Note_off_c, 1, 66, 0
1, 116271, Note_off_c, 1, 81, 0
1, 116272, Note_on_c, 1, 79, 127
1, 116272, Note_on_c, 1, 67, 127
1, 116438, Note_off_c, 1, 79, 0
1, 116439, Note_on_c, 1, 77, 127
1, 116605, Note_off_c, 1, 67, 0
1, 116605, Note_off_c, 1, 77, 0
1, 116607, Note_on_c, 1, 75, 127
1, 116607, Note_on_c, 1, 60, 127
1, 116773, Note_off_c, 1, 75, 0
1, 116774, Note_on_c, 1, 74, 127
1, 116940, Note_off_c, 1, 60, 0
1, 116940, Note_off_c, 1, 74, 0
1, 116942, Note_on_c, 1, 63, 127
1, 116942, Note_on_c, 1, 72, 127
1, 117276, Note_off_c, 1, 63, 0
1, 117276, Note_off_c, 1, 72, 0
1, 117278, Note_on_c, 1, 67, 127
1, 117278, Note_on_c, 1, 48, 127
1, 117278, Note_on_c, 1, 75, 127
1, 117444, Note_off_c, 1, 67, 0
1, 117445, Note_on_c, 1, 66, 127
1, 117611, Note_off_c, 1, 48, 0
1, 117611, Note_off_c, 1, 75, 0
1, 117611, Note_off_c, 1, 66, 0
1, 117612, Note_on_c, 1, 46, 127
1, 117612, Note_on_c, 1, 67, 127
1, 117612, Note_on_c, 1, 74, 127
1, 117946, Note_off_c, 1, 46, 0
1, 117946, Note_off_c, 1, 67, 0
1, 117946, Note_off_c, 1, 74, 0
1, 117949, Note_on_c, 1, 45, 127
1, 117949, Note_on_c, 1, 69, 127
1, 117949, Note_on_c, 1, 72, 127
1, 118281, Note_off_c, 1, 45, 0
1, 118282, Note_off_c, 1, 69, 0
1, 118282, Note_off_c, 1, 72, 0
1, 118283, Note_on_c, 1, 62, 127
1, 118283, Note_on_c, 1, 70, 127
1, 118617, Note_off_c, 1, 62, 0
1, 118617, Note_off_c, 1, 70, 0
1, 118619, Note_on_c, 1, 67, 127
1, 118619, Note_on_c, 1, 51, 127
1, 118619, Note_on_c, 1, 69, 127
1, 118785, Note_off_c, 1, 67, 0
1, 118787, Note_on_c, 1, 66, 127
1, 118952, Note_off_c, 1, 51, 0
1, 118952, Note_off_c, 1, 69, 0
1, 118953, Note_off_c, 1, 66, 0
1, 118954, Note_on_c, 1, 50, 127
1, 118954, Note_on_c, 1, 67, 127
1, 118954, Note_on_c, 1, 70, 127
1, 119288, Note_off_c, 1, 50, 0
1, 119288, Note_off_c, 1, 67, 0
1, 119288, Note_off_c, 1, 70, 0
1, 119290, Note_on_c, 1, 48, 127
1, 119290, Note_on_c, 1, 69, 127
1, 119290, Note_on_c, 1, 72, 127
1, 119624, Note_off_c, 1, 48, 0
1, 119624, Note_off_c, 1, 69, 0
1, 119624, Note_off_c, 1, 72, 0
1, 119626, Note_on_c, 1, 60, 127
1, 119626, Note_on_c, 1, 50, 127
1, 119626, Note_on_c, 1, 66, 127
1, 119792, Note_off_c, 1, 60, 0
1, 119794, Note_on_c, 1, 62, 127
1, 119959, Note_off_c, 1, 50, 0
1, 119959, Note_off_c, 1, 66, 0
1, 119960, Note_off_c, 1, 62, 0
1, 119961, Note_on_c, 1, 60, 127
1, 119961, Note_on_c, 1, 48, 127
1, 119961, Note_on_c, 1, 67, 127
1, 120042, Note_off_c, 1, 60, 0
1, 120044, Note_on_c, 1, 62, 127
1, 120125, Note_off_c, 1, 48, 0
1, 120125, Note_off_c, 1, 62, 0
1, 120127, Note_on_c, 1, 46, 127
1, 120127, Note_on_c, 1, 63, 127
1, 120293, Note_off_c, 1, 67, 0
1, 120293, Note_off_c, 1, 46, 0
1, 120295, Note_on_c, 1, 69, 127
1, 120629, Note_off_c, 1, 63, 0
1, 120629, Note_off_c, 1, 69, 0
1, 120631, Note_on_c, 1, 62, 127
1, 120631, Note_on_c, 1, 50, 127
1, 120631, Note_on_c, 1, 66, 127
1, 120797, Note_off_c, 1, 62, 0
1, 120798, Note_on_c, 1, 60, 127
1, 120964, Note_off_c, 1, 50, 0
1, 120964, Note_off_c, 1, 66, 0
1, 120964, Note_off_c, 1, 60, 0
1, 120965, Note_on_c, 1, 58, 127
1, 120965, Note_on_c, 1, 43, 127
1, 120965, Note_on_c, 1, 67, 127
1, 121297, Note_off_c, 1, 58, 0
1, 121298, Note_off_c, 1, 43, 0
1, 121298, Note_off_c, 1, 67, 0
1, 121300, Note_on_c, 1, 58, 127
1, 121300, Note_on_c, 1, 74, 127
1, 121466, Note_off_c, 1, 58, 0
1, 121466, Note_off_c, 1, 74, 0
1, 121468, Note_on_c, 1, 57, 127
1, 121468, Note_on_c, 1, 72, 127
1, 121634, Note_off_c, 1, 57, 0
1, 121634, Note_off_c, 1, 72, 0
1, 121635, Note_on_c, 1, 58, 127
1, 121635, Note_on_c, 1, 74, 127
1, 121804, Note_on_c, 1, 62, 127
1, 121969, Note_off_c, 1, 58, 0
1, 121970, Note_off_c, 1, 62, 0
1, 121971, Note_on_c, 1, 64, 127
1, 121971, Note_on_c, 1, 50, 127
1, 122137, Note_off_c, 1, 64, 0
1, 122138, Note_on_c, 1, 66, 127
1, 122304, Note_off_c, 1, 50, 0
1, 122304, Note_off_c, 1, 66, 0
1, 122306, Note_on_c, 1, 67, 127
1, 122306, Note_on_c, 1, 51, 127
1, 122472, Note_off_c, 1, 67, 0
1, 122473, Note_off_c, 1, 74, 0
1, 122473, Note_on_c, 1, 69, 127
1, 122639, Note_off_c, 1, 51, 0
1, 122639, Note_off_c, 1, 69, 0
1, 122641, Note_on_c, 1, 60, 127
1, 122641, Note_on_c, 1, 76, 127
1, 122641, Note_on_c, 1, 70, 127
1, 122807, Note_off_c, 1, 60, 0
1, 122807, Note_off_c, 1, 76, 0
1, 122808, Note_on_c, 1, 58, 127
1, 122808, Note_on_c, 1, 74, 127
1, 122974, Note_off_c, 1, 58, 0
1, 122974, Note_off_c, 1, 74, 0
1, 123141, Note_off_c, 1, 70, 0
1, 123143, Note_on_c, 1, 64, 127
1, 123309, Note_off_c, 1, 64, 0
1, 123310, Note_on_c, 1, 65, 127
1, 123310, Note_on_c, 1, 52, 127
1, 123476, Note_off_c, 1, 65, 0
1, 123478, Note_on_c, 1, 67, 127
1, 123643, Note_off_c, 1, 52, 0
1, 123644, Note_off_c, 1, 67, 0
1, 123645, Note_on_c, 1, 69, 127
1, 123645, Note_on_c, 1, 53, 127
1, 123811, Note_off_c, 1, 69, 0
1, 123812, Note_on_c, 1, 70, 127
1, 123978, Note_off_c, 1, 53, 0
1, 123978, Note_off_c, 1, 70, 0
1, 123980, Note_on_c, 1, 62, 127
1, 123980, Note_on_c, 1, 78, 127
1, 123980, Note_on_c, 1, 72, 127
1, 124146, Note_off_c, 1, 62, 0
1, 124146, Note_off_c, 1, 78, 0
1, 124147, Note_on_c, 1, 60, 127
1, 124147, Note_on_c, 1, 76, 127
1, 124313, Note_off_c, 1, 60, 0
1, 124313, Note_off_c, 1, 76, 0
1, 124480, Note_off_c, 1, 72, 0
1, 124482, Note_on_c, 1, 66, 127
1, 124648, Note_off_c, 1, 66, 0
1, 124649, Note_on_c, 1, 67, 127
1, 124649, Note_on_c, 1, 54, 127
1, 124815, Note_off_c, 1, 67, 0
1, 124817, Note_on_c, 1, 69, 127
1, 124982, Note_off_c, 1, 54, 0
1, 124983, Note_off_c, 1, 69, 0
1, 124984, Note_on_c, 1, 70, 127
1, 124984, Note_on_c, 1, 55, 127
1, 125318, Note_off_c, 1, 70, 0
1, 125320, Note_on_c, 1, 63, 127
1, 125320, Note_on_c, 1, 67, 127
1, 125486, Note_off_c, 1, 63, 0
1, 125486, Note_off_c, 1, 67, 0
1, 125488, Note_on_c, 1, 62, 127
1, 125488, Note_on_c, 1, 65, 127
1, 125654, Note_off_c, 1, 62, 0
1, 125654, Note_off_c, 1, 65, 0
1, 125752, Note_off_c, 1, 55, 0
1, 125823, Note_on_c, 1, 43, 127
1, 125989, Note_off_c, 1, 43, 0
1, 125990, Note_on_c, 1, 45, 127
1, 126156, Note_off_c, 1, 45, 0
1, 126157, Note_on_c, 1, 47, 127
1, 126323, Note_off_c, 1, 47, 0
1, 126325, Note_on_c, 1, 48, 127
1, 126325, Note_on_c, 1, 56, 127
1, 126491, Note_off_c, 1, 48, 0
1, 126492, Note_on_c, 1, 50, 127
1, 126658, Note_off_c, 1, 56, 0
1, 126658, Note_off_c, 1, 50, 0
1, 126660, Note_on_c, 1, 65, 127
1, 126660, Note_on_c, 1, 69, 127
1, 126660, Note_on_c, 1, 51, 127
1, 126826, Note_off_c, 1, 65, 0
1, 126826, Note_off_c, 1, 69, 0
1, 126827, Note_on_c, 1, 63, 127
1, 126827, Note_on_c, 1, 67, 127
1, 126993, Note_off_c, 1, 63, 0
1, 126993, Note_off_c, 1, 67, 0
1, 127079, Note_off_c, 1, 51, 0
1, 127163, Note_on_c, 1, 45, 127
1, 127329, Note_off_c, 1, 45, 0
1, 127330, Note_on_c, 1, 46, 127
1, 127330, Note_on_c, 1, 57, 127
1, 127496, Note_off_c, 1, 46, 0
1, 127498, Note_on_c, 1, 48, 127
1, 127663, Note_off_c, 1, 57, 0
1, 127664, Note_off_c, 1, 48, 0
1, 127665, Note_on_c, 1, 50, 127
1, 127665, Note_on_c, 1, 58, 127
1, 127831, Note_off_c, 1, 50, 0
1, 127833, Note_on_c, 1, 51, 127
1, 127998, Note_off_c, 1, 58, 0
1, 127999, Note_off_c, 1, 51, 0
1, 128000, Note_on_c, 1, 67, 127
1, 128000, Note_on_c, 1, 71, 127
1, 128000, Note_on_c, 1, 53, 127
1, 128166, Note_off_c, 1, 67, 0
1, 128166, Note_off_c, 1, 71, 0
1, 128167, Note_on_c, 1, 65, 127
1, 128167, Note_on_c, 1, 69, 127
1, 128333, Note_off_c, 1, 65, 0
1, 128333, Note_off_c, 1, 69, 0
1, 128419, Note_off_c, 1, 53, 0
1, 128503, Note_on_c, 1, 47, 127
1, 128669, Note_off_c, 1, 47, 0
1, 128671, Note_on_c, 1, 48, 127
1, 128671, Note_on_c, 1, 59, 127
1, 128837, Note_off_c, 1, 48, 0
1, 128838, Note_on_c, 1, 50, 127
1, 129004, Note_off_c, 1, 59, 0
1, 129004, Note_off_c, 1, 50, 0
1, 129006, Note_on_c, 1, 60, 127
1, 129006, Note_on_c, 1, 51, 127
1, 129172, Note_off_c, 1, 60, 0
1, 129173, Note_on_c, 1, 65, 127
1, 129339, Note_off_c, 1, 65, 0
1, 129340, Note_on_c, 1, 63, 127
1, 129340, Note_on_c, 1, 72, 127
1, 129506, Note_off_c, 1, 63, 0
1, 129506, Note_off_c, 1, 72, 0
1, 129508, Note_on_c, 1, 62, 127
1, 129508, Note_on_c, 1, 71, 127
1, 129674, Note_off_c, 1, 62, 0
1, 129674, Note_off_c, 1, 71, 0
1, 129806, Note_off_c, 1, 51, 0
1, 129843, Note_on_c, 1, 58, 127
1, 130009, Note_off_c, 1, 58, 0
1, 130010, Note_on_c, 1, 56, 127
1, 130010, Note_on_c, 1, 52, 127
1, 130010, Note_on_c, 1, 67, 127
1, 130176, Note_off_c, 1, 56, 0
1, 130177, Note_on_c, 1, 55, 127
1, 130343, Note_off_c, 1, 52, 0
1, 130343, Note_off_c, 1, 67, 0
1, 130343, Note_off_c, 1, 55, 0
1, 130345, Note_on_c, 1, 53, 127
1, 130345, Note_on_c, 1, 68, 127
1, 130679, Note_off_c, 1, 53, 0
1, 130679, Note_off_c, 1, 68, 0
1, 130681, Note_on_c, 1, 72, 127
1, 130681, Note_on_c, 1, 41, 127
1, 130681, Note_on_c, 1, 68, 127
1, 130847, Note_off_c, 1, 72, 0
1, 130848, Note_on_c, 1, 71, 127
1, 131014, Note_off_c, 1, 41, 0
1, 131014, Note_off_c, 1, 68, 0
1, 131014, Note_off_c, 1, 71, 0
1, 131016, Note_on_c, 1, 39, 127
1, 131016, Note_on_c, 1, 67, 127
1, 131016, Note_on_c, 1, 72, 127
1, 131350, Note_off_c, 1, 39, 0
1, 131350, Note_off_c, 1, 67, 0
1, 131350, Note_off_c, 1, 72, 0
1, 131352, Note_on_c, 1, 38, 127
1, 131352, Note_on_c, 1, 65, 127
1, 131352, Note_on_c, 1, 74, 127
1, 131684, Note_off_c, 1, 38, 0
1, 131685, Note_off_c, 1, 65, 0
1, 131685, Note_off_c, 1, 74, 0
1, 131686, Note_on_c, 1, 63, 127
1, 131686, Note_on_c, 1, 67, 127
1, 132020, Note_off_c, 1, 63, 0
1, 132020, Note_off_c, 1, 67, 0
1, 132023, Note_on_c, 1, 72, 127
1, 132023, Note_on_c, 1, 44, 127
1, 132023, Note_on_c, 1, 62, 127
1, 132189, Note_off_c, 1, 72, 0
1, 132190, Note_on_c, 1, 71, 127
1, 132356, Note_off_c, 1, 44, 0
1, 132356, Note_off_c, 1, 62, 0
1, 132356, Note_off_c, 1, 71, 0
1, 132357, Note_on_c, 1, 43, 127
1, 132357, Note_on_c, 1, 63, 127
1, 132357, Note_on_c, 1, 72, 127
1, 132691, Note_off_c, 1, 43, 0
1, 132691, Note_off_c, 1, 63, 0
1, 132691, Note_off_c, 1, 72, 0
1, 132693, Note_on_c, 1, 74, 127
1, 132693, Note_on_c, 1, 41, 127
1, 132693, Note_on_c, 1, 65, 127
1, 132963, Note_off_c, 1, 74, 0
1, 133027, Note_off_c, 1, 41, 0
1, 133027, Note_off_c, 1, 65, 0
1, 133029, Note_on_c, 1, 65, 127
1, 133029, Note_on_c, 1, 43, 127
1, 133029, Note_on_c, 1, 59, 127
1, 133195, Note_off_c, 1, 65, 0
1, 133197, Note_on_c, 1, 67, 127
1, 133362, Note_off_c, 1, 43, 0
1, 133362, Note_off_c, 1, 59, 0
1, 133363, Note_off_c, 1, 67, 0
1, 133364, Note_on_c, 1, 65, 127
1, 133364, Note_on_c, 1, 41, 127
1, 133364, Note_on_c, 1, 60, 127
1, 133445, Note_off_c, 1, 65, 0
1, 133447, Note_on_c, 1, 67, 127
1, 133528, Note_off_c, 1, 41, 0
1, 133528, Note_off_c, 1, 67, 0
1, 133530, Note_on_c, 1, 39, 127
1, 133530, Note_on_c, 1, 68, 127
1, 133696, Note_off_c, 1, 60, 0
1, 133696, Note_off_c, 1, 39, 0
1, 133698, Note_on_c, 1, 62, 127
1, 134032, Note_off_c, 1, 68, 0
1, 134032, Note_off_c, 1, 62, 0
1, 134034, Note_on_c, 1, 67, 127
1, 134034, Note_on_c, 1, 43, 127
1, 134034, Note_on_c, 1, 59, 127
1, 134200, Note_off_c, 1, 67, 0
1, 134201, Note_on_c, 1, 65, 127
1, 134367, Note_off_c, 1, 43, 0
1, 134367, Note_off_c, 1, 59, 0
1, 134367, Note_off_c, 1, 65, 0
1, 134369, Note_on_c, 1, 48, 127
1, 134369, Note_on_c, 1, 63, 127
1, 134369, Note_on_c, 1, 60, 127
1, 134535, Note_off_c, 1, 48, 0
1, 134536, Note_on_c, 1, 50, 127
1, 134702, Note_off_c, 1, 63, 0
1, 134702, Note_off_c, 1, 50, 0
1, 134703, Note_on_c, 1, 51, 127
1, 134703, Note_on_c, 1, 72, 127
1, 134869, Note_off_c, 1, 51, 0
1, 134869, Note_off_c, 1, 72, 0
1, 134871, Note_on_c, 1, 71, 127
1, 135032, Note_off_c, 1, 60, 0
1, 135037, Note_off_c, 1, 71, 0
1, 135038, Note_on_c, 1, 48, 127
1, 135038, Note_on_c, 1, 72, 127
1, 135204, Note_off_c, 1, 48, 0
1, 135206, Note_on_c, 1, 46, 127
1, 135308, Note_off_c, 1, 72, 0
1, 135372, Note_off_c, 1, 46, 0
1, 135373, Note_on_c, 1, 44, 127
1, 135373, Note_on_c, 1, 64, 127
1, 135373, Note_on_c, 1, 67, 127
1, 135539, Note_off_c, 1, 44, 0
1, 135540, Note_on_c, 1, 43, 127
1, 135706, Note_off_c, 1, 64, 0
1, 135706, Note_off_c, 1, 67, 0
1, 135706, Note_off_c, 1, 43, 0
1, 135708, Note_on_c, 1, 41, 127
1, 135708, Note_on_c, 1, 65, 127
1, 135708, Note_on_c, 1, 68, 127
1, 135874, Note_off_c, 1, 41, 0
1, 135875, Note_on_c, 1, 58, 127
1, 136041, Note_off_c, 1, 65, 0
1, 136041, Note_off_c, 1, 58, 0
1, 136043, Note_on_c, 1, 56, 127
1, 136209, Note_off_c, 1, 56, 0
1, 136210, Note_on_c, 1, 55, 127
1, 136210, Note_on_c, 1, 64, 127
1, 136376, Note_off_c, 1, 55, 0
1, 136376, Note_off_c, 1, 64, 0
1, 136377, Note_on_c, 1, 53, 127
1, 136543, Note_off_c, 1, 53, 0
1, 136545, Note_on_c, 1, 51, 127
1, 136614, Note_off_c, 1, 68, 0
1, 136711, Note_off_c, 1, 51, 0
1, 136712, Note_on_c, 1, 50, 127
1, 136712, Note_on_c, 1, 60, 127
1, 136712, Note_on_c, 1, 69, 127
1, 136878, Note_off_c, 1, 50, 0
1, 136880, Note_on_c, 1, 48, 127
1, 137045, Note_off_c, 1, 60, 0
1, 137045, Note_off_c, 1, 69, 0
1, 137046, Note_off_c, 1, 48, 0
1, 137047, Note_on_c, 1, 46, 127
1, 137047, Note_on_c, 1, 70, 127
1, 137047, Note_on_c, 1, 62, 127
1, 137213, Note_off_c, 1, 46, 0
1, 137214, Note_on_c, 1, 48, 127
1, 137380, Note_off_c, 1, 70, 0
1, 137380, Note_off_c, 1, 48, 0
1, 137382, Note_on_c, 1, 50, 127
1, 137548, Note_off_c, 1, 50, 0
1, 137549, Note_on_c, 1, 69, 127
1, 137715, Note_off_c, 1, 69, 0
1, 137884, Note_off_c, 1, 62, 0
1, 137884, Note_on_c, 1, 44, 127
1, 138050, Note_off_c, 1, 44, 0
1, 138051, Note_on_c, 1, 43, 127
1, 138051, Note_on_c, 1, 62, 127
1, 138051, Note_on_c, 1, 65, 127
1, 138217, Note_off_c, 1, 43, 0
1, 138219, Note_on_c, 1, 41, 127
1, 138384, Note_off_c, 1, 62, 0
1, 138384, Note_off_c, 1, 65, 0
1, 138385, Note_off_c, 1, 41, 0
1, 138386, Note_on_c, 1, 39, 127
1, 138386, Note_on_c, 1, 63, 127
1, 138386, Note_on_c, 1, 67, 127
1, 138552, Note_off_c, 1, 39, 0
1, 138554, Note_on_c, 1, 56, 127
1, 138719, Note_off_c, 1, 63, 0
1, 138720, Note_off_c, 1, 56, 0
1, 138721, Note_on_c, 1, 55, 127
1, 138887, Note_off_c, 1, 55, 0
1, 138888, Note_on_c, 1, 53, 127
1, 138888, Note_on_c, 1, 62, 127
1, 139054, Note_off_c, 1, 53, 0
1, 139054, Note_off_c, 1, 62, 0
1, 139056, Note_on_c, 1, 51, 127
1, 139222, Note_off_c, 1, 51, 0
1, 139223, Note_on_c, 1, 49, 127
1, 139311, Note_off_c, 1, 67, 0
1, 139390, Note_off_c, 1, 49, 0
1, 139392, Note_on_c, 1, 48, 127
1, 139392, Note_on_c, 1, 58, 127
1, 139392, Note_on_c, 1, 67, 127
1, 139558, Note_off_c, 1, 48, 0
1, 139559, Note_on_c, 1, 46, 127
1, 139725, Note_off_c, 1, 58, 0
1, 139725, Note_off_c, 1, 46, 0
1, 139727, Note_on_c, 1, 44, 127
1, 139727, Note_on_c, 1, 60, 127
1, 139893, Note_off_c, 1, 44, 0
1, 140060, Note_off_c, 1, 67, 0
1, 140061, Note_on_c, 1, 68, 127
1, 140227, Note_off_c, 1, 68, 0
1, 140229, Note_on_c, 1, 70, 127
1, 140395, Note_off_c, 1, 70, 0
1, 140396, Note_on_c, 1, 72, 127
1, 140562, Note_off_c, 1, 72, 0
1, 140564, Note_on_c, 1, 43, 127
1, 140564, Note_on_c, 1, 71, 127
1, 140730, Note_off_c, 1, 43, 0
1, 140730, Note_off_c, 1, 71, 0
1, 140731, Note_on_c, 1, 41, 127
1, 140897, Note_off_c, 1, 41, 0
1, 140898, Note_on_c, 1, 39, 127
1, 141064, Note_off_c, 1, 39, 0
1, 141066, Note_on_c, 1, 38, 127
1, 141066, Note_on_c, 1, 65, 127
1, 141232, Note_off_c, 1, 38, 0
1, 141233, Note_on_c, 1, 55, 127
1, 141296, Note_off_c, 1, 60, 0
1, 141399, Note_off_c, 1, 55, 0
1, 141401, Note_on_c, 1, 53, 127
1, 141401, Note_on_c, 1, 62, 127
1, 141567, Note_off_c, 1, 53, 0
1, 141567, Note_off_c, 1, 62, 0
1, 141568, Note_on_c, 1, 51, 127
1, 141568, Note_on_c, 1, 63, 127
1, 141729, Note_off_c, 1, 65, 0
1, 141734, Note_off_c, 1, 51, 0
1, 141734, Note_off_c, 1, 63, 0
1, 141735, Note_on_c, 1, 50, 127
1, 141735, Note_on_c, 1, 65, 127
1, 141901, Note_off_c, 1, 50, 0
1, 141901, Note_off_c, 1, 65, 0
1, 141903, Note_on_c, 1, 48, 127
1, 141903, Note_on_c, 1, 63, 127
1, 142069, Note_off_c, 1, 48, 0
1, 142069, Note_off_c, 1, 63, 0
1, 142070, Note_on_c, 1, 47, 127
1, 142070, Note_on_c, 1, 65, 127
1, 142236, Note_off_c, 1, 47, 0
1, 142238, Note_on_c, 1, 45, 127
1, 142238, Note_on_c, 1, 62, 127
1, 142402, Note_off_c, 1, 65, 0
1, 142404, Note_off_c, 1, 45, 0
1, 142404, Note_off_c, 1, 62, 0
1, 142405, Note_on_c, 1, 59, 127
1, 142405, Note_on_c, 1, 43, 127
1, 142737, Note_off_c, 1, 59, 0
1, 142741, Note_on_c, 1, 74, 127
1, 142907, Note_off_c, 1, 74, 0
1, 142908, Note_on_c, 1, 72, 127
1, 143074, Note_off_c, 1, 72, 0
1, 143412, Note_on_c, 1, 65, 127
1, 143746, Note_off_c, 1, 65, 0
1, 143748, Note_on_c, 1, 60, 127
1, 143748, Note_on_c, 1, 63, 127
1, 143803, Note_off_c, 1, 43, 0
1, 144080, Note_off_c, 1, 60, 0
1, 144081, Note_off_c, 1, 63, 0
1, 144083, Note_on_c, 1, 45, 127
1, 144083, Note_on_c, 1, 75, 127
1, 144249, Note_off_c, 1, 45, 0
1, 144249, Note_off_c, 1, 75, 0
1, 144250, Note_on_c, 1, 47, 127
1, 144250, Note_on_c, 1, 74, 127
1, 144416, Note_off_c, 1, 47, 0
1, 144416, Note_off_c, 1, 74, 0
1, 144418, Note_on_c, 1, 48, 127
1, 144418, Note_on_c, 1, 75, 127
1, 144584, Note_off_c, 1, 48, 0
1, 144585, Note_on_c, 1, 50, 127
1, 144688, Note_off_c, 1, 75, 0
1, 144751, Note_off_c, 1, 50, 0
1, 144752, Note_on_c, 1, 51, 127
1, 144752, Note_on_c, 1, 63, 127
1, 144752, Note_on_c, 1, 67, 127
1, 144918, Note_off_c, 1, 51, 0
1, 144920, Note_on_c, 1, 53, 127
1, 145085, Note_off_c, 1, 63, 0
1, 145085, Note_off_c, 1, 67, 0
1, 145086, Note_off_c, 1, 53, 0
1, 145087, Note_on_c, 1, 55, 127
1, 145087, Note_on_c, 1, 65, 127
1, 145087, Note_on_c, 1, 62, 127
1, 145253, Note_off_c, 1, 55, 0
1, 145255, Note_on_c, 1, 53, 127
1, 145420, Note_off_c, 1, 65, 0
1, 145421, Note_off_c, 1, 53, 0
1, 145422, Note_on_c, 1, 56, 127
1, 145422, Note_on_c, 1, 77, 127
1, 145588, Note_off_c, 1, 56, 0
1, 145588, Note_off_c, 1, 77, 0
1, 145589, Note_on_c, 1, 75, 127
1, 145755, Note_off_c, 1, 75, 0
1, 145924, Note_off_c, 1, 62, 0
1, 145924, Note_on_c, 1, 51, 127
1, 146090, Note_off_c, 1, 51, 0
1, 146092, Note_on_c, 1, 50, 127
1, 146092, Note_on_c, 1, 68, 127
1, 146092, Note_on_c, 1, 65, 127
1, 146258, Note_off_c, 1, 50, 0
1, 146259, Note_on_c, 1, 48, 127
1, 146425, Note_off_c, 1, 68, 0
1, 146425, Note_off_c, 1, 48, 0
1, 146426, Note_on_c, 1, 67, 127
1, 146426, Note_on_c, 1, 47, 127
1, 146592, Note_off_c, 1, 67, 0
1, 146594, Note_on_c, 1, 77, 127
1, 146755, Note_off_c, 1, 65, 0
1, 146759, Note_off_c, 1, 47, 0
1, 146760, Note_off_c, 1, 77, 0
1, 146761, Note_on_c, 1, 48, 127
1, 146761, Note_on_c, 1, 75, 127
1, 146927, Note_off_c, 1, 48, 0
1, 146927, Note_off_c, 1, 75, 0
1, 146929, Note_on_c, 1, 47, 127
1, 146929, Note_on_c, 1, 74, 127
1, 147095, Note_off_c, 1, 47, 0
1, 147095, Note_off_c, 1, 74, 0
1, 147096, Note_on_c, 1, 72, 127
1, 147096, Note_on_c, 1, 48, 127
1, 147262, Note_off_c, 1, 72, 0
1, 147263, Note_on_c, 1, 71, 127
1, 147429, Note_off_c, 1, 48, 0
1, 147429, Note_off_c, 1, 71, 0
1, 147431, Note_on_c, 1, 69, 127
1, 147431, Note_on_c, 1, 43, 127
1, 147431, Note_on_c, 1, 65, 127
1, 147597, Note_off_c, 1, 69, 0
1, 147598, Note_on_c, 1, 67, 127
1, 147764, Note_off_c, 1, 43, 0
1, 147764, Note_off_c, 1, 65, 0
1, 147764, Note_off_c, 1, 67, 0
1, 147766, Note_on_c, 1, 44, 127
1, 147766, Note_on_c, 1, 63, 127
1, 147766, Note_on_c, 1, 72, 127
1, 148100, Note_off_c, 1, 44, 0
1, 148100, Note_off_c, 1, 63, 0
1, 148100, Note_off_c, 1, 72, 0
1, 148102, Note_on_c, 1, 48, 127
1, 148102, Note_on_c, 1, 68, 127
1, 148102, Note_on_c, 1, 77, 127
1, 148268, Note_off_c, 1, 48, 0
1, 148269, Note_on_c, 1, 47, 127
1, 148435, Note_off_c, 1, 68, 0
1, 148435, Note_off_c, 1, 77, 0
1, 148435, Note_off_c, 1, 47, 0
1, 148436, Note_on_c, 1, 48, 127
1, 148436, Note_on_c, 1, 67, 127
1, 148436, Note_on_c, 1, 75, 127
1, 148770, Note_off_c, 1, 48, 0
1, 148770, Note_off_c, 1, 67, 0
1, 148770, Note_off_c, 1, 75, 0
1, 148772, Note_on_c, 1, 74, 127
1, 148772, Note_on_c, 1, 50, 127
1, 148772, Note_on_c, 1, 65, 127
1, 149104, Note_off_c, 1, 74, 0
1, 149105, Note_off_c, 1, 50, 0
1, 149105, Note_off_c, 1, 65, 0
1, 149107, Note_on_c, 1, 43, 127
1, 149107, Note_on_c, 1, 63, 127
1, 149441, Note_off_c, 1, 43, 0
1, 149441, Note_off_c, 1, 63, 0
1, 149443, Note_on_c, 1, 48, 127
1, 149443, Note_on_c, 1, 62, 127
1, 149443, Note_on_c, 1, 68, 127
1, 149609, Note_off_c, 1, 48, 0
1, 149611, Note_on_c, 1, 47, 127
1, 149776, Note_off_c, 1, 62, 0
1, 149776, Note_off_c, 1, 68, 0
1, 149777, Note_off_c, 1, 47, 0
1, 149778, Note_on_c, 1, 48, 127
1, 149778, Note_on_c, 1, 63, 127
1, 149778, Note_on_c, 1, 67, 127
1, 150112, Note_off_c, 1, 48, 0
1, 150112, Note_off_c, 1, 63, 0
1, 150112, Note_off_c, 1, 67, 0
1, 150114, Note_on_c, 1, 50, 127
1, 150114, Note_on_c, 1, 62, 127
1, 150114, Note_on_c, 1, 65, 127
1, 150448, Note_off_c, 1, 50, 0
1, 150448, Note_off_c, 1, 62, 0
1, 150448, Note_off_c, 1, 65, 0
1, 150450, Note_on_c, 1, 41, 127
1, 150450, Note_on_c, 1, 59, 127
1, 150450, Note_on_c, 1, 67, 127
1, 150626, Note_off_c, 1, 41, 0
1, 150629, Note_on_c, 1, 43, 127
1, 150790, Note_off_c, 1, 59, 0
1, 150790, Note_off_c, 1, 67, 0
1, 150805, Note_off_c, 1, 43, 0
1, 150807, Note_on_c, 1, 65, 127
1, 150807, Note_on_c, 1, 60, 127
1, 150807, Note_on_c, 1, 44, 127
1, 150983, Note_off_c, 1, 65, 0
1, 150986, Note_on_c, 1, 63, 127
1, 151142, Note_off_c, 1, 63, 0
1, 151147, Note_off_c, 1, 60, 0
1, 151161, Note_off_c, 1, 44, 0
1, 151164, Note_on_c, 1, 62, 127
1, 151164, Note_on_c, 1, 65, 127
1, 151164, Note_on_c, 1, 44, 127
1, 151494, Note_off_c, 1, 62, 0
1, 151494, Note_off_c, 1, 65, 0
1, 151518, Note_off_c, 1, 44, 0
1, 151522, Note_on_c, 1, 43, 127
1, 151522, Note_on_c, 1, 59, 127
1, 151522, Note_on_c, 1, 62, 127
1, 151698, Note_off_c, 1, 43, 0
1, 151700, Note_on_c, 1, 41, 127
1, 151842, Note_off_c, 1, 59, 0
1, 151842, Note_off_c, 1, 62, 0
1, 151876, Note_off_c, 1, 41, 0
1, 151895, Note_on_c, 1, 62, 127
1, 151895, Note_on_c, 1, 68, 127
1, 151895, Note_on_c, 1, 59, 127
1, 151895, Note_on_c, 1, 39, 127
1, 152286, Note_off_c, 1, 62, 0
1, 152286, Note_off_c, 1, 68, 0
1, 152286, Note_off_c, 1, 59, 0
1, 152321, Note_on_c, 1, 67, 127
1, 152321, Note_on_c, 1, 60, 127
1, 153075, Note_off_c, 1, 39, 0
1, 153091, Note_off_c, 1, 67, 0
1, 153091, Note_off_c, 1, 60, 0
1, 153126, Note_on_c, 1, 51, 127
1, 153126, Note_on_c, 1, 60, 127
1, 153126, Note_on_c, 1, 69, 127
1, 153517, Note_off_c, 1, 51, 0
1, 153517, Note_off_c, 1, 60, 0
1, 153517, Note_off_c, 1, 69, 0
1, 153520, Note_on_c, 1, 65, 127
1, 153520, Note_on_c, 1, 50, 127
1, 153520, Note_on_c, 1, 71, 127
1, 153714, Note_off_c, 1, 65, 0
1, 153717, Note_on_c, 1, 62, 127
1, 153911, Note_off_c, 1, 50, 0
1, 153911, Note_off_c, 1, 71, 0
1, 153911, Note_off_c, 1, 62, 0
1, 153914, Note_on_c, 1, 63, 127
1, 153914, Note_on_c, 1, 48, 127
1, 153914, Note_on_c, 1, 72, 127
1, 154108, Note_off_c, 1, 63, 0
1, 154111, Note_on_c, 1, 60, 127
1, 154304, Note_off_c, 1, 48, 0
1, 154305, Note_off_c, 1, 72, 0
1, 154309, Note_on_c, 1, 65, 127
1, 154309, Note_on_c, 1, 55, 127
1, 154503, Note_off_c, 1, 65, 0
1, 154693, Note_off_c, 1, 60, 0
1, 154700, Note_off_c, 1, 55, 0
1, 154703, Note_on_c, 1, 62, 127
1, 154703, Note_on_c, 1, 59, 127
1, 154703, Note_on_c, 1, 43, 127
1, 154897, Note_off_c, 1, 62, 0
1, 154900, Note_on_c, 1, 60, 127
1, 154953, Note_off_c, 1, 59, 0
1, 155094, Note_off_c, 1, 43, 0
1, 155094, Note_off_c, 1, 60, 0
1, 155097, Note_on_c, 1, 60, 127
1, 155097, Note_on_c, 1, 48, 127
1, 155097, Note_on_c, 1, 36, 127
1, 155492, Note_on_c, 1, 72, 127
1, 155686, Note_off_c, 1, 72, 0
1, 155689, Note_on_c, 1, 71, 127
1, 155883, Note_off_c, 1, 71, 0
1, 156277, Note_off_c, 1, 60, 0
1, 156280, Note_on_c, 1, 64, 127
1, 156280, Note_on_c, 1, 67, 127
1, 156671, Note_off_c, 1, 48, 0
1, 156671, Note_off_c, 1, 64, 0
1, 156671, Note_off_c, 1, 67, 0
1, 156674, Note_on_c, 1, 68, 127
1, 156674, Note_on_c, 1, 65, 127
1, 157065, Note_off_c, 1, 68, 0
1, 157854, Note_off_c, 1, 65, 0
1, 157857, Note_on_c, 1, 74, 127
1, 158248, Note_off_c, 1, 74, 0
1, 158646, Note_on_c, 1, 63, 127
1, 158840, Note_off_c, 1, 63, 0
1, 158843, Note_on_c, 1, 62, 127
1, 159037, Note_off_c, 1, 62, 0
1, 159845, Note_on_c, 1, 59, 127
1, 160675, Note_off_c, 1, 59, 0
1, 161764, Note_on_c, 1, 55, 127
1, 165834, Note_off_c, 1, 36, 0
1, 165903, Note_off_c, 1, 55, 0
1, 165903, End_track
0, 0, End_of_file