0, 0, Header, 1, 1, 480
1, 0, Start_track
1, 0, Title_t, "Test"
1, 0, Tempo, 500000
1, 0, Instrument_name_t, "Church Organ"
1, 64, Note_on_c, 1, 64, 127
1, 64, Note_on_c, 1, 52, 127
1, 286, Note_on_c, 1, 68, 127
1, 505, Note_off_c, 1, 68, 0
1, 509, Note_on_c, 1, 71, 127
1, 728, Note_off_c, 1, 71, 0
1, 732, Note_on_c, 1, 76, 127
1, 732, Note_on_c, 1, 56, 127
1, 951, Note_off_c, 1, 76, 0
1, 954, Note_on_c, 1, 75, 127
1, 1173, Note_off_c, 1, 75, 0
1, 1396, Note_off_c, 1, 56, 0
1, 1400, Note_on_c, 1, 57, 127
1, 1511, Note_on_c, 1, 73, 127
1, 1618, Note_off_c, 1, 73, 0
1, 2287, Note_off_c, 1, 57, 0
1, 2513, Note_on_c, 1, 54, 127
1, 2732, Note_off_c, 1, 54, 0
1, 2959, Note_on_c, 1, 69, 127
1, 3178, Note_off_c, 1, 69, 0
1, 4066, Note_off_c, 1, 64, 0
1, 4727, Note_off_c, 1, 52, 0
1, 4741, Note_on_c, 1, 51, 127
1, 5355, Note_off_c, 1, 51, 0
1, 5409, Note_on_c, 1, 68, 127
1, 5409, Note_on_c, 1, 52, 127
1, 5632, Note_on_c, 1, 56, 127
1, 5632, Note_on_c, 1, 71, 127
1, 5851, Note_off_c, 1, 56, 0
1, 5851, Note_off_c, 1, 71, 0
1, 5852, Note_off_c, 1, 68, 0
1, 5854, Note_on_c, 1, 59, 127
1, 5854, Note_on_c, 1, 76, 127
1, 6070, Note_off_c, 1, 52, 0
1, 6073, Note_off_c, 1, 59, 0
1, 6073, Note_off_c, 1, 76, 0
1, 6077, Note_on_c, 1, 64, 127
1, 6079, Note_on_c, 1, 80, 127
1, 6160, Note_on_c, 1, 78, 127
1, 6183, Note_off_c, 1, 80, 0
1, 6264, Note_off_c, 1, 78, 0
1, 6300, Note_on_c, 1, 63, 127
1, 6303, Note_off_c, 1, 64, 0
1, 6519, Note_off_c, 1, 63, 0
1, 6745, Note_on_c, 1, 58, 127
1, 7191, Note_on_c, 1, 61, 127
1, 7191, Note_on_c, 1, 76, 127
1, 7410, Note_off_c, 1, 61, 0
1, 7410, Note_off_c, 1, 76, 0
1, 7413, Note_on_c, 1, 75, 127
1, 7413, Note_on_c, 1, 66, 127
1, 7632, Note_off_c, 1, 75, 0
1, 7859, Note_on_c, 1, 73, 127
1, 8074, Note_off_c, 1, 66, 0
1, 8078, Note_off_c, 1, 73, 0
1, 8079, Note_off_c, 1, 58, 0
1, 8081, Note_on_c, 1, 47, 127
1, 8081, Note_on_c, 1, 73, 127
1, 8304, Note_on_c, 1, 51, 127
1, 8324, Note_off_c, 1, 47, 0
1, 8392, Note_on_c, 1, 75, 127
1, 8410, Note_off_c, 1, 73, 0
1, 8499, Note_off_c, 1, 75, 0
1, 8499, Note_on_c, 1, 76, 127
1, 8527, Note_on_c, 1, 54, 127
1, 8547, Note_off_c, 1, 51, 0
1, 8599, Note_off_c, 1, 76, 0
1, 8750, Note_on_c, 1, 59, 127
1, 8770, Note_off_c, 1, 54, 0
1, 8969, Note_off_c, 1, 59, 0
1, 8972, Note_on_c, 1, 58, 127
1, 9191, Note_off_c, 1, 58, 0
1, 9418, Note_on_c, 1, 52, 127
1, 9863, Note_on_c, 1, 78, 127
1, 10082, Note_off_c, 1, 78, 0
1, 10086, Note_on_c, 1, 80, 127
1, 10086, Note_on_c, 1, 64, 127
1, 10305, Note_off_c, 1, 80, 0
1, 10752, Note_off_c, 1, 52, 0
1, 10754, Note_on_c, 1, 66, 127
1, 10977, Note_on_c, 1, 70, 127
1, 11189, Note_off_c, 1, 66, 0
1, 11359, Note_off_c, 1, 70, 0
1, 11420, Note_off_c, 1, 64, 0
1, 11422, Note_on_c, 1, 63, 127
1, 12090, Note_on_c, 1, 68, 127
1, 12313, Note_on_c, 1, 71, 127
1, 12695, Note_off_c, 1, 71, 0
1, 12751, Note_off_c, 1, 68, 0
1, 12977, Note_off_c, 1, 63, 0
1, 12981, Note_on_c, 1, 61, 127
1, 13200, Note_off_c, 1, 61, 0
1, 14540, Note_on_c, 1, 49, 127
1, 14759, Note_off_c, 1, 49, 0
1, 14763, Note_on_c, 1, 50, 127
1, 15650, Note_off_c, 1, 50, 0
1, 15654, Note_on_c, 1, 74, 127
1, 16099, Note_on_c, 1, 55, 127
1, 16280, Note_off_c, 1, 74, 0
1, 16545, Note_on_c, 1, 62, 127
1, 16764, Note_off_c, 1, 62, 0
1, 17433, Note_off_c, 1, 55, 0
1, 18104, Note_on_c, 1, 79, 127
1, 18323, Note_off_c, 1, 79, 0
1, 18327, Note_on_c, 1, 56, 127
1, 18327, Note_on_c, 1, 63, 127
1, 18327, Note_on_c, 1, 78, 127
1, 18546, Note_off_c, 1, 56, 0
1, 18546, Note_off_c, 1, 63, 0
1, 18546, Note_off_c, 1, 78, 0
1, 18549, Note_on_c, 1, 61, 127
1, 18549, Note_on_c, 1, 58, 127
1, 18549, Note_on_c, 1, 77, 127
1, 18768, Note_off_c, 1, 61, 0
1, 18768, Note_off_c, 1, 58, 0
1, 18768, Note_off_c, 1, 77, 0
1, 18772, Note_on_c, 1, 76, 127
1, 18772, Note_on_c, 1, 59, 127
1, 18991, Note_off_c, 1, 76, 0
1, 18995, Note_on_c, 1, 75, 127
1, 19214, Note_off_c, 1, 75, 0
1, 19217, Note_on_c, 1, 53, 127
1, 19217, Note_on_c, 1, 74, 127
1, 19436, Note_off_c, 1, 53, 0
1, 19436, Note_off_c, 1, 74, 0
1, 19440, Note_on_c, 1, 73, 127
1, 19440, Note_on_c, 1, 54, 127
1, 19547, Note_off_c, 1, 73, 0
1, 19659, Note_off_c, 1, 59, 0
1, 19663, Note_on_c, 1, 58, 127
1, 19882, Note_off_c, 1, 58, 0
1, 19886, Note_on_c, 1, 64, 127
1, 19886, Note_on_c, 1, 70, 127
1, 20101, Note_off_c, 1, 54, 0
1, 20105, Note_off_c, 1, 64, 0
1, 20105, Note_off_c, 1, 70, 0
1, 20108, Note_on_c, 1, 47, 127
1, 20108, Note_on_c, 1, 63, 127
1, 20108, Note_on_c, 1, 71, 127
1, 20331, Note_on_c, 1, 51, 127
1, 20550, Note_off_c, 1, 51, 0
1, 20551, Note_off_c, 1, 47, 0
1, 20554, Note_on_c, 1, 54, 127
1, 20773, Note_off_c, 1, 54, 0
1, 20776, Note_on_c, 1, 59, 127
1, 20999, Note_on_c, 1, 57, 127
1, 21014, Note_off_c, 1, 59, 0
1, 21213, Note_off_c, 1, 57, 0
1, 21442, Note_off_c, 1, 63, 0
1, 21445, Note_on_c, 1, 56, 127
1, 21663, Note_off_c, 1, 71, 0
1, 21667, Note_on_c, 1, 75, 127
1, 21886, Note_off_c, 1, 75, 0
1, 21890, Note_on_c, 1, 78, 127
1, 22109, Note_off_c, 1, 78, 0
1, 22113, Note_on_c, 1, 83, 127
1, 22332, Note_off_c, 1, 56, 0
1, 22336, Note_on_c, 1, 81, 127
1, 22391, Note_off_c, 1, 83, 0
1, 22555, Note_off_c, 1, 81, 0
1, 22558, Note_on_c, 1, 56, 127
1, 22558, Note_on_c, 1, 83, 127
1, 22777, Note_off_c, 1, 56, 0
1, 22777, Note_off_c, 1, 83, 0
1, 22781, Note_on_c, 1, 73, 127
1, 22781, Note_on_c, 1, 53, 127
1, 23000, Note_off_c, 1, 73, 0
1, 23004, Note_on_c, 1, 56, 127
1, 23004, Note_on_c, 1, 77, 127
1, 23223, Note_off_c, 1, 56, 0
1, 23223, Note_off_c, 1, 77, 0
1, 23226, Note_on_c, 1, 59, 127
1, 23226, Note_on_c, 1, 80, 127
1, 23445, Note_off_c, 1, 59, 0
1, 23445, Note_off_c, 1, 80, 0
1, 23449, Note_on_c, 1, 62, 127
1, 23451, Note_on_c, 1, 83, 127
1, 23554, Note_on_c, 1, 81, 127
1, 23558, Note_off_c, 1, 83, 0
1, 23661, Note_off_c, 1, 81, 0
1, 23668, Note_off_c, 1, 62, 0
1, 23895, Note_on_c, 1, 61, 127
1, 24115, Note_off_c, 1, 53, 0
1, 24117, Note_on_c, 1, 54, 127
1, 24781, Note_off_c, 1, 54, 0
1, 24782, Note_off_c, 1, 61, 0
1, 24785, Note_on_c, 1, 50, 127
1, 25008, Note_on_c, 1, 78, 127
1, 25227, Note_off_c, 1, 78, 0
1, 25449, Note_off_c, 1, 50, 0
1, 25454, Note_on_c, 1, 51, 127
1, 25454, Note_on_c, 1, 60, 127
1, 26118, Note_off_c, 1, 51, 0
1, 26118, Note_off_c, 1, 60, 0
1, 26122, Note_on_c, 1, 77, 127
1, 26122, Note_on_c, 1, 49, 127
1, 26122, Note_on_c, 1, 61, 127
1, 26229, Note_off_c, 1, 77, 0
1, 26233, Note_on_c, 1, 78, 127
1, 26340, Note_off_c, 1, 78, 0
1, 26344, Note_on_c, 1, 80, 127
1, 26563, Note_off_c, 1, 80, 0
1, 26567, Note_on_c, 1, 73, 127
1, 26786, Note_off_c, 1, 49, 0
1, 26786, Note_off_c, 1, 61, 0
1, 26786, Note_off_c, 1, 73, 0
1, 26790, Note_on_c, 1, 47, 127
1, 26790, Note_on_c, 1, 74, 127
1, 27013, Note_on_c, 1, 50, 127
1, 27013, Note_on_c, 1, 71, 127
1, 27232, Note_off_c, 1, 50, 0
1, 27232, Note_off_c, 1, 71, 0
1, 27235, Note_on_c, 1, 53, 127
1, 27235, Note_on_c, 1, 68, 127
1, 27454, Note_off_c, 1, 53, 0
1, 27454, Note_off_c, 1, 68, 0
1, 27458, Note_on_c, 1, 56, 127
1, 27458, Note_on_c, 1, 65, 127
1, 27677, Note_off_c, 1, 56, 0
1, 27681, Note_on_c, 1, 59, 127
1, 27840, Note_off_c, 1, 65, 0
1, 27900, Note_off_c, 1, 59, 0
1, 27904, Note_on_c, 1, 57, 127
1, 27904, Note_on_c, 1, 66, 127
1, 28123, Note_off_c, 1, 57, 0
1, 28124, Note_off_c, 1, 47, 0
1, 28182, Note_off_c, 1, 66, 0
1, 28572, Note_on_c, 1, 54, 127
1, 28572, Note_on_c, 1, 69, 127
1, 28791, Note_off_c, 1, 54, 0
1, 28850, Note_off_c, 1, 69, 0
1, 29236, Note_off_c, 1, 74, 0
1, 29240, Note_on_c, 1, 73, 127
1, 29459, Note_off_c, 1, 73, 0
1, 30131, Note_on_c, 1, 45, 127
1, 30795, Note_off_c, 1, 45, 0
1, 31467, Note_on_c, 1, 49, 127
1, 32131, Note_off_c, 1, 49, 0
1, 32135, Note_on_c, 1, 42, 127
1, 32135, Note_on_c, 1, 66, 127
1, 32137, Note_on_c, 1, 69, 127
1, 32236, Note_on_c, 1, 68, 127
1, 32244, Note_off_c, 1, 69, 0
1, 32343, Note_off_c, 1, 68, 0
1, 32354, Note_off_c, 1, 42, 0
1, 32358, Note_on_c, 1, 45, 127
1, 32577, Note_off_c, 1, 45, 0
1, 32581, Note_on_c, 1, 49, 127
1, 32800, Note_off_c, 1, 49, 0
1, 32803, Note_on_c, 1, 54, 127
1, 33022, Note_off_c, 1, 66, 0
1, 33022, Note_off_c, 1, 54, 0
1, 33026, Note_on_c, 1, 52, 127
1, 33026, Note_on_c, 1, 71, 127
1, 33245, Note_off_c, 1, 52, 0
1, 33245, Note_off_c, 1, 71, 0
1, 33249, Note_on_c, 1, 54, 127
1, 33249, Note_on_c, 1, 68, 127
1, 33249, Note_on_c, 1, 64, 127
1, 33468, Note_off_c, 1, 54, 0
1, 33468, Note_off_c, 1, 68, 0
1, 33468, Note_off_c, 1, 64, 0
1, 33472, Note_on_c, 1, 69, 127
1, 33472, Note_on_c, 1, 47, 127
1, 33472, Note_on_c, 1, 63, 127
1, 33579, Note_off_c, 1, 69, 0
1, 33583, Note_on_c, 1, 68, 127
1, 33690, Note_off_c, 1, 68, 0
1, 33691, Note_off_c, 1, 47, 0
1, 33694, Note_on_c, 1, 51, 127
1, 33913, Note_off_c, 1, 51, 0
1, 33917, Note_on_c, 1, 54, 127
1, 34133, Note_off_c, 1, 63, 0
1, 34136, Note_off_c, 1, 54, 0
1, 34140, Note_on_c, 1, 59, 127
1, 34140, Note_on_c, 1, 69, 127
1, 34359, Note_off_c, 1, 59, 0
1, 34359, Note_off_c, 1, 69, 0
1, 34362, Note_on_c, 1, 71, 127
1, 34362, Note_on_c, 1, 57, 127
1, 34469, Note_off_c, 1, 71, 0
1, 34474, Note_on_c, 1, 69, 127
1, 34581, Note_off_c, 1, 57, 0
1, 34581, Note_off_c, 1, 69, 0
1, 34585, Note_on_c, 1, 68, 127
1, 34585, Note_on_c, 1, 59, 127
1, 34692, Note_off_c, 1, 68, 0
1, 34696, Note_on_c, 1, 66, 127
1, 34803, Note_off_c, 1, 66, 0
1, 34804, Note_off_c, 1, 59, 0
1, 34808, Note_on_c, 1, 68, 127
1, 34808, Note_on_c, 1, 52, 127
1, 34915, Note_off_c, 1, 68, 0
1, 34919, Note_on_c, 1, 66, 127
1, 35026, Note_off_c, 1, 66, 0
1, 35027, Note_off_c, 1, 52, 0
1, 35031, Note_on_c, 1, 64, 127
1, 35031, Note_on_c, 1, 56, 127
1, 35138, Note_off_c, 1, 64, 0
1, 35142, Note_on_c, 1, 66, 127
1, 35249, Note_off_c, 1, 66, 0
1, 35250, Note_off_c, 1, 56, 0
1, 35253, Note_on_c, 1, 68, 127
1, 35253, Note_on_c, 1, 59, 127
1, 35360, Note_off_c, 1, 68, 0
1, 35365, Note_on_c, 1, 69, 127
1, 35472, Note_off_c, 1, 59, 0
1, 35472, Note_off_c, 1, 69, 0
1, 35476, Note_on_c, 1, 71, 127
1, 35476, Note_on_c, 1, 64, 127
1, 35583, Note_off_c, 1, 71, 0
1, 35587, Note_on_c, 1, 69, 127
1, 35694, Note_off_c, 1, 69, 0
1, 35695, Note_off_c, 1, 64, 0
1, 35699, Note_on_c, 1, 68, 127
1, 35699, Note_on_c, 1, 62, 127
1, 35806, Note_off_c, 1, 68, 0
1, 35810, Note_on_c, 1, 69, 127
1, 35917, Note_off_c, 1, 69, 0
1, 35918, Note_off_c, 1, 62, 0
1, 35921, Note_on_c, 1, 71, 127
1, 35921, Note_on_c, 1, 61, 127
1, 36028, Note_off_c, 1, 71, 0
1, 36033, Note_on_c, 1, 73, 127
1, 36140, Note_off_c, 1, 61, 0
1, 36140, Note_off_c, 1, 73, 0
1, 36144, Note_on_c, 1, 74, 127
1, 36144, Note_on_c, 1, 59, 127
1, 36251, Note_off_c, 1, 74, 0
1, 36256, Note_on_c, 1, 73, 127
1, 36363, Note_off_c, 1, 73, 0
1, 36367, Note_on_c, 1, 71, 127
1, 36474, Note_off_c, 1, 71, 0
1, 36478, Note_on_c, 1, 69, 127
1, 36585, Note_off_c, 1, 59, 0
1, 36585, Note_off_c, 1, 69, 0
1, 36590, Note_on_c, 1, 68, 127
1, 36590, Note_on_c, 1, 57, 127
1, 36697, Note_off_c, 1, 68, 0
1, 36701, Note_on_c, 1, 66, 127
1, 36808, Note_off_c, 1, 66, 0
1, 36809, Note_off_c, 1, 57, 0
1, 36812, Note_on_c, 1, 56, 127
1, 36812, Note_on_c, 1, 64, 127
1, 36924, Note_on_c, 1, 62, 127
1, 37031, Note_off_c, 1, 62, 0
1, 37035, Note_on_c, 1, 61, 127
1, 37142, Note_off_c, 1, 56, 0
1, 37142, Note_off_c, 1, 61, 0
1, 37146, Note_on_c, 1, 59, 127
1, 37253, Note_off_c, 1, 59, 0
1, 37258, Note_on_c, 1, 57, 127
1, 37365, Note_off_c, 1, 57, 0
1, 37473, Note_off_c, 1, 64, 0
1, 37480, Note_on_c, 1, 69, 127
1, 37480, Note_on_c, 1, 57, 127
1, 37703, Note_on_c, 1, 73, 127
1, 37922, Note_off_c, 1, 73, 0
1, 37926, Note_on_c, 1, 76, 127
1, 38145, Note_off_c, 1, 76, 0
1, 38149, Note_on_c, 1, 81, 127
1, 38149, Note_on_c, 1, 61, 127
1, 38368, Note_off_c, 1, 81, 0
1, 38371, Note_on_c, 1, 80, 127
1, 38590, Note_off_c, 1, 80, 0
1, 38813, Note_off_c, 1, 61, 0
1, 38817, Note_on_c, 1, 62, 127
1, 38928, Note_on_c, 1, 78, 127
1, 39035, Note_off_c, 1, 78, 0
1, 39704, Note_off_c, 1, 62, 0
1, 39930, Note_on_c, 1, 59, 127
1, 40149, Note_off_c, 1, 59, 0
1, 40376, Note_on_c, 1, 74, 127
1, 40595, Note_off_c, 1, 74, 0
1, 41482, Note_off_c, 1, 69, 0
1, 42150, Note_off_c, 1, 57, 0
1, 42158, Note_on_c, 1, 56, 127
1, 42767, Note_off_c, 1, 56, 0
1, 42826, Note_on_c, 1, 45, 127
1, 42826, Note_on_c, 1, 73, 127
1, 43045, Note_off_c, 1, 45, 0
1, 43045, Note_off_c, 1, 73, 0
1, 43048, Note_on_c, 1, 49, 127
1, 43048, Note_on_c, 1, 69, 127
1, 43267, Note_off_c, 1, 49, 0
1, 43267, Note_off_c, 1, 69, 0
1, 43271, Note_on_c, 1, 52, 127
1, 43271, Note_on_c, 1, 71, 127
1, 43490, Note_off_c, 1, 52, 0
1, 43490, Note_off_c, 1, 71, 0
1, 43494, Note_on_c, 1, 57, 127
1, 43496, Note_on_c, 1, 73, 127
1, 43595, Note_on_c, 1, 71, 127
1, 43603, Note_off_c, 1, 73, 0
1, 43702, Note_off_c, 1, 71, 0
1, 43713, Note_off_c, 1, 57, 0
1, 43717, Note_on_c, 1, 56, 127
1, 43936, Note_off_c, 1, 56, 0
1, 44162, Note_on_c, 1, 51, 127
1, 44608, Note_on_c, 1, 54, 127
1, 44608, Note_on_c, 1, 69, 127
1, 44827, Note_off_c, 1, 54, 0
1, 44827, Note_off_c, 1, 69, 0
1, 44830, Note_on_c, 1, 68, 127
1, 44830, Note_on_c, 1, 59, 127
1, 45049, Note_off_c, 1, 68, 0
1, 45276, Note_on_c, 1, 66, 127
1, 45494, Note_off_c, 1, 59, 0
1, 45495, Note_off_c, 1, 66, 0
1, 45496, Note_off_c, 1, 51, 0
1, 45498, Note_on_c, 1, 40, 127
1, 45498, Note_on_c, 1, 68, 127
1, 45717, Note_off_c, 1, 40, 0
1, 45717, Note_off_c, 1, 68, 0
1, 45721, Note_on_c, 1, 44, 127
1, 45721, Note_on_c, 1, 64, 127
1, 45940, Note_off_c, 1, 44, 0
1, 45940, Note_off_c, 1, 64, 0
1, 45944, Note_on_c, 1, 47, 127
1, 45944, Note_on_c, 1, 66, 127
1, 46163, Note_off_c, 1, 47, 0
1, 46163, Note_off_c, 1, 66, 0
1, 46167, Note_on_c, 1, 68, 127
1, 46167, Note_on_c, 1, 52, 127
1, 46274, Note_off_c, 1, 68, 0
1, 46288, Note_on_c, 1, 66, 127
1, 46386, Note_off_c, 1, 52, 0
1, 46389, Note_on_c, 1, 51, 127
1, 46395, Note_off_c, 1, 66, 0
1, 46608, Note_off_c, 1, 51, 0
1, 46835, Note_on_c, 1, 45, 127
1, 47057, Note_on_c, 1, 69, 127
1, 47276, Note_off_c, 1, 69, 0
1, 47280, Note_on_c, 1, 71, 127
1, 47499, Note_off_c, 1, 71, 0
1, 47503, Note_on_c, 1, 73, 127
1, 47503, Note_on_c, 1, 57, 127
1, 47938, Note_off_c, 1, 73, 0
1, 48169, Note_off_c, 1, 45, 0
1, 48171, Note_on_c, 1, 59, 127
1, 48171, Note_on_c, 1, 47, 127
1, 48394, Note_on_c, 1, 63, 127
1, 48613, Note_off_c, 1, 63, 0
1, 48837, Note_off_c, 1, 57, 0
1, 48839, Note_on_c, 1, 56, 127
1, 49505, Note_off_c, 1, 59, 0
1, 49507, Note_on_c, 1, 61, 127
1, 49730, Note_on_c, 1, 64, 127
1, 50112, Note_off_c, 1, 64, 0
1, 50394, Note_off_c, 1, 56, 0
1, 50398, Note_on_c, 1, 54, 127
1, 50617, Note_off_c, 1, 54, 0
1, 50841, Note_off_c, 1, 61, 0
1, 51946, Note_off_c, 1, 47, 0
1, 51957, Note_on_c, 1, 42, 127
1, 52176, Note_off_c, 1, 42, 0
1, 52180, Note_on_c, 1, 43, 127
1, 53067, Note_off_c, 1, 43, 0
1, 53071, Note_on_c, 1, 67, 127
1, 53516, Note_on_c, 1, 48, 127
1, 53680, Note_off_c, 1, 67, 0
1, 53962, Note_on_c, 1, 55, 127
1, 54181, Note_off_c, 1, 55, 0
1, 54850, Note_off_c, 1, 48, 0
1, 54853, Note_on_c, 1, 63, 127
1, 54853, Note_on_c, 1, 57, 127
1, 54853, Note_on_c, 1, 47, 127
1, 55072, Note_off_c, 1, 63, 0
1, 55075, Note_on_c, 1, 61, 127
1, 55294, Note_off_c, 1, 61, 0
1, 55298, Note_on_c, 1, 59, 127
1, 55517, Note_off_c, 1, 59, 0
1, 55521, Note_on_c, 1, 72, 127
1, 55688, Note_off_c, 1, 57, 0
1, 55740, Note_off_c, 1, 47, 0
1, 55740, Note_off_c, 1, 72, 0
1, 55744, Note_on_c, 1, 49, 127
1, 55744, Note_on_c, 1, 56, 127
1, 55744, Note_on_c, 1, 71, 127
1, 55963, Note_off_c, 1, 49, 0
1, 55963, Note_off_c, 1, 56, 0
1, 55963, Note_off_c, 1, 71, 0
1, 55966, Note_on_c, 1, 51, 127
1, 55966, Note_on_c, 1, 54, 127
1, 55966, Note_on_c, 1, 70, 127
1, 56185, Note_off_c, 1, 51, 0
1, 56185, Note_off_c, 1, 54, 0
1, 56185, Note_off_c, 1, 70, 0
1, 56189, Note_on_c, 1, 69, 127
1, 56189, Note_on_c, 1, 52, 127
1, 56408, Note_off_c, 1, 69, 0
1, 56412, Note_on_c, 1, 68, 127
1, 56631, Note_off_c, 1, 68, 0
1, 56634, Note_on_c, 1, 46, 127
1, 56634, Note_on_c, 1, 67, 127
1, 56853, Note_off_c, 1, 46, 0
1, 56853, Note_off_c, 1, 67, 0
1, 56857, Note_on_c, 1, 66, 127
1, 56857, Note_on_c, 1, 47, 127
1, 56964, Note_off_c, 1, 66, 0
1, 57076, Note_off_c, 1, 52, 0
1, 57080, Note_on_c, 1, 51, 127
1, 57299, Note_off_c, 1, 51, 0
1, 57303, Note_on_c, 1, 57, 127
1, 57303, Note_on_c, 1, 63, 127
1, 57518, Note_off_c, 1, 47, 0
1, 57522, Note_off_c, 1, 57, 0
1, 57522, Note_off_c, 1, 63, 0
1, 57525, Note_on_c, 1, 64, 127
1, 57525, Note_on_c, 1, 56, 127
1, 57525, Note_on_c, 1, 49, 127
1, 57612, Note_on_c, 1, 63, 127
1, 57634, Note_off_c, 1, 64, 0
1, 57723, Note_off_c, 1, 63, 0
1, 57756, Note_off_c, 1, 56, 0
1, 57760, Note_on_c, 1, 52, 127
1, 57989, Note_off_c, 1, 52, 0
1, 58226, Note_on_c, 1, 57, 127
1, 58455, Note_off_c, 1, 57, 0
1, 58923, Note_off_c, 1, 49, 0
1, 58926, Note_on_c, 1, 44, 127
1, 59392, Note_on_c, 1, 59, 127
1, 59621, Note_off_c, 1, 59, 0
1, 59625, Note_on_c, 1, 62, 127
1, 59854, Note_off_c, 1, 62, 0
1, 59859, Note_on_c, 1, 61, 127
1, 60088, Note_off_c, 1, 61, 0
1, 60321, Note_off_c, 1, 44, 0
1, 60325, Note_on_c, 1, 45, 127
1, 61820, Note_on_c, 1, 60, 127
1, 62324, Note_off_c, 1, 60, 0
1, 62327, Note_off_c, 1, 45, 0
1, 62331, Note_on_c, 1, 56, 127
1, 62331, Note_on_c, 1, 64, 127
1, 62331, Note_on_c, 1, 59, 127
1, 62331, Note_on_c, 1, 40, 127
1, 64754, Note_off_c, 1, 56, 0
1, 64754, Note_off_c, 1, 64, 0
1, 64754, Note_off_c, 1, 59, 0
1, 64754, Note_off_c, 1, 40, 0
1, 65668, Note_on_c, 1, 64, 127
1, 65918, Note_off_c, 1, 64, 0
1, 65973, Note_on_c, 1, 66, 127
1, 66115, Note_off_c, 1, 66, 0
1, 66124, Note_on_c, 1, 64, 127
1, 66266, Note_off_c, 1, 64, 0
1, 66276, Note_on_c, 1, 66, 127
1, 66670, Note_off_c, 1, 66, 0
1, 66732, Note_on_c, 1, 59, 127
1, 66874, Note_off_c, 1, 59, 0
1, 66883, Note_on_c, 1, 61, 127
1, 67025, Note_off_c, 1, 61, 0
1, 67034, Note_on_c, 1, 63, 127
1, 67176, Note_off_c, 1, 63, 0
1, 67186, Note_on_c, 1, 64, 127
1, 67328, Note_off_c, 1, 64, 0
1, 67337, Note_on_c, 1, 63, 127
1, 67479, Note_off_c, 1, 63, 0
1, 67489, Note_on_c, 1, 64, 127
1, 67631, Note_off_c, 1, 64, 0
1, 67640, Note_on_c, 1, 66, 127
1, 67782, Note_off_c, 1, 66, 0
1, 67791, Note_on_c, 1, 68, 127
1, 67933, Note_off_c, 1, 68, 0
1, 67943, Note_on_c, 1, 69, 127
1, 68085, Note_off_c, 1, 69, 0
1, 68094, Note_on_c, 1, 71, 127
1, 68245, Note_on_c, 1, 68, 127
1, 68344, Note_off_c, 1, 71, 0
1, 68387, Note_off_c, 1, 68, 0
1, 68399, Note_on_c, 1, 73, 127
1, 68399, Note_on_c, 1, 64, 127
1, 68541, Note_off_c, 1, 73, 0
1, 68541, Note_off_c, 1, 64, 0
1, 68550, Note_on_c, 1, 71, 127
1, 68550, Note_on_c, 1, 63, 127
1, 68692, Note_off_c, 1, 71, 0
1, 68692, Note_off_c, 1, 63, 0
1, 68701, Note_on_c, 1, 64, 127
1, 68701, Note_on_c, 1, 73, 127
1, 68843, Note_off_c, 1, 64, 0
1, 68853, Note_on_c, 1, 66, 127
1, 68995, Note_off_c, 1, 66, 0
1, 69095, Note_off_c, 1, 73, 0
1, 69155, Note_on_c, 1, 66, 127
1, 69155, Note_on_c, 1, 63, 127
1, 69297, Note_off_c, 1, 66, 0
1, 69297, Note_off_c, 1, 63, 0
1, 69307, Note_on_c, 1, 68, 127
1, 69307, Note_on_c, 1, 64, 127
1, 69449, Note_off_c, 1, 68, 0
1, 69449, Note_off_c, 1, 64, 0
1, 69458, Note_on_c, 1, 70, 127
1, 69458, Note_on_c, 1, 66, 127
1, 69600, Note_off_c, 1, 70, 0
1, 69600, Note_off_c, 1, 66, 0
1, 69610, Note_on_c, 1, 71, 127
1, 69610, Note_on_c, 1, 63, 127
1, 69752, Note_off_c, 1, 71, 0
1, 69752, Note_off_c, 1, 63, 0
1, 69761, Note_on_c, 1, 70, 127
1, 69761, Note_on_c, 1, 61, 127
1, 69903, Note_off_c, 1, 70, 0
1, 69903, Note_off_c, 1, 61, 0
1, 69912, Note_on_c, 1, 71, 127
1, 69912, Note_on_c, 1, 63, 127
1, 70054, Note_off_c, 1, 71, 0
1, 70054, Note_off_c, 1, 63, 0
1, 70064, Note_on_c, 1, 73, 127
1, 70064, Note_on_c, 1, 64, 127
1, 70206, Note_off_c, 1, 73, 0
1, 70206, Note_off_c, 1, 64, 0
1, 70215, Note_on_c, 1, 75, 127
1, 70215, Note_on_c, 1, 66, 127
1, 70357, Note_off_c, 1, 75, 0
1, 70357, Note_off_c, 1, 66, 0
1, 70366, Note_on_c, 1, 76, 127
1, 70366, Note_on_c, 1, 68, 127
1, 70508, Note_off_c, 1, 76, 0
1, 70508, Note_off_c, 1, 68, 0
1, 70518, Note_on_c, 1, 78, 127
1, 70518, Note_on_c, 1, 69, 127
1, 70660, Note_off_c, 1, 78, 0
1, 70660, Note_off_c, 1, 69, 0
1, 70669, Note_on_c, 1, 75, 127
1, 70669, Note_on_c, 1, 66, 127
1, 70811, Note_off_c, 1, 75, 0
1, 70811, Note_off_c, 1, 66, 0
1, 70821, Note_on_c, 1, 71, 127
1, 70821, Note_on_c, 1, 68, 127
1, 70963, Note_off_c, 1, 71, 0
1, 70972, Note_on_c, 1, 69, 127
1, 71114, Note_off_c, 1, 69, 0
1, 71122, Note_off_c, 1, 68, 0
1, 71125, Note_on_c, 1, 71, 127
1, 71125, Note_on_c, 1, 59, 127
1, 71267, Note_off_c, 1, 71, 0
1, 71276, Note_on_c, 1, 73, 127
1, 71375, Note_off_c, 1, 59, 0
1, 71418, Note_off_c, 1, 73, 0
1, 71430, Note_on_c, 1, 71, 127
1, 71430, Note_on_c, 1, 64, 127
1, 71572, Note_off_c, 1, 71, 0
1, 71581, Note_on_c, 1, 69, 127
1, 71723, Note_off_c, 1, 69, 0
1, 71732, Note_on_c, 1, 52, 127
1, 71884, Note_on_c, 1, 73, 127
1, 72026, Note_off_c, 1, 73, 0
1, 72033, Note_off_c, 1, 52, 0
1, 72037, Note_on_c, 1, 54, 127
1, 72179, Note_off_c, 1, 54, 0
1, 72188, Note_on_c, 1, 68, 127
1, 72330, Note_off_c, 1, 68, 0
1, 72338, Note_off_c, 1, 64, 0
1, 72341, Note_on_c, 1, 69, 127
1, 72341, Note_on_c, 1, 63, 127
1, 72341, Note_on_c, 1, 54, 127
1, 72483, Note_off_c, 1, 69, 0
1, 72493, Note_on_c, 1, 71, 127
1, 72611, Note_off_c, 1, 63, 0
1, 72635, Note_off_c, 1, 71, 0
1, 72646, Note_on_c, 1, 66, 127
1, 72753, Note_off_c, 1, 54, 0
1, 72797, Note_on_c, 1, 68, 127
1, 72797, Note_on_c, 1, 47, 127
1, 72939, Note_off_c, 1, 68, 0
1, 72939, Note_off_c, 1, 47, 0
1, 72949, Note_on_c, 1, 49, 127
1, 73091, Note_off_c, 1, 49, 0
1, 73100, Note_on_c, 1, 51, 127
1, 73242, Note_off_c, 1, 51, 0
1, 73251, Note_on_c, 1, 52, 127
1, 73393, Note_off_c, 1, 52, 0
1, 73401, Note_off_c, 1, 66, 0
1, 73405, Note_on_c, 1, 66, 127
1, 73405, Note_on_c, 1, 51, 127
1, 73547, Note_off_c, 1, 66, 0
1, 73547, Note_off_c, 1, 51, 0
1, 73556, Note_on_c, 1, 68, 127
1, 73556, Note_on_c, 1, 52, 127
1, 73556, Note_on_c, 1, 59, 127
1, 73698, Note_off_c, 1, 68, 0
1, 73698, Note_off_c, 1, 52, 0
1, 73707, Note_on_c, 1, 70, 127
1, 73707, Note_on_c, 1, 54, 127
1, 73849, Note_off_c, 1, 70, 0
1, 73849, Note_off_c, 1, 54, 0
1, 73857, Note_off_c, 1, 59, 0
1, 73860, Note_on_c, 1, 56, 127
1, 73860, Note_on_c, 1, 64, 127
1, 73860, Note_on_c, 1, 71, 127
1, 74002, Note_off_c, 1, 56, 0
1, 74012, Note_on_c, 1, 57, 127
1, 74154, Note_off_c, 1, 57, 0
1, 74161, Note_off_c, 1, 64, 0
1, 74165, Note_on_c, 1, 59, 127
1, 74165, Note_on_c, 1, 63, 127
1, 74307, Note_off_c, 1, 59, 0
1, 74466, Note_off_c, 1, 63, 0
1, 74469, Note_on_c, 1, 52, 127
1, 74469, Note_on_c, 1, 61, 127
1, 74611, Note_off_c, 1, 52, 0
1, 74621, Note_on_c, 1, 51, 127
1, 74763, Note_off_c, 1, 51, 0
1, 74924, Note_on_c, 1, 54, 127
1, 75066, Note_off_c, 1, 54, 0
1, 75072, Note_off_c, 1, 71, 0
1, 75077, Note_on_c, 1, 70, 127
1, 75680, Note_off_c, 1, 61, 0
1, 75680, Note_off_c, 1, 70, 0
1, 75684, Note_on_c, 1, 51, 127
1, 75684, Note_on_c, 1, 59, 127
1, 75684, Note_on_c, 1, 71, 127
1, 75826, Note_off_c, 1, 51, 0
1, 75835, Note_on_c, 1, 49, 127
1, 75977, Note_off_c, 1, 49, 0
1, 75985, Note_off_c, 1, 59, 0
1, 75988, Note_on_c, 1, 83, 127
1, 76140, Note_on_c, 1, 52, 127
1, 76282, Note_off_c, 1, 52, 0
1, 76289, Note_off_c, 1, 83, 0
1, 76293, Note_on_c, 1, 54, 127
1, 76293, Note_on_c, 1, 75, 127
1, 76435, Note_off_c, 1, 54, 0
1, 76444, Note_on_c, 1, 56, 127
1, 76586, Note_off_c, 1, 56, 0
1, 76594, Note_off_c, 1, 75, 0
1, 76597, Note_on_c, 1, 57, 127
1, 76597, Note_on_c, 1, 78, 127
1, 76739, Note_off_c, 1, 57, 0
1, 76900, Note_off_c, 1, 71, 0
1, 77197, Note_off_c, 1, 78, 0
1, 77205, Note_on_c, 1, 76, 127
1, 77506, Note_off_c, 1, 76, 0
1, 77509, Note_on_c, 1, 68, 127
1, 77661, Note_on_c, 1, 61, 127
1, 77803, Note_off_c, 1, 61, 0
1, 77814, Note_on_c, 1, 62, 127
1, 77956, Note_off_c, 1, 62, 0
1, 78109, Note_off_c, 1, 68, 0
1, 78118, Note_on_c, 1, 61, 127
1, 78118, Note_on_c, 1, 64, 127
1, 78260, Note_off_c, 1, 61, 0
1, 78270, Note_on_c, 1, 59, 127
1, 78412, Note_off_c, 1, 59, 0
1, 78419, Note_off_c, 1, 64, 0
1, 78423, Note_on_c, 1, 61, 127
1, 78423, Note_on_c, 1, 69, 127
1, 78423, Note_on_c, 1, 66, 127
1, 78565, Note_off_c, 1, 61, 0
1, 78574, Note_on_c, 1, 63, 127
1, 78716, Note_off_c, 1, 63, 0
1, 78724, Note_off_c, 1, 69, 0
1, 78724, Note_off_c, 1, 66, 0
1, 78727, Note_on_c, 1, 64, 127
1, 78727, Note_on_c, 1, 68, 127
1, 78869, Note_off_c, 1, 64, 0
1, 78879, Note_on_c, 1, 63, 127
1, 79021, Note_off_c, 1, 63, 0
1, 79028, Note_off_c, 1, 68, 0
1, 79032, Note_on_c, 1, 61, 127
1, 79032, Note_on_c, 1, 76, 127
1, 79032, Note_on_c, 1, 64, 127
1, 79174, Note_off_c, 1, 61, 0
1, 79183, Note_on_c, 1, 59, 127
1, 79302, Note_off_c, 1, 76, 0
1, 79325, Note_off_c, 1, 59, 0
1, 79333, Note_off_c, 1, 64, 0
1, 79336, Note_on_c, 1, 78, 127
1, 79336, Note_on_c, 1, 57, 127
1, 79336, Note_on_c, 1, 64, 127
1, 79478, Note_off_c, 1, 78, 0
1, 79478, Note_off_c, 1, 57, 0
1, 79488, Note_on_c, 1, 76, 127
1, 79488, Note_on_c, 1, 56, 127
1, 79630, Note_off_c, 1, 76, 0
1, 79630, Note_off_c, 1, 56, 0
1, 79790, Note_on_c, 1, 59, 127
1, 79932, Note_off_c, 1, 59, 0
1, 79939, Note_off_c, 1, 64, 0
1, 79943, Note_on_c, 1, 63, 127
1, 80095, Note_on_c, 1, 71, 127
1, 80237, Note_off_c, 1, 71, 0
1, 80244, Note_off_c, 1, 63, 0
1, 80248, Note_on_c, 1, 73, 127
1, 80248, Note_on_c, 1, 57, 127
1, 80248, Note_on_c, 1, 66, 127
1, 80390, Note_off_c, 1, 73, 0
1, 80390, Note_off_c, 1, 57, 0
1, 80399, Note_on_c, 1, 75, 127
1, 80399, Note_on_c, 1, 59, 127
1, 80541, Note_off_c, 1, 75, 0
1, 80541, Note_off_c, 1, 59, 0
1, 80549, Note_off_c, 1, 66, 0
1, 80552, Note_on_c, 1, 76, 127
1, 80552, Note_on_c, 1, 56, 127
1, 80552, Note_on_c, 1, 59, 127
1, 80694, Note_off_c, 1, 76, 0
1, 80704, Note_on_c, 1, 75, 127
1, 80846, Note_off_c, 1, 75, 0
1, 80853, Note_off_c, 1, 56, 0
1, 80857, Note_on_c, 1, 54, 127
1, 81008, Note_on_c, 1, 78, 127
1, 81150, Note_off_c, 1, 78, 0
1, 81158, Note_off_c, 1, 54, 0
1, 81161, Note_on_c, 1, 80, 127
1, 81161, Note_on_c, 1, 52, 127
1, 81303, Note_off_c, 1, 80, 0
1, 81313, Note_on_c, 1, 81, 127
1, 81455, Note_off_c, 1, 81, 0
1, 81462, Note_off_c, 1, 59, 0
1, 81462, Note_off_c, 1, 52, 0
1, 81466, Note_on_c, 1, 83, 127
1, 81466, Note_on_c, 1, 71, 127
1, 81466, Note_on_c, 1, 51, 127
1, 81608, Note_off_c, 1, 83, 0
1, 81617, Note_on_c, 1, 80, 127
1, 81746, Note_off_c, 1, 71, 0
1, 81759, Note_off_c, 1, 80, 0
1, 81767, Note_off_c, 1, 51, 0
1, 81770, Note_on_c, 1, 76, 127
1, 81770, Note_on_c, 1, 73, 127
1, 81770, Note_on_c, 1, 49, 127
1, 81912, Note_off_c, 1, 76, 0
1, 81912, Note_off_c, 1, 73, 0
1, 81922, Note_on_c, 1, 75, 127
1, 81922, Note_on_c, 1, 71, 127
1, 82064, Note_off_c, 1, 75, 0
1, 82064, Note_off_c, 1, 71, 0
1, 82071, Note_off_c, 1, 49, 0
1, 82075, Note_on_c, 1, 76, 127
1, 82075, Note_on_c, 1, 59, 127
1, 82075, Note_on_c, 1, 73, 127
1, 82217, Note_off_c, 1, 76, 0
1, 82226, Note_on_c, 1, 78, 127
1, 82368, Note_off_c, 1, 78, 0
1, 82376, Note_off_c, 1, 59, 0
1, 82379, Note_on_c, 1, 58, 127
1, 82529, Note_off_c, 1, 73, 0
1, 82533, Note_on_c, 1, 75, 127
1, 82533, Note_on_c, 1, 66, 127
1, 82675, Note_off_c, 1, 75, 0
1, 82675, Note_off_c, 1, 66, 0
1, 82681, Note_off_c, 1, 58, 0
1, 82686, Note_on_c, 1, 76, 127
1, 82686, Note_on_c, 1, 68, 127
1, 82686, Note_on_c, 1, 54, 127
1, 82828, Note_off_c, 1, 76, 0
1, 82828, Note_off_c, 1, 68, 0
1, 82837, Note_on_c, 1, 78, 127
1, 82837, Note_on_c, 1, 70, 127
1, 82979, Note_off_c, 1, 78, 0
1, 82979, Note_off_c, 1, 70, 0
1, 82987, Note_off_c, 1, 54, 0
1, 82990, Note_on_c, 1, 75, 127
1, 82990, Note_on_c, 1, 71, 127
1, 82990, Note_on_c, 1, 59, 127
1, 83132, Note_off_c, 1, 75, 0
1, 83132, Note_off_c, 1, 71, 0
1, 83142, Note_on_c, 1, 73, 127
1, 83142, Note_on_c, 1, 70, 127
1, 83284, Note_off_c, 1, 73, 0
1, 83284, Note_off_c, 1, 70, 0
1, 83444, Note_on_c, 1, 76, 127
1, 83586, Note_off_c, 1, 76, 0
1, 83590, Note_off_c, 1, 59, 0
1, 83597, Note_on_c, 1, 78, 127
1, 83597, Note_on_c, 1, 75, 127
1, 83739, Note_off_c, 1, 78, 0
1, 83739, Note_off_c, 1, 75, 0
1, 83749, Note_on_c, 1, 80, 127
1, 83749, Note_on_c, 1, 76, 127
1, 83891, Note_off_c, 1, 80, 0
1, 83891, Note_off_c, 1, 76, 0
1, 83900, Note_on_c, 1, 78, 127
1, 83900, Note_on_c, 1, 81, 127
1, 84042, Note_off_c, 1, 78, 0
1, 84052, Note_on_c, 1, 75, 127
1, 84194, Note_off_c, 1, 75, 0
1, 84203, Note_on_c, 1, 71, 127
1, 84345, Note_off_c, 1, 71, 0
1, 84354, Note_on_c, 1, 69, 127
1, 84496, Note_off_c, 1, 69, 0
1, 84503, Note_off_c, 1, 81, 0
1, 84507, Note_on_c, 1, 71, 127
1, 84507, Note_on_c, 1, 75, 127
1, 84649, Note_off_c, 1, 71, 0
1, 84659, Note_on_c, 1, 73, 127
1, 84757, Note_off_c, 1, 75, 0
1, 84801, Note_off_c, 1, 73, 0
1, 84812, Note_on_c, 1, 71, 127
1, 84812, Note_on_c, 1, 80, 127
1, 84954, Note_off_c, 1, 71, 0
1, 84963, Note_on_c, 1, 69, 127
1, 85105, Note_off_c, 1, 69, 0
1, 85266, Note_on_c, 1, 73, 127
1, 85408, Note_off_c, 1, 73, 0
1, 85569, Note_on_c, 1, 68, 127
1, 85711, Note_off_c, 1, 68, 0
1, 85718, Note_off_c, 1, 80, 0
1, 85722, Note_on_c, 1, 78, 127
1, 85722, Note_on_c, 1, 69, 127
1, 85864, Note_off_c, 1, 78, 0
1, 85864, Note_off_c, 1, 69, 0
1, 85873, Note_on_c, 1, 76, 127
1, 85873, Note_on_c, 1, 71, 127
1, 86015, Note_off_c, 1, 76, 0
1, 86015, Note_off_c, 1, 71, 0
1, 86025, Note_on_c, 1, 69, 127
1, 86025, Note_on_c, 1, 75, 127
1, 86167, Note_off_c, 1, 69, 0
1, 86176, Note_on_c, 1, 68, 127
1, 86318, Note_off_c, 1, 68, 0
1, 86327, Note_on_c, 1, 59, 127
1, 86479, Note_on_c, 1, 71, 127
1, 86597, Note_off_c, 1, 59, 0
1, 86621, Note_off_c, 1, 71, 0
1, 86628, Note_off_c, 1, 75, 0
1, 86632, Note_on_c, 1, 76, 127
1, 86632, Note_on_c, 1, 61, 127
1, 86632, Note_on_c, 1, 68, 127
1, 86774, Note_off_c, 1, 76, 0
1, 86774, Note_off_c, 1, 61, 0
1, 86783, Note_on_c, 1, 75, 127
1, 86783, Note_on_c, 1, 59, 127
1, 86925, Note_off_c, 1, 75, 0
1, 86925, Note_off_c, 1, 59, 0
1, 86933, Note_off_c, 1, 68, 0
1, 86936, Note_on_c, 1, 76, 127
1, 86936, Note_on_c, 1, 64, 127
1, 86936, Note_on_c, 1, 61, 127
1, 87078, Note_off_c, 1, 76, 0
1, 87088, Note_on_c, 1, 78, 127
1, 87230, Note_off_c, 1, 78, 0
1, 87237, Note_off_c, 1, 64, 0
1, 87241, Note_on_c, 1, 69, 127
1, 87390, Note_off_c, 1, 61, 0
1, 87394, Note_on_c, 1, 75, 127
1, 87394, Note_on_c, 1, 54, 127
1, 87536, Note_off_c, 1, 75, 0
1, 87536, Note_off_c, 1, 54, 0
1, 87545, Note_on_c, 1, 56, 127
1, 87687, Note_off_c, 1, 56, 0
1, 87697, Note_on_c, 1, 57, 127
1, 87839, Note_off_c, 1, 57, 0
1, 87848, Note_on_c, 1, 59, 127
1, 87990, Note_off_c, 1, 59, 0
1, 88000, Note_on_c, 1, 73, 127
1, 88142, Note_off_c, 1, 73, 0
1, 88454, Note_on_c, 1, 63, 127
1, 88596, Note_off_c, 1, 63, 0
1, 88603, Note_off_c, 1, 69, 0
1, 88607, Note_on_c, 1, 72, 127
1, 88749, Note_off_c, 1, 72, 0
1, 89061, Note_on_c, 1, 60, 127
1, 89061, Note_on_c, 1, 68, 127
1, 89203, Note_off_c, 1, 60, 0
1, 89366, Note_on_c, 1, 58, 127
1, 89508, Note_off_c, 1, 58, 0
1, 89969, Note_off_c, 1, 68, 0
1, 90277, Note_on_c, 1, 66, 127
1, 91647, Note_on_c, 1, 52, 127
1, 91789, Note_off_c, 1, 52, 0
1, 92100, Note_off_c, 1, 66, 0
1, 92104, Note_on_c, 1, 57, 127
1, 92104, Note_on_c, 1, 64, 127
1, 92104, Note_on_c, 1, 73, 127
1, 92246, Note_off_c, 1, 57, 0
1, 92256, Note_on_c, 1, 59, 127
1, 92398, Note_off_c, 1, 59, 0
1, 92405, Note_off_c, 1, 64, 0
1, 92409, Note_on_c, 1, 61, 127
1, 92409, Note_on_c, 1, 69, 127
1, 92551, Note_off_c, 1, 61, 0
1, 92710, Note_off_c, 1, 69, 0
1, 92713, Note_on_c, 1, 54, 127
1, 92713, Note_on_c, 1, 63, 127
1, 92855, Note_off_c, 1, 54, 0
1, 92865, Note_on_c, 1, 52, 127
1, 93007, Note_off_c, 1, 52, 0
1, 93008, Note_off_c, 1, 63, 0
1, 93014, Note_off_c, 1, 73, 0
1, 93018, Note_on_c, 1, 54, 127
1, 93018, Note_on_c, 1, 75, 127
1, 93018, Note_on_c, 1, 66, 127
1, 93160, Note_off_c, 1, 54, 0
1, 93169, Note_on_c, 1, 56, 127
1, 93311, Note_off_c, 1, 56, 0
1, 93319, Note_off_c, 1, 75, 0
1, 93319, Note_off_c, 1, 66, 0
1, 93322, Note_on_c, 1, 54, 127
1, 93322, Note_on_c, 1, 68, 127
1, 93322, Note_on_c, 1, 60, 127
1, 93464, Note_off_c, 1, 54, 0
1, 93474, Note_on_c, 1, 52, 127
1, 93616, Note_off_c, 1, 52, 0
1, 93623, Note_off_c, 1, 68, 0
1, 93623, Note_off_c, 1, 60, 0
1, 93627, Note_on_c, 1, 70, 127
1, 93627, Note_on_c, 1, 54, 127
1, 93627, Note_on_c, 1, 63, 127
1, 93769, Note_off_c, 1, 70, 0
1, 93769, Note_off_c, 1, 54, 0
1, 93778, Note_on_c, 1, 72, 127
1, 93778, Note_on_c, 1, 56, 127
1, 93917, Note_off_c, 1, 63, 0
1, 93920, Note_off_c, 1, 72, 0
1, 93920, Note_off_c, 1, 56, 0
1, 93931, Note_on_c, 1, 73, 127
1, 93931, Note_on_c, 1, 52, 127
1, 93931, Note_on_c, 1, 56, 127
1, 94073, Note_off_c, 1, 73, 0
1, 94083, Note_on_c, 1, 72, 127
1, 94225, Note_off_c, 1, 72, 0
1, 94232, Note_off_c, 1, 52, 0
1, 94236, Note_on_c, 1, 51, 127
1, 94387, Note_on_c, 1, 75, 127
1, 94529, Note_off_c, 1, 75, 0
1, 94537, Note_off_c, 1, 51, 0
1, 94540, Note_on_c, 1, 76, 127
1, 94540, Note_on_c, 1, 49, 127
1, 94682, Note_off_c, 1, 76, 0
1, 94692, Note_on_c, 1, 78, 127
1, 94834, Note_off_c, 1, 78, 0
1, 94841, Note_off_c, 1, 49, 0
1, 94842, Note_off_c, 1, 56, 0
1, 94845, Note_on_c, 1, 80, 127
1, 94845, Note_on_c, 1, 52, 127
1, 94987, Note_off_c, 1, 80, 0
1, 94996, Note_on_c, 1, 76, 127
1, 95138, Note_off_c, 1, 76, 0
1, 95146, Note_off_c, 1, 52, 0
1, 95149, Note_on_c, 1, 73, 127
1, 95149, Note_on_c, 1, 46, 127
1, 95291, Note_off_c, 1, 73, 0
1, 95301, Note_on_c, 1, 71, 127
1, 95443, Note_off_c, 1, 71, 0
1, 95450, Note_off_c, 1, 46, 0
1, 95454, Note_on_c, 1, 73, 127
1, 95454, Note_on_c, 1, 56, 127
1, 95596, Note_off_c, 1, 73, 0
1, 95605, Note_on_c, 1, 75, 127
1, 95747, Note_off_c, 1, 75, 0
1, 95755, Note_off_c, 1, 56, 0
1, 95758, Note_on_c, 1, 73, 127
1, 95758, Note_on_c, 1, 55, 127
1, 95758, Note_on_c, 1, 58, 127
1, 95900, Note_off_c, 1, 73, 0
1, 95910, Note_on_c, 1, 71, 127
1, 96052, Note_off_c, 1, 71, 0
1, 96059, Note_off_c, 1, 55, 0
1, 96063, Note_on_c, 1, 51, 127
1, 96214, Note_on_c, 1, 75, 127
1, 96356, Note_off_c, 1, 75, 0
1, 96364, Note_off_c, 1, 51, 0
1, 96367, Note_on_c, 1, 44, 127
1, 96519, Note_on_c, 1, 70, 127
1, 96661, Note_off_c, 1, 70, 0
1, 96668, Note_off_c, 1, 44, 0
1, 96672, Note_on_c, 1, 46, 127
1, 96972, Note_off_c, 1, 58, 0
1, 96973, Note_off_c, 1, 46, 0
1, 96976, Note_on_c, 1, 75, 127
1, 96976, Note_on_c, 1, 47, 127
1, 96976, Note_on_c, 1, 56, 127
1, 97118, Note_off_c, 1, 75, 0
1, 97128, Note_on_c, 1, 76, 127
1, 97270, Note_off_c, 1, 76, 0
1, 97277, Note_off_c, 1, 47, 0
1, 97281, Note_on_c, 1, 78, 127
1, 97281, Note_on_c, 1, 46, 127
1, 97423, Note_off_c, 1, 78, 0
1, 97578, Note_off_c, 1, 56, 0
1, 97582, Note_off_c, 1, 46, 0
1, 97585, Note_on_c, 1, 71, 127
1, 97585, Note_on_c, 1, 44, 127
1, 97727, Note_off_c, 1, 71, 0
1, 97737, Note_on_c, 1, 69, 127
1, 97879, Note_off_c, 1, 69, 0
1, 97886, Note_off_c, 1, 44, 0
1, 97890, Note_on_c, 1, 71, 127
1, 97890, Note_on_c, 1, 54, 127
1, 98032, Note_off_c, 1, 71, 0
1, 98041, Note_on_c, 1, 73, 127
1, 98183, Note_off_c, 1, 73, 0
1, 98191, Note_off_c, 1, 54, 0
1, 98194, Note_on_c, 1, 71, 127
1, 98194, Note_on_c, 1, 53, 127
1, 98194, Note_on_c, 1, 56, 127
1, 98336, Note_off_c, 1, 71, 0
1, 98346, Note_on_c, 1, 69, 127
1, 98488, Note_off_c, 1, 69, 0
1, 98495, Note_off_c, 1, 53, 0
1, 98499, Note_on_c, 1, 49, 127
1, 98650, Note_on_c, 1, 73, 127
1, 98792, Note_off_c, 1, 73, 0
1, 98800, Note_off_c, 1, 49, 0
1, 98803, Note_on_c, 1, 42, 127
1, 98955, Note_on_c, 1, 68, 127
1, 99097, Note_off_c, 1, 68, 0
1, 99104, Note_off_c, 1, 42, 0
1, 99108, Note_on_c, 1, 44, 127
1, 99408, Note_off_c, 1, 56, 0
1, 99409, Note_off_c, 1, 44, 0
1, 99412, Note_on_c, 1, 73, 127
1, 99412, Note_on_c, 1, 45, 127
1, 99412, Note_on_c, 1, 54, 127
1, 99554, Note_off_c, 1, 73, 0
1, 99564, Note_on_c, 1, 75, 127
1, 99706, Note_off_c, 1, 75, 0
1, 99713, Note_off_c, 1, 45, 0
1, 99717, Note_on_c, 1, 76, 127
1, 99717, Note_on_c, 1, 44, 127
1, 99859, Note_off_c, 1, 76, 0
1, 100014, Note_off_c, 1, 54, 0
1, 100018, Note_off_c, 1, 44, 0
1, 100021, Note_on_c, 1, 75, 127
1, 100021, Note_on_c, 1, 42, 127
1, 100163, Note_off_c, 1, 75, 0
1, 100173, Note_on_c, 1, 73, 127
1, 100315, Note_off_c, 1, 73, 0
1, 100322, Note_off_c, 1, 42, 0
1, 100326, Note_on_c, 1, 75, 127
1, 100326, Note_on_c, 1, 52, 127
1, 100468, Note_off_c, 1, 75, 0
1, 100477, Note_on_c, 1, 76, 127
1, 100619, Note_off_c, 1, 76, 0
1, 100627, Note_off_c, 1, 52, 0
1, 100630, Note_on_c, 1, 78, 127
1, 100630, Note_on_c, 1, 51, 127
1, 100630, Note_on_c, 1, 54, 127
1, 100772, Note_off_c, 1, 78, 0
1, 100782, Note_on_c, 1, 80, 127
1, 100924, Note_off_c, 1, 80, 0
1, 100931, Note_off_c, 1, 51, 0
1, 100935, Note_on_c, 1, 81, 127
1, 100935, Note_on_c, 1, 49, 127
1, 101077, Note_off_c, 1, 81, 0
1, 101236, Note_off_c, 1, 49, 0
1, 101239, Note_on_c, 1, 48, 127
1, 101540, Note_off_c, 1, 48, 0
1, 101544, Note_on_c, 1, 76, 127
1, 101544, Note_on_c, 1, 44, 127
1, 101686, Note_off_c, 1, 76, 0
1, 101695, Note_on_c, 1, 75, 127
1, 101837, Note_off_c, 1, 75, 0
1, 101844, Note_off_c, 1, 54, 0
1, 101845, Note_off_c, 1, 44, 0
1, 101848, Note_on_c, 1, 73, 127
1, 101848, Note_on_c, 1, 52, 127
1, 101848, Note_on_c, 1, 45, 127
1, 101990, Note_off_c, 1, 73, 0
1, 102000, Note_on_c, 1, 71, 127
1, 102142, Note_off_c, 1, 71, 0
1, 102149, Note_off_c, 1, 52, 0
1, 102149, Note_off_c, 1, 45, 0
1, 102153, Note_on_c, 1, 69, 127
1, 102153, Note_on_c, 1, 61, 127
1, 102153, Note_on_c, 1, 52, 127
1, 102295, Note_off_c, 1, 69, 0
1, 102304, Note_on_c, 1, 68, 127
1, 102446, Note_off_c, 1, 68, 0
1, 102454, Note_off_c, 1, 61, 0
1, 102454, Note_off_c, 1, 52, 0
1, 102457, Note_on_c, 1, 66, 127
1, 102457, Note_on_c, 1, 54, 127
1, 102457, Note_on_c, 1, 63, 127
1, 102599, Note_off_c, 1, 66, 0
1, 102599, Note_off_c, 1, 54, 0
1, 102609, Note_on_c, 1, 68, 127
1, 102609, Note_on_c, 1, 52, 127
1, 102751, Note_off_c, 1, 68, 0
1, 102751, Note_off_c, 1, 52, 0
1, 102760, Note_on_c, 1, 69, 127
1, 102902, Note_off_c, 1, 69, 0
1, 103057, Note_off_c, 1, 63, 0
1, 103065, Note_on_c, 1, 56, 127
1, 103065, Note_on_c, 1, 63, 127
1, 103207, Note_off_c, 1, 56, 0
1, 103366, Note_off_c, 1, 63, 0
1, 103369, Note_on_c, 1, 58, 127
1, 103369, Note_on_c, 1, 68, 127
1, 103369, Note_on_c, 1, 44, 127
1, 103511, Note_off_c, 1, 58, 0
1, 103520, Note_on_c, 1, 60, 127
1, 103662, Note_off_c, 1, 60, 0
1, 103670, Note_off_c, 1, 68, 0
1, 103670, Note_off_c, 1, 44, 0
1, 103674, Note_on_c, 1, 61, 127
1, 103674, Note_on_c, 1, 64, 127
1, 103674, Note_on_c, 1, 49, 127
1, 103816, Note_off_c, 1, 61, 0
1, 103825, Note_on_c, 1, 60, 127
1, 103967, Note_off_c, 1, 60, 0
1, 103975, Note_off_c, 1, 64, 0
1, 103978, Note_on_c, 1, 68, 127
1, 104117, Note_off_c, 1, 49, 0
1, 104129, Note_on_c, 1, 63, 127
1, 104228, Note_off_c, 1, 68, 0
1, 104271, Note_off_c, 1, 63, 0
1, 104283, Note_on_c, 1, 64, 127
1, 104283, Note_on_c, 1, 73, 127
1, 104425, Note_off_c, 1, 64, 0
1, 104434, Note_on_c, 1, 66, 127
1, 104576, Note_off_c, 1, 66, 0
1, 104584, Note_off_c, 1, 73, 0
1, 104587, Note_on_c, 1, 68, 127
1, 104587, Note_on_c, 1, 71, 127
1, 104729, Note_off_c, 1, 68, 0
1, 104738, Note_on_c, 1, 64, 127
1, 104837, Note_off_c, 1, 71, 0
1, 104880, Note_off_c, 1, 64, 0
1, 104892, Note_on_c, 1, 76, 127
1, 104892, Note_on_c, 1, 61, 127
1, 105034, Note_off_c, 1, 76, 0
1, 105034, Note_off_c, 1, 61, 0
1, 105043, Note_on_c, 1, 75, 127
1, 105043, Note_on_c, 1, 59, 127
1, 105185, Note_off_c, 1, 75, 0
1, 105185, Note_off_c, 1, 59, 0
1, 105194, Note_on_c, 1, 73, 127
1, 105194, Note_on_c, 1, 61, 127
1, 105336, Note_off_c, 1, 73, 0
1, 105336, Note_off_c, 1, 61, 0
1, 105346, Note_on_c, 1, 71, 127
1, 105346, Note_on_c, 1, 63, 127
1, 105488, Note_off_c, 1, 71, 0
1, 105488, Note_off_c, 1, 63, 0
1, 105497, Note_on_c, 1, 61, 127
1, 105497, Note_on_c, 1, 69, 127
1, 105639, Note_off_c, 1, 61, 0
1, 105648, Note_on_c, 1, 59, 127
1, 105790, Note_off_c, 1, 59, 0
1, 105951, Note_on_c, 1, 63, 127
1, 106093, Note_off_c, 1, 63, 0
1, 106254, Note_on_c, 1, 56, 127
1, 106396, Note_off_c, 1, 56, 0
1, 106403, Note_off_c, 1, 69, 0
1, 106407, Note_on_c, 1, 57, 127
1, 106407, Note_on_c, 1, 63, 127
1, 106549, Note_off_c, 1, 57, 0
1, 106558, Note_on_c, 1, 59, 127
1, 106657, Note_off_c, 1, 63, 0
1, 106700, Note_off_c, 1, 59, 0
1, 106712, Note_on_c, 1, 61, 127
1, 106712, Note_on_c, 1, 69, 127
1, 106854, Note_off_c, 1, 61, 0
1, 106863, Note_on_c, 1, 63, 127
1, 107005, Note_off_c, 1, 63, 0
1, 107013, Note_off_c, 1, 69, 0
1, 107016, Note_on_c, 1, 64, 127
1, 107016, Note_on_c, 1, 68, 127
1, 107158, Note_off_c, 1, 64, 0
1, 107167, Note_on_c, 1, 61, 127
1, 107266, Note_off_c, 1, 68, 0
1, 107309, Note_off_c, 1, 61, 0
1, 107321, Note_on_c, 1, 73, 127
1, 107321, Note_on_c, 1, 57, 127
1, 107463, Note_off_c, 1, 73, 0
1, 107463, Note_off_c, 1, 57, 0
1, 107472, Note_on_c, 1, 71, 127
1, 107472, Note_on_c, 1, 56, 127
1, 107614, Note_off_c, 1, 71, 0
1, 107614, Note_off_c, 1, 56, 0
1, 107623, Note_on_c, 1, 69, 127
1, 107623, Note_on_c, 1, 57, 127
1, 107765, Note_off_c, 1, 69, 0
1, 107765, Note_off_c, 1, 57, 0
1, 107775, Note_on_c, 1, 68, 127
1, 107775, Note_on_c, 1, 59, 127
1, 107917, Note_off_c, 1, 68, 0
1, 107917, Note_off_c, 1, 59, 0
1, 107926, Note_on_c, 1, 57, 127
1, 107926, Note_on_c, 1, 66, 127
1, 108068, Note_off_c, 1, 57, 0
1, 108077, Note_on_c, 1, 56, 127
1, 108219, Note_off_c, 1, 56, 0
1, 108380, Note_on_c, 1, 59, 127
1, 108522, Note_off_c, 1, 59, 0
1, 108683, Note_on_c, 1, 54, 127
1, 108825, Note_off_c, 1, 54, 0
1, 108834, Note_on_c, 1, 64, 127
1, 108839, Note_off_c, 1, 66, 0
1, 108976, Note_off_c, 1, 64, 0
1, 108986, Note_on_c, 1, 63, 127
1, 108986, Note_on_c, 1, 57, 127
1, 109128, Note_off_c, 1, 63, 0
1, 109128, Note_off_c, 1, 57, 0
1, 109137, Note_on_c, 1, 64, 127
1, 109137, Note_on_c, 1, 56, 127
1, 109279, Note_off_c, 1, 64, 0
1, 109289, Note_on_c, 1, 66, 127
1, 109427, Note_off_c, 1, 56, 0
1, 109431, Note_off_c, 1, 66, 0
1, 109442, Note_on_c, 1, 68, 127
1, 109442, Note_on_c, 1, 52, 127
1, 109442, Note_on_c, 1, 59, 127
1, 109584, Note_off_c, 1, 68, 0
1, 109593, Note_on_c, 1, 64, 127
1, 109735, Note_off_c, 1, 64, 0
1, 109743, Note_off_c, 1, 52, 0
1, 109746, Note_on_c, 1, 61, 127
1, 109746, Note_on_c, 1, 54, 127
1, 109888, Note_off_c, 1, 61, 0
1, 109888, Note_off_c, 1, 54, 0
1, 110047, Note_off_c, 1, 59, 0
1, 110051, Note_on_c, 1, 66, 127
1, 110051, Note_on_c, 1, 57, 127
1, 110051, Note_on_c, 1, 54, 127
1, 110193, Note_off_c, 1, 66, 0
1, 110193, Note_off_c, 1, 57, 0
1, 110202, Note_on_c, 1, 64, 127
1, 110202, Note_on_c, 1, 56, 127
1, 110344, Note_off_c, 1, 64, 0
1, 110344, Note_off_c, 1, 56, 0
1, 110353, Note_on_c, 1, 63, 127
1, 110503, Note_off_c, 1, 54, 0
1, 110507, Note_on_c, 1, 61, 127
1, 110507, Note_on_c, 1, 47, 127
1, 110649, Note_off_c, 1, 61, 0
1, 110649, Note_off_c, 1, 47, 0
1, 110658, Note_on_c, 1, 59, 127
1, 110658, Note_on_c, 1, 49, 127
1, 110800, Note_off_c, 1, 59, 0
1, 110800, Note_off_c, 1, 49, 0
1, 110809, Note_on_c, 1, 51, 127
1, 110937, Note_off_c, 1, 63, 0
1, 110949, Note_off_c, 1, 51, 0
1, 110959, Note_on_c, 1, 52, 127
1, 110959, Note_on_c, 1, 56, 127
1, 111101, Note_off_c, 1, 52, 0
1, 111110, Note_on_c, 1, 59, 127
1, 111110, Note_on_c, 1, 51, 127
1, 111252, Note_off_c, 1, 59, 0
1, 111252, Note_off_c, 1, 51, 0
1, 111262, Note_on_c, 1, 61, 127
1, 111404, Note_off_c, 1, 61, 0
1, 111411, Note_off_c, 1, 56, 0
1, 111415, Note_on_c, 1, 63, 127
1, 111415, Note_on_c, 1, 54, 127
1, 111557, Note_off_c, 1, 63, 0
1, 111557, Note_off_c, 1, 54, 0
1, 111566, Note_on_c, 1, 64, 127
1, 111566, Note_on_c, 1, 56, 127
1, 111708, Note_off_c, 1, 64, 0
1, 111708, Note_off_c, 1, 56, 0
1, 111718, Note_on_c, 1, 66, 127
1, 111718, Note_on_c, 1, 57, 127
1, 111860, Note_off_c, 1, 66, 0
1, 111860, Note_off_c, 1, 57, 0
1, 111869, Note_on_c, 1, 68, 127
1, 111869, Note_on_c, 1, 59, 127
1, 112011, Note_off_c, 1, 68, 0
1, 112011, Note_off_c, 1, 59, 0
1, 112020, Note_on_c, 1, 64, 127
1, 112020, Note_on_c, 1, 56, 127
1, 112162, Note_off_c, 1, 64, 0
1, 112162, Note_off_c, 1, 56, 0
1, 112172, Note_on_c, 1, 73, 127
1, 112172, Note_on_c, 1, 52, 127
1, 112314, Note_off_c, 1, 73, 0
1, 112314, Note_off_c, 1, 52, 0
1, 112323, Note_on_c, 1, 71, 127
1, 112323, Note_on_c, 1, 51, 127
1, 112465, Note_off_c, 1, 71, 0
1, 112465, Note_off_c, 1, 51, 0
1, 112474, Note_on_c, 1, 52, 127
1, 112474, Note_on_c, 1, 73, 127
1, 112616, Note_off_c, 1, 52, 0
1, 112626, Note_on_c, 1, 54, 127
1, 112768, Note_off_c, 1, 54, 0
1, 112914, Note_off_c, 1, 73, 0
1, 112930, Note_on_c, 1, 66, 127
1, 112930, Note_on_c, 1, 51, 127
1, 113072, Note_off_c, 1, 66, 0
1, 113072, Note_off_c, 1, 51, 0
1, 113082, Note_on_c, 1, 68, 127
1, 113082, Note_on_c, 1, 52, 127
1, 113224, Note_off_c, 1, 68, 0
1, 113224, Note_off_c, 1, 52, 0
1, 113233, Note_on_c, 1, 70, 127
1, 113233, Note_on_c, 1, 54, 127
1, 113375, Note_off_c, 1, 70, 0
1, 113375, Note_off_c, 1, 54, 0
1, 113384, Note_on_c, 1, 71, 127
1, 113384, Note_on_c, 1, 51, 127
1, 113526, Note_off_c, 1, 71, 0
1, 113536, Note_on_c, 1, 70, 127
1, 113678, Note_off_c, 1, 70, 0
1, 113685, Note_off_c, 1, 51, 0
1, 113689, Note_on_c, 1, 71, 127
1, 113689, Note_on_c, 1, 54, 127
1, 113831, Note_off_c, 1, 71, 0
1, 113840, Note_on_c, 1, 73, 127
1, 113982, Note_off_c, 1, 73, 0
1, 113990, Note_off_c, 1, 54, 0
1, 113993, Note_on_c, 1, 75, 127
1, 113993, Note_on_c, 1, 47, 127
1, 114135, Note_off_c, 1, 75, 0
1, 114145, Note_on_c, 1, 76, 127
1, 114287, Note_off_c, 1, 76, 0
1, 114294, Note_off_c, 1, 47, 0
1, 114298, Note_on_c, 1, 78, 127
1, 114298, Note_on_c, 1, 64, 127
1, 114298, Note_on_c, 1, 52, 127
1, 114440, Note_off_c, 1, 78, 0
1, 114449, Note_on_c, 1, 80, 127
1, 114591, Note_off_c, 1, 80, 0
1, 114599, Note_off_c, 1, 64, 0
1, 114602, Note_on_c, 1, 69, 127
1, 114602, Note_on_c, 1, 66, 127
1, 114744, Note_off_c, 1, 69, 0
1, 114744, Note_off_c, 1, 66, 0
1, 114754, Note_on_c, 1, 68, 127
1, 114896, Note_off_c, 1, 68, 0
1, 114903, Note_off_c, 1, 52, 0
1, 114907, Note_on_c, 1, 69, 127
1, 114907, Note_on_c, 1, 51, 127
1, 114907, Note_on_c, 1, 66, 127
1, 115049, Note_off_c, 1, 69, 0
1, 115049, Note_off_c, 1, 51, 0
1, 115058, Note_on_c, 1, 71, 127
1, 115058, Note_on_c, 1, 49, 127
1, 115200, Note_off_c, 1, 71, 0
1, 115200, Note_off_c, 1, 49, 0
1, 115359, Note_off_c, 1, 66, 0
1, 115363, Note_on_c, 1, 68, 127
1, 115363, Note_on_c, 1, 59, 127
1, 115505, Note_off_c, 1, 68, 0
1, 115505, Note_off_c, 1, 59, 0
1, 115516, Note_on_c, 1, 69, 127
1, 115516, Note_on_c, 1, 61, 127
1, 115516, Note_on_c, 1, 59, 127
1, 115658, Note_off_c, 1, 69, 0
1, 115658, Note_off_c, 1, 61, 0
1, 115667, Note_on_c, 1, 71, 127
1, 115667, Note_on_c, 1, 63, 127
1, 115809, Note_off_c, 1, 71, 0
1, 115809, Note_off_c, 1, 63, 0
1, 115817, Note_off_c, 1, 59, 0
1, 115820, Note_on_c, 1, 68, 127
1, 115820, Note_on_c, 1, 64, 127
1, 115820, Note_on_c, 1, 61, 127
1, 115962, Note_off_c, 1, 68, 0
1, 115962, Note_off_c, 1, 64, 0
1, 115972, Note_on_c, 1, 66, 127
1, 115972, Note_on_c, 1, 63, 127
1, 116114, Note_off_c, 1, 66, 0
1, 116114, Note_off_c, 1, 63, 0
1, 116275, Note_on_c, 1, 69, 127
1, 116417, Note_off_c, 1, 69, 0
1, 116420, Note_off_c, 1, 61, 0
1, 116428, Note_on_c, 1, 71, 127
1, 116428, Note_on_c, 1, 68, 127
1, 116570, Note_off_c, 1, 71, 0
1, 116570, Note_off_c, 1, 68, 0
1, 116579, Note_on_c, 1, 73, 127
1, 116579, Note_on_c, 1, 69, 127
1, 116721, Note_off_c, 1, 73, 0
1, 116721, Note_off_c, 1, 69, 0
1, 116731, Note_on_c, 1, 71, 127
1, 116731, Note_on_c, 1, 56, 127
1, 116731, Note_on_c, 1, 74, 127
1, 116873, Note_off_c, 1, 71, 0
1, 116882, Note_on_c, 1, 68, 127
1, 117024, Note_off_c, 1, 68, 0
1, 117032, Note_off_c, 1, 56, 0
1, 117035, Note_on_c, 1, 64, 127
1, 117035, Note_on_c, 1, 57, 127
1, 117177, Note_off_c, 1, 64, 0
1, 117186, Note_on_c, 1, 63, 127
1, 117328, Note_off_c, 1, 63, 0
1, 117336, Note_off_c, 1, 74, 0
1, 117336, Note_off_c, 1, 57, 0
1, 117340, Note_on_c, 1, 73, 127
1, 117340, Note_on_c, 1, 64, 127
1, 117340, Note_on_c, 1, 56, 127
1, 117482, Note_off_c, 1, 73, 0
1, 117482, Note_off_c, 1, 64, 0
1, 117491, Note_on_c, 1, 71, 127
1, 117491, Note_on_c, 1, 66, 127
1, 117633, Note_off_c, 1, 71, 0
1, 117633, Note_off_c, 1, 66, 0
1, 117641, Note_off_c, 1, 56, 0
1, 117644, Note_on_c, 1, 64, 127
1, 117644, Note_on_c, 1, 57, 127
1, 117644, Note_on_c, 1, 73, 127
1, 117786, Note_off_c, 1, 64, 0
1, 117795, Note_on_c, 1, 63, 127
1, 117937, Note_off_c, 1, 63, 0
1, 117945, Note_off_c, 1, 57, 0
1, 117949, Note_on_c, 1, 52, 127
1, 118100, Note_on_c, 1, 66, 127
1, 118242, Note_off_c, 1, 66, 0
1, 118250, Note_off_c, 1, 52, 0
1, 118253, Note_on_c, 1, 54, 127
1, 118404, Note_on_c, 1, 61, 127
1, 118546, Note_off_c, 1, 61, 0
1, 118554, Note_off_c, 1, 54, 0
1, 118858, Note_off_c, 1, 73, 0
1, 118862, Note_on_c, 1, 66, 127
1, 118862, Note_on_c, 1, 56, 127
1, 118862, Note_on_c, 1, 71, 127
1, 119004, Note_off_c, 1, 66, 0
1, 119013, Note_on_c, 1, 68, 127
1, 119155, Note_off_c, 1, 68, 0
1, 119163, Note_off_c, 1, 56, 0
1, 119167, Note_on_c, 1, 69, 127
1, 119167, Note_on_c, 1, 54, 127
1, 119309, Note_off_c, 1, 69, 0
1, 119464, Note_off_c, 1, 71, 0
1, 119468, Note_off_c, 1, 54, 0
1, 119471, Note_on_c, 1, 62, 127
1, 119471, Note_on_c, 1, 52, 127
1, 119613, Note_off_c, 1, 62, 0
1, 119622, Note_on_c, 1, 61, 127
1, 119764, Note_off_c, 1, 61, 0
1, 119772, Note_off_c, 1, 52, 0
1, 119776, Note_on_c, 1, 62, 127
1, 119776, Note_on_c, 1, 54, 127
1, 119918, Note_off_c, 1, 62, 0
1, 119927, Note_on_c, 1, 64, 127
1, 120069, Note_off_c, 1, 64, 0
1, 120077, Note_off_c, 1, 54, 0
1, 120080, Note_on_c, 1, 62, 127
1, 120080, Note_on_c, 1, 56, 127
1, 120080, Note_on_c, 1, 71, 127
1, 120222, Note_off_c, 1, 62, 0
1, 120231, Note_on_c, 1, 61, 127
1, 120373, Note_off_c, 1, 61, 0
1, 120381, Note_off_c, 1, 56, 0
1, 120385, Note_on_c, 1, 52, 127
1, 120536, Note_on_c, 1, 64, 127
1, 120678, Note_off_c, 1, 64, 0
1, 120686, Note_off_c, 1, 52, 0
1, 120689, Note_on_c, 1, 57, 127
1, 120840, Note_on_c, 1, 59, 127
1, 120982, Note_off_c, 1, 59, 0
1, 120990, Note_off_c, 1, 57, 0
1, 121294, Note_off_c, 1, 71, 0
1, 121298, Note_on_c, 1, 64, 127
1, 121298, Note_on_c, 1, 61, 127
1, 121298, Note_on_c, 1, 69, 127
1, 121440, Note_off_c, 1, 64, 0
1, 121449, Note_on_c, 1, 66, 127
1, 121591, Note_off_c, 1, 66, 0
1, 121599, Note_off_c, 1, 61, 0
1, 121603, Note_on_c, 1, 68, 127
1, 121603, Note_on_c, 1, 59, 127
1, 121745, Note_off_c, 1, 68, 0
1, 121900, Note_off_c, 1, 69, 0
1, 121904, Note_off_c, 1, 59, 0
1, 121907, Note_on_c, 1, 61, 127
1, 121907, Note_on_c, 1, 57, 127
1, 122049, Note_off_c, 1, 61, 0
1, 122058, Note_on_c, 1, 59, 127
1, 122200, Note_off_c, 1, 59, 0
1, 122208, Note_off_c, 1, 57, 0
1, 122212, Note_on_c, 1, 61, 127
1, 122212, Note_on_c, 1, 52, 127
1, 122354, Note_off_c, 1, 61, 0
1, 122363, Note_on_c, 1, 62, 127
1, 122505, Note_off_c, 1, 62, 0
1, 122513, Note_off_c, 1, 52, 0
1, 122516, Note_on_c, 1, 61, 127
1, 122516, Note_on_c, 1, 54, 127
1, 122516, Note_on_c, 1, 69, 127
1, 122658, Note_off_c, 1, 61, 0
1, 122667, Note_on_c, 1, 59, 127
1, 122809, Note_off_c, 1, 59, 0
1, 122817, Note_off_c, 1, 54, 0
1, 122821, Note_on_c, 1, 49, 127
1, 122972, Note_on_c, 1, 62, 127
1, 123114, Note_off_c, 1, 62, 0
1, 123122, Note_off_c, 1, 49, 0
1, 123125, Note_on_c, 1, 51, 127
1, 123276, Note_on_c, 1, 57, 127
1, 123418, Note_off_c, 1, 57, 0
1, 123426, Note_off_c, 1, 51, 0
1, 123430, Note_on_c, 1, 47, 127
1, 123730, Note_off_c, 1, 69, 0
1, 123731, Note_off_c, 1, 47, 0
1, 123734, Note_on_c, 1, 59, 127
1, 123734, Note_on_c, 1, 68, 127
1, 123734, Note_on_c, 1, 52, 127
1, 123876, Note_off_c, 1, 59, 0
1, 123885, Note_on_c, 1, 57, 127
1, 124024, Note_off_c, 1, 68, 0
1, 124025, Note_off_c, 1, 57, 0
1, 124035, Note_on_c, 1, 76, 127
1, 124186, Note_on_c, 1, 61, 127
1, 124285, Note_off_c, 1, 76, 0
1, 124328, Note_off_c, 1, 61, 0
1, 124340, Note_on_c, 1, 78, 127
1, 124482, Note_off_c, 1, 78, 0
1, 124491, Note_on_c, 1, 56, 127
1, 124633, Note_off_c, 1, 56, 0
1, 124943, Note_off_c, 1, 52, 0
1, 124947, Note_on_c, 1, 51, 127
1, 125098, Note_on_c, 1, 71, 127
1, 125240, Note_off_c, 1, 71, 0
1, 125250, Note_on_c, 1, 73, 127
1, 125392, Note_off_c, 1, 73, 0
1, 125401, Note_on_c, 1, 75, 127
1, 125543, Note_off_c, 1, 75, 0
1, 126158, Note_off_c, 1, 51, 0
1, 126161, Note_on_c, 1, 80, 127
1, 126161, Note_on_c, 1, 52, 127
1, 126161, Note_on_c, 1, 49, 127
1, 126303, Note_off_c, 1, 80, 0
1, 126313, Note_on_c, 1, 81, 127
1, 126455, Note_off_c, 1, 81, 0
1, 126462, Note_off_c, 1, 52, 0
1, 126466, Note_on_c, 1, 83, 127
1, 126466, Note_on_c, 1, 56, 127
1, 126608, Note_off_c, 1, 83, 0
1, 126766, Note_off_c, 1, 49, 0
1, 126770, Note_on_c, 1, 42, 127
1, 127071, Note_off_c, 1, 56, 0
1, 127075, Note_on_c, 1, 54, 127
1, 127224, Note_off_c, 1, 42, 0
1, 127379, Note_on_c, 1, 51, 127
1, 127680, Note_off_c, 1, 51, 0
1, 127684, Note_on_c, 1, 47, 127
1, 127985, Note_off_c, 1, 47, 0
1, 128143, Note_on_c, 1, 78, 127
1, 128287, Note_off_c, 1, 78, 0
1, 128604, Note_off_c, 1, 54, 0
1, 128608, Note_on_c, 1, 80, 127
1, 128608, Note_on_c, 1, 49, 127
1, 128608, Note_on_c, 1, 52, 127
1, 128752, Note_off_c, 1, 80, 0
1, 128763, Note_on_c, 1, 78, 127
1, 128907, Note_off_c, 1, 78, 0
1, 128914, Note_off_c, 1, 49, 0
1, 128917, Note_on_c, 1, 76, 127
1, 128917, Note_on_c, 1, 44, 127
1, 129061, Note_off_c, 1, 76, 0
1, 129072, Note_on_c, 1, 74, 127
1, 129216, Note_off_c, 1, 74, 0
1, 129223, Note_off_c, 1, 44, 0
1, 129227, Note_on_c, 1, 73, 127
1, 129227, Note_on_c, 1, 45, 127
1, 129374, Note_off_c, 1, 73, 0
1, 129386, Note_on_c, 1, 71, 127
1, 129533, Note_off_c, 1, 71, 0
1, 129540, Note_off_c, 1, 52, 0
1, 129540, Note_off_c, 1, 45, 0
1, 129544, Note_on_c, 1, 73, 127
1, 129544, Note_on_c, 1, 64, 127
1, 129544, Note_on_c, 1, 40, 127
1, 129691, Note_off_c, 1, 73, 0
1, 129702, Note_on_c, 1, 74, 127
1, 129849, Note_off_c, 1, 74, 0
1, 129857, Note_off_c, 1, 64, 0
1, 129857, Note_off_c, 1, 40, 0
1, 129861, Note_on_c, 1, 73, 127
1, 129861, Note_on_c, 1, 42, 127
1, 129861, Note_on_c, 1, 69, 127
1, 130008, Note_off_c, 1, 73, 0
1, 130019, Note_on_c, 1, 71, 127
1, 130166, Note_off_c, 1, 71, 0
1, 130174, Note_off_c, 1, 42, 0
1, 130177, Note_on_c, 1, 37, 127
1, 130336, Note_on_c, 1, 74, 127
1, 130483, Note_off_c, 1, 74, 0
1, 130490, Note_off_c, 1, 37, 0
1, 130494, Note_on_c, 1, 39, 127
1, 130821, Note_off_c, 1, 39, 0
1, 130825, Note_on_c, 1, 75, 127
1, 130825, Note_on_c, 1, 59, 127
1, 130979, Note_off_c, 1, 75, 0
1, 131152, Note_off_c, 1, 69, 0
1, 131152, Note_off_c, 1, 59, 0
1, 131155, Note_on_c, 1, 68, 127
1, 131155, Note_on_c, 1, 61, 127
1, 131155, Note_on_c, 1, 76, 127
1, 131318, Note_off_c, 1, 68, 0
1, 131329, Note_on_c, 1, 64, 127
1, 131492, Note_off_c, 1, 64, 0
1, 131503, Note_on_c, 1, 66, 127
1, 131666, Note_off_c, 1, 66, 0
1, 131844, Note_off_c, 1, 61, 0
1, 131851, Note_on_c, 1, 69, 127
1, 132025, Note_off_c, 1, 69, 0
1, 132037, Note_on_c, 1, 71, 127
1, 132037, Note_on_c, 1, 54, 127
1, 132211, Note_off_c, 1, 71, 0
1, 132211, Note_off_c, 1, 54, 0
1, 132223, Note_on_c, 1, 56, 127
1, 132223, Note_on_c, 1, 73, 127
1, 132397, Note_off_c, 1, 56, 0
1, 132410, Note_on_c, 1, 57, 127
1, 132584, Note_off_c, 1, 57, 0
1, 132590, Note_off_c, 1, 76, 0
1, 132594, Note_on_c, 1, 59, 127
1, 132594, Note_on_c, 1, 75, 127
1, 132795, Note_off_c, 1, 73, 0
1, 133005, Note_on_c, 1, 47, 127
1, 133408, Note_off_c, 1, 59, 0
1, 133523, Note_off_c, 1, 75, 0
1, 133523, Note_off_c, 1, 47, 0
1, 133528, Note_on_c, 1, 76, 127
1, 133528, Note_on_c, 1, 68, 127
1, 133528, Note_on_c, 1, 40, 127
1, 136528, Note_off_c, 1, 76, 0
1, 136528, Note_off_c, 1, 68, 0
1, 136528, Note_off_c, 1, 40, 0
1, 136528, End_track
0, 0, End_of_file