0, 0, Header, 1, 1, 480
1, 0, Start_track
1, 0, Title_t, "Test"
1, 0, Tempo, 500000
1, 0, Instrument_name_t, "Church Organ"
1, 31, Note_on_c, 1, 48, 127
1, 212, Note_on_c, 1, 67, 127
1, 391, Note_off_c, 1, 67, 0
1, 394, Note_on_c, 1, 65, 127
1, 394, Note_on_c, 1, 60, 127
1, 516, Note_off_c, 1, 48, 0
1, 573, Note_off_c, 1, 65, 0
1, 757, Note_on_c, 1, 68, 127
1, 757, Note_on_c, 1, 53, 127
1, 936, Note_off_c, 1, 68, 0
1, 1113, Note_off_c, 1, 60, 0
1, 1118, Note_off_c, 1, 53, 0
1, 1121, Note_on_c, 1, 63, 127
1, 1121, Note_on_c, 1, 60, 127
1, 1300, Note_off_c, 1, 63, 0
1, 1302, Note_on_c, 1, 65, 127
1, 1481, Note_off_c, 1, 65, 0
1, 1484, Note_on_c, 1, 67, 127
1, 1484, Note_on_c, 1, 51, 127
1, 1663, Note_off_c, 1, 67, 0
1, 1840, Note_off_c, 1, 60, 0
1, 1845, Note_off_c, 1, 51, 0
1, 1848, Note_on_c, 1, 62, 127
1, 1848, Note_on_c, 1, 60, 127
1, 2027, Note_off_c, 1, 62, 0
1, 2030, Note_on_c, 1, 63, 127
1, 2209, Note_off_c, 1, 63, 0
1, 2211, Note_on_c, 1, 65, 127
1, 2211, Note_on_c, 1, 50, 127
1, 2390, Note_off_c, 1, 65, 0
1, 2567, Note_off_c, 1, 60, 0
1, 2572, Note_off_c, 1, 50, 0
1, 2574, Note_on_c, 1, 60, 127
1, 2574, Note_on_c, 1, 59, 127
1, 2753, Note_off_c, 1, 60, 0
1, 2757, Note_on_c, 1, 62, 127
1, 2935, Note_off_c, 1, 59, 0
1, 2936, Note_off_c, 1, 62, 0
1, 2938, Note_on_c, 1, 48, 127
1, 2938, Note_on_c, 1, 63, 127
1, 3117, Note_off_c, 1, 48, 0
1, 3120, Note_on_c, 1, 55, 127
1, 3299, Note_off_c, 1, 55, 0
1, 3301, Note_on_c, 1, 53, 127
1, 3301, Note_on_c, 1, 72, 127
1, 3480, Note_off_c, 1, 53, 0
1, 3657, Note_off_c, 1, 63, 0
1, 3666, Note_on_c, 1, 56, 127
1, 3666, Note_on_c, 1, 65, 127
1, 3845, Note_off_c, 1, 56, 0
1, 4020, Note_off_c, 1, 72, 0
1, 4029, Note_on_c, 1, 51, 127
1, 4208, Note_off_c, 1, 51, 0
1, 4385, Note_off_c, 1, 65, 0
1, 4756, Note_on_c, 1, 50, 127
1, 4935, Note_off_c, 1, 50, 0
1, 5119, Note_on_c, 1, 62, 127
1, 5483, Note_on_c, 1, 71, 127
1, 5649, Note_off_c, 1, 62, 0
1, 5844, Note_off_c, 1, 71, 0
1, 5846, Note_on_c, 1, 51, 127
1, 5846, Note_on_c, 1, 60, 127
1, 6028, Note_on_c, 1, 63, 127
1, 6207, Note_off_c, 1, 51, 0
1, 6207, Note_off_c, 1, 63, 0
1, 6209, Note_on_c, 1, 67, 127
1, 6209, Note_on_c, 1, 48, 127
1, 6388, Note_off_c, 1, 67, 0
1, 6392, Note_on_c, 1, 72, 127
1, 6565, Note_off_c, 1, 60, 0
1, 6570, Note_off_c, 1, 48, 0
1, 6573, Note_on_c, 1, 53, 127
1, 6573, Note_on_c, 1, 62, 127
1, 6751, Note_off_c, 1, 72, 0
1, 6934, Note_off_c, 1, 53, 0
1, 6936, Note_on_c, 1, 71, 127
1, 6936, Note_on_c, 1, 50, 127
1, 7115, Note_off_c, 1, 71, 0
1, 7118, Note_on_c, 1, 69, 127
1, 7292, Note_off_c, 1, 62, 0
1, 7297, Note_off_c, 1, 50, 0
1, 7297, Note_off_c, 1, 69, 0
1, 7300, Note_on_c, 1, 55, 127
1, 7300, Note_on_c, 1, 62, 127
1, 7482, Note_on_c, 1, 67, 127
1, 7661, Note_off_c, 1, 55, 0
1, 7661, Note_off_c, 1, 67, 0
1, 7664, Note_on_c, 1, 71, 127
1, 7664, Note_on_c, 1, 53, 127
1, 7843, Note_off_c, 1, 71, 0
1, 7845, Note_on_c, 1, 74, 127
1, 8019, Note_off_c, 1, 62, 0
1, 8025, Note_off_c, 1, 53, 0
1, 8027, Note_on_c, 1, 63, 127
1, 8204, Note_off_c, 1, 74, 0
1, 8391, Note_on_c, 1, 72, 127
1, 8391, Note_on_c, 1, 51, 127
1, 8570, Note_off_c, 1, 72, 0
1, 8746, Note_off_c, 1, 63, 0
1, 8752, Note_off_c, 1, 51, 0
1, 8754, Note_on_c, 1, 56, 127
1, 8754, Note_on_c, 1, 63, 127
1, 8935, Note_on_c, 1, 68, 127
1, 9114, Note_off_c, 1, 68, 0
1, 9115, Note_off_c, 1, 56, 0
1, 9118, Note_on_c, 1, 72, 127
1, 9118, Note_on_c, 1, 55, 127
1, 9297, Note_off_c, 1, 72, 0
1, 9300, Note_on_c, 1, 75, 127
1, 9473, Note_off_c, 1, 63, 0
1, 9479, Note_off_c, 1, 55, 0
1, 9481, Note_on_c, 1, 57, 127
1, 9481, Note_on_c, 1, 65, 127
1, 9659, Note_off_c, 1, 75, 0
1, 9842, Note_off_c, 1, 57, 0
1, 9844, Note_on_c, 1, 74, 127
1, 9844, Note_on_c, 1, 53, 127
1, 10023, Note_off_c, 1, 74, 0
1, 10200, Note_off_c, 1, 65, 0
1, 10205, Note_off_c, 1, 53, 0
1, 10208, Note_on_c, 1, 58, 127
1, 10208, Note_on_c, 1, 65, 127
1, 10390, Note_on_c, 1, 70, 127
1, 10569, Note_off_c, 1, 58, 0
1, 10569, Note_off_c, 1, 70, 0
1, 10571, Note_on_c, 1, 74, 127
1, 10571, Note_on_c, 1, 57, 127
1, 10750, Note_off_c, 1, 74, 0
1, 10753, Note_on_c, 1, 77, 127
1, 10927, Note_off_c, 1, 65, 0
1, 10932, Note_off_c, 1, 57, 0
1, 10935, Note_on_c, 1, 59, 127
1, 10935, Note_on_c, 1, 67, 127
1, 11112, Note_off_c, 1, 77, 0
1, 11296, Note_off_c, 1, 59, 0
1, 11299, Note_on_c, 1, 75, 127
1, 11299, Note_on_c, 1, 55, 127
1, 11478, Note_off_c, 1, 75, 0
1, 11654, Note_off_c, 1, 67, 0
1, 11660, Note_off_c, 1, 55, 0
1, 11662, Note_on_c, 1, 75, 127
1, 11662, Note_on_c, 1, 60, 127
1, 11841, Note_off_c, 1, 75, 0
1, 11844, Note_on_c, 1, 72, 127
1, 11844, Note_on_c, 1, 68, 127
1, 11895, Note_off_c, 1, 60, 0
1, 12023, Note_off_c, 1, 72, 0
1, 12023, Note_off_c, 1, 68, 0
1, 12026, Note_on_c, 1, 70, 127
1, 12026, Note_on_c, 1, 67, 127
1, 12205, Note_off_c, 1, 70, 0
1, 12205, Note_off_c, 1, 67, 0
1, 12207, Note_on_c, 1, 72, 127
1, 12207, Note_on_c, 1, 68, 127
1, 12386, Note_off_c, 1, 72, 0
1, 12386, Note_off_c, 1, 68, 0
1, 12389, Note_on_c, 1, 74, 127
1, 12389, Note_on_c, 1, 58, 127
1, 12568, Note_off_c, 1, 74, 0
1, 12570, Note_on_c, 1, 70, 127
1, 12570, Note_on_c, 1, 67, 127
1, 12622, Note_off_c, 1, 58, 0
1, 12749, Note_off_c, 1, 70, 0
1, 12749, Note_off_c, 1, 67, 0
1, 12753, Note_on_c, 1, 68, 127
1, 12753, Note_on_c, 1, 65, 127
1, 12932, Note_off_c, 1, 68, 0
1, 12932, Note_off_c, 1, 65, 0
1, 12934, Note_on_c, 1, 70, 127
1, 12934, Note_on_c, 1, 67, 127
1, 13113, Note_off_c, 1, 70, 0
1, 13113, Note_off_c, 1, 67, 0
1, 13116, Note_on_c, 1, 72, 127
1, 13116, Note_on_c, 1, 56, 127
1, 13298, Note_on_c, 1, 70, 127
1, 13475, Note_off_c, 1, 72, 0
1, 13477, Note_off_c, 1, 70, 0
1, 13479, Note_on_c, 1, 68, 127
1, 13658, Note_off_c, 1, 68, 0
1, 13662, Note_on_c, 1, 67, 127
1, 13835, Note_off_c, 1, 56, 0
1, 13841, Note_off_c, 1, 67, 0
1, 13843, Note_on_c, 1, 65, 127
1, 14025, Note_on_c, 1, 63, 127
1, 14204, Note_off_c, 1, 63, 0
1, 14206, Note_on_c, 1, 62, 127
1, 14385, Note_off_c, 1, 62, 0
1, 14387, Note_off_c, 1, 65, 0
1, 14388, Note_on_c, 1, 60, 127
1, 14567, Note_off_c, 1, 60, 0
1, 14570, Note_on_c, 1, 74, 127
1, 14570, Note_on_c, 1, 58, 127
1, 14749, Note_off_c, 1, 74, 0
1, 14752, Note_on_c, 1, 70, 127
1, 14752, Note_on_c, 1, 67, 127
1, 14803, Note_off_c, 1, 58, 0
1, 14931, Note_off_c, 1, 70, 0
1, 14931, Note_off_c, 1, 67, 0
1, 14933, Note_on_c, 1, 68, 127
1, 14933, Note_on_c, 1, 65, 127
1, 15112, Note_off_c, 1, 68, 0
1, 15112, Note_off_c, 1, 65, 0
1, 15115, Note_on_c, 1, 70, 127
1, 15115, Note_on_c, 1, 67, 127
1, 15294, Note_off_c, 1, 70, 0
1, 15294, Note_off_c, 1, 67, 0
1, 15297, Note_on_c, 1, 72, 127
1, 15297, Note_on_c, 1, 56, 127
1, 15476, Note_off_c, 1, 72, 0
1, 15479, Note_on_c, 1, 68, 127
1, 15479, Note_on_c, 1, 65, 127
1, 15530, Note_off_c, 1, 56, 0
1, 15658, Note_off_c, 1, 68, 0
1, 15658, Note_off_c, 1, 65, 0
1, 15661, Note_on_c, 1, 67, 127
1, 15661, Note_on_c, 1, 63, 127
1, 15840, Note_off_c, 1, 67, 0
1, 15840, Note_off_c, 1, 63, 0
1, 15842, Note_on_c, 1, 68, 127
1, 15842, Note_on_c, 1, 65, 127
1, 16021, Note_off_c, 1, 68, 0
1, 16021, Note_off_c, 1, 65, 0
1, 16024, Note_on_c, 1, 70, 127
1, 16024, Note_on_c, 1, 55, 127
1, 16205, Note_on_c, 1, 68, 127
1, 16383, Note_off_c, 1, 70, 0
1, 16384, Note_off_c, 1, 68, 0
1, 16388, Note_on_c, 1, 67, 127
1, 16567, Note_off_c, 1, 67, 0
1, 16569, Note_on_c, 1, 65, 127
1, 16743, Note_off_c, 1, 55, 0
1, 16748, Note_off_c, 1, 65, 0
1, 16751, Note_on_c, 1, 63, 127
1, 16933, Note_on_c, 1, 61, 127
1, 17112, Note_off_c, 1, 61, 0
1, 17114, Note_on_c, 1, 60, 127
1, 17293, Note_off_c, 1, 60, 0
1, 17295, Note_off_c, 1, 63, 0
1, 17297, Note_on_c, 1, 58, 127
1, 17476, Note_off_c, 1, 58, 0
1, 17478, Note_on_c, 1, 72, 127
1, 17478, Note_on_c, 1, 56, 127
1, 17657, Note_off_c, 1, 72, 0
1, 17660, Note_on_c, 1, 68, 127
1, 17660, Note_on_c, 1, 65, 127
1, 17711, Note_off_c, 1, 56, 0
1, 17839, Note_off_c, 1, 68, 0
1, 17839, Note_off_c, 1, 65, 0
1, 17841, Note_on_c, 1, 67, 127
1, 17841, Note_on_c, 1, 63, 127
1, 18020, Note_off_c, 1, 67, 0
1, 18020, Note_off_c, 1, 63, 0
1, 18023, Note_on_c, 1, 68, 127
1, 18023, Note_on_c, 1, 65, 127
1, 18202, Note_off_c, 1, 68, 0
1, 18202, Note_off_c, 1, 65, 0
1, 18205, Note_on_c, 1, 70, 127
1, 18205, Note_on_c, 1, 55, 127
1, 18384, Note_off_c, 1, 70, 0
1, 18387, Note_on_c, 1, 67, 127
1, 18387, Note_on_c, 1, 63, 127
1, 18438, Note_off_c, 1, 55, 0
1, 18566, Note_off_c, 1, 67, 0
1, 18566, Note_off_c, 1, 63, 0
1, 18568, Note_on_c, 1, 65, 127
1, 18568, Note_on_c, 1, 62, 127
1, 18747, Note_off_c, 1, 65, 0
1, 18747, Note_off_c, 1, 62, 0
1, 18750, Note_on_c, 1, 67, 127
1, 18750, Note_on_c, 1, 63, 127
1, 18929, Note_off_c, 1, 67, 0
1, 18929, Note_off_c, 1, 63, 0
1, 18932, Note_on_c, 1, 68, 127
1, 18932, Note_on_c, 1, 53, 127
1, 19111, Note_off_c, 1, 68, 0
1, 19114, Note_on_c, 1, 65, 127
1, 19114, Note_on_c, 1, 62, 127
1, 19165, Note_off_c, 1, 53, 0
1, 19293, Note_off_c, 1, 65, 0
1, 19293, Note_off_c, 1, 62, 0
1, 19296, Note_on_c, 1, 63, 127
1, 19296, Note_on_c, 1, 60, 127
1, 19475, Note_off_c, 1, 63, 0
1, 19475, Note_off_c, 1, 60, 0
1, 19477, Note_on_c, 1, 65, 127
1, 19477, Note_on_c, 1, 62, 127
1, 19656, Note_off_c, 1, 65, 0
1, 19656, Note_off_c, 1, 62, 0
1, 19659, Note_on_c, 1, 68, 127
1, 19659, Note_on_c, 1, 51, 127
1, 19747, Note_off_c, 1, 68, 0
1, 19750, Note_on_c, 1, 67, 127
1, 19838, Note_off_c, 1, 67, 0
1, 19840, Note_on_c, 1, 60, 127
1, 19892, Note_off_c, 1, 51, 0
1, 20019, Note_off_c, 1, 60, 0
1, 20023, Note_on_c, 1, 58, 127
1, 20023, Note_on_c, 1, 68, 127
1, 20202, Note_off_c, 1, 58, 0
1, 20204, Note_on_c, 1, 60, 127
1, 20383, Note_off_c, 1, 60, 0
1, 20384, Note_off_c, 1, 68, 0
1, 20386, Note_on_c, 1, 68, 127
1, 20386, Note_on_c, 1, 50, 127
1, 20565, Note_off_c, 1, 68, 0
1, 20567, Note_on_c, 1, 67, 127
1, 20567, Note_on_c, 1, 58, 127
1, 20619, Note_off_c, 1, 50, 0
1, 20746, Note_off_c, 1, 67, 0
1, 20746, Note_off_c, 1, 58, 0
1, 20749, Note_on_c, 1, 65, 127
1, 20749, Note_on_c, 1, 56, 127
1, 20928, Note_off_c, 1, 65, 0
1, 20928, Note_off_c, 1, 56, 0
1, 20932, Note_on_c, 1, 67, 127
1, 20932, Note_on_c, 1, 58, 127
1, 21111, Note_off_c, 1, 67, 0
1, 21111, Note_off_c, 1, 58, 0
1, 21113, Note_on_c, 1, 68, 127
1, 21113, Note_on_c, 1, 48, 127
1, 21201, Note_off_c, 1, 68, 0
1, 21203, Note_on_c, 1, 67, 127
1, 21291, Note_off_c, 1, 67, 0
1, 21295, Note_on_c, 1, 56, 127
1, 21346, Note_off_c, 1, 48, 0
1, 21474, Note_off_c, 1, 56, 0
1, 21476, Note_on_c, 1, 55, 127
1, 21476, Note_on_c, 1, 68, 127
1, 21655, Note_off_c, 1, 55, 0
1, 21658, Note_on_c, 1, 56, 127
1, 21837, Note_off_c, 1, 68, 0
1, 21837, Note_off_c, 1, 56, 0
1, 21840, Note_on_c, 1, 46, 127
1, 21840, Note_on_c, 1, 68, 127
1, 22022, Note_on_c, 1, 74, 127
1, 22201, Note_off_c, 1, 74, 0
1, 22203, Note_on_c, 1, 77, 127
1, 22203, Note_on_c, 1, 58, 127
1, 22267, Note_off_c, 1, 46, 0
1, 22370, Note_off_c, 1, 68, 0
1, 22382, Note_off_c, 1, 77, 0
1, 22385, Note_on_c, 1, 75, 127
1, 22564, Note_off_c, 1, 75, 0
1, 22747, Note_off_c, 1, 58, 0
1, 22749, Note_on_c, 1, 72, 127
1, 22928, Note_off_c, 1, 72, 0
1, 22931, Note_on_c, 1, 70, 127
1, 22931, Note_on_c, 1, 50, 127
1, 23110, Note_off_c, 1, 70, 0
1, 23112, Note_on_c, 1, 68, 127
1, 23291, Note_off_c, 1, 68, 0
1, 23292, Note_off_c, 1, 50, 0
1, 23294, Note_on_c, 1, 51, 127
1, 23294, Note_on_c, 1, 67, 127
1, 23475, Note_on_c, 1, 70, 127
1, 23654, Note_off_c, 1, 70, 0
1, 23655, Note_off_c, 1, 51, 0
1, 23658, Note_on_c, 1, 75, 127
1, 23658, Note_on_c, 1, 48, 127
1, 23824, Note_off_c, 1, 67, 0
1, 24017, Note_off_c, 1, 75, 0
1, 24019, Note_off_c, 1, 48, 0
1, 24021, Note_on_c, 1, 65, 127
1, 24021, Note_on_c, 1, 44, 127
1, 24202, Note_on_c, 1, 75, 127
1, 24380, Note_off_c, 1, 65, 0
1, 24382, Note_off_c, 1, 44, 0
1, 24384, Note_on_c, 1, 46, 127
1, 24561, Note_off_c, 1, 75, 0
1, 24566, Note_on_c, 1, 74, 127
1, 24745, Note_off_c, 1, 46, 0
1, 24745, Note_off_c, 1, 74, 0
1, 24748, Note_on_c, 1, 39, 127
1, 24748, Note_on_c, 1, 75, 127
1, 24930, Note_on_c, 1, 70, 127
1, 25109, Note_off_c, 1, 39, 0
1, 25109, Note_off_c, 1, 70, 0
1, 25111, Note_on_c, 1, 68, 127
1, 25111, Note_on_c, 1, 51, 127
1, 25278, Note_off_c, 1, 75, 0
1, 25290, Note_off_c, 1, 68, 0
1, 25472, Note_off_c, 1, 51, 0
1, 25475, Note_on_c, 1, 44, 127
1, 25475, Note_on_c, 1, 72, 127
1, 25657, Note_on_c, 1, 68, 127
1, 25836, Note_off_c, 1, 44, 0
1, 25836, Note_off_c, 1, 68, 0
1, 25838, Note_on_c, 1, 67, 127
1, 25838, Note_on_c, 1, 51, 127
1, 26005, Note_off_c, 1, 72, 0
1, 26017, Note_off_c, 1, 67, 0
1, 26199, Note_off_c, 1, 51, 0
1, 26201, Note_on_c, 1, 43, 127
1, 26201, Note_on_c, 1, 70, 127
1, 26384, Note_on_c, 1, 67, 127
1, 26562, Note_off_c, 1, 43, 0
1, 26563, Note_off_c, 1, 67, 0
1, 26566, Note_on_c, 1, 65, 127
1, 26566, Note_on_c, 1, 51, 127
1, 26731, Note_off_c, 1, 70, 0
1, 26745, Note_off_c, 1, 65, 0
1, 26927, Note_off_c, 1, 51, 0
1, 26929, Note_on_c, 1, 41, 127
1, 26929, Note_on_c, 1, 68, 127
1, 27110, Note_on_c, 1, 65, 127
1, 27289, Note_off_c, 1, 65, 0
1, 27290, Note_off_c, 1, 41, 0
1, 27293, Note_on_c, 1, 63, 127
1, 27293, Note_on_c, 1, 50, 127
1, 27459, Note_off_c, 1, 68, 0
1, 27472, Note_off_c, 1, 63, 0
1, 27654, Note_off_c, 1, 50, 0
1, 27656, Note_on_c, 1, 51, 127
1, 27656, Note_on_c, 1, 67, 127
1, 27835, Note_off_c, 1, 51, 0
1, 27837, Note_on_c, 1, 63, 127
1, 27837, Note_on_c, 1, 55, 127
1, 28016, Note_off_c, 1, 63, 0
1, 28016, Note_off_c, 1, 55, 0
1, 28019, Note_on_c, 1, 62, 127
1, 28019, Note_on_c, 1, 53, 127
1, 28186, Note_off_c, 1, 67, 0
1, 28198, Note_off_c, 1, 62, 0
1, 28198, Note_off_c, 1, 53, 0
1, 28201, Note_on_c, 1, 63, 127
1, 28201, Note_on_c, 1, 55, 127
1, 28380, Note_off_c, 1, 63, 0
1, 28380, Note_off_c, 1, 55, 0
1, 28383, Note_on_c, 1, 56, 127
1, 28383, Note_on_c, 1, 60, 127
1, 28562, Note_off_c, 1, 56, 0
1, 28565, Note_on_c, 1, 53, 127
1, 28744, Note_off_c, 1, 53, 0
1, 28746, Note_on_c, 1, 51, 127
1, 28746, Note_on_c, 1, 68, 127
1, 28925, Note_off_c, 1, 51, 0
1, 29102, Note_off_c, 1, 60, 0
1, 29110, Note_on_c, 1, 55, 127
1, 29110, Note_on_c, 1, 58, 127
1, 29289, Note_off_c, 1, 55, 0
1, 29465, Note_off_c, 1, 68, 0
1, 29473, Note_on_c, 1, 50, 127
1, 29473, Note_on_c, 1, 67, 127
1, 29652, Note_off_c, 1, 50, 0
1, 29829, Note_off_c, 1, 58, 0
1, 30192, Note_off_c, 1, 67, 0
1, 30200, Note_on_c, 1, 48, 127
1, 30200, Note_on_c, 1, 65, 127
1, 30379, Note_off_c, 1, 48, 0
1, 30561, Note_off_c, 1, 65, 0
1, 30564, Note_on_c, 1, 55, 127
1, 30564, Note_on_c, 1, 51, 127
1, 30743, Note_off_c, 1, 55, 0
1, 30745, Note_on_c, 1, 58, 127
1, 30924, Note_off_c, 1, 58, 0
1, 30925, Note_off_c, 1, 51, 0
1, 30928, Note_on_c, 1, 63, 127
1, 30928, Note_on_c, 1, 55, 127
1, 31107, Note_off_c, 1, 63, 0
1, 31109, Note_on_c, 1, 67, 127
1, 31289, Note_off_c, 1, 55, 0
1, 31291, Note_on_c, 1, 56, 127
1, 31470, Note_off_c, 1, 67, 0
1, 31472, Note_on_c, 1, 65, 127
1, 31651, Note_off_c, 1, 65, 0
1, 31652, Note_off_c, 1, 56, 0
1, 31654, Note_on_c, 1, 63, 127
1, 31654, Note_on_c, 1, 58, 127
1, 31833, Note_off_c, 1, 63, 0
1, 31836, Note_on_c, 1, 62, 127
1, 32015, Note_off_c, 1, 58, 0
1, 32015, Note_off_c, 1, 62, 0
1, 32018, Note_on_c, 1, 60, 127
1, 32018, Note_on_c, 1, 63, 127
1, 32200, Note_on_c, 1, 67, 127
1, 32379, Note_off_c, 1, 60, 0
1, 32379, Note_off_c, 1, 67, 0
1, 32381, Note_on_c, 1, 72, 127
1, 32381, Note_on_c, 1, 56, 127
1, 32563, Note_on_c, 1, 65, 127
1, 32737, Note_off_c, 1, 63, 0
1, 32740, Note_off_c, 1, 72, 0
1, 32742, Note_off_c, 1, 56, 0
1, 32742, Note_off_c, 1, 65, 0
1, 32745, Note_on_c, 1, 70, 127
1, 32745, Note_on_c, 1, 67, 127
1, 32745, Note_on_c, 1, 58, 127
1, 32927, Note_on_c, 1, 63, 127
1, 33104, Note_off_c, 1, 70, 0
1, 33104, Note_off_c, 1, 67, 0
1, 33106, Note_off_c, 1, 58, 0
1, 33106, Note_off_c, 1, 63, 0
1, 33108, Note_on_c, 1, 65, 127
1, 33108, Note_on_c, 1, 68, 127
1, 33108, Note_on_c, 1, 46, 127
1, 33290, Note_on_c, 1, 62, 127
1, 33467, Note_off_c, 1, 65, 0
1, 33467, Note_off_c, 1, 68, 0
1, 33467, Note_off_c, 1, 46, 0
1, 33469, Note_off_c, 1, 62, 0
1, 33471, Note_on_c, 1, 58, 127
1, 33563, Note_on_c, 1, 63, 127
1, 33654, Note_on_c, 1, 51, 127
1, 33654, Note_on_c, 1, 67, 127
1, 33833, Note_off_c, 1, 51, 0
1, 33835, Note_on_c, 1, 46, 127
1, 34014, Note_off_c, 1, 46, 0
1, 34017, Note_on_c, 1, 43, 127
1, 34196, Note_off_c, 1, 43, 0
1, 34199, Note_on_c, 1, 39, 127
1, 34558, Note_off_c, 1, 39, 0
1, 34922, Note_off_c, 1, 58, 0
1, 34926, Note_off_c, 1, 63, 0
1, 34935, Note_off_c, 1, 67, 0
1, 35107, Note_on_c, 1, 70, 127
1, 35286, Note_off_c, 1, 70, 0
1, 35289, Note_on_c, 1, 69, 127
1, 35289, Note_on_c, 1, 53, 127
1, 35468, Note_off_c, 1, 69, 0
1, 35471, Note_on_c, 1, 70, 127
1, 35650, Note_off_c, 1, 53, 0
1, 35650, Note_off_c, 1, 70, 0
1, 35653, Note_on_c, 1, 55, 127
1, 35653, Note_on_c, 1, 75, 127
1, 35834, Note_on_c, 1, 70, 127
1, 36013, Note_off_c, 1, 70, 0
1, 36014, Note_off_c, 1, 55, 0
1, 36016, Note_on_c, 1, 69, 127
1, 36016, Note_on_c, 1, 51, 127
1, 36183, Note_off_c, 1, 75, 0
1, 36195, Note_off_c, 1, 69, 0
1, 36377, Note_off_c, 1, 51, 0
1, 36380, Note_on_c, 1, 50, 127
1, 36380, Note_on_c, 1, 77, 127
1, 36562, Note_on_c, 1, 70, 127
1, 36741, Note_off_c, 1, 50, 0
1, 36741, Note_off_c, 1, 70, 0
1, 36743, Note_on_c, 1, 69, 127
1, 36743, Note_on_c, 1, 48, 127
1, 36910, Note_off_c, 1, 77, 0
1, 36922, Note_off_c, 1, 69, 0
1, 37104, Note_off_c, 1, 48, 0
1, 37106, Note_on_c, 1, 50, 127
1, 37106, Note_on_c, 1, 80, 127
1, 37289, Note_on_c, 1, 70, 127
1, 37467, Note_off_c, 1, 50, 0
1, 37468, Note_off_c, 1, 70, 0
1, 37470, Note_on_c, 1, 69, 127
1, 37470, Note_on_c, 1, 46, 127
1, 37636, Note_off_c, 1, 80, 0
1, 37649, Note_off_c, 1, 69, 0
1, 37831, Note_off_c, 1, 46, 0
1, 37833, Note_on_c, 1, 51, 127
1, 37833, Note_on_c, 1, 79, 127
1, 38012, Note_off_c, 1, 51, 0
1, 38015, Note_on_c, 1, 55, 127
1, 38194, Note_off_c, 1, 79, 0
1, 38194, Note_off_c, 1, 55, 0
1, 38198, Note_on_c, 1, 56, 127
1, 38198, Note_on_c, 1, 75, 127
1, 38377, Note_off_c, 1, 56, 0
1, 38379, Note_on_c, 1, 55, 127
1, 38559, Note_off_c, 1, 75, 0
1, 38561, Note_on_c, 1, 74, 127
1, 38561, Note_on_c, 1, 44, 127
1, 38606, Note_off_c, 1, 55, 0
1, 38649, Note_off_c, 1, 74, 0
1, 38652, Note_on_c, 1, 72, 127
1, 38740, Note_off_c, 1, 44, 0
1, 38740, Note_off_c, 1, 72, 0
1, 38742, Note_on_c, 1, 71, 127
1, 38742, Note_on_c, 1, 55, 127
1, 38921, Note_off_c, 1, 71, 0
1, 38921, Note_off_c, 1, 55, 0
1, 38924, Note_on_c, 1, 56, 127
1, 38924, Note_on_c, 1, 72, 127
1, 39103, Note_off_c, 1, 56, 0
1, 39106, Note_on_c, 1, 55, 127
1, 39244, Note_off_c, 1, 72, 0
1, 39285, Note_off_c, 1, 55, 0
1, 39288, Note_on_c, 1, 50, 127
1, 39288, Note_on_c, 1, 77, 127
1, 39467, Note_off_c, 1, 50, 0
1, 39469, Note_on_c, 1, 53, 127
1, 39648, Note_off_c, 1, 53, 0
1, 39649, Note_off_c, 1, 77, 0
1, 39651, Note_on_c, 1, 55, 127
1, 39651, Note_on_c, 1, 74, 127
1, 39830, Note_off_c, 1, 55, 0
1, 39833, Note_on_c, 1, 53, 127
1, 40012, Note_off_c, 1, 74, 0
1, 40015, Note_on_c, 1, 72, 127
1, 40015, Note_on_c, 1, 43, 127
1, 40060, Note_off_c, 1, 53, 0
1, 40103, Note_off_c, 1, 72, 0
1, 40105, Note_on_c, 1, 71, 127
1, 40193, Note_off_c, 1, 71, 0
1, 40194, Note_off_c, 1, 43, 0
1, 40197, Note_on_c, 1, 69, 127
1, 40197, Note_on_c, 1, 53, 127
1, 40376, Note_off_c, 1, 69, 0
1, 40376, Note_off_c, 1, 53, 0
1, 40378, Note_on_c, 1, 55, 127
1, 40378, Note_on_c, 1, 71, 127
1, 40557, Note_off_c, 1, 55, 0
1, 40560, Note_on_c, 1, 53, 127
1, 40669, Note_off_c, 1, 71, 0
1, 40739, Note_off_c, 1, 53, 0
1, 40741, Note_on_c, 1, 48, 127
1, 40741, Note_on_c, 1, 75, 127
1, 40924, Note_on_c, 1, 63, 127
1, 41102, Note_off_c, 1, 48, 0
1, 41103, Note_off_c, 1, 63, 0
1, 41105, Note_on_c, 1, 62, 127
1, 41105, Note_on_c, 1, 60, 127
1, 41271, Note_off_c, 1, 75, 0
1, 41284, Note_off_c, 1, 62, 0
1, 41466, Note_off_c, 1, 60, 0
1, 41468, Note_on_c, 1, 58, 127
1, 41468, Note_on_c, 1, 67, 127
1, 41650, Note_on_c, 1, 63, 127
1, 41829, Note_off_c, 1, 58, 0
1, 41829, Note_off_c, 1, 63, 0
1, 41833, Note_on_c, 1, 62, 127
1, 41833, Note_on_c, 1, 56, 127
1, 41998, Note_off_c, 1, 67, 0
1, 42012, Note_off_c, 1, 62, 0
1, 42194, Note_off_c, 1, 56, 0
1, 42196, Note_on_c, 1, 55, 127
1, 42196, Note_on_c, 1, 70, 127
1, 42377, Note_on_c, 1, 63, 127
1, 42556, Note_off_c, 1, 63, 0
1, 42557, Note_off_c, 1, 55, 0
1, 42559, Note_on_c, 1, 62, 127
1, 42559, Note_on_c, 1, 53, 127
1, 42726, Note_off_c, 1, 70, 0
1, 42738, Note_off_c, 1, 62, 0
1, 42920, Note_off_c, 1, 53, 0
1, 42923, Note_on_c, 1, 55, 127
1, 42923, Note_on_c, 1, 73, 127
1, 43104, Note_on_c, 1, 63, 127
1, 43283, Note_off_c, 1, 63, 0
1, 43284, Note_off_c, 1, 55, 0
1, 43286, Note_on_c, 1, 62, 127
1, 43286, Note_on_c, 1, 51, 127
1, 43453, Note_off_c, 1, 73, 0
1, 43465, Note_off_c, 1, 62, 0
1, 43647, Note_off_c, 1, 51, 0
1, 43650, Note_on_c, 1, 56, 127
1, 43650, Note_on_c, 1, 72, 127
1, 43829, Note_off_c, 1, 56, 0
1, 43832, Note_on_c, 1, 60, 127
1, 44011, Note_off_c, 1, 72, 0
1, 44011, Note_off_c, 1, 60, 0
1, 44013, Note_on_c, 1, 61, 127
1, 44013, Note_on_c, 1, 68, 127
1, 44192, Note_off_c, 1, 61, 0
1, 44195, Note_on_c, 1, 60, 127
1, 44374, Note_off_c, 1, 68, 0
1, 44376, Note_on_c, 1, 67, 127
1, 44376, Note_on_c, 1, 49, 127
1, 44422, Note_off_c, 1, 60, 0
1, 44464, Note_off_c, 1, 67, 0
1, 44467, Note_on_c, 1, 65, 127
1, 44555, Note_off_c, 1, 49, 0
1, 44555, Note_off_c, 1, 65, 0
1, 44559, Note_on_c, 1, 64, 127
1, 44559, Note_on_c, 1, 60, 127
1, 44738, Note_off_c, 1, 64, 0
1, 44738, Note_off_c, 1, 60, 0
1, 44740, Note_on_c, 1, 61, 127
1, 44740, Note_on_c, 1, 65, 127
1, 44919, Note_off_c, 1, 61, 0
1, 44922, Note_on_c, 1, 60, 127
1, 45060, Note_off_c, 1, 65, 0
1, 45101, Note_off_c, 1, 60, 0
1, 45103, Note_on_c, 1, 55, 127
1, 45103, Note_on_c, 1, 70, 127
1, 45282, Note_off_c, 1, 55, 0
1, 45285, Note_on_c, 1, 58, 127
1, 45464, Note_off_c, 1, 70, 0
1, 45464, Note_off_c, 1, 58, 0
1, 45467, Note_on_c, 1, 60, 127
1, 45467, Note_on_c, 1, 67, 127
1, 45646, Note_off_c, 1, 60, 0
1, 45649, Note_on_c, 1, 58, 127
1, 45828, Note_off_c, 1, 67, 0
1, 45831, Note_on_c, 1, 65, 127
1, 45831, Note_on_c, 1, 48, 127
1, 45876, Note_off_c, 1, 58, 0
1, 45919, Note_off_c, 1, 65, 0
1, 45922, Note_on_c, 1, 64, 127
1, 46010, Note_off_c, 1, 48, 0
1, 46010, Note_off_c, 1, 64, 0
1, 46012, Note_on_c, 1, 62, 127
1, 46012, Note_on_c, 1, 58, 127
1, 46191, Note_off_c, 1, 62, 0
1, 46191, Note_off_c, 1, 58, 0
1, 46194, Note_on_c, 1, 60, 127
1, 46194, Note_on_c, 1, 64, 127
1, 46373, Note_off_c, 1, 60, 0
1, 46376, Note_on_c, 1, 58, 127
1, 46485, Note_off_c, 1, 64, 0
1, 46555, Note_off_c, 1, 58, 0
1, 46558, Note_on_c, 1, 53, 127
1, 46558, Note_on_c, 1, 68, 127
1, 46739, Note_on_c, 1, 72, 127
1, 46918, Note_off_c, 1, 72, 0
1, 46919, Note_off_c, 1, 53, 0
1, 46921, Note_on_c, 1, 71, 127
1, 46921, Note_on_c, 1, 56, 127
1, 47088, Note_off_c, 1, 68, 0
1, 47100, Note_off_c, 1, 71, 0
1, 47282, Note_off_c, 1, 56, 0
1, 47285, Note_on_c, 1, 73, 127
1, 47285, Note_on_c, 1, 53, 127
1, 47464, Note_off_c, 1, 73, 0
1, 47466, Note_on_c, 1, 72, 127
1, 47645, Note_off_c, 1, 72, 0
1, 47646, Note_off_c, 1, 53, 0
1, 47648, Note_on_c, 1, 71, 127
1, 47648, Note_on_c, 1, 61, 127
1, 47827, Note_off_c, 1, 71, 0
1, 47830, Note_on_c, 1, 72, 127
1, 48009, Note_off_c, 1, 61, 0
1, 48009, Note_off_c, 1, 72, 0
1, 48011, Note_on_c, 1, 52, 127
1, 48011, Note_on_c, 1, 67, 127
1, 48194, Note_on_c, 1, 72, 127
1, 48372, Note_off_c, 1, 52, 0
1, 48373, Note_off_c, 1, 72, 0
1, 48375, Note_on_c, 1, 71, 127
1, 48375, Note_on_c, 1, 55, 127
1, 48541, Note_off_c, 1, 67, 0
1, 48554, Note_off_c, 1, 71, 0
1, 48736, Note_off_c, 1, 55, 0
1, 48738, Note_on_c, 1, 73, 127
1, 48738, Note_on_c, 1, 51, 127
1, 48917, Note_off_c, 1, 73, 0
1, 48920, Note_on_c, 1, 72, 127
1, 49099, Note_off_c, 1, 51, 0
1, 49099, Note_off_c, 1, 72, 0
1, 49102, Note_on_c, 1, 71, 127
1, 49102, Note_on_c, 1, 60, 127
1, 49281, Note_off_c, 1, 71, 0
1, 49284, Note_on_c, 1, 72, 127
1, 49463, Note_off_c, 1, 60, 0
1, 49463, Note_off_c, 1, 72, 0
1, 49466, Note_on_c, 1, 50, 127
1, 49466, Note_on_c, 1, 65, 127
1, 49647, Note_on_c, 1, 72, 127
1, 49826, Note_off_c, 1, 72, 0
1, 49827, Note_off_c, 1, 50, 0
1, 49829, Note_on_c, 1, 74, 127
1, 49829, Note_on_c, 1, 53, 127
1, 49996, Note_off_c, 1, 65, 0
1, 50008, Note_off_c, 1, 74, 0
1, 50011, Note_on_c, 1, 76, 127
1, 50190, Note_off_c, 1, 53, 0
1, 50190, Note_off_c, 1, 76, 0
1, 50193, Note_on_c, 1, 49, 127
1, 50193, Note_on_c, 1, 77, 127
1, 50374, Note_on_c, 1, 70, 127
1, 50553, Note_off_c, 1, 70, 0
1, 50554, Note_off_c, 1, 49, 0
1, 50556, Note_on_c, 1, 69, 127
1, 50556, Note_on_c, 1, 58, 127
1, 50735, Note_off_c, 1, 69, 0
1, 50912, Note_off_c, 1, 77, 0
1, 50917, Note_off_c, 1, 58, 0
1, 50920, Note_on_c, 1, 79, 127
1, 50920, Note_on_c, 1, 48, 127
1, 51099, Note_off_c, 1, 79, 0
1, 51281, Note_off_c, 1, 48, 0
1, 51283, Note_on_c, 1, 76, 127
1, 51283, Note_on_c, 1, 50, 127
1, 51462, Note_off_c, 1, 76, 0
1, 51465, Note_on_c, 1, 74, 127
1, 51644, Note_off_c, 1, 50, 0
1, 51644, Note_off_c, 1, 74, 0
1, 51646, Note_on_c, 1, 72, 127
1, 51646, Note_on_c, 1, 52, 127
1, 51829, Note_on_c, 1, 70, 127
1, 52005, Note_off_c, 1, 72, 0
1, 52007, Note_off_c, 1, 52, 0
1, 52008, Note_off_c, 1, 70, 0
1, 52010, Note_on_c, 1, 68, 127
1, 52010, Note_on_c, 1, 48, 127
1, 52189, Note_off_c, 1, 68, 0
1, 52192, Note_on_c, 1, 67, 127
1, 52371, Note_off_c, 1, 48, 0
1, 52371, Note_off_c, 1, 67, 0
1, 52373, Note_on_c, 1, 53, 127
1, 52373, Note_on_c, 1, 68, 127
1, 52552, Note_off_c, 1, 53, 0
1, 52555, Note_on_c, 1, 65, 127
1, 52555, Note_on_c, 1, 56, 127
1, 52734, Note_off_c, 1, 65, 0
1, 52734, Note_off_c, 1, 56, 0
1, 52737, Note_on_c, 1, 64, 127
1, 52737, Note_on_c, 1, 55, 127
1, 52903, Note_off_c, 1, 68, 0
1, 52916, Note_off_c, 1, 64, 0
1, 52916, Note_off_c, 1, 55, 0
1, 52919, Note_on_c, 1, 65, 127
1, 52919, Note_on_c, 1, 56, 127
1, 53098, Note_off_c, 1, 65, 0
1, 53098, Note_off_c, 1, 56, 0
1, 53100, Note_on_c, 1, 51, 127
1, 53100, Note_on_c, 1, 72, 127
1, 53279, Note_off_c, 1, 51, 0
1, 53282, Note_on_c, 1, 68, 127
1, 53282, Note_on_c, 1, 60, 127
1, 53461, Note_off_c, 1, 68, 0
1, 53461, Note_off_c, 1, 60, 0
1, 53464, Note_on_c, 1, 67, 127
1, 53464, Note_on_c, 1, 58, 127
1, 53630, Note_off_c, 1, 72, 0
1, 53643, Note_off_c, 1, 67, 0
1, 53643, Note_off_c, 1, 58, 0
1, 53646, Note_on_c, 1, 68, 127
1, 53646, Note_on_c, 1, 60, 127
1, 53825, Note_off_c, 1, 68, 0
1, 53825, Note_off_c, 1, 60, 0
1, 53828, Note_on_c, 1, 77, 127
1, 53828, Note_on_c, 1, 49, 127
1, 54007, Note_off_c, 1, 77, 0
1, 54009, Note_on_c, 1, 75, 127
1, 54188, Note_off_c, 1, 75, 0
1, 54189, Note_off_c, 1, 49, 0
1, 54191, Note_on_c, 1, 73, 127
1, 54191, Note_on_c, 1, 53, 127
1, 54370, Note_off_c, 1, 73, 0
1, 54372, Note_on_c, 1, 72, 127
1, 54551, Note_off_c, 1, 72, 0
1, 54552, Note_off_c, 1, 53, 0
1, 54555, Note_on_c, 1, 70, 127
1, 54555, Note_on_c, 1, 58, 127
1, 54734, Note_off_c, 1, 70, 0
1, 54736, Note_on_c, 1, 68, 127
1, 54915, Note_off_c, 1, 68, 0
1, 54916, Note_off_c, 1, 58, 0
1, 54918, Note_on_c, 1, 67, 127
1, 54918, Note_on_c, 1, 61, 127
1, 55097, Note_off_c, 1, 67, 0
1, 55100, Note_on_c, 1, 65, 127
1, 55279, Note_off_c, 1, 61, 0
1, 55279, Note_off_c, 1, 65, 0
1, 55281, Note_on_c, 1, 51, 127
1, 55281, Note_on_c, 1, 67, 127
1, 55460, Note_off_c, 1, 51, 0
1, 55464, Note_on_c, 1, 63, 127
1, 55464, Note_on_c, 1, 55, 127
1, 55643, Note_off_c, 1, 63, 0
1, 55643, Note_off_c, 1, 55, 0
1, 55645, Note_on_c, 1, 62, 127
1, 55645, Note_on_c, 1, 53, 127
1, 55811, Note_off_c, 1, 67, 0
1, 55824, Note_off_c, 1, 62, 0
1, 55824, Note_off_c, 1, 53, 0
1, 55827, Note_on_c, 1, 63, 127
1, 55827, Note_on_c, 1, 55, 127
1, 56006, Note_off_c, 1, 63, 0
1, 56006, Note_off_c, 1, 55, 0
1, 56008, Note_on_c, 1, 49, 127
1, 56008, Note_on_c, 1, 70, 127
1, 56187, Note_off_c, 1, 49, 0
1, 56190, Note_on_c, 1, 67, 127
1, 56190, Note_on_c, 1, 58, 127
1, 56369, Note_off_c, 1, 67, 0
1, 56369, Note_off_c, 1, 58, 0
1, 56372, Note_on_c, 1, 65, 127
1, 56372, Note_on_c, 1, 56, 127
1, 56538, Note_off_c, 1, 70, 0
1, 56551, Note_off_c, 1, 65, 0
1, 56551, Note_off_c, 1, 56, 0
1, 56554, Note_on_c, 1, 67, 127
1, 56554, Note_on_c, 1, 58, 127
1, 56733, Note_off_c, 1, 67, 0
1, 56733, Note_off_c, 1, 58, 0
1, 56735, Note_on_c, 1, 75, 127
1, 56735, Note_on_c, 1, 48, 127
1, 56914, Note_off_c, 1, 75, 0
1, 56917, Note_on_c, 1, 73, 127
1, 57096, Note_off_c, 1, 48, 0
1, 57096, Note_off_c, 1, 73, 0
1, 57099, Note_on_c, 1, 72, 127
1, 57099, Note_on_c, 1, 51, 127
1, 57278, Note_off_c, 1, 72, 0
1, 57281, Note_on_c, 1, 70, 127
1, 57460, Note_off_c, 1, 51, 0
1, 57460, Note_off_c, 1, 70, 0
1, 57463, Note_on_c, 1, 68, 127
1, 57463, Note_on_c, 1, 56, 127
1, 57642, Note_off_c, 1, 68, 0
1, 57644, Note_on_c, 1, 67, 127
1, 57823, Note_off_c, 1, 67, 0
1, 57824, Note_off_c, 1, 56, 0
1, 57826, Note_on_c, 1, 65, 127
1, 57826, Note_on_c, 1, 60, 127
1, 58005, Note_off_c, 1, 65, 0
1, 58007, Note_on_c, 1, 64, 127
1, 58186, Note_off_c, 1, 64, 0
1, 58187, Note_off_c, 1, 60, 0
1, 58190, Note_on_c, 1, 49, 127
1, 58190, Note_on_c, 1, 65, 127
1, 58369, Note_off_c, 1, 49, 0
1, 58371, Note_on_c, 1, 53, 127
1, 58550, Note_off_c, 1, 53, 0
1, 58551, Note_off_c, 1, 65, 0
1, 58553, Note_on_c, 1, 51, 127
1, 58553, Note_on_c, 1, 69, 127
1, 58732, Note_off_c, 1, 51, 0
1, 58734, Note_on_c, 1, 53, 127
1, 58913, Note_off_c, 1, 53, 0
1, 58914, Note_off_c, 1, 69, 0
1, 58916, Note_on_c, 1, 54, 127
1, 58916, Note_on_c, 1, 70, 127
1, 59095, Note_off_c, 1, 54, 0
1, 59099, Note_on_c, 1, 53, 127
1, 59277, Note_off_c, 1, 70, 0
1, 59278, Note_off_c, 1, 53, 0
1, 59280, Note_on_c, 1, 51, 127
1, 59280, Note_on_c, 1, 72, 127
1, 59459, Note_off_c, 1, 51, 0
1, 59462, Note_on_c, 1, 53, 127
1, 59641, Note_off_c, 1, 72, 0
1, 59641, Note_off_c, 1, 53, 0
1, 59643, Note_on_c, 1, 46, 127
1, 59643, Note_on_c, 1, 73, 127
1, 59822, Note_off_c, 1, 46, 0
1, 59825, Note_on_c, 1, 53, 127
1, 60004, Note_off_c, 1, 73, 0
1, 60004, Note_off_c, 1, 53, 0
1, 60007, Note_on_c, 1, 55, 127
1, 60007, Note_on_c, 1, 76, 127
1, 60186, Note_off_c, 1, 55, 0
1, 60189, Note_on_c, 1, 56, 127
1, 60368, Note_off_c, 1, 76, 0
1, 60368, Note_off_c, 1, 56, 0
1, 60370, Note_on_c, 1, 55, 127
1, 60370, Note_on_c, 1, 77, 127
1, 60549, Note_off_c, 1, 55, 0
1, 60552, Note_on_c, 1, 53, 127
1, 60731, Note_off_c, 1, 77, 0
1, 60731, Note_off_c, 1, 53, 0
1, 60733, Note_on_c, 1, 52, 127
1, 60733, Note_on_c, 1, 79, 127
1, 60912, Note_off_c, 1, 52, 0
1, 60916, Note_on_c, 1, 53, 127
1, 61095, Note_off_c, 1, 53, 0
1, 61098, Note_on_c, 1, 44, 127
1, 61098, Note_on_c, 1, 72, 127
1, 61263, Note_off_c, 1, 79, 0
1, 61279, Note_on_c, 1, 76, 127
1, 61458, Note_off_c, 1, 76, 0
1, 61459, Note_off_c, 1, 44, 0
1, 61461, Note_on_c, 1, 77, 127
1, 61461, Note_on_c, 1, 41, 127
1, 61640, Note_off_c, 1, 77, 0
1, 61642, Note_on_c, 1, 80, 127
1, 61817, Note_off_c, 1, 72, 0
1, 61822, Note_off_c, 1, 41, 0
1, 61825, Note_on_c, 1, 48, 127
1, 61825, Note_on_c, 1, 70, 127
1, 62001, Note_off_c, 1, 80, 0
1, 62186, Note_off_c, 1, 48, 0
1, 62188, Note_on_c, 1, 36, 127
1, 62544, Note_off_c, 1, 70, 0
1, 62549, Note_off_c, 1, 36, 0
1, 62551, Note_on_c, 1, 41, 127
1, 62551, Note_on_c, 1, 68, 127
1, 62733, Note_on_c, 1, 72, 127
1, 62912, Note_off_c, 1, 41, 0
1, 62912, Note_off_c, 1, 72, 0
1, 62915, Note_on_c, 1, 76, 127
1, 62915, Note_on_c, 1, 44, 127
1, 63094, Note_off_c, 1, 76, 0
1, 63097, Note_on_c, 1, 77, 127
1, 63270, Note_off_c, 1, 68, 0
1, 63276, Note_off_c, 1, 44, 0
1, 63278, Note_on_c, 1, 46, 127
1, 63278, Note_on_c, 1, 67, 127
1, 63324, Note_off_c, 1, 77, 0
1, 63460, Note_on_c, 1, 73, 127
1, 63639, Note_off_c, 1, 46, 0
1, 63639, Note_off_c, 1, 73, 0
1, 63642, Note_on_c, 1, 48, 127
1, 63808, Note_off_c, 1, 67, 0
1, 63824, Note_on_c, 1, 70, 127
1, 64003, Note_off_c, 1, 48, 0
1, 64003, Note_off_c, 1, 70, 0
1, 64005, Note_on_c, 1, 68, 127
1, 64005, Note_on_c, 1, 53, 127
1, 64184, Note_off_c, 1, 68, 0
1, 64187, Note_on_c, 1, 67, 127
1, 64366, Note_off_c, 1, 53, 0
1, 64366, Note_off_c, 1, 67, 0
1, 64368, Note_on_c, 1, 65, 127
1, 64368, Note_on_c, 1, 55, 127
1, 64547, Note_off_c, 1, 65, 0
1, 64551, Note_on_c, 1, 64, 127
1, 64729, Note_off_c, 1, 55, 0
1, 64730, Note_off_c, 1, 64, 0
1, 64733, Note_on_c, 1, 65, 127
1, 64733, Note_on_c, 1, 56, 127
1, 64914, Note_on_c, 1, 68, 127
1, 65092, Note_off_c, 1, 65, 0
1, 65094, Note_off_c, 1, 56, 0
1, 65096, Note_on_c, 1, 60, 127
1, 65096, Note_on_c, 1, 53, 127
1, 65275, Note_off_c, 1, 60, 0
1, 65277, Note_on_c, 1, 63, 127
1, 65444, Note_off_c, 1, 68, 0
1, 65456, Note_off_c, 1, 63, 0
1, 65457, Note_off_c, 1, 53, 0
1, 65460, Note_on_c, 1, 58, 127
1, 65460, Note_on_c, 1, 62, 127
1, 65641, Note_on_c, 1, 68, 127
1, 65820, Note_off_c, 1, 68, 0
1, 65821, Note_off_c, 1, 58, 0
1, 65823, Note_on_c, 1, 65, 127
1, 65823, Note_on_c, 1, 46, 127
1, 65990, Note_off_c, 1, 62, 0
1, 66002, Note_off_c, 1, 65, 0
1, 66365, Note_off_c, 1, 46, 0
1, 66368, Note_on_c, 1, 56, 127
1, 66547, Note_off_c, 1, 56, 0
1, 66550, Note_on_c, 1, 55, 127
1, 66729, Note_off_c, 1, 55, 0
1, 66732, Note_on_c, 1, 53, 127
1, 66911, Note_off_c, 1, 53, 0
1, 66913, Note_on_c, 1, 67, 127
1, 66913, Note_on_c, 1, 51, 127
1, 67092, Note_off_c, 1, 67, 0
1, 67095, Note_on_c, 1, 65, 127
1, 67274, Note_off_c, 1, 51, 0
1, 67274, Note_off_c, 1, 65, 0
1, 67277, Note_on_c, 1, 63, 127
1, 67277, Note_on_c, 1, 53, 127
1, 67456, Note_off_c, 1, 63, 0
1, 67459, Note_on_c, 1, 62, 127
1, 67638, Note_off_c, 1, 53, 0
1, 67638, Note_off_c, 1, 62, 0
1, 67640, Note_on_c, 1, 63, 127
1, 67640, Note_on_c, 1, 55, 127
1, 67822, Note_on_c, 1, 67, 127
1, 67999, Note_off_c, 1, 63, 0
1, 68001, Note_off_c, 1, 55, 0
1, 68003, Note_on_c, 1, 59, 127
1, 68003, Note_on_c, 1, 51, 127
1, 68182, Note_off_c, 1, 59, 0
1, 68186, Note_on_c, 1, 62, 127
1, 68352, Note_off_c, 1, 67, 0
1, 68364, Note_off_c, 1, 51, 0
1, 68365, Note_off_c, 1, 62, 0
1, 68367, Note_on_c, 1, 56, 127
1, 68367, Note_on_c, 1, 60, 127
1, 68549, Note_on_c, 1, 67, 127
1, 68728, Note_off_c, 1, 56, 0
1, 68728, Note_off_c, 1, 67, 0
1, 68731, Note_on_c, 1, 63, 127
1, 68731, Note_on_c, 1, 44, 127
1, 68897, Note_off_c, 1, 60, 0
1, 68910, Note_off_c, 1, 63, 0
1, 69273, Note_off_c, 1, 44, 0
1, 69276, Note_on_c, 1, 55, 127
1, 69455, Note_off_c, 1, 55, 0
1, 69458, Note_on_c, 1, 53, 127
1, 69637, Note_off_c, 1, 53, 0
1, 69639, Note_on_c, 1, 51, 127
1, 69818, Note_off_c, 1, 51, 0
1, 69821, Note_on_c, 1, 65, 127
1, 69821, Note_on_c, 1, 50, 127
1, 70000, Note_off_c, 1, 65, 0
1, 70003, Note_on_c, 1, 63, 127
1, 70182, Note_off_c, 1, 50, 0
1, 70182, Note_off_c, 1, 63, 0
1, 70185, Note_on_c, 1, 62, 127
1, 70185, Note_on_c, 1, 51, 127
1, 70364, Note_off_c, 1, 62, 0
1, 70366, Note_on_c, 1, 60, 127
1, 70545, Note_off_c, 1, 60, 0
1, 70546, Note_off_c, 1, 51, 0
1, 70548, Note_on_c, 1, 53, 127
1, 70548, Note_on_c, 1, 62, 127
1, 70730, Note_on_c, 1, 65, 127
1, 70909, Note_off_c, 1, 53, 0
1, 70909, Note_off_c, 1, 65, 0
1, 70912, Note_on_c, 1, 50, 127
1, 70912, Note_on_c, 1, 68, 127
1, 71078, Note_off_c, 1, 62, 0
1, 71094, Note_on_c, 1, 60, 127
1, 71273, Note_off_c, 1, 50, 0
1, 71273, Note_off_c, 1, 60, 0
1, 71275, Note_on_c, 1, 59, 127
1, 71275, Note_on_c, 1, 55, 127
1, 71442, Note_off_c, 1, 68, 0
1, 71454, Note_off_c, 1, 59, 0
1, 71636, Note_off_c, 1, 55, 0
1, 71638, Note_on_c, 1, 62, 127
1, 71638, Note_on_c, 1, 43, 127
1, 71817, Note_off_c, 1, 62, 0
1, 71821, Note_on_c, 1, 59, 127
1, 72000, Note_off_c, 1, 59, 0
1, 72002, Note_on_c, 1, 55, 127
1, 72180, Note_off_c, 1, 43, 0
1, 72181, Note_off_c, 1, 55, 0
1, 72184, Note_on_c, 1, 59, 127
1, 72184, Note_on_c, 1, 53, 127
1, 72363, Note_off_c, 1, 59, 0
1, 72363, Note_off_c, 1, 53, 0
1, 72366, Note_on_c, 1, 60, 127
1, 72366, Note_on_c, 1, 51, 127
1, 72545, Note_off_c, 1, 60, 0
1, 72545, Note_off_c, 1, 51, 0
1, 72547, Note_on_c, 1, 62, 127
1, 72547, Note_on_c, 1, 50, 127
1, 72726, Note_off_c, 1, 62, 0
1, 72726, Note_off_c, 1, 50, 0
1, 72730, Note_on_c, 1, 48, 127
1, 72730, Note_on_c, 1, 63, 127
1, 72909, Note_off_c, 1, 48, 0
1, 72911, Note_on_c, 1, 50, 127
1, 73090, Note_off_c, 1, 50, 0
1, 73093, Note_on_c, 1, 51, 127
1, 73093, Note_on_c, 1, 67, 127
1, 73272, Note_off_c, 1, 51, 0
1, 73454, Note_off_c, 1, 67, 0
1, 73456, Note_on_c, 1, 44, 127
1, 73456, Note_on_c, 1, 72, 127
1, 73635, Note_off_c, 1, 44, 0
1, 73638, Note_off_c, 1, 63, 0
1, 73638, Note_on_c, 1, 70, 127
1, 73638, Note_on_c, 1, 55, 127
1, 73817, Note_off_c, 1, 70, 0
1, 73817, Note_off_c, 1, 55, 0
1, 73820, Note_on_c, 1, 68, 127
1, 73820, Note_on_c, 1, 53, 127
1, 73999, Note_off_c, 1, 68, 0
1, 73999, Note_off_c, 1, 53, 0
1, 74183, Note_on_c, 1, 65, 127
1, 74362, Note_off_c, 1, 65, 0
1, 74910, Note_on_c, 1, 62, 127
1, 74910, Note_on_c, 1, 46, 127
1, 75084, Note_off_c, 1, 72, 0
1, 75089, Note_off_c, 1, 62, 0
1, 75089, Note_off_c, 1, 46, 0
1, 75092, Note_on_c, 1, 72, 127
1, 75092, Note_on_c, 1, 56, 127
1, 75271, Note_off_c, 1, 72, 0
1, 75271, Note_off_c, 1, 56, 0
1, 75273, Note_on_c, 1, 70, 127
1, 75273, Note_on_c, 1, 55, 127
1, 75452, Note_off_c, 1, 70, 0
1, 75452, Note_off_c, 1, 55, 0
1, 75456, Note_on_c, 1, 68, 127
1, 75456, Note_on_c, 1, 53, 127
1, 75635, Note_off_c, 1, 68, 0
1, 75635, Note_off_c, 1, 53, 0
1, 75637, Note_on_c, 1, 67, 127
1, 75637, Note_on_c, 1, 51, 127
1, 75816, Note_off_c, 1, 67, 0
1, 75819, Note_on_c, 1, 68, 127
1, 75998, Note_off_c, 1, 51, 0
1, 75998, Note_off_c, 1, 68, 0
1, 76000, Note_on_c, 1, 50, 127
1, 76000, Note_on_c, 1, 70, 127
1, 76182, Note_on_c, 1, 67, 127
1, 76361, Note_off_c, 1, 50, 0
1, 76361, Note_off_c, 1, 67, 0
1, 76365, Note_on_c, 1, 60, 127
1, 76365, Note_on_c, 1, 51, 127
1, 76530, Note_off_c, 1, 70, 0
1, 76546, Note_on_c, 1, 73, 127
1, 76724, Note_off_c, 1, 60, 0
1, 76725, Note_off_c, 1, 73, 0
1, 76726, Note_off_c, 1, 51, 0
1, 76728, Note_on_c, 1, 72, 127
1, 76728, Note_on_c, 1, 52, 127
1, 76907, Note_off_c, 1, 72, 0
1, 76909, Note_on_c, 1, 70, 127
1, 77088, Note_off_c, 1, 70, 0
1, 77089, Note_off_c, 1, 52, 0
1, 77091, Note_on_c, 1, 68, 127
1, 77091, Note_on_c, 1, 53, 127
1, 77270, Note_off_c, 1, 68, 0
1, 77273, Note_on_c, 1, 70, 127
1, 77452, Note_off_c, 1, 53, 0
1, 77452, Note_off_c, 1, 70, 0
1, 77455, Note_on_c, 1, 52, 127
1, 77455, Note_on_c, 1, 72, 127
1, 77636, Note_on_c, 1, 68, 127
1, 77815, Note_off_c, 1, 68, 0
1, 77816, Note_off_c, 1, 52, 0
1, 77818, Note_on_c, 1, 62, 127
1, 77818, Note_on_c, 1, 53, 127
1, 77986, Note_off_c, 1, 72, 0
1, 78001, Note_on_c, 1, 75, 127
1, 78183, Note_off_c, 1, 62, 0
1, 78184, Note_off_c, 1, 53, 0
1, 78184, Note_off_c, 1, 75, 0
1, 78187, Note_on_c, 1, 74, 127
1, 78187, Note_on_c, 1, 54, 127
1, 78370, Note_off_c, 1, 74, 0
1, 78372, Note_on_c, 1, 72, 127
1, 78555, Note_off_c, 1, 54, 0
1, 78555, Note_off_c, 1, 72, 0
1, 78559, Note_on_c, 1, 55, 127
1, 78559, Note_on_c, 1, 71, 127
1, 78742, Note_off_c, 1, 55, 0
1, 78744, Note_on_c, 1, 53, 127
1, 78744, Note_on_c, 1, 67, 127
1, 78925, Note_off_c, 1, 71, 0
1, 78927, Note_off_c, 1, 53, 0
1, 78930, Note_on_c, 1, 51, 127
1, 78930, Note_on_c, 1, 72, 127
1, 79113, Note_off_c, 1, 51, 0
1, 79115, Note_on_c, 1, 74, 127
1, 79298, Note_off_c, 1, 74, 0
1, 79300, Note_on_c, 1, 75, 127
1, 79485, Note_off_c, 1, 67, 0
1, 79679, Note_off_c, 1, 72, 0
1, 79681, Note_off_c, 1, 75, 0
1, 79687, Note_on_c, 1, 43, 127
1, 79891, Note_on_c, 1, 65, 127
1, 80091, Note_off_c, 1, 43, 0
1, 80092, Note_off_c, 1, 65, 0
1, 80096, Note_on_c, 1, 63, 127
1, 80179, Note_on_c, 1, 67, 127
1, 80263, Note_on_c, 1, 72, 127
1, 80263, Note_on_c, 1, 48, 127
1, 80510, Note_on_c, 1, 51, 127
1, 80758, Note_on_c, 1, 55, 127
1, 81006, Note_on_c, 1, 60, 127
1, 83324, Note_off_c, 1, 60, 0
1, 83408, Note_off_c, 1, 55, 0
1, 83491, Note_off_c, 1, 51, 0
1, 83575, Note_off_c, 1, 72, 0
1, 83741, Note_off_c, 1, 63, 0
1, 83741, Note_off_c, 1, 67, 0
1, 83742, Note_off_c, 1, 48, 0
1, 84480, Note_on_c, 1, 67, 127
1, 84846, Note_off_c, 1, 67, 0
1, 84849, Note_on_c, 1, 63, 127
1, 85215, Note_off_c, 1, 63, 0
1, 85219, Note_on_c, 1, 65, 127
1, 85585, Note_off_c, 1, 65, 0
1, 85588, Note_on_c, 1, 67, 127
1, 85954, Note_off_c, 1, 67, 0
1, 85957, Note_on_c, 1, 60, 127
1, 86323, Note_off_c, 1, 60, 0
1, 86326, Note_on_c, 1, 65, 127
1, 86692, Note_off_c, 1, 65, 0
1, 86696, Note_on_c, 1, 63, 127
1, 86879, Note_off_c, 1, 63, 0
1, 86881, Note_on_c, 1, 62, 127
1, 87064, Note_off_c, 1, 62, 0
1, 87066, Note_on_c, 1, 63, 127
1, 87435, Note_on_c, 1, 72, 127
1, 87796, Note_off_c, 1, 63, 0
1, 87801, Note_off_c, 1, 72, 0
1, 87804, Note_on_c, 1, 70, 127
1, 87804, Note_on_c, 1, 62, 127
1, 88170, Note_off_c, 1, 70, 0
1, 88170, Note_off_c, 1, 62, 0
1, 88174, Note_on_c, 1, 60, 127
1, 88174, Note_on_c, 1, 72, 127
1, 88540, Note_off_c, 1, 60, 0
1, 88540, Note_off_c, 1, 72, 0
1, 88543, Note_on_c, 1, 74, 127
1, 88543, Note_on_c, 1, 58, 127
1, 88909, Note_off_c, 1, 74, 0
1, 88912, Note_on_c, 1, 67, 127
1, 89273, Note_off_c, 1, 58, 0
1, 89278, Note_off_c, 1, 67, 0
1, 89281, Note_on_c, 1, 72, 127
1, 89281, Note_on_c, 1, 57, 127
1, 89647, Note_off_c, 1, 72, 0
1, 89743, Note_on_c, 1, 70, 127
1, 89833, Note_off_c, 1, 70, 0
1, 89836, Note_on_c, 1, 69, 127
1, 90013, Note_off_c, 1, 57, 0
1, 90019, Note_off_c, 1, 69, 0
1, 90022, Note_on_c, 1, 55, 127
1, 90022, Note_on_c, 1, 70, 127
1, 90388, Note_off_c, 1, 55, 0
1, 90391, Note_on_c, 1, 67, 127
1, 90752, Note_off_c, 1, 70, 0
1, 90760, Note_on_c, 1, 68, 127
1, 91121, Note_off_c, 1, 67, 0
1, 91130, Note_on_c, 1, 65, 127
1, 91490, Note_off_c, 1, 68, 0
1, 91860, Note_off_c, 1, 65, 0
1, 91867, Note_on_c, 1, 72, 127
1, 91867, Note_on_c, 1, 63, 127
1, 92233, Note_off_c, 1, 72, 0
1, 92236, Note_on_c, 1, 65, 127
1, 92597, Note_off_c, 1, 63, 0
1, 92606, Note_on_c, 1, 62, 127
1, 92789, Note_off_c, 1, 62, 0
1, 92792, Note_on_c, 1, 60, 127
1, 92975, Note_off_c, 1, 60, 0
1, 92977, Note_on_c, 1, 59, 127
1, 93342, Note_off_c, 1, 65, 0
1, 93346, Note_on_c, 1, 55, 127
1, 93709, Note_off_c, 1, 59, 0
1, 93714, Note_off_c, 1, 55, 0
1, 93717, Note_on_c, 1, 67, 127
1, 93717, Note_on_c, 1, 51, 127
1, 93717, Note_on_c, 1, 60, 127
1, 94083, Note_off_c, 1, 67, 0
1, 94083, Note_off_c, 1, 51, 0
1, 94086, Note_on_c, 1, 65, 127
1, 94086, Note_on_c, 1, 53, 127
1, 94452, Note_off_c, 1, 65, 0
1, 94452, Note_off_c, 1, 53, 0
1, 94456, Note_on_c, 1, 55, 127
1, 94456, Note_on_c, 1, 63, 127
1, 94822, Note_off_c, 1, 55, 0
1, 94825, Note_on_c, 1, 48, 127
1, 94905, Note_off_c, 1, 60, 0
1, 94915, Note_off_c, 1, 63, 0
1, 94918, Note_on_c, 1, 62, 127
1, 95008, Note_off_c, 1, 62, 0
1, 95193, Note_off_c, 1, 48, 0
1, 95196, Note_on_c, 1, 63, 127
1, 95196, Note_on_c, 1, 53, 127
1, 95196, Note_on_c, 1, 59, 127
1, 95286, Note_off_c, 1, 63, 0
1, 95289, Note_on_c, 1, 62, 127
1, 95379, Note_off_c, 1, 62, 0
1, 95564, Note_off_c, 1, 53, 0
1, 95566, Note_on_c, 1, 51, 127
1, 95749, Note_off_c, 1, 51, 0
1, 95752, Note_on_c, 1, 60, 127
1, 95752, Note_on_c, 1, 50, 127
1, 95842, Note_off_c, 1, 60, 0
1, 95929, Note_off_c, 1, 59, 0
1, 95935, Note_off_c, 1, 50, 0
1, 95938, Note_on_c, 1, 51, 127
1, 95938, Note_on_c, 1, 60, 127
1, 96121, Note_off_c, 1, 51, 0
1, 96124, Note_on_c, 1, 55, 127
1, 96307, Note_off_c, 1, 55, 0
1, 96309, Note_on_c, 1, 48, 127
1, 96309, Note_on_c, 1, 67, 127
1, 96492, Note_off_c, 1, 48, 0
1, 96495, Note_on_c, 1, 50, 127
1, 96671, Note_off_c, 1, 60, 0
1, 96677, Note_off_c, 1, 67, 0
1, 96678, Note_off_c, 1, 50, 0
1, 96680, Note_on_c, 1, 51, 127
1, 96680, Note_on_c, 1, 72, 127
1, 96863, Note_off_c, 1, 51, 0
1, 96866, Note_on_c, 1, 53, 127
1, 97049, Note_off_c, 1, 53, 0
1, 97051, Note_on_c, 1, 55, 127
1, 97051, Note_on_c, 1, 63, 127
1, 97234, Note_off_c, 1, 55, 0
1, 97236, Note_on_c, 1, 57, 127
1, 97419, Note_off_c, 1, 63, 0
1, 97419, Note_off_c, 1, 57, 0
1, 97422, Note_on_c, 1, 62, 127
1, 97422, Note_on_c, 1, 58, 127
1, 97605, Note_off_c, 1, 62, 0
1, 97605, Note_off_c, 1, 58, 0
1, 97607, Note_on_c, 1, 66, 127
1, 97790, Note_off_c, 1, 72, 0
1, 97790, Note_off_c, 1, 66, 0
1, 97794, Note_on_c, 1, 70, 127
1, 97794, Note_on_c, 1, 55, 127
1, 97794, Note_on_c, 1, 67, 127
1, 97977, Note_off_c, 1, 70, 0
1, 97977, Note_off_c, 1, 55, 0
1, 97979, Note_on_c, 1, 72, 127
1, 97979, Note_on_c, 1, 57, 127
1, 98162, Note_off_c, 1, 72, 0
1, 98162, Note_off_c, 1, 57, 0
1, 98165, Note_on_c, 1, 74, 127
1, 98165, Note_on_c, 1, 58, 127
1, 98332, Note_off_c, 1, 67, 0
1, 98346, Note_off_c, 1, 74, 0
1, 98346, Note_off_c, 1, 58, 0
1, 98348, Note_on_c, 1, 76, 127
1, 98348, Note_on_c, 1, 60, 127
1, 98531, Note_off_c, 1, 76, 0
1, 98531, Note_off_c, 1, 60, 0
1, 98533, Note_on_c, 1, 77, 127
1, 98533, Note_on_c, 1, 62, 127
1, 98716, Note_off_c, 1, 77, 0
1, 98716, Note_off_c, 1, 62, 0
1, 98719, Note_on_c, 1, 79, 127
1, 98719, Note_on_c, 1, 64, 127
1, 98902, Note_off_c, 1, 79, 0
1, 98902, Note_off_c, 1, 64, 0
1, 98904, Note_on_c, 1, 80, 127
1, 98904, Note_on_c, 1, 65, 127
1, 99087, Note_off_c, 1, 80, 0
1, 99090, Note_on_c, 1, 77, 127
1, 99272, Note_off_c, 1, 65, 0
1, 99273, Note_off_c, 1, 77, 0
1, 99275, Note_on_c, 1, 84, 127
1, 99275, Note_on_c, 1, 56, 127
1, 99458, Note_off_c, 1, 84, 0
1, 99462, Note_on_c, 1, 82, 127
1, 99643, Note_off_c, 1, 56, 0
1, 99645, Note_off_c, 1, 82, 0
1, 99647, Note_on_c, 1, 80, 127
1, 99647, Note_on_c, 1, 53, 127
1, 99830, Note_off_c, 1, 80, 0
1, 99833, Note_on_c, 1, 79, 127
1, 100015, Note_off_c, 1, 53, 0
1, 100016, Note_off_c, 1, 79, 0
1, 100018, Note_on_c, 1, 77, 127
1, 100018, Note_on_c, 1, 56, 127
1, 100201, Note_off_c, 1, 77, 0
1, 100203, Note_on_c, 1, 75, 127
1, 100386, Note_off_c, 1, 56, 0
1, 100386, Note_off_c, 1, 75, 0
1, 100389, Note_on_c, 1, 74, 127
1, 100389, Note_on_c, 1, 58, 127
1, 100572, Note_off_c, 1, 74, 0
1, 100574, Note_on_c, 1, 70, 127
1, 100757, Note_off_c, 1, 58, 0
1, 100757, Note_off_c, 1, 70, 0
1, 100760, Note_on_c, 1, 77, 127
1, 100760, Note_on_c, 1, 62, 127
1, 100943, Note_off_c, 1, 77, 0
1, 100945, Note_on_c, 1, 75, 127
1, 101128, Note_off_c, 1, 62, 0
1, 101128, Note_off_c, 1, 75, 0
1, 101131, Note_on_c, 1, 74, 127
1, 101131, Note_on_c, 1, 58, 127
1, 101314, Note_off_c, 1, 74, 0
1, 101317, Note_on_c, 1, 72, 127
1, 101499, Note_off_c, 1, 58, 0
1, 101500, Note_off_c, 1, 72, 0
1, 101502, Note_on_c, 1, 70, 127
1, 101502, Note_on_c, 1, 62, 127
1, 101685, Note_off_c, 1, 70, 0
1, 101688, Note_on_c, 1, 68, 127
1, 101870, Note_off_c, 1, 62, 0
1, 101871, Note_off_c, 1, 68, 0
1, 101873, Note_on_c, 1, 67, 127
1, 101873, Note_on_c, 1, 63, 127
1, 102059, Note_on_c, 1, 60, 127
1, 102239, Note_off_c, 1, 67, 0
1, 102241, Note_off_c, 1, 63, 0
1, 102242, Note_off_c, 1, 60, 0
1, 102244, Note_on_c, 1, 68, 127
1, 102244, Note_on_c, 1, 48, 127
1, 102427, Note_off_c, 1, 68, 0
1, 102430, Note_on_c, 1, 67, 127
1, 102612, Note_off_c, 1, 48, 0
1, 102613, Note_off_c, 1, 67, 0
1, 102615, Note_on_c, 1, 65, 127
1, 102615, Note_on_c, 1, 47, 127
1, 102798, Note_off_c, 1, 65, 0
1, 102800, Note_on_c, 1, 63, 127
1, 102983, Note_off_c, 1, 47, 0
1, 102983, Note_off_c, 1, 63, 0
1, 102986, Note_on_c, 1, 62, 127
1, 102986, Note_on_c, 1, 48, 127
1, 103169, Note_off_c, 1, 62, 0
1, 103172, Note_on_c, 1, 60, 127
1, 103354, Note_off_c, 1, 48, 0
1, 103355, Note_off_c, 1, 60, 0
1, 103358, Note_on_c, 1, 59, 127
1, 103358, Note_on_c, 1, 50, 127
1, 103543, Note_on_c, 1, 65, 127
1, 103724, Note_off_c, 1, 59, 0
1, 103726, Note_off_c, 1, 50, 0
1, 103726, Note_off_c, 1, 65, 0
1, 103729, Note_on_c, 1, 63, 127
1, 103729, Note_on_c, 1, 43, 127
1, 103912, Note_off_c, 1, 63, 0
1, 103914, Note_on_c, 1, 62, 127
1, 104097, Note_off_c, 1, 43, 0
1, 104097, Note_off_c, 1, 62, 0
1, 104100, Note_on_c, 1, 63, 127
1, 104100, Note_on_c, 1, 48, 127
1, 104285, Note_on_c, 1, 68, 127
1, 104466, Note_off_c, 1, 63, 0
1, 104468, Note_off_c, 1, 48, 0
1, 104468, Note_off_c, 1, 68, 0
1, 104470, Note_on_c, 1, 67, 127
1, 104470, Note_on_c, 1, 47, 127
1, 104653, Note_off_c, 1, 67, 0
1, 104653, Note_off_c, 1, 47, 0
1, 104656, Note_on_c, 1, 65, 127
1, 104656, Note_on_c, 1, 45, 127
1, 104839, Note_off_c, 1, 65, 0
1, 104839, Note_off_c, 1, 45, 0
1, 104841, Note_on_c, 1, 74, 127
1, 104841, Note_on_c, 1, 47, 127
1, 105024, Note_off_c, 1, 74, 0
1, 105028, Note_on_c, 1, 72, 127
1, 105209, Note_off_c, 1, 47, 0
1, 105211, Note_off_c, 1, 72, 0
1, 105213, Note_on_c, 1, 43, 127
1, 105213, Note_on_c, 1, 74, 127
1, 105399, Note_on_c, 1, 79, 127
1, 105581, Note_off_c, 1, 43, 0
1, 105582, Note_off_c, 1, 79, 0
1, 105584, Note_on_c, 1, 48, 127
1, 105584, Note_on_c, 1, 75, 127
1, 105751, Note_off_c, 1, 74, 0
1, 105767, Note_on_c, 1, 71, 127
1, 105950, Note_off_c, 1, 48, 0
1, 105950, Note_off_c, 1, 71, 0
1, 105953, Note_on_c, 1, 44, 127
1, 105953, Note_on_c, 1, 72, 127
1, 106120, Note_off_c, 1, 75, 0
1, 106136, Note_on_c, 1, 77, 127
1, 106319, Note_off_c, 1, 44, 0
1, 106319, Note_off_c, 1, 77, 0
1, 106322, Note_on_c, 1, 39, 127
1, 106489, Note_off_c, 1, 72, 0
1, 106874, Note_off_c, 1, 39, 0
1, 106877, Note_on_c, 1, 56, 127
1, 107060, Note_off_c, 1, 56, 0
1, 107063, Note_on_c, 1, 50, 127
1, 107429, Note_off_c, 1, 50, 0
1, 107432, Note_on_c, 1, 55, 127
1, 107798, Note_off_c, 1, 55, 0
1, 107800, Note_on_c, 1, 72, 127
1, 107800, Note_on_c, 1, 75, 127
1, 107800, Note_on_c, 1, 48, 127
1, 107983, Note_off_c, 1, 72, 0
1, 107986, Note_on_c, 1, 67, 127
1, 108166, Note_off_c, 1, 75, 0
1, 108169, Note_off_c, 1, 67, 0
1, 108171, Note_on_c, 1, 68, 127
1, 108354, Note_off_c, 1, 48, 0
1, 108358, Note_on_c, 1, 53, 127
1, 108541, Note_off_c, 1, 53, 0
1, 108543, Note_on_c, 1, 73, 127
1, 108543, Note_on_c, 1, 46, 127
1, 108709, Note_off_c, 1, 68, 0
1, 108908, Note_off_c, 1, 73, 0
1, 108909, Note_off_c, 1, 46, 0
1, 108912, Note_on_c, 1, 51, 127
1, 109098, Note_on_c, 1, 70, 127
1, 109280, Note_off_c, 1, 51, 0
1, 109281, Note_off_c, 1, 70, 0
1, 109283, Note_on_c, 1, 44, 127
1, 109468, Note_on_c, 1, 64, 127
1, 109651, Note_off_c, 1, 64, 0
1, 109654, Note_on_c, 1, 65, 127
1, 109837, Note_off_c, 1, 44, 0
1, 109839, Note_on_c, 1, 49, 127
1, 110022, Note_off_c, 1, 49, 0
1, 110026, Note_on_c, 1, 43, 127
1, 110192, Note_off_c, 1, 65, 0
1, 110392, Note_off_c, 1, 43, 0
1, 110764, Note_on_c, 1, 41, 127
1, 110764, Note_on_c, 1, 65, 127
1, 110764, Note_on_c, 1, 68, 127
1, 110947, Note_off_c, 1, 41, 0
1, 110949, Note_on_c, 1, 48, 127
1, 111132, Note_off_c, 1, 65, 0
1, 111132, Note_off_c, 1, 48, 0
1, 111134, Note_on_c, 1, 60, 127
1, 111134, Note_on_c, 1, 53, 127
1, 111302, Note_off_c, 1, 68, 0
1, 111499, Note_off_c, 1, 60, 0
1, 111503, Note_on_c, 1, 59, 127
1, 111503, Note_on_c, 1, 62, 127
1, 111686, Note_off_c, 1, 53, 0
1, 111690, Note_on_c, 1, 51, 127
1, 111871, Note_off_c, 1, 59, 0
1, 111871, Note_off_c, 1, 62, 0
1, 111873, Note_off_c, 1, 51, 0
1, 111875, Note_on_c, 1, 50, 127
1, 111875, Note_on_c, 1, 60, 127
1, 111875, Note_on_c, 1, 63, 127
1, 112058, Note_off_c, 1, 50, 0
1, 112061, Note_on_c, 1, 48, 127
1, 112243, Note_off_c, 1, 60, 0
1, 112243, Note_off_c, 1, 63, 0
1, 112244, Note_off_c, 1, 48, 0
1, 112246, Note_on_c, 1, 47, 127
1, 112246, Note_on_c, 1, 65, 127
1, 112246, Note_on_c, 1, 62, 127
1, 112429, Note_off_c, 1, 47, 0
1, 112432, Note_on_c, 1, 43, 127
1, 112614, Note_off_c, 1, 65, 0
1, 112614, Note_off_c, 1, 62, 0
1, 112615, Note_off_c, 1, 43, 0
1, 112617, Note_on_c, 1, 48, 127
1, 112617, Note_on_c, 1, 55, 127
1, 112617, Note_on_c, 1, 63, 127
1, 112800, Note_off_c, 1, 48, 0
1, 112802, Note_on_c, 1, 46, 127
1, 112985, Note_off_c, 1, 55, 0
1, 112985, Note_off_c, 1, 46, 0
1, 112988, Note_on_c, 1, 44, 127
1, 112988, Note_on_c, 1, 60, 127
1, 113171, Note_off_c, 1, 44, 0
1, 113350, Note_off_c, 1, 63, 0
1, 113356, Note_off_c, 1, 60, 0
1, 113359, Note_on_c, 1, 59, 127
1, 113359, Note_on_c, 1, 38, 127
1, 113359, Note_on_c, 1, 65, 127
1, 113542, Note_off_c, 1, 59, 0
1, 113545, Note_on_c, 1, 57, 127
1, 113727, Note_off_c, 1, 38, 0
1, 113728, Note_off_c, 1, 57, 0
1, 113731, Note_on_c, 1, 55, 127
1, 113731, Note_on_c, 1, 39, 127
1, 113914, Note_off_c, 1, 55, 0
1, 114092, Note_off_c, 1, 65, 0
1, 114101, Note_on_c, 1, 63, 127
1, 114101, Note_on_c, 1, 60, 127
1, 114285, Note_off_c, 1, 39, 0
1, 114287, Note_on_c, 1, 36, 127
1, 114469, Note_off_c, 1, 63, 0
1, 114470, Note_off_c, 1, 36, 0
1, 114472, Note_on_c, 1, 41, 127
1, 114472, Note_on_c, 1, 68, 127
1, 114639, Note_off_c, 1, 60, 0
1, 114838, Note_off_c, 1, 41, 0
1, 114841, Note_on_c, 1, 46, 127
1, 114841, Note_on_c, 1, 62, 127
1, 115008, Note_off_c, 1, 68, 0
1, 115207, Note_off_c, 1, 46, 0
1, 115211, Note_on_c, 1, 47, 127
1, 115211, Note_on_c, 1, 67, 127
1, 115377, Note_off_c, 1, 62, 0
1, 115577, Note_off_c, 1, 47, 0
1, 115580, Note_on_c, 1, 48, 127
1, 115706, Note_off_c, 1, 67, 0
1, 115946, Note_off_c, 1, 48, 0
1, 115949, Note_on_c, 1, 44, 127
1, 115949, Note_on_c, 1, 72, 127
1, 116315, Note_off_c, 1, 44, 0
1, 116318, Note_on_c, 1, 66, 127
1, 116485, Note_off_c, 1, 72, 0
1, 116501, Note_on_c, 1, 70, 127
1, 116683, Note_off_c, 1, 66, 0
1, 116688, Note_on_c, 1, 64, 127
1, 116867, Note_off_c, 1, 70, 0
1, 117054, Note_off_c, 1, 64, 0
1, 117059, Note_on_c, 1, 41, 127
1, 117059, Note_on_c, 1, 68, 127
1, 117244, Note_on_c, 1, 65, 127
1, 117427, Note_off_c, 1, 41, 0
1, 117427, Note_off_c, 1, 65, 0
1, 117430, Note_on_c, 1, 46, 127
1, 117430, Note_on_c, 1, 61, 127
1, 117597, Note_off_c, 1, 68, 0
1, 117613, Note_on_c, 1, 67, 127
1, 117796, Note_off_c, 1, 46, 0
1, 117796, Note_off_c, 1, 67, 0
1, 117799, Note_on_c, 1, 44, 127
1, 117982, Note_off_c, 1, 44, 0
1, 117984, Note_on_c, 1, 70, 127
1, 117984, Note_on_c, 1, 43, 127
1, 118167, Note_off_c, 1, 70, 0
1, 118167, Note_off_c, 1, 43, 0
1, 118169, Note_on_c, 1, 64, 127
1, 118355, Note_off_c, 1, 61, 0
1, 118356, Note_on_c, 1, 60, 127
1, 118535, Note_off_c, 1, 64, 0
1, 118539, Note_off_c, 1, 60, 0
1, 118541, Note_on_c, 1, 56, 127
1, 118541, Note_on_c, 1, 65, 127
1, 118724, Note_off_c, 1, 56, 0
1, 118727, Note_on_c, 1, 68, 127
1, 118727, Note_on_c, 1, 53, 127
1, 118910, Note_off_c, 1, 68, 0
1, 118910, Note_off_c, 1, 53, 0
1, 118912, Note_on_c, 1, 58, 127
1, 118912, Note_on_c, 1, 73, 127
1, 119079, Note_off_c, 1, 65, 0
1, 119096, Note_on_c, 1, 67, 127
1, 119278, Note_off_c, 1, 58, 0
1, 119279, Note_off_c, 1, 67, 0
1, 119281, Note_on_c, 1, 60, 127
1, 119448, Note_off_c, 1, 73, 0
1, 119465, Note_on_c, 1, 72, 127
1, 119647, Note_off_c, 1, 60, 0
1, 119650, Note_on_c, 1, 66, 127
1, 119650, Note_on_c, 1, 50, 127
1, 119831, Note_off_c, 1, 72, 0
1, 120016, Note_off_c, 1, 66, 0
1, 120018, Note_off_c, 1, 50, 0
1, 120022, Note_on_c, 1, 55, 127
1, 120022, Note_on_c, 1, 70, 127
1, 120207, Note_on_c, 1, 67, 127
1, 120390, Note_off_c, 1, 55, 0
1, 120390, Note_off_c, 1, 67, 0
1, 120393, Note_on_c, 1, 48, 127
1, 120393, Note_on_c, 1, 63, 127
1, 120521, Note_off_c, 1, 70, 0
1, 120576, Note_on_c, 1, 69, 127
1, 120759, Note_off_c, 1, 48, 0
1, 120759, Note_off_c, 1, 69, 0
1, 120762, Note_on_c, 1, 46, 127
1, 120945, Note_off_c, 1, 46, 0
1, 120947, Note_on_c, 1, 72, 127
1, 120947, Note_on_c, 1, 45, 127
1, 121130, Note_off_c, 1, 72, 0
1, 121130, Note_off_c, 1, 45, 0
1, 121133, Note_on_c, 1, 66, 127
1, 121318, Note_off_c, 1, 63, 0
1, 121318, Note_on_c, 1, 62, 127
1, 121499, Note_off_c, 1, 66, 0
1, 121503, Note_on_c, 1, 51, 127
1, 121684, Note_off_c, 1, 62, 0
1, 121689, Note_on_c, 1, 60, 127
1, 121871, Note_off_c, 1, 51, 0
1, 121872, Note_off_c, 1, 60, 0
1, 121875, Note_on_c, 1, 58, 127
1, 122240, Note_off_c, 1, 58, 0
1, 122244, Note_on_c, 1, 57, 127
1, 122244, Note_on_c, 1, 50, 127
1, 122610, Note_off_c, 1, 57, 0
1, 122612, Note_off_c, 1, 50, 0
1, 122615, Note_on_c, 1, 55, 127
1, 122615, Note_on_c, 1, 67, 127
1, 122615, Note_on_c, 1, 43, 127
1, 122981, Note_off_c, 1, 55, 0
1, 122984, Note_on_c, 1, 79, 127
1, 123345, Note_off_c, 1, 67, 0
1, 123350, Note_off_c, 1, 43, 0
1, 123350, Note_off_c, 1, 79, 0
1, 123354, Note_on_c, 1, 75, 127
1, 123354, Note_on_c, 1, 67, 127
1, 123720, Note_off_c, 1, 75, 0
1, 123723, Note_on_c, 1, 77, 127
1, 124089, Note_off_c, 1, 67, 0
1, 124089, Note_off_c, 1, 77, 0
1, 124092, Note_on_c, 1, 79, 127
1, 124092, Note_on_c, 1, 63, 127
1, 124458, Note_off_c, 1, 79, 0
1, 124461, Note_on_c, 1, 72, 127
1, 124827, Note_off_c, 1, 63, 0
1, 124827, Note_off_c, 1, 72, 0
1, 124831, Note_on_c, 1, 77, 127
1, 124831, Note_on_c, 1, 65, 127
1, 125197, Note_off_c, 1, 77, 0
1, 125292, Note_on_c, 1, 75, 127
1, 125382, Note_off_c, 1, 75, 0
1, 125385, Note_on_c, 1, 74, 127
1, 125568, Note_off_c, 1, 65, 0
1, 125568, Note_off_c, 1, 74, 0
1, 125570, Note_on_c, 1, 75, 127
1, 125570, Note_on_c, 1, 67, 127
1, 125753, Note_off_c, 1, 75, 0
1, 125756, Note_on_c, 1, 74, 127
1, 125939, Note_off_c, 1, 74, 0
1, 125941, Note_on_c, 1, 72, 127
1, 125941, Note_on_c, 1, 55, 127
1, 126124, Note_off_c, 1, 72, 0
1, 126127, Note_on_c, 1, 71, 127
1, 126303, Note_off_c, 1, 67, 0
1, 126309, Note_off_c, 1, 55, 0
1, 126310, Note_off_c, 1, 71, 0
1, 126312, Note_on_c, 1, 72, 127
1, 126312, Note_on_c, 1, 56, 127
1, 126312, Note_on_c, 1, 60, 127
1, 126495, Note_off_c, 1, 72, 0
1, 126498, Note_on_c, 1, 75, 127
1, 126680, Note_off_c, 1, 56, 0
1, 126681, Note_off_c, 1, 75, 0
1, 126684, Note_on_c, 1, 77, 127
1, 126684, Note_on_c, 1, 55, 127
1, 126867, Note_off_c, 1, 77, 0
1, 126869, Note_on_c, 1, 79, 127
1, 127045, Note_off_c, 1, 60, 0
1, 127052, Note_off_c, 1, 55, 0
1, 127052, Note_off_c, 1, 79, 0
1, 127055, Note_on_c, 1, 80, 127
1, 127055, Note_on_c, 1, 53, 127
1, 127055, Note_on_c, 1, 65, 127
1, 127238, Note_off_c, 1, 80, 0
1, 127240, Note_on_c, 1, 72, 127
1, 127423, Note_off_c, 1, 53, 0
1, 127423, Note_off_c, 1, 72, 0
1, 127426, Note_on_c, 1, 71, 127
1, 127426, Note_on_c, 1, 62, 127
1, 127609, Note_off_c, 1, 71, 0
1, 127611, Note_on_c, 1, 69, 127
1, 127794, Note_off_c, 1, 62, 0
1, 127794, Note_off_c, 1, 69, 0
1, 127797, Note_on_c, 1, 55, 127
1, 127982, Note_off_c, 1, 65, 0
1, 127982, Note_on_c, 1, 79, 127
1, 127982, Note_on_c, 1, 63, 127
1, 128163, Note_off_c, 1, 55, 0
1, 128165, Note_off_c, 1, 79, 0
1, 128165, Note_off_c, 1, 63, 0
1, 128167, Note_on_c, 1, 77, 127
1, 128167, Note_on_c, 1, 57, 127
1, 128167, Note_on_c, 1, 62, 127
1, 128350, Note_off_c, 1, 77, 0
1, 128350, Note_off_c, 1, 57, 0
1, 128353, Note_on_c, 1, 79, 127
1, 128353, Note_on_c, 1, 59, 127
1, 128533, Note_off_c, 1, 62, 0
1, 128536, Note_off_c, 1, 79, 0
1, 128536, Note_off_c, 1, 59, 0
1, 128539, Note_on_c, 1, 60, 127
1, 128539, Note_on_c, 1, 75, 127
1, 128722, Note_off_c, 1, 60, 0
1, 128725, Note_on_c, 1, 62, 127
1, 128907, Note_off_c, 1, 75, 0
1, 128908, Note_off_c, 1, 62, 0
1, 128910, Note_on_c, 1, 63, 127
1, 128910, Note_on_c, 1, 72, 127
1, 129093, Note_off_c, 1, 63, 0
1, 129096, Note_on_c, 1, 65, 127
1, 129278, Note_off_c, 1, 72, 0
1, 129279, Note_off_c, 1, 65, 0
1, 129281, Note_on_c, 1, 67, 127
1, 129281, Note_on_c, 1, 70, 127
1, 129464, Note_off_c, 1, 67, 0
1, 129466, Note_on_c, 1, 63, 127
1, 129649, Note_off_c, 1, 70, 0
1, 129649, Note_off_c, 1, 63, 0
1, 129652, Note_on_c, 1, 62, 127
1, 129652, Note_on_c, 1, 72, 127
1, 129835, Note_off_c, 1, 62, 0
1, 129837, Note_on_c, 1, 60, 127
1, 130020, Note_off_c, 1, 72, 0
1, 130020, Note_off_c, 1, 60, 0
1, 130023, Note_on_c, 1, 58, 127
1, 130023, Note_on_c, 1, 74, 127
1, 130206, Note_off_c, 1, 58, 0
1, 130208, Note_on_c, 1, 57, 127
1, 130391, Note_off_c, 1, 74, 0
1, 130391, Note_off_c, 1, 57, 0
1, 130395, Note_on_c, 1, 67, 127
1, 130395, Note_on_c, 1, 79, 127
1, 130395, Note_on_c, 1, 58, 127
1, 130761, Note_off_c, 1, 67, 0
1, 130761, Note_off_c, 1, 79, 0
1, 130764, Note_on_c, 1, 72, 127
1, 130764, Note_on_c, 1, 76, 127
1, 130947, Note_off_c, 1, 58, 0
1, 130949, Note_on_c, 1, 57, 127
1, 131132, Note_off_c, 1, 72, 0
1, 131132, Note_off_c, 1, 76, 0
1, 131132, Note_off_c, 1, 57, 0
1, 131134, Note_on_c, 1, 70, 127
1, 131134, Note_on_c, 1, 62, 127
1, 131134, Note_on_c, 1, 78, 127
1, 131317, Note_off_c, 1, 70, 0
1, 131317, Note_off_c, 1, 62, 0
1, 131320, Note_on_c, 1, 69, 127
1, 131320, Note_on_c, 1, 60, 127
1, 131500, Note_off_c, 1, 78, 0
1, 131503, Note_off_c, 1, 69, 0
1, 131503, Note_off_c, 1, 60, 0
1, 131505, Note_on_c, 1, 58, 127
1, 131505, Note_on_c, 1, 70, 127
1, 131505, Note_on_c, 1, 79, 127
1, 131688, Note_off_c, 1, 58, 0
1, 131691, Note_on_c, 1, 55, 127
1, 131873, Note_off_c, 1, 70, 0
1, 131873, Note_off_c, 1, 79, 0
1, 131874, Note_off_c, 1, 55, 0
1, 131876, Note_on_c, 1, 68, 127
1, 131876, Note_on_c, 1, 72, 127
1, 131876, Note_on_c, 1, 60, 127
1, 132059, Note_off_c, 1, 68, 0
1, 132063, Note_on_c, 1, 67, 127
1, 132242, Note_off_c, 1, 72, 0
1, 132244, Note_off_c, 1, 60, 0
1, 132246, Note_off_c, 1, 67, 0
1, 132248, Note_on_c, 1, 57, 127
1, 132248, Note_on_c, 1, 77, 127
1, 132248, Note_on_c, 1, 72, 127
1, 132433, Note_on_c, 1, 60, 127
1, 132614, Note_off_c, 1, 57, 0
1, 132616, Note_off_c, 1, 77, 0
1, 132616, Note_off_c, 1, 72, 0
1, 132616, Note_off_c, 1, 60, 0
1, 132619, Note_on_c, 1, 75, 127
1, 132619, Note_on_c, 1, 59, 127
1, 132619, Note_on_c, 1, 67, 127
1, 132802, Note_off_c, 1, 75, 0
1, 132804, Note_on_c, 1, 74, 127
1, 132987, Note_off_c, 1, 59, 0
1, 132987, Note_off_c, 1, 74, 0
1, 132990, Note_on_c, 1, 60, 127
1, 133157, Note_off_c, 1, 67, 0
1, 133356, Note_off_c, 1, 60, 0
1, 133359, Note_on_c, 1, 69, 127
1, 133359, Note_on_c, 1, 53, 127
1, 133724, Note_off_c, 1, 69, 0
1, 133725, Note_off_c, 1, 53, 0
1, 133729, Note_on_c, 1, 70, 127
1, 133729, Note_on_c, 1, 74, 127
1, 133729, Note_on_c, 1, 58, 127
1, 133912, Note_off_c, 1, 70, 0
1, 133914, Note_on_c, 1, 72, 127
1, 134095, Note_off_c, 1, 74, 0
1, 134097, Note_off_c, 1, 58, 0
1, 134097, Note_off_c, 1, 72, 0
1, 134100, Note_on_c, 1, 56, 127
1, 134100, Note_on_c, 1, 76, 127
1, 134100, Note_on_c, 1, 73, 127
1, 134283, Note_off_c, 1, 56, 0
1, 134285, Note_on_c, 1, 55, 127
1, 134468, Note_off_c, 1, 76, 0
1, 134468, Note_off_c, 1, 73, 0
1, 134468, Note_off_c, 1, 55, 0
1, 134470, Note_on_c, 1, 77, 127
1, 134470, Note_on_c, 1, 57, 127
1, 134656, Note_on_c, 1, 72, 127
1, 134836, Note_off_c, 1, 77, 0
1, 134838, Note_off_c, 1, 57, 0
1, 134839, Note_off_c, 1, 72, 0
1, 134841, Note_on_c, 1, 70, 127
1, 134841, Note_on_c, 1, 62, 127
1, 135027, Note_on_c, 1, 68, 127
1, 135207, Note_off_c, 1, 70, 0
1, 135210, Note_off_c, 1, 68, 0
1, 135212, Note_on_c, 1, 67, 127
1, 135212, Note_on_c, 1, 75, 127
1, 135395, Note_off_c, 1, 62, 0
1, 135398, Note_on_c, 1, 60, 127
1, 135580, Note_off_c, 1, 67, 0
1, 135580, Note_off_c, 1, 75, 0
1, 135581, Note_off_c, 1, 60, 0
1, 135584, Note_on_c, 1, 74, 127
1, 135584, Note_on_c, 1, 65, 127
1, 135584, Note_on_c, 1, 69, 127
1, 135767, Note_off_c, 1, 74, 0
1, 135767, Note_off_c, 1, 65, 0
1, 135769, Note_on_c, 1, 72, 127
1, 135769, Note_on_c, 1, 63, 127
1, 135950, Note_off_c, 1, 69, 0
1, 135952, Note_off_c, 1, 72, 0
1, 135952, Note_off_c, 1, 63, 0
1, 135955, Note_on_c, 1, 62, 127
1, 135955, Note_on_c, 1, 70, 127
1, 135955, Note_on_c, 1, 74, 127
1, 136138, Note_off_c, 1, 62, 0
1, 136140, Note_on_c, 1, 60, 127
1, 136323, Note_off_c, 1, 70, 0
1, 136323, Note_off_c, 1, 74, 0
1, 136323, Note_off_c, 1, 60, 0
1, 136326, Note_on_c, 1, 63, 127
1, 136326, Note_on_c, 1, 67, 127
1, 136326, Note_on_c, 1, 61, 127
1, 136692, Note_off_c, 1, 63, 0
1, 136692, Note_off_c, 1, 67, 0
1, 136695, Note_on_c, 1, 68, 127
1, 136695, Note_on_c, 1, 75, 127
1, 136878, Note_off_c, 1, 61, 0
1, 136880, Note_on_c, 1, 60, 127
1, 137063, Note_off_c, 1, 68, 0
1, 137063, Note_off_c, 1, 60, 0
1, 137066, Note_on_c, 1, 58, 127
1, 137249, Note_off_c, 1, 58, 0
1, 137251, Note_on_c, 1, 65, 127
1, 137251, Note_on_c, 1, 56, 127
1, 137434, Note_off_c, 1, 65, 0
1, 137434, Note_off_c, 1, 56, 0
1, 137622, Note_off_c, 1, 75, 0
1, 137808, Note_on_c, 1, 59, 127
1, 137808, Note_on_c, 1, 74, 127
1, 138174, Note_off_c, 1, 59, 0
1, 138177, Note_on_c, 1, 55, 127
1, 138344, Note_off_c, 1, 74, 0
1, 138361, Note_on_c, 1, 72, 127
1, 138546, Note_on_c, 1, 62, 127
1, 138727, Note_off_c, 1, 72, 0
1, 138732, Note_on_c, 1, 71, 127
1, 138909, Note_off_c, 1, 55, 0
1, 138912, Note_off_c, 1, 62, 0
1, 138915, Note_off_c, 1, 71, 0
1, 138917, Note_on_c, 1, 60, 127
1, 138917, Note_on_c, 1, 55, 127
1, 138917, Note_on_c, 1, 72, 127
1, 138917, Note_on_c, 1, 51, 127
1, 139100, Note_off_c, 1, 60, 0
1, 139100, Note_off_c, 1, 55, 0
1, 139285, Note_off_c, 1, 72, 0
1, 139289, Note_on_c, 1, 59, 127
1, 139289, Note_on_c, 1, 79, 127
1, 139289, Note_on_c, 1, 75, 127
1, 139472, Note_off_c, 1, 59, 0
1, 139650, Note_off_c, 1, 51, 0
1, 139657, Note_off_c, 1, 79, 0
1, 139657, Note_off_c, 1, 75, 0
1, 139660, Note_on_c, 1, 74, 127
1, 139660, Note_on_c, 1, 68, 127
1, 139660, Note_on_c, 1, 53, 127
1, 140028, Note_off_c, 1, 74, 0
1, 140216, Note_on_c, 1, 77, 127
1, 140393, Note_off_c, 1, 68, 0
1, 140393, Note_off_c, 1, 53, 0
1, 140399, Note_off_c, 1, 77, 0
1, 140587, Note_on_c, 1, 67, 127
1, 140953, Note_off_c, 1, 67, 0
1, 140959, Note_on_c, 1, 65, 127
1, 141142, Note_off_c, 1, 65, 0
1, 141144, Note_on_c, 1, 63, 127
1, 141144, Note_on_c, 1, 48, 127
1, 141144, Note_on_c, 1, 60, 127
1, 141330, Note_on_c, 1, 72, 127
1, 141510, Note_off_c, 1, 63, 0
1, 141515, Note_on_c, 1, 64, 127
1, 141696, Note_off_c, 1, 72, 0
1, 141700, Note_on_c, 1, 70, 127
1, 141881, Note_off_c, 1, 64, 0
1, 141883, Note_off_c, 1, 48, 0
1, 141883, Note_off_c, 1, 70, 0
1, 141886, Note_on_c, 1, 68, 127
1, 141886, Note_on_c, 1, 53, 127
1, 142071, Note_on_c, 1, 65, 127
1, 142254, Note_off_c, 1, 60, 0
1, 142254, Note_off_c, 1, 65, 0
1, 142257, Note_on_c, 1, 62, 127
1, 142257, Note_on_c, 1, 59, 127
1, 142424, Note_off_c, 1, 68, 0
1, 142618, Note_off_c, 1, 53, 0
1, 142622, Note_off_c, 1, 62, 0
1, 142623, Note_off_c, 1, 59, 0
1, 142627, Note_on_c, 1, 67, 127
1, 142627, Note_on_c, 1, 51, 127
1, 142627, Note_on_c, 1, 60, 127
1, 142812, Note_on_c, 1, 63, 127
1, 142993, Note_off_c, 1, 67, 0
1, 142995, Note_off_c, 1, 51, 0
1, 142995, Note_off_c, 1, 63, 0
1, 142998, Note_on_c, 1, 65, 127
1, 142998, Note_on_c, 1, 50, 127
1, 143165, Note_off_c, 1, 60, 0
1, 143181, Note_on_c, 1, 59, 127
1, 143363, Note_off_c, 1, 65, 0
1, 143363, Note_off_c, 1, 50, 0
1, 143364, Note_off_c, 1, 59, 0
1, 143366, Note_on_c, 1, 67, 127
1, 143366, Note_on_c, 1, 51, 127
1, 143552, Note_on_c, 1, 55, 127
1, 143735, Note_off_c, 1, 55, 0
1, 143737, Note_on_c, 1, 63, 127
1, 143737, Note_on_c, 1, 60, 127
1, 143904, Note_off_c, 1, 67, 0
1, 143904, Note_off_c, 1, 51, 0
1, 144106, Note_on_c, 1, 56, 127
1, 144106, Note_on_c, 1, 72, 127
1, 144273, Note_off_c, 1, 63, 0
1, 144291, Note_on_c, 1, 64, 127
1, 144467, Note_off_c, 1, 60, 0
1, 144472, Note_off_c, 1, 56, 0
1, 144474, Note_off_c, 1, 64, 0
1, 144476, Note_on_c, 1, 65, 127
1, 144476, Note_on_c, 1, 58, 127
1, 144659, Note_off_c, 1, 65, 0
1, 144844, Note_off_c, 1, 58, 0
1, 144847, Note_on_c, 1, 68, 127
1, 144847, Note_on_c, 1, 53, 127
1, 145030, Note_off_c, 1, 68, 0
1, 145218, Note_on_c, 1, 62, 127
1, 145580, Note_off_c, 1, 53, 0
1, 145584, Note_off_c, 1, 62, 0
1, 145766, Note_off_c, 1, 72, 0
1, 145774, Note_on_c, 1, 71, 127
1, 145957, Note_off_c, 1, 71, 0
1, 145960, Note_on_c, 1, 57, 127
1, 146143, Note_off_c, 1, 57, 0
1, 146146, Note_on_c, 1, 74, 127
1, 146146, Note_on_c, 1, 59, 127
1, 146329, Note_off_c, 1, 74, 0
1, 146329, Note_off_c, 1, 59, 0
1, 146706, Note_on_c, 1, 48, 127
1, 147078, Note_off_c, 1, 48, 0
1, 147081, Note_on_c, 1, 47, 127
1, 147453, Note_off_c, 1, 47, 0
1, 147643, Note_on_c, 1, 69, 127
1, 147828, Note_off_c, 1, 69, 0
1, 147831, Note_on_c, 1, 70, 127
1, 147831, Note_on_c, 1, 53, 127
1, 147831, Note_on_c, 1, 50, 127
1, 148018, Note_on_c, 1, 65, 127
1, 148201, Note_off_c, 1, 70, 0
1, 148203, Note_off_c, 1, 53, 0
1, 148203, Note_off_c, 1, 50, 0
1, 148203, Note_off_c, 1, 65, 0
1, 148205, Note_on_c, 1, 63, 127
1, 148205, Note_on_c, 1, 71, 127
1, 148205, Note_on_c, 1, 43, 127
1, 148205, Note_on_c, 1, 55, 127
1, 148390, Note_off_c, 1, 63, 0
1, 148393, Note_on_c, 1, 62, 127
1, 148575, Note_off_c, 1, 71, 0
1, 148577, Note_off_c, 1, 43, 0
1, 148578, Note_off_c, 1, 62, 0
1, 148580, Note_on_c, 1, 48, 127
1, 148767, Note_on_c, 1, 67, 127
1, 148946, Note_off_c, 1, 55, 0
1, 148952, Note_off_c, 1, 48, 0
1, 148952, Note_off_c, 1, 67, 0
1, 148955, Note_on_c, 1, 47, 127
1, 148955, Note_on_c, 1, 72, 127
1, 148955, Note_on_c, 1, 57, 127
1, 149140, Note_off_c, 1, 47, 0
1, 149140, Note_off_c, 1, 72, 0
1, 149142, Note_on_c, 1, 45, 127
1, 149142, Note_on_c, 1, 66, 127
1, 149325, Note_off_c, 1, 57, 0
1, 149327, Note_off_c, 1, 45, 0
1, 149327, Note_off_c, 1, 66, 0
1, 149330, Note_on_c, 1, 67, 127
1, 149330, Note_on_c, 1, 47, 127
1, 149330, Note_on_c, 1, 55, 127
1, 149518, Note_on_c, 1, 62, 127
1, 149700, Note_off_c, 1, 67, 0
1, 149702, Note_off_c, 1, 47, 0
1, 149705, Note_on_c, 1, 63, 127
1, 149705, Note_on_c, 1, 48, 127
1, 149888, Note_off_c, 1, 62, 0
1, 149893, Note_on_c, 1, 60, 127
1, 150071, Note_off_c, 1, 55, 0
1, 150075, Note_off_c, 1, 63, 0
1, 150077, Note_off_c, 1, 48, 0
1, 150080, Note_on_c, 1, 41, 127
1, 150267, Note_off_c, 1, 60, 0
1, 150271, Note_on_c, 1, 57, 127
1, 150459, Note_off_c, 1, 41, 0
1, 150460, Note_off_c, 1, 57, 0
1, 150463, Note_on_c, 1, 59, 127
1, 150463, Note_on_c, 1, 43, 127
1, 150654, Note_on_c, 1, 53, 127
1, 150841, Note_off_c, 1, 59, 0
1, 150842, Note_off_c, 1, 43, 0
1, 150843, Note_off_c, 1, 53, 0
1, 150844, Note_on_c, 1, 60, 127
1, 150844, Note_on_c, 1, 51, 127
1, 150844, Note_on_c, 1, 36, 127
1, 151216, Note_off_c, 1, 60, 0
1, 151216, Note_off_c, 1, 51, 0
1, 151243, Note_on_c, 1, 67, 127
1, 151615, Note_off_c, 1, 67, 0
1, 151618, Note_on_c, 1, 63, 127
1, 151966, Note_off_c, 1, 36, 0
1, 151990, Note_off_c, 1, 63, 0
1, 151993, Note_on_c, 1, 65, 127
1, 151993, Note_on_c, 1, 72, 127
1, 152365, Note_off_c, 1, 65, 0
1, 152365, Note_off_c, 1, 72, 0
1, 152367, Note_on_c, 1, 71, 127
1, 152367, Note_on_c, 1, 67, 127
1, 152739, Note_off_c, 1, 71, 0
1, 152739, Note_off_c, 1, 67, 0
1, 152742, Note_on_c, 1, 60, 127
1, 152742, Note_on_c, 1, 72, 127
1, 152742, Note_on_c, 1, 63, 127
1, 153114, Note_off_c, 1, 60, 0
1, 153114, Note_off_c, 1, 72, 0
1, 153114, Note_off_c, 1, 63, 0
1, 153117, Note_on_c, 1, 65, 127
1, 153117, Note_on_c, 1, 74, 127
1, 153117, Note_on_c, 1, 59, 127
1, 153489, Note_off_c, 1, 65, 0
1, 153489, Note_off_c, 1, 74, 0
1, 153489, Note_off_c, 1, 59, 0
1, 153492, Note_on_c, 1, 63, 127
1, 153492, Note_on_c, 1, 67, 127
1, 153492, Note_on_c, 1, 60, 127
1, 153677, Note_off_c, 1, 63, 0
1, 153679, Note_on_c, 1, 62, 127
1, 153862, Note_off_c, 1, 67, 0
1, 153864, Note_off_c, 1, 60, 0
1, 153864, Note_off_c, 1, 62, 0
1, 153866, Note_on_c, 1, 64, 127
1, 153866, Note_on_c, 1, 72, 127
1, 153866, Note_on_c, 1, 55, 127
1, 153866, Note_on_c, 1, 48, 127
1, 154238, Note_off_c, 1, 64, 0
1, 154238, Note_off_c, 1, 72, 0
1, 154241, Note_on_c, 1, 70, 127
1, 154241, Note_on_c, 1, 65, 127
1, 154426, Note_off_c, 1, 70, 0
1, 154429, Note_on_c, 1, 68, 127
1, 154611, Note_off_c, 1, 65, 0
1, 154614, Note_off_c, 1, 68, 0
1, 154616, Note_on_c, 1, 67, 127
1, 154988, Note_off_c, 1, 55, 0
1, 154988, Note_off_c, 1, 67, 0
1, 155363, Note_off_c, 1, 48, 0
1, 155366, Note_on_c, 1, 68, 127
1, 155366, Note_on_c, 1, 65, 127
1, 155738, Note_off_c, 1, 68, 0
1, 155738, Note_off_c, 1, 65, 0
1, 155741, Note_on_c, 1, 70, 127
1, 155741, Note_on_c, 1, 67, 127
1, 155741, Note_on_c, 1, 61, 127
1, 156113, Note_off_c, 1, 70, 0
1, 156113, Note_off_c, 1, 67, 0
1, 156113, Note_off_c, 1, 61, 0
1, 156116, Note_on_c, 1, 64, 127
1, 156116, Note_on_c, 1, 55, 127
1, 156116, Note_on_c, 1, 72, 127
1, 156488, Note_off_c, 1, 64, 0
1, 156488, Note_off_c, 1, 55, 0
1, 156491, Note_on_c, 1, 65, 127
1, 156491, Note_on_c, 1, 56, 127
1, 156857, Note_off_c, 1, 72, 0
1, 156863, Note_off_c, 1, 65, 0
1, 156863, Note_off_c, 1, 56, 0
1, 156866, Note_on_c, 1, 70, 127
1, 156866, Note_on_c, 1, 67, 127
1, 156866, Note_on_c, 1, 52, 127
1, 156866, Note_on_c, 1, 48, 127
1, 157238, Note_off_c, 1, 70, 0
1, 157238, Note_off_c, 1, 67, 0
1, 157238, Note_off_c, 1, 52, 0
1, 157240, Note_on_c, 1, 68, 127
1, 157240, Note_on_c, 1, 65, 127
1, 157240, Note_on_c, 1, 60, 127
1, 157425, Note_off_c, 1, 68, 0
1, 157425, Note_off_c, 1, 65, 0
1, 157428, Note_on_c, 1, 64, 127
1, 157612, Note_off_c, 1, 60, 0
1, 157613, Note_off_c, 1, 64, 0
1, 157615, Note_on_c, 1, 56, 127
1, 157994, Note_off_c, 1, 56, 0
1, 157998, Note_on_c, 1, 58, 127
1, 158189, Note_on_c, 1, 62, 127
1, 158377, Note_off_c, 1, 58, 0
1, 158378, Note_off_c, 1, 48, 0
1, 158378, Note_off_c, 1, 62, 0
1, 158774, Note_on_c, 1, 69, 127
1, 158774, Note_on_c, 1, 63, 127
1, 158774, Note_on_c, 1, 53, 127
1, 158774, Note_on_c, 1, 48, 127
1, 158968, Note_off_c, 1, 69, 0
1, 158970, Note_on_c, 1, 70, 127
1, 159066, Note_off_c, 1, 70, 0
1, 159069, Note_on_c, 1, 72, 127
1, 159163, Note_off_c, 1, 63, 0
1, 159165, Note_off_c, 1, 53, 0
1, 159165, Note_off_c, 1, 48, 0
1, 159165, Note_off_c, 1, 72, 0
1, 159167, Note_on_c, 1, 61, 127
1, 159167, Note_on_c, 1, 65, 127
1, 159167, Note_on_c, 1, 58, 127
1, 159167, Note_on_c, 1, 49, 127
1, 159560, Note_off_c, 1, 61, 0
1, 159560, Note_off_c, 1, 65, 0
1, 159560, Note_off_c, 1, 58, 0
1, 159560, Note_off_c, 1, 49, 0
1, 159564, Note_on_c, 1, 56, 127
1, 159564, Note_on_c, 1, 48, 127
1, 159564, Note_on_c, 1, 72, 127
1, 159564, Note_on_c, 1, 63, 127
1, 159758, Note_off_c, 1, 56, 0
1, 159761, Note_on_c, 1, 55, 127
1, 159953, Note_off_c, 1, 48, 0
1, 159955, Note_off_c, 1, 72, 0
1, 159955, Note_off_c, 1, 63, 0
1, 159955, Note_off_c, 1, 55, 0
1, 159957, Note_on_c, 1, 74, 127
1, 159957, Note_on_c, 1, 65, 127
1, 159957, Note_on_c, 1, 47, 127
1, 159957, Note_on_c, 1, 56, 127
1, 160350, Note_off_c, 1, 74, 0
1, 160350, Note_off_c, 1, 65, 0
1, 160350, Note_off_c, 1, 47, 0
1, 160350, Note_off_c, 1, 56, 0
1, 160353, Note_on_c, 1, 72, 127
1, 160353, Note_on_c, 1, 63, 127
1, 160353, Note_on_c, 1, 53, 127
1, 160353, Note_on_c, 1, 55, 127
1, 160547, Note_off_c, 1, 72, 0
1, 160547, Note_off_c, 1, 63, 0
1, 160550, Note_on_c, 1, 62, 127
1, 160550, Note_on_c, 1, 71, 127
1, 160744, Note_off_c, 1, 53, 0
1, 160744, Note_off_c, 1, 55, 0
1, 160744, Note_off_c, 1, 62, 0
1, 160744, Note_off_c, 1, 71, 0
1, 160747, Note_on_c, 1, 51, 127
1, 160747, Note_on_c, 1, 55, 127
1, 160747, Note_on_c, 1, 63, 127
1, 160747, Note_on_c, 1, 72, 127
1, 160941, Note_off_c, 1, 51, 0
1, 160943, Note_on_c, 1, 50, 127
1, 161136, Note_off_c, 1, 55, 0
1, 161137, Note_off_c, 1, 50, 0
1, 161138, Note_off_c, 1, 63, 0
1, 161140, Note_on_c, 1, 48, 127
1, 161140, Note_on_c, 1, 67, 127
1, 161334, Note_off_c, 1, 48, 0
1, 161526, Note_off_c, 1, 72, 0
1, 161545, Note_on_c, 1, 42, 127
1, 161736, Note_off_c, 1, 67, 0
1, 161754, Note_on_c, 1, 74, 127
1, 161955, Note_off_c, 1, 74, 0
1, 161959, Note_on_c, 1, 75, 127
1, 162160, Note_off_c, 1, 75, 0
1, 162164, Note_on_c, 1, 71, 127
1, 162365, Note_off_c, 1, 71, 0
1, 162572, Note_on_c, 1, 69, 127
1, 162776, Note_on_c, 1, 66, 127
1, 162981, Note_on_c, 1, 62, 127
1, 163178, Note_off_c, 1, 42, 0
1, 163182, Note_off_c, 1, 62, 0
1, 163390, Note_on_c, 1, 59, 127
1, 163591, Note_off_c, 1, 59, 0
1, 163595, Note_on_c, 1, 60, 127
1, 163796, Note_off_c, 1, 60, 0
1, 163799, Note_on_c, 1, 54, 127
1, 164000, Note_off_c, 1, 54, 0
1, 164064, Note_off_c, 1, 66, 0
1, 164074, Note_off_c, 1, 69, 0
1, 164982, Note_on_c, 1, 65, 127
1, 164982, Note_on_c, 1, 43, 127
1, 165958, Note_off_c, 1, 65, 0
1, 165961, Note_on_c, 1, 36, 127
1, 169700, Note_off_c, 1, 43, 0
1, 169700, Note_off_c, 1, 36, 0
1, 169700, End_track
0, 0, End_of_file