0, 0, Header, 1, 1, 480
1, 0, Start_track
1, 0, Title_t, "Test"
1, 0, Tempo, 500000
1, 0, Instrument_name_t, "Church Organ"
1, 96, Note_on_c, 1, 53, 127
1, 496, Note_off_c, 1, 53, 0
1, 497, Note_on_c, 1, 72, 127
1, 497, Note_on_c, 1, 51, 127
1, 897, Note_off_c, 1, 72, 0
1, 897, Note_off_c, 1, 51, 0
1, 898, Note_on_c, 1, 73, 127
1, 898, Note_on_c, 1, 49, 127
1, 997, Note_off_c, 1, 73, 0
1, 998, Note_on_c, 1, 75, 127
1, 1097, Note_off_c, 1, 75, 0
1, 1098, Note_on_c, 1, 77, 127
1, 1297, Note_off_c, 1, 49, 0
1, 1297, Note_off_c, 1, 77, 0
1, 1298, Note_on_c, 1, 75, 127
1, 1298, Note_on_c, 1, 48, 127
1, 1698, Note_off_c, 1, 75, 0
1, 1698, Note_off_c, 1, 48, 0
1, 1699, Note_on_c, 1, 68, 127
1, 1699, Note_on_c, 1, 60, 127
1, 1898, Note_off_c, 1, 68, 0
1, 1899, Note_on_c, 1, 70, 127
1, 2098, Note_off_c, 1, 60, 0
1, 2098, Note_off_c, 1, 70, 0
1, 2099, Note_on_c, 1, 72, 127
1, 2099, Note_on_c, 1, 58, 127
1, 2198, Note_off_c, 1, 72, 0
1, 2199, Note_on_c, 1, 70, 127
1, 2298, Note_off_c, 1, 70, 0
1, 2299, Note_on_c, 1, 68, 127
1, 2398, Note_off_c, 1, 68, 0
1, 2498, Note_off_c, 1, 58, 0
1, 2499, Note_on_c, 1, 72, 127
1, 2499, Note_on_c, 1, 56, 127
1, 2899, Note_off_c, 1, 72, 0
1, 2899, Note_off_c, 1, 56, 0
1, 2900, Note_on_c, 1, 65, 127
1, 2900, Note_on_c, 1, 44, 127
1, 3099, Note_off_c, 1, 65, 0
1, 3100, Note_on_c, 1, 67, 127
1, 3299, Note_off_c, 1, 44, 0
1, 3299, Note_off_c, 1, 67, 0
1, 3300, Note_on_c, 1, 68, 127
1, 3300, Note_on_c, 1, 43, 127
1, 3399, Note_off_c, 1, 68, 0
1, 3400, Note_on_c, 1, 67, 127
1, 3499, Note_off_c, 1, 67, 0
1, 3500, Note_on_c, 1, 65, 127
1, 3599, Note_off_c, 1, 65, 0
1, 3699, Note_off_c, 1, 43, 0
1, 3700, Note_on_c, 1, 68, 127
1, 3700, Note_on_c, 1, 41, 127
1, 3899, Note_off_c, 1, 68, 0
1, 3900, Note_on_c, 1, 67, 127
1, 4099, Note_off_c, 1, 41, 0
1, 4099, Note_off_c, 1, 67, 0
1, 4100, Note_on_c, 1, 70, 127
1, 4100, Note_on_c, 1, 39, 127
1, 4299, Note_off_c, 1, 70, 0
1, 4300, Note_on_c, 1, 68, 127
1, 4499, Note_off_c, 1, 39, 0
1, 4499, Note_off_c, 1, 68, 0
1, 4500, Note_on_c, 1, 67, 127
1, 4500, Note_on_c, 1, 37, 127
1, 4648, Note_on_c, 1, 68, 127
1, 4656, Note_off_c, 1, 67, 0
1, 4773, Note_off_c, 1, 68, 0
1, 4774, Note_on_c, 1, 65, 127
1, 4899, Note_off_c, 1, 37, 0
1, 4899, Note_off_c, 1, 65, 0
1, 4900, Note_on_c, 1, 64, 127
1, 4900, Note_on_c, 1, 36, 127
1, 5192, Note_off_c, 1, 64, 0
1, 5299, Note_off_c, 1, 36, 0
1, 5300, Note_on_c, 1, 72, 127
1, 5300, Note_on_c, 1, 44, 127
1, 5700, Note_off_c, 1, 72, 0
1, 5700, Note_off_c, 1, 44, 0
1, 5701, Note_on_c, 1, 73, 127
1, 5701, Note_on_c, 1, 41, 127
1, 5800, Note_off_c, 1, 73, 0
1, 5801, Note_on_c, 1, 75, 127
1, 5900, Note_off_c, 1, 75, 0
1, 5901, Note_on_c, 1, 77, 127
1, 6100, Note_off_c, 1, 41, 0
1, 6100, Note_off_c, 1, 77, 0
1, 6101, Note_on_c, 1, 75, 127
1, 6101, Note_on_c, 1, 48, 127
1, 6501, Note_off_c, 1, 75, 0
1, 6501, Note_off_c, 1, 48, 0
1, 6502, Note_on_c, 1, 68, 127
1, 6502, Note_on_c, 1, 60, 127
1, 6701, Note_off_c, 1, 68, 0
1, 6702, Note_on_c, 1, 70, 127
1, 6901, Note_off_c, 1, 60, 0
1, 6901, Note_off_c, 1, 70, 0
1, 6902, Note_on_c, 1, 72, 127
1, 6902, Note_on_c, 1, 58, 127
1, 7001, Note_off_c, 1, 72, 0
1, 7002, Note_on_c, 1, 70, 127
1, 7101, Note_off_c, 1, 70, 0
1, 7102, Note_on_c, 1, 68, 127
1, 7201, Note_off_c, 1, 68, 0
1, 7301, Note_off_c, 1, 58, 0
1, 7302, Note_on_c, 1, 72, 127
1, 7302, Note_on_c, 1, 56, 127
1, 7702, Note_off_c, 1, 72, 0
1, 7702, Note_off_c, 1, 56, 0
1, 7703, Note_on_c, 1, 65, 127
1, 7703, Note_on_c, 1, 44, 127
1, 7902, Note_off_c, 1, 65, 0
1, 7903, Note_on_c, 1, 67, 127
1, 8102, Note_off_c, 1, 44, 0
1, 8102, Note_off_c, 1, 67, 0
1, 8103, Note_on_c, 1, 68, 127
1, 8103, Note_on_c, 1, 43, 127
1, 8202, Note_off_c, 1, 68, 0
1, 8203, Note_on_c, 1, 67, 127
1, 8302, Note_off_c, 1, 67, 0
1, 8303, Note_on_c, 1, 65, 127
1, 8402, Note_off_c, 1, 65, 0
1, 8502, Note_off_c, 1, 43, 0
1, 8503, Note_on_c, 1, 68, 127
1, 8503, Note_on_c, 1, 41, 127
1, 8702, Note_off_c, 1, 68, 0
1, 8703, Note_on_c, 1, 67, 127
1, 8902, Note_off_c, 1, 41, 0
1, 8902, Note_off_c, 1, 67, 0
1, 8903, Note_on_c, 1, 70, 127
1, 8903, Note_on_c, 1, 48, 127
1, 9102, Note_off_c, 1, 70, 0
1, 9103, Note_on_c, 1, 68, 127
1, 9302, Note_off_c, 1, 48, 0
1, 9302, Note_off_c, 1, 68, 0
1, 9303, Note_on_c, 1, 67, 127
1, 9303, Note_on_c, 1, 36, 127
1, 9502, Note_off_c, 1, 67, 0
1, 9503, Note_on_c, 1, 65, 127
1, 9702, Note_off_c, 1, 36, 0
1, 9702, Note_off_c, 1, 65, 0
1, 9703, Note_on_c, 1, 67, 127
1, 9703, Note_on_c, 1, 41, 127
1, 9802, Note_off_c, 1, 67, 0
1, 9803, Note_on_c, 1, 65, 127
1, 9902, Note_off_c, 1, 41, 0
1, 9902, Note_off_c, 1, 65, 0
1, 9903, Note_on_c, 1, 64, 127
1, 9903, Note_on_c, 1, 43, 127
1, 10002, Note_off_c, 1, 64, 0
1, 10003, Note_on_c, 1, 65, 127
1, 10102, Note_off_c, 1, 43, 0
1, 10103, Note_on_c, 1, 44, 127
1, 10103, Note_on_c, 1, 72, 127
1, 10302, Note_off_c, 1, 44, 0
1, 10303, Note_on_c, 1, 46, 127
1, 10502, Note_off_c, 1, 72, 0
1, 10502, Note_off_c, 1, 46, 0
1, 10503, Note_off_c, 1, 65, 0
1, 10503, Note_on_c, 1, 48, 127
1, 10503, Note_on_c, 1, 77, 127
1, 10503, Note_on_c, 1, 68, 127
1, 10702, Note_off_c, 1, 48, 0
1, 10703, Note_on_c, 1, 49, 127
1, 10873, Note_off_c, 1, 77, 0
1, 10902, Note_off_c, 1, 49, 0
1, 10903, Note_on_c, 1, 51, 127
1, 10903, Note_on_c, 1, 70, 127
1, 11102, Note_off_c, 1, 51, 0
1, 11103, Note_on_c, 1, 53, 127
1, 11302, Note_off_c, 1, 68, 0
1, 11302, Note_off_c, 1, 53, 0
1, 11303, Note_on_c, 1, 67, 127
1, 11303, Note_on_c, 1, 55, 127
1, 11502, Note_off_c, 1, 70, 0
1, 11502, Note_off_c, 1, 67, 0
1, 11502, Note_off_c, 1, 55, 0
1, 11503, Note_on_c, 1, 65, 127
1, 11503, Note_on_c, 1, 56, 127
1, 11702, Note_off_c, 1, 65, 0
1, 11702, Note_off_c, 1, 56, 0
1, 11703, Note_on_c, 1, 58, 127
1, 11703, Note_on_c, 1, 75, 127
1, 11703, Note_on_c, 1, 67, 127
1, 11902, Note_off_c, 1, 58, 0
1, 11903, Note_on_c, 1, 60, 127
1, 12073, Note_off_c, 1, 75, 0
1, 12102, Note_off_c, 1, 60, 0
1, 12103, Note_on_c, 1, 61, 127
1, 12103, Note_on_c, 1, 68, 127
1, 12302, Note_off_c, 1, 61, 0
1, 12303, Note_on_c, 1, 63, 127
1, 12502, Note_off_c, 1, 67, 0
1, 12502, Note_off_c, 1, 63, 0
1, 12503, Note_on_c, 1, 65, 127
1, 12702, Note_off_c, 1, 68, 0
1, 12702, Note_off_c, 1, 65, 0
1, 12703, Note_on_c, 1, 64, 127
1, 12703, Note_on_c, 1, 60, 127
1, 12902, Note_off_c, 1, 64, 0
1, 12902, Note_off_c, 1, 60, 0
1, 12903, Note_on_c, 1, 58, 127
1, 12903, Note_on_c, 1, 73, 127
1, 12903, Note_on_c, 1, 65, 127
1, 13102, Note_off_c, 1, 58, 0
1, 13103, Note_on_c, 1, 56, 127
1, 13273, Note_off_c, 1, 73, 0
1, 13302, Note_off_c, 1, 56, 0
1, 13303, Note_on_c, 1, 67, 127
1, 13503, Note_on_c, 1, 61, 127
1, 13702, Note_off_c, 1, 65, 0
1, 13702, Note_off_c, 1, 61, 0
1, 13703, Note_on_c, 1, 64, 127
1, 13703, Note_on_c, 1, 60, 127
1, 13902, Note_off_c, 1, 67, 0
1, 13902, Note_off_c, 1, 64, 0
1, 13902, Note_off_c, 1, 60, 0
1, 13903, Note_on_c, 1, 62, 127
1, 13903, Note_on_c, 1, 58, 127
1, 14102, Note_off_c, 1, 62, 0
1, 14102, Note_off_c, 1, 58, 0
1, 14103, Note_on_c, 1, 56, 127
1, 14103, Note_on_c, 1, 72, 127
1, 14103, Note_on_c, 1, 64, 127
1, 14302, Note_off_c, 1, 56, 0
1, 14303, Note_on_c, 1, 55, 127
1, 14502, Note_off_c, 1, 72, 0
1, 14502, Note_off_c, 1, 64, 0
1, 14502, Note_off_c, 1, 55, 0
1, 14503, Note_on_c, 1, 68, 127
1, 14503, Note_on_c, 1, 53, 127
1, 14503, Note_on_c, 1, 65, 127
1, 14602, Note_off_c, 1, 68, 0
1, 14603, Note_on_c, 1, 67, 127
1, 14702, Note_off_c, 1, 53, 0
1, 14702, Note_off_c, 1, 67, 0
1, 14703, Note_on_c, 1, 60, 127
1, 14902, Note_off_c, 1, 60, 0
1, 14903, Note_on_c, 1, 58, 127
1, 14903, Note_on_c, 1, 73, 127
1, 15102, Note_off_c, 1, 65, 0
1, 15102, Note_off_c, 1, 58, 0
1, 15103, Note_on_c, 1, 56, 127
1, 15302, Note_off_c, 1, 56, 0
1, 15303, Note_on_c, 1, 70, 127
1, 15303, Note_on_c, 1, 55, 127
1, 15502, Note_off_c, 1, 70, 0
1, 15502, Note_off_c, 1, 55, 0
1, 15703, Note_on_c, 1, 52, 127
1, 15902, Note_off_c, 1, 52, 0
1, 16101, Note_off_c, 1, 73, 0
1, 16103, Note_on_c, 1, 72, 127
1, 16703, Note_on_c, 1, 51, 127
1, 16902, Note_off_c, 1, 51, 0
1, 16903, Note_on_c, 1, 49, 127
1, 17102, Note_off_c, 1, 49, 0
1, 17301, Note_off_c, 1, 72, 0
1, 18103, Note_on_c, 1, 48, 127
1, 18103, Note_on_c, 1, 64, 127
1, 18302, Note_off_c, 1, 48, 0
1, 18303, Note_on_c, 1, 46, 127
1, 18502, Note_off_c, 1, 46, 0
1, 18702, Note_off_c, 1, 64, 0
1, 18903, Note_on_c, 1, 65, 127
1, 18903, Note_on_c, 1, 68, 127
1, 18903, Note_on_c, 1, 36, 127
1, 19102, Note_off_c, 1, 65, 0
1, 19102, Note_off_c, 1, 68, 0
1, 19103, Note_on_c, 1, 64, 127
1, 19103, Note_on_c, 1, 67, 127
1, 19302, Note_off_c, 1, 36, 0
1, 19302, Note_off_c, 1, 64, 0
1, 19302, Note_off_c, 1, 67, 0
1, 19303, Note_on_c, 1, 68, 127
1, 19303, Note_on_c, 1, 65, 127
1, 19303, Note_on_c, 1, 41, 127
1, 19683, Note_off_c, 1, 68, 0
1, 19683, Note_off_c, 1, 65, 0
1, 19693, Note_off_c, 1, 41, 0
1, 19720, Note_on_c, 1, 51, 127
1, 19720, Note_on_c, 1, 72, 127
1, 20120, Note_off_c, 1, 51, 0
1, 20120, Note_off_c, 1, 72, 0
1, 20121, Note_on_c, 1, 73, 127
1, 20121, Note_on_c, 1, 49, 127
1, 20220, Note_off_c, 1, 73, 0
1, 20221, Note_on_c, 1, 75, 127
1, 20320, Note_off_c, 1, 75, 0
1, 20321, Note_on_c, 1, 77, 127
1, 20520, Note_off_c, 1, 49, 0
1, 20520, Note_off_c, 1, 77, 0
1, 20521, Note_on_c, 1, 48, 127
1, 20521, Note_on_c, 1, 75, 127
1, 20921, Note_off_c, 1, 48, 0
1, 20921, Note_off_c, 1, 75, 0
1, 20922, Note_on_c, 1, 68, 127
1, 20922, Note_on_c, 1, 60, 127
1, 21121, Note_off_c, 1, 68, 0
1, 21122, Note_on_c, 1, 70, 127
1, 21321, Note_off_c, 1, 60, 0
1, 21321, Note_off_c, 1, 70, 0
1, 21322, Note_on_c, 1, 72, 127
1, 21322, Note_on_c, 1, 58, 127
1, 21421, Note_off_c, 1, 72, 0
1, 21422, Note_on_c, 1, 70, 127
1, 21521, Note_off_c, 1, 70, 0
1, 21522, Note_on_c, 1, 68, 127
1, 21621, Note_off_c, 1, 68, 0
1, 21721, Note_off_c, 1, 58, 0
1, 21722, Note_on_c, 1, 56, 127
1, 21722, Note_on_c, 1, 72, 127
1, 22122, Note_off_c, 1, 56, 0
1, 22122, Note_off_c, 1, 72, 0
1, 22123, Note_on_c, 1, 65, 127
1, 22123, Note_on_c, 1, 44, 127
1, 22322, Note_off_c, 1, 65, 0
1, 22323, Note_on_c, 1, 67, 127
1, 22522, Note_off_c, 1, 44, 0
1, 22522, Note_off_c, 1, 67, 0
1, 22523, Note_on_c, 1, 68, 127
1, 22523, Note_on_c, 1, 43, 127
1, 22622, Note_off_c, 1, 68, 0
1, 22623, Note_on_c, 1, 67, 127
1, 22722, Note_off_c, 1, 67, 0
1, 22723, Note_on_c, 1, 65, 127
1, 22822, Note_off_c, 1, 65, 0
1, 22922, Note_off_c, 1, 43, 0
1, 22923, Note_on_c, 1, 68, 127
1, 22923, Note_on_c, 1, 41, 127
1, 23122, Note_off_c, 1, 68, 0
1, 23123, Note_on_c, 1, 67, 127
1, 23322, Note_off_c, 1, 41, 0
1, 23322, Note_off_c, 1, 67, 0
1, 23323, Note_on_c, 1, 70, 127
1, 23323, Note_on_c, 1, 39, 127
1, 23522, Note_off_c, 1, 70, 0
1, 23523, Note_on_c, 1, 68, 127
1, 23722, Note_off_c, 1, 39, 0
1, 23722, Note_off_c, 1, 68, 0
1, 23723, Note_on_c, 1, 67, 127
1, 23723, Note_on_c, 1, 37, 127
1, 23856, Note_off_c, 1, 67, 0
1, 23857, Note_on_c, 1, 68, 127
1, 23990, Note_off_c, 1, 68, 0
1, 23991, Note_on_c, 1, 65, 127
1, 24124, Note_off_c, 1, 37, 0
1, 24124, Note_off_c, 1, 65, 0
1, 24125, Note_on_c, 1, 64, 127
1, 24125, Note_on_c, 1, 36, 127
1, 24417, Note_off_c, 1, 64, 0
1, 24524, Note_off_c, 1, 36, 0
1, 24525, Note_on_c, 1, 44, 127
1, 24525, Note_on_c, 1, 72, 127
1, 24925, Note_off_c, 1, 44, 0
1, 24925, Note_off_c, 1, 72, 0
1, 24926, Note_on_c, 1, 73, 127
1, 24926, Note_on_c, 1, 41, 127
1, 25025, Note_off_c, 1, 73, 0
1, 25026, Note_on_c, 1, 75, 127
1, 25125, Note_off_c, 1, 75, 0
1, 25126, Note_on_c, 1, 77, 127
1, 25325, Note_off_c, 1, 41, 0
1, 25325, Note_off_c, 1, 77, 0
1, 25326, Note_on_c, 1, 48, 127
1, 25326, Note_on_c, 1, 75, 127
1, 25726, Note_off_c, 1, 48, 0
1, 25726, Note_off_c, 1, 75, 0
1, 25727, Note_on_c, 1, 68, 127
1, 25727, Note_on_c, 1, 60, 127
1, 25926, Note_off_c, 1, 68, 0
1, 25927, Note_on_c, 1, 70, 127
1, 26126, Note_off_c, 1, 60, 0
1, 26126, Note_off_c, 1, 70, 0
1, 26127, Note_on_c, 1, 72, 127
1, 26127, Note_on_c, 1, 58, 127
1, 26226, Note_off_c, 1, 72, 0
1, 26227, Note_on_c, 1, 70, 127
1, 26326, Note_off_c, 1, 70, 0
1, 26327, Note_on_c, 1, 68, 127
1, 26426, Note_off_c, 1, 68, 0
1, 26526, Note_off_c, 1, 58, 0
1, 26527, Note_on_c, 1, 56, 127
1, 26527, Note_on_c, 1, 72, 127
1, 26927, Note_off_c, 1, 56, 0
1, 26927, Note_off_c, 1, 72, 0
1, 26928, Note_on_c, 1, 65, 127
1, 26928, Note_on_c, 1, 44, 127
1, 27127, Note_off_c, 1, 65, 0
1, 27128, Note_on_c, 1, 67, 127
1, 27327, Note_off_c, 1, 44, 0
1, 27327, Note_off_c, 1, 67, 0
1, 27328, Note_on_c, 1, 68, 127
1, 27328, Note_on_c, 1, 43, 127
1, 27427, Note_off_c, 1, 68, 0
1, 27428, Note_on_c, 1, 67, 127
1, 27527, Note_off_c, 1, 67, 0
1, 27528, Note_on_c, 1, 65, 127
1, 27627, Note_off_c, 1, 65, 0
1, 27727, Note_off_c, 1, 43, 0
1, 27728, Note_on_c, 1, 68, 127
1, 27728, Note_on_c, 1, 41, 127
1, 27927, Note_off_c, 1, 68, 0
1, 27928, Note_on_c, 1, 67, 127
1, 28127, Note_off_c, 1, 41, 0
1, 28127, Note_off_c, 1, 67, 0
1, 28128, Note_on_c, 1, 70, 127
1, 28128, Note_on_c, 1, 48, 127
1, 28327, Note_off_c, 1, 70, 0
1, 28328, Note_on_c, 1, 68, 127
1, 28527, Note_off_c, 1, 48, 0
1, 28527, Note_off_c, 1, 68, 0
1, 28528, Note_on_c, 1, 67, 127
1, 28528, Note_on_c, 1, 36, 127
1, 28727, Note_off_c, 1, 67, 0
1, 28728, Note_on_c, 1, 65, 127
1, 28927, Note_off_c, 1, 36, 0
1, 28927, Note_off_c, 1, 65, 0
1, 28928, Note_on_c, 1, 65, 127
1, 28928, Note_on_c, 1, 41, 127
1, 29129, Note_off_c, 1, 65, 0
1, 29130, Note_on_c, 1, 72, 127
1, 29331, Note_off_c, 1, 41, 0
1, 29331, Note_off_c, 1, 72, 0
1, 29332, Note_on_c, 1, 73, 127
1, 29332, Note_on_c, 1, 53, 127
1, 29448, Note_off_c, 1, 73, 0
1, 29467, Note_on_c, 1, 75, 127
1, 29583, Note_off_c, 1, 75, 0
1, 29602, Note_on_c, 1, 72, 127
1, 29718, Note_off_c, 1, 72, 0
1, 29737, Note_on_c, 1, 56, 127
1, 29939, Note_on_c, 1, 65, 127
1, 30140, Note_off_c, 1, 56, 0
1, 30140, Note_off_c, 1, 65, 0
1, 30141, Note_on_c, 1, 67, 127
1, 30141, Note_on_c, 1, 58, 127
1, 30342, Note_off_c, 1, 67, 0
1, 30343, Note_on_c, 1, 70, 127
1, 30543, Note_off_c, 1, 53, 0
1, 30544, Note_off_c, 1, 70, 0
1, 30545, Note_on_c, 1, 51, 127
1, 30949, Note_off_c, 1, 58, 0
1, 30950, Note_on_c, 1, 54, 127
1, 31353, Note_off_c, 1, 54, 0
1, 31354, Note_on_c, 1, 69, 127
1, 31555, Note_off_c, 1, 69, 0
1, 31756, Note_off_c, 1, 51, 0
1, 31758, Note_on_c, 1, 49, 127
1, 32162, Note_on_c, 1, 55, 127
1, 32418, Note_off_c, 1, 49, 0
1, 32422, Note_on_c, 1, 57, 127
1, 32422, Note_on_c, 1, 48, 127
1, 32432, Note_off_c, 1, 55, 0
1, 32542, Note_off_c, 1, 57, 0
1, 32542, Note_off_c, 1, 48, 0
1, 32566, Note_on_c, 1, 73, 127
1, 32566, Note_on_c, 1, 46, 127
1, 32768, Note_on_c, 1, 65, 127
1, 32861, Note_off_c, 1, 73, 0
1, 32969, Note_off_c, 1, 46, 0
1, 32969, Note_off_c, 1, 65, 0
1, 32970, Note_on_c, 1, 64, 127
1, 32970, Note_on_c, 1, 48, 127
1, 33091, Note_off_c, 1, 64, 0
1, 33105, Note_on_c, 1, 65, 127
1, 33226, Note_off_c, 1, 65, 0
1, 33240, Note_on_c, 1, 62, 127
1, 33361, Note_off_c, 1, 62, 0
1, 33577, Note_on_c, 1, 72, 127
1, 33778, Note_off_c, 1, 48, 0
1, 33778, Note_off_c, 1, 72, 0
1, 33779, Note_on_c, 1, 68, 127
1, 33779, Note_on_c, 1, 53, 127
1, 33779, Note_on_c, 1, 41, 127
1, 33981, Note_on_c, 1, 60, 127
1, 34074, Note_off_c, 1, 68, 0
1, 34182, Note_off_c, 1, 60, 0
1, 34183, Note_on_c, 1, 61, 127
1, 34304, Note_off_c, 1, 61, 0
1, 34312, Note_on_c, 1, 63, 127
1, 34433, Note_off_c, 1, 63, 0
1, 34442, Note_off_c, 1, 53, 0
1, 34443, Note_off_c, 1, 41, 0
1, 34444, Note_on_c, 1, 60, 127
1, 34444, Note_on_c, 1, 53, 127
1, 34564, Note_off_c, 1, 60, 0
1, 34588, Note_on_c, 1, 46, 127
1, 34588, Note_on_c, 1, 61, 127
1, 34646, Note_off_c, 1, 53, 0
1, 34789, Note_off_c, 1, 46, 0
1, 34789, Note_off_c, 1, 61, 0
1, 34790, Note_on_c, 1, 49, 127
1, 34790, Note_on_c, 1, 68, 127
1, 34991, Note_off_c, 1, 49, 0
1, 34991, Note_off_c, 1, 68, 0
1, 34992, Note_on_c, 1, 67, 127
1, 34992, Note_on_c, 1, 39, 127
1, 35194, Note_on_c, 1, 61, 127
1, 35287, Note_off_c, 1, 67, 0
1, 35395, Note_off_c, 1, 61, 0
1, 35396, Note_on_c, 1, 60, 127
1, 35517, Note_off_c, 1, 60, 0
1, 35652, Note_off_c, 1, 39, 0
1, 35653, Note_on_c, 1, 58, 127
1, 35653, Note_on_c, 1, 51, 127
1, 35774, Note_off_c, 1, 58, 0
1, 35801, Note_on_c, 1, 44, 127
1, 35801, Note_on_c, 1, 60, 127
1, 35855, Note_off_c, 1, 51, 0
1, 36002, Note_off_c, 1, 44, 0
1, 36002, Note_off_c, 1, 60, 0
1, 36003, Note_on_c, 1, 48, 127
1, 36003, Note_on_c, 1, 68, 127
1, 36204, Note_off_c, 1, 48, 0
1, 36204, Note_off_c, 1, 68, 0
1, 36205, Note_on_c, 1, 65, 127
1, 36205, Note_on_c, 1, 37, 127
1, 36407, Note_on_c, 1, 60, 127
1, 36500, Note_off_c, 1, 65, 0
1, 36608, Note_off_c, 1, 60, 0
1, 36609, Note_on_c, 1, 58, 127
1, 36730, Note_off_c, 1, 58, 0
1, 36864, Note_on_c, 1, 56, 127
1, 36864, Note_on_c, 1, 49, 127
1, 36865, Note_off_c, 1, 37, 0
1, 36985, Note_off_c, 1, 56, 0
1, 37014, Note_on_c, 1, 46, 127
1, 37014, Note_on_c, 1, 61, 127
1, 37066, Note_off_c, 1, 49, 0
1, 37215, Note_off_c, 1, 46, 0
1, 37215, Note_off_c, 1, 61, 0
1, 37216, Note_on_c, 1, 44, 127
1, 37216, Note_on_c, 1, 60, 127
1, 37417, Note_off_c, 1, 44, 0
1, 37417, Note_off_c, 1, 60, 0
1, 37418, Note_on_c, 1, 43, 127
1, 37418, Note_on_c, 1, 58, 127
1, 37619, Note_off_c, 1, 43, 0
1, 37619, Note_off_c, 1, 58, 0
1, 37620, Note_on_c, 1, 41, 127
1, 37620, Note_on_c, 1, 65, 127
1, 37821, Note_off_c, 1, 41, 0
1, 37821, Note_off_c, 1, 65, 0
1, 37822, Note_on_c, 1, 64, 127
1, 37822, Note_on_c, 1, 48, 127
1, 37943, Note_off_c, 1, 64, 0
1, 37957, Note_on_c, 1, 65, 127
1, 38078, Note_off_c, 1, 65, 0
1, 38092, Note_on_c, 1, 62, 127
1, 38213, Note_off_c, 1, 62, 0
1, 38226, Note_off_c, 1, 48, 0
1, 38227, Note_on_c, 1, 64, 127
1, 38227, Note_on_c, 1, 36, 127
1, 38428, Note_off_c, 1, 64, 0
1, 38429, Note_on_c, 1, 58, 127
1, 38630, Note_off_c, 1, 36, 0
1, 38630, Note_off_c, 1, 58, 0
1, 38631, Note_on_c, 1, 56, 127
1, 38631, Note_on_c, 1, 41, 127
1, 38631, Note_on_c, 1, 53, 127
1, 38833, Note_on_c, 1, 60, 127
1, 39031, Note_off_c, 1, 56, 0
1, 39034, Note_off_c, 1, 60, 0
1, 39035, Note_on_c, 1, 65, 127
1, 39236, Note_off_c, 1, 41, 0
1, 39438, Note_off_c, 1, 53, 0
1, 39438, Note_off_c, 1, 65, 0
1, 39455, Note_on_c, 1, 73, 127
1, 39455, Note_on_c, 1, 53, 127
1, 39858, Note_off_c, 1, 73, 0
1, 39858, Note_off_c, 1, 53, 0
1, 39859, Note_on_c, 1, 75, 127
1, 39859, Note_on_c, 1, 48, 127
1, 40262, Note_off_c, 1, 75, 0
1, 40262, Note_off_c, 1, 48, 0
1, 40263, Note_on_c, 1, 68, 127
1, 40263, Note_on_c, 1, 60, 127
1, 40464, Note_off_c, 1, 68, 0
1, 40465, Note_on_c, 1, 70, 127
1, 40666, Note_off_c, 1, 60, 0
1, 40666, Note_off_c, 1, 70, 0
1, 40667, Note_on_c, 1, 72, 127
1, 40667, Note_on_c, 1, 58, 127
1, 40767, Note_off_c, 1, 72, 0
1, 40768, Note_on_c, 1, 70, 127
1, 40868, Note_off_c, 1, 70, 0
1, 40869, Note_on_c, 1, 68, 127
1, 40969, Note_off_c, 1, 68, 0
1, 41070, Note_off_c, 1, 58, 0
1, 41071, Note_on_c, 1, 72, 127
1, 41071, Note_on_c, 1, 56, 127
1, 41474, Note_off_c, 1, 72, 0
1, 41474, Note_off_c, 1, 56, 0
1, 41475, Note_on_c, 1, 65, 127
1, 41475, Note_on_c, 1, 44, 127
1, 41676, Note_off_c, 1, 65, 0
1, 41677, Note_on_c, 1, 67, 127
1, 41878, Note_off_c, 1, 44, 0
1, 41878, Note_off_c, 1, 67, 0
1, 41879, Note_on_c, 1, 68, 127
1, 41879, Note_on_c, 1, 43, 127
1, 41979, Note_off_c, 1, 68, 0
1, 41980, Note_on_c, 1, 67, 127
1, 42080, Note_off_c, 1, 67, 0
1, 42081, Note_on_c, 1, 65, 127
1, 42181, Note_off_c, 1, 65, 0
1, 42282, Note_off_c, 1, 43, 0
1, 42283, Note_on_c, 1, 68, 127
1, 42283, Note_on_c, 1, 41, 127
1, 42484, Note_off_c, 1, 68, 0
1, 42485, Note_on_c, 1, 67, 127
1, 42686, Note_off_c, 1, 41, 0
1, 42686, Note_off_c, 1, 67, 0
1, 42687, Note_on_c, 1, 70, 127
1, 42687, Note_on_c, 1, 39, 127
1, 42888, Note_off_c, 1, 70, 0
1, 42889, Note_on_c, 1, 68, 127
1, 43090, Note_off_c, 1, 39, 0
1, 43090, Note_off_c, 1, 68, 0
1, 43091, Note_on_c, 1, 67, 127
1, 43091, Note_on_c, 1, 37, 127
1, 43212, Note_off_c, 1, 67, 0
1, 43226, Note_on_c, 1, 68, 127
1, 43347, Note_off_c, 1, 68, 0
1, 43361, Note_on_c, 1, 65, 127
1, 43482, Note_off_c, 1, 65, 0
1, 43495, Note_off_c, 1, 37, 0
1, 43496, Note_on_c, 1, 64, 127
1, 43496, Note_on_c, 1, 36, 127
1, 43816, Note_off_c, 1, 64, 0
1, 43899, Note_off_c, 1, 36, 0
1, 43900, Note_on_c, 1, 72, 127
1, 43900, Note_on_c, 1, 44, 127
1, 44303, Note_off_c, 1, 72, 0
1, 44303, Note_off_c, 1, 44, 0
1, 44304, Note_on_c, 1, 73, 127
1, 44304, Note_on_c, 1, 41, 127
1, 44404, Note_off_c, 1, 73, 0
1, 44405, Note_on_c, 1, 75, 127
1, 44505, Note_off_c, 1, 75, 0
1, 44506, Note_on_c, 1, 77, 127
1, 44707, Note_off_c, 1, 41, 0
1, 44707, Note_off_c, 1, 77, 0
1, 44708, Note_on_c, 1, 75, 127
1, 44708, Note_on_c, 1, 48, 127
1, 45111, Note_off_c, 1, 75, 0
1, 45111, Note_off_c, 1, 48, 0
1, 45112, Note_on_c, 1, 68, 127
1, 45112, Note_on_c, 1, 60, 127
1, 45313, Note_off_c, 1, 68, 0
1, 45314, Note_on_c, 1, 70, 127
1, 45515, Note_off_c, 1, 60, 0
1, 45515, Note_off_c, 1, 70, 0
1, 45516, Note_on_c, 1, 72, 127
1, 45516, Note_on_c, 1, 58, 127
1, 45616, Note_off_c, 1, 72, 0
1, 45617, Note_on_c, 1, 70, 127
1, 45717, Note_off_c, 1, 70, 0
1, 45718, Note_on_c, 1, 68, 127
1, 45818, Note_off_c, 1, 68, 0
1, 45919, Note_off_c, 1, 58, 0
1, 45920, Note_on_c, 1, 72, 127
1, 45920, Note_on_c, 1, 56, 127
1, 46323, Note_off_c, 1, 72, 0
1, 46323, Note_off_c, 1, 56, 0
1, 46324, Note_on_c, 1, 65, 127
1, 46324, Note_on_c, 1, 44, 127
1, 46525, Note_off_c, 1, 65, 0
1, 46526, Note_on_c, 1, 67, 127
1, 46727, Note_off_c, 1, 44, 0
1, 46727, Note_off_c, 1, 67, 0
1, 46728, Note_on_c, 1, 68, 127
1, 46728, Note_on_c, 1, 43, 127
1, 46828, Note_off_c, 1, 68, 0
1, 46829, Note_on_c, 1, 67, 127
1, 46929, Note_off_c, 1, 67, 0
1, 46930, Note_on_c, 1, 65, 127
1, 47030, Note_off_c, 1, 65, 0
1, 47131, Note_off_c, 1, 43, 0
1, 47132, Note_on_c, 1, 68, 127
1, 47132, Note_on_c, 1, 41, 127
1, 47333, Note_off_c, 1, 68, 0
1, 47334, Note_on_c, 1, 67, 127
1, 47535, Note_off_c, 1, 41, 0
1, 47535, Note_off_c, 1, 67, 0
1, 47536, Note_on_c, 1, 70, 127
1, 47536, Note_on_c, 1, 48, 127
1, 47737, Note_off_c, 1, 70, 0
1, 47738, Note_on_c, 1, 68, 127
1, 47939, Note_off_c, 1, 48, 0
1, 47939, Note_off_c, 1, 68, 0
1, 47940, Note_on_c, 1, 67, 127
1, 47940, Note_on_c, 1, 36, 127
1, 48141, Note_off_c, 1, 67, 0
1, 48142, Note_on_c, 1, 65, 127
1, 48343, Note_off_c, 1, 36, 0
1, 48343, Note_off_c, 1, 65, 0
1, 48344, Note_on_c, 1, 65, 127
1, 48344, Note_on_c, 1, 41, 127
1, 48444, Note_off_c, 1, 65, 0
1, 48445, Note_on_c, 1, 72, 127
1, 48545, Note_off_c, 1, 72, 0
1, 48546, Note_on_c, 1, 74, 127
1, 48646, Note_off_c, 1, 74, 0
1, 48647, Note_on_c, 1, 76, 127
1, 48747, Note_off_c, 1, 76, 0
1, 48748, Note_on_c, 1, 77, 127
1, 48848, Note_off_c, 1, 41, 0
1, 48848, Note_off_c, 1, 77, 0
1, 48849, Note_on_c, 1, 68, 127
1, 48849, Note_on_c, 1, 53, 127
1, 48949, Note_off_c, 1, 68, 0
1, 48949, Note_off_c, 1, 53, 0
1, 48950, Note_on_c, 1, 70, 127
1, 48950, Note_on_c, 1, 55, 127
1, 49050, Note_off_c, 1, 70, 0
1, 49050, Note_off_c, 1, 55, 0
1, 49051, Note_on_c, 1, 72, 127
1, 49051, Note_on_c, 1, 56, 127
1, 49151, Note_off_c, 1, 72, 0
1, 49151, Note_off_c, 1, 56, 0
1, 49152, Note_on_c, 1, 73, 127
1, 49152, Note_on_c, 1, 58, 127
1, 49252, Note_off_c, 1, 73, 0
1, 49252, Note_off_c, 1, 58, 0
1, 49253, Note_on_c, 1, 70, 127
1, 49253, Note_on_c, 1, 56, 127
1, 49353, Note_off_c, 1, 70, 0
1, 49353, Note_off_c, 1, 56, 0
1, 49354, Note_on_c, 1, 72, 127
1, 49354, Note_on_c, 1, 55, 127
1, 49454, Note_off_c, 1, 72, 0
1, 49454, Note_off_c, 1, 55, 0
1, 49455, Note_on_c, 1, 73, 127
1, 49455, Note_on_c, 1, 53, 127
1, 49555, Note_off_c, 1, 73, 0
1, 49555, Note_off_c, 1, 53, 0
1, 49556, Note_on_c, 1, 67, 127
1, 49556, Note_on_c, 1, 51, 127
1, 49656, Note_off_c, 1, 67, 0
1, 49657, Note_on_c, 1, 70, 127
1, 49757, Note_off_c, 1, 70, 0
1, 49758, Note_on_c, 1, 72, 127
1, 49858, Note_off_c, 1, 72, 0
1, 49859, Note_on_c, 1, 73, 127
1, 49959, Note_off_c, 1, 73, 0
1, 49960, Note_on_c, 1, 75, 127
1, 50060, Note_off_c, 1, 51, 0
1, 50060, Note_off_c, 1, 75, 0
1, 50061, Note_on_c, 1, 67, 127
1, 50061, Note_on_c, 1, 51, 127
1, 50161, Note_off_c, 1, 67, 0
1, 50161, Note_off_c, 1, 51, 0
1, 50162, Note_on_c, 1, 68, 127
1, 50162, Note_on_c, 1, 53, 127
1, 50262, Note_off_c, 1, 68, 0
1, 50262, Note_off_c, 1, 53, 0
1, 50263, Note_on_c, 1, 70, 127
1, 50263, Note_on_c, 1, 55, 127
1, 50363, Note_off_c, 1, 70, 0
1, 50363, Note_off_c, 1, 55, 0
1, 50364, Note_on_c, 1, 72, 127
1, 50364, Note_on_c, 1, 56, 127
1, 50464, Note_off_c, 1, 72, 0
1, 50464, Note_off_c, 1, 56, 0
1, 50465, Note_on_c, 1, 68, 127
1, 50465, Note_on_c, 1, 55, 127
1, 50565, Note_off_c, 1, 68, 0
1, 50565, Note_off_c, 1, 55, 0
1, 50566, Note_on_c, 1, 70, 127
1, 50566, Note_on_c, 1, 53, 127
1, 50666, Note_off_c, 1, 70, 0
1, 50666, Note_off_c, 1, 53, 0
1, 50667, Note_on_c, 1, 72, 127
1, 50667, Note_on_c, 1, 51, 127
1, 50767, Note_off_c, 1, 72, 0
1, 50767, Note_off_c, 1, 51, 0
1, 50768, Note_on_c, 1, 65, 127
1, 50768, Note_on_c, 1, 49, 127
1, 50868, Note_off_c, 1, 65, 0
1, 50869, Note_on_c, 1, 68, 127
1, 50969, Note_off_c, 1, 68, 0
1, 50970, Note_on_c, 1, 70, 127
1, 51070, Note_off_c, 1, 70, 0
1, 51071, Note_on_c, 1, 72, 127
1, 51171, Note_off_c, 1, 72, 0
1, 51172, Note_on_c, 1, 73, 127
1, 51272, Note_off_c, 1, 49, 0
1, 51272, Note_off_c, 1, 73, 0
1, 51273, Note_on_c, 1, 65, 127
1, 51273, Note_on_c, 1, 48, 127
1, 51373, Note_off_c, 1, 65, 0
1, 51373, Note_off_c, 1, 48, 0
1, 51374, Note_on_c, 1, 67, 127
1, 51374, Note_on_c, 1, 46, 127
1, 51474, Note_off_c, 1, 67, 0
1, 51474, Note_off_c, 1, 46, 0
1, 51475, Note_on_c, 1, 68, 127
1, 51475, Note_on_c, 1, 44, 127
1, 51575, Note_off_c, 1, 68, 0
1, 51575, Note_off_c, 1, 44, 0
1, 51576, Note_on_c, 1, 70, 127
1, 51576, Note_on_c, 1, 43, 127
1, 51676, Note_off_c, 1, 70, 0
1, 51676, Note_off_c, 1, 43, 0
1, 51677, Note_on_c, 1, 67, 127
1, 51677, Note_on_c, 1, 41, 127
1, 51777, Note_off_c, 1, 67, 0
1, 51777, Note_off_c, 1, 41, 0
1, 51778, Note_on_c, 1, 68, 127
1, 51778, Note_on_c, 1, 40, 127
1, 51878, Note_off_c, 1, 68, 0
1, 51878, Note_off_c, 1, 40, 0
1, 51879, Note_on_c, 1, 70, 127
1, 51879, Note_on_c, 1, 38, 127
1, 51979, Note_off_c, 1, 70, 0
1, 51979, Note_off_c, 1, 38, 0
1, 51980, Note_on_c, 1, 64, 127
1, 51980, Note_on_c, 1, 36, 127
1, 52080, Note_off_c, 1, 64, 0
1, 52081, Note_on_c, 1, 65, 127
1, 52181, Note_off_c, 1, 65, 0
1, 52283, Note_on_c, 1, 62, 127
1, 52383, Note_off_c, 1, 62, 0
1, 52384, Note_on_c, 1, 60, 127
1, 52484, Note_off_c, 1, 60, 0
1, 52485, Note_on_c, 1, 67, 127
1, 52585, Note_off_c, 1, 36, 0
1, 52585, Note_off_c, 1, 67, 0
1, 52586, Note_on_c, 1, 68, 127
1, 52686, Note_off_c, 1, 68, 0
1, 52687, Note_on_c, 1, 70, 127
1, 52787, Note_off_c, 1, 70, 0
1, 52788, Note_on_c, 1, 72, 127
1, 52888, Note_off_c, 1, 72, 0
1, 52889, Note_on_c, 1, 70, 127
1, 52889, Note_on_c, 1, 48, 127
1, 52989, Note_off_c, 1, 70, 0
1, 52989, Note_off_c, 1, 48, 0
1, 52990, Note_on_c, 1, 68, 127
1, 52990, Note_on_c, 1, 50, 127
1, 53090, Note_off_c, 1, 68, 0
1, 53090, Note_off_c, 1, 50, 0
1, 53091, Note_on_c, 1, 67, 127
1, 53091, Note_on_c, 1, 52, 127
1, 53191, Note_off_c, 1, 67, 0
1, 53191, Note_off_c, 1, 52, 0
1, 53192, Note_on_c, 1, 53, 127
1, 53192, Note_on_c, 1, 68, 127
1, 53292, Note_off_c, 1, 53, 0
1, 53293, Note_on_c, 1, 48, 127
1, 53371, Note_off_c, 1, 68, 0
1, 53393, Note_off_c, 1, 48, 0
1, 53394, Note_on_c, 1, 44, 127
1, 53394, Note_on_c, 1, 72, 127
1, 53494, Note_off_c, 1, 44, 0
1, 53495, Note_on_c, 1, 48, 127
1, 53573, Note_off_c, 1, 72, 0
1, 53595, Note_off_c, 1, 48, 0
1, 53596, Note_on_c, 1, 41, 127
1, 53596, Note_on_c, 1, 77, 127
1, 53696, Note_off_c, 1, 41, 0
1, 53697, Note_on_c, 1, 53, 127
1, 53797, Note_off_c, 1, 53, 0
1, 53798, Note_on_c, 1, 55, 127
1, 53898, Note_off_c, 1, 77, 0
1, 53898, Note_off_c, 1, 55, 0
1, 53899, Note_on_c, 1, 75, 127
1, 53899, Note_on_c, 1, 57, 127
1, 53999, Note_off_c, 1, 75, 0
1, 53999, Note_off_c, 1, 57, 0
1, 54000, Note_on_c, 1, 73, 127
1, 54000, Note_on_c, 1, 58, 127
1, 54100, Note_off_c, 1, 73, 0
1, 54100, Note_off_c, 1, 58, 0
1, 54101, Note_on_c, 1, 72, 127
1, 54101, Note_on_c, 1, 46, 127
1, 54201, Note_off_c, 1, 72, 0
1, 54201, Note_off_c, 1, 46, 0
1, 54202, Note_on_c, 1, 70, 127
1, 54202, Note_on_c, 1, 48, 127
1, 54302, Note_off_c, 1, 70, 0
1, 54302, Note_off_c, 1, 48, 0
1, 54303, Note_on_c, 1, 68, 127
1, 54303, Note_on_c, 1, 49, 127
1, 54403, Note_off_c, 1, 68, 0
1, 54403, Note_off_c, 1, 49, 0
1, 54404, Note_on_c, 1, 51, 127
1, 54404, Note_on_c, 1, 67, 127
1, 54504, Note_off_c, 1, 51, 0
1, 54505, Note_on_c, 1, 46, 127
1, 54583, Note_off_c, 1, 67, 0
1, 54605, Note_off_c, 1, 46, 0
1, 54606, Note_on_c, 1, 43, 127
1, 54606, Note_on_c, 1, 70, 127
1, 54706, Note_off_c, 1, 43, 0
1, 54707, Note_on_c, 1, 46, 127
1, 54785, Note_off_c, 1, 70, 0
1, 54807, Note_off_c, 1, 46, 0
1, 54808, Note_on_c, 1, 39, 127
1, 54808, Note_on_c, 1, 75, 127
1, 54908, Note_off_c, 1, 39, 0
1, 54909, Note_on_c, 1, 51, 127
1, 55009, Note_off_c, 1, 51, 0
1, 55010, Note_on_c, 1, 53, 127
1, 55110, Note_off_c, 1, 75, 0
1, 55110, Note_off_c, 1, 53, 0
1, 55111, Note_on_c, 1, 73, 127
1, 55111, Note_on_c, 1, 55, 127
1, 55211, Note_off_c, 1, 73, 0
1, 55211, Note_off_c, 1, 55, 0
1, 55212, Note_on_c, 1, 72, 127
1, 55212, Note_on_c, 1, 56, 127
1, 55312, Note_off_c, 1, 72, 0
1, 55312, Note_off_c, 1, 56, 0
1, 55313, Note_on_c, 1, 70, 127
1, 55313, Note_on_c, 1, 44, 127
1, 55413, Note_off_c, 1, 70, 0
1, 55413, Note_off_c, 1, 44, 0
1, 55414, Note_on_c, 1, 68, 127
1, 55414, Note_on_c, 1, 46, 127
1, 55514, Note_off_c, 1, 68, 0
1, 55514, Note_off_c, 1, 46, 0
1, 55515, Note_on_c, 1, 67, 127
1, 55515, Note_on_c, 1, 48, 127
1, 55615, Note_off_c, 1, 67, 0
1, 55615, Note_off_c, 1, 48, 0
1, 55616, Note_on_c, 1, 49, 127
1, 55616, Note_on_c, 1, 65, 127
1, 55716, Note_off_c, 1, 49, 0
1, 55717, Note_on_c, 1, 44, 127
1, 55795, Note_off_c, 1, 65, 0
1, 55817, Note_off_c, 1, 44, 0
1, 55818, Note_on_c, 1, 41, 127
1, 55818, Note_on_c, 1, 68, 127
1, 55918, Note_off_c, 1, 41, 0
1, 55919, Note_on_c, 1, 44, 127
1, 55997, Note_off_c, 1, 68, 0
1, 56019, Note_off_c, 1, 44, 0
1, 56020, Note_on_c, 1, 37, 127
1, 56020, Note_on_c, 1, 73, 127
1, 56120, Note_off_c, 1, 37, 0
1, 56121, Note_on_c, 1, 44, 127
1, 56221, Note_off_c, 1, 44, 0
1, 56222, Note_on_c, 1, 46, 127
1, 56322, Note_off_c, 1, 73, 0
1, 56322, Note_off_c, 1, 46, 0
1, 56323, Note_on_c, 1, 72, 127
1, 56323, Note_on_c, 1, 48, 127
1, 56423, Note_off_c, 1, 72, 0
1, 56423, Note_off_c, 1, 48, 0
1, 56424, Note_on_c, 1, 70, 127
1, 56424, Note_on_c, 1, 49, 127
1, 56524, Note_off_c, 1, 70, 0
1, 56524, Note_off_c, 1, 49, 0
1, 56525, Note_on_c, 1, 68, 127
1, 56525, Note_on_c, 1, 43, 127
1, 56625, Note_off_c, 1, 68, 0
1, 56625, Note_off_c, 1, 43, 0
1, 56626, Note_on_c, 1, 67, 127
1, 56626, Note_on_c, 1, 44, 127
1, 56726, Note_off_c, 1, 67, 0
1, 56726, Note_off_c, 1, 44, 0
1, 56727, Note_on_c, 1, 65, 127
1, 56727, Note_on_c, 1, 46, 127
1, 56827, Note_off_c, 1, 65, 0
1, 56827, Note_off_c, 1, 46, 0
1, 56828, Note_on_c, 1, 64, 127
1, 56828, Note_on_c, 1, 36, 127
1, 57130, Note_off_c, 1, 64, 0
1, 57131, Note_on_c, 1, 65, 127
1, 57231, Note_off_c, 1, 65, 0
1, 57232, Note_on_c, 1, 67, 127
1, 57332, Note_off_c, 1, 67, 0
1, 57535, Note_on_c, 1, 62, 127
1, 57635, Note_off_c, 1, 36, 0
1, 57635, Note_off_c, 1, 62, 0
1, 57636, Note_on_c, 1, 60, 127
1, 57636, Note_on_c, 1, 48, 127
1, 57736, Note_off_c, 1, 60, 0
1, 57737, Note_on_c, 1, 58, 127
1, 57837, Note_off_c, 1, 58, 0
1, 57838, Note_on_c, 1, 56, 127
1, 57938, Note_off_c, 1, 56, 0
1, 57939, Note_on_c, 1, 55, 127
1, 58036, Note_off_c, 1, 48, 0
1, 58039, Note_off_c, 1, 55, 0
1, 58040, Note_on_c, 1, 60, 127
1, 58040, Note_on_c, 1, 41, 127
1, 58143, Note_on_c, 1, 58, 127
1, 58238, Note_off_c, 1, 58, 0
1, 58245, Note_on_c, 1, 56, 127
1, 58339, Note_off_c, 1, 60, 0
1, 58340, Note_off_c, 1, 56, 0
1, 58347, Note_on_c, 1, 55, 127
1, 58441, Note_off_c, 1, 55, 0
1, 58445, Note_off_c, 1, 41, 0
1, 58449, Note_on_c, 1, 73, 127
1, 58449, Note_on_c, 1, 53, 127
1, 58859, Note_off_c, 1, 73, 0
1, 58859, Note_off_c, 1, 53, 0
1, 58860, Note_on_c, 1, 73, 127
1, 58860, Note_on_c, 1, 49, 127
1, 58962, Note_off_c, 1, 73, 0
1, 58963, Note_on_c, 1, 75, 127
1, 59065, Note_off_c, 1, 75, 0
1, 59066, Note_on_c, 1, 77, 127
1, 59271, Note_off_c, 1, 49, 0
1, 59271, Note_off_c, 1, 77, 0
1, 59272, Note_on_c, 1, 75, 127
1, 59272, Note_on_c, 1, 48, 127
1, 59682, Note_off_c, 1, 75, 0
1, 59682, Note_off_c, 1, 48, 0
1, 59683, Note_on_c, 1, 68, 127
1, 59683, Note_on_c, 1, 60, 127
1, 59888, Note_off_c, 1, 68, 0
1, 59889, Note_on_c, 1, 70, 127
1, 60094, Note_off_c, 1, 60, 0
1, 60094, Note_off_c, 1, 70, 0
1, 60095, Note_on_c, 1, 72, 127
1, 60095, Note_on_c, 1, 58, 127
1, 60197, Note_off_c, 1, 72, 0
1, 60198, Note_on_c, 1, 70, 127
1, 60300, Note_off_c, 1, 70, 0
1, 60301, Note_on_c, 1, 68, 127
1, 60403, Note_off_c, 1, 68, 0
1, 60506, Note_off_c, 1, 58, 0
1, 60507, Note_on_c, 1, 72, 127
1, 60507, Note_on_c, 1, 56, 127
1, 60917, Note_off_c, 1, 72, 0
1, 60917, Note_off_c, 1, 56, 0
1, 60918, Note_on_c, 1, 65, 127
1, 60918, Note_on_c, 1, 44, 127
1, 61123, Note_off_c, 1, 65, 0
1, 61124, Note_on_c, 1, 67, 127
1, 61329, Note_off_c, 1, 44, 0
1, 61329, Note_off_c, 1, 67, 0
1, 61330, Note_on_c, 1, 68, 127
1, 61330, Note_on_c, 1, 43, 127
1, 61432, Note_off_c, 1, 68, 0
1, 61433, Note_on_c, 1, 67, 127
1, 61535, Note_off_c, 1, 67, 0
1, 61536, Note_on_c, 1, 65, 127
1, 61638, Note_off_c, 1, 65, 0
1, 61741, Note_off_c, 1, 43, 0
1, 61742, Note_on_c, 1, 68, 127
1, 61742, Note_on_c, 1, 41, 127
1, 61947, Note_off_c, 1, 68, 0
1, 61948, Note_on_c, 1, 67, 127
1, 62153, Note_off_c, 1, 41, 0
1, 62153, Note_off_c, 1, 67, 0
1, 62154, Note_on_c, 1, 70, 127
1, 62154, Note_on_c, 1, 39, 127
1, 62359, Note_off_c, 1, 70, 0
1, 62360, Note_on_c, 1, 68, 127
1, 62565, Note_off_c, 1, 39, 0
1, 62565, Note_off_c, 1, 68, 0
1, 62566, Note_on_c, 1, 67, 127
1, 62566, Note_on_c, 1, 37, 127
1, 62702, Note_off_c, 1, 67, 0
1, 62708, Note_on_c, 1, 68, 127
1, 62844, Note_off_c, 1, 68, 0
1, 62850, Note_on_c, 1, 65, 127
1, 62975, Note_off_c, 1, 37, 0
1, 62976, Note_on_c, 1, 64, 127
1, 62976, Note_on_c, 1, 36, 127
1, 62978, Note_off_c, 1, 65, 0
1, 63306, Note_off_c, 1, 64, 0
1, 63386, Note_off_c, 1, 36, 0
1, 63387, Note_on_c, 1, 72, 127
1, 63387, Note_on_c, 1, 44, 127
1, 63797, Note_off_c, 1, 72, 0
1, 63797, Note_off_c, 1, 44, 0
1, 63798, Note_on_c, 1, 73, 127
1, 63798, Note_on_c, 1, 41, 127
1, 63900, Note_off_c, 1, 73, 0
1, 63901, Note_on_c, 1, 75, 127
1, 64003, Note_off_c, 1, 75, 0
1, 64004, Note_on_c, 1, 77, 127
1, 64209, Note_off_c, 1, 41, 0
1, 64209, Note_off_c, 1, 77, 0
1, 64210, Note_on_c, 1, 75, 127
1, 64210, Note_on_c, 1, 48, 127
1, 64620, Note_off_c, 1, 75, 0
1, 64620, Note_off_c, 1, 48, 0
1, 64621, Note_on_c, 1, 68, 127
1, 64621, Note_on_c, 1, 60, 127
1, 64826, Note_off_c, 1, 68, 0
1, 64827, Note_on_c, 1, 70, 127
1, 65032, Note_off_c, 1, 60, 0
1, 65032, Note_off_c, 1, 70, 0
1, 65033, Note_on_c, 1, 72, 127
1, 65033, Note_on_c, 1, 58, 127
1, 65135, Note_off_c, 1, 72, 0
1, 65136, Note_on_c, 1, 70, 127
1, 65238, Note_off_c, 1, 70, 0
1, 65239, Note_on_c, 1, 68, 127
1, 65341, Note_off_c, 1, 68, 0
1, 65444, Note_off_c, 1, 58, 0
1, 65445, Note_on_c, 1, 72, 127
1, 65445, Note_on_c, 1, 56, 127
1, 65843, Note_off_c, 1, 72, 0
1, 65863, Note_off_c, 1, 56, 0
1, 65864, Note_on_c, 1, 65, 127
1, 65864, Note_on_c, 1, 44, 127
1, 66072, Note_off_c, 1, 65, 0
1, 66073, Note_on_c, 1, 67, 127
1, 66281, Note_off_c, 1, 44, 0
1, 66281, Note_off_c, 1, 67, 0
1, 66282, Note_on_c, 1, 68, 127
1, 66282, Note_on_c, 1, 43, 127
1, 66386, Note_off_c, 1, 68, 0
1, 66387, Note_on_c, 1, 67, 127
1, 66491, Note_off_c, 1, 67, 0
1, 66492, Note_on_c, 1, 65, 127
1, 66596, Note_off_c, 1, 65, 0
1, 66701, Note_off_c, 1, 43, 0
1, 66702, Note_on_c, 1, 68, 127
1, 66702, Note_on_c, 1, 41, 127
1, 66910, Note_off_c, 1, 68, 0
1, 66911, Note_on_c, 1, 67, 127
1, 67119, Note_off_c, 1, 41, 0
1, 67119, Note_off_c, 1, 67, 0
1, 67120, Note_on_c, 1, 70, 127
1, 67120, Note_on_c, 1, 48, 127
1, 67328, Note_off_c, 1, 70, 0
1, 67329, Note_on_c, 1, 68, 127
1, 67537, Note_off_c, 1, 68, 0
1, 67538, Note_on_c, 1, 67, 127
1, 67538, Note_on_c, 1, 36, 127
1, 67643, Note_off_c, 1, 48, 0
1, 67747, Note_off_c, 1, 67, 0
1, 67748, Note_on_c, 1, 65, 127
1, 67944, Note_off_c, 1, 36, 0
1, 67956, Note_off_c, 1, 65, 0
1, 67957, Note_on_c, 1, 65, 127
1, 67957, Note_on_c, 1, 41, 127
1, 68027, Note_off_c, 1, 65, 0
1, 68027, Note_on_c, 1, 64, 127
1, 68097, Note_off_c, 1, 64, 0
1, 69213, Note_off_c, 1, 41, 0
1, 69230, Note_on_c, 1, 65, 127
1, 69230, Note_on_c, 1, 56, 127
1, 69230, Note_on_c, 1, 53, 127
1, 69699, Note_off_c, 1, 65, 0
1, 69700, Note_on_c, 1, 67, 127
1, 69700, Note_on_c, 1, 60, 127
1, 69934, Note_off_c, 1, 67, 0
1, 69935, Note_on_c, 1, 68, 127
1, 70165, Note_off_c, 1, 60, 0
1, 70170, Note_on_c, 1, 61, 127
1, 70264, Note_off_c, 1, 68, 0
1, 70264, Note_on_c, 1, 70, 127
1, 70380, Note_off_c, 1, 70, 0
1, 70634, Note_off_c, 1, 61, 0
1, 70638, Note_off_c, 1, 56, 0
1, 70639, Note_on_c, 1, 58, 127
1, 70873, Note_off_c, 1, 58, 0
1, 71460, Note_on_c, 1, 55, 127
1, 71576, Note_off_c, 1, 55, 0
1, 71577, Note_off_c, 1, 53, 0
1, 71577, Note_on_c, 1, 52, 127
1, 72042, Note_off_c, 1, 52, 0
1, 72047, Note_on_c, 1, 65, 127
1, 72047, Note_on_c, 1, 51, 127
1, 72047, Note_on_c, 1, 57, 127
1, 72516, Note_off_c, 1, 65, 0
1, 72517, Note_on_c, 1, 72, 127
1, 72575, Note_off_c, 1, 72, 0
1, 72576, Note_on_c, 1, 70, 127
1, 72634, Note_off_c, 1, 70, 0
1, 72967, Note_on_c, 1, 53, 127
1, 72987, Note_off_c, 1, 51, 0
1, 73079, Note_on_c, 1, 73, 127
1, 73169, Note_off_c, 1, 73, 0
1, 73170, Note_on_c, 1, 75, 127
1, 73261, Note_off_c, 1, 75, 0
1, 73408, Note_off_c, 1, 53, 0
1, 73456, Note_off_c, 1, 57, 0
1, 73458, Note_on_c, 1, 50, 127
1, 74163, Note_on_c, 1, 56, 127
1, 74397, Note_off_c, 1, 56, 0
1, 74398, Note_on_c, 1, 55, 127
1, 74632, Note_off_c, 1, 55, 0
1, 74633, Note_on_c, 1, 58, 127
1, 74749, Note_off_c, 1, 58, 0
1, 74865, Note_off_c, 1, 50, 0
1, 74867, Note_on_c, 1, 58, 127
1, 74867, Note_on_c, 1, 65, 127
1, 74867, Note_on_c, 1, 49, 127
1, 75336, Note_off_c, 1, 58, 0
1, 75336, Note_off_c, 1, 65, 0
1, 75337, Note_on_c, 1, 77, 127
1, 75337, Note_on_c, 1, 56, 127
1, 75410, Note_on_c, 1, 76, 127
1, 75412, Note_off_c, 1, 77, 0
1, 75485, Note_off_c, 1, 76, 0
1, 75805, Note_off_c, 1, 56, 0
1, 75897, Note_on_c, 1, 79, 127
1, 75989, Note_off_c, 1, 79, 0
1, 76000, Note_on_c, 1, 80, 127
1, 76092, Note_off_c, 1, 80, 0
1, 76274, Note_off_c, 1, 49, 0
1, 76276, Note_on_c, 1, 72, 127
1, 76276, Note_on_c, 1, 48, 127
1, 76276, Note_on_c, 1, 60, 127
1, 76619, Note_off_c, 1, 72, 0
1, 76745, Note_off_c, 1, 48, 0
1, 76745, Note_off_c, 1, 60, 0
1, 76746, Note_on_c, 1, 46, 127
1, 76746, Note_on_c, 1, 76, 127
1, 77215, Note_off_c, 1, 46, 0
1, 77215, Note_off_c, 1, 76, 0
1, 77216, Note_on_c, 1, 44, 127
1, 77216, Note_on_c, 1, 77, 127
1, 77685, Note_off_c, 1, 44, 0
1, 77685, Note_off_c, 1, 77, 0
1, 77686, Note_on_c, 1, 46, 127
1, 77686, Note_on_c, 1, 73, 127
1, 77686, Note_on_c, 1, 53, 127
1, 78155, Note_off_c, 1, 46, 0
1, 78155, Note_off_c, 1, 73, 0
1, 78156, Note_on_c, 1, 72, 127
1, 78156, Note_on_c, 1, 43, 127
1, 78313, Note_off_c, 1, 72, 0
1, 78313, Note_on_c, 1, 70, 127
1, 78391, Note_off_c, 1, 70, 0
1, 78624, Note_off_c, 1, 53, 0
1, 78624, Note_off_c, 1, 43, 0
1, 78625, Note_on_c, 1, 48, 127
1, 78625, Note_on_c, 1, 52, 127
1, 79094, Note_off_c, 1, 48, 0
1, 79094, Note_off_c, 1, 52, 0
1, 79095, Note_on_c, 1, 70, 127
1, 79095, Note_on_c, 1, 41, 127
1, 79252, Note_off_c, 1, 70, 0
1, 79252, Note_on_c, 1, 68, 127
1, 79330, Note_off_c, 1, 68, 0
1, 79564, Note_on_c, 1, 53, 127
1, 79798, Note_on_c, 1, 67, 127
1, 79891, Note_off_c, 1, 67, 0
1, 80032, Note_off_c, 1, 41, 0
1, 80032, Note_off_c, 1, 53, 0
1, 80033, Note_on_c, 1, 67, 127
1, 80033, Note_on_c, 1, 52, 127
1, 80033, Note_on_c, 1, 48, 127
1, 80393, Note_off_c, 1, 67, 0
1, 80502, Note_off_c, 1, 52, 0
1, 80502, Note_off_c, 1, 48, 0
1, 80503, Note_on_c, 1, 65, 127
1, 80503, Note_on_c, 1, 56, 127
1, 80503, Note_on_c, 1, 53, 127
1, 80972, Note_off_c, 1, 65, 0
1, 80973, Note_on_c, 1, 67, 127
1, 80973, Note_on_c, 1, 60, 127
1, 81207, Note_off_c, 1, 67, 0
1, 81208, Note_on_c, 1, 68, 127
1, 81266, Note_off_c, 1, 68, 0
1, 81439, Note_off_c, 1, 60, 0
1, 81444, Note_on_c, 1, 61, 127
1, 81561, Note_on_c, 1, 70, 127
1, 81677, Note_off_c, 1, 70, 0
1, 82028, Note_off_c, 1, 56, 0
1, 82145, Note_off_c, 1, 61, 0
1, 82263, Note_on_c, 1, 58, 127
1, 82379, Note_off_c, 1, 58, 0
1, 82732, Note_on_c, 1, 55, 127
1, 82848, Note_off_c, 1, 55, 0
1, 82849, Note_off_c, 1, 53, 0
1, 82849, Note_on_c, 1, 52, 127
1, 83314, Note_off_c, 1, 52, 0
1, 83319, Note_on_c, 1, 51, 127
1, 83319, Note_on_c, 1, 65, 127
1, 83319, Note_on_c, 1, 57, 127
1, 83788, Note_off_c, 1, 51, 0
1, 83788, Note_off_c, 1, 65, 0
1, 83789, Note_on_c, 1, 72, 127
1, 83789, Note_on_c, 1, 53, 127
1, 83847, Note_off_c, 1, 72, 0
1, 83848, Note_on_c, 1, 70, 127
1, 83906, Note_off_c, 1, 70, 0
1, 84258, Note_off_c, 1, 53, 0
1, 84337, Note_on_c, 1, 73, 127
1, 84424, Note_off_c, 1, 73, 0
1, 84425, Note_on_c, 1, 75, 127
1, 84512, Note_off_c, 1, 75, 0
1, 84726, Note_off_c, 1, 57, 0
1, 84728, Note_on_c, 1, 72, 127
1, 84728, Note_on_c, 1, 50, 127
1, 84963, Note_on_c, 1, 53, 127
1, 85197, Note_off_c, 1, 53, 0
1, 85198, Note_on_c, 1, 56, 127
1, 85432, Note_off_c, 1, 72, 0
1, 85432, Note_off_c, 1, 56, 0
1, 85433, Note_on_c, 1, 55, 127
1, 85433, Note_on_c, 1, 70, 127
1, 85667, Note_off_c, 1, 55, 0
1, 85668, Note_on_c, 1, 58, 127
1, 85898, Note_off_c, 1, 70, 0
1, 85902, Note_off_c, 1, 58, 0
1, 85903, Note_on_c, 1, 57, 127
1, 86136, Note_off_c, 1, 50, 0
1, 86137, Note_off_c, 1, 57, 0
1, 86138, Note_on_c, 1, 65, 127
1, 86138, Note_on_c, 1, 49, 127
1, 86138, Note_on_c, 1, 58, 127
1, 86607, Note_off_c, 1, 65, 0
1, 86608, Note_on_c, 1, 80, 127
1, 86959, Note_off_c, 1, 80, 0
1, 86960, Note_on_c, 1, 77, 127
1, 87076, Note_off_c, 1, 77, 0
1, 87077, Note_on_c, 1, 79, 127
1, 87206, Note_off_c, 1, 79, 0
1, 87207, Note_on_c, 1, 76, 127
1, 87332, Note_off_c, 1, 76, 0
1, 87547, Note_off_c, 1, 49, 0
1, 87547, Note_off_c, 1, 58, 0
1, 87548, Note_on_c, 1, 77, 127
1, 87548, Note_on_c, 1, 43, 127
1, 87860, Note_off_c, 1, 77, 0
1, 87861, Note_on_c, 1, 76, 127
1, 88018, Note_off_c, 1, 76, 0
1, 88018, Note_on_c, 1, 46, 127
1, 88018, Note_on_c, 1, 55, 127
1, 88252, Note_on_c, 1, 74, 127
1, 88368, Note_off_c, 1, 74, 0
1, 88485, Note_off_c, 1, 43, 0
1, 88485, Note_off_c, 1, 46, 0
1, 88485, Note_off_c, 1, 55, 0
1, 88486, Note_on_c, 1, 44, 127
1, 88486, Note_on_c, 1, 48, 127
1, 88486, Note_on_c, 1, 77, 127
1, 88486, Note_on_c, 1, 53, 127
1, 88955, Note_off_c, 1, 44, 0
1, 88955, Note_off_c, 1, 48, 0
1, 88955, Note_off_c, 1, 77, 0
1, 88956, Note_on_c, 1, 67, 127
1, 88956, Note_on_c, 1, 46, 127
1, 89164, Note_on_c, 1, 73, 127
1, 89190, Note_off_c, 1, 67, 0
1, 89281, Note_off_c, 1, 73, 0
1, 89296, Note_on_c, 1, 72, 127
1, 89412, Note_off_c, 1, 72, 0
1, 89425, Note_off_c, 1, 46, 0
1, 89426, Note_on_c, 1, 70, 127
1, 89660, Note_off_c, 1, 70, 0
1, 89661, Note_on_c, 1, 68, 127
1, 89894, Note_off_c, 1, 53, 0
1, 89895, Note_off_c, 1, 68, 0
1, 89896, Note_on_c, 1, 52, 127
1, 90250, Note_on_c, 1, 65, 127
1, 90354, Note_off_c, 1, 65, 0
1, 90366, Note_off_c, 1, 52, 0
1, 90367, Note_on_c, 1, 65, 127
1, 90367, Note_on_c, 1, 53, 127
1, 90837, Note_on_c, 1, 48, 127
1, 91306, Note_off_c, 1, 48, 0
1, 91307, Note_on_c, 1, 41, 127
1, 91567, Note_off_c, 1, 65, 0
1, 91775, Note_off_c, 1, 53, 0
1, 91776, Note_off_c, 1, 41, 0
1, 91793, Note_on_c, 1, 68, 127
1, 91793, Note_on_c, 1, 48, 127
1, 91793, Note_on_c, 1, 51, 127
1, 92262, Note_off_c, 1, 68, 0
1, 92263, Note_on_c, 1, 66, 127
1, 92263, Note_on_c, 1, 56, 127
1, 92321, Note_off_c, 1, 66, 0
1, 92322, Note_on_c, 1, 65, 127
1, 92380, Note_off_c, 1, 65, 0
1, 92499, Note_on_c, 1, 63, 127
1, 92733, Note_off_c, 1, 48, 0
1, 92968, Note_off_c, 1, 63, 0
1, 93201, Note_off_c, 1, 51, 0
1, 93203, Note_on_c, 1, 49, 127
1, 93438, Note_off_c, 1, 56, 0
1, 93438, Note_on_c, 1, 54, 127
1, 93672, Note_off_c, 1, 54, 0
1, 93673, Note_on_c, 1, 53, 127
1, 93907, Note_off_c, 1, 49, 0
1, 94613, Note_on_c, 1, 73, 127
1, 94613, Note_on_c, 1, 46, 127
1, 94847, Note_off_c, 1, 73, 0
1, 94848, Note_off_c, 1, 53, 0
1, 94848, Note_on_c, 1, 75, 127
1, 94848, Note_on_c, 1, 55, 127
1, 94964, Note_off_c, 1, 75, 0
1, 94965, Note_on_c, 1, 70, 127
1, 95078, Note_off_c, 1, 46, 0
1, 95082, Note_off_c, 1, 55, 0
1, 95082, Note_off_c, 1, 70, 0
1, 95083, Note_on_c, 1, 73, 127
1, 95083, Note_on_c, 1, 56, 127
1, 95160, Note_off_c, 1, 73, 0
1, 95161, Note_on_c, 1, 72, 127
1, 95238, Note_off_c, 1, 72, 0
1, 95551, Note_on_c, 1, 44, 127
1, 95863, Note_on_c, 1, 70, 127
1, 95940, Note_off_c, 1, 70, 0
1, 96018, Note_off_c, 1, 44, 0
1, 96019, Note_on_c, 1, 51, 127
1, 96488, Note_off_c, 1, 56, 0
1, 96489, Note_on_c, 1, 55, 127
1, 96723, Note_off_c, 1, 51, 0
1, 96724, Note_on_c, 1, 53, 127
1, 96958, Note_off_c, 1, 53, 0
1, 97194, Note_on_c, 1, 49, 127
1, 97428, Note_off_c, 1, 55, 0
1, 97428, Note_off_c, 1, 49, 0
1, 97429, Note_on_c, 1, 75, 127
1, 97429, Note_on_c, 1, 48, 127
1, 97429, Note_on_c, 1, 54, 127
1, 97663, Note_off_c, 1, 75, 0
1, 97663, Note_off_c, 1, 48, 0
1, 97664, Note_on_c, 1, 77, 127
1, 97664, Note_on_c, 1, 46, 127
1, 97780, Note_off_c, 1, 77, 0
1, 97781, Note_on_c, 1, 78, 127
1, 97894, Note_off_c, 1, 54, 0
1, 97898, Note_off_c, 1, 46, 0
1, 97898, Note_off_c, 1, 78, 0
1, 97899, Note_on_c, 1, 77, 127
1, 97899, Note_on_c, 1, 48, 127
1, 97899, Note_on_c, 1, 45, 127
1, 98133, Note_off_c, 1, 77, 0
1, 98134, Note_on_c, 1, 75, 127
1, 98368, Note_off_c, 1, 48, 0
1, 98368, Note_off_c, 1, 75, 0
1, 98369, Note_on_c, 1, 73, 127
1, 98369, Note_on_c, 1, 53, 127
1, 98603, Note_off_c, 1, 73, 0
1, 98721, Note_on_c, 1, 72, 127
1, 98837, Note_off_c, 1, 45, 0
1, 98837, Note_off_c, 1, 72, 0
1, 98838, Note_on_c, 1, 46, 127
1, 99072, Note_off_c, 1, 53, 0
1, 99073, Note_on_c, 1, 51, 127
1, 99307, Note_off_c, 1, 51, 0
1, 99308, Note_on_c, 1, 49, 127
1, 99542, Note_off_c, 1, 49, 0
1, 99777, Note_off_c, 1, 46, 0
1, 100013, Note_on_c, 1, 44, 127
1, 100247, Note_off_c, 1, 44, 0
1, 100248, Note_on_c, 1, 43, 127
1, 101539, Note_on_c, 1, 70, 127
1, 101654, Note_off_c, 1, 43, 0
1, 101655, Note_off_c, 1, 70, 0
1, 102831, Note_on_c, 1, 43, 127
1, 103065, Note_off_c, 1, 43, 0
1, 103066, Note_on_c, 1, 77, 127
1, 103066, Note_on_c, 1, 45, 127
1, 103066, Note_on_c, 1, 48, 127
1, 103300, Note_off_c, 1, 77, 0
1, 103301, Note_on_c, 1, 79, 127
1, 103417, Note_off_c, 1, 79, 0
1, 103418, Note_on_c, 1, 80, 127
1, 103534, Note_off_c, 1, 45, 0
1, 103534, Note_off_c, 1, 48, 0
1, 103534, Note_off_c, 1, 80, 0
1, 103535, Note_on_c, 1, 79, 127
1, 103535, Note_on_c, 1, 47, 127
1, 103535, Note_on_c, 1, 50, 127
1, 103769, Note_off_c, 1, 79, 0
1, 103770, Note_on_c, 1, 77, 127
1, 104004, Note_off_c, 1, 47, 0
1, 104004, Note_off_c, 1, 50, 0
1, 104004, Note_off_c, 1, 77, 0
1, 104005, Note_on_c, 1, 75, 127
1, 104005, Note_on_c, 1, 51, 127
1, 104005, Note_on_c, 1, 48, 127
1, 104239, Note_off_c, 1, 75, 0
1, 104240, Note_on_c, 1, 77, 127
1, 104356, Note_off_c, 1, 77, 0
1, 104357, Note_on_c, 1, 74, 127
1, 104473, Note_off_c, 1, 51, 0
1, 104473, Note_off_c, 1, 48, 0
1, 104473, Note_off_c, 1, 74, 0
1, 104474, Note_on_c, 1, 79, 127
1, 104474, Note_on_c, 1, 50, 127
1, 104474, Note_on_c, 1, 41, 127
1, 104566, Note_off_c, 1, 79, 0
1, 104566, Note_on_c, 1, 77, 127
1, 104658, Note_off_c, 1, 77, 0
1, 104943, Note_off_c, 1, 50, 0
1, 104943, Note_off_c, 1, 41, 0
1, 104944, Note_on_c, 1, 39, 127
1, 104944, Note_on_c, 1, 48, 127
1, 105179, Note_on_c, 1, 80, 127
1, 105413, Note_off_c, 1, 39, 0
1, 105413, Note_off_c, 1, 80, 0
1, 105414, Note_on_c, 1, 38, 127
1, 105648, Note_off_c, 1, 48, 0
1, 105649, Note_on_c, 1, 47, 127
1, 105879, Note_off_c, 1, 38, 0
1, 105883, Note_off_c, 1, 47, 0
1, 105884, Note_on_c, 1, 36, 127
1, 106119, Note_on_c, 1, 75, 127
1, 106353, Note_off_c, 1, 36, 0
1, 106353, Note_off_c, 1, 75, 0
1, 106354, Note_on_c, 1, 43, 127
1, 106511, Note_on_c, 1, 74, 127
1, 106588, Note_off_c, 1, 74, 0
1, 107058, Note_on_c, 1, 72, 127
1, 107292, Note_off_c, 1, 43, 0
1, 107292, Note_off_c, 1, 72, 0
1, 107293, Note_on_c, 1, 48, 127
1, 107293, Note_on_c, 1, 72, 127
1, 107842, Note_on_c, 1, 55, 127
1, 108397, Note_off_c, 1, 55, 0
1, 108443, Note_on_c, 1, 60, 127
1, 108701, Note_off_c, 1, 48, 0
1, 109103, Note_off_c, 1, 72, 0
1, 109943, Note_off_c, 1, 60, 0
1, 110600, Note_on_c, 1, 68, 127
1, 110600, Note_on_c, 1, 53, 127
1, 110907, Note_off_c, 1, 68, 0
1, 110913, Note_on_c, 1, 65, 127
1, 110994, Note_off_c, 1, 65, 0
1, 111000, Note_on_c, 1, 77, 127
1, 111161, Note_off_c, 1, 53, 0
1, 111201, Note_on_c, 1, 55, 127
1, 111508, Note_off_c, 1, 77, 0
1, 111514, Note_on_c, 1, 75, 127
1, 111595, Note_off_c, 1, 75, 0
1, 111601, Note_on_c, 1, 73, 127
1, 111762, Note_off_c, 1, 55, 0
1, 111795, Note_off_c, 1, 73, 0
1, 111801, Note_on_c, 1, 72, 127
1, 111801, Note_on_c, 1, 56, 127
1, 112108, Note_off_c, 1, 72, 0
1, 112114, Note_on_c, 1, 73, 127
1, 112195, Note_off_c, 1, 56, 0
1, 112195, Note_off_c, 1, 73, 0
1, 112201, Note_on_c, 1, 51, 127
1, 112201, Note_on_c, 1, 70, 127
1, 112395, Note_off_c, 1, 51, 0
1, 112395, Note_off_c, 1, 70, 0
1, 112401, Note_on_c, 1, 72, 127
1, 112401, Note_on_c, 1, 44, 127
1, 112708, Note_off_c, 1, 72, 0
1, 112714, Note_on_c, 1, 68, 127
1, 112795, Note_off_c, 1, 68, 0
1, 112801, Note_on_c, 1, 75, 127
1, 112962, Note_off_c, 1, 44, 0
1, 112995, Note_off_c, 1, 75, 0
1, 113001, Note_on_c, 1, 72, 127
1, 113001, Note_on_c, 1, 56, 127
1, 113308, Note_off_c, 1, 72, 0
1, 113314, Note_on_c, 1, 68, 127
1, 113395, Note_off_c, 1, 68, 0
1, 113401, Note_on_c, 1, 80, 127
1, 113562, Note_off_c, 1, 56, 0
1, 113602, Note_on_c, 1, 58, 127
1, 113909, Note_off_c, 1, 80, 0
1, 113915, Note_on_c, 1, 79, 127
1, 113996, Note_off_c, 1, 79, 0
1, 114002, Note_on_c, 1, 77, 127
1, 114163, Note_off_c, 1, 58, 0
1, 114196, Note_off_c, 1, 77, 0
1, 114202, Note_on_c, 1, 76, 127
1, 114202, Note_on_c, 1, 60, 127
1, 114509, Note_off_c, 1, 76, 0
1, 114515, Note_on_c, 1, 77, 127
1, 114596, Note_off_c, 1, 60, 0
1, 114596, Note_off_c, 1, 77, 0
1, 114602, Note_on_c, 1, 55, 127
1, 114602, Note_on_c, 1, 74, 127
1, 114796, Note_off_c, 1, 55, 0
1, 114796, Note_off_c, 1, 74, 0
1, 114802, Note_on_c, 1, 76, 127
1, 114802, Note_on_c, 1, 48, 127
1, 115109, Note_off_c, 1, 76, 0
1, 115115, Note_on_c, 1, 72, 127
1, 115196, Note_off_c, 1, 72, 0
1, 115202, Note_on_c, 1, 79, 127
1, 115363, Note_off_c, 1, 48, 0
1, 115396, Note_off_c, 1, 79, 0
1, 115402, Note_on_c, 1, 70, 127
1, 115402, Note_on_c, 1, 50, 127
1, 115709, Note_off_c, 1, 70, 0
1, 115715, Note_on_c, 1, 72, 127
1, 115796, Note_off_c, 1, 72, 0
1, 115802, Note_on_c, 1, 68, 127
1, 115963, Note_off_c, 1, 50, 0
1, 115996, Note_off_c, 1, 68, 0
1, 116002, Note_on_c, 1, 70, 127
1, 116002, Note_on_c, 1, 52, 127
1, 116309, Note_off_c, 1, 70, 0
1, 116315, Note_on_c, 1, 73, 127
1, 116396, Note_off_c, 1, 73, 0
1, 116402, Note_on_c, 1, 72, 127
1, 116563, Note_off_c, 1, 52, 0
1, 116596, Note_off_c, 1, 72, 0
1, 116602, Note_on_c, 1, 68, 127
1, 116602, Note_on_c, 1, 53, 127
1, 116909, Note_off_c, 1, 68, 0
1, 116915, Note_on_c, 1, 70, 127
1, 116996, Note_off_c, 1, 53, 0
1, 116996, Note_off_c, 1, 70, 0
1, 117002, Note_on_c, 1, 48, 127
1, 117002, Note_on_c, 1, 67, 127
1, 117196, Note_off_c, 1, 48, 0
1, 117196, Note_off_c, 1, 67, 0
1, 117202, Note_on_c, 1, 68, 127
1, 117202, Note_on_c, 1, 41, 127
1, 117509, Note_off_c, 1, 68, 0
1, 117515, Note_on_c, 1, 65, 127
1, 117596, Note_off_c, 1, 65, 0
1, 117602, Note_on_c, 1, 77, 127
1, 117763, Note_off_c, 1, 41, 0
1, 117796, Note_off_c, 1, 77, 0
1, 117802, Note_on_c, 1, 68, 127
1, 117802, Note_on_c, 1, 48, 127
1, 118109, Note_off_c, 1, 68, 0
1, 118115, Note_on_c, 1, 70, 127
1, 118196, Note_off_c, 1, 70, 0
1, 118202, Note_on_c, 1, 67, 127
1, 118363, Note_off_c, 1, 48, 0
1, 118396, Note_off_c, 1, 67, 0
1, 118402, Note_on_c, 1, 68, 127
1, 118402, Note_on_c, 1, 50, 127
1, 118709, Note_off_c, 1, 68, 0
1, 118715, Note_on_c, 1, 72, 127
1, 118796, Note_off_c, 1, 72, 0
1, 118802, Note_on_c, 1, 70, 127
1, 118963, Note_off_c, 1, 50, 0
1, 118996, Note_off_c, 1, 70, 0
1, 119002, Note_on_c, 1, 67, 127
1, 119002, Note_on_c, 1, 51, 127
1, 119309, Note_off_c, 1, 67, 0
1, 119315, Note_on_c, 1, 68, 127
1, 119396, Note_off_c, 1, 51, 0
1, 119396, Note_off_c, 1, 68, 0
1, 119402, Note_on_c, 1, 46, 127
1, 119402, Note_on_c, 1, 65, 127
1, 119596, Note_off_c, 1, 46, 0
1, 119596, Note_off_c, 1, 65, 0
1, 119602, Note_on_c, 1, 67, 127
1, 119602, Note_on_c, 1, 39, 127
1, 119909, Note_off_c, 1, 67, 0
1, 119915, Note_on_c, 1, 63, 127
1, 119996, Note_off_c, 1, 63, 0
1, 120002, Note_on_c, 1, 75, 127
1, 120163, Note_off_c, 1, 39, 0
1, 120203, Note_on_c, 1, 41, 127
1, 120510, Note_off_c, 1, 75, 0
1, 120516, Note_on_c, 1, 73, 127
1, 120597, Note_off_c, 1, 73, 0
1, 120603, Note_on_c, 1, 72, 127
1, 120764, Note_off_c, 1, 41, 0
1, 120797, Note_off_c, 1, 72, 0
1, 120803, Note_on_c, 1, 73, 127
1, 120803, Note_on_c, 1, 43, 127
1, 121110, Note_off_c, 1, 73, 0
1, 121116, Note_on_c, 1, 63, 127
1, 121197, Note_off_c, 1, 63, 0
1, 121364, Note_off_c, 1, 43, 0
1, 121404, Note_on_c, 1, 44, 127
1, 121717, Note_on_c, 1, 72, 127
1, 121798, Note_off_c, 1, 44, 0
1, 121798, Note_off_c, 1, 72, 0
1, 121804, Note_on_c, 1, 51, 127
1, 121804, Note_on_c, 1, 70, 127
1, 121998, Note_off_c, 1, 51, 0
1, 121998, Note_off_c, 1, 70, 0
1, 122004, Note_on_c, 1, 72, 127
1, 122004, Note_on_c, 1, 56, 127
1, 122311, Note_off_c, 1, 72, 0
1, 122317, Note_on_c, 1, 63, 127
1, 122398, Note_off_c, 1, 63, 0
1, 122565, Note_off_c, 1, 56, 0
1, 122605, Note_on_c, 1, 49, 127
1, 122918, Note_on_c, 1, 77, 127
1, 122999, Note_off_c, 1, 77, 0
1, 123005, Note_on_c, 1, 73, 127
1, 123166, Note_off_c, 1, 49, 0
1, 123199, Note_off_c, 1, 73, 0
1, 123205, Note_on_c, 1, 70, 127
1, 123205, Note_on_c, 1, 37, 127
1, 123512, Note_off_c, 1, 70, 0
1, 123518, Note_on_c, 1, 73, 127
1, 123599, Note_off_c, 1, 73, 0
1, 123766, Note_off_c, 1, 37, 0
1, 123805, Note_on_c, 1, 67, 127
1, 123805, Note_on_c, 1, 39, 127
1, 124112, Note_off_c, 1, 67, 0
1, 124118, Note_on_c, 1, 68, 127
1, 124199, Note_off_c, 1, 39, 0
1, 124199, Note_off_c, 1, 68, 0
1, 124205, Note_on_c, 1, 46, 127
1, 124205, Note_on_c, 1, 65, 127
1, 124399, Note_off_c, 1, 46, 0
1, 124399, Note_off_c, 1, 65, 0
1, 124405, Note_on_c, 1, 67, 127
1, 124405, Note_on_c, 1, 51, 127
1, 124712, Note_off_c, 1, 67, 0
1, 124718, Note_on_c, 1, 63, 127
1, 124799, Note_off_c, 1, 63, 0
1, 124805, Note_on_c, 1, 75, 127
1, 124966, Note_off_c, 1, 51, 0
1, 124999, Note_off_c, 1, 75, 0
1, 125005, Note_on_c, 1, 68, 127
1, 125005, Note_on_c, 1, 53, 127
1, 125312, Note_off_c, 1, 68, 0
1, 125318, Note_on_c, 1, 65, 127
1, 125399, Note_off_c, 1, 65, 0
1, 125405, Note_on_c, 1, 75, 127
1, 125566, Note_off_c, 1, 53, 0
1, 125599, Note_off_c, 1, 75, 0
1, 125605, Note_on_c, 1, 70, 127
1, 125605, Note_on_c, 1, 55, 127
1, 125912, Note_off_c, 1, 70, 0
1, 125918, Note_on_c, 1, 67, 127
1, 125999, Note_off_c, 1, 67, 0
1, 126005, Note_on_c, 1, 75, 127
1, 126166, Note_off_c, 1, 55, 0
1, 126199, Note_off_c, 1, 75, 0
1, 126205, Note_on_c, 1, 72, 127
1, 126205, Note_on_c, 1, 56, 127
1, 126512, Note_off_c, 1, 72, 0
1, 126518, Note_on_c, 1, 68, 127
1, 126599, Note_off_c, 1, 68, 0
1, 126605, Note_on_c, 1, 75, 127
1, 126766, Note_off_c, 1, 56, 0
1, 126799, Note_off_c, 1, 75, 0
1, 126805, Note_on_c, 1, 67, 127
1, 126805, Note_on_c, 1, 51, 127
1, 127112, Note_off_c, 1, 67, 0
1, 127118, Note_on_c, 1, 63, 127
1, 127199, Note_off_c, 1, 63, 0
1, 127205, Note_on_c, 1, 75, 127
1, 127366, Note_off_c, 1, 51, 0
1, 127399, Note_off_c, 1, 75, 0
1, 127405, Note_on_c, 1, 68, 127
1, 127405, Note_on_c, 1, 53, 127
1, 127712, Note_off_c, 1, 68, 0
1, 127718, Note_on_c, 1, 65, 127
1, 127799, Note_off_c, 1, 65, 0
1, 127805, Note_on_c, 1, 75, 127
1, 127966, Note_off_c, 1, 53, 0
1, 127999, Note_off_c, 1, 75, 0
1, 128005, Note_on_c, 1, 70, 127
1, 128005, Note_on_c, 1, 55, 127
1, 128312, Note_off_c, 1, 70, 0
1, 128318, Note_on_c, 1, 67, 127
1, 128399, Note_off_c, 1, 67, 0
1, 128405, Note_on_c, 1, 75, 127
1, 128566, Note_off_c, 1, 55, 0
1, 128599, Note_off_c, 1, 75, 0
1, 128605, Note_on_c, 1, 72, 127
1, 128605, Note_on_c, 1, 56, 127
1, 128912, Note_off_c, 1, 72, 0
1, 128918, Note_on_c, 1, 68, 127
1, 128999, Note_off_c, 1, 68, 0
1, 129005, Note_on_c, 1, 75, 127
1, 129166, Note_off_c, 1, 56, 0
1, 129199, Note_off_c, 1, 75, 0
1, 129205, Note_on_c, 1, 67, 127
1, 129205, Note_on_c, 1, 51, 127
1, 129512, Note_off_c, 1, 67, 0
1, 129518, Note_on_c, 1, 63, 127
1, 129599, Note_off_c, 1, 51, 0
1, 129599, Note_off_c, 1, 63, 0
1, 129605, Note_on_c, 1, 49, 127
1, 129605, Note_on_c, 1, 70, 127
1, 129799, Note_off_c, 1, 49, 0
1, 129799, Note_off_c, 1, 70, 0
1, 129805, Note_on_c, 1, 63, 127
1, 129805, Note_on_c, 1, 48, 127
1, 130112, Note_off_c, 1, 63, 0
1, 130118, Note_on_c, 1, 60, 127
1, 130199, Note_off_c, 1, 48, 0
1, 130199, Note_off_c, 1, 60, 0
1, 130205, Note_on_c, 1, 53, 127
1, 130205, Note_on_c, 1, 68, 127
1, 130399, Note_off_c, 1, 53, 0
1, 130399, Note_off_c, 1, 68, 0
1, 130405, Note_on_c, 1, 61, 127
1, 130405, Note_on_c, 1, 46, 127
1, 130712, Note_off_c, 1, 61, 0
1, 130718, Note_on_c, 1, 58, 127
1, 130799, Note_off_c, 1, 46, 0
1, 130799, Note_off_c, 1, 58, 0
1, 130805, Note_on_c, 1, 51, 127
1, 130805, Note_on_c, 1, 67, 127
1, 130999, Note_off_c, 1, 51, 0
1, 130999, Note_off_c, 1, 67, 0
1, 131005, Note_on_c, 1, 44, 127
1, 131005, Note_on_c, 1, 68, 127
1, 131299, Note_off_c, 1, 44, 0
1, 131305, Note_on_c, 1, 51, 127
1, 131399, Note_off_c, 1, 51, 0
1, 131405, Note_on_c, 1, 48, 127
1, 131599, Note_off_c, 1, 48, 0
1, 131999, Note_off_c, 1, 68, 0
1, 132005, Note_on_c, 1, 70, 127
1, 132199, Note_off_c, 1, 70, 0
1, 132205, Note_on_c, 1, 67, 127
1, 132205, Note_on_c, 1, 51, 127
1, 132512, Note_off_c, 1, 67, 0
1, 132518, Note_on_c, 1, 63, 127
1, 132599, Note_off_c, 1, 63, 0
1, 132605, Note_on_c, 1, 75, 127
1, 132766, Note_off_c, 1, 51, 0
1, 132806, Note_on_c, 1, 45, 127
1, 133113, Note_off_c, 1, 75, 0
1, 133119, Note_on_c, 1, 73, 127
1, 133200, Note_off_c, 1, 73, 0
1, 133206, Note_on_c, 1, 72, 127
1, 133367, Note_off_c, 1, 45, 0
1, 133400, Note_off_c, 1, 72, 0
1, 133406, Note_on_c, 1, 73, 127
1, 133406, Note_on_c, 1, 46, 127
1, 133713, Note_off_c, 1, 73, 0
1, 133719, Note_on_c, 1, 75, 127
1, 133800, Note_off_c, 1, 46, 0
1, 133800, Note_off_c, 1, 75, 0
1, 133806, Note_on_c, 1, 53, 127
1, 133806, Note_on_c, 1, 72, 127
1, 134000, Note_off_c, 1, 53, 0
1, 134000, Note_off_c, 1, 72, 0
1, 134006, Note_on_c, 1, 73, 127
1, 134006, Note_on_c, 1, 58, 127
1, 134313, Note_off_c, 1, 73, 0
1, 134319, Note_on_c, 1, 70, 127
1, 134400, Note_off_c, 1, 70, 0
1, 134567, Note_off_c, 1, 58, 0
1, 134606, Note_on_c, 1, 66, 127
1, 134606, Note_on_c, 1, 51, 127
1, 134913, Note_off_c, 1, 66, 0
1, 134919, Note_on_c, 1, 63, 127
1, 135000, Note_off_c, 1, 63, 0
1, 135006, Note_on_c, 1, 73, 127
1, 135167, Note_off_c, 1, 51, 0
1, 135207, Note_on_c, 1, 39, 127
1, 135514, Note_off_c, 1, 73, 0
1, 135520, Note_on_c, 1, 72, 127
1, 135601, Note_off_c, 1, 72, 0
1, 135607, Note_on_c, 1, 70, 127
1, 135768, Note_off_c, 1, 39, 0
1, 135801, Note_off_c, 1, 70, 0
1, 135807, Note_on_c, 1, 69, 127
1, 135807, Note_on_c, 1, 41, 127
1, 136114, Note_off_c, 1, 69, 0
1, 136120, Note_on_c, 1, 70, 127
1, 136201, Note_off_c, 1, 41, 0
1, 136201, Note_off_c, 1, 70, 0
1, 136207, Note_on_c, 1, 48, 127
1, 136207, Note_on_c, 1, 67, 127
1, 136401, Note_off_c, 1, 48, 0
1, 136401, Note_off_c, 1, 67, 0
1, 136407, Note_on_c, 1, 69, 127
1, 136407, Note_on_c, 1, 53, 127
1, 136714, Note_off_c, 1, 69, 0
1, 136720, Note_on_c, 1, 65, 127
1, 136801, Note_off_c, 1, 65, 0
1, 136807, Note_on_c, 1, 77, 127
1, 136968, Note_off_c, 1, 53, 0
1, 137001, Note_off_c, 1, 77, 0
1, 137007, Note_on_c, 1, 70, 127
1, 137007, Note_on_c, 1, 55, 127
1, 137314, Note_off_c, 1, 70, 0
1, 137320, Note_on_c, 1, 67, 127
1, 137401, Note_off_c, 1, 67, 0
1, 137407, Note_on_c, 1, 77, 127
1, 137568, Note_off_c, 1, 55, 0
1, 137601, Note_off_c, 1, 77, 0
1, 137607, Note_on_c, 1, 72, 127
1, 137607, Note_on_c, 1, 57, 127
1, 137914, Note_off_c, 1, 72, 0
1, 137920, Note_on_c, 1, 69, 127
1, 138001, Note_off_c, 1, 69, 0
1, 138007, Note_on_c, 1, 77, 127
1, 138168, Note_off_c, 1, 57, 0
1, 138201, Note_off_c, 1, 77, 0
1, 138207, Note_on_c, 1, 73, 127
1, 138207, Note_on_c, 1, 58, 127
1, 138514, Note_off_c, 1, 73, 0
1, 138520, Note_on_c, 1, 70, 127
1, 138601, Note_off_c, 1, 70, 0
1, 138607, Note_on_c, 1, 77, 127
1, 138768, Note_off_c, 1, 58, 0
1, 138801, Note_off_c, 1, 77, 0
1, 138807, Note_on_c, 1, 69, 127
1, 138807, Note_on_c, 1, 53, 127
1, 139114, Note_off_c, 1, 69, 0
1, 139120, Note_on_c, 1, 65, 127
1, 139201, Note_off_c, 1, 65, 0
1, 139207, Note_on_c, 1, 77, 127
1, 139368, Note_off_c, 1, 53, 0
1, 139401, Note_off_c, 1, 77, 0
1, 139407, Note_on_c, 1, 70, 127
1, 139407, Note_on_c, 1, 55, 127
1, 139714, Note_off_c, 1, 70, 0
1, 139720, Note_on_c, 1, 67, 127
1, 139801, Note_off_c, 1, 67, 0
1, 139807, Note_on_c, 1, 77, 127
1, 139968, Note_off_c, 1, 55, 0
1, 140001, Note_off_c, 1, 77, 0
1, 140007, Note_on_c, 1, 72, 127
1, 140007, Note_on_c, 1, 57, 127
1, 140314, Note_off_c, 1, 72, 0
1, 140320, Note_on_c, 1, 69, 127
1, 140401, Note_off_c, 1, 69, 0
1, 140407, Note_on_c, 1, 77, 127
1, 140568, Note_off_c, 1, 57, 0
1, 140601, Note_off_c, 1, 77, 0
1, 140607, Note_on_c, 1, 73, 127
1, 140607, Note_on_c, 1, 58, 127
1, 140914, Note_off_c, 1, 73, 0
1, 140920, Note_on_c, 1, 70, 127
1, 141001, Note_off_c, 1, 70, 0
1, 141007, Note_on_c, 1, 77, 127
1, 141168, Note_off_c, 1, 58, 0
1, 141201, Note_off_c, 1, 77, 0
1, 141207, Note_on_c, 1, 69, 127
1, 141207, Note_on_c, 1, 53, 127
1, 141514, Note_off_c, 1, 69, 0
1, 141520, Note_on_c, 1, 65, 127
1, 141601, Note_off_c, 1, 53, 0
1, 141601, Note_off_c, 1, 65, 0
1, 141607, Note_on_c, 1, 51, 127
1, 141607, Note_on_c, 1, 72, 127
1, 141801, Note_off_c, 1, 51, 0
1, 141801, Note_off_c, 1, 72, 0
1, 141807, Note_on_c, 1, 65, 127
1, 141807, Note_on_c, 1, 49, 127
1, 142114, Note_off_c, 1, 65, 0
1, 142120, Note_on_c, 1, 61, 127
1, 142201, Note_off_c, 1, 49, 0
1, 142201, Note_off_c, 1, 61, 0
1, 142207, Note_on_c, 1, 54, 127
1, 142207, Note_on_c, 1, 70, 127
1, 142401, Note_off_c, 1, 54, 0
1, 142401, Note_off_c, 1, 70, 0
1, 142407, Note_on_c, 1, 63, 127
1, 142407, Note_on_c, 1, 48, 127
1, 142714, Note_off_c, 1, 63, 0
1, 142720, Note_on_c, 1, 60, 127
1, 142801, Note_off_c, 1, 48, 0
1, 142801, Note_off_c, 1, 60, 0
1, 142807, Note_on_c, 1, 53, 127
1, 142807, Note_on_c, 1, 69, 127
1, 143001, Note_off_c, 1, 53, 0
1, 143001, Note_off_c, 1, 69, 0
1, 143007, Note_on_c, 1, 46, 127
1, 143007, Note_on_c, 1, 70, 127
1, 143301, Note_off_c, 1, 46, 0
1, 143307, Note_on_c, 1, 53, 127
1, 143401, Note_off_c, 1, 53, 0
1, 143407, Note_on_c, 1, 49, 127
1, 143601, Note_off_c, 1, 49, 0
1, 143607, Note_on_c, 1, 58, 127
1, 144001, Note_off_c, 1, 70, 0
1, 144001, Note_off_c, 1, 58, 0
1, 144007, Note_on_c, 1, 56, 127
1, 144007, Note_on_c, 1, 72, 127
1, 144201, Note_off_c, 1, 56, 0
1, 144201, Note_off_c, 1, 72, 0
1, 144207, Note_on_c, 1, 73, 127
1, 144207, Note_on_c, 1, 55, 127
1, 144514, Note_off_c, 1, 73, 0
1, 144520, Note_on_c, 1, 75, 127
1, 144601, Note_off_c, 1, 75, 0
1, 144607, Note_on_c, 1, 72, 127
1, 144768, Note_off_c, 1, 55, 0
1, 144801, Note_off_c, 1, 72, 0
1, 144807, Note_on_c, 1, 73, 127
1, 144807, Note_on_c, 1, 51, 127
1, 145114, Note_off_c, 1, 73, 0
1, 145120, Note_on_c, 1, 77, 127
1, 145201, Note_off_c, 1, 77, 0
1, 145207, Note_on_c, 1, 75, 127
1, 145368, Note_off_c, 1, 51, 0
1, 145401, Note_off_c, 1, 75, 0
1, 145407, Note_on_c, 1, 72, 127
1, 145407, Note_on_c, 1, 56, 127
1, 145714, Note_off_c, 1, 72, 0
1, 145720, Note_on_c, 1, 73, 127
1, 145801, Note_off_c, 1, 56, 0
1, 145801, Note_off_c, 1, 73, 0
1, 145807, Note_on_c, 1, 51, 127
1, 145807, Note_on_c, 1, 70, 127
1, 146001, Note_off_c, 1, 51, 0
1, 146001, Note_off_c, 1, 70, 0
1, 146007, Note_on_c, 1, 72, 127
1, 146007, Note_on_c, 1, 44, 127
1, 146314, Note_off_c, 1, 72, 0
1, 146320, Note_on_c, 1, 68, 127
1, 146401, Note_off_c, 1, 68, 0
1, 146407, Note_on_c, 1, 80, 127
1, 146568, Note_off_c, 1, 44, 0
1, 146601, Note_off_c, 1, 80, 0
1, 146607, Note_on_c, 1, 70, 127
1, 146607, Note_on_c, 1, 55, 127
1, 146914, Note_off_c, 1, 70, 0
1, 146920, Note_on_c, 1, 72, 127
1, 147001, Note_off_c, 1, 72, 0
1, 147007, Note_on_c, 1, 68, 127
1, 147168, Note_off_c, 1, 55, 0
1, 147201, Note_off_c, 1, 68, 0
1, 147207, Note_on_c, 1, 70, 127
1, 147207, Note_on_c, 1, 52, 127
1, 147514, Note_off_c, 1, 70, 0
1, 147520, Note_on_c, 1, 73, 127
1, 147601, Note_off_c, 1, 73, 0
1, 147607, Note_on_c, 1, 72, 127
1, 147768, Note_off_c, 1, 52, 0
1, 147801, Note_off_c, 1, 72, 0
1, 147807, Note_on_c, 1, 68, 127
1, 147807, Note_on_c, 1, 53, 127
1, 148114, Note_off_c, 1, 68, 0
1, 148120, Note_on_c, 1, 70, 127
1, 148201, Note_off_c, 1, 53, 0
1, 148201, Note_off_c, 1, 70, 0
1, 148207, Note_on_c, 1, 48, 127
1, 148207, Note_on_c, 1, 67, 127
1, 148401, Note_off_c, 1, 48, 0
1, 148401, Note_off_c, 1, 67, 0
1, 148407, Note_on_c, 1, 68, 127
1, 148407, Note_on_c, 1, 41, 127
1, 148714, Note_off_c, 1, 68, 0
1, 148720, Note_on_c, 1, 65, 127
1, 148801, Note_off_c, 1, 65, 0
1, 148807, Note_on_c, 1, 77, 127
1, 148968, Note_off_c, 1, 41, 0
1, 149008, Note_on_c, 1, 43, 127
1, 149315, Note_off_c, 1, 77, 0
1, 149321, Note_on_c, 1, 75, 127
1, 149402, Note_off_c, 1, 75, 0
1, 149408, Note_on_c, 1, 73, 127
1, 149569, Note_off_c, 1, 43, 0
1, 149602, Note_off_c, 1, 73, 0
1, 149608, Note_on_c, 1, 72, 127
1, 149608, Note_on_c, 1, 44, 127
1, 149915, Note_off_c, 1, 72, 0
1, 149921, Note_on_c, 1, 68, 127
1, 150002, Note_off_c, 1, 68, 0
1, 150008, Note_on_c, 1, 80, 127
1, 150169, Note_off_c, 1, 44, 0
1, 150209, Note_on_c, 1, 46, 127
1, 150516, Note_off_c, 1, 80, 0
1, 150522, Note_on_c, 1, 79, 127
1, 150603, Note_off_c, 1, 79, 0
1, 150609, Note_on_c, 1, 77, 127
1, 150770, Note_off_c, 1, 46, 0
1, 150803, Note_off_c, 1, 77, 0
1, 150809, Note_on_c, 1, 76, 127
1, 150809, Note_on_c, 1, 48, 127
1, 151116, Note_off_c, 1, 76, 0
1, 151122, Note_on_c, 1, 72, 127
1, 151203, Note_off_c, 1, 48, 0
1, 151203, Note_off_c, 1, 72, 0
1, 151209, Note_on_c, 1, 46, 127
1, 151209, Note_on_c, 1, 79, 127
1, 151403, Note_off_c, 1, 46, 0
1, 151403, Note_off_c, 1, 79, 0
1, 151409, Note_on_c, 1, 72, 127
1, 151409, Note_on_c, 1, 44, 127
1, 151716, Note_off_c, 1, 72, 0
1, 151722, Note_on_c, 1, 68, 127
1, 151803, Note_off_c, 1, 44, 0
1, 151803, Note_off_c, 1, 68, 0
1, 151809, Note_on_c, 1, 49, 127
1, 151809, Note_on_c, 1, 77, 127
1, 152003, Note_off_c, 1, 49, 0
1, 152003, Note_off_c, 1, 77, 0
1, 152009, Note_on_c, 1, 70, 127
1, 152009, Note_on_c, 1, 43, 127
1, 152316, Note_off_c, 1, 70, 0
1, 152322, Note_on_c, 1, 67, 127
1, 152403, Note_off_c, 1, 43, 0
1, 152403, Note_off_c, 1, 67, 0
1, 152409, Note_on_c, 1, 48, 127
1, 152409, Note_on_c, 1, 76, 127
1, 152603, Note_off_c, 1, 48, 0
1, 152603, Note_off_c, 1, 76, 0
1, 152626, Note_on_c, 1, 41, 127
1, 152626, Note_on_c, 1, 77, 127
1, 152956, Note_off_c, 1, 41, 0
1, 152982, Note_on_c, 1, 48, 127
1, 153092, Note_off_c, 1, 48, 0
1, 153113, Note_on_c, 1, 44, 127
1, 153293, Note_off_c, 1, 44, 0
1, 153440, Note_on_c, 1, 53, 127
1, 153826, Note_off_c, 1, 77, 0
1, 155240, Note_off_c, 1, 53, 0
1, 155240, End_track
0, 0, End_of_file