0, 0, Header, 1, 1, 480
1, 0, Start_track
1, 0, Title_t, "Test"
1, 0, Tempo, 500000
1, 0, Instrument_name_t, "Church Organ"
1, 64, Note_on_c, 1, 68, 127
1, 64, Note_on_c, 1, 49, 127
1, 319, Note_on_c, 1, 66, 127
1, 563, Note_off_c, 1, 66, 0
1, 570, Note_on_c, 1, 64, 127
1, 825, Note_on_c, 1, 63, 127
1, 850, Note_off_c, 1, 64, 0
1, 1069, Note_off_c, 1, 63, 0
1, 1333, Note_on_c, 1, 61, 127
1, 1575, Note_off_c, 1, 61, 0
1, 1694, Note_off_c, 1, 68, 0
1, 1832, Note_on_c, 1, 73, 127
1, 2354, Note_on_c, 1, 71, 127
1, 2356, Note_off_c, 1, 73, 0
1, 2590, Note_off_c, 1, 71, 0
1, 2590, Note_on_c, 1, 69, 127
1, 3093, Note_off_c, 1, 69, 0
1, 3096, Note_on_c, 1, 56, 127
1, 3346, Note_off_c, 1, 56, 0
1, 3350, Note_on_c, 1, 54, 127
1, 3594, Note_off_c, 1, 54, 0
1, 3601, Note_on_c, 1, 52, 127
1, 3851, Note_off_c, 1, 52, 0
1, 3855, Note_off_c, 1, 49, 0
1, 3856, Note_on_c, 1, 51, 127
1, 4100, Note_off_c, 1, 51, 0
1, 5370, Note_on_c, 1, 59, 127
1, 5620, Note_off_c, 1, 59, 0
1, 5622, Note_on_c, 1, 57, 127
1, 6125, Note_off_c, 1, 57, 0
1, 6128, Note_on_c, 1, 75, 127
1, 6128, Note_on_c, 1, 56, 127
1, 6128, Note_on_c, 1, 48, 127
1, 6383, Note_on_c, 1, 73, 127
1, 6627, Note_off_c, 1, 73, 0
1, 6633, Note_on_c, 1, 72, 127
1, 6883, Note_off_c, 1, 72, 0
1, 6888, Note_on_c, 1, 70, 127
1, 7132, Note_off_c, 1, 70, 0
1, 7391, Note_on_c, 1, 68, 127
1, 7634, Note_off_c, 1, 68, 0
1, 7758, Note_off_c, 1, 75, 0
1, 7896, Note_on_c, 1, 80, 127
1, 8421, Note_off_c, 1, 80, 0
1, 8422, Note_on_c, 1, 78, 127
1, 8646, Note_off_c, 1, 78, 0
1, 8652, Note_off_c, 1, 56, 0
1, 8652, Note_off_c, 1, 48, 0
1, 8654, Note_on_c, 1, 76, 127
1, 8654, Note_on_c, 1, 68, 127
1, 8654, Note_on_c, 1, 73, 127
1, 8654, Note_on_c, 1, 61, 127
1, 8654, Note_on_c, 1, 49, 127
1, 9157, Note_off_c, 1, 76, 0
1, 9157, Note_off_c, 1, 68, 0
1, 9157, Note_off_c, 1, 73, 0
1, 9157, Note_off_c, 1, 61, 0
1, 9157, Note_off_c, 1, 49, 0
1, 9159, Note_on_c, 1, 63, 127
1, 9159, Note_on_c, 1, 56, 127
1, 9159, Note_on_c, 1, 68, 127
1, 9304, Note_on_c, 1, 72, 127
1, 9409, Note_off_c, 1, 63, 0
1, 9412, Note_on_c, 1, 76, 127
1, 9414, Note_on_c, 1, 61, 127
1, 9658, Note_off_c, 1, 61, 0
1, 9662, Note_off_c, 1, 76, 0
1, 9664, Note_on_c, 1, 60, 127
1, 9664, Note_on_c, 1, 75, 127
1, 9914, Note_off_c, 1, 60, 0
1, 9919, Note_on_c, 1, 58, 127
1, 10163, Note_off_c, 1, 58, 0
1, 10421, Note_off_c, 1, 56, 0
1, 10928, Note_on_c, 1, 66, 127
1, 11431, Note_off_c, 1, 66, 0
1, 11433, Note_on_c, 1, 64, 127
1, 11677, Note_off_c, 1, 72, 0
1, 11683, Note_off_c, 1, 75, 0
1, 11683, Note_off_c, 1, 64, 0
1, 11684, Note_off_c, 1, 68, 0
1, 11686, Note_on_c, 1, 80, 127
1, 12177, Note_off_c, 1, 80, 0
1, 12191, Note_on_c, 1, 69, 127
1, 12317, Note_on_c, 1, 73, 127
1, 12440, Note_off_c, 1, 73, 0
1, 13201, Note_on_c, 1, 81, 127
1, 13312, Note_off_c, 1, 81, 0
1, 13703, Note_off_c, 1, 69, 0
1, 13706, Note_on_c, 1, 54, 127
1, 14212, Note_on_c, 1, 78, 127
1, 14473, Note_off_c, 1, 78, 0
1, 15348, Note_on_c, 1, 71, 127
1, 15472, Note_off_c, 1, 71, 0
1, 16735, Note_off_c, 1, 54, 0
1, 16738, Note_on_c, 1, 52, 127
1, 19767, Note_off_c, 1, 52, 0
1, 19770, Note_on_c, 1, 51, 127
1, 19770, Note_on_c, 1, 59, 127
1, 21283, Note_off_c, 1, 51, 0
1, 21283, Note_off_c, 1, 59, 0
1, 21286, Note_on_c, 1, 69, 127
1, 21286, Note_on_c, 1, 52, 127
1, 21286, Note_on_c, 1, 64, 127
1, 21540, Note_on_c, 1, 57, 127
1, 21784, Note_off_c, 1, 57, 0
1, 21791, Note_on_c, 1, 56, 127
1, 21811, Note_on_c, 1, 68, 127
1, 21812, Note_off_c, 1, 69, 0
1, 21935, Note_off_c, 1, 68, 0
1, 22041, Note_off_c, 1, 56, 0
1, 22046, Note_on_c, 1, 54, 127
1, 22290, Note_off_c, 1, 54, 0
1, 22548, Note_off_c, 1, 52, 0
1, 22798, Note_off_c, 1, 64, 0
1, 22928, Note_on_c, 1, 59, 127
1, 23052, Note_off_c, 1, 59, 0
1, 23559, Note_on_c, 1, 66, 127
1, 23559, Note_on_c, 1, 63, 127
1, 23790, Note_off_c, 1, 66, 0
1, 23809, Note_off_c, 1, 63, 0
1, 23811, Note_on_c, 1, 61, 127
1, 24314, Note_off_c, 1, 61, 0
1, 24317, Note_on_c, 1, 60, 127
1, 24317, Note_on_c, 1, 51, 127
1, 25830, Note_off_c, 1, 60, 0
1, 25833, Note_on_c, 1, 75, 127
1, 26092, Note_off_c, 1, 75, 0
1, 26095, Note_on_c, 1, 73, 127
1, 26319, Note_off_c, 1, 73, 0
1, 26338, Note_on_c, 1, 72, 127
1, 26597, Note_off_c, 1, 72, 0
1, 26600, Note_on_c, 1, 70, 127
1, 26824, Note_off_c, 1, 70, 0
1, 27343, Note_off_c, 1, 51, 0
1, 27349, Note_on_c, 1, 49, 127
1, 27351, Note_on_c, 1, 81, 127
1, 27610, Note_off_c, 1, 81, 0
1, 27611, Note_on_c, 1, 80, 127
1, 27835, Note_off_c, 1, 80, 0
1, 27854, Note_on_c, 1, 78, 127
1, 28113, Note_off_c, 1, 78, 0
1, 28116, Note_on_c, 1, 76, 127
1, 28340, Note_off_c, 1, 76, 0
1, 29611, Note_off_c, 1, 49, 0
1, 29631, Note_on_c, 1, 71, 127
1, 29855, Note_off_c, 1, 71, 0
1, 30380, Note_on_c, 1, 46, 127
1, 30630, Note_off_c, 1, 46, 0
1, 30633, Note_on_c, 1, 67, 127
1, 31136, Note_off_c, 1, 67, 0
1, 31138, Note_on_c, 1, 68, 127
1, 31138, Note_on_c, 1, 75, 127
1, 31140, Note_on_c, 1, 47, 127
1, 31384, Note_off_c, 1, 47, 0
1, 31388, Note_off_c, 1, 68, 0
1, 31388, Note_off_c, 1, 75, 0
1, 31391, Note_on_c, 1, 70, 127
1, 31391, Note_on_c, 1, 49, 127
1, 31391, Note_on_c, 1, 73, 127
1, 31515, Note_off_c, 1, 70, 0
1, 31518, Note_on_c, 1, 68, 127
1, 31641, Note_off_c, 1, 49, 0
1, 31642, Note_off_c, 1, 68, 0
1, 31646, Note_on_c, 1, 46, 127
1, 31890, Note_off_c, 1, 73, 0
1, 31890, Note_off_c, 1, 46, 0
1, 31896, Note_on_c, 1, 43, 127
1, 31896, Note_on_c, 1, 63, 127
1, 31896, Note_on_c, 1, 73, 127
1, 32146, Note_off_c, 1, 43, 0
1, 32151, Note_on_c, 1, 47, 127
1, 32395, Note_off_c, 1, 47, 0
1, 32402, Note_on_c, 1, 46, 127
1, 32651, Note_off_c, 1, 63, 0
1, 32651, Note_off_c, 1, 73, 0
1, 32652, Note_off_c, 1, 46, 0
1, 32654, Note_on_c, 1, 65, 127
1, 32654, Note_on_c, 1, 71, 127
1, 32656, Note_on_c, 1, 44, 127
1, 32900, Note_off_c, 1, 44, 0
1, 32904, Note_off_c, 1, 65, 0
1, 32904, Note_off_c, 1, 71, 0
1, 32907, Note_on_c, 1, 67, 127
1, 32907, Note_on_c, 1, 46, 127
1, 32907, Note_on_c, 1, 70, 127
1, 33031, Note_off_c, 1, 67, 0
1, 33033, Note_on_c, 1, 65, 127
1, 33157, Note_off_c, 1, 46, 0
1, 33157, Note_off_c, 1, 65, 0
1, 33162, Note_on_c, 1, 43, 127
1, 33406, Note_off_c, 1, 43, 0
1, 33412, Note_on_c, 1, 37, 127
1, 33662, Note_off_c, 1, 70, 0
1, 33674, Note_on_c, 1, 68, 127
1, 33898, Note_off_c, 1, 68, 0
1, 34685, Note_on_c, 1, 63, 127
1, 35178, Note_off_c, 1, 37, 0
1, 35180, Note_on_c, 1, 75, 127
1, 35182, Note_on_c, 1, 49, 127
1, 35426, Note_off_c, 1, 49, 0
1, 35433, Note_on_c, 1, 47, 127
1, 35683, Note_off_c, 1, 47, 0
1, 35885, Note_off_c, 1, 63, 0
1, 36193, Note_on_c, 1, 44, 127
1, 36437, Note_off_c, 1, 44, 0
1, 36443, Note_on_c, 1, 52, 127
1, 36567, Note_off_c, 1, 52, 0
1, 36570, Note_on_c, 1, 51, 127
1, 36692, Note_off_c, 1, 75, 0
1, 36694, Note_off_c, 1, 51, 0
1, 36705, Note_on_c, 1, 72, 127
1, 36929, Note_off_c, 1, 72, 0
1, 36949, Note_on_c, 1, 73, 127
1, 37208, Note_off_c, 1, 73, 0
1, 37454, Note_on_c, 1, 76, 127
1, 37713, Note_off_c, 1, 76, 0
1, 37960, Note_on_c, 1, 73, 127
1, 37960, Note_on_c, 1, 68, 127
1, 37960, Note_on_c, 1, 51, 127
1, 38217, Note_on_c, 1, 71, 127
1, 38219, Note_off_c, 1, 73, 0
1, 38720, Note_off_c, 1, 71, 0
1, 38968, Note_off_c, 1, 68, 0
1, 38968, Note_off_c, 1, 51, 0
1, 38970, Note_on_c, 1, 71, 127
1, 38970, Note_on_c, 1, 67, 127
1, 38970, Note_on_c, 1, 39, 127
1, 39127, Note_on_c, 1, 70, 127
1, 39129, Note_off_c, 1, 71, 0
1, 39243, Note_on_c, 1, 68, 127
1, 39251, Note_off_c, 1, 70, 0
1, 39367, Note_off_c, 1, 68, 0
1, 39469, Note_off_c, 1, 67, 0
1, 39473, Note_off_c, 1, 39, 0
1, 39476, Note_on_c, 1, 44, 127
1, 39476, Note_on_c, 1, 59, 127
1, 39621, Note_on_c, 1, 63, 127
1, 39726, Note_off_c, 1, 44, 0
1, 39730, Note_on_c, 1, 49, 127
1, 39974, Note_off_c, 1, 49, 0
1, 39980, Note_on_c, 1, 47, 127
1, 40230, Note_off_c, 1, 47, 0
1, 40235, Note_on_c, 1, 46, 127
1, 40479, Note_off_c, 1, 46, 0
1, 41245, Note_on_c, 1, 51, 127
1, 41489, Note_off_c, 1, 51, 0
1, 41496, Note_on_c, 1, 56, 127
1, 41751, Note_on_c, 1, 52, 127
1, 41864, Note_off_c, 1, 56, 0
1, 41994, Note_off_c, 1, 63, 0
1, 41995, Note_off_c, 1, 52, 0
1, 41999, Note_off_c, 1, 59, 0
1, 42001, Note_on_c, 1, 71, 127
1, 42001, Note_on_c, 1, 54, 127
1, 42112, Note_on_c, 1, 70, 127
1, 42125, Note_off_c, 1, 71, 0
1, 42236, Note_off_c, 1, 70, 0
1, 42256, Note_on_c, 1, 51, 127
1, 42500, Note_off_c, 1, 54, 0
1, 42500, Note_off_c, 1, 51, 0
1, 42507, Note_on_c, 1, 49, 127
1, 42507, Note_on_c, 1, 52, 127
1, 42757, Note_off_c, 1, 49, 0
1, 42768, Note_on_c, 1, 68, 127
1, 42992, Note_off_c, 1, 68, 0
1, 43267, Note_on_c, 1, 47, 127
1, 43274, Note_on_c, 1, 73, 127
1, 43498, Note_off_c, 1, 73, 0
1, 43511, Note_off_c, 1, 47, 0
1, 43517, Note_on_c, 1, 76, 127
1, 43770, Note_on_c, 1, 46, 127
1, 44019, Note_off_c, 1, 52, 0
1, 44272, Note_off_c, 1, 76, 0
1, 44276, Note_on_c, 1, 75, 127
1, 44526, Note_off_c, 1, 75, 0
1, 44788, Note_on_c, 1, 56, 127
1, 44790, Note_on_c, 1, 80, 127
1, 45014, Note_off_c, 1, 80, 0
1, 45034, Note_on_c, 1, 58, 127
1, 45034, Note_on_c, 1, 78, 127
1, 45038, Note_off_c, 1, 56, 0
1, 45047, Note_off_c, 1, 46, 0
1, 45520, Note_off_c, 1, 58, 0
1, 45537, Note_off_c, 1, 78, 0
1, 45538, Note_on_c, 1, 59, 127
1, 45538, Note_on_c, 1, 75, 127
1, 45662, Note_off_c, 1, 59, 0
1, 45665, Note_on_c, 1, 58, 127
1, 45789, Note_off_c, 1, 58, 0
1, 45801, Note_on_c, 1, 73, 127
1, 46025, Note_off_c, 1, 73, 0
1, 46043, Note_on_c, 1, 71, 127
1, 46302, Note_off_c, 1, 71, 0
1, 46305, Note_on_c, 1, 70, 127
1, 46529, Note_off_c, 1, 70, 0
1, 46801, Note_on_c, 1, 66, 127
1, 47054, Note_on_c, 1, 63, 127
1, 47567, Note_on_c, 1, 57, 127
1, 47817, Note_off_c, 1, 57, 0
1, 47822, Note_on_c, 1, 56, 127
1, 48058, Note_off_c, 1, 66, 0
1, 48062, Note_off_c, 1, 63, 0
1, 48063, Note_off_c, 1, 75, 0
1, 48066, Note_off_c, 1, 56, 0
1, 48073, Note_on_c, 1, 57, 127
1, 48073, Note_on_c, 1, 73, 127
1, 48323, Note_off_c, 1, 57, 0
1, 48327, Note_on_c, 1, 54, 127
1, 48571, Note_off_c, 1, 54, 0
1, 48578, Note_on_c, 1, 51, 127
1, 48828, Note_off_c, 1, 73, 0
1, 48828, Note_off_c, 1, 51, 0
1, 48838, Note_on_c, 1, 52, 127
1, 48840, Note_on_c, 1, 70, 127
1, 49064, Note_off_c, 1, 70, 0
1, 49082, Note_off_c, 1, 52, 0
1, 49083, Note_on_c, 1, 51, 127
1, 49083, Note_on_c, 1, 72, 127
1, 49333, Note_off_c, 1, 51, 0
1, 49342, Note_off_c, 1, 72, 0
1, 49343, Note_on_c, 1, 49, 127
1, 49345, Note_on_c, 1, 75, 127
1, 49569, Note_off_c, 1, 75, 0
1, 49587, Note_off_c, 1, 49, 0
1, 49589, Note_on_c, 1, 78, 127
1, 49589, Note_on_c, 1, 51, 127
1, 49848, Note_off_c, 1, 78, 0
1, 49848, Note_on_c, 1, 48, 127
1, 49850, Note_on_c, 1, 80, 127
1, 50074, Note_off_c, 1, 80, 0
1, 50092, Note_off_c, 1, 48, 0
1, 50094, Note_on_c, 1, 81, 127
1, 50094, Note_on_c, 1, 44, 127
1, 50353, Note_off_c, 1, 81, 0
1, 50849, Note_off_c, 1, 44, 0
1, 50859, Note_on_c, 1, 46, 127
1, 50861, Note_on_c, 1, 76, 127
1, 51085, Note_off_c, 1, 76, 0
1, 51101, Note_off_c, 1, 51, 0
1, 51109, Note_off_c, 1, 46, 0
1, 51367, Note_on_c, 1, 75, 127
1, 51591, Note_off_c, 1, 75, 0
1, 51609, Note_on_c, 1, 49, 127
1, 51609, Note_on_c, 1, 76, 127
1, 51872, Note_on_c, 1, 75, 127
1, 52096, Note_off_c, 1, 75, 0
1, 52115, Note_on_c, 1, 73, 127
1, 52374, Note_off_c, 1, 73, 0
1, 52376, Note_on_c, 1, 72, 127
1, 52600, Note_off_c, 1, 72, 0
1, 52873, Note_on_c, 1, 68, 127
1, 53125, Note_on_c, 1, 64, 127
1, 53394, Note_off_c, 1, 49, 0
1, 53397, Note_on_c, 1, 51, 127
1, 53641, Note_off_c, 1, 51, 0
1, 53647, Note_on_c, 1, 52, 127
1, 53897, Note_off_c, 1, 52, 0
1, 53901, Note_on_c, 1, 54, 127
1, 54145, Note_off_c, 1, 54, 0
1, 54152, Note_on_c, 1, 56, 127
1, 54402, Note_off_c, 1, 56, 0
1, 54407, Note_on_c, 1, 57, 127
1, 54635, Note_off_c, 1, 68, 0
1, 54651, Note_off_c, 1, 57, 0
1, 54657, Note_on_c, 1, 59, 127
1, 54695, Note_off_c, 1, 64, 0
1, 54898, Note_off_c, 1, 76, 0
1, 54919, Note_on_c, 1, 74, 127
1, 55143, Note_off_c, 1, 74, 0
1, 55163, Note_on_c, 1, 77, 127
1, 55422, Note_off_c, 1, 77, 0
1, 55422, Note_on_c, 1, 61, 127
1, 55424, Note_on_c, 1, 80, 127
1, 55648, Note_off_c, 1, 80, 0
1, 55668, Note_on_c, 1, 83, 127
1, 55668, Note_on_c, 1, 62, 127
1, 55672, Note_off_c, 1, 61, 0
1, 55919, Note_off_c, 1, 59, 0
1, 56173, Note_on_c, 1, 53, 127
1, 56423, Note_off_c, 1, 83, 0
1, 56676, Note_off_c, 1, 62, 0
1, 56941, Note_on_c, 1, 71, 127
1, 57165, Note_off_c, 1, 71, 0
1, 57184, Note_on_c, 1, 69, 127
1, 57443, Note_off_c, 1, 69, 0
1, 57685, Note_off_c, 1, 53, 0
1, 59205, Note_on_c, 1, 66, 127
1, 59960, Note_off_c, 1, 66, 0
1, 60215, Note_on_c, 1, 63, 127
1, 60216, Note_on_c, 1, 78, 127
1, 60465, Note_off_c, 1, 63, 0
1, 60971, Note_off_c, 1, 78, 0
1, 61486, Note_on_c, 1, 57, 127
1, 61486, Note_on_c, 1, 61, 127
1, 61488, Note_on_c, 1, 73, 127
1, 61712, Note_off_c, 1, 73, 0
1, 61730, Note_off_c, 1, 57, 0
1, 61731, Note_on_c, 1, 71, 127
1, 61731, Note_on_c, 1, 59, 127
1, 61731, Note_on_c, 1, 63, 127
1, 61736, Note_off_c, 1, 61, 0
1, 61990, Note_off_c, 1, 71, 0
1, 61993, Note_on_c, 1, 69, 127
1, 62217, Note_off_c, 1, 69, 0
1, 62234, Note_off_c, 1, 59, 0
1, 62237, Note_on_c, 1, 52, 127
1, 62363, Note_on_c, 1, 68, 127
1, 62488, Note_off_c, 1, 68, 0
1, 62490, Note_on_c, 1, 66, 127
1, 62740, Note_off_c, 1, 66, 0
1, 62992, Note_off_c, 1, 63, 0
1, 63002, Note_on_c, 1, 56, 127
1, 63248, Note_on_c, 1, 76, 127
1, 63252, Note_off_c, 1, 56, 0
1, 63500, Note_on_c, 1, 60, 127
1, 63750, Note_off_c, 1, 60, 0
1, 64003, Note_off_c, 1, 76, 0
1, 64015, Note_on_c, 1, 75, 127
1, 64239, Note_off_c, 1, 75, 0
1, 64499, Note_off_c, 1, 52, 0
1, 64518, Note_on_c, 1, 51, 127
1, 64762, Note_off_c, 1, 51, 0
1, 64763, Note_on_c, 1, 49, 127
1, 65266, Note_off_c, 1, 49, 0
1, 65521, Note_on_c, 1, 64, 127
1, 65771, Note_off_c, 1, 64, 0
1, 66279, Note_on_c, 1, 72, 127
1, 66528, Note_off_c, 1, 72, 0
1, 66531, Note_on_c, 1, 58, 127
1, 66781, Note_off_c, 1, 58, 0
1, 67549, Note_on_c, 1, 58, 127
1, 67549, Note_on_c, 1, 61, 127
1, 67551, Note_on_c, 1, 70, 127
1, 67775, Note_off_c, 1, 70, 0
1, 67793, Note_off_c, 1, 58, 0
1, 67795, Note_on_c, 1, 68, 127
1, 67795, Note_on_c, 1, 60, 127
1, 67795, Note_on_c, 1, 63, 127
1, 67799, Note_off_c, 1, 61, 0
1, 68054, Note_off_c, 1, 68, 0
1, 68056, Note_on_c, 1, 66, 127
1, 68280, Note_off_c, 1, 66, 0
1, 68298, Note_off_c, 1, 60, 0
1, 68298, Note_off_c, 1, 63, 0
1, 68300, Note_on_c, 1, 66, 127
1, 68300, Note_on_c, 1, 61, 127
1, 68430, Note_off_c, 1, 66, 0
1, 68438, Note_on_c, 1, 64, 127
1, 68564, Note_off_c, 1, 64, 0
1, 68574, Note_on_c, 1, 63, 127
1, 68798, Note_off_c, 1, 63, 0
1, 69058, Note_on_c, 1, 68, 127
1, 69060, Note_on_c, 1, 59, 127
1, 69304, Note_off_c, 1, 59, 0
1, 69308, Note_off_c, 1, 68, 0
1, 69311, Note_on_c, 1, 57, 127
1, 69311, Note_on_c, 1, 73, 127
1, 69561, Note_off_c, 1, 57, 0
1, 69566, Note_on_c, 1, 56, 127
1, 69810, Note_off_c, 1, 56, 0
1, 69812, Note_off_c, 1, 61, 0
1, 69815, Note_on_c, 1, 54, 127
1, 70066, Note_off_c, 1, 73, 0
1, 70078, Note_on_c, 1, 71, 127
1, 70302, Note_off_c, 1, 71, 0
1, 70321, Note_on_c, 1, 69, 127
1, 70580, Note_off_c, 1, 69, 0
1, 71331, Note_on_c, 1, 62, 127
1, 71331, Note_on_c, 1, 78, 127
1, 71455, Note_off_c, 1, 62, 0
1, 71590, Note_off_c, 1, 78, 0
1, 71593, Note_on_c, 1, 76, 127
1, 71817, Note_off_c, 1, 76, 0
1, 71837, Note_on_c, 1, 74, 127
1, 72077, Note_off_c, 1, 54, 0
1, 72096, Note_off_c, 1, 74, 0
1, 72096, Note_on_c, 1, 52, 127
1, 72340, Note_off_c, 1, 52, 0
1, 72847, Note_on_c, 1, 81, 127
1, 72847, Note_on_c, 1, 51, 127
1, 72847, Note_on_c, 1, 60, 127
1, 73106, Note_off_c, 1, 81, 0
1, 73109, Note_on_c, 1, 80, 127
1, 73333, Note_off_c, 1, 80, 0
1, 73602, Note_off_c, 1, 51, 0
1, 74111, Note_on_c, 1, 75, 127
1, 74359, Note_off_c, 1, 60, 0
1, 74363, Note_on_c, 1, 84, 127
1, 75371, Note_off_c, 1, 84, 0
1, 75841, Note_off_c, 1, 75, 0
1, 75879, Note_on_c, 1, 52, 127
1, 75879, Note_on_c, 1, 75, 127
1, 75879, Note_on_c, 1, 80, 127
1, 76129, Note_off_c, 1, 52, 0
1, 76133, Note_on_c, 1, 51, 127
1, 76377, Note_off_c, 1, 51, 0
1, 76384, Note_on_c, 1, 49, 127
1, 76634, Note_off_c, 1, 75, 0
1, 76634, Note_off_c, 1, 49, 0
1, 76644, Note_on_c, 1, 47, 127
1, 76646, Note_on_c, 1, 76, 127
1, 76870, Note_off_c, 1, 76, 0
1, 76888, Note_off_c, 1, 47, 0
1, 76889, Note_on_c, 1, 72, 127
1, 77142, Note_on_c, 1, 45, 127
1, 77381, Note_off_c, 1, 45, 0
1, 77392, Note_off_c, 1, 72, 0
1, 77395, Note_on_c, 1, 57, 127
1, 77395, Note_on_c, 1, 73, 127
1, 77517, Note_on_c, 1, 56, 127
1, 77519, Note_off_c, 1, 57, 0
1, 77641, Note_off_c, 1, 80, 0
1, 77641, Note_off_c, 1, 56, 0
1, 77656, Note_on_c, 1, 78, 127
1, 77880, Note_off_c, 1, 78, 0
1, 78657, Note_off_c, 1, 73, 0
1, 79416, Note_on_c, 1, 54, 127
1, 79666, Note_off_c, 1, 54, 0
1, 80427, Note_on_c, 1, 60, 127
1, 80427, Note_on_c, 1, 68, 127
1, 80930, Note_off_c, 1, 60, 0
1, 80931, Note_on_c, 1, 58, 127
1, 81434, Note_off_c, 1, 58, 0
1, 81942, Note_on_c, 1, 61, 127
1, 82192, Note_off_c, 1, 61, 0
1, 82197, Note_on_c, 1, 59, 127
1, 82441, Note_off_c, 1, 59, 0
1, 82950, Note_off_c, 1, 68, 0
1, 82953, Note_on_c, 1, 66, 127
1, 83203, Note_off_c, 1, 66, 0
1, 83458, Note_on_c, 1, 69, 127
1, 84730, Note_on_c, 1, 81, 127
1, 84954, Note_off_c, 1, 81, 0
1, 84970, Note_off_c, 1, 69, 0
1, 85229, Note_on_c, 1, 64, 127
1, 85473, Note_off_c, 1, 64, 0
1, 85479, Note_on_c, 1, 63, 127
1, 85729, Note_off_c, 1, 63, 0
1, 86489, Note_on_c, 1, 56, 127
1, 86489, Note_on_c, 1, 60, 127
1, 86616, Note_on_c, 1, 61, 127
1, 86739, Note_off_c, 1, 56, 0
1, 86740, Note_off_c, 1, 61, 0
1, 86742, Note_on_c, 1, 63, 127
1, 86744, Note_on_c, 1, 54, 127
1, 86869, Note_on_c, 1, 64, 127
1, 86988, Note_off_c, 1, 54, 0
1, 86993, Note_off_c, 1, 64, 0
1, 86994, Note_on_c, 1, 52, 127
1, 86994, Note_on_c, 1, 66, 127
1, 87244, Note_off_c, 1, 52, 0
1, 87249, Note_on_c, 1, 51, 127
1, 87493, Note_off_c, 1, 51, 0
1, 87500, Note_on_c, 1, 49, 127
1, 87750, Note_off_c, 1, 49, 0
1, 87754, Note_on_c, 1, 47, 127
1, 87998, Note_off_c, 1, 47, 0
1, 88001, Note_off_c, 1, 60, 0
1, 88004, Note_off_c, 1, 63, 0
1, 88005, Note_on_c, 1, 45, 127
1, 88381, Note_off_c, 1, 66, 0
1, 88760, Note_off_c, 1, 45, 0
1, 89016, Note_on_c, 1, 63, 127
1, 89016, Note_on_c, 1, 44, 127
1, 89278, Note_on_c, 1, 60, 127
1, 89496, Note_off_c, 1, 63, 0
1, 89502, Note_off_c, 1, 60, 0
1, 89519, Note_off_c, 1, 44, 0
1, 89521, Note_on_c, 1, 42, 127
1, 89521, Note_on_c, 1, 69, 127
1, 89774, Note_on_c, 1, 68, 127
1, 90018, Note_off_c, 1, 68, 0
1, 90027, Note_on_c, 1, 66, 127
1, 90276, Note_off_c, 1, 42, 0
1, 90276, Note_off_c, 1, 69, 0
1, 90277, Note_off_c, 1, 66, 0
1, 90279, Note_on_c, 1, 64, 127
1, 90281, Note_on_c, 1, 44, 127
1, 90523, Note_off_c, 1, 64, 0
1, 90525, Note_off_c, 1, 44, 0
1, 90532, Note_on_c, 1, 66, 127
1, 90532, Note_on_c, 1, 40, 127
1, 90785, Note_on_c, 1, 63, 127
1, 91012, Note_off_c, 1, 66, 0
1, 91029, Note_off_c, 1, 63, 0
1, 91035, Note_off_c, 1, 40, 0
1, 91037, Note_on_c, 1, 39, 127
1, 91037, Note_on_c, 1, 72, 127
1, 91290, Note_on_c, 1, 69, 127
1, 91540, Note_off_c, 1, 69, 0
1, 91542, Note_on_c, 1, 68, 127
1, 91792, Note_off_c, 1, 39, 0
1, 91792, Note_off_c, 1, 72, 0
1, 91792, Note_off_c, 1, 68, 0
1, 91794, Note_on_c, 1, 66, 127
1, 91796, Note_on_c, 1, 40, 127
1, 92040, Note_off_c, 1, 40, 0
1, 92044, Note_off_c, 1, 66, 0
1, 92047, Note_on_c, 1, 68, 127
1, 92047, Note_on_c, 1, 42, 127
1, 92300, Note_on_c, 1, 63, 127
1, 92527, Note_off_c, 1, 68, 0
1, 92550, Note_off_c, 1, 42, 0
1, 92550, Note_off_c, 1, 63, 0
1, 92552, Note_on_c, 1, 36, 127
1, 92552, Note_on_c, 1, 75, 127
1, 92805, Note_on_c, 1, 73, 127
1, 93055, Note_off_c, 1, 73, 0
1, 93058, Note_on_c, 1, 72, 127
1, 93307, Note_off_c, 1, 36, 0
1, 93307, Note_off_c, 1, 75, 0
1, 93308, Note_off_c, 1, 72, 0
1, 93310, Note_on_c, 1, 70, 127
1, 93312, Note_on_c, 1, 39, 127
1, 93556, Note_off_c, 1, 39, 0
1, 93560, Note_off_c, 1, 70, 0
1, 93563, Note_on_c, 1, 72, 127
1, 93563, Note_on_c, 1, 42, 127
1, 93816, Note_on_c, 1, 68, 127
1, 93824, Note_off_c, 1, 72, 0
1, 94066, Note_off_c, 1, 42, 0
1, 94068, Note_on_c, 1, 40, 127
1, 94068, Note_on_c, 1, 80, 127
1, 94296, Note_off_c, 1, 68, 0
1, 94348, Note_on_c, 1, 52, 127
1, 94349, Note_off_c, 1, 40, 0
1, 94601, Note_off_c, 1, 80, 0
1, 94611, Note_off_c, 1, 52, 0
1, 94615, Note_on_c, 1, 54, 127
1, 94615, Note_on_c, 1, 78, 127
1, 94865, Note_off_c, 1, 54, 0
1, 94865, Note_off_c, 1, 78, 0
1, 94870, Note_on_c, 1, 56, 127
1, 94877, Note_on_c, 1, 76, 127
1, 95101, Note_off_c, 1, 76, 0
1, 95114, Note_off_c, 1, 56, 0
1, 95120, Note_on_c, 1, 57, 127
1, 95120, Note_on_c, 1, 75, 127
1, 95370, Note_off_c, 1, 57, 0
1, 95370, Note_off_c, 1, 75, 0
1, 95375, Note_on_c, 1, 54, 127
1, 95382, Note_on_c, 1, 73, 127
1, 95606, Note_off_c, 1, 73, 0
1, 95619, Note_off_c, 1, 54, 0
1, 95626, Note_on_c, 1, 51, 127
1, 95626, Note_on_c, 1, 72, 127
1, 95876, Note_off_c, 1, 51, 0
1, 95876, Note_off_c, 1, 72, 0
1, 95880, Note_on_c, 1, 52, 127
1, 95887, Note_on_c, 1, 73, 127
1, 96111, Note_off_c, 1, 73, 0
1, 96124, Note_off_c, 1, 52, 0
1, 96130, Note_on_c, 1, 54, 127
1, 96130, Note_on_c, 1, 75, 127
1, 96380, Note_off_c, 1, 54, 0
1, 96380, Note_off_c, 1, 75, 0
1, 96385, Note_on_c, 1, 51, 127
1, 96393, Note_on_c, 1, 78, 127
1, 96617, Note_off_c, 1, 78, 0
1, 96629, Note_off_c, 1, 51, 0
1, 96635, Note_on_c, 1, 69, 127
1, 96635, Note_on_c, 1, 48, 127
1, 96759, Note_off_c, 1, 69, 0
1, 96762, Note_on_c, 1, 68, 127
1, 96885, Note_off_c, 1, 48, 0
1, 96886, Note_off_c, 1, 68, 0
1, 96888, Note_on_c, 1, 69, 127
1, 96890, Note_on_c, 1, 49, 127
1, 97134, Note_off_c, 1, 49, 0
1, 97141, Note_on_c, 1, 51, 127
1, 97387, Note_off_c, 1, 69, 0
1, 97391, Note_off_c, 1, 51, 0
1, 97393, Note_on_c, 1, 68, 127
1, 97395, Note_on_c, 1, 48, 127
1, 97637, Note_off_c, 1, 68, 0
1, 97639, Note_off_c, 1, 48, 0
1, 97646, Note_on_c, 1, 44, 127
1, 97646, Note_on_c, 1, 69, 127
1, 97896, Note_off_c, 1, 44, 0
1, 97896, Note_off_c, 1, 69, 0
1, 97899, Note_on_c, 1, 66, 127
1, 97901, Note_on_c, 1, 46, 127
1, 98082, Note_off_c, 1, 66, 0
1, 98153, Note_off_c, 1, 46, 0
1, 98156, Note_on_c, 1, 78, 127
1, 98159, Note_on_c, 1, 48, 127
1, 98269, Note_off_c, 1, 78, 0
1, 98275, Note_on_c, 1, 80, 127
1, 98388, Note_off_c, 1, 80, 0
1, 98395, Note_on_c, 1, 81, 127
1, 98409, Note_off_c, 1, 48, 0
1, 98414, Note_on_c, 1, 49, 127
1, 98658, Note_off_c, 1, 49, 0
1, 98665, Note_on_c, 1, 51, 127
1, 98915, Note_off_c, 1, 51, 0
1, 98919, Note_on_c, 1, 52, 127
1, 99163, Note_off_c, 1, 52, 0
1, 99170, Note_on_c, 1, 54, 127
1, 99177, Note_off_c, 1, 81, 0
1, 99420, Note_off_c, 1, 54, 0
1, 99425, Note_on_c, 1, 56, 127
1, 99432, Note_on_c, 1, 78, 127
1, 99656, Note_off_c, 1, 78, 0
1, 99669, Note_off_c, 1, 56, 0
1, 99675, Note_on_c, 1, 58, 127
1, 99675, Note_on_c, 1, 76, 127
1, 99925, Note_off_c, 1, 58, 0
1, 99925, Note_off_c, 1, 76, 0
1, 99930, Note_on_c, 1, 60, 127
1, 99937, Note_on_c, 1, 75, 127
1, 100161, Note_off_c, 1, 75, 0
1, 100174, Note_off_c, 1, 60, 0
1, 100189, Note_on_c, 1, 61, 127
1, 100189, Note_on_c, 1, 76, 127
1, 100448, Note_off_c, 1, 61, 0
1, 100465, Note_on_c, 1, 75, 127
1, 100466, Note_on_c, 1, 59, 127
1, 100717, Note_off_c, 1, 59, 0
1, 100724, Note_off_c, 1, 75, 0
1, 100726, Note_on_c, 1, 73, 127
1, 100726, Note_on_c, 1, 57, 127
1, 100985, Note_off_c, 1, 73, 0
1, 100985, Note_off_c, 1, 57, 0
1, 100986, Note_on_c, 1, 72, 127
1, 100987, Note_on_c, 1, 56, 127
1, 101242, Note_off_c, 1, 56, 0
1, 101245, Note_off_c, 1, 72, 0
1, 101491, Note_off_c, 1, 76, 0
1, 101508, Note_on_c, 1, 81, 127
1, 101508, Note_on_c, 1, 54, 127
1, 101767, Note_off_c, 1, 81, 0
1, 101767, Note_off_c, 1, 54, 0
1, 101768, Note_on_c, 1, 73, 127
1, 101768, Note_on_c, 1, 56, 127
1, 101898, Note_on_c, 1, 75, 127
1, 102026, Note_off_c, 1, 75, 0
1, 102029, Note_on_c, 1, 76, 127
1, 102549, Note_off_c, 1, 76, 0
1, 102551, Note_on_c, 1, 78, 127
1, 102809, Note_off_c, 1, 73, 0
1, 102810, Note_off_c, 1, 78, 0
1, 102811, Note_on_c, 1, 72, 127
1, 102811, Note_on_c, 1, 44, 127
1, 102939, Note_off_c, 1, 72, 0
1, 103330, Note_off_c, 1, 44, 0
1, 103340, Note_on_c, 1, 46, 127
1, 103587, Note_off_c, 1, 56, 0
1, 103634, Note_on_c, 1, 71, 127
1, 103878, Note_off_c, 1, 71, 0
1, 103894, Note_on_c, 1, 70, 127
1, 103894, Note_on_c, 1, 55, 127
1, 104153, Note_off_c, 1, 70, 0
1, 104153, Note_off_c, 1, 55, 0
1, 104154, Note_on_c, 1, 68, 127
1, 104398, Note_off_c, 1, 68, 0
1, 104415, Note_on_c, 1, 67, 127
1, 104415, Note_on_c, 1, 58, 127
1, 104674, Note_off_c, 1, 67, 0
1, 104674, Note_off_c, 1, 58, 0
1, 104675, Note_on_c, 1, 51, 127
1, 104934, Note_off_c, 1, 51, 0
1, 104936, Note_on_c, 1, 52, 127
1, 105657, Note_off_c, 1, 46, 0
1, 105717, Note_off_c, 1, 52, 0
1, 105735, Note_on_c, 1, 47, 127
1, 105994, Note_off_c, 1, 47, 0
1, 105996, Note_on_c, 1, 49, 127
1, 106516, Note_off_c, 1, 49, 0
1, 106518, Note_on_c, 1, 43, 127
1, 108269, Note_on_c, 1, 53, 127
1, 108400, Note_off_c, 1, 53, 0
1, 108909, Note_off_c, 1, 43, 0
1, 109770, Note_on_c, 1, 39, 127
1, 109770, Note_on_c, 1, 79, 127
1, 111424, Note_off_c, 1, 39, 0
1, 112273, Note_on_c, 1, 65, 127
1, 112538, Note_off_c, 1, 79, 0
1, 112538, Note_off_c, 1, 65, 0
1, 112550, Note_on_c, 1, 66, 127
1, 112550, Note_on_c, 1, 72, 127
1, 112550, Note_on_c, 1, 80, 127
1, 112824, Note_off_c, 1, 66, 0
1, 112826, Note_on_c, 1, 63, 127
1, 113091, Note_off_c, 1, 63, 0
1, 113096, Note_off_c, 1, 72, 0
1, 113096, Note_off_c, 1, 80, 0
1, 113119, Note_on_c, 1, 64, 127
1, 113119, Note_on_c, 1, 73, 127
1, 113403, Note_off_c, 1, 64, 0
1, 113406, Note_on_c, 1, 71, 127
1, 113406, Note_on_c, 1, 63, 127
1, 113681, Note_off_c, 1, 71, 0
1, 113690, Note_off_c, 1, 63, 0
1, 113692, Note_on_c, 1, 69, 127
1, 113692, Note_on_c, 1, 61, 127
1, 113976, Note_off_c, 1, 69, 0
1, 113976, Note_off_c, 1, 61, 0
1, 113979, Note_on_c, 1, 68, 127
1, 113979, Note_on_c, 1, 59, 127
1, 114254, Note_off_c, 1, 68, 0
1, 114263, Note_off_c, 1, 59, 0
1, 114266, Note_on_c, 1, 66, 127
1, 114266, Note_on_c, 1, 57, 127
1, 114550, Note_off_c, 1, 66, 0
1, 114550, Note_off_c, 1, 57, 0
1, 114553, Note_on_c, 1, 54, 127
1, 114837, Note_off_c, 1, 54, 0
1, 114840, Note_on_c, 1, 56, 127
1, 115124, Note_off_c, 1, 56, 0
1, 115126, Note_on_c, 1, 51, 127
1, 115410, Note_off_c, 1, 51, 0
1, 115413, Note_on_c, 1, 52, 127
1, 115688, Note_off_c, 1, 73, 0
1, 115697, Note_off_c, 1, 52, 0
1, 115701, Note_on_c, 1, 75, 127
1, 115701, Note_on_c, 1, 66, 127
1, 115701, Note_on_c, 1, 49, 127
1, 115976, Note_off_c, 1, 75, 0
1, 115985, Note_off_c, 1, 66, 0
1, 115985, Note_off_c, 1, 49, 0
1, 115987, Note_on_c, 1, 63, 127
1, 115987, Note_on_c, 1, 72, 127
1, 115987, Note_on_c, 1, 44, 127
1, 116271, Note_off_c, 1, 63, 0
1, 116274, Note_on_c, 1, 66, 127
1, 116274, Note_on_c, 1, 56, 127
1, 116555, Note_off_c, 1, 72, 0
1, 116555, Note_off_c, 1, 44, 0
1, 116595, Note_on_c, 1, 61, 127
1, 116595, Note_on_c, 1, 73, 127
1, 116595, Note_on_c, 1, 49, 127
1, 116887, Note_off_c, 1, 66, 0
1, 116926, Note_on_c, 1, 68, 127
1, 117223, Note_off_c, 1, 56, 0
1, 117255, Note_off_c, 1, 68, 0
1, 117258, Note_on_c, 1, 69, 127
1, 117258, Note_on_c, 1, 54, 127
1, 117587, Note_off_c, 1, 69, 0
1, 117918, Note_off_c, 1, 54, 0
1, 117919, Note_off_c, 1, 61, 0
1, 117921, Note_on_c, 1, 57, 127
1, 118252, Note_off_c, 1, 73, 0
1, 118581, Note_off_c, 1, 57, 0
1, 118584, Note_on_c, 1, 65, 127
1, 122397, Note_off_c, 1, 49, 0
1, 122397, Note_off_c, 1, 65, 0
1, 123410, Note_on_c, 1, 49, 127
1, 124723, Note_off_c, 1, 49, 0
1, 124727, Note_on_c, 1, 48, 127
1, 125382, Note_off_c, 1, 48, 0
1, 125386, Note_on_c, 1, 52, 127
1, 126041, Note_off_c, 1, 52, 0
1, 126045, Note_on_c, 1, 51, 127
1, 127358, Note_off_c, 1, 51, 0
1, 127361, Note_on_c, 1, 49, 127
1, 127361, Note_on_c, 1, 56, 127
1, 127698, Note_off_c, 1, 49, 0
1, 127702, Note_on_c, 1, 51, 127
1, 128039, Note_off_c, 1, 51, 0
1, 128043, Note_on_c, 1, 52, 127
1, 128716, Note_off_c, 1, 56, 0
1, 128725, Note_on_c, 1, 55, 127
1, 129061, Note_off_c, 1, 52, 0
1, 129403, Note_off_c, 1, 55, 0
1, 129405, Note_on_c, 1, 51, 127
1, 129405, Note_on_c, 1, 59, 127
1, 129742, Note_off_c, 1, 51, 0
1, 129747, Note_on_c, 1, 56, 127
1, 130083, Note_off_c, 1, 59, 0
1, 130084, Note_off_c, 1, 56, 0
1, 130087, Note_on_c, 1, 49, 127
1, 130087, Note_on_c, 1, 58, 127
1, 130424, Note_off_c, 1, 49, 0
1, 130428, Note_on_c, 1, 51, 127
1, 130595, Note_off_c, 1, 51, 0
1, 130597, Note_on_c, 1, 52, 127
1, 130764, Note_off_c, 1, 52, 0
1, 130768, Note_on_c, 1, 54, 127
1, 131442, Note_off_c, 1, 58, 0
1, 131449, Note_on_c, 1, 56, 127
1, 131786, Note_off_c, 1, 54, 0
1, 132127, Note_off_c, 1, 56, 0
1, 132130, Note_on_c, 1, 51, 127
1, 132130, Note_on_c, 1, 61, 127
1, 132130, Note_on_c, 1, 57, 127
1, 132473, Note_off_c, 1, 51, 0
1, 132476, Note_on_c, 1, 49, 127
1, 132819, Note_off_c, 1, 61, 0
1, 132819, Note_off_c, 1, 49, 0
1, 132822, Note_on_c, 1, 60, 127
1, 133165, Note_off_c, 1, 57, 0
1, 133169, Note_on_c, 1, 56, 127
1, 133339, Note_off_c, 1, 56, 0
1, 133341, Note_on_c, 1, 54, 127
1, 133511, Note_off_c, 1, 60, 0
1, 133511, Note_off_c, 1, 54, 0
1, 133515, Note_on_c, 1, 56, 127
1, 133515, Note_on_c, 1, 64, 127
1, 133515, Note_on_c, 1, 49, 127
1, 133858, Note_off_c, 1, 56, 0
1, 133860, Note_on_c, 1, 61, 127
1, 134203, Note_off_c, 1, 61, 0
1, 134204, Note_off_c, 1, 64, 0
1, 134206, Note_on_c, 1, 54, 127
1, 134206, Note_on_c, 1, 63, 127
1, 134550, Note_off_c, 1, 49, 0
1, 134550, Note_off_c, 1, 54, 0
1, 134555, Note_on_c, 1, 47, 127
1, 134726, Note_on_c, 1, 57, 127
1, 134894, Note_off_c, 1, 47, 0
1, 134896, Note_off_c, 1, 57, 0
1, 134900, Note_on_c, 1, 45, 127
1, 134900, Note_on_c, 1, 59, 127
1, 135243, Note_off_c, 1, 45, 0
1, 135246, Note_on_c, 1, 44, 127
1, 135588, Note_off_c, 1, 63, 0
1, 135589, Note_off_c, 1, 44, 0
1, 135935, Note_off_c, 1, 59, 0
1, 136285, Note_on_c, 1, 56, 127
1, 136285, Note_on_c, 1, 46, 127
1, 136285, Note_on_c, 1, 66, 127
1, 136628, Note_off_c, 1, 56, 0
1, 136631, Note_on_c, 1, 54, 127
1, 136974, Note_off_c, 1, 46, 0
1, 136974, Note_off_c, 1, 54, 0
1, 136975, Note_on_c, 1, 48, 127
1, 137320, Note_off_c, 1, 66, 0
1, 137321, Note_on_c, 1, 64, 127
1, 137664, Note_off_c, 1, 48, 0
1, 137664, Note_off_c, 1, 64, 0
1, 137668, Note_on_c, 1, 54, 127
1, 137668, Note_on_c, 1, 63, 127
1, 137668, Note_on_c, 1, 49, 127
1, 138011, Note_off_c, 1, 54, 0
1, 138011, Note_off_c, 1, 63, 0
1, 138015, Note_on_c, 1, 52, 127
1, 138015, Note_on_c, 1, 61, 127
1, 138357, Note_off_c, 1, 49, 0
1, 138358, Note_off_c, 1, 52, 0
1, 138358, Note_off_c, 1, 61, 0
1, 138361, Note_on_c, 1, 44, 127
1, 138361, Note_on_c, 1, 61, 127
1, 138361, Note_on_c, 1, 51, 127
1, 138704, Note_off_c, 1, 44, 0
1, 138705, Note_on_c, 1, 45, 127
1, 139048, Note_off_c, 1, 45, 0
1, 139050, Note_off_c, 1, 61, 0
1, 139051, Note_on_c, 1, 68, 127
1, 139051, Note_on_c, 1, 59, 127
1, 139051, Note_on_c, 1, 47, 127
1, 139397, Note_off_c, 1, 51, 0
1, 139399, Note_on_c, 1, 50, 127
1, 139744, Note_off_c, 1, 68, 0
1, 139744, Note_off_c, 1, 59, 0
1, 139745, Note_off_c, 1, 50, 0
1, 139749, Note_on_c, 1, 65, 127
1, 139749, Note_on_c, 1, 49, 127
1, 140091, Note_off_c, 1, 47, 0
1, 140442, Note_off_c, 1, 65, 0
1, 140443, Note_on_c, 1, 69, 127
1, 140443, Note_on_c, 1, 66, 127
1, 140793, Note_on_c, 1, 42, 127
1, 141135, Note_off_c, 1, 49, 0
1, 141137, Note_off_c, 1, 69, 0
1, 141139, Note_off_c, 1, 42, 0
1, 141484, Note_off_c, 1, 66, 0
1, 141488, Note_on_c, 1, 64, 127
1, 141834, Note_off_c, 1, 64, 0
1, 141838, Note_on_c, 1, 63, 127
1, 141838, Note_on_c, 1, 73, 127
1, 142184, Note_off_c, 1, 63, 0
1, 142532, Note_off_c, 1, 73, 0
1, 142534, Note_on_c, 1, 72, 127
1, 143228, Note_off_c, 1, 72, 0
1, 143232, Note_on_c, 1, 42, 127
1, 143232, Note_on_c, 1, 68, 127
1, 143232, Note_on_c, 1, 76, 127
1, 143232, Note_on_c, 1, 73, 127
1, 143578, Note_off_c, 1, 42, 0
1, 143582, Note_on_c, 1, 40, 127
1, 143926, Note_off_c, 1, 68, 0
1, 143926, Note_off_c, 1, 76, 0
1, 143928, Note_off_c, 1, 40, 0
1, 143930, Note_on_c, 1, 75, 127
1, 144278, Note_on_c, 1, 69, 127
1, 144620, Note_off_c, 1, 73, 0
1, 144624, Note_off_c, 1, 75, 0
1, 144624, Note_off_c, 1, 69, 0
1, 144627, Note_on_c, 1, 68, 127
1, 144627, Note_on_c, 1, 44, 127
1, 144627, Note_on_c, 1, 71, 127
1, 144973, Note_off_c, 1, 68, 0
1, 144975, Note_on_c, 1, 66, 127
1, 145321, Note_off_c, 1, 44, 0
1, 145321, Note_off_c, 1, 66, 0
1, 145324, Note_on_c, 1, 45, 127
1, 145324, Note_on_c, 1, 65, 127
1, 145324, Note_on_c, 1, 73, 127
1, 145670, Note_off_c, 1, 45, 0
1, 145670, Note_off_c, 1, 65, 0
1, 145673, Note_on_c, 1, 61, 127
1, 146015, Note_off_c, 1, 71, 0
1, 146019, Note_off_c, 1, 61, 0
1, 146022, Note_on_c, 1, 69, 127
1, 146365, Note_off_c, 1, 73, 0
1, 146371, Note_on_c, 1, 47, 127
1, 146371, Note_on_c, 1, 75, 127
1, 146716, Note_off_c, 1, 69, 0
1, 146717, Note_off_c, 1, 47, 0
1, 146717, Note_off_c, 1, 75, 0
1, 146719, Note_on_c, 1, 49, 127
1, 146719, Note_on_c, 1, 76, 127
1, 146719, Note_on_c, 1, 68, 127
1, 146719, Note_on_c, 1, 64, 127
1, 147065, Note_off_c, 1, 49, 0
1, 147065, Note_off_c, 1, 76, 0
1, 147068, Note_on_c, 1, 47, 127
1, 147068, Note_on_c, 1, 75, 127
1, 147413, Note_off_c, 1, 68, 0
1, 147414, Note_off_c, 1, 47, 0
1, 147414, Note_off_c, 1, 75, 0
1, 147416, Note_on_c, 1, 73, 127
1, 147416, Note_on_c, 1, 69, 127
1, 147765, Note_on_c, 1, 51, 127
1, 148110, Note_off_c, 1, 73, 0
1, 148111, Note_off_c, 1, 51, 0
1, 148114, Note_on_c, 1, 52, 127
1, 148114, Note_on_c, 1, 71, 127
1, 148457, Note_off_c, 1, 69, 0
1, 148803, Note_off_c, 1, 64, 0
1, 148807, Note_off_c, 1, 52, 0
1, 148807, Note_off_c, 1, 71, 0
1, 148809, Note_on_c, 1, 66, 127
1, 148809, Note_on_c, 1, 56, 127
1, 148809, Note_on_c, 1, 73, 127
1, 148809, Note_on_c, 1, 68, 127
1, 148809, Note_on_c, 1, 49, 127
1, 149155, Note_off_c, 1, 66, 0
1, 149159, Note_on_c, 1, 64, 127
1, 149503, Note_off_c, 1, 56, 0
1, 149503, Note_off_c, 1, 73, 0
1, 149503, Note_off_c, 1, 68, 0
1, 149505, Note_off_c, 1, 64, 0
1, 149507, Note_on_c, 1, 55, 127
1, 149507, Note_on_c, 1, 63, 127
1, 149507, Note_on_c, 1, 75, 127
1, 149507, Note_on_c, 1, 70, 127
1, 149850, Note_off_c, 1, 49, 0
1, 149855, Note_on_c, 1, 47, 127
1, 150200, Note_off_c, 1, 55, 0
1, 150200, Note_off_c, 1, 63, 0
1, 150200, Note_off_c, 1, 75, 0
1, 150200, Note_off_c, 1, 70, 0
1, 150201, Note_off_c, 1, 47, 0
1, 150204, Note_on_c, 1, 46, 127
1, 150204, Note_on_c, 1, 59, 127
1, 150204, Note_on_c, 1, 68, 127
1, 150550, Note_off_c, 1, 46, 0
1, 150552, Note_on_c, 1, 44, 127
1, 150898, Note_off_c, 1, 59, 0
1, 150898, Note_off_c, 1, 44, 0
1, 150900, Note_on_c, 1, 49, 127
1, 150900, Note_on_c, 1, 58, 127
1, 151249, Note_on_c, 1, 76, 127
1, 151592, Note_off_c, 1, 68, 0
1, 151594, Note_off_c, 1, 49, 0
1, 151595, Note_off_c, 1, 76, 0
1, 151597, Note_on_c, 1, 75, 127
1, 151597, Note_on_c, 1, 51, 127
1, 151597, Note_on_c, 1, 67, 127
1, 151943, Note_off_c, 1, 75, 0
1, 151947, Note_on_c, 1, 73, 127
1, 152288, Note_off_c, 1, 58, 0
1, 152291, Note_off_c, 1, 51, 0
1, 152291, Note_off_c, 1, 67, 0
1, 152293, Note_off_c, 1, 73, 0
1, 152295, Note_on_c, 1, 56, 127
1, 152295, Note_on_c, 1, 71, 127
1, 152295, Note_on_c, 1, 44, 127
1, 152295, Note_on_c, 1, 68, 127
1, 152641, Note_off_c, 1, 56, 0
1, 152641, Note_off_c, 1, 71, 0
1, 152653, Note_on_c, 1, 75, 127
1, 152653, Note_on_c, 1, 57, 127
1, 152989, Note_off_c, 1, 44, 0
1, 152989, Note_off_c, 1, 68, 0
1, 152999, Note_off_c, 1, 75, 0
1, 152999, Note_off_c, 1, 57, 0
1, 153011, Note_on_c, 1, 56, 127
1, 153011, Note_on_c, 1, 59, 127
1, 153011, Note_on_c, 1, 80, 127
1, 153357, Note_off_c, 1, 56, 0
1, 153359, Note_on_c, 1, 54, 127
1, 153705, Note_off_c, 1, 59, 0
1, 153705, Note_off_c, 1, 54, 0
1, 153709, Note_on_c, 1, 61, 127
1, 153709, Note_on_c, 1, 53, 127
1, 154052, Note_off_c, 1, 80, 0
1, 154055, Note_on_c, 1, 78, 127
1, 154401, Note_off_c, 1, 78, 0
1, 154402, Note_off_c, 1, 61, 0
1, 154402, Note_off_c, 1, 53, 0
1, 154403, Note_on_c, 1, 80, 127
1, 154403, Note_on_c, 1, 57, 127
1, 154749, Note_off_c, 1, 80, 0
1, 154752, Note_on_c, 1, 81, 127
1, 154752, Note_on_c, 1, 61, 127
1, 155097, Note_off_c, 1, 57, 0
1, 155098, Note_off_c, 1, 81, 0
1, 155098, Note_off_c, 1, 61, 0
1, 155101, Note_on_c, 1, 63, 127
1, 155101, Note_on_c, 1, 56, 127
1, 155101, Note_on_c, 1, 83, 127
1, 155447, Note_off_c, 1, 63, 0
1, 155449, Note_on_c, 1, 61, 127
1, 155795, Note_off_c, 1, 61, 0
1, 156147, Note_on_c, 1, 65, 127
1, 156493, Note_off_c, 1, 56, 0
1, 156493, Note_off_c, 1, 65, 0
1, 156496, Note_on_c, 1, 66, 127
1, 156496, Note_on_c, 1, 54, 127
1, 156843, Note_off_c, 1, 83, 0
1, 156845, Note_on_c, 1, 81, 127
1, 157190, Note_off_c, 1, 66, 0
1, 157191, Note_off_c, 1, 81, 0
1, 157193, Note_on_c, 1, 80, 127
1, 157193, Note_on_c, 1, 69, 127
1, 157539, Note_off_c, 1, 80, 0
1, 157542, Note_on_c, 1, 78, 127
1, 157887, Note_off_c, 1, 69, 0
1, 157888, Note_off_c, 1, 78, 0
1, 157891, Note_on_c, 1, 68, 127
1, 157891, Note_on_c, 1, 60, 127
1, 158238, Note_off_c, 1, 54, 0
1, 158239, Note_on_c, 1, 76, 127
1, 158410, Note_off_c, 1, 76, 0
1, 158414, Note_on_c, 1, 75, 127
1, 158585, Note_off_c, 1, 68, 0
1, 158585, Note_off_c, 1, 60, 0
1, 158585, Note_off_c, 1, 75, 0
1, 158587, Note_on_c, 1, 52, 127
1, 158587, Note_on_c, 1, 64, 127
1, 158587, Note_on_c, 1, 73, 127
1, 158763, Note_on_c, 1, 71, 127
1, 158933, Note_off_c, 1, 52, 0
1, 158934, Note_off_c, 1, 71, 0
1, 158936, Note_on_c, 1, 69, 127
1, 158936, Note_on_c, 1, 54, 127
1, 159107, Note_off_c, 1, 69, 0
1, 159107, Note_off_c, 1, 54, 0
1, 159110, Note_on_c, 1, 68, 127
1, 159110, Note_on_c, 1, 56, 127
1, 159281, Note_off_c, 1, 64, 0
1, 159281, Note_off_c, 1, 68, 0
1, 159281, Note_off_c, 1, 56, 0
1, 159286, Note_on_c, 1, 66, 127
1, 159286, Note_on_c, 1, 57, 127
1, 159286, Note_on_c, 1, 63, 127
1, 159632, Note_off_c, 1, 66, 0
1, 159632, Note_off_c, 1, 57, 0
1, 159975, Note_off_c, 1, 73, 0
1, 160674, Note_off_c, 1, 63, 0
1, 160679, Note_on_c, 1, 65, 127
1, 160679, Note_on_c, 1, 61, 127
1, 160679, Note_on_c, 1, 49, 127
1, 161372, Note_off_c, 1, 65, 0
1, 162764, Note_off_c, 1, 61, 0
1, 162764, Note_off_c, 1, 49, 0
1, 162769, Note_on_c, 1, 70, 127
1, 162769, Note_on_c, 1, 47, 127
1, 163115, Note_off_c, 1, 70, 0
1, 163463, Note_off_c, 1, 47, 0
1, 163467, Note_on_c, 1, 46, 127
1, 164161, Note_off_c, 1, 46, 0
1, 164165, Note_on_c, 1, 58, 127
1, 164165, Note_on_c, 1, 63, 127
1, 164165, Note_on_c, 1, 54, 127
1, 164165, Note_on_c, 1, 51, 127
1, 164165, Note_on_c, 1, 71, 127
1, 164511, Note_off_c, 1, 58, 0
1, 164512, Note_on_c, 1, 59, 127
1, 164858, Note_off_c, 1, 59, 0
1, 164859, Note_off_c, 1, 63, 0
1, 164859, Note_off_c, 1, 54, 0
1, 164859, Note_off_c, 1, 51, 0
1, 164861, Note_on_c, 1, 52, 127
1, 164861, Note_on_c, 1, 61, 127
1, 164861, Note_on_c, 1, 49, 127
1, 164861, Note_on_c, 1, 64, 127
1, 165207, Note_off_c, 1, 52, 0
1, 165553, Note_off_c, 1, 71, 0
1, 165558, Note_on_c, 1, 70, 127
1, 166249, Note_off_c, 1, 61, 0
1, 166249, Note_off_c, 1, 49, 0
1, 166252, Note_off_c, 1, 70, 0
1, 166257, Note_on_c, 1, 56, 127
1, 166257, Note_on_c, 1, 47, 127
1, 166603, Note_off_c, 1, 64, 0
1, 166603, Note_off_c, 1, 56, 0
1, 167302, Note_on_c, 1, 66, 127
1, 167302, Note_on_c, 1, 57, 127
1, 167473, Note_off_c, 1, 66, 0
1, 167476, Note_on_c, 1, 68, 127
1, 167647, Note_off_c, 1, 68, 0
1, 167648, Note_off_c, 1, 57, 0
1, 167999, Note_off_c, 1, 47, 0
1, 168000, Note_on_c, 1, 73, 127
1, 168346, Note_off_c, 1, 73, 0
1, 168349, Note_on_c, 1, 75, 127
1, 168695, Note_off_c, 1, 75, 0
1, 168696, Note_on_c, 1, 76, 127
1, 169736, Note_off_c, 1, 76, 0
1, 170091, Note_on_c, 1, 69, 127
1, 170437, Note_off_c, 1, 69, 0
1, 171170, Note_on_c, 1, 76, 127
1, 171170, Note_on_c, 1, 61, 127
1, 171170, Note_on_c, 1, 57, 127
1, 171516, Note_off_c, 1, 76, 0
1, 171520, Note_on_c, 1, 78, 127
1, 171864, Note_off_c, 1, 61, 0
1, 171864, Note_off_c, 1, 57, 0
1, 171866, Note_off_c, 1, 78, 0
1, 171868, Note_on_c, 1, 80, 127
1, 171868, Note_on_c, 1, 60, 127
1, 171868, Note_on_c, 1, 56, 127
1, 172041, Note_off_c, 1, 80, 0
1, 172045, Note_on_c, 1, 78, 127
1, 172218, Note_off_c, 1, 78, 0
1, 172399, Note_on_c, 1, 81, 127
1, 172572, Note_off_c, 1, 60, 0
1, 172572, Note_off_c, 1, 56, 0
1, 172572, Note_off_c, 1, 81, 0
1, 172575, Note_on_c, 1, 80, 127
1, 172575, Note_on_c, 1, 64, 127
1, 172575, Note_on_c, 1, 61, 127
1, 172748, Note_off_c, 1, 80, 0
1, 172753, Note_on_c, 1, 78, 127
1, 172926, Note_off_c, 1, 78, 0
1, 172929, Note_on_c, 1, 76, 127
1, 173102, Note_off_c, 1, 76, 0
1, 173279, Note_off_c, 1, 64, 0
1, 173279, Note_off_c, 1, 61, 0
1, 173283, Note_on_c, 1, 78, 127
1, 173283, Note_on_c, 1, 61, 127
1, 173283, Note_on_c, 1, 63, 127
1, 173456, Note_off_c, 1, 78, 0
1, 173462, Note_on_c, 1, 76, 127
1, 173635, Note_off_c, 1, 76, 0
1, 173815, Note_on_c, 1, 80, 127
1, 173987, Note_off_c, 1, 61, 0
1, 173988, Note_off_c, 1, 80, 0
1, 173992, Note_on_c, 1, 60, 127
1, 174346, Note_on_c, 1, 75, 127
1, 174519, Note_off_c, 1, 75, 0
1, 174692, Note_off_c, 1, 63, 0
1, 174696, Note_off_c, 1, 60, 0
1, 174700, Note_on_c, 1, 76, 127
1, 174700, Note_on_c, 1, 61, 127
1, 174873, Note_off_c, 1, 76, 0
1, 174877, Note_on_c, 1, 75, 127
1, 175050, Note_off_c, 1, 75, 0
1, 175232, Note_on_c, 1, 78, 127
1, 175405, Note_off_c, 1, 78, 0
1, 175409, Note_on_c, 1, 68, 127
1, 175762, Note_on_c, 1, 73, 127
1, 175935, Note_off_c, 1, 73, 0
1, 176113, Note_off_c, 1, 68, 0
1, 176116, Note_on_c, 1, 67, 127
1, 176467, Note_off_c, 1, 61, 0
1, 176471, Note_on_c, 1, 59, 127
1, 176820, Note_off_c, 1, 67, 0
1, 176821, Note_off_c, 1, 59, 0
1, 176824, Note_on_c, 1, 75, 127
1, 176824, Note_on_c, 1, 71, 127
1, 176824, Note_on_c, 1, 58, 127
1, 176997, Note_off_c, 1, 75, 0
1, 177001, Note_on_c, 1, 73, 127
1, 177172, Note_off_c, 1, 71, 0
1, 177174, Note_off_c, 1, 58, 0
1, 177174, Note_off_c, 1, 73, 0
1, 177179, Note_on_c, 1, 71, 127
1, 177179, Note_on_c, 1, 56, 127
1, 177356, Note_on_c, 1, 75, 127
1, 177527, Note_off_c, 1, 71, 0
1, 177529, Note_off_c, 1, 75, 0
1, 177533, Note_on_c, 1, 73, 127
1, 177533, Note_on_c, 1, 70, 127
1, 177706, Note_off_c, 1, 73, 0
1, 177883, Note_off_c, 1, 56, 0
1, 177887, Note_on_c, 1, 55, 127
1, 178060, Note_off_c, 1, 55, 0
1, 178063, Note_on_c, 1, 53, 127
1, 178236, Note_off_c, 1, 53, 0
1, 178590, Note_off_c, 1, 70, 0
1, 179128, Note_on_c, 1, 58, 127
1, 179304, Note_off_c, 1, 58, 0
1, 179307, Note_on_c, 1, 63, 127
1, 179662, Note_off_c, 1, 63, 0
1, 179668, Note_on_c, 1, 68, 127
1, 179847, Note_on_c, 1, 57, 127
1, 180023, Note_off_c, 1, 57, 0
1, 180028, Note_on_c, 1, 59, 127
1, 180204, Note_off_c, 1, 59, 0
1, 180742, Note_off_c, 1, 68, 0
1, 180746, Note_on_c, 1, 66, 127
1, 180922, Note_off_c, 1, 66, 0
1, 180926, Note_on_c, 1, 64, 127
1, 181102, Note_off_c, 1, 64, 0
1, 181465, Note_on_c, 1, 61, 127
1, 181465, Note_on_c, 1, 76, 127
1, 181641, Note_off_c, 1, 61, 0
1, 181820, Note_off_c, 1, 76, 0
1, 182544, Note_on_c, 1, 60, 127
1, 182720, Note_off_c, 1, 60, 0
1, 182902, Note_on_c, 1, 78, 127
1, 183257, Note_off_c, 1, 78, 0
1, 183622, Note_on_c, 1, 49, 127
1, 183798, Note_off_c, 1, 49, 0
1, 183801, Note_on_c, 1, 51, 127
1, 183977, Note_off_c, 1, 51, 0
1, 183982, Note_on_c, 1, 52, 127
1, 184337, Note_off_c, 1, 52, 0
1, 184339, Note_on_c, 1, 54, 127
1, 184693, Note_off_c, 1, 54, 0
1, 184698, Note_on_c, 1, 72, 127
1, 185414, Note_off_c, 1, 72, 0
1, 187574, Note_on_c, 1, 80, 127
1, 187754, Note_off_c, 1, 80, 0
1, 188120, Note_on_c, 1, 81, 127
1, 188300, Note_off_c, 1, 81, 0
1, 188303, Note_on_c, 1, 80, 127
1, 188303, Note_on_c, 1, 52, 127
1, 188303, Note_on_c, 1, 73, 127
1, 188483, Note_off_c, 1, 80, 0
1, 188483, Note_off_c, 1, 52, 0
1, 188485, Note_on_c, 1, 78, 127
1, 188485, Note_on_c, 1, 57, 127
1, 188665, Note_off_c, 1, 78, 0
1, 188665, Note_off_c, 1, 57, 0
1, 188668, Note_on_c, 1, 76, 127
1, 188668, Note_on_c, 1, 56, 127
1, 188848, Note_off_c, 1, 76, 0
1, 188848, Note_off_c, 1, 56, 0
1, 189033, Note_on_c, 1, 51, 127
1, 189213, Note_off_c, 1, 51, 0
1, 189215, Note_on_c, 1, 49, 127
1, 189395, Note_off_c, 1, 49, 0
1, 189755, Note_off_c, 1, 73, 0
1, 189763, Note_on_c, 1, 78, 127
1, 189763, Note_on_c, 1, 51, 127
1, 189763, Note_on_c, 1, 72, 127
1, 189943, Note_off_c, 1, 78, 0
1, 189943, Note_off_c, 1, 51, 0
1, 189945, Note_on_c, 1, 76, 127
1, 189945, Note_on_c, 1, 56, 127
1, 190122, Note_off_c, 1, 72, 0
1, 190125, Note_off_c, 1, 76, 0
1, 190125, Note_off_c, 1, 56, 0
1, 190129, Note_on_c, 1, 75, 127
1, 190129, Note_on_c, 1, 54, 127
1, 190129, Note_on_c, 1, 71, 127
1, 190309, Note_off_c, 1, 75, 0
1, 190309, Note_off_c, 1, 54, 0
1, 190310, Note_on_c, 1, 78, 127
1, 190310, Note_on_c, 1, 56, 127
1, 190490, Note_off_c, 1, 78, 0
1, 190490, Note_off_c, 1, 56, 0
1, 190494, Note_on_c, 1, 77, 127
1, 190494, Note_on_c, 1, 49, 127
1, 190673, Note_off_c, 1, 71, 0
1, 190858, Note_on_c, 1, 73, 127
1, 190858, Note_on_c, 1, 61, 127
1, 191038, Note_off_c, 1, 73, 0
1, 191040, Note_on_c, 1, 74, 127
1, 191220, Note_off_c, 1, 61, 0
1, 191220, Note_off_c, 1, 74, 0
1, 191221, Note_off_c, 1, 77, 0
1, 191221, Note_off_c, 1, 49, 0
1, 191223, Note_on_c, 1, 73, 127
1, 191223, Note_on_c, 1, 66, 127
1, 191223, Note_on_c, 1, 81, 127
1, 191403, Note_off_c, 1, 73, 0
1, 191405, Note_on_c, 1, 71, 127
1, 191585, Note_off_c, 1, 66, 0
1, 191585, Note_off_c, 1, 71, 0
1, 191587, Note_on_c, 1, 69, 127
1, 191767, Note_off_c, 1, 69, 0
1, 191950, Note_off_c, 1, 81, 0
1, 191952, Note_on_c, 1, 71, 127
1, 191952, Note_on_c, 1, 66, 127
1, 191952, Note_on_c, 1, 80, 127
1, 192132, Note_off_c, 1, 71, 0
1, 192135, Note_on_c, 1, 69, 127
1, 192314, Note_off_c, 1, 66, 0
1, 192315, Note_off_c, 1, 69, 0
1, 192317, Note_on_c, 1, 65, 127
1, 192497, Note_off_c, 1, 65, 0
1, 192499, Note_on_c, 1, 73, 127
1, 192499, Note_on_c, 1, 63, 127
1, 192679, Note_off_c, 1, 73, 0
1, 192679, Note_off_c, 1, 63, 0
1, 193047, Note_on_c, 1, 68, 127
1, 193227, Note_off_c, 1, 68, 0
1, 193774, Note_off_c, 1, 80, 0
1, 193776, Note_on_c, 1, 78, 127
1, 193776, Note_on_c, 1, 54, 127
1, 193956, Note_off_c, 1, 78, 0
1, 193956, Note_off_c, 1, 54, 0
1, 193958, Note_on_c, 1, 76, 127
1, 193958, Note_on_c, 1, 56, 127
1, 194138, Note_off_c, 1, 76, 0
1, 194138, Note_off_c, 1, 56, 0
1, 194141, Note_on_c, 1, 74, 127
1, 194141, Note_on_c, 1, 57, 127
1, 194321, Note_off_c, 1, 74, 0
1, 194503, Note_off_c, 1, 57, 0
1, 194504, Note_on_c, 1, 59, 127
1, 194866, Note_off_c, 1, 59, 0
1, 194871, Note_on_c, 1, 61, 127
1, 194871, Note_on_c, 1, 68, 127
1, 194871, Note_on_c, 1, 53, 127
1, 195051, Note_off_c, 1, 61, 0
1, 195053, Note_on_c, 1, 59, 127
1, 195233, Note_off_c, 1, 59, 0
1, 195235, Note_on_c, 1, 73, 127
1, 195417, Note_on_c, 1, 62, 127
1, 195597, Note_off_c, 1, 73, 0
1, 195597, Note_off_c, 1, 62, 0
1, 195598, Note_off_c, 1, 68, 0
1, 195598, Note_off_c, 1, 53, 0
1, 195600, Note_on_c, 1, 61, 127
1, 195600, Note_on_c, 1, 57, 127
1, 195600, Note_on_c, 1, 78, 127
1, 195780, Note_off_c, 1, 61, 0
1, 195783, Note_on_c, 1, 59, 127
1, 195959, Note_off_c, 1, 57, 0
1, 195962, Note_off_c, 1, 78, 0
1, 195963, Note_off_c, 1, 59, 0
1, 195964, Note_on_c, 1, 57, 127
1, 195964, Note_on_c, 1, 78, 127
1, 196147, Note_on_c, 1, 61, 127
1, 196323, Note_off_c, 1, 57, 0
1, 196326, Note_off_c, 1, 78, 0
1, 196327, Note_off_c, 1, 61, 0
1, 196330, Note_on_c, 1, 59, 127
1, 196330, Note_on_c, 1, 78, 127
1, 196330, Note_on_c, 1, 56, 127
1, 196510, Note_off_c, 1, 59, 0
1, 196512, Note_on_c, 1, 57, 127
1, 196692, Note_off_c, 1, 78, 0
1, 196692, Note_off_c, 1, 57, 0
1, 196694, Note_on_c, 1, 76, 127
1, 196874, Note_off_c, 1, 76, 0
1, 196876, Note_on_c, 1, 74, 127
1, 196876, Note_on_c, 1, 61, 127
1, 197056, Note_off_c, 1, 74, 0
1, 197056, Note_off_c, 1, 61, 0
1, 197420, Note_off_c, 1, 56, 0
1, 197789, Note_on_c, 1, 54, 127
1, 198336, Note_on_c, 1, 73, 127
1, 198516, Note_off_c, 1, 73, 0
1, 198518, Note_on_c, 1, 69, 127
1, 199065, Note_on_c, 1, 62, 127
1, 199241, Note_off_c, 1, 54, 0
1, 199246, Note_off_c, 1, 69, 0
1, 199246, Note_off_c, 1, 62, 0
1, 199249, Note_on_c, 1, 64, 127
1, 199249, Note_on_c, 1, 68, 127
1, 199429, Note_off_c, 1, 64, 0
1, 199614, Note_on_c, 1, 52, 127
1, 199795, Note_on_c, 1, 66, 127
1, 199973, Note_off_c, 1, 52, 0
1, 199975, Note_off_c, 1, 66, 0
1, 199976, Note_off_c, 1, 68, 0
1, 199979, Note_on_c, 1, 64, 127
1, 199979, Note_on_c, 1, 57, 127
1, 199979, Note_on_c, 1, 73, 127
1, 200159, Note_off_c, 1, 64, 0
1, 200160, Note_on_c, 1, 62, 127
1, 200338, Note_off_c, 1, 57, 0
1, 200340, Note_off_c, 1, 62, 0
1, 200343, Note_on_c, 1, 61, 127
1, 200523, Note_off_c, 1, 61, 0
1, 200706, Note_off_c, 1, 73, 0
1, 200709, Note_on_c, 1, 62, 127
1, 200709, Note_on_c, 1, 57, 127
1, 200709, Note_on_c, 1, 78, 127
1, 200709, Note_on_c, 1, 71, 127
1, 200889, Note_off_c, 1, 62, 0
1, 200891, Note_on_c, 1, 61, 127
1, 201068, Note_off_c, 1, 57, 0
1, 201071, Note_off_c, 1, 61, 0
1, 201073, Note_on_c, 1, 56, 127
1, 201253, Note_off_c, 1, 56, 0
1, 201255, Note_on_c, 1, 64, 127
1, 201255, Note_on_c, 1, 54, 127
1, 201435, Note_off_c, 1, 64, 0
1, 201435, Note_off_c, 1, 54, 0
1, 201436, Note_off_c, 1, 78, 0
1, 201437, Note_on_c, 1, 76, 127
1, 201802, Note_on_c, 1, 59, 127
1, 201982, Note_off_c, 1, 59, 0
1, 202528, Note_off_c, 1, 76, 0
1, 202531, Note_off_c, 1, 71, 0
1, 202897, Note_on_c, 1, 76, 127
1, 202897, Note_on_c, 1, 61, 127
1, 202897, Note_on_c, 1, 69, 127
1, 202897, Note_on_c, 1, 54, 127
1, 203077, Note_off_c, 1, 76, 0
1, 203077, Note_off_c, 1, 61, 0
1, 203079, Note_on_c, 1, 74, 127
1, 203079, Note_on_c, 1, 59, 127
1, 203256, Note_off_c, 1, 69, 0
1, 203259, Note_off_c, 1, 74, 0
1, 203259, Note_off_c, 1, 59, 0
1, 203261, Note_on_c, 1, 73, 127
1, 203261, Note_on_c, 1, 57, 127
1, 203441, Note_off_c, 1, 73, 0
1, 203441, Note_off_c, 1, 57, 0
1, 203624, Note_off_c, 1, 54, 0
1, 203627, Note_on_c, 1, 74, 127
1, 203627, Note_on_c, 1, 69, 127
1, 203627, Note_on_c, 1, 47, 127
1, 203627, Note_on_c, 1, 59, 127
1, 203807, Note_off_c, 1, 74, 0
1, 203809, Note_on_c, 1, 73, 127
1, 203986, Note_off_c, 1, 69, 0
1, 203989, Note_off_c, 1, 73, 0
1, 203991, Note_on_c, 1, 68, 127
1, 204171, Note_off_c, 1, 68, 0
1, 204173, Note_on_c, 1, 76, 127
1, 204173, Note_on_c, 1, 66, 127
1, 204353, Note_off_c, 1, 76, 0
1, 204353, Note_off_c, 1, 66, 0
1, 204354, Note_off_c, 1, 47, 0
1, 204356, Note_on_c, 1, 52, 127
1, 204720, Note_on_c, 1, 71, 127
1, 204900, Note_off_c, 1, 71, 0
1, 205079, Note_off_c, 1, 59, 0
1, 205084, Note_off_c, 1, 52, 0
1, 205088, Note_on_c, 1, 57, 127
1, 205088, Note_on_c, 1, 45, 127
1, 205268, Note_off_c, 1, 57, 0
1, 205270, Note_on_c, 1, 56, 127
1, 205450, Note_off_c, 1, 56, 0
1, 205451, Note_on_c, 1, 61, 127
1, 205451, Note_on_c, 1, 54, 127
1, 205631, Note_off_c, 1, 61, 0
1, 205631, Note_off_c, 1, 54, 0
1, 205634, Note_on_c, 1, 63, 127
1, 205814, Note_off_c, 1, 63, 0
1, 205816, Note_on_c, 1, 51, 127
1, 205816, Note_on_c, 1, 64, 127
1, 205996, Note_off_c, 1, 51, 0
1, 205999, Note_on_c, 1, 49, 127
1, 206178, Note_off_c, 1, 64, 0
1, 206179, Note_off_c, 1, 49, 0
1, 206180, Note_on_c, 1, 48, 127
1, 206360, Note_off_c, 1, 48, 0
1, 206540, Note_off_c, 1, 45, 0
1, 206548, Note_on_c, 1, 68, 127
1, 206548, Note_on_c, 1, 72, 127
1, 206548, Note_on_c, 1, 44, 127
1, 206548, Note_on_c, 1, 51, 127
1, 206733, Note_off_c, 1, 68, 0
1, 206753, Note_on_c, 1, 66, 127
1, 206938, Note_off_c, 1, 66, 0
1, 206941, Note_on_c, 1, 56, 127
1, 207128, Note_on_c, 1, 69, 127
1, 207296, Note_off_c, 1, 72, 0
1, 207296, Note_off_c, 1, 44, 0
1, 207296, Note_off_c, 1, 51, 0
1, 207313, Note_off_c, 1, 56, 0
1, 207313, Note_off_c, 1, 69, 0
1, 207316, Note_on_c, 1, 68, 127
1, 207316, Note_on_c, 1, 61, 127
1, 207316, Note_on_c, 1, 76, 127
1, 207501, Note_off_c, 1, 68, 0
1, 207503, Note_on_c, 1, 66, 127
1, 207688, Note_off_c, 1, 61, 0
1, 207688, Note_off_c, 1, 66, 0
1, 207691, Note_on_c, 1, 64, 127
1, 207876, Note_off_c, 1, 64, 0
1, 208064, Note_off_c, 1, 76, 0
1, 208066, Note_on_c, 1, 66, 127
1, 208066, Note_on_c, 1, 61, 127
1, 208066, Note_on_c, 1, 75, 127
1, 208251, Note_off_c, 1, 66, 0
1, 208255, Note_on_c, 1, 64, 127
1, 208438, Note_off_c, 1, 61, 0
1, 208440, Note_off_c, 1, 64, 0
1, 208442, Note_on_c, 1, 60, 127
1, 208627, Note_off_c, 1, 60, 0
1, 208629, Note_on_c, 1, 58, 127
1, 208629, Note_on_c, 1, 68, 127
1, 208814, Note_off_c, 1, 58, 0
1, 208814, Note_off_c, 1, 68, 0
1, 209193, Note_on_c, 1, 63, 127
1, 209378, Note_off_c, 1, 63, 0
1, 209942, Note_off_c, 1, 75, 0
1, 210320, Note_on_c, 1, 64, 127
1, 210320, Note_on_c, 1, 73, 127
1, 210320, Note_on_c, 1, 57, 127
1, 210505, Note_off_c, 1, 64, 0
1, 210508, Note_on_c, 1, 63, 127
1, 210690, Note_off_c, 1, 73, 0
1, 210693, Note_off_c, 1, 63, 0
1, 210696, Note_on_c, 1, 61, 127
1, 210881, Note_off_c, 1, 61, 0
1, 211068, Note_off_c, 1, 57, 0
1, 211071, Note_on_c, 1, 63, 127
1, 211071, Note_on_c, 1, 73, 127
1, 211071, Note_on_c, 1, 54, 127
1, 211256, Note_off_c, 1, 63, 0
1, 211258, Note_on_c, 1, 61, 127
1, 211441, Note_off_c, 1, 73, 0
1, 211443, Note_off_c, 1, 61, 0
1, 211447, Note_on_c, 1, 71, 127
1, 211632, Note_off_c, 1, 71, 0
1, 211634, Note_on_c, 1, 64, 127
1, 211634, Note_on_c, 1, 69, 127
1, 211819, Note_off_c, 1, 54, 0
1, 211819, Note_off_c, 1, 64, 0
1, 211819, Note_off_c, 1, 69, 0
1, 211821, Note_on_c, 1, 62, 127
1, 211821, Note_on_c, 1, 56, 127
1, 211821, Note_on_c, 1, 71, 127
1, 212006, Note_off_c, 1, 62, 0
1, 212010, Note_on_c, 1, 61, 127
1, 212195, Note_off_c, 1, 61, 0
1, 212196, Note_on_c, 1, 59, 127
1, 212381, Note_off_c, 1, 59, 0
1, 212569, Note_off_c, 1, 56, 0
1, 212573, Note_on_c, 1, 53, 127
1, 212948, Note_on_c, 1, 49, 127
1, 213315, Note_off_c, 1, 71, 0
1, 213322, Note_off_c, 1, 53, 0
1, 213322, Note_off_c, 1, 49, 0
1, 213325, Note_on_c, 1, 61, 127
1, 213325, Note_on_c, 1, 54, 127
1, 213325, Note_on_c, 1, 69, 127
1, 213510, Note_off_c, 1, 61, 0
1, 213513, Note_on_c, 1, 64, 127
1, 213697, Note_off_c, 1, 54, 0
1, 213698, Note_off_c, 1, 64, 0
1, 213701, Note_on_c, 1, 63, 127
1, 213886, Note_off_c, 1, 63, 0
1, 214073, Note_off_c, 1, 69, 0
1, 214077, Note_on_c, 1, 54, 127
1, 214077, Note_on_c, 1, 60, 127
1, 214077, Note_on_c, 1, 68, 127
1, 214077, Note_on_c, 1, 56, 127
1, 214456, Note_off_c, 1, 54, 0
1, 214459, Note_on_c, 1, 52, 127
1, 214459, Note_on_c, 1, 44, 127
1, 214647, Note_off_c, 1, 52, 0
1, 214650, Note_on_c, 1, 51, 127
1, 214835, Note_off_c, 1, 44, 0
1, 214837, Note_off_c, 1, 51, 0
1, 214838, Note_off_c, 1, 60, 0
1, 214838, Note_off_c, 1, 68, 0
1, 214840, Note_on_c, 1, 49, 127
1, 214840, Note_on_c, 1, 61, 127
1, 215219, Note_off_c, 1, 49, 0
1, 215597, Note_off_c, 1, 56, 0
1, 215601, Note_off_c, 1, 61, 0
1, 215604, Note_on_c, 1, 49, 127
1, 215604, Note_on_c, 1, 63, 127
1, 215604, Note_on_c, 1, 55, 127
1, 215604, Note_on_c, 1, 51, 127
1, 215604, Note_on_c, 1, 75, 127
1, 215983, Note_off_c, 1, 49, 0
1, 215983, Note_off_c, 1, 63, 0
1, 215988, Note_on_c, 1, 47, 127
1, 216176, Note_off_c, 1, 47, 0
1, 216178, Note_on_c, 1, 46, 127
1, 216366, Note_off_c, 1, 55, 0
1, 216366, Note_off_c, 1, 46, 0
1, 216371, Note_on_c, 1, 68, 127
1, 216371, Note_on_c, 1, 56, 127
1, 216559, Note_off_c, 1, 68, 0
1, 216563, Note_on_c, 1, 70, 127
1, 216751, Note_off_c, 1, 70, 0
1, 216755, Note_on_c, 1, 44, 127
1, 216755, Note_on_c, 1, 71, 127
1, 216943, Note_off_c, 1, 44, 0
1, 217128, Note_off_c, 1, 51, 0
1, 217128, Note_off_c, 1, 75, 0
1, 217134, Note_off_c, 1, 56, 0
1, 217137, Note_on_c, 1, 53, 127
1, 217137, Note_on_c, 1, 74, 127
1, 217513, Note_off_c, 1, 53, 0
1, 217517, Note_off_c, 1, 71, 0
1, 217899, Note_off_c, 1, 74, 0
1, 217903, Note_on_c, 1, 46, 127
1, 217903, Note_on_c, 1, 75, 127
1, 217903, Note_on_c, 1, 78, 127
1, 218091, Note_off_c, 1, 46, 0
1, 218096, Note_on_c, 1, 44, 127
1, 218283, Note_off_c, 1, 75, 0
1, 218284, Note_off_c, 1, 44, 0
1, 218287, Note_on_c, 1, 42, 127
1, 218475, Note_off_c, 1, 42, 0
1, 218666, Note_off_c, 1, 78, 0
1, 218671, Note_on_c, 1, 44, 127
1, 218671, Note_on_c, 1, 75, 127
1, 218671, Note_on_c, 1, 77, 127
1, 218859, Note_off_c, 1, 44, 0
1, 218863, Note_on_c, 1, 42, 127
1, 219051, Note_off_c, 1, 75, 0
1, 219051, Note_off_c, 1, 42, 0
1, 219055, Note_on_c, 1, 73, 127
1, 219243, Note_off_c, 1, 73, 0
1, 219246, Note_on_c, 1, 46, 127
1, 219246, Note_on_c, 1, 72, 127
1, 219434, Note_off_c, 1, 77, 0
1, 219434, Note_off_c, 1, 46, 0
1, 219434, Note_off_c, 1, 72, 0
1, 219437, Note_on_c, 1, 44, 127
1, 219437, Note_on_c, 1, 76, 127
1, 219437, Note_on_c, 1, 73, 127
1, 219625, Note_off_c, 1, 44, 0
1, 219630, Note_on_c, 1, 47, 127
1, 219818, Note_off_c, 1, 47, 0
1, 219821, Note_on_c, 1, 46, 127
1, 220009, Note_off_c, 1, 46, 0
1, 220200, Note_off_c, 1, 76, 0
1, 220205, Note_on_c, 1, 75, 127
1, 220205, Note_on_c, 1, 43, 127
1, 220388, Note_off_c, 1, 73, 0
1, 220393, Note_off_c, 1, 75, 0
1, 220588, Note_on_c, 1, 51, 127
1, 220967, Note_off_c, 1, 43, 0
1, 220968, Note_off_c, 1, 51, 0
1, 220971, Note_on_c, 1, 75, 127
1, 220971, Note_on_c, 1, 71, 127
1, 220971, Note_on_c, 1, 56, 127
1, 220971, Note_on_c, 1, 44, 127
1, 221159, Note_off_c, 1, 75, 0
1, 221163, Note_on_c, 1, 73, 127
1, 221347, Note_off_c, 1, 71, 0
1, 221350, Note_off_c, 1, 56, 0
1, 221350, Note_off_c, 1, 73, 0
1, 221730, Note_off_c, 1, 44, 0
1, 221734, Note_on_c, 1, 73, 127
1, 221734, Note_on_c, 1, 56, 127
1, 221734, Note_on_c, 1, 46, 127
1, 221734, Note_on_c, 1, 70, 127
1, 221922, Note_off_c, 1, 73, 0
1, 221925, Note_on_c, 1, 71, 127
1, 222113, Note_off_c, 1, 71, 0
1, 222114, Note_off_c, 1, 56, 0
1, 222117, Note_on_c, 1, 54, 127
1, 222305, Note_off_c, 1, 54, 0
1, 222309, Note_on_c, 1, 52, 127
1, 222309, Note_on_c, 1, 75, 127
1, 222497, Note_off_c, 1, 46, 0
1, 222497, Note_off_c, 1, 70, 0
1, 222497, Note_off_c, 1, 52, 0
1, 222497, Note_off_c, 1, 75, 0
1, 222500, Note_on_c, 1, 73, 127
1, 222500, Note_on_c, 1, 51, 127
1, 222500, Note_on_c, 1, 54, 127
1, 222500, Note_on_c, 1, 69, 127
1, 222688, Note_off_c, 1, 73, 0
1, 222693, Note_on_c, 1, 76, 127
1, 222881, Note_off_c, 1, 76, 0
1, 222884, Note_on_c, 1, 75, 127
1, 223072, Note_off_c, 1, 75, 0
1, 223263, Note_off_c, 1, 51, 0
1, 223268, Note_on_c, 1, 44, 127
1, 223268, Note_on_c, 1, 72, 127
1, 223456, Note_off_c, 1, 54, 0
1, 223458, Note_on_c, 1, 57, 127
1, 223644, Note_off_c, 1, 69, 0
1, 223646, Note_off_c, 1, 57, 0
1, 223651, Note_on_c, 1, 56, 127
1, 223651, Note_on_c, 1, 63, 127
1, 223839, Note_off_c, 1, 56, 0
1, 224030, Note_off_c, 1, 44, 0
1, 224030, Note_off_c, 1, 72, 0
1, 224031, Note_off_c, 1, 63, 0
1, 224033, Note_on_c, 1, 53, 127
1, 224033, Note_on_c, 1, 68, 127
1, 224033, Note_on_c, 1, 71, 127
1, 224221, Note_off_c, 1, 53, 0
1, 224225, Note_on_c, 1, 51, 127
1, 224413, Note_off_c, 1, 68, 0
1, 224413, Note_off_c, 1, 51, 0
1, 224609, Note_on_c, 1, 49, 127
1, 224796, Note_off_c, 1, 71, 0
1, 224797, Note_off_c, 1, 49, 0
1, 224802, Note_on_c, 1, 54, 127
1, 224802, Note_on_c, 1, 70, 127
1, 224990, Note_off_c, 1, 54, 0
1, 225185, Note_on_c, 1, 66, 127
1, 225373, Note_off_c, 1, 66, 0
1, 225377, Note_on_c, 1, 56, 127
1, 225377, Note_on_c, 1, 65, 127
1, 225565, Note_off_c, 1, 70, 0
1, 225565, Note_off_c, 1, 56, 0
1, 225565, Note_off_c, 1, 65, 0
1, 225569, Note_on_c, 1, 57, 127
1, 225569, Note_on_c, 1, 69, 127
1, 225569, Note_on_c, 1, 66, 127
1, 225757, Note_off_c, 1, 57, 0
1, 225760, Note_on_c, 1, 56, 127
1, 225948, Note_off_c, 1, 56, 0
1, 226143, Note_on_c, 1, 59, 127
1, 226331, Note_off_c, 1, 59, 0
1, 226332, Note_off_c, 1, 69, 0
1, 226353, Note_on_c, 1, 61, 127
1, 226353, Note_on_c, 1, 68, 127
1, 226353, Note_on_c, 1, 37, 127
1, 226542, Note_off_c, 1, 61, 0
1, 226546, Note_on_c, 1, 60, 127
1, 226735, Note_off_c, 1, 60, 0
1, 226932, Note_on_c, 1, 63, 127
1, 227101, Note_off_c, 1, 66, 0
1, 227121, Note_off_c, 1, 63, 0
1, 227122, Note_off_c, 1, 68, 0
1, 227126, Note_on_c, 1, 64, 127
1, 227506, Note_off_c, 1, 64, 0
1, 227894, Note_off_c, 1, 37, 0
1, 227898, Note_on_c, 1, 68, 127
1, 227898, Note_on_c, 1, 63, 127
1, 227898, Note_on_c, 1, 36, 127
1, 228087, Note_off_c, 1, 68, 0
1, 228090, Note_on_c, 1, 66, 127
1, 228279, Note_off_c, 1, 66, 0
1, 228284, Note_on_c, 1, 44, 127
1, 228478, Note_on_c, 1, 69, 127
1, 228667, Note_off_c, 1, 63, 0
1, 228667, Note_off_c, 1, 36, 0
1, 228667, Note_off_c, 1, 44, 0
1, 228667, Note_off_c, 1, 69, 0
1, 228669, Note_on_c, 1, 68, 127
1, 228669, Note_on_c, 1, 49, 127
1, 228669, Note_on_c, 1, 61, 127
1, 228669, Note_on_c, 1, 40, 127
1, 228858, Note_off_c, 1, 68, 0
1, 228862, Note_on_c, 1, 66, 127
1, 229051, Note_off_c, 1, 66, 0
1, 229052, Note_off_c, 1, 49, 0
1, 229056, Note_on_c, 1, 64, 127
1, 229245, Note_off_c, 1, 64, 0
1, 229438, Note_off_c, 1, 61, 0
1, 229438, Note_off_c, 1, 40, 0
1, 229443, Note_on_c, 1, 66, 127
1, 229443, Note_on_c, 1, 49, 127
1, 229443, Note_on_c, 1, 63, 127
1, 229443, Note_on_c, 1, 39, 127
1, 229632, Note_off_c, 1, 66, 0
1, 229635, Note_on_c, 1, 64, 127
1, 229824, Note_off_c, 1, 64, 0
1, 229826, Note_off_c, 1, 49, 0
1, 229829, Note_on_c, 1, 48, 127
1, 230018, Note_off_c, 1, 48, 0
1, 230021, Note_on_c, 1, 68, 127
1, 230021, Note_on_c, 1, 46, 127
1, 230210, Note_off_c, 1, 68, 0
1, 230210, Note_off_c, 1, 46, 0
1, 230597, Note_off_c, 1, 63, 0
1, 230980, Note_off_c, 1, 39, 0
1, 230998, Note_on_c, 1, 37, 127
1, 230998, Note_on_c, 1, 73, 127
1, 231381, Note_off_c, 1, 37, 0
1, 231776, Note_on_c, 1, 40, 127
1, 232159, Note_off_c, 1, 40, 0
1, 232162, Note_on_c, 1, 61, 127
1, 232162, Note_on_c, 1, 42, 127
1, 232351, Note_off_c, 1, 61, 0
1, 232535, Note_off_c, 1, 73, 0
1, 232545, Note_off_c, 1, 42, 0
1, 232549, Note_on_c, 1, 44, 127
1, 232549, Note_on_c, 1, 63, 127
1, 232549, Note_on_c, 1, 72, 127
1, 232738, Note_off_c, 1, 44, 0
1, 232741, Note_on_c, 1, 42, 127
1, 232930, Note_off_c, 1, 42, 0
1, 232934, Note_on_c, 1, 68, 127
1, 233128, Note_on_c, 1, 45, 127
1, 233317, Note_off_c, 1, 68, 0
1, 233317, Note_off_c, 1, 45, 0
1, 233318, Note_off_c, 1, 63, 0
1, 233318, Note_off_c, 1, 72, 0
1, 233322, Note_on_c, 1, 44, 127
1, 233322, Note_on_c, 1, 73, 127
1, 233322, Note_on_c, 1, 76, 127
1, 233511, Note_off_c, 1, 44, 0
1, 233513, Note_on_c, 1, 42, 127
1, 233702, Note_off_c, 1, 42, 0
1, 233705, Note_off_c, 1, 73, 0
1, 233707, Note_on_c, 1, 40, 127
1, 233896, Note_off_c, 1, 40, 0
1, 234091, Note_off_c, 1, 76, 0
1, 234093, Note_on_c, 1, 42, 127
1, 234093, Note_on_c, 1, 73, 127
1, 234093, Note_on_c, 1, 75, 127
1, 234282, Note_off_c, 1, 42, 0
1, 234285, Note_on_c, 1, 40, 127
1, 234474, Note_off_c, 1, 40, 0
1, 234476, Note_off_c, 1, 73, 0
1, 234479, Note_on_c, 1, 72, 127
1, 234668, Note_off_c, 1, 72, 0
1, 234673, Note_on_c, 1, 44, 127
1, 234673, Note_on_c, 1, 70, 127
1, 234862, Note_off_c, 1, 44, 0
1, 234862, Note_off_c, 1, 70, 0
1, 235247, Note_off_c, 1, 75, 0
1, 235252, Note_on_c, 1, 39, 127
1, 235252, Note_on_c, 1, 75, 127
1, 235441, Note_off_c, 1, 39, 0
1, 235444, Note_on_c, 1, 42, 127
1, 235444, Note_on_c, 1, 72, 127
1, 235633, Note_off_c, 1, 42, 0
1, 235633, Note_off_c, 1, 72, 0
1, 235638, Note_on_c, 1, 68, 127
1, 235638, Note_on_c, 1, 40, 127
1, 235827, Note_off_c, 1, 68, 0
1, 235831, Note_on_c, 1, 66, 127
1, 236020, Note_off_c, 1, 66, 0
1, 236021, Note_off_c, 1, 40, 0
1, 236025, Note_on_c, 1, 52, 127
1, 236217, Note_on_c, 1, 69, 127
1, 236406, Note_off_c, 1, 75, 0
1, 236406, Note_off_c, 1, 69, 0
1, 236408, Note_off_c, 1, 52, 0
1, 236411, Note_on_c, 1, 68, 127
1, 236411, Note_on_c, 1, 57, 127
1, 236411, Note_on_c, 1, 73, 127
1, 236600, Note_off_c, 1, 68, 0
1, 236605, Note_on_c, 1, 66, 127
1, 236794, Note_off_c, 1, 57, 0
1, 236794, Note_off_c, 1, 66, 0
1, 236796, Note_on_c, 1, 64, 127
1, 236985, Note_off_c, 1, 64, 0
1, 237180, Note_off_c, 1, 73, 0
1, 237183, Note_on_c, 1, 66, 127
1, 237183, Note_on_c, 1, 57, 127
1, 237183, Note_on_c, 1, 73, 127
1, 237372, Note_off_c, 1, 66, 0
1, 237377, Note_on_c, 1, 64, 127
1, 237566, Note_off_c, 1, 57, 0
1, 237566, Note_off_c, 1, 64, 0
1, 237569, Note_on_c, 1, 56, 127
1, 237758, Note_off_c, 1, 56, 0
1, 237763, Note_on_c, 1, 54, 127
1, 237763, Note_on_c, 1, 68, 127
1, 237952, Note_off_c, 1, 73, 0
1, 237952, Note_off_c, 1, 54, 0
1, 237952, Note_off_c, 1, 68, 0
1, 237956, Note_on_c, 1, 66, 127
1, 237956, Note_on_c, 1, 56, 127
1, 237956, Note_on_c, 1, 72, 127
1, 238145, Note_off_c, 1, 66, 0
1, 238148, Note_on_c, 1, 64, 127
1, 238337, Note_off_c, 1, 64, 0
1, 238339, Note_off_c, 1, 56, 0
1, 238341, Note_on_c, 1, 63, 127
1, 238341, Note_on_c, 1, 44, 127
1, 238530, Note_off_c, 1, 63, 0
1, 238724, Note_off_c, 1, 44, 0
1, 238725, Note_off_c, 1, 72, 0
1, 238729, Note_on_c, 1, 64, 127
1, 238729, Note_on_c, 1, 49, 127
1, 238918, Note_off_c, 1, 64, 0
1, 238921, Note_on_c, 1, 68, 127
1, 239110, Note_off_c, 1, 68, 0
1, 239114, Note_on_c, 1, 69, 127
1, 239114, Note_on_c, 1, 73, 127
1, 239114, Note_on_c, 1, 47, 127
1, 239303, Note_off_c, 1, 69, 0
1, 239303, Note_off_c, 1, 73, 0
1, 239308, Note_on_c, 1, 71, 127
1, 239308, Note_on_c, 1, 75, 127
1, 239497, Note_off_c, 1, 47, 0
1, 239497, Note_off_c, 1, 71, 0
1, 239497, Note_off_c, 1, 75, 0
1, 239500, Note_on_c, 1, 76, 127
1, 239500, Note_on_c, 1, 45, 127
1, 239880, Note_off_c, 1, 76, 0
1, 239886, Note_on_c, 1, 72, 127
1, 239886, Note_on_c, 1, 78, 127
1, 240075, Note_off_c, 1, 72, 0
1, 240265, Note_off_c, 1, 78, 0
1, 240266, Note_off_c, 1, 49, 0
1, 240268, Note_off_c, 1, 45, 0
1, 240272, Note_on_c, 1, 80, 127
1, 240272, Note_on_c, 1, 75, 127
1, 240272, Note_on_c, 1, 44, 127
1, 240272, Note_on_c, 1, 48, 127
1, 240480, Note_off_c, 1, 80, 0
1, 240482, Note_on_c, 1, 78, 127
1, 240652, Note_off_c, 1, 75, 0
1, 240655, Note_off_c, 1, 44, 0
1, 240671, Note_off_c, 1, 78, 0
1, 240676, Note_on_c, 1, 56, 127
1, 240868, Note_on_c, 1, 81, 127
1, 241041, Note_off_c, 1, 48, 0
1, 241057, Note_off_c, 1, 81, 0
1, 241059, Note_off_c, 1, 56, 0
1, 241061, Note_on_c, 1, 80, 127
1, 241061, Note_on_c, 1, 61, 127
1, 241061, Note_on_c, 1, 52, 127
1, 241250, Note_off_c, 1, 80, 0
1, 241254, Note_on_c, 1, 78, 127
1, 241443, Note_off_c, 1, 78, 0
1, 241444, Note_off_c, 1, 61, 0
1, 241448, Note_on_c, 1, 76, 127
1, 241637, Note_off_c, 1, 76, 0
1, 241830, Note_off_c, 1, 52, 0
1, 241834, Note_on_c, 1, 78, 127
1, 241834, Note_on_c, 1, 61, 127
1, 241834, Note_on_c, 1, 51, 127
1, 242023, Note_off_c, 1, 78, 0
1, 242028, Note_on_c, 1, 76, 127
1, 242217, Note_off_c, 1, 61, 0
1, 242217, Note_off_c, 1, 76, 0
1, 242219, Note_on_c, 1, 60, 127
1, 242408, Note_off_c, 1, 60, 0
1, 242413, Note_on_c, 1, 80, 127
1, 242413, Note_on_c, 1, 58, 127
1, 242602, Note_off_c, 1, 80, 0
1, 242602, Note_off_c, 1, 58, 0
1, 242992, Note_on_c, 1, 75, 127
1, 243181, Note_off_c, 1, 75, 0
1, 243371, Note_off_c, 1, 51, 0
1, 243380, Note_on_c, 1, 76, 127
1, 243380, Note_on_c, 1, 49, 127
1, 243380, Note_on_c, 1, 61, 127
1, 243569, Note_off_c, 1, 76, 0
1, 243572, Note_on_c, 1, 75, 127
1, 243761, Note_off_c, 1, 75, 0
1, 243763, Note_off_c, 1, 49, 0
1, 243764, Note_on_c, 1, 52, 127
1, 243958, Note_on_c, 1, 78, 127
1, 244147, Note_off_c, 1, 52, 0
1, 244147, Note_off_c, 1, 78, 0
1, 244149, Note_off_c, 1, 61, 0
1, 244152, Note_on_c, 1, 76, 127
1, 244152, Note_on_c, 1, 57, 127
1, 244152, Note_on_c, 1, 61, 127
1, 244341, Note_off_c, 1, 76, 0
1, 244345, Note_on_c, 1, 74, 127
1, 244534, Note_off_c, 1, 74, 0
1, 244535, Note_off_c, 1, 57, 0
1, 244535, Note_off_c, 1, 61, 0
1, 244537, Note_on_c, 1, 73, 127
1, 244537, Note_on_c, 1, 57, 127
1, 244537, Note_on_c, 1, 61, 127
1, 244726, Note_off_c, 1, 73, 0
1, 244731, Note_on_c, 1, 76, 127
1, 244920, Note_off_c, 1, 57, 0
1, 244920, Note_off_c, 1, 61, 0
1, 244920, Note_off_c, 1, 76, 0
1, 244923, Note_on_c, 1, 74, 127
1, 244923, Note_on_c, 1, 57, 127
1, 244923, Note_on_c, 1, 59, 127
1, 245112, Note_off_c, 1, 74, 0
1, 245117, Note_on_c, 1, 73, 127
1, 245306, Note_off_c, 1, 57, 0
1, 245306, Note_off_c, 1, 73, 0
1, 245310, Note_on_c, 1, 56, 127
1, 245310, Note_on_c, 1, 66, 127
1, 245499, Note_off_c, 1, 56, 0
1, 245503, Note_on_c, 1, 76, 127
1, 245503, Note_on_c, 1, 54, 127
1, 245690, Note_off_c, 1, 66, 0
1, 245692, Note_off_c, 1, 76, 0
1, 245692, Note_off_c, 1, 54, 0
1, 245696, Note_on_c, 1, 71, 127
1, 246076, Note_off_c, 1, 71, 0
1, 246077, Note_off_c, 1, 59, 0
1, 246468, Note_on_c, 1, 65, 127
1, 246856, Note_on_c, 1, 69, 127
1, 246856, Note_on_c, 1, 49, 127
1, 247045, Note_off_c, 1, 69, 0
1, 247048, Note_on_c, 1, 68, 127
1, 247237, Note_off_c, 1, 65, 0
1, 247237, Note_off_c, 1, 68, 0
1, 247239, Note_off_c, 1, 49, 0
1, 247242, Note_on_c, 1, 73, 127
1, 247242, Note_on_c, 1, 69, 127
1, 247242, Note_on_c, 1, 54, 127
1, 247242, Note_on_c, 1, 66, 127
1, 247431, Note_off_c, 1, 73, 0
1, 247435, Note_on_c, 1, 71, 127
1, 247622, Note_off_c, 1, 69, 0
1, 247624, Note_off_c, 1, 71, 0
1, 247625, Note_off_c, 1, 54, 0
1, 248011, Note_off_c, 1, 66, 0
1, 248014, Note_on_c, 1, 71, 127
1, 248014, Note_on_c, 1, 54, 127
1, 248014, Note_on_c, 1, 59, 127
1, 248014, Note_on_c, 1, 68, 127
1, 248014, Note_on_c, 1, 56, 127
1, 248203, Note_off_c, 1, 71, 0
1, 248207, Note_on_c, 1, 69, 127
1, 248396, Note_off_c, 1, 69, 0
1, 248397, Note_off_c, 1, 54, 0
1, 248400, Note_on_c, 1, 53, 127
1, 248589, Note_off_c, 1, 53, 0
1, 248593, Note_on_c, 1, 73, 127
1, 248593, Note_on_c, 1, 51, 127
1, 248782, Note_off_c, 1, 73, 0
1, 248782, Note_off_c, 1, 51, 0
1, 248783, Note_off_c, 1, 59, 0
1, 248787, Note_on_c, 1, 61, 127
1, 249168, Note_off_c, 1, 68, 0
1, 249551, Note_off_c, 1, 56, 0
1, 249558, Note_on_c, 1, 57, 127
1, 249943, Note_on_c, 1, 66, 127
1, 250132, Note_off_c, 1, 66, 0
1, 250137, Note_on_c, 1, 65, 127
1, 250326, Note_off_c, 1, 65, 0
1, 250327, Note_off_c, 1, 57, 0
1, 250513, Note_off_c, 1, 61, 0
1, 251489, Note_on_c, 1, 52, 127
1, 251678, Note_off_c, 1, 52, 0
1, 252262, Note_on_c, 1, 49, 127
1, 252454, Note_on_c, 1, 64, 127
1, 252643, Note_off_c, 1, 64, 0
1, 252645, Note_off_c, 1, 49, 0
1, 252648, Note_on_c, 1, 63, 127
1, 252648, Note_on_c, 1, 72, 127
1, 252648, Note_on_c, 1, 56, 127
1, 252841, Note_off_c, 1, 63, 0
1, 252844, Note_on_c, 1, 69, 127
1, 253037, Note_off_c, 1, 69, 0
1, 253041, Note_on_c, 1, 68, 127
1, 253041, Note_on_c, 1, 44, 127
1, 253234, Note_off_c, 1, 68, 0
1, 253239, Note_on_c, 1, 66, 127
1, 253431, Note_off_c, 1, 44, 0
1, 253432, Note_off_c, 1, 66, 0
1, 253433, Note_off_c, 1, 72, 0
1, 253433, Note_off_c, 1, 56, 0
1, 253437, Note_on_c, 1, 64, 127
1, 253437, Note_on_c, 1, 49, 127
1, 253437, Note_on_c, 1, 76, 127
1, 253437, Note_on_c, 1, 56, 127
1, 253630, Note_off_c, 1, 64, 0
1, 253633, Note_on_c, 1, 68, 127
1, 253826, Note_off_c, 1, 68, 0
1, 253827, Note_off_c, 1, 49, 0
1, 253831, Note_on_c, 1, 73, 127
1, 254024, Note_off_c, 1, 73, 0
1, 254028, Note_on_c, 1, 71, 127
1, 254221, Note_off_c, 1, 71, 0
1, 254222, Note_off_c, 1, 76, 0
1, 254222, Note_off_c, 1, 56, 0
1, 254224, Note_on_c, 1, 69, 127
1, 254224, Note_on_c, 1, 49, 127
1, 254224, Note_on_c, 1, 54, 127
1, 254224, Note_on_c, 1, 75, 127
1, 254417, Note_off_c, 1, 69, 0
1, 254422, Note_on_c, 1, 68, 127
1, 254614, Note_off_c, 1, 49, 0
1, 254615, Note_off_c, 1, 68, 0
1, 254618, Note_on_c, 1, 48, 127
1, 254811, Note_off_c, 1, 48, 0
1, 254815, Note_on_c, 1, 66, 127
1, 254815, Note_on_c, 1, 46, 127
1, 255008, Note_off_c, 1, 66, 0
1, 255008, Note_off_c, 1, 46, 0
1, 255009, Note_off_c, 1, 54, 0
1, 255013, Note_on_c, 1, 51, 127
1, 255401, Note_off_c, 1, 51, 0
1, 255801, Note_on_c, 1, 52, 127
1, 255801, Note_on_c, 1, 40, 127
1, 255994, Note_off_c, 1, 52, 0
1, 256194, Note_off_c, 1, 75, 0
1, 256195, Note_on_c, 1, 73, 127
1, 256393, Note_on_c, 1, 72, 127
1, 256583, Note_off_c, 1, 73, 0
1, 256586, Note_off_c, 1, 40, 0
1, 256586, Note_off_c, 1, 72, 0
1, 256591, Note_on_c, 1, 52, 127
1, 256591, Note_on_c, 1, 80, 127
1, 256591, Note_on_c, 1, 73, 127
1, 256784, Note_off_c, 1, 52, 0
1, 256788, Note_on_c, 1, 51, 127
1, 256981, Note_off_c, 1, 80, 0
1, 256981, Note_off_c, 1, 51, 0
1, 256985, Note_on_c, 1, 49, 127
1, 256985, Note_on_c, 1, 45, 127
1, 257178, Note_off_c, 1, 49, 0
1, 257373, Note_off_c, 1, 45, 0
1, 257379, Note_on_c, 1, 39, 127
1, 257771, Note_off_c, 1, 73, 0
1, 257775, Note_on_c, 1, 78, 127
1, 257775, Note_on_c, 1, 70, 127
1, 257968, Note_off_c, 1, 78, 0
1, 257971, Note_on_c, 1, 76, 127
1, 258163, Note_off_c, 1, 70, 0
1, 258164, Note_off_c, 1, 76, 0
1, 258165, Note_off_c, 1, 39, 0
1, 258168, Note_on_c, 1, 51, 127
1, 258168, Note_on_c, 1, 75, 127
1, 258168, Note_on_c, 1, 78, 127
1, 258361, Note_off_c, 1, 51, 0
1, 258366, Note_on_c, 1, 49, 127
1, 258558, Note_off_c, 1, 75, 0
1, 258559, Note_off_c, 1, 49, 0
1, 258562, Note_on_c, 1, 48, 127
1, 258562, Note_on_c, 1, 44, 127
1, 258755, Note_off_c, 1, 48, 0
1, 258950, Note_off_c, 1, 44, 0
1, 258953, Note_off_c, 1, 78, 0
1, 258956, Note_on_c, 1, 75, 127
1, 258956, Note_on_c, 1, 49, 127
1, 258956, Note_on_c, 1, 37, 127
1, 258956, Note_on_c, 1, 76, 127
1, 259348, Note_off_c, 1, 75, 0
1, 259348, Note_off_c, 1, 49, 0
1, 259348, Note_off_c, 1, 37, 0
1, 259370, Note_on_c, 1, 73, 127
1, 259370, Note_on_c, 1, 52, 127
1, 259563, Note_off_c, 1, 73, 0
1, 259567, Note_on_c, 1, 71, 127
1, 259760, Note_off_c, 1, 52, 0
1, 259760, Note_off_c, 1, 71, 0
1, 259764, Note_on_c, 1, 57, 127
1, 260156, Note_off_c, 1, 57, 0
1, 260528, Note_off_c, 1, 76, 0
1, 260556, Note_on_c, 1, 57, 127
1, 260556, Note_on_c, 1, 75, 127
1, 260556, Note_on_c, 1, 71, 127
1, 260948, Note_off_c, 1, 57, 0
1, 260951, Note_on_c, 1, 55, 127
1, 260951, Note_on_c, 1, 59, 127
1, 261144, Note_off_c, 1, 55, 0
1, 261149, Note_on_c, 1, 54, 127
1, 261339, Note_off_c, 1, 59, 0
1, 261342, Note_off_c, 1, 75, 0
1, 261342, Note_off_c, 1, 71, 0
1, 261342, Note_off_c, 1, 54, 0
1, 261346, Note_on_c, 1, 64, 127
1, 261346, Note_on_c, 1, 52, 127
1, 261346, Note_on_c, 1, 79, 127
1, 261346, Note_on_c, 1, 71, 127
1, 261738, Note_off_c, 1, 64, 0
1, 262133, Note_off_c, 1, 52, 0
1, 262133, Note_off_c, 1, 79, 0
1, 262133, Note_off_c, 1, 71, 0
1, 262137, Note_on_c, 1, 64, 127
1, 262137, Note_on_c, 1, 70, 127
1, 262137, Note_on_c, 1, 78, 127
1, 262529, Note_off_c, 1, 64, 0
1, 262533, Note_on_c, 1, 62, 127
1, 262533, Note_on_c, 1, 54, 127
1, 262726, Note_off_c, 1, 62, 0
1, 262728, Note_on_c, 1, 61, 127
1, 262921, Note_off_c, 1, 54, 0
1, 262921, Note_off_c, 1, 61, 0
1, 262923, Note_off_c, 1, 70, 0
1, 262923, Note_off_c, 1, 78, 0
1, 262926, Note_on_c, 1, 59, 127
1, 262926, Note_on_c, 1, 74, 127
1, 262926, Note_on_c, 1, 66, 127
1, 263318, Note_off_c, 1, 59, 0
1, 263713, Note_off_c, 1, 74, 0
1, 263713, Note_off_c, 1, 66, 0
1, 263718, Note_on_c, 1, 59, 127
1, 263718, Note_on_c, 1, 65, 127
1, 263718, Note_on_c, 1, 73, 127
1, 264110, Note_off_c, 1, 59, 0
1, 264113, Note_on_c, 1, 57, 127
1, 264113, Note_on_c, 1, 61, 127
1, 264306, Note_off_c, 1, 57, 0
1, 264310, Note_on_c, 1, 56, 127
1, 264503, Note_off_c, 1, 61, 0
1, 264503, Note_off_c, 1, 56, 0
1, 264504, Note_off_c, 1, 65, 0
1, 264508, Note_on_c, 1, 66, 127
1, 264508, Note_on_c, 1, 49, 127
1, 264508, Note_on_c, 1, 69, 127
1, 264898, Note_off_c, 1, 66, 0
1, 264902, Note_on_c, 1, 54, 127
1, 265095, Note_off_c, 1, 54, 0
1, 265100, Note_on_c, 1, 52, 127
1, 265289, Note_off_c, 1, 73, 0
1, 265294, Note_off_c, 1, 49, 0
1, 265294, Note_off_c, 1, 69, 0
1, 265294, Note_off_c, 1, 52, 0
1, 265298, Note_on_c, 1, 66, 127
1, 265298, Note_on_c, 1, 68, 127
1, 265298, Note_on_c, 1, 48, 127
1, 265298, Note_on_c, 1, 51, 127
1, 265706, Note_off_c, 1, 66, 0
1, 265706, Note_off_c, 1, 68, 0
1, 265710, Note_on_c, 1, 64, 127
1, 265914, Note_off_c, 1, 64, 0
1, 265916, Note_on_c, 1, 63, 127
1, 266118, Note_off_c, 1, 48, 0
1, 266118, Note_off_c, 1, 51, 0
1, 266118, Note_off_c, 1, 63, 0
1, 266122, Note_on_c, 1, 73, 127
1, 266122, Note_on_c, 1, 64, 127
1, 266122, Note_on_c, 1, 52, 127
1, 266530, Note_off_c, 1, 73, 0
1, 266530, Note_off_c, 1, 64, 0
1, 266534, Note_on_c, 1, 56, 127
1, 266942, Note_off_c, 1, 52, 0
1, 266942, Note_off_c, 1, 56, 0
1, 266944, Note_on_c, 1, 63, 127
1, 266944, Note_on_c, 1, 66, 127
1, 266944, Note_on_c, 1, 73, 127
1, 266944, Note_on_c, 1, 51, 127
1, 267352, Note_off_c, 1, 63, 0
1, 267352, Note_off_c, 1, 66, 0
1, 267352, Note_off_c, 1, 73, 0
1, 267356, Note_on_c, 1, 72, 127
1, 267560, Note_off_c, 1, 72, 0
1, 267564, Note_on_c, 1, 70, 127
1, 267766, Note_off_c, 1, 70, 0
1, 267768, Note_on_c, 1, 78, 127
1, 268173, Note_off_c, 1, 78, 0
1, 268180, Note_on_c, 1, 61, 127
1, 268180, Note_on_c, 1, 75, 127
1, 268384, Note_off_c, 1, 61, 0
1, 268386, Note_on_c, 1, 60, 127
1, 268386, Note_on_c, 1, 68, 127
1, 268584, Note_off_c, 1, 51, 0
1, 268586, Note_off_c, 1, 75, 0
1, 268590, Note_off_c, 1, 60, 0
1, 268590, Note_off_c, 1, 68, 0
1, 268592, Note_on_c, 1, 49, 127
1, 268592, Note_on_c, 1, 69, 127
1, 268592, Note_on_c, 1, 75, 127
1, 268592, Note_on_c, 1, 78, 127
1, 268592, Note_on_c, 1, 61, 127
1, 269013, Note_off_c, 1, 49, 0
1, 269013, Note_off_c, 1, 69, 0
1, 269013, Note_off_c, 1, 75, 0
1, 269013, Note_off_c, 1, 78, 0
1, 269016, Note_on_c, 1, 76, 127
1, 269016, Note_on_c, 1, 68, 127
1, 269016, Note_on_c, 1, 73, 127
1, 269016, Note_on_c, 1, 52, 127
1, 269225, Note_off_c, 1, 76, 0
1, 269225, Note_off_c, 1, 68, 0
1, 269225, Note_off_c, 1, 73, 0
1, 269229, Note_on_c, 1, 66, 127
1, 269229, Note_on_c, 1, 72, 127
1, 269435, Note_off_c, 1, 61, 0
1, 269437, Note_off_c, 1, 52, 0
1, 269438, Note_off_c, 1, 66, 0
1, 269438, Note_off_c, 1, 72, 0
1, 269441, Note_on_c, 1, 61, 127
1, 269441, Note_on_c, 1, 57, 127
1, 269441, Note_on_c, 1, 68, 127
1, 269441, Note_on_c, 1, 76, 127
1, 269441, Note_on_c, 1, 73, 127
1, 269862, Note_off_c, 1, 61, 0
1, 269862, Note_off_c, 1, 57, 0
1, 269862, Note_off_c, 1, 68, 0
1, 269862, Note_off_c, 1, 76, 0
1, 269863, Note_on_c, 1, 66, 127
1, 269863, Note_on_c, 1, 75, 127
1, 270072, Note_off_c, 1, 66, 0
1, 270072, Note_off_c, 1, 75, 0
1, 270074, Note_off_c, 1, 73, 0
1, 270076, Note_on_c, 1, 64, 127
1, 270285, Note_off_c, 1, 64, 0
1, 270288, Note_on_c, 1, 57, 127
1, 270288, Note_on_c, 1, 75, 127
1, 270288, Note_on_c, 1, 60, 127
1, 270288, Note_on_c, 1, 63, 127
1, 270288, Note_on_c, 1, 66, 127
1, 270709, Note_off_c, 1, 57, 0
1, 270709, Note_off_c, 1, 75, 0
1, 270713, Note_on_c, 1, 56, 127
1, 270713, Note_on_c, 1, 72, 127
1, 270922, Note_off_c, 1, 56, 0
1, 270923, Note_on_c, 1, 54, 127
1, 271131, Note_off_c, 1, 60, 0
1, 271131, Note_off_c, 1, 63, 0
1, 271131, Note_off_c, 1, 66, 0
1, 271132, Note_off_c, 1, 54, 0
1, 271134, Note_off_c, 1, 72, 0
1, 271135, Note_on_c, 1, 52, 127
1, 271135, Note_on_c, 1, 68, 127
1, 271135, Note_on_c, 1, 73, 127
1, 271135, Note_on_c, 1, 64, 127
1, 271344, Note_off_c, 1, 52, 0
1, 271348, Note_on_c, 1, 51, 127
1, 271557, Note_off_c, 1, 51, 0
1, 271560, Note_on_c, 1, 49, 127
1, 271769, Note_off_c, 1, 49, 0
1, 271771, Note_on_c, 1, 47, 127
1, 271980, Note_off_c, 1, 47, 0
1, 271983, Note_on_c, 1, 46, 127
1, 272825, Note_off_c, 1, 68, 0
1, 272825, Note_off_c, 1, 73, 0
1, 272825, Note_off_c, 1, 64, 0
1, 272825, Note_off_c, 1, 46, 0
1, 272829, Note_on_c, 1, 54, 127
1, 272829, Note_on_c, 1, 63, 127
1, 272829, Note_on_c, 1, 66, 127
1, 272829, Note_on_c, 1, 73, 127
1, 272829, Note_on_c, 1, 45, 127
1, 273250, Note_off_c, 1, 54, 0
1, 273250, Note_off_c, 1, 63, 0
1, 273254, Note_on_c, 1, 61, 127
1, 273672, Note_off_c, 1, 66, 0
1, 273672, Note_off_c, 1, 73, 0
1, 273675, Note_off_c, 1, 61, 0
1, 273677, Note_on_c, 1, 72, 127
1, 274096, Note_off_c, 1, 45, 0
1, 274101, Note_on_c, 1, 53, 127
1, 274101, Note_on_c, 1, 44, 127
1, 274101, Note_on_c, 1, 65, 127
1, 274310, Note_off_c, 1, 53, 0
1, 274310, Note_off_c, 1, 44, 0
1, 274310, Note_off_c, 1, 65, 0
1, 274312, Note_on_c, 1, 42, 127
1, 274312, Note_on_c, 1, 51, 127
1, 274520, Note_off_c, 1, 72, 0
1, 274521, Note_off_c, 1, 42, 0
1, 274521, Note_off_c, 1, 51, 0
1, 274524, Note_on_c, 1, 68, 127
1, 274524, Note_on_c, 1, 41, 127
1, 274524, Note_on_c, 1, 71, 127
1, 274524, Note_on_c, 1, 49, 127
1, 274945, Note_off_c, 1, 68, 0
1, 275367, Note_off_c, 1, 41, 0
1, 275367, Note_off_c, 1, 71, 0
1, 275372, Note_on_c, 1, 70, 127
1, 275372, Note_on_c, 1, 42, 127
1, 275796, Note_on_c, 1, 66, 127
1, 275796, Note_on_c, 1, 61, 127
1, 276005, Note_off_c, 1, 66, 0
1, 276008, Note_on_c, 1, 64, 127
1, 276211, Note_off_c, 1, 49, 0
1, 276214, Note_off_c, 1, 61, 0
1, 276215, Note_off_c, 1, 70, 0
1, 276217, Note_off_c, 1, 64, 0
1, 276220, Note_on_c, 1, 63, 127
1, 276220, Note_on_c, 1, 69, 127
1, 276220, Note_on_c, 1, 51, 127
1, 276641, Note_off_c, 1, 63, 0
1, 277057, Note_off_c, 1, 42, 0
1, 277062, Note_off_c, 1, 69, 0
1, 277066, Note_on_c, 1, 60, 127
1, 277066, Note_on_c, 1, 44, 127
1, 277486, Note_off_c, 1, 51, 0
1, 277909, Note_off_c, 1, 60, 0
1, 277914, Note_on_c, 1, 56, 127
1, 278335, Note_off_c, 1, 56, 0
1, 278751, Note_off_c, 1, 44, 0
1, 278760, Note_on_c, 1, 56, 127
1, 278760, Note_on_c, 1, 64, 127
1, 278760, Note_on_c, 1, 61, 127
1, 278760, Note_on_c, 1, 70, 127
1, 278760, Note_on_c, 1, 44, 127
1, 279181, Note_off_c, 1, 56, 0
1, 279181, Note_off_c, 1, 64, 0
1, 279184, Note_on_c, 1, 54, 127
1, 279184, Note_on_c, 1, 66, 127
1, 279393, Note_off_c, 1, 54, 0
1, 279393, Note_off_c, 1, 66, 0
1, 279395, Note_on_c, 1, 52, 127
1, 279395, Note_on_c, 1, 68, 127
1, 279603, Note_off_c, 1, 61, 0
1, 279603, Note_off_c, 1, 70, 0
1, 279604, Note_off_c, 1, 52, 0
1, 279604, Note_off_c, 1, 68, 0
1, 279607, Note_on_c, 1, 69, 127
1, 279607, Note_on_c, 1, 63, 127
1, 279607, Note_on_c, 1, 72, 127
1, 280028, Note_off_c, 1, 69, 0
1, 280445, Note_off_c, 1, 44, 0
1, 280449, Note_off_c, 1, 63, 0
1, 280449, Note_off_c, 1, 72, 0
1, 280454, Note_on_c, 1, 54, 127
1, 280454, Note_on_c, 1, 68, 127
1, 280454, Note_on_c, 1, 61, 127
1, 280454, Note_on_c, 1, 73, 127
1, 280454, Note_on_c, 1, 44, 127
1, 280875, Note_off_c, 1, 54, 0
1, 280875, Note_off_c, 1, 68, 0
1, 280875, Note_off_c, 1, 61, 0
1, 280878, Note_on_c, 1, 52, 127
1, 280878, Note_on_c, 1, 64, 127
1, 281087, Note_off_c, 1, 52, 0
1, 281089, Note_on_c, 1, 51, 127
1, 281298, Note_off_c, 1, 51, 0
1, 281299, Note_off_c, 1, 64, 0
1, 281300, Note_on_c, 1, 69, 127
1, 281300, Note_on_c, 1, 66, 127
1, 281721, Note_off_c, 1, 69, 0
1, 281721, Note_off_c, 1, 66, 0
1, 281937, Note_on_c, 1, 49, 127
1, 282141, Note_off_c, 1, 73, 0
1, 282146, Note_off_c, 1, 49, 0
1, 282149, Note_on_c, 1, 72, 127
1, 282571, Note_off_c, 1, 44, 0
1, 282783, Note_on_c, 1, 63, 127
1, 282992, Note_off_c, 1, 72, 0
1, 282992, Note_off_c, 1, 63, 0
1, 282997, Note_on_c, 1, 76, 127
1, 283421, Note_on_c, 1, 70, 127
1, 283630, Note_off_c, 1, 70, 0
1, 283840, Note_off_c, 1, 76, 0
1, 283843, Note_on_c, 1, 49, 127
1, 283843, Note_on_c, 1, 70, 127
1, 283843, Note_on_c, 1, 76, 127
1, 283843, Note_on_c, 1, 73, 127
1, 283843, Note_on_c, 1, 43, 127
1, 284278, Note_off_c, 1, 49, 0
1, 284283, Note_on_c, 1, 47, 127
1, 284500, Note_off_c, 1, 47, 0
1, 284503, Note_on_c, 1, 46, 127
1, 284718, Note_off_c, 1, 70, 0
1, 284718, Note_off_c, 1, 76, 0
1, 284718, Note_off_c, 1, 73, 0
1, 284720, Note_off_c, 1, 46, 0
1, 284722, Note_on_c, 1, 75, 127
1, 284722, Note_on_c, 1, 63, 127
1, 284722, Note_on_c, 1, 51, 127
1, 285172, Note_off_c, 1, 75, 0
1, 285591, Note_off_c, 1, 43, 0
1, 285596, Note_off_c, 1, 63, 0
1, 285600, Note_on_c, 1, 68, 127
1, 285600, Note_on_c, 1, 72, 127
1, 285600, Note_on_c, 1, 44, 127
1, 285817, Note_off_c, 1, 51, 0
1, 285819, Note_on_c, 1, 52, 127
1, 286036, Note_off_c, 1, 52, 0
1, 286039, Note_on_c, 1, 54, 127
1, 286475, Note_off_c, 1, 68, 0
1, 286475, Note_off_c, 1, 72, 0
1, 286478, Note_on_c, 1, 64, 127
1, 286694, Note_off_c, 1, 54, 0
1, 287349, Note_off_c, 1, 44, 0
1, 287353, Note_off_c, 1, 64, 0
1, 287356, Note_on_c, 1, 73, 127
1, 287356, Note_on_c, 1, 68, 127
1, 287356, Note_on_c, 1, 63, 127
1, 287356, Note_on_c, 1, 44, 127
1, 287356, Note_on_c, 1, 56, 127
1, 288230, Note_off_c, 1, 73, 0
1, 288230, Note_off_c, 1, 68, 0
1, 288233, Note_on_c, 1, 72, 127
1, 288666, Note_off_c, 1, 63, 0
1, 288672, Note_on_c, 1, 64, 127
1, 288889, Note_off_c, 1, 64, 0
1, 288891, Note_on_c, 1, 66, 127
1, 289108, Note_off_c, 1, 72, 0
1, 289108, Note_off_c, 1, 66, 0
1, 289109, Note_off_c, 1, 44, 0
1, 289109, Note_off_c, 1, 56, 0
1, 289129, Note_on_c, 1, 65, 127
1, 289129, Note_on_c, 1, 68, 127
1, 289129, Note_on_c, 1, 57, 127
1, 289129, Note_on_c, 1, 73, 127
1, 289129, Note_on_c, 1, 49, 127
1, 289582, Note_off_c, 1, 65, 0
1, 289585, Note_on_c, 1, 61, 127
1, 290037, Note_off_c, 1, 68, 0
1, 290042, Note_on_c, 1, 66, 127
1, 290493, Note_off_c, 1, 57, 0
1, 290497, Note_on_c, 1, 56, 127
1, 290722, Note_off_c, 1, 56, 0
1, 290943, Note_off_c, 1, 73, 0
1, 290943, Note_off_c, 1, 49, 0
1, 290950, Note_off_c, 1, 66, 0
1, 290954, Note_on_c, 1, 59, 127
1, 291417, Note_off_c, 1, 61, 0
1, 291426, Note_off_c, 1, 59, 0
1, 291901, Note_on_c, 1, 69, 127
1, 292372, Note_off_c, 1, 69, 0
1, 292374, Note_on_c, 1, 54, 127
1, 292846, Note_off_c, 1, 54, 0
1, 292850, Note_on_c, 1, 61, 127
1, 292850, Note_on_c, 1, 66, 127
1, 292850, Note_on_c, 1, 73, 127
1, 292850, Note_on_c, 1, 68, 127
1, 292850, Note_on_c, 1, 49, 127
1, 293350, Note_off_c, 1, 61, 0
1, 293354, Note_on_c, 1, 59, 127
1, 293602, Note_off_c, 1, 59, 0
1, 293606, Note_on_c, 1, 57, 127
1, 293854, Note_off_c, 1, 66, 0
1, 293854, Note_off_c, 1, 57, 0
1, 293858, Note_on_c, 1, 56, 127
1, 293858, Note_on_c, 1, 65, 127
1, 294446, Note_off_c, 1, 56, 0
1, 294449, Note_on_c, 1, 54, 127
1, 294743, Note_off_c, 1, 65, 0
1, 294746, Note_on_c, 1, 63, 127
1, 295032, Note_off_c, 1, 73, 0
1, 295032, Note_off_c, 1, 68, 0
1, 295032, Note_off_c, 1, 49, 0
1, 295038, Note_off_c, 1, 54, 0
1, 295038, Note_off_c, 1, 63, 0
1, 295065, Note_on_c, 1, 49, 127
1, 295066, Note_on_c, 1, 56, 127
1, 295067, Note_on_c, 1, 65, 127
1, 295068, Note_on_c, 1, 68, 127
1, 295069, Note_on_c, 1, 73, 127
1, 299616, Note_off_c, 1, 49, 0
1, 299616, Note_off_c, 1, 56, 0
1, 299616, Note_off_c, 1, 65, 0
1, 299616, Note_off_c, 1, 68, 0
1, 299616, Note_off_c, 1, 73, 0
1, 299616, End_track
0, 0, End_of_file