0, 0, Header, 1, 1, 480
1, 0, Start_track
1, 0, Title_t, "Test"
1, 0, Tempo, 500000
1, 0, Instrument_name_t, "Church Organ"
1, 58, Note_on_c, 1, 77, 127
1, 58, Note_on_c, 1, 49, 127
1, 156, Note_off_c, 1, 77, 0
1, 160, Note_on_c, 1, 73, 127
1, 258, Note_off_c, 1, 73, 0
1, 262, Note_on_c, 1, 68, 127
1, 360, Note_off_c, 1, 68, 0
1, 464, Note_off_c, 1, 49, 0
1, 467, Note_on_c, 1, 77, 127
1, 467, Note_on_c, 1, 61, 127
1, 565, Note_off_c, 1, 77, 0
1, 569, Note_on_c, 1, 73, 127
1, 667, Note_off_c, 1, 73, 0
1, 668, Note_off_c, 1, 61, 0
1, 671, Note_on_c, 1, 78, 127
1, 671, Note_on_c, 1, 51, 127
1, 769, Note_off_c, 1, 78, 0
1, 774, Note_on_c, 1, 73, 127
1, 872, Note_off_c, 1, 73, 0
1, 1077, Note_off_c, 1, 51, 0
1, 1080, Note_on_c, 1, 78, 127
1, 1080, Note_on_c, 1, 61, 127
1, 1178, Note_off_c, 1, 78, 0
1, 1182, Note_on_c, 1, 73, 127
1, 1280, Note_off_c, 1, 73, 0
1, 1281, Note_off_c, 1, 61, 0
1, 1285, Note_on_c, 1, 80, 127
1, 1285, Note_on_c, 1, 53, 127
1, 1383, Note_off_c, 1, 80, 0
1, 1387, Note_on_c, 1, 73, 127
1, 1485, Note_off_c, 1, 73, 0
1, 1691, Note_off_c, 1, 53, 0
1, 1694, Note_on_c, 1, 80, 127
1, 1694, Note_on_c, 1, 61, 127
1, 1792, Note_off_c, 1, 80, 0
1, 1796, Note_on_c, 1, 73, 127
1, 1894, Note_off_c, 1, 73, 0
1, 1895, Note_off_c, 1, 61, 0
1, 1898, Note_on_c, 1, 82, 127
1, 1898, Note_on_c, 1, 54, 127
1, 1996, Note_off_c, 1, 82, 0
1, 2000, Note_on_c, 1, 73, 127
1, 2098, Note_off_c, 1, 73, 0
1, 2304, Note_off_c, 1, 54, 0
1, 2306, Note_on_c, 1, 82, 127
1, 2306, Note_on_c, 1, 61, 127
1, 2404, Note_off_c, 1, 82, 0
1, 2409, Note_on_c, 1, 73, 127
1, 2507, Note_off_c, 1, 61, 0
1, 2507, Note_off_c, 1, 73, 0
1, 2510, Note_on_c, 1, 80, 127
1, 2510, Note_on_c, 1, 53, 127
1, 2608, Note_off_c, 1, 80, 0
1, 2613, Note_on_c, 1, 73, 127
1, 2711, Note_off_c, 1, 73, 0
1, 2916, Note_off_c, 1, 53, 0
1, 2920, Note_on_c, 1, 80, 127
1, 2920, Note_on_c, 1, 61, 127
1, 3018, Note_off_c, 1, 80, 0
1, 3021, Note_on_c, 1, 73, 127
1, 3119, Note_off_c, 1, 73, 0
1, 3121, Note_off_c, 1, 61, 0
1, 3124, Note_on_c, 1, 78, 127
1, 3124, Note_on_c, 1, 51, 127
1, 3222, Note_off_c, 1, 78, 0
1, 3226, Note_on_c, 1, 77, 127
1, 3324, Note_off_c, 1, 77, 0
1, 3329, Note_on_c, 1, 75, 127
1, 3427, Note_off_c, 1, 75, 0
1, 3530, Note_off_c, 1, 51, 0
1, 3532, Note_on_c, 1, 78, 127
1, 3532, Note_on_c, 1, 60, 127
1, 3630, Note_off_c, 1, 78, 0
1, 3635, Note_on_c, 1, 75, 127
1, 3733, Note_off_c, 1, 60, 0
1, 3733, Note_off_c, 1, 75, 0
1, 3737, Note_on_c, 1, 77, 127
1, 3737, Note_on_c, 1, 49, 127
1, 3835, Note_off_c, 1, 77, 0
1, 3840, Note_on_c, 1, 75, 127
1, 3938, Note_off_c, 1, 75, 0
1, 3941, Note_on_c, 1, 73, 127
1, 4039, Note_off_c, 1, 73, 0
1, 4143, Note_off_c, 1, 49, 0
1, 4146, Note_on_c, 1, 77, 127
1, 4146, Note_on_c, 1, 61, 127
1, 4244, Note_off_c, 1, 77, 0
1, 4249, Note_on_c, 1, 73, 127
1, 4347, Note_off_c, 1, 73, 0
1, 4350, Note_on_c, 1, 75, 127
1, 4448, Note_off_c, 1, 75, 0
1, 4552, Note_off_c, 1, 61, 0
1, 4554, Note_on_c, 1, 75, 127
1, 4554, Note_on_c, 1, 60, 127
1, 4652, Note_off_c, 1, 75, 0
1, 4652, Note_off_c, 1, 60, 0
1, 4656, Note_on_c, 1, 73, 127
1, 4656, Note_on_c, 1, 58, 127
1, 4754, Note_off_c, 1, 73, 0
1, 4754, Note_off_c, 1, 58, 0
1, 4759, Note_on_c, 1, 72, 127
1, 4759, Note_on_c, 1, 56, 127
1, 4857, Note_off_c, 1, 72, 0
1, 4857, Note_off_c, 1, 56, 0
1, 4861, Note_on_c, 1, 70, 127
1, 4861, Note_on_c, 1, 58, 127
1, 4959, Note_off_c, 1, 70, 0
1, 4959, Note_off_c, 1, 58, 0
1, 4963, Note_on_c, 1, 60, 127
1, 4963, Note_on_c, 1, 68, 127
1, 5061, Note_off_c, 1, 60, 0
1, 5065, Note_on_c, 1, 56, 127
1, 5163, Note_off_c, 1, 56, 0
1, 5168, Note_on_c, 1, 51, 127
1, 5266, Note_off_c, 1, 51, 0
1, 5369, Note_off_c, 1, 68, 0
1, 5372, Note_on_c, 1, 60, 127
1, 5372, Note_on_c, 1, 80, 127
1, 5470, Note_off_c, 1, 60, 0
1, 5474, Note_on_c, 1, 56, 127
1, 5498, Note_off_c, 1, 80, 0
1, 5572, Note_off_c, 1, 56, 0
1, 5576, Note_on_c, 1, 61, 127
1, 5576, Note_on_c, 1, 70, 127
1, 5674, Note_off_c, 1, 61, 0
1, 5679, Note_on_c, 1, 56, 127
1, 5777, Note_off_c, 1, 56, 0
1, 5982, Note_off_c, 1, 70, 0
1, 5985, Note_on_c, 1, 61, 127
1, 5985, Note_on_c, 1, 80, 127
1, 6083, Note_off_c, 1, 61, 0
1, 6087, Note_on_c, 1, 56, 127
1, 6111, Note_off_c, 1, 80, 0
1, 6185, Note_off_c, 1, 56, 0
1, 6190, Note_on_c, 1, 63, 127
1, 6190, Note_on_c, 1, 72, 127
1, 6288, Note_off_c, 1, 63, 0
1, 6292, Note_on_c, 1, 56, 127
1, 6390, Note_off_c, 1, 56, 0
1, 6596, Note_off_c, 1, 72, 0
1, 6599, Note_on_c, 1, 63, 127
1, 6599, Note_on_c, 1, 80, 127
1, 6697, Note_off_c, 1, 63, 0
1, 6700, Note_on_c, 1, 56, 127
1, 6725, Note_off_c, 1, 80, 0
1, 6798, Note_off_c, 1, 56, 0
1, 6803, Note_on_c, 1, 65, 127
1, 6803, Note_on_c, 1, 73, 127
1, 6901, Note_off_c, 1, 65, 0
1, 6904, Note_on_c, 1, 56, 127
1, 7002, Note_off_c, 1, 56, 0
1, 7209, Note_off_c, 1, 73, 0
1, 7211, Note_on_c, 1, 65, 127
1, 7211, Note_on_c, 1, 80, 127
1, 7309, Note_off_c, 1, 65, 0
1, 7313, Note_on_c, 1, 56, 127
1, 7337, Note_off_c, 1, 80, 0
1, 7411, Note_off_c, 1, 56, 0
1, 7415, Note_on_c, 1, 63, 127
1, 7415, Note_on_c, 1, 72, 127
1, 7513, Note_off_c, 1, 63, 0
1, 7518, Note_on_c, 1, 56, 127
1, 7616, Note_off_c, 1, 56, 0
1, 7821, Note_off_c, 1, 72, 0
1, 7824, Note_on_c, 1, 63, 127
1, 7824, Note_on_c, 1, 80, 127
1, 7922, Note_off_c, 1, 63, 0
1, 7926, Note_on_c, 1, 56, 127
1, 7950, Note_off_c, 1, 80, 0
1, 8024, Note_off_c, 1, 56, 0
1, 8029, Note_on_c, 1, 61, 127
1, 8029, Note_on_c, 1, 70, 127
1, 8127, Note_off_c, 1, 61, 0
1, 8131, Note_on_c, 1, 60, 127
1, 8229, Note_off_c, 1, 60, 0
1, 8234, Note_on_c, 1, 58, 127
1, 8332, Note_off_c, 1, 58, 0
1, 8435, Note_off_c, 1, 70, 0
1, 8438, Note_on_c, 1, 61, 127
1, 8438, Note_on_c, 1, 79, 127
1, 8536, Note_off_c, 1, 61, 0
1, 8540, Note_on_c, 1, 58, 127
1, 8564, Note_off_c, 1, 79, 0
1, 8638, Note_off_c, 1, 58, 0
1, 8642, Note_on_c, 1, 60, 127
1, 8642, Note_on_c, 1, 68, 127
1, 8740, Note_off_c, 1, 60, 0
1, 8745, Note_on_c, 1, 58, 127
1, 8843, Note_off_c, 1, 58, 0
1, 8846, Note_on_c, 1, 56, 127
1, 8944, Note_off_c, 1, 56, 0
1, 9048, Note_off_c, 1, 68, 0
1, 9050, Note_on_c, 1, 60, 127
1, 9050, Note_on_c, 1, 80, 127
1, 9148, Note_off_c, 1, 60, 0
1, 9153, Note_on_c, 1, 56, 127
1, 9251, Note_off_c, 1, 56, 0
1, 9254, Note_on_c, 1, 58, 127
1, 9352, Note_off_c, 1, 58, 0
1, 9357, Note_on_c, 1, 59, 127
1, 9455, Note_off_c, 1, 59, 0
1, 9456, Note_off_c, 1, 80, 0
1, 9459, Note_on_c, 1, 78, 127
1, 9459, Note_on_c, 1, 58, 127
1, 9557, Note_off_c, 1, 78, 0
1, 9557, Note_off_c, 1, 58, 0
1, 9561, Note_on_c, 1, 77, 127
1, 9561, Note_on_c, 1, 56, 127
1, 9659, Note_off_c, 1, 77, 0
1, 9659, Note_off_c, 1, 56, 0
1, 9664, Note_on_c, 1, 75, 127
1, 9664, Note_on_c, 1, 54, 127
1, 9762, Note_off_c, 1, 75, 0
1, 9762, Note_off_c, 1, 54, 0
1, 9765, Note_on_c, 1, 77, 127
1, 9765, Note_on_c, 1, 53, 127
1, 9863, Note_off_c, 1, 77, 0
1, 9863, Note_off_c, 1, 53, 0
1, 9868, Note_on_c, 1, 78, 127
1, 9868, Note_on_c, 1, 51, 127
1, 9966, Note_off_c, 1, 78, 0
1, 9970, Note_on_c, 1, 75, 127
1, 10068, Note_off_c, 1, 75, 0
1, 10073, Note_on_c, 1, 70, 127
1, 10171, Note_off_c, 1, 70, 0
1, 10274, Note_off_c, 1, 51, 0
1, 10277, Note_on_c, 1, 78, 127
1, 10277, Note_on_c, 1, 63, 127
1, 10375, Note_off_c, 1, 78, 0
1, 10379, Note_on_c, 1, 75, 127
1, 10477, Note_off_c, 1, 75, 0
1, 10478, Note_off_c, 1, 63, 0
1, 10481, Note_on_c, 1, 80, 127
1, 10481, Note_on_c, 1, 53, 127
1, 10579, Note_off_c, 1, 80, 0
1, 10584, Note_on_c, 1, 75, 127
1, 10682, Note_off_c, 1, 75, 0
1, 10887, Note_off_c, 1, 53, 0
1, 10890, Note_on_c, 1, 80, 127
1, 10890, Note_on_c, 1, 63, 127
1, 10988, Note_off_c, 1, 80, 0
1, 10993, Note_on_c, 1, 75, 127
1, 11091, Note_off_c, 1, 63, 0
1, 11091, Note_off_c, 1, 75, 0
1, 11095, Note_on_c, 1, 82, 127
1, 11095, Note_on_c, 1, 54, 127
1, 11193, Note_off_c, 1, 82, 0
1, 11196, Note_on_c, 1, 75, 127
1, 11294, Note_off_c, 1, 75, 0
1, 11501, Note_off_c, 1, 54, 0
1, 11503, Note_on_c, 1, 82, 127
1, 11503, Note_on_c, 1, 63, 127
1, 11601, Note_off_c, 1, 82, 0
1, 11605, Note_on_c, 1, 75, 127
1, 11703, Note_off_c, 1, 75, 0
1, 11704, Note_off_c, 1, 63, 0
1, 11707, Note_on_c, 1, 83, 127
1, 11707, Note_on_c, 1, 56, 127
1, 11805, Note_off_c, 1, 83, 0
1, 11809, Note_on_c, 1, 75, 127
1, 11907, Note_off_c, 1, 75, 0
1, 12113, Note_off_c, 1, 56, 0
1, 12116, Note_on_c, 1, 83, 127
1, 12116, Note_on_c, 1, 63, 127
1, 12214, Note_off_c, 1, 83, 0
1, 12218, Note_on_c, 1, 75, 127
1, 12316, Note_off_c, 1, 75, 0
1, 12317, Note_off_c, 1, 63, 0
1, 12320, Note_on_c, 1, 82, 127
1, 12320, Note_on_c, 1, 54, 127
1, 12418, Note_off_c, 1, 82, 0
1, 12423, Note_on_c, 1, 75, 127
1, 12521, Note_off_c, 1, 75, 0
1, 12726, Note_off_c, 1, 54, 0
1, 12729, Note_on_c, 1, 82, 127
1, 12729, Note_on_c, 1, 63, 127
1, 12827, Note_off_c, 1, 82, 0
1, 12832, Note_on_c, 1, 75, 127
1, 12930, Note_off_c, 1, 63, 0
1, 12930, Note_off_c, 1, 75, 0
1, 12934, Note_on_c, 1, 80, 127
1, 12934, Note_on_c, 1, 53, 127
1, 13032, Note_off_c, 1, 80, 0
1, 13036, Note_on_c, 1, 78, 127
1, 13134, Note_off_c, 1, 78, 0
1, 13138, Note_on_c, 1, 77, 127
1, 13236, Note_off_c, 1, 77, 0
1, 13340, Note_off_c, 1, 53, 0
1, 13343, Note_on_c, 1, 80, 127
1, 13343, Note_on_c, 1, 62, 127
1, 13441, Note_off_c, 1, 80, 0
1, 13445, Note_on_c, 1, 77, 127
1, 13543, Note_off_c, 1, 77, 0
1, 13544, Note_off_c, 1, 62, 0
1, 13548, Note_on_c, 1, 78, 127
1, 13548, Note_on_c, 1, 51, 127
1, 13646, Note_off_c, 1, 78, 0
1, 13649, Note_on_c, 1, 77, 127
1, 13747, Note_off_c, 1, 77, 0
1, 13750, Note_on_c, 1, 75, 127
1, 13848, Note_off_c, 1, 75, 0
1, 13954, Note_off_c, 1, 51, 0
1, 13955, Note_on_c, 1, 78, 127
1, 13955, Note_on_c, 1, 63, 127
1, 14053, Note_off_c, 1, 78, 0
1, 14053, Note_off_c, 1, 63, 0
1, 14058, Note_on_c, 1, 75, 127
1, 14058, Note_on_c, 1, 62, 127
1, 14156, Note_off_c, 1, 75, 0
1, 14156, Note_off_c, 1, 62, 0
1, 14159, Note_on_c, 1, 77, 127
1, 14159, Note_on_c, 1, 63, 127
1, 14257, Note_off_c, 1, 77, 0
1, 14262, Note_on_c, 1, 78, 127
1, 14360, Note_off_c, 1, 63, 0
1, 14360, Note_off_c, 1, 78, 0
1, 14364, Note_on_c, 1, 77, 127
1, 14364, Note_on_c, 1, 61, 127
1, 14462, Note_off_c, 1, 77, 0
1, 14462, Note_off_c, 1, 61, 0
1, 14467, Note_on_c, 1, 75, 127
1, 14467, Note_on_c, 1, 60, 127
1, 14565, Note_off_c, 1, 75, 0
1, 14565, Note_off_c, 1, 60, 0
1, 14568, Note_on_c, 1, 73, 127
1, 14568, Note_on_c, 1, 58, 127
1, 14666, Note_off_c, 1, 73, 0
1, 14666, Note_off_c, 1, 58, 0
1, 14670, Note_on_c, 1, 72, 127
1, 14670, Note_on_c, 1, 60, 127
1, 14768, Note_off_c, 1, 72, 0
1, 14768, Note_off_c, 1, 60, 0
1, 14773, Note_on_c, 1, 61, 127
1, 14773, Note_on_c, 1, 70, 127
1, 14871, Note_off_c, 1, 61, 0
1, 14875, Note_on_c, 1, 58, 127
1, 14973, Note_off_c, 1, 58, 0
1, 14978, Note_on_c, 1, 53, 127
1, 15076, Note_off_c, 1, 53, 0
1, 15182, Note_on_c, 1, 82, 127
1, 15383, Note_off_c, 1, 70, 0
1, 15383, Note_off_c, 1, 82, 0
1, 15387, Note_on_c, 1, 63, 127
1, 15387, Note_on_c, 1, 72, 127
1, 15485, Note_off_c, 1, 63, 0
1, 15489, Note_on_c, 1, 58, 127
1, 15587, Note_off_c, 1, 58, 0
1, 15795, Note_on_c, 1, 82, 127
1, 15996, Note_off_c, 1, 82, 0
1, 15997, Note_off_c, 1, 72, 0
1, 16000, Note_on_c, 1, 65, 127
1, 16000, Note_on_c, 1, 73, 127
1, 16098, Note_off_c, 1, 65, 0
1, 16101, Note_on_c, 1, 58, 127
1, 16199, Note_off_c, 1, 58, 0
1, 16408, Note_on_c, 1, 82, 127
1, 16609, Note_off_c, 1, 82, 0
1, 16610, Note_off_c, 1, 73, 0
1, 16612, Note_on_c, 1, 66, 127
1, 16612, Note_on_c, 1, 75, 127
1, 16710, Note_off_c, 1, 66, 0
1, 16714, Note_on_c, 1, 58, 127
1, 16812, Note_off_c, 1, 58, 0
1, 17021, Note_on_c, 1, 82, 127
1, 17222, Note_off_c, 1, 75, 0
1, 17222, Note_off_c, 1, 82, 0
1, 17225, Note_on_c, 1, 65, 127
1, 17225, Note_on_c, 1, 73, 127
1, 17323, Note_off_c, 1, 65, 0
1, 17328, Note_on_c, 1, 58, 127
1, 17426, Note_off_c, 1, 58, 0
1, 17634, Note_on_c, 1, 82, 127
1, 17835, Note_off_c, 1, 73, 0
1, 17835, Note_off_c, 1, 82, 0
1, 17839, Note_on_c, 1, 63, 127
1, 17839, Note_on_c, 1, 72, 127
1, 17937, Note_off_c, 1, 63, 0
1, 17941, Note_on_c, 1, 61, 127
1, 18039, Note_off_c, 1, 61, 0
1, 18043, Note_on_c, 1, 60, 127
1, 18141, Note_off_c, 1, 60, 0
1, 18248, Note_on_c, 1, 81, 127
1, 18449, Note_off_c, 1, 72, 0
1, 18449, Note_off_c, 1, 81, 0
1, 18451, Note_on_c, 1, 61, 127
1, 18451, Note_on_c, 1, 70, 127
1, 18549, Note_off_c, 1, 61, 0
1, 18553, Note_on_c, 1, 60, 127
1, 18651, Note_off_c, 1, 60, 0
1, 18656, Note_on_c, 1, 58, 127
1, 18754, Note_off_c, 1, 58, 0
1, 18860, Note_on_c, 1, 82, 127
1, 19061, Note_off_c, 1, 70, 0
1, 19064, Note_on_c, 1, 64, 127
1, 19162, Note_off_c, 1, 64, 0
1, 19167, Note_on_c, 1, 62, 127
1, 19265, Note_off_c, 1, 62, 0
1, 19266, Note_off_c, 1, 82, 0
1, 19269, Note_on_c, 1, 60, 127
1, 19269, Note_on_c, 1, 80, 127
1, 19367, Note_off_c, 1, 60, 0
1, 19372, Note_on_c, 1, 62, 127
1, 19470, Note_off_c, 1, 80, 0
1, 19470, Note_off_c, 1, 62, 0
1, 19473, Note_on_c, 1, 64, 127
1, 19473, Note_on_c, 1, 79, 127
1, 19571, Note_off_c, 1, 64, 0
1, 19576, Note_on_c, 1, 60, 127
1, 19674, Note_off_c, 1, 79, 0
1, 19674, Note_off_c, 1, 60, 0
1, 19678, Note_on_c, 1, 65, 127
1, 19678, Note_on_c, 1, 80, 127
1, 19776, Note_off_c, 1, 65, 0
1, 19780, Note_on_c, 1, 64, 127
1, 19878, Note_off_c, 1, 64, 0
1, 19879, Note_off_c, 1, 80, 0
1, 19882, Note_on_c, 1, 65, 127
1, 19882, Note_on_c, 1, 68, 127
1, 19980, Note_off_c, 1, 65, 0
1, 19984, Note_on_c, 1, 67, 127
1, 20082, Note_off_c, 1, 67, 0
1, 20083, Note_off_c, 1, 68, 0
1, 20087, Note_on_c, 1, 65, 127
1, 20087, Note_on_c, 1, 80, 127
1, 20185, Note_off_c, 1, 65, 0
1, 20189, Note_on_c, 1, 63, 127
1, 20287, Note_off_c, 1, 63, 0
1, 20292, Note_on_c, 1, 62, 127
1, 20390, Note_off_c, 1, 62, 0
1, 20393, Note_on_c, 1, 60, 127
1, 20491, Note_off_c, 1, 60, 0
1, 20493, Note_off_c, 1, 80, 0
1, 20496, Note_on_c, 1, 58, 127
1, 20496, Note_on_c, 1, 78, 127
1, 20594, Note_off_c, 1, 58, 0
1, 20598, Note_on_c, 1, 60, 127
1, 20696, Note_off_c, 1, 60, 0
1, 20697, Note_off_c, 1, 78, 0
1, 20700, Note_on_c, 1, 62, 127
1, 20700, Note_on_c, 1, 77, 127
1, 20798, Note_off_c, 1, 62, 0
1, 20802, Note_on_c, 1, 58, 127
1, 20900, Note_off_c, 1, 58, 0
1, 20901, Note_off_c, 1, 77, 0
1, 20903, Note_on_c, 1, 78, 127
1, 20903, Note_on_c, 1, 63, 127
1, 21001, Note_off_c, 1, 78, 0
1, 21006, Note_on_c, 1, 77, 127
1, 21104, Note_off_c, 1, 63, 0
1, 21104, Note_off_c, 1, 77, 0
1, 21108, Note_on_c, 1, 75, 127
1, 21108, Note_on_c, 1, 51, 127
1, 21206, Note_off_c, 1, 75, 0
1, 21211, Note_on_c, 1, 77, 127
1, 21309, Note_off_c, 1, 51, 0
1, 21309, Note_off_c, 1, 77, 0
1, 21313, Note_on_c, 1, 78, 127
1, 21313, Note_on_c, 1, 63, 127
1, 21411, Note_off_c, 1, 78, 0
1, 21414, Note_on_c, 1, 75, 127
1, 21512, Note_off_c, 1, 75, 0
1, 21517, Note_on_c, 1, 81, 127
1, 21615, Note_off_c, 1, 81, 0
1, 21619, Note_on_c, 1, 79, 127
1, 21717, Note_off_c, 1, 79, 0
1, 21719, Note_off_c, 1, 63, 0
1, 21722, Note_on_c, 1, 77, 127
1, 21722, Note_on_c, 1, 61, 127
1, 21820, Note_off_c, 1, 77, 0
1, 21823, Note_on_c, 1, 79, 127
1, 21921, Note_off_c, 1, 79, 0
1, 21923, Note_off_c, 1, 61, 0
1, 21926, Note_on_c, 1, 81, 127
1, 21926, Note_on_c, 1, 60, 127
1, 22024, Note_off_c, 1, 81, 0
1, 22028, Note_on_c, 1, 77, 127
1, 22126, Note_off_c, 1, 77, 0
1, 22127, Note_off_c, 1, 60, 0
1, 22131, Note_on_c, 1, 82, 127
1, 22131, Note_on_c, 1, 61, 127
1, 22229, Note_off_c, 1, 82, 0
1, 22233, Note_on_c, 1, 81, 127
1, 22331, Note_off_c, 1, 81, 0
1, 22332, Note_off_c, 1, 61, 0
1, 22334, Note_on_c, 1, 82, 127
1, 22334, Note_on_c, 1, 49, 127
1, 22432, Note_off_c, 1, 82, 0
1, 22437, Note_on_c, 1, 84, 127
1, 22535, Note_off_c, 1, 49, 0
1, 22535, Note_off_c, 1, 84, 0
1, 22539, Note_on_c, 1, 82, 127
1, 22539, Note_on_c, 1, 61, 127
1, 22637, Note_off_c, 1, 82, 0
1, 22642, Note_on_c, 1, 80, 127
1, 22740, Note_off_c, 1, 80, 0
1, 22744, Note_on_c, 1, 79, 127
1, 22842, Note_off_c, 1, 79, 0
1, 22846, Note_on_c, 1, 77, 127
1, 22944, Note_off_c, 1, 77, 0
1, 22945, Note_off_c, 1, 61, 0
1, 22948, Note_on_c, 1, 75, 127
1, 22948, Note_on_c, 1, 60, 127
1, 23046, Note_off_c, 1, 75, 0
1, 23050, Note_on_c, 1, 77, 127
1, 23148, Note_off_c, 1, 77, 0
1, 23149, Note_off_c, 1, 60, 0
1, 23152, Note_on_c, 1, 79, 127
1, 23152, Note_on_c, 1, 58, 127
1, 23250, Note_off_c, 1, 79, 0
1, 23254, Note_on_c, 1, 75, 127
1, 23352, Note_off_c, 1, 75, 0
1, 23353, Note_off_c, 1, 58, 0
1, 23356, Note_on_c, 1, 60, 127
1, 23356, Note_on_c, 1, 80, 127
1, 23454, Note_off_c, 1, 60, 0
1, 23458, Note_on_c, 1, 58, 127
1, 23556, Note_off_c, 1, 58, 0
1, 23561, Note_on_c, 1, 56, 127
1, 23561, Note_on_c, 1, 68, 127
1, 23659, Note_off_c, 1, 56, 0
1, 23759, Note_off_c, 1, 80, 0
1, 23762, Note_off_c, 1, 68, 0
1, 23765, Note_on_c, 1, 60, 127
1, 23765, Note_on_c, 1, 80, 127
1, 23863, Note_off_c, 1, 60, 0
1, 23867, Note_on_c, 1, 56, 127
1, 23965, Note_off_c, 1, 56, 0
1, 23969, Note_on_c, 1, 62, 127
1, 24067, Note_off_c, 1, 62, 0
1, 24171, Note_off_c, 1, 80, 0
1, 24174, Note_on_c, 1, 58, 127
1, 24174, Note_on_c, 1, 78, 127
1, 24272, Note_off_c, 1, 58, 0
1, 24276, Note_on_c, 1, 60, 127
1, 24374, Note_off_c, 1, 60, 0
1, 24375, Note_off_c, 1, 78, 0
1, 24378, Note_on_c, 1, 62, 127
1, 24378, Note_on_c, 1, 77, 127
1, 24476, Note_off_c, 1, 62, 0
1, 24481, Note_on_c, 1, 58, 127
1, 24579, Note_off_c, 1, 77, 0
1, 24579, Note_off_c, 1, 58, 0
1, 24583, Note_on_c, 1, 63, 127
1, 24583, Note_on_c, 1, 78, 127
1, 24681, Note_off_c, 1, 63, 0
1, 24686, Note_on_c, 1, 62, 127
1, 24784, Note_off_c, 1, 62, 0
1, 24787, Note_on_c, 1, 66, 127
1, 24889, Note_on_c, 1, 65, 127
1, 24986, Note_off_c, 1, 78, 0
1, 24987, Note_off_c, 1, 65, 0
1, 24988, Note_off_c, 1, 66, 0
1, 24992, Note_on_c, 1, 63, 127
1, 24992, Note_on_c, 1, 78, 127
1, 25090, Note_off_c, 1, 63, 0
1, 25094, Note_on_c, 1, 61, 127
1, 25192, Note_off_c, 1, 61, 0
1, 25196, Note_on_c, 1, 60, 127
1, 25294, Note_off_c, 1, 60, 0
1, 25298, Note_on_c, 1, 58, 127
1, 25396, Note_off_c, 1, 58, 0
1, 25398, Note_off_c, 1, 78, 0
1, 25400, Note_on_c, 1, 56, 127
1, 25400, Note_on_c, 1, 77, 127
1, 25498, Note_off_c, 1, 56, 0
1, 25502, Note_on_c, 1, 58, 127
1, 25600, Note_off_c, 1, 58, 0
1, 25601, Note_off_c, 1, 77, 0
1, 25605, Note_on_c, 1, 60, 127
1, 25605, Note_on_c, 1, 75, 127
1, 25703, Note_off_c, 1, 60, 0
1, 25706, Note_on_c, 1, 56, 127
1, 25804, Note_off_c, 1, 56, 0
1, 25806, Note_off_c, 1, 75, 0
1, 25808, Note_on_c, 1, 77, 127
1, 25808, Note_on_c, 1, 61, 127
1, 25906, Note_off_c, 1, 77, 0
1, 25911, Note_on_c, 1, 75, 127
1, 26009, Note_off_c, 1, 61, 0
1, 26009, Note_off_c, 1, 75, 0
1, 26013, Note_on_c, 1, 73, 127
1, 26013, Note_on_c, 1, 49, 127
1, 26111, Note_off_c, 1, 73, 0
1, 26116, Note_on_c, 1, 75, 127
1, 26214, Note_off_c, 1, 49, 0
1, 26214, Note_off_c, 1, 75, 0
1, 26217, Note_on_c, 1, 77, 127
1, 26217, Note_on_c, 1, 61, 127
1, 26315, Note_off_c, 1, 77, 0
1, 26320, Note_on_c, 1, 73, 127
1, 26418, Note_off_c, 1, 73, 0
1, 26422, Note_on_c, 1, 79, 127
1, 26520, Note_off_c, 1, 79, 0
1, 26623, Note_off_c, 1, 61, 0
1, 26627, Note_on_c, 1, 75, 127
1, 26627, Note_on_c, 1, 59, 127
1, 26725, Note_off_c, 1, 75, 0
1, 26728, Note_on_c, 1, 77, 127
1, 26826, Note_off_c, 1, 77, 0
1, 26828, Note_off_c, 1, 59, 0
1, 26831, Note_on_c, 1, 79, 127
1, 26831, Note_on_c, 1, 58, 127
1, 26929, Note_off_c, 1, 79, 0
1, 26933, Note_on_c, 1, 75, 127
1, 27031, Note_off_c, 1, 75, 0
1, 27032, Note_off_c, 1, 58, 0
1, 27036, Note_on_c, 1, 80, 127
1, 27036, Note_on_c, 1, 59, 127
1, 27134, Note_off_c, 1, 80, 0
1, 27137, Note_on_c, 1, 79, 127
1, 27235, Note_off_c, 1, 79, 0
1, 27237, Note_off_c, 1, 59, 0
1, 27240, Note_on_c, 1, 80, 127
1, 27240, Note_on_c, 1, 47, 127
1, 27338, Note_off_c, 1, 80, 0
1, 27342, Note_on_c, 1, 82, 127
1, 27440, Note_off_c, 1, 82, 0
1, 27441, Note_off_c, 1, 47, 0
1, 27444, Note_on_c, 1, 80, 127
1, 27444, Note_on_c, 1, 59, 127
1, 27542, Note_off_c, 1, 80, 0
1, 27547, Note_on_c, 1, 78, 127
1, 27645, Note_off_c, 1, 78, 0
1, 27648, Note_on_c, 1, 77, 127
1, 27746, Note_off_c, 1, 77, 0
1, 27750, Note_on_c, 1, 75, 127
1, 27848, Note_off_c, 1, 75, 0
1, 27850, Note_off_c, 1, 59, 0
1, 27852, Note_on_c, 1, 73, 127
1, 27852, Note_on_c, 1, 58, 127
1, 27950, Note_off_c, 1, 73, 0
1, 27955, Note_on_c, 1, 75, 127
1, 28053, Note_off_c, 1, 58, 0
1, 28053, Note_off_c, 1, 75, 0
1, 28057, Note_on_c, 1, 77, 127
1, 28057, Note_on_c, 1, 56, 127
1, 28155, Note_off_c, 1, 77, 0
1, 28159, Note_on_c, 1, 73, 127
1, 28257, Note_off_c, 1, 73, 0
1, 28258, Note_off_c, 1, 56, 0
1, 28261, Note_on_c, 1, 58, 127
1, 28261, Note_on_c, 1, 66, 127
1, 28359, Note_off_c, 1, 58, 0
1, 28363, Note_on_c, 1, 54, 127
1, 28461, Note_off_c, 1, 54, 0
1, 28466, Note_on_c, 1, 49, 127
1, 28564, Note_off_c, 1, 49, 0
1, 28667, Note_off_c, 1, 66, 0
1, 28670, Note_on_c, 1, 58, 127
1, 28670, Note_on_c, 1, 78, 127
1, 28768, Note_off_c, 1, 58, 0
1, 28772, Note_on_c, 1, 54, 127
1, 28870, Note_off_c, 1, 54, 0
1, 28875, Note_on_c, 1, 59, 127
1, 28875, Note_on_c, 1, 68, 127
1, 28973, Note_off_c, 1, 59, 0
1, 29280, Note_off_c, 1, 78, 0
1, 29281, Note_off_c, 1, 68, 0
1, 29283, Note_on_c, 1, 59, 127
1, 29283, Note_on_c, 1, 78, 127
1, 29381, Note_off_c, 1, 59, 0
1, 29386, Note_on_c, 1, 54, 127
1, 29484, Note_off_c, 1, 54, 0
1, 29488, Note_on_c, 1, 61, 127
1, 29488, Note_on_c, 1, 70, 127
1, 29586, Note_off_c, 1, 61, 0
1, 29893, Note_off_c, 1, 78, 0
1, 29894, Note_off_c, 1, 70, 0
1, 29897, Note_on_c, 1, 61, 127
1, 29897, Note_on_c, 1, 78, 127
1, 29995, Note_off_c, 1, 61, 0
1, 29999, Note_on_c, 1, 54, 127
1, 30097, Note_off_c, 1, 54, 0
1, 30100, Note_on_c, 1, 63, 127
1, 30100, Note_on_c, 1, 71, 127
1, 30198, Note_off_c, 1, 63, 0
1, 30506, Note_off_c, 1, 71, 0
1, 30507, Note_off_c, 1, 78, 0
1, 30509, Note_on_c, 1, 63, 127
1, 30509, Note_on_c, 1, 78, 127
1, 30607, Note_off_c, 1, 63, 0
1, 30611, Note_on_c, 1, 54, 127
1, 30709, Note_off_c, 1, 54, 0
1, 30714, Note_on_c, 1, 61, 127
1, 30714, Note_on_c, 1, 70, 127
1, 30812, Note_off_c, 1, 61, 0
1, 31119, Note_off_c, 1, 78, 0
1, 31120, Note_off_c, 1, 70, 0
1, 31122, Note_on_c, 1, 61, 127
1, 31122, Note_on_c, 1, 78, 127
1, 31220, Note_off_c, 1, 61, 0
1, 31225, Note_on_c, 1, 54, 127
1, 31323, Note_off_c, 1, 54, 0
1, 31327, Note_on_c, 1, 59, 127
1, 31327, Note_on_c, 1, 68, 127
1, 31425, Note_off_c, 1, 59, 0
1, 31430, Note_on_c, 1, 58, 127
1, 31528, Note_off_c, 1, 58, 0
1, 31531, Note_on_c, 1, 56, 127
1, 31629, Note_off_c, 1, 56, 0
1, 31732, Note_off_c, 1, 78, 0
1, 31733, Note_off_c, 1, 68, 0
1, 31736, Note_on_c, 1, 59, 127
1, 31736, Note_on_c, 1, 77, 127
1, 31834, Note_off_c, 1, 59, 0
1, 31838, Note_on_c, 1, 56, 127
1, 31936, Note_off_c, 1, 56, 0
1, 31937, Note_off_c, 1, 77, 0
1, 31941, Note_on_c, 1, 58, 127
1, 31941, Note_on_c, 1, 66, 127
1, 32039, Note_off_c, 1, 58, 0
1, 32042, Note_on_c, 1, 56, 127
1, 32140, Note_off_c, 1, 56, 0
1, 32145, Note_on_c, 1, 54, 127
1, 32243, Note_off_c, 1, 54, 0
1, 32347, Note_off_c, 1, 66, 0
1, 32350, Note_on_c, 1, 58, 127
1, 32350, Note_on_c, 1, 78, 127
1, 32448, Note_off_c, 1, 58, 0
1, 32450, Note_on_c, 1, 54, 127
1, 32548, Note_off_c, 1, 54, 0
1, 32552, Note_on_c, 1, 56, 127
1, 32650, Note_off_c, 1, 56, 0
1, 32756, Note_off_c, 1, 78, 0
1, 32757, Note_on_c, 1, 77, 127
1, 32757, Note_on_c, 1, 56, 127
1, 32855, Note_off_c, 1, 77, 0
1, 32855, Note_off_c, 1, 56, 0
1, 32860, Note_on_c, 1, 75, 127
1, 32860, Note_on_c, 1, 54, 127
1, 32958, Note_off_c, 1, 75, 0
1, 32958, Note_off_c, 1, 54, 0
1, 32961, Note_on_c, 1, 73, 127
1, 32961, Note_on_c, 1, 53, 127
1, 33059, Note_off_c, 1, 73, 0
1, 33059, Note_off_c, 1, 53, 0
1, 33064, Note_on_c, 1, 75, 127
1, 33064, Note_on_c, 1, 51, 127
1, 33162, Note_off_c, 1, 75, 0
1, 33162, Note_off_c, 1, 51, 0
1, 33166, Note_on_c, 1, 77, 127
1, 33166, Note_on_c, 1, 49, 127
1, 33264, Note_off_c, 1, 77, 0
1, 33269, Note_on_c, 1, 73, 127
1, 33367, Note_off_c, 1, 73, 0
1, 33371, Note_on_c, 1, 68, 127
1, 33469, Note_off_c, 1, 68, 0
1, 33575, Note_on_c, 1, 61, 127
1, 33655, Note_off_c, 1, 49, 0
1, 33776, Note_off_c, 1, 61, 0
1, 33780, Note_on_c, 1, 78, 127
1, 33780, Note_on_c, 1, 51, 127
1, 33878, Note_off_c, 1, 78, 0
1, 33882, Note_on_c, 1, 73, 127
1, 33980, Note_off_c, 1, 73, 0
1, 34188, Note_on_c, 1, 61, 127
1, 34269, Note_off_c, 1, 51, 0
1, 34389, Note_off_c, 1, 61, 0
1, 34392, Note_on_c, 1, 80, 127
1, 34392, Note_on_c, 1, 53, 127
1, 34490, Note_off_c, 1, 80, 0
1, 34495, Note_on_c, 1, 73, 127
1, 34593, Note_off_c, 1, 73, 0
1, 34801, Note_on_c, 1, 61, 127
1, 34881, Note_off_c, 1, 53, 0
1, 35002, Note_off_c, 1, 61, 0
1, 35005, Note_on_c, 1, 82, 127
1, 35005, Note_on_c, 1, 54, 127
1, 35103, Note_off_c, 1, 82, 0
1, 35107, Note_on_c, 1, 73, 127
1, 35205, Note_off_c, 1, 73, 0
1, 35414, Note_on_c, 1, 61, 127
1, 35494, Note_off_c, 1, 54, 0
1, 35615, Note_off_c, 1, 61, 0
1, 35619, Note_on_c, 1, 80, 127
1, 35619, Note_on_c, 1, 53, 127
1, 35717, Note_off_c, 1, 80, 0
1, 35721, Note_on_c, 1, 73, 127
1, 35819, Note_off_c, 1, 73, 0
1, 36027, Note_on_c, 1, 61, 127
1, 36108, Note_off_c, 1, 53, 0
1, 36228, Note_off_c, 1, 61, 0
1, 36232, Note_on_c, 1, 78, 127
1, 36232, Note_on_c, 1, 51, 127
1, 36330, Note_off_c, 1, 78, 0
1, 36334, Note_on_c, 1, 77, 127
1, 36432, Note_off_c, 1, 77, 0
1, 36436, Note_on_c, 1, 75, 127
1, 36534, Note_off_c, 1, 75, 0
1, 36641, Note_on_c, 1, 60, 127
1, 36680, Note_off_c, 1, 51, 0
1, 36842, Note_off_c, 1, 60, 0
1, 36845, Note_on_c, 1, 77, 127
1, 36845, Note_on_c, 1, 49, 127
1, 36943, Note_off_c, 1, 77, 0
1, 36947, Note_on_c, 1, 75, 127
1, 37045, Note_off_c, 1, 75, 0
1, 37050, Note_on_c, 1, 73, 127
1, 37148, Note_off_c, 1, 73, 0
1, 37251, Note_off_c, 1, 49, 0
1, 37254, Note_on_c, 1, 77, 127
1, 37254, Note_on_c, 1, 61, 127
1, 37352, Note_off_c, 1, 77, 0
1, 37355, Note_on_c, 1, 73, 127
1, 37453, Note_off_c, 1, 73, 0
1, 37455, Note_off_c, 1, 61, 0
1, 37458, Note_on_c, 1, 75, 127
1, 37458, Note_on_c, 1, 54, 127
1, 37556, Note_off_c, 1, 75, 0
1, 37560, Note_on_c, 1, 77, 127
1, 37658, Note_off_c, 1, 77, 0
1, 37659, Note_off_c, 1, 54, 0
1, 37662, Note_on_c, 1, 75, 127
1, 37662, Note_on_c, 1, 53, 127
1, 37760, Note_off_c, 1, 75, 0
1, 37764, Note_on_c, 1, 73, 127
1, 37862, Note_off_c, 1, 73, 0
1, 37863, Note_off_c, 1, 53, 0
1, 37866, Note_on_c, 1, 72, 127
1, 37866, Note_on_c, 1, 51, 127
1, 37964, Note_off_c, 1, 72, 0
1, 37969, Note_on_c, 1, 70, 127
1, 38067, Note_off_c, 1, 51, 0
1, 38067, Note_off_c, 1, 70, 0
1, 38071, Note_on_c, 1, 72, 127
1, 38071, Note_on_c, 1, 56, 127
1, 38174, Note_on_c, 1, 68, 127
1, 38271, Note_off_c, 1, 72, 0
1, 38272, Note_off_c, 1, 68, 0
1, 38275, Note_on_c, 1, 66, 127
1, 38373, Note_off_c, 1, 66, 0
1, 38480, Note_on_c, 1, 63, 127
1, 38578, Note_off_c, 1, 63, 0
1, 38681, Note_off_c, 1, 56, 0
1, 38685, Note_on_c, 1, 72, 127
1, 38685, Note_on_c, 1, 56, 127
1, 38786, Note_on_c, 1, 68, 127
1, 38884, Note_off_c, 1, 68, 0
1, 38885, Note_off_c, 1, 72, 0
1, 38889, Note_on_c, 1, 66, 127
1, 38987, Note_off_c, 1, 66, 0
1, 39094, Note_on_c, 1, 63, 127
1, 39192, Note_off_c, 1, 63, 0
1, 39295, Note_off_c, 1, 56, 0
1, 39297, Note_on_c, 1, 73, 127
1, 39297, Note_on_c, 1, 56, 127
1, 39400, Note_on_c, 1, 68, 127
1, 39497, Note_off_c, 1, 73, 0
1, 39498, Note_off_c, 1, 68, 0
1, 39501, Note_on_c, 1, 65, 127
1, 39599, Note_off_c, 1, 65, 0
1, 39705, Note_on_c, 1, 61, 127
1, 39803, Note_off_c, 1, 61, 0
1, 39907, Note_off_c, 1, 56, 0
1, 39910, Note_on_c, 1, 73, 127
1, 39910, Note_on_c, 1, 56, 127
1, 40013, Note_on_c, 1, 68, 127
1, 40110, Note_off_c, 1, 73, 0
1, 40111, Note_off_c, 1, 68, 0
1, 40115, Note_on_c, 1, 65, 127
1, 40213, Note_off_c, 1, 65, 0
1, 40319, Note_on_c, 1, 61, 127
1, 40417, Note_off_c, 1, 61, 0
1, 40520, Note_off_c, 1, 56, 0
1, 40524, Note_on_c, 1, 78, 127
1, 40524, Note_on_c, 1, 56, 127
1, 40626, Note_on_c, 1, 68, 127
1, 40724, Note_off_c, 1, 78, 0
1, 40724, Note_off_c, 1, 68, 0
1, 40728, Note_on_c, 1, 63, 127
1, 40826, Note_off_c, 1, 63, 0
1, 40933, Note_on_c, 1, 60, 127
1, 41031, Note_off_c, 1, 60, 0
1, 41134, Note_off_c, 1, 56, 0
1, 41137, Note_on_c, 1, 78, 127
1, 41137, Note_on_c, 1, 56, 127
1, 41239, Note_on_c, 1, 68, 127
1, 41337, Note_off_c, 1, 78, 0
1, 41337, Note_off_c, 1, 68, 0
1, 41341, Note_on_c, 1, 63, 127
1, 41439, Note_off_c, 1, 63, 0
1, 41546, Note_on_c, 1, 60, 127
1, 41644, Note_off_c, 1, 60, 0
1, 41747, Note_off_c, 1, 56, 0
1, 41750, Note_on_c, 1, 77, 127
1, 41750, Note_on_c, 1, 56, 127
1, 41851, Note_on_c, 1, 68, 127
1, 41949, Note_off_c, 1, 68, 0
1, 41950, Note_off_c, 1, 77, 0
1, 41954, Note_on_c, 1, 65, 127
1, 42052, Note_off_c, 1, 65, 0
1, 42158, Note_on_c, 1, 61, 127
1, 42256, Note_off_c, 1, 61, 0
1, 42360, Note_off_c, 1, 56, 0
1, 42363, Note_on_c, 1, 77, 127
1, 42363, Note_on_c, 1, 56, 127
1, 42465, Note_on_c, 1, 68, 127
1, 42563, Note_off_c, 1, 77, 0
1, 42563, Note_off_c, 1, 68, 0
1, 42568, Note_on_c, 1, 65, 127
1, 42666, Note_off_c, 1, 65, 0
1, 42771, Note_on_c, 1, 61, 127
1, 42869, Note_off_c, 1, 61, 0
1, 42973, Note_off_c, 1, 56, 0
1, 42976, Note_on_c, 1, 79, 127
1, 42976, Note_on_c, 1, 56, 127
1, 43078, Note_on_c, 1, 70, 127
1, 43176, Note_off_c, 1, 79, 0
1, 43176, Note_off_c, 1, 70, 0
1, 43180, Note_on_c, 1, 64, 127
1, 43278, Note_off_c, 1, 64, 0
1, 43385, Note_on_c, 1, 61, 127
1, 43483, Note_off_c, 1, 61, 0
1, 43586, Note_off_c, 1, 56, 0
1, 43589, Note_on_c, 1, 79, 127
1, 43589, Note_on_c, 1, 56, 127
1, 43691, Note_on_c, 1, 70, 127
1, 43789, Note_off_c, 1, 79, 0
1, 43789, Note_off_c, 1, 70, 0
1, 43794, Note_on_c, 1, 64, 127
1, 43892, Note_off_c, 1, 64, 0
1, 43999, Note_on_c, 1, 61, 127
1, 44097, Note_off_c, 1, 61, 0
1, 44199, Note_off_c, 1, 56, 0
1, 44202, Note_on_c, 1, 80, 127
1, 44202, Note_on_c, 1, 56, 127
1, 44304, Note_on_c, 1, 72, 127
1, 44406, Note_on_c, 1, 63, 127
1, 44411, Note_off_c, 1, 72, 0
1, 44413, Note_off_c, 1, 80, 0
1, 44513, Note_off_c, 1, 63, 0
1, 44610, Note_on_c, 1, 60, 127
1, 44717, Note_off_c, 1, 60, 0
1, 44812, Note_off_c, 1, 56, 0
1, 44815, Note_on_c, 1, 54, 127
1, 45300, Note_off_c, 1, 54, 0
1, 45429, Note_on_c, 1, 53, 127
1, 45530, Note_on_c, 1, 73, 127
1, 45630, Note_off_c, 1, 53, 0
1, 45633, Note_on_c, 1, 65, 127
1, 45731, Note_off_c, 1, 73, 0
1, 45735, Note_on_c, 1, 68, 127
1, 45834, Note_off_c, 1, 65, 0
1, 45838, Note_on_c, 1, 61, 127
1, 45861, Note_off_c, 1, 68, 0
1, 46039, Note_off_c, 1, 61, 0
1, 46144, Note_on_c, 1, 77, 127
1, 46270, Note_off_c, 1, 77, 0
1, 46450, Note_on_c, 1, 51, 127
1, 46552, Note_on_c, 1, 82, 127
1, 46612, Note_off_c, 1, 51, 0
1, 46650, Note_off_c, 1, 82, 0
1, 46654, Note_on_c, 1, 83, 127
1, 46654, Note_on_c, 1, 50, 127
1, 46752, Note_off_c, 1, 83, 0
1, 46757, Note_on_c, 1, 82, 127
1, 46855, Note_off_c, 1, 50, 0
1, 46855, Note_off_c, 1, 82, 0
1, 46859, Note_on_c, 1, 80, 127
1, 46859, Note_on_c, 1, 53, 127
1, 46957, Note_off_c, 1, 80, 0
1, 46960, Note_on_c, 1, 78, 127
1, 47058, Note_off_c, 1, 78, 0
1, 47060, Note_off_c, 1, 53, 0
1, 47063, Note_on_c, 1, 77, 127
1, 47063, Note_on_c, 1, 58, 127
1, 47161, Note_off_c, 1, 77, 0
1, 47165, Note_on_c, 1, 75, 127
1, 47263, Note_off_c, 1, 75, 0
1, 47264, Note_off_c, 1, 58, 0
1, 47268, Note_on_c, 1, 77, 127
1, 47268, Note_on_c, 1, 62, 127
1, 47366, Note_off_c, 1, 77, 0
1, 47370, Note_on_c, 1, 78, 127
1, 47417, Note_off_c, 1, 62, 0
1, 47468, Note_off_c, 1, 78, 0
1, 47472, Note_on_c, 1, 80, 127
1, 47472, Note_on_c, 1, 65, 127
1, 47570, Note_off_c, 1, 80, 0
1, 47574, Note_on_c, 1, 83, 127
1, 47621, Note_off_c, 1, 65, 0
1, 47672, Note_off_c, 1, 83, 0
1, 47677, Note_on_c, 1, 82, 127
1, 47677, Note_on_c, 1, 70, 127
1, 47775, Note_off_c, 1, 82, 0
1, 47779, Note_on_c, 1, 80, 127
1, 47826, Note_off_c, 1, 70, 0
1, 47877, Note_off_c, 1, 80, 0
1, 47881, Note_on_c, 1, 82, 127
1, 47881, Note_on_c, 1, 66, 127
1, 47979, Note_off_c, 1, 82, 0
1, 47983, Note_on_c, 1, 75, 127
1, 48082, Note_off_c, 1, 66, 0
1, 48085, Note_on_c, 1, 63, 127
1, 48184, Note_off_c, 1, 75, 0
1, 48286, Note_off_c, 1, 63, 0
1, 48290, Note_on_c, 1, 58, 127
1, 48392, Note_on_c, 1, 70, 127
1, 48491, Note_off_c, 1, 58, 0
1, 48494, Note_on_c, 1, 54, 127
1, 48518, Note_off_c, 1, 70, 0
1, 48656, Note_off_c, 1, 54, 0
1, 48699, Note_on_c, 1, 51, 127
1, 48800, Note_on_c, 1, 78, 127
1, 48861, Note_off_c, 1, 51, 0
1, 48902, Note_on_c, 1, 49, 127
1, 48926, Note_off_c, 1, 78, 0
1, 49004, Note_on_c, 1, 80, 127
1, 49069, Note_off_c, 1, 49, 0
1, 49102, Note_off_c, 1, 80, 0
1, 49107, Note_on_c, 1, 81, 127
1, 49107, Note_on_c, 1, 48, 127
1, 49205, Note_off_c, 1, 81, 0
1, 49209, Note_on_c, 1, 80, 127
1, 49307, Note_off_c, 1, 80, 0
1, 49308, Note_off_c, 1, 48, 0
1, 49312, Note_on_c, 1, 78, 127
1, 49312, Note_on_c, 1, 51, 127
1, 49410, Note_off_c, 1, 78, 0
1, 49413, Note_on_c, 1, 76, 127
1, 49511, Note_off_c, 1, 76, 0
1, 49513, Note_off_c, 1, 51, 0
1, 49515, Note_on_c, 1, 75, 127
1, 49515, Note_on_c, 1, 56, 127
1, 49613, Note_off_c, 1, 75, 0
1, 49618, Note_on_c, 1, 73, 127
1, 49716, Note_off_c, 1, 56, 0
1, 49716, Note_off_c, 1, 73, 0
1, 49720, Note_on_c, 1, 75, 127
1, 49720, Note_on_c, 1, 60, 127
1, 49818, Note_off_c, 1, 75, 0
1, 49823, Note_on_c, 1, 76, 127
1, 49877, Note_off_c, 1, 60, 0
1, 49921, Note_off_c, 1, 76, 0
1, 49924, Note_on_c, 1, 78, 127
1, 49924, Note_on_c, 1, 63, 127
1, 50022, Note_off_c, 1, 78, 0
1, 50027, Note_on_c, 1, 81, 127
1, 50081, Note_off_c, 1, 63, 0
1, 50125, Note_off_c, 1, 81, 0
1, 50129, Note_on_c, 1, 80, 127
1, 50129, Note_on_c, 1, 68, 127
1, 50227, Note_off_c, 1, 80, 0
1, 50232, Note_on_c, 1, 78, 127
1, 50286, Note_off_c, 1, 68, 0
1, 50330, Note_off_c, 1, 78, 0
1, 50333, Note_on_c, 1, 80, 127
1, 50333, Note_on_c, 1, 64, 127
1, 50431, Note_off_c, 1, 80, 0
1, 50435, Note_on_c, 1, 73, 127
1, 50534, Note_off_c, 1, 64, 0
1, 50538, Note_on_c, 1, 61, 127
1, 50636, Note_off_c, 1, 73, 0
1, 50640, Note_on_c, 1, 76, 127
1, 50739, Note_off_c, 1, 61, 0
1, 50743, Note_on_c, 1, 57, 127
1, 50788, Note_off_c, 1, 76, 0
1, 50944, Note_off_c, 1, 57, 0
1, 50947, Note_on_c, 1, 54, 127
1, 51049, Note_on_c, 1, 69, 127
1, 51148, Note_off_c, 1, 54, 0
1, 51151, Note_on_c, 1, 63, 127
1, 51198, Note_off_c, 1, 69, 0
1, 51253, Note_on_c, 1, 66, 127
1, 51300, Note_off_c, 1, 63, 0
1, 51354, Note_on_c, 1, 60, 127
1, 51383, Note_off_c, 1, 66, 0
1, 51457, Note_on_c, 1, 75, 127
1, 51484, Note_off_c, 1, 60, 0
1, 51559, Note_on_c, 1, 52, 127
1, 51587, Note_off_c, 1, 75, 0
1, 51662, Note_on_c, 1, 68, 127
1, 51760, Note_off_c, 1, 52, 0
1, 51811, Note_off_c, 1, 68, 0
1, 52377, Note_on_c, 1, 51, 127
1, 52526, Note_off_c, 1, 51, 0
1, 52582, Note_on_c, 1, 48, 127
1, 52731, Note_off_c, 1, 48, 0
1, 52786, Note_on_c, 1, 44, 127
1, 52786, Note_on_c, 1, 60, 127
1, 52888, Note_on_c, 1, 56, 127
1, 52987, Note_off_c, 1, 44, 0
1, 52990, Note_on_c, 1, 54, 127
1, 53037, Note_off_c, 1, 56, 0
1, 53191, Note_off_c, 1, 54, 0
1, 53195, Note_on_c, 1, 51, 127
1, 53396, Note_off_c, 1, 60, 0
1, 53396, Note_off_c, 1, 51, 0
1, 53399, Note_on_c, 1, 44, 127
1, 53399, Note_on_c, 1, 60, 127
1, 53501, Note_on_c, 1, 56, 127
1, 53600, Note_off_c, 1, 44, 0
1, 53603, Note_on_c, 1, 54, 127
1, 53650, Note_off_c, 1, 56, 0
1, 53804, Note_off_c, 1, 54, 0
1, 53807, Note_on_c, 1, 51, 127
1, 54008, Note_off_c, 1, 51, 0
1, 54009, Note_off_c, 1, 60, 0
1, 54012, Note_on_c, 1, 44, 127
1, 54012, Note_on_c, 1, 61, 127
1, 54114, Note_on_c, 1, 56, 127
1, 54213, Note_off_c, 1, 44, 0
1, 54216, Note_on_c, 1, 53, 127
1, 54263, Note_off_c, 1, 56, 0
1, 54417, Note_off_c, 1, 53, 0
1, 54421, Note_on_c, 1, 49, 127
1, 54622, Note_off_c, 1, 61, 0
1, 54622, Note_off_c, 1, 49, 0
1, 54625, Note_on_c, 1, 44, 127
1, 54625, Note_on_c, 1, 61, 127
1, 54727, Note_on_c, 1, 56, 127
1, 54826, Note_off_c, 1, 44, 0
1, 54829, Note_on_c, 1, 53, 127
1, 54876, Note_off_c, 1, 56, 0
1, 55030, Note_off_c, 1, 53, 0
1, 55034, Note_on_c, 1, 49, 127
1, 55235, Note_off_c, 1, 61, 0
1, 55235, Note_off_c, 1, 49, 0
1, 55238, Note_on_c, 1, 44, 127
1, 55238, Note_on_c, 1, 66, 127
1, 55341, Note_on_c, 1, 56, 127
1, 55439, Note_off_c, 1, 44, 0
1, 55443, Note_on_c, 1, 51, 127
1, 55490, Note_off_c, 1, 56, 0
1, 55644, Note_off_c, 1, 51, 0
1, 55647, Note_on_c, 1, 48, 127
1, 55848, Note_off_c, 1, 66, 0
1, 55848, Note_off_c, 1, 48, 0
1, 55851, Note_on_c, 1, 44, 127
1, 55851, Note_on_c, 1, 66, 127
1, 55953, Note_on_c, 1, 56, 127
1, 56052, Note_off_c, 1, 44, 0
1, 56056, Note_on_c, 1, 51, 127
1, 56102, Note_off_c, 1, 56, 0
1, 56257, Note_off_c, 1, 51, 0
1, 56260, Note_on_c, 1, 48, 127
1, 56461, Note_off_c, 1, 66, 0
1, 56461, Note_off_c, 1, 48, 0
1, 56464, Note_on_c, 1, 44, 127
1, 56464, Note_on_c, 1, 65, 127
1, 56567, Note_on_c, 1, 56, 127
1, 56665, Note_off_c, 1, 44, 0
1, 56668, Note_on_c, 1, 53, 127
1, 56716, Note_off_c, 1, 56, 0
1, 56869, Note_off_c, 1, 53, 0
1, 56873, Note_on_c, 1, 49, 127
1, 57074, Note_off_c, 1, 65, 0
1, 57074, Note_off_c, 1, 49, 0
1, 57078, Note_on_c, 1, 44, 127
1, 57078, Note_on_c, 1, 65, 127
1, 57179, Note_on_c, 1, 56, 127
1, 57279, Note_off_c, 1, 44, 0
1, 57282, Note_on_c, 1, 53, 127
1, 57336, Note_off_c, 1, 56, 0
1, 57483, Note_off_c, 1, 53, 0
1, 57487, Note_on_c, 1, 49, 127
1, 57688, Note_off_c, 1, 65, 0
1, 57688, Note_off_c, 1, 49, 0
1, 57691, Note_on_c, 1, 44, 127
1, 57691, Note_on_c, 1, 67, 127
1, 57793, Note_on_c, 1, 58, 127
1, 57896, Note_on_c, 1, 52, 127
1, 57905, Note_off_c, 1, 44, 0
1, 57969, Note_off_c, 1, 58, 0
1, 58065, Note_off_c, 1, 52, 0
1, 58099, Note_on_c, 1, 49, 127
1, 58268, Note_off_c, 1, 49, 0
1, 58301, Note_off_c, 1, 67, 0
1, 58303, Note_on_c, 1, 67, 127
1, 58303, Note_on_c, 1, 44, 127
1, 58406, Note_on_c, 1, 58, 127
1, 58503, Note_off_c, 1, 67, 0
1, 58508, Note_on_c, 1, 52, 127
1, 58545, Note_off_c, 1, 44, 0
1, 58602, Note_off_c, 1, 58, 0
1, 58677, Note_off_c, 1, 52, 0
1, 58712, Note_on_c, 1, 49, 127
1, 58881, Note_off_c, 1, 49, 0
1, 58917, Note_on_c, 1, 44, 127
1, 59015, Note_off_c, 1, 44, 0
1, 59019, Note_on_c, 1, 48, 127
1, 59117, Note_off_c, 1, 48, 0
1, 59121, Note_on_c, 1, 51, 127
1, 59219, Note_off_c, 1, 51, 0
1, 59223, Note_on_c, 1, 54, 127
1, 59321, Note_off_c, 1, 54, 0
1, 59326, Note_on_c, 1, 57, 127
1, 59424, Note_off_c, 1, 57, 0
1, 59428, Note_on_c, 1, 60, 127
1, 59526, Note_off_c, 1, 60, 0
1, 59530, Note_on_c, 1, 61, 127
1, 59628, Note_off_c, 1, 61, 0
1, 59632, Note_on_c, 1, 64, 127
1, 59730, Note_off_c, 1, 64, 0
1, 59734, Note_on_c, 1, 67, 127
1, 59832, Note_off_c, 1, 67, 0
1, 59837, Note_on_c, 1, 70, 127
1, 59935, Note_off_c, 1, 70, 0
1, 59939, Note_on_c, 1, 73, 127
1, 60037, Note_off_c, 1, 73, 0
1, 60041, Note_on_c, 1, 76, 127
1, 60139, Note_off_c, 1, 76, 0
1, 60143, Note_on_c, 1, 72, 127
1, 60143, Note_on_c, 1, 44, 127
1, 60260, Note_on_c, 1, 75, 127
1, 60292, Note_off_c, 1, 72, 0
1, 60358, Note_off_c, 1, 75, 0
1, 60362, Note_on_c, 1, 78, 127
1, 60460, Note_off_c, 1, 78, 0
1, 60668, Note_on_c, 1, 68, 127
1, 60766, Note_off_c, 1, 68, 0
1, 60771, Note_on_c, 1, 66, 127
1, 60869, Note_off_c, 1, 66, 0
1, 60873, Note_on_c, 1, 63, 127
1, 60971, Note_off_c, 1, 63, 0
1, 60976, Note_on_c, 1, 60, 127
1, 61074, Note_off_c, 1, 60, 0
1, 61078, Note_on_c, 1, 56, 127
1, 61176, Note_off_c, 1, 56, 0
1, 61385, Note_on_c, 1, 65, 127
1, 61524, Note_off_c, 1, 65, 0
1, 61603, Note_on_c, 1, 73, 127
1, 61701, Note_off_c, 1, 73, 0
1, 61770, Note_off_c, 1, 44, 0
1, 61910, Note_on_c, 1, 61, 127
1, 62008, Note_off_c, 1, 61, 0
1, 62012, Note_on_c, 1, 58, 127
1, 62110, Note_off_c, 1, 58, 0
1, 62115, Note_on_c, 1, 55, 127
1, 62213, Note_off_c, 1, 55, 0
1, 62216, Note_on_c, 1, 52, 127
1, 62314, Note_off_c, 1, 52, 0
1, 62318, Note_on_c, 1, 49, 127
1, 62416, Note_off_c, 1, 49, 0
1, 62421, Note_on_c, 1, 52, 127
1, 62519, Note_off_c, 1, 52, 0
1, 62523, Note_on_c, 1, 55, 127
1, 62621, Note_off_c, 1, 55, 0
1, 62641, Note_on_c, 1, 44, 127
1, 62690, Note_off_c, 1, 44, 0
1, 62692, Note_on_c, 1, 43, 127
1, 62741, Note_off_c, 1, 43, 0
1, 62743, Note_on_c, 1, 44, 127
1, 63050, Note_on_c, 1, 61, 127
1, 63050, Note_on_c, 1, 65, 127
1, 63050, Note_on_c, 1, 68, 127
1, 63050, Note_on_c, 1, 73, 127
1, 63050, Note_on_c, 1, 49, 127
1, 63050, Note_on_c, 1, 53, 127
1, 63050, Note_on_c, 1, 56, 127
1, 63347, Note_off_c, 1, 61, 0
1, 63347, Note_off_c, 1, 65, 0
1, 63347, Note_off_c, 1, 68, 0
1, 63347, Note_off_c, 1, 73, 0
1, 63347, Note_off_c, 1, 49, 0
1, 63347, Note_off_c, 1, 53, 0
1, 63347, Note_off_c, 1, 56, 0
1, 63457, Note_on_c, 1, 63, 127
1, 63457, Note_on_c, 1, 72, 127
1, 63457, Note_on_c, 1, 51, 127
1, 63457, Note_on_c, 1, 54, 127
1, 63754, Note_off_c, 1, 63, 0
1, 63754, Note_off_c, 1, 72, 0
1, 63754, Note_off_c, 1, 51, 0
1, 63754, Note_off_c, 1, 54, 0
1, 63860, Note_off_c, 1, 44, 0
1, 63866, Note_on_c, 1, 61, 127
1, 63866, Note_on_c, 1, 65, 127
1, 63866, Note_on_c, 1, 68, 127
1, 63866, Note_on_c, 1, 73, 127
1, 63866, Note_on_c, 1, 49, 127
1, 63866, Note_on_c, 1, 53, 127
1, 63866, Note_on_c, 1, 56, 127
1, 65493, Note_off_c, 1, 61, 0
1, 65493, Note_off_c, 1, 65, 0
1, 65493, Note_off_c, 1, 68, 0
1, 65493, Note_off_c, 1, 73, 0
1, 65493, Note_off_c, 1, 49, 0
1, 65493, Note_off_c, 1, 53, 0
1, 65493, Note_off_c, 1, 56, 0
1, 66708, Note_on_c, 1, 68, 127
1, 67008, Note_off_c, 1, 68, 0
1, 67013, Note_on_c, 1, 70, 127
1, 67161, Note_off_c, 1, 70, 0
1, 67165, Note_on_c, 1, 68, 127
1, 67313, Note_off_c, 1, 68, 0
1, 67317, Note_on_c, 1, 66, 127
1, 67465, Note_off_c, 1, 66, 0
1, 67469, Note_on_c, 1, 68, 127
1, 67617, Note_off_c, 1, 68, 0
1, 67621, Note_on_c, 1, 77, 127
1, 67889, Note_off_c, 1, 77, 0
1, 67925, Note_on_c, 1, 73, 127
1, 68193, Note_off_c, 1, 73, 0
1, 68229, Note_on_c, 1, 68, 127
1, 68529, Note_off_c, 1, 68, 0
1, 68534, Note_on_c, 1, 66, 127
1, 68682, Note_off_c, 1, 66, 0
1, 68686, Note_on_c, 1, 65, 127
1, 68834, Note_off_c, 1, 65, 0
1, 68838, Note_on_c, 1, 66, 127
1, 69138, Note_off_c, 1, 66, 0
1, 69144, Note_on_c, 1, 75, 127
1, 69444, Note_off_c, 1, 75, 0
1, 69449, Note_on_c, 1, 65, 127
1, 69749, Note_off_c, 1, 65, 0
1, 69753, Note_on_c, 1, 73, 127
1, 70053, Note_off_c, 1, 73, 0
1, 70058, Note_on_c, 1, 63, 127
1, 70358, Note_off_c, 1, 63, 0
1, 70363, Note_on_c, 1, 72, 127
1, 70663, Note_off_c, 1, 72, 0
1, 70669, Note_on_c, 1, 61, 127
1, 70973, Note_on_c, 1, 73, 127
1, 71121, Note_off_c, 1, 73, 0
1, 71125, Note_on_c, 1, 72, 127
1, 71270, Note_off_c, 1, 61, 0
1, 71274, Note_off_c, 1, 72, 0
1, 71278, Note_on_c, 1, 73, 127
1, 71426, Note_off_c, 1, 73, 0
1, 71430, Note_on_c, 1, 75, 127
1, 71578, Note_off_c, 1, 75, 0
1, 71582, Note_on_c, 1, 77, 127
1, 71582, Note_on_c, 1, 61, 127
1, 71730, Note_off_c, 1, 77, 0
1, 71734, Note_on_c, 1, 78, 127
1, 71882, Note_off_c, 1, 61, 0
1, 71882, Note_off_c, 1, 78, 0
1, 71886, Note_on_c, 1, 65, 127
1, 71886, Note_on_c, 1, 80, 127
1, 72034, Note_off_c, 1, 65, 0
1, 72034, Note_off_c, 1, 80, 0
1, 72038, Note_on_c, 1, 63, 127
1, 72038, Note_on_c, 1, 79, 127
1, 72186, Note_off_c, 1, 63, 0
1, 72186, Note_off_c, 1, 79, 0
1, 72190, Note_on_c, 1, 61, 127
1, 72190, Note_on_c, 1, 77, 127
1, 72338, Note_off_c, 1, 61, 0
1, 72338, Note_off_c, 1, 77, 0
1, 72342, Note_on_c, 1, 63, 127
1, 72342, Note_on_c, 1, 79, 127
1, 72490, Note_off_c, 1, 63, 0
1, 72490, Note_off_c, 1, 79, 0
1, 72494, Note_on_c, 1, 80, 127
1, 72494, Note_on_c, 1, 72, 127
1, 72642, Note_off_c, 1, 80, 0
1, 72646, Note_on_c, 1, 78, 127
1, 72762, Note_off_c, 1, 72, 0
1, 72794, Note_off_c, 1, 78, 0
1, 72798, Note_on_c, 1, 77, 127
1, 72798, Note_on_c, 1, 68, 127
1, 72946, Note_off_c, 1, 77, 0
1, 72950, Note_on_c, 1, 75, 127
1, 73066, Note_off_c, 1, 68, 0
1, 73098, Note_off_c, 1, 75, 0
1, 73101, Note_on_c, 1, 77, 127
1, 73101, Note_on_c, 1, 63, 127
1, 73249, Note_off_c, 1, 77, 0
1, 73253, Note_on_c, 1, 75, 127
1, 73401, Note_off_c, 1, 63, 0
1, 73401, Note_off_c, 1, 75, 0
1, 73406, Note_on_c, 1, 61, 127
1, 73406, Note_on_c, 1, 77, 127
1, 73554, Note_off_c, 1, 61, 0
1, 73558, Note_on_c, 1, 60, 127
1, 73706, Note_off_c, 1, 60, 0
1, 73857, Note_off_c, 1, 77, 0
1, 73862, Note_on_c, 1, 75, 127
1, 74010, Note_off_c, 1, 75, 0
1, 74014, Note_on_c, 1, 73, 127
1, 74014, Note_on_c, 1, 70, 127
1, 74162, Note_off_c, 1, 73, 0
1, 74166, Note_on_c, 1, 77, 127
1, 74314, Note_off_c, 1, 70, 0
1, 74314, Note_off_c, 1, 77, 0
1, 74318, Note_on_c, 1, 75, 127
1, 74318, Note_on_c, 1, 60, 127
1, 74466, Note_off_c, 1, 75, 0
1, 74470, Note_on_c, 1, 73, 127
1, 74618, Note_off_c, 1, 60, 0
1, 74618, Note_off_c, 1, 73, 0
1, 74622, Note_on_c, 1, 72, 127
1, 74622, Note_on_c, 1, 68, 127
1, 74770, Note_off_c, 1, 72, 0
1, 74774, Note_on_c, 1, 75, 127
1, 74922, Note_off_c, 1, 68, 0
1, 74922, Note_off_c, 1, 75, 0
1, 74926, Note_on_c, 1, 73, 127
1, 74926, Note_on_c, 1, 58, 127
1, 75074, Note_off_c, 1, 73, 0
1, 75078, Note_on_c, 1, 72, 127
1, 75226, Note_off_c, 1, 58, 0
1, 75226, Note_off_c, 1, 72, 0
1, 75230, Note_on_c, 1, 73, 127
1, 75230, Note_on_c, 1, 67, 127
1, 75378, Note_off_c, 1, 73, 0
1, 75382, Note_on_c, 1, 70, 127
1, 75530, Note_off_c, 1, 67, 0
1, 75530, Note_off_c, 1, 70, 0
1, 75534, Note_on_c, 1, 70, 127
1, 75534, Note_on_c, 1, 56, 127
1, 75682, Note_off_c, 1, 70, 0
1, 75686, Note_on_c, 1, 72, 127
1, 75834, Note_off_c, 1, 72, 0
1, 75838, Note_on_c, 1, 68, 127
1, 75838, Note_on_c, 1, 75, 127
1, 75986, Note_off_c, 1, 68, 0
1, 75990, Note_on_c, 1, 67, 127
1, 76135, Note_off_c, 1, 56, 0
1, 76138, Note_off_c, 1, 75, 0
1, 76139, Note_off_c, 1, 67, 0
1, 76143, Note_on_c, 1, 68, 127
1, 76143, Note_on_c, 1, 78, 127
1, 76291, Note_off_c, 1, 68, 0
1, 76295, Note_on_c, 1, 70, 127
1, 76443, Note_off_c, 1, 70, 0
1, 76447, Note_on_c, 1, 72, 127
1, 76447, Note_on_c, 1, 56, 127
1, 76595, Note_off_c, 1, 72, 0
1, 76747, Note_off_c, 1, 56, 0
1, 76751, Note_on_c, 1, 58, 127
1, 76751, Note_on_c, 1, 73, 127
1, 76899, Note_off_c, 1, 58, 0
1, 76899, Note_off_c, 1, 73, 0
1, 77055, Note_on_c, 1, 54, 127
1, 77203, Note_off_c, 1, 54, 0
1, 77354, Note_off_c, 1, 78, 0
1, 77359, Note_on_c, 1, 73, 127
1, 77359, Note_on_c, 1, 65, 127
1, 77359, Note_on_c, 1, 77, 127
1, 77507, Note_off_c, 1, 73, 0
1, 77511, Note_on_c, 1, 72, 127
1, 77611, Note_off_c, 1, 65, 0
1, 77660, Note_off_c, 1, 72, 0
1, 77664, Note_on_c, 1, 70, 127
1, 77664, Note_on_c, 1, 61, 127
1, 77812, Note_off_c, 1, 70, 0
1, 77816, Note_on_c, 1, 68, 127
1, 77916, Note_off_c, 1, 61, 0
1, 77965, Note_off_c, 1, 68, 0
1, 77969, Note_on_c, 1, 56, 127
1, 78269, Note_off_c, 1, 56, 0
1, 78273, Note_on_c, 1, 54, 127
1, 78421, Note_off_c, 1, 54, 0
1, 78425, Note_on_c, 1, 53, 127
1, 78573, Note_off_c, 1, 77, 0
1, 78573, Note_off_c, 1, 53, 0
1, 78577, Note_on_c, 1, 75, 127
1, 78881, Note_on_c, 1, 66, 127
1, 78881, Note_on_c, 1, 63, 127
1, 79029, Note_off_c, 1, 66, 0
1, 79181, Note_off_c, 1, 63, 0
1, 79484, Note_off_c, 1, 75, 0
1, 79490, Note_on_c, 1, 65, 127
1, 79490, Note_on_c, 1, 61, 127
1, 79490, Note_on_c, 1, 73, 127
1, 79638, Note_off_c, 1, 65, 0
1, 79642, Note_on_c, 1, 68, 127
1, 79790, Note_off_c, 1, 61, 0
1, 79790, Note_off_c, 1, 73, 0
1, 79790, Note_off_c, 1, 68, 0
1, 79794, Note_on_c, 1, 66, 127
1, 79794, Note_on_c, 1, 51, 127
1, 79794, Note_on_c, 1, 72, 127
1, 79942, Note_off_c, 1, 66, 0
1, 79946, Note_on_c, 1, 65, 127
1, 80094, Note_off_c, 1, 51, 0
1, 80094, Note_off_c, 1, 72, 0
1, 80094, Note_off_c, 1, 65, 0
1, 80098, Note_on_c, 1, 66, 127
1, 80098, Note_on_c, 1, 60, 127
1, 80098, Note_on_c, 1, 75, 127
1, 80246, Note_off_c, 1, 66, 0
1, 80250, Note_on_c, 1, 63, 127
1, 80398, Note_off_c, 1, 60, 0
1, 80398, Note_off_c, 1, 63, 0
1, 80401, Note_on_c, 1, 49, 127
1, 80401, Note_on_c, 1, 65, 127
1, 80701, Note_off_c, 1, 49, 0
1, 80702, Note_off_c, 1, 75, 0
1, 80706, Note_on_c, 1, 61, 127
1, 80706, Note_on_c, 1, 68, 127
1, 80854, Note_off_c, 1, 61, 0
1, 81006, Note_off_c, 1, 68, 0
1, 81010, Note_on_c, 1, 77, 127
1, 81309, Note_off_c, 1, 65, 0
1, 81618, Note_on_c, 1, 58, 127
1, 81618, Note_on_c, 1, 73, 127
1, 81766, Note_off_c, 1, 58, 0
1, 81917, Note_off_c, 1, 77, 0
1, 82069, Note_off_c, 1, 73, 0
1, 82074, Note_on_c, 1, 58, 127
1, 82074, Note_on_c, 1, 73, 127
1, 82222, Note_off_c, 1, 58, 0
1, 82226, Note_on_c, 1, 55, 127
1, 82226, Note_on_c, 1, 70, 127
1, 82374, Note_off_c, 1, 55, 0
1, 82378, Note_on_c, 1, 56, 127
1, 82525, Note_off_c, 1, 73, 0
1, 82526, Note_off_c, 1, 56, 0
1, 82677, Note_off_c, 1, 70, 0
1, 82683, Note_on_c, 1, 55, 127
1, 82683, Note_on_c, 1, 70, 127
1, 82831, Note_off_c, 1, 55, 0
1, 82835, Note_on_c, 1, 48, 127
1, 82835, Note_on_c, 1, 63, 127
1, 83135, Note_off_c, 1, 70, 0
1, 83135, Note_off_c, 1, 48, 0
1, 83140, Note_on_c, 1, 60, 127
1, 83288, Note_off_c, 1, 60, 0
1, 83292, Note_on_c, 1, 58, 127
1, 83440, Note_off_c, 1, 58, 0
1, 83444, Note_on_c, 1, 75, 127
1, 83596, Note_on_c, 1, 61, 127
1, 83743, Note_off_c, 1, 63, 0
1, 83744, Note_off_c, 1, 61, 0
1, 83748, Note_on_c, 1, 67, 127
1, 84048, Note_off_c, 1, 67, 0
1, 84051, Note_on_c, 1, 56, 127
1, 84051, Note_on_c, 1, 72, 127
1, 84199, Note_off_c, 1, 56, 0
1, 84351, Note_off_c, 1, 75, 0
1, 84502, Note_off_c, 1, 72, 0
1, 84507, Note_on_c, 1, 56, 127
1, 84507, Note_on_c, 1, 72, 127
1, 84655, Note_off_c, 1, 56, 0
1, 84659, Note_on_c, 1, 53, 127
1, 84659, Note_on_c, 1, 68, 127
1, 84807, Note_off_c, 1, 53, 0
1, 84811, Note_on_c, 1, 55, 127
1, 84958, Note_off_c, 1, 72, 0
1, 84959, Note_off_c, 1, 55, 0
1, 85110, Note_off_c, 1, 68, 0
1, 85115, Note_on_c, 1, 53, 127
1, 85115, Note_on_c, 1, 68, 127
1, 85263, Note_off_c, 1, 53, 0
1, 85267, Note_on_c, 1, 46, 127
1, 85267, Note_on_c, 1, 61, 127
1, 85304, Note_off_c, 1, 68, 0
1, 85567, Note_off_c, 1, 46, 0
1, 85573, Note_on_c, 1, 58, 127
1, 85721, Note_off_c, 1, 58, 0
1, 85725, Note_on_c, 1, 56, 127
1, 85873, Note_off_c, 1, 56, 0
1, 85877, Note_on_c, 1, 73, 127
1, 86029, Note_on_c, 1, 60, 127
1, 86175, Note_off_c, 1, 61, 0
1, 86177, Note_off_c, 1, 60, 0
1, 86181, Note_on_c, 1, 65, 127
1, 86481, Note_off_c, 1, 65, 0
1, 86485, Note_on_c, 1, 55, 127
1, 86485, Note_on_c, 1, 70, 127
1, 86632, Note_off_c, 1, 73, 0
1, 86633, Note_off_c, 1, 55, 0
1, 86637, Note_on_c, 1, 72, 127
1, 86785, Note_off_c, 1, 72, 0
1, 86936, Note_off_c, 1, 70, 0
1, 86941, Note_on_c, 1, 55, 127
1, 86941, Note_on_c, 1, 70, 127
1, 87089, Note_off_c, 1, 55, 0
1, 87093, Note_on_c, 1, 51, 127
1, 87093, Note_on_c, 1, 82, 127
1, 87241, Note_off_c, 1, 70, 0
1, 87241, Note_off_c, 1, 51, 0
1, 87245, Note_on_c, 1, 53, 127
1, 87245, Note_on_c, 1, 73, 127
1, 87393, Note_off_c, 1, 53, 0
1, 87393, Note_off_c, 1, 73, 0
1, 87397, Note_on_c, 1, 75, 127
1, 87545, Note_off_c, 1, 75, 0
1, 87700, Note_on_c, 1, 44, 127
1, 87700, Note_on_c, 1, 72, 127
1, 87848, Note_off_c, 1, 82, 0
1, 87852, Note_on_c, 1, 80, 127
1, 88000, Note_off_c, 1, 44, 0
1, 88000, Note_off_c, 1, 80, 0
1, 88004, Note_on_c, 1, 56, 127
1, 88004, Note_on_c, 1, 79, 127
1, 88152, Note_off_c, 1, 56, 0
1, 88152, Note_off_c, 1, 79, 0
1, 88156, Note_on_c, 1, 58, 127
1, 88301, Note_off_c, 1, 72, 0
1, 88305, Note_off_c, 1, 58, 0
1, 88309, Note_on_c, 1, 80, 127
1, 88309, Note_on_c, 1, 60, 127
1, 88457, Note_off_c, 1, 80, 0
1, 88461, Note_on_c, 1, 75, 127
1, 88609, Note_off_c, 1, 60, 0
1, 88609, Note_off_c, 1, 75, 0
1, 88614, Note_on_c, 1, 77, 127
1, 88614, Note_on_c, 1, 56, 127
1, 88614, Note_on_c, 1, 68, 127
1, 88762, Note_off_c, 1, 77, 0
1, 88766, Note_on_c, 1, 78, 127
1, 88914, Note_off_c, 1, 56, 0
1, 88914, Note_off_c, 1, 78, 0
1, 88918, Note_on_c, 1, 61, 127
1, 89065, Note_off_c, 1, 68, 0
1, 89070, Note_on_c, 1, 67, 127
1, 89070, Note_on_c, 1, 75, 127
1, 89218, Note_off_c, 1, 67, 0
1, 89218, Note_off_c, 1, 75, 0
1, 89222, Note_on_c, 1, 65, 127
1, 89222, Note_on_c, 1, 73, 127
1, 89370, Note_off_c, 1, 65, 0
1, 89370, Note_off_c, 1, 73, 0
1, 89521, Note_off_c, 1, 61, 0
1, 89526, Note_on_c, 1, 68, 127
1, 89526, Note_on_c, 1, 84, 127
1, 89526, Note_on_c, 1, 60, 127
1, 89674, Note_off_c, 1, 68, 0
1, 89678, Note_on_c, 1, 66, 127
1, 89826, Note_off_c, 1, 84, 0
1, 89826, Note_off_c, 1, 66, 0
1, 89830, Note_on_c, 1, 65, 127
1, 89830, Note_on_c, 1, 80, 127
1, 89978, Note_off_c, 1, 65, 0
1, 89982, Note_on_c, 1, 63, 127
1, 90129, Note_off_c, 1, 60, 0
1, 90130, Note_off_c, 1, 80, 0
1, 90130, Note_off_c, 1, 63, 0
1, 90134, Note_on_c, 1, 65, 127
1, 90134, Note_on_c, 1, 58, 127
1, 90134, Note_on_c, 1, 75, 127
1, 90282, Note_off_c, 1, 65, 0
1, 90286, Note_on_c, 1, 63, 127
1, 90434, Note_off_c, 1, 58, 0
1, 90434, Note_off_c, 1, 75, 0
1, 90434, Note_off_c, 1, 63, 0
1, 90438, Note_on_c, 1, 73, 127
1, 90438, Note_on_c, 1, 56, 127
1, 90438, Note_on_c, 1, 65, 127
1, 90586, Note_off_c, 1, 73, 0
1, 90590, Note_on_c, 1, 72, 127
1, 90738, Note_off_c, 1, 56, 0
1, 90738, Note_off_c, 1, 72, 0
1, 90742, Note_on_c, 1, 55, 127
1, 90889, Note_off_c, 1, 65, 0
1, 90894, Note_on_c, 1, 63, 127
1, 91042, Note_off_c, 1, 63, 0
1, 91046, Note_on_c, 1, 61, 127
1, 91046, Note_on_c, 1, 82, 127
1, 91194, Note_off_c, 1, 61, 0
1, 91345, Note_off_c, 1, 55, 0
1, 91346, Note_off_c, 1, 82, 0
1, 91350, Note_on_c, 1, 63, 127
1, 91350, Note_on_c, 1, 72, 127
1, 91350, Note_on_c, 1, 56, 127
1, 91498, Note_off_c, 1, 63, 0
1, 91501, Note_on_c, 1, 61, 127
1, 91649, Note_off_c, 1, 61, 0
1, 91650, Note_off_c, 1, 72, 0
1, 91653, Note_on_c, 1, 60, 127
1, 91653, Note_on_c, 1, 80, 127
1, 91801, Note_off_c, 1, 60, 0
1, 91953, Note_off_c, 1, 56, 0
1, 91953, Note_off_c, 1, 80, 0
1, 91957, Note_on_c, 1, 61, 127
1, 91957, Note_on_c, 1, 70, 127
1, 91957, Note_on_c, 1, 51, 127
1, 92105, Note_off_c, 1, 61, 0
1, 92109, Note_on_c, 1, 60, 127
1, 92257, Note_off_c, 1, 70, 0
1, 92257, Note_off_c, 1, 60, 0
1, 92261, Note_on_c, 1, 79, 127
1, 92414, Note_on_c, 1, 58, 127
1, 92560, Note_off_c, 1, 51, 0
1, 92561, Note_off_c, 1, 79, 0
1, 92562, Note_off_c, 1, 58, 0
1, 92566, Note_on_c, 1, 68, 127
1, 92566, Note_on_c, 1, 60, 127
1, 92566, Note_on_c, 1, 56, 127
1, 92714, Note_off_c, 1, 68, 0
1, 92718, Note_on_c, 1, 70, 127
1, 92866, Note_off_c, 1, 60, 0
1, 92866, Note_off_c, 1, 70, 0
1, 92870, Note_on_c, 1, 72, 127
1, 92870, Note_on_c, 1, 63, 127
1, 93018, Note_off_c, 1, 72, 0
1, 93022, Note_on_c, 1, 73, 127
1, 93170, Note_off_c, 1, 63, 0
1, 93170, Note_off_c, 1, 73, 0
1, 93473, Note_off_c, 1, 56, 0
1, 93478, Note_on_c, 1, 63, 127
1, 93478, Note_on_c, 1, 68, 127
1, 93626, Note_off_c, 1, 63, 0
1, 93626, Note_off_c, 1, 68, 0
1, 93630, Note_on_c, 1, 60, 127
1, 93630, Note_on_c, 1, 72, 127
1, 93778, Note_off_c, 1, 60, 0
1, 93778, Note_off_c, 1, 72, 0
1, 93782, Note_on_c, 1, 77, 127
1, 93782, Note_on_c, 1, 56, 127
1, 93930, Note_off_c, 1, 77, 0
1, 93934, Note_on_c, 1, 75, 127
1, 94082, Note_off_c, 1, 56, 0
1, 94082, Note_off_c, 1, 75, 0
1, 94086, Note_on_c, 1, 59, 127
1, 94086, Note_on_c, 1, 74, 127
1, 94234, Note_off_c, 1, 59, 0
1, 94234, Note_off_c, 1, 74, 0
1, 94238, Note_on_c, 1, 56, 127
1, 94238, Note_on_c, 1, 77, 127
1, 94386, Note_off_c, 1, 56, 0
1, 94386, Note_off_c, 1, 77, 0
1, 94390, Note_on_c, 1, 80, 127
1, 94390, Note_on_c, 1, 53, 127
1, 94538, Note_off_c, 1, 80, 0
1, 94542, Note_on_c, 1, 78, 127
1, 94690, Note_off_c, 1, 53, 0
1, 94690, Note_off_c, 1, 78, 0
1, 94694, Note_on_c, 1, 56, 127
1, 94694, Note_on_c, 1, 77, 127
1, 94842, Note_off_c, 1, 56, 0
1, 94842, Note_off_c, 1, 77, 0
1, 94846, Note_on_c, 1, 53, 127
1, 94846, Note_on_c, 1, 80, 127
1, 94994, Note_off_c, 1, 53, 0
1, 94994, Note_off_c, 1, 80, 0
1, 94998, Note_on_c, 1, 80, 127
1, 94998, Note_on_c, 1, 50, 127
1, 95070, Note_off_c, 1, 80, 0
1, 95074, Note_on_c, 1, 82, 127
1, 95146, Note_off_c, 1, 82, 0
1, 95150, Note_on_c, 1, 83, 127
1, 95298, Note_off_c, 1, 50, 0
1, 95298, Note_off_c, 1, 83, 0
1, 95301, Note_on_c, 1, 53, 127
1, 95301, Note_on_c, 1, 82, 127
1, 95449, Note_off_c, 1, 53, 0
1, 95449, Note_off_c, 1, 82, 0
1, 95453, Note_on_c, 1, 56, 127
1, 95453, Note_on_c, 1, 80, 127
1, 95601, Note_off_c, 1, 56, 0
1, 95601, Note_off_c, 1, 80, 0
1, 95605, Note_on_c, 1, 78, 127
1, 95605, Note_on_c, 1, 59, 127
1, 95753, Note_off_c, 1, 78, 0
1, 95757, Note_on_c, 1, 77, 127
1, 95905, Note_off_c, 1, 77, 0
1, 95909, Note_on_c, 1, 75, 127
1, 95909, Note_on_c, 1, 53, 127
1, 96057, Note_off_c, 1, 75, 0
1, 96061, Note_on_c, 1, 74, 127
1, 96206, Note_off_c, 1, 59, 0
1, 96209, Note_off_c, 1, 53, 0
1, 96210, Note_off_c, 1, 74, 0
1, 96215, Note_on_c, 1, 75, 127
1, 96215, Note_on_c, 1, 54, 127
1, 96215, Note_on_c, 1, 58, 127
1, 96363, Note_off_c, 1, 75, 0
1, 96367, Note_on_c, 1, 78, 127
1, 96515, Note_off_c, 1, 54, 0
1, 96515, Note_off_c, 1, 58, 0
1, 96515, Note_off_c, 1, 78, 0
1, 96519, Note_on_c, 1, 77, 127
1, 96519, Note_on_c, 1, 59, 127
1, 96519, Note_on_c, 1, 56, 127
1, 96667, Note_off_c, 1, 77, 0
1, 96671, Note_on_c, 1, 75, 127
1, 96819, Note_off_c, 1, 59, 0
1, 96819, Note_off_c, 1, 56, 0
1, 96819, Note_off_c, 1, 75, 0
1, 96823, Note_on_c, 1, 74, 127
1, 96823, Note_on_c, 1, 58, 127
1, 96971, Note_off_c, 1, 74, 0
1, 96975, Note_on_c, 1, 77, 127
1, 97123, Note_off_c, 1, 58, 0
1, 97123, Note_off_c, 1, 77, 0
1, 97127, Note_on_c, 1, 70, 127
1, 97127, Note_on_c, 1, 46, 127
1, 97127, Note_on_c, 1, 50, 127
1, 97275, Note_off_c, 1, 70, 0
1, 97279, Note_on_c, 1, 68, 127
1, 97427, Note_off_c, 1, 46, 0
1, 97427, Note_off_c, 1, 50, 0
1, 97427, Note_off_c, 1, 68, 0
1, 97431, Note_on_c, 1, 66, 127
1, 97431, Note_on_c, 1, 51, 127
1, 97431, Note_on_c, 1, 39, 127
1, 97579, Note_off_c, 1, 66, 0
1, 97583, Note_on_c, 1, 65, 127
1, 97731, Note_off_c, 1, 65, 0
1, 97735, Note_on_c, 1, 63, 127
1, 97883, Note_off_c, 1, 63, 0
1, 97887, Note_on_c, 1, 62, 127
1, 98035, Note_off_c, 1, 62, 0
1, 98127, Note_off_c, 1, 51, 0
1, 98127, Note_off_c, 1, 39, 0
1, 98191, Note_on_c, 1, 65, 127
1, 98339, Note_off_c, 1, 65, 0
1, 98343, Note_on_c, 1, 66, 127
1, 98343, Note_on_c, 1, 51, 127
1, 98491, Note_off_c, 1, 66, 0
1, 98495, Note_on_c, 1, 68, 127
1, 98643, Note_off_c, 1, 51, 0
1, 98643, Note_off_c, 1, 68, 0
1, 98647, Note_on_c, 1, 54, 127
1, 98647, Note_on_c, 1, 70, 127
1, 98795, Note_off_c, 1, 54, 0
1, 98795, Note_off_c, 1, 70, 0
1, 98799, Note_on_c, 1, 53, 127
1, 98799, Note_on_c, 1, 68, 127
1, 98947, Note_off_c, 1, 53, 0
1, 98947, Note_off_c, 1, 68, 0
1, 98950, Note_on_c, 1, 51, 127
1, 98950, Note_on_c, 1, 66, 127
1, 99098, Note_off_c, 1, 51, 0
1, 99098, Note_off_c, 1, 66, 0
1, 99102, Note_on_c, 1, 53, 127
1, 99102, Note_on_c, 1, 68, 127
1, 99250, Note_off_c, 1, 53, 0
1, 99250, Note_off_c, 1, 68, 0
1, 99254, Note_on_c, 1, 70, 127
1, 99254, Note_on_c, 1, 61, 127
1, 99402, Note_off_c, 1, 70, 0
1, 99406, Note_on_c, 1, 68, 127
1, 99554, Note_off_c, 1, 61, 0
1, 99554, Note_off_c, 1, 68, 0
1, 99559, Note_on_c, 1, 66, 127
1, 99559, Note_on_c, 1, 58, 127
1, 99707, Note_off_c, 1, 66, 0
1, 99711, Note_on_c, 1, 65, 127
1, 99859, Note_off_c, 1, 58, 0
1, 99859, Note_off_c, 1, 65, 0
1, 99863, Note_on_c, 1, 66, 127
1, 99863, Note_on_c, 1, 53, 127
1, 100011, Note_off_c, 1, 66, 0
1, 100015, Note_on_c, 1, 65, 127
1, 100163, Note_off_c, 1, 53, 0
1, 100163, Note_off_c, 1, 65, 0
1, 100167, Note_on_c, 1, 51, 127
1, 100167, Note_on_c, 1, 66, 127
1, 100315, Note_off_c, 1, 51, 0
1, 100319, Note_on_c, 1, 49, 127
1, 100467, Note_off_c, 1, 49, 0
1, 100618, Note_off_c, 1, 66, 0
1, 100623, Note_on_c, 1, 65, 127
1, 100771, Note_off_c, 1, 65, 0
1, 100775, Note_on_c, 1, 63, 127
1, 100775, Note_on_c, 1, 60, 127
1, 100923, Note_off_c, 1, 63, 0
1, 100927, Note_on_c, 1, 66, 127
1, 101075, Note_off_c, 1, 60, 0
1, 101075, Note_off_c, 1, 66, 0
1, 101079, Note_on_c, 1, 65, 127
1, 101079, Note_on_c, 1, 49, 127
1, 101227, Note_off_c, 1, 65, 0
1, 101231, Note_on_c, 1, 63, 127
1, 101379, Note_off_c, 1, 49, 0
1, 101379, Note_off_c, 1, 63, 0
1, 101383, Note_on_c, 1, 61, 127
1, 101383, Note_on_c, 1, 58, 127
1, 101531, Note_off_c, 1, 61, 0
1, 101535, Note_on_c, 1, 65, 127
1, 101683, Note_off_c, 1, 58, 0
1, 101683, Note_off_c, 1, 65, 0
1, 101687, Note_on_c, 1, 63, 127
1, 101687, Note_on_c, 1, 48, 127
1, 101835, Note_off_c, 1, 63, 0
1, 101839, Note_on_c, 1, 61, 127
1, 101987, Note_off_c, 1, 48, 0
1, 101987, Note_off_c, 1, 61, 0
1, 101991, Note_on_c, 1, 63, 127
1, 101991, Note_on_c, 1, 57, 127
1, 102139, Note_off_c, 1, 63, 0
1, 102143, Note_on_c, 1, 60, 127
1, 102291, Note_off_c, 1, 57, 0
1, 102291, Note_off_c, 1, 60, 0
1, 102295, Note_on_c, 1, 61, 127
1, 102295, Note_on_c, 1, 46, 127
1, 102443, Note_off_c, 1, 61, 0
1, 102447, Note_on_c, 1, 65, 127
1, 102595, Note_off_c, 1, 46, 0
1, 102595, Note_off_c, 1, 65, 0
1, 102599, Note_on_c, 1, 58, 127
1, 102599, Note_on_c, 1, 66, 127
1, 102747, Note_off_c, 1, 58, 0
1, 102747, Note_off_c, 1, 66, 0
1, 102750, Note_on_c, 1, 57, 127
1, 102750, Note_on_c, 1, 65, 127
1, 102898, Note_off_c, 1, 57, 0
1, 102898, Note_off_c, 1, 65, 0
1, 102902, Note_on_c, 1, 58, 127
1, 102902, Note_on_c, 1, 73, 127
1, 103050, Note_off_c, 1, 58, 0
1, 103054, Note_on_c, 1, 60, 127
1, 103202, Note_off_c, 1, 60, 0
1, 103206, Note_on_c, 1, 61, 127
1, 103206, Note_on_c, 1, 65, 127
1, 103354, Note_off_c, 1, 61, 0
1, 103503, Note_off_c, 1, 73, 0
1, 103506, Note_off_c, 1, 65, 0
1, 103512, Note_on_c, 1, 55, 127
1, 103512, Note_on_c, 1, 70, 127
1, 103660, Note_off_c, 1, 55, 0
1, 103664, Note_on_c, 1, 56, 127
1, 103664, Note_on_c, 1, 72, 127
1, 103812, Note_off_c, 1, 56, 0
1, 103812, Note_off_c, 1, 72, 0
1, 103816, Note_on_c, 1, 58, 127
1, 103816, Note_on_c, 1, 73, 127
1, 103963, Note_off_c, 1, 70, 0
1, 103964, Note_off_c, 1, 58, 0
1, 103964, Note_off_c, 1, 73, 0
1, 103968, Note_on_c, 1, 55, 127
1, 103968, Note_on_c, 1, 70, 127
1, 104116, Note_off_c, 1, 55, 0
1, 104120, Note_on_c, 1, 51, 127
1, 104120, Note_on_c, 1, 82, 127
1, 104268, Note_off_c, 1, 70, 0
1, 104268, Note_off_c, 1, 51, 0
1, 104272, Note_on_c, 1, 53, 127
1, 104272, Note_on_c, 1, 73, 127
1, 104420, Note_off_c, 1, 53, 0
1, 104420, Note_off_c, 1, 73, 0
1, 104424, Note_on_c, 1, 75, 127
1, 104572, Note_off_c, 1, 75, 0
1, 104728, Note_on_c, 1, 44, 127
1, 104728, Note_on_c, 1, 72, 127
1, 104875, Note_off_c, 1, 82, 0
1, 104880, Note_on_c, 1, 63, 127
1, 105028, Note_off_c, 1, 44, 0
1, 105028, Note_off_c, 1, 63, 0
1, 105032, Note_on_c, 1, 56, 127
1, 105032, Note_on_c, 1, 65, 127
1, 105180, Note_off_c, 1, 56, 0
1, 105180, Note_off_c, 1, 65, 0
1, 105329, Note_off_c, 1, 72, 0
1, 105337, Note_on_c, 1, 56, 127
1, 105337, Note_on_c, 1, 72, 127
1, 105485, Note_off_c, 1, 56, 0
1, 105489, Note_on_c, 1, 58, 127
1, 105637, Note_off_c, 1, 58, 0
1, 105641, Note_on_c, 1, 60, 127
1, 105641, Note_on_c, 1, 63, 127
1, 105789, Note_off_c, 1, 60, 0
1, 105938, Note_off_c, 1, 72, 0
1, 105941, Note_off_c, 1, 63, 0
1, 105947, Note_on_c, 1, 53, 127
1, 105947, Note_on_c, 1, 68, 127
1, 106095, Note_off_c, 1, 53, 0
1, 106099, Note_on_c, 1, 55, 127
1, 106099, Note_on_c, 1, 70, 127
1, 106247, Note_off_c, 1, 55, 0
1, 106247, Note_off_c, 1, 70, 0
1, 106250, Note_on_c, 1, 56, 127
1, 106250, Note_on_c, 1, 72, 127
1, 106398, Note_off_c, 1, 68, 0
1, 106398, Note_off_c, 1, 56, 0
1, 106398, Note_off_c, 1, 72, 0
1, 106402, Note_on_c, 1, 53, 127
1, 106402, Note_on_c, 1, 68, 127
1, 106550, Note_off_c, 1, 53, 0
1, 106554, Note_on_c, 1, 49, 127
1, 106554, Note_on_c, 1, 80, 127
1, 106702, Note_off_c, 1, 68, 0
1, 106702, Note_off_c, 1, 49, 0
1, 106706, Note_on_c, 1, 51, 127
1, 106706, Note_on_c, 1, 72, 127
1, 106854, Note_off_c, 1, 51, 0
1, 106854, Note_off_c, 1, 72, 0
1, 106858, Note_on_c, 1, 73, 127
1, 107006, Note_off_c, 1, 73, 0
1, 107162, Note_on_c, 1, 43, 127
1, 107162, Note_on_c, 1, 70, 127
1, 107309, Note_off_c, 1, 80, 0
1, 107314, Note_on_c, 1, 61, 127
1, 107462, Note_off_c, 1, 43, 0
1, 107462, Note_off_c, 1, 61, 0
1, 107466, Note_on_c, 1, 55, 127
1, 107466, Note_on_c, 1, 63, 127
1, 107614, Note_off_c, 1, 55, 0
1, 107614, Note_off_c, 1, 63, 0
1, 107763, Note_off_c, 1, 70, 0
1, 107771, Note_on_c, 1, 55, 127
1, 107771, Note_on_c, 1, 70, 127
1, 107919, Note_off_c, 1, 55, 0
1, 107923, Note_on_c, 1, 56, 127
1, 108071, Note_off_c, 1, 56, 0
1, 108075, Note_on_c, 1, 58, 127
1, 108075, Note_on_c, 1, 61, 127
1, 108223, Note_off_c, 1, 58, 0
1, 108372, Note_off_c, 1, 70, 0
1, 108375, Note_off_c, 1, 61, 0
1, 108381, Note_on_c, 1, 52, 127
1, 108381, Note_on_c, 1, 67, 127
1, 108529, Note_off_c, 1, 52, 0
1, 108529, Note_off_c, 1, 67, 0
1, 108533, Note_on_c, 1, 53, 127
1, 108533, Note_on_c, 1, 68, 127
1, 108681, Note_off_c, 1, 53, 0
1, 108681, Note_off_c, 1, 68, 0
1, 108685, Note_on_c, 1, 55, 127
1, 108685, Note_on_c, 1, 70, 127
1, 108833, Note_off_c, 1, 55, 0
1, 108833, Note_off_c, 1, 70, 0
1, 108837, Note_on_c, 1, 52, 127
1, 108837, Note_on_c, 1, 67, 127
1, 108985, Note_off_c, 1, 52, 0
1, 108989, Note_on_c, 1, 48, 127
1, 108989, Note_on_c, 1, 79, 127
1, 109137, Note_off_c, 1, 67, 0
1, 109137, Note_off_c, 1, 48, 0
1, 109141, Note_on_c, 1, 50, 127
1, 109141, Note_on_c, 1, 70, 127
1, 109289, Note_off_c, 1, 50, 0
1, 109289, Note_off_c, 1, 70, 0
1, 109293, Note_on_c, 1, 72, 127
1, 109441, Note_off_c, 1, 72, 0
1, 109597, Note_on_c, 1, 41, 127
1, 109597, Note_on_c, 1, 68, 127
1, 109744, Note_off_c, 1, 79, 0
1, 109745, Note_off_c, 1, 41, 0
1, 109749, Note_on_c, 1, 43, 127
1, 109749, Note_on_c, 1, 76, 127
1, 109897, Note_off_c, 1, 43, 0
1, 109897, Note_off_c, 1, 76, 0
1, 109900, Note_on_c, 1, 44, 127
1, 109900, Note_on_c, 1, 77, 127
1, 110048, Note_off_c, 1, 44, 0
1, 110048, Note_off_c, 1, 77, 0
1, 110052, Note_on_c, 1, 46, 127
1, 110052, Note_on_c, 1, 73, 127
1, 110200, Note_off_c, 1, 46, 0
1, 110200, Note_off_c, 1, 73, 0
1, 110504, Note_off_c, 1, 68, 0
1, 110508, Note_on_c, 1, 60, 127
1, 110808, Note_off_c, 1, 60, 0
1, 110812, Note_on_c, 1, 53, 127
1, 110812, Note_on_c, 1, 61, 127
1, 110960, Note_off_c, 1, 53, 0
1, 110960, Note_off_c, 1, 61, 0
1, 111116, Note_on_c, 1, 59, 127
1, 111264, Note_off_c, 1, 59, 0
1, 111572, Note_on_c, 1, 51, 127
1, 111720, Note_off_c, 1, 51, 0
1, 111724, Note_on_c, 1, 49, 127
1, 111724, Note_on_c, 1, 65, 127
1, 111872, Note_off_c, 1, 49, 0
1, 112024, Note_off_c, 1, 65, 0
1, 112333, Note_on_c, 1, 58, 127
1, 112481, Note_off_c, 1, 58, 0
1, 112485, Note_on_c, 1, 56, 127
1, 112633, Note_off_c, 1, 56, 0
1, 112941, Note_on_c, 1, 46, 127
1, 112941, Note_on_c, 1, 67, 127
1, 113089, Note_off_c, 1, 46, 0
1, 113093, Note_on_c, 1, 49, 127
1, 113241, Note_off_c, 1, 49, 0
1, 113245, Note_on_c, 1, 48, 127
1, 113245, Note_on_c, 1, 56, 127
1, 113393, Note_off_c, 1, 48, 0
1, 113542, Note_off_c, 1, 67, 0
1, 113545, Note_off_c, 1, 56, 0
1, 113550, Note_on_c, 1, 44, 127
1, 113550, Note_on_c, 1, 65, 127
1, 113698, Note_off_c, 1, 44, 0
1, 113701, Note_on_c, 1, 48, 127
1, 113849, Note_off_c, 1, 48, 0
1, 113850, Note_off_c, 1, 65, 0
1, 113853, Note_on_c, 1, 46, 127
1, 113853, Note_on_c, 1, 55, 127
1, 113853, Note_on_c, 1, 64, 127
1, 114001, Note_off_c, 1, 46, 0
1, 114005, Note_on_c, 1, 44, 127
1, 114153, Note_off_c, 1, 55, 0
1, 114153, Note_off_c, 1, 64, 0
1, 114153, Note_off_c, 1, 44, 0
1, 114157, Note_on_c, 1, 46, 127
1, 114157, Note_on_c, 1, 64, 127
1, 114157, Note_on_c, 1, 67, 127
1, 114305, Note_off_c, 1, 46, 0
1, 114309, Note_on_c, 1, 43, 127
1, 114457, Note_off_c, 1, 64, 0
1, 114457, Note_off_c, 1, 67, 0
1, 114457, Note_off_c, 1, 43, 0
1, 114461, Note_on_c, 1, 72, 127
1, 114461, Note_on_c, 1, 44, 127
1, 114461, Note_on_c, 1, 53, 127
1, 114609, Note_off_c, 1, 72, 0
1, 114613, Note_on_c, 1, 70, 127
1, 114761, Note_off_c, 1, 44, 0
1, 114761, Note_off_c, 1, 70, 0
1, 114765, Note_on_c, 1, 68, 127
1, 114765, Note_on_c, 1, 49, 127
1, 114913, Note_off_c, 1, 68, 0
1, 115065, Note_off_c, 1, 49, 0
1, 115069, Note_on_c, 1, 43, 127
1, 115368, Note_off_c, 1, 53, 0
1, 115369, Note_off_c, 1, 43, 0
1, 115374, Note_on_c, 1, 67, 127
1, 115374, Note_on_c, 1, 48, 127
1, 115374, Note_on_c, 1, 52, 127
1, 115522, Note_off_c, 1, 67, 0
1, 115526, Note_on_c, 1, 70, 127
1, 115674, Note_off_c, 1, 48, 0
1, 115674, Note_off_c, 1, 52, 0
1, 115674, Note_off_c, 1, 70, 0
1, 115678, Note_on_c, 1, 68, 127
1, 115678, Note_on_c, 1, 41, 127
1, 115678, Note_on_c, 1, 53, 127
1, 115826, Note_off_c, 1, 68, 0
1, 115830, Note_on_c, 1, 65, 127
1, 115978, Note_off_c, 1, 41, 0
1, 115978, Note_off_c, 1, 53, 0
1, 115978, Note_off_c, 1, 65, 0
1, 115982, Note_on_c, 1, 73, 127
1, 115982, Note_on_c, 1, 46, 127
1, 115982, Note_on_c, 1, 52, 127
1, 116130, Note_off_c, 1, 73, 0
1, 116134, Note_on_c, 1, 70, 127
1, 116282, Note_off_c, 1, 46, 0
1, 116282, Note_off_c, 1, 52, 0
1, 116282, Note_off_c, 1, 70, 0
1, 116286, Note_on_c, 1, 72, 127
1, 116286, Note_on_c, 1, 44, 127
1, 116286, Note_on_c, 1, 53, 127
1, 116434, Note_off_c, 1, 72, 0
1, 116438, Note_on_c, 1, 68, 127
1, 116586, Note_off_c, 1, 44, 0
1, 116586, Note_off_c, 1, 53, 0
1, 116586, Note_off_c, 1, 68, 0
1, 116590, Note_on_c, 1, 78, 127
1, 116590, Note_on_c, 1, 49, 127
1, 116590, Note_on_c, 1, 58, 127
1, 116738, Note_off_c, 1, 78, 0
1, 116742, Note_on_c, 1, 76, 127
1, 116890, Note_off_c, 1, 49, 0
1, 116890, Note_off_c, 1, 58, 0
1, 116890, Note_off_c, 1, 76, 0
1, 116894, Note_on_c, 1, 76, 127
1, 116894, Note_on_c, 1, 56, 127
1, 116894, Note_on_c, 1, 48, 127
1, 117042, Note_off_c, 1, 76, 0
1, 117046, Note_on_c, 1, 77, 127
1, 117194, Note_off_c, 1, 56, 0
1, 117194, Note_off_c, 1, 77, 0
1, 117198, Note_on_c, 1, 55, 127
1, 117198, Note_on_c, 1, 83, 127
1, 117346, Note_off_c, 1, 55, 0
1, 117346, Note_off_c, 1, 83, 0
1, 117350, Note_on_c, 1, 53, 127
1, 117350, Note_on_c, 1, 84, 127
1, 117498, Note_off_c, 1, 53, 0
1, 117498, Note_off_c, 1, 84, 0
1, 117805, Note_on_c, 1, 58, 127
1, 118105, Note_off_c, 1, 48, 0
1, 118105, Note_off_c, 1, 58, 0
1, 118109, Note_on_c, 1, 56, 127
1, 118109, Note_on_c, 1, 53, 127
1, 118109, Note_on_c, 1, 77, 127
1, 118257, Note_off_c, 1, 56, 0
1, 118261, Note_on_c, 1, 58, 127
1, 118409, Note_off_c, 1, 58, 0
1, 118413, Note_on_c, 1, 60, 127
1, 118561, Note_off_c, 1, 60, 0
1, 118691, Note_off_c, 1, 53, 0
1, 118871, Note_on_c, 1, 54, 127
1, 119017, Note_off_c, 1, 77, 0
1, 119019, Note_off_c, 1, 54, 0
1, 119023, Note_on_c, 1, 56, 127
1, 119023, Note_on_c, 1, 77, 127
1, 119171, Note_off_c, 1, 56, 0
1, 119175, Note_on_c, 1, 53, 127
1, 119323, Note_off_c, 1, 77, 0
1, 119323, Note_off_c, 1, 53, 0
1, 119327, Note_on_c, 1, 50, 127
1, 119327, Note_on_c, 1, 71, 127
1, 119475, Note_off_c, 1, 50, 0
1, 119475, Note_off_c, 1, 71, 0
1, 119479, Note_on_c, 1, 51, 127
1, 119479, Note_on_c, 1, 70, 127
1, 119627, Note_off_c, 1, 51, 0
1, 119627, Note_off_c, 1, 70, 0
1, 119631, Note_on_c, 1, 53, 127
1, 119631, Note_on_c, 1, 68, 127
1, 119779, Note_off_c, 1, 53, 0
1, 119779, Note_off_c, 1, 68, 0
1, 119783, Note_on_c, 1, 50, 127
1, 119783, Note_on_c, 1, 70, 127
1, 119931, Note_off_c, 1, 50, 0
1, 119931, Note_off_c, 1, 70, 0
1, 119935, Note_on_c, 1, 46, 127
1, 119935, Note_on_c, 1, 77, 127
1, 120083, Note_off_c, 1, 46, 0
1, 120087, Note_on_c, 1, 50, 127
1, 120235, Note_off_c, 1, 77, 0
1, 120235, Note_off_c, 1, 50, 0
1, 120239, Note_on_c, 1, 53, 127
1, 120239, Note_on_c, 1, 74, 127
1, 120387, Note_off_c, 1, 53, 0
1, 120391, Note_on_c, 1, 58, 127
1, 120539, Note_off_c, 1, 74, 0
1, 120539, Note_off_c, 1, 58, 0
1, 120543, Note_on_c, 1, 51, 127
1, 120543, Note_on_c, 1, 68, 127
1, 120691, Note_off_c, 1, 51, 0
1, 120695, Note_on_c, 1, 54, 127
1, 120843, Note_off_c, 1, 68, 0
1, 120843, Note_off_c, 1, 54, 0
1, 120847, Note_on_c, 1, 58, 127
1, 120847, Note_on_c, 1, 66, 127
1, 120995, Note_off_c, 1, 58, 0
1, 120995, Note_off_c, 1, 66, 0
1, 120999, Note_on_c, 1, 62, 127
1, 120999, Note_on_c, 1, 65, 127
1, 121147, Note_off_c, 1, 62, 0
1, 121147, Note_off_c, 1, 65, 0
1, 121150, Note_on_c, 1, 63, 127
1, 121150, Note_on_c, 1, 66, 127
1, 121298, Note_off_c, 1, 63, 0
1, 121302, Note_on_c, 1, 65, 127
1, 121450, Note_off_c, 1, 66, 0
1, 121450, Note_off_c, 1, 65, 0
1, 121454, Note_on_c, 1, 66, 127
1, 121454, Note_on_c, 1, 75, 127
1, 121602, Note_off_c, 1, 66, 0
1, 121606, Note_on_c, 1, 63, 127
1, 121754, Note_off_c, 1, 75, 0
1, 121754, Note_off_c, 1, 63, 0
1, 121758, Note_on_c, 1, 60, 127
1, 121758, Note_on_c, 1, 69, 127
1, 121906, Note_off_c, 1, 60, 0
1, 121906, Note_off_c, 1, 69, 0
1, 121910, Note_on_c, 1, 61, 127
1, 121910, Note_on_c, 1, 68, 127
1, 122058, Note_off_c, 1, 61, 0
1, 122058, Note_off_c, 1, 68, 0
1, 122062, Note_on_c, 1, 63, 127
1, 122062, Note_on_c, 1, 66, 127
1, 122210, Note_off_c, 1, 63, 0
1, 122210, Note_off_c, 1, 66, 0
1, 122214, Note_on_c, 1, 60, 127
1, 122214, Note_on_c, 1, 68, 127
1, 122362, Note_off_c, 1, 60, 0
1, 122362, Note_off_c, 1, 68, 0
1, 122367, Note_on_c, 1, 75, 127
1, 122367, Note_on_c, 1, 56, 127
1, 122519, Note_on_c, 1, 44, 127
1, 122667, Note_off_c, 1, 75, 0
1, 122667, Note_off_c, 1, 44, 0
1, 122671, Note_on_c, 1, 46, 127
1, 122671, Note_on_c, 1, 72, 127
1, 122819, Note_off_c, 1, 46, 0
1, 122823, Note_on_c, 1, 48, 127
1, 122971, Note_off_c, 1, 72, 0
1, 122971, Note_off_c, 1, 48, 0
1, 122975, Note_on_c, 1, 66, 127
1, 122975, Note_on_c, 1, 49, 127
1, 123122, Note_off_c, 1, 56, 0
1, 123275, Note_off_c, 1, 66, 0
1, 123279, Note_on_c, 1, 58, 127
1, 123279, Note_on_c, 1, 65, 127
1, 123427, Note_off_c, 1, 58, 0
1, 123427, Note_off_c, 1, 65, 0
1, 123431, Note_on_c, 1, 60, 127
1, 123431, Note_on_c, 1, 63, 127
1, 123579, Note_off_c, 1, 60, 0
1, 123579, Note_off_c, 1, 63, 0
1, 123583, Note_on_c, 1, 61, 127
1, 123730, Note_off_c, 1, 49, 0
1, 123735, Note_on_c, 1, 51, 127
1, 123735, Note_on_c, 1, 68, 127
1, 123883, Note_off_c, 1, 51, 0
1, 123883, Note_off_c, 1, 68, 0
1, 123887, Note_on_c, 1, 53, 127
1, 123887, Note_on_c, 1, 73, 127
1, 124035, Note_off_c, 1, 53, 0
1, 124035, Note_off_c, 1, 73, 0
1, 124039, Note_on_c, 1, 55, 127
1, 124187, Note_off_c, 1, 55, 0
1, 124191, Note_on_c, 1, 77, 127
1, 124339, Note_off_c, 1, 77, 0
1, 124342, Note_off_c, 1, 61, 0
1, 124343, Note_on_c, 1, 55, 127
1, 124343, Note_on_c, 1, 75, 127
1, 124491, Note_off_c, 1, 55, 0
1, 124491, Note_off_c, 1, 75, 0
1, 124495, Note_on_c, 1, 53, 127
1, 124495, Note_on_c, 1, 73, 127
1, 124643, Note_off_c, 1, 53, 0
1, 124643, Note_off_c, 1, 73, 0
1, 124647, Note_on_c, 1, 55, 127
1, 124647, Note_on_c, 1, 75, 127
1, 124795, Note_off_c, 1, 55, 0
1, 124795, Note_off_c, 1, 75, 0
1, 124799, Note_on_c, 1, 56, 127
1, 124799, Note_on_c, 1, 84, 127
1, 124799, Note_on_c, 1, 72, 127
1, 124947, Note_off_c, 1, 56, 0
1, 124950, Note_on_c, 1, 55, 127
1, 125098, Note_off_c, 1, 55, 0
1, 125099, Note_off_c, 1, 84, 0
1, 125102, Note_on_c, 1, 53, 127
1, 125102, Note_on_c, 1, 80, 127
1, 125250, Note_off_c, 1, 53, 0
1, 125254, Note_on_c, 1, 51, 127
1, 125402, Note_off_c, 1, 80, 0
1, 125402, Note_off_c, 1, 51, 0
1, 125406, Note_on_c, 1, 75, 127
1, 125706, Note_off_c, 1, 75, 0
1, 125707, Note_off_c, 1, 72, 0
1, 125709, Note_on_c, 1, 73, 127
1, 125709, Note_on_c, 1, 53, 127
1, 125857, Note_off_c, 1, 73, 0
1, 125861, Note_on_c, 1, 72, 127
1, 126009, Note_off_c, 1, 72, 0
1, 126013, Note_on_c, 1, 70, 127
1, 126160, Note_off_c, 1, 53, 0
1, 126165, Note_on_c, 1, 51, 127
1, 126313, Note_off_c, 1, 51, 0
1, 126317, Note_on_c, 1, 49, 127
1, 126317, Note_on_c, 1, 82, 127
1, 126465, Note_off_c, 1, 49, 0
1, 126617, Note_off_c, 1, 82, 0
1, 126920, Note_off_c, 1, 70, 0
1, 126926, Note_on_c, 1, 48, 127
1, 126926, Note_on_c, 1, 68, 127
1, 126926, Note_on_c, 1, 80, 127
1, 127074, Note_off_c, 1, 48, 0
1, 127078, Note_on_c, 1, 51, 127
1, 127226, Note_off_c, 1, 68, 0
1, 127226, Note_off_c, 1, 80, 0
1, 127226, Note_off_c, 1, 51, 0
1, 127230, Note_on_c, 1, 49, 127
1, 127230, Note_on_c, 1, 67, 127
1, 127230, Note_on_c, 1, 70, 127
1, 127378, Note_off_c, 1, 49, 0
1, 127382, Note_on_c, 1, 48, 127
1, 127530, Note_off_c, 1, 67, 0
1, 127530, Note_off_c, 1, 70, 0
1, 127530, Note_off_c, 1, 48, 0
1, 127534, Note_on_c, 1, 46, 127
1, 127534, Note_on_c, 1, 70, 127
1, 127534, Note_on_c, 1, 79, 127
1, 127682, Note_off_c, 1, 46, 0
1, 127686, Note_on_c, 1, 49, 127
1, 127834, Note_off_c, 1, 70, 0
1, 127834, Note_off_c, 1, 79, 0
1, 127834, Note_off_c, 1, 49, 0
1, 127838, Note_on_c, 1, 63, 127
1, 127838, Note_on_c, 1, 68, 127
1, 127838, Note_on_c, 1, 48, 127
1, 127986, Note_off_c, 1, 63, 0
1, 127986, Note_off_c, 1, 68, 0
1, 128138, Note_off_c, 1, 48, 0
1, 128142, Note_on_c, 1, 65, 127
1, 128142, Note_on_c, 1, 51, 127
1, 128290, Note_off_c, 1, 65, 0
1, 128294, Note_on_c, 1, 67, 127
1, 128442, Note_off_c, 1, 51, 0
1, 128442, Note_off_c, 1, 67, 0
1, 128446, Note_on_c, 1, 54, 127
1, 128599, Note_on_c, 1, 70, 127
1, 128747, Note_off_c, 1, 70, 0
1, 128750, Note_on_c, 1, 72, 127
1, 128750, Note_on_c, 1, 56, 127
1, 128898, Note_off_c, 1, 72, 0
1, 129050, Note_off_c, 1, 56, 0
1, 129054, Note_on_c, 1, 58, 127
1, 129054, Note_on_c, 1, 73, 127
1, 129202, Note_off_c, 1, 58, 0
1, 129202, Note_off_c, 1, 73, 0
1, 129317, Note_off_c, 1, 54, 0
1, 129358, Note_on_c, 1, 70, 127
1, 129358, Note_on_c, 1, 54, 127
1, 129506, Note_off_c, 1, 70, 0
1, 129510, Note_on_c, 1, 56, 127
1, 129510, Note_on_c, 1, 72, 127
1, 129658, Note_off_c, 1, 54, 0
1, 129658, Note_off_c, 1, 56, 0
1, 129658, Note_off_c, 1, 72, 0
1, 129662, Note_on_c, 1, 73, 127
1, 129662, Note_on_c, 1, 65, 127
1, 129662, Note_on_c, 1, 53, 127
1, 129810, Note_off_c, 1, 73, 0
1, 129814, Note_on_c, 1, 72, 127
1, 129962, Note_off_c, 1, 65, 0
1, 129962, Note_off_c, 1, 72, 0
1, 129967, Note_on_c, 1, 70, 127
1, 129967, Note_on_c, 1, 61, 127
1, 130115, Note_off_c, 1, 70, 0
1, 130119, Note_on_c, 1, 68, 127
1, 130267, Note_off_c, 1, 61, 0
1, 130267, Note_off_c, 1, 68, 0
1, 130271, Note_on_c, 1, 66, 127
1, 130271, Note_on_c, 1, 56, 127
1, 130419, Note_off_c, 1, 66, 0
1, 130571, Note_off_c, 1, 56, 0
1, 130575, Note_on_c, 1, 54, 127
1, 130700, Note_off_c, 1, 53, 0
1, 130723, Note_off_c, 1, 54, 0
1, 130879, Note_on_c, 1, 51, 127
1, 131183, Note_on_c, 1, 63, 127
1, 131483, Note_off_c, 1, 63, 0
1, 131786, Note_off_c, 1, 51, 0
1, 131791, Note_on_c, 1, 65, 127
1, 131791, Note_on_c, 1, 49, 127
1, 131791, Note_on_c, 1, 61, 127
1, 131939, Note_off_c, 1, 65, 0
1, 131943, Note_on_c, 1, 68, 127
1, 132091, Note_off_c, 1, 49, 0
1, 132091, Note_off_c, 1, 68, 0
1, 132095, Note_on_c, 1, 66, 127
1, 132095, Note_on_c, 1, 51, 127
1, 132243, Note_off_c, 1, 66, 0
1, 132394, Note_off_c, 1, 61, 0
1, 132395, Note_off_c, 1, 51, 0
1, 132399, Note_on_c, 1, 63, 127
1, 132399, Note_on_c, 1, 44, 127
1, 132399, Note_on_c, 1, 60, 127
1, 132547, Note_off_c, 1, 63, 0
1, 132550, Note_on_c, 1, 66, 127
1, 132698, Note_off_c, 1, 66, 0
1, 132699, Note_off_c, 1, 44, 0
1, 132699, Note_off_c, 1, 60, 0
1, 132702, Note_on_c, 1, 49, 127
1, 132702, Note_on_c, 1, 65, 127
1, 132702, Note_on_c, 1, 61, 127
1, 132850, Note_off_c, 1, 49, 0
1, 132854, Note_on_c, 1, 51, 127
1, 133002, Note_off_c, 1, 65, 0
1, 133002, Note_off_c, 1, 51, 0
1, 133006, Note_on_c, 1, 53, 127
1, 133006, Note_on_c, 1, 68, 127
1, 133154, Note_off_c, 1, 53, 0
1, 133158, Note_on_c, 1, 54, 127
1, 133306, Note_off_c, 1, 68, 0
1, 133306, Note_off_c, 1, 54, 0
1, 133310, Note_on_c, 1, 73, 127
1, 133610, Note_off_c, 1, 61, 0
1, 133610, Note_off_c, 1, 73, 0
1, 133613, Note_on_c, 1, 49, 127
1, 133613, Note_on_c, 1, 80, 127
1, 133761, Note_off_c, 1, 49, 0
1, 133761, Note_off_c, 1, 80, 0
1, 133765, Note_on_c, 1, 53, 127
1, 133765, Note_on_c, 1, 77, 127
1, 133913, Note_off_c, 1, 53, 0
1, 133913, Note_off_c, 1, 77, 0
1, 133917, Note_on_c, 1, 58, 127
1, 133917, Note_on_c, 1, 73, 127
1, 134065, Note_off_c, 1, 58, 0
1, 134069, Note_on_c, 1, 56, 127
1, 134217, Note_off_c, 1, 73, 0
1, 134217, Note_off_c, 1, 56, 0
1, 134221, Note_on_c, 1, 55, 127
1, 134221, Note_on_c, 1, 76, 127
1, 134369, Note_off_c, 1, 55, 0
1, 134369, Note_off_c, 1, 76, 0
1, 134374, Note_on_c, 1, 58, 127
1, 134374, Note_on_c, 1, 73, 127
1, 134522, Note_off_c, 1, 58, 0
1, 134522, Note_off_c, 1, 73, 0
1, 134526, Note_on_c, 1, 61, 127
1, 134526, Note_on_c, 1, 70, 127
1, 134674, Note_off_c, 1, 61, 0
1, 134678, Note_on_c, 1, 59, 127
1, 134826, Note_off_c, 1, 70, 0
1, 134826, Note_off_c, 1, 59, 0
1, 134830, Note_on_c, 1, 58, 127
1, 134830, Note_on_c, 1, 73, 127
1, 134978, Note_off_c, 1, 58, 0
1, 134978, Note_off_c, 1, 73, 0
1, 134982, Note_on_c, 1, 61, 127
1, 134982, Note_on_c, 1, 70, 127
1, 135130, Note_off_c, 1, 61, 0
1, 135130, Note_off_c, 1, 70, 0
1, 135134, Note_on_c, 1, 61, 127
1, 135134, Note_on_c, 1, 67, 127
1, 135206, Note_off_c, 1, 61, 0
1, 135209, Note_on_c, 1, 63, 127
1, 135281, Note_off_c, 1, 63, 0
1, 135286, Note_on_c, 1, 64, 127
1, 135434, Note_off_c, 1, 67, 0
1, 135434, Note_off_c, 1, 64, 0
1, 135438, Note_on_c, 1, 63, 127
1, 135438, Note_on_c, 1, 70, 127
1, 135586, Note_off_c, 1, 63, 0
1, 135586, Note_off_c, 1, 70, 0
1, 135590, Note_on_c, 1, 61, 127
1, 135590, Note_on_c, 1, 73, 127
1, 135738, Note_off_c, 1, 61, 0
1, 135738, Note_off_c, 1, 73, 0
1, 135742, Note_on_c, 1, 59, 127
1, 135742, Note_on_c, 1, 76, 127
1, 135890, Note_off_c, 1, 59, 0
1, 135894, Note_on_c, 1, 58, 127
1, 136042, Note_off_c, 1, 58, 0
1, 136046, Note_on_c, 1, 56, 127
1, 136046, Note_on_c, 1, 73, 127
1, 136194, Note_off_c, 1, 56, 0
1, 136198, Note_on_c, 1, 55, 127
1, 136345, Note_off_c, 1, 76, 0
1, 136346, Note_off_c, 1, 73, 0
1, 136346, Note_off_c, 1, 55, 0
1, 136350, Note_on_c, 1, 56, 127
1, 136350, Note_on_c, 1, 75, 127
1, 136350, Note_on_c, 1, 71, 127
1, 136498, Note_off_c, 1, 56, 0
1, 136501, Note_on_c, 1, 59, 127
1, 136649, Note_off_c, 1, 59, 0
1, 136650, Note_off_c, 1, 75, 0
1, 136653, Note_on_c, 1, 58, 127
1, 136653, Note_on_c, 1, 80, 127
1, 136801, Note_off_c, 1, 58, 0
1, 136953, Note_off_c, 1, 71, 0
1, 136953, Note_off_c, 1, 80, 0
1, 136957, Note_on_c, 1, 55, 127
1, 136957, Note_on_c, 1, 73, 127
1, 136957, Note_on_c, 1, 70, 127
1, 137105, Note_off_c, 1, 55, 0
1, 137109, Note_on_c, 1, 52, 127
1, 137257, Note_off_c, 1, 73, 0
1, 137257, Note_off_c, 1, 52, 0
1, 137261, Note_on_c, 1, 51, 127
1, 137261, Note_on_c, 1, 79, 127
1, 137409, Note_off_c, 1, 51, 0
1, 137413, Note_on_c, 1, 49, 127
1, 137560, Note_off_c, 1, 70, 0
1, 137561, Note_off_c, 1, 79, 0
1, 137561, Note_off_c, 1, 49, 0
1, 137565, Note_on_c, 1, 47, 127
1, 137565, Note_on_c, 1, 68, 127
1, 137713, Note_off_c, 1, 47, 0
1, 137717, Note_on_c, 1, 49, 127
1, 137865, Note_off_c, 1, 49, 0
1, 137869, Note_on_c, 1, 51, 127
1, 137869, Note_on_c, 1, 80, 127
1, 138017, Note_off_c, 1, 51, 0
1, 138017, Note_off_c, 1, 80, 0
1, 138021, Note_on_c, 1, 79, 127
1, 138169, Note_off_c, 1, 79, 0
1, 138174, Note_on_c, 1, 44, 127
1, 138324, Note_off_c, 1, 68, 0
1, 138326, Note_on_c, 1, 82, 127
1, 138474, Note_off_c, 1, 44, 0
1, 138474, Note_off_c, 1, 82, 0
1, 138478, Note_on_c, 1, 56, 127
1, 138478, Note_on_c, 1, 83, 127
1, 138626, Note_off_c, 1, 56, 0
1, 138626, Note_off_c, 1, 83, 0
1, 138630, Note_on_c, 1, 53, 127
1, 138630, Note_on_c, 1, 80, 127
1, 138778, Note_off_c, 1, 53, 0
1, 138778, Note_off_c, 1, 80, 0
1, 138782, Note_on_c, 1, 77, 127
1, 138782, Note_on_c, 1, 49, 127
1, 138934, Note_on_c, 1, 78, 127
1, 138971, Note_off_c, 1, 77, 0
1, 139082, Note_off_c, 1, 49, 0
1, 139082, Note_off_c, 1, 78, 0
1, 139086, Note_on_c, 1, 59, 127
1, 139086, Note_on_c, 1, 80, 127
1, 139234, Note_off_c, 1, 59, 0
1, 139234, Note_off_c, 1, 80, 0
1, 139238, Note_on_c, 1, 56, 127
1, 139238, Note_on_c, 1, 77, 127
1, 139386, Note_off_c, 1, 56, 0
1, 139386, Note_off_c, 1, 77, 0
1, 139390, Note_on_c, 1, 73, 127
1, 139390, Note_on_c, 1, 53, 127
1, 139542, Note_on_c, 1, 75, 127
1, 139579, Note_off_c, 1, 73, 0
1, 139690, Note_off_c, 1, 53, 0
1, 139690, Note_off_c, 1, 75, 0
1, 139694, Note_on_c, 1, 49, 127
1, 139694, Note_on_c, 1, 77, 127
1, 139842, Note_off_c, 1, 49, 0
1, 139842, Note_off_c, 1, 77, 0
1, 139846, Note_on_c, 1, 46, 127
1, 139846, Note_on_c, 1, 73, 127
1, 139994, Note_off_c, 1, 46, 0
1, 139994, Note_off_c, 1, 73, 0
1, 139998, Note_on_c, 1, 70, 127
1, 139998, Note_on_c, 1, 42, 127
1, 140150, Note_on_c, 1, 72, 127
1, 140187, Note_off_c, 1, 70, 0
1, 140298, Note_off_c, 1, 42, 0
1, 140298, Note_off_c, 1, 72, 0
1, 140301, Note_on_c, 1, 58, 127
1, 140301, Note_on_c, 1, 73, 127
1, 140449, Note_off_c, 1, 58, 0
1, 140449, Note_off_c, 1, 73, 0
1, 140453, Note_on_c, 1, 54, 127
1, 140453, Note_on_c, 1, 70, 127
1, 140601, Note_off_c, 1, 54, 0
1, 140601, Note_off_c, 1, 70, 0
1, 140605, Note_on_c, 1, 78, 127
1, 140605, Note_on_c, 1, 51, 127
1, 140757, Note_on_c, 1, 80, 127
1, 140794, Note_off_c, 1, 78, 0
1, 140905, Note_off_c, 1, 51, 0
1, 140905, Note_off_c, 1, 80, 0
1, 140909, Note_on_c, 1, 54, 127
1, 140909, Note_on_c, 1, 82, 127
1, 141057, Note_off_c, 1, 54, 0
1, 141057, Note_off_c, 1, 82, 0
1, 141061, Note_on_c, 1, 51, 127
1, 141061, Note_on_c, 1, 78, 127
1, 141209, Note_off_c, 1, 51, 0
1, 141209, Note_off_c, 1, 78, 0
1, 141213, Note_on_c, 1, 75, 127
1, 141213, Note_on_c, 1, 48, 127
1, 141365, Note_on_c, 1, 77, 127
1, 141402, Note_off_c, 1, 75, 0
1, 141513, Note_off_c, 1, 48, 0
1, 141513, Note_off_c, 1, 77, 0
1, 141517, Note_on_c, 1, 58, 127
1, 141517, Note_on_c, 1, 78, 127
1, 141665, Note_off_c, 1, 58, 0
1, 141665, Note_off_c, 1, 78, 0
1, 141669, Note_on_c, 1, 54, 127
1, 141669, Note_on_c, 1, 75, 127
1, 141817, Note_off_c, 1, 54, 0
1, 141817, Note_off_c, 1, 75, 0
1, 141821, Note_on_c, 1, 72, 127
1, 141821, Note_on_c, 1, 51, 127
1, 141974, Note_on_c, 1, 73, 127
1, 142010, Note_off_c, 1, 72, 0
1, 142121, Note_off_c, 1, 51, 0
1, 142122, Note_off_c, 1, 73, 0
1, 142126, Note_on_c, 1, 48, 127
1, 142126, Note_on_c, 1, 75, 127
1, 142274, Note_off_c, 1, 48, 0
1, 142274, Note_off_c, 1, 75, 0
1, 142278, Note_on_c, 1, 44, 127
1, 142278, Note_on_c, 1, 72, 127
1, 142426, Note_off_c, 1, 44, 0
1, 142426, Note_off_c, 1, 72, 0
1, 142430, Note_on_c, 1, 68, 127
1, 142430, Note_on_c, 1, 41, 127
1, 142582, Note_on_c, 1, 70, 127
1, 142619, Note_off_c, 1, 68, 0
1, 142730, Note_off_c, 1, 41, 0
1, 142730, Note_off_c, 1, 70, 0
1, 142734, Note_on_c, 1, 56, 127
1, 142734, Note_on_c, 1, 72, 127
1, 142882, Note_off_c, 1, 56, 0
1, 142882, Note_off_c, 1, 72, 0
1, 142886, Note_on_c, 1, 53, 127
1, 142886, Note_on_c, 1, 68, 127
1, 143034, Note_off_c, 1, 53, 0
1, 143034, Note_off_c, 1, 68, 0
1, 143038, Note_on_c, 1, 77, 127
1, 143038, Note_on_c, 1, 50, 127
1, 143190, Note_on_c, 1, 78, 127
1, 143227, Note_off_c, 1, 77, 0
1, 143338, Note_off_c, 1, 50, 0
1, 143338, Note_off_c, 1, 78, 0
1, 143342, Note_on_c, 1, 53, 127
1, 143342, Note_on_c, 1, 80, 127
1, 143490, Note_off_c, 1, 53, 0
1, 143490, Note_off_c, 1, 80, 0
1, 143494, Note_on_c, 1, 50, 127
1, 143494, Note_on_c, 1, 77, 127
1, 143642, Note_off_c, 1, 50, 0
1, 143642, Note_off_c, 1, 77, 0
1, 143646, Note_on_c, 1, 74, 127
1, 143646, Note_on_c, 1, 46, 127
1, 143798, Note_on_c, 1, 75, 127
1, 143835, Note_off_c, 1, 74, 0
1, 143946, Note_off_c, 1, 46, 0
1, 143946, Note_off_c, 1, 75, 0
1, 143950, Note_on_c, 1, 56, 127
1, 143950, Note_on_c, 1, 77, 127
1, 144098, Note_off_c, 1, 56, 0
1, 144098, Note_off_c, 1, 77, 0
1, 144101, Note_on_c, 1, 53, 127
1, 144101, Note_on_c, 1, 74, 127
1, 144249, Note_off_c, 1, 53, 0
1, 144249, Note_off_c, 1, 74, 0
1, 144253, Note_on_c, 1, 70, 127
1, 144253, Note_on_c, 1, 50, 127
1, 144405, Note_on_c, 1, 72, 127
1, 144442, Note_off_c, 1, 70, 0
1, 144553, Note_off_c, 1, 50, 0
1, 144553, Note_off_c, 1, 72, 0
1, 144557, Note_on_c, 1, 46, 127
1, 144557, Note_on_c, 1, 74, 127
1, 144705, Note_off_c, 1, 46, 0
1, 144705, Note_off_c, 1, 74, 0
1, 144709, Note_on_c, 1, 42, 127
1, 144709, Note_on_c, 1, 70, 127
1, 144857, Note_off_c, 1, 42, 0
1, 144857, Note_off_c, 1, 70, 0
1, 144861, Note_on_c, 1, 66, 127
1, 144861, Note_on_c, 1, 39, 127
1, 145013, Note_on_c, 1, 68, 127
1, 145050, Note_off_c, 1, 66, 0
1, 145161, Note_off_c, 1, 39, 0
1, 145161, Note_off_c, 1, 68, 0
1, 145165, Note_on_c, 1, 54, 127
1, 145165, Note_on_c, 1, 70, 127
1, 145313, Note_off_c, 1, 54, 0
1, 145313, Note_off_c, 1, 70, 0
1, 145317, Note_on_c, 1, 51, 127
1, 145317, Note_on_c, 1, 66, 127
1, 145465, Note_off_c, 1, 51, 0
1, 145465, Note_off_c, 1, 66, 0
1, 145469, Note_on_c, 1, 75, 127
1, 145469, Note_on_c, 1, 48, 127
1, 145621, Note_on_c, 1, 77, 127
1, 145658, Note_off_c, 1, 75, 0
1, 145769, Note_off_c, 1, 48, 0
1, 145769, Note_off_c, 1, 77, 0
1, 145774, Note_on_c, 1, 51, 127
1, 145774, Note_on_c, 1, 78, 127
1, 145922, Note_off_c, 1, 51, 0
1, 145922, Note_off_c, 1, 78, 0
1, 145926, Note_on_c, 1, 48, 127
1, 145926, Note_on_c, 1, 75, 127
1, 146074, Note_off_c, 1, 48, 0
1, 146074, Note_off_c, 1, 75, 0
1, 146078, Note_on_c, 1, 72, 127
1, 146078, Note_on_c, 1, 44, 127
1, 146230, Note_on_c, 1, 73, 127
1, 146267, Note_off_c, 1, 72, 0
1, 146378, Note_off_c, 1, 44, 0
1, 146378, Note_off_c, 1, 73, 0
1, 146382, Note_on_c, 1, 54, 127
1, 146382, Note_on_c, 1, 75, 127
1, 146530, Note_off_c, 1, 54, 0
1, 146530, Note_off_c, 1, 75, 0
1, 146534, Note_on_c, 1, 51, 127
1, 146534, Note_on_c, 1, 72, 127
1, 146682, Note_off_c, 1, 51, 0
1, 146682, Note_off_c, 1, 72, 0
1, 146686, Note_on_c, 1, 68, 127
1, 146686, Note_on_c, 1, 48, 127
1, 146838, Note_on_c, 1, 70, 127
1, 146875, Note_off_c, 1, 68, 0
1, 146986, Note_off_c, 1, 48, 0
1, 146986, Note_off_c, 1, 70, 0
1, 146990, Note_on_c, 1, 44, 127
1, 146990, Note_on_c, 1, 72, 127
1, 147138, Note_off_c, 1, 44, 0
1, 147138, Note_off_c, 1, 72, 0
1, 147142, Note_on_c, 1, 41, 127
1, 147142, Note_on_c, 1, 68, 127
1, 147290, Note_off_c, 1, 41, 0
1, 147290, Note_off_c, 1, 68, 0
1, 147294, Note_on_c, 1, 65, 127
1, 147294, Note_on_c, 1, 37, 127
1, 147442, Note_off_c, 1, 65, 0
1, 147446, Note_on_c, 1, 66, 127
1, 147594, Note_off_c, 1, 66, 0
1, 147598, Note_on_c, 1, 68, 127
1, 147746, Note_off_c, 1, 68, 0
1, 147901, Note_on_c, 1, 61, 127
1, 148049, Note_off_c, 1, 61, 0
1, 148202, Note_off_c, 1, 37, 0
1, 148204, Note_on_c, 1, 68, 127
1, 148352, Note_off_c, 1, 68, 0
1, 148356, Note_on_c, 1, 70, 127
1, 148504, Note_off_c, 1, 70, 0
1, 148508, Note_on_c, 1, 71, 127
1, 148656, Note_off_c, 1, 71, 0
1, 148660, Note_on_c, 1, 70, 127
1, 148808, Note_off_c, 1, 70, 0
1, 148812, Note_on_c, 1, 59, 127
1, 148812, Note_on_c, 1, 68, 127
1, 148960, Note_off_c, 1, 59, 0
1, 148960, Note_off_c, 1, 68, 0
1, 148964, Note_on_c, 1, 49, 127
1, 148964, Note_on_c, 1, 70, 127
1, 149112, Note_off_c, 1, 49, 0
1, 149112, Note_off_c, 1, 70, 0
1, 149116, Note_on_c, 1, 58, 127
1, 149116, Note_on_c, 1, 78, 127
1, 149264, Note_off_c, 1, 58, 0
1, 149268, Note_on_c, 1, 49, 127
1, 149416, Note_off_c, 1, 78, 0
1, 149416, Note_off_c, 1, 49, 0
1, 149420, Note_on_c, 1, 56, 127
1, 149420, Note_on_c, 1, 73, 127
1, 149568, Note_off_c, 1, 56, 0
1, 149572, Note_on_c, 1, 49, 127
1, 149720, Note_off_c, 1, 73, 0
1, 149720, Note_off_c, 1, 49, 0
1, 149724, Note_on_c, 1, 54, 127
1, 149724, Note_on_c, 1, 70, 127
1, 149872, Note_off_c, 1, 54, 0
1, 149876, Note_on_c, 1, 49, 127
1, 150024, Note_off_c, 1, 70, 0
1, 150024, Note_off_c, 1, 49, 0
1, 150029, Note_on_c, 1, 53, 127
1, 150029, Note_on_c, 1, 68, 127
1, 150177, Note_off_c, 1, 53, 0
1, 150177, Note_off_c, 1, 68, 0
1, 150181, Note_on_c, 1, 51, 127
1, 150181, Note_on_c, 1, 66, 127
1, 150329, Note_off_c, 1, 51, 0
1, 150329, Note_off_c, 1, 66, 0
1, 150333, Note_on_c, 1, 68, 127
1, 150333, Note_on_c, 1, 53, 127
1, 150481, Note_off_c, 1, 68, 0
1, 150485, Note_on_c, 1, 61, 127
1, 150633, Note_off_c, 1, 53, 0
1, 150633, Note_off_c, 1, 61, 0
1, 150637, Note_on_c, 1, 65, 127
1, 150637, Note_on_c, 1, 44, 127
1, 150785, Note_off_c, 1, 65, 0
1, 150789, Note_on_c, 1, 68, 127
1, 150937, Note_off_c, 1, 44, 0
1, 150937, Note_off_c, 1, 68, 0
1, 150941, Note_on_c, 1, 70, 127
1, 151089, Note_off_c, 1, 70, 0
1, 151093, Note_on_c, 1, 68, 127
1, 151241, Note_off_c, 1, 68, 0
1, 151245, Note_on_c, 1, 58, 127
1, 151245, Note_on_c, 1, 66, 127
1, 151393, Note_off_c, 1, 58, 0
1, 151393, Note_off_c, 1, 66, 0
1, 151397, Note_on_c, 1, 49, 127
1, 151397, Note_on_c, 1, 68, 127
1, 151545, Note_off_c, 1, 49, 0
1, 151545, Note_off_c, 1, 68, 0
1, 151549, Note_on_c, 1, 56, 127
1, 151549, Note_on_c, 1, 77, 127
1, 151697, Note_off_c, 1, 56, 0
1, 151700, Note_on_c, 1, 49, 127
1, 151848, Note_off_c, 1, 49, 0
1, 151849, Note_off_c, 1, 77, 0
1, 151852, Note_on_c, 1, 54, 127
1, 151852, Note_on_c, 1, 73, 127
1, 152000, Note_off_c, 1, 54, 0
1, 152004, Note_on_c, 1, 49, 127
1, 152152, Note_off_c, 1, 73, 0
1, 152152, Note_off_c, 1, 49, 0
1, 152156, Note_on_c, 1, 53, 127
1, 152156, Note_on_c, 1, 68, 127
1, 152304, Note_off_c, 1, 53, 0
1, 152308, Note_on_c, 1, 49, 127
1, 152456, Note_off_c, 1, 68, 0
1, 152456, Note_off_c, 1, 49, 0
1, 152460, Note_on_c, 1, 51, 127
1, 152460, Note_on_c, 1, 66, 127
1, 152608, Note_off_c, 1, 51, 0
1, 152608, Note_off_c, 1, 66, 0
1, 152612, Note_on_c, 1, 49, 127
1, 152612, Note_on_c, 1, 65, 127
1, 152760, Note_off_c, 1, 49, 0
1, 152760, Note_off_c, 1, 65, 0
1, 152764, Note_on_c, 1, 66, 127
1, 152764, Note_on_c, 1, 51, 127
1, 152912, Note_off_c, 1, 66, 0
1, 152916, Note_on_c, 1, 60, 127
1, 153064, Note_off_c, 1, 51, 0
1, 153064, Note_off_c, 1, 60, 0
1, 153068, Note_on_c, 1, 63, 127
1, 153068, Note_on_c, 1, 44, 127
1, 153216, Note_off_c, 1, 63, 0
1, 153220, Note_on_c, 1, 66, 127
1, 153368, Note_off_c, 1, 66, 0
1, 153372, Note_on_c, 1, 68, 127
1, 153511, Note_off_c, 1, 44, 0
1, 153521, Note_off_c, 1, 68, 0
1, 153526, Note_on_c, 1, 66, 127
1, 153674, Note_off_c, 1, 66, 0
1, 153678, Note_on_c, 1, 56, 127
1, 153678, Note_on_c, 1, 65, 127
1, 153826, Note_off_c, 1, 56, 0
1, 153826, Note_off_c, 1, 65, 0
1, 153830, Note_on_c, 1, 44, 127
1, 153830, Note_on_c, 1, 66, 127
1, 153978, Note_off_c, 1, 44, 0
1, 153978, Note_off_c, 1, 66, 0
1, 153982, Note_on_c, 1, 54, 127
1, 153982, Note_on_c, 1, 75, 127
1, 154130, Note_off_c, 1, 54, 0
1, 154134, Note_on_c, 1, 44, 127
1, 154282, Note_off_c, 1, 75, 0
1, 154282, Note_off_c, 1, 44, 0
1, 154286, Note_on_c, 1, 53, 127
1, 154286, Note_on_c, 1, 72, 127
1, 154434, Note_off_c, 1, 53, 0
1, 154438, Note_on_c, 1, 44, 127
1, 154586, Note_off_c, 1, 72, 0
1, 154586, Note_off_c, 1, 44, 0
1, 154590, Note_on_c, 1, 51, 127
1, 154590, Note_on_c, 1, 66, 127
1, 154742, Note_on_c, 1, 44, 127
1, 154779, Note_off_c, 1, 51, 0
1, 154890, Note_off_c, 1, 66, 0
1, 154890, Note_off_c, 1, 44, 0
1, 154894, Note_on_c, 1, 49, 127
1, 154894, Note_on_c, 1, 65, 127
1, 155042, Note_off_c, 1, 49, 0
1, 155042, Note_off_c, 1, 65, 0
1, 155046, Note_on_c, 1, 48, 127
1, 155046, Note_on_c, 1, 63, 127
1, 155194, Note_off_c, 1, 48, 0
1, 155194, Note_off_c, 1, 63, 0
1, 155198, Note_on_c, 1, 65, 127
1, 155198, Note_on_c, 1, 49, 127
1, 155346, Note_off_c, 1, 65, 0
1, 155350, Note_on_c, 1, 44, 127
1, 155350, Note_on_c, 1, 68, 127
1, 155450, Note_off_c, 1, 49, 0
1, 155499, Note_off_c, 1, 44, 0
1, 155499, Note_off_c, 1, 68, 0
1, 155502, Note_on_c, 1, 53, 127
1, 155502, Note_on_c, 1, 70, 127
1, 155650, Note_off_c, 1, 53, 0
1, 155650, Note_off_c, 1, 70, 0
1, 155654, Note_on_c, 1, 51, 127
1, 155654, Note_on_c, 1, 72, 127
1, 155802, Note_off_c, 1, 51, 0
1, 155802, Note_off_c, 1, 72, 0
1, 155806, Note_on_c, 1, 73, 127
1, 155806, Note_on_c, 1, 53, 127
1, 155954, Note_off_c, 1, 73, 0
1, 155958, Note_on_c, 1, 44, 127
1, 155958, Note_on_c, 1, 75, 127
1, 156106, Note_off_c, 1, 53, 0
1, 156106, Note_off_c, 1, 44, 0
1, 156106, Note_off_c, 1, 75, 0
1, 156110, Note_on_c, 1, 56, 127
1, 156110, Note_on_c, 1, 77, 127
1, 156258, Note_off_c, 1, 56, 0
1, 156258, Note_off_c, 1, 77, 0
1, 156262, Note_on_c, 1, 54, 127
1, 156262, Note_on_c, 1, 75, 127
1, 156410, Note_off_c, 1, 54, 0
1, 156410, Note_off_c, 1, 75, 0
1, 156414, Note_on_c, 1, 78, 127
1, 156414, Note_on_c, 1, 56, 127
1, 156562, Note_off_c, 1, 78, 0
1, 156567, Note_on_c, 1, 44, 127
1, 156567, Note_on_c, 1, 77, 127
1, 156666, Note_off_c, 1, 56, 0
1, 156716, Note_off_c, 1, 44, 0
1, 156716, Note_off_c, 1, 77, 0
1, 156720, Note_on_c, 1, 75, 127
1, 156720, Note_on_c, 1, 58, 127
1, 156868, Note_off_c, 1, 75, 0
1, 156872, Note_on_c, 1, 44, 127
1, 156872, Note_on_c, 1, 73, 127
1, 156972, Note_off_c, 1, 58, 0
1, 157021, Note_off_c, 1, 44, 0
1, 157021, Note_off_c, 1, 73, 0
1, 157025, Note_on_c, 1, 60, 127
1, 157025, Note_on_c, 1, 79, 127
1, 157173, Note_off_c, 1, 60, 0
1, 157173, Note_off_c, 1, 79, 0
1, 157177, Note_on_c, 1, 80, 127
1, 157177, Note_on_c, 1, 61, 127
1, 157249, Note_off_c, 1, 80, 0
1, 157252, Note_on_c, 1, 82, 127
1, 157324, Note_off_c, 1, 82, 0
1, 157325, Note_off_c, 1, 61, 0
1, 157329, Note_on_c, 1, 80, 127
1, 157329, Note_on_c, 1, 63, 127
1, 157401, Note_off_c, 1, 80, 0
1, 157405, Note_on_c, 1, 82, 127
1, 157477, Note_off_c, 1, 63, 0
1, 157477, Note_off_c, 1, 82, 0
1, 157481, Note_on_c, 1, 80, 127
1, 157481, Note_on_c, 1, 60, 127
1, 157553, Note_off_c, 1, 80, 0
1, 157557, Note_on_c, 1, 82, 127
1, 157629, Note_off_c, 1, 60, 0
1, 157629, Note_off_c, 1, 82, 0
1, 157633, Note_on_c, 1, 80, 127
1, 157633, Note_on_c, 1, 56, 127
1, 157705, Note_off_c, 1, 80, 0
1, 157709, Note_on_c, 1, 82, 127
1, 157781, Note_off_c, 1, 56, 0
1, 157781, Note_off_c, 1, 82, 0
1, 157785, Note_on_c, 1, 80, 127
1, 157785, Note_on_c, 1, 60, 127
1, 157857, Note_off_c, 1, 80, 0
1, 157861, Note_on_c, 1, 82, 127
1, 157933, Note_off_c, 1, 60, 0
1, 157933, Note_off_c, 1, 82, 0
1, 157937, Note_on_c, 1, 80, 127
1, 157937, Note_on_c, 1, 63, 127
1, 158009, Note_off_c, 1, 80, 0
1, 158013, Note_on_c, 1, 82, 127
1, 158085, Note_off_c, 1, 63, 0
1, 158085, Note_off_c, 1, 82, 0
1, 158089, Note_on_c, 1, 65, 127
1, 158089, Note_on_c, 1, 80, 127
1, 158237, Note_off_c, 1, 65, 0
1, 158241, Note_on_c, 1, 66, 127
1, 158389, Note_off_c, 1, 80, 0
1, 158389, Note_off_c, 1, 66, 0
1, 158393, Note_on_c, 1, 65, 127
1, 158393, Note_on_c, 1, 80, 127
1, 158541, Note_off_c, 1, 65, 0
1, 158541, Note_off_c, 1, 80, 0
1, 158545, Note_on_c, 1, 63, 127
1, 158545, Note_on_c, 1, 78, 127
1, 158693, Note_off_c, 1, 63, 0
1, 158693, Note_off_c, 1, 78, 0
1, 158697, Note_on_c, 1, 65, 127
1, 158697, Note_on_c, 1, 80, 127
1, 158845, Note_off_c, 1, 65, 0
1, 158845, Note_off_c, 1, 80, 0
1, 158849, Note_on_c, 1, 77, 127
1, 158849, Note_on_c, 1, 73, 127
1, 159000, Note_on_c, 1, 80, 127
1, 159038, Note_off_c, 1, 77, 0
1, 159148, Note_off_c, 1, 80, 0
1, 159149, Note_off_c, 1, 73, 0
1, 159152, Note_on_c, 1, 75, 127
1, 159152, Note_on_c, 1, 68, 127
1, 159305, Note_on_c, 1, 80, 127
1, 159341, Note_off_c, 1, 75, 0
1, 159452, Note_off_c, 1, 68, 0
1, 159453, Note_off_c, 1, 80, 0
1, 159457, Note_on_c, 1, 73, 127
1, 159457, Note_on_c, 1, 65, 127
1, 159605, Note_off_c, 1, 73, 0
1, 159609, Note_on_c, 1, 80, 127
1, 159757, Note_off_c, 1, 65, 0
1, 159757, Note_off_c, 1, 80, 0
1, 159761, Note_on_c, 1, 63, 127
1, 159761, Note_on_c, 1, 72, 127
1, 159909, Note_off_c, 1, 63, 0
1, 159909, Note_off_c, 1, 72, 0
1, 159913, Note_on_c, 1, 61, 127
1, 159913, Note_on_c, 1, 70, 127
1, 160061, Note_off_c, 1, 61, 0
1, 160061, Note_off_c, 1, 70, 0
1, 160065, Note_on_c, 1, 63, 127
1, 160065, Note_on_c, 1, 72, 127
1, 160213, Note_off_c, 1, 63, 0
1, 160213, Note_off_c, 1, 72, 0
1, 160217, Note_on_c, 1, 56, 127
1, 160217, Note_on_c, 1, 75, 127
1, 160365, Note_off_c, 1, 56, 0
1, 160365, Note_off_c, 1, 75, 0
1, 160369, Note_on_c, 1, 60, 127
1, 160369, Note_on_c, 1, 77, 127
1, 160517, Note_off_c, 1, 60, 0
1, 160517, Note_off_c, 1, 77, 0
1, 160521, Note_on_c, 1, 63, 127
1, 160521, Note_on_c, 1, 78, 127
1, 160669, Note_off_c, 1, 63, 0
1, 160669, Note_off_c, 1, 78, 0
1, 160673, Note_on_c, 1, 65, 127
1, 160673, Note_on_c, 1, 80, 127
1, 160821, Note_off_c, 1, 65, 0
1, 160821, Note_off_c, 1, 80, 0
1, 160825, Note_on_c, 1, 63, 127
1, 160825, Note_on_c, 1, 78, 127
1, 160973, Note_off_c, 1, 63, 0
1, 160973, Note_off_c, 1, 78, 0
1, 160977, Note_on_c, 1, 61, 127
1, 160977, Note_on_c, 1, 77, 127
1, 161125, Note_off_c, 1, 61, 0
1, 161125, Note_off_c, 1, 77, 0
1, 161129, Note_on_c, 1, 63, 127
1, 161129, Note_on_c, 1, 80, 127
1, 161277, Note_off_c, 1, 63, 0
1, 161277, Note_off_c, 1, 80, 0
1, 161281, Note_on_c, 1, 75, 127
1, 161281, Note_on_c, 1, 72, 127
1, 161433, Note_on_c, 1, 80, 127
1, 161470, Note_off_c, 1, 75, 0
1, 161581, Note_off_c, 1, 72, 0
1, 161581, Note_off_c, 1, 80, 0
1, 161585, Note_on_c, 1, 73, 127
1, 161585, Note_on_c, 1, 68, 127
1, 161737, Note_on_c, 1, 80, 127
1, 161774, Note_off_c, 1, 73, 0
1, 161885, Note_off_c, 1, 68, 0
1, 161885, Note_off_c, 1, 80, 0
1, 161889, Note_on_c, 1, 72, 127
1, 161889, Note_on_c, 1, 63, 127
1, 162037, Note_off_c, 1, 72, 0
1, 162041, Note_on_c, 1, 80, 127
1, 162189, Note_off_c, 1, 63, 0
1, 162189, Note_off_c, 1, 80, 0
1, 162193, Note_on_c, 1, 61, 127
1, 162193, Note_on_c, 1, 70, 127
1, 162341, Note_off_c, 1, 61, 0
1, 162341, Note_off_c, 1, 70, 0
1, 162345, Note_on_c, 1, 60, 127
1, 162345, Note_on_c, 1, 68, 127
1, 162493, Note_off_c, 1, 60, 0
1, 162493, Note_off_c, 1, 68, 0
1, 162497, Note_on_c, 1, 61, 127
1, 162497, Note_on_c, 1, 70, 127
1, 162645, Note_off_c, 1, 61, 0
1, 162645, Note_off_c, 1, 70, 0
1, 162649, Note_on_c, 1, 56, 127
1, 162649, Note_on_c, 1, 73, 127
1, 162797, Note_off_c, 1, 56, 0
1, 162797, Note_off_c, 1, 73, 0
1, 162800, Note_on_c, 1, 60, 127
1, 162800, Note_on_c, 1, 75, 127
1, 162948, Note_off_c, 1, 60, 0
1, 162948, Note_off_c, 1, 75, 0
1, 162952, Note_on_c, 1, 61, 127
1, 162952, Note_on_c, 1, 77, 127
1, 163100, Note_off_c, 1, 61, 0
1, 163100, Note_off_c, 1, 77, 0
1, 163105, Note_on_c, 1, 63, 127
1, 163105, Note_on_c, 1, 78, 127
1, 163253, Note_off_c, 1, 63, 0
1, 163253, Note_off_c, 1, 78, 0
1, 163257, Note_on_c, 1, 61, 127
1, 163257, Note_on_c, 1, 77, 127
1, 163405, Note_off_c, 1, 61, 0
1, 163405, Note_off_c, 1, 77, 0
1, 163409, Note_on_c, 1, 60, 127
1, 163409, Note_on_c, 1, 75, 127
1, 163557, Note_off_c, 1, 60, 0
1, 163557, Note_off_c, 1, 75, 0
1, 163561, Note_on_c, 1, 61, 127
1, 163561, Note_on_c, 1, 77, 127
1, 163709, Note_off_c, 1, 61, 0
1, 163709, Note_off_c, 1, 77, 0
1, 163713, Note_on_c, 1, 73, 127
1, 163713, Note_on_c, 1, 70, 127
1, 163865, Note_on_c, 1, 77, 127
1, 163902, Note_off_c, 1, 73, 0
1, 164013, Note_off_c, 1, 70, 0
1, 164013, Note_off_c, 1, 77, 0
1, 164017, Note_on_c, 1, 72, 127
1, 164017, Note_on_c, 1, 67, 127
1, 164169, Note_on_c, 1, 77, 127
1, 164206, Note_off_c, 1, 72, 0
1, 164317, Note_off_c, 1, 67, 0
1, 164317, Note_off_c, 1, 77, 0
1, 164321, Note_on_c, 1, 70, 127
1, 164321, Note_on_c, 1, 61, 127
1, 164469, Note_off_c, 1, 70, 0
1, 164473, Note_on_c, 1, 77, 127
1, 164621, Note_off_c, 1, 61, 0
1, 164621, Note_off_c, 1, 77, 0
1, 164625, Note_on_c, 1, 60, 127
1, 164625, Note_on_c, 1, 68, 127
1, 164773, Note_off_c, 1, 60, 0
1, 164773, Note_off_c, 1, 68, 0
1, 164777, Note_on_c, 1, 58, 127
1, 164777, Note_on_c, 1, 67, 127
1, 164925, Note_off_c, 1, 58, 0
1, 164925, Note_off_c, 1, 67, 0
1, 164929, Note_on_c, 1, 60, 127
1, 164929, Note_on_c, 1, 68, 127
1, 165077, Note_off_c, 1, 60, 0
1, 165077, Note_off_c, 1, 68, 0
1, 165081, Note_on_c, 1, 56, 127
1, 165081, Note_on_c, 1, 72, 127
1, 165229, Note_off_c, 1, 56, 0
1, 165229, Note_off_c, 1, 72, 0
1, 165233, Note_on_c, 1, 58, 127
1, 165233, Note_on_c, 1, 73, 127
1, 165381, Note_off_c, 1, 58, 0
1, 165381, Note_off_c, 1, 73, 0
1, 165385, Note_on_c, 1, 60, 127
1, 165385, Note_on_c, 1, 75, 127
1, 165533, Note_off_c, 1, 60, 0
1, 165533, Note_off_c, 1, 75, 0
1, 165537, Note_on_c, 1, 61, 127
1, 165537, Note_on_c, 1, 77, 127
1, 165685, Note_off_c, 1, 61, 0
1, 165685, Note_off_c, 1, 77, 0
1, 165689, Note_on_c, 1, 63, 127
1, 165689, Note_on_c, 1, 78, 127
1, 165837, Note_off_c, 1, 63, 0
1, 165837, Note_off_c, 1, 78, 0
1, 165841, Note_on_c, 1, 65, 127
1, 165841, Note_on_c, 1, 80, 127
1, 165989, Note_off_c, 1, 65, 0
1, 165989, Note_off_c, 1, 80, 0
1, 165993, Note_on_c, 1, 63, 127
1, 165993, Note_on_c, 1, 82, 127
1, 166141, Note_off_c, 1, 63, 0
1, 166141, Note_off_c, 1, 82, 0
1, 166145, Note_on_c, 1, 66, 127
1, 166145, Note_on_c, 1, 72, 127
1, 166293, Note_off_c, 1, 66, 0
1, 166297, Note_on_c, 1, 65, 127
1, 166365, Note_off_c, 1, 72, 0
1, 166445, Note_off_c, 1, 65, 0
1, 166449, Note_on_c, 1, 63, 127
1, 166449, Note_on_c, 1, 68, 127
1, 166597, Note_off_c, 1, 63, 0
1, 166600, Note_on_c, 1, 61, 127
1, 166748, Note_off_c, 1, 61, 0
1, 166749, Note_off_c, 1, 68, 0
1, 166752, Note_on_c, 1, 70, 127
1, 166752, Note_on_c, 1, 66, 127
1, 166900, Note_off_c, 1, 70, 0
1, 166905, Note_on_c, 1, 68, 127
1, 167052, Note_off_c, 1, 66, 0
1, 167053, Note_off_c, 1, 68, 0
1, 167057, Note_on_c, 1, 58, 127
1, 167057, Note_on_c, 1, 66, 127
1, 167205, Note_off_c, 1, 58, 0
1, 167205, Note_off_c, 1, 66, 0
1, 167209, Note_on_c, 1, 60, 127
1, 167209, Note_on_c, 1, 68, 127
1, 167357, Note_off_c, 1, 60, 0
1, 167357, Note_off_c, 1, 68, 0
1, 167361, Note_on_c, 1, 61, 127
1, 167361, Note_on_c, 1, 77, 127
1, 167509, Note_off_c, 1, 61, 0
1, 167513, Note_on_c, 1, 60, 127
1, 167661, Note_off_c, 1, 77, 0
1, 167661, Note_off_c, 1, 60, 0
1, 167665, Note_on_c, 1, 58, 127
1, 167665, Note_on_c, 1, 73, 127
1, 167813, Note_off_c, 1, 58, 0
1, 167817, Note_on_c, 1, 56, 127
1, 167965, Note_off_c, 1, 73, 0
1, 167965, Note_off_c, 1, 56, 0
1, 167969, Note_on_c, 1, 70, 127
1, 167969, Note_on_c, 1, 58, 127
1, 168041, Note_off_c, 1, 70, 0
1, 168045, Note_on_c, 1, 68, 127
1, 168117, Note_off_c, 1, 68, 0
1, 168273, Note_on_c, 1, 66, 127
1, 168421, Note_off_c, 1, 66, 0
1, 168425, Note_on_c, 1, 65, 127
1, 168573, Note_off_c, 1, 65, 0
1, 168724, Note_off_c, 1, 58, 0
1, 168729, Note_on_c, 1, 56, 127
1, 168877, Note_off_c, 1, 56, 0
1, 168881, Note_on_c, 1, 54, 127
1, 168881, Note_on_c, 1, 75, 127
1, 169029, Note_off_c, 1, 54, 0
1, 169033, Note_on_c, 1, 58, 127
1, 169181, Note_off_c, 1, 75, 0
1, 169181, Note_off_c, 1, 58, 0
1, 169185, Note_on_c, 1, 56, 127
1, 169185, Note_on_c, 1, 65, 127
1, 169333, Note_off_c, 1, 56, 0
1, 169337, Note_on_c, 1, 54, 127
1, 169485, Note_off_c, 1, 65, 0
1, 169485, Note_off_c, 1, 54, 0
1, 169489, Note_on_c, 1, 53, 127
1, 169489, Note_on_c, 1, 73, 127
1, 169637, Note_off_c, 1, 53, 0
1, 169641, Note_on_c, 1, 56, 127
1, 169789, Note_off_c, 1, 73, 0
1, 169789, Note_off_c, 1, 56, 0
1, 169793, Note_on_c, 1, 54, 127
1, 169793, Note_on_c, 1, 63, 127
1, 169941, Note_off_c, 1, 54, 0
1, 169945, Note_on_c, 1, 53, 127
1, 170093, Note_off_c, 1, 63, 0
1, 170093, Note_off_c, 1, 53, 0
1, 170097, Note_on_c, 1, 54, 127
1, 170097, Note_on_c, 1, 72, 127
1, 170245, Note_off_c, 1, 54, 0
1, 170249, Note_on_c, 1, 51, 127
1, 170397, Note_off_c, 1, 72, 0
1, 170397, Note_off_c, 1, 51, 0
1, 170400, Note_on_c, 1, 61, 127
1, 170400, Note_on_c, 1, 53, 127
1, 170700, Note_off_c, 1, 61, 0
1, 170706, Note_on_c, 1, 73, 127
1, 170852, Note_off_c, 1, 53, 0
1, 170854, Note_off_c, 1, 73, 0
1, 170858, Note_on_c, 1, 56, 127
1, 170858, Note_on_c, 1, 72, 127
1, 171006, Note_off_c, 1, 56, 0
1, 171006, Note_off_c, 1, 72, 0
1, 171010, Note_on_c, 1, 58, 127
1, 171010, Note_on_c, 1, 73, 127
1, 171158, Note_off_c, 1, 58, 0
1, 171158, Note_off_c, 1, 73, 0
1, 171162, Note_on_c, 1, 60, 127
1, 171162, Note_on_c, 1, 75, 127
1, 171310, Note_off_c, 1, 60, 0
1, 171310, Note_off_c, 1, 75, 0
1, 171314, Note_on_c, 1, 77, 127
1, 171314, Note_on_c, 1, 61, 127
1, 171462, Note_off_c, 1, 77, 0
1, 171466, Note_on_c, 1, 63, 127
1, 171466, Note_on_c, 1, 78, 127
1, 171614, Note_off_c, 1, 63, 0
1, 171614, Note_off_c, 1, 78, 0
1, 171618, Note_on_c, 1, 65, 127
1, 171618, Note_on_c, 1, 80, 127
1, 171766, Note_off_c, 1, 65, 0
1, 171766, Note_off_c, 1, 80, 0
1, 171900, Note_off_c, 1, 61, 0
1, 171922, Note_on_c, 1, 77, 127
1, 171922, Note_on_c, 1, 61, 127
1, 172070, Note_off_c, 1, 77, 0
1, 172074, Note_on_c, 1, 63, 127
1, 172074, Note_on_c, 1, 78, 127
1, 172222, Note_off_c, 1, 61, 0
1, 172222, Note_off_c, 1, 63, 0
1, 172222, Note_off_c, 1, 78, 0
1, 172226, Note_on_c, 1, 80, 127
1, 172226, Note_on_c, 1, 72, 127
1, 172226, Note_on_c, 1, 60, 127
1, 172374, Note_off_c, 1, 80, 0
1, 172378, Note_on_c, 1, 78, 127
1, 172526, Note_off_c, 1, 72, 0
1, 172526, Note_off_c, 1, 78, 0
1, 172530, Note_on_c, 1, 77, 127
1, 172530, Note_on_c, 1, 68, 127
1, 172678, Note_off_c, 1, 77, 0
1, 172682, Note_on_c, 1, 75, 127
1, 172830, Note_off_c, 1, 68, 0
1, 172830, Note_off_c, 1, 75, 0
1, 172834, Note_on_c, 1, 65, 127
1, 172906, Note_off_c, 1, 65, 0
1, 172910, Note_on_c, 1, 63, 127
1, 172982, Note_off_c, 1, 63, 0
1, 173138, Note_on_c, 1, 61, 127
1, 173254, Note_off_c, 1, 60, 0
1, 173286, Note_off_c, 1, 61, 0
1, 173442, Note_on_c, 1, 58, 127
1, 173746, Note_on_c, 1, 73, 127
1, 173746, Note_on_c, 1, 70, 127
1, 173894, Note_off_c, 1, 73, 0
1, 174046, Note_off_c, 1, 70, 0
1, 174349, Note_off_c, 1, 58, 0
1, 174354, Note_on_c, 1, 72, 127
1, 174354, Note_on_c, 1, 56, 127
1, 174354, Note_on_c, 1, 68, 127
1, 174502, Note_off_c, 1, 72, 0
1, 174506, Note_on_c, 1, 75, 127
1, 174654, Note_off_c, 1, 56, 0
1, 174654, Note_off_c, 1, 75, 0
1, 174658, Note_on_c, 1, 73, 127
1, 174658, Note_on_c, 1, 58, 127
1, 174806, Note_off_c, 1, 73, 0
1, 174957, Note_off_c, 1, 68, 0
1, 174958, Note_off_c, 1, 58, 0
1, 174962, Note_on_c, 1, 73, 127
1, 174962, Note_on_c, 1, 51, 127
1, 174962, Note_on_c, 1, 67, 127
1, 175110, Note_off_c, 1, 73, 0
1, 175114, Note_on_c, 1, 70, 127
1, 175262, Note_off_c, 1, 51, 0
1, 175262, Note_off_c, 1, 67, 0
1, 175262, Note_off_c, 1, 70, 0
1, 175266, Note_on_c, 1, 72, 127
1, 175266, Note_on_c, 1, 56, 127
1, 175566, Note_off_c, 1, 72, 0
1, 175571, Note_on_c, 1, 68, 127
1, 175571, Note_on_c, 1, 75, 127
1, 175719, Note_off_c, 1, 68, 0
1, 175723, Note_on_c, 1, 66, 127
1, 175871, Note_off_c, 1, 75, 0
1, 175871, Note_off_c, 1, 66, 0
1, 175875, Note_on_c, 1, 78, 127
1, 176027, Note_on_c, 1, 70, 127
1, 176174, Note_off_c, 1, 56, 0
1, 176175, Note_off_c, 1, 70, 0
1, 176483, Note_on_c, 1, 58, 127
1, 176483, Note_on_c, 1, 73, 127
1, 176631, Note_off_c, 1, 58, 0
1, 176631, Note_off_c, 1, 73, 0
1, 176787, Note_on_c, 1, 54, 127
1, 176935, Note_off_c, 1, 54, 0
1, 177086, Note_off_c, 1, 78, 0
1, 177091, Note_on_c, 1, 73, 127
1, 177091, Note_on_c, 1, 65, 127
1, 177091, Note_on_c, 1, 77, 127
1, 177239, Note_off_c, 1, 73, 0
1, 177244, Note_on_c, 1, 72, 127
1, 177391, Note_off_c, 1, 65, 0
1, 177392, Note_off_c, 1, 72, 0
1, 177396, Note_on_c, 1, 70, 127
1, 177396, Note_on_c, 1, 61, 127
1, 177544, Note_off_c, 1, 70, 0
1, 177548, Note_on_c, 1, 68, 127
1, 177696, Note_off_c, 1, 61, 0
1, 177696, Note_off_c, 1, 68, 0
1, 177700, Note_on_c, 1, 58, 127
1, 177848, Note_off_c, 1, 58, 0
1, 177851, Note_on_c, 1, 56, 127
1, 177999, Note_off_c, 1, 56, 0
1, 178003, Note_on_c, 1, 54, 127
1, 178151, Note_off_c, 1, 54, 0
1, 178155, Note_on_c, 1, 53, 127
1, 178302, Note_off_c, 1, 77, 0
1, 178303, Note_off_c, 1, 53, 0
1, 178307, Note_on_c, 1, 75, 127
1, 178611, Note_on_c, 1, 66, 127
1, 178611, Note_on_c, 1, 63, 127
1, 178759, Note_off_c, 1, 66, 0
1, 178911, Note_off_c, 1, 63, 0
1, 179214, Note_off_c, 1, 75, 0
1, 179219, Note_on_c, 1, 65, 127
1, 179219, Note_on_c, 1, 61, 127
1, 179219, Note_on_c, 1, 73, 127
1, 179367, Note_off_c, 1, 65, 0
1, 179371, Note_on_c, 1, 68, 127
1, 179519, Note_off_c, 1, 61, 0
1, 179519, Note_off_c, 1, 73, 0
1, 179519, Note_off_c, 1, 68, 0
1, 179523, Note_on_c, 1, 66, 127
1, 179523, Note_on_c, 1, 51, 127
1, 179523, Note_on_c, 1, 72, 127
1, 179671, Note_off_c, 1, 66, 0
1, 179675, Note_on_c, 1, 65, 127
1, 179823, Note_off_c, 1, 51, 0
1, 179823, Note_off_c, 1, 72, 0
1, 179823, Note_off_c, 1, 65, 0
1, 179827, Note_on_c, 1, 66, 127
1, 179827, Note_on_c, 1, 60, 127
1, 179827, Note_on_c, 1, 75, 127
1, 179975, Note_off_c, 1, 66, 0
1, 179979, Note_on_c, 1, 63, 127
1, 180127, Note_off_c, 1, 60, 0
1, 180127, Note_off_c, 1, 63, 0
1, 180131, Note_on_c, 1, 49, 127
1, 180131, Note_on_c, 1, 65, 127
1, 180281, Note_off_c, 1, 49, 0
1, 180286, Note_on_c, 1, 44, 127
1, 180435, Note_off_c, 1, 75, 0
1, 180436, Note_off_c, 1, 44, 0
1, 180440, Note_on_c, 1, 68, 127
1, 180594, Note_on_c, 1, 51, 127
1, 180744, Note_off_c, 1, 68, 0
1, 180744, Note_off_c, 1, 51, 0
1, 180749, Note_on_c, 1, 53, 127
1, 180749, Note_on_c, 1, 73, 127
1, 180899, Note_off_c, 1, 53, 0
1, 180902, Note_on_c, 1, 54, 127
1, 181052, Note_off_c, 1, 54, 0
1, 181053, Note_off_c, 1, 73, 0
1, 181056, Note_on_c, 1, 56, 127
1, 181056, Note_on_c, 1, 71, 127
1, 181206, Note_off_c, 1, 56, 0
1, 181360, Note_off_c, 1, 71, 0
1, 181362, Note_off_c, 1, 65, 0
1, 181364, Note_on_c, 1, 54, 127
1, 181364, Note_on_c, 1, 70, 127
1, 181514, Note_off_c, 1, 54, 0
1, 181518, Note_on_c, 1, 42, 127
1, 181668, Note_off_c, 1, 42, 0
1, 181672, Note_on_c, 1, 61, 127
1, 181827, Note_on_c, 1, 53, 127
1, 181976, Note_off_c, 1, 61, 0
1, 181977, Note_off_c, 1, 53, 0
1, 181981, Note_on_c, 1, 66, 127
1, 182135, Note_on_c, 1, 56, 127
1, 182285, Note_off_c, 1, 66, 0
1, 182285, Note_off_c, 1, 56, 0
1, 182290, Note_on_c, 1, 58, 127
1, 182290, Note_on_c, 1, 65, 127
1, 182440, Note_off_c, 1, 58, 0
1, 182594, Note_off_c, 1, 65, 0
1, 182595, Note_off_c, 1, 70, 0
1, 182597, Note_on_c, 1, 51, 127
1, 182597, Note_on_c, 1, 66, 127
1, 182747, Note_off_c, 1, 51, 0
1, 182750, Note_on_c, 1, 53, 127
1, 182900, Note_off_c, 1, 53, 0
1, 182905, Note_on_c, 1, 54, 127
1, 182905, Note_on_c, 1, 70, 127
1, 183055, Note_off_c, 1, 66, 0
1, 183055, Note_off_c, 1, 54, 0
1, 183055, Note_off_c, 1, 70, 0
1, 183059, Note_on_c, 1, 51, 127
1, 183059, Note_on_c, 1, 66, 127
1, 183209, Note_off_c, 1, 51, 0
1, 183213, Note_on_c, 1, 48, 127
1, 183213, Note_on_c, 1, 63, 127
1, 183363, Note_off_c, 1, 48, 0
1, 183368, Note_on_c, 1, 49, 127
1, 183517, Note_off_c, 1, 66, 0
1, 183518, Note_off_c, 1, 49, 0
1, 183671, Note_off_c, 1, 63, 0
1, 183676, Note_on_c, 1, 48, 127
1, 183676, Note_on_c, 1, 63, 127
1, 183826, Note_off_c, 1, 48, 0
1, 183831, Note_on_c, 1, 41, 127
1, 183831, Note_on_c, 1, 56, 127
1, 184134, Note_off_c, 1, 63, 0
1, 184135, Note_off_c, 1, 41, 0
1, 184139, Note_on_c, 1, 53, 127
1, 184289, Note_off_c, 1, 53, 0
1, 184294, Note_on_c, 1, 51, 127
1, 184444, Note_off_c, 1, 51, 0
1, 184448, Note_on_c, 1, 68, 127
1, 184601, Note_on_c, 1, 54, 127
1, 184751, Note_off_c, 1, 54, 0
1, 184752, Note_off_c, 1, 56, 0
1, 184756, Note_on_c, 1, 60, 127
1, 185060, Note_off_c, 1, 60, 0
1, 185064, Note_on_c, 1, 50, 127
1, 185064, Note_on_c, 1, 65, 127
1, 185214, Note_off_c, 1, 50, 0
1, 185369, Note_off_c, 1, 68, 0
1, 185522, Note_off_c, 1, 65, 0
1, 185527, Note_on_c, 1, 50, 127
1, 185527, Note_on_c, 1, 65, 127
1, 185677, Note_off_c, 1, 50, 0
1, 185682, Note_on_c, 1, 46, 127
1, 185682, Note_on_c, 1, 62, 127
1, 185832, Note_off_c, 1, 46, 0
1, 185836, Note_on_c, 1, 48, 127
1, 185985, Note_off_c, 1, 65, 0
1, 185986, Note_off_c, 1, 48, 0
1, 186140, Note_off_c, 1, 62, 0
1, 186144, Note_on_c, 1, 46, 127
1, 186144, Note_on_c, 1, 62, 127
1, 186294, Note_off_c, 1, 46, 0
1, 186294, Note_off_c, 1, 62, 0
1, 186299, Note_on_c, 1, 39, 127
1, 186299, Note_on_c, 1, 54, 127
1, 186603, Note_off_c, 1, 39, 0
1, 186603, Note_off_c, 1, 54, 0
1, 186606, Note_on_c, 1, 51, 127
1, 186606, Note_on_c, 1, 58, 127
1, 186756, Note_off_c, 1, 51, 0
1, 186761, Note_on_c, 1, 50, 127
1, 186910, Note_off_c, 1, 58, 0
1, 186911, Note_off_c, 1, 50, 0
1, 186915, Note_on_c, 1, 51, 127
1, 186915, Note_on_c, 1, 66, 127
1, 187065, Note_off_c, 1, 51, 0
1, 187069, Note_on_c, 1, 53, 127
1, 187219, Note_off_c, 1, 53, 0
1, 187224, Note_on_c, 1, 54, 127
1, 187224, Note_on_c, 1, 58, 127
1, 187374, Note_off_c, 1, 54, 0
1, 187528, Note_off_c, 1, 58, 0
1, 187532, Note_on_c, 1, 48, 127
1, 187532, Note_on_c, 1, 63, 127
1, 187682, Note_off_c, 1, 66, 0
1, 187682, Note_off_c, 1, 48, 0
1, 187687, Note_on_c, 1, 49, 127
1, 187687, Note_on_c, 1, 65, 127
1, 187837, Note_off_c, 1, 49, 0
1, 187837, Note_off_c, 1, 65, 0
1, 187990, Note_off_c, 1, 63, 0
1, 187995, Note_on_c, 1, 48, 127
1, 187995, Note_on_c, 1, 63, 127
1, 188145, Note_off_c, 1, 48, 0
1, 188150, Note_on_c, 1, 44, 127
1, 188150, Note_on_c, 1, 75, 127
1, 188299, Note_off_c, 1, 63, 0
1, 188300, Note_off_c, 1, 44, 0
1, 188303, Note_on_c, 1, 46, 127
1, 188303, Note_on_c, 1, 66, 127
1, 188453, Note_off_c, 1, 46, 0
1, 188453, Note_off_c, 1, 66, 0
1, 188457, Note_on_c, 1, 68, 127
1, 188607, Note_off_c, 1, 68, 0
1, 188766, Note_on_c, 1, 37, 127
1, 188766, Note_on_c, 1, 65, 127
1, 188917, Note_off_c, 1, 75, 0
1, 188920, Note_on_c, 1, 73, 127
1, 189070, Note_off_c, 1, 37, 0
1, 189070, Note_off_c, 1, 73, 0
1, 189075, Note_on_c, 1, 49, 127
1, 189075, Note_on_c, 1, 72, 127
1, 189225, Note_off_c, 1, 49, 0
1, 189225, Note_off_c, 1, 72, 0
1, 189229, Note_on_c, 1, 51, 127
1, 189379, Note_off_c, 1, 51, 0
1, 189383, Note_on_c, 1, 53, 127
1, 189536, Note_off_c, 1, 65, 0
1, 189687, Note_off_c, 1, 53, 0
1, 189692, Note_on_c, 1, 70, 127
1, 189692, Note_on_c, 1, 49, 127
1, 189692, Note_on_c, 1, 61, 127
1, 189842, Note_off_c, 1, 70, 0
1, 189846, Note_on_c, 1, 71, 127
1, 189996, Note_off_c, 1, 49, 0
1, 189996, Note_off_c, 1, 71, 0
1, 190000, Note_on_c, 1, 54, 127
1, 190152, Note_off_c, 1, 61, 0
1, 190156, Note_on_c, 1, 60, 127
1, 190156, Note_on_c, 1, 68, 127
1, 190308, Note_off_c, 1, 60, 0
1, 190308, Note_off_c, 1, 68, 0
1, 190313, Note_on_c, 1, 58, 127
1, 190313, Note_on_c, 1, 66, 127
1, 190465, Note_off_c, 1, 58, 0
1, 190465, Note_off_c, 1, 66, 0
1, 190621, Note_off_c, 1, 54, 0
1, 190626, Note_on_c, 1, 61, 127
1, 190626, Note_on_c, 1, 77, 127
1, 190626, Note_on_c, 1, 53, 127
1, 190778, Note_off_c, 1, 61, 0
1, 190782, Note_on_c, 1, 60, 127
1, 190934, Note_off_c, 1, 77, 0
1, 190934, Note_off_c, 1, 60, 0
1, 190939, Note_on_c, 1, 58, 127
1, 190939, Note_on_c, 1, 73, 127
1, 191091, Note_off_c, 1, 58, 0
1, 191096, Note_on_c, 1, 56, 127
1, 191247, Note_off_c, 1, 53, 0
1, 191247, Note_off_c, 1, 73, 0
1, 191248, Note_off_c, 1, 56, 0
1, 191251, Note_on_c, 1, 51, 127
1, 191251, Note_on_c, 1, 68, 127
1, 191251, Note_on_c, 1, 58, 127
1, 191559, Note_off_c, 1, 51, 0
1, 191559, Note_off_c, 1, 68, 0
1, 191564, Note_on_c, 1, 66, 127
1, 191564, Note_on_c, 1, 49, 127
1, 191716, Note_off_c, 1, 66, 0
1, 191721, Note_on_c, 1, 65, 127
1, 191872, Note_off_c, 1, 49, 0
1, 191873, Note_off_c, 1, 65, 0
1, 191878, Note_on_c, 1, 48, 127
1, 192029, Note_off_c, 1, 58, 0
1, 192034, Note_on_c, 1, 56, 127
1, 192186, Note_off_c, 1, 56, 0
1, 192191, Note_on_c, 1, 54, 127
1, 192191, Note_on_c, 1, 75, 127
1, 192343, Note_off_c, 1, 54, 0
1, 192499, Note_off_c, 1, 48, 0
1, 192499, Note_off_c, 1, 75, 0
1, 192503, Note_on_c, 1, 56, 127
1, 192503, Note_on_c, 1, 65, 127
1, 192503, Note_on_c, 1, 49, 127
1, 192657, Note_off_c, 1, 56, 0
1, 192662, Note_on_c, 1, 54, 127
1, 192816, Note_off_c, 1, 65, 0
1, 192816, Note_off_c, 1, 54, 0
1, 192821, Note_on_c, 1, 53, 127
1, 192821, Note_on_c, 1, 73, 127
1, 192975, Note_off_c, 1, 53, 0
1, 193134, Note_off_c, 1, 49, 0
1, 193134, Note_off_c, 1, 73, 0
1, 193139, Note_on_c, 1, 54, 127
1, 193139, Note_on_c, 1, 63, 127
1, 193139, Note_on_c, 1, 44, 127
1, 193293, Note_off_c, 1, 54, 0
1, 193297, Note_on_c, 1, 53, 127
1, 193451, Note_off_c, 1, 53, 0
1, 193452, Note_off_c, 1, 63, 0
1, 193455, Note_on_c, 1, 51, 127
1, 193455, Note_on_c, 1, 72, 127
1, 193609, Note_off_c, 1, 51, 0
1, 193768, Note_off_c, 1, 72, 0
1, 193770, Note_off_c, 1, 44, 0
1, 193789, Note_on_c, 1, 61, 127
1, 193789, Note_on_c, 1, 53, 127
1, 193789, Note_on_c, 1, 46, 127
1, 193948, Note_off_c, 1, 61, 0
1, 193948, Note_off_c, 1, 53, 0
1, 193952, Note_on_c, 1, 65, 127
1, 193952, Note_on_c, 1, 56, 127
1, 194111, Note_off_c, 1, 46, 0
1, 194111, Note_off_c, 1, 65, 0
1, 194111, Note_off_c, 1, 56, 0
1, 194115, Note_on_c, 1, 66, 127
1, 194115, Note_on_c, 1, 58, 127
1, 194274, Note_off_c, 1, 66, 0
1, 194274, Note_off_c, 1, 58, 0
1, 194278, Note_on_c, 1, 68, 127
1, 194278, Note_on_c, 1, 60, 127
1, 194437, Note_off_c, 1, 68, 0
1, 194437, Note_off_c, 1, 60, 0
1, 194442, Note_on_c, 1, 70, 127
1, 194442, Note_on_c, 1, 61, 127
1, 194601, Note_off_c, 1, 70, 0
1, 194601, Note_off_c, 1, 61, 0
1, 194604, Note_on_c, 1, 72, 127
1, 194604, Note_on_c, 1, 60, 127
1, 194763, Note_off_c, 1, 72, 0
1, 194763, Note_off_c, 1, 60, 0
1, 194768, Note_on_c, 1, 73, 127
1, 194768, Note_on_c, 1, 58, 127
1, 194927, Note_off_c, 1, 73, 0
1, 194927, Note_off_c, 1, 58, 0
1, 194931, Note_on_c, 1, 75, 127
1, 194931, Note_on_c, 1, 56, 127
1, 195090, Note_off_c, 1, 75, 0
1, 195090, Note_off_c, 1, 56, 0
1, 195095, Note_on_c, 1, 76, 127
1, 195095, Note_on_c, 1, 55, 127
1, 195254, Note_off_c, 1, 76, 0
1, 195254, Note_off_c, 1, 55, 0
1, 195257, Note_on_c, 1, 75, 127
1, 195257, Note_on_c, 1, 56, 127
1, 195416, Note_off_c, 1, 75, 0
1, 195416, Note_off_c, 1, 56, 0
1, 195421, Note_on_c, 1, 73, 127
1, 195421, Note_on_c, 1, 58, 127
1, 195580, Note_off_c, 1, 73, 0
1, 195580, Note_off_c, 1, 58, 0
1, 195584, Note_on_c, 1, 75, 127
1, 195584, Note_on_c, 1, 55, 127
1, 195743, Note_off_c, 1, 75, 0
1, 195743, Note_off_c, 1, 55, 0
1, 195747, Note_on_c, 1, 76, 127
1, 195747, Note_on_c, 1, 51, 127
1, 195906, Note_off_c, 1, 76, 0
1, 195910, Note_on_c, 1, 79, 127
1, 195910, Note_on_c, 1, 49, 127
1, 196069, Note_off_c, 1, 79, 0
1, 196069, Note_off_c, 1, 49, 0
1, 196073, Note_on_c, 1, 80, 127
1, 196073, Note_on_c, 1, 48, 127
1, 196232, Note_off_c, 1, 80, 0
1, 196232, Note_off_c, 1, 48, 0
1, 196237, Note_on_c, 1, 82, 127
1, 196237, Note_on_c, 1, 46, 127
1, 196396, Note_off_c, 1, 82, 0
1, 196396, Note_off_c, 1, 46, 0
1, 196415, Note_on_c, 1, 73, 127
1, 196415, Note_on_c, 1, 44, 127
1, 196566, Note_off_c, 1, 51, 0
1, 196582, Note_off_c, 1, 73, 0
1, 196587, Note_on_c, 1, 72, 127
1, 196754, Note_off_c, 1, 72, 0
1, 196757, Note_on_c, 1, 53, 127
1, 196757, Note_on_c, 1, 70, 127
1, 196924, Note_off_c, 1, 53, 0
1, 196924, Note_off_c, 1, 70, 0
1, 196928, Note_on_c, 1, 54, 127
1, 196928, Note_on_c, 1, 68, 127
1, 197095, Note_off_c, 1, 54, 0
1, 197095, Note_off_c, 1, 68, 0
1, 197100, Note_on_c, 1, 56, 127
1, 197100, Note_on_c, 1, 75, 127
1, 197267, Note_off_c, 1, 56, 0
1, 197269, Note_off_c, 1, 44, 0
1, 197270, Note_on_c, 1, 58, 127
1, 197437, Note_off_c, 1, 58, 0
1, 197438, Note_off_c, 1, 75, 0
1, 197442, Note_on_c, 1, 60, 127
1, 197442, Note_on_c, 1, 66, 127
1, 197609, Note_off_c, 1, 60, 0
1, 197612, Note_on_c, 1, 56, 127
1, 197779, Note_off_c, 1, 56, 0
1, 197780, Note_off_c, 1, 66, 0
1, 197784, Note_on_c, 1, 61, 127
1, 197784, Note_on_c, 1, 65, 127
1, 198229, Note_off_c, 1, 61, 0
1, 198229, Note_off_c, 1, 65, 0
1, 198234, Note_on_c, 1, 41, 127
1, 198234, Note_on_c, 1, 61, 127
1, 198234, Note_on_c, 1, 73, 127
1, 198234, Note_on_c, 1, 68, 127
1, 198679, Note_off_c, 1, 41, 0
1, 198679, Note_off_c, 1, 61, 0
1, 198679, Note_off_c, 1, 73, 0
1, 198679, Note_off_c, 1, 68, 0
1, 198684, Note_on_c, 1, 42, 127
1, 198684, Note_on_c, 1, 63, 127
1, 198684, Note_on_c, 1, 70, 127
1, 199129, Note_off_c, 1, 42, 0
1, 199129, Note_off_c, 1, 63, 0
1, 199129, Note_off_c, 1, 70, 0
1, 199135, Note_on_c, 1, 44, 127
1, 199135, Note_on_c, 1, 72, 127
1, 199135, Note_on_c, 1, 66, 127
1, 199135, Note_on_c, 1, 68, 127
1, 199641, Note_off_c, 1, 44, 0
1, 199641, Note_off_c, 1, 72, 0
1, 199641, Note_off_c, 1, 66, 0
1, 199641, Note_off_c, 1, 68, 0
1, 199657, Note_on_c, 1, 65, 127
1, 199657, Note_on_c, 1, 68, 127
1, 199657, Note_on_c, 1, 73, 127
1, 199657, Note_on_c, 1, 61, 127
1, 199657, Note_on_c, 1, 49, 127
1, 199657, Note_on_c, 1, 37, 127
1, 203205, Note_off_c, 1, 65, 0
1, 203205, Note_off_c, 1, 68, 0
1, 203205, Note_off_c, 1, 73, 0
1, 203205, Note_off_c, 1, 61, 0
1, 203205, Note_off_c, 1, 49, 0
1, 203205, Note_off_c, 1, 37, 0
1, 203205, End_track
0, 0, End_of_file