0, 0, Header, 1, 1, 480
1, 0, Start_track
1, 0, Title_t, "Test"
1, 0, Tempo, 500000
1, 0, Instrument_name_t, "Church Organ"
1, 64, Note_on_c, 1, 51, 127
1, 64, Note_on_c, 1, 63, 127
1, 154, Note_off_c, 1, 51, 0
1, 156, Note_on_c, 1, 50, 127
1, 246, Note_off_c, 1, 63, 0
1, 246, Note_off_c, 1, 50, 0
1, 248, Note_on_c, 1, 66, 127
1, 248, Note_on_c, 1, 51, 127
1, 430, Note_off_c, 1, 66, 0
1, 432, Note_on_c, 1, 65, 127
1, 432, Note_on_c, 1, 39, 127
1, 614, Note_off_c, 1, 65, 0
1, 616, Note_on_c, 1, 68, 127
1, 798, Note_off_c, 1, 68, 0
1, 977, Note_off_c, 1, 51, 0
1, 985, Note_on_c, 1, 70, 127
1, 1161, Note_off_c, 1, 39, 0
1, 1167, Note_off_c, 1, 70, 0
1, 1169, Note_on_c, 1, 68, 127
1, 1351, Note_off_c, 1, 68, 0
1, 1354, Note_on_c, 1, 71, 127
1, 1536, Note_off_c, 1, 71, 0
1, 1538, Note_on_c, 1, 70, 127
1, 1720, Note_off_c, 1, 70, 0
1, 1723, Note_on_c, 1, 75, 127
1, 1905, Note_off_c, 1, 75, 0
1, 1907, Note_on_c, 1, 74, 127
1, 2089, Note_off_c, 1, 74, 0
1, 2091, Note_on_c, 1, 72, 127
1, 2273, Note_off_c, 1, 72, 0
1, 2275, Note_on_c, 1, 70, 127
1, 2457, Note_off_c, 1, 70, 0
1, 2461, Note_on_c, 1, 68, 127
1, 2643, Note_off_c, 1, 68, 0
1, 2645, Note_on_c, 1, 66, 127
1, 2827, Note_off_c, 1, 66, 0
1, 2829, Note_on_c, 1, 65, 127
1, 3011, Note_off_c, 1, 65, 0
1, 3013, Note_on_c, 1, 51, 127
1, 3013, Note_on_c, 1, 66, 127
1, 3195, Note_off_c, 1, 51, 0
1, 3198, Note_on_c, 1, 54, 127
1, 3367, Note_off_c, 1, 66, 0
1, 3380, Note_off_c, 1, 54, 0
1, 3382, Note_on_c, 1, 53, 127
1, 3382, Note_on_c, 1, 62, 127
1, 3564, Note_off_c, 1, 53, 0
1, 3566, Note_on_c, 1, 56, 127
1, 3736, Note_off_c, 1, 62, 0
1, 3748, Note_off_c, 1, 56, 0
1, 3751, Note_on_c, 1, 54, 127
1, 3751, Note_on_c, 1, 63, 127
1, 3933, Note_off_c, 1, 54, 0
1, 3936, Note_on_c, 1, 58, 127
1, 4118, Note_off_c, 1, 58, 0
1, 4120, Note_on_c, 1, 56, 127
1, 4120, Note_on_c, 1, 75, 127
1, 4140, Note_off_c, 1, 63, 0
1, 4302, Note_off_c, 1, 56, 0
1, 4304, Note_on_c, 1, 59, 127
1, 4474, Note_off_c, 1, 75, 0
1, 4486, Note_off_c, 1, 59, 0
1, 4488, Note_on_c, 1, 75, 127
1, 4488, Note_on_c, 1, 58, 127
1, 4578, Note_off_c, 1, 75, 0
1, 4580, Note_on_c, 1, 74, 127
1, 4670, Note_off_c, 1, 58, 0
1, 4670, Note_off_c, 1, 74, 0
1, 4673, Note_on_c, 1, 72, 127
1, 4673, Note_on_c, 1, 63, 127
1, 4855, Note_off_c, 1, 72, 0
1, 4855, Note_off_c, 1, 63, 0
1, 4858, Note_on_c, 1, 62, 127
1, 4858, Note_on_c, 1, 70, 127
1, 5040, Note_off_c, 1, 62, 0
1, 5042, Note_on_c, 1, 60, 127
1, 5224, Note_off_c, 1, 60, 0
1, 5226, Note_on_c, 1, 58, 127
1, 5395, Note_off_c, 1, 70, 0
1, 5408, Note_off_c, 1, 58, 0
1, 5410, Note_on_c, 1, 56, 127
1, 5592, Note_off_c, 1, 56, 0
1, 5595, Note_on_c, 1, 75, 127
1, 5595, Note_on_c, 1, 54, 127
1, 5685, Note_off_c, 1, 75, 0
1, 5687, Note_on_c, 1, 74, 127
1, 5777, Note_off_c, 1, 54, 0
1, 5777, Note_off_c, 1, 74, 0
1, 5779, Note_on_c, 1, 72, 127
1, 5779, Note_on_c, 1, 53, 127
1, 5869, Note_off_c, 1, 72, 0
1, 5871, Note_on_c, 1, 74, 127
1, 5961, Note_off_c, 1, 53, 0
1, 5961, Note_off_c, 1, 74, 0
1, 5964, Note_on_c, 1, 75, 127
1, 5964, Note_on_c, 1, 54, 127
1, 6146, Note_off_c, 1, 75, 0
1, 6148, Note_on_c, 1, 78, 127
1, 6330, Note_off_c, 1, 54, 0
1, 6330, Note_off_c, 1, 78, 0
1, 6333, Note_on_c, 1, 77, 127
1, 6333, Note_on_c, 1, 50, 127
1, 6515, Note_off_c, 1, 77, 0
1, 6517, Note_on_c, 1, 80, 127
1, 6699, Note_off_c, 1, 50, 0
1, 6699, Note_off_c, 1, 80, 0
1, 6701, Note_on_c, 1, 78, 127
1, 6701, Note_on_c, 1, 51, 127
1, 6883, Note_off_c, 1, 78, 0
1, 6885, Note_on_c, 1, 77, 127
1, 7067, Note_off_c, 1, 51, 0
1, 7067, Note_off_c, 1, 77, 0
1, 7070, Note_on_c, 1, 75, 127
1, 7070, Note_on_c, 1, 54, 127
1, 7252, Note_off_c, 1, 75, 0
1, 7255, Note_on_c, 1, 73, 127
1, 7436, Note_off_c, 1, 54, 0
1, 7437, Note_off_c, 1, 73, 0
1, 7439, Note_on_c, 1, 56, 127
1, 7439, Note_on_c, 1, 71, 127
1, 7621, Note_off_c, 1, 56, 0
1, 7623, Note_on_c, 1, 59, 127
1, 7688, Note_off_c, 1, 71, 0
1, 7805, Note_off_c, 1, 59, 0
1, 7808, Note_on_c, 1, 58, 127
1, 7808, Note_on_c, 1, 75, 127
1, 7990, Note_off_c, 1, 58, 0
1, 7992, Note_on_c, 1, 61, 127
1, 8076, Note_off_c, 1, 75, 0
1, 8174, Note_off_c, 1, 61, 0
1, 8176, Note_on_c, 1, 80, 127
1, 8176, Note_on_c, 1, 59, 127
1, 8266, Note_off_c, 1, 80, 0
1, 8268, Note_on_c, 1, 78, 127
1, 8358, Note_off_c, 1, 59, 0
1, 8358, Note_off_c, 1, 78, 0
1, 8361, Note_on_c, 1, 58, 127
1, 8361, Note_on_c, 1, 80, 127
1, 8543, Note_off_c, 1, 58, 0
1, 8546, Note_on_c, 1, 56, 127
1, 8728, Note_off_c, 1, 56, 0
1, 8730, Note_on_c, 1, 54, 127
1, 8912, Note_off_c, 1, 54, 0
1, 8914, Note_on_c, 1, 53, 127
1, 9096, Note_off_c, 1, 80, 0
1, 9098, Note_on_c, 1, 77, 127
1, 9247, Note_off_c, 1, 53, 0
1, 9280, Note_off_c, 1, 77, 0
1, 9283, Note_on_c, 1, 78, 127
1, 9283, Note_on_c, 1, 56, 127
1, 9465, Note_off_c, 1, 78, 0
1, 9467, Note_on_c, 1, 75, 127
1, 9616, Note_off_c, 1, 56, 0
1, 9649, Note_off_c, 1, 75, 0
1, 9652, Note_on_c, 1, 61, 127
1, 9652, Note_on_c, 1, 77, 127
1, 9742, Note_off_c, 1, 61, 0
1, 9744, Note_on_c, 1, 59, 127
1, 9834, Note_off_c, 1, 77, 0
1, 9834, Note_off_c, 1, 59, 0
1, 9836, Note_on_c, 1, 80, 127
1, 9836, Note_on_c, 1, 61, 127
1, 10018, Note_off_c, 1, 80, 0
1, 10020, Note_on_c, 1, 73, 127
1, 10202, Note_off_c, 1, 73, 0
1, 10205, Note_on_c, 1, 71, 127
1, 10387, Note_off_c, 1, 71, 0
1, 10389, Note_on_c, 1, 70, 127
1, 10571, Note_off_c, 1, 61, 0
1, 10573, Note_on_c, 1, 58, 127
1, 10638, Note_off_c, 1, 70, 0
1, 10755, Note_off_c, 1, 58, 0
1, 10758, Note_on_c, 1, 59, 127
1, 10758, Note_on_c, 1, 73, 127
1, 10940, Note_off_c, 1, 59, 0
1, 10943, Note_on_c, 1, 56, 127
1, 11026, Note_off_c, 1, 73, 0
1, 11125, Note_off_c, 1, 56, 0
1, 11127, Note_on_c, 1, 78, 127
1, 11127, Note_on_c, 1, 58, 127
1, 11217, Note_off_c, 1, 78, 0
1, 11219, Note_on_c, 1, 77, 127
1, 11309, Note_off_c, 1, 58, 0
1, 11309, Note_off_c, 1, 77, 0
1, 11311, Note_on_c, 1, 61, 127
1, 11311, Note_on_c, 1, 78, 127
1, 11493, Note_off_c, 1, 61, 0
1, 11495, Note_on_c, 1, 54, 127
1, 11677, Note_off_c, 1, 54, 0
1, 11680, Note_on_c, 1, 53, 127
1, 11862, Note_off_c, 1, 53, 0
1, 11864, Note_on_c, 1, 51, 127
1, 12046, Note_off_c, 1, 78, 0
1, 12049, Note_on_c, 1, 77, 127
1, 12209, Note_off_c, 1, 51, 0
1, 12231, Note_off_c, 1, 77, 0
1, 12233, Note_on_c, 1, 75, 127
1, 12233, Note_on_c, 1, 54, 127
1, 12415, Note_off_c, 1, 75, 0
1, 12418, Note_on_c, 1, 74, 127
1, 12578, Note_off_c, 1, 54, 0
1, 12600, Note_off_c, 1, 74, 0
1, 12602, Note_on_c, 1, 59, 127
1, 12602, Note_on_c, 1, 75, 127
1, 12692, Note_off_c, 1, 59, 0
1, 12694, Note_on_c, 1, 58, 127
1, 12784, Note_off_c, 1, 75, 0
1, 12784, Note_off_c, 1, 58, 0
1, 12786, Note_on_c, 1, 78, 127
1, 12786, Note_on_c, 1, 59, 127
1, 12968, Note_off_c, 1, 78, 0
1, 12970, Note_on_c, 1, 68, 127
1, 13152, Note_off_c, 1, 68, 0
1, 13323, Note_off_c, 1, 59, 0
1, 13340, Note_on_c, 1, 77, 127
1, 13340, Note_on_c, 1, 49, 127
1, 13522, Note_off_c, 1, 77, 0
1, 13524, Note_on_c, 1, 75, 127
1, 13689, Note_off_c, 1, 49, 0
1, 13706, Note_off_c, 1, 75, 0
1, 13708, Note_on_c, 1, 73, 127
1, 13708, Note_on_c, 1, 53, 127
1, 13890, Note_off_c, 1, 73, 0
1, 13893, Note_on_c, 1, 72, 127
1, 14057, Note_off_c, 1, 53, 0
1, 14075, Note_off_c, 1, 72, 0
1, 14077, Note_on_c, 1, 58, 127
1, 14077, Note_on_c, 1, 73, 127
1, 14167, Note_off_c, 1, 58, 0
1, 14169, Note_on_c, 1, 56, 127
1, 14259, Note_off_c, 1, 73, 0
1, 14259, Note_off_c, 1, 56, 0
1, 14262, Note_on_c, 1, 76, 127
1, 14262, Note_on_c, 1, 58, 127
1, 14444, Note_off_c, 1, 76, 0
1, 14446, Note_on_c, 1, 66, 127
1, 14628, Note_off_c, 1, 66, 0
1, 14799, Note_off_c, 1, 58, 0
1, 14815, Note_on_c, 1, 75, 127
1, 14815, Note_on_c, 1, 47, 127
1, 14997, Note_off_c, 1, 75, 0
1, 14999, Note_on_c, 1, 73, 127
1, 15181, Note_off_c, 1, 47, 0
1, 15181, Note_off_c, 1, 73, 0
1, 15183, Note_on_c, 1, 71, 127
1, 15183, Note_on_c, 1, 51, 127
1, 15365, Note_off_c, 1, 71, 0
1, 15367, Note_on_c, 1, 70, 127
1, 15549, Note_off_c, 1, 51, 0
1, 15549, Note_off_c, 1, 70, 0
1, 15553, Note_on_c, 1, 71, 127
1, 15553, Note_on_c, 1, 56, 127
1, 15735, Note_off_c, 1, 71, 0
1, 15737, Note_on_c, 1, 75, 127
1, 15919, Note_off_c, 1, 56, 0
1, 15919, Note_off_c, 1, 75, 0
1, 15921, Note_on_c, 1, 65, 127
1, 15921, Note_on_c, 1, 49, 127
1, 16103, Note_off_c, 1, 65, 0
1, 16105, Note_on_c, 1, 75, 127
1, 16287, Note_off_c, 1, 49, 0
1, 16287, Note_off_c, 1, 75, 0
1, 16290, Note_on_c, 1, 71, 127
1, 16290, Note_on_c, 1, 51, 127
1, 16472, Note_off_c, 1, 71, 0
1, 16474, Note_on_c, 1, 75, 127
1, 16656, Note_off_c, 1, 51, 0
1, 16656, Note_off_c, 1, 75, 0
1, 16659, Note_on_c, 1, 66, 127
1, 16659, Note_on_c, 1, 59, 127
1, 16841, Note_off_c, 1, 66, 0
1, 16843, Note_on_c, 1, 75, 127
1, 17025, Note_off_c, 1, 59, 0
1, 17025, Note_off_c, 1, 75, 0
1, 17028, Note_on_c, 1, 71, 127
1, 17028, Note_on_c, 1, 56, 127
1, 17210, Note_off_c, 1, 71, 0
1, 17212, Note_on_c, 1, 75, 127
1, 17394, Note_off_c, 1, 56, 0
1, 17394, Note_off_c, 1, 75, 0
1, 17396, Note_on_c, 1, 68, 127
1, 17396, Note_on_c, 1, 53, 127
1, 17578, Note_off_c, 1, 68, 0
1, 17580, Note_on_c, 1, 75, 127
1, 17762, Note_off_c, 1, 53, 0
1, 17762, Note_off_c, 1, 75, 0
1, 17765, Note_on_c, 1, 73, 127
1, 17765, Note_on_c, 1, 46, 127
1, 17947, Note_off_c, 1, 73, 0
1, 17950, Note_on_c, 1, 71, 127
1, 18131, Note_off_c, 1, 46, 0
1, 18132, Note_off_c, 1, 71, 0
1, 18134, Note_on_c, 1, 70, 127
1, 18134, Note_on_c, 1, 49, 127
1, 18316, Note_off_c, 1, 70, 0
1, 18318, Note_on_c, 1, 68, 127
1, 18500, Note_off_c, 1, 49, 0
1, 18500, Note_off_c, 1, 68, 0
1, 18503, Note_on_c, 1, 70, 127
1, 18503, Note_on_c, 1, 54, 127
1, 18685, Note_off_c, 1, 70, 0
1, 18687, Note_on_c, 1, 73, 127
1, 18869, Note_off_c, 1, 54, 0
1, 18869, Note_off_c, 1, 73, 0
1, 18871, Note_on_c, 1, 63, 127
1, 18871, Note_on_c, 1, 47, 127
1, 19053, Note_off_c, 1, 63, 0
1, 19056, Note_on_c, 1, 73, 127
1, 19237, Note_off_c, 1, 47, 0
1, 19238, Note_off_c, 1, 73, 0
1, 19240, Note_on_c, 1, 70, 127
1, 19240, Note_on_c, 1, 49, 127
1, 19422, Note_off_c, 1, 70, 0
1, 19425, Note_on_c, 1, 73, 127
1, 19606, Note_off_c, 1, 49, 0
1, 19607, Note_off_c, 1, 73, 0
1, 19609, Note_on_c, 1, 65, 127
1, 19609, Note_on_c, 1, 58, 127
1, 19791, Note_off_c, 1, 65, 0
1, 19793, Note_on_c, 1, 73, 127
1, 19975, Note_off_c, 1, 58, 0
1, 19975, Note_off_c, 1, 73, 0
1, 19977, Note_on_c, 1, 70, 127
1, 19977, Note_on_c, 1, 54, 127
1, 20159, Note_off_c, 1, 70, 0
1, 20163, Note_on_c, 1, 73, 127
1, 20343, Note_off_c, 1, 54, 0
1, 20345, Note_off_c, 1, 73, 0
1, 20347, Note_on_c, 1, 66, 127
1, 20347, Note_on_c, 1, 51, 127
1, 20529, Note_off_c, 1, 66, 0
1, 20531, Note_on_c, 1, 73, 127
1, 20713, Note_off_c, 1, 51, 0
1, 20713, Note_off_c, 1, 73, 0
1, 20715, Note_on_c, 1, 71, 127
1, 20715, Note_on_c, 1, 44, 127
1, 20897, Note_off_c, 1, 71, 0
1, 20900, Note_on_c, 1, 70, 127
1, 21081, Note_off_c, 1, 44, 0
1, 21082, Note_off_c, 1, 70, 0
1, 21084, Note_on_c, 1, 68, 127
1, 21084, Note_on_c, 1, 47, 127
1, 21266, Note_off_c, 1, 68, 0
1, 21268, Note_on_c, 1, 66, 127
1, 21450, Note_off_c, 1, 47, 0
1, 21450, Note_off_c, 1, 66, 0
1, 21453, Note_on_c, 1, 68, 127
1, 21453, Note_on_c, 1, 53, 127
1, 21635, Note_off_c, 1, 68, 0
1, 21638, Note_on_c, 1, 71, 127
1, 21819, Note_off_c, 1, 53, 0
1, 21820, Note_off_c, 1, 71, 0
1, 21822, Note_on_c, 1, 61, 127
1, 21822, Note_on_c, 1, 46, 127
1, 22004, Note_off_c, 1, 61, 0
1, 22006, Note_on_c, 1, 71, 127
1, 22188, Note_off_c, 1, 46, 0
1, 22188, Note_off_c, 1, 71, 0
1, 22190, Note_on_c, 1, 68, 127
1, 22190, Note_on_c, 1, 47, 127
1, 22372, Note_off_c, 1, 68, 0
1, 22375, Note_on_c, 1, 71, 127
1, 22556, Note_off_c, 1, 47, 0
1, 22557, Note_off_c, 1, 71, 0
1, 22560, Note_on_c, 1, 63, 127
1, 22560, Note_on_c, 1, 56, 127
1, 22742, Note_off_c, 1, 63, 0
1, 22744, Note_on_c, 1, 71, 127
1, 22926, Note_off_c, 1, 56, 0
1, 22926, Note_off_c, 1, 71, 0
1, 22928, Note_on_c, 1, 68, 127
1, 22928, Note_on_c, 1, 53, 127
1, 23110, Note_off_c, 1, 68, 0
1, 23113, Note_on_c, 1, 71, 127
1, 23294, Note_off_c, 1, 53, 0
1, 23295, Note_off_c, 1, 71, 0
1, 23297, Note_on_c, 1, 65, 127
1, 23297, Note_on_c, 1, 49, 127
1, 23479, Note_off_c, 1, 65, 0
1, 23481, Note_on_c, 1, 71, 127
1, 23663, Note_off_c, 1, 49, 0
1, 23663, Note_off_c, 1, 71, 0
1, 23665, Note_on_c, 1, 70, 127
1, 23665, Note_on_c, 1, 42, 127
1, 23847, Note_off_c, 1, 70, 0
1, 23847, Note_off_c, 1, 42, 0
1, 23850, Note_on_c, 1, 66, 127
1, 23850, Note_on_c, 1, 46, 127
1, 24032, Note_off_c, 1, 66, 0
1, 24032, Note_off_c, 1, 46, 0
1, 24035, Note_on_c, 1, 65, 127
1, 24035, Note_on_c, 1, 44, 127
1, 24217, Note_off_c, 1, 65, 0
1, 24217, Note_off_c, 1, 44, 0
1, 24219, Note_on_c, 1, 75, 127
1, 24219, Note_on_c, 1, 47, 127
1, 24401, Note_off_c, 1, 75, 0
1, 24401, Note_off_c, 1, 47, 0
1, 24403, Note_on_c, 1, 73, 127
1, 24403, Note_on_c, 1, 46, 127
1, 24585, Note_off_c, 1, 73, 0
1, 24585, Note_off_c, 1, 46, 0
1, 24587, Note_on_c, 1, 70, 127
1, 24587, Note_on_c, 1, 49, 127
1, 24769, Note_off_c, 1, 70, 0
1, 24769, Note_off_c, 1, 49, 0
1, 24772, Note_on_c, 1, 68, 127
1, 24772, Note_on_c, 1, 47, 127
1, 24954, Note_off_c, 1, 68, 0
1, 24954, Note_off_c, 1, 47, 0
1, 24957, Note_on_c, 1, 78, 127
1, 24957, Note_on_c, 1, 51, 127
1, 25139, Note_off_c, 1, 78, 0
1, 25139, Note_off_c, 1, 51, 0
1, 25141, Note_on_c, 1, 78, 127
1, 25141, Note_on_c, 1, 49, 127
1, 25231, Note_off_c, 1, 78, 0
1, 25233, Note_on_c, 1, 77, 127
1, 25323, Note_off_c, 1, 49, 0
1, 25323, Note_off_c, 1, 77, 0
1, 25325, Note_on_c, 1, 75, 127
1, 25325, Note_on_c, 1, 54, 127
1, 25507, Note_off_c, 1, 75, 0
1, 25507, Note_off_c, 1, 54, 0
1, 25510, Note_on_c, 1, 53, 127
1, 25510, Note_on_c, 1, 73, 127
1, 25692, Note_off_c, 1, 53, 0
1, 25694, Note_on_c, 1, 51, 127
1, 25876, Note_off_c, 1, 51, 0
1, 25878, Note_on_c, 1, 49, 127
1, 26047, Note_off_c, 1, 73, 0
1, 26060, Note_off_c, 1, 49, 0
1, 26063, Note_on_c, 1, 47, 127
1, 26245, Note_off_c, 1, 47, 0
1, 26248, Note_on_c, 1, 46, 127
1, 26430, Note_off_c, 1, 46, 0
1, 26432, Note_on_c, 1, 44, 127
1, 26614, Note_off_c, 1, 44, 0
1, 26616, Note_on_c, 1, 66, 127
1, 26616, Note_on_c, 1, 46, 127
1, 26798, Note_off_c, 1, 66, 0
1, 26800, Note_on_c, 1, 70, 127
1, 26982, Note_off_c, 1, 46, 0
1, 26982, Note_off_c, 1, 70, 0
1, 26985, Note_on_c, 1, 68, 127
1, 26985, Note_on_c, 1, 49, 127
1, 27167, Note_off_c, 1, 68, 0
1, 27169, Note_on_c, 1, 71, 127
1, 27351, Note_off_c, 1, 49, 0
1, 27351, Note_off_c, 1, 71, 0
1, 27354, Note_on_c, 1, 70, 127
1, 27354, Note_on_c, 1, 54, 127
1, 27536, Note_off_c, 1, 70, 0
1, 27538, Note_on_c, 1, 73, 127
1, 27720, Note_off_c, 1, 54, 0
1, 27720, Note_off_c, 1, 73, 0
1, 27723, Note_on_c, 1, 71, 127
1, 27723, Note_on_c, 1, 56, 127
1, 27905, Note_off_c, 1, 71, 0
1, 27907, Note_on_c, 1, 75, 127
1, 28089, Note_off_c, 1, 56, 0
1, 28089, Note_off_c, 1, 75, 0
1, 28091, Note_on_c, 1, 73, 127
1, 28091, Note_on_c, 1, 58, 127
1, 28273, Note_off_c, 1, 73, 0
1, 28275, Note_on_c, 1, 78, 127
1, 28457, Note_off_c, 1, 58, 0
1, 28457, Note_off_c, 1, 78, 0
1, 28460, Note_on_c, 1, 77, 127
1, 28460, Note_on_c, 1, 59, 127
1, 28642, Note_off_c, 1, 77, 0
1, 28645, Note_on_c, 1, 75, 127
1, 28826, Note_off_c, 1, 59, 0
1, 28827, Note_off_c, 1, 75, 0
1, 28829, Note_on_c, 1, 73, 127
1, 28829, Note_on_c, 1, 61, 127
1, 29011, Note_off_c, 1, 73, 0
1, 29013, Note_on_c, 1, 71, 127
1, 29195, Note_off_c, 1, 71, 0
1, 29197, Note_on_c, 1, 70, 127
1, 29197, Note_on_c, 1, 49, 127
1, 29289, Note_off_c, 1, 61, 0
1, 29379, Note_off_c, 1, 70, 0
1, 29382, Note_on_c, 1, 68, 127
1, 29563, Note_off_c, 1, 49, 0
1, 29564, Note_off_c, 1, 68, 0
1, 29566, Note_on_c, 1, 70, 127
1, 29566, Note_on_c, 1, 54, 127
1, 29748, Note_off_c, 1, 70, 0
1, 29751, Note_on_c, 1, 73, 127
1, 29932, Note_off_c, 1, 54, 0
1, 29933, Note_off_c, 1, 73, 0
1, 29935, Note_on_c, 1, 72, 127
1, 29935, Note_on_c, 1, 51, 127
1, 30117, Note_off_c, 1, 72, 0
1, 30120, Note_on_c, 1, 75, 127
1, 30301, Note_off_c, 1, 51, 0
1, 30302, Note_off_c, 1, 75, 0
1, 30304, Note_on_c, 1, 73, 127
1, 30304, Note_on_c, 1, 53, 127
1, 30486, Note_off_c, 1, 73, 0
1, 30488, Note_on_c, 1, 77, 127
1, 30670, Note_off_c, 1, 53, 0
1, 30670, Note_off_c, 1, 77, 0
1, 30672, Note_on_c, 1, 75, 127
1, 30672, Note_on_c, 1, 48, 127
1, 30854, Note_off_c, 1, 75, 0
1, 30858, Note_on_c, 1, 78, 127
1, 31038, Note_off_c, 1, 48, 0
1, 31040, Note_off_c, 1, 78, 0
1, 31042, Note_on_c, 1, 77, 127
1, 31042, Note_on_c, 1, 49, 127
1, 31224, Note_off_c, 1, 77, 0
1, 31226, Note_on_c, 1, 82, 127
1, 31408, Note_off_c, 1, 49, 0
1, 31408, Note_off_c, 1, 82, 0
1, 31410, Note_on_c, 1, 81, 127
1, 31410, Note_on_c, 1, 51, 127
1, 31592, Note_off_c, 1, 81, 0
1, 31595, Note_on_c, 1, 79, 127
1, 31776, Note_off_c, 1, 51, 0
1, 31777, Note_off_c, 1, 79, 0
1, 31779, Note_on_c, 1, 77, 127
1, 31779, Note_on_c, 1, 53, 127
1, 31961, Note_off_c, 1, 77, 0
1, 31964, Note_on_c, 1, 75, 127
1, 32146, Note_off_c, 1, 75, 0
1, 32148, Note_on_c, 1, 73, 127
1, 32148, Note_on_c, 1, 41, 127
1, 32239, Note_off_c, 1, 53, 0
1, 32330, Note_off_c, 1, 73, 0
1, 32333, Note_on_c, 1, 72, 127
1, 32514, Note_off_c, 1, 41, 0
1, 32515, Note_off_c, 1, 72, 0
1, 32517, Note_on_c, 1, 46, 127
1, 32517, Note_on_c, 1, 73, 127
1, 32699, Note_off_c, 1, 46, 0
1, 32701, Note_on_c, 1, 49, 127
1, 32883, Note_off_c, 1, 73, 0
1, 32883, Note_off_c, 1, 49, 0
1, 32885, Note_on_c, 1, 48, 127
1, 32885, Note_on_c, 1, 69, 127
1, 33067, Note_off_c, 1, 48, 0
1, 33069, Note_on_c, 1, 51, 127
1, 33251, Note_off_c, 1, 69, 0
1, 33251, Note_off_c, 1, 51, 0
1, 33255, Note_on_c, 1, 49, 127
1, 33255, Note_on_c, 1, 70, 127
1, 33437, Note_off_c, 1, 49, 0
1, 33439, Note_on_c, 1, 53, 127
1, 33621, Note_off_c, 1, 70, 0
1, 33621, Note_off_c, 1, 53, 0
1, 33623, Note_on_c, 1, 51, 127
1, 33623, Note_on_c, 1, 78, 127
1, 33805, Note_off_c, 1, 51, 0
1, 33807, Note_on_c, 1, 54, 127
1, 33989, Note_off_c, 1, 78, 0
1, 33989, Note_off_c, 1, 54, 0
1, 33992, Note_on_c, 1, 69, 127
1, 33992, Note_on_c, 1, 53, 127
1, 34082, Note_off_c, 1, 69, 0
1, 34084, Note_on_c, 1, 67, 127
1, 34174, Note_off_c, 1, 53, 0
1, 34174, Note_off_c, 1, 67, 0
1, 34176, Note_on_c, 1, 65, 127
1, 34176, Note_on_c, 1, 58, 127
1, 34358, Note_off_c, 1, 65, 0
1, 34358, Note_off_c, 1, 58, 0
1, 34361, Note_on_c, 1, 57, 127
1, 34361, Note_on_c, 1, 75, 127
1, 34543, Note_off_c, 1, 57, 0
1, 34545, Note_on_c, 1, 55, 127
1, 34725, Note_off_c, 1, 75, 0
1, 34727, Note_off_c, 1, 55, 0
1, 34730, Note_on_c, 1, 53, 127
1, 34912, Note_off_c, 1, 53, 0
1, 34914, Note_on_c, 1, 69, 127
1, 34914, Note_on_c, 1, 51, 127
1, 35096, Note_off_c, 1, 69, 0
1, 35096, Note_off_c, 1, 51, 0
1, 35098, Note_on_c, 1, 70, 127
1, 35098, Note_on_c, 1, 49, 127
1, 35280, Note_off_c, 1, 70, 0
1, 35280, Note_off_c, 1, 49, 0
1, 35282, Note_on_c, 1, 72, 127
1, 35282, Note_on_c, 1, 48, 127
1, 35464, Note_off_c, 1, 72, 0
1, 35464, Note_off_c, 1, 48, 0
1, 35467, Note_on_c, 1, 65, 127
1, 35467, Note_on_c, 1, 49, 127
1, 35649, Note_off_c, 1, 65, 0
1, 35649, Note_off_c, 1, 49, 0
1, 35652, Note_on_c, 1, 73, 127
1, 35652, Note_on_c, 1, 53, 127
1, 35834, Note_off_c, 1, 73, 0
1, 35834, Note_off_c, 1, 53, 0
1, 35836, Note_on_c, 1, 72, 127
1, 35836, Note_on_c, 1, 51, 127
1, 36018, Note_off_c, 1, 72, 0
1, 36018, Note_off_c, 1, 51, 0
1, 36020, Note_on_c, 1, 75, 127
1, 36020, Note_on_c, 1, 54, 127
1, 36202, Note_off_c, 1, 75, 0
1, 36202, Note_off_c, 1, 54, 0
1, 36205, Note_on_c, 1, 73, 127
1, 36205, Note_on_c, 1, 53, 127
1, 36387, Note_off_c, 1, 73, 0
1, 36387, Note_off_c, 1, 53, 0
1, 36389, Note_on_c, 1, 72, 127
1, 36389, Note_on_c, 1, 51, 127
1, 36571, Note_off_c, 1, 72, 0
1, 36571, Note_off_c, 1, 51, 0
1, 36573, Note_on_c, 1, 70, 127
1, 36573, Note_on_c, 1, 49, 127
1, 36755, Note_off_c, 1, 70, 0
1, 36755, Note_off_c, 1, 49, 0
1, 36758, Note_on_c, 1, 69, 127
1, 36758, Note_on_c, 1, 48, 127
1, 36901, Note_off_c, 1, 69, 0
1, 36940, Note_off_c, 1, 48, 0
1, 36943, Note_on_c, 1, 73, 127
1, 36943, Note_on_c, 1, 46, 127
1, 37125, Note_off_c, 1, 73, 0
1, 37125, Note_off_c, 1, 46, 0
1, 37127, Note_on_c, 1, 70, 127
1, 37127, Note_on_c, 1, 49, 127
1, 37309, Note_off_c, 1, 70, 0
1, 37309, Note_off_c, 1, 49, 0
1, 37311, Note_on_c, 1, 69, 127
1, 37311, Note_on_c, 1, 48, 127
1, 37493, Note_off_c, 1, 69, 0
1, 37493, Note_off_c, 1, 48, 0
1, 37495, Note_on_c, 1, 72, 127
1, 37495, Note_on_c, 1, 51, 127
1, 37677, Note_off_c, 1, 72, 0
1, 37677, Note_off_c, 1, 51, 0
1, 37679, Note_on_c, 1, 70, 127
1, 37679, Note_on_c, 1, 49, 127
1, 37861, Note_off_c, 1, 70, 0
1, 37861, Note_off_c, 1, 49, 0
1, 37864, Note_on_c, 1, 68, 127
1, 37864, Note_on_c, 1, 48, 127
1, 38046, Note_off_c, 1, 68, 0
1, 38046, Note_off_c, 1, 48, 0
1, 38049, Note_on_c, 1, 66, 127
1, 38049, Note_on_c, 1, 46, 127
1, 38231, Note_off_c, 1, 66, 0
1, 38231, Note_off_c, 1, 46, 0
1, 38233, Note_on_c, 1, 65, 127
1, 38233, Note_on_c, 1, 44, 127
1, 38415, Note_off_c, 1, 65, 0
1, 38415, Note_off_c, 1, 44, 0
1, 38417, Note_on_c, 1, 63, 127
1, 38417, Note_on_c, 1, 43, 127
1, 38599, Note_off_c, 1, 63, 0
1, 38599, Note_off_c, 1, 43, 0
1, 38602, Note_on_c, 1, 73, 127
1, 38602, Note_on_c, 1, 46, 127
1, 38784, Note_off_c, 1, 73, 0
1, 38784, Note_off_c, 1, 46, 0
1, 38786, Note_on_c, 1, 72, 127
1, 38786, Note_on_c, 1, 45, 127
1, 38968, Note_off_c, 1, 72, 0
1, 38968, Note_off_c, 1, 45, 0
1, 38970, Note_on_c, 1, 75, 127
1, 38970, Note_on_c, 1, 48, 127
1, 39152, Note_off_c, 1, 75, 0
1, 39152, Note_off_c, 1, 48, 0
1, 39155, Note_on_c, 1, 73, 127
1, 39155, Note_on_c, 1, 46, 127
1, 39337, Note_off_c, 1, 73, 0
1, 39337, Note_off_c, 1, 46, 0
1, 39340, Note_on_c, 1, 72, 127
1, 39340, Note_on_c, 1, 44, 127
1, 39522, Note_off_c, 1, 72, 0
1, 39522, Note_off_c, 1, 44, 0
1, 39524, Note_on_c, 1, 70, 127
1, 39524, Note_on_c, 1, 42, 127
1, 39706, Note_off_c, 1, 70, 0
1, 39706, Note_off_c, 1, 42, 0
1, 39708, Note_on_c, 1, 69, 127
1, 39708, Note_on_c, 1, 41, 127
1, 39851, Note_off_c, 1, 69, 0
1, 39890, Note_off_c, 1, 41, 0
1, 39892, Note_on_c, 1, 79, 127
1, 39892, Note_on_c, 1, 40, 127
1, 40074, Note_off_c, 1, 79, 0
1, 40077, Note_on_c, 1, 73, 127
1, 40258, Note_off_c, 1, 40, 0
1, 40259, Note_off_c, 1, 73, 0
1, 40262, Note_on_c, 1, 72, 127
1, 40262, Note_on_c, 1, 52, 127
1, 40444, Note_off_c, 1, 72, 0
1, 40446, Note_on_c, 1, 70, 127
1, 40626, Note_off_c, 1, 52, 0
1, 40628, Note_off_c, 1, 70, 0
1, 40630, Note_on_c, 1, 82, 127
1, 40720, Note_off_c, 1, 82, 0
1, 40722, Note_on_c, 1, 81, 127
1, 40812, Note_off_c, 1, 81, 0
1, 40815, Note_on_c, 1, 82, 127
1, 40815, Note_on_c, 1, 54, 127
1, 40905, Note_off_c, 1, 82, 0
1, 40907, Note_on_c, 1, 81, 127
1, 40997, Note_off_c, 1, 54, 0
1, 40997, Note_off_c, 1, 81, 0
1, 40999, Note_on_c, 1, 82, 127
1, 40999, Note_on_c, 1, 53, 127
1, 41089, Note_off_c, 1, 82, 0
1, 41091, Note_on_c, 1, 81, 127
1, 41181, Note_off_c, 1, 53, 0
1, 41181, Note_off_c, 1, 81, 0
1, 41183, Note_on_c, 1, 79, 127
1, 41183, Note_on_c, 1, 51, 127
1, 41273, Note_off_c, 1, 79, 0
1, 41275, Note_on_c, 1, 81, 127
1, 41365, Note_off_c, 1, 51, 0
1, 41365, Note_off_c, 1, 81, 0
1, 41367, Note_on_c, 1, 82, 127
1, 41367, Note_on_c, 1, 49, 127
1, 41549, Note_off_c, 1, 82, 0
1, 41549, Note_off_c, 1, 49, 0
1, 41553, Note_on_c, 1, 80, 127
1, 41553, Note_on_c, 1, 48, 127
1, 41643, Note_off_c, 1, 80, 0
1, 41645, Note_on_c, 1, 78, 127
1, 41735, Note_off_c, 1, 48, 0
1, 41735, Note_off_c, 1, 78, 0
1, 41737, Note_on_c, 1, 77, 127
1, 41737, Note_on_c, 1, 49, 127
1, 41919, Note_off_c, 1, 77, 0
1, 41919, Note_off_c, 1, 49, 0
1, 41921, Note_on_c, 1, 75, 127
1, 41921, Note_on_c, 1, 51, 127
1, 42103, Note_off_c, 1, 75, 0
1, 42103, Note_off_c, 1, 51, 0
1, 42105, Note_on_c, 1, 53, 127
1, 42105, Note_on_c, 1, 73, 127
1, 42287, Note_off_c, 1, 53, 0
1, 42289, Note_on_c, 1, 82, 127
1, 42289, Note_on_c, 1, 54, 127
1, 42315, Note_off_c, 1, 73, 0
1, 42471, Note_off_c, 1, 82, 0
1, 42471, Note_off_c, 1, 54, 0
1, 42474, Note_on_c, 1, 51, 127
1, 42474, Note_on_c, 1, 72, 127
1, 42656, Note_off_c, 1, 51, 0
1, 42659, Note_on_c, 1, 81, 127
1, 42659, Note_on_c, 1, 53, 127
1, 42684, Note_off_c, 1, 72, 0
1, 42841, Note_off_c, 1, 81, 0
1, 42841, Note_off_c, 1, 53, 0
1, 42843, Note_on_c, 1, 82, 127
1, 42843, Note_on_c, 1, 54, 127
1, 43025, Note_off_c, 1, 82, 0
1, 43027, Note_on_c, 1, 70, 127
1, 43209, Note_off_c, 1, 54, 0
1, 43209, Note_off_c, 1, 70, 0
1, 43212, Note_on_c, 1, 75, 127
1, 43212, Note_on_c, 1, 42, 127
1, 43302, Note_off_c, 1, 75, 0
1, 43304, Note_on_c, 1, 73, 127
1, 43394, Note_off_c, 1, 73, 0
1, 43396, Note_on_c, 1, 72, 127
1, 43578, Note_off_c, 1, 42, 0
1, 43578, Note_off_c, 1, 72, 0
1, 43580, Note_on_c, 1, 73, 127
1, 43580, Note_on_c, 1, 41, 127
1, 43762, Note_off_c, 1, 73, 0
1, 43764, Note_on_c, 1, 72, 127
1, 43854, Note_off_c, 1, 72, 0
1, 43858, Note_on_c, 1, 70, 127
1, 43946, Note_off_c, 1, 41, 0
1, 43948, Note_off_c, 1, 70, 0
1, 43950, Note_on_c, 1, 69, 127
1, 43950, Note_on_c, 1, 39, 127
1, 44040, Note_off_c, 1, 69, 0
1, 44042, Note_on_c, 1, 70, 127
1, 44132, Note_off_c, 1, 70, 0
1, 44134, Note_on_c, 1, 72, 127
1, 44316, Note_off_c, 1, 39, 0
1, 44316, Note_off_c, 1, 72, 0
1, 44318, Note_on_c, 1, 65, 127
1, 44318, Note_on_c, 1, 37, 127
1, 44410, Note_off_c, 1, 65, 0
1, 44412, Note_on_c, 1, 70, 127
1, 44504, Note_off_c, 1, 70, 0
1, 44506, Note_on_c, 1, 68, 127
1, 44598, Note_off_c, 1, 68, 0
1, 44600, Note_on_c, 1, 66, 127
1, 44692, Note_off_c, 1, 37, 0
1, 44692, Note_off_c, 1, 66, 0
1, 44694, Note_on_c, 1, 65, 127
1, 44694, Note_on_c, 1, 49, 127
1, 44880, Note_off_c, 1, 65, 0
1, 44880, Note_off_c, 1, 49, 0
1, 44882, Note_on_c, 1, 63, 127
1, 44882, Note_on_c, 1, 51, 127
1, 45068, Note_off_c, 1, 63, 0
1, 45068, Note_off_c, 1, 51, 0
1, 45071, Note_on_c, 1, 61, 127
1, 45071, Note_on_c, 1, 53, 127
1, 45257, Note_off_c, 1, 61, 0
1, 45260, Note_on_c, 1, 60, 127
1, 45352, Note_off_c, 1, 60, 0
1, 45445, Note_off_c, 1, 53, 0
1, 45448, Note_on_c, 1, 63, 127
1, 45448, Note_on_c, 1, 41, 127
1, 45540, Note_off_c, 1, 63, 0
1, 45542, Note_on_c, 1, 61, 127
1, 45634, Note_off_c, 1, 61, 0
1, 45636, Note_on_c, 1, 60, 127
1, 45822, Note_off_c, 1, 41, 0
1, 45822, Note_off_c, 1, 60, 0
1, 45824, Note_on_c, 1, 58, 127
1, 45824, Note_on_c, 1, 46, 127
1, 46014, Note_off_c, 1, 58, 0
1, 46016, Note_on_c, 1, 61, 127
1, 46206, Note_off_c, 1, 61, 0
1, 46208, Note_on_c, 1, 65, 127
1, 46398, Note_off_c, 1, 65, 0
1, 46400, Note_on_c, 1, 69, 127
1, 46590, Note_off_c, 1, 69, 0
1, 46976, Note_on_c, 1, 70, 127
1, 47358, Note_off_c, 1, 46, 0
1, 47358, Note_off_c, 1, 70, 0
1, 47361, Note_on_c, 1, 80, 127
1, 47361, Note_on_c, 1, 46, 127
1, 47543, Note_off_c, 1, 80, 0
1, 47543, Note_off_c, 1, 46, 0
1, 47545, Note_on_c, 1, 77, 127
1, 47545, Note_on_c, 1, 50, 127
1, 47635, Note_off_c, 1, 77, 0
1, 47637, Note_on_c, 1, 74, 127
1, 47727, Note_off_c, 1, 50, 0
1, 47727, Note_off_c, 1, 74, 0
1, 47730, Note_on_c, 1, 48, 127
1, 47730, Note_on_c, 1, 70, 127
1, 47912, Note_off_c, 1, 48, 0
1, 47914, Note_on_c, 1, 51, 127
1, 48096, Note_off_c, 1, 51, 0
1, 48098, Note_on_c, 1, 50, 127
1, 48171, Note_off_c, 1, 70, 0
1, 48280, Note_off_c, 1, 50, 0
1, 48282, Note_on_c, 1, 74, 127
1, 48282, Note_on_c, 1, 53, 127
1, 48372, Note_off_c, 1, 74, 0
1, 48374, Note_on_c, 1, 77, 127
1, 48464, Note_off_c, 1, 53, 0
1, 48464, Note_off_c, 1, 77, 0
1, 48467, Note_on_c, 1, 78, 127
1, 48467, Note_on_c, 1, 51, 127
1, 48557, Note_off_c, 1, 78, 0
1, 48560, Note_on_c, 1, 77, 127
1, 48649, Note_off_c, 1, 51, 0
1, 48650, Note_off_c, 1, 77, 0
1, 48652, Note_on_c, 1, 75, 127
1, 48652, Note_on_c, 1, 54, 127
1, 48834, Note_off_c, 1, 75, 0
1, 48834, Note_off_c, 1, 54, 0
1, 48836, Note_on_c, 1, 74, 127
1, 48836, Note_on_c, 1, 53, 127
1, 49018, Note_off_c, 1, 74, 0
1, 49018, Note_off_c, 1, 53, 0
1, 49020, Note_on_c, 1, 77, 127
1, 49020, Note_on_c, 1, 56, 127
1, 49110, Note_off_c, 1, 77, 0
1, 49112, Note_on_c, 1, 80, 127
1, 49202, Note_off_c, 1, 56, 0
1, 49202, Note_off_c, 1, 80, 0
1, 49204, Note_on_c, 1, 54, 127
1, 49204, Note_on_c, 1, 83, 127
1, 49386, Note_off_c, 1, 54, 0
1, 49389, Note_on_c, 1, 53, 127
1, 49571, Note_off_c, 1, 53, 0
1, 49573, Note_on_c, 1, 51, 127
1, 49645, Note_off_c, 1, 83, 0
1, 49755, Note_off_c, 1, 51, 0
1, 49758, Note_on_c, 1, 77, 127
1, 49758, Note_on_c, 1, 50, 127
1, 49848, Note_off_c, 1, 77, 0
1, 49850, Note_on_c, 1, 75, 127
1, 49940, Note_off_c, 1, 50, 0
1, 49940, Note_off_c, 1, 75, 0
1, 49942, Note_on_c, 1, 77, 127
1, 49942, Note_on_c, 1, 48, 127
1, 50032, Note_off_c, 1, 77, 0
1, 50035, Note_on_c, 1, 78, 127
1, 50124, Note_off_c, 1, 48, 0
1, 50125, Note_off_c, 1, 78, 0
1, 50127, Note_on_c, 1, 80, 127
1, 50127, Note_on_c, 1, 46, 127
1, 50280, Note_off_c, 1, 80, 0
1, 50309, Note_off_c, 1, 46, 0
1, 50311, Note_on_c, 1, 78, 127
1, 50311, Note_on_c, 1, 51, 127
1, 50493, Note_off_c, 1, 78, 0
1, 50495, Note_on_c, 1, 77, 127
1, 50677, Note_off_c, 1, 51, 0
1, 50677, Note_off_c, 1, 77, 0
1, 50679, Note_on_c, 1, 75, 127
1, 50679, Note_on_c, 1, 54, 127
1, 50861, Note_off_c, 1, 75, 0
1, 50864, Note_on_c, 1, 74, 127
1, 51045, Note_off_c, 1, 54, 0
1, 51046, Note_off_c, 1, 74, 0
1, 51049, Note_on_c, 1, 75, 127
1, 51049, Note_on_c, 1, 60, 127
1, 51231, Note_off_c, 1, 75, 0
1, 51233, Note_on_c, 1, 78, 127
1, 51415, Note_off_c, 1, 60, 0
1, 51415, Note_off_c, 1, 78, 0
1, 51417, Note_on_c, 1, 68, 127
1, 51417, Note_on_c, 1, 53, 127
1, 51599, Note_off_c, 1, 68, 0
1, 51602, Note_on_c, 1, 78, 127
1, 51783, Note_off_c, 1, 53, 0
1, 51784, Note_off_c, 1, 78, 0
1, 51786, Note_on_c, 1, 75, 127
1, 51786, Note_on_c, 1, 54, 127
1, 51968, Note_off_c, 1, 75, 0
1, 51970, Note_on_c, 1, 78, 127
1, 52152, Note_off_c, 1, 54, 0
1, 52152, Note_off_c, 1, 78, 0
1, 52155, Note_on_c, 1, 70, 127
1, 52155, Note_on_c, 1, 63, 127
1, 52337, Note_off_c, 1, 70, 0
1, 52340, Note_on_c, 1, 78, 127
1, 52521, Note_off_c, 1, 63, 0
1, 52522, Note_off_c, 1, 78, 0
1, 52524, Note_on_c, 1, 75, 127
1, 52524, Note_on_c, 1, 60, 127
1, 52706, Note_off_c, 1, 75, 0
1, 52708, Note_on_c, 1, 78, 127
1, 52890, Note_off_c, 1, 60, 0
1, 52890, Note_off_c, 1, 78, 0
1, 52892, Note_on_c, 1, 72, 127
1, 52892, Note_on_c, 1, 56, 127
1, 53074, Note_off_c, 1, 72, 0
1, 53077, Note_on_c, 1, 78, 127
1, 53230, Note_off_c, 1, 78, 0
1, 53246, Note_off_c, 1, 56, 0
1, 53262, Note_on_c, 1, 73, 127
1, 53262, Note_on_c, 1, 59, 127
1, 53444, Note_off_c, 1, 73, 0
1, 53444, Note_off_c, 1, 59, 0
1, 53446, Note_on_c, 1, 56, 127
1, 53446, Note_on_c, 1, 77, 127
1, 53536, Note_off_c, 1, 56, 0
1, 53538, Note_on_c, 1, 53, 127
1, 53628, Note_off_c, 1, 77, 0
1, 53628, Note_off_c, 1, 53, 0
1, 53630, Note_on_c, 1, 75, 127
1, 53630, Note_on_c, 1, 49, 127
1, 53812, Note_off_c, 1, 75, 0
1, 53814, Note_on_c, 1, 78, 127
1, 53996, Note_off_c, 1, 78, 0
1, 53999, Note_on_c, 1, 77, 127
1, 54180, Note_off_c, 1, 49, 0
1, 54181, Note_off_c, 1, 77, 0
1, 54183, Note_on_c, 1, 53, 127
1, 54183, Note_on_c, 1, 80, 127
1, 54273, Note_off_c, 1, 53, 0
1, 54275, Note_on_c, 1, 56, 127
1, 54365, Note_off_c, 1, 80, 0
1, 54365, Note_off_c, 1, 56, 0
1, 54367, Note_on_c, 1, 58, 127
1, 54367, Note_on_c, 1, 78, 127
1, 54457, Note_off_c, 1, 58, 0
1, 54460, Note_on_c, 1, 56, 127
1, 54549, Note_off_c, 1, 78, 0
1, 54550, Note_off_c, 1, 56, 0
1, 54552, Note_on_c, 1, 82, 127
1, 54552, Note_on_c, 1, 54, 127
1, 54734, Note_off_c, 1, 82, 0
1, 54734, Note_off_c, 1, 54, 0
1, 54737, Note_on_c, 1, 80, 127
1, 54737, Note_on_c, 1, 53, 127
1, 54919, Note_off_c, 1, 80, 0
1, 54919, Note_off_c, 1, 53, 0
1, 54921, Note_on_c, 1, 56, 127
1, 54921, Note_on_c, 1, 83, 127
1, 55011, Note_off_c, 1, 56, 0
1, 55013, Note_on_c, 1, 59, 127
1, 55103, Note_off_c, 1, 83, 0
1, 55103, Note_off_c, 1, 59, 0
1, 55105, Note_on_c, 1, 82, 127
1, 55105, Note_on_c, 1, 63, 127
1, 55287, Note_off_c, 1, 82, 0
1, 55289, Note_on_c, 1, 80, 127
1, 55471, Note_off_c, 1, 80, 0
1, 55474, Note_on_c, 1, 78, 127
1, 55655, Note_off_c, 1, 63, 0
1, 55656, Note_off_c, 1, 78, 0
1, 55659, Note_on_c, 1, 56, 127
1, 55659, Note_on_c, 1, 77, 127
1, 55749, Note_off_c, 1, 56, 0
1, 55751, Note_on_c, 1, 54, 127
1, 55841, Note_off_c, 1, 77, 0
1, 55841, Note_off_c, 1, 54, 0
1, 55843, Note_on_c, 1, 56, 127
1, 55843, Note_on_c, 1, 75, 127
1, 55933, Note_off_c, 1, 56, 0
1, 55935, Note_on_c, 1, 58, 127
1, 56025, Note_off_c, 1, 75, 0
1, 56025, Note_off_c, 1, 58, 0
1, 56027, Note_on_c, 1, 73, 127
1, 56027, Note_on_c, 1, 59, 127
1, 56209, Note_off_c, 1, 73, 0
1, 56209, Note_off_c, 1, 59, 0
1, 56212, Note_on_c, 1, 78, 127
1, 56212, Note_on_c, 1, 58, 127
1, 56394, Note_off_c, 1, 78, 0
1, 56394, Note_off_c, 1, 58, 0
1, 56396, Note_on_c, 1, 71, 127
1, 56396, Note_on_c, 1, 56, 127
1, 56578, Note_off_c, 1, 71, 0
1, 56578, Note_off_c, 1, 56, 0
1, 56580, Note_on_c, 1, 70, 127
1, 56580, Note_on_c, 1, 54, 127
1, 56762, Note_off_c, 1, 70, 0
1, 56762, Note_off_c, 1, 54, 0
1, 56764, Note_on_c, 1, 68, 127
1, 56764, Note_on_c, 1, 53, 127
1, 56946, Note_off_c, 1, 68, 0
1, 56946, Note_off_c, 1, 53, 0
1, 56950, Note_on_c, 1, 70, 127
1, 56950, Note_on_c, 1, 54, 127
1, 57132, Note_off_c, 1, 70, 0
1, 57132, Note_off_c, 1, 54, 0
1, 57134, Note_on_c, 1, 58, 127
1, 57134, Note_on_c, 1, 76, 127
1, 57316, Note_off_c, 1, 58, 0
1, 57318, Note_on_c, 1, 47, 127
1, 57500, Note_off_c, 1, 76, 0
1, 57500, Note_off_c, 1, 47, 0
1, 57502, Note_on_c, 1, 75, 127
1, 57502, Note_on_c, 1, 58, 127
1, 57684, Note_off_c, 1, 75, 0
1, 57684, Note_off_c, 1, 58, 0
1, 57687, Note_on_c, 1, 73, 127
1, 57687, Note_on_c, 1, 54, 127
1, 57869, Note_off_c, 1, 73, 0
1, 57869, Note_off_c, 1, 54, 0
1, 57871, Note_on_c, 1, 58, 127
1, 57871, Note_on_c, 1, 78, 127
1, 58053, Note_off_c, 1, 58, 0
1, 58056, Note_on_c, 1, 49, 127
1, 58237, Note_off_c, 1, 78, 0
1, 58238, Note_off_c, 1, 49, 0
1, 58240, Note_on_c, 1, 76, 127
1, 58240, Note_on_c, 1, 58, 127
1, 58422, Note_off_c, 1, 76, 0
1, 58422, Note_off_c, 1, 58, 0
1, 58424, Note_on_c, 1, 75, 127
1, 58424, Note_on_c, 1, 54, 127
1, 58606, Note_off_c, 1, 75, 0
1, 58606, Note_off_c, 1, 54, 0
1, 58609, Note_on_c, 1, 78, 127
1, 58609, Note_on_c, 1, 58, 127
1, 58791, Note_off_c, 1, 78, 0
1, 58791, Note_off_c, 1, 58, 0
1, 58793, Note_on_c, 1, 83, 127
1, 58793, Note_on_c, 1, 51, 127
1, 58975, Note_off_c, 1, 83, 0
1, 58975, Note_off_c, 1, 51, 0
1, 58977, Note_on_c, 1, 79, 127
1, 58977, Note_on_c, 1, 58, 127
1, 59159, Note_off_c, 1, 79, 0
1, 59159, Note_off_c, 1, 58, 0
1, 59162, Note_on_c, 1, 80, 127
1, 59162, Note_on_c, 1, 52, 127
1, 59344, Note_off_c, 1, 80, 0
1, 59344, Note_off_c, 1, 52, 0
1, 59347, Note_on_c, 1, 76, 127
1, 59347, Note_on_c, 1, 56, 127
1, 59529, Note_off_c, 1, 76, 0
1, 59529, Note_off_c, 1, 56, 0
1, 59531, Note_on_c, 1, 75, 127
1, 59531, Note_on_c, 1, 54, 127
1, 59713, Note_off_c, 1, 75, 0
1, 59713, Note_off_c, 1, 54, 0
1, 59715, Note_on_c, 1, 78, 127
1, 59715, Note_on_c, 1, 57, 127
1, 59897, Note_off_c, 1, 78, 0
1, 59897, Note_off_c, 1, 57, 0
1, 59899, Note_on_c, 1, 76, 127
1, 59899, Note_on_c, 1, 56, 127
1, 60081, Note_off_c, 1, 76, 0
1, 60081, Note_off_c, 1, 56, 0
1, 60084, Note_on_c, 1, 75, 127
1, 60084, Note_on_c, 1, 54, 127
1, 60266, Note_off_c, 1, 75, 0
1, 60266, Note_off_c, 1, 54, 0
1, 60268, Note_on_c, 1, 73, 127
1, 60268, Note_on_c, 1, 52, 127
1, 60450, Note_off_c, 1, 73, 0
1, 60450, Note_off_c, 1, 52, 0
1, 60453, Note_on_c, 1, 72, 127
1, 60453, Note_on_c, 1, 51, 127
1, 60615, Note_off_c, 1, 72, 0
1, 60635, Note_off_c, 1, 51, 0
1, 60637, Note_on_c, 1, 76, 127
1, 60637, Note_on_c, 1, 49, 127
1, 60819, Note_off_c, 1, 76, 0
1, 60822, Note_on_c, 1, 73, 127
1, 60989, Note_off_c, 1, 49, 0
1, 61004, Note_off_c, 1, 73, 0
1, 61006, Note_on_c, 1, 71, 127
1, 61006, Note_on_c, 1, 52, 127
1, 61188, Note_off_c, 1, 71, 0
1, 61190, Note_on_c, 1, 75, 127
1, 61358, Note_off_c, 1, 52, 0
1, 61372, Note_off_c, 1, 75, 0
1, 61374, Note_on_c, 1, 58, 127
1, 61374, Note_on_c, 1, 73, 127
1, 61464, Note_off_c, 1, 58, 0
1, 61466, Note_on_c, 1, 56, 127
1, 61556, Note_off_c, 1, 73, 0
1, 61556, Note_off_c, 1, 56, 0
1, 61560, Note_on_c, 1, 71, 127
1, 61560, Note_on_c, 1, 58, 127
1, 61742, Note_off_c, 1, 71, 0
1, 61744, Note_on_c, 1, 70, 127
1, 61926, Note_off_c, 1, 70, 0
1, 61928, Note_on_c, 1, 68, 127
1, 62110, Note_off_c, 1, 68, 0
1, 62112, Note_on_c, 1, 67, 127
1, 62295, Note_off_c, 1, 58, 0
1, 62297, Note_on_c, 1, 55, 127
1, 62418, Note_off_c, 1, 67, 0
1, 62479, Note_off_c, 1, 55, 0
1, 62481, Note_on_c, 1, 56, 127
1, 62481, Note_on_c, 1, 70, 127
1, 62663, Note_off_c, 1, 56, 0
1, 62665, Note_on_c, 1, 53, 127
1, 62787, Note_off_c, 1, 70, 0
1, 62847, Note_off_c, 1, 53, 0
1, 62850, Note_on_c, 1, 75, 127
1, 62850, Note_on_c, 1, 55, 127
1, 62940, Note_off_c, 1, 75, 0
1, 62942, Note_on_c, 1, 73, 127
1, 63032, Note_off_c, 1, 55, 0
1, 63032, Note_off_c, 1, 73, 0
1, 63034, Note_on_c, 1, 58, 127
1, 63034, Note_on_c, 1, 75, 127
1, 63216, Note_off_c, 1, 58, 0
1, 63219, Note_on_c, 1, 51, 127
1, 63401, Note_off_c, 1, 51, 0
1, 63403, Note_on_c, 1, 49, 127
1, 63585, Note_off_c, 1, 49, 0
1, 63587, Note_on_c, 1, 47, 127
1, 63769, Note_off_c, 1, 75, 0
1, 63771, Note_on_c, 1, 71, 127
1, 63939, Note_off_c, 1, 47, 0
1, 63953, Note_off_c, 1, 71, 0
1, 63957, Note_on_c, 1, 73, 127
1, 63957, Note_on_c, 1, 51, 127
1, 64139, Note_off_c, 1, 73, 0
1, 64141, Note_on_c, 1, 70, 127
1, 64309, Note_off_c, 1, 51, 0
1, 64323, Note_off_c, 1, 70, 0
1, 64325, Note_on_c, 1, 56, 127
1, 64325, Note_on_c, 1, 71, 127
1, 64415, Note_off_c, 1, 56, 0
1, 64417, Note_on_c, 1, 55, 127
1, 64507, Note_off_c, 1, 71, 0
1, 64507, Note_off_c, 1, 55, 0
1, 64509, Note_on_c, 1, 75, 127
1, 64509, Note_on_c, 1, 56, 127
1, 64691, Note_off_c, 1, 75, 0
1, 64694, Note_on_c, 1, 68, 127
1, 64876, Note_off_c, 1, 68, 0
1, 64878, Note_on_c, 1, 66, 127
1, 65060, Note_off_c, 1, 66, 0
1, 65063, Note_on_c, 1, 64, 127
1, 65244, Note_off_c, 1, 56, 0
1, 65247, Note_on_c, 1, 54, 127
1, 65369, Note_off_c, 1, 64, 0
1, 65429, Note_off_c, 1, 54, 0
1, 65432, Note_on_c, 1, 52, 127
1, 65432, Note_on_c, 1, 68, 127
1, 65614, Note_off_c, 1, 52, 0
1, 65616, Note_on_c, 1, 51, 127
1, 65738, Note_off_c, 1, 68, 0
1, 65798, Note_off_c, 1, 51, 0
1, 65800, Note_on_c, 1, 73, 127
1, 65800, Note_on_c, 1, 52, 127
1, 65890, Note_off_c, 1, 73, 0
1, 65892, Note_on_c, 1, 71, 127
1, 65982, Note_off_c, 1, 52, 0
1, 65982, Note_off_c, 1, 71, 0
1, 65984, Note_on_c, 1, 56, 127
1, 65984, Note_on_c, 1, 73, 127
1, 66166, Note_off_c, 1, 56, 0
1, 66169, Note_on_c, 1, 49, 127
1, 66351, Note_off_c, 1, 49, 0
1, 66354, Note_on_c, 1, 47, 127
1, 66536, Note_off_c, 1, 47, 0
1, 66538, Note_on_c, 1, 46, 127
1, 66719, Note_off_c, 1, 73, 0
1, 66720, Note_off_c, 1, 46, 0
1, 66722, Note_on_c, 1, 64, 127
1, 66722, Note_on_c, 1, 56, 127
1, 66904, Note_off_c, 1, 64, 0
1, 66904, Note_off_c, 1, 56, 0
1, 66907, Note_on_c, 1, 63, 127
1, 66907, Note_on_c, 1, 55, 127
1, 67089, Note_off_c, 1, 63, 0
1, 67089, Note_off_c, 1, 55, 0
1, 67091, Note_on_c, 1, 62, 127
1, 67091, Note_on_c, 1, 53, 127
1, 67273, Note_off_c, 1, 62, 0
1, 67273, Note_off_c, 1, 53, 0
1, 67275, Note_on_c, 1, 55, 127
1, 67275, Note_on_c, 1, 63, 127
1, 67457, Note_off_c, 1, 55, 0
1, 67460, Note_on_c, 1, 58, 127
1, 67642, Note_off_c, 1, 58, 0
1, 67644, Note_on_c, 1, 51, 127
1, 67825, Note_off_c, 1, 63, 0
1, 67826, Note_off_c, 1, 51, 0
1, 67829, Note_on_c, 1, 70, 127
1, 67829, Note_on_c, 1, 49, 127
1, 68011, Note_off_c, 1, 70, 0
1, 68011, Note_off_c, 1, 49, 0
1, 68013, Note_on_c, 1, 75, 127
1, 68013, Note_on_c, 1, 47, 127
1, 68195, Note_off_c, 1, 75, 0
1, 68197, Note_on_c, 1, 73, 127
1, 68287, Note_off_c, 1, 73, 0
1, 68289, Note_on_c, 1, 71, 127
1, 68379, Note_off_c, 1, 47, 0
1, 68379, Note_off_c, 1, 71, 0
1, 68381, Note_on_c, 1, 70, 127
1, 68381, Note_on_c, 1, 52, 127
1, 68471, Note_off_c, 1, 70, 0
1, 68474, Note_on_c, 1, 71, 127
1, 68564, Note_off_c, 1, 71, 0
1, 68566, Note_on_c, 1, 73, 127
1, 68747, Note_off_c, 1, 52, 0
1, 68748, Note_off_c, 1, 73, 0
1, 68751, Note_on_c, 1, 71, 127
1, 68751, Note_on_c, 1, 49, 127
1, 68935, Note_on_c, 1, 80, 127
1, 68961, Note_off_c, 1, 71, 0
1, 69117, Note_off_c, 1, 49, 0
1, 69117, Note_off_c, 1, 80, 0
1, 69119, Note_on_c, 1, 70, 127
1, 69119, Note_on_c, 1, 51, 127
1, 69304, Note_on_c, 1, 79, 127
1, 69329, Note_off_c, 1, 70, 0
1, 69485, Note_off_c, 1, 51, 0
1, 69486, Note_off_c, 1, 79, 0
1, 69488, Note_on_c, 1, 80, 127
1, 69488, Note_on_c, 1, 44, 127
1, 69670, Note_off_c, 1, 80, 0
1, 69672, Note_on_c, 1, 76, 127
1, 69854, Note_off_c, 1, 44, 0
1, 69854, Note_off_c, 1, 76, 0
1, 69857, Note_on_c, 1, 75, 127
1, 69857, Note_on_c, 1, 46, 127
1, 70039, Note_off_c, 1, 75, 0
1, 70042, Note_on_c, 1, 73, 127
1, 70223, Note_off_c, 1, 46, 0
1, 70224, Note_off_c, 1, 73, 0
1, 70226, Note_on_c, 1, 75, 127
1, 70226, Note_on_c, 1, 47, 127
1, 70410, Note_on_c, 1, 68, 127
1, 70436, Note_off_c, 1, 75, 0
1, 70592, Note_off_c, 1, 47, 0
1, 70592, Note_off_c, 1, 68, 0
1, 70594, Note_on_c, 1, 67, 127
1, 70594, Note_on_c, 1, 46, 127
1, 70776, Note_off_c, 1, 67, 0
1, 70779, Note_on_c, 1, 73, 127
1, 70943, Note_off_c, 1, 73, 0
1, 70960, Note_off_c, 1, 46, 0
1, 70964, Note_on_c, 1, 71, 127
1, 70964, Note_on_c, 1, 44, 127
1, 71146, Note_off_c, 1, 71, 0
1, 71148, Note_on_c, 1, 70, 127
1, 71330, Note_off_c, 1, 44, 0
1, 71330, Note_off_c, 1, 70, 0
1, 71332, Note_on_c, 1, 68, 127
1, 71332, Note_on_c, 1, 47, 127
1, 71514, Note_off_c, 1, 68, 0
1, 71517, Note_on_c, 1, 67, 127
1, 71698, Note_off_c, 1, 47, 0
1, 71699, Note_off_c, 1, 67, 0
1, 71701, Note_on_c, 1, 68, 127
1, 71701, Note_on_c, 1, 53, 127
1, 71883, Note_off_c, 1, 68, 0
1, 71885, Note_on_c, 1, 71, 127
1, 72067, Note_off_c, 1, 53, 0
1, 72067, Note_off_c, 1, 71, 0
1, 72069, Note_on_c, 1, 61, 127
1, 72069, Note_on_c, 1, 46, 127
1, 72251, Note_off_c, 1, 61, 0
1, 72254, Note_on_c, 1, 71, 127
1, 72435, Note_off_c, 1, 46, 0
1, 72436, Note_off_c, 1, 71, 0
1, 72439, Note_on_c, 1, 68, 127
1, 72439, Note_on_c, 1, 47, 127
1, 72621, Note_off_c, 1, 68, 0
1, 72623, Note_on_c, 1, 71, 127
1, 72805, Note_off_c, 1, 47, 0
1, 72805, Note_off_c, 1, 71, 0
1, 72807, Note_on_c, 1, 63, 127
1, 72807, Note_on_c, 1, 56, 127
1, 72989, Note_off_c, 1, 63, 0
1, 72991, Note_on_c, 1, 71, 127
1, 73173, Note_off_c, 1, 56, 0
1, 73173, Note_off_c, 1, 71, 0
1, 73176, Note_on_c, 1, 68, 127
1, 73176, Note_on_c, 1, 53, 127
1, 73358, Note_off_c, 1, 68, 0
1, 73361, Note_on_c, 1, 71, 127
1, 73542, Note_off_c, 1, 53, 0
1, 73543, Note_off_c, 1, 71, 0
1, 73545, Note_on_c, 1, 65, 127
1, 73545, Note_on_c, 1, 49, 127
1, 73727, Note_off_c, 1, 65, 0
1, 73729, Note_on_c, 1, 71, 127
1, 73899, Note_off_c, 1, 71, 0
1, 73911, Note_off_c, 1, 49, 0
1, 73914, Note_on_c, 1, 70, 127
1, 73914, Note_on_c, 1, 42, 127
1, 74096, Note_off_c, 1, 70, 0
1, 74098, Note_on_c, 1, 68, 127
1, 74280, Note_off_c, 1, 42, 0
1, 74280, Note_off_c, 1, 68, 0
1, 74282, Note_on_c, 1, 66, 127
1, 74282, Note_on_c, 1, 46, 127
1, 74464, Note_off_c, 1, 66, 0
1, 74466, Note_on_c, 1, 65, 127
1, 74648, Note_off_c, 1, 46, 0
1, 74648, Note_off_c, 1, 65, 0
1, 74652, Note_on_c, 1, 66, 127
1, 74652, Note_on_c, 1, 51, 127
1, 74834, Note_off_c, 1, 66, 0
1, 74836, Note_on_c, 1, 70, 127
1, 75018, Note_off_c, 1, 51, 0
1, 75018, Note_off_c, 1, 70, 0
1, 75020, Note_on_c, 1, 60, 127
1, 75020, Note_on_c, 1, 44, 127
1, 75202, Note_off_c, 1, 60, 0
1, 75204, Note_on_c, 1, 70, 127
1, 75386, Note_off_c, 1, 44, 0
1, 75386, Note_off_c, 1, 70, 0
1, 75389, Note_on_c, 1, 66, 127
1, 75389, Note_on_c, 1, 46, 127
1, 75571, Note_off_c, 1, 66, 0
1, 75573, Note_on_c, 1, 70, 127
1, 75755, Note_off_c, 1, 46, 0
1, 75755, Note_off_c, 1, 70, 0
1, 75758, Note_on_c, 1, 62, 127
1, 75758, Note_on_c, 1, 54, 127
1, 75940, Note_off_c, 1, 62, 0
1, 75942, Note_on_c, 1, 70, 127
1, 76124, Note_off_c, 1, 54, 0
1, 76124, Note_off_c, 1, 70, 0
1, 76127, Note_on_c, 1, 66, 127
1, 76127, Note_on_c, 1, 51, 127
1, 76309, Note_off_c, 1, 66, 0
1, 76311, Note_on_c, 1, 70, 127
1, 76493, Note_off_c, 1, 51, 0
1, 76493, Note_off_c, 1, 70, 0
1, 76495, Note_on_c, 1, 63, 127
1, 76495, Note_on_c, 1, 48, 127
1, 76677, Note_off_c, 1, 63, 0
1, 76679, Note_on_c, 1, 70, 127
1, 76849, Note_off_c, 1, 70, 0
1, 76861, Note_off_c, 1, 48, 0
1, 76864, Note_on_c, 1, 68, 127
1, 76864, Note_on_c, 1, 41, 127
1, 77046, Note_off_c, 1, 68, 0
1, 77049, Note_on_c, 1, 66, 127
1, 77230, Note_off_c, 1, 41, 0
1, 77231, Note_off_c, 1, 66, 0
1, 77233, Note_on_c, 1, 65, 127
1, 77233, Note_on_c, 1, 44, 127
1, 77415, Note_off_c, 1, 65, 0
1, 77417, Note_on_c, 1, 63, 127
1, 77599, Note_off_c, 1, 44, 0
1, 77599, Note_off_c, 1, 63, 0
1, 77601, Note_on_c, 1, 65, 127
1, 77601, Note_on_c, 1, 50, 127
1, 77783, Note_off_c, 1, 65, 0
1, 77786, Note_on_c, 1, 68, 127
1, 77967, Note_off_c, 1, 50, 0
1, 77968, Note_off_c, 1, 68, 0
1, 77970, Note_on_c, 1, 58, 127
1, 77970, Note_on_c, 1, 42, 127
1, 78152, Note_off_c, 1, 58, 0
1, 78155, Note_on_c, 1, 68, 127
1, 78336, Note_off_c, 1, 42, 0
1, 78337, Note_off_c, 1, 68, 0
1, 78339, Note_on_c, 1, 65, 127
1, 78339, Note_on_c, 1, 44, 127
1, 78521, Note_off_c, 1, 65, 0
1, 78524, Note_on_c, 1, 68, 127
1, 78705, Note_off_c, 1, 44, 0
1, 78706, Note_off_c, 1, 68, 0
1, 78708, Note_on_c, 1, 60, 127
1, 78708, Note_on_c, 1, 53, 127
1, 78890, Note_off_c, 1, 60, 0
1, 78892, Note_on_c, 1, 68, 127
1, 79074, Note_off_c, 1, 53, 0
1, 79074, Note_off_c, 1, 68, 0
1, 79076, Note_on_c, 1, 65, 127
1, 79076, Note_on_c, 1, 50, 127
1, 79258, Note_off_c, 1, 65, 0
1, 79262, Note_on_c, 1, 68, 127
1, 79442, Note_off_c, 1, 50, 0
1, 79444, Note_off_c, 1, 68, 0
1, 79446, Note_on_c, 1, 62, 127
1, 79446, Note_on_c, 1, 46, 127
1, 79628, Note_off_c, 1, 62, 0
1, 79630, Note_on_c, 1, 68, 127
1, 79792, Note_off_c, 1, 68, 0
1, 79812, Note_off_c, 1, 46, 0
1, 79814, Note_on_c, 1, 66, 127
1, 79814, Note_on_c, 1, 39, 127
1, 79996, Note_off_c, 1, 66, 0
1, 79996, Note_off_c, 1, 39, 0
1, 79999, Note_on_c, 1, 70, 127
1, 79999, Note_on_c, 1, 42, 127
1, 80181, Note_off_c, 1, 70, 0
1, 80181, Note_off_c, 1, 42, 0
1, 80183, Note_on_c, 1, 74, 127
1, 80183, Note_on_c, 1, 41, 127
1, 80365, Note_off_c, 1, 74, 0
1, 80365, Note_off_c, 1, 41, 0
1, 80367, Note_on_c, 1, 77, 127
1, 80367, Note_on_c, 1, 44, 127
1, 80537, Note_off_c, 1, 77, 0
1, 80549, Note_off_c, 1, 44, 0
1, 80552, Note_on_c, 1, 70, 127
1, 80552, Note_on_c, 1, 42, 127
1, 80734, Note_off_c, 1, 70, 0
1, 80734, Note_off_c, 1, 42, 0
1, 80737, Note_on_c, 1, 74, 127
1, 80737, Note_on_c, 1, 46, 127
1, 80919, Note_off_c, 1, 74, 0
1, 80919, Note_off_c, 1, 46, 0
1, 80921, Note_on_c, 1, 77, 127
1, 80921, Note_on_c, 1, 44, 127
1, 81103, Note_off_c, 1, 77, 0
1, 81103, Note_off_c, 1, 44, 0
1, 81105, Note_on_c, 1, 80, 127
1, 81105, Note_on_c, 1, 47, 127
1, 81287, Note_off_c, 1, 80, 0
1, 81287, Note_off_c, 1, 47, 0
1, 81289, Note_on_c, 1, 78, 127
1, 81289, Note_on_c, 1, 46, 127
1, 81379, Note_off_c, 1, 78, 0
1, 81381, Note_on_c, 1, 77, 127
1, 81471, Note_off_c, 1, 46, 0
1, 81471, Note_off_c, 1, 77, 0
1, 81473, Note_on_c, 1, 75, 127
1, 81473, Note_on_c, 1, 51, 127
1, 81655, Note_off_c, 1, 75, 0
1, 81655, Note_off_c, 1, 51, 0
1, 81659, Note_on_c, 1, 50, 127
1, 81659, Note_on_c, 1, 77, 127
1, 81841, Note_off_c, 1, 50, 0
1, 81843, Note_on_c, 1, 48, 127
1, 82025, Note_off_c, 1, 48, 0
1, 82027, Note_on_c, 1, 46, 127
1, 82196, Note_off_c, 1, 77, 0
1, 82209, Note_off_c, 1, 46, 0
1, 82211, Note_on_c, 1, 44, 127
1, 82393, Note_off_c, 1, 44, 0
1, 82396, Note_on_c, 1, 42, 127
1, 82578, Note_off_c, 1, 42, 0
1, 82580, Note_on_c, 1, 41, 127
1, 82762, Note_off_c, 1, 41, 0
1, 82764, Note_on_c, 1, 63, 127
1, 82764, Note_on_c, 1, 42, 127
1, 82946, Note_off_c, 1, 63, 0
1, 82946, Note_off_c, 1, 42, 0
1, 82949, Note_on_c, 1, 66, 127
1, 82949, Note_on_c, 1, 46, 127
1, 83131, Note_off_c, 1, 66, 0
1, 83131, Note_off_c, 1, 46, 0
1, 83134, Note_on_c, 1, 65, 127
1, 83134, Note_on_c, 1, 50, 127
1, 83316, Note_off_c, 1, 65, 0
1, 83316, Note_off_c, 1, 50, 0
1, 83318, Note_on_c, 1, 53, 127
1, 83318, Note_on_c, 1, 68, 127
1, 83490, Note_off_c, 1, 53, 0
1, 83500, Note_off_c, 1, 68, 0
1, 83502, Note_on_c, 1, 66, 127
1, 83502, Note_on_c, 1, 46, 127
1, 83684, Note_off_c, 1, 66, 0
1, 83684, Note_off_c, 1, 46, 0
1, 83686, Note_on_c, 1, 70, 127
1, 83686, Note_on_c, 1, 50, 127
1, 83868, Note_off_c, 1, 70, 0
1, 83868, Note_off_c, 1, 50, 0
1, 83871, Note_on_c, 1, 68, 127
1, 83871, Note_on_c, 1, 53, 127
1, 84053, Note_off_c, 1, 68, 0
1, 84053, Note_off_c, 1, 53, 0
1, 84056, Note_on_c, 1, 56, 127
1, 84056, Note_on_c, 1, 71, 127
1, 84228, Note_off_c, 1, 56, 0
1, 84238, Note_off_c, 1, 71, 0
1, 84240, Note_on_c, 1, 54, 127
1, 84240, Note_on_c, 1, 70, 127
1, 84330, Note_off_c, 1, 54, 0
1, 84332, Note_on_c, 1, 53, 127
1, 84422, Note_off_c, 1, 70, 0
1, 84422, Note_off_c, 1, 53, 0
1, 84424, Note_on_c, 1, 75, 127
1, 84424, Note_on_c, 1, 51, 127
1, 84606, Note_off_c, 1, 75, 0
1, 84606, Note_off_c, 1, 51, 0
1, 84609, Note_on_c, 1, 74, 127
1, 84609, Note_on_c, 1, 53, 127
1, 84791, Note_off_c, 1, 74, 0
1, 84793, Note_on_c, 1, 72, 127
1, 84975, Note_off_c, 1, 72, 0
1, 84977, Note_on_c, 1, 70, 127
1, 85146, Note_off_c, 1, 53, 0
1, 85159, Note_off_c, 1, 70, 0
1, 85162, Note_on_c, 1, 68, 127
1, 85344, Note_off_c, 1, 68, 0
1, 85347, Note_on_c, 1, 66, 127
1, 85347, Note_on_c, 1, 58, 127
1, 85529, Note_off_c, 1, 66, 0
1, 85531, Note_on_c, 1, 65, 127
1, 85713, Note_off_c, 1, 58, 0
1, 85713, Note_off_c, 1, 65, 0
1, 85715, Note_on_c, 1, 66, 127
1, 85715, Note_on_c, 1, 51, 127
1, 85897, Note_off_c, 1, 66, 0
1, 85899, Note_on_c, 1, 70, 127
1, 86081, Note_off_c, 1, 51, 0
1, 86081, Note_off_c, 1, 70, 0
1, 86083, Note_on_c, 1, 68, 127
1, 86083, Note_on_c, 1, 59, 127
1, 86265, Note_off_c, 1, 68, 0
1, 86268, Note_on_c, 1, 71, 127
1, 86449, Note_off_c, 1, 59, 0
1, 86450, Note_off_c, 1, 71, 0
1, 86453, Note_on_c, 1, 70, 127
1, 86453, Note_on_c, 1, 49, 127
1, 86635, Note_off_c, 1, 70, 0
1, 86637, Note_on_c, 1, 68, 127
1, 86819, Note_off_c, 1, 49, 0
1, 86819, Note_off_c, 1, 68, 0
1, 86821, Note_on_c, 1, 66, 127
1, 86821, Note_on_c, 1, 58, 127
1, 87003, Note_off_c, 1, 66, 0
1, 87006, Note_on_c, 1, 65, 127
1, 87187, Note_off_c, 1, 58, 0
1, 87188, Note_off_c, 1, 65, 0
1, 87190, Note_on_c, 1, 63, 127
1, 87190, Note_on_c, 1, 47, 127
1, 87372, Note_off_c, 1, 63, 0
1, 87374, Note_on_c, 1, 66, 127
1, 87556, Note_off_c, 1, 47, 0
1, 87556, Note_off_c, 1, 66, 0
1, 87559, Note_on_c, 1, 65, 127
1, 87559, Note_on_c, 1, 56, 127
1, 87741, Note_off_c, 1, 65, 0
1, 87744, Note_on_c, 1, 68, 127
1, 87925, Note_off_c, 1, 56, 0
1, 87926, Note_off_c, 1, 68, 0
1, 87928, Note_on_c, 1, 66, 127
1, 87928, Note_on_c, 1, 46, 127
1, 88110, Note_off_c, 1, 66, 0
1, 88112, Note_on_c, 1, 65, 127
1, 88294, Note_off_c, 1, 46, 0
1, 88294, Note_off_c, 1, 65, 0
1, 88296, Note_on_c, 1, 63, 127
1, 88296, Note_on_c, 1, 58, 127
1, 88478, Note_off_c, 1, 63, 0
1, 88481, Note_on_c, 1, 62, 127
1, 88643, Note_off_c, 1, 62, 0
1, 88662, Note_off_c, 1, 58, 0
1, 88665, Note_on_c, 1, 63, 127
1, 88665, Note_on_c, 1, 59, 127
1, 88847, Note_off_c, 1, 63, 0
1, 88847, Note_off_c, 1, 59, 0
1, 88850, Note_on_c, 1, 68, 127
1, 88850, Note_on_c, 1, 56, 127
1, 89032, Note_off_c, 1, 68, 0
1, 89032, Note_off_c, 1, 56, 0
1, 89034, Note_on_c, 1, 67, 127
1, 89034, Note_on_c, 1, 58, 127
1, 89216, Note_off_c, 1, 67, 0
1, 89216, Note_off_c, 1, 58, 0
1, 89219, Note_on_c, 1, 70, 127
1, 89219, Note_on_c, 1, 61, 127
1, 89401, Note_off_c, 1, 70, 0
1, 89401, Note_off_c, 1, 61, 0
1, 89403, Note_on_c, 1, 68, 127
1, 89403, Note_on_c, 1, 59, 127
1, 89585, Note_off_c, 1, 68, 0
1, 89585, Note_off_c, 1, 59, 0
1, 89587, Note_on_c, 1, 66, 127
1, 89587, Note_on_c, 1, 58, 127
1, 89769, Note_off_c, 1, 66, 0
1, 89769, Note_off_c, 1, 58, 0
1, 89771, Note_on_c, 1, 65, 127
1, 89771, Note_on_c, 1, 56, 127
1, 89953, Note_off_c, 1, 65, 0
1, 89953, Note_off_c, 1, 56, 0
1, 89957, Note_on_c, 1, 63, 127
1, 89957, Note_on_c, 1, 59, 127
1, 90139, Note_off_c, 1, 63, 0
1, 90139, Note_off_c, 1, 59, 0
1, 90141, Note_on_c, 1, 62, 127
1, 90141, Note_on_c, 1, 58, 127
1, 90323, Note_off_c, 1, 62, 0
1, 90323, Note_off_c, 1, 58, 0
1, 90325, Note_on_c, 1, 65, 127
1, 90325, Note_on_c, 1, 53, 127
1, 90507, Note_off_c, 1, 65, 0
1, 90507, Note_off_c, 1, 53, 0
1, 90509, Note_on_c, 1, 63, 127
1, 90509, Note_on_c, 1, 54, 127
1, 90691, Note_off_c, 1, 63, 0
1, 90691, Note_off_c, 1, 54, 0
1, 90693, Note_on_c, 1, 66, 127
1, 90693, Note_on_c, 1, 58, 127
1, 90875, Note_off_c, 1, 66, 0
1, 90875, Note_off_c, 1, 58, 0
1, 90878, Note_on_c, 1, 65, 127
1, 90878, Note_on_c, 1, 56, 127
1, 91060, Note_off_c, 1, 65, 0
1, 91060, Note_off_c, 1, 56, 0
1, 91063, Note_on_c, 1, 63, 127
1, 91063, Note_on_c, 1, 54, 127
1, 91245, Note_off_c, 1, 63, 0
1, 91245, Note_off_c, 1, 54, 0
1, 91247, Note_on_c, 1, 62, 127
1, 91247, Note_on_c, 1, 53, 127
1, 91429, Note_off_c, 1, 62, 0
1, 91429, Note_off_c, 1, 53, 0
1, 91431, Note_on_c, 1, 60, 127
1, 91431, Note_on_c, 1, 56, 127
1, 91613, Note_off_c, 1, 60, 0
1, 91613, Note_off_c, 1, 56, 0
1, 91616, Note_on_c, 1, 54, 127
1, 91616, Note_on_c, 1, 58, 127
1, 91798, Note_off_c, 1, 54, 0
1, 91800, Note_on_c, 1, 50, 127
1, 91982, Note_off_c, 1, 58, 0
1, 91982, Note_off_c, 1, 50, 0
1, 91984, Note_on_c, 1, 51, 127
1, 91984, Note_on_c, 1, 70, 127
1, 92166, Note_off_c, 1, 51, 0
1, 92168, Note_on_c, 1, 54, 127
1, 92350, Note_off_c, 1, 70, 0
1, 92350, Note_off_c, 1, 54, 0
1, 92354, Note_on_c, 1, 68, 127
1, 92354, Note_on_c, 1, 58, 127
1, 92536, Note_off_c, 1, 68, 0
1, 92538, Note_on_c, 1, 66, 127
1, 92720, Note_off_c, 1, 58, 0
1, 92720, Note_off_c, 1, 66, 0
1, 92722, Note_on_c, 1, 65, 127
1, 92722, Note_on_c, 1, 46, 127
1, 92904, Note_off_c, 1, 65, 0
1, 92906, Note_on_c, 1, 66, 127
1, 93072, Note_off_c, 1, 66, 0
1, 93104, Note_off_c, 1, 46, 0
1, 93106, Note_on_c, 1, 63, 127
1, 93106, Note_on_c, 1, 61, 127
1, 93288, Note_off_c, 1, 63, 0
1, 93288, Note_off_c, 1, 61, 0
1, 93290, Note_on_c, 1, 58, 127
1, 93290, Note_on_c, 1, 67, 127
1, 93380, Note_off_c, 1, 58, 0
1, 93382, Note_on_c, 1, 55, 127
1, 93472, Note_off_c, 1, 67, 0
1, 93472, Note_off_c, 1, 55, 0
1, 93475, Note_on_c, 1, 65, 127
1, 93475, Note_on_c, 1, 51, 127
1, 93657, Note_off_c, 1, 65, 0
1, 93660, Note_on_c, 1, 68, 127
1, 93842, Note_off_c, 1, 68, 0
1, 93844, Note_on_c, 1, 67, 127
1, 94025, Note_off_c, 1, 51, 0
1, 94026, Note_off_c, 1, 67, 0
1, 94028, Note_on_c, 1, 55, 127
1, 94028, Note_on_c, 1, 70, 127
1, 94118, Note_off_c, 1, 55, 0
1, 94120, Note_on_c, 1, 58, 127
1, 94210, Note_off_c, 1, 70, 0
1, 94210, Note_off_c, 1, 58, 0
1, 94213, Note_on_c, 1, 59, 127
1, 94213, Note_on_c, 1, 68, 127
1, 94303, Note_off_c, 1, 59, 0
1, 94305, Note_on_c, 1, 58, 127
1, 94395, Note_off_c, 1, 68, 0
1, 94395, Note_off_c, 1, 58, 0
1, 94397, Note_on_c, 1, 71, 127
1, 94397, Note_on_c, 1, 56, 127
1, 94579, Note_off_c, 1, 71, 0
1, 94579, Note_off_c, 1, 56, 0
1, 94581, Note_on_c, 1, 70, 127
1, 94581, Note_on_c, 1, 55, 127
1, 94763, Note_off_c, 1, 70, 0
1, 94763, Note_off_c, 1, 55, 0
1, 94765, Note_on_c, 1, 58, 127
1, 94765, Note_on_c, 1, 73, 127
1, 94855, Note_off_c, 1, 58, 0
1, 94858, Note_on_c, 1, 61, 127
1, 94947, Note_off_c, 1, 73, 0
1, 94948, Note_off_c, 1, 61, 0
1, 94951, Note_on_c, 1, 71, 127
1, 94951, Note_on_c, 1, 64, 127
1, 95133, Note_off_c, 1, 71, 0
1, 95135, Note_on_c, 1, 70, 127
1, 95317, Note_off_c, 1, 70, 0
1, 95319, Note_on_c, 1, 68, 127
1, 95501, Note_off_c, 1, 64, 0
1, 95501, Note_off_c, 1, 68, 0
1, 95503, Note_on_c, 1, 58, 127
1, 95503, Note_on_c, 1, 67, 127
1, 95593, Note_off_c, 1, 58, 0
1, 95595, Note_on_c, 1, 56, 127
1, 95685, Note_off_c, 1, 67, 0
1, 95685, Note_off_c, 1, 56, 0
1, 95687, Note_on_c, 1, 58, 127
1, 95687, Note_on_c, 1, 65, 127
1, 95777, Note_off_c, 1, 58, 0
1, 95780, Note_on_c, 1, 59, 127
1, 95869, Note_off_c, 1, 65, 0
1, 95870, Note_off_c, 1, 59, 0
1, 95872, Note_on_c, 1, 63, 127
1, 95872, Note_on_c, 1, 61, 127
1, 96054, Note_off_c, 1, 63, 0
1, 96054, Note_off_c, 1, 61, 0
1, 96071, Note_on_c, 1, 75, 127
1, 96071, Note_on_c, 1, 53, 127
1, 96253, Note_off_c, 1, 75, 0
1, 96253, Note_off_c, 1, 53, 0
1, 96257, Note_on_c, 1, 72, 127
1, 96257, Note_on_c, 1, 57, 127
1, 96347, Note_off_c, 1, 72, 0
1, 96349, Note_on_c, 1, 69, 127
1, 96439, Note_off_c, 1, 57, 0
1, 96439, Note_off_c, 1, 69, 0
1, 96441, Note_on_c, 1, 55, 127
1, 96441, Note_on_c, 1, 65, 127
1, 96623, Note_off_c, 1, 55, 0
1, 96625, Note_on_c, 1, 58, 127
1, 96807, Note_off_c, 1, 58, 0
1, 96809, Note_on_c, 1, 57, 127
1, 96991, Note_off_c, 1, 65, 0
1, 96991, Note_off_c, 1, 57, 0
1, 96994, Note_on_c, 1, 69, 127
1, 96994, Note_on_c, 1, 60, 127
1, 97084, Note_off_c, 1, 69, 0
1, 97086, Note_on_c, 1, 72, 127
1, 97176, Note_off_c, 1, 60, 0
1, 97176, Note_off_c, 1, 72, 0
1, 97178, Note_on_c, 1, 73, 127
1, 97178, Note_on_c, 1, 58, 127
1, 97268, Note_off_c, 1, 73, 0
1, 97270, Note_on_c, 1, 72, 127
1, 97360, Note_off_c, 1, 58, 0
1, 97360, Note_off_c, 1, 72, 0
1, 97363, Note_on_c, 1, 70, 127
1, 97363, Note_on_c, 1, 61, 127
1, 97545, Note_off_c, 1, 70, 0
1, 97545, Note_off_c, 1, 61, 0
1, 97547, Note_on_c, 1, 69, 127
1, 97547, Note_on_c, 1, 60, 127
1, 97729, Note_off_c, 1, 69, 0
1, 97729, Note_off_c, 1, 60, 0
1, 97732, Note_on_c, 1, 72, 127
1, 97732, Note_on_c, 1, 63, 127
1, 97822, Note_off_c, 1, 72, 0
1, 97824, Note_on_c, 1, 75, 127
1, 97914, Note_off_c, 1, 63, 0
1, 97914, Note_off_c, 1, 75, 0
1, 97916, Note_on_c, 1, 61, 127
1, 97916, Note_on_c, 1, 78, 127
1, 98098, Note_off_c, 1, 61, 0
1, 98100, Note_on_c, 1, 60, 127
1, 98282, Note_off_c, 1, 60, 0
1, 98284, Note_on_c, 1, 58, 127
1, 98466, Note_off_c, 1, 78, 0
1, 98466, Note_off_c, 1, 58, 0
1, 98469, Note_on_c, 1, 72, 127
1, 98469, Note_on_c, 1, 57, 127
1, 98559, Note_off_c, 1, 72, 0
1, 98562, Note_on_c, 1, 70, 127
1, 98651, Note_off_c, 1, 57, 0
1, 98652, Note_off_c, 1, 70, 0
1, 98654, Note_on_c, 1, 72, 127
1, 98654, Note_on_c, 1, 55, 127
1, 98744, Note_off_c, 1, 72, 0
1, 98746, Note_on_c, 1, 73, 127
1, 98836, Note_off_c, 1, 55, 0
1, 98836, Note_off_c, 1, 73, 0
1, 98838, Note_on_c, 1, 75, 127
1, 98838, Note_on_c, 1, 53, 127
1, 99004, Note_off_c, 1, 75, 0
1, 99020, Note_off_c, 1, 53, 0
1, 99038, Note_on_c, 1, 74, 127
1, 99038, Note_on_c, 1, 56, 127
1, 99220, Note_off_c, 1, 74, 0
1, 99220, Note_off_c, 1, 56, 0
1, 99222, Note_on_c, 1, 53, 127
1, 99222, Note_on_c, 1, 77, 127
1, 99312, Note_off_c, 1, 53, 0
1, 99314, Note_on_c, 1, 50, 127
1, 99404, Note_off_c, 1, 77, 0
1, 99404, Note_off_c, 1, 50, 0
1, 99406, Note_on_c, 1, 75, 127
1, 99406, Note_on_c, 1, 46, 127
1, 99588, Note_off_c, 1, 75, 0
1, 99591, Note_on_c, 1, 78, 127
1, 99773, Note_off_c, 1, 78, 0
1, 99775, Note_on_c, 1, 77, 127
1, 99956, Note_off_c, 1, 46, 0
1, 99957, Note_off_c, 1, 77, 0
1, 99960, Note_on_c, 1, 50, 127
1, 99960, Note_on_c, 1, 80, 127
1, 100050, Note_off_c, 1, 50, 0
1, 100052, Note_on_c, 1, 53, 127
1, 100142, Note_off_c, 1, 80, 0
1, 100142, Note_off_c, 1, 53, 0
1, 100144, Note_on_c, 1, 78, 127
1, 100144, Note_on_c, 1, 58, 127
1, 100326, Note_off_c, 1, 78, 0
1, 100329, Note_on_c, 1, 82, 127
1, 100511, Note_off_c, 1, 82, 0
1, 100513, Note_on_c, 1, 80, 127
1, 100694, Note_off_c, 1, 58, 0
1, 100695, Note_off_c, 1, 80, 0
1, 100697, Note_on_c, 1, 56, 127
1, 100697, Note_on_c, 1, 83, 127
1, 100787, Note_off_c, 1, 56, 0
1, 100789, Note_on_c, 1, 53, 127
1, 100879, Note_off_c, 1, 83, 0
1, 100879, Note_off_c, 1, 53, 0
1, 100881, Note_on_c, 1, 82, 127
1, 100881, Note_on_c, 1, 50, 127
1, 101063, Note_off_c, 1, 82, 0
1, 101063, Note_off_c, 1, 50, 0
1, 101065, Note_on_c, 1, 80, 127
1, 101065, Note_on_c, 1, 59, 127
1, 101247, Note_off_c, 1, 80, 0
1, 101247, Note_off_c, 1, 59, 0
1, 101251, Note_on_c, 1, 78, 127
1, 101251, Note_on_c, 1, 58, 127
1, 101433, Note_off_c, 1, 78, 0
1, 101433, Note_off_c, 1, 58, 0
1, 101435, Note_on_c, 1, 56, 127
1, 101435, Note_on_c, 1, 77, 127
1, 101525, Note_off_c, 1, 56, 0
1, 101527, Note_on_c, 1, 54, 127
1, 101617, Note_off_c, 1, 77, 0
1, 101617, Note_off_c, 1, 54, 0
1, 101619, Note_on_c, 1, 53, 127
1, 101619, Note_on_c, 1, 75, 127
1, 101709, Note_off_c, 1, 53, 0
1, 101711, Note_on_c, 1, 54, 127
1, 101801, Note_off_c, 1, 75, 0
1, 101801, Note_off_c, 1, 54, 0
1, 101803, Note_on_c, 1, 74, 127
1, 101803, Note_on_c, 1, 56, 127
1, 101989, Note_off_c, 1, 74, 0
1, 101989, Note_off_c, 1, 56, 0
1, 102003, Note_on_c, 1, 75, 127
1, 102003, Note_on_c, 1, 54, 127
1, 102189, Note_off_c, 1, 75, 0
1, 102211, Note_on_c, 1, 77, 127
1, 102303, Note_off_c, 1, 77, 0
1, 102305, Note_on_c, 1, 78, 127
1, 102377, Note_off_c, 1, 54, 0
1, 102397, Note_off_c, 1, 78, 0
1, 102399, Note_on_c, 1, 80, 127
1, 102399, Note_on_c, 1, 47, 127
1, 102491, Note_off_c, 1, 80, 0
1, 102493, Note_on_c, 1, 78, 127
1, 102585, Note_off_c, 1, 78, 0
1, 102587, Note_on_c, 1, 77, 127
1, 102773, Note_off_c, 1, 47, 0
1, 102773, Note_off_c, 1, 77, 0
1, 102775, Note_on_c, 1, 78, 127
1, 102775, Note_on_c, 1, 46, 127
1, 102961, Note_off_c, 1, 78, 0
1, 102964, Note_on_c, 1, 77, 127
1, 103056, Note_off_c, 1, 77, 0
1, 103058, Note_on_c, 1, 75, 127
1, 103149, Note_off_c, 1, 46, 0
1, 103150, Note_off_c, 1, 75, 0
1, 103152, Note_on_c, 1, 74, 127
1, 103152, Note_on_c, 1, 44, 127
1, 103244, Note_off_c, 1, 74, 0
1, 103246, Note_on_c, 1, 75, 127
1, 103338, Note_off_c, 1, 75, 0
1, 103340, Note_on_c, 1, 77, 127
1, 103528, Note_off_c, 1, 44, 0
1, 103528, Note_off_c, 1, 77, 0
1, 103530, Note_on_c, 1, 70, 127
1, 103530, Note_on_c, 1, 42, 127
1, 103626, Note_on_c, 1, 75, 127
1, 103627, Note_off_c, 1, 70, 0
1, 103720, Note_off_c, 1, 75, 0
1, 103722, Note_on_c, 1, 73, 127
1, 103816, Note_off_c, 1, 73, 0
1, 103818, Note_on_c, 1, 71, 127
1, 103912, Note_off_c, 1, 42, 0
1, 103912, Note_off_c, 1, 71, 0
1, 103914, Note_on_c, 1, 54, 127
1, 103914, Note_on_c, 1, 70, 127
1, 104102, Note_off_c, 1, 54, 0
1, 104102, Note_off_c, 1, 70, 0
1, 104105, Note_on_c, 1, 56, 127
1, 104105, Note_on_c, 1, 68, 127
1, 104300, Note_off_c, 1, 56, 0
1, 104300, Note_off_c, 1, 68, 0
1, 104302, Note_on_c, 1, 66, 127
1, 104302, Note_on_c, 1, 58, 127
1, 104497, Note_off_c, 1, 66, 0
1, 104500, Note_on_c, 1, 65, 127
1, 104596, Note_off_c, 1, 65, 0
1, 104693, Note_off_c, 1, 58, 0
1, 104696, Note_on_c, 1, 68, 127
1, 104696, Note_on_c, 1, 46, 127
1, 104792, Note_off_c, 1, 68, 0
1, 104794, Note_on_c, 1, 66, 127
1, 104890, Note_off_c, 1, 66, 0
1, 104892, Note_on_c, 1, 65, 127
1, 105108, Note_off_c, 1, 46, 0
1, 105108, Note_off_c, 1, 65, 0
1, 105111, Note_on_c, 1, 63, 127
1, 105111, Note_on_c, 1, 39, 127
1, 105327, Note_off_c, 1, 63, 0
1, 105330, Note_on_c, 1, 66, 127
1, 105546, Note_off_c, 1, 66, 0
1, 105549, Note_on_c, 1, 70, 127
1, 105765, Note_off_c, 1, 70, 0
1, 105768, Note_on_c, 1, 74, 127
1, 105984, Note_off_c, 1, 74, 0
1, 106710, Note_on_c, 1, 75, 127
1, 108711, Note_off_c, 1, 39, 0
1, 108810, Note_off_c, 1, 75, 0
1, 109873, Note_on_c, 1, 63, 127
1, 110239, Note_off_c, 1, 63, 0
1, 110243, Note_on_c, 1, 63, 127
1, 110609, Note_off_c, 1, 63, 0
1, 110611, Note_on_c, 1, 63, 127
1, 110977, Note_off_c, 1, 63, 0
1, 110980, Note_on_c, 1, 62, 127
1, 111346, Note_off_c, 1, 62, 0
1, 111348, Note_on_c, 1, 63, 127
1, 111714, Note_off_c, 1, 63, 0
1, 111718, Note_on_c, 1, 65, 127
1, 112735, Note_off_c, 1, 65, 0
1, 112824, Note_on_c, 1, 63, 127
1, 113190, Note_off_c, 1, 63, 0
1, 113192, Note_on_c, 1, 68, 127
1, 114257, Note_off_c, 1, 68, 0
1, 114299, Note_on_c, 1, 66, 127
1, 114481, Note_off_c, 1, 66, 0
1, 114483, Note_on_c, 1, 65, 127
1, 114665, Note_off_c, 1, 65, 0
1, 114667, Note_on_c, 1, 70, 127
1, 115033, Note_off_c, 1, 70, 0
1, 115037, Note_on_c, 1, 68, 127
1, 115403, Note_off_c, 1, 68, 0
1, 115405, Note_on_c, 1, 66, 127
1, 115771, Note_off_c, 1, 66, 0
1, 115774, Note_on_c, 1, 65, 127
1, 115774, Note_on_c, 1, 58, 127
1, 116140, Note_off_c, 1, 65, 0
1, 116140, Note_off_c, 1, 58, 0
1, 116143, Note_on_c, 1, 63, 127
1, 116143, Note_on_c, 1, 58, 127
1, 116509, Note_off_c, 1, 63, 0
1, 116509, Note_off_c, 1, 58, 0
1, 116512, Note_on_c, 1, 61, 127
1, 116512, Note_on_c, 1, 58, 127
1, 116694, Note_off_c, 1, 61, 0
1, 116696, Note_on_c, 1, 63, 127
1, 116878, Note_off_c, 1, 58, 0
1, 116878, Note_off_c, 1, 63, 0
1, 116880, Note_on_c, 1, 57, 127
1, 116880, Note_on_c, 1, 65, 127
1, 117246, Note_off_c, 1, 57, 0
1, 117249, Note_on_c, 1, 58, 127
1, 117615, Note_off_c, 1, 58, 0
1, 117618, Note_on_c, 1, 60, 127
1, 117916, Note_off_c, 1, 65, 0
1, 117987, Note_on_c, 1, 63, 127
1, 118169, Note_off_c, 1, 63, 0
1, 118355, Note_on_c, 1, 66, 127
1, 118539, Note_off_c, 1, 60, 0
1, 119411, Note_off_c, 1, 66, 0
1, 119647, Note_on_c, 1, 67, 127
1, 119829, Note_off_c, 1, 67, 0
1, 119831, Note_on_c, 1, 68, 127
1, 120200, Note_on_c, 1, 61, 127
1, 120382, Note_off_c, 1, 61, 0
1, 120916, Note_off_c, 1, 68, 0
1, 120938, Note_on_c, 1, 67, 127
1, 120938, Note_on_c, 1, 63, 127
1, 121120, Note_off_c, 1, 67, 0
1, 121122, Note_on_c, 1, 69, 127
1, 121304, Note_off_c, 1, 63, 0
1, 121304, Note_off_c, 1, 69, 0
1, 121306, Note_on_c, 1, 70, 127
1, 121306, Note_on_c, 1, 61, 127
1, 121672, Note_off_c, 1, 70, 0
1, 121672, Note_off_c, 1, 61, 0
1, 121674, Note_on_c, 1, 72, 127
1, 121674, Note_on_c, 1, 60, 127
1, 122040, Note_off_c, 1, 72, 0
1, 122040, Note_off_c, 1, 60, 0
1, 122044, Note_on_c, 1, 58, 127
1, 122044, Note_on_c, 1, 73, 127
1, 122410, Note_off_c, 1, 58, 0
1, 122412, Note_on_c, 1, 70, 127
1, 122778, Note_off_c, 1, 70, 0
1, 122781, Note_on_c, 1, 63, 127
1, 123147, Note_off_c, 1, 73, 0
1, 123149, Note_on_c, 1, 67, 127
1, 123515, Note_off_c, 1, 67, 0
1, 123519, Note_on_c, 1, 68, 127
1, 123884, Note_off_c, 1, 63, 0
1, 123885, Note_off_c, 1, 68, 0
1, 123887, Note_on_c, 1, 70, 127
1, 123887, Note_on_c, 1, 61, 127
1, 124253, Note_off_c, 1, 70, 0
1, 124253, Note_off_c, 1, 61, 0
1, 124256, Note_on_c, 1, 63, 127
1, 124256, Note_on_c, 1, 59, 127
1, 124622, Note_off_c, 1, 63, 0
1, 124625, Note_on_c, 1, 68, 127
1, 124991, Note_off_c, 1, 59, 0
1, 124994, Note_on_c, 1, 58, 127
1, 125360, Note_off_c, 1, 68, 0
1, 125362, Note_on_c, 1, 67, 127
1, 125728, Note_off_c, 1, 67, 0
1, 125729, Note_off_c, 1, 58, 0
1, 125732, Note_on_c, 1, 56, 127
1, 125732, Note_on_c, 1, 71, 127
1, 126098, Note_off_c, 1, 56, 0
1, 126100, Note_on_c, 1, 68, 127
1, 126466, Note_off_c, 1, 68, 0
1, 126469, Note_on_c, 1, 62, 127
1, 126835, Note_off_c, 1, 71, 0
1, 126838, Note_on_c, 1, 70, 127
1, 127020, Note_off_c, 1, 70, 0
1, 127204, Note_off_c, 1, 62, 0
1, 127207, Note_on_c, 1, 63, 127
1, 127207, Note_on_c, 1, 66, 127
1, 127571, Note_off_c, 1, 63, 0
1, 127573, Note_off_c, 1, 66, 0
1, 127575, Note_on_c, 1, 68, 127
1, 127575, Note_on_c, 1, 53, 127
1, 127575, Note_on_c, 1, 51, 127
1, 127941, Note_off_c, 1, 68, 0
1, 127941, Note_off_c, 1, 53, 0
1, 127941, Note_off_c, 1, 51, 0
1, 127945, Note_on_c, 1, 70, 127
1, 127945, Note_on_c, 1, 54, 127
1, 127945, Note_on_c, 1, 51, 127
1, 128311, Note_off_c, 1, 70, 0
1, 128311, Note_off_c, 1, 54, 0
1, 128311, Note_off_c, 1, 51, 0
1, 128313, Note_on_c, 1, 71, 127
1, 128313, Note_on_c, 1, 56, 127
1, 128313, Note_on_c, 1, 51, 127
1, 128679, Note_off_c, 1, 71, 0
1, 128679, Note_off_c, 1, 56, 0
1, 128679, Note_off_c, 1, 51, 0
1, 128682, Note_on_c, 1, 65, 127
1, 128682, Note_on_c, 1, 50, 127
1, 128682, Note_on_c, 1, 58, 127
1, 128864, Note_off_c, 1, 65, 0
1, 128866, Note_on_c, 1, 66, 127
1, 129048, Note_off_c, 1, 50, 0
1, 129048, Note_off_c, 1, 66, 0
1, 129050, Note_on_c, 1, 51, 127
1, 129235, Note_on_c, 1, 63, 127
1, 129416, Note_off_c, 1, 51, 0
1, 129417, Note_off_c, 1, 63, 0
1, 129420, Note_on_c, 1, 62, 127
1, 129420, Note_on_c, 1, 53, 127
1, 129602, Note_off_c, 1, 62, 0
1, 129785, Note_off_c, 1, 58, 0
1, 129788, Note_on_c, 1, 56, 127
1, 129970, Note_off_c, 1, 56, 0
1, 130157, Note_on_c, 1, 68, 127
1, 130157, Note_on_c, 1, 59, 127
1, 130339, Note_off_c, 1, 68, 0
1, 130341, Note_off_c, 1, 53, 0
1, 130342, Note_on_c, 1, 70, 127
1, 130524, Note_off_c, 1, 70, 0
1, 131260, Note_off_c, 1, 59, 0
1, 131448, Note_on_c, 1, 60, 127
1, 131630, Note_off_c, 1, 60, 0
1, 131632, Note_on_c, 1, 61, 127
1, 132001, Note_on_c, 1, 54, 127
1, 132183, Note_off_c, 1, 54, 0
1, 132735, Note_off_c, 1, 61, 0
1, 132739, Note_on_c, 1, 60, 127
1, 132739, Note_on_c, 1, 65, 127
1, 132739, Note_on_c, 1, 56, 127
1, 132921, Note_off_c, 1, 60, 0
1, 132923, Note_on_c, 1, 62, 127
1, 133105, Note_off_c, 1, 65, 0
1, 133105, Note_off_c, 1, 56, 0
1, 133105, Note_off_c, 1, 62, 0
1, 133107, Note_on_c, 1, 63, 127
1, 133107, Note_on_c, 1, 54, 127
1, 133473, Note_off_c, 1, 63, 0
1, 133473, Note_off_c, 1, 54, 0
1, 133476, Note_on_c, 1, 70, 127
1, 133476, Note_on_c, 1, 62, 127
1, 133476, Note_on_c, 1, 56, 127
1, 133476, Note_on_c, 1, 53, 127
1, 133842, Note_off_c, 1, 70, 0
1, 133842, Note_off_c, 1, 62, 0
1, 133842, Note_off_c, 1, 56, 0
1, 133842, Note_off_c, 1, 53, 0
1, 133845, Note_on_c, 1, 63, 127
1, 133845, Note_on_c, 1, 54, 127
1, 133845, Note_on_c, 1, 70, 127
1, 133845, Note_on_c, 1, 51, 127
1, 134027, Note_off_c, 1, 63, 0
1, 134027, Note_off_c, 1, 54, 0
1, 134030, Note_on_c, 1, 65, 127
1, 134030, Note_on_c, 1, 56, 127
1, 134211, Note_off_c, 1, 70, 0
1, 134211, Note_off_c, 1, 51, 0
1, 134212, Note_off_c, 1, 65, 0
1, 134212, Note_off_c, 1, 56, 0
1, 134214, Note_on_c, 1, 58, 127
1, 134214, Note_on_c, 1, 49, 127
1, 134214, Note_on_c, 1, 70, 127
1, 134214, Note_on_c, 1, 66, 127
1, 134396, Note_off_c, 1, 58, 0
1, 134396, Note_off_c, 1, 49, 0
1, 134398, Note_on_c, 1, 60, 127
1, 134398, Note_on_c, 1, 51, 127
1, 134580, Note_off_c, 1, 70, 0
1, 134580, Note_off_c, 1, 66, 0
1, 134580, Note_off_c, 1, 60, 0
1, 134580, Note_off_c, 1, 51, 0
1, 134582, Note_on_c, 1, 69, 127
1, 134582, Note_on_c, 1, 61, 127
1, 134582, Note_on_c, 1, 65, 127
1, 134582, Note_on_c, 1, 53, 127
1, 134948, Note_off_c, 1, 69, 0
1, 134948, Note_off_c, 1, 61, 0
1, 134951, Note_on_c, 1, 60, 127
1, 134951, Note_on_c, 1, 70, 127
1, 135133, Note_off_c, 1, 60, 0
1, 135136, Note_on_c, 1, 58, 127
1, 135317, Note_off_c, 1, 70, 0
1, 135318, Note_off_c, 1, 58, 0
1, 135320, Note_on_c, 1, 72, 127
1, 135320, Note_on_c, 1, 57, 127
1, 135685, Note_off_c, 1, 65, 0
1, 135685, Note_off_c, 1, 53, 0
1, 135689, Note_on_c, 1, 66, 127
1, 135689, Note_on_c, 1, 51, 127
1, 135871, Note_off_c, 1, 66, 0
1, 135871, Note_off_c, 1, 51, 0
1, 136057, Note_on_c, 1, 63, 127
1, 136057, Note_on_c, 1, 54, 127
1, 136241, Note_off_c, 1, 72, 0
1, 136423, Note_off_c, 1, 57, 0
1, 136423, Note_off_c, 1, 63, 0
1, 136795, Note_on_c, 1, 75, 127
1, 137160, Note_off_c, 1, 54, 0
1, 137164, Note_on_c, 1, 73, 127
1, 137348, Note_on_c, 1, 55, 127
1, 137530, Note_off_c, 1, 73, 0
1, 137530, Note_off_c, 1, 55, 0
1, 137533, Note_on_c, 1, 56, 127
1, 137716, Note_off_c, 1, 75, 0
1, 138270, Note_on_c, 1, 68, 127
1, 138270, Note_on_c, 1, 77, 127
1, 138452, Note_off_c, 1, 68, 0
1, 138636, Note_off_c, 1, 56, 0
1, 138636, Note_off_c, 1, 77, 0
1, 138640, Note_on_c, 1, 55, 127
1, 138640, Note_on_c, 1, 75, 127
1, 138640, Note_on_c, 1, 65, 127
1, 138640, Note_on_c, 1, 72, 127
1, 138822, Note_off_c, 1, 55, 0
1, 138824, Note_on_c, 1, 57, 127
1, 139006, Note_off_c, 1, 75, 0
1, 139006, Note_off_c, 1, 65, 0
1, 139006, Note_off_c, 1, 57, 0
1, 139008, Note_on_c, 1, 58, 127
1, 139008, Note_on_c, 1, 73, 127
1, 139374, Note_off_c, 1, 58, 0
1, 139375, Note_off_c, 1, 72, 0
1, 139377, Note_on_c, 1, 70, 127
1, 139377, Note_on_c, 1, 60, 127
1, 139559, Note_off_c, 1, 70, 0
1, 139561, Note_on_c, 1, 69, 127
1, 139743, Note_off_c, 1, 60, 0
1, 139743, Note_off_c, 1, 69, 0
1, 139746, Note_on_c, 1, 61, 127
1, 140111, Note_off_c, 1, 73, 0
1, 140114, Note_on_c, 1, 68, 127
1, 140299, Note_on_c, 1, 76, 127
1, 140480, Note_off_c, 1, 68, 0
1, 140481, Note_off_c, 1, 76, 0
1, 140483, Note_on_c, 1, 67, 127
1, 140849, Note_off_c, 1, 61, 0
1, 140849, Note_off_c, 1, 67, 0
1, 140851, Note_on_c, 1, 70, 127
1, 140851, Note_on_c, 1, 61, 127
1, 140851, Note_on_c, 1, 55, 127
1, 140851, Note_on_c, 1, 75, 127
1, 141217, Note_off_c, 1, 70, 0
1, 141217, Note_off_c, 1, 61, 0
1, 141217, Note_off_c, 1, 55, 0
1, 141221, Note_on_c, 1, 63, 127
1, 141221, Note_on_c, 1, 59, 127
1, 141221, Note_on_c, 1, 56, 127
1, 141403, Note_off_c, 1, 63, 0
1, 141405, Note_on_c, 1, 65, 127
1, 141586, Note_off_c, 1, 75, 0
1, 141587, Note_off_c, 1, 59, 0
1, 141587, Note_off_c, 1, 56, 0
1, 141587, Note_off_c, 1, 65, 0
1, 141589, Note_on_c, 1, 67, 127
1, 141589, Note_on_c, 1, 61, 127
1, 141589, Note_on_c, 1, 58, 127
1, 141589, Note_on_c, 1, 73, 127
1, 141771, Note_off_c, 1, 67, 0
1, 141774, Note_on_c, 1, 68, 127
1, 141955, Note_off_c, 1, 61, 0
1, 141955, Note_off_c, 1, 58, 0
1, 141956, Note_off_c, 1, 68, 0
1, 141958, Note_on_c, 1, 70, 127
1, 141958, Note_on_c, 1, 55, 127
1, 141958, Note_on_c, 1, 51, 127
1, 142324, Note_off_c, 1, 73, 0
1, 142324, Note_off_c, 1, 70, 0
1, 142324, Note_off_c, 1, 55, 0
1, 142324, Note_off_c, 1, 51, 0
1, 142327, Note_on_c, 1, 71, 127
1, 142327, Note_on_c, 1, 68, 127
1, 142327, Note_on_c, 1, 64, 127
1, 142327, Note_on_c, 1, 56, 127
1, 142693, Note_off_c, 1, 71, 0
1, 142693, Note_off_c, 1, 68, 0
1, 142696, Note_on_c, 1, 70, 127
1, 143062, Note_off_c, 1, 64, 0
1, 143062, Note_off_c, 1, 56, 0
1, 143064, Note_on_c, 1, 63, 127
1, 143064, Note_on_c, 1, 55, 127
1, 143246, Note_off_c, 1, 63, 0
1, 143249, Note_on_c, 1, 62, 127
1, 143430, Note_off_c, 1, 55, 0
1, 143431, Note_off_c, 1, 62, 0
1, 143434, Note_on_c, 1, 59, 127
1, 143799, Note_off_c, 1, 70, 0
1, 144171, Note_on_c, 1, 80, 127
1, 144537, Note_off_c, 1, 59, 0
1, 144540, Note_on_c, 1, 58, 127
1, 144722, Note_off_c, 1, 58, 0
1, 145274, Note_off_c, 1, 80, 0
1, 145277, Note_on_c, 1, 61, 127
1, 145277, Note_on_c, 1, 78, 127
1, 145643, Note_off_c, 1, 61, 0
1, 146012, Note_off_c, 1, 78, 0
1, 146015, Note_on_c, 1, 77, 127
1, 146197, Note_off_c, 1, 77, 0
1, 146199, Note_on_c, 1, 75, 127
1, 146381, Note_off_c, 1, 75, 0
1, 146384, Note_on_c, 1, 74, 127
1, 146750, Note_off_c, 1, 74, 0
1, 147490, Note_on_c, 1, 74, 127
1, 147490, Note_on_c, 1, 65, 127
1, 147490, Note_on_c, 1, 56, 127
1, 147856, Note_off_c, 1, 74, 0
1, 147856, Note_off_c, 1, 65, 0
1, 147856, Note_off_c, 1, 56, 0
1, 147859, Note_on_c, 1, 75, 127
1, 147859, Note_on_c, 1, 58, 127
1, 147859, Note_on_c, 1, 54, 127
1, 148041, Note_off_c, 1, 75, 0
1, 148044, Note_on_c, 1, 73, 127
1, 148225, Note_off_c, 1, 58, 0
1, 148226, Note_off_c, 1, 73, 0
1, 148228, Note_on_c, 1, 71, 127
1, 148228, Note_on_c, 1, 63, 127
1, 148410, Note_off_c, 1, 71, 0
1, 148412, Note_on_c, 1, 70, 127
1, 148594, Note_off_c, 1, 54, 0
1, 148594, Note_off_c, 1, 70, 0
1, 148597, Note_on_c, 1, 68, 127
1, 148597, Note_on_c, 1, 53, 127
1, 148957, Note_off_c, 1, 63, 0
1, 148963, Note_off_c, 1, 68, 0
1, 148965, Note_on_c, 1, 62, 127
1, 149331, Note_off_c, 1, 62, 0
1, 149332, Note_off_c, 1, 53, 0
1, 149334, Note_on_c, 1, 71, 127
1, 149334, Note_on_c, 1, 51, 127
1, 149334, Note_on_c, 1, 66, 127
1, 149700, Note_off_c, 1, 71, 0
1, 149700, Note_off_c, 1, 51, 0
1, 149703, Note_on_c, 1, 70, 127
1, 149703, Note_on_c, 1, 49, 127
1, 150069, Note_off_c, 1, 70, 0
1, 150069, Note_off_c, 1, 49, 0
1, 150071, Note_on_c, 1, 47, 127
1, 150071, Note_on_c, 1, 68, 127
1, 150437, Note_off_c, 1, 66, 0
1, 150437, Note_off_c, 1, 47, 0
1, 150441, Note_on_c, 1, 65, 127
1, 150441, Note_on_c, 1, 59, 127
1, 150623, Note_off_c, 1, 65, 0
1, 150625, Note_on_c, 1, 63, 127
1, 150807, Note_off_c, 1, 59, 0
1, 150807, Note_off_c, 1, 63, 0
1, 150809, Note_on_c, 1, 62, 127
1, 150809, Note_on_c, 1, 58, 127
1, 151174, Note_off_c, 1, 68, 0
1, 151175, Note_off_c, 1, 62, 0
1, 151175, Note_off_c, 1, 58, 0
1, 151178, Note_on_c, 1, 66, 127
1, 151178, Note_on_c, 1, 46, 127
1, 151178, Note_on_c, 1, 63, 127
1, 151544, Note_off_c, 1, 66, 0
1, 151544, Note_off_c, 1, 46, 0
1, 151547, Note_on_c, 1, 65, 127
1, 151913, Note_off_c, 1, 63, 0
1, 151913, Note_off_c, 1, 65, 0
1, 151916, Note_on_c, 1, 64, 127
1, 151916, Note_on_c, 1, 46, 127
1, 151916, Note_on_c, 1, 61, 127
1, 152282, Note_off_c, 1, 64, 0
1, 152282, Note_off_c, 1, 46, 0
1, 152284, Note_on_c, 1, 43, 127
1, 152284, Note_on_c, 1, 63, 127
1, 152466, Note_off_c, 1, 61, 0
1, 152469, Note_on_c, 1, 59, 127
1, 152650, Note_off_c, 1, 43, 0
1, 152651, Note_off_c, 1, 59, 0
1, 152653, Note_on_c, 1, 58, 127
1, 152653, Note_on_c, 1, 44, 127
1, 152835, Note_off_c, 1, 58, 0
1, 152838, Note_on_c, 1, 56, 127
1, 153019, Note_off_c, 1, 44, 0
1, 153020, Note_off_c, 1, 56, 0
1, 153022, Note_on_c, 1, 55, 127
1, 153204, Note_off_c, 1, 55, 0
1, 153387, Note_off_c, 1, 63, 0
1, 154497, Note_on_c, 1, 49, 127
1, 154866, Note_on_c, 1, 54, 127
1, 155048, Note_off_c, 1, 54, 0
1, 155050, Note_on_c, 1, 65, 127
1, 155050, Note_on_c, 1, 53, 127
1, 155232, Note_off_c, 1, 65, 0
1, 155232, Note_off_c, 1, 53, 0
1, 155235, Note_on_c, 1, 51, 127
1, 155235, Note_on_c, 1, 66, 127
1, 155600, Note_off_c, 1, 49, 0
1, 155604, Note_on_c, 1, 47, 127
1, 155786, Note_off_c, 1, 47, 0
1, 155964, Note_off_c, 1, 51, 0
1, 156338, Note_off_c, 1, 66, 0
1, 156342, Note_on_c, 1, 65, 127
1, 156342, Note_on_c, 1, 58, 127
1, 156342, Note_on_c, 1, 49, 127
1, 156524, Note_off_c, 1, 65, 0
1, 156526, Note_on_c, 1, 67, 127
1, 156708, Note_off_c, 1, 58, 0
1, 156708, Note_off_c, 1, 49, 0
1, 156708, Note_off_c, 1, 67, 0
1, 156710, Note_on_c, 1, 63, 127
1, 156710, Note_on_c, 1, 68, 127
1, 156710, Note_on_c, 1, 47, 127
1, 156892, Note_off_c, 1, 63, 0
1, 156894, Note_on_c, 1, 64, 127
1, 157076, Note_off_c, 1, 68, 0
1, 157076, Note_off_c, 1, 64, 0
1, 157260, Note_off_c, 1, 47, 0
1, 157263, Note_on_c, 1, 61, 127
1, 157263, Note_on_c, 1, 46, 127
1, 157445, Note_off_c, 1, 61, 0
1, 157445, Note_off_c, 1, 46, 0
1, 157448, Note_on_c, 1, 59, 127
1, 157448, Note_on_c, 1, 44, 127
1, 157448, Note_on_c, 1, 68, 127
1, 157630, Note_off_c, 1, 59, 0
1, 157630, Note_off_c, 1, 44, 0
1, 157632, Note_on_c, 1, 61, 127
1, 157632, Note_on_c, 1, 46, 127
1, 157814, Note_off_c, 1, 68, 0
1, 157814, Note_off_c, 1, 61, 0
1, 157814, Note_off_c, 1, 46, 0
1, 157817, Note_on_c, 1, 47, 127
1, 157817, Note_on_c, 1, 68, 127
1, 157817, Note_on_c, 1, 63, 127
1, 157999, Note_off_c, 1, 47, 0
1, 158001, Note_on_c, 1, 44, 127
1, 158183, Note_off_c, 1, 68, 0
1, 158183, Note_off_c, 1, 44, 0
1, 158185, Note_on_c, 1, 65, 127
1, 158185, Note_on_c, 1, 49, 127
1, 158367, Note_off_c, 1, 63, 0
1, 158369, Note_on_c, 1, 61, 127
1, 158551, Note_off_c, 1, 65, 0
1, 158551, Note_off_c, 1, 49, 0
1, 158551, Note_off_c, 1, 61, 0
1, 158553, Note_on_c, 1, 59, 127
1, 158553, Note_on_c, 1, 66, 127
1, 158553, Note_on_c, 1, 51, 127
1, 158735, Note_off_c, 1, 59, 0
1, 158739, Note_on_c, 1, 58, 127
1, 158919, Note_off_c, 1, 66, 0
1, 158919, Note_off_c, 1, 51, 0
1, 158921, Note_off_c, 1, 58, 0
1, 158923, Note_on_c, 1, 56, 127
1, 158923, Note_on_c, 1, 53, 127
1, 158923, Note_on_c, 1, 68, 127
1, 159105, Note_off_c, 1, 56, 0
1, 159107, Note_on_c, 1, 58, 127
1, 159289, Note_off_c, 1, 53, 0
1, 159289, Note_off_c, 1, 58, 0
1, 159291, Note_on_c, 1, 59, 127
1, 159291, Note_on_c, 1, 49, 127
1, 159473, Note_off_c, 1, 59, 0
1, 159657, Note_off_c, 1, 49, 0
1, 159660, Note_on_c, 1, 54, 127
1, 160026, Note_off_c, 1, 68, 0
1, 160029, Note_on_c, 1, 66, 127
1, 160029, Note_on_c, 1, 63, 127
1, 160395, Note_off_c, 1, 66, 0
1, 160395, Note_off_c, 1, 63, 0
1, 160398, Note_on_c, 1, 71, 127
1, 160763, Note_off_c, 1, 54, 0
1, 160951, Note_on_c, 1, 51, 127
1, 161133, Note_off_c, 1, 51, 0
1, 161136, Note_on_c, 1, 61, 127
1, 161501, Note_off_c, 1, 71, 0
1, 161504, Note_on_c, 1, 70, 127
1, 161686, Note_off_c, 1, 70, 0
1, 161873, Note_on_c, 1, 73, 127
1, 162239, Note_off_c, 1, 73, 0
1, 162977, Note_off_c, 1, 61, 0
1, 162979, Note_on_c, 1, 68, 127
1, 162979, Note_on_c, 1, 53, 127
1, 162979, Note_on_c, 1, 61, 127
1, 163161, Note_off_c, 1, 68, 0
1, 163161, Note_off_c, 1, 53, 0
1, 163163, Note_on_c, 1, 66, 127
1, 163163, Note_on_c, 1, 51, 127
1, 163345, Note_off_c, 1, 61, 0
1, 163345, Note_off_c, 1, 66, 0
1, 163345, Note_off_c, 1, 51, 0
1, 163348, Note_on_c, 1, 65, 127
1, 163348, Note_on_c, 1, 49, 127
1, 163348, Note_on_c, 1, 61, 127
1, 163530, Note_off_c, 1, 65, 0
1, 163530, Note_off_c, 1, 49, 0
1, 163533, Note_on_c, 1, 67, 127
1, 163533, Note_on_c, 1, 51, 127
1, 163714, Note_off_c, 1, 61, 0
1, 163715, Note_off_c, 1, 67, 0
1, 163715, Note_off_c, 1, 51, 0
1, 163717, Note_on_c, 1, 52, 127
1, 163717, Note_on_c, 1, 61, 127
1, 163717, Note_on_c, 1, 68, 127
1, 163899, Note_off_c, 1, 52, 0
1, 163901, Note_on_c, 1, 49, 127
1, 164083, Note_off_c, 1, 61, 0
1, 164083, Note_off_c, 1, 49, 0
1, 164086, Note_on_c, 1, 58, 127
1, 164086, Note_on_c, 1, 51, 127
1, 164452, Note_off_c, 1, 68, 0
1, 164452, Note_off_c, 1, 58, 0
1, 164454, Note_on_c, 1, 67, 127
1, 164454, Note_on_c, 1, 59, 127
1, 164636, Note_off_c, 1, 67, 0
1, 164820, Note_off_c, 1, 59, 0
1, 164824, Note_on_c, 1, 70, 127
1, 165005, Note_off_c, 1, 51, 0
1, 165008, Note_on_c, 1, 39, 127
1, 165190, Note_off_c, 1, 39, 0
1, 165192, Note_on_c, 1, 41, 127
1, 165374, Note_off_c, 1, 41, 0
1, 165376, Note_on_c, 1, 43, 127
1, 165558, Note_off_c, 1, 43, 0
1, 165561, Note_on_c, 1, 44, 127
1, 165927, Note_off_c, 1, 70, 0
1, 166299, Note_on_c, 1, 64, 127
1, 166664, Note_off_c, 1, 44, 0
1, 166851, Note_on_c, 1, 71, 127
1, 167033, Note_off_c, 1, 71, 0
1, 167037, Note_on_c, 1, 46, 127
1, 167037, Note_on_c, 1, 73, 127
1, 167402, Note_off_c, 1, 64, 0
1, 167405, Note_on_c, 1, 63, 127
1, 167587, Note_off_c, 1, 63, 0
1, 167773, Note_on_c, 1, 66, 127
1, 168139, Note_off_c, 1, 66, 0
1, 168140, Note_off_c, 1, 46, 0
1, 168511, Note_on_c, 1, 47, 127
1, 168878, Note_off_c, 1, 73, 0
1, 168880, Note_on_c, 1, 75, 127
1, 168880, Note_on_c, 1, 55, 127
1, 169246, Note_off_c, 1, 75, 0
1, 169246, Note_off_c, 1, 55, 0
1, 169248, Note_on_c, 1, 56, 127
1, 169614, Note_off_c, 1, 56, 0
1, 169618, Note_on_c, 1, 57, 127
1, 169802, Note_on_c, 1, 65, 127
1, 169983, Note_off_c, 1, 47, 0
1, 169984, Note_off_c, 1, 57, 0
1, 169984, Note_off_c, 1, 65, 0
1, 169986, Note_on_c, 1, 74, 127
1, 169986, Note_on_c, 1, 46, 127
1, 169986, Note_on_c, 1, 66, 127
1, 169986, Note_on_c, 1, 58, 127
1, 170352, Note_off_c, 1, 74, 0
1, 170352, Note_off_c, 1, 46, 0
1, 170355, Note_on_c, 1, 75, 127
1, 170355, Note_on_c, 1, 48, 127
1, 170536, Note_off_c, 1, 66, 0
1, 170721, Note_off_c, 1, 75, 0
1, 170721, Note_off_c, 1, 48, 0
1, 170724, Note_on_c, 1, 65, 127
1, 170724, Note_on_c, 1, 50, 127
1, 170724, Note_on_c, 1, 77, 127
1, 170906, Note_off_c, 1, 65, 0
1, 171089, Note_off_c, 1, 58, 0
1, 171090, Note_off_c, 1, 50, 0
1, 171093, Note_on_c, 1, 56, 127
1, 171093, Note_on_c, 1, 68, 127
1, 171275, Note_off_c, 1, 56, 0
1, 171461, Note_on_c, 1, 51, 127
1, 171461, Note_on_c, 1, 59, 127
1, 171827, Note_off_c, 1, 77, 0
1, 171827, Note_off_c, 1, 51, 0
1, 171828, Note_off_c, 1, 68, 0
1, 172199, Note_on_c, 1, 80, 127
1, 172199, Note_on_c, 1, 53, 127
1, 172564, Note_off_c, 1, 59, 0
1, 172568, Note_on_c, 1, 78, 127
1, 172752, Note_on_c, 1, 60, 127
1, 172934, Note_off_c, 1, 78, 0
1, 172934, Note_off_c, 1, 60, 0
1, 172937, Note_on_c, 1, 61, 127
1, 173302, Note_off_c, 1, 80, 0
1, 173302, Note_off_c, 1, 53, 0
1, 173674, Note_on_c, 1, 82, 127
1, 173674, Note_on_c, 1, 54, 127
1, 174040, Note_off_c, 1, 61, 0
1, 174040, Note_off_c, 1, 82, 0
1, 174228, Note_on_c, 1, 62, 127
1, 174410, Note_off_c, 1, 62, 0
1, 174412, Note_on_c, 1, 63, 127
1, 174777, Note_off_c, 1, 54, 0
1, 174781, Note_on_c, 1, 73, 127
1, 174965, Note_on_c, 1, 55, 127
1, 175147, Note_off_c, 1, 55, 0
1, 175331, Note_off_c, 1, 63, 0
1, 175334, Note_on_c, 1, 64, 127
1, 175516, Note_off_c, 1, 73, 0
1, 175516, Note_off_c, 1, 64, 0
1, 175519, Note_on_c, 1, 71, 127
1, 175701, Note_off_c, 1, 71, 0
1, 175703, Note_on_c, 1, 70, 127
1, 175885, Note_off_c, 1, 70, 0
1, 176625, Note_on_c, 1, 52, 127
1, 177360, Note_off_c, 1, 52, 0
1, 177362, Note_on_c, 1, 58, 127
1, 177362, Note_on_c, 1, 75, 127
1, 177362, Note_on_c, 1, 67, 127
1, 177362, Note_on_c, 1, 51, 127
1, 177726, Note_off_c, 1, 58, 0
1, 177728, Note_off_c, 1, 75, 0
1, 177728, Note_off_c, 1, 67, 0
1, 177731, Note_on_c, 1, 68, 127
1, 177731, Note_on_c, 1, 64, 127
1, 178097, Note_off_c, 1, 51, 0
1, 178097, Note_off_c, 1, 68, 0
1, 178097, Note_off_c, 1, 64, 0
1, 178100, Note_on_c, 1, 64, 127
1, 178100, Note_on_c, 1, 49, 127
1, 178100, Note_on_c, 1, 70, 127
1, 178466, Note_off_c, 1, 64, 0
1, 178835, Note_off_c, 1, 49, 0
1, 178838, Note_on_c, 1, 63, 127
1, 178838, Note_on_c, 1, 47, 127
1, 179203, Note_off_c, 1, 70, 0
1, 179204, Note_off_c, 1, 63, 0
1, 179206, Note_on_c, 1, 68, 127
1, 179206, Note_on_c, 1, 65, 127
1, 179572, Note_off_c, 1, 68, 0
1, 179572, Note_off_c, 1, 65, 0
1, 179575, Note_on_c, 1, 67, 127
1, 179575, Note_on_c, 1, 73, 127
1, 179836, Note_off_c, 1, 47, 0
1, 179941, Note_off_c, 1, 67, 0
1, 179944, Note_on_c, 1, 46, 127
1, 180126, Note_off_c, 1, 46, 0
1, 180129, Note_on_c, 1, 44, 127
1, 180311, Note_off_c, 1, 44, 0
1, 180313, Note_on_c, 1, 43, 127
1, 180678, Note_off_c, 1, 73, 0
1, 180679, Note_off_c, 1, 43, 0
1, 180681, Note_on_c, 1, 71, 127
1, 180681, Note_on_c, 1, 68, 127
1, 180681, Note_on_c, 1, 51, 127
1, 180863, Note_off_c, 1, 71, 0
1, 180866, Note_on_c, 1, 70, 127
1, 181047, Note_off_c, 1, 68, 0
1, 181047, Note_off_c, 1, 51, 0
1, 181048, Note_off_c, 1, 70, 0
1, 181050, Note_on_c, 1, 75, 127
1, 181050, Note_on_c, 1, 51, 127
1, 181050, Note_on_c, 1, 67, 127
1, 181416, Note_off_c, 1, 75, 0
1, 181416, Note_off_c, 1, 51, 0
1, 181419, Note_on_c, 1, 73, 127
1, 181785, Note_off_c, 1, 67, 0
1, 181785, Note_off_c, 1, 73, 0
1, 181788, Note_on_c, 1, 71, 127
1, 181788, Note_on_c, 1, 68, 127
1, 181788, Note_on_c, 1, 50, 127
1, 182154, Note_off_c, 1, 71, 0
1, 182154, Note_off_c, 1, 68, 0
1, 182154, Note_off_c, 1, 50, 0
1, 182156, Note_on_c, 1, 70, 127
1, 182156, Note_on_c, 1, 51, 127
1, 182156, Note_on_c, 1, 66, 127
1, 182522, Note_off_c, 1, 70, 0
1, 182522, Note_off_c, 1, 51, 0
1, 182526, Note_on_c, 1, 53, 127
1, 182526, Note_on_c, 1, 68, 127
1, 182891, Note_off_c, 1, 66, 0
1, 182894, Note_on_c, 1, 65, 127
1, 183076, Note_off_c, 1, 65, 0
1, 183078, Note_on_c, 1, 63, 127
1, 183260, Note_off_c, 1, 63, 0
1, 183263, Note_on_c, 1, 62, 127
1, 183524, Note_off_c, 1, 53, 0
1, 183629, Note_off_c, 1, 68, 0
1, 183629, Note_off_c, 1, 62, 0
1, 183632, Note_on_c, 1, 66, 127
1, 183632, Note_on_c, 1, 51, 127
1, 183632, Note_on_c, 1, 63, 127
1, 183998, Note_off_c, 1, 66, 0
1, 183998, Note_off_c, 1, 51, 0
1, 184001, Note_on_c, 1, 56, 127
1, 184001, Note_on_c, 1, 65, 127
1, 184367, Note_off_c, 1, 63, 0
1, 184369, Note_on_c, 1, 62, 127
1, 184551, Note_off_c, 1, 62, 0
1, 184553, Note_on_c, 1, 60, 127
1, 184735, Note_off_c, 1, 60, 0
1, 185018, Note_off_c, 1, 56, 0
1, 185104, Note_off_c, 1, 65, 0
1, 185107, Note_on_c, 1, 70, 127
1, 185107, Note_on_c, 1, 54, 127
1, 185289, Note_off_c, 1, 70, 0
1, 185289, Note_off_c, 1, 54, 0
1, 185291, Note_on_c, 1, 68, 127
1, 185291, Note_on_c, 1, 53, 127
1, 185473, Note_off_c, 1, 68, 0
1, 185473, Note_off_c, 1, 53, 0
1, 185476, Note_on_c, 1, 66, 127
1, 185476, Note_on_c, 1, 58, 127
1, 185476, Note_on_c, 1, 61, 127
1, 185842, Note_off_c, 1, 66, 0
1, 185842, Note_off_c, 1, 58, 0
1, 185845, Note_on_c, 1, 64, 127
1, 185845, Note_on_c, 1, 56, 127
1, 186211, Note_off_c, 1, 64, 0
1, 186211, Note_off_c, 1, 56, 0
1, 186213, Note_on_c, 1, 63, 127
1, 186213, Note_on_c, 1, 55, 127
1, 186579, Note_off_c, 1, 61, 0
1, 186579, Note_off_c, 1, 63, 0
1, 186579, Note_off_c, 1, 55, 0
1, 186582, Note_on_c, 1, 59, 127
1, 186582, Note_on_c, 1, 51, 127
1, 186582, Note_on_c, 1, 75, 127
1, 186764, Note_off_c, 1, 59, 0
1, 186766, Note_on_c, 1, 58, 127
1, 186948, Note_off_c, 1, 51, 0
1, 186948, Note_off_c, 1, 58, 0
1, 186950, Note_on_c, 1, 56, 127
1, 187132, Note_off_c, 1, 75, 0
1, 187136, Note_on_c, 1, 71, 127
1, 187318, Note_off_c, 1, 71, 0
1, 187320, Note_on_c, 1, 70, 127
1, 187320, Note_on_c, 1, 64, 127
1, 187502, Note_off_c, 1, 70, 0
1, 187504, Note_on_c, 1, 68, 127
1, 187686, Note_off_c, 1, 64, 0
1, 187686, Note_off_c, 1, 68, 0
1, 187688, Note_on_c, 1, 61, 127
1, 188053, Note_off_c, 1, 56, 0
1, 188054, Note_off_c, 1, 61, 0
1, 188057, Note_on_c, 1, 55, 127
1, 188057, Note_on_c, 1, 73, 127
1, 188057, Note_on_c, 1, 58, 127
1, 188239, Note_off_c, 1, 55, 0
1, 188242, Note_on_c, 1, 53, 127
1, 188423, Note_off_c, 1, 73, 0
1, 188423, Note_off_c, 1, 58, 0
1, 188424, Note_off_c, 1, 53, 0
1, 188426, Note_on_c, 1, 73, 127
1, 188426, Note_on_c, 1, 63, 127
1, 188426, Note_on_c, 1, 55, 127
1, 188792, Note_off_c, 1, 73, 0
1, 188792, Note_off_c, 1, 63, 0
1, 188792, Note_off_c, 1, 55, 0
1, 188795, Note_on_c, 1, 73, 127
1, 188795, Note_on_c, 1, 69, 127
1, 188795, Note_on_c, 1, 64, 127
1, 188795, Note_on_c, 1, 54, 127
1, 189161, Note_off_c, 1, 73, 0
1, 189161, Note_off_c, 1, 69, 0
1, 189161, Note_off_c, 1, 64, 0
1, 189163, Note_on_c, 1, 72, 127
1, 189163, Note_on_c, 1, 63, 127
1, 189163, Note_on_c, 1, 68, 127
1, 189529, Note_off_c, 1, 72, 0
1, 189529, Note_off_c, 1, 63, 0
1, 189530, Note_off_c, 1, 54, 0
1, 189533, Note_on_c, 1, 52, 127
1, 189533, Note_on_c, 1, 61, 127
1, 189898, Note_off_c, 1, 68, 0
1, 189899, Note_off_c, 1, 52, 0
1, 189901, Note_on_c, 1, 75, 127
1, 190268, Note_off_c, 1, 61, 0
1, 190270, Note_on_c, 1, 60, 127
1, 190270, Note_on_c, 1, 56, 127
1, 190454, Note_on_c, 1, 66, 127
1, 190636, Note_off_c, 1, 60, 0
1, 190636, Note_off_c, 1, 56, 0
1, 190636, Note_off_c, 1, 66, 0
1, 190639, Note_on_c, 1, 57, 127
1, 191004, Note_off_c, 1, 75, 0
1, 191376, Note_on_c, 1, 78, 127
1, 191742, Note_off_c, 1, 57, 0
1, 192479, Note_off_c, 1, 78, 0
1, 192483, Note_on_c, 1, 76, 127
1, 192483, Note_on_c, 1, 58, 127
1, 192665, Note_off_c, 1, 76, 0
1, 192849, Note_off_c, 1, 58, 0
1, 192851, Note_on_c, 1, 80, 127
1, 192851, Note_on_c, 1, 62, 127
1, 192851, Note_on_c, 1, 59, 127
1, 193217, Note_off_c, 1, 80, 0
1, 193405, Note_on_c, 1, 71, 127
1, 193586, Note_off_c, 1, 62, 0
1, 193587, Note_off_c, 1, 71, 0
1, 193589, Note_on_c, 1, 77, 127
1, 193954, Note_off_c, 1, 59, 0
1, 193955, Note_off_c, 1, 77, 0
1, 193958, Note_on_c, 1, 66, 127
1, 193958, Note_on_c, 1, 58, 127
1, 193958, Note_on_c, 1, 73, 127
1, 194134, Note_off_c, 1, 66, 0
1, 194140, Note_off_c, 1, 58, 0
1, 194143, Note_on_c, 1, 65, 127
1, 194143, Note_on_c, 1, 56, 127
1, 194325, Note_off_c, 1, 65, 0
1, 194325, Note_off_c, 1, 56, 0
1, 194327, Note_on_c, 1, 78, 127
1, 194511, Note_on_c, 1, 68, 127
1, 194687, Note_off_c, 1, 73, 0
1, 194693, Note_off_c, 1, 68, 0
1, 194696, Note_on_c, 1, 60, 127
1, 194696, Note_on_c, 1, 69, 127
1, 194696, Note_on_c, 1, 75, 127
1, 195062, Note_off_c, 1, 60, 0
1, 195064, Note_on_c, 1, 61, 127
1, 195431, Note_off_c, 1, 69, 0
1, 195433, Note_on_c, 1, 71, 127
1, 195797, Note_off_c, 1, 71, 0
1, 195799, Note_off_c, 1, 78, 0
1, 195799, Note_off_c, 1, 75, 0
1, 195799, Note_off_c, 1, 61, 0
1, 195802, Note_on_c, 1, 71, 127
1, 195802, Note_on_c, 1, 68, 127
1, 195802, Note_on_c, 1, 77, 127
1, 195802, Note_on_c, 1, 49, 127
1, 196168, Note_off_c, 1, 71, 0
1, 196531, Note_off_c, 1, 68, 0
1, 196537, Note_off_c, 1, 77, 0
1, 196537, Note_off_c, 1, 49, 0
1, 196540, Note_on_c, 1, 54, 127
1, 196540, Note_on_c, 1, 66, 127
1, 196540, Note_on_c, 1, 70, 127
1, 196540, Note_on_c, 1, 78, 127
1, 196722, Note_off_c, 1, 54, 0
1, 196724, Note_on_c, 1, 53, 127
1, 196906, Note_off_c, 1, 66, 0
1, 196906, Note_off_c, 1, 70, 0
1, 196906, Note_off_c, 1, 53, 0
1, 196908, Note_on_c, 1, 71, 127
1, 197093, Note_on_c, 1, 56, 127
1, 197274, Note_off_c, 1, 71, 0
1, 197275, Note_off_c, 1, 56, 0
1, 197277, Note_on_c, 1, 58, 127
1, 197277, Note_on_c, 1, 73, 127
1, 197459, Note_off_c, 1, 58, 0
1, 197643, Note_off_c, 1, 78, 0
1, 197646, Note_on_c, 1, 76, 127
1, 198012, Note_off_c, 1, 76, 0
1, 198015, Note_on_c, 1, 59, 127
1, 198015, Note_on_c, 1, 75, 127
1, 198197, Note_off_c, 1, 59, 0
1, 198199, Note_on_c, 1, 61, 127
1, 198380, Note_off_c, 1, 73, 0
1, 198381, Note_off_c, 1, 61, 0
1, 198383, Note_on_c, 1, 63, 127
1, 198565, Note_off_c, 1, 63, 0
1, 198750, Note_off_c, 1, 75, 0
1, 200043, Note_on_c, 1, 52, 127
1, 200225, Note_off_c, 1, 52, 0
1, 200228, Note_on_c, 1, 51, 127
1, 200228, Note_on_c, 1, 78, 127
1, 200228, Note_on_c, 1, 82, 127
1, 200410, Note_off_c, 1, 51, 0
1, 200412, Note_on_c, 1, 49, 127
1, 200594, Note_off_c, 1, 78, 0
1, 200594, Note_off_c, 1, 49, 0
1, 200596, Note_on_c, 1, 47, 127
1, 200596, Note_on_c, 1, 76, 127
1, 200778, Note_off_c, 1, 47, 0
1, 200780, Note_on_c, 1, 46, 127
1, 200962, Note_off_c, 1, 76, 0
1, 200962, Note_off_c, 1, 46, 0
1, 200965, Note_on_c, 1, 75, 127
1, 201331, Note_off_c, 1, 82, 0
1, 201334, Note_on_c, 1, 80, 127
1, 201334, Note_on_c, 1, 59, 127
1, 201334, Note_on_c, 1, 63, 127
1, 201516, Note_off_c, 1, 80, 0
1, 201516, Note_off_c, 1, 59, 0
1, 201518, Note_on_c, 1, 79, 127
1, 201518, Note_on_c, 1, 58, 127
1, 201700, Note_off_c, 1, 63, 0
1, 201700, Note_off_c, 1, 79, 0
1, 201700, Note_off_c, 1, 58, 0
1, 202068, Note_off_c, 1, 75, 0
1, 202071, Note_on_c, 1, 61, 127
1, 202071, Note_on_c, 1, 68, 127
1, 202253, Note_off_c, 1, 61, 0
1, 202437, Note_off_c, 1, 68, 0
1, 202441, Note_on_c, 1, 70, 127
1, 202807, Note_off_c, 1, 70, 0
1, 202809, Note_on_c, 1, 71, 127
1, 203175, Note_off_c, 1, 71, 0
1, 203178, Note_on_c, 1, 57, 127
1, 203178, Note_on_c, 1, 73, 127
1, 203178, Note_on_c, 1, 64, 127
1, 203913, Note_off_c, 1, 57, 0
1, 203916, Note_on_c, 1, 56, 127
1, 204281, Note_off_c, 1, 73, 0
1, 204281, Note_off_c, 1, 64, 0
1, 204835, Note_off_c, 1, 56, 0
1, 204838, Note_on_c, 1, 54, 127
1, 205020, Note_off_c, 1, 54, 0
1, 205022, Note_on_c, 1, 53, 127
1, 205204, Note_off_c, 1, 53, 0
1, 205390, Note_on_c, 1, 50, 127
1, 205390, Note_on_c, 1, 77, 127
1, 205759, Note_on_c, 1, 66, 127
1, 205941, Note_off_c, 1, 66, 0
1, 205944, Note_on_c, 1, 65, 127
1, 206126, Note_off_c, 1, 65, 0
1, 206493, Note_off_c, 1, 50, 0
1, 206497, Note_on_c, 1, 48, 127
1, 206679, Note_off_c, 1, 48, 0
1, 207231, Note_off_c, 1, 77, 0
1, 207235, Note_on_c, 1, 39, 127
1, 207601, Note_off_c, 1, 39, 0
1, 207603, Note_on_c, 1, 71, 127
1, 207603, Note_on_c, 1, 66, 127
1, 207603, Note_on_c, 1, 63, 127
1, 207603, Note_on_c, 1, 51, 127
1, 207969, Note_off_c, 1, 71, 0
1, 207969, Note_off_c, 1, 66, 0
1, 207969, Note_off_c, 1, 63, 0
1, 207969, Note_off_c, 1, 51, 0
1, 207972, Note_on_c, 1, 70, 127
1, 207972, Note_on_c, 1, 65, 127
1, 207972, Note_on_c, 1, 61, 127
1, 207972, Note_on_c, 1, 53, 127
1, 208338, Note_off_c, 1, 70, 0
1, 208338, Note_off_c, 1, 65, 0
1, 208338, Note_off_c, 1, 61, 0
1, 208338, Note_off_c, 1, 53, 0
1, 208341, Note_on_c, 1, 63, 127
1, 208341, Note_on_c, 1, 54, 127
1, 208341, Note_on_c, 1, 69, 127
1, 208341, Note_on_c, 1, 60, 127
1, 208707, Note_off_c, 1, 63, 0
1, 208707, Note_off_c, 1, 54, 0
1, 208710, Note_on_c, 1, 65, 127
1, 208710, Note_on_c, 1, 53, 127
1, 208892, Note_off_c, 1, 65, 0
1, 208892, Note_off_c, 1, 53, 0
1, 208894, Note_on_c, 1, 66, 127
1, 208894, Note_on_c, 1, 51, 127
1, 209076, Note_off_c, 1, 69, 0
1, 209076, Note_off_c, 1, 60, 0
1, 209076, Note_off_c, 1, 66, 0
1, 209076, Note_off_c, 1, 51, 0
1, 209078, Note_on_c, 1, 49, 127
1, 209078, Note_on_c, 1, 65, 127
1, 209078, Note_on_c, 1, 61, 127
1, 209078, Note_on_c, 1, 70, 127
1, 209260, Note_off_c, 1, 49, 0
1, 209262, Note_on_c, 1, 48, 127
1, 209444, Note_off_c, 1, 65, 0
1, 209444, Note_off_c, 1, 48, 0
1, 209448, Note_on_c, 1, 66, 127
1, 209448, Note_on_c, 1, 46, 127
1, 209630, Note_off_c, 1, 66, 0
1, 209630, Note_off_c, 1, 46, 0
1, 209632, Note_on_c, 1, 64, 127
1, 209813, Note_off_c, 1, 61, 0
1, 209814, Note_off_c, 1, 64, 0
1, 209816, Note_on_c, 1, 60, 127
1, 209816, Note_on_c, 1, 41, 127
1, 210182, Note_off_c, 1, 60, 0
1, 210369, Note_on_c, 1, 58, 127
1, 210550, Note_off_c, 1, 70, 0
1, 210551, Note_off_c, 1, 58, 0
1, 210553, Note_on_c, 1, 69, 127
1, 210923, Note_on_c, 1, 63, 127
1, 211288, Note_off_c, 1, 41, 0
1, 211288, Note_off_c, 1, 69, 0
1, 211289, Note_off_c, 1, 63, 0
1, 211291, Note_on_c, 1, 62, 127
1, 211291, Note_on_c, 1, 58, 127
1, 211291, Note_on_c, 1, 46, 127
1, 211291, Note_on_c, 1, 70, 127
1, 211657, Note_off_c, 1, 62, 0
1, 211657, Note_off_c, 1, 58, 0
1, 211660, Note_on_c, 1, 63, 127
1, 211660, Note_on_c, 1, 60, 127
1, 212020, Note_off_c, 1, 46, 0
1, 212026, Note_off_c, 1, 63, 0
1, 212026, Note_off_c, 1, 60, 0
1, 212029, Note_on_c, 1, 65, 127
1, 212029, Note_on_c, 1, 61, 127
1, 212394, Note_off_c, 1, 70, 0
1, 212395, Note_off_c, 1, 65, 0
1, 212398, Note_on_c, 1, 68, 127
1, 212398, Note_on_c, 1, 64, 127
1, 212764, Note_off_c, 1, 68, 0
1, 212764, Note_off_c, 1, 64, 0
1, 212766, Note_on_c, 1, 67, 127
1, 213132, Note_off_c, 1, 61, 0
1, 213132, Note_off_c, 1, 67, 0
1, 213136, Note_on_c, 1, 73, 127
1, 213136, Note_on_c, 1, 55, 127
1, 213502, Note_off_c, 1, 73, 0
1, 213502, Note_off_c, 1, 55, 0
1, 213504, Note_on_c, 1, 71, 127
1, 213504, Note_on_c, 1, 56, 127
1, 213870, Note_off_c, 1, 71, 0
1, 213870, Note_off_c, 1, 56, 0
1, 213872, Note_on_c, 1, 61, 127
1, 213872, Note_on_c, 1, 58, 127
1, 213872, Note_on_c, 1, 70, 127
1, 214236, Note_off_c, 1, 61, 0
1, 214238, Note_off_c, 1, 58, 0
1, 214242, Note_on_c, 1, 51, 127
1, 214242, Note_on_c, 1, 59, 127
1, 214607, Note_off_c, 1, 70, 0
1, 214608, Note_off_c, 1, 51, 0
1, 214610, Note_on_c, 1, 68, 127
1, 214610, Note_on_c, 1, 56, 127
1, 214976, Note_off_c, 1, 68, 0
1, 214977, Note_off_c, 1, 59, 0
1, 214979, Note_on_c, 1, 73, 127
1, 215345, Note_off_c, 1, 56, 0
1, 215348, Note_on_c, 1, 55, 127
1, 215714, Note_off_c, 1, 55, 0
1, 215717, Note_on_c, 1, 63, 127
1, 216082, Note_off_c, 1, 73, 0
1, 216083, Note_off_c, 1, 63, 0
1, 216085, Note_on_c, 1, 71, 127
1, 216267, Note_off_c, 1, 71, 0
1, 216270, Note_on_c, 1, 67, 127
1, 216452, Note_off_c, 1, 67, 0
1, 216823, Note_on_c, 1, 76, 127
1, 217189, Note_off_c, 1, 76, 0
1, 217192, Note_on_c, 1, 74, 127
1, 217558, Note_off_c, 1, 74, 0
1, 217560, Note_on_c, 1, 70, 127
1, 217560, Note_on_c, 1, 66, 127
1, 217560, Note_on_c, 1, 63, 127
1, 217926, Note_off_c, 1, 70, 0
1, 217926, Note_off_c, 1, 66, 0
1, 217930, Note_on_c, 1, 65, 127
1, 217930, Note_on_c, 1, 80, 127
1, 218295, Note_off_c, 1, 63, 0
1, 218296, Note_off_c, 1, 65, 0
1, 218298, Note_on_c, 1, 77, 127
1, 218298, Note_on_c, 1, 62, 127
1, 218664, Note_off_c, 1, 77, 0
1, 218664, Note_off_c, 1, 62, 0
1, 219033, Note_off_c, 1, 80, 0
1, 219036, Note_on_c, 1, 78, 127
1, 219036, Note_on_c, 1, 75, 127
1, 219218, Note_off_c, 1, 78, 0
1, 219218, Note_off_c, 1, 75, 0
1, 219220, Note_on_c, 1, 74, 127
1, 219402, Note_off_c, 1, 74, 0
1, 219773, Note_on_c, 1, 83, 127
1, 220139, Note_off_c, 1, 83, 0
1, 220143, Note_on_c, 1, 81, 127
1, 220509, Note_off_c, 1, 81, 0
1, 220511, Note_on_c, 1, 73, 127
1, 220511, Note_on_c, 1, 77, 127
1, 220511, Note_on_c, 1, 70, 127
1, 220693, Note_off_c, 1, 73, 0
1, 220695, Note_on_c, 1, 72, 127
1, 220877, Note_off_c, 1, 77, 0
1, 220877, Note_off_c, 1, 72, 0
1, 220880, Note_on_c, 1, 82, 127
1, 221062, Note_off_c, 1, 82, 0
1, 221064, Note_on_c, 1, 80, 127
1, 221246, Note_off_c, 1, 70, 0
1, 221246, Note_off_c, 1, 80, 0
1, 221248, Note_on_c, 1, 79, 127
1, 221248, Note_on_c, 1, 68, 127
1, 221430, Note_off_c, 1, 79, 0
1, 221614, Note_off_c, 1, 68, 0
1, 221618, Note_on_c, 1, 67, 127
1, 221618, Note_on_c, 1, 75, 127
1, 221984, Note_off_c, 1, 67, 0
1, 221986, Note_on_c, 1, 71, 127
1, 221986, Note_on_c, 1, 63, 127
1, 222168, Note_off_c, 1, 71, 0
1, 222352, Note_off_c, 1, 63, 0
1, 222537, Note_off_c, 1, 75, 0
1, 222540, Note_on_c, 1, 78, 127
1, 222722, Note_off_c, 1, 78, 0
1, 223092, Note_on_c, 1, 74, 127
1, 223274, Note_off_c, 1, 74, 0
1, 223461, Note_on_c, 1, 66, 127
1, 224011, Note_off_c, 1, 66, 0
1, 224199, Note_on_c, 1, 65, 127
1, 224381, Note_off_c, 1, 65, 0
1, 224567, Note_on_c, 1, 62, 127
1, 224749, Note_off_c, 1, 62, 0
1, 225121, Note_on_c, 1, 61, 127
1, 225303, Note_off_c, 1, 61, 0
1, 225305, Note_on_c, 1, 60, 127
1, 225671, Note_off_c, 1, 60, 0
1, 225674, Note_on_c, 1, 65, 127
1, 225674, Note_on_c, 1, 59, 127
1, 225674, Note_on_c, 1, 68, 127
1, 225856, Note_off_c, 1, 65, 0
1, 225858, Note_on_c, 1, 63, 127
1, 226040, Note_off_c, 1, 59, 0
1, 226040, Note_off_c, 1, 63, 0
1, 226043, Note_on_c, 1, 62, 127
1, 226043, Note_on_c, 1, 58, 127
1, 226224, Note_off_c, 1, 68, 0
1, 226407, Note_off_c, 1, 62, 0
1, 226409, Note_off_c, 1, 58, 0
1, 226412, Note_on_c, 1, 66, 127
1, 226412, Note_on_c, 1, 63, 127
1, 226412, Note_on_c, 1, 51, 127
1, 226594, Note_off_c, 1, 66, 0
1, 226596, Note_on_c, 1, 70, 127
1, 226776, Note_off_c, 1, 63, 0
1, 226778, Note_off_c, 1, 51, 0
1, 226778, Note_off_c, 1, 70, 0
1, 226780, Note_on_c, 1, 75, 127
1, 226780, Note_on_c, 1, 51, 127
1, 226962, Note_off_c, 1, 75, 0
1, 226965, Note_on_c, 1, 70, 127
1, 227146, Note_off_c, 1, 51, 0
1, 227147, Note_off_c, 1, 70, 0
1, 227149, Note_on_c, 1, 60, 127
1, 227149, Note_on_c, 1, 78, 127
1, 227149, Note_on_c, 1, 69, 127
1, 227149, Note_on_c, 1, 51, 127
1, 227515, Note_off_c, 1, 60, 0
1, 227515, Note_off_c, 1, 78, 0
1, 227515, Note_off_c, 1, 69, 0
1, 227515, Note_off_c, 1, 51, 0
1, 227518, Note_on_c, 1, 50, 127
1, 227518, Note_on_c, 1, 77, 127
1, 227518, Note_on_c, 1, 70, 127
1, 227518, Note_on_c, 1, 65, 127
1, 227884, Note_off_c, 1, 50, 0
1, 227887, Note_on_c, 1, 51, 127
1, 228247, Note_off_c, 1, 77, 0
1, 228247, Note_off_c, 1, 70, 0
1, 228247, Note_off_c, 1, 65, 0
1, 228253, Note_off_c, 1, 51, 0
1, 228255, Note_on_c, 1, 53, 127
1, 228625, Note_on_c, 1, 83, 127
1, 228625, Note_on_c, 1, 74, 127
1, 228625, Note_on_c, 1, 65, 127
1, 228991, Note_off_c, 1, 83, 0
1, 228991, Note_off_c, 1, 74, 0
1, 228991, Note_off_c, 1, 65, 0
1, 228993, Note_on_c, 1, 82, 127
1, 228993, Note_on_c, 1, 78, 127
1, 228993, Note_on_c, 1, 58, 127
1, 229358, Note_off_c, 1, 53, 0
1, 229362, Note_on_c, 1, 51, 127
1, 229722, Note_off_c, 1, 82, 0
1, 229722, Note_off_c, 1, 78, 0
1, 229722, Note_off_c, 1, 58, 0
1, 229728, Note_off_c, 1, 51, 0
1, 229731, Note_on_c, 1, 56, 127
1, 230100, Note_on_c, 1, 80, 127
1, 230100, Note_on_c, 1, 71, 127
1, 230100, Note_on_c, 1, 63, 127
1, 230466, Note_off_c, 1, 80, 0
1, 230466, Note_off_c, 1, 71, 0
1, 230466, Note_off_c, 1, 63, 0
1, 230468, Note_on_c, 1, 74, 127
1, 230468, Note_on_c, 1, 70, 127
1, 230468, Note_on_c, 1, 65, 127
1, 230834, Note_off_c, 1, 56, 0
1, 230838, Note_on_c, 1, 54, 127
1, 231020, Note_off_c, 1, 54, 0
1, 231022, Note_on_c, 1, 53, 127
1, 231197, Note_off_c, 1, 74, 0
1, 231197, Note_off_c, 1, 70, 0
1, 231197, Note_off_c, 1, 65, 0
1, 231204, Note_off_c, 1, 53, 0
1, 231206, Note_on_c, 1, 58, 127
1, 231572, Note_off_c, 1, 58, 0
1, 231575, Note_on_c, 1, 77, 127
1, 231575, Note_on_c, 1, 65, 127
1, 231575, Note_on_c, 1, 62, 127
1, 231575, Note_on_c, 1, 56, 127
1, 231941, Note_off_c, 1, 77, 0
1, 231941, Note_off_c, 1, 65, 0
1, 231941, Note_off_c, 1, 62, 0
1, 231941, Note_off_c, 1, 56, 0
1, 231944, Note_on_c, 1, 70, 127
1, 231944, Note_on_c, 1, 66, 127
1, 231944, Note_on_c, 1, 63, 127
1, 231944, Note_on_c, 1, 54, 127
1, 232310, Note_off_c, 1, 70, 0
1, 232310, Note_off_c, 1, 66, 0
1, 232310, Note_off_c, 1, 63, 0
1, 232310, Note_off_c, 1, 54, 0
1, 232312, Note_on_c, 1, 75, 127
1, 232312, Note_on_c, 1, 66, 127
1, 232312, Note_on_c, 1, 58, 127
1, 232312, Note_on_c, 1, 51, 127
1, 232494, Note_off_c, 1, 75, 0
1, 232494, Note_off_c, 1, 66, 0
1, 232494, Note_off_c, 1, 58, 0
1, 232494, Note_off_c, 1, 51, 0
1, 232497, Note_on_c, 1, 74, 127
1, 232497, Note_on_c, 1, 65, 127
1, 232497, Note_on_c, 1, 56, 127
1, 232497, Note_on_c, 1, 53, 127
1, 232679, Note_off_c, 1, 74, 0
1, 232679, Note_off_c, 1, 65, 0
1, 232679, Note_off_c, 1, 56, 0
1, 232679, Note_off_c, 1, 53, 0
1, 232681, Note_on_c, 1, 75, 127
1, 232681, Note_on_c, 1, 63, 127
1, 232681, Note_on_c, 1, 58, 127
1, 232681, Note_on_c, 1, 54, 127
1, 233047, Note_off_c, 1, 75, 0
1, 233047, Note_off_c, 1, 63, 0
1, 233047, Note_off_c, 1, 58, 0
1, 233047, Note_off_c, 1, 54, 0
1, 233049, Note_on_c, 1, 68, 127
1, 233049, Note_on_c, 1, 59, 127
1, 233049, Note_on_c, 1, 56, 127
1, 233049, Note_on_c, 1, 65, 127
1, 233415, Note_off_c, 1, 68, 0
1, 233415, Note_off_c, 1, 59, 0
1, 233415, Note_off_c, 1, 56, 0
1, 233419, Note_on_c, 1, 66, 127
1, 233419, Note_on_c, 1, 58, 127
1, 233784, Note_off_c, 1, 65, 0
1, 233787, Note_on_c, 1, 63, 127
1, 234154, Note_off_c, 1, 66, 0
1, 234156, Note_on_c, 1, 46, 127
1, 234522, Note_off_c, 1, 58, 0
1, 234522, Note_off_c, 1, 63, 0
1, 234525, Note_on_c, 1, 62, 127
1, 234891, Note_off_c, 1, 46, 0
1, 234891, Note_off_c, 1, 62, 0
1, 234894, Note_on_c, 1, 63, 127
1, 234894, Note_on_c, 1, 54, 127
1, 234894, Note_on_c, 1, 51, 127
1, 235272, Note_off_c, 1, 63, 0
1, 235272, Note_off_c, 1, 54, 0
1, 235274, Note_on_c, 1, 66, 127
1, 235274, Note_on_c, 1, 75, 127
1, 235274, Note_on_c, 1, 58, 127
1, 235462, Note_off_c, 1, 66, 0
1, 235464, Note_on_c, 1, 65, 127
1, 235652, Note_off_c, 1, 75, 0
1, 235652, Note_off_c, 1, 58, 0
1, 235652, Note_off_c, 1, 65, 0
1, 235845, Note_on_c, 1, 70, 127
1, 236033, Note_off_c, 1, 70, 0
1, 236035, Note_on_c, 1, 68, 127
1, 236223, Note_off_c, 1, 68, 0
1, 236415, Note_on_c, 1, 74, 127
1, 236415, Note_on_c, 1, 59, 127
1, 236793, Note_off_c, 1, 51, 0
1, 236793, Note_off_c, 1, 74, 0
1, 236793, Note_off_c, 1, 59, 0
1, 236795, Note_on_c, 1, 66, 127
1, 236795, Note_on_c, 1, 51, 127
1, 236795, Note_on_c, 1, 75, 127
1, 236795, Note_on_c, 1, 58, 127
1, 236983, Note_off_c, 1, 66, 0
1, 236983, Note_off_c, 1, 51, 0
1, 236985, Note_on_c, 1, 70, 127
1, 236985, Note_on_c, 1, 50, 127
1, 237173, Note_off_c, 1, 75, 0
1, 237173, Note_off_c, 1, 58, 0
1, 237173, Note_off_c, 1, 70, 0
1, 237173, Note_off_c, 1, 50, 0
1, 237176, Note_on_c, 1, 71, 127
1, 237176, Note_on_c, 1, 51, 127
1, 237176, Note_on_c, 1, 77, 127
1, 237176, Note_on_c, 1, 56, 127
1, 237364, Note_off_c, 1, 71, 0
1, 237364, Note_off_c, 1, 51, 0
1, 237366, Note_on_c, 1, 70, 127
1, 237366, Note_on_c, 1, 54, 127
1, 237554, Note_off_c, 1, 70, 0
1, 237554, Note_off_c, 1, 54, 0
1, 237556, Note_on_c, 1, 53, 127
1, 237744, Note_off_c, 1, 53, 0
1, 237937, Note_on_c, 1, 50, 127
1, 238322, Note_off_c, 1, 77, 0
1, 238322, Note_off_c, 1, 56, 0
1, 238322, Note_off_c, 1, 50, 0
1, 238325, Note_on_c, 1, 75, 127
1, 238325, Note_on_c, 1, 58, 127
1, 238325, Note_on_c, 1, 54, 127
1, 238325, Note_on_c, 1, 70, 127
1, 238710, Note_off_c, 1, 75, 0
1, 238710, Note_off_c, 1, 58, 0
1, 238710, Note_off_c, 1, 54, 0
1, 238713, Note_on_c, 1, 80, 127
1, 238713, Note_on_c, 1, 53, 127
1, 238904, Note_off_c, 1, 70, 0
1, 238906, Note_on_c, 1, 47, 127
1, 239098, Note_off_c, 1, 47, 0
1, 239100, Note_on_c, 1, 74, 127
1, 239100, Note_on_c, 1, 46, 127
1, 239292, Note_off_c, 1, 74, 0
1, 239292, Note_off_c, 1, 46, 0
1, 239294, Note_on_c, 1, 72, 127
1, 239294, Note_on_c, 1, 44, 127
1, 239486, Note_off_c, 1, 72, 0
1, 239486, Note_off_c, 1, 44, 0
1, 239874, Note_off_c, 1, 80, 0
1, 239874, Note_off_c, 1, 53, 0
1, 239876, Note_on_c, 1, 78, 127
1, 240068, Note_off_c, 1, 78, 0
1, 240070, Note_on_c, 1, 77, 127
1, 240070, Note_on_c, 1, 56, 127
1, 240070, Note_on_c, 1, 44, 127
1, 240262, Note_off_c, 1, 77, 0
1, 240262, Note_off_c, 1, 56, 0
1, 240262, Note_off_c, 1, 44, 0
1, 240264, Note_on_c, 1, 78, 127
1, 240264, Note_on_c, 1, 82, 127
1, 240264, Note_on_c, 1, 51, 127
1, 240264, Note_on_c, 1, 42, 127
1, 240668, Note_off_c, 1, 78, 0
1, 240668, Note_off_c, 1, 82, 0
1, 240668, Note_off_c, 1, 51, 0
1, 240668, Note_off_c, 1, 42, 0
1, 240671, Note_on_c, 1, 80, 127
1, 240671, Note_on_c, 1, 74, 127
1, 240671, Note_on_c, 1, 53, 127
1, 240671, Note_on_c, 1, 46, 127
1, 241075, Note_off_c, 1, 80, 0
1, 241075, Note_off_c, 1, 74, 0
1, 241075, Note_off_c, 1, 53, 0
1, 241075, Note_off_c, 1, 46, 0
1, 241079, Note_on_c, 1, 78, 127
1, 241079, Note_on_c, 1, 75, 127
1, 241079, Note_on_c, 1, 54, 127
1, 241079, Note_on_c, 1, 51, 127
1, 241483, Note_off_c, 1, 78, 0
1, 241483, Note_off_c, 1, 75, 0
1, 241483, Note_off_c, 1, 54, 0
1, 241483, Note_off_c, 1, 51, 0
1, 241486, Note_on_c, 1, 74, 127
1, 241486, Note_on_c, 1, 68, 127
1, 241486, Note_on_c, 1, 59, 127
1, 241486, Note_on_c, 1, 53, 127
1, 241890, Note_off_c, 1, 74, 0
1, 241890, Note_off_c, 1, 68, 0
1, 241890, Note_off_c, 1, 59, 0
1, 241890, Note_off_c, 1, 53, 0
1, 241893, Note_on_c, 1, 66, 127
1, 241893, Note_on_c, 1, 58, 127
1, 241893, Note_on_c, 1, 54, 127
1, 241893, Note_on_c, 1, 75, 127
1, 242093, Note_off_c, 1, 66, 0
1, 242097, Note_on_c, 1, 65, 127
1, 242297, Note_off_c, 1, 58, 0
1, 242297, Note_off_c, 1, 54, 0
1, 242297, Note_off_c, 1, 65, 0
1, 242300, Note_on_c, 1, 51, 127
1, 242300, Note_on_c, 1, 71, 127
1, 242300, Note_on_c, 1, 45, 127
1, 242500, Note_off_c, 1, 51, 0
1, 242504, Note_on_c, 1, 53, 127
1, 242702, Note_off_c, 1, 71, 0
1, 242704, Note_off_c, 1, 45, 0
1, 242704, Note_off_c, 1, 53, 0
1, 242708, Note_on_c, 1, 70, 127
1, 242708, Note_on_c, 1, 46, 127
1, 243164, Note_on_c, 1, 68, 127
1, 243389, Note_off_c, 1, 68, 0
1, 243619, Note_off_c, 1, 75, 0
1, 243622, Note_on_c, 1, 74, 127
1, 244533, Note_off_c, 1, 70, 0
1, 244533, Note_off_c, 1, 46, 0
1, 244533, Note_off_c, 1, 74, 0
1, 244537, Note_on_c, 1, 75, 127
1, 244537, Note_on_c, 1, 70, 127
1, 244537, Note_on_c, 1, 63, 127
1, 244537, Note_on_c, 1, 67, 127
1, 244537, Note_on_c, 1, 39, 127
1, 247968, Note_off_c, 1, 75, 0
1, 247968, Note_off_c, 1, 70, 0
1, 247968, Note_off_c, 1, 63, 0
1, 247968, Note_off_c, 1, 67, 0
1, 247968, Note_off_c, 1, 39, 0
1, 247968, End_track
0, 0, End_of_file