0, 0, Header, 1, 1, 480
1, 0, Start_track
1, 0, Title_t, "Test"
1, 0, Tempo, 500000
1, 0, Instrument_name_t, "Church Organ"
1, 0, Note_on_c, 1, 77, 127
1, 96, Note_off_c, 1, 77, 0
1, 120, Note_on_c, 1, 77, 127
1, 120, Note_on_c, 1, 53, 127
1, 240, Note_on_c, 1, 55, 127
1, 336, Note_off_c, 1, 55, 0
1, 360, Note_on_c, 1, 57, 127
1, 408, Note_off_c, 1, 77, 0
1, 480, Note_on_c, 1, 72, 127
1, 552, Note_off_c, 1, 57, 0
1, 576, Note_off_c, 1, 72, 0
1, 600, Note_on_c, 1, 74, 127
1, 600, Note_on_c, 1, 58, 127
1, 792, Note_off_c, 1, 58, 0
1, 840, Note_on_c, 1, 60, 127
1, 888, Note_off_c, 1, 53, 0
1, 888, Note_off_c, 1, 74, 0
1, 1032, Note_off_c, 1, 60, 0
1, 1080, Note_on_c, 1, 72, 127
1, 1080, Note_on_c, 1, 62, 127
1, 1272, Note_off_c, 1, 72, 0
1, 1272, Note_off_c, 1, 62, 0
1, 1320, Note_on_c, 1, 72, 127
1, 1320, Note_on_c, 1, 64, 127
1, 1344, Note_off_c, 1, 72, 0
1, 1350, Note_on_c, 1, 70, 127
1, 1374, Note_off_c, 1, 70, 0
1, 1440, Note_on_c, 1, 69, 127
1, 1488, Note_off_c, 1, 69, 0
1, 1512, Note_off_c, 1, 64, 0
1, 1560, Note_on_c, 1, 69, 127
1, 1560, Note_on_c, 1, 65, 127
1, 1656, Note_off_c, 1, 69, 0
1, 1680, Note_on_c, 1, 72, 127
1, 1776, Note_off_c, 1, 72, 0
1, 1800, Note_on_c, 1, 74, 127
1, 1848, Note_off_c, 1, 65, 0
1, 1896, Note_off_c, 1, 74, 0
1, 1920, Note_on_c, 1, 76, 127
1, 1920, Note_on_c, 1, 60, 127
1, 2016, Note_off_c, 1, 76, 0
1, 2016, Note_off_c, 1, 60, 0
1, 2040, Note_on_c, 1, 77, 127
1, 2040, Note_on_c, 1, 62, 127
1, 2136, Note_off_c, 1, 77, 0
1, 2160, Note_on_c, 1, 81, 127
1, 2256, Note_off_c, 1, 81, 0
1, 2280, Note_on_c, 1, 79, 127
1, 2328, Note_off_c, 1, 62, 0
1, 2376, Note_off_c, 1, 79, 0
1, 2400, Note_on_c, 1, 81, 127
1, 2400, Note_on_c, 1, 65, 127
1, 2496, Note_off_c, 1, 81, 0
1, 2496, Note_off_c, 1, 65, 0
1, 2520, Note_on_c, 1, 82, 127
1, 2520, Note_on_c, 1, 60, 127
1, 2616, Note_off_c, 1, 82, 0
1, 2640, Note_on_c, 1, 81, 127
1, 2712, Note_off_c, 1, 60, 0
1, 2736, Note_off_c, 1, 81, 0
1, 2760, Note_on_c, 1, 79, 127
1, 2760, Note_on_c, 1, 60, 127
1, 2789, Note_off_c, 1, 60, 0
1, 2790, Note_on_c, 1, 58, 127
1, 2819, Note_off_c, 1, 58, 0
1, 2856, Note_off_c, 1, 79, 0
1, 2880, Note_on_c, 1, 77, 127
1, 2880, Note_on_c, 1, 57, 127
1, 2928, Note_off_c, 1, 57, 0
1, 2940, Note_on_c, 1, 58, 127
1, 2976, Note_off_c, 1, 77, 0
1, 2988, Note_off_c, 1, 58, 0
1, 3000, Note_on_c, 1, 84, 127
1, 3000, Note_on_c, 1, 57, 127
1, 3096, Note_off_c, 1, 57, 0
1, 3120, Note_on_c, 1, 53, 127
1, 3192, Note_off_c, 1, 84, 0
1, 3216, Note_off_c, 1, 53, 0
1, 3240, Note_on_c, 1, 72, 127
1, 3240, Note_on_c, 1, 55, 127
1, 3336, Note_off_c, 1, 55, 0
1, 3360, Note_on_c, 1, 57, 127
1, 3432, Note_off_c, 1, 72, 0
1, 3456, Note_off_c, 1, 57, 0
1, 3480, Note_on_c, 1, 74, 127
1, 3480, Note_on_c, 1, 58, 127
1, 3576, Note_off_c, 1, 58, 0
1, 3600, Note_on_c, 1, 60, 127
1, 3696, Note_off_c, 1, 60, 0
1, 3720, Note_on_c, 1, 57, 127
1, 3768, Note_off_c, 1, 74, 0
1, 3816, Note_off_c, 1, 57, 0
1, 3840, Note_on_c, 1, 82, 127
1, 3840, Note_on_c, 1, 58, 127
1, 3936, Note_off_c, 1, 82, 0
1, 3936, Note_off_c, 1, 58, 0
1, 3960, Note_on_c, 1, 81, 127
1, 3960, Note_on_c, 1, 60, 127
1, 4056, Note_off_c, 1, 60, 0
1, 4080, Note_on_c, 1, 59, 127
1, 4152, Note_off_c, 1, 81, 0
1, 4176, Note_off_c, 1, 59, 0
1, 4200, Note_on_c, 1, 81, 127
1, 4200, Note_on_c, 1, 57, 127
1, 4224, Note_off_c, 1, 81, 0
1, 4230, Note_on_c, 1, 79, 127
1, 4254, Note_off_c, 1, 79, 0
1, 4296, Note_off_c, 1, 57, 0
1, 4320, Note_on_c, 1, 55, 127
1, 4380, Note_on_c, 1, 77, 127
1, 4416, Note_off_c, 1, 55, 0
1, 4428, Note_off_c, 1, 77, 0
1, 4440, Note_on_c, 1, 77, 127
1, 4440, Note_on_c, 1, 60, 127
1, 4464, Note_off_c, 1, 77, 0
1, 4470, Note_on_c, 1, 76, 127
1, 4494, Note_off_c, 1, 76, 0
1, 4536, Note_off_c, 1, 60, 0
1, 4560, Note_on_c, 1, 59, 127
1, 4656, Note_off_c, 1, 59, 0
1, 4800, Note_on_c, 1, 77, 127
1, 4800, Note_on_c, 1, 62, 127
1, 4896, Note_off_c, 1, 77, 0
1, 4896, Note_off_c, 1, 62, 0
1, 4920, Note_on_c, 1, 79, 127
1, 4920, Note_on_c, 1, 64, 127
1, 5016, Note_off_c, 1, 64, 0
1, 5040, Note_on_c, 1, 67, 127
1, 5112, Note_off_c, 1, 79, 0
1, 5136, Note_off_c, 1, 67, 0
1, 5160, Note_on_c, 1, 81, 127
1, 5160, Note_on_c, 1, 65, 127
1, 5256, Note_off_c, 1, 81, 0
1, 5256, Note_off_c, 1, 65, 0
1, 5280, Note_on_c, 1, 82, 127
1, 5280, Note_on_c, 1, 67, 127
1, 5376, Note_off_c, 1, 82, 0
1, 5376, Note_off_c, 1, 67, 0
1, 5400, Note_on_c, 1, 81, 127
1, 5400, Note_on_c, 1, 61, 127
1, 5496, Note_off_c, 1, 81, 0
1, 5520, Note_on_c, 1, 79, 127
1, 5592, Note_off_c, 1, 61, 0
1, 5616, Note_off_c, 1, 79, 0
1, 5640, Note_on_c, 1, 77, 127
1, 5640, Note_on_c, 1, 57, 127
1, 5736, Note_off_c, 1, 77, 0
1, 5760, Note_on_c, 1, 76, 127
1, 5832, Note_off_c, 1, 57, 0
1, 5856, Note_off_c, 1, 76, 0
1, 5880, Note_on_c, 1, 77, 127
1, 5880, Note_on_c, 1, 62, 127
1, 5904, Note_off_c, 1, 77, 0
1, 5910, Note_on_c, 1, 76, 127
1, 5934, Note_off_c, 1, 76, 0
1, 6072, Note_off_c, 1, 62, 0
1, 6120, Note_on_c, 1, 50, 127
1, 6216, Note_off_c, 1, 50, 0
1, 6240, Note_on_c, 1, 76, 127
1, 6240, Note_on_c, 1, 52, 127
1, 6336, Note_off_c, 1, 76, 0
1, 6336, Note_off_c, 1, 52, 0
1, 6360, Note_on_c, 1, 74, 127
1, 6360, Note_on_c, 1, 53, 127
1, 6456, Note_off_c, 1, 53, 0
1, 6480, Note_on_c, 1, 55, 127
1, 6552, Note_off_c, 1, 74, 0
1, 6576, Note_off_c, 1, 55, 0
1, 6600, Note_on_c, 1, 72, 127
1, 6600, Note_on_c, 1, 52, 127
1, 6696, Note_off_c, 1, 72, 0
1, 6696, Note_off_c, 1, 52, 0
1, 6720, Note_on_c, 1, 71, 127
1, 6720, Note_on_c, 1, 53, 127
1, 6816, Note_off_c, 1, 71, 0
1, 6816, Note_off_c, 1, 53, 0
1, 6840, Note_on_c, 1, 72, 127
1, 6840, Note_on_c, 1, 55, 127
1, 6864, Note_off_c, 1, 72, 0
1, 6870, Note_on_c, 1, 71, 127
1, 6894, Note_off_c, 1, 71, 0
1, 6936, Note_off_c, 1, 55, 0
1, 6960, Note_on_c, 1, 54, 127
1, 7056, Note_off_c, 1, 54, 0
1, 7080, Note_on_c, 1, 52, 127
1, 7176, Note_off_c, 1, 52, 0
1, 7200, Note_on_c, 1, 74, 127
1, 7200, Note_on_c, 1, 50, 127
1, 7296, Note_off_c, 1, 74, 0
1, 7296, Note_off_c, 1, 50, 0
1, 7320, Note_on_c, 1, 72, 127
1, 7320, Note_on_c, 1, 55, 127
1, 7344, Note_off_c, 1, 72, 0
1, 7350, Note_on_c, 1, 71, 127
1, 7374, Note_off_c, 1, 71, 0
1, 7416, Note_off_c, 1, 55, 0
1, 7440, Note_on_c, 1, 57, 127
1, 7536, Note_off_c, 1, 57, 0
1, 7680, Note_on_c, 1, 69, 127
1, 7680, Note_on_c, 1, 53, 127
1, 7776, Note_off_c, 1, 69, 0
1, 7776, Note_off_c, 1, 53, 0
1, 7800, Note_on_c, 1, 67, 127
1, 7800, Note_on_c, 1, 52, 127
1, 7896, Note_off_c, 1, 52, 0
1, 7920, Note_on_c, 1, 55, 127
1, 8016, Note_off_c, 1, 55, 0
1, 8040, Note_on_c, 1, 53, 127
1, 8088, Note_off_c, 1, 67, 0
1, 8136, Note_off_c, 1, 53, 0
1, 8160, Note_on_c, 1, 79, 127
1, 8160, Note_on_c, 1, 52, 127
1, 8256, Note_off_c, 1, 79, 0
1, 8256, Note_off_c, 1, 52, 0
1, 8280, Note_on_c, 1, 77, 127
1, 8280, Note_on_c, 1, 50, 127
1, 8376, Note_off_c, 1, 77, 0
1, 8376, Note_off_c, 1, 50, 0
1, 8400, Note_on_c, 1, 76, 127
1, 8400, Note_on_c, 1, 48, 127
1, 8496, Note_off_c, 1, 76, 0
1, 8496, Note_off_c, 1, 48, 0
1, 8520, Note_on_c, 1, 74, 127
1, 8520, Note_on_c, 1, 60, 127
1, 8616, Note_off_c, 1, 74, 0
1, 8640, Note_on_c, 1, 72, 127
1, 8712, Note_off_c, 1, 60, 0
1, 8736, Note_off_c, 1, 72, 0
1, 8760, Note_on_c, 1, 81, 127
1, 8760, Note_on_c, 1, 53, 127
1, 8856, Note_off_c, 1, 53, 0
1, 8880, Note_on_c, 1, 52, 127
1, 8976, Note_off_c, 1, 52, 0
1, 9000, Note_on_c, 1, 50, 127
1, 9048, Note_off_c, 1, 81, 0
1, 9096, Note_off_c, 1, 50, 0
1, 9120, Note_on_c, 1, 76, 127
1, 9120, Note_on_c, 1, 48, 127
1, 9216, Note_off_c, 1, 76, 0
1, 9216, Note_off_c, 1, 48, 0
1, 9240, Note_on_c, 1, 77, 127
1, 9240, Note_on_c, 1, 47, 127
1, 9336, Note_off_c, 1, 47, 0
1, 9360, Note_on_c, 1, 43, 127
1, 9456, Note_off_c, 1, 43, 0
1, 9480, Note_on_c, 1, 48, 127
1, 9528, Note_off_c, 1, 77, 0
1, 9600, Note_on_c, 1, 79, 127
1, 9672, Note_off_c, 1, 48, 0
1, 9696, Note_off_c, 1, 79, 0
1, 9720, Note_on_c, 1, 76, 127
1, 9720, Note_on_c, 1, 55, 127
1, 9749, Note_off_c, 1, 76, 0
1, 9750, Note_on_c, 1, 74, 127
1, 9779, Note_off_c, 1, 74, 0
1, 9912, Note_off_c, 1, 55, 0
1, 9960, Note_on_c, 1, 43, 127
1, 10080, Note_on_c, 1, 72, 127
1, 10152, Note_off_c, 1, 43, 0
1, 10176, Note_off_c, 1, 72, 0
1, 10200, Note_on_c, 1, 72, 127
1, 10200, Note_on_c, 1, 48, 127
1, 10440, Note_on_c, 1, 36, 127
1, 10584, Note_off_c, 1, 48, 0
1, 10680, Note_on_c, 1, 43, 127
1, 10872, Note_off_c, 1, 43, 0
1, 10920, Note_on_c, 1, 64, 127
1, 10920, Note_on_c, 1, 67, 127
1, 11304, Note_off_c, 1, 72, 0
1, 11304, Note_off_c, 1, 36, 0
1, 11304, Note_off_c, 1, 64, 0
1, 11304, Note_off_c, 1, 67, 0
1, 11520, Note_on_c, 1, 77, 127
1, 11616, Note_off_c, 1, 77, 0
1, 11640, Note_on_c, 1, 77, 127
1, 11640, Note_on_c, 1, 53, 127
1, 11760, Note_on_c, 1, 55, 127
1, 11856, Note_off_c, 1, 55, 0
1, 11880, Note_on_c, 1, 57, 127
1, 11928, Note_off_c, 1, 77, 0
1, 12000, Note_on_c, 1, 72, 127
1, 12072, Note_off_c, 1, 57, 0
1, 12096, Note_off_c, 1, 72, 0
1, 12120, Note_on_c, 1, 74, 127
1, 12120, Note_on_c, 1, 58, 127
1, 12312, Note_off_c, 1, 58, 0
1, 12360, Note_on_c, 1, 60, 127
1, 12408, Note_off_c, 1, 53, 0
1, 12408, Note_off_c, 1, 74, 0
1, 12552, Note_off_c, 1, 60, 0
1, 12600, Note_on_c, 1, 72, 127
1, 12600, Note_on_c, 1, 62, 127
1, 12792, Note_off_c, 1, 72, 0
1, 12792, Note_off_c, 1, 62, 0
1, 12840, Note_on_c, 1, 72, 127
1, 12840, Note_on_c, 1, 64, 127
1, 12864, Note_off_c, 1, 72, 0
1, 12870, Note_on_c, 1, 70, 127
1, 12894, Note_off_c, 1, 70, 0
1, 12960, Note_on_c, 1, 69, 127
1, 13008, Note_off_c, 1, 69, 0
1, 13032, Note_off_c, 1, 64, 0
1, 13080, Note_on_c, 1, 69, 127
1, 13080, Note_on_c, 1, 65, 127
1, 13176, Note_off_c, 1, 69, 0
1, 13200, Note_on_c, 1, 72, 127
1, 13296, Note_off_c, 1, 72, 0
1, 13320, Note_on_c, 1, 74, 127
1, 13368, Note_off_c, 1, 65, 0
1, 13416, Note_off_c, 1, 74, 0
1, 13440, Note_on_c, 1, 76, 127
1, 13440, Note_on_c, 1, 60, 127
1, 13536, Note_off_c, 1, 76, 0
1, 13536, Note_off_c, 1, 60, 0
1, 13560, Note_on_c, 1, 77, 127
1, 13560, Note_on_c, 1, 62, 127
1, 13656, Note_off_c, 1, 77, 0
1, 13680, Note_on_c, 1, 81, 127
1, 13776, Note_off_c, 1, 81, 0
1, 13800, Note_on_c, 1, 79, 127
1, 13848, Note_off_c, 1, 62, 0
1, 13896, Note_off_c, 1, 79, 0
1, 13920, Note_on_c, 1, 81, 127
1, 13920, Note_on_c, 1, 65, 127
1, 14016, Note_off_c, 1, 81, 0
1, 14016, Note_off_c, 1, 65, 0
1, 14040, Note_on_c, 1, 82, 127
1, 14040, Note_on_c, 1, 60, 127
1, 14136, Note_off_c, 1, 82, 0
1, 14160, Note_on_c, 1, 81, 127
1, 14232, Note_off_c, 1, 60, 0
1, 14256, Note_off_c, 1, 81, 0
1, 14280, Note_on_c, 1, 79, 127
1, 14280, Note_on_c, 1, 60, 127
1, 14309, Note_off_c, 1, 60, 0
1, 14310, Note_on_c, 1, 58, 127
1, 14339, Note_off_c, 1, 58, 0
1, 14376, Note_off_c, 1, 79, 0
1, 14400, Note_on_c, 1, 77, 127
1, 14400, Note_on_c, 1, 57, 127
1, 14448, Note_off_c, 1, 57, 0
1, 14460, Note_on_c, 1, 58, 127
1, 14496, Note_off_c, 1, 77, 0
1, 14508, Note_off_c, 1, 58, 0
1, 14520, Note_on_c, 1, 84, 127
1, 14520, Note_on_c, 1, 57, 127
1, 14616, Note_off_c, 1, 57, 0
1, 14640, Note_on_c, 1, 53, 127
1, 14712, Note_off_c, 1, 84, 0
1, 14736, Note_off_c, 1, 53, 0
1, 14760, Note_on_c, 1, 72, 127
1, 14760, Note_on_c, 1, 55, 127
1, 14856, Note_off_c, 1, 55, 0
1, 14880, Note_on_c, 1, 57, 127
1, 14952, Note_off_c, 1, 72, 0
1, 14976, Note_off_c, 1, 57, 0
1, 15000, Note_on_c, 1, 74, 127
1, 15000, Note_on_c, 1, 58, 127
1, 15096, Note_off_c, 1, 58, 0
1, 15120, Note_on_c, 1, 60, 127
1, 15216, Note_off_c, 1, 60, 0
1, 15240, Note_on_c, 1, 57, 127
1, 15288, Note_off_c, 1, 74, 0
1, 15336, Note_off_c, 1, 57, 0
1, 15360, Note_on_c, 1, 82, 127
1, 15360, Note_on_c, 1, 58, 127
1, 15456, Note_off_c, 1, 82, 0
1, 15456, Note_off_c, 1, 58, 0
1, 15480, Note_on_c, 1, 81, 127
1, 15480, Note_on_c, 1, 60, 127
1, 15576, Note_off_c, 1, 60, 0
1, 15600, Note_on_c, 1, 59, 127
1, 15672, Note_off_c, 1, 81, 0
1, 15696, Note_off_c, 1, 59, 0
1, 15720, Note_on_c, 1, 81, 127
1, 15720, Note_on_c, 1, 57, 127
1, 15744, Note_off_c, 1, 81, 0
1, 15750, Note_on_c, 1, 79, 127
1, 15774, Note_off_c, 1, 79, 0
1, 15816, Note_off_c, 1, 57, 0
1, 15840, Note_on_c, 1, 55, 127
1, 15900, Note_on_c, 1, 77, 127
1, 15936, Note_off_c, 1, 55, 0
1, 15948, Note_off_c, 1, 77, 0
1, 15960, Note_on_c, 1, 77, 127
1, 15960, Note_on_c, 1, 60, 127
1, 15984, Note_off_c, 1, 77, 0
1, 15990, Note_on_c, 1, 76, 127
1, 16014, Note_off_c, 1, 76, 0
1, 16056, Note_off_c, 1, 60, 0
1, 16080, Note_on_c, 1, 59, 127
1, 16176, Note_off_c, 1, 59, 0
1, 16320, Note_on_c, 1, 77, 127
1, 16320, Note_on_c, 1, 62, 127
1, 16416, Note_off_c, 1, 77, 0
1, 16416, Note_off_c, 1, 62, 0
1, 16440, Note_on_c, 1, 79, 127
1, 16440, Note_on_c, 1, 64, 127
1, 16536, Note_off_c, 1, 64, 0
1, 16560, Note_on_c, 1, 67, 127
1, 16632, Note_off_c, 1, 79, 0
1, 16656, Note_off_c, 1, 67, 0
1, 16680, Note_on_c, 1, 81, 127
1, 16680, Note_on_c, 1, 65, 127
1, 16776, Note_off_c, 1, 81, 0
1, 16776, Note_off_c, 1, 65, 0
1, 16800, Note_on_c, 1, 82, 127
1, 16800, Note_on_c, 1, 67, 127
1, 16896, Note_off_c, 1, 82, 0
1, 16896, Note_off_c, 1, 67, 0
1, 16920, Note_on_c, 1, 81, 127
1, 16920, Note_on_c, 1, 61, 127
1, 17016, Note_off_c, 1, 81, 0
1, 17040, Note_on_c, 1, 79, 127
1, 17112, Note_off_c, 1, 61, 0
1, 17136, Note_off_c, 1, 79, 0
1, 17160, Note_on_c, 1, 77, 127
1, 17160, Note_on_c, 1, 57, 127
1, 17256, Note_off_c, 1, 77, 0
1, 17280, Note_on_c, 1, 76, 127
1, 17352, Note_off_c, 1, 57, 0
1, 17376, Note_off_c, 1, 76, 0
1, 17400, Note_on_c, 1, 77, 127
1, 17400, Note_on_c, 1, 62, 127
1, 17424, Note_off_c, 1, 77, 0
1, 17430, Note_on_c, 1, 76, 127
1, 17454, Note_off_c, 1, 76, 0
1, 17592, Note_off_c, 1, 62, 0
1, 17640, Note_on_c, 1, 50, 127
1, 17736, Note_off_c, 1, 50, 0
1, 17760, Note_on_c, 1, 76, 127
1, 17760, Note_on_c, 1, 52, 127
1, 17856, Note_off_c, 1, 76, 0
1, 17856, Note_off_c, 1, 52, 0
1, 17880, Note_on_c, 1, 74, 127
1, 17880, Note_on_c, 1, 53, 127
1, 17976, Note_off_c, 1, 53, 0
1, 18000, Note_on_c, 1, 55, 127
1, 18072, Note_off_c, 1, 74, 0
1, 18096, Note_off_c, 1, 55, 0
1, 18120, Note_on_c, 1, 72, 127
1, 18120, Note_on_c, 1, 52, 127
1, 18216, Note_off_c, 1, 72, 0
1, 18216, Note_off_c, 1, 52, 0
1, 18240, Note_on_c, 1, 71, 127
1, 18240, Note_on_c, 1, 53, 127
1, 18336, Note_off_c, 1, 71, 0
1, 18336, Note_off_c, 1, 53, 0
1, 18360, Note_on_c, 1, 72, 127
1, 18360, Note_on_c, 1, 55, 127
1, 18384, Note_off_c, 1, 72, 0
1, 18390, Note_on_c, 1, 71, 127
1, 18414, Note_off_c, 1, 71, 0
1, 18456, Note_off_c, 1, 55, 0
1, 18480, Note_on_c, 1, 54, 127
1, 18576, Note_off_c, 1, 54, 0
1, 18600, Note_on_c, 1, 52, 127
1, 18696, Note_off_c, 1, 52, 0
1, 18720, Note_on_c, 1, 74, 127
1, 18720, Note_on_c, 1, 50, 127
1, 18816, Note_off_c, 1, 74, 0
1, 18816, Note_off_c, 1, 50, 0
1, 18840, Note_on_c, 1, 72, 127
1, 18840, Note_on_c, 1, 55, 127
1, 18864, Note_off_c, 1, 72, 0
1, 18870, Note_on_c, 1, 71, 127
1, 18894, Note_off_c, 1, 71, 0
1, 18936, Note_off_c, 1, 55, 0
1, 18960, Note_on_c, 1, 57, 127
1, 19056, Note_off_c, 1, 57, 0
1, 19200, Note_on_c, 1, 69, 127
1, 19200, Note_on_c, 1, 53, 127
1, 19296, Note_off_c, 1, 69, 0
1, 19296, Note_off_c, 1, 53, 0
1, 19320, Note_on_c, 1, 67, 127
1, 19320, Note_on_c, 1, 52, 127
1, 19416, Note_off_c, 1, 52, 0
1, 19440, Note_on_c, 1, 55, 127
1, 19536, Note_off_c, 1, 55, 0
1, 19560, Note_on_c, 1, 53, 127
1, 19608, Note_off_c, 1, 67, 0
1, 19656, Note_off_c, 1, 53, 0
1, 19680, Note_on_c, 1, 79, 127
1, 19680, Note_on_c, 1, 52, 127
1, 19776, Note_off_c, 1, 79, 0
1, 19776, Note_off_c, 1, 52, 0
1, 19800, Note_on_c, 1, 77, 127
1, 19800, Note_on_c, 1, 50, 127
1, 19896, Note_off_c, 1, 77, 0
1, 19896, Note_off_c, 1, 50, 0
1, 19920, Note_on_c, 1, 76, 127
1, 19920, Note_on_c, 1, 48, 127
1, 20016, Note_off_c, 1, 76, 0
1, 20016, Note_off_c, 1, 48, 0
1, 20040, Note_on_c, 1, 74, 127
1, 20040, Note_on_c, 1, 60, 127
1, 20136, Note_off_c, 1, 74, 0
1, 20160, Note_on_c, 1, 72, 127
1, 20232, Note_off_c, 1, 60, 0
1, 20256, Note_off_c, 1, 72, 0
1, 20280, Note_on_c, 1, 81, 127
1, 20280, Note_on_c, 1, 53, 127
1, 20376, Note_off_c, 1, 53, 0
1, 20400, Note_on_c, 1, 52, 127
1, 20496, Note_off_c, 1, 52, 0
1, 20520, Note_on_c, 1, 50, 127
1, 20568, Note_off_c, 1, 81, 0
1, 20616, Note_off_c, 1, 50, 0
1, 20640, Note_on_c, 1, 76, 127
1, 20640, Note_on_c, 1, 48, 127
1, 20736, Note_off_c, 1, 76, 0
1, 20736, Note_off_c, 1, 48, 0
1, 20760, Note_on_c, 1, 77, 127
1, 20760, Note_on_c, 1, 47, 127
1, 20856, Note_off_c, 1, 47, 0
1, 20880, Note_on_c, 1, 43, 127
1, 20976, Note_off_c, 1, 43, 0
1, 21000, Note_on_c, 1, 48, 127
1, 21048, Note_off_c, 1, 77, 0
1, 21120, Note_on_c, 1, 79, 127
1, 21192, Note_off_c, 1, 48, 0
1, 21216, Note_off_c, 1, 79, 0
1, 21240, Note_on_c, 1, 76, 127
1, 21240, Note_on_c, 1, 55, 127
1, 21269, Note_off_c, 1, 76, 0
1, 21270, Note_on_c, 1, 74, 127
1, 21299, Note_off_c, 1, 74, 0
1, 21432, Note_off_c, 1, 55, 0
1, 21480, Note_on_c, 1, 43, 127
1, 21600, Note_on_c, 1, 72, 127
1, 21672, Note_off_c, 1, 43, 0
1, 21696, Note_off_c, 1, 72, 0
1, 21720, Note_on_c, 1, 72, 127
1, 21720, Note_on_c, 1, 48, 127
1, 21960, Note_on_c, 1, 36, 127
1, 22104, Note_off_c, 1, 48, 0
1, 22200, Note_on_c, 1, 43, 127
1, 22392, Note_off_c, 1, 43, 0
1, 22440, Note_on_c, 1, 64, 127
1, 22440, Note_on_c, 1, 67, 127
1, 22824, Note_off_c, 1, 72, 0
1, 22824, Note_off_c, 1, 36, 0
1, 22824, Note_off_c, 1, 64, 0
1, 22824, Note_off_c, 1, 67, 0
1, 23040, Note_on_c, 1, 67, 127
1, 23136, Note_off_c, 1, 67, 0
1, 23160, Note_on_c, 1, 67, 127
1, 23160, Note_on_c, 1, 48, 127
1, 23400, Note_on_c, 1, 50, 127
1, 23448, Note_off_c, 1, 67, 0
1, 23520, Note_on_c, 1, 72, 127
1, 23592, Note_off_c, 1, 50, 0
1, 23616, Note_off_c, 1, 72, 0
1, 23640, Note_on_c, 1, 52, 127
1, 23670, Note_on_c, 1, 70, 127
1, 23694, Note_off_c, 1, 70, 0
1, 23832, Note_off_c, 1, 52, 0
1, 23880, Note_on_c, 1, 53, 127
1, 24000, Note_on_c, 1, 69, 127
1, 24072, Note_off_c, 1, 53, 0
1, 24096, Note_off_c, 1, 69, 0
1, 24120, Note_on_c, 1, 55, 127
1, 24240, Note_on_c, 1, 74, 127
1, 24312, Note_off_c, 1, 48, 0
1, 24312, Note_off_c, 1, 55, 0
1, 24336, Note_off_c, 1, 74, 0
1, 24360, Note_on_c, 1, 72, 127
1, 24360, Note_on_c, 1, 52, 127
1, 24552, Note_off_c, 1, 72, 0
1, 24552, Note_off_c, 1, 52, 0
1, 24600, Note_on_c, 1, 70, 127
1, 24600, Note_on_c, 1, 53, 127
1, 24624, Note_off_c, 1, 70, 0
1, 24630, Note_on_c, 1, 69, 127
1, 24654, Note_off_c, 1, 69, 0
1, 24720, Note_on_c, 1, 72, 127
1, 24816, Note_off_c, 1, 72, 0
1, 24840, Note_on_c, 1, 74, 127
1, 24936, Note_off_c, 1, 74, 0
1, 24960, Note_on_c, 1, 75, 127
1, 24960, Note_on_c, 1, 65, 127
1, 25056, Note_off_c, 1, 75, 0
1, 25056, Note_off_c, 1, 65, 0
1, 25080, Note_on_c, 1, 77, 127
1, 25110, Note_on_c, 1, 63, 127
1, 25134, Note_off_c, 1, 63, 0
1, 25176, Note_off_c, 1, 77, 0
1, 25440, Note_on_c, 1, 79, 127
1, 25440, Note_on_c, 1, 62, 127
1, 25536, Note_off_c, 1, 79, 0
1, 25536, Note_off_c, 1, 62, 0
1, 25680, Note_on_c, 1, 67, 127
1, 25752, Note_off_c, 1, 53, 0
1, 25776, Note_off_c, 1, 67, 0
1, 25800, Note_on_c, 1, 74, 127
1, 25800, Note_on_c, 1, 65, 127
1, 25896, Note_off_c, 1, 74, 0
1, 25920, Note_on_c, 1, 75, 127
1, 26016, Note_off_c, 1, 75, 0
1, 26040, Note_on_c, 1, 58, 127
1, 26136, Note_off_c, 1, 58, 0
1, 26160, Note_on_c, 1, 53, 127
1, 26232, Note_off_c, 1, 65, 0
1, 26256, Note_off_c, 1, 53, 0
1, 26280, Note_on_c, 1, 72, 127
1, 26280, Note_on_c, 1, 55, 127
1, 26376, Note_off_c, 1, 72, 0
1, 26376, Note_off_c, 1, 55, 0
1, 26400, Note_on_c, 1, 70, 127
1, 26400, Note_on_c, 1, 57, 127
1, 26496, Note_off_c, 1, 70, 0
1, 26496, Note_off_c, 1, 57, 0
1, 26520, Note_on_c, 1, 74, 127
1, 26520, Note_on_c, 1, 70, 127
1, 26520, Note_on_c, 1, 58, 127
1, 26616, Note_off_c, 1, 58, 0
1, 26640, Note_on_c, 1, 50, 127
1, 26736, Note_off_c, 1, 50, 0
1, 26760, Note_on_c, 1, 52, 127
1, 26808, Note_off_c, 1, 74, 0
1, 26856, Note_off_c, 1, 52, 0
1, 26880, Note_on_c, 1, 75, 127
1, 26880, Note_on_c, 1, 60, 127
1, 26904, Note_off_c, 1, 70, 0
1, 26976, Note_off_c, 1, 75, 0
1, 26976, Note_off_c, 1, 60, 0
1, 27000, Note_on_c, 1, 74, 127
1, 27000, Note_on_c, 1, 70, 127
1, 27000, Note_on_c, 1, 54, 127
1, 27024, Note_off_c, 1, 74, 0
1, 27030, Note_on_c, 1, 72, 127
1, 27054, Note_off_c, 1, 72, 0
1, 27096, Note_off_c, 1, 54, 0
1, 27120, Note_on_c, 1, 57, 127
1, 27216, Note_off_c, 1, 57, 0
1, 27240, Note_on_c, 1, 55, 127
1, 27336, Note_off_c, 1, 55, 0
1, 27384, Note_off_c, 1, 70, 0
1, 27480, Note_on_c, 1, 72, 127
1, 27480, Note_on_c, 1, 69, 127
1, 27480, Note_on_c, 1, 55, 127
1, 27504, Note_off_c, 1, 72, 0
1, 27504, Note_off_c, 1, 55, 0
1, 27510, Note_on_c, 1, 70, 127
1, 27510, Note_on_c, 1, 54, 127
1, 27534, Note_off_c, 1, 70, 0
1, 27534, Note_off_c, 1, 54, 0
1, 27720, Note_on_c, 1, 50, 127
1, 27840, Note_on_c, 1, 74, 127
1, 27864, Note_off_c, 1, 69, 0
1, 27912, Note_off_c, 1, 50, 0
1, 27936, Note_off_c, 1, 74, 0
1, 27960, Note_on_c, 1, 72, 127
1, 27960, Note_on_c, 1, 67, 127
1, 27960, Note_on_c, 1, 55, 127
1, 27984, Note_off_c, 1, 72, 0
1, 27990, Note_on_c, 1, 70, 127
1, 28014, Note_off_c, 1, 70, 0
1, 28152, Note_off_c, 1, 55, 0
1, 28200, Note_on_c, 1, 48, 127
1, 28320, Note_on_c, 1, 69, 127
1, 28344, Note_off_c, 1, 67, 0
1, 28392, Note_off_c, 1, 48, 0
1, 28416, Note_off_c, 1, 69, 0
1, 28440, Note_on_c, 1, 70, 127
1, 28440, Note_on_c, 1, 66, 127
1, 28440, Note_on_c, 1, 50, 127
1, 28464, Note_off_c, 1, 70, 0
1, 28470, Note_on_c, 1, 69, 127
1, 28494, Note_off_c, 1, 69, 0
1, 28632, Note_off_c, 1, 50, 0
1, 28680, Note_on_c, 1, 38, 127
1, 28800, Note_on_c, 1, 67, 127
1, 28872, Note_off_c, 1, 38, 0
1, 28896, Note_off_c, 1, 67, 0
1, 28920, Note_on_c, 1, 43, 127
1, 29016, Note_off_c, 1, 66, 0
1, 29033, Note_off_c, 1, 43, 0
1, 29160, Note_on_c, 1, 52, 127
1, 29273, Note_off_c, 1, 52, 0
1, 29280, Note_on_c, 1, 54, 127
1, 29393, Note_off_c, 1, 54, 0
1, 29400, Note_on_c, 1, 55, 127
1, 29513, Note_off_c, 1, 55, 0
1, 29520, Note_on_c, 1, 58, 127
1, 29633, Note_off_c, 1, 58, 0
1, 29640, Note_on_c, 1, 79, 127
1, 29640, Note_on_c, 1, 57, 127
1, 29753, Note_off_c, 1, 57, 0
1, 29760, Note_on_c, 1, 58, 127
1, 29832, Note_off_c, 1, 79, 0
1, 29873, Note_off_c, 1, 58, 0
1, 29880, Note_on_c, 1, 76, 127
1, 29880, Note_on_c, 1, 60, 127
1, 29904, Note_off_c, 1, 76, 0
1, 29910, Note_on_c, 1, 74, 127
1, 29934, Note_off_c, 1, 74, 0
1, 29993, Note_off_c, 1, 60, 0
1, 30000, Note_on_c, 1, 58, 127
1, 30113, Note_off_c, 1, 58, 0
1, 30120, Note_on_c, 1, 57, 127
1, 30233, Note_off_c, 1, 57, 0
1, 30240, Note_on_c, 1, 76, 127
1, 30240, Note_on_c, 1, 55, 127
1, 30336, Note_off_c, 1, 76, 0
1, 30353, Note_off_c, 1, 55, 0
1, 30360, Note_on_c, 1, 77, 127
1, 30360, Note_on_c, 1, 62, 127
1, 30384, Note_off_c, 1, 77, 0
1, 30390, Note_on_c, 1, 76, 127
1, 30414, Note_off_c, 1, 76, 0
1, 30552, Note_off_c, 1, 62, 0
1, 30600, Note_on_c, 1, 50, 127
1, 30840, Note_on_c, 1, 74, 127
1, 30888, Note_off_c, 1, 50, 0
1, 30960, Note_on_c, 1, 53, 127
1, 31032, Note_off_c, 1, 74, 0
1, 31056, Note_off_c, 1, 53, 0
1, 31080, Note_on_c, 1, 72, 127
1, 31080, Note_on_c, 1, 52, 127
1, 31176, Note_off_c, 1, 72, 0
1, 31176, Note_off_c, 1, 52, 0
1, 31200, Note_on_c, 1, 70, 127
1, 31200, Note_on_c, 1, 53, 127
1, 31296, Note_off_c, 1, 70, 0
1, 31296, Note_off_c, 1, 53, 0
1, 31320, Note_on_c, 1, 70, 127
1, 31320, Note_on_c, 1, 55, 127
1, 31344, Note_off_c, 1, 70, 0
1, 31350, Note_on_c, 1, 69, 127
1, 31374, Note_off_c, 1, 69, 0
1, 31416, Note_off_c, 1, 55, 0
1, 31440, Note_on_c, 1, 53, 127
1, 31536, Note_off_c, 1, 53, 0
1, 31560, Note_on_c, 1, 52, 127
1, 31656, Note_off_c, 1, 52, 0
1, 31680, Note_on_c, 1, 70, 127
1, 31680, Note_on_c, 1, 50, 127
1, 31776, Note_off_c, 1, 70, 0
1, 31776, Note_off_c, 1, 50, 0
1, 31800, Note_on_c, 1, 72, 127
1, 31800, Note_on_c, 1, 57, 127
1, 31896, Note_off_c, 1, 57, 0
1, 31920, Note_on_c, 1, 58, 127
1, 32016, Note_off_c, 1, 58, 0
1, 32088, Note_off_c, 1, 72, 0
1, 32160, Note_on_c, 1, 70, 127
1, 32160, Note_on_c, 1, 55, 127
1, 32256, Note_off_c, 1, 70, 0
1, 32256, Note_off_c, 1, 55, 0
1, 32280, Note_on_c, 1, 69, 127
1, 32280, Note_on_c, 1, 53, 127
1, 32376, Note_off_c, 1, 53, 0
1, 32400, Note_on_c, 1, 57, 127
1, 32472, Note_off_c, 1, 69, 0
1, 32496, Note_off_c, 1, 57, 0
1, 32520, Note_on_c, 1, 67, 127
1, 32520, Note_on_c, 1, 58, 127
1, 32616, Note_off_c, 1, 67, 0
1, 32616, Note_off_c, 1, 58, 0
1, 32640, Note_on_c, 1, 65, 127
1, 32640, Note_on_c, 1, 60, 127
1, 32736, Note_off_c, 1, 65, 0
1, 32736, Note_off_c, 1, 60, 0
1, 32760, Note_on_c, 1, 70, 127
1, 32760, Note_on_c, 1, 62, 127
1, 32784, Note_off_c, 1, 70, 0
1, 32790, Note_on_c, 1, 69, 127
1, 32814, Note_off_c, 1, 69, 0
1, 32856, Note_off_c, 1, 62, 0
1, 32880, Note_on_c, 1, 63, 127
1, 32976, Note_off_c, 1, 63, 0
1, 33120, Note_on_c, 1, 72, 127
1, 33120, Note_on_c, 1, 60, 127
1, 33216, Note_off_c, 1, 72, 0
1, 33216, Note_off_c, 1, 60, 0
1, 33240, Note_on_c, 1, 74, 127
1, 33240, Note_on_c, 1, 58, 127
1, 33264, Note_off_c, 1, 74, 0
1, 33270, Note_on_c, 1, 72, 127
1, 33294, Note_off_c, 1, 72, 0
1, 33336, Note_off_c, 1, 58, 0
1, 33360, Note_on_c, 1, 62, 127
1, 33456, Note_off_c, 1, 62, 0
1, 33480, Note_on_c, 1, 64, 127
1, 33576, Note_off_c, 1, 64, 0
1, 33600, Note_on_c, 1, 72, 127
1, 33600, Note_on_c, 1, 65, 127
1, 33696, Note_off_c, 1, 72, 0
1, 33696, Note_off_c, 1, 65, 0
1, 33720, Note_on_c, 1, 70, 127
1, 33720, Note_on_c, 1, 67, 127
1, 33816, Note_off_c, 1, 70, 0
1, 33840, Note_on_c, 1, 69, 127
1, 33912, Note_off_c, 1, 67, 0
1, 33936, Note_off_c, 1, 69, 0
1, 33960, Note_on_c, 1, 67, 127
1, 33960, Note_on_c, 1, 50, 127
1, 34056, Note_off_c, 1, 67, 0
1, 34080, Note_on_c, 1, 70, 127
1, 34152, Note_off_c, 1, 50, 0
1, 34176, Note_off_c, 1, 70, 0
1, 34200, Note_on_c, 1, 69, 127
1, 34200, Note_on_c, 1, 52, 127
1, 34296, Note_off_c, 1, 69, 0
1, 34320, Note_on_c, 1, 67, 127
1, 34392, Note_off_c, 1, 52, 0
1, 34416, Note_off_c, 1, 67, 0
1, 34440, Note_on_c, 1, 69, 127
1, 34440, Note_on_c, 1, 53, 127
1, 34536, Note_off_c, 1, 69, 0
1, 34560, Note_on_c, 1, 65, 127
1, 34632, Note_off_c, 1, 53, 0
1, 34656, Note_off_c, 1, 65, 0
1, 34680, Note_on_c, 1, 64, 127
1, 34680, Note_on_c, 1, 48, 127
1, 34776, Note_off_c, 1, 48, 0
1, 34800, Note_on_c, 1, 52, 127
1, 34896, Note_off_c, 1, 52, 0
1, 34920, Note_on_c, 1, 50, 127
1, 34968, Note_off_c, 1, 64, 0
1, 35016, Note_off_c, 1, 50, 0
1, 35040, Note_on_c, 1, 62, 127
1, 35040, Note_on_c, 1, 52, 127
1, 35136, Note_off_c, 1, 62, 0
1, 35136, Note_off_c, 1, 52, 0
1, 35160, Note_on_c, 1, 60, 127
1, 35160, Note_on_c, 1, 53, 127
1, 35256, Note_off_c, 1, 53, 0
1, 35280, Note_on_c, 1, 52, 127
1, 35352, Note_off_c, 1, 60, 0
1, 35376, Note_off_c, 1, 52, 0
1, 35400, Note_on_c, 1, 72, 127
1, 35400, Note_on_c, 1, 50, 127
1, 35496, Note_off_c, 1, 50, 0
1, 35520, Note_on_c, 1, 48, 127
1, 35592, Note_off_c, 1, 72, 0
1, 35616, Note_off_c, 1, 48, 0
1, 35640, Note_on_c, 1, 77, 127
1, 35640, Note_on_c, 1, 46, 127
1, 35664, Note_off_c, 1, 77, 0
1, 35670, Note_on_c, 1, 76, 127
1, 35694, Note_off_c, 1, 76, 0
1, 35736, Note_off_c, 1, 46, 0
1, 35760, Note_on_c, 1, 45, 127
1, 35856, Note_off_c, 1, 45, 0
1, 35880, Note_on_c, 1, 43, 127
1, 35976, Note_off_c, 1, 43, 0
1, 36000, Note_on_c, 1, 79, 127
1, 36000, Note_on_c, 1, 41, 127
1, 36048, Note_off_c, 1, 79, 0
1, 36060, Note_on_c, 1, 81, 127
1, 36096, Note_off_c, 1, 41, 0
1, 36108, Note_off_c, 1, 81, 0
1, 36120, Note_on_c, 1, 81, 127
1, 36120, Note_on_c, 1, 46, 127
1, 36312, Note_off_c, 1, 81, 0
1, 36360, Note_on_c, 1, 79, 127
1, 36456, Note_off_c, 1, 79, 0
1, 36480, Note_on_c, 1, 77, 127
1, 36576, Note_off_c, 1, 77, 0
1, 36600, Note_on_c, 1, 76, 127
1, 36696, Note_off_c, 1, 46, 0
1, 36696, Note_off_c, 1, 76, 0
1, 36720, Note_on_c, 1, 74, 127
1, 36720, Note_on_c, 1, 48, 127
1, 36816, Note_off_c, 1, 74, 0
1, 36816, Note_off_c, 1, 48, 0
1, 36840, Note_on_c, 1, 82, 127
1, 36840, Note_on_c, 1, 50, 127
1, 36936, Note_off_c, 1, 50, 0
1, 36960, Note_on_c, 1, 48, 127
1, 37032, Note_off_c, 1, 82, 0
1, 37056, Note_off_c, 1, 48, 0
1, 37080, Note_on_c, 1, 77, 127
1, 37080, Note_on_c, 1, 46, 127
1, 37104, Note_off_c, 1, 77, 0
1, 37110, Note_on_c, 1, 76, 127
1, 37134, Note_off_c, 1, 76, 0
1, 37176, Note_off_c, 1, 46, 0
1, 37200, Note_on_c, 1, 45, 127
1, 37296, Note_off_c, 1, 45, 0
1, 37320, Note_on_c, 1, 43, 127
1, 37416, Note_off_c, 1, 43, 0
1, 37440, Note_on_c, 1, 77, 127
1, 37440, Note_on_c, 1, 41, 127
1, 37536, Note_off_c, 1, 77, 0
1, 37536, Note_off_c, 1, 41, 0
1, 37560, Note_on_c, 1, 70, 127
1, 37560, Note_on_c, 1, 67, 127
1, 37560, Note_on_c, 1, 40, 127
1, 37584, Note_off_c, 1, 70, 0
1, 37590, Note_on_c, 1, 69, 127
1, 37614, Note_off_c, 1, 69, 0
1, 37656, Note_off_c, 1, 40, 0
1, 37680, Note_on_c, 1, 48, 127
1, 37776, Note_off_c, 1, 48, 0
1, 37800, Note_on_c, 1, 50, 127
1, 37896, Note_off_c, 1, 50, 0
1, 37920, Note_on_c, 1, 72, 127
1, 37920, Note_on_c, 1, 52, 127
1, 37944, Note_off_c, 1, 67, 0
1, 38016, Note_off_c, 1, 72, 0
1, 38016, Note_off_c, 1, 52, 0
1, 38040, Note_on_c, 1, 70, 127
1, 38040, Note_on_c, 1, 65, 127
1, 38040, Note_on_c, 1, 53, 127
1, 38064, Note_off_c, 1, 70, 0
1, 38070, Note_on_c, 1, 69, 127
1, 38094, Note_off_c, 1, 69, 0
1, 38232, Note_off_c, 1, 53, 0
1, 38280, Note_on_c, 1, 46, 127
1, 38400, Note_on_c, 1, 67, 127
1, 38424, Note_off_c, 1, 65, 0
1, 38472, Note_off_c, 1, 46, 0
1, 38496, Note_off_c, 1, 67, 0
1, 38520, Note_on_c, 1, 69, 127
1, 38520, Note_on_c, 1, 64, 127
1, 38520, Note_on_c, 1, 48, 127
1, 38544, Note_off_c, 1, 69, 0
1, 38550, Note_on_c, 1, 67, 127
1, 38574, Note_off_c, 1, 67, 0
1, 38712, Note_off_c, 1, 48, 0
1, 38760, Note_on_c, 1, 36, 127
1, 38880, Note_on_c, 1, 65, 127
1, 38904, Note_off_c, 1, 64, 0
1, 38952, Note_off_c, 1, 36, 0
1, 38976, Note_off_c, 1, 65, 0
1, 39000, Note_on_c, 1, 65, 127
1, 39000, Note_on_c, 1, 41, 127
1, 39240, Note_on_c, 1, 45, 127
1, 39432, Note_off_c, 1, 45, 0
1, 39480, Note_on_c, 1, 48, 127
1, 39672, Note_off_c, 1, 48, 0
1, 39720, Note_on_c, 1, 57, 127
1, 39720, Note_on_c, 1, 60, 127
1, 39720, Note_on_c, 1, 53, 127
1, 40104, Note_off_c, 1, 65, 0
1, 40104, Note_off_c, 1, 57, 0
1, 40104, Note_off_c, 1, 60, 0
1, 40104, Note_off_c, 1, 53, 0
1, 40200, Note_off_c, 1, 41, 0
1, 40320, Note_on_c, 1, 67, 127
1, 40416, Note_off_c, 1, 67, 0
1, 40440, Note_on_c, 1, 67, 127
1, 40440, Note_on_c, 1, 48, 127
1, 40680, Note_on_c, 1, 50, 127
1, 40728, Note_off_c, 1, 67, 0
1, 40800, Note_on_c, 1, 72, 127
1, 40872, Note_off_c, 1, 50, 0
1, 40896, Note_off_c, 1, 72, 0
1, 40920, Note_on_c, 1, 52, 127
1, 40950, Note_on_c, 1, 70, 127
1, 40974, Note_off_c, 1, 70, 0
1, 41112, Note_off_c, 1, 52, 0
1, 41160, Note_on_c, 1, 53, 127
1, 41280, Note_on_c, 1, 69, 127
1, 41352, Note_off_c, 1, 53, 0
1, 41376, Note_off_c, 1, 69, 0
1, 41400, Note_on_c, 1, 55, 127
1, 41520, Note_on_c, 1, 74, 127
1, 41592, Note_off_c, 1, 48, 0
1, 41592, Note_off_c, 1, 55, 0
1, 41616, Note_off_c, 1, 74, 0
1, 41640, Note_on_c, 1, 72, 127
1, 41640, Note_on_c, 1, 52, 127
1, 41832, Note_off_c, 1, 72, 0
1, 41832, Note_off_c, 1, 52, 0
1, 41880, Note_on_c, 1, 70, 127
1, 41880, Note_on_c, 1, 53, 127
1, 41904, Note_off_c, 1, 70, 0
1, 41910, Note_on_c, 1, 69, 127
1, 41934, Note_off_c, 1, 69, 0
1, 42000, Note_on_c, 1, 72, 127
1, 42096, Note_off_c, 1, 72, 0
1, 42120, Note_on_c, 1, 74, 127
1, 42216, Note_off_c, 1, 74, 0
1, 42240, Note_on_c, 1, 75, 127
1, 42240, Note_on_c, 1, 65, 127
1, 42336, Note_off_c, 1, 75, 0
1, 42336, Note_off_c, 1, 65, 0
1, 42360, Note_on_c, 1, 77, 127
1, 42390, Note_on_c, 1, 63, 127
1, 42414, Note_off_c, 1, 63, 0
1, 42456, Note_off_c, 1, 77, 0
1, 42720, Note_on_c, 1, 79, 127
1, 42720, Note_on_c, 1, 62, 127
1, 42816, Note_off_c, 1, 79, 0
1, 42816, Note_off_c, 1, 62, 0
1, 42960, Note_on_c, 1, 67, 127
1, 43032, Note_off_c, 1, 53, 0
1, 43056, Note_off_c, 1, 67, 0
1, 43080, Note_on_c, 1, 74, 127
1, 43080, Note_on_c, 1, 65, 127
1, 43176, Note_off_c, 1, 74, 0
1, 43200, Note_on_c, 1, 75, 127
1, 43296, Note_off_c, 1, 75, 0
1, 43320, Note_on_c, 1, 58, 127
1, 43416, Note_off_c, 1, 58, 0
1, 43440, Note_on_c, 1, 53, 127
1, 43512, Note_off_c, 1, 65, 0
1, 43536, Note_off_c, 1, 53, 0
1, 43560, Note_on_c, 1, 72, 127
1, 43560, Note_on_c, 1, 55, 127
1, 43656, Note_off_c, 1, 72, 0
1, 43656, Note_off_c, 1, 55, 0
1, 43680, Note_on_c, 1, 70, 127
1, 43680, Note_on_c, 1, 57, 127
1, 43776, Note_off_c, 1, 70, 0
1, 43776, Note_off_c, 1, 57, 0
1, 43800, Note_on_c, 1, 74, 127
1, 43800, Note_on_c, 1, 70, 127
1, 43800, Note_on_c, 1, 58, 127
1, 43896, Note_off_c, 1, 58, 0
1, 43920, Note_on_c, 1, 50, 127
1, 44016, Note_off_c, 1, 50, 0
1, 44040, Note_on_c, 1, 52, 127
1, 44088, Note_off_c, 1, 74, 0
1, 44136, Note_off_c, 1, 52, 0
1, 44160, Note_on_c, 1, 75, 127
1, 44160, Note_on_c, 1, 60, 127
1, 44184, Note_off_c, 1, 70, 0
1, 44256, Note_off_c, 1, 75, 0
1, 44256, Note_off_c, 1, 60, 0
1, 44280, Note_on_c, 1, 74, 127
1, 44280, Note_on_c, 1, 70, 127
1, 44280, Note_on_c, 1, 54, 127
1, 44304, Note_off_c, 1, 74, 0
1, 44310, Note_on_c, 1, 72, 127
1, 44334, Note_off_c, 1, 72, 0
1, 44376, Note_off_c, 1, 54, 0
1, 44400, Note_on_c, 1, 57, 127
1, 44496, Note_off_c, 1, 57, 0
1, 44520, Note_on_c, 1, 55, 127
1, 44616, Note_off_c, 1, 55, 0
1, 44664, Note_off_c, 1, 70, 0
1, 44760, Note_on_c, 1, 72, 127
1, 44760, Note_on_c, 1, 69, 127
1, 44760, Note_on_c, 1, 55, 127
1, 44784, Note_off_c, 1, 72, 0
1, 44784, Note_off_c, 1, 55, 0
1, 44790, Note_on_c, 1, 70, 127
1, 44790, Note_on_c, 1, 54, 127
1, 44814, Note_off_c, 1, 70, 0
1, 44814, Note_off_c, 1, 54, 0
1, 45000, Note_on_c, 1, 50, 127
1, 45120, Note_on_c, 1, 74, 127
1, 45144, Note_off_c, 1, 69, 0
1, 45192, Note_off_c, 1, 50, 0
1, 45216, Note_off_c, 1, 74, 0
1, 45240, Note_on_c, 1, 72, 127
1, 45240, Note_on_c, 1, 67, 127
1, 45240, Note_on_c, 1, 55, 127
1, 45264, Note_off_c, 1, 72, 0
1, 45270, Note_on_c, 1, 70, 127
1, 45294, Note_off_c, 1, 70, 0
1, 45432, Note_off_c, 1, 55, 0
1, 45480, Note_on_c, 1, 48, 127
1, 45600, Note_on_c, 1, 69, 127
1, 45624, Note_off_c, 1, 67, 0
1, 45672, Note_off_c, 1, 48, 0
1, 45696, Note_off_c, 1, 69, 0
1, 45720, Note_on_c, 1, 70, 127
1, 45720, Note_on_c, 1, 66, 127
1, 45720, Note_on_c, 1, 50, 127
1, 45744, Note_off_c, 1, 70, 0
1, 45750, Note_on_c, 1, 69, 127
1, 45774, Note_off_c, 1, 69, 0
1, 45912, Note_off_c, 1, 50, 0
1, 45960, Note_on_c, 1, 38, 127
1, 46080, Note_on_c, 1, 67, 127
1, 46152, Note_off_c, 1, 38, 0
1, 46176, Note_off_c, 1, 67, 0
1, 46200, Note_on_c, 1, 43, 127
1, 46296, Note_off_c, 1, 66, 0
1, 46313, Note_off_c, 1, 43, 0
1, 46440, Note_on_c, 1, 52, 127
1, 46553, Note_off_c, 1, 52, 0
1, 46560, Note_on_c, 1, 54, 127
1, 46673, Note_off_c, 1, 54, 0
1, 46680, Note_on_c, 1, 55, 127
1, 46793, Note_off_c, 1, 55, 0
1, 46800, Note_on_c, 1, 58, 127
1, 46913, Note_off_c, 1, 58, 0
1, 46920, Note_on_c, 1, 79, 127
1, 46920, Note_on_c, 1, 57, 127
1, 47033, Note_off_c, 1, 57, 0
1, 47040, Note_on_c, 1, 58, 127
1, 47112, Note_off_c, 1, 79, 0
1, 47153, Note_off_c, 1, 58, 0
1, 47160, Note_on_c, 1, 76, 127
1, 47160, Note_on_c, 1, 60, 127
1, 47184, Note_off_c, 1, 76, 0
1, 47190, Note_on_c, 1, 74, 127
1, 47214, Note_off_c, 1, 74, 0
1, 47273, Note_off_c, 1, 60, 0
1, 47280, Note_on_c, 1, 58, 127
1, 47393, Note_off_c, 1, 58, 0
1, 47400, Note_on_c, 1, 57, 127
1, 47513, Note_off_c, 1, 57, 0
1, 47520, Note_on_c, 1, 76, 127
1, 47520, Note_on_c, 1, 55, 127
1, 47616, Note_off_c, 1, 76, 0
1, 47633, Note_off_c, 1, 55, 0
1, 47640, Note_on_c, 1, 77, 127
1, 47640, Note_on_c, 1, 62, 127
1, 47664, Note_off_c, 1, 77, 0
1, 47670, Note_on_c, 1, 76, 127
1, 47694, Note_off_c, 1, 76, 0
1, 47832, Note_off_c, 1, 62, 0
1, 47880, Note_on_c, 1, 50, 127
1, 48120, Note_on_c, 1, 74, 127
1, 48168, Note_off_c, 1, 50, 0
1, 48240, Note_on_c, 1, 53, 127
1, 48312, Note_off_c, 1, 74, 0
1, 48336, Note_off_c, 1, 53, 0
1, 48360, Note_on_c, 1, 72, 127
1, 48360, Note_on_c, 1, 52, 127
1, 48456, Note_off_c, 1, 72, 0
1, 48456, Note_off_c, 1, 52, 0
1, 48480, Note_on_c, 1, 70, 127
1, 48480, Note_on_c, 1, 53, 127
1, 48576, Note_off_c, 1, 70, 0
1, 48576, Note_off_c, 1, 53, 0
1, 48600, Note_on_c, 1, 70, 127
1, 48600, Note_on_c, 1, 55, 127
1, 48624, Note_off_c, 1, 70, 0
1, 48630, Note_on_c, 1, 69, 127
1, 48654, Note_off_c, 1, 69, 0
1, 48696, Note_off_c, 1, 55, 0
1, 48720, Note_on_c, 1, 53, 127
1, 48816, Note_off_c, 1, 53, 0
1, 48840, Note_on_c, 1, 52, 127
1, 48936, Note_off_c, 1, 52, 0
1, 48960, Note_on_c, 1, 70, 127
1, 48960, Note_on_c, 1, 50, 127
1, 49056, Note_off_c, 1, 70, 0
1, 49056, Note_off_c, 1, 50, 0
1, 49080, Note_on_c, 1, 72, 127
1, 49080, Note_on_c, 1, 57, 127
1, 49176, Note_off_c, 1, 57, 0
1, 49200, Note_on_c, 1, 58, 127
1, 49296, Note_off_c, 1, 58, 0
1, 49368, Note_off_c, 1, 72, 0
1, 49440, Note_on_c, 1, 70, 127
1, 49440, Note_on_c, 1, 55, 127
1, 49536, Note_off_c, 1, 70, 0
1, 49536, Note_off_c, 1, 55, 0
1, 49560, Note_on_c, 1, 69, 127
1, 49560, Note_on_c, 1, 53, 127
1, 49656, Note_off_c, 1, 53, 0
1, 49680, Note_on_c, 1, 57, 127
1, 49752, Note_off_c, 1, 69, 0
1, 49776, Note_off_c, 1, 57, 0
1, 49800, Note_on_c, 1, 67, 127
1, 49800, Note_on_c, 1, 58, 127
1, 49896, Note_off_c, 1, 67, 0
1, 49896, Note_off_c, 1, 58, 0
1, 49920, Note_on_c, 1, 65, 127
1, 49920, Note_on_c, 1, 60, 127
1, 50016, Note_off_c, 1, 65, 0
1, 50016, Note_off_c, 1, 60, 0
1, 50040, Note_on_c, 1, 70, 127
1, 50040, Note_on_c, 1, 62, 127
1, 50064, Note_off_c, 1, 70, 0
1, 50070, Note_on_c, 1, 69, 127
1, 50094, Note_off_c, 1, 69, 0
1, 50136, Note_off_c, 1, 62, 0
1, 50160, Note_on_c, 1, 63, 127
1, 50256, Note_off_c, 1, 63, 0
1, 50400, Note_on_c, 1, 72, 127
1, 50400, Note_on_c, 1, 60, 127
1, 50496, Note_off_c, 1, 72, 0
1, 50496, Note_off_c, 1, 60, 0
1, 50520, Note_on_c, 1, 74, 127
1, 50520, Note_on_c, 1, 58, 127
1, 50544, Note_off_c, 1, 74, 0
1, 50550, Note_on_c, 1, 72, 127
1, 50574, Note_off_c, 1, 72, 0
1, 50616, Note_off_c, 1, 58, 0
1, 50640, Note_on_c, 1, 62, 127
1, 50736, Note_off_c, 1, 62, 0
1, 50760, Note_on_c, 1, 64, 127
1, 50856, Note_off_c, 1, 64, 0
1, 50880, Note_on_c, 1, 72, 127
1, 50880, Note_on_c, 1, 65, 127
1, 50976, Note_off_c, 1, 72, 0
1, 50976, Note_off_c, 1, 65, 0
1, 51000, Note_on_c, 1, 70, 127
1, 51000, Note_on_c, 1, 67, 127
1, 51096, Note_off_c, 1, 70, 0
1, 51120, Note_on_c, 1, 69, 127
1, 51192, Note_off_c, 1, 67, 0
1, 51216, Note_off_c, 1, 69, 0
1, 51240, Note_on_c, 1, 67, 127
1, 51240, Note_on_c, 1, 50, 127
1, 51336, Note_off_c, 1, 67, 0
1, 51360, Note_on_c, 1, 70, 127
1, 51432, Note_off_c, 1, 50, 0
1, 51456, Note_off_c, 1, 70, 0
1, 51480, Note_on_c, 1, 69, 127
1, 51480, Note_on_c, 1, 52, 127
1, 51576, Note_off_c, 1, 69, 0
1, 51600, Note_on_c, 1, 67, 127
1, 51672, Note_off_c, 1, 52, 0
1, 51696, Note_off_c, 1, 67, 0
1, 51720, Note_on_c, 1, 69, 127
1, 51720, Note_on_c, 1, 53, 127
1, 51816, Note_off_c, 1, 69, 0
1, 51840, Note_on_c, 1, 65, 127
1, 51912, Note_off_c, 1, 53, 0
1, 51936, Note_off_c, 1, 65, 0
1, 51960, Note_on_c, 1, 64, 127
1, 51960, Note_on_c, 1, 48, 127
1, 52056, Note_off_c, 1, 48, 0
1, 52080, Note_on_c, 1, 52, 127
1, 52176, Note_off_c, 1, 52, 0
1, 52200, Note_on_c, 1, 50, 127
1, 52248, Note_off_c, 1, 64, 0
1, 52296, Note_off_c, 1, 50, 0
1, 52320, Note_on_c, 1, 62, 127
1, 52320, Note_on_c, 1, 52, 127
1, 52416, Note_off_c, 1, 62, 0
1, 52416, Note_off_c, 1, 52, 0
1, 52440, Note_on_c, 1, 60, 127
1, 52440, Note_on_c, 1, 53, 127
1, 52536, Note_off_c, 1, 53, 0
1, 52560, Note_on_c, 1, 52, 127
1, 52632, Note_off_c, 1, 60, 0
1, 52656, Note_off_c, 1, 52, 0
1, 52680, Note_on_c, 1, 72, 127
1, 52680, Note_on_c, 1, 50, 127
1, 52776, Note_off_c, 1, 50, 0
1, 52800, Note_on_c, 1, 48, 127
1, 52872, Note_off_c, 1, 72, 0
1, 52896, Note_off_c, 1, 48, 0
1, 52920, Note_on_c, 1, 77, 127
1, 52920, Note_on_c, 1, 46, 127
1, 52944, Note_off_c, 1, 77, 0
1, 52950, Note_on_c, 1, 76, 127
1, 52974, Note_off_c, 1, 76, 0
1, 53016, Note_off_c, 1, 46, 0
1, 53040, Note_on_c, 1, 45, 127
1, 53136, Note_off_c, 1, 45, 0
1, 53160, Note_on_c, 1, 43, 127
1, 53256, Note_off_c, 1, 43, 0
1, 53280, Note_on_c, 1, 79, 127
1, 53280, Note_on_c, 1, 41, 127
1, 53328, Note_off_c, 1, 79, 0
1, 53340, Note_on_c, 1, 81, 127
1, 53376, Note_off_c, 1, 41, 0
1, 53388, Note_off_c, 1, 81, 0
1, 53400, Note_on_c, 1, 81, 127
1, 53400, Note_on_c, 1, 46, 127
1, 53592, Note_off_c, 1, 81, 0
1, 53640, Note_on_c, 1, 79, 127
1, 53736, Note_off_c, 1, 79, 0
1, 53760, Note_on_c, 1, 77, 127
1, 53856, Note_off_c, 1, 77, 0
1, 53880, Note_on_c, 1, 76, 127
1, 53976, Note_off_c, 1, 46, 0
1, 53976, Note_off_c, 1, 76, 0
1, 54000, Note_on_c, 1, 74, 127
1, 54000, Note_on_c, 1, 48, 127
1, 54096, Note_off_c, 1, 74, 0
1, 54096, Note_off_c, 1, 48, 0
1, 54120, Note_on_c, 1, 82, 127
1, 54120, Note_on_c, 1, 50, 127
1, 54216, Note_off_c, 1, 50, 0
1, 54240, Note_on_c, 1, 48, 127
1, 54312, Note_off_c, 1, 82, 0
1, 54336, Note_off_c, 1, 48, 0
1, 54360, Note_on_c, 1, 77, 127
1, 54360, Note_on_c, 1, 46, 127
1, 54384, Note_off_c, 1, 77, 0
1, 54390, Note_on_c, 1, 76, 127
1, 54414, Note_off_c, 1, 76, 0
1, 54456, Note_off_c, 1, 46, 0
1, 54480, Note_on_c, 1, 45, 127
1, 54576, Note_off_c, 1, 45, 0
1, 54600, Note_on_c, 1, 43, 127
1, 54696, Note_off_c, 1, 43, 0
1, 54720, Note_on_c, 1, 77, 127
1, 54720, Note_on_c, 1, 41, 127
1, 54816, Note_off_c, 1, 77, 0
1, 54816, Note_off_c, 1, 41, 0
1, 54840, Note_on_c, 1, 70, 127
1, 54840, Note_on_c, 1, 67, 127
1, 54840, Note_on_c, 1, 40, 127
1, 54864, Note_off_c, 1, 70, 0
1, 54870, Note_on_c, 1, 69, 127
1, 54894, Note_off_c, 1, 69, 0
1, 54936, Note_off_c, 1, 40, 0
1, 54960, Note_on_c, 1, 48, 127
1, 55056, Note_off_c, 1, 48, 0
1, 55080, Note_on_c, 1, 50, 127
1, 55176, Note_off_c, 1, 50, 0
1, 55200, Note_on_c, 1, 72, 127
1, 55200, Note_on_c, 1, 52, 127
1, 55224, Note_off_c, 1, 67, 0
1, 55296, Note_off_c, 1, 72, 0
1, 55296, Note_off_c, 1, 52, 0
1, 55320, Note_on_c, 1, 70, 127
1, 55320, Note_on_c, 1, 65, 127
1, 55320, Note_on_c, 1, 53, 127
1, 55344, Note_off_c, 1, 70, 0
1, 55350, Note_on_c, 1, 69, 127
1, 55374, Note_off_c, 1, 69, 0
1, 55512, Note_off_c, 1, 53, 0
1, 55560, Note_on_c, 1, 46, 127
1, 55680, Note_on_c, 1, 67, 127
1, 55704, Note_off_c, 1, 65, 0
1, 55752, Note_off_c, 1, 46, 0
1, 55776, Note_off_c, 1, 67, 0
1, 55800, Note_on_c, 1, 69, 127
1, 55800, Note_on_c, 1, 64, 127
1, 55800, Note_on_c, 1, 48, 127
1, 55824, Note_off_c, 1, 69, 0
1, 55830, Note_on_c, 1, 67, 127
1, 55854, Note_off_c, 1, 67, 0
1, 55992, Note_off_c, 1, 48, 0
1, 56040, Note_on_c, 1, 36, 127
1, 56160, Note_on_c, 1, 65, 127
1, 56184, Note_off_c, 1, 64, 0
1, 56232, Note_off_c, 1, 36, 0
1, 56256, Note_off_c, 1, 65, 0
1, 56280, Note_on_c, 1, 65, 127
1, 56280, Note_on_c, 1, 41, 127
1, 56520, Note_on_c, 1, 45, 127
1, 56712, Note_off_c, 1, 45, 0
1, 56760, Note_on_c, 1, 48, 127
1, 56952, Note_off_c, 1, 48, 0
1, 57000, Note_on_c, 1, 57, 127
1, 57000, Note_on_c, 1, 60, 127
1, 57000, Note_on_c, 1, 53, 127
1, 57384, Note_off_c, 1, 65, 0
1, 57384, Note_off_c, 1, 57, 0
1, 57384, Note_off_c, 1, 60, 0
1, 57384, Note_off_c, 1, 53, 0
1, 57480, Note_off_c, 1, 41, 0
1, 57480, End_track
0, 0, End_of_file