0, 0, Header, 1, 1, 480
1, 0, Start_track
1, 0, Title_t, "Test"
1, 0, Tempo, 500000
1, 0, Instrument_name_t, "Church Organ"
1, 64, Note_on_c, 1, 66, 127
1, 232, Note_on_c, 1, 70, 127
1, 244, Note_off_c, 1, 66, 0
1, 358, Note_off_c, 1, 70, 0
1, 401, Note_on_c, 1, 73, 127
1, 527, Note_off_c, 1, 73, 0
1, 570, Note_on_c, 1, 70, 127
1, 739, Note_on_c, 1, 66, 127
1, 750, Note_off_c, 1, 70, 0
1, 865, Note_off_c, 1, 66, 0
1, 908, Note_on_c, 1, 73, 127
1, 1034, Note_off_c, 1, 73, 0
1, 1077, Note_on_c, 1, 75, 127
1, 1077, Note_on_c, 1, 54, 127
1, 1162, Note_on_c, 1, 73, 127
1, 1173, Note_off_c, 1, 75, 0
1, 1246, Note_on_c, 1, 58, 127
1, 1257, Note_off_c, 1, 54, 0
1, 1258, Note_off_c, 1, 73, 0
1, 1372, Note_off_c, 1, 58, 0
1, 1415, Note_on_c, 1, 61, 127
1, 1541, Note_off_c, 1, 61, 0
1, 1922, Note_on_c, 1, 71, 127
1, 1922, Note_on_c, 1, 63, 127
1, 2002, Note_off_c, 1, 71, 0
1, 2007, Note_on_c, 1, 73, 127
1, 2080, Note_off_c, 1, 63, 0
1, 2260, Note_on_c, 1, 70, 127
1, 2283, Note_off_c, 1, 73, 0
1, 2386, Note_off_c, 1, 70, 0
1, 2598, Note_on_c, 1, 61, 127
1, 3101, Note_off_c, 1, 61, 0
1, 3105, Note_on_c, 1, 59, 127
1, 3274, Note_on_c, 1, 75, 127
1, 3379, Note_off_c, 1, 75, 0
1, 3443, Note_on_c, 1, 68, 127
1, 3608, Note_off_c, 1, 59, 0
1, 3612, Note_on_c, 1, 58, 127
1, 3777, Note_off_c, 1, 68, 0
1, 3950, Note_on_c, 1, 66, 127
1, 4115, Note_off_c, 1, 58, 0
1, 4119, Note_on_c, 1, 56, 127
1, 4284, Note_off_c, 1, 66, 0
1, 4456, Note_on_c, 1, 65, 127
1, 4622, Note_off_c, 1, 56, 0
1, 4625, Note_on_c, 1, 54, 127
1, 4790, Note_off_c, 1, 65, 0
1, 5128, Note_off_c, 1, 54, 0
1, 5132, Note_on_c, 1, 53, 127
1, 5635, Note_off_c, 1, 53, 0
1, 5639, Note_on_c, 1, 65, 127
1, 5639, Note_on_c, 1, 49, 127
1, 5806, Note_off_c, 1, 65, 0
1, 5808, Note_on_c, 1, 68, 127
1, 5948, Note_off_c, 1, 68, 0
1, 5977, Note_on_c, 1, 71, 127
1, 6117, Note_off_c, 1, 71, 0
1, 6142, Note_off_c, 1, 49, 0
1, 6146, Note_on_c, 1, 70, 127
1, 6146, Note_on_c, 1, 54, 127
1, 6313, Note_off_c, 1, 70, 0
1, 6315, Note_on_c, 1, 66, 127
1, 6403, Note_off_c, 1, 66, 0
1, 6484, Note_on_c, 1, 72, 127
1, 6649, Note_off_c, 1, 54, 0
1, 6653, Note_on_c, 1, 56, 127
1, 6818, Note_off_c, 1, 72, 0
1, 6991, Note_on_c, 1, 73, 127
1, 7156, Note_off_c, 1, 56, 0
1, 7160, Note_on_c, 1, 58, 127
1, 7325, Note_off_c, 1, 73, 0
1, 7498, Note_on_c, 1, 75, 127
1, 7663, Note_off_c, 1, 58, 0
1, 7667, Note_on_c, 1, 60, 127
1, 7832, Note_off_c, 1, 75, 0
1, 7836, Note_on_c, 1, 68, 127
1, 7969, Note_off_c, 1, 68, 0
1, 8005, Note_on_c, 1, 77, 127
1, 8170, Note_off_c, 1, 60, 0
1, 8174, Note_on_c, 1, 61, 127
1, 8339, Note_off_c, 1, 77, 0
1, 8343, Note_on_c, 1, 80, 127
1, 8476, Note_off_c, 1, 80, 0
1, 8677, Note_off_c, 1, 61, 0
1, 9187, Note_on_c, 1, 73, 127
1, 9187, Note_on_c, 1, 58, 127
1, 9354, Note_off_c, 1, 73, 0
1, 9356, Note_on_c, 1, 77, 127
1, 9489, Note_off_c, 1, 77, 0
1, 9690, Note_off_c, 1, 58, 0
1, 9694, Note_on_c, 1, 53, 127
1, 9948, Note_on_c, 1, 75, 127
1, 10028, Note_off_c, 1, 75, 0
1, 10197, Note_off_c, 1, 53, 0
1, 10201, Note_on_c, 1, 54, 127
1, 10370, Note_on_c, 1, 82, 127
1, 10503, Note_off_c, 1, 82, 0
1, 10704, Note_off_c, 1, 54, 0
1, 10708, Note_on_c, 1, 56, 127
1, 11046, Note_on_c, 1, 72, 127
1, 11163, Note_off_c, 1, 72, 0
1, 11211, Note_off_c, 1, 56, 0
1, 11215, Note_on_c, 1, 73, 127
1, 11215, Note_on_c, 1, 49, 127
1, 11382, Note_off_c, 1, 73, 0
1, 11384, Note_on_c, 1, 77, 127
1, 11524, Note_off_c, 1, 77, 0
1, 11553, Note_on_c, 1, 80, 127
1, 11693, Note_off_c, 1, 80, 0
1, 12225, Note_off_c, 1, 49, 0
1, 12229, Note_on_c, 1, 82, 127
1, 12229, Note_on_c, 1, 49, 127
1, 12313, Note_on_c, 1, 80, 127
1, 12325, Note_off_c, 1, 82, 0
1, 12396, Note_off_c, 1, 49, 0
1, 12398, Note_on_c, 1, 53, 127
1, 12409, Note_off_c, 1, 80, 0
1, 12538, Note_off_c, 1, 53, 0
1, 12567, Note_on_c, 1, 56, 127
1, 12707, Note_off_c, 1, 56, 0
1, 13073, Note_on_c, 1, 78, 127
1, 13073, Note_on_c, 1, 58, 127
1, 13153, Note_off_c, 1, 78, 0
1, 13158, Note_on_c, 1, 80, 127
1, 13213, Note_off_c, 1, 58, 0
1, 13407, Note_off_c, 1, 80, 0
1, 13411, Note_on_c, 1, 77, 127
1, 13544, Note_off_c, 1, 77, 0
1, 13749, Note_on_c, 1, 56, 127
1, 14252, Note_off_c, 1, 56, 0
1, 14256, Note_on_c, 1, 54, 127
1, 14425, Note_on_c, 1, 82, 127
1, 14558, Note_off_c, 1, 82, 0
1, 14594, Note_on_c, 1, 75, 127
1, 14759, Note_off_c, 1, 54, 0
1, 14763, Note_on_c, 1, 53, 127
1, 14928, Note_off_c, 1, 75, 0
1, 15101, Note_on_c, 1, 74, 127
1, 15218, Note_off_c, 1, 74, 0
1, 15266, Note_off_c, 1, 53, 0
1, 15270, Note_on_c, 1, 78, 127
1, 15270, Note_on_c, 1, 51, 127
1, 15437, Note_off_c, 1, 78, 0
1, 15439, Note_on_c, 1, 70, 127
1, 15607, Note_off_c, 1, 70, 0
1, 15608, Note_on_c, 1, 71, 127
1, 15773, Note_off_c, 1, 51, 0
1, 15777, Note_on_c, 1, 49, 127
1, 15942, Note_off_c, 1, 71, 0
1, 15946, Note_on_c, 1, 73, 127
1, 16079, Note_off_c, 1, 73, 0
1, 16280, Note_off_c, 1, 49, 0
1, 16284, Note_on_c, 1, 47, 127
1, 16453, Note_on_c, 1, 75, 127
1, 16586, Note_off_c, 1, 75, 0
1, 16622, Note_on_c, 1, 68, 127
1, 16787, Note_off_c, 1, 47, 0
1, 16791, Note_on_c, 1, 46, 127
1, 16956, Note_off_c, 1, 68, 0
1, 17128, Note_on_c, 1, 66, 127
1, 17294, Note_off_c, 1, 46, 0
1, 17297, Note_on_c, 1, 44, 127
1, 17462, Note_off_c, 1, 66, 0
1, 17635, Note_on_c, 1, 64, 127
1, 17800, Note_off_c, 1, 44, 0
1, 17804, Note_on_c, 1, 42, 127
1, 17969, Note_off_c, 1, 64, 0
1, 18142, Note_on_c, 1, 63, 127
1, 18282, Note_off_c, 1, 63, 0
1, 18307, Note_off_c, 1, 42, 0
1, 18311, Note_on_c, 1, 68, 127
1, 18311, Note_on_c, 1, 41, 127
1, 18478, Note_off_c, 1, 68, 0
1, 18480, Note_on_c, 1, 62, 127
1, 18649, Note_on_c, 1, 63, 127
1, 18654, Note_off_c, 1, 62, 0
1, 18814, Note_off_c, 1, 41, 0
1, 18818, Note_on_c, 1, 51, 127
1, 18983, Note_off_c, 1, 63, 0
1, 19321, Note_off_c, 1, 51, 0
1, 19325, Note_on_c, 1, 50, 127
1, 19494, Note_on_c, 1, 65, 127
1, 19627, Note_off_c, 1, 65, 0
1, 19663, Note_on_c, 1, 71, 127
1, 19828, Note_off_c, 1, 50, 0
1, 19832, Note_on_c, 1, 46, 127
1, 19997, Note_off_c, 1, 71, 0
1, 20170, Note_on_c, 1, 77, 127
1, 20335, Note_off_c, 1, 46, 0
1, 20504, Note_off_c, 1, 77, 0
1, 20677, Note_on_c, 1, 66, 127
1, 20846, Note_on_c, 1, 54, 127
1, 21011, Note_off_c, 1, 66, 0
1, 21015, Note_on_c, 1, 70, 127
1, 21148, Note_off_c, 1, 70, 0
1, 21184, Note_on_c, 1, 75, 127
1, 21349, Note_off_c, 1, 54, 0
1, 21352, Note_on_c, 1, 56, 127
1, 21518, Note_off_c, 1, 75, 0
1, 21855, Note_off_c, 1, 56, 0
1, 21859, Note_on_c, 1, 58, 127
1, 22197, Note_on_c, 1, 74, 127
1, 22314, Note_off_c, 1, 74, 0
1, 22362, Note_off_c, 1, 58, 0
1, 22366, Note_on_c, 1, 77, 127
1, 22366, Note_on_c, 1, 51, 127
1, 22451, Note_on_c, 1, 75, 127
1, 22462, Note_off_c, 1, 77, 0
1, 22533, Note_off_c, 1, 51, 0
1, 22535, Note_on_c, 1, 54, 127
1, 22547, Note_off_c, 1, 75, 0
1, 22693, Note_off_c, 1, 54, 0
1, 22704, Note_on_c, 1, 58, 127
1, 22862, Note_off_c, 1, 58, 0
1, 23211, Note_on_c, 1, 74, 127
1, 23211, Note_on_c, 1, 60, 127
1, 23291, Note_off_c, 1, 74, 0
1, 23296, Note_on_c, 1, 75, 127
1, 23369, Note_off_c, 1, 60, 0
1, 23380, Note_on_c, 1, 61, 127
1, 23460, Note_off_c, 1, 61, 0
1, 23545, Note_off_c, 1, 75, 0
1, 23549, Note_on_c, 1, 61, 127
1, 23549, Note_on_c, 1, 78, 127
1, 23629, Note_off_c, 1, 61, 0
1, 23633, Note_on_c, 1, 60, 127
1, 23689, Note_off_c, 1, 78, 0
1, 23713, Note_off_c, 1, 60, 0
1, 23718, Note_on_c, 1, 61, 127
1, 23718, Note_on_c, 1, 82, 127
1, 23798, Note_off_c, 1, 61, 0
1, 23802, Note_on_c, 1, 60, 127
1, 23858, Note_off_c, 1, 82, 0
1, 23882, Note_off_c, 1, 60, 0
1, 23887, Note_on_c, 1, 61, 127
1, 23887, Note_on_c, 1, 78, 127
1, 23967, Note_off_c, 1, 61, 0
1, 23971, Note_on_c, 1, 60, 127
1, 24027, Note_off_c, 1, 78, 0
1, 24051, Note_off_c, 1, 60, 0
1, 24056, Note_on_c, 1, 61, 127
1, 24056, Note_on_c, 1, 75, 127
1, 24136, Note_off_c, 1, 61, 0
1, 24140, Note_on_c, 1, 60, 127
1, 24196, Note_off_c, 1, 75, 0
1, 24220, Note_off_c, 1, 60, 0
1, 24225, Note_on_c, 1, 58, 127
1, 24225, Note_on_c, 1, 81, 127
1, 24305, Note_off_c, 1, 58, 0
1, 24309, Note_on_c, 1, 60, 127
1, 24365, Note_off_c, 1, 81, 0
1, 24394, Note_on_c, 1, 82, 127
1, 24490, Note_off_c, 1, 82, 0
1, 24558, Note_off_c, 1, 60, 0
1, 24563, Note_on_c, 1, 63, 127
1, 24703, Note_off_c, 1, 63, 0
1, 24732, Note_on_c, 1, 66, 127
1, 24872, Note_off_c, 1, 66, 0
1, 25239, Note_on_c, 1, 79, 127
1, 25239, Note_on_c, 1, 66, 127
1, 25319, Note_off_c, 1, 79, 0
1, 25323, Note_on_c, 1, 81, 127
1, 25379, Note_off_c, 1, 66, 0
1, 25572, Note_off_c, 1, 81, 0
1, 25576, Note_on_c, 1, 65, 127
1, 25576, Note_on_c, 1, 82, 127
1, 25708, Note_off_c, 1, 65, 0
1, 25708, Note_off_c, 1, 82, 0
1, 25745, Note_on_c, 1, 63, 127
1, 25745, Note_on_c, 1, 84, 127
1, 25877, Note_off_c, 1, 63, 0
1, 25877, Note_off_c, 1, 84, 0
1, 25914, Note_on_c, 1, 61, 127
1, 25914, Note_on_c, 1, 77, 127
1, 26081, Note_off_c, 1, 61, 0
1, 26081, Note_off_c, 1, 77, 0
1, 26083, Note_on_c, 1, 63, 127
1, 26083, Note_on_c, 1, 78, 127
1, 26215, Note_off_c, 1, 63, 0
1, 26215, Note_off_c, 1, 78, 0
1, 26252, Note_on_c, 1, 65, 127
1, 26252, Note_on_c, 1, 75, 127
1, 26384, Note_off_c, 1, 65, 0
1, 26384, Note_off_c, 1, 75, 0
1, 26421, Note_on_c, 1, 73, 127
1, 26421, Note_on_c, 1, 58, 127
1, 26588, Note_off_c, 1, 73, 0
1, 26590, Note_on_c, 1, 77, 127
1, 26723, Note_off_c, 1, 77, 0
1, 26759, Note_on_c, 1, 70, 127
1, 26924, Note_off_c, 1, 58, 0
1, 26928, Note_on_c, 1, 53, 127
1, 27093, Note_off_c, 1, 70, 0
1, 27097, Note_on_c, 1, 72, 127
1, 27214, Note_off_c, 1, 72, 0
1, 27266, Note_on_c, 1, 69, 127
1, 27383, Note_off_c, 1, 69, 0
1, 27431, Note_off_c, 1, 53, 0
1, 27435, Note_on_c, 1, 70, 127
1, 27435, Note_on_c, 1, 54, 127
1, 27604, Note_on_c, 1, 73, 127
1, 27621, Note_off_c, 1, 70, 0
1, 27737, Note_off_c, 1, 73, 0
1, 27938, Note_off_c, 1, 54, 0
1, 27942, Note_on_c, 1, 49, 127
1, 28195, Note_on_c, 1, 72, 127
1, 28275, Note_off_c, 1, 72, 0
1, 28445, Note_off_c, 1, 49, 0
1, 28449, Note_on_c, 1, 51, 127
1, 28618, Note_on_c, 1, 78, 127
1, 28751, Note_off_c, 1, 78, 0
1, 28952, Note_off_c, 1, 51, 0
1, 28956, Note_on_c, 1, 53, 127
1, 29294, Note_on_c, 1, 69, 127
1, 29411, Note_off_c, 1, 69, 0
1, 29459, Note_off_c, 1, 53, 0
1, 29463, Note_on_c, 1, 70, 127
1, 29463, Note_on_c, 1, 46, 127
1, 29632, Note_on_c, 1, 73, 127
1, 29763, Note_off_c, 1, 70, 0
1, 29772, Note_off_c, 1, 73, 0
1, 29800, Note_on_c, 1, 77, 127
1, 29940, Note_off_c, 1, 77, 0
1, 30307, Note_off_c, 1, 46, 0
1, 30307, Note_on_c, 1, 79, 127
1, 30456, Note_off_c, 1, 79, 0
1, 30476, Note_on_c, 1, 80, 127
1, 30476, Note_on_c, 1, 51, 127
1, 30561, Note_on_c, 1, 79, 127
1, 30572, Note_off_c, 1, 80, 0
1, 30634, Note_off_c, 1, 51, 0
1, 30645, Note_on_c, 1, 55, 127
1, 30657, Note_off_c, 1, 79, 0
1, 30803, Note_off_c, 1, 55, 0
1, 30814, Note_on_c, 1, 58, 127
1, 30972, Note_off_c, 1, 58, 0
1, 31321, Note_on_c, 1, 77, 127
1, 31321, Note_on_c, 1, 61, 127
1, 31401, Note_off_c, 1, 77, 0
1, 31406, Note_on_c, 1, 79, 127
1, 31479, Note_off_c, 1, 61, 0
1, 31655, Note_off_c, 1, 79, 0
1, 31659, Note_on_c, 1, 82, 127
1, 31776, Note_off_c, 1, 82, 0
1, 31828, Note_on_c, 1, 75, 127
1, 31945, Note_off_c, 1, 75, 0
1, 31997, Note_on_c, 1, 73, 127
1, 31997, Note_on_c, 1, 55, 127
1, 32164, Note_off_c, 1, 73, 0
1, 32166, Note_on_c, 1, 71, 127
1, 32315, Note_off_c, 1, 71, 0
1, 32335, Note_on_c, 1, 70, 127
1, 32484, Note_off_c, 1, 70, 0
1, 32500, Note_off_c, 1, 55, 0
1, 32504, Note_on_c, 1, 71, 127
1, 32504, Note_on_c, 1, 56, 127
1, 32671, Note_off_c, 1, 71, 0
1, 32673, Note_on_c, 1, 75, 127
1, 32806, Note_off_c, 1, 75, 0
1, 32842, Note_on_c, 1, 68, 127
1, 33007, Note_off_c, 1, 56, 0
1, 33011, Note_on_c, 1, 51, 127
1, 33176, Note_off_c, 1, 68, 0
1, 33180, Note_on_c, 1, 70, 127
1, 33320, Note_off_c, 1, 70, 0
1, 33349, Note_on_c, 1, 67, 127
1, 33489, Note_off_c, 1, 67, 0
1, 33514, Note_off_c, 1, 51, 0
1, 33518, Note_on_c, 1, 68, 127
1, 33518, Note_on_c, 1, 52, 127
1, 33685, Note_off_c, 1, 68, 0
1, 33687, Note_on_c, 1, 71, 127
1, 33792, Note_off_c, 1, 71, 0
1, 34021, Note_off_c, 1, 52, 0
1, 34024, Note_on_c, 1, 47, 127
1, 34278, Note_on_c, 1, 70, 127
1, 34358, Note_off_c, 1, 70, 0
1, 34527, Note_off_c, 1, 47, 0
1, 34531, Note_on_c, 1, 49, 127
1, 34700, Note_on_c, 1, 76, 127
1, 34833, Note_off_c, 1, 76, 0
1, 35034, Note_off_c, 1, 49, 0
1, 35038, Note_on_c, 1, 51, 127
1, 35376, Note_on_c, 1, 67, 127
1, 35508, Note_off_c, 1, 67, 0
1, 35541, Note_off_c, 1, 51, 0
1, 35545, Note_on_c, 1, 68, 127
1, 35545, Note_on_c, 1, 44, 127
1, 35712, Note_off_c, 1, 68, 0
1, 35714, Note_on_c, 1, 71, 127
1, 35833, Note_off_c, 1, 71, 0
1, 35883, Note_on_c, 1, 75, 127
1, 36002, Note_off_c, 1, 75, 0
1, 36389, Note_off_c, 1, 44, 0
1, 36390, Note_on_c, 1, 77, 127
1, 36530, Note_off_c, 1, 77, 0
1, 36559, Note_on_c, 1, 78, 127
1, 36559, Note_on_c, 1, 49, 127
1, 36643, Note_on_c, 1, 77, 127
1, 36655, Note_off_c, 1, 78, 0
1, 36726, Note_off_c, 1, 49, 0
1, 36728, Note_on_c, 1, 53, 127
1, 36739, Note_off_c, 1, 77, 0
1, 36868, Note_off_c, 1, 53, 0
1, 36897, Note_on_c, 1, 56, 127
1, 37037, Note_off_c, 1, 56, 0
1, 37404, Note_on_c, 1, 75, 127
1, 37404, Note_on_c, 1, 59, 127
1, 37484, Note_off_c, 1, 75, 0
1, 37488, Note_on_c, 1, 77, 127
1, 37544, Note_off_c, 1, 59, 0
1, 37737, Note_off_c, 1, 77, 0
1, 37742, Note_on_c, 1, 73, 127
1, 37882, Note_off_c, 1, 73, 0
1, 38080, Note_on_c, 1, 80, 127
1, 38220, Note_off_c, 1, 80, 0
1, 38248, Note_on_c, 1, 56, 127
1, 38248, Note_on_c, 1, 77, 127
1, 38388, Note_off_c, 1, 56, 0
1, 38388, Note_off_c, 1, 77, 0
1, 38417, Note_on_c, 1, 59, 127
1, 38417, Note_on_c, 1, 80, 127
1, 38557, Note_off_c, 1, 59, 0
1, 38557, Note_off_c, 1, 80, 0
1, 38586, Note_on_c, 1, 83, 127
1, 38586, Note_on_c, 1, 65, 127
1, 38671, Note_on_c, 1, 82, 127
1, 38682, Note_off_c, 1, 83, 0
1, 38744, Note_off_c, 1, 65, 0
1, 38755, Note_on_c, 1, 68, 127
1, 38767, Note_off_c, 1, 82, 0
1, 38913, Note_off_c, 1, 68, 0
1, 39093, Note_on_c, 1, 61, 127
1, 39251, Note_off_c, 1, 61, 0
1, 39600, Note_on_c, 1, 54, 127
1, 39769, Note_on_c, 1, 80, 127
1, 39874, Note_off_c, 1, 80, 0
1, 40103, Note_off_c, 1, 54, 0
1, 40107, Note_on_c, 1, 59, 127
1, 40610, Note_off_c, 1, 59, 0
1, 40614, Note_on_c, 1, 60, 127
1, 40783, Note_on_c, 1, 77, 127
1, 40916, Note_off_c, 1, 77, 0
1, 40952, Note_on_c, 1, 78, 127
1, 41117, Note_off_c, 1, 60, 0
1, 41286, Note_off_c, 1, 78, 0
1, 41628, Note_on_c, 1, 78, 127
1, 41628, Note_on_c, 1, 51, 127
1, 41795, Note_off_c, 1, 78, 0
1, 41797, Note_on_c, 1, 70, 127
1, 41911, Note_off_c, 1, 70, 0
1, 41966, Note_on_c, 1, 71, 127
1, 42131, Note_off_c, 1, 51, 0
1, 42135, Note_on_c, 1, 49, 127
1, 42300, Note_off_c, 1, 71, 0
1, 42304, Note_on_c, 1, 73, 127
1, 42437, Note_off_c, 1, 73, 0
1, 42638, Note_off_c, 1, 49, 0
1, 42641, Note_on_c, 1, 47, 127
1, 42810, Note_on_c, 1, 75, 127
1, 42943, Note_off_c, 1, 75, 0
1, 42979, Note_on_c, 1, 68, 127
1, 43144, Note_off_c, 1, 47, 0
1, 43148, Note_on_c, 1, 46, 127
1, 43313, Note_off_c, 1, 68, 0
1, 43486, Note_on_c, 1, 66, 127
1, 43651, Note_off_c, 1, 46, 0
1, 43655, Note_on_c, 1, 44, 127
1, 43820, Note_off_c, 1, 66, 0
1, 43824, Note_on_c, 1, 65, 127
1, 43957, Note_off_c, 1, 65, 0
1, 44158, Note_off_c, 1, 44, 0
1, 44162, Note_on_c, 1, 54, 127
1, 44665, Note_off_c, 1, 54, 0
1, 44669, Note_on_c, 1, 53, 127
1, 45007, Note_on_c, 1, 80, 127
1, 45172, Note_off_c, 1, 53, 0
1, 45341, Note_off_c, 1, 80, 0
1, 45345, Note_on_c, 1, 77, 127
1, 45503, Note_off_c, 1, 77, 0
1, 46865, Note_on_c, 1, 63, 127
1, 46998, Note_off_c, 1, 63, 0
1, 47710, Note_on_c, 1, 66, 127
1, 47710, Note_on_c, 1, 42, 127
1, 47790, Note_off_c, 1, 66, 0
1, 47794, Note_on_c, 1, 65, 127
1, 47874, Note_off_c, 1, 65, 0
1, 47877, Note_off_c, 1, 42, 0
1, 47879, Note_on_c, 1, 46, 127
1, 48037, Note_off_c, 1, 46, 0
1, 48048, Note_on_c, 1, 49, 127
1, 48206, Note_off_c, 1, 49, 0
1, 48555, Note_on_c, 1, 51, 127
1, 48713, Note_off_c, 1, 51, 0
1, 48893, Note_on_c, 1, 58, 127
1, 49026, Note_off_c, 1, 58, 0
1, 49062, Note_on_c, 1, 59, 127
1, 49396, Note_off_c, 1, 59, 0
1, 49400, Note_on_c, 1, 61, 127
1, 49533, Note_off_c, 1, 61, 0
1, 49738, Note_on_c, 1, 47, 127
1, 49907, Note_on_c, 1, 63, 127
1, 50040, Note_off_c, 1, 63, 0
1, 50076, Note_on_c, 1, 56, 127
1, 50241, Note_off_c, 1, 47, 0
1, 50410, Note_off_c, 1, 56, 0
1, 50583, Note_on_c, 1, 54, 127
1, 50723, Note_off_c, 1, 54, 0
1, 50752, Note_on_c, 1, 59, 127
1, 50752, Note_on_c, 1, 44, 127
1, 50832, Note_off_c, 1, 59, 0
1, 50835, Note_on_c, 1, 58, 127
1, 50915, Note_off_c, 1, 58, 0
1, 50917, Note_off_c, 1, 44, 0
1, 50918, Note_on_c, 1, 59, 127
1, 50920, Note_on_c, 1, 47, 127
1, 51078, Note_off_c, 1, 47, 0
1, 51089, Note_on_c, 1, 51, 127
1, 51247, Note_off_c, 1, 51, 0
1, 51427, Note_on_c, 1, 44, 127
1, 51585, Note_off_c, 1, 44, 0
1, 51596, Note_on_c, 1, 53, 127
1, 51754, Note_off_c, 1, 53, 0
1, 51765, Note_on_c, 1, 37, 127
1, 51936, Note_on_c, 1, 65, 127
1, 52103, Note_off_c, 1, 65, 0
1, 52107, Note_on_c, 1, 68, 127
1, 52274, Note_off_c, 1, 68, 0
1, 52431, Note_off_c, 1, 59, 0
1, 52790, Note_on_c, 1, 57, 127
1, 52960, Note_on_c, 1, 61, 127
1, 53127, Note_off_c, 1, 61, 0
1, 53131, Note_on_c, 1, 66, 127
1, 53288, Note_off_c, 1, 57, 0
1, 53298, Note_off_c, 1, 66, 0
1, 53302, Note_on_c, 1, 49, 127
1, 53810, Note_off_c, 1, 37, 0
1, 54155, Note_on_c, 1, 69, 127
1, 54322, Note_off_c, 1, 69, 0
1, 54324, Note_off_c, 1, 49, 0
1, 54326, Note_on_c, 1, 62, 127
1, 54668, Note_on_c, 1, 71, 127
1, 54824, Note_off_c, 1, 62, 0
1, 54835, Note_off_c, 1, 71, 0
1, 55180, Note_on_c, 1, 74, 127
1, 55517, Note_off_c, 1, 74, 0
1, 55692, Note_on_c, 1, 77, 127
1, 55863, Note_on_c, 1, 56, 127
1, 56029, Note_off_c, 1, 77, 0
1, 56204, Note_on_c, 1, 80, 127
1, 56371, Note_off_c, 1, 56, 0
1, 56541, Note_off_c, 1, 80, 0
1, 56720, Note_on_c, 1, 83, 127
1, 56897, Note_off_c, 1, 83, 0
1, 56903, Note_on_c, 1, 82, 127
1, 56903, Note_on_c, 1, 54, 127
1, 57073, Note_off_c, 1, 82, 0
1, 57077, Note_on_c, 1, 73, 127
1, 57214, Note_off_c, 1, 73, 0
1, 57251, Note_on_c, 1, 78, 127
1, 57422, Note_off_c, 1, 54, 0
1, 57595, Note_off_c, 1, 78, 0
1, 57945, Note_on_c, 1, 78, 127
1, 57945, Note_on_c, 1, 51, 127
1, 58117, Note_off_c, 1, 78, 0
1, 58121, Note_on_c, 1, 70, 127
1, 58261, Note_off_c, 1, 70, 0
1, 58471, Note_off_c, 1, 51, 0
1, 58475, Note_on_c, 1, 46, 127
1, 58651, Note_on_c, 1, 82, 127
1, 58735, Note_off_c, 1, 82, 0
1, 58739, Note_on_c, 1, 80, 127
1, 58823, Note_off_c, 1, 80, 0
1, 58999, Note_off_c, 1, 46, 0
1, 59003, Note_on_c, 1, 47, 127
1, 59184, Note_on_c, 1, 68, 127
1, 59328, Note_off_c, 1, 68, 0
1, 59545, Note_off_c, 1, 47, 0
1, 59548, Note_on_c, 1, 49, 127
1, 59911, Note_on_c, 1, 77, 127
1, 60081, Note_off_c, 1, 77, 0
1, 60088, Note_off_c, 1, 49, 0
1, 60092, Note_on_c, 1, 78, 127
1, 60092, Note_on_c, 1, 42, 127
1, 60291, Note_on_c, 1, 73, 127
1, 60490, Note_on_c, 1, 70, 127
1, 60689, Note_on_c, 1, 66, 127
1, 62140, Note_off_c, 1, 70, 0
1, 62149, Note_off_c, 1, 73, 0
1, 62158, Note_off_c, 1, 78, 0
1, 63340, Note_off_c, 1, 42, 0
1, 63341, Note_off_c, 1, 66, 0
1, 63952, Note_on_c, 1, 73, 127
1, 64222, Note_off_c, 1, 73, 0
1, 64290, Note_on_c, 1, 78, 127
1, 64626, Note_off_c, 1, 78, 0
1, 64628, Note_on_c, 1, 77, 127
1, 64918, Note_off_c, 1, 77, 0
1, 64965, Note_on_c, 1, 78, 127
1, 65301, Note_off_c, 1, 78, 0
1, 65303, Note_on_c, 1, 77, 127
1, 65470, Note_off_c, 1, 77, 0
1, 65472, Note_on_c, 1, 75, 127
1, 65639, Note_off_c, 1, 75, 0
1, 65641, Note_on_c, 1, 75, 127
1, 65723, Note_off_c, 1, 75, 0
1, 65726, Note_on_c, 1, 73, 127
1, 65808, Note_off_c, 1, 73, 0
1, 65810, Note_on_c, 1, 75, 127
1, 65892, Note_off_c, 1, 75, 0
1, 65895, Note_on_c, 1, 73, 127
1, 65977, Note_off_c, 1, 73, 0
1, 65979, Note_on_c, 1, 75, 127
1, 66061, Note_off_c, 1, 75, 0
1, 66064, Note_on_c, 1, 73, 127
1, 66146, Note_off_c, 1, 73, 0
1, 66148, Note_on_c, 1, 71, 127
1, 66230, Note_off_c, 1, 71, 0
1, 66233, Note_on_c, 1, 73, 127
1, 66315, Note_off_c, 1, 73, 0
1, 66317, Note_on_c, 1, 75, 127
1, 67161, Note_off_c, 1, 75, 0
1, 67331, Note_on_c, 1, 73, 127
1, 67651, Note_off_c, 1, 73, 0
1, 67669, Note_on_c, 1, 71, 127
1, 68005, Note_off_c, 1, 71, 0
1, 68007, Note_on_c, 1, 70, 127
1, 68327, Note_off_c, 1, 70, 0
1, 68345, Note_on_c, 1, 68, 127
1, 68681, Note_off_c, 1, 68, 0
1, 68683, Note_on_c, 1, 73, 127
1, 69003, Note_off_c, 1, 73, 0
1, 69020, Note_on_c, 1, 70, 127
1, 69358, Note_on_c, 1, 66, 127
1, 69370, Note_off_c, 1, 70, 0
1, 69527, Note_on_c, 1, 78, 127
1, 69674, Note_off_c, 1, 66, 0
1, 69694, Note_off_c, 1, 78, 0
1, 69696, Note_on_c, 1, 77, 127
1, 69696, Note_on_c, 1, 73, 127
1, 69863, Note_off_c, 1, 77, 0
1, 69865, Note_on_c, 1, 78, 127
1, 70032, Note_off_c, 1, 73, 0
1, 70032, Note_off_c, 1, 78, 0
1, 70034, Note_on_c, 1, 80, 127
1, 70034, Note_on_c, 1, 72, 127
1, 70201, Note_off_c, 1, 80, 0
1, 70203, Note_on_c, 1, 75, 127
1, 70350, Note_off_c, 1, 72, 0
1, 70370, Note_off_c, 1, 75, 0
1, 70372, Note_on_c, 1, 77, 127
1, 70372, Note_on_c, 1, 73, 127
1, 70539, Note_off_c, 1, 77, 0
1, 70541, Note_on_c, 1, 78, 127
1, 70708, Note_off_c, 1, 73, 0
1, 70708, Note_off_c, 1, 78, 0
1, 70710, Note_on_c, 1, 72, 127
1, 70710, Note_on_c, 1, 80, 127
1, 70877, Note_off_c, 1, 72, 0
1, 70879, Note_on_c, 1, 70, 127
1, 71046, Note_off_c, 1, 70, 0
1, 71132, Note_on_c, 1, 68, 127
1, 71214, Note_off_c, 1, 68, 0
1, 71215, Note_off_c, 1, 80, 0
1, 71217, Note_on_c, 1, 70, 127
1, 71217, Note_on_c, 1, 78, 127
1, 71299, Note_off_c, 1, 70, 0
1, 71301, Note_on_c, 1, 68, 127
1, 71383, Note_off_c, 1, 68, 0
1, 71384, Note_off_c, 1, 78, 0
1, 71386, Note_on_c, 1, 70, 127
1, 71386, Note_on_c, 1, 77, 127
1, 71468, Note_off_c, 1, 70, 0
1, 71470, Note_on_c, 1, 68, 127
1, 71552, Note_off_c, 1, 68, 0
1, 71553, Note_off_c, 1, 77, 0
1, 71555, Note_on_c, 1, 66, 127
1, 71555, Note_on_c, 1, 75, 127
1, 71637, Note_off_c, 1, 66, 0
1, 71639, Note_on_c, 1, 68, 127
1, 71721, Note_off_c, 1, 68, 0
1, 71722, Note_off_c, 1, 75, 0
1, 71724, Note_on_c, 1, 73, 127
1, 71724, Note_on_c, 1, 70, 127
1, 71891, Note_off_c, 1, 73, 0
1, 71893, Note_on_c, 1, 75, 127
1, 72060, Note_off_c, 1, 75, 0
1, 72062, Note_on_c, 1, 77, 127
1, 72229, Note_off_c, 1, 77, 0
1, 72231, Note_on_c, 1, 72, 127
1, 72398, Note_off_c, 1, 72, 0
1, 72568, Note_off_c, 1, 70, 0
1, 72569, Note_on_c, 1, 75, 127
1, 72736, Note_off_c, 1, 75, 0
1, 72738, Note_on_c, 1, 77, 127
1, 72738, Note_on_c, 1, 68, 127
1, 72905, Note_off_c, 1, 77, 0
1, 72907, Note_on_c, 1, 73, 127
1, 73074, Note_off_c, 1, 68, 0
1, 73074, Note_off_c, 1, 73, 0
1, 73076, Note_on_c, 1, 70, 127
1, 73076, Note_on_c, 1, 66, 127
1, 73243, Note_off_c, 1, 70, 0
1, 73244, Note_on_c, 1, 72, 127
1, 73411, Note_off_c, 1, 72, 0
1, 73412, Note_off_c, 1, 66, 0
1, 73413, Note_on_c, 1, 65, 127
1, 73413, Note_on_c, 1, 73, 127
1, 73749, Note_off_c, 1, 65, 0
1, 73751, Note_on_c, 1, 63, 127
1, 74087, Note_off_c, 1, 73, 0
1, 74087, Note_off_c, 1, 63, 0
1, 74089, Note_on_c, 1, 72, 127
1, 74089, Note_on_c, 1, 68, 127
1, 74425, Note_off_c, 1, 72, 0
1, 74425, Note_off_c, 1, 68, 0
1, 74427, Note_on_c, 1, 65, 127
1, 74427, Note_on_c, 1, 73, 127
1, 74763, Note_off_c, 1, 65, 0
1, 74765, Note_on_c, 1, 61, 127
1, 74765, Note_on_c, 1, 49, 127
1, 74932, Note_off_c, 1, 61, 0
1, 74934, Note_on_c, 1, 71, 127
1, 75085, Note_off_c, 1, 49, 0
1, 75101, Note_off_c, 1, 71, 0
1, 75103, Note_on_c, 1, 70, 127
1, 75103, Note_on_c, 1, 54, 127
1, 75270, Note_off_c, 1, 70, 0
1, 75412, Note_off_c, 1, 73, 0
1, 75439, Note_off_c, 1, 54, 0
1, 75441, Note_on_c, 1, 53, 127
1, 75441, Note_on_c, 1, 73, 127
1, 75610, Note_on_c, 1, 68, 127
1, 75761, Note_off_c, 1, 53, 0
1, 75777, Note_off_c, 1, 68, 0
1, 75779, Note_on_c, 1, 70, 127
1, 75779, Note_on_c, 1, 54, 127
1, 75946, Note_off_c, 1, 70, 0
1, 75948, Note_on_c, 1, 71, 127
1, 76115, Note_off_c, 1, 73, 0
1, 76115, Note_off_c, 1, 54, 0
1, 76286, Note_on_c, 1, 75, 127
1, 76286, Note_on_c, 1, 51, 127
1, 76453, Note_off_c, 1, 75, 0
1, 76453, Note_off_c, 1, 51, 0
1, 76455, Note_on_c, 1, 77, 127
1, 76539, Note_on_c, 1, 49, 127
1, 76621, Note_off_c, 1, 49, 0
1, 76622, Note_off_c, 1, 71, 0
1, 76962, Note_on_c, 1, 47, 127
1, 77044, Note_off_c, 1, 47, 0
1, 77129, Note_off_c, 1, 77, 0
1, 77131, Note_on_c, 1, 66, 127
1, 77131, Note_on_c, 1, 78, 127
1, 77131, Note_on_c, 1, 51, 127
1, 77298, Note_off_c, 1, 66, 0
1, 77300, Note_on_c, 1, 68, 127
1, 77467, Note_off_c, 1, 68, 0
1, 77468, Note_on_c, 1, 70, 127
1, 77635, Note_off_c, 1, 70, 0
1, 77637, Note_on_c, 1, 65, 127
1, 77804, Note_off_c, 1, 65, 0
1, 77975, Note_off_c, 1, 78, 0
1, 77975, Note_off_c, 1, 51, 0
1, 78144, Note_on_c, 1, 70, 127
1, 78144, Note_on_c, 1, 49, 127
1, 78313, Note_on_c, 1, 66, 127
1, 78478, Note_off_c, 1, 70, 0
1, 78480, Note_off_c, 1, 49, 0
1, 78480, Note_off_c, 1, 66, 0
1, 78482, Note_on_c, 1, 63, 127
1, 78482, Note_on_c, 1, 68, 127
1, 78482, Note_on_c, 1, 47, 127
1, 78649, Note_off_c, 1, 63, 0
1, 78651, Note_on_c, 1, 65, 127
1, 78818, Note_off_c, 1, 68, 0
1, 78818, Note_off_c, 1, 47, 0
1, 78818, Note_off_c, 1, 65, 0
1, 78820, Note_on_c, 1, 70, 127
1, 78820, Note_on_c, 1, 46, 127
1, 78820, Note_on_c, 1, 66, 127
1, 79156, Note_off_c, 1, 70, 0
1, 79156, Note_off_c, 1, 46, 0
1, 79158, Note_on_c, 1, 71, 127
1, 79158, Note_on_c, 1, 44, 127
1, 79494, Note_off_c, 1, 66, 0
1, 79494, Note_off_c, 1, 71, 0
1, 79494, Note_off_c, 1, 44, 0
1, 79496, Note_on_c, 1, 70, 127
1, 79496, Note_on_c, 1, 65, 127
1, 79496, Note_on_c, 1, 49, 127
1, 79663, Note_off_c, 1, 70, 0
1, 79665, Note_on_c, 1, 68, 127
1, 79816, Note_off_c, 1, 65, 0
1, 79832, Note_off_c, 1, 49, 0
1, 79832, Note_off_c, 1, 68, 0
1, 79834, Note_on_c, 1, 70, 127
1, 79834, Note_on_c, 1, 42, 127
1, 79834, Note_on_c, 1, 66, 127
1, 80001, Note_off_c, 1, 70, 0
1, 80003, Note_on_c, 1, 73, 127
1, 80170, Note_off_c, 1, 42, 0
1, 80170, Note_off_c, 1, 73, 0
1, 80172, Note_on_c, 1, 54, 127
1, 80502, Note_off_c, 1, 66, 0
1, 80508, Note_off_c, 1, 54, 0
1, 80510, Note_on_c, 1, 68, 127
1, 80510, Note_on_c, 1, 53, 127
1, 80677, Note_off_c, 1, 68, 0
1, 80679, Note_on_c, 1, 73, 127
1, 80846, Note_off_c, 1, 53, 0
1, 80846, Note_off_c, 1, 73, 0
1, 80848, Note_on_c, 1, 73, 127
1, 80848, Note_on_c, 1, 65, 127
1, 80848, Note_on_c, 1, 49, 127
1, 81015, Note_off_c, 1, 73, 0
1, 81017, Note_on_c, 1, 68, 127
1, 81184, Note_off_c, 1, 65, 0
1, 81184, Note_off_c, 1, 49, 0
1, 81184, Note_off_c, 1, 68, 0
1, 81186, Note_on_c, 1, 54, 127
1, 81186, Note_on_c, 1, 70, 127
1, 81186, Note_on_c, 1, 66, 127
1, 81353, Note_off_c, 1, 54, 0
1, 81355, Note_on_c, 1, 58, 127
1, 81522, Note_off_c, 1, 70, 0
1, 81522, Note_off_c, 1, 58, 0
1, 81524, Note_on_c, 1, 73, 127
1, 81860, Note_off_c, 1, 73, 0
1, 81861, Note_on_c, 1, 51, 127
1, 81861, Note_on_c, 1, 78, 127
1, 82028, Note_off_c, 1, 51, 0
1, 82030, Note_off_c, 1, 66, 0
1, 82537, Note_on_c, 1, 75, 127
1, 82537, Note_on_c, 1, 48, 127
1, 82704, Note_off_c, 1, 75, 0
1, 82706, Note_on_c, 1, 68, 127
1, 82873, Note_off_c, 1, 78, 0
1, 82873, Note_off_c, 1, 48, 0
1, 82873, Note_off_c, 1, 68, 0
1, 82875, Note_on_c, 1, 68, 127
1, 82875, Note_on_c, 1, 49, 127
1, 82875, Note_on_c, 1, 77, 127
1, 83042, Note_off_c, 1, 68, 0
1, 83044, Note_on_c, 1, 73, 127
1, 83211, Note_off_c, 1, 49, 0
1, 83211, Note_off_c, 1, 73, 0
1, 83213, Note_on_c, 1, 70, 127
1, 83213, Note_on_c, 1, 54, 127
1, 83380, Note_off_c, 1, 70, 0
1, 83382, Note_on_c, 1, 66, 127
1, 83549, Note_off_c, 1, 77, 0
1, 83549, Note_off_c, 1, 66, 0
1, 83551, Note_on_c, 1, 75, 127
1, 83718, Note_off_c, 1, 75, 0
1, 83889, Note_on_c, 1, 72, 127
1, 84056, Note_off_c, 1, 54, 0
1, 84058, Note_on_c, 1, 56, 127
1, 84225, Note_off_c, 1, 72, 0
1, 84225, Note_off_c, 1, 56, 0
1, 84227, Note_on_c, 1, 60, 127
1, 84394, Note_off_c, 1, 60, 0
1, 84565, Note_on_c, 1, 53, 127
1, 84565, Note_on_c, 1, 80, 127
1, 84732, Note_off_c, 1, 53, 0
1, 85241, Note_on_c, 1, 50, 127
1, 85408, Note_off_c, 1, 50, 0
1, 85410, Note_on_c, 1, 58, 127
1, 85577, Note_off_c, 1, 80, 0
1, 85577, Note_off_c, 1, 58, 0
1, 85579, Note_on_c, 1, 78, 127
1, 85746, Note_off_c, 1, 78, 0
1, 85916, Note_on_c, 1, 51, 127
1, 86083, Note_off_c, 1, 51, 0
1, 86592, Note_on_c, 1, 48, 127
1, 86759, Note_off_c, 1, 48, 0
1, 87944, Note_on_c, 1, 46, 127
1, 88111, Note_off_c, 1, 46, 0
1, 88620, Note_on_c, 1, 42, 127
1, 88956, Note_off_c, 1, 42, 0
1, 88958, Note_on_c, 1, 70, 127
1, 88958, Note_on_c, 1, 73, 127
1, 88958, Note_on_c, 1, 54, 127
1, 89125, Note_off_c, 1, 70, 0
1, 89127, Note_on_c, 1, 66, 127
1, 89294, Note_off_c, 1, 73, 0
1, 89294, Note_off_c, 1, 66, 0
1, 89296, Note_on_c, 1, 72, 127
1, 89296, Note_on_c, 1, 63, 127
1, 89463, Note_off_c, 1, 54, 0
1, 89616, Note_off_c, 1, 72, 0
1, 89616, Note_off_c, 1, 63, 0
1, 89634, Note_on_c, 1, 53, 127
1, 89634, Note_on_c, 1, 68, 127
1, 89801, Note_off_c, 1, 53, 0
1, 89803, Note_on_c, 1, 51, 127
1, 89970, Note_off_c, 1, 51, 0
1, 89972, Note_on_c, 1, 49, 127
1, 89972, Note_on_c, 1, 73, 127
1, 90134, Note_off_c, 1, 68, 0
1, 90139, Note_off_c, 1, 49, 0
1, 90647, Note_on_c, 1, 46, 127
1, 90647, Note_on_c, 1, 66, 127
1, 90814, Note_off_c, 1, 46, 0
1, 90816, Note_on_c, 1, 48, 127
1, 90983, Note_off_c, 1, 66, 0
1, 90983, Note_off_c, 1, 48, 0
1, 90985, Note_on_c, 1, 65, 127
1, 91305, Note_off_c, 1, 65, 0
1, 91323, Note_on_c, 1, 63, 127
1, 91323, Note_on_c, 1, 42, 127
1, 91490, Note_off_c, 1, 73, 0
1, 91659, Note_off_c, 1, 63, 0
1, 91659, Note_off_c, 1, 42, 0
1, 91661, Note_on_c, 1, 44, 127
1, 91830, Note_on_c, 1, 72, 127
1, 91997, Note_off_c, 1, 44, 0
1, 91997, Note_off_c, 1, 72, 0
1, 91999, Note_on_c, 1, 65, 127
1, 91999, Note_on_c, 1, 73, 127
1, 91999, Note_on_c, 1, 37, 127
1, 92167, Note_off_c, 1, 65, 0
1, 92170, Note_on_c, 1, 68, 127
1, 92338, Note_off_c, 1, 73, 0
1, 92338, Note_off_c, 1, 68, 0
1, 92497, Note_off_c, 1, 37, 0
1, 92511, Note_on_c, 1, 71, 127
1, 92679, Note_off_c, 1, 71, 0
1, 92682, Note_on_c, 1, 70, 127
1, 92682, Note_on_c, 1, 78, 127
1, 92850, Note_off_c, 1, 70, 0
1, 92853, Note_on_c, 1, 71, 127
1, 93021, Note_off_c, 1, 78, 0
1, 93021, Note_off_c, 1, 71, 0
1, 93023, Note_on_c, 1, 73, 127
1, 93023, Note_on_c, 1, 77, 127
1, 93191, Note_off_c, 1, 73, 0
1, 93194, Note_on_c, 1, 68, 127
1, 93362, Note_off_c, 1, 77, 0
1, 93362, Note_off_c, 1, 68, 0
1, 93365, Note_on_c, 1, 70, 127
1, 93365, Note_on_c, 1, 78, 127
1, 93533, Note_off_c, 1, 70, 0
1, 93536, Note_on_c, 1, 71, 127
1, 93704, Note_off_c, 1, 78, 0
1, 93704, Note_off_c, 1, 71, 0
1, 93706, Note_on_c, 1, 77, 127
1, 93706, Note_on_c, 1, 54, 127
1, 93706, Note_on_c, 1, 73, 127
1, 93874, Note_off_c, 1, 77, 0
1, 93874, Note_off_c, 1, 54, 0
1, 93877, Note_on_c, 1, 75, 127
1, 93877, Note_on_c, 1, 56, 127
1, 94043, Note_off_c, 1, 73, 0
1, 94045, Note_off_c, 1, 75, 0
1, 94045, Note_off_c, 1, 56, 0
1, 94048, Note_on_c, 1, 75, 127
1, 94048, Note_on_c, 1, 58, 127
1, 94132, Note_off_c, 1, 75, 0
1, 94134, Note_on_c, 1, 73, 127
1, 94218, Note_off_c, 1, 58, 0
1, 94218, Note_off_c, 1, 73, 0
1, 94220, Note_on_c, 1, 75, 127
1, 94220, Note_on_c, 1, 71, 127
1, 94220, Note_on_c, 1, 54, 127
1, 94304, Note_off_c, 1, 75, 0
1, 94306, Note_on_c, 1, 73, 127
1, 94390, Note_off_c, 1, 71, 0
1, 94390, Note_off_c, 1, 54, 0
1, 94390, Note_off_c, 1, 73, 0
1, 94393, Note_on_c, 1, 75, 127
1, 94393, Note_on_c, 1, 70, 127
1, 94393, Note_on_c, 1, 54, 127
1, 94477, Note_off_c, 1, 75, 0
1, 94479, Note_on_c, 1, 73, 127
1, 94563, Note_off_c, 1, 70, 0
1, 94563, Note_off_c, 1, 54, 0
1, 94563, Note_off_c, 1, 73, 0
1, 94565, Note_on_c, 1, 71, 127
1, 94565, Note_on_c, 1, 68, 127
1, 94565, Note_on_c, 1, 58, 127
1, 94649, Note_off_c, 1, 71, 0
1, 94651, Note_on_c, 1, 73, 127
1, 94735, Note_off_c, 1, 68, 0
1, 94735, Note_off_c, 1, 58, 0
1, 94735, Note_off_c, 1, 73, 0
1, 94738, Note_on_c, 1, 66, 127
1, 94738, Note_on_c, 1, 59, 127
1, 94738, Note_on_c, 1, 75, 127
1, 94906, Note_off_c, 1, 66, 0
1, 94906, Note_off_c, 1, 59, 0
1, 94908, Note_on_c, 1, 68, 127
1, 94908, Note_on_c, 1, 54, 127
1, 95076, Note_off_c, 1, 68, 0
1, 95076, Note_off_c, 1, 54, 0
1, 95079, Note_on_c, 1, 70, 127
1, 95247, Note_off_c, 1, 70, 0
1, 95250, Note_on_c, 1, 65, 127
1, 95418, Note_off_c, 1, 65, 0
1, 95420, Note_on_c, 1, 61, 127
1, 95588, Note_off_c, 1, 61, 0
1, 95591, Note_off_c, 1, 75, 0
1, 95762, Note_on_c, 1, 70, 127
1, 95762, Note_on_c, 1, 54, 127
1, 95762, Note_on_c, 1, 73, 127
1, 95930, Note_off_c, 1, 70, 0
1, 95930, Note_off_c, 1, 54, 0
1, 95933, Note_on_c, 1, 65, 127
1, 95933, Note_on_c, 1, 61, 127
1, 96101, Note_off_c, 1, 73, 0
1, 96101, Note_off_c, 1, 65, 0
1, 96101, Note_off_c, 1, 61, 0
1, 96103, Note_on_c, 1, 63, 127
1, 96103, Note_on_c, 1, 71, 127
1, 96103, Note_on_c, 1, 66, 127
1, 96271, Note_off_c, 1, 63, 0
1, 96274, Note_on_c, 1, 54, 127
1, 96442, Note_off_c, 1, 71, 0
1, 96442, Note_off_c, 1, 54, 0
1, 96445, Note_on_c, 1, 70, 127
1, 96778, Note_off_c, 1, 66, 0
1, 96784, Note_off_c, 1, 70, 0
1, 96786, Note_on_c, 1, 65, 127
1, 96786, Note_on_c, 1, 68, 127
1, 96954, Note_off_c, 1, 65, 0
1, 96957, Note_on_c, 1, 54, 127
1, 97125, Note_off_c, 1, 54, 0
1, 97128, Note_on_c, 1, 73, 127
1, 97467, Note_off_c, 1, 73, 0
1, 97469, Note_on_c, 1, 66, 127
1, 97469, Note_on_c, 1, 70, 127
1, 97637, Note_off_c, 1, 66, 0
1, 97808, Note_off_c, 1, 68, 0
1, 97808, Note_off_c, 1, 70, 0
1, 97811, Note_on_c, 1, 63, 127
1, 97811, Note_on_c, 1, 66, 127
1, 97811, Note_on_c, 1, 70, 127
1, 97979, Note_off_c, 1, 63, 0
1, 97981, Note_on_c, 1, 61, 127
1, 98148, Note_off_c, 1, 66, 0
1, 98149, Note_off_c, 1, 61, 0
1, 98150, Note_off_c, 1, 70, 0
1, 98152, Note_on_c, 1, 59, 127
1, 98152, Note_on_c, 1, 75, 127
1, 98320, Note_off_c, 1, 59, 0
1, 98323, Note_on_c, 1, 68, 127
1, 98491, Note_off_c, 1, 75, 0
1, 98491, Note_off_c, 1, 68, 0
1, 98493, Note_on_c, 1, 68, 127
1, 98493, Note_on_c, 1, 74, 127
1, 98661, Note_off_c, 1, 68, 0
1, 98664, Note_on_c, 1, 59, 127
1, 98832, Note_off_c, 1, 74, 0
1, 98832, Note_off_c, 1, 59, 0
1, 98835, Note_on_c, 1, 58, 127
1, 98835, Note_on_c, 1, 75, 127
1, 99003, Note_off_c, 1, 58, 0
1, 99006, Note_on_c, 1, 66, 127
1, 99174, Note_off_c, 1, 66, 0
1, 99176, Note_on_c, 1, 70, 127
1, 99510, Note_off_c, 1, 75, 0
1, 99515, Note_off_c, 1, 70, 0
1, 99518, Note_on_c, 1, 56, 127
1, 99518, Note_on_c, 1, 75, 127
1, 99686, Note_off_c, 1, 56, 0
1, 99688, Note_on_c, 1, 65, 127
1, 99856, Note_off_c, 1, 65, 0
1, 99857, Note_off_c, 1, 75, 0
1, 99859, Note_on_c, 1, 65, 127
1, 99859, Note_on_c, 1, 77, 127
1, 99859, Note_on_c, 1, 74, 127
1, 100027, Note_off_c, 1, 65, 0
1, 100030, Note_on_c, 1, 56, 127
1, 100198, Note_off_c, 1, 77, 0
1, 100198, Note_off_c, 1, 74, 0
1, 100198, Note_off_c, 1, 56, 0
1, 100201, Note_on_c, 1, 54, 127
1, 100201, Note_on_c, 1, 78, 127
1, 100201, Note_on_c, 1, 75, 127
1, 100369, Note_off_c, 1, 54, 0
1, 100371, Note_on_c, 1, 56, 127
1, 100539, Note_off_c, 1, 56, 0
1, 100540, Note_off_c, 1, 78, 0
1, 100540, Note_off_c, 1, 75, 0
1, 100542, Note_on_c, 1, 54, 127
1, 100542, Note_on_c, 1, 80, 127
1, 100542, Note_on_c, 1, 77, 127
1, 100710, Note_off_c, 1, 54, 0
1, 100713, Note_on_c, 1, 53, 127
1, 100881, Note_off_c, 1, 80, 0
1, 100881, Note_off_c, 1, 77, 0
1, 100881, Note_off_c, 1, 53, 0
1, 100884, Note_on_c, 1, 51, 127
1, 100884, Note_on_c, 1, 82, 127
1, 100884, Note_on_c, 1, 78, 127
1, 101052, Note_off_c, 1, 51, 0
1, 101054, Note_on_c, 1, 53, 127
1, 101222, Note_off_c, 1, 53, 0
1, 101223, Note_off_c, 1, 82, 0
1, 101223, Note_off_c, 1, 78, 0
1, 101225, Note_on_c, 1, 54, 127
1, 101225, Note_on_c, 1, 78, 127
1, 101225, Note_on_c, 1, 75, 127
1, 101393, Note_off_c, 1, 54, 0
1, 101396, Note_on_c, 1, 51, 127
1, 101564, Note_off_c, 1, 78, 0
1, 101564, Note_off_c, 1, 75, 0
1, 101564, Note_off_c, 1, 51, 0
1, 101566, Note_on_c, 1, 56, 127
1, 101566, Note_on_c, 1, 72, 127
1, 101566, Note_on_c, 1, 75, 127
1, 101734, Note_off_c, 1, 56, 0
1, 101737, Note_on_c, 1, 58, 127
1, 101905, Note_off_c, 1, 72, 0
1, 101905, Note_off_c, 1, 58, 0
1, 101908, Note_on_c, 1, 68, 127
1, 102079, Note_on_c, 1, 54, 127
1, 102241, Note_off_c, 1, 75, 0
1, 102247, Note_off_c, 1, 68, 0
1, 102247, Note_off_c, 1, 54, 0
1, 102249, Note_on_c, 1, 53, 127
1, 102249, Note_on_c, 1, 73, 127
1, 102417, Note_off_c, 1, 53, 0
1, 102420, Note_on_c, 1, 54, 127
1, 102588, Note_off_c, 1, 73, 0
1, 102588, Note_off_c, 1, 54, 0
1, 102591, Note_on_c, 1, 56, 127
1, 102591, Note_on_c, 1, 80, 127
1, 102591, Note_on_c, 1, 72, 127
1, 102759, Note_off_c, 1, 56, 0
1, 102761, Note_on_c, 1, 53, 127
1, 102929, Note_off_c, 1, 53, 0
1, 102930, Note_off_c, 1, 80, 0
1, 102930, Note_off_c, 1, 72, 0
1, 102932, Note_on_c, 1, 58, 127
1, 102932, Note_on_c, 1, 73, 127
1, 102932, Note_on_c, 1, 77, 127
1, 103100, Note_off_c, 1, 58, 0
1, 103103, Note_on_c, 1, 60, 127
1, 103271, Note_off_c, 1, 73, 0
1, 103271, Note_off_c, 1, 60, 0
1, 103274, Note_on_c, 1, 72, 127
1, 103274, Note_on_c, 1, 61, 127
1, 103442, Note_off_c, 1, 72, 0
1, 103444, Note_on_c, 1, 70, 127
1, 103612, Note_off_c, 1, 70, 0
1, 103701, Note_on_c, 1, 68, 127
1, 103785, Note_off_c, 1, 68, 0
1, 103786, Note_off_c, 1, 61, 0
1, 103787, Note_off_c, 1, 77, 0
1, 103788, Note_on_c, 1, 70, 127
1, 103788, Note_on_c, 1, 60, 127
1, 103872, Note_off_c, 1, 70, 0
1, 103874, Note_on_c, 1, 68, 127
1, 103958, Note_off_c, 1, 60, 0
1, 103958, Note_off_c, 1, 68, 0
1, 103960, Note_on_c, 1, 70, 127
1, 103960, Note_on_c, 1, 58, 127
1, 103960, Note_on_c, 1, 77, 127
1, 104044, Note_off_c, 1, 70, 0
1, 104046, Note_on_c, 1, 68, 127
1, 104130, Note_off_c, 1, 58, 0
1, 104130, Note_off_c, 1, 68, 0
1, 104132, Note_on_c, 1, 66, 127
1, 104132, Note_on_c, 1, 56, 127
1, 104216, Note_off_c, 1, 66, 0
1, 104302, Note_off_c, 1, 56, 0
1, 104303, Note_off_c, 1, 77, 0
1, 104305, Note_on_c, 1, 75, 127
1, 104305, Note_on_c, 1, 54, 127
1, 104305, Note_on_c, 1, 70, 127
1, 104473, Note_off_c, 1, 75, 0
1, 104473, Note_off_c, 1, 54, 0
1, 104476, Note_on_c, 1, 72, 127
1, 104476, Note_on_c, 1, 56, 127
1, 104644, Note_off_c, 1, 72, 0
1, 104644, Note_off_c, 1, 56, 0
1, 104646, Note_on_c, 1, 73, 127
1, 104646, Note_on_c, 1, 58, 127
1, 104814, Note_off_c, 1, 73, 0
1, 104814, Note_off_c, 1, 58, 0
1, 104817, Note_on_c, 1, 77, 127
1, 104817, Note_on_c, 1, 53, 127
1, 104980, Note_off_c, 1, 70, 0
1, 104985, Note_off_c, 1, 77, 0
1, 104985, Note_off_c, 1, 53, 0
1, 104988, Note_on_c, 1, 75, 127
1, 104988, Note_on_c, 1, 54, 127
1, 105156, Note_off_c, 1, 75, 0
1, 105156, Note_off_c, 1, 54, 0
1, 105159, Note_on_c, 1, 72, 127
1, 105159, Note_on_c, 1, 56, 127
1, 105327, Note_off_c, 1, 72, 0
1, 105327, Note_off_c, 1, 56, 0
1, 105329, Note_on_c, 1, 58, 127
1, 105329, Note_on_c, 1, 68, 127
1, 105329, Note_on_c, 1, 73, 127
1, 105497, Note_off_c, 1, 58, 0
1, 105500, Note_on_c, 1, 54, 127
1, 105668, Note_off_c, 1, 68, 0
1, 105668, Note_off_c, 1, 54, 0
1, 105671, Note_on_c, 1, 66, 127
1, 105671, Note_on_c, 1, 51, 127
1, 105839, Note_off_c, 1, 73, 0
1, 105841, Note_on_c, 1, 72, 127
1, 106009, Note_off_c, 1, 72, 0
1, 106010, Note_off_c, 1, 66, 0
1, 106010, Note_off_c, 1, 51, 0
1, 106012, Note_on_c, 1, 53, 127
1, 106012, Note_on_c, 1, 65, 127
1, 106012, Note_on_c, 1, 73, 127
1, 106180, Note_off_c, 1, 53, 0
1, 106183, Note_on_c, 1, 54, 127
1, 106351, Note_off_c, 1, 65, 0
1, 106351, Note_off_c, 1, 54, 0
1, 106354, Note_on_c, 1, 63, 127
1, 106354, Note_on_c, 1, 56, 127
1, 106694, Note_off_c, 1, 73, 0
1, 106695, Note_off_c, 1, 63, 0
1, 106695, Note_off_c, 1, 56, 0
1, 106697, Note_on_c, 1, 72, 127
1, 106697, Note_on_c, 1, 68, 127
1, 106697, Note_on_c, 1, 44, 127
1, 107027, Note_off_c, 1, 72, 0
1, 107038, Note_off_c, 1, 68, 0
1, 107038, Note_off_c, 1, 44, 0
1, 107040, Note_on_c, 1, 65, 127
1, 107040, Note_on_c, 1, 49, 127
1, 107040, Note_on_c, 1, 73, 127
1, 107208, Note_off_c, 1, 65, 0
1, 107211, Note_on_c, 1, 68, 127
1, 107379, Note_off_c, 1, 49, 0
1, 107379, Note_off_c, 1, 68, 0
1, 107381, Note_on_c, 1, 61, 127
1, 107698, Note_off_c, 1, 73, 0
1, 107720, Note_off_c, 1, 61, 0
1, 107723, Note_on_c, 1, 63, 127
1, 107723, Note_on_c, 1, 60, 127
1, 107891, Note_off_c, 1, 63, 0
1, 107894, Note_on_c, 1, 68, 127
1, 108062, Note_off_c, 1, 60, 0
1, 108062, Note_off_c, 1, 68, 0
1, 108064, Note_on_c, 1, 68, 127
1, 108064, Note_on_c, 1, 72, 127
1, 108064, Note_on_c, 1, 56, 127
1, 108232, Note_off_c, 1, 68, 0
1, 108235, Note_on_c, 1, 63, 127
1, 108403, Note_off_c, 1, 72, 0
1, 108403, Note_off_c, 1, 56, 0
1, 108403, Note_off_c, 1, 63, 0
1, 108406, Note_on_c, 1, 73, 127
1, 108406, Note_on_c, 1, 61, 127
1, 108406, Note_on_c, 1, 65, 127
1, 108574, Note_off_c, 1, 73, 0
1, 108576, Note_on_c, 1, 77, 127
1, 108744, Note_off_c, 1, 77, 0
1, 108745, Note_off_c, 1, 61, 0
1, 108747, Note_on_c, 1, 58, 127
1, 109086, Note_off_c, 1, 58, 0
1, 109089, Note_on_c, 1, 72, 127
1, 109089, Note_on_c, 1, 57, 127
1, 109257, Note_off_c, 1, 72, 0
1, 109428, Note_off_c, 1, 65, 0
1, 109428, Note_off_c, 1, 57, 0
1, 109430, Note_on_c, 1, 77, 127
1, 109430, Note_on_c, 1, 69, 127
1, 109430, Note_on_c, 1, 53, 127
1, 109598, Note_off_c, 1, 77, 0
1, 109601, Note_on_c, 1, 72, 127
1, 109769, Note_off_c, 1, 69, 0
1, 109769, Note_off_c, 1, 53, 0
1, 109769, Note_off_c, 1, 72, 0
1, 109772, Note_on_c, 1, 58, 127
1, 109772, Note_on_c, 1, 73, 127
1, 109772, Note_on_c, 1, 70, 127
1, 109940, Note_off_c, 1, 58, 0
1, 109942, Note_on_c, 1, 61, 127
1, 110110, Note_off_c, 1, 61, 0
1, 110111, Note_off_c, 1, 73, 0
1, 110113, Note_on_c, 1, 77, 127
1, 110452, Note_off_c, 1, 77, 0
1, 110454, Note_on_c, 1, 54, 127
1, 110454, Note_on_c, 1, 82, 127
1, 110622, Note_off_c, 1, 54, 0
1, 110794, Note_off_c, 1, 70, 0
1, 111137, Note_on_c, 1, 51, 127
1, 111137, Note_on_c, 1, 71, 127
1, 111305, Note_off_c, 1, 51, 0
1, 111308, Note_on_c, 1, 59, 127
1, 111476, Note_off_c, 1, 82, 0
1, 111476, Note_off_c, 1, 59, 0
1, 111479, Note_on_c, 1, 80, 127
1, 111647, Note_off_c, 1, 80, 0
1, 111649, Note_on_c, 1, 78, 127
1, 111649, Note_on_c, 1, 56, 127
1, 111817, Note_off_c, 1, 78, 0
1, 111817, Note_off_c, 1, 56, 0
1, 111820, Note_on_c, 1, 53, 127
1, 111988, Note_off_c, 1, 53, 0
1, 112159, Note_off_c, 1, 71, 0
1, 112503, Note_on_c, 1, 50, 127
1, 112671, Note_off_c, 1, 50, 0
1, 113869, Note_on_c, 1, 47, 127
1, 113869, Note_on_c, 1, 68, 127
1, 114037, Note_off_c, 1, 47, 0
1, 114552, Note_on_c, 1, 44, 127
1, 114720, Note_off_c, 1, 44, 0
1, 114893, Note_on_c, 1, 75, 127
1, 115232, Note_off_c, 1, 75, 0
1, 115235, Note_on_c, 1, 74, 127
1, 115235, Note_on_c, 1, 46, 127
1, 115403, Note_off_c, 1, 68, 0
1, 115572, Note_off_c, 1, 74, 0
1, 115574, Note_off_c, 1, 46, 0
1, 115576, Note_on_c, 1, 70, 127
1, 115576, Note_on_c, 1, 46, 127
1, 115744, Note_off_c, 1, 70, 0
1, 115747, Note_on_c, 1, 68, 127
1, 115915, Note_off_c, 1, 46, 0
1, 115915, Note_off_c, 1, 68, 0
1, 115917, Note_on_c, 1, 66, 127
1, 115917, Note_on_c, 1, 51, 127
1, 116088, Note_on_c, 1, 68, 127
1, 116166, Note_off_c, 1, 66, 0
1, 116258, Note_off_c, 1, 51, 0
1, 116258, Note_off_c, 1, 68, 0
1, 116261, Note_on_c, 1, 70, 127
1, 116261, Note_on_c, 1, 50, 127
1, 116431, Note_on_c, 1, 65, 127
1, 116510, Note_off_c, 1, 70, 0
1, 116601, Note_off_c, 1, 65, 0
1, 116602, Note_off_c, 1, 50, 0
1, 116604, Note_on_c, 1, 66, 127
1, 116604, Note_on_c, 1, 51, 127
1, 116775, Note_on_c, 1, 68, 127
1, 116853, Note_off_c, 1, 66, 0
1, 116945, Note_off_c, 1, 51, 0
1, 116945, Note_off_c, 1, 68, 0
1, 116947, Note_on_c, 1, 63, 127
1, 116947, Note_on_c, 1, 49, 127
1, 116947, Note_on_c, 1, 70, 127
1, 117115, Note_off_c, 1, 63, 0
1, 117115, Note_off_c, 1, 49, 0
1, 117118, Note_on_c, 1, 65, 127
1, 117118, Note_on_c, 1, 47, 127
1, 117284, Note_off_c, 1, 70, 0
1, 117286, Note_off_c, 1, 65, 0
1, 117286, Note_off_c, 1, 47, 0
1, 117288, Note_on_c, 1, 47, 127
1, 117288, Note_on_c, 1, 66, 127
1, 117372, Note_off_c, 1, 47, 0
1, 117375, Note_on_c, 1, 46, 127
1, 117458, Note_off_c, 1, 66, 0
1, 117459, Note_off_c, 1, 46, 0
1, 117461, Note_on_c, 1, 47, 127
1, 117461, Note_on_c, 1, 63, 127
1, 117545, Note_off_c, 1, 47, 0
1, 117547, Note_on_c, 1, 46, 127
1, 117631, Note_off_c, 1, 63, 0
1, 117631, Note_off_c, 1, 46, 0
1, 117633, Note_on_c, 1, 47, 127
1, 117633, Note_on_c, 1, 63, 127
1, 117633, Note_on_c, 1, 75, 127
1, 117717, Note_off_c, 1, 47, 0
1, 117720, Note_on_c, 1, 46, 127
1, 117803, Note_off_c, 1, 63, 0
1, 117804, Note_off_c, 1, 46, 0
1, 117806, Note_on_c, 1, 44, 127
1, 117806, Note_on_c, 1, 66, 127
1, 117890, Note_off_c, 1, 44, 0
1, 117976, Note_off_c, 1, 75, 0
1, 117976, Note_off_c, 1, 66, 0
1, 117978, Note_on_c, 1, 68, 127
1, 117978, Note_on_c, 1, 47, 127
1, 117978, Note_on_c, 1, 75, 127
1, 118146, Note_off_c, 1, 68, 0
1, 118149, Note_on_c, 1, 63, 127
1, 118317, Note_off_c, 1, 63, 0
1, 118653, Note_off_c, 1, 47, 0
1, 118661, Note_on_c, 1, 70, 127
1, 118829, Note_off_c, 1, 70, 0
1, 119003, Note_on_c, 1, 46, 127
1, 119342, Note_off_c, 1, 46, 0
1, 119344, Note_on_c, 1, 71, 127
1, 119344, Note_on_c, 1, 44, 127
1, 119512, Note_off_c, 1, 71, 0
1, 119683, Note_off_c, 1, 44, 0
1, 119686, Note_on_c, 1, 42, 127
1, 120024, Note_off_c, 1, 75, 0
1, 120025, Note_off_c, 1, 42, 0
1, 120027, Note_on_c, 1, 74, 127
1, 120027, Note_on_c, 1, 41, 127
1, 120027, Note_on_c, 1, 68, 127
1, 120195, Note_off_c, 1, 74, 0
1, 120198, Note_on_c, 1, 63, 127
1, 120366, Note_off_c, 1, 41, 0
1, 120366, Note_off_c, 1, 63, 0
1, 120368, Note_on_c, 1, 46, 127
1, 120707, Note_off_c, 1, 46, 0
1, 120710, Note_on_c, 1, 39, 127
1, 120710, Note_on_c, 1, 75, 127
1, 120880, Note_off_c, 1, 68, 0
1, 120881, Note_on_c, 1, 66, 127
1, 121049, Note_off_c, 1, 39, 0
1, 121049, Note_off_c, 1, 66, 0
1, 121051, Note_on_c, 1, 42, 127
1, 121222, Note_on_c, 1, 70, 127
1, 121390, Note_off_c, 1, 42, 0
1, 121390, Note_off_c, 1, 70, 0
1, 121393, Note_on_c, 1, 71, 127
1, 121393, Note_on_c, 1, 44, 127
1, 121561, Note_off_c, 1, 75, 0
1, 121564, Note_on_c, 1, 77, 127
1, 121732, Note_off_c, 1, 77, 0
1, 121734, Note_on_c, 1, 78, 127
1, 121902, Note_off_c, 1, 78, 0
1, 121905, Note_on_c, 1, 80, 127
1, 122073, Note_off_c, 1, 80, 0
1, 122074, Note_off_c, 1, 71, 0
1, 122176, Note_off_c, 1, 44, 0
1, 122248, Note_on_c, 1, 83, 127
1, 122248, Note_on_c, 1, 53, 127
1, 122416, Note_off_c, 1, 83, 0
1, 122416, Note_off_c, 1, 53, 0
1, 122419, Note_on_c, 1, 82, 127
1, 122419, Note_on_c, 1, 54, 127
1, 122587, Note_off_c, 1, 82, 0
1, 122587, Note_off_c, 1, 54, 0
1, 122590, Note_on_c, 1, 56, 127
1, 122590, Note_on_c, 1, 75, 127
1, 122758, Note_off_c, 1, 56, 0
1, 122760, Note_on_c, 1, 80, 127
1, 122760, Note_on_c, 1, 58, 127
1, 122844, Note_off_c, 1, 80, 0
1, 122847, Note_on_c, 1, 78, 127
1, 122931, Note_off_c, 1, 78, 0
1, 123103, Note_off_c, 1, 75, 0
1, 123103, Note_off_c, 1, 58, 0
1, 123105, Note_on_c, 1, 77, 127
1, 123105, Note_on_c, 1, 74, 127
1, 123105, Note_on_c, 1, 46, 127
1, 123273, Note_off_c, 1, 77, 0
1, 123276, Note_on_c, 1, 75, 127
1, 123444, Note_off_c, 1, 74, 0
1, 123444, Note_off_c, 1, 46, 0
1, 123444, Note_off_c, 1, 75, 0
1, 123447, Note_on_c, 1, 51, 127
1, 123447, Note_on_c, 1, 75, 127
1, 123617, Note_off_c, 1, 51, 0
1, 123619, Note_on_c, 1, 58, 127
1, 123789, Note_off_c, 1, 58, 0
1, 123792, Note_on_c, 1, 78, 127
1, 123964, Note_on_c, 1, 54, 127
1, 124129, Note_off_c, 1, 75, 0
1, 124134, Note_off_c, 1, 54, 0
1, 124135, Note_off_c, 1, 78, 0
1, 124137, Note_on_c, 1, 51, 127
1, 124137, Note_on_c, 1, 83, 127
1, 124307, Note_off_c, 1, 51, 0
1, 124309, Note_on_c, 1, 54, 127
1, 124479, Note_off_c, 1, 54, 0
1, 124480, Note_off_c, 1, 83, 0
1, 124482, Note_on_c, 1, 54, 127
1, 124482, Note_on_c, 1, 82, 127
1, 124652, Note_off_c, 1, 54, 0
1, 124654, Note_on_c, 1, 51, 127
1, 124824, Note_off_c, 1, 51, 0
1, 124825, Note_off_c, 1, 82, 0
1, 124827, Note_on_c, 1, 44, 127
1, 124827, Note_on_c, 1, 83, 127
1, 124997, Note_off_c, 1, 44, 0
1, 124999, Note_on_c, 1, 63, 127
1, 125169, Note_off_c, 1, 63, 0
1, 125172, Note_on_c, 1, 75, 127
1, 125344, Note_on_c, 1, 59, 127
1, 125514, Note_off_c, 1, 59, 0
1, 125515, Note_off_c, 1, 75, 0
1, 125516, Note_on_c, 1, 56, 127
1, 125516, Note_on_c, 1, 80, 127
1, 125686, Note_off_c, 1, 56, 0
1, 125859, Note_off_c, 1, 80, 0
1, 125861, Note_on_c, 1, 78, 127
1, 126204, Note_off_c, 1, 78, 0
1, 126206, Note_on_c, 1, 53, 127
1, 126376, Note_off_c, 1, 53, 0
1, 126550, Note_off_c, 1, 83, 0
1, 126551, Note_on_c, 1, 77, 127
1, 126894, Note_off_c, 1, 77, 0
1, 126896, Note_on_c, 1, 49, 127
1, 126896, Note_on_c, 1, 82, 127
1, 127066, Note_off_c, 1, 49, 0
1, 127239, Note_off_c, 1, 82, 0
1, 127241, Note_on_c, 1, 53, 127
1, 127241, Note_on_c, 1, 80, 127
1, 127411, Note_off_c, 1, 53, 0
1, 127414, Note_on_c, 1, 49, 127
1, 127584, Note_off_c, 1, 49, 0
1, 127586, Note_on_c, 1, 42, 127
1, 127586, Note_on_c, 1, 82, 127
1, 127756, Note_off_c, 1, 42, 0
1, 127759, Note_on_c, 1, 61, 127
1, 127929, Note_off_c, 1, 80, 0
1, 127929, Note_off_c, 1, 61, 0
1, 127931, Note_on_c, 1, 73, 127
1, 128104, Note_on_c, 1, 58, 127
1, 128274, Note_off_c, 1, 73, 0
1, 128274, Note_off_c, 1, 58, 0
1, 128276, Note_on_c, 1, 54, 127
1, 128276, Note_on_c, 1, 78, 127
1, 128446, Note_off_c, 1, 54, 0
1, 128619, Note_off_c, 1, 78, 0
1, 128621, Note_on_c, 1, 77, 127
1, 128964, Note_off_c, 1, 77, 0
1, 128966, Note_on_c, 1, 51, 127
1, 129136, Note_off_c, 1, 51, 0
1, 129309, Note_off_c, 1, 82, 0
1, 129311, Note_on_c, 1, 54, 127
1, 129311, Note_on_c, 1, 82, 127
1, 129311, Note_on_c, 1, 73, 127
1, 129481, Note_off_c, 1, 54, 0
1, 129484, Note_on_c, 1, 51, 127
1, 129654, Note_off_c, 1, 82, 0
1, 129654, Note_off_c, 1, 73, 0
1, 129654, Note_off_c, 1, 51, 0
1, 129656, Note_on_c, 1, 47, 127
1, 129656, Note_on_c, 1, 80, 127
1, 129656, Note_on_c, 1, 75, 127
1, 129826, Note_off_c, 1, 47, 0
1, 129828, Note_on_c, 1, 51, 127
1, 129998, Note_off_c, 1, 51, 0
1, 129999, Note_off_c, 1, 80, 0
1, 130001, Note_on_c, 1, 78, 127
1, 130344, Note_off_c, 1, 78, 0
1, 130346, Note_on_c, 1, 49, 127
1, 130346, Note_on_c, 1, 77, 127
1, 130516, Note_off_c, 1, 75, 0
1, 130518, Note_on_c, 1, 68, 127
1, 130688, Note_off_c, 1, 68, 0
1, 130691, Note_on_c, 1, 37, 127
1, 130849, Note_off_c, 1, 49, 0
1, 130863, Note_on_c, 1, 73, 127
1, 131033, Note_off_c, 1, 73, 0
1, 131034, Note_off_c, 1, 77, 0
1, 131036, Note_on_c, 1, 76, 127
1, 131122, Note_off_c, 1, 37, 0
1, 131381, Note_on_c, 1, 61, 127
1, 131551, Note_off_c, 1, 61, 0
1, 131553, Note_on_c, 1, 71, 127
1, 131553, Note_on_c, 1, 59, 127
1, 131723, Note_off_c, 1, 71, 0
1, 131723, Note_off_c, 1, 59, 0
1, 131726, Note_on_c, 1, 70, 127
1, 131896, Note_off_c, 1, 76, 0
1, 132071, Note_on_c, 1, 54, 127
1, 132414, Note_off_c, 1, 54, 0
1, 132761, Note_on_c, 1, 58, 127
1, 133104, Note_off_c, 1, 70, 0
1, 133104, Note_off_c, 1, 58, 0
1, 133451, Note_on_c, 1, 53, 127
1, 133794, Note_off_c, 1, 53, 0
1, 134140, Note_on_c, 1, 56, 127
1, 134483, Note_off_c, 1, 56, 0
1, 134485, Note_on_c, 1, 66, 127
1, 135863, Note_off_c, 1, 66, 0
1, 135865, Note_on_c, 1, 65, 127
1, 136533, Note_off_c, 1, 65, 0
1, 136555, Note_on_c, 1, 54, 127
1, 136555, Note_on_c, 1, 70, 127
1, 136728, Note_on_c, 1, 71, 127
1, 136898, Note_off_c, 1, 54, 0
1, 136898, Note_off_c, 1, 71, 0
1, 136900, Note_on_c, 1, 53, 127
1, 136900, Note_on_c, 1, 73, 127
1, 137058, Note_off_c, 1, 70, 0
1, 137073, Note_on_c, 1, 68, 127
1, 137243, Note_off_c, 1, 53, 0
1, 137243, Note_off_c, 1, 68, 0
1, 137418, Note_on_c, 1, 58, 127
1, 137582, Note_off_c, 1, 73, 0
1, 137588, Note_off_c, 1, 58, 0
1, 137590, Note_on_c, 1, 58, 127
1, 137590, Note_on_c, 1, 73, 127
1, 137590, Note_on_c, 1, 66, 127
1, 137760, Note_off_c, 1, 58, 0
1, 137763, Note_on_c, 1, 54, 127
1, 137933, Note_off_c, 1, 73, 0
1, 137933, Note_off_c, 1, 66, 0
1, 137933, Note_off_c, 1, 54, 0
1, 137935, Note_on_c, 1, 51, 127
1, 137935, Note_on_c, 1, 75, 127
1, 137935, Note_on_c, 1, 71, 127
1, 138105, Note_off_c, 1, 51, 0
1, 138108, Note_on_c, 1, 54, 127
1, 138278, Note_off_c, 1, 75, 0
1, 138278, Note_off_c, 1, 71, 0
1, 138278, Note_off_c, 1, 54, 0
1, 138280, Note_on_c, 1, 54, 127
1, 138280, Note_on_c, 1, 70, 127
1, 138280, Note_on_c, 1, 76, 127
1, 138450, Note_off_c, 1, 54, 0
1, 138452, Note_on_c, 1, 51, 127
1, 138622, Note_off_c, 1, 51, 0
1, 138623, Note_off_c, 1, 70, 0
1, 138625, Note_on_c, 1, 71, 127
1, 138625, Note_on_c, 1, 47, 127
1, 138795, Note_off_c, 1, 76, 0
1, 138797, Note_on_c, 1, 75, 127
1, 138967, Note_off_c, 1, 75, 0
1, 138968, Note_off_c, 1, 71, 0
1, 138970, Note_on_c, 1, 73, 127
1, 139140, Note_off_c, 1, 73, 0
1, 139142, Note_on_c, 1, 68, 127
1, 139312, Note_off_c, 1, 68, 0
1, 139401, Note_on_c, 1, 66, 127
1, 139485, Note_off_c, 1, 66, 0
1, 139658, Note_off_c, 1, 47, 0
1, 139660, Note_on_c, 1, 68, 127
1, 139660, Note_on_c, 1, 71, 127
1, 139660, Note_on_c, 1, 59, 127
1, 139744, Note_off_c, 1, 68, 0
1, 139746, Note_on_c, 1, 66, 127
1, 139830, Note_off_c, 1, 71, 0
1, 139830, Note_off_c, 1, 66, 0
1, 139832, Note_on_c, 1, 64, 127
1, 139832, Note_on_c, 1, 75, 127
1, 139916, Note_off_c, 1, 64, 0
1, 140002, Note_off_c, 1, 75, 0
1, 140003, Note_off_c, 1, 59, 0
1, 140005, Note_on_c, 1, 76, 127
1, 140005, Note_on_c, 1, 68, 127
1, 140005, Note_on_c, 1, 59, 127
1, 140175, Note_off_c, 1, 76, 0
1, 140177, Note_on_c, 1, 71, 127
1, 140347, Note_off_c, 1, 71, 0
1, 140695, Note_on_c, 1, 78, 127
1, 140865, Note_off_c, 1, 78, 0
1, 140867, Note_off_c, 1, 68, 0
1, 141040, Note_on_c, 1, 66, 127
1, 141383, Note_off_c, 1, 66, 0
1, 141385, Note_on_c, 1, 80, 127
1, 141385, Note_on_c, 1, 64, 127
1, 141555, Note_off_c, 1, 80, 0
1, 141728, Note_off_c, 1, 64, 0
1, 141730, Note_on_c, 1, 63, 127
1, 142073, Note_off_c, 1, 63, 0
1, 142075, Note_on_c, 1, 82, 127
1, 142075, Note_on_c, 1, 61, 127
1, 142245, Note_off_c, 1, 82, 0
1, 142418, Note_off_c, 1, 61, 0
1, 142764, Note_on_c, 1, 83, 127
1, 142935, Note_off_c, 1, 59, 0
1, 142937, Note_on_c, 1, 58, 127
1, 143105, Note_off_c, 1, 83, 0
1, 143107, Note_off_c, 1, 58, 0
1, 143109, Note_on_c, 1, 56, 127
1, 143109, Note_on_c, 1, 63, 127
1, 143279, Note_off_c, 1, 56, 0
1, 143282, Note_on_c, 1, 54, 127
1, 143452, Note_off_c, 1, 63, 0
1, 143452, Note_off_c, 1, 54, 0
1, 143454, Note_on_c, 1, 52, 127
1, 143454, Note_on_c, 1, 68, 127
1, 143624, Note_off_c, 1, 52, 0
1, 143627, Note_on_c, 1, 61, 127
1, 143797, Note_off_c, 1, 68, 0
1, 143797, Note_off_c, 1, 61, 0
1, 143799, Note_on_c, 1, 61, 127
1, 143799, Note_on_c, 1, 67, 127
1, 143969, Note_off_c, 1, 61, 0
1, 143972, Note_on_c, 1, 52, 127
1, 144142, Note_off_c, 1, 67, 0
1, 144142, Note_off_c, 1, 52, 0
1, 144144, Note_on_c, 1, 51, 127
1, 144144, Note_on_c, 1, 68, 127
1, 144314, Note_off_c, 1, 51, 0
1, 144317, Note_on_c, 1, 59, 127
1, 144487, Note_off_c, 1, 59, 0
1, 144489, Note_on_c, 1, 75, 127
1, 144832, Note_off_c, 1, 75, 0
1, 144834, Note_on_c, 1, 49, 127
1, 144834, Note_on_c, 1, 80, 127
1, 145004, Note_off_c, 1, 49, 0
1, 145006, Note_off_c, 1, 68, 0
1, 145007, Note_on_c, 1, 58, 127
1, 145177, Note_off_c, 1, 80, 0
1, 145177, Note_off_c, 1, 58, 0
1, 145179, Note_on_c, 1, 58, 127
1, 145179, Note_on_c, 1, 79, 127
1, 145179, Note_on_c, 1, 70, 127
1, 145349, Note_off_c, 1, 58, 0
1, 145352, Note_on_c, 1, 49, 127
1, 145522, Note_off_c, 1, 79, 0
1, 145522, Note_off_c, 1, 70, 0
1, 145522, Note_off_c, 1, 49, 0
1, 145524, Note_on_c, 1, 47, 127
1, 145524, Note_on_c, 1, 80, 127
1, 145524, Note_on_c, 1, 71, 127
1, 145694, Note_off_c, 1, 47, 0
1, 145697, Note_on_c, 1, 49, 127
1, 145867, Note_off_c, 1, 80, 0
1, 145867, Note_off_c, 1, 71, 0
1, 145867, Note_off_c, 1, 49, 0
1, 145869, Note_on_c, 1, 47, 127
1, 145869, Note_on_c, 1, 82, 127
1, 145869, Note_on_c, 1, 73, 127
1, 146039, Note_off_c, 1, 47, 0
1, 146042, Note_on_c, 1, 46, 127
1, 146212, Note_off_c, 1, 82, 0
1, 146212, Note_off_c, 1, 73, 0
1, 146212, Note_off_c, 1, 46, 0
1, 146214, Note_on_c, 1, 44, 127
1, 146214, Note_on_c, 1, 83, 127
1, 146214, Note_on_c, 1, 75, 127
1, 146384, Note_off_c, 1, 44, 0
1, 146387, Note_on_c, 1, 46, 127
1, 146557, Note_off_c, 1, 83, 0
1, 146557, Note_off_c, 1, 75, 0
1, 146557, Note_off_c, 1, 46, 0
1, 146559, Note_on_c, 1, 47, 127
1, 146559, Note_on_c, 1, 80, 127
1, 146559, Note_on_c, 1, 71, 127
1, 146729, Note_off_c, 1, 47, 0
1, 146732, Note_on_c, 1, 44, 127
1, 146902, Note_off_c, 1, 80, 0
1, 146902, Note_off_c, 1, 71, 0
1, 146902, Note_off_c, 1, 44, 0
1, 146904, Note_on_c, 1, 49, 127
1, 146904, Note_on_c, 1, 77, 127
1, 146904, Note_on_c, 1, 68, 127
1, 147074, Note_off_c, 1, 49, 0
1, 147076, Note_on_c, 1, 51, 127
1, 147224, Note_off_c, 1, 77, 0
1, 147245, Note_off_c, 1, 68, 0
1, 147246, Note_off_c, 1, 51, 0
1, 147249, Note_on_c, 1, 49, 127
1, 147249, Note_on_c, 1, 73, 127
1, 147419, Note_off_c, 1, 49, 0
1, 147421, Note_on_c, 1, 47, 127
1, 147591, Note_off_c, 1, 47, 0
1, 147594, Note_on_c, 1, 46, 127
1, 147594, Note_on_c, 1, 78, 127
1, 147749, Note_off_c, 1, 73, 0
1, 147766, Note_off_c, 1, 46, 0
1, 147938, Note_off_c, 1, 78, 0
1, 147941, Note_on_c, 1, 49, 127
1, 147941, Note_on_c, 1, 77, 127
1, 147941, Note_on_c, 1, 73, 127
1, 148111, Note_off_c, 1, 49, 0
1, 148113, Note_on_c, 1, 46, 127
1, 148283, Note_off_c, 1, 46, 0
1, 148284, Note_off_c, 1, 77, 0
1, 148284, Note_off_c, 1, 73, 0
1, 148286, Note_on_c, 1, 51, 127
1, 148286, Note_on_c, 1, 78, 127
1, 148286, Note_on_c, 1, 70, 127
1, 148456, Note_off_c, 1, 51, 0
1, 148458, Note_on_c, 1, 53, 127
1, 148628, Note_off_c, 1, 53, 0
1, 148629, Note_off_c, 1, 78, 0
1, 148631, Note_on_c, 1, 77, 127
1, 148631, Note_on_c, 1, 54, 127
1, 148801, Note_off_c, 1, 77, 0
1, 148803, Note_on_c, 1, 75, 127
1, 148973, Note_off_c, 1, 75, 0
1, 149062, Note_on_c, 1, 73, 127
1, 149146, Note_off_c, 1, 54, 0
1, 149146, Note_off_c, 1, 73, 0
1, 149148, Note_off_c, 1, 70, 0
1, 149320, Note_on_c, 1, 75, 127
1, 149320, Note_on_c, 1, 51, 127
1, 149320, Note_on_c, 1, 70, 127
1, 149404, Note_off_c, 1, 75, 0
1, 149407, Note_on_c, 1, 73, 127
1, 149490, Note_off_c, 1, 51, 0
1, 149491, Note_off_c, 1, 73, 0
1, 149493, Note_on_c, 1, 71, 127
1, 149493, Note_on_c, 1, 49, 127
1, 149577, Note_off_c, 1, 71, 0
1, 149663, Note_off_c, 1, 70, 0
1, 149663, Note_off_c, 1, 49, 0
1, 149665, Note_on_c, 1, 68, 127
1, 149665, Note_on_c, 1, 47, 127
1, 149665, Note_on_c, 1, 75, 127
1, 149835, Note_off_c, 1, 68, 0
1, 149835, Note_off_c, 1, 47, 0
1, 149838, Note_on_c, 1, 65, 127
1, 149838, Note_on_c, 1, 49, 127
1, 150008, Note_off_c, 1, 65, 0
1, 150008, Note_off_c, 1, 49, 0
1, 150010, Note_on_c, 1, 66, 127
1, 150010, Note_on_c, 1, 51, 127
1, 150180, Note_off_c, 1, 66, 0
1, 150180, Note_off_c, 1, 51, 0
1, 150183, Note_on_c, 1, 70, 127
1, 150183, Note_on_c, 1, 46, 127
1, 150353, Note_off_c, 1, 70, 0
1, 150353, Note_off_c, 1, 46, 0
1, 150527, Note_off_c, 1, 75, 0
1, 150528, Note_on_c, 1, 65, 127
1, 150528, Note_on_c, 1, 49, 127
1, 150698, Note_off_c, 1, 65, 0
1, 150698, Note_off_c, 1, 49, 0
1, 150700, Note_on_c, 1, 51, 127
1, 150700, Note_on_c, 1, 73, 127
1, 150700, Note_on_c, 1, 66, 127
1, 150870, Note_off_c, 1, 51, 0
1, 150873, Note_on_c, 1, 47, 127
1, 151043, Note_off_c, 1, 73, 0
1, 151043, Note_off_c, 1, 47, 0
1, 151045, Note_on_c, 1, 71, 127
1, 151045, Note_on_c, 1, 44, 127
1, 151215, Note_off_c, 1, 66, 0
1, 151218, Note_on_c, 1, 65, 127
1, 151388, Note_off_c, 1, 71, 0
1, 151388, Note_off_c, 1, 44, 0
1, 151388, Note_off_c, 1, 65, 0
1, 151390, Note_on_c, 1, 46, 127
1, 151390, Note_on_c, 1, 70, 127
1, 151390, Note_on_c, 1, 66, 127
1, 151560, Note_off_c, 1, 46, 0
1, 151563, Note_on_c, 1, 47, 127
1, 151733, Note_off_c, 1, 70, 0
1, 151733, Note_off_c, 1, 47, 0
1, 151735, Note_on_c, 1, 68, 127
1, 151735, Note_on_c, 1, 49, 127
1, 152079, Note_off_c, 1, 66, 0
1, 152079, Note_off_c, 1, 68, 0
1, 152086, Note_on_c, 1, 65, 127
1, 152086, Note_on_c, 1, 37, 127
1, 152086, Note_on_c, 1, 73, 127
1, 152384, Note_off_c, 1, 49, 0
1, 152440, Note_off_c, 1, 65, 0
1, 152440, Note_off_c, 1, 37, 0
1, 152445, Note_on_c, 1, 42, 127
1, 152455, Note_off_c, 1, 73, 0
1, 152795, Note_off_c, 1, 42, 0
1, 152797, Note_on_c, 1, 54, 127
1, 153147, Note_off_c, 1, 54, 0
1, 153149, Note_on_c, 1, 68, 127
1, 153149, Note_on_c, 1, 53, 127
1, 153323, Note_off_c, 1, 68, 0
1, 153325, Note_on_c, 1, 73, 127
1, 153499, Note_off_c, 1, 53, 0
1, 153499, Note_off_c, 1, 73, 0
1, 153501, Note_on_c, 1, 73, 127
1, 153501, Note_on_c, 1, 49, 127
1, 153501, Note_on_c, 1, 65, 127
1, 153675, Note_off_c, 1, 73, 0
1, 153677, Note_on_c, 1, 68, 127
1, 153851, Note_off_c, 1, 49, 0
1, 153851, Note_off_c, 1, 65, 0
1, 153851, Note_off_c, 1, 68, 0
1, 153853, Note_on_c, 1, 54, 127
1, 153853, Note_on_c, 1, 70, 127
1, 153853, Note_on_c, 1, 66, 127
1, 154034, Note_off_c, 1, 54, 0
1, 154036, Note_on_c, 1, 58, 127
1, 154217, Note_off_c, 1, 70, 0
1, 154217, Note_off_c, 1, 58, 0
1, 154219, Note_on_c, 1, 73, 127
1, 154583, Note_off_c, 1, 73, 0
1, 154585, Note_on_c, 1, 51, 127
1, 154585, Note_on_c, 1, 78, 127
1, 154766, Note_off_c, 1, 51, 0
1, 154949, Note_off_c, 1, 66, 0
1, 155317, Note_on_c, 1, 68, 127
1, 155317, Note_on_c, 1, 47, 127
1, 155512, Note_off_c, 1, 68, 0
1, 155514, Note_on_c, 1, 75, 127
1, 155709, Note_off_c, 1, 47, 0
1, 155709, Note_off_c, 1, 75, 0
1, 155711, Note_on_c, 1, 44, 127
1, 155908, Note_on_c, 1, 71, 127
1, 156103, Note_off_c, 1, 78, 0
1, 156103, Note_off_c, 1, 44, 0
1, 156103, Note_off_c, 1, 71, 0
1, 156105, Note_on_c, 1, 68, 127
1, 156105, Note_on_c, 1, 77, 127
1, 156105, Note_on_c, 1, 49, 127
1, 156323, Note_off_c, 1, 68, 0
1, 156325, Note_on_c, 1, 73, 127
1, 156543, Note_off_c, 1, 73, 0
1, 156545, Note_on_c, 1, 37, 127
1, 156765, Note_on_c, 1, 71, 127
1, 156983, Note_off_c, 1, 37, 0
1, 156996, Note_off_c, 1, 77, 0
1, 156999, Note_off_c, 1, 71, 0
1, 157001, Note_on_c, 1, 78, 127
1, 157001, Note_on_c, 1, 70, 127
1, 157001, Note_on_c, 1, 42, 127
1, 157005, Note_off_c, 1, 49, 0
1, 160201, Note_off_c, 1, 78, 0
1, 160201, Note_off_c, 1, 70, 0
1, 160201, Note_off_c, 1, 42, 0
1, 160201, End_track
0, 0, End_of_file