0, 0, Header, 1, 1, 480
1, 0, Start_track
1, 0, Title_t, "Test"
1, 0, Tempo, 500000
1, 0, Instrument_name_t, "Church Organ"
1, 0, Note_on_c, 1, 69, 127
1, 96, Note_off_c, 1, 69, 0
1, 120, Note_on_c, 1, 69, 127
1, 120, Note_on_c, 1, 45, 127
1, 240, Note_on_c, 1, 64, 127
1, 360, Note_on_c, 1, 61, 127
1, 408, Note_off_c, 1, 45, 0
1, 480, Note_on_c, 1, 47, 127
1, 528, Note_off_c, 1, 47, 0
1, 540, Note_on_c, 1, 49, 127
1, 588, Note_off_c, 1, 49, 0
1, 696, Note_off_c, 1, 69, 0
1, 744, Note_off_c, 1, 64, 0
1, 744, Note_off_c, 1, 61, 0
1, 780, Note_on_c, 1, 50, 127
1, 828, Note_off_c, 1, 50, 0
1, 840, Note_on_c, 1, 64, 127
1, 840, Note_on_c, 1, 49, 127
1, 1032, Note_off_c, 1, 64, 0
1, 1032, Note_off_c, 1, 49, 0
1, 1080, Note_on_c, 1, 66, 127
1, 1080, Note_on_c, 1, 47, 127
1, 1104, Note_off_c, 1, 66, 0
1, 1104, Note_off_c, 1, 47, 0
1, 1110, Note_on_c, 1, 65, 127
1, 1110, Note_on_c, 1, 49, 127
1, 1134, Note_off_c, 1, 65, 0
1, 1134, Note_off_c, 1, 49, 0
1, 1140, Note_on_c, 1, 47, 127
1, 1200, Note_on_c, 1, 66, 127
1, 1313, Note_off_c, 1, 47, 0
1, 1320, Note_on_c, 1, 45, 127
1, 1440, Note_on_c, 1, 67, 127
1, 1488, Note_off_c, 1, 66, 0
1, 1512, Note_off_c, 1, 45, 0
1, 1536, Note_off_c, 1, 67, 0
1, 1560, Note_on_c, 1, 66, 127
1, 1560, Note_on_c, 1, 50, 127
1, 1589, Note_off_c, 1, 66, 0
1, 1590, Note_on_c, 1, 68, 127
1, 1619, Note_off_c, 1, 68, 0
1, 1752, Note_off_c, 1, 50, 0
1, 1800, Note_on_c, 1, 49, 127
1, 1824, Note_off_c, 1, 49, 0
1, 1920, Note_on_c, 1, 69, 127
1, 2016, Note_off_c, 1, 69, 0
1, 2040, Note_on_c, 1, 74, 127
1, 2040, Note_on_c, 1, 47, 127
1, 2069, Note_off_c, 1, 74, 0
1, 2070, Note_on_c, 1, 73, 127
1, 2099, Note_off_c, 1, 73, 0
1, 2232, Note_off_c, 1, 47, 0
1, 2280, Note_on_c, 1, 56, 127
1, 2400, Note_on_c, 1, 76, 127
1, 2472, Note_off_c, 1, 56, 0
1, 2496, Note_off_c, 1, 76, 0
1, 2520, Note_on_c, 1, 73, 127
1, 2520, Note_on_c, 1, 57, 127
1, 2544, Note_off_c, 1, 57, 0
1, 2549, Note_off_c, 1, 73, 0
1, 2550, Note_on_c, 1, 74, 127
1, 2550, Note_on_c, 1, 56, 127
1, 2574, Note_off_c, 1, 56, 0
1, 2579, Note_off_c, 1, 74, 0
1, 2580, Note_on_c, 1, 73, 127
1, 2580, Note_on_c, 1, 57, 127
1, 2753, Note_off_c, 1, 57, 0
1, 2760, Note_on_c, 1, 45, 127
1, 2880, Note_on_c, 1, 71, 127
1, 2928, Note_off_c, 1, 73, 0
1, 2952, Note_off_c, 1, 45, 0
1, 2976, Note_off_c, 1, 71, 0
1, 3000, Note_on_c, 1, 71, 127
1, 3000, Note_on_c, 1, 52, 127
1, 3120, Note_on_c, 1, 68, 127
1, 3288, Note_off_c, 1, 52, 0
1, 3360, Note_on_c, 1, 54, 127
1, 3408, Note_off_c, 1, 54, 0
1, 3420, Note_on_c, 1, 56, 127
1, 3468, Note_off_c, 1, 56, 0
1, 3576, Note_off_c, 1, 71, 0
1, 3624, Note_off_c, 1, 68, 0
1, 3660, Note_on_c, 1, 57, 127
1, 3708, Note_off_c, 1, 57, 0
1, 3720, Note_on_c, 1, 76, 127
1, 3720, Note_on_c, 1, 56, 127
1, 3744, Note_off_c, 1, 76, 0
1, 3750, Note_on_c, 1, 74, 127
1, 3774, Note_off_c, 1, 74, 0
1, 3912, Note_off_c, 1, 56, 0
1, 3960, Note_on_c, 1, 74, 127
1, 3960, Note_on_c, 1, 54, 127
1, 3984, Note_off_c, 1, 74, 0
1, 3984, Note_off_c, 1, 54, 0
1, 3990, Note_on_c, 1, 76, 127
1, 3990, Note_on_c, 1, 56, 127
1, 4014, Note_off_c, 1, 76, 0
1, 4014, Note_off_c, 1, 56, 0
1, 4020, Note_on_c, 1, 74, 127
1, 4020, Note_on_c, 1, 54, 127
1, 4193, Note_off_c, 1, 54, 0
1, 4200, Note_on_c, 1, 52, 127
1, 4320, Note_on_c, 1, 76, 127
1, 4368, Note_off_c, 1, 74, 0
1, 4392, Note_off_c, 1, 52, 0
1, 4440, Note_on_c, 1, 73, 127
1, 4440, Note_on_c, 1, 57, 127
1, 4464, Note_off_c, 1, 76, 0
1, 4464, Note_off_c, 1, 73, 0
1, 4632, Note_off_c, 1, 57, 0
1, 4680, Note_on_c, 1, 59, 127
1, 4800, Note_on_c, 1, 71, 127
1, 4872, Note_off_c, 1, 59, 0
1, 4896, Note_off_c, 1, 71, 0
1, 4920, Note_on_c, 1, 69, 127
1, 4920, Note_on_c, 1, 61, 127
1, 5016, Note_off_c, 1, 69, 0
1, 5040, Note_on_c, 1, 73, 127
1, 5112, Note_off_c, 1, 61, 0
1, 5136, Note_off_c, 1, 73, 0
1, 5160, Note_on_c, 1, 78, 127
1, 5160, Note_on_c, 1, 54, 127
1, 5160, Note_on_c, 1, 57, 127
1, 5352, Note_off_c, 1, 78, 0
1, 5352, Note_off_c, 1, 54, 0
1, 5352, Note_off_c, 1, 57, 0
1, 5400, Note_on_c, 1, 76, 127
1, 5400, Note_on_c, 1, 59, 127
1, 5400, Note_on_c, 1, 56, 127
1, 5424, Note_off_c, 1, 76, 0
1, 5430, Note_on_c, 1, 78, 127
1, 5454, Note_off_c, 1, 78, 0
1, 5592, Note_off_c, 1, 59, 0
1, 5592, Note_off_c, 1, 56, 0
1, 5640, Note_on_c, 1, 58, 127
1, 5640, Note_on_c, 1, 61, 127
1, 5832, Note_off_c, 1, 58, 0
1, 5832, Note_off_c, 1, 61, 0
1, 5880, Note_on_c, 1, 75, 127
1, 5880, Note_on_c, 1, 59, 127
1, 5904, Note_off_c, 1, 75, 0
1, 5910, Note_on_c, 1, 76, 127
1, 5934, Note_off_c, 1, 76, 0
1, 6072, Note_off_c, 1, 59, 0
1, 6120, Note_on_c, 1, 61, 127
1, 6240, Note_on_c, 1, 73, 127
1, 6312, Note_off_c, 1, 61, 0
1, 6336, Note_off_c, 1, 73, 0
1, 6360, Note_on_c, 1, 71, 127
1, 6360, Note_on_c, 1, 63, 127
1, 6480, Note_on_c, 1, 78, 127
1, 6552, Note_off_c, 1, 63, 0
1, 6576, Note_off_c, 1, 78, 0
1, 6600, Note_on_c, 1, 83, 127
1, 6600, Note_on_c, 1, 56, 127
1, 6744, Note_off_c, 1, 71, 0
1, 6792, Note_off_c, 1, 83, 0
1, 6792, Note_off_c, 1, 56, 0
1, 6840, Note_on_c, 1, 81, 127
1, 6840, Note_on_c, 1, 76, 127
1, 6840, Note_on_c, 1, 61, 127
1, 6864, Note_off_c, 1, 81, 0
1, 6870, Note_on_c, 1, 80, 127
1, 6894, Note_off_c, 1, 80, 0
1, 7032, Note_off_c, 1, 76, 0
1, 7032, Note_off_c, 1, 61, 0
1, 7080, Note_on_c, 1, 78, 127
1, 7080, Note_on_c, 1, 63, 127
1, 7200, Note_on_c, 1, 83, 127
1, 7272, Note_off_c, 1, 78, 0
1, 7272, Note_off_c, 1, 63, 0
1, 7296, Note_off_c, 1, 83, 0
1, 7320, Note_on_c, 1, 80, 127
1, 7320, Note_on_c, 1, 71, 127
1, 7320, Note_on_c, 1, 64, 127
1, 7344, Note_off_c, 1, 80, 0
1, 7350, Note_on_c, 1, 81, 127
1, 7374, Note_off_c, 1, 81, 0
1, 7512, Note_off_c, 1, 64, 0
1, 7560, Note_on_c, 1, 52, 127
1, 7656, Note_off_c, 1, 52, 0
1, 7680, Note_on_c, 1, 54, 127
1, 7776, Note_off_c, 1, 54, 0
1, 7800, Note_on_c, 1, 83, 127
1, 7800, Note_on_c, 1, 56, 127
1, 7896, Note_off_c, 1, 83, 0
1, 7992, Note_off_c, 1, 56, 0
1, 8280, Note_on_c, 1, 73, 127
1, 8280, Note_on_c, 1, 57, 127
1, 8376, Note_off_c, 1, 71, 0
1, 8472, Note_off_c, 1, 57, 0
1, 8520, Note_on_c, 1, 69, 127
1, 8568, Note_off_c, 1, 73, 0
1, 8712, Note_off_c, 1, 69, 0
1, 8760, Note_on_c, 1, 75, 127
1, 8760, Note_on_c, 1, 69, 127
1, 8760, Note_on_c, 1, 59, 127
1, 8784, Note_off_c, 1, 75, 0
1, 8790, Note_on_c, 1, 76, 127
1, 8814, Note_off_c, 1, 76, 0
1, 8856, Note_off_c, 1, 59, 0
1, 8880, Note_on_c, 1, 61, 127
1, 8976, Note_off_c, 1, 61, 0
1, 9120, Note_on_c, 1, 73, 127
1, 9120, Note_on_c, 1, 57, 127
1, 9144, Note_off_c, 1, 69, 0
1, 9216, Note_off_c, 1, 73, 0
1, 9216, Note_off_c, 1, 57, 0
1, 9240, Note_on_c, 1, 71, 127
1, 9240, Note_on_c, 1, 56, 127
1, 9336, Note_off_c, 1, 71, 0
1, 9336, Note_off_c, 1, 56, 0
1, 9360, Note_on_c, 1, 69, 127
1, 9360, Note_on_c, 1, 54, 127
1, 9456, Note_off_c, 1, 69, 0
1, 9456, Note_off_c, 1, 54, 0
1, 9480, Note_on_c, 1, 68, 127
1, 9480, Note_on_c, 1, 52, 127
1, 9576, Note_off_c, 1, 68, 0
1, 9600, Note_on_c, 1, 76, 127
1, 9696, Note_off_c, 1, 76, 0
1, 9705, Note_off_c, 1, 52, 0
1, 9720, Note_on_c, 1, 66, 127
1, 9720, Note_on_c, 1, 63, 127
1, 9720, Note_on_c, 1, 59, 127
1, 9744, Note_off_c, 1, 66, 0
1, 9750, Note_on_c, 1, 68, 127
1, 9774, Note_off_c, 1, 68, 0
1, 9960, Note_on_c, 1, 47, 127
1, 10080, Note_on_c, 1, 64, 127
1, 10104, Note_off_c, 1, 63, 0
1, 10104, Note_off_c, 1, 59, 0
1, 10152, Note_off_c, 1, 47, 0
1, 10176, Note_off_c, 1, 64, 0
1, 10200, Note_on_c, 1, 64, 127
1, 10200, Note_on_c, 1, 52, 127
1, 10440, Note_on_c, 1, 40, 127
1, 10584, Note_off_c, 1, 52, 0
1, 10680, Note_on_c, 1, 47, 127
1, 10872, Note_off_c, 1, 47, 0
1, 10920, Note_on_c, 1, 56, 127
1, 10920, Note_on_c, 1, 59, 127
1, 11304, Note_off_c, 1, 64, 0
1, 11370, Note_off_c, 1, 56, 0
1, 11370, Note_off_c, 1, 59, 0
1, 11400, Note_off_c, 1, 40, 0
1, 11640, Note_on_c, 1, 69, 127
1, 11736, Note_off_c, 1, 69, 0
1, 11760, Note_on_c, 1, 69, 127
1, 11760, Note_on_c, 1, 45, 127
1, 11880, Note_on_c, 1, 64, 127
1, 12000, Note_on_c, 1, 61, 127
1, 12048, Note_off_c, 1, 45, 0
1, 12120, Note_on_c, 1, 47, 127
1, 12168, Note_off_c, 1, 47, 0
1, 12180, Note_on_c, 1, 49, 127
1, 12228, Note_off_c, 1, 49, 0
1, 12336, Note_off_c, 1, 69, 0
1, 12384, Note_off_c, 1, 64, 0
1, 12384, Note_off_c, 1, 61, 0
1, 12420, Note_on_c, 1, 50, 127
1, 12468, Note_off_c, 1, 50, 0
1, 12480, Note_on_c, 1, 64, 127
1, 12480, Note_on_c, 1, 49, 127
1, 12672, Note_off_c, 1, 64, 0
1, 12672, Note_off_c, 1, 49, 0
1, 12720, Note_on_c, 1, 66, 127
1, 12720, Note_on_c, 1, 47, 127
1, 12744, Note_off_c, 1, 66, 0
1, 12744, Note_off_c, 1, 47, 0
1, 12750, Note_on_c, 1, 65, 127
1, 12750, Note_on_c, 1, 49, 127
1, 12774, Note_off_c, 1, 65, 0
1, 12774, Note_off_c, 1, 49, 0
1, 12780, Note_on_c, 1, 47, 127
1, 12840, Note_on_c, 1, 66, 127
1, 12953, Note_off_c, 1, 47, 0
1, 12960, Note_on_c, 1, 45, 127
1, 13080, Note_on_c, 1, 67, 127
1, 13128, Note_off_c, 1, 66, 0
1, 13152, Note_off_c, 1, 45, 0
1, 13176, Note_off_c, 1, 67, 0
1, 13200, Note_on_c, 1, 66, 127
1, 13200, Note_on_c, 1, 50, 127
1, 13229, Note_off_c, 1, 66, 0
1, 13230, Note_on_c, 1, 68, 127
1, 13259, Note_off_c, 1, 68, 0
1, 13392, Note_off_c, 1, 50, 0
1, 13440, Note_on_c, 1, 49, 127
1, 13464, Note_off_c, 1, 49, 0
1, 13560, Note_on_c, 1, 69, 127
1, 13656, Note_off_c, 1, 69, 0
1, 13680, Note_on_c, 1, 74, 127
1, 13680, Note_on_c, 1, 47, 127
1, 13709, Note_off_c, 1, 74, 0
1, 13710, Note_on_c, 1, 73, 127
1, 13739, Note_off_c, 1, 73, 0
1, 13872, Note_off_c, 1, 47, 0
1, 13920, Note_on_c, 1, 56, 127
1, 14040, Note_on_c, 1, 76, 127
1, 14112, Note_off_c, 1, 56, 0
1, 14136, Note_off_c, 1, 76, 0
1, 14160, Note_on_c, 1, 73, 127
1, 14160, Note_on_c, 1, 57, 127
1, 14184, Note_off_c, 1, 57, 0
1, 14189, Note_off_c, 1, 73, 0
1, 14190, Note_on_c, 1, 74, 127
1, 14190, Note_on_c, 1, 56, 127
1, 14214, Note_off_c, 1, 56, 0
1, 14219, Note_off_c, 1, 74, 0
1, 14220, Note_on_c, 1, 73, 127
1, 14220, Note_on_c, 1, 57, 127
1, 14393, Note_off_c, 1, 57, 0
1, 14400, Note_on_c, 1, 45, 127
1, 14520, Note_on_c, 1, 71, 127
1, 14568, Note_off_c, 1, 73, 0
1, 14592, Note_off_c, 1, 45, 0
1, 14616, Note_off_c, 1, 71, 0
1, 14640, Note_on_c, 1, 71, 127
1, 14640, Note_on_c, 1, 52, 127
1, 14760, Note_on_c, 1, 68, 127
1, 14928, Note_off_c, 1, 52, 0
1, 15000, Note_on_c, 1, 54, 127
1, 15048, Note_off_c, 1, 54, 0
1, 15060, Note_on_c, 1, 56, 127
1, 15108, Note_off_c, 1, 56, 0
1, 15216, Note_off_c, 1, 71, 0
1, 15264, Note_off_c, 1, 68, 0
1, 15300, Note_on_c, 1, 57, 127
1, 15348, Note_off_c, 1, 57, 0
1, 15360, Note_on_c, 1, 76, 127
1, 15360, Note_on_c, 1, 56, 127
1, 15384, Note_off_c, 1, 76, 0
1, 15390, Note_on_c, 1, 74, 127
1, 15414, Note_off_c, 1, 74, 0
1, 15552, Note_off_c, 1, 56, 0
1, 15600, Note_on_c, 1, 74, 127
1, 15600, Note_on_c, 1, 54, 127
1, 15624, Note_off_c, 1, 74, 0
1, 15624, Note_off_c, 1, 54, 0
1, 15630, Note_on_c, 1, 76, 127
1, 15630, Note_on_c, 1, 56, 127
1, 15654, Note_off_c, 1, 76, 0
1, 15654, Note_off_c, 1, 56, 0
1, 15660, Note_on_c, 1, 74, 127
1, 15660, Note_on_c, 1, 54, 127
1, 15833, Note_off_c, 1, 54, 0
1, 15840, Note_on_c, 1, 52, 127
1, 15960, Note_on_c, 1, 76, 127
1, 16008, Note_off_c, 1, 74, 0
1, 16032, Note_off_c, 1, 52, 0
1, 16080, Note_on_c, 1, 73, 127
1, 16080, Note_on_c, 1, 57, 127
1, 16104, Note_off_c, 1, 76, 0
1, 16104, Note_off_c, 1, 73, 0
1, 16272, Note_off_c, 1, 57, 0
1, 16320, Note_on_c, 1, 59, 127
1, 16440, Note_on_c, 1, 71, 127
1, 16512, Note_off_c, 1, 59, 0
1, 16536, Note_off_c, 1, 71, 0
1, 16560, Note_on_c, 1, 69, 127
1, 16560, Note_on_c, 1, 61, 127
1, 16656, Note_off_c, 1, 69, 0
1, 16680, Note_on_c, 1, 73, 127
1, 16752, Note_off_c, 1, 61, 0
1, 16776, Note_off_c, 1, 73, 0
1, 16800, Note_on_c, 1, 78, 127
1, 16800, Note_on_c, 1, 54, 127
1, 16800, Note_on_c, 1, 57, 127
1, 16992, Note_off_c, 1, 78, 0
1, 16992, Note_off_c, 1, 54, 0
1, 16992, Note_off_c, 1, 57, 0
1, 17040, Note_on_c, 1, 76, 127
1, 17040, Note_on_c, 1, 59, 127
1, 17040, Note_on_c, 1, 56, 127
1, 17064, Note_off_c, 1, 76, 0
1, 17070, Note_on_c, 1, 78, 127
1, 17094, Note_off_c, 1, 78, 0
1, 17232, Note_off_c, 1, 59, 0
1, 17232, Note_off_c, 1, 56, 0
1, 17280, Note_on_c, 1, 58, 127
1, 17280, Note_on_c, 1, 61, 127
1, 17472, Note_off_c, 1, 58, 0
1, 17472, Note_off_c, 1, 61, 0
1, 17520, Note_on_c, 1, 75, 127
1, 17520, Note_on_c, 1, 59, 127
1, 17544, Note_off_c, 1, 75, 0
1, 17550, Note_on_c, 1, 76, 127
1, 17574, Note_off_c, 1, 76, 0
1, 17712, Note_off_c, 1, 59, 0
1, 17760, Note_on_c, 1, 61, 127
1, 17880, Note_on_c, 1, 73, 127
1, 17952, Note_off_c, 1, 61, 0
1, 17976, Note_off_c, 1, 73, 0
1, 18000, Note_on_c, 1, 71, 127
1, 18000, Note_on_c, 1, 63, 127
1, 18120, Note_on_c, 1, 78, 127
1, 18192, Note_off_c, 1, 63, 0
1, 18216, Note_off_c, 1, 78, 0
1, 18240, Note_on_c, 1, 83, 127
1, 18240, Note_on_c, 1, 56, 127
1, 18384, Note_off_c, 1, 71, 0
1, 18432, Note_off_c, 1, 83, 0
1, 18432, Note_off_c, 1, 56, 0
1, 18480, Note_on_c, 1, 81, 127
1, 18480, Note_on_c, 1, 76, 127
1, 18480, Note_on_c, 1, 61, 127
1, 18504, Note_off_c, 1, 81, 0
1, 18510, Note_on_c, 1, 80, 127
1, 18534, Note_off_c, 1, 80, 0
1, 18672, Note_off_c, 1, 76, 0
1, 18672, Note_off_c, 1, 61, 0
1, 18720, Note_on_c, 1, 78, 127
1, 18720, Note_on_c, 1, 63, 127
1, 18840, Note_on_c, 1, 83, 127
1, 18912, Note_off_c, 1, 78, 0
1, 18912, Note_off_c, 1, 63, 0
1, 18936, Note_off_c, 1, 83, 0
1, 18960, Note_on_c, 1, 80, 127
1, 18960, Note_on_c, 1, 71, 127
1, 18960, Note_on_c, 1, 64, 127
1, 18984, Note_off_c, 1, 80, 0
1, 18990, Note_on_c, 1, 81, 127
1, 19014, Note_off_c, 1, 81, 0
1, 19152, Note_off_c, 1, 64, 0
1, 19200, Note_on_c, 1, 52, 127
1, 19296, Note_off_c, 1, 52, 0
1, 19320, Note_on_c, 1, 54, 127
1, 19416, Note_off_c, 1, 54, 0
1, 19440, Note_on_c, 1, 83, 127
1, 19440, Note_on_c, 1, 56, 127
1, 19536, Note_off_c, 1, 83, 0
1, 19632, Note_off_c, 1, 56, 0
1, 19920, Note_on_c, 1, 73, 127
1, 19920, Note_on_c, 1, 57, 127
1, 20016, Note_off_c, 1, 71, 0
1, 20112, Note_off_c, 1, 57, 0
1, 20160, Note_on_c, 1, 69, 127
1, 20208, Note_off_c, 1, 73, 0
1, 20352, Note_off_c, 1, 69, 0
1, 20400, Note_on_c, 1, 75, 127
1, 20400, Note_on_c, 1, 69, 127
1, 20400, Note_on_c, 1, 59, 127
1, 20424, Note_off_c, 1, 75, 0
1, 20430, Note_on_c, 1, 76, 127
1, 20454, Note_off_c, 1, 76, 0
1, 20496, Note_off_c, 1, 59, 0
1, 20520, Note_on_c, 1, 61, 127
1, 20616, Note_off_c, 1, 61, 0
1, 20760, Note_on_c, 1, 73, 127
1, 20760, Note_on_c, 1, 57, 127
1, 20784, Note_off_c, 1, 69, 0
1, 20856, Note_off_c, 1, 73, 0
1, 20856, Note_off_c, 1, 57, 0
1, 20880, Note_on_c, 1, 71, 127
1, 20880, Note_on_c, 1, 56, 127
1, 20976, Note_off_c, 1, 71, 0
1, 20976, Note_off_c, 1, 56, 0
1, 21000, Note_on_c, 1, 69, 127
1, 21000, Note_on_c, 1, 54, 127
1, 21096, Note_off_c, 1, 69, 0
1, 21096, Note_off_c, 1, 54, 0
1, 21120, Note_on_c, 1, 68, 127
1, 21120, Note_on_c, 1, 52, 127
1, 21216, Note_off_c, 1, 68, 0
1, 21240, Note_on_c, 1, 76, 127
1, 21336, Note_off_c, 1, 76, 0
1, 21345, Note_off_c, 1, 52, 0
1, 21360, Note_on_c, 1, 66, 127
1, 21360, Note_on_c, 1, 63, 127
1, 21360, Note_on_c, 1, 59, 127
1, 21384, Note_off_c, 1, 66, 0
1, 21390, Note_on_c, 1, 68, 127
1, 21414, Note_off_c, 1, 68, 0
1, 21600, Note_on_c, 1, 47, 127
1, 21720, Note_on_c, 1, 64, 127
1, 21744, Note_off_c, 1, 63, 0
1, 21744, Note_off_c, 1, 59, 0
1, 21792, Note_off_c, 1, 47, 0
1, 21816, Note_off_c, 1, 64, 0
1, 21840, Note_on_c, 1, 64, 127
1, 21840, Note_on_c, 1, 52, 127
1, 22080, Note_on_c, 1, 40, 127
1, 22224, Note_off_c, 1, 52, 0
1, 22320, Note_on_c, 1, 47, 127
1, 22512, Note_off_c, 1, 47, 0
1, 22560, Note_on_c, 1, 59, 127
1, 22560, Note_on_c, 1, 56, 127
1, 22944, Note_off_c, 1, 64, 0
1, 23010, Note_off_c, 1, 59, 0
1, 23010, Note_off_c, 1, 56, 0
1, 23040, Note_off_c, 1, 40, 0
1, 23280, Note_on_c, 1, 71, 127
1, 23400, Note_on_c, 1, 40, 127
1, 23520, Note_on_c, 1, 68, 127
1, 23640, Note_on_c, 1, 64, 127
1, 23688, Note_off_c, 1, 40, 0
1, 23700, Note_on_c, 1, 47, 127
1, 23748, Note_off_c, 1, 47, 0
1, 23760, Note_on_c, 1, 49, 127
1, 23808, Note_off_c, 1, 49, 0
1, 23820, Note_on_c, 1, 50, 127
1, 23868, Note_off_c, 1, 50, 0
1, 23976, Note_off_c, 1, 71, 0
1, 24024, Note_off_c, 1, 68, 0
1, 24024, Note_off_c, 1, 64, 0
1, 24060, Note_on_c, 1, 52, 127
1, 24108, Note_off_c, 1, 52, 0
1, 24120, Note_on_c, 1, 64, 127
1, 24120, Note_on_c, 1, 68, 127
1, 24120, Note_on_c, 1, 50, 127
1, 24312, Note_off_c, 1, 64, 0
1, 24312, Note_off_c, 1, 68, 0
1, 24312, Note_off_c, 1, 50, 0
1, 24360, Note_on_c, 1, 69, 127
1, 24360, Note_on_c, 1, 66, 127
1, 24360, Note_on_c, 1, 49, 127
1, 24384, Note_off_c, 1, 69, 0
1, 24384, Note_off_c, 1, 49, 0
1, 24390, Note_on_c, 1, 68, 127
1, 24390, Note_on_c, 1, 50, 127
1, 24414, Note_off_c, 1, 68, 0
1, 24414, Note_off_c, 1, 50, 0
1, 24600, Note_on_c, 1, 47, 127
1, 24648, Note_off_c, 1, 66, 0
1, 24720, Note_on_c, 1, 71, 127
1, 24792, Note_off_c, 1, 47, 0
1, 24816, Note_off_c, 1, 71, 0
1, 24840, Note_on_c, 1, 69, 127
1, 24840, Note_on_c, 1, 73, 127
1, 24840, Note_on_c, 1, 45, 127
1, 25032, Note_off_c, 1, 69, 0
1, 25032, Note_off_c, 1, 45, 0
1, 25080, Note_on_c, 1, 49, 127
1, 25128, Note_off_c, 1, 73, 0
1, 25272, Note_off_c, 1, 49, 0
1, 25320, Note_on_c, 1, 78, 127
1, 25320, Note_on_c, 1, 50, 127
1, 25349, Note_off_c, 1, 78, 0
1, 25350, Note_on_c, 1, 76, 127
1, 25379, Note_off_c, 1, 76, 0
1, 25512, Note_off_c, 1, 50, 0
1, 25560, Note_on_c, 1, 71, 127
1, 25560, Note_on_c, 1, 55, 127
1, 25680, Note_on_c, 1, 79, 127
1, 25752, Note_off_c, 1, 55, 0
1, 25776, Note_off_c, 1, 79, 0
1, 25992, Note_off_c, 1, 71, 0
1, 26040, Note_on_c, 1, 70, 127
1, 26040, Note_on_c, 1, 54, 127
1, 26160, Note_on_c, 1, 74, 127
1, 26208, Note_off_c, 1, 74, 0
1, 26232, Note_off_c, 1, 70, 0
1, 26232, Note_off_c, 1, 54, 0
1, 26280, Note_on_c, 1, 74, 127
1, 26280, Note_on_c, 1, 71, 127
1, 26280, Note_on_c, 1, 47, 127
1, 26304, Note_off_c, 1, 74, 0
1, 26310, Note_on_c, 1, 73, 127
1, 26334, Note_off_c, 1, 73, 0
1, 26568, Note_off_c, 1, 47, 0
1, 26640, Note_on_c, 1, 49, 127
1, 26688, Note_off_c, 1, 49, 0
1, 26700, Note_on_c, 1, 50, 127
1, 26748, Note_off_c, 1, 50, 0
1, 26856, Note_off_c, 1, 71, 0
1, 26940, Note_on_c, 1, 52, 127
1, 26988, Note_off_c, 1, 52, 0
1, 27000, Note_on_c, 1, 71, 127
1, 27000, Note_on_c, 1, 50, 127
1, 27030, Note_on_c, 1, 78, 127
1, 27060, Note_on_c, 1, 83, 127
1, 27156, Note_off_c, 1, 83, 0
1, 27192, Note_off_c, 1, 71, 0
1, 27192, Note_off_c, 1, 50, 0
1, 27204, Note_off_c, 1, 78, 0
1, 27240, Note_on_c, 1, 81, 127
1, 27240, Note_on_c, 1, 78, 127
1, 27240, Note_on_c, 1, 52, 127
1, 27264, Note_off_c, 1, 81, 0
1, 27270, Note_on_c, 1, 80, 127
1, 27294, Note_off_c, 1, 80, 0
1, 27336, Note_off_c, 1, 52, 0
1, 27360, Note_on_c, 1, 51, 127
1, 27456, Note_off_c, 1, 51, 0
1, 27480, Note_on_c, 1, 49, 127
1, 27576, Note_off_c, 1, 49, 0
1, 27600, Note_on_c, 1, 83, 127
1, 27600, Note_on_c, 1, 47, 127
1, 27624, Note_off_c, 1, 78, 0
1, 27696, Note_off_c, 1, 83, 0
1, 27696, Note_off_c, 1, 47, 0
1, 27720, Note_on_c, 1, 79, 127
1, 27720, Note_on_c, 1, 76, 127
1, 27720, Note_on_c, 1, 52, 127
1, 27744, Note_off_c, 1, 79, 0
1, 27750, Note_on_c, 1, 81, 127
1, 27774, Note_off_c, 1, 81, 0
1, 27912, Note_off_c, 1, 52, 0
1, 27960, Note_on_c, 1, 54, 127
1, 28080, Note_on_c, 1, 78, 127
1, 28104, Note_off_c, 1, 76, 0
1, 28152, Note_off_c, 1, 54, 0
1, 28176, Note_off_c, 1, 78, 0
1, 28200, Note_on_c, 1, 76, 127
1, 28200, Note_on_c, 1, 55, 127
1, 28296, Note_off_c, 1, 76, 0
1, 28320, Note_on_c, 1, 79, 127
1, 28392, Note_off_c, 1, 55, 0
1, 28416, Note_off_c, 1, 79, 0
1, 28440, Note_on_c, 1, 71, 127
1, 28440, Note_on_c, 1, 67, 127
1, 28440, Note_on_c, 1, 54, 127
1, 28632, Note_off_c, 1, 71, 0
1, 28632, Note_off_c, 1, 67, 0
1, 28632, Note_off_c, 1, 54, 0
1, 28680, Note_on_c, 1, 64, 127
1, 28680, Note_on_c, 1, 52, 127
1, 28704, Note_off_c, 1, 52, 0
1, 28710, Note_on_c, 1, 67, 127
1, 28710, Note_on_c, 1, 54, 127
1, 28734, Note_off_c, 1, 54, 0
1, 28740, Note_on_c, 1, 69, 127
1, 28770, Note_on_c, 1, 73, 127
1, 28872, Note_off_c, 1, 64, 0
1, 28878, Note_off_c, 1, 67, 0
1, 28884, Note_off_c, 1, 69, 0
1, 28920, Note_on_c, 1, 66, 127
1, 28980, Note_on_c, 1, 50, 127
1, 29040, Note_on_c, 1, 74, 127
1, 29088, Note_off_c, 1, 73, 0
1, 29112, Note_off_c, 1, 66, 0
1, 29136, Note_off_c, 1, 74, 0
1, 29160, Note_on_c, 1, 57, 127
1, 29172, Note_off_c, 1, 50, 0
1, 29352, Note_off_c, 1, 57, 0
1, 29400, Note_on_c, 1, 59, 127
1, 29520, Note_on_c, 1, 71, 127
1, 29592, Note_off_c, 1, 59, 0
1, 29616, Note_off_c, 1, 71, 0
1, 29640, Note_on_c, 1, 61, 127
1, 29760, Note_on_c, 1, 76, 127
1, 29832, Note_off_c, 1, 61, 0
1, 29856, Note_off_c, 1, 76, 0
1, 29880, Note_on_c, 1, 81, 127
1, 29880, Note_on_c, 1, 57, 127
1, 29880, Note_on_c, 1, 61, 127
1, 30072, Note_off_c, 1, 81, 0
1, 30072, Note_off_c, 1, 57, 0
1, 30072, Note_off_c, 1, 61, 0
1, 30120, Note_on_c, 1, 79, 127
1, 30120, Note_on_c, 1, 62, 127
1, 30120, Note_on_c, 1, 59, 127
1, 30144, Note_off_c, 1, 79, 0
1, 30150, Note_on_c, 1, 78, 127
1, 30174, Note_off_c, 1, 78, 0
1, 30312, Note_off_c, 1, 62, 0
1, 30312, Note_off_c, 1, 59, 0
1, 30360, Note_on_c, 1, 64, 127
1, 30360, Note_on_c, 1, 61, 127
1, 30480, Note_on_c, 1, 81, 127
1, 30552, Note_off_c, 1, 64, 0
1, 30552, Note_off_c, 1, 61, 0
1, 30576, Note_off_c, 1, 81, 0
1, 30600, Note_on_c, 1, 78, 127
1, 30600, Note_on_c, 1, 62, 127
1, 30624, Note_off_c, 1, 78, 0
1, 30630, Note_on_c, 1, 80, 127
1, 30654, Note_off_c, 1, 80, 0
1, 30960, Note_on_c, 1, 76, 127
1, 31056, Note_off_c, 1, 76, 0
1, 31080, Note_on_c, 1, 74, 127
1, 31176, Note_off_c, 1, 62, 0
1, 31176, Note_off_c, 1, 74, 0
1, 31200, Note_on_c, 1, 73, 127
1, 31296, Note_off_c, 1, 73, 0
1, 31320, Note_on_c, 1, 71, 127
1, 31320, Note_on_c, 1, 64, 127
1, 31416, Note_off_c, 1, 71, 0
1, 31440, Note_on_c, 1, 76, 127
1, 31512, Note_off_c, 1, 64, 0
1, 31536, Note_off_c, 1, 76, 0
1, 31560, Note_on_c, 1, 74, 127
1, 31560, Note_on_c, 1, 57, 127
1, 31584, Note_off_c, 1, 74, 0
1, 31590, Note_on_c, 1, 73, 127
1, 31614, Note_off_c, 1, 73, 0
1, 31944, Note_off_c, 1, 57, 0
1, 32040, Note_on_c, 1, 74, 127
1, 32040, Note_on_c, 1, 50, 127
1, 32160, Note_on_c, 1, 69, 127
1, 32280, Note_on_c, 1, 66, 127
1, 32328, Note_off_c, 1, 50, 0
1, 32400, Note_on_c, 1, 52, 127
1, 32448, Note_off_c, 1, 52, 0
1, 32460, Note_on_c, 1, 54, 127
1, 32508, Note_off_c, 1, 54, 0
1, 32616, Note_off_c, 1, 74, 0
1, 32664, Note_off_c, 1, 69, 0
1, 32664, Note_off_c, 1, 66, 0
1, 32700, Note_on_c, 1, 55, 127
1, 32748, Note_off_c, 1, 55, 0
1, 32760, Note_on_c, 1, 73, 127
1, 32760, Note_on_c, 1, 78, 127
1, 32760, Note_on_c, 1, 46, 127
1, 32952, Note_off_c, 1, 73, 0
1, 32952, Note_off_c, 1, 78, 0
1, 32952, Note_off_c, 1, 46, 0
1, 33000, Note_on_c, 1, 79, 127
1, 33000, Note_on_c, 1, 74, 127
1, 33000, Note_on_c, 1, 47, 127
1, 33024, Note_off_c, 1, 79, 0
1, 33030, Note_on_c, 1, 78, 127
1, 33054, Note_off_c, 1, 78, 0
1, 33192, Note_off_c, 1, 74, 0
1, 33192, Note_off_c, 1, 47, 0
1, 33240, Note_on_c, 1, 73, 127
1, 33240, Note_on_c, 1, 45, 127
1, 33432, Note_off_c, 1, 73, 0
1, 33432, Note_off_c, 1, 45, 0
1, 33480, Note_on_c, 1, 76, 127
1, 33480, Note_on_c, 1, 71, 127
1, 33480, Note_on_c, 1, 43, 127
1, 33504, Note_off_c, 1, 76, 0
1, 33510, Note_on_c, 1, 78, 127
1, 33534, Note_off_c, 1, 78, 0
1, 33672, Note_off_c, 1, 71, 0
1, 33672, Note_off_c, 1, 43, 0
1, 33720, Note_on_c, 1, 69, 127
1, 33720, Note_on_c, 1, 42, 127
1, 33744, Note_off_c, 1, 42, 0
1, 33840, Note_on_c, 1, 74, 127
1, 33912, Note_off_c, 1, 69, 0
1, 33936, Note_off_c, 1, 74, 0
1, 33960, Note_on_c, 1, 73, 127
1, 33960, Note_on_c, 1, 67, 127
1, 33960, Note_on_c, 1, 40, 127
1, 34152, Note_off_c, 1, 73, 0
1, 34152, Note_off_c, 1, 40, 0
1, 34200, Note_on_c, 1, 71, 127
1, 34200, Note_on_c, 1, 49, 127
1, 34296, Note_off_c, 1, 71, 0
1, 34320, Note_on_c, 1, 70, 127
1, 34344, Note_off_c, 1, 67, 0
1, 34392, Note_off_c, 1, 49, 0
1, 34416, Note_off_c, 1, 70, 0
1, 34440, Note_on_c, 1, 71, 127
1, 34440, Note_on_c, 1, 66, 127
1, 34440, Note_on_c, 1, 50, 127
1, 34464, Note_off_c, 1, 71, 0
1, 34470, Note_on_c, 1, 70, 127
1, 34494, Note_off_c, 1, 70, 0
1, 34632, Note_off_c, 1, 66, 0
1, 34632, Note_off_c, 1, 50, 0
1, 34680, Note_on_c, 1, 67, 127
1, 34680, Note_on_c, 1, 52, 127
1, 34800, Note_on_c, 1, 73, 127
1, 34872, Note_off_c, 1, 67, 0
1, 34872, Note_off_c, 1, 52, 0
1, 34896, Note_off_c, 1, 73, 0
1, 34920, Note_on_c, 1, 70, 127
1, 34920, Note_on_c, 1, 61, 127
1, 34920, Note_on_c, 1, 54, 127
1, 34944, Note_off_c, 1, 70, 0
1, 34950, Note_on_c, 1, 71, 127
1, 34974, Note_off_c, 1, 71, 0
1, 35112, Note_off_c, 1, 54, 0
1, 35160, Note_on_c, 1, 56, 127
1, 35280, Note_on_c, 1, 68, 127
1, 35352, Note_off_c, 1, 56, 0
1, 35376, Note_off_c, 1, 68, 0
1, 35400, Note_on_c, 1, 66, 127
1, 35400, Note_on_c, 1, 58, 127
1, 35496, Note_off_c, 1, 61, 0
1, 35496, Note_off_c, 1, 66, 0
1, 35520, Note_on_c, 1, 73, 127
1, 35592, Note_off_c, 1, 58, 0
1, 35616, Note_off_c, 1, 73, 0
1, 35640, Note_on_c, 1, 78, 127
1, 35640, Note_on_c, 1, 58, 127
1, 35640, Note_on_c, 1, 54, 127
1, 35832, Note_off_c, 1, 78, 0
1, 35832, Note_off_c, 1, 58, 0
1, 35832, Note_off_c, 1, 54, 0
1, 35880, Note_on_c, 1, 76, 127
1, 35880, Note_on_c, 1, 59, 127
1, 35880, Note_on_c, 1, 56, 127
1, 35904, Note_off_c, 1, 76, 0
1, 35910, Note_on_c, 1, 75, 127
1, 35934, Note_off_c, 1, 75, 0
1, 36072, Note_off_c, 1, 59, 0
1, 36072, Note_off_c, 1, 56, 0
1, 36120, Note_on_c, 1, 61, 127
1, 36120, Note_on_c, 1, 58, 127
1, 36240, Note_on_c, 1, 78, 127
1, 36312, Note_off_c, 1, 61, 0
1, 36312, Note_off_c, 1, 58, 0
1, 36336, Note_off_c, 1, 78, 0
1, 36360, Note_on_c, 1, 74, 127
1, 36360, Note_on_c, 1, 59, 127
1, 36456, Note_off_c, 1, 59, 0
1, 36480, Note_on_c, 1, 61, 127
1, 36576, Note_off_c, 1, 61, 0
1, 36585, Note_off_c, 1, 74, 0
1, 36600, Note_on_c, 1, 59, 127
1, 36696, Note_off_c, 1, 59, 0
1, 36720, Note_on_c, 1, 73, 127
1, 36720, Note_on_c, 1, 57, 127
1, 36816, Note_off_c, 1, 57, 0
1, 36833, Note_off_c, 1, 73, 0
1, 36840, Note_on_c, 1, 71, 127
1, 36840, Note_on_c, 1, 55, 127
1, 36936, Note_off_c, 1, 71, 0
1, 36936, Note_off_c, 1, 55, 0
1, 36960, Note_on_c, 1, 70, 127
1, 36960, Note_on_c, 1, 54, 127
1, 37056, Note_off_c, 1, 70, 0
1, 37056, Note_off_c, 1, 54, 0
1, 37080, Note_on_c, 1, 71, 127
1, 37080, Note_on_c, 1, 55, 127
1, 37176, Note_off_c, 1, 71, 0
1, 37176, Note_off_c, 1, 55, 0
1, 37200, Note_on_c, 1, 73, 127
1, 37200, Note_on_c, 1, 52, 127
1, 37296, Note_off_c, 1, 73, 0
1, 37296, Note_off_c, 1, 52, 0
1, 37320, Note_on_c, 1, 73, 127
1, 37320, Note_on_c, 1, 70, 127
1, 37320, Note_on_c, 1, 54, 127
1, 37344, Note_off_c, 1, 73, 0
1, 37350, Note_on_c, 1, 74, 127
1, 37374, Note_off_c, 1, 74, 0
1, 37560, Note_on_c, 1, 42, 127
1, 37680, Note_on_c, 1, 71, 127
1, 37704, Note_off_c, 1, 70, 0
1, 37704, Note_off_c, 1, 54, 0
1, 37752, Note_off_c, 1, 42, 0
1, 37776, Note_off_c, 1, 71, 0
1, 37800, Note_on_c, 1, 71, 127
1, 37800, Note_on_c, 1, 47, 127
1, 37920, Note_on_c, 1, 66, 127
1, 38040, Note_on_c, 1, 62, 127
1, 38088, Note_off_c, 1, 47, 0
1, 38160, Note_on_c, 1, 50, 127
1, 38208, Note_off_c, 1, 50, 0
1, 38220, Note_on_c, 1, 49, 127
1, 38268, Note_off_c, 1, 49, 0
1, 38376, Note_off_c, 1, 71, 0
1, 38424, Note_off_c, 1, 66, 0
1, 38424, Note_off_c, 1, 62, 0
1, 38460, Note_on_c, 1, 50, 127
1, 38508, Note_off_c, 1, 50, 0
1, 38520, Note_on_c, 1, 71, 127
1, 38520, Note_on_c, 1, 44, 127
1, 38544, Note_off_c, 1, 71, 0
1, 38550, Note_on_c, 1, 70, 127
1, 38574, Note_off_c, 1, 70, 0
1, 38712, Note_off_c, 1, 44, 0
1, 38760, Note_on_c, 1, 64, 127
1, 38760, Note_on_c, 1, 42, 127
1, 38784, Note_off_c, 1, 42, 0
1, 38790, Note_on_c, 1, 71, 127
1, 38790, Note_on_c, 1, 44, 127
1, 38814, Note_off_c, 1, 44, 0
1, 38820, Note_on_c, 1, 76, 127
1, 39000, Note_on_c, 1, 40, 127
1, 39045, Note_off_c, 1, 71, 0
1, 39120, Note_on_c, 1, 74, 127
1, 39144, Note_off_c, 1, 64, 0
1, 39168, Note_off_c, 1, 76, 0
1, 39192, Note_off_c, 1, 40, 0
1, 39216, Note_off_c, 1, 74, 0
1, 39240, Note_on_c, 1, 73, 127
1, 39240, Note_on_c, 1, 64, 127
1, 39240, Note_on_c, 1, 45, 127
1, 39264, Note_off_c, 1, 73, 0
1, 39270, Note_on_c, 1, 74, 127
1, 39294, Note_off_c, 1, 74, 0
1, 39432, Note_off_c, 1, 45, 0
1, 39480, Note_on_c, 1, 47, 127
1, 39600, Note_on_c, 1, 71, 127
1, 39672, Note_off_c, 1, 47, 0
1, 39696, Note_off_c, 1, 71, 0
1, 39720, Note_on_c, 1, 69, 127
1, 39720, Note_on_c, 1, 49, 127
1, 39816, Note_off_c, 1, 64, 0
1, 39816, Note_off_c, 1, 69, 0
1, 39912, Note_off_c, 1, 49, 0
1, 39960, Note_on_c, 1, 57, 127
1, 39960, Note_on_c, 1, 66, 127
1, 39960, Note_on_c, 1, 50, 127
1, 40152, Note_off_c, 1, 57, 0
1, 40152, Note_off_c, 1, 66, 0
1, 40152, Note_off_c, 1, 50, 0
1, 40200, Note_on_c, 1, 62, 127
1, 40200, Note_on_c, 1, 47, 127
1, 40224, Note_off_c, 1, 47, 0
1, 40230, Note_on_c, 1, 64, 127
1, 40230, Note_on_c, 1, 49, 127
1, 40254, Note_off_c, 1, 49, 0
1, 40260, Note_on_c, 1, 68, 127
1, 40373, Note_off_c, 1, 64, 0
1, 40392, Note_off_c, 1, 62, 0
1, 40440, Note_on_c, 1, 61, 127
1, 40560, Note_on_c, 1, 69, 127
1, 40560, Note_on_c, 1, 45, 127
1, 40608, Note_off_c, 1, 68, 0
1, 40632, Note_off_c, 1, 61, 0
1, 40656, Note_off_c, 1, 69, 0
1, 40680, Note_on_c, 1, 59, 127
1, 40680, Note_on_c, 1, 52, 127
1, 40752, Note_off_c, 1, 45, 0
1, 40872, Note_off_c, 1, 52, 0
1, 40920, Note_on_c, 1, 54, 127
1, 41040, Note_on_c, 1, 66, 127
1, 41112, Note_off_c, 1, 54, 0
1, 41136, Note_off_c, 1, 66, 0
1, 41160, Note_on_c, 1, 56, 127
1, 41256, Note_off_c, 1, 59, 0
1, 41352, Note_off_c, 1, 56, 0
1, 41400, Note_on_c, 1, 71, 127
1, 41400, Note_on_c, 1, 56, 127
1, 41400, Note_on_c, 1, 52, 127
1, 41496, Note_off_c, 1, 71, 0
1, 41520, Note_on_c, 1, 73, 127
1, 41568, Note_off_c, 1, 73, 0
1, 41580, Note_on_c, 1, 74, 127
1, 41592, Note_off_c, 1, 56, 0
1, 41592, Note_off_c, 1, 52, 0
1, 41628, Note_off_c, 1, 74, 0
1, 41640, Note_on_c, 1, 73, 127
1, 41640, Note_on_c, 1, 57, 127
1, 41664, Note_off_c, 1, 73, 0
1, 41670, Note_on_c, 1, 74, 127
1, 41694, Note_off_c, 1, 74, 0
1, 41832, Note_off_c, 1, 57, 0
1, 41880, Note_on_c, 1, 59, 127
1, 42000, Note_on_c, 1, 71, 127
1, 42072, Note_off_c, 1, 59, 0
1, 42096, Note_off_c, 1, 71, 0
1, 42120, Note_on_c, 1, 76, 127
1, 42120, Note_on_c, 1, 61, 127
1, 42360, Note_on_c, 1, 59, 127
1, 42408, Note_off_c, 1, 76, 0
1, 42480, Note_on_c, 1, 78, 127
1, 42552, Note_off_c, 1, 59, 0
1, 42576, Note_off_c, 1, 78, 0
1, 42600, Note_on_c, 1, 79, 127
1, 42600, Note_on_c, 1, 57, 127
1, 42696, Note_off_c, 1, 61, 0
1, 42696, Note_off_c, 1, 79, 0
1, 42792, Note_off_c, 1, 57, 0
1, 42840, Note_on_c, 1, 73, 127
1, 42840, Note_on_c, 1, 81, 127
1, 42840, Note_on_c, 1, 45, 127
1, 43032, Note_off_c, 1, 73, 0
1, 43032, Note_off_c, 1, 81, 0
1, 43032, Note_off_c, 1, 45, 0
1, 43080, Note_on_c, 1, 79, 127
1, 43080, Note_on_c, 1, 74, 127
1, 43080, Note_on_c, 1, 47, 127
1, 43104, Note_off_c, 1, 79, 0
1, 43110, Note_on_c, 1, 78, 127
1, 43134, Note_off_c, 1, 78, 0
1, 43272, Note_off_c, 1, 74, 0
1, 43272, Note_off_c, 1, 47, 0
1, 43320, Note_on_c, 1, 76, 127
1, 43320, Note_on_c, 1, 49, 127
1, 43440, Note_on_c, 1, 81, 127
1, 43512, Note_off_c, 1, 76, 0
1, 43512, Note_off_c, 1, 49, 0
1, 43536, Note_off_c, 1, 81, 0
1, 43560, Note_on_c, 1, 76, 127
1, 43560, Note_on_c, 1, 69, 127
1, 43560, Note_on_c, 1, 78, 127
1, 43560, Note_on_c, 1, 50, 127
1, 43752, Note_off_c, 1, 76, 0
1, 43752, Note_off_c, 1, 69, 0
1, 43752, Note_off_c, 1, 50, 0
1, 43800, Note_on_c, 1, 74, 127
1, 43800, Note_on_c, 1, 47, 127
1, 43848, Note_off_c, 1, 78, 0
1, 43920, Note_on_c, 1, 80, 127
1, 43992, Note_off_c, 1, 74, 0
1, 43992, Note_off_c, 1, 47, 0
1, 44016, Note_off_c, 1, 80, 0
1, 44040, Note_on_c, 1, 73, 127
1, 44040, Note_on_c, 1, 81, 127
1, 44040, Note_on_c, 1, 49, 127
1, 44136, Note_off_c, 1, 73, 0
1, 44136, Note_off_c, 1, 81, 0
1, 44160, Note_on_c, 1, 71, 127
1, 44160, Note_on_c, 1, 74, 127
1, 44232, Note_off_c, 1, 49, 0
1, 44256, Note_off_c, 1, 71, 0
1, 44256, Note_off_c, 1, 74, 0
1, 44280, Note_on_c, 1, 69, 127
1, 44280, Note_on_c, 1, 73, 127
1, 44280, Note_on_c, 1, 50, 127
1, 44376, Note_off_c, 1, 69, 0
1, 44376, Note_off_c, 1, 73, 0
1, 44400, Note_on_c, 1, 71, 127
1, 44472, Note_off_c, 1, 50, 0
1, 44496, Note_off_c, 1, 71, 0
1, 44520, Note_on_c, 1, 71, 127
1, 44520, Note_on_c, 1, 68, 127
1, 44520, Note_on_c, 1, 52, 127
1, 44544, Note_off_c, 1, 71, 0
1, 44550, Note_on_c, 1, 73, 127
1, 44574, Note_off_c, 1, 73, 0
1, 44760, Note_on_c, 1, 40, 127
1, 44880, Note_on_c, 1, 69, 127
1, 44904, Note_off_c, 1, 68, 0
1, 44904, Note_off_c, 1, 52, 0
1, 44952, Note_off_c, 1, 40, 0
1, 44976, Note_off_c, 1, 69, 0
1, 45000, Note_on_c, 1, 69, 127
1, 45000, Note_on_c, 1, 45, 127
1, 45240, Note_on_c, 1, 33, 127
1, 45384, Note_off_c, 1, 45, 0
1, 45480, Note_on_c, 1, 40, 127
1, 45672, Note_off_c, 1, 40, 0
1, 45720, Note_on_c, 1, 64, 127
1, 45720, Note_on_c, 1, 61, 127
1, 46104, Note_off_c, 1, 69, 0
1, 46104, Note_off_c, 1, 33, 0
1, 46104, Note_off_c, 1, 64, 0
1, 46104, Note_off_c, 1, 61, 0
1, 46440, Note_on_c, 1, 71, 127
1, 46560, Note_on_c, 1, 40, 127
1, 46680, Note_on_c, 1, 68, 127
1, 46800, Note_on_c, 1, 64, 127
1, 46848, Note_off_c, 1, 40, 0
1, 46860, Note_on_c, 1, 47, 127
1, 46908, Note_off_c, 1, 47, 0
1, 46920, Note_on_c, 1, 49, 127
1, 46968, Note_off_c, 1, 49, 0
1, 46980, Note_on_c, 1, 50, 127
1, 47028, Note_off_c, 1, 50, 0
1, 47136, Note_off_c, 1, 71, 0
1, 47184, Note_off_c, 1, 68, 0
1, 47184, Note_off_c, 1, 64, 0
1, 47220, Note_on_c, 1, 52, 127
1, 47268, Note_off_c, 1, 52, 0
1, 47280, Note_on_c, 1, 64, 127
1, 47280, Note_on_c, 1, 68, 127
1, 47280, Note_on_c, 1, 50, 127
1, 47472, Note_off_c, 1, 64, 0
1, 47472, Note_off_c, 1, 68, 0
1, 47472, Note_off_c, 1, 50, 0
1, 47520, Note_on_c, 1, 69, 127
1, 47520, Note_on_c, 1, 66, 127
1, 47520, Note_on_c, 1, 49, 127
1, 47544, Note_off_c, 1, 69, 0
1, 47544, Note_off_c, 1, 49, 0
1, 47550, Note_on_c, 1, 68, 127
1, 47550, Note_on_c, 1, 50, 127
1, 47574, Note_off_c, 1, 68, 0
1, 47574, Note_off_c, 1, 50, 0
1, 47760, Note_on_c, 1, 47, 127
1, 47808, Note_off_c, 1, 66, 0
1, 47880, Note_on_c, 1, 71, 127
1, 47952, Note_off_c, 1, 47, 0
1, 47976, Note_off_c, 1, 71, 0
1, 48000, Note_on_c, 1, 69, 127
1, 48000, Note_on_c, 1, 73, 127
1, 48000, Note_on_c, 1, 45, 127
1, 48192, Note_off_c, 1, 69, 0
1, 48192, Note_off_c, 1, 45, 0
1, 48240, Note_on_c, 1, 49, 127
1, 48288, Note_off_c, 1, 73, 0
1, 48432, Note_off_c, 1, 49, 0
1, 48480, Note_on_c, 1, 78, 127
1, 48480, Note_on_c, 1, 50, 127
1, 48509, Note_off_c, 1, 78, 0
1, 48510, Note_on_c, 1, 76, 127
1, 48539, Note_off_c, 1, 76, 0
1, 48672, Note_off_c, 1, 50, 0
1, 48720, Note_on_c, 1, 71, 127
1, 48720, Note_on_c, 1, 55, 127
1, 48840, Note_on_c, 1, 79, 127
1, 48912, Note_off_c, 1, 55, 0
1, 48936, Note_off_c, 1, 79, 0
1, 49152, Note_off_c, 1, 71, 0
1, 49200, Note_on_c, 1, 70, 127
1, 49200, Note_on_c, 1, 54, 127
1, 49320, Note_on_c, 1, 74, 127
1, 49368, Note_off_c, 1, 74, 0
1, 49392, Note_off_c, 1, 70, 0
1, 49392, Note_off_c, 1, 54, 0
1, 49440, Note_on_c, 1, 74, 127
1, 49440, Note_on_c, 1, 71, 127
1, 49440, Note_on_c, 1, 47, 127
1, 49464, Note_off_c, 1, 74, 0
1, 49470, Note_on_c, 1, 73, 127
1, 49494, Note_off_c, 1, 73, 0
1, 49728, Note_off_c, 1, 47, 0
1, 49800, Note_on_c, 1, 49, 127
1, 49848, Note_off_c, 1, 49, 0
1, 49860, Note_on_c, 1, 50, 127
1, 49908, Note_off_c, 1, 50, 0
1, 50016, Note_off_c, 1, 71, 0
1, 50100, Note_on_c, 1, 52, 127
1, 50148, Note_off_c, 1, 52, 0
1, 50160, Note_on_c, 1, 71, 127
1, 50160, Note_on_c, 1, 50, 127
1, 50190, Note_on_c, 1, 78, 127
1, 50220, Note_on_c, 1, 83, 127
1, 50316, Note_off_c, 1, 83, 0
1, 50352, Note_off_c, 1, 71, 0
1, 50352, Note_off_c, 1, 50, 0
1, 50364, Note_off_c, 1, 78, 0
1, 50400, Note_on_c, 1, 81, 127
1, 50400, Note_on_c, 1, 78, 127
1, 50400, Note_on_c, 1, 52, 127
1, 50424, Note_off_c, 1, 81, 0
1, 50430, Note_on_c, 1, 80, 127
1, 50454, Note_off_c, 1, 80, 0
1, 50496, Note_off_c, 1, 52, 0
1, 50520, Note_on_c, 1, 51, 127
1, 50616, Note_off_c, 1, 51, 0
1, 50640, Note_on_c, 1, 49, 127
1, 50736, Note_off_c, 1, 49, 0
1, 50760, Note_on_c, 1, 83, 127
1, 50760, Note_on_c, 1, 47, 127
1, 50784, Note_off_c, 1, 78, 0
1, 50856, Note_off_c, 1, 83, 0
1, 50856, Note_off_c, 1, 47, 0
1, 50880, Note_on_c, 1, 79, 127
1, 50880, Note_on_c, 1, 76, 127
1, 50880, Note_on_c, 1, 52, 127
1, 50904, Note_off_c, 1, 79, 0
1, 50910, Note_on_c, 1, 81, 127
1, 50934, Note_off_c, 1, 81, 0
1, 51072, Note_off_c, 1, 52, 0
1, 51120, Note_on_c, 1, 54, 127
1, 51240, Note_on_c, 1, 78, 127
1, 51264, Note_off_c, 1, 76, 0
1, 51312, Note_off_c, 1, 54, 0
1, 51336, Note_off_c, 1, 78, 0
1, 51360, Note_on_c, 1, 76, 127
1, 51360, Note_on_c, 1, 55, 127
1, 51456, Note_off_c, 1, 76, 0
1, 51480, Note_on_c, 1, 79, 127
1, 51552, Note_off_c, 1, 55, 0
1, 51576, Note_off_c, 1, 79, 0
1, 51600, Note_on_c, 1, 71, 127
1, 51600, Note_on_c, 1, 67, 127
1, 51600, Note_on_c, 1, 54, 127
1, 51792, Note_off_c, 1, 71, 0
1, 51792, Note_off_c, 1, 67, 0
1, 51792, Note_off_c, 1, 54, 0
1, 51840, Note_on_c, 1, 64, 127
1, 51840, Note_on_c, 1, 52, 127
1, 51864, Note_off_c, 1, 52, 0
1, 51870, Note_on_c, 1, 67, 127
1, 51870, Note_on_c, 1, 54, 127
1, 51894, Note_off_c, 1, 54, 0
1, 51900, Note_on_c, 1, 69, 127
1, 51930, Note_on_c, 1, 73, 127
1, 52032, Note_off_c, 1, 64, 0
1, 52038, Note_off_c, 1, 67, 0
1, 52044, Note_off_c, 1, 69, 0
1, 52080, Note_on_c, 1, 66, 127
1, 52140, Note_on_c, 1, 50, 127
1, 52200, Note_on_c, 1, 74, 127
1, 52248, Note_off_c, 1, 73, 0
1, 52272, Note_off_c, 1, 66, 0
1, 52296, Note_off_c, 1, 74, 0
1, 52320, Note_on_c, 1, 57, 127
1, 52332, Note_off_c, 1, 50, 0
1, 52512, Note_off_c, 1, 57, 0
1, 52560, Note_on_c, 1, 59, 127
1, 52680, Note_on_c, 1, 71, 127
1, 52752, Note_off_c, 1, 59, 0
1, 52776, Note_off_c, 1, 71, 0
1, 52800, Note_on_c, 1, 61, 127
1, 52920, Note_on_c, 1, 76, 127
1, 52992, Note_off_c, 1, 61, 0
1, 53016, Note_off_c, 1, 76, 0
1, 53040, Note_on_c, 1, 81, 127
1, 53040, Note_on_c, 1, 57, 127
1, 53040, Note_on_c, 1, 61, 127
1, 53232, Note_off_c, 1, 81, 0
1, 53232, Note_off_c, 1, 57, 0
1, 53232, Note_off_c, 1, 61, 0
1, 53280, Note_on_c, 1, 79, 127
1, 53280, Note_on_c, 1, 62, 127
1, 53280, Note_on_c, 1, 59, 127
1, 53304, Note_off_c, 1, 79, 0
1, 53310, Note_on_c, 1, 78, 127
1, 53334, Note_off_c, 1, 78, 0
1, 53472, Note_off_c, 1, 62, 0
1, 53472, Note_off_c, 1, 59, 0
1, 53520, Note_on_c, 1, 64, 127
1, 53520, Note_on_c, 1, 61, 127
1, 53640, Note_on_c, 1, 81, 127
1, 53712, Note_off_c, 1, 64, 0
1, 53712, Note_off_c, 1, 61, 0
1, 53736, Note_off_c, 1, 81, 0
1, 53760, Note_on_c, 1, 78, 127
1, 53760, Note_on_c, 1, 62, 127
1, 53784, Note_off_c, 1, 78, 0
1, 53790, Note_on_c, 1, 80, 127
1, 53814, Note_off_c, 1, 80, 0
1, 54120, Note_on_c, 1, 76, 127
1, 54216, Note_off_c, 1, 76, 0
1, 54240, Note_on_c, 1, 74, 127
1, 54336, Note_off_c, 1, 62, 0
1, 54336, Note_off_c, 1, 74, 0
1, 54360, Note_on_c, 1, 73, 127
1, 54456, Note_off_c, 1, 73, 0
1, 54480, Note_on_c, 1, 71, 127
1, 54480, Note_on_c, 1, 64, 127
1, 54576, Note_off_c, 1, 71, 0
1, 54600, Note_on_c, 1, 76, 127
1, 54672, Note_off_c, 1, 64, 0
1, 54696, Note_off_c, 1, 76, 0
1, 54720, Note_on_c, 1, 74, 127
1, 54720, Note_on_c, 1, 57, 127
1, 54744, Note_off_c, 1, 74, 0
1, 54750, Note_on_c, 1, 73, 127
1, 54774, Note_off_c, 1, 73, 0
1, 55104, Note_off_c, 1, 57, 0
1, 55200, Note_on_c, 1, 74, 127
1, 55200, Note_on_c, 1, 50, 127
1, 55320, Note_on_c, 1, 69, 127
1, 55440, Note_on_c, 1, 66, 127
1, 55488, Note_off_c, 1, 50, 0
1, 55560, Note_on_c, 1, 52, 127
1, 55608, Note_off_c, 1, 52, 0
1, 55620, Note_on_c, 1, 54, 127
1, 55668, Note_off_c, 1, 54, 0
1, 55776, Note_off_c, 1, 74, 0
1, 55824, Note_off_c, 1, 69, 0
1, 55824, Note_off_c, 1, 66, 0
1, 55860, Note_on_c, 1, 55, 127
1, 55908, Note_off_c, 1, 55, 0
1, 55920, Note_on_c, 1, 73, 127
1, 55920, Note_on_c, 1, 78, 127
1, 55920, Note_on_c, 1, 46, 127
1, 56112, Note_off_c, 1, 73, 0
1, 56112, Note_off_c, 1, 78, 0
1, 56112, Note_off_c, 1, 46, 0
1, 56160, Note_on_c, 1, 79, 127
1, 56160, Note_on_c, 1, 74, 127
1, 56160, Note_on_c, 1, 47, 127
1, 56184, Note_off_c, 1, 79, 0
1, 56190, Note_on_c, 1, 78, 127
1, 56214, Note_off_c, 1, 78, 0
1, 56352, Note_off_c, 1, 74, 0
1, 56352, Note_off_c, 1, 47, 0
1, 56400, Note_on_c, 1, 73, 127
1, 56400, Note_on_c, 1, 45, 127
1, 56592, Note_off_c, 1, 73, 0
1, 56592, Note_off_c, 1, 45, 0
1, 56640, Note_on_c, 1, 76, 127
1, 56640, Note_on_c, 1, 71, 127
1, 56640, Note_on_c, 1, 43, 127
1, 56664, Note_off_c, 1, 76, 0
1, 56670, Note_on_c, 1, 78, 127
1, 56694, Note_off_c, 1, 78, 0
1, 56832, Note_off_c, 1, 71, 0
1, 56832, Note_off_c, 1, 43, 0
1, 56880, Note_on_c, 1, 69, 127
1, 56880, Note_on_c, 1, 42, 127
1, 56904, Note_off_c, 1, 42, 0
1, 57000, Note_on_c, 1, 74, 127
1, 57072, Note_off_c, 1, 69, 0
1, 57096, Note_off_c, 1, 74, 0
1, 57120, Note_on_c, 1, 73, 127
1, 57120, Note_on_c, 1, 67, 127
1, 57120, Note_on_c, 1, 40, 127
1, 57312, Note_off_c, 1, 73, 0
1, 57312, Note_off_c, 1, 40, 0
1, 57360, Note_on_c, 1, 71, 127
1, 57360, Note_on_c, 1, 49, 127
1, 57456, Note_off_c, 1, 71, 0
1, 57480, Note_on_c, 1, 70, 127
1, 57504, Note_off_c, 1, 67, 0
1, 57552, Note_off_c, 1, 49, 0
1, 57576, Note_off_c, 1, 70, 0
1, 57600, Note_on_c, 1, 71, 127
1, 57600, Note_on_c, 1, 66, 127
1, 57600, Note_on_c, 1, 50, 127
1, 57624, Note_off_c, 1, 71, 0
1, 57630, Note_on_c, 1, 70, 127
1, 57654, Note_off_c, 1, 70, 0
1, 57792, Note_off_c, 1, 66, 0
1, 57792, Note_off_c, 1, 50, 0
1, 57840, Note_on_c, 1, 67, 127
1, 57840, Note_on_c, 1, 52, 127
1, 57960, Note_on_c, 1, 73, 127
1, 58032, Note_off_c, 1, 67, 0
1, 58032, Note_off_c, 1, 52, 0
1, 58056, Note_off_c, 1, 73, 0
1, 58080, Note_on_c, 1, 70, 127
1, 58080, Note_on_c, 1, 61, 127
1, 58080, Note_on_c, 1, 54, 127
1, 58104, Note_off_c, 1, 70, 0
1, 58110, Note_on_c, 1, 71, 127
1, 58134, Note_off_c, 1, 71, 0
1, 58272, Note_off_c, 1, 54, 0
1, 58320, Note_on_c, 1, 56, 127
1, 58440, Note_on_c, 1, 68, 127
1, 58512, Note_off_c, 1, 56, 0
1, 58536, Note_off_c, 1, 68, 0
1, 58560, Note_on_c, 1, 66, 127
1, 58560, Note_on_c, 1, 58, 127
1, 58656, Note_off_c, 1, 61, 0
1, 58656, Note_off_c, 1, 66, 0
1, 58680, Note_on_c, 1, 73, 127
1, 58752, Note_off_c, 1, 58, 0
1, 58776, Note_off_c, 1, 73, 0
1, 58800, Note_on_c, 1, 78, 127
1, 58800, Note_on_c, 1, 58, 127
1, 58800, Note_on_c, 1, 54, 127
1, 58992, Note_off_c, 1, 78, 0
1, 58992, Note_off_c, 1, 58, 0
1, 58992, Note_off_c, 1, 54, 0
1, 59040, Note_on_c, 1, 76, 127
1, 59040, Note_on_c, 1, 59, 127
1, 59040, Note_on_c, 1, 56, 127
1, 59064, Note_off_c, 1, 76, 0
1, 59070, Note_on_c, 1, 75, 127
1, 59094, Note_off_c, 1, 75, 0
1, 59232, Note_off_c, 1, 59, 0
1, 59232, Note_off_c, 1, 56, 0
1, 59280, Note_on_c, 1, 61, 127
1, 59280, Note_on_c, 1, 58, 127
1, 59400, Note_on_c, 1, 78, 127
1, 59472, Note_off_c, 1, 61, 0
1, 59472, Note_off_c, 1, 58, 0
1, 59496, Note_off_c, 1, 78, 0
1, 59520, Note_on_c, 1, 74, 127
1, 59520, Note_on_c, 1, 59, 127
1, 59616, Note_off_c, 1, 59, 0
1, 59640, Note_on_c, 1, 61, 127
1, 59736, Note_off_c, 1, 61, 0
1, 59745, Note_off_c, 1, 74, 0
1, 59760, Note_on_c, 1, 59, 127
1, 59856, Note_off_c, 1, 59, 0
1, 59880, Note_on_c, 1, 73, 127
1, 59880, Note_on_c, 1, 57, 127
1, 59976, Note_off_c, 1, 57, 0
1, 59993, Note_off_c, 1, 73, 0
1, 60000, Note_on_c, 1, 71, 127
1, 60000, Note_on_c, 1, 55, 127
1, 60096, Note_off_c, 1, 71, 0
1, 60096, Note_off_c, 1, 55, 0
1, 60120, Note_on_c, 1, 70, 127
1, 60120, Note_on_c, 1, 54, 127
1, 60216, Note_off_c, 1, 70, 0
1, 60216, Note_off_c, 1, 54, 0
1, 60240, Note_on_c, 1, 71, 127
1, 60240, Note_on_c, 1, 55, 127
1, 60336, Note_off_c, 1, 71, 0
1, 60336, Note_off_c, 1, 55, 0
1, 60360, Note_on_c, 1, 73, 127
1, 60360, Note_on_c, 1, 52, 127
1, 60456, Note_off_c, 1, 73, 0
1, 60456, Note_off_c, 1, 52, 0
1, 60480, Note_on_c, 1, 73, 127
1, 60480, Note_on_c, 1, 70, 127
1, 60480, Note_on_c, 1, 54, 127
1, 60504, Note_off_c, 1, 73, 0
1, 60510, Note_on_c, 1, 74, 127
1, 60534, Note_off_c, 1, 74, 0
1, 60720, Note_on_c, 1, 42, 127
1, 60840, Note_on_c, 1, 71, 127
1, 60864, Note_off_c, 1, 70, 0
1, 60864, Note_off_c, 1, 54, 0
1, 60912, Note_off_c, 1, 42, 0
1, 60936, Note_off_c, 1, 71, 0
1, 60960, Note_on_c, 1, 71, 127
1, 60960, Note_on_c, 1, 47, 127
1, 61080, Note_on_c, 1, 66, 127
1, 61200, Note_on_c, 1, 62, 127
1, 61248, Note_off_c, 1, 47, 0
1, 61320, Note_on_c, 1, 50, 127
1, 61368, Note_off_c, 1, 50, 0
1, 61380, Note_on_c, 1, 49, 127
1, 61428, Note_off_c, 1, 49, 0
1, 61536, Note_off_c, 1, 71, 0
1, 61584, Note_off_c, 1, 66, 0
1, 61584, Note_off_c, 1, 62, 0
1, 61620, Note_on_c, 1, 50, 127
1, 61668, Note_off_c, 1, 50, 0
1, 61680, Note_on_c, 1, 71, 127
1, 61680, Note_on_c, 1, 44, 127
1, 61704, Note_off_c, 1, 71, 0
1, 61710, Note_on_c, 1, 70, 127
1, 61734, Note_off_c, 1, 70, 0
1, 61872, Note_off_c, 1, 44, 0
1, 61920, Note_on_c, 1, 64, 127
1, 61920, Note_on_c, 1, 42, 127
1, 61944, Note_off_c, 1, 42, 0
1, 61950, Note_on_c, 1, 71, 127
1, 61950, Note_on_c, 1, 44, 127
1, 61974, Note_off_c, 1, 44, 0
1, 61980, Note_on_c, 1, 76, 127
1, 62160, Note_on_c, 1, 40, 127
1, 62205, Note_off_c, 1, 71, 0
1, 62280, Note_on_c, 1, 74, 127
1, 62304, Note_off_c, 1, 64, 0
1, 62328, Note_off_c, 1, 76, 0
1, 62352, Note_off_c, 1, 40, 0
1, 62376, Note_off_c, 1, 74, 0
1, 62400, Note_on_c, 1, 73, 127
1, 62400, Note_on_c, 1, 64, 127
1, 62400, Note_on_c, 1, 45, 127
1, 62424, Note_off_c, 1, 73, 0
1, 62430, Note_on_c, 1, 74, 127
1, 62454, Note_off_c, 1, 74, 0
1, 62592, Note_off_c, 1, 45, 0
1, 62640, Note_on_c, 1, 47, 127
1, 62760, Note_on_c, 1, 71, 127
1, 62832, Note_off_c, 1, 47, 0
1, 62856, Note_off_c, 1, 71, 0
1, 62880, Note_on_c, 1, 69, 127
1, 62880, Note_on_c, 1, 49, 127
1, 62976, Note_off_c, 1, 64, 0
1, 62976, Note_off_c, 1, 69, 0
1, 63072, Note_off_c, 1, 49, 0
1, 63120, Note_on_c, 1, 57, 127
1, 63120, Note_on_c, 1, 66, 127
1, 63120, Note_on_c, 1, 50, 127
1, 63312, Note_off_c, 1, 57, 0
1, 63312, Note_off_c, 1, 66, 0
1, 63312, Note_off_c, 1, 50, 0
1, 63360, Note_on_c, 1, 62, 127
1, 63360, Note_on_c, 1, 47, 127
1, 63384, Note_off_c, 1, 47, 0
1, 63390, Note_on_c, 1, 64, 127
1, 63390, Note_on_c, 1, 49, 127
1, 63414, Note_off_c, 1, 49, 0
1, 63420, Note_on_c, 1, 68, 127
1, 63533, Note_off_c, 1, 64, 0
1, 63552, Note_off_c, 1, 62, 0
1, 63600, Note_on_c, 1, 61, 127
1, 63720, Note_on_c, 1, 69, 127
1, 63720, Note_on_c, 1, 45, 127
1, 63768, Note_off_c, 1, 68, 0
1, 63792, Note_off_c, 1, 61, 0
1, 63816, Note_off_c, 1, 69, 0
1, 63840, Note_on_c, 1, 59, 127
1, 63840, Note_on_c, 1, 52, 127
1, 63912, Note_off_c, 1, 45, 0
1, 64032, Note_off_c, 1, 52, 0
1, 64080, Note_on_c, 1, 54, 127
1, 64200, Note_on_c, 1, 66, 127
1, 64272, Note_off_c, 1, 54, 0
1, 64320, Note_on_c, 1, 56, 127
1, 64416, Note_off_c, 1, 59, 0
1, 64512, Note_off_c, 1, 56, 0
1, 64560, Note_on_c, 1, 71, 127
1, 64656, Note_off_c, 1, 71, 0
1, 64680, Note_on_c, 1, 73, 127
1, 64728, Note_off_c, 1, 73, 0
1, 64740, Note_on_c, 1, 74, 127
1, 64788, Note_off_c, 1, 74, 0
1, 64800, Note_on_c, 1, 57, 127
1, 64992, Note_off_c, 1, 57, 0
1, 65280, Note_on_c, 1, 76, 127
1, 65568, Note_off_c, 1, 76, 0
1, 65640, Note_on_c, 1, 78, 127
1, 65736, Note_off_c, 1, 78, 0
1, 65760, Note_on_c, 1, 79, 127
1, 65856, Note_off_c, 1, 79, 0
1, 66000, Note_on_c, 1, 81, 127
1, 66192, Note_off_c, 1, 81, 0
1, 66720, Note_on_c, 1, 50, 127
1, 66912, Note_off_c, 1, 50, 0
1, 67080, Note_on_c, 1, 80, 127
1, 67920, Note_on_c, 1, 40, 127
1, 68112, Note_off_c, 1, 40, 0
1, 68400, Note_on_c, 1, 33, 127
1, 69264, Note_off_c, 1, 66, 0
1, 69264, Note_off_c, 1, 80, 0
1, 69264, Note_off_c, 1, 33, 0
1, 69264, End_track
0, 0, End_of_file