0, 0, Header, 1, 1, 480
1, 0, Start_track
1, 0, Title_t, "Test"
1, 0, Tempo, 500000
1, 0, Instrument_name_t, "Church Organ"
1, 64, Note_on_c, 1, 63, 127
1, 64, Note_on_c, 1, 59, 127
1, 261, Note_on_c, 1, 71, 127
1, 456, Note_off_c, 1, 71, 0
1, 459, Note_on_c, 1, 70, 127
1, 654, Note_off_c, 1, 70, 0
1, 852, Note_off_c, 1, 63, 0
1, 855, Note_on_c, 1, 73, 127
1, 855, Note_on_c, 1, 64, 127
1, 1050, Note_off_c, 1, 73, 0
1, 1643, Note_off_c, 1, 64, 0
1, 1644, Note_off_c, 1, 59, 0
1, 1646, Note_on_c, 1, 66, 127
1, 1843, Note_on_c, 1, 75, 127
1, 2038, Note_off_c, 1, 75, 0
1, 2434, Note_off_c, 1, 66, 0
1, 2437, Note_on_c, 1, 76, 127
1, 2437, Note_on_c, 1, 68, 127
1, 2632, Note_off_c, 1, 76, 0
1, 3225, Note_off_c, 1, 68, 0
1, 4019, Note_on_c, 1, 78, 127
1, 4214, Note_off_c, 1, 78, 0
1, 6392, Note_on_c, 1, 65, 127
1, 6392, Note_on_c, 1, 73, 127
1, 6590, Note_on_c, 1, 56, 127
1, 6785, Note_off_c, 1, 56, 0
1, 6787, Note_on_c, 1, 54, 127
1, 6982, Note_off_c, 1, 54, 0
1, 7180, Note_off_c, 1, 65, 0
1, 7183, Note_on_c, 1, 58, 127
1, 7183, Note_on_c, 1, 66, 127
1, 7378, Note_off_c, 1, 58, 0
1, 7974, Note_on_c, 1, 51, 127
1, 8163, Note_off_c, 1, 73, 0
1, 8172, Note_on_c, 1, 70, 127
1, 8367, Note_off_c, 1, 70, 0
1, 8369, Note_on_c, 1, 68, 127
1, 8564, Note_off_c, 1, 68, 0
1, 8762, Note_off_c, 1, 51, 0
1, 8765, Note_on_c, 1, 71, 127
1, 8960, Note_off_c, 1, 71, 0
1, 9552, Note_off_c, 1, 66, 0
1, 9556, Note_on_c, 1, 49, 127
1, 10344, Note_off_c, 1, 49, 0
1, 10347, Note_on_c, 1, 70, 127
1, 10347, Note_on_c, 1, 64, 127
1, 10347, Note_on_c, 1, 54, 127
1, 10542, Note_off_c, 1, 70, 0
1, 10545, Note_on_c, 1, 66, 127
1, 10740, Note_off_c, 1, 66, 0
1, 10743, Note_on_c, 1, 68, 127
1, 10938, Note_off_c, 1, 68, 0
1, 11129, Note_off_c, 1, 64, 0
1, 11135, Note_off_c, 1, 54, 0
1, 11138, Note_on_c, 1, 47, 127
1, 11138, Note_on_c, 1, 63, 127
1, 11333, Note_off_c, 1, 47, 0
1, 11336, Note_on_c, 1, 58, 127
1, 11531, Note_off_c, 1, 58, 0
1, 11534, Note_on_c, 1, 56, 127
1, 11729, Note_off_c, 1, 56, 0
1, 11929, Note_on_c, 1, 59, 127
1, 12124, Note_off_c, 1, 59, 0
1, 12720, Note_on_c, 1, 49, 127
1, 12720, Note_on_c, 1, 65, 127
1, 12915, Note_off_c, 1, 49, 0
1, 12918, Note_on_c, 1, 51, 127
1, 12998, Note_off_c, 1, 63, 0
1, 13113, Note_off_c, 1, 51, 0
1, 13116, Note_on_c, 1, 61, 127
1, 13502, Note_off_c, 1, 65, 0
1, 13509, Note_off_c, 1, 61, 0
1, 13511, Note_on_c, 1, 51, 127
1, 13511, Note_on_c, 1, 59, 127
1, 13511, Note_on_c, 1, 66, 127
1, 13706, Note_off_c, 1, 51, 0
1, 13709, Note_on_c, 1, 47, 127
1, 13904, Note_off_c, 1, 59, 0
1, 13904, Note_off_c, 1, 47, 0
1, 13907, Note_on_c, 1, 49, 127
1, 13907, Note_on_c, 1, 58, 127
1, 14102, Note_off_c, 1, 49, 0
1, 14300, Note_off_c, 1, 58, 0
1, 14302, Note_on_c, 1, 44, 127
1, 14698, Note_on_c, 1, 56, 127
1, 14893, Note_off_c, 1, 56, 0
1, 15090, Note_off_c, 1, 44, 0
1, 15091, Note_off_c, 1, 66, 0
1, 15093, Note_on_c, 1, 59, 127
1, 15093, Note_on_c, 1, 65, 127
1, 15093, Note_on_c, 1, 49, 127
1, 15288, Note_off_c, 1, 59, 0
1, 15291, Note_on_c, 1, 56, 127
1, 15486, Note_off_c, 1, 56, 0
1, 15489, Note_on_c, 1, 58, 127
1, 15684, Note_off_c, 1, 58, 0
1, 15875, Note_off_c, 1, 65, 0
1, 15881, Note_off_c, 1, 49, 0
1, 15884, Note_on_c, 1, 42, 127
1, 15884, Note_on_c, 1, 58, 127
1, 15884, Note_on_c, 1, 66, 127
1, 16079, Note_off_c, 1, 42, 0
1, 16082, Note_on_c, 1, 49, 127
1, 16277, Note_off_c, 1, 49, 0
1, 16280, Note_on_c, 1, 47, 127
1, 16475, Note_off_c, 1, 47, 0
1, 16672, Note_off_c, 1, 58, 0
1, 16675, Note_on_c, 1, 51, 127
1, 16675, Note_on_c, 1, 59, 127
1, 16870, Note_off_c, 1, 51, 0
1, 17463, Note_off_c, 1, 59, 0
1, 17466, Note_on_c, 1, 61, 127
1, 17664, Note_on_c, 1, 46, 127
1, 17859, Note_off_c, 1, 46, 0
1, 17862, Note_on_c, 1, 44, 127
1, 18057, Note_off_c, 1, 44, 0
1, 18254, Note_off_c, 1, 61, 0
1, 18257, Note_on_c, 1, 63, 127
1, 19035, Note_off_c, 1, 66, 0
1, 19048, Note_on_c, 1, 40, 127
1, 19246, Note_on_c, 1, 68, 127
1, 19441, Note_off_c, 1, 68, 0
1, 19444, Note_on_c, 1, 67, 127
1, 19639, Note_off_c, 1, 67, 0
1, 19837, Note_off_c, 1, 63, 0
1, 19840, Note_on_c, 1, 70, 127
1, 19840, Note_on_c, 1, 52, 127
1, 19844, Note_off_c, 1, 40, 0
1, 20035, Note_off_c, 1, 70, 0
1, 20628, Note_off_c, 1, 52, 0
1, 21422, Note_on_c, 1, 71, 127
1, 21617, Note_off_c, 1, 71, 0
1, 22213, Note_on_c, 1, 73, 127
1, 22408, Note_off_c, 1, 73, 0
1, 22410, Note_on_c, 1, 80, 127
1, 22605, Note_off_c, 1, 80, 0
1, 22608, Note_on_c, 1, 79, 127
1, 22608, Note_on_c, 1, 56, 127
1, 22803, Note_off_c, 1, 79, 0
1, 23004, Note_on_c, 1, 82, 127
1, 23199, Note_off_c, 1, 82, 0
1, 23390, Note_off_c, 1, 56, 0
1, 23399, Note_on_c, 1, 55, 127
1, 23795, Note_on_c, 1, 75, 127
1, 23939, Note_off_c, 1, 55, 0
1, 25375, Note_off_c, 1, 75, 0
1, 25377, Note_on_c, 1, 65, 127
1, 25572, Note_off_c, 1, 65, 0
1, 27354, Note_on_c, 1, 64, 127
1, 27747, Note_off_c, 1, 64, 0
1, 27750, Note_on_c, 1, 76, 127
1, 27750, Note_on_c, 1, 63, 127
1, 27750, Note_on_c, 1, 68, 127
1, 27945, Note_off_c, 1, 76, 0
1, 27948, Note_on_c, 1, 73, 127
1, 28143, Note_off_c, 1, 63, 0
1, 28143, Note_off_c, 1, 73, 0
1, 28145, Note_on_c, 1, 75, 127
1, 28145, Note_on_c, 1, 61, 127
1, 28340, Note_off_c, 1, 75, 0
1, 28538, Note_off_c, 1, 61, 0
1, 28541, Note_on_c, 1, 70, 127
1, 28736, Note_off_c, 1, 70, 0
1, 28739, Note_on_c, 1, 71, 127
1, 28934, Note_off_c, 1, 71, 0
1, 29330, Note_off_c, 1, 68, 0
1, 29332, Note_on_c, 1, 73, 127
1, 29332, Note_on_c, 1, 63, 127
1, 29332, Note_on_c, 1, 67, 127
1, 29527, Note_off_c, 1, 73, 0
1, 29530, Note_on_c, 1, 70, 127
1, 29725, Note_off_c, 1, 63, 0
1, 29725, Note_off_c, 1, 70, 0
1, 29728, Note_on_c, 1, 71, 127
1, 29728, Note_on_c, 1, 51, 127
1, 29923, Note_off_c, 1, 71, 0
1, 30114, Note_off_c, 1, 67, 0
1, 30121, Note_off_c, 1, 51, 0
1, 30131, Note_on_c, 1, 56, 127
1, 30131, Note_on_c, 1, 71, 127
1, 30131, Note_on_c, 1, 68, 127
1, 30326, Note_off_c, 1, 56, 0
1, 30329, Note_on_c, 1, 58, 127
1, 30524, Note_off_c, 1, 71, 0
1, 30524, Note_off_c, 1, 58, 0
1, 30527, Note_on_c, 1, 75, 127
1, 30913, Note_off_c, 1, 68, 0
1, 30920, Note_off_c, 1, 75, 0
1, 30922, Note_on_c, 1, 59, 127
1, 30922, Note_on_c, 1, 80, 127
1, 31117, Note_off_c, 1, 59, 0
1, 31120, Note_on_c, 1, 56, 127
1, 31315, Note_off_c, 1, 80, 0
1, 31315, Note_off_c, 1, 56, 0
1, 31318, Note_on_c, 1, 58, 127
1, 31318, Note_on_c, 1, 78, 127
1, 31513, Note_off_c, 1, 58, 0
1, 31515, Note_on_c, 1, 59, 127
1, 31710, Note_off_c, 1, 59, 0
1, 31711, Note_off_c, 1, 78, 0
1, 31713, Note_on_c, 1, 49, 127
1, 31713, Note_on_c, 1, 77, 127
1, 31911, Note_on_c, 1, 73, 127
1, 32106, Note_off_c, 1, 49, 0
1, 32106, Note_off_c, 1, 73, 0
1, 32109, Note_on_c, 1, 61, 127
1, 32109, Note_on_c, 1, 71, 127
1, 32304, Note_off_c, 1, 61, 0
1, 32304, Note_off_c, 1, 71, 0
1, 32306, Note_on_c, 1, 59, 127
1, 32501, Note_off_c, 1, 59, 0
1, 32504, Note_on_c, 1, 74, 127
1, 32504, Note_on_c, 1, 57, 127
1, 32699, Note_off_c, 1, 74, 0
1, 32897, Note_off_c, 1, 57, 0
1, 32900, Note_on_c, 1, 56, 127
1, 33293, Note_off_c, 1, 77, 0
1, 33293, Note_off_c, 1, 56, 0
1, 33295, Note_on_c, 1, 54, 127
1, 33295, Note_on_c, 1, 69, 127
1, 33490, Note_off_c, 1, 54, 0
1, 33493, Note_on_c, 1, 56, 127
1, 33688, Note_off_c, 1, 56, 0
1, 33691, Note_on_c, 1, 73, 127
1, 34084, Note_off_c, 1, 73, 0
1, 34086, Note_on_c, 1, 57, 127
1, 34086, Note_on_c, 1, 78, 127
1, 34281, Note_off_c, 1, 57, 0
1, 34479, Note_off_c, 1, 78, 0
1, 34482, Note_on_c, 1, 76, 127
1, 34875, Note_off_c, 1, 69, 0
1, 34875, Note_off_c, 1, 76, 0
1, 34877, Note_on_c, 1, 47, 127
1, 34877, Note_on_c, 1, 75, 127
1, 35075, Note_on_c, 1, 69, 127
1, 35270, Note_off_c, 1, 47, 0
1, 35270, Note_off_c, 1, 69, 0
1, 35273, Note_on_c, 1, 59, 127
1, 35273, Note_on_c, 1, 68, 127
1, 35468, Note_off_c, 1, 59, 0
1, 35468, Note_off_c, 1, 68, 0
1, 35471, Note_on_c, 1, 57, 127
1, 35666, Note_off_c, 1, 57, 0
1, 35668, Note_on_c, 1, 71, 127
1, 35668, Note_on_c, 1, 56, 127
1, 35863, Note_off_c, 1, 71, 0
1, 35866, Note_on_c, 1, 66, 127
1, 36061, Note_off_c, 1, 56, 0
1, 36061, Note_off_c, 1, 66, 0
1, 36064, Note_on_c, 1, 54, 127
1, 36277, Note_off_c, 1, 75, 0
1, 36457, Note_off_c, 1, 54, 0
1, 36459, Note_on_c, 1, 52, 127
1, 36459, Note_on_c, 1, 68, 127
1, 36459, Note_on_c, 1, 76, 127
1, 36654, Note_off_c, 1, 52, 0
1, 36657, Note_on_c, 1, 51, 127
1, 36852, Note_off_c, 1, 51, 0
1, 37247, Note_off_c, 1, 68, 0
1, 37250, Note_on_c, 1, 49, 127
1, 37250, Note_on_c, 1, 70, 127
1, 37445, Note_off_c, 1, 49, 0
1, 37643, Note_off_c, 1, 70, 0
1, 37646, Note_on_c, 1, 71, 127
1, 38039, Note_off_c, 1, 71, 0
1, 38041, Note_on_c, 1, 54, 127
1, 38230, Note_off_c, 1, 76, 0
1, 38239, Note_on_c, 1, 73, 127
1, 38434, Note_off_c, 1, 73, 0
1, 38832, Note_on_c, 1, 75, 127
1, 38832, Note_on_c, 1, 69, 127
1, 38832, Note_on_c, 1, 47, 127
1, 38850, Note_off_c, 1, 54, 0
1, 39027, Note_off_c, 1, 75, 0
1, 39614, Note_off_c, 1, 69, 0
1, 39620, Note_off_c, 1, 47, 0
1, 39821, Note_on_c, 1, 63, 127
1, 40016, Note_off_c, 1, 63, 0
1, 40019, Note_on_c, 1, 61, 127
1, 40214, Note_off_c, 1, 61, 0
1, 40415, Note_on_c, 1, 64, 127
1, 40610, Note_off_c, 1, 64, 0
1, 41403, Note_on_c, 1, 56, 127
1, 41598, Note_off_c, 1, 56, 0
1, 41601, Note_on_c, 1, 66, 127
1, 41994, Note_off_c, 1, 66, 0
1, 41997, Note_on_c, 1, 56, 127
1, 41997, Note_on_c, 1, 64, 127
1, 41997, Note_on_c, 1, 71, 127
1, 42192, Note_off_c, 1, 56, 0
1, 42194, Note_on_c, 1, 52, 127
1, 42389, Note_off_c, 1, 52, 0
1, 42390, Note_off_c, 1, 64, 0
1, 42392, Note_on_c, 1, 54, 127
1, 42392, Note_on_c, 1, 63, 127
1, 42587, Note_off_c, 1, 54, 0
1, 42785, Note_off_c, 1, 63, 0
1, 42788, Note_on_c, 1, 49, 127
1, 43183, Note_on_c, 1, 61, 127
1, 43378, Note_off_c, 1, 61, 0
1, 43576, Note_off_c, 1, 49, 0
1, 43577, Note_off_c, 1, 71, 0
1, 43579, Note_on_c, 1, 64, 127
1, 43579, Note_on_c, 1, 70, 127
1, 43579, Note_on_c, 1, 54, 127
1, 43774, Note_off_c, 1, 64, 0
1, 43776, Note_on_c, 1, 61, 127
1, 43971, Note_off_c, 1, 61, 0
1, 43974, Note_on_c, 1, 63, 127
1, 44169, Note_off_c, 1, 63, 0
1, 44361, Note_off_c, 1, 70, 0
1, 44378, Note_on_c, 1, 47, 127
1, 44390, Note_off_c, 1, 54, 0
1, 44576, Note_on_c, 1, 69, 127
1, 44771, Note_off_c, 1, 69, 0
1, 44773, Note_on_c, 1, 71, 127
1, 44968, Note_off_c, 1, 71, 0
1, 45169, Note_on_c, 1, 68, 127
1, 45364, Note_off_c, 1, 68, 0
1, 45960, Note_on_c, 1, 66, 127
1, 46155, Note_off_c, 1, 47, 0
1, 46158, Note_on_c, 1, 49, 127
1, 46353, Note_off_c, 1, 49, 0
1, 46355, Note_on_c, 1, 51, 127
1, 46550, Note_off_c, 1, 51, 0
1, 46553, Note_on_c, 1, 52, 127
1, 46748, Note_off_c, 1, 52, 0
1, 46949, Note_on_c, 1, 57, 127
1, 47144, Note_off_c, 1, 57, 0
1, 47146, Note_on_c, 1, 56, 127
1, 47341, Note_off_c, 1, 56, 0
1, 47542, Note_on_c, 1, 59, 127
1, 47731, Note_off_c, 1, 66, 0
1, 48341, Note_on_c, 1, 65, 127
1, 48536, Note_off_c, 1, 65, 0
1, 49330, Note_on_c, 1, 73, 127
1, 49525, Note_off_c, 1, 73, 0
1, 49923, Note_on_c, 1, 74, 127
1, 50118, Note_off_c, 1, 74, 0
1, 50704, Note_off_c, 1, 59, 0
1, 50714, Note_on_c, 1, 66, 127
1, 50714, Note_on_c, 1, 70, 127
1, 50714, Note_on_c, 1, 54, 127
1, 50916, Note_on_c, 1, 64, 127
1, 51113, Note_off_c, 1, 66, 0
1, 51115, Note_off_c, 1, 64, 0
1, 51519, Note_off_c, 1, 70, 0
1, 51522, Note_on_c, 1, 63, 127
1, 51522, Note_on_c, 1, 68, 127
1, 51522, Note_on_c, 1, 71, 127
1, 51721, Note_off_c, 1, 63, 0
1, 52327, Note_off_c, 1, 68, 0
1, 52327, Note_off_c, 1, 71, 0
1, 52329, Note_on_c, 1, 73, 127
1, 52529, Note_on_c, 1, 61, 127
1, 52728, Note_off_c, 1, 61, 0
1, 53132, Note_off_c, 1, 73, 0
1, 53135, Note_on_c, 1, 59, 127
1, 53135, Note_on_c, 1, 75, 127
1, 53334, Note_off_c, 1, 59, 0
1, 53940, Note_off_c, 1, 75, 0
1, 53942, Note_on_c, 1, 58, 127
1, 54141, Note_off_c, 1, 54, 0
1, 54146, Note_on_c, 1, 76, 127
1, 54347, Note_off_c, 1, 76, 0
1, 54350, Note_on_c, 1, 52, 127
1, 54350, Note_on_c, 1, 78, 127
1, 54551, Note_off_c, 1, 52, 0
1, 54551, Note_off_c, 1, 78, 0
1, 54749, Note_off_c, 1, 58, 0
1, 54758, Note_on_c, 1, 56, 127
1, 54758, Note_on_c, 1, 75, 127
1, 54758, Note_on_c, 1, 59, 127
1, 54758, Note_on_c, 1, 71, 127
1, 54959, Note_off_c, 1, 56, 0
1, 54959, Note_off_c, 1, 75, 0
1, 54962, Note_on_c, 1, 52, 127
1, 54962, Note_on_c, 1, 78, 127
1, 55163, Note_off_c, 1, 52, 0
1, 55163, Note_off_c, 1, 78, 0
1, 55166, Note_on_c, 1, 54, 127
1, 55166, Note_on_c, 1, 76, 127
1, 55367, Note_off_c, 1, 54, 0
1, 55367, Note_off_c, 1, 76, 0
1, 55565, Note_off_c, 1, 59, 0
1, 55565, Note_off_c, 1, 71, 0
1, 55574, Note_on_c, 1, 73, 127
1, 55574, Note_on_c, 1, 46, 127
1, 55574, Note_on_c, 1, 54, 127
1, 55782, Note_on_c, 1, 64, 127
1, 55988, Note_off_c, 1, 64, 0
1, 55990, Note_on_c, 1, 66, 127
1, 56196, Note_off_c, 1, 66, 0
1, 56398, Note_off_c, 1, 73, 0
1, 56404, Note_off_c, 1, 46, 0
1, 56406, Note_on_c, 1, 63, 127
1, 56406, Note_on_c, 1, 47, 127
1, 56406, Note_on_c, 1, 71, 127
1, 56612, Note_off_c, 1, 63, 0
1, 57236, Note_off_c, 1, 47, 0
1, 57238, Note_on_c, 1, 42, 127
1, 57238, Note_on_c, 1, 61, 127
1, 57446, Note_off_c, 1, 54, 0
1, 57454, Note_on_c, 1, 51, 127
1, 57668, Note_off_c, 1, 51, 0
1, 57671, Note_on_c, 1, 49, 127
1, 57885, Note_off_c, 1, 49, 0
1, 58101, Note_off_c, 1, 71, 0
1, 58103, Note_on_c, 1, 52, 127
1, 58103, Note_on_c, 1, 70, 127
1, 58317, Note_off_c, 1, 52, 0
1, 58997, Note_off_c, 1, 42, 0
1, 58997, Note_off_c, 1, 61, 0
1, 59003, Note_off_c, 1, 70, 0
1, 59006, Note_on_c, 1, 71, 127
1, 59006, Note_on_c, 1, 59, 127
1, 59006, Note_on_c, 1, 66, 127
1, 59006, Note_on_c, 1, 47, 127
1, 59006, Note_on_c, 1, 51, 127
1, 61006, Note_off_c, 1, 71, 0
1, 61006, Note_off_c, 1, 59, 0
1, 61006, Note_off_c, 1, 66, 0
1, 61006, Note_off_c, 1, 47, 0
1, 61006, Note_off_c, 1, 51, 0
1, 61219, Note_on_c, 1, 59, 127
1, 61606, Note_off_c, 1, 59, 0
1, 61609, Note_on_c, 1, 58, 127
1, 61996, Note_off_c, 1, 58, 0
1, 61998, Note_on_c, 1, 59, 127
1, 62385, Note_off_c, 1, 59, 0
1, 62387, Note_on_c, 1, 61, 127
1, 63161, Note_off_c, 1, 61, 0
1, 63164, Note_on_c, 1, 54, 127
1, 63528, Note_off_c, 1, 54, 0
1, 63553, Note_on_c, 1, 56, 127
1, 63744, Note_off_c, 1, 56, 0
1, 63747, Note_on_c, 1, 58, 127
1, 63938, Note_off_c, 1, 58, 0
1, 63940, Note_on_c, 1, 59, 127
1, 64304, Note_off_c, 1, 59, 0
1, 64330, Note_on_c, 1, 61, 127
1, 64521, Note_off_c, 1, 61, 0
1, 64523, Note_on_c, 1, 63, 127
1, 64714, Note_off_c, 1, 63, 0
1, 64717, Note_on_c, 1, 64, 127
1, 65091, Note_off_c, 1, 64, 0
1, 65106, Note_on_c, 1, 63, 127
1, 65450, Note_off_c, 1, 63, 0
1, 65496, Note_on_c, 1, 63, 127
1, 65590, Note_off_c, 1, 63, 0
1, 65593, Note_on_c, 1, 61, 127
1, 65687, Note_off_c, 1, 61, 0
1, 65689, Note_on_c, 1, 63, 127
1, 65783, Note_off_c, 1, 63, 0
1, 65786, Note_on_c, 1, 61, 127
1, 65880, Note_off_c, 1, 61, 0
1, 65883, Note_on_c, 1, 63, 127
1, 65977, Note_off_c, 1, 63, 0
1, 65980, Note_on_c, 1, 61, 127
1, 66074, Note_off_c, 1, 61, 0
1, 66077, Note_on_c, 1, 63, 127
1, 66171, Note_off_c, 1, 63, 0
1, 66173, Note_on_c, 1, 61, 127
1, 66267, Note_off_c, 1, 61, 0
1, 66270, Note_on_c, 1, 63, 127
1, 66364, Note_off_c, 1, 63, 0
1, 66367, Note_on_c, 1, 61, 127
1, 66461, Note_off_c, 1, 61, 0
1, 66464, Note_on_c, 1, 63, 127
1, 66558, Note_off_c, 1, 63, 0
1, 66561, Note_on_c, 1, 61, 127
1, 66655, Note_off_c, 1, 61, 0
1, 66658, Note_on_c, 1, 63, 127
1, 66752, Note_off_c, 1, 63, 0
1, 66754, Note_on_c, 1, 61, 127
1, 66848, Note_off_c, 1, 61, 0
1, 66851, Note_on_c, 1, 63, 127
1, 66945, Note_off_c, 1, 63, 0
1, 66948, Note_on_c, 1, 61, 127
1, 67042, Note_off_c, 1, 61, 0
1, 67045, Note_on_c, 1, 59, 127
1, 67434, Note_on_c, 1, 66, 127
1, 67821, Note_off_c, 1, 66, 0
1, 67824, Note_on_c, 1, 63, 127
1, 68210, Note_off_c, 1, 59, 0
1, 68211, Note_off_c, 1, 63, 0
1, 68213, Note_on_c, 1, 61, 127
1, 68213, Note_on_c, 1, 64, 127
1, 68404, Note_off_c, 1, 61, 0
1, 68407, Note_on_c, 1, 59, 127
1, 68598, Note_off_c, 1, 64, 0
1, 68598, Note_off_c, 1, 59, 0
1, 68600, Note_on_c, 1, 58, 127
1, 68600, Note_on_c, 1, 66, 127
1, 68791, Note_off_c, 1, 58, 0
1, 68794, Note_on_c, 1, 56, 127
1, 68985, Note_off_c, 1, 56, 0
1, 68987, Note_on_c, 1, 54, 127
1, 69178, Note_off_c, 1, 54, 0
1, 69181, Note_on_c, 1, 52, 127
1, 69372, Note_off_c, 1, 66, 0
1, 69372, Note_off_c, 1, 52, 0
1, 69375, Note_on_c, 1, 59, 127
1, 69375, Note_on_c, 1, 51, 127
1, 69739, Note_off_c, 1, 59, 0
1, 69762, Note_off_c, 1, 51, 0
1, 69764, Note_on_c, 1, 63, 127
1, 69764, Note_on_c, 1, 59, 127
1, 69955, Note_off_c, 1, 63, 0
1, 69958, Note_on_c, 1, 65, 127
1, 70149, Note_off_c, 1, 59, 0
1, 70149, Note_off_c, 1, 65, 0
1, 70151, Note_on_c, 1, 66, 127
1, 70151, Note_on_c, 1, 58, 127
1, 70515, Note_off_c, 1, 66, 0
1, 70538, Note_off_c, 1, 58, 0
1, 70541, Note_on_c, 1, 59, 127
1, 70541, Note_on_c, 1, 68, 127
1, 70732, Note_off_c, 1, 59, 0
1, 70732, Note_off_c, 1, 68, 0
1, 70734, Note_on_c, 1, 61, 127
1, 70734, Note_on_c, 1, 70, 127
1, 70925, Note_off_c, 1, 61, 0
1, 70925, Note_off_c, 1, 70, 0
1, 70928, Note_on_c, 1, 63, 127
1, 70928, Note_on_c, 1, 71, 127
1, 71119, Note_off_c, 1, 63, 0
1, 71122, Note_on_c, 1, 65, 127
1, 71313, Note_off_c, 1, 71, 0
1, 71313, Note_off_c, 1, 65, 0
1, 71315, Note_on_c, 1, 70, 127
1, 71315, Note_on_c, 1, 66, 127
1, 71638, Note_off_c, 1, 70, 0
1, 71799, Note_on_c, 1, 68, 127
1, 71893, Note_off_c, 1, 68, 0
1, 72087, Note_off_c, 1, 66, 0
1, 72090, Note_on_c, 1, 70, 127
1, 72090, Note_on_c, 1, 64, 127
1, 72184, Note_off_c, 1, 70, 0
1, 72187, Note_on_c, 1, 68, 127
1, 72281, Note_off_c, 1, 64, 0
1, 72281, Note_off_c, 1, 68, 0
1, 72283, Note_on_c, 1, 70, 127
1, 72283, Note_on_c, 1, 63, 127
1, 72377, Note_off_c, 1, 70, 0
1, 72380, Note_on_c, 1, 68, 127
1, 72474, Note_off_c, 1, 63, 0
1, 72474, Note_off_c, 1, 68, 0
1, 72477, Note_on_c, 1, 70, 127
1, 72477, Note_on_c, 1, 64, 127
1, 72571, Note_off_c, 1, 70, 0
1, 72574, Note_on_c, 1, 68, 127
1, 72664, Note_off_c, 1, 64, 0
1, 72668, Note_off_c, 1, 68, 0
1, 72671, Note_on_c, 1, 70, 127
1, 72671, Note_on_c, 1, 59, 127
1, 72765, Note_off_c, 1, 70, 0
1, 72768, Note_on_c, 1, 68, 127
1, 72858, Note_off_c, 1, 59, 0
1, 72862, Note_off_c, 1, 68, 0
1, 72864, Note_on_c, 1, 70, 127
1, 72864, Note_on_c, 1, 64, 127
1, 72958, Note_off_c, 1, 70, 0
1, 72961, Note_on_c, 1, 68, 127
1, 73055, Note_off_c, 1, 68, 0
1, 73252, Note_on_c, 1, 66, 127
1, 73638, Note_off_c, 1, 64, 0
1, 73641, Note_on_c, 1, 63, 127
1, 73641, Note_on_c, 1, 71, 127
1, 74028, Note_off_c, 1, 63, 0
1, 74028, Note_off_c, 1, 71, 0
1, 74030, Note_on_c, 1, 61, 127
1, 74417, Note_off_c, 1, 66, 0
1, 74417, Note_off_c, 1, 61, 0
1, 74420, Note_on_c, 1, 68, 127
1, 74420, Note_on_c, 1, 71, 127
1, 74420, Note_on_c, 1, 59, 127
1, 74611, Note_off_c, 1, 68, 0
1, 74613, Note_on_c, 1, 66, 127
1, 74804, Note_off_c, 1, 66, 0
1, 74805, Note_off_c, 1, 71, 0
1, 74807, Note_on_c, 1, 64, 127
1, 74807, Note_on_c, 1, 73, 127
1, 74998, Note_off_c, 1, 64, 0
1, 75001, Note_on_c, 1, 63, 127
1, 75192, Note_off_c, 1, 59, 0
1, 75192, Note_off_c, 1, 63, 0
1, 75194, Note_on_c, 1, 58, 127
1, 75194, Note_on_c, 1, 61, 127
1, 75385, Note_off_c, 1, 58, 0
1, 75385, Note_off_c, 1, 61, 0
1, 75388, Note_on_c, 1, 56, 127
1, 75579, Note_off_c, 1, 73, 0
1, 75579, Note_off_c, 1, 56, 0
1, 75582, Note_on_c, 1, 66, 127
1, 75582, Note_on_c, 1, 58, 127
1, 75946, Note_off_c, 1, 66, 0
1, 75969, Note_off_c, 1, 58, 0
1, 75971, Note_on_c, 1, 68, 127
1, 75971, Note_on_c, 1, 63, 127
1, 75971, Note_on_c, 1, 66, 127
1, 76162, Note_off_c, 1, 68, 0
1, 76164, Note_on_c, 1, 70, 127
1, 76355, Note_off_c, 1, 70, 0
1, 76356, Note_off_c, 1, 63, 0
1, 76356, Note_off_c, 1, 66, 0
1, 76358, Note_on_c, 1, 71, 127
1, 76358, Note_on_c, 1, 63, 127
1, 76358, Note_on_c, 1, 56, 127
1, 76722, Note_off_c, 1, 71, 0
1, 76745, Note_off_c, 1, 63, 0
1, 76747, Note_on_c, 1, 64, 127
1, 76747, Note_on_c, 1, 73, 127
1, 76938, Note_off_c, 1, 64, 0
1, 76938, Note_off_c, 1, 73, 0
1, 76941, Note_on_c, 1, 66, 127
1, 76941, Note_on_c, 1, 75, 127
1, 77126, Note_off_c, 1, 56, 0
1, 77132, Note_off_c, 1, 66, 0
1, 77132, Note_off_c, 1, 75, 0
1, 77135, Note_on_c, 1, 68, 127
1, 77135, Note_on_c, 1, 76, 127
1, 77326, Note_off_c, 1, 68, 0
1, 77328, Note_on_c, 1, 70, 127
1, 77519, Note_off_c, 1, 70, 0
1, 77520, Note_off_c, 1, 76, 0
1, 77522, Note_on_c, 1, 68, 127
1, 77522, Note_on_c, 1, 75, 127
1, 77522, Note_on_c, 1, 71, 127
1, 77713, Note_off_c, 1, 68, 0
1, 77716, Note_on_c, 1, 66, 127
1, 77845, Note_off_c, 1, 75, 0
1, 77907, Note_off_c, 1, 66, 0
1, 77909, Note_on_c, 1, 64, 127
1, 78144, Note_on_c, 1, 73, 127
1, 78238, Note_off_c, 1, 73, 0
1, 78296, Note_off_c, 1, 71, 0
1, 78296, Note_off_c, 1, 64, 0
1, 78299, Note_on_c, 1, 70, 127
1, 78299, Note_on_c, 1, 61, 127
1, 78490, Note_off_c, 1, 70, 0
1, 78684, Note_off_c, 1, 61, 0
1, 79469, Note_on_c, 1, 63, 127
1, 79856, Note_off_c, 1, 63, 0
1, 79858, Note_on_c, 1, 54, 127
1, 80243, Note_off_c, 1, 54, 0
1, 80245, Note_on_c, 1, 51, 127
1, 80245, Note_on_c, 1, 59, 127
1, 80632, Note_off_c, 1, 51, 0
1, 80632, Note_off_c, 1, 59, 0
1, 80635, Note_on_c, 1, 73, 127
1, 80635, Note_on_c, 1, 52, 127
1, 80635, Note_on_c, 1, 56, 127
1, 80635, Note_on_c, 1, 64, 127
1, 80826, Note_off_c, 1, 73, 0
1, 80828, Note_on_c, 1, 71, 127
1, 81019, Note_off_c, 1, 71, 0
1, 81020, Note_off_c, 1, 52, 0
1, 81020, Note_off_c, 1, 56, 0
1, 81022, Note_on_c, 1, 70, 127
1, 81022, Note_on_c, 1, 54, 127
1, 81213, Note_off_c, 1, 70, 0
1, 81216, Note_on_c, 1, 68, 127
1, 81407, Note_off_c, 1, 64, 0
1, 81407, Note_off_c, 1, 68, 0
1, 81409, Note_on_c, 1, 63, 127
1, 81409, Note_on_c, 1, 66, 127
1, 81600, Note_off_c, 1, 63, 0
1, 81600, Note_off_c, 1, 66, 0
1, 81603, Note_on_c, 1, 61, 127
1, 81794, Note_off_c, 1, 54, 0
1, 81794, Note_off_c, 1, 61, 0
1, 81797, Note_on_c, 1, 47, 127
1, 81797, Note_on_c, 1, 63, 127
1, 81990, Note_on_c, 1, 64, 127
1, 82169, Note_off_c, 1, 47, 0
1, 82181, Note_off_c, 1, 64, 0
1, 82182, Note_off_c, 1, 63, 0
1, 82184, Note_on_c, 1, 51, 127
1, 82184, Note_on_c, 1, 66, 127
1, 82184, Note_on_c, 1, 71, 127
1, 82375, Note_off_c, 1, 51, 0
1, 82375, Note_off_c, 1, 66, 0
1, 82377, Note_on_c, 1, 53, 127
1, 82377, Note_on_c, 1, 68, 127
1, 82568, Note_off_c, 1, 53, 0
1, 82568, Note_off_c, 1, 68, 0
1, 82569, Note_off_c, 1, 71, 0
1, 82571, Note_on_c, 1, 54, 127
1, 82571, Note_on_c, 1, 70, 127
1, 82571, Note_on_c, 1, 61, 127
1, 82945, Note_off_c, 1, 54, 0
1, 82958, Note_off_c, 1, 70, 0
1, 82960, Note_on_c, 1, 56, 127
1, 82960, Note_on_c, 1, 71, 127
1, 83151, Note_off_c, 1, 56, 0
1, 83151, Note_off_c, 1, 71, 0
1, 83154, Note_on_c, 1, 58, 127
1, 83154, Note_on_c, 1, 73, 127
1, 83339, Note_off_c, 1, 61, 0
1, 83345, Note_off_c, 1, 58, 0
1, 83345, Note_off_c, 1, 73, 0
1, 83348, Note_on_c, 1, 75, 127
1, 83348, Note_on_c, 1, 59, 127
1, 83539, Note_off_c, 1, 75, 0
1, 83541, Note_on_c, 1, 77, 127
1, 83732, Note_off_c, 1, 77, 0
1, 83733, Note_off_c, 1, 59, 0
1, 83735, Note_on_c, 1, 75, 127
1, 83735, Note_on_c, 1, 58, 127
1, 83735, Note_on_c, 1, 78, 127
1, 83926, Note_off_c, 1, 75, 0
1, 83929, Note_on_c, 1, 73, 127
1, 84099, Note_off_c, 1, 58, 0
1, 84122, Note_off_c, 1, 73, 0
1, 84124, Note_on_c, 1, 71, 127
1, 84124, Note_on_c, 1, 56, 127
1, 84511, Note_off_c, 1, 78, 0
1, 84511, Note_off_c, 1, 71, 0
1, 84514, Note_on_c, 1, 77, 127
1, 84514, Note_on_c, 1, 68, 127
1, 84705, Note_off_c, 1, 77, 0
1, 84897, Note_off_c, 1, 68, 0
1, 85673, Note_off_c, 1, 56, 0
1, 85676, Note_on_c, 1, 78, 127
1, 85676, Note_on_c, 1, 54, 127
1, 85676, Note_on_c, 1, 70, 127
1, 86063, Note_off_c, 1, 78, 0
1, 86065, Note_on_c, 1, 73, 127
1, 86242, Note_off_c, 1, 54, 0
1, 86256, Note_off_c, 1, 73, 0
1, 86258, Note_on_c, 1, 71, 127
1, 86444, Note_off_c, 1, 70, 0
1, 86449, Note_off_c, 1, 71, 0
1, 86452, Note_on_c, 1, 73, 127
1, 86646, Note_on_c, 1, 68, 127
1, 86837, Note_off_c, 1, 73, 0
1, 86837, Note_off_c, 1, 68, 0
1, 86839, Note_on_c, 1, 66, 127
1, 86839, Note_on_c, 1, 75, 127
1, 87030, Note_off_c, 1, 66, 0
1, 87033, Note_on_c, 1, 64, 127
1, 87224, Note_off_c, 1, 75, 0
1, 87224, Note_off_c, 1, 64, 0
1, 87227, Note_on_c, 1, 63, 127
1, 87227, Note_on_c, 1, 72, 127
1, 87616, Note_on_c, 1, 56, 127
1, 87807, Note_off_c, 1, 56, 0
1, 87810, Note_on_c, 1, 57, 127
1, 88001, Note_off_c, 1, 63, 0
1, 88001, Note_off_c, 1, 72, 0
1, 88001, Note_off_c, 1, 57, 0
1, 88003, Note_on_c, 1, 56, 127
1, 88003, Note_on_c, 1, 64, 127
1, 88003, Note_on_c, 1, 73, 127
1, 88194, Note_off_c, 1, 56, 0
1, 88197, Note_on_c, 1, 54, 127
1, 88388, Note_off_c, 1, 64, 0
1, 88388, Note_off_c, 1, 73, 0
1, 88388, Note_off_c, 1, 54, 0
1, 88391, Note_on_c, 1, 52, 127
1, 88391, Note_on_c, 1, 66, 127
1, 88391, Note_on_c, 1, 75, 127
1, 88582, Note_off_c, 1, 52, 0
1, 88584, Note_on_c, 1, 51, 127
1, 88775, Note_off_c, 1, 51, 0
1, 88776, Note_off_c, 1, 66, 0
1, 88776, Note_off_c, 1, 75, 0
1, 88778, Note_on_c, 1, 76, 127
1, 88778, Note_on_c, 1, 49, 127
1, 88778, Note_on_c, 1, 68, 127
1, 88969, Note_off_c, 1, 76, 0
1, 88972, Note_on_c, 1, 75, 127
1, 89163, Note_off_c, 1, 49, 0
1, 89163, Note_off_c, 1, 75, 0
1, 89165, Note_on_c, 1, 61, 127
1, 89359, Note_on_c, 1, 78, 127
1, 89550, Note_off_c, 1, 61, 0
1, 89550, Note_off_c, 1, 78, 0
1, 89552, Note_on_c, 1, 63, 127
1, 89937, Note_off_c, 1, 63, 0
1, 89940, Note_on_c, 1, 73, 127
1, 89940, Note_on_c, 1, 64, 127
1, 90131, Note_off_c, 1, 73, 0
1, 90133, Note_on_c, 1, 71, 127
1, 90324, Note_off_c, 1, 71, 0
1, 90325, Note_off_c, 1, 68, 0
1, 90325, Note_off_c, 1, 64, 0
1, 90327, Note_on_c, 1, 66, 127
1, 90327, Note_on_c, 1, 70, 127
1, 90714, Note_off_c, 1, 66, 0
1, 90716, Note_on_c, 1, 54, 127
1, 90716, Note_on_c, 1, 61, 127
1, 90907, Note_off_c, 1, 54, 0
1, 90910, Note_on_c, 1, 56, 127
1, 91101, Note_off_c, 1, 70, 0
1, 91101, Note_off_c, 1, 61, 0
1, 91101, Note_off_c, 1, 56, 0
1, 91104, Note_on_c, 1, 54, 127
1, 91104, Note_on_c, 1, 63, 127
1, 91104, Note_on_c, 1, 71, 127
1, 91295, Note_off_c, 1, 54, 0
1, 91297, Note_on_c, 1, 52, 127
1, 91488, Note_off_c, 1, 52, 0
1, 91489, Note_off_c, 1, 63, 0
1, 91489, Note_off_c, 1, 71, 0
1, 91491, Note_on_c, 1, 51, 127
1, 91491, Note_on_c, 1, 64, 127
1, 91491, Note_on_c, 1, 73, 127
1, 91682, Note_off_c, 1, 51, 0
1, 91685, Note_on_c, 1, 49, 127
1, 91876, Note_off_c, 1, 64, 0
1, 91876, Note_off_c, 1, 73, 0
1, 91876, Note_off_c, 1, 49, 0
1, 91878, Note_on_c, 1, 47, 127
1, 91878, Note_on_c, 1, 66, 127
1, 91878, Note_on_c, 1, 75, 127
1, 92069, Note_off_c, 1, 47, 0
1, 92072, Note_on_c, 1, 45, 127
1, 92263, Note_off_c, 1, 66, 0
1, 92263, Note_off_c, 1, 75, 0
1, 92263, Note_off_c, 1, 45, 0
1, 92265, Note_on_c, 1, 47, 127
1, 92265, Note_on_c, 1, 71, 127
1, 92265, Note_on_c, 1, 75, 127
1, 92456, Note_off_c, 1, 47, 0
1, 92459, Note_on_c, 1, 49, 127
1, 92650, Note_off_c, 1, 71, 0
1, 92650, Note_off_c, 1, 75, 0
1, 92650, Note_off_c, 1, 49, 0
1, 92653, Note_on_c, 1, 47, 127
1, 92653, Note_on_c, 1, 73, 127
1, 92653, Note_on_c, 1, 76, 127
1, 92844, Note_off_c, 1, 47, 0
1, 92846, Note_on_c, 1, 45, 127
1, 93037, Note_off_c, 1, 45, 0
1, 93038, Note_off_c, 1, 73, 0
1, 93038, Note_off_c, 1, 76, 0
1, 93040, Note_on_c, 1, 44, 127
1, 93040, Note_on_c, 1, 75, 127
1, 93040, Note_on_c, 1, 78, 127
1, 93231, Note_off_c, 1, 44, 0
1, 93234, Note_on_c, 1, 42, 127
1, 93425, Note_off_c, 1, 75, 0
1, 93425, Note_off_c, 1, 78, 0
1, 93425, Note_off_c, 1, 42, 0
1, 93427, Note_on_c, 1, 80, 127
1, 93427, Note_on_c, 1, 40, 127
1, 93427, Note_on_c, 1, 76, 127
1, 93618, Note_off_c, 1, 80, 0
1, 93621, Note_on_c, 1, 81, 127
1, 93791, Note_off_c, 1, 40, 0
1, 93814, Note_off_c, 1, 81, 0
1, 93817, Note_on_c, 1, 59, 127
1, 93993, Note_off_c, 1, 76, 0
1, 94010, Note_on_c, 1, 78, 127
1, 94201, Note_off_c, 1, 78, 0
1, 94202, Note_off_c, 1, 59, 0
1, 94204, Note_on_c, 1, 76, 127
1, 94204, Note_on_c, 1, 58, 127
1, 94395, Note_off_c, 1, 76, 0
1, 94398, Note_on_c, 1, 75, 127
1, 94589, Note_off_c, 1, 58, 0
1, 94589, Note_off_c, 1, 75, 0
1, 94591, Note_on_c, 1, 73, 127
1, 94591, Note_on_c, 1, 59, 127
1, 94782, Note_off_c, 1, 73, 0
1, 94785, Note_on_c, 1, 71, 127
1, 94976, Note_off_c, 1, 59, 0
1, 94976, Note_off_c, 1, 71, 0
1, 94978, Note_on_c, 1, 70, 127
1, 94978, Note_on_c, 1, 61, 127
1, 95365, Note_off_c, 1, 70, 0
1, 95368, Note_on_c, 1, 71, 127
1, 95368, Note_on_c, 1, 52, 127
1, 95559, Note_off_c, 1, 71, 0
1, 95561, Note_on_c, 1, 73, 127
1, 95752, Note_off_c, 1, 61, 0
1, 95752, Note_off_c, 1, 73, 0
1, 95753, Note_off_c, 1, 52, 0
1, 95755, Note_on_c, 1, 51, 127
1, 95755, Note_on_c, 1, 54, 127
1, 95755, Note_on_c, 1, 75, 127
1, 96142, Note_off_c, 1, 51, 0
1, 96142, Note_off_c, 1, 54, 0
1, 96142, Note_off_c, 1, 75, 0
1, 96144, Note_on_c, 1, 52, 127
1, 96144, Note_on_c, 1, 56, 127
1, 96144, Note_on_c, 1, 66, 127
1, 96144, Note_on_c, 1, 73, 127
1, 96335, Note_off_c, 1, 52, 0
1, 96335, Note_off_c, 1, 56, 0
1, 96338, Note_on_c, 1, 54, 127
1, 96338, Note_on_c, 1, 58, 127
1, 96529, Note_off_c, 1, 66, 0
1, 96529, Note_off_c, 1, 73, 0
1, 96529, Note_off_c, 1, 54, 0
1, 96529, Note_off_c, 1, 58, 0
1, 96532, Note_on_c, 1, 59, 127
1, 96532, Note_on_c, 1, 63, 127
1, 96532, Note_on_c, 1, 71, 127
1, 96532, Note_on_c, 1, 56, 127
1, 96919, Note_off_c, 1, 59, 0
1, 96919, Note_off_c, 1, 63, 0
1, 96921, Note_on_c, 1, 61, 127
1, 96921, Note_on_c, 1, 64, 127
1, 97112, Note_off_c, 1, 61, 0
1, 97112, Note_off_c, 1, 64, 0
1, 97115, Note_on_c, 1, 66, 127
1, 97306, Note_off_c, 1, 66, 0
1, 97308, Note_on_c, 1, 68, 127
1, 97499, Note_off_c, 1, 68, 0
1, 97500, Note_off_c, 1, 71, 0
1, 97502, Note_on_c, 1, 70, 127
1, 97502, Note_on_c, 1, 73, 127
1, 97693, Note_off_c, 1, 56, 0
1, 97693, Note_off_c, 1, 70, 0
1, 97693, Note_off_c, 1, 73, 0
1, 97696, Note_on_c, 1, 54, 127
1, 97696, Note_on_c, 1, 63, 127
1, 97696, Note_on_c, 1, 75, 127
1, 97696, Note_on_c, 1, 71, 127
1, 98083, Note_off_c, 1, 54, 0
1, 98083, Note_off_c, 1, 63, 0
1, 98083, Note_off_c, 1, 75, 0
1, 98085, Note_on_c, 1, 76, 127
1, 98085, Note_on_c, 1, 52, 127
1, 98085, Note_on_c, 1, 61, 127
1, 98276, Note_off_c, 1, 76, 0
1, 98279, Note_on_c, 1, 78, 127
1, 98470, Note_off_c, 1, 71, 0
1, 98470, Note_off_c, 1, 78, 0
1, 98472, Note_on_c, 1, 70, 127
1, 98472, Note_on_c, 1, 80, 127
1, 98663, Note_off_c, 1, 70, 0
1, 98666, Note_on_c, 1, 68, 127
1, 98857, Note_off_c, 1, 52, 0
1, 98857, Note_off_c, 1, 68, 0
1, 99246, Note_off_c, 1, 80, 0
1, 99634, Note_off_c, 1, 61, 0
1, 99636, Note_on_c, 1, 59, 127
1, 100025, Note_on_c, 1, 47, 127
1, 100202, Note_off_c, 1, 59, 0
1, 100216, Note_off_c, 1, 47, 0
1, 100219, Note_on_c, 1, 46, 127
1, 100219, Note_on_c, 1, 67, 127
1, 100410, Note_off_c, 1, 46, 0
1, 100410, Note_off_c, 1, 67, 0
1, 100413, Note_on_c, 1, 47, 127
1, 100413, Note_on_c, 1, 68, 127
1, 100606, Note_on_c, 1, 75, 127
1, 100797, Note_off_c, 1, 75, 0
1, 100798, Note_off_c, 1, 47, 0
1, 100798, Note_off_c, 1, 68, 0
1, 100800, Note_on_c, 1, 73, 127
1, 100800, Note_on_c, 1, 49, 127
1, 100800, Note_on_c, 1, 70, 127
1, 100991, Note_off_c, 1, 73, 0
1, 100994, Note_on_c, 1, 71, 127
1, 101185, Note_off_c, 1, 49, 0
1, 101185, Note_off_c, 1, 70, 0
1, 101185, Note_off_c, 1, 71, 0
1, 101187, Note_on_c, 1, 67, 127
1, 101187, Note_on_c, 1, 70, 127
1, 101187, Note_on_c, 1, 51, 127
1, 101577, Note_on_c, 1, 63, 127
1, 101768, Note_off_c, 1, 63, 0
1, 101770, Note_on_c, 1, 64, 127
1, 101961, Note_off_c, 1, 67, 0
1, 101961, Note_off_c, 1, 70, 0
1, 101961, Note_off_c, 1, 64, 0
1, 101964, Note_on_c, 1, 68, 127
1, 101964, Note_on_c, 1, 71, 127
1, 102158, Note_on_c, 1, 61, 127
1, 102348, Note_off_c, 1, 51, 0
1, 102349, Note_off_c, 1, 68, 0
1, 102349, Note_off_c, 1, 71, 0
1, 102349, Note_off_c, 1, 61, 0
1, 102351, Note_on_c, 1, 59, 127
1, 102351, Note_on_c, 1, 49, 127
1, 102351, Note_on_c, 1, 70, 127
1, 102351, Note_on_c, 1, 73, 127
1, 102542, Note_off_c, 1, 59, 0
1, 102545, Note_on_c, 1, 58, 127
1, 102736, Note_off_c, 1, 49, 0
1, 102736, Note_off_c, 1, 70, 0
1, 102736, Note_off_c, 1, 73, 0
1, 102736, Note_off_c, 1, 58, 0
1, 102738, Note_on_c, 1, 71, 127
1, 102738, Note_on_c, 1, 47, 127
1, 102738, Note_on_c, 1, 56, 127
1, 102738, Note_on_c, 1, 75, 127
1, 102929, Note_off_c, 1, 71, 0
1, 102932, Note_on_c, 1, 70, 127
1, 103123, Note_off_c, 1, 47, 0
1, 103123, Note_off_c, 1, 70, 0
1, 103126, Note_on_c, 1, 44, 127
1, 103319, Note_on_c, 1, 73, 127
1, 103510, Note_off_c, 1, 73, 0
1, 103511, Note_off_c, 1, 44, 0
1, 103513, Note_on_c, 1, 46, 127
1, 103898, Note_off_c, 1, 46, 0
1, 103900, Note_on_c, 1, 68, 127
1, 104091, Note_off_c, 1, 68, 0
1, 104094, Note_on_c, 1, 66, 127
1, 104285, Note_off_c, 1, 66, 0
1, 104288, Note_on_c, 1, 65, 127
1, 104288, Note_on_c, 1, 49, 127
1, 104674, Note_off_c, 1, 56, 0
1, 104674, Note_off_c, 1, 75, 0
1, 104677, Note_on_c, 1, 61, 127
1, 104868, Note_off_c, 1, 61, 0
1, 104871, Note_on_c, 1, 63, 127
1, 105062, Note_off_c, 1, 65, 0
1, 105062, Note_off_c, 1, 63, 0
1, 105258, Note_on_c, 1, 59, 127
1, 105449, Note_off_c, 1, 49, 0
1, 105449, Note_off_c, 1, 59, 0
1, 105452, Note_on_c, 1, 58, 127
1, 105452, Note_on_c, 1, 47, 127
1, 105452, Note_on_c, 1, 68, 127
1, 105452, Note_on_c, 1, 71, 127
1, 105643, Note_off_c, 1, 58, 0
1, 105645, Note_on_c, 1, 56, 127
1, 105836, Note_off_c, 1, 56, 0
1, 105837, Note_off_c, 1, 47, 0
1, 105837, Note_off_c, 1, 68, 0
1, 105837, Note_off_c, 1, 71, 0
1, 105839, Note_on_c, 1, 54, 127
1, 105839, Note_on_c, 1, 70, 127
1, 105839, Note_on_c, 1, 73, 127
1, 105839, Note_on_c, 1, 46, 127
1, 106030, Note_off_c, 1, 54, 0
1, 106032, Note_on_c, 1, 52, 127
1, 106223, Note_off_c, 1, 52, 0
1, 106224, Note_off_c, 1, 70, 0
1, 106224, Note_off_c, 1, 73, 0
1, 106226, Note_on_c, 1, 61, 127
1, 106420, Note_on_c, 1, 56, 127
1, 106611, Note_off_c, 1, 61, 0
1, 106611, Note_off_c, 1, 56, 0
1, 106613, Note_on_c, 1, 63, 127
1, 106613, Note_on_c, 1, 71, 127
1, 106998, Note_off_c, 1, 63, 0
1, 106998, Note_off_c, 1, 71, 0
1, 107001, Note_on_c, 1, 51, 127
1, 107001, Note_on_c, 1, 64, 127
1, 107192, Note_off_c, 1, 51, 0
1, 107194, Note_on_c, 1, 49, 127
1, 107385, Note_off_c, 1, 49, 0
1, 107386, Note_off_c, 1, 46, 0
1, 107386, Note_off_c, 1, 64, 0
1, 107388, Note_on_c, 1, 47, 127
1, 107388, Note_on_c, 1, 66, 127
1, 107388, Note_on_c, 1, 75, 127
1, 107575, Note_off_c, 1, 47, 0
1, 107582, Note_on_c, 1, 46, 127
1, 107773, Note_off_c, 1, 66, 0
1, 107773, Note_off_c, 1, 46, 0
1, 107969, Note_on_c, 1, 49, 127
1, 108160, Note_off_c, 1, 49, 0
1, 108162, Note_on_c, 1, 65, 127
1, 108547, Note_off_c, 1, 65, 0
1, 108550, Note_on_c, 1, 44, 127
1, 108741, Note_off_c, 1, 44, 0
1, 108743, Note_on_c, 1, 42, 127
1, 108934, Note_off_c, 1, 42, 0
1, 108935, Note_off_c, 1, 75, 0
1, 108937, Note_on_c, 1, 41, 127
1, 108937, Note_on_c, 1, 68, 127
1, 108937, Note_on_c, 1, 73, 127
1, 109324, Note_off_c, 1, 41, 0
1, 109326, Note_on_c, 1, 53, 127
1, 109326, Note_on_c, 1, 59, 127
1, 109713, Note_off_c, 1, 68, 0
1, 109713, Note_off_c, 1, 53, 0
1, 109713, Note_off_c, 1, 59, 0
1, 109716, Note_on_c, 1, 54, 127
1, 109716, Note_on_c, 1, 58, 127
1, 109716, Note_on_c, 1, 61, 127
1, 110103, Note_off_c, 1, 54, 0
1, 110103, Note_off_c, 1, 58, 0
1, 110103, Note_off_c, 1, 61, 0
1, 110105, Note_on_c, 1, 63, 127
1, 110105, Note_on_c, 1, 56, 127
1, 110296, Note_off_c, 1, 63, 0
1, 110299, Note_on_c, 1, 65, 127
1, 110490, Note_off_c, 1, 56, 0
1, 110490, Note_off_c, 1, 65, 0
1, 110492, Note_on_c, 1, 66, 127
1, 110492, Note_on_c, 1, 51, 127
1, 110879, Note_off_c, 1, 73, 0
1, 110879, Note_off_c, 1, 66, 0
1, 110882, Note_on_c, 1, 71, 127
1, 111073, Note_off_c, 1, 71, 0
1, 111075, Note_on_c, 1, 70, 127
1, 111266, Note_off_c, 1, 70, 0
1, 111269, Note_on_c, 1, 75, 127
1, 111460, Note_off_c, 1, 75, 0
1, 111463, Note_on_c, 1, 77, 127
1, 111653, Note_off_c, 1, 51, 0
1, 111654, Note_off_c, 1, 77, 0
1, 111656, Note_on_c, 1, 54, 127
1, 111656, Note_on_c, 1, 49, 127
1, 111656, Note_on_c, 1, 70, 127
1, 111656, Note_on_c, 1, 78, 127
1, 111847, Note_off_c, 1, 54, 0
1, 111850, Note_on_c, 1, 53, 127
1, 112041, Note_off_c, 1, 49, 0
1, 112041, Note_off_c, 1, 70, 0
1, 112041, Note_off_c, 1, 53, 0
1, 112044, Note_on_c, 1, 51, 127
1, 112044, Note_on_c, 1, 47, 127
1, 112044, Note_on_c, 1, 68, 127
1, 112234, Note_off_c, 1, 78, 0
1, 112235, Note_off_c, 1, 51, 0
1, 112237, Note_on_c, 1, 77, 127
1, 112428, Note_off_c, 1, 77, 0
1, 112429, Note_off_c, 1, 47, 0
1, 112431, Note_on_c, 1, 44, 127
1, 112624, Note_on_c, 1, 80, 127
1, 112815, Note_off_c, 1, 80, 0
1, 112816, Note_off_c, 1, 44, 0
1, 113010, Note_off_c, 1, 68, 0
1, 113207, Note_on_c, 1, 37, 127
1, 113207, Note_on_c, 1, 71, 127
1, 113592, Note_off_c, 1, 37, 0
1, 113592, Note_off_c, 1, 71, 0
1, 113595, Note_on_c, 1, 42, 127
1, 114161, Note_off_c, 1, 42, 0
1, 114178, Note_on_c, 1, 52, 127
1, 114369, Note_off_c, 1, 52, 0
1, 114371, Note_on_c, 1, 54, 127
1, 114371, Note_on_c, 1, 72, 127
1, 114371, Note_on_c, 1, 80, 127
1, 114562, Note_off_c, 1, 54, 0
1, 114565, Note_on_c, 1, 56, 127
1, 114756, Note_off_c, 1, 72, 0
1, 114756, Note_off_c, 1, 80, 0
1, 114756, Note_off_c, 1, 56, 0
1, 114759, Note_on_c, 1, 58, 127
1, 114759, Note_on_c, 1, 78, 127
1, 114759, Note_on_c, 1, 75, 127
1, 114950, Note_off_c, 1, 58, 0
1, 114952, Note_on_c, 1, 60, 127
1, 115143, Note_off_c, 1, 60, 0
1, 115144, Note_off_c, 1, 78, 0
1, 115146, Note_on_c, 1, 61, 127
1, 115146, Note_on_c, 1, 76, 127
1, 115533, Note_off_c, 1, 75, 0
1, 115533, Note_off_c, 1, 61, 0
1, 115535, Note_on_c, 1, 59, 127
1, 115535, Note_on_c, 1, 73, 127
1, 115726, Note_off_c, 1, 59, 0
1, 115918, Note_off_c, 1, 73, 0
1, 115920, Note_off_c, 1, 76, 0
1, 115922, Note_on_c, 1, 56, 127
1, 115922, Note_on_c, 1, 83, 127
1, 116113, Note_off_c, 1, 56, 0
1, 116116, Note_on_c, 1, 54, 127
1, 116307, Note_off_c, 1, 83, 0
1, 116307, Note_off_c, 1, 54, 0
1, 116310, Note_on_c, 1, 56, 127
1, 116310, Note_on_c, 1, 82, 127
1, 116501, Note_off_c, 1, 56, 0
1, 116501, Note_off_c, 1, 82, 0
1, 116503, Note_on_c, 1, 58, 127
1, 116503, Note_on_c, 1, 80, 127
1, 116694, Note_off_c, 1, 58, 0
1, 116694, Note_off_c, 1, 80, 0
1, 116697, Note_on_c, 1, 78, 127
1, 116697, Note_on_c, 1, 59, 127
1, 116891, Note_on_c, 1, 63, 127
1, 117082, Note_off_c, 1, 78, 0
1, 117082, Note_off_c, 1, 63, 0
1, 117084, Note_on_c, 1, 64, 127
1, 117084, Note_on_c, 1, 76, 127
1, 117275, Note_off_c, 1, 64, 0
1, 117275, Note_off_c, 1, 76, 0
1, 117278, Note_on_c, 1, 66, 127
1, 117278, Note_on_c, 1, 75, 127
1, 117469, Note_off_c, 1, 66, 0
1, 117469, Note_off_c, 1, 75, 0
1, 117472, Note_on_c, 1, 68, 127
1, 117472, Note_on_c, 1, 73, 127
1, 117663, Note_off_c, 1, 68, 0
1, 117836, Note_off_c, 1, 73, 0
1, 118250, Note_on_c, 1, 61, 127
1, 118441, Note_off_c, 1, 59, 0
1, 118638, Note_on_c, 1, 58, 127
1, 118829, Note_off_c, 1, 58, 0
1, 118831, Note_on_c, 1, 56, 127
1, 119022, Note_off_c, 1, 61, 0
1, 119022, Note_off_c, 1, 56, 0
1, 119025, Note_on_c, 1, 54, 127
1, 119216, Note_off_c, 1, 54, 0
1, 119218, Note_on_c, 1, 52, 127
1, 119409, Note_off_c, 1, 52, 0
1, 119412, Note_on_c, 1, 51, 127
1, 119603, Note_off_c, 1, 51, 0
1, 119606, Note_on_c, 1, 49, 127
1, 119797, Note_off_c, 1, 49, 0
1, 119799, Note_on_c, 1, 47, 127
1, 119990, Note_off_c, 1, 47, 0
1, 120187, Note_on_c, 1, 71, 127
1, 120572, Note_off_c, 1, 71, 0
1, 120574, Note_on_c, 1, 54, 127
1, 120574, Note_on_c, 1, 75, 127
1, 120765, Note_off_c, 1, 54, 0
1, 120768, Note_on_c, 1, 56, 127
1, 120959, Note_off_c, 1, 75, 0
1, 120959, Note_off_c, 1, 56, 0
1, 120961, Note_on_c, 1, 58, 127
1, 120961, Note_on_c, 1, 73, 127
1, 120961, Note_on_c, 1, 78, 127
1, 121152, Note_off_c, 1, 58, 0
1, 121155, Note_on_c, 1, 54, 127
1, 121346, Note_off_c, 1, 73, 0
1, 121346, Note_off_c, 1, 54, 0
1, 121349, Note_on_c, 1, 56, 127
1, 121349, Note_on_c, 1, 71, 127
1, 121539, Note_off_c, 1, 78, 0
1, 121540, Note_off_c, 1, 56, 0
1, 121542, Note_on_c, 1, 49, 127
1, 121542, Note_on_c, 1, 77, 127
1, 121733, Note_off_c, 1, 49, 0
1, 121733, Note_off_c, 1, 77, 0
1, 121736, Note_on_c, 1, 51, 127
1, 121927, Note_off_c, 1, 51, 0
1, 121929, Note_on_c, 1, 53, 127
1, 121929, Note_on_c, 1, 80, 127
1, 122120, Note_off_c, 1, 53, 0
1, 122120, Note_off_c, 1, 80, 0
1, 122121, Note_off_c, 1, 71, 0
1, 122123, Note_on_c, 1, 54, 127
1, 122123, Note_on_c, 1, 82, 127
1, 122123, Note_on_c, 1, 78, 127
1, 122314, Note_off_c, 1, 54, 0
1, 122314, Note_off_c, 1, 82, 0
1, 122317, Note_on_c, 1, 47, 127
1, 122317, Note_on_c, 1, 80, 127
1, 122508, Note_off_c, 1, 78, 0
1, 122508, Note_off_c, 1, 47, 0
1, 122508, Note_off_c, 1, 80, 0
1, 122510, Note_on_c, 1, 77, 127
1, 122510, Note_on_c, 1, 82, 127
1, 122510, Note_on_c, 1, 59, 127
1, 122701, Note_off_c, 1, 77, 0
1, 122701, Note_off_c, 1, 82, 0
1, 122704, Note_on_c, 1, 75, 127
1, 122704, Note_on_c, 1, 83, 127
1, 122895, Note_off_c, 1, 75, 0
1, 122895, Note_off_c, 1, 83, 0
1, 122898, Note_on_c, 1, 73, 127
1, 123088, Note_off_c, 1, 59, 0
1, 123091, Note_on_c, 1, 58, 127
1, 123282, Note_off_c, 1, 58, 0
1, 123283, Note_off_c, 1, 73, 0
1, 123285, Note_on_c, 1, 71, 127
1, 123476, Note_off_c, 1, 71, 0
1, 123479, Note_on_c, 1, 61, 127
1, 123479, Note_on_c, 1, 70, 127
1, 123670, Note_off_c, 1, 61, 0
1, 123670, Note_off_c, 1, 70, 0
1, 123672, Note_on_c, 1, 63, 127
1, 123672, Note_on_c, 1, 68, 127
1, 123672, Note_on_c, 1, 78, 127
1, 123863, Note_off_c, 1, 63, 0
1, 123866, Note_on_c, 1, 61, 127
1, 124057, Note_off_c, 1, 68, 0
1, 124057, Note_off_c, 1, 61, 0
1, 124059, Note_on_c, 1, 59, 127
1, 124059, Note_on_c, 1, 70, 127
1, 124250, Note_off_c, 1, 59, 0
1, 124253, Note_on_c, 1, 58, 127
1, 124444, Note_off_c, 1, 70, 0
1, 124444, Note_off_c, 1, 58, 0
1, 124447, Note_on_c, 1, 71, 127
1, 124447, Note_on_c, 1, 56, 127
1, 124833, Note_off_c, 1, 78, 0
1, 124836, Note_on_c, 1, 76, 127
1, 124836, Note_on_c, 1, 47, 127
1, 125027, Note_off_c, 1, 76, 0
1, 125030, Note_on_c, 1, 75, 127
1, 125215, Note_off_c, 1, 71, 0
1, 125221, Note_off_c, 1, 47, 0
1, 125221, Note_off_c, 1, 75, 0
1, 125223, Note_on_c, 1, 73, 127
1, 125223, Note_on_c, 1, 46, 127
1, 125414, Note_off_c, 1, 73, 0
1, 125608, Note_off_c, 1, 46, 0
1, 125998, Note_on_c, 1, 49, 127
1, 126383, Note_off_c, 1, 56, 0
1, 126385, Note_on_c, 1, 54, 127
1, 126385, Note_on_c, 1, 80, 127
1, 126576, Note_off_c, 1, 54, 0
1, 126579, Note_on_c, 1, 52, 127
1, 126770, Note_off_c, 1, 49, 0
1, 126770, Note_off_c, 1, 52, 0
1, 126773, Note_on_c, 1, 42, 127
1, 126963, Note_off_c, 1, 80, 0
1, 127158, Note_off_c, 1, 42, 0
1, 127160, Note_on_c, 1, 44, 127
1, 127351, Note_off_c, 1, 44, 0
1, 128128, Note_on_c, 1, 51, 127
1, 128319, Note_off_c, 1, 51, 0
1, 128709, Note_on_c, 1, 66, 127
1, 129094, Note_off_c, 1, 66, 0
1, 129096, Note_on_c, 1, 64, 127
1, 130451, Note_off_c, 1, 64, 0
1, 131035, Note_on_c, 1, 59, 127
1, 131035, Note_on_c, 1, 75, 127
1, 131035, Note_on_c, 1, 71, 127
1, 131226, Note_off_c, 1, 59, 0
1, 131226, Note_off_c, 1, 75, 0
1, 131228, Note_on_c, 1, 61, 127
1, 131228, Note_on_c, 1, 76, 127
1, 131419, Note_off_c, 1, 61, 0
1, 131419, Note_off_c, 1, 76, 0
1, 131422, Note_on_c, 1, 78, 127
1, 131613, Note_off_c, 1, 78, 0
1, 131616, Note_on_c, 1, 57, 127
1, 131616, Note_on_c, 1, 80, 127
1, 131807, Note_off_c, 1, 71, 0
1, 131807, Note_off_c, 1, 57, 0
1, 131807, Note_off_c, 1, 80, 0
1, 131809, Note_on_c, 1, 56, 127
1, 131809, Note_on_c, 1, 73, 127
1, 131809, Note_on_c, 1, 81, 127
1, 132000, Note_off_c, 1, 56, 0
1, 132000, Note_off_c, 1, 73, 0
1, 132003, Note_on_c, 1, 54, 127
1, 132003, Note_on_c, 1, 75, 127
1, 132194, Note_off_c, 1, 54, 0
1, 132194, Note_off_c, 1, 75, 0
1, 132196, Note_on_c, 1, 76, 127
1, 132196, Note_on_c, 1, 52, 127
1, 132387, Note_off_c, 1, 81, 0
1, 132390, Note_on_c, 1, 80, 127
1, 132581, Note_off_c, 1, 80, 0
1, 132584, Note_on_c, 1, 64, 127
1, 132962, Note_off_c, 1, 76, 0
1, 132968, Note_off_c, 1, 52, 0
1, 132969, Note_off_c, 1, 64, 0
1, 132971, Note_on_c, 1, 78, 127
1, 132971, Note_on_c, 1, 63, 127
1, 132971, Note_on_c, 1, 57, 127
1, 133162, Note_off_c, 1, 78, 0
1, 133165, Note_on_c, 1, 76, 127
1, 133356, Note_off_c, 1, 63, 0
1, 133356, Note_off_c, 1, 76, 0
1, 133358, Note_on_c, 1, 75, 127
1, 133358, Note_on_c, 1, 64, 127
1, 133549, Note_off_c, 1, 75, 0
1, 133552, Note_on_c, 1, 73, 127
1, 133743, Note_off_c, 1, 57, 0
1, 133743, Note_off_c, 1, 64, 0
1, 133743, Note_off_c, 1, 73, 0
1, 133746, Note_on_c, 1, 51, 127
1, 133746, Note_on_c, 1, 72, 127
1, 133746, Note_on_c, 1, 66, 127
1, 133937, Note_off_c, 1, 51, 0
1, 133939, Note_on_c, 1, 61, 127
1, 134130, Note_off_c, 1, 61, 0
1, 134131, Note_off_c, 1, 72, 0
1, 134133, Note_on_c, 1, 60, 127
1, 134133, Note_on_c, 1, 73, 127
1, 134324, Note_off_c, 1, 60, 0
1, 134327, Note_on_c, 1, 58, 127
1, 134518, Note_off_c, 1, 66, 0
1, 134518, Note_off_c, 1, 73, 0
1, 134518, Note_off_c, 1, 58, 0
1, 134520, Note_on_c, 1, 56, 127
1, 134520, Note_on_c, 1, 60, 127
1, 134520, Note_on_c, 1, 75, 127
1, 134711, Note_off_c, 1, 56, 0
1, 134714, Note_on_c, 1, 54, 127
1, 134905, Note_off_c, 1, 60, 0
1, 134905, Note_off_c, 1, 54, 0
1, 134907, Note_on_c, 1, 52, 127
1, 134907, Note_on_c, 1, 61, 127
1, 135098, Note_off_c, 1, 52, 0
1, 135098, Note_off_c, 1, 61, 0
1, 135101, Note_on_c, 1, 51, 127
1, 135101, Note_on_c, 1, 63, 127
1, 135292, Note_off_c, 1, 51, 0
1, 135292, Note_off_c, 1, 63, 0
1, 135295, Note_on_c, 1, 49, 127
1, 135295, Note_on_c, 1, 64, 127
1, 135486, Note_off_c, 1, 49, 0
1, 135488, Note_on_c, 1, 47, 127
1, 135679, Note_off_c, 1, 75, 0
1, 135679, Note_off_c, 1, 47, 0
1, 135680, Note_off_c, 1, 64, 0
1, 135682, Note_on_c, 1, 45, 127
1, 135682, Note_on_c, 1, 66, 127
1, 135682, Note_on_c, 1, 73, 127
1, 135873, Note_off_c, 1, 45, 0
1, 135873, Note_off_c, 1, 66, 0
1, 135873, Note_off_c, 1, 73, 0
1, 135876, Note_on_c, 1, 44, 127
1, 135876, Note_on_c, 1, 68, 127
1, 135876, Note_on_c, 1, 72, 127
1, 136067, Note_off_c, 1, 44, 0
1, 136067, Note_off_c, 1, 68, 0
1, 136067, Note_off_c, 1, 72, 0
1, 136069, Note_on_c, 1, 42, 127
1, 136069, Note_on_c, 1, 69, 127
1, 136069, Note_on_c, 1, 73, 127
1, 136260, Note_off_c, 1, 42, 0
1, 136263, Note_on_c, 1, 40, 127
1, 136454, Note_off_c, 1, 69, 0
1, 136454, Note_off_c, 1, 40, 0
1, 136457, Note_on_c, 1, 39, 127
1, 136457, Note_on_c, 1, 68, 127
1, 136648, Note_off_c, 1, 39, 0
1, 136650, Note_on_c, 1, 37, 127
1, 136841, Note_off_c, 1, 37, 0
1, 136842, Note_off_c, 1, 68, 0
1, 136844, Note_on_c, 1, 66, 127
1, 137035, Note_off_c, 1, 73, 0
1, 137037, Note_on_c, 1, 76, 127
1, 137228, Note_off_c, 1, 76, 0
1, 137231, Note_on_c, 1, 75, 127
1, 137422, Note_off_c, 1, 75, 0
1, 137618, Note_on_c, 1, 44, 127
1, 137618, Note_on_c, 1, 72, 127
1, 137810, Note_off_c, 1, 66, 0
1, 138003, Note_off_c, 1, 44, 0
1, 138390, Note_off_c, 1, 72, 0
1, 138393, Note_on_c, 1, 73, 127
1, 138393, Note_on_c, 1, 37, 127
1, 138393, Note_on_c, 1, 64, 127
1, 138780, Note_off_c, 1, 73, 0
1, 138798, Note_on_c, 1, 68, 127
1, 138989, Note_off_c, 1, 68, 0
1, 138992, Note_on_c, 1, 66, 127
1, 139161, Note_off_c, 1, 37, 0
1, 139161, Note_off_c, 1, 64, 0
1, 139183, Note_off_c, 1, 66, 0
1, 139186, Note_on_c, 1, 68, 127
1, 139379, Note_on_c, 1, 61, 127
1, 139570, Note_off_c, 1, 61, 0
1, 139571, Note_off_c, 1, 68, 0
1, 139573, Note_on_c, 1, 59, 127
1, 139573, Note_on_c, 1, 69, 127
1, 139764, Note_off_c, 1, 59, 0
1, 139767, Note_on_c, 1, 57, 127
1, 139958, Note_off_c, 1, 69, 0
1, 139958, Note_off_c, 1, 57, 0
1, 139960, Note_on_c, 1, 65, 127
1, 139960, Note_on_c, 1, 56, 127
1, 140349, Note_on_c, 1, 49, 127
1, 140540, Note_off_c, 1, 49, 0
1, 140543, Note_on_c, 1, 50, 127
1, 140734, Note_off_c, 1, 65, 0
1, 140734, Note_off_c, 1, 56, 0
1, 140734, Note_off_c, 1, 50, 0
1, 140737, Note_on_c, 1, 49, 127
1, 140737, Note_on_c, 1, 66, 127
1, 140737, Note_on_c, 1, 57, 127
1, 140928, Note_off_c, 1, 49, 0
1, 140930, Note_on_c, 1, 47, 127
1, 141121, Note_off_c, 1, 47, 0
1, 141122, Note_off_c, 1, 66, 0
1, 141122, Note_off_c, 1, 57, 0
1, 141124, Note_on_c, 1, 45, 127
1, 141124, Note_on_c, 1, 68, 127
1, 141124, Note_on_c, 1, 59, 127
1, 141315, Note_off_c, 1, 45, 0
1, 141318, Note_on_c, 1, 44, 127
1, 141509, Note_off_c, 1, 68, 0
1, 141509, Note_off_c, 1, 59, 0
1, 141509, Note_off_c, 1, 44, 0
1, 141511, Note_on_c, 1, 69, 127
1, 141511, Note_on_c, 1, 42, 127
1, 141511, Note_on_c, 1, 61, 127
1, 141702, Note_off_c, 1, 69, 0
1, 141705, Note_on_c, 1, 68, 127
1, 141896, Note_off_c, 1, 42, 0
1, 141896, Note_off_c, 1, 68, 0
1, 141899, Note_on_c, 1, 54, 127
1, 142092, Note_on_c, 1, 71, 127
1, 142283, Note_off_c, 1, 71, 0
1, 142284, Note_off_c, 1, 54, 0
1, 142286, Note_on_c, 1, 56, 127
1, 142671, Note_off_c, 1, 56, 0
1, 142673, Note_on_c, 1, 66, 127
1, 142673, Note_on_c, 1, 57, 127
1, 142864, Note_off_c, 1, 66, 0
1, 142867, Note_on_c, 1, 64, 127
1, 143058, Note_off_c, 1, 57, 0
1, 143058, Note_off_c, 1, 64, 0
1, 143060, Note_on_c, 1, 59, 127
1, 143060, Note_on_c, 1, 63, 127
1, 143447, Note_off_c, 1, 61, 0
1, 143447, Note_off_c, 1, 59, 0
1, 143450, Note_on_c, 1, 47, 127
1, 143641, Note_off_c, 1, 47, 0
1, 143643, Note_on_c, 1, 49, 127
1, 143834, Note_off_c, 1, 63, 0
1, 143834, Note_off_c, 1, 49, 0
1, 143837, Note_on_c, 1, 47, 127
1, 143837, Note_on_c, 1, 64, 127
1, 143837, Note_on_c, 1, 56, 127
1, 144028, Note_off_c, 1, 47, 0
1, 144031, Note_on_c, 1, 45, 127
1, 144222, Note_off_c, 1, 64, 0
1, 144222, Note_off_c, 1, 56, 0
1, 144222, Note_off_c, 1, 45, 0
1, 144224, Note_on_c, 1, 44, 127
1, 144224, Note_on_c, 1, 66, 127
1, 144224, Note_on_c, 1, 57, 127
1, 144415, Note_off_c, 1, 44, 0
1, 144418, Note_on_c, 1, 42, 127
1, 144609, Note_off_c, 1, 66, 0
1, 144609, Note_off_c, 1, 57, 0
1, 144609, Note_off_c, 1, 42, 0
1, 144612, Note_on_c, 1, 40, 127
1, 144612, Note_on_c, 1, 68, 127
1, 144612, Note_on_c, 1, 59, 127
1, 144803, Note_off_c, 1, 40, 0
1, 144805, Note_on_c, 1, 47, 127
1, 144996, Note_off_c, 1, 47, 0
1, 144997, Note_off_c, 1, 68, 0
1, 144997, Note_off_c, 1, 59, 0
1, 144999, Note_on_c, 1, 52, 127
1, 144999, Note_on_c, 1, 68, 127
1, 144999, Note_on_c, 1, 59, 127
1, 145190, Note_off_c, 1, 52, 0
1, 145193, Note_on_c, 1, 54, 127
1, 145384, Note_off_c, 1, 68, 0
1, 145384, Note_off_c, 1, 59, 0
1, 145384, Note_off_c, 1, 54, 0
1, 145386, Note_on_c, 1, 52, 127
1, 145386, Note_on_c, 1, 70, 127
1, 145386, Note_on_c, 1, 61, 127
1, 145577, Note_off_c, 1, 52, 0
1, 145580, Note_on_c, 1, 51, 127
1, 145771, Note_off_c, 1, 70, 0
1, 145771, Note_off_c, 1, 61, 0
1, 145771, Note_off_c, 1, 51, 0
1, 145773, Note_on_c, 1, 49, 127
1, 145773, Note_on_c, 1, 71, 127
1, 145773, Note_on_c, 1, 63, 127
1, 145964, Note_off_c, 1, 49, 0
1, 145967, Note_on_c, 1, 47, 127
1, 146158, Note_off_c, 1, 71, 0
1, 146158, Note_off_c, 1, 63, 0
1, 146158, Note_off_c, 1, 47, 0
1, 146161, Note_on_c, 1, 64, 127
1, 146161, Note_on_c, 1, 46, 127
1, 146161, Note_on_c, 1, 73, 127
1, 146352, Note_off_c, 1, 64, 0
1, 146354, Note_on_c, 1, 71, 127
1, 146545, Note_off_c, 1, 71, 0
1, 146546, Note_off_c, 1, 46, 0
1, 146548, Note_on_c, 1, 70, 127
1, 146548, Note_on_c, 1, 42, 127
1, 146739, Note_off_c, 1, 70, 0
1, 146742, Note_on_c, 1, 68, 127
1, 146933, Note_off_c, 1, 42, 0
1, 146933, Note_off_c, 1, 68, 0
1, 146935, Note_on_c, 1, 66, 127
1, 146935, Note_on_c, 1, 44, 127
1, 147126, Note_off_c, 1, 66, 0
1, 147320, Note_off_c, 1, 44, 0
1, 147323, Note_on_c, 1, 63, 127
1, 147514, Note_off_c, 1, 63, 0
1, 147516, Note_on_c, 1, 61, 127
1, 147707, Note_off_c, 1, 61, 0
1, 147710, Note_on_c, 1, 47, 127
1, 147901, Note_off_c, 1, 47, 0
1, 147904, Note_on_c, 1, 49, 127
1, 148095, Note_off_c, 1, 49, 0
1, 148097, Note_off_c, 1, 73, 0
1, 148097, Note_on_c, 1, 51, 127
1, 148288, Note_off_c, 1, 51, 0
1, 148291, Note_on_c, 1, 52, 127
1, 148482, Note_off_c, 1, 52, 0
1, 148484, Note_on_c, 1, 54, 127
1, 148484, Note_on_c, 1, 70, 127
1, 148675, Note_off_c, 1, 54, 0
1, 148678, Note_on_c, 1, 56, 127
1, 148869, Note_off_c, 1, 70, 0
1, 148869, Note_off_c, 1, 56, 0
1, 148872, Note_on_c, 1, 58, 127
1, 148872, Note_on_c, 1, 71, 127
1, 149063, Note_off_c, 1, 58, 0
1, 149065, Note_on_c, 1, 59, 127
1, 149256, Note_off_c, 1, 59, 0
1, 149257, Note_off_c, 1, 71, 0
1, 149259, Note_on_c, 1, 73, 127
1, 149259, Note_on_c, 1, 52, 127
1, 149453, Note_on_c, 1, 63, 127
1, 149644, Note_off_c, 1, 63, 0
1, 149646, Note_on_c, 1, 61, 127
1, 149837, Note_off_c, 1, 61, 0
1, 149840, Note_on_c, 1, 59, 127
1, 150031, Note_off_c, 1, 73, 0
1, 150031, Note_off_c, 1, 59, 0
1, 150034, Note_on_c, 1, 58, 127
1, 150034, Note_on_c, 1, 66, 127
1, 150225, Note_off_c, 1, 58, 0
1, 150227, Note_on_c, 1, 56, 127
1, 150418, Note_off_c, 1, 56, 0
1, 150419, Note_off_c, 1, 66, 0
1, 150421, Note_on_c, 1, 68, 127
1, 150421, Note_on_c, 1, 54, 127
1, 150610, Note_off_c, 1, 52, 0
1, 150612, Note_off_c, 1, 68, 0
1, 150612, Note_off_c, 1, 54, 0
1, 150614, Note_on_c, 1, 70, 127
1, 150614, Note_on_c, 1, 52, 127
1, 150805, Note_off_c, 1, 70, 0
1, 150805, Note_off_c, 1, 52, 0
1, 150808, Note_on_c, 1, 51, 127
1, 150808, Note_on_c, 1, 54, 127
1, 150808, Note_on_c, 1, 71, 127
1, 150999, Note_off_c, 1, 51, 0
1, 150999, Note_off_c, 1, 54, 0
1, 151193, Note_off_c, 1, 71, 0
1, 151195, Note_on_c, 1, 73, 127
1, 151195, Note_on_c, 1, 52, 127
1, 151386, Note_off_c, 1, 73, 0
1, 151386, Note_off_c, 1, 52, 0
1, 151389, Note_on_c, 1, 75, 127
1, 151580, Note_off_c, 1, 75, 0
1, 151583, Note_on_c, 1, 56, 127
1, 151583, Note_on_c, 1, 76, 127
1, 151583, Note_on_c, 1, 49, 127
1, 151774, Note_off_c, 1, 56, 0
1, 151776, Note_on_c, 1, 58, 127
1, 151967, Note_off_c, 1, 58, 0
1, 151968, Note_off_c, 1, 76, 0
1, 151968, Note_off_c, 1, 49, 0
1, 151970, Note_on_c, 1, 56, 127
1, 151970, Note_on_c, 1, 75, 127
1, 151970, Note_on_c, 1, 59, 127
1, 152161, Note_off_c, 1, 56, 0
1, 152164, Note_on_c, 1, 54, 127
1, 152355, Note_off_c, 1, 75, 0
1, 152355, Note_off_c, 1, 54, 0
1, 152357, Note_on_c, 1, 52, 127
1, 152541, Note_on_c, 1, 73, 127
1, 152548, Note_off_c, 1, 52, 0
1, 152551, Note_on_c, 1, 51, 127
1, 152635, Note_off_c, 1, 73, 0
1, 152742, Note_off_c, 1, 51, 0
1, 152745, Note_on_c, 1, 49, 127
1, 152936, Note_off_c, 1, 49, 0
1, 153131, Note_off_c, 1, 59, 0
1, 153134, Note_on_c, 1, 58, 127
1, 153714, Note_off_c, 1, 58, 0
1, 154300, Note_on_c, 1, 71, 127
1, 154300, Note_on_c, 1, 78, 127
1, 154491, Note_off_c, 1, 71, 0
1, 154493, Note_on_c, 1, 70, 127
1, 154684, Note_off_c, 1, 70, 0
1, 154685, Note_off_c, 1, 78, 0
1, 154687, Note_on_c, 1, 44, 127
1, 155076, Note_on_c, 1, 76, 127
1, 155461, Note_off_c, 1, 44, 0
1, 155461, Note_off_c, 1, 76, 0
1, 155464, Note_on_c, 1, 42, 127
1, 155657, Note_on_c, 1, 68, 127
1, 155848, Note_off_c, 1, 68, 0
1, 155851, Note_on_c, 1, 66, 127
1, 156042, Note_off_c, 1, 66, 0
1, 156045, Note_on_c, 1, 64, 127
1, 156236, Note_off_c, 1, 64, 0
1, 156238, Note_on_c, 1, 63, 127
1, 156625, Note_off_c, 1, 63, 0
1, 156821, Note_on_c, 1, 77, 127
1, 157012, Note_off_c, 1, 77, 0
1, 157404, Note_on_c, 1, 80, 127
1, 157595, Note_off_c, 1, 80, 0
1, 157598, Note_on_c, 1, 82, 127
1, 157789, Note_off_c, 1, 82, 0
1, 157792, Note_on_c, 1, 83, 127
1, 157983, Note_off_c, 1, 42, 0
1, 158177, Note_off_c, 1, 83, 0
1, 158179, Note_on_c, 1, 46, 127
1, 158179, Note_on_c, 1, 82, 127
1, 158179, Note_on_c, 1, 78, 127
1, 158370, Note_off_c, 1, 46, 0
1, 158372, Note_on_c, 1, 47, 127
1, 158529, Note_off_c, 1, 82, 0
1, 158565, Note_off_c, 1, 47, 0
1, 158568, Note_on_c, 1, 49, 127
1, 158761, Note_off_c, 1, 49, 0
1, 158764, Note_on_c, 1, 51, 127
1, 158780, Note_on_c, 1, 80, 127
1, 158807, Note_off_c, 1, 78, 0
1, 158903, Note_off_c, 1, 80, 0
1, 158957, Note_off_c, 1, 51, 0
1, 158960, Note_on_c, 1, 76, 127
1, 158960, Note_on_c, 1, 52, 127
1, 159153, Note_off_c, 1, 76, 0
1, 159153, Note_off_c, 1, 52, 0
1, 159155, Note_on_c, 1, 75, 127
1, 159155, Note_on_c, 1, 54, 127
1, 159346, Note_off_c, 1, 75, 0
1, 159346, Note_off_c, 1, 54, 0
1, 159349, Note_on_c, 1, 56, 127
1, 159540, Note_off_c, 1, 56, 0
1, 159543, Note_on_c, 1, 58, 127
1, 159734, Note_off_c, 1, 58, 0
1, 159736, Note_on_c, 1, 59, 127
1, 159927, Note_off_c, 1, 59, 0
1, 160717, Note_on_c, 1, 73, 127
1, 160912, Note_off_c, 1, 73, 0
1, 160914, Note_on_c, 1, 71, 127
1, 162146, Note_on_c, 1, 61, 127
1, 162368, Note_off_c, 1, 61, 0
1, 162371, Note_on_c, 1, 63, 127
1, 162592, Note_off_c, 1, 71, 0
1, 162593, Note_off_c, 1, 63, 0
1, 162595, Note_on_c, 1, 70, 127
1, 163760, Note_off_c, 1, 70, 0
1, 163766, Note_on_c, 1, 75, 127
1, 163766, Note_on_c, 1, 71, 127
1, 163766, Note_on_c, 1, 54, 127
1, 163766, Note_on_c, 1, 47, 127
1, 166808, Note_off_c, 1, 75, 0
1, 166808, Note_off_c, 1, 71, 0
1, 166808, Note_off_c, 1, 54, 0
1, 166808, Note_off_c, 1, 47, 0
1, 166808, End_track
0, 0, End_of_file