0, 0, Header, 1, 1, 480
1, 0, Start_track
1, 0, Title_t, "Test"
1, 0, Tempo, 500000
1, 0, Instrument_name_t, "Church Organ"
1, 64, Note_on_c, 1, 63, 127
1, 64, Note_on_c, 1, 56, 127
1, 64, Note_on_c, 1, 60, 127
1, 344, Note_on_c, 1, 68, 127
1, 482, Note_off_c, 1, 68, 0
1, 484, Note_on_c, 1, 67, 127
1, 622, Note_off_c, 1, 67, 0
1, 904, Note_on_c, 1, 72, 127
1, 1099, Note_off_c, 1, 72, 0
1, 1183, Note_off_c, 1, 63, 0
1, 1713, Note_off_c, 1, 56, 0
1, 1713, Note_off_c, 1, 60, 0
1, 1745, Note_on_c, 1, 63, 127
1, 1745, Note_on_c, 1, 55, 127
1, 1745, Note_on_c, 1, 58, 127
1, 2026, Note_on_c, 1, 70, 127
1, 2164, Note_off_c, 1, 70, 0
1, 2166, Note_on_c, 1, 68, 127
1, 2304, Note_off_c, 1, 68, 0
1, 2586, Note_on_c, 1, 73, 127
1, 2781, Note_off_c, 1, 73, 0
1, 2864, Note_off_c, 1, 63, 0
1, 3424, Note_off_c, 1, 55, 0
1, 3424, Note_off_c, 1, 58, 0
1, 3427, Note_on_c, 1, 72, 127
1, 3708, Note_on_c, 1, 56, 127
1, 3846, Note_off_c, 1, 56, 0
1, 3848, Note_on_c, 1, 55, 127
1, 3986, Note_off_c, 1, 72, 0
1, 3986, Note_off_c, 1, 55, 0
1, 3988, Note_on_c, 1, 56, 127
1, 3988, Note_on_c, 1, 72, 127
1, 4081, Note_on_c, 1, 75, 127
1, 4175, Note_on_c, 1, 80, 127
1, 4266, Note_off_c, 1, 56, 0
1, 4268, Note_on_c, 1, 60, 127
1, 4516, Note_off_c, 1, 60, 0
1, 4542, Note_off_c, 1, 72, 0
1, 4548, Note_off_c, 1, 75, 0
1, 4549, Note_on_c, 1, 51, 127
1, 4734, Note_off_c, 1, 80, 0
1, 4827, Note_off_c, 1, 51, 0
1, 4829, Note_on_c, 1, 56, 127
1, 4829, Note_on_c, 1, 72, 127
1, 4829, Note_on_c, 1, 75, 127
1, 5084, Note_off_c, 1, 56, 0
1, 5107, Note_off_c, 1, 72, 0
1, 5107, Note_off_c, 1, 75, 0
1, 5109, Note_on_c, 1, 70, 127
1, 5109, Note_on_c, 1, 73, 127
1, 5390, Note_on_c, 1, 58, 127
1, 5528, Note_off_c, 1, 58, 0
1, 5530, Note_on_c, 1, 56, 127
1, 5668, Note_off_c, 1, 56, 0
1, 5670, Note_on_c, 1, 79, 127
1, 5948, Note_off_c, 1, 70, 0
1, 5948, Note_off_c, 1, 73, 0
1, 5950, Note_on_c, 1, 61, 127
1, 6198, Note_off_c, 1, 61, 0
1, 6224, Note_off_c, 1, 79, 0
1, 6231, Note_on_c, 1, 51, 127
1, 6509, Note_off_c, 1, 51, 0
1, 6511, Note_on_c, 1, 58, 127
1, 6511, Note_on_c, 1, 79, 127
1, 6511, Note_on_c, 1, 73, 127
1, 6511, Note_on_c, 1, 70, 127
1, 6766, Note_off_c, 1, 58, 0
1, 6789, Note_off_c, 1, 79, 0
1, 6789, Note_off_c, 1, 73, 0
1, 6789, Note_off_c, 1, 70, 0
1, 6791, Note_on_c, 1, 68, 127
1, 6931, Note_on_c, 1, 75, 127
1, 7072, Note_on_c, 1, 60, 127
1, 7072, Note_on_c, 1, 80, 127
1, 7210, Note_off_c, 1, 60, 0
1, 7212, Note_on_c, 1, 58, 127
1, 7339, Note_off_c, 1, 75, 0
1, 7350, Note_off_c, 1, 80, 0
1, 7350, Note_off_c, 1, 58, 0
1, 7632, Note_on_c, 1, 63, 127
1, 7880, Note_off_c, 1, 63, 0
1, 7910, Note_off_c, 1, 68, 0
1, 7912, Note_on_c, 1, 56, 127
1, 8190, Note_off_c, 1, 56, 0
1, 8193, Note_on_c, 1, 60, 127
1, 8193, Note_on_c, 1, 70, 127
1, 8193, Note_on_c, 1, 75, 127
1, 8448, Note_off_c, 1, 60, 0
1, 8471, Note_off_c, 1, 70, 0
1, 8471, Note_off_c, 1, 75, 0
1, 8473, Note_on_c, 1, 75, 127
1, 8473, Note_on_c, 1, 53, 127
1, 8473, Note_on_c, 1, 68, 127
1, 8751, Note_off_c, 1, 75, 0
1, 8753, Note_on_c, 1, 80, 127
1, 8891, Note_off_c, 1, 80, 0
1, 8894, Note_on_c, 1, 79, 127
1, 9032, Note_off_c, 1, 79, 0
1, 9034, Note_on_c, 1, 65, 127
1, 9314, Note_on_c, 1, 77, 127
1, 9540, Note_off_c, 1, 77, 0
1, 9592, Note_off_c, 1, 53, 0
1, 9594, Note_on_c, 1, 72, 127
1, 9872, Note_off_c, 1, 72, 0
1, 9997, Note_off_c, 1, 65, 0
1, 10152, Note_off_c, 1, 68, 0
1, 10155, Note_on_c, 1, 75, 127
1, 10155, Note_on_c, 1, 70, 127
1, 10223, Note_off_c, 1, 75, 0
1, 10225, Note_on_c, 1, 73, 127
1, 10293, Note_off_c, 1, 73, 0
1, 10435, Note_on_c, 1, 58, 127
1, 10573, Note_off_c, 1, 58, 0
1, 10576, Note_on_c, 1, 56, 127
1, 10714, Note_off_c, 1, 56, 0
1, 10716, Note_on_c, 1, 80, 127
1, 10996, Note_on_c, 1, 61, 127
1, 11244, Note_off_c, 1, 61, 0
1, 11274, Note_off_c, 1, 70, 0
1, 11276, Note_on_c, 1, 55, 127
1, 11475, Note_off_c, 1, 80, 0
1, 11554, Note_off_c, 1, 55, 0
1, 11557, Note_on_c, 1, 58, 127
1, 11557, Note_on_c, 1, 68, 127
1, 11557, Note_on_c, 1, 73, 127
1, 11812, Note_off_c, 1, 58, 0
1, 11835, Note_off_c, 1, 68, 0
1, 11835, Note_off_c, 1, 73, 0
1, 11837, Note_on_c, 1, 73, 127
1, 11837, Note_on_c, 1, 67, 127
1, 11837, Note_on_c, 1, 51, 127
1, 12115, Note_off_c, 1, 73, 0
1, 12115, Note_off_c, 1, 67, 0
1, 12117, Note_on_c, 1, 82, 127
1, 12255, Note_off_c, 1, 82, 0
1, 12257, Note_on_c, 1, 80, 127
1, 12395, Note_off_c, 1, 80, 0
1, 12398, Note_on_c, 1, 63, 127
1, 12678, Note_on_c, 1, 79, 127
1, 12897, Note_off_c, 1, 79, 0
1, 12956, Note_off_c, 1, 51, 0
1, 13237, Note_off_c, 1, 63, 0
1, 13239, Note_on_c, 1, 82, 127
1, 13239, Note_on_c, 1, 67, 127
1, 13239, Note_on_c, 1, 73, 127
1, 13479, Note_off_c, 1, 82, 0
1, 13516, Note_off_c, 1, 67, 0
1, 13517, Note_off_c, 1, 73, 0
1, 13519, Note_on_c, 1, 72, 127
1, 13519, Note_on_c, 1, 68, 127
1, 13659, Note_on_c, 1, 70, 127
1, 13723, Note_off_c, 1, 72, 0
1, 13797, Note_off_c, 1, 70, 0
1, 13799, Note_on_c, 1, 56, 127
1, 13937, Note_off_c, 1, 56, 0
1, 13939, Note_on_c, 1, 55, 127
1, 14073, Note_off_c, 1, 68, 0
1, 14077, Note_off_c, 1, 55, 0
1, 14220, Note_on_c, 1, 75, 127
1, 14358, Note_off_c, 1, 75, 0
1, 14360, Note_on_c, 1, 77, 127
1, 14360, Note_on_c, 1, 60, 127
1, 14498, Note_off_c, 1, 77, 0
1, 14500, Note_on_c, 1, 79, 127
1, 14600, Note_off_c, 1, 60, 0
1, 14638, Note_off_c, 1, 79, 0
1, 14640, Note_on_c, 1, 80, 127
1, 14640, Note_on_c, 1, 53, 127
1, 14780, Note_on_c, 1, 77, 127
1, 14800, Note_off_c, 1, 80, 0
1, 14918, Note_off_c, 1, 53, 0
1, 14918, Note_off_c, 1, 77, 0
1, 14920, Note_on_c, 1, 74, 127
1, 14920, Note_on_c, 1, 56, 127
1, 15061, Note_on_c, 1, 77, 127
1, 15080, Note_off_c, 1, 74, 0
1, 15175, Note_off_c, 1, 56, 0
1, 15199, Note_off_c, 1, 77, 0
1, 15201, Note_on_c, 1, 70, 127
1, 15201, Note_on_c, 1, 50, 127
1, 15339, Note_off_c, 1, 70, 0
1, 15341, Note_on_c, 1, 68, 127
1, 15479, Note_off_c, 1, 50, 0
1, 15479, Note_off_c, 1, 68, 0
1, 15481, Note_on_c, 1, 55, 127
1, 15481, Note_on_c, 1, 70, 127
1, 15619, Note_off_c, 1, 55, 0
1, 15621, Note_on_c, 1, 53, 127
1, 15759, Note_off_c, 1, 53, 0
1, 15900, Note_off_c, 1, 70, 0
1, 15902, Note_on_c, 1, 74, 127
1, 16040, Note_off_c, 1, 74, 0
1, 16042, Note_on_c, 1, 75, 127
1, 16042, Note_on_c, 1, 58, 127
1, 16180, Note_off_c, 1, 75, 0
1, 16182, Note_on_c, 1, 77, 127
1, 16275, Note_off_c, 1, 58, 0
1, 16320, Note_off_c, 1, 77, 0
1, 16322, Note_on_c, 1, 79, 127
1, 16322, Note_on_c, 1, 51, 127
1, 16462, Note_on_c, 1, 75, 127
1, 16482, Note_off_c, 1, 79, 0
1, 16600, Note_off_c, 1, 51, 0
1, 16600, Note_off_c, 1, 75, 0
1, 16602, Note_on_c, 1, 72, 127
1, 16602, Note_on_c, 1, 55, 127
1, 16743, Note_on_c, 1, 75, 127
1, 16762, Note_off_c, 1, 72, 0
1, 16835, Note_off_c, 1, 55, 0
1, 16881, Note_off_c, 1, 75, 0
1, 16883, Note_on_c, 1, 68, 127
1, 16883, Note_on_c, 1, 48, 127
1, 17023, Note_on_c, 1, 70, 127
1, 17043, Note_off_c, 1, 68, 0
1, 17161, Note_off_c, 1, 48, 0
1, 17161, Note_off_c, 1, 70, 0
1, 17163, Note_on_c, 1, 53, 127
1, 17163, Note_on_c, 1, 67, 127
1, 17301, Note_off_c, 1, 53, 0
1, 17303, Note_on_c, 1, 51, 127
1, 17303, Note_on_c, 1, 70, 127
1, 17323, Note_off_c, 1, 67, 0
1, 17441, Note_off_c, 1, 51, 0
1, 17441, Note_off_c, 1, 70, 0
1, 17443, Note_on_c, 1, 68, 127
1, 17443, Note_on_c, 1, 53, 127
1, 17584, Note_on_c, 1, 72, 127
1, 17720, Note_off_c, 1, 68, 0
1, 17721, Note_off_c, 1, 53, 0
1, 17722, Note_off_c, 1, 72, 0
1, 17724, Note_on_c, 1, 74, 127
1, 17724, Note_on_c, 1, 56, 127
1, 17862, Note_off_c, 1, 74, 0
1, 17864, Note_on_c, 1, 75, 127
1, 17957, Note_off_c, 1, 56, 0
1, 18002, Note_off_c, 1, 75, 0
1, 18004, Note_on_c, 1, 77, 127
1, 18004, Note_on_c, 1, 50, 127
1, 18144, Note_on_c, 1, 74, 127
1, 18237, Note_off_c, 1, 77, 0
1, 18282, Note_off_c, 1, 50, 0
1, 18282, Note_off_c, 1, 74, 0
1, 18284, Note_on_c, 1, 70, 127
1, 18284, Note_on_c, 1, 53, 127
1, 18422, Note_off_c, 1, 70, 0
1, 18424, Note_on_c, 1, 74, 127
1, 18517, Note_off_c, 1, 53, 0
1, 18562, Note_off_c, 1, 74, 0
1, 18565, Note_on_c, 1, 67, 127
1, 18565, Note_on_c, 1, 46, 127
1, 18705, Note_on_c, 1, 68, 127
1, 18754, Note_off_c, 1, 67, 0
1, 18843, Note_off_c, 1, 46, 0
1, 18843, Note_off_c, 1, 68, 0
1, 18845, Note_on_c, 1, 51, 127
1, 18845, Note_on_c, 1, 65, 127
1, 18983, Note_off_c, 1, 51, 0
1, 18985, Note_on_c, 1, 50, 127
1, 18985, Note_on_c, 1, 68, 127
1, 19034, Note_off_c, 1, 65, 0
1, 19123, Note_off_c, 1, 50, 0
1, 19123, Note_off_c, 1, 68, 0
1, 19125, Note_on_c, 1, 67, 127
1, 19125, Note_on_c, 1, 51, 127
1, 19265, Note_on_c, 1, 70, 127
1, 19402, Note_off_c, 1, 67, 0
1, 19403, Note_off_c, 1, 51, 0
1, 19403, Note_off_c, 1, 70, 0
1, 19406, Note_on_c, 1, 72, 127
1, 19406, Note_on_c, 1, 55, 127
1, 19544, Note_off_c, 1, 72, 0
1, 19546, Note_on_c, 1, 74, 127
1, 19639, Note_off_c, 1, 55, 0
1, 19684, Note_off_c, 1, 74, 0
1, 19686, Note_on_c, 1, 75, 127
1, 19686, Note_on_c, 1, 48, 127
1, 19826, Note_on_c, 1, 72, 127
1, 19919, Note_off_c, 1, 75, 0
1, 19964, Note_off_c, 1, 48, 0
1, 19964, Note_off_c, 1, 72, 0
1, 19966, Note_on_c, 1, 68, 127
1, 19966, Note_on_c, 1, 51, 127
1, 20104, Note_off_c, 1, 68, 0
1, 20106, Note_on_c, 1, 72, 127
1, 20199, Note_off_c, 1, 51, 0
1, 20244, Note_off_c, 1, 72, 0
1, 20247, Note_on_c, 1, 65, 127
1, 20247, Note_on_c, 1, 44, 127
1, 20387, Note_on_c, 1, 75, 127
1, 20524, Note_off_c, 1, 65, 0
1, 20525, Note_off_c, 1, 44, 0
1, 20525, Note_off_c, 1, 75, 0
1, 20527, Note_on_c, 1, 53, 127
1, 20527, Note_on_c, 1, 74, 127
1, 20665, Note_off_c, 1, 53, 0
1, 20665, Note_off_c, 1, 74, 0
1, 20667, Note_on_c, 1, 51, 127
1, 20667, Note_on_c, 1, 75, 127
1, 20805, Note_off_c, 1, 51, 0
1, 20805, Note_off_c, 1, 75, 0
1, 20807, Note_on_c, 1, 68, 127
1, 20807, Note_on_c, 1, 53, 127
1, 20947, Note_on_c, 1, 75, 127
1, 21084, Note_off_c, 1, 68, 0
1, 21085, Note_off_c, 1, 53, 0
1, 21085, Note_off_c, 1, 75, 0
1, 21088, Note_on_c, 1, 74, 127
1, 21088, Note_on_c, 1, 56, 127
1, 21226, Note_off_c, 1, 74, 0
1, 21228, Note_on_c, 1, 75, 127
1, 21321, Note_off_c, 1, 56, 0
1, 21366, Note_off_c, 1, 75, 0
1, 21368, Note_on_c, 1, 65, 127
1, 21368, Note_on_c, 1, 50, 127
1, 21508, Note_on_c, 1, 75, 127
1, 21645, Note_off_c, 1, 65, 0
1, 21646, Note_off_c, 1, 50, 0
1, 21646, Note_off_c, 1, 75, 0
1, 21648, Note_on_c, 1, 74, 127
1, 21648, Note_on_c, 1, 53, 127
1, 21786, Note_off_c, 1, 74, 0
1, 21788, Note_on_c, 1, 75, 127
1, 21881, Note_off_c, 1, 53, 0
1, 21926, Note_off_c, 1, 75, 0
1, 21928, Note_on_c, 1, 67, 127
1, 21928, Note_on_c, 1, 46, 127
1, 22069, Note_on_c, 1, 75, 127
1, 22205, Note_off_c, 1, 67, 0
1, 22206, Note_off_c, 1, 46, 0
1, 22207, Note_off_c, 1, 75, 0
1, 22209, Note_on_c, 1, 55, 127
1, 22209, Note_on_c, 1, 74, 127
1, 22347, Note_off_c, 1, 55, 0
1, 22347, Note_off_c, 1, 74, 0
1, 22349, Note_on_c, 1, 53, 127
1, 22349, Note_on_c, 1, 75, 127
1, 22487, Note_off_c, 1, 53, 0
1, 22487, Note_off_c, 1, 75, 0
1, 22489, Note_on_c, 1, 70, 127
1, 22489, Note_on_c, 1, 55, 127
1, 22629, Note_on_c, 1, 75, 127
1, 22766, Note_off_c, 1, 70, 0
1, 22767, Note_off_c, 1, 55, 0
1, 22767, Note_off_c, 1, 75, 0
1, 22769, Note_on_c, 1, 74, 127
1, 22769, Note_on_c, 1, 58, 127
1, 22907, Note_off_c, 1, 74, 0
1, 22910, Note_on_c, 1, 75, 127
1, 23002, Note_off_c, 1, 58, 0
1, 23048, Note_off_c, 1, 75, 0
1, 23050, Note_on_c, 1, 67, 127
1, 23050, Note_on_c, 1, 51, 127
1, 23190, Note_on_c, 1, 75, 127
1, 23327, Note_off_c, 1, 67, 0
1, 23328, Note_off_c, 1, 51, 0
1, 23328, Note_off_c, 1, 75, 0
1, 23330, Note_on_c, 1, 74, 127
1, 23330, Note_on_c, 1, 55, 127
1, 23468, Note_off_c, 1, 74, 0
1, 23470, Note_on_c, 1, 75, 127
1, 23563, Note_off_c, 1, 55, 0
1, 23608, Note_off_c, 1, 75, 0
1, 23610, Note_on_c, 1, 68, 127
1, 23610, Note_on_c, 1, 48, 127
1, 23751, Note_on_c, 1, 75, 127
1, 23858, Note_off_c, 1, 68, 0
1, 23888, Note_off_c, 1, 48, 0
1, 23889, Note_off_c, 1, 75, 0
1, 23891, Note_on_c, 1, 56, 127
1, 23891, Note_on_c, 1, 73, 127
1, 24029, Note_off_c, 1, 56, 0
1, 24031, Note_on_c, 1, 55, 127
1, 24031, Note_on_c, 1, 75, 127
1, 24139, Note_off_c, 1, 73, 0
1, 24169, Note_off_c, 1, 55, 0
1, 24169, Note_off_c, 1, 75, 0
1, 24171, Note_on_c, 1, 72, 127
1, 24171, Note_on_c, 1, 56, 127
1, 24311, Note_on_c, 1, 75, 127
1, 24419, Note_off_c, 1, 72, 0
1, 24449, Note_off_c, 1, 56, 0
1, 24449, Note_off_c, 1, 75, 0
1, 24451, Note_on_c, 1, 60, 127
1, 24451, Note_on_c, 1, 70, 127
1, 24592, Note_on_c, 1, 75, 127
1, 24684, Note_off_c, 1, 60, 0
1, 24699, Note_off_c, 1, 70, 0
1, 24730, Note_off_c, 1, 75, 0
1, 24732, Note_on_c, 1, 68, 127
1, 24732, Note_on_c, 1, 53, 127
1, 24872, Note_on_c, 1, 75, 127
1, 24980, Note_off_c, 1, 68, 0
1, 25010, Note_off_c, 1, 53, 0
1, 25010, Note_off_c, 1, 75, 0
1, 25012, Note_on_c, 1, 56, 127
1, 25012, Note_on_c, 1, 67, 127
1, 25152, Note_on_c, 1, 75, 127
1, 25245, Note_off_c, 1, 56, 0
1, 25260, Note_off_c, 1, 67, 0
1, 25290, Note_off_c, 1, 75, 0
1, 25292, Note_on_c, 1, 65, 127
1, 25292, Note_on_c, 1, 50, 127
1, 25432, Note_on_c, 1, 75, 127
1, 25540, Note_off_c, 1, 65, 0
1, 25570, Note_off_c, 1, 50, 0
1, 25570, Note_off_c, 1, 75, 0
1, 25573, Note_on_c, 1, 53, 127
1, 25573, Note_on_c, 1, 67, 127
1, 25713, Note_on_c, 1, 75, 127
1, 25813, Note_off_c, 1, 53, 0
1, 25821, Note_off_c, 1, 67, 0
1, 25851, Note_off_c, 1, 75, 0
1, 25853, Note_on_c, 1, 46, 127
1, 25853, Note_on_c, 1, 68, 127
1, 25993, Note_on_c, 1, 74, 127
1, 26131, Note_off_c, 1, 46, 0
1, 26131, Note_off_c, 1, 74, 0
1, 26133, Note_on_c, 1, 75, 127
1, 26133, Note_on_c, 1, 50, 127
1, 26261, Note_off_c, 1, 68, 0
1, 26271, Note_off_c, 1, 75, 0
1, 26273, Note_on_c, 1, 77, 127
1, 26373, Note_off_c, 1, 50, 0
1, 26411, Note_off_c, 1, 77, 0
1, 26414, Note_on_c, 1, 67, 127
1, 26414, Note_on_c, 1, 51, 127
1, 26552, Note_off_c, 1, 67, 0
1, 26554, Note_on_c, 1, 70, 127
1, 26692, Note_off_c, 1, 51, 0
1, 26692, Note_off_c, 1, 70, 0
1, 26694, Note_on_c, 1, 68, 127
1, 26694, Note_on_c, 1, 48, 127
1, 26832, Note_off_c, 1, 68, 0
1, 26834, Note_on_c, 1, 72, 127
1, 26934, Note_off_c, 1, 48, 0
1, 26972, Note_off_c, 1, 72, 0
1, 26974, Note_on_c, 1, 70, 127
1, 26974, Note_on_c, 1, 43, 127
1, 27114, Note_on_c, 1, 75, 127
1, 27222, Note_off_c, 1, 70, 0
1, 27252, Note_off_c, 1, 43, 0
1, 27252, Note_off_c, 1, 75, 0
1, 27255, Note_on_c, 1, 74, 127
1, 27255, Note_on_c, 1, 41, 127
1, 27393, Note_off_c, 1, 74, 0
1, 27395, Note_on_c, 1, 72, 127
1, 27510, Note_off_c, 1, 41, 0
1, 27533, Note_off_c, 1, 72, 0
1, 27535, Note_on_c, 1, 70, 127
1, 27535, Note_on_c, 1, 43, 127
1, 27673, Note_off_c, 1, 70, 0
1, 27675, Note_on_c, 1, 68, 127
1, 27813, Note_off_c, 1, 43, 0
1, 27813, Note_off_c, 1, 68, 0
1, 27815, Note_on_c, 1, 70, 127
1, 27815, Note_on_c, 1, 44, 127
1, 27953, Note_off_c, 1, 70, 0
1, 27955, Note_on_c, 1, 72, 127
1, 28070, Note_off_c, 1, 44, 0
1, 28093, Note_off_c, 1, 72, 0
1, 28096, Note_on_c, 1, 67, 127
1, 28096, Note_on_c, 1, 62, 127
1, 28096, Note_on_c, 1, 46, 127
1, 28164, Note_off_c, 1, 67, 0
1, 28166, Note_on_c, 1, 65, 127
1, 28234, Note_off_c, 1, 65, 0
1, 28504, Note_off_c, 1, 62, 0
1, 28516, Note_on_c, 1, 63, 127
1, 28650, Note_off_c, 1, 46, 0
1, 28654, Note_off_c, 1, 63, 0
1, 28656, Note_on_c, 1, 63, 127
1, 28936, Note_on_c, 1, 51, 127
1, 29074, Note_off_c, 1, 51, 0
1, 29077, Note_on_c, 1, 50, 127
1, 29215, Note_off_c, 1, 63, 0
1, 29215, Note_off_c, 1, 50, 0
1, 29217, Note_on_c, 1, 51, 127
1, 29217, Note_on_c, 1, 67, 127
1, 29310, Note_on_c, 1, 70, 127
1, 29404, Note_on_c, 1, 75, 127
1, 29495, Note_off_c, 1, 51, 0
1, 29497, Note_on_c, 1, 55, 127
1, 29730, Note_off_c, 1, 55, 0
1, 29771, Note_off_c, 1, 67, 0
1, 29777, Note_on_c, 1, 46, 127
1, 29864, Note_off_c, 1, 70, 0
1, 29900, Note_off_c, 1, 75, 0
1, 30055, Note_off_c, 1, 46, 0
1, 30058, Note_on_c, 1, 51, 127
1, 30058, Note_on_c, 1, 70, 127
1, 30058, Note_on_c, 1, 67, 127
1, 30291, Note_off_c, 1, 51, 0
1, 30336, Note_off_c, 1, 70, 0
1, 30336, Note_off_c, 1, 67, 0
1, 30338, Note_on_c, 1, 65, 127
1, 30338, Note_on_c, 1, 68, 127
1, 30618, Note_on_c, 1, 53, 127
1, 30756, Note_off_c, 1, 53, 0
1, 30759, Note_on_c, 1, 51, 127
1, 30897, Note_off_c, 1, 51, 0
1, 30899, Note_on_c, 1, 74, 127
1, 31179, Note_on_c, 1, 56, 127
1, 31412, Note_off_c, 1, 56, 0
1, 31457, Note_off_c, 1, 65, 0
1, 31457, Note_off_c, 1, 68, 0
1, 31459, Note_on_c, 1, 46, 127
1, 31599, Note_off_c, 1, 74, 0
1, 31737, Note_off_c, 1, 46, 0
1, 31740, Note_on_c, 1, 53, 127
1, 31740, Note_on_c, 1, 74, 127
1, 31740, Note_on_c, 1, 68, 127
1, 31740, Note_on_c, 1, 65, 127
1, 31973, Note_off_c, 1, 53, 0
1, 32018, Note_off_c, 1, 74, 0
1, 32018, Note_off_c, 1, 68, 0
1, 32018, Note_off_c, 1, 65, 0
1, 32020, Note_on_c, 1, 55, 127
1, 32021, Note_on_c, 1, 63, 127
1, 32023, Note_on_c, 1, 67, 127
1, 32024, Note_on_c, 1, 70, 127
1, 32026, Note_on_c, 1, 75, 127
1, 32299, Note_off_c, 1, 63, 0
1, 32301, Note_off_c, 1, 67, 0
1, 32302, Note_off_c, 1, 70, 0
1, 32434, Note_off_c, 1, 75, 0
1, 32456, Note_on_c, 1, 62, 127
1, 32594, Note_off_c, 1, 62, 0
1, 32720, Note_off_c, 1, 55, 0
1, 32877, Note_on_c, 1, 51, 127
1, 32877, Note_on_c, 1, 67, 127
1, 33015, Note_off_c, 1, 51, 0
1, 33017, Note_on_c, 1, 53, 127
1, 33072, Note_off_c, 1, 67, 0
1, 33155, Note_off_c, 1, 53, 0
1, 33157, Note_on_c, 1, 55, 127
1, 33157, Note_on_c, 1, 58, 127
1, 33295, Note_off_c, 1, 55, 0
1, 33297, Note_on_c, 1, 53, 127
1, 33435, Note_off_c, 1, 58, 0
1, 33435, Note_off_c, 1, 53, 0
1, 33438, Note_on_c, 1, 55, 127
1, 33438, Note_on_c, 1, 63, 127
1, 33576, Note_off_c, 1, 55, 0
1, 33578, Note_on_c, 1, 51, 127
1, 33633, Note_off_c, 1, 63, 0
1, 33716, Note_off_c, 1, 51, 0
1, 33718, Note_on_c, 1, 58, 127
1, 33998, Note_on_c, 1, 65, 127
1, 33998, Note_on_c, 1, 46, 127
1, 34136, Note_off_c, 1, 65, 0
1, 34138, Note_on_c, 1, 63, 127
1, 34276, Note_off_c, 1, 63, 0
1, 34546, Note_off_c, 1, 46, 0
1, 34559, Note_on_c, 1, 68, 127
1, 34699, Note_on_c, 1, 48, 127
1, 34754, Note_off_c, 1, 68, 0
1, 34836, Note_off_c, 1, 58, 0
1, 34837, Note_off_c, 1, 48, 0
1, 34839, Note_on_c, 1, 50, 127
1, 34839, Note_on_c, 1, 58, 127
1, 34977, Note_off_c, 1, 50, 0
1, 34979, Note_on_c, 1, 48, 127
1, 35117, Note_off_c, 1, 48, 0
1, 35120, Note_on_c, 1, 65, 127
1, 35247, Note_off_c, 1, 58, 0
1, 35260, Note_on_c, 1, 46, 127
1, 35315, Note_off_c, 1, 65, 0
1, 35398, Note_off_c, 1, 46, 0
1, 35400, Note_on_c, 1, 67, 127
1, 35400, Note_on_c, 1, 51, 127
1, 35678, Note_off_c, 1, 67, 0
1, 35680, Note_on_c, 1, 70, 127
1, 35680, Note_on_c, 1, 39, 127
1, 35818, Note_off_c, 1, 70, 0
1, 35820, Note_on_c, 1, 68, 127
1, 35958, Note_off_c, 1, 68, 0
1, 36176, Note_off_c, 1, 39, 0
1, 36239, Note_off_c, 1, 51, 0
1, 36241, Note_on_c, 1, 61, 127
1, 36241, Note_on_c, 1, 75, 127
1, 36379, Note_off_c, 1, 61, 0
1, 36381, Note_on_c, 1, 60, 127
1, 36436, Note_off_c, 1, 75, 0
1, 36519, Note_off_c, 1, 60, 0
1, 36521, Note_on_c, 1, 58, 127
1, 36521, Note_on_c, 1, 67, 127
1, 36659, Note_off_c, 1, 58, 0
1, 36661, Note_on_c, 1, 60, 127
1, 36799, Note_off_c, 1, 67, 0
1, 36799, Note_off_c, 1, 60, 0
1, 36801, Note_on_c, 1, 56, 127
1, 36801, Note_on_c, 1, 70, 127
1, 36939, Note_off_c, 1, 56, 0
1, 36942, Note_on_c, 1, 58, 127
1, 36996, Note_off_c, 1, 70, 0
1, 37080, Note_off_c, 1, 58, 0
1, 37082, Note_on_c, 1, 55, 127
1, 37082, Note_on_c, 1, 63, 127
1, 37220, Note_off_c, 1, 55, 0
1, 37222, Note_on_c, 1, 56, 127
1, 37360, Note_off_c, 1, 63, 0
1, 37360, Note_off_c, 1, 56, 0
1, 37362, Note_on_c, 1, 67, 127
1, 37362, Note_on_c, 1, 53, 127
1, 37500, Note_off_c, 1, 67, 0
1, 37500, Note_off_c, 1, 53, 0
1, 37502, Note_on_c, 1, 65, 127
1, 37502, Note_on_c, 1, 55, 127
1, 37640, Note_off_c, 1, 65, 0
1, 37640, Note_off_c, 1, 55, 0
1, 37642, Note_on_c, 1, 51, 127
1, 37642, Note_on_c, 1, 67, 127
1, 37780, Note_off_c, 1, 51, 0
1, 37783, Note_on_c, 1, 53, 127
1, 37920, Note_off_c, 1, 67, 0
1, 37921, Note_off_c, 1, 53, 0
1, 37923, Note_on_c, 1, 49, 127
1, 37923, Note_on_c, 1, 70, 127
1, 38061, Note_off_c, 1, 49, 0
1, 38063, Note_on_c, 1, 51, 127
1, 38118, Note_off_c, 1, 70, 0
1, 38201, Note_off_c, 1, 51, 0
1, 38203, Note_on_c, 1, 48, 127
1, 38203, Note_on_c, 1, 63, 127
1, 38341, Note_off_c, 1, 48, 0
1, 38343, Note_on_c, 1, 49, 127
1, 38481, Note_off_c, 1, 63, 0
1, 38481, Note_off_c, 1, 49, 0
1, 38483, Note_on_c, 1, 46, 127
1, 38483, Note_on_c, 1, 67, 127
1, 38621, Note_off_c, 1, 46, 0
1, 38624, Note_on_c, 1, 48, 127
1, 38678, Note_off_c, 1, 67, 0
1, 38762, Note_off_c, 1, 48, 0
1, 38764, Note_on_c, 1, 60, 127
1, 38764, Note_on_c, 1, 44, 127
1, 39041, Note_off_c, 1, 60, 0
1, 39044, Note_on_c, 1, 63, 127
1, 39172, Note_off_c, 1, 44, 0
1, 39182, Note_off_c, 1, 63, 0
1, 39184, Note_on_c, 1, 61, 127
1, 39322, Note_off_c, 1, 61, 0
1, 39324, Note_on_c, 1, 63, 127
1, 39602, Note_off_c, 1, 63, 0
1, 39605, Note_on_c, 1, 78, 127
1, 39605, Note_on_c, 1, 66, 127
1, 39745, Note_on_c, 1, 77, 127
1, 39751, Note_off_c, 1, 78, 0
1, 39831, Note_off_c, 1, 66, 0
1, 39885, Note_on_c, 1, 75, 127
1, 39885, Note_on_c, 1, 60, 127
1, 39891, Note_off_c, 1, 77, 0
1, 40031, Note_off_c, 1, 75, 0
1, 40163, Note_off_c, 1, 60, 0
1, 40165, Note_on_c, 1, 73, 127
1, 40165, Note_on_c, 1, 63, 127
1, 40311, Note_off_c, 1, 73, 0
1, 40391, Note_off_c, 1, 63, 0
1, 40446, Note_on_c, 1, 72, 127
1, 40446, Note_on_c, 1, 56, 127
1, 40592, Note_off_c, 1, 72, 0
1, 40724, Note_off_c, 1, 56, 0
1, 40726, Note_on_c, 1, 70, 127
1, 40866, Note_on_c, 1, 58, 127
1, 40872, Note_off_c, 1, 70, 0
1, 41004, Note_off_c, 1, 58, 0
1, 41006, Note_on_c, 1, 68, 127
1, 41152, Note_off_c, 1, 68, 0
1, 41567, Note_on_c, 1, 65, 127
1, 41713, Note_off_c, 1, 65, 0
1, 42128, Note_on_c, 1, 61, 127
1, 42128, Note_on_c, 1, 53, 127
1, 42406, Note_off_c, 1, 61, 0
1, 42408, Note_on_c, 1, 73, 127
1, 42546, Note_off_c, 1, 73, 0
1, 42548, Note_on_c, 1, 72, 127
1, 42686, Note_off_c, 1, 72, 0
1, 42799, Note_off_c, 1, 53, 0
1, 42828, Note_on_c, 1, 56, 127
1, 42966, Note_off_c, 1, 56, 0
1, 42968, Note_on_c, 1, 58, 127
1, 42968, Note_on_c, 1, 77, 127
1, 43106, Note_off_c, 1, 58, 0
1, 43109, Note_on_c, 1, 60, 127
1, 43163, Note_off_c, 1, 77, 0
1, 43247, Note_off_c, 1, 60, 0
1, 43249, Note_on_c, 1, 61, 127
1, 43249, Note_on_c, 1, 70, 127
1, 43387, Note_off_c, 1, 61, 0
1, 43389, Note_on_c, 1, 58, 127
1, 43527, Note_off_c, 1, 70, 0
1, 43527, Note_off_c, 1, 58, 0
1, 43529, Note_on_c, 1, 55, 127
1, 43529, Note_on_c, 1, 73, 127
1, 43667, Note_off_c, 1, 55, 0
1, 43669, Note_on_c, 1, 58, 127
1, 43724, Note_off_c, 1, 73, 0
1, 43807, Note_off_c, 1, 58, 0
1, 43809, Note_on_c, 1, 67, 127
1, 43809, Note_on_c, 1, 51, 127
1, 44087, Note_off_c, 1, 67, 0
1, 44090, Note_on_c, 1, 72, 127
1, 44228, Note_off_c, 1, 72, 0
1, 44230, Note_on_c, 1, 70, 127
1, 44368, Note_off_c, 1, 70, 0
1, 44451, Note_off_c, 1, 51, 0
1, 44510, Note_on_c, 1, 55, 127
1, 44648, Note_off_c, 1, 55, 0
1, 44650, Note_on_c, 1, 56, 127
1, 44650, Note_on_c, 1, 75, 127
1, 44788, Note_off_c, 1, 56, 0
1, 44791, Note_on_c, 1, 58, 127
1, 44845, Note_off_c, 1, 75, 0
1, 44929, Note_off_c, 1, 58, 0
1, 44931, Note_on_c, 1, 60, 127
1, 44931, Note_on_c, 1, 68, 127
1, 45069, Note_off_c, 1, 60, 0
1, 45071, Note_on_c, 1, 56, 127
1, 45209, Note_off_c, 1, 68, 0
1, 45209, Note_off_c, 1, 56, 0
1, 45211, Note_on_c, 1, 53, 127
1, 45211, Note_on_c, 1, 72, 127
1, 45349, Note_off_c, 1, 53, 0
1, 45351, Note_on_c, 1, 56, 127
1, 45406, Note_off_c, 1, 72, 0
1, 45489, Note_off_c, 1, 56, 0
1, 45491, Note_on_c, 1, 49, 127
1, 45491, Note_on_c, 1, 65, 127
1, 45632, Note_on_c, 1, 51, 127
1, 45637, Note_off_c, 1, 49, 0
1, 45769, Note_off_c, 1, 65, 0
1, 45770, Note_off_c, 1, 51, 0
1, 45772, Note_on_c, 1, 70, 127
1, 45772, Note_on_c, 1, 48, 127
1, 45910, Note_off_c, 1, 70, 0
1, 45912, Note_on_c, 1, 68, 127
1, 45912, Note_on_c, 1, 51, 127
1, 45918, Note_off_c, 1, 48, 0
1, 46050, Note_off_c, 1, 68, 0
1, 46050, Note_off_c, 1, 51, 0
1, 46052, Note_on_c, 1, 49, 127
1, 46052, Note_on_c, 1, 70, 127
1, 46192, Note_on_c, 1, 53, 127
1, 46212, Note_off_c, 1, 49, 0
1, 46330, Note_off_c, 1, 70, 0
1, 46330, Note_off_c, 1, 53, 0
1, 46332, Note_on_c, 1, 55, 127
1, 46332, Note_on_c, 1, 73, 127
1, 46470, Note_off_c, 1, 55, 0
1, 46472, Note_on_c, 1, 56, 127
1, 46527, Note_off_c, 1, 73, 0
1, 46610, Note_off_c, 1, 56, 0
1, 46613, Note_on_c, 1, 58, 127
1, 46613, Note_on_c, 1, 67, 127
1, 46751, Note_off_c, 1, 58, 0
1, 46753, Note_on_c, 1, 55, 127
1, 46891, Note_off_c, 1, 67, 0
1, 46891, Note_off_c, 1, 55, 0
1, 46893, Note_on_c, 1, 51, 127
1, 46893, Note_on_c, 1, 70, 127
1, 47031, Note_off_c, 1, 51, 0
1, 47033, Note_on_c, 1, 55, 127
1, 47088, Note_off_c, 1, 70, 0
1, 47171, Note_off_c, 1, 55, 0
1, 47173, Note_on_c, 1, 48, 127
1, 47173, Note_on_c, 1, 63, 127
1, 47313, Note_on_c, 1, 49, 127
1, 47319, Note_off_c, 1, 48, 0
1, 47451, Note_off_c, 1, 63, 0
1, 47451, Note_off_c, 1, 49, 0
1, 47454, Note_on_c, 1, 68, 127
1, 47454, Note_on_c, 1, 46, 127
1, 47592, Note_off_c, 1, 68, 0
1, 47594, Note_on_c, 1, 67, 127
1, 47594, Note_on_c, 1, 49, 127
1, 47600, Note_off_c, 1, 46, 0
1, 47732, Note_off_c, 1, 67, 0
1, 47732, Note_off_c, 1, 49, 0
1, 47734, Note_on_c, 1, 48, 127
1, 47734, Note_on_c, 1, 68, 127
1, 47874, Note_on_c, 1, 51, 127
1, 47894, Note_off_c, 1, 48, 0
1, 48012, Note_off_c, 1, 68, 0
1, 48012, Note_off_c, 1, 51, 0
1, 48014, Note_on_c, 1, 53, 127
1, 48014, Note_on_c, 1, 72, 127
1, 48152, Note_off_c, 1, 53, 0
1, 48154, Note_on_c, 1, 55, 127
1, 48209, Note_off_c, 1, 72, 0
1, 48292, Note_off_c, 1, 55, 0
1, 48295, Note_on_c, 1, 56, 127
1, 48295, Note_on_c, 1, 65, 127
1, 48433, Note_off_c, 1, 56, 0
1, 48435, Note_on_c, 1, 53, 127
1, 48573, Note_off_c, 1, 65, 0
1, 48573, Note_off_c, 1, 53, 0
1, 48575, Note_on_c, 1, 49, 127
1, 48575, Note_on_c, 1, 68, 127
1, 48713, Note_off_c, 1, 49, 0
1, 48715, Note_on_c, 1, 53, 127
1, 48770, Note_off_c, 1, 68, 0
1, 48853, Note_off_c, 1, 53, 0
1, 48855, Note_on_c, 1, 46, 127
1, 48855, Note_on_c, 1, 61, 127
1, 48995, Note_on_c, 1, 56, 127
1, 49030, Note_off_c, 1, 46, 0
1, 49133, Note_off_c, 1, 61, 0
1, 49133, Note_off_c, 1, 56, 0
1, 49136, Note_on_c, 1, 70, 127
1, 49136, Note_on_c, 1, 55, 127
1, 49274, Note_off_c, 1, 70, 0
1, 49274, Note_off_c, 1, 55, 0
1, 49276, Note_on_c, 1, 68, 127
1, 49276, Note_on_c, 1, 56, 127
1, 49414, Note_off_c, 1, 68, 0
1, 49416, Note_on_c, 1, 49, 127
1, 49416, Note_on_c, 1, 70, 127
1, 49553, Note_off_c, 1, 56, 0
1, 49591, Note_off_c, 1, 49, 0
1, 49694, Note_off_c, 1, 70, 0
1, 49696, Note_on_c, 1, 55, 127
1, 49696, Note_on_c, 1, 73, 127
1, 49834, Note_off_c, 1, 55, 0
1, 49836, Note_on_c, 1, 56, 127
1, 49891, Note_off_c, 1, 73, 0
1, 49976, Note_on_c, 1, 46, 127
1, 49976, Note_on_c, 1, 67, 127
1, 50113, Note_off_c, 1, 56, 0
1, 50151, Note_off_c, 1, 46, 0
1, 50254, Note_off_c, 1, 67, 0
1, 50257, Note_on_c, 1, 55, 127
1, 50257, Note_on_c, 1, 70, 127
1, 50395, Note_off_c, 1, 55, 0
1, 50397, Note_on_c, 1, 56, 127
1, 50452, Note_off_c, 1, 70, 0
1, 50537, Note_on_c, 1, 48, 127
1, 50537, Note_on_c, 1, 63, 127
1, 50674, Note_off_c, 1, 56, 0
1, 50712, Note_off_c, 1, 48, 0
1, 50815, Note_off_c, 1, 63, 0
1, 50817, Note_on_c, 1, 72, 127
1, 50817, Note_on_c, 1, 55, 127
1, 50955, Note_off_c, 1, 72, 0
1, 50955, Note_off_c, 1, 55, 0
1, 50958, Note_on_c, 1, 70, 127
1, 50958, Note_on_c, 1, 56, 127
1, 51096, Note_off_c, 1, 70, 0
1, 51098, Note_on_c, 1, 51, 127
1, 51098, Note_on_c, 1, 72, 127
1, 51235, Note_off_c, 1, 56, 0
1, 51273, Note_off_c, 1, 51, 0
1, 51376, Note_off_c, 1, 72, 0
1, 51378, Note_on_c, 1, 55, 127
1, 51378, Note_on_c, 1, 75, 127
1, 51516, Note_off_c, 1, 55, 0
1, 51518, Note_on_c, 1, 56, 127
1, 51573, Note_off_c, 1, 75, 0
1, 51658, Note_on_c, 1, 48, 127
1, 51658, Note_on_c, 1, 68, 127
1, 51766, Note_off_c, 1, 56, 0
1, 51833, Note_off_c, 1, 48, 0
1, 51936, Note_off_c, 1, 68, 0
1, 51939, Note_on_c, 1, 55, 127
1, 51939, Note_on_c, 1, 72, 127
1, 52077, Note_off_c, 1, 55, 0
1, 52079, Note_on_c, 1, 56, 127
1, 52134, Note_off_c, 1, 72, 0
1, 52219, Note_on_c, 1, 49, 127
1, 52219, Note_on_c, 1, 65, 127
1, 52283, Note_off_c, 1, 56, 0
1, 52394, Note_off_c, 1, 49, 0
1, 52497, Note_off_c, 1, 65, 0
1, 52499, Note_on_c, 1, 73, 127
1, 52499, Note_on_c, 1, 54, 127
1, 52637, Note_off_c, 1, 73, 0
1, 52637, Note_off_c, 1, 54, 0
1, 52640, Note_on_c, 1, 72, 127
1, 52640, Note_on_c, 1, 56, 127
1, 52778, Note_off_c, 1, 72, 0
1, 52780, Note_on_c, 1, 53, 127
1, 52780, Note_on_c, 1, 73, 127
1, 52888, Note_off_c, 1, 56, 0
1, 52918, Note_off_c, 1, 53, 0
1, 53058, Note_off_c, 1, 73, 0
1, 53060, Note_on_c, 1, 51, 127
1, 53060, Note_on_c, 1, 77, 127
1, 53198, Note_off_c, 1, 51, 0
1, 53279, Note_off_c, 1, 77, 0
1, 53340, Note_on_c, 1, 49, 127
1, 53340, Note_on_c, 1, 70, 127
1, 53478, Note_off_c, 1, 49, 0
1, 53618, Note_off_c, 1, 70, 0
1, 53621, Note_on_c, 1, 48, 127
1, 53759, Note_off_c, 1, 48, 0
1, 53901, Note_on_c, 1, 46, 127
1, 53901, Note_on_c, 1, 67, 127
1, 54039, Note_off_c, 1, 46, 0
1, 54041, Note_on_c, 1, 49, 127
1, 54179, Note_off_c, 1, 67, 0
1, 54179, Note_off_c, 1, 49, 0
1, 54181, Note_on_c, 1, 48, 127
1, 54181, Note_on_c, 1, 70, 127
1, 54319, Note_off_c, 1, 48, 0
1, 54321, Note_on_c, 1, 51, 127
1, 54400, Note_off_c, 1, 70, 0
1, 54459, Note_off_c, 1, 51, 0
1, 54462, Note_on_c, 1, 49, 127
1, 54462, Note_on_c, 1, 63, 127
1, 54600, Note_off_c, 1, 49, 0
1, 54602, Note_on_c, 1, 53, 127
1, 54740, Note_off_c, 1, 63, 0
1, 54740, Note_off_c, 1, 53, 0
1, 54742, Note_on_c, 1, 51, 127
1, 54742, Note_on_c, 1, 67, 127
1, 54880, Note_off_c, 1, 51, 0
1, 54882, Note_on_c, 1, 49, 127
1, 54968, Note_off_c, 1, 67, 0
1, 55020, Note_off_c, 1, 49, 0
1, 55022, Note_on_c, 1, 68, 127
1, 55022, Note_on_c, 1, 48, 127
1, 55160, Note_off_c, 1, 68, 0
1, 55160, Note_off_c, 1, 48, 0
1, 55162, Note_on_c, 1, 67, 127
1, 55162, Note_on_c, 1, 51, 127
1, 55300, Note_off_c, 1, 67, 0
1, 55300, Note_off_c, 1, 51, 0
1, 55303, Note_on_c, 1, 49, 127
1, 55303, Note_on_c, 1, 68, 127
1, 55441, Note_off_c, 1, 49, 0
1, 55443, Note_on_c, 1, 53, 127
1, 55581, Note_off_c, 1, 53, 0
1, 55583, Note_on_c, 1, 51, 127
1, 55722, Note_off_c, 1, 68, 0
1, 55723, Note_on_c, 1, 67, 127
1, 55861, Note_off_c, 1, 51, 0
1, 55861, Note_off_c, 1, 67, 0
1, 55863, Note_on_c, 1, 68, 127
1, 55863, Note_on_c, 1, 53, 127
1, 56001, Note_off_c, 1, 68, 0
1, 56001, Note_off_c, 1, 53, 0
1, 56003, Note_on_c, 1, 70, 127
1, 56003, Note_on_c, 1, 49, 127
1, 56141, Note_off_c, 1, 70, 0
1, 56141, Note_off_c, 1, 49, 0
1, 56144, Note_on_c, 1, 72, 127
1, 56144, Note_on_c, 1, 51, 127
1, 56144, Note_on_c, 1, 67, 127
1, 56275, Note_off_c, 1, 72, 0
1, 56284, Note_on_c, 1, 70, 127
1, 56352, Note_off_c, 1, 70, 0
1, 56422, Note_off_c, 1, 51, 0
1, 56424, Note_on_c, 1, 49, 127
1, 56702, Note_off_c, 1, 49, 0
1, 56844, Note_off_c, 1, 67, 0
1, 56984, Note_on_c, 1, 39, 127
1, 57116, Note_on_c, 1, 68, 127
1, 57241, Note_off_c, 1, 68, 0
1, 57262, Note_off_c, 1, 39, 0
1, 57265, Note_on_c, 1, 68, 127
1, 57265, Note_on_c, 1, 44, 127
1, 57543, Note_off_c, 1, 68, 0
1, 57545, Note_on_c, 1, 75, 127
1, 57683, Note_off_c, 1, 75, 0
1, 57685, Note_on_c, 1, 73, 127
1, 57823, Note_off_c, 1, 73, 0
1, 57825, Note_on_c, 1, 56, 127
1, 58104, Note_off_c, 1, 44, 0
1, 58106, Note_on_c, 1, 72, 127
1, 58301, Note_off_c, 1, 72, 0
1, 58386, Note_on_c, 1, 67, 127
1, 58641, Note_off_c, 1, 67, 0
1, 58664, Note_off_c, 1, 56, 0
1, 58666, Note_on_c, 1, 70, 127
1, 58921, Note_off_c, 1, 70, 0
1, 58947, Note_on_c, 1, 70, 127
1, 58947, Note_on_c, 1, 65, 127
1, 59015, Note_off_c, 1, 70, 0
1, 59017, Note_on_c, 1, 68, 127
1, 59085, Note_off_c, 1, 68, 0
1, 59227, Note_on_c, 1, 53, 127
1, 59365, Note_off_c, 1, 53, 0
1, 59367, Note_on_c, 1, 51, 127
1, 59501, Note_off_c, 1, 65, 0
1, 59505, Note_off_c, 1, 51, 0
1, 59507, Note_on_c, 1, 53, 127
1, 59507, Note_on_c, 1, 75, 127
1, 59785, Note_off_c, 1, 53, 0
1, 59788, Note_on_c, 1, 56, 127
1, 60021, Note_off_c, 1, 56, 0
1, 60068, Note_on_c, 1, 49, 127
1, 60178, Note_off_c, 1, 75, 0
1, 60208, Note_on_c, 1, 66, 127
1, 60346, Note_off_c, 1, 49, 0
1, 60346, Note_off_c, 1, 66, 0
1, 60348, Note_on_c, 1, 65, 127
1, 60348, Note_on_c, 1, 53, 127
1, 60486, Note_off_c, 1, 65, 0
1, 60488, Note_on_c, 1, 63, 127
1, 60581, Note_off_c, 1, 53, 0
1, 60626, Note_off_c, 1, 63, 0
1, 60629, Note_on_c, 1, 61, 127
1, 60629, Note_on_c, 1, 46, 127
1, 60907, Note_off_c, 1, 61, 0
1, 60909, Note_on_c, 1, 73, 127
1, 61047, Note_off_c, 1, 73, 0
1, 61049, Note_on_c, 1, 72, 127
1, 61187, Note_off_c, 1, 72, 0
1, 61189, Note_on_c, 1, 58, 127
1, 61468, Note_off_c, 1, 46, 0
1, 61470, Note_on_c, 1, 70, 127
1, 61665, Note_off_c, 1, 70, 0
1, 61750, Note_on_c, 1, 65, 127
1, 62005, Note_off_c, 1, 65, 0
1, 62028, Note_off_c, 1, 58, 0
1, 62030, Note_on_c, 1, 68, 127
1, 62285, Note_off_c, 1, 68, 0
1, 62311, Note_on_c, 1, 68, 127
1, 62311, Note_on_c, 1, 63, 127
1, 62379, Note_off_c, 1, 68, 0
1, 62381, Note_on_c, 1, 67, 127
1, 62449, Note_off_c, 1, 67, 0
1, 62591, Note_on_c, 1, 51, 127
1, 62729, Note_off_c, 1, 51, 0
1, 62731, Note_on_c, 1, 49, 127
1, 62865, Note_off_c, 1, 63, 0
1, 62869, Note_off_c, 1, 49, 0
1, 62871, Note_on_c, 1, 51, 127
1, 62871, Note_on_c, 1, 73, 127
1, 63149, Note_off_c, 1, 51, 0
1, 63152, Note_on_c, 1, 55, 127
1, 63385, Note_off_c, 1, 55, 0
1, 63432, Note_on_c, 1, 48, 127
1, 63542, Note_off_c, 1, 73, 0
1, 63572, Note_on_c, 1, 65, 127
1, 63710, Note_off_c, 1, 48, 0
1, 63710, Note_off_c, 1, 65, 0
1, 63712, Note_on_c, 1, 63, 127
1, 63712, Note_on_c, 1, 51, 127
1, 63850, Note_off_c, 1, 63, 0
1, 63852, Note_on_c, 1, 61, 127
1, 63945, Note_off_c, 1, 51, 0
1, 63990, Note_off_c, 1, 61, 0
1, 63992, Note_on_c, 1, 60, 127
1, 63992, Note_on_c, 1, 44, 127
1, 64134, Note_on_c, 1, 72, 127
1, 64134, Note_on_c, 1, 56, 127
1, 64272, Note_off_c, 1, 60, 0
1, 64272, Note_off_c, 1, 44, 0
1, 64274, Note_off_c, 1, 72, 0
1, 64274, Note_off_c, 1, 56, 0
1, 64276, Note_on_c, 1, 70, 127
1, 64276, Note_on_c, 1, 55, 127
1, 64416, Note_off_c, 1, 70, 0
1, 64416, Note_off_c, 1, 55, 0
1, 64417, Note_on_c, 1, 72, 127
1, 64417, Note_on_c, 1, 56, 127
1, 64557, Note_off_c, 1, 72, 0
1, 64557, Note_off_c, 1, 56, 0
1, 64559, Note_on_c, 1, 53, 127
1, 64559, Note_on_c, 1, 68, 127
1, 64699, Note_off_c, 1, 53, 0
1, 64701, Note_on_c, 1, 72, 127
1, 64701, Note_on_c, 1, 56, 127
1, 64721, Note_off_c, 1, 68, 0
1, 64841, Note_off_c, 1, 72, 0
1, 64841, Note_off_c, 1, 56, 0
1, 64842, Note_on_c, 1, 51, 127
1, 64842, Note_on_c, 1, 67, 127
1, 64982, Note_off_c, 1, 51, 0
1, 64984, Note_on_c, 1, 72, 127
1, 64984, Note_on_c, 1, 56, 127
1, 65004, Note_off_c, 1, 67, 0
1, 65124, Note_off_c, 1, 72, 0
1, 65124, Note_off_c, 1, 56, 0
1, 65125, Note_on_c, 1, 49, 127
1, 65125, Note_on_c, 1, 65, 127
1, 65265, Note_off_c, 1, 49, 0
1, 65267, Note_on_c, 1, 72, 127
1, 65267, Note_on_c, 1, 56, 127
1, 65287, Note_off_c, 1, 65, 0
1, 65407, Note_off_c, 1, 72, 0
1, 65407, Note_off_c, 1, 56, 0
1, 65409, Note_on_c, 1, 48, 127
1, 65409, Note_on_c, 1, 63, 127
1, 65549, Note_off_c, 1, 48, 0
1, 65550, Note_on_c, 1, 72, 127
1, 65550, Note_on_c, 1, 56, 127
1, 65571, Note_off_c, 1, 63, 0
1, 65690, Note_off_c, 1, 72, 0
1, 65690, Note_off_c, 1, 56, 0
1, 65692, Note_on_c, 1, 61, 127
1, 65692, Note_on_c, 1, 46, 127
1, 65835, Note_on_c, 1, 73, 127
1, 65835, Note_on_c, 1, 58, 127
1, 65975, Note_off_c, 1, 61, 0
1, 65975, Note_off_c, 1, 46, 0
1, 65976, Note_off_c, 1, 73, 0
1, 65976, Note_off_c, 1, 58, 0
1, 65978, Note_on_c, 1, 72, 127
1, 65978, Note_on_c, 1, 56, 127
1, 66119, Note_off_c, 1, 72, 0
1, 66119, Note_off_c, 1, 56, 0
1, 66121, Note_on_c, 1, 73, 127
1, 66121, Note_on_c, 1, 58, 127
1, 66262, Note_off_c, 1, 73, 0
1, 66262, Note_off_c, 1, 58, 0
1, 66264, Note_on_c, 1, 55, 127
1, 66264, Note_on_c, 1, 70, 127
1, 66405, Note_off_c, 1, 55, 0
1, 66407, Note_on_c, 1, 73, 127
1, 66407, Note_on_c, 1, 58, 127
1, 66427, Note_off_c, 1, 70, 0
1, 66548, Note_off_c, 1, 73, 0
1, 66548, Note_off_c, 1, 58, 0
1, 66550, Note_on_c, 1, 53, 127
1, 66550, Note_on_c, 1, 68, 127
1, 66691, Note_off_c, 1, 53, 0
1, 66693, Note_on_c, 1, 73, 127
1, 66693, Note_on_c, 1, 58, 127
1, 66713, Note_off_c, 1, 68, 0
1, 66834, Note_off_c, 1, 73, 0
1, 66834, Note_off_c, 1, 58, 0
1, 66837, Note_on_c, 1, 51, 127
1, 66837, Note_on_c, 1, 67, 127
1, 66978, Note_off_c, 1, 51, 0
1, 66980, Note_on_c, 1, 73, 127
1, 66980, Note_on_c, 1, 58, 127
1, 67000, Note_off_c, 1, 67, 0
1, 67121, Note_off_c, 1, 73, 0
1, 67121, Note_off_c, 1, 58, 0
1, 67123, Note_on_c, 1, 49, 127
1, 67123, Note_on_c, 1, 65, 127
1, 67264, Note_off_c, 1, 49, 0
1, 67266, Note_on_c, 1, 73, 127
1, 67266, Note_on_c, 1, 58, 127
1, 67286, Note_off_c, 1, 65, 0
1, 67407, Note_off_c, 1, 73, 0
1, 67407, Note_off_c, 1, 58, 0
1, 67409, Note_on_c, 1, 63, 127
1, 67409, Note_on_c, 1, 48, 127
1, 67698, Note_off_c, 1, 63, 0
1, 67699, Note_on_c, 1, 70, 127
1, 67699, Note_on_c, 1, 60, 127
1, 67754, Note_off_c, 1, 70, 0
1, 67756, Note_on_c, 1, 68, 127
1, 67812, Note_off_c, 1, 68, 0
1, 67930, Note_on_c, 1, 67, 127
1, 67981, Note_off_c, 1, 48, 0
1, 67985, Note_off_c, 1, 67, 0
1, 68119, Note_off_c, 1, 60, 0
1, 68278, Note_on_c, 1, 53, 127
1, 68278, Note_on_c, 1, 72, 127
1, 68422, Note_off_c, 1, 53, 0
1, 68424, Note_on_c, 1, 55, 127
1, 68513, Note_off_c, 1, 72, 0
1, 68567, Note_off_c, 1, 55, 0
1, 68568, Note_on_c, 1, 56, 127
1, 68568, Note_on_c, 1, 65, 127
1, 68712, Note_off_c, 1, 56, 0
1, 68714, Note_on_c, 1, 55, 127
1, 68858, Note_off_c, 1, 65, 0
1, 68858, Note_off_c, 1, 55, 0
1, 68860, Note_on_c, 1, 56, 127
1, 68860, Note_on_c, 1, 68, 127
1, 69004, Note_off_c, 1, 56, 0
1, 69006, Note_on_c, 1, 53, 127
1, 69150, Note_off_c, 1, 53, 0
1, 69152, Note_on_c, 1, 73, 127
1, 69152, Note_on_c, 1, 58, 127
1, 69444, Note_off_c, 1, 68, 0
1, 69448, Note_off_c, 1, 73, 0
1, 69450, Note_on_c, 1, 46, 127
1, 69549, Note_on_c, 1, 67, 127
1, 69646, Note_off_c, 1, 67, 0
1, 69649, Note_on_c, 1, 65, 127
1, 69741, Note_off_c, 1, 58, 0
1, 69746, Note_off_c, 1, 65, 0
1, 69791, Note_off_c, 1, 46, 0
1, 70047, Note_on_c, 1, 51, 127
1, 70047, Note_on_c, 1, 70, 127
1, 70194, Note_off_c, 1, 51, 0
1, 70311, Note_off_c, 1, 70, 0
1, 70345, Note_on_c, 1, 55, 127
1, 70345, Note_on_c, 1, 63, 127
1, 70492, Note_off_c, 1, 55, 0
1, 70641, Note_off_c, 1, 63, 0
1, 70643, Note_on_c, 1, 55, 127
1, 70643, Note_on_c, 1, 67, 127
1, 70790, Note_off_c, 1, 55, 0
1, 70792, Note_on_c, 1, 51, 127
1, 70907, Note_off_c, 1, 67, 0
1, 70939, Note_off_c, 1, 51, 0
1, 70941, Note_on_c, 1, 72, 127
1, 70941, Note_on_c, 1, 56, 127
1, 71268, Note_off_c, 1, 72, 0
1, 71268, Note_off_c, 1, 56, 0
1, 71269, Note_on_c, 1, 65, 127
1, 71269, Note_on_c, 1, 68, 127
1, 71269, Note_on_c, 1, 61, 127
1, 71269, Note_on_c, 1, 49, 127
1, 71596, Note_off_c, 1, 65, 0
1, 71596, Note_off_c, 1, 68, 0
1, 71596, Note_off_c, 1, 61, 0
1, 71596, Note_off_c, 1, 49, 0
1, 71598, Note_on_c, 1, 51, 127
1, 71598, Note_on_c, 1, 58, 127
1, 71697, Note_on_c, 1, 63, 127
1, 71796, Note_on_c, 1, 68, 127
1, 71925, Note_off_c, 1, 51, 0
1, 71926, Note_on_c, 1, 49, 127
1, 72253, Note_off_c, 1, 49, 0
1, 72255, Note_on_c, 1, 67, 127
1, 72258, Note_off_c, 1, 68, 0
1, 72637, Note_on_c, 1, 39, 127
1, 73016, Note_off_c, 1, 63, 0
1, 73018, Note_off_c, 1, 58, 0
1, 73018, Note_off_c, 1, 67, 0
1, 73018, Note_off_c, 1, 39, 0
1, 73020, Note_on_c, 1, 60, 127
1, 73020, Note_on_c, 1, 44, 127
1, 73021, Note_on_c, 1, 63, 127
1, 73023, Note_on_c, 1, 68, 127
1, 75313, Note_off_c, 1, 60, 0
1, 75313, Note_off_c, 1, 44, 0
1, 75314, Note_off_c, 1, 63, 0
1, 75316, Note_off_c, 1, 68, 0
1, 76096, Note_on_c, 1, 56, 127
1, 76481, Note_off_c, 1, 56, 0
1, 76486, Note_on_c, 1, 63, 127
1, 76851, Note_off_c, 1, 63, 0
1, 76876, Note_on_c, 1, 60, 127
1, 77261, Note_off_c, 1, 60, 0
1, 77265, Note_on_c, 1, 56, 127
1, 77630, Note_off_c, 1, 56, 0
1, 77655, Note_on_c, 1, 65, 127
1, 78030, Note_off_c, 1, 65, 0
1, 78045, Note_on_c, 1, 61, 127
1, 78420, Note_off_c, 1, 61, 0
1, 78435, Note_on_c, 1, 63, 127
1, 79214, Note_on_c, 1, 51, 127
1, 79405, Note_off_c, 1, 63, 0
1, 79410, Note_on_c, 1, 61, 127
1, 79600, Note_off_c, 1, 51, 0
1, 79601, Note_off_c, 1, 61, 0
1, 79606, Note_on_c, 1, 60, 127
1, 79606, Note_on_c, 1, 56, 127
1, 79797, Note_off_c, 1, 60, 0
1, 79801, Note_on_c, 1, 61, 127
1, 79972, Note_off_c, 1, 56, 0
1, 79992, Note_off_c, 1, 61, 0
1, 79997, Note_on_c, 1, 63, 127
1, 79997, Note_on_c, 1, 55, 127
1, 80188, Note_off_c, 1, 63, 0
1, 80193, Note_on_c, 1, 65, 127
1, 80383, Note_off_c, 1, 55, 0
1, 80384, Note_off_c, 1, 65, 0
1, 80388, Note_on_c, 1, 67, 127
1, 80388, Note_on_c, 1, 51, 127
1, 80579, Note_off_c, 1, 67, 0
1, 80584, Note_on_c, 1, 63, 127
1, 80754, Note_off_c, 1, 51, 0
1, 80775, Note_off_c, 1, 63, 0
1, 80780, Note_on_c, 1, 68, 127
1, 80780, Note_on_c, 1, 60, 127
1, 80971, Note_off_c, 1, 68, 0
1, 80975, Note_on_c, 1, 70, 127
1, 81156, Note_off_c, 1, 60, 0
1, 81166, Note_off_c, 1, 70, 0
1, 81171, Note_on_c, 1, 72, 127
1, 81171, Note_on_c, 1, 56, 127
1, 81362, Note_off_c, 1, 72, 0
1, 81366, Note_on_c, 1, 70, 127
1, 81547, Note_off_c, 1, 56, 0
1, 81557, Note_off_c, 1, 70, 0
1, 81562, Note_on_c, 1, 68, 127
1, 81562, Note_on_c, 1, 58, 127
1, 81753, Note_off_c, 1, 68, 0
1, 81758, Note_on_c, 1, 67, 127
1, 81948, Note_off_c, 1, 58, 0
1, 81949, Note_off_c, 1, 67, 0
1, 81953, Note_on_c, 1, 65, 127
1, 81953, Note_on_c, 1, 51, 127
1, 82144, Note_off_c, 1, 65, 0
1, 82149, Note_on_c, 1, 68, 127
1, 82319, Note_off_c, 1, 51, 0
1, 82340, Note_off_c, 1, 68, 0
1, 82345, Note_on_c, 1, 58, 127
1, 82345, Note_on_c, 1, 67, 127
1, 82730, Note_off_c, 1, 58, 0
1, 82734, Note_on_c, 1, 55, 127
1, 83099, Note_off_c, 1, 55, 0
1, 83124, Note_on_c, 1, 56, 127
1, 83509, Note_off_c, 1, 56, 0
1, 83514, Note_on_c, 1, 51, 127
1, 83826, Note_off_c, 1, 67, 0
1, 83879, Note_off_c, 1, 51, 0
1, 83904, Note_on_c, 1, 56, 127
1, 83904, Note_on_c, 1, 65, 127
1, 84289, Note_off_c, 1, 56, 0
1, 84294, Note_on_c, 1, 53, 127
1, 84669, Note_off_c, 1, 53, 0
1, 84684, Note_on_c, 1, 55, 127
1, 84874, Note_off_c, 1, 65, 0
1, 84879, Note_on_c, 1, 63, 127
1, 85070, Note_off_c, 1, 63, 0
1, 85075, Note_on_c, 1, 62, 127
1, 85266, Note_off_c, 1, 62, 0
1, 85657, Note_off_c, 1, 55, 0
1, 85662, Note_on_c, 1, 48, 127
1, 85853, Note_off_c, 1, 48, 0
1, 85857, Note_on_c, 1, 49, 127
1, 86048, Note_off_c, 1, 49, 0
1, 86053, Note_on_c, 1, 51, 127
1, 86244, Note_off_c, 1, 51, 0
1, 86640, Note_on_c, 1, 61, 127
1, 86640, Note_on_c, 1, 56, 127
1, 86831, Note_off_c, 1, 61, 0
1, 86831, Note_off_c, 1, 56, 0
1, 86836, Note_on_c, 1, 60, 127
1, 86836, Note_on_c, 1, 53, 127
1, 87027, Note_off_c, 1, 60, 0
1, 87027, Note_off_c, 1, 53, 0
1, 87031, Note_on_c, 1, 61, 127
1, 87031, Note_on_c, 1, 58, 127
1, 87222, Note_off_c, 1, 61, 0
1, 87222, Note_off_c, 1, 58, 0
1, 87227, Note_on_c, 1, 65, 127
1, 87227, Note_on_c, 1, 60, 127
1, 87418, Note_off_c, 1, 65, 0
1, 87418, Note_off_c, 1, 60, 0
1, 87423, Note_on_c, 1, 70, 127
1, 87423, Note_on_c, 1, 61, 127
1, 87614, Note_off_c, 1, 70, 0
1, 87614, Note_off_c, 1, 61, 0
1, 87618, Note_on_c, 1, 68, 127
1, 87618, Note_on_c, 1, 60, 127
1, 87809, Note_off_c, 1, 68, 0
1, 87809, Note_off_c, 1, 60, 0
1, 87814, Note_on_c, 1, 67, 127
1, 87814, Note_on_c, 1, 58, 127
1, 88005, Note_off_c, 1, 67, 0
1, 88005, Note_off_c, 1, 58, 0
1, 88009, Note_on_c, 1, 65, 127
1, 88009, Note_on_c, 1, 56, 127
1, 88200, Note_off_c, 1, 65, 0
1, 88200, Note_off_c, 1, 56, 0
1, 88205, Note_on_c, 1, 63, 127
1, 88205, Note_on_c, 1, 55, 127
1, 88396, Note_off_c, 1, 63, 0
1, 88396, Note_off_c, 1, 55, 0
1, 88401, Note_on_c, 1, 61, 127
1, 88401, Note_on_c, 1, 58, 127
1, 88592, Note_off_c, 1, 61, 0
1, 88592, Note_off_c, 1, 58, 0
1, 88596, Note_on_c, 1, 60, 127
1, 88596, Note_on_c, 1, 68, 127
1, 88596, Note_on_c, 1, 56, 127
1, 88787, Note_off_c, 1, 60, 0
1, 88792, Note_on_c, 1, 58, 127
1, 88982, Note_off_c, 1, 68, 0
1, 88983, Note_off_c, 1, 58, 0
1, 88988, Note_on_c, 1, 75, 127
1, 89183, Note_on_c, 1, 61, 127
1, 89344, Note_off_c, 1, 75, 0
1, 89374, Note_off_c, 1, 61, 0
1, 89379, Note_on_c, 1, 72, 127
1, 89379, Note_on_c, 1, 63, 127
1, 89569, Note_off_c, 1, 56, 0
1, 89575, Note_on_c, 1, 44, 127
1, 89765, Note_off_c, 1, 72, 0
1, 89766, Note_off_c, 1, 44, 0
1, 89770, Note_on_c, 1, 46, 127
1, 89961, Note_off_c, 1, 46, 0
1, 89966, Note_on_c, 1, 48, 127
1, 90152, Note_off_c, 1, 63, 0
1, 90157, Note_off_c, 1, 48, 0
1, 90162, Note_on_c, 1, 49, 127
1, 90162, Note_on_c, 1, 77, 127
1, 90162, Note_on_c, 1, 56, 127
1, 90353, Note_off_c, 1, 49, 0
1, 90357, Note_on_c, 1, 51, 127
1, 90538, Note_off_c, 1, 77, 0
1, 90548, Note_off_c, 1, 51, 0
1, 90553, Note_on_c, 1, 53, 127
1, 90553, Note_on_c, 1, 73, 127
1, 90744, Note_off_c, 1, 53, 0
1, 90929, Note_off_c, 1, 73, 0
1, 90940, Note_off_c, 1, 56, 0
1, 90944, Note_on_c, 1, 49, 127
1, 90944, Note_on_c, 1, 55, 127
1, 90944, Note_on_c, 1, 75, 127
1, 91135, Note_off_c, 1, 49, 0
1, 91140, Note_on_c, 1, 48, 127
1, 91331, Note_off_c, 1, 48, 0
1, 91335, Note_on_c, 1, 46, 127
1, 91526, Note_off_c, 1, 46, 0
1, 91722, Note_off_c, 1, 55, 0
1, 91727, Note_on_c, 1, 56, 127
1, 91727, Note_on_c, 1, 63, 127
1, 91918, Note_off_c, 1, 56, 0
1, 91922, Note_on_c, 1, 58, 127
1, 92113, Note_off_c, 1, 63, 0
1, 92113, Note_off_c, 1, 58, 0
1, 92118, Note_on_c, 1, 68, 127
1, 92118, Note_on_c, 1, 60, 127
1, 92314, Note_on_c, 1, 50, 127
1, 92474, Note_off_c, 1, 68, 0
1, 92504, Note_off_c, 1, 60, 0
1, 92505, Note_off_c, 1, 50, 0
1, 92509, Note_on_c, 1, 51, 127
1, 92509, Note_on_c, 1, 67, 127
1, 92700, Note_off_c, 1, 51, 0
1, 92705, Note_on_c, 1, 53, 127
1, 92895, Note_off_c, 1, 67, 0
1, 92896, Note_off_c, 1, 53, 0
1, 93287, Note_off_c, 1, 75, 0
1, 93292, Note_on_c, 1, 72, 127
1, 93292, Note_on_c, 1, 80, 127
1, 93668, Note_off_c, 1, 72, 0
1, 94074, Note_on_c, 1, 70, 127
1, 94854, Note_off_c, 1, 80, 0
1, 94855, Note_on_c, 1, 79, 127
1, 95046, Note_off_c, 1, 70, 0
1, 95247, Note_on_c, 1, 65, 127
1, 95438, Note_off_c, 1, 65, 0
1, 95633, Note_off_c, 1, 79, 0
1, 95638, Note_on_c, 1, 77, 127
1, 97394, Note_off_c, 1, 77, 0
1, 97790, Note_on_c, 1, 74, 127
1, 97981, Note_off_c, 1, 74, 0
1, 99551, Note_on_c, 1, 73, 127
1, 99937, Note_off_c, 1, 73, 0
1, 99942, Note_on_c, 1, 82, 127
1, 100318, Note_off_c, 1, 82, 0
1, 100332, Note_on_c, 1, 55, 127
1, 100332, Note_on_c, 1, 73, 127
1, 100526, Note_on_c, 1, 63, 127
1, 100717, Note_off_c, 1, 55, 0
1, 100717, Note_off_c, 1, 63, 0
1, 100722, Note_on_c, 1, 65, 127
1, 100722, Note_on_c, 1, 51, 127
1, 100913, Note_off_c, 1, 65, 0
1, 100917, Note_on_c, 1, 67, 127
1, 101108, Note_off_c, 1, 73, 0
1, 101108, Note_off_c, 1, 67, 0
1, 101113, Note_on_c, 1, 72, 127
1, 101113, Note_on_c, 1, 68, 127
1, 101170, Note_off_c, 1, 51, 0
1, 101309, Note_on_c, 1, 44, 127
1, 101500, Note_off_c, 1, 44, 0
1, 101504, Note_on_c, 1, 46, 127
1, 101695, Note_off_c, 1, 46, 0
1, 101700, Note_on_c, 1, 48, 127
1, 101891, Note_off_c, 1, 72, 0
1, 101891, Note_off_c, 1, 48, 0
1, 101896, Note_on_c, 1, 49, 127
1, 101896, Note_on_c, 1, 70, 127
1, 102087, Note_off_c, 1, 49, 0
1, 102287, Note_on_c, 1, 53, 127
1, 102478, Note_off_c, 1, 53, 0
1, 102673, Note_off_c, 1, 68, 0
1, 103456, Note_off_c, 1, 70, 0
1, 103461, Note_on_c, 1, 48, 127
1, 103461, Note_on_c, 1, 68, 127
1, 103850, Note_on_c, 1, 67, 127
1, 104041, Note_off_c, 1, 67, 0
1, 104046, Note_on_c, 1, 65, 127
1, 104237, Note_off_c, 1, 65, 0
1, 104242, Note_on_c, 1, 63, 127
1, 104242, Note_on_c, 1, 56, 127
1, 104433, Note_off_c, 1, 48, 0
1, 104433, Note_off_c, 1, 63, 0
1, 104437, Note_on_c, 1, 61, 127
1, 104437, Note_on_c, 1, 49, 127
1, 104628, Note_off_c, 1, 56, 0
1, 104628, Note_off_c, 1, 61, 0
1, 104628, Note_off_c, 1, 49, 0
1, 104633, Note_on_c, 1, 60, 127
1, 104633, Note_on_c, 1, 51, 127
1, 104824, Note_off_c, 1, 60, 0
1, 104824, Note_off_c, 1, 51, 0
1, 105024, Note_on_c, 1, 53, 127
1, 105215, Note_off_c, 1, 68, 0
1, 105416, Note_on_c, 1, 70, 127
1, 105607, Note_off_c, 1, 70, 0
1, 105611, Note_on_c, 1, 72, 127
1, 105802, Note_off_c, 1, 72, 0
1, 105807, Note_on_c, 1, 73, 127
1, 105997, Note_off_c, 1, 53, 0
1, 106785, Note_on_c, 1, 55, 127
1, 106967, Note_off_c, 1, 73, 0
1, 106976, Note_off_c, 1, 55, 0
1, 107176, Note_on_c, 1, 75, 127
1, 107176, Note_on_c, 1, 58, 127
1, 107367, Note_off_c, 1, 75, 0
1, 107367, Note_off_c, 1, 58, 0
1, 107372, Note_on_c, 1, 80, 127
1, 107372, Note_on_c, 1, 60, 127
1, 107372, Note_on_c, 1, 63, 127
1, 107563, Note_off_c, 1, 80, 0
1, 107568, Note_on_c, 1, 79, 127
1, 107758, Note_off_c, 1, 60, 0
1, 107759, Note_off_c, 1, 79, 0
1, 107763, Note_on_c, 1, 55, 127
1, 107959, Note_on_c, 1, 82, 127
1, 108129, Note_off_c, 1, 55, 0
1, 108150, Note_off_c, 1, 82, 0
1, 108155, Note_on_c, 1, 84, 127
1, 108155, Note_on_c, 1, 56, 127
1, 108346, Note_off_c, 1, 84, 0
1, 108541, Note_off_c, 1, 56, 0
1, 108546, Note_on_c, 1, 53, 127
1, 108912, Note_off_c, 1, 53, 0
1, 108932, Note_off_c, 1, 63, 0
1, 108937, Note_on_c, 1, 77, 127
1, 108937, Note_on_c, 1, 58, 127
1, 108937, Note_on_c, 1, 61, 127
1, 109128, Note_off_c, 1, 77, 0
1, 109133, Note_on_c, 1, 79, 127
1, 109323, Note_off_c, 1, 58, 0
1, 109324, Note_off_c, 1, 79, 0
1, 109328, Note_on_c, 1, 80, 127
1, 109328, Note_on_c, 1, 53, 127
1, 109519, Note_off_c, 1, 80, 0
1, 109524, Note_on_c, 1, 84, 127
1, 109694, Note_off_c, 1, 53, 0
1, 109715, Note_off_c, 1, 84, 0
1, 109720, Note_on_c, 1, 82, 127
1, 109720, Note_on_c, 1, 55, 127
1, 109911, Note_off_c, 1, 82, 0
1, 110106, Note_off_c, 1, 55, 0
1, 110111, Note_on_c, 1, 51, 127
1, 110477, Note_off_c, 1, 51, 0
1, 110497, Note_off_c, 1, 61, 0
1, 110502, Note_on_c, 1, 75, 127
1, 110502, Note_on_c, 1, 56, 127
1, 110502, Note_on_c, 1, 60, 127
1, 110693, Note_off_c, 1, 75, 0
1, 110698, Note_on_c, 1, 77, 127
1, 110888, Note_off_c, 1, 56, 0
1, 110889, Note_off_c, 1, 77, 0
1, 110894, Note_on_c, 1, 79, 127
1, 110894, Note_on_c, 1, 51, 127
1, 111085, Note_off_c, 1, 79, 0
1, 111089, Note_on_c, 1, 82, 127
1, 111260, Note_off_c, 1, 51, 0
1, 111280, Note_off_c, 1, 82, 0
1, 111285, Note_on_c, 1, 80, 127
1, 111285, Note_on_c, 1, 53, 127
1, 111476, Note_off_c, 1, 80, 0
1, 111671, Note_off_c, 1, 53, 0
1, 111676, Note_on_c, 1, 50, 127
1, 112042, Note_off_c, 1, 50, 0
1, 112062, Note_off_c, 1, 60, 0
1, 112067, Note_on_c, 1, 74, 127
1, 112067, Note_on_c, 1, 55, 127
1, 112067, Note_on_c, 1, 58, 127
1, 112258, Note_off_c, 1, 74, 0
1, 112263, Note_on_c, 1, 75, 127
1, 112453, Note_off_c, 1, 55, 0
1, 112454, Note_off_c, 1, 75, 0
1, 112459, Note_on_c, 1, 77, 127
1, 112459, Note_on_c, 1, 50, 127
1, 112650, Note_off_c, 1, 77, 0
1, 112654, Note_on_c, 1, 80, 127
1, 112825, Note_off_c, 1, 50, 0
1, 112845, Note_off_c, 1, 80, 0
1, 112850, Note_on_c, 1, 79, 127
1, 112850, Note_on_c, 1, 52, 127
1, 113041, Note_off_c, 1, 79, 0
1, 113236, Note_off_c, 1, 52, 0
1, 113241, Note_on_c, 1, 76, 127
1, 113241, Note_on_c, 1, 48, 127
1, 113432, Note_off_c, 1, 76, 0
1, 113607, Note_off_c, 1, 48, 0
1, 113627, Note_off_c, 1, 58, 0
1, 113632, Note_on_c, 1, 77, 127
1, 113632, Note_on_c, 1, 50, 127
1, 113632, Note_on_c, 1, 65, 127
1, 113632, Note_on_c, 1, 56, 127
1, 113823, Note_off_c, 1, 77, 0
1, 113828, Note_on_c, 1, 76, 127
1, 114008, Note_off_c, 1, 50, 0
1, 114018, Note_off_c, 1, 65, 0
1, 114018, Note_off_c, 1, 56, 0
1, 114019, Note_off_c, 1, 76, 0
1, 114024, Note_on_c, 1, 77, 127
1, 114024, Note_on_c, 1, 72, 127
1, 114024, Note_on_c, 1, 52, 127
1, 114024, Note_on_c, 1, 55, 127
1, 114215, Note_off_c, 1, 77, 0
1, 114219, Note_on_c, 1, 79, 127
1, 114390, Note_off_c, 1, 72, 0
1, 114400, Note_off_c, 1, 52, 0
1, 114410, Note_off_c, 1, 79, 0
1, 114415, Note_on_c, 1, 68, 127
1, 114415, Note_on_c, 1, 53, 127
1, 114606, Note_off_c, 1, 55, 0
1, 114611, Note_on_c, 1, 58, 127
1, 114801, Note_off_c, 1, 68, 0
1, 114802, Note_off_c, 1, 58, 0
1, 114806, Note_on_c, 1, 56, 127
1, 114806, Note_on_c, 1, 65, 127
1, 114997, Note_off_c, 1, 56, 0
1, 115172, Note_off_c, 1, 65, 0
1, 115193, Note_off_c, 1, 53, 0
1, 115198, Note_on_c, 1, 73, 127
1, 115198, Note_on_c, 1, 46, 127
1, 115584, Note_off_c, 1, 73, 0
1, 115589, Note_on_c, 1, 70, 127
1, 115785, Note_on_c, 1, 76, 127
1, 115975, Note_off_c, 1, 70, 0
1, 115976, Note_off_c, 1, 46, 0
1, 115976, Note_off_c, 1, 76, 0
1, 115980, Note_on_c, 1, 77, 127
1, 115980, Note_on_c, 1, 56, 127
1, 115980, Note_on_c, 1, 72, 127
1, 115980, Note_on_c, 1, 53, 127
1, 116171, Note_off_c, 1, 77, 0
1, 116171, Note_off_c, 1, 56, 0
1, 116176, Note_on_c, 1, 76, 127
1, 116176, Note_on_c, 1, 58, 127
1, 116366, Note_off_c, 1, 72, 0
1, 116367, Note_off_c, 1, 76, 0
1, 116367, Note_off_c, 1, 58, 0
1, 116371, Note_on_c, 1, 74, 127
1, 116562, Note_off_c, 1, 74, 0
1, 116567, Note_on_c, 1, 79, 127
1, 116567, Note_on_c, 1, 55, 127
1, 116753, Note_off_c, 1, 53, 0
1, 116758, Note_off_c, 1, 79, 0
1, 116758, Note_off_c, 1, 55, 0
1, 116763, Note_on_c, 1, 53, 127
1, 116763, Note_on_c, 1, 77, 127
1, 116763, Note_on_c, 1, 80, 127
1, 116957, Note_on_c, 1, 41, 127
1, 117148, Note_off_c, 1, 53, 0
1, 117148, Note_off_c, 1, 41, 0
1, 117153, Note_on_c, 1, 43, 127
1, 117153, Note_on_c, 1, 72, 127
1, 117344, Note_off_c, 1, 43, 0
1, 117348, Note_on_c, 1, 44, 127
1, 117463, Note_off_c, 1, 77, 0
1, 117539, Note_off_c, 1, 72, 0
1, 117539, Note_off_c, 1, 44, 0
1, 117544, Note_on_c, 1, 46, 127
1, 117544, Note_on_c, 1, 73, 127
1, 117735, Note_off_c, 1, 46, 0
1, 117935, Note_on_c, 1, 70, 127
1, 118244, Note_off_c, 1, 73, 0
1, 118322, Note_off_c, 1, 80, 0
1, 118326, Note_on_c, 1, 39, 127
1, 118326, Note_on_c, 1, 75, 127
1, 118326, Note_on_c, 1, 79, 127
1, 118517, Note_off_c, 1, 39, 0
1, 118708, Note_off_c, 1, 70, 0
1, 119026, Note_off_c, 1, 75, 0
1, 119500, Note_on_c, 1, 68, 127
1, 119886, Note_off_c, 1, 79, 0
1, 119891, Note_on_c, 1, 37, 127
1, 120082, Note_off_c, 1, 37, 0
1, 120273, Note_off_c, 1, 68, 0
1, 121457, Note_on_c, 1, 70, 127
1, 121457, Note_on_c, 1, 48, 127
1, 121457, Note_on_c, 1, 76, 127
1, 121648, Note_off_c, 1, 70, 0
1, 121652, Note_on_c, 1, 68, 127
1, 121843, Note_off_c, 1, 68, 0
1, 121848, Note_on_c, 1, 67, 127
1, 121848, Note_on_c, 1, 36, 127
1, 122039, Note_off_c, 1, 67, 0
1, 122230, Note_off_c, 1, 48, 0
1, 122234, Note_off_c, 1, 36, 0
1, 122235, Note_off_c, 1, 76, 0
1, 122239, Note_on_c, 1, 41, 127
1, 122239, Note_on_c, 1, 68, 127
1, 122239, Note_on_c, 1, 77, 127
1, 122433, Note_on_c, 1, 48, 127
1, 122481, Note_off_c, 1, 41, 0
1, 122622, Note_off_c, 1, 48, 0
1, 122628, Note_on_c, 1, 50, 127
1, 122819, Note_off_c, 1, 50, 0
1, 122823, Note_on_c, 1, 52, 127
1, 123009, Note_off_c, 1, 68, 0
1, 123014, Note_off_c, 1, 52, 0
1, 123019, Note_on_c, 1, 53, 127
1, 123209, Note_off_c, 1, 77, 0
1, 123214, Note_on_c, 1, 75, 127
1, 123405, Note_off_c, 1, 75, 0
1, 123410, Note_on_c, 1, 73, 127
1, 123601, Note_off_c, 1, 73, 0
1, 123606, Note_on_c, 1, 72, 127
1, 123797, Note_off_c, 1, 72, 0
1, 123801, Note_on_c, 1, 70, 127
1, 123992, Note_off_c, 1, 70, 0
1, 124193, Note_on_c, 1, 67, 127
1, 124193, Note_on_c, 1, 58, 127
1, 124384, Note_off_c, 1, 67, 0
1, 124581, Note_off_c, 1, 53, 0
1, 124965, Note_off_c, 1, 58, 0
1, 124974, Note_on_c, 1, 60, 127
1, 125365, Note_on_c, 1, 69, 127
1, 125365, Note_on_c, 1, 51, 127
1, 125556, Note_off_c, 1, 69, 0
1, 125747, Note_off_c, 1, 60, 0
1, 125756, Note_on_c, 1, 57, 127
1, 126138, Note_off_c, 1, 51, 0
1, 126142, Note_off_c, 1, 57, 0
1, 126148, Note_on_c, 1, 77, 127
1, 126148, Note_on_c, 1, 58, 127
1, 126148, Note_on_c, 1, 49, 127
1, 126339, Note_off_c, 1, 77, 0
1, 126343, Note_on_c, 1, 75, 127
1, 126534, Note_off_c, 1, 58, 0
1, 126534, Note_off_c, 1, 75, 0
1, 126539, Note_on_c, 1, 73, 127
1, 126539, Note_on_c, 1, 65, 127
1, 126730, Note_off_c, 1, 73, 0
1, 126735, Note_on_c, 1, 72, 127
1, 126925, Note_off_c, 1, 65, 0
1, 126926, Note_off_c, 1, 49, 0
1, 126926, Note_off_c, 1, 72, 0
1, 126930, Note_on_c, 1, 70, 127
1, 126930, Note_on_c, 1, 61, 127
1, 126930, Note_on_c, 1, 54, 127
1, 127121, Note_off_c, 1, 70, 0
1, 127126, Note_on_c, 1, 73, 127
1, 127316, Note_off_c, 1, 61, 0
1, 127317, Note_off_c, 1, 73, 0
1, 127321, Note_on_c, 1, 78, 127
1, 127321, Note_on_c, 1, 58, 127
1, 127512, Note_off_c, 1, 78, 0
1, 127517, Note_on_c, 1, 77, 127
1, 127707, Note_off_c, 1, 58, 0
1, 127708, Note_off_c, 1, 77, 0
1, 127713, Note_on_c, 1, 75, 127
1, 127713, Note_on_c, 1, 66, 127
1, 127904, Note_off_c, 1, 75, 0
1, 128099, Note_off_c, 1, 54, 0
1, 128099, Note_off_c, 1, 66, 0
1, 128104, Note_on_c, 1, 72, 127
1, 128104, Note_on_c, 1, 54, 127
1, 128104, Note_on_c, 1, 63, 127
1, 128295, Note_off_c, 1, 72, 0
1, 128295, Note_off_c, 1, 54, 0
1, 128300, Note_on_c, 1, 70, 127
1, 128300, Note_on_c, 1, 53, 127
1, 128490, Note_off_c, 1, 63, 0
1, 128491, Note_off_c, 1, 70, 0
1, 128491, Note_off_c, 1, 53, 0
1, 128495, Note_on_c, 1, 51, 127
1, 128495, Note_on_c, 1, 69, 127
1, 128495, Note_on_c, 1, 65, 127
1, 128686, Note_off_c, 1, 51, 0
1, 128691, Note_on_c, 1, 54, 127
1, 128882, Note_off_c, 1, 54, 0
1, 128887, Note_on_c, 1, 53, 127
1, 129078, Note_off_c, 1, 53, 0
1, 129273, Note_off_c, 1, 69, 0
1, 129273, Note_off_c, 1, 65, 0
1, 129278, Note_on_c, 1, 70, 127
1, 129278, Note_on_c, 1, 49, 127
1, 129278, Note_on_c, 1, 65, 127
1, 129278, Note_on_c, 1, 58, 127
1, 129469, Note_off_c, 1, 70, 0
1, 129469, Note_off_c, 1, 49, 0
1, 129473, Note_on_c, 1, 72, 127
1, 129473, Note_on_c, 1, 48, 127
1, 129664, Note_off_c, 1, 65, 0
1, 129664, Note_off_c, 1, 72, 0
1, 129664, Note_off_c, 1, 48, 0
1, 129669, Note_on_c, 1, 46, 127
1, 129669, Note_on_c, 1, 73, 127
1, 129860, Note_off_c, 1, 46, 0
1, 130060, Note_on_c, 1, 51, 127
1, 130060, Note_on_c, 1, 66, 127
1, 130251, Note_off_c, 1, 51, 0
1, 130256, Note_on_c, 1, 53, 127
1, 130446, Note_off_c, 1, 66, 0
1, 130447, Note_off_c, 1, 73, 0
1, 130447, Note_off_c, 1, 53, 0
1, 130452, Note_on_c, 1, 54, 127
1, 130452, Note_on_c, 1, 63, 127
1, 130643, Note_off_c, 1, 54, 0
1, 130838, Note_off_c, 1, 58, 0
1, 130838, Note_off_c, 1, 63, 0
1, 130843, Note_on_c, 1, 57, 127
1, 130843, Note_on_c, 1, 72, 127
1, 130843, Note_on_c, 1, 53, 127
1, 130843, Note_on_c, 1, 75, 127
1, 131034, Note_off_c, 1, 57, 0
1, 131039, Note_on_c, 1, 58, 127
1, 131229, Note_off_c, 1, 72, 0
1, 131230, Note_off_c, 1, 58, 0
1, 131234, Note_on_c, 1, 60, 127
1, 131234, Note_on_c, 1, 69, 127
1, 131425, Note_off_c, 1, 60, 0
1, 131620, Note_off_c, 1, 69, 0
1, 131621, Note_off_c, 1, 53, 0
1, 131626, Note_on_c, 1, 46, 127
1, 131626, Note_on_c, 1, 70, 127
1, 131816, Note_off_c, 1, 75, 0
1, 132017, Note_on_c, 1, 73, 127
1, 132195, Note_off_c, 1, 46, 0
1, 132206, Note_off_c, 1, 73, 0
1, 132211, Note_on_c, 1, 77, 127
1, 132402, Note_off_c, 1, 77, 0
1, 132407, Note_on_c, 1, 82, 127
1, 132407, Note_on_c, 1, 61, 127
1, 132598, Note_off_c, 1, 70, 0
1, 132602, Note_on_c, 1, 65, 127
1, 132793, Note_off_c, 1, 82, 0
1, 132793, Note_off_c, 1, 65, 0
1, 132798, Note_on_c, 1, 66, 127
1, 132989, Note_off_c, 1, 66, 0
1, 132994, Note_on_c, 1, 68, 127
1, 133185, Note_off_c, 1, 68, 0
1, 133189, Note_on_c, 1, 78, 127
1, 133575, Note_off_c, 1, 78, 0
1, 133967, Note_off_c, 1, 61, 0
1, 133972, Note_on_c, 1, 63, 127
1, 133972, Note_on_c, 1, 80, 127
1, 133972, Note_on_c, 1, 60, 127
1, 134163, Note_off_c, 1, 63, 0
1, 134167, Note_on_c, 1, 65, 127
1, 134358, Note_off_c, 1, 80, 0
1, 134358, Note_off_c, 1, 65, 0
1, 134363, Note_on_c, 1, 66, 127
1, 134363, Note_on_c, 1, 75, 127
1, 134554, Note_off_c, 1, 66, 0
1, 134559, Note_on_c, 1, 70, 127
1, 134749, Note_off_c, 1, 75, 0
1, 134750, Note_off_c, 1, 70, 0
1, 134754, Note_on_c, 1, 68, 127
1, 134754, Note_on_c, 1, 77, 127
1, 134945, Note_off_c, 1, 68, 0
1, 135140, Note_off_c, 1, 77, 0
1, 135146, Note_on_c, 1, 73, 127
1, 135337, Note_off_c, 1, 73, 0
1, 135532, Note_off_c, 1, 60, 0
1, 135537, Note_on_c, 1, 61, 127
1, 135537, Note_on_c, 1, 78, 127
1, 135537, Note_on_c, 1, 58, 127
1, 135728, Note_off_c, 1, 61, 0
1, 135732, Note_on_c, 1, 63, 127
1, 135923, Note_off_c, 1, 78, 0
1, 135923, Note_off_c, 1, 63, 0
1, 135928, Note_on_c, 1, 65, 127
1, 135928, Note_on_c, 1, 73, 127
1, 136119, Note_off_c, 1, 65, 0
1, 136124, Note_on_c, 1, 68, 127
1, 136314, Note_off_c, 1, 73, 0
1, 136315, Note_off_c, 1, 68, 0
1, 136319, Note_on_c, 1, 66, 127
1, 136319, Note_on_c, 1, 75, 127
1, 136510, Note_off_c, 1, 66, 0
1, 136705, Note_off_c, 1, 75, 0
1, 136711, Note_on_c, 1, 72, 127
1, 137097, Note_off_c, 1, 58, 0
1, 137097, Note_off_c, 1, 72, 0
1, 137102, Note_on_c, 1, 60, 127
1, 137102, Note_on_c, 1, 77, 127
1, 137102, Note_on_c, 1, 57, 127
1, 137293, Note_off_c, 1, 60, 0
1, 137298, Note_on_c, 1, 61, 127
1, 137488, Note_off_c, 1, 77, 0
1, 137489, Note_off_c, 1, 61, 0
1, 137493, Note_on_c, 1, 63, 127
1, 137493, Note_on_c, 1, 72, 127
1, 137684, Note_off_c, 1, 63, 0
1, 137689, Note_on_c, 1, 66, 127
1, 137879, Note_off_c, 1, 72, 0
1, 137880, Note_off_c, 1, 57, 0
1, 137880, Note_off_c, 1, 66, 0
1, 137885, Note_on_c, 1, 58, 127
1, 137885, Note_on_c, 1, 65, 127
1, 137885, Note_on_c, 1, 73, 127
1, 138076, Note_off_c, 1, 58, 0
1, 138080, Note_on_c, 1, 63, 127
1, 138271, Note_off_c, 1, 63, 0
1, 138276, Note_on_c, 1, 61, 127
1, 138467, Note_off_c, 1, 61, 0
1, 138471, Note_on_c, 1, 60, 127
1, 138662, Note_off_c, 1, 60, 0
1, 138663, Note_off_c, 1, 65, 0
1, 138863, Note_on_c, 1, 56, 127
1, 139054, Note_off_c, 1, 56, 0
1, 139058, Note_on_c, 1, 55, 127
1, 139058, Note_on_c, 1, 70, 127
1, 139249, Note_off_c, 1, 55, 0
1, 139254, Note_on_c, 1, 53, 127
1, 139444, Note_off_c, 1, 70, 0
1, 139445, Note_off_c, 1, 53, 0
1, 139450, Note_on_c, 1, 51, 127
1, 139450, Note_on_c, 1, 67, 127
1, 139641, Note_off_c, 1, 51, 0
1, 140150, Note_off_c, 1, 67, 0
1, 140228, Note_off_c, 1, 73, 0
1, 140232, Note_on_c, 1, 72, 127
1, 140618, Note_off_c, 1, 72, 0
1, 140623, Note_on_c, 1, 53, 127
1, 140623, Note_on_c, 1, 77, 127
1, 140623, Note_on_c, 1, 68, 127
1, 140814, Note_off_c, 1, 53, 0
1, 140819, Note_on_c, 1, 55, 127
1, 141009, Note_off_c, 1, 77, 0
1, 141009, Note_off_c, 1, 68, 0
1, 141010, Note_off_c, 1, 55, 0
1, 141015, Note_on_c, 1, 56, 127
1, 141015, Note_on_c, 1, 65, 127
1, 141015, Note_on_c, 1, 74, 127
1, 141206, Note_off_c, 1, 56, 0
1, 141210, Note_on_c, 1, 60, 127
1, 141395, Note_off_c, 1, 65, 0
1, 141401, Note_off_c, 1, 74, 0
1, 141401, Note_off_c, 1, 60, 0
1, 141406, Note_on_c, 1, 58, 127
1, 141406, Note_on_c, 1, 62, 127
1, 141406, Note_on_c, 1, 70, 127
1, 141597, Note_off_c, 1, 58, 0
1, 141602, Note_on_c, 1, 56, 127
1, 141772, Note_off_c, 1, 62, 0
1, 141793, Note_off_c, 1, 56, 0
1, 141797, Note_on_c, 1, 55, 127
1, 141797, Note_on_c, 1, 75, 127
1, 141988, Note_off_c, 1, 55, 0
1, 141993, Note_on_c, 1, 53, 127
1, 142106, Note_off_c, 1, 70, 0
1, 142184, Note_off_c, 1, 53, 0
1, 142189, Note_on_c, 1, 51, 127
1, 142189, Note_on_c, 1, 67, 127
1, 142380, Note_off_c, 1, 51, 0
1, 142384, Note_on_c, 1, 49, 127
1, 142575, Note_off_c, 1, 67, 0
1, 142575, Note_off_c, 1, 49, 0
1, 142580, Note_on_c, 1, 68, 127
1, 142580, Note_on_c, 1, 48, 127
1, 142771, Note_off_c, 1, 68, 0
1, 142966, Note_off_c, 1, 48, 0
1, 142971, Note_on_c, 1, 72, 127
1, 143162, Note_off_c, 1, 72, 0
1, 143357, Note_off_c, 1, 75, 0
1, 143362, Note_on_c, 1, 68, 127
1, 143362, Note_on_c, 1, 58, 127
1, 143362, Note_on_c, 1, 74, 127
1, 143553, Note_off_c, 1, 68, 0
1, 143558, Note_on_c, 1, 67, 127
1, 143748, Note_off_c, 1, 58, 0
1, 143749, Note_off_c, 1, 67, 0
1, 143754, Note_on_c, 1, 65, 127
1, 143754, Note_on_c, 1, 46, 127
1, 143945, Note_off_c, 1, 65, 0
1, 144140, Note_off_c, 1, 74, 0
1, 144140, Note_off_c, 1, 46, 0
1, 144145, Note_on_c, 1, 67, 127
1, 144145, Note_on_c, 1, 51, 127
1, 144145, Note_on_c, 1, 75, 127
1, 144336, Note_off_c, 1, 67, 0
1, 144341, Note_on_c, 1, 68, 127
1, 144532, Note_off_c, 1, 68, 0
1, 144536, Note_on_c, 1, 70, 127
1, 144727, Note_off_c, 1, 70, 0
1, 144928, Note_on_c, 1, 63, 127
1, 145118, Note_off_c, 1, 51, 0
1, 145123, Note_on_c, 1, 53, 127
1, 145314, Note_off_c, 1, 53, 0
1, 145319, Note_on_c, 1, 55, 127
1, 145510, Note_off_c, 1, 55, 0
1, 145514, Note_on_c, 1, 56, 127
1, 145705, Note_off_c, 1, 56, 0
1, 145707, Note_off_c, 1, 75, 0
1, 145709, Note_on_c, 1, 58, 127
1, 145900, Note_off_c, 1, 58, 0
1, 145904, Note_on_c, 1, 60, 127
1, 146028, Note_off_c, 1, 63, 0
1, 146095, Note_off_c, 1, 60, 0
1, 146100, Note_on_c, 1, 61, 127
1, 146291, Note_off_c, 1, 61, 0
1, 146491, Note_on_c, 1, 73, 127
1, 147264, Note_off_c, 1, 73, 0
1, 147274, Note_on_c, 1, 56, 127
1, 147274, Note_on_c, 1, 72, 127
1, 147465, Note_off_c, 1, 56, 0
1, 147469, Note_on_c, 1, 51, 127
1, 147660, Note_off_c, 1, 51, 0
1, 147665, Note_on_c, 1, 53, 127
1, 147856, Note_off_c, 1, 53, 0
1, 147861, Note_on_c, 1, 55, 127
1, 148052, Note_off_c, 1, 55, 0
1, 148056, Note_on_c, 1, 68, 127
1, 148252, Note_on_c, 1, 58, 127
1, 148443, Note_off_c, 1, 58, 0
1, 148448, Note_on_c, 1, 60, 127
1, 148448, Note_on_c, 1, 75, 127
1, 148639, Note_off_c, 1, 60, 0
1, 148643, Note_on_c, 1, 61, 127
1, 148834, Note_off_c, 1, 61, 0
1, 148836, Note_off_c, 1, 72, 0
1, 148837, Note_on_c, 1, 63, 127
1, 149028, Note_off_c, 1, 63, 0
1, 149033, Note_on_c, 1, 65, 127
1, 149156, Note_off_c, 1, 68, 0
1, 149220, Note_off_c, 1, 75, 0
1, 149224, Note_off_c, 1, 65, 0
1, 149229, Note_on_c, 1, 66, 127
1, 149420, Note_off_c, 1, 66, 0
1, 149620, Note_on_c, 1, 63, 127
1, 149620, Note_on_c, 1, 72, 127
1, 149620, Note_on_c, 1, 78, 127
1, 149811, Note_off_c, 1, 63, 0
1, 149816, Note_on_c, 1, 61, 127
1, 150007, Note_off_c, 1, 61, 0
1, 150011, Note_on_c, 1, 60, 127
1, 150011, Note_on_c, 1, 75, 127
1, 150202, Note_off_c, 1, 60, 0
1, 150393, Note_off_c, 1, 72, 0
1, 150398, Note_off_c, 1, 78, 0
1, 150403, Note_on_c, 1, 77, 127
1, 150789, Note_off_c, 1, 75, 0
1, 150794, Note_on_c, 1, 65, 127
1, 150794, Note_on_c, 1, 68, 127
1, 150985, Note_off_c, 1, 65, 0
1, 151180, Note_off_c, 1, 68, 0
1, 151185, Note_on_c, 1, 70, 127
1, 151573, Note_off_c, 1, 77, 0
1, 151575, Note_on_c, 1, 58, 127
1, 151575, Note_on_c, 1, 79, 127
1, 151575, Note_on_c, 1, 73, 127
1, 151766, Note_off_c, 1, 58, 0
1, 151961, Note_off_c, 1, 79, 0
1, 152353, Note_off_c, 1, 73, 0
1, 152354, Note_off_c, 1, 70, 0
1, 152356, Note_on_c, 1, 67, 127
1, 152742, Note_off_c, 1, 67, 0
1, 152747, Note_on_c, 1, 69, 127
1, 153137, Note_on_c, 1, 57, 127
1, 153328, Note_off_c, 1, 57, 0
1, 153519, Note_off_c, 1, 69, 0
1, 154311, Note_on_c, 1, 58, 127
1, 154311, Note_on_c, 1, 73, 127
1, 154311, Note_on_c, 1, 70, 127
1, 154502, Note_off_c, 1, 58, 0
1, 154507, Note_on_c, 1, 56, 127
1, 154697, Note_off_c, 1, 73, 0
1, 154698, Note_off_c, 1, 56, 0
1, 154702, Note_on_c, 1, 55, 127
1, 154702, Note_on_c, 1, 82, 127
1, 154893, Note_off_c, 1, 55, 0
1, 155088, Note_off_c, 1, 82, 0
1, 155094, Note_on_c, 1, 72, 127
1, 155480, Note_off_c, 1, 72, 0
1, 155676, Note_off_c, 1, 70, 0
1, 155680, Note_on_c, 1, 70, 127
1, 155680, Note_on_c, 1, 55, 127
1, 155871, Note_off_c, 1, 70, 0
1, 155871, Note_off_c, 1, 55, 0
1, 155876, Note_on_c, 1, 53, 127
1, 155876, Note_on_c, 1, 72, 127
1, 155876, Note_on_c, 1, 68, 127
1, 156067, Note_off_c, 1, 53, 0
1, 156072, Note_on_c, 1, 51, 127
1, 156262, Note_off_c, 1, 72, 0
1, 156263, Note_off_c, 1, 51, 0
1, 156267, Note_on_c, 1, 80, 127
1, 156463, Note_on_c, 1, 49, 127
1, 156653, Note_off_c, 1, 80, 0
1, 156654, Note_off_c, 1, 49, 0
1, 156659, Note_on_c, 1, 70, 127
1, 156849, Note_off_c, 1, 68, 0
1, 156854, Note_on_c, 1, 67, 127
1, 157045, Note_off_c, 1, 70, 0
1, 157045, Note_off_c, 1, 67, 0
1, 157050, Note_on_c, 1, 68, 127
1, 157050, Note_on_c, 1, 48, 127
1, 157241, Note_off_c, 1, 68, 0
1, 157241, Note_off_c, 1, 48, 0
1, 157246, Note_on_c, 1, 70, 127
1, 157246, Note_on_c, 1, 46, 127
1, 157437, Note_off_c, 1, 70, 0
1, 157437, Note_off_c, 1, 46, 0
1, 157441, Note_on_c, 1, 44, 127
1, 157441, Note_on_c, 1, 72, 127
1, 157635, Note_on_c, 1, 75, 127
1, 157826, Note_off_c, 1, 44, 0
1, 157826, Note_off_c, 1, 75, 0
1, 157831, Note_on_c, 1, 77, 127
1, 157831, Note_on_c, 1, 51, 127
1, 158022, Note_off_c, 1, 77, 0
1, 158027, Note_on_c, 1, 79, 127
1, 158217, Note_off_c, 1, 51, 0
1, 158218, Note_off_c, 1, 79, 0
1, 158222, Note_on_c, 1, 48, 127
1, 158222, Note_on_c, 1, 80, 127
1, 158413, Note_off_c, 1, 72, 0
1, 158418, Note_on_c, 1, 73, 127
1, 158608, Note_off_c, 1, 48, 0
1, 158609, Note_off_c, 1, 73, 0
1, 159005, Note_on_c, 1, 53, 127
1, 159195, Note_off_c, 1, 80, 0
1, 159391, Note_off_c, 1, 53, 0
1, 159396, Note_on_c, 1, 49, 127
1, 159782, Note_off_c, 1, 49, 0
1, 160179, Note_on_c, 1, 70, 127
1, 160370, Note_off_c, 1, 70, 0
1, 160570, Note_on_c, 1, 52, 127
1, 160570, Note_on_c, 1, 55, 127
1, 160761, Note_off_c, 1, 52, 0
1, 160766, Note_on_c, 1, 58, 127
1, 160956, Note_off_c, 1, 55, 0
1, 160957, Note_off_c, 1, 58, 0
1, 160961, Note_on_c, 1, 56, 127
1, 160961, Note_on_c, 1, 60, 127
1, 161152, Note_off_c, 1, 56, 0
1, 161347, Note_off_c, 1, 60, 0
1, 161744, Note_on_c, 1, 68, 127
1, 161935, Note_off_c, 1, 68, 0
1, 161939, Note_on_c, 1, 67, 127
1, 162130, Note_off_c, 1, 67, 0
1, 162135, Note_on_c, 1, 62, 127
1, 162521, Note_off_c, 1, 62, 0
1, 162526, Note_on_c, 1, 59, 127
1, 162912, Note_off_c, 1, 59, 0
1, 163699, Note_on_c, 1, 63, 127
1, 164085, Note_off_c, 1, 63, 0
1, 164481, Note_on_c, 1, 65, 127
1, 164867, Note_off_c, 1, 65, 0
1, 164873, Note_on_c, 1, 61, 127
1, 165259, Note_off_c, 1, 61, 0
1, 167025, Note_on_c, 1, 41, 127
1, 167216, Note_off_c, 1, 41, 0
1, 167219, Note_on_c, 1, 43, 127
1, 167219, Note_on_c, 1, 77, 127
1, 167410, Note_off_c, 1, 43, 0
1, 167414, Note_on_c, 1, 44, 127
1, 167605, Note_off_c, 1, 77, 0
1, 167605, Note_off_c, 1, 44, 0
1, 167610, Note_on_c, 1, 46, 127
1, 167610, Note_on_c, 1, 73, 127
1, 167802, Note_off_c, 1, 46, 0
1, 167807, Note_on_c, 1, 48, 127
1, 167999, Note_off_c, 1, 48, 0
1, 168004, Note_on_c, 1, 49, 127
1, 168004, Note_on_c, 1, 70, 127
1, 168196, Note_off_c, 1, 49, 0
1, 168201, Note_on_c, 1, 51, 127
1, 168393, Note_off_c, 1, 70, 0
1, 168393, Note_off_c, 1, 51, 0
1, 168399, Note_on_c, 1, 78, 127
1, 168595, Note_off_c, 1, 73, 0
1, 168788, Note_off_c, 1, 78, 0
1, 168793, Note_on_c, 1, 46, 127
1, 168793, Note_on_c, 1, 75, 127
1, 168793, Note_on_c, 1, 72, 127
1, 168985, Note_off_c, 1, 46, 0
1, 168990, Note_on_c, 1, 44, 127
1, 169182, Note_off_c, 1, 75, 0
1, 169182, Note_off_c, 1, 72, 0
1, 169182, Note_off_c, 1, 44, 0
1, 169187, Note_on_c, 1, 49, 127
1, 169187, Note_on_c, 1, 75, 127
1, 169187, Note_on_c, 1, 77, 127
1, 169187, Note_on_c, 1, 68, 127
1, 169379, Note_off_c, 1, 49, 0
1, 169384, Note_on_c, 1, 48, 127
1, 169576, Note_off_c, 1, 75, 0
1, 169576, Note_off_c, 1, 48, 0
1, 169581, Note_on_c, 1, 73, 127
1, 169778, Note_on_c, 1, 53, 127
1, 169970, Note_off_c, 1, 53, 0
1, 169971, Note_off_c, 1, 77, 0
1, 169975, Note_on_c, 1, 51, 127
1, 169975, Note_on_c, 1, 80, 127
1, 170156, Note_off_c, 1, 73, 0
1, 170167, Note_off_c, 1, 51, 0
1, 170172, Note_off_c, 1, 68, 0
1, 170172, Note_on_c, 1, 50, 127
1, 170364, Note_off_c, 1, 80, 0
1, 170364, Note_off_c, 1, 50, 0
1, 170370, Note_on_c, 1, 48, 127
1, 170370, Note_on_c, 1, 77, 127
1, 170370, Note_on_c, 1, 74, 127
1, 170562, Note_off_c, 1, 48, 0
1, 170567, Note_on_c, 1, 46, 127
1, 170759, Note_off_c, 1, 77, 0
1, 170759, Note_off_c, 1, 74, 0
1, 170759, Note_off_c, 1, 46, 0
1, 170764, Note_on_c, 1, 51, 127
1, 170764, Note_on_c, 1, 77, 127
1, 170764, Note_on_c, 1, 79, 127
1, 170764, Note_on_c, 1, 70, 127
1, 170956, Note_off_c, 1, 51, 0
1, 170961, Note_on_c, 1, 50, 127
1, 171153, Note_off_c, 1, 77, 0
1, 171153, Note_off_c, 1, 50, 0
1, 171158, Note_on_c, 1, 75, 127
1, 171355, Note_on_c, 1, 55, 127
1, 171547, Note_off_c, 1, 55, 0
1, 171548, Note_off_c, 1, 79, 0
1, 171552, Note_on_c, 1, 53, 127
1, 171552, Note_on_c, 1, 82, 127
1, 171733, Note_off_c, 1, 75, 0
1, 171744, Note_off_c, 1, 53, 0
1, 171749, Note_off_c, 1, 70, 0
1, 171749, Note_on_c, 1, 52, 127
1, 171941, Note_off_c, 1, 82, 0
1, 171941, Note_off_c, 1, 52, 0
1, 171946, Note_on_c, 1, 50, 127
1, 171946, Note_on_c, 1, 79, 127
1, 171946, Note_on_c, 1, 76, 127
1, 172138, Note_off_c, 1, 50, 0
1, 172143, Note_on_c, 1, 48, 127
1, 172335, Note_off_c, 1, 79, 0
1, 172335, Note_off_c, 1, 76, 0
1, 172335, Note_off_c, 1, 48, 0
1, 172341, Note_on_c, 1, 53, 127
1, 172341, Note_on_c, 1, 80, 127
1, 172341, Note_on_c, 1, 77, 127
1, 172341, Note_on_c, 1, 72, 127
1, 172533, Note_off_c, 1, 53, 0
1, 172538, Note_on_c, 1, 55, 127
1, 172730, Note_off_c, 1, 80, 0
1, 172730, Note_off_c, 1, 77, 0
1, 172730, Note_off_c, 1, 55, 0
1, 172735, Note_on_c, 1, 56, 127
1, 172927, Note_off_c, 1, 56, 0
1, 173120, Note_off_c, 1, 72, 0
1, 173129, Note_on_c, 1, 58, 127
1, 173129, Note_on_c, 1, 73, 127
1, 173321, Note_off_c, 1, 58, 0
1, 173326, Note_on_c, 1, 56, 127
1, 173518, Note_off_c, 1, 56, 0
1, 173523, Note_on_c, 1, 55, 127
1, 173523, Note_on_c, 1, 70, 127
1, 173715, Note_off_c, 1, 55, 0
1, 173720, Note_on_c, 1, 53, 127
1, 173912, Note_off_c, 1, 53, 0
1, 173917, Note_on_c, 1, 51, 127
1, 173917, Note_on_c, 1, 67, 127
1, 174109, Note_off_c, 1, 51, 0
1, 174114, Note_on_c, 1, 49, 127
1, 174302, Note_off_c, 1, 70, 0
1, 174306, Note_off_c, 1, 67, 0
1, 174306, Note_off_c, 1, 49, 0
1, 174307, Note_off_c, 1, 73, 0
1, 174312, Note_on_c, 1, 48, 127
1, 174312, Note_on_c, 1, 67, 127
1, 174312, Note_on_c, 1, 70, 127
1, 174312, Note_on_c, 1, 75, 127
1, 174504, Note_off_c, 1, 48, 0
1, 174509, Note_on_c, 1, 46, 127
1, 174701, Note_off_c, 1, 67, 0
1, 174701, Note_off_c, 1, 70, 0
1, 174701, Note_off_c, 1, 46, 0
1, 174706, Note_on_c, 1, 44, 127
1, 174706, Note_on_c, 1, 72, 127
1, 174706, Note_on_c, 1, 68, 127
1, 174898, Note_off_c, 1, 44, 0
1, 175091, Note_off_c, 1, 75, 0
1, 175095, Note_off_c, 1, 72, 0
1, 175095, Note_off_c, 1, 68, 0
1, 175100, Note_on_c, 1, 48, 127
1, 175100, Note_on_c, 1, 77, 127
1, 175100, Note_on_c, 1, 65, 127
1, 175100, Note_on_c, 1, 68, 127
1, 175292, Note_off_c, 1, 48, 0
1, 175297, Note_on_c, 1, 49, 127
1, 175489, Note_off_c, 1, 77, 0
1, 175489, Note_off_c, 1, 65, 0
1, 175489, Note_off_c, 1, 68, 0
1, 175489, Note_off_c, 1, 49, 0
1, 175494, Note_on_c, 1, 51, 127
1, 175494, Note_on_c, 1, 72, 127
1, 175494, Note_on_c, 1, 63, 127
1, 175494, Note_on_c, 1, 68, 127
1, 175688, Note_off_c, 1, 51, 0
1, 175693, Note_on_c, 1, 49, 127
1, 175887, Note_off_c, 1, 49, 0
1, 175891, Note_on_c, 1, 48, 127
1, 176085, Note_off_c, 1, 48, 0
1, 176283, Note_off_c, 1, 72, 0
1, 176283, Note_off_c, 1, 63, 0
1, 176288, Note_on_c, 1, 61, 127
1, 176288, Note_on_c, 1, 70, 127
1, 176682, Note_off_c, 1, 68, 0
1, 176684, Note_on_c, 1, 67, 127
1, 176684, Note_on_c, 1, 39, 127
1, 177072, Note_off_c, 1, 61, 0
1, 177076, Note_off_c, 1, 67, 0
1, 177076, Note_off_c, 1, 39, 0
1, 177081, Note_on_c, 1, 65, 127
1, 177081, Note_on_c, 1, 60, 127
1, 177081, Note_on_c, 1, 41, 127
1, 177473, Note_off_c, 1, 70, 0
1, 177949, Note_off_c, 1, 65, 0
1, 177949, Note_off_c, 1, 60, 0
1, 177990, Note_off_c, 1, 41, 0
1, 178273, Note_on_c, 1, 41, 127
1, 178273, Note_on_c, 1, 75, 127
1, 178273, Note_on_c, 1, 63, 127
1, 178273, Note_on_c, 1, 70, 127
1, 178467, Note_off_c, 1, 41, 0
1, 178471, Note_on_c, 1, 43, 127
1, 178665, Note_off_c, 1, 75, 0
1, 178665, Note_off_c, 1, 63, 0
1, 178665, Note_off_c, 1, 70, 0
1, 178665, Note_off_c, 1, 43, 0
1, 178670, Note_on_c, 1, 44, 127
1, 178670, Note_on_c, 1, 72, 127
1, 178670, Note_on_c, 1, 68, 127
1, 178670, Note_on_c, 1, 63, 127
1, 178871, Note_off_c, 1, 44, 0
1, 178875, Note_on_c, 1, 46, 127
1, 179076, Note_off_c, 1, 46, 0
1, 179077, Note_off_c, 1, 72, 0
1, 179077, Note_off_c, 1, 68, 0
1, 179081, Note_on_c, 1, 48, 127
1, 179282, Note_off_c, 1, 48, 0
1, 179287, Note_on_c, 1, 51, 127
1, 179484, Note_off_c, 1, 63, 0
1, 179488, Note_off_c, 1, 51, 0
1, 179493, Note_on_c, 1, 49, 127
1, 179493, Note_on_c, 1, 77, 127
1, 179694, Note_off_c, 1, 49, 0
1, 179900, Note_off_c, 1, 77, 0
1, 179905, Note_on_c, 1, 46, 127
1, 179905, Note_on_c, 1, 73, 127
1, 179905, Note_on_c, 1, 65, 127
1, 179905, Note_on_c, 1, 70, 127
1, 180106, Note_off_c, 1, 46, 0
1, 180111, Note_on_c, 1, 44, 127
1, 180312, Note_off_c, 1, 73, 0
1, 180312, Note_off_c, 1, 65, 0
1, 180312, Note_off_c, 1, 70, 0
1, 180312, Note_off_c, 1, 44, 0
1, 180317, Note_on_c, 1, 43, 127
1, 180317, Note_on_c, 1, 70, 127
1, 180317, Note_on_c, 1, 63, 127
1, 180317, Note_on_c, 1, 75, 127
1, 180528, Note_off_c, 1, 43, 0
1, 180533, Note_on_c, 1, 41, 127
1, 180744, Note_off_c, 1, 41, 0
1, 180749, Note_on_c, 1, 39, 127
1, 180749, Note_on_c, 1, 67, 127
1, 180960, Note_off_c, 1, 39, 0
1, 180965, Note_on_c, 1, 37, 127
1, 181172, Note_off_c, 1, 70, 0
1, 181176, Note_off_c, 1, 67, 0
1, 181176, Note_off_c, 1, 37, 0
1, 181181, Note_on_c, 1, 36, 127
1, 181181, Note_on_c, 1, 68, 127
1, 181392, Note_off_c, 1, 36, 0
1, 181609, Note_off_c, 1, 63, 0
1, 181612, Note_off_c, 1, 75, 0
1, 181614, Note_on_c, 1, 58, 127
1, 181614, Note_on_c, 1, 65, 127
1, 182041, Note_off_c, 1, 58, 0
1, 182041, Note_off_c, 1, 65, 0
1, 182276, Note_on_c, 1, 60, 127
1, 182500, Note_off_c, 1, 60, 0
1, 182505, Note_on_c, 1, 61, 127
1, 182729, Note_off_c, 1, 61, 0
1, 182959, Note_off_c, 1, 68, 0
1, 182963, Note_on_c, 1, 63, 127
1, 182963, Note_on_c, 1, 67, 127
1, 182963, Note_on_c, 1, 51, 127
1, 183225, Note_on_c, 1, 61, 127
1, 183480, Note_off_c, 1, 61, 0
1, 183486, Note_on_c, 1, 60, 127
1, 183741, Note_off_c, 1, 60, 0
1, 183996, Note_off_c, 1, 63, 0
1, 184002, Note_off_c, 1, 67, 0
1, 184002, Note_off_c, 1, 51, 0
1, 184009, Note_on_c, 1, 68, 127
1, 184009, Note_on_c, 1, 60, 127
1, 184009, Note_on_c, 1, 51, 127
1, 184009, Note_on_c, 1, 44, 127
1, 187666, Note_off_c, 1, 68, 0
1, 187666, Note_off_c, 1, 60, 0
1, 187666, Note_off_c, 1, 51, 0
1, 187666, Note_off_c, 1, 44, 0
1, 187666, End_track
0, 0, End_of_file