0, 0, Header, 1, 1, 480
1, 0, Start_track
1, 0, Title_t, "Test"
1, 0, Tempo, 500000
1, 0, Instrument_name_t, "Church Organ"
1, 64, Note_on_c, 1, 65, 127
1, 64, Note_on_c, 1, 56, 127
1, 64, Note_on_c, 1, 53, 127
1, 337, Note_on_c, 1, 68, 127
1, 607, Note_off_c, 1, 68, 0
1, 611, Note_on_c, 1, 72, 127
1, 881, Note_off_c, 1, 72, 0
1, 884, Note_on_c, 1, 77, 127
1, 1147, Note_off_c, 1, 65, 0
1, 1155, Note_off_c, 1, 56, 0
1, 1158, Note_on_c, 1, 67, 127
1, 1158, Note_on_c, 1, 58, 127
1, 1425, Note_off_c, 1, 77, 0
1, 1705, Note_on_c, 1, 76, 127
1, 1975, Note_off_c, 1, 76, 0
1, 1979, Note_on_c, 1, 79, 127
1, 2241, Note_off_c, 1, 67, 0
1, 2249, Note_off_c, 1, 53, 0
1, 2249, Note_off_c, 1, 58, 0
1, 2249, Note_off_c, 1, 79, 0
1, 2252, Note_on_c, 1, 60, 127
1, 2252, Note_on_c, 1, 68, 127
1, 2252, Note_on_c, 1, 53, 127
1, 2526, Note_on_c, 1, 72, 127
1, 2796, Note_off_c, 1, 72, 0
1, 2800, Note_on_c, 1, 77, 127
1, 3070, Note_off_c, 1, 77, 0
1, 3073, Note_on_c, 1, 76, 127
1, 3343, Note_off_c, 1, 60, 0
1, 3343, Note_off_c, 1, 76, 0
1, 3347, Note_on_c, 1, 56, 127
1, 3620, Note_off_c, 1, 68, 0
1, 3894, Note_on_c, 1, 70, 127
1, 4164, Note_off_c, 1, 70, 0
1, 4437, Note_off_c, 1, 53, 0
1, 4438, Note_off_c, 1, 56, 0
1, 4441, Note_on_c, 1, 58, 127
1, 4441, Note_on_c, 1, 73, 127
1, 4988, Note_on_c, 1, 67, 127
1, 5258, Note_off_c, 1, 67, 0
1, 5532, Note_off_c, 1, 58, 0
1, 5536, Note_on_c, 1, 64, 127
1, 5536, Note_on_c, 1, 55, 127
1, 5786, Note_off_c, 1, 73, 0
1, 6619, Note_off_c, 1, 64, 0
1, 6627, Note_off_c, 1, 55, 0
1, 6630, Note_on_c, 1, 68, 127
1, 6630, Note_on_c, 1, 65, 127
1, 6630, Note_on_c, 1, 53, 127
1, 6763, Note_off_c, 1, 68, 0
1, 6763, Note_off_c, 1, 65, 0
1, 6767, Note_on_c, 1, 67, 127
1, 6900, Note_off_c, 1, 67, 0
1, 6904, Note_on_c, 1, 56, 127
1, 7174, Note_off_c, 1, 56, 0
1, 7177, Note_on_c, 1, 60, 127
1, 7447, Note_off_c, 1, 60, 0
1, 7588, Note_on_c, 1, 70, 127
1, 7713, Note_off_c, 1, 53, 0
1, 7721, Note_off_c, 1, 70, 0
1, 7724, Note_on_c, 1, 72, 127
1, 7724, Note_on_c, 1, 55, 127
1, 7857, Note_off_c, 1, 72, 0
1, 8272, Note_on_c, 1, 64, 127
1, 8542, Note_off_c, 1, 64, 0
1, 8807, Note_off_c, 1, 55, 0
1, 8819, Note_on_c, 1, 72, 127
1, 8819, Note_on_c, 1, 56, 127
1, 9092, Note_on_c, 1, 68, 127
1, 9362, Note_off_c, 1, 68, 0
1, 9366, Note_on_c, 1, 64, 127
1, 9636, Note_off_c, 1, 64, 0
1, 9640, Note_on_c, 1, 65, 127
1, 9902, Note_off_c, 1, 72, 0
1, 9910, Note_off_c, 1, 56, 0
1, 9910, Note_off_c, 1, 65, 0
1, 9913, Note_on_c, 1, 61, 127
1, 9913, Note_on_c, 1, 58, 127
1, 10187, Note_on_c, 1, 73, 127
1, 10460, Note_on_c, 1, 67, 127
1, 10728, Note_off_c, 1, 73, 0
1, 10734, Note_on_c, 1, 70, 127
1, 10825, Note_off_c, 1, 61, 0
1, 11001, Note_off_c, 1, 67, 0
1, 11004, Note_off_c, 1, 58, 0
1, 11004, Note_off_c, 1, 70, 0
1, 11008, Note_on_c, 1, 60, 127
1, 11008, Note_on_c, 1, 64, 127
1, 11008, Note_on_c, 1, 48, 127
1, 11281, Note_on_c, 1, 52, 127
1, 11549, Note_off_c, 1, 60, 0
1, 11551, Note_off_c, 1, 52, 0
1, 11555, Note_on_c, 1, 55, 127
1, 11825, Note_off_c, 1, 55, 0
1, 11948, Note_off_c, 1, 64, 0
1, 11965, Note_on_c, 1, 65, 127
1, 12091, Note_off_c, 1, 48, 0
1, 12098, Note_off_c, 1, 65, 0
1, 12102, Note_on_c, 1, 67, 127
1, 12102, Note_on_c, 1, 49, 127
1, 12235, Note_off_c, 1, 67, 0
1, 12649, Note_on_c, 1, 58, 127
1, 12919, Note_off_c, 1, 58, 0
1, 12923, Note_on_c, 1, 61, 127
1, 13185, Note_off_c, 1, 49, 0
1, 13193, Note_off_c, 1, 61, 0
1, 13196, Note_on_c, 1, 67, 127
1, 13196, Note_on_c, 1, 52, 127
1, 13470, Note_on_c, 1, 72, 127
1, 13740, Note_off_c, 1, 72, 0
1, 13744, Note_on_c, 1, 70, 127
1, 13744, Note_on_c, 1, 55, 127
1, 14014, Note_off_c, 1, 70, 0
1, 14017, Note_on_c, 1, 73, 127
1, 14279, Note_off_c, 1, 67, 0
1, 14288, Note_off_c, 1, 55, 0
1, 14291, Note_on_c, 1, 60, 127
1, 14291, Note_on_c, 1, 64, 127
1, 14558, Note_off_c, 1, 73, 0
1, 14834, Note_off_c, 1, 52, 0
1, 14838, Note_on_c, 1, 48, 127
1, 15260, Note_off_c, 1, 60, 0
1, 15374, Note_off_c, 1, 64, 0
1, 15382, Note_off_c, 1, 48, 0
1, 15385, Note_on_c, 1, 69, 127
1, 15385, Note_on_c, 1, 41, 127
1, 15385, Note_on_c, 1, 63, 127
1, 15530, Note_off_c, 1, 69, 0
1, 15533, Note_on_c, 1, 67, 127
1, 15659, Note_on_c, 1, 45, 127
1, 15678, Note_off_c, 1, 67, 0
1, 15929, Note_off_c, 1, 45, 0
1, 15932, Note_on_c, 1, 48, 127
1, 16202, Note_off_c, 1, 48, 0
1, 16206, Note_on_c, 1, 53, 127
1, 16343, Note_on_c, 1, 70, 127
1, 16468, Note_off_c, 1, 41, 0
1, 16468, Note_off_c, 1, 63, 0
1, 16476, Note_off_c, 1, 70, 0
1, 16480, Note_on_c, 1, 72, 127
1, 16480, Note_on_c, 1, 42, 127
1, 16613, Note_off_c, 1, 72, 0
1, 16747, Note_off_c, 1, 53, 0
1, 17027, Note_on_c, 1, 51, 127
1, 17297, Note_off_c, 1, 51, 0
1, 17300, Note_on_c, 1, 54, 127
1, 17563, Note_off_c, 1, 42, 0
1, 17570, Note_off_c, 1, 54, 0
1, 17574, Note_on_c, 1, 45, 127
1, 17574, Note_on_c, 1, 72, 127
1, 17848, Note_on_c, 1, 65, 127
1, 18118, Note_off_c, 1, 45, 0
1, 18118, Note_off_c, 1, 65, 0
1, 18121, Note_on_c, 1, 63, 127
1, 18121, Note_on_c, 1, 48, 127
1, 18391, Note_off_c, 1, 63, 0
1, 18395, Note_on_c, 1, 66, 127
1, 18665, Note_off_c, 1, 48, 0
1, 18939, Note_off_c, 1, 66, 0
1, 19216, Note_on_c, 1, 41, 127
1, 19759, Note_off_c, 1, 72, 0
1, 19760, Note_off_c, 1, 41, 0
1, 19763, Note_on_c, 1, 46, 127
1, 19763, Note_on_c, 1, 61, 127
1, 20036, Note_on_c, 1, 72, 127
1, 20306, Note_off_c, 1, 72, 0
1, 20310, Note_on_c, 1, 70, 127
1, 20580, Note_off_c, 1, 70, 0
1, 20584, Note_on_c, 1, 73, 127
1, 20854, Note_off_c, 1, 73, 0
1, 20857, Note_on_c, 1, 67, 127
1, 21128, Note_off_c, 1, 46, 0
1, 21401, Note_off_c, 1, 67, 0
1, 21404, Note_on_c, 1, 48, 127
1, 21541, Note_on_c, 1, 68, 127
1, 21674, Note_off_c, 1, 48, 0
1, 21674, Note_off_c, 1, 68, 0
1, 21678, Note_on_c, 1, 49, 127
1, 21948, Note_off_c, 1, 61, 0
1, 21948, Note_off_c, 1, 49, 0
1, 21952, Note_on_c, 1, 43, 127
1, 21952, Note_on_c, 1, 70, 127
1, 22225, Note_on_c, 1, 60, 127
1, 22495, Note_off_c, 1, 60, 0
1, 22496, Note_off_c, 1, 43, 0
1, 22499, Note_on_c, 1, 61, 127
1, 22499, Note_on_c, 1, 46, 127
1, 22769, Note_off_c, 1, 61, 0
1, 22772, Note_on_c, 1, 65, 127
1, 23043, Note_off_c, 1, 46, 0
1, 23046, Note_on_c, 1, 55, 127
1, 23046, Note_on_c, 1, 51, 127
1, 23316, Note_off_c, 1, 65, 0
1, 23590, Note_off_c, 1, 55, 0
1, 23590, Note_off_c, 1, 51, 0
1, 23593, Note_on_c, 1, 63, 127
1, 23593, Note_on_c, 1, 39, 127
1, 23863, Note_off_c, 1, 63, 0
1, 24137, Note_off_c, 1, 70, 0
1, 24137, Note_off_c, 1, 39, 0
1, 24140, Note_on_c, 1, 44, 127
1, 24140, Note_on_c, 1, 60, 127
1, 24414, Note_on_c, 1, 48, 127
1, 24414, Note_on_c, 1, 68, 127
1, 24684, Note_off_c, 1, 48, 0
1, 24684, Note_off_c, 1, 68, 0
1, 24688, Note_on_c, 1, 51, 127
1, 24688, Note_on_c, 1, 72, 127
1, 24958, Note_off_c, 1, 51, 0
1, 24961, Note_on_c, 1, 56, 127
1, 25223, Note_off_c, 1, 44, 0
1, 25223, Note_off_c, 1, 60, 0
1, 25235, Note_on_c, 1, 46, 127
1, 25235, Note_on_c, 1, 61, 127
1, 25486, Note_off_c, 1, 72, 0
1, 25502, Note_off_c, 1, 56, 0
1, 25508, Note_on_c, 1, 70, 127
1, 25778, Note_off_c, 1, 70, 0
1, 25782, Note_on_c, 1, 55, 127
1, 25782, Note_on_c, 1, 73, 127
1, 26052, Note_off_c, 1, 55, 0
1, 26056, Note_on_c, 1, 58, 127
1, 26318, Note_off_c, 1, 46, 0
1, 26318, Note_off_c, 1, 61, 0
1, 26326, Note_off_c, 1, 58, 0
1, 26329, Note_on_c, 1, 63, 127
1, 26580, Note_off_c, 1, 73, 0
1, 26876, Note_on_c, 1, 75, 127
1, 27412, Note_off_c, 1, 63, 0
1, 27424, Note_on_c, 1, 49, 127
1, 27424, Note_on_c, 1, 65, 127
1, 27674, Note_off_c, 1, 75, 0
1, 27971, Note_on_c, 1, 77, 127
1, 28507, Note_off_c, 1, 49, 0
1, 28507, Note_off_c, 1, 65, 0
1, 28518, Note_on_c, 1, 67, 127
1, 28791, Note_off_c, 1, 77, 0
1, 29059, Note_off_c, 1, 67, 0
1, 29612, Note_on_c, 1, 53, 127
1, 30695, Note_off_c, 1, 53, 0
1, 30707, Note_on_c, 1, 72, 127
1, 30707, Note_on_c, 1, 55, 127
1, 30980, Note_on_c, 1, 65, 127
1, 31066, Note_off_c, 1, 72, 0
1, 31072, Note_on_c, 1, 70, 127
1, 31186, Note_off_c, 1, 70, 0
1, 31250, Note_off_c, 1, 65, 0
1, 31254, Note_on_c, 1, 63, 127
1, 31524, Note_off_c, 1, 63, 0
1, 31528, Note_on_c, 1, 61, 127
1, 31790, Note_off_c, 1, 55, 0
1, 31798, Note_off_c, 1, 61, 0
1, 31801, Note_on_c, 1, 56, 127
1, 31801, Note_on_c, 1, 60, 127
1, 32345, Note_off_c, 1, 56, 0
1, 32622, Note_on_c, 1, 67, 127
1, 32892, Note_off_c, 1, 67, 0
1, 32896, Note_on_c, 1, 68, 127
1, 32896, Note_on_c, 1, 53, 127
1, 33166, Note_off_c, 1, 68, 0
1, 33440, Note_off_c, 1, 53, 0
1, 33443, Note_on_c, 1, 49, 127
1, 33716, Note_on_c, 1, 77, 127
1, 33986, Note_off_c, 1, 60, 0
1, 33986, Note_off_c, 1, 77, 0
1, 33987, Note_off_c, 1, 49, 0
1, 33990, Note_on_c, 1, 75, 127
1, 33990, Note_on_c, 1, 51, 127
1, 34355, Note_on_c, 1, 58, 127
1, 34469, Note_off_c, 1, 58, 0
1, 34788, Note_off_c, 1, 75, 0
1, 34811, Note_on_c, 1, 73, 127
1, 35073, Note_off_c, 1, 51, 0
1, 35081, Note_off_c, 1, 73, 0
1, 35084, Note_on_c, 1, 72, 127
1, 35084, Note_on_c, 1, 44, 127
1, 35084, Note_on_c, 1, 56, 127
1, 35384, Note_off_c, 1, 72, 0
1, 35396, Note_on_c, 1, 68, 127
1, 35666, Note_off_c, 1, 68, 0
1, 35953, Note_on_c, 1, 76, 127
1, 36184, Note_off_c, 1, 44, 0
1, 36223, Note_off_c, 1, 76, 0
1, 36227, Note_on_c, 1, 77, 127
1, 36464, Note_off_c, 1, 56, 0
1, 36497, Note_off_c, 1, 77, 0
1, 36500, Note_on_c, 1, 56, 127
1, 36506, Note_on_c, 1, 79, 127
1, 36762, Note_off_c, 1, 79, 0
1, 36770, Note_off_c, 1, 56, 0
1, 36774, Note_on_c, 1, 55, 127
1, 36774, Note_on_c, 1, 76, 127
1, 37044, Note_off_c, 1, 55, 0
1, 37048, Note_on_c, 1, 77, 127
1, 37048, Note_on_c, 1, 53, 127
1, 37059, Note_off_c, 1, 76, 0
1, 37304, Note_off_c, 1, 77, 0
1, 37318, Note_off_c, 1, 53, 0
1, 37321, Note_on_c, 1, 79, 127
1, 37321, Note_on_c, 1, 52, 127
1, 37577, Note_off_c, 1, 79, 0
1, 37578, Note_on_c, 1, 77, 127
1, 37595, Note_on_c, 1, 55, 127
1, 37692, Note_off_c, 1, 77, 0
1, 37865, Note_off_c, 1, 55, 0
1, 37868, Note_on_c, 1, 58, 127
1, 38138, Note_off_c, 1, 58, 0
1, 38142, Note_on_c, 1, 61, 127
1, 38404, Note_off_c, 1, 52, 0
1, 38412, Note_off_c, 1, 61, 0
1, 38416, Note_on_c, 1, 48, 127
1, 38689, Note_on_c, 1, 53, 127
1, 38959, Note_off_c, 1, 53, 0
1, 39499, Note_off_c, 1, 48, 0
1, 39510, Note_on_c, 1, 56, 127
1, 39784, Note_on_c, 1, 72, 127
1, 40054, Note_off_c, 1, 72, 0
1, 40331, Note_on_c, 1, 80, 127
1, 40601, Note_off_c, 1, 80, 0
1, 40604, Note_on_c, 1, 74, 127
1, 40874, Note_off_c, 1, 74, 0
1, 41152, Note_on_c, 1, 51, 127
1, 41152, Note_on_c, 1, 71, 127
1, 41410, Note_off_c, 1, 56, 0
1, 41422, Note_off_c, 1, 51, 0
1, 41425, Note_on_c, 1, 50, 127
1, 41502, Note_off_c, 1, 71, 0
1, 41695, Note_off_c, 1, 50, 0
1, 41699, Note_on_c, 1, 72, 127
1, 41699, Note_on_c, 1, 55, 127
1, 41972, Note_on_c, 1, 59, 127
1, 42060, Note_off_c, 1, 72, 0
1, 42064, Note_on_c, 1, 71, 127
1, 42178, Note_off_c, 1, 71, 0
1, 42242, Note_off_c, 1, 59, 0
1, 42246, Note_on_c, 1, 62, 127
1, 42516, Note_off_c, 1, 62, 0
1, 42520, Note_on_c, 1, 67, 127
1, 42782, Note_off_c, 1, 55, 0
1, 42793, Note_on_c, 1, 74, 127
1, 42793, Note_on_c, 1, 56, 127
1, 42926, Note_off_c, 1, 74, 0
1, 43061, Note_off_c, 1, 67, 0
1, 43340, Note_on_c, 1, 65, 127
1, 43610, Note_off_c, 1, 65, 0
1, 43614, Note_on_c, 1, 68, 127
1, 43876, Note_off_c, 1, 56, 0
1, 43884, Note_off_c, 1, 68, 0
1, 43888, Note_on_c, 1, 74, 127
1, 43888, Note_on_c, 1, 59, 127
1, 44161, Note_on_c, 1, 79, 127
1, 44431, Note_off_c, 1, 79, 0
1, 44435, Note_on_c, 1, 77, 127
1, 44435, Note_on_c, 1, 62, 127
1, 44705, Note_off_c, 1, 77, 0
1, 44708, Note_on_c, 1, 80, 127
1, 44971, Note_off_c, 1, 74, 0
1, 44979, Note_off_c, 1, 62, 0
1, 44982, Note_on_c, 1, 71, 127
1, 44982, Note_on_c, 1, 67, 127
1, 45249, Note_off_c, 1, 80, 0
1, 45526, Note_off_c, 1, 59, 0
1, 45529, Note_on_c, 1, 55, 127
1, 46065, Note_off_c, 1, 71, 0
1, 46065, Note_off_c, 1, 67, 0
1, 46073, Note_off_c, 1, 55, 0
1, 46076, Note_on_c, 1, 75, 127
1, 46076, Note_on_c, 1, 60, 127
1, 46350, Note_on_c, 1, 84, 127
1, 46617, Note_off_c, 1, 75, 0
1, 46624, Note_on_c, 1, 77, 127
1, 46624, Note_on_c, 1, 56, 127
1, 46891, Note_off_c, 1, 84, 0
1, 46897, Note_on_c, 1, 83, 127
1, 47165, Note_off_c, 1, 77, 0
1, 47167, Note_off_c, 1, 83, 0
1, 47168, Note_off_c, 1, 56, 0
1, 47171, Note_on_c, 1, 51, 127
1, 47444, Note_on_c, 1, 79, 127
1, 47714, Note_off_c, 1, 79, 0
1, 47715, Note_off_c, 1, 51, 0
1, 47718, Note_on_c, 1, 80, 127
1, 47718, Note_on_c, 1, 53, 127
1, 47988, Note_off_c, 1, 80, 0
1, 48262, Note_off_c, 1, 53, 0
1, 48265, Note_on_c, 1, 55, 127
1, 48539, Note_on_c, 1, 71, 127
1, 48809, Note_off_c, 1, 71, 0
1, 48812, Note_on_c, 1, 72, 127
1, 49086, Note_on_c, 1, 66, 127
1, 49356, Note_off_c, 1, 66, 0
1, 49360, Note_on_c, 1, 67, 127
1, 49610, Note_off_c, 1, 72, 0
1, 49907, Note_on_c, 1, 74, 127
1, 49907, Note_on_c, 1, 59, 127
1, 49917, Note_off_c, 1, 60, 0
1, 50180, Note_off_c, 1, 67, 0
1, 50180, Note_on_c, 1, 65, 127
1, 50448, Note_off_c, 1, 74, 0
1, 50450, Note_off_c, 1, 55, 0
1, 50451, Note_off_c, 1, 59, 0
1, 50454, Note_on_c, 1, 48, 127
1, 50721, Note_off_c, 1, 65, 0
1, 51001, Note_on_c, 1, 64, 127
1, 51799, Note_off_c, 1, 64, 0
1, 52112, Note_on_c, 1, 52, 127
1, 52382, Note_off_c, 1, 52, 0
1, 52548, Note_off_c, 1, 48, 0
1, 52675, Note_on_c, 1, 65, 127
1, 52675, Note_on_c, 1, 45, 127
1, 52948, Note_on_c, 1, 69, 127
1, 53218, Note_off_c, 1, 69, 0
1, 53222, Note_on_c, 1, 72, 127
1, 53222, Note_on_c, 1, 53, 127
1, 53492, Note_off_c, 1, 72, 0
1, 53496, Note_on_c, 1, 75, 127
1, 53758, Note_off_c, 1, 65, 0
1, 53758, Note_off_c, 1, 45, 0
1, 53769, Note_on_c, 1, 41, 127
1, 54037, Note_off_c, 1, 75, 0
1, 54043, Note_on_c, 1, 78, 127
1, 54305, Note_off_c, 1, 53, 0
1, 54313, Note_off_c, 1, 78, 0
1, 54852, Note_off_c, 1, 41, 0
1, 54864, Note_on_c, 1, 46, 127
1, 54864, Note_on_c, 1, 73, 127
1, 55137, Note_on_c, 1, 49, 127
1, 55407, Note_off_c, 1, 49, 0
1, 55411, Note_on_c, 1, 53, 127
1, 55411, Note_on_c, 1, 70, 127
1, 55681, Note_off_c, 1, 53, 0
1, 55684, Note_on_c, 1, 58, 127
1, 55947, Note_off_c, 1, 46, 0
1, 55955, Note_off_c, 1, 70, 0
1, 55958, Note_on_c, 1, 64, 127
1, 55958, Note_on_c, 1, 48, 127
1, 56225, Note_off_c, 1, 58, 0
1, 56502, Note_off_c, 1, 73, 0
1, 56505, Note_on_c, 1, 56, 127
1, 56505, Note_on_c, 1, 72, 127
1, 56775, Note_off_c, 1, 56, 0
1, 56779, Note_on_c, 1, 60, 127
1, 57041, Note_off_c, 1, 64, 0
1, 57041, Note_off_c, 1, 48, 0
1, 57049, Note_off_c, 1, 60, 0
1, 57052, Note_on_c, 1, 65, 127
1, 57052, Note_on_c, 1, 50, 127
1, 57325, Note_off_c, 1, 72, 0
1, 57593, Note_off_c, 1, 65, 0
1, 57596, Note_off_c, 1, 50, 0
1, 57600, Note_on_c, 1, 67, 127
1, 57600, Note_on_c, 1, 52, 127
1, 57600, Note_on_c, 1, 55, 127
1, 57870, Note_off_c, 1, 67, 0
1, 57873, Note_on_c, 1, 64, 127
1, 58143, Note_off_c, 1, 64, 0
1, 58144, Note_off_c, 1, 52, 0
1, 58144, Note_off_c, 1, 55, 0
1, 58147, Note_on_c, 1, 60, 127
1, 58147, Note_on_c, 1, 53, 127
1, 58147, Note_on_c, 1, 56, 127
1, 58420, Note_on_c, 1, 64, 127
1, 58688, Note_off_c, 1, 60, 0
1, 58690, Note_off_c, 1, 64, 0
1, 58694, Note_on_c, 1, 65, 127
1, 58968, Note_on_c, 1, 71, 127
1, 59238, Note_off_c, 1, 53, 0
1, 59238, Note_off_c, 1, 56, 0
1, 59238, Note_off_c, 1, 71, 0
1, 59241, Note_on_c, 1, 72, 127
1, 59241, Note_on_c, 1, 48, 127
1, 59241, Note_on_c, 1, 55, 127
1, 59492, Note_off_c, 1, 65, 0
1, 60062, Note_on_c, 1, 67, 127
1, 60324, Note_off_c, 1, 72, 0
1, 60332, Note_off_c, 1, 67, 0
1, 60336, Note_on_c, 1, 70, 127
1, 60606, Note_off_c, 1, 70, 0
1, 60609, Note_on_c, 1, 73, 127
1, 60879, Note_off_c, 1, 73, 0
1, 61153, Note_off_c, 1, 48, 0
1, 61156, Note_on_c, 1, 49, 127
1, 61426, Note_off_c, 1, 55, 0
1, 61426, Note_off_c, 1, 49, 0
1, 61430, Note_on_c, 1, 69, 127
1, 61430, Note_on_c, 1, 53, 127
1, 61430, Note_on_c, 1, 51, 127
1, 61700, Note_off_c, 1, 69, 0
1, 61704, Note_on_c, 1, 65, 127
1, 61974, Note_off_c, 1, 53, 0
1, 61974, Note_off_c, 1, 51, 0
1, 61974, Note_off_c, 1, 65, 0
1, 61977, Note_on_c, 1, 69, 127
1, 61977, Note_on_c, 1, 63, 127
1, 62251, Note_on_c, 1, 72, 127
1, 62518, Note_off_c, 1, 69, 0
1, 62521, Note_off_c, 1, 63, 0
1, 62521, Note_off_c, 1, 72, 0
1, 62524, Note_on_c, 1, 61, 127
1, 62524, Note_on_c, 1, 77, 127
1, 62798, Note_on_c, 1, 70, 127
1, 63068, Note_off_c, 1, 61, 0
1, 63068, Note_off_c, 1, 70, 0
1, 63072, Note_on_c, 1, 69, 127
1, 63072, Note_on_c, 1, 60, 127
1, 63344, Note_off_c, 1, 77, 0
1, 63345, Note_on_c, 1, 75, 127
1, 63613, Note_off_c, 1, 69, 0
1, 63615, Note_off_c, 1, 75, 0
1, 63616, Note_off_c, 1, 60, 0
1, 63619, Note_on_c, 1, 58, 127
1, 63619, Note_on_c, 1, 73, 127
1, 63892, Note_on_c, 1, 68, 127
1, 63892, Note_on_c, 1, 53, 127
1, 64162, Note_off_c, 1, 68, 0
1, 64162, Note_off_c, 1, 53, 0
1, 64166, Note_on_c, 1, 67, 127
1, 64166, Note_on_c, 1, 49, 127
1, 64436, Note_off_c, 1, 67, 0
1, 64436, Note_off_c, 1, 49, 0
1, 64440, Note_on_c, 1, 70, 127
1, 64440, Note_on_c, 1, 46, 127
1, 64702, Note_off_c, 1, 58, 0
1, 64710, Note_off_c, 1, 70, 0
1, 64713, Note_on_c, 1, 64, 127
1, 64713, Note_on_c, 1, 55, 127
1, 64981, Note_off_c, 1, 46, 0
1, 64987, Note_off_c, 1, 73, 0
1, 64987, Note_on_c, 1, 48, 127
1, 64987, Note_on_c, 1, 72, 127
1, 65254, Note_off_c, 1, 64, 0
1, 65257, Note_off_c, 1, 48, 0
1, 65260, Note_on_c, 1, 65, 127
1, 65528, Note_off_c, 1, 72, 0
1, 65796, Note_off_c, 1, 55, 0
1, 65801, Note_off_c, 1, 65, 0
1, 66363, Note_on_c, 1, 56, 127
1, 66633, Note_off_c, 1, 56, 0
1, 66636, Note_on_c, 1, 59, 127
1, 66906, Note_off_c, 1, 59, 0
1, 66910, Note_on_c, 1, 60, 127
1, 68857, Note_on_c, 1, 77, 127
1, 69095, Note_off_c, 1, 60, 0
1, 69398, Note_off_c, 1, 77, 0
1, 69678, Note_on_c, 1, 76, 127
1, 69948, Note_off_c, 1, 76, 0
1, 69952, Note_on_c, 1, 79, 127
1, 70493, Note_off_c, 1, 79, 0
1, 74603, Note_on_c, 1, 65, 127
1, 74603, Note_on_c, 1, 56, 127
1, 74603, Note_on_c, 1, 68, 127
1, 74603, Note_on_c, 1, 48, 127
1, 74873, Note_off_c, 1, 65, 0
1, 74876, Note_on_c, 1, 63, 127
1, 75146, Note_off_c, 1, 63, 0
1, 75150, Note_on_c, 1, 62, 127
1, 75420, Note_off_c, 1, 62, 0
1, 75694, Note_off_c, 1, 56, 0
1, 75697, Note_on_c, 1, 59, 127
1, 75697, Note_on_c, 1, 53, 127
1, 76241, Note_off_c, 1, 68, 0
1, 76244, Note_on_c, 1, 67, 127
1, 76514, Note_off_c, 1, 67, 0
1, 76780, Note_off_c, 1, 59, 0
1, 76788, Note_off_c, 1, 48, 0
1, 76788, Note_off_c, 1, 53, 0
1, 76792, Note_on_c, 1, 55, 127
1, 76792, Note_on_c, 1, 64, 127
1, 76792, Note_on_c, 1, 48, 127
1, 77065, Note_on_c, 1, 60, 127
1, 77335, Note_off_c, 1, 60, 0
1, 77339, Note_on_c, 1, 58, 127
1, 77609, Note_off_c, 1, 58, 0
1, 77612, Note_on_c, 1, 61, 127
1, 77882, Note_off_c, 1, 61, 0
1, 77883, Note_off_c, 1, 55, 0
1, 77886, Note_on_c, 1, 52, 127
1, 78977, Note_off_c, 1, 64, 0
1, 78977, Note_off_c, 1, 48, 0
1, 78977, Note_off_c, 1, 52, 0
1, 78980, Note_on_c, 1, 56, 127
1, 78980, Note_on_c, 1, 53, 127
1, 78980, Note_on_c, 1, 48, 127
1, 79270, Note_on_c, 1, 72, 127
1, 79540, Note_off_c, 1, 72, 0
1, 79544, Note_on_c, 1, 70, 127
1, 79814, Note_off_c, 1, 70, 0
1, 79817, Note_on_c, 1, 73, 127
1, 80071, Note_off_c, 1, 56, 0
1, 80071, Note_off_c, 1, 53, 0
1, 80091, Note_on_c, 1, 64, 127
1, 80091, Note_on_c, 1, 58, 127
1, 80091, Note_on_c, 1, 55, 127
1, 80358, Note_off_c, 1, 73, 0
1, 81117, Note_off_c, 1, 64, 0
1, 81165, Note_off_c, 1, 48, 0
1, 81182, Note_off_c, 1, 58, 0
1, 81182, Note_off_c, 1, 55, 0
1, 81185, Note_on_c, 1, 68, 127
1, 81185, Note_on_c, 1, 60, 127
1, 81185, Note_on_c, 1, 56, 127
1, 81185, Note_on_c, 1, 48, 127
1, 81459, Note_on_c, 1, 79, 127
1, 81729, Note_off_c, 1, 79, 0
1, 81732, Note_on_c, 1, 77, 127
1, 82002, Note_off_c, 1, 77, 0
1, 82006, Note_on_c, 1, 80, 127
1, 82268, Note_off_c, 1, 68, 0
1, 82276, Note_off_c, 1, 60, 0
1, 82276, Note_off_c, 1, 56, 0
1, 82280, Note_on_c, 1, 71, 127
1, 82280, Note_on_c, 1, 53, 127
1, 82547, Note_off_c, 1, 80, 0
1, 83363, Note_off_c, 1, 71, 0
1, 83370, Note_off_c, 1, 48, 0
1, 83371, Note_off_c, 1, 53, 0
1, 83374, Note_on_c, 1, 76, 127
1, 83374, Note_on_c, 1, 58, 127
1, 83374, Note_on_c, 1, 55, 127
1, 83374, Note_on_c, 1, 48, 127
1, 83664, Note_on_c, 1, 77, 127
1, 83934, Note_off_c, 1, 77, 0
1, 83937, Note_on_c, 1, 79, 127
1, 84172, Note_off_c, 1, 76, 0
1, 84207, Note_off_c, 1, 79, 0
1, 84465, Note_off_c, 1, 58, 0
1, 84465, Note_off_c, 1, 55, 0
1, 84484, Note_on_c, 1, 82, 127
1, 84484, Note_on_c, 1, 52, 127
1, 84758, Note_on_c, 1, 73, 127
1, 85025, Note_off_c, 1, 82, 0
1, 85028, Note_off_c, 1, 73, 0
1, 85032, Note_on_c, 1, 72, 127
1, 85302, Note_off_c, 1, 72, 0
1, 85305, Note_on_c, 1, 70, 127
1, 85559, Note_off_c, 1, 48, 0
1, 85575, Note_off_c, 1, 52, 0
1, 85575, Note_off_c, 1, 70, 0
1, 85579, Note_on_c, 1, 68, 127
1, 85579, Note_on_c, 1, 60, 127
1, 85579, Note_on_c, 1, 53, 127
1, 85579, Note_on_c, 1, 48, 127
1, 85868, Note_on_c, 1, 70, 127
1, 86138, Note_off_c, 1, 70, 0
1, 86142, Note_on_c, 1, 72, 127
1, 86377, Note_off_c, 1, 68, 0
1, 86416, Note_on_c, 1, 65, 127
1, 86670, Note_off_c, 1, 60, 0
1, 86670, Note_off_c, 1, 53, 0
1, 86683, Note_off_c, 1, 72, 0
1, 86689, Note_on_c, 1, 74, 127
1, 86689, Note_on_c, 1, 59, 127
1, 86957, Note_off_c, 1, 65, 0
1, 87236, Note_on_c, 1, 67, 127
1, 87487, Note_off_c, 1, 74, 0
1, 87506, Note_off_c, 1, 67, 0
1, 87780, Note_off_c, 1, 59, 0
1, 87784, Note_on_c, 1, 55, 127
1, 87784, Note_on_c, 1, 64, 127
1, 88336, Note_off_c, 1, 55, 0
1, 88653, Note_on_c, 1, 58, 127
1, 88889, Note_off_c, 1, 64, 0
1, 88929, Note_off_c, 1, 58, 0
1, 88933, Note_on_c, 1, 56, 127
1, 89192, Note_off_c, 1, 48, 0
1, 89506, Note_on_c, 1, 47, 127
1, 89791, Note_off_c, 1, 47, 0
1, 89793, Note_on_c, 1, 50, 127
1, 90094, Note_on_c, 1, 36, 127
1, 90097, Note_off_c, 1, 56, 0
1, 90100, Note_off_c, 1, 50, 0
1, 90397, Note_on_c, 1, 62, 127
1, 90696, Note_off_c, 1, 62, 0
1, 92714, Note_off_c, 1, 36, 0
1, 92720, Note_on_c, 1, 41, 127
1, 92720, Note_on_c, 1, 57, 127
1, 97120, Note_off_c, 1, 41, 0
1, 97120, Note_off_c, 1, 57, 0
1, 97979, Note_on_c, 1, 60, 127
1, 98637, Note_off_c, 1, 60, 0
1, 98640, Note_on_c, 1, 61, 127
1, 99298, Note_off_c, 1, 61, 0
1, 99301, Note_on_c, 1, 60, 127
1, 99959, Note_off_c, 1, 60, 0
1, 99962, Note_on_c, 1, 59, 127
1, 100620, Note_off_c, 1, 59, 0
1, 100624, Note_on_c, 1, 64, 127
1, 101282, Note_off_c, 1, 64, 0
1, 101285, Note_on_c, 1, 65, 127
1, 101943, Note_off_c, 1, 65, 0
1, 101946, Note_on_c, 1, 58, 127
1, 102604, Note_off_c, 1, 58, 0
1, 102607, Note_on_c, 1, 57, 127
1, 103265, Note_off_c, 1, 57, 0
1, 103268, Note_on_c, 1, 56, 127
1, 103926, Note_off_c, 1, 56, 0
1, 103930, Note_on_c, 1, 55, 127
1, 105270, Note_off_c, 1, 55, 0
1, 105271, Note_on_c, 1, 53, 127
1, 105630, Note_off_c, 1, 53, 0
1, 105638, Note_on_c, 1, 53, 127
1, 105809, Note_off_c, 1, 53, 0
1, 105824, Note_on_c, 1, 55, 127
1, 105995, Note_off_c, 1, 55, 0
1, 106009, Note_on_c, 1, 56, 127
1, 106009, Note_on_c, 1, 65, 127
1, 106368, Note_off_c, 1, 56, 0
1, 106562, Note_on_c, 1, 58, 127
1, 106733, Note_off_c, 1, 58, 0
1, 106741, Note_off_c, 1, 65, 0
1, 106744, Note_on_c, 1, 60, 127
1, 106744, Note_on_c, 1, 68, 127
1, 106915, Note_off_c, 1, 60, 0
1, 106929, Note_on_c, 1, 47, 127
1, 107100, Note_off_c, 1, 47, 0
1, 107115, Note_on_c, 1, 48, 127
1, 107286, Note_off_c, 1, 48, 0
1, 107300, Note_on_c, 1, 50, 127
1, 107471, Note_off_c, 1, 50, 0
1, 107479, Note_off_c, 1, 68, 0
1, 107482, Note_on_c, 1, 67, 127
1, 107482, Note_on_c, 1, 51, 127
1, 108214, Note_off_c, 1, 67, 0
1, 108218, Note_on_c, 1, 66, 127
1, 108305, Note_off_c, 1, 51, 0
1, 108403, Note_on_c, 1, 48, 127
1, 108574, Note_off_c, 1, 48, 0
1, 108588, Note_on_c, 1, 50, 127
1, 108759, Note_off_c, 1, 50, 0
1, 108953, Note_off_c, 1, 66, 0
1, 108956, Note_on_c, 1, 71, 127
1, 108956, Note_on_c, 1, 53, 127
1, 109688, Note_off_c, 1, 71, 0
1, 109691, Note_on_c, 1, 72, 127
1, 109779, Note_off_c, 1, 53, 0
1, 109876, Note_on_c, 1, 51, 127
1, 110047, Note_off_c, 1, 51, 0
1, 110247, Note_on_c, 1, 55, 127
1, 110418, Note_off_c, 1, 55, 0
1, 110426, Note_off_c, 1, 72, 0
1, 110429, Note_on_c, 1, 65, 127
1, 110429, Note_on_c, 1, 56, 127
1, 111161, Note_off_c, 1, 65, 0
1, 111165, Note_on_c, 1, 64, 127
1, 111252, Note_off_c, 1, 56, 0
1, 111350, Note_on_c, 1, 55, 127
1, 111521, Note_off_c, 1, 55, 0
1, 111535, Note_on_c, 1, 57, 127
1, 111706, Note_off_c, 1, 57, 0
1, 111720, Note_on_c, 1, 59, 127
1, 111891, Note_off_c, 1, 59, 0
1, 111900, Note_off_c, 1, 64, 0
1, 111903, Note_on_c, 1, 63, 127
1, 111903, Note_on_c, 1, 60, 127
1, 112612, Note_off_c, 1, 63, 0
1, 112638, Note_on_c, 1, 62, 127
1, 113003, Note_off_c, 1, 60, 0
1, 113006, Note_on_c, 1, 59, 127
1, 113177, Note_off_c, 1, 59, 0
1, 113191, Note_on_c, 1, 57, 127
1, 113362, Note_off_c, 1, 57, 0
1, 114111, Note_off_c, 1, 62, 0
1, 114114, Note_on_c, 1, 60, 127
1, 114473, Note_off_c, 1, 60, 0
1, 114482, Note_on_c, 1, 60, 127
1, 114482, Note_on_c, 1, 55, 127
1, 114653, Note_off_c, 1, 60, 0
1, 114667, Note_on_c, 1, 62, 127
1, 114838, Note_off_c, 1, 62, 0
1, 114843, Note_off_c, 1, 55, 0
1, 114852, Note_on_c, 1, 60, 127
1, 114852, Note_on_c, 1, 64, 127
1, 114852, Note_on_c, 1, 48, 127
1, 115211, Note_off_c, 1, 60, 0
1, 115211, Note_off_c, 1, 64, 0
1, 115220, Note_on_c, 1, 62, 127
1, 115220, Note_on_c, 1, 58, 127
1, 115391, Note_off_c, 1, 62, 0
1, 115581, Note_off_c, 1, 58, 0
1, 115584, Note_off_c, 1, 48, 0
1, 115588, Note_on_c, 1, 56, 127
1, 115588, Note_on_c, 1, 65, 127
1, 115588, Note_on_c, 1, 49, 127
1, 115773, Note_on_c, 1, 52, 127
1, 115944, Note_off_c, 1, 52, 0
1, 115949, Note_off_c, 1, 56, 0
1, 115949, Note_off_c, 1, 65, 0
1, 115958, Note_on_c, 1, 53, 127
1, 116129, Note_off_c, 1, 53, 0
1, 116144, Note_on_c, 1, 55, 127
1, 116315, Note_off_c, 1, 55, 0
1, 116323, Note_off_c, 1, 49, 0
1, 116326, Note_on_c, 1, 48, 127
1, 116694, Note_on_c, 1, 63, 127
1, 117053, Note_off_c, 1, 63, 0
1, 117055, Note_off_c, 1, 48, 0
1, 117058, Note_on_c, 1, 62, 127
1, 117058, Note_on_c, 1, 47, 127
1, 117244, Note_on_c, 1, 53, 127
1, 117415, Note_off_c, 1, 53, 0
1, 117419, Note_off_c, 1, 62, 0
1, 117429, Note_on_c, 1, 55, 127
1, 117429, Note_on_c, 1, 64, 127
1, 117600, Note_off_c, 1, 55, 0
1, 117600, Note_off_c, 1, 64, 0
1, 117614, Note_on_c, 1, 56, 127
1, 117614, Note_on_c, 1, 65, 127
1, 117785, Note_off_c, 1, 56, 0
1, 117785, Note_off_c, 1, 65, 0
1, 117793, Note_off_c, 1, 47, 0
1, 117797, Note_on_c, 1, 67, 127
1, 117797, Note_on_c, 1, 58, 127
1, 117797, Note_on_c, 1, 52, 127
1, 117968, Note_off_c, 1, 67, 0
1, 117982, Note_on_c, 1, 65, 127
1, 118153, Note_off_c, 1, 65, 0
1, 118167, Note_on_c, 1, 64, 127
1, 118338, Note_off_c, 1, 64, 0
1, 118352, Note_on_c, 1, 62, 127
1, 118452, Note_off_c, 1, 58, 0
1, 118523, Note_off_c, 1, 62, 0
1, 118532, Note_off_c, 1, 52, 0
1, 118535, Note_on_c, 1, 60, 127
1, 118535, Note_on_c, 1, 53, 127
1, 118720, Note_on_c, 1, 56, 127
1, 118891, Note_off_c, 1, 56, 0
1, 118905, Note_on_c, 1, 58, 127
1, 119076, Note_off_c, 1, 58, 0
1, 119085, Note_off_c, 1, 60, 0
1, 119267, Note_off_c, 1, 53, 0
1, 119270, Note_on_c, 1, 46, 127
1, 119270, Note_on_c, 1, 61, 127
1, 119455, Note_on_c, 1, 58, 127
1, 119626, Note_off_c, 1, 58, 0
1, 119640, Note_on_c, 1, 56, 127
1, 119811, Note_off_c, 1, 56, 0
1, 119826, Note_on_c, 1, 55, 127
1, 119997, Note_off_c, 1, 55, 0
1, 120005, Note_off_c, 1, 46, 0
1, 120008, Note_on_c, 1, 45, 127
1, 120008, Note_on_c, 1, 53, 127
1, 120116, Note_off_c, 1, 61, 0
1, 120193, Note_on_c, 1, 60, 127
1, 120364, Note_off_c, 1, 60, 0
1, 120379, Note_on_c, 1, 62, 127
1, 120550, Note_off_c, 1, 62, 0
1, 120564, Note_on_c, 1, 64, 127
1, 120735, Note_off_c, 1, 64, 0
1, 120743, Note_off_c, 1, 45, 0
1, 120746, Note_on_c, 1, 44, 127
1, 120746, Note_on_c, 1, 65, 127
1, 120925, Note_off_c, 1, 53, 0
1, 121478, Note_off_c, 1, 44, 0
1, 121482, Note_on_c, 1, 43, 127
1, 121846, Note_off_c, 1, 65, 0
1, 122952, Note_off_c, 1, 43, 0
1, 122955, Note_on_c, 1, 65, 127
1, 122955, Note_on_c, 1, 41, 127
1, 122955, Note_on_c, 1, 56, 127
1, 123314, Note_off_c, 1, 65, 0
1, 123508, Note_on_c, 1, 67, 127
1, 123679, Note_off_c, 1, 67, 0
1, 123693, Note_on_c, 1, 68, 127
1, 124052, Note_off_c, 1, 68, 0
1, 124055, Note_off_c, 1, 41, 0
1, 124057, Note_off_c, 1, 56, 0
1, 124061, Note_on_c, 1, 53, 127
1, 124061, Note_on_c, 1, 68, 127
1, 124232, Note_off_c, 1, 53, 0
1, 124232, Note_off_c, 1, 68, 0
1, 124246, Note_on_c, 1, 55, 127
1, 124246, Note_on_c, 1, 70, 127
1, 124417, Note_off_c, 1, 55, 0
1, 124417, Note_off_c, 1, 70, 0
1, 124431, Note_on_c, 1, 56, 127
1, 124431, Note_on_c, 1, 72, 127
1, 124790, Note_off_c, 1, 56, 0
1, 124799, Note_on_c, 1, 60, 127
1, 124970, Note_off_c, 1, 60, 0
1, 124984, Note_on_c, 1, 58, 127
1, 124984, Note_on_c, 1, 61, 127
1, 125155, Note_off_c, 1, 58, 0
1, 125155, Note_off_c, 1, 61, 0
1, 125169, Note_on_c, 1, 63, 127
1, 125348, Note_off_c, 1, 72, 0
1, 125352, Note_on_c, 1, 70, 127
1, 125523, Note_off_c, 1, 70, 0
1, 125537, Note_on_c, 1, 68, 127
1, 125537, Note_on_c, 1, 48, 127
1, 125708, Note_off_c, 1, 68, 0
1, 125722, Note_on_c, 1, 67, 127
1, 125893, Note_off_c, 1, 67, 0
1, 125898, Note_off_c, 1, 48, 0
1, 125908, Note_on_c, 1, 65, 127
1, 125908, Note_on_c, 1, 49, 127
1, 126271, Note_off_c, 1, 63, 0
1, 126637, Note_off_c, 1, 65, 0
1, 126905, Note_off_c, 1, 49, 0
1, 127013, Note_on_c, 1, 49, 127
1, 127013, Note_on_c, 1, 65, 127
1, 127184, Note_off_c, 1, 49, 0
1, 127184, Note_off_c, 1, 65, 0
1, 127199, Note_on_c, 1, 51, 127
1, 127199, Note_on_c, 1, 67, 127
1, 127370, Note_off_c, 1, 51, 0
1, 127370, Note_off_c, 1, 67, 0
1, 127384, Note_on_c, 1, 53, 127
1, 127384, Note_on_c, 1, 68, 127
1, 127743, Note_off_c, 1, 53, 0
1, 127752, Note_on_c, 1, 56, 127
1, 127923, Note_off_c, 1, 56, 0
1, 127937, Note_on_c, 1, 55, 127
1, 127937, Note_on_c, 1, 58, 127
1, 128108, Note_off_c, 1, 55, 0
1, 128108, Note_off_c, 1, 58, 0
1, 128122, Note_on_c, 1, 60, 127
1, 128307, Note_off_c, 1, 68, 0
1, 128307, Note_on_c, 1, 66, 127
1, 128478, Note_off_c, 1, 66, 0
1, 128493, Note_on_c, 1, 65, 127
1, 128493, Note_on_c, 1, 44, 127
1, 128664, Note_off_c, 1, 65, 0
1, 128678, Note_on_c, 1, 63, 127
1, 128849, Note_off_c, 1, 63, 0
1, 128854, Note_off_c, 1, 44, 0
1, 128863, Note_on_c, 1, 61, 127
1, 128863, Note_on_c, 1, 46, 127
1, 129227, Note_off_c, 1, 60, 0
1, 129592, Note_off_c, 1, 61, 0
1, 129880, Note_off_c, 1, 46, 0
1, 129969, Note_on_c, 1, 46, 127
1, 129969, Note_on_c, 1, 61, 127
1, 130140, Note_off_c, 1, 46, 0
1, 130140, Note_off_c, 1, 61, 0
1, 130154, Note_on_c, 1, 48, 127
1, 130154, Note_on_c, 1, 63, 127
1, 130325, Note_off_c, 1, 48, 0
1, 130325, Note_off_c, 1, 63, 0
1, 130339, Note_on_c, 1, 49, 127
1, 130339, Note_on_c, 1, 65, 127
1, 130698, Note_off_c, 1, 49, 0
1, 130707, Note_on_c, 1, 53, 127
1, 130878, Note_off_c, 1, 53, 0
1, 130892, Note_on_c, 1, 51, 127
1, 130892, Note_on_c, 1, 55, 127
1, 131063, Note_off_c, 1, 51, 0
1, 131063, Note_off_c, 1, 55, 0
1, 131078, Note_on_c, 1, 56, 127
1, 131437, Note_off_c, 1, 56, 0
1, 131445, Note_on_c, 1, 41, 127
1, 131630, Note_on_c, 1, 58, 127
1, 131801, Note_off_c, 1, 58, 0
1, 131806, Note_off_c, 1, 41, 0
1, 131816, Note_on_c, 1, 48, 127
1, 131816, Note_on_c, 1, 60, 127
1, 132175, Note_off_c, 1, 48, 0
1, 132175, Note_off_c, 1, 60, 0
1, 132177, Note_off_c, 1, 65, 0
1, 132180, Note_on_c, 1, 48, 127
1, 132180, Note_on_c, 1, 64, 127
1, 132180, Note_on_c, 1, 55, 127
1, 132351, Note_off_c, 1, 48, 0
1, 132351, Note_off_c, 1, 64, 0
1, 132366, Note_on_c, 1, 50, 127
1, 132366, Note_on_c, 1, 65, 127
1, 132537, Note_off_c, 1, 50, 0
1, 132537, Note_off_c, 1, 65, 0
1, 132541, Note_off_c, 1, 55, 0
1, 132551, Note_on_c, 1, 52, 127
1, 132551, Note_on_c, 1, 60, 127
1, 132551, Note_on_c, 1, 72, 127
1, 132551, Note_on_c, 1, 67, 127
1, 132921, Note_off_c, 1, 52, 0
1, 132921, Note_off_c, 1, 60, 0
1, 132930, Note_on_c, 1, 50, 127
1, 132930, Note_on_c, 1, 58, 127
1, 133106, Note_off_c, 1, 50, 0
1, 133303, Note_off_c, 1, 58, 0
1, 133306, Note_off_c, 1, 72, 0
1, 133309, Note_on_c, 1, 53, 127
1, 133309, Note_on_c, 1, 56, 127
1, 133309, Note_on_c, 1, 73, 127
1, 133485, Note_off_c, 1, 53, 0
1, 133497, Note_off_c, 1, 56, 0
1, 133500, Note_on_c, 1, 40, 127
1, 133676, Note_off_c, 1, 40, 0
1, 133685, Note_off_c, 1, 67, 0
1, 133688, Note_on_c, 1, 41, 127
1, 133688, Note_on_c, 1, 65, 127
1, 133864, Note_off_c, 1, 41, 0
1, 133879, Note_on_c, 1, 43, 127
1, 134055, Note_off_c, 1, 43, 0
1, 134064, Note_off_c, 1, 73, 0
1, 134067, Note_on_c, 1, 44, 127
1, 134258, Note_on_c, 1, 48, 127
1, 134434, Note_off_c, 1, 48, 0
1, 134443, Note_off_c, 1, 65, 0
1, 134446, Note_on_c, 1, 63, 127
1, 134637, Note_on_c, 1, 51, 127
1, 134813, Note_off_c, 1, 51, 0
1, 134819, Note_off_c, 1, 63, 0
1, 134825, Note_on_c, 1, 62, 127
1, 134825, Note_on_c, 1, 71, 127
1, 134896, Note_off_c, 1, 44, 0
1, 135198, Note_off_c, 1, 62, 0
1, 135207, Note_on_c, 1, 64, 127
1, 135383, Note_off_c, 1, 64, 0
1, 135583, Note_off_c, 1, 71, 0
1, 135586, Note_on_c, 1, 46, 127
1, 135586, Note_on_c, 1, 76, 127
1, 135968, Note_on_c, 1, 55, 127
1, 136336, Note_off_c, 1, 46, 0
1, 136341, Note_off_c, 1, 55, 0
1, 136344, Note_off_c, 1, 76, 0
1, 136347, Note_on_c, 1, 60, 127
1, 136347, Note_on_c, 1, 77, 127
1, 136347, Note_on_c, 1, 56, 127
1, 136527, Note_off_c, 1, 60, 0
1, 136538, Note_on_c, 1, 44, 127
1, 136714, Note_off_c, 1, 44, 0
1, 136729, Note_on_c, 1, 46, 127
1, 136905, Note_off_c, 1, 46, 0
1, 136920, Note_on_c, 1, 48, 127
1, 137096, Note_off_c, 1, 48, 0
1, 137105, Note_off_c, 1, 77, 0
1, 137108, Note_on_c, 1, 70, 127
1, 137108, Note_on_c, 1, 49, 127
1, 137179, Note_off_c, 1, 56, 0
1, 137299, Note_on_c, 1, 58, 127
1, 137475, Note_off_c, 1, 58, 0
1, 137681, Note_on_c, 1, 55, 127
1, 137857, Note_off_c, 1, 55, 0
1, 137866, Note_off_c, 1, 70, 0
1, 137869, Note_on_c, 1, 53, 127
1, 137869, Note_on_c, 1, 69, 127
1, 137940, Note_off_c, 1, 49, 0
1, 138251, Note_on_c, 1, 50, 127
1, 138427, Note_off_c, 1, 50, 0
1, 138442, Note_on_c, 1, 52, 127
1, 138618, Note_off_c, 1, 52, 0
1, 138624, Note_off_c, 1, 53, 0
1, 138627, Note_off_c, 1, 69, 0
1, 138630, Note_on_c, 1, 68, 127
1, 139385, Note_off_c, 1, 68, 0
1, 139388, Note_on_c, 1, 61, 127
1, 139388, Note_on_c, 1, 67, 127
1, 139758, Note_off_c, 1, 61, 0
1, 141172, Note_off_c, 1, 67, 0
1, 141292, Note_on_c, 1, 65, 127
1, 141468, Note_off_c, 1, 65, 0
1, 142247, Note_on_c, 1, 51, 127
1, 142423, Note_off_c, 1, 51, 0
1, 143008, Note_on_c, 1, 63, 127
1, 143184, Note_off_c, 1, 63, 0
1, 143199, Note_on_c, 1, 62, 127
1, 143569, Note_off_c, 1, 62, 0
1, 146237, Note_on_c, 1, 64, 127
1, 146607, Note_off_c, 1, 64, 0
1, 147568, Note_on_c, 1, 72, 127
1, 147744, Note_off_c, 1, 72, 0
1, 148520, Note_on_c, 1, 47, 127
1, 148890, Note_off_c, 1, 47, 0
1, 148899, Note_on_c, 1, 74, 127
1, 149075, Note_off_c, 1, 74, 0
1, 149090, Note_on_c, 1, 45, 127
1, 149266, Note_off_c, 1, 45, 0
1, 149280, Note_on_c, 1, 43, 127
1, 149280, Note_on_c, 1, 71, 127
1, 149650, Note_off_c, 1, 43, 0
1, 149650, Note_off_c, 1, 71, 0
1, 150418, Note_on_c, 1, 75, 127
1, 150791, Note_off_c, 1, 75, 0
1, 150800, Note_on_c, 1, 71, 127
1, 150800, Note_on_c, 1, 74, 127
1, 150800, Note_on_c, 1, 55, 127
1, 151170, Note_off_c, 1, 71, 0
1, 151170, Note_off_c, 1, 74, 0
1, 151179, Note_on_c, 1, 69, 127
1, 151179, Note_on_c, 1, 79, 127
1, 151355, Note_off_c, 1, 69, 0
1, 151555, Note_off_c, 1, 55, 0
1, 151558, Note_on_c, 1, 72, 127
1, 151558, Note_on_c, 1, 56, 127
1, 151743, Note_off_c, 1, 79, 0
1, 151928, Note_off_c, 1, 72, 0
1, 152313, Note_off_c, 1, 56, 0
1, 152316, Note_on_c, 1, 75, 127
1, 152695, Note_on_c, 1, 70, 127
1, 153065, Note_off_c, 1, 70, 0
1, 153071, Note_on_c, 1, 54, 127
1, 153256, Note_off_c, 1, 75, 0
1, 153826, Note_off_c, 1, 54, 0
1, 153829, Note_on_c, 1, 74, 127
1, 153829, Note_on_c, 1, 59, 127
1, 153829, Note_on_c, 1, 77, 127
1, 154005, Note_off_c, 1, 74, 0
1, 154020, Note_on_c, 1, 72, 127
1, 154196, Note_off_c, 1, 72, 0
1, 154211, Note_on_c, 1, 71, 127
1, 154387, Note_off_c, 1, 71, 0
1, 154402, Note_on_c, 1, 69, 127
1, 154578, Note_off_c, 1, 69, 0
1, 154587, Note_off_c, 1, 59, 0
1, 154590, Note_on_c, 1, 60, 127
1, 154590, Note_on_c, 1, 67, 127
1, 154661, Note_off_c, 1, 77, 0
1, 154781, Note_on_c, 1, 75, 127
1, 154957, Note_off_c, 1, 75, 0
1, 155163, Note_on_c, 1, 79, 127
1, 155339, Note_off_c, 1, 79, 0
1, 155348, Note_off_c, 1, 60, 0
1, 155351, Note_on_c, 1, 53, 127
1, 155351, Note_on_c, 1, 80, 127
1, 155422, Note_off_c, 1, 67, 0
1, 155542, Note_on_c, 1, 65, 127
1, 155718, Note_off_c, 1, 65, 0
1, 155733, Note_on_c, 1, 63, 127
1, 155909, Note_off_c, 1, 63, 0
1, 155924, Note_on_c, 1, 62, 127
1, 156100, Note_off_c, 1, 62, 0
1, 156109, Note_off_c, 1, 53, 0
1, 156112, Note_on_c, 1, 52, 127
1, 156183, Note_off_c, 1, 80, 0
1, 156494, Note_on_c, 1, 81, 127
1, 156670, Note_off_c, 1, 81, 0
1, 156685, Note_on_c, 1, 83, 127
1, 156861, Note_off_c, 1, 83, 0
1, 156870, Note_off_c, 1, 52, 0
1, 156873, Note_on_c, 1, 51, 127
1, 156873, Note_on_c, 1, 84, 127
1, 157631, Note_off_c, 1, 51, 0
1, 157634, Note_on_c, 1, 50, 127
1, 158010, Note_off_c, 1, 84, 0
1, 159150, Note_off_c, 1, 50, 0
1, 159153, Note_on_c, 1, 75, 127
1, 159153, Note_on_c, 1, 84, 127
1, 159153, Note_on_c, 1, 48, 127
1, 159523, Note_off_c, 1, 75, 0
1, 159523, Note_off_c, 1, 84, 0
1, 159532, Note_on_c, 1, 72, 127
1, 159532, Note_on_c, 1, 79, 127
1, 159708, Note_off_c, 1, 72, 0
1, 159723, Note_on_c, 1, 74, 127
1, 159899, Note_off_c, 1, 74, 0
1, 159905, Note_off_c, 1, 79, 0
1, 160290, Note_off_c, 1, 48, 0
1, 160484, Note_on_c, 1, 70, 127
1, 160660, Note_off_c, 1, 70, 0
1, 160675, Note_on_c, 1, 69, 127
1, 161045, Note_off_c, 1, 69, 0
1, 161242, Note_on_c, 1, 67, 127
1, 161242, Note_on_c, 1, 82, 127
1, 161418, Note_off_c, 1, 67, 0
1, 161418, Note_off_c, 1, 82, 0
1, 161433, Note_on_c, 1, 65, 127
1, 161433, Note_on_c, 1, 81, 127
1, 161803, Note_off_c, 1, 65, 0
1, 161803, Note_off_c, 1, 81, 0
1, 162194, Note_on_c, 1, 77, 127
1, 162564, Note_off_c, 1, 77, 0
1, 162570, Note_on_c, 1, 70, 127
1, 162570, Note_on_c, 1, 79, 127
1, 162570, Note_on_c, 1, 58, 127
1, 162746, Note_off_c, 1, 70, 0
1, 162746, Note_off_c, 1, 79, 0
1, 162761, Note_on_c, 1, 72, 127
1, 162761, Note_on_c, 1, 81, 127
1, 162937, Note_off_c, 1, 72, 0
1, 162937, Note_off_c, 1, 81, 0
1, 162952, Note_on_c, 1, 82, 127
1, 162952, Note_on_c, 1, 73, 127
1, 163328, Note_off_c, 1, 58, 0
1, 163522, Note_on_c, 1, 68, 127
1, 163698, Note_off_c, 1, 68, 0
1, 163713, Note_on_c, 1, 67, 127
1, 164083, Note_off_c, 1, 67, 0
1, 164086, Note_off_c, 1, 82, 0
1, 164280, Note_on_c, 1, 65, 127
1, 164280, Note_on_c, 1, 80, 127
1, 164456, Note_off_c, 1, 65, 0
1, 164456, Note_off_c, 1, 80, 0
1, 164471, Note_on_c, 1, 63, 127
1, 164841, Note_off_c, 1, 63, 0
1, 165041, Note_on_c, 1, 77, 127
1, 165217, Note_off_c, 1, 77, 0
1, 165232, Note_on_c, 1, 75, 127
1, 165602, Note_off_c, 1, 75, 0
1, 165605, Note_off_c, 1, 73, 0
1, 165608, Note_on_c, 1, 68, 127
1, 165608, Note_on_c, 1, 77, 127
1, 165608, Note_on_c, 1, 56, 127
1, 165784, Note_off_c, 1, 68, 0
1, 165784, Note_off_c, 1, 77, 0
1, 165799, Note_on_c, 1, 70, 127
1, 165799, Note_on_c, 1, 79, 127
1, 165975, Note_off_c, 1, 70, 0
1, 165975, Note_off_c, 1, 79, 0
1, 165990, Note_on_c, 1, 80, 127
1, 165990, Note_on_c, 1, 72, 127
1, 166366, Note_off_c, 1, 56, 0
1, 166560, Note_on_c, 1, 67, 127
1, 166736, Note_off_c, 1, 67, 0
1, 166751, Note_on_c, 1, 65, 127
1, 167121, Note_off_c, 1, 65, 0
1, 167124, Note_off_c, 1, 80, 0
1, 167318, Note_on_c, 1, 63, 127
1, 167494, Note_off_c, 1, 63, 0
1, 167509, Note_on_c, 1, 61, 127
1, 167879, Note_off_c, 1, 61, 0
1, 168079, Note_on_c, 1, 60, 127
1, 168079, Note_on_c, 1, 75, 127
1, 168255, Note_off_c, 1, 60, 0
1, 168255, Note_off_c, 1, 75, 0
1, 168270, Note_on_c, 1, 58, 127
1, 168270, Note_on_c, 1, 73, 127
1, 168640, Note_off_c, 1, 58, 0
1, 168643, Note_off_c, 1, 72, 0
1, 169401, Note_off_c, 1, 73, 0
1, 169404, Note_on_c, 1, 51, 127
1, 169777, Note_off_c, 1, 51, 0
1, 171117, Note_on_c, 1, 64, 127
1, 171293, Note_off_c, 1, 64, 0
1, 172827, Note_on_c, 1, 55, 127
1, 173197, Note_off_c, 1, 55, 0
1, 173394, Note_on_c, 1, 53, 127
1, 173394, Note_on_c, 1, 70, 127
1, 173570, Note_off_c, 1, 53, 0
1, 173585, Note_on_c, 1, 52, 127
1, 173585, Note_on_c, 1, 79, 127
1, 173767, Note_off_c, 1, 70, 0
1, 173776, Note_on_c, 1, 68, 127
1, 173952, Note_off_c, 1, 68, 0
1, 173958, Note_off_c, 1, 52, 0
1, 173967, Note_on_c, 1, 48, 127
1, 174158, Note_on_c, 1, 67, 127
1, 174334, Note_off_c, 1, 67, 0
1, 174340, Note_off_c, 1, 48, 0
1, 174534, Note_off_c, 1, 79, 0
1, 174537, Note_on_c, 1, 72, 127
1, 174713, Note_off_c, 1, 72, 0
1, 174728, Note_on_c, 1, 65, 127
1, 174728, Note_on_c, 1, 73, 127
1, 174904, Note_off_c, 1, 65, 0
1, 174904, Note_off_c, 1, 73, 0
1, 174919, Note_on_c, 1, 63, 127
1, 175095, Note_off_c, 1, 63, 0
1, 175110, Note_on_c, 1, 77, 127
1, 175235, Note_on_c, 1, 61, 127
1, 175357, Note_off_c, 1, 61, 0
1, 175862, Note_on_c, 1, 60, 127
1, 176232, Note_off_c, 1, 60, 0
1, 176235, Note_off_c, 1, 77, 0
1, 176239, Note_on_c, 1, 48, 127
1, 176239, Note_on_c, 1, 76, 127
1, 176239, Note_on_c, 1, 67, 127
1, 176415, Note_off_c, 1, 48, 0
1, 176415, Note_off_c, 1, 76, 0
1, 176430, Note_on_c, 1, 50, 127
1, 176430, Note_on_c, 1, 77, 127
1, 176606, Note_off_c, 1, 50, 0
1, 176606, Note_off_c, 1, 77, 0
1, 176612, Note_off_c, 1, 67, 0
1, 176621, Note_on_c, 1, 52, 127
1, 176621, Note_on_c, 1, 72, 127
1, 176621, Note_on_c, 1, 48, 127
1, 176621, Note_on_c, 1, 79, 127
1, 176991, Note_off_c, 1, 52, 0
1, 176991, Note_off_c, 1, 72, 0
1, 177000, Note_on_c, 1, 50, 127
1, 177000, Note_on_c, 1, 70, 127
1, 177176, Note_off_c, 1, 50, 0
1, 177373, Note_off_c, 1, 70, 0
1, 177376, Note_off_c, 1, 48, 0
1, 177379, Note_on_c, 1, 53, 127
1, 177379, Note_on_c, 1, 68, 127
1, 177379, Note_on_c, 1, 49, 127
1, 177555, Note_off_c, 1, 53, 0
1, 177752, Note_off_c, 1, 68, 0
1, 177755, Note_off_c, 1, 79, 0
1, 177758, Note_on_c, 1, 77, 127
1, 177949, Note_on_c, 1, 55, 127
1, 178125, Note_off_c, 1, 55, 0
1, 178134, Note_off_c, 1, 49, 0
1, 178137, Note_on_c, 1, 56, 127
1, 178328, Note_on_c, 1, 60, 127
1, 178504, Note_off_c, 1, 60, 0
1, 178513, Note_off_c, 1, 77, 0
1, 178516, Note_on_c, 1, 62, 127
1, 178516, Note_on_c, 1, 75, 127
1, 178692, Note_off_c, 1, 62, 0
1, 178707, Note_on_c, 1, 63, 127
1, 178883, Note_off_c, 1, 63, 0
1, 178889, Note_off_c, 1, 75, 0
1, 178895, Note_on_c, 1, 74, 127
1, 178895, Note_on_c, 1, 47, 127
1, 178895, Note_on_c, 1, 65, 127
1, 178966, Note_off_c, 1, 56, 0
1, 179268, Note_off_c, 1, 74, 0
1, 179653, Note_off_c, 1, 47, 0
1, 179656, Note_on_c, 1, 58, 127
1, 180032, Note_off_c, 1, 65, 0
1, 180035, Note_on_c, 1, 76, 127
1, 180035, Note_on_c, 1, 67, 127
1, 180211, Note_off_c, 1, 76, 0
1, 180408, Note_off_c, 1, 67, 0
1, 180485, Note_off_c, 1, 58, 0
1, 181175, Note_on_c, 1, 46, 127
1, 181175, Note_on_c, 1, 61, 127
1, 181930, Note_off_c, 1, 46, 0
1, 181933, Note_on_c, 1, 45, 127
1, 182004, Note_off_c, 1, 61, 0
1, 182506, Note_on_c, 1, 64, 127
1, 182682, Note_off_c, 1, 64, 0
1, 182691, Note_off_c, 1, 45, 0
1, 182694, Note_on_c, 1, 44, 127
1, 183449, Note_off_c, 1, 44, 0
1, 183452, Note_on_c, 1, 73, 127
1, 183452, Note_on_c, 1, 43, 127
1, 183822, Note_off_c, 1, 73, 0
1, 184968, Note_off_c, 1, 43, 0
1, 184971, Note_on_c, 1, 41, 127
1, 185350, Note_off_c, 1, 41, 0
1, 186903, Note_on_c, 1, 78, 127
1, 187082, Note_off_c, 1, 78, 0
1, 187291, Note_on_c, 1, 66, 127
1, 187872, Note_on_c, 1, 54, 127
1, 188051, Note_off_c, 1, 54, 0
1, 188448, Note_off_c, 1, 66, 0
1, 188451, Note_on_c, 1, 49, 127
1, 188451, Note_on_c, 1, 65, 127
1, 188451, Note_on_c, 1, 70, 127
1, 188630, Note_off_c, 1, 49, 0
1, 188630, Note_off_c, 1, 65, 0
1, 188630, Note_off_c, 1, 70, 0
1, 188645, Note_on_c, 1, 51, 127
1, 188645, Note_on_c, 1, 63, 127
1, 188645, Note_on_c, 1, 72, 127
1, 188824, Note_off_c, 1, 51, 0
1, 188824, Note_off_c, 1, 63, 0
1, 188824, Note_off_c, 1, 72, 0
1, 188838, Note_on_c, 1, 53, 127
1, 188838, Note_on_c, 1, 61, 127
1, 188838, Note_on_c, 1, 73, 127
1, 189217, Note_off_c, 1, 53, 0
1, 189217, Note_off_c, 1, 61, 0
1, 189226, Note_on_c, 1, 56, 127
1, 189405, Note_off_c, 1, 56, 0
1, 189420, Note_on_c, 1, 55, 127
1, 189420, Note_on_c, 1, 58, 127
1, 189599, Note_off_c, 1, 55, 0
1, 189599, Note_off_c, 1, 58, 0
1, 189604, Note_off_c, 1, 73, 0
1, 189614, Note_on_c, 1, 60, 127
1, 189614, Note_on_c, 1, 56, 127
1, 189993, Note_off_c, 1, 60, 0
1, 190001, Note_on_c, 1, 75, 127
1, 190180, Note_off_c, 1, 75, 0
1, 190195, Note_on_c, 1, 61, 127
1, 190195, Note_on_c, 1, 73, 127
1, 190374, Note_off_c, 1, 61, 0
1, 190374, Note_off_c, 1, 73, 0
1, 190389, Note_on_c, 1, 72, 127
1, 190389, Note_on_c, 1, 63, 127
1, 190568, Note_off_c, 1, 72, 0
1, 190580, Note_off_c, 1, 56, 0
1, 190583, Note_on_c, 1, 54, 127
1, 190583, Note_on_c, 1, 70, 127
1, 190762, Note_off_c, 1, 54, 0
1, 190762, Note_off_c, 1, 70, 0
1, 190776, Note_on_c, 1, 53, 127
1, 190776, Note_on_c, 1, 68, 127
1, 190955, Note_off_c, 1, 53, 0
1, 190955, Note_off_c, 1, 68, 0
1, 190970, Note_on_c, 1, 51, 127
1, 190970, Note_on_c, 1, 66, 127
1, 191149, Note_off_c, 1, 51, 0
1, 191149, Note_off_c, 1, 66, 0
1, 191164, Note_on_c, 1, 49, 127
1, 191164, Note_on_c, 1, 65, 127
1, 191543, Note_off_c, 1, 49, 0
1, 191543, Note_off_c, 1, 65, 0
1, 191546, Note_off_c, 1, 63, 0
1, 191549, Note_on_c, 1, 46, 127
1, 191549, Note_on_c, 1, 61, 127
1, 191549, Note_on_c, 1, 67, 127
1, 191728, Note_off_c, 1, 46, 0
1, 191728, Note_off_c, 1, 61, 0
1, 191728, Note_off_c, 1, 67, 0
1, 191743, Note_on_c, 1, 48, 127
1, 191743, Note_on_c, 1, 60, 127
1, 191743, Note_on_c, 1, 69, 127
1, 191922, Note_off_c, 1, 48, 0
1, 191922, Note_off_c, 1, 60, 0
1, 191922, Note_off_c, 1, 69, 0
1, 191936, Note_on_c, 1, 49, 127
1, 191936, Note_on_c, 1, 58, 127
1, 191936, Note_on_c, 1, 70, 127
1, 192315, Note_off_c, 1, 49, 0
1, 192315, Note_off_c, 1, 58, 0
1, 192324, Note_on_c, 1, 53, 127
1, 192503, Note_off_c, 1, 53, 0
1, 192518, Note_on_c, 1, 51, 127
1, 192518, Note_on_c, 1, 55, 127
1, 192697, Note_off_c, 1, 51, 0
1, 192697, Note_off_c, 1, 55, 0
1, 192702, Note_off_c, 1, 70, 0
1, 192712, Note_on_c, 1, 56, 127
1, 192712, Note_on_c, 1, 53, 127
1, 193091, Note_off_c, 1, 56, 0
1, 193099, Note_on_c, 1, 72, 127
1, 193278, Note_off_c, 1, 72, 0
1, 193293, Note_on_c, 1, 58, 127
1, 193293, Note_on_c, 1, 70, 127
1, 193472, Note_off_c, 1, 58, 0
1, 193472, Note_off_c, 1, 70, 0
1, 193487, Note_on_c, 1, 68, 127
1, 193487, Note_on_c, 1, 60, 127
1, 193666, Note_off_c, 1, 68, 0
1, 193678, Note_off_c, 1, 53, 0
1, 193681, Note_on_c, 1, 51, 127
1, 193681, Note_on_c, 1, 67, 127
1, 193860, Note_off_c, 1, 51, 0
1, 193860, Note_off_c, 1, 67, 0
1, 193874, Note_on_c, 1, 49, 127
1, 193874, Note_on_c, 1, 65, 127
1, 194053, Note_off_c, 1, 49, 0
1, 194053, Note_off_c, 1, 65, 0
1, 194068, Note_on_c, 1, 48, 127
1, 194068, Note_on_c, 1, 63, 127
1, 194247, Note_off_c, 1, 48, 0
1, 194247, Note_off_c, 1, 63, 0
1, 194262, Note_on_c, 1, 46, 127
1, 194262, Note_on_c, 1, 61, 127
1, 194441, Note_off_c, 1, 46, 0
1, 194646, Note_off_c, 1, 60, 0
1, 195028, Note_off_c, 1, 61, 0
1, 195037, Note_on_c, 1, 46, 127
1, 195037, Note_on_c, 1, 61, 127
1, 195216, Note_off_c, 1, 46, 0
1, 195231, Note_on_c, 1, 44, 127
1, 195231, Note_on_c, 1, 65, 127
1, 195410, Note_off_c, 1, 44, 0
1, 195410, Note_off_c, 1, 65, 0
1, 195425, Note_on_c, 1, 43, 127
1, 195425, Note_on_c, 1, 70, 127
1, 195604, Note_off_c, 1, 43, 0
1, 195604, Note_off_c, 1, 70, 0
1, 195619, Note_on_c, 1, 41, 127
1, 195619, Note_on_c, 1, 68, 127
1, 195798, Note_off_c, 1, 41, 0
1, 195798, Note_off_c, 1, 68, 0
1, 195812, Note_on_c, 1, 39, 127
1, 195812, Note_on_c, 1, 67, 127
1, 196191, Note_off_c, 1, 39, 0
1, 196194, Note_off_c, 1, 61, 0
1, 196197, Note_on_c, 1, 63, 127
1, 196376, Note_off_c, 1, 63, 0
1, 196578, Note_off_c, 1, 67, 0
1, 196582, Note_on_c, 1, 48, 127
1, 196582, Note_on_c, 1, 60, 127
1, 196582, Note_on_c, 1, 63, 127
1, 196582, Note_on_c, 1, 68, 127
1, 196961, Note_off_c, 1, 48, 0
1, 196961, Note_off_c, 1, 60, 0
1, 196970, Note_on_c, 1, 61, 127
1, 196970, Note_on_c, 1, 44, 127
1, 197149, Note_off_c, 1, 61, 0
1, 197349, Note_off_c, 1, 44, 0
1, 197351, Note_off_c, 1, 63, 0
1, 197354, Note_on_c, 1, 49, 127
1, 197354, Note_on_c, 1, 65, 127
1, 197354, Note_on_c, 1, 58, 127
1, 197542, Note_off_c, 1, 68, 0
1, 197545, Note_on_c, 1, 67, 127
1, 197724, Note_off_c, 1, 67, 0
1, 197730, Note_off_c, 1, 49, 0
1, 197739, Note_on_c, 1, 46, 127
1, 197933, Note_on_c, 1, 70, 127
1, 198112, Note_off_c, 1, 70, 0
1, 198118, Note_off_c, 1, 46, 0
1, 198120, Note_off_c, 1, 65, 0
1, 198124, Note_on_c, 1, 51, 127
1, 198124, Note_on_c, 1, 72, 127
1, 198503, Note_off_c, 1, 51, 0
1, 198505, Note_off_c, 1, 58, 0
1, 198509, Note_on_c, 1, 56, 127
1, 198688, Note_off_c, 1, 56, 0
1, 198702, Note_on_c, 1, 55, 127
1, 198881, Note_off_c, 1, 55, 0
1, 198893, Note_on_c, 1, 53, 127
1, 198893, Note_on_c, 1, 62, 127
1, 199081, Note_off_c, 1, 72, 0
1, 199269, Note_off_c, 1, 53, 0
1, 199662, Note_off_c, 1, 62, 0
1, 199666, Note_on_c, 1, 73, 127
1, 200629, Note_off_c, 1, 73, 0
1, 201019, Note_on_c, 1, 75, 127
1, 201198, Note_off_c, 1, 75, 0
1, 201213, Note_on_c, 1, 77, 127
1, 202176, Note_off_c, 1, 77, 0
1, 202567, Note_on_c, 1, 79, 127
1, 202746, Note_off_c, 1, 79, 0
1, 202761, Note_on_c, 1, 50, 127
1, 202761, Note_on_c, 1, 59, 127
1, 202761, Note_on_c, 1, 80, 127
1, 202955, Note_on_c, 1, 53, 127
1, 203134, Note_off_c, 1, 53, 0
1, 203148, Note_on_c, 1, 55, 127
1, 203327, Note_off_c, 1, 55, 0
1, 203342, Note_on_c, 1, 56, 127
1, 203521, Note_off_c, 1, 56, 0
1, 203533, Note_off_c, 1, 50, 0
1, 203533, Note_off_c, 1, 59, 0
1, 203536, Note_on_c, 1, 51, 127
1, 203536, Note_on_c, 1, 58, 127
1, 203915, Note_off_c, 1, 51, 0
1, 203918, Note_off_c, 1, 80, 0
1, 203921, Note_on_c, 1, 79, 127
1, 204100, Note_off_c, 1, 79, 0
1, 204114, Note_on_c, 1, 77, 127
1, 204293, Note_off_c, 1, 77, 0
1, 204308, Note_on_c, 1, 52, 127
1, 204687, Note_off_c, 1, 52, 0
1, 204696, Note_on_c, 1, 48, 127
1, 205075, Note_off_c, 1, 48, 0
1, 205077, Note_off_c, 1, 58, 0
1, 205272, Note_on_c, 1, 72, 127
1, 205451, Note_off_c, 1, 72, 0
1, 205465, Note_on_c, 1, 74, 127
1, 205644, Note_off_c, 1, 74, 0
1, 205659, Note_on_c, 1, 75, 127
1, 205838, Note_off_c, 1, 75, 0
1, 206044, Note_on_c, 1, 71, 127
1, 206223, Note_off_c, 1, 71, 0
1, 206625, Note_on_c, 1, 47, 127
1, 206625, Note_on_c, 1, 67, 127
1, 206804, Note_off_c, 1, 47, 0
1, 206819, Note_on_c, 1, 43, 127
1, 206998, Note_off_c, 1, 43, 0
1, 207013, Note_on_c, 1, 45, 127
1, 207192, Note_off_c, 1, 45, 0
1, 207594, Note_on_c, 1, 44, 127
1, 207773, Note_off_c, 1, 44, 0
1, 207784, Note_off_c, 1, 67, 0
1, 207788, Note_on_c, 1, 46, 127
1, 207788, Note_on_c, 1, 66, 127
1, 207967, Note_off_c, 1, 46, 0
1, 208167, Note_off_c, 1, 66, 0
1, 208176, Note_on_c, 1, 49, 127
1, 208176, Note_on_c, 1, 65, 127
1, 208367, Note_on_c, 1, 68, 127
1, 208546, Note_off_c, 1, 68, 0
1, 208552, Note_off_c, 1, 49, 0
1, 208560, Note_on_c, 1, 70, 127
1, 208739, Note_off_c, 1, 70, 0
1, 208948, Note_on_c, 1, 73, 127
1, 209136, Note_off_c, 1, 65, 0
1, 209720, Note_on_c, 1, 63, 127
1, 209914, Note_on_c, 1, 39, 127
1, 210093, Note_off_c, 1, 39, 0
1, 210105, Note_off_c, 1, 73, 0
1, 210108, Note_on_c, 1, 41, 127
1, 210287, Note_off_c, 1, 41, 0
1, 210686, Note_off_c, 1, 63, 0
1, 211271, Note_on_c, 1, 61, 127
1, 213009, Note_off_c, 1, 61, 0
1, 213206, Note_on_c, 1, 60, 127
1, 213385, Note_off_c, 1, 60, 0
1, 218994, Note_on_c, 1, 75, 127
1, 218994, Note_on_c, 1, 60, 127
1, 218994, Note_on_c, 1, 48, 127
1, 218994, Note_on_c, 1, 57, 127
1, 219173, Note_off_c, 1, 75, 0
1, 219188, Note_on_c, 1, 72, 127
1, 219367, Note_off_c, 1, 72, 0
1, 219373, Note_off_c, 1, 60, 0
1, 219382, Note_on_c, 1, 74, 127
1, 219561, Note_off_c, 1, 74, 0
1, 219576, Note_on_c, 1, 58, 127
1, 219755, Note_off_c, 1, 58, 0
1, 219766, Note_off_c, 1, 48, 0
1, 219766, Note_off_c, 1, 57, 0
1, 219770, Note_on_c, 1, 77, 127
1, 219770, Note_on_c, 1, 56, 127
1, 219770, Note_on_c, 1, 62, 127
1, 219949, Note_off_c, 1, 77, 0
1, 219963, Note_on_c, 1, 75, 127
1, 220142, Note_off_c, 1, 75, 0
1, 220149, Note_off_c, 1, 56, 0
1, 220157, Note_on_c, 1, 58, 127
1, 220157, Note_on_c, 1, 74, 127
1, 220336, Note_off_c, 1, 58, 0
1, 220336, Note_off_c, 1, 74, 0
1, 220351, Note_on_c, 1, 72, 127
1, 220530, Note_off_c, 1, 72, 0
1, 220542, Note_off_c, 1, 62, 0
1, 220545, Note_on_c, 1, 55, 127
1, 220545, Note_on_c, 1, 63, 127
1, 220545, Note_on_c, 1, 70, 127
1, 220739, Note_on_c, 1, 60, 127
1, 220918, Note_off_c, 1, 60, 0
1, 220924, Note_off_c, 1, 55, 0
1, 220924, Note_off_c, 1, 63, 0
1, 220932, Note_on_c, 1, 46, 127
1, 220932, Note_on_c, 1, 62, 127
1, 221111, Note_off_c, 1, 46, 0
1, 221111, Note_off_c, 1, 62, 0
1, 221126, Note_on_c, 1, 48, 127
1, 221305, Note_off_c, 1, 48, 0
1, 221320, Note_on_c, 1, 65, 127
1, 221320, Note_on_c, 1, 50, 127
1, 221320, Note_on_c, 1, 56, 127
1, 221499, Note_off_c, 1, 65, 0
1, 221699, Note_off_c, 1, 50, 0
1, 222092, Note_off_c, 1, 56, 0
1, 222095, Note_on_c, 1, 51, 127
1, 222095, Note_on_c, 1, 58, 127
1, 222283, Note_off_c, 1, 70, 0
1, 222286, Note_on_c, 1, 68, 127
1, 222465, Note_off_c, 1, 68, 0
1, 222471, Note_off_c, 1, 51, 0
1, 222480, Note_on_c, 1, 67, 127
1, 222659, Note_off_c, 1, 67, 0
1, 222867, Note_on_c, 1, 54, 127
1, 223249, Note_off_c, 1, 58, 0
1, 223252, Note_on_c, 1, 57, 127
1, 223431, Note_off_c, 1, 57, 0
1, 223636, Note_off_c, 1, 54, 0
1, 223640, Note_on_c, 1, 45, 127
1, 223640, Note_on_c, 1, 53, 127
1, 224409, Note_off_c, 1, 45, 0
1, 224606, Note_on_c, 1, 72, 127
1, 224785, Note_off_c, 1, 72, 0
1, 225164, Note_off_c, 1, 53, 0
1, 225960, Note_on_c, 1, 75, 127
1, 226920, Note_off_c, 1, 75, 0
1, 226923, Note_on_c, 1, 79, 127
1, 227102, Note_off_c, 1, 79, 0
1, 227117, Note_on_c, 1, 77, 127
1, 227296, Note_off_c, 1, 77, 0
1, 227504, Note_on_c, 1, 74, 127
1, 228663, Note_off_c, 1, 74, 0
1, 230984, Note_on_c, 1, 43, 127
1, 231178, Note_on_c, 1, 61, 127
1, 231357, Note_off_c, 1, 61, 0
1, 231363, Note_off_c, 1, 43, 0
1, 231372, Note_on_c, 1, 44, 127
1, 232529, Note_off_c, 1, 44, 0
1, 234077, Note_on_c, 1, 39, 127
1, 234456, Note_off_c, 1, 39, 0
1, 234464, Note_on_c, 1, 41, 127
1, 234840, Note_off_c, 1, 41, 0
1, 234849, Note_on_c, 1, 50, 127
1, 234849, Note_on_c, 1, 68, 127
1, 234849, Note_on_c, 1, 43, 127
1, 234849, Note_on_c, 1, 47, 127
1, 235028, Note_off_c, 1, 50, 0
1, 235028, Note_off_c, 1, 68, 0
1, 235043, Note_on_c, 1, 51, 127
1, 235043, Note_on_c, 1, 67, 127
1, 235222, Note_off_c, 1, 51, 0
1, 235222, Note_off_c, 1, 67, 0
1, 235228, Note_off_c, 1, 43, 0
1, 235228, Note_off_c, 1, 47, 0
1, 235236, Note_on_c, 1, 65, 127
1, 235236, Note_on_c, 1, 44, 127
1, 235236, Note_on_c, 1, 53, 127
1, 235236, Note_on_c, 1, 48, 127
1, 235415, Note_off_c, 1, 65, 0
1, 235430, Note_on_c, 1, 63, 127
1, 235609, Note_off_c, 1, 63, 0
1, 235615, Note_off_c, 1, 44, 0
1, 235615, Note_off_c, 1, 53, 0
1, 235624, Note_on_c, 1, 62, 127
1, 235624, Note_on_c, 1, 45, 127
1, 235624, Note_on_c, 1, 54, 127
1, 235803, Note_off_c, 1, 62, 0
1, 235818, Note_on_c, 1, 60, 127
1, 235997, Note_off_c, 1, 60, 0
1, 236003, Note_off_c, 1, 45, 0
1, 236003, Note_off_c, 1, 54, 0
1, 236005, Note_off_c, 1, 48, 0
1, 236009, Note_on_c, 1, 55, 127
1, 236009, Note_on_c, 1, 43, 127
1, 236009, Note_on_c, 1, 50, 127
1, 236009, Note_on_c, 1, 59, 127
1, 236388, Note_off_c, 1, 55, 0
1, 236590, Note_on_c, 1, 57, 127
1, 236769, Note_off_c, 1, 57, 0
1, 236775, Note_off_c, 1, 43, 0
1, 236775, Note_off_c, 1, 50, 0
1, 236778, Note_off_c, 1, 59, 0
1, 236781, Note_on_c, 1, 59, 127
1, 236781, Note_on_c, 1, 79, 127
1, 237160, Note_off_c, 1, 59, 0
1, 237169, Note_on_c, 1, 57, 127
1, 237348, Note_off_c, 1, 57, 0
1, 237553, Note_off_c, 1, 79, 0
1, 237556, Note_on_c, 1, 60, 127
1, 237556, Note_on_c, 1, 80, 127
1, 237735, Note_off_c, 1, 60, 0
1, 237750, Note_on_c, 1, 59, 127
1, 237929, Note_off_c, 1, 59, 0
1, 237944, Note_on_c, 1, 72, 127
1, 238138, Note_on_c, 1, 62, 127
1, 238317, Note_off_c, 1, 62, 0
1, 238328, Note_off_c, 1, 80, 0
1, 238332, Note_on_c, 1, 79, 127
1, 238332, Note_on_c, 1, 63, 127
1, 238713, Note_off_c, 1, 72, 0
1, 238716, Note_on_c, 1, 70, 127
1, 239095, Note_off_c, 1, 70, 0
1, 239098, Note_off_c, 1, 79, 0
1, 239101, Note_on_c, 1, 69, 127
1, 239101, Note_on_c, 1, 78, 127
1, 239289, Note_off_c, 1, 63, 0
1, 239477, Note_off_c, 1, 69, 0
1, 239486, Note_on_c, 1, 71, 127
1, 239665, Note_off_c, 1, 71, 0
1, 239870, Note_off_c, 1, 78, 0
1, 239873, Note_on_c, 1, 74, 127
1, 239873, Note_on_c, 1, 83, 127
1, 239873, Note_on_c, 1, 65, 127
1, 240052, Note_off_c, 1, 74, 0
1, 240067, Note_on_c, 1, 72, 127
1, 240246, Note_off_c, 1, 72, 0
1, 240261, Note_on_c, 1, 71, 127
1, 240440, Note_off_c, 1, 71, 0
1, 240455, Note_on_c, 1, 69, 127
1, 240634, Note_off_c, 1, 69, 0
1, 240645, Note_off_c, 1, 83, 0
1, 240649, Note_on_c, 1, 67, 127
1, 240649, Note_on_c, 1, 84, 127
1, 240836, Note_off_c, 1, 65, 0
1, 240840, Note_on_c, 1, 63, 127
1, 241019, Note_off_c, 1, 63, 0
1, 241210, Note_off_c, 1, 67, 0
1, 241418, Note_off_c, 1, 84, 0
1, 241421, Note_on_c, 1, 77, 127
1, 241421, Note_on_c, 1, 68, 127
1, 241615, Note_on_c, 1, 55, 127
1, 241794, Note_off_c, 1, 55, 0
1, 241809, Note_on_c, 1, 57, 127
1, 241988, Note_off_c, 1, 57, 0
1, 242002, Note_on_c, 1, 59, 127
1, 242181, Note_off_c, 1, 59, 0
1, 242193, Note_off_c, 1, 77, 0
1, 242196, Note_on_c, 1, 76, 127
1, 242196, Note_on_c, 1, 60, 127
1, 242384, Note_off_c, 1, 68, 0
1, 242387, Note_on_c, 1, 67, 127
1, 242566, Note_off_c, 1, 67, 0
1, 242581, Note_on_c, 1, 69, 127
1, 242760, Note_off_c, 1, 69, 0
1, 242775, Note_on_c, 1, 71, 127
1, 242954, Note_off_c, 1, 71, 0
1, 242965, Note_off_c, 1, 76, 0
1, 242969, Note_on_c, 1, 75, 127
1, 242969, Note_on_c, 1, 72, 127
1, 243156, Note_off_c, 1, 60, 0
1, 243353, Note_on_c, 1, 62, 127
1, 243532, Note_off_c, 1, 62, 0
1, 243547, Note_on_c, 1, 63, 127
1, 243726, Note_off_c, 1, 63, 0
1, 243738, Note_off_c, 1, 75, 0
1, 243741, Note_on_c, 1, 65, 127
1, 243741, Note_on_c, 1, 74, 127
1, 243920, Note_off_c, 1, 65, 0
1, 244126, Note_off_c, 1, 72, 0
1, 245086, Note_off_c, 1, 74, 0
1, 245097, Note_on_c, 1, 65, 127
1, 245097, Note_on_c, 1, 74, 127
1, 245276, Note_off_c, 1, 65, 0
1, 245291, Note_on_c, 1, 63, 127
1, 245291, Note_on_c, 1, 67, 127
1, 245470, Note_off_c, 1, 63, 0
1, 245661, Note_off_c, 1, 74, 0
1, 245679, Note_on_c, 1, 72, 127
1, 245858, Note_off_c, 1, 72, 0
1, 245873, Note_on_c, 1, 62, 127
1, 246052, Note_off_c, 1, 62, 0
1, 246066, Note_on_c, 1, 60, 127
1, 246066, Note_on_c, 1, 75, 127
1, 246445, Note_off_c, 1, 60, 0
1, 246448, Note_off_c, 1, 67, 0
1, 246645, Note_on_c, 1, 58, 127
1, 246824, Note_off_c, 1, 58, 0
1, 246839, Note_on_c, 1, 57, 127
1, 247218, Note_off_c, 1, 57, 0
1, 247420, Note_on_c, 1, 55, 127
1, 247420, Note_on_c, 1, 70, 127
1, 247599, Note_off_c, 1, 55, 0
1, 247599, Note_off_c, 1, 70, 0
1, 247614, Note_on_c, 1, 53, 127
1, 247614, Note_on_c, 1, 69, 127
1, 247993, Note_off_c, 1, 53, 0
1, 247993, Note_off_c, 1, 69, 0
1, 248770, Note_off_c, 1, 75, 0
1, 248774, Note_on_c, 1, 65, 127
1, 248774, Note_on_c, 1, 74, 127
1, 248774, Note_on_c, 1, 70, 127
1, 248953, Note_off_c, 1, 65, 0
1, 248953, Note_off_c, 1, 74, 0
1, 248968, Note_on_c, 1, 63, 127
1, 248968, Note_on_c, 1, 75, 127
1, 249147, Note_off_c, 1, 63, 0
1, 249147, Note_off_c, 1, 75, 0
1, 249162, Note_on_c, 1, 62, 127
1, 249162, Note_on_c, 1, 77, 127
1, 249541, Note_off_c, 1, 62, 0
1, 249543, Note_off_c, 1, 70, 0
1, 249546, Note_on_c, 1, 68, 127
1, 249740, Note_on_c, 1, 60, 127
1, 249919, Note_off_c, 1, 60, 0
1, 249925, Note_off_c, 1, 68, 0
1, 249934, Note_on_c, 1, 59, 127
1, 249934, Note_on_c, 1, 67, 127
1, 250313, Note_off_c, 1, 59, 0
1, 250313, Note_off_c, 1, 67, 0
1, 250515, Note_on_c, 1, 57, 127
1, 250515, Note_on_c, 1, 72, 127
1, 250694, Note_off_c, 1, 57, 0
1, 250694, Note_off_c, 1, 72, 0
1, 250709, Note_on_c, 1, 55, 127
1, 250709, Note_on_c, 1, 71, 127
1, 251088, Note_off_c, 1, 55, 0
1, 251088, Note_off_c, 1, 71, 0
1, 251672, Note_off_c, 1, 77, 0
1, 251869, Note_on_c, 1, 58, 127
1, 251869, Note_on_c, 1, 76, 127
1, 252048, Note_off_c, 1, 58, 0
1, 252048, Note_off_c, 1, 76, 0
1, 252063, Note_on_c, 1, 56, 127
1, 252063, Note_on_c, 1, 79, 127
1, 252242, Note_off_c, 1, 56, 0
1, 252242, Note_off_c, 1, 79, 0
1, 252641, Note_on_c, 1, 61, 127
1, 252835, Note_on_c, 1, 53, 127
1, 253014, Note_off_c, 1, 53, 0
1, 253020, Note_off_c, 1, 61, 0
1, 253029, Note_on_c, 1, 52, 127
1, 253408, Note_off_c, 1, 52, 0
1, 253610, Note_on_c, 1, 50, 127
1, 253789, Note_off_c, 1, 50, 0
1, 253804, Note_on_c, 1, 48, 127
1, 253804, Note_on_c, 1, 64, 127
1, 254183, Note_off_c, 1, 48, 0
1, 254183, Note_off_c, 1, 64, 0
1, 256147, Note_on_c, 1, 49, 127
1, 256927, Note_off_c, 1, 49, 0
1, 257717, Note_on_c, 1, 47, 127
1, 258495, Note_off_c, 1, 47, 0
1, 258498, Note_on_c, 1, 55, 127
1, 258498, Note_on_c, 1, 70, 127
1, 258498, Note_on_c, 1, 52, 127
1, 258680, Note_off_c, 1, 55, 0
1, 258695, Note_on_c, 1, 58, 127
1, 258877, Note_off_c, 1, 58, 0
1, 258891, Note_on_c, 1, 56, 127
1, 258891, Note_on_c, 1, 61, 127
1, 259073, Note_off_c, 1, 56, 0
1, 259276, Note_off_c, 1, 70, 0
1, 259278, Note_off_c, 1, 52, 0
1, 259282, Note_on_c, 1, 53, 127
1, 259479, Note_on_c, 1, 68, 127
1, 259661, Note_off_c, 1, 68, 0
1, 259671, Note_off_c, 1, 61, 0
1, 259675, Note_on_c, 1, 60, 127
1, 259872, Note_on_c, 1, 72, 127
1, 260054, Note_off_c, 1, 72, 0
1, 260059, Note_off_c, 1, 60, 0
1, 260062, Note_off_c, 1, 53, 0
1, 260066, Note_on_c, 1, 58, 127
1, 260066, Note_on_c, 1, 46, 127
1, 260066, Note_on_c, 1, 73, 127
1, 260248, Note_off_c, 1, 58, 0
1, 260262, Note_on_c, 1, 53, 127
1, 260444, Note_off_c, 1, 53, 0
1, 260459, Note_on_c, 1, 51, 127
1, 260459, Note_on_c, 1, 66, 127
1, 260641, Note_off_c, 1, 51, 0
1, 260656, Note_on_c, 1, 49, 127
1, 260838, Note_off_c, 1, 49, 0
1, 260849, Note_off_c, 1, 46, 0
1, 260852, Note_on_c, 1, 45, 127
1, 260852, Note_on_c, 1, 48, 127
1, 261043, Note_off_c, 1, 73, 0
1, 261046, Note_on_c, 1, 72, 127
1, 261228, Note_off_c, 1, 72, 0
1, 261239, Note_off_c, 1, 66, 0
1, 261243, Note_on_c, 1, 74, 127
1, 261243, Note_on_c, 1, 65, 127
1, 261425, Note_off_c, 1, 74, 0
1, 261439, Note_on_c, 1, 76, 127
1, 261621, Note_off_c, 1, 76, 0
1, 261632, Note_off_c, 1, 45, 0
1, 261636, Note_on_c, 1, 44, 127
1, 261636, Note_on_c, 1, 77, 127
1, 261826, Note_off_c, 1, 48, 0
1, 261827, Note_off_c, 1, 65, 0
1, 261830, Note_on_c, 1, 50, 127
1, 262012, Note_off_c, 1, 50, 0
1, 262026, Note_on_c, 1, 52, 127
1, 262026, Note_on_c, 1, 67, 127
1, 262208, Note_off_c, 1, 52, 0
1, 262208, Note_off_c, 1, 67, 0
1, 262223, Note_on_c, 1, 68, 127
1, 262405, Note_off_c, 1, 68, 0
1, 262416, Note_off_c, 1, 44, 0
1, 262420, Note_on_c, 1, 55, 127
1, 262420, Note_on_c, 1, 43, 127
1, 262420, Note_on_c, 1, 70, 127
1, 262807, Note_off_c, 1, 77, 0
1, 263397, Note_off_c, 1, 55, 0
1, 263987, Note_off_c, 1, 43, 0
1, 263990, Note_on_c, 1, 41, 127
1, 264189, Note_off_c, 1, 70, 0
1, 264816, Note_on_c, 1, 69, 127
1, 265018, Note_off_c, 1, 41, 0
1, 265022, Note_on_c, 1, 75, 127
1, 265213, Note_off_c, 1, 75, 0
1, 265847, Note_off_c, 1, 69, 0
1, 266272, Note_on_c, 1, 56, 127
1, 266465, Note_off_c, 1, 56, 0
1, 266903, Note_on_c, 1, 63, 127
1, 267096, Note_off_c, 1, 63, 0
1, 267112, Note_on_c, 1, 61, 127
1, 267305, Note_off_c, 1, 61, 0
1, 267321, Note_on_c, 1, 64, 127
1, 267321, Note_on_c, 1, 60, 127
1, 267747, Note_off_c, 1, 64, 0
1, 269930, Note_on_c, 1, 62, 127
1, 270124, Note_off_c, 1, 62, 0
1, 271758, Note_off_c, 1, 60, 0
1, 272061, Note_on_c, 1, 60, 127
1, 272061, Note_on_c, 1, 65, 127
1, 272061, Note_on_c, 1, 41, 127
1, 272061, Note_on_c, 1, 57, 127
1, 275520, Note_off_c, 1, 60, 0
1, 275520, Note_off_c, 1, 65, 0
1, 275520, Note_off_c, 1, 41, 0
1, 275520, Note_off_c, 1, 57, 0
1, 275520, End_track
0, 0, End_of_file