0, 0, Header, 1, 1, 480
1, 0, Start_track
1, 0, Title_t, "Test"
1, 0, Tempo, 500000
1, 0, Instrument_name_t, "Church Organ"
1, 58, Note_on_c, 1, 41, 127
1, 213, Note_on_c, 1, 76, 127
1, 367, Note_off_c, 1, 76, 0
1, 369, Note_on_c, 1, 77, 127
1, 523, Note_off_c, 1, 77, 0
1, 525, Note_on_c, 1, 79, 127
1, 679, Note_off_c, 1, 79, 0
1, 680, Note_on_c, 1, 53, 127
1, 990, Note_off_c, 1, 41, 0
1, 992, Note_on_c, 1, 74, 127
1, 1146, Note_off_c, 1, 74, 0
1, 1149, Note_on_c, 1, 72, 127
1, 1303, Note_off_c, 1, 72, 0
1, 1304, Note_on_c, 1, 57, 127
1, 1616, Note_on_c, 1, 70, 127
1, 1770, Note_off_c, 1, 70, 0
1, 1771, Note_on_c, 1, 69, 127
1, 1925, Note_off_c, 1, 57, 0
1, 1925, Note_off_c, 1, 69, 0
1, 1928, Note_on_c, 1, 62, 127
1, 2240, Note_on_c, 1, 67, 127
1, 2394, Note_off_c, 1, 67, 0
1, 2395, Note_on_c, 1, 65, 127
1, 2549, Note_off_c, 1, 62, 0
1, 2549, Note_off_c, 1, 65, 0
1, 2550, Note_on_c, 1, 58, 127
1, 2862, Note_on_c, 1, 64, 127
1, 3016, Note_off_c, 1, 64, 0
1, 3171, Note_off_c, 1, 58, 0
1, 3174, Note_on_c, 1, 55, 127
1, 3328, Note_off_c, 1, 55, 0
1, 3486, Note_on_c, 1, 60, 127
1, 3640, Note_off_c, 1, 60, 0
1, 4259, Note_off_c, 1, 53, 0
1, 4421, Note_on_c, 1, 60, 127
1, 4421, Note_on_c, 1, 57, 127
1, 4499, Note_on_c, 1, 65, 127
1, 4577, Note_on_c, 1, 55, 127
1, 4577, Note_on_c, 1, 69, 127
1, 4731, Note_off_c, 1, 55, 0
1, 4732, Note_on_c, 1, 53, 127
1, 4886, Note_off_c, 1, 53, 0
1, 4889, Note_on_c, 1, 52, 127
1, 5042, Note_off_c, 1, 60, 0
1, 5042, Note_off_c, 1, 57, 0
1, 5042, Note_off_c, 1, 65, 0
1, 5043, Note_off_c, 1, 69, 0
1, 5043, Note_off_c, 1, 52, 0
1, 5044, Note_on_c, 1, 62, 127
1, 5044, Note_on_c, 1, 68, 127
1, 5044, Note_on_c, 1, 65, 127
1, 5044, Note_on_c, 1, 53, 127
1, 5200, Note_on_c, 1, 50, 127
1, 5354, Note_off_c, 1, 50, 0
1, 5356, Note_on_c, 1, 48, 127
1, 5510, Note_off_c, 1, 48, 0
1, 5512, Note_on_c, 1, 47, 127
1, 5665, Note_off_c, 1, 62, 0
1, 5666, Note_off_c, 1, 47, 0
1, 5668, Note_on_c, 1, 60, 127
1, 5822, Note_off_c, 1, 68, 0
1, 5822, Note_off_c, 1, 65, 0
1, 5976, Note_off_c, 1, 60, 0
1, 5977, Note_off_c, 1, 53, 0
1, 5980, Note_on_c, 1, 67, 127
1, 5980, Note_on_c, 1, 52, 127
1, 6134, Note_off_c, 1, 67, 0
1, 6134, Note_off_c, 1, 52, 0
1, 6603, Note_on_c, 1, 64, 127
1, 6603, Note_on_c, 1, 55, 127
1, 6757, Note_off_c, 1, 64, 0
1, 6913, Note_off_c, 1, 55, 0
1, 7382, Note_on_c, 1, 46, 127
1, 7536, Note_off_c, 1, 46, 0
1, 7538, Note_on_c, 1, 45, 127
1, 8005, Note_on_c, 1, 63, 127
1, 8159, Note_off_c, 1, 45, 0
1, 8159, Note_off_c, 1, 63, 0
1, 8161, Note_on_c, 1, 54, 127
1, 8161, Note_on_c, 1, 50, 127
1, 8161, Note_on_c, 1, 62, 127
1, 8317, Note_on_c, 1, 64, 127
1, 8471, Note_off_c, 1, 54, 0
1, 8471, Note_off_c, 1, 64, 0
1, 8473, Note_on_c, 1, 66, 127
1, 8473, Note_on_c, 1, 58, 127
1, 8627, Note_off_c, 1, 66, 0
1, 8629, Note_on_c, 1, 67, 127
1, 8783, Note_off_c, 1, 58, 0
1, 8783, Note_off_c, 1, 67, 0
1, 8785, Note_on_c, 1, 57, 127
1, 8940, Note_on_c, 1, 69, 127
1, 9094, Note_off_c, 1, 69, 0
1, 9096, Note_on_c, 1, 70, 127
1, 9250, Note_off_c, 1, 70, 0
1, 9252, Note_on_c, 1, 72, 127
1, 9402, Note_off_c, 1, 50, 0
1, 9408, Note_on_c, 1, 43, 127
1, 9434, Note_off_c, 1, 57, 0
1, 10027, Note_off_c, 1, 62, 0
1, 10029, Note_off_c, 1, 43, 0
1, 10031, Note_on_c, 1, 46, 127
1, 10185, Note_off_c, 1, 72, 0
1, 10343, Note_on_c, 1, 55, 127
1, 10652, Note_off_c, 1, 46, 0
1, 10810, Note_on_c, 1, 65, 127
1, 10964, Note_off_c, 1, 55, 0
1, 10964, Note_off_c, 1, 65, 0
1, 11278, Note_on_c, 1, 48, 127
1, 11590, Note_on_c, 1, 60, 127
1, 11744, Note_off_c, 1, 60, 0
1, 11746, Note_on_c, 1, 61, 127
1, 11899, Note_off_c, 1, 48, 0
1, 11900, Note_off_c, 1, 61, 0
1, 11901, Note_on_c, 1, 52, 127
1, 12522, Note_off_c, 1, 52, 0
1, 13149, Note_on_c, 1, 53, 127
1, 13770, Note_off_c, 1, 53, 0
1, 14550, Note_on_c, 1, 63, 127
1, 14704, Note_off_c, 1, 63, 0
1, 15330, Note_on_c, 1, 74, 127
1, 15484, Note_off_c, 1, 74, 0
1, 15486, Note_on_c, 1, 75, 127
1, 15640, Note_off_c, 1, 75, 0
1, 15641, Note_on_c, 1, 74, 127
1, 15641, Note_on_c, 1, 58, 127
1, 15798, Note_on_c, 1, 72, 127
1, 15952, Note_off_c, 1, 72, 0
1, 15953, Note_on_c, 1, 70, 127
1, 15953, Note_on_c, 1, 67, 127
1, 15953, Note_on_c, 1, 62, 127
1, 16107, Note_off_c, 1, 70, 0
1, 16110, Note_on_c, 1, 69, 127
1, 16264, Note_off_c, 1, 69, 0
1, 16419, Note_off_c, 1, 67, 0
1, 16732, Note_on_c, 1, 65, 127
1, 16885, Note_off_c, 1, 62, 0
1, 16886, Note_off_c, 1, 65, 0
1, 16889, Note_on_c, 1, 60, 127
1, 16939, Note_off_c, 1, 74, 0
1, 17035, Note_off_c, 1, 58, 0
1, 17044, Note_on_c, 1, 76, 127
1, 17197, Note_off_c, 1, 60, 0
1, 17823, Note_on_c, 1, 57, 127
1, 17977, Note_off_c, 1, 57, 0
1, 17980, Note_on_c, 1, 55, 127
1, 18134, Note_off_c, 1, 76, 0
1, 18134, Note_off_c, 1, 55, 0
1, 18135, Note_on_c, 1, 77, 127
1, 18447, Note_on_c, 1, 53, 127
1, 18601, Note_off_c, 1, 53, 0
1, 18603, Note_on_c, 1, 52, 127
1, 18757, Note_off_c, 1, 52, 0
1, 18759, Note_on_c, 1, 50, 127
1, 18913, Note_off_c, 1, 77, 0
1, 19226, Note_on_c, 1, 79, 127
1, 19380, Note_off_c, 1, 79, 0
1, 19691, Note_off_c, 1, 50, 0
1, 20317, Note_on_c, 1, 71, 127
1, 20471, Note_off_c, 1, 71, 0
1, 21564, Note_on_c, 1, 64, 127
1, 21718, Note_off_c, 1, 64, 0
1, 22031, Note_on_c, 1, 59, 127
1, 22185, Note_off_c, 1, 59, 0
1, 24213, Note_on_c, 1, 48, 127
1, 24367, Note_off_c, 1, 48, 0
1, 24680, Note_on_c, 1, 47, 127
1, 24834, Note_off_c, 1, 47, 0
1, 24837, Note_on_c, 1, 45, 127
1, 24991, Note_off_c, 1, 45, 0
1, 25304, Note_on_c, 1, 43, 127
1, 25614, Note_off_c, 1, 43, 0
1, 26862, Note_on_c, 1, 41, 127
1, 27172, Note_off_c, 1, 41, 0
1, 27174, Note_on_c, 1, 38, 127
1, 27484, Note_off_c, 1, 38, 0
1, 30603, Note_on_c, 1, 72, 127
1, 30603, Note_on_c, 1, 57, 127
1, 30603, Note_on_c, 1, 48, 127
1, 30757, Note_off_c, 1, 72, 0
1, 30759, Note_on_c, 1, 71, 127
1, 30913, Note_off_c, 1, 57, 0
1, 30913, Note_off_c, 1, 71, 0
1, 30914, Note_on_c, 1, 69, 127
1, 30914, Note_on_c, 1, 52, 127
1, 31068, Note_off_c, 1, 69, 0
1, 31070, Note_on_c, 1, 67, 127
1, 31224, Note_off_c, 1, 52, 0
1, 31224, Note_off_c, 1, 67, 0
1, 31226, Note_on_c, 1, 53, 127
1, 31536, Note_off_c, 1, 53, 0
1, 31538, Note_on_c, 1, 65, 127
1, 31692, Note_off_c, 1, 65, 0
1, 31694, Note_on_c, 1, 64, 127
1, 31848, Note_off_c, 1, 64, 0
1, 31850, Note_on_c, 1, 50, 127
1, 32160, Note_off_c, 1, 50, 0
1, 32161, Note_on_c, 1, 62, 127
1, 32315, Note_off_c, 1, 62, 0
1, 32317, Note_on_c, 1, 60, 127
1, 32471, Note_off_c, 1, 60, 0
1, 32785, Note_on_c, 1, 59, 127
1, 32939, Note_off_c, 1, 59, 0
1, 33408, Note_on_c, 1, 55, 127
1, 33562, Note_off_c, 1, 55, 0
1, 34183, Note_off_c, 1, 48, 0
1, 34343, Note_on_c, 1, 55, 127
1, 34343, Note_on_c, 1, 52, 127
1, 34400, Note_on_c, 1, 60, 127
1, 34457, Note_on_c, 1, 64, 127
1, 34499, Note_on_c, 1, 50, 127
1, 34653, Note_off_c, 1, 50, 0
1, 34655, Note_on_c, 1, 48, 127
1, 34809, Note_off_c, 1, 48, 0
1, 34810, Note_on_c, 1, 47, 127
1, 34959, Note_off_c, 1, 64, 0
1, 34964, Note_off_c, 1, 55, 0
1, 34964, Note_off_c, 1, 52, 0
1, 34964, Note_off_c, 1, 47, 0
1, 34965, Note_off_c, 1, 60, 0
1, 34967, Note_on_c, 1, 57, 127
1, 34967, Note_on_c, 1, 63, 127
1, 34967, Note_on_c, 1, 60, 127
1, 34967, Note_on_c, 1, 48, 127
1, 35122, Note_on_c, 1, 45, 127
1, 35276, Note_off_c, 1, 45, 0
1, 35278, Note_on_c, 1, 43, 127
1, 35432, Note_off_c, 1, 43, 0
1, 35434, Note_on_c, 1, 42, 127
1, 35588, Note_off_c, 1, 57, 0
1, 35588, Note_off_c, 1, 42, 0
1, 35590, Note_on_c, 1, 55, 127
1, 35744, Note_off_c, 1, 55, 0
1, 35746, Note_off_c, 1, 60, 0
1, 35900, Note_off_c, 1, 63, 0
1, 35900, Note_off_c, 1, 48, 0
1, 35901, Note_on_c, 1, 62, 127
1, 35901, Note_on_c, 1, 47, 127
1, 36055, Note_off_c, 1, 62, 0
1, 36055, Note_off_c, 1, 47, 0
1, 36525, Note_on_c, 1, 59, 127
1, 36525, Note_on_c, 1, 50, 127
1, 36679, Note_off_c, 1, 59, 0
1, 36835, Note_off_c, 1, 50, 0
1, 37304, Note_on_c, 1, 41, 127
1, 37458, Note_off_c, 1, 41, 0
1, 37460, Note_on_c, 1, 40, 127
1, 37928, Note_on_c, 1, 58, 127
1, 38081, Note_off_c, 1, 40, 0
1, 38082, Note_off_c, 1, 58, 0
1, 38083, Note_on_c, 1, 49, 127
1, 38083, Note_on_c, 1, 45, 127
1, 38083, Note_on_c, 1, 57, 127
1, 38240, Note_on_c, 1, 59, 127
1, 38393, Note_off_c, 1, 49, 0
1, 38394, Note_off_c, 1, 59, 0
1, 38395, Note_on_c, 1, 61, 127
1, 38395, Note_on_c, 1, 53, 127
1, 38549, Note_off_c, 1, 61, 0
1, 38550, Note_on_c, 1, 62, 127
1, 38704, Note_off_c, 1, 62, 0
1, 38705, Note_off_c, 1, 53, 0
1, 38707, Note_on_c, 1, 52, 127
1, 38862, Note_on_c, 1, 64, 127
1, 39016, Note_off_c, 1, 64, 0
1, 39019, Note_on_c, 1, 65, 127
1, 39173, Note_off_c, 1, 65, 0
1, 39174, Note_on_c, 1, 67, 127
1, 39324, Note_off_c, 1, 45, 0
1, 39330, Note_on_c, 1, 38, 127
1, 39356, Note_off_c, 1, 52, 0
1, 39949, Note_off_c, 1, 57, 0
1, 39951, Note_off_c, 1, 38, 0
1, 39953, Note_on_c, 1, 41, 127
1, 40106, Note_off_c, 1, 67, 0
1, 40265, Note_on_c, 1, 50, 127
1, 40574, Note_off_c, 1, 41, 0
1, 40732, Note_on_c, 1, 60, 127
1, 40886, Note_off_c, 1, 50, 0
1, 40886, Note_off_c, 1, 60, 0
1, 41200, Note_on_c, 1, 43, 127
1, 41512, Note_on_c, 1, 55, 127
1, 41666, Note_off_c, 1, 55, 0
1, 41668, Note_on_c, 1, 56, 127
1, 41821, Note_off_c, 1, 43, 0
1, 41822, Note_off_c, 1, 56, 0
1, 41823, Note_on_c, 1, 47, 127
1, 42444, Note_off_c, 1, 47, 0
1, 43070, Note_on_c, 1, 48, 127
1, 43691, Note_off_c, 1, 48, 0
1, 44473, Note_on_c, 1, 58, 127
1, 44627, Note_off_c, 1, 58, 0
1, 45252, Note_on_c, 1, 69, 127
1, 45406, Note_off_c, 1, 69, 0
1, 45408, Note_on_c, 1, 70, 127
1, 45562, Note_off_c, 1, 70, 0
1, 45564, Note_on_c, 1, 69, 127
1, 45564, Note_on_c, 1, 53, 127
1, 45720, Note_on_c, 1, 67, 127
1, 45874, Note_off_c, 1, 67, 0
1, 45876, Note_on_c, 1, 65, 127
1, 45876, Note_on_c, 1, 62, 127
1, 45876, Note_on_c, 1, 57, 127
1, 46030, Note_off_c, 1, 65, 0
1, 46031, Note_on_c, 1, 64, 127
1, 46185, Note_off_c, 1, 64, 0
1, 46342, Note_off_c, 1, 62, 0
1, 46655, Note_on_c, 1, 60, 127
1, 46805, Note_off_c, 1, 69, 0
1, 46808, Note_off_c, 1, 57, 0
1, 46809, Note_off_c, 1, 60, 0
1, 46810, Note_on_c, 1, 55, 127
1, 46959, Note_off_c, 1, 53, 0
1, 46967, Note_on_c, 1, 71, 127
1, 47118, Note_off_c, 1, 55, 0
1, 47746, Note_on_c, 1, 52, 127
1, 47900, Note_off_c, 1, 52, 0
1, 47901, Note_on_c, 1, 50, 127
1, 48046, Note_off_c, 1, 71, 0
1, 48055, Note_off_c, 1, 50, 0
1, 48058, Note_on_c, 1, 72, 127
1, 48369, Note_on_c, 1, 48, 127
1, 48523, Note_off_c, 1, 48, 0
1, 48525, Note_on_c, 1, 46, 127
1, 48679, Note_off_c, 1, 46, 0
1, 48680, Note_on_c, 1, 45, 127
1, 48834, Note_off_c, 1, 45, 0
1, 48991, Note_off_c, 1, 72, 0
1, 48992, Note_on_c, 1, 74, 127
1, 48992, Note_on_c, 1, 53, 127
1, 49146, Note_off_c, 1, 74, 0
1, 49146, Note_off_c, 1, 53, 0
1, 49149, Note_on_c, 1, 75, 127
1, 49149, Note_on_c, 1, 55, 127
1, 49303, Note_off_c, 1, 75, 0
1, 49303, Note_off_c, 1, 55, 0
1, 49304, Note_on_c, 1, 53, 127
1, 49304, Note_on_c, 1, 74, 127
1, 49458, Note_off_c, 1, 53, 0
1, 49460, Note_on_c, 1, 72, 127
1, 49460, Note_on_c, 1, 52, 127
1, 49614, Note_off_c, 1, 72, 0
1, 49614, Note_off_c, 1, 52, 0
1, 49616, Note_on_c, 1, 70, 127
1, 49616, Note_on_c, 1, 50, 127
1, 49770, Note_off_c, 1, 70, 0
1, 49770, Note_off_c, 1, 50, 0
1, 49771, Note_on_c, 1, 69, 127
1, 49771, Note_on_c, 1, 48, 127
1, 49925, Note_off_c, 1, 69, 0
1, 49925, Note_off_c, 1, 48, 0
1, 50240, Note_on_c, 1, 67, 127
1, 50240, Note_on_c, 1, 46, 127
1, 50394, Note_off_c, 1, 67, 0
1, 50394, Note_off_c, 1, 46, 0
1, 50395, Note_on_c, 1, 65, 127
1, 50395, Note_on_c, 1, 45, 127
1, 50545, Note_off_c, 1, 74, 0
1, 50549, Note_off_c, 1, 65, 0
1, 50549, Note_off_c, 1, 45, 0
1, 50550, Note_on_c, 1, 43, 127
1, 50550, Note_on_c, 1, 67, 127
1, 50629, Note_on_c, 1, 70, 127
1, 50704, Note_off_c, 1, 43, 0
1, 50707, Note_on_c, 1, 58, 127
1, 50707, Note_on_c, 1, 76, 127
1, 50861, Note_off_c, 1, 58, 0
1, 50862, Note_on_c, 1, 60, 127
1, 51016, Note_off_c, 1, 60, 0
1, 51019, Note_on_c, 1, 62, 127
1, 51173, Note_off_c, 1, 62, 0
1, 51486, Note_on_c, 1, 57, 127
1, 51640, Note_off_c, 1, 57, 0
1, 51641, Note_on_c, 1, 55, 127
1, 51791, Note_off_c, 1, 67, 0
1, 51795, Note_off_c, 1, 55, 0
1, 51797, Note_off_c, 1, 70, 0
1, 51797, Note_off_c, 1, 76, 0
1, 51798, Note_on_c, 1, 57, 127
1, 51798, Note_on_c, 1, 72, 127
1, 51798, Note_on_c, 1, 65, 127
1, 51798, Note_on_c, 1, 77, 127
1, 51952, Note_off_c, 1, 57, 0
1, 51953, Note_on_c, 1, 55, 127
1, 52106, Note_off_c, 1, 72, 0
1, 52106, Note_off_c, 1, 65, 0
1, 52107, Note_off_c, 1, 55, 0
1, 52110, Note_on_c, 1, 53, 127
1, 52264, Note_off_c, 1, 53, 0
1, 52265, Note_on_c, 1, 52, 127
1, 52419, Note_off_c, 1, 52, 0
1, 52421, Note_on_c, 1, 50, 127
1, 52575, Note_off_c, 1, 50, 0
1, 52576, Note_off_c, 1, 77, 0
1, 52577, Note_on_c, 1, 77, 127
1, 52577, Note_on_c, 1, 57, 127
1, 52731, Note_off_c, 1, 77, 0
1, 52731, Note_off_c, 1, 57, 0
1, 52732, Note_on_c, 1, 79, 127
1, 52732, Note_on_c, 1, 58, 127
1, 52886, Note_off_c, 1, 79, 0
1, 52886, Note_off_c, 1, 58, 0
1, 52889, Note_on_c, 1, 81, 127
1, 52889, Note_on_c, 1, 60, 127
1, 53043, Note_off_c, 1, 81, 0
1, 53043, Note_off_c, 1, 60, 0
1, 53044, Note_on_c, 1, 79, 127
1, 53044, Note_on_c, 1, 58, 127
1, 53198, Note_off_c, 1, 79, 0
1, 53198, Note_off_c, 1, 58, 0
1, 53200, Note_on_c, 1, 77, 127
1, 53200, Note_on_c, 1, 57, 127
1, 53354, Note_off_c, 1, 77, 0
1, 53354, Note_off_c, 1, 57, 0
1, 53356, Note_on_c, 1, 76, 127
1, 53356, Note_on_c, 1, 55, 127
1, 53510, Note_off_c, 1, 76, 0
1, 53510, Note_off_c, 1, 55, 0
1, 53512, Note_on_c, 1, 74, 127
1, 53512, Note_on_c, 1, 53, 127
1, 53666, Note_off_c, 1, 74, 0
1, 53666, Note_off_c, 1, 53, 0
1, 53668, Note_on_c, 1, 76, 127
1, 53668, Note_on_c, 1, 55, 127
1, 53822, Note_off_c, 1, 76, 0
1, 53823, Note_on_c, 1, 74, 127
1, 53823, Note_on_c, 1, 65, 127
1, 53977, Note_off_c, 1, 74, 0
1, 53977, Note_off_c, 1, 65, 0
1, 53980, Note_on_c, 1, 73, 127
1, 53980, Note_on_c, 1, 64, 127
1, 54134, Note_off_c, 1, 73, 0
1, 54134, Note_off_c, 1, 64, 0
1, 54135, Note_on_c, 1, 71, 127
1, 54135, Note_on_c, 1, 62, 127
1, 54289, Note_off_c, 1, 71, 0
1, 54289, Note_off_c, 1, 62, 0
1, 54447, Note_on_c, 1, 70, 127
1, 54601, Note_off_c, 1, 70, 0
1, 54603, Note_on_c, 1, 69, 127
1, 54757, Note_off_c, 1, 69, 0
1, 54759, Note_on_c, 1, 67, 127
1, 54913, Note_off_c, 1, 67, 0
1, 55534, Note_off_c, 1, 55, 0
1, 55538, Note_on_c, 1, 53, 127
1, 55694, Note_on_c, 1, 61, 127
1, 55848, Note_off_c, 1, 61, 0
1, 56317, Note_on_c, 1, 60, 127
1, 56471, Note_off_c, 1, 60, 0
1, 56473, Note_on_c, 1, 58, 127
1, 56473, Note_on_c, 1, 77, 127
1, 56627, Note_off_c, 1, 58, 0
1, 56629, Note_on_c, 1, 57, 127
1, 56779, Note_off_c, 1, 53, 0
1, 56783, Note_off_c, 1, 77, 0
1, 56783, Note_off_c, 1, 57, 0
1, 56785, Note_on_c, 1, 76, 127
1, 56785, Note_on_c, 1, 67, 127
1, 56785, Note_on_c, 1, 58, 127
1, 56940, Note_on_c, 1, 57, 127
1, 57094, Note_off_c, 1, 57, 0
1, 57095, Note_off_c, 1, 76, 0
1, 57095, Note_off_c, 1, 67, 0
1, 57096, Note_on_c, 1, 55, 127
1, 57096, Note_on_c, 1, 79, 127
1, 57096, Note_on_c, 1, 70, 127
1, 57250, Note_off_c, 1, 55, 0
1, 57252, Note_on_c, 1, 53, 127
1, 57406, Note_off_c, 1, 58, 0
1, 57406, Note_off_c, 1, 79, 0
1, 57406, Note_off_c, 1, 70, 0
1, 57406, Note_off_c, 1, 53, 0
1, 57408, Note_on_c, 1, 73, 127
1, 57408, Note_on_c, 1, 64, 127
1, 57408, Note_on_c, 1, 57, 127
1, 57564, Note_on_c, 1, 55, 127
1, 57718, Note_off_c, 1, 73, 0
1, 57718, Note_off_c, 1, 64, 0
1, 57718, Note_off_c, 1, 55, 0
1, 57720, Note_on_c, 1, 53, 127
1, 57720, Note_on_c, 1, 65, 127
1, 57720, Note_on_c, 1, 74, 127
1, 57874, Note_off_c, 1, 53, 0
1, 57876, Note_on_c, 1, 52, 127
1, 58029, Note_off_c, 1, 57, 0
1, 58030, Note_off_c, 1, 52, 0
1, 58186, Note_off_c, 1, 65, 0
1, 58186, Note_off_c, 1, 74, 0
1, 58343, Note_on_c, 1, 45, 127
1, 58499, Note_on_c, 1, 71, 127
1, 58499, Note_on_c, 1, 62, 127
1, 58653, Note_off_c, 1, 71, 0
1, 58653, Note_off_c, 1, 62, 0
1, 58732, Note_on_c, 1, 69, 127
1, 58964, Note_off_c, 1, 45, 0
1, 59122, Note_on_c, 1, 58, 127
1, 59276, Note_off_c, 1, 58, 0
1, 59892, Note_off_c, 1, 69, 0
1, 59901, Note_on_c, 1, 53, 127
1, 60058, Note_on_c, 1, 73, 127
1, 60212, Note_off_c, 1, 73, 0
1, 60213, Note_on_c, 1, 74, 127
1, 60367, Note_off_c, 1, 74, 0
1, 60369, Note_on_c, 1, 76, 127
1, 60523, Note_off_c, 1, 76, 0
1, 60525, Note_on_c, 1, 57, 127
1, 60680, Note_on_c, 1, 72, 127
1, 60834, Note_off_c, 1, 72, 0
1, 60837, Note_on_c, 1, 70, 127
1, 60991, Note_off_c, 1, 70, 0
1, 60992, Note_on_c, 1, 69, 127
1, 61146, Note_off_c, 1, 57, 0
1, 61146, Note_off_c, 1, 69, 0
1, 61149, Note_on_c, 1, 62, 127
1, 61460, Note_on_c, 1, 67, 127
1, 61614, Note_off_c, 1, 67, 0
1, 61616, Note_on_c, 1, 65, 127
1, 61767, Note_off_c, 1, 53, 0
1, 61770, Note_off_c, 1, 65, 0
1, 61771, Note_on_c, 1, 52, 127
1, 62081, Note_off_c, 1, 62, 0
1, 62083, Note_on_c, 1, 64, 127
1, 62237, Note_off_c, 1, 64, 0
1, 62707, Note_on_c, 1, 61, 127
1, 62861, Note_off_c, 1, 61, 0
1, 62862, Note_on_c, 1, 59, 127
1, 63012, Note_off_c, 1, 52, 0
1, 63016, Note_off_c, 1, 59, 0
1, 63174, Note_on_c, 1, 55, 127
1, 63328, Note_off_c, 1, 55, 0
1, 63486, Note_on_c, 1, 58, 127
1, 63640, Note_off_c, 1, 58, 0
1, 64265, Note_on_c, 1, 53, 127
1, 64265, Note_on_c, 1, 57, 127
1, 64343, Note_on_c, 1, 62, 127
1, 64419, Note_off_c, 1, 53, 0
1, 64421, Note_on_c, 1, 52, 127
1, 64421, Note_on_c, 1, 65, 127
1, 64575, Note_off_c, 1, 52, 0
1, 64577, Note_on_c, 1, 50, 127
1, 64731, Note_off_c, 1, 50, 0
1, 64732, Note_on_c, 1, 49, 127
1, 64886, Note_off_c, 1, 49, 0
1, 65044, Note_on_c, 1, 48, 127
1, 65198, Note_off_c, 1, 48, 0
1, 65200, Note_on_c, 1, 47, 127
1, 65354, Note_off_c, 1, 47, 0
1, 65356, Note_on_c, 1, 45, 127
1, 65510, Note_off_c, 1, 45, 0
1, 65660, Note_off_c, 1, 57, 0
1, 65668, Note_on_c, 1, 60, 127
1, 65822, Note_off_c, 1, 60, 0
1, 65823, Note_on_c, 1, 59, 127
1, 65977, Note_off_c, 1, 59, 0
1, 66135, Note_on_c, 1, 56, 127
1, 66445, Note_off_c, 1, 56, 0
1, 67382, Note_on_c, 1, 44, 127
1, 67998, Note_off_c, 1, 65, 0
1, 68076, Note_off_c, 1, 62, 0
1, 68785, Note_on_c, 1, 61, 127
1, 68939, Note_off_c, 1, 61, 0
1, 69096, Note_on_c, 1, 64, 127
1, 69248, Note_off_c, 1, 44, 0
1, 69250, Note_off_c, 1, 64, 0
1, 69252, Note_on_c, 1, 43, 127
1, 69720, Note_on_c, 1, 67, 127
1, 69874, Note_off_c, 1, 67, 0
1, 69876, Note_on_c, 1, 69, 127
1, 70647, Note_off_c, 1, 43, 0
1, 70655, Note_on_c, 1, 46, 127
1, 70809, Note_off_c, 1, 46, 0
1, 71122, Note_on_c, 1, 41, 127
1, 71271, Note_off_c, 1, 69, 0
1, 71434, Note_on_c, 1, 70, 127
1, 71588, Note_off_c, 1, 70, 0
1, 71743, Note_off_c, 1, 41, 0
1, 72369, Note_on_c, 1, 55, 127
1, 72679, Note_off_c, 1, 55, 0
1, 72992, Note_on_c, 1, 58, 127
1, 73302, Note_off_c, 1, 58, 0
1, 79070, Note_on_c, 1, 72, 127
1, 79224, Note_off_c, 1, 72, 0
1, 79226, Note_on_c, 1, 74, 127
1, 80621, Note_off_c, 1, 74, 0
1, 82810, Note_on_c, 1, 76, 127
1, 82964, Note_off_c, 1, 76, 0
1, 82967, Note_on_c, 1, 77, 127
1, 83278, Note_on_c, 1, 71, 127
1, 83432, Note_off_c, 1, 71, 0
1, 84362, Note_off_c, 1, 77, 0
1, 85928, Note_on_c, 1, 68, 127
1, 86082, Note_off_c, 1, 68, 0
1, 86707, Note_on_c, 1, 65, 127
1, 86707, Note_on_c, 1, 69, 127
1, 86785, Note_on_c, 1, 71, 127
1, 86861, Note_off_c, 1, 65, 0
1, 86862, Note_on_c, 1, 64, 127
1, 86862, Note_on_c, 1, 74, 127
1, 87016, Note_off_c, 1, 64, 0
1, 87019, Note_on_c, 1, 62, 127
1, 87173, Note_off_c, 1, 62, 0
1, 87174, Note_on_c, 1, 60, 127
1, 87328, Note_off_c, 1, 60, 0
1, 87641, Note_on_c, 1, 59, 127
1, 87795, Note_off_c, 1, 59, 0
1, 87798, Note_on_c, 1, 57, 127
1, 87952, Note_off_c, 1, 69, 0
1, 87952, Note_off_c, 1, 57, 0
1, 87953, Note_on_c, 1, 68, 127
1, 88265, Note_on_c, 1, 56, 127
1, 88419, Note_off_c, 1, 56, 0
1, 88421, Note_on_c, 1, 54, 127
1, 88575, Note_off_c, 1, 54, 0
1, 88732, Note_on_c, 1, 50, 127
1, 88886, Note_off_c, 1, 50, 0
1, 88889, Note_on_c, 1, 52, 127
1, 89043, Note_off_c, 1, 52, 0
1, 89044, Note_on_c, 1, 53, 127
1, 89198, Note_off_c, 1, 53, 0
1, 89512, Note_on_c, 1, 48, 127
1, 89666, Note_off_c, 1, 48, 0
1, 89668, Note_on_c, 1, 47, 127
1, 89822, Note_off_c, 1, 47, 0
1, 89975, Note_off_c, 1, 71, 0
1, 89978, Note_off_c, 1, 74, 0
1, 89982, Note_off_c, 1, 68, 0
1, 90135, Note_on_c, 1, 76, 127
1, 90289, Note_off_c, 1, 76, 0
1, 90291, Note_on_c, 1, 77, 127
1, 90445, Note_off_c, 1, 77, 0
1, 90759, Note_on_c, 1, 72, 127
1, 90913, Note_off_c, 1, 72, 0
1, 91850, Note_on_c, 1, 67, 127
1, 92004, Note_off_c, 1, 67, 0
1, 92005, Note_on_c, 1, 49, 127
1, 92315, Note_off_c, 1, 49, 0
1, 92629, Note_on_c, 1, 61, 127
1, 92939, Note_off_c, 1, 61, 0
1, 93252, Note_on_c, 1, 55, 127
1, 93562, Note_off_c, 1, 55, 0
1, 93720, Note_on_c, 1, 79, 127
1, 93874, Note_off_c, 1, 79, 0
1, 93876, Note_on_c, 1, 81, 127
1, 94030, Note_off_c, 1, 81, 0
1, 94031, Note_on_c, 1, 82, 127
1, 94185, Note_off_c, 1, 82, 0
1, 95278, Note_on_c, 1, 73, 127
1, 95432, Note_off_c, 1, 73, 0
1, 95746, Note_on_c, 1, 77, 127
1, 95746, Note_on_c, 1, 57, 127
1, 95900, Note_off_c, 1, 77, 0
1, 95900, Note_off_c, 1, 57, 0
1, 95901, Note_on_c, 1, 79, 127
1, 95901, Note_on_c, 1, 58, 127
1, 96055, Note_off_c, 1, 79, 0
1, 96055, Note_off_c, 1, 58, 0
1, 96058, Note_on_c, 1, 77, 127
1, 96058, Note_on_c, 1, 57, 127
1, 96212, Note_off_c, 1, 77, 0
1, 96212, Note_off_c, 1, 57, 0
1, 96213, Note_on_c, 1, 76, 127
1, 96213, Note_on_c, 1, 55, 127
1, 96367, Note_off_c, 1, 76, 0
1, 96367, Note_off_c, 1, 55, 0
1, 96369, Note_on_c, 1, 74, 127
1, 96369, Note_on_c, 1, 53, 127
1, 96523, Note_off_c, 1, 74, 0
1, 96523, Note_off_c, 1, 53, 0
1, 96525, Note_on_c, 1, 73, 127
1, 96525, Note_on_c, 1, 52, 127
1, 96679, Note_off_c, 1, 73, 0
1, 96679, Note_off_c, 1, 52, 0
1, 96680, Note_on_c, 1, 74, 127
1, 96680, Note_on_c, 1, 53, 127
1, 96834, Note_off_c, 1, 74, 0
1, 96834, Note_off_c, 1, 53, 0
1, 96837, Note_on_c, 1, 72, 127
1, 96837, Note_on_c, 1, 52, 127
1, 96991, Note_off_c, 1, 72, 0
1, 96991, Note_off_c, 1, 52, 0
1, 96992, Note_on_c, 1, 70, 127
1, 96992, Note_on_c, 1, 50, 127
1, 97146, Note_off_c, 1, 70, 0
1, 97146, Note_off_c, 1, 50, 0
1, 97149, Note_on_c, 1, 69, 127
1, 97149, Note_on_c, 1, 49, 127
1, 97303, Note_off_c, 1, 69, 0
1, 97303, Note_off_c, 1, 49, 0
1, 97304, Note_on_c, 1, 70, 127
1, 97304, Note_on_c, 1, 50, 127
1, 97458, Note_off_c, 1, 70, 0
1, 97460, Note_on_c, 1, 72, 127
1, 97614, Note_off_c, 1, 72, 0
1, 97616, Note_on_c, 1, 74, 127
1, 97616, Note_on_c, 1, 53, 127
1, 97770, Note_off_c, 1, 74, 0
1, 97771, Note_on_c, 1, 75, 127
1, 97925, Note_off_c, 1, 75, 0
1, 97926, Note_off_c, 1, 53, 0
1, 97928, Note_on_c, 1, 58, 127
1, 98238, Note_off_c, 1, 58, 0
1, 98240, Note_on_c, 1, 60, 127
1, 98395, Note_on_c, 1, 69, 127
1, 98549, Note_off_c, 1, 69, 0
1, 98550, Note_off_c, 1, 60, 0
1, 98550, Note_on_c, 1, 62, 127
1, 98860, Note_off_c, 1, 62, 0
1, 98862, Note_on_c, 1, 68, 127
1, 99016, Note_off_c, 1, 68, 0
1, 99019, Note_on_c, 1, 66, 127
1, 99173, Note_off_c, 1, 66, 0
1, 99174, Note_on_c, 1, 59, 127
1, 99324, Note_off_c, 1, 50, 0
1, 99328, Note_off_c, 1, 59, 0
1, 99486, Note_on_c, 1, 52, 127
1, 99486, Note_on_c, 1, 64, 127
1, 99640, Note_off_c, 1, 52, 0
1, 100110, Note_on_c, 1, 48, 127
1, 100110, Note_on_c, 1, 71, 127
1, 100264, Note_off_c, 1, 48, 0
1, 100265, Note_on_c, 1, 47, 127
1, 100419, Note_off_c, 1, 47, 0
1, 100732, Note_on_c, 1, 45, 127
1, 100886, Note_off_c, 1, 45, 0
1, 100889, Note_on_c, 1, 44, 127
1, 101043, Note_off_c, 1, 44, 0
1, 101200, Note_on_c, 1, 41, 127
1, 101351, Note_off_c, 1, 71, 0
1, 101352, Note_off_c, 1, 64, 0
1, 101354, Note_off_c, 1, 41, 0
1, 101356, Note_on_c, 1, 40, 127
1, 101510, Note_off_c, 1, 40, 0
1, 101512, Note_on_c, 1, 39, 127
1, 101666, Note_off_c, 1, 39, 0
1, 103382, Note_on_c, 1, 65, 127
1, 103536, Note_off_c, 1, 65, 0
1, 103850, Note_on_c, 1, 61, 127
1, 103850, Note_on_c, 1, 56, 127
1, 104004, Note_off_c, 1, 61, 0
1, 104160, Note_off_c, 1, 56, 0
1, 104161, Note_on_c, 1, 57, 127
1, 104317, Note_on_c, 1, 46, 127
1, 104471, Note_off_c, 1, 46, 0
1, 104629, Note_on_c, 1, 43, 127
1, 104782, Note_off_c, 1, 57, 0
1, 104783, Note_off_c, 1, 43, 0
1, 104785, Note_on_c, 1, 41, 127
1, 104940, Note_on_c, 1, 76, 127
1, 105094, Note_off_c, 1, 76, 0
1, 105096, Note_on_c, 1, 77, 127
1, 105250, Note_off_c, 1, 77, 0
1, 105252, Note_on_c, 1, 79, 127
1, 105406, Note_off_c, 1, 79, 0
1, 105408, Note_on_c, 1, 53, 127
1, 105717, Note_off_c, 1, 41, 0
1, 105720, Note_on_c, 1, 74, 127
1, 105874, Note_off_c, 1, 74, 0
1, 105876, Note_on_c, 1, 72, 127
1, 106030, Note_off_c, 1, 72, 0
1, 106031, Note_on_c, 1, 57, 127
1, 106343, Note_on_c, 1, 70, 127
1, 106497, Note_off_c, 1, 70, 0
1, 106499, Note_on_c, 1, 69, 127
1, 106652, Note_off_c, 1, 57, 0
1, 106653, Note_off_c, 1, 69, 0
1, 106655, Note_on_c, 1, 62, 127
1, 106967, Note_on_c, 1, 67, 127
1, 107121, Note_off_c, 1, 67, 0
1, 107122, Note_on_c, 1, 65, 127
1, 107276, Note_off_c, 1, 62, 0
1, 107276, Note_off_c, 1, 65, 0
1, 107278, Note_on_c, 1, 58, 127
1, 107590, Note_on_c, 1, 64, 127
1, 107744, Note_off_c, 1, 64, 0
1, 107899, Note_off_c, 1, 58, 0
1, 107901, Note_on_c, 1, 55, 127
1, 108055, Note_off_c, 1, 55, 0
1, 108213, Note_on_c, 1, 60, 127
1, 108367, Note_off_c, 1, 60, 0
1, 108988, Note_off_c, 1, 53, 0
1, 109149, Note_on_c, 1, 65, 127
1, 109149, Note_on_c, 1, 60, 127
1, 109149, Note_on_c, 1, 69, 127
1, 109149, Note_on_c, 1, 57, 127
1, 109304, Note_on_c, 1, 55, 127
1, 109458, Note_off_c, 1, 55, 0
1, 109460, Note_on_c, 1, 53, 127
1, 109614, Note_off_c, 1, 53, 0
1, 109616, Note_on_c, 1, 52, 127
1, 109770, Note_off_c, 1, 65, 0
1, 109770, Note_off_c, 1, 60, 0
1, 109770, Note_off_c, 1, 69, 0
1, 109770, Note_off_c, 1, 57, 0
1, 109770, Note_off_c, 1, 52, 0
1, 109771, Note_on_c, 1, 62, 127
1, 109771, Note_on_c, 1, 65, 127
1, 109771, Note_on_c, 1, 68, 127
1, 109771, Note_on_c, 1, 53, 127
1, 109928, Note_on_c, 1, 50, 127
1, 110082, Note_off_c, 1, 50, 0
1, 110083, Note_on_c, 1, 48, 127
1, 110237, Note_off_c, 1, 48, 0
1, 110240, Note_on_c, 1, 47, 127
1, 110392, Note_off_c, 1, 62, 0
1, 110394, Note_off_c, 1, 47, 0
1, 110395, Note_on_c, 1, 60, 127
1, 110549, Note_off_c, 1, 65, 0
1, 110549, Note_off_c, 1, 68, 0
1, 110703, Note_off_c, 1, 60, 0
1, 110704, Note_off_c, 1, 53, 0
1, 110707, Note_on_c, 1, 67, 127
1, 110707, Note_on_c, 1, 52, 127
1, 110861, Note_off_c, 1, 67, 0
1, 110861, Note_off_c, 1, 52, 0
1, 111330, Note_on_c, 1, 64, 127
1, 111330, Note_on_c, 1, 55, 127
1, 111484, Note_off_c, 1, 64, 0
1, 111640, Note_off_c, 1, 55, 0
1, 112110, Note_on_c, 1, 46, 127
1, 112264, Note_off_c, 1, 46, 0
1, 112265, Note_on_c, 1, 45, 127
1, 112732, Note_on_c, 1, 63, 127
1, 112886, Note_off_c, 1, 45, 0
1, 112886, Note_off_c, 1, 63, 0
1, 112889, Note_on_c, 1, 54, 127
1, 112889, Note_on_c, 1, 50, 127
1, 112889, Note_on_c, 1, 62, 127
1, 113044, Note_on_c, 1, 64, 127
1, 113198, Note_off_c, 1, 64, 0
1, 113199, Note_off_c, 1, 54, 0
1, 113200, Note_on_c, 1, 66, 127
1, 113200, Note_on_c, 1, 58, 127
1, 113354, Note_off_c, 1, 66, 0
1, 113356, Note_on_c, 1, 67, 127
1, 113510, Note_off_c, 1, 58, 0
1, 113510, Note_off_c, 1, 67, 0
1, 113512, Note_on_c, 1, 57, 127
1, 113668, Note_on_c, 1, 69, 127
1, 113822, Note_off_c, 1, 69, 0
1, 113823, Note_on_c, 1, 70, 127
1, 113977, Note_off_c, 1, 70, 0
1, 113980, Note_on_c, 1, 72, 127
1, 114130, Note_off_c, 1, 50, 0
1, 114135, Note_on_c, 1, 43, 127
1, 114444, Note_off_c, 1, 57, 0
1, 114756, Note_off_c, 1, 43, 0
1, 114759, Note_off_c, 1, 72, 0
1, 114759, Note_on_c, 1, 46, 127
1, 115070, Note_on_c, 1, 55, 127
1, 115372, Note_off_c, 1, 62, 0
1, 115380, Note_off_c, 1, 46, 0
1, 115536, Note_off_c, 1, 55, 0
1, 116629, Note_on_c, 1, 57, 127
1, 116629, Note_on_c, 1, 72, 127
1, 116785, Note_on_c, 1, 74, 127
1, 116939, Note_off_c, 1, 74, 0
1, 116940, Note_on_c, 1, 75, 127
1, 117096, Note_on_c, 1, 70, 127
1, 117250, Note_off_c, 1, 57, 0
1, 117250, Note_off_c, 1, 70, 0
1, 117252, Note_on_c, 1, 53, 127
1, 117252, Note_on_c, 1, 69, 127
1, 117408, Note_on_c, 1, 67, 127
1, 117562, Note_off_c, 1, 67, 0
1, 117564, Note_on_c, 1, 65, 127
1, 117718, Note_off_c, 1, 65, 0
1, 117720, Note_on_c, 1, 63, 127
1, 117873, Note_off_c, 1, 53, 0
1, 117874, Note_off_c, 1, 63, 0
1, 117876, Note_on_c, 1, 62, 127
1, 118030, Note_off_c, 1, 62, 0
1, 118031, Note_on_c, 1, 60, 127
1, 118185, Note_off_c, 1, 60, 0
1, 118187, Note_on_c, 1, 58, 127
1, 118341, Note_off_c, 1, 58, 0
1, 118495, Note_off_c, 1, 72, 0
1, 118497, Note_off_c, 1, 69, 0
1, 118498, Note_off_c, 1, 75, 0
1, 118499, Note_on_c, 1, 58, 127
1, 118499, Note_on_c, 1, 74, 127
1, 118499, Note_on_c, 1, 70, 127
1, 118499, Note_on_c, 1, 65, 127
1, 118653, Note_off_c, 1, 58, 0
1, 118655, Note_on_c, 1, 50, 127
1, 118809, Note_off_c, 1, 74, 0
1, 118809, Note_off_c, 1, 70, 0
1, 118809, Note_off_c, 1, 50, 0
1, 118810, Note_on_c, 1, 51, 127
1, 118810, Note_on_c, 1, 69, 127
1, 118810, Note_on_c, 1, 72, 127
1, 118964, Note_off_c, 1, 51, 0
1, 118967, Note_on_c, 1, 53, 127
1, 119120, Note_off_c, 1, 69, 0
1, 119120, Note_off_c, 1, 72, 0
1, 119121, Note_off_c, 1, 53, 0
1, 119434, Note_on_c, 1, 48, 127
1, 119434, Note_on_c, 1, 68, 127
1, 119588, Note_off_c, 1, 48, 0
1, 119590, Note_on_c, 1, 46, 127
1, 119744, Note_off_c, 1, 46, 0
1, 119894, Note_off_c, 1, 65, 0
1, 119900, Note_off_c, 1, 68, 0
1, 120058, Note_on_c, 1, 67, 127
1, 120212, Note_off_c, 1, 67, 0
1, 120369, Note_on_c, 1, 72, 127
1, 120369, Note_on_c, 1, 67, 127
1, 120369, Note_on_c, 1, 51, 127
1, 120525, Note_on_c, 1, 65, 127
1, 120679, Note_off_c, 1, 65, 0
1, 120680, Note_on_c, 1, 63, 127
1, 120834, Note_off_c, 1, 63, 0
1, 120837, Note_on_c, 1, 62, 127
1, 120991, Note_off_c, 1, 62, 0
1, 121301, Note_off_c, 1, 72, 0
1, 121304, Note_on_c, 1, 74, 127
1, 121304, Note_on_c, 1, 60, 127
1, 121458, Note_off_c, 1, 74, 0
1, 121458, Note_off_c, 1, 60, 0
1, 121460, Note_on_c, 1, 75, 127
1, 121460, Note_on_c, 1, 58, 127
1, 121610, Note_off_c, 1, 67, 0
1, 121614, Note_off_c, 1, 75, 0
1, 121614, Note_off_c, 1, 58, 0
1, 121616, Note_on_c, 1, 69, 127
1, 121764, Note_off_c, 1, 51, 0
1, 121928, Note_on_c, 1, 53, 127
1, 122082, Note_off_c, 1, 53, 0
1, 122083, Note_on_c, 1, 55, 127
1, 122237, Note_off_c, 1, 55, 0
1, 122550, Note_on_c, 1, 50, 127
1, 122704, Note_off_c, 1, 50, 0
1, 122707, Note_on_c, 1, 48, 127
1, 122861, Note_off_c, 1, 69, 0
1, 122861, Note_off_c, 1, 48, 0
1, 122862, Note_on_c, 1, 70, 127
1, 123174, Note_on_c, 1, 46, 127
1, 123328, Note_off_c, 1, 46, 0
1, 123330, Note_on_c, 1, 45, 127
1, 123484, Note_off_c, 1, 45, 0
1, 123486, Note_on_c, 1, 43, 127
1, 123640, Note_off_c, 1, 70, 0
1, 124418, Note_off_c, 1, 43, 0
1, 125044, Note_on_c, 1, 64, 127
1, 125198, Note_off_c, 1, 64, 0
1, 126291, Note_on_c, 1, 57, 127
1, 126445, Note_off_c, 1, 57, 0
1, 126759, Note_on_c, 1, 52, 127
1, 126913, Note_off_c, 1, 52, 0
1, 128940, Note_on_c, 1, 41, 127
1, 129094, Note_off_c, 1, 41, 0
1, 129408, Note_on_c, 1, 40, 127
1, 129562, Note_off_c, 1, 40, 0
1, 129564, Note_on_c, 1, 38, 127
1, 129718, Note_off_c, 1, 38, 0
1, 130031, Note_on_c, 1, 36, 127
1, 130341, Note_off_c, 1, 36, 0
1, 137855, Note_on_c, 1, 65, 127
1, 137990, Note_off_c, 1, 65, 0
1, 137995, Note_on_c, 1, 64, 127
1, 138130, Note_off_c, 1, 64, 0
1, 138136, Note_on_c, 1, 65, 127
1, 138271, Note_off_c, 1, 65, 0
1, 138276, Note_on_c, 1, 72, 127
1, 138619, Note_off_c, 1, 72, 0
1, 138697, Note_on_c, 1, 69, 127
1, 138832, Note_off_c, 1, 69, 0
1, 138837, Note_on_c, 1, 67, 127
1, 138972, Note_off_c, 1, 67, 0
1, 138977, Note_on_c, 1, 69, 127
1, 139112, Note_off_c, 1, 69, 0
1, 139117, Note_on_c, 1, 74, 127
1, 139460, Note_off_c, 1, 74, 0
1, 139539, Note_on_c, 1, 72, 127
1, 139674, Note_off_c, 1, 72, 0
1, 139679, Note_on_c, 1, 74, 127
1, 139814, Note_off_c, 1, 74, 0
1, 139818, Note_on_c, 1, 76, 127
1, 139953, Note_off_c, 1, 76, 0
1, 139959, Note_on_c, 1, 77, 127
1, 140094, Note_off_c, 1, 77, 0
1, 140099, Note_on_c, 1, 76, 127
1, 140234, Note_off_c, 1, 76, 0
1, 140239, Note_on_c, 1, 74, 127
1, 140374, Note_off_c, 1, 74, 0
1, 140380, Note_on_c, 1, 72, 127
1, 140515, Note_off_c, 1, 72, 0
1, 140520, Note_on_c, 1, 74, 127
1, 140655, Note_off_c, 1, 74, 0
1, 140661, Note_on_c, 1, 70, 127
1, 140796, Note_off_c, 1, 70, 0
1, 140800, Note_on_c, 1, 69, 127
1, 140935, Note_off_c, 1, 69, 0
1, 140940, Note_on_c, 1, 67, 127
1, 141075, Note_off_c, 1, 67, 0
1, 141081, Note_on_c, 1, 65, 127
1, 141216, Note_off_c, 1, 65, 0
1, 141221, Note_on_c, 1, 60, 127
1, 141221, Note_on_c, 1, 64, 127
1, 141356, Note_off_c, 1, 60, 0
1, 141362, Note_on_c, 1, 58, 127
1, 141491, Note_off_c, 1, 64, 0
1, 141497, Note_off_c, 1, 58, 0
1, 141502, Note_on_c, 1, 70, 127
1, 141502, Note_on_c, 1, 60, 127
1, 141637, Note_off_c, 1, 70, 0
1, 141637, Note_off_c, 1, 60, 0
1, 141642, Note_on_c, 1, 69, 127
1, 141642, Note_on_c, 1, 65, 127
1, 141912, Note_off_c, 1, 69, 0
1, 141922, Note_on_c, 1, 74, 127
1, 141985, Note_off_c, 1, 65, 0
1, 142055, Note_off_c, 1, 74, 0
1, 142061, Note_on_c, 1, 64, 127
1, 142061, Note_on_c, 1, 67, 127
1, 142196, Note_off_c, 1, 64, 0
1, 142202, Note_on_c, 1, 62, 127
1, 142331, Note_off_c, 1, 67, 0
1, 142337, Note_off_c, 1, 62, 0
1, 142342, Note_on_c, 1, 74, 127
1, 142342, Note_on_c, 1, 64, 127
1, 142477, Note_off_c, 1, 74, 0
1, 142477, Note_off_c, 1, 64, 0
1, 142483, Note_on_c, 1, 72, 127
1, 142483, Note_on_c, 1, 69, 127
1, 142753, Note_off_c, 1, 72, 0
1, 142763, Note_on_c, 1, 77, 127
1, 142826, Note_off_c, 1, 69, 0
1, 142896, Note_off_c, 1, 77, 0
1, 142903, Note_on_c, 1, 67, 127
1, 142903, Note_on_c, 1, 71, 127
1, 143038, Note_off_c, 1, 67, 0
1, 143042, Note_on_c, 1, 69, 127
1, 143173, Note_off_c, 1, 71, 0
1, 143177, Note_off_c, 1, 69, 0
1, 143182, Note_on_c, 1, 77, 127
1, 143182, Note_on_c, 1, 71, 127
1, 143317, Note_off_c, 1, 77, 0
1, 143317, Note_off_c, 1, 71, 0
1, 143323, Note_on_c, 1, 76, 127
1, 143323, Note_on_c, 1, 72, 127
1, 143458, Note_off_c, 1, 76, 0
1, 143458, Note_off_c, 1, 72, 0
1, 143463, Note_on_c, 1, 74, 127
1, 143463, Note_on_c, 1, 71, 127
1, 143598, Note_off_c, 1, 74, 0
1, 143598, Note_off_c, 1, 71, 0
1, 143604, Note_on_c, 1, 72, 127
1, 143604, Note_on_c, 1, 69, 127
1, 143739, Note_off_c, 1, 72, 0
1, 143739, Note_off_c, 1, 69, 0
1, 143744, Note_on_c, 1, 67, 127
1, 143744, Note_on_c, 1, 79, 127
1, 143879, Note_off_c, 1, 67, 0
1, 143884, Note_on_c, 1, 69, 127
1, 144014, Note_off_c, 1, 79, 0
1, 144019, Note_off_c, 1, 69, 0
1, 144024, Note_on_c, 1, 71, 127
1, 144024, Note_on_c, 1, 65, 127
1, 144159, Note_off_c, 1, 71, 0
1, 144159, Note_off_c, 1, 65, 0
1, 144164, Note_on_c, 1, 64, 127
1, 144164, Note_on_c, 1, 72, 127
1, 144299, Note_off_c, 1, 64, 0
1, 144305, Note_on_c, 1, 62, 127
1, 144440, Note_off_c, 1, 62, 0
1, 144445, Note_on_c, 1, 60, 127
1, 144580, Note_off_c, 1, 60, 0
1, 144714, Note_off_c, 1, 72, 0
1, 144726, Note_on_c, 1, 70, 127
1, 144726, Note_on_c, 1, 64, 127
1, 144861, Note_off_c, 1, 70, 0
1, 144861, Note_off_c, 1, 64, 0
1, 144866, Note_on_c, 1, 69, 127
1, 144866, Note_on_c, 1, 66, 127
1, 145001, Note_off_c, 1, 69, 0
1, 145001, Note_off_c, 1, 66, 0
1, 145005, Note_on_c, 1, 70, 127
1, 145005, Note_on_c, 1, 67, 127
1, 145140, Note_off_c, 1, 70, 0
1, 145146, Note_on_c, 1, 72, 127
1, 145281, Note_off_c, 1, 72, 0
1, 145286, Note_on_c, 1, 74, 127
1, 145421, Note_off_c, 1, 74, 0
1, 145427, Note_on_c, 1, 75, 127
1, 145555, Note_off_c, 1, 67, 0
1, 145567, Note_on_c, 1, 65, 127
1, 145702, Note_off_c, 1, 65, 0
1, 145707, Note_on_c, 1, 63, 127
1, 145842, Note_off_c, 1, 63, 0
1, 145977, Note_off_c, 1, 75, 0
1, 145987, Note_on_c, 1, 74, 127
1, 145987, Note_on_c, 1, 67, 127
1, 146122, Note_off_c, 1, 74, 0
1, 146122, Note_off_c, 1, 67, 0
1, 146128, Note_on_c, 1, 72, 127
1, 146128, Note_on_c, 1, 69, 127
1, 146263, Note_off_c, 1, 72, 0
1, 146263, Note_off_c, 1, 69, 0
1, 146268, Note_on_c, 1, 74, 127
1, 146268, Note_on_c, 1, 70, 127
1, 146403, Note_off_c, 1, 74, 0
1, 146408, Note_on_c, 1, 76, 127
1, 146543, Note_off_c, 1, 76, 0
1, 146549, Note_on_c, 1, 77, 127
1, 146684, Note_off_c, 1, 77, 0
1, 146689, Note_on_c, 1, 79, 127
1, 146818, Note_off_c, 1, 70, 0
1, 146830, Note_on_c, 1, 69, 127
1, 146965, Note_off_c, 1, 69, 0
1, 146970, Note_on_c, 1, 67, 127
1, 147105, Note_off_c, 1, 67, 0
1, 147239, Note_off_c, 1, 79, 0
1, 147251, Note_on_c, 1, 77, 127
1, 147251, Note_on_c, 1, 71, 127
1, 147386, Note_off_c, 1, 77, 0
1, 147386, Note_off_c, 1, 71, 0
1, 147391, Note_on_c, 1, 76, 127
1, 147391, Note_on_c, 1, 73, 127
1, 147526, Note_off_c, 1, 76, 0
1, 147526, Note_off_c, 1, 73, 0
1, 147532, Note_on_c, 1, 77, 127
1, 147532, Note_on_c, 1, 74, 127
1, 147667, Note_off_c, 1, 77, 0
1, 147672, Note_on_c, 1, 79, 127
1, 147807, Note_off_c, 1, 79, 0
1, 147812, Note_on_c, 1, 81, 127
1, 147947, Note_off_c, 1, 81, 0
1, 147952, Note_on_c, 1, 82, 127
1, 148082, Note_off_c, 1, 74, 0
1, 148092, Note_on_c, 1, 72, 127
1, 148227, Note_off_c, 1, 72, 0
1, 148233, Note_on_c, 1, 70, 127
1, 148368, Note_off_c, 1, 70, 0
1, 148502, Note_off_c, 1, 82, 0
1, 148513, Note_on_c, 1, 81, 127
1, 148513, Note_on_c, 1, 74, 127
1, 148648, Note_off_c, 1, 81, 0
1, 148648, Note_off_c, 1, 74, 0
1, 148654, Note_on_c, 1, 79, 127
1, 148654, Note_on_c, 1, 76, 127
1, 148789, Note_off_c, 1, 79, 0
1, 148789, Note_off_c, 1, 76, 0
1, 148794, Note_on_c, 1, 81, 127
1, 148794, Note_on_c, 1, 53, 127
1, 148794, Note_on_c, 1, 77, 127
1, 148929, Note_off_c, 1, 81, 0
1, 148929, Note_off_c, 1, 53, 0
1, 148933, Note_on_c, 1, 82, 127
1, 148933, Note_on_c, 1, 52, 127
1, 149068, Note_off_c, 1, 82, 0
1, 149068, Note_off_c, 1, 52, 0
1, 149214, Note_on_c, 1, 60, 127
1, 149214, Note_on_c, 1, 79, 127
1, 149344, Note_off_c, 1, 77, 0
1, 149355, Note_on_c, 1, 76, 127
1, 149490, Note_off_c, 1, 76, 0
1, 149495, Note_on_c, 1, 74, 127
1, 149580, Note_off_c, 1, 60, 0
1, 149631, Note_off_c, 1, 74, 0
1, 149637, Note_on_c, 1, 57, 127
1, 149637, Note_on_c, 1, 72, 127
1, 149765, Note_off_c, 1, 79, 0
1, 149772, Note_off_c, 1, 57, 0
1, 149776, Note_on_c, 1, 84, 127
1, 149776, Note_on_c, 1, 55, 127
1, 149911, Note_off_c, 1, 84, 0
1, 149911, Note_off_c, 1, 55, 0
1, 150057, Note_on_c, 1, 62, 127
1, 150187, Note_off_c, 1, 72, 0
1, 150197, Note_on_c, 1, 69, 127
1, 150332, Note_off_c, 1, 69, 0
1, 150337, Note_on_c, 1, 70, 127
1, 150423, Note_off_c, 1, 62, 0
1, 150758, Note_on_c, 1, 64, 127
1, 150887, Note_off_c, 1, 70, 0
1, 150893, Note_off_c, 1, 64, 0
1, 150898, Note_on_c, 1, 65, 127
1, 150898, Note_on_c, 1, 72, 127
1, 150898, Note_on_c, 1, 69, 127
1, 151033, Note_off_c, 1, 65, 0
1, 151038, Note_on_c, 1, 64, 127
1, 151168, Note_off_c, 1, 72, 0
1, 151168, Note_off_c, 1, 69, 0
1, 151173, Note_off_c, 1, 64, 0
1, 151179, Note_on_c, 1, 77, 127
1, 151179, Note_on_c, 1, 70, 127
1, 151179, Note_on_c, 1, 62, 127
1, 151314, Note_off_c, 1, 77, 0
1, 151314, Note_off_c, 1, 70, 0
1, 151314, Note_off_c, 1, 62, 0
1, 151319, Note_on_c, 1, 60, 127
1, 151319, Note_on_c, 1, 77, 127
1, 151319, Note_on_c, 1, 69, 127
1, 151454, Note_off_c, 1, 60, 0
1, 151460, Note_on_c, 1, 62, 127
1, 151589, Note_off_c, 1, 77, 0
1, 151589, Note_off_c, 1, 69, 0
1, 151595, Note_off_c, 1, 62, 0
1, 151600, Note_on_c, 1, 76, 127
1, 151600, Note_on_c, 1, 67, 127
1, 151600, Note_on_c, 1, 58, 127
1, 151735, Note_off_c, 1, 76, 0
1, 151735, Note_off_c, 1, 67, 0
1, 151735, Note_off_c, 1, 58, 0
1, 151739, Note_on_c, 1, 72, 127
1, 151739, Note_on_c, 1, 57, 127
1, 151739, Note_on_c, 1, 77, 127
1, 151874, Note_off_c, 1, 72, 0
1, 151874, Note_off_c, 1, 57, 0
1, 151880, Note_on_c, 1, 70, 127
1, 151880, Note_on_c, 1, 55, 127
1, 152015, Note_off_c, 1, 70, 0
1, 152015, Note_off_c, 1, 55, 0
1, 152020, Note_on_c, 1, 69, 127
1, 152020, Note_on_c, 1, 53, 127
1, 152148, Note_off_c, 1, 77, 0
1, 152156, Note_off_c, 1, 69, 0
1, 152156, Note_off_c, 1, 53, 0
1, 152162, Note_on_c, 1, 67, 127
1, 152162, Note_on_c, 1, 58, 127
1, 152297, Note_off_c, 1, 67, 0
1, 152302, Note_on_c, 1, 69, 127
1, 152437, Note_off_c, 1, 69, 0
1, 152442, Note_on_c, 1, 65, 127
1, 152577, Note_off_c, 1, 65, 0
1, 152582, Note_on_c, 1, 79, 127
1, 152582, Note_on_c, 1, 64, 127
1, 152717, Note_off_c, 1, 79, 0
1, 152717, Note_off_c, 1, 64, 0
1, 152722, Note_on_c, 1, 77, 127
1, 152722, Note_on_c, 1, 62, 127
1, 152857, Note_off_c, 1, 77, 0
1, 152857, Note_off_c, 1, 62, 0
1, 152862, Note_on_c, 1, 76, 127
1, 152862, Note_on_c, 1, 60, 127
1, 152993, Note_off_c, 1, 58, 0
1, 152997, Note_off_c, 1, 76, 0
1, 152997, Note_off_c, 1, 60, 0
1, 153003, Note_on_c, 1, 74, 127
1, 153003, Note_on_c, 1, 66, 127
1, 153003, Note_on_c, 1, 57, 127
1, 153138, Note_off_c, 1, 74, 0
1, 153143, Note_on_c, 1, 75, 127
1, 153278, Note_off_c, 1, 75, 0
1, 153284, Note_on_c, 1, 72, 127
1, 153413, Note_off_c, 1, 66, 0
1, 153413, Note_off_c, 1, 57, 0
1, 153419, Note_off_c, 1, 72, 0
1, 153424, Note_on_c, 1, 70, 127
1, 153424, Note_on_c, 1, 55, 127
1, 153424, Note_on_c, 1, 67, 127
1, 153559, Note_off_c, 1, 70, 0
1, 153559, Note_off_c, 1, 55, 0
1, 153563, Note_on_c, 1, 69, 127
1, 153563, Note_on_c, 1, 53, 127
1, 153694, Note_off_c, 1, 67, 0
1, 153699, Note_off_c, 1, 69, 0
1, 153699, Note_off_c, 1, 53, 0
1, 153705, Note_on_c, 1, 67, 127
1, 153705, Note_on_c, 1, 52, 127
1, 153840, Note_off_c, 1, 67, 0
1, 153840, Note_off_c, 1, 52, 0
1, 153845, Note_on_c, 1, 50, 127
1, 153845, Note_on_c, 1, 69, 127
1, 153845, Note_on_c, 1, 65, 127
1, 153980, Note_off_c, 1, 50, 0
1, 153986, Note_on_c, 1, 52, 127
1, 154115, Note_off_c, 1, 69, 0
1, 154121, Note_off_c, 1, 52, 0
1, 154126, Note_on_c, 1, 74, 127
1, 154126, Note_on_c, 1, 48, 127
1, 154261, Note_off_c, 1, 74, 0
1, 154261, Note_off_c, 1, 48, 0
1, 154266, Note_on_c, 1, 47, 127
1, 154266, Note_on_c, 1, 67, 127
1, 154401, Note_off_c, 1, 47, 0
1, 154406, Note_on_c, 1, 45, 127
1, 154536, Note_off_c, 1, 67, 0
1, 154541, Note_off_c, 1, 45, 0
1, 154546, Note_on_c, 1, 43, 127
1, 154676, Note_off_c, 1, 65, 0
1, 154681, Note_off_c, 1, 43, 0
1, 154687, Note_on_c, 1, 48, 127
1, 154687, Note_on_c, 1, 67, 127
1, 154687, Note_on_c, 1, 64, 127
1, 154822, Note_off_c, 1, 48, 0
1, 154827, Note_on_c, 1, 47, 127
1, 154957, Note_off_c, 1, 67, 0
1, 154962, Note_off_c, 1, 47, 0
1, 154967, Note_on_c, 1, 76, 127
1, 155097, Note_off_c, 1, 64, 0
1, 155108, Note_on_c, 1, 53, 127
1, 155108, Note_on_c, 1, 69, 127
1, 155237, Note_off_c, 1, 76, 0
1, 155248, Note_on_c, 1, 73, 127
1, 155383, Note_off_c, 1, 73, 0
1, 155388, Note_on_c, 1, 74, 127
1, 155474, Note_off_c, 1, 53, 0
1, 155518, Note_off_c, 1, 69, 0
1, 155528, Note_on_c, 1, 52, 127
1, 155658, Note_off_c, 1, 74, 0
1, 155663, Note_off_c, 1, 52, 0
1, 155668, Note_on_c, 1, 71, 127
1, 155668, Note_on_c, 1, 50, 127
1, 155803, Note_off_c, 1, 71, 0
1, 155803, Note_off_c, 1, 50, 0
1, 155809, Note_on_c, 1, 72, 127
1, 155949, Note_on_c, 1, 57, 127
1, 155949, Note_on_c, 1, 65, 127
1, 156079, Note_off_c, 1, 72, 0
1, 156230, Note_on_c, 1, 77, 127
1, 156315, Note_off_c, 1, 57, 0
1, 156366, Note_off_c, 1, 77, 0
1, 156370, Note_on_c, 1, 55, 127
1, 156505, Note_off_c, 1, 55, 0
1, 156651, Note_on_c, 1, 59, 127
1, 156786, Note_off_c, 1, 59, 0
1, 156792, Note_on_c, 1, 60, 127
1, 156921, Note_off_c, 1, 65, 0
1, 156927, Note_off_c, 1, 60, 0
1, 157072, Note_on_c, 1, 72, 127
1, 157072, Note_on_c, 1, 65, 127
1, 157072, Note_on_c, 1, 57, 127
1, 157207, Note_off_c, 1, 72, 0
1, 157207, Note_off_c, 1, 65, 0
1, 157207, Note_off_c, 1, 57, 0
1, 157213, Note_on_c, 1, 55, 127
1, 157213, Note_on_c, 1, 72, 127
1, 157213, Note_on_c, 1, 64, 127
1, 157348, Note_off_c, 1, 55, 0
1, 157352, Note_on_c, 1, 57, 127
1, 157483, Note_off_c, 1, 72, 0
1, 157483, Note_off_c, 1, 64, 0
1, 157487, Note_off_c, 1, 57, 0
1, 157492, Note_on_c, 1, 71, 127
1, 157492, Note_on_c, 1, 62, 127
1, 157492, Note_on_c, 1, 53, 127
1, 157627, Note_off_c, 1, 71, 0
1, 157627, Note_off_c, 1, 62, 0
1, 157627, Note_off_c, 1, 53, 0
1, 157633, Note_on_c, 1, 52, 127
1, 157633, Note_on_c, 1, 72, 127
1, 157633, Note_on_c, 1, 60, 127
1, 157768, Note_off_c, 1, 52, 0
1, 157773, Note_on_c, 1, 53, 127
1, 157903, Note_off_c, 1, 72, 0
1, 157908, Note_off_c, 1, 53, 0
1, 157914, Note_on_c, 1, 67, 127
1, 157914, Note_on_c, 1, 50, 127
1, 158049, Note_off_c, 1, 67, 0
1, 158049, Note_off_c, 1, 50, 0
1, 158054, Note_on_c, 1, 48, 127
1, 158054, Note_on_c, 1, 70, 127
1, 158189, Note_off_c, 1, 48, 0
1, 158324, Note_off_c, 1, 60, 0
1, 158464, Note_off_c, 1, 70, 0
1, 158474, Note_on_c, 1, 69, 127
1, 158615, Note_on_c, 1, 55, 127
1, 158750, Note_off_c, 1, 55, 0
1, 158895, Note_on_c, 1, 65, 127
1, 159165, Note_off_c, 1, 69, 0
1, 159176, Note_on_c, 1, 74, 127
1, 159311, Note_off_c, 1, 74, 0
1, 159456, Note_on_c, 1, 57, 127
1, 159586, Note_off_c, 1, 65, 0
1, 159591, Note_off_c, 1, 57, 0
1, 159596, Note_on_c, 1, 59, 127
1, 159731, Note_off_c, 1, 59, 0
1, 159877, Note_on_c, 1, 62, 127
1, 160012, Note_off_c, 1, 62, 0
1, 160017, Note_on_c, 1, 67, 127
1, 160017, Note_on_c, 1, 64, 127
1, 160017, Note_on_c, 1, 55, 127
1, 160152, Note_off_c, 1, 67, 0
1, 160152, Note_off_c, 1, 64, 0
1, 160152, Note_off_c, 1, 55, 0
1, 160158, Note_on_c, 1, 65, 127
1, 160158, Note_on_c, 1, 57, 127
1, 160158, Note_on_c, 1, 72, 127
1, 160293, Note_off_c, 1, 65, 0
1, 160293, Note_off_c, 1, 57, 0
1, 160297, Note_on_c, 1, 67, 127
1, 160297, Note_on_c, 1, 55, 127
1, 160432, Note_off_c, 1, 67, 0
1, 160432, Note_off_c, 1, 55, 0
1, 160438, Note_on_c, 1, 69, 127
1, 160438, Note_on_c, 1, 53, 127
1, 160573, Note_off_c, 1, 69, 0
1, 160573, Note_off_c, 1, 53, 0
1, 160578, Note_on_c, 1, 62, 127
1, 160708, Note_off_c, 1, 72, 0
1, 160859, Note_on_c, 1, 71, 127
1, 160859, Note_on_c, 1, 43, 127
1, 160988, Note_off_c, 1, 62, 0
1, 160994, Note_off_c, 1, 71, 0
1, 160994, Note_off_c, 1, 43, 0
1, 160999, Note_on_c, 1, 64, 127
1, 160999, Note_on_c, 1, 60, 127
1, 160999, Note_on_c, 1, 72, 127
1, 161134, Note_off_c, 1, 64, 0
1, 161134, Note_off_c, 1, 60, 0
1, 161140, Note_on_c, 1, 67, 127
1, 161140, Note_on_c, 1, 59, 127
1, 161275, Note_off_c, 1, 67, 0
1, 161275, Note_off_c, 1, 59, 0
1, 161280, Note_on_c, 1, 65, 127
1, 161280, Note_on_c, 1, 57, 127
1, 161408, Note_off_c, 1, 72, 0
1, 161416, Note_off_c, 1, 65, 0
1, 161416, Note_off_c, 1, 57, 0
1, 161420, Note_on_c, 1, 64, 127
1, 161420, Note_on_c, 1, 55, 127
1, 161555, Note_off_c, 1, 64, 0
1, 161555, Note_off_c, 1, 55, 0
1, 161561, Note_on_c, 1, 65, 127
1, 161561, Note_on_c, 1, 57, 127
1, 161696, Note_off_c, 1, 65, 0
1, 161696, Note_off_c, 1, 57, 0
1, 161701, Note_on_c, 1, 62, 127
1, 161701, Note_on_c, 1, 53, 127
1, 161836, Note_off_c, 1, 62, 0
1, 161836, Note_off_c, 1, 53, 0
1, 161842, Note_on_c, 1, 79, 127
1, 161842, Note_on_c, 1, 52, 127
1, 161842, Note_on_c, 1, 60, 127
1, 161977, Note_off_c, 1, 79, 0
1, 161977, Note_off_c, 1, 52, 0
1, 161982, Note_on_c, 1, 77, 127
1, 161982, Note_on_c, 1, 50, 127
1, 162117, Note_off_c, 1, 77, 0
1, 162117, Note_off_c, 1, 50, 0
1, 162122, Note_on_c, 1, 76, 127
1, 162122, Note_on_c, 1, 48, 127
1, 162251, Note_off_c, 1, 60, 0
1, 162258, Note_off_c, 1, 76, 0
1, 162258, Note_off_c, 1, 48, 0
1, 162263, Note_on_c, 1, 74, 127
1, 162263, Note_on_c, 1, 53, 127
1, 162398, Note_off_c, 1, 74, 0
1, 162403, Note_on_c, 1, 76, 127
1, 162538, Note_off_c, 1, 76, 0
1, 162544, Note_on_c, 1, 72, 127
1, 162679, Note_off_c, 1, 72, 0
1, 162684, Note_on_c, 1, 71, 127
1, 162684, Note_on_c, 1, 62, 127
1, 162819, Note_off_c, 1, 71, 0
1, 162819, Note_off_c, 1, 62, 0
1, 162824, Note_on_c, 1, 69, 127
1, 162824, Note_on_c, 1, 60, 127
1, 162959, Note_off_c, 1, 69, 0
1, 162959, Note_off_c, 1, 60, 0
1, 162965, Note_on_c, 1, 67, 127
1, 162965, Note_on_c, 1, 59, 127
1, 163094, Note_off_c, 1, 53, 0
1, 163100, Note_off_c, 1, 67, 0
1, 163100, Note_off_c, 1, 59, 0
1, 163105, Note_on_c, 1, 57, 127
1, 163105, Note_on_c, 1, 73, 127
1, 163105, Note_on_c, 1, 52, 127
1, 163240, Note_off_c, 1, 57, 0
1, 163246, Note_on_c, 1, 58, 127
1, 163381, Note_off_c, 1, 58, 0
1, 163386, Note_on_c, 1, 55, 127
1, 163448, Note_off_c, 1, 73, 0
1, 163515, Note_off_c, 1, 52, 0
1, 163521, Note_off_c, 1, 55, 0
1, 163526, Note_on_c, 1, 81, 127
1, 163526, Note_on_c, 1, 53, 127
1, 163526, Note_on_c, 1, 50, 127
1, 163661, Note_off_c, 1, 81, 0
1, 163661, Note_off_c, 1, 53, 0
1, 163667, Note_on_c, 1, 79, 127
1, 163667, Note_on_c, 1, 52, 127
1, 163796, Note_off_c, 1, 50, 0
1, 163803, Note_off_c, 1, 79, 0
1, 163803, Note_off_c, 1, 52, 0
1, 163807, Note_on_c, 1, 77, 127
1, 163807, Note_on_c, 1, 50, 127
1, 163942, Note_off_c, 1, 77, 0
1, 163942, Note_off_c, 1, 50, 0
1, 163948, Note_on_c, 1, 76, 127
1, 163948, Note_on_c, 1, 46, 127
1, 163948, Note_on_c, 1, 55, 127
1, 164083, Note_off_c, 1, 76, 0
1, 164088, Note_on_c, 1, 77, 127
1, 164223, Note_off_c, 1, 77, 0
1, 164228, Note_on_c, 1, 74, 127
1, 164358, Note_off_c, 1, 46, 0
1, 164363, Note_off_c, 1, 74, 0
1, 164369, Note_on_c, 1, 73, 127
1, 164369, Note_on_c, 1, 45, 127
1, 164504, Note_off_c, 1, 73, 0
1, 164509, Note_on_c, 1, 71, 127
1, 164644, Note_off_c, 1, 71, 0
1, 164650, Note_on_c, 1, 69, 127
1, 164779, Note_off_c, 1, 55, 0
1, 164785, Note_off_c, 1, 69, 0
1, 164789, Note_on_c, 1, 53, 127
1, 164924, Note_off_c, 1, 53, 0
1, 164929, Note_on_c, 1, 52, 127
1, 165064, Note_off_c, 1, 52, 0
1, 165070, Note_on_c, 1, 50, 127
1, 165205, Note_off_c, 1, 50, 0
1, 165351, Note_on_c, 1, 72, 127
1, 165351, Note_on_c, 1, 54, 127
1, 165486, Note_off_c, 1, 72, 0
1, 165486, Note_off_c, 1, 54, 0
1, 165491, Note_on_c, 1, 56, 127
1, 165626, Note_off_c, 1, 56, 0
1, 165631, Note_on_c, 1, 57, 127
1, 165762, Note_off_c, 1, 45, 0
1, 165911, Note_on_c, 1, 48, 127
1, 166040, Note_off_c, 1, 57, 0
1, 166047, Note_off_c, 1, 48, 0
1, 166193, Note_on_c, 1, 70, 127
1, 166193, Note_on_c, 1, 52, 127
1, 166328, Note_off_c, 1, 70, 0
1, 166328, Note_off_c, 1, 52, 0
1, 166333, Note_on_c, 1, 69, 127
1, 166333, Note_on_c, 1, 54, 127
1, 166468, Note_off_c, 1, 69, 0
1, 166468, Note_off_c, 1, 54, 0
1, 166474, Note_on_c, 1, 55, 127
1, 166474, Note_on_c, 1, 70, 127
1, 166614, Note_on_c, 1, 57, 127
1, 166744, Note_off_c, 1, 55, 0
1, 166749, Note_off_c, 1, 57, 0
1, 166753, Note_on_c, 1, 58, 127
1, 166753, Note_on_c, 1, 53, 127
1, 166888, Note_off_c, 1, 58, 0
1, 166888, Note_off_c, 1, 53, 0
1, 166894, Note_on_c, 1, 52, 127
1, 166894, Note_on_c, 1, 60, 127
1, 167024, Note_off_c, 1, 70, 0
1, 167034, Note_on_c, 1, 72, 127
1, 167169, Note_off_c, 1, 72, 0
1, 167304, Note_off_c, 1, 52, 0
1, 167315, Note_on_c, 1, 69, 127
1, 167315, Note_on_c, 1, 51, 127
1, 167450, Note_off_c, 1, 69, 0
1, 167596, Note_on_c, 1, 67, 127
1, 167725, Note_off_c, 1, 51, 0
1, 167731, Note_off_c, 1, 67, 0
1, 167735, Note_on_c, 1, 66, 127
1, 167735, Note_on_c, 1, 50, 127
1, 167870, Note_off_c, 1, 66, 0
1, 167876, Note_on_c, 1, 64, 127
1, 168011, Note_off_c, 1, 64, 0
1, 168016, Note_on_c, 1, 62, 127
1, 168146, Note_off_c, 1, 60, 0
1, 168151, Note_off_c, 1, 62, 0
1, 168717, Note_on_c, 1, 65, 127
1, 168717, Note_on_c, 1, 59, 127
1, 168852, Note_off_c, 1, 65, 0
1, 168852, Note_off_c, 1, 59, 0
1, 168857, Note_on_c, 1, 61, 127
1, 168992, Note_off_c, 1, 61, 0
1, 169128, Note_off_c, 1, 50, 0
1, 171099, Note_on_c, 1, 74, 127
1, 171649, Note_off_c, 1, 74, 0
1, 172642, Note_on_c, 1, 76, 127
1, 172777, Note_off_c, 1, 76, 0
1, 172782, Note_on_c, 1, 77, 127
1, 173333, Note_off_c, 1, 77, 0
1, 173905, Note_on_c, 1, 71, 127
1, 174040, Note_off_c, 1, 71, 0
1, 174326, Note_on_c, 1, 79, 127
1, 174462, Note_off_c, 1, 79, 0
1, 174467, Note_on_c, 1, 81, 127
1, 174467, Note_on_c, 1, 65, 127
1, 174602, Note_off_c, 1, 81, 0
1, 174602, Note_off_c, 1, 65, 0
1, 174607, Note_on_c, 1, 79, 127
1, 174607, Note_on_c, 1, 64, 127
1, 174742, Note_off_c, 1, 79, 0
1, 174742, Note_off_c, 1, 64, 0
1, 174748, Note_on_c, 1, 77, 127
1, 174748, Note_on_c, 1, 62, 127
1, 174883, Note_off_c, 1, 77, 0
1, 174883, Note_off_c, 1, 62, 0
1, 174888, Note_on_c, 1, 76, 127
1, 174888, Note_on_c, 1, 60, 127
1, 175023, Note_off_c, 1, 76, 0
1, 175023, Note_off_c, 1, 60, 0
1, 175028, Note_on_c, 1, 77, 127
1, 175028, Note_on_c, 1, 62, 127
1, 175092, Note_off_c, 1, 77, 0
1, 175098, Note_on_c, 1, 76, 127
1, 175162, Note_off_c, 1, 76, 0
1, 175163, Note_off_c, 1, 62, 0
1, 175169, Note_on_c, 1, 74, 127
1, 175169, Note_on_c, 1, 58, 127
1, 175233, Note_off_c, 1, 74, 0
1, 175238, Note_on_c, 1, 72, 127
1, 175302, Note_off_c, 1, 72, 0
1, 175304, Note_off_c, 1, 58, 0
1, 175309, Note_on_c, 1, 57, 127
1, 175309, Note_on_c, 1, 77, 127
1, 175444, Note_off_c, 1, 57, 0
1, 175450, Note_on_c, 1, 55, 127
1, 175585, Note_off_c, 1, 55, 0
1, 175589, Note_on_c, 1, 74, 127
1, 175589, Note_on_c, 1, 53, 127
1, 175724, Note_off_c, 1, 74, 0
1, 175724, Note_off_c, 1, 53, 0
1, 175729, Note_on_c, 1, 71, 127
1, 175999, Note_off_c, 1, 71, 0
1, 176010, Note_on_c, 1, 59, 127
1, 176010, Note_on_c, 1, 67, 127
1, 176140, Note_off_c, 1, 77, 0
1, 176145, Note_off_c, 1, 59, 0
1, 176151, Note_on_c, 1, 75, 127
1, 176151, Note_on_c, 1, 60, 127
1, 176286, Note_off_c, 1, 75, 0
1, 176286, Note_off_c, 1, 60, 0
1, 176291, Note_on_c, 1, 79, 127
1, 176420, Note_off_c, 1, 67, 0
1, 176426, Note_off_c, 1, 79, 0
1, 176431, Note_on_c, 1, 78, 127
1, 176431, Note_on_c, 1, 72, 127
1, 176431, Note_on_c, 1, 57, 127
1, 176566, Note_off_c, 1, 78, 0
1, 176566, Note_off_c, 1, 72, 0
1, 176566, Note_off_c, 1, 57, 0
1, 176571, Note_on_c, 1, 71, 127
1, 176571, Note_on_c, 1, 55, 127
1, 176571, Note_on_c, 1, 79, 127
1, 176706, Note_off_c, 1, 71, 0
1, 176706, Note_off_c, 1, 55, 0
1, 176711, Note_on_c, 1, 72, 127
1, 176711, Note_on_c, 1, 56, 127
1, 176846, Note_off_c, 1, 72, 0
1, 176846, Note_off_c, 1, 56, 0
1, 176851, Note_on_c, 1, 74, 127
1, 176851, Note_on_c, 1, 53, 127
1, 176986, Note_off_c, 1, 74, 0
1, 176986, Note_off_c, 1, 53, 0
1, 176992, Note_on_c, 1, 51, 127
1, 177127, Note_off_c, 1, 51, 0
1, 177132, Note_on_c, 1, 50, 127
1, 177267, Note_off_c, 1, 50, 0
1, 177273, Note_on_c, 1, 75, 127
1, 177273, Note_on_c, 1, 48, 127
1, 177402, Note_off_c, 1, 79, 0
1, 177408, Note_off_c, 1, 75, 0
1, 177408, Note_off_c, 1, 48, 0
1, 177413, Note_on_c, 1, 78, 127
1, 177413, Note_on_c, 1, 50, 127
1, 177413, Note_on_c, 1, 69, 127
1, 177548, Note_off_c, 1, 78, 0
1, 177548, Note_off_c, 1, 50, 0
1, 177552, Note_on_c, 1, 79, 127
1, 177552, Note_on_c, 1, 52, 127
1, 177687, Note_off_c, 1, 79, 0
1, 177687, Note_off_c, 1, 52, 0
1, 177693, Note_on_c, 1, 81, 127
1, 177693, Note_on_c, 1, 54, 127
1, 177823, Note_off_c, 1, 69, 0
1, 177828, Note_off_c, 1, 81, 0
1, 177828, Note_off_c, 1, 54, 0
1, 177833, Note_on_c, 1, 55, 127
1, 177833, Note_on_c, 1, 72, 127
1, 177968, Note_off_c, 1, 55, 0
1, 177974, Note_on_c, 1, 74, 127
1, 177974, Note_on_c, 1, 53, 127
1, 178103, Note_off_c, 1, 72, 0
1, 178109, Note_off_c, 1, 74, 0
1, 178109, Note_off_c, 1, 53, 0
1, 178114, Note_on_c, 1, 72, 127
1, 178114, Note_on_c, 1, 67, 127
1, 178114, Note_on_c, 1, 51, 127
1, 178249, Note_off_c, 1, 72, 0
1, 178249, Note_off_c, 1, 67, 0
1, 178249, Note_off_c, 1, 51, 0
1, 178254, Note_on_c, 1, 70, 127
1, 178254, Note_on_c, 1, 50, 127
1, 178254, Note_on_c, 1, 67, 127
1, 178389, Note_off_c, 1, 70, 0
1, 178389, Note_off_c, 1, 50, 0
1, 178395, Note_on_c, 1, 72, 127
1, 178395, Note_on_c, 1, 51, 127
1, 178524, Note_off_c, 1, 67, 0
1, 178530, Note_off_c, 1, 72, 0
1, 178530, Note_off_c, 1, 51, 0
1, 178534, Note_on_c, 1, 69, 127
1, 178534, Note_on_c, 1, 66, 127
1, 178534, Note_on_c, 1, 48, 127
1, 178669, Note_off_c, 1, 69, 0
1, 178669, Note_off_c, 1, 66, 0
1, 178669, Note_off_c, 1, 48, 0
1, 178674, Note_on_c, 1, 46, 127
1, 178674, Note_on_c, 1, 67, 127
1, 178809, Note_off_c, 1, 46, 0
1, 178815, Note_on_c, 1, 45, 127
1, 178950, Note_off_c, 1, 45, 0
1, 178955, Note_on_c, 1, 75, 127
1, 178955, Note_on_c, 1, 43, 127
1, 179090, Note_off_c, 1, 75, 0
1, 179090, Note_off_c, 1, 43, 0
1, 179096, Note_on_c, 1, 73, 127
1, 179236, Note_on_c, 1, 47, 127
1, 179366, Note_off_c, 1, 73, 0
1, 179371, Note_off_c, 1, 47, 0
1, 179376, Note_on_c, 1, 49, 127
1, 179376, Note_on_c, 1, 69, 127
1, 179505, Note_off_c, 1, 67, 0
1, 179511, Note_off_c, 1, 49, 0
1, 179516, Note_on_c, 1, 50, 127
1, 179516, Note_on_c, 1, 65, 127
1, 179646, Note_off_c, 1, 69, 0
1, 179651, Note_off_c, 1, 50, 0
1, 179656, Note_on_c, 1, 48, 127
1, 179786, Note_off_c, 1, 65, 0
1, 179791, Note_off_c, 1, 48, 0
1, 179797, Note_on_c, 1, 74, 127
1, 179797, Note_on_c, 1, 67, 127
1, 179797, Note_on_c, 1, 46, 127
1, 179932, Note_off_c, 1, 74, 0
1, 179932, Note_off_c, 1, 67, 0
1, 179932, Note_off_c, 1, 46, 0
1, 179937, Note_on_c, 1, 73, 127
1, 179937, Note_on_c, 1, 45, 127
1, 179937, Note_on_c, 1, 69, 127
1, 180072, Note_off_c, 1, 73, 0
1, 180072, Note_off_c, 1, 45, 0
1, 180077, Note_on_c, 1, 74, 127
1, 180077, Note_on_c, 1, 46, 127
1, 180212, Note_off_c, 1, 74, 0
1, 180212, Note_off_c, 1, 46, 0
1, 180218, Note_on_c, 1, 76, 127
1, 180218, Note_on_c, 1, 43, 127
1, 180346, Note_off_c, 1, 69, 0
1, 180354, Note_off_c, 1, 76, 0
1, 180354, Note_off_c, 1, 43, 0
1, 180359, Note_on_c, 1, 74, 127
1, 180359, Note_on_c, 1, 41, 127
1, 180494, Note_off_c, 1, 74, 0
1, 180494, Note_off_c, 1, 41, 0
1, 180499, Note_on_c, 1, 76, 127
1, 180499, Note_on_c, 1, 40, 127
1, 180634, Note_off_c, 1, 76, 0
1, 180634, Note_off_c, 1, 40, 0
1, 180639, Note_on_c, 1, 77, 127
1, 180639, Note_on_c, 1, 38, 127
1, 180774, Note_off_c, 1, 77, 0
1, 180774, Note_off_c, 1, 38, 0
1, 180779, Note_on_c, 1, 53, 127
1, 180779, Note_on_c, 1, 50, 127
1, 180779, Note_on_c, 1, 70, 127
1, 180914, Note_off_c, 1, 53, 0
1, 180920, Note_on_c, 1, 52, 127
1, 181055, Note_off_c, 1, 52, 0
1, 181189, Note_off_c, 1, 50, 0
1, 181201, Note_on_c, 1, 60, 127
1, 181329, Note_off_c, 1, 70, 0
1, 181341, Note_on_c, 1, 76, 127
1, 181476, Note_off_c, 1, 76, 0
1, 181480, Note_on_c, 1, 79, 127
1, 181544, Note_off_c, 1, 60, 0
1, 181615, Note_off_c, 1, 79, 0
1, 181621, Note_on_c, 1, 57, 127
1, 181621, Note_on_c, 1, 51, 127
1, 181621, Note_on_c, 1, 72, 127
1, 181756, Note_off_c, 1, 57, 0
1, 181761, Note_on_c, 1, 55, 127
1, 181896, Note_off_c, 1, 55, 0
1, 182031, Note_off_c, 1, 51, 0
1, 182042, Note_on_c, 1, 50, 127
1, 182042, Note_on_c, 1, 62, 127
1, 182171, Note_off_c, 1, 72, 0
1, 182177, Note_off_c, 1, 50, 0
1, 182182, Note_on_c, 1, 70, 127
1, 182182, Note_on_c, 1, 52, 127
1, 182317, Note_off_c, 1, 70, 0
1, 182317, Note_off_c, 1, 52, 0
1, 182323, Note_on_c, 1, 69, 127
1, 182323, Note_on_c, 1, 53, 127
1, 182385, Note_off_c, 1, 62, 0
1, 182456, Note_off_c, 1, 69, 0
1, 182456, Note_off_c, 1, 53, 0
1, 182461, Note_on_c, 1, 60, 127
1, 182461, Note_on_c, 1, 52, 127
1, 182461, Note_on_c, 1, 70, 127
1, 182596, Note_off_c, 1, 60, 0
1, 182596, Note_off_c, 1, 52, 0
1, 182601, Note_on_c, 1, 62, 127
1, 182601, Note_on_c, 1, 53, 127
1, 182736, Note_off_c, 1, 62, 0
1, 182736, Note_off_c, 1, 53, 0
1, 182742, Note_on_c, 1, 64, 127
1, 182742, Note_on_c, 1, 55, 127
1, 182877, Note_off_c, 1, 64, 0
1, 182877, Note_off_c, 1, 55, 0
1, 182882, Note_on_c, 1, 65, 127
1, 182882, Note_on_c, 1, 45, 127
1, 183017, Note_off_c, 1, 65, 0
1, 183152, Note_off_c, 1, 70, 0
1, 183152, Note_off_c, 1, 45, 0
1, 183163, Note_on_c, 1, 70, 127
1, 183163, Note_on_c, 1, 62, 127
1, 183163, Note_on_c, 1, 46, 127
1, 183298, Note_off_c, 1, 70, 0
1, 183298, Note_off_c, 1, 62, 0
1, 183298, Note_off_c, 1, 46, 0
1, 183303, Note_on_c, 1, 60, 127
1, 183303, Note_on_c, 1, 69, 127
1, 183303, Note_on_c, 1, 48, 127
1, 183438, Note_off_c, 1, 60, 0
1, 183443, Note_on_c, 1, 62, 127
1, 183573, Note_off_c, 1, 69, 0
1, 183573, Note_off_c, 1, 48, 0
1, 183578, Note_off_c, 1, 62, 0
1, 183583, Note_on_c, 1, 67, 127
1, 183583, Note_on_c, 1, 58, 127
1, 183583, Note_on_c, 1, 49, 127
1, 183718, Note_off_c, 1, 67, 0
1, 183718, Note_off_c, 1, 58, 0
1, 183718, Note_off_c, 1, 49, 0
1, 183723, Note_on_c, 1, 57, 127
1, 183723, Note_on_c, 1, 65, 127
1, 183723, Note_on_c, 1, 50, 127
1, 183858, Note_off_c, 1, 57, 0
1, 183864, Note_on_c, 1, 55, 127
1, 183999, Note_off_c, 1, 55, 0
1, 184004, Note_on_c, 1, 53, 127
1, 184139, Note_off_c, 1, 53, 0
1, 184145, Note_on_c, 1, 58, 127
1, 184273, Note_off_c, 1, 65, 0
1, 184273, Note_off_c, 1, 50, 0
1, 184285, Note_on_c, 1, 63, 127
1, 184285, Note_on_c, 1, 48, 127
1, 184420, Note_off_c, 1, 63, 0
1, 184420, Note_off_c, 1, 48, 0
1, 184424, Note_on_c, 1, 62, 127
1, 184424, Note_on_c, 1, 46, 127
1, 184559, Note_off_c, 1, 62, 0
1, 184559, Note_off_c, 1, 46, 0
1, 184565, Note_on_c, 1, 60, 127
1, 184695, Note_off_c, 1, 58, 0
1, 185115, Note_off_c, 1, 60, 0
1, 185267, Note_on_c, 1, 51, 127
1, 185402, Note_off_c, 1, 51, 0
1, 185969, Note_on_c, 1, 67, 127
1, 186104, Note_off_c, 1, 67, 0
1, 186109, Note_on_c, 1, 69, 127
1, 186109, Note_on_c, 1, 45, 127
1, 186244, Note_off_c, 1, 69, 0
1, 186244, Note_off_c, 1, 45, 0
1, 186250, Note_on_c, 1, 43, 127
1, 186250, Note_on_c, 1, 70, 127
1, 186520, Note_off_c, 1, 43, 0
1, 186529, Note_on_c, 1, 41, 127
1, 186664, Note_off_c, 1, 41, 0
1, 186670, Note_on_c, 1, 39, 127
1, 186800, Note_off_c, 1, 70, 0
1, 186810, Note_on_c, 1, 72, 127
1, 186940, Note_off_c, 1, 39, 0
1, 186945, Note_off_c, 1, 72, 0
1, 186951, Note_on_c, 1, 74, 127
1, 186951, Note_on_c, 1, 38, 127
1, 187086, Note_off_c, 1, 74, 0
1, 187086, Note_off_c, 1, 38, 0
1, 187091, Note_on_c, 1, 36, 127
1, 187091, Note_on_c, 1, 75, 127
1, 187641, Note_off_c, 1, 36, 0
1, 188063, Note_off_c, 1, 75, 0
1, 189474, Note_on_c, 1, 77, 127
1, 189609, Note_off_c, 1, 77, 0
1, 190737, Note_on_c, 1, 64, 127
1, 190872, Note_off_c, 1, 64, 0
1, 194243, Note_on_c, 1, 69, 127
1, 194243, Note_on_c, 1, 53, 127
1, 194378, Note_off_c, 1, 69, 0
1, 194378, Note_off_c, 1, 53, 0
1, 194383, Note_on_c, 1, 70, 127
1, 194383, Note_on_c, 1, 55, 127
1, 194518, Note_off_c, 1, 70, 0
1, 194518, Note_off_c, 1, 55, 0
1, 194523, Note_on_c, 1, 72, 127
1, 194523, Note_on_c, 1, 57, 127
1, 194658, Note_off_c, 1, 72, 0
1, 194658, Note_off_c, 1, 57, 0
1, 194664, Note_on_c, 1, 74, 127
1, 194664, Note_on_c, 1, 58, 127
1, 194799, Note_off_c, 1, 74, 0
1, 194799, Note_off_c, 1, 58, 0
1, 194804, Note_on_c, 1, 72, 127
1, 194804, Note_on_c, 1, 57, 127
1, 194939, Note_off_c, 1, 72, 0
1, 194939, Note_off_c, 1, 57, 0
1, 194945, Note_on_c, 1, 75, 127
1, 194945, Note_on_c, 1, 55, 127
1, 195080, Note_off_c, 1, 75, 0
1, 195080, Note_off_c, 1, 55, 0
1, 195085, Note_on_c, 1, 74, 127
1, 195085, Note_on_c, 1, 53, 127
1, 195220, Note_off_c, 1, 74, 0
1, 195220, Note_off_c, 1, 53, 0
1, 195224, Note_on_c, 1, 75, 127
1, 195224, Note_on_c, 1, 55, 127
1, 195359, Note_off_c, 1, 75, 0
1, 195359, Note_off_c, 1, 55, 0
1, 195365, Note_on_c, 1, 72, 127
1, 195365, Note_on_c, 1, 51, 127
1, 195500, Note_off_c, 1, 72, 0
1, 195500, Note_off_c, 1, 51, 0
1, 195505, Note_on_c, 1, 50, 127
1, 195505, Note_on_c, 1, 70, 127
1, 195640, Note_off_c, 1, 50, 0
1, 195646, Note_on_c, 1, 48, 127
1, 195781, Note_off_c, 1, 48, 0
1, 195786, Note_on_c, 1, 46, 127
1, 195921, Note_off_c, 1, 46, 0
1, 195926, Note_on_c, 1, 62, 127
1, 195926, Note_on_c, 1, 58, 127
1, 196061, Note_off_c, 1, 62, 0
1, 196061, Note_off_c, 1, 58, 0
1, 196067, Note_on_c, 1, 63, 127
1, 196067, Note_on_c, 1, 60, 127
1, 196202, Note_off_c, 1, 63, 0
1, 196202, Note_off_c, 1, 60, 0
1, 196207, Note_on_c, 1, 65, 127
1, 196342, Note_off_c, 1, 65, 0
1, 196348, Note_on_c, 1, 67, 127
1, 196483, Note_off_c, 1, 67, 0
1, 196628, Note_on_c, 1, 68, 127
1, 196763, Note_off_c, 1, 68, 0
1, 197050, Note_on_c, 1, 56, 127
1, 197185, Note_off_c, 1, 56, 0
1, 197189, Note_on_c, 1, 64, 127
1, 197189, Note_on_c, 1, 55, 127
1, 197324, Note_off_c, 1, 64, 0
1, 197459, Note_off_c, 1, 55, 0
1, 197470, Note_on_c, 1, 53, 127
1, 197605, Note_off_c, 1, 53, 0
1, 197610, Note_on_c, 1, 52, 127
1, 197739, Note_off_c, 1, 70, 0
1, 197880, Note_off_c, 1, 52, 0
1, 199714, Note_on_c, 1, 49, 127
1, 200124, Note_off_c, 1, 49, 0
1, 200134, Note_on_c, 1, 47, 127
1, 200544, Note_off_c, 1, 47, 0
1, 200696, Note_on_c, 1, 59, 127
1, 200831, Note_off_c, 1, 59, 0
1, 202800, Note_on_c, 1, 72, 127
1, 202935, Note_off_c, 1, 72, 0
1, 202940, Note_on_c, 1, 77, 127
1, 203075, Note_off_c, 1, 77, 0
1, 203641, Note_on_c, 1, 76, 127
1, 203776, Note_off_c, 1, 76, 0
1, 203781, Note_on_c, 1, 79, 127
1, 203916, Note_off_c, 1, 79, 0
1, 204623, Note_on_c, 1, 80, 127
1, 204758, Note_off_c, 1, 80, 0
1, 204763, Note_on_c, 1, 73, 127
1, 205033, Note_off_c, 1, 73, 0
1, 205183, Note_on_c, 1, 82, 127
1, 205453, Note_off_c, 1, 82, 0
1, 205885, Note_on_c, 1, 82, 127
1, 205885, Note_on_c, 1, 52, 127
1, 206020, Note_off_c, 1, 82, 0
1, 206020, Note_off_c, 1, 52, 0
1, 206024, Note_on_c, 1, 53, 127
1, 206024, Note_on_c, 1, 80, 127
1, 206159, Note_off_c, 1, 53, 0
1, 206165, Note_on_c, 1, 55, 127
1, 206294, Note_off_c, 1, 80, 0
1, 206300, Note_off_c, 1, 55, 0
1, 206305, Note_on_c, 1, 77, 127
1, 206305, Note_on_c, 1, 56, 127
1, 206440, Note_off_c, 1, 77, 0
1, 206440, Note_off_c, 1, 56, 0
1, 206446, Note_on_c, 1, 71, 127
1, 206446, Note_on_c, 1, 38, 127
1, 206582, Note_off_c, 1, 71, 0
1, 206587, Note_on_c, 1, 77, 127
1, 206723, Note_off_c, 1, 77, 0
1, 206729, Note_on_c, 1, 79, 127
1, 206865, Note_off_c, 1, 79, 0
1, 206869, Note_on_c, 1, 80, 127
1, 206869, Note_on_c, 1, 47, 127
1, 207005, Note_off_c, 1, 80, 0
1, 207277, Note_off_c, 1, 38, 0
1, 207283, Note_off_c, 1, 47, 0
1, 207293, Note_on_c, 1, 36, 127
1, 207293, Note_on_c, 1, 48, 127
1, 207437, Note_on_c, 1, 76, 127
1, 207569, Note_off_c, 1, 36, 0
1, 207569, Note_off_c, 1, 48, 0
1, 207575, Note_off_c, 1, 76, 0
1, 207580, Note_on_c, 1, 50, 127
1, 207580, Note_on_c, 1, 73, 127
1, 207718, Note_off_c, 1, 50, 0
1, 207722, Note_on_c, 1, 52, 127
1, 207856, Note_off_c, 1, 73, 0
1, 207866, Note_on_c, 1, 72, 127
1, 207998, Note_off_c, 1, 52, 0
1, 208004, Note_off_c, 1, 72, 0
1, 208008, Note_on_c, 1, 70, 127
1, 208008, Note_on_c, 1, 48, 127
1, 208152, Note_on_c, 1, 53, 127
1, 208284, Note_off_c, 1, 70, 0
1, 208293, Note_on_c, 1, 68, 127
1, 208424, Note_off_c, 1, 48, 0
1, 208428, Note_off_c, 1, 53, 0
1, 208431, Note_off_c, 1, 68, 0
1, 208437, Note_on_c, 1, 67, 127
1, 208437, Note_on_c, 1, 55, 127
1, 208575, Note_off_c, 1, 67, 0
1, 208575, Note_off_c, 1, 55, 0
1, 208580, Note_on_c, 1, 65, 127
1, 208580, Note_on_c, 1, 56, 127
1, 208720, Note_off_c, 1, 65, 0
1, 208724, Note_on_c, 1, 64, 127
1, 208724, Note_on_c, 1, 60, 127
1, 208864, Note_off_c, 1, 64, 0
1, 208864, Note_off_c, 1, 60, 0
1, 208871, Note_on_c, 1, 59, 127
1, 209006, Note_off_c, 1, 56, 0
1, 209011, Note_off_c, 1, 59, 0
1, 209016, Note_on_c, 1, 60, 127
1, 209016, Note_on_c, 1, 55, 127
1, 209016, Note_on_c, 1, 72, 127
1, 209016, Note_on_c, 1, 48, 127
1, 209156, Note_off_c, 1, 60, 0
1, 209162, Note_on_c, 1, 64, 127
1, 209302, Note_off_c, 1, 64, 0
1, 209440, Note_off_c, 1, 55, 0
1, 209442, Note_off_c, 1, 72, 0
1, 209442, Note_off_c, 1, 48, 0
1, 209453, Note_on_c, 1, 69, 127
1, 209453, Note_on_c, 1, 63, 127
1, 209453, Note_on_c, 1, 60, 127
1, 209453, Note_on_c, 1, 53, 127
1, 209453, Note_on_c, 1, 48, 127
1, 209593, Note_off_c, 1, 69, 0
1, 209599, Note_on_c, 1, 67, 127
1, 209739, Note_off_c, 1, 67, 0
1, 209879, Note_off_c, 1, 63, 0
1, 209879, Note_off_c, 1, 60, 0
1, 209879, Note_off_c, 1, 53, 0
1, 209879, Note_off_c, 1, 48, 0
1, 209890, Note_on_c, 1, 46, 127
1, 209890, Note_on_c, 1, 65, 127
1, 209890, Note_on_c, 1, 61, 127
1, 209890, Note_on_c, 1, 58, 127
1, 209890, Note_on_c, 1, 70, 127
1, 209890, Note_on_c, 1, 73, 127
1, 210030, Note_off_c, 1, 46, 0
1, 210034, Note_on_c, 1, 49, 127
1, 210174, Note_off_c, 1, 49, 0
1, 210181, Note_on_c, 1, 53, 127
1, 210314, Note_off_c, 1, 65, 0
1, 210314, Note_off_c, 1, 61, 0
1, 210314, Note_off_c, 1, 58, 0
1, 210316, Note_off_c, 1, 70, 0
1, 210316, Note_off_c, 1, 73, 0
1, 210321, Note_off_c, 1, 53, 0
1, 210326, Note_on_c, 1, 72, 127
1, 210326, Note_on_c, 1, 58, 127
1, 210466, Note_off_c, 1, 72, 0
1, 210466, Note_off_c, 1, 58, 0
1, 210472, Note_on_c, 1, 74, 127
1, 210472, Note_on_c, 1, 57, 127
1, 210612, Note_off_c, 1, 74, 0
1, 210612, Note_off_c, 1, 57, 0
1, 210617, Note_on_c, 1, 76, 127
1, 210617, Note_on_c, 1, 55, 127
1, 210757, Note_off_c, 1, 76, 0
1, 210757, Note_off_c, 1, 55, 0
1, 210762, Note_on_c, 1, 77, 127
1, 210762, Note_on_c, 1, 57, 127
1, 210902, Note_off_c, 1, 77, 0
1, 210908, Note_on_c, 1, 76, 127
1, 211042, Note_off_c, 1, 57, 0
1, 211048, Note_off_c, 1, 76, 0
1, 211054, Note_on_c, 1, 74, 127
1, 211054, Note_on_c, 1, 70, 127
1, 211054, Note_on_c, 1, 58, 127
1, 211194, Note_off_c, 1, 74, 0
1, 211194, Note_off_c, 1, 70, 0
1, 211194, Note_off_c, 1, 58, 0
1, 211199, Note_on_c, 1, 72, 127
1, 211199, Note_on_c, 1, 69, 127
1, 211199, Note_on_c, 1, 60, 127
1, 211339, Note_off_c, 1, 72, 0
1, 211344, Note_on_c, 1, 74, 127
1, 211479, Note_off_c, 1, 69, 0
1, 211479, Note_off_c, 1, 60, 0
1, 211484, Note_off_c, 1, 74, 0
1, 211490, Note_on_c, 1, 70, 127
1, 211490, Note_on_c, 1, 67, 127
1, 211490, Note_on_c, 1, 48, 127
1, 211630, Note_off_c, 1, 70, 0
1, 211630, Note_off_c, 1, 67, 0
1, 211630, Note_off_c, 1, 48, 0
1, 211636, Note_on_c, 1, 69, 127
1, 211636, Note_on_c, 1, 65, 127
1, 211636, Note_on_c, 1, 53, 127
1, 211778, Note_off_c, 1, 69, 0
1, 211778, Note_off_c, 1, 65, 0
1, 211859, Note_on_c, 1, 67, 127
1, 211927, Note_off_c, 1, 67, 0
1, 212007, Note_on_c, 1, 70, 127
1, 212069, Note_off_c, 1, 53, 0
1, 212075, Note_off_c, 1, 70, 0
1, 212080, Note_on_c, 1, 41, 127
1, 212080, Note_on_c, 1, 72, 127
1, 212222, Note_off_c, 1, 41, 0
1, 212227, Note_on_c, 1, 40, 127
1, 212369, Note_off_c, 1, 40, 0
1, 212375, Note_on_c, 1, 63, 127
1, 212517, Note_off_c, 1, 63, 0
1, 212524, Note_on_c, 1, 46, 127
1, 212672, Note_on_c, 1, 62, 127
1, 212740, Note_off_c, 1, 62, 0
1, 212956, Note_off_c, 1, 72, 0
1, 212956, Note_off_c, 1, 46, 0
1, 212967, Note_on_c, 1, 43, 127
1, 212967, Note_on_c, 1, 70, 127
1, 213109, Note_off_c, 1, 43, 0
1, 213115, Note_on_c, 1, 62, 127
1, 213115, Note_on_c, 1, 41, 127
1, 213257, Note_off_c, 1, 62, 0
1, 213257, Note_off_c, 1, 41, 0
1, 213263, Note_on_c, 1, 65, 127
1, 213405, Note_off_c, 1, 65, 0
1, 213412, Note_on_c, 1, 48, 127
1, 213560, Note_on_c, 1, 64, 127
1, 213623, Note_off_c, 1, 70, 0
1, 213634, Note_on_c, 1, 67, 127
1, 213702, Note_off_c, 1, 67, 0
1, 213708, Note_on_c, 1, 69, 127
1, 213776, Note_off_c, 1, 69, 0
1, 213845, Note_off_c, 1, 48, 0
1, 213854, Note_on_c, 1, 45, 127
1, 213854, Note_on_c, 1, 72, 127
1, 213993, Note_off_c, 1, 64, 0
1, 213996, Note_off_c, 1, 45, 0
1, 214298, Note_on_c, 1, 50, 127
1, 214510, Note_off_c, 1, 72, 0
1, 214731, Note_off_c, 1, 50, 0
1, 214742, Note_on_c, 1, 46, 127
1, 214742, Note_on_c, 1, 74, 127
1, 214884, Note_off_c, 1, 46, 0
1, 215185, Note_on_c, 1, 52, 127
1, 215248, Note_off_c, 1, 74, 0
1, 215482, Note_on_c, 1, 76, 127
1, 215550, Note_off_c, 1, 76, 0
1, 215555, Note_on_c, 1, 77, 127
1, 215618, Note_off_c, 1, 52, 0
1, 215623, Note_off_c, 1, 77, 0
1, 215629, Note_on_c, 1, 79, 127
1, 215629, Note_on_c, 1, 48, 127
1, 215697, Note_off_c, 1, 79, 0
1, 215702, Note_on_c, 1, 77, 127
1, 215770, Note_off_c, 1, 48, 0
1, 215770, Note_off_c, 1, 77, 0
1, 215777, Note_on_c, 1, 76, 127
1, 215777, Note_on_c, 1, 50, 127
1, 215845, Note_off_c, 1, 76, 0
1, 215850, Note_on_c, 1, 74, 127
1, 215918, Note_off_c, 1, 50, 0
1, 215918, Note_off_c, 1, 74, 0
1, 215924, Note_on_c, 1, 72, 127
1, 215924, Note_on_c, 1, 52, 127
1, 215992, Note_off_c, 1, 72, 0
1, 215997, Note_on_c, 1, 70, 127
1, 216065, Note_off_c, 1, 52, 0
1, 216065, Note_off_c, 1, 70, 0
1, 216071, Note_on_c, 1, 69, 127
1, 216071, Note_on_c, 1, 53, 127
1, 216215, Note_off_c, 1, 69, 0
1, 216215, Note_off_c, 1, 53, 0
1, 216220, Note_on_c, 1, 72, 127
1, 216220, Note_on_c, 1, 52, 127
1, 216364, Note_off_c, 1, 72, 0
1, 216364, Note_off_c, 1, 52, 0
1, 216371, Note_on_c, 1, 70, 127
1, 216371, Note_on_c, 1, 50, 127
1, 216515, Note_off_c, 1, 70, 0
1, 216515, Note_off_c, 1, 50, 0
1, 216521, Note_on_c, 1, 48, 127
1, 216521, Note_on_c, 1, 72, 127
1, 216665, Note_off_c, 1, 48, 0
1, 216670, Note_on_c, 1, 50, 127
1, 216814, Note_off_c, 1, 50, 0
1, 216820, Note_on_c, 1, 64, 127
1, 216820, Note_on_c, 1, 46, 127
1, 216964, Note_off_c, 1, 64, 0
1, 216964, Note_off_c, 1, 46, 0
1, 216970, Note_on_c, 1, 45, 127
1, 216970, Note_on_c, 1, 65, 127
1, 217114, Note_off_c, 1, 45, 0
1, 217259, Note_off_c, 1, 72, 0
1, 217259, Note_off_c, 1, 65, 0
1, 217268, Note_on_c, 1, 74, 127
1, 217268, Note_on_c, 1, 70, 127
1, 217268, Note_on_c, 1, 43, 127
1, 217412, Note_off_c, 1, 74, 0
1, 217412, Note_off_c, 1, 70, 0
1, 217412, Note_off_c, 1, 43, 0
1, 217418, Note_on_c, 1, 69, 127
1, 217418, Note_on_c, 1, 41, 127
1, 217418, Note_on_c, 1, 75, 127
1, 217562, Note_off_c, 1, 69, 0
1, 217562, Note_off_c, 1, 41, 0
1, 217570, Note_on_c, 1, 70, 127
1, 217570, Note_on_c, 1, 43, 127
1, 217714, Note_off_c, 1, 70, 0
1, 217714, Note_off_c, 1, 43, 0
1, 217719, Note_on_c, 1, 45, 127
1, 217719, Note_on_c, 1, 72, 127
1, 217857, Note_off_c, 1, 75, 0
1, 217862, Note_off_c, 1, 45, 0
1, 217868, Note_on_c, 1, 46, 127
1, 217868, Note_on_c, 1, 74, 127
1, 218013, Note_off_c, 1, 46, 0
1, 218019, Note_on_c, 1, 48, 127
1, 218160, Note_off_c, 1, 72, 0
1, 218164, Note_off_c, 1, 48, 0
1, 218169, Note_on_c, 1, 65, 127
1, 218314, Note_off_c, 1, 65, 0
1, 218612, Note_off_c, 1, 74, 0
1, 218622, Note_on_c, 1, 79, 127
1, 218767, Note_off_c, 1, 79, 0
1, 218773, Note_on_c, 1, 76, 127
1, 218928, Note_on_c, 1, 50, 127
1, 219077, Note_off_c, 1, 50, 0
1, 219083, Note_on_c, 1, 67, 127
1, 219232, Note_off_c, 1, 67, 0
1, 219537, Note_off_c, 1, 76, 0
1, 219548, Note_on_c, 1, 81, 127
1, 219697, Note_off_c, 1, 81, 0
1, 219704, Note_on_c, 1, 77, 127
1, 220043, Note_off_c, 1, 77, 0
1, 220054, Note_on_c, 1, 74, 127
1, 220054, Note_on_c, 1, 70, 127
1, 220054, Note_on_c, 1, 46, 127
1, 220224, Note_off_c, 1, 74, 0
1, 220224, Note_off_c, 1, 70, 0
1, 220224, Note_off_c, 1, 46, 0
1, 220230, Note_on_c, 1, 69, 127
1, 220230, Note_on_c, 1, 65, 127
1, 220230, Note_on_c, 1, 48, 127
1, 220400, Note_off_c, 1, 69, 0
1, 220407, Note_on_c, 1, 70, 127
1, 220570, Note_off_c, 1, 65, 0
1, 220570, Note_off_c, 1, 48, 0
1, 220576, Note_off_c, 1, 70, 0
1, 220582, Note_on_c, 1, 67, 127
1, 220582, Note_on_c, 1, 64, 127
1, 220582, Note_on_c, 1, 36, 127
1, 220777, Note_off_c, 1, 67, 0
1, 220777, Note_off_c, 1, 64, 0
1, 220777, Note_off_c, 1, 36, 0
1, 220831, Note_on_c, 1, 41, 127
1, 220831, Note_on_c, 1, 65, 127
1, 223347, Note_off_c, 1, 41, 0
1, 223347, Note_off_c, 1, 65, 0
1, 223347, End_track
0, 0, End_of_file