0, 0, Header, 1, 1, 480
1, 0, Start_track
1, 0, Title_t, "Test"
1, 0, Tempo, 500000
1, 0, Instrument_name_t, "Church Organ"
1, 0, Note_on_c, 1, 77, 127
1, 48, Note_off_c, 1, 77, 0
1, 60, Note_on_c, 1, 69, 127
1, 60, Note_on_c, 1, 72, 127
1, 60, Note_on_c, 1, 77, 127
1, 60, Note_on_c, 1, 53, 127
1, 156, Note_off_c, 1, 69, 0
1, 156, Note_off_c, 1, 72, 0
1, 156, Note_off_c, 1, 53, 0
1, 180, Note_on_c, 1, 41, 127
1, 204, Note_off_c, 1, 77, 0
1, 240, Note_on_c, 1, 76, 127
1, 264, Note_off_c, 1, 76, 0
1, 270, Note_on_c, 1, 74, 127
1, 276, Note_off_c, 1, 41, 0
1, 294, Note_off_c, 1, 74, 0
1, 300, Note_on_c, 1, 72, 127
1, 348, Note_off_c, 1, 72, 0
1, 360, Note_on_c, 1, 74, 127
1, 360, Note_on_c, 1, 65, 127
1, 408, Note_off_c, 1, 74, 0
1, 408, Note_off_c, 1, 65, 0
1, 420, Note_on_c, 1, 72, 127
1, 420, Note_on_c, 1, 64, 127
1, 468, Note_off_c, 1, 72, 0
1, 468, Note_off_c, 1, 64, 0
1, 480, Note_on_c, 1, 70, 127
1, 480, Note_on_c, 1, 62, 127
1, 528, Note_off_c, 1, 70, 0
1, 528, Note_off_c, 1, 62, 0
1, 540, Note_on_c, 1, 69, 127
1, 540, Note_on_c, 1, 60, 127
1, 572, Note_off_c, 1, 69, 0
1, 580, Note_on_c, 1, 70, 127
1, 612, Note_off_c, 1, 70, 0
1, 620, Note_on_c, 1, 72, 127
1, 636, Note_off_c, 1, 60, 0
1, 652, Note_off_c, 1, 72, 0
1, 660, Note_on_c, 1, 69, 127
1, 660, Note_on_c, 1, 65, 127
1, 692, Note_off_c, 1, 69, 0
1, 700, Note_on_c, 1, 70, 127
1, 732, Note_off_c, 1, 70, 0
1, 740, Note_on_c, 1, 72, 127
1, 756, Note_off_c, 1, 65, 0
1, 772, Note_off_c, 1, 72, 0
1, 780, Note_on_c, 1, 65, 127
1, 780, Note_on_c, 1, 57, 127
1, 812, Note_off_c, 1, 65, 0
1, 820, Note_on_c, 1, 67, 127
1, 852, Note_off_c, 1, 67, 0
1, 860, Note_on_c, 1, 69, 127
1, 876, Note_off_c, 1, 57, 0
1, 892, Note_off_c, 1, 69, 0
1, 900, Note_on_c, 1, 65, 127
1, 900, Note_on_c, 1, 60, 127
1, 932, Note_off_c, 1, 65, 0
1, 940, Note_on_c, 1, 67, 127
1, 972, Note_off_c, 1, 67, 0
1, 980, Note_on_c, 1, 69, 127
1, 996, Note_off_c, 1, 60, 0
1, 1012, Note_off_c, 1, 69, 0
1, 1020, Note_on_c, 1, 60, 127
1, 1020, Note_on_c, 1, 53, 127
1, 1052, Note_off_c, 1, 53, 0
1, 1060, Note_on_c, 1, 55, 127
1, 1092, Note_off_c, 1, 55, 0
1, 1100, Note_on_c, 1, 57, 127
1, 1116, Note_off_c, 1, 60, 0
1, 1132, Note_off_c, 1, 57, 0
1, 1140, Note_on_c, 1, 65, 127
1, 1140, Note_on_c, 1, 53, 127
1, 1172, Note_off_c, 1, 53, 0
1, 1180, Note_on_c, 1, 55, 127
1, 1212, Note_off_c, 1, 55, 0
1, 1220, Note_on_c, 1, 57, 127
1, 1236, Note_off_c, 1, 65, 0
1, 1252, Note_off_c, 1, 57, 0
1, 1260, Note_on_c, 1, 67, 127
1, 1260, Note_on_c, 1, 50, 127
1, 1272, Note_off_c, 1, 67, 0
1, 1275, Note_on_c, 1, 65, 127
1, 1287, Note_off_c, 1, 65, 0
1, 1292, Note_off_c, 1, 50, 0
1, 1300, Note_on_c, 1, 52, 127
1, 1332, Note_off_c, 1, 52, 0
1, 1335, Note_on_c, 1, 65, 127
1, 1340, Note_on_c, 1, 53, 127
1, 1347, Note_off_c, 1, 65, 0
1, 1350, Note_on_c, 1, 67, 127
1, 1365, Note_off_c, 1, 67, 0
1, 1372, Note_off_c, 1, 53, 0
1, 1380, Note_on_c, 1, 50, 127
1, 1412, Note_off_c, 1, 50, 0
1, 1420, Note_on_c, 1, 52, 127
1, 1440, Note_on_c, 1, 64, 127
1, 1452, Note_off_c, 1, 52, 0
1, 1464, Note_off_c, 1, 64, 0
1, 1500, Note_on_c, 1, 67, 127
1, 1500, Note_on_c, 1, 46, 127
1, 1532, Note_off_c, 1, 46, 0
1, 1540, Note_on_c, 1, 48, 127
1, 1572, Note_off_c, 1, 48, 0
1, 1580, Note_on_c, 1, 50, 127
1, 1596, Note_off_c, 1, 67, 0
1, 1612, Note_off_c, 1, 50, 0
1, 1620, Note_on_c, 1, 67, 127
1, 1620, Note_on_c, 1, 65, 127
1, 1620, Note_on_c, 1, 46, 127
1, 1652, Note_off_c, 1, 46, 0
1, 1660, Note_on_c, 1, 48, 127
1, 1692, Note_off_c, 1, 48, 0
1, 1700, Note_on_c, 1, 50, 127
1, 1716, Note_off_c, 1, 67, 0
1, 1716, Note_off_c, 1, 65, 0
1, 1732, Note_off_c, 1, 50, 0
1, 1740, Note_on_c, 1, 69, 127
1, 1740, Note_on_c, 1, 64, 127
1, 1740, Note_on_c, 1, 43, 127
1, 1752, Note_off_c, 1, 69, 0
1, 1755, Note_on_c, 1, 67, 127
1, 1767, Note_off_c, 1, 67, 0
1, 1788, Note_off_c, 1, 43, 0
1, 1800, Note_on_c, 1, 48, 127
1, 1848, Note_off_c, 1, 48, 0
1, 1860, Note_on_c, 1, 46, 127
1, 1908, Note_off_c, 1, 46, 0
1, 1920, Note_on_c, 1, 65, 127
1, 1932, Note_off_c, 1, 64, 0
1, 1944, Note_off_c, 1, 65, 0
1, 1980, Note_on_c, 1, 69, 127
1, 1980, Note_on_c, 1, 65, 127
1, 1980, Note_on_c, 1, 41, 127
1, 2028, Note_off_c, 1, 69, 0
1, 2040, Note_on_c, 1, 72, 127
1, 2076, Note_off_c, 1, 41, 0
1, 2088, Note_off_c, 1, 72, 0
1, 2100, Note_on_c, 1, 74, 127
1, 2100, Note_on_c, 1, 53, 127
1, 2148, Note_off_c, 1, 74, 0
1, 2160, Note_on_c, 1, 76, 127
1, 2172, Note_off_c, 1, 65, 0
1, 2196, Note_off_c, 1, 53, 0
1, 2208, Note_off_c, 1, 76, 0
1, 2220, Note_on_c, 1, 77, 127
1, 2220, Note_on_c, 1, 55, 127
1, 2232, Note_off_c, 1, 55, 0
1, 2235, Note_on_c, 1, 53, 127
1, 2247, Note_off_c, 1, 53, 0
1, 2280, Note_on_c, 1, 72, 127
1, 2328, Note_off_c, 1, 72, 0
1, 2340, Note_on_c, 1, 70, 127
1, 2388, Note_off_c, 1, 70, 0
1, 2400, Note_on_c, 1, 69, 127
1, 2400, Note_on_c, 1, 52, 127
1, 2424, Note_off_c, 1, 52, 0
1, 2448, Note_off_c, 1, 69, 0
1, 2508, Note_off_c, 1, 77, 0
1, 2580, Note_on_c, 1, 76, 127
1, 2628, Note_off_c, 1, 76, 0
1, 2700, Note_on_c, 1, 79, 127
1, 2700, Note_on_c, 1, 57, 127
1, 2715, Note_off_c, 1, 57, 0
1, 2748, Note_off_c, 1, 79, 0
1, 3120, Note_on_c, 1, 67, 127
1, 3168, Note_off_c, 1, 67, 0
1, 3240, Note_on_c, 1, 65, 127
1, 3288, Note_off_c, 1, 65, 0
1, 3420, Note_on_c, 1, 58, 127
1, 3420, Note_on_c, 1, 62, 127
1, 3612, Note_off_c, 1, 58, 0
1, 3612, Note_off_c, 1, 62, 0
1, 3660, Note_on_c, 1, 70, 127
1, 3708, Note_off_c, 1, 70, 0
1, 3720, Note_on_c, 1, 67, 127
1, 3768, Note_off_c, 1, 67, 0
1, 3780, Note_on_c, 1, 69, 127
1, 3780, Note_on_c, 1, 58, 127
1, 3780, Note_on_c, 1, 62, 127
1, 3828, Note_off_c, 1, 69, 0
1, 3840, Note_on_c, 1, 70, 127
1, 3876, Note_off_c, 1, 58, 0
1, 3876, Note_off_c, 1, 62, 0
1, 3888, Note_off_c, 1, 70, 0
1, 3900, Note_on_c, 1, 64, 127
1, 3900, Note_on_c, 1, 60, 127
1, 3900, Note_on_c, 1, 58, 127
1, 3948, Note_off_c, 1, 64, 0
1, 3960, Note_on_c, 1, 67, 127
1, 4008, Note_off_c, 1, 67, 0
1, 4020, Note_on_c, 1, 69, 127
1, 4068, Note_off_c, 1, 69, 0
1, 4080, Note_on_c, 1, 70, 127
1, 4092, Note_off_c, 1, 60, 0
1, 4128, Note_off_c, 1, 70, 0
1, 4140, Note_on_c, 1, 72, 127
1, 4260, Note_on_c, 1, 62, 127
1, 4284, Note_off_c, 1, 58, 0
1, 4308, Note_off_c, 1, 62, 0
1, 4380, Note_on_c, 1, 57, 127
1, 4380, Note_on_c, 1, 65, 127
1, 4428, Note_off_c, 1, 72, 0
1, 4476, Note_off_c, 1, 57, 0
1, 4560, Note_on_c, 1, 74, 127
1, 4608, Note_off_c, 1, 74, 0
1, 4620, Note_on_c, 1, 55, 127
1, 4668, Note_off_c, 1, 65, 0
1, 4716, Note_off_c, 1, 55, 0
1, 4860, Note_on_c, 1, 69, 127
1, 4860, Note_on_c, 1, 65, 127
1, 4860, Note_on_c, 1, 53, 127
1, 4908, Note_off_c, 1, 69, 0
1, 4920, Note_on_c, 1, 72, 127
1, 4956, Note_off_c, 1, 53, 0
1, 4968, Note_off_c, 1, 72, 0
1, 4980, Note_on_c, 1, 74, 127
1, 4980, Note_on_c, 1, 52, 127
1, 5028, Note_off_c, 1, 74, 0
1, 5040, Note_on_c, 1, 76, 127
1, 5052, Note_off_c, 1, 65, 0
1, 5076, Note_off_c, 1, 52, 0
1, 5088, Note_off_c, 1, 76, 0
1, 5100, Note_on_c, 1, 77, 127
1, 5100, Note_on_c, 1, 50, 127
1, 5160, Note_on_c, 1, 69, 127
1, 5196, Note_off_c, 1, 50, 0
1, 5208, Note_off_c, 1, 69, 0
1, 5220, Note_on_c, 1, 71, 127
1, 5220, Note_on_c, 1, 48, 127
1, 5268, Note_off_c, 1, 71, 0
1, 5280, Note_on_c, 1, 72, 127
1, 5316, Note_off_c, 1, 48, 0
1, 5328, Note_off_c, 1, 72, 0
1, 5340, Note_on_c, 1, 74, 127
1, 5340, Note_on_c, 1, 47, 127
1, 5388, Note_off_c, 1, 77, 0
1, 5388, Note_off_c, 1, 47, 0
1, 5436, Note_off_c, 1, 74, 0
1, 5460, Note_on_c, 1, 76, 127
1, 5460, Note_on_c, 1, 72, 127
1, 5460, Note_on_c, 1, 52, 127
1, 5508, Note_off_c, 1, 52, 0
1, 5520, Note_on_c, 1, 53, 127
1, 5556, Note_off_c, 1, 76, 0
1, 5556, Note_off_c, 1, 72, 0
1, 5568, Note_off_c, 1, 53, 0
1, 5580, Note_on_c, 1, 74, 127
1, 5580, Note_on_c, 1, 71, 127
1, 5580, Note_on_c, 1, 55, 127
1, 5628, Note_off_c, 1, 74, 0
1, 5640, Note_on_c, 1, 79, 127
1, 5676, Note_off_c, 1, 55, 0
1, 5688, Note_off_c, 1, 79, 0
1, 5700, Note_on_c, 1, 77, 127
1, 5700, Note_on_c, 1, 43, 127
1, 5748, Note_off_c, 1, 77, 0
1, 5772, Note_off_c, 1, 71, 0
1, 5796, Note_off_c, 1, 43, 0
1, 5820, Note_on_c, 1, 72, 127
1, 5820, Note_on_c, 1, 76, 127
1, 5820, Note_on_c, 1, 48, 127
1, 5852, Note_off_c, 1, 48, 0
1, 5860, Note_on_c, 1, 50, 127
1, 5868, Note_off_c, 1, 72, 0
1, 5880, Note_on_c, 1, 67, 127
1, 5892, Note_off_c, 1, 50, 0
1, 5900, Note_on_c, 1, 52, 127
1, 5928, Note_off_c, 1, 67, 0
1, 5932, Note_off_c, 1, 52, 0
1, 5940, Note_on_c, 1, 69, 127
1, 5988, Note_off_c, 1, 69, 0
1, 6000, Note_on_c, 1, 71, 127
1, 6048, Note_off_c, 1, 71, 0
1, 6060, Note_on_c, 1, 45, 127
1, 6092, Note_off_c, 1, 45, 0
1, 6100, Note_on_c, 1, 47, 127
1, 6108, Note_off_c, 1, 76, 0
1, 6132, Note_off_c, 1, 47, 0
1, 6180, Note_on_c, 1, 77, 127
1, 6228, Note_off_c, 1, 77, 0
1, 6240, Note_on_c, 1, 79, 127
1, 6288, Note_off_c, 1, 79, 0
1, 6300, Note_on_c, 1, 81, 127
1, 6300, Note_on_c, 1, 41, 127
1, 6332, Note_off_c, 1, 81, 0
1, 6340, Note_on_c, 1, 83, 127
1, 6372, Note_off_c, 1, 83, 0
1, 6380, Note_on_c, 1, 84, 127
1, 6396, Note_off_c, 1, 41, 0
1, 6412, Note_off_c, 1, 84, 0
1, 6420, Note_on_c, 1, 57, 127
1, 6516, Note_off_c, 1, 57, 0
1, 6660, Note_on_c, 1, 53, 127
1, 6756, Note_off_c, 1, 53, 0
1, 6780, Note_on_c, 1, 74, 127
1, 7020, Note_on_c, 1, 43, 127
1, 7052, Note_off_c, 1, 43, 0
1, 7068, Note_off_c, 1, 74, 0
1, 7260, Note_on_c, 1, 40, 127
1, 7356, Note_off_c, 1, 40, 0
1, 7380, Note_on_c, 1, 55, 127
1, 7476, Note_off_c, 1, 55, 0
1, 7980, Note_on_c, 1, 42, 127
1, 8012, Note_off_c, 1, 42, 0
1, 8040, Note_on_c, 1, 75, 127
1, 8088, Note_off_c, 1, 75, 0
1, 8220, Note_on_c, 1, 78, 127
1, 8220, Note_on_c, 1, 38, 127
1, 8252, Note_off_c, 1, 78, 0
1, 8316, Note_off_c, 1, 38, 0
1, 8700, Note_on_c, 1, 71, 127
1, 8700, Note_on_c, 1, 67, 127
1, 8700, Note_on_c, 1, 43, 127
1, 8732, Note_off_c, 1, 71, 0
1, 8740, Note_on_c, 1, 72, 127
1, 8772, Note_off_c, 1, 72, 0
1, 8780, Note_on_c, 1, 74, 127
1, 8812, Note_off_c, 1, 74, 0
1, 8892, Note_off_c, 1, 67, 0
1, 8892, Note_off_c, 1, 43, 0
1, 8900, Note_on_c, 1, 74, 127
1, 8932, Note_off_c, 1, 74, 0
1, 8940, Note_on_c, 1, 67, 127
1, 8972, Note_off_c, 1, 67, 0
1, 8980, Note_on_c, 1, 69, 127
1, 9012, Note_off_c, 1, 69, 0
1, 9020, Note_on_c, 1, 71, 127
1, 9060, Note_on_c, 1, 65, 127
1, 9060, Note_on_c, 1, 55, 127
1, 9100, Note_off_c, 1, 65, 0
1, 9100, Note_on_c, 1, 67, 127
1, 9140, Note_off_c, 1, 67, 0
1, 9140, Note_on_c, 1, 68, 127
1, 9156, Note_off_c, 1, 71, 0
1, 9156, Note_off_c, 1, 55, 0
1, 9180, Note_off_c, 1, 68, 0
1, 9180, Note_on_c, 1, 72, 127
1, 9180, Note_on_c, 1, 63, 127
1, 9180, Note_on_c, 1, 56, 127
1, 9228, Note_off_c, 1, 56, 0
1, 9276, Note_off_c, 1, 72, 0
1, 9276, Note_off_c, 1, 63, 0
1, 9300, Note_on_c, 1, 75, 127
1, 9300, Note_on_c, 1, 54, 127
1, 9348, Note_off_c, 1, 54, 0
1, 9360, Note_on_c, 1, 55, 127
1, 9396, Note_off_c, 1, 75, 0
1, 9408, Note_off_c, 1, 55, 0
1, 9420, Note_on_c, 1, 68, 127
1, 9420, Note_on_c, 1, 48, 127
1, 9468, Note_off_c, 1, 48, 0
1, 9480, Note_on_c, 1, 55, 127
1, 9516, Note_off_c, 1, 68, 0
1, 9528, Note_off_c, 1, 55, 0
1, 9540, Note_on_c, 1, 72, 127
1, 9540, Note_on_c, 1, 54, 127
1, 9588, Note_off_c, 1, 54, 0
1, 9600, Note_on_c, 1, 55, 127
1, 9636, Note_off_c, 1, 72, 0
1, 9648, Note_off_c, 1, 55, 0
1, 9660, Note_on_c, 1, 66, 127
1, 9660, Note_on_c, 1, 57, 127
1, 9708, Note_off_c, 1, 57, 0
1, 9720, Note_on_c, 1, 55, 127
1, 9756, Note_off_c, 1, 66, 0
1, 9768, Note_off_c, 1, 55, 0
1, 9780, Note_on_c, 1, 69, 127
1, 9780, Note_on_c, 1, 54, 127
1, 9828, Note_off_c, 1, 54, 0
1, 9840, Note_on_c, 1, 55, 127
1, 9876, Note_off_c, 1, 69, 0
1, 9888, Note_off_c, 1, 55, 0
1, 9900, Note_on_c, 1, 62, 127
1, 9900, Note_on_c, 1, 48, 127
1, 9948, Note_off_c, 1, 48, 0
1, 9960, Note_on_c, 1, 51, 127
1, 9996, Note_off_c, 1, 62, 0
1, 10008, Note_off_c, 1, 51, 0
1, 10020, Note_on_c, 1, 66, 127
1, 10020, Note_on_c, 1, 50, 127
1, 10068, Note_off_c, 1, 50, 0
1, 10080, Note_on_c, 1, 48, 127
1, 10116, Note_off_c, 1, 66, 0
1, 10128, Note_off_c, 1, 48, 0
1, 10140, Note_on_c, 1, 59, 127
1, 10140, Note_on_c, 1, 53, 127
1, 10188, Note_off_c, 1, 59, 0
1, 10200, Note_on_c, 1, 62, 127
1, 10248, Note_off_c, 1, 62, 0
1, 10260, Note_on_c, 1, 67, 127
1, 10308, Note_off_c, 1, 67, 0
1, 10380, Note_on_c, 1, 60, 127
1, 10428, Note_off_c, 1, 53, 0
1, 10428, Note_off_c, 1, 60, 0
1, 10440, Note_on_c, 1, 69, 127
1, 10440, Note_on_c, 1, 53, 127
1, 10488, Note_off_c, 1, 69, 0
1, 10488, Note_off_c, 1, 53, 0
1, 10500, Note_on_c, 1, 62, 127
1, 10500, Note_on_c, 1, 52, 127
1, 10548, Note_off_c, 1, 62, 0
1, 10548, Note_off_c, 1, 52, 0
1, 10560, Note_on_c, 1, 71, 127
1, 10560, Note_on_c, 1, 50, 127
1, 10608, Note_off_c, 1, 71, 0
1, 10608, Note_off_c, 1, 50, 0
1, 10620, Note_on_c, 1, 64, 127
1, 10620, Note_on_c, 1, 48, 127
1, 10668, Note_off_c, 1, 64, 0
1, 10668, Note_off_c, 1, 48, 0
1, 10680, Note_on_c, 1, 67, 127
1, 10680, Note_on_c, 1, 52, 127
1, 10728, Note_off_c, 1, 67, 0
1, 10728, Note_off_c, 1, 52, 0
1, 10740, Note_on_c, 1, 72, 127
1, 10740, Note_on_c, 1, 57, 127
1, 10788, Note_off_c, 1, 72, 0
1, 10788, Note_off_c, 1, 57, 0
1, 10800, Note_on_c, 1, 64, 127
1, 10800, Note_on_c, 1, 53, 127
1, 10848, Note_off_c, 1, 64, 0
1, 10848, Note_off_c, 1, 53, 0
1, 10860, Note_on_c, 1, 62, 127
1, 10860, Note_on_c, 1, 55, 127
1, 10920, Note_on_c, 1, 72, 127
1, 10956, Note_off_c, 1, 62, 0
1, 10956, Note_off_c, 1, 55, 0
1, 10968, Note_off_c, 1, 72, 0
1, 10980, Note_on_c, 1, 65, 127
1, 10980, Note_on_c, 1, 43, 127
1, 11040, Note_on_c, 1, 71, 127
1, 11076, Note_off_c, 1, 65, 0
1, 11076, Note_off_c, 1, 43, 0
1, 11088, Note_off_c, 1, 71, 0
1, 11100, Note_on_c, 1, 64, 127
1, 11100, Note_on_c, 1, 72, 127
1, 11100, Note_on_c, 1, 67, 127
1, 11100, Note_on_c, 1, 48, 127
1, 11160, Note_on_c, 1, 36, 127
1, 11220, Note_on_c, 1, 40, 127
1, 11268, Note_off_c, 1, 40, 0
1, 11280, Note_on_c, 1, 43, 127
1, 11292, Note_off_c, 1, 48, 0
1, 11328, Note_off_c, 1, 43, 0
1, 11388, Note_off_c, 1, 64, 0
1, 11388, Note_off_c, 1, 72, 0
1, 11388, Note_off_c, 1, 67, 0
1, 11436, Note_off_c, 1, 36, 0
1, 11520, Note_on_c, 1, 77, 127
1, 11568, Note_off_c, 1, 77, 0
1, 11580, Note_on_c, 1, 69, 127
1, 11580, Note_on_c, 1, 72, 127
1, 11580, Note_on_c, 1, 77, 127
1, 11580, Note_on_c, 1, 53, 127
1, 11676, Note_off_c, 1, 69, 0
1, 11676, Note_off_c, 1, 72, 0
1, 11676, Note_off_c, 1, 53, 0
1, 11700, Note_on_c, 1, 41, 127
1, 11724, Note_off_c, 1, 77, 0
1, 11760, Note_on_c, 1, 76, 127
1, 11784, Note_off_c, 1, 76, 0
1, 11790, Note_on_c, 1, 74, 127
1, 11796, Note_off_c, 1, 41, 0
1, 11814, Note_off_c, 1, 74, 0
1, 11820, Note_on_c, 1, 72, 127
1, 11868, Note_off_c, 1, 72, 0
1, 11880, Note_on_c, 1, 74, 127
1, 11880, Note_on_c, 1, 65, 127
1, 11928, Note_off_c, 1, 74, 0
1, 11928, Note_off_c, 1, 65, 0
1, 11940, Note_on_c, 1, 72, 127
1, 11940, Note_on_c, 1, 64, 127
1, 11988, Note_off_c, 1, 72, 0
1, 11988, Note_off_c, 1, 64, 0
1, 12000, Note_on_c, 1, 70, 127
1, 12000, Note_on_c, 1, 62, 127
1, 12048, Note_off_c, 1, 70, 0
1, 12048, Note_off_c, 1, 62, 0
1, 12060, Note_on_c, 1, 69, 127
1, 12060, Note_on_c, 1, 60, 127
1, 12092, Note_off_c, 1, 69, 0
1, 12100, Note_on_c, 1, 70, 127
1, 12132, Note_off_c, 1, 70, 0
1, 12140, Note_on_c, 1, 72, 127
1, 12156, Note_off_c, 1, 60, 0
1, 12172, Note_off_c, 1, 72, 0
1, 12180, Note_on_c, 1, 69, 127
1, 12180, Note_on_c, 1, 65, 127
1, 12212, Note_off_c, 1, 69, 0
1, 12220, Note_on_c, 1, 70, 127
1, 12252, Note_off_c, 1, 70, 0
1, 12260, Note_on_c, 1, 72, 127
1, 12276, Note_off_c, 1, 65, 0
1, 12292, Note_off_c, 1, 72, 0
1, 12300, Note_on_c, 1, 65, 127
1, 12300, Note_on_c, 1, 57, 127
1, 12332, Note_off_c, 1, 65, 0
1, 12340, Note_on_c, 1, 67, 127
1, 12372, Note_off_c, 1, 67, 0
1, 12380, Note_on_c, 1, 69, 127
1, 12396, Note_off_c, 1, 57, 0
1, 12412, Note_off_c, 1, 69, 0
1, 12420, Note_on_c, 1, 65, 127
1, 12420, Note_on_c, 1, 60, 127
1, 12452, Note_off_c, 1, 65, 0
1, 12460, Note_on_c, 1, 67, 127
1, 12492, Note_off_c, 1, 67, 0
1, 12500, Note_on_c, 1, 69, 127
1, 12516, Note_off_c, 1, 60, 0
1, 12532, Note_off_c, 1, 69, 0
1, 12540, Note_on_c, 1, 60, 127
1, 12540, Note_on_c, 1, 53, 127
1, 12572, Note_off_c, 1, 53, 0
1, 12580, Note_on_c, 1, 55, 127
1, 12612, Note_off_c, 1, 55, 0
1, 12620, Note_on_c, 1, 57, 127
1, 12636, Note_off_c, 1, 60, 0
1, 12652, Note_off_c, 1, 57, 0
1, 12660, Note_on_c, 1, 65, 127
1, 12660, Note_on_c, 1, 53, 127
1, 12692, Note_off_c, 1, 53, 0
1, 12700, Note_on_c, 1, 55, 127
1, 12732, Note_off_c, 1, 55, 0
1, 12740, Note_on_c, 1, 57, 127
1, 12756, Note_off_c, 1, 65, 0
1, 12772, Note_off_c, 1, 57, 0
1, 12780, Note_on_c, 1, 67, 127
1, 12780, Note_on_c, 1, 50, 127
1, 12792, Note_off_c, 1, 67, 0
1, 12795, Note_on_c, 1, 65, 127
1, 12807, Note_off_c, 1, 65, 0
1, 12812, Note_off_c, 1, 50, 0
1, 12820, Note_on_c, 1, 52, 127
1, 12852, Note_off_c, 1, 52, 0
1, 12855, Note_on_c, 1, 65, 127
1, 12860, Note_on_c, 1, 53, 127
1, 12867, Note_off_c, 1, 65, 0
1, 12870, Note_on_c, 1, 67, 127
1, 12885, Note_off_c, 1, 67, 0
1, 12892, Note_off_c, 1, 53, 0
1, 12900, Note_on_c, 1, 50, 127
1, 12932, Note_off_c, 1, 50, 0
1, 12940, Note_on_c, 1, 52, 127
1, 12960, Note_on_c, 1, 64, 127
1, 12972, Note_off_c, 1, 52, 0
1, 12984, Note_off_c, 1, 64, 0
1, 13020, Note_on_c, 1, 67, 127
1, 13020, Note_on_c, 1, 46, 127
1, 13052, Note_off_c, 1, 46, 0
1, 13060, Note_on_c, 1, 48, 127
1, 13092, Note_off_c, 1, 48, 0
1, 13100, Note_on_c, 1, 50, 127
1, 13116, Note_off_c, 1, 67, 0
1, 13132, Note_off_c, 1, 50, 0
1, 13140, Note_on_c, 1, 67, 127
1, 13140, Note_on_c, 1, 65, 127
1, 13140, Note_on_c, 1, 46, 127
1, 13172, Note_off_c, 1, 46, 0
1, 13180, Note_on_c, 1, 48, 127
1, 13212, Note_off_c, 1, 48, 0
1, 13220, Note_on_c, 1, 50, 127
1, 13236, Note_off_c, 1, 67, 0
1, 13236, Note_off_c, 1, 65, 0
1, 13252, Note_off_c, 1, 50, 0
1, 13260, Note_on_c, 1, 69, 127
1, 13260, Note_on_c, 1, 64, 127
1, 13260, Note_on_c, 1, 43, 127
1, 13272, Note_off_c, 1, 69, 0
1, 13275, Note_on_c, 1, 67, 127
1, 13287, Note_off_c, 1, 67, 0
1, 13308, Note_off_c, 1, 43, 0
1, 13320, Note_on_c, 1, 48, 127
1, 13368, Note_off_c, 1, 48, 0
1, 13380, Note_on_c, 1, 46, 127
1, 13428, Note_off_c, 1, 46, 0
1, 13440, Note_on_c, 1, 65, 127
1, 13452, Note_off_c, 1, 64, 0
1, 13464, Note_off_c, 1, 65, 0
1, 13500, Note_on_c, 1, 69, 127
1, 13500, Note_on_c, 1, 65, 127
1, 13500, Note_on_c, 1, 41, 127
1, 13548, Note_off_c, 1, 69, 0
1, 13560, Note_on_c, 1, 72, 127
1, 13596, Note_off_c, 1, 41, 0
1, 13608, Note_off_c, 1, 72, 0
1, 13620, Note_on_c, 1, 74, 127
1, 13620, Note_on_c, 1, 53, 127
1, 13668, Note_off_c, 1, 74, 0
1, 13680, Note_on_c, 1, 76, 127
1, 13692, Note_off_c, 1, 65, 0
1, 13716, Note_off_c, 1, 53, 0
1, 13728, Note_off_c, 1, 76, 0
1, 13740, Note_on_c, 1, 77, 127
1, 13740, Note_on_c, 1, 55, 127
1, 13752, Note_off_c, 1, 55, 0
1, 13755, Note_on_c, 1, 53, 127
1, 13767, Note_off_c, 1, 53, 0
1, 13800, Note_on_c, 1, 72, 127
1, 13848, Note_off_c, 1, 72, 0
1, 13860, Note_on_c, 1, 70, 127
1, 13908, Note_off_c, 1, 70, 0
1, 13920, Note_on_c, 1, 69, 127
1, 13920, Note_on_c, 1, 52, 127
1, 13944, Note_off_c, 1, 52, 0
1, 13968, Note_off_c, 1, 69, 0
1, 14028, Note_off_c, 1, 77, 0
1, 14100, Note_on_c, 1, 76, 127
1, 14148, Note_off_c, 1, 76, 0
1, 14220, Note_on_c, 1, 79, 127
1, 14220, Note_on_c, 1, 57, 127
1, 14235, Note_off_c, 1, 57, 0
1, 14268, Note_off_c, 1, 79, 0
1, 14640, Note_on_c, 1, 67, 127
1, 14688, Note_off_c, 1, 67, 0
1, 14760, Note_on_c, 1, 65, 127
1, 14808, Note_off_c, 1, 65, 0
1, 14940, Note_on_c, 1, 58, 127
1, 14940, Note_on_c, 1, 62, 127
1, 15132, Note_off_c, 1, 58, 0
1, 15132, Note_off_c, 1, 62, 0
1, 15180, Note_on_c, 1, 70, 127
1, 15228, Note_off_c, 1, 70, 0
1, 15240, Note_on_c, 1, 67, 127
1, 15288, Note_off_c, 1, 67, 0
1, 15300, Note_on_c, 1, 69, 127
1, 15300, Note_on_c, 1, 58, 127
1, 15300, Note_on_c, 1, 62, 127
1, 15348, Note_off_c, 1, 69, 0
1, 15360, Note_on_c, 1, 70, 127
1, 15396, Note_off_c, 1, 58, 0
1, 15396, Note_off_c, 1, 62, 0
1, 15408, Note_off_c, 1, 70, 0
1, 15420, Note_on_c, 1, 64, 127
1, 15420, Note_on_c, 1, 60, 127
1, 15420, Note_on_c, 1, 58, 127
1, 15468, Note_off_c, 1, 64, 0
1, 15480, Note_on_c, 1, 67, 127
1, 15528, Note_off_c, 1, 67, 0
1, 15540, Note_on_c, 1, 69, 127
1, 15588, Note_off_c, 1, 69, 0
1, 15600, Note_on_c, 1, 70, 127
1, 15612, Note_off_c, 1, 60, 0
1, 15648, Note_off_c, 1, 70, 0
1, 15660, Note_on_c, 1, 72, 127
1, 15780, Note_on_c, 1, 62, 127
1, 15804, Note_off_c, 1, 58, 0
1, 15828, Note_off_c, 1, 62, 0
1, 15900, Note_on_c, 1, 57, 127
1, 15900, Note_on_c, 1, 65, 127
1, 15948, Note_off_c, 1, 72, 0
1, 15996, Note_off_c, 1, 57, 0
1, 16080, Note_on_c, 1, 74, 127
1, 16128, Note_off_c, 1, 74, 0
1, 16140, Note_on_c, 1, 55, 127
1, 16188, Note_off_c, 1, 65, 0
1, 16236, Note_off_c, 1, 55, 0
1, 16380, Note_on_c, 1, 69, 127
1, 16380, Note_on_c, 1, 65, 127
1, 16380, Note_on_c, 1, 53, 127
1, 16428, Note_off_c, 1, 69, 0
1, 16440, Note_on_c, 1, 72, 127
1, 16476, Note_off_c, 1, 53, 0
1, 16488, Note_off_c, 1, 72, 0
1, 16500, Note_on_c, 1, 74, 127
1, 16500, Note_on_c, 1, 52, 127
1, 16548, Note_off_c, 1, 74, 0
1, 16560, Note_on_c, 1, 76, 127
1, 16572, Note_off_c, 1, 65, 0
1, 16596, Note_off_c, 1, 52, 0
1, 16608, Note_off_c, 1, 76, 0
1, 16620, Note_on_c, 1, 77, 127
1, 16620, Note_on_c, 1, 50, 127
1, 16680, Note_on_c, 1, 69, 127
1, 16716, Note_off_c, 1, 50, 0
1, 16728, Note_off_c, 1, 69, 0
1, 16740, Note_on_c, 1, 71, 127
1, 16740, Note_on_c, 1, 48, 127
1, 16788, Note_off_c, 1, 71, 0
1, 16800, Note_on_c, 1, 72, 127
1, 16836, Note_off_c, 1, 48, 0
1, 16848, Note_off_c, 1, 72, 0
1, 16860, Note_on_c, 1, 74, 127
1, 16860, Note_on_c, 1, 47, 127
1, 16908, Note_off_c, 1, 77, 0
1, 16908, Note_off_c, 1, 47, 0
1, 16956, Note_off_c, 1, 74, 0
1, 16980, Note_on_c, 1, 76, 127
1, 16980, Note_on_c, 1, 72, 127
1, 16980, Note_on_c, 1, 52, 127
1, 17028, Note_off_c, 1, 52, 0
1, 17040, Note_on_c, 1, 53, 127
1, 17076, Note_off_c, 1, 76, 0
1, 17076, Note_off_c, 1, 72, 0
1, 17088, Note_off_c, 1, 53, 0
1, 17100, Note_on_c, 1, 74, 127
1, 17100, Note_on_c, 1, 71, 127
1, 17100, Note_on_c, 1, 55, 127
1, 17148, Note_off_c, 1, 74, 0
1, 17160, Note_on_c, 1, 79, 127
1, 17196, Note_off_c, 1, 55, 0
1, 17208, Note_off_c, 1, 79, 0
1, 17220, Note_on_c, 1, 77, 127
1, 17220, Note_on_c, 1, 43, 127
1, 17268, Note_off_c, 1, 77, 0
1, 17292, Note_off_c, 1, 71, 0
1, 17316, Note_off_c, 1, 43, 0
1, 17340, Note_on_c, 1, 72, 127
1, 17340, Note_on_c, 1, 76, 127
1, 17340, Note_on_c, 1, 48, 127
1, 17372, Note_off_c, 1, 48, 0
1, 17380, Note_on_c, 1, 50, 127
1, 17388, Note_off_c, 1, 72, 0
1, 17400, Note_on_c, 1, 67, 127
1, 17412, Note_off_c, 1, 50, 0
1, 17420, Note_on_c, 1, 52, 127
1, 17448, Note_off_c, 1, 67, 0
1, 17452, Note_off_c, 1, 52, 0
1, 17460, Note_on_c, 1, 69, 127
1, 17508, Note_off_c, 1, 69, 0
1, 17520, Note_on_c, 1, 71, 127
1, 17568, Note_off_c, 1, 71, 0
1, 17580, Note_on_c, 1, 45, 127
1, 17612, Note_off_c, 1, 45, 0
1, 17620, Note_on_c, 1, 47, 127
1, 17628, Note_off_c, 1, 76, 0
1, 17652, Note_off_c, 1, 47, 0
1, 17700, Note_on_c, 1, 77, 127
1, 17748, Note_off_c, 1, 77, 0
1, 17760, Note_on_c, 1, 79, 127
1, 17808, Note_off_c, 1, 79, 0
1, 17820, Note_on_c, 1, 81, 127
1, 17820, Note_on_c, 1, 41, 127
1, 17852, Note_off_c, 1, 81, 0
1, 17860, Note_on_c, 1, 83, 127
1, 17892, Note_off_c, 1, 83, 0
1, 17900, Note_on_c, 1, 84, 127
1, 17916, Note_off_c, 1, 41, 0
1, 17932, Note_off_c, 1, 84, 0
1, 17940, Note_on_c, 1, 57, 127
1, 18036, Note_off_c, 1, 57, 0
1, 18180, Note_on_c, 1, 53, 127
1, 18276, Note_off_c, 1, 53, 0
1, 18300, Note_on_c, 1, 74, 127
1, 18540, Note_on_c, 1, 43, 127
1, 18572, Note_off_c, 1, 43, 0
1, 18588, Note_off_c, 1, 74, 0
1, 18780, Note_on_c, 1, 40, 127
1, 18876, Note_off_c, 1, 40, 0
1, 18900, Note_on_c, 1, 55, 127
1, 18996, Note_off_c, 1, 55, 0
1, 19500, Note_on_c, 1, 42, 127
1, 19532, Note_off_c, 1, 42, 0
1, 19560, Note_on_c, 1, 75, 127
1, 19608, Note_off_c, 1, 75, 0
1, 19740, Note_on_c, 1, 78, 127
1, 19740, Note_on_c, 1, 38, 127
1, 19772, Note_off_c, 1, 78, 0
1, 19836, Note_off_c, 1, 38, 0
1, 20220, Note_on_c, 1, 71, 127
1, 20220, Note_on_c, 1, 67, 127
1, 20220, Note_on_c, 1, 43, 127
1, 20252, Note_off_c, 1, 71, 0
1, 20260, Note_on_c, 1, 72, 127
1, 20292, Note_off_c, 1, 72, 0
1, 20300, Note_on_c, 1, 74, 127
1, 20332, Note_off_c, 1, 74, 0
1, 20412, Note_off_c, 1, 67, 0
1, 20412, Note_off_c, 1, 43, 0
1, 20420, Note_on_c, 1, 74, 127
1, 20452, Note_off_c, 1, 74, 0
1, 20460, Note_on_c, 1, 67, 127
1, 20492, Note_off_c, 1, 67, 0
1, 20500, Note_on_c, 1, 69, 127
1, 20532, Note_off_c, 1, 69, 0
1, 20540, Note_on_c, 1, 71, 127
1, 20580, Note_on_c, 1, 65, 127
1, 20580, Note_on_c, 1, 55, 127
1, 20620, Note_off_c, 1, 65, 0
1, 20620, Note_on_c, 1, 67, 127
1, 20660, Note_off_c, 1, 67, 0
1, 20660, Note_on_c, 1, 68, 127
1, 20676, Note_off_c, 1, 71, 0
1, 20676, Note_off_c, 1, 55, 0
1, 20700, Note_off_c, 1, 68, 0
1, 20700, Note_on_c, 1, 72, 127
1, 20700, Note_on_c, 1, 63, 127
1, 20700, Note_on_c, 1, 56, 127
1, 20748, Note_off_c, 1, 56, 0
1, 20796, Note_off_c, 1, 72, 0
1, 20796, Note_off_c, 1, 63, 0
1, 20820, Note_on_c, 1, 75, 127
1, 20820, Note_on_c, 1, 54, 127
1, 20868, Note_off_c, 1, 54, 0
1, 20880, Note_on_c, 1, 55, 127
1, 20916, Note_off_c, 1, 75, 0
1, 20928, Note_off_c, 1, 55, 0
1, 20940, Note_on_c, 1, 68, 127
1, 20940, Note_on_c, 1, 48, 127
1, 20988, Note_off_c, 1, 48, 0
1, 21000, Note_on_c, 1, 55, 127
1, 21036, Note_off_c, 1, 68, 0
1, 21048, Note_off_c, 1, 55, 0
1, 21060, Note_on_c, 1, 72, 127
1, 21060, Note_on_c, 1, 54, 127
1, 21108, Note_off_c, 1, 54, 0
1, 21120, Note_on_c, 1, 55, 127
1, 21156, Note_off_c, 1, 72, 0
1, 21168, Note_off_c, 1, 55, 0
1, 21180, Note_on_c, 1, 66, 127
1, 21180, Note_on_c, 1, 57, 127
1, 21228, Note_off_c, 1, 57, 0
1, 21240, Note_on_c, 1, 55, 127
1, 21276, Note_off_c, 1, 66, 0
1, 21288, Note_off_c, 1, 55, 0
1, 21300, Note_on_c, 1, 69, 127
1, 21300, Note_on_c, 1, 54, 127
1, 21348, Note_off_c, 1, 54, 0
1, 21360, Note_on_c, 1, 55, 127
1, 21396, Note_off_c, 1, 69, 0
1, 21408, Note_off_c, 1, 55, 0
1, 21420, Note_on_c, 1, 62, 127
1, 21420, Note_on_c, 1, 48, 127
1, 21468, Note_off_c, 1, 48, 0
1, 21480, Note_on_c, 1, 51, 127
1, 21516, Note_off_c, 1, 62, 0
1, 21528, Note_off_c, 1, 51, 0
1, 21540, Note_on_c, 1, 66, 127
1, 21540, Note_on_c, 1, 50, 127
1, 21588, Note_off_c, 1, 50, 0
1, 21600, Note_on_c, 1, 48, 127
1, 21636, Note_off_c, 1, 66, 0
1, 21648, Note_off_c, 1, 48, 0
1, 21660, Note_on_c, 1, 59, 127
1, 21660, Note_on_c, 1, 53, 127
1, 21708, Note_off_c, 1, 59, 0
1, 21720, Note_on_c, 1, 62, 127
1, 21768, Note_off_c, 1, 62, 0
1, 21780, Note_on_c, 1, 67, 127
1, 21828, Note_off_c, 1, 67, 0
1, 21900, Note_on_c, 1, 60, 127
1, 21948, Note_off_c, 1, 53, 0
1, 21948, Note_off_c, 1, 60, 0
1, 21960, Note_on_c, 1, 69, 127
1, 21960, Note_on_c, 1, 53, 127
1, 22008, Note_off_c, 1, 69, 0
1, 22008, Note_off_c, 1, 53, 0
1, 22020, Note_on_c, 1, 62, 127
1, 22020, Note_on_c, 1, 52, 127
1, 22068, Note_off_c, 1, 62, 0
1, 22068, Note_off_c, 1, 52, 0
1, 22080, Note_on_c, 1, 71, 127
1, 22080, Note_on_c, 1, 50, 127
1, 22128, Note_off_c, 1, 71, 0
1, 22128, Note_off_c, 1, 50, 0
1, 22140, Note_on_c, 1, 64, 127
1, 22140, Note_on_c, 1, 48, 127
1, 22188, Note_off_c, 1, 64, 0
1, 22188, Note_off_c, 1, 48, 0
1, 22200, Note_on_c, 1, 67, 127
1, 22200, Note_on_c, 1, 52, 127
1, 22248, Note_off_c, 1, 67, 0
1, 22248, Note_off_c, 1, 52, 0
1, 22260, Note_on_c, 1, 72, 127
1, 22260, Note_on_c, 1, 57, 127
1, 22308, Note_off_c, 1, 72, 0
1, 22308, Note_off_c, 1, 57, 0
1, 22320, Note_on_c, 1, 64, 127
1, 22320, Note_on_c, 1, 53, 127
1, 22368, Note_off_c, 1, 64, 0
1, 22368, Note_off_c, 1, 53, 0
1, 22380, Note_on_c, 1, 62, 127
1, 22380, Note_on_c, 1, 55, 127
1, 22440, Note_on_c, 1, 72, 127
1, 22476, Note_off_c, 1, 62, 0
1, 22476, Note_off_c, 1, 55, 0
1, 22488, Note_off_c, 1, 72, 0
1, 22500, Note_on_c, 1, 65, 127
1, 22500, Note_on_c, 1, 43, 127
1, 22560, Note_on_c, 1, 71, 127
1, 22596, Note_off_c, 1, 65, 0
1, 22596, Note_off_c, 1, 43, 0
1, 22608, Note_off_c, 1, 71, 0
1, 22620, Note_on_c, 1, 64, 127
1, 22620, Note_on_c, 1, 72, 127
1, 22620, Note_on_c, 1, 67, 127
1, 22620, Note_on_c, 1, 48, 127
1, 22680, Note_on_c, 1, 36, 127
1, 22740, Note_on_c, 1, 40, 127
1, 22788, Note_off_c, 1, 40, 0
1, 22800, Note_on_c, 1, 43, 127
1, 22812, Note_off_c, 1, 48, 0
1, 22848, Note_off_c, 1, 43, 0
1, 22908, Note_off_c, 1, 64, 0
1, 22908, Note_off_c, 1, 72, 0
1, 22908, Note_off_c, 1, 67, 0
1, 22956, Note_off_c, 1, 36, 0
1, 23040, Note_on_c, 1, 79, 127
1, 23088, Note_off_c, 1, 79, 0
1, 23100, Note_on_c, 1, 76, 127
1, 23100, Note_on_c, 1, 79, 127
1, 23100, Note_on_c, 1, 72, 127
1, 23100, Note_on_c, 1, 48, 127
1, 23196, Note_off_c, 1, 48, 0
1, 23250, Note_on_c, 1, 43, 127
1, 23274, Note_off_c, 1, 43, 0
1, 23280, Note_on_c, 1, 45, 127
1, 23292, Note_off_c, 1, 76, 0
1, 23292, Note_off_c, 1, 79, 0
1, 23292, Note_off_c, 1, 72, 0
1, 23304, Note_off_c, 1, 45, 0
1, 23310, Note_on_c, 1, 47, 127
1, 23334, Note_off_c, 1, 47, 0
1, 23340, Note_on_c, 1, 48, 127
1, 23388, Note_off_c, 1, 48, 0
1, 23400, Note_on_c, 1, 67, 127
1, 23400, Note_on_c, 1, 47, 127
1, 23448, Note_off_c, 1, 67, 0
1, 23448, Note_off_c, 1, 47, 0
1, 23460, Note_on_c, 1, 69, 127
1, 23460, Note_on_c, 1, 48, 127
1, 23508, Note_off_c, 1, 69, 0
1, 23508, Note_off_c, 1, 48, 0
1, 23520, Note_on_c, 1, 71, 127
1, 23520, Note_on_c, 1, 50, 127
1, 23568, Note_off_c, 1, 71, 0
1, 23568, Note_off_c, 1, 50, 0
1, 23580, Note_on_c, 1, 72, 127
1, 23580, Note_on_c, 1, 52, 127
1, 23612, Note_off_c, 1, 52, 0
1, 23620, Note_on_c, 1, 50, 127
1, 23652, Note_off_c, 1, 50, 0
1, 23660, Note_on_c, 1, 48, 127
1, 23676, Note_off_c, 1, 72, 0
1, 23692, Note_off_c, 1, 48, 0
1, 23700, Note_on_c, 1, 67, 127
1, 23700, Note_on_c, 1, 52, 127
1, 23732, Note_off_c, 1, 52, 0
1, 23740, Note_on_c, 1, 50, 127
1, 23772, Note_off_c, 1, 50, 0
1, 23780, Note_on_c, 1, 48, 127
1, 23796, Note_off_c, 1, 67, 0
1, 23812, Note_off_c, 1, 48, 0
1, 23820, Note_on_c, 1, 76, 127
1, 23820, Note_on_c, 1, 55, 127
1, 23852, Note_off_c, 1, 55, 0
1, 23860, Note_on_c, 1, 53, 127
1, 23892, Note_off_c, 1, 53, 0
1, 23900, Note_on_c, 1, 52, 127
1, 23916, Note_off_c, 1, 76, 0
1, 23932, Note_off_c, 1, 52, 0
1, 23940, Note_on_c, 1, 72, 127
1, 23940, Note_on_c, 1, 55, 127
1, 23972, Note_off_c, 1, 55, 0
1, 23980, Note_on_c, 1, 53, 127
1, 24012, Note_off_c, 1, 53, 0
1, 24020, Note_on_c, 1, 52, 127
1, 24036, Note_off_c, 1, 72, 0
1, 24052, Note_off_c, 1, 52, 0
1, 24060, Note_on_c, 1, 79, 127
1, 24060, Note_on_c, 1, 60, 127
1, 24092, Note_off_c, 1, 79, 0
1, 24100, Note_on_c, 1, 77, 127
1, 24132, Note_off_c, 1, 77, 0
1, 24140, Note_on_c, 1, 76, 127
1, 24156, Note_off_c, 1, 60, 0
1, 24172, Note_off_c, 1, 76, 0
1, 24180, Note_on_c, 1, 79, 127
1, 24180, Note_on_c, 1, 55, 127
1, 24212, Note_off_c, 1, 79, 0
1, 24220, Note_on_c, 1, 77, 127
1, 24252, Note_off_c, 1, 77, 0
1, 24260, Note_on_c, 1, 76, 127
1, 24276, Note_off_c, 1, 55, 0
1, 24292, Note_off_c, 1, 76, 0
1, 24300, Note_on_c, 1, 84, 127
1, 24300, Note_on_c, 1, 55, 127
1, 24348, Note_off_c, 1, 84, 0
1, 24360, Note_on_c, 1, 79, 127
1, 24408, Note_off_c, 1, 79, 0
1, 24435, Note_on_c, 1, 77, 127
1, 24444, Note_off_c, 1, 55, 0
1, 24450, Note_off_c, 1, 77, 0
1, 24450, Note_on_c, 1, 59, 127
1, 24474, Note_off_c, 1, 59, 0
1, 24480, Note_on_c, 1, 76, 127
1, 24480, Note_on_c, 1, 57, 127
1, 24504, Note_off_c, 1, 57, 0
1, 24528, Note_off_c, 1, 76, 0
1, 24540, Note_on_c, 1, 81, 127
1, 24540, Note_on_c, 1, 53, 127
1, 24572, Note_off_c, 1, 81, 0
1, 24580, Note_on_c, 1, 79, 127
1, 24612, Note_off_c, 1, 79, 0
1, 24620, Note_on_c, 1, 77, 127
1, 24636, Note_off_c, 1, 53, 0
1, 24652, Note_off_c, 1, 77, 0
1, 24660, Note_on_c, 1, 77, 127
1, 24660, Note_on_c, 1, 53, 127
1, 24692, Note_off_c, 1, 77, 0
1, 24700, Note_on_c, 1, 76, 127
1, 24732, Note_off_c, 1, 76, 0
1, 24740, Note_on_c, 1, 74, 127
1, 24756, Note_off_c, 1, 53, 0
1, 24772, Note_off_c, 1, 74, 0
1, 24780, Note_on_c, 1, 83, 127
1, 24780, Note_on_c, 1, 53, 127
1, 24828, Note_off_c, 1, 83, 0
1, 24840, Note_on_c, 1, 77, 127
1, 24888, Note_off_c, 1, 77, 0
1, 24915, Note_on_c, 1, 76, 127
1, 24924, Note_off_c, 1, 53, 0
1, 24927, Note_off_c, 1, 76, 0
1, 24930, Note_on_c, 1, 77, 127
1, 24930, Note_on_c, 1, 57, 127
1, 24942, Note_off_c, 1, 77, 0
1, 24945, Note_on_c, 1, 76, 127
1, 24954, Note_off_c, 1, 57, 0
1, 24957, Note_off_c, 1, 76, 0
1, 24960, Note_on_c, 1, 74, 127
1, 24960, Note_on_c, 1, 55, 127
1, 24984, Note_off_c, 1, 55, 0
1, 24990, Note_on_c, 1, 53, 127
1, 25008, Note_off_c, 1, 74, 0
1, 25014, Note_off_c, 1, 53, 0
1, 25020, Note_on_c, 1, 72, 127
1, 25020, Note_on_c, 1, 52, 127
1, 25080, Note_on_c, 1, 55, 127
1, 25116, Note_off_c, 1, 72, 0
1, 25128, Note_off_c, 1, 55, 0
1, 25140, Note_on_c, 1, 79, 127
1, 25140, Note_on_c, 1, 57, 127
1, 25188, Note_off_c, 1, 57, 0
1, 25200, Note_on_c, 1, 59, 127
1, 25212, Note_off_c, 1, 52, 0
1, 25236, Note_off_c, 1, 79, 0
1, 25248, Note_off_c, 1, 59, 0
1, 25260, Note_on_c, 1, 79, 127
1, 25260, Note_on_c, 1, 60, 127
1, 25320, Note_on_c, 1, 55, 127
1, 25368, Note_off_c, 1, 55, 0
1, 25380, Note_on_c, 1, 53, 127
1, 25404, Note_off_c, 1, 79, 0
1, 25410, Note_on_c, 1, 82, 127
1, 25428, Note_off_c, 1, 53, 0
1, 25434, Note_off_c, 1, 82, 0
1, 25440, Note_on_c, 1, 81, 127
1, 25440, Note_on_c, 1, 52, 127
1, 25464, Note_off_c, 1, 81, 0
1, 25488, Note_off_c, 1, 52, 0
1, 25500, Note_on_c, 1, 77, 127
1, 25500, Note_on_c, 1, 50, 127
1, 25548, Note_off_c, 1, 60, 0
1, 25596, Note_off_c, 1, 77, 0
1, 25620, Note_on_c, 1, 59, 127
1, 25668, Note_off_c, 1, 59, 0
1, 25680, Note_on_c, 1, 57, 127
1, 25692, Note_off_c, 1, 50, 0
1, 25728, Note_off_c, 1, 57, 0
1, 25740, Note_on_c, 1, 77, 127
1, 25740, Note_on_c, 1, 59, 127
1, 25800, Note_on_c, 1, 55, 127
1, 25848, Note_off_c, 1, 55, 0
1, 25860, Note_on_c, 1, 53, 127
1, 25884, Note_off_c, 1, 77, 0
1, 25890, Note_on_c, 1, 81, 127
1, 25908, Note_off_c, 1, 53, 0
1, 25914, Note_off_c, 1, 81, 0
1, 25920, Note_on_c, 1, 79, 127
1, 25932, Note_off_c, 1, 59, 0
1, 25944, Note_off_c, 1, 79, 0
1, 25980, Note_on_c, 1, 76, 127
1, 25980, Note_on_c, 1, 48, 127
1, 26028, Note_off_c, 1, 76, 0
1, 26040, Note_on_c, 1, 74, 127
1, 26088, Note_off_c, 1, 74, 0
1, 26100, Note_on_c, 1, 55, 127
1, 26160, Note_on_c, 1, 77, 127
1, 26172, Note_off_c, 1, 48, 0
1, 26196, Note_off_c, 1, 55, 0
1, 26208, Note_off_c, 1, 77, 0
1, 26220, Note_on_c, 1, 76, 127
1, 26220, Note_on_c, 1, 60, 127
1, 26268, Note_off_c, 1, 76, 0
1, 26280, Note_on_c, 1, 79, 127
1, 26328, Note_off_c, 1, 79, 0
1, 26340, Note_on_c, 1, 78, 127
1, 26388, Note_off_c, 1, 78, 0
1, 26508, Note_off_c, 1, 60, 0
1, 26520, Note_on_c, 1, 57, 127
1, 26568, Note_off_c, 1, 57, 0
1, 26580, Note_on_c, 1, 74, 127
1, 26580, Note_on_c, 1, 59, 127
1, 26628, Note_off_c, 1, 59, 0
1, 26640, Note_on_c, 1, 60, 127
1, 26676, Note_off_c, 1, 74, 0
1, 26688, Note_off_c, 1, 60, 0
1, 26700, Note_on_c, 1, 79, 127
1, 26700, Note_on_c, 1, 59, 127
1, 26748, Note_off_c, 1, 59, 0
1, 26760, Note_on_c, 1, 62, 127
1, 26808, Note_off_c, 1, 62, 0
1, 26820, Note_on_c, 1, 61, 127
1, 26868, Note_off_c, 1, 61, 0
1, 26988, Note_off_c, 1, 79, 0
1, 27000, Note_on_c, 1, 67, 127
1, 27000, Note_on_c, 1, 76, 127
1, 27048, Note_off_c, 1, 67, 0
1, 27048, Note_off_c, 1, 76, 0
1, 27060, Note_on_c, 1, 69, 127
1, 27060, Note_on_c, 1, 77, 127
1, 27108, Note_off_c, 1, 69, 0
1, 27108, Note_off_c, 1, 77, 0
1, 27120, Note_on_c, 1, 70, 127
1, 27168, Note_off_c, 1, 70, 0
1, 27180, Note_on_c, 1, 69, 127
1, 27180, Note_on_c, 1, 77, 127
1, 27180, Note_on_c, 1, 62, 127
1, 27228, Note_off_c, 1, 69, 0
1, 27228, Note_off_c, 1, 77, 0
1, 27240, Note_on_c, 1, 72, 127
1, 27240, Note_on_c, 1, 81, 127
1, 27288, Note_off_c, 1, 72, 0
1, 27288, Note_off_c, 1, 81, 0
1, 27300, Note_on_c, 1, 79, 127
1, 27300, Note_on_c, 1, 70, 127
1, 27348, Note_off_c, 1, 79, 0
1, 27348, Note_off_c, 1, 70, 0
1, 27420, Note_on_c, 1, 76, 127
1, 27420, Note_on_c, 1, 67, 127
1, 27468, Note_off_c, 1, 76, 0
1, 27468, Note_off_c, 1, 67, 0
1, 27480, Note_on_c, 1, 74, 127
1, 27480, Note_on_c, 1, 65, 127
1, 27528, Note_off_c, 1, 74, 0
1, 27528, Note_off_c, 1, 65, 0
1, 27564, Note_off_c, 1, 62, 0
1, 27600, Note_on_c, 1, 69, 127
1, 27600, Note_on_c, 1, 77, 127
1, 27648, Note_off_c, 1, 69, 0
1, 27648, Note_off_c, 1, 77, 0
1, 27660, Note_on_c, 1, 67, 127
1, 27660, Note_on_c, 1, 76, 127
1, 27660, Note_on_c, 1, 61, 127
1, 27708, Note_off_c, 1, 67, 0
1, 27708, Note_off_c, 1, 76, 0
1, 27720, Note_on_c, 1, 79, 127
1, 27720, Note_on_c, 1, 70, 127
1, 27768, Note_off_c, 1, 79, 0
1, 27768, Note_off_c, 1, 70, 0
1, 27780, Note_on_c, 1, 77, 127
1, 27780, Note_on_c, 1, 69, 127
1, 27828, Note_off_c, 1, 77, 0
1, 27828, Note_off_c, 1, 69, 0
1, 27852, Note_off_c, 1, 61, 0
1, 27900, Note_on_c, 1, 65, 127
1, 27900, Note_on_c, 1, 74, 127
1, 27900, Note_on_c, 1, 62, 127
1, 27996, Note_off_c, 1, 62, 0
1, 28020, Note_on_c, 1, 55, 127
1, 28044, Note_off_c, 1, 65, 0
1, 28044, Note_off_c, 1, 74, 0
1, 28080, Note_on_c, 1, 67, 127
1, 28080, Note_on_c, 1, 76, 127
1, 28116, Note_off_c, 1, 55, 0
1, 28128, Note_off_c, 1, 67, 0
1, 28128, Note_off_c, 1, 76, 0
1, 28140, Note_on_c, 1, 73, 127
1, 28140, Note_on_c, 1, 64, 127
1, 28140, Note_on_c, 1, 57, 127
1, 28236, Note_off_c, 1, 57, 0
1, 28260, Note_on_c, 1, 45, 127
1, 28284, Note_off_c, 1, 73, 0
1, 28320, Note_on_c, 1, 74, 127
1, 28332, Note_off_c, 1, 64, 0
1, 28356, Note_off_c, 1, 45, 0
1, 28368, Note_off_c, 1, 74, 0
1, 28380, Note_on_c, 1, 74, 127
1, 28380, Note_on_c, 1, 65, 127
1, 28380, Note_on_c, 1, 38, 127
1, 28476, Note_off_c, 1, 74, 0
1, 28476, Note_off_c, 1, 38, 0
1, 28500, Note_on_c, 1, 69, 127
1, 28500, Note_on_c, 1, 50, 127
1, 28524, Note_off_c, 1, 69, 0
1, 28530, Note_on_c, 1, 70, 127
1, 28554, Note_off_c, 1, 70, 0
1, 28596, Note_off_c, 1, 50, 0
1, 28620, Note_on_c, 1, 72, 127
1, 28632, Note_off_c, 1, 72, 0
1, 28740, Note_on_c, 1, 48, 127
1, 28788, Note_off_c, 1, 48, 0
1, 28800, Note_on_c, 1, 47, 127
1, 28848, Note_off_c, 1, 47, 0
1, 28860, Note_on_c, 1, 45, 127
1, 28920, Note_on_c, 1, 75, 127
1, 28956, Note_off_c, 1, 45, 0
1, 28968, Note_off_c, 1, 75, 0
1, 28980, Note_on_c, 1, 57, 127
1, 29004, Note_off_c, 1, 57, 0
1, 29010, Note_on_c, 1, 58, 127
1, 29034, Note_off_c, 1, 58, 0
1, 29100, Note_on_c, 1, 60, 127
1, 29112, Note_off_c, 1, 60, 0
1, 29244, Note_off_c, 1, 65, 0
1, 29340, Note_on_c, 1, 67, 127
1, 29340, Note_on_c, 1, 64, 127
1, 29484, Note_off_c, 1, 67, 0
1, 29685, Note_on_c, 1, 46, 127
1, 29724, Note_off_c, 1, 64, 0
1, 29733, Note_off_c, 1, 46, 0
1, 29820, Note_on_c, 1, 70, 127
1, 29820, Note_on_c, 1, 63, 127
1, 29820, Note_on_c, 1, 43, 127
1, 29868, Note_off_c, 1, 70, 0
1, 29880, Note_on_c, 1, 74, 127
1, 29916, Note_off_c, 1, 43, 0
1, 29928, Note_off_c, 1, 74, 0
1, 29940, Note_on_c, 1, 72, 127
1, 29940, Note_on_c, 1, 55, 127
1, 29964, Note_off_c, 1, 55, 0
1, 29970, Note_on_c, 1, 57, 127
1, 29988, Note_off_c, 1, 72, 0
1, 29994, Note_off_c, 1, 57, 0
1, 30060, Note_on_c, 1, 58, 127
1, 30072, Note_off_c, 1, 58, 0
1, 30120, Note_on_c, 1, 69, 127
1, 30168, Note_off_c, 1, 69, 0
1, 30204, Note_off_c, 1, 63, 0
1, 30300, Note_on_c, 1, 65, 127
1, 30300, Note_on_c, 1, 62, 127
1, 30300, Note_on_c, 1, 58, 127
1, 30348, Note_off_c, 1, 65, 0
1, 30390, Note_on_c, 1, 67, 127
1, 30396, Note_off_c, 1, 62, 0
1, 30396, Note_off_c, 1, 58, 0
1, 30414, Note_off_c, 1, 67, 0
1, 30420, Note_on_c, 1, 69, 127
1, 30420, Note_on_c, 1, 46, 127
1, 30444, Note_off_c, 1, 69, 0
1, 30450, Note_on_c, 1, 67, 127
1, 30474, Note_off_c, 1, 67, 0
1, 30480, Note_on_c, 1, 65, 127
1, 30504, Note_off_c, 1, 65, 0
1, 30516, Note_off_c, 1, 46, 0
1, 30540, Note_on_c, 1, 69, 127
1, 30600, Note_on_c, 1, 53, 127
1, 30612, Note_off_c, 1, 69, 0
1, 30624, Note_off_c, 1, 53, 0
1, 30630, Note_on_c, 1, 70, 127
1, 30630, Note_on_c, 1, 55, 127
1, 30654, Note_off_c, 1, 70, 0
1, 30654, Note_off_c, 1, 55, 0
1, 30660, Note_on_c, 1, 72, 127
1, 30660, Note_on_c, 1, 57, 127
1, 30672, Note_off_c, 1, 72, 0
1, 30675, Note_on_c, 1, 70, 127
1, 30684, Note_off_c, 1, 57, 0
1, 30687, Note_off_c, 1, 70, 0
1, 30690, Note_on_c, 1, 72, 127
1, 30690, Note_on_c, 1, 55, 127
1, 30702, Note_off_c, 1, 72, 0
1, 30705, Note_on_c, 1, 70, 127
1, 30714, Note_off_c, 1, 55, 0
1, 30717, Note_off_c, 1, 70, 0
1, 30720, Note_on_c, 1, 69, 127
1, 30720, Note_on_c, 1, 53, 127
1, 30744, Note_off_c, 1, 69, 0
1, 30744, Note_off_c, 1, 53, 0
1, 30750, Note_on_c, 1, 70, 127
1, 30750, Note_on_c, 1, 55, 127
1, 30774, Note_off_c, 1, 70, 0
1, 30774, Note_off_c, 1, 55, 0
1, 30780, Note_on_c, 1, 72, 127
1, 30780, Note_on_c, 1, 57, 127
1, 30812, Note_off_c, 1, 72, 0
1, 30812, Note_off_c, 1, 57, 0
1, 30820, Note_on_c, 1, 70, 127
1, 30820, Note_on_c, 1, 55, 127
1, 30852, Note_off_c, 1, 70, 0
1, 30852, Note_off_c, 1, 55, 0
1, 30860, Note_on_c, 1, 72, 127
1, 30860, Note_on_c, 1, 57, 127
1, 30892, Note_off_c, 1, 72, 0
1, 30892, Note_off_c, 1, 57, 0
1, 30900, Note_on_c, 1, 74, 127
1, 30900, Note_on_c, 1, 58, 127
1, 30932, Note_off_c, 1, 74, 0
1, 30932, Note_off_c, 1, 58, 0
1, 30940, Note_on_c, 1, 72, 127
1, 30940, Note_on_c, 1, 57, 127
1, 30972, Note_off_c, 1, 72, 0
1, 30972, Note_off_c, 1, 57, 0
1, 30980, Note_on_c, 1, 74, 127
1, 30980, Note_on_c, 1, 58, 127
1, 31012, Note_off_c, 1, 74, 0
1, 31012, Note_off_c, 1, 58, 0
1, 31020, Note_on_c, 1, 76, 127
1, 31020, Note_on_c, 1, 60, 127
1, 31052, Note_off_c, 1, 76, 0
1, 31052, Note_off_c, 1, 60, 0
1, 31060, Note_on_c, 1, 74, 127
1, 31060, Note_on_c, 1, 58, 127
1, 31092, Note_off_c, 1, 74, 0
1, 31092, Note_off_c, 1, 58, 0
1, 31100, Note_on_c, 1, 76, 127
1, 31100, Note_on_c, 1, 60, 127
1, 31132, Note_off_c, 1, 76, 0
1, 31132, Note_off_c, 1, 60, 0
1, 31140, Note_on_c, 1, 77, 127
1, 31140, Note_on_c, 1, 62, 127
1, 31172, Note_off_c, 1, 77, 0
1, 31172, Note_off_c, 1, 62, 0
1, 31180, Note_on_c, 1, 76, 127
1, 31180, Note_on_c, 1, 60, 127
1, 31212, Note_off_c, 1, 76, 0
1, 31212, Note_off_c, 1, 60, 0
1, 31220, Note_on_c, 1, 77, 127
1, 31220, Note_on_c, 1, 62, 127
1, 31252, Note_off_c, 1, 77, 0
1, 31252, Note_off_c, 1, 62, 0
1, 31260, Note_on_c, 1, 79, 127
1, 31260, Note_on_c, 1, 64, 127
1, 31292, Note_off_c, 1, 79, 0
1, 31292, Note_off_c, 1, 64, 0
1, 31300, Note_on_c, 1, 77, 127
1, 31300, Note_on_c, 1, 62, 127
1, 31332, Note_off_c, 1, 77, 0
1, 31332, Note_off_c, 1, 62, 0
1, 31340, Note_on_c, 1, 79, 127
1, 31340, Note_on_c, 1, 64, 127
1, 31372, Note_off_c, 1, 79, 0
1, 31372, Note_off_c, 1, 64, 0
1, 31380, Note_on_c, 1, 77, 127
1, 31380, Note_on_c, 1, 81, 127
1, 31380, Note_on_c, 1, 65, 127
1, 31428, Note_off_c, 1, 77, 0
1, 31428, Note_off_c, 1, 65, 0
1, 31440, Note_on_c, 1, 72, 127
1, 31440, Note_on_c, 1, 57, 127
1, 31488, Note_off_c, 1, 72, 0
1, 31488, Note_off_c, 1, 57, 0
1, 31500, Note_on_c, 1, 74, 127
1, 31500, Note_on_c, 1, 58, 127
1, 31548, Note_off_c, 1, 81, 0
1, 31620, Note_on_c, 1, 79, 127
1, 31668, Note_off_c, 1, 79, 0
1, 31692, Note_off_c, 1, 74, 0
1, 31692, Note_off_c, 1, 58, 0
1, 31740, Note_on_c, 1, 76, 127
1, 31740, Note_on_c, 1, 72, 127
1, 31740, Note_on_c, 1, 60, 127
1, 31788, Note_off_c, 1, 76, 0
1, 31800, Note_on_c, 1, 77, 127
1, 31836, Note_off_c, 1, 72, 0
1, 31848, Note_off_c, 1, 77, 0
1, 31920, Note_on_c, 1, 74, 127
1, 31968, Note_off_c, 1, 74, 0
1, 32028, Note_off_c, 1, 60, 0
1, 32040, Note_on_c, 1, 58, 127
1, 32088, Note_off_c, 1, 58, 0
1, 32100, Note_on_c, 1, 57, 127
1, 32148, Note_off_c, 1, 57, 0
1, 32160, Note_on_c, 1, 72, 127
1, 32160, Note_on_c, 1, 55, 127
1, 32208, Note_off_c, 1, 72, 0
1, 32208, Note_off_c, 1, 55, 0
1, 32220, Note_on_c, 1, 73, 127
1, 32220, Note_on_c, 1, 53, 127
1, 32268, Note_off_c, 1, 73, 0
1, 32280, Note_on_c, 1, 72, 127
1, 32316, Note_off_c, 1, 53, 0
1, 32328, Note_off_c, 1, 72, 0
1, 32340, Note_on_c, 1, 71, 127
1, 32340, Note_on_c, 1, 56, 127
1, 32388, Note_off_c, 1, 71, 0
1, 32400, Note_on_c, 1, 72, 127
1, 32436, Note_off_c, 1, 56, 0
1, 32448, Note_off_c, 1, 72, 0
1, 32460, Note_on_c, 1, 65, 127
1, 32460, Note_on_c, 1, 50, 127
1, 32508, Note_off_c, 1, 65, 0
1, 32520, Note_on_c, 1, 72, 127
1, 32556, Note_off_c, 1, 50, 0
1, 32568, Note_off_c, 1, 72, 0
1, 32580, Note_on_c, 1, 71, 127
1, 32580, Note_on_c, 1, 53, 127
1, 32628, Note_off_c, 1, 71, 0
1, 32640, Note_on_c, 1, 72, 127
1, 32676, Note_off_c, 1, 53, 0
1, 32688, Note_off_c, 1, 72, 0
1, 32700, Note_on_c, 1, 74, 127
1, 32700, Note_on_c, 1, 47, 127
1, 32748, Note_off_c, 1, 74, 0
1, 32760, Note_on_c, 1, 72, 127
1, 32796, Note_off_c, 1, 47, 0
1, 32808, Note_off_c, 1, 72, 0
1, 32820, Note_on_c, 1, 71, 127
1, 32820, Note_on_c, 1, 50, 127
1, 32868, Note_off_c, 1, 71, 0
1, 32880, Note_on_c, 1, 72, 127
1, 32916, Note_off_c, 1, 50, 0
1, 32928, Note_off_c, 1, 72, 0
1, 32940, Note_on_c, 1, 65, 127
1, 32940, Note_on_c, 1, 43, 127
1, 32988, Note_off_c, 1, 65, 0
1, 33000, Note_on_c, 1, 68, 127
1, 33036, Note_off_c, 1, 43, 0
1, 33048, Note_off_c, 1, 68, 0
1, 33060, Note_on_c, 1, 67, 127
1, 33060, Note_on_c, 1, 46, 127
1, 33108, Note_off_c, 1, 67, 0
1, 33120, Note_on_c, 1, 65, 127
1, 33156, Note_off_c, 1, 46, 0
1, 33168, Note_off_c, 1, 65, 0
1, 33180, Note_on_c, 1, 70, 127
1, 33180, Note_on_c, 1, 40, 127
1, 33228, Note_off_c, 1, 70, 0
1, 33240, Note_on_c, 1, 73, 127
1, 33288, Note_off_c, 1, 73, 0
1, 33360, Note_on_c, 1, 67, 127
1, 33372, Note_off_c, 1, 40, 0
1, 33408, Note_off_c, 1, 67, 0
1, 33420, Note_on_c, 1, 64, 127
1, 33468, Note_off_c, 1, 64, 0
1, 33480, Note_on_c, 1, 67, 127
1, 33480, Note_on_c, 1, 58, 127
1, 33528, Note_off_c, 1, 67, 0
1, 33528, Note_off_c, 1, 58, 0
1, 33540, Note_on_c, 1, 72, 127
1, 33540, Note_on_c, 1, 57, 127
1, 33588, Note_off_c, 1, 72, 0
1, 33588, Note_off_c, 1, 57, 0
1, 33600, Note_on_c, 1, 70, 127
1, 33600, Note_on_c, 1, 55, 127
1, 33648, Note_off_c, 1, 70, 0
1, 33648, Note_off_c, 1, 55, 0
1, 33660, Note_on_c, 1, 69, 127
1, 33660, Note_on_c, 1, 53, 127
1, 33708, Note_off_c, 1, 69, 0
1, 33708, Note_off_c, 1, 53, 0
1, 33720, Note_on_c, 1, 72, 127
1, 33720, Note_on_c, 1, 57, 127
1, 33768, Note_off_c, 1, 72, 0
1, 33768, Note_off_c, 1, 57, 0
1, 33780, Note_on_c, 1, 77, 127
1, 33780, Note_on_c, 1, 62, 127
1, 33828, Note_off_c, 1, 77, 0
1, 33828, Note_off_c, 1, 62, 0
1, 33840, Note_on_c, 1, 69, 127
1, 33840, Note_on_c, 1, 58, 127
1, 33888, Note_off_c, 1, 69, 0
1, 33888, Note_off_c, 1, 58, 0
1, 33900, Note_on_c, 1, 67, 127
1, 33900, Note_on_c, 1, 60, 127
1, 33960, Note_on_c, 1, 77, 127
1, 33996, Note_off_c, 1, 60, 0
1, 34008, Note_off_c, 1, 77, 0
1, 34020, Note_off_c, 1, 67, 0
1, 34020, Note_on_c, 1, 70, 127
1, 34020, Note_on_c, 1, 48, 127
1, 34080, Note_on_c, 1, 76, 127
1, 34116, Note_off_c, 1, 48, 0
1, 34128, Note_off_c, 1, 76, 0
1, 34140, Note_off_c, 1, 70, 0
1, 34140, Note_on_c, 1, 69, 127
1, 34140, Note_on_c, 1, 72, 127
1, 34140, Note_on_c, 1, 53, 127
1, 34200, Note_on_c, 1, 41, 127
1, 34260, Note_on_c, 1, 45, 127
1, 34308, Note_off_c, 1, 45, 0
1, 34332, Note_off_c, 1, 53, 0
1, 34428, Note_off_c, 1, 69, 0
1, 34428, Note_off_c, 1, 72, 0
1, 34476, Note_off_c, 1, 41, 0
1, 34560, Note_on_c, 1, 79, 127
1, 34608, Note_off_c, 1, 79, 0
1, 34620, Note_on_c, 1, 76, 127
1, 34620, Note_on_c, 1, 79, 127
1, 34620, Note_on_c, 1, 72, 127
1, 34620, Note_on_c, 1, 48, 127
1, 34716, Note_off_c, 1, 48, 0
1, 34770, Note_on_c, 1, 43, 127
1, 34794, Note_off_c, 1, 43, 0
1, 34800, Note_on_c, 1, 45, 127
1, 34812, Note_off_c, 1, 76, 0
1, 34812, Note_off_c, 1, 79, 0
1, 34812, Note_off_c, 1, 72, 0
1, 34824, Note_off_c, 1, 45, 0
1, 34830, Note_on_c, 1, 47, 127
1, 34854, Note_off_c, 1, 47, 0
1, 34860, Note_on_c, 1, 48, 127
1, 34908, Note_off_c, 1, 48, 0
1, 34920, Note_on_c, 1, 67, 127
1, 34920, Note_on_c, 1, 47, 127
1, 34968, Note_off_c, 1, 67, 0
1, 34968, Note_off_c, 1, 47, 0
1, 34980, Note_on_c, 1, 69, 127
1, 34980, Note_on_c, 1, 48, 127
1, 35028, Note_off_c, 1, 69, 0
1, 35028, Note_off_c, 1, 48, 0
1, 35040, Note_on_c, 1, 71, 127
1, 35040, Note_on_c, 1, 50, 127
1, 35088, Note_off_c, 1, 71, 0
1, 35088, Note_off_c, 1, 50, 0
1, 35100, Note_on_c, 1, 72, 127
1, 35100, Note_on_c, 1, 52, 127
1, 35132, Note_off_c, 1, 52, 0
1, 35140, Note_on_c, 1, 50, 127
1, 35172, Note_off_c, 1, 50, 0
1, 35180, Note_on_c, 1, 48, 127
1, 35196, Note_off_c, 1, 72, 0
1, 35212, Note_off_c, 1, 48, 0
1, 35220, Note_on_c, 1, 67, 127
1, 35220, Note_on_c, 1, 52, 127
1, 35252, Note_off_c, 1, 52, 0
1, 35260, Note_on_c, 1, 50, 127
1, 35292, Note_off_c, 1, 50, 0
1, 35300, Note_on_c, 1, 48, 127
1, 35316, Note_off_c, 1, 67, 0
1, 35332, Note_off_c, 1, 48, 0
1, 35340, Note_on_c, 1, 76, 127
1, 35340, Note_on_c, 1, 55, 127
1, 35372, Note_off_c, 1, 55, 0
1, 35380, Note_on_c, 1, 53, 127
1, 35412, Note_off_c, 1, 53, 0
1, 35420, Note_on_c, 1, 52, 127
1, 35436, Note_off_c, 1, 76, 0
1, 35452, Note_off_c, 1, 52, 0
1, 35460, Note_on_c, 1, 72, 127
1, 35460, Note_on_c, 1, 55, 127
1, 35492, Note_off_c, 1, 55, 0
1, 35500, Note_on_c, 1, 53, 127
1, 35532, Note_off_c, 1, 53, 0
1, 35540, Note_on_c, 1, 52, 127
1, 35556, Note_off_c, 1, 72, 0
1, 35572, Note_off_c, 1, 52, 0
1, 35580, Note_on_c, 1, 79, 127
1, 35580, Note_on_c, 1, 60, 127
1, 35612, Note_off_c, 1, 79, 0
1, 35620, Note_on_c, 1, 77, 127
1, 35652, Note_off_c, 1, 77, 0
1, 35660, Note_on_c, 1, 76, 127
1, 35676, Note_off_c, 1, 60, 0
1, 35692, Note_off_c, 1, 76, 0
1, 35700, Note_on_c, 1, 79, 127
1, 35700, Note_on_c, 1, 55, 127
1, 35732, Note_off_c, 1, 79, 0
1, 35740, Note_on_c, 1, 77, 127
1, 35772, Note_off_c, 1, 77, 0
1, 35780, Note_on_c, 1, 76, 127
1, 35796, Note_off_c, 1, 55, 0
1, 35812, Note_off_c, 1, 76, 0
1, 35820, Note_on_c, 1, 84, 127
1, 35820, Note_on_c, 1, 55, 127
1, 35868, Note_off_c, 1, 84, 0
1, 35880, Note_on_c, 1, 79, 127
1, 35928, Note_off_c, 1, 79, 0
1, 35955, Note_on_c, 1, 77, 127
1, 35964, Note_off_c, 1, 55, 0
1, 35970, Note_off_c, 1, 77, 0
1, 35970, Note_on_c, 1, 59, 127
1, 35994, Note_off_c, 1, 59, 0
1, 36000, Note_on_c, 1, 76, 127
1, 36000, Note_on_c, 1, 57, 127
1, 36024, Note_off_c, 1, 57, 0
1, 36048, Note_off_c, 1, 76, 0
1, 36060, Note_on_c, 1, 81, 127
1, 36060, Note_on_c, 1, 53, 127
1, 36092, Note_off_c, 1, 81, 0
1, 36100, Note_on_c, 1, 79, 127
1, 36132, Note_off_c, 1, 79, 0
1, 36140, Note_on_c, 1, 77, 127
1, 36156, Note_off_c, 1, 53, 0
1, 36172, Note_off_c, 1, 77, 0
1, 36180, Note_on_c, 1, 77, 127
1, 36180, Note_on_c, 1, 53, 127
1, 36212, Note_off_c, 1, 77, 0
1, 36220, Note_on_c, 1, 76, 127
1, 36252, Note_off_c, 1, 76, 0
1, 36260, Note_on_c, 1, 74, 127
1, 36276, Note_off_c, 1, 53, 0
1, 36292, Note_off_c, 1, 74, 0
1, 36300, Note_on_c, 1, 83, 127
1, 36300, Note_on_c, 1, 53, 127
1, 36348, Note_off_c, 1, 83, 0
1, 36360, Note_on_c, 1, 77, 127
1, 36408, Note_off_c, 1, 77, 0
1, 36435, Note_on_c, 1, 76, 127
1, 36444, Note_off_c, 1, 53, 0
1, 36447, Note_off_c, 1, 76, 0
1, 36450, Note_on_c, 1, 77, 127
1, 36450, Note_on_c, 1, 57, 127
1, 36462, Note_off_c, 1, 77, 0
1, 36465, Note_on_c, 1, 76, 127
1, 36474, Note_off_c, 1, 57, 0
1, 36477, Note_off_c, 1, 76, 0
1, 36480, Note_on_c, 1, 74, 127
1, 36480, Note_on_c, 1, 55, 127
1, 36504, Note_off_c, 1, 55, 0
1, 36510, Note_on_c, 1, 53, 127
1, 36528, Note_off_c, 1, 74, 0
1, 36534, Note_off_c, 1, 53, 0
1, 36540, Note_on_c, 1, 72, 127
1, 36540, Note_on_c, 1, 52, 127
1, 36600, Note_on_c, 1, 55, 127
1, 36636, Note_off_c, 1, 72, 0
1, 36648, Note_off_c, 1, 55, 0
1, 36660, Note_on_c, 1, 79, 127
1, 36660, Note_on_c, 1, 57, 127
1, 36708, Note_off_c, 1, 57, 0
1, 36720, Note_on_c, 1, 59, 127
1, 36732, Note_off_c, 1, 52, 0
1, 36756, Note_off_c, 1, 79, 0
1, 36768, Note_off_c, 1, 59, 0
1, 36780, Note_on_c, 1, 79, 127
1, 36780, Note_on_c, 1, 60, 127
1, 36840, Note_on_c, 1, 55, 127
1, 36888, Note_off_c, 1, 55, 0
1, 36900, Note_on_c, 1, 53, 127
1, 36924, Note_off_c, 1, 79, 0
1, 36930, Note_on_c, 1, 82, 127
1, 36948, Note_off_c, 1, 53, 0
1, 36954, Note_off_c, 1, 82, 0
1, 36960, Note_on_c, 1, 81, 127
1, 36960, Note_on_c, 1, 52, 127
1, 36984, Note_off_c, 1, 81, 0
1, 37008, Note_off_c, 1, 52, 0
1, 37020, Note_on_c, 1, 77, 127
1, 37020, Note_on_c, 1, 50, 127
1, 37068, Note_off_c, 1, 60, 0
1, 37116, Note_off_c, 1, 77, 0
1, 37140, Note_on_c, 1, 59, 127
1, 37188, Note_off_c, 1, 59, 0
1, 37200, Note_on_c, 1, 57, 127
1, 37212, Note_off_c, 1, 50, 0
1, 37248, Note_off_c, 1, 57, 0
1, 37260, Note_on_c, 1, 77, 127
1, 37260, Note_on_c, 1, 59, 127
1, 37320, Note_on_c, 1, 55, 127
1, 37368, Note_off_c, 1, 55, 0
1, 37380, Note_on_c, 1, 53, 127
1, 37404, Note_off_c, 1, 77, 0
1, 37410, Note_on_c, 1, 81, 127
1, 37428, Note_off_c, 1, 53, 0
1, 37434, Note_off_c, 1, 81, 0
1, 37440, Note_on_c, 1, 79, 127
1, 37452, Note_off_c, 1, 59, 0
1, 37464, Note_off_c, 1, 79, 0
1, 37500, Note_on_c, 1, 76, 127
1, 37500, Note_on_c, 1, 48, 127
1, 37548, Note_off_c, 1, 76, 0
1, 37560, Note_on_c, 1, 74, 127
1, 37608, Note_off_c, 1, 74, 0
1, 37620, Note_on_c, 1, 55, 127
1, 37680, Note_on_c, 1, 77, 127
1, 37692, Note_off_c, 1, 48, 0
1, 37716, Note_off_c, 1, 55, 0
1, 37728, Note_off_c, 1, 77, 0
1, 37740, Note_on_c, 1, 76, 127
1, 37740, Note_on_c, 1, 60, 127
1, 37788, Note_off_c, 1, 76, 0
1, 37800, Note_on_c, 1, 79, 127
1, 37848, Note_off_c, 1, 79, 0
1, 37860, Note_on_c, 1, 78, 127
1, 37908, Note_off_c, 1, 78, 0
1, 38028, Note_off_c, 1, 60, 0
1, 38040, Note_on_c, 1, 57, 127
1, 38088, Note_off_c, 1, 57, 0
1, 38100, Note_on_c, 1, 74, 127
1, 38100, Note_on_c, 1, 59, 127
1, 38148, Note_off_c, 1, 59, 0
1, 38160, Note_on_c, 1, 60, 127
1, 38196, Note_off_c, 1, 74, 0
1, 38208, Note_off_c, 1, 60, 0
1, 38220, Note_on_c, 1, 79, 127
1, 38220, Note_on_c, 1, 59, 127
1, 38268, Note_off_c, 1, 59, 0
1, 38280, Note_on_c, 1, 62, 127
1, 38328, Note_off_c, 1, 62, 0
1, 38340, Note_on_c, 1, 61, 127
1, 38388, Note_off_c, 1, 61, 0
1, 38508, Note_off_c, 1, 79, 0
1, 38520, Note_on_c, 1, 67, 127
1, 38520, Note_on_c, 1, 76, 127
1, 38568, Note_off_c, 1, 67, 0
1, 38568, Note_off_c, 1, 76, 0
1, 38580, Note_on_c, 1, 69, 127
1, 38580, Note_on_c, 1, 77, 127
1, 38628, Note_off_c, 1, 69, 0
1, 38628, Note_off_c, 1, 77, 0
1, 38640, Note_on_c, 1, 70, 127
1, 38688, Note_off_c, 1, 70, 0
1, 38700, Note_on_c, 1, 69, 127
1, 38700, Note_on_c, 1, 77, 127
1, 38700, Note_on_c, 1, 62, 127
1, 38748, Note_off_c, 1, 69, 0
1, 38748, Note_off_c, 1, 77, 0
1, 38760, Note_on_c, 1, 72, 127
1, 38760, Note_on_c, 1, 81, 127
1, 38808, Note_off_c, 1, 72, 0
1, 38808, Note_off_c, 1, 81, 0
1, 38820, Note_on_c, 1, 79, 127
1, 38820, Note_on_c, 1, 70, 127
1, 38868, Note_off_c, 1, 79, 0
1, 38868, Note_off_c, 1, 70, 0
1, 38940, Note_on_c, 1, 76, 127
1, 38940, Note_on_c, 1, 67, 127
1, 38988, Note_off_c, 1, 76, 0
1, 38988, Note_off_c, 1, 67, 0
1, 39000, Note_on_c, 1, 74, 127
1, 39000, Note_on_c, 1, 65, 127
1, 39048, Note_off_c, 1, 74, 0
1, 39048, Note_off_c, 1, 65, 0
1, 39084, Note_off_c, 1, 62, 0
1, 39120, Note_on_c, 1, 69, 127
1, 39120, Note_on_c, 1, 77, 127
1, 39168, Note_off_c, 1, 69, 0
1, 39168, Note_off_c, 1, 77, 0
1, 39180, Note_on_c, 1, 67, 127
1, 39180, Note_on_c, 1, 76, 127
1, 39180, Note_on_c, 1, 61, 127
1, 39228, Note_off_c, 1, 67, 0
1, 39228, Note_off_c, 1, 76, 0
1, 39240, Note_on_c, 1, 79, 127
1, 39240, Note_on_c, 1, 70, 127
1, 39288, Note_off_c, 1, 79, 0
1, 39288, Note_off_c, 1, 70, 0
1, 39300, Note_on_c, 1, 77, 127
1, 39300, Note_on_c, 1, 69, 127
1, 39348, Note_off_c, 1, 77, 0
1, 39348, Note_off_c, 1, 69, 0
1, 39372, Note_off_c, 1, 61, 0
1, 39420, Note_on_c, 1, 65, 127
1, 39420, Note_on_c, 1, 74, 127
1, 39420, Note_on_c, 1, 62, 127
1, 39516, Note_off_c, 1, 62, 0
1, 39540, Note_on_c, 1, 55, 127
1, 39564, Note_off_c, 1, 65, 0
1, 39564, Note_off_c, 1, 74, 0
1, 39600, Note_on_c, 1, 67, 127
1, 39600, Note_on_c, 1, 76, 127
1, 39636, Note_off_c, 1, 55, 0
1, 39648, Note_off_c, 1, 67, 0
1, 39648, Note_off_c, 1, 76, 0
1, 39660, Note_on_c, 1, 73, 127
1, 39660, Note_on_c, 1, 64, 127
1, 39660, Note_on_c, 1, 57, 127
1, 39756, Note_off_c, 1, 57, 0
1, 39780, Note_on_c, 1, 45, 127
1, 39804, Note_off_c, 1, 73, 0
1, 39840, Note_on_c, 1, 74, 127
1, 39852, Note_off_c, 1, 64, 0
1, 39876, Note_off_c, 1, 45, 0
1, 39888, Note_off_c, 1, 74, 0
1, 39900, Note_on_c, 1, 74, 127
1, 39900, Note_on_c, 1, 65, 127
1, 39900, Note_on_c, 1, 38, 127
1, 39996, Note_off_c, 1, 74, 0
1, 39996, Note_off_c, 1, 38, 0
1, 40020, Note_on_c, 1, 69, 127
1, 40020, Note_on_c, 1, 50, 127
1, 40044, Note_off_c, 1, 69, 0
1, 40050, Note_on_c, 1, 70, 127
1, 40074, Note_off_c, 1, 70, 0
1, 40116, Note_off_c, 1, 50, 0
1, 40140, Note_on_c, 1, 72, 127
1, 40152, Note_off_c, 1, 72, 0
1, 40260, Note_on_c, 1, 48, 127
1, 40308, Note_off_c, 1, 48, 0
1, 40320, Note_on_c, 1, 47, 127
1, 40368, Note_off_c, 1, 47, 0
1, 40380, Note_on_c, 1, 45, 127
1, 40440, Note_on_c, 1, 75, 127
1, 40476, Note_off_c, 1, 45, 0
1, 40488, Note_off_c, 1, 75, 0
1, 40500, Note_on_c, 1, 57, 127
1, 40524, Note_off_c, 1, 57, 0
1, 40530, Note_on_c, 1, 58, 127
1, 40554, Note_off_c, 1, 58, 0
1, 40620, Note_on_c, 1, 60, 127
1, 40632, Note_off_c, 1, 60, 0
1, 40764, Note_off_c, 1, 65, 0
1, 40860, Note_on_c, 1, 67, 127
1, 40860, Note_on_c, 1, 64, 127
1, 41004, Note_off_c, 1, 67, 0
1, 41205, Note_on_c, 1, 46, 127
1, 41244, Note_off_c, 1, 64, 0
1, 41253, Note_off_c, 1, 46, 0
1, 41340, Note_on_c, 1, 70, 127
1, 41340, Note_on_c, 1, 63, 127
1, 41340, Note_on_c, 1, 43, 127
1, 41388, Note_off_c, 1, 70, 0
1, 41400, Note_on_c, 1, 74, 127
1, 41436, Note_off_c, 1, 43, 0
1, 41448, Note_off_c, 1, 74, 0
1, 41460, Note_on_c, 1, 72, 127
1, 41460, Note_on_c, 1, 55, 127
1, 41484, Note_off_c, 1, 55, 0
1, 41490, Note_on_c, 1, 57, 127
1, 41508, Note_off_c, 1, 72, 0
1, 41514, Note_off_c, 1, 57, 0
1, 41580, Note_on_c, 1, 58, 127
1, 41592, Note_off_c, 1, 58, 0
1, 41640, Note_on_c, 1, 69, 127
1, 41688, Note_off_c, 1, 69, 0
1, 41724, Note_off_c, 1, 63, 0
1, 41820, Note_on_c, 1, 65, 127
1, 41820, Note_on_c, 1, 62, 127
1, 41820, Note_on_c, 1, 58, 127
1, 41868, Note_off_c, 1, 65, 0
1, 41910, Note_on_c, 1, 67, 127
1, 41916, Note_off_c, 1, 62, 0
1, 41916, Note_off_c, 1, 58, 0
1, 41934, Note_off_c, 1, 67, 0
1, 41940, Note_on_c, 1, 69, 127
1, 41940, Note_on_c, 1, 46, 127
1, 41964, Note_off_c, 1, 69, 0
1, 41970, Note_on_c, 1, 67, 127
1, 41994, Note_off_c, 1, 67, 0
1, 42000, Note_on_c, 1, 65, 127
1, 42024, Note_off_c, 1, 65, 0
1, 42036, Note_off_c, 1, 46, 0
1, 42060, Note_on_c, 1, 69, 127
1, 42120, Note_on_c, 1, 53, 127
1, 42132, Note_off_c, 1, 69, 0
1, 42144, Note_off_c, 1, 53, 0
1, 42150, Note_on_c, 1, 70, 127
1, 42150, Note_on_c, 1, 55, 127
1, 42174, Note_off_c, 1, 70, 0
1, 42174, Note_off_c, 1, 55, 0
1, 42180, Note_on_c, 1, 72, 127
1, 42180, Note_on_c, 1, 57, 127
1, 42192, Note_off_c, 1, 72, 0
1, 42195, Note_on_c, 1, 70, 127
1, 42204, Note_off_c, 1, 57, 0
1, 42207, Note_off_c, 1, 70, 0
1, 42210, Note_on_c, 1, 72, 127
1, 42210, Note_on_c, 1, 55, 127
1, 42222, Note_off_c, 1, 72, 0
1, 42225, Note_on_c, 1, 70, 127
1, 42234, Note_off_c, 1, 55, 0
1, 42237, Note_off_c, 1, 70, 0
1, 42240, Note_on_c, 1, 69, 127
1, 42240, Note_on_c, 1, 53, 127
1, 42264, Note_off_c, 1, 69, 0
1, 42264, Note_off_c, 1, 53, 0
1, 42270, Note_on_c, 1, 70, 127
1, 42270, Note_on_c, 1, 55, 127
1, 42294, Note_off_c, 1, 70, 0
1, 42294, Note_off_c, 1, 55, 0
1, 42300, Note_on_c, 1, 72, 127
1, 42300, Note_on_c, 1, 57, 127
1, 42332, Note_off_c, 1, 72, 0
1, 42332, Note_off_c, 1, 57, 0
1, 42340, Note_on_c, 1, 70, 127
1, 42340, Note_on_c, 1, 55, 127
1, 42372, Note_off_c, 1, 70, 0
1, 42372, Note_off_c, 1, 55, 0
1, 42380, Note_on_c, 1, 72, 127
1, 42380, Note_on_c, 1, 57, 127
1, 42412, Note_off_c, 1, 72, 0
1, 42412, Note_off_c, 1, 57, 0
1, 42420, Note_on_c, 1, 74, 127
1, 42420, Note_on_c, 1, 58, 127
1, 42452, Note_off_c, 1, 74, 0
1, 42452, Note_off_c, 1, 58, 0
1, 42460, Note_on_c, 1, 72, 127
1, 42460, Note_on_c, 1, 57, 127
1, 42492, Note_off_c, 1, 72, 0
1, 42492, Note_off_c, 1, 57, 0
1, 42500, Note_on_c, 1, 74, 127
1, 42500, Note_on_c, 1, 58, 127
1, 42532, Note_off_c, 1, 74, 0
1, 42532, Note_off_c, 1, 58, 0
1, 42540, Note_on_c, 1, 76, 127
1, 42540, Note_on_c, 1, 60, 127
1, 42572, Note_off_c, 1, 76, 0
1, 42572, Note_off_c, 1, 60, 0
1, 42580, Note_on_c, 1, 74, 127
1, 42580, Note_on_c, 1, 58, 127
1, 42612, Note_off_c, 1, 74, 0
1, 42612, Note_off_c, 1, 58, 0
1, 42620, Note_on_c, 1, 76, 127
1, 42620, Note_on_c, 1, 60, 127
1, 42652, Note_off_c, 1, 76, 0
1, 42652, Note_off_c, 1, 60, 0
1, 42660, Note_on_c, 1, 77, 127
1, 42660, Note_on_c, 1, 62, 127
1, 42692, Note_off_c, 1, 77, 0
1, 42692, Note_off_c, 1, 62, 0
1, 42700, Note_on_c, 1, 76, 127
1, 42700, Note_on_c, 1, 60, 127
1, 42732, Note_off_c, 1, 76, 0
1, 42732, Note_off_c, 1, 60, 0
1, 42740, Note_on_c, 1, 77, 127
1, 42740, Note_on_c, 1, 62, 127
1, 42772, Note_off_c, 1, 77, 0
1, 42772, Note_off_c, 1, 62, 0
1, 42780, Note_on_c, 1, 79, 127
1, 42780, Note_on_c, 1, 64, 127
1, 42812, Note_off_c, 1, 79, 0
1, 42812, Note_off_c, 1, 64, 0
1, 42820, Note_on_c, 1, 77, 127
1, 42820, Note_on_c, 1, 62, 127
1, 42852, Note_off_c, 1, 77, 0
1, 42852, Note_off_c, 1, 62, 0
1, 42860, Note_on_c, 1, 79, 127
1, 42860, Note_on_c, 1, 64, 127
1, 42892, Note_off_c, 1, 79, 0
1, 42892, Note_off_c, 1, 64, 0
1, 42900, Note_on_c, 1, 77, 127
1, 42900, Note_on_c, 1, 81, 127
1, 42900, Note_on_c, 1, 65, 127
1, 42948, Note_off_c, 1, 77, 0
1, 42948, Note_off_c, 1, 65, 0
1, 42960, Note_on_c, 1, 72, 127
1, 42960, Note_on_c, 1, 57, 127
1, 43008, Note_off_c, 1, 72, 0
1, 43008, Note_off_c, 1, 57, 0
1, 43020, Note_on_c, 1, 74, 127
1, 43020, Note_on_c, 1, 58, 127
1, 43068, Note_off_c, 1, 81, 0
1, 43140, Note_on_c, 1, 79, 127
1, 43188, Note_off_c, 1, 79, 0
1, 43212, Note_off_c, 1, 74, 0
1, 43212, Note_off_c, 1, 58, 0
1, 43260, Note_on_c, 1, 76, 127
1, 43260, Note_on_c, 1, 72, 127
1, 43260, Note_on_c, 1, 60, 127
1, 43308, Note_off_c, 1, 76, 0
1, 43320, Note_on_c, 1, 77, 127
1, 43356, Note_off_c, 1, 72, 0
1, 43368, Note_off_c, 1, 77, 0
1, 43440, Note_on_c, 1, 74, 127
1, 43488, Note_off_c, 1, 74, 0
1, 43548, Note_off_c, 1, 60, 0
1, 43560, Note_on_c, 1, 58, 127
1, 43608, Note_off_c, 1, 58, 0
1, 43620, Note_on_c, 1, 57, 127
1, 43668, Note_off_c, 1, 57, 0
1, 43680, Note_on_c, 1, 72, 127
1, 43680, Note_on_c, 1, 55, 127
1, 43728, Note_off_c, 1, 72, 0
1, 43728, Note_off_c, 1, 55, 0
1, 43740, Note_on_c, 1, 73, 127
1, 43740, Note_on_c, 1, 53, 127
1, 43788, Note_off_c, 1, 73, 0
1, 43800, Note_on_c, 1, 72, 127
1, 43836, Note_off_c, 1, 53, 0
1, 43848, Note_off_c, 1, 72, 0
1, 43860, Note_on_c, 1, 71, 127
1, 43860, Note_on_c, 1, 56, 127
1, 43908, Note_off_c, 1, 71, 0
1, 43920, Note_on_c, 1, 72, 127
1, 43956, Note_off_c, 1, 56, 0
1, 43968, Note_off_c, 1, 72, 0
1, 43980, Note_on_c, 1, 65, 127
1, 43980, Note_on_c, 1, 50, 127
1, 44028, Note_off_c, 1, 65, 0
1, 44040, Note_on_c, 1, 72, 127
1, 44076, Note_off_c, 1, 50, 0
1, 44088, Note_off_c, 1, 72, 0
1, 44100, Note_on_c, 1, 71, 127
1, 44100, Note_on_c, 1, 53, 127
1, 44148, Note_off_c, 1, 71, 0
1, 44160, Note_on_c, 1, 72, 127
1, 44196, Note_off_c, 1, 53, 0
1, 44208, Note_off_c, 1, 72, 0
1, 44220, Note_on_c, 1, 74, 127
1, 44220, Note_on_c, 1, 47, 127
1, 44268, Note_off_c, 1, 74, 0
1, 44280, Note_on_c, 1, 72, 127
1, 44316, Note_off_c, 1, 47, 0
1, 44328, Note_off_c, 1, 72, 0
1, 44340, Note_on_c, 1, 71, 127
1, 44340, Note_on_c, 1, 50, 127
1, 44388, Note_off_c, 1, 71, 0
1, 44400, Note_on_c, 1, 72, 127
1, 44436, Note_off_c, 1, 50, 0
1, 44448, Note_off_c, 1, 72, 0
1, 44460, Note_on_c, 1, 65, 127
1, 44460, Note_on_c, 1, 43, 127
1, 44508, Note_off_c, 1, 65, 0
1, 44520, Note_on_c, 1, 68, 127
1, 44556, Note_off_c, 1, 43, 0
1, 44568, Note_off_c, 1, 68, 0
1, 44580, Note_on_c, 1, 67, 127
1, 44580, Note_on_c, 1, 46, 127
1, 44628, Note_off_c, 1, 67, 0
1, 44640, Note_on_c, 1, 65, 127
1, 44676, Note_off_c, 1, 46, 0
1, 44688, Note_off_c, 1, 65, 0
1, 44700, Note_on_c, 1, 70, 127
1, 44700, Note_on_c, 1, 40, 127
1, 44748, Note_off_c, 1, 70, 0
1, 44760, Note_on_c, 1, 73, 127
1, 44808, Note_off_c, 1, 73, 0
1, 44880, Note_on_c, 1, 67, 127
1, 44892, Note_off_c, 1, 40, 0
1, 44928, Note_off_c, 1, 67, 0
1, 44940, Note_on_c, 1, 64, 127
1, 44988, Note_off_c, 1, 64, 0
1, 45000, Note_on_c, 1, 67, 127
1, 45000, Note_on_c, 1, 58, 127
1, 45048, Note_off_c, 1, 67, 0
1, 45048, Note_off_c, 1, 58, 0
1, 45060, Note_on_c, 1, 72, 127
1, 45060, Note_on_c, 1, 57, 127
1, 45108, Note_off_c, 1, 72, 0
1, 45108, Note_off_c, 1, 57, 0
1, 45120, Note_on_c, 1, 70, 127
1, 45120, Note_on_c, 1, 55, 127
1, 45168, Note_off_c, 1, 70, 0
1, 45168, Note_off_c, 1, 55, 0
1, 45180, Note_on_c, 1, 69, 127
1, 45180, Note_on_c, 1, 53, 127
1, 45228, Note_off_c, 1, 69, 0
1, 45228, Note_off_c, 1, 53, 0
1, 45240, Note_on_c, 1, 72, 127
1, 45240, Note_on_c, 1, 57, 127
1, 45288, Note_off_c, 1, 72, 0
1, 45288, Note_off_c, 1, 57, 0
1, 45300, Note_on_c, 1, 77, 127
1, 45300, Note_on_c, 1, 62, 127
1, 45348, Note_off_c, 1, 77, 0
1, 45348, Note_off_c, 1, 62, 0
1, 45360, Note_on_c, 1, 69, 127
1, 45360, Note_on_c, 1, 58, 127
1, 45408, Note_off_c, 1, 69, 0
1, 45408, Note_off_c, 1, 58, 0
1, 45420, Note_on_c, 1, 67, 127
1, 45420, Note_on_c, 1, 60, 127
1, 45480, Note_on_c, 1, 77, 127
1, 45516, Note_off_c, 1, 60, 0
1, 45528, Note_off_c, 1, 77, 0
1, 45540, Note_off_c, 1, 67, 0
1, 45540, Note_on_c, 1, 70, 127
1, 45540, Note_on_c, 1, 48, 127
1, 45600, Note_on_c, 1, 76, 127
1, 45636, Note_off_c, 1, 48, 0
1, 45648, Note_off_c, 1, 76, 0
1, 45660, Note_off_c, 1, 70, 0
1, 45660, Note_on_c, 1, 69, 127
1, 45660, Note_on_c, 1, 72, 127
1, 45660, Note_on_c, 1, 53, 127
1, 45720, Note_on_c, 1, 41, 127
1, 45780, Note_on_c, 1, 45, 127
1, 45828, Note_off_c, 1, 45, 0
1, 45852, Note_off_c, 1, 53, 0
1, 45948, Note_off_c, 1, 69, 0
1, 45948, Note_off_c, 1, 72, 0
1, 45996, Note_off_c, 1, 41, 0
1, 45996, End_track
0, 0, End_of_file