0, 0, Header, 1, 1, 480
1, 0, Start_track
1, 0, Title_t, "Test"
1, 0, Tempo, 500000
1, 0, Instrument_name_t, "Church Organ"
1, 96, Note_on_c, 1, 74, 127
1, 96, Note_on_c, 1, 55, 127
1, 154, Note_off_c, 1, 74, 0
1, 156, Note_on_c, 1, 72, 127
1, 214, Note_off_c, 1, 72, 0
1, 336, Note_on_c, 1, 59, 127
1, 574, Note_off_c, 1, 59, 0
1, 576, Note_on_c, 1, 62, 127
1, 814, Note_off_c, 1, 62, 0
1, 816, Note_on_c, 1, 67, 127
1, 1054, Note_off_c, 1, 67, 0
1, 1055, Note_off_c, 1, 55, 0
1, 1056, Note_on_c, 1, 57, 127
1, 1056, Note_on_c, 1, 74, 127
1, 1296, Note_on_c, 1, 66, 127
1, 1531, Note_off_c, 1, 57, 0
1, 1533, Note_off_c, 1, 74, 0
1, 1533, Note_off_c, 1, 66, 0
1, 1535, Note_on_c, 1, 74, 127
1, 1535, Note_on_c, 1, 59, 127
1, 1593, Note_off_c, 1, 74, 0
1, 1611, Note_on_c, 1, 72, 127
1, 1669, Note_off_c, 1, 72, 0
1, 1777, Note_on_c, 1, 67, 127
1, 2012, Note_off_c, 1, 59, 0
1, 2014, Note_off_c, 1, 67, 0
1, 2016, Note_on_c, 1, 79, 127
1, 2016, Note_on_c, 1, 55, 127
1, 2254, Note_off_c, 1, 79, 0
1, 2254, Note_off_c, 1, 55, 0
1, 2256, Note_on_c, 1, 78, 127
1, 2256, Note_on_c, 1, 57, 127
1, 2494, Note_off_c, 1, 78, 0
1, 2494, Note_off_c, 1, 57, 0
1, 2496, Note_on_c, 1, 59, 127
1, 2496, Note_on_c, 1, 79, 127
1, 2734, Note_off_c, 1, 59, 0
1, 2736, Note_on_c, 1, 60, 127
1, 2974, Note_off_c, 1, 79, 0
1, 2974, Note_off_c, 1, 60, 0
1, 2976, Note_on_c, 1, 71, 127
1, 2976, Note_on_c, 1, 62, 127
1, 3061, Note_off_c, 1, 71, 0
1, 3061, Note_on_c, 1, 69, 127
1, 3146, Note_off_c, 1, 69, 0
1, 3454, Note_off_c, 1, 62, 0
1, 3456, Note_on_c, 1, 69, 127
1, 3456, Note_on_c, 1, 60, 127
1, 3694, Note_off_c, 1, 69, 0
1, 3696, Note_on_c, 1, 71, 127
1, 3814, Note_off_c, 1, 71, 0
1, 3816, Note_on_c, 1, 72, 127
1, 3934, Note_off_c, 1, 60, 0
1, 3934, Note_off_c, 1, 72, 0
1, 3936, Note_on_c, 1, 71, 127
1, 3936, Note_on_c, 1, 62, 127
1, 4174, Note_off_c, 1, 71, 0
1, 4176, Note_on_c, 1, 69, 127
1, 4414, Note_off_c, 1, 62, 0
1, 4414, Note_off_c, 1, 69, 0
1, 4416, Note_on_c, 1, 72, 127
1, 4416, Note_on_c, 1, 55, 127
1, 4534, Note_off_c, 1, 72, 0
1, 4549, Note_on_c, 1, 71, 127
1, 4667, Note_off_c, 1, 71, 0
1, 4895, Note_off_c, 1, 55, 0
1, 4897, Note_on_c, 1, 69, 127
1, 4897, Note_on_c, 1, 57, 127
1, 5135, Note_off_c, 1, 69, 0
1, 5137, Note_on_c, 1, 71, 127
1, 5375, Note_off_c, 1, 57, 0
1, 5375, Note_off_c, 1, 71, 0
1, 5377, Note_on_c, 1, 67, 127
1, 5377, Note_on_c, 1, 59, 127
1, 5727, Note_off_c, 1, 67, 0
1, 5855, Note_off_c, 1, 59, 0
1, 5857, Note_on_c, 1, 76, 127
1, 5857, Note_on_c, 1, 60, 127
1, 5915, Note_off_c, 1, 76, 0
1, 5917, Note_on_c, 1, 74, 127
1, 5975, Note_off_c, 1, 74, 0
1, 6095, Note_off_c, 1, 60, 0
1, 6097, Note_on_c, 1, 59, 127
1, 6335, Note_off_c, 1, 59, 0
1, 6337, Note_on_c, 1, 60, 127
1, 6337, Note_on_c, 1, 76, 127
1, 6575, Note_off_c, 1, 60, 0
1, 6577, Note_on_c, 1, 55, 127
1, 6815, Note_off_c, 1, 76, 0
1, 6815, Note_off_c, 1, 55, 0
1, 6817, Note_on_c, 1, 52, 127
1, 6817, Note_on_c, 1, 76, 127
1, 7055, Note_off_c, 1, 52, 0
1, 7057, Note_on_c, 1, 55, 127
1, 7295, Note_off_c, 1, 76, 0
1, 7295, Note_off_c, 1, 55, 0
1, 7297, Note_on_c, 1, 76, 127
1, 7297, Note_on_c, 1, 48, 127
1, 7355, Note_off_c, 1, 76, 0
1, 7357, Note_on_c, 1, 74, 127
1, 7415, Note_off_c, 1, 74, 0
1, 7777, Note_on_c, 1, 52, 127
1, 8017, Note_on_c, 1, 72, 127
1, 8255, Note_off_c, 1, 52, 0
1, 8255, Note_off_c, 1, 72, 0
1, 8257, Note_on_c, 1, 71, 127
1, 8257, Note_on_c, 1, 54, 127
1, 8495, Note_off_c, 1, 71, 0
1, 8497, Note_on_c, 1, 69, 127
1, 8735, Note_off_c, 1, 48, 0
1, 8735, Note_off_c, 1, 54, 0
1, 8735, Note_off_c, 1, 69, 0
1, 8737, Note_on_c, 1, 74, 127
1, 8737, Note_on_c, 1, 47, 127
1, 8737, Note_on_c, 1, 55, 127
1, 9215, Note_off_c, 1, 74, 0
1, 9215, Note_off_c, 1, 47, 0
1, 9217, Note_on_c, 1, 72, 127
1, 9217, Note_on_c, 1, 48, 127
1, 9455, Note_off_c, 1, 72, 0
1, 9457, Note_on_c, 1, 71, 127
1, 9695, Note_off_c, 1, 48, 0
1, 9695, Note_off_c, 1, 71, 0
1, 9696, Note_off_c, 1, 55, 0
1, 9697, Note_on_c, 1, 69, 127
1, 9697, Note_on_c, 1, 50, 127
1, 9697, Note_on_c, 1, 54, 127
1, 9935, Note_off_c, 1, 69, 0
1, 9937, Note_on_c, 1, 71, 127
1, 10175, Note_off_c, 1, 50, 0
1, 10175, Note_off_c, 1, 54, 0
1, 10175, Note_off_c, 1, 71, 0
1, 10177, Note_on_c, 1, 55, 127
1, 10177, Note_on_c, 1, 69, 127
1, 10415, Note_off_c, 1, 55, 0
1, 10417, Note_on_c, 1, 50, 127
1, 10655, Note_off_c, 1, 50, 0
1, 10657, Note_on_c, 1, 47, 127
1, 10895, Note_off_c, 1, 47, 0
1, 10896, Note_off_c, 1, 69, 0
1, 10897, Note_on_c, 1, 50, 127
1, 10897, Note_on_c, 1, 67, 127
1, 11135, Note_off_c, 1, 50, 0
1, 11137, Note_on_c, 1, 43, 127
1, 11372, Note_off_c, 1, 67, 0
1, 11614, Note_off_c, 1, 43, 0
1, 11616, Note_on_c, 1, 69, 127
1, 11616, Note_on_c, 1, 50, 127
1, 11674, Note_off_c, 1, 69, 0
1, 11676, Note_on_c, 1, 67, 127
1, 11734, Note_off_c, 1, 67, 0
1, 11856, Note_on_c, 1, 54, 127
1, 12091, Note_off_c, 1, 50, 0
1, 12093, Note_off_c, 1, 54, 0
1, 12095, Note_on_c, 1, 57, 127
1, 12095, Note_on_c, 1, 69, 127
1, 12333, Note_off_c, 1, 57, 0
1, 12335, Note_on_c, 1, 62, 127
1, 12573, Note_off_c, 1, 69, 0
1, 12575, Note_on_c, 1, 52, 127
1, 12810, Note_off_c, 1, 62, 0
1, 12815, Note_on_c, 1, 61, 127
1, 12925, Note_off_c, 1, 52, 0
1, 13053, Note_off_c, 1, 61, 0
1, 13055, Note_on_c, 1, 54, 127
1, 13055, Note_on_c, 1, 69, 127
1, 13295, Note_on_c, 1, 62, 127
1, 13405, Note_off_c, 1, 54, 0
1, 13533, Note_off_c, 1, 69, 0
1, 13535, Note_on_c, 1, 74, 127
1, 13645, Note_off_c, 1, 62, 0
1, 13773, Note_off_c, 1, 74, 0
1, 13775, Note_on_c, 1, 73, 127
1, 13775, Note_on_c, 1, 52, 127
1, 14013, Note_off_c, 1, 73, 0
1, 14013, Note_off_c, 1, 52, 0
1, 14015, Note_on_c, 1, 50, 127
1, 14015, Note_on_c, 1, 74, 127
1, 14253, Note_off_c, 1, 50, 0
1, 14255, Note_on_c, 1, 52, 127
1, 14493, Note_off_c, 1, 74, 0
1, 14493, Note_off_c, 1, 52, 0
1, 14495, Note_on_c, 1, 54, 127
1, 14495, Note_on_c, 1, 69, 127
1, 14733, Note_off_c, 1, 54, 0
1, 14735, Note_on_c, 1, 57, 127
1, 14973, Note_off_c, 1, 69, 0
1, 14973, Note_off_c, 1, 57, 0
1, 14975, Note_on_c, 1, 72, 127
1, 14975, Note_on_c, 1, 55, 127
1, 15093, Note_off_c, 1, 72, 0
1, 15095, Note_on_c, 1, 71, 127
1, 15213, Note_off_c, 1, 55, 0
1, 15213, Note_off_c, 1, 71, 0
1, 15215, Note_on_c, 1, 69, 127
1, 15215, Note_on_c, 1, 54, 127
1, 15333, Note_off_c, 1, 69, 0
1, 15335, Note_on_c, 1, 71, 127
1, 15453, Note_off_c, 1, 54, 0
1, 15453, Note_off_c, 1, 71, 0
1, 15455, Note_on_c, 1, 52, 127
1, 15455, Note_on_c, 1, 72, 127
1, 15693, Note_off_c, 1, 52, 0
1, 15695, Note_on_c, 1, 50, 127
1, 15933, Note_off_c, 1, 72, 0
1, 15933, Note_off_c, 1, 50, 0
1, 15935, Note_on_c, 1, 72, 127
1, 15935, Note_on_c, 1, 55, 127
1, 16095, Note_off_c, 1, 72, 0
1, 16095, Note_on_c, 1, 71, 127
1, 16175, Note_off_c, 1, 71, 0
1, 16413, Note_off_c, 1, 55, 0
1, 16415, Note_on_c, 1, 69, 127
1, 16415, Note_on_c, 1, 57, 127
1, 16652, Note_off_c, 1, 69, 0
1, 16892, Note_off_c, 1, 57, 0
1, 16894, Note_on_c, 1, 67, 127
1, 16894, Note_on_c, 1, 59, 127
1, 17244, Note_off_c, 1, 67, 0
1, 17372, Note_off_c, 1, 59, 0
1, 17374, Note_on_c, 1, 79, 127
1, 17374, Note_on_c, 1, 52, 127
1, 17432, Note_off_c, 1, 79, 0
1, 17434, Note_on_c, 1, 78, 127
1, 17492, Note_off_c, 1, 78, 0
1, 17612, Note_off_c, 1, 52, 0
1, 17614, Note_on_c, 1, 54, 127
1, 17852, Note_off_c, 1, 54, 0
1, 17854, Note_on_c, 1, 55, 127
1, 17854, Note_on_c, 1, 79, 127
1, 18092, Note_off_c, 1, 55, 0
1, 18094, Note_on_c, 1, 54, 127
1, 18332, Note_off_c, 1, 79, 0
1, 18332, Note_off_c, 1, 54, 0
1, 18334, Note_on_c, 1, 52, 127
1, 18334, Note_on_c, 1, 79, 127
1, 18572, Note_off_c, 1, 52, 0
1, 18574, Note_on_c, 1, 50, 127
1, 18812, Note_off_c, 1, 79, 0
1, 18812, Note_off_c, 1, 50, 0
1, 18814, Note_on_c, 1, 79, 127
1, 18814, Note_on_c, 1, 49, 127
1, 19052, Note_off_c, 1, 79, 0
1, 19054, Note_on_c, 1, 78, 127
1, 19292, Note_off_c, 1, 49, 0
1, 19292, Note_off_c, 1, 78, 0
1, 19294, Note_on_c, 1, 76, 127
1, 19294, Note_on_c, 1, 57, 127
1, 19532, Note_off_c, 1, 76, 0
1, 19534, Note_on_c, 1, 74, 127
1, 19772, Note_off_c, 1, 57, 0
1, 19772, Note_off_c, 1, 74, 0
1, 19774, Note_on_c, 1, 73, 127
1, 19774, Note_on_c, 1, 55, 127
1, 20012, Note_off_c, 1, 73, 0
1, 20014, Note_on_c, 1, 71, 127
1, 20252, Note_off_c, 1, 55, 0
1, 20252, Note_off_c, 1, 71, 0
1, 20254, Note_on_c, 1, 69, 127
1, 20254, Note_on_c, 1, 54, 127
1, 20732, Note_off_c, 1, 69, 0
1, 20734, Note_on_c, 1, 74, 127
1, 20734, Note_on_c, 1, 42, 127
1, 21084, Note_off_c, 1, 74, 0
1, 21212, Note_off_c, 1, 42, 0
1, 21213, Note_off_c, 1, 54, 0
1, 21214, Note_on_c, 1, 74, 127
1, 21214, Note_on_c, 1, 52, 127
1, 21214, Note_on_c, 1, 45, 127
1, 21292, Note_off_c, 1, 74, 0
1, 21294, Note_on_c, 1, 73, 127
1, 21372, Note_off_c, 1, 73, 0
1, 21534, Note_on_c, 1, 71, 127
1, 21612, Note_off_c, 1, 71, 0
1, 21692, Note_off_c, 1, 52, 0
1, 21692, Note_off_c, 1, 45, 0
1, 21694, Note_on_c, 1, 74, 127
1, 21694, Note_on_c, 1, 50, 127
1, 21752, Note_off_c, 1, 74, 0
1, 21754, Note_on_c, 1, 73, 127
1, 21812, Note_off_c, 1, 73, 0
1, 21932, Note_off_c, 1, 50, 0
1, 21934, Note_on_c, 1, 45, 127
1, 22172, Note_off_c, 1, 45, 0
1, 22174, Note_on_c, 1, 42, 127
1, 22412, Note_off_c, 1, 42, 0
1, 22654, Note_on_c, 1, 38, 127
1, 23132, Note_off_c, 1, 38, 0
1, 23158, Note_on_c, 1, 79, 127
1, 23158, Note_on_c, 1, 40, 127
1, 23636, Note_off_c, 1, 79, 0
1, 23638, Note_on_c, 1, 72, 127
1, 23696, Note_off_c, 1, 72, 0
1, 23698, Note_on_c, 1, 71, 127
1, 23756, Note_off_c, 1, 71, 0
1, 24117, Note_off_c, 1, 40, 0
1, 24118, Note_on_c, 1, 72, 127
1, 24596, Note_off_c, 1, 72, 0
1, 24598, Note_on_c, 1, 57, 127
1, 24598, Note_on_c, 1, 72, 127
1, 24836, Note_off_c, 1, 57, 0
1, 24838, Note_on_c, 1, 52, 127
1, 25076, Note_off_c, 1, 72, 0
1, 25076, Note_off_c, 1, 52, 0
1, 25078, Note_on_c, 1, 48, 127
1, 25078, Note_on_c, 1, 76, 127
1, 25316, Note_off_c, 1, 48, 0
1, 25316, Note_off_c, 1, 76, 0
1, 25318, Note_on_c, 1, 52, 127
1, 25318, Note_on_c, 1, 74, 127
1, 25556, Note_off_c, 1, 52, 0
1, 25556, Note_off_c, 1, 74, 0
1, 25558, Note_on_c, 1, 45, 127
1, 25558, Note_on_c, 1, 72, 127
1, 25796, Note_off_c, 1, 45, 0
1, 25798, Note_on_c, 1, 48, 127
1, 26036, Note_off_c, 1, 72, 0
1, 26036, Note_off_c, 1, 48, 0
1, 26038, Note_on_c, 1, 81, 127
1, 26038, Note_on_c, 1, 42, 127
1, 26516, Note_off_c, 1, 81, 0
1, 26518, Note_on_c, 1, 72, 127
1, 26576, Note_off_c, 1, 72, 0
1, 26578, Note_on_c, 1, 71, 127
1, 26636, Note_off_c, 1, 71, 0
1, 26997, Note_off_c, 1, 42, 0
1, 26998, Note_on_c, 1, 72, 127
1, 27476, Note_off_c, 1, 72, 0
1, 27478, Note_on_c, 1, 43, 127
1, 27478, Note_on_c, 1, 71, 127
1, 27716, Note_off_c, 1, 43, 0
1, 27716, Note_off_c, 1, 71, 0
1, 27718, Note_on_c, 1, 47, 127
1, 27718, Note_on_c, 1, 74, 127
1, 27956, Note_off_c, 1, 47, 0
1, 27956, Note_off_c, 1, 74, 0
1, 27958, Note_on_c, 1, 50, 127
1, 27958, Note_on_c, 1, 72, 127
1, 28196, Note_off_c, 1, 50, 0
1, 28196, Note_off_c, 1, 72, 0
1, 28198, Note_on_c, 1, 55, 127
1, 28198, Note_on_c, 1, 71, 127
1, 28436, Note_off_c, 1, 55, 0
1, 28436, Note_off_c, 1, 71, 0
1, 28438, Note_on_c, 1, 48, 127
1, 28438, Note_on_c, 1, 69, 127
1, 28676, Note_off_c, 1, 48, 0
1, 28678, Note_on_c, 1, 54, 127
1, 28916, Note_off_c, 1, 69, 0
1, 28916, Note_off_c, 1, 54, 0
1, 28918, Note_on_c, 1, 74, 127
1, 28918, Note_on_c, 1, 47, 127
1, 28976, Note_off_c, 1, 74, 0
1, 28978, Note_on_c, 1, 72, 127
1, 29036, Note_off_c, 1, 72, 0
1, 29156, Note_off_c, 1, 47, 0
1, 29158, Note_on_c, 1, 50, 127
1, 29396, Note_off_c, 1, 50, 0
1, 29398, Note_on_c, 1, 54, 127
1, 29398, Note_on_c, 1, 74, 127
1, 29636, Note_off_c, 1, 54, 0
1, 29638, Note_on_c, 1, 55, 127
1, 29876, Note_off_c, 1, 74, 0
1, 29876, Note_off_c, 1, 55, 0
1, 29878, Note_on_c, 1, 45, 127
1, 29878, Note_on_c, 1, 74, 127
1, 30116, Note_off_c, 1, 45, 0
1, 30118, Note_on_c, 1, 54, 127
1, 30356, Note_off_c, 1, 74, 0
1, 30356, Note_off_c, 1, 54, 0
1, 30358, Note_on_c, 1, 76, 127
1, 30358, Note_on_c, 1, 43, 127
1, 30418, Note_on_c, 1, 74, 127
1, 30423, Note_off_c, 1, 76, 0
1, 30483, Note_off_c, 1, 74, 0
1, 30595, Note_off_c, 1, 43, 0
1, 30597, Note_on_c, 1, 42, 127
1, 30834, Note_off_c, 1, 42, 0
1, 31075, Note_on_c, 1, 45, 127
1, 31075, Note_on_c, 1, 78, 127
1, 31313, Note_off_c, 1, 45, 0
1, 31313, Note_off_c, 1, 78, 0
1, 31315, Note_on_c, 1, 47, 127
1, 31315, Note_on_c, 1, 79, 127
1, 31553, Note_off_c, 1, 47, 0
1, 31555, Note_on_c, 1, 48, 127
1, 31793, Note_off_c, 1, 79, 0
1, 31793, Note_off_c, 1, 48, 0
1, 31795, Note_on_c, 1, 71, 127
1, 31795, Note_on_c, 1, 50, 127
1, 32033, Note_off_c, 1, 71, 0
1, 32035, Note_on_c, 1, 72, 127
1, 32153, Note_off_c, 1, 72, 0
1, 32155, Note_on_c, 1, 74, 127
1, 32273, Note_off_c, 1, 74, 0
1, 32275, Note_on_c, 1, 55, 127
1, 32753, Note_off_c, 1, 55, 0
1, 32755, Note_on_c, 1, 69, 127
1, 32755, Note_on_c, 1, 54, 127
1, 32993, Note_off_c, 1, 69, 0
1, 33233, Note_off_c, 1, 50, 0
1, 33233, Note_off_c, 1, 54, 0
1, 33235, Note_on_c, 1, 55, 127
1, 33235, Note_on_c, 1, 69, 127
1, 33473, Note_off_c, 1, 55, 0
1, 33475, Note_on_c, 1, 50, 127
1, 33713, Note_off_c, 1, 50, 0
1, 33715, Note_on_c, 1, 47, 127
1, 33937, Note_off_c, 1, 47, 0
1, 33953, Note_off_c, 1, 69, 0
1, 33954, Note_on_c, 1, 50, 127
1, 33954, Note_on_c, 1, 67, 127
1, 34178, Note_off_c, 1, 50, 0
1, 34194, Note_on_c, 1, 43, 127
1, 34429, Note_off_c, 1, 67, 0
1, 34671, Note_off_c, 1, 43, 0
1, 34673, Note_on_c, 1, 67, 127
1, 34673, Note_on_c, 1, 55, 127
1, 34911, Note_off_c, 1, 67, 0
1, 34913, Note_on_c, 1, 69, 127
1, 35031, Note_off_c, 1, 69, 0
1, 35033, Note_on_c, 1, 70, 127
1, 35151, Note_off_c, 1, 70, 0
1, 35153, Note_on_c, 1, 58, 127
1, 35631, Note_off_c, 1, 58, 0
1, 35633, Note_on_c, 1, 66, 127
1, 35633, Note_on_c, 1, 62, 127
1, 35871, Note_off_c, 1, 66, 0
1, 36111, Note_off_c, 1, 55, 0
1, 36111, Note_off_c, 1, 62, 0
1, 36113, Note_on_c, 1, 63, 127
1, 36113, Note_on_c, 1, 55, 127
1, 36351, Note_off_c, 1, 63, 0
1, 36353, Note_on_c, 1, 62, 127
1, 36471, Note_off_c, 1, 62, 0
1, 36473, Note_on_c, 1, 60, 127
1, 36591, Note_off_c, 1, 60, 0
1, 36593, Note_on_c, 1, 72, 127
1, 36593, Note_on_c, 1, 57, 127
1, 36799, Note_off_c, 1, 72, 0
1, 37070, Note_off_c, 1, 57, 0
1, 37550, Note_off_c, 1, 55, 0
1, 37552, Note_on_c, 1, 54, 127
1, 38272, Note_on_c, 1, 66, 127
1, 38510, Note_off_c, 1, 66, 0
1, 38512, Note_on_c, 1, 69, 127
1, 38750, Note_off_c, 1, 69, 0
1, 38990, Note_off_c, 1, 54, 0
1, 38992, Note_on_c, 1, 70, 127
1, 38992, Note_on_c, 1, 55, 127
1, 39230, Note_off_c, 1, 70, 0
1, 39232, Note_on_c, 1, 69, 127
1, 39470, Note_off_c, 1, 69, 0
1, 39472, Note_on_c, 1, 62, 127
1, 39712, Note_on_c, 1, 74, 127
1, 39950, Note_off_c, 1, 74, 0
1, 39951, Note_off_c, 1, 55, 0
1, 39952, Note_on_c, 1, 67, 127
1, 39952, Note_on_c, 1, 53, 127
1, 40190, Note_off_c, 1, 67, 0
1, 40430, Note_off_c, 1, 53, 0
1, 40431, Note_off_c, 1, 62, 0
1, 40432, Note_on_c, 1, 72, 127
1, 40432, Note_on_c, 1, 51, 127
1, 40670, Note_off_c, 1, 72, 0
1, 40672, Note_on_c, 1, 74, 127
1, 40790, Note_off_c, 1, 74, 0
1, 40792, Note_on_c, 1, 75, 127
1, 40910, Note_off_c, 1, 75, 0
1, 40912, Note_on_c, 1, 55, 127
1, 41391, Note_off_c, 1, 51, 0
1, 41392, Note_on_c, 1, 70, 127
1, 41392, Note_on_c, 1, 50, 127
1, 41598, Note_off_c, 1, 70, 0
1, 41632, Note_on_c, 1, 69, 127
1, 41838, Note_off_c, 1, 69, 0
1, 41869, Note_off_c, 1, 50, 0
1, 41870, Note_off_c, 1, 55, 0
1, 41871, Note_on_c, 1, 75, 127
1, 41871, Note_on_c, 1, 48, 127
1, 42109, Note_off_c, 1, 75, 0
1, 42111, Note_on_c, 1, 74, 127
1, 42349, Note_off_c, 1, 74, 0
1, 42351, Note_on_c, 1, 55, 127
1, 42591, Note_on_c, 1, 77, 127
1, 42709, Note_off_c, 1, 77, 0
1, 42711, Note_on_c, 1, 79, 127
1, 42829, Note_off_c, 1, 79, 0
1, 42830, Note_off_c, 1, 48, 0
1, 42831, Note_on_c, 1, 72, 127
1, 42831, Note_on_c, 1, 46, 127
1, 43037, Note_off_c, 1, 72, 0
1, 43308, Note_off_c, 1, 46, 0
1, 43309, Note_off_c, 1, 55, 0
1, 43310, Note_on_c, 1, 65, 127
1, 43310, Note_on_c, 1, 45, 127
1, 43310, Note_on_c, 1, 53, 127
1, 43548, Note_off_c, 1, 65, 0
1, 43550, Note_on_c, 1, 75, 127
1, 43788, Note_off_c, 1, 45, 0
1, 43788, Note_off_c, 1, 75, 0
1, 43790, Note_on_c, 1, 46, 127
1, 43790, Note_on_c, 1, 74, 127
1, 44028, Note_off_c, 1, 46, 0
1, 44028, Note_off_c, 1, 74, 0
1, 44030, Note_on_c, 1, 50, 127
1, 44030, Note_on_c, 1, 70, 127
1, 44268, Note_off_c, 1, 50, 0
1, 44268, Note_off_c, 1, 70, 0
1, 44269, Note_off_c, 1, 53, 0
1, 44270, Note_on_c, 1, 65, 127
1, 44270, Note_on_c, 1, 53, 127
1, 44476, Note_off_c, 1, 65, 0
1, 44507, Note_off_c, 1, 53, 0
1, 44509, Note_on_c, 1, 69, 127
1, 44509, Note_on_c, 1, 41, 127
1, 44715, Note_off_c, 1, 69, 0
1, 44746, Note_off_c, 1, 41, 0
1, 44748, Note_on_c, 1, 70, 127
1, 44748, Note_on_c, 1, 46, 127
1, 44866, Note_off_c, 1, 70, 0
1, 44868, Note_on_c, 1, 69, 127
1, 44986, Note_off_c, 1, 46, 0
1, 44986, Note_off_c, 1, 69, 0
1, 44988, Note_on_c, 1, 50, 127
1, 44988, Note_on_c, 1, 70, 127
1, 45226, Note_off_c, 1, 50, 0
1, 45228, Note_on_c, 1, 53, 127
1, 45466, Note_off_c, 1, 53, 0
1, 45468, Note_on_c, 1, 57, 127
1, 45706, Note_off_c, 1, 57, 0
1, 45708, Note_on_c, 1, 58, 127
1, 45947, Note_off_c, 1, 70, 0
1, 46186, Note_off_c, 1, 58, 0
1, 46188, Note_on_c, 1, 74, 127
1, 46188, Note_on_c, 1, 58, 127
1, 46426, Note_off_c, 1, 74, 0
1, 46428, Note_on_c, 1, 75, 127
1, 46546, Note_off_c, 1, 75, 0
1, 46548, Note_on_c, 1, 77, 127
1, 46666, Note_off_c, 1, 77, 0
1, 46668, Note_on_c, 1, 62, 127
1, 47146, Note_off_c, 1, 62, 0
1, 47148, Note_on_c, 1, 72, 127
1, 47148, Note_on_c, 1, 65, 127
1, 47386, Note_off_c, 1, 72, 0
1, 47626, Note_off_c, 1, 58, 0
1, 47626, Note_off_c, 1, 65, 0
1, 47628, Note_on_c, 1, 72, 127
1, 47628, Note_on_c, 1, 56, 127
1, 47866, Note_off_c, 1, 72, 0
1, 47868, Note_on_c, 1, 71, 127
1, 48106, Note_off_c, 1, 71, 0
1, 48108, Note_on_c, 1, 80, 127
1, 48108, Note_on_c, 1, 59, 127
1, 48314, Note_off_c, 1, 80, 0
1, 48348, Note_on_c, 1, 74, 127
1, 48554, Note_off_c, 1, 74, 0
1, 48585, Note_off_c, 1, 59, 0
1, 48587, Note_on_c, 1, 77, 127
1, 48587, Note_on_c, 1, 62, 127
1, 48645, Note_off_c, 1, 77, 0
1, 48647, Note_on_c, 1, 75, 127
1, 48705, Note_off_c, 1, 75, 0
1, 49065, Note_off_c, 1, 56, 0
1, 49065, Note_off_c, 1, 62, 0
1, 49067, Note_on_c, 1, 55, 127
1, 49307, Note_on_c, 1, 68, 127
1, 49545, Note_off_c, 1, 68, 0
1, 49547, Note_on_c, 1, 67, 127
1, 49547, Note_on_c, 1, 60, 127
1, 49785, Note_off_c, 1, 67, 0
1, 50025, Note_off_c, 1, 60, 0
1, 50505, Note_off_c, 1, 55, 0
1, 50507, Note_on_c, 1, 75, 127
1, 50507, Note_on_c, 1, 60, 127
1, 50745, Note_off_c, 1, 75, 0
1, 50747, Note_on_c, 1, 74, 127
1, 50985, Note_off_c, 1, 74, 0
1, 50987, Note_on_c, 1, 55, 127
1, 51227, Note_on_c, 1, 79, 127
1, 51465, Note_off_c, 1, 55, 0
1, 51465, Note_off_c, 1, 79, 0
1, 51467, Note_on_c, 1, 72, 127
1, 51467, Note_on_c, 1, 51, 127
1, 51673, Note_off_c, 1, 72, 0
1, 51944, Note_off_c, 1, 60, 0
1, 51944, Note_off_c, 1, 51, 0
1, 51946, Note_on_c, 1, 69, 127
1, 51946, Note_on_c, 1, 48, 127
1, 52184, Note_off_c, 1, 69, 0
1, 52186, Note_on_c, 1, 70, 127
1, 52304, Note_off_c, 1, 70, 0
1, 52306, Note_on_c, 1, 72, 127
1, 52424, Note_off_c, 1, 72, 0
1, 52426, Note_on_c, 1, 51, 127
1, 52905, Note_off_c, 1, 48, 0
1, 52906, Note_on_c, 1, 67, 127
1, 52906, Note_on_c, 1, 46, 127
1, 53144, Note_off_c, 1, 67, 0
1, 53146, Note_on_c, 1, 66, 127
1, 53384, Note_off_c, 1, 46, 0
1, 53384, Note_off_c, 1, 66, 0
1, 53385, Note_off_c, 1, 51, 0
1, 53386, Note_on_c, 1, 75, 127
1, 53386, Note_on_c, 1, 45, 127
1, 53592, Note_off_c, 1, 75, 0
1, 53626, Note_on_c, 1, 72, 127
1, 53832, Note_off_c, 1, 72, 0
1, 53866, Note_on_c, 1, 74, 127
1, 53866, Note_on_c, 1, 54, 127
1, 54104, Note_off_c, 1, 74, 0
1, 54105, Note_off_c, 1, 45, 0
1, 54106, Note_on_c, 1, 78, 127
1, 54106, Note_on_c, 1, 43, 127
1, 54224, Note_off_c, 1, 78, 0
1, 54226, Note_on_c, 1, 79, 127
1, 54344, Note_off_c, 1, 43, 0
1, 54344, Note_off_c, 1, 79, 0
1, 54346, Note_on_c, 1, 81, 127
1, 54346, Note_on_c, 1, 42, 127
1, 54584, Note_off_c, 1, 81, 0
1, 54824, Note_off_c, 1, 42, 0
1, 54825, Note_off_c, 1, 54, 0
1, 54826, Note_on_c, 1, 43, 127
1, 54826, Note_on_c, 1, 70, 127
1, 55064, Note_off_c, 1, 43, 0
1, 55064, Note_off_c, 1, 70, 0
1, 55066, Note_on_c, 1, 45, 127
1, 55066, Note_on_c, 1, 75, 127
1, 55304, Note_off_c, 1, 45, 0
1, 55304, Note_off_c, 1, 75, 0
1, 55306, Note_on_c, 1, 46, 127
1, 55306, Note_on_c, 1, 74, 127
1, 55544, Note_off_c, 1, 46, 0
1, 55544, Note_off_c, 1, 74, 0
1, 55546, Note_on_c, 1, 48, 127
1, 55546, Note_on_c, 1, 69, 127
1, 55784, Note_off_c, 1, 48, 0
1, 55784, Note_off_c, 1, 69, 0
1, 55786, Note_on_c, 1, 70, 127
1, 55786, Note_on_c, 1, 50, 127
1, 55992, Note_off_c, 1, 70, 0
1, 56023, Note_off_c, 1, 50, 0
1, 56025, Note_on_c, 1, 66, 127
1, 56025, Note_on_c, 1, 38, 127
1, 56231, Note_off_c, 1, 66, 0
1, 56262, Note_off_c, 1, 38, 0
1, 56264, Note_on_c, 1, 67, 127
1, 56264, Note_on_c, 1, 43, 127
1, 57564, Note_off_c, 1, 67, 0
1, 57608, Note_on_c, 1, 62, 127
1, 57608, Note_on_c, 1, 59, 127
1, 57608, Note_on_c, 1, 55, 127
1, 57614, Note_off_c, 1, 43, 0
1, 58086, Note_off_c, 1, 62, 0
1, 58086, Note_off_c, 1, 59, 0
1, 58088, Note_on_c, 1, 64, 127
1, 58088, Note_on_c, 1, 60, 127
1, 58326, Note_off_c, 1, 64, 0
1, 58326, Note_off_c, 1, 60, 0
1, 58328, Note_on_c, 1, 66, 127
1, 58446, Note_off_c, 1, 66, 0
1, 58568, Note_on_c, 1, 57, 127
1, 58806, Note_off_c, 1, 57, 0
1, 58928, Note_on_c, 1, 69, 127
1, 59046, Note_off_c, 1, 69, 0
1, 59887, Note_on_c, 1, 71, 127
1, 60005, Note_off_c, 1, 71, 0
1, 60367, Note_on_c, 1, 72, 127
1, 60482, Note_off_c, 1, 55, 0
1, 60484, Note_off_c, 1, 72, 0
1, 60486, Note_on_c, 1, 71, 127
1, 60486, Note_on_c, 1, 62, 127
1, 60724, Note_off_c, 1, 71, 0
1, 60726, Note_on_c, 1, 66, 127
1, 60964, Note_off_c, 1, 62, 0
1, 60964, Note_off_c, 1, 66, 0
1, 60966, Note_on_c, 1, 67, 127
1, 60966, Note_on_c, 1, 59, 127
1, 61204, Note_off_c, 1, 67, 0
1, 61206, Note_on_c, 1, 62, 127
1, 61444, Note_off_c, 1, 62, 0
1, 61446, Note_on_c, 1, 64, 127
1, 61446, Note_on_c, 1, 55, 127
1, 61684, Note_off_c, 1, 64, 0
1, 61925, Note_off_c, 1, 59, 0
1, 61926, Note_on_c, 1, 57, 127
1, 62405, Note_off_c, 1, 55, 0
1, 62406, Note_on_c, 1, 54, 127
1, 62486, Note_on_c, 1, 60, 127
1, 62566, Note_off_c, 1, 60, 0
1, 62884, Note_off_c, 1, 54, 0
1, 62885, Note_off_c, 1, 57, 0
1, 63366, Note_on_c, 1, 64, 127
1, 63366, Note_on_c, 1, 48, 127
1, 63604, Note_off_c, 1, 64, 0
1, 63604, Note_off_c, 1, 48, 0
1, 63606, Note_on_c, 1, 62, 127
1, 63606, Note_on_c, 1, 55, 127
1, 63724, Note_off_c, 1, 62, 0
1, 63726, Note_on_c, 1, 60, 127
1, 63844, Note_off_c, 1, 55, 0
1, 63844, Note_off_c, 1, 60, 0
1, 63846, Note_on_c, 1, 62, 127
1, 63846, Note_on_c, 1, 47, 127
1, 64084, Note_off_c, 1, 62, 0
1, 64084, Note_off_c, 1, 47, 0
1, 64086, Note_on_c, 1, 60, 127
1, 64086, Note_on_c, 1, 55, 127
1, 64204, Note_off_c, 1, 60, 0
1, 64206, Note_on_c, 1, 59, 127
1, 64324, Note_off_c, 1, 55, 0
1, 64324, Note_off_c, 1, 59, 0
1, 64326, Note_on_c, 1, 60, 127
1, 64326, Note_on_c, 1, 45, 127
1, 64564, Note_off_c, 1, 60, 0
1, 64564, Note_off_c, 1, 45, 0
1, 64566, Note_on_c, 1, 59, 127
1, 64566, Note_on_c, 1, 55, 127
1, 64684, Note_off_c, 1, 59, 0
1, 64686, Note_on_c, 1, 57, 127
1, 64804, Note_off_c, 1, 55, 0
1, 64804, Note_off_c, 1, 57, 0
1, 64806, Note_on_c, 1, 62, 127
1, 64806, Note_on_c, 1, 47, 127
1, 65044, Note_off_c, 1, 62, 0
1, 65044, Note_off_c, 1, 47, 0
1, 65046, Note_on_c, 1, 60, 127
1, 65046, Note_on_c, 1, 55, 127
1, 65164, Note_off_c, 1, 60, 0
1, 65166, Note_on_c, 1, 59, 127
1, 65284, Note_off_c, 1, 55, 0
1, 65284, Note_off_c, 1, 59, 0
1, 65286, Note_on_c, 1, 60, 127
1, 65286, Note_on_c, 1, 45, 127
1, 65524, Note_off_c, 1, 60, 0
1, 65524, Note_off_c, 1, 45, 0
1, 65526, Note_on_c, 1, 59, 127
1, 65526, Note_on_c, 1, 54, 127
1, 65644, Note_off_c, 1, 59, 0
1, 65646, Note_on_c, 1, 57, 127
1, 65764, Note_off_c, 1, 54, 0
1, 65764, Note_off_c, 1, 57, 0
1, 65766, Note_on_c, 1, 59, 127
1, 65766, Note_on_c, 1, 43, 127
1, 66004, Note_off_c, 1, 59, 0
1, 66004, Note_off_c, 1, 43, 0
1, 66006, Note_on_c, 1, 57, 127
1, 66006, Note_on_c, 1, 45, 127
1, 66124, Note_off_c, 1, 57, 0
1, 66124, Note_off_c, 1, 45, 0
1, 66126, Note_on_c, 1, 55, 127
1, 66126, Note_on_c, 1, 47, 127
1, 66244, Note_off_c, 1, 55, 0
1, 66244, Note_off_c, 1, 47, 0
1, 66246, Note_on_c, 1, 54, 127
1, 66246, Note_on_c, 1, 45, 127
1, 66484, Note_off_c, 1, 54, 0
1, 66484, Note_off_c, 1, 45, 0
1, 66486, Note_on_c, 1, 47, 127
1, 66486, Note_on_c, 1, 55, 127
1, 66604, Note_off_c, 1, 47, 0
1, 66606, Note_on_c, 1, 48, 127
1, 66724, Note_off_c, 1, 55, 0
1, 66724, Note_off_c, 1, 48, 0
1, 66726, Note_on_c, 1, 57, 127
1, 66726, Note_on_c, 1, 47, 127
1, 66804, Note_off_c, 1, 57, 0
1, 66806, Note_on_c, 1, 55, 127
1, 66884, Note_off_c, 1, 55, 0
1, 66964, Note_off_c, 1, 47, 0
1, 66966, Note_on_c, 1, 55, 127
1, 66966, Note_on_c, 1, 48, 127
1, 67044, Note_off_c, 1, 55, 0
1, 67046, Note_on_c, 1, 57, 127
1, 67084, Note_off_c, 1, 48, 0
1, 67086, Note_on_c, 1, 50, 127
1, 67124, Note_off_c, 1, 57, 0
1, 67204, Note_off_c, 1, 50, 0
1, 67206, Note_on_c, 1, 57, 127
1, 67206, Note_on_c, 1, 43, 127
1, 67284, Note_off_c, 1, 57, 0
1, 67286, Note_on_c, 1, 55, 127
1, 67364, Note_off_c, 1, 55, 0
1, 67444, Note_off_c, 1, 43, 0
1, 67446, Note_on_c, 1, 55, 127
1, 67446, Note_on_c, 1, 45, 127
1, 67524, Note_off_c, 1, 55, 0
1, 67526, Note_on_c, 1, 54, 127
1, 67564, Note_off_c, 1, 45, 0
1, 67566, Note_on_c, 1, 47, 127
1, 67604, Note_off_c, 1, 54, 0
1, 67684, Note_off_c, 1, 47, 0
1, 67686, Note_on_c, 1, 57, 127
1, 67686, Note_on_c, 1, 38, 127
1, 67924, Note_off_c, 1, 57, 0
1, 67926, Note_on_c, 1, 55, 127
1, 68164, Note_off_c, 1, 38, 0
1, 68164, Note_off_c, 1, 55, 0
1, 68166, Note_on_c, 1, 54, 127
1, 68166, Note_on_c, 1, 50, 127
1, 68404, Note_off_c, 1, 54, 0
1, 68406, Note_on_c, 1, 52, 127
1, 68641, Note_off_c, 1, 50, 0
1, 68643, Note_off_c, 1, 52, 0
1, 68645, Note_on_c, 1, 50, 127
1, 68885, Note_on_c, 1, 48, 127
1, 69123, Note_off_c, 1, 50, 0
1, 69123, Note_off_c, 1, 48, 0
1, 69125, Note_on_c, 1, 47, 127
1, 69125, Note_on_c, 1, 62, 127
1, 69363, Note_off_c, 1, 47, 0
1, 69365, Note_on_c, 1, 48, 127
1, 69483, Note_off_c, 1, 48, 0
1, 69485, Note_on_c, 1, 50, 127
1, 69603, Note_off_c, 1, 62, 0
1, 69603, Note_off_c, 1, 50, 0
1, 69605, Note_on_c, 1, 64, 127
1, 69605, Note_on_c, 1, 48, 127
1, 69843, Note_off_c, 1, 64, 0
1, 69843, Note_off_c, 1, 48, 0
1, 69845, Note_on_c, 1, 66, 127
1, 69845, Note_on_c, 1, 50, 127
1, 69963, Note_off_c, 1, 66, 0
1, 69963, Note_off_c, 1, 50, 0
1, 69965, Note_on_c, 1, 67, 127
1, 69965, Note_on_c, 1, 52, 127
1, 70083, Note_off_c, 1, 67, 0
1, 70083, Note_off_c, 1, 52, 0
1, 70085, Note_on_c, 1, 66, 127
1, 70085, Note_on_c, 1, 45, 127
1, 70323, Note_off_c, 1, 66, 0
1, 70323, Note_off_c, 1, 45, 0
1, 70325, Note_on_c, 1, 67, 127
1, 70325, Note_on_c, 1, 47, 127
1, 70443, Note_off_c, 1, 67, 0
1, 70443, Note_off_c, 1, 47, 0
1, 70445, Note_on_c, 1, 69, 127
1, 70445, Note_on_c, 1, 48, 127
1, 70563, Note_off_c, 1, 69, 0
1, 70563, Note_off_c, 1, 48, 0
1, 70565, Note_on_c, 1, 67, 127
1, 70565, Note_on_c, 1, 47, 127
1, 70684, Note_off_c, 1, 67, 0
1, 70685, Note_on_c, 1, 66, 127
1, 70803, Note_off_c, 1, 47, 0
1, 70804, Note_off_c, 1, 66, 0
1, 70805, Note_on_c, 1, 48, 127
1, 70805, Note_on_c, 1, 67, 127
1, 70923, Note_off_c, 1, 48, 0
1, 70925, Note_on_c, 1, 50, 127
1, 71043, Note_off_c, 1, 50, 0
1, 71045, Note_on_c, 1, 52, 127
1, 71280, Note_off_c, 1, 67, 0
1, 71282, Note_off_c, 1, 52, 0
1, 71284, Note_on_c, 1, 69, 127
1, 71284, Note_on_c, 1, 54, 127
1, 71402, Note_off_c, 1, 69, 0
1, 71402, Note_off_c, 1, 54, 0
1, 71404, Note_on_c, 1, 71, 127
1, 71404, Note_on_c, 1, 55, 127
1, 71522, Note_off_c, 1, 71, 0
1, 71522, Note_off_c, 1, 55, 0
1, 71524, Note_on_c, 1, 69, 127
1, 71524, Note_on_c, 1, 54, 127
1, 71762, Note_off_c, 1, 69, 0
1, 71762, Note_off_c, 1, 54, 0
1, 71764, Note_on_c, 1, 71, 127
1, 71764, Note_on_c, 1, 55, 127
1, 71882, Note_off_c, 1, 71, 0
1, 71882, Note_off_c, 1, 55, 0
1, 71884, Note_on_c, 1, 72, 127
1, 71884, Note_on_c, 1, 57, 127
1, 72002, Note_off_c, 1, 72, 0
1, 72002, Note_off_c, 1, 57, 0
1, 72004, Note_on_c, 1, 71, 127
1, 72004, Note_on_c, 1, 55, 127
1, 72242, Note_off_c, 1, 71, 0
1, 72242, Note_off_c, 1, 55, 0
1, 72244, Note_on_c, 1, 66, 127
1, 72244, Note_on_c, 1, 57, 127
1, 72482, Note_off_c, 1, 66, 0
1, 72482, Note_off_c, 1, 57, 0
1, 72484, Note_on_c, 1, 67, 127
1, 72484, Note_on_c, 1, 59, 127
1, 72722, Note_off_c, 1, 67, 0
1, 72722, Note_off_c, 1, 59, 0
1, 72724, Note_on_c, 1, 62, 127
1, 72724, Note_on_c, 1, 55, 127
1, 72962, Note_off_c, 1, 62, 0
1, 72962, Note_off_c, 1, 55, 0
1, 72964, Note_on_c, 1, 64, 127
1, 72964, Note_on_c, 1, 60, 127
1, 73202, Note_off_c, 1, 64, 0
1, 73202, Note_off_c, 1, 60, 0
1, 73204, Note_on_c, 1, 67, 127
1, 73204, Note_on_c, 1, 59, 127
1, 73442, Note_off_c, 1, 67, 0
1, 73442, Note_off_c, 1, 59, 0
1, 73444, Note_on_c, 1, 62, 127
1, 73444, Note_on_c, 1, 57, 127
1, 73682, Note_off_c, 1, 62, 0
1, 73682, Note_off_c, 1, 57, 0
1, 73684, Note_on_c, 1, 60, 127
1, 73684, Note_on_c, 1, 52, 127
1, 73764, Note_off_c, 1, 60, 0
1, 73764, Note_on_c, 1, 62, 127
1, 73844, Note_off_c, 1, 62, 0
1, 73922, Note_off_c, 1, 52, 0
1, 73924, Note_on_c, 1, 54, 127
1, 74162, Note_off_c, 1, 54, 0
1, 74164, Note_on_c, 1, 50, 127
1, 74244, Note_on_c, 1, 59, 127
1, 74324, Note_off_c, 1, 59, 0
1, 74402, Note_off_c, 1, 50, 0
1, 74404, Note_on_c, 1, 55, 127
1, 74642, Note_off_c, 1, 55, 0
1, 74644, Note_on_c, 1, 47, 127
1, 74882, Note_off_c, 1, 47, 0
1, 74884, Note_on_c, 1, 64, 127
1, 74884, Note_on_c, 1, 48, 127
1, 75122, Note_off_c, 1, 64, 0
1, 75124, Note_on_c, 1, 66, 127
1, 75242, Note_off_c, 1, 66, 0
1, 75244, Note_on_c, 1, 67, 127
1, 75362, Note_off_c, 1, 67, 0
1, 75364, Note_on_c, 1, 69, 127
1, 75559, Note_off_c, 1, 48, 0
1, 75601, Note_off_c, 1, 69, 0
1, 75603, Note_on_c, 1, 71, 127
1, 75603, Note_on_c, 1, 50, 127
1, 75721, Note_off_c, 1, 71, 0
1, 75721, Note_off_c, 1, 50, 0
1, 75723, Note_on_c, 1, 72, 127
1, 75723, Note_on_c, 1, 52, 127
1, 75841, Note_off_c, 1, 72, 0
1, 75841, Note_off_c, 1, 52, 0
1, 75843, Note_on_c, 1, 66, 127
1, 75843, Note_on_c, 1, 45, 127
1, 76081, Note_off_c, 1, 66, 0
1, 76081, Note_off_c, 1, 45, 0
1, 76083, Note_on_c, 1, 67, 127
1, 76083, Note_on_c, 1, 47, 127
1, 76201, Note_off_c, 1, 67, 0
1, 76201, Note_off_c, 1, 47, 0
1, 76203, Note_on_c, 1, 69, 127
1, 76203, Note_on_c, 1, 48, 127
1, 76321, Note_off_c, 1, 69, 0
1, 76321, Note_off_c, 1, 48, 0
1, 76323, Note_on_c, 1, 62, 127
1, 76323, Note_on_c, 1, 47, 127
1, 76561, Note_off_c, 1, 62, 0
1, 76563, Note_on_c, 1, 64, 127
1, 76681, Note_off_c, 1, 64, 0
1, 76683, Note_on_c, 1, 66, 127
1, 76801, Note_off_c, 1, 66, 0
1, 76803, Note_on_c, 1, 67, 127
1, 76998, Note_off_c, 1, 47, 0
1, 77040, Note_off_c, 1, 67, 0
1, 77042, Note_on_c, 1, 69, 127
1, 77042, Note_on_c, 1, 48, 127
1, 77160, Note_off_c, 1, 69, 0
1, 77160, Note_off_c, 1, 48, 0
1, 77162, Note_on_c, 1, 71, 127
1, 77162, Note_on_c, 1, 50, 127
1, 77280, Note_off_c, 1, 71, 0
1, 77280, Note_off_c, 1, 50, 0
1, 77282, Note_on_c, 1, 64, 127
1, 77282, Note_on_c, 1, 48, 127
1, 77520, Note_off_c, 1, 64, 0
1, 77520, Note_off_c, 1, 48, 0
1, 77522, Note_on_c, 1, 66, 127
1, 77522, Note_on_c, 1, 50, 127
1, 77640, Note_off_c, 1, 66, 0
1, 77640, Note_off_c, 1, 50, 0
1, 77642, Note_on_c, 1, 67, 127
1, 77642, Note_on_c, 1, 52, 127
1, 77760, Note_off_c, 1, 67, 0
1, 77760, Note_off_c, 1, 52, 0
1, 77762, Note_on_c, 1, 60, 127
1, 77762, Note_on_c, 1, 45, 127
1, 78000, Note_off_c, 1, 60, 0
1, 78000, Note_off_c, 1, 45, 0
1, 78002, Note_on_c, 1, 62, 127
1, 78002, Note_on_c, 1, 47, 127
1, 78120, Note_off_c, 1, 62, 0
1, 78120, Note_off_c, 1, 47, 0
1, 78122, Note_on_c, 1, 64, 127
1, 78122, Note_on_c, 1, 48, 127
1, 78240, Note_off_c, 1, 64, 0
1, 78240, Note_off_c, 1, 48, 0
1, 78242, Note_on_c, 1, 59, 127
1, 78242, Note_on_c, 1, 50, 127
1, 78402, Note_off_c, 1, 59, 0
1, 78402, Note_on_c, 1, 57, 127
1, 78480, Note_off_c, 1, 50, 0
1, 78482, Note_off_c, 1, 57, 0
1, 78482, Note_on_c, 1, 48, 127
1, 78720, Note_off_c, 1, 48, 0
1, 78962, Note_on_c, 1, 55, 127
1, 78962, Note_on_c, 1, 38, 127
1, 79200, Note_off_c, 1, 55, 0
1, 79200, Note_off_c, 1, 38, 0
1, 79202, Note_on_c, 1, 43, 127
1, 79202, Note_on_c, 1, 55, 127
1, 79440, Note_off_c, 1, 43, 0
1, 79442, Note_on_c, 1, 47, 127
1, 79680, Note_off_c, 1, 47, 0
1, 79682, Note_on_c, 1, 50, 127
1, 79920, Note_off_c, 1, 50, 0
1, 80640, Note_off_c, 1, 55, 0
1, 80658, Note_on_c, 1, 71, 127
1, 80658, Note_on_c, 1, 55, 127
1, 81138, Note_on_c, 1, 57, 127
1, 81376, Note_off_c, 1, 71, 0
1, 81376, Note_off_c, 1, 57, 0
1, 81378, Note_on_c, 1, 69, 127
1, 81378, Note_on_c, 1, 59, 127
1, 81496, Note_off_c, 1, 69, 0
1, 81498, Note_on_c, 1, 67, 127
1, 81616, Note_off_c, 1, 59, 0
1, 81616, Note_off_c, 1, 67, 0
1, 81618, Note_on_c, 1, 60, 127
1, 81618, Note_on_c, 1, 66, 127
1, 81856, Note_off_c, 1, 60, 0
1, 81856, Note_off_c, 1, 66, 0
1, 81978, Note_on_c, 1, 64, 127
1, 82096, Note_off_c, 1, 55, 0
1, 82096, Note_off_c, 1, 64, 0
1, 82098, Note_on_c, 1, 63, 127
1, 82098, Note_on_c, 1, 54, 127
1, 82338, Note_on_c, 1, 57, 127
1, 82576, Note_off_c, 1, 57, 0
1, 82578, Note_on_c, 1, 59, 127
1, 82816, Note_off_c, 1, 63, 0
1, 82816, Note_off_c, 1, 59, 0
1, 82818, Note_on_c, 1, 64, 127
1, 82818, Note_on_c, 1, 60, 127
1, 82936, Note_off_c, 1, 64, 0
1, 82938, Note_on_c, 1, 66, 127
1, 83056, Note_off_c, 1, 66, 0
1, 83057, Note_off_c, 1, 54, 0
1, 83058, Note_on_c, 1, 67, 127
1, 83058, Note_on_c, 1, 52, 127
1, 83293, Note_off_c, 1, 60, 0
1, 83295, Note_off_c, 1, 67, 0
1, 83297, Note_on_c, 1, 69, 127
1, 83415, Note_off_c, 1, 69, 0
1, 83417, Note_on_c, 1, 71, 127
1, 83532, Note_off_c, 1, 52, 0
1, 83534, Note_off_c, 1, 71, 0
1, 83536, Note_on_c, 1, 72, 127
1, 83536, Note_on_c, 1, 51, 127
1, 83773, Note_off_c, 1, 72, 0
1, 84015, Note_on_c, 1, 75, 127
1, 84253, Note_off_c, 1, 75, 0
1, 84255, Note_on_c, 1, 76, 127
1, 84373, Note_off_c, 1, 76, 0
1, 84375, Note_on_c, 1, 78, 127
1, 84493, Note_off_c, 1, 78, 0
1, 84495, Note_on_c, 1, 55, 127
1, 84733, Note_off_c, 1, 55, 0
1, 84973, Note_off_c, 1, 51, 0
1, 84975, Note_on_c, 1, 69, 127
1, 84975, Note_on_c, 1, 52, 127
1, 85135, Note_off_c, 1, 69, 0
1, 85135, Note_on_c, 1, 67, 127
1, 85213, Note_off_c, 1, 52, 0
1, 85213, Note_off_c, 1, 67, 0
1, 85215, Note_on_c, 1, 69, 127
1, 85215, Note_on_c, 1, 51, 127
1, 85293, Note_off_c, 1, 69, 0
1, 85295, Note_on_c, 1, 67, 127
1, 85373, Note_off_c, 1, 67, 0
1, 85453, Note_off_c, 1, 51, 0
1, 85455, Note_on_c, 1, 52, 127
1, 85455, Note_on_c, 1, 67, 127
1, 85693, Note_off_c, 1, 52, 0
1, 85693, Note_off_c, 1, 67, 0
1, 85695, Note_on_c, 1, 47, 127
1, 85695, Note_on_c, 1, 66, 127
1, 85933, Note_off_c, 1, 47, 0
1, 85933, Note_off_c, 1, 66, 0
1, 85935, Note_on_c, 1, 43, 127
1, 85935, Note_on_c, 1, 64, 127
1, 86173, Note_off_c, 1, 43, 0
1, 86175, Note_on_c, 1, 47, 127
1, 86413, Note_off_c, 1, 64, 0
1, 86413, Note_off_c, 1, 47, 0
1, 86415, Note_on_c, 1, 40, 127
1, 86415, Note_on_c, 1, 73, 127
1, 86653, Note_off_c, 1, 40, 0
1, 86655, Note_on_c, 1, 52, 127
1, 86773, Note_off_c, 1, 52, 0
1, 86775, Note_on_c, 1, 50, 127
1, 86893, Note_off_c, 1, 50, 0
1, 87133, Note_off_c, 1, 73, 0
1, 87135, Note_on_c, 1, 74, 127
1, 87135, Note_on_c, 1, 54, 127
1, 87253, Note_off_c, 1, 74, 0
1, 87255, Note_on_c, 1, 76, 127
1, 87373, Note_off_c, 1, 54, 0
1, 87373, Note_off_c, 1, 76, 0
1, 87375, Note_on_c, 1, 55, 127
1, 87375, Note_on_c, 1, 70, 127
1, 87613, Note_off_c, 1, 55, 0
1, 87613, Note_off_c, 1, 70, 0
1, 87615, Note_on_c, 1, 71, 127
1, 87615, Note_on_c, 1, 52, 127
1, 87733, Note_off_c, 1, 71, 0
1, 87735, Note_on_c, 1, 73, 127
1, 87853, Note_off_c, 1, 52, 0
1, 87853, Note_off_c, 1, 73, 0
1, 87855, Note_on_c, 1, 66, 127
1, 87855, Note_on_c, 1, 58, 127
1, 88095, Note_on_c, 1, 55, 127
1, 88333, Note_off_c, 1, 55, 0
1, 88335, Note_on_c, 1, 54, 127
1, 88573, Note_off_c, 1, 66, 0
1, 88573, Note_off_c, 1, 54, 0
1, 88575, Note_on_c, 1, 68, 127
1, 88575, Note_on_c, 1, 52, 127
1, 88693, Note_off_c, 1, 68, 0
1, 88695, Note_on_c, 1, 70, 127
1, 88813, Note_off_c, 1, 52, 0
1, 88813, Note_off_c, 1, 70, 0
1, 88814, Note_off_c, 1, 58, 0
1, 88815, Note_on_c, 1, 50, 127
1, 88815, Note_on_c, 1, 71, 127
1, 89053, Note_off_c, 1, 50, 0
1, 89053, Note_off_c, 1, 71, 0
1, 89055, Note_on_c, 1, 73, 127
1, 89055, Note_on_c, 1, 59, 127
1, 89173, Note_off_c, 1, 73, 0
1, 89175, Note_on_c, 1, 74, 127
1, 89293, Note_off_c, 1, 59, 0
1, 89293, Note_off_c, 1, 74, 0
1, 89295, Note_on_c, 1, 55, 127
1, 89295, Note_on_c, 1, 76, 127
1, 89533, Note_off_c, 1, 55, 0
1, 89533, Note_off_c, 1, 76, 0
1, 89535, Note_on_c, 1, 78, 127
1, 89535, Note_on_c, 1, 52, 127
1, 89653, Note_off_c, 1, 78, 0
1, 89655, Note_on_c, 1, 79, 127
1, 89773, Note_off_c, 1, 52, 0
1, 89773, Note_off_c, 1, 79, 0
1, 89775, Note_on_c, 1, 74, 127
1, 89775, Note_on_c, 1, 54, 127
1, 89935, Note_off_c, 1, 74, 0
1, 89935, Note_on_c, 1, 73, 127
1, 90013, Note_off_c, 1, 54, 0
1, 90015, Note_off_c, 1, 73, 0
1, 90015, Note_on_c, 1, 52, 127
1, 90253, Note_off_c, 1, 52, 0
1, 90495, Note_on_c, 1, 42, 127
1, 90495, Note_on_c, 1, 71, 127
1, 90733, Note_off_c, 1, 42, 0
1, 90733, Note_off_c, 1, 71, 0
1, 90735, Note_on_c, 1, 47, 127
1, 90735, Note_on_c, 1, 71, 127
1, 90973, Note_off_c, 1, 47, 0
1, 90975, Note_on_c, 1, 50, 127
1, 91213, Note_off_c, 1, 50, 0
1, 91215, Note_on_c, 1, 54, 127
1, 91453, Note_off_c, 1, 54, 0
1, 91935, Note_off_c, 1, 71, 0
1, 92175, Note_on_c, 1, 44, 127
1, 92175, Note_on_c, 1, 62, 127
1, 92413, Note_off_c, 1, 44, 0
1, 92415, Note_on_c, 1, 47, 127
1, 92653, Note_off_c, 1, 47, 0
1, 92655, Note_on_c, 1, 52, 127
1, 92893, Note_off_c, 1, 62, 0
1, 92893, Note_off_c, 1, 52, 0
1, 92895, Note_on_c, 1, 64, 127
1, 92895, Note_on_c, 1, 47, 127
1, 93013, Note_off_c, 1, 64, 0
1, 93015, Note_on_c, 1, 65, 127
1, 93133, Note_off_c, 1, 47, 0
1, 93133, Note_off_c, 1, 65, 0
1, 93135, Note_on_c, 1, 44, 127
1, 93135, Note_on_c, 1, 64, 127
1, 93373, Note_off_c, 1, 44, 0
1, 93373, Note_off_c, 1, 64, 0
1, 93375, Note_on_c, 1, 65, 127
1, 93375, Note_on_c, 1, 52, 127
1, 93493, Note_off_c, 1, 65, 0
1, 93495, Note_on_c, 1, 62, 127
1, 93613, Note_off_c, 1, 52, 0
1, 93613, Note_off_c, 1, 62, 0
1, 93615, Note_on_c, 1, 62, 127
1, 93615, Note_on_c, 1, 45, 127
1, 93775, Note_off_c, 1, 62, 0
1, 93775, Note_on_c, 1, 60, 127
1, 93853, Note_off_c, 1, 45, 0
1, 93855, Note_off_c, 1, 60, 0
1, 93855, Note_on_c, 1, 48, 127
1, 94093, Note_off_c, 1, 48, 0
1, 94095, Note_on_c, 1, 52, 127
1, 94333, Note_off_c, 1, 52, 0
1, 94335, Note_on_c, 1, 55, 127
1, 94335, Note_on_c, 1, 59, 127
1, 94573, Note_off_c, 1, 55, 0
1, 94573, Note_off_c, 1, 59, 0
1, 94575, Note_on_c, 1, 54, 127
1, 94575, Note_on_c, 1, 60, 127
1, 94813, Note_off_c, 1, 54, 0
1, 94813, Note_off_c, 1, 60, 0
1, 94815, Note_on_c, 1, 52, 127
1, 94815, Note_on_c, 1, 64, 127
1, 95053, Note_off_c, 1, 52, 0
1, 95053, Note_off_c, 1, 64, 0
1, 95055, Note_on_c, 1, 54, 127
1, 95055, Note_on_c, 1, 69, 127
1, 95293, Note_off_c, 1, 54, 0
1, 95295, Note_on_c, 1, 55, 127
1, 95413, Note_off_c, 1, 55, 0
1, 95415, Note_on_c, 1, 57, 127
1, 95533, Note_off_c, 1, 57, 0
1, 95535, Note_on_c, 1, 50, 127
1, 95773, Note_off_c, 1, 69, 0
1, 95773, Note_off_c, 1, 50, 0
1, 95775, Note_on_c, 1, 52, 127
1, 95775, Note_on_c, 1, 60, 127
1, 95893, Note_off_c, 1, 52, 0
1, 95895, Note_on_c, 1, 54, 127
1, 96013, Note_off_c, 1, 60, 0
1, 96013, Note_off_c, 1, 54, 0
1, 96015, Note_on_c, 1, 55, 127
1, 96015, Note_on_c, 1, 59, 127
1, 96253, Note_off_c, 1, 55, 0
1, 96253, Note_off_c, 1, 59, 0
1, 96255, Note_on_c, 1, 57, 127
1, 96255, Note_on_c, 1, 60, 127
1, 96373, Note_off_c, 1, 57, 0
1, 96373, Note_off_c, 1, 60, 0
1, 96375, Note_on_c, 1, 59, 127
1, 96375, Note_on_c, 1, 62, 127
1, 96493, Note_off_c, 1, 59, 0
1, 96493, Note_off_c, 1, 62, 0
1, 96495, Note_on_c, 1, 59, 127
1, 96495, Note_on_c, 1, 50, 127
1, 96733, Note_off_c, 1, 59, 0
1, 96735, Note_on_c, 1, 57, 127
1, 96973, Note_off_c, 1, 50, 0
1, 96973, Note_off_c, 1, 57, 0
1, 96975, Note_on_c, 1, 55, 127
1, 96975, Note_on_c, 1, 45, 127
1, 97213, Note_off_c, 1, 55, 0
1, 97215, Note_on_c, 1, 54, 127
1, 97453, Note_off_c, 1, 45, 0
1, 97453, Note_off_c, 1, 54, 0
1, 97455, Note_on_c, 1, 52, 127
1, 97455, Note_on_c, 1, 48, 127
1, 97693, Note_off_c, 1, 52, 0
1, 97695, Note_on_c, 1, 50, 127
1, 97895, Note_off_c, 1, 50, 0
1, 97933, Note_off_c, 1, 48, 0
1, 97935, Note_on_c, 1, 47, 127
1, 97935, Note_on_c, 1, 55, 127
1, 98173, Note_off_c, 1, 47, 0
1, 98175, Note_on_c, 1, 48, 127
1, 98293, Note_off_c, 1, 48, 0
1, 98295, Note_on_c, 1, 50, 127
1, 98413, Note_off_c, 1, 50, 0
1, 98415, Note_on_c, 1, 52, 127
1, 98653, Note_off_c, 1, 55, 0
1, 98653, Note_off_c, 1, 52, 0
1, 98655, Note_on_c, 1, 54, 127
1, 98655, Note_on_c, 1, 57, 127
1, 98773, Note_off_c, 1, 54, 0
1, 98773, Note_off_c, 1, 57, 0
1, 98775, Note_on_c, 1, 55, 127
1, 98775, Note_on_c, 1, 59, 127
1, 98893, Note_off_c, 1, 55, 0
1, 98893, Note_off_c, 1, 59, 0
1, 98895, Note_on_c, 1, 45, 127
1, 98895, Note_on_c, 1, 60, 127
1, 99133, Note_off_c, 1, 45, 0
1, 99133, Note_off_c, 1, 60, 0
1, 99135, Note_on_c, 1, 47, 127
1, 99135, Note_on_c, 1, 62, 127
1, 99253, Note_off_c, 1, 47, 0
1, 99253, Note_off_c, 1, 62, 0
1, 99255, Note_on_c, 1, 48, 127
1, 99255, Note_on_c, 1, 64, 127
1, 99373, Note_off_c, 1, 48, 0
1, 99373, Note_off_c, 1, 64, 0
1, 99375, Note_on_c, 1, 50, 127
1, 99375, Note_on_c, 1, 54, 127
1, 99613, Note_off_c, 1, 50, 0
1, 99613, Note_off_c, 1, 54, 0
1, 99615, Note_on_c, 1, 52, 127
1, 99615, Note_on_c, 1, 55, 127
1, 99733, Note_off_c, 1, 52, 0
1, 99733, Note_off_c, 1, 55, 0
1, 99735, Note_on_c, 1, 54, 127
1, 99735, Note_on_c, 1, 57, 127
1, 99853, Note_off_c, 1, 54, 0
1, 99853, Note_off_c, 1, 57, 0
1, 99855, Note_on_c, 1, 43, 127
1, 99855, Note_on_c, 1, 59, 127
1, 100093, Note_off_c, 1, 43, 0
1, 100093, Note_off_c, 1, 59, 0
1, 100095, Note_on_c, 1, 45, 127
1, 100095, Note_on_c, 1, 60, 127
1, 100213, Note_off_c, 1, 45, 0
1, 100213, Note_off_c, 1, 60, 0
1, 100215, Note_on_c, 1, 47, 127
1, 100215, Note_on_c, 1, 62, 127
1, 100333, Note_off_c, 1, 47, 0
1, 100333, Note_off_c, 1, 62, 0
1, 100335, Note_on_c, 1, 64, 127
1, 100335, Note_on_c, 1, 48, 127
1, 100573, Note_off_c, 1, 64, 0
1, 100575, Note_on_c, 1, 66, 127
1, 100693, Note_off_c, 1, 66, 0
1, 100695, Note_on_c, 1, 67, 127
1, 100813, Note_off_c, 1, 67, 0
1, 100815, Note_on_c, 1, 69, 127
1, 101058, Note_off_c, 1, 48, 0
1, 101058, Note_off_c, 1, 69, 0
1, 101061, Note_on_c, 1, 47, 127
1, 101061, Note_on_c, 1, 66, 127
1, 101181, Note_off_c, 1, 47, 0
1, 101181, Note_off_c, 1, 66, 0
1, 101184, Note_on_c, 1, 45, 127
1, 101184, Note_on_c, 1, 67, 127
1, 101304, Note_off_c, 1, 45, 0
1, 101304, Note_off_c, 1, 67, 0
1, 101307, Note_on_c, 1, 50, 127
1, 101307, Note_on_c, 1, 60, 127
1, 101555, Note_off_c, 1, 50, 0
1, 101555, Note_off_c, 1, 60, 0
1, 101558, Note_on_c, 1, 48, 127
1, 101558, Note_on_c, 1, 59, 127
1, 101806, Note_off_c, 1, 48, 0
1, 101806, Note_off_c, 1, 59, 0
1, 101809, Note_on_c, 1, 50, 127
1, 101809, Note_on_c, 1, 57, 127
1, 102057, Note_off_c, 1, 50, 0
1, 102057, Note_off_c, 1, 57, 0
1, 102060, Note_on_c, 1, 38, 127
1, 102060, Note_on_c, 1, 55, 127
1, 102308, Note_off_c, 1, 38, 0
1, 102308, Note_off_c, 1, 55, 0
1, 102311, Note_on_c, 1, 43, 127
1, 102311, Note_on_c, 1, 55, 127
1, 102592, Note_on_c, 1, 50, 127
1, 102870, Note_off_c, 1, 50, 0
1, 102873, Note_on_c, 1, 47, 127
1, 103153, Note_off_c, 1, 43, 0
1, 103429, Note_off_c, 1, 47, 0
1, 104360, Note_off_c, 1, 55, 0
1, 104360, End_track
0, 0, End_of_file