0, 0, Header, 1, 1, 480
1, 0, Start_track
1, 0, Title_t, "Test"
1, 0, Tempo, 500000
1, 0, Instrument_name_t, "Church Organ"
1, 64, Note_on_c, 1, 50, 127
1, 64, Note_on_c, 1, 74, 127
1, 126, Note_off_c, 1, 50, 0
1, 129, Note_on_c, 1, 49, 127
1, 191, Note_off_c, 1, 49, 0
1, 323, Note_off_c, 1, 74, 0
1, 324, Note_on_c, 1, 72, 127
1, 447, Note_off_c, 1, 72, 0
1, 455, Note_on_c, 1, 70, 127
1, 578, Note_off_c, 1, 70, 0
1, 585, Note_on_c, 1, 69, 127
1, 585, Note_on_c, 1, 38, 127
1, 708, Note_off_c, 1, 69, 0
1, 716, Note_on_c, 1, 67, 127
1, 839, Note_off_c, 1, 67, 0
1, 846, Note_on_c, 1, 65, 127
1, 969, Note_off_c, 1, 65, 0
1, 976, Note_on_c, 1, 64, 127
1, 1099, Note_off_c, 1, 64, 0
1, 1107, Note_on_c, 1, 62, 127
1, 1230, Note_off_c, 1, 62, 0
1, 1626, Note_off_c, 1, 38, 0
1, 1629, Note_on_c, 1, 70, 127
1, 1752, Note_off_c, 1, 70, 0
1, 1760, Note_on_c, 1, 67, 127
1, 1883, Note_off_c, 1, 67, 0
1, 1890, Note_on_c, 1, 62, 127
1, 1890, Note_on_c, 1, 38, 127
1, 2013, Note_off_c, 1, 62, 0
1, 2021, Note_on_c, 1, 67, 127
1, 2144, Note_off_c, 1, 67, 0
1, 2148, Note_off_c, 1, 38, 0
1, 2151, Note_on_c, 1, 70, 127
1, 2151, Note_on_c, 1, 43, 127
1, 2274, Note_off_c, 1, 70, 0
1, 2281, Note_on_c, 1, 67, 127
1, 2404, Note_off_c, 1, 67, 0
1, 2409, Note_off_c, 1, 43, 0
1, 2412, Note_on_c, 1, 62, 127
1, 2412, Note_on_c, 1, 46, 127
1, 2535, Note_off_c, 1, 62, 0
1, 2542, Note_on_c, 1, 67, 127
1, 2665, Note_off_c, 1, 67, 0
1, 2670, Note_off_c, 1, 46, 0
1, 2673, Note_on_c, 1, 50, 127
1, 2673, Note_on_c, 1, 70, 127
1, 2735, Note_off_c, 1, 50, 0
1, 2738, Note_on_c, 1, 49, 127
1, 2796, Note_off_c, 1, 70, 0
1, 2800, Note_off_c, 1, 49, 0
1, 2803, Note_on_c, 1, 67, 127
1, 2803, Note_on_c, 1, 50, 127
1, 2926, Note_off_c, 1, 67, 0
1, 2933, Note_on_c, 1, 62, 127
1, 3056, Note_off_c, 1, 62, 0
1, 3183, Note_off_c, 1, 50, 0
1, 3195, Note_on_c, 1, 69, 127
1, 3318, Note_off_c, 1, 69, 0
1, 3326, Note_on_c, 1, 67, 127
1, 3449, Note_off_c, 1, 67, 0
1, 3456, Note_on_c, 1, 62, 127
1, 3456, Note_on_c, 1, 38, 127
1, 3579, Note_off_c, 1, 62, 0
1, 3586, Note_on_c, 1, 67, 127
1, 3709, Note_off_c, 1, 67, 0
1, 3714, Note_off_c, 1, 38, 0
1, 3717, Note_on_c, 1, 69, 127
1, 3717, Note_on_c, 1, 41, 127
1, 3840, Note_off_c, 1, 69, 0
1, 3847, Note_on_c, 1, 65, 127
1, 3970, Note_off_c, 1, 65, 0
1, 3975, Note_off_c, 1, 41, 0
1, 3978, Note_on_c, 1, 62, 127
1, 3978, Note_on_c, 1, 45, 127
1, 4101, Note_off_c, 1, 62, 0
1, 4108, Note_on_c, 1, 65, 127
1, 4231, Note_off_c, 1, 65, 0
1, 4236, Note_off_c, 1, 45, 0
1, 4238, Note_on_c, 1, 50, 127
1, 4238, Note_on_c, 1, 69, 127
1, 4300, Note_off_c, 1, 50, 0
1, 4304, Note_on_c, 1, 49, 127
1, 4361, Note_off_c, 1, 69, 0
1, 4366, Note_off_c, 1, 49, 0
1, 4369, Note_on_c, 1, 65, 127
1, 4369, Note_on_c, 1, 50, 127
1, 4492, Note_off_c, 1, 65, 0
1, 4499, Note_on_c, 1, 62, 127
1, 4622, Note_off_c, 1, 62, 0
1, 4749, Note_off_c, 1, 50, 0
1, 4761, Note_on_c, 1, 67, 127
1, 4884, Note_off_c, 1, 67, 0
1, 4891, Note_on_c, 1, 64, 127
1, 5014, Note_off_c, 1, 64, 0
1, 5022, Note_on_c, 1, 62, 127
1, 5022, Note_on_c, 1, 58, 127
1, 5145, Note_off_c, 1, 62, 0
1, 5152, Note_on_c, 1, 64, 127
1, 5275, Note_off_c, 1, 64, 0
1, 5280, Note_off_c, 1, 58, 0
1, 5283, Note_on_c, 1, 67, 127
1, 5283, Note_on_c, 1, 52, 127
1, 5406, Note_off_c, 1, 67, 0
1, 5413, Note_on_c, 1, 64, 127
1, 5536, Note_off_c, 1, 64, 0
1, 5541, Note_off_c, 1, 52, 0
1, 5543, Note_on_c, 1, 61, 127
1, 5543, Note_on_c, 1, 55, 127
1, 5666, Note_off_c, 1, 61, 0
1, 5674, Note_on_c, 1, 64, 127
1, 5797, Note_off_c, 1, 64, 0
1, 5801, Note_off_c, 1, 55, 0
1, 5804, Note_on_c, 1, 67, 127
1, 5804, Note_on_c, 1, 49, 127
1, 5927, Note_off_c, 1, 67, 0
1, 5935, Note_on_c, 1, 64, 127
1, 6058, Note_off_c, 1, 64, 0
1, 6062, Note_off_c, 1, 49, 0
1, 6065, Note_on_c, 1, 61, 127
1, 6065, Note_on_c, 1, 57, 127
1, 6188, Note_off_c, 1, 61, 0
1, 6196, Note_on_c, 1, 64, 127
1, 6319, Note_off_c, 1, 64, 0
1, 6323, Note_off_c, 1, 57, 0
1, 6327, Note_on_c, 1, 65, 127
1, 6327, Note_on_c, 1, 50, 127
1, 6457, Note_on_c, 1, 62, 127
1, 6580, Note_off_c, 1, 62, 0
1, 6588, Note_on_c, 1, 60, 127
1, 6711, Note_off_c, 1, 60, 0
1, 6718, Note_on_c, 1, 58, 127
1, 6841, Note_off_c, 1, 58, 0
1, 6843, Note_off_c, 1, 65, 0
1, 6843, Note_off_c, 1, 50, 0
1, 6848, Note_on_c, 1, 57, 127
1, 6972, Note_off_c, 1, 57, 0
1, 6979, Note_on_c, 1, 55, 127
1, 7103, Note_off_c, 1, 55, 0
1, 7109, Note_on_c, 1, 53, 127
1, 7233, Note_off_c, 1, 53, 0
1, 7240, Note_on_c, 1, 52, 127
1, 7364, Note_off_c, 1, 52, 0
1, 7370, Note_on_c, 1, 50, 127
1, 7494, Note_off_c, 1, 50, 0
1, 7500, Note_on_c, 1, 53, 127
1, 7624, Note_off_c, 1, 53, 0
1, 7631, Note_on_c, 1, 52, 127
1, 7755, Note_off_c, 1, 52, 0
1, 7762, Note_on_c, 1, 50, 127
1, 7886, Note_off_c, 1, 50, 0
1, 7893, Note_on_c, 1, 58, 127
1, 8017, Note_off_c, 1, 58, 0
1, 8023, Note_on_c, 1, 55, 127
1, 8147, Note_off_c, 1, 55, 0
1, 8153, Note_on_c, 1, 50, 127
1, 8153, Note_on_c, 1, 62, 127
1, 8277, Note_off_c, 1, 50, 0
1, 8284, Note_on_c, 1, 55, 127
1, 8408, Note_off_c, 1, 55, 0
1, 8412, Note_off_c, 1, 62, 0
1, 8414, Note_on_c, 1, 58, 127
1, 8414, Note_on_c, 1, 67, 127
1, 8538, Note_off_c, 1, 58, 0
1, 8545, Note_on_c, 1, 55, 127
1, 8669, Note_off_c, 1, 55, 0
1, 8673, Note_off_c, 1, 67, 0
1, 8675, Note_on_c, 1, 50, 127
1, 8675, Note_on_c, 1, 70, 127
1, 8799, Note_off_c, 1, 50, 0
1, 8805, Note_on_c, 1, 55, 127
1, 8929, Note_off_c, 1, 55, 0
1, 8934, Note_off_c, 1, 70, 0
1, 8936, Note_on_c, 1, 74, 127
1, 8936, Note_on_c, 1, 58, 127
1, 9021, Note_off_c, 1, 74, 0
1, 9023, Note_on_c, 1, 73, 127
1, 9060, Note_off_c, 1, 58, 0
1, 9066, Note_on_c, 1, 55, 127
1, 9108, Note_off_c, 1, 73, 0
1, 9190, Note_off_c, 1, 55, 0
1, 9197, Note_on_c, 1, 50, 127
1, 9321, Note_off_c, 1, 50, 0
1, 9458, Note_on_c, 1, 57, 127
1, 9582, Note_off_c, 1, 57, 0
1, 9719, Note_on_c, 1, 62, 127
1, 9978, Note_off_c, 1, 62, 0
1, 9980, Note_on_c, 1, 57, 127
1, 9980, Note_on_c, 1, 65, 127
1, 10104, Note_off_c, 1, 57, 0
1, 10110, Note_on_c, 1, 53, 127
1, 10234, Note_off_c, 1, 53, 0
1, 10239, Note_off_c, 1, 65, 0
1, 10241, Note_on_c, 1, 50, 127
1, 10241, Note_on_c, 1, 69, 127
1, 10365, Note_off_c, 1, 50, 0
1, 10371, Note_on_c, 1, 53, 127
1, 10495, Note_off_c, 1, 53, 0
1, 10500, Note_off_c, 1, 69, 0
1, 10502, Note_on_c, 1, 74, 127
1, 10502, Note_on_c, 1, 57, 127
1, 10587, Note_off_c, 1, 74, 0
1, 10589, Note_on_c, 1, 73, 127
1, 10626, Note_off_c, 1, 57, 0
1, 10632, Note_on_c, 1, 53, 127
1, 10674, Note_off_c, 1, 73, 0
1, 10756, Note_off_c, 1, 53, 0
1, 10763, Note_on_c, 1, 50, 127
1, 10887, Note_off_c, 1, 50, 0
1, 11024, Note_on_c, 1, 55, 127
1, 11148, Note_off_c, 1, 55, 0
1, 11155, Note_on_c, 1, 52, 127
1, 11279, Note_off_c, 1, 52, 0
1, 11285, Note_on_c, 1, 50, 127
1, 11285, Note_on_c, 1, 67, 127
1, 11409, Note_off_c, 1, 50, 0
1, 11415, Note_on_c, 1, 52, 127
1, 11539, Note_off_c, 1, 52, 0
1, 11544, Note_off_c, 1, 67, 0
1, 11546, Note_on_c, 1, 55, 127
1, 11546, Note_on_c, 1, 73, 127
1, 11670, Note_off_c, 1, 55, 0
1, 11676, Note_on_c, 1, 52, 127
1, 11800, Note_off_c, 1, 52, 0
1, 11805, Note_off_c, 1, 73, 0
1, 11807, Note_on_c, 1, 49, 127
1, 11807, Note_on_c, 1, 76, 127
1, 11931, Note_off_c, 1, 49, 0
1, 11937, Note_on_c, 1, 52, 127
1, 12061, Note_off_c, 1, 52, 0
1, 12066, Note_off_c, 1, 76, 0
1, 12067, Note_on_c, 1, 55, 127
1, 12067, Note_on_c, 1, 73, 127
1, 12191, Note_off_c, 1, 55, 0
1, 12198, Note_on_c, 1, 52, 127
1, 12322, Note_off_c, 1, 52, 0
1, 12326, Note_off_c, 1, 73, 0
1, 12329, Note_on_c, 1, 49, 127
1, 12329, Note_on_c, 1, 69, 127
1, 12453, Note_off_c, 1, 49, 0
1, 12460, Note_on_c, 1, 52, 127
1, 12584, Note_off_c, 1, 52, 0
1, 12588, Note_off_c, 1, 69, 0
1, 12590, Note_on_c, 1, 53, 127
1, 12590, Note_on_c, 1, 74, 127
1, 12714, Note_off_c, 1, 53, 0
1, 12720, Note_on_c, 1, 50, 127
1, 12844, Note_off_c, 1, 50, 0
1, 12849, Note_off_c, 1, 74, 0
1, 12851, Note_on_c, 1, 72, 127
1, 12851, Note_on_c, 1, 52, 127
1, 12974, Note_off_c, 1, 72, 0
1, 12975, Note_off_c, 1, 52, 0
1, 12981, Note_on_c, 1, 70, 127
1, 12981, Note_on_c, 1, 53, 127
1, 13104, Note_off_c, 1, 70, 0
1, 13105, Note_off_c, 1, 53, 0
1, 13112, Note_on_c, 1, 69, 127
1, 13112, Note_on_c, 1, 55, 127
1, 13235, Note_off_c, 1, 69, 0
1, 13236, Note_off_c, 1, 55, 0
1, 13242, Note_on_c, 1, 67, 127
1, 13242, Note_on_c, 1, 57, 127
1, 13365, Note_off_c, 1, 67, 0
1, 13366, Note_off_c, 1, 57, 0
1, 13372, Note_on_c, 1, 65, 127
1, 13372, Note_on_c, 1, 59, 127
1, 13495, Note_off_c, 1, 65, 0
1, 13496, Note_off_c, 1, 59, 0
1, 13503, Note_on_c, 1, 64, 127
1, 13503, Note_on_c, 1, 61, 127
1, 13626, Note_off_c, 1, 64, 0
1, 13627, Note_off_c, 1, 61, 0
1, 13633, Note_on_c, 1, 62, 127
1, 13633, Note_on_c, 1, 65, 127
1, 13757, Note_off_c, 1, 62, 0
1, 13764, Note_on_c, 1, 60, 127
1, 13828, Note_off_c, 1, 65, 0
1, 13888, Note_off_c, 1, 60, 0
1, 13895, Note_on_c, 1, 59, 127
1, 13895, Note_on_c, 1, 69, 127
1, 14019, Note_off_c, 1, 59, 0
1, 14025, Note_on_c, 1, 57, 127
1, 14149, Note_off_c, 1, 57, 0
1, 14284, Note_off_c, 1, 69, 0
1, 14286, Note_on_c, 1, 67, 127
1, 14286, Note_on_c, 1, 60, 127
1, 14409, Note_off_c, 1, 67, 0
1, 14410, Note_off_c, 1, 60, 0
1, 14417, Note_on_c, 1, 69, 127
1, 14417, Note_on_c, 1, 59, 127
1, 14540, Note_off_c, 1, 69, 0
1, 14541, Note_off_c, 1, 59, 0
1, 14547, Note_on_c, 1, 71, 127
1, 14547, Note_on_c, 1, 57, 127
1, 14670, Note_off_c, 1, 71, 0
1, 14671, Note_off_c, 1, 57, 0
1, 14677, Note_on_c, 1, 72, 127
1, 14677, Note_on_c, 1, 55, 127
1, 14800, Note_off_c, 1, 72, 0
1, 14801, Note_off_c, 1, 55, 0
1, 14808, Note_on_c, 1, 74, 127
1, 14808, Note_on_c, 1, 53, 127
1, 14931, Note_off_c, 1, 74, 0
1, 14932, Note_off_c, 1, 53, 0
1, 14938, Note_on_c, 1, 76, 127
1, 14938, Note_on_c, 1, 52, 127
1, 15061, Note_off_c, 1, 76, 0
1, 15062, Note_off_c, 1, 52, 0
1, 15069, Note_on_c, 1, 77, 127
1, 15069, Note_on_c, 1, 50, 127
1, 15192, Note_off_c, 1, 77, 0
1, 15193, Note_off_c, 1, 50, 0
1, 15199, Note_on_c, 1, 79, 127
1, 15199, Note_on_c, 1, 52, 127
1, 15322, Note_off_c, 1, 79, 0
1, 15330, Note_on_c, 1, 77, 127
1, 15453, Note_off_c, 1, 77, 0
1, 15457, Note_off_c, 1, 52, 0
1, 15461, Note_on_c, 1, 76, 127
1, 15461, Note_on_c, 1, 55, 127
1, 15584, Note_off_c, 1, 76, 0
1, 15591, Note_on_c, 1, 74, 127
1, 15714, Note_off_c, 1, 74, 0
1, 15719, Note_off_c, 1, 55, 0
1, 15722, Note_on_c, 1, 76, 127
1, 15722, Note_on_c, 1, 48, 127
1, 15845, Note_off_c, 1, 76, 0
1, 15852, Note_on_c, 1, 72, 127
1, 15975, Note_off_c, 1, 72, 0
1, 15980, Note_off_c, 1, 48, 0
1, 15982, Note_on_c, 1, 70, 127
1, 15982, Note_on_c, 1, 50, 127
1, 16105, Note_off_c, 1, 70, 0
1, 16106, Note_off_c, 1, 50, 0
1, 16113, Note_on_c, 1, 69, 127
1, 16113, Note_on_c, 1, 52, 127
1, 16236, Note_off_c, 1, 69, 0
1, 16237, Note_off_c, 1, 52, 0
1, 16243, Note_on_c, 1, 67, 127
1, 16243, Note_on_c, 1, 53, 127
1, 16366, Note_off_c, 1, 67, 0
1, 16367, Note_off_c, 1, 53, 0
1, 16374, Note_on_c, 1, 65, 127
1, 16374, Note_on_c, 1, 55, 127
1, 16497, Note_off_c, 1, 65, 0
1, 16498, Note_off_c, 1, 55, 0
1, 16504, Note_on_c, 1, 64, 127
1, 16504, Note_on_c, 1, 57, 127
1, 16627, Note_off_c, 1, 64, 0
1, 16628, Note_off_c, 1, 57, 0
1, 16634, Note_on_c, 1, 62, 127
1, 16634, Note_on_c, 1, 58, 127
1, 16757, Note_off_c, 1, 62, 0
1, 16758, Note_off_c, 1, 58, 0
1, 16765, Note_on_c, 1, 60, 127
1, 16765, Note_on_c, 1, 64, 127
1, 16889, Note_off_c, 1, 60, 0
1, 16896, Note_on_c, 1, 58, 127
1, 16960, Note_off_c, 1, 64, 0
1, 17020, Note_off_c, 1, 58, 0
1, 17027, Note_on_c, 1, 57, 127
1, 17027, Note_on_c, 1, 67, 127
1, 17151, Note_off_c, 1, 57, 0
1, 17157, Note_on_c, 1, 55, 127
1, 17281, Note_off_c, 1, 55, 0
1, 17416, Note_off_c, 1, 67, 0
1, 17418, Note_on_c, 1, 65, 127
1, 17418, Note_on_c, 1, 58, 127
1, 17541, Note_off_c, 1, 65, 0
1, 17542, Note_off_c, 1, 58, 0
1, 17548, Note_on_c, 1, 67, 127
1, 17548, Note_on_c, 1, 57, 127
1, 17671, Note_off_c, 1, 67, 0
1, 17672, Note_off_c, 1, 57, 0
1, 17679, Note_on_c, 1, 69, 127
1, 17679, Note_on_c, 1, 55, 127
1, 17802, Note_off_c, 1, 69, 0
1, 17803, Note_off_c, 1, 55, 0
1, 17809, Note_on_c, 1, 70, 127
1, 17809, Note_on_c, 1, 53, 127
1, 17932, Note_off_c, 1, 70, 0
1, 17933, Note_off_c, 1, 53, 0
1, 17939, Note_on_c, 1, 72, 127
1, 17939, Note_on_c, 1, 51, 127
1, 18062, Note_off_c, 1, 72, 0
1, 18063, Note_off_c, 1, 51, 0
1, 18070, Note_on_c, 1, 74, 127
1, 18070, Note_on_c, 1, 50, 127
1, 18193, Note_off_c, 1, 74, 0
1, 18194, Note_off_c, 1, 50, 0
1, 18200, Note_on_c, 1, 75, 127
1, 18200, Note_on_c, 1, 48, 127
1, 18323, Note_off_c, 1, 75, 0
1, 18324, Note_off_c, 1, 48, 0
1, 18331, Note_on_c, 1, 77, 127
1, 18331, Note_on_c, 1, 50, 127
1, 18454, Note_off_c, 1, 77, 0
1, 18462, Note_on_c, 1, 75, 127
1, 18585, Note_off_c, 1, 75, 0
1, 18589, Note_off_c, 1, 50, 0
1, 18592, Note_on_c, 1, 74, 127
1, 18592, Note_on_c, 1, 53, 127
1, 18715, Note_off_c, 1, 74, 0
1, 18723, Note_on_c, 1, 72, 127
1, 18846, Note_off_c, 1, 72, 0
1, 18850, Note_off_c, 1, 53, 0
1, 18853, Note_on_c, 1, 74, 127
1, 18853, Note_on_c, 1, 46, 127
1, 18976, Note_off_c, 1, 74, 0
1, 18984, Note_on_c, 1, 77, 127
1, 19107, Note_off_c, 1, 77, 0
1, 19111, Note_off_c, 1, 46, 0
1, 19114, Note_on_c, 1, 74, 127
1, 19114, Note_on_c, 1, 58, 127
1, 19237, Note_off_c, 1, 74, 0
1, 19238, Note_off_c, 1, 58, 0
1, 19244, Note_on_c, 1, 72, 127
1, 19244, Note_on_c, 1, 60, 127
1, 19367, Note_off_c, 1, 72, 0
1, 19368, Note_off_c, 1, 60, 0
1, 19375, Note_on_c, 1, 70, 127
1, 19375, Note_on_c, 1, 62, 127
1, 19498, Note_off_c, 1, 70, 0
1, 19505, Note_on_c, 1, 74, 127
1, 19628, Note_off_c, 1, 74, 0
1, 19633, Note_off_c, 1, 62, 0
1, 19636, Note_on_c, 1, 70, 127
1, 19636, Note_on_c, 1, 65, 127
1, 19759, Note_off_c, 1, 70, 0
1, 19766, Note_on_c, 1, 69, 127
1, 19889, Note_off_c, 1, 69, 0
1, 19894, Note_off_c, 1, 65, 0
1, 19897, Note_on_c, 1, 67, 127
1, 19897, Note_on_c, 1, 58, 127
1, 20020, Note_off_c, 1, 67, 0
1, 20028, Note_on_c, 1, 70, 127
1, 20151, Note_off_c, 1, 70, 0
1, 20155, Note_off_c, 1, 58, 0
1, 20158, Note_on_c, 1, 67, 127
1, 20158, Note_on_c, 1, 62, 127
1, 20281, Note_off_c, 1, 67, 0
1, 20289, Note_on_c, 1, 65, 127
1, 20412, Note_off_c, 1, 65, 0
1, 20416, Note_off_c, 1, 62, 0
1, 20419, Note_on_c, 1, 55, 127
1, 20419, Note_on_c, 1, 64, 127
1, 20543, Note_off_c, 1, 55, 0
1, 20549, Note_on_c, 1, 58, 127
1, 20636, Note_off_c, 1, 64, 0
1, 20673, Note_off_c, 1, 58, 0
1, 20680, Note_on_c, 1, 76, 127
1, 20680, Note_on_c, 1, 55, 127
1, 20803, Note_off_c, 1, 76, 0
1, 20804, Note_off_c, 1, 55, 0
1, 20810, Note_on_c, 1, 77, 127
1, 20810, Note_on_c, 1, 53, 127
1, 20933, Note_off_c, 1, 77, 0
1, 20934, Note_off_c, 1, 53, 0
1, 20941, Note_on_c, 1, 52, 127
1, 20941, Note_on_c, 1, 79, 127
1, 21065, Note_off_c, 1, 52, 0
1, 21071, Note_on_c, 1, 55, 127
1, 21195, Note_off_c, 1, 55, 0
1, 21200, Note_off_c, 1, 79, 0
1, 21201, Note_on_c, 1, 52, 127
1, 21201, Note_on_c, 1, 82, 127
1, 21325, Note_off_c, 1, 52, 0
1, 21332, Note_on_c, 1, 50, 127
1, 21456, Note_off_c, 1, 50, 0
1, 21460, Note_off_c, 1, 82, 0
1, 21463, Note_on_c, 1, 49, 127
1, 21463, Note_on_c, 1, 76, 127
1, 21587, Note_off_c, 1, 49, 0
1, 21594, Note_on_c, 1, 52, 127
1, 21718, Note_off_c, 1, 52, 0
1, 21722, Note_off_c, 1, 76, 0
1, 21724, Note_on_c, 1, 49, 127
1, 21724, Note_on_c, 1, 79, 127
1, 21848, Note_off_c, 1, 49, 0
1, 21854, Note_on_c, 1, 47, 127
1, 21978, Note_off_c, 1, 47, 0
1, 21983, Note_off_c, 1, 79, 0
1, 21985, Note_on_c, 1, 73, 127
1, 21985, Note_on_c, 1, 45, 127
1, 22108, Note_off_c, 1, 73, 0
1, 22115, Note_on_c, 1, 79, 127
1, 22236, Note_off_c, 1, 45, 0
1, 22238, Note_off_c, 1, 79, 0
1, 22246, Note_on_c, 1, 73, 127
1, 22246, Note_on_c, 1, 57, 127
1, 22369, Note_off_c, 1, 73, 0
1, 22370, Note_off_c, 1, 57, 0
1, 22376, Note_on_c, 1, 71, 127
1, 22376, Note_on_c, 1, 59, 127
1, 22499, Note_off_c, 1, 71, 0
1, 22500, Note_off_c, 1, 59, 0
1, 22506, Note_on_c, 1, 69, 127
1, 22506, Note_on_c, 1, 61, 127
1, 22629, Note_off_c, 1, 69, 0
1, 22637, Note_on_c, 1, 76, 127
1, 22760, Note_off_c, 1, 76, 0
1, 22764, Note_off_c, 1, 61, 0
1, 22767, Note_on_c, 1, 69, 127
1, 22767, Note_on_c, 1, 64, 127
1, 22890, Note_off_c, 1, 69, 0
1, 22898, Note_on_c, 1, 67, 127
1, 23021, Note_off_c, 1, 67, 0
1, 23025, Note_off_c, 1, 64, 0
1, 23029, Note_on_c, 1, 65, 127
1, 23029, Note_on_c, 1, 57, 127
1, 23152, Note_off_c, 1, 65, 0
1, 23159, Note_on_c, 1, 73, 127
1, 23282, Note_off_c, 1, 73, 0
1, 23287, Note_off_c, 1, 57, 0
1, 23290, Note_on_c, 1, 65, 127
1, 23290, Note_on_c, 1, 55, 127
1, 23413, Note_off_c, 1, 65, 0
1, 23420, Note_on_c, 1, 64, 127
1, 23543, Note_off_c, 1, 64, 0
1, 23548, Note_off_c, 1, 55, 0
1, 23551, Note_on_c, 1, 53, 127
1, 23551, Note_on_c, 1, 62, 127
1, 23675, Note_off_c, 1, 53, 0
1, 23678, Note_off_c, 1, 62, 0
1, 23681, Note_on_c, 1, 62, 127
1, 23811, Note_on_c, 1, 74, 127
1, 23811, Note_on_c, 1, 53, 127
1, 23934, Note_off_c, 1, 74, 0
1, 23935, Note_off_c, 1, 53, 0
1, 23939, Note_off_c, 1, 62, 0
1, 23942, Note_on_c, 1, 76, 127
1, 23942, Note_on_c, 1, 52, 127
1, 24065, Note_off_c, 1, 76, 0
1, 24066, Note_off_c, 1, 52, 0
1, 24072, Note_on_c, 1, 50, 127
1, 24072, Note_on_c, 1, 77, 127
1, 24196, Note_off_c, 1, 50, 0
1, 24203, Note_on_c, 1, 57, 127
1, 24327, Note_off_c, 1, 57, 0
1, 24331, Note_off_c, 1, 77, 0
1, 24333, Note_on_c, 1, 50, 127
1, 24333, Note_on_c, 1, 81, 127
1, 24457, Note_off_c, 1, 50, 0
1, 24464, Note_on_c, 1, 48, 127
1, 24588, Note_off_c, 1, 48, 0
1, 24592, Note_off_c, 1, 81, 0
1, 24595, Note_on_c, 1, 46, 127
1, 24595, Note_on_c, 1, 74, 127
1, 24719, Note_off_c, 1, 46, 0
1, 24725, Note_on_c, 1, 53, 127
1, 24849, Note_off_c, 1, 53, 0
1, 24854, Note_off_c, 1, 74, 0
1, 24856, Note_on_c, 1, 46, 127
1, 24856, Note_on_c, 1, 72, 127
1, 24980, Note_off_c, 1, 46, 0
1, 24986, Note_on_c, 1, 45, 127
1, 25110, Note_off_c, 1, 45, 0
1, 25115, Note_off_c, 1, 72, 0
1, 25116, Note_on_c, 1, 70, 127
1, 25116, Note_on_c, 1, 43, 127
1, 25239, Note_off_c, 1, 70, 0
1, 25247, Note_on_c, 1, 79, 127
1, 25370, Note_off_c, 1, 79, 0
1, 25374, Note_off_c, 1, 43, 0
1, 25377, Note_on_c, 1, 70, 127
1, 25377, Note_on_c, 1, 55, 127
1, 25500, Note_off_c, 1, 70, 0
1, 25501, Note_off_c, 1, 55, 0
1, 25508, Note_on_c, 1, 69, 127
1, 25508, Note_on_c, 1, 57, 127
1, 25631, Note_off_c, 1, 69, 0
1, 25632, Note_off_c, 1, 57, 0
1, 25638, Note_on_c, 1, 67, 127
1, 25638, Note_on_c, 1, 58, 127
1, 25761, Note_off_c, 1, 67, 0
1, 25768, Note_on_c, 1, 70, 127
1, 25891, Note_off_c, 1, 70, 0
1, 25896, Note_off_c, 1, 58, 0
1, 25899, Note_on_c, 1, 67, 127
1, 25899, Note_on_c, 1, 62, 127
1, 26022, Note_off_c, 1, 67, 0
1, 26030, Note_on_c, 1, 65, 127
1, 26153, Note_off_c, 1, 65, 0
1, 26157, Note_off_c, 1, 62, 0
1, 26161, Note_on_c, 1, 63, 127
1, 26161, Note_on_c, 1, 55, 127
1, 26284, Note_off_c, 1, 63, 0
1, 26291, Note_on_c, 1, 70, 127
1, 26414, Note_off_c, 1, 70, 0
1, 26419, Note_off_c, 1, 55, 0
1, 26421, Note_on_c, 1, 63, 127
1, 26421, Note_on_c, 1, 58, 127
1, 26544, Note_off_c, 1, 63, 0
1, 26552, Note_on_c, 1, 62, 127
1, 26675, Note_off_c, 1, 62, 0
1, 26679, Note_off_c, 1, 58, 0
1, 26682, Note_on_c, 1, 61, 127
1, 26682, Note_on_c, 1, 57, 127
1, 26813, Note_on_c, 1, 69, 127
1, 26936, Note_off_c, 1, 69, 0
1, 26940, Note_off_c, 1, 61, 0
1, 26940, Note_off_c, 1, 57, 0
1, 26943, Note_on_c, 1, 61, 127
1, 26943, Note_on_c, 1, 64, 127
1, 27066, Note_off_c, 1, 61, 0
1, 27073, Note_on_c, 1, 59, 127
1, 27196, Note_off_c, 1, 59, 0
1, 27201, Note_off_c, 1, 64, 0
1, 27204, Note_on_c, 1, 61, 127
1, 27204, Note_on_c, 1, 57, 127
1, 27327, Note_off_c, 1, 61, 0
1, 27334, Note_on_c, 1, 69, 127
1, 27457, Note_off_c, 1, 69, 0
1, 27462, Note_off_c, 1, 57, 0
1, 27465, Note_on_c, 1, 61, 127
1, 27465, Note_on_c, 1, 64, 127
1, 27588, Note_off_c, 1, 61, 0
1, 27596, Note_on_c, 1, 69, 127
1, 27719, Note_off_c, 1, 69, 0
1, 27723, Note_off_c, 1, 64, 0
1, 27726, Note_on_c, 1, 61, 127
1, 27726, Note_on_c, 1, 57, 127
1, 27849, Note_off_c, 1, 61, 0
1, 27857, Note_on_c, 1, 69, 127
1, 27980, Note_off_c, 1, 69, 0
1, 27984, Note_off_c, 1, 57, 0
1, 27987, Note_on_c, 1, 61, 127
1, 27987, Note_on_c, 1, 64, 127
1, 28110, Note_off_c, 1, 61, 0
1, 28118, Note_on_c, 1, 69, 127
1, 28241, Note_off_c, 1, 69, 0
1, 28245, Note_off_c, 1, 64, 0
1, 28248, Note_on_c, 1, 61, 127
1, 28248, Note_on_c, 1, 55, 127
1, 28378, Note_on_c, 1, 69, 127
1, 28501, Note_off_c, 1, 69, 0
1, 28506, Note_off_c, 1, 61, 0
1, 28506, Note_off_c, 1, 55, 0
1, 28509, Note_on_c, 1, 61, 127
1, 28509, Note_on_c, 1, 64, 127
1, 28632, Note_off_c, 1, 61, 0
1, 28639, Note_on_c, 1, 59, 127
1, 28762, Note_off_c, 1, 59, 0
1, 28767, Note_off_c, 1, 64, 0
1, 28770, Note_on_c, 1, 61, 127
1, 28770, Note_on_c, 1, 55, 127
1, 28893, Note_off_c, 1, 61, 0
1, 28900, Note_on_c, 1, 69, 127
1, 29023, Note_off_c, 1, 69, 0
1, 29028, Note_off_c, 1, 55, 0
1, 29030, Note_on_c, 1, 61, 127
1, 29030, Note_on_c, 1, 64, 127
1, 29153, Note_off_c, 1, 61, 0
1, 29162, Note_on_c, 1, 69, 127
1, 29285, Note_off_c, 1, 69, 0
1, 29288, Note_off_c, 1, 64, 0
1, 29292, Note_on_c, 1, 61, 127
1, 29292, Note_on_c, 1, 55, 127
1, 29415, Note_off_c, 1, 61, 0
1, 29423, Note_on_c, 1, 69, 127
1, 29546, Note_off_c, 1, 69, 0
1, 29550, Note_off_c, 1, 55, 0
1, 29553, Note_on_c, 1, 61, 127
1, 29553, Note_on_c, 1, 64, 127
1, 29676, Note_off_c, 1, 61, 0
1, 29683, Note_on_c, 1, 69, 127
1, 29806, Note_off_c, 1, 69, 0
1, 29811, Note_off_c, 1, 64, 0
1, 29814, Note_on_c, 1, 62, 127
1, 29814, Note_on_c, 1, 53, 127
1, 29944, Note_on_c, 1, 69, 127
1, 30067, Note_off_c, 1, 69, 0
1, 30072, Note_off_c, 1, 62, 0
1, 30072, Note_off_c, 1, 53, 0
1, 30075, Note_on_c, 1, 62, 127
1, 30075, Note_on_c, 1, 65, 127
1, 30198, Note_off_c, 1, 62, 0
1, 30205, Note_on_c, 1, 61, 127
1, 30328, Note_off_c, 1, 61, 0
1, 30333, Note_off_c, 1, 65, 0
1, 30335, Note_on_c, 1, 62, 127
1, 30335, Note_on_c, 1, 53, 127
1, 30458, Note_off_c, 1, 62, 0
1, 30466, Note_on_c, 1, 69, 127
1, 30589, Note_off_c, 1, 69, 0
1, 30593, Note_off_c, 1, 53, 0
1, 30597, Note_on_c, 1, 62, 127
1, 30597, Note_on_c, 1, 65, 127
1, 30720, Note_off_c, 1, 62, 0
1, 30728, Note_on_c, 1, 69, 127
1, 30851, Note_off_c, 1, 69, 0
1, 30855, Note_off_c, 1, 65, 0
1, 30858, Note_on_c, 1, 62, 127
1, 30858, Note_on_c, 1, 53, 127
1, 30981, Note_off_c, 1, 62, 0
1, 30988, Note_on_c, 1, 69, 127
1, 31111, Note_off_c, 1, 69, 0
1, 31116, Note_off_c, 1, 53, 0
1, 31119, Note_on_c, 1, 62, 127
1, 31119, Note_on_c, 1, 65, 127
1, 31242, Note_off_c, 1, 62, 0
1, 31249, Note_on_c, 1, 69, 127
1, 31372, Note_off_c, 1, 69, 0
1, 31377, Note_off_c, 1, 65, 0
1, 31380, Note_on_c, 1, 64, 127
1, 31380, Note_on_c, 1, 61, 127
1, 31510, Note_on_c, 1, 69, 127
1, 31633, Note_off_c, 1, 69, 0
1, 31638, Note_off_c, 1, 64, 0
1, 31638, Note_off_c, 1, 61, 0
1, 31640, Note_on_c, 1, 64, 127
1, 31640, Note_on_c, 1, 67, 127
1, 31763, Note_off_c, 1, 64, 0
1, 31771, Note_on_c, 1, 62, 127
1, 31894, Note_off_c, 1, 62, 0
1, 31898, Note_off_c, 1, 67, 0
1, 31901, Note_on_c, 1, 64, 127
1, 31901, Note_on_c, 1, 61, 127
1, 32024, Note_off_c, 1, 64, 0
1, 32032, Note_on_c, 1, 69, 127
1, 32155, Note_off_c, 1, 69, 0
1, 32159, Note_off_c, 1, 61, 0
1, 32163, Note_on_c, 1, 64, 127
1, 32163, Note_on_c, 1, 67, 127
1, 32286, Note_off_c, 1, 64, 0
1, 32293, Note_on_c, 1, 69, 127
1, 32416, Note_off_c, 1, 69, 0
1, 32421, Note_off_c, 1, 67, 0
1, 32424, Note_on_c, 1, 64, 127
1, 32424, Note_on_c, 1, 61, 127
1, 32547, Note_off_c, 1, 64, 0
1, 32554, Note_on_c, 1, 69, 127
1, 32677, Note_off_c, 1, 69, 0
1, 32682, Note_off_c, 1, 61, 0
1, 32685, Note_on_c, 1, 64, 127
1, 32685, Note_on_c, 1, 67, 127
1, 32808, Note_off_c, 1, 64, 0
1, 32815, Note_on_c, 1, 69, 127
1, 32938, Note_off_c, 1, 69, 0
1, 32943, Note_off_c, 1, 67, 0
1, 32945, Note_on_c, 1, 65, 127
1, 32945, Note_on_c, 1, 62, 127
1, 33011, Note_on_c, 1, 69, 127
1, 33074, Note_off_c, 1, 69, 0
1, 33076, Note_on_c, 1, 71, 127
1, 33139, Note_off_c, 1, 71, 0
1, 33141, Note_on_c, 1, 73, 127
1, 33203, Note_off_c, 1, 65, 0
1, 33203, Note_off_c, 1, 62, 0
1, 33204, Note_off_c, 1, 73, 0
1, 33206, Note_on_c, 1, 74, 127
1, 33206, Note_on_c, 1, 65, 127
1, 33329, Note_off_c, 1, 74, 0
1, 33337, Note_on_c, 1, 69, 127
1, 33460, Note_off_c, 1, 69, 0
1, 33464, Note_off_c, 1, 65, 0
1, 33467, Note_on_c, 1, 65, 127
1, 33467, Note_on_c, 1, 62, 127
1, 33590, Note_off_c, 1, 65, 0
1, 33597, Note_on_c, 1, 69, 127
1, 33720, Note_off_c, 1, 69, 0
1, 33725, Note_off_c, 1, 62, 0
1, 33729, Note_on_c, 1, 74, 127
1, 33729, Note_on_c, 1, 65, 127
1, 33852, Note_off_c, 1, 74, 0
1, 33859, Note_on_c, 1, 69, 127
1, 33982, Note_off_c, 1, 69, 0
1, 33987, Note_off_c, 1, 65, 0
1, 33990, Note_on_c, 1, 65, 127
1, 33990, Note_on_c, 1, 62, 127
1, 34113, Note_off_c, 1, 65, 0
1, 34120, Note_on_c, 1, 69, 127
1, 34243, Note_off_c, 1, 69, 0
1, 34248, Note_off_c, 1, 62, 0
1, 34250, Note_on_c, 1, 74, 127
1, 34250, Note_on_c, 1, 65, 127
1, 34373, Note_off_c, 1, 74, 0
1, 34381, Note_on_c, 1, 69, 127
1, 34504, Note_off_c, 1, 69, 0
1, 34508, Note_off_c, 1, 65, 0
1, 34511, Note_on_c, 1, 66, 127
1, 34511, Note_on_c, 1, 60, 127
1, 34642, Note_on_c, 1, 74, 127
1, 34765, Note_off_c, 1, 74, 0
1, 34769, Note_off_c, 1, 66, 0
1, 34769, Note_off_c, 1, 60, 0
1, 34772, Note_on_c, 1, 66, 127
1, 34772, Note_on_c, 1, 69, 127
1, 34895, Note_off_c, 1, 66, 0
1, 34902, Note_on_c, 1, 64, 127
1, 35025, Note_off_c, 1, 64, 0
1, 35030, Note_off_c, 1, 69, 0
1, 35033, Note_on_c, 1, 66, 127
1, 35033, Note_on_c, 1, 60, 127
1, 35156, Note_off_c, 1, 66, 0
1, 35164, Note_on_c, 1, 74, 127
1, 35287, Note_off_c, 1, 74, 0
1, 35291, Note_off_c, 1, 60, 0
1, 35295, Note_on_c, 1, 66, 127
1, 35295, Note_on_c, 1, 69, 127
1, 35418, Note_off_c, 1, 66, 0
1, 35425, Note_on_c, 1, 74, 127
1, 35548, Note_off_c, 1, 74, 0
1, 35553, Note_off_c, 1, 69, 0
1, 35555, Note_on_c, 1, 66, 127
1, 35555, Note_on_c, 1, 60, 127
1, 35678, Note_off_c, 1, 66, 0
1, 35686, Note_on_c, 1, 74, 127
1, 35809, Note_off_c, 1, 74, 0
1, 35813, Note_off_c, 1, 60, 0
1, 35816, Note_on_c, 1, 66, 127
1, 35816, Note_on_c, 1, 69, 127
1, 35939, Note_off_c, 1, 66, 0
1, 35947, Note_on_c, 1, 74, 127
1, 36070, Note_off_c, 1, 74, 0
1, 36074, Note_off_c, 1, 69, 0
1, 36077, Note_on_c, 1, 67, 127
1, 36077, Note_on_c, 1, 59, 127
1, 36142, Note_on_c, 1, 69, 127
1, 36205, Note_off_c, 1, 69, 0
1, 36207, Note_on_c, 1, 71, 127
1, 36270, Note_off_c, 1, 71, 0
1, 36273, Note_on_c, 1, 72, 127
1, 36335, Note_off_c, 1, 67, 0
1, 36335, Note_off_c, 1, 59, 0
1, 36336, Note_off_c, 1, 72, 0
1, 36338, Note_on_c, 1, 74, 127
1, 36338, Note_on_c, 1, 67, 127
1, 36461, Note_off_c, 1, 74, 0
1, 36468, Note_on_c, 1, 71, 127
1, 36591, Note_off_c, 1, 71, 0
1, 36596, Note_off_c, 1, 67, 0
1, 36599, Note_on_c, 1, 67, 127
1, 36599, Note_on_c, 1, 59, 127
1, 36722, Note_off_c, 1, 67, 0
1, 36730, Note_on_c, 1, 71, 127
1, 36853, Note_off_c, 1, 71, 0
1, 36857, Note_off_c, 1, 59, 0
1, 36860, Note_on_c, 1, 74, 127
1, 36860, Note_on_c, 1, 67, 127
1, 36983, Note_off_c, 1, 74, 0
1, 36991, Note_on_c, 1, 71, 127
1, 37114, Note_off_c, 1, 71, 0
1, 37118, Note_off_c, 1, 67, 0
1, 37121, Note_on_c, 1, 67, 127
1, 37121, Note_on_c, 1, 59, 127
1, 37244, Note_off_c, 1, 67, 0
1, 37252, Note_on_c, 1, 71, 127
1, 37375, Note_off_c, 1, 71, 0
1, 37379, Note_off_c, 1, 59, 0
1, 37382, Note_on_c, 1, 74, 127
1, 37382, Note_on_c, 1, 67, 127
1, 37505, Note_off_c, 1, 74, 0
1, 37512, Note_on_c, 1, 71, 127
1, 37635, Note_off_c, 1, 71, 0
1, 37640, Note_off_c, 1, 67, 0
1, 37643, Note_on_c, 1, 68, 127
1, 37643, Note_on_c, 1, 64, 127
1, 37773, Note_on_c, 1, 74, 127
1, 37896, Note_off_c, 1, 74, 0
1, 37901, Note_off_c, 1, 68, 0
1, 37901, Note_off_c, 1, 64, 0
1, 37904, Note_on_c, 1, 68, 127
1, 37904, Note_on_c, 1, 71, 127
1, 38027, Note_off_c, 1, 68, 0
1, 38034, Note_on_c, 1, 66, 127
1, 38157, Note_off_c, 1, 66, 0
1, 38162, Note_off_c, 1, 71, 0
1, 38164, Note_on_c, 1, 68, 127
1, 38164, Note_on_c, 1, 64, 127
1, 38287, Note_off_c, 1, 68, 0
1, 38296, Note_on_c, 1, 74, 127
1, 38419, Note_off_c, 1, 74, 0
1, 38422, Note_off_c, 1, 64, 0
1, 38426, Note_on_c, 1, 68, 127
1, 38426, Note_on_c, 1, 71, 127
1, 38549, Note_off_c, 1, 68, 0
1, 38557, Note_on_c, 1, 74, 127
1, 38680, Note_off_c, 1, 74, 0
1, 38684, Note_off_c, 1, 71, 0
1, 38687, Note_on_c, 1, 68, 127
1, 38687, Note_on_c, 1, 64, 127
1, 38810, Note_off_c, 1, 68, 0
1, 38817, Note_on_c, 1, 74, 127
1, 38940, Note_off_c, 1, 74, 0
1, 38945, Note_off_c, 1, 64, 0
1, 38948, Note_on_c, 1, 68, 127
1, 38948, Note_on_c, 1, 71, 127
1, 39071, Note_off_c, 1, 68, 0
1, 39078, Note_on_c, 1, 74, 127
1, 39201, Note_off_c, 1, 74, 0
1, 39206, Note_off_c, 1, 71, 0
1, 39209, Note_on_c, 1, 57, 127
1, 39209, Note_on_c, 1, 72, 127
1, 39339, Note_on_c, 1, 69, 127
1, 39462, Note_off_c, 1, 69, 0
1, 39469, Note_on_c, 1, 67, 127
1, 39592, Note_off_c, 1, 67, 0
1, 39600, Note_on_c, 1, 65, 127
1, 39723, Note_off_c, 1, 65, 0
1, 39730, Note_on_c, 1, 64, 127
1, 39853, Note_off_c, 1, 64, 0
1, 39858, Note_off_c, 1, 57, 0
1, 39862, Note_on_c, 1, 62, 127
1, 39985, Note_off_c, 1, 62, 0
1, 39992, Note_on_c, 1, 60, 127
1, 40115, Note_off_c, 1, 60, 0
1, 40122, Note_on_c, 1, 59, 127
1, 40245, Note_off_c, 1, 59, 0
1, 40772, Note_off_c, 1, 72, 0
1, 40774, Note_on_c, 1, 65, 127
1, 40898, Note_off_c, 1, 65, 0
1, 40905, Note_on_c, 1, 62, 127
1, 41029, Note_off_c, 1, 62, 0
1, 41035, Note_on_c, 1, 57, 127
1, 41035, Note_on_c, 1, 69, 127
1, 41159, Note_off_c, 1, 57, 0
1, 41166, Note_on_c, 1, 62, 127
1, 41290, Note_off_c, 1, 62, 0
1, 41294, Note_off_c, 1, 69, 0
1, 41297, Note_on_c, 1, 65, 127
1, 41297, Note_on_c, 1, 74, 127
1, 41421, Note_off_c, 1, 65, 0
1, 41427, Note_on_c, 1, 62, 127
1, 41551, Note_off_c, 1, 62, 0
1, 41556, Note_off_c, 1, 74, 0
1, 41558, Note_on_c, 1, 57, 127
1, 41558, Note_on_c, 1, 77, 127
1, 41682, Note_off_c, 1, 57, 0
1, 41688, Note_on_c, 1, 62, 127
1, 41812, Note_off_c, 1, 62, 0
1, 41817, Note_off_c, 1, 77, 0
1, 41819, Note_on_c, 1, 81, 127
1, 41819, Note_on_c, 1, 65, 127
1, 41904, Note_off_c, 1, 81, 0
1, 41905, Note_on_c, 1, 80, 127
1, 41943, Note_off_c, 1, 65, 0
1, 41949, Note_on_c, 1, 62, 127
1, 41990, Note_off_c, 1, 80, 0
1, 42073, Note_off_c, 1, 62, 0
1, 42079, Note_on_c, 1, 57, 127
1, 42203, Note_off_c, 1, 57, 0
1, 42340, Note_on_c, 1, 64, 127
1, 42464, Note_off_c, 1, 64, 0
1, 42601, Note_on_c, 1, 57, 127
1, 42601, Note_on_c, 1, 69, 127
1, 42725, Note_off_c, 1, 57, 0
1, 42731, Note_on_c, 1, 62, 127
1, 42855, Note_off_c, 1, 62, 0
1, 42860, Note_off_c, 1, 69, 0
1, 42863, Note_on_c, 1, 64, 127
1, 42863, Note_on_c, 1, 72, 127
1, 42987, Note_off_c, 1, 64, 0
1, 42993, Note_on_c, 1, 60, 127
1, 43117, Note_off_c, 1, 60, 0
1, 43122, Note_off_c, 1, 72, 0
1, 43124, Note_on_c, 1, 57, 127
1, 43124, Note_on_c, 1, 76, 127
1, 43248, Note_off_c, 1, 57, 0
1, 43254, Note_on_c, 1, 60, 127
1, 43378, Note_off_c, 1, 60, 0
1, 43383, Note_off_c, 1, 76, 0
1, 43384, Note_on_c, 1, 81, 127
1, 43384, Note_on_c, 1, 64, 127
1, 43469, Note_off_c, 1, 81, 0
1, 43471, Note_on_c, 1, 80, 127
1, 43508, Note_off_c, 1, 64, 0
1, 43515, Note_on_c, 1, 60, 127
1, 43556, Note_off_c, 1, 80, 0
1, 43639, Note_off_c, 1, 60, 0
1, 43645, Note_on_c, 1, 57, 127
1, 43769, Note_off_c, 1, 57, 0
1, 43906, Note_on_c, 1, 62, 127
1, 44030, Note_off_c, 1, 62, 0
1, 44036, Note_on_c, 1, 59, 127
1, 44160, Note_off_c, 1, 59, 0
1, 44167, Note_on_c, 1, 57, 127
1, 44167, Note_on_c, 1, 74, 127
1, 44291, Note_off_c, 1, 57, 0
1, 44297, Note_on_c, 1, 59, 127
1, 44421, Note_off_c, 1, 59, 0
1, 44426, Note_off_c, 1, 74, 0
1, 44429, Note_on_c, 1, 62, 127
1, 44429, Note_on_c, 1, 80, 127
1, 44553, Note_off_c, 1, 62, 0
1, 44559, Note_on_c, 1, 59, 127
1, 44683, Note_off_c, 1, 59, 0
1, 44688, Note_off_c, 1, 80, 0
1, 44689, Note_on_c, 1, 56, 127
1, 44689, Note_on_c, 1, 83, 127
1, 44813, Note_off_c, 1, 56, 0
1, 44820, Note_on_c, 1, 59, 127
1, 44944, Note_off_c, 1, 59, 0
1, 44948, Note_off_c, 1, 83, 0
1, 44950, Note_on_c, 1, 62, 127
1, 44950, Note_on_c, 1, 80, 127
1, 45074, Note_off_c, 1, 62, 0
1, 45081, Note_on_c, 1, 59, 127
1, 45205, Note_off_c, 1, 59, 0
1, 45209, Note_off_c, 1, 80, 0
1, 45211, Note_on_c, 1, 56, 127
1, 45211, Note_on_c, 1, 76, 127
1, 45335, Note_off_c, 1, 56, 0
1, 45341, Note_on_c, 1, 59, 127
1, 45465, Note_off_c, 1, 59, 0
1, 45470, Note_off_c, 1, 76, 0
1, 45472, Note_on_c, 1, 60, 127
1, 45472, Note_on_c, 1, 81, 127
1, 45730, Note_off_c, 1, 60, 0
1, 45731, Note_off_c, 1, 81, 0
1, 45733, Note_on_c, 1, 79, 127
1, 45733, Note_on_c, 1, 45, 127
1, 45856, Note_off_c, 1, 79, 0
1, 45864, Note_on_c, 1, 77, 127
1, 45987, Note_off_c, 1, 77, 0
1, 45991, Note_off_c, 1, 45, 0
1, 45994, Note_on_c, 1, 76, 127
1, 45994, Note_on_c, 1, 48, 127
1, 46117, Note_off_c, 1, 76, 0
1, 46125, Note_on_c, 1, 74, 127
1, 46248, Note_off_c, 1, 74, 0
1, 46252, Note_off_c, 1, 48, 0
1, 46255, Note_on_c, 1, 72, 127
1, 46255, Note_on_c, 1, 52, 127
1, 46378, Note_off_c, 1, 72, 0
1, 46386, Note_on_c, 1, 71, 127
1, 46509, Note_off_c, 1, 71, 0
1, 46513, Note_off_c, 1, 52, 0
1, 46516, Note_on_c, 1, 69, 127
1, 46516, Note_on_c, 1, 57, 127
1, 46639, Note_off_c, 1, 69, 0
1, 46646, Note_on_c, 1, 72, 127
1, 46769, Note_off_c, 1, 72, 0
1, 46774, Note_off_c, 1, 57, 0
1, 46777, Note_on_c, 1, 71, 127
1, 46777, Note_on_c, 1, 60, 127
1, 46900, Note_off_c, 1, 71, 0
1, 46907, Note_on_c, 1, 69, 127
1, 47030, Note_off_c, 1, 69, 0
1, 47035, Note_off_c, 1, 60, 0
1, 47038, Note_on_c, 1, 77, 127
1, 47038, Note_on_c, 1, 62, 127
1, 47161, Note_off_c, 1, 77, 0
1, 47168, Note_on_c, 1, 74, 127
1, 47291, Note_off_c, 1, 74, 0
1, 47296, Note_off_c, 1, 62, 0
1, 47298, Note_on_c, 1, 69, 127
1, 47298, Note_on_c, 1, 65, 127
1, 47421, Note_off_c, 1, 69, 0
1, 47430, Note_on_c, 1, 74, 127
1, 47553, Note_off_c, 1, 74, 0
1, 47556, Note_off_c, 1, 65, 0
1, 47560, Note_on_c, 1, 77, 127
1, 47560, Note_on_c, 1, 57, 127
1, 47683, Note_off_c, 1, 77, 0
1, 47691, Note_on_c, 1, 74, 127
1, 47814, Note_off_c, 1, 74, 0
1, 47818, Note_off_c, 1, 57, 0
1, 47821, Note_on_c, 1, 69, 127
1, 47821, Note_on_c, 1, 62, 127
1, 47944, Note_off_c, 1, 69, 0
1, 47951, Note_on_c, 1, 74, 127
1, 48074, Note_off_c, 1, 74, 0
1, 48079, Note_off_c, 1, 62, 0
1, 48082, Note_on_c, 1, 77, 127
1, 48082, Note_on_c, 1, 50, 127
1, 48205, Note_off_c, 1, 77, 0
1, 48212, Note_on_c, 1, 74, 127
1, 48335, Note_off_c, 1, 74, 0
1, 48340, Note_off_c, 1, 50, 0
1, 48343, Note_on_c, 1, 69, 127
1, 48343, Note_on_c, 1, 59, 127
1, 48466, Note_off_c, 1, 69, 0
1, 48473, Note_on_c, 1, 74, 127
1, 48596, Note_off_c, 1, 74, 0
1, 48601, Note_off_c, 1, 59, 0
1, 48603, Note_on_c, 1, 76, 127
1, 48603, Note_on_c, 1, 60, 127
1, 48726, Note_off_c, 1, 76, 0
1, 48734, Note_on_c, 1, 74, 127
1, 48857, Note_off_c, 1, 74, 0
1, 48861, Note_off_c, 1, 60, 0
1, 48864, Note_on_c, 1, 69, 127
1, 48864, Note_on_c, 1, 64, 127
1, 48987, Note_off_c, 1, 69, 0
1, 48996, Note_on_c, 1, 74, 127
1, 49119, Note_off_c, 1, 74, 0
1, 49122, Note_off_c, 1, 64, 0
1, 49126, Note_on_c, 1, 76, 127
1, 49126, Note_on_c, 1, 57, 127
1, 49249, Note_off_c, 1, 76, 0
1, 49256, Note_on_c, 1, 72, 127
1, 49379, Note_off_c, 1, 72, 0
1, 49384, Note_off_c, 1, 57, 0
1, 49387, Note_on_c, 1, 69, 127
1, 49387, Note_on_c, 1, 60, 127
1, 49510, Note_off_c, 1, 69, 0
1, 49517, Note_on_c, 1, 72, 127
1, 49640, Note_off_c, 1, 72, 0
1, 49645, Note_off_c, 1, 60, 0
1, 49648, Note_on_c, 1, 76, 127
1, 49648, Note_on_c, 1, 48, 127
1, 49771, Note_off_c, 1, 76, 0
1, 49778, Note_on_c, 1, 72, 127
1, 49901, Note_off_c, 1, 72, 0
1, 49906, Note_off_c, 1, 48, 0
1, 49908, Note_on_c, 1, 69, 127
1, 49908, Note_on_c, 1, 57, 127
1, 50031, Note_off_c, 1, 69, 0
1, 50039, Note_on_c, 1, 72, 127
1, 50162, Note_off_c, 1, 72, 0
1, 50166, Note_off_c, 1, 57, 0
1, 50169, Note_on_c, 1, 74, 127
1, 50169, Note_on_c, 1, 59, 127
1, 50292, Note_off_c, 1, 74, 0
1, 50300, Note_on_c, 1, 71, 127
1, 50423, Note_off_c, 1, 71, 0
1, 50427, Note_off_c, 1, 59, 0
1, 50430, Note_on_c, 1, 69, 127
1, 50430, Note_on_c, 1, 62, 127
1, 50553, Note_off_c, 1, 69, 0
1, 50561, Note_on_c, 1, 71, 127
1, 50684, Note_off_c, 1, 71, 0
1, 50688, Note_off_c, 1, 62, 0
1, 50692, Note_on_c, 1, 74, 127
1, 50692, Note_on_c, 1, 56, 127
1, 50815, Note_off_c, 1, 74, 0
1, 50822, Note_on_c, 1, 71, 127
1, 50945, Note_off_c, 1, 71, 0
1, 50950, Note_off_c, 1, 56, 0
1, 50953, Note_on_c, 1, 68, 127
1, 50953, Note_on_c, 1, 59, 127
1, 51076, Note_off_c, 1, 68, 0
1, 51083, Note_on_c, 1, 71, 127
1, 51206, Note_off_c, 1, 71, 0
1, 51211, Note_off_c, 1, 59, 0
1, 51213, Note_on_c, 1, 74, 127
1, 51213, Note_on_c, 1, 64, 127
1, 51336, Note_off_c, 1, 74, 0
1, 51344, Note_on_c, 1, 71, 127
1, 51467, Note_off_c, 1, 71, 0
1, 51471, Note_off_c, 1, 64, 0
1, 51474, Note_on_c, 1, 68, 127
1, 51474, Note_on_c, 1, 52, 127
1, 51597, Note_off_c, 1, 68, 0
1, 51605, Note_on_c, 1, 71, 127
1, 51728, Note_off_c, 1, 71, 0
1, 51732, Note_off_c, 1, 52, 0
1, 51735, Note_on_c, 1, 72, 127
1, 51735, Note_on_c, 1, 57, 127
1, 51865, Note_on_c, 1, 69, 127
1, 51988, Note_off_c, 1, 69, 0
1, 51997, Note_on_c, 1, 67, 127
1, 52120, Note_off_c, 1, 67, 0
1, 52127, Note_on_c, 1, 65, 127
1, 52250, Note_off_c, 1, 65, 0
1, 52251, Note_off_c, 1, 72, 0
1, 52258, Note_on_c, 1, 64, 127
1, 52381, Note_off_c, 1, 64, 0
1, 52384, Note_off_c, 1, 57, 0
1, 52388, Note_on_c, 1, 62, 127
1, 52512, Note_off_c, 1, 62, 0
1, 52518, Note_on_c, 1, 60, 127
1, 52642, Note_off_c, 1, 60, 0
1, 52649, Note_on_c, 1, 59, 127
1, 52773, Note_off_c, 1, 59, 0
1, 52779, Note_on_c, 1, 57, 127
1, 52903, Note_off_c, 1, 57, 0
1, 52910, Note_on_c, 1, 60, 127
1, 53034, Note_off_c, 1, 60, 0
1, 53040, Note_on_c, 1, 52, 127
1, 53164, Note_off_c, 1, 52, 0
1, 53170, Note_on_c, 1, 55, 127
1, 53294, Note_off_c, 1, 55, 0
1, 53301, Note_on_c, 1, 54, 127
1, 53431, Note_on_c, 1, 75, 127
1, 53554, Note_off_c, 1, 75, 0
1, 53559, Note_off_c, 1, 54, 0
1, 53563, Note_on_c, 1, 74, 127
1, 53563, Note_on_c, 1, 69, 127
1, 53686, Note_off_c, 1, 74, 0
1, 53693, Note_on_c, 1, 72, 127
1, 53816, Note_off_c, 1, 72, 0
1, 53821, Note_off_c, 1, 69, 0
1, 53823, Note_on_c, 1, 78, 127
1, 53823, Note_on_c, 1, 72, 127
1, 53946, Note_off_c, 1, 78, 0
1, 53954, Note_on_c, 1, 75, 127
1, 54077, Note_off_c, 1, 75, 0
1, 54081, Note_off_c, 1, 72, 0
1, 54084, Note_on_c, 1, 74, 127
1, 54084, Note_on_c, 1, 69, 127
1, 54207, Note_off_c, 1, 74, 0
1, 54215, Note_on_c, 1, 72, 127
1, 54338, Note_off_c, 1, 72, 0
1, 54342, Note_off_c, 1, 69, 0
1, 54345, Note_on_c, 1, 81, 127
1, 54345, Note_on_c, 1, 66, 127
1, 54468, Note_off_c, 1, 81, 0
1, 54475, Note_on_c, 1, 75, 127
1, 54598, Note_off_c, 1, 75, 0
1, 54603, Note_off_c, 1, 66, 0
1, 54606, Note_on_c, 1, 74, 127
1, 54606, Note_on_c, 1, 62, 127
1, 54729, Note_off_c, 1, 74, 0
1, 54736, Note_on_c, 1, 72, 127
1, 54859, Note_off_c, 1, 72, 0
1, 54864, Note_off_c, 1, 62, 0
1, 54867, Note_on_c, 1, 70, 127
1, 54867, Note_on_c, 1, 67, 127
1, 54990, Note_off_c, 1, 70, 0
1, 54997, Note_on_c, 1, 79, 127
1, 55120, Note_off_c, 1, 79, 0
1, 55125, Note_off_c, 1, 67, 0
1, 55128, Note_on_c, 1, 77, 127
1, 55128, Note_on_c, 1, 55, 127
1, 55251, Note_off_c, 1, 77, 0
1, 55259, Note_on_c, 1, 75, 127
1, 55382, Note_off_c, 1, 75, 0
1, 55386, Note_off_c, 1, 55, 0
1, 55389, Note_on_c, 1, 74, 127
1, 55389, Note_on_c, 1, 58, 127
1, 55512, Note_off_c, 1, 74, 0
1, 55520, Note_on_c, 1, 72, 127
1, 55643, Note_off_c, 1, 72, 0
1, 55647, Note_off_c, 1, 58, 0
1, 55650, Note_on_c, 1, 70, 127
1, 55650, Note_on_c, 1, 62, 127
1, 55773, Note_off_c, 1, 70, 0
1, 55780, Note_on_c, 1, 69, 127
1, 55903, Note_off_c, 1, 69, 0
1, 55908, Note_off_c, 1, 62, 0
1, 55911, Note_on_c, 1, 72, 127
1, 55911, Note_on_c, 1, 67, 127
1, 56034, Note_off_c, 1, 72, 0
1, 56041, Note_on_c, 1, 70, 127
1, 56164, Note_off_c, 1, 70, 0
1, 56169, Note_off_c, 1, 67, 0
1, 56172, Note_on_c, 1, 69, 127
1, 56172, Note_on_c, 1, 65, 127
1, 56295, Note_off_c, 1, 69, 0
1, 56302, Note_on_c, 1, 67, 127
1, 56425, Note_off_c, 1, 67, 0
1, 56430, Note_off_c, 1, 65, 0
1, 56432, Note_on_c, 1, 64, 127
1, 56432, Note_on_c, 1, 72, 127
1, 56556, Note_off_c, 1, 64, 0
1, 56564, Note_on_c, 1, 61, 127
1, 56688, Note_off_c, 1, 61, 0
1, 56691, Note_off_c, 1, 72, 0
1, 56694, Note_on_c, 1, 60, 127
1, 56694, Note_on_c, 1, 76, 127
1, 56818, Note_off_c, 1, 60, 0
1, 56825, Note_on_c, 1, 58, 127
1, 56949, Note_off_c, 1, 58, 0
1, 56953, Note_off_c, 1, 76, 0
1, 56955, Note_on_c, 1, 65, 127
1, 56955, Note_on_c, 1, 71, 127
1, 57079, Note_off_c, 1, 65, 0
1, 57085, Note_on_c, 1, 62, 127
1, 57209, Note_off_c, 1, 62, 0
1, 57214, Note_off_c, 1, 71, 0
1, 57216, Note_on_c, 1, 60, 127
1, 57216, Note_on_c, 1, 77, 127
1, 57340, Note_off_c, 1, 60, 0
1, 57346, Note_on_c, 1, 58, 127
1, 57470, Note_off_c, 1, 58, 0
1, 57475, Note_off_c, 1, 77, 0
1, 57477, Note_on_c, 1, 67, 127
1, 57477, Note_on_c, 1, 70, 127
1, 57601, Note_off_c, 1, 67, 0
1, 57607, Note_on_c, 1, 62, 127
1, 57731, Note_off_c, 1, 62, 0
1, 57736, Note_off_c, 1, 70, 0
1, 57737, Note_on_c, 1, 60, 127
1, 57737, Note_on_c, 1, 79, 127
1, 57861, Note_off_c, 1, 60, 0
1, 57868, Note_on_c, 1, 58, 127
1, 57992, Note_off_c, 1, 58, 0
1, 57995, Note_off_c, 1, 79, 0
1, 57998, Note_on_c, 1, 57, 127
1, 58122, Note_off_c, 1, 57, 0
1, 58130, Note_on_c, 1, 74, 127
1, 58130, Note_on_c, 1, 65, 127
1, 58253, Note_off_c, 1, 74, 0
1, 58254, Note_off_c, 1, 65, 0
1, 58260, Note_on_c, 1, 72, 127
1, 58260, Note_on_c, 1, 64, 127
1, 58383, Note_off_c, 1, 72, 0
1, 58384, Note_off_c, 1, 64, 0
1, 58390, Note_on_c, 1, 70, 127
1, 58390, Note_on_c, 1, 62, 127
1, 58513, Note_off_c, 1, 70, 0
1, 58514, Note_off_c, 1, 62, 0
1, 58521, Note_on_c, 1, 69, 127
1, 58521, Note_on_c, 1, 60, 127
1, 58644, Note_off_c, 1, 69, 0
1, 58645, Note_off_c, 1, 60, 0
1, 58651, Note_on_c, 1, 79, 127
1, 58651, Note_on_c, 1, 58, 127
1, 58774, Note_off_c, 1, 79, 0
1, 58775, Note_off_c, 1, 58, 0
1, 58782, Note_on_c, 1, 77, 127
1, 58782, Note_on_c, 1, 57, 127
1, 58905, Note_off_c, 1, 77, 0
1, 58906, Note_off_c, 1, 57, 0
1, 58912, Note_on_c, 1, 76, 127
1, 58912, Note_on_c, 1, 55, 127
1, 59035, Note_off_c, 1, 76, 0
1, 59036, Note_off_c, 1, 55, 0
1, 59042, Note_on_c, 1, 74, 127
1, 59042, Note_on_c, 1, 58, 127
1, 59165, Note_off_c, 1, 74, 0
1, 59166, Note_off_c, 1, 58, 0
1, 59173, Note_on_c, 1, 77, 127
1, 59173, Note_on_c, 1, 57, 127
1, 59296, Note_off_c, 1, 77, 0
1, 59297, Note_off_c, 1, 57, 0
1, 59303, Note_on_c, 1, 76, 127
1, 59303, Note_on_c, 1, 55, 127
1, 59426, Note_off_c, 1, 76, 0
1, 59427, Note_off_c, 1, 55, 0
1, 59434, Note_on_c, 1, 74, 127
1, 59434, Note_on_c, 1, 53, 127
1, 59557, Note_off_c, 1, 74, 0
1, 59558, Note_off_c, 1, 53, 0
1, 59564, Note_on_c, 1, 52, 127
1, 59564, Note_on_c, 1, 73, 127
1, 59688, Note_off_c, 1, 52, 0
1, 59695, Note_on_c, 1, 70, 127
1, 59695, Note_on_c, 1, 67, 127
1, 59818, Note_off_c, 1, 70, 0
1, 59819, Note_off_c, 1, 67, 0
1, 59822, Note_off_c, 1, 73, 0
1, 59826, Note_on_c, 1, 69, 127
1, 59826, Note_on_c, 1, 65, 127
1, 59949, Note_off_c, 1, 69, 0
1, 59950, Note_off_c, 1, 65, 0
1, 59956, Note_on_c, 1, 67, 127
1, 59956, Note_on_c, 1, 64, 127
1, 60079, Note_off_c, 1, 67, 0
1, 60080, Note_off_c, 1, 64, 0
1, 60087, Note_on_c, 1, 74, 127
1, 60087, Note_on_c, 1, 62, 127
1, 60210, Note_off_c, 1, 74, 0
1, 60211, Note_off_c, 1, 62, 0
1, 60217, Note_on_c, 1, 70, 127
1, 60217, Note_on_c, 1, 67, 127
1, 60340, Note_off_c, 1, 70, 0
1, 60341, Note_off_c, 1, 67, 0
1, 60347, Note_on_c, 1, 69, 127
1, 60347, Note_on_c, 1, 65, 127
1, 60470, Note_off_c, 1, 69, 0
1, 60471, Note_off_c, 1, 65, 0
1, 60478, Note_on_c, 1, 67, 127
1, 60478, Note_on_c, 1, 64, 127
1, 60601, Note_off_c, 1, 67, 0
1, 60602, Note_off_c, 1, 64, 0
1, 60608, Note_on_c, 1, 76, 127
1, 60608, Note_on_c, 1, 61, 127
1, 60731, Note_off_c, 1, 76, 0
1, 60732, Note_off_c, 1, 61, 0
1, 60739, Note_on_c, 1, 70, 127
1, 60739, Note_on_c, 1, 67, 127
1, 60862, Note_off_c, 1, 70, 0
1, 60863, Note_off_c, 1, 67, 0
1, 60869, Note_on_c, 1, 69, 127
1, 60869, Note_on_c, 1, 65, 127
1, 60992, Note_off_c, 1, 69, 0
1, 60993, Note_off_c, 1, 65, 0
1, 60999, Note_on_c, 1, 67, 127
1, 60999, Note_on_c, 1, 64, 127
1, 61122, Note_off_c, 1, 67, 0
1, 61123, Note_off_c, 1, 64, 0
1, 61130, Note_on_c, 1, 50, 127
1, 61130, Note_on_c, 1, 65, 127
1, 61254, Note_off_c, 1, 50, 0
1, 61261, Note_on_c, 1, 63, 127
1, 61385, Note_off_c, 1, 63, 0
1, 61389, Note_off_c, 1, 65, 0
1, 61392, Note_on_c, 1, 62, 127
1, 61392, Note_on_c, 1, 66, 127
1, 61516, Note_off_c, 1, 62, 0
1, 61522, Note_on_c, 1, 60, 127
1, 61646, Note_off_c, 1, 60, 0
1, 61651, Note_off_c, 1, 66, 0
1, 61652, Note_on_c, 1, 58, 127
1, 61652, Note_on_c, 1, 67, 127
1, 61776, Note_off_c, 1, 58, 0
1, 61783, Note_on_c, 1, 60, 127
1, 61907, Note_off_c, 1, 60, 0
1, 61911, Note_off_c, 1, 67, 0
1, 61913, Note_on_c, 1, 58, 127
1, 61913, Note_on_c, 1, 69, 127
1, 62037, Note_off_c, 1, 58, 0
1, 62044, Note_on_c, 1, 57, 127
1, 62168, Note_off_c, 1, 57, 0
1, 62172, Note_off_c, 1, 69, 0
1, 62174, Note_on_c, 1, 55, 127
1, 62174, Note_on_c, 1, 70, 127
1, 62298, Note_off_c, 1, 55, 0
1, 62304, Note_on_c, 1, 57, 127
1, 62428, Note_off_c, 1, 57, 0
1, 62433, Note_off_c, 1, 70, 0
1, 62435, Note_on_c, 1, 55, 127
1, 62435, Note_on_c, 1, 71, 127
1, 62559, Note_off_c, 1, 55, 0
1, 62565, Note_on_c, 1, 53, 127
1, 62689, Note_off_c, 1, 53, 0
1, 62694, Note_off_c, 1, 71, 0
1, 62697, Note_on_c, 1, 52, 127
1, 62697, Note_on_c, 1, 72, 127
1, 62821, Note_off_c, 1, 52, 0
1, 62827, Note_on_c, 1, 58, 127
1, 62951, Note_off_c, 1, 58, 0
1, 62956, Note_off_c, 1, 72, 0
1, 62957, Note_on_c, 1, 57, 127
1, 62957, Note_on_c, 1, 73, 127
1, 63081, Note_off_c, 1, 57, 0
1, 63088, Note_on_c, 1, 55, 127
1, 63212, Note_off_c, 1, 55, 0
1, 63216, Note_off_c, 1, 73, 0
1, 63218, Note_on_c, 1, 53, 127
1, 63218, Note_on_c, 1, 74, 127
1, 63342, Note_off_c, 1, 53, 0
1, 63349, Note_on_c, 1, 55, 127
1, 63473, Note_off_c, 1, 55, 0
1, 63477, Note_off_c, 1, 74, 0
1, 63479, Note_on_c, 1, 53, 127
1, 63479, Note_on_c, 1, 76, 127
1, 63603, Note_off_c, 1, 53, 0
1, 63609, Note_on_c, 1, 52, 127
1, 63733, Note_off_c, 1, 52, 0
1, 63738, Note_off_c, 1, 76, 0
1, 63740, Note_on_c, 1, 50, 127
1, 63740, Note_on_c, 1, 77, 127
1, 63864, Note_off_c, 1, 50, 0
1, 63870, Note_on_c, 1, 51, 127
1, 63994, Note_off_c, 1, 51, 0
1, 63999, Note_off_c, 1, 77, 0
1, 64001, Note_on_c, 1, 50, 127
1, 64001, Note_on_c, 1, 78, 127
1, 64125, Note_off_c, 1, 50, 0
1, 64131, Note_on_c, 1, 48, 127
1, 64255, Note_off_c, 1, 48, 0
1, 64260, Note_off_c, 1, 78, 0
1, 64262, Note_on_c, 1, 79, 127
1, 64262, Note_on_c, 1, 46, 127
1, 64385, Note_off_c, 1, 79, 0
1, 64393, Note_on_c, 1, 74, 127
1, 64516, Note_off_c, 1, 74, 0
1, 64520, Note_off_c, 1, 46, 0
1, 64523, Note_on_c, 1, 82, 127
1, 64523, Note_on_c, 1, 43, 127
1, 64646, Note_off_c, 1, 82, 0
1, 64654, Note_on_c, 1, 81, 127
1, 64777, Note_off_c, 1, 81, 0
1, 64781, Note_off_c, 1, 43, 0
1, 64784, Note_on_c, 1, 79, 127
1, 64784, Note_on_c, 1, 46, 127
1, 64907, Note_off_c, 1, 79, 0
1, 64914, Note_on_c, 1, 77, 127
1, 65037, Note_off_c, 1, 77, 0
1, 65042, Note_off_c, 1, 46, 0
1, 65045, Note_on_c, 1, 76, 127
1, 65045, Note_on_c, 1, 50, 127
1, 65168, Note_off_c, 1, 76, 0
1, 65175, Note_on_c, 1, 74, 127
1, 65298, Note_off_c, 1, 74, 0
1, 65303, Note_off_c, 1, 50, 0
1, 65306, Note_on_c, 1, 73, 127
1, 65306, Note_on_c, 1, 55, 127
1, 65429, Note_off_c, 1, 73, 0
1, 65436, Note_on_c, 1, 74, 127
1, 65559, Note_off_c, 1, 74, 0
1, 65566, Note_on_c, 1, 76, 127
1, 65689, Note_off_c, 1, 76, 0
1, 65828, Note_on_c, 1, 69, 127
1, 65955, Note_off_c, 1, 55, 0
1, 66087, Note_off_c, 1, 69, 0
1, 66089, Note_on_c, 1, 45, 127
1, 66089, Note_on_c, 1, 64, 127
1, 66213, Note_off_c, 1, 45, 0
1, 66219, Note_on_c, 1, 43, 127
1, 66343, Note_off_c, 1, 43, 0
1, 66348, Note_off_c, 1, 64, 0
1, 66350, Note_on_c, 1, 45, 127
1, 66350, Note_on_c, 1, 69, 127
1, 66474, Note_off_c, 1, 45, 0
1, 66480, Note_on_c, 1, 55, 127
1, 66604, Note_off_c, 1, 55, 0
1, 66609, Note_off_c, 1, 69, 0
1, 66611, Note_on_c, 1, 45, 127
1, 66611, Note_on_c, 1, 73, 127
1, 66735, Note_off_c, 1, 45, 0
1, 66741, Note_on_c, 1, 55, 127
1, 66865, Note_off_c, 1, 55, 0
1, 66870, Note_off_c, 1, 73, 0
1, 66871, Note_on_c, 1, 76, 127
1, 66871, Note_on_c, 1, 45, 127
1, 66994, Note_off_c, 1, 76, 0
1, 66995, Note_off_c, 1, 45, 0
1, 67002, Note_on_c, 1, 74, 127
1, 67002, Note_on_c, 1, 55, 127
1, 67125, Note_off_c, 1, 74, 0
1, 67126, Note_off_c, 1, 55, 0
1, 67132, Note_on_c, 1, 45, 127
1, 67132, Note_on_c, 1, 76, 127
1, 67256, Note_off_c, 1, 45, 0
1, 67264, Note_on_c, 1, 55, 127
1, 67388, Note_off_c, 1, 55, 0
1, 67521, Note_off_c, 1, 76, 0
1, 67524, Note_on_c, 1, 69, 127
1, 67524, Note_on_c, 1, 53, 127
1, 67647, Note_off_c, 1, 69, 0
1, 67648, Note_off_c, 1, 53, 0
1, 67655, Note_on_c, 1, 65, 127
1, 67655, Note_on_c, 1, 45, 127
1, 67778, Note_off_c, 1, 65, 0
1, 67779, Note_off_c, 1, 45, 0
1, 67785, Note_on_c, 1, 69, 127
1, 67785, Note_on_c, 1, 43, 127
1, 67908, Note_off_c, 1, 69, 0
1, 67909, Note_off_c, 1, 43, 0
1, 67916, Note_on_c, 1, 74, 127
1, 67916, Note_on_c, 1, 45, 127
1, 68039, Note_off_c, 1, 74, 0
1, 68040, Note_off_c, 1, 45, 0
1, 68046, Note_on_c, 1, 69, 127
1, 68046, Note_on_c, 1, 53, 127
1, 68169, Note_off_c, 1, 69, 0
1, 68170, Note_off_c, 1, 53, 0
1, 68176, Note_on_c, 1, 65, 127
1, 68176, Note_on_c, 1, 45, 127
1, 68299, Note_off_c, 1, 65, 0
1, 68300, Note_off_c, 1, 45, 0
1, 68307, Note_on_c, 1, 69, 127
1, 68307, Note_on_c, 1, 53, 127
1, 68430, Note_off_c, 1, 69, 0
1, 68431, Note_off_c, 1, 53, 0
1, 68437, Note_on_c, 1, 74, 127
1, 68437, Note_on_c, 1, 45, 127
1, 68560, Note_off_c, 1, 74, 0
1, 68561, Note_off_c, 1, 45, 0
1, 68568, Note_on_c, 1, 73, 127
1, 68568, Note_on_c, 1, 53, 127
1, 68691, Note_off_c, 1, 73, 0
1, 68692, Note_off_c, 1, 53, 0
1, 68698, Note_on_c, 1, 45, 127
1, 68698, Note_on_c, 1, 74, 127
1, 68822, Note_off_c, 1, 45, 0
1, 68829, Note_on_c, 1, 53, 127
1, 68953, Note_off_c, 1, 53, 0
1, 69087, Note_off_c, 1, 74, 0
1, 69090, Note_on_c, 1, 67, 127
1, 69090, Note_on_c, 1, 52, 127
1, 69213, Note_off_c, 1, 67, 0
1, 69214, Note_off_c, 1, 52, 0
1, 69221, Note_on_c, 1, 64, 127
1, 69221, Note_on_c, 1, 45, 127
1, 69344, Note_off_c, 1, 64, 0
1, 69345, Note_off_c, 1, 45, 0
1, 69351, Note_on_c, 1, 67, 127
1, 69351, Note_on_c, 1, 43, 127
1, 69474, Note_off_c, 1, 67, 0
1, 69475, Note_off_c, 1, 43, 0
1, 69481, Note_on_c, 1, 72, 127
1, 69481, Note_on_c, 1, 45, 127
1, 69604, Note_off_c, 1, 72, 0
1, 69605, Note_off_c, 1, 45, 0
1, 69612, Note_on_c, 1, 67, 127
1, 69612, Note_on_c, 1, 52, 127
1, 69735, Note_off_c, 1, 67, 0
1, 69736, Note_off_c, 1, 52, 0
1, 69742, Note_on_c, 1, 64, 127
1, 69742, Note_on_c, 1, 45, 127
1, 69865, Note_off_c, 1, 64, 0
1, 69866, Note_off_c, 1, 45, 0
1, 69873, Note_on_c, 1, 67, 127
1, 69873, Note_on_c, 1, 52, 127
1, 69996, Note_off_c, 1, 67, 0
1, 69997, Note_off_c, 1, 52, 0
1, 70003, Note_on_c, 1, 72, 127
1, 70003, Note_on_c, 1, 45, 127
1, 70126, Note_off_c, 1, 72, 0
1, 70127, Note_off_c, 1, 45, 0
1, 70133, Note_on_c, 1, 71, 127
1, 70133, Note_on_c, 1, 52, 127
1, 70256, Note_off_c, 1, 71, 0
1, 70257, Note_off_c, 1, 52, 0
1, 70264, Note_on_c, 1, 45, 127
1, 70264, Note_on_c, 1, 72, 127
1, 70388, Note_off_c, 1, 45, 0
1, 70395, Note_on_c, 1, 52, 127
1, 70519, Note_off_c, 1, 52, 0
1, 70653, Note_off_c, 1, 72, 0
1, 70656, Note_on_c, 1, 65, 127
1, 70656, Note_on_c, 1, 50, 127
1, 70779, Note_off_c, 1, 65, 0
1, 70780, Note_off_c, 1, 50, 0
1, 70786, Note_on_c, 1, 62, 127
1, 70786, Note_on_c, 1, 53, 127
1, 70909, Note_off_c, 1, 62, 0
1, 70910, Note_off_c, 1, 53, 0
1, 70917, Note_on_c, 1, 65, 127
1, 70917, Note_on_c, 1, 50, 127
1, 71040, Note_off_c, 1, 65, 0
1, 71041, Note_off_c, 1, 50, 0
1, 71047, Note_on_c, 1, 70, 127
1, 71047, Note_on_c, 1, 45, 127
1, 71170, Note_off_c, 1, 70, 0
1, 71171, Note_off_c, 1, 45, 0
1, 71178, Note_on_c, 1, 65, 127
1, 71178, Note_on_c, 1, 50, 127
1, 71301, Note_off_c, 1, 65, 0
1, 71302, Note_off_c, 1, 50, 0
1, 71308, Note_on_c, 1, 62, 127
1, 71308, Note_on_c, 1, 53, 127
1, 71431, Note_off_c, 1, 62, 0
1, 71432, Note_off_c, 1, 53, 0
1, 71438, Note_on_c, 1, 65, 127
1, 71438, Note_on_c, 1, 57, 127
1, 71561, Note_off_c, 1, 65, 0
1, 71562, Note_off_c, 1, 57, 0
1, 71569, Note_on_c, 1, 70, 127
1, 71569, Note_on_c, 1, 43, 127
1, 71692, Note_off_c, 1, 70, 0
1, 71693, Note_off_c, 1, 43, 0
1, 71699, Note_on_c, 1, 67, 127
1, 71699, Note_on_c, 1, 52, 127
1, 71822, Note_off_c, 1, 67, 0
1, 71823, Note_off_c, 1, 52, 0
1, 71830, Note_on_c, 1, 64, 127
1, 71830, Note_on_c, 1, 55, 127
1, 71953, Note_off_c, 1, 64, 0
1, 71954, Note_off_c, 1, 55, 0
1, 71961, Note_on_c, 1, 67, 127
1, 71961, Note_on_c, 1, 58, 127
1, 72084, Note_off_c, 1, 67, 0
1, 72085, Note_off_c, 1, 58, 0
1, 72091, Note_on_c, 1, 61, 127
1, 72091, Note_on_c, 1, 55, 127
1, 72214, Note_off_c, 1, 61, 0
1, 72222, Note_on_c, 1, 69, 127
1, 72345, Note_off_c, 1, 69, 0
1, 72349, Note_off_c, 1, 55, 0
1, 72352, Note_on_c, 1, 70, 127
1, 72352, Note_on_c, 1, 49, 127
1, 72475, Note_off_c, 1, 70, 0
1, 72483, Note_on_c, 1, 69, 127
1, 72606, Note_off_c, 1, 69, 0
1, 72610, Note_off_c, 1, 49, 0
1, 72613, Note_on_c, 1, 61, 127
1, 72613, Note_on_c, 1, 52, 127
1, 72736, Note_off_c, 1, 61, 0
1, 72743, Note_on_c, 1, 69, 127
1, 72866, Note_off_c, 1, 69, 0
1, 72871, Note_off_c, 1, 52, 0
1, 72874, Note_on_c, 1, 70, 127
1, 72874, Note_on_c, 1, 43, 127
1, 72997, Note_off_c, 1, 70, 0
1, 73004, Note_on_c, 1, 69, 127
1, 73127, Note_off_c, 1, 69, 0
1, 73135, Note_on_c, 1, 61, 127
1, 73262, Note_off_c, 1, 43, 0
1, 73265, Note_on_c, 1, 46, 127
1, 73389, Note_off_c, 1, 46, 0
1, 73394, Note_off_c, 1, 61, 0
1, 73396, Note_on_c, 1, 45, 127
1, 73396, Note_on_c, 1, 64, 127
1, 73520, Note_off_c, 1, 45, 0
1, 73527, Note_on_c, 1, 43, 127
1, 73651, Note_off_c, 1, 43, 0
1, 73654, Note_off_c, 1, 64, 0
1, 73657, Note_on_c, 1, 41, 127
1, 73781, Note_off_c, 1, 41, 0
1, 73788, Note_on_c, 1, 69, 127
1, 73788, Note_on_c, 1, 53, 127
1, 73911, Note_off_c, 1, 69, 0
1, 73912, Note_off_c, 1, 53, 0
1, 73918, Note_on_c, 1, 70, 127
1, 73918, Note_on_c, 1, 52, 127
1, 74041, Note_off_c, 1, 70, 0
1, 74042, Note_off_c, 1, 52, 0
1, 74048, Note_on_c, 1, 69, 127
1, 74048, Note_on_c, 1, 53, 127
1, 74171, Note_off_c, 1, 69, 0
1, 74172, Note_off_c, 1, 53, 0
1, 74179, Note_on_c, 1, 62, 127
1, 74179, Note_on_c, 1, 41, 127
1, 74302, Note_off_c, 1, 62, 0
1, 74303, Note_off_c, 1, 41, 0
1, 74309, Note_on_c, 1, 69, 127
1, 74309, Note_on_c, 1, 53, 127
1, 74432, Note_off_c, 1, 69, 0
1, 74433, Note_off_c, 1, 53, 0
1, 74440, Note_on_c, 1, 70, 127
1, 74440, Note_on_c, 1, 52, 127
1, 74563, Note_off_c, 1, 70, 0
1, 74564, Note_off_c, 1, 52, 0
1, 74570, Note_on_c, 1, 69, 127
1, 74570, Note_on_c, 1, 53, 127
1, 74693, Note_off_c, 1, 69, 0
1, 74694, Note_off_c, 1, 53, 0
1, 74700, Note_on_c, 1, 41, 127
1, 74700, Note_on_c, 1, 62, 127
1, 74824, Note_off_c, 1, 41, 0
1, 74831, Note_on_c, 1, 53, 127
1, 74955, Note_off_c, 1, 53, 0
1, 74959, Note_off_c, 1, 62, 0
1, 74962, Note_on_c, 1, 52, 127
1, 74962, Note_on_c, 1, 65, 127
1, 75086, Note_off_c, 1, 52, 0
1, 75093, Note_on_c, 1, 50, 127
1, 75217, Note_off_c, 1, 50, 0
1, 75220, Note_off_c, 1, 65, 0
1, 75223, Note_on_c, 1, 49, 127
1, 75353, Note_on_c, 1, 67, 127
1, 75476, Note_off_c, 1, 67, 0
1, 75481, Note_off_c, 1, 49, 0
1, 75484, Note_on_c, 1, 69, 127
1, 75484, Note_on_c, 1, 40, 127
1, 75607, Note_off_c, 1, 69, 0
1, 75614, Note_on_c, 1, 67, 127
1, 75737, Note_off_c, 1, 67, 0
1, 75742, Note_off_c, 1, 40, 0
1, 75745, Note_on_c, 1, 64, 127
1, 75745, Note_on_c, 1, 43, 127
1, 75868, Note_off_c, 1, 64, 0
1, 75875, Note_on_c, 1, 67, 127
1, 75998, Note_off_c, 1, 67, 0
1, 76003, Note_off_c, 1, 43, 0
1, 76005, Note_on_c, 1, 69, 127
1, 76005, Note_on_c, 1, 37, 127
1, 76128, Note_off_c, 1, 69, 0
1, 76136, Note_on_c, 1, 67, 127
1, 76259, Note_off_c, 1, 67, 0
1, 76266, Note_on_c, 1, 57, 127
1, 76393, Note_off_c, 1, 37, 0
1, 76397, Note_on_c, 1, 49, 127
1, 76521, Note_off_c, 1, 49, 0
1, 76525, Note_off_c, 1, 57, 0
1, 76528, Note_on_c, 1, 47, 127
1, 76528, Note_on_c, 1, 67, 127
1, 76652, Note_off_c, 1, 47, 0
1, 76658, Note_on_c, 1, 45, 127
1, 76782, Note_off_c, 1, 45, 0
1, 76789, Note_on_c, 1, 50, 127
1, 76917, Note_off_c, 1, 67, 0
1, 76919, Note_on_c, 1, 58, 127
1, 77042, Note_off_c, 1, 58, 0
1, 77047, Note_off_c, 1, 50, 0
1, 77050, Note_on_c, 1, 57, 127
1, 77050, Note_on_c, 1, 38, 127
1, 77173, Note_off_c, 1, 57, 0
1, 77180, Note_on_c, 1, 55, 127
1, 77303, Note_off_c, 1, 55, 0
1, 77308, Note_off_c, 1, 38, 0
1, 77310, Note_on_c, 1, 57, 127
1, 77310, Note_on_c, 1, 41, 127
1, 77433, Note_off_c, 1, 57, 0
1, 77441, Note_on_c, 1, 64, 127
1, 77564, Note_off_c, 1, 64, 0
1, 77568, Note_off_c, 1, 41, 0
1, 77571, Note_on_c, 1, 62, 127
1, 77571, Note_on_c, 1, 45, 127
1, 77694, Note_off_c, 1, 62, 0
1, 77702, Note_on_c, 1, 61, 127
1, 77825, Note_off_c, 1, 61, 0
1, 77829, Note_off_c, 1, 45, 0
1, 77832, Note_on_c, 1, 50, 127
1, 77832, Note_on_c, 1, 62, 127
1, 77917, Note_off_c, 1, 50, 0
1, 77920, Note_on_c, 1, 49, 127
1, 77955, Note_off_c, 1, 62, 0
1, 77963, Note_on_c, 1, 67, 127
1, 78005, Note_off_c, 1, 49, 0
1, 78086, Note_off_c, 1, 67, 0
1, 78094, Note_on_c, 1, 65, 127
1, 78217, Note_off_c, 1, 65, 0
1, 78224, Note_on_c, 1, 64, 127
1, 78347, Note_off_c, 1, 64, 0
1, 78485, Note_on_c, 1, 58, 127
1, 78485, Note_on_c, 1, 55, 127
1, 78608, Note_off_c, 1, 58, 0
1, 78609, Note_off_c, 1, 55, 0
1, 78615, Note_on_c, 1, 60, 127
1, 78615, Note_on_c, 1, 57, 127
1, 78738, Note_off_c, 1, 60, 0
1, 78739, Note_off_c, 1, 57, 0
1, 78746, Note_on_c, 1, 62, 127
1, 78746, Note_on_c, 1, 58, 127
1, 78869, Note_off_c, 1, 62, 0
1, 78870, Note_off_c, 1, 58, 0
1, 78876, Note_on_c, 1, 63, 127
1, 78876, Note_on_c, 1, 48, 127
1, 78999, Note_off_c, 1, 63, 0
1, 79000, Note_off_c, 1, 48, 0
1, 79007, Note_on_c, 1, 57, 127
1, 79007, Note_on_c, 1, 54, 127
1, 79130, Note_off_c, 1, 57, 0
1, 79131, Note_off_c, 1, 54, 0
1, 79137, Note_on_c, 1, 58, 127
1, 79137, Note_on_c, 1, 55, 127
1, 79260, Note_off_c, 1, 58, 0
1, 79261, Note_off_c, 1, 55, 0
1, 79267, Note_on_c, 1, 60, 127
1, 79267, Note_on_c, 1, 57, 127
1, 79390, Note_off_c, 1, 60, 0
1, 79391, Note_off_c, 1, 57, 0
1, 79398, Note_on_c, 1, 62, 127
1, 79398, Note_on_c, 1, 46, 127
1, 79521, Note_off_c, 1, 62, 0
1, 79522, Note_off_c, 1, 46, 0
1, 79529, Note_on_c, 1, 58, 127
1, 79529, Note_on_c, 1, 55, 127
1, 79652, Note_off_c, 1, 58, 0
1, 79653, Note_off_c, 1, 55, 0
1, 79660, Note_on_c, 1, 60, 127
1, 79660, Note_on_c, 1, 57, 127
1, 79783, Note_off_c, 1, 60, 0
1, 79784, Note_off_c, 1, 57, 0
1, 79790, Note_on_c, 1, 62, 127
1, 79790, Note_on_c, 1, 58, 127
1, 79913, Note_off_c, 1, 62, 0
1, 79914, Note_off_c, 1, 58, 0
1, 79920, Note_on_c, 1, 63, 127
1, 79920, Note_on_c, 1, 48, 127
1, 80043, Note_off_c, 1, 63, 0
1, 80044, Note_off_c, 1, 48, 0
1, 80051, Note_on_c, 1, 57, 127
1, 80051, Note_on_c, 1, 54, 127
1, 80174, Note_off_c, 1, 57, 0
1, 80175, Note_off_c, 1, 54, 0
1, 80181, Note_on_c, 1, 58, 127
1, 80181, Note_on_c, 1, 55, 127
1, 80304, Note_off_c, 1, 58, 0
1, 80305, Note_off_c, 1, 55, 0
1, 80312, Note_on_c, 1, 60, 127
1, 80312, Note_on_c, 1, 57, 127
1, 80435, Note_off_c, 1, 60, 0
1, 80436, Note_off_c, 1, 57, 0
1, 80442, Note_on_c, 1, 62, 127
1, 80442, Note_on_c, 1, 46, 127
1, 80565, Note_off_c, 1, 62, 0
1, 80566, Note_off_c, 1, 46, 0
1, 80572, Note_on_c, 1, 58, 127
1, 80572, Note_on_c, 1, 55, 127
1, 80695, Note_off_c, 1, 58, 0
1, 80696, Note_off_c, 1, 55, 0
1, 80703, Note_on_c, 1, 60, 127
1, 80703, Note_on_c, 1, 57, 127
1, 80826, Note_off_c, 1, 60, 0
1, 80827, Note_off_c, 1, 57, 0
1, 80833, Note_on_c, 1, 62, 127
1, 80833, Note_on_c, 1, 58, 127
1, 80956, Note_off_c, 1, 62, 0
1, 80957, Note_off_c, 1, 58, 0
1, 80964, Note_on_c, 1, 60, 127
1, 80964, Note_on_c, 1, 45, 127
1, 81087, Note_off_c, 1, 60, 0
1, 81088, Note_off_c, 1, 45, 0
1, 81095, Note_on_c, 1, 54, 127
1, 81095, Note_on_c, 1, 50, 127
1, 81218, Note_off_c, 1, 54, 0
1, 81219, Note_off_c, 1, 50, 0
1, 81225, Note_on_c, 1, 55, 127
1, 81225, Note_on_c, 1, 52, 127
1, 81348, Note_off_c, 1, 55, 0
1, 81349, Note_off_c, 1, 52, 0
1, 81356, Note_on_c, 1, 57, 127
1, 81356, Note_on_c, 1, 54, 127
1, 81479, Note_off_c, 1, 57, 0
1, 81480, Note_off_c, 1, 54, 0
1, 81486, Note_on_c, 1, 43, 127
1, 81486, Note_on_c, 1, 58, 127
1, 81610, Note_off_c, 1, 43, 0
1, 81617, Note_on_c, 1, 50, 127
1, 81741, Note_off_c, 1, 50, 0
1, 81747, Note_on_c, 1, 52, 127
1, 81866, Note_off_c, 1, 58, 0
1, 81871, Note_off_c, 1, 52, 0
1, 81877, Note_on_c, 1, 54, 127
1, 82001, Note_off_c, 1, 54, 0
1, 82008, Note_on_c, 1, 55, 127
1, 82132, Note_off_c, 1, 55, 0
1, 82138, Note_on_c, 1, 57, 127
1, 82261, Note_off_c, 1, 57, 0
1, 82269, Note_on_c, 1, 58, 127
1, 82392, Note_off_c, 1, 58, 0
1, 82399, Note_on_c, 1, 60, 127
1, 82522, Note_off_c, 1, 60, 0
1, 82530, Note_on_c, 1, 62, 127
1, 82653, Note_off_c, 1, 62, 0
1, 82661, Note_on_c, 1, 58, 127
1, 82784, Note_off_c, 1, 58, 0
1, 82791, Note_on_c, 1, 67, 127
1, 82914, Note_off_c, 1, 67, 0
1, 82922, Note_on_c, 1, 62, 127
1, 83045, Note_off_c, 1, 62, 0
1, 83052, Note_on_c, 1, 70, 127
1, 83182, Note_on_c, 1, 67, 127
1, 83305, Note_off_c, 1, 67, 0
1, 83310, Note_off_c, 1, 70, 0
1, 83313, Note_on_c, 1, 65, 127
1, 83436, Note_off_c, 1, 65, 0
1, 83443, Note_on_c, 1, 63, 127
1, 83566, Note_off_c, 1, 63, 0
1, 83574, Note_on_c, 1, 62, 127
1, 83697, Note_off_c, 1, 62, 0
1, 83704, Note_on_c, 1, 60, 127
1, 83828, Note_off_c, 1, 60, 0
1, 83834, Note_on_c, 1, 58, 127
1, 83958, Note_off_c, 1, 58, 0
1, 83965, Note_on_c, 1, 57, 127
1, 84089, Note_off_c, 1, 57, 0
1, 84096, Note_on_c, 1, 55, 127
1, 84220, Note_off_c, 1, 55, 0
1, 84227, Note_on_c, 1, 58, 127
1, 84351, Note_off_c, 1, 58, 0
1, 84357, Note_on_c, 1, 52, 127
1, 84481, Note_off_c, 1, 52, 0
1, 84487, Note_on_c, 1, 55, 127
1, 84611, Note_off_c, 1, 55, 0
1, 84618, Note_on_c, 1, 49, 127
1, 84748, Note_on_c, 1, 70, 127
1, 84871, Note_off_c, 1, 70, 0
1, 84879, Note_on_c, 1, 69, 127
1, 85002, Note_off_c, 1, 69, 0
1, 85009, Note_on_c, 1, 67, 127
1, 85132, Note_off_c, 1, 67, 0
1, 85139, Note_on_c, 1, 76, 127
1, 85262, Note_off_c, 1, 76, 0
1, 85270, Note_off_c, 1, 49, 0
1, 85270, Note_on_c, 1, 74, 127
1, 85393, Note_off_c, 1, 74, 0
1, 85400, Note_on_c, 1, 73, 127
1, 85400, Note_on_c, 1, 45, 127
1, 85523, Note_off_c, 1, 73, 0
1, 85531, Note_on_c, 1, 71, 127
1, 85654, Note_off_c, 1, 71, 0
1, 85658, Note_off_c, 1, 45, 0
1, 85662, Note_on_c, 1, 69, 127
1, 85662, Note_on_c, 1, 47, 127
1, 85785, Note_off_c, 1, 69, 0
1, 85792, Note_on_c, 1, 67, 127
1, 85915, Note_off_c, 1, 67, 0
1, 85920, Note_off_c, 1, 47, 0
1, 85923, Note_on_c, 1, 65, 127
1, 85923, Note_on_c, 1, 49, 127
1, 86046, Note_off_c, 1, 65, 0
1, 86053, Note_on_c, 1, 64, 127
1, 86176, Note_off_c, 1, 64, 0
1, 86181, Note_off_c, 1, 49, 0
1, 86184, Note_on_c, 1, 65, 127
1, 86184, Note_on_c, 1, 50, 127
1, 86314, Note_on_c, 1, 62, 127
1, 86347, Note_off_c, 1, 65, 0
1, 86437, Note_off_c, 1, 62, 0
1, 86442, Note_off_c, 1, 50, 0
1, 86444, Note_on_c, 1, 67, 127
1, 86444, Note_on_c, 1, 52, 127
1, 86575, Note_on_c, 1, 62, 127
1, 86607, Note_off_c, 1, 67, 0
1, 86698, Note_off_c, 1, 62, 0
1, 86702, Note_off_c, 1, 52, 0
1, 86705, Note_on_c, 1, 69, 127
1, 86705, Note_on_c, 1, 53, 127
1, 86836, Note_on_c, 1, 62, 127
1, 86868, Note_off_c, 1, 69, 0
1, 86959, Note_off_c, 1, 62, 0
1, 86963, Note_off_c, 1, 53, 0
1, 86966, Note_on_c, 1, 70, 127
1, 86966, Note_on_c, 1, 55, 127
1, 87089, Note_off_c, 1, 70, 0
1, 87097, Note_on_c, 1, 62, 127
1, 87224, Note_off_c, 1, 55, 0
1, 87228, Note_on_c, 1, 57, 127
1, 87356, Note_off_c, 1, 62, 0
1, 87486, Note_off_c, 1, 57, 0
1, 87489, Note_on_c, 1, 64, 127
1, 87489, Note_on_c, 1, 45, 127
1, 87612, Note_off_c, 1, 64, 0
1, 87619, Note_on_c, 1, 61, 127
1, 87742, Note_off_c, 1, 61, 0
1, 87747, Note_off_c, 1, 45, 0
1, 87749, Note_on_c, 1, 62, 127
1, 87749, Note_on_c, 1, 50, 127
1, 87872, Note_off_c, 1, 62, 0
1, 87880, Note_on_c, 1, 60, 127
1, 88003, Note_off_c, 1, 60, 0
1, 88007, Note_off_c, 1, 50, 0
1, 88010, Note_on_c, 1, 54, 127
1, 88010, Note_on_c, 1, 57, 127
1, 88133, Note_off_c, 1, 54, 0
1, 88141, Note_on_c, 1, 60, 127
1, 88264, Note_off_c, 1, 60, 0
1, 88268, Note_off_c, 1, 57, 0
1, 88271, Note_on_c, 1, 62, 127
1, 88271, Note_on_c, 1, 50, 127
1, 88394, Note_off_c, 1, 62, 0
1, 88401, Note_on_c, 1, 60, 127
1, 88524, Note_off_c, 1, 60, 0
1, 88529, Note_off_c, 1, 50, 0
1, 88532, Note_on_c, 1, 54, 127
1, 88532, Note_on_c, 1, 57, 127
1, 88655, Note_off_c, 1, 54, 0
1, 88663, Note_on_c, 1, 60, 127
1, 88786, Note_off_c, 1, 60, 0
1, 88790, Note_off_c, 1, 57, 0
1, 88794, Note_on_c, 1, 62, 127
1, 88794, Note_on_c, 1, 50, 127
1, 88917, Note_off_c, 1, 62, 0
1, 88924, Note_on_c, 1, 60, 127
1, 89047, Note_off_c, 1, 60, 0
1, 89052, Note_off_c, 1, 50, 0
1, 89054, Note_on_c, 1, 54, 127
1, 89054, Note_on_c, 1, 57, 127
1, 89177, Note_off_c, 1, 54, 0
1, 89185, Note_on_c, 1, 60, 127
1, 89308, Note_off_c, 1, 60, 0
1, 89312, Note_off_c, 1, 57, 0
1, 89315, Note_on_c, 1, 58, 127
1, 89315, Note_on_c, 1, 50, 127
1, 89438, Note_off_c, 1, 58, 0
1, 89446, Note_on_c, 1, 62, 127
1, 89569, Note_off_c, 1, 62, 0
1, 89573, Note_off_c, 1, 50, 0
1, 89576, Note_on_c, 1, 58, 127
1, 89576, Note_on_c, 1, 55, 127
1, 89699, Note_off_c, 1, 58, 0
1, 89706, Note_on_c, 1, 54, 127
1, 89829, Note_off_c, 1, 54, 0
1, 89834, Note_off_c, 1, 55, 0
1, 89837, Note_on_c, 1, 58, 127
1, 89837, Note_on_c, 1, 50, 127
1, 89960, Note_off_c, 1, 58, 0
1, 89967, Note_on_c, 1, 62, 127
1, 90090, Note_off_c, 1, 62, 0
1, 90095, Note_off_c, 1, 50, 0
1, 90098, Note_on_c, 1, 58, 127
1, 90098, Note_on_c, 1, 55, 127
1, 90221, Note_off_c, 1, 58, 0
1, 90229, Note_on_c, 1, 54, 127
1, 90352, Note_off_c, 1, 54, 0
1, 90356, Note_off_c, 1, 55, 0
1, 90359, Note_on_c, 1, 58, 127
1, 90359, Note_on_c, 1, 50, 127
1, 90482, Note_off_c, 1, 58, 0
1, 90490, Note_on_c, 1, 62, 127
1, 90613, Note_off_c, 1, 62, 0
1, 90617, Note_off_c, 1, 50, 0
1, 90620, Note_on_c, 1, 58, 127
1, 90620, Note_on_c, 1, 55, 127
1, 90743, Note_off_c, 1, 58, 0
1, 90751, Note_on_c, 1, 52, 127
1, 90874, Note_off_c, 1, 52, 0
1, 90878, Note_off_c, 1, 55, 0
1, 90881, Note_on_c, 1, 53, 127
1, 90881, Note_on_c, 1, 50, 127
1, 91004, Note_off_c, 1, 53, 0
1, 91011, Note_on_c, 1, 62, 127
1, 91134, Note_off_c, 1, 62, 0
1, 91139, Note_off_c, 1, 50, 0
1, 91142, Note_on_c, 1, 53, 127
1, 91142, Note_on_c, 1, 57, 127
1, 91265, Note_off_c, 1, 53, 0
1, 91272, Note_on_c, 1, 62, 127
1, 91395, Note_off_c, 1, 62, 0
1, 91400, Note_off_c, 1, 57, 0
1, 91403, Note_on_c, 1, 53, 127
1, 91403, Note_on_c, 1, 50, 127
1, 91526, Note_off_c, 1, 53, 0
1, 91533, Note_on_c, 1, 62, 127
1, 91656, Note_off_c, 1, 62, 0
1, 91661, Note_off_c, 1, 50, 0
1, 91664, Note_on_c, 1, 53, 127
1, 91664, Note_on_c, 1, 57, 127
1, 91787, Note_off_c, 1, 53, 0
1, 91795, Note_on_c, 1, 62, 127
1, 91918, Note_off_c, 1, 62, 0
1, 91922, Note_off_c, 1, 57, 0
1, 91925, Note_on_c, 1, 53, 127
1, 91925, Note_on_c, 1, 50, 127
1, 92048, Note_off_c, 1, 53, 0
1, 92056, Note_on_c, 1, 62, 127
1, 92179, Note_off_c, 1, 62, 0
1, 92183, Note_off_c, 1, 50, 0
1, 92186, Note_on_c, 1, 53, 127
1, 92186, Note_on_c, 1, 57, 127
1, 92309, Note_off_c, 1, 53, 0
1, 92316, Note_on_c, 1, 62, 127
1, 92439, Note_off_c, 1, 62, 0
1, 92444, Note_off_c, 1, 57, 0
1, 92447, Note_on_c, 1, 55, 127
1, 92447, Note_on_c, 1, 50, 127
1, 92574, Note_off_c, 1, 55, 0
1, 92581, Note_on_c, 1, 61, 127
1, 92708, Note_off_c, 1, 61, 0
1, 92713, Note_off_c, 1, 50, 0
1, 92716, Note_on_c, 1, 55, 127
1, 92716, Note_on_c, 1, 58, 127
1, 92843, Note_off_c, 1, 55, 0
1, 92851, Note_on_c, 1, 52, 127
1, 92978, Note_off_c, 1, 52, 0
1, 92982, Note_off_c, 1, 58, 0
1, 92985, Note_on_c, 1, 55, 127
1, 92985, Note_on_c, 1, 50, 127
1, 93112, Note_off_c, 1, 55, 0
1, 93120, Note_on_c, 1, 61, 127
1, 93247, Note_off_c, 1, 61, 0
1, 93251, Note_off_c, 1, 50, 0
1, 93254, Note_on_c, 1, 55, 127
1, 93254, Note_on_c, 1, 58, 127
1, 93381, Note_off_c, 1, 55, 0
1, 93389, Note_on_c, 1, 52, 127
1, 93516, Note_off_c, 1, 52, 0
1, 93520, Note_off_c, 1, 58, 0
1, 93524, Note_on_c, 1, 55, 127
1, 93524, Note_on_c, 1, 50, 127
1, 93651, Note_off_c, 1, 55, 0
1, 93658, Note_on_c, 1, 61, 127
1, 93785, Note_off_c, 1, 61, 0
1, 93790, Note_off_c, 1, 50, 0
1, 93793, Note_on_c, 1, 55, 127
1, 93793, Note_on_c, 1, 58, 127
1, 93920, Note_off_c, 1, 55, 0
1, 93927, Note_on_c, 1, 52, 127
1, 94054, Note_off_c, 1, 52, 0
1, 94059, Note_off_c, 1, 58, 0
1, 94062, Note_on_c, 1, 62, 127
1, 94062, Note_on_c, 1, 54, 127
1, 94062, Note_on_c, 1, 50, 127
1, 94062, Note_on_c, 1, 57, 127
1, 96832, Note_off_c, 1, 62, 0
1, 96832, Note_off_c, 1, 54, 0
1, 96832, Note_off_c, 1, 50, 0
1, 96832, Note_off_c, 1, 57, 0
1, 97307, Note_on_c, 1, 62, 127
1, 97453, Note_off_c, 1, 62, 0
1, 97457, Note_on_c, 1, 64, 127
1, 97603, Note_off_c, 1, 64, 0
1, 97606, Note_on_c, 1, 65, 127
1, 97752, Note_off_c, 1, 65, 0
1, 97756, Note_on_c, 1, 67, 127
1, 97902, Note_off_c, 1, 67, 0
1, 97905, Note_on_c, 1, 65, 127
1, 98051, Note_off_c, 1, 65, 0
1, 98055, Note_on_c, 1, 64, 127
1, 98201, Note_off_c, 1, 64, 0
1, 98204, Note_on_c, 1, 65, 127
1, 98350, Note_off_c, 1, 65, 0
1, 98354, Note_on_c, 1, 67, 127
1, 98500, Note_off_c, 1, 67, 0
1, 98503, Note_on_c, 1, 69, 127
1, 98649, Note_off_c, 1, 69, 0
1, 98653, Note_on_c, 1, 70, 127
1, 98799, Note_off_c, 1, 70, 0
1, 98802, Note_on_c, 1, 69, 127
1, 98948, Note_off_c, 1, 69, 0
1, 98952, Note_on_c, 1, 67, 127
1, 99098, Note_off_c, 1, 67, 0
1, 99101, Note_on_c, 1, 69, 127
1, 99547, Note_off_c, 1, 69, 0
1, 99552, Note_on_c, 1, 74, 127
1, 99998, Note_off_c, 1, 74, 0
1, 100001, Note_on_c, 1, 73, 127
1, 100447, Note_off_c, 1, 73, 0
1, 100451, Note_on_c, 1, 72, 127
1, 100897, Note_off_c, 1, 72, 0
1, 100901, Note_on_c, 1, 71, 127
1, 101347, Note_off_c, 1, 71, 0
1, 101351, Note_on_c, 1, 70, 127
1, 101797, Note_off_c, 1, 70, 0
1, 101801, Note_on_c, 1, 69, 127
1, 102247, Note_off_c, 1, 69, 0
1, 102251, Note_on_c, 1, 67, 127
1, 103146, Note_off_c, 1, 67, 0
1, 103149, Note_on_c, 1, 65, 127
1, 103595, Note_off_c, 1, 65, 0
1, 103599, Note_on_c, 1, 64, 127
1, 104045, Note_off_c, 1, 64, 0
1, 104049, Note_on_c, 1, 69, 127
1, 104495, Note_off_c, 1, 69, 0
1, 104499, Note_on_c, 1, 69, 127
1, 104499, Note_on_c, 1, 65, 127
1, 104645, Note_off_c, 1, 69, 0
1, 104649, Note_on_c, 1, 71, 127
1, 104795, Note_off_c, 1, 71, 0
1, 104798, Note_on_c, 1, 72, 127
1, 104944, Note_off_c, 1, 65, 0
1, 104944, Note_off_c, 1, 72, 0
1, 104948, Note_on_c, 1, 74, 127
1, 104948, Note_on_c, 1, 62, 127
1, 105094, Note_off_c, 1, 74, 0
1, 105097, Note_on_c, 1, 72, 127
1, 105243, Note_off_c, 1, 72, 0
1, 105247, Note_on_c, 1, 71, 127
1, 105393, Note_off_c, 1, 62, 0
1, 105393, Note_off_c, 1, 71, 0
1, 105397, Note_on_c, 1, 72, 127
1, 105397, Note_on_c, 1, 69, 127
1, 105543, Note_off_c, 1, 72, 0
1, 105546, Note_on_c, 1, 74, 127
1, 105692, Note_off_c, 1, 74, 0
1, 105696, Note_on_c, 1, 76, 127
1, 105842, Note_off_c, 1, 76, 0
1, 105845, Note_on_c, 1, 77, 127
1, 105991, Note_off_c, 1, 77, 0
1, 106284, Note_off_c, 1, 69, 0
1, 106294, Note_on_c, 1, 76, 127
1, 106518, Note_on_c, 1, 59, 127
1, 106739, Note_off_c, 1, 76, 0
1, 106739, Note_off_c, 1, 59, 0
1, 106742, Note_on_c, 1, 60, 127
1, 106742, Note_on_c, 1, 81, 127
1, 106963, Note_off_c, 1, 60, 0
1, 106966, Note_on_c, 1, 62, 127
1, 107187, Note_off_c, 1, 81, 0
1, 107187, Note_off_c, 1, 62, 0
1, 107191, Note_on_c, 1, 64, 127
1, 107191, Note_on_c, 1, 80, 127
1, 107412, Note_off_c, 1, 64, 0
1, 107415, Note_on_c, 1, 66, 127
1, 107636, Note_off_c, 1, 80, 0
1, 107636, Note_off_c, 1, 66, 0
1, 107639, Note_on_c, 1, 67, 127
1, 107639, Note_on_c, 1, 79, 127
1, 107860, Note_off_c, 1, 67, 0
1, 107864, Note_on_c, 1, 64, 127
1, 108084, Note_off_c, 1, 79, 0
1, 108085, Note_off_c, 1, 64, 0
1, 108088, Note_on_c, 1, 69, 127
1, 108088, Note_on_c, 1, 78, 127
1, 108309, Note_off_c, 1, 69, 0
1, 108312, Note_on_c, 1, 68, 127
1, 108533, Note_off_c, 1, 78, 0
1, 108533, Note_off_c, 1, 68, 0
1, 108536, Note_on_c, 1, 69, 127
1, 108536, Note_on_c, 1, 77, 127
1, 108757, Note_off_c, 1, 69, 0
1, 108761, Note_on_c, 1, 71, 127
1, 108981, Note_off_c, 1, 77, 0
1, 108982, Note_off_c, 1, 71, 0
1, 108985, Note_on_c, 1, 72, 127
1, 108985, Note_on_c, 1, 76, 127
1, 109206, Note_off_c, 1, 72, 0
1, 109209, Note_on_c, 1, 66, 127
1, 109430, Note_off_c, 1, 76, 0
1, 109430, Note_off_c, 1, 66, 0
1, 109433, Note_on_c, 1, 71, 127
1, 109433, Note_on_c, 1, 74, 127
1, 109654, Note_off_c, 1, 71, 0
1, 109658, Note_on_c, 1, 69, 127
1, 109879, Note_off_c, 1, 69, 0
1, 109882, Note_on_c, 1, 68, 127
1, 110103, Note_off_c, 1, 68, 0
1, 110106, Note_on_c, 1, 64, 127
1, 110327, Note_off_c, 1, 74, 0
1, 110327, Note_off_c, 1, 64, 0
1, 110330, Note_on_c, 1, 72, 127
1, 110330, Note_on_c, 1, 69, 127
1, 110776, Note_off_c, 1, 72, 0
1, 110780, Note_on_c, 1, 71, 127
1, 111226, Note_off_c, 1, 71, 0
1, 111227, Note_off_c, 1, 69, 0
1, 111230, Note_on_c, 1, 76, 127
1, 111230, Note_on_c, 1, 67, 127
1, 111676, Note_off_c, 1, 76, 0
1, 111680, Note_on_c, 1, 69, 127
1, 111826, Note_off_c, 1, 67, 0
1, 111830, Note_on_c, 1, 65, 127
1, 111976, Note_off_c, 1, 65, 0
1, 111979, Note_on_c, 1, 64, 127
1, 112125, Note_off_c, 1, 69, 0
1, 112125, Note_off_c, 1, 64, 0
1, 112129, Note_on_c, 1, 62, 127
1, 112129, Note_on_c, 1, 71, 127
1, 112275, Note_off_c, 1, 62, 0
1, 112278, Note_on_c, 1, 64, 127
1, 112424, Note_off_c, 1, 64, 0
1, 112428, Note_on_c, 1, 65, 127
1, 112574, Note_off_c, 1, 71, 0
1, 112574, Note_off_c, 1, 65, 0
1, 112577, Note_on_c, 1, 64, 127
1, 112577, Note_on_c, 1, 72, 127
1, 112723, Note_off_c, 1, 64, 0
1, 112727, Note_on_c, 1, 62, 127
1, 112873, Note_off_c, 1, 62, 0
1, 112876, Note_on_c, 1, 60, 127
1, 113022, Note_off_c, 1, 72, 0
1, 113022, Note_off_c, 1, 60, 0
1, 113026, Note_on_c, 1, 59, 127
1, 113026, Note_on_c, 1, 68, 127
1, 113172, Note_off_c, 1, 59, 0
1, 113175, Note_on_c, 1, 60, 127
1, 113321, Note_off_c, 1, 60, 0
1, 113325, Note_on_c, 1, 62, 127
1, 113471, Note_off_c, 1, 68, 0
1, 113471, Note_off_c, 1, 62, 0
1, 113474, Note_on_c, 1, 69, 127
1, 113474, Note_on_c, 1, 60, 127
1, 113620, Note_off_c, 1, 69, 0
1, 113624, Note_on_c, 1, 67, 127
1, 113770, Note_off_c, 1, 67, 0
1, 113773, Note_on_c, 1, 65, 127
1, 113919, Note_off_c, 1, 60, 0
1, 113919, Note_off_c, 1, 65, 0
1, 113923, Note_on_c, 1, 64, 127
1, 113923, Note_on_c, 1, 61, 127
1, 114069, Note_off_c, 1, 64, 0
1, 114072, Note_on_c, 1, 65, 127
1, 114218, Note_off_c, 1, 65, 0
1, 114222, Note_on_c, 1, 67, 127
1, 114368, Note_off_c, 1, 61, 0
1, 114368, Note_off_c, 1, 67, 0
1, 114371, Note_on_c, 1, 65, 127
1, 114371, Note_on_c, 1, 62, 127
1, 114517, Note_off_c, 1, 65, 0
1, 114521, Note_on_c, 1, 64, 127
1, 114665, Note_off_c, 1, 62, 0
1, 114668, Note_off_c, 1, 64, 0
1, 114671, Note_on_c, 1, 62, 127
1, 114817, Note_off_c, 1, 62, 0
1, 114821, Note_on_c, 1, 61, 127
1, 114821, Note_on_c, 1, 55, 127
1, 114967, Note_off_c, 1, 61, 0
1, 114970, Note_on_c, 1, 62, 127
1, 115116, Note_off_c, 1, 62, 0
1, 115120, Note_on_c, 1, 64, 127
1, 115266, Note_off_c, 1, 55, 0
1, 115266, Note_off_c, 1, 64, 0
1, 115269, Note_on_c, 1, 50, 127
1, 115269, Note_on_c, 1, 53, 127
1, 115269, Note_on_c, 1, 62, 127
1, 115415, Note_off_c, 1, 50, 0
1, 115419, Note_on_c, 1, 52, 127
1, 115563, Note_off_c, 1, 53, 0
1, 115566, Note_off_c, 1, 52, 0
1, 115715, Note_off_c, 1, 62, 0
1, 115720, Note_on_c, 1, 55, 127
1, 115720, Note_on_c, 1, 61, 127
1, 115720, Note_on_c, 1, 58, 127
1, 115866, Note_off_c, 1, 55, 0
1, 115869, Note_on_c, 1, 53, 127
1, 116015, Note_off_c, 1, 53, 0
1, 116019, Note_on_c, 1, 52, 127
1, 116165, Note_off_c, 1, 61, 0
1, 116165, Note_off_c, 1, 58, 0
1, 116165, Note_off_c, 1, 52, 0
1, 116168, Note_on_c, 1, 53, 127
1, 116168, Note_on_c, 1, 57, 127
1, 116168, Note_on_c, 1, 62, 127
1, 116314, Note_off_c, 1, 53, 0
1, 116318, Note_on_c, 1, 55, 127
1, 116462, Note_off_c, 1, 57, 0
1, 116465, Note_off_c, 1, 55, 0
1, 116614, Note_off_c, 1, 62, 0
1, 116618, Note_on_c, 1, 58, 127
1, 116618, Note_on_c, 1, 62, 127
1, 116618, Note_on_c, 1, 67, 127
1, 116764, Note_off_c, 1, 58, 0
1, 116767, Note_on_c, 1, 57, 127
1, 116913, Note_off_c, 1, 57, 0
1, 116917, Note_on_c, 1, 55, 127
1, 117063, Note_off_c, 1, 62, 0
1, 117063, Note_off_c, 1, 55, 0
1, 117066, Note_on_c, 1, 61, 127
1, 117287, Note_off_c, 1, 67, 0
1, 117291, Note_on_c, 1, 64, 127
1, 117511, Note_off_c, 1, 61, 0
1, 117512, Note_off_c, 1, 64, 0
1, 117515, Note_on_c, 1, 65, 127
1, 117515, Note_on_c, 1, 62, 127
1, 117736, Note_off_c, 1, 65, 0
1, 117739, Note_on_c, 1, 67, 127
1, 117960, Note_off_c, 1, 62, 0
1, 117960, Note_off_c, 1, 67, 0
1, 117964, Note_on_c, 1, 69, 127
1, 117964, Note_on_c, 1, 61, 127
1, 117964, Note_on_c, 1, 64, 127
1, 118185, Note_off_c, 1, 69, 0
1, 118188, Note_on_c, 1, 71, 127
1, 118409, Note_off_c, 1, 61, 0
1, 118409, Note_off_c, 1, 71, 0
1, 118412, Note_on_c, 1, 72, 127
1, 118412, Note_on_c, 1, 60, 127
1, 118633, Note_off_c, 1, 72, 0
1, 118857, Note_off_c, 1, 60, 0
1, 118858, Note_off_c, 1, 64, 0
1, 118861, Note_on_c, 1, 74, 127
1, 118861, Note_on_c, 1, 59, 127
1, 118861, Note_on_c, 1, 62, 127
1, 119082, Note_off_c, 1, 74, 0
1, 119085, Note_on_c, 1, 73, 127
1, 119306, Note_off_c, 1, 59, 0
1, 119306, Note_off_c, 1, 73, 0
1, 119309, Note_on_c, 1, 58, 127
1, 119533, Note_on_c, 1, 76, 127
1, 119748, Note_off_c, 1, 62, 0
1, 119754, Note_off_c, 1, 58, 0
1, 119754, Note_off_c, 1, 76, 0
1, 119758, Note_on_c, 1, 77, 127
1, 119758, Note_on_c, 1, 57, 127
1, 119982, Note_on_c, 1, 71, 127
1, 120201, Note_off_c, 1, 77, 0
1, 120204, Note_off_c, 1, 57, 0
1, 120207, Note_on_c, 1, 76, 127
1, 120207, Note_on_c, 1, 55, 127
1, 120428, Note_off_c, 1, 76, 0
1, 120431, Note_on_c, 1, 74, 127
1, 120651, Note_off_c, 1, 71, 0
1, 120653, Note_off_c, 1, 74, 0
1, 120658, Note_on_c, 1, 73, 127
1, 120882, Note_on_c, 1, 69, 127
1, 121101, Note_off_c, 1, 73, 0
1, 121104, Note_off_c, 1, 55, 0
1, 121104, Note_off_c, 1, 69, 0
1, 121107, Note_on_c, 1, 70, 127
1, 121107, Note_on_c, 1, 53, 127
1, 121107, Note_on_c, 1, 74, 127
1, 121328, Note_off_c, 1, 70, 0
1, 121331, Note_on_c, 1, 69, 127
1, 121552, Note_off_c, 1, 53, 0
1, 121552, Note_off_c, 1, 69, 0
1, 121556, Note_on_c, 1, 67, 127
1, 121556, Note_on_c, 1, 52, 127
1, 121777, Note_off_c, 1, 67, 0
1, 122001, Note_off_c, 1, 74, 0
1, 122001, Note_off_c, 1, 52, 0
1, 122004, Note_on_c, 1, 69, 127
1, 122004, Note_on_c, 1, 57, 127
1, 122004, Note_on_c, 1, 72, 127
1, 122225, Note_off_c, 1, 69, 0
1, 122229, Note_on_c, 1, 67, 127
1, 122449, Note_off_c, 1, 57, 0
1, 122450, Note_off_c, 1, 67, 0
1, 122453, Note_on_c, 1, 66, 127
1, 122453, Note_on_c, 1, 50, 127
1, 122674, Note_off_c, 1, 66, 0
1, 122674, Note_off_c, 1, 50, 0
1, 122677, Note_on_c, 1, 62, 127
1, 122898, Note_off_c, 1, 72, 0
1, 122898, Note_off_c, 1, 62, 0
1, 122901, Note_on_c, 1, 63, 127
1, 122901, Note_on_c, 1, 70, 127
1, 122901, Note_on_c, 1, 67, 127
1, 123122, Note_off_c, 1, 63, 0
1, 123126, Note_on_c, 1, 62, 127
1, 123346, Note_off_c, 1, 70, 0
1, 123347, Note_off_c, 1, 62, 0
1, 123350, Note_on_c, 1, 60, 127
1, 123350, Note_on_c, 1, 69, 127
1, 123571, Note_off_c, 1, 60, 0
1, 123795, Note_off_c, 1, 67, 0
1, 123798, Note_on_c, 1, 65, 127
1, 124244, Note_off_c, 1, 69, 0
1, 124247, Note_on_c, 1, 59, 127
1, 124468, Note_off_c, 1, 59, 0
1, 124471, Note_on_c, 1, 79, 127
1, 124471, Note_on_c, 1, 55, 127
1, 124692, Note_off_c, 1, 65, 0
1, 124692, Note_off_c, 1, 79, 0
1, 124692, Note_off_c, 1, 55, 0
1, 124696, Note_on_c, 1, 81, 127
1, 124696, Note_on_c, 1, 64, 127
1, 124696, Note_on_c, 1, 60, 127
1, 124917, Note_off_c, 1, 81, 0
1, 124920, Note_on_c, 1, 79, 127
1, 125141, Note_off_c, 1, 64, 0
1, 125141, Note_off_c, 1, 79, 0
1, 125144, Note_on_c, 1, 77, 127
1, 125144, Note_on_c, 1, 62, 127
1, 125365, Note_off_c, 1, 77, 0
1, 125590, Note_off_c, 1, 60, 0
1, 125593, Note_on_c, 1, 58, 127
1, 126031, Note_off_c, 1, 62, 0
1, 126041, Note_on_c, 1, 76, 127
1, 126262, Note_off_c, 1, 76, 0
1, 126265, Note_on_c, 1, 72, 127
1, 126487, Note_off_c, 1, 72, 0
1, 126488, Note_off_c, 1, 58, 0
1, 126492, Note_on_c, 1, 74, 127
1, 126492, Note_on_c, 1, 57, 127
1, 126492, Note_on_c, 1, 77, 127
1, 126713, Note_off_c, 1, 74, 0
1, 126716, Note_on_c, 1, 72, 127
1, 126937, Note_off_c, 1, 57, 0
1, 126937, Note_off_c, 1, 72, 0
1, 126940, Note_on_c, 1, 70, 127
1, 126940, Note_on_c, 1, 55, 127
1, 127161, Note_off_c, 1, 70, 0
1, 127385, Note_off_c, 1, 55, 0
1, 127386, Note_off_c, 1, 77, 0
1, 127389, Note_on_c, 1, 72, 127
1, 127389, Note_on_c, 1, 60, 127
1, 127389, Note_on_c, 1, 76, 127
1, 127610, Note_off_c, 1, 72, 0
1, 127613, Note_on_c, 1, 70, 127
1, 127834, Note_off_c, 1, 60, 0
1, 127834, Note_off_c, 1, 70, 0
1, 127837, Note_on_c, 1, 53, 127
1, 127837, Note_on_c, 1, 69, 127
1, 127983, Note_off_c, 1, 53, 0
1, 127987, Note_on_c, 1, 55, 127
1, 128058, Note_off_c, 1, 76, 0
1, 128062, Note_on_c, 1, 77, 127
1, 128133, Note_off_c, 1, 55, 0
1, 128136, Note_on_c, 1, 57, 127
1, 128282, Note_off_c, 1, 69, 0
1, 128282, Note_off_c, 1, 57, 0
1, 128286, Note_on_c, 1, 58, 127
1, 128286, Note_on_c, 1, 67, 127
1, 128432, Note_off_c, 1, 58, 0
1, 128507, Note_off_c, 1, 77, 0
1, 128731, Note_off_c, 1, 67, 0
1, 128734, Note_on_c, 1, 65, 127
1, 128959, Note_on_c, 1, 74, 127
1, 129179, Note_off_c, 1, 65, 0
1, 129183, Note_on_c, 1, 64, 127
1, 129183, Note_on_c, 1, 45, 127
1, 129404, Note_off_c, 1, 74, 0
1, 129407, Note_on_c, 1, 73, 127
1, 129628, Note_off_c, 1, 64, 0
1, 129628, Note_off_c, 1, 45, 0
1, 129628, Note_off_c, 1, 73, 0
1, 129631, Note_on_c, 1, 50, 127
1, 129631, Note_on_c, 1, 74, 127
1, 129631, Note_on_c, 1, 65, 127
1, 129777, Note_off_c, 1, 50, 0
1, 129781, Note_on_c, 1, 52, 127
1, 129927, Note_off_c, 1, 52, 0
1, 129930, Note_on_c, 1, 53, 127
1, 130076, Note_off_c, 1, 74, 0
1, 130076, Note_off_c, 1, 65, 0
1, 130076, Note_off_c, 1, 53, 0
1, 130080, Note_on_c, 1, 55, 127
1, 130080, Note_on_c, 1, 70, 127
1, 130080, Note_on_c, 1, 61, 127
1, 130226, Note_off_c, 1, 55, 0
1, 130230, Note_on_c, 1, 53, 127
1, 130376, Note_off_c, 1, 53, 0
1, 130379, Note_on_c, 1, 52, 127
1, 130525, Note_off_c, 1, 70, 0
1, 130525, Note_off_c, 1, 61, 0
1, 130525, Note_off_c, 1, 52, 0
1, 130529, Note_on_c, 1, 69, 127
1, 130529, Note_on_c, 1, 53, 127
1, 130529, Note_on_c, 1, 62, 127
1, 130675, Note_off_c, 1, 69, 0
1, 130675, Note_off_c, 1, 53, 0
1, 130678, Note_on_c, 1, 67, 127
1, 130678, Note_on_c, 1, 55, 127
1, 130824, Note_off_c, 1, 67, 0
1, 130824, Note_off_c, 1, 55, 0
1, 130828, Note_on_c, 1, 65, 127
1, 130828, Note_on_c, 1, 57, 127
1, 130974, Note_off_c, 1, 65, 0
1, 130974, Note_off_c, 1, 57, 0
1, 130977, Note_on_c, 1, 64, 127
1, 130977, Note_on_c, 1, 58, 127
1, 131123, Note_off_c, 1, 64, 0
1, 131123, Note_off_c, 1, 58, 0
1, 131705, Note_off_c, 1, 62, 0
1, 131874, Note_on_c, 1, 61, 127
1, 131874, Note_on_c, 1, 58, 127
1, 131874, Note_on_c, 1, 55, 127
1, 132020, Note_off_c, 1, 61, 0
1, 132024, Note_on_c, 1, 62, 127
1, 132170, Note_off_c, 1, 62, 0
1, 132173, Note_on_c, 1, 64, 127
1, 132319, Note_off_c, 1, 58, 0
1, 132319, Note_off_c, 1, 55, 0
1, 132319, Note_off_c, 1, 64, 0
1, 132323, Note_on_c, 1, 62, 127
1, 132323, Note_on_c, 1, 53, 127
1, 132323, Note_on_c, 1, 57, 127
1, 132469, Note_off_c, 1, 62, 0
1, 132469, Note_off_c, 1, 53, 0
1, 132472, Note_on_c, 1, 64, 127
1, 132472, Note_on_c, 1, 52, 127
1, 132618, Note_off_c, 1, 64, 0
1, 132618, Note_off_c, 1, 52, 0
1, 132622, Note_on_c, 1, 65, 127
1, 132622, Note_on_c, 1, 50, 127
1, 132768, Note_off_c, 1, 65, 0
1, 132768, Note_off_c, 1, 50, 0
1, 132771, Note_on_c, 1, 67, 127
1, 132771, Note_on_c, 1, 49, 127
1, 132917, Note_off_c, 1, 67, 0
1, 132917, Note_off_c, 1, 49, 0
1, 133366, Note_off_c, 1, 57, 0
1, 133369, Note_on_c, 1, 55, 127
1, 133515, Note_off_c, 1, 55, 0
1, 133519, Note_on_c, 1, 69, 127
1, 133665, Note_off_c, 1, 69, 0
1, 133668, Note_on_c, 1, 70, 127
1, 133814, Note_off_c, 1, 70, 0
1, 134341, Note_on_c, 1, 48, 127
1, 134562, Note_off_c, 1, 48, 0
1, 134565, Note_on_c, 1, 74, 127
1, 134565, Note_on_c, 1, 46, 127
1, 135010, Note_off_c, 1, 74, 0
1, 135010, Note_off_c, 1, 46, 0
1, 135014, Note_on_c, 1, 73, 127
1, 135014, Note_on_c, 1, 45, 127
1, 135459, Note_off_c, 1, 73, 0
1, 135463, Note_on_c, 1, 54, 127
1, 135463, Note_on_c, 1, 72, 127
1, 135683, Note_off_c, 1, 45, 0
1, 135906, Note_off_c, 1, 54, 0
1, 135909, Note_off_c, 1, 72, 0
1, 135912, Note_on_c, 1, 71, 127
1, 135912, Note_on_c, 1, 43, 127
1, 136136, Note_on_c, 1, 53, 127
1, 136357, Note_off_c, 1, 71, 0
1, 136357, Note_off_c, 1, 53, 0
1, 136361, Note_on_c, 1, 52, 127
1, 136361, Note_on_c, 1, 70, 127
1, 136581, Note_off_c, 1, 43, 0
1, 136585, Note_on_c, 1, 48, 127
1, 136804, Note_off_c, 1, 52, 0
1, 136807, Note_off_c, 1, 70, 0
1, 136807, Note_off_c, 1, 48, 0
1, 136810, Note_on_c, 1, 69, 127
1, 136810, Note_on_c, 1, 41, 127
1, 137034, Note_on_c, 1, 51, 127
1, 137255, Note_off_c, 1, 69, 0
1, 137255, Note_off_c, 1, 51, 0
1, 137259, Note_on_c, 1, 50, 127
1, 137259, Note_on_c, 1, 81, 127
1, 137479, Note_off_c, 1, 41, 0
1, 137483, Note_on_c, 1, 46, 127
1, 137702, Note_off_c, 1, 50, 0
1, 137705, Note_off_c, 1, 81, 0
1, 137705, Note_off_c, 1, 46, 0
1, 137709, Note_on_c, 1, 80, 127
1, 137709, Note_on_c, 1, 40, 127
1, 137933, Note_on_c, 1, 50, 127
1, 138154, Note_off_c, 1, 80, 0
1, 138154, Note_off_c, 1, 50, 0
1, 138158, Note_on_c, 1, 79, 127
1, 138158, Note_on_c, 1, 49, 127
1, 138378, Note_off_c, 1, 40, 0
1, 138382, Note_on_c, 1, 45, 127
1, 138603, Note_off_c, 1, 79, 0
1, 138603, Note_off_c, 1, 49, 0
1, 138603, Note_off_c, 1, 45, 0
1, 138606, Note_on_c, 1, 50, 127
1, 138606, Note_on_c, 1, 78, 127
1, 138606, Note_on_c, 1, 38, 127
1, 138827, Note_off_c, 1, 50, 0
1, 138830, Note_on_c, 1, 69, 127
1, 139051, Note_off_c, 1, 78, 0
1, 139051, Note_off_c, 1, 38, 0
1, 139051, Note_off_c, 1, 69, 0
1, 139055, Note_on_c, 1, 70, 127
1, 139055, Note_on_c, 1, 77, 127
1, 139055, Note_on_c, 1, 50, 127
1, 139276, Note_off_c, 1, 70, 0
1, 139279, Note_on_c, 1, 69, 127
1, 139500, Note_off_c, 1, 77, 0
1, 139500, Note_off_c, 1, 69, 0
1, 139503, Note_on_c, 1, 67, 127
1, 139503, Note_on_c, 1, 76, 127
1, 139724, Note_off_c, 1, 67, 0
1, 139949, Note_off_c, 1, 50, 0
1, 139952, Note_on_c, 1, 49, 127
1, 140397, Note_off_c, 1, 49, 0
1, 140400, Note_on_c, 1, 65, 127
1, 140625, Note_on_c, 1, 57, 127
1, 140845, Note_off_c, 1, 76, 0
1, 140846, Note_off_c, 1, 57, 0
1, 140849, Note_on_c, 1, 58, 127
1, 140849, Note_on_c, 1, 74, 127
1, 141070, Note_off_c, 1, 58, 0
1, 141294, Note_off_c, 1, 65, 0
1, 141297, Note_on_c, 1, 55, 127
1, 141297, Note_on_c, 1, 64, 127
1, 141518, Note_off_c, 1, 55, 0
1, 141743, Note_off_c, 1, 74, 0
1, 141746, Note_on_c, 1, 73, 127
1, 142189, Note_off_c, 1, 73, 0
1, 142196, Note_on_c, 1, 53, 127
1, 142420, Note_on_c, 1, 81, 127
1, 142640, Note_off_c, 1, 64, 0
1, 142641, Note_off_c, 1, 81, 0
1, 142644, Note_on_c, 1, 82, 127
1, 142644, Note_on_c, 1, 62, 127
1, 142865, Note_off_c, 1, 82, 0
1, 143090, Note_off_c, 1, 53, 0
1, 143093, Note_on_c, 1, 79, 127
1, 143093, Note_on_c, 1, 52, 127
1, 143314, Note_off_c, 1, 79, 0
1, 143538, Note_off_c, 1, 62, 0
1, 143541, Note_on_c, 1, 61, 127
1, 143986, Note_off_c, 1, 61, 0
1, 143987, Note_off_c, 1, 52, 0
1, 143990, Note_on_c, 1, 77, 127
1, 143990, Note_on_c, 1, 62, 127
1, 143990, Note_on_c, 1, 50, 127
1, 144136, Note_off_c, 1, 77, 0
1, 144136, Note_off_c, 1, 62, 0
1, 144139, Note_on_c, 1, 76, 127
1, 144139, Note_on_c, 1, 64, 127
1, 144285, Note_off_c, 1, 76, 0
1, 144285, Note_off_c, 1, 64, 0
1, 144289, Note_on_c, 1, 74, 127
1, 144289, Note_on_c, 1, 65, 127
1, 144433, Note_off_c, 1, 50, 0
1, 144436, Note_off_c, 1, 74, 0
1, 144436, Note_off_c, 1, 65, 0
1, 144440, Note_on_c, 1, 73, 127
1, 144440, Note_on_c, 1, 67, 127
1, 144586, Note_off_c, 1, 73, 0
1, 144586, Note_off_c, 1, 67, 0
1, 144590, Note_on_c, 1, 74, 127
1, 144590, Note_on_c, 1, 65, 127
1, 144736, Note_off_c, 1, 74, 0
1, 144736, Note_off_c, 1, 65, 0
1, 144739, Note_on_c, 1, 76, 127
1, 144739, Note_on_c, 1, 64, 127
1, 144885, Note_off_c, 1, 76, 0
1, 144885, Note_off_c, 1, 64, 0
1, 144889, Note_on_c, 1, 69, 127
1, 144889, Note_on_c, 1, 65, 127
1, 145035, Note_off_c, 1, 69, 0
1, 145035, Note_off_c, 1, 65, 0
1, 145038, Note_on_c, 1, 71, 127
1, 145038, Note_on_c, 1, 67, 127
1, 145184, Note_off_c, 1, 71, 0
1, 145184, Note_off_c, 1, 67, 0
1, 145188, Note_on_c, 1, 73, 127
1, 145188, Note_on_c, 1, 69, 127
1, 145334, Note_off_c, 1, 73, 0
1, 145334, Note_off_c, 1, 69, 0
1, 145337, Note_on_c, 1, 74, 127
1, 145337, Note_on_c, 1, 70, 127
1, 145483, Note_off_c, 1, 74, 0
1, 145483, Note_off_c, 1, 70, 0
1, 145487, Note_on_c, 1, 73, 127
1, 145487, Note_on_c, 1, 69, 127
1, 145633, Note_off_c, 1, 73, 0
1, 145633, Note_off_c, 1, 69, 0
1, 145636, Note_on_c, 1, 71, 127
1, 145636, Note_on_c, 1, 67, 127
1, 145782, Note_off_c, 1, 71, 0
1, 145782, Note_off_c, 1, 67, 0
1, 145786, Note_on_c, 1, 73, 127
1, 145786, Note_on_c, 1, 69, 127
1, 145932, Note_off_c, 1, 73, 0
1, 145935, Note_on_c, 1, 74, 127
1, 146081, Note_off_c, 1, 74, 0
1, 146085, Note_on_c, 1, 76, 127
1, 146231, Note_off_c, 1, 69, 0
1, 146231, Note_off_c, 1, 76, 0
1, 146234, Note_on_c, 1, 77, 127
1, 146234, Note_on_c, 1, 74, 127
1, 146380, Note_off_c, 1, 77, 0
1, 146384, Note_on_c, 1, 76, 127
1, 146528, Note_off_c, 1, 74, 0
1, 146531, Note_off_c, 1, 76, 0
1, 146534, Note_on_c, 1, 74, 127
1, 146680, Note_off_c, 1, 74, 0
1, 146684, Note_on_c, 1, 76, 127
1, 146684, Note_on_c, 1, 73, 127
1, 146908, Note_on_c, 1, 47, 127
1, 147129, Note_off_c, 1, 76, 0
1, 147129, Note_off_c, 1, 73, 0
1, 147129, Note_off_c, 1, 47, 0
1, 147132, Note_on_c, 1, 48, 127
1, 147132, Note_on_c, 1, 81, 127
1, 147132, Note_on_c, 1, 72, 127
1, 147353, Note_off_c, 1, 48, 0
1, 147357, Note_on_c, 1, 50, 127
1, 147577, Note_off_c, 1, 81, 0
1, 147577, Note_off_c, 1, 72, 0
1, 147578, Note_off_c, 1, 50, 0
1, 147581, Note_on_c, 1, 52, 127
1, 147581, Note_on_c, 1, 80, 127
1, 147581, Note_on_c, 1, 71, 127
1, 147802, Note_off_c, 1, 52, 0
1, 147805, Note_on_c, 1, 54, 127
1, 148026, Note_off_c, 1, 80, 0
1, 148026, Note_off_c, 1, 71, 0
1, 148026, Note_off_c, 1, 54, 0
1, 148030, Note_on_c, 1, 55, 127
1, 148030, Note_on_c, 1, 79, 127
1, 148030, Note_on_c, 1, 70, 127
1, 148251, Note_off_c, 1, 55, 0
1, 148254, Note_on_c, 1, 52, 127
1, 148475, Note_off_c, 1, 79, 0
1, 148475, Note_off_c, 1, 70, 0
1, 148475, Note_off_c, 1, 52, 0
1, 148478, Note_on_c, 1, 57, 127
1, 148478, Note_on_c, 1, 78, 127
1, 148478, Note_on_c, 1, 69, 127
1, 148699, Note_off_c, 1, 57, 0
1, 148702, Note_on_c, 1, 56, 127
1, 148923, Note_off_c, 1, 78, 0
1, 148923, Note_off_c, 1, 56, 0
1, 148927, Note_on_c, 1, 77, 127
1, 149151, Note_on_c, 1, 59, 127
1, 149372, Note_off_c, 1, 77, 0
1, 149372, Note_off_c, 1, 59, 0
1, 149375, Note_on_c, 1, 60, 127
1, 149375, Note_on_c, 1, 76, 127
1, 149596, Note_off_c, 1, 60, 0
1, 149599, Note_on_c, 1, 54, 127
1, 149820, Note_off_c, 1, 69, 0
1, 149820, Note_off_c, 1, 76, 0
1, 149820, Note_off_c, 1, 54, 0
1, 149824, Note_on_c, 1, 59, 127
1, 149824, Note_on_c, 1, 74, 127
1, 150045, Note_off_c, 1, 59, 0
1, 150048, Note_on_c, 1, 65, 127
1, 150048, Note_on_c, 1, 57, 127
1, 150269, Note_off_c, 1, 65, 0
1, 150269, Note_off_c, 1, 57, 0
1, 150272, Note_on_c, 1, 56, 127
1, 150272, Note_on_c, 1, 64, 127
1, 150493, Note_off_c, 1, 56, 0
1, 150497, Note_on_c, 1, 52, 127
1, 150718, Note_off_c, 1, 74, 0
1, 150718, Note_off_c, 1, 52, 0
1, 150721, Note_on_c, 1, 72, 127
1, 150941, Note_off_c, 1, 64, 0
1, 151166, Note_off_c, 1, 72, 0
1, 151169, Note_on_c, 1, 71, 127
1, 151169, Note_on_c, 1, 62, 127
1, 151394, Note_on_c, 1, 50, 127
1, 151614, Note_off_c, 1, 71, 0
1, 151615, Note_off_c, 1, 50, 0
1, 151618, Note_on_c, 1, 55, 127
1, 151618, Note_on_c, 1, 70, 127
1, 151838, Note_off_c, 1, 62, 0
1, 151839, Note_off_c, 1, 55, 0
1, 151842, Note_on_c, 1, 53, 127
1, 152063, Note_off_c, 1, 53, 0
1, 152066, Note_on_c, 1, 60, 127
1, 152291, Note_on_c, 1, 48, 127
1, 152512, Note_off_c, 1, 70, 0
1, 152512, Note_off_c, 1, 48, 0
1, 152515, Note_on_c, 1, 69, 127
1, 152735, Note_off_c, 1, 60, 0
1, 152960, Note_off_c, 1, 69, 0
1, 152964, Note_on_c, 1, 68, 127
1, 153188, Note_on_c, 1, 47, 127
1, 153409, Note_off_c, 1, 68, 0
1, 153409, Note_off_c, 1, 47, 0
1, 153412, Note_on_c, 1, 67, 127
1, 153636, Note_on_c, 1, 58, 127
1, 153857, Note_off_c, 1, 58, 0
1, 153861, Note_on_c, 1, 49, 127
1, 154082, Note_off_c, 1, 49, 0
1, 154085, Note_on_c, 1, 45, 127
1, 154306, Note_off_c, 1, 67, 0
1, 154306, Note_off_c, 1, 45, 0
1, 155209, Note_on_c, 1, 64, 127
1, 155209, Note_on_c, 1, 49, 127
1, 155359, Note_on_c, 1, 65, 127
1, 155505, Note_off_c, 1, 64, 0
1, 155505, Note_off_c, 1, 65, 0
1, 155508, Note_on_c, 1, 67, 127
1, 155654, Note_off_c, 1, 49, 0
1, 155654, Note_off_c, 1, 67, 0
1, 155658, Note_on_c, 1, 65, 127
1, 155658, Note_on_c, 1, 50, 127
1, 155804, Note_off_c, 1, 65, 0
1, 155804, Note_off_c, 1, 50, 0
1, 155807, Note_on_c, 1, 64, 127
1, 155807, Note_on_c, 1, 48, 127
1, 155953, Note_off_c, 1, 64, 0
1, 155953, Note_off_c, 1, 48, 0
1, 155957, Note_on_c, 1, 62, 127
1, 155957, Note_on_c, 1, 46, 127
1, 156103, Note_off_c, 1, 62, 0
1, 156103, Note_off_c, 1, 46, 0
1, 156106, Note_on_c, 1, 61, 127
1, 156106, Note_on_c, 1, 45, 127
1, 156252, Note_off_c, 1, 61, 0
1, 156252, Note_off_c, 1, 45, 0
1, 156256, Note_on_c, 1, 62, 127
1, 156256, Note_on_c, 1, 46, 127
1, 156402, Note_off_c, 1, 62, 0
1, 156402, Note_off_c, 1, 46, 0
1, 156405, Note_on_c, 1, 64, 127
1, 156405, Note_on_c, 1, 48, 127
1, 156551, Note_off_c, 1, 64, 0
1, 156551, Note_off_c, 1, 48, 0
1, 156555, Note_on_c, 1, 46, 127
1, 156555, Note_on_c, 1, 62, 127
1, 156701, Note_off_c, 1, 46, 0
1, 156704, Note_on_c, 1, 45, 127
1, 156850, Note_off_c, 1, 45, 0
1, 156854, Note_on_c, 1, 43, 127
1, 157000, Note_off_c, 1, 43, 0
1, 157003, Note_on_c, 1, 42, 127
1, 157003, Note_on_c, 1, 57, 127
1, 157149, Note_off_c, 1, 42, 0
1, 157448, Note_off_c, 1, 57, 0
1, 157452, Note_on_c, 1, 58, 127
1, 157598, Note_off_c, 1, 62, 0
1, 157751, Note_on_c, 1, 64, 127
1, 157897, Note_off_c, 1, 58, 0
1, 157897, Note_off_c, 1, 64, 0
1, 157900, Note_on_c, 1, 65, 127
1, 157900, Note_on_c, 1, 59, 127
1, 157900, Note_on_c, 1, 38, 127
1, 158046, Note_off_c, 1, 65, 0
1, 158050, Note_on_c, 1, 64, 127
1, 158196, Note_off_c, 1, 64, 0
1, 158199, Note_on_c, 1, 62, 127
1, 158345, Note_off_c, 1, 59, 0
1, 158345, Note_off_c, 1, 38, 0
1, 158349, Note_on_c, 1, 60, 127
1, 158349, Note_on_c, 1, 39, 127
1, 158350, Note_off_c, 1, 62, 0
1, 158498, Note_on_c, 1, 70, 127
1, 158644, Note_off_c, 1, 70, 0
1, 158648, Note_on_c, 1, 69, 127
1, 158794, Note_off_c, 1, 60, 0
1, 158794, Note_off_c, 1, 39, 0
1, 158794, Note_off_c, 1, 69, 0
1, 158797, Note_on_c, 1, 67, 127
1, 158797, Note_on_c, 1, 61, 127
1, 158797, Note_on_c, 1, 40, 127
1, 158943, Note_off_c, 1, 67, 0
1, 158947, Note_on_c, 1, 69, 127
1, 159093, Note_off_c, 1, 69, 0
1, 159097, Note_on_c, 1, 70, 127
1, 159242, Note_off_c, 1, 61, 0
1, 159242, Note_off_c, 1, 40, 0
1, 159246, Note_on_c, 1, 41, 127
1, 159246, Note_on_c, 1, 62, 127
1, 159248, Note_off_c, 1, 70, 0
1, 159691, Note_off_c, 1, 41, 0
1, 159695, Note_on_c, 1, 72, 127
1, 159695, Note_on_c, 1, 42, 127
1, 159841, Note_off_c, 1, 72, 0
1, 160140, Note_off_c, 1, 42, 0
1, 160143, Note_on_c, 1, 43, 127
1, 160289, Note_off_c, 1, 43, 0
1, 160293, Note_on_c, 1, 45, 127
1, 160439, Note_off_c, 1, 45, 0
1, 160442, Note_on_c, 1, 46, 127
1, 160588, Note_off_c, 1, 46, 0
1, 160592, Note_on_c, 1, 48, 127
1, 160592, Note_on_c, 1, 66, 127
1, 160738, Note_off_c, 1, 48, 0
1, 161037, Note_off_c, 1, 66, 0
1, 161339, Note_on_c, 1, 50, 127
1, 161485, Note_off_c, 1, 50, 0
1, 161488, Note_off_c, 1, 62, 0
1, 161489, Note_on_c, 1, 72, 127
1, 161489, Note_on_c, 1, 51, 127
1, 161635, Note_off_c, 1, 72, 0
1, 161635, Note_off_c, 1, 51, 0
1, 161638, Note_on_c, 1, 70, 127
1, 161638, Note_on_c, 1, 50, 127
1, 161784, Note_off_c, 1, 70, 0
1, 161784, Note_off_c, 1, 50, 0
1, 161788, Note_on_c, 1, 69, 127
1, 161788, Note_on_c, 1, 48, 127
1, 161934, Note_off_c, 1, 69, 0
1, 161934, Note_off_c, 1, 48, 0
1, 161937, Note_on_c, 1, 70, 127
1, 161937, Note_on_c, 1, 50, 127
1, 162083, Note_off_c, 1, 70, 0
1, 162087, Note_on_c, 1, 72, 127
1, 162233, Note_off_c, 1, 72, 0
1, 162236, Note_on_c, 1, 74, 127
1, 162382, Note_off_c, 1, 50, 0
1, 162382, Note_off_c, 1, 74, 0
1, 162386, Note_on_c, 1, 75, 127
1, 162386, Note_on_c, 1, 55, 127
1, 162532, Note_off_c, 1, 75, 0
1, 162535, Note_on_c, 1, 74, 127
1, 162681, Note_off_c, 1, 74, 0
1, 162685, Note_on_c, 1, 72, 127
1, 162831, Note_off_c, 1, 72, 0
1, 163133, Note_on_c, 1, 70, 127
1, 163279, Note_off_c, 1, 70, 0
1, 163280, Note_off_c, 1, 55, 0
1, 163283, Note_on_c, 1, 69, 127
1, 163283, Note_on_c, 1, 54, 127
1, 163429, Note_off_c, 1, 69, 0
1, 163728, Note_off_c, 1, 54, 0
1, 163881, Note_on_c, 1, 53, 127
1, 164027, Note_off_c, 1, 53, 0
1, 164030, Note_on_c, 1, 52, 127
1, 164176, Note_off_c, 1, 52, 0
1, 164180, Note_on_c, 1, 50, 127
1, 164180, Note_on_c, 1, 74, 127
1, 164326, Note_off_c, 1, 50, 0
1, 164330, Note_on_c, 1, 52, 127
1, 164476, Note_off_c, 1, 52, 0
1, 164479, Note_on_c, 1, 53, 127
1, 164625, Note_off_c, 1, 74, 0
1, 164625, Note_off_c, 1, 53, 0
1, 164629, Note_on_c, 1, 79, 127
1, 164629, Note_on_c, 1, 67, 127
1, 164629, Note_on_c, 1, 52, 127
1, 164775, Note_off_c, 1, 79, 0
1, 164778, Note_on_c, 1, 77, 127
1, 164924, Note_off_c, 1, 77, 0
1, 164928, Note_on_c, 1, 76, 127
1, 165074, Note_off_c, 1, 67, 0
1, 165074, Note_off_c, 1, 52, 0
1, 165074, Note_off_c, 1, 76, 0
1, 165077, Note_on_c, 1, 74, 127
1, 165077, Note_on_c, 1, 71, 127
1, 165077, Note_on_c, 1, 55, 127
1, 165223, Note_off_c, 1, 74, 0
1, 165227, Note_on_c, 1, 76, 127
1, 165373, Note_off_c, 1, 76, 0
1, 165376, Note_on_c, 1, 77, 127
1, 165522, Note_off_c, 1, 71, 0
1, 165522, Note_off_c, 1, 55, 0
1, 165522, Note_off_c, 1, 77, 0
1, 165526, Note_on_c, 1, 60, 127
1, 165526, Note_on_c, 1, 76, 127
1, 165526, Note_on_c, 1, 72, 127
1, 165672, Note_off_c, 1, 60, 0
1, 165675, Note_on_c, 1, 58, 127
1, 165821, Note_off_c, 1, 58, 0
1, 165825, Note_on_c, 1, 57, 127
1, 165971, Note_off_c, 1, 76, 0
1, 165971, Note_off_c, 1, 57, 0
1, 165974, Note_on_c, 1, 55, 127
1, 165974, Note_on_c, 1, 79, 127
1, 166120, Note_off_c, 1, 55, 0
1, 166413, Note_off_c, 1, 72, 0
1, 166419, Note_off_c, 1, 79, 0
1, 166423, Note_on_c, 1, 57, 127
1, 166423, Note_on_c, 1, 72, 127
1, 166572, Note_on_c, 1, 70, 127
1, 166718, Note_off_c, 1, 70, 0
1, 166722, Note_on_c, 1, 69, 127
1, 166868, Note_off_c, 1, 57, 0
1, 166868, Note_off_c, 1, 69, 0
1, 166871, Note_on_c, 1, 67, 127
1, 166871, Note_on_c, 1, 60, 127
1, 167017, Note_off_c, 1, 67, 0
1, 167076, Note_off_c, 1, 72, 0
1, 167316, Note_off_c, 1, 60, 0
1, 167320, Note_on_c, 1, 53, 127
1, 167320, Note_on_c, 1, 69, 127
1, 167466, Note_off_c, 1, 53, 0
1, 167469, Note_on_c, 1, 51, 127
1, 167615, Note_off_c, 1, 51, 0
1, 167619, Note_on_c, 1, 50, 127
1, 167765, Note_off_c, 1, 69, 0
1, 167765, Note_off_c, 1, 50, 0
1, 167768, Note_on_c, 1, 48, 127
1, 167768, Note_on_c, 1, 72, 127
1, 167914, Note_off_c, 1, 48, 0
1, 167918, Note_on_c, 1, 50, 127
1, 168064, Note_off_c, 1, 50, 0
1, 168067, Note_on_c, 1, 51, 127
1, 168213, Note_off_c, 1, 72, 0
1, 168213, Note_off_c, 1, 51, 0
1, 168217, Note_on_c, 1, 77, 127
1, 168217, Note_on_c, 1, 65, 127
1, 168217, Note_on_c, 1, 50, 127
1, 168363, Note_off_c, 1, 77, 0
1, 168366, Note_on_c, 1, 75, 127
1, 168512, Note_off_c, 1, 75, 0
1, 168516, Note_on_c, 1, 74, 127
1, 168662, Note_off_c, 1, 65, 0
1, 168662, Note_off_c, 1, 50, 0
1, 168662, Note_off_c, 1, 74, 0
1, 168665, Note_on_c, 1, 72, 127
1, 168665, Note_on_c, 1, 69, 127
1, 168665, Note_on_c, 1, 53, 127
1, 168811, Note_off_c, 1, 72, 0
1, 168815, Note_on_c, 1, 74, 127
1, 168961, Note_off_c, 1, 74, 0
1, 168964, Note_on_c, 1, 75, 127
1, 169110, Note_off_c, 1, 69, 0
1, 169110, Note_off_c, 1, 53, 0
1, 169110, Note_off_c, 1, 75, 0
1, 169114, Note_on_c, 1, 58, 127
1, 169114, Note_on_c, 1, 70, 127
1, 169114, Note_on_c, 1, 74, 127
1, 169260, Note_off_c, 1, 58, 0
1, 169264, Note_on_c, 1, 57, 127
1, 169410, Note_off_c, 1, 57, 0
1, 169413, Note_on_c, 1, 55, 127
1, 169559, Note_off_c, 1, 70, 0
1, 169559, Note_off_c, 1, 55, 0
1, 169563, Note_on_c, 1, 54, 127
1, 169563, Note_on_c, 1, 69, 127
1, 169709, Note_off_c, 1, 54, 0
1, 170008, Note_off_c, 1, 74, 0
1, 170011, Note_on_c, 1, 73, 127
1, 170157, Note_off_c, 1, 73, 0
1, 170161, Note_on_c, 1, 53, 127
1, 170307, Note_off_c, 1, 53, 0
1, 170310, Note_on_c, 1, 76, 127
1, 170310, Note_on_c, 1, 52, 127
1, 170456, Note_off_c, 1, 76, 0
1, 170456, Note_off_c, 1, 52, 0
1, 170460, Note_on_c, 1, 77, 127
1, 170460, Note_on_c, 1, 50, 127
1, 170606, Note_off_c, 1, 77, 0
1, 170606, Note_off_c, 1, 50, 0
1, 171207, Note_on_c, 1, 79, 127
1, 171207, Note_on_c, 1, 49, 127
1, 171353, Note_off_c, 1, 79, 0
1, 171353, Note_off_c, 1, 49, 0
1, 171357, Note_on_c, 1, 81, 127
1, 171357, Note_on_c, 1, 47, 127
1, 171503, Note_off_c, 1, 81, 0
1, 171503, Note_off_c, 1, 47, 0
1, 172027, Note_off_c, 1, 69, 0
1, 172030, Note_on_c, 1, 45, 127
1, 172251, Note_off_c, 1, 45, 0
1, 172254, Note_on_c, 1, 70, 127
1, 172254, Note_on_c, 1, 77, 127
1, 172254, Note_on_c, 1, 50, 127
1, 172475, Note_off_c, 1, 70, 0
1, 172478, Note_on_c, 1, 69, 127
1, 172699, Note_off_c, 1, 77, 0
1, 172699, Note_off_c, 1, 69, 0
1, 172702, Note_on_c, 1, 67, 127
1, 172702, Note_on_c, 1, 76, 127
1, 172923, Note_off_c, 1, 67, 0
1, 173148, Note_off_c, 1, 50, 0
1, 173151, Note_on_c, 1, 49, 127
1, 173596, Note_off_c, 1, 49, 0
1, 173599, Note_on_c, 1, 65, 127
1, 173820, Note_off_c, 1, 76, 0
1, 173824, Note_on_c, 1, 74, 127
1, 174044, Note_off_c, 1, 65, 0
1, 174045, Note_off_c, 1, 74, 0
1, 174048, Note_on_c, 1, 75, 127
1, 174048, Note_on_c, 1, 58, 127
1, 174048, Note_on_c, 1, 55, 127
1, 174269, Note_off_c, 1, 75, 0
1, 174272, Note_on_c, 1, 74, 127
1, 174493, Note_off_c, 1, 58, 0
1, 174493, Note_off_c, 1, 74, 0
1, 174497, Note_on_c, 1, 73, 127
1, 174497, Note_on_c, 1, 57, 127
1, 174718, Note_off_c, 1, 73, 0
1, 174721, Note_on_c, 1, 76, 127
1, 174942, Note_off_c, 1, 55, 0
1, 174942, Note_off_c, 1, 76, 0
1, 174945, Note_on_c, 1, 54, 127
1, 175169, Note_on_c, 1, 72, 127
1, 175390, Note_off_c, 1, 54, 0
1, 175390, Note_off_c, 1, 72, 0
1, 175391, Note_off_c, 1, 57, 0
1, 175394, Note_on_c, 1, 71, 127
1, 175394, Note_on_c, 1, 55, 127
1, 175618, Note_on_c, 1, 53, 127
1, 175839, Note_off_c, 1, 71, 0
1, 175839, Note_off_c, 1, 55, 0
1, 175839, Note_off_c, 1, 53, 0
1, 175842, Note_on_c, 1, 52, 127
1, 175842, Note_on_c, 1, 70, 127
1, 175842, Note_on_c, 1, 67, 127
1, 176063, Note_off_c, 1, 52, 0
1, 176066, Note_on_c, 1, 50, 127
1, 176287, Note_off_c, 1, 70, 0
1, 176287, Note_off_c, 1, 50, 0
1, 176291, Note_on_c, 1, 49, 127
1, 176291, Note_on_c, 1, 69, 127
1, 176512, Note_off_c, 1, 49, 0
1, 176736, Note_off_c, 1, 67, 0
1, 176739, Note_on_c, 1, 65, 127
1, 176960, Note_off_c, 1, 65, 0
1, 176964, Note_on_c, 1, 64, 127
1, 176964, Note_on_c, 1, 48, 127
1, 177185, Note_off_c, 1, 64, 0
1, 177185, Note_off_c, 1, 48, 0
1, 177188, Note_on_c, 1, 62, 127
1, 177188, Note_on_c, 1, 47, 127
1, 177409, Note_off_c, 1, 62, 0
1, 177633, Note_off_c, 1, 69, 0
1, 177633, Note_off_c, 1, 47, 0
1, 177636, Note_on_c, 1, 64, 127
1, 177636, Note_on_c, 1, 46, 127
1, 177636, Note_on_c, 1, 67, 127
1, 177857, Note_off_c, 1, 64, 0
1, 177861, Note_on_c, 1, 62, 127
1, 178081, Note_off_c, 1, 46, 0
1, 178082, Note_off_c, 1, 62, 0
1, 178085, Note_on_c, 1, 45, 127
1, 178085, Note_on_c, 1, 61, 127
1, 178306, Note_off_c, 1, 45, 0
1, 178309, Note_on_c, 1, 57, 127
1, 178530, Note_off_c, 1, 67, 0
1, 178530, Note_off_c, 1, 61, 0
1, 178530, Note_off_c, 1, 57, 0
1, 178533, Note_on_c, 1, 58, 127
1, 178533, Note_on_c, 1, 65, 127
1, 178533, Note_on_c, 1, 62, 127
1, 178754, Note_off_c, 1, 58, 0
1, 178758, Note_on_c, 1, 57, 127
1, 178978, Note_off_c, 1, 65, 0
1, 178979, Note_off_c, 1, 57, 0
1, 178982, Note_on_c, 1, 55, 127
1, 178982, Note_on_c, 1, 64, 127
1, 179203, Note_off_c, 1, 55, 0
1, 179427, Note_off_c, 1, 62, 0
1, 179430, Note_on_c, 1, 61, 127
1, 179875, Note_off_c, 1, 61, 0
1, 179876, Note_off_c, 1, 64, 0
1, 179879, Note_on_c, 1, 62, 127
1, 179879, Note_on_c, 1, 53, 127
1, 180100, Note_off_c, 1, 62, 0
1, 180100, Note_off_c, 1, 53, 0
1, 180103, Note_on_c, 1, 60, 127
1, 180103, Note_on_c, 1, 57, 127
1, 180324, Note_off_c, 1, 60, 0
1, 180324, Note_off_c, 1, 57, 0
1, 180328, Note_on_c, 1, 58, 127
1, 180328, Note_on_c, 1, 55, 127
1, 180549, Note_off_c, 1, 58, 0
1, 180549, Note_off_c, 1, 55, 0
1, 180552, Note_on_c, 1, 57, 127
1, 180552, Note_on_c, 1, 53, 127
1, 180773, Note_off_c, 1, 57, 0
1, 180773, Note_off_c, 1, 53, 0
1, 180776, Note_on_c, 1, 55, 127
1, 180776, Note_on_c, 1, 52, 127
1, 180997, Note_off_c, 1, 55, 0
1, 180997, Note_off_c, 1, 52, 0
1, 181000, Note_on_c, 1, 58, 127
1, 181000, Note_on_c, 1, 50, 127
1, 181221, Note_off_c, 1, 58, 0
1, 181221, Note_off_c, 1, 50, 0
1, 181225, Note_on_c, 1, 57, 127
1, 181225, Note_on_c, 1, 49, 127
1, 181446, Note_off_c, 1, 57, 0
1, 181446, Note_off_c, 1, 49, 0
1, 181449, Note_on_c, 1, 55, 127
1, 181449, Note_on_c, 1, 52, 127
1, 181670, Note_off_c, 1, 55, 0
1, 181670, Note_off_c, 1, 52, 0
1, 181673, Note_on_c, 1, 53, 127
1, 181673, Note_on_c, 1, 50, 127
1, 181894, Note_off_c, 1, 53, 0
1, 181894, Note_off_c, 1, 50, 0
1, 181897, Note_on_c, 1, 57, 127
1, 181897, Note_on_c, 1, 48, 127
1, 182118, Note_off_c, 1, 57, 0
1, 182118, Note_off_c, 1, 48, 0
1, 182122, Note_on_c, 1, 55, 127
1, 182122, Note_on_c, 1, 46, 127
1, 182343, Note_off_c, 1, 55, 0
1, 182343, Note_off_c, 1, 46, 0
1, 182346, Note_on_c, 1, 53, 127
1, 182346, Note_on_c, 1, 45, 127
1, 182567, Note_off_c, 1, 53, 0
1, 182567, Note_off_c, 1, 45, 0
1, 182570, Note_on_c, 1, 52, 127
1, 182570, Note_on_c, 1, 43, 127
1, 182791, Note_off_c, 1, 52, 0
1, 182791, Note_off_c, 1, 43, 0
1, 182795, Note_on_c, 1, 50, 127
1, 182795, Note_on_c, 1, 46, 127
1, 183016, Note_off_c, 1, 50, 0
1, 183016, Note_off_c, 1, 46, 0
1, 183019, Note_on_c, 1, 49, 127
1, 183019, Note_on_c, 1, 45, 127
1, 183240, Note_off_c, 1, 49, 0
1, 183240, Note_off_c, 1, 45, 0
1, 183243, Note_on_c, 1, 52, 127
1, 183243, Note_on_c, 1, 43, 127
1, 183464, Note_off_c, 1, 52, 0
1, 183464, Note_off_c, 1, 43, 0
1, 183467, Note_on_c, 1, 50, 127
1, 183467, Note_on_c, 1, 41, 127
1, 183617, Note_off_c, 1, 50, 0
1, 183621, Note_on_c, 1, 52, 127
1, 183771, Note_off_c, 1, 52, 0
1, 183774, Note_on_c, 1, 53, 127
1, 183924, Note_off_c, 1, 41, 0
1, 183924, Note_off_c, 1, 53, 0
1, 183928, Note_on_c, 1, 55, 127
1, 183928, Note_on_c, 1, 46, 127
1, 184078, Note_off_c, 1, 55, 0
1, 184082, Note_on_c, 1, 53, 127
1, 184232, Note_off_c, 1, 53, 0
1, 184235, Note_on_c, 1, 52, 127
1, 184385, Note_off_c, 1, 46, 0
1, 184385, Note_off_c, 1, 52, 0
1, 184389, Note_on_c, 1, 53, 127
1, 184389, Note_on_c, 1, 45, 127
1, 184539, Note_off_c, 1, 53, 0
1, 184539, Note_off_c, 1, 45, 0
1, 184542, Note_on_c, 1, 55, 127
1, 184542, Note_on_c, 1, 43, 127
1, 184692, Note_off_c, 1, 55, 0
1, 184692, Note_off_c, 1, 43, 0
1, 184696, Note_on_c, 1, 57, 127
1, 184696, Note_on_c, 1, 41, 127
1, 184846, Note_off_c, 1, 57, 0
1, 184846, Note_off_c, 1, 41, 0
1, 184850, Note_on_c, 1, 58, 127
1, 184850, Note_on_c, 1, 40, 127
1, 185000, Note_off_c, 1, 58, 0
1, 185000, Note_off_c, 1, 40, 0
1, 185003, Note_on_c, 1, 57, 127
1, 185003, Note_on_c, 1, 41, 127
1, 185153, Note_off_c, 1, 57, 0
1, 185153, Note_off_c, 1, 41, 0
1, 185157, Note_on_c, 1, 55, 127
1, 185157, Note_on_c, 1, 43, 127
1, 185307, Note_off_c, 1, 55, 0
1, 185307, Note_off_c, 1, 43, 0
1, 185310, Note_on_c, 1, 62, 127
1, 185310, Note_on_c, 1, 41, 127
1, 185310, Note_on_c, 1, 57, 127
1, 185460, Note_off_c, 1, 62, 0
1, 185460, Note_off_c, 1, 41, 0
1, 185464, Note_on_c, 1, 64, 127
1, 185464, Note_on_c, 1, 40, 127
1, 185614, Note_off_c, 1, 64, 0
1, 185614, Note_off_c, 1, 40, 0
1, 185618, Note_on_c, 1, 65, 127
1, 185618, Note_on_c, 1, 38, 127
1, 185768, Note_off_c, 1, 65, 0
1, 185768, Note_off_c, 1, 38, 0
1, 185771, Note_on_c, 1, 67, 127
1, 185771, Note_on_c, 1, 37, 127
1, 185921, Note_off_c, 1, 67, 0
1, 185921, Note_off_c, 1, 37, 0
1, 186381, Note_off_c, 1, 57, 0
1, 186386, Note_on_c, 1, 55, 127
1, 186536, Note_off_c, 1, 55, 0
1, 186539, Note_on_c, 1, 69, 127
1, 186539, Note_on_c, 1, 53, 127
1, 186689, Note_off_c, 1, 69, 0
1, 186689, Note_off_c, 1, 53, 0
1, 186693, Note_on_c, 1, 70, 127
1, 186693, Note_on_c, 1, 52, 127
1, 186843, Note_off_c, 1, 70, 0
1, 186843, Note_off_c, 1, 52, 0
1, 186846, Note_on_c, 1, 69, 127
1, 186846, Note_on_c, 1, 53, 127
1, 186996, Note_off_c, 1, 69, 0
1, 186996, Note_off_c, 1, 53, 0
1, 186999, Note_on_c, 1, 67, 127
1, 186999, Note_on_c, 1, 55, 127
1, 187149, Note_off_c, 1, 67, 0
1, 187149, Note_off_c, 1, 55, 0
1, 187154, Note_on_c, 1, 53, 127
1, 187154, Note_on_c, 1, 69, 127
1, 187385, Note_off_c, 1, 53, 0
1, 187387, Note_on_c, 1, 40, 127
1, 187618, Note_off_c, 1, 69, 0
1, 187618, Note_off_c, 1, 40, 0
1, 187621, Note_on_c, 1, 41, 127
1, 187621, Note_on_c, 1, 74, 127
1, 187621, Note_on_c, 1, 65, 127
1, 187852, Note_off_c, 1, 41, 0
1, 187855, Note_on_c, 1, 43, 127
1, 188085, Note_off_c, 1, 74, 0
1, 188085, Note_off_c, 1, 65, 0
1, 188086, Note_off_c, 1, 43, 0
1, 188089, Note_on_c, 1, 45, 127
1, 188089, Note_on_c, 1, 73, 127
1, 188089, Note_on_c, 1, 64, 127
1, 188320, Note_off_c, 1, 45, 0
1, 188323, Note_on_c, 1, 47, 127
1, 188553, Note_off_c, 1, 73, 0
1, 188553, Note_off_c, 1, 64, 0
1, 188554, Note_off_c, 1, 47, 0
1, 188556, Note_on_c, 1, 48, 127
1, 188556, Note_on_c, 1, 72, 127
1, 188556, Note_on_c, 1, 69, 127
1, 188787, Note_off_c, 1, 48, 0
1, 188790, Note_on_c, 1, 45, 127
1, 189020, Note_off_c, 1, 72, 0
1, 189021, Note_off_c, 1, 45, 0
1, 189024, Note_on_c, 1, 50, 127
1, 189024, Note_on_c, 1, 71, 127
1, 189259, Note_off_c, 1, 50, 0
1, 189263, Note_on_c, 1, 49, 127
1, 189498, Note_off_c, 1, 49, 0
1, 189499, Note_off_c, 1, 71, 0
1, 189502, Note_on_c, 1, 70, 127
1, 189738, Note_off_c, 1, 69, 0
1, 189741, Note_on_c, 1, 52, 127
1, 189741, Note_on_c, 1, 67, 127
1, 189976, Note_off_c, 1, 52, 0
1, 189977, Note_off_c, 1, 70, 0
1, 189981, Note_on_c, 1, 53, 127
1, 190216, Note_off_c, 1, 67, 0
1, 190216, Note_off_c, 1, 53, 0
1, 190220, Note_on_c, 1, 47, 127
1, 190220, Note_on_c, 1, 65, 127
1, 190455, Note_off_c, 1, 47, 0
1, 190695, Note_off_c, 1, 65, 0
1, 190937, Note_on_c, 1, 64, 127
1, 191434, Note_off_c, 1, 64, 0
1, 191437, Note_on_c, 1, 65, 127
1, 191437, Note_on_c, 1, 50, 127
1, 191437, Note_on_c, 1, 62, 127
1, 191683, Note_off_c, 1, 65, 0
1, 191683, Note_off_c, 1, 50, 0
1, 191688, Note_on_c, 1, 64, 127
1, 191688, Note_on_c, 1, 55, 127
1, 191934, Note_off_c, 1, 64, 0
1, 191934, Note_off_c, 1, 55, 0
1, 191938, Note_on_c, 1, 57, 127
1, 192467, Note_off_c, 1, 62, 0
1, 192468, Note_off_c, 1, 57, 0
1, 192470, Note_on_c, 1, 65, 127
1, 192470, Note_on_c, 1, 61, 127
1, 192470, Note_on_c, 1, 45, 127
1, 192555, Note_off_c, 1, 65, 0
1, 192559, Note_on_c, 1, 64, 127
1, 192733, Note_off_c, 1, 64, 0
1, 192737, Note_on_c, 1, 62, 127
1, 193001, Note_off_c, 1, 61, 0
1, 193001, Note_off_c, 1, 45, 0
1, 193002, Note_off_c, 1, 62, 0
1, 193005, Note_on_c, 1, 62, 127
1, 193005, Note_on_c, 1, 38, 127
1, 196288, Note_off_c, 1, 62, 0
1, 196288, Note_off_c, 1, 38, 0
1, 196288, End_track
0, 0, End_of_file