0, 0, Header, 1, 1, 480
1, 0, Start_track
1, 0, Title_t, "Test"
1, 0, Tempo, 500000
1, 0, Instrument_name_t, "Church Organ"
1, 64, Note_on_c, 1, 58, 127
1, 64, Note_on_c, 1, 61, 127
1, 746, Note_off_c, 1, 58, 0
1, 750, Note_on_c, 1, 70, 127
1, 750, Note_on_c, 1, 65, 127
1, 1178, Note_off_c, 1, 70, 0
1, 1186, Note_on_c, 1, 72, 127
1, 1435, Note_off_c, 1, 72, 0
1, 1436, Note_on_c, 1, 73, 127
1, 2108, Note_off_c, 1, 65, 0
1, 2118, Note_off_c, 1, 73, 0
1, 2119, Note_off_c, 1, 61, 0
1, 2123, Note_on_c, 1, 73, 127
1, 2123, Note_on_c, 1, 70, 127
1, 2123, Note_on_c, 1, 65, 127
1, 2123, Note_on_c, 1, 58, 127
1, 2123, Note_on_c, 1, 61, 127
1, 2805, Note_off_c, 1, 73, 0
1, 2805, Note_off_c, 1, 70, 0
1, 2805, Note_off_c, 1, 65, 0
1, 2805, Note_off_c, 1, 58, 0
1, 2805, Note_off_c, 1, 61, 0
1, 2809, Note_on_c, 1, 70, 127
1, 2809, Note_on_c, 1, 73, 127
1, 2809, Note_on_c, 1, 58, 127
1, 2809, Note_on_c, 1, 66, 127
1, 2809, Note_on_c, 1, 63, 127
1, 3491, Note_off_c, 1, 70, 0
1, 3491, Note_off_c, 1, 73, 0
1, 3491, Note_off_c, 1, 58, 0
1, 3496, Note_on_c, 1, 72, 127
1, 3496, Note_on_c, 1, 69, 127
1, 3910, Note_off_c, 1, 72, 0
1, 3910, Note_off_c, 1, 69, 0
1, 4182, Note_on_c, 1, 75, 127
1, 4864, Note_off_c, 1, 66, 0
1, 4864, Note_off_c, 1, 63, 0
1, 4864, Note_off_c, 1, 75, 0
1, 4870, Note_on_c, 1, 75, 127
1, 4870, Note_on_c, 1, 69, 127
1, 4870, Note_on_c, 1, 72, 127
1, 4870, Note_on_c, 1, 60, 127
1, 4870, Note_on_c, 1, 63, 127
1, 4870, Note_on_c, 1, 66, 127
1, 4870, Note_on_c, 1, 58, 127
1, 5552, Note_off_c, 1, 75, 0
1, 5552, Note_off_c, 1, 69, 0
1, 5552, Note_off_c, 1, 72, 0
1, 5552, Note_off_c, 1, 60, 0
1, 5552, Note_off_c, 1, 63, 0
1, 5552, Note_off_c, 1, 66, 0
1, 5552, Note_off_c, 1, 58, 0
1, 5556, Note_on_c, 1, 72, 127
1, 5556, Note_on_c, 1, 75, 127
1, 5556, Note_on_c, 1, 58, 127
1, 5556, Note_on_c, 1, 61, 127
1, 5556, Note_on_c, 1, 65, 127
1, 6238, Note_off_c, 1, 72, 0
1, 6238, Note_off_c, 1, 75, 0
1, 6238, Note_off_c, 1, 58, 0
1, 6242, Note_on_c, 1, 73, 127
1, 6242, Note_on_c, 1, 70, 127
1, 6656, Note_off_c, 1, 73, 0
1, 6656, Note_off_c, 1, 70, 0
1, 6929, Note_on_c, 1, 77, 127
1, 7611, Note_off_c, 1, 61, 0
1, 7611, Note_off_c, 1, 65, 0
1, 7611, Note_off_c, 1, 77, 0
1, 7615, Note_on_c, 1, 77, 127
1, 7615, Note_on_c, 1, 70, 127
1, 7615, Note_on_c, 1, 73, 127
1, 7615, Note_on_c, 1, 65, 127
1, 7615, Note_on_c, 1, 61, 127
1, 7615, Note_on_c, 1, 58, 127
1, 8297, Note_off_c, 1, 77, 0
1, 8297, Note_off_c, 1, 70, 0
1, 8297, Note_off_c, 1, 73, 0
1, 8297, Note_off_c, 1, 65, 0
1, 8297, Note_off_c, 1, 61, 0
1, 8297, Note_off_c, 1, 58, 0
1, 8302, Note_on_c, 1, 77, 127
1, 8302, Note_on_c, 1, 73, 127
1, 8302, Note_on_c, 1, 58, 127
1, 8302, Note_on_c, 1, 69, 127
1, 8302, Note_on_c, 1, 60, 127
1, 8984, Note_off_c, 1, 77, 0
1, 8984, Note_off_c, 1, 73, 0
1, 8984, Note_off_c, 1, 58, 0
1, 8989, Note_on_c, 1, 75, 127
1, 8989, Note_on_c, 1, 72, 127
1, 9403, Note_off_c, 1, 75, 0
1, 9403, Note_off_c, 1, 72, 0
1, 9676, Note_on_c, 1, 78, 127
1, 10357, Note_off_c, 1, 69, 0
1, 10357, Note_off_c, 1, 60, 0
1, 10358, Note_off_c, 1, 78, 0
1, 10362, Note_on_c, 1, 75, 127
1, 10362, Note_on_c, 1, 78, 127
1, 10362, Note_on_c, 1, 69, 127
1, 10362, Note_on_c, 1, 58, 127
1, 10362, Note_on_c, 1, 60, 127
1, 11044, Note_off_c, 1, 75, 0
1, 11044, Note_off_c, 1, 78, 0
1, 11044, Note_off_c, 1, 69, 0
1, 11044, Note_off_c, 1, 58, 0
1, 11044, Note_off_c, 1, 60, 0
1, 11048, Note_on_c, 1, 78, 127
1, 11048, Note_on_c, 1, 75, 127
1, 11048, Note_on_c, 1, 58, 127
1, 11048, Note_on_c, 1, 70, 127
1, 11730, Note_off_c, 1, 78, 0
1, 11730, Note_off_c, 1, 75, 0
1, 11730, Note_off_c, 1, 58, 0
1, 11735, Note_on_c, 1, 77, 127
1, 11735, Note_on_c, 1, 73, 127
1, 12116, Note_off_c, 1, 77, 0
1, 12116, Note_on_c, 1, 60, 127
1, 12414, Note_off_c, 1, 60, 0
1, 12421, Note_on_c, 1, 61, 127
1, 13093, Note_off_c, 1, 73, 0
1, 13103, Note_off_c, 1, 70, 0
1, 13103, Note_off_c, 1, 61, 0
1, 13109, Note_on_c, 1, 70, 127
1, 13109, Note_on_c, 1, 77, 127
1, 13109, Note_on_c, 1, 61, 127
1, 13109, Note_on_c, 1, 73, 127
1, 13791, Note_off_c, 1, 70, 0
1, 13791, Note_off_c, 1, 77, 0
1, 13791, Note_off_c, 1, 61, 0
1, 13795, Note_on_c, 1, 67, 127
1, 14467, Note_off_c, 1, 73, 0
1, 14477, Note_off_c, 1, 67, 0
1, 14482, Note_on_c, 1, 75, 127
1, 14482, Note_on_c, 1, 60, 127
1, 14482, Note_on_c, 1, 66, 127
1, 14836, Note_off_c, 1, 75, 0
1, 14836, Note_off_c, 1, 60, 0
1, 15168, Note_on_c, 1, 72, 127
1, 15168, Note_on_c, 1, 63, 127
1, 15840, Note_off_c, 1, 66, 0
1, 15850, Note_off_c, 1, 72, 0
1, 15850, Note_off_c, 1, 63, 0
1, 15854, Note_on_c, 1, 73, 127
1, 15854, Note_on_c, 1, 66, 127
1, 15854, Note_on_c, 1, 70, 127
1, 15854, Note_on_c, 1, 63, 127
1, 16213, Note_off_c, 1, 73, 0
1, 16214, Note_on_c, 1, 75, 127
1, 16536, Note_off_c, 1, 66, 0
1, 16536, Note_off_c, 1, 70, 0
1, 16536, Note_off_c, 1, 63, 0
1, 16544, Note_off_c, 1, 75, 0
1, 16547, Note_on_c, 1, 65, 127
1, 16547, Note_on_c, 1, 63, 127
1, 16547, Note_on_c, 1, 69, 127
1, 17244, Note_on_c, 1, 61, 127
1, 17244, Note_on_c, 1, 70, 127
1, 17244, Note_on_c, 1, 77, 127
1, 17247, Note_off_c, 1, 65, 0
1, 17247, Note_off_c, 1, 63, 0
1, 17247, Note_off_c, 1, 69, 0
1, 17643, Note_off_c, 1, 61, 0
1, 17643, Note_off_c, 1, 70, 0
1, 17644, Note_on_c, 1, 72, 127
1, 17922, Note_off_c, 1, 72, 0
1, 17931, Note_on_c, 1, 73, 127
1, 18602, Note_off_c, 1, 77, 0
1, 18617, Note_on_c, 1, 79, 127
1, 18989, Note_on_c, 1, 81, 127
1, 18991, Note_off_c, 1, 79, 0
1, 19296, Note_off_c, 1, 81, 0
1, 19304, Note_on_c, 1, 82, 127
1, 19304, Note_on_c, 1, 66, 127
1, 19986, Note_off_c, 1, 73, 0
1, 20676, Note_on_c, 1, 60, 127
1, 20676, Note_on_c, 1, 75, 127
1, 21358, Note_off_c, 1, 60, 0
1, 21359, Note_off_c, 1, 82, 0
1, 21363, Note_on_c, 1, 58, 127
1, 22045, Note_off_c, 1, 58, 0
1, 22050, Note_on_c, 1, 57, 127
1, 22050, Note_on_c, 1, 84, 127
1, 22731, Note_off_c, 1, 75, 0
1, 22737, Note_on_c, 1, 78, 127
1, 23129, Note_off_c, 1, 78, 0
1, 23416, Note_off_c, 1, 66, 0
1, 23766, Note_off_c, 1, 57, 0
1, 24105, Note_off_c, 1, 84, 0
1, 28623, Note_on_c, 1, 67, 127
1, 28908, Note_off_c, 1, 67, 0
1, 32349, Note_on_c, 1, 55, 127
1, 32714, Note_on_c, 1, 53, 127
1, 32716, Note_off_c, 1, 55, 0
1, 33028, Note_off_c, 1, 53, 0
1, 35798, Note_on_c, 1, 70, 127
1, 35798, Note_on_c, 1, 58, 127
1, 35798, Note_on_c, 1, 65, 127
1, 35798, Note_on_c, 1, 73, 127
1, 36518, Note_off_c, 1, 70, 0
1, 36518, Note_off_c, 1, 58, 0
1, 36518, Note_off_c, 1, 65, 0
1, 36532, Note_on_c, 1, 61, 127
1, 36898, Note_off_c, 1, 73, 0
1, 36924, Note_off_c, 1, 61, 0
1, 36926, Note_on_c, 1, 60, 127
1, 36926, Note_on_c, 1, 72, 127
1, 37211, Note_off_c, 1, 60, 0
1, 37211, Note_off_c, 1, 72, 0
1, 37219, Note_on_c, 1, 58, 127
1, 37219, Note_on_c, 1, 73, 127
1, 37901, Note_off_c, 1, 58, 0
1, 37901, Note_off_c, 1, 73, 0
1, 37905, Note_on_c, 1, 56, 127
1, 37905, Note_on_c, 1, 70, 127
1, 37905, Note_on_c, 1, 65, 127
1, 37905, Note_on_c, 1, 73, 127
1, 38587, Note_off_c, 1, 56, 0
1, 38587, Note_off_c, 1, 70, 0
1, 38587, Note_off_c, 1, 65, 0
1, 38587, Note_off_c, 1, 73, 0
1, 38592, Note_on_c, 1, 55, 127
1, 38592, Note_on_c, 1, 63, 127
1, 38592, Note_on_c, 1, 70, 127
1, 38592, Note_on_c, 1, 73, 127
1, 39274, Note_off_c, 1, 55, 0
1, 39274, Note_off_c, 1, 63, 0
1, 39274, Note_off_c, 1, 70, 0
1, 39274, Note_off_c, 1, 73, 0
1, 39279, Note_on_c, 1, 56, 127
1, 39279, Note_on_c, 1, 72, 127
1, 39279, Note_on_c, 1, 68, 127
1, 39279, Note_on_c, 1, 63, 127
1, 39693, Note_off_c, 1, 56, 0
1, 39693, Note_off_c, 1, 72, 0
1, 39693, Note_on_c, 1, 70, 127
1, 39693, Note_on_c, 1, 55, 127
1, 39957, Note_off_c, 1, 70, 0
1, 39957, Note_off_c, 1, 55, 0
1, 39966, Note_on_c, 1, 53, 127
1, 40637, Note_off_c, 1, 68, 0
1, 40637, Note_off_c, 1, 63, 0
1, 40648, Note_off_c, 1, 53, 0
1, 40652, Note_on_c, 1, 51, 127
1, 40652, Note_on_c, 1, 72, 127
1, 40652, Note_on_c, 1, 68, 127
1, 40652, Note_on_c, 1, 65, 127
1, 41334, Note_off_c, 1, 51, 0
1, 41334, Note_off_c, 1, 72, 0
1, 41334, Note_off_c, 1, 68, 0
1, 41334, Note_off_c, 1, 65, 0
1, 41338, Note_on_c, 1, 50, 127
1, 41338, Note_on_c, 1, 68, 127
1, 41338, Note_on_c, 1, 65, 127
1, 41338, Note_on_c, 1, 72, 127
1, 42020, Note_off_c, 1, 50, 0
1, 42020, Note_off_c, 1, 68, 0
1, 42020, Note_off_c, 1, 65, 0
1, 42020, Note_off_c, 1, 72, 0
1, 42025, Note_on_c, 1, 55, 127
1, 42025, Note_on_c, 1, 70, 127
1, 42025, Note_on_c, 1, 67, 127
1, 42025, Note_on_c, 1, 65, 127
1, 42417, Note_off_c, 1, 55, 0
1, 42417, Note_off_c, 1, 70, 0
1, 42418, Note_on_c, 1, 53, 127
1, 42418, Note_on_c, 1, 68, 127
1, 42703, Note_off_c, 1, 53, 0
1, 42703, Note_off_c, 1, 68, 0
1, 42711, Note_on_c, 1, 52, 127
1, 43383, Note_off_c, 1, 67, 0
1, 43383, Note_off_c, 1, 65, 0
1, 43393, Note_off_c, 1, 52, 0
1, 43399, Note_on_c, 1, 55, 127
1, 43399, Note_on_c, 1, 70, 127
1, 43399, Note_on_c, 1, 65, 127
1, 43399, Note_on_c, 1, 67, 127
1, 44081, Note_off_c, 1, 55, 0
1, 44081, Note_off_c, 1, 70, 0
1, 44081, Note_off_c, 1, 65, 0
1, 44081, Note_off_c, 1, 67, 0
1, 44085, Note_on_c, 1, 48, 127
1, 44085, Note_on_c, 1, 64, 127
1, 44085, Note_on_c, 1, 70, 127
1, 44085, Note_on_c, 1, 67, 127
1, 44767, Note_off_c, 1, 48, 0
1, 44767, Note_off_c, 1, 64, 0
1, 44767, Note_off_c, 1, 70, 0
1, 44767, Note_off_c, 1, 67, 0
1, 44772, Note_on_c, 1, 53, 127
1, 44772, Note_on_c, 1, 68, 127
1, 44772, Note_on_c, 1, 65, 127
1, 44772, Note_on_c, 1, 60, 127
1, 45164, Note_off_c, 1, 53, 0
1, 45164, Note_off_c, 1, 68, 0
1, 45165, Note_on_c, 1, 51, 127
1, 45165, Note_on_c, 1, 67, 127
1, 45450, Note_off_c, 1, 51, 0
1, 45450, Note_off_c, 1, 67, 0
1, 45458, Note_on_c, 1, 49, 127
1, 46130, Note_off_c, 1, 65, 0
1, 46130, Note_off_c, 1, 60, 0
1, 46140, Note_off_c, 1, 49, 0
1, 46144, Note_on_c, 1, 48, 127
1, 46144, Note_on_c, 1, 68, 127
1, 46144, Note_on_c, 1, 65, 127
1, 46144, Note_on_c, 1, 60, 127
1, 46826, Note_off_c, 1, 48, 0
1, 46826, Note_off_c, 1, 68, 0
1, 46826, Note_off_c, 1, 65, 0
1, 46826, Note_off_c, 1, 60, 0
1, 46831, Note_on_c, 1, 46, 127
1, 46831, Note_on_c, 1, 65, 127
1, 46831, Note_on_c, 1, 61, 127
1, 46831, Note_on_c, 1, 68, 127
1, 47513, Note_off_c, 1, 46, 0
1, 47513, Note_off_c, 1, 65, 0
1, 47513, Note_off_c, 1, 61, 0
1, 47513, Note_off_c, 1, 68, 0
1, 47518, Note_on_c, 1, 67, 127
1, 47518, Note_on_c, 1, 46, 127
1, 47518, Note_on_c, 1, 58, 127
1, 47518, Note_on_c, 1, 61, 127
1, 47880, Note_on_c, 1, 68, 127
1, 47882, Note_off_c, 1, 67, 0
1, 48197, Note_off_c, 1, 68, 0
1, 48200, Note_off_c, 1, 46, 0
1, 48205, Note_on_c, 1, 70, 127
1, 48876, Note_off_c, 1, 58, 0
1, 48876, Note_off_c, 1, 61, 0
1, 48887, Note_off_c, 1, 70, 0
1, 48891, Note_on_c, 1, 46, 127
1, 48891, Note_on_c, 1, 58, 127
1, 48891, Note_on_c, 1, 67, 127
1, 48891, Note_on_c, 1, 61, 127
1, 49573, Note_off_c, 1, 46, 0
1, 49573, Note_off_c, 1, 58, 0
1, 49573, Note_off_c, 1, 67, 0
1, 49573, Note_off_c, 1, 61, 0
1, 49586, Note_on_c, 1, 46, 127
1, 49586, Note_on_c, 1, 55, 127
1, 49586, Note_on_c, 1, 64, 127
1, 49586, Note_on_c, 1, 60, 127
1, 50268, Note_off_c, 1, 46, 0
1, 50268, Note_off_c, 1, 55, 0
1, 50268, Note_off_c, 1, 64, 0
1, 50268, Note_off_c, 1, 60, 0
1, 50280, Note_on_c, 1, 65, 127
1, 50280, Note_on_c, 1, 44, 127
1, 50280, Note_on_c, 1, 56, 127
1, 50280, Note_on_c, 1, 72, 127
1, 50643, Note_off_c, 1, 65, 0
1, 50645, Note_on_c, 1, 64, 127
1, 50959, Note_off_c, 1, 64, 0
1, 50962, Note_off_c, 1, 44, 0
1, 50966, Note_on_c, 1, 49, 127
1, 51638, Note_off_c, 1, 56, 0
1, 51638, Note_off_c, 1, 72, 0
1, 51648, Note_off_c, 1, 49, 0
1, 51654, Note_on_c, 1, 70, 127
1, 51654, Note_on_c, 1, 55, 127
1, 51654, Note_on_c, 1, 49, 127
1, 51654, Note_on_c, 1, 65, 127
1, 52036, Note_off_c, 1, 70, 0
1, 52036, Note_on_c, 1, 68, 127
1, 52046, Note_off_c, 1, 55, 0
1, 52046, Note_on_c, 1, 53, 127
1, 52331, Note_off_c, 1, 68, 0
1, 52331, Note_off_c, 1, 53, 0
1, 52333, Note_off_c, 1, 49, 0
1, 52333, Note_off_c, 1, 65, 0
1, 52340, Note_on_c, 1, 55, 127
1, 52340, Note_on_c, 1, 49, 127
1, 52340, Note_on_c, 1, 70, 127
1, 52340, Note_on_c, 1, 65, 127
1, 53022, Note_off_c, 1, 55, 0
1, 53022, Note_off_c, 1, 49, 0
1, 53022, Note_off_c, 1, 70, 0
1, 53022, Note_off_c, 1, 65, 0
1, 53027, Note_on_c, 1, 48, 127
1, 53027, Note_on_c, 1, 64, 127
1, 53027, Note_on_c, 1, 55, 127
1, 53027, Note_on_c, 1, 70, 127
1, 53388, Note_on_c, 1, 46, 127
1, 53388, Note_on_c, 1, 62, 127
1, 53390, Note_off_c, 1, 48, 0
1, 53390, Note_off_c, 1, 64, 0
1, 53702, Note_off_c, 1, 46, 0
1, 53706, Note_off_c, 1, 55, 0
1, 53706, Note_off_c, 1, 62, 0
1, 54385, Note_off_c, 1, 70, 0
1, 54400, Note_on_c, 1, 68, 127
1, 54400, Note_on_c, 1, 64, 127
1, 54400, Note_on_c, 1, 60, 127
1, 54400, Note_on_c, 1, 48, 127
1, 54792, Note_off_c, 1, 68, 0
1, 54793, Note_on_c, 1, 67, 127
1, 55078, Note_off_c, 1, 67, 0
1, 55079, Note_off_c, 1, 64, 0
1, 55079, Note_off_c, 1, 60, 0
1, 55082, Note_off_c, 1, 48, 0
1, 55086, Note_on_c, 1, 48, 127
1, 55086, Note_on_c, 1, 64, 127
1, 55086, Note_on_c, 1, 68, 127
1, 55086, Note_on_c, 1, 60, 127
1, 55768, Note_off_c, 1, 48, 0
1, 55768, Note_off_c, 1, 64, 0
1, 55768, Note_off_c, 1, 68, 0
1, 55768, Note_off_c, 1, 60, 0
1, 55772, Note_on_c, 1, 65, 127
1, 55772, Note_on_c, 1, 60, 127
1, 55772, Note_on_c, 1, 41, 127
1, 55772, Note_on_c, 1, 68, 127
1, 56139, Note_off_c, 1, 65, 0
1, 56141, Note_on_c, 1, 63, 127
1, 56451, Note_off_c, 1, 60, 0
1, 56451, Note_off_c, 1, 63, 0
1, 56454, Note_off_c, 1, 41, 0
1, 56460, Note_on_c, 1, 46, 127
1, 56460, Note_on_c, 1, 61, 127
1, 57130, Note_off_c, 1, 68, 0
1, 57142, Note_off_c, 1, 46, 0
1, 57142, Note_off_c, 1, 61, 0
1, 57146, Note_on_c, 1, 58, 127
1, 57146, Note_on_c, 1, 66, 127
1, 57146, Note_on_c, 1, 46, 127
1, 57146, Note_on_c, 1, 61, 127
1, 57538, Note_off_c, 1, 58, 0
1, 57538, Note_off_c, 1, 66, 0
1, 57540, Note_on_c, 1, 57, 127
1, 57540, Note_on_c, 1, 65, 127
1, 57825, Note_off_c, 1, 46, 0
1, 57825, Note_off_c, 1, 61, 0
1, 57825, Note_off_c, 1, 57, 0
1, 57825, Note_off_c, 1, 65, 0
1, 57833, Note_on_c, 1, 58, 127
1, 57833, Note_on_c, 1, 46, 127
1, 57833, Note_on_c, 1, 61, 127
1, 57833, Note_on_c, 1, 66, 127
1, 58515, Note_off_c, 1, 58, 0
1, 58515, Note_off_c, 1, 46, 0
1, 58515, Note_off_c, 1, 61, 0
1, 58515, Note_off_c, 1, 66, 0
1, 58519, Note_on_c, 1, 54, 127
1, 58519, Note_on_c, 1, 70, 127
1, 58519, Note_on_c, 1, 46, 127
1, 58519, Note_on_c, 1, 73, 127
1, 58911, Note_off_c, 1, 54, 0
1, 58911, Note_off_c, 1, 70, 0
1, 58913, Note_on_c, 1, 53, 127
1, 58913, Note_on_c, 1, 69, 127
1, 59198, Note_off_c, 1, 46, 0
1, 59198, Note_off_c, 1, 53, 0
1, 59198, Note_off_c, 1, 69, 0
1, 59877, Note_off_c, 1, 73, 0
1, 59892, Note_on_c, 1, 72, 127
1, 60266, Note_off_c, 1, 72, 0
1, 60580, Note_on_c, 1, 46, 127
1, 60580, Note_on_c, 1, 55, 127
1, 60580, Note_on_c, 1, 76, 127
1, 60580, Note_on_c, 1, 72, 127
1, 61272, Note_off_c, 1, 46, 0
1, 61272, Note_off_c, 1, 55, 0
1, 61272, Note_off_c, 1, 76, 0
1, 61272, Note_off_c, 1, 72, 0
1, 61282, Note_on_c, 1, 65, 127
1, 61282, Note_on_c, 1, 56, 127
1, 61282, Note_on_c, 1, 72, 127
1, 61282, Note_on_c, 1, 44, 127
1, 61674, Note_off_c, 1, 65, 0
1, 61674, Note_off_c, 1, 56, 0
1, 61676, Note_on_c, 1, 67, 127
1, 61676, Note_on_c, 1, 55, 127
1, 61961, Note_off_c, 1, 72, 0
1, 61961, Note_off_c, 1, 44, 0
1, 61961, Note_off_c, 1, 67, 0
1, 61961, Note_off_c, 1, 55, 0
1, 61968, Note_on_c, 1, 68, 127
1, 61968, Note_on_c, 1, 49, 127
1, 61968, Note_on_c, 1, 53, 127
1, 61968, Note_on_c, 1, 77, 127
1, 62650, Note_off_c, 1, 68, 0
1, 62650, Note_off_c, 1, 49, 0
1, 62655, Note_on_c, 1, 72, 127
1, 62655, Note_on_c, 1, 48, 127
1, 63337, Note_off_c, 1, 72, 0
1, 63337, Note_off_c, 1, 48, 0
1, 63341, Note_on_c, 1, 73, 127
1, 63341, Note_on_c, 1, 46, 127
1, 64023, Note_off_c, 1, 53, 0
1, 64023, Note_off_c, 1, 73, 0
1, 64023, Note_off_c, 1, 46, 0
1, 64028, Note_on_c, 1, 67, 127
1, 64028, Note_on_c, 1, 52, 127
1, 64028, Note_on_c, 1, 70, 127
1, 64420, Note_off_c, 1, 67, 0
1, 64420, Note_off_c, 1, 52, 0
1, 64707, Note_off_c, 1, 70, 0
1, 64710, Note_off_c, 1, 77, 0
1, 64715, Note_on_c, 1, 76, 127
1, 64715, Note_on_c, 1, 70, 127
1, 64715, Note_on_c, 1, 48, 127
1, 64715, Note_on_c, 1, 55, 127
1, 65397, Note_off_c, 1, 76, 0
1, 65397, Note_off_c, 1, 70, 0
1, 65397, Note_off_c, 1, 48, 0
1, 65397, Note_off_c, 1, 55, 0
1, 65402, Note_on_c, 1, 70, 127
1, 65402, Note_on_c, 1, 72, 127
1, 65402, Note_on_c, 1, 55, 127
1, 65402, Note_on_c, 1, 48, 127
1, 66084, Note_off_c, 1, 70, 0
1, 66084, Note_off_c, 1, 72, 0
1, 66084, Note_off_c, 1, 55, 0
1, 66084, Note_off_c, 1, 48, 0
1, 66088, Note_on_c, 1, 72, 127
1, 66088, Note_on_c, 1, 70, 127
1, 66088, Note_on_c, 1, 41, 127
1, 66088, Note_on_c, 1, 77, 127
1, 66088, Note_on_c, 1, 53, 127
1, 66770, Note_off_c, 1, 72, 0
1, 66770, Note_off_c, 1, 70, 0
1, 66774, Note_on_c, 1, 68, 127
1, 67128, Note_on_c, 1, 67, 127
1, 67131, Note_off_c, 1, 68, 0
1, 67446, Note_off_c, 1, 41, 0
1, 67468, Note_off_c, 1, 67, 0
1, 68179, Note_off_c, 1, 77, 0
1, 68198, Note_off_c, 1, 53, 0
1, 68584, Note_on_c, 1, 75, 127
1, 68890, Note_off_c, 1, 75, 0
1, 68899, Note_on_c, 1, 58, 127
1, 68899, Note_on_c, 1, 74, 127
1, 69585, Note_on_c, 1, 71, 127
1, 69952, Note_off_c, 1, 71, 0
1, 69968, Note_on_c, 1, 66, 127
1, 70264, Note_off_c, 1, 66, 0
1, 70272, Note_on_c, 1, 65, 127
1, 70615, Note_off_c, 1, 58, 0
1, 70954, Note_off_c, 1, 74, 0
1, 71630, Note_off_c, 1, 65, 0
1, 71644, Note_on_c, 1, 51, 127
1, 71644, Note_on_c, 1, 78, 127
1, 72331, Note_on_c, 1, 66, 127
1, 72331, Note_on_c, 1, 63, 127
1, 72698, Note_off_c, 1, 66, 0
1, 72698, Note_off_c, 1, 63, 0
1, 72714, Note_on_c, 1, 65, 127
1, 72714, Note_on_c, 1, 68, 127
1, 73010, Note_off_c, 1, 65, 0
1, 73010, Note_off_c, 1, 68, 0
1, 73017, Note_on_c, 1, 70, 127
1, 73360, Note_off_c, 1, 51, 0
1, 73699, Note_off_c, 1, 78, 0
1, 73705, Note_on_c, 1, 75, 127
1, 74062, Note_off_c, 1, 75, 0
1, 74076, Note_on_c, 1, 73, 127
1, 74375, Note_off_c, 1, 70, 0
1, 74382, Note_off_c, 1, 73, 0
1, 74391, Note_on_c, 1, 56, 127
1, 74391, Note_on_c, 1, 72, 127
1, 75078, Note_on_c, 1, 63, 127
1, 75078, Note_on_c, 1, 60, 127
1, 75445, Note_off_c, 1, 63, 0
1, 75445, Note_off_c, 1, 60, 0
1, 75460, Note_on_c, 1, 61, 127
1, 75460, Note_on_c, 1, 65, 127
1, 75756, Note_off_c, 1, 61, 0
1, 75756, Note_off_c, 1, 65, 0
1, 75764, Note_on_c, 1, 66, 127
1, 76107, Note_off_c, 1, 56, 0
1, 76446, Note_off_c, 1, 72, 0
1, 76450, Note_on_c, 1, 73, 127
1, 76807, Note_off_c, 1, 73, 0
1, 76823, Note_on_c, 1, 75, 127
1, 77122, Note_off_c, 1, 66, 0
1, 77136, Note_off_c, 1, 75, 0
1, 77137, Note_on_c, 1, 49, 127
1, 77137, Note_on_c, 1, 77, 127
1, 77824, Note_on_c, 1, 68, 127
1, 77824, Note_on_c, 1, 65, 127
1, 78186, Note_on_c, 1, 63, 127
1, 78186, Note_on_c, 1, 66, 127
1, 78198, Note_off_c, 1, 68, 0
1, 78198, Note_off_c, 1, 65, 0
1, 78504, Note_off_c, 1, 63, 0
1, 78504, Note_off_c, 1, 66, 0
1, 78511, Note_on_c, 1, 61, 127
1, 79067, Note_off_c, 1, 49, 0
1, 79192, Note_off_c, 1, 77, 0
1, 79193, Note_off_c, 1, 61, 0
1, 79197, Note_on_c, 1, 73, 127
1, 79197, Note_on_c, 1, 65, 127
1, 79197, Note_on_c, 1, 61, 127
1, 79197, Note_on_c, 1, 49, 127
1, 79573, Note_off_c, 1, 73, 0
1, 79575, Note_on_c, 1, 72, 127
1, 79876, Note_off_c, 1, 65, 0
1, 79878, Note_off_c, 1, 72, 0
1, 79879, Note_off_c, 1, 61, 0
1, 79879, Note_off_c, 1, 49, 0
1, 79884, Note_on_c, 1, 66, 127
1, 79884, Note_on_c, 1, 70, 127
1, 79884, Note_on_c, 1, 61, 127
1, 79884, Note_on_c, 1, 54, 127
1, 80566, Note_off_c, 1, 66, 0
1, 80566, Note_off_c, 1, 70, 0
1, 80566, Note_off_c, 1, 61, 0
1, 80566, Note_off_c, 1, 54, 0
1, 80570, Note_on_c, 1, 54, 127
1, 80570, Note_on_c, 1, 61, 127
1, 80570, Note_on_c, 1, 66, 127
1, 80570, Note_on_c, 1, 70, 127
1, 80962, Note_off_c, 1, 54, 0
1, 80964, Note_on_c, 1, 53, 127
1, 81249, Note_off_c, 1, 61, 0
1, 81249, Note_off_c, 1, 53, 0
1, 81252, Note_off_c, 1, 66, 0
1, 81252, Note_off_c, 1, 70, 0
1, 81256, Note_on_c, 1, 70, 127
1, 81256, Note_on_c, 1, 78, 127
1, 81256, Note_on_c, 1, 63, 127
1, 81256, Note_on_c, 1, 51, 127
1, 81938, Note_off_c, 1, 70, 0
1, 81938, Note_off_c, 1, 78, 0
1, 81938, Note_off_c, 1, 63, 0
1, 81938, Note_off_c, 1, 51, 0
1, 81944, Note_on_c, 1, 78, 127
1, 81944, Note_on_c, 1, 63, 127
1, 81944, Note_on_c, 1, 70, 127
1, 81944, Note_on_c, 1, 51, 127
1, 82326, Note_off_c, 1, 78, 0
1, 82326, Note_off_c, 1, 63, 0
1, 82326, Note_on_c, 1, 77, 127
1, 82326, Note_on_c, 1, 65, 127
1, 82621, Note_off_c, 1, 77, 0
1, 82621, Note_off_c, 1, 65, 0
1, 82623, Note_off_c, 1, 70, 0
1, 82623, Note_off_c, 1, 51, 0
1, 82630, Note_on_c, 1, 75, 127
1, 82630, Note_on_c, 1, 70, 127
1, 82630, Note_on_c, 1, 66, 127
1, 82630, Note_on_c, 1, 60, 127
1, 83312, Note_off_c, 1, 75, 0
1, 83312, Note_off_c, 1, 70, 0
1, 83312, Note_off_c, 1, 66, 0
1, 83312, Note_off_c, 1, 60, 0
1, 83317, Note_on_c, 1, 69, 127
1, 83317, Note_on_c, 1, 60, 127
1, 83317, Note_on_c, 1, 75, 127
1, 83317, Note_on_c, 1, 66, 127
1, 83709, Note_off_c, 1, 69, 0
1, 83709, Note_off_c, 1, 60, 0
1, 83710, Note_on_c, 1, 70, 127
1, 83710, Note_on_c, 1, 58, 127
1, 83995, Note_off_c, 1, 70, 0
1, 83995, Note_off_c, 1, 58, 0
1, 83996, Note_off_c, 1, 75, 0
1, 83996, Note_off_c, 1, 66, 0
1, 84003, Note_on_c, 1, 72, 127
1, 84003, Note_on_c, 1, 84, 127
1, 84003, Note_on_c, 1, 66, 127
1, 84003, Note_on_c, 1, 57, 127
1, 84685, Note_off_c, 1, 72, 0
1, 84685, Note_off_c, 1, 84, 0
1, 84685, Note_off_c, 1, 66, 0
1, 84685, Note_off_c, 1, 57, 0
1, 84690, Note_on_c, 1, 84, 127
1, 84690, Note_on_c, 1, 72, 127
1, 84690, Note_on_c, 1, 57, 127
1, 84690, Note_on_c, 1, 65, 127
1, 85072, Note_off_c, 1, 84, 0
1, 85073, Note_on_c, 1, 82, 127
1, 85368, Note_off_c, 1, 82, 0
1, 85369, Note_off_c, 1, 72, 0
1, 85372, Note_off_c, 1, 57, 0
1, 85372, Note_off_c, 1, 65, 0
1, 85376, Note_on_c, 1, 81, 127
1, 85376, Note_on_c, 1, 72, 127
1, 85376, Note_on_c, 1, 77, 127
1, 85376, Note_on_c, 1, 63, 127
1, 86058, Note_off_c, 1, 81, 0
1, 86058, Note_off_c, 1, 72, 0
1, 86058, Note_off_c, 1, 77, 0
1, 86058, Note_off_c, 1, 63, 0
1, 86064, Note_on_c, 1, 65, 127
1, 86064, Note_on_c, 1, 81, 127
1, 86064, Note_on_c, 1, 72, 127
1, 86064, Note_on_c, 1, 77, 127
1, 86456, Note_off_c, 1, 65, 0
1, 86456, Note_on_c, 1, 63, 127
1, 86741, Note_off_c, 1, 63, 0
1, 86746, Note_off_c, 1, 81, 0
1, 86746, Note_off_c, 1, 72, 0
1, 86746, Note_off_c, 1, 77, 0
1, 86750, Note_on_c, 1, 62, 127
1, 86751, Note_on_c, 1, 70, 127
1, 86752, Note_on_c, 1, 77, 127
1, 86753, Note_on_c, 1, 82, 127
1, 87432, Note_off_c, 1, 62, 0
1, 87433, Note_off_c, 1, 70, 0
1, 87434, Note_off_c, 1, 77, 0
1, 87435, Note_off_c, 1, 82, 0
1, 87436, Note_on_c, 1, 82, 127
1, 87436, Note_on_c, 1, 70, 127
1, 87436, Note_on_c, 1, 77, 127
1, 87436, Note_on_c, 1, 62, 127
1, 87818, Note_off_c, 1, 82, 0
1, 87820, Note_on_c, 1, 80, 127
1, 88115, Note_off_c, 1, 70, 0
1, 88115, Note_off_c, 1, 77, 0
1, 88115, Note_off_c, 1, 80, 0
1, 88118, Note_off_c, 1, 62, 0
1, 88123, Note_on_c, 1, 77, 127
1, 88123, Note_on_c, 1, 70, 127
1, 88123, Note_on_c, 1, 78, 127
1, 88123, Note_on_c, 1, 63, 127
1, 88805, Note_off_c, 1, 77, 0
1, 88805, Note_off_c, 1, 70, 0
1, 88805, Note_off_c, 1, 78, 0
1, 88805, Note_off_c, 1, 63, 0
1, 88809, Note_on_c, 1, 63, 127
1, 88809, Note_on_c, 1, 75, 127
1, 88809, Note_on_c, 1, 78, 127
1, 88809, Note_on_c, 1, 70, 127
1, 89201, Note_off_c, 1, 63, 0
1, 89203, Note_on_c, 1, 61, 127
1, 89488, Note_off_c, 1, 61, 0
1, 89491, Note_off_c, 1, 75, 0
1, 89491, Note_off_c, 1, 78, 0
1, 89491, Note_off_c, 1, 70, 0
1, 89496, Note_on_c, 1, 78, 127
1, 89496, Note_on_c, 1, 70, 127
1, 89496, Note_on_c, 1, 75, 127
1, 89496, Note_on_c, 1, 60, 127
1, 90178, Note_off_c, 1, 78, 0
1, 90178, Note_off_c, 1, 70, 0
1, 90178, Note_off_c, 1, 75, 0
1, 90178, Note_off_c, 1, 60, 0
1, 90182, Note_on_c, 1, 69, 127
1, 90182, Note_on_c, 1, 60, 127
1, 90182, Note_on_c, 1, 75, 127
1, 90182, Note_on_c, 1, 78, 127
1, 90574, Note_off_c, 1, 69, 0
1, 90574, Note_off_c, 1, 60, 0
1, 90576, Note_on_c, 1, 70, 127
1, 90576, Note_on_c, 1, 58, 127
1, 90861, Note_off_c, 1, 75, 0
1, 90861, Note_off_c, 1, 78, 0
1, 90861, Note_off_c, 1, 70, 0
1, 90861, Note_off_c, 1, 58, 0
1, 90870, Note_on_c, 1, 75, 127
1, 90870, Note_on_c, 1, 78, 127
1, 90870, Note_on_c, 1, 72, 127
1, 90870, Note_on_c, 1, 57, 127
1, 91552, Note_off_c, 1, 75, 0
1, 91552, Note_off_c, 1, 78, 0
1, 91552, Note_off_c, 1, 72, 0
1, 91552, Note_off_c, 1, 57, 0
1, 91556, Note_on_c, 1, 73, 127
1, 91556, Note_on_c, 1, 65, 127
1, 91556, Note_on_c, 1, 57, 127
1, 91556, Note_on_c, 1, 77, 127
1, 91930, Note_off_c, 1, 73, 0
1, 91930, Note_off_c, 1, 65, 0
1, 91932, Note_on_c, 1, 63, 127
1, 91932, Note_on_c, 1, 72, 127
1, 92235, Note_off_c, 1, 57, 0
1, 92235, Note_off_c, 1, 63, 0
1, 92235, Note_off_c, 1, 72, 0
1, 92242, Note_on_c, 1, 70, 127
1, 92242, Note_on_c, 1, 58, 127
1, 92242, Note_on_c, 1, 61, 127
1, 92942, Note_off_c, 1, 70, 0
1, 92942, Note_off_c, 1, 58, 0
1, 92942, Note_off_c, 1, 61, 0
1, 92945, Note_on_c, 1, 78, 127
1, 92947, Note_off_c, 1, 77, 0
1, 93317, Note_on_c, 1, 56, 127
1, 93319, Note_off_c, 1, 78, 0
1, 93624, Note_off_c, 1, 56, 0
1, 93631, Note_on_c, 1, 54, 127
1, 93631, Note_on_c, 1, 61, 127
1, 93631, Note_on_c, 1, 75, 127
1, 93631, Note_on_c, 1, 70, 127
1, 94313, Note_off_c, 1, 54, 0
1, 94313, Note_off_c, 1, 61, 0
1, 94313, Note_off_c, 1, 75, 0
1, 94313, Note_off_c, 1, 70, 0
1, 94318, Note_on_c, 1, 54, 127
1, 94318, Note_on_c, 1, 60, 127
1, 94318, Note_on_c, 1, 75, 127
1, 94318, Note_on_c, 1, 69, 127
1, 94699, Note_off_c, 1, 54, 0
1, 94700, Note_off_c, 1, 60, 0
1, 94700, Note_off_c, 1, 75, 0
1, 94700, Note_off_c, 1, 69, 0
1, 94701, Note_on_c, 1, 61, 127
1, 94701, Note_on_c, 1, 73, 127
1, 94701, Note_on_c, 1, 53, 127
1, 94701, Note_on_c, 1, 70, 127
1, 94996, Note_off_c, 1, 61, 0
1, 94996, Note_off_c, 1, 73, 0
1, 94996, Note_off_c, 1, 53, 0
1, 95005, Note_on_c, 1, 51, 127
1, 95005, Note_on_c, 1, 63, 127
1, 95005, Note_on_c, 1, 72, 127
1, 95665, Note_off_c, 1, 70, 0
1, 95687, Note_off_c, 1, 51, 0
1, 95687, Note_off_c, 1, 63, 0
1, 95687, Note_off_c, 1, 72, 0
1, 95692, Note_on_c, 1, 51, 127
1, 95692, Note_on_c, 1, 72, 127
1, 95692, Note_on_c, 1, 69, 127
1, 95692, Note_on_c, 1, 65, 127
1, 96084, Note_off_c, 1, 51, 0
1, 96084, Note_off_c, 1, 72, 0
1, 96084, Note_off_c, 1, 69, 0
1, 96085, Note_on_c, 1, 49, 127
1, 96085, Note_on_c, 1, 73, 127
1, 96085, Note_on_c, 1, 70, 127
1, 96370, Note_off_c, 1, 49, 0
1, 96370, Note_off_c, 1, 73, 0
1, 96370, Note_off_c, 1, 70, 0
1, 96371, Note_off_c, 1, 65, 0
1, 96378, Note_on_c, 1, 48, 127
1, 96378, Note_on_c, 1, 69, 127
1, 96378, Note_on_c, 1, 75, 127
1, 96378, Note_on_c, 1, 66, 127
1, 97060, Note_off_c, 1, 48, 0
1, 97060, Note_off_c, 1, 69, 0
1, 97060, Note_off_c, 1, 75, 0
1, 97060, Note_off_c, 1, 66, 0
1, 97064, Note_on_c, 1, 48, 127
1, 97064, Note_on_c, 1, 72, 127
1, 97064, Note_on_c, 1, 69, 127
1, 97064, Note_on_c, 1, 66, 127
1, 97456, Note_off_c, 1, 48, 0
1, 97456, Note_off_c, 1, 72, 0
1, 97456, Note_off_c, 1, 69, 0
1, 97458, Note_on_c, 1, 46, 127
1, 97458, Note_on_c, 1, 70, 127
1, 97458, Note_on_c, 1, 73, 127
1, 97743, Note_off_c, 1, 66, 0
1, 97743, Note_off_c, 1, 46, 0
1, 97743, Note_off_c, 1, 70, 0
1, 97743, Note_off_c, 1, 73, 0
1, 97751, Note_on_c, 1, 45, 127
1, 97751, Note_on_c, 1, 72, 127
1, 97751, Note_on_c, 1, 65, 127
1, 97751, Note_on_c, 1, 75, 127
1, 98433, Note_off_c, 1, 45, 0
1, 98433, Note_off_c, 1, 72, 0
1, 98433, Note_off_c, 1, 65, 0
1, 98433, Note_off_c, 1, 75, 0
1, 98437, Note_on_c, 1, 73, 127
1, 98437, Note_on_c, 1, 70, 127
1, 98437, Note_on_c, 1, 65, 127
1, 98437, Note_on_c, 1, 41, 127
1, 98797, Note_off_c, 1, 73, 0
1, 98797, Note_off_c, 1, 70, 0
1, 98805, Note_on_c, 1, 72, 127
1, 98805, Note_on_c, 1, 69, 127
1, 99116, Note_off_c, 1, 65, 0
1, 99116, Note_off_c, 1, 72, 0
1, 99116, Note_off_c, 1, 69, 0
1, 99119, Note_off_c, 1, 41, 0
1, 99125, Note_on_c, 1, 46, 127
1, 99126, Note_on_c, 1, 65, 127
1, 99127, Note_on_c, 1, 70, 127
1, 99128, Note_on_c, 1, 73, 127
1, 99807, Note_off_c, 1, 46, 0
1, 100190, Note_on_c, 1, 44, 127
1, 100490, Note_off_c, 1, 44, 0
1, 100498, Note_on_c, 1, 42, 127
1, 101180, Note_off_c, 1, 42, 0
1, 101181, Note_off_c, 1, 65, 0
1, 101182, Note_off_c, 1, 70, 0
1, 101547, Note_on_c, 1, 41, 127
1, 101862, Note_off_c, 1, 41, 0
1, 101870, Note_on_c, 1, 39, 127
1, 101870, Note_on_c, 1, 66, 127
1, 102552, Note_off_c, 1, 39, 0
1, 102557, Note_on_c, 1, 78, 127
1, 102949, Note_off_c, 1, 78, 0
1, 102950, Note_on_c, 1, 77, 127
1, 103235, Note_off_c, 1, 77, 0
1, 103240, Note_off_c, 1, 73, 0
1, 103244, Note_on_c, 1, 75, 127
1, 103636, Note_off_c, 1, 75, 0
1, 103925, Note_off_c, 1, 66, 0
1, 103931, Note_on_c, 1, 72, 127
1, 103931, Note_on_c, 1, 63, 127
1, 103931, Note_on_c, 1, 66, 127
1, 103931, Note_on_c, 1, 39, 127
1, 104292, Note_on_c, 1, 70, 127
1, 104292, Note_on_c, 1, 61, 127
1, 104293, Note_off_c, 1, 72, 0
1, 104293, Note_off_c, 1, 63, 0
1, 104610, Note_off_c, 1, 66, 0
1, 104613, Note_off_c, 1, 39, 0
1, 104622, Note_off_c, 1, 70, 0
1, 104622, Note_off_c, 1, 61, 0
1, 104625, Note_on_c, 1, 65, 127
1, 104625, Note_on_c, 1, 41, 127
1, 104625, Note_on_c, 1, 69, 127
1, 104625, Note_on_c, 1, 60, 127
1, 105357, Note_off_c, 1, 65, 0
1, 105365, Note_off_c, 1, 41, 0
1, 105365, Note_off_c, 1, 69, 0
1, 105365, Note_off_c, 1, 60, 0
1, 105376, Note_on_c, 1, 57, 127
1, 105376, Note_on_c, 1, 65, 127
1, 105376, Note_on_c, 1, 53, 127
1, 105768, Note_off_c, 1, 57, 0
1, 105768, Note_off_c, 1, 65, 0
1, 105769, Note_on_c, 1, 58, 127
1, 105769, Note_on_c, 1, 67, 127
1, 106054, Note_off_c, 1, 58, 0
1, 106054, Note_off_c, 1, 67, 0
1, 106055, Note_off_c, 1, 53, 0
1, 106062, Note_on_c, 1, 60, 127
1, 106062, Note_on_c, 1, 53, 127
1, 106062, Note_on_c, 1, 69, 127
1, 106744, Note_off_c, 1, 60, 0
1, 106744, Note_off_c, 1, 53, 0
1, 106744, Note_off_c, 1, 69, 0
1, 106748, Note_on_c, 1, 53, 127
1, 106748, Note_on_c, 1, 60, 127
1, 106748, Note_on_c, 1, 65, 127
1, 106748, Note_on_c, 1, 63, 127
1, 106748, Note_on_c, 1, 69, 127
1, 107430, Note_off_c, 1, 53, 0
1, 107430, Note_off_c, 1, 60, 0
1, 107430, Note_off_c, 1, 65, 0
1, 107430, Note_off_c, 1, 63, 0
1, 107430, Note_off_c, 1, 69, 0
1, 107435, Note_on_c, 1, 53, 127
1, 107435, Note_on_c, 1, 65, 127
1, 107435, Note_on_c, 1, 61, 127
1, 107435, Note_on_c, 1, 69, 127
1, 107435, Note_on_c, 1, 58, 127
1, 108117, Note_off_c, 1, 53, 0
1, 108117, Note_off_c, 1, 65, 0
1, 108117, Note_off_c, 1, 61, 0
1, 108117, Note_off_c, 1, 69, 0
1, 108122, Note_on_c, 1, 67, 127
1, 108122, Note_on_c, 1, 64, 127
1, 108514, Note_off_c, 1, 67, 0
1, 108514, Note_off_c, 1, 64, 0
1, 108809, Note_on_c, 1, 70, 127
1, 109490, Note_off_c, 1, 58, 0
1, 109491, Note_off_c, 1, 70, 0
1, 109495, Note_on_c, 1, 61, 127
1, 109495, Note_on_c, 1, 53, 127
1, 109495, Note_on_c, 1, 67, 127
1, 109495, Note_on_c, 1, 64, 127
1, 109495, Note_on_c, 1, 70, 127
1, 110177, Note_off_c, 1, 61, 0
1, 110177, Note_off_c, 1, 53, 0
1, 110177, Note_off_c, 1, 67, 0
1, 110177, Note_off_c, 1, 64, 0
1, 110177, Note_off_c, 1, 70, 0
1, 110182, Note_on_c, 1, 60, 127
1, 110182, Note_on_c, 1, 53, 127
1, 110182, Note_on_c, 1, 70, 127
1, 110182, Note_on_c, 1, 64, 127
1, 110182, Note_on_c, 1, 67, 127
1, 110864, Note_off_c, 1, 60, 0
1, 110864, Note_off_c, 1, 53, 0
1, 110864, Note_off_c, 1, 70, 0
1, 110864, Note_off_c, 1, 64, 0
1, 110864, Note_off_c, 1, 67, 0
1, 110868, Note_on_c, 1, 60, 127
1, 110868, Note_on_c, 1, 69, 127
1, 110868, Note_on_c, 1, 53, 127
1, 110868, Note_on_c, 1, 65, 127
1, 111260, Note_off_c, 1, 60, 0
1, 111260, Note_off_c, 1, 69, 0
1, 111262, Note_on_c, 1, 61, 127
1, 111262, Note_on_c, 1, 67, 127
1, 111262, Note_on_c, 1, 70, 127
1, 111547, Note_off_c, 1, 53, 0
1, 111547, Note_off_c, 1, 61, 0
1, 111547, Note_off_c, 1, 67, 0
1, 111547, Note_off_c, 1, 70, 0
1, 111554, Note_on_c, 1, 63, 127
1, 111554, Note_on_c, 1, 72, 127
1, 112226, Note_off_c, 1, 65, 0
1, 112236, Note_off_c, 1, 63, 0
1, 112236, Note_off_c, 1, 72, 0
1, 112242, Note_on_c, 1, 53, 127
1, 112242, Note_on_c, 1, 63, 127
1, 112242, Note_on_c, 1, 65, 127
1, 112242, Note_on_c, 1, 72, 127
1, 112242, Note_on_c, 1, 69, 127
1, 112924, Note_off_c, 1, 53, 0
1, 112924, Note_off_c, 1, 63, 0
1, 112924, Note_off_c, 1, 65, 0
1, 112924, Note_off_c, 1, 72, 0
1, 112924, Note_off_c, 1, 69, 0
1, 112928, Note_on_c, 1, 53, 127
1, 112928, Note_on_c, 1, 61, 127
1, 112928, Note_on_c, 1, 69, 127
1, 112928, Note_on_c, 1, 65, 127
1, 112928, Note_on_c, 1, 72, 127
1, 113610, Note_off_c, 1, 53, 0
1, 113610, Note_off_c, 1, 61, 0
1, 113610, Note_off_c, 1, 69, 0
1, 113610, Note_off_c, 1, 65, 0
1, 113610, Note_off_c, 1, 72, 0
1, 113615, Note_on_c, 1, 61, 127
1, 113615, Note_on_c, 1, 67, 127
1, 113615, Note_on_c, 1, 70, 127
1, 113615, Note_on_c, 1, 53, 127
1, 114007, Note_off_c, 1, 61, 0
1, 114007, Note_off_c, 1, 67, 0
1, 114007, Note_off_c, 1, 70, 0
1, 114008, Note_on_c, 1, 60, 127
1, 114008, Note_on_c, 1, 69, 127
1, 114008, Note_on_c, 1, 72, 127
1, 114293, Note_off_c, 1, 60, 0
1, 114293, Note_off_c, 1, 69, 0
1, 114293, Note_off_c, 1, 72, 0
1, 114294, Note_off_c, 1, 53, 0
1, 114301, Note_on_c, 1, 53, 127
1, 114301, Note_on_c, 1, 58, 127
1, 114301, Note_on_c, 1, 73, 127
1, 114301, Note_on_c, 1, 70, 127
1, 114983, Note_off_c, 1, 53, 0
1, 114983, Note_off_c, 1, 58, 0
1, 114983, Note_off_c, 1, 73, 0
1, 114983, Note_off_c, 1, 70, 0
1, 114988, Note_on_c, 1, 58, 127
1, 114988, Note_on_c, 1, 53, 127
1, 114988, Note_on_c, 1, 70, 127
1, 114988, Note_on_c, 1, 65, 127
1, 114988, Note_on_c, 1, 73, 127
1, 115350, Note_off_c, 1, 58, 0
1, 115351, Note_on_c, 1, 56, 127
1, 115666, Note_off_c, 1, 56, 0
1, 115667, Note_off_c, 1, 53, 0
1, 115670, Note_off_c, 1, 70, 0
1, 115670, Note_off_c, 1, 65, 0
1, 115670, Note_off_c, 1, 73, 0
1, 115674, Note_on_c, 1, 54, 127
1, 115674, Note_on_c, 1, 53, 127
1, 115674, Note_on_c, 1, 66, 127
1, 115674, Note_on_c, 1, 73, 127
1, 115674, Note_on_c, 1, 70, 127
1, 116356, Note_off_c, 1, 54, 0
1, 116356, Note_off_c, 1, 53, 0
1, 116356, Note_off_c, 1, 66, 0
1, 116356, Note_off_c, 1, 73, 0
1, 116356, Note_off_c, 1, 70, 0
1, 116362, Note_on_c, 1, 54, 127
1, 116362, Note_on_c, 1, 51, 127
1, 116362, Note_on_c, 1, 72, 127
1, 116362, Note_on_c, 1, 69, 127
1, 116362, Note_on_c, 1, 66, 127
1, 116754, Note_off_c, 1, 54, 0
1, 116754, Note_off_c, 1, 51, 0
1, 116754, Note_off_c, 1, 72, 0
1, 116754, Note_off_c, 1, 69, 0
1, 116754, Note_on_c, 1, 49, 127
1, 116754, Note_on_c, 1, 53, 127
1, 116754, Note_on_c, 1, 70, 127
1, 116754, Note_on_c, 1, 73, 127
1, 117039, Note_off_c, 1, 49, 0
1, 117039, Note_off_c, 1, 53, 0
1, 117039, Note_off_c, 1, 70, 0
1, 117039, Note_off_c, 1, 73, 0
1, 117041, Note_off_c, 1, 66, 0
1, 117048, Note_on_c, 1, 51, 127
1, 117048, Note_on_c, 1, 54, 127
1, 117048, Note_on_c, 1, 48, 127
1, 117048, Note_on_c, 1, 75, 127
1, 117048, Note_on_c, 1, 69, 127
1, 117048, Note_on_c, 1, 66, 127
1, 117048, Note_on_c, 1, 72, 127
1, 117730, Note_off_c, 1, 51, 0
1, 117730, Note_off_c, 1, 54, 0
1, 117730, Note_off_c, 1, 48, 0
1, 117730, Note_off_c, 1, 75, 0
1, 117730, Note_off_c, 1, 69, 0
1, 117730, Note_off_c, 1, 66, 0
1, 117730, Note_off_c, 1, 72, 0
1, 117734, Note_on_c, 1, 51, 127
1, 117734, Note_on_c, 1, 48, 127
1, 117734, Note_on_c, 1, 75, 127
1, 117734, Note_on_c, 1, 72, 127
1, 117734, Note_on_c, 1, 66, 127
1, 117734, Note_on_c, 1, 69, 127
1, 117734, Note_on_c, 1, 54, 127
1, 118126, Note_off_c, 1, 51, 0
1, 118126, Note_off_c, 1, 48, 0
1, 118126, Note_off_c, 1, 75, 0
1, 118126, Note_off_c, 1, 72, 0
1, 118128, Note_on_c, 1, 49, 127
1, 118128, Note_on_c, 1, 46, 127
1, 118128, Note_on_c, 1, 73, 127
1, 118128, Note_on_c, 1, 77, 127
1, 118483, Note_off_c, 1, 49, 0
1, 118483, Note_off_c, 1, 46, 0
1, 118483, Note_off_c, 1, 73, 0
1, 118483, Note_off_c, 1, 77, 0
1, 118484, Note_off_c, 1, 66, 0
1, 118484, Note_off_c, 1, 69, 0
1, 118489, Note_off_c, 1, 54, 0
1, 118499, Note_on_c, 1, 45, 127
1, 118500, Note_on_c, 1, 51, 127
1, 118501, Note_on_c, 1, 54, 127
1, 118501, Note_on_c, 1, 66, 127
1, 118502, Note_on_c, 1, 69, 127
1, 118502, Note_on_c, 1, 72, 127
1, 118503, Note_on_c, 1, 78, 127
1, 118503, Note_on_c, 1, 75, 127
1, 120499, Note_off_c, 1, 45, 0
1, 120500, Note_off_c, 1, 51, 0
1, 120501, Note_off_c, 1, 54, 0
1, 120501, Note_off_c, 1, 66, 0
1, 120502, Note_off_c, 1, 69, 0
1, 120502, Note_off_c, 1, 72, 0
1, 120503, Note_off_c, 1, 78, 0
1, 120503, Note_off_c, 1, 75, 0
1, 120609, Note_on_c, 1, 57, 127
1, 120609, Note_on_c, 1, 65, 127
1, 120609, Note_on_c, 1, 72, 127
1, 120609, Note_on_c, 1, 77, 127
1, 121291, Note_off_c, 1, 57, 0
1, 121291, Note_off_c, 1, 65, 0
1, 121291, Note_off_c, 1, 72, 0
1, 121291, Note_off_c, 1, 77, 0
1, 121296, Note_on_c, 1, 58, 127
1, 121296, Note_on_c, 1, 70, 127
1, 121296, Note_on_c, 1, 65, 127
1, 121296, Note_on_c, 1, 73, 127
1, 121978, Note_off_c, 1, 58, 0
1, 121978, Note_off_c, 1, 70, 0
1, 121978, Note_off_c, 1, 65, 0
1, 121978, Note_off_c, 1, 73, 0
1, 121982, Note_on_c, 1, 75, 127
1, 121982, Note_on_c, 1, 54, 127
1, 121982, Note_on_c, 1, 70, 127
1, 121982, Note_on_c, 1, 58, 127
1, 122344, Note_on_c, 1, 51, 127
1, 122344, Note_on_c, 1, 72, 127
1, 122344, Note_on_c, 1, 66, 127
1, 122346, Note_off_c, 1, 75, 0
1, 122347, Note_off_c, 1, 54, 0
1, 122356, Note_off_c, 1, 70, 0
1, 122661, Note_off_c, 1, 58, 0
1, 122661, Note_off_c, 1, 51, 0
1, 122661, Note_off_c, 1, 72, 0
1, 122661, Note_off_c, 1, 66, 0
1, 122668, Note_on_c, 1, 70, 127
1, 122668, Note_on_c, 1, 65, 127
1, 122668, Note_on_c, 1, 73, 127
1, 122668, Note_on_c, 1, 53, 127
1, 123350, Note_off_c, 1, 70, 0
1, 123350, Note_off_c, 1, 65, 0
1, 123350, Note_off_c, 1, 73, 0
1, 123355, Note_on_c, 1, 72, 127
1, 123355, Note_on_c, 1, 69, 127
1, 123355, Note_on_c, 1, 63, 127
1, 123355, Note_on_c, 1, 41, 127
1, 123718, Note_off_c, 1, 72, 0
1, 124056, Note_off_c, 1, 69, 0
1, 124056, Note_off_c, 1, 63, 0
1, 124057, Note_off_c, 1, 41, 0
1, 124057, Note_on_c, 1, 46, 127
1, 124057, Note_on_c, 1, 62, 127
1, 124777, Note_off_c, 1, 46, 0
1, 124780, Note_off_c, 1, 62, 0
1, 124786, Note_off_c, 1, 53, 0
1, 125171, Note_on_c, 1, 66, 127
1, 125185, Note_on_c, 1, 51, 127
1, 125501, Note_off_c, 1, 66, 0
1, 125505, Note_off_c, 1, 51, 0
1, 125511, Note_on_c, 1, 50, 127
1, 125511, Note_on_c, 1, 68, 127
1, 125869, Note_on_c, 1, 48, 127
1, 125871, Note_off_c, 1, 50, 0
1, 126187, Note_off_c, 1, 48, 0
1, 126193, Note_off_c, 1, 68, 0
1, 126884, Note_on_c, 1, 50, 127
1, 126884, Note_on_c, 1, 46, 127
1, 126884, Note_on_c, 1, 68, 127
1, 126884, Note_on_c, 1, 65, 127
1, 126884, Note_on_c, 1, 70, 127
1, 127566, Note_off_c, 1, 50, 0
1, 127566, Note_off_c, 1, 46, 0
1, 127566, Note_off_c, 1, 68, 0
1, 127566, Note_off_c, 1, 65, 0
1, 127586, Note_on_c, 1, 51, 127
1, 127586, Note_on_c, 1, 63, 127
1, 127586, Note_on_c, 1, 66, 127
1, 127953, Note_off_c, 1, 51, 0
1, 127971, Note_on_c, 1, 53, 127
1, 128309, Note_off_c, 1, 53, 0
1, 128321, Note_on_c, 1, 54, 127
1, 128993, Note_off_c, 1, 63, 0
1, 128993, Note_off_c, 1, 66, 0
1, 129011, Note_off_c, 1, 54, 0
1, 129023, Note_on_c, 1, 62, 127
1, 129415, Note_off_c, 1, 62, 0
1, 129449, Note_on_c, 1, 60, 127
1, 129849, Note_off_c, 1, 60, 0
1, 132584, Note_off_c, 1, 70, 0
1, 133584, Note_on_c, 1, 70, 127
1, 134421, Note_off_c, 1, 70, 0
1, 134422, Note_on_c, 1, 65, 127
1, 135568, Note_off_c, 1, 65, 0
1, 135681, Note_on_c, 1, 78, 127
1, 136099, Note_off_c, 1, 78, 0
1, 136100, Note_on_c, 1, 77, 127
1, 136518, Note_off_c, 1, 77, 0
1, 136520, Note_on_c, 1, 75, 127
1, 136938, Note_off_c, 1, 75, 0
1, 136939, Note_on_c, 1, 73, 127
1, 136939, Note_on_c, 1, 65, 127
1, 137357, Note_off_c, 1, 73, 0
1, 137357, Note_on_c, 1, 72, 127
1, 137775, Note_off_c, 1, 72, 0
1, 137776, Note_off_c, 1, 65, 0
1, 137777, Note_on_c, 1, 73, 127
1, 137777, Note_on_c, 1, 58, 127
1, 138195, Note_off_c, 1, 73, 0
1, 138195, Note_on_c, 1, 75, 127
1, 138613, Note_off_c, 1, 75, 0
1, 138614, Note_on_c, 1, 77, 127
1, 138920, Note_off_c, 1, 58, 0
1, 139028, Note_off_c, 1, 77, 0
1, 139030, Note_on_c, 1, 76, 127
1, 139030, Note_on_c, 1, 73, 127
1, 139236, Note_off_c, 1, 76, 0
1, 139237, Note_on_c, 1, 77, 127
1, 139441, Note_off_c, 1, 73, 0
1, 139443, Note_off_c, 1, 77, 0
1, 139445, Note_on_c, 1, 72, 127
1, 139445, Note_on_c, 1, 79, 127
1, 139863, Note_off_c, 1, 72, 0
1, 139864, Note_on_c, 1, 70, 127
1, 140282, Note_off_c, 1, 70, 0
1, 140282, Note_on_c, 1, 68, 127
1, 140700, Note_off_c, 1, 79, 0
1, 140700, Note_off_c, 1, 68, 0
1, 140702, Note_on_c, 1, 80, 127
1, 140702, Note_on_c, 1, 67, 127
1, 140908, Note_off_c, 1, 80, 0
1, 140909, Note_on_c, 1, 79, 127
1, 141113, Note_off_c, 1, 67, 0
1, 141115, Note_off_c, 1, 79, 0
1, 141117, Note_on_c, 1, 68, 127
1, 141117, Note_on_c, 1, 77, 127
1, 141535, Note_off_c, 1, 68, 0
1, 141537, Note_on_c, 1, 70, 127
1, 141955, Note_off_c, 1, 70, 0
1, 141955, Note_on_c, 1, 72, 127
1, 142260, Note_off_c, 1, 77, 0
1, 142374, Note_on_c, 1, 75, 127
1, 142580, Note_off_c, 1, 75, 0
1, 142582, Note_on_c, 1, 73, 127
1, 142788, Note_off_c, 1, 73, 0
1, 143095, Note_off_c, 1, 72, 0
1, 143205, Note_on_c, 1, 70, 127
1, 143205, Note_on_c, 1, 77, 127
1, 143411, Note_off_c, 1, 70, 0
1, 143413, Note_on_c, 1, 69, 127
1, 143616, Note_off_c, 1, 77, 0
1, 143619, Note_off_c, 1, 69, 0
1, 143620, Note_on_c, 1, 70, 127
1, 143620, Note_on_c, 1, 78, 127
1, 144038, Note_off_c, 1, 70, 0
1, 144040, Note_on_c, 1, 72, 127
1, 144458, Note_off_c, 1, 72, 0
1, 144459, Note_on_c, 1, 73, 127
1, 144763, Note_off_c, 1, 78, 0
1, 144877, Note_on_c, 1, 77, 127
1, 145083, Note_off_c, 1, 77, 0
1, 145085, Note_on_c, 1, 75, 127
1, 145291, Note_off_c, 1, 75, 0
1, 145599, Note_off_c, 1, 73, 0
1, 145708, Note_on_c, 1, 72, 127
1, 145708, Note_on_c, 1, 79, 127
1, 145914, Note_off_c, 1, 72, 0
1, 145916, Note_on_c, 1, 70, 127
1, 146119, Note_off_c, 1, 79, 0
1, 146122, Note_off_c, 1, 70, 0
1, 146123, Note_on_c, 1, 72, 127
1, 146123, Note_on_c, 1, 80, 127
1, 146541, Note_off_c, 1, 72, 0
1, 146542, Note_on_c, 1, 74, 127
1, 146960, Note_off_c, 1, 74, 0
1, 146961, Note_on_c, 1, 75, 127
1, 147266, Note_off_c, 1, 80, 0
1, 147380, Note_on_c, 1, 79, 127
1, 147586, Note_off_c, 1, 79, 0
1, 147588, Note_on_c, 1, 77, 127
1, 147794, Note_off_c, 1, 77, 0
1, 148199, Note_off_c, 1, 75, 0
1, 148215, Note_on_c, 1, 73, 127
1, 148215, Note_on_c, 1, 81, 127
1, 148421, Note_off_c, 1, 73, 0
1, 148422, Note_on_c, 1, 72, 127
1, 148626, Note_off_c, 1, 81, 0
1, 148628, Note_off_c, 1, 72, 0
1, 148630, Note_on_c, 1, 73, 127
1, 148630, Note_on_c, 1, 58, 127
1, 148630, Note_on_c, 1, 82, 127
1, 149048, Note_off_c, 1, 73, 0
1, 149049, Note_on_c, 1, 75, 127
1, 149467, Note_off_c, 1, 58, 0
1, 149467, Note_off_c, 1, 75, 0
1, 149468, Note_on_c, 1, 53, 127
1, 149468, Note_on_c, 1, 77, 127
1, 149885, Note_off_c, 1, 82, 0
1, 149891, Note_on_c, 1, 81, 127
1, 150097, Note_off_c, 1, 81, 0
1, 150099, Note_on_c, 1, 79, 127
1, 150305, Note_off_c, 1, 79, 0
1, 150611, Note_off_c, 1, 53, 0
1, 150720, Note_off_c, 1, 77, 0
1, 150721, Note_on_c, 1, 75, 127
1, 150721, Note_on_c, 1, 82, 127
1, 150721, Note_on_c, 1, 66, 127
1, 150927, Note_off_c, 1, 75, 0
1, 150929, Note_on_c, 1, 73, 127
1, 151132, Note_off_c, 1, 82, 0
1, 151135, Note_off_c, 1, 66, 0
1, 151135, Note_off_c, 1, 73, 0
1, 151137, Note_on_c, 1, 65, 127
1, 151137, Note_on_c, 1, 75, 127
1, 151137, Note_on_c, 1, 84, 127
1, 151555, Note_off_c, 1, 65, 0
1, 151556, Note_on_c, 1, 63, 127
1, 151974, Note_off_c, 1, 63, 0
1, 151975, Note_on_c, 1, 61, 127
1, 151975, Note_on_c, 1, 53, 127
1, 152392, Note_off_c, 1, 75, 0
1, 152392, Note_off_c, 1, 84, 0
1, 152393, Note_off_c, 1, 61, 0
1, 152394, Note_on_c, 1, 82, 127
1, 152394, Note_on_c, 1, 77, 127
1, 152394, Note_on_c, 1, 60, 127
1, 152600, Note_off_c, 1, 82, 0
1, 152600, Note_off_c, 1, 77, 0
1, 152601, Note_on_c, 1, 81, 127
1, 152807, Note_off_c, 1, 81, 0
1, 152808, Note_off_c, 1, 60, 0
1, 152809, Note_off_c, 1, 53, 0
1, 152809, Note_on_c, 1, 46, 127
1, 152809, Note_on_c, 1, 73, 127
1, 152809, Note_on_c, 1, 58, 127
1, 153212, Note_off_c, 1, 46, 0
1, 153227, Note_off_c, 1, 73, 0
1, 153227, Note_off_c, 1, 58, 0
1, 153228, Note_on_c, 1, 60, 127
1, 153228, Note_on_c, 1, 80, 127
1, 153228, Note_on_c, 1, 72, 127
1, 153434, Note_off_c, 1, 60, 0
1, 153436, Note_on_c, 1, 61, 127
1, 153642, Note_off_c, 1, 80, 0
1, 153642, Note_off_c, 1, 72, 0
1, 153642, Note_off_c, 1, 61, 0
1, 153643, Note_on_c, 1, 78, 127
1, 153643, Note_on_c, 1, 63, 127
1, 153643, Note_on_c, 1, 70, 127
1, 154061, Note_off_c, 1, 78, 0
1, 154061, Note_off_c, 1, 63, 0
1, 154062, Note_on_c, 1, 77, 127
1, 154062, Note_on_c, 1, 61, 127
1, 154062, Note_on_c, 1, 65, 127
1, 154480, Note_off_c, 1, 77, 0
1, 154480, Note_off_c, 1, 61, 0
1, 154480, Note_off_c, 1, 65, 0
1, 154481, Note_on_c, 1, 60, 127
1, 154481, Note_on_c, 1, 66, 127
1, 154481, Note_on_c, 1, 75, 127
1, 154898, Note_off_c, 1, 70, 0
1, 154899, Note_off_c, 1, 60, 0
1, 154900, Note_on_c, 1, 69, 127
1, 154900, Note_on_c, 1, 58, 127
1, 155106, Note_off_c, 1, 69, 0
1, 155314, Note_off_c, 1, 58, 0
1, 155315, Note_off_c, 1, 66, 0
1, 155316, Note_on_c, 1, 72, 127
1, 155316, Note_on_c, 1, 57, 127
1, 155733, Note_off_c, 1, 75, 0
1, 155734, Note_off_c, 1, 72, 0
1, 155734, Note_off_c, 1, 57, 0
1, 155734, Note_on_c, 1, 53, 127
1, 156148, Note_off_c, 1, 53, 0
1, 156150, Note_on_c, 1, 77, 127
1, 156150, Note_on_c, 1, 70, 127
1, 156150, Note_on_c, 1, 61, 127
1, 156150, Note_on_c, 1, 55, 127
1, 156568, Note_off_c, 1, 77, 0
1, 156568, Note_off_c, 1, 70, 0
1, 156568, Note_off_c, 1, 61, 0
1, 156568, Note_off_c, 1, 55, 0
1, 156569, Note_on_c, 1, 75, 127
1, 156569, Note_on_c, 1, 57, 127
1, 156569, Note_on_c, 1, 60, 127
1, 156569, Note_on_c, 1, 72, 127
1, 156987, Note_off_c, 1, 75, 0
1, 156987, Note_off_c, 1, 57, 0
1, 156987, Note_off_c, 1, 60, 0
1, 156988, Note_on_c, 1, 61, 127
1, 156988, Note_on_c, 1, 58, 127
1, 156988, Note_on_c, 1, 46, 127
1, 156988, Note_on_c, 1, 73, 127
1, 157406, Note_off_c, 1, 72, 0
1, 157406, Note_off_c, 1, 61, 0
1, 157406, Note_off_c, 1, 58, 0
1, 157407, Note_on_c, 1, 70, 127
1, 157407, Note_on_c, 1, 63, 127
1, 157407, Note_on_c, 1, 48, 127
1, 157613, Note_off_c, 1, 70, 0
1, 157614, Note_on_c, 1, 69, 127
1, 157818, Note_off_c, 1, 63, 0
1, 157820, Note_off_c, 1, 69, 0
1, 157821, Note_off_c, 1, 48, 0
1, 157822, Note_off_c, 1, 46, 0
1, 157822, Note_on_c, 1, 65, 127
1, 157822, Note_on_c, 1, 49, 127
1, 157822, Note_on_c, 1, 41, 127
1, 158240, Note_off_c, 1, 65, 0
1, 158240, Note_off_c, 1, 49, 0
1, 158241, Note_on_c, 1, 66, 127
1, 158241, Note_on_c, 1, 51, 127
1, 158652, Note_off_c, 1, 73, 0
1, 158659, Note_off_c, 1, 66, 0
1, 158659, Note_off_c, 1, 51, 0
1, 158660, Note_on_c, 1, 53, 127
1, 158965, Note_off_c, 1, 41, 0
1, 159074, Note_off_c, 1, 53, 0
1, 159076, Note_on_c, 1, 54, 127
1, 159494, Note_off_c, 1, 54, 0
1, 159494, Note_on_c, 1, 56, 127
1, 159494, Note_on_c, 1, 68, 127
1, 160331, Note_off_c, 1, 56, 0
1, 160332, Note_on_c, 1, 50, 127
1, 160750, Note_off_c, 1, 50, 0
1, 160751, Note_on_c, 1, 62, 127
1, 161169, Note_off_c, 1, 62, 0
1, 162003, Note_off_c, 1, 68, 0
1, 164099, Note_on_c, 1, 44, 127
1, 164517, Note_off_c, 1, 44, 0
1, 166194, Note_on_c, 1, 53, 127
1, 166194, Note_on_c, 1, 70, 127
1, 166194, Note_on_c, 1, 73, 127
1, 166194, Note_on_c, 1, 46, 127
1, 166194, Note_on_c, 1, 65, 127
1, 166612, Note_off_c, 1, 53, 0
1, 166613, Note_on_c, 1, 54, 127
1, 167031, Note_off_c, 1, 70, 0
1, 167031, Note_off_c, 1, 73, 0
1, 167031, Note_off_c, 1, 46, 0
1, 167031, Note_off_c, 1, 54, 0
1, 167031, Note_on_c, 1, 56, 127
1, 167031, Note_on_c, 1, 72, 127
1, 167031, Note_on_c, 1, 68, 127
1, 167449, Note_off_c, 1, 56, 0
1, 167451, Note_on_c, 1, 58, 127
1, 167657, Note_off_c, 1, 58, 0
1, 167658, Note_on_c, 1, 60, 127
1, 167864, Note_off_c, 1, 60, 0
1, 167865, Note_off_c, 1, 72, 0
1, 167865, Note_off_c, 1, 68, 0
1, 167865, Note_on_c, 1, 49, 127
1, 167865, Note_on_c, 1, 77, 127
1, 168699, Note_off_c, 1, 65, 0
1, 168702, Note_off_c, 1, 49, 0
1, 168703, Note_on_c, 1, 51, 127
1, 169121, Note_off_c, 1, 51, 0
1, 169533, Note_off_c, 1, 77, 0
1, 169540, Note_on_c, 1, 75, 127
1, 169540, Note_on_c, 1, 66, 127
1, 169958, Note_off_c, 1, 75, 0
1, 169958, Note_off_c, 1, 66, 0
1, 170168, Note_on_c, 1, 61, 127
1, 170374, Note_off_c, 1, 61, 0
1, 170375, Note_on_c, 1, 63, 127
1, 171215, Note_off_c, 1, 63, 0
1, 172893, Note_on_c, 1, 44, 127
1, 173730, Note_off_c, 1, 44, 0
1, 175406, Note_on_c, 1, 68, 127
1, 175406, Note_on_c, 1, 65, 127
1, 175824, Note_on_c, 1, 83, 127
1, 176242, Note_off_c, 1, 83, 0
1, 176243, Note_off_c, 1, 68, 0
1, 176243, Note_on_c, 1, 82, 127
1, 176243, Note_on_c, 1, 62, 127
1, 176661, Note_off_c, 1, 82, 0
1, 176663, Note_on_c, 1, 80, 127
1, 177080, Note_off_c, 1, 65, 0
1, 177080, Note_off_c, 1, 62, 0
1, 177081, Note_off_c, 1, 80, 0
1, 177081, Note_on_c, 1, 78, 127
1, 177081, Note_on_c, 1, 63, 127
1, 177081, Note_on_c, 1, 70, 127
1, 177499, Note_off_c, 1, 78, 0
1, 177500, Note_on_c, 1, 77, 127
1, 177918, Note_off_c, 1, 63, 0
1, 177918, Note_off_c, 1, 70, 0
1, 177918, Note_off_c, 1, 77, 0
1, 177920, Note_on_c, 1, 78, 127
1, 177920, Note_on_c, 1, 63, 127
1, 178338, Note_off_c, 1, 78, 0
1, 178339, Note_on_c, 1, 80, 127
1, 178339, Note_on_c, 1, 65, 127
1, 178757, Note_off_c, 1, 63, 0
1, 178757, Note_off_c, 1, 80, 0
1, 178757, Note_off_c, 1, 65, 0
1, 178757, Note_on_c, 1, 82, 127
1, 178757, Note_on_c, 1, 66, 127
1, 179175, Note_off_c, 1, 82, 0
1, 179175, Note_off_c, 1, 66, 0
1, 179177, Note_on_c, 1, 81, 127
1, 179177, Note_on_c, 1, 78, 127
1, 179177, Note_on_c, 1, 63, 127
1, 179383, Note_off_c, 1, 81, 0
1, 179384, Note_on_c, 1, 82, 127
1, 179588, Note_off_c, 1, 78, 0
1, 179588, Note_off_c, 1, 63, 0
1, 179590, Note_off_c, 1, 82, 0
1, 179591, Note_on_c, 1, 69, 127
1, 179591, Note_on_c, 1, 77, 127
1, 179591, Note_on_c, 1, 84, 127
1, 180009, Note_off_c, 1, 69, 0
1, 180009, Note_off_c, 1, 77, 0
1, 180011, Note_on_c, 1, 67, 127
1, 180011, Note_on_c, 1, 75, 127
1, 180217, Note_off_c, 1, 67, 0
1, 180219, Note_on_c, 1, 65, 127
1, 180422, Note_off_c, 1, 75, 0
1, 180425, Note_off_c, 1, 65, 0
1, 180425, Note_on_c, 1, 70, 127
1, 180425, Note_on_c, 1, 73, 127
1, 180425, Note_on_c, 1, 58, 127
1, 180843, Note_off_c, 1, 84, 0
1, 180843, Note_off_c, 1, 70, 0
1, 180845, Note_on_c, 1, 82, 127
1, 181262, Note_off_c, 1, 73, 0
1, 181262, Note_off_c, 1, 58, 0
1, 181264, Note_on_c, 1, 72, 127
1, 181264, Note_on_c, 1, 53, 127
1, 181682, Note_off_c, 1, 82, 0
1, 181682, Note_on_c, 1, 81, 127
1, 182100, Note_off_c, 1, 81, 0
1, 182101, Note_off_c, 1, 72, 0
1, 182102, Note_on_c, 1, 74, 127
1, 182407, Note_off_c, 1, 53, 0
1, 182520, Note_on_c, 1, 66, 127
1, 182938, Note_off_c, 1, 66, 0
1, 182939, Note_off_c, 1, 74, 0
1, 183358, Note_on_c, 1, 63, 127
1, 183776, Note_off_c, 1, 63, 0
1, 183778, Note_on_c, 1, 62, 127
1, 184196, Note_off_c, 1, 62, 0
1, 184615, Note_on_c, 1, 60, 127
1, 184615, Note_on_c, 1, 80, 127
1, 185033, Note_off_c, 1, 60, 0
1, 185452, Note_off_c, 1, 80, 0
1, 185453, Note_on_c, 1, 51, 127
1, 185453, Note_on_c, 1, 78, 127
1, 186287, Note_off_c, 1, 51, 0
1, 186287, Note_on_c, 1, 54, 127
1, 186287, Note_on_c, 1, 46, 127
1, 186705, Note_off_c, 1, 54, 0
1, 186706, Note_on_c, 1, 56, 127
1, 187117, Note_off_c, 1, 78, 0
1, 187124, Note_off_c, 1, 56, 0
1, 187430, Note_off_c, 1, 46, 0
1, 187540, Note_on_c, 1, 59, 127
1, 187958, Note_off_c, 1, 59, 0
1, 187960, Note_on_c, 1, 76, 127
1, 187960, Note_on_c, 1, 61, 127
1, 188797, Note_off_c, 1, 76, 0
1, 188797, Note_off_c, 1, 61, 0
1, 188797, Note_on_c, 1, 55, 127
1, 189215, Note_off_c, 1, 55, 0
1, 190469, Note_on_c, 1, 68, 127
1, 190469, Note_on_c, 1, 71, 127
1, 190887, Note_off_c, 1, 68, 0
1, 191306, Note_off_c, 1, 71, 0
1, 191308, Note_on_c, 1, 52, 127
1, 191308, Note_on_c, 1, 56, 127
1, 191308, Note_on_c, 1, 71, 127
1, 191308, Note_on_c, 1, 76, 127
1, 191308, Note_on_c, 1, 80, 127
1, 191726, Note_off_c, 1, 52, 0
1, 191726, Note_off_c, 1, 56, 0
1, 191726, Note_on_c, 1, 54, 127
1, 191726, Note_on_c, 1, 51, 127
1, 192144, Note_off_c, 1, 54, 0
1, 192144, Note_off_c, 1, 51, 0
1, 192145, Note_off_c, 1, 71, 0
1, 192145, Note_on_c, 1, 49, 127
1, 192145, Note_on_c, 1, 70, 127
1, 192355, Note_off_c, 1, 76, 0
1, 192563, Note_off_c, 1, 49, 0
1, 192563, Note_on_c, 1, 46, 127
1, 192563, Note_on_c, 1, 75, 127
1, 192976, Note_off_c, 1, 80, 0
1, 192981, Note_off_c, 1, 46, 0
1, 192983, Note_on_c, 1, 79, 127
1, 193188, Note_off_c, 1, 75, 0
1, 193398, Note_on_c, 1, 39, 127
1, 193606, Note_on_c, 1, 73, 127
1, 193809, Note_off_c, 1, 70, 0
1, 193815, Note_off_c, 1, 73, 0
1, 193816, Note_off_c, 1, 39, 0
1, 193817, Note_off_c, 1, 79, 0
1, 193818, Note_on_c, 1, 72, 127
1, 193818, Note_on_c, 1, 68, 127
1, 193818, Note_on_c, 1, 44, 127
1, 194658, Note_off_c, 1, 72, 0
1, 194658, Note_off_c, 1, 68, 0
1, 194658, Note_off_c, 1, 44, 0
1, 194659, Note_on_c, 1, 54, 127
1, 194659, Note_on_c, 1, 46, 127
1, 194659, Note_on_c, 1, 61, 127
1, 195077, Note_off_c, 1, 54, 0
1, 195077, Note_off_c, 1, 46, 0
1, 195077, Note_on_c, 1, 53, 127
1, 195077, Note_on_c, 1, 44, 127
1, 195495, Note_off_c, 1, 53, 0
1, 195495, Note_off_c, 1, 44, 0
1, 195497, Note_on_c, 1, 51, 127
1, 195497, Note_on_c, 1, 42, 127
1, 195802, Note_off_c, 1, 61, 0
1, 195911, Note_off_c, 1, 51, 0
1, 195911, Note_on_c, 1, 77, 127
1, 195911, Note_on_c, 1, 49, 127
1, 196329, Note_off_c, 1, 77, 0
1, 196329, Note_off_c, 1, 49, 0
1, 196331, Note_off_c, 1, 42, 0
1, 196331, Note_on_c, 1, 75, 127
1, 196331, Note_on_c, 1, 58, 127
1, 196749, Note_off_c, 1, 75, 0
1, 196750, Note_on_c, 1, 73, 127
1, 197168, Note_off_c, 1, 58, 0
1, 197168, Note_off_c, 1, 73, 0
1, 197168, Note_on_c, 1, 72, 127
1, 197168, Note_on_c, 1, 56, 127
1, 197586, Note_off_c, 1, 72, 0
1, 197586, Note_off_c, 1, 56, 0
1, 197588, Note_on_c, 1, 66, 127
1, 197588, Note_on_c, 1, 68, 127
1, 197588, Note_on_c, 1, 53, 127
1, 198006, Note_off_c, 1, 66, 0
1, 198006, Note_off_c, 1, 68, 0
1, 198006, Note_off_c, 1, 53, 0
1, 198006, Note_on_c, 1, 70, 127
1, 198006, Note_on_c, 1, 65, 127
1, 198006, Note_on_c, 1, 54, 127
1, 198424, Note_off_c, 1, 70, 0
1, 198424, Note_off_c, 1, 65, 0
1, 198424, Note_off_c, 1, 54, 0
1, 198425, Note_on_c, 1, 72, 127
1, 198425, Note_on_c, 1, 63, 127
1, 198425, Note_on_c, 1, 56, 127
1, 198843, Note_off_c, 1, 72, 0
1, 198843, Note_off_c, 1, 63, 0
1, 198843, Note_off_c, 1, 56, 0
1, 198843, Note_on_c, 1, 61, 127
1, 198843, Note_on_c, 1, 58, 127
1, 198843, Note_on_c, 1, 73, 127
1, 199261, Note_off_c, 1, 61, 0
1, 199263, Note_on_c, 1, 66, 127
1, 199680, Note_off_c, 1, 58, 0
1, 199681, Note_on_c, 1, 54, 127
1, 200100, Note_off_c, 1, 66, 0
1, 200100, Note_on_c, 1, 65, 127
1, 200518, Note_off_c, 1, 54, 0
1, 200518, Note_off_c, 1, 65, 0
1, 201352, Note_off_c, 1, 73, 0
1, 202196, Note_on_c, 1, 73, 127
1, 202196, Note_on_c, 1, 56, 127
1, 202196, Note_on_c, 1, 53, 127
1, 202614, Note_off_c, 1, 73, 0
1, 202614, Note_on_c, 1, 71, 127
1, 202820, Note_off_c, 1, 71, 0
1, 202822, Note_on_c, 1, 70, 127
1, 203028, Note_off_c, 1, 70, 0
1, 203030, Note_off_c, 1, 56, 0
1, 203030, Note_on_c, 1, 68, 127
1, 203448, Note_off_c, 1, 53, 0
1, 203448, Note_off_c, 1, 68, 0
1, 203448, Note_on_c, 1, 66, 127
1, 203448, Note_on_c, 1, 51, 127
1, 203654, Note_off_c, 1, 66, 0
1, 203654, Note_off_c, 1, 51, 0
1, 203657, Note_on_c, 1, 65, 127
1, 203657, Note_on_c, 1, 49, 127
1, 203863, Note_off_c, 1, 65, 0
1, 203863, Note_off_c, 1, 49, 0
1, 204282, Note_on_c, 1, 61, 127
1, 204699, Note_on_c, 1, 54, 127
1, 205116, Note_off_c, 1, 61, 0
1, 205117, Note_on_c, 1, 72, 127
1, 205117, Note_on_c, 1, 63, 127
1, 205535, Note_off_c, 1, 72, 0
1, 205535, Note_off_c, 1, 63, 0
1, 205954, Note_off_c, 1, 54, 0
1, 206790, Note_on_c, 1, 72, 127
1, 206790, Note_on_c, 1, 55, 127
1, 206790, Note_on_c, 1, 63, 127
1, 206996, Note_off_c, 1, 72, 0
1, 206997, Note_on_c, 1, 70, 127
1, 207203, Note_off_c, 1, 70, 0
1, 207204, Note_off_c, 1, 55, 0
1, 207205, Note_on_c, 1, 56, 127
1, 207624, Note_off_c, 1, 63, 0
1, 207624, Note_on_c, 1, 65, 127
1, 207624, Note_on_c, 1, 74, 127
1, 208042, Note_off_c, 1, 65, 0
1, 208042, Note_off_c, 1, 74, 0
1, 208042, Note_on_c, 1, 75, 127
1, 208042, Note_on_c, 1, 58, 127
1, 208460, Note_off_c, 1, 56, 0
1, 208674, Note_on_c, 1, 53, 127
1, 208880, Note_off_c, 1, 53, 0
1, 209297, Note_off_c, 1, 75, 0
1, 209297, Note_off_c, 1, 58, 0
1, 209300, Note_on_c, 1, 73, 127
1, 209300, Note_on_c, 1, 57, 127
1, 209300, Note_on_c, 1, 65, 127
1, 209506, Note_off_c, 1, 73, 0
1, 209508, Note_on_c, 1, 72, 127
1, 209714, Note_off_c, 1, 57, 0
1, 209714, Note_off_c, 1, 72, 0
1, 209715, Note_on_c, 1, 58, 127
1, 209921, Note_off_c, 1, 58, 0
1, 209922, Note_on_c, 1, 75, 127
1, 209922, Note_on_c, 1, 60, 127
1, 210128, Note_off_c, 1, 75, 0
1, 210128, Note_off_c, 1, 60, 0
1, 210130, Note_off_c, 1, 65, 0
1, 210131, Note_on_c, 1, 73, 127
1, 210131, Note_on_c, 1, 58, 127
1, 210337, Note_off_c, 1, 73, 0
1, 210339, Note_on_c, 1, 75, 127
1, 210339, Note_on_c, 1, 60, 127
1, 210542, Note_off_c, 1, 58, 0
1, 210545, Note_off_c, 1, 75, 0
1, 210545, Note_off_c, 1, 60, 0
1, 210546, Note_on_c, 1, 61, 127
1, 210546, Note_on_c, 1, 77, 127
1, 210752, Note_off_c, 1, 61, 0
1, 210754, Note_on_c, 1, 60, 127
1, 210960, Note_off_c, 1, 60, 0
1, 210961, Note_on_c, 1, 58, 127
1, 210961, Note_on_c, 1, 73, 127
1, 211167, Note_off_c, 1, 58, 0
1, 211169, Note_on_c, 1, 56, 127
1, 211375, Note_off_c, 1, 73, 0
1, 211375, Note_off_c, 1, 56, 0
1, 211376, Note_off_c, 1, 77, 0
1, 211378, Note_on_c, 1, 54, 127
1, 211378, Note_on_c, 1, 72, 127
1, 211378, Note_on_c, 1, 75, 127
1, 211584, Note_off_c, 1, 54, 0
1, 211584, Note_on_c, 1, 53, 127
1, 211790, Note_off_c, 1, 53, 0
1, 211792, Note_off_c, 1, 72, 0
1, 211792, Note_on_c, 1, 70, 127
1, 212000, Note_on_c, 1, 51, 127
1, 212206, Note_off_c, 1, 70, 0
1, 212206, Note_off_c, 1, 51, 0
1, 212208, Note_on_c, 1, 69, 127
1, 212414, Note_off_c, 1, 69, 0
1, 213034, Note_off_c, 1, 75, 0
1, 213040, Note_on_c, 1, 65, 127
1, 213040, Note_on_c, 1, 73, 127
1, 213040, Note_on_c, 1, 46, 127
1, 213458, Note_off_c, 1, 65, 0
1, 213458, Note_off_c, 1, 73, 0
1, 213458, Note_on_c, 1, 68, 127
1, 213458, Note_on_c, 1, 72, 127
1, 213876, Note_off_c, 1, 68, 0
1, 213876, Note_off_c, 1, 72, 0
1, 213877, Note_on_c, 1, 70, 127
1, 213877, Note_on_c, 1, 66, 127
1, 214083, Note_off_c, 1, 70, 0
1, 214128, Note_off_c, 1, 46, 0
1, 214288, Note_off_c, 1, 66, 0
1, 214293, Note_on_c, 1, 73, 127
1, 214293, Note_on_c, 1, 65, 127
1, 214293, Note_on_c, 1, 61, 127
1, 214499, Note_off_c, 1, 73, 0
1, 214500, Note_on_c, 1, 70, 127
1, 214706, Note_off_c, 1, 70, 0
1, 214707, Note_off_c, 1, 65, 0
1, 214707, Note_off_c, 1, 61, 0
1, 214708, Note_on_c, 1, 68, 127
1, 214708, Note_on_c, 1, 60, 127
1, 214708, Note_on_c, 1, 63, 127
1, 214808, Note_off_c, 1, 68, 0
1, 214811, Note_on_c, 1, 66, 127
1, 214911, Note_off_c, 1, 66, 0
1, 215115, Note_off_c, 1, 60, 0
1, 215117, Note_on_c, 1, 58, 127
1, 215524, Note_off_c, 1, 58, 0
1, 215525, Note_on_c, 1, 57, 127
1, 215525, Note_on_c, 1, 77, 127
1, 215525, Note_on_c, 1, 65, 127
1, 215943, Note_off_c, 1, 63, 0
1, 215943, Note_off_c, 1, 57, 0
1, 215944, Note_on_c, 1, 62, 127
1, 215944, Note_on_c, 1, 56, 127
1, 216150, Note_off_c, 1, 62, 0
1, 216359, Note_off_c, 1, 77, 0
1, 216359, Note_off_c, 1, 65, 0
1, 216360, Note_on_c, 1, 70, 127
1, 216778, Note_off_c, 1, 56, 0
1, 216779, Note_on_c, 1, 54, 127
1, 216985, Note_off_c, 1, 54, 0
1, 216986, Note_on_c, 1, 53, 127
1, 217192, Note_off_c, 1, 53, 0
1, 217500, Note_off_c, 1, 70, 0
1, 217609, Note_on_c, 1, 83, 127
1, 218027, Note_off_c, 1, 83, 0
1, 218029, Note_on_c, 1, 82, 127
1, 218447, Note_off_c, 1, 82, 0
1, 218447, Note_on_c, 1, 80, 127
1, 218865, Note_off_c, 1, 80, 0
1, 218866, Note_on_c, 1, 75, 127
1, 218866, Note_on_c, 1, 78, 127
1, 218866, Note_on_c, 1, 51, 127
1, 219284, Note_off_c, 1, 75, 0
1, 219285, Note_on_c, 1, 73, 127
1, 219703, Note_off_c, 1, 78, 0
1, 219703, Note_off_c, 1, 51, 0
1, 219703, Note_off_c, 1, 73, 0
1, 219704, Note_on_c, 1, 76, 127
1, 219704, Note_on_c, 1, 68, 127
1, 219704, Note_on_c, 1, 71, 127
1, 219704, Note_on_c, 1, 44, 127
1, 220122, Note_off_c, 1, 76, 0
1, 220122, Note_off_c, 1, 68, 0
1, 220122, Note_on_c, 1, 66, 127
1, 220122, Note_on_c, 1, 75, 127
1, 220540, Note_off_c, 1, 66, 0
1, 220540, Note_off_c, 1, 75, 0
1, 220541, Note_off_c, 1, 71, 0
1, 220542, Note_on_c, 1, 65, 127
1, 220542, Note_on_c, 1, 74, 127
1, 220542, Note_on_c, 1, 53, 127
1, 220542, Note_on_c, 1, 70, 127
1, 220959, Note_off_c, 1, 44, 0
1, 220963, Note_on_c, 1, 42, 127
1, 221381, Note_off_c, 1, 42, 0
1, 221382, Note_off_c, 1, 65, 0
1, 221382, Note_off_c, 1, 74, 0
1, 221382, Note_off_c, 1, 53, 0
1, 221383, Note_on_c, 1, 41, 127
1, 221383, Note_on_c, 1, 46, 127
1, 221801, Note_off_c, 1, 41, 0
1, 221801, Note_on_c, 1, 39, 127
1, 222219, Note_off_c, 1, 39, 0
1, 222640, Note_on_c, 1, 59, 127
1, 223058, Note_off_c, 1, 59, 0
1, 223059, Note_on_c, 1, 58, 127
1, 223477, Note_off_c, 1, 58, 0
1, 223478, Note_on_c, 1, 56, 127
1, 223888, Note_off_c, 1, 70, 0
1, 223888, Note_off_c, 1, 46, 0
1, 223896, Note_off_c, 1, 56, 0
1, 223897, Note_on_c, 1, 54, 127
1, 223897, Note_on_c, 1, 75, 127
1, 223897, Note_on_c, 1, 70, 127
1, 223897, Note_on_c, 1, 63, 127
1, 223897, Note_on_c, 1, 51, 127
1, 224315, Note_off_c, 1, 54, 0
1, 224316, Note_on_c, 1, 53, 127
1, 224734, Note_off_c, 1, 75, 0
1, 224734, Note_off_c, 1, 70, 0
1, 224734, Note_off_c, 1, 53, 0
1, 224734, Note_on_c, 1, 58, 127
1, 225152, Note_off_c, 1, 51, 0
1, 225154, Note_on_c, 1, 56, 127
1, 225571, Note_off_c, 1, 58, 0
1, 225572, Note_off_c, 1, 56, 0
1, 225877, Note_off_c, 1, 63, 0
1, 225988, Note_on_c, 1, 60, 127
1, 225988, Note_on_c, 1, 73, 127
1, 225988, Note_on_c, 1, 77, 127
1, 226194, Note_off_c, 1, 60, 0
1, 226196, Note_on_c, 1, 61, 127
1, 226402, Note_off_c, 1, 73, 0
1, 226402, Note_off_c, 1, 77, 0
1, 226402, Note_off_c, 1, 61, 0
1, 226402, Note_on_c, 1, 72, 127
1, 226820, Note_off_c, 1, 72, 0
1, 227241, Note_on_c, 1, 69, 127
1, 227659, Note_off_c, 1, 69, 0
1, 227660, Note_on_c, 1, 70, 127
1, 227660, Note_on_c, 1, 67, 127
1, 227660, Note_on_c, 1, 61, 127
1, 227660, Note_on_c, 1, 53, 127
1, 228078, Note_off_c, 1, 70, 0
1, 228078, Note_off_c, 1, 67, 0
1, 228078, Note_off_c, 1, 61, 0
1, 228078, Note_off_c, 1, 53, 0
1, 228080, Note_on_c, 1, 69, 127
1, 228080, Note_on_c, 1, 72, 127
1, 228080, Note_on_c, 1, 60, 127
1, 228080, Note_on_c, 1, 51, 127
1, 228498, Note_off_c, 1, 69, 0
1, 228498, Note_off_c, 1, 72, 0
1, 228498, Note_off_c, 1, 60, 0
1, 228498, Note_off_c, 1, 51, 0
1, 228498, Note_on_c, 1, 73, 127
1, 228498, Note_on_c, 1, 70, 127
1, 228498, Note_on_c, 1, 58, 127
1, 228498, Note_on_c, 1, 49, 127
1, 228916, Note_off_c, 1, 73, 0
1, 228916, Note_off_c, 1, 70, 0
1, 228916, Note_off_c, 1, 58, 0
1, 228916, Note_off_c, 1, 49, 0
1, 228917, Note_on_c, 1, 75, 127
1, 228917, Note_on_c, 1, 72, 127
1, 228917, Note_on_c, 1, 48, 127
1, 228917, Note_on_c, 1, 57, 127
1, 229335, Note_off_c, 1, 72, 0
1, 229335, Note_on_c, 1, 78, 127
1, 229753, Note_off_c, 1, 75, 0
1, 229753, Note_off_c, 1, 78, 0
1, 229754, Note_off_c, 1, 48, 0
1, 229754, Note_off_c, 1, 57, 0
1, 229755, Note_on_c, 1, 77, 127
1, 229755, Note_on_c, 1, 73, 127
1, 229755, Note_on_c, 1, 53, 127
1, 229755, Note_on_c, 1, 56, 127
1, 230173, Note_off_c, 1, 77, 0
1, 230173, Note_off_c, 1, 73, 0
1, 230173, Note_on_c, 1, 71, 127
1, 230173, Note_on_c, 1, 75, 127
1, 230591, Note_off_c, 1, 71, 0
1, 230591, Note_off_c, 1, 75, 0
1, 230592, Note_off_c, 1, 53, 0
1, 230592, Note_on_c, 1, 74, 127
1, 230592, Note_on_c, 1, 70, 127
1, 230592, Note_on_c, 1, 46, 127
1, 231010, Note_off_c, 1, 74, 0
1, 231010, Note_off_c, 1, 70, 0
1, 231423, Note_off_c, 1, 56, 0
1, 231429, Note_off_c, 1, 46, 0
1, 231430, Note_on_c, 1, 75, 127
1, 231430, Note_on_c, 1, 72, 127
1, 231430, Note_on_c, 1, 51, 127
1, 231430, Note_on_c, 1, 54, 127
1, 231848, Note_off_c, 1, 75, 0
1, 231848, Note_off_c, 1, 72, 0
1, 231848, Note_on_c, 1, 70, 127
1, 231848, Note_on_c, 1, 73, 127
1, 232266, Note_off_c, 1, 70, 0
1, 232266, Note_off_c, 1, 73, 0
1, 232268, Note_on_c, 1, 69, 127
1, 232685, Note_off_c, 1, 51, 0
1, 232685, Note_off_c, 1, 54, 0
1, 232687, Note_on_c, 1, 49, 127
1, 232687, Note_on_c, 1, 53, 127
1, 233105, Note_off_c, 1, 69, 0
1, 233105, Note_off_c, 1, 49, 0
1, 233105, Note_off_c, 1, 53, 0
1, 233105, Note_on_c, 1, 48, 127
1, 233523, Note_off_c, 1, 48, 0
1, 233525, Note_on_c, 1, 46, 127
1, 233943, Note_off_c, 1, 46, 0
1, 233943, Note_on_c, 1, 63, 127
1, 233943, Note_on_c, 1, 58, 127
1, 234783, Note_off_c, 1, 63, 0
1, 234784, Note_on_c, 1, 64, 127
1, 234784, Note_on_c, 1, 55, 127
1, 235202, Note_off_c, 1, 58, 0
1, 235203, Note_on_c, 1, 60, 127
1, 235621, Note_off_c, 1, 64, 0
1, 235621, Note_off_c, 1, 55, 0
1, 235621, Note_off_c, 1, 60, 0
1, 235622, Note_on_c, 1, 69, 127
1, 235622, Note_on_c, 1, 65, 127
1, 235622, Note_on_c, 1, 61, 127
1, 235622, Note_on_c, 1, 53, 127
1, 236040, Note_off_c, 1, 69, 0
1, 236040, Note_off_c, 1, 65, 0
1, 236040, Note_off_c, 1, 61, 0
1, 236041, Note_on_c, 1, 78, 127
1, 236041, Note_on_c, 1, 60, 127
1, 236459, Note_off_c, 1, 78, 0
1, 236459, Note_off_c, 1, 60, 0
1, 236460, Note_on_c, 1, 77, 127
1, 236460, Note_on_c, 1, 70, 127
1, 236878, Note_off_c, 1, 77, 0
1, 236878, Note_off_c, 1, 70, 0
1, 236880, Note_on_c, 1, 63, 127
1, 236880, Note_on_c, 1, 75, 127
1, 236880, Note_on_c, 1, 72, 127
1, 237294, Note_off_c, 1, 63, 0
1, 237298, Note_off_c, 1, 75, 0
1, 237298, Note_on_c, 1, 73, 127
1, 237717, Note_off_c, 1, 72, 0
1, 238135, Note_off_c, 1, 73, 0
1, 238137, Note_on_c, 1, 41, 127
1, 238965, Note_off_c, 1, 53, 0
1, 238974, Note_off_c, 1, 41, 0
1, 238974, Note_on_c, 1, 42, 127
1, 239392, Note_on_c, 1, 68, 127
1, 239810, Note_off_c, 1, 68, 0
1, 239812, Note_on_c, 1, 66, 127
1, 240230, Note_off_c, 1, 66, 0
1, 240649, Note_on_c, 1, 59, 127
1, 241067, Note_off_c, 1, 42, 0
1, 241068, Note_on_c, 1, 62, 127
1, 241274, Note_off_c, 1, 62, 0
1, 241483, Note_on_c, 1, 39, 127
1, 241901, Note_off_c, 1, 39, 0
1, 241902, Note_on_c, 1, 38, 127
1, 242313, Note_off_c, 1, 59, 0
1, 242320, Note_off_c, 1, 38, 0
1, 242321, Note_on_c, 1, 58, 127
1, 242739, Note_off_c, 1, 58, 0
1, 243160, Note_on_c, 1, 51, 127
1, 243997, Note_on_c, 1, 57, 127
1, 244415, Note_off_c, 1, 51, 0
1, 244417, Note_on_c, 1, 49, 127
1, 244623, Note_off_c, 1, 49, 0
1, 244623, Note_on_c, 1, 48, 127
1, 244829, Note_off_c, 1, 48, 0
1, 244831, Note_off_c, 1, 57, 0
1, 247763, Note_on_c, 1, 45, 127
1, 248181, Note_off_c, 1, 45, 0
1, 248183, Note_on_c, 1, 73, 127
1, 248183, Note_on_c, 1, 70, 127
1, 248183, Note_on_c, 1, 46, 127
1, 248601, Note_off_c, 1, 73, 0
1, 248601, Note_off_c, 1, 70, 0
1, 248601, Note_on_c, 1, 66, 127
1, 248601, Note_on_c, 1, 69, 127
1, 248601, Note_on_c, 1, 72, 127
1, 249019, Note_off_c, 1, 66, 0
1, 249019, Note_off_c, 1, 69, 0
1, 249019, Note_off_c, 1, 72, 0
1, 249020, Note_off_c, 1, 46, 0
1, 249020, Note_on_c, 1, 41, 127
1, 249020, Note_on_c, 1, 65, 127
1, 249423, Note_off_c, 1, 41, 0
1, 249438, Note_off_c, 1, 65, 0
1, 249440, Note_on_c, 1, 75, 127
1, 249440, Note_on_c, 1, 69, 127
1, 249440, Note_on_c, 1, 63, 127
1, 249440, Note_on_c, 1, 60, 127
1, 249858, Note_off_c, 1, 75, 0
1, 249858, Note_off_c, 1, 69, 0
1, 249858, Note_off_c, 1, 63, 0
1, 249858, Note_off_c, 1, 60, 0
1, 249859, Note_on_c, 1, 77, 127
1, 249859, Note_on_c, 1, 70, 127
1, 249859, Note_on_c, 1, 61, 127
1, 249859, Note_on_c, 1, 58, 127
1, 250277, Note_off_c, 1, 77, 0
1, 250277, Note_off_c, 1, 70, 0
1, 250277, Note_off_c, 1, 61, 0
1, 250277, Note_off_c, 1, 58, 0
1, 250277, Note_on_c, 1, 72, 127
1, 250277, Note_on_c, 1, 75, 127
1, 250277, Note_on_c, 1, 57, 127
1, 250277, Note_on_c, 1, 60, 127
1, 250277, Note_on_c, 1, 54, 127
1, 250695, Note_off_c, 1, 72, 0
1, 250695, Note_off_c, 1, 75, 0
1, 250695, Note_off_c, 1, 57, 0
1, 250695, Note_off_c, 1, 60, 0
1, 250695, Note_off_c, 1, 54, 0
1, 250697, Note_on_c, 1, 61, 127
1, 250697, Note_on_c, 1, 73, 127
1, 250697, Note_on_c, 1, 70, 127
1, 250697, Note_on_c, 1, 58, 127
1, 250697, Note_on_c, 1, 53, 127
1, 250903, Note_off_c, 1, 61, 0
1, 250908, Note_on_c, 1, 63, 127
1, 251111, Note_off_c, 1, 73, 0
1, 251111, Note_off_c, 1, 70, 0
1, 251114, Note_off_c, 1, 63, 0
1, 251115, Note_off_c, 1, 58, 0
1, 251115, Note_off_c, 1, 53, 0
1, 251115, Note_on_c, 1, 69, 127
1, 251115, Note_on_c, 1, 72, 127
1, 251115, Note_on_c, 1, 51, 127
1, 251115, Note_on_c, 1, 60, 127
1, 251115, Note_on_c, 1, 65, 127
1, 251533, Note_off_c, 1, 69, 0
1, 251533, Note_off_c, 1, 72, 0
1, 251533, Note_off_c, 1, 51, 0
1, 251533, Note_off_c, 1, 60, 0
1, 251534, Note_on_c, 1, 49, 127
1, 251952, Note_off_c, 1, 65, 0
1, 251952, Note_off_c, 1, 49, 0
1, 251952, Note_on_c, 1, 66, 127
1, 251952, Note_on_c, 1, 48, 127
1, 252370, Note_off_c, 1, 66, 0
1, 252370, Note_off_c, 1, 48, 0
1, 252372, Note_on_c, 1, 68, 127
1, 252372, Note_on_c, 1, 50, 127
1, 252790, Note_off_c, 1, 68, 0
1, 252790, Note_off_c, 1, 50, 0
1, 253418, Note_on_c, 1, 54, 127
1, 253624, Note_off_c, 1, 54, 0
1, 253625, Note_on_c, 1, 52, 127
1, 253831, Note_off_c, 1, 52, 0
1, 254043, Note_on_c, 1, 67, 127
1, 254043, Note_on_c, 1, 40, 127
1, 255815, Note_off_c, 1, 67, 0
1, 255822, Note_off_c, 1, 40, 0
1, 255823, Note_on_c, 1, 41, 127
1, 257698, Note_off_c, 1, 41, 0
1, 257773, Note_on_c, 1, 62, 127
1, 257773, Note_on_c, 1, 46, 127
1, 261120, Note_off_c, 1, 62, 0
1, 261120, Note_off_c, 1, 46, 0
1, 261120, End_track
0, 0, End_of_file