0, 0, Header, 1, 1, 480
1, 0, Start_track
1, 0, Title_t, "Test"
1, 0, Tempo, 500000
1, 0, Instrument_name_t, "Church Organ"
1, 0, Note_on_c, 1, 76, 127
1, 48, Note_off_c, 1, 76, 0
1, 60, Note_on_c, 1, 76, 127
1, 60, Note_on_c, 1, 72, 127
1, 60, Note_on_c, 1, 57, 127
1, 120, Note_on_c, 1, 64, 127
1, 168, Note_off_c, 1, 64, 0
1, 180, Note_on_c, 1, 69, 127
1, 204, Note_off_c, 1, 76, 0
1, 228, Note_off_c, 1, 69, 0
1, 240, Note_on_c, 1, 67, 127
1, 288, Note_off_c, 1, 67, 0
1, 300, Note_on_c, 1, 81, 127
1, 300, Note_on_c, 1, 65, 127
1, 348, Note_off_c, 1, 81, 0
1, 360, Note_on_c, 1, 80, 127
1, 396, Note_off_c, 1, 65, 0
1, 408, Note_off_c, 1, 80, 0
1, 444, Note_off_c, 1, 72, 0
1, 480, Note_on_c, 1, 83, 127
1, 528, Note_off_c, 1, 83, 0
1, 540, Note_on_c, 1, 74, 127
1, 540, Note_on_c, 1, 71, 127
1, 588, Note_off_c, 1, 74, 0
1, 600, Note_on_c, 1, 77, 127
1, 636, Note_off_c, 1, 71, 0
1, 648, Note_off_c, 1, 77, 0
1, 660, Note_on_c, 1, 62, 127
1, 756, Note_off_c, 1, 62, 0
1, 780, Note_on_c, 1, 59, 127
1, 780, Note_on_c, 1, 68, 127
1, 876, Note_off_c, 1, 59, 0
1, 996, Note_off_c, 1, 68, 0
1, 1164, Note_off_c, 1, 57, 0
1, 1200, Note_on_c, 1, 71, 127
1, 1200, Note_on_c, 1, 64, 127
1, 1248, Note_off_c, 1, 71, 0
1, 1248, Note_off_c, 1, 64, 0
1, 1260, Note_on_c, 1, 69, 127
1, 1308, Note_off_c, 1, 69, 0
1, 1320, Note_on_c, 1, 68, 127
1, 1368, Note_off_c, 1, 68, 0
1, 1380, Note_on_c, 1, 69, 127
1, 1380, Note_on_c, 1, 81, 127
1, 1428, Note_off_c, 1, 69, 0
1, 1440, Note_on_c, 1, 71, 127
1, 1488, Note_off_c, 1, 71, 0
1, 1500, Note_on_c, 1, 62, 127
1, 1548, Note_off_c, 1, 81, 0
1, 1548, Note_off_c, 1, 62, 0
1, 1560, Note_on_c, 1, 65, 127
1, 1608, Note_off_c, 1, 65, 0
1, 1620, Note_on_c, 1, 64, 127
1, 1620, Note_on_c, 1, 80, 127
1, 1668, Note_off_c, 1, 64, 0
1, 1668, Note_off_c, 1, 80, 0
1, 1740, Note_on_c, 1, 83, 127
1, 1740, Note_on_c, 1, 56, 127
1, 1932, Note_off_c, 1, 56, 0
1, 1980, Note_on_c, 1, 60, 127
1, 2028, Note_off_c, 1, 60, 0
1, 2040, Note_on_c, 1, 59, 127
1, 2076, Note_off_c, 1, 83, 0
1, 2088, Note_off_c, 1, 59, 0
1, 2100, Note_on_c, 1, 76, 127
1, 2100, Note_on_c, 1, 57, 127
1, 2148, Note_off_c, 1, 57, 0
1, 2196, Note_off_c, 1, 76, 0
1, 2220, Note_on_c, 1, 61, 127
1, 2268, Note_off_c, 1, 61, 0
1, 2400, Note_on_c, 1, 79, 127
1, 2400, Note_on_c, 1, 61, 127
1, 2448, Note_off_c, 1, 79, 0
1, 2448, Note_off_c, 1, 61, 0
1, 2460, Note_on_c, 1, 77, 127
1, 2460, Note_on_c, 1, 62, 127
1, 2508, Note_off_c, 1, 77, 0
1, 2520, Note_on_c, 1, 76, 127
1, 2556, Note_off_c, 1, 62, 0
1, 2568, Note_off_c, 1, 76, 0
1, 2580, Note_on_c, 1, 74, 127
1, 2580, Note_on_c, 1, 57, 127
1, 2628, Note_off_c, 1, 74, 0
1, 2640, Note_on_c, 1, 76, 127
1, 2676, Note_off_c, 1, 57, 0
1, 2688, Note_off_c, 1, 76, 0
1, 2700, Note_on_c, 1, 77, 127
1, 2700, Note_on_c, 1, 62, 127
1, 2748, Note_off_c, 1, 77, 0
1, 2760, Note_on_c, 1, 79, 127
1, 2808, Note_off_c, 1, 79, 0
1, 2820, Note_on_c, 1, 81, 127
1, 2844, Note_off_c, 1, 62, 0
1, 2868, Note_off_c, 1, 81, 0
1, 2880, Note_on_c, 1, 77, 127
1, 2880, Note_on_c, 1, 60, 127
1, 2928, Note_off_c, 1, 77, 0
1, 2928, Note_off_c, 1, 60, 0
1, 2940, Note_on_c, 1, 79, 127
1, 2940, Note_on_c, 1, 59, 127
1, 2988, Note_off_c, 1, 59, 0
1, 3000, Note_on_c, 1, 57, 127
1, 3036, Note_off_c, 1, 79, 0
1, 3048, Note_off_c, 1, 57, 0
1, 3060, Note_on_c, 1, 74, 127
1, 3060, Note_on_c, 1, 55, 127
1, 3108, Note_off_c, 1, 55, 0
1, 3120, Note_on_c, 1, 57, 127
1, 3156, Note_off_c, 1, 74, 0
1, 3168, Note_off_c, 1, 57, 0
1, 3180, Note_on_c, 1, 79, 127
1, 3180, Note_on_c, 1, 59, 127
1, 3228, Note_off_c, 1, 59, 0
1, 3240, Note_on_c, 1, 60, 127
1, 3288, Note_off_c, 1, 60, 0
1, 3300, Note_on_c, 1, 62, 127
1, 3324, Note_off_c, 1, 79, 0
1, 3348, Note_off_c, 1, 62, 0
1, 3360, Note_on_c, 1, 77, 127
1, 3360, Note_on_c, 1, 59, 127
1, 3408, Note_off_c, 1, 77, 0
1, 3408, Note_off_c, 1, 59, 0
1, 3420, Note_on_c, 1, 76, 127
1, 3420, Note_on_c, 1, 60, 127
1, 3480, Note_on_c, 1, 74, 127
1, 3528, Note_off_c, 1, 74, 0
1, 3540, Note_on_c, 1, 72, 127
1, 3588, Note_off_c, 1, 72, 0
1, 3600, Note_on_c, 1, 71, 127
1, 3648, Note_off_c, 1, 71, 0
1, 3660, Note_on_c, 1, 69, 127
1, 3708, Note_off_c, 1, 69, 0
1, 3870, Note_off_c, 1, 76, 0
1, 3900, Note_on_c, 1, 66, 127
1, 3948, Note_off_c, 1, 60, 0
1, 3960, Note_on_c, 1, 64, 127
1, 4008, Note_off_c, 1, 64, 0
1, 4020, Note_on_c, 1, 62, 127
1, 4044, Note_off_c, 1, 66, 0
1, 4068, Note_off_c, 1, 62, 0
1, 4140, Note_on_c, 1, 68, 127
1, 4140, Note_on_c, 1, 59, 127
1, 4188, Note_off_c, 1, 68, 0
1, 4188, Note_off_c, 1, 59, 0
1, 4380, Note_on_c, 1, 56, 127
1, 4428, Note_off_c, 1, 56, 0
1, 4440, Note_on_c, 1, 57, 127
1, 4488, Note_off_c, 1, 57, 0
1, 4620, Note_on_c, 1, 50, 127
1, 4668, Note_off_c, 1, 50, 0
1, 4680, Note_on_c, 1, 53, 127
1, 4728, Note_off_c, 1, 53, 0
1, 4740, Note_on_c, 1, 52, 127
1, 4788, Note_off_c, 1, 52, 0
1, 4860, Note_on_c, 1, 48, 127
1, 4920, Note_on_c, 1, 77, 127
1, 4968, Note_off_c, 1, 77, 0
1, 5148, Note_off_c, 1, 48, 0
1, 5220, Note_on_c, 1, 47, 127
1, 5268, Note_off_c, 1, 47, 0
1, 5280, Note_on_c, 1, 45, 127
1, 5328, Note_off_c, 1, 45, 0
1, 5340, Note_on_c, 1, 71, 127
1, 5340, Note_on_c, 1, 52, 127
1, 5388, Note_off_c, 1, 71, 0
1, 5400, Note_on_c, 1, 67, 127
1, 5484, Note_off_c, 1, 52, 0
1, 5520, Note_on_c, 1, 76, 127
1, 5520, Note_on_c, 1, 59, 127
1, 5544, Note_off_c, 1, 67, 0
1, 5568, Note_off_c, 1, 59, 0
1, 5580, Note_on_c, 1, 79, 127
1, 5580, Note_on_c, 1, 64, 127
1, 5628, Note_off_c, 1, 64, 0
1, 5640, Note_on_c, 1, 63, 127
1, 5688, Note_off_c, 1, 63, 0
1, 5724, Note_off_c, 1, 76, 0
1, 5724, Note_off_c, 1, 79, 0
1, 5760, Note_on_c, 1, 76, 127
1, 5760, Note_on_c, 1, 79, 127
1, 5760, Note_on_c, 1, 71, 127
1, 5760, Note_on_c, 1, 66, 127
1, 5808, Note_off_c, 1, 76, 0
1, 5808, Note_off_c, 1, 79, 0
1, 5808, Note_off_c, 1, 66, 0
1, 5820, Note_on_c, 1, 72, 127
1, 5820, Note_on_c, 1, 57, 127
1, 5868, Note_off_c, 1, 57, 0
1, 5880, Note_on_c, 1, 60, 127
1, 5928, Note_off_c, 1, 60, 0
1, 5940, Note_on_c, 1, 59, 127
1, 5988, Note_off_c, 1, 59, 0
1, 6000, Note_on_c, 1, 81, 127
1, 6012, Note_off_c, 1, 71, 0
1, 6048, Note_off_c, 1, 81, 0
1, 6060, Note_on_c, 1, 78, 127
1, 6060, Note_on_c, 1, 69, 127
1, 6060, Note_on_c, 1, 51, 127
1, 6108, Note_off_c, 1, 51, 0
1, 6204, Note_off_c, 1, 78, 0
1, 6252, Note_off_c, 1, 72, 0
1, 6300, Note_on_c, 1, 55, 127
1, 6492, Note_off_c, 1, 69, 0
1, 6540, Note_on_c, 1, 67, 127
1, 6588, Note_off_c, 1, 55, 0
1, 6588, Note_off_c, 1, 67, 0
1, 6600, Note_on_c, 1, 75, 127
1, 6600, Note_on_c, 1, 55, 127
1, 6648, Note_off_c, 1, 75, 0
1, 6648, Note_off_c, 1, 55, 0
1, 6660, Note_on_c, 1, 76, 127
1, 6660, Note_on_c, 1, 54, 127
1, 6708, Note_off_c, 1, 76, 0
1, 6708, Note_off_c, 1, 54, 0
1, 6720, Note_on_c, 1, 78, 127
1, 6720, Note_on_c, 1, 52, 127
1, 6768, Note_off_c, 1, 78, 0
1, 6768, Note_off_c, 1, 52, 0
1, 6780, Note_on_c, 1, 69, 127
1, 6780, Note_on_c, 1, 54, 127
1, 6828, Note_off_c, 1, 69, 0
1, 6828, Note_off_c, 1, 54, 0
1, 6840, Note_on_c, 1, 72, 127
1, 6840, Note_on_c, 1, 54, 127
1, 6888, Note_off_c, 1, 72, 0
1, 6888, Note_off_c, 1, 54, 0
1, 6900, Note_on_c, 1, 71, 127
1, 6900, Note_on_c, 1, 55, 127
1, 6948, Note_off_c, 1, 71, 0
1, 6948, Note_off_c, 1, 55, 0
1, 6960, Note_on_c, 1, 72, 127
1, 6960, Note_on_c, 1, 57, 127
1, 7008, Note_off_c, 1, 72, 0
1, 7008, Note_off_c, 1, 57, 0
1, 7020, Note_on_c, 1, 63, 127
1, 7020, Note_on_c, 1, 59, 127
1, 7068, Note_off_c, 1, 63, 0
1, 7080, Note_on_c, 1, 72, 127
1, 7116, Note_off_c, 1, 59, 0
1, 7128, Note_off_c, 1, 72, 0
1, 7140, Note_on_c, 1, 71, 127
1, 7140, Note_on_c, 1, 47, 127
1, 7188, Note_off_c, 1, 71, 0
1, 7200, Note_on_c, 1, 69, 127
1, 7236, Note_off_c, 1, 47, 0
1, 7248, Note_off_c, 1, 69, 0
1, 7260, Note_on_c, 1, 67, 127
1, 7260, Note_on_c, 1, 52, 127
1, 7284, Note_off_c, 1, 52, 0
1, 7290, Note_on_c, 1, 51, 127
1, 7308, Note_off_c, 1, 67, 0
1, 7314, Note_off_c, 1, 51, 0
1, 7320, Note_on_c, 1, 66, 127
1, 7320, Note_on_c, 1, 52, 127
1, 7368, Note_off_c, 1, 66, 0
1, 7380, Note_on_c, 1, 64, 127
1, 7428, Note_off_c, 1, 64, 0
1, 7500, Note_on_c, 1, 67, 127
1, 7548, Note_off_c, 1, 52, 0
1, 7548, Note_off_c, 1, 67, 0
1, 7560, Note_on_c, 1, 69, 127
1, 7560, Note_on_c, 1, 50, 127
1, 7608, Note_off_c, 1, 69, 0
1, 7608, Note_off_c, 1, 50, 0
1, 7620, Note_on_c, 1, 71, 127
1, 7620, Note_on_c, 1, 48, 127
1, 7668, Note_off_c, 1, 71, 0
1, 7668, Note_off_c, 1, 48, 0
1, 7680, Note_on_c, 1, 67, 127
1, 7680, Note_on_c, 1, 47, 127
1, 7728, Note_off_c, 1, 67, 0
1, 7728, Note_off_c, 1, 47, 0
1, 7740, Note_on_c, 1, 72, 127
1, 7740, Note_on_c, 1, 45, 127
1, 7764, Note_off_c, 1, 72, 0
1, 7770, Note_on_c, 1, 71, 127
1, 7788, Note_off_c, 1, 45, 0
1, 7794, Note_off_c, 1, 71, 0
1, 7800, Note_on_c, 1, 72, 127
1, 7800, Note_on_c, 1, 43, 127
1, 7848, Note_off_c, 1, 43, 0
1, 7860, Note_on_c, 1, 45, 127
1, 7908, Note_off_c, 1, 45, 0
1, 7913, Note_off_c, 1, 72, 0
1, 7920, Note_on_c, 1, 71, 127
1, 7920, Note_on_c, 1, 47, 127
1, 7968, Note_off_c, 1, 71, 0
1, 7968, Note_off_c, 1, 47, 0
1, 7980, Note_on_c, 1, 69, 127
1, 7980, Note_on_c, 1, 48, 127
1, 8028, Note_off_c, 1, 48, 0
1, 8040, Note_on_c, 1, 47, 127
1, 8088, Note_off_c, 1, 47, 0
1, 8160, Note_on_c, 1, 45, 127
1, 8208, Note_off_c, 1, 45, 0
1, 8268, Note_off_c, 1, 69, 0
1, 8340, Note_on_c, 1, 67, 127
1, 8340, Note_on_c, 1, 54, 127
1, 8388, Note_off_c, 1, 67, 0
1, 8400, Note_on_c, 1, 66, 127
1, 8436, Note_off_c, 1, 54, 0
1, 8448, Note_off_c, 1, 66, 0
1, 8460, Note_on_c, 1, 59, 127
1, 8520, Note_on_c, 1, 64, 127
1, 8556, Note_off_c, 1, 59, 0
1, 8568, Note_off_c, 1, 64, 0
1, 8580, Note_on_c, 1, 55, 127
1, 8676, Note_off_c, 1, 55, 0
1, 8700, Note_on_c, 1, 61, 127
1, 8700, Note_on_c, 1, 52, 127
1, 8748, Note_off_c, 1, 61, 0
1, 8796, Note_off_c, 1, 52, 0
1, 8820, Note_on_c, 1, 62, 127
1, 8868, Note_off_c, 1, 62, 0
1, 8940, Note_on_c, 1, 58, 127
1, 8940, Note_on_c, 1, 49, 127
1, 8988, Note_off_c, 1, 58, 0
1, 9036, Note_off_c, 1, 49, 0
1, 9180, Note_on_c, 1, 63, 127
1, 9180, Note_on_c, 1, 59, 127
1, 9228, Note_off_c, 1, 63, 0
1, 9240, Note_on_c, 1, 60, 127
1, 9288, Note_off_c, 1, 60, 0
1, 9360, Note_on_c, 1, 57, 127
1, 9408, Note_off_c, 1, 57, 0
1, 9413, Note_off_c, 1, 59, 0
1, 9420, Note_on_c, 1, 71, 127
1, 9420, Note_on_c, 1, 55, 127
1, 9444, Note_off_c, 1, 71, 0
1, 9450, Note_on_c, 1, 69, 127
1, 9468, Note_off_c, 1, 55, 0
1, 9474, Note_off_c, 1, 69, 0
1, 9480, Note_on_c, 1, 71, 127
1, 9480, Note_on_c, 1, 52, 127
1, 9528, Note_off_c, 1, 52, 0
1, 9540, Note_on_c, 1, 54, 127
1, 9576, Note_off_c, 1, 71, 0
1, 9588, Note_off_c, 1, 54, 0
1, 9600, Note_on_c, 1, 71, 127
1, 9600, Note_on_c, 1, 55, 127
1, 9648, Note_off_c, 1, 71, 0
1, 9648, Note_off_c, 1, 55, 0
1, 9660, Note_on_c, 1, 76, 127
1, 9660, Note_on_c, 1, 48, 127
1, 9689, Note_off_c, 1, 48, 0
1, 9690, Note_on_c, 1, 47, 127
1, 9708, Note_off_c, 1, 76, 0
1, 9714, Note_off_c, 1, 47, 0
1, 9720, Note_on_c, 1, 72, 127
1, 9720, Note_on_c, 1, 48, 127
1, 9768, Note_off_c, 1, 72, 0
1, 9780, Note_on_c, 1, 71, 127
1, 9816, Note_off_c, 1, 48, 0
1, 9828, Note_off_c, 1, 71, 0
1, 9840, Note_on_c, 1, 69, 127
1, 9840, Note_on_c, 1, 47, 127
1, 9888, Note_off_c, 1, 69, 0
1, 9888, Note_off_c, 1, 47, 0
1, 9900, Note_on_c, 1, 78, 127
1, 9900, Note_on_c, 1, 48, 127
1, 9924, Note_off_c, 1, 78, 0
1, 9930, Note_on_c, 1, 76, 127
1, 9948, Note_off_c, 1, 48, 0
1, 9954, Note_off_c, 1, 76, 0
1, 9960, Note_on_c, 1, 78, 127
1, 9960, Note_on_c, 1, 45, 127
1, 10008, Note_off_c, 1, 45, 0
1, 10020, Note_on_c, 1, 47, 127
1, 10056, Note_off_c, 1, 78, 0
1, 10068, Note_off_c, 1, 47, 0
1, 10080, Note_on_c, 1, 78, 127
1, 10080, Note_on_c, 1, 48, 127
1, 10128, Note_off_c, 1, 78, 0
1, 10128, Note_off_c, 1, 48, 0
1, 10140, Note_on_c, 1, 78, 127
1, 10140, Note_on_c, 1, 39, 127
1, 10188, Note_off_c, 1, 78, 0
1, 10200, Note_on_c, 1, 79, 127
1, 10224, Note_off_c, 1, 79, 0
1, 10230, Note_on_c, 1, 81, 127
1, 10236, Note_off_c, 1, 39, 0
1, 10254, Note_off_c, 1, 81, 0
1, 10260, Note_on_c, 1, 79, 127
1, 10260, Note_on_c, 1, 40, 127
1, 10308, Note_off_c, 1, 79, 0
1, 10320, Note_on_c, 1, 78, 127
1, 10356, Note_off_c, 1, 40, 0
1, 10368, Note_off_c, 1, 78, 0
1, 10380, Note_on_c, 1, 78, 127
1, 10380, Note_on_c, 1, 75, 127
1, 10380, Note_on_c, 1, 47, 127
1, 10404, Note_off_c, 1, 78, 0
1, 10410, Note_on_c, 1, 79, 127
1, 10434, Note_off_c, 1, 79, 0
1, 10560, Note_on_c, 1, 76, 127
1, 10572, Note_off_c, 1, 75, 0
1, 10572, Note_off_c, 1, 47, 0
1, 10608, Note_off_c, 1, 76, 0
1, 10620, Note_on_c, 1, 76, 127
1, 10620, Note_on_c, 1, 52, 127
1, 10680, Note_on_c, 1, 74, 127
1, 10728, Note_off_c, 1, 74, 0
1, 10740, Note_on_c, 1, 72, 127
1, 10788, Note_off_c, 1, 72, 0
1, 10800, Note_on_c, 1, 71, 127
1, 10800, Note_on_c, 1, 56, 127
1, 10848, Note_off_c, 1, 71, 0
1, 10848, Note_off_c, 1, 56, 0
1, 10860, Note_on_c, 1, 57, 127
1, 10908, Note_off_c, 1, 57, 0
1, 10920, Note_on_c, 1, 68, 127
1, 10920, Note_on_c, 1, 59, 127
1, 10968, Note_off_c, 1, 68, 0
1, 10968, Note_off_c, 1, 59, 0
1, 10980, Note_on_c, 1, 69, 127
1, 10980, Note_on_c, 1, 60, 127
1, 11004, Note_off_c, 1, 52, 0
1, 11028, Note_off_c, 1, 60, 0
1, 11040, Note_on_c, 1, 63, 127
1, 11076, Note_off_c, 1, 69, 0
1, 11088, Note_off_c, 1, 63, 0
1, 11100, Note_on_c, 1, 64, 127
1, 11160, Note_on_c, 1, 40, 127
1, 11220, Note_on_c, 1, 44, 127
1, 11268, Note_off_c, 1, 44, 0
1, 11280, Note_on_c, 1, 47, 127
1, 11292, Note_off_c, 1, 76, 0
1, 11328, Note_off_c, 1, 47, 0
1, 11388, Note_off_c, 1, 64, 0
1, 11520, Note_off_c, 1, 40, 0
1, 11580, Note_on_c, 1, 76, 127
1, 11628, Note_off_c, 1, 76, 0
1, 11640, Note_on_c, 1, 76, 127
1, 11640, Note_on_c, 1, 72, 127
1, 11640, Note_on_c, 1, 57, 127
1, 11700, Note_on_c, 1, 64, 127
1, 11748, Note_off_c, 1, 64, 0
1, 11760, Note_on_c, 1, 69, 127
1, 11784, Note_off_c, 1, 76, 0
1, 11808, Note_off_c, 1, 69, 0
1, 11820, Note_on_c, 1, 67, 127
1, 11868, Note_off_c, 1, 67, 0
1, 11880, Note_on_c, 1, 81, 127
1, 11880, Note_on_c, 1, 65, 127
1, 11928, Note_off_c, 1, 81, 0
1, 11940, Note_on_c, 1, 80, 127
1, 11976, Note_off_c, 1, 65, 0
1, 11988, Note_off_c, 1, 80, 0
1, 12024, Note_off_c, 1, 72, 0
1, 12060, Note_on_c, 1, 83, 127
1, 12108, Note_off_c, 1, 83, 0
1, 12120, Note_on_c, 1, 74, 127
1, 12120, Note_on_c, 1, 71, 127
1, 12168, Note_off_c, 1, 74, 0
1, 12180, Note_on_c, 1, 77, 127
1, 12216, Note_off_c, 1, 71, 0
1, 12228, Note_off_c, 1, 77, 0
1, 12240, Note_on_c, 1, 62, 127
1, 12336, Note_off_c, 1, 62, 0
1, 12360, Note_on_c, 1, 59, 127
1, 12360, Note_on_c, 1, 68, 127
1, 12456, Note_off_c, 1, 59, 0
1, 12576, Note_off_c, 1, 68, 0
1, 12744, Note_off_c, 1, 57, 0
1, 12780, Note_on_c, 1, 71, 127
1, 12780, Note_on_c, 1, 64, 127
1, 12828, Note_off_c, 1, 71, 0
1, 12828, Note_off_c, 1, 64, 0
1, 12840, Note_on_c, 1, 69, 127
1, 12888, Note_off_c, 1, 69, 0
1, 12900, Note_on_c, 1, 68, 127
1, 12948, Note_off_c, 1, 68, 0
1, 12960, Note_on_c, 1, 69, 127
1, 12960, Note_on_c, 1, 81, 127
1, 13008, Note_off_c, 1, 69, 0
1, 13020, Note_on_c, 1, 71, 127
1, 13068, Note_off_c, 1, 71, 0
1, 13080, Note_on_c, 1, 62, 127
1, 13128, Note_off_c, 1, 81, 0
1, 13128, Note_off_c, 1, 62, 0
1, 13140, Note_on_c, 1, 65, 127
1, 13188, Note_off_c, 1, 65, 0
1, 13200, Note_on_c, 1, 64, 127
1, 13200, Note_on_c, 1, 80, 127
1, 13248, Note_off_c, 1, 64, 0
1, 13248, Note_off_c, 1, 80, 0
1, 13320, Note_on_c, 1, 83, 127
1, 13320, Note_on_c, 1, 56, 127
1, 13512, Note_off_c, 1, 56, 0
1, 13560, Note_on_c, 1, 60, 127
1, 13608, Note_off_c, 1, 60, 0
1, 13620, Note_on_c, 1, 59, 127
1, 13656, Note_off_c, 1, 83, 0
1, 13668, Note_off_c, 1, 59, 0
1, 13680, Note_on_c, 1, 76, 127
1, 13680, Note_on_c, 1, 57, 127
1, 13728, Note_off_c, 1, 57, 0
1, 13776, Note_off_c, 1, 76, 0
1, 13800, Note_on_c, 1, 61, 127
1, 13848, Note_off_c, 1, 61, 0
1, 13980, Note_on_c, 1, 79, 127
1, 13980, Note_on_c, 1, 61, 127
1, 14028, Note_off_c, 1, 79, 0
1, 14028, Note_off_c, 1, 61, 0
1, 14040, Note_on_c, 1, 77, 127
1, 14040, Note_on_c, 1, 62, 127
1, 14088, Note_off_c, 1, 77, 0
1, 14100, Note_on_c, 1, 76, 127
1, 14136, Note_off_c, 1, 62, 0
1, 14148, Note_off_c, 1, 76, 0
1, 14160, Note_on_c, 1, 74, 127
1, 14160, Note_on_c, 1, 57, 127
1, 14208, Note_off_c, 1, 74, 0
1, 14220, Note_on_c, 1, 76, 127
1, 14256, Note_off_c, 1, 57, 0
1, 14268, Note_off_c, 1, 76, 0
1, 14280, Note_on_c, 1, 77, 127
1, 14280, Note_on_c, 1, 62, 127
1, 14328, Note_off_c, 1, 77, 0
1, 14340, Note_on_c, 1, 79, 127
1, 14388, Note_off_c, 1, 79, 0
1, 14400, Note_on_c, 1, 81, 127
1, 14424, Note_off_c, 1, 62, 0
1, 14448, Note_off_c, 1, 81, 0
1, 14460, Note_on_c, 1, 77, 127
1, 14460, Note_on_c, 1, 60, 127
1, 14508, Note_off_c, 1, 77, 0
1, 14508, Note_off_c, 1, 60, 0
1, 14520, Note_on_c, 1, 79, 127
1, 14520, Note_on_c, 1, 59, 127
1, 14568, Note_off_c, 1, 59, 0
1, 14580, Note_on_c, 1, 57, 127
1, 14616, Note_off_c, 1, 79, 0
1, 14628, Note_off_c, 1, 57, 0
1, 14640, Note_on_c, 1, 74, 127
1, 14640, Note_on_c, 1, 55, 127
1, 14688, Note_off_c, 1, 55, 0
1, 14700, Note_on_c, 1, 57, 127
1, 14736, Note_off_c, 1, 74, 0
1, 14748, Note_off_c, 1, 57, 0
1, 14760, Note_on_c, 1, 79, 127
1, 14760, Note_on_c, 1, 59, 127
1, 14808, Note_off_c, 1, 59, 0
1, 14820, Note_on_c, 1, 60, 127
1, 14868, Note_off_c, 1, 60, 0
1, 14880, Note_on_c, 1, 62, 127
1, 14904, Note_off_c, 1, 79, 0
1, 14928, Note_off_c, 1, 62, 0
1, 14940, Note_on_c, 1, 77, 127
1, 14940, Note_on_c, 1, 59, 127
1, 14988, Note_off_c, 1, 77, 0
1, 14988, Note_off_c, 1, 59, 0
1, 15000, Note_on_c, 1, 76, 127
1, 15000, Note_on_c, 1, 60, 127
1, 15060, Note_on_c, 1, 74, 127
1, 15108, Note_off_c, 1, 74, 0
1, 15120, Note_on_c, 1, 72, 127
1, 15168, Note_off_c, 1, 72, 0
1, 15180, Note_on_c, 1, 71, 127
1, 15228, Note_off_c, 1, 71, 0
1, 15240, Note_on_c, 1, 69, 127
1, 15288, Note_off_c, 1, 69, 0
1, 15450, Note_off_c, 1, 76, 0
1, 15480, Note_on_c, 1, 66, 127
1, 15528, Note_off_c, 1, 60, 0
1, 15540, Note_on_c, 1, 64, 127
1, 15588, Note_off_c, 1, 64, 0
1, 15600, Note_on_c, 1, 62, 127
1, 15624, Note_off_c, 1, 66, 0
1, 15648, Note_off_c, 1, 62, 0
1, 15720, Note_on_c, 1, 68, 127
1, 15720, Note_on_c, 1, 59, 127
1, 15768, Note_off_c, 1, 68, 0
1, 15768, Note_off_c, 1, 59, 0
1, 15960, Note_on_c, 1, 56, 127
1, 16008, Note_off_c, 1, 56, 0
1, 16020, Note_on_c, 1, 57, 127
1, 16068, Note_off_c, 1, 57, 0
1, 16200, Note_on_c, 1, 50, 127
1, 16248, Note_off_c, 1, 50, 0
1, 16260, Note_on_c, 1, 53, 127
1, 16308, Note_off_c, 1, 53, 0
1, 16320, Note_on_c, 1, 52, 127
1, 16368, Note_off_c, 1, 52, 0
1, 16440, Note_on_c, 1, 48, 127
1, 16500, Note_on_c, 1, 77, 127
1, 16548, Note_off_c, 1, 77, 0
1, 16728, Note_off_c, 1, 48, 0
1, 16800, Note_on_c, 1, 47, 127
1, 16848, Note_off_c, 1, 47, 0
1, 16860, Note_on_c, 1, 45, 127
1, 16908, Note_off_c, 1, 45, 0
1, 16920, Note_on_c, 1, 71, 127
1, 16920, Note_on_c, 1, 52, 127
1, 16968, Note_off_c, 1, 71, 0
1, 16980, Note_on_c, 1, 67, 127
1, 17064, Note_off_c, 1, 52, 0
1, 17100, Note_on_c, 1, 76, 127
1, 17100, Note_on_c, 1, 59, 127
1, 17124, Note_off_c, 1, 67, 0
1, 17148, Note_off_c, 1, 59, 0
1, 17160, Note_on_c, 1, 79, 127
1, 17160, Note_on_c, 1, 64, 127
1, 17208, Note_off_c, 1, 64, 0
1, 17220, Note_on_c, 1, 63, 127
1, 17268, Note_off_c, 1, 63, 0
1, 17304, Note_off_c, 1, 76, 0
1, 17304, Note_off_c, 1, 79, 0
1, 17340, Note_on_c, 1, 76, 127
1, 17340, Note_on_c, 1, 79, 127
1, 17340, Note_on_c, 1, 71, 127
1, 17340, Note_on_c, 1, 66, 127
1, 17388, Note_off_c, 1, 76, 0
1, 17388, Note_off_c, 1, 79, 0
1, 17388, Note_off_c, 1, 66, 0
1, 17400, Note_on_c, 1, 72, 127
1, 17400, Note_on_c, 1, 57, 127
1, 17448, Note_off_c, 1, 57, 0
1, 17460, Note_on_c, 1, 60, 127
1, 17508, Note_off_c, 1, 60, 0
1, 17520, Note_on_c, 1, 59, 127
1, 17568, Note_off_c, 1, 59, 0
1, 17580, Note_on_c, 1, 81, 127
1, 17592, Note_off_c, 1, 71, 0
1, 17628, Note_off_c, 1, 81, 0
1, 17640, Note_on_c, 1, 78, 127
1, 17640, Note_on_c, 1, 69, 127
1, 17640, Note_on_c, 1, 51, 127
1, 17688, Note_off_c, 1, 51, 0
1, 17784, Note_off_c, 1, 78, 0
1, 17832, Note_off_c, 1, 72, 0
1, 17880, Note_on_c, 1, 55, 127
1, 18072, Note_off_c, 1, 69, 0
1, 18120, Note_on_c, 1, 67, 127
1, 18168, Note_off_c, 1, 55, 0
1, 18168, Note_off_c, 1, 67, 0
1, 18180, Note_on_c, 1, 75, 127
1, 18180, Note_on_c, 1, 55, 127
1, 18228, Note_off_c, 1, 75, 0
1, 18228, Note_off_c, 1, 55, 0
1, 18240, Note_on_c, 1, 76, 127
1, 18240, Note_on_c, 1, 54, 127
1, 18288, Note_off_c, 1, 76, 0
1, 18288, Note_off_c, 1, 54, 0
1, 18300, Note_on_c, 1, 78, 127
1, 18300, Note_on_c, 1, 52, 127
1, 18348, Note_off_c, 1, 78, 0
1, 18348, Note_off_c, 1, 52, 0
1, 18360, Note_on_c, 1, 69, 127
1, 18360, Note_on_c, 1, 54, 127
1, 18408, Note_off_c, 1, 69, 0
1, 18408, Note_off_c, 1, 54, 0
1, 18420, Note_on_c, 1, 72, 127
1, 18420, Note_on_c, 1, 54, 127
1, 18468, Note_off_c, 1, 72, 0
1, 18468, Note_off_c, 1, 54, 0
1, 18480, Note_on_c, 1, 71, 127
1, 18480, Note_on_c, 1, 55, 127
1, 18528, Note_off_c, 1, 71, 0
1, 18528, Note_off_c, 1, 55, 0
1, 18540, Note_on_c, 1, 72, 127
1, 18540, Note_on_c, 1, 57, 127
1, 18588, Note_off_c, 1, 72, 0
1, 18588, Note_off_c, 1, 57, 0
1, 18600, Note_on_c, 1, 63, 127
1, 18600, Note_on_c, 1, 59, 127
1, 18648, Note_off_c, 1, 63, 0
1, 18660, Note_on_c, 1, 72, 127
1, 18696, Note_off_c, 1, 59, 0
1, 18708, Note_off_c, 1, 72, 0
1, 18720, Note_on_c, 1, 71, 127
1, 18720, Note_on_c, 1, 47, 127
1, 18768, Note_off_c, 1, 71, 0
1, 18780, Note_on_c, 1, 69, 127
1, 18816, Note_off_c, 1, 47, 0
1, 18828, Note_off_c, 1, 69, 0
1, 18840, Note_on_c, 1, 67, 127
1, 18840, Note_on_c, 1, 52, 127
1, 18864, Note_off_c, 1, 52, 0
1, 18870, Note_on_c, 1, 51, 127
1, 18888, Note_off_c, 1, 67, 0
1, 18894, Note_off_c, 1, 51, 0
1, 18900, Note_on_c, 1, 66, 127
1, 18900, Note_on_c, 1, 52, 127
1, 18948, Note_off_c, 1, 66, 0
1, 18960, Note_on_c, 1, 64, 127
1, 19008, Note_off_c, 1, 64, 0
1, 19080, Note_on_c, 1, 67, 127
1, 19128, Note_off_c, 1, 52, 0
1, 19128, Note_off_c, 1, 67, 0
1, 19140, Note_on_c, 1, 69, 127
1, 19140, Note_on_c, 1, 50, 127
1, 19188, Note_off_c, 1, 69, 0
1, 19188, Note_off_c, 1, 50, 0
1, 19200, Note_on_c, 1, 71, 127
1, 19200, Note_on_c, 1, 48, 127
1, 19248, Note_off_c, 1, 71, 0
1, 19248, Note_off_c, 1, 48, 0
1, 19260, Note_on_c, 1, 67, 127
1, 19260, Note_on_c, 1, 47, 127
1, 19308, Note_off_c, 1, 67, 0
1, 19308, Note_off_c, 1, 47, 0
1, 19320, Note_on_c, 1, 72, 127
1, 19320, Note_on_c, 1, 45, 127
1, 19344, Note_off_c, 1, 72, 0
1, 19350, Note_on_c, 1, 71, 127
1, 19368, Note_off_c, 1, 45, 0
1, 19374, Note_off_c, 1, 71, 0
1, 19380, Note_on_c, 1, 72, 127
1, 19380, Note_on_c, 1, 43, 127
1, 19428, Note_off_c, 1, 43, 0
1, 19440, Note_on_c, 1, 45, 127
1, 19488, Note_off_c, 1, 45, 0
1, 19493, Note_off_c, 1, 72, 0
1, 19500, Note_on_c, 1, 71, 127
1, 19500, Note_on_c, 1, 47, 127
1, 19548, Note_off_c, 1, 71, 0
1, 19548, Note_off_c, 1, 47, 0
1, 19560, Note_on_c, 1, 69, 127
1, 19560, Note_on_c, 1, 48, 127
1, 19608, Note_off_c, 1, 48, 0
1, 19620, Note_on_c, 1, 47, 127
1, 19668, Note_off_c, 1, 47, 0
1, 19740, Note_on_c, 1, 45, 127
1, 19788, Note_off_c, 1, 45, 0
1, 19848, Note_off_c, 1, 69, 0
1, 19920, Note_on_c, 1, 67, 127
1, 19920, Note_on_c, 1, 54, 127
1, 19968, Note_off_c, 1, 67, 0
1, 19980, Note_on_c, 1, 66, 127
1, 20016, Note_off_c, 1, 54, 0
1, 20028, Note_off_c, 1, 66, 0
1, 20040, Note_on_c, 1, 59, 127
1, 20100, Note_on_c, 1, 64, 127
1, 20136, Note_off_c, 1, 59, 0
1, 20148, Note_off_c, 1, 64, 0
1, 20160, Note_on_c, 1, 55, 127
1, 20256, Note_off_c, 1, 55, 0
1, 20280, Note_on_c, 1, 61, 127
1, 20280, Note_on_c, 1, 52, 127
1, 20328, Note_off_c, 1, 61, 0
1, 20376, Note_off_c, 1, 52, 0
1, 20400, Note_on_c, 1, 62, 127
1, 20448, Note_off_c, 1, 62, 0
1, 20520, Note_on_c, 1, 58, 127
1, 20520, Note_on_c, 1, 49, 127
1, 20568, Note_off_c, 1, 58, 0
1, 20616, Note_off_c, 1, 49, 0
1, 20760, Note_on_c, 1, 63, 127
1, 20760, Note_on_c, 1, 59, 127
1, 20808, Note_off_c, 1, 63, 0
1, 20820, Note_on_c, 1, 60, 127
1, 20868, Note_off_c, 1, 60, 0
1, 20940, Note_on_c, 1, 57, 127
1, 20988, Note_off_c, 1, 57, 0
1, 20993, Note_off_c, 1, 59, 0
1, 21000, Note_on_c, 1, 71, 127
1, 21000, Note_on_c, 1, 55, 127
1, 21024, Note_off_c, 1, 71, 0
1, 21030, Note_on_c, 1, 69, 127
1, 21048, Note_off_c, 1, 55, 0
1, 21054, Note_off_c, 1, 69, 0
1, 21060, Note_on_c, 1, 71, 127
1, 21060, Note_on_c, 1, 52, 127
1, 21108, Note_off_c, 1, 52, 0
1, 21120, Note_on_c, 1, 54, 127
1, 21156, Note_off_c, 1, 71, 0
1, 21168, Note_off_c, 1, 54, 0
1, 21180, Note_on_c, 1, 71, 127
1, 21180, Note_on_c, 1, 55, 127
1, 21228, Note_off_c, 1, 71, 0
1, 21228, Note_off_c, 1, 55, 0
1, 21240, Note_on_c, 1, 76, 127
1, 21240, Note_on_c, 1, 48, 127
1, 21269, Note_off_c, 1, 48, 0
1, 21270, Note_on_c, 1, 47, 127
1, 21288, Note_off_c, 1, 76, 0
1, 21294, Note_off_c, 1, 47, 0
1, 21300, Note_on_c, 1, 72, 127
1, 21300, Note_on_c, 1, 48, 127
1, 21348, Note_off_c, 1, 72, 0
1, 21360, Note_on_c, 1, 71, 127
1, 21396, Note_off_c, 1, 48, 0
1, 21408, Note_off_c, 1, 71, 0
1, 21420, Note_on_c, 1, 69, 127
1, 21420, Note_on_c, 1, 47, 127
1, 21468, Note_off_c, 1, 69, 0
1, 21468, Note_off_c, 1, 47, 0
1, 21480, Note_on_c, 1, 78, 127
1, 21480, Note_on_c, 1, 48, 127
1, 21504, Note_off_c, 1, 78, 0
1, 21510, Note_on_c, 1, 76, 127
1, 21528, Note_off_c, 1, 48, 0
1, 21534, Note_off_c, 1, 76, 0
1, 21540, Note_on_c, 1, 78, 127
1, 21540, Note_on_c, 1, 45, 127
1, 21588, Note_off_c, 1, 45, 0
1, 21600, Note_on_c, 1, 47, 127
1, 21636, Note_off_c, 1, 78, 0
1, 21648, Note_off_c, 1, 47, 0
1, 21660, Note_on_c, 1, 78, 127
1, 21660, Note_on_c, 1, 48, 127
1, 21708, Note_off_c, 1, 78, 0
1, 21708, Note_off_c, 1, 48, 0
1, 21720, Note_on_c, 1, 78, 127
1, 21720, Note_on_c, 1, 39, 127
1, 21768, Note_off_c, 1, 78, 0
1, 21780, Note_on_c, 1, 79, 127
1, 21804, Note_off_c, 1, 79, 0
1, 21810, Note_on_c, 1, 81, 127
1, 21816, Note_off_c, 1, 39, 0
1, 21834, Note_off_c, 1, 81, 0
1, 21840, Note_on_c, 1, 79, 127
1, 21840, Note_on_c, 1, 40, 127
1, 21888, Note_off_c, 1, 79, 0
1, 21900, Note_on_c, 1, 78, 127
1, 21936, Note_off_c, 1, 40, 0
1, 21948, Note_off_c, 1, 78, 0
1, 21960, Note_on_c, 1, 78, 127
1, 21960, Note_on_c, 1, 75, 127
1, 21960, Note_on_c, 1, 47, 127
1, 21984, Note_off_c, 1, 78, 0
1, 21990, Note_on_c, 1, 79, 127
1, 22014, Note_off_c, 1, 79, 0
1, 22140, Note_on_c, 1, 76, 127
1, 22152, Note_off_c, 1, 75, 0
1, 22152, Note_off_c, 1, 47, 0
1, 22188, Note_off_c, 1, 76, 0
1, 22200, Note_on_c, 1, 76, 127
1, 22200, Note_on_c, 1, 52, 127
1, 22260, Note_on_c, 1, 74, 127
1, 22308, Note_off_c, 1, 74, 0
1, 22320, Note_on_c, 1, 72, 127
1, 22368, Note_off_c, 1, 72, 0
1, 22380, Note_on_c, 1, 71, 127
1, 22380, Note_on_c, 1, 56, 127
1, 22428, Note_off_c, 1, 71, 0
1, 22428, Note_off_c, 1, 56, 0
1, 22440, Note_on_c, 1, 57, 127
1, 22488, Note_off_c, 1, 57, 0
1, 22500, Note_on_c, 1, 68, 127
1, 22500, Note_on_c, 1, 59, 127
1, 22548, Note_off_c, 1, 68, 0
1, 22548, Note_off_c, 1, 59, 0
1, 22560, Note_on_c, 1, 69, 127
1, 22560, Note_on_c, 1, 60, 127
1, 22584, Note_off_c, 1, 52, 0
1, 22608, Note_off_c, 1, 60, 0
1, 22620, Note_on_c, 1, 63, 127
1, 22656, Note_off_c, 1, 69, 0
1, 22668, Note_off_c, 1, 63, 0
1, 22680, Note_on_c, 1, 64, 127
1, 22740, Note_on_c, 1, 40, 127
1, 22800, Note_on_c, 1, 44, 127
1, 22848, Note_off_c, 1, 44, 0
1, 22860, Note_on_c, 1, 47, 127
1, 22872, Note_off_c, 1, 76, 0
1, 22908, Note_off_c, 1, 47, 0
1, 22968, Note_off_c, 1, 64, 0
1, 23100, Note_off_c, 1, 40, 0
1, 23160, Note_on_c, 1, 71, 127
1, 23208, Note_off_c, 1, 71, 0
1, 23220, Note_on_c, 1, 68, 127
1, 23220, Note_on_c, 1, 71, 127
1, 23220, Note_on_c, 1, 64, 127
1, 23220, Note_on_c, 1, 40, 127
1, 23268, Note_off_c, 1, 40, 0
1, 23280, Note_on_c, 1, 47, 127
1, 23328, Note_off_c, 1, 47, 0
1, 23340, Note_on_c, 1, 52, 127
1, 23364, Note_off_c, 1, 68, 0
1, 23364, Note_off_c, 1, 71, 0
1, 23364, Note_off_c, 1, 64, 0
1, 23388, Note_off_c, 1, 52, 0
1, 23400, Note_on_c, 1, 71, 127
1, 23400, Note_on_c, 1, 54, 127
1, 23448, Note_off_c, 1, 71, 0
1, 23448, Note_off_c, 1, 54, 0
1, 23460, Note_on_c, 1, 62, 127
1, 23460, Note_on_c, 1, 56, 127
1, 23508, Note_off_c, 1, 62, 0
1, 23520, Note_on_c, 1, 65, 127
1, 23556, Note_off_c, 1, 56, 0
1, 23568, Note_off_c, 1, 65, 0
1, 23580, Note_on_c, 1, 64, 127
1, 23580, Note_on_c, 1, 57, 127
1, 23628, Note_off_c, 1, 64, 0
1, 23640, Note_on_c, 1, 62, 127
1, 23676, Note_off_c, 1, 57, 0
1, 23688, Note_off_c, 1, 62, 0
1, 23700, Note_on_c, 1, 68, 127
1, 23700, Note_on_c, 1, 59, 127
1, 23748, Note_off_c, 1, 68, 0
1, 23760, Note_on_c, 1, 64, 127
1, 23796, Note_off_c, 1, 59, 0
1, 23808, Note_off_c, 1, 64, 0
1, 23820, Note_on_c, 1, 65, 127
1, 23820, Note_on_c, 1, 57, 127
1, 23868, Note_off_c, 1, 65, 0
1, 23880, Note_on_c, 1, 64, 127
1, 23916, Note_off_c, 1, 57, 0
1, 23928, Note_off_c, 1, 64, 0
1, 23940, Note_on_c, 1, 71, 127
1, 23940, Note_on_c, 1, 56, 127
1, 23988, Note_off_c, 1, 71, 0
1, 24000, Note_on_c, 1, 62, 127
1, 24036, Note_off_c, 1, 56, 0
1, 24048, Note_off_c, 1, 62, 0
1, 24060, Note_on_c, 1, 64, 127
1, 24060, Note_on_c, 1, 52, 127
1, 24108, Note_off_c, 1, 64, 0
1, 24120, Note_on_c, 1, 65, 127
1, 24156, Note_off_c, 1, 52, 0
1, 24168, Note_off_c, 1, 65, 0
1, 24180, Note_on_c, 1, 61, 127
1, 24180, Note_on_c, 1, 57, 127
1, 24228, Note_off_c, 1, 61, 0
1, 24240, Note_on_c, 1, 59, 127
1, 24288, Note_off_c, 1, 59, 0
1, 24348, Note_off_c, 1, 57, 0
1, 24360, Note_on_c, 1, 59, 127
1, 24360, Note_on_c, 1, 45, 127
1, 24408, Note_off_c, 1, 59, 0
1, 24408, Note_off_c, 1, 45, 0
1, 24420, Note_on_c, 1, 61, 127
1, 24420, Note_on_c, 1, 43, 127
1, 24468, Note_off_c, 1, 61, 0
1, 24468, Note_off_c, 1, 43, 0
1, 24480, Note_on_c, 1, 62, 127
1, 24480, Note_on_c, 1, 46, 127
1, 24528, Note_off_c, 1, 62, 0
1, 24528, Note_off_c, 1, 46, 0
1, 24540, Note_on_c, 1, 64, 127
1, 24540, Note_on_c, 1, 45, 127
1, 24588, Note_off_c, 1, 64, 0
1, 24588, Note_off_c, 1, 45, 0
1, 24600, Note_on_c, 1, 65, 127
1, 24600, Note_on_c, 1, 43, 127
1, 24648, Note_off_c, 1, 65, 0
1, 24648, Note_off_c, 1, 43, 0
1, 24660, Note_on_c, 1, 67, 127
1, 24660, Note_on_c, 1, 49, 127
1, 24708, Note_off_c, 1, 67, 0
1, 24708, Note_off_c, 1, 49, 0
1, 24720, Note_on_c, 1, 65, 127
1, 24720, Note_on_c, 1, 45, 127
1, 24768, Note_off_c, 1, 65, 0
1, 24768, Note_off_c, 1, 45, 0
1, 24780, Note_on_c, 1, 64, 127
1, 24780, Note_on_c, 1, 46, 127
1, 24828, Note_off_c, 1, 64, 0
1, 24828, Note_off_c, 1, 46, 0
1, 24840, Note_on_c, 1, 65, 127
1, 24840, Note_on_c, 1, 45, 127
1, 24888, Note_off_c, 1, 65, 0
1, 24888, Note_off_c, 1, 45, 0
1, 24900, Note_on_c, 1, 67, 127
1, 24900, Note_on_c, 1, 52, 127
1, 24948, Note_off_c, 1, 67, 0
1, 24948, Note_off_c, 1, 52, 0
1, 24960, Note_on_c, 1, 70, 127
1, 24960, Note_on_c, 1, 43, 127
1, 25008, Note_off_c, 1, 70, 0
1, 25008, Note_off_c, 1, 43, 0
1, 25020, Note_on_c, 1, 69, 127
1, 25020, Note_on_c, 1, 45, 127
1, 25068, Note_off_c, 1, 69, 0
1, 25068, Note_off_c, 1, 45, 0
1, 25080, Note_on_c, 1, 67, 127
1, 25080, Note_on_c, 1, 46, 127
1, 25128, Note_off_c, 1, 67, 0
1, 25128, Note_off_c, 1, 46, 0
1, 25140, Note_on_c, 1, 72, 127
1, 25140, Note_on_c, 1, 42, 127
1, 25188, Note_off_c, 1, 42, 0
1, 25200, Note_on_c, 1, 69, 127
1, 25200, Note_on_c, 1, 50, 127
1, 25248, Note_off_c, 1, 69, 0
1, 25248, Note_off_c, 1, 50, 0
1, 25260, Note_on_c, 1, 62, 127
1, 25260, Note_on_c, 1, 52, 127
1, 25284, Note_off_c, 1, 72, 0
1, 25308, Note_off_c, 1, 52, 0
1, 25320, Note_on_c, 1, 54, 127
1, 25356, Note_off_c, 1, 62, 0
1, 25368, Note_off_c, 1, 54, 0
1, 25380, Note_on_c, 1, 71, 127
1, 25380, Note_on_c, 1, 55, 127
1, 25428, Note_off_c, 1, 71, 0
1, 25428, Note_off_c, 1, 55, 0
1, 25440, Note_on_c, 1, 72, 127
1, 25440, Note_on_c, 1, 57, 127
1, 25488, Note_off_c, 1, 72, 0
1, 25488, Note_off_c, 1, 57, 0
1, 25500, Note_on_c, 1, 72, 127
1, 25500, Note_on_c, 1, 57, 127
1, 25512, Note_off_c, 1, 72, 0
1, 25512, Note_off_c, 1, 57, 0
1, 25515, Note_on_c, 1, 74, 127
1, 25515, Note_on_c, 1, 59, 127
1, 25527, Note_off_c, 1, 74, 0
1, 25527, Note_off_c, 1, 59, 0
1, 25530, Note_on_c, 1, 72, 127
1, 25530, Note_on_c, 1, 57, 127
1, 25554, Note_off_c, 1, 72, 0
1, 25554, Note_off_c, 1, 57, 0
1, 25560, Note_on_c, 1, 71, 127
1, 25560, Note_on_c, 1, 55, 127
1, 25584, Note_off_c, 1, 71, 0
1, 25584, Note_off_c, 1, 55, 0
1, 25590, Note_on_c, 1, 72, 127
1, 25590, Note_on_c, 1, 57, 127
1, 25614, Note_off_c, 1, 72, 0
1, 25614, Note_off_c, 1, 57, 0
1, 25620, Note_on_c, 1, 74, 127
1, 25620, Note_on_c, 1, 67, 127
1, 25620, Note_on_c, 1, 59, 127
1, 25668, Note_off_c, 1, 59, 0
1, 25680, Note_on_c, 1, 60, 127
1, 25728, Note_off_c, 1, 60, 0
1, 25755, Note_on_c, 1, 62, 127
1, 25764, Note_off_c, 1, 74, 0
1, 25767, Note_off_c, 1, 62, 0
1, 25800, Note_on_c, 1, 76, 127
1, 25848, Note_off_c, 1, 76, 0
1, 25860, Note_on_c, 1, 69, 127
1, 25908, Note_off_c, 1, 69, 0
1, 25920, Note_on_c, 1, 71, 127
1, 25968, Note_off_c, 1, 71, 0
1, 25980, Note_off_c, 1, 67, 0
1, 25980, Note_on_c, 1, 72, 127
1, 25980, Note_on_c, 1, 66, 127
1, 25980, Note_on_c, 1, 50, 127
1, 26028, Note_off_c, 1, 72, 0
1, 26076, Note_off_c, 1, 50, 0
1, 26100, Note_off_c, 1, 66, 0
1, 26100, Note_on_c, 1, 43, 127
1, 26148, Note_off_c, 1, 43, 0
1, 26220, Note_on_c, 1, 55, 127
1, 26268, Note_off_c, 1, 55, 0
1, 26280, Note_on_c, 1, 74, 127
1, 26280, Note_on_c, 1, 57, 127
1, 26328, Note_off_c, 1, 74, 0
1, 26328, Note_off_c, 1, 57, 0
1, 26340, Note_on_c, 1, 65, 127
1, 26340, Note_on_c, 1, 59, 127
1, 26388, Note_off_c, 1, 65, 0
1, 26400, Note_on_c, 1, 69, 127
1, 26436, Note_off_c, 1, 59, 0
1, 26448, Note_off_c, 1, 69, 0
1, 26460, Note_on_c, 1, 67, 127
1, 26460, Note_on_c, 1, 60, 127
1, 26508, Note_off_c, 1, 67, 0
1, 26520, Note_on_c, 1, 65, 127
1, 26556, Note_off_c, 1, 60, 0
1, 26568, Note_off_c, 1, 65, 0
1, 26580, Note_on_c, 1, 71, 127
1, 26580, Note_on_c, 1, 62, 127
1, 26628, Note_off_c, 1, 71, 0
1, 26640, Note_on_c, 1, 67, 127
1, 26676, Note_off_c, 1, 62, 0
1, 26688, Note_off_c, 1, 67, 0
1, 26700, Note_on_c, 1, 69, 127
1, 26700, Note_on_c, 1, 60, 127
1, 26748, Note_off_c, 1, 69, 0
1, 26760, Note_on_c, 1, 67, 127
1, 26796, Note_off_c, 1, 60, 0
1, 26808, Note_off_c, 1, 67, 0
1, 26820, Note_on_c, 1, 74, 127
1, 26820, Note_on_c, 1, 59, 127
1, 26868, Note_off_c, 1, 74, 0
1, 26880, Note_on_c, 1, 65, 127
1, 26928, Note_off_c, 1, 65, 0
1, 26940, Note_on_c, 1, 67, 127
1, 26940, Note_on_c, 1, 57, 127
1, 26988, Note_off_c, 1, 67, 0
1, 27000, Note_on_c, 1, 69, 127
1, 27036, Note_off_c, 1, 57, 0
1, 27048, Note_off_c, 1, 69, 0
1, 27060, Note_on_c, 1, 64, 127
1, 27060, Note_on_c, 1, 56, 127
1, 27156, Note_off_c, 1, 56, 0
1, 27204, Note_off_c, 1, 64, 0
1, 27240, Note_on_c, 1, 83, 127
1, 27288, Note_off_c, 1, 83, 0
1, 27360, Note_on_c, 1, 77, 127
1, 27408, Note_off_c, 1, 77, 0
1, 27420, Note_on_c, 1, 76, 127
1, 27420, Note_on_c, 1, 54, 127
1, 27468, Note_off_c, 1, 76, 0
1, 27516, Note_off_c, 1, 54, 0
1, 27540, Note_on_c, 1, 80, 127
1, 27540, Note_on_c, 1, 52, 127
1, 27588, Note_off_c, 1, 80, 0
1, 27636, Note_off_c, 1, 59, 0
1, 27636, Note_off_c, 1, 52, 0
1, 27660, Note_on_c, 1, 77, 127
1, 27660, Note_on_c, 1, 50, 127
1, 27660, Note_on_c, 1, 59, 127
1, 27708, Note_off_c, 1, 77, 0
1, 27720, Note_on_c, 1, 76, 127
1, 27756, Note_off_c, 1, 50, 0
1, 27756, Note_off_c, 1, 59, 0
1, 27768, Note_off_c, 1, 76, 0
1, 27780, Note_on_c, 1, 83, 127
1, 27780, Note_on_c, 1, 52, 127
1, 27780, Note_on_c, 1, 48, 127
1, 27828, Note_off_c, 1, 83, 0
1, 27840, Note_on_c, 1, 74, 127
1, 27876, Note_off_c, 1, 52, 0
1, 27876, Note_off_c, 1, 48, 0
1, 27888, Note_off_c, 1, 74, 0
1, 27900, Note_on_c, 1, 76, 127
1, 27900, Note_on_c, 1, 47, 127
1, 27900, Note_on_c, 1, 56, 127
1, 27948, Note_off_c, 1, 76, 0
1, 27960, Note_on_c, 1, 77, 127
1, 27996, Note_off_c, 1, 47, 0
1, 27996, Note_off_c, 1, 56, 0
1, 28008, Note_off_c, 1, 77, 0
1, 28020, Note_on_c, 1, 73, 127
1, 28020, Note_on_c, 1, 57, 127
1, 28020, Note_on_c, 1, 45, 127
1, 28068, Note_off_c, 1, 73, 0
1, 28080, Note_on_c, 1, 71, 127
1, 28128, Note_off_c, 1, 71, 0
1, 28164, Note_off_c, 1, 57, 0
1, 28164, Note_off_c, 1, 45, 0
1, 28200, Note_on_c, 1, 69, 127
1, 28200, Note_on_c, 1, 57, 127
1, 28248, Note_off_c, 1, 69, 0
1, 28248, Note_off_c, 1, 57, 0
1, 28260, Note_on_c, 1, 79, 127
1, 28260, Note_on_c, 1, 58, 127
1, 28308, Note_off_c, 1, 58, 0
1, 28320, Note_on_c, 1, 57, 127
1, 28368, Note_off_c, 1, 57, 0
1, 28404, Note_off_c, 1, 79, 0
1, 28440, Note_on_c, 1, 76, 127
1, 28440, Note_on_c, 1, 79, 127
1, 28440, Note_on_c, 1, 55, 127
1, 28488, Note_off_c, 1, 76, 0
1, 28488, Note_off_c, 1, 79, 0
1, 28488, Note_off_c, 1, 55, 0
1, 28500, Note_on_c, 1, 79, 127
1, 28500, Note_on_c, 1, 76, 127
1, 28500, Note_on_c, 1, 61, 127
1, 28548, Note_off_c, 1, 79, 0
1, 28548, Note_off_c, 1, 61, 0
1, 28560, Note_on_c, 1, 81, 127
1, 28560, Note_on_c, 1, 57, 127
1, 28596, Note_off_c, 1, 76, 0
1, 28608, Note_off_c, 1, 81, 0
1, 28608, Note_off_c, 1, 57, 0
1, 28620, Note_on_c, 1, 77, 127
1, 28620, Note_on_c, 1, 74, 127
1, 28620, Note_on_c, 1, 62, 127
1, 28668, Note_off_c, 1, 77, 0
1, 28668, Note_off_c, 1, 62, 0
1, 28680, Note_on_c, 1, 79, 127
1, 28680, Note_on_c, 1, 55, 127
1, 28716, Note_off_c, 1, 74, 0
1, 28728, Note_off_c, 1, 79, 0
1, 28728, Note_off_c, 1, 55, 0
1, 28740, Note_on_c, 1, 76, 127
1, 28740, Note_on_c, 1, 73, 127
1, 28740, Note_on_c, 1, 57, 127
1, 28764, Note_off_c, 1, 76, 0
1, 28770, Note_on_c, 1, 77, 127
1, 28794, Note_off_c, 1, 77, 0
1, 28860, Note_on_c, 1, 45, 127
1, 28920, Note_on_c, 1, 81, 127
1, 28932, Note_off_c, 1, 73, 0
1, 28956, Note_off_c, 1, 45, 0
1, 28968, Note_off_c, 1, 81, 0
1, 28980, Note_on_c, 1, 79, 127
1, 28980, Note_on_c, 1, 50, 127
1, 29028, Note_off_c, 1, 79, 0
1, 29160, Note_on_c, 1, 74, 127
1, 29172, Note_off_c, 1, 57, 0
1, 29208, Note_off_c, 1, 74, 0
1, 29268, Note_off_c, 1, 50, 0
1, 29280, Note_on_c, 1, 77, 127
1, 29280, Note_on_c, 1, 50, 127
1, 29328, Note_off_c, 1, 50, 0
1, 29340, Note_on_c, 1, 52, 127
1, 29376, Note_off_c, 1, 77, 0
1, 29388, Note_off_c, 1, 52, 0
1, 29400, Note_on_c, 1, 77, 127
1, 29400, Note_on_c, 1, 53, 127
1, 29448, Note_off_c, 1, 77, 0
1, 29448, Note_off_c, 1, 53, 0
1, 29460, Note_on_c, 1, 77, 127
1, 29460, Note_on_c, 1, 55, 127
1, 29508, Note_off_c, 1, 77, 0
1, 29508, Note_off_c, 1, 55, 0
1, 29520, Note_on_c, 1, 71, 127
1, 29520, Note_on_c, 1, 55, 127
1, 29568, Note_off_c, 1, 71, 0
1, 29568, Note_off_c, 1, 55, 0
1, 29580, Note_on_c, 1, 72, 127
1, 29580, Note_on_c, 1, 57, 127
1, 29628, Note_off_c, 1, 72, 0
1, 29628, Note_off_c, 1, 57, 0
1, 29640, Note_on_c, 1, 74, 127
1, 29640, Note_on_c, 1, 59, 127
1, 29688, Note_off_c, 1, 74, 0
1, 29688, Note_off_c, 1, 59, 0
1, 29700, Note_on_c, 1, 76, 127
1, 29700, Note_on_c, 1, 60, 127
1, 29748, Note_off_c, 1, 60, 0
1, 29820, Note_on_c, 1, 62, 127
1, 29844, Note_off_c, 1, 76, 0
1, 29868, Note_off_c, 1, 62, 0
1, 29880, Note_on_c, 1, 76, 127
1, 29880, Note_on_c, 1, 64, 127
1, 29928, Note_off_c, 1, 76, 0
1, 29928, Note_off_c, 1, 64, 0
1, 29940, Note_on_c, 1, 76, 127
1, 29940, Note_on_c, 1, 65, 127
1, 29988, Note_off_c, 1, 76, 0
1, 30000, Note_on_c, 1, 72, 127
1, 30048, Note_off_c, 1, 72, 0
1, 30060, Note_on_c, 1, 71, 127
1, 30108, Note_off_c, 1, 71, 0
1, 30120, Note_on_c, 1, 69, 127
1, 30168, Note_off_c, 1, 69, 0
1, 30180, Note_on_c, 1, 74, 127
1, 30204, Note_off_c, 1, 74, 0
1, 30228, Note_off_c, 1, 65, 0
1, 30240, Note_on_c, 1, 74, 127
1, 30240, Note_on_c, 1, 47, 127
1, 30288, Note_off_c, 1, 47, 0
1, 30300, Note_on_c, 1, 48, 127
1, 30336, Note_off_c, 1, 74, 0
1, 30348, Note_off_c, 1, 48, 0
1, 30360, Note_on_c, 1, 74, 127
1, 30360, Note_on_c, 1, 50, 127
1, 30408, Note_off_c, 1, 74, 0
1, 30408, Note_off_c, 1, 50, 0
1, 30420, Note_on_c, 1, 74, 127
1, 30420, Note_on_c, 1, 52, 127
1, 30468, Note_off_c, 1, 74, 0
1, 30468, Note_off_c, 1, 52, 0
1, 30480, Note_on_c, 1, 68, 127
1, 30480, Note_on_c, 1, 52, 127
1, 30528, Note_off_c, 1, 68, 0
1, 30528, Note_off_c, 1, 52, 0
1, 30540, Note_on_c, 1, 69, 127
1, 30540, Note_on_c, 1, 54, 127
1, 30588, Note_off_c, 1, 69, 0
1, 30588, Note_off_c, 1, 54, 0
1, 30600, Note_on_c, 1, 71, 127
1, 30600, Note_on_c, 1, 56, 127
1, 30648, Note_off_c, 1, 71, 0
1, 30648, Note_off_c, 1, 56, 0
1, 30660, Note_on_c, 1, 72, 127
1, 30660, Note_on_c, 1, 57, 127
1, 30708, Note_off_c, 1, 57, 0
1, 30780, Note_on_c, 1, 59, 127
1, 30804, Note_off_c, 1, 72, 0
1, 30828, Note_off_c, 1, 59, 0
1, 30840, Note_on_c, 1, 72, 127
1, 30840, Note_on_c, 1, 60, 127
1, 30888, Note_off_c, 1, 72, 0
1, 30888, Note_off_c, 1, 60, 0
1, 30900, Note_on_c, 1, 72, 127
1, 30900, Note_on_c, 1, 62, 127
1, 30948, Note_off_c, 1, 72, 0
1, 30960, Note_on_c, 1, 69, 127
1, 31008, Note_off_c, 1, 69, 0
1, 31020, Note_on_c, 1, 67, 127
1, 31068, Note_off_c, 1, 67, 0
1, 31080, Note_on_c, 1, 65, 127
1, 31128, Note_off_c, 1, 65, 0
1, 31140, Note_on_c, 1, 70, 127
1, 31188, Note_off_c, 1, 62, 0
1, 31188, Note_off_c, 1, 70, 0
1, 31200, Note_on_c, 1, 69, 127
1, 31200, Note_on_c, 1, 53, 127
1, 31248, Note_off_c, 1, 69, 0
1, 31248, Note_off_c, 1, 53, 0
1, 31260, Note_on_c, 1, 68, 127
1, 31260, Note_on_c, 1, 52, 127
1, 31308, Note_off_c, 1, 68, 0
1, 31308, Note_off_c, 1, 52, 0
1, 31320, Note_on_c, 1, 69, 127
1, 31320, Note_on_c, 1, 50, 127
1, 31368, Note_off_c, 1, 69, 0
1, 31368, Note_off_c, 1, 50, 0
1, 31380, Note_on_c, 1, 62, 127
1, 31380, Note_on_c, 1, 56, 127
1, 31428, Note_off_c, 1, 62, 0
1, 31428, Note_off_c, 1, 56, 0
1, 31440, Note_on_c, 1, 68, 127
1, 31440, Note_on_c, 1, 52, 127
1, 31488, Note_off_c, 1, 68, 0
1, 31488, Note_off_c, 1, 52, 0
1, 31500, Note_on_c, 1, 69, 127
1, 31500, Note_on_c, 1, 53, 127
1, 31548, Note_off_c, 1, 69, 0
1, 31548, Note_off_c, 1, 53, 0
1, 31560, Note_on_c, 1, 71, 127
1, 31560, Note_on_c, 1, 52, 127
1, 31608, Note_off_c, 1, 71, 0
1, 31608, Note_off_c, 1, 52, 0
1, 31620, Note_on_c, 1, 72, 127
1, 31620, Note_on_c, 1, 57, 127
1, 31668, Note_off_c, 1, 72, 0
1, 31668, Note_off_c, 1, 57, 0
1, 31680, Note_on_c, 1, 71, 127
1, 31680, Note_on_c, 1, 50, 127
1, 31728, Note_off_c, 1, 71, 0
1, 31728, Note_off_c, 1, 50, 0
1, 31740, Note_on_c, 1, 72, 127
1, 31740, Note_on_c, 1, 52, 127
1, 31788, Note_off_c, 1, 72, 0
1, 31788, Note_off_c, 1, 52, 0
1, 31800, Note_on_c, 1, 69, 127
1, 31800, Note_on_c, 1, 53, 127
1, 31848, Note_off_c, 1, 69, 0
1, 31848, Note_off_c, 1, 53, 0
1, 31860, Note_on_c, 1, 71, 127
1, 31860, Note_on_c, 1, 44, 127
1, 31908, Note_off_c, 1, 44, 0
1, 31956, Note_off_c, 1, 71, 0
1, 31980, Note_on_c, 1, 64, 127
1, 31980, Note_on_c, 1, 45, 127
1, 32028, Note_off_c, 1, 45, 0
1, 32040, Note_on_c, 1, 47, 127
1, 32076, Note_off_c, 1, 64, 0
1, 32088, Note_off_c, 1, 47, 0
1, 32100, Note_on_c, 1, 76, 127
1, 32100, Note_on_c, 1, 48, 127
1, 32148, Note_off_c, 1, 48, 0
1, 32220, Note_on_c, 1, 50, 127
1, 32244, Note_off_c, 1, 76, 0
1, 32268, Note_off_c, 1, 50, 0
1, 32280, Note_on_c, 1, 76, 127
1, 32280, Note_on_c, 1, 52, 127
1, 32328, Note_off_c, 1, 76, 0
1, 32328, Note_off_c, 1, 52, 0
1, 32340, Note_on_c, 1, 76, 127
1, 32340, Note_on_c, 1, 53, 127
1, 32388, Note_off_c, 1, 76, 0
1, 32400, Note_on_c, 1, 72, 127
1, 32448, Note_off_c, 1, 72, 0
1, 32460, Note_on_c, 1, 71, 127
1, 32508, Note_off_c, 1, 71, 0
1, 32520, Note_on_c, 1, 69, 127
1, 32568, Note_off_c, 1, 69, 0
1, 32580, Note_on_c, 1, 81, 127
1, 32628, Note_off_c, 1, 53, 0
1, 32640, Note_on_c, 1, 50, 127
1, 32688, Note_off_c, 1, 50, 0
1, 32700, Note_on_c, 1, 52, 127
1, 32724, Note_off_c, 1, 81, 0
1, 32748, Note_off_c, 1, 52, 0
1, 32760, Note_on_c, 1, 81, 127
1, 32760, Note_on_c, 1, 53, 127
1, 32808, Note_off_c, 1, 81, 0
1, 32808, Note_off_c, 1, 53, 0
1, 32820, Note_on_c, 1, 81, 127
1, 32820, Note_on_c, 1, 47, 127
1, 32868, Note_off_c, 1, 81, 0
1, 32868, Note_off_c, 1, 47, 0
1, 32880, Note_on_c, 1, 77, 127
1, 32880, Note_on_c, 1, 47, 127
1, 32928, Note_off_c, 1, 77, 0
1, 32928, Note_off_c, 1, 47, 0
1, 32940, Note_on_c, 1, 76, 127
1, 32940, Note_on_c, 1, 48, 127
1, 32988, Note_off_c, 1, 76, 0
1, 32988, Note_off_c, 1, 48, 0
1, 33000, Note_on_c, 1, 74, 127
1, 33000, Note_on_c, 1, 50, 127
1, 33048, Note_off_c, 1, 50, 0
1, 33060, Note_on_c, 1, 83, 127
1, 33060, Note_on_c, 1, 44, 127
1, 33108, Note_off_c, 1, 44, 0
1, 33180, Note_on_c, 1, 45, 127
1, 33204, Note_off_c, 1, 74, 0
1, 33204, Note_off_c, 1, 83, 0
1, 33228, Note_off_c, 1, 45, 0
1, 33240, Note_on_c, 1, 74, 127
1, 33240, Note_on_c, 1, 83, 127
1, 33240, Note_on_c, 1, 47, 127
1, 33288, Note_off_c, 1, 74, 0
1, 33288, Note_off_c, 1, 83, 0
1, 33288, Note_off_c, 1, 47, 0
1, 33300, Note_on_c, 1, 83, 127
1, 33300, Note_on_c, 1, 74, 127
1, 33300, Note_on_c, 1, 36, 127
1, 33348, Note_off_c, 1, 83, 0
1, 33360, Note_on_c, 1, 81, 127
1, 33384, Note_off_c, 1, 81, 0
1, 33390, Note_on_c, 1, 80, 127
1, 33396, Note_off_c, 1, 74, 0
1, 33396, Note_off_c, 1, 36, 0
1, 33414, Note_off_c, 1, 80, 0
1, 33420, Note_on_c, 1, 72, 127
1, 33420, Note_on_c, 1, 81, 127
1, 33420, Note_on_c, 1, 48, 127
1, 33468, Note_off_c, 1, 72, 0
1, 33468, Note_off_c, 1, 81, 0
1, 33468, Note_off_c, 1, 48, 0
1, 33480, Note_on_c, 1, 71, 127
1, 33480, Note_on_c, 1, 74, 127
1, 33480, Note_on_c, 1, 50, 127
1, 33528, Note_off_c, 1, 71, 0
1, 33528, Note_off_c, 1, 74, 0
1, 33528, Note_off_c, 1, 50, 0
1, 33540, Note_on_c, 1, 72, 127
1, 33540, Note_on_c, 1, 69, 127
1, 33540, Note_on_c, 1, 52, 127
1, 33636, Note_off_c, 1, 72, 0
1, 33636, Note_off_c, 1, 69, 0
1, 33636, Note_off_c, 1, 52, 0
1, 33660, Note_on_c, 1, 71, 127
1, 33660, Note_on_c, 1, 68, 127
1, 33660, Note_on_c, 1, 40, 127
1, 33672, Note_off_c, 1, 71, 0
1, 33675, Note_on_c, 1, 72, 127
1, 33687, Note_off_c, 1, 72, 0
1, 33720, Note_on_c, 1, 69, 127
1, 33756, Note_off_c, 1, 68, 0
1, 33756, Note_off_c, 1, 40, 0
1, 33768, Note_off_c, 1, 69, 0
1, 33780, Note_on_c, 1, 69, 127
1, 33780, Note_on_c, 1, 45, 127
1, 33840, Note_on_c, 1, 67, 127
1, 33888, Note_off_c, 1, 67, 0
1, 33900, Note_on_c, 1, 65, 127
1, 33948, Note_off_c, 1, 65, 0
1, 33960, Note_on_c, 1, 64, 127
1, 33960, Note_on_c, 1, 49, 127
1, 34008, Note_off_c, 1, 64, 0
1, 34008, Note_off_c, 1, 49, 0
1, 34020, Note_on_c, 1, 50, 127
1, 34068, Note_off_c, 1, 50, 0
1, 34080, Note_on_c, 1, 61, 127
1, 34080, Note_on_c, 1, 52, 127
1, 34128, Note_off_c, 1, 61, 0
1, 34128, Note_off_c, 1, 52, 0
1, 34140, Note_on_c, 1, 62, 127
1, 34140, Note_on_c, 1, 53, 127
1, 34164, Note_off_c, 1, 45, 0
1, 34188, Note_off_c, 1, 53, 0
1, 34200, Note_on_c, 1, 56, 127
1, 34236, Note_off_c, 1, 62, 0
1, 34248, Note_off_c, 1, 56, 0
1, 34260, Note_on_c, 1, 57, 127
1, 34452, Note_off_c, 1, 57, 0
1, 34548, Note_off_c, 1, 69, 0
1, 34740, Note_on_c, 1, 71, 127
1, 34788, Note_off_c, 1, 71, 0
1, 34800, Note_on_c, 1, 68, 127
1, 34800, Note_on_c, 1, 71, 127
1, 34800, Note_on_c, 1, 64, 127
1, 34800, Note_on_c, 1, 40, 127
1, 34848, Note_off_c, 1, 40, 0
1, 34860, Note_on_c, 1, 47, 127
1, 34908, Note_off_c, 1, 47, 0
1, 34920, Note_on_c, 1, 52, 127
1, 34944, Note_off_c, 1, 68, 0
1, 34944, Note_off_c, 1, 71, 0
1, 34944, Note_off_c, 1, 64, 0
1, 34968, Note_off_c, 1, 52, 0
1, 34980, Note_on_c, 1, 71, 127
1, 34980, Note_on_c, 1, 54, 127
1, 35028, Note_off_c, 1, 71, 0
1, 35028, Note_off_c, 1, 54, 0
1, 35040, Note_on_c, 1, 62, 127
1, 35040, Note_on_c, 1, 56, 127
1, 35088, Note_off_c, 1, 62, 0
1, 35100, Note_on_c, 1, 65, 127
1, 35136, Note_off_c, 1, 56, 0
1, 35148, Note_off_c, 1, 65, 0
1, 35160, Note_on_c, 1, 64, 127
1, 35160, Note_on_c, 1, 57, 127
1, 35208, Note_off_c, 1, 64, 0
1, 35220, Note_on_c, 1, 62, 127
1, 35256, Note_off_c, 1, 57, 0
1, 35268, Note_off_c, 1, 62, 0
1, 35280, Note_on_c, 1, 68, 127
1, 35280, Note_on_c, 1, 59, 127
1, 35328, Note_off_c, 1, 68, 0
1, 35340, Note_on_c, 1, 64, 127
1, 35376, Note_off_c, 1, 59, 0
1, 35388, Note_off_c, 1, 64, 0
1, 35400, Note_on_c, 1, 65, 127
1, 35400, Note_on_c, 1, 57, 127
1, 35448, Note_off_c, 1, 65, 0
1, 35460, Note_on_c, 1, 64, 127
1, 35496, Note_off_c, 1, 57, 0
1, 35508, Note_off_c, 1, 64, 0
1, 35520, Note_on_c, 1, 71, 127
1, 35520, Note_on_c, 1, 56, 127
1, 35568, Note_off_c, 1, 71, 0
1, 35580, Note_on_c, 1, 62, 127
1, 35616, Note_off_c, 1, 56, 0
1, 35628, Note_off_c, 1, 62, 0
1, 35640, Note_on_c, 1, 64, 127
1, 35640, Note_on_c, 1, 52, 127
1, 35688, Note_off_c, 1, 64, 0
1, 35700, Note_on_c, 1, 65, 127
1, 35736, Note_off_c, 1, 52, 0
1, 35748, Note_off_c, 1, 65, 0
1, 35760, Note_on_c, 1, 61, 127
1, 35760, Note_on_c, 1, 57, 127
1, 35808, Note_off_c, 1, 61, 0
1, 35820, Note_on_c, 1, 59, 127
1, 35868, Note_off_c, 1, 59, 0
1, 35928, Note_off_c, 1, 57, 0
1, 35940, Note_on_c, 1, 59, 127
1, 35940, Note_on_c, 1, 45, 127
1, 35988, Note_off_c, 1, 59, 0
1, 35988, Note_off_c, 1, 45, 0
1, 36000, Note_on_c, 1, 61, 127
1, 36000, Note_on_c, 1, 43, 127
1, 36048, Note_off_c, 1, 61, 0
1, 36048, Note_off_c, 1, 43, 0
1, 36060, Note_on_c, 1, 62, 127
1, 36060, Note_on_c, 1, 46, 127
1, 36108, Note_off_c, 1, 62, 0
1, 36108, Note_off_c, 1, 46, 0
1, 36120, Note_on_c, 1, 64, 127
1, 36120, Note_on_c, 1, 45, 127
1, 36168, Note_off_c, 1, 64, 0
1, 36168, Note_off_c, 1, 45, 0
1, 36180, Note_on_c, 1, 65, 127
1, 36180, Note_on_c, 1, 43, 127
1, 36228, Note_off_c, 1, 65, 0
1, 36228, Note_off_c, 1, 43, 0
1, 36240, Note_on_c, 1, 67, 127
1, 36240, Note_on_c, 1, 49, 127
1, 36288, Note_off_c, 1, 67, 0
1, 36288, Note_off_c, 1, 49, 0
1, 36300, Note_on_c, 1, 65, 127
1, 36300, Note_on_c, 1, 45, 127
1, 36348, Note_off_c, 1, 65, 0
1, 36348, Note_off_c, 1, 45, 0
1, 36360, Note_on_c, 1, 64, 127
1, 36360, Note_on_c, 1, 46, 127
1, 36408, Note_off_c, 1, 64, 0
1, 36408, Note_off_c, 1, 46, 0
1, 36420, Note_on_c, 1, 65, 127
1, 36420, Note_on_c, 1, 45, 127
1, 36468, Note_off_c, 1, 65, 0
1, 36468, Note_off_c, 1, 45, 0
1, 36480, Note_on_c, 1, 67, 127
1, 36480, Note_on_c, 1, 52, 127
1, 36528, Note_off_c, 1, 67, 0
1, 36528, Note_off_c, 1, 52, 0
1, 36540, Note_on_c, 1, 70, 127
1, 36540, Note_on_c, 1, 43, 127
1, 36588, Note_off_c, 1, 70, 0
1, 36588, Note_off_c, 1, 43, 0
1, 36600, Note_on_c, 1, 69, 127
1, 36600, Note_on_c, 1, 45, 127
1, 36648, Note_off_c, 1, 69, 0
1, 36648, Note_off_c, 1, 45, 0
1, 36660, Note_on_c, 1, 67, 127
1, 36660, Note_on_c, 1, 46, 127
1, 36708, Note_off_c, 1, 67, 0
1, 36708, Note_off_c, 1, 46, 0
1, 36720, Note_on_c, 1, 72, 127
1, 36720, Note_on_c, 1, 42, 127
1, 36768, Note_off_c, 1, 42, 0
1, 36780, Note_on_c, 1, 69, 127
1, 36780, Note_on_c, 1, 50, 127
1, 36828, Note_off_c, 1, 69, 0
1, 36828, Note_off_c, 1, 50, 0
1, 36840, Note_on_c, 1, 62, 127
1, 36840, Note_on_c, 1, 52, 127
1, 36864, Note_off_c, 1, 72, 0
1, 36888, Note_off_c, 1, 52, 0
1, 36900, Note_on_c, 1, 54, 127
1, 36936, Note_off_c, 1, 62, 0
1, 36948, Note_off_c, 1, 54, 0
1, 36960, Note_on_c, 1, 71, 127
1, 36960, Note_on_c, 1, 55, 127
1, 37008, Note_off_c, 1, 71, 0
1, 37008, Note_off_c, 1, 55, 0
1, 37020, Note_on_c, 1, 72, 127
1, 37020, Note_on_c, 1, 57, 127
1, 37068, Note_off_c, 1, 72, 0
1, 37068, Note_off_c, 1, 57, 0
1, 37080, Note_on_c, 1, 72, 127
1, 37080, Note_on_c, 1, 57, 127
1, 37092, Note_off_c, 1, 72, 0
1, 37092, Note_off_c, 1, 57, 0
1, 37095, Note_on_c, 1, 74, 127
1, 37095, Note_on_c, 1, 59, 127
1, 37107, Note_off_c, 1, 74, 0
1, 37107, Note_off_c, 1, 59, 0
1, 37110, Note_on_c, 1, 72, 127
1, 37110, Note_on_c, 1, 57, 127
1, 37134, Note_off_c, 1, 72, 0
1, 37134, Note_off_c, 1, 57, 0
1, 37140, Note_on_c, 1, 71, 127
1, 37140, Note_on_c, 1, 55, 127
1, 37164, Note_off_c, 1, 71, 0
1, 37164, Note_off_c, 1, 55, 0
1, 37170, Note_on_c, 1, 72, 127
1, 37170, Note_on_c, 1, 57, 127
1, 37194, Note_off_c, 1, 72, 0
1, 37194, Note_off_c, 1, 57, 0
1, 37200, Note_on_c, 1, 74, 127
1, 37200, Note_on_c, 1, 67, 127
1, 37200, Note_on_c, 1, 59, 127
1, 37248, Note_off_c, 1, 59, 0
1, 37260, Note_on_c, 1, 60, 127
1, 37308, Note_off_c, 1, 60, 0
1, 37335, Note_on_c, 1, 62, 127
1, 37344, Note_off_c, 1, 74, 0
1, 37347, Note_off_c, 1, 62, 0
1, 37380, Note_on_c, 1, 76, 127
1, 37428, Note_off_c, 1, 76, 0
1, 37440, Note_on_c, 1, 69, 127
1, 37488, Note_off_c, 1, 69, 0
1, 37500, Note_on_c, 1, 71, 127
1, 37548, Note_off_c, 1, 71, 0
1, 37560, Note_off_c, 1, 67, 0
1, 37560, Note_on_c, 1, 72, 127
1, 37560, Note_on_c, 1, 66, 127
1, 37560, Note_on_c, 1, 50, 127
1, 37608, Note_off_c, 1, 72, 0
1, 37656, Note_off_c, 1, 50, 0
1, 37680, Note_off_c, 1, 66, 0
1, 37680, Note_on_c, 1, 43, 127
1, 37728, Note_off_c, 1, 43, 0
1, 37800, Note_on_c, 1, 55, 127
1, 37848, Note_off_c, 1, 55, 0
1, 37860, Note_on_c, 1, 74, 127
1, 37860, Note_on_c, 1, 57, 127
1, 37908, Note_off_c, 1, 74, 0
1, 37908, Note_off_c, 1, 57, 0
1, 37920, Note_on_c, 1, 65, 127
1, 37920, Note_on_c, 1, 59, 127
1, 37968, Note_off_c, 1, 65, 0
1, 37980, Note_on_c, 1, 69, 127
1, 38016, Note_off_c, 1, 59, 0
1, 38028, Note_off_c, 1, 69, 0
1, 38040, Note_on_c, 1, 67, 127
1, 38040, Note_on_c, 1, 60, 127
1, 38088, Note_off_c, 1, 67, 0
1, 38100, Note_on_c, 1, 65, 127
1, 38136, Note_off_c, 1, 60, 0
1, 38148, Note_off_c, 1, 65, 0
1, 38160, Note_on_c, 1, 71, 127
1, 38160, Note_on_c, 1, 62, 127
1, 38208, Note_off_c, 1, 71, 0
1, 38220, Note_on_c, 1, 67, 127
1, 38256, Note_off_c, 1, 62, 0
1, 38268, Note_off_c, 1, 67, 0
1, 38280, Note_on_c, 1, 69, 127
1, 38280, Note_on_c, 1, 60, 127
1, 38328, Note_off_c, 1, 69, 0
1, 38340, Note_on_c, 1, 67, 127
1, 38376, Note_off_c, 1, 60, 0
1, 38388, Note_off_c, 1, 67, 0
1, 38400, Note_on_c, 1, 74, 127
1, 38400, Note_on_c, 1, 59, 127
1, 38448, Note_off_c, 1, 74, 0
1, 38460, Note_on_c, 1, 65, 127
1, 38508, Note_off_c, 1, 65, 0
1, 38520, Note_on_c, 1, 67, 127
1, 38520, Note_on_c, 1, 57, 127
1, 38568, Note_off_c, 1, 67, 0
1, 38580, Note_on_c, 1, 69, 127
1, 38616, Note_off_c, 1, 57, 0
1, 38628, Note_off_c, 1, 69, 0
1, 38640, Note_on_c, 1, 64, 127
1, 38640, Note_on_c, 1, 56, 127
1, 38736, Note_off_c, 1, 56, 0
1, 38784, Note_off_c, 1, 64, 0
1, 38820, Note_on_c, 1, 83, 127
1, 38868, Note_off_c, 1, 83, 0
1, 38940, Note_on_c, 1, 77, 127
1, 38988, Note_off_c, 1, 77, 0
1, 39000, Note_on_c, 1, 76, 127
1, 39000, Note_on_c, 1, 54, 127
1, 39048, Note_off_c, 1, 76, 0
1, 39096, Note_off_c, 1, 54, 0
1, 39120, Note_on_c, 1, 80, 127
1, 39120, Note_on_c, 1, 52, 127
1, 39168, Note_off_c, 1, 80, 0
1, 39216, Note_off_c, 1, 59, 0
1, 39216, Note_off_c, 1, 52, 0
1, 39240, Note_on_c, 1, 77, 127
1, 39240, Note_on_c, 1, 50, 127
1, 39240, Note_on_c, 1, 59, 127
1, 39288, Note_off_c, 1, 77, 0
1, 39300, Note_on_c, 1, 76, 127
1, 39336, Note_off_c, 1, 50, 0
1, 39336, Note_off_c, 1, 59, 0
1, 39348, Note_off_c, 1, 76, 0
1, 39360, Note_on_c, 1, 83, 127
1, 39360, Note_on_c, 1, 52, 127
1, 39360, Note_on_c, 1, 48, 127
1, 39408, Note_off_c, 1, 83, 0
1, 39420, Note_on_c, 1, 74, 127
1, 39456, Note_off_c, 1, 52, 0
1, 39456, Note_off_c, 1, 48, 0
1, 39468, Note_off_c, 1, 74, 0
1, 39480, Note_on_c, 1, 76, 127
1, 39480, Note_on_c, 1, 47, 127
1, 39480, Note_on_c, 1, 56, 127
1, 39528, Note_off_c, 1, 76, 0
1, 39540, Note_on_c, 1, 77, 127
1, 39576, Note_off_c, 1, 47, 0
1, 39576, Note_off_c, 1, 56, 0
1, 39588, Note_off_c, 1, 77, 0
1, 39600, Note_on_c, 1, 73, 127
1, 39600, Note_on_c, 1, 57, 127
1, 39600, Note_on_c, 1, 45, 127
1, 39648, Note_off_c, 1, 73, 0
1, 39660, Note_on_c, 1, 71, 127
1, 39708, Note_off_c, 1, 71, 0
1, 39744, Note_off_c, 1, 57, 0
1, 39744, Note_off_c, 1, 45, 0
1, 39780, Note_on_c, 1, 69, 127
1, 39780, Note_on_c, 1, 57, 127
1, 39828, Note_off_c, 1, 69, 0
1, 39828, Note_off_c, 1, 57, 0
1, 39840, Note_on_c, 1, 79, 127
1, 39840, Note_on_c, 1, 58, 127
1, 39888, Note_off_c, 1, 58, 0
1, 39900, Note_on_c, 1, 57, 127
1, 39948, Note_off_c, 1, 57, 0
1, 39984, Note_off_c, 1, 79, 0
1, 40020, Note_on_c, 1, 76, 127
1, 40020, Note_on_c, 1, 79, 127
1, 40020, Note_on_c, 1, 55, 127
1, 40068, Note_off_c, 1, 76, 0
1, 40068, Note_off_c, 1, 79, 0
1, 40068, Note_off_c, 1, 55, 0
1, 40080, Note_on_c, 1, 79, 127
1, 40080, Note_on_c, 1, 76, 127
1, 40080, Note_on_c, 1, 61, 127
1, 40128, Note_off_c, 1, 79, 0
1, 40128, Note_off_c, 1, 61, 0
1, 40140, Note_on_c, 1, 81, 127
1, 40140, Note_on_c, 1, 57, 127
1, 40176, Note_off_c, 1, 76, 0
1, 40188, Note_off_c, 1, 81, 0
1, 40188, Note_off_c, 1, 57, 0
1, 40200, Note_on_c, 1, 77, 127
1, 40200, Note_on_c, 1, 74, 127
1, 40200, Note_on_c, 1, 62, 127
1, 40248, Note_off_c, 1, 77, 0
1, 40248, Note_off_c, 1, 62, 0
1, 40260, Note_on_c, 1, 79, 127
1, 40260, Note_on_c, 1, 55, 127
1, 40296, Note_off_c, 1, 74, 0
1, 40308, Note_off_c, 1, 79, 0
1, 40308, Note_off_c, 1, 55, 0
1, 40320, Note_on_c, 1, 76, 127
1, 40320, Note_on_c, 1, 73, 127
1, 40320, Note_on_c, 1, 57, 127
1, 40344, Note_off_c, 1, 76, 0
1, 40350, Note_on_c, 1, 77, 127
1, 40374, Note_off_c, 1, 77, 0
1, 40440, Note_on_c, 1, 45, 127
1, 40500, Note_on_c, 1, 81, 127
1, 40512, Note_off_c, 1, 73, 0
1, 40536, Note_off_c, 1, 45, 0
1, 40548, Note_off_c, 1, 81, 0
1, 40560, Note_on_c, 1, 79, 127
1, 40560, Note_on_c, 1, 50, 127
1, 40608, Note_off_c, 1, 79, 0
1, 40740, Note_on_c, 1, 74, 127
1, 40752, Note_off_c, 1, 57, 0
1, 40788, Note_off_c, 1, 74, 0
1, 40848, Note_off_c, 1, 50, 0
1, 40860, Note_on_c, 1, 77, 127
1, 40860, Note_on_c, 1, 50, 127
1, 40908, Note_off_c, 1, 50, 0
1, 40920, Note_on_c, 1, 52, 127
1, 40956, Note_off_c, 1, 77, 0
1, 40968, Note_off_c, 1, 52, 0
1, 40980, Note_on_c, 1, 77, 127
1, 40980, Note_on_c, 1, 53, 127
1, 41028, Note_off_c, 1, 77, 0
1, 41028, Note_off_c, 1, 53, 0
1, 41040, Note_on_c, 1, 77, 127
1, 41040, Note_on_c, 1, 55, 127
1, 41088, Note_off_c, 1, 77, 0
1, 41088, Note_off_c, 1, 55, 0
1, 41100, Note_on_c, 1, 71, 127
1, 41100, Note_on_c, 1, 55, 127
1, 41148, Note_off_c, 1, 71, 0
1, 41148, Note_off_c, 1, 55, 0
1, 41160, Note_on_c, 1, 72, 127
1, 41160, Note_on_c, 1, 57, 127
1, 41208, Note_off_c, 1, 72, 0
1, 41208, Note_off_c, 1, 57, 0
1, 41220, Note_on_c, 1, 74, 127
1, 41220, Note_on_c, 1, 59, 127
1, 41268, Note_off_c, 1, 74, 0
1, 41268, Note_off_c, 1, 59, 0
1, 41280, Note_on_c, 1, 76, 127
1, 41280, Note_on_c, 1, 60, 127
1, 41328, Note_off_c, 1, 60, 0
1, 41400, Note_on_c, 1, 62, 127
1, 41424, Note_off_c, 1, 76, 0
1, 41448, Note_off_c, 1, 62, 0
1, 41460, Note_on_c, 1, 76, 127
1, 41460, Note_on_c, 1, 64, 127
1, 41508, Note_off_c, 1, 76, 0
1, 41508, Note_off_c, 1, 64, 0
1, 41520, Note_on_c, 1, 76, 127
1, 41520, Note_on_c, 1, 65, 127
1, 41568, Note_off_c, 1, 76, 0
1, 41580, Note_on_c, 1, 72, 127
1, 41628, Note_off_c, 1, 72, 0
1, 41640, Note_on_c, 1, 71, 127
1, 41688, Note_off_c, 1, 71, 0
1, 41700, Note_on_c, 1, 69, 127
1, 41748, Note_off_c, 1, 69, 0
1, 41760, Note_on_c, 1, 74, 127
1, 41784, Note_off_c, 1, 74, 0
1, 41808, Note_off_c, 1, 65, 0
1, 41820, Note_on_c, 1, 74, 127
1, 41820, Note_on_c, 1, 47, 127
1, 41868, Note_off_c, 1, 47, 0
1, 41880, Note_on_c, 1, 48, 127
1, 41916, Note_off_c, 1, 74, 0
1, 41928, Note_off_c, 1, 48, 0
1, 41940, Note_on_c, 1, 74, 127
1, 41940, Note_on_c, 1, 50, 127
1, 41988, Note_off_c, 1, 74, 0
1, 41988, Note_off_c, 1, 50, 0
1, 42000, Note_on_c, 1, 74, 127
1, 42000, Note_on_c, 1, 52, 127
1, 42048, Note_off_c, 1, 74, 0
1, 42048, Note_off_c, 1, 52, 0
1, 42060, Note_on_c, 1, 68, 127
1, 42060, Note_on_c, 1, 52, 127
1, 42108, Note_off_c, 1, 68, 0
1, 42108, Note_off_c, 1, 52, 0
1, 42120, Note_on_c, 1, 69, 127
1, 42120, Note_on_c, 1, 54, 127
1, 42168, Note_off_c, 1, 69, 0
1, 42168, Note_off_c, 1, 54, 0
1, 42180, Note_on_c, 1, 71, 127
1, 42180, Note_on_c, 1, 56, 127
1, 42228, Note_off_c, 1, 71, 0
1, 42228, Note_off_c, 1, 56, 0
1, 42240, Note_on_c, 1, 72, 127
1, 42240, Note_on_c, 1, 57, 127
1, 42288, Note_off_c, 1, 57, 0
1, 42360, Note_on_c, 1, 59, 127
1, 42384, Note_off_c, 1, 72, 0
1, 42408, Note_off_c, 1, 59, 0
1, 42420, Note_on_c, 1, 72, 127
1, 42420, Note_on_c, 1, 60, 127
1, 42468, Note_off_c, 1, 72, 0
1, 42468, Note_off_c, 1, 60, 0
1, 42480, Note_on_c, 1, 72, 127
1, 42480, Note_on_c, 1, 62, 127
1, 42528, Note_off_c, 1, 72, 0
1, 42540, Note_on_c, 1, 69, 127
1, 42588, Note_off_c, 1, 69, 0
1, 42600, Note_on_c, 1, 67, 127
1, 42648, Note_off_c, 1, 67, 0
1, 42660, Note_on_c, 1, 65, 127
1, 42708, Note_off_c, 1, 65, 0
1, 42720, Note_on_c, 1, 70, 127
1, 42768, Note_off_c, 1, 62, 0
1, 42768, Note_off_c, 1, 70, 0
1, 42780, Note_on_c, 1, 69, 127
1, 42780, Note_on_c, 1, 53, 127
1, 42828, Note_off_c, 1, 69, 0
1, 42828, Note_off_c, 1, 53, 0
1, 42840, Note_on_c, 1, 68, 127
1, 42840, Note_on_c, 1, 52, 127
1, 42888, Note_off_c, 1, 68, 0
1, 42888, Note_off_c, 1, 52, 0
1, 42900, Note_on_c, 1, 69, 127
1, 42900, Note_on_c, 1, 50, 127
1, 42948, Note_off_c, 1, 69, 0
1, 42948, Note_off_c, 1, 50, 0
1, 42960, Note_on_c, 1, 62, 127
1, 42960, Note_on_c, 1, 56, 127
1, 43008, Note_off_c, 1, 62, 0
1, 43008, Note_off_c, 1, 56, 0
1, 43020, Note_on_c, 1, 68, 127
1, 43020, Note_on_c, 1, 52, 127
1, 43068, Note_off_c, 1, 68, 0
1, 43068, Note_off_c, 1, 52, 0
1, 43080, Note_on_c, 1, 69, 127
1, 43080, Note_on_c, 1, 53, 127
1, 43128, Note_off_c, 1, 69, 0
1, 43128, Note_off_c, 1, 53, 0
1, 43140, Note_on_c, 1, 71, 127
1, 43140, Note_on_c, 1, 52, 127
1, 43188, Note_off_c, 1, 71, 0
1, 43188, Note_off_c, 1, 52, 0
1, 43200, Note_on_c, 1, 72, 127
1, 43200, Note_on_c, 1, 57, 127
1, 43248, Note_off_c, 1, 72, 0
1, 43248, Note_off_c, 1, 57, 0
1, 43260, Note_on_c, 1, 71, 127
1, 43260, Note_on_c, 1, 50, 127
1, 43308, Note_off_c, 1, 71, 0
1, 43308, Note_off_c, 1, 50, 0
1, 43320, Note_on_c, 1, 72, 127
1, 43320, Note_on_c, 1, 52, 127
1, 43368, Note_off_c, 1, 72, 0
1, 43368, Note_off_c, 1, 52, 0
1, 43380, Note_on_c, 1, 69, 127
1, 43380, Note_on_c, 1, 53, 127
1, 43428, Note_off_c, 1, 69, 0
1, 43428, Note_off_c, 1, 53, 0
1, 43440, Note_on_c, 1, 71, 127
1, 43440, Note_on_c, 1, 44, 127
1, 43488, Note_off_c, 1, 44, 0
1, 43536, Note_off_c, 1, 71, 0
1, 43560, Note_on_c, 1, 64, 127
1, 43560, Note_on_c, 1, 45, 127
1, 43608, Note_off_c, 1, 45, 0
1, 43620, Note_on_c, 1, 47, 127
1, 43656, Note_off_c, 1, 64, 0
1, 43668, Note_off_c, 1, 47, 0
1, 43680, Note_on_c, 1, 76, 127
1, 43680, Note_on_c, 1, 48, 127
1, 43728, Note_off_c, 1, 48, 0
1, 43800, Note_on_c, 1, 50, 127
1, 43824, Note_off_c, 1, 76, 0
1, 43848, Note_off_c, 1, 50, 0
1, 43860, Note_on_c, 1, 76, 127
1, 43860, Note_on_c, 1, 52, 127
1, 43908, Note_off_c, 1, 76, 0
1, 43908, Note_off_c, 1, 52, 0
1, 43920, Note_on_c, 1, 76, 127
1, 43920, Note_on_c, 1, 53, 127
1, 43968, Note_off_c, 1, 76, 0
1, 43980, Note_on_c, 1, 72, 127
1, 44028, Note_off_c, 1, 72, 0
1, 44040, Note_on_c, 1, 71, 127
1, 44088, Note_off_c, 1, 71, 0
1, 44100, Note_on_c, 1, 69, 127
1, 44148, Note_off_c, 1, 69, 0
1, 44160, Note_on_c, 1, 81, 127
1, 44208, Note_off_c, 1, 53, 0
1, 44220, Note_on_c, 1, 50, 127
1, 44268, Note_off_c, 1, 50, 0
1, 44280, Note_on_c, 1, 52, 127
1, 44304, Note_off_c, 1, 81, 0
1, 44328, Note_off_c, 1, 52, 0
1, 44340, Note_on_c, 1, 81, 127
1, 44340, Note_on_c, 1, 53, 127
1, 44388, Note_off_c, 1, 81, 0
1, 44388, Note_off_c, 1, 53, 0
1, 44400, Note_on_c, 1, 81, 127
1, 44400, Note_on_c, 1, 47, 127
1, 44448, Note_off_c, 1, 81, 0
1, 44448, Note_off_c, 1, 47, 0
1, 44460, Note_on_c, 1, 77, 127
1, 44460, Note_on_c, 1, 47, 127
1, 44508, Note_off_c, 1, 77, 0
1, 44508, Note_off_c, 1, 47, 0
1, 44520, Note_on_c, 1, 76, 127
1, 44520, Note_on_c, 1, 48, 127
1, 44568, Note_off_c, 1, 76, 0
1, 44568, Note_off_c, 1, 48, 0
1, 44580, Note_on_c, 1, 74, 127
1, 44580, Note_on_c, 1, 50, 127
1, 44628, Note_off_c, 1, 50, 0
1, 44640, Note_on_c, 1, 83, 127
1, 44640, Note_on_c, 1, 44, 127
1, 44688, Note_off_c, 1, 44, 0
1, 44760, Note_on_c, 1, 45, 127
1, 44784, Note_off_c, 1, 74, 0
1, 44784, Note_off_c, 1, 83, 0
1, 44808, Note_off_c, 1, 45, 0
1, 44820, Note_on_c, 1, 74, 127
1, 44820, Note_on_c, 1, 83, 127
1, 44820, Note_on_c, 1, 47, 127
1, 44868, Note_off_c, 1, 74, 0
1, 44868, Note_off_c, 1, 83, 0
1, 44868, Note_off_c, 1, 47, 0
1, 44880, Note_on_c, 1, 83, 127
1, 44880, Note_on_c, 1, 74, 127
1, 44880, Note_on_c, 1, 36, 127
1, 44928, Note_off_c, 1, 83, 0
1, 44940, Note_on_c, 1, 81, 127
1, 44964, Note_off_c, 1, 81, 0
1, 44970, Note_on_c, 1, 80, 127
1, 44976, Note_off_c, 1, 74, 0
1, 44976, Note_off_c, 1, 36, 0
1, 44994, Note_off_c, 1, 80, 0
1, 45000, Note_on_c, 1, 72, 127
1, 45000, Note_on_c, 1, 81, 127
1, 45000, Note_on_c, 1, 48, 127
1, 45048, Note_off_c, 1, 72, 0
1, 45048, Note_off_c, 1, 81, 0
1, 45048, Note_off_c, 1, 48, 0
1, 45060, Note_on_c, 1, 71, 127
1, 45060, Note_on_c, 1, 74, 127
1, 45060, Note_on_c, 1, 50, 127
1, 45108, Note_off_c, 1, 71, 0
1, 45108, Note_off_c, 1, 74, 0
1, 45108, Note_off_c, 1, 50, 0
1, 45120, Note_on_c, 1, 72, 127
1, 45120, Note_on_c, 1, 69, 127
1, 45120, Note_on_c, 1, 52, 127
1, 45216, Note_off_c, 1, 72, 0
1, 45216, Note_off_c, 1, 69, 0
1, 45216, Note_off_c, 1, 52, 0
1, 45240, Note_on_c, 1, 71, 127
1, 45240, Note_on_c, 1, 68, 127
1, 45240, Note_on_c, 1, 40, 127
1, 45252, Note_off_c, 1, 71, 0
1, 45255, Note_on_c, 1, 72, 127
1, 45267, Note_off_c, 1, 72, 0
1, 45300, Note_on_c, 1, 69, 127
1, 45336, Note_off_c, 1, 68, 0
1, 45336, Note_off_c, 1, 40, 0
1, 45348, Note_off_c, 1, 69, 0
1, 45360, Note_on_c, 1, 69, 127
1, 45360, Note_on_c, 1, 45, 127
1, 45420, Note_on_c, 1, 67, 127
1, 45468, Note_off_c, 1, 67, 0
1, 45480, Note_on_c, 1, 65, 127
1, 45528, Note_off_c, 1, 65, 0
1, 45540, Note_on_c, 1, 64, 127
1, 45540, Note_on_c, 1, 49, 127
1, 45588, Note_off_c, 1, 64, 0
1, 45588, Note_off_c, 1, 49, 0
1, 45600, Note_on_c, 1, 50, 127
1, 45648, Note_off_c, 1, 50, 0
1, 45660, Note_on_c, 1, 61, 127
1, 45660, Note_on_c, 1, 52, 127
1, 45708, Note_off_c, 1, 61, 0
1, 45708, Note_off_c, 1, 52, 0
1, 45720, Note_on_c, 1, 62, 127
1, 45720, Note_on_c, 1, 53, 127
1, 45744, Note_off_c, 1, 45, 0
1, 45768, Note_off_c, 1, 53, 0
1, 45780, Note_on_c, 1, 56, 127
1, 45816, Note_off_c, 1, 62, 0
1, 45828, Note_off_c, 1, 56, 0
1, 45840, Note_on_c, 1, 57, 127
1, 46032, Note_off_c, 1, 57, 0
1, 46128, Note_off_c, 1, 69, 0
1, 46128, End_track
0, 0, End_of_file