0, 0, Header, 1, 1, 480
1, 0, Start_track
1, 0, Title_t, "Test"
1, 0, Tempo, 500000
1, 0, Instrument_name_t, "Church Organ"
1, 62, Note_on_c, 1, 66, 127
1, 234, Note_off_c, 1, 66, 0
1, 237, Note_on_c, 1, 71, 127
1, 409, Note_off_c, 1, 71, 0
1, 412, Note_on_c, 1, 70, 127
1, 584, Note_off_c, 1, 70, 0
1, 586, Note_on_c, 1, 71, 127
1, 671, Note_off_c, 1, 71, 0
1, 674, Note_on_c, 1, 70, 127
1, 759, Note_off_c, 1, 70, 0
1, 761, Note_on_c, 1, 54, 127
1, 761, Note_on_c, 1, 71, 127
1, 933, Note_off_c, 1, 54, 0
1, 936, Note_on_c, 1, 59, 127
1, 1108, Note_off_c, 1, 71, 0
1, 1108, Note_off_c, 1, 59, 0
1, 1111, Note_on_c, 1, 73, 127
1, 1111, Note_on_c, 1, 58, 127
1, 1283, Note_off_c, 1, 73, 0
1, 1283, Note_off_c, 1, 58, 0
1, 1285, Note_on_c, 1, 74, 127
1, 1285, Note_on_c, 1, 59, 127
1, 1457, Note_off_c, 1, 74, 0
1, 1460, Note_on_c, 1, 71, 127
1, 1632, Note_off_c, 1, 59, 0
1, 1632, Note_off_c, 1, 71, 0
1, 1635, Note_on_c, 1, 76, 127
1, 1635, Note_on_c, 1, 61, 127
1, 1807, Note_off_c, 1, 76, 0
1, 1809, Note_on_c, 1, 71, 127
1, 1981, Note_off_c, 1, 71, 0
1, 1982, Note_off_c, 1, 61, 0
1, 1984, Note_on_c, 1, 62, 127
1, 1984, Note_on_c, 1, 78, 127
1, 2156, Note_off_c, 1, 62, 0
1, 2159, Note_on_c, 1, 59, 127
1, 2331, Note_off_c, 1, 78, 0
1, 2331, Note_off_c, 1, 59, 0
1, 2334, Note_on_c, 1, 67, 127
1, 2334, Note_on_c, 1, 71, 127
1, 2506, Note_off_c, 1, 67, 0
1, 2508, Note_on_c, 1, 66, 127
1, 2680, Note_off_c, 1, 66, 0
1, 2789, Note_off_c, 1, 71, 0
1, 2858, Note_on_c, 1, 71, 127
1, 2858, Note_on_c, 1, 67, 127
1, 3030, Note_off_c, 1, 71, 0
1, 3032, Note_on_c, 1, 76, 127
1, 3204, Note_off_c, 1, 76, 0
1, 3205, Note_off_c, 1, 67, 0
1, 3207, Note_on_c, 1, 74, 127
1, 3207, Note_on_c, 1, 66, 127
1, 3379, Note_off_c, 1, 74, 0
1, 3379, Note_off_c, 1, 66, 0
1, 3382, Note_on_c, 1, 79, 127
1, 3382, Note_on_c, 1, 64, 127
1, 3554, Note_off_c, 1, 79, 0
1, 3557, Note_on_c, 1, 76, 127
1, 3729, Note_off_c, 1, 64, 0
1, 3729, Note_off_c, 1, 76, 0
1, 3731, Note_on_c, 1, 82, 127
1, 3731, Note_on_c, 1, 61, 127
1, 3903, Note_off_c, 1, 82, 0
1, 3906, Note_on_c, 1, 83, 127
1, 4078, Note_off_c, 1, 61, 0
1, 4078, Note_off_c, 1, 83, 0
1, 4081, Note_on_c, 1, 73, 127
1, 4081, Note_on_c, 1, 66, 127
1, 4253, Note_off_c, 1, 73, 0
1, 4256, Note_on_c, 1, 79, 127
1, 4428, Note_off_c, 1, 66, 0
1, 4428, Note_off_c, 1, 79, 0
1, 4430, Note_on_c, 1, 78, 127
1, 4430, Note_on_c, 1, 54, 127
1, 4602, Note_off_c, 1, 78, 0
1, 4605, Note_on_c, 1, 76, 127
1, 4777, Note_off_c, 1, 54, 0
1, 4777, Note_off_c, 1, 76, 0
1, 4780, Note_on_c, 1, 74, 127
1, 4780, Note_on_c, 1, 59, 127
1, 4952, Note_off_c, 1, 74, 0
1, 4954, Note_on_c, 1, 78, 127
1, 5126, Note_off_c, 1, 78, 0
1, 5127, Note_off_c, 1, 59, 0
1, 5129, Note_on_c, 1, 71, 127
1, 5129, Note_on_c, 1, 61, 127
1, 5301, Note_off_c, 1, 71, 0
1, 5304, Note_on_c, 1, 70, 127
1, 5476, Note_off_c, 1, 61, 0
1, 5476, Note_off_c, 1, 70, 0
1, 5479, Note_on_c, 1, 71, 127
1, 5479, Note_on_c, 1, 62, 127
1, 5651, Note_off_c, 1, 71, 0
1, 5653, Note_on_c, 1, 74, 127
1, 5825, Note_off_c, 1, 74, 0
1, 5826, Note_off_c, 1, 62, 0
1, 5828, Note_on_c, 1, 67, 127
1, 5828, Note_on_c, 1, 59, 127
1, 6000, Note_off_c, 1, 67, 0
1, 6003, Note_on_c, 1, 66, 127
1, 6175, Note_off_c, 1, 59, 0
1, 6175, Note_off_c, 1, 66, 0
1, 6177, Note_on_c, 1, 52, 127
1, 6177, Note_on_c, 1, 67, 127
1, 6349, Note_off_c, 1, 52, 0
1, 6352, Note_on_c, 1, 59, 127
1, 6431, Note_off_c, 1, 67, 0
1, 6524, Note_off_c, 1, 59, 0
1, 6527, Note_on_c, 1, 64, 127
1, 6527, Note_on_c, 1, 83, 127
1, 6699, Note_off_c, 1, 64, 0
1, 6702, Note_on_c, 1, 62, 127
1, 6874, Note_off_c, 1, 62, 0
1, 6876, Note_on_c, 1, 61, 127
1, 7049, Note_off_c, 1, 83, 0
1, 7051, Note_on_c, 1, 79, 127
1, 7223, Note_off_c, 1, 61, 0
1, 7223, Note_off_c, 1, 79, 0
1, 7226, Note_on_c, 1, 76, 127
1, 7226, Note_on_c, 1, 59, 127
1, 7398, Note_off_c, 1, 76, 0
1, 7400, Note_on_c, 1, 74, 127
1, 7572, Note_off_c, 1, 74, 0
1, 7573, Note_off_c, 1, 59, 0
1, 7575, Note_on_c, 1, 73, 127
1, 7575, Note_on_c, 1, 57, 127
1, 7747, Note_off_c, 1, 73, 0
1, 7750, Note_on_c, 1, 76, 127
1, 7922, Note_off_c, 1, 57, 0
1, 7922, Note_off_c, 1, 76, 0
1, 7925, Note_on_c, 1, 69, 127
1, 7925, Note_on_c, 1, 55, 127
1, 8097, Note_off_c, 1, 69, 0
1, 8099, Note_on_c, 1, 67, 127
1, 8271, Note_off_c, 1, 67, 0
1, 8272, Note_off_c, 1, 55, 0
1, 8274, Note_on_c, 1, 69, 127
1, 8274, Note_on_c, 1, 54, 127
1, 8446, Note_off_c, 1, 69, 0
1, 8449, Note_on_c, 1, 73, 127
1, 8621, Note_off_c, 1, 54, 0
1, 8621, Note_off_c, 1, 73, 0
1, 8624, Note_on_c, 1, 66, 127
1, 8624, Note_on_c, 1, 52, 127
1, 8796, Note_off_c, 1, 66, 0
1, 8798, Note_on_c, 1, 64, 127
1, 8970, Note_off_c, 1, 64, 0
1, 8971, Note_off_c, 1, 52, 0
1, 8973, Note_on_c, 1, 50, 127
1, 8973, Note_on_c, 1, 66, 127
1, 9145, Note_off_c, 1, 50, 0
1, 9148, Note_on_c, 1, 57, 127
1, 9227, Note_off_c, 1, 66, 0
1, 9320, Note_off_c, 1, 57, 0
1, 9322, Note_on_c, 1, 62, 127
1, 9322, Note_on_c, 1, 81, 127
1, 9494, Note_off_c, 1, 62, 0
1, 9497, Note_on_c, 1, 61, 127
1, 9669, Note_off_c, 1, 61, 0
1, 9672, Note_on_c, 1, 59, 127
1, 9844, Note_off_c, 1, 81, 0
1, 9847, Note_on_c, 1, 78, 127
1, 10019, Note_off_c, 1, 59, 0
1, 10019, Note_off_c, 1, 78, 0
1, 10021, Note_on_c, 1, 74, 127
1, 10021, Note_on_c, 1, 57, 127
1, 10193, Note_off_c, 1, 74, 0
1, 10196, Note_on_c, 1, 73, 127
1, 10368, Note_off_c, 1, 57, 0
1, 10368, Note_off_c, 1, 73, 0
1, 10371, Note_on_c, 1, 71, 127
1, 10371, Note_on_c, 1, 55, 127
1, 10543, Note_off_c, 1, 71, 0
1, 10545, Note_on_c, 1, 74, 127
1, 10717, Note_off_c, 1, 74, 0
1, 10718, Note_off_c, 1, 55, 0
1, 10720, Note_on_c, 1, 67, 127
1, 10720, Note_on_c, 1, 54, 127
1, 10892, Note_off_c, 1, 67, 0
1, 10895, Note_on_c, 1, 66, 127
1, 11067, Note_off_c, 1, 54, 0
1, 11067, Note_off_c, 1, 66, 0
1, 11070, Note_on_c, 1, 67, 127
1, 11070, Note_on_c, 1, 52, 127
1, 11242, Note_off_c, 1, 67, 0
1, 11244, Note_on_c, 1, 71, 127
1, 11416, Note_off_c, 1, 71, 0
1, 11417, Note_off_c, 1, 52, 0
1, 11419, Note_on_c, 1, 76, 127
1, 11419, Note_on_c, 1, 50, 127
1, 11591, Note_off_c, 1, 76, 0
1, 11594, Note_on_c, 1, 74, 127
1, 11766, Note_off_c, 1, 50, 0
1, 11766, Note_off_c, 1, 74, 0
1, 11768, Note_on_c, 1, 49, 127
1, 11768, Note_on_c, 1, 76, 127
1, 11940, Note_off_c, 1, 49, 0
1, 11943, Note_on_c, 1, 52, 127
1, 12115, Note_off_c, 1, 52, 0
1, 12118, Note_on_c, 1, 57, 127
1, 12208, Note_off_c, 1, 76, 0
1, 12290, Note_off_c, 1, 57, 0
1, 12293, Note_on_c, 1, 64, 127
1, 12293, Note_on_c, 1, 55, 127
1, 12465, Note_off_c, 1, 64, 0
1, 12465, Note_off_c, 1, 55, 0
1, 12467, Note_on_c, 1, 66, 127
1, 12467, Note_on_c, 1, 57, 127
1, 12639, Note_off_c, 1, 66, 0
1, 12642, Note_on_c, 1, 69, 127
1, 12814, Note_off_c, 1, 69, 0
1, 12817, Note_on_c, 1, 74, 127
1, 12989, Note_off_c, 1, 57, 0
1, 12989, Note_off_c, 1, 74, 0
1, 12992, Note_on_c, 1, 73, 127
1, 12992, Note_on_c, 1, 54, 127
1, 13164, Note_off_c, 1, 73, 0
1, 13164, Note_off_c, 1, 54, 0
1, 13166, Note_on_c, 1, 47, 127
1, 13166, Note_on_c, 1, 74, 127
1, 13338, Note_off_c, 1, 47, 0
1, 13341, Note_on_c, 1, 54, 127
1, 13513, Note_off_c, 1, 54, 0
1, 13516, Note_on_c, 1, 59, 127
1, 13637, Note_off_c, 1, 74, 0
1, 13688, Note_off_c, 1, 59, 0
1, 13690, Note_on_c, 1, 71, 127
1, 13690, Note_on_c, 1, 57, 127
1, 13862, Note_off_c, 1, 71, 0
1, 13862, Note_off_c, 1, 57, 0
1, 13865, Note_on_c, 1, 76, 127
1, 13865, Note_on_c, 1, 55, 127
1, 14037, Note_off_c, 1, 76, 0
1, 14040, Note_on_c, 1, 79, 127
1, 14212, Note_off_c, 1, 55, 0
1, 14212, Note_off_c, 1, 79, 0
1, 14215, Note_on_c, 1, 83, 127
1, 14215, Note_on_c, 1, 57, 127
1, 14387, Note_off_c, 1, 83, 0
1, 14389, Note_on_c, 1, 73, 127
1, 14561, Note_off_c, 1, 73, 0
1, 14562, Note_off_c, 1, 57, 0
1, 14564, Note_on_c, 1, 74, 127
1, 14564, Note_on_c, 1, 50, 127
1, 14680, Note_off_c, 1, 74, 0
1, 14739, Note_on_c, 1, 66, 127
1, 14911, Note_off_c, 1, 66, 0
1, 14913, Note_on_c, 1, 71, 127
1, 15085, Note_off_c, 1, 71, 0
1, 15088, Note_on_c, 1, 70, 127
1, 15260, Note_off_c, 1, 70, 0
1, 15364, Note_off_c, 1, 50, 0
1, 15438, Note_on_c, 1, 47, 127
1, 15610, Note_off_c, 1, 47, 0
1, 15612, Note_on_c, 1, 55, 127
1, 15784, Note_off_c, 1, 55, 0
1, 15787, Note_on_c, 1, 54, 127
1, 15959, Note_off_c, 1, 54, 0
1, 16311, Note_on_c, 1, 76, 127
1, 16311, Note_on_c, 1, 49, 127
1, 16483, Note_off_c, 1, 76, 0
1, 16486, Note_on_c, 1, 74, 127
1, 16658, Note_off_c, 1, 74, 0
1, 16784, Note_off_c, 1, 49, 0
1, 16835, Note_on_c, 1, 54, 127
1, 17007, Note_off_c, 1, 54, 0
1, 17010, Note_on_c, 1, 59, 127
1, 17182, Note_off_c, 1, 59, 0
1, 17185, Note_on_c, 1, 58, 127
1, 17357, Note_off_c, 1, 58, 0
1, 17709, Note_on_c, 1, 80, 127
1, 17709, Note_on_c, 1, 47, 127
1, 17881, Note_off_c, 1, 80, 0
1, 17884, Note_on_c, 1, 78, 127
1, 18056, Note_off_c, 1, 78, 0
1, 18182, Note_off_c, 1, 47, 0
1, 18233, Note_on_c, 1, 53, 127
1, 18405, Note_off_c, 1, 53, 0
1, 18408, Note_on_c, 1, 57, 127
1, 18580, Note_off_c, 1, 57, 0
1, 18583, Note_on_c, 1, 56, 127
1, 18755, Note_off_c, 1, 56, 0
1, 18932, Note_on_c, 1, 73, 127
1, 19104, Note_off_c, 1, 73, 0
1, 19281, Note_on_c, 1, 77, 127
1, 19453, Note_off_c, 1, 77, 0
1, 19631, Note_on_c, 1, 81, 127
1, 19631, Note_on_c, 1, 54, 127
1, 19803, Note_off_c, 1, 81, 0
1, 19803, Note_off_c, 1, 54, 0
1, 19806, Note_on_c, 1, 80, 127
1, 19806, Note_on_c, 1, 59, 127
1, 19978, Note_off_c, 1, 80, 0
1, 19978, Note_off_c, 1, 59, 0
1, 19980, Note_on_c, 1, 78, 127
1, 19980, Note_on_c, 1, 57, 127
1, 20152, Note_off_c, 1, 78, 0
1, 20152, Note_off_c, 1, 57, 0
1, 20155, Note_on_c, 1, 59, 127
1, 20155, Note_on_c, 1, 77, 127
1, 20327, Note_off_c, 1, 59, 0
1, 20330, Note_on_c, 1, 62, 127
1, 20482, Note_off_c, 1, 77, 0
1, 20502, Note_off_c, 1, 62, 0
1, 20504, Note_on_c, 1, 61, 127
1, 20504, Note_on_c, 1, 73, 127
1, 20676, Note_off_c, 1, 61, 0
1, 20679, Note_on_c, 1, 59, 127
1, 20777, Note_off_c, 1, 73, 0
1, 20851, Note_off_c, 1, 59, 0
1, 20854, Note_on_c, 1, 57, 127
1, 20854, Note_on_c, 1, 78, 127
1, 21026, Note_off_c, 1, 57, 0
1, 21029, Note_on_c, 1, 54, 127
1, 21201, Note_off_c, 1, 54, 0
1, 21203, Note_on_c, 1, 59, 127
1, 21375, Note_off_c, 1, 59, 0
1, 21376, Note_off_c, 1, 78, 0
1, 21378, Note_on_c, 1, 76, 127
1, 21378, Note_on_c, 1, 58, 127
1, 21550, Note_off_c, 1, 76, 0
1, 21550, Note_off_c, 1, 58, 0
1, 21553, Note_on_c, 1, 74, 127
1, 21553, Note_on_c, 1, 59, 127
1, 21725, Note_off_c, 1, 74, 0
1, 21728, Note_on_c, 1, 66, 127
1, 21900, Note_off_c, 1, 59, 0
1, 21900, Note_off_c, 1, 66, 0
1, 21902, Note_on_c, 1, 71, 127
1, 21902, Note_on_c, 1, 57, 127
1, 22074, Note_off_c, 1, 71, 0
1, 22077, Note_on_c, 1, 69, 127
1, 22249, Note_off_c, 1, 57, 0
1, 22249, Note_off_c, 1, 69, 0
1, 22252, Note_on_c, 1, 56, 127
1, 22252, Note_on_c, 1, 71, 127
1, 22424, Note_off_c, 1, 56, 0
1, 22426, Note_on_c, 1, 53, 127
1, 22598, Note_off_c, 1, 53, 0
1, 22601, Note_on_c, 1, 62, 127
1, 22773, Note_off_c, 1, 62, 0
1, 22776, Note_on_c, 1, 61, 127
1, 22948, Note_off_c, 1, 61, 0
1, 23052, Note_off_c, 1, 71, 0
1, 23125, Note_on_c, 1, 69, 127
1, 23297, Note_off_c, 1, 69, 0
1, 23300, Note_on_c, 1, 68, 127
1, 23300, Note_on_c, 1, 59, 127
1, 23472, Note_off_c, 1, 68, 0
1, 23475, Note_on_c, 1, 71, 127
1, 23647, Note_off_c, 1, 59, 0
1, 23647, Note_off_c, 1, 71, 0
1, 23649, Note_on_c, 1, 65, 127
1, 23649, Note_on_c, 1, 56, 127
1, 23821, Note_off_c, 1, 65, 0
1, 23824, Note_on_c, 1, 74, 127
1, 23996, Note_off_c, 1, 56, 0
1, 23996, Note_off_c, 1, 74, 0
1, 23999, Note_on_c, 1, 73, 127
1, 23999, Note_on_c, 1, 53, 127
1, 24171, Note_off_c, 1, 73, 0
1, 24174, Note_on_c, 1, 71, 127
1, 24346, Note_off_c, 1, 53, 0
1, 24346, Note_off_c, 1, 71, 0
1, 24348, Note_on_c, 1, 69, 127
1, 24348, Note_on_c, 1, 54, 127
1, 24520, Note_off_c, 1, 69, 0
1, 24523, Note_on_c, 1, 65, 127
1, 24695, Note_off_c, 1, 54, 0
1, 24695, Note_off_c, 1, 65, 0
1, 24698, Note_on_c, 1, 66, 127
1, 24698, Note_on_c, 1, 47, 127
1, 24870, Note_off_c, 1, 66, 0
1, 24872, Note_on_c, 1, 71, 127
1, 25044, Note_off_c, 1, 71, 0
1, 25045, Note_off_c, 1, 47, 0
1, 25047, Note_on_c, 1, 71, 127
1, 25047, Note_on_c, 1, 49, 127
1, 25132, Note_off_c, 1, 71, 0
1, 25135, Note_on_c, 1, 69, 127
1, 25220, Note_off_c, 1, 69, 0
1, 25394, Note_off_c, 1, 49, 0
1, 25397, Note_on_c, 1, 68, 127
1, 25397, Note_on_c, 1, 37, 127
1, 25569, Note_off_c, 1, 68, 0
1, 25571, Note_on_c, 1, 66, 127
1, 25743, Note_off_c, 1, 66, 0
1, 25744, Note_off_c, 1, 37, 0
1, 25746, Note_on_c, 1, 42, 127
1, 25746, Note_on_c, 1, 66, 127
1, 25918, Note_off_c, 1, 42, 0
1, 25921, Note_on_c, 1, 54, 127
1, 26093, Note_off_c, 1, 54, 0
1, 26096, Note_on_c, 1, 64, 127
1, 26268, Note_off_c, 1, 64, 0
1, 26270, Note_on_c, 1, 62, 127
1, 26442, Note_off_c, 1, 62, 0
1, 26969, Note_on_c, 1, 61, 127
1, 27141, Note_off_c, 1, 66, 0
1, 27141, Note_off_c, 1, 61, 0
1, 27144, Note_on_c, 1, 62, 127
1, 27316, Note_off_c, 1, 62, 0
1, 27319, Note_on_c, 1, 71, 127
1, 27319, Note_on_c, 1, 54, 127
1, 27491, Note_off_c, 1, 71, 0
1, 27491, Note_off_c, 1, 54, 0
1, 27493, Note_on_c, 1, 76, 127
1, 27493, Note_on_c, 1, 61, 127
1, 27665, Note_off_c, 1, 76, 0
1, 27665, Note_off_c, 1, 61, 0
1, 27668, Note_on_c, 1, 74, 127
1, 27668, Note_on_c, 1, 59, 127
1, 27840, Note_off_c, 1, 74, 0
1, 27840, Note_off_c, 1, 59, 0
1, 27843, Note_on_c, 1, 61, 127
1, 27843, Note_on_c, 1, 76, 127
1, 28015, Note_off_c, 1, 61, 0
1, 28017, Note_on_c, 1, 70, 127
1, 28017, Note_on_c, 1, 54, 127
1, 28170, Note_off_c, 1, 76, 0
1, 28189, Note_off_c, 1, 70, 0
1, 28189, Note_off_c, 1, 54, 0
1, 28192, Note_on_c, 1, 74, 127
1, 28192, Note_on_c, 1, 59, 127
1, 28364, Note_off_c, 1, 74, 0
1, 28364, Note_off_c, 1, 59, 0
1, 28367, Note_on_c, 1, 73, 127
1, 28367, Note_on_c, 1, 58, 127
1, 28539, Note_off_c, 1, 73, 0
1, 28539, Note_off_c, 1, 58, 0
1, 28542, Note_on_c, 1, 74, 127
1, 28542, Note_on_c, 1, 59, 127
1, 28716, Note_on_c, 1, 68, 127
1, 28851, Note_off_c, 1, 74, 0
1, 28888, Note_off_c, 1, 68, 0
1, 28891, Note_on_c, 1, 73, 127
1, 29063, Note_off_c, 1, 73, 0
1, 29066, Note_on_c, 1, 71, 127
1, 29238, Note_off_c, 1, 71, 0
1, 29413, Note_off_c, 1, 59, 0
1, 29415, Note_on_c, 1, 53, 127
1, 29587, Note_off_c, 1, 53, 0
1, 29590, Note_on_c, 1, 57, 127
1, 29762, Note_off_c, 1, 57, 0
1, 29765, Note_on_c, 1, 56, 127
1, 29937, Note_off_c, 1, 56, 0
1, 30114, Note_on_c, 1, 66, 127
1, 30286, Note_off_c, 1, 66, 0
1, 30289, Note_on_c, 1, 74, 127
1, 30289, Note_on_c, 1, 54, 127
1, 30461, Note_off_c, 1, 74, 0
1, 30464, Note_on_c, 1, 73, 127
1, 30636, Note_off_c, 1, 54, 0
1, 30636, Note_off_c, 1, 73, 0
1, 30638, Note_on_c, 1, 66, 127
1, 30638, Note_on_c, 1, 61, 127
1, 30723, Note_off_c, 1, 66, 0
1, 30726, Note_on_c, 1, 65, 127
1, 30811, Note_off_c, 1, 65, 0
1, 30985, Note_off_c, 1, 61, 0
1, 30988, Note_on_c, 1, 49, 127
1, 31335, Note_off_c, 1, 49, 0
1, 31337, Note_on_c, 1, 66, 127
1, 31337, Note_on_c, 1, 54, 127
1, 31512, Note_on_c, 1, 64, 127
1, 31684, Note_off_c, 1, 64, 0
1, 31687, Note_on_c, 1, 62, 127
1, 31687, Note_on_c, 1, 58, 127
1, 31859, Note_off_c, 1, 62, 0
1, 31861, Note_on_c, 1, 61, 127
1, 32033, Note_off_c, 1, 61, 0
1, 32209, Note_off_c, 1, 58, 0
1, 32211, Note_on_c, 1, 59, 127
1, 32383, Note_off_c, 1, 59, 0
1, 32560, Note_on_c, 1, 56, 127
1, 32732, Note_off_c, 1, 56, 0
1, 33537, Note_off_c, 1, 66, 0
1, 33537, Note_off_c, 1, 54, 0
1, 33608, Note_on_c, 1, 73, 127
1, 33780, Note_off_c, 1, 73, 0
1, 33783, Note_on_c, 1, 68, 127
1, 33955, Note_off_c, 1, 68, 0
1, 33958, Note_on_c, 1, 71, 127
1, 34130, Note_off_c, 1, 71, 0
1, 34133, Note_on_c, 1, 70, 127
1, 34307, Note_on_c, 1, 66, 127
1, 34479, Note_off_c, 1, 66, 0
1, 34482, Note_on_c, 1, 61, 127
1, 34624, Note_off_c, 1, 70, 0
1, 34654, Note_off_c, 1, 61, 0
1, 34657, Note_on_c, 1, 73, 127
1, 34657, Note_on_c, 1, 64, 127
1, 34829, Note_off_c, 1, 73, 0
1, 34829, Note_off_c, 1, 64, 0
1, 34832, Note_on_c, 1, 66, 127
1, 34832, Note_on_c, 1, 62, 127
1, 35004, Note_off_c, 1, 66, 0
1, 35006, Note_on_c, 1, 78, 127
1, 35178, Note_off_c, 1, 78, 0
1, 35179, Note_off_c, 1, 62, 0
1, 35181, Note_on_c, 1, 73, 127
1, 35181, Note_on_c, 1, 58, 127
1, 35353, Note_off_c, 1, 73, 0
1, 35356, Note_on_c, 1, 76, 127
1, 35526, Note_off_c, 1, 58, 0
1, 35528, Note_off_c, 1, 76, 0
1, 35530, Note_on_c, 1, 74, 127
1, 35705, Note_on_c, 1, 59, 127
1, 35877, Note_off_c, 1, 59, 0
1, 35880, Note_on_c, 1, 54, 127
1, 36021, Note_off_c, 1, 74, 0
1, 36052, Note_off_c, 1, 54, 0
1, 36055, Note_on_c, 1, 78, 127
1, 36055, Note_on_c, 1, 57, 127
1, 36227, Note_off_c, 1, 78, 0
1, 36227, Note_off_c, 1, 57, 0
1, 36229, Note_on_c, 1, 71, 127
1, 36229, Note_on_c, 1, 55, 127
1, 36401, Note_off_c, 1, 71, 0
1, 36404, Note_on_c, 1, 83, 127
1, 36576, Note_off_c, 1, 55, 0
1, 36576, Note_off_c, 1, 83, 0
1, 36579, Note_on_c, 1, 78, 127
1, 36579, Note_on_c, 1, 51, 127
1, 36751, Note_off_c, 1, 78, 0
1, 36753, Note_on_c, 1, 81, 127
1, 36925, Note_off_c, 1, 81, 0
1, 36926, Note_off_c, 1, 51, 0
1, 36928, Note_on_c, 1, 79, 127
1, 36928, Note_on_c, 1, 52, 127
1, 37100, Note_off_c, 1, 79, 0
1, 37103, Note_on_c, 1, 76, 127
1, 37275, Note_off_c, 1, 52, 0
1, 37275, Note_off_c, 1, 76, 0
1, 37278, Note_on_c, 1, 71, 127
1, 37278, Note_on_c, 1, 55, 127
1, 37450, Note_off_c, 1, 71, 0
1, 37452, Note_on_c, 1, 74, 127
1, 37624, Note_off_c, 1, 74, 0
1, 37625, Note_off_c, 1, 55, 0
1, 37627, Note_on_c, 1, 72, 127
1, 37627, Note_on_c, 1, 57, 127
1, 37799, Note_off_c, 1, 72, 0
1, 37802, Note_on_c, 1, 79, 127
1, 37974, Note_off_c, 1, 57, 0
1, 37974, Note_off_c, 1, 79, 0
1, 37976, Note_on_c, 1, 78, 127
1, 37976, Note_on_c, 1, 60, 127
1, 38148, Note_off_c, 1, 78, 0
1, 38151, Note_on_c, 1, 81, 127
1, 38285, Note_off_c, 1, 60, 0
1, 38323, Note_off_c, 1, 81, 0
1, 38326, Note_on_c, 1, 76, 127
1, 38498, Note_off_c, 1, 76, 0
1, 38501, Note_on_c, 1, 75, 127
1, 38501, Note_on_c, 1, 59, 127
1, 38673, Note_off_c, 1, 75, 0
1, 38673, Note_off_c, 1, 59, 0
1, 38675, Note_on_c, 1, 73, 127
1, 38675, Note_on_c, 1, 54, 127
1, 38847, Note_off_c, 1, 73, 0
1, 38847, Note_off_c, 1, 54, 0
1, 38850, Note_on_c, 1, 57, 127
1, 38850, Note_on_c, 1, 71, 127
1, 39022, Note_off_c, 1, 57, 0
1, 39025, Note_on_c, 1, 55, 127
1, 39050, Note_off_c, 1, 71, 0
1, 39200, Note_on_c, 1, 76, 127
1, 39372, Note_off_c, 1, 55, 0
1, 39372, Note_off_c, 1, 76, 0
1, 39374, Note_on_c, 1, 71, 127
1, 39374, Note_on_c, 1, 52, 127
1, 39546, Note_off_c, 1, 71, 0
1, 39549, Note_on_c, 1, 74, 127
1, 39721, Note_off_c, 1, 52, 0
1, 39721, Note_off_c, 1, 74, 0
1, 39724, Note_on_c, 1, 72, 127
1, 39724, Note_on_c, 1, 57, 127
1, 39898, Note_on_c, 1, 76, 127
1, 39924, Note_off_c, 1, 72, 0
1, 40070, Note_off_c, 1, 76, 0
1, 40071, Note_off_c, 1, 57, 0
1, 40073, Note_on_c, 1, 69, 127
1, 40073, Note_on_c, 1, 54, 127
1, 40245, Note_off_c, 1, 69, 0
1, 40248, Note_on_c, 1, 72, 127
1, 40420, Note_off_c, 1, 54, 0
1, 40420, Note_off_c, 1, 72, 0
1, 40423, Note_on_c, 1, 71, 127
1, 40423, Note_on_c, 1, 55, 127
1, 40597, Note_on_c, 1, 76, 127
1, 40623, Note_off_c, 1, 71, 0
1, 40769, Note_off_c, 1, 76, 0
1, 40770, Note_off_c, 1, 55, 0
1, 40772, Note_on_c, 1, 67, 127
1, 40772, Note_on_c, 1, 52, 127
1, 40944, Note_off_c, 1, 67, 0
1, 40947, Note_on_c, 1, 71, 127
1, 41119, Note_off_c, 1, 52, 0
1, 41119, Note_off_c, 1, 71, 0
1, 41121, Note_on_c, 1, 69, 127
1, 41121, Note_on_c, 1, 60, 127
1, 41296, Note_on_c, 1, 76, 127
1, 41321, Note_off_c, 1, 69, 0
1, 41468, Note_off_c, 1, 60, 0
1, 41468, Note_off_c, 1, 76, 0
1, 41471, Note_on_c, 1, 66, 127
1, 41471, Note_on_c, 1, 57, 127
1, 41643, Note_off_c, 1, 66, 0
1, 41646, Note_on_c, 1, 69, 127
1, 41818, Note_off_c, 1, 57, 0
1, 41818, Note_off_c, 1, 69, 0
1, 41820, Note_on_c, 1, 67, 127
1, 41820, Note_on_c, 1, 59, 127
1, 41995, Note_on_c, 1, 76, 127
1, 42020, Note_off_c, 1, 67, 0
1, 42167, Note_off_c, 1, 59, 0
1, 42167, Note_off_c, 1, 76, 0
1, 42170, Note_on_c, 1, 64, 127
1, 42170, Note_on_c, 1, 55, 127
1, 42342, Note_off_c, 1, 64, 0
1, 42344, Note_on_c, 1, 67, 127
1, 42516, Note_off_c, 1, 67, 0
1, 42517, Note_off_c, 1, 55, 0
1, 42519, Note_on_c, 1, 66, 127
1, 42519, Note_on_c, 1, 57, 127
1, 42691, Note_off_c, 1, 66, 0
1, 42694, Note_on_c, 1, 76, 127
1, 42866, Note_off_c, 1, 57, 0
1, 42866, Note_off_c, 1, 76, 0
1, 42869, Note_on_c, 1, 75, 127
1, 42869, Note_on_c, 1, 54, 127
1, 43041, Note_off_c, 1, 75, 0
1, 43043, Note_on_c, 1, 81, 127
1, 43215, Note_off_c, 1, 81, 0
1, 43216, Note_off_c, 1, 54, 0
1, 43218, Note_on_c, 1, 76, 127
1, 43218, Note_on_c, 1, 47, 127
1, 43303, Note_off_c, 1, 76, 0
1, 43305, Note_on_c, 1, 78, 127
1, 43390, Note_off_c, 1, 47, 0
1, 43390, Note_off_c, 1, 78, 0
1, 43393, Note_on_c, 1, 79, 127
1, 43393, Note_on_c, 1, 59, 127
1, 43478, Note_off_c, 1, 79, 0
1, 43480, Note_on_c, 1, 78, 127
1, 43565, Note_off_c, 1, 59, 0
1, 43565, Note_off_c, 1, 78, 0
1, 43568, Note_on_c, 1, 79, 127
1, 43568, Note_on_c, 1, 54, 127
1, 43653, Note_off_c, 1, 79, 0
1, 43655, Note_on_c, 1, 78, 127
1, 43740, Note_off_c, 1, 54, 0
1, 43740, Note_off_c, 1, 78, 0
1, 43742, Note_on_c, 1, 76, 127
1, 43742, Note_on_c, 1, 57, 127
1, 43914, Note_off_c, 1, 76, 0
1, 43914, Note_off_c, 1, 57, 0
1, 43917, Note_on_c, 1, 55, 127
1, 43917, Note_on_c, 1, 76, 127
1, 44089, Note_off_c, 1, 55, 0
1, 44092, Note_on_c, 1, 59, 127
1, 44264, Note_off_c, 1, 59, 0
1, 44266, Note_on_c, 1, 51, 127
1, 44426, Note_off_c, 1, 76, 0
1, 44438, Note_off_c, 1, 51, 0
1, 44441, Note_on_c, 1, 54, 127
1, 44613, Note_off_c, 1, 54, 0
1, 44616, Note_on_c, 1, 52, 127
1, 44791, Note_on_c, 1, 79, 127
1, 44963, Note_off_c, 1, 52, 0
1, 44963, Note_off_c, 1, 79, 0
1, 44965, Note_on_c, 1, 71, 127
1, 44965, Note_on_c, 1, 55, 127
1, 45137, Note_off_c, 1, 71, 0
1, 45140, Note_on_c, 1, 74, 127
1, 45312, Note_off_c, 1, 55, 0
1, 45312, Note_off_c, 1, 74, 0
1, 45315, Note_on_c, 1, 57, 127
1, 45315, Note_on_c, 1, 73, 127
1, 45487, Note_off_c, 1, 57, 0
1, 45489, Note_on_c, 1, 69, 127
1, 45661, Note_off_c, 1, 69, 0
1, 45664, Note_on_c, 1, 64, 127
1, 45824, Note_off_c, 1, 73, 0
1, 45836, Note_off_c, 1, 64, 0
1, 45839, Note_on_c, 1, 76, 127
1, 45839, Note_on_c, 1, 67, 127
1, 46011, Note_off_c, 1, 76, 0
1, 46011, Note_off_c, 1, 67, 0
1, 46014, Note_on_c, 1, 69, 127
1, 46014, Note_on_c, 1, 66, 127
1, 46186, Note_off_c, 1, 69, 0
1, 46188, Note_on_c, 1, 81, 127
1, 46360, Note_off_c, 1, 81, 0
1, 46361, Note_off_c, 1, 66, 0
1, 46363, Note_on_c, 1, 76, 127
1, 46363, Note_on_c, 1, 61, 127
1, 46535, Note_off_c, 1, 76, 0
1, 46538, Note_on_c, 1, 79, 127
1, 46708, Note_off_c, 1, 61, 0
1, 46710, Note_off_c, 1, 79, 0
1, 46712, Note_on_c, 1, 78, 127
1, 46887, Note_on_c, 1, 62, 127
1, 47059, Note_off_c, 1, 62, 0
1, 47062, Note_on_c, 1, 58, 127
1, 47234, Note_off_c, 1, 58, 0
1, 47237, Note_on_c, 1, 61, 127
1, 47409, Note_off_c, 1, 61, 0
1, 47411, Note_on_c, 1, 59, 127
1, 47494, Note_off_c, 1, 78, 0
1, 47586, Note_on_c, 1, 74, 127
1, 47758, Note_off_c, 1, 59, 0
1, 47758, Note_off_c, 1, 74, 0
1, 47761, Note_on_c, 1, 70, 127
1, 47761, Note_on_c, 1, 54, 127
1, 47933, Note_off_c, 1, 70, 0
1, 47936, Note_on_c, 1, 73, 127
1, 48108, Note_off_c, 1, 54, 0
1, 48108, Note_off_c, 1, 73, 0
1, 48110, Note_on_c, 1, 55, 127
1, 48110, Note_on_c, 1, 71, 127
1, 48282, Note_off_c, 1, 55, 0
1, 48285, Note_on_c, 1, 67, 127
1, 48457, Note_off_c, 1, 67, 0
1, 48460, Note_on_c, 1, 62, 127
1, 48619, Note_off_c, 1, 71, 0
1, 48632, Note_off_c, 1, 62, 0
1, 48634, Note_on_c, 1, 74, 127
1, 48634, Note_on_c, 1, 66, 127
1, 48806, Note_off_c, 1, 74, 0
1, 48806, Note_off_c, 1, 66, 0
1, 48809, Note_on_c, 1, 67, 127
1, 48809, Note_on_c, 1, 64, 127
1, 48981, Note_off_c, 1, 67, 0
1, 48984, Note_on_c, 1, 79, 127
1, 49156, Note_off_c, 1, 64, 0
1, 49156, Note_off_c, 1, 79, 0
1, 49159, Note_on_c, 1, 74, 127
1, 49159, Note_on_c, 1, 59, 127
1, 49331, Note_off_c, 1, 74, 0
1, 49333, Note_on_c, 1, 78, 127
1, 49504, Note_off_c, 1, 59, 0
1, 49505, Note_off_c, 1, 78, 0
1, 49508, Note_on_c, 1, 76, 127
1, 49683, Note_on_c, 1, 61, 127
1, 49855, Note_off_c, 1, 61, 0
1, 49857, Note_on_c, 1, 56, 127
1, 50029, Note_off_c, 1, 56, 0
1, 50032, Note_on_c, 1, 59, 127
1, 50204, Note_off_c, 1, 59, 0
1, 50207, Note_on_c, 1, 58, 127
1, 50290, Note_off_c, 1, 76, 0
1, 50382, Note_on_c, 1, 73, 127
1, 50554, Note_off_c, 1, 58, 0
1, 50554, Note_off_c, 1, 73, 0
1, 50556, Note_on_c, 1, 68, 127
1, 50556, Note_on_c, 1, 53, 127
1, 50728, Note_off_c, 1, 68, 0
1, 50731, Note_on_c, 1, 71, 127
1, 50903, Note_off_c, 1, 53, 0
1, 50903, Note_off_c, 1, 71, 0
1, 50906, Note_on_c, 1, 54, 127
1, 50906, Note_on_c, 1, 70, 127
1, 51078, Note_off_c, 1, 54, 0
1, 51080, Note_on_c, 1, 66, 127
1, 51252, Note_off_c, 1, 66, 0
1, 51255, Note_on_c, 1, 61, 127
1, 51415, Note_off_c, 1, 70, 0
1, 51427, Note_off_c, 1, 61, 0
1, 51430, Note_on_c, 1, 73, 127
1, 51430, Note_on_c, 1, 64, 127
1, 51602, Note_off_c, 1, 73, 0
1, 51602, Note_off_c, 1, 64, 0
1, 51605, Note_on_c, 1, 66, 127
1, 51605, Note_on_c, 1, 62, 127
1, 51777, Note_off_c, 1, 66, 0
1, 51779, Note_on_c, 1, 78, 127
1, 51951, Note_off_c, 1, 78, 0
1, 51952, Note_off_c, 1, 62, 0
1, 51954, Note_on_c, 1, 73, 127
1, 51954, Note_on_c, 1, 58, 127
1, 52126, Note_off_c, 1, 73, 0
1, 52129, Note_on_c, 1, 76, 127
1, 52299, Note_off_c, 1, 58, 0
1, 52301, Note_off_c, 1, 76, 0
1, 52304, Note_on_c, 1, 74, 127
1, 52478, Note_on_c, 1, 59, 127
1, 52650, Note_off_c, 1, 59, 0
1, 52653, Note_on_c, 1, 54, 127
1, 52825, Note_off_c, 1, 54, 0
1, 52828, Note_on_c, 1, 57, 127
1, 53000, Note_off_c, 1, 57, 0
1, 53002, Note_on_c, 1, 55, 127
1, 53123, Note_off_c, 1, 74, 0
1, 53177, Note_on_c, 1, 71, 127
1, 53349, Note_off_c, 1, 55, 0
1, 53349, Note_off_c, 1, 71, 0
1, 53352, Note_on_c, 1, 66, 127
1, 53352, Note_on_c, 1, 51, 127
1, 53524, Note_off_c, 1, 66, 0
1, 53527, Note_on_c, 1, 69, 127
1, 53699, Note_off_c, 1, 51, 0
1, 53699, Note_off_c, 1, 69, 0
1, 53701, Note_on_c, 1, 67, 127
1, 53701, Note_on_c, 1, 52, 127
1, 53873, Note_off_c, 1, 67, 0
1, 53876, Note_on_c, 1, 71, 127
1, 54048, Note_off_c, 1, 52, 0
1, 54048, Note_off_c, 1, 71, 0
1, 54051, Note_on_c, 1, 64, 127
1, 54051, Note_on_c, 1, 50, 127
1, 54223, Note_off_c, 1, 64, 0
1, 54225, Note_on_c, 1, 74, 127
1, 54397, Note_off_c, 1, 74, 0
1, 54398, Note_off_c, 1, 50, 0
1, 54400, Note_on_c, 1, 73, 127
1, 54400, Note_on_c, 1, 52, 127
1, 54572, Note_off_c, 1, 73, 0
1, 54575, Note_on_c, 1, 76, 127
1, 54747, Note_off_c, 1, 52, 0
1, 54747, Note_off_c, 1, 76, 0
1, 54750, Note_on_c, 1, 79, 127
1, 54750, Note_on_c, 1, 49, 127
1, 54922, Note_off_c, 1, 79, 0
1, 54924, Note_on_c, 1, 71, 127
1, 55095, Note_off_c, 1, 49, 0
1, 55096, Note_off_c, 1, 71, 0
1, 55099, Note_on_c, 1, 70, 127
1, 55271, Note_off_c, 1, 70, 0
1, 55274, Note_on_c, 1, 73, 127
1, 55274, Note_on_c, 1, 54, 127
1, 55446, Note_off_c, 1, 73, 0
1, 55446, Note_off_c, 1, 54, 0
1, 55448, Note_on_c, 1, 49, 127
1, 55448, Note_on_c, 1, 66, 127
1, 55620, Note_off_c, 1, 49, 0
1, 55623, Note_on_c, 1, 52, 127
1, 55793, Note_off_c, 1, 66, 0
1, 55795, Note_off_c, 1, 52, 0
1, 55798, Note_on_c, 1, 50, 127
1, 55973, Note_on_c, 1, 71, 127
1, 56145, Note_off_c, 1, 50, 0
1, 56145, Note_off_c, 1, 71, 0
1, 56147, Note_on_c, 1, 66, 127
1, 56147, Note_on_c, 1, 47, 127
1, 56319, Note_off_c, 1, 66, 0
1, 56322, Note_on_c, 1, 69, 127
1, 56494, Note_off_c, 1, 47, 0
1, 56494, Note_off_c, 1, 69, 0
1, 56497, Note_on_c, 1, 67, 127
1, 56497, Note_on_c, 1, 52, 127
1, 56672, Note_on_c, 1, 71, 127
1, 56697, Note_off_c, 1, 67, 0
1, 56844, Note_off_c, 1, 52, 0
1, 56844, Note_off_c, 1, 71, 0
1, 56846, Note_on_c, 1, 64, 127
1, 56846, Note_on_c, 1, 49, 127
1, 57018, Note_off_c, 1, 64, 0
1, 57021, Note_on_c, 1, 67, 127
1, 57193, Note_off_c, 1, 49, 0
1, 57193, Note_off_c, 1, 67, 0
1, 57196, Note_on_c, 1, 66, 127
1, 57196, Note_on_c, 1, 50, 127
1, 57370, Note_on_c, 1, 71, 127
1, 57396, Note_off_c, 1, 66, 0
1, 57542, Note_off_c, 1, 71, 0
1, 57543, Note_off_c, 1, 50, 0
1, 57545, Note_on_c, 1, 62, 127
1, 57545, Note_on_c, 1, 47, 127
1, 57717, Note_off_c, 1, 62, 0
1, 57720, Note_on_c, 1, 66, 127
1, 57892, Note_off_c, 1, 47, 0
1, 57892, Note_off_c, 1, 66, 0
1, 57895, Note_on_c, 1, 64, 127
1, 57895, Note_on_c, 1, 55, 127
1, 58069, Note_on_c, 1, 71, 127
1, 58095, Note_off_c, 1, 64, 0
1, 58241, Note_off_c, 1, 71, 0
1, 58242, Note_off_c, 1, 55, 0
1, 58244, Note_on_c, 1, 61, 127
1, 58244, Note_on_c, 1, 52, 127
1, 58416, Note_off_c, 1, 61, 0
1, 58419, Note_on_c, 1, 64, 127
1, 58591, Note_off_c, 1, 52, 0
1, 58591, Note_off_c, 1, 64, 0
1, 58593, Note_on_c, 1, 62, 127
1, 58593, Note_on_c, 1, 54, 127
1, 58768, Note_on_c, 1, 71, 127
1, 58793, Note_off_c, 1, 62, 0
1, 58940, Note_off_c, 1, 54, 0
1, 58940, Note_off_c, 1, 71, 0
1, 58943, Note_on_c, 1, 59, 127
1, 58943, Note_on_c, 1, 50, 127
1, 59115, Note_off_c, 1, 59, 0
1, 59118, Note_on_c, 1, 62, 127
1, 59290, Note_off_c, 1, 50, 0
1, 59290, Note_off_c, 1, 62, 0
1, 59292, Note_on_c, 1, 61, 127
1, 59292, Note_on_c, 1, 52, 127
1, 59464, Note_off_c, 1, 61, 0
1, 59467, Note_on_c, 1, 71, 127
1, 59639, Note_off_c, 1, 52, 0
1, 59639, Note_off_c, 1, 71, 0
1, 59642, Note_on_c, 1, 70, 127
1, 59642, Note_on_c, 1, 49, 127
1, 59814, Note_off_c, 1, 70, 0
1, 59816, Note_on_c, 1, 76, 127
1, 59988, Note_off_c, 1, 76, 0
1, 59989, Note_off_c, 1, 49, 0
1, 59991, Note_on_c, 1, 74, 127
1, 59991, Note_on_c, 1, 54, 127
1, 60076, Note_off_c, 1, 74, 0
1, 60079, Note_on_c, 1, 73, 127
1, 60164, Note_off_c, 1, 73, 0
1, 60338, Note_off_c, 1, 54, 0
1, 60341, Note_on_c, 1, 74, 127
1, 60341, Note_on_c, 1, 42, 127
1, 60426, Note_off_c, 1, 74, 0
1, 60428, Note_on_c, 1, 73, 127
1, 60513, Note_off_c, 1, 73, 0
1, 60515, Note_on_c, 1, 71, 127
1, 60687, Note_off_c, 1, 71, 0
1, 60688, Note_off_c, 1, 42, 0
1, 60690, Note_on_c, 1, 71, 127
1, 60690, Note_on_c, 1, 43, 127
1, 60826, Note_off_c, 1, 71, 0
1, 60865, Note_on_c, 1, 67, 127
1, 61037, Note_off_c, 1, 67, 0
1, 61040, Note_on_c, 1, 78, 127
1, 61212, Note_off_c, 1, 78, 0
1, 61214, Note_on_c, 1, 75, 127
1, 61386, Note_off_c, 1, 75, 0
1, 61389, Note_on_c, 1, 76, 127
1, 61527, Note_off_c, 1, 43, 0
1, 61564, Note_on_c, 1, 40, 127
1, 61736, Note_off_c, 1, 40, 0
1, 61738, Note_on_c, 1, 49, 127
1, 61910, Note_off_c, 1, 49, 0
1, 61913, Note_on_c, 1, 46, 127
1, 62085, Note_off_c, 1, 46, 0
1, 62088, Note_on_c, 1, 47, 127
1, 62208, Note_off_c, 1, 76, 0
1, 62437, Note_on_c, 1, 80, 127
1, 62609, Note_off_c, 1, 80, 0
1, 62612, Note_on_c, 1, 77, 127
1, 62784, Note_off_c, 1, 77, 0
1, 62925, Note_off_c, 1, 47, 0
1, 63136, Note_on_c, 1, 52, 127
1, 63308, Note_off_c, 1, 52, 0
1, 63311, Note_on_c, 1, 76, 127
1, 63311, Note_on_c, 1, 49, 127
1, 63483, Note_off_c, 1, 76, 0
1, 63483, Note_off_c, 1, 49, 0
1, 63486, Note_on_c, 1, 74, 127
1, 63486, Note_on_c, 1, 55, 127
1, 63666, Note_off_c, 1, 74, 0
1, 63668, Note_on_c, 1, 73, 127
1, 63848, Note_off_c, 1, 73, 0
1, 63851, Note_off_c, 1, 55, 0
1, 63853, Note_on_c, 1, 74, 127
1, 63853, Note_on_c, 1, 52, 127
1, 64033, Note_off_c, 1, 74, 0
1, 64039, Note_on_c, 1, 71, 127
1, 64218, Note_off_c, 1, 52, 0
1, 64219, Note_off_c, 1, 71, 0
1, 64225, Note_on_c, 1, 71, 127
1, 64225, Note_on_c, 1, 54, 127
1, 64314, Note_off_c, 1, 71, 0
1, 64317, Note_on_c, 1, 70, 127
1, 64406, Note_off_c, 1, 70, 0
1, 64590, Note_off_c, 1, 54, 0
1, 64596, Note_on_c, 1, 71, 127
1, 64596, Note_on_c, 1, 42, 127
1, 64685, Note_off_c, 1, 71, 0
1, 64689, Note_on_c, 1, 70, 127
1, 64778, Note_off_c, 1, 70, 0
1, 64961, Note_off_c, 1, 42, 0
1, 64967, Note_on_c, 1, 71, 127
1, 64967, Note_on_c, 1, 47, 127
1, 65155, Note_on_c, 1, 57, 127
1, 65338, Note_off_c, 1, 57, 0
1, 65346, Note_on_c, 1, 55, 127
1, 65346, Note_on_c, 1, 63, 127
1, 65529, Note_off_c, 1, 55, 0
1, 65537, Note_on_c, 1, 54, 127
1, 65720, Note_off_c, 1, 54, 0
1, 65913, Note_off_c, 1, 63, 0
1, 65928, Note_on_c, 1, 64, 127
1, 66122, Note_off_c, 1, 64, 0
1, 66334, Note_on_c, 1, 52, 127
1, 66334, Note_on_c, 1, 61, 127
1, 66528, Note_off_c, 1, 52, 0
1, 66528, Note_off_c, 1, 61, 0
1, 67867, Note_off_c, 1, 71, 0
1, 68367, Note_off_c, 1, 47, 0
1, 68678, Note_on_c, 1, 78, 127
1, 68830, Note_off_c, 1, 78, 0
1, 68860, Note_on_c, 1, 71, 127
1, 68860, Note_on_c, 1, 74, 127
1, 68860, Note_on_c, 1, 78, 127
1, 69033, Note_on_c, 1, 64, 127
1, 69204, Note_off_c, 1, 64, 0
1, 69206, Note_on_c, 1, 62, 127
1, 69377, Note_off_c, 1, 62, 0
1, 69379, Note_on_c, 1, 61, 127
1, 69550, Note_off_c, 1, 61, 0
1, 69725, Note_on_c, 1, 59, 127
1, 69882, Note_off_c, 1, 71, 0
1, 69882, Note_off_c, 1, 74, 0
1, 69892, Note_off_c, 1, 59, 0
1, 69898, Note_on_c, 1, 58, 127
1, 70048, Note_off_c, 1, 78, 0
1, 70071, Note_on_c, 1, 79, 127
1, 70241, Note_off_c, 1, 58, 0
1, 70242, Note_off_c, 1, 79, 0
1, 70244, Note_on_c, 1, 78, 127
1, 70244, Note_on_c, 1, 61, 127
1, 70415, Note_off_c, 1, 78, 0
1, 70417, Note_on_c, 1, 76, 127
1, 70587, Note_off_c, 1, 61, 0
1, 70588, Note_off_c, 1, 76, 0
1, 70589, Note_on_c, 1, 78, 127
1, 70589, Note_on_c, 1, 54, 127
1, 70760, Note_off_c, 1, 78, 0
1, 70762, Note_on_c, 1, 73, 127
1, 70932, Note_off_c, 1, 54, 0
1, 70933, Note_off_c, 1, 73, 0
1, 70935, Note_on_c, 1, 59, 127
1, 70935, Note_on_c, 1, 74, 127
1, 71108, Note_on_c, 1, 73, 127
1, 71278, Note_off_c, 1, 59, 0
1, 71279, Note_off_c, 1, 73, 0
1, 71281, Note_on_c, 1, 71, 127
1, 71281, Note_on_c, 1, 62, 127
1, 71452, Note_off_c, 1, 71, 0
1, 71454, Note_on_c, 1, 70, 127
1, 71624, Note_off_c, 1, 62, 0
1, 71625, Note_off_c, 1, 70, 0
1, 71800, Note_on_c, 1, 66, 127
1, 71971, Note_off_c, 1, 66, 0
1, 71973, Note_on_c, 1, 52, 127
1, 71973, Note_on_c, 1, 67, 127
1, 72123, Note_off_c, 1, 74, 0
1, 72316, Note_off_c, 1, 52, 0
1, 72318, Note_on_c, 1, 55, 127
1, 72661, Note_off_c, 1, 55, 0
1, 72837, Note_on_c, 1, 76, 127
1, 73008, Note_off_c, 1, 76, 0
1, 73010, Note_on_c, 1, 54, 127
1, 73181, Note_off_c, 1, 67, 0
1, 73514, Note_off_c, 1, 54, 0
1, 73529, Note_on_c, 1, 64, 127
1, 73700, Note_off_c, 1, 64, 0
1, 73875, Note_on_c, 1, 61, 127
1, 74046, Note_off_c, 1, 61, 0
1, 74047, Note_on_c, 1, 62, 127
1, 74047, Note_on_c, 1, 71, 127
1, 74218, Note_off_c, 1, 62, 0
1, 74220, Note_on_c, 1, 64, 127
1, 74390, Note_off_c, 1, 71, 0
1, 74391, Note_off_c, 1, 64, 0
1, 74393, Note_on_c, 1, 73, 127
1, 74393, Note_on_c, 1, 62, 127
1, 74476, Note_off_c, 1, 73, 0
1, 74479, Note_on_c, 1, 71, 127
1, 74562, Note_off_c, 1, 62, 0
1, 74562, Note_off_c, 1, 71, 0
1, 74564, Note_on_c, 1, 73, 127
1, 74564, Note_on_c, 1, 61, 127
1, 74647, Note_off_c, 1, 73, 0
1, 74650, Note_on_c, 1, 71, 127
1, 74733, Note_off_c, 1, 61, 0
1, 74733, Note_off_c, 1, 71, 0
1, 74735, Note_on_c, 1, 73, 127
1, 74735, Note_on_c, 1, 62, 127
1, 74818, Note_off_c, 1, 73, 0
1, 74821, Note_on_c, 1, 71, 127
1, 74904, Note_off_c, 1, 62, 0
1, 74904, Note_off_c, 1, 71, 0
1, 74906, Note_on_c, 1, 70, 127
1, 74906, Note_on_c, 1, 59, 127
1, 74989, Note_off_c, 1, 70, 0
1, 74992, Note_on_c, 1, 71, 127
1, 75075, Note_off_c, 1, 59, 0
1, 75075, Note_off_c, 1, 71, 0
1, 75078, Note_on_c, 1, 61, 127
1, 75078, Note_on_c, 1, 71, 127
1, 75249, Note_off_c, 1, 61, 0
1, 75250, Note_on_c, 1, 59, 127
1, 75250, Note_on_c, 1, 76, 127
1, 75276, Note_off_c, 1, 71, 0
1, 75421, Note_off_c, 1, 59, 0
1, 75423, Note_on_c, 1, 58, 127
1, 75423, Note_on_c, 1, 73, 127
1, 75573, Note_off_c, 1, 76, 0
1, 75594, Note_off_c, 1, 58, 0
1, 75596, Note_on_c, 1, 56, 127
1, 75596, Note_on_c, 1, 78, 127
1, 75767, Note_off_c, 1, 56, 0
1, 75767, Note_off_c, 1, 78, 0
1, 75769, Note_on_c, 1, 74, 127
1, 75927, Note_off_c, 1, 73, 0
1, 75940, Note_off_c, 1, 74, 0
1, 75942, Note_on_c, 1, 54, 127
1, 75942, Note_on_c, 1, 73, 127
1, 76113, Note_off_c, 1, 54, 0
1, 76113, Note_off_c, 1, 73, 0
1, 76115, Note_on_c, 1, 59, 127
1, 76115, Note_on_c, 1, 74, 127
1, 76115, Note_on_c, 1, 71, 127
1, 76286, Note_off_c, 1, 59, 0
1, 76286, Note_off_c, 1, 74, 0
1, 76288, Note_on_c, 1, 52, 127
1, 76288, Note_on_c, 1, 76, 127
1, 76457, Note_off_c, 1, 71, 0
1, 76459, Note_off_c, 1, 52, 0
1, 76459, Note_off_c, 1, 76, 0
1, 76461, Note_on_c, 1, 74, 127
1, 76461, Note_on_c, 1, 54, 127
1, 76461, Note_on_c, 1, 70, 127
1, 76546, Note_off_c, 1, 74, 0
1, 76546, Note_on_c, 1, 73, 127
1, 76631, Note_off_c, 1, 73, 0
1, 76801, Note_off_c, 1, 54, 0
1, 76803, Note_on_c, 1, 42, 127
1, 76976, Note_on_c, 1, 78, 127
1, 77141, Note_off_c, 1, 70, 0
1, 77146, Note_off_c, 1, 42, 0
1, 77147, Note_off_c, 1, 78, 0
1, 77149, Note_on_c, 1, 47, 127
1, 77149, Note_on_c, 1, 74, 127
1, 77149, Note_on_c, 1, 71, 127
1, 77320, Note_off_c, 1, 47, 0
1, 77322, Note_on_c, 1, 67, 127
1, 77493, Note_off_c, 1, 67, 0
1, 77494, Note_on_c, 1, 66, 127
1, 77616, Note_off_c, 1, 74, 0
1, 77665, Note_off_c, 1, 71, 0
1, 77665, Note_off_c, 1, 66, 0
1, 77667, Note_on_c, 1, 64, 127
1, 77667, Note_on_c, 1, 73, 127
1, 77838, Note_off_c, 1, 64, 0
1, 77838, Note_off_c, 1, 73, 0
1, 77840, Note_on_c, 1, 66, 127
1, 77840, Note_on_c, 1, 71, 127
1, 78011, Note_off_c, 1, 66, 0
1, 78011, Note_off_c, 1, 71, 0
1, 78013, Note_on_c, 1, 62, 127
1, 78013, Note_on_c, 1, 73, 127
1, 78184, Note_off_c, 1, 62, 0
1, 78184, Note_off_c, 1, 73, 0
1, 78186, Note_on_c, 1, 59, 127
1, 78186, Note_on_c, 1, 74, 127
1, 78357, Note_off_c, 1, 59, 0
1, 78357, Note_off_c, 1, 74, 0
1, 78359, Note_on_c, 1, 64, 127
1, 78359, Note_on_c, 1, 79, 127
1, 78530, Note_off_c, 1, 64, 0
1, 78530, Note_off_c, 1, 79, 0
1, 78532, Note_on_c, 1, 62, 127
1, 78532, Note_on_c, 1, 78, 127
1, 78703, Note_off_c, 1, 62, 0
1, 78703, Note_off_c, 1, 78, 0
1, 78705, Note_on_c, 1, 61, 127
1, 78705, Note_on_c, 1, 76, 127
1, 78876, Note_off_c, 1, 61, 0
1, 78876, Note_off_c, 1, 76, 0
1, 78878, Note_on_c, 1, 62, 127
1, 78878, Note_on_c, 1, 78, 127
1, 79049, Note_off_c, 1, 62, 0
1, 79049, Note_off_c, 1, 78, 0
1, 79051, Note_on_c, 1, 59, 127
1, 79051, Note_on_c, 1, 74, 127
1, 79222, Note_off_c, 1, 59, 0
1, 79222, Note_off_c, 1, 74, 0
1, 79223, Note_on_c, 1, 54, 127
1, 79223, Note_on_c, 1, 81, 127
1, 79394, Note_off_c, 1, 54, 0
1, 79396, Note_on_c, 1, 59, 127
1, 79396, Note_on_c, 1, 79, 127
1, 79567, Note_off_c, 1, 59, 0
1, 79567, Note_off_c, 1, 79, 0
1, 79569, Note_on_c, 1, 57, 127
1, 79569, Note_on_c, 1, 78, 127
1, 79740, Note_off_c, 1, 57, 0
1, 79740, Note_off_c, 1, 78, 0
1, 79742, Note_on_c, 1, 55, 127
1, 79742, Note_on_c, 1, 76, 127
1, 79913, Note_off_c, 1, 55, 0
1, 79913, Note_off_c, 1, 76, 0
1, 79915, Note_on_c, 1, 74, 127
1, 80086, Note_off_c, 1, 74, 0
1, 80088, Note_on_c, 1, 73, 127
1, 80244, Note_off_c, 1, 81, 0
1, 80259, Note_off_c, 1, 73, 0
1, 80261, Note_on_c, 1, 74, 127
1, 80261, Note_on_c, 1, 47, 127
1, 80434, Note_on_c, 1, 76, 127
1, 80443, Note_off_c, 1, 74, 0
1, 80605, Note_off_c, 1, 76, 0
1, 80607, Note_on_c, 1, 57, 127
1, 80780, Note_on_c, 1, 73, 127
1, 80950, Note_off_c, 1, 57, 0
1, 80951, Note_off_c, 1, 73, 0
1, 80952, Note_on_c, 1, 56, 127
1, 81125, Note_on_c, 1, 83, 127
1, 81275, Note_off_c, 1, 56, 0
1, 81296, Note_off_c, 1, 47, 0
1, 81296, Note_off_c, 1, 83, 0
1, 81298, Note_on_c, 1, 74, 127
1, 81298, Note_on_c, 1, 57, 127
1, 81471, Note_on_c, 1, 54, 127
1, 81641, Note_off_c, 1, 74, 0
1, 81642, Note_off_c, 1, 54, 0
1, 81644, Note_on_c, 1, 52, 127
1, 81644, Note_on_c, 1, 73, 127
1, 81815, Note_off_c, 1, 52, 0
1, 81817, Note_on_c, 1, 50, 127
1, 81988, Note_off_c, 1, 50, 0
1, 82163, Note_on_c, 1, 49, 127
1, 82184, Note_off_c, 1, 73, 0
1, 82311, Note_off_c, 1, 57, 0
1, 82324, Note_off_c, 1, 49, 0
1, 82336, Note_on_c, 1, 46, 127
1, 82336, Note_on_c, 1, 66, 127
1, 82336, Note_on_c, 1, 73, 127
1, 82336, Note_on_c, 1, 78, 127
1, 82507, Note_off_c, 1, 46, 0
1, 82509, Note_on_c, 1, 55, 127
1, 82679, Note_off_c, 1, 66, 0
1, 82679, Note_off_c, 1, 73, 0
1, 82679, Note_off_c, 1, 78, 0
1, 82680, Note_off_c, 1, 55, 0
1, 82681, Note_on_c, 1, 76, 127
1, 82681, Note_on_c, 1, 54, 127
1, 82681, Note_on_c, 1, 71, 127
1, 82764, Note_off_c, 1, 76, 0
1, 82767, Note_on_c, 1, 74, 127
1, 82850, Note_off_c, 1, 54, 0
1, 82850, Note_off_c, 1, 74, 0
1, 82853, Note_on_c, 1, 52, 127
1, 83022, Note_off_c, 1, 52, 0
1, 83181, Note_off_c, 1, 71, 0
1, 83197, Note_on_c, 1, 50, 127
1, 83197, Note_on_c, 1, 73, 127
1, 83197, Note_on_c, 1, 70, 127
1, 83368, Note_off_c, 1, 50, 0
1, 83368, Note_off_c, 1, 73, 0
1, 83368, Note_off_c, 1, 70, 0
1, 83369, Note_on_c, 1, 47, 127
1, 83369, Note_on_c, 1, 74, 127
1, 83369, Note_on_c, 1, 71, 127
1, 83540, Note_off_c, 1, 47, 0
1, 83542, Note_on_c, 1, 57, 127
1, 83713, Note_off_c, 1, 57, 0
1, 83715, Note_on_c, 1, 56, 127
1, 83885, Note_off_c, 1, 74, 0
1, 83886, Note_off_c, 1, 56, 0
1, 83888, Note_on_c, 1, 54, 127
1, 83888, Note_on_c, 1, 73, 127
1, 84053, Note_off_c, 1, 71, 0
1, 84059, Note_off_c, 1, 54, 0
1, 84059, Note_off_c, 1, 73, 0
1, 84061, Note_on_c, 1, 56, 127
1, 84061, Note_on_c, 1, 71, 127
1, 84232, Note_off_c, 1, 56, 0
1, 84234, Note_on_c, 1, 59, 127
1, 84405, Note_off_c, 1, 59, 0
1, 84407, Note_on_c, 1, 53, 127
1, 84546, Note_off_c, 1, 71, 0
1, 84578, Note_off_c, 1, 53, 0
1, 84580, Note_on_c, 1, 61, 127
1, 84580, Note_on_c, 1, 69, 127
1, 84751, Note_off_c, 1, 61, 0
1, 84751, Note_off_c, 1, 69, 0
1, 84753, Note_on_c, 1, 59, 127
1, 84753, Note_on_c, 1, 68, 127
1, 84924, Note_off_c, 1, 59, 0
1, 84924, Note_off_c, 1, 68, 0
1, 84926, Note_on_c, 1, 57, 127
1, 84926, Note_on_c, 1, 66, 127
1, 85097, Note_off_c, 1, 57, 0
1, 85097, Note_off_c, 1, 66, 0
1, 85098, Note_on_c, 1, 59, 127
1, 85098, Note_on_c, 1, 68, 127
1, 85269, Note_off_c, 1, 59, 0
1, 85269, Note_off_c, 1, 68, 0
1, 85271, Note_on_c, 1, 62, 127
1, 85271, Note_on_c, 1, 71, 127
1, 85442, Note_off_c, 1, 62, 0
1, 85442, Note_off_c, 1, 71, 0
1, 85444, Note_on_c, 1, 65, 127
1, 85444, Note_on_c, 1, 61, 127
1, 85617, Note_on_c, 1, 49, 127
1, 85788, Note_off_c, 1, 49, 0
1, 85790, Note_on_c, 1, 47, 127
1, 85961, Note_off_c, 1, 47, 0
1, 85963, Note_on_c, 1, 45, 127
1, 86134, Note_off_c, 1, 45, 0
1, 86308, Note_off_c, 1, 65, 0
1, 86309, Note_on_c, 1, 44, 127
1, 86379, Note_off_c, 1, 61, 0
1, 86478, Note_off_c, 1, 44, 0
1, 86480, Note_on_c, 1, 45, 127
1, 86480, Note_on_c, 1, 73, 127
1, 86480, Note_on_c, 1, 66, 127
1, 86480, Note_on_c, 1, 61, 127
1, 86651, Note_off_c, 1, 45, 0
1, 86653, Note_on_c, 1, 47, 127
1, 86823, Note_off_c, 1, 73, 0
1, 86823, Note_off_c, 1, 66, 0
1, 86823, Note_off_c, 1, 61, 0
1, 86824, Note_off_c, 1, 47, 0
1, 86826, Note_on_c, 1, 74, 127
1, 86826, Note_on_c, 1, 45, 127
1, 86909, Note_off_c, 1, 74, 0
1, 86911, Note_on_c, 1, 73, 127
1, 86994, Note_off_c, 1, 73, 0
1, 86995, Note_off_c, 1, 45, 0
1, 86997, Note_on_c, 1, 74, 127
1, 86997, Note_on_c, 1, 44, 127
1, 87080, Note_off_c, 1, 74, 0
1, 87082, Note_on_c, 1, 73, 127
1, 87165, Note_off_c, 1, 73, 0
1, 87166, Note_off_c, 1, 44, 0
1, 87168, Note_on_c, 1, 74, 127
1, 87168, Note_on_c, 1, 45, 127
1, 87251, Note_off_c, 1, 74, 0
1, 87253, Note_on_c, 1, 73, 127
1, 87336, Note_off_c, 1, 73, 0
1, 87337, Note_off_c, 1, 45, 0
1, 87339, Note_on_c, 1, 72, 127
1, 87339, Note_on_c, 1, 42, 127
1, 87422, Note_off_c, 1, 72, 0
1, 87424, Note_on_c, 1, 73, 127
1, 87508, Note_off_c, 1, 42, 0
1, 87510, Note_on_c, 1, 41, 127
1, 87510, Note_on_c, 1, 80, 127
1, 87681, Note_off_c, 1, 41, 0
1, 88026, Note_off_c, 1, 80, 0
1, 88029, Note_on_c, 1, 39, 127
1, 88029, Note_on_c, 1, 83, 127
1, 88200, Note_off_c, 1, 39, 0
1, 88200, Note_off_c, 1, 83, 0
1, 88202, Note_on_c, 1, 81, 127
1, 88373, Note_off_c, 1, 81, 0
1, 88374, Note_on_c, 1, 37, 127
1, 88545, Note_off_c, 1, 37, 0
1, 88720, Note_on_c, 1, 52, 127
1, 88803, Note_off_c, 1, 73, 0
1, 88889, Note_off_c, 1, 52, 0
1, 88891, Note_on_c, 1, 81, 127
1, 88891, Note_on_c, 1, 50, 127
1, 88891, Note_on_c, 1, 71, 127
1, 88976, Note_off_c, 1, 81, 0
1, 88977, Note_on_c, 1, 80, 127
1, 89060, Note_off_c, 1, 50, 0
1, 89062, Note_off_c, 1, 80, 0
1, 89062, Note_on_c, 1, 49, 127
1, 89231, Note_off_c, 1, 49, 0
1, 89404, Note_off_c, 1, 71, 0
1, 89406, Note_on_c, 1, 45, 127
1, 89406, Note_on_c, 1, 69, 127
1, 89406, Note_on_c, 1, 78, 127
1, 89577, Note_off_c, 1, 45, 0
1, 89577, Note_off_c, 1, 69, 0
1, 89577, Note_off_c, 1, 78, 0
1, 89579, Note_on_c, 1, 47, 127
1, 89579, Note_on_c, 1, 77, 127
1, 89579, Note_on_c, 1, 68, 127
1, 89750, Note_off_c, 1, 47, 0
1, 89752, Note_on_c, 1, 59, 127
1, 89923, Note_off_c, 1, 59, 0
1, 89925, Note_on_c, 1, 57, 127
1, 90028, Note_off_c, 1, 77, 0
1, 90094, Note_off_c, 1, 68, 0
1, 90094, Note_off_c, 1, 57, 0
1, 90096, Note_on_c, 1, 56, 127
1, 90096, Note_on_c, 1, 77, 127
1, 90267, Note_off_c, 1, 56, 0
1, 90267, Note_off_c, 1, 77, 0
1, 90269, Note_on_c, 1, 57, 127
1, 90269, Note_on_c, 1, 78, 127
1, 90269, Note_on_c, 1, 66, 127
1, 90269, Note_on_c, 1, 73, 127
1, 90440, Note_off_c, 1, 57, 0
1, 90442, Note_on_c, 1, 54, 127
1, 90613, Note_off_c, 1, 54, 0
1, 90615, Note_on_c, 1, 62, 127
1, 90764, Note_off_c, 1, 78, 0
1, 90785, Note_off_c, 1, 66, 0
1, 90785, Note_off_c, 1, 73, 0
1, 90786, Note_off_c, 1, 62, 0
1, 90788, Note_on_c, 1, 59, 127
1, 90788, Note_on_c, 1, 80, 127
1, 90959, Note_off_c, 1, 59, 0
1, 90959, Note_off_c, 1, 80, 0
1, 90961, Note_on_c, 1, 81, 127
1, 90961, Note_on_c, 1, 61, 127
1, 90961, Note_on_c, 1, 77, 127
1, 91044, Note_off_c, 1, 81, 0
1, 91046, Note_on_c, 1, 80, 127
1, 91129, Note_off_c, 1, 80, 0
1, 91301, Note_off_c, 1, 61, 0
1, 91303, Note_on_c, 1, 49, 127
1, 91461, Note_off_c, 1, 77, 0
1, 91476, Note_on_c, 1, 78, 127
1, 91646, Note_off_c, 1, 49, 0
1, 91647, Note_off_c, 1, 78, 0
1, 91649, Note_on_c, 1, 54, 127
1, 91649, Note_on_c, 1, 78, 127
1, 91993, Note_on_c, 1, 42, 127
1, 92337, Note_on_c, 1, 49, 127
1, 92679, Note_off_c, 1, 54, 0
1, 92679, Note_off_c, 1, 49, 0
1, 92681, Note_on_c, 1, 70, 127
1, 92681, Note_on_c, 1, 66, 127
1, 92681, Note_on_c, 1, 73, 127
1, 93361, Note_off_c, 1, 70, 0
1, 93361, Note_off_c, 1, 66, 0
1, 93361, Note_off_c, 1, 73, 0
1, 93367, Note_off_c, 1, 42, 0
1, 93405, Note_off_c, 1, 78, 0
1, 93714, Note_on_c, 1, 54, 127
1, 93714, Note_on_c, 1, 73, 127
1, 93887, Note_on_c, 1, 71, 127
1, 94057, Note_off_c, 1, 54, 0
1, 94058, Note_off_c, 1, 71, 0
1, 94060, Note_on_c, 1, 70, 127
1, 94060, Note_on_c, 1, 42, 127
1, 94231, Note_off_c, 1, 70, 0
1, 94233, Note_on_c, 1, 68, 127
1, 94403, Note_off_c, 1, 42, 0
1, 94404, Note_off_c, 1, 68, 0
1, 94579, Note_on_c, 1, 66, 127
1, 94752, Note_on_c, 1, 52, 127
1, 94752, Note_on_c, 1, 58, 127
1, 94922, Note_off_c, 1, 73, 0
1, 94922, Note_off_c, 1, 66, 0
1, 94923, Note_off_c, 1, 52, 0
1, 94925, Note_on_c, 1, 74, 127
1, 95096, Note_off_c, 1, 74, 0
1, 95270, Note_on_c, 1, 50, 127
1, 95436, Note_off_c, 1, 58, 0
1, 95441, Note_off_c, 1, 50, 0
1, 95443, Note_on_c, 1, 52, 127
1, 95443, Note_on_c, 1, 73, 127
1, 95614, Note_off_c, 1, 52, 0
1, 95614, Note_off_c, 1, 73, 0
1, 95616, Note_on_c, 1, 49, 127
1, 95616, Note_on_c, 1, 70, 127
1, 95787, Note_off_c, 1, 49, 0
1, 95787, Note_off_c, 1, 70, 0
1, 95789, Note_on_c, 1, 50, 127
1, 95789, Note_on_c, 1, 71, 127
1, 95962, Note_on_c, 1, 54, 127
1, 96133, Note_off_c, 1, 54, 0
1, 96135, Note_on_c, 1, 59, 127
1, 96293, Note_off_c, 1, 50, 0
1, 96305, Note_off_c, 1, 71, 0
1, 96308, Note_on_c, 1, 49, 127
1, 96308, Note_on_c, 1, 73, 127
1, 96477, Note_off_c, 1, 59, 0
1, 96479, Note_off_c, 1, 49, 0
1, 96479, Note_off_c, 1, 73, 0
1, 96481, Note_on_c, 1, 47, 127
1, 96481, Note_on_c, 1, 74, 127
1, 96652, Note_off_c, 1, 47, 0
1, 96652, Note_off_c, 1, 74, 0
1, 96654, Note_on_c, 1, 54, 127
1, 96654, Note_on_c, 1, 76, 127
1, 96825, Note_off_c, 1, 54, 0
1, 96825, Note_off_c, 1, 76, 0
1, 96827, Note_on_c, 1, 59, 127
1, 96827, Note_on_c, 1, 74, 127
1, 96998, Note_off_c, 1, 59, 0
1, 96998, Note_off_c, 1, 74, 0
1, 96999, Note_on_c, 1, 57, 127
1, 96999, Note_on_c, 1, 73, 127
1, 97170, Note_off_c, 1, 57, 0
1, 97170, Note_off_c, 1, 73, 0
1, 97172, Note_on_c, 1, 56, 127
1, 97172, Note_on_c, 1, 74, 127
1, 97343, Note_off_c, 1, 56, 0
1, 97343, Note_off_c, 1, 74, 0
1, 97345, Note_on_c, 1, 54, 127
1, 97345, Note_on_c, 1, 71, 127
1, 97516, Note_off_c, 1, 54, 0
1, 97516, Note_off_c, 1, 71, 0
1, 97518, Note_on_c, 1, 56, 127
1, 97518, Note_on_c, 1, 76, 127
1, 97689, Note_off_c, 1, 56, 0
1, 97691, Note_on_c, 1, 52, 127
1, 97861, Note_off_c, 1, 76, 0
1, 97862, Note_off_c, 1, 52, 0
1, 97864, Note_on_c, 1, 74, 127
1, 97864, Note_on_c, 1, 45, 127
1, 97947, Note_off_c, 1, 74, 0
1, 97949, Note_on_c, 1, 73, 127
1, 98032, Note_off_c, 1, 73, 0
1, 98033, Note_off_c, 1, 45, 0
1, 98035, Note_on_c, 1, 74, 127
1, 98035, Note_on_c, 1, 52, 127
1, 98118, Note_off_c, 1, 74, 0
1, 98121, Note_on_c, 1, 73, 127
1, 98204, Note_off_c, 1, 52, 0
1, 98204, Note_off_c, 1, 73, 0
1, 98206, Note_on_c, 1, 74, 127
1, 98206, Note_on_c, 1, 57, 127
1, 98289, Note_off_c, 1, 74, 0
1, 98292, Note_on_c, 1, 73, 127
1, 98375, Note_off_c, 1, 57, 0
1, 98375, Note_off_c, 1, 73, 0
1, 98377, Note_on_c, 1, 55, 127
1, 98377, Note_on_c, 1, 71, 127
1, 98548, Note_off_c, 1, 55, 0
1, 98548, Note_off_c, 1, 71, 0
1, 98550, Note_on_c, 1, 54, 127
1, 98550, Note_on_c, 1, 69, 127
1, 98721, Note_off_c, 1, 54, 0
1, 98723, Note_on_c, 1, 52, 127
1, 98894, Note_off_c, 1, 52, 0
1, 98981, Note_off_c, 1, 69, 0
1, 99067, Note_on_c, 1, 50, 127
1, 99067, Note_on_c, 1, 83, 127
1, 99238, Note_off_c, 1, 50, 0
1, 99238, Note_off_c, 1, 83, 0
1, 99240, Note_on_c, 1, 81, 127
1, 99240, Note_on_c, 1, 62, 127
1, 99411, Note_off_c, 1, 81, 0
1, 99413, Note_on_c, 1, 79, 127
1, 99584, Note_off_c, 1, 79, 0
1, 99756, Note_off_c, 1, 62, 0
1, 99759, Note_on_c, 1, 50, 127
1, 99759, Note_on_c, 1, 78, 127
1, 99930, Note_off_c, 1, 50, 0
1, 99930, Note_off_c, 1, 78, 0
1, 99931, Note_on_c, 1, 55, 127
1, 99931, Note_on_c, 1, 83, 127
1, 100102, Note_off_c, 1, 55, 0
1, 100104, Note_on_c, 1, 54, 127
1, 100275, Note_off_c, 1, 54, 0
1, 100447, Note_off_c, 1, 83, 0
1, 100450, Note_on_c, 1, 57, 127
1, 100450, Note_on_c, 1, 81, 127
1, 100621, Note_off_c, 1, 57, 0
1, 100621, Note_off_c, 1, 81, 0
1, 100623, Note_on_c, 1, 59, 127
1, 100623, Note_on_c, 1, 79, 127
1, 100794, Note_off_c, 1, 59, 0
1, 100796, Note_on_c, 1, 55, 127
1, 100946, Note_off_c, 1, 79, 0
1, 100967, Note_off_c, 1, 55, 0
1, 100969, Note_on_c, 1, 78, 127
1, 100969, Note_on_c, 1, 60, 127
1, 101140, Note_off_c, 1, 78, 0
1, 101142, Note_on_c, 1, 76, 127
1, 101313, Note_off_c, 1, 76, 0
1, 101315, Note_on_c, 1, 75, 127
1, 101485, Note_off_c, 1, 60, 0
1, 101488, Note_on_c, 1, 59, 127
1, 101659, Note_off_c, 1, 59, 0
1, 101660, Note_on_c, 1, 57, 127
1, 101831, Note_off_c, 1, 75, 0
1, 101831, Note_off_c, 1, 57, 0
1, 101833, Note_on_c, 1, 55, 127
1, 101833, Note_on_c, 1, 76, 127
1, 101833, Note_on_c, 1, 79, 127
1, 102004, Note_off_c, 1, 55, 0
1, 102004, Note_off_c, 1, 76, 0
1, 102004, Note_off_c, 1, 79, 0
1, 102006, Note_on_c, 1, 54, 127
1, 102006, Note_on_c, 1, 78, 127
1, 102006, Note_on_c, 1, 81, 127
1, 102177, Note_off_c, 1, 54, 0
1, 102179, Note_on_c, 1, 55, 127
1, 102350, Note_off_c, 1, 55, 0
1, 102352, Note_on_c, 1, 57, 127
1, 102473, Note_off_c, 1, 78, 0
1, 102522, Note_off_c, 1, 81, 0
1, 102523, Note_off_c, 1, 57, 0
1, 102525, Note_on_c, 1, 54, 127
1, 102525, Note_on_c, 1, 75, 127
1, 102696, Note_off_c, 1, 54, 0
1, 102696, Note_off_c, 1, 75, 0
1, 102698, Note_on_c, 1, 55, 127
1, 102698, Note_on_c, 1, 76, 127
1, 102869, Note_off_c, 1, 55, 0
1, 102869, Note_off_c, 1, 76, 0
1, 102871, Note_on_c, 1, 60, 127
1, 102871, Note_on_c, 1, 78, 127
1, 103042, Note_off_c, 1, 60, 0
1, 103042, Note_off_c, 1, 78, 0
1, 103044, Note_on_c, 1, 59, 127
1, 103044, Note_on_c, 1, 76, 127
1, 103215, Note_off_c, 1, 59, 0
1, 103215, Note_off_c, 1, 76, 0
1, 103217, Note_on_c, 1, 57, 127
1, 103217, Note_on_c, 1, 78, 127
1, 103388, Note_off_c, 1, 57, 0
1, 103388, Note_off_c, 1, 78, 0
1, 103389, Note_on_c, 1, 79, 127
1, 103389, Note_on_c, 1, 59, 127
1, 103472, Note_off_c, 1, 79, 0
1, 103475, Note_on_c, 1, 78, 127
1, 103558, Note_off_c, 1, 59, 0
1, 103558, Note_off_c, 1, 78, 0
1, 103561, Note_on_c, 1, 79, 127
1, 103561, Note_on_c, 1, 61, 127
1, 103644, Note_off_c, 1, 79, 0
1, 103646, Note_on_c, 1, 78, 127
1, 103729, Note_off_c, 1, 78, 0
1, 103730, Note_off_c, 1, 61, 0
1, 103732, Note_on_c, 1, 79, 127
1, 103732, Note_on_c, 1, 63, 127
1, 103815, Note_off_c, 1, 79, 0
1, 103817, Note_on_c, 1, 78, 127
1, 103900, Note_off_c, 1, 78, 0
1, 103901, Note_off_c, 1, 63, 0
1, 103903, Note_on_c, 1, 76, 127
1, 103903, Note_on_c, 1, 59, 127
1, 103986, Note_off_c, 1, 76, 0
1, 103988, Note_on_c, 1, 78, 127
1, 104071, Note_off_c, 1, 78, 0
1, 104072, Note_off_c, 1, 59, 0
1, 104074, Note_on_c, 1, 79, 127
1, 104074, Note_on_c, 1, 64, 127
1, 104245, Note_off_c, 1, 79, 0
1, 104247, Note_on_c, 1, 81, 127
1, 104418, Note_off_c, 1, 81, 0
1, 104569, Note_off_c, 1, 64, 0
1, 104592, Note_on_c, 1, 62, 127
1, 104592, Note_on_c, 1, 78, 127
1, 104763, Note_off_c, 1, 62, 0
1, 104763, Note_off_c, 1, 78, 0
1, 104765, Note_on_c, 1, 60, 127
1, 104765, Note_on_c, 1, 79, 127
1, 104936, Note_off_c, 1, 60, 0
1, 104936, Note_off_c, 1, 79, 0
1, 104938, Note_on_c, 1, 59, 127
1, 104938, Note_on_c, 1, 76, 127
1, 105109, Note_off_c, 1, 59, 0
1, 105109, Note_off_c, 1, 76, 0
1, 105111, Note_on_c, 1, 60, 127
1, 105111, Note_on_c, 1, 78, 127
1, 105282, Note_off_c, 1, 60, 0
1, 105284, Note_on_c, 1, 57, 127
1, 105454, Note_off_c, 1, 78, 0
1, 105455, Note_off_c, 1, 57, 0
1, 105457, Note_on_c, 1, 76, 127
1, 105457, Note_on_c, 1, 59, 127
1, 105540, Note_off_c, 1, 76, 0
1, 105543, Note_on_c, 1, 75, 127
1, 105626, Note_off_c, 1, 75, 0
1, 105797, Note_off_c, 1, 59, 0
1, 105799, Note_on_c, 1, 76, 127
1, 105799, Note_on_c, 1, 47, 127
1, 105882, Note_off_c, 1, 76, 0
1, 105885, Note_on_c, 1, 75, 127
1, 105968, Note_off_c, 1, 75, 0
1, 106141, Note_off_c, 1, 47, 0
1, 106143, Note_on_c, 1, 52, 127
1, 106143, Note_on_c, 1, 67, 127
1, 106143, Note_on_c, 1, 71, 127
1, 106143, Note_on_c, 1, 76, 127
1, 106314, Note_off_c, 1, 52, 0
1, 106316, Note_on_c, 1, 57, 127
1, 106487, Note_off_c, 1, 57, 0
1, 106489, Note_on_c, 1, 55, 127
1, 106660, Note_off_c, 1, 55, 0
1, 106662, Note_on_c, 1, 54, 127
1, 106833, Note_off_c, 1, 54, 0
1, 107151, Note_off_c, 1, 67, 0
1, 107151, Note_off_c, 1, 71, 0
1, 107178, Note_off_c, 1, 76, 0
1, 107181, Note_on_c, 1, 61, 127
1, 107352, Note_off_c, 1, 61, 0
1, 107353, Note_on_c, 1, 62, 127
1, 107353, Note_on_c, 1, 78, 127
1, 107524, Note_off_c, 1, 62, 0
1, 107524, Note_off_c, 1, 78, 0
1, 107526, Note_on_c, 1, 61, 127
1, 107526, Note_on_c, 1, 76, 127
1, 107697, Note_off_c, 1, 61, 0
1, 107697, Note_off_c, 1, 76, 0
1, 107699, Note_on_c, 1, 59, 127
1, 107699, Note_on_c, 1, 74, 127
1, 107870, Note_off_c, 1, 59, 0
1, 107870, Note_off_c, 1, 74, 0
1, 107872, Note_on_c, 1, 61, 127
1, 107872, Note_on_c, 1, 76, 127
1, 108043, Note_off_c, 1, 61, 0
1, 108043, Note_off_c, 1, 76, 0
1, 108045, Note_on_c, 1, 57, 127
1, 108045, Note_on_c, 1, 79, 127
1, 108216, Note_off_c, 1, 57, 0
1, 108216, Note_off_c, 1, 79, 0
1, 108218, Note_on_c, 1, 67, 127
1, 108218, Note_on_c, 1, 73, 127
1, 108389, Note_off_c, 1, 67, 0
1, 108391, Note_on_c, 1, 69, 127
1, 108562, Note_off_c, 1, 69, 0
1, 108714, Note_off_c, 1, 73, 0
1, 108737, Note_on_c, 1, 66, 127
1, 108737, Note_on_c, 1, 74, 127
1, 108908, Note_off_c, 1, 66, 0
1, 108908, Note_off_c, 1, 74, 0
1, 108910, Note_on_c, 1, 67, 127
1, 108910, Note_on_c, 1, 76, 127
1, 109081, Note_off_c, 1, 67, 0
1, 109082, Note_on_c, 1, 64, 127
1, 109253, Note_off_c, 1, 64, 0
1, 109255, Note_on_c, 1, 66, 127
1, 109377, Note_off_c, 1, 76, 0
1, 109428, Note_on_c, 1, 74, 127
1, 109599, Note_off_c, 1, 74, 0
1, 109601, Note_on_c, 1, 73, 127
1, 109772, Note_off_c, 1, 73, 0
1, 109774, Note_on_c, 1, 71, 127
1, 109945, Note_off_c, 1, 71, 0
1, 110293, Note_on_c, 1, 69, 127
1, 110463, Note_off_c, 1, 66, 0
1, 110466, Note_on_c, 1, 59, 127
1, 110637, Note_off_c, 1, 59, 0
1, 110639, Note_on_c, 1, 57, 127
1, 110797, Note_off_c, 1, 69, 0
1, 110810, Note_off_c, 1, 57, 0
1, 110811, Note_on_c, 1, 55, 127
1, 110811, Note_on_c, 1, 71, 127
1, 110982, Note_off_c, 1, 55, 0
1, 110982, Note_off_c, 1, 71, 0
1, 110984, Note_on_c, 1, 57, 127
1, 110984, Note_on_c, 1, 72, 127
1, 111155, Note_off_c, 1, 57, 0
1, 111155, Note_off_c, 1, 72, 0
1, 111157, Note_on_c, 1, 54, 127
1, 111157, Note_on_c, 1, 74, 127
1, 111328, Note_off_c, 1, 54, 0
1, 111328, Note_off_c, 1, 74, 0
1, 111330, Note_on_c, 1, 62, 127
1, 111330, Note_on_c, 1, 72, 127
1, 111501, Note_off_c, 1, 62, 0
1, 111501, Note_off_c, 1, 72, 0
1, 111503, Note_on_c, 1, 55, 127
1, 111503, Note_on_c, 1, 71, 127
1, 111674, Note_off_c, 1, 55, 0
1, 111674, Note_off_c, 1, 71, 0
1, 111676, Note_on_c, 1, 54, 127
1, 111676, Note_on_c, 1, 72, 127
1, 111847, Note_off_c, 1, 54, 0
1, 111847, Note_off_c, 1, 72, 0
1, 111849, Note_on_c, 1, 52, 127
1, 111849, Note_on_c, 1, 69, 127
1, 112020, Note_off_c, 1, 52, 0
1, 112020, Note_off_c, 1, 69, 0
1, 112022, Note_on_c, 1, 54, 127
1, 112022, Note_on_c, 1, 74, 127
1, 112193, Note_off_c, 1, 54, 0
1, 112195, Note_on_c, 1, 50, 127
1, 112365, Note_off_c, 1, 74, 0
1, 112366, Note_off_c, 1, 50, 0
1, 112368, Note_on_c, 1, 55, 127
1, 112368, Note_on_c, 1, 71, 127
1, 112539, Note_off_c, 1, 55, 0
1, 112540, Note_on_c, 1, 59, 127
1, 112711, Note_off_c, 1, 59, 0
1, 112713, Note_on_c, 1, 57, 127
1, 112835, Note_off_c, 1, 71, 0
1, 112884, Note_off_c, 1, 57, 0
1, 112886, Note_on_c, 1, 55, 127
1, 112886, Note_on_c, 1, 73, 127
1, 113057, Note_off_c, 1, 55, 0
1, 113057, Note_off_c, 1, 73, 0
1, 113059, Note_on_c, 1, 54, 127
1, 113059, Note_on_c, 1, 75, 127
1, 113230, Note_off_c, 1, 54, 0
1, 113230, Note_off_c, 1, 75, 0
1, 113232, Note_on_c, 1, 52, 127
1, 113232, Note_on_c, 1, 76, 127
1, 113403, Note_off_c, 1, 52, 0
1, 113403, Note_off_c, 1, 76, 0
1, 113405, Note_on_c, 1, 51, 127
1, 113405, Note_on_c, 1, 78, 127
1, 113576, Note_off_c, 1, 51, 0
1, 113576, Note_off_c, 1, 78, 0
1, 113578, Note_on_c, 1, 52, 127
1, 113578, Note_on_c, 1, 79, 127
1, 113749, Note_off_c, 1, 52, 0
1, 113749, Note_off_c, 1, 79, 0
1, 113751, Note_on_c, 1, 51, 127
1, 113751, Note_on_c, 1, 78, 127
1, 113922, Note_off_c, 1, 51, 0
1, 113922, Note_off_c, 1, 78, 0
1, 113924, Note_on_c, 1, 49, 127
1, 113924, Note_on_c, 1, 71, 127
1, 114095, Note_off_c, 1, 49, 0
1, 114095, Note_off_c, 1, 71, 0
1, 114097, Note_on_c, 1, 51, 127
1, 114097, Note_on_c, 1, 81, 127
1, 114268, Note_off_c, 1, 51, 0
1, 114269, Note_on_c, 1, 47, 127
1, 114402, Note_off_c, 1, 81, 0
1, 114440, Note_off_c, 1, 47, 0
1, 114442, Note_on_c, 1, 52, 127
1, 114442, Note_on_c, 1, 79, 127
1, 114613, Note_off_c, 1, 52, 0
1, 114615, Note_on_c, 1, 51, 127
1, 114786, Note_off_c, 1, 51, 0
1, 114958, Note_off_c, 1, 79, 0
1, 114961, Note_on_c, 1, 54, 127
1, 114961, Note_on_c, 1, 78, 127
1, 115132, Note_off_c, 1, 54, 0
1, 115132, Note_off_c, 1, 78, 0
1, 115134, Note_on_c, 1, 55, 127
1, 115134, Note_on_c, 1, 76, 127
1, 115305, Note_off_c, 1, 55, 0
1, 115307, Note_on_c, 1, 52, 127
1, 115477, Note_off_c, 1, 76, 0
1, 115478, Note_off_c, 1, 52, 0
1, 115480, Note_on_c, 1, 74, 127
1, 115480, Note_on_c, 1, 57, 127
1, 115651, Note_off_c, 1, 74, 0
1, 115653, Note_on_c, 1, 73, 127
1, 115824, Note_off_c, 1, 73, 0
1, 115826, Note_on_c, 1, 71, 127
1, 115996, Note_off_c, 1, 57, 0
1, 115998, Note_on_c, 1, 55, 127
1, 116169, Note_off_c, 1, 55, 0
1, 116171, Note_on_c, 1, 54, 127
1, 116342, Note_off_c, 1, 71, 0
1, 116342, Note_off_c, 1, 54, 0
1, 116344, Note_on_c, 1, 52, 127
1, 116344, Note_on_c, 1, 73, 127
1, 116344, Note_on_c, 1, 76, 127
1, 116515, Note_off_c, 1, 52, 0
1, 116515, Note_off_c, 1, 73, 0
1, 116515, Note_off_c, 1, 76, 0
1, 116517, Note_on_c, 1, 50, 127
1, 116517, Note_on_c, 1, 74, 127
1, 116517, Note_on_c, 1, 78, 127
1, 116688, Note_off_c, 1, 50, 0
1, 116690, Note_on_c, 1, 52, 127
1, 116861, Note_off_c, 1, 52, 0
1, 116984, Note_off_c, 1, 74, 0
1, 117033, Note_off_c, 1, 78, 0
1, 117036, Note_on_c, 1, 49, 127
1, 117036, Note_on_c, 1, 70, 127
1, 117207, Note_off_c, 1, 49, 0
1, 117207, Note_off_c, 1, 70, 0
1, 117209, Note_on_c, 1, 50, 127
1, 117209, Note_on_c, 1, 71, 127
1, 117380, Note_off_c, 1, 50, 0
1, 117380, Note_off_c, 1, 71, 0
1, 117382, Note_on_c, 1, 47, 127
1, 117382, Note_on_c, 1, 73, 127
1, 117553, Note_off_c, 1, 47, 0
1, 117553, Note_off_c, 1, 73, 0
1, 117555, Note_on_c, 1, 55, 127
1, 117555, Note_on_c, 1, 71, 127
1, 117726, Note_off_c, 1, 55, 0
1, 117726, Note_off_c, 1, 71, 0
1, 117727, Note_on_c, 1, 54, 127
1, 117727, Note_on_c, 1, 73, 127
1, 117898, Note_off_c, 1, 54, 0
1, 117898, Note_off_c, 1, 73, 0
1, 117900, Note_on_c, 1, 74, 127
1, 117900, Note_on_c, 1, 52, 127
1, 117983, Note_off_c, 1, 74, 0
1, 117986, Note_on_c, 1, 73, 127
1, 118069, Note_off_c, 1, 52, 0
1, 118069, Note_off_c, 1, 73, 0
1, 118071, Note_on_c, 1, 74, 127
1, 118071, Note_on_c, 1, 50, 127
1, 118154, Note_off_c, 1, 74, 0
1, 118157, Note_on_c, 1, 73, 127
1, 118240, Note_off_c, 1, 50, 0
1, 118240, Note_off_c, 1, 73, 0
1, 118242, Note_on_c, 1, 74, 127
1, 118242, Note_on_c, 1, 52, 127
1, 118325, Note_off_c, 1, 74, 0
1, 118328, Note_on_c, 1, 73, 127
1, 118411, Note_off_c, 1, 52, 0
1, 118411, Note_off_c, 1, 73, 0
1, 118414, Note_on_c, 1, 71, 127
1, 118414, Note_on_c, 1, 54, 127
1, 118497, Note_off_c, 1, 71, 0
1, 118499, Note_on_c, 1, 73, 127
1, 118582, Note_off_c, 1, 73, 0
1, 118583, Note_off_c, 1, 54, 0
1, 118585, Note_on_c, 1, 47, 127
1, 118585, Note_on_c, 1, 74, 127
1, 118756, Note_off_c, 1, 47, 0
1, 118756, Note_off_c, 1, 74, 0
1, 118758, Note_on_c, 1, 54, 127
1, 118758, Note_on_c, 1, 76, 127
1, 118929, Note_off_c, 1, 54, 0
1, 118929, Note_off_c, 1, 76, 0
1, 118930, Note_on_c, 1, 59, 127
1, 118930, Note_on_c, 1, 74, 127
1, 119101, Note_off_c, 1, 59, 0
1, 119101, Note_off_c, 1, 74, 0
1, 119103, Note_on_c, 1, 57, 127
1, 119103, Note_on_c, 1, 73, 127
1, 119274, Note_off_c, 1, 57, 0
1, 119274, Note_off_c, 1, 73, 0
1, 119276, Note_on_c, 1, 55, 127
1, 119276, Note_on_c, 1, 74, 127
1, 119447, Note_off_c, 1, 55, 0
1, 119447, Note_off_c, 1, 74, 0
1, 119449, Note_on_c, 1, 54, 127
1, 119449, Note_on_c, 1, 71, 127
1, 119620, Note_off_c, 1, 54, 0
1, 119620, Note_off_c, 1, 71, 0
1, 119622, Note_on_c, 1, 52, 127
1, 119622, Note_on_c, 1, 73, 127
1, 119793, Note_off_c, 1, 52, 0
1, 119795, Note_on_c, 1, 49, 127
1, 119909, Note_off_c, 1, 73, 0
1, 119966, Note_off_c, 1, 49, 0
1, 119968, Note_on_c, 1, 71, 127
1, 119968, Note_on_c, 1, 54, 127
1, 120051, Note_off_c, 1, 71, 0
1, 120053, Note_on_c, 1, 70, 127
1, 120136, Note_off_c, 1, 70, 0
1, 120137, Note_off_c, 1, 54, 0
1, 120139, Note_on_c, 1, 71, 127
1, 120139, Note_on_c, 1, 52, 127
1, 120222, Note_off_c, 1, 71, 0
1, 120224, Note_on_c, 1, 70, 127
1, 120307, Note_off_c, 1, 70, 0
1, 120308, Note_off_c, 1, 52, 0
1, 120310, Note_on_c, 1, 71, 127
1, 120310, Note_on_c, 1, 54, 127
1, 120393, Note_off_c, 1, 71, 0
1, 120396, Note_on_c, 1, 70, 127
1, 120479, Note_off_c, 1, 54, 0
1, 120479, Note_off_c, 1, 70, 0
1, 120481, Note_on_c, 1, 42, 127
1, 120481, Note_on_c, 1, 71, 127
1, 120652, Note_off_c, 1, 42, 0
1, 120652, Note_off_c, 1, 71, 0
1, 120654, Note_on_c, 1, 43, 127
1, 120654, Note_on_c, 1, 71, 127
1, 120825, Note_off_c, 1, 43, 0
1, 120827, Note_on_c, 1, 47, 127
1, 120998, Note_off_c, 1, 47, 0
1, 121000, Note_on_c, 1, 49, 127
1, 121171, Note_off_c, 1, 49, 0
1, 121173, Note_on_c, 1, 51, 127
1, 121173, Note_on_c, 1, 69, 127
1, 121344, Note_off_c, 1, 51, 0
1, 121344, Note_off_c, 1, 69, 0
1, 121346, Note_on_c, 1, 67, 127
1, 121346, Note_on_c, 1, 52, 127
1, 121517, Note_off_c, 1, 67, 0
1, 121518, Note_on_c, 1, 66, 127
1, 121689, Note_off_c, 1, 66, 0
1, 121862, Note_off_c, 1, 52, 0
1, 121864, Note_on_c, 1, 54, 127
1, 121864, Note_on_c, 1, 64, 127
1, 122035, Note_off_c, 1, 71, 0
1, 122035, Note_off_c, 1, 54, 0
1, 122037, Note_on_c, 1, 73, 127
1, 122210, Note_on_c, 1, 50, 127
1, 122380, Note_off_c, 1, 73, 0
1, 122381, Note_off_c, 1, 50, 0
1, 122383, Note_on_c, 1, 74, 127
1, 122554, Note_off_c, 1, 74, 0
1, 122556, Note_on_c, 1, 76, 127
1, 122728, Note_off_c, 1, 64, 0
1, 122730, Note_off_c, 1, 76, 0
1, 122732, Note_on_c, 1, 66, 127
1, 122732, Note_on_c, 1, 58, 127
1, 122906, Note_off_c, 1, 66, 0
1, 122911, Note_on_c, 1, 76, 127
1, 123085, Note_off_c, 1, 58, 0
1, 123085, Note_off_c, 1, 76, 0
1, 123089, Note_on_c, 1, 74, 127
1, 123089, Note_on_c, 1, 54, 127
1, 123263, Note_off_c, 1, 74, 0
1, 123267, Note_on_c, 1, 73, 127
1, 123442, Note_off_c, 1, 54, 0
1, 123445, Note_off_c, 1, 73, 0
1, 123449, Note_on_c, 1, 74, 127
1, 123449, Note_on_c, 1, 59, 127
1, 123627, Note_off_c, 1, 74, 0
1, 123633, Note_on_c, 1, 71, 127
1, 123811, Note_off_c, 1, 59, 0
1, 123817, Note_on_c, 1, 52, 127
1, 123817, Note_on_c, 1, 79, 127
1, 123993, Note_off_c, 1, 71, 0
1, 124177, Note_off_c, 1, 52, 0
1, 124177, Note_off_c, 1, 79, 0
1, 124187, Note_on_c, 1, 74, 127
1, 124187, Note_on_c, 1, 54, 127
1, 124187, Note_on_c, 1, 70, 127
1, 124276, Note_off_c, 1, 74, 0
1, 124279, Note_on_c, 1, 73, 127
1, 124368, Note_off_c, 1, 73, 0
1, 124556, Note_off_c, 1, 54, 0
1, 124562, Note_on_c, 1, 42, 127
1, 124731, Note_off_c, 1, 70, 0
1, 124751, Note_on_c, 1, 71, 127
1, 124933, Note_off_c, 1, 42, 0
1, 124942, Note_off_c, 1, 71, 0
1, 124946, Note_on_c, 1, 71, 127
1, 124946, Note_on_c, 1, 47, 127
1, 125346, Note_on_c, 1, 50, 127
1, 125739, Note_off_c, 1, 50, 0
1, 125746, Note_on_c, 1, 54, 127
1, 126139, Note_off_c, 1, 54, 0
1, 126147, Note_on_c, 1, 62, 127
1, 126147, Note_on_c, 1, 66, 127
1, 126147, Note_on_c, 1, 59, 127
1, 128247, Note_off_c, 1, 62, 0
1, 128297, Note_off_c, 1, 66, 0
1, 128346, Note_off_c, 1, 71, 0
1, 128346, Note_off_c, 1, 47, 0
1, 128347, Note_off_c, 1, 59, 0
1, 130426, Note_on_c, 1, 71, 127
1, 130426, Note_on_c, 1, 62, 127
1, 130426, Note_on_c, 1, 59, 127
1, 130802, Note_off_c, 1, 71, 0
1, 130805, Note_on_c, 1, 74, 127
1, 131181, Note_off_c, 1, 74, 0
1, 131183, Note_on_c, 1, 78, 127
1, 131559, Note_off_c, 1, 78, 0
1, 131562, Note_on_c, 1, 83, 127
1, 131938, Note_off_c, 1, 62, 0
1, 131938, Note_off_c, 1, 59, 0
1, 131940, Note_on_c, 1, 61, 127
1, 131940, Note_on_c, 1, 64, 127
1, 132191, Note_off_c, 1, 83, 0
1, 132317, Note_on_c, 1, 82, 127
1, 132693, Note_off_c, 1, 61, 0
1, 132693, Note_off_c, 1, 64, 0
1, 132693, Note_off_c, 1, 82, 0
1, 132695, Note_on_c, 1, 83, 127
1, 132695, Note_on_c, 1, 66, 127
1, 132695, Note_on_c, 1, 62, 127
1, 133071, Note_off_c, 1, 83, 0
1, 133074, Note_on_c, 1, 78, 127
1, 133450, Note_off_c, 1, 78, 0
1, 133453, Note_on_c, 1, 76, 127
1, 133640, Note_off_c, 1, 76, 0
1, 133642, Note_on_c, 1, 74, 127
1, 133829, Note_off_c, 1, 74, 0
1, 133831, Note_on_c, 1, 73, 127
1, 134018, Note_off_c, 1, 73, 0
1, 134020, Note_on_c, 1, 71, 127
1, 134207, Note_off_c, 1, 66, 0
1, 134207, Note_off_c, 1, 62, 0
1, 134210, Note_on_c, 1, 64, 127
1, 134210, Note_on_c, 1, 61, 127
1, 134493, Note_off_c, 1, 71, 0
1, 134588, Note_on_c, 1, 70, 127
1, 134964, Note_off_c, 1, 70, 0
1, 134965, Note_off_c, 1, 64, 0
1, 134965, Note_off_c, 1, 61, 0
1, 134967, Note_on_c, 1, 71, 127
1, 134967, Note_on_c, 1, 62, 127
1, 134967, Note_on_c, 1, 59, 127
1, 135321, Note_off_c, 1, 71, 0
1, 135345, Note_on_c, 1, 79, 127
1, 135722, Note_off_c, 1, 62, 0
1, 135722, Note_off_c, 1, 59, 0
1, 135724, Note_on_c, 1, 61, 127
1, 135724, Note_on_c, 1, 57, 127
1, 135876, Note_off_c, 1, 79, 0
1, 135911, Note_on_c, 1, 78, 127
1, 136098, Note_off_c, 1, 78, 0
1, 136101, Note_on_c, 1, 76, 127
1, 136288, Note_off_c, 1, 76, 0
1, 136477, Note_off_c, 1, 61, 0
1, 136477, Note_off_c, 1, 57, 0
1, 136479, Note_on_c, 1, 55, 127
1, 136858, Note_on_c, 1, 74, 127
1, 137045, Note_off_c, 1, 74, 0
1, 137234, Note_off_c, 1, 55, 0
1, 137236, Note_on_c, 1, 54, 127
1, 137615, Note_on_c, 1, 58, 127
1, 137991, Note_off_c, 1, 58, 0
1, 138372, Note_on_c, 1, 66, 127
1, 138748, Note_off_c, 1, 54, 0
1, 139120, Note_off_c, 1, 66, 0
1, 139883, Note_on_c, 1, 73, 127
1, 139883, Note_on_c, 1, 67, 127
1, 140070, Note_off_c, 1, 73, 0
1, 140451, Note_on_c, 1, 69, 127
1, 140632, Note_off_c, 1, 67, 0
1, 140638, Note_off_c, 1, 69, 0
1, 141397, Note_on_c, 1, 64, 127
1, 142146, Note_off_c, 1, 64, 0
1, 142533, Note_on_c, 1, 52, 127
1, 143282, Note_off_c, 1, 52, 0
1, 144047, Note_on_c, 1, 81, 127
1, 144234, Note_off_c, 1, 81, 0
1, 144236, Note_on_c, 1, 83, 127
1, 144403, Note_off_c, 1, 83, 0
1, 144802, Note_on_c, 1, 66, 127
1, 144802, Note_on_c, 1, 61, 127
1, 144802, Note_on_c, 1, 57, 127
1, 144989, Note_off_c, 1, 66, 0
1, 144991, Note_on_c, 1, 64, 127
1, 145178, Note_off_c, 1, 61, 0
1, 145178, Note_off_c, 1, 57, 0
1, 145178, Note_off_c, 1, 64, 0
1, 145181, Note_on_c, 1, 66, 127
1, 145181, Note_on_c, 1, 55, 127
1, 145181, Note_on_c, 1, 62, 127
1, 145368, Note_off_c, 1, 66, 0
1, 145370, Note_on_c, 1, 74, 127
1, 145539, Note_off_c, 1, 74, 0
1, 145557, Note_off_c, 1, 55, 0
1, 145559, Note_on_c, 1, 67, 127
1, 145559, Note_on_c, 1, 57, 127
1, 145746, Note_off_c, 1, 67, 0
1, 145930, Note_off_c, 1, 62, 0
1, 145938, Note_on_c, 1, 61, 127
1, 146127, Note_on_c, 1, 64, 127
1, 146308, Note_off_c, 1, 57, 0
1, 146314, Note_off_c, 1, 61, 0
1, 146314, Note_off_c, 1, 64, 0
1, 146316, Note_on_c, 1, 62, 127
1, 146316, Note_on_c, 1, 50, 127
1, 146506, Note_on_c, 1, 52, 127
1, 146693, Note_off_c, 1, 52, 0
1, 146695, Note_on_c, 1, 54, 127
1, 146882, Note_off_c, 1, 62, 0
1, 146884, Note_on_c, 1, 57, 127
1, 147071, Note_off_c, 1, 57, 0
1, 147444, Note_off_c, 1, 54, 0
1, 147637, Note_off_c, 1, 50, 0
1, 147831, Note_on_c, 1, 45, 127
1, 148018, Note_off_c, 1, 45, 0
1, 148020, Note_on_c, 1, 42, 127
1, 148207, Note_off_c, 1, 42, 0
1, 148209, Note_on_c, 1, 38, 127
1, 148586, Note_on_c, 1, 66, 127
1, 148609, Note_off_c, 1, 38, 0
1, 148678, Note_off_c, 1, 66, 0
1, 148681, Note_on_c, 1, 64, 127
1, 148773, Note_off_c, 1, 64, 0
1, 150195, Note_on_c, 1, 67, 127
1, 150287, Note_off_c, 1, 67, 0
1, 150289, Note_on_c, 1, 69, 127
1, 150381, Note_off_c, 1, 69, 0
1, 150479, Note_on_c, 1, 61, 127
1, 150855, Note_off_c, 1, 61, 0
1, 150857, Note_on_c, 1, 54, 127
1, 150857, Note_on_c, 1, 69, 127
1, 151236, Note_on_c, 1, 62, 127
1, 151605, Note_off_c, 1, 54, 0
1, 151613, Note_on_c, 1, 57, 127
1, 151969, Note_off_c, 1, 69, 0
1, 151989, Note_off_c, 1, 57, 0
1, 151991, Note_on_c, 1, 71, 127
1, 152178, Note_off_c, 1, 71, 0
1, 152180, Note_on_c, 1, 73, 127
1, 152367, Note_off_c, 1, 73, 0
1, 152370, Note_on_c, 1, 74, 127
1, 152370, Note_on_c, 1, 52, 127
1, 152557, Note_off_c, 1, 74, 0
1, 152559, Note_on_c, 1, 76, 127
1, 152746, Note_off_c, 1, 62, 0
1, 152746, Note_off_c, 1, 76, 0
1, 152748, Note_on_c, 1, 78, 127
1, 152748, Note_on_c, 1, 61, 127
1, 152935, Note_off_c, 1, 78, 0
1, 153119, Note_off_c, 1, 52, 0
1, 153124, Note_off_c, 1, 61, 0
1, 153127, Note_on_c, 1, 78, 127
1, 153127, Note_on_c, 1, 50, 127
1, 153316, Note_on_c, 1, 74, 127
1, 153501, Note_off_c, 1, 78, 0
1, 153503, Note_off_c, 1, 50, 0
1, 153503, Note_off_c, 1, 74, 0
1, 153505, Note_on_c, 1, 73, 127
1, 153505, Note_on_c, 1, 62, 127
1, 153692, Note_off_c, 1, 73, 0
1, 153695, Note_on_c, 1, 71, 127
1, 153882, Note_off_c, 1, 71, 0
1, 153884, Note_on_c, 1, 76, 127
1, 154071, Note_off_c, 1, 62, 0
1, 154073, Note_on_c, 1, 61, 127
1, 154073, Note_on_c, 1, 69, 127
1, 154258, Note_off_c, 1, 76, 0
1, 154260, Note_off_c, 1, 61, 0
1, 154260, Note_off_c, 1, 69, 0
1, 154262, Note_on_c, 1, 59, 127
1, 154262, Note_on_c, 1, 68, 127
1, 154449, Note_off_c, 1, 59, 0
1, 154449, Note_off_c, 1, 68, 0
1, 154452, Note_on_c, 1, 69, 127
1, 154452, Note_on_c, 1, 61, 127
1, 154639, Note_off_c, 1, 69, 0
1, 154641, Note_on_c, 1, 74, 127
1, 154828, Note_off_c, 1, 61, 0
1, 154830, Note_on_c, 1, 59, 127
1, 154830, Note_on_c, 1, 68, 127
1, 155015, Note_off_c, 1, 74, 0
1, 155017, Note_off_c, 1, 59, 0
1, 155017, Note_off_c, 1, 68, 0
1, 155020, Note_on_c, 1, 57, 127
1, 155020, Note_on_c, 1, 66, 127
1, 155207, Note_off_c, 1, 57, 0
1, 155207, Note_off_c, 1, 66, 0
1, 155209, Note_on_c, 1, 59, 127
1, 155209, Note_on_c, 1, 68, 127
1, 155396, Note_off_c, 1, 59, 0
1, 155396, Note_off_c, 1, 68, 0
1, 155398, Note_on_c, 1, 57, 127
1, 155398, Note_on_c, 1, 64, 127
1, 155587, Note_on_c, 1, 68, 127
1, 155774, Note_off_c, 1, 68, 0
1, 155777, Note_on_c, 1, 71, 127
1, 155964, Note_off_c, 1, 71, 0
1, 155966, Note_on_c, 1, 74, 127
1, 156153, Note_off_c, 1, 74, 0
1, 156155, Note_on_c, 1, 73, 127
1, 156155, Note_on_c, 1, 69, 127
1, 156531, Note_off_c, 1, 57, 0
1, 156534, Note_on_c, 1, 56, 127
1, 156721, Note_off_c, 1, 56, 0
1, 156912, Note_on_c, 1, 59, 127
1, 157099, Note_off_c, 1, 59, 0
1, 157467, Note_off_c, 1, 64, 0
1, 157478, Note_on_c, 1, 54, 127
1, 157665, Note_off_c, 1, 73, 0
1, 157665, Note_off_c, 1, 69, 0
1, 157665, Note_off_c, 1, 54, 0
1, 157668, Note_on_c, 1, 53, 127
1, 157668, Note_on_c, 1, 74, 127
1, 157855, Note_off_c, 1, 53, 0
1, 157857, Note_on_c, 1, 56, 127
1, 158044, Note_off_c, 1, 56, 0
1, 158046, Note_on_c, 1, 57, 127
1, 158233, Note_off_c, 1, 57, 0
1, 158236, Note_on_c, 1, 59, 127
1, 158423, Note_off_c, 1, 59, 0
1, 158425, Note_on_c, 1, 83, 127
1, 158803, Note_on_c, 1, 54, 127
1, 158990, Note_off_c, 1, 54, 0
1, 159180, Note_off_c, 1, 74, 0
1, 159180, Note_off_c, 1, 83, 0
1, 159182, Note_on_c, 1, 54, 127
1, 159182, Note_on_c, 1, 73, 127
1, 159182, Note_on_c, 1, 81, 127
1, 159369, Note_off_c, 1, 54, 0
1, 159371, Note_on_c, 1, 56, 127
1, 159558, Note_off_c, 1, 56, 0
1, 159561, Note_on_c, 1, 57, 127
1, 159748, Note_off_c, 1, 57, 0
1, 159871, Note_off_c, 1, 73, 0
1, 159939, Note_on_c, 1, 49, 127
1, 159939, Note_on_c, 1, 71, 127
1, 159970, Note_off_c, 1, 81, 0
1, 160124, Note_off_c, 1, 49, 0
1, 160127, Note_on_c, 1, 53, 127
1, 160314, Note_off_c, 1, 53, 0
1, 160694, Note_on_c, 1, 80, 127
1, 161073, Note_on_c, 1, 51, 127
1, 161260, Note_off_c, 1, 51, 0
1, 161449, Note_off_c, 1, 71, 0
1, 161449, Note_off_c, 1, 80, 0
1, 161451, Note_on_c, 1, 50, 127
1, 161451, Note_on_c, 1, 69, 127
1, 161451, Note_on_c, 1, 78, 127
1, 161638, Note_off_c, 1, 50, 0
1, 161641, Note_on_c, 1, 52, 127
1, 161828, Note_off_c, 1, 52, 0
1, 161830, Note_on_c, 1, 54, 127
1, 162017, Note_off_c, 1, 54, 0
1, 162140, Note_off_c, 1, 69, 0
1, 162209, Note_on_c, 1, 47, 127
1, 162209, Note_on_c, 1, 68, 127
1, 162239, Note_off_c, 1, 78, 0
1, 162583, Note_off_c, 1, 47, 0
1, 162585, Note_on_c, 1, 49, 127
1, 162772, Note_off_c, 1, 49, 0
1, 163342, Note_on_c, 1, 45, 127
1, 163529, Note_off_c, 1, 45, 0
1, 163532, Note_on_c, 1, 44, 127
1, 163719, Note_off_c, 1, 44, 0
1, 163847, Note_on_c, 1, 77, 127
1, 163970, Note_off_c, 1, 77, 0
1, 164098, Note_on_c, 1, 37, 127
1, 164223, Note_on_c, 1, 75, 127
1, 164346, Note_off_c, 1, 75, 0
1, 164471, Note_off_c, 1, 68, 0
1, 164472, Note_off_c, 1, 37, 0
1, 164475, Note_on_c, 1, 42, 127
1, 164475, Note_on_c, 1, 78, 127
1, 164475, Note_on_c, 1, 69, 127
1, 164853, Note_on_c, 1, 45, 127
1, 165223, Note_off_c, 1, 42, 0
1, 165227, Note_off_c, 1, 45, 0
1, 165230, Note_on_c, 1, 49, 127
1, 165606, Note_off_c, 1, 49, 0
1, 165608, Note_on_c, 1, 54, 127
1, 165985, Note_off_c, 1, 78, 0
1, 165985, Note_off_c, 1, 69, 0
1, 165987, Note_on_c, 1, 52, 127
1, 166356, Note_off_c, 1, 54, 0
1, 166364, Note_on_c, 1, 55, 127
1, 166733, Note_off_c, 1, 52, 0
1, 166738, Note_off_c, 1, 55, 0
1, 166740, Note_on_c, 1, 72, 127
1, 166740, Note_on_c, 1, 57, 127
1, 166740, Note_on_c, 1, 51, 127
1, 166927, Note_off_c, 1, 72, 0
1, 166930, Note_on_c, 1, 71, 127
1, 167117, Note_off_c, 1, 71, 0
1, 167308, Note_on_c, 1, 78, 127
1, 167495, Note_off_c, 1, 57, 0
1, 167495, Note_off_c, 1, 78, 0
1, 167498, Note_on_c, 1, 81, 127
1, 167498, Note_on_c, 1, 59, 127
1, 167685, Note_off_c, 1, 81, 0
1, 167687, Note_on_c, 1, 79, 127
1, 167874, Note_off_c, 1, 79, 0
1, 168065, Note_on_c, 1, 84, 127
1, 168252, Note_off_c, 1, 84, 0
1, 168253, Note_off_c, 1, 59, 0
1, 168255, Note_on_c, 1, 83, 127
1, 168255, Note_on_c, 1, 60, 127
1, 168442, Note_off_c, 1, 83, 0
1, 169007, Note_off_c, 1, 51, 0
1, 169012, Note_on_c, 1, 76, 127
1, 169012, Note_on_c, 1, 52, 127
1, 169199, Note_off_c, 1, 76, 0
1, 169201, Note_on_c, 1, 75, 127
1, 169575, Note_off_c, 1, 75, 0
1, 169767, Note_off_c, 1, 60, 0
1, 170715, Note_on_c, 1, 55, 127
1, 170902, Note_off_c, 1, 55, 0
1, 170904, Note_off_c, 1, 52, 0
1, 170905, Note_on_c, 1, 54, 127
1, 171092, Note_off_c, 1, 54, 0
1, 171283, Note_on_c, 1, 50, 127
1, 171283, Note_on_c, 1, 78, 127
1, 171283, Note_on_c, 1, 71, 127
1, 171470, Note_off_c, 1, 50, 0
1, 171472, Note_on_c, 1, 49, 127
1, 171659, Note_off_c, 1, 49, 0
1, 171851, Note_on_c, 1, 54, 127
1, 172038, Note_off_c, 1, 78, 0
1, 172038, Note_off_c, 1, 71, 0
1, 172038, Note_off_c, 1, 54, 0
1, 172040, Note_on_c, 1, 59, 127
1, 172040, Note_on_c, 1, 77, 127
1, 172040, Note_on_c, 1, 73, 127
1, 172227, Note_off_c, 1, 59, 0
1, 172230, Note_on_c, 1, 58, 127
1, 172417, Note_off_c, 1, 58, 0
1, 172608, Note_on_c, 1, 62, 127
1, 172795, Note_off_c, 1, 77, 0
1, 172795, Note_off_c, 1, 73, 0
1, 172795, Note_off_c, 1, 62, 0
1, 172797, Note_on_c, 1, 61, 127
1, 172797, Note_on_c, 1, 78, 127
1, 172797, Note_on_c, 1, 74, 127
1, 172984, Note_off_c, 1, 61, 0
1, 172987, Note_on_c, 1, 59, 127
1, 173174, Note_off_c, 1, 59, 0
1, 173176, Note_on_c, 1, 57, 127
1, 173363, Note_off_c, 1, 57, 0
1, 173365, Note_on_c, 1, 56, 127
1, 173552, Note_off_c, 1, 78, 0
1, 173552, Note_off_c, 1, 56, 0
1, 173554, Note_on_c, 1, 54, 127
1, 173554, Note_on_c, 1, 80, 127
1, 173741, Note_off_c, 1, 54, 0
1, 173744, Note_on_c, 1, 53, 127
1, 173931, Note_off_c, 1, 53, 0
1, 174309, Note_off_c, 1, 74, 0
1, 174312, Note_on_c, 1, 73, 127
1, 174500, Note_off_c, 1, 80, 0
1, 174690, Note_on_c, 1, 77, 127
1, 174877, Note_off_c, 1, 77, 0
1, 175069, Note_on_c, 1, 58, 127
1, 175258, Note_on_c, 1, 76, 127
1, 175445, Note_off_c, 1, 73, 0
1, 175445, Note_off_c, 1, 76, 0
1, 175778, Note_off_c, 1, 58, 0
1, 175826, Note_on_c, 1, 74, 127
1, 175826, Note_on_c, 1, 47, 127
1, 176013, Note_off_c, 1, 74, 0
1, 176015, Note_on_c, 1, 71, 127
1, 176202, Note_off_c, 1, 71, 0
1, 176204, Note_on_c, 1, 70, 127
1, 176204, Note_on_c, 1, 50, 127
1, 176391, Note_off_c, 1, 70, 0
1, 176580, Note_off_c, 1, 50, 0
1, 176583, Note_on_c, 1, 66, 127
1, 176583, Note_on_c, 1, 54, 127
1, 176770, Note_off_c, 1, 66, 0
1, 176959, Note_off_c, 1, 54, 0
1, 176962, Note_on_c, 1, 73, 127
1, 176962, Note_on_c, 1, 59, 127
1, 177149, Note_off_c, 1, 73, 0
1, 177338, Note_off_c, 1, 47, 0
1, 177340, Note_on_c, 1, 64, 127
1, 177340, Note_on_c, 1, 49, 127
1, 177556, Note_off_c, 1, 64, 0
1, 177710, Note_off_c, 1, 59, 0
1, 177717, Note_on_c, 1, 58, 127
1, 177906, Note_on_c, 1, 76, 127
1, 178088, Note_off_c, 1, 49, 0
1, 178093, Note_off_c, 1, 58, 0
1, 178280, Note_off_c, 1, 76, 0
1, 178663, Note_on_c, 1, 78, 127
1, 178853, Note_on_c, 1, 68, 127
1, 179037, Note_off_c, 1, 78, 0
1, 179069, Note_off_c, 1, 68, 0
1, 179420, Note_on_c, 1, 79, 127
1, 179610, Note_on_c, 1, 55, 127
1, 179774, Note_off_c, 1, 79, 0
1, 179988, Note_on_c, 1, 46, 127
1, 180359, Note_off_c, 1, 55, 0
1, 180364, Note_off_c, 1, 46, 0
1, 180367, Note_on_c, 1, 74, 127
1, 180367, Note_on_c, 1, 47, 127
1, 180367, Note_on_c, 1, 54, 127
1, 180558, Note_off_c, 1, 74, 0
1, 180560, Note_on_c, 1, 83, 127
1, 180751, Note_off_c, 1, 83, 0
1, 180752, Note_off_c, 1, 47, 0
1, 180752, Note_off_c, 1, 54, 0
1, 180754, Note_on_c, 1, 79, 127
1, 180754, Note_on_c, 1, 58, 127
1, 180754, Note_on_c, 1, 49, 127
1, 180945, Note_off_c, 1, 79, 0
1, 180949, Note_on_c, 1, 76, 127
1, 181139, Note_off_c, 1, 58, 0
1, 181139, Note_off_c, 1, 49, 0
1, 181140, Note_off_c, 1, 76, 0
1, 181144, Note_on_c, 1, 78, 127
1, 181144, Note_on_c, 1, 59, 127
1, 181144, Note_on_c, 1, 50, 127
1, 181335, Note_off_c, 1, 78, 0
1, 181339, Note_on_c, 1, 71, 127
1, 181529, Note_off_c, 1, 59, 0
1, 181529, Note_off_c, 1, 50, 0
1, 181530, Note_off_c, 1, 71, 0
1, 181533, Note_on_c, 1, 70, 127
1, 181533, Note_on_c, 1, 61, 127
1, 181533, Note_on_c, 1, 52, 127
1, 181724, Note_off_c, 1, 70, 0
1, 181728, Note_on_c, 1, 71, 127
1, 181918, Note_off_c, 1, 61, 0
1, 181918, Note_off_c, 1, 52, 0
1, 181919, Note_off_c, 1, 71, 0
1, 181923, Note_on_c, 1, 66, 127
1, 181923, Note_on_c, 1, 62, 127
1, 181923, Note_on_c, 1, 54, 127
1, 182117, Note_off_c, 1, 66, 0
1, 182119, Note_on_c, 1, 71, 127
1, 182313, Note_off_c, 1, 71, 0
1, 182317, Note_off_c, 1, 62, 0
1, 182320, Note_on_c, 1, 73, 127
1, 182320, Note_on_c, 1, 64, 127
1, 182514, Note_off_c, 1, 73, 0
1, 182520, Note_on_c, 1, 70, 127
1, 182712, Note_off_c, 1, 54, 0
1, 182714, Note_off_c, 1, 70, 0
1, 182720, Note_on_c, 1, 59, 127
1, 182902, Note_off_c, 1, 64, 0
1, 182926, Note_on_c, 1, 61, 127
1, 183124, Note_off_c, 1, 61, 0
1, 183953, Note_off_c, 1, 59, 0
1, 184642, Note_on_c, 1, 50, 127
1, 184886, Note_off_c, 1, 50, 0
1, 184896, Note_on_c, 1, 47, 127
1, 187196, Note_off_c, 1, 47, 0
1, 188536, Note_on_c, 1, 66, 127
1, 188536, Note_on_c, 1, 62, 127
1, 188536, Note_on_c, 1, 59, 127
1, 188850, Note_off_c, 1, 66, 0
1, 188850, Note_off_c, 1, 62, 0
1, 188853, Note_on_c, 1, 71, 127
1, 188853, Note_on_c, 1, 61, 127
1, 189009, Note_off_c, 1, 71, 0
1, 189011, Note_on_c, 1, 70, 127
1, 189166, Note_off_c, 1, 61, 0
1, 189167, Note_off_c, 1, 70, 0
1, 189328, Note_on_c, 1, 73, 127
1, 189484, Note_off_c, 1, 73, 0
1, 189486, Note_on_c, 1, 74, 127
1, 189642, Note_off_c, 1, 74, 0
1, 189803, Note_on_c, 1, 79, 127
1, 189803, Note_on_c, 1, 64, 127
1, 190083, Note_off_c, 1, 79, 0
1, 190117, Note_off_c, 1, 64, 0
1, 190278, Note_on_c, 1, 78, 127
1, 190434, Note_off_c, 1, 59, 0
1, 190434, Note_off_c, 1, 78, 0
1, 190436, Note_on_c, 1, 76, 127
1, 190436, Note_on_c, 1, 61, 127
1, 190436, Note_on_c, 1, 55, 127
1, 190750, Note_off_c, 1, 76, 0
1, 190750, Note_off_c, 1, 61, 0
1, 190753, Note_on_c, 1, 74, 127
1, 190753, Note_on_c, 1, 59, 127
1, 191049, Note_off_c, 1, 74, 0
1, 191067, Note_off_c, 1, 59, 0
1, 191070, Note_on_c, 1, 73, 127
1, 191070, Note_on_c, 1, 64, 127
1, 191384, Note_off_c, 1, 55, 0
1, 191384, Note_off_c, 1, 73, 0
1, 191386, Note_on_c, 1, 71, 127
1, 191386, Note_on_c, 1, 54, 127
1, 191542, Note_off_c, 1, 71, 0
1, 191542, Note_off_c, 1, 54, 0
1, 191545, Note_on_c, 1, 70, 127
1, 191545, Note_on_c, 1, 52, 127
1, 191696, Note_off_c, 1, 64, 0
1, 191701, Note_off_c, 1, 70, 0
1, 191701, Note_off_c, 1, 52, 0
1, 191703, Note_on_c, 1, 71, 127
1, 191703, Note_on_c, 1, 50, 127
1, 191703, Note_on_c, 1, 54, 127
1, 191859, Note_off_c, 1, 71, 0
1, 191861, Note_on_c, 1, 73, 127
1, 192017, Note_off_c, 1, 50, 0
1, 192017, Note_off_c, 1, 73, 0
1, 192020, Note_on_c, 1, 74, 127
1, 192020, Note_on_c, 1, 49, 127
1, 192176, Note_off_c, 1, 74, 0
1, 192178, Note_on_c, 1, 76, 127
1, 192329, Note_off_c, 1, 54, 0
1, 192334, Note_off_c, 1, 49, 0
1, 192334, Note_off_c, 1, 76, 0
1, 192336, Note_on_c, 1, 78, 127
1, 192336, Note_on_c, 1, 50, 127
1, 192336, Note_on_c, 1, 59, 127
1, 192650, Note_off_c, 1, 78, 0
1, 192650, Note_off_c, 1, 50, 0
1, 192653, Note_on_c, 1, 76, 127
1, 192653, Note_on_c, 1, 52, 127
1, 192809, Note_off_c, 1, 76, 0
1, 192811, Note_on_c, 1, 74, 127
1, 192962, Note_off_c, 1, 59, 0
1, 192967, Note_off_c, 1, 52, 0
1, 192967, Note_off_c, 1, 74, 0
1, 192970, Note_on_c, 1, 76, 127
1, 192970, Note_on_c, 1, 58, 127
1, 192970, Note_on_c, 1, 54, 127
1, 193126, Note_off_c, 1, 76, 0
1, 193128, Note_on_c, 1, 74, 127
1, 193284, Note_off_c, 1, 58, 0
1, 193284, Note_off_c, 1, 54, 0
1, 193284, Note_off_c, 1, 74, 0
1, 193286, Note_on_c, 1, 73, 127
1, 193286, Note_on_c, 1, 59, 127
1, 193286, Note_on_c, 1, 47, 127
1, 193442, Note_off_c, 1, 73, 0
1, 193445, Note_on_c, 1, 71, 127
1, 193585, Note_off_c, 1, 71, 0
1, 193600, Note_off_c, 1, 59, 0
1, 193600, Note_off_c, 1, 47, 0
1, 193603, Note_on_c, 1, 74, 127
1, 193603, Note_on_c, 1, 59, 127
1, 193759, Note_off_c, 1, 74, 0
1, 193761, Note_on_c, 1, 73, 127
1, 193917, Note_off_c, 1, 73, 0
1, 193920, Note_on_c, 1, 71, 127
1, 193920, Note_on_c, 1, 61, 127
1, 194076, Note_off_c, 1, 71, 0
1, 194078, Note_on_c, 1, 70, 127
1, 194234, Note_off_c, 1, 61, 0
1, 194234, Note_off_c, 1, 70, 0
1, 194236, Note_on_c, 1, 62, 127
1, 194550, Note_off_c, 1, 62, 0
1, 194553, Note_on_c, 1, 66, 127
1, 194867, Note_off_c, 1, 66, 0
1, 194870, Note_on_c, 1, 79, 127
1, 194870, Note_on_c, 1, 64, 127
1, 195150, Note_off_c, 1, 79, 0
1, 195184, Note_off_c, 1, 64, 0
1, 195345, Note_on_c, 1, 78, 127
1, 195499, Note_off_c, 1, 59, 0
1, 195501, Note_off_c, 1, 78, 0
1, 195503, Note_on_c, 1, 76, 127
1, 195503, Note_on_c, 1, 61, 127
1, 195817, Note_off_c, 1, 76, 0
1, 195820, Note_on_c, 1, 78, 127
1, 195820, Note_on_c, 1, 57, 127
1, 195976, Note_off_c, 1, 78, 0
1, 195976, Note_off_c, 1, 57, 0
1, 195978, Note_on_c, 1, 79, 127
1, 195978, Note_on_c, 1, 55, 127
1, 196134, Note_off_c, 1, 79, 0
1, 196134, Note_off_c, 1, 55, 0
1, 196136, Note_on_c, 1, 81, 127
1, 196136, Note_on_c, 1, 54, 127
1, 196450, Note_off_c, 1, 81, 0
1, 196450, Note_off_c, 1, 54, 0
1, 196451, Note_off_c, 1, 61, 0
1, 196453, Note_on_c, 1, 73, 127
1, 196453, Note_on_c, 1, 64, 127
1, 196453, Note_on_c, 1, 52, 127
1, 196749, Note_off_c, 1, 73, 0
1, 196767, Note_off_c, 1, 64, 0
1, 196767, Note_off_c, 1, 52, 0
1, 196770, Note_on_c, 1, 74, 127
1, 196770, Note_on_c, 1, 54, 127
1, 196770, Note_on_c, 1, 62, 127
1, 196926, Note_off_c, 1, 74, 0
1, 196928, Note_on_c, 1, 73, 127
1, 197084, Note_off_c, 1, 54, 0
1, 197084, Note_off_c, 1, 73, 0
1, 197087, Note_on_c, 1, 71, 127
1, 197087, Note_on_c, 1, 55, 127
1, 197243, Note_off_c, 1, 71, 0
1, 197245, Note_on_c, 1, 69, 127
1, 197392, Note_off_c, 1, 69, 0
1, 197401, Note_off_c, 1, 55, 0
1, 197403, Note_on_c, 1, 79, 127
1, 197403, Note_on_c, 1, 57, 127
1, 197559, Note_off_c, 1, 79, 0
1, 197562, Note_on_c, 1, 78, 127
1, 197718, Note_off_c, 1, 62, 0
1, 197718, Note_off_c, 1, 78, 0
1, 197720, Note_on_c, 1, 76, 127
1, 197720, Note_on_c, 1, 61, 127
1, 197876, Note_off_c, 1, 76, 0
1, 198029, Note_off_c, 1, 57, 0
1, 198034, Note_off_c, 1, 61, 0
1, 198037, Note_on_c, 1, 74, 127
1, 198037, Note_on_c, 1, 62, 127
1, 198353, Note_on_c, 1, 50, 127
1, 198499, Note_off_c, 1, 74, 0
1, 198597, Note_off_c, 1, 62, 0
1, 198667, Note_off_c, 1, 50, 0
1, 198670, Note_on_c, 1, 69, 127
1, 198670, Note_on_c, 1, 50, 127
1, 198670, Note_on_c, 1, 54, 127
1, 198984, Note_off_c, 1, 69, 0
1, 198984, Note_off_c, 1, 50, 0
1, 198984, Note_off_c, 1, 54, 0
1, 198987, Note_on_c, 1, 74, 127
1, 198987, Note_on_c, 1, 52, 127
1, 198987, Note_on_c, 1, 55, 127
1, 199143, Note_off_c, 1, 74, 0
1, 199145, Note_on_c, 1, 73, 127
1, 199301, Note_off_c, 1, 52, 0
1, 199301, Note_off_c, 1, 55, 0
1, 199301, Note_off_c, 1, 73, 0
1, 199303, Note_on_c, 1, 74, 127
1, 199303, Note_on_c, 1, 54, 127
1, 199303, Note_on_c, 1, 57, 127
1, 199459, Note_off_c, 1, 74, 0
1, 199462, Note_on_c, 1, 76, 127
1, 199617, Note_off_c, 1, 54, 0
1, 199618, Note_off_c, 1, 76, 0
1, 199620, Note_on_c, 1, 78, 127
1, 199620, Note_on_c, 1, 50, 127
1, 199776, Note_off_c, 1, 78, 0
1, 199929, Note_off_c, 1, 57, 0
1, 199937, Note_on_c, 1, 67, 127
1, 199937, Note_on_c, 1, 59, 127
1, 200246, Note_off_c, 1, 50, 0
1, 200251, Note_off_c, 1, 67, 0
1, 200412, Note_on_c, 1, 66, 127
1, 200563, Note_off_c, 1, 59, 0
1, 200568, Note_off_c, 1, 66, 0
1, 200728, Note_on_c, 1, 49, 127
1, 200884, Note_off_c, 1, 49, 0
1, 200887, Note_on_c, 1, 47, 127
1, 201043, Note_off_c, 1, 47, 0
1, 201045, Note_on_c, 1, 45, 127
1, 201201, Note_off_c, 1, 45, 0
1, 201520, Note_on_c, 1, 64, 127
1, 201676, Note_off_c, 1, 64, 0
1, 201837, Note_on_c, 1, 68, 127
1, 201993, Note_off_c, 1, 68, 0
1, 201995, Note_on_c, 1, 69, 127
1, 202151, Note_off_c, 1, 69, 0
1, 202153, Note_on_c, 1, 71, 127
1, 202153, Note_on_c, 1, 49, 127
1, 202153, Note_on_c, 1, 57, 127
1, 202309, Note_off_c, 1, 71, 0
1, 202312, Note_on_c, 1, 73, 127
1, 202467, Note_off_c, 1, 49, 0
1, 202468, Note_off_c, 1, 73, 0
1, 202470, Note_on_c, 1, 74, 127
1, 202470, Note_on_c, 1, 47, 127
1, 202626, Note_off_c, 1, 74, 0
1, 202779, Note_off_c, 1, 57, 0
1, 202784, Note_off_c, 1, 47, 0
1, 202787, Note_on_c, 1, 71, 127
1, 202787, Note_on_c, 1, 52, 127
1, 202787, Note_on_c, 1, 56, 127
1, 202943, Note_off_c, 1, 71, 0
1, 202945, Note_on_c, 1, 76, 127
1, 203101, Note_off_c, 1, 52, 0
1, 203101, Note_off_c, 1, 56, 0
1, 203101, Note_off_c, 1, 76, 0
1, 203103, Note_on_c, 1, 74, 127
1, 203103, Note_on_c, 1, 57, 127
1, 203103, Note_on_c, 1, 45, 127
1, 203259, Note_off_c, 1, 74, 0
1, 203262, Note_on_c, 1, 73, 127
1, 203417, Note_off_c, 1, 57, 0
1, 203418, Note_off_c, 1, 73, 0
1, 203420, Note_on_c, 1, 71, 127
1, 203420, Note_on_c, 1, 52, 127
1, 203576, Note_off_c, 1, 71, 0
1, 203578, Note_on_c, 1, 69, 127
1, 203709, Note_off_c, 1, 69, 0
1, 203729, Note_off_c, 1, 45, 0
1, 203734, Note_off_c, 1, 52, 0
1, 203737, Note_on_c, 1, 73, 127
1, 203737, Note_on_c, 1, 57, 127
1, 204051, Note_off_c, 1, 73, 0
1, 204051, Note_off_c, 1, 57, 0
1, 204053, Note_on_c, 1, 78, 127
1, 204053, Note_on_c, 1, 56, 127
1, 204053, Note_on_c, 1, 59, 127
1, 204209, Note_off_c, 1, 78, 0
1, 204212, Note_on_c, 1, 77, 127
1, 204367, Note_off_c, 1, 56, 0
1, 204367, Note_off_c, 1, 59, 0
1, 204368, Note_off_c, 1, 77, 0
1, 204370, Note_on_c, 1, 78, 127
1, 204370, Note_on_c, 1, 57, 127
1, 204370, Note_on_c, 1, 61, 127
1, 204526, Note_off_c, 1, 78, 0
1, 204529, Note_on_c, 1, 80, 127
1, 204684, Note_off_c, 1, 57, 0
1, 204685, Note_off_c, 1, 80, 0
1, 204687, Note_on_c, 1, 81, 127
1, 204687, Note_on_c, 1, 54, 127
1, 204843, Note_off_c, 1, 81, 0
1, 204996, Note_off_c, 1, 61, 0
1, 205001, Note_off_c, 1, 54, 0
1, 205004, Note_on_c, 1, 83, 127
1, 205004, Note_on_c, 1, 54, 127
1, 205004, Note_on_c, 1, 50, 127
1, 205160, Note_off_c, 1, 83, 0
1, 205162, Note_on_c, 1, 81, 127
1, 205318, Note_off_c, 1, 54, 0
1, 205318, Note_off_c, 1, 81, 0
1, 205320, Note_on_c, 1, 80, 127
1, 205320, Note_on_c, 1, 59, 127
1, 205476, Note_off_c, 1, 80, 0
1, 205479, Note_on_c, 1, 78, 127
1, 205630, Note_off_c, 1, 50, 0
1, 205635, Note_off_c, 1, 78, 0
1, 205637, Note_on_c, 1, 77, 127
1, 205637, Note_on_c, 1, 49, 127
1, 205793, Note_off_c, 1, 77, 0
1, 205795, Note_on_c, 1, 75, 127
1, 205946, Note_off_c, 1, 59, 0
1, 205951, Note_off_c, 1, 49, 0
1, 205951, Note_off_c, 1, 75, 0
1, 205954, Note_on_c, 1, 78, 127
1, 205954, Note_on_c, 1, 56, 127
1, 205954, Note_on_c, 1, 47, 127
1, 206110, Note_off_c, 1, 78, 0
1, 206112, Note_on_c, 1, 77, 127
1, 206268, Note_off_c, 1, 56, 0
1, 206268, Note_off_c, 1, 77, 0
1, 206270, Note_on_c, 1, 75, 127
1, 206270, Note_on_c, 1, 53, 127
1, 206426, Note_off_c, 1, 75, 0
1, 206429, Note_on_c, 1, 73, 127
1, 206580, Note_off_c, 1, 47, 0
1, 206584, Note_off_c, 1, 53, 0
1, 206585, Note_off_c, 1, 73, 0
1, 206587, Note_on_c, 1, 45, 127
1, 206587, Note_on_c, 1, 78, 127
1, 206587, Note_on_c, 1, 54, 127
1, 206743, Note_off_c, 1, 45, 0
1, 206745, Note_on_c, 1, 47, 127
1, 206901, Note_off_c, 1, 78, 0
1, 206901, Note_off_c, 1, 47, 0
1, 206904, Note_on_c, 1, 71, 127
1, 206904, Note_on_c, 1, 49, 127
1, 207060, Note_off_c, 1, 71, 0
1, 207062, Note_on_c, 1, 69, 127
1, 207213, Note_off_c, 1, 54, 0
1, 207218, Note_off_c, 1, 69, 0
1, 207220, Note_on_c, 1, 68, 127
1, 207220, Note_on_c, 1, 53, 127
1, 207376, Note_off_c, 1, 68, 0
1, 207530, Note_off_c, 1, 49, 0
1, 207534, Note_off_c, 1, 53, 0
1, 207537, Note_on_c, 1, 42, 127
1, 207537, Note_on_c, 1, 66, 127
1, 207851, Note_off_c, 1, 42, 0
1, 207854, Note_on_c, 1, 54, 127
1, 208010, Note_off_c, 1, 54, 0
1, 208012, Note_on_c, 1, 52, 127
1, 208168, Note_off_c, 1, 52, 0
1, 208329, Note_on_c, 1, 56, 127
1, 208485, Note_off_c, 1, 66, 0
1, 208485, Note_off_c, 1, 56, 0
1, 208487, Note_on_c, 1, 57, 127
1, 208643, Note_off_c, 1, 57, 0
1, 208645, Note_on_c, 1, 54, 127
1, 208801, Note_off_c, 1, 54, 0
1, 208804, Note_on_c, 1, 81, 127
1, 208804, Note_on_c, 1, 51, 127
1, 209118, Note_off_c, 1, 81, 0
1, 209118, Note_off_c, 1, 51, 0
1, 209120, Note_on_c, 1, 75, 127
1, 209120, Note_on_c, 1, 54, 127
1, 209276, Note_off_c, 1, 75, 0
1, 209279, Note_on_c, 1, 73, 127
1, 209434, Note_off_c, 1, 54, 0
1, 209435, Note_off_c, 1, 73, 0
1, 209437, Note_on_c, 1, 75, 127
1, 209437, Note_on_c, 1, 59, 127
1, 209593, Note_off_c, 1, 75, 0
1, 209595, Note_on_c, 1, 76, 127
1, 209751, Note_off_c, 1, 59, 0
1, 209751, Note_off_c, 1, 76, 0
1, 209754, Note_on_c, 1, 78, 127
1, 209754, Note_on_c, 1, 57, 127
1, 209910, Note_off_c, 1, 78, 0
1, 209912, Note_on_c, 1, 75, 127
1, 210068, Note_off_c, 1, 57, 0
1, 210068, Note_off_c, 1, 75, 0
1, 210070, Note_on_c, 1, 83, 127
1, 210070, Note_on_c, 1, 55, 127
1, 210226, Note_off_c, 1, 83, 0
1, 210226, Note_off_c, 1, 55, 0
1, 210229, Note_on_c, 1, 81, 127
1, 210229, Note_on_c, 1, 54, 127
1, 210385, Note_off_c, 1, 81, 0
1, 210385, Note_off_c, 1, 54, 0
1, 210387, Note_on_c, 1, 79, 127
1, 210387, Note_on_c, 1, 52, 127
1, 210543, Note_off_c, 1, 79, 0
1, 210543, Note_off_c, 1, 52, 0
1, 210545, Note_on_c, 1, 81, 127
1, 210545, Note_on_c, 1, 54, 127
1, 210701, Note_off_c, 1, 81, 0
1, 210701, Note_off_c, 1, 54, 0
1, 210704, Note_on_c, 1, 55, 127
1, 210704, Note_on_c, 1, 83, 127
1, 210860, Note_off_c, 1, 55, 0
1, 210862, Note_on_c, 1, 54, 127
1, 211018, Note_off_c, 1, 54, 0
1, 211020, Note_on_c, 1, 52, 127
1, 211176, Note_off_c, 1, 52, 0
1, 211179, Note_on_c, 1, 50, 127
1, 211335, Note_off_c, 1, 50, 0
1, 211337, Note_on_c, 1, 49, 127
1, 211495, Note_off_c, 1, 83, 0
1, 211651, Note_off_c, 1, 49, 0
1, 211654, Note_on_c, 1, 73, 127
1, 211654, Note_on_c, 1, 52, 127
1, 211810, Note_off_c, 1, 73, 0
1, 211812, Note_on_c, 1, 71, 127
1, 211968, Note_off_c, 1, 52, 0
1, 211968, Note_off_c, 1, 71, 0
1, 211970, Note_on_c, 1, 73, 127
1, 211970, Note_on_c, 1, 57, 127
1, 212126, Note_off_c, 1, 73, 0
1, 212129, Note_on_c, 1, 74, 127
1, 212284, Note_off_c, 1, 57, 0
1, 212285, Note_off_c, 1, 74, 0
1, 212287, Note_on_c, 1, 76, 127
1, 212287, Note_on_c, 1, 55, 127
1, 212443, Note_off_c, 1, 76, 0
1, 212446, Note_on_c, 1, 73, 127
1, 212601, Note_off_c, 1, 55, 0
1, 212602, Note_off_c, 1, 73, 0
1, 212604, Note_on_c, 1, 81, 127
1, 212604, Note_on_c, 1, 54, 127
1, 212760, Note_off_c, 1, 81, 0
1, 212760, Note_off_c, 1, 54, 0
1, 212762, Note_on_c, 1, 79, 127
1, 212762, Note_on_c, 1, 52, 127
1, 212918, Note_off_c, 1, 79, 0
1, 212918, Note_off_c, 1, 52, 0
1, 212921, Note_on_c, 1, 78, 127
1, 212921, Note_on_c, 1, 50, 127
1, 213077, Note_off_c, 1, 78, 0
1, 213077, Note_off_c, 1, 50, 0
1, 213079, Note_on_c, 1, 79, 127
1, 213079, Note_on_c, 1, 52, 127
1, 213235, Note_off_c, 1, 79, 0
1, 213235, Note_off_c, 1, 52, 0
1, 213237, Note_on_c, 1, 54, 127
1, 213237, Note_on_c, 1, 81, 127
1, 213393, Note_off_c, 1, 54, 0
1, 213396, Note_on_c, 1, 52, 127
1, 213552, Note_off_c, 1, 52, 0
1, 213554, Note_on_c, 1, 50, 127
1, 213710, Note_off_c, 1, 50, 0
1, 213712, Note_on_c, 1, 49, 127
1, 213868, Note_off_c, 1, 49, 0
1, 213871, Note_on_c, 1, 47, 127
1, 214027, Note_off_c, 1, 47, 0
1, 214094, Note_off_c, 1, 81, 0
1, 214187, Note_on_c, 1, 71, 127
1, 214187, Note_on_c, 1, 55, 127
1, 214343, Note_off_c, 1, 71, 0
1, 214343, Note_off_c, 1, 55, 0
1, 214346, Note_on_c, 1, 70, 127
1, 214346, Note_on_c, 1, 54, 127
1, 214502, Note_off_c, 1, 70, 0
1, 214502, Note_off_c, 1, 54, 0
1, 214504, Note_on_c, 1, 52, 127
1, 214504, Note_on_c, 1, 71, 127
1, 214660, Note_off_c, 1, 52, 0
1, 214662, Note_on_c, 1, 50, 127
1, 214800, Note_off_c, 1, 71, 0
1, 214818, Note_off_c, 1, 50, 0
1, 214821, Note_on_c, 1, 49, 127
1, 214821, Note_on_c, 1, 79, 127
1, 214977, Note_off_c, 1, 49, 0
1, 214979, Note_on_c, 1, 47, 127
1, 215117, Note_off_c, 1, 79, 0
1, 215135, Note_off_c, 1, 47, 0
1, 215137, Note_on_c, 1, 70, 127
1, 215137, Note_on_c, 1, 49, 127
1, 215293, Note_off_c, 1, 70, 0
1, 215293, Note_off_c, 1, 49, 0
1, 215296, Note_on_c, 1, 71, 127
1, 215296, Note_on_c, 1, 50, 127
1, 215452, Note_off_c, 1, 71, 0
1, 215452, Note_off_c, 1, 50, 0
1, 215454, Note_on_c, 1, 73, 127
1, 215454, Note_on_c, 1, 52, 127
1, 215610, Note_off_c, 1, 73, 0
1, 215610, Note_off_c, 1, 52, 0
1, 215612, Note_on_c, 1, 74, 127
1, 215612, Note_on_c, 1, 54, 127
1, 215768, Note_off_c, 1, 74, 0
1, 215768, Note_off_c, 1, 54, 0
1, 215771, Note_on_c, 1, 56, 127
1, 215771, Note_on_c, 1, 76, 127
1, 215927, Note_off_c, 1, 56, 0
1, 215929, Note_on_c, 1, 58, 127
1, 216067, Note_off_c, 1, 76, 0
1, 216085, Note_off_c, 1, 58, 0
1, 216087, Note_on_c, 1, 59, 127
1, 216087, Note_on_c, 1, 67, 127
1, 216243, Note_off_c, 1, 59, 0
1, 216246, Note_on_c, 1, 58, 127
1, 216402, Note_off_c, 1, 58, 0
1, 216558, Note_off_c, 1, 67, 0
1, 216562, Note_on_c, 1, 66, 127
1, 216718, Note_off_c, 1, 66, 0
1, 216721, Note_on_c, 1, 64, 127
1, 216721, Note_on_c, 1, 58, 127
1, 216877, Note_off_c, 1, 64, 0
1, 216879, Note_on_c, 1, 66, 127
1, 217035, Note_off_c, 1, 58, 0
1, 217035, Note_off_c, 1, 66, 0
1, 217037, Note_on_c, 1, 74, 127
1, 217037, Note_on_c, 1, 59, 127
1, 217193, Note_off_c, 1, 74, 0
1, 217196, Note_on_c, 1, 71, 127
1, 217351, Note_off_c, 1, 59, 0
1, 217352, Note_off_c, 1, 71, 0
1, 217354, Note_on_c, 1, 70, 127
1, 217354, Note_on_c, 1, 55, 127
1, 217510, Note_off_c, 1, 70, 0
1, 217512, Note_on_c, 1, 71, 127
1, 217668, Note_off_c, 1, 55, 0
1, 217668, Note_off_c, 1, 71, 0
1, 217671, Note_on_c, 1, 76, 127
1, 217671, Note_on_c, 1, 54, 127
1, 217827, Note_off_c, 1, 76, 0
1, 217829, Note_on_c, 1, 74, 127
1, 217985, Note_off_c, 1, 74, 0
1, 217987, Note_on_c, 1, 73, 127
1, 217987, Note_on_c, 1, 59, 127
1, 218143, Note_off_c, 1, 73, 0
1, 218146, Note_on_c, 1, 71, 127
1, 218301, Note_off_c, 1, 59, 0
1, 218302, Note_off_c, 1, 71, 0
1, 218304, Note_on_c, 1, 58, 127
1, 218619, Note_off_c, 1, 54, 0
1, 218621, Note_on_c, 1, 52, 127
1, 218621, Note_on_c, 1, 66, 127
1, 218930, Note_off_c, 1, 58, 0
1, 218935, Note_off_c, 1, 52, 0
1, 218937, Note_on_c, 1, 50, 127
1, 219241, Note_off_c, 1, 66, 0
1, 219411, Note_on_c, 1, 70, 127
1, 219567, Note_off_c, 1, 70, 0
1, 219883, Note_off_c, 1, 50, 0
1, 219886, Note_on_c, 1, 47, 127
1, 220200, Note_off_c, 1, 47, 0
1, 220202, Note_on_c, 1, 79, 127
1, 220202, Note_on_c, 1, 49, 127
1, 220516, Note_off_c, 1, 79, 0
1, 220677, Note_on_c, 1, 78, 127
1, 220833, Note_off_c, 1, 78, 0
1, 221150, Note_off_c, 1, 49, 0
1, 221152, Note_on_c, 1, 74, 127
1, 221152, Note_on_c, 1, 50, 127
1, 221152, Note_on_c, 1, 59, 127
1, 221448, Note_off_c, 1, 74, 0
1, 221466, Note_off_c, 1, 50, 0
1, 221466, Note_off_c, 1, 59, 0
1, 221469, Note_on_c, 1, 73, 127
1, 221469, Note_on_c, 1, 52, 127
1, 221469, Note_on_c, 1, 61, 127
1, 221783, Note_off_c, 1, 73, 0
1, 221783, Note_off_c, 1, 52, 0
1, 221786, Note_on_c, 1, 71, 127
1, 221786, Note_on_c, 1, 54, 127
1, 221942, Note_off_c, 1, 71, 0
1, 221944, Note_on_c, 1, 70, 127
1, 222095, Note_off_c, 1, 61, 0
1, 222100, Note_off_c, 1, 54, 0
1, 222100, Note_off_c, 1, 70, 0
1, 222102, Note_on_c, 1, 71, 127
1, 222102, Note_on_c, 1, 55, 127
1, 222102, Note_on_c, 1, 59, 127
1, 222258, Note_off_c, 1, 71, 0
1, 222261, Note_on_c, 1, 73, 127
1, 222416, Note_off_c, 1, 55, 0
1, 222417, Note_off_c, 1, 73, 0
1, 222419, Note_on_c, 1, 74, 127
1, 222419, Note_on_c, 1, 54, 127
1, 222575, Note_off_c, 1, 74, 0
1, 222575, Note_off_c, 1, 54, 0
1, 222577, Note_on_c, 1, 76, 127
1, 222577, Note_on_c, 1, 52, 127
1, 222733, Note_off_c, 1, 76, 0
1, 222733, Note_off_c, 1, 52, 0
1, 222736, Note_on_c, 1, 78, 127
1, 222736, Note_on_c, 1, 50, 127
1, 222892, Note_off_c, 1, 78, 0
1, 223050, Note_off_c, 1, 59, 0
1, 223050, Note_off_c, 1, 50, 0
1, 223052, Note_on_c, 1, 74, 127
1, 223052, Note_on_c, 1, 58, 127
1, 223052, Note_on_c, 1, 54, 127
1, 223208, Note_off_c, 1, 74, 0
1, 223211, Note_on_c, 1, 73, 127
1, 223366, Note_off_c, 1, 58, 0
1, 223366, Note_off_c, 1, 54, 0
1, 223367, Note_off_c, 1, 73, 0
1, 223369, Note_on_c, 1, 76, 127
1, 223369, Note_on_c, 1, 59, 127
1, 223525, Note_off_c, 1, 76, 0
1, 223527, Note_on_c, 1, 74, 127
1, 223683, Note_off_c, 1, 59, 0
1, 223683, Note_off_c, 1, 74, 0
1, 223686, Note_on_c, 1, 73, 127
1, 223686, Note_on_c, 1, 57, 127
1, 223842, Note_off_c, 1, 73, 0
1, 223844, Note_on_c, 1, 71, 127
1, 224000, Note_off_c, 1, 57, 0
1, 224000, Note_off_c, 1, 71, 0
1, 224003, Note_on_c, 1, 74, 127
1, 224003, Note_on_c, 1, 55, 127
1, 224159, Note_off_c, 1, 74, 0
1, 224161, Note_on_c, 1, 73, 127
1, 224317, Note_off_c, 1, 55, 0
1, 224317, Note_off_c, 1, 73, 0
1, 224319, Note_on_c, 1, 71, 127
1, 224319, Note_on_c, 1, 54, 127
1, 224475, Note_off_c, 1, 71, 0
1, 224478, Note_on_c, 1, 70, 127
1, 224633, Note_off_c, 1, 54, 0
1, 224634, Note_off_c, 1, 70, 0
1, 224636, Note_on_c, 1, 79, 127
1, 224636, Note_on_c, 1, 52, 127
1, 224792, Note_off_c, 1, 79, 0
1, 224794, Note_on_c, 1, 78, 127
1, 224950, Note_off_c, 1, 52, 0
1, 224950, Note_off_c, 1, 78, 0
1, 224953, Note_on_c, 1, 76, 127
1, 224953, Note_on_c, 1, 55, 127
1, 225109, Note_off_c, 1, 76, 0
1, 225111, Note_on_c, 1, 75, 127
1, 225267, Note_off_c, 1, 55, 0
1, 225267, Note_off_c, 1, 75, 0
1, 225269, Note_on_c, 1, 81, 127
1, 225269, Note_on_c, 1, 49, 127
1, 225429, Note_off_c, 1, 81, 0
1, 225431, Note_on_c, 1, 79, 127
1, 225591, Note_off_c, 1, 79, 0
1, 225592, Note_off_c, 1, 49, 0
1, 225595, Note_on_c, 1, 78, 127
1, 225595, Note_on_c, 1, 55, 127
1, 225755, Note_off_c, 1, 78, 0
1, 225759, Note_on_c, 1, 76, 127
1, 225918, Note_off_c, 1, 55, 0
1, 225919, Note_off_c, 1, 76, 0
1, 225923, Note_on_c, 1, 83, 127
1, 225923, Note_on_c, 1, 54, 127
1, 226086, Note_off_c, 1, 83, 0
1, 226090, Note_on_c, 1, 82, 127
1, 226253, Note_off_c, 1, 82, 0
1, 226256, Note_off_c, 1, 54, 0
1, 226259, Note_on_c, 1, 80, 127
1, 226259, Note_on_c, 1, 52, 127
1, 226422, Note_off_c, 1, 80, 0
1, 226429, Note_on_c, 1, 78, 127
1, 226592, Note_off_c, 1, 52, 0
1, 226592, Note_off_c, 1, 78, 0
1, 226598, Note_on_c, 1, 64, 127
1, 226598, Note_on_c, 1, 83, 127
1, 226763, Note_off_c, 1, 64, 0
1, 226769, Note_on_c, 1, 62, 127
1, 226934, Note_off_c, 1, 62, 0
1, 226938, Note_off_c, 1, 83, 0
1, 226942, Note_on_c, 1, 61, 127
1, 226942, Note_on_c, 1, 78, 127
1, 227107, Note_off_c, 1, 61, 0
1, 227115, Note_on_c, 1, 59, 127
1, 227280, Note_off_c, 1, 59, 0
1, 227282, Note_off_c, 1, 78, 0
1, 227288, Note_on_c, 1, 76, 127
1, 227288, Note_on_c, 1, 66, 127
1, 227459, Note_off_c, 1, 76, 0
1, 227464, Note_on_c, 1, 74, 127
1, 227635, Note_off_c, 1, 74, 0
1, 227639, Note_off_c, 1, 66, 0
1, 227643, Note_on_c, 1, 73, 127
1, 227643, Note_on_c, 1, 54, 127
1, 227814, Note_off_c, 1, 73, 0
1, 227823, Note_on_c, 1, 71, 127
1, 227994, Note_off_c, 1, 54, 0
1, 227994, Note_off_c, 1, 71, 0
1, 228001, Note_on_c, 1, 59, 127
1, 228001, Note_on_c, 1, 71, 127
1, 228185, Note_on_c, 1, 66, 127
1, 228374, Note_on_c, 1, 62, 127
1, 228567, Note_off_c, 1, 59, 0
1, 228582, Note_on_c, 1, 54, 127
1, 228791, Note_off_c, 1, 54, 0
1, 228847, Note_on_c, 1, 47, 127
1, 229574, Note_off_c, 1, 62, 0
1, 229602, Note_off_c, 1, 66, 0
1, 230101, Note_off_c, 1, 71, 0
1, 230447, Note_off_c, 1, 47, 0
1, 230991, Note_on_c, 1, 47, 127
1, 230991, Note_on_c, 1, 74, 127
1, 231135, Note_on_c, 1, 78, 127
1, 231276, Note_off_c, 1, 78, 0
1, 231278, Note_off_c, 1, 47, 0
1, 231279, Note_on_c, 1, 83, 127
1, 231279, Note_on_c, 1, 59, 127
1, 231411, Note_off_c, 1, 74, 0
1, 231422, Note_off_c, 1, 83, 0
1, 231550, Note_off_c, 1, 59, 0
1, 231568, Note_on_c, 1, 73, 127
1, 231568, Note_on_c, 1, 58, 127
1, 231709, Note_off_c, 1, 73, 0
1, 231712, Note_on_c, 1, 78, 127
1, 231837, Note_off_c, 1, 58, 0
1, 231853, Note_off_c, 1, 78, 0
1, 231856, Note_on_c, 1, 74, 127
1, 231856, Note_on_c, 1, 59, 127
1, 231997, Note_off_c, 1, 74, 0
1, 231999, Note_on_c, 1, 78, 127
1, 232140, Note_off_c, 1, 78, 0
1, 232141, Note_off_c, 1, 59, 0
1, 232143, Note_on_c, 1, 71, 127
1, 232143, Note_on_c, 1, 62, 127
1, 232284, Note_off_c, 1, 71, 0
1, 232287, Note_on_c, 1, 78, 127
1, 232412, Note_off_c, 1, 62, 0
1, 232428, Note_off_c, 1, 78, 0
1, 232431, Note_on_c, 1, 70, 127
1, 232431, Note_on_c, 1, 66, 127
1, 232572, Note_off_c, 1, 70, 0
1, 232575, Note_on_c, 1, 78, 127
1, 232700, Note_off_c, 1, 66, 0
1, 232716, Note_off_c, 1, 78, 0
1, 232718, Note_on_c, 1, 62, 127
1, 232718, Note_on_c, 1, 71, 127
1, 232862, Note_on_c, 1, 78, 127
1, 233003, Note_off_c, 1, 62, 0
1, 233003, Note_off_c, 1, 78, 0
1, 233006, Note_on_c, 1, 83, 127
1, 233006, Note_on_c, 1, 59, 127
1, 233138, Note_off_c, 1, 71, 0
1, 233149, Note_off_c, 1, 83, 0
1, 233277, Note_off_c, 1, 59, 0
1, 233295, Note_on_c, 1, 73, 127
1, 233295, Note_on_c, 1, 58, 127
1, 233436, Note_off_c, 1, 73, 0
1, 233439, Note_on_c, 1, 78, 127
1, 233564, Note_off_c, 1, 58, 0
1, 233580, Note_off_c, 1, 78, 0
1, 233583, Note_on_c, 1, 74, 127
1, 233583, Note_on_c, 1, 59, 127
1, 233724, Note_off_c, 1, 74, 0
1, 233727, Note_on_c, 1, 78, 127
1, 233868, Note_off_c, 1, 59, 0
1, 233868, Note_off_c, 1, 78, 0
1, 233870, Note_on_c, 1, 71, 127
1, 233870, Note_on_c, 1, 50, 127
1, 234011, Note_off_c, 1, 71, 0
1, 234014, Note_on_c, 1, 78, 127
1, 234139, Note_off_c, 1, 50, 0
1, 234155, Note_off_c, 1, 78, 0
1, 234158, Note_on_c, 1, 70, 127
1, 234158, Note_on_c, 1, 54, 127
1, 234299, Note_off_c, 1, 70, 0
1, 234302, Note_on_c, 1, 78, 127
1, 234427, Note_off_c, 1, 54, 0
1, 234443, Note_off_c, 1, 78, 0
1, 234446, Note_on_c, 1, 74, 127
1, 234446, Note_on_c, 1, 47, 127
1, 234589, Note_on_c, 1, 78, 127
1, 234731, Note_off_c, 1, 74, 0
1, 234732, Note_off_c, 1, 78, 0
1, 234733, Note_off_c, 1, 47, 0
1, 234735, Note_on_c, 1, 74, 127
1, 234735, Note_on_c, 1, 59, 127
1, 234876, Note_off_c, 1, 74, 0
1, 234879, Note_on_c, 1, 71, 127
1, 235004, Note_off_c, 1, 59, 0
1, 235020, Note_off_c, 1, 71, 0
1, 235022, Note_on_c, 1, 79, 127
1, 235022, Note_on_c, 1, 52, 127
1, 235163, Note_off_c, 1, 79, 0
1, 235166, Note_on_c, 1, 76, 127
1, 235291, Note_off_c, 1, 52, 0
1, 235307, Note_off_c, 1, 76, 0
1, 235310, Note_on_c, 1, 73, 127
1, 235310, Note_on_c, 1, 45, 127
1, 235454, Note_on_c, 1, 76, 127
1, 235595, Note_off_c, 1, 73, 0
1, 235597, Note_off_c, 1, 45, 0
1, 235597, Note_off_c, 1, 76, 0
1, 235599, Note_on_c, 1, 73, 127
1, 235599, Note_on_c, 1, 57, 127
1, 235740, Note_off_c, 1, 73, 0
1, 235743, Note_on_c, 1, 69, 127
1, 235868, Note_off_c, 1, 57, 0
1, 235884, Note_off_c, 1, 69, 0
1, 235887, Note_on_c, 1, 78, 127
1, 235887, Note_on_c, 1, 50, 127
1, 236028, Note_off_c, 1, 78, 0
1, 236031, Note_on_c, 1, 74, 127
1, 236156, Note_off_c, 1, 50, 0
1, 236172, Note_off_c, 1, 74, 0
1, 236175, Note_on_c, 1, 71, 127
1, 236175, Note_on_c, 1, 43, 127
1, 236318, Note_on_c, 1, 78, 127
1, 236460, Note_off_c, 1, 71, 0
1, 236461, Note_off_c, 1, 78, 0
1, 236462, Note_off_c, 1, 43, 0
1, 236464, Note_on_c, 1, 76, 127
1, 236464, Note_on_c, 1, 55, 127
1, 236605, Note_off_c, 1, 76, 0
1, 236608, Note_on_c, 1, 74, 127
1, 236733, Note_off_c, 1, 55, 0
1, 236749, Note_off_c, 1, 74, 0
1, 236751, Note_on_c, 1, 73, 127
1, 236751, Note_on_c, 1, 52, 127
1, 236892, Note_off_c, 1, 73, 0
1, 236895, Note_on_c, 1, 71, 127
1, 237020, Note_off_c, 1, 52, 0
1, 237036, Note_off_c, 1, 71, 0
1, 237039, Note_on_c, 1, 54, 127
1, 237039, Note_on_c, 1, 70, 127
1, 237180, Note_off_c, 1, 54, 0
1, 237183, Note_on_c, 1, 66, 127
1, 237183, Note_on_c, 1, 55, 127
1, 237204, Note_off_c, 1, 70, 0
1, 237326, Note_off_c, 1, 66, 0
1, 237326, Note_off_c, 1, 55, 0
1, 237328, Note_on_c, 1, 70, 127
1, 237328, Note_on_c, 1, 54, 127
1, 237469, Note_off_c, 1, 70, 0
1, 237469, Note_off_c, 1, 54, 0
1, 237472, Note_on_c, 1, 52, 127
1, 237472, Note_on_c, 1, 73, 127
1, 237606, Note_off_c, 1, 52, 0
1, 237613, Note_off_c, 1, 73, 0
1, 237616, Note_on_c, 1, 50, 127
1, 237616, Note_on_c, 1, 78, 127
1, 237750, Note_off_c, 1, 50, 0
1, 237757, Note_off_c, 1, 78, 0
1, 237760, Note_on_c, 1, 49, 127
1, 237760, Note_on_c, 1, 76, 127
1, 237894, Note_off_c, 1, 49, 0
1, 237901, Note_off_c, 1, 76, 0
1, 237904, Note_on_c, 1, 47, 127
1, 237904, Note_on_c, 1, 74, 127
1, 238047, Note_on_c, 1, 78, 127
1, 238188, Note_off_c, 1, 78, 0
1, 238189, Note_off_c, 1, 47, 0
1, 238191, Note_on_c, 1, 83, 127
1, 238191, Note_on_c, 1, 59, 127
1, 238324, Note_off_c, 1, 74, 0
1, 238334, Note_off_c, 1, 83, 0
1, 238462, Note_off_c, 1, 59, 0
1, 238480, Note_on_c, 1, 73, 127
1, 238480, Note_on_c, 1, 58, 127
1, 238621, Note_off_c, 1, 73, 0
1, 238624, Note_on_c, 1, 78, 127
1, 238749, Note_off_c, 1, 58, 0
1, 238765, Note_off_c, 1, 78, 0
1, 238768, Note_on_c, 1, 74, 127
1, 238768, Note_on_c, 1, 59, 127
1, 238909, Note_off_c, 1, 74, 0
1, 238912, Note_on_c, 1, 78, 127
1, 239053, Note_off_c, 1, 59, 0
1, 239053, Note_off_c, 1, 78, 0
1, 239056, Note_on_c, 1, 71, 127
1, 239056, Note_on_c, 1, 62, 127
1, 239197, Note_off_c, 1, 71, 0
1, 239199, Note_on_c, 1, 78, 127
1, 239325, Note_off_c, 1, 62, 0
1, 239340, Note_off_c, 1, 78, 0
1, 239343, Note_on_c, 1, 70, 127
1, 239343, Note_on_c, 1, 66, 127
1, 239484, Note_off_c, 1, 70, 0
1, 239487, Note_on_c, 1, 78, 127
1, 239612, Note_off_c, 1, 66, 0
1, 239628, Note_off_c, 1, 78, 0
1, 239631, Note_on_c, 1, 62, 127
1, 239631, Note_on_c, 1, 71, 127
1, 239775, Note_on_c, 1, 78, 127
1, 239916, Note_off_c, 1, 62, 0
1, 239916, Note_off_c, 1, 78, 0
1, 239918, Note_on_c, 1, 83, 127
1, 239918, Note_on_c, 1, 59, 127
1, 240051, Note_off_c, 1, 71, 0
1, 240061, Note_off_c, 1, 83, 0
1, 240189, Note_off_c, 1, 59, 0
1, 240208, Note_on_c, 1, 73, 127
1, 240208, Note_on_c, 1, 58, 127
1, 240349, Note_off_c, 1, 73, 0
1, 240351, Note_on_c, 1, 78, 127
1, 240477, Note_off_c, 1, 58, 0
1, 240492, Note_off_c, 1, 78, 0
1, 240495, Note_on_c, 1, 74, 127
1, 240495, Note_on_c, 1, 59, 127
1, 240636, Note_off_c, 1, 74, 0
1, 240639, Note_on_c, 1, 78, 127
1, 240780, Note_off_c, 1, 59, 0
1, 240780, Note_off_c, 1, 78, 0
1, 240783, Note_on_c, 1, 71, 127
1, 240783, Note_on_c, 1, 50, 127
1, 240924, Note_off_c, 1, 71, 0
1, 240927, Note_on_c, 1, 78, 127
1, 241052, Note_off_c, 1, 50, 0
1, 241068, Note_off_c, 1, 78, 0
1, 241070, Note_on_c, 1, 70, 127
1, 241070, Note_on_c, 1, 54, 127
1, 241211, Note_off_c, 1, 70, 0
1, 241214, Note_on_c, 1, 78, 127
1, 241339, Note_off_c, 1, 54, 0
1, 241355, Note_off_c, 1, 78, 0
1, 241358, Note_on_c, 1, 74, 127
1, 241358, Note_on_c, 1, 47, 127
1, 241502, Note_on_c, 1, 78, 127
1, 241643, Note_off_c, 1, 74, 0
1, 241645, Note_off_c, 1, 47, 0
1, 241645, Note_off_c, 1, 78, 0
1, 241647, Note_on_c, 1, 74, 127
1, 241647, Note_on_c, 1, 59, 127
1, 241788, Note_off_c, 1, 74, 0
1, 241791, Note_on_c, 1, 71, 127
1, 241916, Note_off_c, 1, 59, 0
1, 241932, Note_off_c, 1, 71, 0
1, 241935, Note_on_c, 1, 79, 127
1, 241935, Note_on_c, 1, 52, 127
1, 242076, Note_off_c, 1, 79, 0
1, 242079, Note_on_c, 1, 76, 127
1, 242204, Note_off_c, 1, 52, 0
1, 242220, Note_off_c, 1, 76, 0
1, 242222, Note_on_c, 1, 73, 127
1, 242222, Note_on_c, 1, 45, 127
1, 242366, Note_on_c, 1, 76, 127
1, 242507, Note_off_c, 1, 73, 0
1, 242509, Note_off_c, 1, 45, 0
1, 242509, Note_off_c, 1, 76, 0
1, 242512, Note_on_c, 1, 73, 127
1, 242512, Note_on_c, 1, 57, 127
1, 242653, Note_off_c, 1, 73, 0
1, 242656, Note_on_c, 1, 69, 127
1, 242781, Note_off_c, 1, 57, 0
1, 242797, Note_off_c, 1, 69, 0
1, 242799, Note_on_c, 1, 81, 127
1, 242799, Note_on_c, 1, 49, 127
1, 242940, Note_off_c, 1, 81, 0
1, 242943, Note_on_c, 1, 76, 127
1, 243068, Note_off_c, 1, 49, 0
1, 243084, Note_off_c, 1, 76, 0
1, 243087, Note_on_c, 1, 78, 127
1, 243087, Note_on_c, 1, 50, 127
1, 243231, Note_on_c, 1, 81, 127
1, 243372, Note_off_c, 1, 78, 0
1, 243374, Note_off_c, 1, 50, 0
1, 243374, Note_off_c, 1, 81, 0
1, 243376, Note_on_c, 1, 78, 127
1, 243376, Note_on_c, 1, 54, 127
1, 243517, Note_off_c, 1, 78, 0
1, 243520, Note_on_c, 1, 74, 127
1, 243645, Note_off_c, 1, 54, 0
1, 243661, Note_off_c, 1, 74, 0
1, 243664, Note_on_c, 1, 69, 127
1, 243664, Note_on_c, 1, 57, 127
1, 243805, Note_off_c, 1, 69, 0
1, 243808, Note_on_c, 1, 73, 127
1, 243933, Note_off_c, 1, 57, 0
1, 243949, Note_off_c, 1, 73, 0
1, 243951, Note_on_c, 1, 50, 127
1, 243951, Note_on_c, 1, 74, 127
1, 244238, Note_off_c, 1, 50, 0
1, 244241, Note_on_c, 1, 45, 127
1, 244512, Note_off_c, 1, 45, 0
1, 244524, Note_off_c, 1, 74, 0
1, 244530, Note_on_c, 1, 38, 127
1, 244801, Note_off_c, 1, 38, 0
1, 244820, Note_on_c, 1, 81, 127
1, 244820, Note_on_c, 1, 54, 127
1, 244961, Note_off_c, 1, 81, 0
1, 244963, Note_on_c, 1, 79, 127
1, 244963, Note_on_c, 1, 57, 127
1, 245105, Note_off_c, 1, 54, 0
1, 245106, Note_off_c, 1, 79, 0
1, 245106, Note_off_c, 1, 57, 0
1, 245109, Note_on_c, 1, 78, 127
1, 245109, Note_on_c, 1, 62, 127
1, 245250, Note_off_c, 1, 78, 0
1, 245250, Note_off_c, 1, 62, 0
1, 245253, Note_on_c, 1, 76, 127
1, 245253, Note_on_c, 1, 57, 127
1, 245394, Note_off_c, 1, 76, 0
1, 245394, Note_off_c, 1, 57, 0
1, 245396, Note_on_c, 1, 74, 127
1, 245396, Note_on_c, 1, 52, 127
1, 245537, Note_off_c, 1, 74, 0
1, 245537, Note_off_c, 1, 52, 0
1, 245540, Note_on_c, 1, 73, 127
1, 245540, Note_on_c, 1, 57, 127
1, 245681, Note_off_c, 1, 73, 0
1, 245681, Note_off_c, 1, 57, 0
1, 245684, Note_on_c, 1, 74, 127
1, 245684, Note_on_c, 1, 54, 127
1, 245825, Note_off_c, 1, 74, 0
1, 245825, Note_off_c, 1, 54, 0
1, 245828, Note_on_c, 1, 76, 127
1, 245828, Note_on_c, 1, 57, 127
1, 245969, Note_off_c, 1, 76, 0
1, 245969, Note_off_c, 1, 57, 0
1, 245972, Note_on_c, 1, 78, 127
1, 245972, Note_on_c, 1, 50, 127
1, 246113, Note_off_c, 1, 78, 0
1, 246113, Note_off_c, 1, 50, 0
1, 246115, Note_on_c, 1, 74, 127
1, 246115, Note_on_c, 1, 57, 127
1, 246256, Note_off_c, 1, 74, 0
1, 246256, Note_off_c, 1, 57, 0
1, 246259, Note_on_c, 1, 76, 127
1, 246259, Note_on_c, 1, 49, 127
1, 246400, Note_off_c, 1, 76, 0
1, 246400, Note_off_c, 1, 49, 0
1, 246403, Note_on_c, 1, 79, 127
1, 246403, Note_on_c, 1, 57, 127
1, 246544, Note_off_c, 1, 79, 0
1, 246544, Note_off_c, 1, 57, 0
1, 246547, Note_on_c, 1, 78, 127
1, 246547, Note_on_c, 1, 50, 127
1, 246688, Note_off_c, 1, 78, 0
1, 246691, Note_on_c, 1, 79, 127
1, 246691, Note_on_c, 1, 57, 127
1, 246832, Note_off_c, 1, 50, 0
1, 246834, Note_off_c, 1, 79, 0
1, 246834, Note_off_c, 1, 57, 0
1, 246836, Note_on_c, 1, 62, 127
1, 246836, Note_on_c, 1, 81, 127
1, 246977, Note_off_c, 1, 62, 0
1, 246980, Note_on_c, 1, 57, 127
1, 247045, Note_off_c, 1, 81, 0
1, 247121, Note_off_c, 1, 57, 0
1, 247124, Note_on_c, 1, 52, 127
1, 247124, Note_on_c, 1, 73, 127
1, 247265, Note_off_c, 1, 52, 0
1, 247267, Note_on_c, 1, 57, 127
1, 247333, Note_off_c, 1, 73, 0
1, 247408, Note_off_c, 1, 57, 0
1, 247411, Note_on_c, 1, 74, 127
1, 247411, Note_on_c, 1, 54, 127
1, 247552, Note_off_c, 1, 74, 0
1, 247552, Note_off_c, 1, 54, 0
1, 247555, Note_on_c, 1, 76, 127
1, 247555, Note_on_c, 1, 57, 127
1, 247696, Note_off_c, 1, 76, 0
1, 247696, Note_off_c, 1, 57, 0
1, 247699, Note_on_c, 1, 50, 127
1, 247699, Note_on_c, 1, 78, 127
1, 247840, Note_off_c, 1, 50, 0
1, 247843, Note_on_c, 1, 57, 127
1, 247939, Note_off_c, 1, 78, 0
1, 247986, Note_off_c, 1, 57, 0
1, 247988, Note_on_c, 1, 49, 127
1, 247988, Note_on_c, 1, 76, 127
1, 248129, Note_off_c, 1, 49, 0
1, 248132, Note_on_c, 1, 57, 127
1, 248228, Note_off_c, 1, 76, 0
1, 248275, Note_off_c, 1, 57, 0
1, 248278, Note_on_c, 1, 50, 127
1, 248278, Note_on_c, 1, 78, 127
1, 248421, Note_on_c, 1, 54, 127
1, 248487, Note_off_c, 1, 50, 0
1, 248562, Note_off_c, 1, 54, 0
1, 248563, Note_off_c, 1, 78, 0
1, 248565, Note_on_c, 1, 50, 127
1, 248565, Note_on_c, 1, 83, 127
1, 248706, Note_off_c, 1, 50, 0
1, 248709, Note_on_c, 1, 47, 127
1, 248774, Note_off_c, 1, 83, 0
1, 248850, Note_off_c, 1, 47, 0
1, 248853, Note_on_c, 1, 59, 127
1, 248853, Note_on_c, 1, 80, 127
1, 248994, Note_off_c, 1, 59, 0
1, 248996, Note_on_c, 1, 56, 127
1, 249062, Note_off_c, 1, 80, 0
1, 249137, Note_off_c, 1, 56, 0
1, 249140, Note_on_c, 1, 71, 127
1, 249140, Note_on_c, 1, 53, 127
1, 249281, Note_off_c, 1, 71, 0
1, 249284, Note_on_c, 1, 73, 127
1, 249284, Note_on_c, 1, 56, 127
1, 249349, Note_off_c, 1, 53, 0
1, 249425, Note_off_c, 1, 73, 0
1, 249425, Note_off_c, 1, 56, 0
1, 249428, Note_on_c, 1, 49, 127
1, 249428, Note_on_c, 1, 74, 127
1, 249569, Note_off_c, 1, 49, 0
1, 249572, Note_on_c, 1, 56, 127
1, 249637, Note_off_c, 1, 74, 0
1, 249713, Note_off_c, 1, 56, 0
1, 249715, Note_on_c, 1, 53, 127
1, 249715, Note_on_c, 1, 73, 127
1, 249856, Note_off_c, 1, 53, 0
1, 249859, Note_on_c, 1, 56, 127
1, 249924, Note_off_c, 1, 73, 0
1, 250000, Note_off_c, 1, 56, 0
1, 250003, Note_on_c, 1, 71, 127
1, 250003, Note_on_c, 1, 54, 127
1, 250144, Note_off_c, 1, 71, 0
1, 250147, Note_on_c, 1, 69, 127
1, 250288, Note_off_c, 1, 54, 0
1, 250288, Note_off_c, 1, 69, 0
1, 250290, Note_on_c, 1, 68, 127
1, 250290, Note_on_c, 1, 61, 127
1, 250431, Note_off_c, 1, 68, 0
1, 250434, Note_on_c, 1, 66, 127
1, 250559, Note_off_c, 1, 61, 0
1, 250575, Note_off_c, 1, 66, 0
1, 250578, Note_on_c, 1, 68, 127
1, 250578, Note_on_c, 1, 49, 127
1, 250719, Note_off_c, 1, 68, 0
1, 250722, Note_on_c, 1, 65, 127
1, 250847, Note_off_c, 1, 49, 0
1, 250863, Note_off_c, 1, 65, 0
1, 250866, Note_on_c, 1, 54, 127
1, 250866, Note_on_c, 1, 66, 127
1, 251009, Note_on_c, 1, 57, 127
1, 251075, Note_off_c, 1, 54, 0
1, 251150, Note_off_c, 1, 57, 0
1, 251153, Note_on_c, 1, 61, 127
1, 251294, Note_off_c, 1, 61, 0
1, 251435, Note_off_c, 1, 66, 0
1, 251441, Note_on_c, 1, 52, 127
1, 251582, Note_off_c, 1, 52, 0
1, 251584, Note_on_c, 1, 57, 127
1, 251725, Note_off_c, 1, 57, 0
1, 251728, Note_on_c, 1, 51, 127
1, 251728, Note_on_c, 1, 69, 127
1, 251869, Note_off_c, 1, 51, 0
1, 251872, Note_on_c, 1, 54, 127
1, 252013, Note_off_c, 1, 54, 0
1, 252016, Note_on_c, 1, 47, 127
1, 252157, Note_off_c, 1, 69, 0
1, 252157, Note_off_c, 1, 47, 0
1, 252160, Note_on_c, 1, 71, 127
1, 252160, Note_on_c, 1, 54, 127
1, 252230, Note_off_c, 1, 71, 0
1, 252232, Note_on_c, 1, 72, 127
1, 252302, Note_off_c, 1, 72, 0
1, 252303, Note_off_c, 1, 54, 0
1, 252305, Note_on_c, 1, 51, 127
1, 252305, Note_on_c, 1, 71, 127
1, 252446, Note_off_c, 1, 51, 0
1, 252449, Note_on_c, 1, 54, 127
1, 252514, Note_off_c, 1, 71, 0
1, 252590, Note_off_c, 1, 54, 0
1, 252593, Note_on_c, 1, 69, 127
1, 252593, Note_on_c, 1, 52, 127
1, 252734, Note_off_c, 1, 69, 0
1, 252737, Note_on_c, 1, 67, 127
1, 252878, Note_off_c, 1, 52, 0
1, 252878, Note_off_c, 1, 67, 0
1, 252880, Note_on_c, 1, 69, 127
1, 252880, Note_on_c, 1, 47, 127
1, 253021, Note_off_c, 1, 69, 0
1, 253024, Note_on_c, 1, 66, 127
1, 253149, Note_off_c, 1, 47, 0
1, 253165, Note_off_c, 1, 66, 0
1, 253168, Note_on_c, 1, 67, 127
1, 253168, Note_on_c, 1, 40, 127
1, 253309, Note_off_c, 1, 67, 0
1, 253312, Note_on_c, 1, 64, 127
1, 253437, Note_off_c, 1, 40, 0
1, 253453, Note_off_c, 1, 64, 0
1, 253455, Note_on_c, 1, 53, 127
1, 253455, Note_on_c, 1, 71, 127
1, 253596, Note_off_c, 1, 53, 0
1, 253599, Note_on_c, 1, 56, 127
1, 253740, Note_off_c, 1, 56, 0
1, 253743, Note_on_c, 1, 49, 127
1, 253884, Note_off_c, 1, 71, 0
1, 253884, Note_off_c, 1, 49, 0
1, 253887, Note_on_c, 1, 73, 127
1, 253887, Note_on_c, 1, 56, 127
1, 253957, Note_off_c, 1, 73, 0
1, 253960, Note_on_c, 1, 74, 127
1, 254030, Note_off_c, 1, 56, 0
1, 254030, Note_off_c, 1, 74, 0
1, 254032, Note_on_c, 1, 53, 127
1, 254032, Note_on_c, 1, 73, 127
1, 254173, Note_off_c, 1, 53, 0
1, 254176, Note_on_c, 1, 56, 127
1, 254241, Note_off_c, 1, 73, 0
1, 254317, Note_off_c, 1, 56, 0
1, 254320, Note_on_c, 1, 71, 127
1, 254320, Note_on_c, 1, 54, 127
1, 254461, Note_off_c, 1, 71, 0
1, 254464, Note_on_c, 1, 70, 127
1, 254605, Note_off_c, 1, 54, 0
1, 254605, Note_off_c, 1, 70, 0
1, 254608, Note_on_c, 1, 71, 127
1, 254608, Note_on_c, 1, 49, 127
1, 254749, Note_off_c, 1, 71, 0
1, 254751, Note_on_c, 1, 68, 127
1, 254877, Note_off_c, 1, 49, 0
1, 254892, Note_off_c, 1, 68, 0
1, 254895, Note_on_c, 1, 70, 127
1, 254895, Note_on_c, 1, 42, 127
1, 255036, Note_off_c, 1, 70, 0
1, 255039, Note_on_c, 1, 66, 127
1, 255164, Note_off_c, 1, 42, 0
1, 255180, Note_off_c, 1, 66, 0
1, 255183, Note_on_c, 1, 54, 127
1, 255183, Note_on_c, 1, 73, 127
1, 255326, Note_on_c, 1, 70, 127
1, 255467, Note_off_c, 1, 70, 0
1, 255468, Note_off_c, 1, 54, 0
1, 255470, Note_on_c, 1, 66, 127
1, 255470, Note_on_c, 1, 49, 127
1, 255603, Note_off_c, 1, 73, 0
1, 255613, Note_off_c, 1, 66, 0
1, 255741, Note_off_c, 1, 49, 0
1, 255760, Note_on_c, 1, 73, 127
1, 255760, Note_on_c, 1, 46, 127
1, 255901, Note_off_c, 1, 73, 0
1, 255903, Note_on_c, 1, 76, 127
1, 256029, Note_off_c, 1, 46, 0
1, 256044, Note_off_c, 1, 76, 0
1, 256047, Note_on_c, 1, 79, 127
1, 256047, Note_on_c, 1, 42, 127
1, 256191, Note_on_c, 1, 73, 127
1, 256212, Note_off_c, 1, 79, 0
1, 256334, Note_off_c, 1, 42, 0
1, 256334, Note_off_c, 1, 73, 0
1, 256337, Note_on_c, 1, 78, 127
1, 256337, Note_on_c, 1, 44, 127
1, 256480, Note_on_c, 1, 73, 127
1, 256502, Note_off_c, 1, 78, 0
1, 256608, Note_off_c, 1, 44, 0
1, 256623, Note_off_c, 1, 73, 0
1, 256626, Note_on_c, 1, 76, 127
1, 256626, Note_on_c, 1, 46, 127
1, 256767, Note_off_c, 1, 76, 0
1, 256770, Note_on_c, 1, 73, 127
1, 256895, Note_off_c, 1, 46, 0
1, 256911, Note_off_c, 1, 73, 0
1, 256913, Note_on_c, 1, 47, 127
1, 256913, Note_on_c, 1, 74, 127
1, 257057, Note_on_c, 1, 73, 127
1, 257198, Note_off_c, 1, 47, 0
1, 257198, Note_off_c, 1, 73, 0
1, 257201, Note_on_c, 1, 71, 127
1, 257201, Note_on_c, 1, 54, 127
1, 257333, Note_off_c, 1, 74, 0
1, 257344, Note_off_c, 1, 71, 0
1, 257472, Note_off_c, 1, 54, 0
1, 257490, Note_on_c, 1, 78, 127
1, 257490, Note_on_c, 1, 59, 127
1, 257631, Note_off_c, 1, 78, 0
1, 257634, Note_on_c, 1, 83, 127
1, 257759, Note_off_c, 1, 59, 0
1, 257775, Note_off_c, 1, 83, 0
1, 257778, Note_on_c, 1, 78, 127
1, 257778, Note_on_c, 1, 62, 127
1, 257922, Note_on_c, 1, 71, 127
1, 257943, Note_off_c, 1, 78, 0
1, 258065, Note_off_c, 1, 62, 0
1, 258065, Note_off_c, 1, 71, 0
1, 258067, Note_on_c, 1, 76, 127
1, 258067, Note_on_c, 1, 61, 127
1, 258211, Note_on_c, 1, 71, 127
1, 258232, Note_off_c, 1, 76, 0
1, 258338, Note_off_c, 1, 61, 0
1, 258354, Note_off_c, 1, 71, 0
1, 258357, Note_on_c, 1, 74, 127
1, 258357, Note_on_c, 1, 59, 127
1, 258498, Note_off_c, 1, 74, 0
1, 258500, Note_on_c, 1, 71, 127
1, 258626, Note_off_c, 1, 59, 0
1, 258641, Note_off_c, 1, 71, 0
1, 258644, Note_on_c, 1, 73, 127
1, 258644, Note_on_c, 1, 52, 127
1, 258788, Note_on_c, 1, 71, 127
1, 258824, Note_off_c, 1, 73, 0
1, 258931, Note_off_c, 1, 52, 0
1, 258931, Note_off_c, 1, 71, 0
1, 258934, Note_on_c, 1, 74, 127
1, 258934, Note_on_c, 1, 54, 127
1, 259077, Note_on_c, 1, 71, 127
1, 259099, Note_off_c, 1, 74, 0
1, 259205, Note_off_c, 1, 54, 0
1, 259220, Note_off_c, 1, 71, 0
1, 259223, Note_on_c, 1, 76, 127
1, 259223, Note_on_c, 1, 55, 127
1, 259364, Note_off_c, 1, 76, 0
1, 259367, Note_on_c, 1, 71, 127
1, 259492, Note_off_c, 1, 55, 0
1, 259508, Note_off_c, 1, 71, 0
1, 259511, Note_on_c, 1, 78, 127
1, 259511, Note_on_c, 1, 50, 127
1, 259654, Note_on_c, 1, 71, 127
1, 259691, Note_off_c, 1, 78, 0
1, 259797, Note_off_c, 1, 71, 0
1, 259798, Note_off_c, 1, 50, 0
1, 259800, Note_on_c, 1, 79, 127
1, 259800, Note_on_c, 1, 52, 127
1, 259944, Note_on_c, 1, 71, 127
1, 259965, Note_off_c, 1, 79, 0
1, 260071, Note_off_c, 1, 52, 0
1, 260087, Note_off_c, 1, 71, 0
1, 260089, Note_on_c, 1, 76, 127
1, 260089, Note_on_c, 1, 49, 127
1, 260230, Note_off_c, 1, 76, 0
1, 260233, Note_on_c, 1, 71, 127
1, 260358, Note_off_c, 1, 49, 0
1, 260374, Note_off_c, 1, 71, 0
1, 260377, Note_on_c, 1, 78, 127
1, 260377, Note_on_c, 1, 50, 127
1, 260664, Note_off_c, 1, 78, 0
1, 260664, Note_off_c, 1, 50, 0
1, 260666, Note_on_c, 1, 76, 127
1, 260666, Note_on_c, 1, 52, 127
1, 260807, Note_off_c, 1, 76, 0
1, 260810, Note_on_c, 1, 74, 127
1, 260935, Note_off_c, 1, 52, 0
1, 260951, Note_off_c, 1, 74, 0
1, 260954, Note_on_c, 1, 73, 127
1, 260954, Note_on_c, 1, 54, 127
1, 261095, Note_off_c, 1, 73, 0
1, 261098, Note_on_c, 1, 74, 127
1, 261223, Note_off_c, 1, 54, 0
1, 261239, Note_off_c, 1, 74, 0
1, 261241, Note_on_c, 1, 59, 127
1, 261241, Note_on_c, 1, 71, 127
1, 261528, Note_off_c, 1, 59, 0
1, 261531, Note_on_c, 1, 54, 127
1, 261802, Note_off_c, 1, 54, 0
1, 261814, Note_off_c, 1, 71, 0
1, 261820, Note_on_c, 1, 47, 127
1, 262091, Note_off_c, 1, 47, 0
1, 262110, Note_on_c, 1, 66, 127
1, 262110, Note_on_c, 1, 62, 127
1, 262110, Note_on_c, 1, 59, 127
1, 262251, Note_off_c, 1, 66, 0
1, 262253, Note_on_c, 1, 67, 127
1, 262395, Note_off_c, 1, 62, 0
1, 262396, Note_off_c, 1, 67, 0
1, 262399, Note_on_c, 1, 63, 127
1, 262399, Note_on_c, 1, 69, 127
1, 262686, Note_off_c, 1, 63, 0
1, 262686, Note_off_c, 1, 69, 0
1, 262688, Note_on_c, 1, 64, 127
1, 262975, Note_off_c, 1, 64, 0
1, 262976, Note_off_c, 1, 59, 0
1, 262978, Note_on_c, 1, 69, 127
1, 262978, Note_on_c, 1, 66, 127
1, 262978, Note_on_c, 1, 51, 127
1, 263048, Note_off_c, 1, 69, 0
1, 263050, Note_on_c, 1, 71, 127
1, 263120, Note_off_c, 1, 71, 0
1, 263123, Note_on_c, 1, 72, 127
1, 263264, Note_off_c, 1, 72, 0
1, 263844, Note_off_c, 1, 66, 0
1, 263844, Note_off_c, 1, 51, 0
1, 263846, Note_on_c, 1, 67, 127
1, 263846, Note_on_c, 1, 52, 127
1, 263846, Note_on_c, 1, 64, 127
1, 264133, Note_off_c, 1, 67, 0
1, 264133, Note_off_c, 1, 52, 0
1, 264135, Note_on_c, 1, 71, 127
1, 264135, Note_on_c, 1, 45, 127
1, 264276, Note_off_c, 1, 71, 0
1, 264279, Note_on_c, 1, 69, 127
1, 264404, Note_off_c, 1, 45, 0
1, 264417, Note_off_c, 1, 64, 0
1, 264420, Note_off_c, 1, 69, 0
1, 264423, Note_on_c, 1, 67, 127
1, 264423, Note_on_c, 1, 47, 127
1, 264423, Note_on_c, 1, 63, 127
1, 264564, Note_off_c, 1, 67, 0
1, 264567, Note_on_c, 1, 66, 127
1, 264692, Note_off_c, 1, 47, 0
1, 264706, Note_off_c, 1, 63, 0
1, 264708, Note_off_c, 1, 66, 0
1, 264710, Note_on_c, 1, 69, 127
1, 264710, Note_on_c, 1, 40, 127
1, 264710, Note_on_c, 1, 64, 127
1, 264851, Note_off_c, 1, 69, 0
1, 264854, Note_on_c, 1, 67, 127
1, 264995, Note_off_c, 1, 40, 0
1, 264995, Note_off_c, 1, 67, 0
1, 264998, Note_on_c, 1, 66, 127
1, 264998, Note_on_c, 1, 47, 127
1, 265139, Note_off_c, 1, 66, 0
1, 265267, Note_off_c, 1, 47, 0
1, 265279, Note_off_c, 1, 64, 0
1, 265285, Note_on_c, 1, 52, 127
1, 265285, Note_on_c, 1, 64, 127
1, 265429, Note_on_c, 1, 67, 127
1, 265554, Note_off_c, 1, 52, 0
1, 265563, Note_off_c, 1, 67, 0
1, 265568, Note_off_c, 1, 64, 0
1, 265573, Note_on_c, 1, 70, 127
1, 265573, Note_on_c, 1, 55, 127
1, 265714, Note_off_c, 1, 70, 0
1, 265717, Note_on_c, 1, 71, 127
1, 265858, Note_off_c, 1, 71, 0
1, 265861, Note_on_c, 1, 73, 127
1, 265861, Note_on_c, 1, 64, 127
1, 266002, Note_off_c, 1, 73, 0
1, 266146, Note_off_c, 1, 64, 0
1, 266148, Note_on_c, 1, 62, 127
1, 266292, Note_on_c, 1, 74, 127
1, 266433, Note_off_c, 1, 55, 0
1, 266433, Note_off_c, 1, 62, 0
1, 266433, Note_off_c, 1, 74, 0
1, 266436, Note_on_c, 1, 76, 127
1, 266436, Note_on_c, 1, 46, 127
1, 266506, Note_off_c, 1, 76, 0
1, 266508, Note_on_c, 1, 78, 127
1, 266578, Note_off_c, 1, 78, 0
1, 266581, Note_on_c, 1, 79, 127
1, 266722, Note_off_c, 1, 79, 0
1, 266869, Note_on_c, 1, 73, 127
1, 267010, Note_off_c, 1, 73, 0
1, 267013, Note_on_c, 1, 66, 127
1, 267298, Note_off_c, 1, 66, 0
1, 267300, Note_off_c, 1, 46, 0
1, 267302, Note_on_c, 1, 74, 127
1, 267302, Note_on_c, 1, 47, 127
1, 267302, Note_on_c, 1, 71, 127
1, 267443, Note_off_c, 1, 74, 0
1, 267446, Note_on_c, 1, 73, 127
1, 267587, Note_off_c, 1, 47, 0
1, 267587, Note_off_c, 1, 73, 0
1, 267590, Note_on_c, 1, 76, 127
1, 267590, Note_on_c, 1, 45, 127
1, 267731, Note_off_c, 1, 76, 0
1, 267859, Note_off_c, 1, 45, 0
1, 267871, Note_off_c, 1, 71, 0
1, 267877, Note_on_c, 1, 73, 127
1, 267877, Note_on_c, 1, 43, 127
1, 268018, Note_off_c, 1, 73, 0
1, 268021, Note_on_c, 1, 71, 127
1, 268146, Note_off_c, 1, 43, 0
1, 268162, Note_off_c, 1, 71, 0
1, 268165, Note_on_c, 1, 78, 127
1, 268165, Note_on_c, 1, 70, 127
1, 268165, Note_on_c, 1, 42, 127
1, 268736, Note_off_c, 1, 78, 0
1, 268736, Note_off_c, 1, 70, 0
1, 269029, Note_off_c, 1, 42, 0
1, 269031, Note_on_c, 1, 54, 127
1, 269031, Note_on_c, 1, 81, 127
1, 269031, Note_on_c, 1, 72, 127
1, 269172, Note_off_c, 1, 54, 0
1, 269175, Note_on_c, 1, 55, 127
1, 269316, Note_off_c, 1, 81, 0
1, 269316, Note_off_c, 1, 72, 0
1, 269316, Note_off_c, 1, 55, 0
1, 269319, Note_on_c, 1, 57, 127
1, 269319, Note_on_c, 1, 72, 127
1, 269319, Note_on_c, 1, 78, 127
1, 269590, Note_off_c, 1, 57, 0
1, 269606, Note_off_c, 1, 72, 0
1, 269606, Note_off_c, 1, 78, 0
1, 269608, Note_on_c, 1, 55, 127
1, 269608, Note_on_c, 1, 76, 127
1, 269608, Note_on_c, 1, 71, 127
1, 269879, Note_off_c, 1, 55, 0
1, 269895, Note_off_c, 1, 76, 0
1, 269895, Note_off_c, 1, 71, 0
1, 269897, Note_on_c, 1, 71, 127
1, 269897, Note_on_c, 1, 60, 127
1, 269897, Note_on_c, 1, 75, 127
1, 270038, Note_off_c, 1, 71, 0
1, 270041, Note_on_c, 1, 69, 127
1, 270182, Note_off_c, 1, 60, 0
1, 270182, Note_off_c, 1, 69, 0
1, 270185, Note_on_c, 1, 59, 127
1, 270329, Note_on_c, 1, 67, 127
1, 270454, Note_off_c, 1, 59, 0
1, 270470, Note_off_c, 1, 67, 0
1, 270472, Note_on_c, 1, 57, 127
1, 270615, Note_off_c, 1, 75, 0
1, 270616, Note_on_c, 1, 66, 127
1, 270741, Note_off_c, 1, 57, 0
1, 270757, Note_off_c, 1, 66, 0
1, 270760, Note_on_c, 1, 55, 127
1, 270760, Note_on_c, 1, 76, 127
1, 270760, Note_on_c, 1, 71, 127
1, 270901, Note_off_c, 1, 55, 0
1, 270904, Note_on_c, 1, 54, 127
1, 271045, Note_off_c, 1, 76, 0
1, 271045, Note_off_c, 1, 54, 0
1, 271048, Note_on_c, 1, 57, 127
1, 271048, Note_on_c, 1, 78, 127
1, 271189, Note_off_c, 1, 57, 0
1, 271333, Note_off_c, 1, 78, 0
1, 271335, Note_on_c, 1, 79, 127
1, 271479, Note_on_c, 1, 52, 127
1, 271604, Note_off_c, 1, 79, 0
1, 271620, Note_off_c, 1, 71, 0
1, 271620, Note_off_c, 1, 52, 0
1, 271623, Note_on_c, 1, 73, 127
1, 271623, Note_on_c, 1, 57, 127
1, 271764, Note_off_c, 1, 73, 0
1, 271766, Note_on_c, 1, 71, 127
1, 271907, Note_off_c, 1, 71, 0
1, 271910, Note_on_c, 1, 74, 127
1, 271910, Note_on_c, 1, 64, 127
1, 272051, Note_off_c, 1, 74, 0
1, 272195, Note_off_c, 1, 64, 0
1, 272198, Note_on_c, 1, 67, 127
1, 272342, Note_on_c, 1, 69, 127
1, 272483, Note_off_c, 1, 67, 0
1, 272483, Note_off_c, 1, 69, 0
1, 272485, Note_on_c, 1, 66, 127
1, 272626, Note_off_c, 1, 66, 0
1, 272629, Note_on_c, 1, 76, 127
1, 272770, Note_off_c, 1, 76, 0
1, 272773, Note_on_c, 1, 78, 127
1, 272914, Note_off_c, 1, 78, 0
1, 273204, Note_on_c, 1, 79, 127
1, 273346, Note_off_c, 1, 57, 0
1, 273347, Note_off_c, 1, 79, 0
1, 273350, Note_on_c, 1, 83, 127
1, 273637, Note_off_c, 1, 83, 0
1, 273639, Note_on_c, 1, 81, 127
1, 273639, Note_on_c, 1, 59, 127
1, 273639, Note_on_c, 1, 66, 127
1, 273893, Note_off_c, 1, 81, 0
1, 273908, Note_off_c, 1, 59, 0
1, 273924, Note_off_c, 1, 66, 0
1, 273927, Note_on_c, 1, 79, 127
1, 273927, Note_on_c, 1, 61, 127
1, 273927, Note_on_c, 1, 64, 127
1, 274181, Note_off_c, 1, 79, 0
1, 274196, Note_off_c, 1, 61, 0
1, 274212, Note_off_c, 1, 64, 0
1, 274214, Note_on_c, 1, 78, 127
1, 274214, Note_on_c, 1, 62, 127
1, 274355, Note_off_c, 1, 78, 0
1, 274358, Note_on_c, 1, 76, 127
1, 274499, Note_off_c, 1, 62, 0
1, 274499, Note_off_c, 1, 76, 0
1, 274502, Note_on_c, 1, 79, 127
1, 274502, Note_on_c, 1, 55, 127
1, 274502, Note_on_c, 1, 74, 127
1, 274643, Note_off_c, 1, 79, 0
1, 274646, Note_on_c, 1, 78, 127
1, 274771, Note_off_c, 1, 55, 0
1, 274785, Note_off_c, 1, 74, 0
1, 274787, Note_off_c, 1, 78, 0
1, 274789, Note_on_c, 1, 76, 127
1, 274789, Note_on_c, 1, 57, 127
1, 274789, Note_on_c, 1, 73, 127
1, 274930, Note_off_c, 1, 76, 0
1, 274933, Note_on_c, 1, 78, 127
1, 275058, Note_off_c, 1, 57, 0
1, 275072, Note_off_c, 1, 73, 0
1, 275074, Note_off_c, 1, 78, 0
1, 275077, Note_on_c, 1, 50, 127
1, 275077, Note_on_c, 1, 74, 127
1, 275364, Note_off_c, 1, 50, 0
1, 275366, Note_on_c, 1, 45, 127
1, 275637, Note_off_c, 1, 45, 0
1, 275650, Note_off_c, 1, 74, 0
1, 275656, Note_on_c, 1, 38, 127
1, 275927, Note_off_c, 1, 38, 0
1, 275945, Note_on_c, 1, 78, 127
1, 275945, Note_on_c, 1, 81, 127
1, 275945, Note_on_c, 1, 50, 127
1, 276088, Note_off_c, 1, 78, 0
1, 276088, Note_off_c, 1, 81, 0
1, 276088, Note_off_c, 1, 50, 0
1, 276091, Note_on_c, 1, 79, 127
1, 276091, Note_on_c, 1, 76, 127
1, 276091, Note_on_c, 1, 52, 127
1, 276234, Note_off_c, 1, 79, 0
1, 276234, Note_off_c, 1, 76, 0
1, 276234, Note_off_c, 1, 52, 0
1, 276236, Note_on_c, 1, 54, 127
1, 276236, Note_on_c, 1, 74, 127
1, 276236, Note_on_c, 1, 78, 127
1, 276379, Note_off_c, 1, 54, 0
1, 276382, Note_on_c, 1, 52, 127
1, 276509, Note_off_c, 1, 74, 0
1, 276525, Note_off_c, 1, 78, 0
1, 276525, Note_off_c, 1, 52, 0
1, 276528, Note_on_c, 1, 54, 127
1, 276528, Note_on_c, 1, 76, 127
1, 276528, Note_on_c, 1, 79, 127
1, 276671, Note_off_c, 1, 54, 0
1, 276673, Note_on_c, 1, 55, 127
1, 276801, Note_off_c, 1, 76, 0
1, 276816, Note_off_c, 1, 55, 0
1, 276817, Note_off_c, 1, 79, 0
1, 276819, Note_on_c, 1, 57, 127
1, 276819, Note_on_c, 1, 73, 127
1, 276819, Note_on_c, 1, 76, 127
1, 276962, Note_off_c, 1, 57, 0
1, 276964, Note_on_c, 1, 59, 127
1, 277107, Note_off_c, 1, 59, 0
1, 277108, Note_off_c, 1, 73, 0
1, 277108, Note_off_c, 1, 76, 0
1, 277110, Note_on_c, 1, 61, 127
1, 277110, Note_on_c, 1, 74, 127
1, 277110, Note_on_c, 1, 78, 127
1, 277253, Note_off_c, 1, 61, 0
1, 277256, Note_on_c, 1, 59, 127
1, 277383, Note_off_c, 1, 74, 0
1, 277399, Note_off_c, 1, 78, 0
1, 277399, Note_off_c, 1, 59, 0
1, 277401, Note_on_c, 1, 58, 127
1, 277401, Note_on_c, 1, 79, 127
1, 277401, Note_on_c, 1, 76, 127
1, 277544, Note_off_c, 1, 58, 0
1, 277547, Note_on_c, 1, 61, 127
1, 277674, Note_off_c, 1, 79, 0
1, 277688, Note_off_c, 1, 76, 0
1, 277690, Note_off_c, 1, 61, 0
1, 277692, Note_on_c, 1, 78, 127
1, 277692, Note_on_c, 1, 50, 127
1, 277838, Note_on_c, 1, 74, 127
1, 277981, Note_off_c, 1, 78, 0
1, 277983, Note_off_c, 1, 50, 0
1, 277983, Note_off_c, 1, 74, 0
1, 277985, Note_on_c, 1, 73, 127
1, 277985, Note_on_c, 1, 76, 127
1, 277985, Note_on_c, 1, 55, 127
1, 278121, Note_off_c, 1, 73, 0
1, 278128, Note_off_c, 1, 76, 0
1, 278131, Note_on_c, 1, 71, 127
1, 278131, Note_on_c, 1, 74, 127
1, 278258, Note_off_c, 1, 55, 0
1, 278267, Note_off_c, 1, 71, 0
1, 278274, Note_off_c, 1, 74, 0
1, 278277, Note_on_c, 1, 70, 127
1, 278277, Note_on_c, 1, 73, 127
1, 278277, Note_on_c, 1, 52, 127
1, 278413, Note_off_c, 1, 70, 0
1, 278420, Note_off_c, 1, 73, 0
1, 278422, Note_on_c, 1, 71, 127
1, 278550, Note_off_c, 1, 52, 0
1, 278558, Note_off_c, 1, 71, 0
1, 278568, Note_on_c, 1, 71, 127
1, 278568, Note_on_c, 1, 54, 127
1, 278715, Note_off_c, 1, 71, 0
1, 278717, Note_on_c, 1, 70, 127
1, 278864, Note_off_c, 1, 70, 0
1, 278868, Note_on_c, 1, 68, 127
1, 278868, Note_on_c, 1, 59, 127
1, 279015, Note_off_c, 1, 68, 0
1, 279150, Note_off_c, 1, 59, 0
1, 279170, Note_on_c, 1, 66, 127
1, 279170, Note_on_c, 1, 58, 127
1, 279317, Note_off_c, 1, 66, 0
1, 279472, Note_on_c, 1, 73, 127
1, 279546, Note_off_c, 1, 58, 0
1, 279623, Note_off_c, 1, 73, 0
1, 279627, Note_on_c, 1, 74, 127
1, 279778, Note_off_c, 1, 74, 0
1, 279784, Note_on_c, 1, 76, 127
1, 279784, Note_on_c, 1, 61, 127
1, 279935, Note_off_c, 1, 76, 0
1, 279935, Note_off_c, 1, 61, 0
1, 280253, Note_on_c, 1, 78, 127
1, 280253, Note_on_c, 1, 62, 127
1, 280300, Note_off_c, 1, 54, 0
1, 280404, Note_off_c, 1, 78, 0
1, 280404, Note_off_c, 1, 62, 0
1, 280410, Note_on_c, 1, 64, 127
1, 280410, Note_on_c, 1, 79, 127
1, 280724, Note_off_c, 1, 64, 0
1, 280724, Note_off_c, 1, 79, 0
1, 280728, Note_on_c, 1, 62, 127
1, 280728, Note_on_c, 1, 56, 127
1, 280728, Note_on_c, 1, 78, 127
1, 281024, Note_off_c, 1, 62, 0
1, 281024, Note_off_c, 1, 56, 0
1, 281024, Note_off_c, 1, 78, 0
1, 281048, Note_on_c, 1, 58, 127
1, 281048, Note_on_c, 1, 61, 127
1, 281048, Note_on_c, 1, 76, 127
1, 281344, Note_off_c, 1, 58, 0
1, 281344, Note_off_c, 1, 61, 0
1, 281344, Note_off_c, 1, 76, 0
1, 281369, Note_on_c, 1, 74, 127
1, 281369, Note_on_c, 1, 59, 127
1, 281530, Note_off_c, 1, 74, 0
1, 281534, Note_on_c, 1, 73, 127
1, 281695, Note_off_c, 1, 73, 0
1, 281702, Note_off_c, 1, 59, 0
1, 281704, Note_on_c, 1, 76, 127
1, 281704, Note_on_c, 1, 52, 127
1, 281704, Note_on_c, 1, 71, 127
1, 281865, Note_off_c, 1, 76, 0
1, 281873, Note_on_c, 1, 74, 127
1, 282017, Note_off_c, 1, 52, 0
1, 282017, Note_off_c, 1, 71, 0
1, 282036, Note_off_c, 1, 74, 0
1, 282042, Note_on_c, 1, 73, 127
1, 282042, Note_on_c, 1, 70, 127
1, 282042, Note_on_c, 1, 54, 127
1, 282203, Note_off_c, 1, 73, 0
1, 282219, Note_on_c, 1, 74, 127
1, 282353, Note_off_c, 1, 70, 0
1, 282403, Note_off_c, 1, 74, 0
1, 282406, Note_off_c, 1, 54, 0
1, 282426, Note_on_c, 1, 47, 127
1, 282426, Note_on_c, 1, 71, 127
1, 284426, Note_off_c, 1, 47, 0
1, 284426, Note_off_c, 1, 71, 0
1, 285002, Note_on_c, 1, 71, 127
1, 285202, Note_off_c, 1, 71, 0
1, 285289, Note_on_c, 1, 66, 127
1, 285836, Note_off_c, 1, 66, 0
1, 285839, Note_on_c, 1, 71, 127
1, 285839, Note_on_c, 1, 59, 127
1, 285906, Note_off_c, 1, 71, 0
1, 285908, Note_on_c, 1, 73, 127
1, 285975, Note_off_c, 1, 73, 0
1, 285977, Note_on_c, 1, 74, 127
1, 286041, Note_off_c, 1, 59, 0
1, 286113, Note_off_c, 1, 74, 0
1, 286115, Note_on_c, 1, 73, 127
1, 286115, Note_on_c, 1, 54, 127
1, 286662, Note_off_c, 1, 73, 0
1, 286662, Note_off_c, 1, 54, 0
1, 286665, Note_on_c, 1, 62, 127
1, 286665, Note_on_c, 1, 78, 127
1, 286865, Note_off_c, 1, 62, 0
1, 286938, Note_off_c, 1, 78, 0
1, 286940, Note_on_c, 1, 76, 127
1, 286940, Note_on_c, 1, 61, 127
1, 287213, Note_off_c, 1, 76, 0
1, 287215, Note_on_c, 1, 78, 127
1, 287351, Note_off_c, 1, 78, 0
1, 287489, Note_off_c, 1, 61, 0
1, 287491, Note_on_c, 1, 74, 127
1, 287491, Note_on_c, 1, 66, 127
1, 287627, Note_off_c, 1, 74, 0
1, 287630, Note_on_c, 1, 73, 127
1, 287693, Note_off_c, 1, 66, 0
1, 287766, Note_off_c, 1, 73, 0
1, 287768, Note_on_c, 1, 74, 127
1, 287768, Note_on_c, 1, 59, 127
1, 287904, Note_off_c, 1, 74, 0
1, 287906, Note_on_c, 1, 73, 127
1, 288042, Note_off_c, 1, 73, 0
1, 288045, Note_on_c, 1, 71, 127
1, 288181, Note_off_c, 1, 71, 0
1, 288314, Note_off_c, 1, 59, 0
1, 288319, Note_on_c, 1, 78, 127
1, 288455, Note_off_c, 1, 78, 0
1, 288458, Note_on_c, 1, 74, 127
1, 288594, Note_off_c, 1, 74, 0
1, 288596, Note_on_c, 1, 83, 127
1, 288733, Note_on_c, 1, 78, 127
1, 288867, Note_off_c, 1, 83, 0
1, 288869, Note_off_c, 1, 78, 0
1, 288871, Note_on_c, 1, 74, 127
1, 289007, Note_off_c, 1, 74, 0
1, 289009, Note_on_c, 1, 71, 127
1, 289009, Note_on_c, 1, 59, 127
1, 289145, Note_off_c, 1, 71, 0
1, 289145, Note_off_c, 1, 59, 0
1, 289148, Note_on_c, 1, 78, 127
1, 289148, Note_on_c, 1, 62, 127
1, 289284, Note_off_c, 1, 78, 0
1, 289284, Note_off_c, 1, 62, 0
1, 289286, Note_on_c, 1, 74, 127
1, 289286, Note_on_c, 1, 59, 127
1, 289422, Note_off_c, 1, 74, 0
1, 289422, Note_off_c, 1, 59, 0
1, 289424, Note_on_c, 1, 64, 127
1, 289424, Note_on_c, 1, 79, 127
1, 289560, Note_off_c, 1, 64, 0
1, 289562, Note_on_c, 1, 76, 127
1, 289562, Note_on_c, 1, 59, 127
1, 289697, Note_off_c, 1, 79, 0
1, 289698, Note_off_c, 1, 76, 0
1, 289698, Note_off_c, 1, 59, 0
1, 289701, Note_on_c, 1, 71, 127
1, 289701, Note_on_c, 1, 55, 127
1, 289837, Note_off_c, 1, 71, 0
1, 289837, Note_off_c, 1, 55, 0
1, 289839, Note_on_c, 1, 76, 127
1, 289839, Note_on_c, 1, 52, 127
1, 289975, Note_off_c, 1, 76, 0
1, 289975, Note_off_c, 1, 52, 0
1, 289977, Note_on_c, 1, 79, 127
1, 289977, Note_on_c, 1, 59, 127
1, 290113, Note_off_c, 1, 79, 0
1, 290113, Note_off_c, 1, 59, 0
1, 290116, Note_on_c, 1, 76, 127
1, 290116, Note_on_c, 1, 55, 127
1, 290252, Note_off_c, 1, 76, 0
1, 290252, Note_off_c, 1, 55, 0
1, 290254, Note_on_c, 1, 61, 127
1, 290254, Note_on_c, 1, 81, 127
1, 290390, Note_off_c, 1, 61, 0
1, 290392, Note_on_c, 1, 76, 127
1, 290392, Note_on_c, 1, 57, 127
1, 290527, Note_off_c, 1, 81, 0
1, 290528, Note_off_c, 1, 76, 0
1, 290528, Note_off_c, 1, 57, 0
1, 290531, Note_on_c, 1, 73, 127
1, 290531, Note_on_c, 1, 52, 127
1, 290667, Note_off_c, 1, 73, 0
1, 290667, Note_off_c, 1, 52, 0
1, 290669, Note_on_c, 1, 69, 127
1, 290669, Note_on_c, 1, 57, 127
1, 290805, Note_off_c, 1, 69, 0
1, 290805, Note_off_c, 1, 57, 0
1, 290807, Note_on_c, 1, 76, 127
1, 290807, Note_on_c, 1, 61, 127
1, 290943, Note_off_c, 1, 76, 0
1, 290943, Note_off_c, 1, 61, 0
1, 290946, Note_on_c, 1, 73, 127
1, 290946, Note_on_c, 1, 57, 127
1, 291082, Note_off_c, 1, 73, 0
1, 291082, Note_off_c, 1, 57, 0
1, 291084, Note_on_c, 1, 62, 127
1, 291084, Note_on_c, 1, 78, 127
1, 291220, Note_off_c, 1, 62, 0
1, 291222, Note_on_c, 1, 74, 127
1, 291222, Note_on_c, 1, 57, 127
1, 291357, Note_off_c, 1, 78, 0
1, 291358, Note_off_c, 1, 74, 0
1, 291358, Note_off_c, 1, 57, 0
1, 291361, Note_on_c, 1, 69, 127
1, 291361, Note_on_c, 1, 54, 127
1, 291497, Note_off_c, 1, 69, 0
1, 291497, Note_off_c, 1, 54, 0
1, 291499, Note_on_c, 1, 74, 127
1, 291499, Note_on_c, 1, 50, 127
1, 291635, Note_off_c, 1, 74, 0
1, 291635, Note_off_c, 1, 50, 0
1, 291637, Note_on_c, 1, 78, 127
1, 291637, Note_on_c, 1, 57, 127
1, 291773, Note_off_c, 1, 78, 0
1, 291773, Note_off_c, 1, 57, 0
1, 291776, Note_on_c, 1, 74, 127
1, 291776, Note_on_c, 1, 54, 127
1, 291912, Note_off_c, 1, 74, 0
1, 291912, Note_off_c, 1, 54, 0
1, 291914, Note_on_c, 1, 79, 127
1, 291914, Note_on_c, 1, 59, 127
1, 292050, Note_on_c, 1, 74, 127
1, 292085, Note_off_c, 1, 79, 0
1, 292186, Note_off_c, 1, 74, 0
1, 292187, Note_off_c, 1, 59, 0
1, 292189, Note_on_c, 1, 78, 127
1, 292189, Note_on_c, 1, 57, 127
1, 292325, Note_on_c, 1, 74, 127
1, 292360, Note_off_c, 1, 78, 0
1, 292431, Note_off_c, 1, 57, 0
1, 292459, Note_off_c, 1, 74, 0
1, 292462, Note_on_c, 1, 76, 127
1, 292462, Note_on_c, 1, 55, 127
1, 292598, Note_off_c, 1, 76, 0
1, 292600, Note_on_c, 1, 74, 127
1, 292705, Note_off_c, 1, 55, 0
1, 292734, Note_off_c, 1, 74, 0
1, 292737, Note_on_c, 1, 81, 127
1, 292737, Note_on_c, 1, 54, 127
1, 292873, Note_on_c, 1, 74, 127
1, 292908, Note_off_c, 1, 81, 0
1, 293009, Note_off_c, 1, 74, 0
1, 293010, Note_off_c, 1, 54, 0
1, 293011, Note_on_c, 1, 79, 127
1, 293011, Note_on_c, 1, 52, 127
1, 293148, Note_on_c, 1, 74, 127
1, 293182, Note_off_c, 1, 79, 0
1, 293253, Note_off_c, 1, 52, 0
1, 293282, Note_off_c, 1, 74, 0
1, 293284, Note_on_c, 1, 78, 127
1, 293284, Note_on_c, 1, 50, 127
1, 293420, Note_off_c, 1, 78, 0
1, 293423, Note_on_c, 1, 74, 127
1, 293527, Note_off_c, 1, 50, 0
1, 293557, Note_off_c, 1, 74, 0
1, 293559, Note_on_c, 1, 55, 127
1, 293559, Note_on_c, 1, 83, 127
1, 293696, Note_on_c, 1, 62, 127
1, 293715, Note_off_c, 1, 55, 0
1, 293832, Note_off_c, 1, 83, 0
1, 293832, Note_off_c, 1, 62, 0
1, 293834, Note_on_c, 1, 54, 127
1, 293834, Note_on_c, 1, 81, 127
1, 293971, Note_on_c, 1, 62, 127
1, 293990, Note_off_c, 1, 54, 0
1, 294034, Note_off_c, 1, 81, 0
1, 294107, Note_off_c, 1, 62, 0
1, 294109, Note_on_c, 1, 52, 127
1, 294109, Note_on_c, 1, 79, 127
1, 294245, Note_off_c, 1, 52, 0
1, 294247, Note_on_c, 1, 62, 127
1, 294311, Note_off_c, 1, 79, 0
1, 294383, Note_off_c, 1, 62, 0
1, 294385, Note_on_c, 1, 57, 127
1, 294385, Note_on_c, 1, 78, 127
1, 294522, Note_on_c, 1, 62, 127
1, 294541, Note_off_c, 1, 57, 0
1, 294658, Note_off_c, 1, 78, 0
1, 294658, Note_off_c, 1, 62, 0
1, 294660, Note_on_c, 1, 55, 127
1, 294660, Note_on_c, 1, 76, 127
1, 294797, Note_on_c, 1, 62, 127
1, 294816, Note_off_c, 1, 55, 0
1, 294860, Note_off_c, 1, 76, 0
1, 294933, Note_off_c, 1, 62, 0
1, 294935, Note_on_c, 1, 54, 127
1, 294935, Note_on_c, 1, 74, 127
1, 295071, Note_off_c, 1, 54, 0
1, 295073, Note_on_c, 1, 62, 127
1, 295137, Note_off_c, 1, 74, 0
1, 295209, Note_off_c, 1, 62, 0
1, 295212, Note_on_c, 1, 76, 127
1, 295212, Note_on_c, 1, 55, 127
1, 295348, Note_off_c, 1, 76, 0
1, 295348, Note_off_c, 1, 55, 0
1, 295350, Note_on_c, 1, 74, 127
1, 295350, Note_on_c, 1, 54, 127
1, 295486, Note_off_c, 1, 74, 0
1, 295486, Note_off_c, 1, 54, 0
1, 295488, Note_on_c, 1, 52, 127
1, 295488, Note_on_c, 1, 73, 127
1, 295625, Note_on_c, 1, 76, 127
1, 295625, Note_on_c, 1, 55, 127
1, 295644, Note_off_c, 1, 52, 0
1, 295659, Note_off_c, 1, 73, 0
1, 295761, Note_off_c, 1, 76, 0
1, 295761, Note_off_c, 1, 55, 0
1, 295763, Note_on_c, 1, 71, 127
1, 295763, Note_on_c, 1, 50, 127
1, 295899, Note_off_c, 1, 71, 0
1, 295899, Note_off_c, 1, 50, 0
1, 295902, Note_on_c, 1, 76, 127
1, 295902, Note_on_c, 1, 55, 127
1, 296038, Note_off_c, 1, 76, 0
1, 296038, Note_off_c, 1, 55, 0
1, 296040, Note_on_c, 1, 49, 127
1, 296040, Note_on_c, 1, 69, 127
1, 296176, Note_on_c, 1, 76, 127
1, 296176, Note_on_c, 1, 55, 127
1, 296196, Note_off_c, 1, 49, 0
1, 296211, Note_off_c, 1, 69, 0
1, 296312, Note_off_c, 1, 76, 0
1, 296312, Note_off_c, 1, 55, 0
1, 296315, Note_on_c, 1, 47, 127
1, 296315, Note_on_c, 1, 67, 127
1, 296451, Note_on_c, 1, 76, 127
1, 296451, Note_on_c, 1, 55, 127
1, 296471, Note_off_c, 1, 47, 0
1, 296486, Note_off_c, 1, 67, 0
1, 296587, Note_off_c, 1, 76, 0
1, 296587, Note_off_c, 1, 55, 0
1, 296590, Note_on_c, 1, 66, 127
1, 296590, Note_on_c, 1, 45, 127
1, 296726, Note_off_c, 1, 66, 0
1, 296726, Note_off_c, 1, 45, 0
1, 296728, Note_on_c, 1, 74, 127
1, 296728, Note_on_c, 1, 54, 127
1, 296864, Note_off_c, 1, 74, 0
1, 296864, Note_off_c, 1, 54, 0
1, 296866, Note_on_c, 1, 43, 127
1, 296866, Note_on_c, 1, 64, 127
1, 297003, Note_on_c, 1, 74, 127
1, 297003, Note_on_c, 1, 52, 127
1, 297022, Note_off_c, 1, 43, 0
1, 297037, Note_off_c, 1, 64, 0
1, 297139, Note_off_c, 1, 74, 0
1, 297139, Note_off_c, 1, 52, 0
1, 297141, Note_on_c, 1, 73, 127
1, 297141, Note_on_c, 1, 45, 127
1, 297277, Note_off_c, 1, 73, 0
1, 297279, Note_on_c, 1, 71, 127
1, 297384, Note_off_c, 1, 45, 0
1, 297413, Note_off_c, 1, 71, 0
1, 297416, Note_on_c, 1, 69, 127
1, 297416, Note_on_c, 1, 49, 127
1, 297552, Note_off_c, 1, 69, 0
1, 297554, Note_on_c, 1, 67, 127
1, 297659, Note_off_c, 1, 49, 0
1, 297688, Note_off_c, 1, 67, 0
1, 297691, Note_on_c, 1, 66, 127
1, 297691, Note_on_c, 1, 50, 127
1, 297827, Note_off_c, 1, 66, 0
1, 297829, Note_on_c, 1, 64, 127
1, 297965, Note_off_c, 1, 50, 0
1, 297965, Note_off_c, 1, 64, 0
1, 297967, Note_on_c, 1, 62, 127
1, 297967, Note_on_c, 1, 38, 127
1, 298103, Note_off_c, 1, 62, 0
1, 298106, Note_on_c, 1, 64, 127
1, 298210, Note_off_c, 1, 38, 0
1, 298240, Note_off_c, 1, 64, 0
1, 298242, Note_on_c, 1, 66, 127
1, 298242, Note_on_c, 1, 43, 127
1, 298378, Note_off_c, 1, 66, 0
1, 298380, Note_on_c, 1, 67, 127
1, 298485, Note_off_c, 1, 43, 0
1, 298514, Note_off_c, 1, 67, 0
1, 298517, Note_on_c, 1, 69, 127
1, 298517, Note_on_c, 1, 42, 127
1, 298653, Note_off_c, 1, 69, 0
1, 298655, Note_on_c, 1, 62, 127
1, 298791, Note_off_c, 1, 62, 0
1, 298794, Note_on_c, 1, 66, 127
1, 298930, Note_off_c, 1, 66, 0
1, 299048, Note_off_c, 1, 42, 0
1, 299068, Note_on_c, 1, 47, 127
1, 299068, Note_on_c, 1, 74, 127
1, 299204, Note_off_c, 1, 47, 0
1, 299207, Note_on_c, 1, 49, 127
1, 299274, Note_off_c, 1, 49, 0
1, 299276, Note_on_c, 1, 50, 127
1, 299343, Note_off_c, 1, 50, 0
1, 299345, Note_on_c, 1, 44, 127
1, 299481, Note_off_c, 1, 74, 0
1, 299483, Note_on_c, 1, 71, 127
1, 299619, Note_off_c, 1, 71, 0
1, 299622, Note_on_c, 1, 68, 127
1, 299758, Note_off_c, 1, 68, 0
1, 299760, Note_on_c, 1, 64, 127
1, 299876, Note_off_c, 1, 44, 0
1, 299894, Note_off_c, 1, 64, 0
1, 299896, Note_on_c, 1, 73, 127
1, 299896, Note_on_c, 1, 52, 127
1, 300032, Note_off_c, 1, 73, 0
1, 300035, Note_on_c, 1, 69, 127
1, 300170, Note_off_c, 1, 52, 0
1, 300171, Note_off_c, 1, 69, 0
1, 300173, Note_on_c, 1, 78, 127
1, 300173, Note_on_c, 1, 50, 127
1, 300309, Note_off_c, 1, 78, 0
1, 300311, Note_on_c, 1, 74, 127
1, 300447, Note_off_c, 1, 50, 0
1, 300447, Note_off_c, 1, 74, 0
1, 300450, Note_on_c, 1, 81, 127
1, 300450, Note_on_c, 1, 52, 127
1, 300539, Note_off_c, 1, 81, 0
1, 300541, Note_on_c, 1, 80, 127
1, 300584, Note_off_c, 1, 52, 0
1, 300586, Note_on_c, 1, 50, 127
1, 300630, Note_off_c, 1, 80, 0
1, 300720, Note_off_c, 1, 50, 0
1, 300723, Note_on_c, 1, 80, 127
1, 300723, Note_on_c, 1, 49, 127
1, 300812, Note_off_c, 1, 80, 0
1, 300814, Note_on_c, 1, 78, 127
1, 300857, Note_off_c, 1, 49, 0
1, 300859, Note_on_c, 1, 47, 127
1, 300903, Note_off_c, 1, 78, 0
1, 300993, Note_off_c, 1, 47, 0
1, 300996, Note_on_c, 1, 49, 127
1, 300996, Note_on_c, 1, 81, 127
1, 301132, Note_off_c, 1, 49, 0
1, 301134, Note_on_c, 1, 47, 127
1, 301270, Note_off_c, 1, 47, 0
1, 301272, Note_on_c, 1, 45, 127
1, 301272, Note_on_c, 1, 69, 127
1, 301408, Note_off_c, 1, 45, 0
1, 301542, Note_off_c, 1, 81, 0
1, 301545, Note_off_c, 1, 69, 0
1, 301547, Note_on_c, 1, 49, 127
1, 301547, Note_on_c, 1, 81, 127
1, 301683, Note_off_c, 1, 49, 0
1, 301686, Note_on_c, 1, 45, 127
1, 301822, Note_off_c, 1, 45, 0
1, 301824, Note_on_c, 1, 50, 127
1, 301824, Note_on_c, 1, 71, 127
1, 301960, Note_off_c, 1, 50, 0
1, 301962, Note_on_c, 1, 47, 127
1, 302093, Note_off_c, 1, 81, 0
1, 302096, Note_off_c, 1, 47, 0
1, 302099, Note_on_c, 1, 42, 127
1, 302224, Note_off_c, 1, 71, 0
1, 302233, Note_off_c, 1, 42, 0
1, 302235, Note_on_c, 1, 80, 127
1, 302235, Note_on_c, 1, 38, 127
1, 302371, Note_off_c, 1, 80, 0
1, 302371, Note_off_c, 1, 38, 0
1, 302373, Note_on_c, 1, 81, 127
1, 302373, Note_on_c, 1, 50, 127
1, 302509, Note_off_c, 1, 81, 0
1, 302509, Note_off_c, 1, 50, 0
1, 302512, Note_on_c, 1, 83, 127
1, 302512, Note_on_c, 1, 47, 127
1, 302648, Note_off_c, 1, 83, 0
1, 302648, Note_off_c, 1, 47, 0
1, 302650, Note_on_c, 1, 52, 127
1, 302650, Note_on_c, 1, 80, 127
1, 302786, Note_off_c, 1, 52, 0
1, 302788, Note_on_c, 1, 47, 127
1, 302924, Note_off_c, 1, 47, 0
1, 302927, Note_on_c, 1, 44, 127
1, 303063, Note_off_c, 1, 44, 0
1, 303065, Note_on_c, 1, 40, 127
1, 303201, Note_off_c, 1, 40, 0
1, 303203, Note_on_c, 1, 50, 127
1, 303339, Note_off_c, 1, 50, 0
1, 303478, Note_off_c, 1, 80, 0
1, 303480, Note_on_c, 1, 49, 127
1, 303616, Note_off_c, 1, 49, 0
1, 303618, Note_on_c, 1, 45, 127
1, 303754, Note_off_c, 1, 45, 0
1, 303757, Note_on_c, 1, 69, 127
1, 303757, Note_on_c, 1, 49, 127
1, 303893, Note_off_c, 1, 69, 0
1, 303893, Note_off_c, 1, 49, 0
1, 303895, Note_on_c, 1, 80, 127
1, 303895, Note_on_c, 1, 52, 127
1, 304031, Note_off_c, 1, 80, 0
1, 304031, Note_off_c, 1, 52, 0
1, 304033, Note_on_c, 1, 81, 127
1, 304033, Note_on_c, 1, 57, 127
1, 304169, Note_off_c, 1, 81, 0
1, 304169, Note_off_c, 1, 57, 0
1, 304172, Note_on_c, 1, 80, 127
1, 304172, Note_on_c, 1, 49, 127
1, 304308, Note_off_c, 1, 80, 0
1, 304308, Note_off_c, 1, 49, 0
1, 304310, Note_on_c, 1, 78, 127
1, 304310, Note_on_c, 1, 50, 127
1, 304446, Note_off_c, 1, 78, 0
1, 304446, Note_off_c, 1, 50, 0
1, 304448, Note_on_c, 1, 77, 127
1, 304448, Note_on_c, 1, 45, 127
1, 304584, Note_off_c, 1, 77, 0
1, 304584, Note_off_c, 1, 45, 0
1, 304587, Note_on_c, 1, 50, 127
1, 304587, Note_on_c, 1, 78, 127
1, 304723, Note_off_c, 1, 50, 0
1, 304725, Note_on_c, 1, 54, 127
1, 304861, Note_off_c, 1, 54, 0
1, 304863, Note_on_c, 1, 57, 127
1, 304999, Note_off_c, 1, 57, 0
1, 305140, Note_on_c, 1, 59, 127
1, 305220, Note_off_c, 1, 78, 0
1, 305276, Note_off_c, 1, 59, 0
1, 305278, Note_on_c, 1, 81, 127
1, 305278, Note_on_c, 1, 57, 127
1, 305414, Note_off_c, 1, 81, 0
1, 305414, Note_off_c, 1, 57, 0
1, 305417, Note_on_c, 1, 80, 127
1, 305417, Note_on_c, 1, 59, 127
1, 305553, Note_off_c, 1, 80, 0
1, 305553, Note_off_c, 1, 59, 0
1, 305555, Note_on_c, 1, 78, 127
1, 305555, Note_on_c, 1, 61, 127
1, 305691, Note_off_c, 1, 78, 0
1, 305691, Note_off_c, 1, 61, 0
1, 305693, Note_on_c, 1, 77, 127
1, 305693, Note_on_c, 1, 62, 127
1, 305829, Note_off_c, 1, 77, 0
1, 305829, Note_off_c, 1, 62, 0
1, 305831, Note_on_c, 1, 78, 127
1, 305831, Note_on_c, 1, 59, 127
1, 305967, Note_off_c, 1, 78, 0
1, 305967, Note_off_c, 1, 59, 0
1, 305970, Note_on_c, 1, 61, 127
1, 305970, Note_on_c, 1, 77, 127
1, 306106, Note_off_c, 1, 61, 0
1, 306108, Note_on_c, 1, 80, 127
1, 306108, Note_on_c, 1, 59, 127
1, 306142, Note_off_c, 1, 77, 0
1, 306244, Note_off_c, 1, 80, 0
1, 306244, Note_off_c, 1, 59, 0
1, 306246, Note_on_c, 1, 73, 127
1, 306246, Note_on_c, 1, 57, 127
1, 306382, Note_off_c, 1, 73, 0
1, 306382, Note_off_c, 1, 57, 0
1, 306385, Note_on_c, 1, 71, 127
1, 306385, Note_on_c, 1, 61, 127
1, 306521, Note_off_c, 1, 71, 0
1, 306521, Note_off_c, 1, 61, 0
1, 306523, Note_on_c, 1, 54, 127
1, 306523, Note_on_c, 1, 69, 127
1, 306659, Note_off_c, 1, 54, 0
1, 306661, Note_on_c, 1, 78, 127
1, 306661, Note_on_c, 1, 57, 127
1, 306695, Note_off_c, 1, 69, 0
1, 306797, Note_off_c, 1, 78, 0
1, 306797, Note_off_c, 1, 57, 0
1, 306800, Note_on_c, 1, 59, 127
1, 306800, Note_on_c, 1, 74, 127
1, 306936, Note_off_c, 1, 59, 0
1, 306938, Note_on_c, 1, 54, 127
1, 307074, Note_off_c, 1, 74, 0
1, 307074, Note_off_c, 1, 54, 0
1, 307076, Note_on_c, 1, 57, 127
1, 307076, Note_on_c, 1, 73, 127
1, 307212, Note_off_c, 1, 57, 0
1, 307215, Note_on_c, 1, 54, 127
1, 307278, Note_off_c, 1, 73, 0
1, 307351, Note_off_c, 1, 54, 0
1, 307353, Note_on_c, 1, 56, 127
1, 307353, Note_on_c, 1, 71, 127
1, 307489, Note_off_c, 1, 56, 0
1, 307491, Note_on_c, 1, 54, 127
1, 307555, Note_off_c, 1, 71, 0
1, 307627, Note_off_c, 1, 54, 0
1, 307630, Note_on_c, 1, 61, 127
1, 307630, Note_on_c, 1, 69, 127
1, 307766, Note_off_c, 1, 61, 0
1, 307768, Note_on_c, 1, 54, 127
1, 307904, Note_off_c, 1, 69, 0
1, 307904, Note_off_c, 1, 54, 0
1, 307906, Note_on_c, 1, 59, 127
1, 307906, Note_on_c, 1, 68, 127
1, 308042, Note_off_c, 1, 59, 0
1, 308045, Note_on_c, 1, 54, 127
1, 308108, Note_off_c, 1, 68, 0
1, 308181, Note_off_c, 1, 54, 0
1, 308183, Note_on_c, 1, 57, 127
1, 308183, Note_on_c, 1, 66, 127
1, 308319, Note_off_c, 1, 57, 0
1, 308321, Note_on_c, 1, 54, 127
1, 308385, Note_off_c, 1, 66, 0
1, 308457, Note_off_c, 1, 54, 0
1, 308460, Note_on_c, 1, 71, 127
1, 308460, Note_on_c, 1, 62, 127
1, 308596, Note_off_c, 1, 71, 0
1, 308598, Note_on_c, 1, 78, 127
1, 308734, Note_off_c, 1, 62, 0
1, 308734, Note_off_c, 1, 78, 0
1, 308736, Note_on_c, 1, 69, 127
1, 308736, Note_on_c, 1, 61, 127
1, 308872, Note_off_c, 1, 69, 0
1, 308875, Note_on_c, 1, 78, 127
1, 308979, Note_off_c, 1, 61, 0
1, 309009, Note_off_c, 1, 78, 0
1, 309011, Note_on_c, 1, 68, 127
1, 309011, Note_on_c, 1, 59, 127
1, 309147, Note_off_c, 1, 68, 0
1, 309149, Note_on_c, 1, 78, 127
1, 309254, Note_off_c, 1, 59, 0
1, 309283, Note_off_c, 1, 78, 0
1, 309286, Note_on_c, 1, 73, 127
1, 309286, Note_on_c, 1, 57, 127
1, 309422, Note_off_c, 1, 73, 0
1, 309424, Note_on_c, 1, 78, 127
1, 309560, Note_off_c, 1, 57, 0
1, 309560, Note_off_c, 1, 78, 0
1, 309562, Note_on_c, 1, 71, 127
1, 309562, Note_on_c, 1, 56, 127
1, 309698, Note_off_c, 1, 71, 0
1, 309701, Note_on_c, 1, 78, 127
1, 309805, Note_off_c, 1, 56, 0
1, 309835, Note_off_c, 1, 78, 0
1, 309837, Note_on_c, 1, 69, 127
1, 309837, Note_on_c, 1, 54, 127
1, 309973, Note_off_c, 1, 69, 0
1, 309976, Note_on_c, 1, 78, 127
1, 310080, Note_off_c, 1, 54, 0
1, 310110, Note_off_c, 1, 78, 0
1, 310112, Note_on_c, 1, 83, 127
1, 310112, Note_on_c, 1, 56, 127
1, 310248, Note_off_c, 1, 83, 0
1, 310248, Note_off_c, 1, 56, 0
1, 310250, Note_on_c, 1, 81, 127
1, 310250, Note_on_c, 1, 54, 127
1, 310386, Note_off_c, 1, 81, 0
1, 310386, Note_off_c, 1, 54, 0
1, 310389, Note_on_c, 1, 53, 127
1, 310389, Note_on_c, 1, 80, 127
1, 310525, Note_on_c, 1, 83, 127
1, 310525, Note_on_c, 1, 56, 127
1, 310545, Note_off_c, 1, 53, 0
1, 310560, Note_off_c, 1, 80, 0
1, 310661, Note_off_c, 1, 83, 0
1, 310661, Note_off_c, 1, 56, 0
1, 310664, Note_on_c, 1, 50, 127
1, 310664, Note_on_c, 1, 78, 127
1, 310800, Note_on_c, 1, 83, 127
1, 310800, Note_on_c, 1, 56, 127
1, 310820, Note_off_c, 1, 50, 0
1, 310835, Note_off_c, 1, 78, 0
1, 310936, Note_off_c, 1, 83, 0
1, 310936, Note_off_c, 1, 56, 0
1, 310938, Note_on_c, 1, 49, 127
1, 310938, Note_on_c, 1, 77, 127
1, 311075, Note_on_c, 1, 83, 127
1, 311075, Note_on_c, 1, 56, 127
1, 311094, Note_off_c, 1, 49, 0
1, 311109, Note_off_c, 1, 77, 0
1, 311211, Note_off_c, 1, 83, 0
1, 311211, Note_off_c, 1, 56, 0
1, 311213, Note_on_c, 1, 47, 127
1, 311213, Note_on_c, 1, 74, 127
1, 311350, Note_on_c, 1, 83, 127
1, 311350, Note_on_c, 1, 56, 127
1, 311369, Note_off_c, 1, 47, 0
1, 311384, Note_off_c, 1, 74, 0
1, 311486, Note_off_c, 1, 83, 0
1, 311486, Note_off_c, 1, 56, 0
1, 311488, Note_on_c, 1, 45, 127
1, 311488, Note_on_c, 1, 73, 127
1, 311625, Note_on_c, 1, 81, 127
1, 311625, Note_on_c, 1, 54, 127
1, 311644, Note_off_c, 1, 45, 0
1, 311659, Note_off_c, 1, 73, 0
1, 311761, Note_off_c, 1, 81, 0
1, 311761, Note_off_c, 1, 54, 0
1, 311763, Note_on_c, 1, 50, 127
1, 311763, Note_on_c, 1, 71, 127
1, 311899, Note_off_c, 1, 50, 0
1, 311901, Note_on_c, 1, 80, 127
1, 311901, Note_on_c, 1, 47, 127
1, 311935, Note_off_c, 1, 71, 0
1, 312037, Note_off_c, 1, 80, 0
1, 312037, Note_off_c, 1, 47, 0
1, 312039, Note_on_c, 1, 49, 127
1, 312039, Note_on_c, 1, 73, 127
1, 312282, Note_off_c, 1, 49, 0
1, 312312, Note_off_c, 1, 73, 0
1, 312314, Note_on_c, 1, 77, 127
1, 312314, Note_on_c, 1, 37, 127
1, 312514, Note_off_c, 1, 77, 0
1, 312557, Note_off_c, 1, 37, 0
1, 312589, Note_on_c, 1, 42, 127
1, 312589, Note_on_c, 1, 78, 127
1, 313133, Note_off_c, 1, 42, 0
1, 313136, Note_off_c, 1, 78, 0
1, 313139, Note_on_c, 1, 73, 127
1, 313339, Note_off_c, 1, 73, 0
1, 313414, Note_on_c, 1, 71, 127
1, 313550, Note_off_c, 1, 71, 0
1, 313552, Note_on_c, 1, 70, 127
1, 313688, Note_off_c, 1, 70, 0
1, 313690, Note_on_c, 1, 68, 127
1, 313826, Note_off_c, 1, 68, 0
1, 313829, Note_on_c, 1, 66, 127
1, 313965, Note_off_c, 1, 66, 0
1, 313967, Note_on_c, 1, 78, 127
1, 313967, Note_on_c, 1, 54, 127
1, 314103, Note_off_c, 1, 78, 0
1, 314105, Note_on_c, 1, 70, 127
1, 314210, Note_off_c, 1, 54, 0
1, 314239, Note_off_c, 1, 70, 0
1, 314242, Note_on_c, 1, 71, 127
1, 314242, Note_on_c, 1, 52, 127
1, 314378, Note_off_c, 1, 71, 0
1, 314378, Note_off_c, 1, 52, 0
1, 314380, Note_on_c, 1, 73, 127
1, 314380, Note_on_c, 1, 50, 127
1, 314516, Note_off_c, 1, 73, 0
1, 314516, Note_off_c, 1, 50, 0
1, 314518, Note_on_c, 1, 49, 127
1, 314518, Note_on_c, 1, 74, 127
1, 314654, Note_off_c, 1, 49, 0
1, 314657, Note_on_c, 1, 47, 127
1, 314793, Note_off_c, 1, 47, 0
1, 314795, Note_on_c, 1, 59, 127
1, 314931, Note_off_c, 1, 59, 0
1, 314933, Note_on_c, 1, 50, 127
1, 315064, Note_off_c, 1, 74, 0
1, 315067, Note_off_c, 1, 50, 0
1, 315070, Note_on_c, 1, 52, 127
1, 315206, Note_off_c, 1, 52, 0
1, 315208, Note_on_c, 1, 73, 127
1, 315208, Note_on_c, 1, 54, 127
1, 315344, Note_off_c, 1, 73, 0
1, 315344, Note_off_c, 1, 54, 0
1, 315346, Note_on_c, 1, 71, 127
1, 315346, Note_on_c, 1, 56, 127
1, 315482, Note_off_c, 1, 71, 0
1, 315485, Note_on_c, 1, 69, 127
1, 315621, Note_off_c, 1, 69, 0
1, 315623, Note_on_c, 1, 76, 127
1, 315759, Note_off_c, 1, 76, 0
1, 315806, Note_off_c, 1, 56, 0
1, 315898, Note_on_c, 1, 57, 127
1, 315898, Note_on_c, 1, 73, 127
1, 316034, Note_off_c, 1, 57, 0
1, 316036, Note_on_c, 1, 55, 127
1, 316172, Note_off_c, 1, 73, 0
1, 316172, Note_off_c, 1, 55, 0
1, 316175, Note_on_c, 1, 54, 127
1, 316175, Note_on_c, 1, 69, 127
1, 316311, Note_off_c, 1, 54, 0
1, 316313, Note_on_c, 1, 52, 127
1, 316377, Note_off_c, 1, 69, 0
1, 316449, Note_off_c, 1, 52, 0
1, 316451, Note_on_c, 1, 57, 127
1, 316451, Note_on_c, 1, 73, 127
1, 316587, Note_off_c, 1, 57, 0
1, 316589, Note_on_c, 1, 52, 127
1, 316653, Note_off_c, 1, 73, 0
1, 316725, Note_off_c, 1, 52, 0
1, 316728, Note_on_c, 1, 54, 127
1, 316728, Note_on_c, 1, 74, 127
1, 316864, Note_off_c, 1, 54, 0
1, 316866, Note_on_c, 1, 69, 127
1, 316866, Note_on_c, 1, 50, 127
1, 317001, Note_off_c, 1, 74, 0
1, 317002, Note_off_c, 1, 69, 0
1, 317002, Note_off_c, 1, 50, 0
1, 317004, Note_on_c, 1, 66, 127
1, 317004, Note_on_c, 1, 54, 127
1, 317140, Note_off_c, 1, 66, 0
1, 317140, Note_off_c, 1, 54, 0
1, 317143, Note_on_c, 1, 62, 127
1, 317143, Note_on_c, 1, 57, 127
1, 317279, Note_off_c, 1, 62, 0
1, 317279, Note_off_c, 1, 57, 0
1, 317281, Note_on_c, 1, 69, 127
1, 317281, Note_on_c, 1, 62, 127
1, 317417, Note_off_c, 1, 69, 0
1, 317417, Note_off_c, 1, 62, 0
1, 317419, Note_on_c, 1, 66, 127
1, 317419, Note_on_c, 1, 57, 127
1, 317555, Note_off_c, 1, 66, 0
1, 317555, Note_off_c, 1, 57, 0
1, 317558, Note_on_c, 1, 71, 127
1, 317558, Note_on_c, 1, 55, 127
1, 317694, Note_off_c, 1, 71, 0
1, 317694, Note_off_c, 1, 55, 0
1, 317696, Note_on_c, 1, 67, 127
1, 317696, Note_on_c, 1, 50, 127
1, 317832, Note_off_c, 1, 67, 0
1, 317832, Note_off_c, 1, 50, 0
1, 317834, Note_on_c, 1, 74, 127
1, 317834, Note_on_c, 1, 55, 127
1, 317970, Note_off_c, 1, 74, 0
1, 317970, Note_off_c, 1, 55, 0
1, 317973, Note_on_c, 1, 71, 127
1, 317973, Note_on_c, 1, 59, 127
1, 318109, Note_off_c, 1, 71, 0
1, 318109, Note_off_c, 1, 59, 0
1, 318111, Note_on_c, 1, 79, 127
1, 318111, Note_on_c, 1, 62, 127
1, 318247, Note_off_c, 1, 79, 0
1, 318247, Note_off_c, 1, 62, 0
1, 318249, Note_on_c, 1, 74, 127
1, 318249, Note_on_c, 1, 59, 127
1, 318385, Note_off_c, 1, 74, 0
1, 318385, Note_off_c, 1, 59, 0
1, 318388, Note_on_c, 1, 56, 127
1, 318388, Note_on_c, 1, 76, 127
1, 318524, Note_off_c, 1, 56, 0
1, 318526, Note_on_c, 1, 71, 127
1, 318526, Note_on_c, 1, 52, 127
1, 318661, Note_off_c, 1, 76, 0
1, 318662, Note_off_c, 1, 71, 0
1, 318662, Note_off_c, 1, 52, 0
1, 318664, Note_on_c, 1, 68, 127
1, 318664, Note_on_c, 1, 56, 127
1, 318800, Note_off_c, 1, 68, 0
1, 318800, Note_off_c, 1, 56, 0
1, 318803, Note_on_c, 1, 64, 127
1, 318803, Note_on_c, 1, 59, 127
1, 318939, Note_off_c, 1, 64, 0
1, 318939, Note_off_c, 1, 59, 0
1, 318941, Note_on_c, 1, 71, 127
1, 318941, Note_on_c, 1, 64, 127
1, 319077, Note_off_c, 1, 71, 0
1, 319077, Note_off_c, 1, 64, 0
1, 319079, Note_on_c, 1, 68, 127
1, 319079, Note_on_c, 1, 59, 127
1, 319215, Note_off_c, 1, 68, 0
1, 319215, Note_off_c, 1, 59, 0
1, 319218, Note_on_c, 1, 73, 127
1, 319218, Note_on_c, 1, 57, 127
1, 319354, Note_off_c, 1, 73, 0
1, 319354, Note_off_c, 1, 57, 0
1, 319356, Note_on_c, 1, 69, 127
1, 319356, Note_on_c, 1, 52, 127
1, 319492, Note_off_c, 1, 69, 0
1, 319492, Note_off_c, 1, 52, 0
1, 319494, Note_on_c, 1, 76, 127
1, 319494, Note_on_c, 1, 57, 127
1, 319630, Note_off_c, 1, 76, 0
1, 319630, Note_off_c, 1, 57, 0
1, 319633, Note_on_c, 1, 73, 127
1, 319633, Note_on_c, 1, 61, 127
1, 319769, Note_off_c, 1, 73, 0
1, 319769, Note_off_c, 1, 61, 0
1, 319771, Note_on_c, 1, 81, 127
1, 319771, Note_on_c, 1, 64, 127
1, 319907, Note_off_c, 1, 81, 0
1, 319907, Note_off_c, 1, 64, 0
1, 319909, Note_on_c, 1, 76, 127
1, 319909, Note_on_c, 1, 61, 127
1, 320045, Note_off_c, 1, 76, 0
1, 320045, Note_off_c, 1, 61, 0
1, 320047, Note_on_c, 1, 58, 127
1, 320047, Note_on_c, 1, 78, 127
1, 320183, Note_off_c, 1, 58, 0
1, 320186, Note_on_c, 1, 73, 127
1, 320186, Note_on_c, 1, 54, 127
1, 320320, Note_off_c, 1, 78, 0
1, 320322, Note_off_c, 1, 73, 0
1, 320322, Note_off_c, 1, 54, 0
1, 320324, Note_on_c, 1, 70, 127
1, 320324, Note_on_c, 1, 58, 127
1, 320460, Note_off_c, 1, 70, 0
1, 320460, Note_off_c, 1, 58, 0
1, 320462, Note_on_c, 1, 66, 127
1, 320462, Note_on_c, 1, 61, 127
1, 320598, Note_off_c, 1, 66, 0
1, 320598, Note_off_c, 1, 61, 0
1, 320601, Note_on_c, 1, 73, 127
1, 320601, Note_on_c, 1, 66, 127
1, 320737, Note_off_c, 1, 73, 0
1, 320737, Note_off_c, 1, 66, 0
1, 320739, Note_on_c, 1, 70, 127
1, 320739, Note_on_c, 1, 61, 127
1, 320875, Note_off_c, 1, 70, 0
1, 320875, Note_off_c, 1, 61, 0
1, 320877, Note_on_c, 1, 74, 127
1, 320877, Note_on_c, 1, 59, 127
1, 321013, Note_off_c, 1, 74, 0
1, 321013, Note_off_c, 1, 59, 0
1, 321016, Note_on_c, 1, 71, 127
1, 321016, Note_on_c, 1, 62, 127
1, 321152, Note_off_c, 1, 71, 0
1, 321152, Note_off_c, 1, 62, 0
1, 321154, Note_on_c, 1, 78, 127
1, 321154, Note_on_c, 1, 61, 127
1, 321290, Note_off_c, 1, 78, 0
1, 321290, Note_off_c, 1, 61, 0
1, 321292, Note_on_c, 1, 74, 127
1, 321292, Note_on_c, 1, 59, 127
1, 321428, Note_off_c, 1, 74, 0
1, 321428, Note_off_c, 1, 59, 0
1, 321431, Note_on_c, 1, 83, 127
1, 321431, Note_on_c, 1, 57, 127
1, 321567, Note_off_c, 1, 83, 0
1, 321567, Note_off_c, 1, 57, 0
1, 321569, Note_on_c, 1, 75, 127
1, 321569, Note_on_c, 1, 55, 127
1, 321705, Note_off_c, 1, 75, 0
1, 321705, Note_off_c, 1, 55, 0
1, 321707, Note_on_c, 1, 81, 127
1, 321707, Note_on_c, 1, 60, 127
1, 321844, Note_on_c, 1, 76, 127
1, 321863, Note_off_c, 1, 81, 0
1, 321980, Note_off_c, 1, 60, 0
1, 321980, Note_off_c, 1, 76, 0
1, 321982, Note_on_c, 1, 79, 127
1, 321982, Note_on_c, 1, 59, 127
1, 322119, Note_on_c, 1, 76, 127
1, 322138, Note_off_c, 1, 79, 0
1, 322224, Note_off_c, 1, 59, 0
1, 322253, Note_off_c, 1, 76, 0
1, 322255, Note_on_c, 1, 78, 127
1, 322255, Note_on_c, 1, 57, 127
1, 322391, Note_off_c, 1, 78, 0
1, 322393, Note_on_c, 1, 76, 127
1, 322498, Note_off_c, 1, 57, 0
1, 322527, Note_off_c, 1, 76, 0
1, 322530, Note_on_c, 1, 83, 127
1, 322530, Note_on_c, 1, 55, 127
1, 322666, Note_on_c, 1, 76, 127
1, 322686, Note_off_c, 1, 83, 0
1, 322802, Note_off_c, 1, 76, 0
1, 322803, Note_off_c, 1, 55, 0
1, 322805, Note_on_c, 1, 81, 127
1, 322805, Note_on_c, 1, 54, 127
1, 322941, Note_on_c, 1, 76, 127
1, 322961, Note_off_c, 1, 81, 0
1, 323047, Note_off_c, 1, 54, 0
1, 323075, Note_off_c, 1, 76, 0
1, 323078, Note_on_c, 1, 79, 127
1, 323078, Note_on_c, 1, 52, 127
1, 323214, Note_off_c, 1, 79, 0
1, 323216, Note_on_c, 1, 76, 127
1, 323321, Note_off_c, 1, 52, 0
1, 323350, Note_off_c, 1, 76, 0
1, 323353, Note_on_c, 1, 57, 127
1, 323353, Note_on_c, 1, 84, 127
1, 323489, Note_on_c, 1, 64, 127
1, 323509, Note_off_c, 1, 57, 0
1, 323625, Note_off_c, 1, 64, 0
1, 323626, Note_off_c, 1, 84, 0
1, 323627, Note_on_c, 1, 55, 127
1, 323627, Note_on_c, 1, 83, 127
1, 323764, Note_on_c, 1, 64, 127
1, 323783, Note_off_c, 1, 55, 0
1, 323827, Note_off_c, 1, 83, 0
1, 323900, Note_off_c, 1, 64, 0
1, 323902, Note_on_c, 1, 81, 127
1, 323902, Note_on_c, 1, 54, 127
1, 324038, Note_off_c, 1, 81, 0
1, 324038, Note_off_c, 1, 54, 0
1, 324041, Note_on_c, 1, 64, 127
1, 324177, Note_off_c, 1, 64, 0
1, 324179, Note_on_c, 1, 59, 127
1, 324179, Note_on_c, 1, 79, 127
1, 324315, Note_on_c, 1, 64, 127
1, 324335, Note_off_c, 1, 59, 0
1, 324451, Note_off_c, 1, 64, 0
1, 324452, Note_off_c, 1, 79, 0
1, 324454, Note_on_c, 1, 57, 127
1, 324454, Note_on_c, 1, 78, 127
1, 324590, Note_on_c, 1, 64, 127
1, 324610, Note_off_c, 1, 57, 0
1, 324654, Note_off_c, 1, 78, 0
1, 324726, Note_off_c, 1, 64, 0
1, 324729, Note_on_c, 1, 76, 127
1, 324729, Note_on_c, 1, 55, 127
1, 324865, Note_off_c, 1, 76, 0
1, 324865, Note_off_c, 1, 55, 0
1, 324867, Note_on_c, 1, 64, 127
1, 325003, Note_off_c, 1, 64, 0
1, 325005, Note_on_c, 1, 78, 127
1, 325005, Note_on_c, 1, 57, 127
1, 325141, Note_off_c, 1, 78, 0
1, 325141, Note_off_c, 1, 57, 0
1, 325143, Note_on_c, 1, 76, 127
1, 325143, Note_on_c, 1, 55, 127
1, 325279, Note_off_c, 1, 76, 0
1, 325279, Note_off_c, 1, 55, 0
1, 325282, Note_on_c, 1, 75, 127
1, 325282, Note_on_c, 1, 54, 127
1, 325418, Note_off_c, 1, 75, 0
1, 325418, Note_off_c, 1, 54, 0
1, 325420, Note_on_c, 1, 78, 127
1, 325420, Note_on_c, 1, 57, 127
1, 325556, Note_off_c, 1, 78, 0
1, 325556, Note_off_c, 1, 57, 0
1, 325558, Note_on_c, 1, 72, 127
1, 325558, Note_on_c, 1, 52, 127
1, 325694, Note_off_c, 1, 72, 0
1, 325694, Note_off_c, 1, 52, 0
1, 325697, Note_on_c, 1, 78, 127
1, 325697, Note_on_c, 1, 57, 127
1, 325833, Note_off_c, 1, 78, 0
1, 325833, Note_off_c, 1, 57, 0
1, 325835, Note_on_c, 1, 71, 127
1, 325835, Note_on_c, 1, 51, 127
1, 325971, Note_off_c, 1, 71, 0
1, 325971, Note_off_c, 1, 51, 0
1, 325973, Note_on_c, 1, 78, 127
1, 325973, Note_on_c, 1, 57, 127
1, 326109, Note_off_c, 1, 78, 0
1, 326109, Note_off_c, 1, 57, 0
1, 326112, Note_on_c, 1, 69, 127
1, 326112, Note_on_c, 1, 48, 127
1, 326248, Note_off_c, 1, 69, 0
1, 326248, Note_off_c, 1, 48, 0
1, 326250, Note_on_c, 1, 78, 127
1, 326250, Note_on_c, 1, 57, 127
1, 326386, Note_off_c, 1, 78, 0
1, 326386, Note_off_c, 1, 57, 0
1, 326388, Note_on_c, 1, 67, 127
1, 326388, Note_on_c, 1, 47, 127
1, 326524, Note_off_c, 1, 67, 0
1, 326524, Note_off_c, 1, 47, 0
1, 326527, Note_on_c, 1, 76, 127
1, 326527, Note_on_c, 1, 55, 127
1, 326663, Note_off_c, 1, 76, 0
1, 326663, Note_off_c, 1, 55, 0
1, 326665, Note_on_c, 1, 66, 127
1, 326665, Note_on_c, 1, 45, 127
1, 326801, Note_off_c, 1, 66, 0
1, 326801, Note_off_c, 1, 45, 0
1, 326803, Note_on_c, 1, 69, 127
1, 326803, Note_on_c, 1, 54, 127
1, 326939, Note_off_c, 1, 69, 0
1, 326939, Note_off_c, 1, 54, 0
1, 326942, Note_on_c, 1, 76, 127
1, 326942, Note_on_c, 1, 47, 127
1, 327078, Note_off_c, 1, 76, 0
1, 327078, Note_off_c, 1, 47, 0
1, 327080, Note_on_c, 1, 75, 127
1, 327080, Note_on_c, 1, 55, 127
1, 327216, Note_off_c, 1, 75, 0
1, 327216, Note_off_c, 1, 55, 0
1, 327218, Note_on_c, 1, 73, 127
1, 327218, Note_on_c, 1, 47, 127
1, 327354, Note_off_c, 1, 73, 0
1, 327354, Note_off_c, 1, 47, 0
1, 327357, Note_on_c, 1, 75, 127
1, 327357, Note_on_c, 1, 57, 127
1, 327493, Note_off_c, 1, 75, 0
1, 327493, Note_off_c, 1, 57, 0
1, 327495, Note_on_c, 1, 52, 127
1, 327495, Note_on_c, 1, 76, 127
1, 327631, Note_off_c, 1, 52, 0
1, 327633, Note_on_c, 1, 57, 127
1, 327769, Note_off_c, 1, 57, 0
1, 327772, Note_on_c, 1, 55, 127
1, 327897, Note_off_c, 1, 76, 0
1, 327906, Note_off_c, 1, 55, 0
1, 327908, Note_on_c, 1, 54, 127
1, 328044, Note_off_c, 1, 54, 0
1, 328046, Note_on_c, 1, 55, 127
1, 328046, Note_on_c, 1, 76, 127
1, 328182, Note_off_c, 1, 55, 0
1, 328185, Note_on_c, 1, 52, 127
1, 328248, Note_off_c, 1, 76, 0
1, 328321, Note_off_c, 1, 52, 0
1, 328323, Note_on_c, 1, 74, 127
1, 328323, Note_on_c, 1, 57, 127
1, 328459, Note_off_c, 1, 74, 0
1, 328461, Note_on_c, 1, 73, 127
1, 328597, Note_off_c, 1, 73, 0
1, 328600, Note_on_c, 1, 71, 127
1, 328600, Note_on_c, 1, 45, 127
1, 328639, Note_off_c, 1, 57, 0
1, 328736, Note_off_c, 1, 71, 0
1, 328738, Note_on_c, 1, 69, 127
1, 328843, Note_off_c, 1, 45, 0
1, 328872, Note_off_c, 1, 69, 0
1, 328874, Note_on_c, 1, 81, 127
1, 328874, Note_on_c, 1, 57, 127
1, 329010, Note_off_c, 1, 81, 0
1, 329013, Note_on_c, 1, 73, 127
1, 329117, Note_off_c, 1, 57, 0
1, 329147, Note_off_c, 1, 73, 0
1, 329149, Note_on_c, 1, 74, 127
1, 329149, Note_on_c, 1, 55, 127
1, 329285, Note_off_c, 1, 74, 0
1, 329285, Note_off_c, 1, 55, 0
1, 329288, Note_on_c, 1, 76, 127
1, 329288, Note_on_c, 1, 54, 127
1, 329424, Note_off_c, 1, 76, 0
1, 329424, Note_off_c, 1, 54, 0
1, 329426, Note_on_c, 1, 52, 127
1, 329426, Note_on_c, 1, 78, 127
1, 329562, Note_off_c, 1, 52, 0
1, 329564, Note_on_c, 1, 50, 127
1, 329700, Note_off_c, 1, 50, 0
1, 329703, Note_on_c, 1, 62, 127
1, 329839, Note_off_c, 1, 62, 0
1, 329841, Note_on_c, 1, 54, 127
1, 329972, Note_off_c, 1, 78, 0
1, 329975, Note_off_c, 1, 54, 0
1, 329977, Note_on_c, 1, 55, 127
1, 330113, Note_off_c, 1, 55, 0
1, 330116, Note_on_c, 1, 74, 127
1, 330116, Note_on_c, 1, 57, 127
1, 330252, Note_off_c, 1, 74, 0
1, 330252, Note_off_c, 1, 57, 0
1, 330254, Note_on_c, 1, 73, 127
1, 330254, Note_on_c, 1, 59, 127
1, 330390, Note_off_c, 1, 73, 0
1, 330392, Note_on_c, 1, 71, 127
1, 330528, Note_off_c, 1, 71, 0
1, 330531, Note_on_c, 1, 79, 127
1, 330667, Note_off_c, 1, 79, 0
1, 330887, Note_off_c, 1, 59, 0
1, 330946, Note_on_c, 1, 74, 127
1, 330946, Note_on_c, 1, 55, 127
1, 331082, Note_off_c, 1, 74, 0
1, 331082, Note_off_c, 1, 55, 0
1, 331084, Note_on_c, 1, 54, 127
1, 331084, Note_on_c, 1, 76, 127
1, 331220, Note_off_c, 1, 54, 0
1, 331222, Note_on_c, 1, 52, 127
1, 331358, Note_off_c, 1, 52, 0
1, 331361, Note_on_c, 1, 61, 127
1, 331497, Note_off_c, 1, 61, 0
1, 331660, Note_off_c, 1, 76, 0
1, 331776, Note_on_c, 1, 73, 127
1, 331776, Note_on_c, 1, 55, 127
1, 331912, Note_off_c, 1, 73, 0
1, 331912, Note_off_c, 1, 55, 0
1, 331914, Note_on_c, 1, 71, 127
1, 331914, Note_on_c, 1, 54, 127
1, 332050, Note_off_c, 1, 71, 0
1, 332050, Note_off_c, 1, 54, 0
1, 332052, Note_on_c, 1, 70, 127
1, 332052, Note_on_c, 1, 52, 127
1, 332188, Note_off_c, 1, 70, 0
1, 332188, Note_off_c, 1, 52, 0
1, 332191, Note_on_c, 1, 78, 127
1, 332191, Note_on_c, 1, 50, 127
1, 332327, Note_off_c, 1, 78, 0
1, 332327, Note_off_c, 1, 50, 0
1, 332329, Note_on_c, 1, 70, 127
1, 332329, Note_on_c, 1, 49, 127
1, 332465, Note_off_c, 1, 70, 0
1, 332465, Note_off_c, 1, 49, 0
1, 332467, Note_on_c, 1, 71, 127
1, 332467, Note_on_c, 1, 50, 127
1, 332603, Note_off_c, 1, 71, 0
1, 332603, Note_off_c, 1, 50, 0
1, 332605, Note_on_c, 1, 73, 127
1, 332605, Note_on_c, 1, 52, 127
1, 332741, Note_off_c, 1, 73, 0
1, 332741, Note_off_c, 1, 52, 0
1, 332744, Note_on_c, 1, 50, 127
1, 332744, Note_on_c, 1, 74, 127
1, 332880, Note_off_c, 1, 50, 0
1, 332882, Note_on_c, 1, 49, 127
1, 333018, Note_off_c, 1, 49, 0
1, 333020, Note_on_c, 1, 47, 127
1, 333156, Note_off_c, 1, 47, 0
1, 333159, Note_on_c, 1, 45, 127
1, 333295, Note_off_c, 1, 45, 0
1, 333297, Note_on_c, 1, 43, 127
1, 333348, Note_off_c, 1, 74, 0
1, 333434, Note_on_c, 1, 67, 127
1, 333570, Note_off_c, 1, 43, 0
1, 333570, Note_off_c, 1, 67, 0
1, 333572, Note_on_c, 1, 66, 127
1, 333572, Note_on_c, 1, 47, 127
1, 333708, Note_off_c, 1, 66, 0
1, 333710, Note_on_c, 1, 64, 127
1, 333815, Note_off_c, 1, 47, 0
1, 333844, Note_off_c, 1, 64, 0
1, 333847, Note_on_c, 1, 74, 127
1, 333847, Note_on_c, 1, 52, 127
1, 333983, Note_off_c, 1, 74, 0
1, 333985, Note_on_c, 1, 73, 127
1, 334090, Note_off_c, 1, 52, 0
1, 334119, Note_off_c, 1, 73, 0
1, 334122, Note_on_c, 1, 71, 127
1, 334122, Note_on_c, 1, 42, 127
1, 334258, Note_off_c, 1, 71, 0
1, 334258, Note_off_c, 1, 42, 0
1, 334260, Note_on_c, 1, 70, 127
1, 334260, Note_on_c, 1, 54, 127
1, 334396, Note_off_c, 1, 70, 0
1, 334396, Note_off_c, 1, 54, 0
1, 334398, Note_on_c, 1, 68, 127
1, 334398, Note_on_c, 1, 52, 127
1, 334534, Note_off_c, 1, 68, 0
1, 334534, Note_off_c, 1, 52, 0
1, 334537, Note_on_c, 1, 66, 127
1, 334537, Note_on_c, 1, 50, 127
1, 334673, Note_off_c, 1, 66, 0
1, 334673, Note_off_c, 1, 50, 0
1, 334675, Note_on_c, 1, 49, 127
1, 334675, Note_on_c, 1, 68, 127
1, 334813, Note_off_c, 1, 49, 0
1, 334813, Note_off_c, 1, 68, 0
1, 334815, Note_on_c, 1, 47, 127
1, 334815, Note_on_c, 1, 70, 127
1, 334953, Note_off_c, 1, 47, 0
1, 334953, Note_off_c, 1, 70, 0
1, 334957, Note_on_c, 1, 71, 127
1, 334957, Note_on_c, 1, 55, 127
1, 335095, Note_off_c, 1, 71, 0
1, 335099, Note_on_c, 1, 76, 127
1, 335237, Note_off_c, 1, 55, 0
1, 335237, Note_off_c, 1, 76, 0
1, 335241, Note_on_c, 1, 71, 127
1, 335241, Note_on_c, 1, 54, 127
1, 335379, Note_off_c, 1, 71, 0
1, 335383, Note_on_c, 1, 74, 127
1, 335492, Note_off_c, 1, 54, 0
1, 335521, Note_off_c, 1, 74, 0
1, 335525, Note_on_c, 1, 71, 127
1, 335525, Note_on_c, 1, 52, 127
1, 335663, Note_off_c, 1, 71, 0
1, 335667, Note_on_c, 1, 73, 127
1, 335776, Note_off_c, 1, 52, 0
1, 335805, Note_off_c, 1, 73, 0
1, 335809, Note_on_c, 1, 71, 127
1, 335809, Note_on_c, 1, 50, 127
1, 335947, Note_off_c, 1, 71, 0
1, 335949, Note_on_c, 1, 78, 127
1, 336087, Note_off_c, 1, 78, 0
1, 336089, Note_off_c, 1, 50, 0
1, 336091, Note_on_c, 1, 71, 127
1, 336091, Note_on_c, 1, 49, 127
1, 336229, Note_off_c, 1, 71, 0
1, 336233, Note_on_c, 1, 76, 127
1, 336342, Note_off_c, 1, 49, 0
1, 336371, Note_off_c, 1, 76, 0
1, 336375, Note_on_c, 1, 71, 127
1, 336375, Note_on_c, 1, 47, 127
1, 336516, Note_off_c, 1, 71, 0
1, 336520, Note_on_c, 1, 74, 127
1, 336633, Note_off_c, 1, 47, 0
1, 336661, Note_off_c, 1, 74, 0
1, 336666, Note_on_c, 1, 52, 127
1, 336666, Note_on_c, 1, 79, 127
1, 336807, Note_off_c, 1, 52, 0
1, 336812, Note_on_c, 1, 59, 127
1, 336953, Note_off_c, 1, 79, 0
1, 336953, Note_off_c, 1, 59, 0
1, 336957, Note_on_c, 1, 50, 127
1, 336957, Note_on_c, 1, 78, 127
1, 337098, Note_off_c, 1, 50, 0
1, 337103, Note_on_c, 1, 59, 127
1, 337168, Note_off_c, 1, 78, 0
1, 337244, Note_off_c, 1, 59, 0
1, 337248, Note_on_c, 1, 49, 127
1, 337248, Note_on_c, 1, 76, 127
1, 337389, Note_off_c, 1, 49, 0
1, 337394, Note_on_c, 1, 59, 127
1, 337459, Note_off_c, 1, 76, 0
1, 337535, Note_off_c, 1, 59, 0
1, 337540, Note_on_c, 1, 54, 127
1, 337540, Note_on_c, 1, 74, 127
1, 337681, Note_off_c, 1, 54, 0
1, 337685, Note_on_c, 1, 59, 127
1, 337826, Note_off_c, 1, 59, 0
1, 337829, Note_off_c, 1, 74, 0
1, 337833, Note_on_c, 1, 52, 127
1, 337833, Note_on_c, 1, 73, 127
1, 337974, Note_off_c, 1, 52, 0
1, 337978, Note_on_c, 1, 59, 127
1, 338044, Note_off_c, 1, 73, 0
1, 338119, Note_off_c, 1, 59, 0
1, 338124, Note_on_c, 1, 50, 127
1, 338124, Note_on_c, 1, 71, 127
1, 338273, Note_off_c, 1, 50, 0
1, 338277, Note_on_c, 1, 59, 127
1, 338347, Note_off_c, 1, 71, 0
1, 338424, Note_off_c, 1, 59, 0
1, 338429, Note_on_c, 1, 76, 127
1, 338429, Note_on_c, 1, 61, 127
1, 338578, Note_off_c, 1, 76, 0
1, 338578, Note_off_c, 1, 61, 0
1, 338584, Note_on_c, 1, 74, 127
1, 338584, Note_on_c, 1, 59, 127
1, 338733, Note_off_c, 1, 74, 0
1, 338733, Note_off_c, 1, 59, 0
1, 338739, Note_on_c, 1, 73, 127
1, 338739, Note_on_c, 1, 58, 127
1, 338894, Note_on_c, 1, 76, 127
1, 338894, Note_on_c, 1, 61, 127
1, 338913, Note_off_c, 1, 73, 0
1, 338913, Note_off_c, 1, 58, 0
1, 339043, Note_off_c, 1, 76, 0
1, 339043, Note_off_c, 1, 61, 0
1, 339048, Note_on_c, 1, 71, 127
1, 339048, Note_on_c, 1, 55, 127
1, 339197, Note_off_c, 1, 71, 0
1, 339197, Note_off_c, 1, 55, 0
1, 339205, Note_on_c, 1, 76, 127
1, 339205, Note_on_c, 1, 61, 127
1, 339354, Note_off_c, 1, 76, 0
1, 339354, Note_off_c, 1, 61, 0
1, 339360, Note_on_c, 1, 70, 127
1, 339360, Note_on_c, 1, 54, 127
1, 339514, Note_on_c, 1, 76, 127
1, 339514, Note_on_c, 1, 61, 127
1, 339534, Note_off_c, 1, 70, 0
1, 339534, Note_off_c, 1, 54, 0
1, 339663, Note_off_c, 1, 76, 0
1, 339663, Note_off_c, 1, 61, 0
1, 339669, Note_on_c, 1, 67, 127
1, 339669, Note_on_c, 1, 52, 127
1, 339824, Note_on_c, 1, 76, 127
1, 339824, Note_on_c, 1, 61, 127
1, 339843, Note_off_c, 1, 67, 0
1, 339843, Note_off_c, 1, 52, 0
1, 339973, Note_off_c, 1, 76, 0
1, 339973, Note_off_c, 1, 61, 0
1, 339978, Note_on_c, 1, 50, 127
1, 339978, Note_on_c, 1, 66, 127
1, 340130, Note_off_c, 1, 50, 0
1, 340130, Note_off_c, 1, 66, 0
1, 340137, Note_on_c, 1, 59, 127
1, 340137, Note_on_c, 1, 74, 127
1, 340289, Note_off_c, 1, 59, 0
1, 340289, Note_off_c, 1, 74, 0
1, 340295, Note_on_c, 1, 55, 127
1, 340295, Note_on_c, 1, 64, 127
1, 340447, Note_off_c, 1, 55, 0
1, 340453, Note_on_c, 1, 52, 127
1, 340453, Note_on_c, 1, 73, 127
1, 340473, Note_off_c, 1, 64, 0
1, 340605, Note_off_c, 1, 52, 0
1, 340605, Note_off_c, 1, 73, 0
1, 340612, Note_on_c, 1, 66, 127
1, 340612, Note_on_c, 1, 54, 127
1, 340841, Note_off_c, 1, 66, 0
1, 340890, Note_off_c, 1, 54, 0
1, 340932, Note_on_c, 1, 42, 127
1, 340932, Note_on_c, 1, 70, 127
1, 341217, Note_off_c, 1, 42, 0
1, 341217, Note_off_c, 1, 70, 0
1, 341305, Note_on_c, 1, 47, 127
1, 341305, Note_on_c, 1, 71, 127
1, 344256, Note_off_c, 1, 47, 0
1, 344256, Note_off_c, 1, 71, 0
1, 344256, End_track
0, 0, End_of_file