0, 0, Header, 1, 1, 480
1, 0, Start_track
1, 0, Title_t, "Test"
1, 0, Tempo, 500000
1, 0, Instrument_name_t, "Church Organ"
1, 67, Note_on_c, 1, 67, 127
1, 243, Note_off_c, 1, 67, 0
1, 278, Note_on_c, 1, 67, 127
1, 278, Note_on_c, 1, 63, 127
1, 278, Note_on_c, 1, 60, 127
1, 487, Note_off_c, 1, 67, 0
1, 489, Note_on_c, 1, 69, 127
1, 592, Note_off_c, 1, 69, 0
1, 595, Note_on_c, 1, 71, 127
1, 696, Note_off_c, 1, 63, 0
1, 698, Note_off_c, 1, 60, 0
1, 698, Note_off_c, 1, 71, 0
1, 700, Note_on_c, 1, 72, 127
1, 700, Note_on_c, 1, 48, 127
1, 909, Note_off_c, 1, 72, 0
1, 912, Note_on_c, 1, 74, 127
1, 1118, Note_off_c, 1, 48, 0
1, 1121, Note_off_c, 1, 74, 0
1, 1123, Note_on_c, 1, 75, 127
1, 1334, Note_on_c, 1, 67, 127
1, 1543, Note_off_c, 1, 75, 0
1, 1545, Note_on_c, 1, 74, 127
1, 1545, Note_on_c, 1, 55, 127
1, 1545, Note_on_c, 1, 59, 127
1, 1754, Note_off_c, 1, 67, 0
1, 1756, Note_on_c, 1, 65, 127
1, 1861, Note_off_c, 1, 74, 0
1, 1965, Note_off_c, 1, 55, 0
1, 1965, Note_off_c, 1, 59, 0
1, 1965, Note_off_c, 1, 65, 0
1, 1968, Note_on_c, 1, 65, 127
1, 1968, Note_on_c, 1, 60, 127
1, 1968, Note_on_c, 1, 56, 127
1, 2071, Note_off_c, 1, 65, 0
1, 2073, Note_on_c, 1, 63, 127
1, 2176, Note_off_c, 1, 63, 0
1, 2179, Note_on_c, 1, 62, 127
1, 2388, Note_off_c, 1, 60, 0
1, 2388, Note_off_c, 1, 56, 0
1, 2388, Note_off_c, 1, 62, 0
1, 2390, Note_on_c, 1, 44, 127
1, 2390, Note_on_c, 1, 63, 127
1, 2601, Note_on_c, 1, 67, 127
1, 2808, Note_off_c, 1, 44, 0
1, 2810, Note_off_c, 1, 67, 0
1, 2812, Note_on_c, 1, 72, 127
1, 2918, Note_off_c, 1, 63, 0
1, 3024, Note_on_c, 1, 65, 127
1, 3233, Note_off_c, 1, 65, 0
1, 3235, Note_on_c, 1, 51, 127
1, 3235, Note_on_c, 1, 60, 127
1, 3443, Note_off_c, 1, 72, 0
1, 3655, Note_off_c, 1, 51, 0
1, 3657, Note_on_c, 1, 68, 127
1, 3657, Note_on_c, 1, 53, 127
1, 3868, Note_on_c, 1, 74, 127
1, 3971, Note_off_c, 1, 74, 0
1, 3974, Note_on_c, 1, 75, 127
1, 4075, Note_off_c, 1, 68, 0
1, 4077, Note_off_c, 1, 53, 0
1, 4077, Note_off_c, 1, 75, 0
1, 4080, Note_on_c, 1, 77, 127
1, 4080, Note_on_c, 1, 50, 127
1, 4289, Note_off_c, 1, 77, 0
1, 4291, Note_on_c, 1, 79, 127
1, 4500, Note_off_c, 1, 50, 0
1, 4500, Note_off_c, 1, 79, 0
1, 4502, Note_on_c, 1, 80, 127
1, 4502, Note_on_c, 1, 55, 127
1, 4711, Note_off_c, 1, 80, 0
1, 4922, Note_off_c, 1, 60, 0
1, 4924, Note_on_c, 1, 59, 127
1, 5338, Note_off_c, 1, 55, 0
1, 5344, Note_off_c, 1, 59, 0
1, 5347, Note_on_c, 1, 74, 127
1, 5347, Note_on_c, 1, 60, 127
1, 5556, Note_off_c, 1, 74, 0
1, 5558, Note_on_c, 1, 75, 127
1, 5661, Note_off_c, 1, 75, 0
1, 5664, Note_on_c, 1, 77, 127
1, 5767, Note_off_c, 1, 77, 0
1, 5769, Note_on_c, 1, 48, 127
1, 5980, Note_on_c, 1, 72, 127
1, 6139, Note_off_c, 1, 60, 0
1, 6156, Note_off_c, 1, 72, 0
1, 6165, Note_off_c, 1, 48, 0
1, 6192, Note_on_c, 1, 60, 127
1, 6192, Note_on_c, 1, 79, 127
1, 6403, Note_on_c, 1, 75, 127
1, 6612, Note_off_c, 1, 60, 0
1, 6612, Note_off_c, 1, 79, 0
1, 6614, Note_on_c, 1, 58, 127
1, 6823, Note_off_c, 1, 75, 0
1, 6825, Note_on_c, 1, 74, 127
1, 7034, Note_off_c, 1, 58, 0
1, 7034, Note_off_c, 1, 74, 0
1, 7036, Note_on_c, 1, 56, 127
1, 7036, Note_on_c, 1, 72, 127
1, 7248, Note_on_c, 1, 80, 127
1, 7351, Note_off_c, 1, 80, 0
1, 7353, Note_on_c, 1, 82, 127
1, 7456, Note_off_c, 1, 56, 0
1, 7456, Note_off_c, 1, 82, 0
1, 7459, Note_on_c, 1, 84, 127
1, 7459, Note_on_c, 1, 55, 127
1, 7668, Note_off_c, 1, 84, 0
1, 7879, Note_off_c, 1, 55, 0
1, 7881, Note_on_c, 1, 77, 127
1, 8089, Note_off_c, 1, 72, 0
1, 8301, Note_off_c, 1, 77, 0
1, 8304, Note_on_c, 1, 53, 127
1, 8724, Note_off_c, 1, 53, 0
1, 8726, Note_on_c, 1, 72, 127
1, 8726, Note_on_c, 1, 58, 127
1, 8935, Note_off_c, 1, 72, 0
1, 8937, Note_on_c, 1, 74, 127
1, 9040, Note_off_c, 1, 74, 0
1, 9043, Note_on_c, 1, 75, 127
1, 9146, Note_off_c, 1, 58, 0
1, 9146, Note_off_c, 1, 75, 0
1, 9148, Note_on_c, 1, 74, 127
1, 9148, Note_on_c, 1, 46, 127
1, 9251, Note_off_c, 1, 74, 0
1, 9254, Note_on_c, 1, 72, 127
1, 9357, Note_off_c, 1, 72, 0
1, 9360, Note_on_c, 1, 70, 127
1, 9536, Note_off_c, 1, 70, 0
1, 9544, Note_off_c, 1, 46, 0
1, 9571, Note_on_c, 1, 58, 127
1, 9571, Note_on_c, 1, 77, 127
1, 9782, Note_on_c, 1, 74, 127
1, 9991, Note_off_c, 1, 58, 0
1, 9991, Note_off_c, 1, 77, 0
1, 9993, Note_on_c, 1, 56, 127
1, 10202, Note_off_c, 1, 74, 0
1, 10204, Note_on_c, 1, 72, 127
1, 10413, Note_off_c, 1, 56, 0
1, 10413, Note_off_c, 1, 72, 0
1, 10416, Note_on_c, 1, 55, 127
1, 10416, Note_on_c, 1, 70, 127
1, 10627, Note_on_c, 1, 79, 127
1, 10730, Note_off_c, 1, 79, 0
1, 10732, Note_on_c, 1, 80, 127
1, 10835, Note_off_c, 1, 80, 0
1, 10836, Note_off_c, 1, 55, 0
1, 10838, Note_on_c, 1, 82, 127
1, 10838, Note_on_c, 1, 53, 127
1, 11047, Note_off_c, 1, 82, 0
1, 11258, Note_off_c, 1, 53, 0
1, 11260, Note_on_c, 1, 75, 127
1, 11469, Note_off_c, 1, 70, 0
1, 11680, Note_off_c, 1, 75, 0
1, 11683, Note_on_c, 1, 51, 127
1, 12103, Note_off_c, 1, 51, 0
1, 12105, Note_on_c, 1, 70, 127
1, 12105, Note_on_c, 1, 56, 127
1, 12314, Note_off_c, 1, 70, 0
1, 12316, Note_on_c, 1, 72, 127
1, 12419, Note_off_c, 1, 72, 0
1, 12422, Note_on_c, 1, 73, 127
1, 12525, Note_off_c, 1, 56, 0
1, 12525, Note_off_c, 1, 73, 0
1, 12528, Note_on_c, 1, 72, 127
1, 12528, Note_on_c, 1, 44, 127
1, 12631, Note_off_c, 1, 72, 0
1, 12633, Note_on_c, 1, 70, 127
1, 12736, Note_off_c, 1, 70, 0
1, 12739, Note_on_c, 1, 68, 127
1, 12924, Note_off_c, 1, 44, 0
1, 12926, Note_off_c, 1, 68, 0
1, 12950, Note_on_c, 1, 56, 127
1, 12950, Note_on_c, 1, 75, 127
1, 13161, Note_on_c, 1, 72, 127
1, 13370, Note_off_c, 1, 56, 0
1, 13370, Note_off_c, 1, 75, 0
1, 13372, Note_on_c, 1, 55, 127
1, 13581, Note_off_c, 1, 72, 0
1, 13584, Note_on_c, 1, 70, 127
1, 13792, Note_off_c, 1, 55, 0
1, 13793, Note_off_c, 1, 70, 0
1, 13795, Note_on_c, 1, 53, 127
1, 13795, Note_on_c, 1, 68, 127
1, 14006, Note_on_c, 1, 77, 127
1, 14109, Note_off_c, 1, 77, 0
1, 14112, Note_on_c, 1, 79, 127
1, 14215, Note_off_c, 1, 53, 0
1, 14215, Note_off_c, 1, 79, 0
1, 14217, Note_on_c, 1, 41, 127
1, 14217, Note_on_c, 1, 80, 127
1, 14426, Note_off_c, 1, 68, 0
1, 14624, Note_off_c, 1, 41, 0
1, 14637, Note_off_c, 1, 80, 0
1, 14851, Note_on_c, 1, 74, 127
1, 15062, Note_on_c, 1, 51, 127
1, 15271, Note_off_c, 1, 74, 0
1, 15482, Note_off_c, 1, 51, 0
1, 15484, Note_on_c, 1, 50, 127
1, 15904, Note_off_c, 1, 50, 0
1, 15907, Note_on_c, 1, 38, 127
1, 16314, Note_off_c, 1, 38, 0
1, 16752, Note_on_c, 1, 46, 127
1, 17172, Note_off_c, 1, 46, 0
1, 17596, Note_on_c, 1, 43, 127
1, 18016, Note_off_c, 1, 43, 0
1, 18019, Note_on_c, 1, 44, 127
1, 18019, Note_on_c, 1, 77, 127
1, 18230, Note_on_c, 1, 72, 127
1, 18439, Note_off_c, 1, 44, 0
1, 18441, Note_on_c, 1, 74, 127
1, 18441, Note_on_c, 1, 46, 127
1, 18547, Note_off_c, 1, 77, 0
1, 18650, Note_off_c, 1, 72, 0
1, 18652, Note_on_c, 1, 68, 127
1, 18749, Note_off_c, 1, 74, 0
1, 18861, Note_off_c, 1, 46, 0
1, 18861, Note_off_c, 1, 68, 0
1, 18864, Note_on_c, 1, 51, 127
1, 18864, Note_on_c, 1, 67, 127
1, 19075, Note_on_c, 1, 75, 127
1, 19178, Note_off_c, 1, 75, 0
1, 19180, Note_on_c, 1, 77, 127
1, 19283, Note_off_c, 1, 77, 0
1, 19284, Note_off_c, 1, 51, 0
1, 19286, Note_on_c, 1, 79, 127
1, 19286, Note_on_c, 1, 39, 127
1, 19495, Note_off_c, 1, 79, 0
1, 19497, Note_on_c, 1, 74, 127
1, 19700, Note_off_c, 1, 67, 0
1, 19704, Note_off_c, 1, 39, 0
1, 19706, Note_off_c, 1, 74, 0
1, 19708, Note_on_c, 1, 75, 127
1, 19920, Note_on_c, 1, 71, 127
1, 20118, Note_off_c, 1, 71, 0
1, 20128, Note_off_c, 1, 75, 0
1, 20131, Note_on_c, 1, 51, 127
1, 20131, Note_on_c, 1, 72, 127
1, 20342, Note_on_c, 1, 67, 127
1, 20551, Note_off_c, 1, 51, 0
1, 20551, Note_off_c, 1, 67, 0
1, 20553, Note_on_c, 1, 66, 127
1, 20553, Note_on_c, 1, 50, 127
1, 20703, Note_off_c, 1, 72, 0
1, 20764, Note_on_c, 1, 78, 127
1, 20867, Note_off_c, 1, 78, 0
1, 20870, Note_on_c, 1, 79, 127
1, 20971, Note_off_c, 1, 66, 0
1, 20973, Note_off_c, 1, 50, 0
1, 20973, Note_off_c, 1, 79, 0
1, 20976, Note_on_c, 1, 81, 127
1, 20976, Note_on_c, 1, 38, 127
1, 21185, Note_off_c, 1, 81, 0
1, 21187, Note_on_c, 1, 74, 127
1, 21394, Note_off_c, 1, 38, 0
1, 21396, Note_off_c, 1, 74, 0
1, 21398, Note_on_c, 1, 75, 127
1, 21609, Note_on_c, 1, 72, 127
1, 21807, Note_off_c, 1, 72, 0
1, 21818, Note_off_c, 1, 75, 0
1, 21820, Note_on_c, 1, 74, 127
1, 21820, Note_on_c, 1, 54, 127
1, 22032, Note_on_c, 1, 69, 127
1, 22216, Note_off_c, 1, 74, 0
1, 22240, Note_off_c, 1, 54, 0
1, 22243, Note_on_c, 1, 55, 127
1, 22243, Note_on_c, 1, 70, 127
1, 22452, Note_off_c, 1, 69, 0
1, 22454, Note_on_c, 1, 67, 127
1, 22557, Note_off_c, 1, 67, 0
1, 22560, Note_on_c, 1, 66, 127
1, 22663, Note_off_c, 1, 55, 0
1, 22663, Note_off_c, 1, 66, 0
1, 22665, Note_on_c, 1, 48, 127
1, 22874, Note_off_c, 1, 70, 0
1, 22876, Note_on_c, 1, 75, 127
1, 23085, Note_off_c, 1, 48, 0
1, 23085, Note_off_c, 1, 75, 0
1, 23088, Note_on_c, 1, 50, 127
1, 23299, Note_on_c, 1, 72, 127
1, 23402, Note_off_c, 1, 72, 0
1, 23404, Note_on_c, 1, 71, 127
1, 23507, Note_off_c, 1, 71, 0
1, 23508, Note_off_c, 1, 50, 0
1, 23510, Note_on_c, 1, 38, 127
1, 23930, Note_off_c, 1, 38, 0
1, 23932, Note_on_c, 1, 43, 127
1, 24566, Note_on_c, 1, 65, 127
1, 24775, Note_off_c, 1, 65, 0
1, 24777, Note_on_c, 1, 63, 127
1, 25830, Note_off_c, 1, 63, 0
1, 25833, Note_on_c, 1, 62, 127
1, 25936, Note_off_c, 1, 62, 0
1, 25939, Note_on_c, 1, 60, 127
1, 26042, Note_off_c, 1, 60, 0
1, 26044, Note_on_c, 1, 59, 127
1, 26147, Note_off_c, 1, 59, 0
1, 26464, Note_off_c, 1, 43, 0
1, 27312, Note_on_c, 1, 74, 127
1, 27312, Note_on_c, 1, 59, 127
1, 27312, Note_on_c, 1, 55, 127
1, 27521, Note_off_c, 1, 74, 0
1, 27523, Note_on_c, 1, 71, 127
1, 27626, Note_off_c, 1, 71, 0
1, 27628, Note_on_c, 1, 72, 127
1, 27731, Note_off_c, 1, 72, 0
1, 27732, Note_off_c, 1, 59, 0
1, 27732, Note_off_c, 1, 55, 0
1, 27734, Note_on_c, 1, 74, 127
1, 27734, Note_on_c, 1, 43, 127
1, 27943, Note_off_c, 1, 74, 0
1, 27945, Note_on_c, 1, 71, 127
1, 28143, Note_off_c, 1, 71, 0
1, 28152, Note_off_c, 1, 43, 0
1, 28156, Note_on_c, 1, 67, 127
1, 28368, Note_on_c, 1, 71, 127
1, 28576, Note_off_c, 1, 67, 0
1, 28579, Note_on_c, 1, 55, 127
1, 28579, Note_on_c, 1, 62, 127
1, 28579, Note_on_c, 1, 65, 127
1, 28788, Note_off_c, 1, 71, 0
1, 28999, Note_off_c, 1, 55, 0
1, 28999, Note_off_c, 1, 62, 0
1, 28999, Note_off_c, 1, 65, 0
1, 29001, Note_on_c, 1, 60, 127
1, 29001, Note_on_c, 1, 63, 127
1, 29212, Note_on_c, 1, 72, 127
1, 29315, Note_off_c, 1, 72, 0
1, 29318, Note_on_c, 1, 71, 127
1, 29421, Note_off_c, 1, 71, 0
1, 29424, Note_on_c, 1, 48, 127
1, 29635, Note_on_c, 1, 67, 127
1, 29837, Note_off_c, 1, 60, 0
1, 29837, Note_off_c, 1, 63, 0
1, 29842, Note_off_c, 1, 48, 0
1, 29844, Note_off_c, 1, 67, 0
1, 29846, Note_on_c, 1, 63, 127
1, 30055, Note_off_c, 1, 63, 0
1, 30057, Note_on_c, 1, 67, 127
1, 30160, Note_off_c, 1, 67, 0
1, 30163, Note_on_c, 1, 65, 127
1, 30266, Note_off_c, 1, 65, 0
1, 30268, Note_on_c, 1, 63, 127
1, 30268, Note_on_c, 1, 48, 127
1, 30371, Note_off_c, 1, 63, 0
1, 30374, Note_on_c, 1, 62, 127
1, 30477, Note_off_c, 1, 62, 0
1, 30480, Note_on_c, 1, 60, 127
1, 30678, Note_off_c, 1, 60, 0
1, 30688, Note_off_c, 1, 48, 0
1, 30691, Note_on_c, 1, 58, 127
1, 30902, Note_on_c, 1, 76, 127
1, 31005, Note_off_c, 1, 76, 0
1, 31008, Note_on_c, 1, 77, 127
1, 31111, Note_off_c, 1, 58, 0
1, 31111, Note_off_c, 1, 77, 0
1, 31113, Note_on_c, 1, 79, 127
1, 31113, Note_on_c, 1, 46, 127
1, 31322, Note_off_c, 1, 79, 0
1, 31324, Note_on_c, 1, 76, 127
1, 31522, Note_off_c, 1, 76, 0
1, 31531, Note_off_c, 1, 46, 0
1, 31536, Note_on_c, 1, 72, 127
1, 31747, Note_on_c, 1, 76, 127
1, 31956, Note_off_c, 1, 72, 0
1, 31958, Note_on_c, 1, 58, 127
1, 31958, Note_on_c, 1, 67, 127
1, 32167, Note_off_c, 1, 76, 0
1, 32378, Note_off_c, 1, 58, 0
1, 32378, Note_off_c, 1, 67, 0
1, 32380, Note_on_c, 1, 65, 127
1, 32380, Note_on_c, 1, 56, 127
1, 32592, Note_on_c, 1, 77, 127
1, 32695, Note_off_c, 1, 77, 0
1, 32697, Note_on_c, 1, 76, 127
1, 32798, Note_off_c, 1, 65, 0
1, 32800, Note_off_c, 1, 56, 0
1, 32800, Note_off_c, 1, 76, 0
1, 32803, Note_on_c, 1, 77, 127
1, 32803, Note_on_c, 1, 55, 127
1, 33012, Note_off_c, 1, 77, 0
1, 33014, Note_on_c, 1, 72, 127
1, 33223, Note_off_c, 1, 55, 0
1, 33223, Note_off_c, 1, 72, 0
1, 33225, Note_on_c, 1, 68, 127
1, 33225, Note_on_c, 1, 53, 127
1, 33434, Note_off_c, 1, 68, 0
1, 33436, Note_on_c, 1, 72, 127
1, 33539, Note_off_c, 1, 72, 0
1, 33542, Note_on_c, 1, 70, 127
1, 33645, Note_off_c, 1, 53, 0
1, 33645, Note_off_c, 1, 70, 0
1, 33648, Note_on_c, 1, 68, 127
1, 33648, Note_on_c, 1, 60, 127
1, 33751, Note_off_c, 1, 68, 0
1, 33753, Note_on_c, 1, 67, 127
1, 33856, Note_off_c, 1, 67, 0
1, 33859, Note_on_c, 1, 65, 127
1, 34044, Note_off_c, 1, 60, 0
1, 34046, Note_off_c, 1, 65, 0
1, 34070, Note_on_c, 1, 46, 127
1, 34070, Note_on_c, 1, 73, 127
1, 34281, Note_on_c, 1, 67, 127
1, 34384, Note_off_c, 1, 67, 0
1, 34387, Note_on_c, 1, 68, 127
1, 34490, Note_off_c, 1, 46, 0
1, 34490, Note_off_c, 1, 68, 0
1, 34492, Note_on_c, 1, 70, 127
1, 34492, Note_on_c, 1, 58, 127
1, 34701, Note_off_c, 1, 70, 0
1, 34704, Note_on_c, 1, 65, 127
1, 34912, Note_off_c, 1, 58, 0
1, 34913, Note_off_c, 1, 65, 0
1, 34915, Note_on_c, 1, 51, 127
1, 35335, Note_off_c, 1, 51, 0
1, 35337, Note_on_c, 1, 55, 127
1, 35337, Note_on_c, 1, 63, 127
1, 35544, Note_off_c, 1, 73, 0
1, 35757, Note_off_c, 1, 55, 0
1, 35760, Note_on_c, 1, 44, 127
1, 35760, Note_on_c, 1, 72, 127
1, 35909, Note_off_c, 1, 63, 0
1, 36180, Note_off_c, 1, 44, 0
1, 36182, Note_on_c, 1, 56, 127
1, 36393, Note_on_c, 1, 64, 127
1, 36602, Note_off_c, 1, 64, 0
1, 36604, Note_on_c, 1, 49, 127
1, 36728, Note_off_c, 1, 72, 0
1, 36816, Note_on_c, 1, 77, 127
1, 36919, Note_off_c, 1, 77, 0
1, 36921, Note_on_c, 1, 75, 127
1, 37024, Note_off_c, 1, 49, 0
1, 37024, Note_off_c, 1, 75, 0
1, 37027, Note_on_c, 1, 53, 127
1, 37370, Note_off_c, 1, 56, 0
1, 37447, Note_off_c, 1, 53, 0
1, 37449, Note_on_c, 1, 70, 127
1, 37449, Note_on_c, 1, 43, 127
1, 37658, Note_off_c, 1, 70, 0
1, 37660, Note_on_c, 1, 73, 127
1, 37763, Note_off_c, 1, 73, 0
1, 37766, Note_on_c, 1, 72, 127
1, 37869, Note_off_c, 1, 43, 0
1, 37869, Note_off_c, 1, 72, 0
1, 37872, Note_on_c, 1, 70, 127
1, 37872, Note_on_c, 1, 55, 127
1, 38081, Note_off_c, 1, 70, 0
1, 38083, Note_on_c, 1, 68, 127
1, 38292, Note_off_c, 1, 55, 0
1, 38292, Note_off_c, 1, 68, 0
1, 38294, Note_on_c, 1, 67, 127
1, 38294, Note_on_c, 1, 58, 127
1, 38503, Note_off_c, 1, 67, 0
1, 38505, Note_on_c, 1, 70, 127
1, 38608, Note_off_c, 1, 70, 0
1, 38611, Note_on_c, 1, 68, 127
1, 38714, Note_off_c, 1, 58, 0
1, 38714, Note_off_c, 1, 68, 0
1, 38716, Note_on_c, 1, 67, 127
1, 38716, Note_on_c, 1, 61, 127
1, 38925, Note_off_c, 1, 67, 0
1, 38928, Note_on_c, 1, 65, 127
1, 39136, Note_off_c, 1, 61, 0
1, 39137, Note_off_c, 1, 65, 0
1, 39139, Note_on_c, 1, 64, 127
1, 39139, Note_on_c, 1, 60, 127
1, 39242, Note_off_c, 1, 64, 0
1, 39244, Note_on_c, 1, 65, 127
1, 39347, Note_off_c, 1, 65, 0
1, 39350, Note_on_c, 1, 67, 127
1, 39453, Note_off_c, 1, 67, 0
1, 39456, Note_on_c, 1, 68, 127
1, 39559, Note_off_c, 1, 68, 0
1, 39561, Note_on_c, 1, 55, 127
1, 39561, Note_on_c, 1, 70, 127
1, 39755, Note_off_c, 1, 60, 0
1, 39772, Note_on_c, 1, 61, 127
1, 39981, Note_off_c, 1, 55, 0
1, 39981, Note_off_c, 1, 61, 0
1, 39984, Note_on_c, 1, 52, 127
1, 40192, Note_off_c, 1, 70, 0
1, 40195, Note_on_c, 1, 76, 127
1, 40298, Note_off_c, 1, 76, 0
1, 40300, Note_on_c, 1, 77, 127
1, 40403, Note_off_c, 1, 77, 0
1, 40404, Note_off_c, 1, 52, 0
1, 40406, Note_on_c, 1, 79, 127
1, 40406, Note_on_c, 1, 48, 127
1, 40509, Note_off_c, 1, 79, 0
1, 40512, Note_on_c, 1, 80, 127
1, 40615, Note_off_c, 1, 80, 0
1, 40617, Note_on_c, 1, 82, 127
1, 40826, Note_off_c, 1, 48, 0
1, 40826, Note_off_c, 1, 82, 0
1, 40828, Note_on_c, 1, 53, 127
1, 40828, Note_on_c, 1, 80, 127
1, 40934, Note_on_c, 1, 79, 127
1, 41037, Note_off_c, 1, 79, 0
1, 41040, Note_on_c, 1, 77, 127
1, 41143, Note_off_c, 1, 77, 0
1, 41145, Note_on_c, 1, 76, 127
1, 41248, Note_off_c, 1, 53, 0
1, 41248, Note_off_c, 1, 76, 0
1, 41251, Note_on_c, 1, 44, 127
1, 41459, Note_off_c, 1, 80, 0
1, 41671, Note_off_c, 1, 44, 0
1, 41673, Note_on_c, 1, 46, 127
1, 41673, Note_on_c, 1, 73, 127
1, 42093, Note_off_c, 1, 46, 0
1, 42093, Note_off_c, 1, 73, 0
1, 42096, Note_on_c, 1, 55, 127
1, 42096, Note_on_c, 1, 48, 127
1, 42096, Note_on_c, 1, 70, 127
1, 42516, Note_off_c, 1, 55, 0
1, 42516, Note_off_c, 1, 48, 0
1, 42518, Note_on_c, 1, 41, 127
1, 42727, Note_off_c, 1, 70, 0
1, 42729, Note_on_c, 1, 68, 127
1, 42832, Note_off_c, 1, 68, 0
1, 42835, Note_on_c, 1, 67, 127
1, 42938, Note_off_c, 1, 41, 0
1, 42938, Note_off_c, 1, 67, 0
1, 43152, Note_on_c, 1, 72, 127
1, 43361, Note_off_c, 1, 72, 0
1, 43363, Note_on_c, 1, 56, 127
1, 43363, Note_on_c, 1, 65, 127
1, 43574, Note_on_c, 1, 68, 127
1, 43783, Note_off_c, 1, 56, 0
1, 43783, Note_off_c, 1, 68, 0
1, 43785, Note_on_c, 1, 72, 127
1, 43785, Note_on_c, 1, 53, 127
1, 43994, Note_off_c, 1, 72, 0
1, 43996, Note_on_c, 1, 75, 127
1, 44172, Note_off_c, 1, 75, 0
1, 44177, Note_off_c, 1, 65, 0
1, 44205, Note_off_c, 1, 53, 0
1, 44208, Note_on_c, 1, 74, 127
1, 44208, Note_on_c, 1, 58, 127
1, 44311, Note_off_c, 1, 74, 0
1, 44313, Note_on_c, 1, 75, 127
1, 44416, Note_off_c, 1, 75, 0
1, 44419, Note_on_c, 1, 77, 127
1, 44522, Note_off_c, 1, 77, 0
1, 44524, Note_on_c, 1, 79, 127
1, 44627, Note_off_c, 1, 79, 0
1, 44628, Note_off_c, 1, 58, 0
1, 44630, Note_on_c, 1, 50, 127
1, 44630, Note_on_c, 1, 80, 127
1, 44841, Note_on_c, 1, 77, 127
1, 45050, Note_off_c, 1, 50, 0
1, 45050, Note_off_c, 1, 77, 0
1, 45052, Note_on_c, 1, 51, 127
1, 45052, Note_on_c, 1, 70, 127
1, 45261, Note_off_c, 1, 80, 0
1, 45264, Note_on_c, 1, 79, 127
1, 45367, Note_off_c, 1, 79, 0
1, 45472, Note_off_c, 1, 51, 0
1, 45475, Note_on_c, 1, 75, 127
1, 45475, Note_on_c, 1, 55, 127
1, 45578, Note_off_c, 1, 75, 0
1, 45866, Note_off_c, 1, 70, 0
1, 45895, Note_off_c, 1, 55, 0
1, 45897, Note_on_c, 1, 72, 127
1, 45897, Note_on_c, 1, 56, 127
1, 46000, Note_off_c, 1, 72, 0
1, 46003, Note_on_c, 1, 74, 127
1, 46106, Note_off_c, 1, 74, 0
1, 46108, Note_on_c, 1, 75, 127
1, 46211, Note_off_c, 1, 75, 0
1, 46214, Note_on_c, 1, 77, 127
1, 46317, Note_off_c, 1, 56, 0
1, 46317, Note_off_c, 1, 77, 0
1, 46320, Note_on_c, 1, 48, 127
1, 46320, Note_on_c, 1, 79, 127
1, 46531, Note_on_c, 1, 75, 127
1, 46740, Note_off_c, 1, 48, 0
1, 46740, Note_off_c, 1, 75, 0
1, 46742, Note_on_c, 1, 50, 127
1, 46742, Note_on_c, 1, 68, 127
1, 46951, Note_off_c, 1, 79, 0
1, 46953, Note_on_c, 1, 77, 127
1, 47056, Note_off_c, 1, 77, 0
1, 47162, Note_off_c, 1, 50, 0
1, 47164, Note_on_c, 1, 74, 127
1, 47164, Note_on_c, 1, 53, 127
1, 47267, Note_off_c, 1, 74, 0
1, 47556, Note_off_c, 1, 68, 0
1, 47584, Note_off_c, 1, 53, 0
1, 47587, Note_on_c, 1, 71, 127
1, 47587, Note_on_c, 1, 55, 127
1, 47690, Note_off_c, 1, 71, 0
1, 47692, Note_on_c, 1, 72, 127
1, 47795, Note_off_c, 1, 72, 0
1, 47798, Note_on_c, 1, 74, 127
1, 47901, Note_off_c, 1, 74, 0
1, 47904, Note_on_c, 1, 75, 127
1, 48007, Note_off_c, 1, 55, 0
1, 48007, Note_off_c, 1, 75, 0
1, 48009, Note_on_c, 1, 47, 127
1, 48009, Note_on_c, 1, 77, 127
1, 48220, Note_on_c, 1, 74, 127
1, 48429, Note_off_c, 1, 47, 0
1, 48429, Note_off_c, 1, 74, 0
1, 48432, Note_on_c, 1, 48, 127
1, 48432, Note_on_c, 1, 67, 127
1, 48640, Note_off_c, 1, 77, 0
1, 48643, Note_on_c, 1, 75, 127
1, 48746, Note_off_c, 1, 75, 0
1, 48852, Note_off_c, 1, 48, 0
1, 48854, Note_on_c, 1, 72, 127
1, 48854, Note_on_c, 1, 51, 127
1, 48957, Note_off_c, 1, 72, 0
1, 49274, Note_off_c, 1, 67, 0
1, 49274, Note_off_c, 1, 51, 0
1, 49276, Note_on_c, 1, 53, 127
1, 49276, Note_on_c, 1, 68, 127
1, 49485, Note_off_c, 1, 53, 0
1, 49488, Note_on_c, 1, 56, 127
1, 49591, Note_off_c, 1, 56, 0
1, 49593, Note_on_c, 1, 55, 127
1, 49696, Note_off_c, 1, 55, 0
1, 49699, Note_on_c, 1, 71, 127
1, 49802, Note_off_c, 1, 71, 0
1, 50118, Note_off_c, 1, 68, 0
1, 50121, Note_on_c, 1, 68, 127
1, 50121, Note_on_c, 1, 50, 127
1, 50121, Note_on_c, 1, 65, 127
1, 50226, Note_off_c, 1, 68, 0
1, 50227, Note_on_c, 1, 67, 127
1, 50330, Note_off_c, 1, 50, 0
1, 50332, Note_off_c, 1, 67, 0
1, 50332, Note_on_c, 1, 53, 127
1, 50435, Note_off_c, 1, 53, 0
1, 50438, Note_on_c, 1, 51, 127
1, 50541, Note_off_c, 1, 51, 0
1, 50755, Note_on_c, 1, 48, 127
1, 50964, Note_off_c, 1, 48, 0
1, 50966, Note_on_c, 1, 47, 127
1, 51177, Note_on_c, 1, 71, 127
1, 51280, Note_off_c, 1, 71, 0
1, 51283, Note_on_c, 1, 72, 127
1, 51386, Note_off_c, 1, 65, 0
1, 51386, Note_off_c, 1, 47, 0
1, 51386, Note_off_c, 1, 72, 0
1, 51388, Note_on_c, 1, 43, 127
1, 51388, Note_on_c, 1, 74, 127
1, 51600, Note_on_c, 1, 65, 127
1, 51808, Note_off_c, 1, 43, 0
1, 51809, Note_off_c, 1, 65, 0
1, 51811, Note_on_c, 1, 48, 127
1, 51811, Note_on_c, 1, 63, 127
1, 52019, Note_off_c, 1, 74, 0
1, 52020, Note_off_c, 1, 48, 0
1, 52022, Note_on_c, 1, 50, 127
1, 52022, Note_on_c, 1, 67, 127
1, 52231, Note_off_c, 1, 50, 0
1, 52231, Note_off_c, 1, 67, 0
1, 52233, Note_on_c, 1, 51, 127
1, 52233, Note_on_c, 1, 72, 127
1, 52442, Note_off_c, 1, 51, 0
1, 52444, Note_on_c, 1, 69, 127
1, 52647, Note_off_c, 1, 63, 0
1, 52653, Note_off_c, 1, 69, 0
1, 52656, Note_on_c, 1, 66, 127
1, 52761, Note_off_c, 1, 72, 0
1, 52964, Note_off_c, 1, 66, 0
1, 52972, Note_on_c, 1, 70, 127
1, 53075, Note_off_c, 1, 70, 0
1, 53078, Note_on_c, 1, 72, 127
1, 53078, Note_on_c, 1, 45, 127
1, 53287, Note_off_c, 1, 72, 0
1, 53289, Note_on_c, 1, 66, 127
1, 53498, Note_off_c, 1, 45, 0
1, 53498, Note_off_c, 1, 66, 0
1, 53500, Note_on_c, 1, 46, 127
1, 53500, Note_on_c, 1, 67, 127
1, 53709, Note_off_c, 1, 46, 0
1, 53712, Note_on_c, 1, 50, 127
1, 53712, Note_on_c, 1, 62, 127
1, 53920, Note_off_c, 1, 67, 0
1, 53921, Note_off_c, 1, 50, 0
1, 53923, Note_on_c, 1, 55, 127
1, 53923, Note_on_c, 1, 70, 127
1, 54132, Note_off_c, 1, 62, 0
1, 54132, Note_off_c, 1, 55, 0
1, 54134, Note_on_c, 1, 53, 127
1, 54134, Note_on_c, 1, 61, 127
1, 54343, Note_off_c, 1, 53, 0
1, 54343, Note_off_c, 1, 61, 0
1, 54345, Note_on_c, 1, 52, 127
1, 54345, Note_on_c, 1, 60, 127
1, 54451, Note_off_c, 1, 70, 0
1, 54662, Note_on_c, 1, 68, 127
1, 54765, Note_off_c, 1, 52, 0
1, 54765, Note_off_c, 1, 68, 0
1, 54768, Note_on_c, 1, 43, 127
1, 54979, Note_on_c, 1, 64, 127
1, 55181, Note_off_c, 1, 60, 0
1, 55188, Note_off_c, 1, 43, 0
1, 55188, Note_off_c, 1, 64, 0
1, 55190, Note_on_c, 1, 44, 127
1, 55190, Note_on_c, 1, 65, 127
1, 55399, Note_off_c, 1, 44, 0
1, 55401, Note_on_c, 1, 48, 127
1, 55401, Note_on_c, 1, 60, 127
1, 55610, Note_off_c, 1, 65, 0
1, 55610, Note_off_c, 1, 48, 0
1, 55612, Note_on_c, 1, 53, 127
1, 55612, Note_on_c, 1, 68, 127
1, 55821, Note_off_c, 1, 60, 0
1, 55825, Note_off_c, 1, 53, 0
1, 55828, Note_on_c, 1, 51, 127
1, 56041, Note_off_c, 1, 51, 0
1, 56043, Note_off_c, 1, 68, 0
1, 56046, Note_on_c, 1, 59, 127
1, 56046, Note_on_c, 1, 50, 127
1, 56151, Note_off_c, 1, 59, 0
1, 56156, Note_on_c, 1, 60, 127
1, 56261, Note_off_c, 1, 60, 0
1, 56264, Note_on_c, 1, 62, 127
1, 56369, Note_off_c, 1, 62, 0
1, 56374, Note_on_c, 1, 63, 127
1, 56477, Note_off_c, 1, 50, 0
1, 56479, Note_off_c, 1, 63, 0
1, 56481, Note_on_c, 1, 48, 127
1, 56481, Note_on_c, 1, 65, 127
1, 56699, Note_on_c, 1, 56, 127
1, 56910, Note_off_c, 1, 48, 0
1, 56912, Note_off_c, 1, 56, 0
1, 56917, Note_on_c, 1, 47, 127
1, 56917, Note_on_c, 1, 55, 127
1, 57130, Note_off_c, 1, 65, 0
1, 57135, Note_on_c, 1, 71, 127
1, 57240, Note_off_c, 1, 71, 0
1, 57243, Note_on_c, 1, 72, 127
1, 57348, Note_off_c, 1, 47, 0
1, 57348, Note_off_c, 1, 72, 0
1, 57353, Note_on_c, 1, 74, 127
1, 57353, Note_on_c, 1, 43, 127
1, 57460, Note_off_c, 1, 74, 0
1, 57463, Note_on_c, 1, 75, 127
1, 57570, Note_off_c, 1, 75, 0
1, 57573, Note_on_c, 1, 77, 127
1, 57777, Note_off_c, 1, 55, 0
1, 57795, Note_off_c, 1, 43, 0
1, 57905, Note_off_c, 1, 77, 0
1, 57911, Note_on_c, 1, 80, 127
1, 58018, Note_off_c, 1, 80, 0
1, 58021, Note_on_c, 1, 79, 127
1, 58021, Note_on_c, 1, 50, 127
1, 58128, Note_off_c, 1, 79, 0
1, 58238, Note_off_c, 1, 50, 0
1, 58246, Note_on_c, 1, 51, 127
1, 58468, Note_off_c, 1, 51, 0
1, 58475, Note_on_c, 1, 53, 127
1, 58697, Note_off_c, 1, 53, 0
1, 59654, Note_on_c, 1, 36, 127
1, 59898, Note_on_c, 1, 67, 127
1, 60012, Note_off_c, 1, 67, 0
1, 60144, Note_on_c, 1, 64, 127
1, 60258, Note_off_c, 1, 64, 0
1, 62254, Note_off_c, 1, 36, 0
1, 63036, Note_on_c, 1, 67, 127
1, 63203, Note_off_c, 1, 67, 0
1, 63206, Note_on_c, 1, 68, 127
1, 63373, Note_off_c, 1, 68, 0
1, 63375, Note_on_c, 1, 65, 127
1, 63542, Note_off_c, 1, 65, 0
1, 63545, Note_on_c, 1, 67, 127
1, 63545, Note_on_c, 1, 48, 127
1, 63712, Note_off_c, 1, 67, 0
1, 63714, Note_on_c, 1, 72, 127
1, 63881, Note_off_c, 1, 48, 0
1, 63881, Note_off_c, 1, 72, 0
1, 63883, Note_on_c, 1, 67, 127
1, 63883, Note_on_c, 1, 51, 127
1, 64050, Note_off_c, 1, 67, 0
1, 64053, Note_on_c, 1, 65, 127
1, 64219, Note_off_c, 1, 51, 0
1, 64220, Note_off_c, 1, 65, 0
1, 64222, Note_on_c, 1, 63, 127
1, 64222, Note_on_c, 1, 55, 127
1, 64389, Note_off_c, 1, 63, 0
1, 64392, Note_on_c, 1, 62, 127
1, 64558, Note_off_c, 1, 55, 0
1, 64559, Note_off_c, 1, 62, 0
1, 64561, Note_on_c, 1, 63, 127
1, 64561, Note_on_c, 1, 60, 127
1, 64728, Note_off_c, 1, 63, 0
1, 64730, Note_on_c, 1, 62, 127
1, 64897, Note_off_c, 1, 60, 0
1, 64897, Note_off_c, 1, 62, 0
1, 64900, Note_on_c, 1, 60, 127
1, 64900, Note_on_c, 1, 48, 127
1, 65067, Note_off_c, 1, 60, 0
1, 65069, Note_on_c, 1, 63, 127
1, 65236, Note_off_c, 1, 48, 0
1, 65236, Note_off_c, 1, 63, 0
1, 65239, Note_on_c, 1, 67, 127
1, 65239, Note_on_c, 1, 60, 127
1, 65406, Note_off_c, 1, 67, 0
1, 65408, Note_on_c, 1, 72, 127
1, 65575, Note_off_c, 1, 60, 0
1, 65575, Note_off_c, 1, 72, 0
1, 65577, Note_on_c, 1, 67, 127
1, 65577, Note_on_c, 1, 58, 127
1, 65744, Note_off_c, 1, 67, 0
1, 65747, Note_on_c, 1, 74, 127
1, 65913, Note_off_c, 1, 58, 0
1, 65914, Note_off_c, 1, 74, 0
1, 65916, Note_on_c, 1, 58, 127
1, 65916, Note_on_c, 1, 75, 127
1, 65997, Note_off_c, 1, 58, 0
1, 66000, Note_on_c, 1, 56, 127
1, 66081, Note_off_c, 1, 75, 0
1, 66081, Note_off_c, 1, 56, 0
1, 66083, Note_on_c, 1, 58, 127
1, 66083, Note_on_c, 1, 72, 127
1, 66164, Note_off_c, 1, 58, 0
1, 66167, Note_on_c, 1, 56, 127
1, 66248, Note_off_c, 1, 72, 0
1, 66248, Note_off_c, 1, 56, 0
1, 66251, Note_on_c, 1, 58, 127
1, 66251, Note_on_c, 1, 77, 127
1, 66332, Note_off_c, 1, 58, 0
1, 66334, Note_on_c, 1, 56, 127
1, 66415, Note_off_c, 1, 56, 0
1, 66416, Note_off_c, 1, 77, 0
1, 66418, Note_on_c, 1, 58, 127
1, 66418, Note_on_c, 1, 72, 127
1, 66499, Note_off_c, 1, 58, 0
1, 66501, Note_on_c, 1, 56, 127
1, 66582, Note_off_c, 1, 56, 0
1, 66583, Note_off_c, 1, 72, 0
1, 66585, Note_on_c, 1, 71, 127
1, 66585, Note_on_c, 1, 55, 127
1, 66752, Note_off_c, 1, 71, 0
1, 66754, Note_on_c, 1, 74, 127
1, 66921, Note_off_c, 1, 74, 0
1, 66924, Note_on_c, 1, 67, 127
1, 67091, Note_off_c, 1, 55, 0
1, 67093, Note_on_c, 1, 65, 127
1, 67260, Note_off_c, 1, 65, 0
1, 67263, Note_on_c, 1, 63, 127
1, 67430, Note_off_c, 1, 63, 0
1, 67432, Note_on_c, 1, 62, 127
1, 67592, Note_off_c, 1, 67, 0
1, 67597, Note_off_c, 1, 62, 0
1, 67599, Note_on_c, 1, 63, 127
1, 67769, Note_on_c, 1, 79, 127
1, 67935, Note_off_c, 1, 63, 0
1, 67936, Note_off_c, 1, 79, 0
1, 67938, Note_on_c, 1, 75, 127
1, 67938, Note_on_c, 1, 60, 127
1, 68105, Note_off_c, 1, 75, 0
1, 68107, Note_on_c, 1, 72, 127
1, 68274, Note_off_c, 1, 60, 0
1, 68274, Note_off_c, 1, 72, 0
1, 68277, Note_on_c, 1, 79, 127
1, 68277, Note_on_c, 1, 63, 127
1, 68444, Note_off_c, 1, 79, 0
1, 68446, Note_on_c, 1, 70, 127
1, 68613, Note_off_c, 1, 63, 0
1, 68613, Note_off_c, 1, 70, 0
1, 68616, Note_on_c, 1, 68, 127
1, 68616, Note_on_c, 1, 53, 127
1, 68783, Note_off_c, 1, 68, 0
1, 68785, Note_on_c, 1, 72, 127
1, 68952, Note_off_c, 1, 72, 0
1, 68954, Note_on_c, 1, 65, 127
1, 69122, Note_off_c, 1, 53, 0
1, 69124, Note_on_c, 1, 63, 127
1, 69291, Note_off_c, 1, 63, 0
1, 69293, Note_on_c, 1, 62, 127
1, 69460, Note_off_c, 1, 62, 0
1, 69463, Note_on_c, 1, 60, 127
1, 69622, Note_off_c, 1, 65, 0
1, 69628, Note_off_c, 1, 60, 0
1, 69630, Note_on_c, 1, 62, 127
1, 69799, Note_on_c, 1, 77, 127
1, 69966, Note_off_c, 1, 62, 0
1, 69966, Note_off_c, 1, 77, 0
1, 69969, Note_on_c, 1, 74, 127
1, 69969, Note_on_c, 1, 58, 127
1, 70136, Note_off_c, 1, 74, 0
1, 70138, Note_on_c, 1, 70, 127
1, 70305, Note_off_c, 1, 58, 0
1, 70305, Note_off_c, 1, 70, 0
1, 70307, Note_on_c, 1, 77, 127
1, 70307, Note_on_c, 1, 62, 127
1, 70474, Note_off_c, 1, 77, 0
1, 70477, Note_on_c, 1, 68, 127
1, 70643, Note_off_c, 1, 62, 0
1, 70644, Note_off_c, 1, 68, 0
1, 70646, Note_on_c, 1, 67, 127
1, 70646, Note_on_c, 1, 51, 127
1, 70813, Note_off_c, 1, 67, 0
1, 70816, Note_on_c, 1, 70, 127
1, 70983, Note_off_c, 1, 70, 0
1, 70985, Note_on_c, 1, 63, 127
1, 71152, Note_off_c, 1, 51, 0
1, 71154, Note_on_c, 1, 55, 127
1, 71321, Note_off_c, 1, 55, 0
1, 71324, Note_on_c, 1, 53, 127
1, 71477, Note_off_c, 1, 63, 0
1, 71491, Note_off_c, 1, 53, 0
1, 71493, Note_on_c, 1, 56, 127
1, 71660, Note_off_c, 1, 56, 0
1, 71663, Note_on_c, 1, 55, 127
1, 71832, Note_on_c, 1, 70, 127
1, 71999, Note_off_c, 1, 55, 0
1, 71999, Note_off_c, 1, 70, 0
1, 72001, Note_on_c, 1, 67, 127
1, 72001, Note_on_c, 1, 51, 127
1, 72168, Note_off_c, 1, 67, 0
1, 72171, Note_on_c, 1, 63, 127
1, 72337, Note_off_c, 1, 51, 0
1, 72338, Note_off_c, 1, 63, 0
1, 72340, Note_on_c, 1, 55, 127
1, 72340, Note_on_c, 1, 70, 127
1, 72510, Note_on_c, 1, 61, 127
1, 72676, Note_off_c, 1, 55, 0
1, 72677, Note_off_c, 1, 61, 0
1, 72679, Note_on_c, 1, 60, 127
1, 72679, Note_on_c, 1, 56, 127
1, 72832, Note_off_c, 1, 70, 0
1, 72846, Note_off_c, 1, 60, 0
1, 72848, Note_on_c, 1, 72, 127
1, 73015, Note_off_c, 1, 56, 0
1, 73015, Note_off_c, 1, 72, 0
1, 73018, Note_on_c, 1, 68, 127
1, 73018, Note_on_c, 1, 53, 127
1, 73185, Note_off_c, 1, 68, 0
1, 73187, Note_on_c, 1, 65, 127
1, 73354, Note_off_c, 1, 53, 0
1, 73354, Note_off_c, 1, 65, 0
1, 73357, Note_on_c, 1, 56, 127
1, 73357, Note_on_c, 1, 72, 127
1, 73526, Note_on_c, 1, 63, 127
1, 73693, Note_off_c, 1, 56, 0
1, 73693, Note_off_c, 1, 63, 0
1, 73695, Note_on_c, 1, 62, 127
1, 73695, Note_on_c, 1, 58, 127
1, 73849, Note_off_c, 1, 72, 0
1, 73862, Note_off_c, 1, 62, 0
1, 73865, Note_on_c, 1, 74, 127
1, 74031, Note_off_c, 1, 58, 0
1, 74032, Note_off_c, 1, 74, 0
1, 74034, Note_on_c, 1, 70, 127
1, 74034, Note_on_c, 1, 55, 127
1, 74201, Note_off_c, 1, 70, 0
1, 74204, Note_on_c, 1, 67, 127
1, 74370, Note_off_c, 1, 55, 0
1, 74371, Note_off_c, 1, 67, 0
1, 74373, Note_on_c, 1, 58, 127
1, 74373, Note_on_c, 1, 74, 127
1, 74542, Note_on_c, 1, 65, 127
1, 74709, Note_off_c, 1, 58, 0
1, 74709, Note_off_c, 1, 65, 0
1, 74712, Note_on_c, 1, 63, 127
1, 74712, Note_on_c, 1, 60, 127
1, 74865, Note_off_c, 1, 74, 0
1, 74879, Note_off_c, 1, 63, 0
1, 74881, Note_on_c, 1, 75, 127
1, 75048, Note_off_c, 1, 60, 0
1, 75048, Note_off_c, 1, 75, 0
1, 75051, Note_on_c, 1, 72, 127
1, 75051, Note_on_c, 1, 56, 127
1, 75218, Note_off_c, 1, 72, 0
1, 75220, Note_on_c, 1, 68, 127
1, 75387, Note_off_c, 1, 56, 0
1, 75387, Note_off_c, 1, 68, 0
1, 75389, Note_on_c, 1, 75, 127
1, 75389, Note_on_c, 1, 60, 127
1, 75559, Note_on_c, 1, 67, 127
1, 75723, Note_off_c, 1, 75, 0
1, 75725, Note_off_c, 1, 60, 0
1, 75726, Note_off_c, 1, 67, 0
1, 75728, Note_on_c, 1, 65, 127
1, 75728, Note_on_c, 1, 62, 127
1, 75895, Note_off_c, 1, 65, 0
1, 75898, Note_on_c, 1, 77, 127
1, 76064, Note_off_c, 1, 62, 0
1, 76065, Note_off_c, 1, 77, 0
1, 76067, Note_on_c, 1, 74, 127
1, 76067, Note_on_c, 1, 58, 127
1, 76234, Note_off_c, 1, 74, 0
1, 76236, Note_on_c, 1, 70, 127
1, 76403, Note_off_c, 1, 58, 0
1, 76403, Note_off_c, 1, 70, 0
1, 76406, Note_on_c, 1, 77, 127
1, 76406, Note_on_c, 1, 62, 127
1, 76575, Note_on_c, 1, 68, 127
1, 76740, Note_off_c, 1, 77, 0
1, 76742, Note_off_c, 1, 62, 0
1, 76742, Note_off_c, 1, 68, 0
1, 76745, Note_on_c, 1, 67, 127
1, 76745, Note_on_c, 1, 63, 127
1, 76912, Note_off_c, 1, 67, 0
1, 76914, Note_on_c, 1, 70, 127
1, 77081, Note_off_c, 1, 63, 0
1, 77081, Note_off_c, 1, 70, 0
1, 77083, Note_on_c, 1, 51, 127
1, 77083, Note_on_c, 1, 72, 127
1, 77250, Note_off_c, 1, 51, 0
1, 77250, Note_off_c, 1, 72, 0
1, 77253, Note_on_c, 1, 53, 127
1, 77253, Note_on_c, 1, 68, 127
1, 77420, Note_off_c, 1, 53, 0
1, 77420, Note_off_c, 1, 68, 0
1, 77422, Note_on_c, 1, 70, 127
1, 77422, Note_on_c, 1, 55, 127
1, 77589, Note_off_c, 1, 70, 0
1, 77592, Note_on_c, 1, 75, 127
1, 77758, Note_off_c, 1, 55, 0
1, 77759, Note_off_c, 1, 75, 0
1, 77761, Note_on_c, 1, 74, 127
1, 77761, Note_on_c, 1, 56, 127
1, 77928, Note_off_c, 1, 74, 0
1, 77930, Note_on_c, 1, 75, 127
1, 78097, Note_off_c, 1, 56, 0
1, 78097, Note_off_c, 1, 75, 0
1, 78100, Note_on_c, 1, 65, 127
1, 78100, Note_on_c, 1, 58, 127
1, 78267, Note_off_c, 1, 65, 0
1, 78269, Note_on_c, 1, 72, 127
1, 78436, Note_off_c, 1, 58, 0
1, 78436, Note_off_c, 1, 72, 0
1, 78439, Note_on_c, 1, 70, 127
1, 78439, Note_on_c, 1, 46, 127
1, 78606, Note_off_c, 1, 70, 0
1, 78608, Note_on_c, 1, 68, 127
1, 78775, Note_off_c, 1, 46, 0
1, 78775, Note_off_c, 1, 68, 0
1, 78777, Note_on_c, 1, 67, 127
1, 78777, Note_on_c, 1, 51, 127
1, 78944, Note_off_c, 1, 67, 0
1, 78947, Note_on_c, 1, 65, 127
1, 79114, Note_off_c, 1, 65, 0
1, 79116, Note_on_c, 1, 63, 127
1, 79199, Note_off_c, 1, 51, 0
1, 79281, Note_off_c, 1, 63, 0
1, 79283, Note_on_c, 1, 55, 127
1, 79283, Note_on_c, 1, 75, 127
1, 79450, Note_off_c, 1, 55, 0
1, 79450, Note_off_c, 1, 75, 0
1, 79453, Note_on_c, 1, 53, 127
1, 79453, Note_on_c, 1, 74, 127
1, 79620, Note_off_c, 1, 53, 0
1, 79620, Note_off_c, 1, 74, 0
1, 79622, Note_on_c, 1, 51, 127
1, 79622, Note_on_c, 1, 72, 127
1, 79789, Note_off_c, 1, 51, 0
1, 79789, Note_off_c, 1, 72, 0
1, 79792, Note_on_c, 1, 71, 127
1, 79792, Note_on_c, 1, 50, 127
1, 79961, Note_on_c, 1, 80, 127
1, 80003, Note_off_c, 1, 71, 0
1, 80128, Note_off_c, 1, 50, 0
1, 80128, Note_off_c, 1, 80, 0
1, 80130, Note_on_c, 1, 77, 127
1, 80130, Note_on_c, 1, 48, 127
1, 80297, Note_off_c, 1, 77, 0
1, 80300, Note_on_c, 1, 74, 127
1, 80466, Note_off_c, 1, 48, 0
1, 80467, Note_off_c, 1, 74, 0
1, 80469, Note_on_c, 1, 79, 127
1, 80469, Note_on_c, 1, 47, 127
1, 80636, Note_off_c, 1, 79, 0
1, 80639, Note_on_c, 1, 74, 127
1, 80805, Note_off_c, 1, 47, 0
1, 80806, Note_off_c, 1, 74, 0
1, 80808, Note_on_c, 1, 75, 127
1, 80808, Note_on_c, 1, 48, 127
1, 80975, Note_off_c, 1, 75, 0
1, 80977, Note_on_c, 1, 74, 127
1, 81142, Note_off_c, 1, 48, 0
1, 81144, Note_off_c, 1, 74, 0
1, 81147, Note_on_c, 1, 72, 127
1, 81314, Note_off_c, 1, 72, 0
1, 81316, Note_on_c, 1, 62, 127
1, 81316, Note_on_c, 1, 70, 127
1, 81483, Note_off_c, 1, 62, 0
1, 81483, Note_off_c, 1, 70, 0
1, 81486, Note_on_c, 1, 60, 127
1, 81486, Note_on_c, 1, 69, 127
1, 81653, Note_off_c, 1, 60, 0
1, 81653, Note_off_c, 1, 69, 0
1, 81655, Note_on_c, 1, 58, 127
1, 81655, Note_on_c, 1, 67, 127
1, 81822, Note_off_c, 1, 58, 0
1, 81822, Note_off_c, 1, 67, 0
1, 81824, Note_on_c, 1, 66, 127
1, 81824, Note_on_c, 1, 57, 127
1, 81994, Note_on_c, 1, 75, 127
1, 82035, Note_off_c, 1, 66, 0
1, 82160, Note_off_c, 1, 57, 0
1, 82161, Note_off_c, 1, 75, 0
1, 82163, Note_on_c, 1, 72, 127
1, 82163, Note_on_c, 1, 55, 127
1, 82330, Note_off_c, 1, 72, 0
1, 82333, Note_on_c, 1, 69, 127
1, 82499, Note_off_c, 1, 55, 0
1, 82500, Note_off_c, 1, 69, 0
1, 82502, Note_on_c, 1, 74, 127
1, 82502, Note_on_c, 1, 54, 127
1, 82669, Note_off_c, 1, 74, 0
1, 82671, Note_on_c, 1, 69, 127
1, 82838, Note_off_c, 1, 54, 0
1, 82838, Note_off_c, 1, 69, 0
1, 82841, Note_on_c, 1, 70, 127
1, 82841, Note_on_c, 1, 55, 127
1, 83008, Note_off_c, 1, 70, 0
1, 83010, Note_on_c, 1, 69, 127
1, 83175, Note_off_c, 1, 55, 0
1, 83177, Note_off_c, 1, 69, 0
1, 83180, Note_on_c, 1, 67, 127
1, 83347, Note_off_c, 1, 67, 0
1, 83349, Note_on_c, 1, 55, 127
1, 83349, Note_on_c, 1, 65, 127
1, 83516, Note_off_c, 1, 55, 0
1, 83516, Note_off_c, 1, 65, 0
1, 83518, Note_on_c, 1, 57, 127
1, 83518, Note_on_c, 1, 64, 127
1, 83685, Note_off_c, 1, 57, 0
1, 83685, Note_off_c, 1, 64, 0
1, 83688, Note_on_c, 1, 58, 127
1, 83688, Note_on_c, 1, 62, 127
1, 83855, Note_off_c, 1, 58, 0
1, 83855, Note_off_c, 1, 62, 0
1, 83857, Note_on_c, 1, 61, 127
1, 83857, Note_on_c, 1, 52, 127
1, 84027, Note_on_c, 1, 70, 127
1, 84068, Note_off_c, 1, 61, 0
1, 84193, Note_off_c, 1, 52, 0
1, 84194, Note_off_c, 1, 70, 0
1, 84196, Note_on_c, 1, 67, 127
1, 84196, Note_on_c, 1, 50, 127
1, 84363, Note_off_c, 1, 67, 0
1, 84365, Note_on_c, 1, 64, 127
1, 84532, Note_off_c, 1, 50, 0
1, 84532, Note_off_c, 1, 64, 0
1, 84535, Note_on_c, 1, 49, 127
1, 84535, Note_on_c, 1, 69, 127
1, 84704, Note_on_c, 1, 64, 127
1, 84871, Note_off_c, 1, 49, 0
1, 84871, Note_off_c, 1, 64, 0
1, 84874, Note_on_c, 1, 58, 127
1, 84874, Note_on_c, 1, 50, 127
1, 85027, Note_off_c, 1, 69, 0
1, 85083, Note_off_c, 1, 58, 0
1, 85208, Note_off_c, 1, 50, 0
1, 85210, Note_on_c, 1, 66, 127
1, 85210, Note_on_c, 1, 48, 127
1, 85377, Note_off_c, 1, 66, 0
1, 85380, Note_on_c, 1, 62, 127
1, 85546, Note_off_c, 1, 48, 0
1, 85547, Note_off_c, 1, 62, 0
1, 85549, Note_on_c, 1, 46, 127
1, 85549, Note_on_c, 1, 67, 127
1, 85718, Note_on_c, 1, 62, 127
1, 85885, Note_off_c, 1, 46, 0
1, 85885, Note_off_c, 1, 62, 0
1, 85888, Note_on_c, 1, 57, 127
1, 85888, Note_on_c, 1, 48, 127
1, 86041, Note_off_c, 1, 67, 0
1, 86097, Note_off_c, 1, 57, 0
1, 86222, Note_off_c, 1, 48, 0
1, 86224, Note_on_c, 1, 63, 127
1, 86224, Note_on_c, 1, 50, 127
1, 86391, Note_off_c, 1, 63, 0
1, 86394, Note_on_c, 1, 60, 127
1, 86560, Note_off_c, 1, 50, 0
1, 86561, Note_off_c, 1, 60, 0
1, 86563, Note_on_c, 1, 66, 127
1, 86563, Note_on_c, 1, 38, 127
1, 86733, Note_on_c, 1, 60, 127
1, 86897, Note_off_c, 1, 66, 0
1, 86899, Note_off_c, 1, 38, 0
1, 86900, Note_off_c, 1, 60, 0
1, 86902, Note_on_c, 1, 62, 127
1, 86902, Note_on_c, 1, 43, 127
1, 86902, Note_on_c, 1, 59, 127
1, 86902, Note_on_c, 1, 67, 127
1, 87322, Note_off_c, 1, 62, 0
1, 87392, Note_off_c, 1, 43, 0
1, 87406, Note_on_c, 1, 74, 127
1, 87422, Note_off_c, 1, 59, 0
1, 87432, Note_off_c, 1, 67, 0
1, 87573, Note_off_c, 1, 74, 0
1, 87575, Note_on_c, 1, 69, 127
1, 87742, Note_off_c, 1, 69, 0
1, 87745, Note_on_c, 1, 72, 127
1, 87912, Note_off_c, 1, 72, 0
1, 87914, Note_on_c, 1, 71, 127
1, 87914, Note_on_c, 1, 43, 127
1, 88083, Note_on_c, 1, 67, 127
1, 88125, Note_off_c, 1, 71, 0
1, 88250, Note_off_c, 1, 43, 0
1, 88250, Note_off_c, 1, 67, 0
1, 88253, Note_on_c, 1, 74, 127
1, 88253, Note_on_c, 1, 47, 127
1, 88422, Note_on_c, 1, 68, 127
1, 88587, Note_off_c, 1, 74, 0
1, 88589, Note_off_c, 1, 47, 0
1, 88589, Note_off_c, 1, 68, 0
1, 88592, Note_on_c, 1, 67, 127
1, 88592, Note_on_c, 1, 50, 127
1, 88759, Note_off_c, 1, 67, 0
1, 88761, Note_on_c, 1, 65, 127
1, 88928, Note_off_c, 1, 50, 0
1, 88928, Note_off_c, 1, 65, 0
1, 88930, Note_on_c, 1, 63, 127
1, 88930, Note_on_c, 1, 55, 127
1, 89100, Note_on_c, 1, 67, 127
1, 89141, Note_off_c, 1, 63, 0
1, 89266, Note_off_c, 1, 55, 0
1, 89267, Note_off_c, 1, 67, 0
1, 89269, Note_on_c, 1, 71, 127
1, 89269, Note_on_c, 1, 53, 127
1, 89436, Note_off_c, 1, 71, 0
1, 89439, Note_on_c, 1, 74, 127
1, 89605, Note_off_c, 1, 53, 0
1, 89606, Note_off_c, 1, 74, 0
1, 89608, Note_on_c, 1, 72, 127
1, 89608, Note_on_c, 1, 51, 127
1, 89777, Note_on_c, 1, 63, 127
1, 89942, Note_off_c, 1, 72, 0
1, 89944, Note_off_c, 1, 51, 0
1, 89944, Note_off_c, 1, 63, 0
1, 89947, Note_on_c, 1, 62, 127
1, 89947, Note_on_c, 1, 53, 127
1, 90114, Note_off_c, 1, 62, 0
1, 90116, Note_on_c, 1, 72, 127
1, 90283, Note_off_c, 1, 53, 0
1, 90283, Note_off_c, 1, 72, 0
1, 90286, Note_on_c, 1, 71, 127
1, 90286, Note_on_c, 1, 55, 127
1, 90453, Note_off_c, 1, 71, 0
1, 90455, Note_on_c, 1, 74, 127
1, 90622, Note_off_c, 1, 55, 0
1, 90622, Note_off_c, 1, 74, 0
1, 90624, Note_on_c, 1, 75, 127
1, 90624, Note_on_c, 1, 43, 127
1, 90791, Note_off_c, 1, 75, 0
1, 90794, Note_on_c, 1, 77, 127
1, 90960, Note_off_c, 1, 43, 0
1, 90961, Note_off_c, 1, 77, 0
1, 90963, Note_on_c, 1, 75, 127
1, 90963, Note_on_c, 1, 48, 127
1, 91130, Note_off_c, 1, 75, 0
1, 91133, Note_on_c, 1, 74, 127
1, 91299, Note_off_c, 1, 48, 0
1, 91300, Note_off_c, 1, 74, 0
1, 91302, Note_on_c, 1, 72, 127
1, 91302, Note_on_c, 1, 51, 127
1, 91469, Note_off_c, 1, 72, 0
1, 91471, Note_on_c, 1, 75, 127
1, 91638, Note_off_c, 1, 51, 0
1, 91638, Note_off_c, 1, 75, 0
1, 91641, Note_on_c, 1, 74, 127
1, 91641, Note_on_c, 1, 71, 127
1, 91641, Note_on_c, 1, 55, 127
1, 91808, Note_off_c, 1, 74, 0
1, 91810, Note_on_c, 1, 77, 127
1, 91975, Note_off_c, 1, 71, 0
1, 91977, Note_off_c, 1, 55, 0
1, 91977, Note_off_c, 1, 77, 0
1, 91980, Note_on_c, 1, 77, 127
1, 91980, Note_on_c, 1, 60, 127
1, 91980, Note_on_c, 1, 72, 127
1, 92061, Note_off_c, 1, 77, 0
1, 92063, Note_on_c, 1, 75, 127
1, 92144, Note_off_c, 1, 75, 0
1, 92145, Note_off_c, 1, 60, 0
1, 92147, Note_on_c, 1, 55, 127
1, 92312, Note_off_c, 1, 55, 0
1, 92314, Note_on_c, 1, 51, 127
1, 92479, Note_off_c, 1, 51, 0
1, 92481, Note_on_c, 1, 48, 127
1, 92646, Note_off_c, 1, 48, 0
1, 92818, Note_on_c, 1, 46, 127
1, 92985, Note_off_c, 1, 72, 0
1, 92985, Note_off_c, 1, 46, 0
1, 92987, Note_on_c, 1, 44, 127
1, 93495, Note_on_c, 1, 80, 127
1, 93655, Note_off_c, 1, 44, 0
1, 93660, Note_off_c, 1, 80, 0
1, 93663, Note_on_c, 1, 79, 127
1, 93663, Note_on_c, 1, 76, 127
1, 93830, Note_off_c, 1, 79, 0
1, 93832, Note_on_c, 1, 82, 127
1, 93997, Note_off_c, 1, 76, 0
1, 93999, Note_off_c, 1, 82, 0
1, 94001, Note_on_c, 1, 82, 127
1, 94001, Note_on_c, 1, 77, 127
1, 94082, Note_off_c, 1, 82, 0
1, 94085, Note_on_c, 1, 80, 127
1, 94166, Note_off_c, 1, 80, 0
1, 94169, Note_on_c, 1, 60, 127
1, 94334, Note_off_c, 1, 60, 0
1, 94336, Note_on_c, 1, 56, 127
1, 94501, Note_off_c, 1, 56, 0
1, 94503, Note_on_c, 1, 53, 127
1, 94670, Note_off_c, 1, 53, 0
1, 94842, Note_on_c, 1, 51, 127
1, 95008, Note_off_c, 1, 77, 0
1, 95009, Note_off_c, 1, 51, 0
1, 95011, Note_on_c, 1, 49, 127
1, 95181, Note_on_c, 1, 79, 127
1, 95348, Note_off_c, 1, 79, 0
1, 95519, Note_on_c, 1, 75, 127
1, 95679, Note_off_c, 1, 49, 0
1, 95684, Note_off_c, 1, 75, 0
1, 95687, Note_on_c, 1, 73, 127
1, 95854, Note_off_c, 1, 73, 0
1, 95856, Note_on_c, 1, 72, 127
1, 96023, Note_off_c, 1, 72, 0
1, 96025, Note_on_c, 1, 70, 127
1, 96195, Note_on_c, 1, 65, 127
1, 96362, Note_off_c, 1, 65, 0
1, 96364, Note_on_c, 1, 61, 127
1, 96364, Note_on_c, 1, 79, 127
1, 96531, Note_off_c, 1, 61, 0
1, 96534, Note_on_c, 1, 58, 127
1, 96700, Note_off_c, 1, 79, 0
1, 96701, Note_off_c, 1, 58, 0
1, 96703, Note_on_c, 1, 77, 127
1, 96872, Note_on_c, 1, 56, 127
1, 97039, Note_off_c, 1, 56, 0
1, 97042, Note_on_c, 1, 55, 127
1, 97209, Note_off_c, 1, 55, 0
1, 97301, Note_off_c, 1, 77, 0
1, 97378, Note_on_c, 1, 76, 127
1, 97714, Note_off_c, 1, 76, 0
1, 97717, Note_on_c, 1, 73, 127
1, 97887, Note_on_c, 1, 53, 127
1, 98051, Note_off_c, 1, 70, 0
1, 98054, Note_off_c, 1, 53, 0
1, 98056, Note_on_c, 1, 52, 127
1, 98223, Note_off_c, 1, 52, 0
1, 98315, Note_off_c, 1, 73, 0
1, 98393, Note_on_c, 1, 55, 127
1, 98393, Note_on_c, 1, 64, 127
1, 98393, Note_on_c, 1, 72, 127
1, 98560, Note_off_c, 1, 55, 0
1, 98562, Note_on_c, 1, 52, 127
1, 98729, Note_off_c, 1, 64, 0
1, 98729, Note_off_c, 1, 72, 0
1, 98729, Note_off_c, 1, 52, 0
1, 98731, Note_on_c, 1, 55, 127
1, 98731, Note_on_c, 1, 65, 127
1, 98731, Note_on_c, 1, 70, 127
1, 98898, Note_off_c, 1, 55, 0
1, 98901, Note_on_c, 1, 49, 127
1, 99067, Note_off_c, 1, 65, 0
1, 99068, Note_off_c, 1, 49, 0
1, 99070, Note_on_c, 1, 48, 127
1, 99070, Note_on_c, 1, 64, 127
1, 99221, Note_off_c, 1, 70, 0
1, 99237, Note_on_c, 1, 73, 127
1, 99404, Note_off_c, 1, 73, 0
1, 99407, Note_on_c, 1, 72, 127
1, 99573, Note_off_c, 1, 48, 0
1, 99574, Note_off_c, 1, 72, 0
1, 99736, Note_off_c, 1, 64, 0
1, 99743, Note_on_c, 1, 49, 127
1, 99743, Note_on_c, 1, 68, 127
1, 99913, Note_on_c, 1, 64, 127
1, 100079, Note_off_c, 1, 49, 0
1, 100080, Note_off_c, 1, 64, 0
1, 100082, Note_on_c, 1, 65, 127
1, 100082, Note_on_c, 1, 46, 127
1, 100235, Note_off_c, 1, 68, 0
1, 100249, Note_on_c, 1, 73, 127
1, 100414, Note_off_c, 1, 65, 0
1, 100416, Note_off_c, 1, 46, 0
1, 100416, Note_off_c, 1, 73, 0
1, 100419, Note_on_c, 1, 70, 127
1, 100419, Note_on_c, 1, 48, 127
1, 100500, Note_off_c, 1, 70, 0
1, 100502, Note_on_c, 1, 68, 127
1, 100583, Note_off_c, 1, 68, 0
1, 100751, Note_off_c, 1, 48, 0
1, 100753, Note_on_c, 1, 67, 127
1, 100753, Note_on_c, 1, 36, 127
1, 100920, Note_off_c, 1, 67, 0
1, 100923, Note_on_c, 1, 65, 127
1, 101089, Note_off_c, 1, 36, 0
1, 101090, Note_off_c, 1, 65, 0
1, 101092, Note_on_c, 1, 65, 127
1, 101092, Note_on_c, 1, 41, 127
1, 101261, Note_on_c, 1, 72, 127
1, 101303, Note_off_c, 1, 65, 0
1, 101428, Note_off_c, 1, 41, 0
1, 101428, Note_off_c, 1, 72, 0
1, 101431, Note_on_c, 1, 68, 127
1, 101431, Note_on_c, 1, 53, 127
1, 101598, Note_off_c, 1, 68, 0
1, 101600, Note_on_c, 1, 65, 127
1, 101767, Note_off_c, 1, 65, 0
1, 101770, Note_on_c, 1, 72, 127
1, 101923, Note_off_c, 1, 53, 0
1, 101937, Note_off_c, 1, 72, 0
1, 101939, Note_on_c, 1, 63, 127
1, 102106, Note_off_c, 1, 63, 0
1, 102108, Note_on_c, 1, 62, 127
1, 102278, Note_on_c, 1, 53, 127
1, 102444, Note_off_c, 1, 62, 0
1, 102445, Note_off_c, 1, 53, 0
1, 102447, Note_on_c, 1, 50, 127
1, 102447, Note_on_c, 1, 70, 127
1, 102614, Note_off_c, 1, 50, 0
1, 102617, Note_on_c, 1, 46, 127
1, 102784, Note_off_c, 1, 46, 0
1, 102786, Note_on_c, 1, 53, 127
1, 102939, Note_off_c, 1, 70, 0
1, 102953, Note_off_c, 1, 53, 0
1, 102955, Note_on_c, 1, 44, 127
1, 103122, Note_off_c, 1, 44, 0
1, 103125, Note_on_c, 1, 43, 127
1, 103294, Note_on_c, 1, 70, 127
1, 103461, Note_off_c, 1, 43, 0
1, 103461, Note_off_c, 1, 70, 0
1, 103464, Note_on_c, 1, 67, 127
1, 103464, Note_on_c, 1, 51, 127
1, 103631, Note_off_c, 1, 67, 0
1, 103633, Note_on_c, 1, 63, 127
1, 103800, Note_off_c, 1, 63, 0
1, 103802, Note_on_c, 1, 70, 127
1, 103956, Note_off_c, 1, 51, 0
1, 103969, Note_off_c, 1, 70, 0
1, 103972, Note_on_c, 1, 62, 127
1, 104139, Note_off_c, 1, 62, 0
1, 104141, Note_on_c, 1, 60, 127
1, 104311, Note_on_c, 1, 51, 127
1, 104477, Note_off_c, 1, 60, 0
1, 104478, Note_off_c, 1, 51, 0
1, 104480, Note_on_c, 1, 48, 127
1, 104480, Note_on_c, 1, 68, 127
1, 104647, Note_off_c, 1, 48, 0
1, 104649, Note_on_c, 1, 44, 127
1, 104816, Note_off_c, 1, 44, 0
1, 104819, Note_on_c, 1, 51, 127
1, 104972, Note_off_c, 1, 68, 0
1, 104986, Note_off_c, 1, 51, 0
1, 104988, Note_on_c, 1, 43, 127
1, 105155, Note_off_c, 1, 43, 0
1, 105158, Note_on_c, 1, 41, 127
1, 105327, Note_on_c, 1, 68, 127
1, 105494, Note_off_c, 1, 41, 0
1, 105494, Note_off_c, 1, 68, 0
1, 105496, Note_on_c, 1, 65, 127
1, 105496, Note_on_c, 1, 50, 127
1, 105663, Note_off_c, 1, 65, 0
1, 105666, Note_on_c, 1, 62, 127
1, 105833, Note_off_c, 1, 62, 0
1, 105835, Note_on_c, 1, 68, 127
1, 105988, Note_off_c, 1, 50, 0
1, 106002, Note_off_c, 1, 68, 0
1, 106005, Note_on_c, 1, 60, 127
1, 106172, Note_off_c, 1, 60, 0
1, 106174, Note_on_c, 1, 59, 127
1, 106343, Note_on_c, 1, 50, 127
1, 106510, Note_off_c, 1, 59, 0
1, 106510, Note_off_c, 1, 50, 0
1, 106513, Note_on_c, 1, 47, 127
1, 106513, Note_on_c, 1, 67, 127
1, 106680, Note_off_c, 1, 47, 0
1, 106682, Note_on_c, 1, 43, 127
1, 106849, Note_off_c, 1, 43, 0
1, 106852, Note_on_c, 1, 50, 127
1, 107005, Note_off_c, 1, 67, 0
1, 107019, Note_off_c, 1, 50, 0
1, 107021, Note_on_c, 1, 41, 127
1, 107188, Note_off_c, 1, 41, 0
1, 107190, Note_on_c, 1, 39, 127
1, 107360, Note_on_c, 1, 67, 127
1, 107526, Note_off_c, 1, 39, 0
1, 107527, Note_off_c, 1, 67, 0
1, 107529, Note_on_c, 1, 63, 127
1, 107529, Note_on_c, 1, 48, 127
1, 107696, Note_off_c, 1, 63, 0
1, 107699, Note_on_c, 1, 60, 127
1, 107865, Note_off_c, 1, 48, 0
1, 107866, Note_off_c, 1, 60, 0
1, 107868, Note_on_c, 1, 75, 127
1, 107868, Note_on_c, 1, 36, 127
1, 108035, Note_off_c, 1, 75, 0
1, 108037, Note_on_c, 1, 72, 127
1, 108204, Note_off_c, 1, 36, 0
1, 108204, Note_off_c, 1, 72, 0
1, 108207, Note_on_c, 1, 69, 127
1, 108207, Note_on_c, 1, 41, 127
1, 108376, Note_on_c, 1, 77, 127
1, 108418, Note_off_c, 1, 69, 0
1, 108543, Note_off_c, 1, 41, 0
1, 108543, Note_off_c, 1, 77, 0
1, 108546, Note_on_c, 1, 74, 127
1, 108546, Note_on_c, 1, 53, 127
1, 108713, Note_off_c, 1, 74, 0
1, 108715, Note_on_c, 1, 71, 127
1, 108882, Note_off_c, 1, 53, 0
1, 108882, Note_off_c, 1, 71, 0
1, 108884, Note_on_c, 1, 79, 127
1, 108884, Note_on_c, 1, 51, 127
1, 109051, Note_off_c, 1, 79, 0
1, 109054, Note_on_c, 1, 75, 127
1, 109220, Note_off_c, 1, 51, 0
1, 109221, Note_off_c, 1, 75, 0
1, 109223, Note_on_c, 1, 72, 127
1, 109223, Note_on_c, 1, 56, 127
1, 109393, Note_on_c, 1, 80, 127
1, 109434, Note_off_c, 1, 72, 0
1, 109559, Note_off_c, 1, 56, 0
1, 109560, Note_off_c, 1, 80, 0
1, 109562, Note_on_c, 1, 77, 127
1, 109562, Note_on_c, 1, 44, 127
1, 109729, Note_off_c, 1, 77, 0
1, 109731, Note_on_c, 1, 74, 127
1, 109898, Note_off_c, 1, 44, 0
1, 109898, Note_off_c, 1, 74, 0
1, 109901, Note_on_c, 1, 82, 127
1, 109901, Note_on_c, 1, 43, 127
1, 110068, Note_off_c, 1, 82, 0
1, 110070, Note_on_c, 1, 79, 127
1, 110237, Note_off_c, 1, 43, 0
1, 110237, Note_off_c, 1, 79, 0
1, 110240, Note_on_c, 1, 76, 127
1, 110240, Note_on_c, 1, 48, 127
1, 110407, Note_off_c, 1, 76, 0
1, 110409, Note_on_c, 1, 79, 127
1, 110576, Note_off_c, 1, 48, 0
1, 110576, Note_off_c, 1, 79, 0
1, 110578, Note_on_c, 1, 84, 127
1, 110578, Note_on_c, 1, 50, 127
1, 110745, Note_off_c, 1, 84, 0
1, 110748, Note_on_c, 1, 82, 127
1, 110914, Note_off_c, 1, 50, 0
1, 110915, Note_off_c, 1, 82, 0
1, 110917, Note_on_c, 1, 80, 127
1, 110917, Note_on_c, 1, 52, 127
1, 111084, Note_off_c, 1, 80, 0
1, 111087, Note_on_c, 1, 79, 127
1, 111253, Note_off_c, 1, 52, 0
1, 111254, Note_off_c, 1, 79, 0
1, 111256, Note_on_c, 1, 80, 127
1, 111256, Note_on_c, 1, 53, 127
1, 111423, Note_off_c, 1, 80, 0
1, 111425, Note_on_c, 1, 79, 127
1, 111592, Note_off_c, 1, 53, 0
1, 111592, Note_off_c, 1, 79, 0
1, 111595, Note_on_c, 1, 77, 127
1, 111595, Note_on_c, 1, 55, 127
1, 111762, Note_off_c, 1, 77, 0
1, 111764, Note_on_c, 1, 75, 127
1, 111931, Note_off_c, 1, 55, 0
1, 111931, Note_off_c, 1, 75, 0
1, 111934, Note_on_c, 1, 74, 127
1, 111934, Note_on_c, 1, 56, 127
1, 112101, Note_off_c, 1, 74, 0
1, 112103, Note_on_c, 1, 72, 127
1, 112270, Note_off_c, 1, 56, 0
1, 112270, Note_off_c, 1, 72, 0
1, 112272, Note_on_c, 1, 71, 127
1, 112272, Note_on_c, 1, 55, 127
1, 112442, Note_on_c, 1, 80, 127
1, 112483, Note_off_c, 1, 71, 0
1, 112608, Note_off_c, 1, 55, 0
1, 112609, Note_off_c, 1, 80, 0
1, 112611, Note_on_c, 1, 77, 127
1, 112611, Note_on_c, 1, 57, 127
1, 112778, Note_off_c, 1, 77, 0
1, 112781, Note_on_c, 1, 74, 127
1, 112947, Note_off_c, 1, 57, 0
1, 112948, Note_off_c, 1, 74, 0
1, 112950, Note_on_c, 1, 79, 127
1, 112950, Note_on_c, 1, 59, 127
1, 113117, Note_off_c, 1, 79, 0
1, 113119, Note_on_c, 1, 74, 127
1, 113286, Note_off_c, 1, 59, 0
1, 113286, Note_off_c, 1, 74, 0
1, 113289, Note_on_c, 1, 75, 127
1, 113289, Note_on_c, 1, 60, 127
1, 113456, Note_off_c, 1, 75, 0
1, 113458, Note_on_c, 1, 74, 127
1, 113623, Note_off_c, 1, 60, 0
1, 113625, Note_off_c, 1, 74, 0
1, 113628, Note_on_c, 1, 72, 127
1, 113795, Note_off_c, 1, 72, 0
1, 113797, Note_on_c, 1, 60, 127
1, 113797, Note_on_c, 1, 70, 127
1, 113964, Note_off_c, 1, 60, 0
1, 113964, Note_off_c, 1, 70, 0
1, 113966, Note_on_c, 1, 62, 127
1, 113966, Note_on_c, 1, 69, 127
1, 114133, Note_off_c, 1, 62, 0
1, 114133, Note_off_c, 1, 69, 0
1, 114136, Note_on_c, 1, 67, 127
1, 114136, Note_on_c, 1, 63, 127
1, 114305, Note_off_c, 1, 67, 0
1, 114305, Note_off_c, 1, 63, 0
1, 114307, Note_on_c, 1, 66, 127
1, 114307, Note_on_c, 1, 57, 127
1, 114481, Note_on_c, 1, 75, 127
1, 114522, Note_off_c, 1, 66, 0
1, 114650, Note_off_c, 1, 57, 0
1, 114650, Note_off_c, 1, 75, 0
1, 114655, Note_on_c, 1, 72, 127
1, 114655, Note_on_c, 1, 55, 127
1, 114824, Note_off_c, 1, 72, 0
1, 114829, Note_on_c, 1, 69, 127
1, 114998, Note_off_c, 1, 55, 0
1, 114998, Note_off_c, 1, 69, 0
1, 115003, Note_on_c, 1, 74, 127
1, 115003, Note_on_c, 1, 54, 127
1, 115172, Note_off_c, 1, 74, 0
1, 115176, Note_on_c, 1, 69, 127
1, 115346, Note_off_c, 1, 54, 0
1, 115349, Note_off_c, 1, 69, 0
1, 115355, Note_on_c, 1, 63, 127
1, 115355, Note_on_c, 1, 55, 127
1, 115533, Note_on_c, 1, 74, 127
1, 115575, Note_off_c, 1, 63, 0
1, 115706, Note_off_c, 1, 74, 0
1, 115707, Note_off_c, 1, 55, 0
1, 115711, Note_on_c, 1, 71, 127
1, 115711, Note_on_c, 1, 53, 127
1, 115884, Note_off_c, 1, 71, 0
1, 115889, Note_on_c, 1, 67, 127
1, 116062, Note_off_c, 1, 67, 0
1, 116063, Note_off_c, 1, 53, 0
1, 116067, Note_on_c, 1, 72, 127
1, 116067, Note_on_c, 1, 51, 127
1, 116240, Note_off_c, 1, 72, 0
1, 116246, Note_on_c, 1, 67, 127
1, 116419, Note_off_c, 1, 51, 0
1, 116424, Note_off_c, 1, 67, 0
1, 116428, Note_on_c, 1, 62, 127
1, 116428, Note_on_c, 1, 53, 127
1, 116613, Note_on_c, 1, 72, 127
1, 116654, Note_off_c, 1, 62, 0
1, 116789, Note_off_c, 1, 72, 0
1, 116791, Note_off_c, 1, 53, 0
1, 116796, Note_on_c, 1, 68, 127
1, 116796, Note_on_c, 1, 55, 127
1, 116974, Note_off_c, 1, 68, 0
1, 116980, Note_on_c, 1, 65, 127
1, 117158, Note_off_c, 1, 65, 0
1, 117165, Note_on_c, 1, 71, 127
1, 117165, Note_on_c, 1, 43, 127
1, 117356, Note_off_c, 1, 55, 0
1, 117495, Note_off_c, 1, 71, 0
1, 117592, Note_off_c, 1, 43, 0
1, 117596, Note_on_c, 1, 72, 127
1, 117596, Note_on_c, 1, 67, 127
1, 117596, Note_on_c, 1, 63, 127
1, 117596, Note_on_c, 1, 36, 127
1, 119996, Note_off_c, 1, 72, 0
1, 120046, Note_off_c, 1, 67, 0
1, 120096, Note_off_c, 1, 63, 0
1, 120596, Note_off_c, 1, 36, 0
1, 120926, Note_on_c, 1, 75, 127
1, 120926, Note_on_c, 1, 60, 127
1, 121344, Note_off_c, 1, 75, 0
1, 121348, Note_on_c, 1, 77, 127
1, 121557, Note_off_c, 1, 77, 0
1, 121770, Note_on_c, 1, 74, 127
1, 121770, Note_on_c, 1, 63, 127
1, 121979, Note_off_c, 1, 74, 0
1, 122193, Note_on_c, 1, 72, 127
1, 122612, Note_off_c, 1, 63, 0
1, 122613, Note_off_c, 1, 60, 0
1, 122613, Note_off_c, 1, 72, 0
1, 122615, Note_on_c, 1, 79, 127
1, 122615, Note_on_c, 1, 58, 127
1, 122615, Note_on_c, 1, 62, 127
1, 122824, Note_off_c, 1, 79, 0
1, 122826, Note_on_c, 1, 77, 127
1, 123035, Note_off_c, 1, 77, 0
1, 123457, Note_off_c, 1, 58, 0
1, 123457, Note_off_c, 1, 62, 0
1, 123460, Note_on_c, 1, 56, 127
1, 123460, Note_on_c, 1, 60, 127
1, 123671, Note_on_c, 1, 84, 127
1, 123880, Note_off_c, 1, 84, 0
1, 123882, Note_on_c, 1, 80, 127
1, 124091, Note_off_c, 1, 80, 0
1, 124094, Note_on_c, 1, 76, 127
1, 124303, Note_off_c, 1, 76, 0
1, 124725, Note_off_c, 1, 56, 0
1, 124725, Note_off_c, 1, 60, 0
1, 124727, Note_on_c, 1, 59, 127
1, 124727, Note_on_c, 1, 56, 127
1, 124727, Note_on_c, 1, 77, 127
1, 125147, Note_off_c, 1, 59, 0
1, 125147, Note_off_c, 1, 56, 0
1, 125150, Note_on_c, 1, 55, 127
1, 125150, Note_on_c, 1, 60, 127
1, 125570, Note_off_c, 1, 55, 0
1, 125570, Note_off_c, 1, 60, 0
1, 125572, Note_on_c, 1, 53, 127
1, 125572, Note_on_c, 1, 62, 127
1, 125992, Note_off_c, 1, 77, 0
1, 125992, Note_off_c, 1, 53, 0
1, 125992, Note_off_c, 1, 62, 0
1, 125994, Note_on_c, 1, 55, 127
1, 125994, Note_on_c, 1, 59, 127
1, 126206, Note_on_c, 1, 80, 127
1, 126415, Note_off_c, 1, 80, 0
1, 126417, Note_on_c, 1, 79, 127
1, 126626, Note_off_c, 1, 79, 0
1, 126628, Note_on_c, 1, 74, 127
1, 126836, Note_off_c, 1, 55, 0
1, 126836, Note_off_c, 1, 59, 0
1, 126837, Note_off_c, 1, 74, 0
1, 126839, Note_on_c, 1, 75, 127
1, 126839, Note_on_c, 1, 60, 127
1, 127048, Note_off_c, 1, 75, 0
1, 127050, Note_on_c, 1, 79, 127
1, 127259, Note_off_c, 1, 79, 0
1, 127262, Note_on_c, 1, 77, 127
1, 127262, Note_on_c, 1, 56, 127
1, 127471, Note_off_c, 1, 77, 0
1, 127473, Note_on_c, 1, 72, 127
1, 127675, Note_off_c, 1, 60, 0
1, 127682, Note_off_c, 1, 56, 0
1, 127682, Note_off_c, 1, 72, 0
1, 127684, Note_on_c, 1, 74, 127
1, 127684, Note_on_c, 1, 56, 127
1, 127684, Note_on_c, 1, 53, 127
1, 127893, Note_off_c, 1, 74, 0
1, 127895, Note_on_c, 1, 77, 127
1, 128104, Note_off_c, 1, 77, 0
1, 128106, Note_on_c, 1, 75, 127
1, 128315, Note_off_c, 1, 75, 0
1, 128318, Note_on_c, 1, 71, 127
1, 128526, Note_off_c, 1, 56, 0
1, 128526, Note_off_c, 1, 53, 0
1, 128527, Note_off_c, 1, 71, 0
1, 128529, Note_on_c, 1, 72, 127
1, 128529, Note_on_c, 1, 57, 127
1, 128529, Note_on_c, 1, 54, 127
1, 128738, Note_off_c, 1, 72, 0
1, 128740, Note_on_c, 1, 75, 127
1, 128949, Note_off_c, 1, 75, 0
1, 128951, Note_on_c, 1, 74, 127
1, 129160, Note_off_c, 1, 74, 0
1, 129162, Note_on_c, 1, 69, 127
1, 129371, Note_off_c, 1, 57, 0
1, 129371, Note_off_c, 1, 54, 0
1, 129371, Note_off_c, 1, 69, 0
1, 129374, Note_on_c, 1, 71, 127
1, 129374, Note_on_c, 1, 55, 127
1, 129477, Note_off_c, 1, 71, 0
1, 129479, Note_on_c, 1, 69, 127
1, 129582, Note_off_c, 1, 69, 0
1, 129796, Note_on_c, 1, 43, 127
1, 130007, Note_on_c, 1, 72, 127
1, 130110, Note_off_c, 1, 72, 0
1, 130113, Note_on_c, 1, 74, 127
1, 130216, Note_off_c, 1, 43, 0
1, 130216, Note_off_c, 1, 74, 0
1, 130218, Note_on_c, 1, 45, 127
1, 130638, Note_off_c, 1, 45, 0
1, 130641, Note_on_c, 1, 47, 127
1, 130852, Note_on_c, 1, 67, 127
1, 131028, Note_off_c, 1, 67, 0
1, 131061, Note_off_c, 1, 47, 0
1, 131063, Note_on_c, 1, 75, 127
1, 131063, Note_on_c, 1, 48, 127
1, 131483, Note_off_c, 1, 75, 0
1, 131486, Note_on_c, 1, 77, 127
1, 131695, Note_off_c, 1, 77, 0
1, 131899, Note_off_c, 1, 48, 0
1, 131906, Note_off_c, 1, 55, 0
1, 131908, Note_on_c, 1, 74, 127
1, 131908, Note_on_c, 1, 53, 127
1, 132117, Note_off_c, 1, 74, 0
1, 132119, Note_on_c, 1, 75, 127
1, 132328, Note_off_c, 1, 53, 0
1, 132328, Note_off_c, 1, 75, 0
1, 132330, Note_on_c, 1, 51, 127
1, 132330, Note_on_c, 1, 48, 127
1, 132330, Note_on_c, 1, 72, 127
1, 132750, Note_off_c, 1, 51, 0
1, 132750, Note_off_c, 1, 48, 0
1, 132750, Note_off_c, 1, 72, 0
1, 132753, Note_on_c, 1, 79, 127
1, 132753, Note_on_c, 1, 53, 127
1, 132753, Note_on_c, 1, 50, 127
1, 132891, Note_off_c, 1, 79, 0
1, 132894, Note_on_c, 1, 80, 127
1, 133032, Note_off_c, 1, 80, 0
1, 133034, Note_on_c, 1, 82, 127
1, 133173, Note_off_c, 1, 53, 0
1, 133173, Note_off_c, 1, 50, 0
1, 133175, Note_on_c, 1, 52, 127
1, 133175, Note_on_c, 1, 55, 127
1, 133595, Note_off_c, 1, 52, 0
1, 133595, Note_off_c, 1, 55, 0
1, 133738, Note_off_c, 1, 82, 0
1, 134020, Note_on_c, 1, 76, 127
1, 134020, Note_on_c, 1, 41, 127
1, 134229, Note_off_c, 1, 76, 0
1, 134231, Note_on_c, 1, 72, 127
1, 134440, Note_off_c, 1, 41, 0
1, 134440, Note_off_c, 1, 72, 0
1, 134442, Note_on_c, 1, 80, 127
1, 134442, Note_on_c, 1, 53, 127
1, 134865, Note_on_c, 1, 55, 127
1, 135073, Note_off_c, 1, 80, 0
1, 135076, Note_on_c, 1, 72, 127
1, 135285, Note_off_c, 1, 55, 0
1, 135285, Note_off_c, 1, 72, 0
1, 135287, Note_on_c, 1, 56, 127
1, 135287, Note_on_c, 1, 73, 127
1, 135707, Note_off_c, 1, 53, 0
1, 135707, Note_off_c, 1, 56, 0
1, 135710, Note_on_c, 1, 58, 127
1, 136130, Note_off_c, 1, 58, 0
1, 136255, Note_off_c, 1, 73, 0
1, 136343, Note_on_c, 1, 70, 127
1, 136552, Note_off_c, 1, 70, 0
1, 136554, Note_on_c, 1, 72, 127
1, 136554, Note_on_c, 1, 53, 127
1, 136554, Note_on_c, 1, 56, 127
1, 136763, Note_off_c, 1, 72, 0
1, 136766, Note_on_c, 1, 77, 127
1, 136974, Note_off_c, 1, 53, 0
1, 136975, Note_off_c, 1, 77, 0
1, 136977, Note_on_c, 1, 74, 127
1, 136977, Note_on_c, 1, 46, 127
1, 137186, Note_off_c, 1, 74, 0
1, 137188, Note_on_c, 1, 79, 127
1, 137390, Note_off_c, 1, 56, 0
1, 137397, Note_off_c, 1, 79, 0
1, 137399, Note_on_c, 1, 50, 127
1, 137610, Note_on_c, 1, 80, 127
1, 137819, Note_off_c, 1, 50, 0
1, 137819, Note_off_c, 1, 80, 0
1, 137822, Note_on_c, 1, 51, 127
1, 138033, Note_on_c, 1, 84, 127
1, 138136, Note_off_c, 1, 84, 0
1, 138138, Note_on_c, 1, 82, 127
1, 138241, Note_off_c, 1, 82, 0
1, 138242, Note_off_c, 1, 51, 0
1, 138664, Note_off_c, 1, 46, 0
1, 138666, Note_on_c, 1, 77, 127
1, 138666, Note_on_c, 1, 55, 127
1, 138666, Note_on_c, 1, 51, 127
1, 138875, Note_off_c, 1, 77, 0
1, 138878, Note_on_c, 1, 75, 127
1, 138981, Note_off_c, 1, 75, 0
1, 139086, Note_off_c, 1, 55, 0
1, 139089, Note_on_c, 1, 56, 127
1, 139298, Note_off_c, 1, 56, 0
1, 139300, Note_on_c, 1, 58, 127
1, 139509, Note_off_c, 1, 58, 0
1, 139931, Note_off_c, 1, 51, 0
1, 140145, Note_on_c, 1, 53, 127
1, 140354, Note_off_c, 1, 53, 0
1, 141201, Note_on_c, 1, 70, 127
1, 141201, Note_on_c, 1, 55, 127
1, 141201, Note_on_c, 1, 51, 127
1, 141621, Note_off_c, 1, 70, 0
1, 141623, Note_on_c, 1, 72, 127
1, 141832, Note_off_c, 1, 72, 0
1, 142043, Note_off_c, 1, 55, 0
1, 142046, Note_on_c, 1, 68, 127
1, 142046, Note_on_c, 1, 58, 127
1, 142255, Note_off_c, 1, 68, 0
1, 142466, Note_off_c, 1, 51, 0
1, 142468, Note_on_c, 1, 67, 127
1, 142888, Note_off_c, 1, 67, 0
1, 142890, Note_on_c, 1, 75, 127
1, 142890, Note_on_c, 1, 53, 127
1, 143099, Note_off_c, 1, 75, 0
1, 143102, Note_on_c, 1, 74, 127
1, 143310, Note_off_c, 1, 53, 0
1, 143311, Note_off_c, 1, 74, 0
1, 143735, Note_on_c, 1, 48, 127
1, 144158, Note_off_c, 1, 58, 0
1, 144369, Note_on_c, 1, 79, 127
1, 144571, Note_off_c, 1, 48, 0
1, 144578, Note_off_c, 1, 79, 0
1, 144580, Note_on_c, 1, 77, 127
1, 144580, Note_on_c, 1, 57, 127
1, 144789, Note_off_c, 1, 77, 0
1, 144791, Note_on_c, 1, 75, 127
1, 145000, Note_off_c, 1, 75, 0
1, 145002, Note_on_c, 1, 74, 127
1, 145002, Note_on_c, 1, 50, 127
1, 145211, Note_off_c, 1, 74, 0
1, 145214, Note_on_c, 1, 72, 127
1, 145422, Note_off_c, 1, 50, 0
1, 145423, Note_off_c, 1, 72, 0
1, 145425, Note_on_c, 1, 70, 127
1, 145425, Note_on_c, 1, 51, 127
1, 145634, Note_off_c, 1, 70, 0
1, 145636, Note_on_c, 1, 69, 127
1, 145845, Note_off_c, 1, 51, 0
1, 145845, Note_off_c, 1, 69, 0
1, 145847, Note_on_c, 1, 67, 127
1, 145847, Note_on_c, 1, 53, 127
1, 146056, Note_off_c, 1, 67, 0
1, 146058, Note_on_c, 1, 65, 127
1, 146234, Note_off_c, 1, 65, 0
1, 146267, Note_off_c, 1, 57, 0
1, 146267, Note_off_c, 1, 53, 0
1, 146270, Note_on_c, 1, 75, 127
1, 146270, Note_on_c, 1, 46, 127
1, 146479, Note_off_c, 1, 75, 0
1, 146481, Note_on_c, 1, 72, 127
1, 146690, Note_off_c, 1, 72, 0
1, 146692, Note_on_c, 1, 74, 127
1, 146692, Note_on_c, 1, 50, 127
1, 146901, Note_off_c, 1, 74, 0
1, 146903, Note_on_c, 1, 82, 127
1, 147084, Note_off_c, 1, 46, 0
1, 147088, Note_off_c, 1, 50, 0
1, 147112, Note_off_c, 1, 82, 0
1, 147114, Note_on_c, 1, 74, 127
1, 147114, Note_on_c, 1, 52, 127
1, 147114, Note_on_c, 1, 45, 127
1, 147323, Note_off_c, 1, 74, 0
1, 147326, Note_on_c, 1, 70, 127
1, 147510, Note_off_c, 1, 52, 0
1, 147535, Note_off_c, 1, 70, 0
1, 147537, Note_on_c, 1, 72, 127
1, 147537, Note_on_c, 1, 54, 127
1, 147746, Note_off_c, 1, 72, 0
1, 147748, Note_on_c, 1, 81, 127
1, 147935, Note_off_c, 1, 54, 0
1, 147954, Note_off_c, 1, 45, 0
1, 147957, Note_off_c, 1, 81, 0
1, 147959, Note_on_c, 1, 72, 127
1, 147959, Note_on_c, 1, 55, 127
1, 148168, Note_off_c, 1, 72, 0
1, 148170, Note_on_c, 1, 69, 127
1, 148379, Note_off_c, 1, 69, 0
1, 148382, Note_on_c, 1, 70, 127
1, 148382, Note_on_c, 1, 43, 127
1, 148591, Note_off_c, 1, 70, 0
1, 148593, Note_on_c, 1, 79, 127
1, 148778, Note_off_c, 1, 43, 0
1, 148802, Note_off_c, 1, 79, 0
1, 148804, Note_on_c, 1, 48, 127
1, 149015, Note_on_c, 1, 67, 127
1, 149224, Note_off_c, 1, 48, 0
1, 149224, Note_off_c, 1, 67, 0
1, 149226, Note_on_c, 1, 51, 127
1, 149646, Note_off_c, 1, 55, 0
1, 149646, Note_off_c, 1, 51, 0
1, 149649, Note_on_c, 1, 57, 127
1, 149649, Note_on_c, 1, 78, 127
1, 149649, Note_on_c, 1, 50, 127
1, 150069, Note_off_c, 1, 57, 0
1, 150071, Note_on_c, 1, 58, 127
1, 150280, Note_off_c, 1, 78, 0
1, 150282, Note_on_c, 1, 79, 127
1, 150385, Note_off_c, 1, 79, 0
1, 150388, Note_on_c, 1, 81, 127
1, 150491, Note_off_c, 1, 58, 0
1, 150491, Note_off_c, 1, 81, 0
1, 150494, Note_on_c, 1, 60, 127
1, 150914, Note_off_c, 1, 50, 0
1, 150916, Note_on_c, 1, 76, 127
1, 150916, Note_on_c, 1, 54, 127
1, 151125, Note_off_c, 1, 76, 0
1, 151127, Note_on_c, 1, 74, 127
1, 151259, Note_off_c, 1, 74, 0
1, 151320, Note_off_c, 1, 54, 0
1, 151338, Note_on_c, 1, 75, 127
1, 151338, Note_on_c, 1, 55, 127
1, 151758, Note_off_c, 1, 75, 0
1, 151761, Note_on_c, 1, 77, 127
1, 151970, Note_off_c, 1, 77, 0
1, 152181, Note_off_c, 1, 60, 0
1, 152606, Note_on_c, 1, 72, 127
1, 153002, Note_off_c, 1, 72, 0
1, 153025, Note_off_c, 1, 55, 0
1, 153028, Note_on_c, 1, 74, 127
1, 153028, Note_on_c, 1, 53, 127
1, 153028, Note_on_c, 1, 57, 127
1, 153166, Note_off_c, 1, 74, 0
1, 153169, Note_on_c, 1, 72, 127
1, 153307, Note_off_c, 1, 72, 0
1, 153870, Note_off_c, 1, 53, 0
1, 153870, Note_off_c, 1, 57, 0
1, 153873, Note_on_c, 1, 55, 127
1, 153873, Note_on_c, 1, 51, 127
1, 154084, Note_on_c, 1, 79, 127
1, 154293, Note_off_c, 1, 79, 0
1, 154295, Note_on_c, 1, 75, 127
1, 154504, Note_off_c, 1, 75, 0
1, 154506, Note_on_c, 1, 71, 127
1, 154715, Note_off_c, 1, 71, 0
1, 155061, Note_off_c, 1, 55, 0
1, 155138, Note_off_c, 1, 51, 0
1, 155140, Note_on_c, 1, 51, 127
1, 155140, Note_on_c, 1, 54, 127
1, 155140, Note_on_c, 1, 72, 127
1, 155560, Note_off_c, 1, 51, 0
1, 155560, Note_off_c, 1, 54, 0
1, 155562, Note_on_c, 1, 50, 127
1, 155562, Note_on_c, 1, 55, 127
1, 155982, Note_off_c, 1, 50, 0
1, 155982, Note_off_c, 1, 55, 0
1, 155985, Note_on_c, 1, 48, 127
1, 155985, Note_on_c, 1, 57, 127
1, 156405, Note_off_c, 1, 48, 0
1, 156405, Note_off_c, 1, 57, 0
1, 156407, Note_on_c, 1, 46, 127
1, 156548, Note_off_c, 1, 72, 0
1, 156618, Note_on_c, 1, 75, 127
1, 156827, Note_off_c, 1, 46, 0
1, 156827, Note_off_c, 1, 75, 0
1, 156830, Note_on_c, 1, 74, 127
1, 156830, Note_on_c, 1, 43, 127
1, 156830, Note_on_c, 1, 55, 127
1, 157039, Note_off_c, 1, 74, 0
1, 157041, Note_on_c, 1, 69, 127
1, 157250, Note_off_c, 1, 43, 0
1, 157250, Note_off_c, 1, 69, 0
1, 157252, Note_on_c, 1, 70, 127
1, 157252, Note_on_c, 1, 50, 127
1, 157461, Note_off_c, 1, 70, 0
1, 157666, Note_off_c, 1, 55, 0
1, 157674, Note_on_c, 1, 54, 127
1, 157674, Note_on_c, 1, 72, 127
1, 157883, Note_off_c, 1, 54, 0
1, 157883, Note_off_c, 1, 72, 0
1, 157886, Note_on_c, 1, 52, 127
1, 157886, Note_on_c, 1, 67, 127
1, 158095, Note_off_c, 1, 52, 0
1, 158095, Note_off_c, 1, 67, 0
1, 158519, Note_on_c, 1, 60, 127
1, 158730, Note_on_c, 1, 66, 127
1, 158939, Note_off_c, 1, 50, 0
1, 158939, Note_off_c, 1, 66, 0
1, 159784, Note_off_c, 1, 60, 0
1, 159786, Note_on_c, 1, 59, 127
1, 160209, Note_on_c, 1, 53, 127
1, 160622, Note_off_c, 1, 59, 0
1, 160629, Note_off_c, 1, 53, 0
1, 160631, Note_on_c, 1, 51, 127
1, 161051, Note_off_c, 1, 51, 0
1, 161054, Note_on_c, 1, 50, 127
1, 161474, Note_off_c, 1, 50, 0
1, 161476, Note_on_c, 1, 48, 127
1, 161476, Note_on_c, 1, 75, 127
1, 161896, Note_off_c, 1, 48, 0
1, 161896, Note_off_c, 1, 75, 0
1, 161898, Note_on_c, 1, 77, 127
1, 161898, Note_on_c, 1, 55, 127
1, 162107, Note_off_c, 1, 77, 0
1, 162110, Note_on_c, 1, 75, 127
1, 162318, Note_off_c, 1, 55, 0
1, 162319, Note_off_c, 1, 75, 0
1, 162321, Note_on_c, 1, 74, 127
1, 162321, Note_on_c, 1, 53, 127
1, 162530, Note_off_c, 1, 74, 0
1, 162532, Note_on_c, 1, 75, 127
1, 162741, Note_off_c, 1, 53, 0
1, 162741, Note_off_c, 1, 75, 0
1, 162743, Note_on_c, 1, 51, 127
1, 162743, Note_on_c, 1, 72, 127
1, 163163, Note_off_c, 1, 51, 0
1, 163163, Note_off_c, 1, 72, 0
1, 163166, Note_on_c, 1, 80, 127
1, 163166, Note_on_c, 1, 50, 127
1, 163342, Note_off_c, 1, 80, 0
1, 163342, Note_on_c, 1, 79, 127
1, 163518, Note_off_c, 1, 79, 0
1, 163586, Note_off_c, 1, 50, 0
1, 163588, Note_on_c, 1, 48, 127
1, 164008, Note_off_c, 1, 48, 0
1, 164010, Note_on_c, 1, 46, 127
1, 164222, Note_on_c, 1, 77, 127
1, 164431, Note_off_c, 1, 77, 0
1, 164433, Note_on_c, 1, 73, 127
1, 164433, Note_on_c, 1, 58, 127
1, 164642, Note_off_c, 1, 73, 0
1, 164644, Note_on_c, 1, 72, 127
1, 164853, Note_off_c, 1, 58, 0
1, 164853, Note_off_c, 1, 72, 0
1, 164855, Note_on_c, 1, 56, 127
1, 165275, Note_off_c, 1, 56, 0
1, 165278, Note_on_c, 1, 55, 127
1, 165698, Note_off_c, 1, 55, 0
1, 165700, Note_on_c, 1, 53, 127
1, 166120, Note_off_c, 1, 53, 0
1, 166122, Note_on_c, 1, 52, 127
1, 166540, Note_off_c, 1, 46, 0
1, 166542, Note_off_c, 1, 52, 0
1, 166545, Note_on_c, 1, 44, 127
1, 166756, Note_on_c, 1, 76, 127
1, 166965, Note_off_c, 1, 76, 0
1, 167390, Note_on_c, 1, 70, 127
1, 167599, Note_off_c, 1, 70, 0
1, 168232, Note_off_c, 1, 44, 0
1, 168234, Note_on_c, 1, 43, 127
1, 169070, Note_off_c, 1, 43, 0
1, 169079, Note_on_c, 1, 70, 127
1, 169079, Note_on_c, 1, 53, 127
1, 169079, Note_on_c, 1, 41, 127
1, 169288, Note_off_c, 1, 70, 0
1, 169290, Note_on_c, 1, 68, 127
1, 169499, Note_off_c, 1, 68, 0
1, 169502, Note_on_c, 1, 67, 127
1, 169711, Note_off_c, 1, 67, 0
1, 169921, Note_off_c, 1, 53, 0
1, 169921, Note_off_c, 1, 41, 0
1, 169924, Note_on_c, 1, 70, 127
1, 169924, Note_on_c, 1, 60, 127
1, 170133, Note_off_c, 1, 70, 0
1, 170135, Note_on_c, 1, 67, 127
1, 170344, Note_off_c, 1, 67, 0
1, 170346, Note_on_c, 1, 68, 127
1, 170346, Note_on_c, 1, 53, 127
1, 170555, Note_off_c, 1, 68, 0
1, 170558, Note_on_c, 1, 65, 127
1, 170745, Note_off_c, 1, 65, 0
1, 170766, Note_off_c, 1, 53, 0
1, 170769, Note_on_c, 1, 55, 127
1, 170769, Note_on_c, 1, 74, 127
1, 171189, Note_off_c, 1, 55, 0
1, 171191, Note_on_c, 1, 56, 127
1, 171611, Note_off_c, 1, 56, 0
1, 171614, Note_on_c, 1, 50, 127
1, 171822, Note_off_c, 1, 74, 0
1, 171825, Note_on_c, 1, 72, 127
1, 171904, Note_off_c, 1, 60, 0
1, 172034, Note_off_c, 1, 72, 0
1, 172036, Note_on_c, 1, 71, 127
1, 172245, Note_off_c, 1, 71, 0
1, 172450, Note_off_c, 1, 50, 0
1, 172458, Note_on_c, 1, 74, 127
1, 172458, Note_on_c, 1, 56, 127
1, 172667, Note_off_c, 1, 74, 0
1, 172670, Note_on_c, 1, 71, 127
1, 172879, Note_off_c, 1, 71, 0
1, 172881, Note_on_c, 1, 72, 127
1, 172881, Note_on_c, 1, 50, 127
1, 173090, Note_off_c, 1, 72, 0
1, 173092, Note_on_c, 1, 69, 127
1, 173279, Note_off_c, 1, 69, 0
1, 173301, Note_off_c, 1, 50, 0
1, 173303, Note_on_c, 1, 51, 127
1, 173303, Note_on_c, 1, 77, 127
1, 173723, Note_off_c, 1, 51, 0
1, 173726, Note_on_c, 1, 53, 127
1, 174146, Note_off_c, 1, 53, 0
1, 174148, Note_on_c, 1, 47, 127
1, 174356, Note_off_c, 1, 77, 0
1, 174359, Note_on_c, 1, 75, 127
1, 174438, Note_off_c, 1, 56, 0
1, 174568, Note_off_c, 1, 75, 0
1, 174984, Note_off_c, 1, 47, 0
1, 174993, Note_on_c, 1, 77, 127
1, 174993, Note_on_c, 1, 55, 127
1, 175202, Note_off_c, 1, 77, 0
1, 175204, Note_on_c, 1, 74, 127
1, 175413, Note_off_c, 1, 74, 0
1, 175415, Note_on_c, 1, 75, 127
1, 175415, Note_on_c, 1, 47, 127
1, 175624, Note_off_c, 1, 75, 0
1, 175626, Note_on_c, 1, 72, 127
1, 175813, Note_off_c, 1, 72, 0
1, 175835, Note_off_c, 1, 47, 0
1, 175838, Note_on_c, 1, 48, 127
1, 175838, Note_on_c, 1, 80, 127
1, 176258, Note_off_c, 1, 55, 0
1, 176258, Note_off_c, 1, 48, 0
1, 176260, Note_on_c, 1, 53, 127
1, 176260, Note_on_c, 1, 50, 127
1, 176680, Note_off_c, 1, 53, 0
1, 176680, Note_off_c, 1, 50, 0
1, 176682, Note_on_c, 1, 51, 127
1, 176806, Note_off_c, 1, 80, 0
1, 176902, Note_on_c, 1, 79, 127
1, 177119, Note_off_c, 1, 79, 0
1, 177124, Note_off_c, 1, 51, 0
1, 177127, Note_on_c, 1, 78, 127
1, 177127, Note_on_c, 1, 50, 127
1, 177127, Note_on_c, 1, 59, 127
1, 177344, Note_off_c, 1, 78, 0
1, 177351, Note_on_c, 1, 79, 127
1, 177568, Note_off_c, 1, 79, 0
1, 177569, Note_off_c, 1, 50, 0
1, 177569, Note_off_c, 1, 59, 0
1, 177576, Note_on_c, 1, 84, 127
1, 177576, Note_on_c, 1, 51, 127
1, 177576, Note_on_c, 1, 60, 127
1, 177793, Note_off_c, 1, 84, 0
1, 177800, Note_on_c, 1, 83, 127
1, 177907, Note_off_c, 1, 83, 0
1, 177912, Note_on_c, 1, 81, 127
1, 178018, Note_off_c, 1, 51, 0
1, 178019, Note_off_c, 1, 81, 0
1, 178024, Note_on_c, 1, 79, 127
1, 178024, Note_on_c, 1, 53, 127
1, 178241, Note_off_c, 1, 79, 0
1, 178249, Note_on_c, 1, 77, 127
1, 178466, Note_off_c, 1, 53, 0
1, 178466, Note_off_c, 1, 77, 0
1, 178473, Note_on_c, 1, 55, 127
1, 178695, Note_on_c, 1, 75, 127
1, 178912, Note_off_c, 1, 75, 0
1, 178915, Note_off_c, 1, 60, 0
1, 178920, Note_on_c, 1, 74, 127
1, 178920, Note_on_c, 1, 59, 127
1, 179137, Note_off_c, 1, 74, 0
1, 179144, Note_on_c, 1, 72, 127
1, 179357, Note_off_c, 1, 55, 0
1, 179361, Note_off_c, 1, 72, 0
1, 179362, Note_off_c, 1, 59, 0
1, 179369, Note_on_c, 1, 72, 127
1, 179369, Note_on_c, 1, 60, 127
1, 179487, Note_on_c, 1, 71, 127
1, 179529, Note_off_c, 1, 72, 0
1, 179599, Note_off_c, 1, 71, 0
1, 179839, Note_on_c, 1, 55, 127
1, 180307, Note_off_c, 1, 55, 0
1, 180317, Note_on_c, 1, 51, 127
1, 180798, Note_off_c, 1, 51, 0
1, 181298, Note_on_c, 1, 48, 127
1, 183169, Note_off_c, 1, 60, 0
1, 183498, Note_off_c, 1, 48, 0
1, 183795, Note_on_c, 1, 72, 127
1, 183795, Note_on_c, 1, 48, 127
1, 183964, Note_off_c, 1, 72, 0
1, 183967, Note_on_c, 1, 74, 127
1, 184133, Note_off_c, 1, 48, 0
1, 184136, Note_off_c, 1, 74, 0
1, 184138, Note_on_c, 1, 75, 127
1, 184138, Note_on_c, 1, 60, 127
1, 184307, Note_off_c, 1, 75, 0
1, 184310, Note_on_c, 1, 77, 127
1, 184468, Note_off_c, 1, 60, 0
1, 184479, Note_off_c, 1, 77, 0
1, 184482, Note_on_c, 1, 79, 127
1, 184482, Note_on_c, 1, 58, 127
1, 184730, Note_off_c, 1, 79, 0
1, 184809, Note_off_c, 1, 58, 0
1, 184823, Note_on_c, 1, 56, 127
1, 184823, Note_on_c, 1, 79, 127
1, 184992, Note_off_c, 1, 56, 0
1, 184994, Note_on_c, 1, 58, 127
1, 185161, Note_off_c, 1, 79, 0
1, 185163, Note_off_c, 1, 58, 0
1, 185166, Note_on_c, 1, 60, 127
1, 185166, Note_on_c, 1, 72, 127
1, 185335, Note_off_c, 1, 60, 0
1, 185337, Note_on_c, 1, 58, 127
1, 185504, Note_off_c, 1, 72, 0
1, 185506, Note_off_c, 1, 58, 0
1, 185509, Note_on_c, 1, 56, 127
1, 185509, Note_on_c, 1, 72, 127
1, 185678, Note_off_c, 1, 56, 0
1, 185681, Note_on_c, 1, 55, 127
1, 185795, Note_off_c, 1, 72, 0
1, 185850, Note_off_c, 1, 55, 0
1, 185852, Note_on_c, 1, 84, 127
1, 185852, Note_on_c, 1, 53, 127
1, 186021, Note_off_c, 1, 84, 0
1, 186021, Note_off_c, 1, 53, 0
1, 186024, Note_on_c, 1, 79, 127
1, 186024, Note_on_c, 1, 51, 127
1, 186193, Note_off_c, 1, 79, 0
1, 186193, Note_off_c, 1, 51, 0
1, 186195, Note_on_c, 1, 80, 127
1, 186195, Note_on_c, 1, 53, 127
1, 186364, Note_off_c, 1, 80, 0
1, 186367, Note_on_c, 1, 79, 127
1, 186533, Note_off_c, 1, 53, 0
1, 186536, Note_off_c, 1, 79, 0
1, 186539, Note_on_c, 1, 80, 127
1, 186539, Note_on_c, 1, 55, 127
1, 186708, Note_off_c, 1, 80, 0
1, 186710, Note_on_c, 1, 79, 127
1, 186877, Note_off_c, 1, 55, 0
1, 186879, Note_off_c, 1, 79, 0
1, 186882, Note_on_c, 1, 77, 127
1, 186882, Note_on_c, 1, 56, 127
1, 187051, Note_off_c, 1, 77, 0
1, 187053, Note_on_c, 1, 75, 127
1, 187212, Note_off_c, 1, 56, 0
1, 187222, Note_off_c, 1, 75, 0
1, 187225, Note_on_c, 1, 74, 127
1, 187225, Note_on_c, 1, 53, 127
1, 187394, Note_off_c, 1, 74, 0
1, 187397, Note_on_c, 1, 72, 127
1, 187555, Note_off_c, 1, 53, 0
1, 187566, Note_off_c, 1, 72, 0
1, 187568, Note_on_c, 1, 71, 127
1, 187568, Note_on_c, 1, 55, 127
1, 187737, Note_off_c, 1, 71, 0
1, 187740, Note_on_c, 1, 69, 127
1, 187906, Note_off_c, 1, 55, 0
1, 187909, Note_off_c, 1, 69, 0
1, 187911, Note_on_c, 1, 71, 127
1, 187911, Note_on_c, 1, 57, 127
1, 188080, Note_off_c, 1, 71, 0
1, 188083, Note_on_c, 1, 72, 127
1, 188249, Note_off_c, 1, 57, 0
1, 188252, Note_off_c, 1, 72, 0
1, 188255, Note_on_c, 1, 74, 127
1, 188255, Note_on_c, 1, 59, 127
1, 188424, Note_off_c, 1, 74, 0
1, 188426, Note_on_c, 1, 75, 127
1, 188585, Note_off_c, 1, 59, 0
1, 188595, Note_off_c, 1, 75, 0
1, 188598, Note_on_c, 1, 77, 127
1, 188598, Note_on_c, 1, 55, 127
1, 188767, Note_off_c, 1, 77, 0
1, 188769, Note_on_c, 1, 74, 127
1, 188928, Note_off_c, 1, 55, 0
1, 188938, Note_off_c, 1, 74, 0
1, 188941, Note_on_c, 1, 48, 127
1, 188941, Note_on_c, 1, 75, 127
1, 189110, Note_off_c, 1, 48, 0
1, 189113, Note_on_c, 1, 47, 127
1, 189244, Note_off_c, 1, 75, 0
1, 189282, Note_off_c, 1, 47, 0
1, 189284, Note_on_c, 1, 48, 127
1, 189284, Note_on_c, 1, 72, 127
1, 189453, Note_off_c, 1, 48, 0
1, 189456, Note_on_c, 1, 50, 127
1, 189587, Note_off_c, 1, 72, 0
1, 189625, Note_off_c, 1, 50, 0
1, 189627, Note_on_c, 1, 51, 127
1, 189627, Note_on_c, 1, 79, 127
1, 189796, Note_off_c, 1, 51, 0
1, 189799, Note_on_c, 1, 53, 127
1, 189965, Note_off_c, 1, 79, 0
1, 189968, Note_off_c, 1, 53, 0
1, 189971, Note_on_c, 1, 55, 127
1, 189971, Note_on_c, 1, 70, 127
1, 190140, Note_off_c, 1, 55, 0
1, 190142, Note_on_c, 1, 51, 127
1, 190309, Note_off_c, 1, 70, 0
1, 190311, Note_off_c, 1, 51, 0
1, 190314, Note_on_c, 1, 68, 127
1, 190314, Note_on_c, 1, 53, 127
1, 190483, Note_off_c, 1, 68, 0
1, 190485, Note_on_c, 1, 67, 127
1, 190626, Note_off_c, 1, 53, 0
1, 190654, Note_off_c, 1, 67, 0
1, 190657, Note_on_c, 1, 68, 127
1, 190657, Note_on_c, 1, 56, 127
1, 190826, Note_off_c, 1, 68, 0
1, 190829, Note_on_c, 1, 77, 127
1, 190969, Note_off_c, 1, 56, 0
1, 190998, Note_off_c, 1, 77, 0
1, 191000, Note_on_c, 1, 75, 127
1, 191000, Note_on_c, 1, 58, 127
1, 191169, Note_off_c, 1, 75, 0
1, 191172, Note_on_c, 1, 74, 127
1, 191338, Note_off_c, 1, 58, 0
1, 191341, Note_off_c, 1, 74, 0
1, 191343, Note_on_c, 1, 72, 127
1, 191343, Note_on_c, 1, 50, 127
1, 191512, Note_off_c, 1, 72, 0
1, 191515, Note_on_c, 1, 70, 127
1, 191681, Note_off_c, 1, 50, 0
1, 191684, Note_off_c, 1, 70, 0
1, 191687, Note_on_c, 1, 80, 127
1, 191687, Note_on_c, 1, 51, 127
1, 191856, Note_off_c, 1, 80, 0
1, 191858, Note_on_c, 1, 77, 127
1, 192008, Note_off_c, 1, 51, 0
1, 192027, Note_off_c, 1, 77, 0
1, 192030, Note_on_c, 1, 79, 127
1, 192030, Note_on_c, 1, 56, 127
1, 192199, Note_off_c, 1, 79, 0
1, 192201, Note_on_c, 1, 75, 127
1, 192351, Note_off_c, 1, 56, 0
1, 192370, Note_off_c, 1, 75, 0
1, 192373, Note_on_c, 1, 79, 127
1, 192373, Note_on_c, 1, 58, 127
1, 192542, Note_off_c, 1, 79, 0
1, 192545, Note_on_c, 1, 77, 127
1, 192711, Note_off_c, 1, 58, 0
1, 192714, Note_off_c, 1, 77, 0
1, 192716, Note_on_c, 1, 75, 127
1, 192716, Note_on_c, 1, 46, 127
1, 192885, Note_off_c, 1, 75, 0
1, 192888, Note_on_c, 1, 74, 127
1, 193054, Note_off_c, 1, 46, 0
1, 193057, Note_off_c, 1, 74, 0
1, 193059, Note_on_c, 1, 75, 127
1, 193059, Note_on_c, 1, 51, 127
1, 193228, Note_off_c, 1, 75, 0
1, 193231, Note_on_c, 1, 74, 127
1, 193397, Note_off_c, 1, 51, 0
1, 193400, Note_off_c, 1, 74, 0
1, 193403, Note_on_c, 1, 46, 127
1, 193403, Note_on_c, 1, 75, 127
1, 193741, Note_off_c, 1, 46, 0
1, 193746, Note_on_c, 1, 39, 127
1, 194258, Note_off_c, 1, 75, 0
1, 194430, Note_on_c, 1, 79, 127
1, 194430, Note_on_c, 1, 51, 127
1, 194433, Note_off_c, 1, 39, 0
1, 194599, Note_off_c, 1, 79, 0
1, 194602, Note_on_c, 1, 80, 127
1, 194768, Note_off_c, 1, 51, 0
1, 194771, Note_off_c, 1, 80, 0
1, 194773, Note_on_c, 1, 79, 127
1, 194773, Note_on_c, 1, 53, 127
1, 194942, Note_off_c, 1, 79, 0
1, 194945, Note_on_c, 1, 77, 127
1, 195111, Note_off_c, 1, 53, 0
1, 195114, Note_off_c, 1, 77, 0
1, 195116, Note_on_c, 1, 75, 127
1, 195116, Note_on_c, 1, 55, 127
1, 195285, Note_off_c, 1, 75, 0
1, 195288, Note_on_c, 1, 74, 127
1, 195437, Note_off_c, 1, 55, 0
1, 195457, Note_off_c, 1, 74, 0
1, 195460, Note_on_c, 1, 72, 127
1, 195460, Note_on_c, 1, 51, 127
1, 195629, Note_off_c, 1, 72, 0
1, 195631, Note_on_c, 1, 70, 127
1, 195781, Note_off_c, 1, 51, 0
1, 195800, Note_off_c, 1, 70, 0
1, 195803, Note_on_c, 1, 69, 127
1, 195803, Note_on_c, 1, 53, 127
1, 195972, Note_off_c, 1, 69, 0
1, 195972, Note_off_c, 1, 53, 0
1, 195974, Note_on_c, 1, 70, 127
1, 195974, Note_on_c, 1, 55, 127
1, 196143, Note_off_c, 1, 70, 0
1, 196143, Note_off_c, 1, 55, 0
1, 196146, Note_on_c, 1, 72, 127
1, 196146, Note_on_c, 1, 57, 127
1, 196315, Note_off_c, 1, 72, 0
1, 196315, Note_off_c, 1, 57, 0
1, 196318, Note_on_c, 1, 69, 127
1, 196318, Note_on_c, 1, 58, 127
1, 196487, Note_off_c, 1, 69, 0
1, 196487, Note_off_c, 1, 58, 0
1, 196489, Note_on_c, 1, 60, 127
1, 196489, Note_on_c, 1, 65, 127
1, 196658, Note_off_c, 1, 60, 0
1, 196661, Note_on_c, 1, 62, 127
1, 196775, Note_off_c, 1, 65, 0
1, 196830, Note_off_c, 1, 62, 0
1, 196832, Note_on_c, 1, 63, 127
1, 196832, Note_on_c, 1, 77, 127
1, 197001, Note_off_c, 1, 63, 0
1, 197004, Note_on_c, 1, 60, 127
1, 197173, Note_off_c, 1, 60, 0
1, 197176, Note_on_c, 1, 62, 127
1, 197509, Note_off_c, 1, 77, 0
1, 197514, Note_off_c, 1, 62, 0
1, 197517, Note_on_c, 1, 75, 127
1, 197517, Note_on_c, 1, 63, 127
1, 197686, Note_off_c, 1, 75, 0
1, 197688, Note_on_c, 1, 74, 127
1, 197855, Note_off_c, 1, 63, 0
1, 197857, Note_off_c, 1, 74, 0
1, 197860, Note_on_c, 1, 72, 127
1, 197860, Note_on_c, 1, 65, 127
1, 198029, Note_off_c, 1, 72, 0
1, 198031, Note_on_c, 1, 74, 127
1, 198181, Note_off_c, 1, 65, 0
1, 198200, Note_off_c, 1, 74, 0
1, 198203, Note_on_c, 1, 75, 127
1, 198203, Note_on_c, 1, 53, 127
1, 198372, Note_off_c, 1, 75, 0
1, 198375, Note_on_c, 1, 72, 127
1, 198524, Note_off_c, 1, 53, 0
1, 198544, Note_off_c, 1, 72, 0
1, 198546, Note_on_c, 1, 75, 127
1, 198546, Note_on_c, 1, 58, 127
1, 198715, Note_off_c, 1, 75, 0
1, 198718, Note_on_c, 1, 74, 127
1, 198887, Note_off_c, 1, 74, 0
1, 198889, Note_on_c, 1, 72, 127
1, 199045, Note_off_c, 1, 58, 0
1, 199058, Note_off_c, 1, 72, 0
1, 199061, Note_on_c, 1, 70, 127
1, 199061, Note_on_c, 1, 57, 127
1, 199230, Note_off_c, 1, 70, 0
1, 199230, Note_off_c, 1, 57, 0
1, 199233, Note_on_c, 1, 55, 127
1, 199233, Note_on_c, 1, 82, 127
1, 199402, Note_off_c, 1, 55, 0
1, 199404, Note_on_c, 1, 53, 127
1, 199573, Note_off_c, 1, 53, 0
1, 199576, Note_on_c, 1, 51, 127
1, 199745, Note_off_c, 1, 51, 0
1, 199747, Note_on_c, 1, 50, 127
1, 199916, Note_off_c, 1, 50, 0
1, 199919, Note_on_c, 1, 48, 127
1, 200232, Note_off_c, 1, 82, 0
1, 200257, Note_off_c, 1, 48, 0
1, 200260, Note_on_c, 1, 81, 127
1, 200260, Note_on_c, 1, 50, 127
1, 200429, Note_off_c, 1, 81, 0
1, 200432, Note_on_c, 1, 82, 127
1, 200598, Note_off_c, 1, 50, 0
1, 200601, Note_off_c, 1, 82, 0
1, 200603, Note_on_c, 1, 84, 127
1, 200603, Note_on_c, 1, 51, 127
1, 200772, Note_off_c, 1, 84, 0
1, 200775, Note_on_c, 1, 82, 127
1, 200924, Note_off_c, 1, 51, 0
1, 200944, Note_off_c, 1, 82, 0
1, 200946, Note_on_c, 1, 81, 127
1, 200946, Note_on_c, 1, 48, 127
1, 201115, Note_off_c, 1, 81, 0
1, 201118, Note_on_c, 1, 79, 127
1, 201267, Note_off_c, 1, 48, 0
1, 201287, Note_off_c, 1, 79, 0
1, 201290, Note_on_c, 1, 78, 127
1, 201290, Note_on_c, 1, 50, 127
1, 201459, Note_off_c, 1, 78, 0
1, 201461, Note_on_c, 1, 79, 127
1, 201628, Note_off_c, 1, 50, 0
1, 201630, Note_off_c, 1, 79, 0
1, 201633, Note_on_c, 1, 81, 127
1, 201633, Note_on_c, 1, 52, 127
1, 201802, Note_off_c, 1, 81, 0
1, 201804, Note_on_c, 1, 78, 127
1, 201971, Note_off_c, 1, 52, 0
1, 201973, Note_off_c, 1, 78, 0
1, 201976, Note_on_c, 1, 74, 127
1, 201976, Note_on_c, 1, 54, 127
1, 202145, Note_off_c, 1, 74, 0
1, 202148, Note_on_c, 1, 78, 127
1, 202297, Note_off_c, 1, 54, 0
1, 202317, Note_off_c, 1, 78, 0
1, 202319, Note_on_c, 1, 81, 127
1, 202319, Note_on_c, 1, 50, 127
1, 202488, Note_off_c, 1, 81, 0
1, 202491, Note_on_c, 1, 84, 127
1, 202640, Note_off_c, 1, 50, 0
1, 202660, Note_off_c, 1, 84, 0
1, 202662, Note_on_c, 1, 82, 127
1, 202662, Note_on_c, 1, 55, 127
1, 202745, Note_off_c, 1, 82, 0
1, 202748, Note_on_c, 1, 81, 127
1, 202831, Note_off_c, 1, 81, 0
1, 202983, Note_off_c, 1, 55, 0
1, 203006, Note_on_c, 1, 48, 127
1, 203327, Note_off_c, 1, 48, 0
1, 203349, Note_on_c, 1, 82, 127
1, 203349, Note_on_c, 1, 50, 127
1, 203432, Note_off_c, 1, 82, 0
1, 203435, Note_on_c, 1, 81, 127
1, 203518, Note_off_c, 1, 81, 0
1, 203670, Note_off_c, 1, 50, 0
1, 203692, Note_on_c, 1, 82, 127
1, 203692, Note_on_c, 1, 38, 127
1, 203775, Note_off_c, 1, 82, 0
1, 203778, Note_on_c, 1, 81, 127
1, 203861, Note_off_c, 1, 81, 0
1, 203864, Note_on_c, 1, 79, 127
1, 204013, Note_off_c, 1, 38, 0
1, 204033, Note_off_c, 1, 79, 0
1, 204035, Note_on_c, 1, 43, 127
1, 204035, Note_on_c, 1, 79, 127
1, 204373, Note_off_c, 1, 43, 0
1, 204376, Note_on_c, 1, 55, 127
1, 204545, Note_off_c, 1, 55, 0
1, 204548, Note_on_c, 1, 57, 127
1, 204717, Note_off_c, 1, 57, 0
1, 204719, Note_on_c, 1, 59, 127
1, 204888, Note_off_c, 1, 59, 0
1, 204891, Note_on_c, 1, 60, 127
1, 205060, Note_off_c, 1, 79, 0
1, 205060, Note_off_c, 1, 60, 0
1, 205063, Note_on_c, 1, 62, 127
1, 205232, Note_off_c, 1, 62, 0
1, 205234, Note_on_c, 1, 59, 127
1, 205403, Note_off_c, 1, 59, 0
1, 205406, Note_on_c, 1, 76, 127
1, 205406, Note_on_c, 1, 60, 127
1, 205575, Note_off_c, 1, 76, 0
1, 205577, Note_on_c, 1, 74, 127
1, 205744, Note_off_c, 1, 60, 0
1, 205746, Note_off_c, 1, 74, 0
1, 205749, Note_on_c, 1, 76, 127
1, 205749, Note_on_c, 1, 48, 127
1, 205918, Note_off_c, 1, 76, 0
1, 205921, Note_on_c, 1, 77, 127
1, 206087, Note_off_c, 1, 48, 0
1, 206090, Note_off_c, 1, 77, 0
1, 206092, Note_on_c, 1, 79, 127
1, 206092, Note_on_c, 1, 48, 127
1, 206261, Note_off_c, 1, 79, 0
1, 206264, Note_on_c, 1, 80, 127
1, 206413, Note_off_c, 1, 48, 0
1, 206433, Note_off_c, 1, 80, 0
1, 206435, Note_on_c, 1, 82, 127
1, 206435, Note_on_c, 1, 60, 127
1, 206604, Note_off_c, 1, 82, 0
1, 206607, Note_on_c, 1, 79, 127
1, 206756, Note_off_c, 1, 60, 0
1, 206776, Note_off_c, 1, 79, 0
1, 206779, Note_on_c, 1, 53, 127
1, 206779, Note_on_c, 1, 80, 127
1, 206948, Note_off_c, 1, 53, 0
1, 206950, Note_on_c, 1, 52, 127
1, 207065, Note_off_c, 1, 80, 0
1, 207119, Note_off_c, 1, 52, 0
1, 207122, Note_on_c, 1, 53, 127
1, 207122, Note_on_c, 1, 72, 127
1, 207291, Note_off_c, 1, 53, 0
1, 207293, Note_on_c, 1, 55, 127
1, 207462, Note_off_c, 1, 55, 0
1, 207465, Note_on_c, 1, 56, 127
1, 207621, Note_off_c, 1, 72, 0
1, 207634, Note_off_c, 1, 56, 0
1, 207637, Note_on_c, 1, 74, 127
1, 207637, Note_on_c, 1, 58, 127
1, 207806, Note_off_c, 1, 74, 0
1, 207806, Note_off_c, 1, 58, 0
1, 207808, Note_on_c, 1, 75, 127
1, 207808, Note_on_c, 1, 60, 127
1, 207977, Note_off_c, 1, 75, 0
1, 207977, Note_off_c, 1, 60, 0
1, 207980, Note_on_c, 1, 56, 127
1, 207980, Note_on_c, 1, 72, 127
1, 208149, Note_off_c, 1, 56, 0
1, 208149, Note_off_c, 1, 72, 0
1, 208151, Note_on_c, 1, 74, 127
1, 208151, Note_on_c, 1, 58, 127
1, 208320, Note_off_c, 1, 74, 0
1, 208323, Note_on_c, 1, 72, 127
1, 208489, Note_off_c, 1, 58, 0
1, 208492, Note_off_c, 1, 72, 0
1, 208495, Note_on_c, 1, 74, 127
1, 208495, Note_on_c, 1, 46, 127
1, 208664, Note_off_c, 1, 74, 0
1, 208666, Note_on_c, 1, 75, 127
1, 208833, Note_off_c, 1, 46, 0
1, 208835, Note_off_c, 1, 75, 0
1, 208838, Note_on_c, 1, 77, 127
1, 208838, Note_on_c, 1, 46, 127
1, 209007, Note_off_c, 1, 77, 0
1, 209009, Note_on_c, 1, 79, 127
1, 209159, Note_off_c, 1, 46, 0
1, 209178, Note_off_c, 1, 79, 0
1, 209181, Note_on_c, 1, 80, 127
1, 209181, Note_on_c, 1, 58, 127
1, 209350, Note_off_c, 1, 80, 0
1, 209353, Note_on_c, 1, 77, 127
1, 209502, Note_off_c, 1, 58, 0
1, 209522, Note_off_c, 1, 77, 0
1, 209524, Note_on_c, 1, 51, 127
1, 209524, Note_on_c, 1, 79, 127
1, 209693, Note_off_c, 1, 51, 0
1, 209696, Note_on_c, 1, 50, 127
1, 209810, Note_off_c, 1, 79, 0
1, 209865, Note_off_c, 1, 50, 0
1, 209867, Note_on_c, 1, 51, 127
1, 209867, Note_on_c, 1, 71, 127
1, 210036, Note_off_c, 1, 51, 0
1, 210039, Note_on_c, 1, 53, 127
1, 210208, Note_off_c, 1, 53, 0
1, 210211, Note_on_c, 1, 55, 127
1, 210366, Note_off_c, 1, 71, 0
1, 210380, Note_off_c, 1, 55, 0
1, 210382, Note_on_c, 1, 72, 127
1, 210382, Note_on_c, 1, 56, 127
1, 210551, Note_off_c, 1, 72, 0
1, 210551, Note_off_c, 1, 56, 0
1, 210554, Note_on_c, 1, 74, 127
1, 210554, Note_on_c, 1, 58, 127
1, 210723, Note_off_c, 1, 74, 0
1, 210723, Note_off_c, 1, 58, 0
1, 210725, Note_on_c, 1, 71, 127
1, 210725, Note_on_c, 1, 55, 127
1, 210894, Note_off_c, 1, 71, 0
1, 210894, Note_off_c, 1, 55, 0
1, 210897, Note_on_c, 1, 72, 127
1, 210897, Note_on_c, 1, 56, 127
1, 211069, Note_on_c, 1, 79, 127
1, 211235, Note_off_c, 1, 72, 0
1, 211235, Note_off_c, 1, 56, 0
1, 211238, Note_off_c, 1, 79, 0
1, 211240, Note_on_c, 1, 77, 127
1, 211240, Note_on_c, 1, 55, 127
1, 211409, Note_off_c, 1, 77, 0
1, 211412, Note_on_c, 1, 75, 127
1, 211578, Note_off_c, 1, 55, 0
1, 211581, Note_off_c, 1, 75, 0
1, 211583, Note_on_c, 1, 77, 127
1, 211583, Note_on_c, 1, 56, 127
1, 211755, Note_on_c, 1, 74, 127
1, 211778, Note_off_c, 1, 77, 0
1, 211904, Note_off_c, 1, 56, 0
1, 211924, Note_off_c, 1, 74, 0
1, 211927, Note_on_c, 1, 75, 127
1, 211927, Note_on_c, 1, 53, 127
1, 212098, Note_on_c, 1, 72, 127
1, 212122, Note_off_c, 1, 75, 0
1, 212248, Note_off_c, 1, 53, 0
1, 212267, Note_off_c, 1, 72, 0
1, 212270, Note_on_c, 1, 55, 127
1, 212270, Note_on_c, 1, 71, 127
1, 212441, Note_on_c, 1, 77, 127
1, 212608, Note_off_c, 1, 55, 0
1, 212608, Note_off_c, 1, 71, 0
1, 212610, Note_off_c, 1, 77, 0
1, 212613, Note_on_c, 1, 75, 127
1, 212613, Note_on_c, 1, 53, 127
1, 212782, Note_off_c, 1, 75, 0
1, 212785, Note_on_c, 1, 74, 127
1, 212951, Note_off_c, 1, 53, 0
1, 212954, Note_off_c, 1, 74, 0
1, 212956, Note_on_c, 1, 75, 127
1, 212956, Note_on_c, 1, 55, 127
1, 213128, Note_on_c, 1, 72, 127
1, 213151, Note_off_c, 1, 75, 0
1, 213277, Note_off_c, 1, 55, 0
1, 213297, Note_off_c, 1, 72, 0
1, 213299, Note_on_c, 1, 74, 127
1, 213299, Note_on_c, 1, 51, 127
1, 213471, Note_on_c, 1, 70, 127
1, 213494, Note_off_c, 1, 74, 0
1, 213620, Note_off_c, 1, 51, 0
1, 213640, Note_off_c, 1, 70, 0
1, 213643, Note_on_c, 1, 53, 127
1, 213643, Note_on_c, 1, 68, 127
1, 213814, Note_on_c, 1, 75, 127
1, 213981, Note_off_c, 1, 53, 0
1, 213981, Note_off_c, 1, 68, 0
1, 213983, Note_off_c, 1, 75, 0
1, 213986, Note_on_c, 1, 74, 127
1, 213986, Note_on_c, 1, 51, 127
1, 214155, Note_off_c, 1, 74, 0
1, 214157, Note_on_c, 1, 72, 127
1, 214324, Note_off_c, 1, 51, 0
1, 214326, Note_off_c, 1, 72, 0
1, 214329, Note_on_c, 1, 74, 127
1, 214329, Note_on_c, 1, 53, 127
1, 214501, Note_on_c, 1, 71, 127
1, 214524, Note_off_c, 1, 74, 0
1, 214650, Note_off_c, 1, 53, 0
1, 214670, Note_off_c, 1, 71, 0
1, 214672, Note_on_c, 1, 72, 127
1, 214672, Note_on_c, 1, 50, 127
1, 214844, Note_on_c, 1, 68, 127
1, 214867, Note_off_c, 1, 72, 0
1, 214993, Note_off_c, 1, 50, 0
1, 215013, Note_off_c, 1, 68, 0
1, 215015, Note_on_c, 1, 55, 127
1, 215015, Note_on_c, 1, 65, 127
1, 215187, Note_on_c, 1, 72, 127
1, 215353, Note_off_c, 1, 55, 0
1, 215353, Note_off_c, 1, 65, 0
1, 215356, Note_off_c, 1, 72, 0
1, 215359, Note_on_c, 1, 71, 127
1, 215359, Note_on_c, 1, 53, 127
1, 215528, Note_off_c, 1, 71, 0
1, 215530, Note_on_c, 1, 69, 127
1, 215697, Note_off_c, 1, 53, 0
1, 215699, Note_off_c, 1, 69, 0
1, 215702, Note_on_c, 1, 71, 127
1, 215702, Note_on_c, 1, 51, 127
1, 215873, Note_on_c, 1, 67, 127
1, 215897, Note_off_c, 1, 71, 0
1, 216023, Note_off_c, 1, 51, 0
1, 216042, Note_off_c, 1, 67, 0
1, 216045, Note_on_c, 1, 68, 127
1, 216045, Note_on_c, 1, 50, 127
1, 216214, Note_off_c, 1, 68, 0
1, 216217, Note_on_c, 1, 65, 127
1, 216366, Note_off_c, 1, 50, 0
1, 216386, Note_off_c, 1, 65, 0
1, 216388, Note_on_c, 1, 48, 127
1, 216388, Note_on_c, 1, 63, 127
1, 216557, Note_off_c, 1, 48, 0
1, 216557, Note_off_c, 1, 63, 0
1, 216560, Note_on_c, 1, 47, 127
1, 216560, Note_on_c, 1, 62, 127
1, 216729, Note_off_c, 1, 47, 0
1, 216729, Note_off_c, 1, 62, 0
1, 216731, Note_on_c, 1, 48, 127
1, 216731, Note_on_c, 1, 63, 127
1, 216900, Note_off_c, 1, 48, 0
1, 216900, Note_off_c, 1, 63, 0
1, 216903, Note_on_c, 1, 67, 127
1, 216903, Note_on_c, 1, 50, 127
1, 217072, Note_off_c, 1, 67, 0
1, 217072, Note_off_c, 1, 50, 0
1, 217075, Note_on_c, 1, 51, 127
1, 217075, Note_on_c, 1, 72, 127
1, 217244, Note_off_c, 1, 51, 0
1, 217246, Note_on_c, 1, 53, 127
1, 217361, Note_off_c, 1, 72, 0
1, 217415, Note_off_c, 1, 53, 0
1, 217418, Note_on_c, 1, 63, 127
1, 217418, Note_on_c, 1, 55, 127
1, 217739, Note_off_c, 1, 63, 0
1, 217759, Note_off_c, 1, 55, 0
1, 217761, Note_on_c, 1, 62, 127
1, 217761, Note_on_c, 1, 55, 127
1, 217930, Note_off_c, 1, 62, 0
1, 217933, Note_on_c, 1, 63, 127
1, 218099, Note_off_c, 1, 55, 0
1, 218102, Note_off_c, 1, 63, 0
1, 218104, Note_on_c, 1, 65, 127
1, 218104, Note_on_c, 1, 44, 127
1, 218273, Note_off_c, 1, 65, 0
1, 218276, Note_on_c, 1, 74, 127
1, 218442, Note_off_c, 1, 44, 0
1, 218445, Note_off_c, 1, 74, 0
1, 218447, Note_on_c, 1, 72, 127
1, 218447, Note_on_c, 1, 44, 127
1, 218616, Note_off_c, 1, 72, 0
1, 218619, Note_on_c, 1, 71, 127
1, 218733, Note_off_c, 1, 44, 0
1, 218788, Note_off_c, 1, 71, 0
1, 218791, Note_on_c, 1, 69, 127
1, 218791, Note_on_c, 1, 60, 127
1, 218960, Note_off_c, 1, 69, 0
1, 218960, Note_off_c, 1, 60, 0
1, 218962, Note_on_c, 1, 67, 127
1, 218962, Note_on_c, 1, 55, 127
1, 219131, Note_off_c, 1, 67, 0
1, 219131, Note_off_c, 1, 55, 0
1, 219134, Note_on_c, 1, 72, 127
1, 219134, Note_on_c, 1, 56, 127
1, 219303, Note_off_c, 1, 72, 0
1, 219305, Note_on_c, 1, 71, 127
1, 219474, Note_off_c, 1, 71, 0
1, 219633, Note_off_c, 1, 56, 0
1, 219649, Note_on_c, 1, 74, 127
1, 219649, Note_on_c, 1, 55, 127
1, 219818, Note_off_c, 1, 74, 0
1, 219818, Note_off_c, 1, 55, 0
1, 219820, Note_on_c, 1, 75, 127
1, 219820, Note_on_c, 1, 53, 127
1, 219989, Note_off_c, 1, 75, 0
1, 219989, Note_off_c, 1, 53, 0
1, 219992, Note_on_c, 1, 77, 127
1, 219992, Note_on_c, 1, 51, 127
1, 220161, Note_off_c, 1, 77, 0
1, 220161, Note_off_c, 1, 51, 0
1, 220163, Note_on_c, 1, 50, 127
1, 220163, Note_on_c, 1, 79, 127
1, 220332, Note_off_c, 1, 50, 0
1, 220332, Note_off_c, 1, 79, 0
1, 220335, Note_on_c, 1, 48, 127
1, 220335, Note_on_c, 1, 80, 127
1, 220504, Note_off_c, 1, 48, 0
1, 220504, Note_off_c, 1, 80, 0
1, 220507, Note_on_c, 1, 47, 127
1, 220507, Note_on_c, 1, 79, 127
1, 220676, Note_off_c, 1, 47, 0
1, 220676, Note_off_c, 1, 79, 0
1, 220678, Note_on_c, 1, 77, 127
1, 220678, Note_on_c, 1, 45, 127
1, 220847, Note_off_c, 1, 77, 0
1, 220847, Note_off_c, 1, 45, 0
1, 220850, Note_on_c, 1, 75, 127
1, 220850, Note_on_c, 1, 47, 127
1, 221019, Note_off_c, 1, 75, 0
1, 221019, Note_off_c, 1, 47, 0
1, 221021, Note_on_c, 1, 74, 127
1, 221021, Note_on_c, 1, 48, 127
1, 221190, Note_off_c, 1, 74, 0
1, 221190, Note_off_c, 1, 48, 0
1, 221193, Note_on_c, 1, 72, 127
1, 221193, Note_on_c, 1, 50, 127
1, 221362, Note_off_c, 1, 72, 0
1, 221362, Note_off_c, 1, 50, 0
1, 221365, Note_on_c, 1, 71, 127
1, 221365, Note_on_c, 1, 51, 127
1, 221534, Note_off_c, 1, 71, 0
1, 221534, Note_off_c, 1, 51, 0
1, 221536, Note_on_c, 1, 69, 127
1, 221536, Note_on_c, 1, 53, 127
1, 221705, Note_off_c, 1, 69, 0
1, 221705, Note_off_c, 1, 53, 0
1, 221708, Note_on_c, 1, 67, 127
1, 221708, Note_on_c, 1, 50, 127
1, 221877, Note_off_c, 1, 67, 0
1, 221877, Note_off_c, 1, 50, 0
1, 221879, Note_on_c, 1, 70, 127
1, 221879, Note_on_c, 1, 52, 127
1, 222048, Note_off_c, 1, 70, 0
1, 222048, Note_off_c, 1, 52, 0
1, 222051, Note_on_c, 1, 55, 127
1, 222051, Note_on_c, 1, 67, 127
1, 222220, Note_off_c, 1, 55, 0
1, 222220, Note_off_c, 1, 67, 0
1, 222223, Note_on_c, 1, 53, 127
1, 222223, Note_on_c, 1, 69, 127
1, 222392, Note_off_c, 1, 53, 0
1, 222394, Note_on_c, 1, 51, 127
1, 222563, Note_off_c, 1, 51, 0
1, 222566, Note_on_c, 1, 50, 127
1, 222652, Note_off_c, 1, 69, 0
1, 222735, Note_off_c, 1, 50, 0
1, 222737, Note_on_c, 1, 72, 127
1, 222737, Note_on_c, 1, 48, 127
1, 222906, Note_off_c, 1, 72, 0
1, 222906, Note_off_c, 1, 48, 0
1, 222909, Note_on_c, 1, 74, 127
1, 222909, Note_on_c, 1, 47, 127
1, 223078, Note_off_c, 1, 74, 0
1, 223078, Note_off_c, 1, 47, 0
1, 223081, Note_on_c, 1, 75, 127
1, 223081, Note_on_c, 1, 45, 127
1, 223250, Note_off_c, 1, 75, 0
1, 223250, Note_off_c, 1, 45, 0
1, 223252, Note_on_c, 1, 47, 127
1, 223252, Note_on_c, 1, 77, 127
1, 223421, Note_off_c, 1, 47, 0
1, 223421, Note_off_c, 1, 77, 0
1, 223424, Note_on_c, 1, 50, 127
1, 223424, Note_on_c, 1, 74, 127
1, 223593, Note_off_c, 1, 50, 0
1, 223593, Note_off_c, 1, 74, 0
1, 223595, Note_on_c, 1, 48, 127
1, 223595, Note_on_c, 1, 75, 127
1, 223764, Note_off_c, 1, 48, 0
1, 223767, Note_on_c, 1, 46, 127
1, 223936, Note_off_c, 1, 46, 0
1, 223939, Note_on_c, 1, 44, 127
1, 224024, Note_off_c, 1, 75, 0
1, 224112, Note_off_c, 1, 44, 0
1, 224115, Note_on_c, 1, 43, 127
1, 224115, Note_on_c, 1, 75, 127
1, 224286, Note_off_c, 1, 43, 0
1, 224286, Note_off_c, 1, 75, 0
1, 224291, Note_on_c, 1, 41, 127
1, 224291, Note_on_c, 1, 77, 127
1, 224462, Note_off_c, 1, 41, 0
1, 224462, Note_off_c, 1, 77, 0
1, 224467, Note_on_c, 1, 39, 127
1, 224467, Note_on_c, 1, 79, 127
1, 224638, Note_off_c, 1, 39, 0
1, 224638, Note_off_c, 1, 79, 0
1, 224643, Note_on_c, 1, 80, 127
1, 224643, Note_on_c, 1, 41, 127
1, 224819, Note_off_c, 1, 80, 0
1, 224819, Note_off_c, 1, 41, 0
1, 224823, Note_on_c, 1, 77, 127
1, 224823, Note_on_c, 1, 38, 127
1, 224999, Note_off_c, 1, 77, 0
1, 224999, Note_off_c, 1, 38, 0
1, 225003, Note_on_c, 1, 79, 127
1, 225003, Note_on_c, 1, 39, 127
1, 225179, Note_off_c, 1, 79, 0
1, 225179, Note_off_c, 1, 39, 0
1, 225184, Note_on_c, 1, 84, 127
1, 225184, Note_on_c, 1, 36, 127
1, 225360, Note_off_c, 1, 84, 0
1, 225360, Note_off_c, 1, 36, 0
1, 225364, Note_on_c, 1, 77, 127
1, 225364, Note_on_c, 1, 43, 127
1, 225548, Note_off_c, 1, 77, 0
1, 225553, Note_on_c, 1, 75, 127
1, 225731, Note_off_c, 1, 43, 0
1, 225737, Note_off_c, 1, 75, 0
1, 225745, Note_on_c, 1, 74, 127
1, 225745, Note_on_c, 1, 43, 127
1, 225945, Note_off_c, 1, 74, 0
1, 225956, Note_on_c, 1, 72, 127
1, 226203, Note_off_c, 1, 43, 0
1, 226207, Note_off_c, 1, 72, 0
1, 226221, Note_on_c, 1, 36, 127
1, 226221, Note_on_c, 1, 72, 127
1, 228121, Note_off_c, 1, 36, 0
1, 228121, Note_off_c, 1, 72, 0
1, 229107, Note_on_c, 1, 67, 127
1, 229107, Note_on_c, 1, 48, 127
1, 229283, Note_off_c, 1, 67, 0
1, 229286, Note_on_c, 1, 75, 127
1, 229461, Note_off_c, 1, 48, 0
1, 229462, Note_off_c, 1, 75, 0
1, 229464, Note_on_c, 1, 74, 127
1, 229464, Note_on_c, 1, 50, 127
1, 229640, Note_off_c, 1, 74, 0
1, 229642, Note_on_c, 1, 72, 127
1, 229818, Note_off_c, 1, 50, 0
1, 229818, Note_off_c, 1, 72, 0
1, 229820, Note_on_c, 1, 71, 127
1, 229820, Note_on_c, 1, 51, 127
1, 229996, Note_off_c, 1, 71, 0
1, 229998, Note_on_c, 1, 72, 127
1, 230163, Note_off_c, 1, 51, 0
1, 230163, Note_off_c, 1, 72, 0
1, 230177, Note_on_c, 1, 53, 127
1, 230177, Note_on_c, 1, 80, 127
1, 230353, Note_off_c, 1, 53, 0
1, 230355, Note_on_c, 1, 65, 127
1, 230531, Note_off_c, 1, 80, 0
1, 230531, Note_off_c, 1, 65, 0
1, 230533, Note_on_c, 1, 63, 127
1, 230533, Note_on_c, 1, 79, 127
1, 230709, Note_off_c, 1, 63, 0
1, 230711, Note_on_c, 1, 62, 127
1, 230887, Note_off_c, 1, 79, 0
1, 230887, Note_off_c, 1, 62, 0
1, 230889, Note_on_c, 1, 60, 127
1, 230889, Note_on_c, 1, 77, 127
1, 231065, Note_off_c, 1, 60, 0
1, 231068, Note_on_c, 1, 59, 127
1, 231232, Note_off_c, 1, 77, 0
1, 231233, Note_off_c, 1, 59, 0
1, 231246, Note_on_c, 1, 75, 127
1, 231246, Note_on_c, 1, 60, 127
1, 231422, Note_off_c, 1, 75, 0
1, 231424, Note_on_c, 1, 74, 127
1, 231600, Note_off_c, 1, 60, 0
1, 231600, Note_off_c, 1, 74, 0
1, 231602, Note_on_c, 1, 77, 127
1, 231602, Note_on_c, 1, 56, 127
1, 231778, Note_off_c, 1, 77, 0
1, 231780, Note_on_c, 1, 75, 127
1, 231956, Note_off_c, 1, 56, 0
1, 231956, Note_off_c, 1, 75, 0
1, 231959, Note_on_c, 1, 74, 127
1, 231959, Note_on_c, 1, 53, 127
1, 232135, Note_off_c, 1, 74, 0
1, 232137, Note_on_c, 1, 72, 127
1, 232302, Note_off_c, 1, 53, 0
1, 232302, Note_off_c, 1, 72, 0
1, 232315, Note_on_c, 1, 71, 127
1, 232315, Note_on_c, 1, 55, 127
1, 232491, Note_off_c, 1, 71, 0
1, 232493, Note_on_c, 1, 69, 127
1, 232669, Note_off_c, 1, 55, 0
1, 232669, Note_off_c, 1, 69, 0
1, 232671, Note_on_c, 1, 72, 127
1, 232671, Note_on_c, 1, 57, 127
1, 232847, Note_off_c, 1, 72, 0
1, 232850, Note_on_c, 1, 71, 127
1, 233025, Note_off_c, 1, 57, 0
1, 233026, Note_off_c, 1, 71, 0
1, 233028, Note_on_c, 1, 69, 127
1, 233028, Note_on_c, 1, 59, 127
1, 233204, Note_off_c, 1, 69, 0
1, 233206, Note_on_c, 1, 67, 127
1, 233371, Note_off_c, 1, 59, 0
1, 233371, Note_off_c, 1, 67, 0
1, 233384, Note_on_c, 1, 75, 127
1, 233384, Note_on_c, 1, 60, 127
1, 233560, Note_off_c, 1, 75, 0
1, 233562, Note_on_c, 1, 74, 127
1, 233738, Note_off_c, 1, 74, 0
1, 233741, Note_on_c, 1, 72, 127
1, 233903, Note_off_c, 1, 60, 0
1, 233917, Note_off_c, 1, 72, 0
1, 233919, Note_on_c, 1, 75, 127
1, 234095, Note_off_c, 1, 75, 0
1, 234097, Note_on_c, 1, 68, 127
1, 234097, Note_on_c, 1, 48, 127
1, 234273, Note_off_c, 1, 68, 0
1, 234275, Note_on_c, 1, 67, 127
1, 234440, Note_off_c, 1, 67, 0
1, 234451, Note_off_c, 1, 48, 0
1, 234453, Note_on_c, 1, 65, 127
1, 234453, Note_on_c, 1, 50, 127
1, 234629, Note_off_c, 1, 65, 0
1, 234632, Note_on_c, 1, 77, 127
1, 234808, Note_off_c, 1, 77, 0
1, 234810, Note_on_c, 1, 75, 127
1, 234972, Note_off_c, 1, 50, 0
1, 234986, Note_off_c, 1, 75, 0
1, 234988, Note_on_c, 1, 74, 127
1, 235164, Note_off_c, 1, 74, 0
1, 235166, Note_on_c, 1, 72, 127
1, 235166, Note_on_c, 1, 62, 127
1, 235342, Note_off_c, 1, 72, 0
1, 235344, Note_on_c, 1, 70, 127
1, 235509, Note_off_c, 1, 70, 0
1, 235520, Note_off_c, 1, 62, 0
1, 235523, Note_on_c, 1, 79, 127
1, 235523, Note_on_c, 1, 63, 127
1, 235868, Note_off_c, 1, 79, 0
1, 235879, Note_off_c, 1, 63, 0
1, 235881, Note_on_c, 1, 75, 127
1, 235881, Note_on_c, 1, 56, 127
1, 236226, Note_off_c, 1, 75, 0
1, 236237, Note_off_c, 1, 56, 0
1, 236240, Note_on_c, 1, 75, 127
1, 236240, Note_on_c, 1, 58, 127
1, 236328, Note_off_c, 1, 75, 0
1, 236330, Note_on_c, 1, 74, 127
1, 236418, Note_off_c, 1, 74, 0
1, 236420, Note_on_c, 1, 72, 127
1, 236508, Note_off_c, 1, 72, 0
1, 236587, Note_off_c, 1, 58, 0
1, 236601, Note_on_c, 1, 51, 127
1, 236601, Note_on_c, 1, 75, 127
1, 236957, Note_off_c, 1, 51, 0
1, 236959, Note_on_c, 1, 46, 127
1, 237309, Note_off_c, 1, 75, 0
1, 237315, Note_off_c, 1, 46, 0
1, 237318, Note_on_c, 1, 39, 127
1, 237663, Note_off_c, 1, 39, 0
1, 237676, Note_on_c, 1, 70, 127
1, 237676, Note_on_c, 1, 51, 127
1, 237852, Note_off_c, 1, 70, 0
1, 237855, Note_on_c, 1, 79, 127
1, 238030, Note_off_c, 1, 51, 0
1, 238031, Note_off_c, 1, 79, 0
1, 238033, Note_on_c, 1, 77, 127
1, 238033, Note_on_c, 1, 53, 127
1, 238209, Note_off_c, 1, 77, 0
1, 238211, Note_on_c, 1, 75, 127
1, 238387, Note_off_c, 1, 53, 0
1, 238387, Note_off_c, 1, 75, 0
1, 238389, Note_on_c, 1, 74, 127
1, 238389, Note_on_c, 1, 55, 127
1, 238565, Note_off_c, 1, 74, 0
1, 238567, Note_on_c, 1, 75, 127
1, 238732, Note_off_c, 1, 55, 0
1, 238732, Note_off_c, 1, 75, 0
1, 238746, Note_on_c, 1, 70, 127
1, 238746, Note_on_c, 1, 50, 127
1, 238922, Note_off_c, 1, 70, 0
1, 238924, Note_on_c, 1, 80, 127
1, 239100, Note_off_c, 1, 80, 0
1, 239102, Note_on_c, 1, 79, 127
1, 239278, Note_off_c, 1, 79, 0
1, 239280, Note_on_c, 1, 77, 127
1, 239452, Note_off_c, 1, 50, 0
1, 239458, Note_off_c, 1, 77, 0
1, 239461, Note_on_c, 1, 75, 127
1, 239637, Note_off_c, 1, 75, 0
1, 239639, Note_on_c, 1, 77, 127
1, 239804, Note_off_c, 1, 77, 0
1, 239817, Note_on_c, 1, 70, 127
1, 239817, Note_on_c, 1, 51, 127
1, 239993, Note_off_c, 1, 70, 0
1, 239995, Note_on_c, 1, 82, 127
1, 240171, Note_off_c, 1, 51, 0
1, 240171, Note_off_c, 1, 82, 0
1, 240173, Note_on_c, 1, 80, 127
1, 240173, Note_on_c, 1, 48, 127
1, 240349, Note_off_c, 1, 80, 0
1, 240352, Note_on_c, 1, 79, 127
1, 240527, Note_off_c, 1, 48, 0
1, 240528, Note_off_c, 1, 79, 0
1, 240530, Note_on_c, 1, 77, 127
1, 240530, Note_on_c, 1, 44, 127
1, 240706, Note_off_c, 1, 77, 0
1, 240708, Note_on_c, 1, 79, 127
1, 240873, Note_off_c, 1, 44, 0
1, 240873, Note_off_c, 1, 79, 0
1, 240886, Note_on_c, 1, 46, 127
1, 240886, Note_on_c, 1, 75, 127
1, 241062, Note_off_c, 1, 46, 0
1, 241062, Note_off_c, 1, 75, 0
1, 241064, Note_on_c, 1, 58, 127
1, 241064, Note_on_c, 1, 74, 127
1, 241240, Note_off_c, 1, 58, 0
1, 241240, Note_off_c, 1, 74, 0
1, 241243, Note_on_c, 1, 56, 127
1, 241243, Note_on_c, 1, 72, 127
1, 241419, Note_off_c, 1, 56, 0
1, 241419, Note_off_c, 1, 72, 0
1, 241421, Note_on_c, 1, 55, 127
1, 241421, Note_on_c, 1, 74, 127
1, 241597, Note_off_c, 1, 55, 0
1, 241597, Note_off_c, 1, 74, 0
1, 241599, Note_on_c, 1, 53, 127
1, 241599, Note_on_c, 1, 70, 127
1, 241775, Note_off_c, 1, 53, 0
1, 241777, Note_on_c, 1, 55, 127
1, 241915, Note_off_c, 1, 70, 0
1, 241955, Note_off_c, 1, 55, 0
1, 241958, Note_on_c, 1, 79, 127
1, 241958, Note_on_c, 1, 52, 127
1, 242134, Note_off_c, 1, 79, 0
1, 242136, Note_on_c, 1, 77, 127
1, 242312, Note_off_c, 1, 77, 0
1, 242314, Note_on_c, 1, 76, 127
1, 242490, Note_off_c, 1, 76, 0
1, 242664, Note_off_c, 1, 52, 0
1, 242673, Note_on_c, 1, 73, 127
1, 242849, Note_off_c, 1, 73, 0
1, 242851, Note_on_c, 1, 72, 127
1, 243016, Note_off_c, 1, 72, 0
1, 243029, Note_on_c, 1, 70, 127
1, 243029, Note_on_c, 1, 48, 127
1, 243205, Note_off_c, 1, 70, 0
1, 243207, Note_on_c, 1, 79, 127
1, 243383, Note_off_c, 1, 48, 0
1, 243383, Note_off_c, 1, 79, 0
1, 243385, Note_on_c, 1, 77, 127
1, 243385, Note_on_c, 1, 50, 127
1, 243561, Note_off_c, 1, 77, 0
1, 243564, Note_on_c, 1, 76, 127
1, 243739, Note_off_c, 1, 50, 0
1, 243740, Note_off_c, 1, 76, 0
1, 243742, Note_on_c, 1, 74, 127
1, 243742, Note_on_c, 1, 52, 127
1, 243918, Note_off_c, 1, 74, 0
1, 243920, Note_on_c, 1, 72, 127
1, 244085, Note_off_c, 1, 52, 0
1, 244085, Note_off_c, 1, 72, 0
1, 244098, Note_on_c, 1, 77, 127
1, 244098, Note_on_c, 1, 53, 127
1, 244186, Note_off_c, 1, 77, 0
1, 244188, Note_on_c, 1, 79, 127
1, 244276, Note_off_c, 1, 79, 0
1, 244279, Note_on_c, 1, 80, 127
1, 244454, Note_off_c, 1, 53, 0
1, 244455, Note_off_c, 1, 80, 0
1, 244457, Note_on_c, 1, 79, 127
1, 244457, Note_on_c, 1, 60, 127
1, 244633, Note_off_c, 1, 79, 0
1, 244635, Note_on_c, 1, 77, 127
1, 244811, Note_off_c, 1, 60, 0
1, 244811, Note_off_c, 1, 77, 0
1, 244813, Note_on_c, 1, 79, 127
1, 244813, Note_on_c, 1, 48, 127
1, 244989, Note_off_c, 1, 79, 0
1, 244991, Note_on_c, 1, 76, 127
1, 245156, Note_off_c, 1, 48, 0
1, 245156, Note_off_c, 1, 76, 0
1, 245170, Note_on_c, 1, 53, 127
1, 245170, Note_on_c, 1, 77, 127
1, 245346, Note_off_c, 1, 53, 0
1, 245348, Note_on_c, 1, 61, 127
1, 245524, Note_off_c, 1, 61, 0
1, 245526, Note_on_c, 1, 60, 127
1, 245689, Note_off_c, 1, 77, 0
1, 245702, Note_off_c, 1, 60, 0
1, 245704, Note_on_c, 1, 58, 127
1, 245880, Note_off_c, 1, 58, 0
1, 245882, Note_on_c, 1, 56, 127
1, 246058, Note_off_c, 1, 56, 0
1, 246061, Note_on_c, 1, 60, 127
1, 246226, Note_off_c, 1, 60, 0
1, 246239, Note_on_c, 1, 80, 127
1, 246239, Note_on_c, 1, 53, 127
1, 246415, Note_off_c, 1, 80, 0
1, 246417, Note_on_c, 1, 79, 127
1, 246593, Note_off_c, 1, 53, 0
1, 246593, Note_off_c, 1, 79, 0
1, 246595, Note_on_c, 1, 77, 127
1, 246595, Note_on_c, 1, 56, 127
1, 246771, Note_off_c, 1, 77, 0
1, 246773, Note_on_c, 1, 80, 127
1, 246949, Note_off_c, 1, 56, 0
1, 246949, Note_off_c, 1, 80, 0
1, 246952, Note_on_c, 1, 74, 127
1, 246952, Note_on_c, 1, 53, 127
1, 247128, Note_off_c, 1, 74, 0
1, 247130, Note_on_c, 1, 72, 127
1, 247295, Note_off_c, 1, 53, 0
1, 247295, Note_off_c, 1, 72, 0
1, 247308, Note_on_c, 1, 70, 127
1, 247308, Note_on_c, 1, 50, 127
1, 247484, Note_off_c, 1, 70, 0
1, 247486, Note_on_c, 1, 74, 127
1, 247662, Note_off_c, 1, 50, 0
1, 247662, Note_off_c, 1, 74, 0
1, 247664, Note_on_c, 1, 77, 127
1, 247664, Note_on_c, 1, 46, 127
1, 247840, Note_off_c, 1, 77, 0
1, 247843, Note_on_c, 1, 80, 127
1, 248018, Note_off_c, 1, 46, 0
1, 248019, Note_off_c, 1, 80, 0
1, 248021, Note_on_c, 1, 79, 127
1, 248021, Note_on_c, 1, 50, 127
1, 248197, Note_off_c, 1, 79, 0
1, 248199, Note_on_c, 1, 77, 127
1, 248364, Note_off_c, 1, 50, 0
1, 248364, Note_off_c, 1, 77, 0
1, 248377, Note_on_c, 1, 79, 127
1, 248377, Note_on_c, 1, 51, 127
1, 248553, Note_off_c, 1, 79, 0
1, 248555, Note_on_c, 1, 77, 127
1, 248731, Note_off_c, 1, 51, 0
1, 248731, Note_off_c, 1, 77, 0
1, 248734, Note_on_c, 1, 75, 127
1, 248734, Note_on_c, 1, 55, 127
1, 248910, Note_off_c, 1, 75, 0
1, 248912, Note_on_c, 1, 79, 127
1, 249088, Note_off_c, 1, 55, 0
1, 249088, Note_off_c, 1, 79, 0
1, 249090, Note_on_c, 1, 72, 127
1, 249090, Note_on_c, 1, 51, 127
1, 249266, Note_off_c, 1, 72, 0
1, 249268, Note_on_c, 1, 70, 127
1, 249433, Note_off_c, 1, 51, 0
1, 249433, Note_off_c, 1, 70, 0
1, 249446, Note_on_c, 1, 68, 127
1, 249446, Note_on_c, 1, 48, 127
1, 249622, Note_off_c, 1, 68, 0
1, 249625, Note_on_c, 1, 72, 127
1, 249800, Note_off_c, 1, 48, 0
1, 249801, Note_off_c, 1, 72, 0
1, 249803, Note_on_c, 1, 75, 127
1, 249803, Note_on_c, 1, 44, 127
1, 249979, Note_off_c, 1, 75, 0
1, 249981, Note_on_c, 1, 79, 127
1, 250157, Note_off_c, 1, 44, 0
1, 250157, Note_off_c, 1, 79, 0
1, 250159, Note_on_c, 1, 77, 127
1, 250159, Note_on_c, 1, 48, 127
1, 250335, Note_off_c, 1, 77, 0
1, 250337, Note_on_c, 1, 75, 127
1, 250502, Note_off_c, 1, 48, 0
1, 250502, Note_off_c, 1, 75, 0
1, 250516, Note_on_c, 1, 77, 127
1, 250516, Note_on_c, 1, 50, 127
1, 250692, Note_off_c, 1, 77, 0
1, 250694, Note_on_c, 1, 75, 127
1, 250870, Note_off_c, 1, 50, 0
1, 250870, Note_off_c, 1, 75, 0
1, 250872, Note_on_c, 1, 74, 127
1, 250872, Note_on_c, 1, 53, 127
1, 251048, Note_off_c, 1, 74, 0
1, 251050, Note_on_c, 1, 77, 127
1, 251226, Note_off_c, 1, 53, 0
1, 251226, Note_off_c, 1, 77, 0
1, 251228, Note_on_c, 1, 71, 127
1, 251228, Note_on_c, 1, 50, 127
1, 251404, Note_off_c, 1, 71, 0
1, 251407, Note_on_c, 1, 69, 127
1, 251571, Note_off_c, 1, 50, 0
1, 251572, Note_off_c, 1, 69, 0
1, 251585, Note_on_c, 1, 67, 127
1, 251585, Note_on_c, 1, 47, 127
1, 251761, Note_off_c, 1, 67, 0
1, 251763, Note_on_c, 1, 71, 127
1, 251939, Note_off_c, 1, 47, 0
1, 251939, Note_off_c, 1, 71, 0
1, 251941, Note_on_c, 1, 74, 127
1, 251941, Note_on_c, 1, 43, 127
1, 252117, Note_off_c, 1, 74, 0
1, 252119, Note_on_c, 1, 77, 127
1, 252295, Note_off_c, 1, 43, 0
1, 252295, Note_off_c, 1, 77, 0
1, 252298, Note_on_c, 1, 75, 127
1, 252298, Note_on_c, 1, 47, 127
1, 252474, Note_off_c, 1, 75, 0
1, 252476, Note_on_c, 1, 74, 127
1, 252641, Note_off_c, 1, 47, 0
1, 252641, Note_off_c, 1, 74, 0
1, 252654, Note_on_c, 1, 75, 127
1, 252654, Note_on_c, 1, 48, 127
1, 252830, Note_off_c, 1, 75, 0
1, 252832, Note_on_c, 1, 72, 127
1, 253008, Note_off_c, 1, 48, 0
1, 253008, Note_off_c, 1, 72, 0
1, 253010, Note_on_c, 1, 65, 127
1, 253010, Note_on_c, 1, 56, 127
1, 253186, Note_off_c, 1, 65, 0
1, 253189, Note_on_c, 1, 75, 127
1, 253364, Note_off_c, 1, 56, 0
1, 253365, Note_off_c, 1, 75, 0
1, 253367, Note_on_c, 1, 74, 127
1, 253367, Note_on_c, 1, 53, 127
1, 253543, Note_off_c, 1, 74, 0
1, 253545, Note_on_c, 1, 72, 127
1, 253710, Note_off_c, 1, 53, 0
1, 253710, Note_off_c, 1, 72, 0
1, 253723, Note_on_c, 1, 71, 127
1, 253723, Note_on_c, 1, 55, 127
1, 253899, Note_off_c, 1, 71, 0
1, 253901, Note_on_c, 1, 69, 127
1, 254077, Note_off_c, 1, 69, 0
1, 254080, Note_on_c, 1, 72, 127
1, 254080, Note_on_c, 1, 43, 127
1, 254256, Note_off_c, 1, 72, 0
1, 254429, Note_off_c, 1, 55, 0
1, 254434, Note_off_c, 1, 43, 0
1, 254438, Note_on_c, 1, 69, 127
1, 254614, Note_off_c, 1, 69, 0
1, 254616, Note_on_c, 1, 67, 127
1, 254781, Note_off_c, 1, 67, 0
1, 254795, Note_on_c, 1, 76, 127
1, 254795, Note_on_c, 1, 50, 127
1, 254889, Note_off_c, 1, 76, 0
1, 254891, Note_on_c, 1, 77, 127
1, 254971, Note_off_c, 1, 50, 0
1, 254973, Note_on_c, 1, 56, 127
1, 254985, Note_off_c, 1, 77, 0
1, 254988, Note_on_c, 1, 79, 127
1, 255082, Note_off_c, 1, 79, 0
1, 255151, Note_off_c, 1, 56, 0
1, 255153, Note_on_c, 1, 55, 127
1, 255331, Note_off_c, 1, 55, 0
1, 255334, Note_on_c, 1, 53, 127
1, 255510, Note_off_c, 1, 53, 0
1, 255512, Note_on_c, 1, 52, 127
1, 255690, Note_off_c, 1, 52, 0
1, 255870, Note_on_c, 1, 77, 127
1, 255873, Note_on_c, 1, 48, 127
1, 255964, Note_off_c, 1, 77, 0
1, 255967, Note_on_c, 1, 79, 127
1, 256049, Note_off_c, 1, 48, 0
1, 256051, Note_on_c, 1, 56, 127
1, 256061, Note_off_c, 1, 79, 0
1, 256229, Note_off_c, 1, 56, 0
1, 256231, Note_on_c, 1, 55, 127
1, 256409, Note_off_c, 1, 55, 0
1, 256412, Note_on_c, 1, 53, 127
1, 256588, Note_off_c, 1, 53, 0
1, 256590, Note_on_c, 1, 52, 127
1, 256750, Note_on_c, 1, 76, 127
1, 256768, Note_off_c, 1, 52, 0
1, 256846, Note_off_c, 1, 76, 0
1, 256951, Note_on_c, 1, 47, 127
1, 257131, Note_on_c, 1, 80, 127
1, 257307, Note_off_c, 1, 47, 0
1, 257307, Note_off_c, 1, 80, 0
1, 257309, Note_on_c, 1, 79, 127
1, 257309, Note_on_c, 1, 48, 127
1, 257485, Note_off_c, 1, 79, 0
1, 257487, Note_on_c, 1, 77, 127
1, 257663, Note_off_c, 1, 48, 0
1, 257663, Note_off_c, 1, 77, 0
1, 257666, Note_on_c, 1, 76, 127
1, 257666, Note_on_c, 1, 50, 127
1, 257842, Note_off_c, 1, 76, 0
1, 257844, Note_on_c, 1, 77, 127
1, 258009, Note_off_c, 1, 50, 0
1, 258009, Note_off_c, 1, 77, 0
1, 258022, Note_on_c, 1, 83, 127
1, 258022, Note_on_c, 1, 43, 127
1, 258198, Note_off_c, 1, 83, 0
1, 258200, Note_on_c, 1, 80, 127
1, 258376, Note_off_c, 1, 43, 0
1, 258376, Note_off_c, 1, 80, 0
1, 258378, Note_on_c, 1, 79, 127
1, 258378, Note_on_c, 1, 45, 127
1, 258554, Note_off_c, 1, 79, 0
1, 258557, Note_on_c, 1, 77, 127
1, 258732, Note_off_c, 1, 45, 0
1, 258733, Note_off_c, 1, 77, 0
1, 258735, Note_on_c, 1, 75, 127
1, 258735, Note_on_c, 1, 47, 127
1, 258911, Note_off_c, 1, 75, 0
1, 258913, Note_on_c, 1, 74, 127
1, 259078, Note_off_c, 1, 47, 0
1, 259078, Note_off_c, 1, 74, 0
1, 259091, Note_on_c, 1, 75, 127
1, 259091, Note_on_c, 1, 48, 127
1, 259271, Note_off_c, 1, 75, 0
1, 259274, Note_on_c, 1, 74, 127
1, 259454, Note_off_c, 1, 74, 0
1, 259459, Note_on_c, 1, 72, 127
1, 259639, Note_off_c, 1, 72, 0
1, 259819, Note_off_c, 1, 48, 0
1, 259828, Note_on_c, 1, 68, 127
1, 260008, Note_off_c, 1, 68, 0
1, 260013, Note_on_c, 1, 67, 127
1, 260182, Note_off_c, 1, 67, 0
1, 260198, Note_on_c, 1, 65, 127
1, 260198, Note_on_c, 1, 50, 127
1, 260382, Note_off_c, 1, 65, 0
1, 260387, Note_on_c, 1, 75, 127
1, 260571, Note_off_c, 1, 75, 0
1, 260578, Note_on_c, 1, 74, 127
1, 260762, Note_off_c, 1, 74, 0
1, 260770, Note_on_c, 1, 72, 127
1, 260950, Note_off_c, 1, 50, 0
1, 260954, Note_off_c, 1, 72, 0
1, 260961, Note_on_c, 1, 71, 127
1, 261145, Note_off_c, 1, 71, 0
1, 261153, Note_on_c, 1, 80, 127
1, 261326, Note_off_c, 1, 80, 0
1, 261344, Note_on_c, 1, 51, 127
1, 261344, Note_on_c, 1, 79, 127
1, 261740, Note_off_c, 1, 51, 0
1, 261740, Note_off_c, 1, 79, 0
1, 261742, Note_on_c, 1, 77, 127
1, 261742, Note_on_c, 1, 53, 127
1, 261935, Note_off_c, 1, 77, 0
1, 261942, Note_on_c, 1, 75, 127
1, 262135, Note_off_c, 1, 75, 0
1, 262138, Note_off_c, 1, 53, 0
1, 262145, Note_on_c, 1, 74, 127
1, 262145, Note_on_c, 1, 55, 127
1, 262338, Note_off_c, 1, 74, 0
1, 262345, Note_on_c, 1, 75, 127
1, 262538, Note_off_c, 1, 75, 0
1, 262582, Note_on_c, 1, 72, 127
1, 262582, Note_on_c, 1, 48, 127
1, 262588, Note_off_c, 1, 55, 0
1, 264582, Note_off_c, 1, 72, 0
1, 265082, Note_off_c, 1, 48, 0
1, 265734, Note_on_c, 1, 72, 127
1, 265808, Note_off_c, 1, 72, 0
1, 265811, Note_on_c, 1, 67, 127
1, 266039, Note_off_c, 1, 67, 0
1, 266042, Note_on_c, 1, 72, 127
1, 266424, Note_off_c, 1, 72, 0
1, 266427, Note_on_c, 1, 74, 127
1, 266427, Note_on_c, 1, 55, 127
1, 266501, Note_off_c, 1, 74, 0
1, 266501, Note_off_c, 1, 55, 0
1, 266504, Note_on_c, 1, 75, 127
1, 266504, Note_on_c, 1, 48, 127
1, 266732, Note_off_c, 1, 75, 0
1, 266732, Note_off_c, 1, 48, 0
1, 266735, Note_on_c, 1, 74, 127
1, 266735, Note_on_c, 1, 53, 127
1, 267117, Note_off_c, 1, 74, 0
1, 267117, Note_off_c, 1, 53, 0
1, 267120, Note_on_c, 1, 75, 127
1, 267120, Note_on_c, 1, 55, 127
1, 267194, Note_off_c, 1, 75, 0
1, 267194, Note_off_c, 1, 55, 0
1, 267197, Note_on_c, 1, 72, 127
1, 267197, Note_on_c, 1, 56, 127
1, 267425, Note_off_c, 1, 72, 0
1, 267425, Note_off_c, 1, 56, 0
1, 267428, Note_on_c, 1, 71, 127
1, 267428, Note_on_c, 1, 55, 127
1, 267810, Note_off_c, 1, 71, 0
1, 267810, Note_off_c, 1, 55, 0
1, 267813, Note_on_c, 1, 72, 127
1, 267813, Note_on_c, 1, 56, 127
1, 267887, Note_off_c, 1, 72, 0
1, 267887, Note_off_c, 1, 56, 0
1, 267890, Note_on_c, 1, 74, 127
1, 267890, Note_on_c, 1, 53, 127
1, 268118, Note_off_c, 1, 74, 0
1, 268118, Note_off_c, 1, 53, 0
1, 268121, Note_on_c, 1, 67, 127
1, 268121, Note_on_c, 1, 51, 127
1, 268503, Note_off_c, 1, 67, 0
1, 268503, Note_off_c, 1, 51, 0
1, 268506, Note_on_c, 1, 79, 127
1, 268506, Note_on_c, 1, 53, 127
1, 268580, Note_off_c, 1, 79, 0
1, 268580, Note_off_c, 1, 53, 0
1, 268583, Note_on_c, 1, 72, 127
1, 268583, Note_on_c, 1, 55, 127
1, 268811, Note_off_c, 1, 72, 0
1, 268811, Note_off_c, 1, 55, 0
1, 268814, Note_on_c, 1, 77, 127
1, 268814, Note_on_c, 1, 56, 127
1, 269196, Note_off_c, 1, 77, 0
1, 269196, Note_off_c, 1, 56, 0
1, 269199, Note_on_c, 1, 79, 127
1, 269199, Note_on_c, 1, 55, 127
1, 269273, Note_off_c, 1, 79, 0
1, 269273, Note_off_c, 1, 55, 0
1, 269276, Note_on_c, 1, 80, 127
1, 269276, Note_on_c, 1, 53, 127
1, 269504, Note_off_c, 1, 80, 0
1, 269504, Note_off_c, 1, 53, 0
1, 269507, Note_on_c, 1, 74, 127
1, 269507, Note_on_c, 1, 55, 127
1, 269889, Note_off_c, 1, 74, 0
1, 269892, Note_on_c, 1, 79, 127
1, 269966, Note_off_c, 1, 55, 0
1, 269966, Note_off_c, 1, 79, 0
1, 269969, Note_on_c, 1, 77, 127
1, 269969, Note_on_c, 1, 43, 127
1, 270197, Note_off_c, 1, 77, 0
1, 270197, Note_off_c, 1, 43, 0
1, 270200, Note_on_c, 1, 77, 127
1, 270200, Note_on_c, 1, 48, 127
1, 270274, Note_off_c, 1, 77, 0
1, 270275, Note_on_c, 1, 75, 127
1, 270349, Note_off_c, 1, 75, 0
1, 270545, Note_on_c, 1, 74, 127
1, 270631, Note_off_c, 1, 48, 0
1, 270657, Note_off_c, 1, 74, 0
1, 270660, Note_on_c, 1, 72, 127
1, 270660, Note_on_c, 1, 60, 127
1, 270888, Note_off_c, 1, 72, 0
1, 270888, Note_off_c, 1, 60, 0
1, 270891, Note_on_c, 1, 59, 127
1, 270891, Note_on_c, 1, 79, 127
1, 271273, Note_off_c, 1, 59, 0
1, 271276, Note_on_c, 1, 57, 127
1, 271350, Note_off_c, 1, 57, 0
1, 271353, Note_on_c, 1, 55, 127
1, 271581, Note_off_c, 1, 55, 0
1, 271584, Note_on_c, 1, 60, 127
1, 271865, Note_off_c, 1, 79, 0
1, 272043, Note_off_c, 1, 60, 0
1, 272046, Note_on_c, 1, 72, 127
1, 272046, Note_on_c, 1, 58, 127
1, 272274, Note_off_c, 1, 72, 0
1, 272274, Note_off_c, 1, 58, 0
1, 272277, Note_on_c, 1, 77, 127
1, 272277, Note_on_c, 1, 56, 127
1, 272659, Note_off_c, 1, 77, 0
1, 272659, Note_off_c, 1, 56, 0
1, 272662, Note_on_c, 1, 79, 127
1, 272662, Note_on_c, 1, 60, 127
1, 272736, Note_off_c, 1, 79, 0
1, 272736, Note_off_c, 1, 60, 0
1, 272739, Note_on_c, 1, 80, 127
1, 272739, Note_on_c, 1, 53, 127
1, 272967, Note_off_c, 1, 80, 0
1, 272967, Note_off_c, 1, 53, 0
1, 272970, Note_on_c, 1, 75, 127
1, 272970, Note_on_c, 1, 58, 127
1, 273044, Note_off_c, 1, 75, 0
1, 273044, Note_on_c, 1, 74, 127
1, 273118, Note_off_c, 1, 74, 0
1, 273313, Note_off_c, 1, 58, 0
1, 273315, Note_on_c, 1, 72, 127
1, 273315, Note_on_c, 1, 60, 127
1, 273429, Note_off_c, 1, 72, 0
1, 273429, Note_off_c, 1, 60, 0
1, 273432, Note_on_c, 1, 70, 127
1, 273432, Note_on_c, 1, 62, 127
1, 273660, Note_off_c, 1, 70, 0
1, 273660, Note_off_c, 1, 62, 0
1, 273663, Note_on_c, 1, 57, 127
1, 273663, Note_on_c, 1, 77, 127
1, 274045, Note_off_c, 1, 57, 0
1, 274048, Note_on_c, 1, 55, 127
1, 274122, Note_off_c, 1, 55, 0
1, 274125, Note_on_c, 1, 53, 127
1, 274353, Note_off_c, 1, 53, 0
1, 274356, Note_on_c, 1, 58, 127
1, 274637, Note_off_c, 1, 77, 0
1, 274789, Note_off_c, 1, 58, 0
1, 274818, Note_on_c, 1, 70, 127
1, 274818, Note_on_c, 1, 56, 127
1, 275046, Note_off_c, 1, 70, 0
1, 275046, Note_off_c, 1, 56, 0
1, 275049, Note_on_c, 1, 75, 127
1, 275049, Note_on_c, 1, 55, 127
1, 275431, Note_off_c, 1, 75, 0
1, 275431, Note_off_c, 1, 55, 0
1, 275434, Note_on_c, 1, 77, 127
1, 275434, Note_on_c, 1, 56, 127
1, 275508, Note_off_c, 1, 77, 0
1, 275508, Note_off_c, 1, 56, 0
1, 275511, Note_on_c, 1, 79, 127
1, 275511, Note_on_c, 1, 51, 127
1, 275739, Note_off_c, 1, 79, 0
1, 275739, Note_off_c, 1, 51, 0
1, 275742, Note_on_c, 1, 72, 127
1, 275742, Note_on_c, 1, 56, 127
1, 276124, Note_off_c, 1, 72, 0
1, 276124, Note_off_c, 1, 56, 0
1, 276127, Note_on_c, 1, 74, 127
1, 276127, Note_on_c, 1, 58, 127
1, 276201, Note_off_c, 1, 74, 0
1, 276201, Note_off_c, 1, 58, 0
1, 276204, Note_on_c, 1, 75, 127
1, 276204, Note_on_c, 1, 60, 127
1, 276432, Note_off_c, 1, 75, 0
1, 276432, Note_off_c, 1, 60, 0
1, 276435, Note_on_c, 1, 53, 127
1, 276435, Note_on_c, 1, 68, 127
1, 276817, Note_off_c, 1, 53, 0
1, 276820, Note_on_c, 1, 55, 127
1, 276894, Note_off_c, 1, 55, 0
1, 276897, Note_on_c, 1, 56, 127
1, 277125, Note_off_c, 1, 56, 0
1, 277128, Note_on_c, 1, 50, 127
1, 277409, Note_off_c, 1, 68, 0
1, 277590, Note_on_c, 1, 63, 127
1, 277818, Note_off_c, 1, 63, 0
1, 277821, Note_on_c, 1, 65, 127
1, 278175, Note_off_c, 1, 50, 0
1, 278190, Note_off_c, 1, 65, 0
1, 278206, Note_on_c, 1, 67, 127
1, 278206, Note_on_c, 1, 51, 127
1, 278280, Note_off_c, 1, 67, 0
1, 278280, Note_off_c, 1, 51, 0
1, 278283, Note_on_c, 1, 68, 127
1, 278283, Note_on_c, 1, 53, 127
1, 278511, Note_off_c, 1, 68, 0
1, 278511, Note_off_c, 1, 53, 0
1, 278514, Note_on_c, 1, 63, 127
1, 278514, Note_on_c, 1, 46, 127
1, 278588, Note_off_c, 1, 63, 0
1, 278588, Note_on_c, 1, 62, 127
1, 278662, Note_off_c, 1, 62, 0
1, 278857, Note_off_c, 1, 46, 0
1, 278859, Note_on_c, 1, 60, 127
1, 278859, Note_on_c, 1, 50, 127
1, 278973, Note_off_c, 1, 60, 0
1, 278973, Note_off_c, 1, 50, 0
1, 278976, Note_on_c, 1, 58, 127
1, 278976, Note_on_c, 1, 53, 127
1, 279204, Note_off_c, 1, 58, 0
1, 279204, Note_off_c, 1, 53, 0
1, 279207, Note_on_c, 1, 56, 127
1, 279207, Note_on_c, 1, 70, 127
1, 279589, Note_off_c, 1, 56, 0
1, 279592, Note_on_c, 1, 55, 127
1, 279666, Note_off_c, 1, 55, 0
1, 279669, Note_on_c, 1, 53, 127
1, 279897, Note_off_c, 1, 53, 0
1, 280181, Note_off_c, 1, 70, 0
1, 280285, Note_on_c, 1, 75, 127
1, 280285, Note_on_c, 1, 51, 127
1, 280359, Note_off_c, 1, 75, 0
1, 280359, Note_off_c, 1, 51, 0
1, 280362, Note_on_c, 1, 70, 127
1, 280362, Note_on_c, 1, 55, 127
1, 280590, Note_off_c, 1, 70, 0
1, 280590, Note_off_c, 1, 55, 0
1, 280593, Note_on_c, 1, 67, 127
1, 280593, Note_on_c, 1, 58, 127
1, 280975, Note_off_c, 1, 67, 0
1, 280978, Note_on_c, 1, 68, 127
1, 281052, Note_off_c, 1, 58, 0
1, 281052, Note_off_c, 1, 68, 0
1, 281055, Note_on_c, 1, 65, 127
1, 281055, Note_on_c, 1, 46, 127
1, 281283, Note_off_c, 1, 65, 0
1, 281283, Note_off_c, 1, 46, 0
1, 281286, Note_on_c, 1, 63, 127
1, 281286, Note_on_c, 1, 51, 127
1, 281723, Note_off_c, 1, 63, 0
1, 281748, Note_on_c, 1, 67, 127
1, 281976, Note_off_c, 1, 67, 0
1, 281979, Note_on_c, 1, 72, 127
1, 282053, Note_off_c, 1, 72, 0
1, 282053, Note_on_c, 1, 71, 127
1, 282127, Note_off_c, 1, 71, 0
1, 282150, Note_off_c, 1, 51, 0
1, 282361, Note_on_c, 1, 55, 127
1, 282435, Note_off_c, 1, 55, 0
1, 282438, Note_on_c, 1, 48, 127
1, 282666, Note_off_c, 1, 48, 0
1, 282669, Note_on_c, 1, 54, 127
1, 283051, Note_off_c, 1, 54, 0
1, 283054, Note_on_c, 1, 69, 127
1, 283054, Note_on_c, 1, 55, 127
1, 283128, Note_off_c, 1, 69, 0
1, 283128, Note_off_c, 1, 55, 0
1, 283131, Note_on_c, 1, 72, 127
1, 283131, Note_on_c, 1, 57, 127
1, 283359, Note_off_c, 1, 72, 0
1, 283359, Note_off_c, 1, 57, 0
1, 283362, Note_on_c, 1, 75, 127
1, 283362, Note_on_c, 1, 48, 127
1, 283436, Note_off_c, 1, 75, 0
1, 283437, Note_on_c, 1, 74, 127
1, 283511, Note_off_c, 1, 74, 0
1, 283742, Note_off_c, 1, 48, 0
1, 283745, Note_on_c, 1, 51, 127
1, 283819, Note_off_c, 1, 51, 0
1, 283822, Note_on_c, 1, 43, 127
1, 284050, Note_off_c, 1, 43, 0
1, 284053, Note_on_c, 1, 45, 127
1, 284435, Note_off_c, 1, 45, 0
1, 284438, Note_on_c, 1, 72, 127
1, 284438, Note_on_c, 1, 46, 127
1, 284512, Note_off_c, 1, 72, 0
1, 284512, Note_off_c, 1, 46, 0
1, 284515, Note_on_c, 1, 75, 127
1, 284515, Note_on_c, 1, 48, 127
1, 284743, Note_off_c, 1, 75, 0
1, 284743, Note_off_c, 1, 48, 0
1, 284746, Note_on_c, 1, 78, 127
1, 284746, Note_on_c, 1, 38, 127
1, 285128, Note_off_c, 1, 78, 0
1, 285131, Note_on_c, 1, 81, 127
1, 285205, Note_off_c, 1, 38, 0
1, 285205, Note_off_c, 1, 81, 0
1, 285208, Note_on_c, 1, 74, 127
1, 285208, Note_on_c, 1, 48, 127
1, 285436, Note_off_c, 1, 74, 0
1, 285436, Note_off_c, 1, 48, 0
1, 285439, Note_on_c, 1, 79, 127
1, 285439, Note_on_c, 1, 46, 127
1, 285821, Note_off_c, 1, 79, 0
1, 285821, Note_off_c, 1, 46, 0
1, 285824, Note_on_c, 1, 81, 127
1, 285824, Note_on_c, 1, 45, 127
1, 285898, Note_off_c, 1, 81, 0
1, 285898, Note_off_c, 1, 45, 0
1, 285901, Note_on_c, 1, 82, 127
1, 285901, Note_on_c, 1, 43, 127
1, 286129, Note_off_c, 1, 82, 0
1, 286129, Note_off_c, 1, 43, 0
1, 286132, Note_on_c, 1, 74, 127
1, 286132, Note_on_c, 1, 50, 127
1, 286514, Note_off_c, 1, 74, 0
1, 286517, Note_on_c, 1, 79, 127
1, 286591, Note_off_c, 1, 50, 0
1, 286591, Note_off_c, 1, 79, 0
1, 286594, Note_on_c, 1, 78, 127
1, 286594, Note_on_c, 1, 38, 127
1, 286822, Note_off_c, 1, 78, 0
1, 286822, Note_off_c, 1, 38, 0
1, 286825, Note_on_c, 1, 43, 127
1, 286825, Note_on_c, 1, 79, 127
1, 287207, Note_off_c, 1, 43, 0
1, 287210, Note_on_c, 1, 47, 127
1, 287284, Note_off_c, 1, 47, 0
1, 287287, Note_on_c, 1, 50, 127
1, 287511, Note_off_c, 1, 79, 0
1, 287515, Note_off_c, 1, 50, 0
1, 287518, Note_on_c, 1, 55, 127
1, 287903, Note_on_c, 1, 67, 127
1, 287977, Note_off_c, 1, 67, 0
1, 287980, Note_on_c, 1, 74, 127
1, 288204, Note_off_c, 1, 55, 0
1, 288208, Note_off_c, 1, 74, 0
1, 288211, Note_on_c, 1, 71, 127
1, 288593, Note_off_c, 1, 71, 0
1, 288596, Note_on_c, 1, 69, 127
1, 288596, Note_on_c, 1, 55, 127
1, 288670, Note_off_c, 1, 69, 0
1, 288670, Note_off_c, 1, 55, 0
1, 288673, Note_on_c, 1, 67, 127
1, 288673, Note_on_c, 1, 62, 127
1, 288901, Note_off_c, 1, 67, 0
1, 288901, Note_off_c, 1, 62, 0
1, 288904, Note_on_c, 1, 59, 127
1, 288904, Note_on_c, 1, 77, 127
1, 289286, Note_off_c, 1, 59, 0
1, 289289, Note_on_c, 1, 57, 127
1, 289363, Note_off_c, 1, 57, 0
1, 289366, Note_on_c, 1, 55, 127
1, 289594, Note_off_c, 1, 55, 0
1, 289597, Note_on_c, 1, 60, 127
1, 289878, Note_off_c, 1, 77, 0
1, 289982, Note_on_c, 1, 79, 127
1, 290056, Note_off_c, 1, 79, 0
1, 290059, Note_on_c, 1, 74, 127
1, 290287, Note_off_c, 1, 74, 0
1, 290290, Note_on_c, 1, 75, 127
1, 290646, Note_off_c, 1, 60, 0
1, 290672, Note_off_c, 1, 75, 0
1, 290675, Note_on_c, 1, 79, 127
1, 290675, Note_on_c, 1, 48, 127
1, 290749, Note_off_c, 1, 79, 0
1, 290749, Note_off_c, 1, 48, 0
1, 290752, Note_on_c, 1, 82, 127
1, 290752, Note_on_c, 1, 55, 127
1, 290980, Note_off_c, 1, 82, 0
1, 290980, Note_off_c, 1, 55, 0
1, 290983, Note_on_c, 1, 73, 127
1, 290983, Note_on_c, 1, 52, 127
1, 291365, Note_off_c, 1, 73, 0
1, 291365, Note_off_c, 1, 52, 0
1, 291368, Note_on_c, 1, 72, 127
1, 291368, Note_on_c, 1, 50, 127
1, 291442, Note_off_c, 1, 72, 0
1, 291442, Note_off_c, 1, 50, 0
1, 291445, Note_on_c, 1, 79, 127
1, 291445, Note_on_c, 1, 48, 127
1, 291673, Note_off_c, 1, 79, 0
1, 291673, Note_off_c, 1, 48, 0
1, 291676, Note_on_c, 1, 76, 127
1, 291676, Note_on_c, 1, 58, 127
1, 292058, Note_off_c, 1, 76, 0
1, 292061, Note_on_c, 1, 74, 127
1, 292135, Note_off_c, 1, 74, 0
1, 292138, Note_on_c, 1, 72, 127
1, 292366, Note_off_c, 1, 72, 0
1, 292369, Note_on_c, 1, 77, 127
1, 292723, Note_off_c, 1, 58, 0
1, 292754, Note_on_c, 1, 60, 127
1, 292828, Note_off_c, 1, 60, 0
1, 292831, Note_on_c, 1, 55, 127
1, 293059, Note_off_c, 1, 55, 0
1, 293062, Note_on_c, 1, 56, 127
1, 293290, Note_off_c, 1, 56, 0
1, 293304, Note_on_c, 1, 53, 127
1, 293407, Note_off_c, 1, 77, 0
1, 293535, Note_off_c, 1, 53, 0
1, 293757, Note_on_c, 1, 74, 127
1, 294139, Note_off_c, 1, 74, 0
1, 294142, Note_on_c, 1, 72, 127
1, 294142, Note_on_c, 1, 53, 127
1, 294216, Note_off_c, 1, 72, 0
1, 294216, Note_off_c, 1, 53, 0
1, 294219, Note_on_c, 1, 70, 127
1, 294219, Note_on_c, 1, 58, 127
1, 294447, Note_off_c, 1, 70, 0
1, 294447, Note_off_c, 1, 58, 0
1, 294450, Note_on_c, 1, 55, 127
1, 294450, Note_on_c, 1, 75, 127
1, 294832, Note_off_c, 1, 55, 0
1, 294835, Note_on_c, 1, 53, 127
1, 294909, Note_off_c, 1, 53, 0
1, 294912, Note_on_c, 1, 51, 127
1, 295140, Note_off_c, 1, 51, 0
1, 295143, Note_on_c, 1, 56, 127
1, 295424, Note_off_c, 1, 75, 0
1, 295528, Note_on_c, 1, 72, 127
1, 295602, Note_off_c, 1, 72, 0
1, 295605, Note_on_c, 1, 76, 127
1, 295833, Note_off_c, 1, 76, 0
1, 295836, Note_on_c, 1, 77, 127
1, 296043, Note_off_c, 1, 56, 0
1, 296218, Note_off_c, 1, 77, 0
1, 296221, Note_on_c, 1, 74, 127
1, 296221, Note_on_c, 1, 53, 127
1, 296295, Note_off_c, 1, 74, 0
1, 296295, Note_off_c, 1, 53, 0
1, 296298, Note_on_c, 1, 79, 127
1, 296298, Note_on_c, 1, 59, 127
1, 296526, Note_off_c, 1, 79, 0
1, 296526, Note_off_c, 1, 59, 0
1, 296529, Note_on_c, 1, 75, 127
1, 296529, Note_on_c, 1, 60, 127
1, 296911, Note_off_c, 1, 75, 0
1, 296911, Note_off_c, 1, 60, 0
1, 296914, Note_on_c, 1, 74, 127
1, 296914, Note_on_c, 1, 55, 127
1, 296988, Note_off_c, 1, 74, 0
1, 296988, Note_off_c, 1, 55, 0
1, 296991, Note_on_c, 1, 72, 127
1, 296991, Note_on_c, 1, 60, 127
1, 297219, Note_off_c, 1, 72, 0
1, 297219, Note_off_c, 1, 60, 0
1, 297222, Note_on_c, 1, 56, 127
1, 297222, Note_on_c, 1, 77, 127
1, 297604, Note_off_c, 1, 56, 0
1, 297607, Note_on_c, 1, 55, 127
1, 297681, Note_off_c, 1, 55, 0
1, 297684, Note_on_c, 1, 53, 127
1, 297912, Note_off_c, 1, 53, 0
1, 297915, Note_on_c, 1, 60, 127
1, 298196, Note_off_c, 1, 77, 0
1, 298300, Note_on_c, 1, 74, 127
1, 298374, Note_off_c, 1, 74, 0
1, 298377, Note_on_c, 1, 79, 127
1, 298605, Note_off_c, 1, 79, 0
1, 298608, Note_on_c, 1, 80, 127
1, 298962, Note_off_c, 1, 60, 0
1, 298990, Note_off_c, 1, 80, 0
1, 298993, Note_on_c, 1, 77, 127
1, 298993, Note_on_c, 1, 56, 127
1, 299067, Note_off_c, 1, 77, 0
1, 299067, Note_off_c, 1, 56, 0
1, 299070, Note_on_c, 1, 82, 127
1, 299070, Note_on_c, 1, 62, 127
1, 299298, Note_off_c, 1, 82, 0
1, 299298, Note_off_c, 1, 62, 0
1, 299301, Note_on_c, 1, 79, 127
1, 299301, Note_on_c, 1, 63, 127
1, 299683, Note_off_c, 1, 79, 0
1, 299683, Note_off_c, 1, 63, 0
1, 299686, Note_on_c, 1, 77, 127
1, 299686, Note_on_c, 1, 58, 127
1, 299760, Note_off_c, 1, 77, 0
1, 299760, Note_off_c, 1, 58, 0
1, 299763, Note_on_c, 1, 75, 127
1, 299763, Note_on_c, 1, 63, 127
1, 299991, Note_off_c, 1, 75, 0
1, 299991, Note_off_c, 1, 63, 0
1, 299994, Note_on_c, 1, 60, 127
1, 299994, Note_on_c, 1, 80, 127
1, 300376, Note_off_c, 1, 60, 0
1, 300379, Note_on_c, 1, 58, 127
1, 300453, Note_off_c, 1, 58, 0
1, 300456, Note_on_c, 1, 56, 127
1, 300684, Note_off_c, 1, 56, 0
1, 300687, Note_on_c, 1, 63, 127
1, 300968, Note_off_c, 1, 80, 0
1, 301072, Note_on_c, 1, 77, 127
1, 301146, Note_off_c, 1, 77, 0
1, 301149, Note_on_c, 1, 83, 127
1, 301377, Note_off_c, 1, 83, 0
1, 301380, Note_on_c, 1, 84, 127
1, 301734, Note_off_c, 1, 63, 0
1, 301762, Note_off_c, 1, 84, 0
1, 301765, Note_on_c, 1, 79, 127
1, 301765, Note_on_c, 1, 60, 127
1, 301839, Note_off_c, 1, 79, 0
1, 301839, Note_off_c, 1, 60, 0
1, 301842, Note_on_c, 1, 72, 127
1, 301842, Note_on_c, 1, 64, 127
1, 302070, Note_off_c, 1, 72, 0
1, 302070, Note_off_c, 1, 64, 0
1, 302073, Note_on_c, 1, 77, 127
1, 302073, Note_on_c, 1, 56, 127
1, 302455, Note_off_c, 1, 77, 0
1, 302455, Note_off_c, 1, 56, 0
1, 302458, Note_on_c, 1, 79, 127
1, 302458, Note_on_c, 1, 60, 127
1, 302532, Note_off_c, 1, 79, 0
1, 302532, Note_off_c, 1, 60, 0
1, 302535, Note_on_c, 1, 80, 127
1, 302535, Note_on_c, 1, 50, 127
1, 302763, Note_off_c, 1, 80, 0
1, 302763, Note_off_c, 1, 50, 0
1, 302766, Note_on_c, 1, 79, 127
1, 302766, Note_on_c, 1, 51, 127
1, 302994, Note_off_c, 1, 79, 0
1, 302997, Note_on_c, 1, 77, 127
1, 303111, Note_off_c, 1, 77, 0
1, 303114, Note_on_c, 1, 75, 127
1, 303228, Note_off_c, 1, 51, 0
1, 303228, Note_off_c, 1, 75, 0
1, 303231, Note_on_c, 1, 74, 127
1, 303231, Note_on_c, 1, 53, 127
1, 303345, Note_off_c, 1, 74, 0
1, 303347, Note_on_c, 1, 72, 127
1, 303461, Note_off_c, 1, 72, 0
1, 303462, Note_off_c, 1, 53, 0
1, 303464, Note_on_c, 1, 55, 127
1, 303464, Note_on_c, 1, 71, 127
1, 303846, Note_off_c, 1, 55, 0
1, 303849, Note_on_c, 1, 47, 127
1, 303923, Note_off_c, 1, 47, 0
1, 303926, Note_on_c, 1, 50, 127
1, 304150, Note_off_c, 1, 71, 0
1, 304154, Note_off_c, 1, 50, 0
1, 304157, Note_on_c, 1, 43, 127
1, 304542, Note_on_c, 1, 74, 127
1, 304616, Note_off_c, 1, 74, 0
1, 304619, Note_off_c, 1, 43, 0
1, 304619, Note_on_c, 1, 79, 127
1, 304847, Note_off_c, 1, 79, 0
1, 304850, Note_on_c, 1, 77, 127
1, 304924, Note_off_c, 1, 77, 0
1, 304925, Note_on_c, 1, 76, 127
1, 304999, Note_off_c, 1, 76, 0
1, 305002, Note_on_c, 1, 77, 127
1, 305076, Note_off_c, 1, 77, 0
1, 305079, Note_on_c, 1, 76, 127
1, 305193, Note_off_c, 1, 76, 0
1, 305195, Note_on_c, 1, 74, 127
1, 305195, Note_on_c, 1, 48, 127
1, 305309, Note_off_c, 1, 74, 0
1, 305309, Note_off_c, 1, 48, 0
1, 305312, Note_on_c, 1, 72, 127
1, 305312, Note_on_c, 1, 55, 127
1, 305540, Note_off_c, 1, 72, 0
1, 305540, Note_off_c, 1, 55, 0
1, 305543, Note_on_c, 1, 52, 127
1, 305543, Note_on_c, 1, 82, 127
1, 305925, Note_off_c, 1, 52, 0
1, 305928, Note_on_c, 1, 50, 127
1, 306002, Note_off_c, 1, 50, 0
1, 306005, Note_on_c, 1, 48, 127
1, 306233, Note_off_c, 1, 48, 0
1, 306236, Note_on_c, 1, 53, 127
1, 306552, Note_off_c, 1, 82, 0
1, 306619, Note_on_c, 1, 84, 127
1, 306693, Note_off_c, 1, 84, 0
1, 306696, Note_on_c, 1, 79, 127
1, 306924, Note_off_c, 1, 79, 0
1, 306927, Note_on_c, 1, 80, 127
1, 307281, Note_off_c, 1, 53, 0
1, 307309, Note_off_c, 1, 80, 0
1, 307312, Note_on_c, 1, 72, 127
1, 307312, Note_on_c, 1, 55, 127
1, 307386, Note_off_c, 1, 72, 0
1, 307386, Note_off_c, 1, 55, 0
1, 307389, Note_on_c, 1, 77, 127
1, 307389, Note_on_c, 1, 56, 127
1, 307617, Note_off_c, 1, 77, 0
1, 307617, Note_off_c, 1, 56, 0
1, 307620, Note_on_c, 1, 75, 127
1, 307620, Note_on_c, 1, 58, 127
1, 307694, Note_off_c, 1, 75, 0
1, 307694, Note_on_c, 1, 74, 127
1, 307768, Note_off_c, 1, 74, 0
1, 307963, Note_off_c, 1, 58, 0
1, 307965, Note_on_c, 1, 72, 127
1, 307965, Note_on_c, 1, 46, 127
1, 308079, Note_off_c, 1, 72, 0
1, 308079, Note_off_c, 1, 46, 0
1, 308082, Note_on_c, 1, 70, 127
1, 308082, Note_on_c, 1, 53, 127
1, 308310, Note_off_c, 1, 70, 0
1, 308310, Note_off_c, 1, 53, 0
1, 308313, Note_on_c, 1, 50, 127
1, 308313, Note_on_c, 1, 80, 127
1, 308695, Note_off_c, 1, 50, 0
1, 308698, Note_on_c, 1, 48, 127
1, 308772, Note_off_c, 1, 48, 0
1, 308775, Note_on_c, 1, 46, 127
1, 309003, Note_off_c, 1, 46, 0
1, 309006, Note_on_c, 1, 51, 127
1, 309322, Note_off_c, 1, 80, 0
1, 309388, Note_on_c, 1, 82, 127
1, 309462, Note_off_c, 1, 82, 0
1, 309465, Note_on_c, 1, 77, 127
1, 309693, Note_off_c, 1, 77, 0
1, 309696, Note_on_c, 1, 79, 127
1, 310051, Note_off_c, 1, 51, 0
1, 310078, Note_off_c, 1, 79, 0
1, 310081, Note_on_c, 1, 75, 127
1, 310081, Note_on_c, 1, 55, 127
1, 310155, Note_off_c, 1, 75, 0
1, 310155, Note_off_c, 1, 55, 0
1, 310158, Note_on_c, 1, 72, 127
1, 310158, Note_on_c, 1, 60, 127
1, 310386, Note_off_c, 1, 72, 0
1, 310386, Note_off_c, 1, 60, 0
1, 310389, Note_on_c, 1, 63, 127
1, 310389, Note_on_c, 1, 69, 127
1, 310771, Note_off_c, 1, 63, 0
1, 310774, Note_on_c, 1, 60, 127
1, 310848, Note_off_c, 1, 60, 0
1, 310851, Note_on_c, 1, 57, 127
1, 311079, Note_off_c, 1, 57, 0
1, 311082, Note_on_c, 1, 53, 127
1, 311398, Note_off_c, 1, 69, 0
1, 311464, Note_off_c, 1, 53, 0
1, 311467, Note_on_c, 1, 77, 127
1, 311467, Note_on_c, 1, 57, 127
1, 311541, Note_off_c, 1, 77, 0
1, 311541, Note_off_c, 1, 57, 0
1, 311544, Note_on_c, 1, 74, 127
1, 311544, Note_on_c, 1, 62, 127
1, 311772, Note_off_c, 1, 74, 0
1, 311772, Note_off_c, 1, 62, 0
1, 311775, Note_on_c, 1, 65, 127
1, 311775, Note_on_c, 1, 71, 127
1, 312157, Note_off_c, 1, 65, 0
1, 312160, Note_on_c, 1, 62, 127
1, 312234, Note_off_c, 1, 62, 0
1, 312237, Note_on_c, 1, 59, 127
1, 312465, Note_off_c, 1, 59, 0
1, 312468, Note_on_c, 1, 55, 127
1, 312784, Note_off_c, 1, 71, 0
1, 312851, Note_on_c, 1, 79, 127
1, 312925, Note_off_c, 1, 79, 0
1, 312928, Note_on_c, 1, 75, 127
1, 313156, Note_off_c, 1, 75, 0
1, 313159, Note_on_c, 1, 72, 127
1, 313387, Note_off_c, 1, 55, 0
1, 313387, Note_off_c, 1, 72, 0
1, 313390, Note_on_c, 1, 80, 127
1, 313390, Note_on_c, 1, 60, 127
1, 313504, Note_off_c, 1, 80, 0
1, 313504, Note_off_c, 1, 60, 0
1, 313507, Note_on_c, 1, 79, 127
1, 313507, Note_on_c, 1, 58, 127
1, 313621, Note_off_c, 1, 79, 0
1, 313621, Note_off_c, 1, 58, 0
1, 313623, Note_on_c, 1, 77, 127
1, 313623, Note_on_c, 1, 56, 127
1, 313737, Note_off_c, 1, 77, 0
1, 313737, Note_off_c, 1, 56, 0
1, 313740, Note_on_c, 1, 75, 127
1, 313740, Note_on_c, 1, 55, 127
1, 313854, Note_off_c, 1, 75, 0
1, 313854, Note_off_c, 1, 55, 0
1, 313857, Note_on_c, 1, 73, 127
1, 313857, Note_on_c, 1, 53, 127
1, 313971, Note_off_c, 1, 73, 0
1, 313973, Note_on_c, 1, 72, 127
1, 314087, Note_off_c, 1, 72, 0
1, 314204, Note_off_c, 1, 53, 0
1, 314206, Note_on_c, 1, 75, 127
1, 314206, Note_on_c, 1, 60, 127
1, 314320, Note_off_c, 1, 75, 0
1, 314320, Note_off_c, 1, 60, 0
1, 314323, Note_on_c, 1, 77, 127
1, 314323, Note_on_c, 1, 56, 127
1, 314437, Note_off_c, 1, 77, 0
1, 314440, Note_on_c, 1, 73, 127
1, 314554, Note_off_c, 1, 56, 0
1, 314554, Note_off_c, 1, 73, 0
1, 314556, Note_on_c, 1, 71, 127
1, 314556, Note_on_c, 1, 53, 127
1, 314670, Note_off_c, 1, 71, 0
1, 314673, Note_on_c, 1, 69, 127
1, 314787, Note_off_c, 1, 69, 0
1, 314903, Note_off_c, 1, 53, 0
1, 314906, Note_on_c, 1, 72, 127
1, 314906, Note_on_c, 1, 60, 127
1, 315020, Note_off_c, 1, 72, 0
1, 315020, Note_off_c, 1, 60, 0
1, 315023, Note_on_c, 1, 74, 127
1, 315023, Note_on_c, 1, 56, 127
1, 315137, Note_off_c, 1, 74, 0
1, 315139, Note_on_c, 1, 71, 127
1, 315253, Note_off_c, 1, 71, 0
1, 315254, Note_off_c, 1, 56, 0
1, 315256, Note_on_c, 1, 68, 127
1, 315256, Note_on_c, 1, 53, 127
1, 315599, Note_off_c, 1, 68, 0
1, 315638, Note_off_c, 1, 53, 0
1, 315641, Note_on_c, 1, 67, 127
1, 315641, Note_on_c, 1, 59, 127
1, 315715, Note_off_c, 1, 67, 0
1, 315715, Note_off_c, 1, 59, 0
1, 315718, Note_on_c, 1, 77, 127
1, 315718, Note_on_c, 1, 55, 127
1, 315946, Note_off_c, 1, 77, 0
1, 315946, Note_off_c, 1, 55, 0
1, 315949, Note_on_c, 1, 77, 127
1, 315949, Note_on_c, 1, 60, 127
1, 316023, Note_off_c, 1, 77, 0
1, 316024, Note_on_c, 1, 75, 127
1, 316098, Note_off_c, 1, 75, 0
1, 316292, Note_off_c, 1, 60, 0
1, 316294, Note_on_c, 1, 74, 127
1, 316294, Note_on_c, 1, 55, 127
1, 316408, Note_off_c, 1, 74, 0
1, 316408, Note_off_c, 1, 55, 0
1, 316411, Note_on_c, 1, 72, 127
1, 316411, Note_on_c, 1, 56, 127
1, 316639, Note_off_c, 1, 72, 0
1, 316639, Note_off_c, 1, 56, 0
1, 316642, Note_on_c, 1, 72, 127
1, 316642, Note_on_c, 1, 53, 127
1, 316756, Note_off_c, 1, 72, 0
1, 316758, Note_on_c, 1, 75, 127
1, 316872, Note_off_c, 1, 75, 0
1, 316873, Note_off_c, 1, 53, 0
1, 316875, Note_on_c, 1, 74, 127
1, 316875, Note_on_c, 1, 55, 127
1, 316989, Note_off_c, 1, 74, 0
1, 316992, Note_on_c, 1, 72, 127
1, 317106, Note_off_c, 1, 55, 0
1, 317106, Note_off_c, 1, 72, 0
1, 317108, Note_on_c, 1, 71, 127
1, 317108, Note_on_c, 1, 43, 127
1, 317222, Note_off_c, 1, 71, 0
1, 317225, Note_on_c, 1, 72, 127
1, 317339, Note_off_c, 1, 43, 0
1, 317339, Note_off_c, 1, 72, 0
1, 317341, Note_on_c, 1, 44, 127
1, 317341, Note_on_c, 1, 72, 127
1, 317455, Note_off_c, 1, 44, 0
1, 317458, Note_on_c, 1, 46, 127
1, 317572, Note_off_c, 1, 46, 0
1, 317691, Note_on_c, 1, 43, 127
1, 317805, Note_off_c, 1, 43, 0
1, 317924, Note_on_c, 1, 41, 127
1, 318038, Note_off_c, 1, 41, 0
1, 318041, Note_on_c, 1, 53, 127
1, 318069, Note_off_c, 1, 72, 0
1, 318155, Note_on_c, 1, 70, 127
1, 318269, Note_off_c, 1, 70, 0
1, 318272, Note_on_c, 1, 68, 127
1, 318386, Note_off_c, 1, 68, 0
1, 318389, Note_on_c, 1, 67, 127
1, 318503, Note_off_c, 1, 67, 0
1, 318628, Note_on_c, 1, 65, 127
1, 318744, Note_off_c, 1, 65, 0
1, 318749, Note_on_c, 1, 74, 127
1, 319094, Note_off_c, 1, 53, 0
1, 319145, Note_on_c, 1, 50, 127
1, 319222, Note_off_c, 1, 50, 0
1, 319464, Note_on_c, 1, 56, 127
1, 319494, Note_off_c, 1, 74, 0
1, 319583, Note_on_c, 1, 75, 127
1, 319699, Note_off_c, 1, 75, 0
1, 320067, Note_on_c, 1, 71, 127
1, 320183, Note_off_c, 1, 71, 0
1, 320188, Note_on_c, 1, 77, 127
1, 320304, Note_off_c, 1, 77, 0
1, 320309, Note_on_c, 1, 79, 127
1, 320425, Note_off_c, 1, 79, 0
1, 320500, Note_off_c, 1, 56, 0
1, 320551, Note_on_c, 1, 75, 127
1, 320551, Note_on_c, 1, 53, 127
1, 320667, Note_off_c, 1, 75, 0
1, 320667, Note_off_c, 1, 53, 0
1, 320672, Note_on_c, 1, 77, 127
1, 320672, Note_on_c, 1, 56, 127
1, 320788, Note_off_c, 1, 77, 0
1, 320793, Note_on_c, 1, 74, 127
1, 320909, Note_off_c, 1, 56, 0
1, 320909, Note_off_c, 1, 74, 0
1, 320914, Note_on_c, 1, 59, 127
1, 320914, Note_on_c, 1, 80, 127
1, 321290, Note_off_c, 1, 59, 0
1, 321292, Note_off_c, 1, 80, 0
1, 321323, Note_on_c, 1, 62, 127
1, 321323, Note_on_c, 1, 79, 127
1, 321404, Note_off_c, 1, 62, 0
1, 321404, Note_off_c, 1, 79, 0
1, 321409, Note_on_c, 1, 55, 127
1, 321409, Note_on_c, 1, 77, 127
1, 321655, Note_off_c, 1, 55, 0
1, 321655, Note_off_c, 1, 77, 0
1, 321662, Note_on_c, 1, 75, 127
1, 321662, Note_on_c, 1, 60, 127
1, 321780, Note_off_c, 1, 75, 0
1, 321788, Note_on_c, 1, 74, 127
1, 321906, Note_off_c, 1, 74, 0
1, 322033, Note_off_c, 1, 60, 0
1, 322038, Note_on_c, 1, 48, 127
1, 322038, Note_on_c, 1, 79, 127
1, 322156, Note_off_c, 1, 48, 0
1, 322156, Note_off_c, 1, 79, 0
1, 322162, Note_on_c, 1, 84, 127
1, 322162, Note_on_c, 1, 51, 127
1, 322280, Note_off_c, 1, 84, 0
1, 322287, Note_on_c, 1, 79, 127
1, 322405, Note_off_c, 1, 79, 0
1, 322406, Note_off_c, 1, 51, 0
1, 322412, Note_on_c, 1, 75, 127
1, 322412, Note_on_c, 1, 55, 127
1, 322827, Note_off_c, 1, 75, 0
1, 322833, Note_on_c, 1, 77, 127
1, 322887, Note_off_c, 1, 55, 0
1, 322916, Note_off_c, 1, 77, 0
1, 322921, Note_on_c, 1, 43, 127
1, 322921, Note_on_c, 1, 74, 127
1, 323156, Note_off_c, 1, 43, 0
1, 323180, Note_off_c, 1, 74, 0
1, 323189, Note_on_c, 1, 72, 127
1, 323189, Note_on_c, 1, 48, 127
1, 323273, Note_on_c, 1, 71, 127
1, 323274, Note_off_c, 1, 72, 0
1, 323365, Note_off_c, 1, 71, 0
1, 323629, Note_off_c, 1, 48, 0
1, 323708, Note_on_c, 1, 39, 127
1, 323826, Note_off_c, 1, 39, 0
1, 323833, Note_on_c, 1, 43, 127
1, 324233, Note_off_c, 1, 43, 0
1, 324279, Note_on_c, 1, 36, 127
1, 326679, Note_off_c, 1, 36, 0
1, 326679, End_track
0, 0, End_of_file