0, 0, Header, 1, 1, 480
1, 0, Start_track
1, 0, Title_t, "Test"
1, 0, Tempo, 500000
1, 0, Instrument_name_t, "Church Organ"
1, 164, Note_on_c, 1, 60, 127
1, 326, Note_off_c, 1, 60, 0
1, 328, Note_on_c, 1, 62, 127
1, 490, Note_off_c, 1, 62, 0
1, 492, Note_on_c, 1, 64, 127
1, 654, Note_off_c, 1, 64, 0
1, 656, Note_on_c, 1, 65, 127
1, 818, Note_off_c, 1, 65, 0
1, 820, Note_on_c, 1, 67, 127
1, 982, Note_off_c, 1, 67, 0
1, 984, Note_on_c, 1, 69, 127
1, 1146, Note_off_c, 1, 69, 0
1, 1149, Note_on_c, 1, 65, 127
1, 1311, Note_off_c, 1, 65, 0
1, 1313, Note_on_c, 1, 70, 127
1, 1475, Note_off_c, 1, 70, 0
1, 1477, Note_on_c, 1, 72, 127
1, 1639, Note_off_c, 1, 72, 0
1, 1641, Note_on_c, 1, 70, 127
1, 1803, Note_off_c, 1, 70, 0
1, 1805, Note_on_c, 1, 69, 127
1, 1967, Note_off_c, 1, 69, 0
1, 1969, Note_on_c, 1, 67, 127
1, 2131, Note_off_c, 1, 67, 0
1, 2134, Note_on_c, 1, 72, 127
1, 2296, Note_off_c, 1, 72, 0
1, 2298, Note_on_c, 1, 70, 127
1, 2460, Note_off_c, 1, 70, 0
1, 2462, Note_on_c, 1, 72, 127
1, 2624, Note_off_c, 1, 72, 0
1, 2626, Note_on_c, 1, 69, 127
1, 2790, Note_on_c, 1, 48, 127
1, 2899, Note_off_c, 1, 69, 0
1, 2952, Note_off_c, 1, 48, 0
1, 2954, Note_on_c, 1, 50, 127
1, 2954, Note_on_c, 1, 65, 127
1, 3116, Note_off_c, 1, 50, 0
1, 3119, Note_on_c, 1, 52, 127
1, 3210, Note_off_c, 1, 65, 0
1, 3281, Note_off_c, 1, 52, 0
1, 3283, Note_on_c, 1, 77, 127
1, 3283, Note_on_c, 1, 53, 127
1, 3365, Note_on_c, 1, 76, 127
1, 3368, Note_off_c, 1, 77, 0
1, 3445, Note_off_c, 1, 53, 0
1, 3447, Note_on_c, 1, 55, 127
1, 3450, Note_off_c, 1, 76, 0
1, 3609, Note_off_c, 1, 55, 0
1, 3611, Note_on_c, 1, 57, 127
1, 3773, Note_off_c, 1, 57, 0
1, 3775, Note_on_c, 1, 77, 127
1, 3775, Note_on_c, 1, 53, 127
1, 3937, Note_off_c, 1, 77, 0
1, 3937, Note_off_c, 1, 53, 0
1, 3939, Note_on_c, 1, 58, 127
1, 3939, Note_on_c, 1, 77, 127
1, 4101, Note_off_c, 1, 58, 0
1, 4104, Note_on_c, 1, 60, 127
1, 4266, Note_off_c, 1, 60, 0
1, 4429, Note_off_c, 1, 77, 0
1, 4432, Note_on_c, 1, 79, 127
1, 4432, Note_on_c, 1, 57, 127
1, 4594, Note_off_c, 1, 79, 0
1, 4594, Note_off_c, 1, 57, 0
1, 4596, Note_on_c, 1, 77, 127
1, 4596, Note_on_c, 1, 55, 127
1, 4703, Note_off_c, 1, 77, 0
1, 4705, Note_on_c, 1, 76, 127
1, 4758, Note_off_c, 1, 55, 0
1, 4760, Note_on_c, 1, 60, 127
1, 4766, Note_off_c, 1, 76, 0
1, 4920, Note_off_c, 1, 60, 0
1, 4924, Note_on_c, 1, 58, 127
1, 5086, Note_off_c, 1, 58, 0
1, 5088, Note_on_c, 1, 77, 127
1, 5088, Note_on_c, 1, 60, 127
1, 5250, Note_off_c, 1, 77, 0
1, 5250, Note_off_c, 1, 60, 0
1, 5253, Note_on_c, 1, 77, 127
1, 5253, Note_on_c, 1, 57, 127
1, 5415, Note_off_c, 1, 77, 0
1, 5417, Note_on_c, 1, 79, 127
1, 5560, Note_off_c, 1, 57, 0
1, 5579, Note_off_c, 1, 79, 0
1, 5581, Note_on_c, 1, 77, 127
1, 5581, Note_on_c, 1, 53, 127
1, 5743, Note_off_c, 1, 77, 0
1, 5745, Note_on_c, 1, 76, 127
1, 5868, Note_off_c, 1, 53, 0
1, 5907, Note_off_c, 1, 76, 0
1, 5909, Note_on_c, 1, 65, 127
1, 5909, Note_on_c, 1, 74, 127
1, 5989, Note_off_c, 1, 65, 0
1, 5991, Note_on_c, 1, 64, 127
1, 6071, Note_off_c, 1, 74, 0
1, 6071, Note_off_c, 1, 64, 0
1, 6073, Note_on_c, 1, 76, 127
1, 6073, Note_on_c, 1, 65, 127
1, 6235, Note_off_c, 1, 76, 0
1, 6238, Note_on_c, 1, 77, 127
1, 6399, Note_off_c, 1, 65, 0
1, 6400, Note_off_c, 1, 77, 0
1, 6402, Note_on_c, 1, 81, 127
1, 6402, Note_on_c, 1, 65, 127
1, 6564, Note_off_c, 1, 81, 0
1, 6564, Note_off_c, 1, 65, 0
1, 6566, Note_on_c, 1, 71, 127
1, 6566, Note_on_c, 1, 65, 127
1, 6728, Note_off_c, 1, 71, 0
1, 6730, Note_on_c, 1, 72, 127
1, 6892, Note_off_c, 1, 72, 0
1, 6894, Note_on_c, 1, 74, 127
1, 7056, Note_off_c, 1, 65, 0
1, 7056, Note_off_c, 1, 74, 0
1, 7058, Note_on_c, 1, 79, 127
1, 7058, Note_on_c, 1, 67, 127
1, 7220, Note_off_c, 1, 79, 0
1, 7220, Note_off_c, 1, 67, 0
1, 7223, Note_on_c, 1, 65, 127
1, 7223, Note_on_c, 1, 72, 127
1, 7303, Note_off_c, 1, 65, 0
1, 7305, Note_on_c, 1, 64, 127
1, 7385, Note_off_c, 1, 72, 0
1, 7385, Note_off_c, 1, 64, 0
1, 7387, Note_on_c, 1, 65, 127
1, 7387, Note_on_c, 1, 74, 127
1, 7467, Note_off_c, 1, 65, 0
1, 7469, Note_on_c, 1, 64, 127
1, 7549, Note_off_c, 1, 74, 0
1, 7549, Note_off_c, 1, 64, 0
1, 7551, Note_on_c, 1, 65, 127
1, 7551, Note_on_c, 1, 76, 127
1, 7631, Note_off_c, 1, 65, 0
1, 7633, Note_on_c, 1, 64, 127
1, 7713, Note_off_c, 1, 76, 0
1, 7713, Note_off_c, 1, 64, 0
1, 7715, Note_on_c, 1, 79, 127
1, 7715, Note_on_c, 1, 64, 127
1, 7877, Note_off_c, 1, 79, 0
1, 7877, Note_off_c, 1, 64, 0
1, 7879, Note_on_c, 1, 69, 127
1, 7879, Note_on_c, 1, 64, 127
1, 8041, Note_off_c, 1, 69, 0
1, 8043, Note_on_c, 1, 71, 127
1, 8205, Note_off_c, 1, 64, 0
1, 8205, Note_off_c, 1, 71, 0
1, 8208, Note_on_c, 1, 72, 127
1, 8208, Note_on_c, 1, 57, 127
1, 8370, Note_off_c, 1, 72, 0
1, 8372, Note_on_c, 1, 77, 127
1, 8498, Note_off_c, 1, 57, 0
1, 8534, Note_off_c, 1, 77, 0
1, 8536, Note_on_c, 1, 62, 127
1, 8536, Note_on_c, 1, 71, 127
1, 8616, Note_off_c, 1, 62, 0
1, 8618, Note_on_c, 1, 60, 127
1, 8698, Note_off_c, 1, 71, 0
1, 8698, Note_off_c, 1, 60, 0
1, 8700, Note_on_c, 1, 72, 127
1, 8700, Note_on_c, 1, 62, 127
1, 8862, Note_off_c, 1, 72, 0
1, 8864, Note_on_c, 1, 74, 127
1, 9026, Note_off_c, 1, 62, 0
1, 9026, Note_off_c, 1, 74, 0
1, 9028, Note_on_c, 1, 77, 127
1, 9028, Note_on_c, 1, 62, 127
1, 9190, Note_off_c, 1, 77, 0
1, 9190, Note_off_c, 1, 62, 0
1, 9192, Note_on_c, 1, 67, 127
1, 9192, Note_on_c, 1, 62, 127
1, 9354, Note_off_c, 1, 67, 0
1, 9357, Note_on_c, 1, 69, 127
1, 9519, Note_off_c, 1, 69, 0
1, 9521, Note_on_c, 1, 71, 127
1, 9682, Note_off_c, 1, 62, 0
1, 9683, Note_off_c, 1, 71, 0
1, 9685, Note_on_c, 1, 76, 127
1, 9685, Note_on_c, 1, 64, 127
1, 9847, Note_off_c, 1, 76, 0
1, 9847, Note_off_c, 1, 64, 0
1, 9849, Note_on_c, 1, 62, 127
1, 9849, Note_on_c, 1, 69, 127
1, 9929, Note_off_c, 1, 62, 0
1, 9931, Note_on_c, 1, 60, 127
1, 10011, Note_off_c, 1, 69, 0
1, 10011, Note_off_c, 1, 60, 0
1, 10013, Note_on_c, 1, 62, 127
1, 10013, Note_on_c, 1, 71, 127
1, 10093, Note_off_c, 1, 62, 0
1, 10095, Note_on_c, 1, 60, 127
1, 10175, Note_off_c, 1, 71, 0
1, 10175, Note_off_c, 1, 60, 0
1, 10177, Note_on_c, 1, 62, 127
1, 10177, Note_on_c, 1, 72, 127
1, 10257, Note_off_c, 1, 62, 0
1, 10260, Note_on_c, 1, 60, 127
1, 10339, Note_off_c, 1, 72, 0
1, 10340, Note_off_c, 1, 60, 0
1, 10342, Note_on_c, 1, 76, 127
1, 10342, Note_on_c, 1, 60, 127
1, 10504, Note_off_c, 1, 76, 0
1, 10504, Note_off_c, 1, 60, 0
1, 10506, Note_on_c, 1, 60, 127
1, 10506, Note_on_c, 1, 65, 127
1, 10668, Note_off_c, 1, 60, 0
1, 10670, Note_on_c, 1, 64, 127
1, 10832, Note_off_c, 1, 65, 0
1, 10832, Note_off_c, 1, 64, 0
1, 10834, Note_on_c, 1, 62, 127
1, 10834, Note_on_c, 1, 69, 127
1, 10996, Note_off_c, 1, 62, 0
1, 10998, Note_on_c, 1, 60, 127
1, 11160, Note_off_c, 1, 69, 0
1, 11160, Note_off_c, 1, 60, 0
1, 11162, Note_on_c, 1, 74, 127
1, 11162, Note_on_c, 1, 59, 127
1, 11242, Note_off_c, 1, 74, 0
1, 11244, Note_on_c, 1, 72, 127
1, 11324, Note_off_c, 1, 59, 0
1, 11324, Note_off_c, 1, 72, 0
1, 11327, Note_on_c, 1, 57, 127
1, 11327, Note_on_c, 1, 74, 127
1, 11489, Note_off_c, 1, 57, 0
1, 11491, Note_on_c, 1, 55, 127
1, 11653, Note_off_c, 1, 74, 0
1, 11653, Note_off_c, 1, 55, 0
1, 11655, Note_on_c, 1, 74, 127
1, 11655, Note_on_c, 1, 53, 127
1, 11817, Note_off_c, 1, 74, 0
1, 11817, Note_off_c, 1, 53, 0
1, 11819, Note_on_c, 1, 74, 127
1, 11819, Note_on_c, 1, 52, 127
1, 11981, Note_off_c, 1, 74, 0
1, 11983, Note_on_c, 1, 67, 127
1, 12145, Note_off_c, 1, 67, 0
1, 12147, Note_on_c, 1, 69, 127
1, 12309, Note_off_c, 1, 69, 0
1, 12312, Note_on_c, 1, 71, 127
1, 12474, Note_off_c, 1, 71, 0
1, 12476, Note_on_c, 1, 72, 127
1, 12619, Note_off_c, 1, 52, 0
1, 12638, Note_off_c, 1, 72, 0
1, 12640, Note_on_c, 1, 74, 127
1, 12640, Note_on_c, 1, 50, 127
1, 12802, Note_off_c, 1, 74, 0
1, 12802, Note_off_c, 1, 50, 0
1, 12804, Note_on_c, 1, 76, 127
1, 12804, Note_on_c, 1, 48, 127
1, 12966, Note_off_c, 1, 76, 0
1, 12966, Note_off_c, 1, 48, 0
1, 12968, Note_on_c, 1, 72, 127
1, 12968, Note_on_c, 1, 47, 127
1, 13130, Note_off_c, 1, 72, 0
1, 13130, Note_off_c, 1, 47, 0
1, 13132, Note_on_c, 1, 77, 127
1, 13132, Note_on_c, 1, 45, 127
1, 13294, Note_off_c, 1, 77, 0
1, 13294, Note_off_c, 1, 45, 0
1, 13296, Note_on_c, 1, 79, 127
1, 13296, Note_on_c, 1, 43, 127
1, 13458, Note_off_c, 1, 79, 0
1, 13458, Note_off_c, 1, 43, 0
1, 13461, Note_on_c, 1, 77, 127
1, 13461, Note_on_c, 1, 45, 127
1, 13623, Note_off_c, 1, 77, 0
1, 13623, Note_off_c, 1, 45, 0
1, 13625, Note_on_c, 1, 76, 127
1, 13625, Note_on_c, 1, 41, 127
1, 13787, Note_off_c, 1, 76, 0
1, 13787, Note_off_c, 1, 41, 0
1, 13789, Note_on_c, 1, 74, 127
1, 13789, Note_on_c, 1, 43, 127
1, 13951, Note_off_c, 1, 74, 0
1, 13953, Note_on_c, 1, 79, 127
1, 14115, Note_off_c, 1, 43, 0
1, 14115, Note_off_c, 1, 79, 0
1, 14117, Note_on_c, 1, 77, 127
1, 14117, Note_on_c, 1, 55, 127
1, 14279, Note_off_c, 1, 77, 0
1, 14281, Note_on_c, 1, 79, 127
1, 14443, Note_off_c, 1, 55, 0
1, 14443, Note_off_c, 1, 79, 0
1, 14446, Note_on_c, 1, 48, 127
1, 14446, Note_on_c, 1, 76, 127
1, 14608, Note_off_c, 1, 48, 0
1, 14610, Note_on_c, 1, 55, 127
1, 14716, Note_off_c, 1, 76, 0
1, 14772, Note_off_c, 1, 55, 0
1, 14774, Note_on_c, 1, 57, 127
1, 14774, Note_on_c, 1, 72, 127
1, 14936, Note_off_c, 1, 57, 0
1, 14938, Note_on_c, 1, 59, 127
1, 15044, Note_off_c, 1, 72, 0
1, 15100, Note_off_c, 1, 59, 0
1, 15102, Note_on_c, 1, 84, 127
1, 15102, Note_on_c, 1, 60, 127
1, 15184, Note_on_c, 1, 83, 127
1, 15187, Note_off_c, 1, 84, 0
1, 15264, Note_off_c, 1, 60, 0
1, 15266, Note_on_c, 1, 62, 127
1, 15269, Note_off_c, 1, 83, 0
1, 15428, Note_off_c, 1, 62, 0
1, 15431, Note_on_c, 1, 64, 127
1, 15593, Note_off_c, 1, 64, 0
1, 15595, Note_on_c, 1, 84, 127
1, 15595, Note_on_c, 1, 60, 127
1, 15757, Note_off_c, 1, 84, 0
1, 15757, Note_off_c, 1, 60, 0
1, 15759, Note_on_c, 1, 65, 127
1, 15759, Note_on_c, 1, 84, 127
1, 15921, Note_off_c, 1, 65, 0
1, 15923, Note_on_c, 1, 67, 127
1, 16085, Note_off_c, 1, 67, 0
1, 16167, Note_off_c, 1, 84, 0
1, 16169, Note_on_c, 1, 83, 127
1, 16249, Note_off_c, 1, 83, 0
1, 16251, Note_on_c, 1, 84, 127
1, 16251, Note_on_c, 1, 64, 127
1, 16331, Note_off_c, 1, 84, 0
1, 16333, Note_on_c, 1, 81, 127
1, 16413, Note_off_c, 1, 64, 0
1, 16413, Note_off_c, 1, 81, 0
1, 16416, Note_on_c, 1, 83, 127
1, 16416, Note_on_c, 1, 62, 127
1, 16498, Note_on_c, 1, 81, 127
1, 16527, Note_off_c, 1, 83, 0
1, 16578, Note_off_c, 1, 62, 0
1, 16580, Note_on_c, 1, 67, 127
1, 16609, Note_off_c, 1, 81, 0
1, 16742, Note_off_c, 1, 67, 0
1, 16744, Note_on_c, 1, 65, 127
1, 16906, Note_off_c, 1, 65, 0
1, 16908, Note_on_c, 1, 83, 127
1, 16908, Note_on_c, 1, 67, 127
1, 17070, Note_off_c, 1, 83, 0
1, 17070, Note_off_c, 1, 67, 0
1, 17072, Note_on_c, 1, 60, 127
1, 17072, Note_on_c, 1, 83, 127
1, 17234, Note_off_c, 1, 60, 0
1, 17236, Note_on_c, 1, 62, 127
1, 17398, Note_off_c, 1, 83, 0
1, 17398, Note_off_c, 1, 62, 0
1, 17400, Note_on_c, 1, 64, 127
1, 17400, Note_on_c, 1, 76, 127
1, 17562, Note_off_c, 1, 64, 0
1, 17565, Note_on_c, 1, 65, 127
1, 17670, Note_off_c, 1, 76, 0
1, 17727, Note_off_c, 1, 65, 0
1, 17729, Note_on_c, 1, 81, 127
1, 17729, Note_on_c, 1, 53, 127
1, 17809, Note_off_c, 1, 81, 0
1, 17811, Note_on_c, 1, 79, 127
1, 17891, Note_off_c, 1, 53, 0
1, 17891, Note_off_c, 1, 79, 0
1, 17893, Note_on_c, 1, 55, 127
1, 17893, Note_on_c, 1, 81, 127
1, 18055, Note_off_c, 1, 55, 0
1, 18057, Note_on_c, 1, 57, 127
1, 18219, Note_off_c, 1, 81, 0
1, 18219, Note_off_c, 1, 57, 0
1, 18221, Note_on_c, 1, 81, 127
1, 18221, Note_on_c, 1, 60, 127
1, 18383, Note_off_c, 1, 81, 0
1, 18383, Note_off_c, 1, 60, 0
1, 18385, Note_on_c, 1, 59, 127
1, 18385, Note_on_c, 1, 81, 127
1, 18547, Note_off_c, 1, 59, 0
1, 18550, Note_on_c, 1, 60, 127
1, 18712, Note_off_c, 1, 60, 0
1, 18714, Note_on_c, 1, 62, 127
1, 18875, Note_off_c, 1, 81, 0
1, 18876, Note_off_c, 1, 62, 0
1, 18878, Note_on_c, 1, 79, 127
1, 18878, Note_on_c, 1, 65, 127
1, 18958, Note_off_c, 1, 79, 0
1, 18960, Note_on_c, 1, 77, 127
1, 19040, Note_off_c, 1, 65, 0
1, 19040, Note_off_c, 1, 77, 0
1, 19042, Note_on_c, 1, 79, 127
1, 19042, Note_on_c, 1, 52, 127
1, 19124, Note_on_c, 1, 77, 127
1, 19171, Note_off_c, 1, 79, 0
1, 19204, Note_off_c, 1, 52, 0
1, 19206, Note_on_c, 1, 53, 127
1, 19253, Note_off_c, 1, 77, 0
1, 19368, Note_off_c, 1, 53, 0
1, 19370, Note_on_c, 1, 55, 127
1, 19532, Note_off_c, 1, 55, 0
1, 19535, Note_on_c, 1, 79, 127
1, 19535, Note_on_c, 1, 59, 127
1, 19697, Note_off_c, 1, 79, 0
1, 19697, Note_off_c, 1, 59, 0
1, 19699, Note_on_c, 1, 57, 127
1, 19699, Note_on_c, 1, 79, 127
1, 19861, Note_off_c, 1, 57, 0
1, 19863, Note_on_c, 1, 59, 127
1, 20025, Note_off_c, 1, 79, 0
1, 20025, Note_off_c, 1, 59, 0
1, 20027, Note_on_c, 1, 60, 127
1, 20027, Note_on_c, 1, 72, 127
1, 20189, Note_off_c, 1, 60, 0
1, 20191, Note_on_c, 1, 64, 127
1, 20297, Note_off_c, 1, 72, 0
1, 20353, Note_off_c, 1, 64, 0
1, 20355, Note_on_c, 1, 77, 127
1, 20355, Note_on_c, 1, 50, 127
1, 20437, Note_on_c, 1, 76, 127
1, 20471, Note_off_c, 1, 77, 0
1, 20517, Note_off_c, 1, 50, 0
1, 20520, Note_on_c, 1, 52, 127
1, 20553, Note_off_c, 1, 76, 0
1, 20682, Note_off_c, 1, 52, 0
1, 20684, Note_on_c, 1, 53, 127
1, 20846, Note_off_c, 1, 53, 0
1, 20848, Note_on_c, 1, 77, 127
1, 20848, Note_on_c, 1, 57, 127
1, 21010, Note_off_c, 1, 77, 0
1, 21010, Note_off_c, 1, 57, 0
1, 21012, Note_on_c, 1, 77, 127
1, 21012, Note_on_c, 1, 55, 127
1, 21174, Note_off_c, 1, 77, 0
1, 21176, Note_on_c, 1, 81, 127
1, 21338, Note_off_c, 1, 55, 0
1, 21338, Note_off_c, 1, 81, 0
1, 21340, Note_on_c, 1, 79, 127
1, 21340, Note_on_c, 1, 48, 127
1, 21502, Note_off_c, 1, 79, 0
1, 21504, Note_on_c, 1, 77, 127
1, 21666, Note_off_c, 1, 48, 0
1, 21666, Note_off_c, 1, 77, 0
1, 21669, Note_on_c, 1, 60, 127
1, 21669, Note_on_c, 1, 76, 127
1, 21749, Note_off_c, 1, 60, 0
1, 21751, Note_on_c, 1, 59, 127
1, 21831, Note_off_c, 1, 76, 0
1, 21831, Note_off_c, 1, 59, 0
1, 21833, Note_on_c, 1, 77, 127
1, 21833, Note_on_c, 1, 60, 127
1, 21995, Note_off_c, 1, 77, 0
1, 21997, Note_on_c, 1, 79, 127
1, 22159, Note_off_c, 1, 60, 0
1, 22159, Note_off_c, 1, 79, 0
1, 22161, Note_on_c, 1, 76, 127
1, 22161, Note_on_c, 1, 60, 127
1, 22323, Note_off_c, 1, 76, 0
1, 22323, Note_off_c, 1, 60, 0
1, 22325, Note_on_c, 1, 77, 127
1, 22325, Note_on_c, 1, 60, 127
1, 22487, Note_off_c, 1, 77, 0
1, 22489, Note_on_c, 1, 79, 127
1, 22651, Note_off_c, 1, 79, 0
1, 22815, Note_off_c, 1, 60, 0
1, 22818, Note_on_c, 1, 76, 127
1, 22818, Note_on_c, 1, 62, 127
1, 22980, Note_off_c, 1, 76, 0
1, 22980, Note_off_c, 1, 62, 0
1, 22982, Note_on_c, 1, 60, 127
1, 22982, Note_on_c, 1, 74, 127
1, 23085, Note_on_c, 1, 58, 127
1, 23101, Note_off_c, 1, 60, 0
1, 23144, Note_off_c, 1, 74, 0
1, 23146, Note_on_c, 1, 79, 127
1, 23185, Note_off_c, 1, 58, 0
1, 23308, Note_off_c, 1, 79, 0
1, 23310, Note_on_c, 1, 77, 127
1, 23472, Note_off_c, 1, 77, 0
1, 23474, Note_on_c, 1, 58, 127
1, 23474, Note_on_c, 1, 79, 127
1, 23636, Note_off_c, 1, 58, 0
1, 23636, Note_off_c, 1, 79, 0
1, 23639, Note_on_c, 1, 76, 127
1, 23639, Note_on_c, 1, 58, 127
1, 23801, Note_off_c, 1, 76, 0
1, 23803, Note_on_c, 1, 72, 127
1, 23965, Note_off_c, 1, 58, 0
1, 23965, Note_off_c, 1, 72, 0
1, 23967, Note_on_c, 1, 74, 127
1, 23967, Note_on_c, 1, 60, 127
1, 24129, Note_off_c, 1, 74, 0
1, 24129, Note_off_c, 1, 60, 0
1, 24131, Note_on_c, 1, 76, 127
1, 24131, Note_on_c, 1, 58, 127
1, 24293, Note_off_c, 1, 76, 0
1, 24293, Note_off_c, 1, 58, 0
1, 24295, Note_on_c, 1, 77, 127
1, 24295, Note_on_c, 1, 57, 127
1, 24457, Note_off_c, 1, 77, 0
1, 24457, Note_off_c, 1, 57, 0
1, 24459, Note_on_c, 1, 79, 127
1, 24459, Note_on_c, 1, 55, 127
1, 24621, Note_off_c, 1, 79, 0
1, 24621, Note_off_c, 1, 55, 0
1, 24624, Note_on_c, 1, 81, 127
1, 24624, Note_on_c, 1, 53, 127
1, 24786, Note_off_c, 1, 81, 0
1, 24786, Note_off_c, 1, 53, 0
1, 24788, Note_on_c, 1, 77, 127
1, 24788, Note_on_c, 1, 52, 127
1, 24950, Note_off_c, 1, 77, 0
1, 24950, Note_off_c, 1, 52, 0
1, 24952, Note_on_c, 1, 82, 127
1, 24952, Note_on_c, 1, 50, 127
1, 25114, Note_off_c, 1, 82, 0
1, 25114, Note_off_c, 1, 50, 0
1, 25116, Note_on_c, 1, 84, 127
1, 25116, Note_on_c, 1, 48, 127
1, 25278, Note_off_c, 1, 84, 0
1, 25278, Note_off_c, 1, 48, 0
1, 25280, Note_on_c, 1, 82, 127
1, 25280, Note_on_c, 1, 50, 127
1, 25442, Note_off_c, 1, 82, 0
1, 25442, Note_off_c, 1, 50, 0
1, 25444, Note_on_c, 1, 81, 127
1, 25444, Note_on_c, 1, 46, 127
1, 25606, Note_off_c, 1, 81, 0
1, 25606, Note_off_c, 1, 46, 0
1, 25608, Note_on_c, 1, 79, 127
1, 25608, Note_on_c, 1, 48, 127
1, 25770, Note_off_c, 1, 79, 0
1, 25773, Note_on_c, 1, 84, 127
1, 25934, Note_off_c, 1, 48, 0
1, 25935, Note_off_c, 1, 84, 0
1, 25937, Note_on_c, 1, 82, 127
1, 25937, Note_on_c, 1, 36, 127
1, 26099, Note_off_c, 1, 82, 0
1, 26101, Note_on_c, 1, 84, 127
1, 26263, Note_off_c, 1, 36, 0
1, 26263, Note_off_c, 1, 84, 0
1, 26265, Note_on_c, 1, 81, 127
1, 26265, Note_on_c, 1, 41, 127
1, 26427, Note_off_c, 1, 81, 0
1, 26429, Note_on_c, 1, 82, 127
1, 26591, Note_off_c, 1, 82, 0
1, 26758, Note_on_c, 1, 79, 127
1, 26920, Note_off_c, 1, 79, 0
1, 26922, Note_on_c, 1, 77, 127
1, 27084, Note_off_c, 1, 77, 0
1, 27085, Note_off_c, 1, 41, 0
1, 27086, Note_on_c, 1, 76, 127
1, 27248, Note_off_c, 1, 76, 0
1, 27250, Note_on_c, 1, 74, 127
1, 27250, Note_on_c, 1, 53, 127
1, 27412, Note_off_c, 1, 74, 0
1, 27414, Note_on_c, 1, 72, 127
1, 27576, Note_off_c, 1, 53, 0
1, 27576, Note_off_c, 1, 72, 0
1, 27578, Note_on_c, 1, 71, 127
1, 27578, Note_on_c, 1, 55, 127
1, 27740, Note_off_c, 1, 71, 0
1, 27740, Note_off_c, 1, 55, 0
1, 27743, Note_on_c, 1, 67, 127
1, 27743, Note_on_c, 1, 60, 127
1, 27905, Note_off_c, 1, 67, 0
1, 27905, Note_off_c, 1, 60, 0
1, 27907, Note_on_c, 1, 69, 127
1, 27907, Note_on_c, 1, 59, 127
1, 28069, Note_off_c, 1, 69, 0
1, 28069, Note_off_c, 1, 59, 0
1, 28071, Note_on_c, 1, 71, 127
1, 28071, Note_on_c, 1, 57, 127
1, 28233, Note_off_c, 1, 71, 0
1, 28233, Note_off_c, 1, 57, 0
1, 28235, Note_on_c, 1, 72, 127
1, 28235, Note_on_c, 1, 55, 127
1, 28397, Note_off_c, 1, 72, 0
1, 28397, Note_off_c, 1, 55, 0
1, 28399, Note_on_c, 1, 74, 127
1, 28399, Note_on_c, 1, 53, 127
1, 28561, Note_off_c, 1, 74, 0
1, 28561, Note_off_c, 1, 53, 0
1, 28563, Note_on_c, 1, 76, 127
1, 28563, Note_on_c, 1, 52, 127
1, 28725, Note_off_c, 1, 76, 0
1, 28725, Note_off_c, 1, 52, 0
1, 28728, Note_on_c, 1, 77, 127
1, 28728, Note_on_c, 1, 50, 127
1, 28890, Note_off_c, 1, 77, 0
1, 28890, Note_off_c, 1, 50, 0
1, 28892, Note_on_c, 1, 79, 127
1, 28892, Note_on_c, 1, 48, 127
1, 29136, Note_off_c, 1, 79, 0
1, 29138, Note_on_c, 1, 81, 127
1, 29218, Note_off_c, 1, 48, 0
1, 29218, Note_off_c, 1, 81, 0
1, 29220, Note_on_c, 1, 79, 127
1, 29220, Note_on_c, 1, 53, 127
1, 29300, Note_off_c, 1, 79, 0
1, 29302, Note_on_c, 1, 77, 127
1, 29382, Note_off_c, 1, 77, 0
1, 29466, Note_on_c, 1, 81, 127
1, 29546, Note_off_c, 1, 53, 0
1, 29546, Note_off_c, 1, 81, 0
1, 29548, Note_on_c, 1, 76, 127
1, 29548, Note_on_c, 1, 55, 127
1, 29655, Note_off_c, 1, 76, 0
1, 29658, Note_on_c, 1, 74, 127
1, 29738, Note_off_c, 1, 74, 0
1, 29874, Note_off_c, 1, 55, 0
1, 29877, Note_on_c, 1, 43, 127
1, 30041, Note_on_c, 1, 72, 127
1, 30203, Note_off_c, 1, 43, 0
1, 30203, Note_off_c, 1, 72, 0
1, 30205, Note_on_c, 1, 72, 127
1, 30205, Note_on_c, 1, 36, 127
1, 30367, Note_off_c, 1, 72, 0
1, 30369, Note_on_c, 1, 67, 127
1, 30531, Note_off_c, 1, 67, 0
1, 30533, Note_on_c, 1, 69, 127
1, 30695, Note_off_c, 1, 69, 0
1, 30697, Note_on_c, 1, 71, 127
1, 30859, Note_off_c, 1, 36, 0
1, 30859, Note_off_c, 1, 71, 0
1, 30862, Note_on_c, 1, 60, 127
1, 30862, Note_on_c, 1, 72, 127
1, 30942, Note_off_c, 1, 60, 0
1, 30944, Note_on_c, 1, 59, 127
1, 31024, Note_off_c, 1, 72, 0
1, 31024, Note_off_c, 1, 59, 0
1, 31026, Note_on_c, 1, 74, 127
1, 31026, Note_on_c, 1, 60, 127
1, 31188, Note_off_c, 1, 74, 0
1, 31190, Note_on_c, 1, 76, 127
1, 31352, Note_off_c, 1, 60, 0
1, 31352, Note_off_c, 1, 76, 0
1, 31354, Note_on_c, 1, 72, 127
1, 31354, Note_on_c, 1, 60, 127
1, 31516, Note_off_c, 1, 72, 0
1, 31516, Note_off_c, 1, 60, 0
1, 31518, Note_on_c, 1, 77, 127
1, 31518, Note_on_c, 1, 60, 127
1, 31680, Note_off_c, 1, 77, 0
1, 31682, Note_on_c, 1, 79, 127
1, 31844, Note_off_c, 1, 79, 0
1, 32008, Note_off_c, 1, 60, 0
1, 32011, Note_on_c, 1, 76, 127
1, 32011, Note_on_c, 1, 62, 127
1, 32173, Note_off_c, 1, 76, 0
1, 32173, Note_off_c, 1, 62, 0
1, 32175, Note_on_c, 1, 60, 127
1, 32175, Note_on_c, 1, 74, 127
1, 32255, Note_off_c, 1, 60, 0
1, 32257, Note_on_c, 1, 58, 127
1, 32337, Note_off_c, 1, 74, 0
1, 32337, Note_off_c, 1, 58, 0
1, 32339, Note_on_c, 1, 60, 127
1, 32339, Note_on_c, 1, 79, 127
1, 32419, Note_off_c, 1, 60, 0
1, 32421, Note_on_c, 1, 58, 127
1, 32501, Note_off_c, 1, 79, 0
1, 32501, Note_off_c, 1, 58, 0
1, 32503, Note_on_c, 1, 60, 127
1, 32503, Note_on_c, 1, 77, 127
1, 32583, Note_off_c, 1, 60, 0
1, 32585, Note_on_c, 1, 58, 127
1, 32665, Note_off_c, 1, 77, 0
1, 32665, Note_off_c, 1, 58, 0
1, 32667, Note_on_c, 1, 79, 127
1, 32667, Note_on_c, 1, 58, 127
1, 32829, Note_off_c, 1, 79, 0
1, 32829, Note_off_c, 1, 58, 0
1, 32832, Note_on_c, 1, 58, 127
1, 32832, Note_on_c, 1, 76, 127
1, 32994, Note_off_c, 1, 58, 0
1, 32996, Note_on_c, 1, 48, 127
1, 33102, Note_off_c, 1, 76, 0
1, 33158, Note_off_c, 1, 48, 0
1, 33160, Note_on_c, 1, 50, 127
1, 33160, Note_on_c, 1, 72, 127
1, 33322, Note_off_c, 1, 50, 0
1, 33324, Note_on_c, 1, 52, 127
1, 33430, Note_off_c, 1, 72, 0
1, 33486, Note_off_c, 1, 52, 0
1, 33488, Note_on_c, 1, 77, 127
1, 33488, Note_on_c, 1, 53, 127
1, 33568, Note_off_c, 1, 77, 0
1, 33570, Note_on_c, 1, 76, 127
1, 33650, Note_off_c, 1, 53, 0
1, 33650, Note_off_c, 1, 76, 0
1, 33652, Note_on_c, 1, 55, 127
1, 33652, Note_on_c, 1, 77, 127
1, 33814, Note_off_c, 1, 55, 0
1, 33816, Note_on_c, 1, 57, 127
1, 33978, Note_off_c, 1, 77, 0
1, 33978, Note_off_c, 1, 57, 0
1, 33981, Note_on_c, 1, 77, 127
1, 33981, Note_on_c, 1, 53, 127
1, 34143, Note_off_c, 1, 77, 0
1, 34143, Note_off_c, 1, 53, 0
1, 34145, Note_on_c, 1, 58, 127
1, 34145, Note_on_c, 1, 77, 127
1, 34307, Note_off_c, 1, 58, 0
1, 34309, Note_on_c, 1, 60, 127
1, 34471, Note_off_c, 1, 60, 0
1, 34635, Note_off_c, 1, 77, 0
1, 34637, Note_on_c, 1, 79, 127
1, 34637, Note_on_c, 1, 57, 127
1, 34799, Note_off_c, 1, 79, 0
1, 34799, Note_off_c, 1, 57, 0
1, 34801, Note_on_c, 1, 75, 127
1, 34801, Note_on_c, 1, 55, 127
1, 34881, Note_off_c, 1, 75, 0
1, 34884, Note_on_c, 1, 74, 127
1, 34963, Note_off_c, 1, 55, 0
1, 34964, Note_off_c, 1, 74, 0
1, 34966, Note_on_c, 1, 60, 127
1, 34966, Note_on_c, 1, 75, 127
1, 35128, Note_off_c, 1, 60, 0
1, 35130, Note_on_c, 1, 58, 127
1, 35292, Note_off_c, 1, 75, 0
1, 35292, Note_off_c, 1, 58, 0
1, 35294, Note_on_c, 1, 75, 127
1, 35294, Note_on_c, 1, 60, 127
1, 35456, Note_off_c, 1, 75, 0
1, 35456, Note_off_c, 1, 60, 0
1, 35458, Note_on_c, 1, 75, 127
1, 35458, Note_on_c, 1, 57, 127
1, 35620, Note_off_c, 1, 75, 0
1, 35622, Note_on_c, 1, 65, 127
1, 35784, Note_off_c, 1, 57, 0
1, 35784, Note_off_c, 1, 65, 0
1, 35786, Note_on_c, 1, 67, 127
1, 35786, Note_on_c, 1, 53, 127
1, 35948, Note_off_c, 1, 67, 0
1, 35951, Note_on_c, 1, 69, 127
1, 36112, Note_off_c, 1, 53, 0
1, 36113, Note_off_c, 1, 69, 0
1, 36115, Note_on_c, 1, 58, 127
1, 36115, Note_on_c, 1, 70, 127
1, 36195, Note_off_c, 1, 58, 0
1, 36197, Note_on_c, 1, 57, 127
1, 36277, Note_off_c, 1, 70, 0
1, 36277, Note_off_c, 1, 57, 0
1, 36279, Note_on_c, 1, 72, 127
1, 36279, Note_on_c, 1, 58, 127
1, 36441, Note_off_c, 1, 72, 0
1, 36443, Note_on_c, 1, 74, 127
1, 36605, Note_off_c, 1, 58, 0
1, 36605, Note_off_c, 1, 74, 0
1, 36607, Note_on_c, 1, 70, 127
1, 36607, Note_on_c, 1, 58, 127
1, 36769, Note_off_c, 1, 70, 0
1, 36769, Note_off_c, 1, 58, 0
1, 36771, Note_on_c, 1, 75, 127
1, 36771, Note_on_c, 1, 58, 127
1, 36933, Note_off_c, 1, 75, 0
1, 36936, Note_on_c, 1, 77, 127
1, 37098, Note_off_c, 1, 77, 0
1, 37261, Note_off_c, 1, 58, 0
1, 37264, Note_on_c, 1, 74, 127
1, 37264, Note_on_c, 1, 60, 127
1, 37426, Note_off_c, 1, 74, 0
1, 37426, Note_off_c, 1, 60, 0
1, 37428, Note_on_c, 1, 58, 127
1, 37428, Note_on_c, 1, 72, 127
1, 37508, Note_off_c, 1, 58, 0
1, 37510, Note_on_c, 1, 57, 127
1, 37590, Note_off_c, 1, 72, 0
1, 37590, Note_off_c, 1, 57, 0
1, 37592, Note_on_c, 1, 58, 127
1, 37592, Note_on_c, 1, 77, 127
1, 37672, Note_off_c, 1, 58, 0
1, 37674, Note_on_c, 1, 57, 127
1, 37754, Note_off_c, 1, 77, 0
1, 37754, Note_off_c, 1, 57, 0
1, 37756, Note_on_c, 1, 58, 127
1, 37756, Note_on_c, 1, 75, 127
1, 37836, Note_off_c, 1, 58, 0
1, 37838, Note_on_c, 1, 57, 127
1, 37918, Note_off_c, 1, 75, 0
1, 37918, Note_off_c, 1, 57, 0
1, 37920, Note_on_c, 1, 55, 127
1, 37920, Note_on_c, 1, 77, 127
1, 38000, Note_off_c, 1, 55, 0
1, 38003, Note_on_c, 1, 57, 127
1, 38082, Note_off_c, 1, 77, 0
1, 38083, Note_off_c, 1, 57, 0
1, 38085, Note_on_c, 1, 58, 127
1, 38085, Note_on_c, 1, 74, 127
1, 38247, Note_off_c, 1, 58, 0
1, 38249, Note_on_c, 1, 50, 127
1, 38411, Note_off_c, 1, 50, 0
1, 38413, Note_on_c, 1, 52, 127
1, 38413, Note_on_c, 1, 70, 127
1, 38575, Note_off_c, 1, 52, 0
1, 38577, Note_on_c, 1, 53, 127
1, 38585, Note_off_c, 1, 74, 0
1, 38663, Note_off_c, 1, 70, 0
1, 38739, Note_off_c, 1, 53, 0
1, 38741, Note_on_c, 1, 55, 127
1, 38741, Note_on_c, 1, 74, 127
1, 38743, Note_on_c, 1, 79, 127
1, 38745, Note_on_c, 1, 82, 127
1, 38903, Note_off_c, 1, 55, 0
1, 38905, Note_on_c, 1, 57, 127
1, 39067, Note_off_c, 1, 57, 0
1, 39070, Note_on_c, 1, 58, 127
1, 39231, Note_off_c, 1, 74, 0
1, 39231, Note_off_c, 1, 79, 0
1, 39231, Note_off_c, 1, 82, 0
1, 39232, Note_off_c, 1, 58, 0
1, 39234, Note_on_c, 1, 74, 127
1, 39234, Note_on_c, 1, 79, 127
1, 39234, Note_on_c, 1, 82, 127
1, 39234, Note_on_c, 1, 55, 127
1, 39390, Note_off_c, 1, 74, 0
1, 39390, Note_off_c, 1, 79, 0
1, 39390, Note_off_c, 1, 82, 0
1, 39390, Note_off_c, 1, 55, 0
1, 39398, Note_on_c, 1, 60, 127
1, 39398, Note_on_c, 1, 76, 127
1, 39400, Note_on_c, 1, 79, 127
1, 39401, Note_on_c, 1, 82, 127
1, 39560, Note_off_c, 1, 60, 0
1, 39562, Note_on_c, 1, 48, 127
1, 39724, Note_off_c, 1, 48, 0
1, 39726, Note_on_c, 1, 50, 127
1, 39888, Note_off_c, 1, 76, 0
1, 39888, Note_off_c, 1, 50, 0
1, 39890, Note_on_c, 1, 84, 127
1, 39890, Note_on_c, 1, 52, 127
1, 39891, Note_off_c, 1, 82, 0
1, 40052, Note_off_c, 1, 79, 0
1, 40052, Note_off_c, 1, 84, 0
1, 40052, Note_off_c, 1, 52, 0
1, 40055, Note_on_c, 1, 53, 127
1, 40055, Note_on_c, 1, 76, 127
1, 40056, Note_on_c, 1, 77, 127
1, 40058, Note_on_c, 1, 81, 127
1, 40217, Note_off_c, 1, 53, 0
1, 40219, Note_on_c, 1, 55, 127
1, 40381, Note_off_c, 1, 55, 0
1, 40383, Note_on_c, 1, 57, 127
1, 40524, Note_off_c, 1, 81, 0
1, 40545, Note_off_c, 1, 76, 0
1, 40545, Note_off_c, 1, 57, 0
1, 40546, Note_off_c, 1, 77, 0
1, 40547, Note_on_c, 1, 81, 127
1, 40547, Note_on_c, 1, 76, 127
1, 40547, Note_on_c, 1, 77, 127
1, 40547, Note_on_c, 1, 53, 127
1, 40709, Note_off_c, 1, 81, 0
1, 40709, Note_off_c, 1, 76, 0
1, 40709, Note_off_c, 1, 77, 0
1, 40709, Note_off_c, 1, 53, 0
1, 40711, Note_on_c, 1, 58, 127
1, 40711, Note_on_c, 1, 81, 127
1, 40711, Note_on_c, 1, 74, 127
1, 40711, Note_on_c, 1, 77, 127
1, 40873, Note_off_c, 1, 58, 0
1, 40875, Note_on_c, 1, 57, 127
1, 41037, Note_off_c, 1, 81, 0
1, 41037, Note_off_c, 1, 74, 0
1, 41037, Note_off_c, 1, 57, 0
1, 41040, Note_on_c, 1, 55, 127
1, 41202, Note_off_c, 1, 55, 0
1, 41204, Note_on_c, 1, 53, 127
1, 41360, Note_off_c, 1, 77, 0
1, 41366, Note_off_c, 1, 53, 0
1, 41368, Note_on_c, 1, 52, 127
1, 41368, Note_on_c, 1, 79, 127
1, 41368, Note_on_c, 1, 74, 127
1, 41530, Note_off_c, 1, 52, 0
1, 41532, Note_on_c, 1, 50, 127
1, 41694, Note_off_c, 1, 50, 0
1, 41696, Note_on_c, 1, 48, 127
1, 41858, Note_off_c, 1, 79, 0
1, 41858, Note_off_c, 1, 74, 0
1, 41858, Note_off_c, 1, 48, 0
1, 41860, Note_on_c, 1, 79, 127
1, 41860, Note_on_c, 1, 74, 127
1, 41860, Note_on_c, 1, 46, 127
1, 42022, Note_off_c, 1, 79, 0
1, 42022, Note_off_c, 1, 74, 0
1, 42022, Note_off_c, 1, 46, 0
1, 42024, Note_on_c, 1, 45, 127
1, 42024, Note_on_c, 1, 72, 127
1, 42024, Note_on_c, 1, 79, 127
1, 42186, Note_off_c, 1, 45, 0
1, 42189, Note_on_c, 1, 46, 127
1, 42351, Note_off_c, 1, 46, 0
1, 42353, Note_on_c, 1, 48, 127
1, 42514, Note_off_c, 1, 72, 0
1, 42514, Note_off_c, 1, 79, 0
1, 42515, Note_off_c, 1, 48, 0
1, 42517, Note_on_c, 1, 72, 127
1, 42517, Note_on_c, 1, 81, 127
1, 42517, Note_on_c, 1, 52, 127
1, 42679, Note_off_c, 1, 72, 0
1, 42679, Note_off_c, 1, 81, 0
1, 42679, Note_off_c, 1, 52, 0
1, 42681, Note_on_c, 1, 50, 127
1, 42681, Note_on_c, 1, 72, 127
1, 42681, Note_on_c, 1, 77, 127
1, 42843, Note_off_c, 1, 50, 0
1, 42845, Note_on_c, 1, 52, 127
1, 43007, Note_off_c, 1, 52, 0
1, 43009, Note_on_c, 1, 53, 127
1, 43171, Note_off_c, 1, 72, 0
1, 43171, Note_off_c, 1, 77, 0
1, 43171, Note_off_c, 1, 53, 0
1, 43174, Note_on_c, 1, 77, 127
1, 43174, Note_on_c, 1, 72, 127
1, 43174, Note_on_c, 1, 57, 127
1, 43336, Note_off_c, 1, 77, 0
1, 43336, Note_off_c, 1, 72, 0
1, 43336, Note_off_c, 1, 57, 0
1, 43338, Note_on_c, 1, 55, 127
1, 43338, Note_on_c, 1, 77, 127
1, 43338, Note_on_c, 1, 70, 127
1, 43500, Note_off_c, 1, 55, 0
1, 43502, Note_on_c, 1, 43, 127
1, 43664, Note_off_c, 1, 43, 0
1, 43666, Note_on_c, 1, 45, 127
1, 43828, Note_off_c, 1, 77, 0
1, 43828, Note_off_c, 1, 70, 0
1, 43828, Note_off_c, 1, 45, 0
1, 43830, Note_on_c, 1, 79, 127
1, 43830, Note_on_c, 1, 70, 127
1, 43830, Note_on_c, 1, 46, 127
1, 43992, Note_off_c, 1, 79, 0
1, 43992, Note_off_c, 1, 70, 0
1, 43992, Note_off_c, 1, 46, 0
1, 43994, Note_on_c, 1, 77, 127
1, 43994, Note_on_c, 1, 48, 127
1, 43994, Note_on_c, 1, 70, 127
1, 44103, Note_off_c, 1, 77, 0
1, 44104, Note_on_c, 1, 76, 127
1, 44156, Note_off_c, 1, 48, 0
1, 44159, Note_on_c, 1, 45, 127
1, 44170, Note_off_c, 1, 76, 0
1, 44321, Note_off_c, 1, 45, 0
1, 44323, Note_on_c, 1, 46, 127
1, 44484, Note_off_c, 1, 70, 0
1, 44485, Note_off_c, 1, 46, 0
1, 44651, Note_on_c, 1, 69, 127
1, 44651, Note_on_c, 1, 77, 127
1, 44651, Note_on_c, 1, 38, 127
1, 44977, Note_off_c, 1, 69, 0
1, 44977, Note_off_c, 1, 77, 0
1, 44979, Note_on_c, 1, 62, 127
1, 45141, Note_off_c, 1, 62, 0
1, 45144, Note_on_c, 1, 64, 127
1, 45306, Note_off_c, 1, 64, 0
1, 45308, Note_on_c, 1, 65, 127
1, 45470, Note_off_c, 1, 65, 0
1, 45471, Note_off_c, 1, 38, 0
1, 45472, Note_on_c, 1, 67, 127
1, 45634, Note_off_c, 1, 67, 0
1, 45636, Note_on_c, 1, 69, 127
1, 45636, Note_on_c, 1, 50, 127
1, 45798, Note_off_c, 1, 69, 0
1, 45800, Note_on_c, 1, 65, 127
1, 45962, Note_off_c, 1, 50, 0
1, 45962, Note_off_c, 1, 65, 0
1, 45964, Note_on_c, 1, 70, 127
1, 45964, Note_on_c, 1, 55, 127
1, 46126, Note_off_c, 1, 70, 0
1, 46126, Note_off_c, 1, 55, 0
1, 46128, Note_on_c, 1, 72, 127
1, 46128, Note_on_c, 1, 57, 127
1, 46290, Note_off_c, 1, 72, 0
1, 46290, Note_off_c, 1, 57, 0
1, 46293, Note_on_c, 1, 70, 127
1, 46293, Note_on_c, 1, 55, 127
1, 46455, Note_off_c, 1, 70, 0
1, 46455, Note_off_c, 1, 55, 0
1, 46457, Note_on_c, 1, 69, 127
1, 46457, Note_on_c, 1, 53, 127
1, 46619, Note_off_c, 1, 69, 0
1, 46619, Note_off_c, 1, 53, 0
1, 46621, Note_on_c, 1, 67, 127
1, 46621, Note_on_c, 1, 52, 127
1, 46783, Note_off_c, 1, 67, 0
1, 46783, Note_off_c, 1, 52, 0
1, 46785, Note_on_c, 1, 72, 127
1, 46785, Note_on_c, 1, 48, 127
1, 46947, Note_off_c, 1, 72, 0
1, 46947, Note_off_c, 1, 48, 0
1, 46949, Note_on_c, 1, 70, 127
1, 46949, Note_on_c, 1, 50, 127
1, 47111, Note_off_c, 1, 70, 0
1, 47111, Note_off_c, 1, 50, 0
1, 47113, Note_on_c, 1, 72, 127
1, 47113, Note_on_c, 1, 52, 127
1, 47275, Note_off_c, 1, 72, 0
1, 47275, Note_off_c, 1, 52, 0
1, 47278, Note_on_c, 1, 53, 127
1, 47278, Note_on_c, 1, 69, 127
1, 47440, Note_off_c, 1, 53, 0
1, 47442, Note_on_c, 1, 55, 127
1, 47548, Note_off_c, 1, 69, 0
1, 47604, Note_off_c, 1, 55, 0
1, 47606, Note_on_c, 1, 53, 127
1, 47606, Note_on_c, 1, 60, 127
1, 47768, Note_off_c, 1, 53, 0
1, 47770, Note_on_c, 1, 52, 127
1, 47876, Note_off_c, 1, 60, 0
1, 47932, Note_off_c, 1, 52, 0
1, 47934, Note_on_c, 1, 65, 127
1, 47934, Note_on_c, 1, 50, 127
1, 48016, Note_on_c, 1, 64, 127
1, 48022, Note_off_c, 1, 65, 0
1, 48096, Note_off_c, 1, 50, 0
1, 48098, Note_on_c, 1, 48, 127
1, 48104, Note_off_c, 1, 64, 0
1, 48260, Note_off_c, 1, 48, 0
1, 48263, Note_on_c, 1, 46, 127
1, 48425, Note_off_c, 1, 46, 0
1, 48427, Note_on_c, 1, 60, 127
1, 48427, Note_on_c, 1, 65, 127
1, 48427, Note_on_c, 1, 57, 127
1, 48427, Note_on_c, 1, 45, 127
1, 48589, Note_off_c, 1, 60, 0
1, 48589, Note_off_c, 1, 65, 0
1, 48589, Note_off_c, 1, 57, 0
1, 48589, Note_off_c, 1, 45, 0
1, 48591, Note_on_c, 1, 62, 127
1, 48591, Note_on_c, 1, 46, 127
1, 48591, Note_on_c, 1, 55, 127
1, 48591, Note_on_c, 1, 65, 127
1, 48753, Note_off_c, 1, 62, 0
1, 48755, Note_on_c, 1, 60, 127
1, 48917, Note_off_c, 1, 46, 0
1, 48917, Note_off_c, 1, 60, 0
1, 48919, Note_on_c, 1, 58, 127
1, 48919, Note_on_c, 1, 43, 127
1, 49069, Note_off_c, 1, 55, 0
1, 49081, Note_off_c, 1, 58, 0
1, 49083, Note_on_c, 1, 57, 127
1, 49240, Note_off_c, 1, 65, 0
1, 49245, Note_off_c, 1, 43, 0
1, 49245, Note_off_c, 1, 57, 0
1, 49248, Note_on_c, 1, 55, 127
1, 49248, Note_on_c, 1, 48, 127
1, 49248, Note_on_c, 1, 64, 127
1, 49412, Note_on_c, 1, 60, 127
1, 49572, Note_off_c, 1, 55, 0
1, 49574, Note_off_c, 1, 48, 0
1, 49574, Note_off_c, 1, 60, 0
1, 49576, Note_on_c, 1, 58, 127
1, 49576, Note_on_c, 1, 36, 127
1, 49726, Note_off_c, 1, 64, 0
1, 49738, Note_off_c, 1, 58, 0
1, 49902, Note_off_c, 1, 36, 0
1, 49904, Note_on_c, 1, 41, 127
1, 49904, Note_on_c, 1, 57, 127
1, 49904, Note_on_c, 1, 65, 127
1, 50230, Note_off_c, 1, 41, 0
1, 50232, Note_on_c, 1, 53, 127
1, 50394, Note_off_c, 1, 53, 0
1, 50397, Note_on_c, 1, 52, 127
1, 50553, Note_off_c, 1, 57, 0
1, 50559, Note_off_c, 1, 52, 0
1, 50725, Note_on_c, 1, 77, 127
1, 50887, Note_off_c, 1, 65, 0
1, 50887, Note_off_c, 1, 77, 0
1, 50889, Note_on_c, 1, 76, 127
1, 50889, Note_on_c, 1, 55, 127
1, 51053, Note_on_c, 1, 77, 127
1, 51077, Note_off_c, 1, 76, 0
1, 51215, Note_off_c, 1, 55, 0
1, 51215, Note_off_c, 1, 77, 0
1, 51217, Note_on_c, 1, 72, 127
1, 51217, Note_on_c, 1, 57, 127
1, 51382, Note_on_c, 1, 77, 127
1, 51422, Note_off_c, 1, 72, 0
1, 51543, Note_off_c, 1, 57, 0
1, 51544, Note_off_c, 1, 77, 0
1, 51546, Note_on_c, 1, 74, 127
1, 51546, Note_on_c, 1, 58, 127
1, 51710, Note_on_c, 1, 77, 127
1, 51751, Note_off_c, 1, 74, 0
1, 51872, Note_off_c, 1, 58, 0
1, 51872, Note_off_c, 1, 77, 0
1, 51874, Note_on_c, 1, 72, 127
1, 51874, Note_on_c, 1, 57, 127
1, 52038, Note_on_c, 1, 77, 127
1, 52079, Note_off_c, 1, 72, 0
1, 52200, Note_off_c, 1, 57, 0
1, 52200, Note_off_c, 1, 77, 0
1, 52202, Note_on_c, 1, 70, 127
1, 52202, Note_on_c, 1, 55, 127
1, 52367, Note_on_c, 1, 77, 127
1, 52407, Note_off_c, 1, 70, 0
1, 52528, Note_off_c, 1, 55, 0
1, 52529, Note_off_c, 1, 77, 0
1, 52531, Note_on_c, 1, 69, 127
1, 52531, Note_on_c, 1, 53, 127
1, 52695, Note_on_c, 1, 77, 127
1, 52736, Note_off_c, 1, 69, 0
1, 52857, Note_off_c, 1, 77, 0
1, 52859, Note_on_c, 1, 70, 127
1, 52859, Note_on_c, 1, 62, 127
1, 53021, Note_off_c, 1, 70, 0
1, 53185, Note_off_c, 1, 62, 0
1, 53187, Note_on_c, 1, 60, 127
1, 53513, Note_off_c, 1, 60, 0
1, 53516, Note_on_c, 1, 67, 127
1, 53516, Note_on_c, 1, 58, 127
1, 53678, Note_off_c, 1, 67, 0
1, 53842, Note_off_c, 1, 58, 0
1, 53844, Note_on_c, 1, 65, 127
1, 53844, Note_on_c, 1, 57, 127
1, 54006, Note_off_c, 1, 65, 0
1, 54170, Note_off_c, 1, 57, 0
1, 54498, Note_off_c, 1, 53, 0
1, 54501, Note_on_c, 1, 69, 127
1, 54501, Note_on_c, 1, 60, 127
1, 54501, Note_on_c, 1, 52, 127
1, 54663, Note_off_c, 1, 69, 0
1, 54665, Note_on_c, 1, 77, 127
1, 54827, Note_off_c, 1, 60, 0
1, 54827, Note_off_c, 1, 52, 0
1, 54827, Note_off_c, 1, 77, 0
1, 54829, Note_on_c, 1, 71, 127
1, 54829, Note_on_c, 1, 62, 127
1, 54829, Note_on_c, 1, 50, 127
1, 54991, Note_off_c, 1, 71, 0
1, 54993, Note_on_c, 1, 77, 127
1, 55155, Note_off_c, 1, 62, 0
1, 55155, Note_off_c, 1, 50, 0
1, 55155, Note_off_c, 1, 77, 0
1, 55157, Note_on_c, 1, 76, 127
1, 55157, Note_on_c, 1, 72, 127
1, 55157, Note_on_c, 1, 48, 127
1, 55157, Note_on_c, 1, 55, 127
1, 55319, Note_off_c, 1, 76, 0
1, 55319, Note_off_c, 1, 72, 0
1, 55321, Note_on_c, 1, 67, 127
1, 55483, Note_off_c, 1, 67, 0
1, 55486, Note_on_c, 1, 69, 127
1, 55648, Note_off_c, 1, 69, 0
1, 55650, Note_on_c, 1, 71, 127
1, 55806, Note_off_c, 1, 48, 0
1, 55812, Note_off_c, 1, 71, 0
1, 55976, Note_off_c, 1, 55, 0
1, 55978, Note_on_c, 1, 74, 127
1, 55978, Note_on_c, 1, 60, 127
1, 56140, Note_off_c, 1, 74, 0
1, 56140, Note_off_c, 1, 60, 0
1, 56142, Note_on_c, 1, 76, 127
1, 56142, Note_on_c, 1, 59, 127
1, 56222, Note_off_c, 1, 76, 0
1, 56224, Note_on_c, 1, 74, 127
1, 56304, Note_off_c, 1, 59, 0
1, 56304, Note_off_c, 1, 74, 0
1, 56306, Note_on_c, 1, 72, 127
1, 56306, Note_on_c, 1, 60, 127
1, 56386, Note_off_c, 1, 72, 0
1, 56388, Note_on_c, 1, 74, 127
1, 56468, Note_off_c, 1, 60, 0
1, 56468, Note_off_c, 1, 74, 0
1, 56471, Note_on_c, 1, 55, 127
1, 56471, Note_on_c, 1, 76, 127
1, 56633, Note_off_c, 1, 55, 0
1, 56635, Note_on_c, 1, 60, 127
1, 56797, Note_off_c, 1, 76, 0
1, 56797, Note_off_c, 1, 60, 0
1, 56799, Note_on_c, 1, 57, 127
1, 56799, Note_on_c, 1, 77, 127
1, 56961, Note_off_c, 1, 57, 0
1, 56963, Note_on_c, 1, 60, 127
1, 57125, Note_off_c, 1, 77, 0
1, 57125, Note_off_c, 1, 60, 0
1, 57127, Note_on_c, 1, 55, 127
1, 57127, Note_on_c, 1, 76, 127
1, 57289, Note_off_c, 1, 55, 0
1, 57291, Note_on_c, 1, 60, 127
1, 57453, Note_off_c, 1, 76, 0
1, 57453, Note_off_c, 1, 60, 0
1, 57456, Note_on_c, 1, 53, 127
1, 57456, Note_on_c, 1, 74, 127
1, 57618, Note_off_c, 1, 53, 0
1, 57620, Note_on_c, 1, 60, 127
1, 57782, Note_off_c, 1, 74, 0
1, 57782, Note_off_c, 1, 60, 0
1, 57784, Note_on_c, 1, 52, 127
1, 57784, Note_on_c, 1, 72, 127
1, 57946, Note_off_c, 1, 52, 0
1, 57948, Note_on_c, 1, 60, 127
1, 58110, Note_off_c, 1, 60, 0
1, 58112, Note_on_c, 1, 53, 127
1, 58112, Note_on_c, 1, 81, 127
1, 58274, Note_off_c, 1, 53, 0
1, 58438, Note_off_c, 1, 81, 0
1, 58440, Note_on_c, 1, 79, 127
1, 58766, Note_off_c, 1, 79, 0
1, 58769, Note_on_c, 1, 50, 127
1, 58769, Note_on_c, 1, 77, 127
1, 58931, Note_off_c, 1, 50, 0
1, 59095, Note_off_c, 1, 77, 0
1, 59097, Note_on_c, 1, 48, 127
1, 59097, Note_on_c, 1, 76, 127
1, 59259, Note_off_c, 1, 48, 0
1, 59423, Note_off_c, 1, 76, 0
1, 59751, Note_off_c, 1, 72, 0
1, 59754, Note_on_c, 1, 52, 127
1, 59754, Note_on_c, 1, 71, 127
1, 59754, Note_on_c, 1, 79, 127
1, 59916, Note_off_c, 1, 52, 0
1, 59918, Note_on_c, 1, 60, 127
1, 60080, Note_off_c, 1, 71, 0
1, 60080, Note_off_c, 1, 79, 0
1, 60080, Note_off_c, 1, 60, 0
1, 60082, Note_on_c, 1, 53, 127
1, 60082, Note_on_c, 1, 81, 127
1, 60082, Note_on_c, 1, 69, 127
1, 60244, Note_off_c, 1, 53, 0
1, 60246, Note_on_c, 1, 60, 127
1, 60408, Note_off_c, 1, 81, 0
1, 60408, Note_off_c, 1, 69, 0
1, 60408, Note_off_c, 1, 60, 0
1, 60410, Note_on_c, 1, 71, 127
1, 60410, Note_on_c, 1, 55, 127
1, 60410, Note_on_c, 1, 59, 127
1, 60410, Note_on_c, 1, 74, 127
1, 60575, Note_on_c, 1, 67, 127
1, 60734, Note_off_c, 1, 71, 0
1, 60736, Note_off_c, 1, 55, 0
1, 60736, Note_off_c, 1, 59, 0
1, 60737, Note_off_c, 1, 67, 0
1, 60739, Note_on_c, 1, 43, 127
1, 60888, Note_off_c, 1, 74, 0
1, 61217, Note_off_c, 1, 43, 0
1, 61395, Note_on_c, 1, 71, 127
1, 61395, Note_on_c, 1, 55, 127
1, 61557, Note_off_c, 1, 71, 0
1, 61560, Note_on_c, 1, 74, 127
1, 61721, Note_off_c, 1, 55, 0
1, 61722, Note_off_c, 1, 74, 0
1, 61724, Note_on_c, 1, 77, 127
1, 61724, Note_on_c, 1, 50, 127
1, 61888, Note_on_c, 1, 62, 127
1, 62048, Note_off_c, 1, 77, 0
1, 62050, Note_off_c, 1, 62, 0
1, 62052, Note_on_c, 1, 65, 127
1, 62214, Note_off_c, 1, 65, 0
1, 62216, Note_on_c, 1, 69, 127
1, 62373, Note_off_c, 1, 50, 0
1, 62378, Note_off_c, 1, 69, 0
1, 62380, Note_on_c, 1, 65, 127
1, 62380, Note_on_c, 1, 77, 127
1, 62542, Note_off_c, 1, 65, 0
1, 62544, Note_on_c, 1, 62, 127
1, 62704, Note_off_c, 1, 77, 0
1, 62706, Note_off_c, 1, 62, 0
1, 62709, Note_on_c, 1, 65, 127
1, 62709, Note_on_c, 1, 77, 127
1, 62871, Note_off_c, 1, 65, 0
1, 62873, Note_on_c, 1, 69, 127
1, 63033, Note_off_c, 1, 77, 0
1, 63035, Note_off_c, 1, 69, 0
1, 63037, Note_on_c, 1, 71, 127
1, 63037, Note_on_c, 1, 77, 127
1, 63201, Note_on_c, 1, 55, 127
1, 63363, Note_off_c, 1, 71, 0
1, 63363, Note_off_c, 1, 77, 0
1, 63363, Note_off_c, 1, 55, 0
1, 63365, Note_on_c, 1, 59, 127
1, 63365, Note_on_c, 1, 74, 127
1, 63365, Note_on_c, 1, 77, 127
1, 63527, Note_off_c, 1, 59, 0
1, 63529, Note_on_c, 1, 62, 127
1, 63691, Note_off_c, 1, 74, 0
1, 63691, Note_off_c, 1, 77, 0
1, 63691, Note_off_c, 1, 62, 0
1, 63694, Note_on_c, 1, 59, 127
1, 63694, Note_on_c, 1, 74, 127
1, 63694, Note_on_c, 1, 77, 127
1, 63856, Note_off_c, 1, 59, 0
1, 63858, Note_on_c, 1, 55, 127
1, 64020, Note_off_c, 1, 74, 0
1, 64020, Note_off_c, 1, 77, 0
1, 64020, Note_off_c, 1, 55, 0
1, 64022, Note_on_c, 1, 59, 127
1, 64022, Note_on_c, 1, 74, 127
1, 64022, Note_on_c, 1, 77, 127
1, 64184, Note_off_c, 1, 59, 0
1, 64186, Note_on_c, 1, 62, 127
1, 64348, Note_off_c, 1, 74, 0
1, 64348, Note_off_c, 1, 77, 0
1, 64350, Note_on_c, 1, 67, 127
1, 64350, Note_on_c, 1, 76, 127
1, 64425, Note_off_c, 1, 62, 0
1, 64514, Note_on_c, 1, 48, 127
1, 64676, Note_off_c, 1, 67, 0
1, 64676, Note_off_c, 1, 76, 0
1, 64676, Note_off_c, 1, 48, 0
1, 64679, Note_on_c, 1, 52, 127
1, 64679, Note_on_c, 1, 76, 127
1, 64679, Note_on_c, 1, 74, 127
1, 64679, Note_on_c, 1, 67, 127
1, 64841, Note_off_c, 1, 52, 0
1, 64843, Note_on_c, 1, 55, 127
1, 65005, Note_off_c, 1, 76, 0
1, 65005, Note_off_c, 1, 74, 0
1, 65005, Note_off_c, 1, 67, 0
1, 65005, Note_off_c, 1, 55, 0
1, 65007, Note_on_c, 1, 52, 127
1, 65007, Note_on_c, 1, 76, 127
1, 65007, Note_on_c, 1, 67, 127
1, 65007, Note_on_c, 1, 72, 127
1, 65169, Note_off_c, 1, 52, 0
1, 65171, Note_on_c, 1, 48, 127
1, 65333, Note_off_c, 1, 76, 0
1, 65333, Note_off_c, 1, 67, 0
1, 65333, Note_off_c, 1, 72, 0
1, 65333, Note_off_c, 1, 48, 0
1, 65335, Note_on_c, 1, 52, 127
1, 65335, Note_on_c, 1, 72, 127
1, 65335, Note_on_c, 1, 76, 127
1, 65335, Note_on_c, 1, 67, 127
1, 65497, Note_off_c, 1, 52, 0
1, 65499, Note_on_c, 1, 55, 127
1, 65661, Note_off_c, 1, 72, 0
1, 65661, Note_off_c, 1, 76, 0
1, 65661, Note_off_c, 1, 67, 0
1, 65661, Note_off_c, 1, 55, 0
1, 65664, Note_on_c, 1, 57, 127
1, 65664, Note_on_c, 1, 76, 127
1, 65664, Note_on_c, 1, 65, 127
1, 65664, Note_on_c, 1, 72, 127
1, 65826, Note_off_c, 1, 57, 0
1, 65828, Note_on_c, 1, 41, 127
1, 65990, Note_off_c, 1, 76, 0
1, 65990, Note_off_c, 1, 65, 0
1, 65990, Note_off_c, 1, 72, 0
1, 65990, Note_off_c, 1, 41, 0
1, 65992, Note_on_c, 1, 45, 127
1, 65992, Note_on_c, 1, 65, 127
1, 65992, Note_on_c, 1, 72, 127
1, 65992, Note_on_c, 1, 76, 127
1, 66154, Note_off_c, 1, 45, 0
1, 66156, Note_on_c, 1, 48, 127
1, 66318, Note_off_c, 1, 65, 0
1, 66318, Note_off_c, 1, 72, 0
1, 66318, Note_off_c, 1, 76, 0
1, 66318, Note_off_c, 1, 48, 0
1, 66320, Note_on_c, 1, 45, 127
1, 66320, Note_on_c, 1, 76, 127
1, 66320, Note_on_c, 1, 65, 127
1, 66320, Note_on_c, 1, 72, 127
1, 66482, Note_off_c, 1, 45, 0
1, 66484, Note_on_c, 1, 41, 127
1, 66646, Note_off_c, 1, 76, 0
1, 66646, Note_off_c, 1, 65, 0
1, 66646, Note_off_c, 1, 72, 0
1, 66646, Note_off_c, 1, 41, 0
1, 66648, Note_on_c, 1, 45, 127
1, 66648, Note_on_c, 1, 65, 127
1, 66648, Note_on_c, 1, 72, 127
1, 66648, Note_on_c, 1, 76, 127
1, 66810, Note_off_c, 1, 45, 0
1, 66813, Note_on_c, 1, 48, 127
1, 66974, Note_off_c, 1, 65, 0
1, 66974, Note_off_c, 1, 72, 0
1, 66974, Note_off_c, 1, 76, 0
1, 66975, Note_off_c, 1, 48, 0
1, 66977, Note_on_c, 1, 47, 127
1, 66977, Note_on_c, 1, 67, 127
1, 66977, Note_on_c, 1, 74, 127
1, 66977, Note_on_c, 1, 65, 127
1, 67139, Note_off_c, 1, 47, 0
1, 67141, Note_on_c, 1, 43, 127
1, 67303, Note_off_c, 1, 67, 0
1, 67303, Note_off_c, 1, 74, 0
1, 67303, Note_off_c, 1, 65, 0
1, 67303, Note_off_c, 1, 43, 0
1, 67305, Note_on_c, 1, 47, 127
1, 67305, Note_on_c, 1, 67, 127
1, 67305, Note_on_c, 1, 74, 127
1, 67305, Note_on_c, 1, 65, 127
1, 67467, Note_off_c, 1, 47, 0
1, 67469, Note_on_c, 1, 50, 127
1, 67631, Note_off_c, 1, 67, 0
1, 67631, Note_off_c, 1, 74, 0
1, 67631, Note_off_c, 1, 65, 0
1, 67631, Note_off_c, 1, 50, 0
1, 67633, Note_on_c, 1, 47, 127
1, 67633, Note_on_c, 1, 74, 127
1, 67633, Note_on_c, 1, 65, 127
1, 67633, Note_on_c, 1, 67, 127
1, 67795, Note_off_c, 1, 47, 0
1, 67798, Note_on_c, 1, 43, 127
1, 67959, Note_off_c, 1, 74, 0
1, 67959, Note_off_c, 1, 65, 0
1, 67959, Note_off_c, 1, 67, 0
1, 67960, Note_off_c, 1, 43, 0
1, 67962, Note_on_c, 1, 47, 127
1, 67962, Note_on_c, 1, 74, 127
1, 67962, Note_on_c, 1, 65, 127
1, 67962, Note_on_c, 1, 67, 127
1, 68124, Note_off_c, 1, 47, 0
1, 68126, Note_on_c, 1, 50, 127
1, 68288, Note_off_c, 1, 74, 0
1, 68288, Note_off_c, 1, 65, 0
1, 68288, Note_off_c, 1, 67, 0
1, 68288, Note_off_c, 1, 50, 0
1, 68290, Note_on_c, 1, 67, 127
1, 68290, Note_on_c, 1, 74, 127
1, 68290, Note_on_c, 1, 65, 127
1, 68290, Note_on_c, 1, 40, 127
1, 68616, Note_off_c, 1, 67, 0
1, 68616, Note_off_c, 1, 74, 0
1, 68616, Note_off_c, 1, 65, 0
1, 68616, Note_off_c, 1, 40, 0
1, 68618, Note_on_c, 1, 52, 127
1, 68618, Note_on_c, 1, 72, 127
1, 68618, Note_on_c, 1, 64, 127
1, 68618, Note_on_c, 1, 67, 127
1, 68780, Note_off_c, 1, 52, 0
1, 68783, Note_on_c, 1, 53, 127
1, 68944, Note_off_c, 1, 72, 0
1, 68944, Note_off_c, 1, 64, 0
1, 68944, Note_off_c, 1, 67, 0
1, 68945, Note_off_c, 1, 53, 0
1, 68947, Note_on_c, 1, 62, 127
1, 68947, Note_on_c, 1, 67, 127
1, 68947, Note_on_c, 1, 72, 127
1, 68947, Note_on_c, 1, 55, 127
1, 69273, Note_off_c, 1, 62, 0
1, 69273, Note_off_c, 1, 67, 0
1, 69273, Note_off_c, 1, 72, 0
1, 69273, Note_off_c, 1, 55, 0
1, 69275, Note_on_c, 1, 72, 127
1, 69275, Note_on_c, 1, 62, 127
1, 69275, Note_on_c, 1, 67, 127
1, 69275, Note_on_c, 1, 43, 127
1, 69355, Note_off_c, 1, 72, 0
1, 69357, Note_on_c, 1, 71, 127
1, 69437, Note_off_c, 1, 71, 0
1, 69439, Note_on_c, 1, 69, 127
1, 69519, Note_off_c, 1, 69, 0
1, 69601, Note_off_c, 1, 62, 0
1, 69601, Note_off_c, 1, 67, 0
1, 69601, Note_off_c, 1, 43, 0
1, 69603, Note_on_c, 1, 67, 127
1, 69603, Note_on_c, 1, 72, 127
1, 69603, Note_on_c, 1, 64, 127
1, 69603, Note_on_c, 1, 36, 127
1, 69765, Note_off_c, 1, 67, 0
1, 69765, Note_off_c, 1, 72, 0
1, 69768, Note_on_c, 1, 55, 127
1, 69930, Note_off_c, 1, 55, 0
1, 69932, Note_on_c, 1, 57, 127
1, 70094, Note_off_c, 1, 57, 0
1, 70096, Note_on_c, 1, 59, 127
1, 70252, Note_off_c, 1, 64, 0
1, 70257, Note_off_c, 1, 36, 0
1, 70258, Note_off_c, 1, 59, 0
1, 70260, Note_on_c, 1, 48, 127
1, 70260, Note_on_c, 1, 60, 127
1, 70340, Note_off_c, 1, 48, 0
1, 70342, Note_on_c, 1, 47, 127
1, 70422, Note_off_c, 1, 60, 0
1, 70422, Note_off_c, 1, 47, 0
1, 70424, Note_on_c, 1, 62, 127
1, 70424, Note_on_c, 1, 48, 127
1, 70586, Note_off_c, 1, 62, 0
1, 70588, Note_on_c, 1, 64, 127
1, 70750, Note_off_c, 1, 48, 0
1, 70750, Note_off_c, 1, 64, 0
1, 70752, Note_on_c, 1, 60, 127
1, 70752, Note_on_c, 1, 48, 127
1, 70914, Note_off_c, 1, 60, 0
1, 70914, Note_off_c, 1, 48, 0
1, 70917, Note_on_c, 1, 65, 127
1, 70917, Note_on_c, 1, 48, 127
1, 71079, Note_off_c, 1, 65, 0
1, 71081, Note_on_c, 1, 67, 127
1, 71243, Note_off_c, 1, 67, 0
1, 71407, Note_off_c, 1, 48, 0
1, 71409, Note_on_c, 1, 64, 127
1, 71409, Note_on_c, 1, 50, 127
1, 71571, Note_off_c, 1, 64, 0
1, 71571, Note_off_c, 1, 50, 0
1, 71573, Note_on_c, 1, 48, 127
1, 71573, Note_on_c, 1, 62, 127
1, 71655, Note_on_c, 1, 47, 127
1, 71667, Note_off_c, 1, 48, 0
1, 71735, Note_off_c, 1, 62, 0
1, 71737, Note_on_c, 1, 67, 127
1, 71749, Note_off_c, 1, 47, 0
1, 71899, Note_off_c, 1, 67, 0
1, 71902, Note_on_c, 1, 65, 127
1, 72064, Note_off_c, 1, 65, 0
1, 72230, Note_on_c, 1, 48, 127
1, 72230, Note_on_c, 1, 64, 127
1, 72392, Note_off_c, 1, 48, 0
1, 72394, Note_on_c, 1, 43, 127
1, 72556, Note_off_c, 1, 64, 0
1, 72556, Note_off_c, 1, 43, 0
1, 72558, Note_on_c, 1, 45, 127
1, 72558, Note_on_c, 1, 60, 127
1, 72720, Note_off_c, 1, 45, 0
1, 72722, Note_on_c, 1, 47, 127
1, 72884, Note_off_c, 1, 60, 0
1, 72884, Note_off_c, 1, 47, 0
1, 72887, Note_on_c, 1, 48, 127
1, 72887, Note_on_c, 1, 72, 127
1, 73049, Note_off_c, 1, 48, 0
1, 73051, Note_on_c, 1, 50, 127
1, 73213, Note_off_c, 1, 72, 0
1, 73213, Note_off_c, 1, 50, 0
1, 73215, Note_on_c, 1, 52, 127
1, 73215, Note_on_c, 1, 72, 127
1, 73215, Note_on_c, 1, 64, 127
1, 73377, Note_off_c, 1, 52, 0
1, 73379, Note_on_c, 1, 48, 127
1, 73541, Note_off_c, 1, 72, 0
1, 73541, Note_off_c, 1, 64, 0
1, 73541, Note_off_c, 1, 48, 0
1, 73543, Note_on_c, 1, 53, 127
1, 73543, Note_on_c, 1, 72, 127
1, 73543, Note_on_c, 1, 62, 127
1, 73705, Note_off_c, 1, 53, 0
1, 73707, Note_on_c, 1, 55, 127
1, 73869, Note_off_c, 1, 72, 0
1, 73869, Note_off_c, 1, 55, 0
1, 73872, Note_on_c, 1, 71, 127
1, 74034, Note_off_c, 1, 71, 0
1, 74036, Note_on_c, 1, 52, 127
1, 74192, Note_off_c, 1, 62, 0
1, 74198, Note_off_c, 1, 52, 0
1, 74200, Note_on_c, 1, 50, 127
1, 74200, Note_on_c, 1, 74, 127
1, 74362, Note_off_c, 1, 50, 0
1, 74364, Note_on_c, 1, 55, 127
1, 74526, Note_off_c, 1, 74, 0
1, 74526, Note_off_c, 1, 55, 0
1, 74528, Note_on_c, 1, 53, 127
1, 74528, Note_on_c, 1, 71, 127
1, 74528, Note_on_c, 1, 74, 127
1, 74690, Note_off_c, 1, 53, 0
1, 74692, Note_on_c, 1, 55, 127
1, 74854, Note_off_c, 1, 71, 0
1, 74854, Note_off_c, 1, 74, 0
1, 74854, Note_off_c, 1, 55, 0
1, 74856, Note_on_c, 1, 52, 127
1, 74856, Note_on_c, 1, 74, 127
1, 74856, Note_on_c, 1, 67, 127
1, 75018, Note_off_c, 1, 52, 0
1, 75021, Note_on_c, 1, 55, 127
1, 75182, Note_off_c, 1, 74, 0
1, 75183, Note_off_c, 1, 55, 0
1, 75185, Note_on_c, 1, 72, 127
1, 75185, Note_on_c, 1, 57, 127
1, 75347, Note_off_c, 1, 72, 0
1, 75347, Note_off_c, 1, 57, 0
1, 75349, Note_on_c, 1, 59, 127
1, 75505, Note_off_c, 1, 67, 0
1, 75511, Note_off_c, 1, 59, 0
1, 75513, Note_on_c, 1, 60, 127
1, 75513, Note_on_c, 1, 76, 127
1, 75675, Note_off_c, 1, 60, 0
1, 75677, Note_on_c, 1, 62, 127
1, 75839, Note_off_c, 1, 76, 0
1, 75839, Note_off_c, 1, 62, 0
1, 75841, Note_on_c, 1, 64, 127
1, 75841, Note_on_c, 1, 72, 127
1, 75841, Note_on_c, 1, 76, 127
1, 76003, Note_off_c, 1, 64, 0
1, 76006, Note_on_c, 1, 60, 127
1, 76167, Note_off_c, 1, 72, 0
1, 76167, Note_off_c, 1, 76, 0
1, 76168, Note_off_c, 1, 60, 0
1, 76170, Note_on_c, 1, 65, 127
1, 76170, Note_on_c, 1, 76, 127
1, 76170, Note_on_c, 1, 69, 127
1, 76332, Note_off_c, 1, 65, 0
1, 76334, Note_on_c, 1, 67, 127
1, 76496, Note_off_c, 1, 76, 0
1, 76496, Note_off_c, 1, 67, 0
1, 76498, Note_on_c, 1, 74, 127
1, 76660, Note_off_c, 1, 74, 0
1, 76662, Note_on_c, 1, 64, 127
1, 76819, Note_off_c, 1, 69, 0
1, 76824, Note_off_c, 1, 64, 0
1, 76826, Note_on_c, 1, 62, 127
1, 76826, Note_on_c, 1, 77, 127
1, 76988, Note_off_c, 1, 62, 0
1, 76991, Note_on_c, 1, 64, 127
1, 77152, Note_off_c, 1, 77, 0
1, 77153, Note_off_c, 1, 64, 0
1, 77155, Note_on_c, 1, 65, 127
1, 77155, Note_on_c, 1, 69, 127
1, 77155, Note_on_c, 1, 77, 127
1, 77317, Note_off_c, 1, 65, 0
1, 77319, Note_on_c, 1, 62, 127
1, 77481, Note_off_c, 1, 69, 0
1, 77481, Note_off_c, 1, 77, 0
1, 77481, Note_off_c, 1, 62, 0
1, 77483, Note_on_c, 1, 67, 127
1, 77483, Note_on_c, 1, 77, 127
1, 77483, Note_on_c, 1, 71, 127
1, 77645, Note_off_c, 1, 67, 0
1, 77647, Note_on_c, 1, 69, 127
1, 77809, Note_off_c, 1, 77, 0
1, 77809, Note_off_c, 1, 69, 0
1, 77811, Note_on_c, 1, 76, 127
1, 77973, Note_off_c, 1, 76, 0
1, 77976, Note_on_c, 1, 65, 127
1, 78132, Note_off_c, 1, 71, 0
1, 78138, Note_off_c, 1, 65, 0
1, 78140, Note_on_c, 1, 64, 127
1, 78140, Note_on_c, 1, 79, 127
1, 78302, Note_off_c, 1, 64, 0
1, 78304, Note_on_c, 1, 65, 127
1, 78466, Note_off_c, 1, 79, 0
1, 78466, Note_off_c, 1, 65, 0
1, 78468, Note_on_c, 1, 67, 127
1, 78468, Note_on_c, 1, 71, 127
1, 78468, Note_on_c, 1, 79, 127
1, 78630, Note_off_c, 1, 67, 0
1, 78632, Note_on_c, 1, 64, 127
1, 78794, Note_off_c, 1, 71, 0
1, 78794, Note_off_c, 1, 79, 0
1, 78794, Note_off_c, 1, 64, 0
1, 78796, Note_on_c, 1, 79, 127
1, 78796, Note_on_c, 1, 69, 127
1, 78796, Note_on_c, 1, 72, 127
1, 78958, Note_off_c, 1, 79, 0
1, 78960, Note_on_c, 1, 83, 127
1, 79122, Note_off_c, 1, 69, 0
1, 79122, Note_off_c, 1, 83, 0
1, 79125, Note_on_c, 1, 81, 127
1, 79125, Note_on_c, 1, 67, 127
1, 79287, Note_off_c, 1, 81, 0
1, 79451, Note_off_c, 1, 67, 0
1, 79453, Note_on_c, 1, 78, 127
1, 79615, Note_off_c, 1, 78, 0
1, 79781, Note_on_c, 1, 76, 127
1, 79781, Note_on_c, 1, 62, 127
1, 79943, Note_off_c, 1, 76, 0
1, 80107, Note_off_c, 1, 72, 0
1, 80107, Note_off_c, 1, 62, 0
1, 80110, Note_on_c, 1, 79, 127
1, 80110, Note_on_c, 1, 67, 127
1, 80274, Note_on_c, 1, 72, 127
1, 80434, Note_off_c, 1, 79, 0
1, 80436, Note_off_c, 1, 72, 0
1, 80438, Note_on_c, 1, 71, 127
1, 80438, Note_on_c, 1, 74, 127
1, 80600, Note_off_c, 1, 71, 0
1, 80602, Note_on_c, 1, 69, 127
1, 80762, Note_off_c, 1, 74, 0
1, 80764, Note_off_c, 1, 69, 0
1, 80929, Note_off_c, 1, 67, 0
1, 80930, Note_on_c, 1, 65, 127
1, 81092, Note_off_c, 1, 65, 0
1, 81095, Note_on_c, 1, 64, 127
1, 81257, Note_off_c, 1, 64, 0
1, 81259, Note_on_c, 1, 79, 127
1, 81259, Note_on_c, 1, 71, 127
1, 81259, Note_on_c, 1, 62, 127
1, 81421, Note_off_c, 1, 79, 0
1, 81421, Note_off_c, 1, 71, 0
1, 81421, Note_off_c, 1, 62, 0
1, 81423, Note_on_c, 1, 61, 127
1, 81423, Note_on_c, 1, 79, 127
1, 81423, Note_on_c, 1, 69, 127
1, 81585, Note_off_c, 1, 61, 0
1, 81587, Note_on_c, 1, 57, 127
1, 81749, Note_off_c, 1, 57, 0
1, 81751, Note_on_c, 1, 59, 127
1, 81913, Note_off_c, 1, 79, 0
1, 81913, Note_off_c, 1, 59, 0
1, 81915, Note_on_c, 1, 81, 127
1, 82072, Note_off_c, 1, 69, 0
1, 82077, Note_off_c, 1, 81, 0
1, 82080, Note_on_c, 1, 77, 127
1, 82080, Note_on_c, 1, 62, 127
1, 82080, Note_on_c, 1, 69, 127
1, 82160, Note_off_c, 1, 77, 0
1, 82162, Note_on_c, 1, 76, 127
1, 82242, Note_off_c, 1, 62, 0
1, 82242, Note_off_c, 1, 76, 0
1, 82244, Note_on_c, 1, 64, 127
1, 82406, Note_off_c, 1, 64, 0
1, 82408, Note_on_c, 1, 65, 127
1, 82570, Note_off_c, 1, 69, 0
1, 82570, Note_off_c, 1, 65, 0
1, 82572, Note_on_c, 1, 77, 127
1, 82572, Note_on_c, 1, 69, 127
1, 82572, Note_on_c, 1, 62, 127
1, 82734, Note_off_c, 1, 77, 0
1, 82734, Note_off_c, 1, 69, 0
1, 82734, Note_off_c, 1, 62, 0
1, 82736, Note_on_c, 1, 67, 127
1, 82736, Note_on_c, 1, 77, 127
1, 82736, Note_on_c, 1, 71, 127
1, 82898, Note_off_c, 1, 67, 0
1, 82900, Note_on_c, 1, 69, 127
1, 83062, Note_off_c, 1, 69, 0
1, 83214, Note_off_c, 1, 77, 0
1, 83229, Note_on_c, 1, 76, 127
1, 83229, Note_on_c, 1, 65, 127
1, 83309, Note_off_c, 1, 76, 0
1, 83311, Note_on_c, 1, 74, 127
1, 83385, Note_off_c, 1, 71, 0
1, 83391, Note_off_c, 1, 65, 0
1, 83391, Note_off_c, 1, 74, 0
1, 83393, Note_on_c, 1, 64, 127
1, 83393, Note_on_c, 1, 72, 127
1, 83475, Note_on_c, 1, 74, 127
1, 83555, Note_off_c, 1, 64, 0
1, 83557, Note_on_c, 1, 69, 127
1, 83557, Note_on_c, 1, 76, 127
1, 83637, Note_off_c, 1, 74, 0
1, 83719, Note_off_c, 1, 69, 0
1, 83721, Note_on_c, 1, 67, 127
1, 83881, Note_off_c, 1, 76, 0
1, 83883, Note_off_c, 1, 72, 0
1, 83883, Note_off_c, 1, 67, 0
1, 83885, Note_on_c, 1, 76, 127
1, 83885, Note_on_c, 1, 72, 127
1, 83885, Note_on_c, 1, 69, 127
1, 84047, Note_off_c, 1, 76, 0
1, 84047, Note_off_c, 1, 72, 0
1, 84047, Note_off_c, 1, 69, 0
1, 84049, Note_on_c, 1, 76, 127
1, 84049, Note_on_c, 1, 69, 127
1, 84049, Note_on_c, 1, 65, 127
1, 84211, Note_off_c, 1, 76, 0
1, 84214, Note_on_c, 1, 79, 127
1, 84376, Note_off_c, 1, 79, 0
1, 84378, Note_on_c, 1, 77, 127
1, 84540, Note_off_c, 1, 77, 0
1, 84698, Note_off_c, 1, 69, 0
1, 84706, Note_on_c, 1, 74, 127
1, 84868, Note_off_c, 1, 74, 0
1, 84869, Note_off_c, 1, 65, 0
1, 84870, Note_on_c, 1, 72, 127
1, 85032, Note_off_c, 1, 72, 0
1, 85034, Note_on_c, 1, 71, 127
1, 85034, Note_on_c, 1, 53, 127
1, 85196, Note_off_c, 1, 71, 0
1, 85199, Note_on_c, 1, 69, 127
1, 85361, Note_off_c, 1, 69, 0
1, 85524, Note_off_c, 1, 53, 0
1, 85527, Note_on_c, 1, 57, 127
1, 85689, Note_off_c, 1, 57, 0
1, 85691, Note_on_c, 1, 55, 127
1, 85691, Note_on_c, 1, 67, 127
1, 85853, Note_off_c, 1, 55, 0
1, 85855, Note_on_c, 1, 53, 127
1, 86017, Note_off_c, 1, 67, 0
1, 86017, Note_off_c, 1, 53, 0
1, 86019, Note_on_c, 1, 52, 127
1, 86019, Note_on_c, 1, 72, 127
1, 86181, Note_off_c, 1, 52, 0
1, 86184, Note_on_c, 1, 50, 127
1, 86346, Note_off_c, 1, 50, 0
1, 86348, Note_on_c, 1, 48, 127
1, 86509, Note_off_c, 1, 72, 0
1, 86510, Note_off_c, 1, 48, 0
1, 86512, Note_on_c, 1, 64, 127
1, 86512, Note_on_c, 1, 72, 127
1, 86512, Note_on_c, 1, 47, 127
1, 86674, Note_off_c, 1, 64, 0
1, 86674, Note_off_c, 1, 72, 0
1, 86674, Note_off_c, 1, 47, 0
1, 86676, Note_on_c, 1, 45, 127
1, 86676, Note_on_c, 1, 72, 127
1, 86676, Note_on_c, 1, 64, 127
1, 86838, Note_off_c, 1, 45, 0
1, 86840, Note_on_c, 1, 43, 127
1, 87002, Note_off_c, 1, 43, 0
1, 87166, Note_off_c, 1, 72, 0
1, 87166, Note_off_c, 1, 64, 0
1, 87168, Note_on_c, 1, 65, 127
1, 87168, Note_on_c, 1, 74, 127
1, 87168, Note_on_c, 1, 41, 127
1, 87330, Note_off_c, 1, 65, 0
1, 87330, Note_off_c, 1, 74, 0
1, 87330, Note_off_c, 1, 41, 0
1, 87333, Note_on_c, 1, 72, 127
1, 87333, Note_on_c, 1, 43, 127
1, 87333, Note_on_c, 1, 62, 127
1, 87435, Note_on_c, 1, 71, 127
1, 87444, Note_off_c, 1, 72, 0
1, 87515, Note_off_c, 1, 71, 0
1, 87659, Note_off_c, 1, 43, 0
1, 87661, Note_on_c, 1, 55, 127
1, 87823, Note_off_c, 1, 62, 0
1, 87825, Note_on_c, 1, 64, 127
1, 87987, Note_off_c, 1, 55, 0
1, 87987, Note_off_c, 1, 64, 0
1, 87989, Note_on_c, 1, 36, 127
1, 87989, Note_on_c, 1, 64, 127
1, 87989, Note_on_c, 1, 72, 127
1, 88315, Note_off_c, 1, 36, 0
1, 88318, Note_on_c, 1, 48, 127
1, 88480, Note_off_c, 1, 48, 0
1, 88482, Note_on_c, 1, 47, 127
1, 88638, Note_off_c, 1, 64, 0
1, 88638, Note_off_c, 1, 72, 0
1, 88644, Note_off_c, 1, 47, 0
1, 88646, Note_on_c, 1, 48, 127
1, 88810, Note_on_c, 1, 72, 127
1, 88972, Note_off_c, 1, 48, 0
1, 88972, Note_off_c, 1, 72, 0
1, 88974, Note_on_c, 1, 71, 127
1, 88974, Note_on_c, 1, 50, 127
1, 89136, Note_off_c, 1, 71, 0
1, 89138, Note_on_c, 1, 72, 127
1, 89300, Note_off_c, 1, 50, 0
1, 89300, Note_off_c, 1, 72, 0
1, 89303, Note_on_c, 1, 67, 127
1, 89303, Note_on_c, 1, 52, 127
1, 89467, Note_on_c, 1, 72, 127
1, 89542, Note_off_c, 1, 67, 0
1, 89629, Note_off_c, 1, 52, 0
1, 89629, Note_off_c, 1, 72, 0
1, 89631, Note_on_c, 1, 69, 127
1, 89631, Note_on_c, 1, 53, 127
1, 89795, Note_on_c, 1, 72, 127
1, 89870, Note_off_c, 1, 69, 0
1, 89957, Note_off_c, 1, 53, 0
1, 89957, Note_off_c, 1, 72, 0
1, 89959, Note_on_c, 1, 67, 127
1, 89959, Note_on_c, 1, 52, 127
1, 90123, Note_on_c, 1, 72, 127
1, 90198, Note_off_c, 1, 67, 0
1, 90285, Note_off_c, 1, 52, 0
1, 90285, Note_off_c, 1, 72, 0
1, 90288, Note_on_c, 1, 65, 127
1, 90288, Note_on_c, 1, 50, 127
1, 90452, Note_on_c, 1, 72, 127
1, 90527, Note_off_c, 1, 65, 0
1, 90614, Note_off_c, 1, 50, 0
1, 90614, Note_off_c, 1, 72, 0
1, 90616, Note_on_c, 1, 64, 127
1, 90616, Note_on_c, 1, 48, 127
1, 90780, Note_on_c, 1, 72, 127
1, 90855, Note_off_c, 1, 64, 0
1, 90942, Note_off_c, 1, 72, 0
1, 90944, Note_on_c, 1, 65, 127
1, 90944, Note_on_c, 1, 57, 127
1, 91106, Note_off_c, 1, 65, 0
1, 91270, Note_off_c, 1, 57, 0
1, 91272, Note_on_c, 1, 55, 127
1, 91598, Note_off_c, 1, 55, 0
1, 91601, Note_on_c, 1, 62, 127
1, 91601, Note_on_c, 1, 53, 127
1, 91763, Note_off_c, 1, 62, 0
1, 91927, Note_off_c, 1, 53, 0
1, 91929, Note_on_c, 1, 60, 127
1, 91929, Note_on_c, 1, 52, 127
1, 92091, Note_off_c, 1, 60, 0
1, 92255, Note_off_c, 1, 52, 0
1, 92257, Note_on_c, 1, 54, 127
1, 92583, Note_off_c, 1, 48, 0
1, 92583, Note_off_c, 1, 54, 0
1, 92586, Note_on_c, 1, 64, 127
1, 92586, Note_on_c, 1, 55, 127
1, 92586, Note_on_c, 1, 46, 127
1, 92748, Note_off_c, 1, 64, 0
1, 92750, Note_on_c, 1, 72, 127
1, 92912, Note_off_c, 1, 55, 0
1, 92912, Note_off_c, 1, 46, 0
1, 92912, Note_off_c, 1, 72, 0
1, 92914, Note_on_c, 1, 66, 127
1, 92914, Note_on_c, 1, 57, 127
1, 92914, Note_on_c, 1, 45, 127
1, 93076, Note_off_c, 1, 66, 0
1, 93078, Note_on_c, 1, 72, 127
1, 93240, Note_off_c, 1, 57, 0
1, 93240, Note_off_c, 1, 45, 0
1, 93240, Note_off_c, 1, 72, 0
1, 93242, Note_on_c, 1, 67, 127
1, 93242, Note_on_c, 1, 70, 127
1, 93242, Note_on_c, 1, 43, 127
1, 93242, Note_on_c, 1, 50, 127
1, 93404, Note_off_c, 1, 67, 0
1, 93407, Note_on_c, 1, 62, 127
1, 93566, Note_off_c, 1, 70, 0
1, 93569, Note_off_c, 1, 62, 0
1, 93571, Note_on_c, 1, 64, 127
1, 93733, Note_off_c, 1, 64, 0
1, 93735, Note_on_c, 1, 66, 127
1, 93891, Note_off_c, 1, 43, 0
1, 93897, Note_off_c, 1, 66, 0
1, 94028, Note_off_c, 1, 50, 0
1, 94063, Note_on_c, 1, 69, 127
1, 94063, Note_on_c, 1, 55, 127
1, 94225, Note_off_c, 1, 69, 0
1, 94225, Note_off_c, 1, 55, 0
1, 94227, Note_on_c, 1, 70, 127
1, 94227, Note_on_c, 1, 54, 127
1, 94307, Note_off_c, 1, 70, 0
1, 94309, Note_on_c, 1, 69, 127
1, 94389, Note_off_c, 1, 54, 0
1, 94389, Note_off_c, 1, 69, 0
1, 94392, Note_on_c, 1, 67, 127
1, 94392, Note_on_c, 1, 55, 127
1, 94472, Note_off_c, 1, 67, 0
1, 94474, Note_on_c, 1, 69, 127
1, 94554, Note_off_c, 1, 55, 0
1, 94554, Note_off_c, 1, 69, 0
1, 94556, Note_on_c, 1, 50, 127
1, 94556, Note_on_c, 1, 70, 127
1, 94718, Note_off_c, 1, 50, 0
1, 94720, Note_on_c, 1, 55, 127
1, 94882, Note_off_c, 1, 70, 0
1, 94882, Note_off_c, 1, 55, 0
1, 94884, Note_on_c, 1, 51, 127
1, 94884, Note_on_c, 1, 72, 127
1, 95046, Note_off_c, 1, 51, 0
1, 95048, Note_on_c, 1, 55, 127
1, 95210, Note_off_c, 1, 72, 0
1, 95210, Note_off_c, 1, 55, 0
1, 95212, Note_on_c, 1, 50, 127
1, 95212, Note_on_c, 1, 70, 127
1, 95374, Note_off_c, 1, 50, 0
1, 95376, Note_on_c, 1, 55, 127
1, 95538, Note_off_c, 1, 70, 0
1, 95538, Note_off_c, 1, 55, 0
1, 95541, Note_on_c, 1, 48, 127
1, 95541, Note_on_c, 1, 69, 127
1, 95703, Note_off_c, 1, 48, 0
1, 95705, Note_on_c, 1, 55, 127
1, 95867, Note_off_c, 1, 69, 0
1, 95867, Note_off_c, 1, 55, 0
1, 95869, Note_on_c, 1, 46, 127
1, 95869, Note_on_c, 1, 67, 127
1, 96031, Note_off_c, 1, 46, 0
1, 96033, Note_on_c, 1, 55, 127
1, 96195, Note_off_c, 1, 55, 0
1, 96197, Note_on_c, 1, 48, 127
1, 96197, Note_on_c, 1, 75, 127
1, 96359, Note_off_c, 1, 48, 0
1, 96523, Note_off_c, 1, 75, 0
1, 96526, Note_on_c, 1, 74, 127
1, 96852, Note_off_c, 1, 74, 0
1, 96854, Note_on_c, 1, 45, 127
1, 96854, Note_on_c, 1, 72, 127
1, 97016, Note_off_c, 1, 45, 0
1, 97180, Note_off_c, 1, 72, 0
1, 97182, Note_on_c, 1, 43, 127
1, 97182, Note_on_c, 1, 70, 127
1, 97344, Note_off_c, 1, 43, 0
1, 97508, Note_off_c, 1, 70, 0
1, 97510, Note_off_c, 1, 67, 0
1, 97511, Note_on_c, 1, 45, 127
1, 97511, Note_on_c, 1, 72, 127
1, 97511, Note_on_c, 1, 67, 127
1, 97673, Note_off_c, 1, 45, 0
1, 97675, Note_on_c, 1, 55, 127
1, 97837, Note_off_c, 1, 72, 0
1, 97837, Note_off_c, 1, 67, 0
1, 97837, Note_off_c, 1, 55, 0
1, 97839, Note_on_c, 1, 47, 127
1, 97839, Note_on_c, 1, 74, 127
1, 97839, Note_on_c, 1, 65, 127
1, 98001, Note_off_c, 1, 47, 0
1, 98003, Note_on_c, 1, 55, 127
1, 98165, Note_off_c, 1, 74, 0
1, 98165, Note_off_c, 1, 65, 0
1, 98165, Note_off_c, 1, 55, 0
1, 98167, Note_on_c, 1, 49, 127
1, 98167, Note_on_c, 1, 76, 127
1, 98167, Note_on_c, 1, 64, 127
1, 98329, Note_off_c, 1, 49, 0
1, 98331, Note_on_c, 1, 55, 127
1, 98493, Note_off_c, 1, 76, 0
1, 98493, Note_off_c, 1, 64, 0
1, 98493, Note_off_c, 1, 55, 0
1, 98496, Note_on_c, 1, 53, 127
1, 98496, Note_on_c, 1, 69, 127
1, 98496, Note_on_c, 1, 62, 127
1, 98658, Note_off_c, 1, 53, 0
1, 98660, Note_on_c, 1, 55, 127
1, 98822, Note_off_c, 1, 69, 0
1, 98822, Note_off_c, 1, 62, 0
1, 98822, Note_off_c, 1, 55, 0
1, 98824, Note_on_c, 1, 62, 127
1, 98824, Note_on_c, 1, 53, 127
1, 98824, Note_on_c, 1, 69, 127
1, 98986, Note_off_c, 1, 62, 0
1, 98986, Note_off_c, 1, 53, 0
1, 98988, Note_on_c, 1, 64, 127
1, 98988, Note_on_c, 1, 52, 127
1, 99148, Note_off_c, 1, 69, 0
1, 99150, Note_off_c, 1, 64, 0
1, 99150, Note_off_c, 1, 52, 0
1, 99152, Note_on_c, 1, 50, 127
1, 99152, Note_on_c, 1, 65, 127
1, 99152, Note_on_c, 1, 74, 127
1, 99314, Note_off_c, 1, 50, 0
1, 99316, Note_on_c, 1, 52, 127
1, 99478, Note_off_c, 1, 52, 0
1, 99480, Note_on_c, 1, 53, 127
1, 99642, Note_off_c, 1, 65, 0
1, 99642, Note_off_c, 1, 74, 0
1, 99642, Note_off_c, 1, 53, 0
1, 99645, Note_on_c, 1, 74, 127
1, 99645, Note_on_c, 1, 65, 127
1, 99645, Note_on_c, 1, 50, 127
1, 99807, Note_off_c, 1, 74, 0
1, 99807, Note_off_c, 1, 65, 0
1, 99807, Note_off_c, 1, 50, 0
1, 99809, Note_on_c, 1, 55, 127
1, 99809, Note_on_c, 1, 74, 127
1, 99809, Note_on_c, 1, 64, 127
1, 99971, Note_off_c, 1, 55, 0
1, 99973, Note_on_c, 1, 57, 127
1, 100135, Note_off_c, 1, 57, 0
1, 100299, Note_off_c, 1, 74, 0
1, 100301, Note_on_c, 1, 76, 127
1, 100301, Note_on_c, 1, 53, 127
1, 100458, Note_off_c, 1, 64, 0
1, 100463, Note_off_c, 1, 76, 0
1, 100463, Note_off_c, 1, 53, 0
1, 100465, Note_on_c, 1, 74, 127
1, 100465, Note_on_c, 1, 52, 127
1, 100541, Note_on_c, 1, 73, 127
1, 100545, Note_off_c, 1, 74, 0
1, 100621, Note_off_c, 1, 73, 0
1, 100627, Note_off_c, 1, 52, 0
1, 100630, Note_on_c, 1, 57, 127
1, 100792, Note_off_c, 1, 57, 0
1, 100794, Note_on_c, 1, 55, 127
1, 100956, Note_off_c, 1, 55, 0
1, 100958, Note_on_c, 1, 74, 127
1, 100958, Note_on_c, 1, 57, 127
1, 101120, Note_off_c, 1, 74, 0
1, 101120, Note_off_c, 1, 57, 0
1, 101122, Note_on_c, 1, 74, 127
1, 101122, Note_on_c, 1, 53, 127
1, 101284, Note_off_c, 1, 74, 0
1, 101286, Note_on_c, 1, 69, 127
1, 101448, Note_off_c, 1, 69, 0
1, 101450, Note_on_c, 1, 71, 127
1, 101450, Note_on_c, 1, 57, 127
1, 101612, Note_off_c, 1, 71, 0
1, 101615, Note_on_c, 1, 73, 127
1, 101771, Note_off_c, 1, 53, 0
1, 101776, Note_off_c, 1, 57, 0
1, 101777, Note_off_c, 1, 73, 0
1, 101779, Note_on_c, 1, 74, 127
1, 101779, Note_on_c, 1, 62, 127
1, 101941, Note_off_c, 1, 74, 0
1, 101943, Note_on_c, 1, 76, 127
1, 102105, Note_off_c, 1, 62, 0
1, 102105, Note_off_c, 1, 76, 0
1, 102107, Note_on_c, 1, 77, 127
1, 102107, Note_on_c, 1, 62, 127
1, 102107, Note_on_c, 1, 58, 127
1, 102269, Note_off_c, 1, 77, 0
1, 102271, Note_on_c, 1, 74, 127
1, 102433, Note_off_c, 1, 62, 0
1, 102433, Note_off_c, 1, 58, 0
1, 102433, Note_off_c, 1, 74, 0
1, 102435, Note_on_c, 1, 79, 127
1, 102435, Note_on_c, 1, 62, 127
1, 102435, Note_on_c, 1, 58, 127
1, 102597, Note_off_c, 1, 79, 0
1, 102600, Note_on_c, 1, 81, 127
1, 102761, Note_off_c, 1, 62, 0
1, 102762, Note_off_c, 1, 81, 0
1, 102764, Note_on_c, 1, 61, 127
1, 102926, Note_off_c, 1, 61, 0
1, 102928, Note_on_c, 1, 77, 127
1, 103084, Note_off_c, 1, 58, 0
1, 103090, Note_off_c, 1, 77, 0
1, 103092, Note_on_c, 1, 76, 127
1, 103092, Note_on_c, 1, 64, 127
1, 103254, Note_off_c, 1, 76, 0
1, 103256, Note_on_c, 1, 81, 127
1, 103418, Note_off_c, 1, 64, 0
1, 103418, Note_off_c, 1, 81, 0
1, 103420, Note_on_c, 1, 79, 127
1, 103420, Note_on_c, 1, 64, 127
1, 103420, Note_on_c, 1, 61, 127
1, 103420, Note_on_c, 1, 57, 127
1, 103582, Note_off_c, 1, 79, 0
1, 103584, Note_on_c, 1, 81, 127
1, 103746, Note_off_c, 1, 64, 0
1, 103746, Note_off_c, 1, 61, 0
1, 103746, Note_off_c, 1, 57, 0
1, 103746, Note_off_c, 1, 81, 0
1, 103749, Note_on_c, 1, 77, 127
1, 103749, Note_on_c, 1, 64, 127
1, 103749, Note_on_c, 1, 50, 127
1, 103749, Note_on_c, 1, 57, 127
1, 103911, Note_off_c, 1, 77, 0
1, 103913, Note_on_c, 1, 79, 127
1, 104075, Note_off_c, 1, 64, 0
1, 104075, Note_off_c, 1, 79, 0
1, 104077, Note_on_c, 1, 62, 127
1, 104227, Note_off_c, 1, 50, 0
1, 104239, Note_off_c, 1, 62, 0
1, 104241, Note_on_c, 1, 76, 127
1, 104398, Note_off_c, 1, 57, 0
1, 104403, Note_off_c, 1, 76, 0
1, 104405, Note_on_c, 1, 74, 127
1, 104405, Note_on_c, 1, 65, 127
1, 104567, Note_off_c, 1, 74, 0
1, 104569, Note_on_c, 1, 77, 127
1, 104731, Note_off_c, 1, 65, 0
1, 104731, Note_off_c, 1, 77, 0
1, 104734, Note_on_c, 1, 79, 127
1, 104734, Note_on_c, 1, 62, 127
1, 104734, Note_on_c, 1, 65, 127
1, 104896, Note_off_c, 1, 79, 0
1, 104898, Note_on_c, 1, 81, 127
1, 105060, Note_off_c, 1, 62, 0
1, 105060, Note_off_c, 1, 65, 0
1, 105060, Note_off_c, 1, 81, 0
1, 105062, Note_on_c, 1, 82, 127
1, 105062, Note_on_c, 1, 55, 127
1, 105062, Note_on_c, 1, 62, 127
1, 105062, Note_on_c, 1, 65, 127
1, 105224, Note_off_c, 1, 82, 0
1, 105226, Note_on_c, 1, 84, 127
1, 105386, Note_off_c, 1, 55, 0
1, 105386, Note_off_c, 1, 62, 0
1, 105388, Note_off_c, 1, 65, 0
1, 105388, Note_off_c, 1, 84, 0
1, 105390, Note_on_c, 1, 82, 127
1, 105390, Note_on_c, 1, 64, 127
1, 105552, Note_off_c, 1, 82, 0
1, 105552, Note_off_c, 1, 64, 0
1, 105554, Note_on_c, 1, 81, 127
1, 105554, Note_on_c, 1, 65, 127
1, 105716, Note_off_c, 1, 81, 0
1, 105716, Note_off_c, 1, 65, 0
1, 105719, Note_on_c, 1, 79, 127
1, 105719, Note_on_c, 1, 67, 127
1, 105881, Note_off_c, 1, 79, 0
1, 105883, Note_on_c, 1, 84, 127
1, 106045, Note_off_c, 1, 67, 0
1, 106045, Note_off_c, 1, 84, 0
1, 106047, Note_on_c, 1, 82, 127
1, 106047, Note_on_c, 1, 67, 127
1, 106047, Note_on_c, 1, 60, 127
1, 106047, Note_on_c, 1, 64, 127
1, 106209, Note_off_c, 1, 82, 0
1, 106211, Note_on_c, 1, 84, 127
1, 106373, Note_off_c, 1, 67, 0
1, 106373, Note_off_c, 1, 60, 0
1, 106373, Note_off_c, 1, 64, 0
1, 106373, Note_off_c, 1, 84, 0
1, 106375, Note_on_c, 1, 81, 127
1, 106375, Note_on_c, 1, 67, 127
1, 106375, Note_on_c, 1, 53, 127
1, 106375, Note_on_c, 1, 60, 127
1, 106537, Note_off_c, 1, 81, 0
1, 106539, Note_on_c, 1, 82, 127
1, 106701, Note_off_c, 1, 67, 0
1, 106701, Note_off_c, 1, 82, 0
1, 106704, Note_on_c, 1, 65, 127
1, 106866, Note_off_c, 1, 65, 0
1, 106868, Note_on_c, 1, 79, 127
1, 107024, Note_off_c, 1, 53, 0
1, 107024, Note_off_c, 1, 60, 0
1, 107030, Note_off_c, 1, 79, 0
1, 107032, Note_on_c, 1, 77, 127
1, 107032, Note_on_c, 1, 69, 127
1, 107194, Note_off_c, 1, 77, 0
1, 107196, Note_on_c, 1, 76, 127
1, 107358, Note_off_c, 1, 69, 0
1, 107358, Note_off_c, 1, 76, 0
1, 107360, Note_on_c, 1, 74, 127
1, 107360, Note_on_c, 1, 65, 127
1, 107360, Note_on_c, 1, 69, 127
1, 107522, Note_off_c, 1, 74, 0
1, 107524, Note_on_c, 1, 73, 127
1, 107686, Note_off_c, 1, 65, 0
1, 107686, Note_off_c, 1, 69, 0
1, 107686, Note_off_c, 1, 73, 0
1, 107688, Note_on_c, 1, 69, 127
1, 107688, Note_on_c, 1, 59, 127
1, 107688, Note_on_c, 1, 74, 127
1, 107850, Note_off_c, 1, 69, 0
1, 107853, Note_on_c, 1, 72, 127
1, 108014, Note_off_c, 1, 59, 0
1, 108015, Note_off_c, 1, 72, 0
1, 108017, Note_on_c, 1, 71, 127
1, 108017, Note_on_c, 1, 60, 127
1, 108179, Note_off_c, 1, 71, 0
1, 108179, Note_off_c, 1, 60, 0
1, 108181, Note_on_c, 1, 62, 127
1, 108343, Note_off_c, 1, 62, 0
1, 108345, Note_on_c, 1, 68, 127
1, 108345, Note_on_c, 1, 64, 127
1, 108507, Note_off_c, 1, 68, 0
1, 108671, Note_off_c, 1, 64, 0
1, 108673, Note_on_c, 1, 66, 127
1, 108673, Note_on_c, 1, 52, 127
1, 108835, Note_off_c, 1, 66, 0
1, 108999, Note_off_c, 1, 74, 0
1, 108999, Note_off_c, 1, 52, 0
1, 109002, Note_on_c, 1, 57, 127
1, 109002, Note_on_c, 1, 69, 127
1, 109166, Note_on_c, 1, 74, 127
1, 109328, Note_off_c, 1, 74, 0
1, 109330, Note_on_c, 1, 72, 127
1, 109492, Note_off_c, 1, 72, 0
1, 109494, Note_on_c, 1, 71, 127
1, 109656, Note_off_c, 1, 71, 0
1, 109821, Note_off_c, 1, 57, 0
1, 109823, Note_on_c, 1, 55, 127
1, 109985, Note_off_c, 1, 55, 0
1, 109987, Note_on_c, 1, 53, 127
1, 110144, Note_off_c, 1, 69, 0
1, 110149, Note_off_c, 1, 53, 0
1, 110151, Note_on_c, 1, 69, 127
1, 110151, Note_on_c, 1, 52, 127
1, 110313, Note_off_c, 1, 69, 0
1, 110313, Note_off_c, 1, 52, 0
1, 110315, Note_on_c, 1, 50, 127
1, 110315, Note_on_c, 1, 70, 127
1, 110477, Note_off_c, 1, 50, 0
1, 110479, Note_on_c, 1, 46, 127
1, 110641, Note_off_c, 1, 46, 0
1, 110643, Note_on_c, 1, 48, 127
1, 110805, Note_off_c, 1, 48, 0
1, 110808, Note_on_c, 1, 69, 127
1, 110970, Note_off_c, 1, 69, 0
1, 110972, Note_on_c, 1, 51, 127
1, 110972, Note_on_c, 1, 67, 127
1, 111134, Note_off_c, 1, 51, 0
1, 111136, Note_on_c, 1, 53, 127
1, 111298, Note_off_c, 1, 53, 0
1, 111300, Note_on_c, 1, 55, 127
1, 111460, Note_off_c, 1, 70, 0
1, 111462, Note_off_c, 1, 55, 0
1, 111628, Note_on_c, 1, 49, 127
1, 111790, Note_off_c, 1, 49, 0
1, 112117, Note_off_c, 1, 67, 0
1, 112121, Note_on_c, 1, 47, 127
1, 112283, Note_off_c, 1, 47, 0
1, 112285, Note_on_c, 1, 45, 127
1, 112285, Note_on_c, 1, 65, 127
1, 112447, Note_off_c, 1, 45, 0
1, 112775, Note_off_c, 1, 65, 0
1, 112777, Note_on_c, 1, 69, 127
1, 112777, Note_on_c, 1, 50, 127
1, 112777, Note_on_c, 1, 65, 127
1, 112939, Note_off_c, 1, 69, 0
1, 112939, Note_off_c, 1, 50, 0
1, 112942, Note_on_c, 1, 43, 127
1, 113101, Note_off_c, 1, 65, 0
1, 113106, Note_on_c, 1, 72, 127
1, 113106, Note_on_c, 1, 64, 127
1, 113268, Note_off_c, 1, 72, 0
1, 113268, Note_off_c, 1, 64, 0
1, 113270, Note_on_c, 1, 62, 127
1, 113270, Note_on_c, 1, 70, 127
1, 113432, Note_off_c, 1, 62, 0
1, 113432, Note_off_c, 1, 70, 0
1, 113434, Note_on_c, 1, 60, 127
1, 113596, Note_off_c, 1, 43, 0
1, 113596, Note_off_c, 1, 60, 0
1, 113598, Note_on_c, 1, 67, 127
1, 113598, Note_on_c, 1, 58, 127
1, 113760, Note_off_c, 1, 67, 0
1, 113760, Note_off_c, 1, 58, 0
1, 113762, Note_on_c, 1, 65, 127
1, 113762, Note_on_c, 1, 57, 127
1, 113924, Note_off_c, 1, 65, 0
1, 113924, Note_off_c, 1, 57, 0
1, 113927, Note_on_c, 1, 64, 127
1, 113927, Note_on_c, 1, 55, 127
1, 114089, Note_off_c, 1, 64, 0
1, 114089, Note_off_c, 1, 55, 0
1, 114091, Note_on_c, 1, 62, 127
1, 114091, Note_on_c, 1, 53, 127
1, 114253, Note_off_c, 1, 62, 0
1, 114253, Note_off_c, 1, 53, 0
1, 114255, Note_on_c, 1, 61, 127
1, 114255, Note_on_c, 1, 52, 127
1, 114419, Note_on_c, 1, 46, 127
1, 114581, Note_off_c, 1, 61, 0
1, 114581, Note_off_c, 1, 46, 0
1, 114583, Note_on_c, 1, 45, 127
1, 114583, Note_on_c, 1, 57, 127
1, 114745, Note_off_c, 1, 45, 0
1, 114747, Note_on_c, 1, 43, 127
1, 114904, Note_off_c, 1, 52, 0
1, 114909, Note_off_c, 1, 57, 0
1, 114909, Note_off_c, 1, 43, 0
1, 114912, Note_on_c, 1, 41, 127
1, 114912, Note_on_c, 1, 57, 127
1, 114912, Note_on_c, 1, 69, 127
1, 114912, Note_on_c, 1, 62, 127
1, 115074, Note_off_c, 1, 41, 0
1, 115076, Note_on_c, 1, 40, 127
1, 115238, Note_off_c, 1, 40, 0
1, 115240, Note_on_c, 1, 38, 127
1, 115402, Note_off_c, 1, 57, 0
1, 115402, Note_off_c, 1, 69, 0
1, 115402, Note_off_c, 1, 62, 0
1, 115402, Note_off_c, 1, 38, 0
1, 115404, Note_on_c, 1, 57, 127
1, 115404, Note_on_c, 1, 64, 127
1, 115404, Note_on_c, 1, 37, 127
1, 115566, Note_off_c, 1, 57, 0
1, 115566, Note_off_c, 1, 64, 0
1, 115566, Note_off_c, 1, 37, 0
1, 115568, Note_on_c, 1, 57, 127
1, 115568, Note_on_c, 1, 38, 127
1, 115568, Note_on_c, 1, 65, 127
1, 115568, Note_on_c, 1, 62, 127
1, 115894, Note_off_c, 1, 57, 0
1, 115894, Note_off_c, 1, 38, 0
1, 115896, Note_on_c, 1, 59, 127
1, 115896, Note_on_c, 1, 43, 127
1, 116046, Note_off_c, 1, 65, 0
1, 116061, Note_on_c, 1, 67, 127
1, 116217, Note_off_c, 1, 62, 0
1, 116220, Note_off_c, 1, 59, 0
1, 116222, Note_off_c, 1, 43, 0
1, 116223, Note_off_c, 1, 67, 0
1, 116225, Note_on_c, 1, 65, 127
1, 116225, Note_on_c, 1, 45, 127
1, 116225, Note_on_c, 1, 61, 127
1, 116334, Note_on_c, 1, 64, 127
1, 116341, Note_off_c, 1, 65, 0
1, 116414, Note_off_c, 1, 64, 0
1, 116551, Note_off_c, 1, 45, 0
1, 116703, Note_off_c, 1, 61, 0
1, 116717, Note_on_c, 1, 62, 127
1, 116879, Note_off_c, 1, 62, 0
1, 116881, Note_on_c, 1, 62, 127
1, 116881, Note_on_c, 1, 38, 127
1, 117043, Note_off_c, 1, 62, 0
1, 117046, Note_on_c, 1, 64, 127
1, 117208, Note_off_c, 1, 64, 0
1, 117210, Note_on_c, 1, 65, 127
1, 117372, Note_off_c, 1, 65, 0
1, 117374, Note_on_c, 1, 69, 127
1, 117536, Note_off_c, 1, 69, 0
1, 117701, Note_off_c, 1, 38, 0
1, 117702, Note_on_c, 1, 67, 127
1, 117864, Note_off_c, 1, 67, 0
1, 117866, Note_on_c, 1, 69, 127
1, 117866, Note_on_c, 1, 62, 127
1, 118028, Note_off_c, 1, 69, 0
1, 118031, Note_on_c, 1, 74, 127
1, 118192, Note_off_c, 1, 62, 0
1, 118193, Note_off_c, 1, 74, 0
1, 118195, Note_on_c, 1, 67, 127
1, 118195, Note_on_c, 1, 59, 127
1, 118357, Note_off_c, 1, 67, 0
1, 118359, Note_on_c, 1, 69, 127
1, 118521, Note_off_c, 1, 59, 0
1, 118521, Note_off_c, 1, 69, 0
1, 118523, Note_on_c, 1, 71, 127
1, 118523, Note_on_c, 1, 55, 127
1, 118685, Note_off_c, 1, 71, 0
1, 118687, Note_on_c, 1, 74, 127
1, 118849, Note_off_c, 1, 74, 0
1, 119001, Note_off_c, 1, 55, 0
1, 119016, Note_on_c, 1, 72, 127
1, 119178, Note_off_c, 1, 72, 0
1, 119180, Note_on_c, 1, 74, 127
1, 119180, Note_on_c, 1, 55, 127
1, 119342, Note_off_c, 1, 74, 0
1, 119344, Note_on_c, 1, 79, 127
1, 119506, Note_off_c, 1, 55, 0
1, 119506, Note_off_c, 1, 79, 0
1, 119508, Note_on_c, 1, 60, 127
1, 119508, Note_on_c, 1, 52, 127
1, 119670, Note_off_c, 1, 60, 0
1, 119672, Note_on_c, 1, 62, 127
1, 119834, Note_off_c, 1, 52, 0
1, 119834, Note_off_c, 1, 62, 0
1, 119836, Note_on_c, 1, 64, 127
1, 119836, Note_on_c, 1, 48, 127
1, 119998, Note_off_c, 1, 64, 0
1, 120000, Note_on_c, 1, 67, 127
1, 120162, Note_off_c, 1, 67, 0
1, 120314, Note_off_c, 1, 48, 0
1, 120329, Note_on_c, 1, 65, 127
1, 120491, Note_off_c, 1, 65, 0
1, 120493, Note_on_c, 1, 67, 127
1, 120493, Note_on_c, 1, 60, 127
1, 120655, Note_off_c, 1, 67, 0
1, 120657, Note_on_c, 1, 72, 127
1, 120819, Note_off_c, 1, 60, 0
1, 120819, Note_off_c, 1, 72, 0
1, 120821, Note_on_c, 1, 65, 127
1, 120821, Note_on_c, 1, 57, 127
1, 120983, Note_off_c, 1, 65, 0
1, 120985, Note_on_c, 1, 67, 127
1, 121147, Note_off_c, 1, 57, 0
1, 121147, Note_off_c, 1, 67, 0
1, 121150, Note_on_c, 1, 69, 127
1, 121150, Note_on_c, 1, 53, 127
1, 121312, Note_off_c, 1, 69, 0
1, 121314, Note_on_c, 1, 72, 127
1, 121476, Note_off_c, 1, 72, 0
1, 121628, Note_off_c, 1, 53, 0
1, 121642, Note_on_c, 1, 70, 127
1, 121804, Note_off_c, 1, 70, 0
1, 121806, Note_on_c, 1, 72, 127
1, 121806, Note_on_c, 1, 53, 127
1, 121968, Note_off_c, 1, 72, 0
1, 121970, Note_on_c, 1, 77, 127
1, 122132, Note_off_c, 1, 53, 0
1, 122132, Note_off_c, 1, 77, 0
1, 122135, Note_on_c, 1, 59, 127
1, 122135, Note_on_c, 1, 50, 127
1, 122297, Note_off_c, 1, 59, 0
1, 122299, Note_on_c, 1, 60, 127
1, 122461, Note_off_c, 1, 50, 0
1, 122461, Note_off_c, 1, 60, 0
1, 122463, Note_on_c, 1, 62, 127
1, 122463, Note_on_c, 1, 47, 127
1, 122625, Note_off_c, 1, 62, 0
1, 122627, Note_on_c, 1, 65, 127
1, 122789, Note_off_c, 1, 65, 0
1, 122941, Note_off_c, 1, 47, 0
1, 122955, Note_on_c, 1, 64, 127
1, 123117, Note_off_c, 1, 64, 0
1, 123120, Note_on_c, 1, 65, 127
1, 123120, Note_on_c, 1, 59, 127
1, 123282, Note_off_c, 1, 65, 0
1, 123284, Note_on_c, 1, 71, 127
1, 123446, Note_off_c, 1, 59, 0
1, 123446, Note_off_c, 1, 71, 0
1, 123448, Note_on_c, 1, 64, 127
1, 123448, Note_on_c, 1, 56, 127
1, 123610, Note_off_c, 1, 64, 0
1, 123612, Note_on_c, 1, 66, 127
1, 123774, Note_off_c, 1, 56, 0
1, 123774, Note_off_c, 1, 66, 0
1, 123776, Note_on_c, 1, 68, 127
1, 123776, Note_on_c, 1, 52, 127
1, 123938, Note_off_c, 1, 68, 0
1, 123940, Note_on_c, 1, 71, 127
1, 124102, Note_off_c, 1, 71, 0
1, 124254, Note_off_c, 1, 52, 0
1, 124269, Note_on_c, 1, 69, 127
1, 124431, Note_off_c, 1, 69, 0
1, 124433, Note_on_c, 1, 71, 127
1, 124433, Note_on_c, 1, 52, 127
1, 124595, Note_off_c, 1, 71, 0
1, 124597, Note_on_c, 1, 76, 127
1, 124759, Note_off_c, 1, 52, 0
1, 124759, Note_off_c, 1, 76, 0
1, 124761, Note_on_c, 1, 69, 127
1, 124761, Note_on_c, 1, 48, 127
1, 124923, Note_off_c, 1, 69, 0
1, 124925, Note_on_c, 1, 71, 127
1, 125087, Note_off_c, 1, 48, 0
1, 125087, Note_off_c, 1, 71, 0
1, 125089, Note_on_c, 1, 72, 127
1, 125089, Note_on_c, 1, 45, 127
1, 125251, Note_off_c, 1, 72, 0
1, 125254, Note_on_c, 1, 76, 127
1, 125416, Note_off_c, 1, 76, 0
1, 125418, Note_on_c, 1, 67, 127
1, 125567, Note_off_c, 1, 45, 0
1, 125580, Note_off_c, 1, 67, 0
1, 125582, Note_on_c, 1, 69, 127
1, 125744, Note_off_c, 1, 69, 0
1, 125746, Note_on_c, 1, 70, 127
1, 125746, Note_on_c, 1, 49, 127
1, 125908, Note_off_c, 1, 70, 0
1, 125910, Note_on_c, 1, 76, 127
1, 126072, Note_off_c, 1, 49, 0
1, 126072, Note_off_c, 1, 76, 0
1, 126074, Note_on_c, 1, 66, 127
1, 126074, Note_on_c, 1, 50, 127
1, 126236, Note_off_c, 1, 66, 0
1, 126239, Note_on_c, 1, 67, 127
1, 126400, Note_off_c, 1, 50, 0
1, 126401, Note_off_c, 1, 67, 0
1, 126403, Note_on_c, 1, 69, 127
1, 126403, Note_on_c, 1, 38, 127
1, 126565, Note_off_c, 1, 69, 0
1, 126567, Note_on_c, 1, 76, 127
1, 126729, Note_off_c, 1, 76, 0
1, 126731, Note_on_c, 1, 65, 127
1, 126881, Note_off_c, 1, 38, 0
1, 126893, Note_off_c, 1, 65, 0
1, 126895, Note_on_c, 1, 67, 127
1, 127057, Note_off_c, 1, 67, 0
1, 127059, Note_on_c, 1, 69, 127
1, 127059, Note_on_c, 1, 53, 127
1, 127221, Note_off_c, 1, 69, 0
1, 127224, Note_on_c, 1, 74, 127
1, 127385, Note_off_c, 1, 53, 0
1, 127386, Note_off_c, 1, 74, 0
1, 127388, Note_on_c, 1, 64, 127
1, 127388, Note_on_c, 1, 44, 127
1, 127550, Note_off_c, 1, 64, 0
1, 127552, Note_on_c, 1, 66, 127
1, 127714, Note_off_c, 1, 44, 0
1, 127714, Note_off_c, 1, 66, 0
1, 127716, Note_on_c, 1, 68, 127
1, 127716, Note_on_c, 1, 52, 127
1, 127878, Note_off_c, 1, 68, 0
1, 127880, Note_on_c, 1, 74, 127
1, 128042, Note_off_c, 1, 74, 0
1, 128044, Note_on_c, 1, 64, 127
1, 128194, Note_off_c, 1, 52, 0
1, 128206, Note_off_c, 1, 64, 0
1, 128208, Note_on_c, 1, 68, 127
1, 128370, Note_off_c, 1, 68, 0
1, 128373, Note_on_c, 1, 69, 127
1, 128373, Note_on_c, 1, 57, 127
1, 128535, Note_off_c, 1, 69, 0
1, 128537, Note_on_c, 1, 72, 127
1, 128699, Note_off_c, 1, 57, 0
1, 128699, Note_off_c, 1, 72, 0
1, 128701, Note_on_c, 1, 63, 127
1, 128701, Note_on_c, 1, 59, 127
1, 128863, Note_off_c, 1, 63, 0
1, 128865, Note_on_c, 1, 64, 127
1, 129027, Note_off_c, 1, 59, 0
1, 129027, Note_off_c, 1, 64, 0
1, 129029, Note_on_c, 1, 66, 127
1, 129029, Note_on_c, 1, 57, 127
1, 129191, Note_off_c, 1, 66, 0
1, 129193, Note_on_c, 1, 72, 127
1, 129355, Note_off_c, 1, 57, 0
1, 129355, Note_off_c, 1, 72, 0
1, 129358, Note_on_c, 1, 62, 127
1, 129358, Note_on_c, 1, 59, 127
1, 129520, Note_off_c, 1, 62, 0
1, 129522, Note_on_c, 1, 64, 127
1, 129684, Note_off_c, 1, 59, 0
1, 129684, Note_off_c, 1, 64, 0
1, 129686, Note_on_c, 1, 65, 127
1, 129686, Note_on_c, 1, 56, 127
1, 129848, Note_off_c, 1, 65, 0
1, 129850, Note_on_c, 1, 71, 127
1, 130012, Note_off_c, 1, 56, 0
1, 130014, Note_on_c, 1, 61, 127
1, 130014, Note_on_c, 1, 57, 127
1, 130055, Note_off_c, 1, 71, 0
1, 130176, Note_off_c, 1, 61, 0
1, 130178, Note_on_c, 1, 62, 127
1, 130340, Note_off_c, 1, 57, 0
1, 130340, Note_off_c, 1, 62, 0
1, 130343, Note_on_c, 1, 64, 127
1, 130343, Note_on_c, 1, 55, 127
1, 130505, Note_off_c, 1, 64, 0
1, 130507, Note_on_c, 1, 71, 127
1, 130669, Note_off_c, 1, 55, 0
1, 130671, Note_on_c, 1, 60, 127
1, 130671, Note_on_c, 1, 53, 127
1, 130763, Note_off_c, 1, 71, 0
1, 130833, Note_off_c, 1, 60, 0
1, 130835, Note_on_c, 1, 62, 127
1, 130997, Note_off_c, 1, 53, 0
1, 130997, Note_off_c, 1, 62, 0
1, 130999, Note_on_c, 1, 64, 127
1, 130999, Note_on_c, 1, 48, 127
1, 131161, Note_off_c, 1, 64, 0
1, 131163, Note_on_c, 1, 69, 127
1, 131325, Note_off_c, 1, 48, 0
1, 131328, Note_on_c, 1, 59, 127
1, 131328, Note_on_c, 1, 50, 127
1, 131490, Note_off_c, 1, 59, 0
1, 131492, Note_on_c, 1, 60, 127
1, 131505, Note_off_c, 1, 69, 0
1, 131654, Note_off_c, 1, 50, 0
1, 131654, Note_off_c, 1, 60, 0
1, 131656, Note_on_c, 1, 62, 127
1, 131656, Note_on_c, 1, 47, 127
1, 131818, Note_off_c, 1, 62, 0
1, 131820, Note_on_c, 1, 69, 127
1, 131982, Note_off_c, 1, 47, 0
1, 131984, Note_on_c, 1, 59, 127
1, 131984, Note_on_c, 1, 52, 127
1, 132146, Note_off_c, 1, 59, 0
1, 132148, Note_on_c, 1, 60, 127
1, 132298, Note_off_c, 1, 69, 0
1, 132310, Note_off_c, 1, 52, 0
1, 132310, Note_off_c, 1, 60, 0
1, 132312, Note_on_c, 1, 62, 127
1, 132312, Note_on_c, 1, 40, 127
1, 132474, Note_off_c, 1, 62, 0
1, 132477, Note_on_c, 1, 68, 127
1, 132638, Note_off_c, 1, 40, 0
1, 132639, Note_off_c, 1, 68, 0
1, 132641, Note_on_c, 1, 45, 127
1, 132641, Note_on_c, 1, 60, 127
1, 132641, Note_on_c, 1, 69, 127
1, 132803, Note_off_c, 1, 45, 0
1, 132805, Note_on_c, 1, 52, 127
1, 132967, Note_off_c, 1, 52, 0
1, 132969, Note_on_c, 1, 54, 127
1, 133131, Note_off_c, 1, 54, 0
1, 133133, Note_on_c, 1, 56, 127
1, 133290, Note_off_c, 1, 60, 0
1, 133295, Note_off_c, 1, 56, 0
1, 133297, Note_on_c, 1, 57, 127
1, 133459, Note_off_c, 1, 57, 0
1, 133462, Note_on_c, 1, 59, 127
1, 133624, Note_off_c, 1, 69, 0
1, 133624, Note_off_c, 1, 59, 0
1, 133626, Note_on_c, 1, 60, 127
1, 133788, Note_off_c, 1, 60, 0
1, 133790, Note_on_c, 1, 57, 127
1, 133952, Note_off_c, 1, 57, 0
1, 133954, Note_on_c, 1, 62, 127
1, 134116, Note_off_c, 1, 62, 0
1, 134118, Note_on_c, 1, 64, 127
1, 134280, Note_off_c, 1, 64, 0
1, 134282, Note_on_c, 1, 62, 127
1, 134444, Note_off_c, 1, 62, 0
1, 134447, Note_on_c, 1, 60, 127
1, 134609, Note_off_c, 1, 60, 0
1, 134611, Note_on_c, 1, 59, 127
1, 134773, Note_off_c, 1, 59, 0
1, 134775, Note_on_c, 1, 64, 127
1, 134937, Note_off_c, 1, 64, 0
1, 134939, Note_on_c, 1, 62, 127
1, 135101, Note_off_c, 1, 62, 0
1, 135103, Note_on_c, 1, 64, 127
1, 135265, Note_off_c, 1, 64, 0
1, 135267, Note_on_c, 1, 60, 127
1, 135432, Note_on_c, 1, 77, 127
1, 135557, Note_off_c, 1, 60, 0
1, 135594, Note_off_c, 1, 77, 0
1, 135596, Note_on_c, 1, 76, 127
1, 135596, Note_on_c, 1, 52, 127
1, 135758, Note_off_c, 1, 76, 0
1, 135760, Note_on_c, 1, 74, 127
1, 135922, Note_off_c, 1, 52, 0
1, 135922, Note_off_c, 1, 74, 0
1, 135924, Note_on_c, 1, 72, 127
1, 135924, Note_on_c, 1, 57, 127
1, 136086, Note_off_c, 1, 72, 0
1, 136088, Note_on_c, 1, 71, 127
1, 136250, Note_off_c, 1, 57, 0
1, 136250, Note_off_c, 1, 71, 0
1, 136252, Note_on_c, 1, 69, 127
1, 136252, Note_on_c, 1, 57, 127
1, 136414, Note_off_c, 1, 69, 0
1, 136416, Note_on_c, 1, 72, 127
1, 136578, Note_off_c, 1, 57, 0
1, 136578, Note_off_c, 1, 72, 0
1, 136581, Note_on_c, 1, 65, 127
1, 136581, Note_on_c, 1, 57, 127
1, 136745, Note_on_c, 1, 76, 127
1, 136786, Note_off_c, 1, 65, 0
1, 136907, Note_off_c, 1, 57, 0
1, 136907, Note_off_c, 1, 76, 0
1, 136909, Note_on_c, 1, 74, 127
1, 136909, Note_on_c, 1, 56, 127
1, 137071, Note_off_c, 1, 74, 0
1, 137071, Note_off_c, 1, 56, 0
1, 137073, Note_on_c, 1, 72, 127
1, 137073, Note_on_c, 1, 57, 127
1, 137235, Note_off_c, 1, 72, 0
1, 137235, Note_off_c, 1, 57, 0
1, 137237, Note_on_c, 1, 71, 127
1, 137237, Note_on_c, 1, 59, 127
1, 137399, Note_off_c, 1, 71, 0
1, 137401, Note_on_c, 1, 69, 127
1, 137563, Note_off_c, 1, 59, 0
1, 137563, Note_off_c, 1, 69, 0
1, 137566, Note_on_c, 1, 68, 127
1, 137566, Note_on_c, 1, 59, 127
1, 137728, Note_off_c, 1, 68, 0
1, 137730, Note_on_c, 1, 71, 127
1, 137892, Note_off_c, 1, 59, 0
1, 137892, Note_off_c, 1, 71, 0
1, 137894, Note_on_c, 1, 64, 127
1, 137894, Note_on_c, 1, 59, 127
1, 138058, Note_on_c, 1, 74, 127
1, 138099, Note_off_c, 1, 64, 0
1, 138220, Note_off_c, 1, 59, 0
1, 138220, Note_off_c, 1, 74, 0
1, 138222, Note_on_c, 1, 72, 127
1, 138222, Note_on_c, 1, 57, 127
1, 138384, Note_off_c, 1, 72, 0
1, 138384, Note_off_c, 1, 57, 0
1, 138386, Note_on_c, 1, 71, 127
1, 138386, Note_on_c, 1, 59, 127
1, 138548, Note_off_c, 1, 71, 0
1, 138548, Note_off_c, 1, 59, 0
1, 138551, Note_on_c, 1, 69, 127
1, 138551, Note_on_c, 1, 60, 127
1, 138713, Note_off_c, 1, 69, 0
1, 138715, Note_on_c, 1, 67, 127
1, 138877, Note_off_c, 1, 60, 0
1, 138877, Note_off_c, 1, 67, 0
1, 138879, Note_on_c, 1, 65, 127
1, 138879, Note_on_c, 1, 60, 127
1, 139041, Note_off_c, 1, 65, 0
1, 139043, Note_on_c, 1, 69, 127
1, 139205, Note_off_c, 1, 69, 0
1, 139207, Note_on_c, 1, 62, 127
1, 139369, Note_off_c, 1, 60, 0
1, 139536, Note_on_c, 1, 68, 127
1, 139536, Note_on_c, 1, 59, 127
1, 139698, Note_off_c, 1, 68, 0
1, 139698, Note_off_c, 1, 59, 0
1, 139700, Note_on_c, 1, 57, 127
1, 139856, Note_off_c, 1, 62, 0
1, 139862, Note_off_c, 1, 57, 0
1, 139864, Note_on_c, 1, 56, 127
1, 139864, Note_on_c, 1, 71, 127
1, 140026, Note_off_c, 1, 56, 0
1, 140028, Note_on_c, 1, 54, 127
1, 140190, Note_off_c, 1, 71, 0
1, 140190, Note_off_c, 1, 54, 0
1, 140192, Note_on_c, 1, 52, 127
1, 140192, Note_on_c, 1, 71, 127
1, 140192, Note_on_c, 1, 68, 127
1, 140192, Note_on_c, 1, 62, 127
1, 140354, Note_off_c, 1, 52, 0
1, 140356, Note_on_c, 1, 56, 127
1, 140518, Note_off_c, 1, 71, 0
1, 140518, Note_off_c, 1, 68, 0
1, 140518, Note_off_c, 1, 62, 0
1, 140518, Note_off_c, 1, 56, 0
1, 140520, Note_on_c, 1, 48, 127
1, 140520, Note_on_c, 1, 71, 127
1, 140520, Note_on_c, 1, 68, 127
1, 140520, Note_on_c, 1, 64, 127
1, 140682, Note_off_c, 1, 48, 0
1, 140685, Note_on_c, 1, 53, 127
1, 140846, Note_off_c, 1, 71, 0
1, 140846, Note_off_c, 1, 68, 0
1, 140846, Note_off_c, 1, 64, 0
1, 140847, Note_off_c, 1, 53, 0
1, 140849, Note_on_c, 1, 69, 127
1, 140849, Note_on_c, 1, 52, 127
1, 141011, Note_off_c, 1, 69, 0
1, 141011, Note_off_c, 1, 52, 0
1, 141013, Note_on_c, 1, 71, 127
1, 141013, Note_on_c, 1, 50, 127
1, 141175, Note_off_c, 1, 71, 0
1, 141175, Note_off_c, 1, 50, 0
1, 141177, Note_on_c, 1, 48, 127
1, 141177, Note_on_c, 1, 72, 127
1, 141339, Note_off_c, 1, 48, 0
1, 141341, Note_on_c, 1, 47, 127
1, 141503, Note_off_c, 1, 72, 0
1, 141503, Note_off_c, 1, 47, 0
1, 141505, Note_on_c, 1, 45, 127
1, 141505, Note_on_c, 1, 69, 127
1, 141505, Note_on_c, 1, 72, 127
1, 141505, Note_on_c, 1, 64, 127
1, 141667, Note_off_c, 1, 45, 0
1, 141670, Note_on_c, 1, 48, 127
1, 141831, Note_off_c, 1, 69, 0
1, 141831, Note_off_c, 1, 72, 0
1, 141831, Note_off_c, 1, 64, 0
1, 141832, Note_off_c, 1, 48, 0
1, 141834, Note_on_c, 1, 42, 127
1, 141834, Note_on_c, 1, 72, 127
1, 141834, Note_on_c, 1, 69, 127
1, 141834, Note_on_c, 1, 62, 127
1, 141996, Note_off_c, 1, 42, 0
1, 141998, Note_on_c, 1, 52, 127
1, 142160, Note_off_c, 1, 72, 0
1, 142160, Note_off_c, 1, 69, 0
1, 142160, Note_off_c, 1, 52, 0
1, 142162, Note_on_c, 1, 68, 127
1, 142162, Note_on_c, 1, 71, 127
1, 142162, Note_on_c, 1, 50, 127
1, 142324, Note_off_c, 1, 68, 0
1, 142324, Note_off_c, 1, 71, 0
1, 142324, Note_off_c, 1, 50, 0
1, 142326, Note_on_c, 1, 48, 127
1, 142483, Note_off_c, 1, 62, 0
1, 142488, Note_off_c, 1, 48, 0
1, 142490, Note_on_c, 1, 47, 127
1, 142490, Note_on_c, 1, 74, 127
1, 142490, Note_on_c, 1, 71, 127
1, 142652, Note_off_c, 1, 47, 0
1, 142655, Note_on_c, 1, 45, 127
1, 142816, Note_off_c, 1, 74, 0
1, 142816, Note_off_c, 1, 71, 0
1, 142817, Note_off_c, 1, 45, 0
1, 142819, Note_on_c, 1, 44, 127
1, 142819, Note_on_c, 1, 65, 127
1, 142819, Note_on_c, 1, 71, 127
1, 142819, Note_on_c, 1, 74, 127
1, 142981, Note_off_c, 1, 44, 0
1, 142983, Note_on_c, 1, 47, 127
1, 143145, Note_off_c, 1, 65, 0
1, 143145, Note_off_c, 1, 71, 0
1, 143145, Note_off_c, 1, 74, 0
1, 143145, Note_off_c, 1, 47, 0
1, 143147, Note_on_c, 1, 71, 127
1, 143147, Note_on_c, 1, 74, 127
1, 143147, Note_on_c, 1, 40, 127
1, 143147, Note_on_c, 1, 64, 127
1, 143473, Note_off_c, 1, 71, 0
1, 143473, Note_off_c, 1, 74, 0
1, 143473, Note_off_c, 1, 40, 0
1, 143475, Note_on_c, 1, 69, 127
1, 143475, Note_on_c, 1, 72, 127
1, 143475, Note_on_c, 1, 48, 127
1, 143637, Note_off_c, 1, 69, 0
1, 143637, Note_off_c, 1, 72, 0
1, 143637, Note_off_c, 1, 48, 0
1, 143640, Note_on_c, 1, 50, 127
1, 143796, Note_off_c, 1, 64, 0
1, 143802, Note_off_c, 1, 50, 0
1, 143804, Note_on_c, 1, 72, 127
1, 143804, Note_on_c, 1, 52, 127
1, 143804, Note_on_c, 1, 68, 127
1, 143884, Note_off_c, 1, 72, 0
1, 143886, Note_on_c, 1, 71, 127
1, 143966, Note_off_c, 1, 71, 0
1, 144130, Note_off_c, 1, 52, 0
1, 144132, Note_on_c, 1, 40, 127
1, 144282, Note_off_c, 1, 68, 0
1, 144296, Note_on_c, 1, 69, 127
1, 144458, Note_off_c, 1, 40, 0
1, 144458, Note_off_c, 1, 69, 0
1, 144460, Note_on_c, 1, 69, 127
1, 144460, Note_on_c, 1, 45, 127
1, 144622, Note_off_c, 1, 69, 0
1, 144786, Note_off_c, 1, 45, 0
1, 144789, Note_on_c, 1, 72, 127
1, 144789, Note_on_c, 1, 57, 127
1, 144951, Note_off_c, 1, 72, 0
1, 144953, Note_on_c, 1, 76, 127
1, 145115, Note_off_c, 1, 57, 0
1, 145115, Note_off_c, 1, 76, 0
1, 145117, Note_on_c, 1, 72, 127
1, 145117, Note_on_c, 1, 57, 127
1, 145279, Note_off_c, 1, 72, 0
1, 145281, Note_on_c, 1, 69, 127
1, 145443, Note_off_c, 1, 57, 0
1, 145443, Note_off_c, 1, 69, 0
1, 145445, Note_on_c, 1, 72, 127
1, 145445, Note_on_c, 1, 55, 127
1, 145607, Note_off_c, 1, 72, 0
1, 145609, Note_on_c, 1, 76, 127
1, 145771, Note_off_c, 1, 55, 0
1, 145774, Note_on_c, 1, 81, 127
1, 145774, Note_on_c, 1, 53, 127
1, 145781, Note_off_c, 1, 76, 0
1, 145938, Note_on_c, 1, 65, 127
1, 146098, Note_off_c, 1, 81, 0
1, 146102, Note_on_c, 1, 69, 127
1, 146262, Note_off_c, 1, 65, 0
1, 146264, Note_off_c, 1, 69, 0
1, 146423, Note_off_c, 1, 53, 0
1, 146430, Note_on_c, 1, 69, 127
1, 146430, Note_on_c, 1, 81, 127
1, 146592, Note_off_c, 1, 69, 0
1, 146594, Note_on_c, 1, 65, 127
1, 146754, Note_off_c, 1, 81, 0
1, 146756, Note_off_c, 1, 65, 0
1, 146759, Note_on_c, 1, 69, 127
1, 146759, Note_on_c, 1, 81, 127
1, 146921, Note_off_c, 1, 69, 0
1, 146923, Note_on_c, 1, 72, 127
1, 147083, Note_off_c, 1, 81, 0
1, 147085, Note_off_c, 1, 72, 0
1, 147087, Note_on_c, 1, 74, 127
1, 147087, Note_on_c, 1, 81, 127
1, 147251, Note_on_c, 1, 58, 127
1, 147413, Note_off_c, 1, 74, 0
1, 147413, Note_off_c, 1, 81, 0
1, 147413, Note_off_c, 1, 58, 0
1, 147415, Note_on_c, 1, 62, 127
1, 147415, Note_on_c, 1, 81, 127
1, 147415, Note_on_c, 1, 77, 127
1, 147577, Note_off_c, 1, 62, 0
1, 147579, Note_on_c, 1, 65, 127
1, 147741, Note_off_c, 1, 81, 0
1, 147741, Note_off_c, 1, 77, 0
1, 147741, Note_off_c, 1, 65, 0
1, 147744, Note_on_c, 1, 62, 127
1, 147744, Note_on_c, 1, 77, 127
1, 147744, Note_on_c, 1, 81, 127
1, 147906, Note_off_c, 1, 62, 0
1, 147908, Note_on_c, 1, 58, 127
1, 148070, Note_off_c, 1, 77, 0
1, 148070, Note_off_c, 1, 81, 0
1, 148070, Note_off_c, 1, 58, 0
1, 148072, Note_on_c, 1, 62, 127
1, 148072, Note_on_c, 1, 77, 127
1, 148072, Note_on_c, 1, 81, 127
1, 148234, Note_off_c, 1, 62, 0
1, 148236, Note_on_c, 1, 65, 127
1, 148398, Note_off_c, 1, 77, 0
1, 148398, Note_off_c, 1, 81, 0
1, 148400, Note_on_c, 1, 79, 127
1, 148400, Note_on_c, 1, 67, 127
1, 148475, Note_off_c, 1, 65, 0
1, 148564, Note_on_c, 1, 52, 127
1, 148726, Note_off_c, 1, 79, 0
1, 148726, Note_off_c, 1, 67, 0
1, 148726, Note_off_c, 1, 52, 0
1, 148728, Note_on_c, 1, 55, 127
1, 148728, Note_on_c, 1, 70, 127
1, 148728, Note_on_c, 1, 77, 127
1, 148728, Note_on_c, 1, 79, 127
1, 148890, Note_off_c, 1, 55, 0
1, 148893, Note_on_c, 1, 58, 127
1, 149054, Note_off_c, 1, 70, 0
1, 149054, Note_off_c, 1, 77, 0
1, 149054, Note_off_c, 1, 79, 0
1, 149055, Note_off_c, 1, 58, 0
1, 149057, Note_on_c, 1, 55, 127
1, 149057, Note_on_c, 1, 79, 127
1, 149057, Note_on_c, 1, 76, 127
1, 149057, Note_on_c, 1, 70, 127
1, 149219, Note_off_c, 1, 55, 0
1, 149221, Note_on_c, 1, 52, 127
1, 149383, Note_off_c, 1, 79, 0
1, 149383, Note_off_c, 1, 76, 0
1, 149383, Note_off_c, 1, 70, 0
1, 149383, Note_off_c, 1, 52, 0
1, 149385, Note_on_c, 1, 55, 127
1, 149385, Note_on_c, 1, 79, 127
1, 149385, Note_on_c, 1, 70, 127
1, 149385, Note_on_c, 1, 76, 127
1, 149547, Note_off_c, 1, 55, 0
1, 149549, Note_on_c, 1, 58, 127
1, 149711, Note_off_c, 1, 79, 0
1, 149711, Note_off_c, 1, 70, 0
1, 149711, Note_off_c, 1, 76, 0
1, 149711, Note_off_c, 1, 58, 0
1, 149713, Note_on_c, 1, 61, 127
1, 149713, Note_on_c, 1, 79, 127
1, 149713, Note_on_c, 1, 69, 127
1, 149713, Note_on_c, 1, 76, 127
1, 149875, Note_off_c, 1, 61, 0
1, 149878, Note_on_c, 1, 45, 127
1, 150039, Note_off_c, 1, 79, 0
1, 150039, Note_off_c, 1, 69, 0
1, 150039, Note_off_c, 1, 76, 0
1, 150040, Note_off_c, 1, 45, 0
1, 150042, Note_on_c, 1, 49, 127
1, 150042, Note_on_c, 1, 79, 127
1, 150042, Note_on_c, 1, 69, 127
1, 150042, Note_on_c, 1, 76, 127
1, 150204, Note_off_c, 1, 49, 0
1, 150206, Note_on_c, 1, 52, 127
1, 150368, Note_off_c, 1, 79, 0
1, 150368, Note_off_c, 1, 69, 0
1, 150368, Note_off_c, 1, 76, 0
1, 150368, Note_off_c, 1, 52, 0
1, 150370, Note_on_c, 1, 49, 127
1, 150370, Note_on_c, 1, 79, 127
1, 150370, Note_on_c, 1, 69, 127
1, 150370, Note_on_c, 1, 76, 127
1, 150532, Note_off_c, 1, 49, 0
1, 150534, Note_on_c, 1, 45, 127
1, 150696, Note_off_c, 1, 79, 0
1, 150696, Note_off_c, 1, 69, 0
1, 150696, Note_off_c, 1, 76, 0
1, 150696, Note_off_c, 1, 45, 0
1, 150698, Note_on_c, 1, 49, 127
1, 150698, Note_on_c, 1, 79, 127
1, 150698, Note_on_c, 1, 69, 127
1, 150698, Note_on_c, 1, 76, 127
1, 150860, Note_off_c, 1, 49, 0
1, 150863, Note_on_c, 1, 52, 127
1, 151024, Note_off_c, 1, 79, 0
1, 151024, Note_off_c, 1, 69, 0
1, 151024, Note_off_c, 1, 76, 0
1, 151025, Note_off_c, 1, 52, 0
1, 151027, Note_on_c, 1, 53, 127
1, 151027, Note_on_c, 1, 76, 127
1, 151027, Note_on_c, 1, 79, 127
1, 151027, Note_on_c, 1, 69, 127
1, 151189, Note_off_c, 1, 53, 0
1, 151191, Note_on_c, 1, 38, 127
1, 151353, Note_off_c, 1, 76, 0
1, 151353, Note_off_c, 1, 79, 0
1, 151353, Note_off_c, 1, 38, 0
1, 151355, Note_on_c, 1, 41, 127
1, 151355, Note_on_c, 1, 74, 127
1, 151355, Note_on_c, 1, 77, 127
1, 151517, Note_off_c, 1, 41, 0
1, 151519, Note_on_c, 1, 45, 127
1, 151676, Note_off_c, 1, 69, 0
1, 151681, Note_off_c, 1, 74, 0
1, 151681, Note_off_c, 1, 77, 0
1, 151681, Note_off_c, 1, 45, 0
1, 151683, Note_on_c, 1, 41, 127
1, 151683, Note_on_c, 1, 74, 127
1, 151683, Note_on_c, 1, 69, 127
1, 151683, Note_on_c, 1, 77, 127
1, 151845, Note_off_c, 1, 41, 0
1, 151848, Note_on_c, 1, 38, 127
1, 152009, Note_off_c, 1, 74, 0
1, 152009, Note_off_c, 1, 69, 0
1, 152009, Note_off_c, 1, 77, 0
1, 152010, Note_off_c, 1, 38, 0
1, 152012, Note_on_c, 1, 41, 127
1, 152012, Note_on_c, 1, 69, 127
1, 152012, Note_on_c, 1, 74, 127
1, 152012, Note_on_c, 1, 77, 127
1, 152174, Note_off_c, 1, 41, 0
1, 152176, Note_on_c, 1, 45, 127
1, 152338, Note_off_c, 1, 69, 0
1, 152338, Note_off_c, 1, 74, 0
1, 152338, Note_off_c, 1, 77, 0
1, 152338, Note_off_c, 1, 45, 0
1, 152340, Note_on_c, 1, 67, 127
1, 152340, Note_on_c, 1, 74, 127
1, 152340, Note_on_c, 1, 77, 127
1, 152340, Note_on_c, 1, 46, 127
1, 152502, Note_off_c, 1, 67, 0
1, 152668, Note_on_c, 1, 70, 127
1, 152784, Note_off_c, 1, 74, 0
1, 152830, Note_off_c, 1, 70, 0
1, 152989, Note_off_c, 1, 77, 0
1, 153160, Note_off_c, 1, 46, 0
1, 153161, Note_on_c, 1, 67, 127
1, 153323, Note_off_c, 1, 67, 0
1, 153325, Note_on_c, 1, 70, 127
1, 153325, Note_on_c, 1, 58, 127
1, 153487, Note_off_c, 1, 70, 0
1, 153489, Note_on_c, 1, 74, 127
1, 153651, Note_off_c, 1, 58, 0
1, 153651, Note_off_c, 1, 74, 0
1, 153653, Note_on_c, 1, 76, 127
1, 153653, Note_on_c, 1, 49, 127
1, 153941, Note_off_c, 1, 76, 0
1, 153979, Note_off_c, 1, 49, 0
1, 153982, Note_on_c, 1, 69, 127
1, 153982, Note_on_c, 1, 74, 127
1, 153982, Note_on_c, 1, 65, 127
1, 153982, Note_on_c, 1, 50, 127
1, 154308, Note_off_c, 1, 69, 0
1, 154308, Note_off_c, 1, 74, 0
1, 154308, Note_off_c, 1, 65, 0
1, 154308, Note_off_c, 1, 50, 0
1, 154310, Note_on_c, 1, 69, 127
1, 154310, Note_on_c, 1, 74, 127
1, 154310, Note_on_c, 1, 64, 127
1, 154310, Note_on_c, 1, 57, 127
1, 154636, Note_off_c, 1, 69, 0
1, 154636, Note_off_c, 1, 74, 0
1, 154636, Note_off_c, 1, 64, 0
1, 154636, Note_off_c, 1, 57, 0
1, 154638, Note_on_c, 1, 74, 127
1, 154638, Note_on_c, 1, 69, 127
1, 154638, Note_on_c, 1, 67, 127
1, 154638, Note_on_c, 1, 64, 127
1, 154638, Note_on_c, 1, 45, 127
1, 154718, Note_off_c, 1, 74, 0
1, 154720, Note_on_c, 1, 73, 127
1, 154800, Note_off_c, 1, 73, 0
1, 154802, Note_on_c, 1, 71, 127
1, 154882, Note_off_c, 1, 71, 0
1, 154964, Note_off_c, 1, 69, 0
1, 154964, Note_off_c, 1, 67, 0
1, 154964, Note_off_c, 1, 64, 0
1, 154964, Note_off_c, 1, 45, 0
1, 154967, Note_on_c, 1, 69, 127
1, 154967, Note_on_c, 1, 74, 127
1, 154967, Note_on_c, 1, 65, 127
1, 154967, Note_on_c, 1, 38, 127
1, 155129, Note_off_c, 1, 69, 0
1, 155129, Note_off_c, 1, 74, 0
1, 155129, Note_off_c, 1, 65, 0
1, 155131, Note_on_c, 1, 57, 127
1, 155293, Note_off_c, 1, 57, 0
1, 155295, Note_on_c, 1, 59, 127
1, 155457, Note_off_c, 1, 59, 0
1, 155459, Note_on_c, 1, 61, 127
1, 155621, Note_off_c, 1, 61, 0
1, 155623, Note_on_c, 1, 62, 127
1, 155785, Note_off_c, 1, 62, 0
1, 155787, Note_off_c, 1, 38, 0
1, 155787, Note_on_c, 1, 64, 127
1, 155949, Note_off_c, 1, 64, 0
1, 155952, Note_on_c, 1, 65, 127
1, 155952, Note_on_c, 1, 57, 127
1, 155952, Note_on_c, 1, 50, 127
1, 156114, Note_off_c, 1, 65, 0
1, 156116, Note_on_c, 1, 62, 127
1, 156278, Note_off_c, 1, 57, 0
1, 156278, Note_off_c, 1, 50, 0
1, 156278, Note_off_c, 1, 62, 0
1, 156280, Note_on_c, 1, 67, 127
1, 156280, Note_on_c, 1, 50, 127
1, 156280, Note_on_c, 1, 58, 127
1, 156442, Note_off_c, 1, 67, 0
1, 156444, Note_on_c, 1, 69, 127
1, 156606, Note_off_c, 1, 50, 0
1, 156606, Note_off_c, 1, 69, 0
1, 156608, Note_on_c, 1, 52, 127
1, 156770, Note_off_c, 1, 52, 0
1, 156772, Note_on_c, 1, 65, 127
1, 156929, Note_off_c, 1, 58, 0
1, 156934, Note_off_c, 1, 65, 0
1, 156936, Note_on_c, 1, 64, 127
1, 156936, Note_on_c, 1, 48, 127
1, 157098, Note_off_c, 1, 64, 0
1, 157101, Note_on_c, 1, 69, 127
1, 157262, Note_off_c, 1, 48, 0
1, 157263, Note_off_c, 1, 69, 0
1, 157265, Note_on_c, 1, 67, 127
1, 157265, Note_on_c, 1, 52, 127
1, 157265, Note_on_c, 1, 48, 127
1, 157427, Note_off_c, 1, 67, 0
1, 157429, Note_on_c, 1, 69, 127
1, 157591, Note_off_c, 1, 52, 0
1, 157591, Note_off_c, 1, 48, 0
1, 157591, Note_off_c, 1, 69, 0
1, 157593, Note_on_c, 1, 66, 127
1, 157593, Note_on_c, 1, 48, 127
1, 157593, Note_on_c, 1, 57, 127
1, 157757, Note_on_c, 1, 62, 127
1, 157798, Note_off_c, 1, 66, 0
1, 157919, Note_off_c, 1, 48, 0
1, 157919, Note_off_c, 1, 62, 0
1, 157921, Note_on_c, 1, 64, 127
1, 157921, Note_on_c, 1, 50, 127
1, 158083, Note_off_c, 1, 64, 0
1, 158083, Note_off_c, 1, 50, 0
1, 158242, Note_off_c, 1, 57, 0
1, 158250, Note_on_c, 1, 67, 127
1, 158250, Note_on_c, 1, 46, 127
1, 158412, Note_off_c, 1, 67, 0
1, 158414, Note_on_c, 1, 69, 127
1, 158576, Note_off_c, 1, 46, 0
1, 158576, Note_off_c, 1, 69, 0
1, 158578, Note_on_c, 1, 70, 127
1, 158578, Note_on_c, 1, 55, 127
1, 158578, Note_on_c, 1, 46, 127
1, 158740, Note_off_c, 1, 70, 0
1, 158742, Note_on_c, 1, 67, 127
1, 158904, Note_off_c, 1, 55, 0
1, 158904, Note_off_c, 1, 46, 0
1, 158904, Note_off_c, 1, 67, 0
1, 158906, Note_on_c, 1, 72, 127
1, 158906, Note_on_c, 1, 46, 127
1, 158906, Note_on_c, 1, 52, 127
1, 159071, Note_on_c, 1, 64, 127
1, 159230, Note_off_c, 1, 72, 0
1, 159232, Note_off_c, 1, 46, 0
1, 159233, Note_off_c, 1, 64, 0
1, 159235, Note_on_c, 1, 65, 127
1, 159235, Note_on_c, 1, 48, 127
1, 159397, Note_off_c, 1, 65, 0
1, 159397, Note_off_c, 1, 48, 0
1, 159399, Note_on_c, 1, 67, 127
1, 159555, Note_off_c, 1, 52, 0
1, 159561, Note_off_c, 1, 67, 0
1, 159563, Note_on_c, 1, 69, 127
1, 159563, Note_on_c, 1, 45, 127
1, 159725, Note_off_c, 1, 69, 0
1, 159727, Note_on_c, 1, 70, 127
1, 159889, Note_off_c, 1, 45, 0
1, 159889, Note_off_c, 1, 70, 0
1, 159891, Note_on_c, 1, 72, 127
1, 159891, Note_on_c, 1, 54, 127
1, 159891, Note_on_c, 1, 45, 127
1, 160053, Note_off_c, 1, 72, 0
1, 160056, Note_on_c, 1, 69, 127
1, 160217, Note_off_c, 1, 54, 0
1, 160217, Note_off_c, 1, 45, 0
1, 160218, Note_off_c, 1, 69, 0
1, 160220, Note_on_c, 1, 74, 127
1, 160220, Note_on_c, 1, 45, 127
1, 160220, Note_on_c, 1, 58, 127
1, 160382, Note_off_c, 1, 74, 0
1, 160384, Note_on_c, 1, 66, 127
1, 160546, Note_off_c, 1, 45, 0
1, 160546, Note_off_c, 1, 66, 0
1, 160548, Note_on_c, 1, 67, 127
1, 160548, Note_on_c, 1, 46, 127
1, 160710, Note_off_c, 1, 67, 0
1, 160710, Note_off_c, 1, 46, 0
1, 160712, Note_on_c, 1, 69, 127
1, 160869, Note_off_c, 1, 58, 0
1, 160874, Note_off_c, 1, 69, 0
1, 160876, Note_on_c, 1, 70, 127
1, 160876, Note_on_c, 1, 43, 127
1, 161040, Note_on_c, 1, 72, 127
1, 161081, Note_off_c, 1, 70, 0
1, 161202, Note_off_c, 1, 43, 0
1, 161202, Note_off_c, 1, 72, 0
1, 161205, Note_on_c, 1, 74, 127
1, 161205, Note_on_c, 1, 58, 127
1, 161205, Note_on_c, 1, 55, 127
1, 161367, Note_off_c, 1, 74, 0
1, 161369, Note_on_c, 1, 70, 127
1, 161531, Note_off_c, 1, 58, 0
1, 161531, Note_off_c, 1, 55, 0
1, 161531, Note_off_c, 1, 70, 0
1, 161533, Note_on_c, 1, 75, 127
1, 161533, Note_on_c, 1, 57, 127
1, 161533, Note_on_c, 1, 60, 127
1, 161533, Note_on_c, 1, 55, 127
1, 161695, Note_off_c, 1, 75, 0
1, 161697, Note_on_c, 1, 74, 127
1, 161859, Note_off_c, 1, 57, 0
1, 161859, Note_off_c, 1, 60, 0
1, 161859, Note_off_c, 1, 55, 0
1, 161859, Note_off_c, 1, 74, 0
1, 161861, Note_on_c, 1, 72, 127
1, 161861, Note_on_c, 1, 57, 127
1, 162023, Note_off_c, 1, 72, 0
1, 162023, Note_off_c, 1, 57, 0
1, 162025, Note_on_c, 1, 70, 127
1, 162025, Note_on_c, 1, 55, 127
1, 162187, Note_off_c, 1, 70, 0
1, 162187, Note_off_c, 1, 55, 0
1, 162190, Note_on_c, 1, 69, 127
1, 162190, Note_on_c, 1, 54, 127
1, 162352, Note_off_c, 1, 69, 0
1, 162354, Note_on_c, 1, 74, 127
1, 162516, Note_off_c, 1, 54, 0
1, 162516, Note_off_c, 1, 74, 0
1, 162518, Note_on_c, 1, 72, 127
1, 162518, Note_on_c, 1, 50, 127
1, 162518, Note_on_c, 1, 54, 127
1, 162680, Note_off_c, 1, 72, 0
1, 162682, Note_on_c, 1, 74, 127
1, 162844, Note_off_c, 1, 50, 0
1, 162844, Note_off_c, 1, 54, 0
1, 162844, Note_off_c, 1, 74, 0
1, 162846, Note_on_c, 1, 55, 127
1, 162846, Note_on_c, 1, 70, 127
1, 163008, Note_off_c, 1, 55, 0
1, 163010, Note_on_c, 1, 69, 127
1, 163010, Note_on_c, 1, 53, 127
1, 163172, Note_off_c, 1, 69, 0
1, 163172, Note_off_c, 1, 53, 0
1, 163175, Note_on_c, 1, 67, 127
1, 163175, Note_on_c, 1, 51, 127
1, 163337, Note_off_c, 1, 67, 0
1, 163337, Note_off_c, 1, 51, 0
1, 163339, Note_on_c, 1, 65, 127
1, 163339, Note_on_c, 1, 50, 127
1, 163501, Note_off_c, 1, 65, 0
1, 163501, Note_off_c, 1, 50, 0
1, 163503, Note_on_c, 1, 48, 127
1, 163503, Note_on_c, 1, 63, 127
1, 163665, Note_off_c, 1, 48, 0
1, 163829, Note_off_c, 1, 70, 0
1, 164152, Note_off_c, 1, 63, 0
1, 164160, Note_on_c, 1, 46, 127
1, 164160, Note_on_c, 1, 62, 127
1, 164322, Note_off_c, 1, 46, 0
1, 164809, Note_off_c, 1, 62, 0
1, 164816, Note_on_c, 1, 45, 127
1, 164816, Note_on_c, 1, 60, 127
1, 164978, Note_off_c, 1, 45, 0
1, 165144, Note_on_c, 1, 66, 127
1, 165465, Note_off_c, 1, 60, 0
1, 165470, Note_off_c, 1, 66, 0
1, 165473, Note_on_c, 1, 67, 127
1, 165473, Note_on_c, 1, 58, 127
1, 165473, Note_on_c, 1, 43, 127
1, 165635, Note_off_c, 1, 67, 0
1, 165637, Note_on_c, 1, 65, 127
1, 165797, Note_off_c, 1, 58, 0
1, 165799, Note_off_c, 1, 43, 0
1, 165799, Note_off_c, 1, 65, 0
1, 165801, Note_on_c, 1, 63, 127
1, 165801, Note_on_c, 1, 46, 127
1, 165963, Note_off_c, 1, 63, 0
1, 165965, Note_on_c, 1, 62, 127
1, 166127, Note_off_c, 1, 46, 0
1, 166127, Note_off_c, 1, 62, 0
1, 166129, Note_on_c, 1, 48, 127
1, 166129, Note_on_c, 1, 63, 127
1, 166294, Note_on_c, 1, 58, 127
1, 166455, Note_off_c, 1, 48, 0
1, 166456, Note_off_c, 1, 58, 0
1, 166458, Note_on_c, 1, 60, 127
1, 166458, Note_on_c, 1, 45, 127
1, 166622, Note_on_c, 1, 54, 127
1, 166778, Note_off_c, 1, 63, 0
1, 166782, Note_off_c, 1, 60, 0
1, 166784, Note_off_c, 1, 45, 0
1, 166784, Note_off_c, 1, 54, 0
1, 166786, Note_on_c, 1, 55, 127
1, 166786, Note_on_c, 1, 46, 127
1, 166948, Note_off_c, 1, 55, 0
1, 166950, Note_on_c, 1, 63, 127
1, 167112, Note_off_c, 1, 46, 0
1, 167112, Note_off_c, 1, 63, 0
1, 167114, Note_on_c, 1, 62, 127
1, 167114, Note_on_c, 1, 48, 127
1, 167276, Note_off_c, 1, 62, 0
1, 167279, Note_on_c, 1, 60, 127
1, 167440, Note_off_c, 1, 48, 0
1, 167441, Note_off_c, 1, 60, 0
1, 167443, Note_on_c, 1, 58, 127
1, 167443, Note_on_c, 1, 50, 127
1, 167607, Note_on_c, 1, 67, 127
1, 167682, Note_off_c, 1, 58, 0
1, 167769, Note_off_c, 1, 50, 0
1, 167771, Note_on_c, 1, 57, 127
1, 167771, Note_on_c, 1, 38, 127
1, 167812, Note_off_c, 1, 67, 0
1, 167935, Note_on_c, 1, 66, 127
1, 167976, Note_off_c, 1, 57, 0
1, 168097, Note_off_c, 1, 38, 0
1, 168097, Note_off_c, 1, 66, 0
1, 168099, Note_on_c, 1, 43, 127
1, 168099, Note_on_c, 1, 67, 127
1, 168264, Note_on_c, 1, 50, 127
1, 168304, Note_off_c, 1, 43, 0
1, 168372, Note_off_c, 1, 67, 0
1, 168426, Note_off_c, 1, 50, 0
1, 168428, Note_on_c, 1, 70, 127
1, 168428, Note_on_c, 1, 52, 127
1, 168590, Note_off_c, 1, 70, 0
1, 168590, Note_off_c, 1, 52, 0
1, 168592, Note_on_c, 1, 69, 127
1, 168592, Note_on_c, 1, 54, 127
1, 168754, Note_off_c, 1, 69, 0
1, 168754, Note_off_c, 1, 54, 0
1, 168756, Note_on_c, 1, 55, 127
1, 168756, Note_on_c, 1, 70, 127
1, 168918, Note_off_c, 1, 55, 0
1, 168920, Note_on_c, 1, 57, 127
1, 169082, Note_off_c, 1, 70, 0
1, 169082, Note_off_c, 1, 57, 0
1, 169084, Note_on_c, 1, 58, 127
1, 169084, Note_on_c, 1, 79, 127
1, 169084, Note_on_c, 1, 70, 127
1, 169246, Note_off_c, 1, 58, 0
1, 169248, Note_on_c, 1, 55, 127
1, 169410, Note_off_c, 1, 79, 0
1, 169410, Note_off_c, 1, 70, 0
1, 169410, Note_off_c, 1, 55, 0
1, 169413, Note_on_c, 1, 60, 127
1, 169413, Note_on_c, 1, 79, 127
1, 169413, Note_on_c, 1, 69, 127
1, 169575, Note_off_c, 1, 60, 0
1, 169577, Note_on_c, 1, 62, 127
1, 169739, Note_off_c, 1, 79, 0
1, 169739, Note_off_c, 1, 62, 0
1, 169741, Note_on_c, 1, 81, 127
1, 169903, Note_off_c, 1, 81, 0
1, 169905, Note_on_c, 1, 58, 127
1, 170062, Note_off_c, 1, 69, 0
1, 170067, Note_off_c, 1, 58, 0
1, 170069, Note_on_c, 1, 57, 127
1, 170069, Note_on_c, 1, 77, 127
1, 170231, Note_off_c, 1, 57, 0
1, 170233, Note_on_c, 1, 62, 127
1, 170395, Note_off_c, 1, 77, 0
1, 170395, Note_off_c, 1, 62, 0
1, 170398, Note_on_c, 1, 60, 127
1, 170398, Note_on_c, 1, 69, 127
1, 170398, Note_on_c, 1, 77, 127
1, 170560, Note_off_c, 1, 60, 0
1, 170562, Note_on_c, 1, 62, 127
1, 170724, Note_off_c, 1, 69, 0
1, 170724, Note_off_c, 1, 77, 0
1, 170724, Note_off_c, 1, 62, 0
1, 170726, Note_on_c, 1, 58, 127
1, 170726, Note_on_c, 1, 77, 127
1, 170726, Note_on_c, 1, 67, 127
1, 170888, Note_off_c, 1, 58, 0
1, 170890, Note_on_c, 1, 55, 127
1, 171052, Note_off_c, 1, 77, 0
1, 171052, Note_off_c, 1, 55, 0
1, 171054, Note_on_c, 1, 79, 127
1, 171054, Note_on_c, 1, 57, 127
1, 171216, Note_off_c, 1, 79, 0
1, 171216, Note_off_c, 1, 57, 0
1, 171375, Note_off_c, 1, 67, 0
1, 171383, Note_on_c, 1, 60, 127
1, 171383, Note_on_c, 1, 75, 127
1, 171545, Note_off_c, 1, 60, 0
1, 171547, Note_on_c, 1, 62, 127
1, 171709, Note_off_c, 1, 75, 0
1, 171709, Note_off_c, 1, 62, 0
1, 171711, Note_on_c, 1, 63, 127
1, 171711, Note_on_c, 1, 75, 127
1, 171711, Note_on_c, 1, 72, 127
1, 171873, Note_off_c, 1, 63, 0
1, 171875, Note_on_c, 1, 60, 127
1, 172037, Note_off_c, 1, 75, 0
1, 172037, Note_off_c, 1, 72, 0
1, 172037, Note_off_c, 1, 60, 0
1, 172039, Note_on_c, 1, 65, 127
1, 172039, Note_on_c, 1, 75, 127
1, 172039, Note_on_c, 1, 69, 127
1, 172201, Note_off_c, 1, 65, 0
1, 172203, Note_on_c, 1, 57, 127
1, 172365, Note_off_c, 1, 75, 0
1, 172365, Note_off_c, 1, 57, 0
1, 172368, Note_on_c, 1, 77, 127
1, 172368, Note_on_c, 1, 58, 127
1, 172530, Note_off_c, 1, 77, 0
1, 172530, Note_off_c, 1, 58, 0
1, 172532, Note_on_c, 1, 60, 127
1, 172688, Note_off_c, 1, 69, 0
1, 172694, Note_off_c, 1, 60, 0
1, 172696, Note_on_c, 1, 62, 127
1, 172696, Note_on_c, 1, 74, 127
1, 172858, Note_off_c, 1, 62, 0
1, 172860, Note_on_c, 1, 63, 127
1, 173022, Note_off_c, 1, 74, 0
1, 173022, Note_off_c, 1, 63, 0
1, 173024, Note_on_c, 1, 65, 127
1, 173024, Note_on_c, 1, 72, 127
1, 173024, Note_on_c, 1, 74, 127
1, 173186, Note_off_c, 1, 65, 0
1, 173188, Note_on_c, 1, 62, 127
1, 173350, Note_off_c, 1, 72, 0
1, 173350, Note_off_c, 1, 74, 0
1, 173350, Note_off_c, 1, 62, 0
1, 173352, Note_on_c, 1, 67, 127
1, 173352, Note_on_c, 1, 74, 127
1, 173352, Note_on_c, 1, 70, 127
1, 173514, Note_off_c, 1, 67, 0
1, 173517, Note_on_c, 1, 58, 127
1, 173678, Note_off_c, 1, 74, 0
1, 173679, Note_off_c, 1, 58, 0
1, 173681, Note_on_c, 1, 75, 127
1, 173681, Note_on_c, 1, 60, 127
1, 173843, Note_off_c, 1, 75, 0
1, 173843, Note_off_c, 1, 60, 0
1, 173845, Note_on_c, 1, 62, 127
1, 174001, Note_off_c, 1, 70, 0
1, 174007, Note_off_c, 1, 62, 0
1, 174009, Note_on_c, 1, 63, 127
1, 174009, Note_on_c, 1, 72, 127
1, 174171, Note_off_c, 1, 63, 0
1, 174173, Note_on_c, 1, 65, 127
1, 174335, Note_off_c, 1, 72, 0
1, 174335, Note_off_c, 1, 65, 0
1, 174337, Note_on_c, 1, 67, 127
1, 174337, Note_on_c, 1, 70, 127
1, 174337, Note_on_c, 1, 72, 127
1, 174499, Note_off_c, 1, 67, 0
1, 174502, Note_on_c, 1, 64, 127
1, 174663, Note_off_c, 1, 70, 0
1, 174663, Note_off_c, 1, 72, 0
1, 174664, Note_off_c, 1, 64, 0
1, 174666, Note_on_c, 1, 65, 127
1, 174666, Note_on_c, 1, 69, 127
1, 174666, Note_on_c, 1, 72, 127
1, 174828, Note_off_c, 1, 65, 0
1, 174830, Note_on_c, 1, 67, 127
1, 174990, Note_off_c, 1, 69, 0
1, 174992, Note_off_c, 1, 67, 0
1, 175158, Note_on_c, 1, 63, 127
1, 175320, Note_off_c, 1, 72, 0
1, 175320, Note_off_c, 1, 63, 0
1, 175322, Note_on_c, 1, 62, 127
1, 175322, Note_on_c, 1, 70, 127
1, 175484, Note_off_c, 1, 62, 0
1, 175487, Note_on_c, 1, 60, 127
1, 175648, Note_off_c, 1, 70, 0
1, 175649, Note_off_c, 1, 60, 0
1, 175651, Note_on_c, 1, 62, 127
1, 175651, Note_on_c, 1, 58, 127
1, 175651, Note_on_c, 1, 70, 127
1, 175651, Note_on_c, 1, 65, 127
1, 175811, Note_off_c, 1, 62, 0
1, 175813, Note_off_c, 1, 58, 0
1, 175977, Note_off_c, 1, 70, 0
1, 175977, Note_off_c, 1, 65, 0
1, 175979, Note_on_c, 1, 55, 127
1, 175979, Note_on_c, 1, 67, 127
1, 175979, Note_on_c, 1, 70, 127
1, 175979, Note_on_c, 1, 62, 127
1, 176141, Note_off_c, 1, 55, 0
1, 176143, Note_on_c, 1, 65, 127
1, 176305, Note_off_c, 1, 67, 0
1, 176305, Note_off_c, 1, 70, 0
1, 176305, Note_off_c, 1, 62, 0
1, 176305, Note_off_c, 1, 65, 0
1, 176307, Note_on_c, 1, 69, 127
1, 176307, Note_on_c, 1, 63, 127
1, 176469, Note_off_c, 1, 69, 0
1, 176469, Note_off_c, 1, 63, 0
1, 176472, Note_on_c, 1, 70, 127
1, 176472, Note_on_c, 1, 62, 127
1, 176634, Note_off_c, 1, 70, 0
1, 176634, Note_off_c, 1, 62, 0
1, 176636, Note_on_c, 1, 60, 127
1, 176636, Note_on_c, 1, 72, 127
1, 176798, Note_off_c, 1, 60, 0
1, 176800, Note_on_c, 1, 58, 127
1, 176962, Note_off_c, 1, 72, 0
1, 176962, Note_off_c, 1, 58, 0
1, 176964, Note_on_c, 1, 57, 127
1, 176964, Note_on_c, 1, 63, 127
1, 176964, Note_on_c, 1, 72, 127
1, 176964, Note_on_c, 1, 67, 127
1, 177126, Note_off_c, 1, 57, 0
1, 177128, Note_on_c, 1, 60, 127
1, 177290, Note_off_c, 1, 63, 0
1, 177290, Note_off_c, 1, 72, 0
1, 177290, Note_off_c, 1, 67, 0
1, 177290, Note_off_c, 1, 60, 0
1, 177292, Note_on_c, 1, 63, 127
1, 177292, Note_on_c, 1, 53, 127
1, 177292, Note_on_c, 1, 72, 127
1, 177292, Note_on_c, 1, 69, 127
1, 177452, Note_off_c, 1, 63, 0
1, 177454, Note_off_c, 1, 53, 0
1, 177618, Note_off_c, 1, 72, 0
1, 177618, Note_off_c, 1, 69, 0
1, 177621, Note_on_c, 1, 70, 127
1, 177621, Note_on_c, 1, 62, 127
1, 177783, Note_off_c, 1, 70, 0
1, 177783, Note_off_c, 1, 62, 0
1, 177785, Note_on_c, 1, 72, 127
1, 177785, Note_on_c, 1, 60, 127
1, 177947, Note_off_c, 1, 72, 0
1, 177947, Note_off_c, 1, 60, 0
1, 177949, Note_on_c, 1, 58, 127
1, 177949, Note_on_c, 1, 74, 127
1, 178111, Note_off_c, 1, 58, 0
1, 178113, Note_on_c, 1, 57, 127
1, 178275, Note_off_c, 1, 74, 0
1, 178275, Note_off_c, 1, 57, 0
1, 178277, Note_on_c, 1, 55, 127
1, 178277, Note_on_c, 1, 74, 127
1, 178277, Note_on_c, 1, 65, 127
1, 178277, Note_on_c, 1, 70, 127
1, 178439, Note_off_c, 1, 55, 0
1, 178441, Note_on_c, 1, 58, 127
1, 178603, Note_off_c, 1, 74, 0
1, 178603, Note_off_c, 1, 65, 0
1, 178603, Note_off_c, 1, 70, 0
1, 178603, Note_off_c, 1, 58, 0
1, 178606, Note_on_c, 1, 51, 127
1, 178606, Note_on_c, 1, 67, 127
1, 178606, Note_on_c, 1, 74, 127
1, 178606, Note_on_c, 1, 70, 127
1, 178768, Note_off_c, 1, 51, 0
1, 178770, Note_on_c, 1, 53, 127
1, 178932, Note_off_c, 1, 67, 0
1, 178932, Note_off_c, 1, 74, 0
1, 178932, Note_off_c, 1, 70, 0
1, 178932, Note_off_c, 1, 53, 0
1, 178934, Note_on_c, 1, 72, 127
1, 178934, Note_on_c, 1, 51, 127
1, 179096, Note_off_c, 1, 72, 0
1, 179096, Note_off_c, 1, 51, 0
1, 179098, Note_on_c, 1, 74, 127
1, 179098, Note_on_c, 1, 50, 127
1, 179260, Note_off_c, 1, 74, 0
1, 179260, Note_off_c, 1, 50, 0
1, 179262, Note_on_c, 1, 48, 127
1, 179262, Note_on_c, 1, 75, 127
1, 179424, Note_off_c, 1, 48, 0
1, 179426, Note_on_c, 1, 46, 127
1, 179588, Note_off_c, 1, 75, 0
1, 179588, Note_off_c, 1, 46, 0
1, 179591, Note_on_c, 1, 45, 127
1, 179591, Note_on_c, 1, 67, 127
1, 179591, Note_on_c, 1, 72, 127
1, 179591, Note_on_c, 1, 75, 127
1, 179753, Note_off_c, 1, 45, 0
1, 179755, Note_on_c, 1, 48, 127
1, 179917, Note_off_c, 1, 67, 0
1, 179917, Note_off_c, 1, 72, 0
1, 179917, Note_off_c, 1, 75, 0
1, 179917, Note_off_c, 1, 48, 0
1, 179919, Note_on_c, 1, 72, 127
1, 179919, Note_on_c, 1, 75, 127
1, 179919, Note_on_c, 1, 69, 127
1, 179919, Note_on_c, 1, 41, 127
1, 180245, Note_off_c, 1, 72, 0
1, 180245, Note_off_c, 1, 75, 0
1, 180245, Note_off_c, 1, 69, 0
1, 180245, Note_off_c, 1, 41, 0
1, 180247, Note_on_c, 1, 70, 127
1, 180247, Note_on_c, 1, 74, 127
1, 180247, Note_on_c, 1, 46, 127
1, 180409, Note_off_c, 1, 70, 0
1, 180409, Note_off_c, 1, 74, 0
1, 180411, Note_on_c, 1, 72, 127
1, 180573, Note_off_c, 1, 46, 0
1, 180573, Note_off_c, 1, 72, 0
1, 180576, Note_on_c, 1, 74, 127
1, 180576, Note_on_c, 1, 53, 127
1, 180576, Note_on_c, 1, 69, 127
1, 180656, Note_off_c, 1, 74, 0
1, 180658, Note_on_c, 1, 72, 127
1, 180738, Note_off_c, 1, 72, 0
1, 180902, Note_off_c, 1, 53, 0
1, 180904, Note_on_c, 1, 41, 127
1, 181054, Note_off_c, 1, 69, 0
1, 181068, Note_on_c, 1, 70, 127
1, 181230, Note_off_c, 1, 41, 0
1, 181230, Note_off_c, 1, 70, 0
1, 181232, Note_on_c, 1, 70, 127
1, 181232, Note_on_c, 1, 46, 127
1, 181394, Note_off_c, 1, 70, 0
1, 181394, Note_off_c, 1, 46, 0
1, 181396, Note_on_c, 1, 69, 127
1, 181396, Note_on_c, 1, 53, 127
1, 181558, Note_off_c, 1, 69, 0
1, 181558, Note_off_c, 1, 53, 0
1, 181560, Note_on_c, 1, 70, 127
1, 181560, Note_on_c, 1, 55, 127
1, 181722, Note_off_c, 1, 70, 0
1, 181722, Note_off_c, 1, 55, 0
1, 181725, Note_on_c, 1, 72, 127
1, 181725, Note_on_c, 1, 57, 127
1, 181887, Note_off_c, 1, 72, 0
1, 181887, Note_off_c, 1, 57, 0
1, 181889, Note_on_c, 1, 58, 127
1, 181889, Note_on_c, 1, 74, 127
1, 182051, Note_off_c, 1, 58, 0
1, 182053, Note_on_c, 1, 75, 127
1, 182053, Note_on_c, 1, 60, 127
1, 182215, Note_off_c, 1, 75, 0
1, 182215, Note_off_c, 1, 60, 0
1, 182217, Note_on_c, 1, 62, 127
1, 182217, Note_on_c, 1, 77, 127
1, 182367, Note_off_c, 1, 74, 0
1, 182379, Note_off_c, 1, 62, 0
1, 182381, Note_off_c, 1, 77, 0
1, 182381, Note_on_c, 1, 82, 127
1, 182543, Note_off_c, 1, 82, 0
1, 182545, Note_on_c, 1, 63, 127
1, 182545, Note_on_c, 1, 72, 127
1, 182707, Note_off_c, 1, 63, 0
1, 182710, Note_on_c, 1, 74, 127
1, 182710, Note_on_c, 1, 65, 127
1, 182750, Note_off_c, 1, 72, 0
1, 182872, Note_off_c, 1, 74, 0
1, 182872, Note_off_c, 1, 65, 0
1, 182874, Note_on_c, 1, 75, 127
1, 182874, Note_on_c, 1, 63, 127
1, 183036, Note_off_c, 1, 75, 0
1, 183036, Note_off_c, 1, 63, 0
1, 183038, Note_on_c, 1, 82, 127
1, 183038, Note_on_c, 1, 62, 127
1, 183200, Note_off_c, 1, 82, 0
1, 183200, Note_off_c, 1, 62, 0
1, 183202, Note_on_c, 1, 60, 127
1, 183202, Note_on_c, 1, 69, 127
1, 183364, Note_off_c, 1, 60, 0
1, 183366, Note_on_c, 1, 70, 127
1, 183366, Note_on_c, 1, 65, 127
1, 183528, Note_off_c, 1, 70, 0
1, 183528, Note_off_c, 1, 65, 0
1, 183530, Note_on_c, 1, 72, 127
1, 183530, Note_on_c, 1, 63, 127
1, 183680, Note_off_c, 1, 69, 0
1, 183692, Note_off_c, 1, 72, 0
1, 183692, Note_off_c, 1, 63, 0
1, 183695, Note_on_c, 1, 81, 127
1, 183695, Note_on_c, 1, 65, 127
1, 183857, Note_off_c, 1, 81, 0
1, 183857, Note_off_c, 1, 65, 0
1, 183859, Note_on_c, 1, 62, 127
1, 183859, Note_on_c, 1, 70, 127
1, 184021, Note_off_c, 1, 62, 0
1, 184023, Note_on_c, 1, 72, 127
1, 184023, Note_on_c, 1, 63, 127
1, 184064, Note_off_c, 1, 70, 0
1, 184185, Note_off_c, 1, 72, 0
1, 184185, Note_off_c, 1, 63, 0
1, 184187, Note_on_c, 1, 74, 127
1, 184187, Note_on_c, 1, 62, 127
1, 184349, Note_off_c, 1, 74, 0
1, 184349, Note_off_c, 1, 62, 0
1, 184351, Note_on_c, 1, 77, 127
1, 184351, Note_on_c, 1, 60, 127
1, 184513, Note_off_c, 1, 77, 0
1, 184513, Note_off_c, 1, 60, 0
1, 184515, Note_on_c, 1, 58, 127
1, 184515, Note_on_c, 1, 67, 127
1, 184677, Note_off_c, 1, 58, 0
1, 184680, Note_on_c, 1, 69, 127
1, 184680, Note_on_c, 1, 63, 127
1, 184842, Note_off_c, 1, 69, 0
1, 184842, Note_off_c, 1, 63, 0
1, 184844, Note_on_c, 1, 70, 127
1, 184844, Note_on_c, 1, 62, 127
1, 184993, Note_off_c, 1, 67, 0
1, 185006, Note_off_c, 1, 70, 0
1, 185006, Note_off_c, 1, 62, 0
1, 185008, Note_on_c, 1, 79, 127
1, 185008, Note_on_c, 1, 63, 127
1, 185170, Note_off_c, 1, 79, 0
1, 185170, Note_off_c, 1, 63, 0
1, 185172, Note_on_c, 1, 60, 127
1, 185172, Note_on_c, 1, 69, 127
1, 185334, Note_off_c, 1, 60, 0
1, 185336, Note_on_c, 1, 70, 127
1, 185336, Note_on_c, 1, 62, 127
1, 185377, Note_off_c, 1, 69, 0
1, 185498, Note_off_c, 1, 70, 0
1, 185498, Note_off_c, 1, 62, 0
1, 185500, Note_on_c, 1, 72, 127
1, 185500, Note_on_c, 1, 60, 127
1, 185662, Note_off_c, 1, 72, 0
1, 185662, Note_off_c, 1, 60, 0
1, 185664, Note_on_c, 1, 75, 127
1, 185664, Note_on_c, 1, 58, 127
1, 185826, Note_off_c, 1, 75, 0
1, 185826, Note_off_c, 1, 58, 0
1, 185829, Note_on_c, 1, 57, 127
1, 185829, Note_on_c, 1, 65, 127
1, 185991, Note_off_c, 1, 57, 0
1, 185993, Note_on_c, 1, 67, 127
1, 185993, Note_on_c, 1, 62, 127
1, 186155, Note_off_c, 1, 67, 0
1, 186155, Note_off_c, 1, 62, 0
1, 186157, Note_on_c, 1, 69, 127
1, 186157, Note_on_c, 1, 60, 127
1, 186307, Note_off_c, 1, 65, 0
1, 186319, Note_off_c, 1, 69, 0
1, 186319, Note_off_c, 1, 60, 0
1, 186321, Note_on_c, 1, 77, 127
1, 186321, Note_on_c, 1, 62, 127
1, 186483, Note_off_c, 1, 77, 0
1, 186483, Note_off_c, 1, 62, 0
1, 186485, Note_on_c, 1, 58, 127
1, 186485, Note_on_c, 1, 67, 127
1, 186647, Note_off_c, 1, 58, 0
1, 186649, Note_on_c, 1, 69, 127
1, 186649, Note_on_c, 1, 60, 127
1, 186690, Note_off_c, 1, 67, 0
1, 186811, Note_off_c, 1, 69, 0
1, 186811, Note_off_c, 1, 60, 0
1, 186814, Note_on_c, 1, 70, 127
1, 186814, Note_on_c, 1, 58, 127
1, 186976, Note_off_c, 1, 70, 0
1, 186976, Note_off_c, 1, 58, 0
1, 186978, Note_on_c, 1, 74, 127
1, 186978, Note_on_c, 1, 57, 127
1, 187140, Note_off_c, 1, 74, 0
1, 187140, Note_off_c, 1, 57, 0
1, 187142, Note_on_c, 1, 55, 127
1, 187142, Note_on_c, 1, 63, 127
1, 187304, Note_off_c, 1, 55, 0
1, 187306, Note_on_c, 1, 65, 127
1, 187306, Note_on_c, 1, 60, 127
1, 187449, Note_off_c, 1, 63, 0
1, 187468, Note_off_c, 1, 65, 0
1, 187468, Note_off_c, 1, 60, 0
1, 187470, Note_on_c, 1, 67, 127
1, 187470, Note_on_c, 1, 58, 127
1, 187632, Note_off_c, 1, 67, 0
1, 187632, Note_off_c, 1, 58, 0
1, 187634, Note_on_c, 1, 75, 127
1, 187634, Note_on_c, 1, 60, 127
1, 187796, Note_off_c, 1, 75, 0
1, 187796, Note_off_c, 1, 60, 0
1, 187799, Note_on_c, 1, 57, 127
1, 187799, Note_on_c, 1, 65, 127
1, 187961, Note_off_c, 1, 57, 0
1, 187963, Note_on_c, 1, 67, 127
1, 187963, Note_on_c, 1, 58, 127
1, 188004, Note_off_c, 1, 65, 0
1, 188125, Note_off_c, 1, 67, 0
1, 188125, Note_off_c, 1, 58, 0
1, 188127, Note_on_c, 1, 69, 127
1, 188127, Note_on_c, 1, 57, 127
1, 188289, Note_off_c, 1, 69, 0
1, 188289, Note_off_c, 1, 57, 0
1, 188291, Note_on_c, 1, 72, 127
1, 188291, Note_on_c, 1, 55, 127
1, 188453, Note_off_c, 1, 72, 0
1, 188453, Note_off_c, 1, 55, 0
1, 188455, Note_on_c, 1, 53, 127
1, 188455, Note_on_c, 1, 62, 127
1, 188617, Note_off_c, 1, 53, 0
1, 188619, Note_on_c, 1, 63, 127
1, 188619, Note_on_c, 1, 58, 127
1, 188694, Note_off_c, 1, 62, 0
1, 188781, Note_off_c, 1, 63, 0
1, 188781, Note_off_c, 1, 58, 0
1, 188784, Note_on_c, 1, 65, 127
1, 188784, Note_on_c, 1, 57, 127
1, 188946, Note_off_c, 1, 65, 0
1, 188946, Note_off_c, 1, 57, 0
1, 188948, Note_on_c, 1, 74, 127
1, 188948, Note_on_c, 1, 58, 127
1, 189110, Note_off_c, 1, 74, 0
1, 189110, Note_off_c, 1, 58, 0
1, 189112, Note_on_c, 1, 63, 127
1, 189112, Note_on_c, 1, 55, 127
1, 189276, Note_on_c, 1, 74, 127
1, 189385, Note_off_c, 1, 63, 0
1, 189438, Note_off_c, 1, 55, 0
1, 189438, Note_off_c, 1, 74, 0
1, 189440, Note_on_c, 1, 62, 127
1, 189440, Note_on_c, 1, 53, 127
1, 189604, Note_on_c, 1, 74, 127
1, 189628, Note_off_c, 1, 62, 0
1, 189766, Note_off_c, 1, 53, 0
1, 189766, Note_off_c, 1, 74, 0
1, 189768, Note_on_c, 1, 63, 127
1, 189768, Note_on_c, 1, 55, 127
1, 189933, Note_on_c, 1, 72, 127
1, 189956, Note_off_c, 1, 63, 0
1, 190094, Note_off_c, 1, 55, 0
1, 190095, Note_off_c, 1, 72, 0
1, 190097, Note_on_c, 1, 60, 127
1, 190097, Note_on_c, 1, 57, 127
1, 190261, Note_on_c, 1, 72, 127
1, 190285, Note_off_c, 1, 60, 0
1, 190423, Note_off_c, 1, 57, 0
1, 190423, Note_off_c, 1, 72, 0
1, 190425, Note_on_c, 1, 62, 127
1, 190425, Note_on_c, 1, 58, 127
1, 190589, Note_on_c, 1, 72, 127
1, 190698, Note_off_c, 1, 62, 0
1, 190751, Note_off_c, 1, 58, 0
1, 190751, Note_off_c, 1, 72, 0
1, 190753, Note_on_c, 1, 63, 127
1, 190753, Note_on_c, 1, 60, 127
1, 190915, Note_off_c, 1, 63, 0
1, 190918, Note_on_c, 1, 72, 127
1, 191079, Note_off_c, 1, 60, 0
1, 191080, Note_off_c, 1, 72, 0
1, 191082, Note_on_c, 1, 65, 127
1, 191082, Note_on_c, 1, 62, 127
1, 191244, Note_off_c, 1, 65, 0
1, 191246, Note_on_c, 1, 70, 127
1, 191408, Note_off_c, 1, 62, 0
1, 191408, Note_off_c, 1, 70, 0
1, 191410, Note_on_c, 1, 62, 127
1, 191410, Note_on_c, 1, 46, 127
1, 191572, Note_off_c, 1, 62, 0
1, 191574, Note_on_c, 1, 70, 127
1, 191736, Note_off_c, 1, 46, 0
1, 191736, Note_off_c, 1, 70, 0
1, 191738, Note_on_c, 1, 67, 127
1, 191738, Note_on_c, 1, 51, 127
1, 191903, Note_on_c, 1, 70, 127
1, 191977, Note_off_c, 1, 67, 0
1, 192064, Note_off_c, 1, 51, 0
1, 192065, Note_off_c, 1, 70, 0
1, 192067, Note_on_c, 1, 65, 127
1, 192067, Note_on_c, 1, 50, 127
1, 192231, Note_on_c, 1, 70, 127
1, 192306, Note_off_c, 1, 65, 0
1, 192393, Note_off_c, 1, 50, 0
1, 192393, Note_off_c, 1, 70, 0
1, 192395, Note_on_c, 1, 63, 127
1, 192395, Note_on_c, 1, 48, 127
1, 192559, Note_on_c, 1, 70, 127
1, 192651, Note_off_c, 1, 63, 0
1, 192721, Note_off_c, 1, 48, 0
1, 192721, Note_off_c, 1, 70, 0
1, 192723, Note_on_c, 1, 67, 127
1, 192723, Note_on_c, 1, 51, 127
1, 192885, Note_off_c, 1, 67, 0
1, 192888, Note_on_c, 1, 70, 127
1, 193049, Note_off_c, 1, 51, 0
1, 193050, Note_off_c, 1, 70, 0
1, 193052, Note_on_c, 1, 65, 127
1, 193052, Note_on_c, 1, 50, 127
1, 193216, Note_on_c, 1, 70, 127
1, 193291, Note_off_c, 1, 65, 0
1, 193378, Note_off_c, 1, 50, 0
1, 193378, Note_off_c, 1, 70, 0
1, 193380, Note_on_c, 1, 63, 127
1, 193380, Note_on_c, 1, 48, 127
1, 193544, Note_on_c, 1, 70, 127
1, 193636, Note_off_c, 1, 63, 0
1, 193706, Note_off_c, 1, 48, 0
1, 193706, Note_off_c, 1, 70, 0
1, 193708, Note_on_c, 1, 62, 127
1, 193708, Note_on_c, 1, 46, 127
1, 193872, Note_on_c, 1, 70, 127
1, 193981, Note_off_c, 1, 62, 0
1, 194034, Note_off_c, 1, 70, 0
1, 194037, Note_on_c, 1, 60, 127
1, 194037, Note_on_c, 1, 48, 127
1, 194199, Note_off_c, 1, 60, 0
1, 194363, Note_off_c, 1, 48, 0
1, 194365, Note_on_c, 1, 58, 127
1, 194365, Note_on_c, 1, 50, 127
1, 194527, Note_off_c, 1, 58, 0
1, 194691, Note_off_c, 1, 46, 0
1, 194691, Note_off_c, 1, 50, 0
1, 194693, Note_on_c, 1, 60, 127
1, 194693, Note_on_c, 1, 46, 127
1, 194693, Note_on_c, 1, 52, 127
1, 194855, Note_off_c, 1, 60, 0
1, 194857, Note_on_c, 1, 70, 127
1, 195019, Note_off_c, 1, 46, 0
1, 195019, Note_off_c, 1, 52, 0
1, 195019, Note_off_c, 1, 70, 0
1, 195022, Note_on_c, 1, 62, 127
1, 195022, Note_on_c, 1, 53, 127
1, 195022, Note_on_c, 1, 45, 127
1, 195184, Note_off_c, 1, 62, 0
1, 195186, Note_on_c, 1, 70, 127
1, 195348, Note_off_c, 1, 53, 0
1, 195348, Note_off_c, 1, 45, 0
1, 195348, Note_off_c, 1, 70, 0
1, 195350, Note_on_c, 1, 64, 127
1, 195350, Note_on_c, 1, 43, 127
1, 195350, Note_on_c, 1, 55, 127
1, 195512, Note_off_c, 1, 64, 0
1, 195514, Note_on_c, 1, 70, 127
1, 195676, Note_off_c, 1, 43, 0
1, 195676, Note_off_c, 1, 55, 0
1, 195676, Note_off_c, 1, 70, 0
1, 195678, Note_on_c, 1, 65, 127
1, 195678, Note_on_c, 1, 69, 127
1, 195678, Note_on_c, 1, 41, 127
1, 195678, Note_on_c, 1, 48, 127
1, 195840, Note_off_c, 1, 65, 0
1, 195842, Note_on_c, 1, 60, 127
1, 196004, Note_off_c, 1, 60, 0
1, 196007, Note_on_c, 1, 62, 127
1, 196156, Note_off_c, 1, 69, 0
1, 196169, Note_off_c, 1, 62, 0
1, 196171, Note_on_c, 1, 64, 127
1, 196327, Note_off_c, 1, 41, 0
1, 196333, Note_off_c, 1, 64, 0
1, 196447, Note_off_c, 1, 48, 0
1, 196499, Note_on_c, 1, 67, 127
1, 196499, Note_on_c, 1, 53, 127
1, 196661, Note_off_c, 1, 67, 0
1, 196661, Note_off_c, 1, 53, 0
1, 196663, Note_on_c, 1, 69, 127
1, 196663, Note_on_c, 1, 52, 127
1, 196743, Note_off_c, 1, 69, 0
1, 196745, Note_on_c, 1, 67, 127
1, 196825, Note_off_c, 1, 52, 0
1, 196825, Note_off_c, 1, 67, 0
1, 196827, Note_on_c, 1, 65, 127
1, 196827, Note_on_c, 1, 53, 127
1, 196907, Note_off_c, 1, 65, 0
1, 196909, Note_on_c, 1, 67, 127
1, 196989, Note_off_c, 1, 53, 0
1, 196989, Note_off_c, 1, 67, 0
1, 196992, Note_on_c, 1, 48, 127
1, 196992, Note_on_c, 1, 69, 127
1, 197154, Note_off_c, 1, 48, 0
1, 197156, Note_on_c, 1, 53, 127
1, 197318, Note_off_c, 1, 69, 0
1, 197318, Note_off_c, 1, 53, 0
1, 197320, Note_on_c, 1, 50, 127
1, 197320, Note_on_c, 1, 70, 127
1, 197482, Note_off_c, 1, 50, 0
1, 197484, Note_on_c, 1, 53, 127
1, 197646, Note_off_c, 1, 70, 0
1, 197646, Note_off_c, 1, 53, 0
1, 197648, Note_on_c, 1, 48, 127
1, 197648, Note_on_c, 1, 69, 127
1, 197810, Note_off_c, 1, 48, 0
1, 197812, Note_on_c, 1, 53, 127
1, 197974, Note_off_c, 1, 69, 0
1, 197974, Note_off_c, 1, 53, 0
1, 197976, Note_on_c, 1, 46, 127
1, 197976, Note_on_c, 1, 67, 127
1, 198138, Note_off_c, 1, 46, 0
1, 198141, Note_on_c, 1, 53, 127
1, 198302, Note_off_c, 1, 67, 0
1, 198303, Note_off_c, 1, 53, 0
1, 198305, Note_on_c, 1, 45, 127
1, 198305, Note_on_c, 1, 65, 127
1, 198467, Note_off_c, 1, 45, 0
1, 198469, Note_on_c, 1, 53, 127
1, 198631, Note_off_c, 1, 53, 0
1, 198633, Note_on_c, 1, 46, 127
1, 198633, Note_on_c, 1, 74, 127
1, 198795, Note_off_c, 1, 46, 0
1, 198959, Note_off_c, 1, 74, 0
1, 198961, Note_on_c, 1, 72, 127
1, 199287, Note_off_c, 1, 72, 0
1, 199290, Note_on_c, 1, 43, 127
1, 199290, Note_on_c, 1, 70, 127
1, 199452, Note_off_c, 1, 43, 0
1, 199616, Note_off_c, 1, 70, 0
1, 199618, Note_on_c, 1, 41, 127
1, 199618, Note_on_c, 1, 69, 127
1, 199780, Note_off_c, 1, 41, 0
1, 199944, Note_off_c, 1, 69, 0
1, 200921, Note_off_c, 1, 65, 0
1, 200931, Note_on_c, 1, 48, 127
1, 200931, Note_on_c, 1, 67, 127
1, 201093, Note_off_c, 1, 48, 0
1, 201096, Note_on_c, 1, 43, 127
1, 201258, Note_off_c, 1, 43, 0
1, 201260, Note_on_c, 1, 64, 127
1, 201260, Note_on_c, 1, 45, 127
1, 201422, Note_off_c, 1, 64, 0
1, 201422, Note_off_c, 1, 45, 0
1, 201424, Note_on_c, 1, 62, 127
1, 201424, Note_on_c, 1, 47, 127
1, 201580, Note_off_c, 1, 67, 0
1, 201586, Note_off_c, 1, 62, 0
1, 201586, Note_off_c, 1, 47, 0
1, 201588, Note_on_c, 1, 48, 127
1, 201588, Note_on_c, 1, 64, 127
1, 201750, Note_off_c, 1, 48, 0
1, 201752, Note_on_c, 1, 50, 127
1, 201914, Note_off_c, 1, 64, 0
1, 201914, Note_off_c, 1, 50, 0
1, 201916, Note_on_c, 1, 52, 127
1, 201916, Note_on_c, 1, 72, 127
1, 201916, Note_on_c, 1, 67, 127
1, 201916, Note_on_c, 1, 64, 127
1, 202078, Note_off_c, 1, 52, 0
1, 202080, Note_on_c, 1, 48, 127
1, 202242, Note_off_c, 1, 72, 0
1, 202242, Note_off_c, 1, 67, 0
1, 202242, Note_off_c, 1, 64, 0
1, 202242, Note_off_c, 1, 48, 0
1, 202245, Note_on_c, 1, 53, 127
1, 202245, Note_on_c, 1, 72, 127
1, 202245, Note_on_c, 1, 69, 127
1, 202245, Note_on_c, 1, 62, 127
1, 202407, Note_off_c, 1, 53, 0
1, 202409, Note_on_c, 1, 55, 127
1, 202571, Note_off_c, 1, 72, 0
1, 202571, Note_off_c, 1, 55, 0
1, 202573, Note_on_c, 1, 74, 127
1, 202735, Note_off_c, 1, 74, 0
1, 202737, Note_on_c, 1, 52, 127
1, 202894, Note_off_c, 1, 69, 0
1, 202894, Note_off_c, 1, 62, 0
1, 202899, Note_off_c, 1, 52, 0
1, 202901, Note_on_c, 1, 50, 127
1, 202901, Note_on_c, 1, 70, 127
1, 203063, Note_off_c, 1, 50, 0
1, 203065, Note_on_c, 1, 55, 127
1, 203227, Note_off_c, 1, 70, 0
1, 203227, Note_off_c, 1, 55, 0
1, 203230, Note_on_c, 1, 53, 127
1, 203230, Note_on_c, 1, 70, 127
1, 203230, Note_on_c, 1, 62, 127
1, 203230, Note_on_c, 1, 67, 127
1, 203392, Note_off_c, 1, 53, 0
1, 203394, Note_on_c, 1, 55, 127
1, 203554, Note_off_c, 1, 70, 0
1, 203554, Note_off_c, 1, 62, 0
1, 203554, Note_off_c, 1, 67, 0
1, 203556, Note_off_c, 1, 55, 0
1, 203558, Note_on_c, 1, 52, 127
1, 203558, Note_on_c, 1, 70, 127
1, 203558, Note_on_c, 1, 60, 127
1, 203558, Note_on_c, 1, 67, 127
1, 203720, Note_off_c, 1, 52, 0
1, 203722, Note_on_c, 1, 48, 127
1, 203884, Note_off_c, 1, 70, 0
1, 203884, Note_off_c, 1, 48, 0
1, 203886, Note_on_c, 1, 72, 127
1, 203886, Note_on_c, 1, 50, 127
1, 204048, Note_off_c, 1, 72, 0
1, 204048, Note_off_c, 1, 50, 0
1, 204207, Note_off_c, 1, 60, 0
1, 204207, Note_off_c, 1, 67, 0
1, 204215, Note_on_c, 1, 53, 127
1, 204215, Note_on_c, 1, 69, 127
1, 204377, Note_off_c, 1, 53, 0
1, 204379, Note_on_c, 1, 55, 127
1, 204541, Note_off_c, 1, 69, 0
1, 204541, Note_off_c, 1, 55, 0
1, 204543, Note_on_c, 1, 57, 127
1, 204543, Note_on_c, 1, 69, 127
1, 204543, Note_on_c, 1, 72, 127
1, 204543, Note_on_c, 1, 77, 127
1, 204705, Note_off_c, 1, 57, 0
1, 204707, Note_on_c, 1, 53, 127
1, 204869, Note_off_c, 1, 69, 0
1, 204869, Note_off_c, 1, 72, 0
1, 204869, Note_off_c, 1, 77, 0
1, 204869, Note_off_c, 1, 53, 0
1, 204871, Note_on_c, 1, 58, 127
1, 204871, Note_on_c, 1, 77, 127
1, 204871, Note_on_c, 1, 74, 127
1, 204871, Note_on_c, 1, 67, 127
1, 205033, Note_off_c, 1, 58, 0
1, 205035, Note_on_c, 1, 60, 127
1, 205197, Note_off_c, 1, 77, 0
1, 205197, Note_off_c, 1, 60, 0
1, 205200, Note_on_c, 1, 79, 127
1, 205362, Note_off_c, 1, 79, 0
1, 205364, Note_on_c, 1, 57, 127
1, 205520, Note_off_c, 1, 74, 0
1, 205520, Note_off_c, 1, 67, 0
1, 205526, Note_off_c, 1, 57, 0
1, 205528, Note_on_c, 1, 55, 127
1, 205528, Note_on_c, 1, 75, 127
1, 205690, Note_off_c, 1, 55, 0
1, 205692, Note_on_c, 1, 60, 127
1, 205854, Note_off_c, 1, 75, 0
1, 205854, Note_off_c, 1, 60, 0
1, 205856, Note_on_c, 1, 58, 127
1, 205856, Note_on_c, 1, 67, 127
1, 205856, Note_on_c, 1, 72, 127
1, 205856, Note_on_c, 1, 75, 127
1, 206018, Note_off_c, 1, 58, 0
1, 206020, Note_on_c, 1, 60, 127
1, 206182, Note_off_c, 1, 67, 0
1, 206182, Note_off_c, 1, 72, 0
1, 206182, Note_off_c, 1, 75, 0
1, 206182, Note_off_c, 1, 60, 0
1, 206184, Note_on_c, 1, 57, 127
1, 206184, Note_on_c, 1, 75, 127
1, 206184, Note_on_c, 1, 65, 127
1, 206184, Note_on_c, 1, 72, 127
1, 206346, Note_off_c, 1, 57, 0
1, 206349, Note_on_c, 1, 53, 127
1, 206510, Note_off_c, 1, 75, 0
1, 206511, Note_off_c, 1, 53, 0
1, 206513, Note_on_c, 1, 77, 127
1, 206513, Note_on_c, 1, 55, 127
1, 206675, Note_off_c, 1, 77, 0
1, 206675, Note_off_c, 1, 55, 0
1, 206833, Note_off_c, 1, 65, 0
1, 206833, Note_off_c, 1, 72, 0
1, 206841, Note_on_c, 1, 58, 127
1, 206841, Note_on_c, 1, 74, 127
1, 207003, Note_off_c, 1, 58, 0
1, 207005, Note_on_c, 1, 60, 127
1, 207167, Note_off_c, 1, 74, 0
1, 207167, Note_off_c, 1, 60, 0
1, 207169, Note_on_c, 1, 62, 127
1, 207169, Note_on_c, 1, 82, 127
1, 207169, Note_on_c, 1, 74, 127
1, 207169, Note_on_c, 1, 77, 127
1, 207331, Note_off_c, 1, 62, 0
1, 207334, Note_on_c, 1, 58, 127
1, 207495, Note_off_c, 1, 82, 0
1, 207495, Note_off_c, 1, 74, 0
1, 207495, Note_off_c, 1, 77, 0
1, 207496, Note_off_c, 1, 58, 0
1, 207498, Note_on_c, 1, 63, 127
1, 207498, Note_on_c, 1, 82, 127
1, 207498, Note_on_c, 1, 79, 127
1, 207498, Note_on_c, 1, 72, 127
1, 207660, Note_off_c, 1, 63, 0
1, 207662, Note_on_c, 1, 65, 127
1, 207824, Note_off_c, 1, 82, 0
1, 207824, Note_off_c, 1, 65, 0
1, 207826, Note_on_c, 1, 84, 127
1, 207988, Note_off_c, 1, 84, 0
1, 207990, Note_on_c, 1, 62, 127
1, 208147, Note_off_c, 1, 79, 0
1, 208147, Note_off_c, 1, 72, 0
1, 208152, Note_off_c, 1, 62, 0
1, 208154, Note_on_c, 1, 60, 127
1, 208154, Note_on_c, 1, 81, 127
1, 208316, Note_off_c, 1, 60, 0
1, 208319, Note_on_c, 1, 65, 127
1, 208480, Note_off_c, 1, 81, 0
1, 208481, Note_off_c, 1, 65, 0
1, 208483, Note_on_c, 1, 63, 127
1, 208483, Note_on_c, 1, 81, 127
1, 208483, Note_on_c, 1, 72, 127
1, 208483, Note_on_c, 1, 77, 127
1, 208645, Note_off_c, 1, 63, 0
1, 208647, Note_on_c, 1, 65, 127
1, 208809, Note_off_c, 1, 81, 0
1, 208809, Note_off_c, 1, 72, 0
1, 208809, Note_off_c, 1, 77, 0
1, 208809, Note_off_c, 1, 65, 0
1, 208811, Note_on_c, 1, 62, 127
1, 208811, Note_on_c, 1, 81, 127
1, 208811, Note_on_c, 1, 77, 127
1, 208811, Note_on_c, 1, 70, 127
1, 208973, Note_off_c, 1, 62, 0
1, 208975, Note_on_c, 1, 63, 127
1, 209137, Note_off_c, 1, 81, 0
1, 209137, Note_off_c, 1, 63, 0
1, 209139, Note_on_c, 1, 82, 127
1, 209301, Note_off_c, 1, 82, 0
1, 209304, Note_on_c, 1, 60, 127
1, 209460, Note_off_c, 1, 77, 0
1, 209460, Note_off_c, 1, 70, 0
1, 209466, Note_off_c, 1, 60, 0
1, 209468, Note_on_c, 1, 58, 127
1, 209468, Note_on_c, 1, 79, 127
1, 209630, Note_off_c, 1, 58, 0
1, 209632, Note_on_c, 1, 57, 127
1, 209794, Note_off_c, 1, 79, 0
1, 209794, Note_off_c, 1, 57, 0
1, 209796, Note_on_c, 1, 55, 127
1, 209796, Note_on_c, 1, 79, 127
1, 209796, Note_on_c, 1, 70, 127
1, 209796, Note_on_c, 1, 74, 127
1, 209958, Note_off_c, 1, 55, 0
1, 209960, Note_on_c, 1, 53, 127
1, 210122, Note_off_c, 1, 79, 0
1, 210122, Note_off_c, 1, 70, 0
1, 210122, Note_off_c, 1, 74, 0
1, 210122, Note_off_c, 1, 53, 0
1, 210124, Note_on_c, 1, 52, 127
1, 210124, Note_on_c, 1, 74, 127
1, 210124, Note_on_c, 1, 79, 127
1, 210124, Note_on_c, 1, 72, 127
1, 210286, Note_off_c, 1, 52, 0
1, 210288, Note_on_c, 1, 50, 127
1, 210450, Note_off_c, 1, 74, 0
1, 210450, Note_off_c, 1, 79, 0
1, 210450, Note_off_c, 1, 72, 0
1, 210450, Note_off_c, 1, 50, 0
1, 210453, Note_on_c, 1, 81, 127
1, 210453, Note_on_c, 1, 48, 127
1, 210615, Note_off_c, 1, 81, 0
1, 210615, Note_off_c, 1, 48, 0
1, 210617, Note_on_c, 1, 79, 127
1, 210617, Note_on_c, 1, 46, 127
1, 210779, Note_off_c, 1, 79, 0
1, 210779, Note_off_c, 1, 46, 0
1, 210781, Note_on_c, 1, 77, 127
1, 210781, Note_on_c, 1, 45, 127
1, 210943, Note_off_c, 1, 77, 0
1, 210943, Note_off_c, 1, 45, 0
1, 210945, Note_on_c, 1, 81, 127
1, 210945, Note_on_c, 1, 43, 127
1, 211107, Note_off_c, 1, 81, 0
1, 211107, Note_off_c, 1, 43, 0
1, 211109, Note_on_c, 1, 79, 127
1, 211109, Note_on_c, 1, 45, 127
1, 211271, Note_off_c, 1, 79, 0
1, 211271, Note_off_c, 1, 45, 0
1, 211273, Note_on_c, 1, 77, 127
1, 211273, Note_on_c, 1, 41, 127
1, 211435, Note_off_c, 1, 77, 0
1, 211435, Note_off_c, 1, 41, 0
1, 211438, Note_on_c, 1, 76, 127
1, 211438, Note_on_c, 1, 36, 127
1, 211600, Note_off_c, 1, 76, 0
1, 211602, Note_on_c, 1, 74, 127
1, 211711, Note_off_c, 1, 36, 0
1, 211764, Note_off_c, 1, 74, 0
1, 211766, Note_on_c, 1, 72, 127
1, 211766, Note_on_c, 1, 55, 127
1, 211928, Note_off_c, 1, 72, 0
1, 211930, Note_on_c, 1, 74, 127
1, 212092, Note_off_c, 1, 55, 0
1, 212092, Note_off_c, 1, 74, 0
1, 212094, Note_on_c, 1, 76, 127
1, 212094, Note_on_c, 1, 60, 127
1, 212256, Note_off_c, 1, 76, 0
1, 212258, Note_on_c, 1, 74, 127
1, 212420, Note_off_c, 1, 60, 0
1, 212420, Note_off_c, 1, 74, 0
1, 212423, Note_on_c, 1, 76, 127
1, 212423, Note_on_c, 1, 60, 127
1, 212585, Note_off_c, 1, 76, 0
1, 212587, Note_on_c, 1, 72, 127
1, 212749, Note_off_c, 1, 60, 0
1, 212749, Note_off_c, 1, 72, 0
1, 212751, Note_on_c, 1, 74, 127
1, 212751, Note_on_c, 1, 60, 127
1, 212913, Note_off_c, 1, 74, 0
1, 212915, Note_on_c, 1, 76, 127
1, 213077, Note_off_c, 1, 60, 0
1, 213077, Note_off_c, 1, 76, 0
1, 213079, Note_on_c, 1, 77, 127
1, 213079, Note_on_c, 1, 62, 127
1, 213241, Note_off_c, 1, 77, 0
1, 213241, Note_off_c, 1, 62, 0
1, 213243, Note_on_c, 1, 81, 127
1, 213243, Note_on_c, 1, 60, 127
1, 213405, Note_off_c, 1, 81, 0
1, 213405, Note_off_c, 1, 60, 0
1, 213408, Note_on_c, 1, 79, 127
1, 213408, Note_on_c, 1, 58, 127
1, 213570, Note_off_c, 1, 79, 0
1, 213572, Note_on_c, 1, 81, 127
1, 213734, Note_off_c, 1, 58, 0
1, 213734, Note_off_c, 1, 81, 0
1, 213736, Note_on_c, 1, 82, 127
1, 213736, Note_on_c, 1, 58, 127
1, 213898, Note_off_c, 1, 82, 0
1, 213900, Note_on_c, 1, 74, 127
1, 214062, Note_off_c, 1, 58, 0
1, 214062, Note_off_c, 1, 74, 0
1, 214064, Note_on_c, 1, 72, 127
1, 214064, Note_on_c, 1, 58, 127
1, 214226, Note_off_c, 1, 72, 0
1, 214228, Note_on_c, 1, 74, 127
1, 214390, Note_off_c, 1, 58, 0
1, 214390, Note_off_c, 1, 74, 0
1, 214392, Note_on_c, 1, 76, 127
1, 214392, Note_on_c, 1, 60, 127
1, 214554, Note_off_c, 1, 76, 0
1, 214554, Note_off_c, 1, 60, 0
1, 214557, Note_on_c, 1, 79, 127
1, 214557, Note_on_c, 1, 58, 127
1, 214719, Note_off_c, 1, 79, 0
1, 214719, Note_off_c, 1, 58, 0
1, 214721, Note_on_c, 1, 77, 127
1, 214721, Note_on_c, 1, 57, 127
1, 214883, Note_off_c, 1, 77, 0
1, 214885, Note_on_c, 1, 79, 127
1, 215047, Note_off_c, 1, 57, 0
1, 215047, Note_off_c, 1, 79, 0
1, 215049, Note_on_c, 1, 81, 127
1, 215049, Note_on_c, 1, 57, 127
1, 215211, Note_off_c, 1, 81, 0
1, 215213, Note_on_c, 1, 72, 127
1, 215375, Note_off_c, 1, 57, 0
1, 215375, Note_off_c, 1, 72, 0
1, 215377, Note_on_c, 1, 70, 127
1, 215377, Note_on_c, 1, 57, 127
1, 215539, Note_off_c, 1, 70, 0
1, 215542, Note_on_c, 1, 72, 127
1, 215703, Note_off_c, 1, 57, 0
1, 215704, Note_off_c, 1, 72, 0
1, 215706, Note_on_c, 1, 74, 127
1, 215706, Note_on_c, 1, 58, 127
1, 215868, Note_off_c, 1, 74, 0
1, 215868, Note_off_c, 1, 58, 0
1, 215870, Note_on_c, 1, 77, 127
1, 215870, Note_on_c, 1, 57, 127
1, 216032, Note_off_c, 1, 77, 0
1, 216032, Note_off_c, 1, 57, 0
1, 216034, Note_on_c, 1, 76, 127
1, 216034, Note_on_c, 1, 55, 127
1, 216196, Note_off_c, 1, 76, 0
1, 216196, Note_off_c, 1, 55, 0
1, 216198, Note_on_c, 1, 77, 127
1, 216198, Note_on_c, 1, 53, 127
1, 216360, Note_off_c, 1, 77, 0
1, 216360, Note_off_c, 1, 53, 0
1, 216362, Note_on_c, 1, 52, 127
1, 216362, Note_on_c, 1, 79, 127
1, 216524, Note_off_c, 1, 52, 0
1, 216527, Note_on_c, 1, 70, 127
1, 216527, Note_on_c, 1, 55, 127
1, 216550, Note_off_c, 1, 79, 0
1, 216689, Note_off_c, 1, 70, 0
1, 216689, Note_off_c, 1, 55, 0
1, 216691, Note_on_c, 1, 53, 127
1, 216691, Note_on_c, 1, 69, 127
1, 216853, Note_off_c, 1, 53, 0
1, 216855, Note_on_c, 1, 58, 127
1, 216990, Note_off_c, 1, 69, 0
1, 217017, Note_off_c, 1, 58, 0
1, 217019, Note_on_c, 1, 57, 127
1, 217019, Note_on_c, 1, 72, 127
1, 217181, Note_off_c, 1, 57, 0
1, 217183, Note_on_c, 1, 55, 127
1, 217318, Note_off_c, 1, 72, 0
1, 217345, Note_off_c, 1, 55, 0
1, 217347, Note_on_c, 1, 77, 127
1, 217347, Note_on_c, 1, 53, 127
1, 217429, Note_off_c, 1, 77, 0
1, 217429, Note_on_c, 1, 76, 127
1, 217509, Note_off_c, 1, 53, 0
1, 217511, Note_off_c, 1, 76, 0
1, 217512, Note_on_c, 1, 52, 127
1, 217512, Note_on_c, 1, 77, 127
1, 217674, Note_off_c, 1, 52, 0
1, 217676, Note_on_c, 1, 50, 127
1, 217836, Note_off_c, 1, 77, 0
1, 217838, Note_off_c, 1, 50, 0
1, 217840, Note_on_c, 1, 77, 127
1, 217840, Note_on_c, 1, 53, 127
1, 218002, Note_off_c, 1, 77, 0
1, 218002, Note_off_c, 1, 53, 0
1, 218004, Note_on_c, 1, 77, 127
1, 218004, Note_on_c, 1, 46, 127
1, 218166, Note_off_c, 1, 77, 0
1, 218166, Note_off_c, 1, 46, 0
1, 218168, Note_on_c, 1, 82, 127
1, 218168, Note_on_c, 1, 50, 127
1, 218330, Note_off_c, 1, 82, 0
1, 218330, Note_off_c, 1, 50, 0
1, 218332, Note_on_c, 1, 81, 127
1, 218332, Note_on_c, 1, 48, 127
1, 218494, Note_off_c, 1, 81, 0
1, 218494, Note_off_c, 1, 48, 0
1, 218496, Note_on_c, 1, 79, 127
1, 218496, Note_on_c, 1, 46, 127
1, 218658, Note_off_c, 1, 79, 0
1, 218658, Note_off_c, 1, 46, 0
1, 218661, Note_on_c, 1, 81, 127
1, 218661, Note_on_c, 1, 48, 127
1, 218736, Note_on_c, 1, 79, 127
1, 218741, Note_off_c, 1, 81, 0
1, 218816, Note_off_c, 1, 79, 0
1, 218987, Note_off_c, 1, 48, 0
1, 218989, Note_on_c, 1, 36, 127
1, 219153, Note_on_c, 1, 77, 127
1, 219315, Note_off_c, 1, 36, 0
1, 219315, Note_off_c, 1, 77, 0
1, 219317, Note_on_c, 1, 41, 127
1, 219317, Note_on_c, 1, 77, 127
1, 219479, Note_off_c, 1, 41, 0
1, 219481, Note_on_c, 1, 36, 127
1, 219643, Note_off_c, 1, 36, 0
1, 219646, Note_on_c, 1, 38, 127
1, 219808, Note_off_c, 1, 38, 0
1, 219810, Note_on_c, 1, 40, 127
1, 219972, Note_off_c, 1, 40, 0
1, 220137, Note_off_c, 1, 77, 0
1, 220138, Note_on_c, 1, 43, 127
1, 220300, Note_off_c, 1, 43, 0
1, 220302, Note_on_c, 1, 45, 127
1, 220302, Note_on_c, 1, 65, 127
1, 220464, Note_off_c, 1, 45, 0
1, 220466, Note_on_c, 1, 41, 127
1, 220628, Note_off_c, 1, 65, 0
1, 220628, Note_off_c, 1, 41, 0
1, 220631, Note_on_c, 1, 64, 127
1, 220631, Note_on_c, 1, 48, 127
1, 220793, Note_off_c, 1, 64, 0
1, 220795, Note_on_c, 1, 65, 127
1, 220957, Note_off_c, 1, 65, 0
1, 220959, Note_on_c, 1, 67, 127
1, 220959, Note_on_c, 1, 36, 127
1, 221121, Note_off_c, 1, 67, 0
1, 221123, Note_on_c, 1, 58, 127
1, 221285, Note_off_c, 1, 58, 0
1, 221287, Note_on_c, 1, 57, 127
1, 221449, Note_off_c, 1, 57, 0
1, 221614, Note_off_c, 1, 48, 0
1, 221616, Note_on_c, 1, 60, 127
1, 221778, Note_off_c, 1, 60, 0
1, 222270, Note_off_c, 1, 36, 0
1, 223585, Note_on_c, 1, 68, 127
1, 223747, Note_off_c, 1, 68, 0
1, 223914, Note_on_c, 1, 59, 127
1, 224076, Note_off_c, 1, 59, 0
1, 224242, Note_on_c, 1, 62, 127
1, 224404, Note_off_c, 1, 62, 0
1, 226869, Note_on_c, 1, 61, 127
1, 227031, Note_off_c, 1, 61, 0
1, 227033, Note_on_c, 1, 56, 127
1, 227195, Note_off_c, 1, 56, 0
1, 227197, Note_on_c, 1, 55, 127
1, 227359, Note_off_c, 1, 55, 0
1, 227689, Note_on_c, 1, 53, 127
1, 227851, Note_off_c, 1, 53, 0
1, 227854, Note_on_c, 1, 52, 127
1, 228016, Note_off_c, 1, 52, 0
1, 228182, Note_on_c, 1, 55, 127
1, 228344, Note_off_c, 1, 55, 0
1, 228346, Note_on_c, 1, 48, 127
1, 228508, Note_off_c, 1, 48, 0
1, 228510, Note_on_c, 1, 46, 127
1, 228672, Note_off_c, 1, 46, 0
1, 228674, Note_on_c, 1, 48, 127
1, 228836, Note_off_c, 1, 48, 0
1, 228839, Note_on_c, 1, 49, 127
1, 229001, Note_off_c, 1, 49, 0
1, 229003, Note_on_c, 1, 44, 127
1, 229165, Note_off_c, 1, 44, 0
1, 229167, Note_on_c, 1, 43, 127
1, 229329, Note_off_c, 1, 43, 0
1, 229331, Note_on_c, 1, 44, 127
1, 229493, Note_off_c, 1, 44, 0
1, 229495, Note_on_c, 1, 46, 127
1, 229657, Note_off_c, 1, 46, 0
1, 229659, Note_on_c, 1, 41, 127
1, 229821, Note_off_c, 1, 41, 0
1, 229824, Note_on_c, 1, 40, 127
1, 230150, Note_off_c, 1, 40, 0
1, 230152, Note_on_c, 1, 69, 127
1, 230152, Note_on_c, 1, 65, 127
1, 230152, Note_on_c, 1, 41, 127
1, 230314, Note_off_c, 1, 69, 0
1, 230316, Note_on_c, 1, 70, 127
1, 230398, Note_on_c, 1, 72, 127
1, 230403, Note_off_c, 1, 70, 0
1, 230476, Note_off_c, 1, 65, 0
1, 230478, Note_off_c, 1, 41, 0
1, 230478, Note_off_c, 1, 72, 0
1, 230480, Note_on_c, 1, 48, 127
1, 230480, Note_on_c, 1, 69, 127
1, 230480, Note_on_c, 1, 65, 127
1, 230806, Note_off_c, 1, 48, 0
1, 230806, Note_off_c, 1, 69, 0
1, 230806, Note_off_c, 1, 65, 0
1, 230808, Note_on_c, 1, 67, 127
1, 230808, Note_on_c, 1, 64, 127
1, 230808, Note_on_c, 1, 36, 127
1, 230970, Note_off_c, 1, 67, 0
1, 230970, Note_off_c, 1, 64, 0
1, 230973, Note_on_c, 1, 65, 127
1, 231134, Note_off_c, 1, 36, 0
1, 231135, Note_off_c, 1, 65, 0
1, 231137, Note_on_c, 1, 65, 127
1, 231137, Note_on_c, 1, 41, 127
1, 231299, Note_off_c, 1, 65, 0
1, 231301, Note_on_c, 1, 60, 127
1, 231463, Note_off_c, 1, 60, 0
1, 231465, Note_on_c, 1, 62, 127
1, 231615, Note_off_c, 1, 41, 0
1, 231627, Note_off_c, 1, 62, 0
1, 231629, Note_on_c, 1, 64, 127
1, 231791, Note_off_c, 1, 64, 0
1, 231793, Note_on_c, 1, 65, 127
1, 231955, Note_off_c, 1, 65, 0
1, 231958, Note_on_c, 1, 67, 127
1, 232120, Note_off_c, 1, 67, 0
1, 232122, Note_on_c, 1, 69, 127
1, 232284, Note_off_c, 1, 69, 0
1, 232286, Note_on_c, 1, 65, 127
1, 232448, Note_off_c, 1, 65, 0
1, 232450, Note_on_c, 1, 70, 127
1, 232612, Note_off_c, 1, 70, 0
1, 232614, Note_on_c, 1, 72, 127
1, 232776, Note_off_c, 1, 72, 0
1, 232778, Note_on_c, 1, 70, 127
1, 232940, Note_off_c, 1, 70, 0
1, 232943, Note_on_c, 1, 69, 127
1, 233105, Note_off_c, 1, 69, 0
1, 233107, Note_on_c, 1, 67, 127
1, 233269, Note_off_c, 1, 67, 0
1, 233271, Note_on_c, 1, 72, 127
1, 233433, Note_off_c, 1, 72, 0
1, 233435, Note_on_c, 1, 70, 127
1, 233597, Note_off_c, 1, 70, 0
1, 233599, Note_on_c, 1, 72, 127
1, 233761, Note_off_c, 1, 72, 0
1, 233763, Note_on_c, 1, 69, 127
1, 233843, Note_off_c, 1, 69, 0
1, 233845, Note_on_c, 1, 67, 127
1, 233925, Note_off_c, 1, 67, 0
1, 233928, Note_on_c, 1, 69, 127
1, 233928, Note_on_c, 1, 48, 127
1, 234090, Note_off_c, 1, 69, 0
1, 234090, Note_off_c, 1, 48, 0
1, 234092, Note_on_c, 1, 50, 127
1, 234092, Note_on_c, 1, 65, 127
1, 234254, Note_off_c, 1, 50, 0
1, 234256, Note_on_c, 1, 52, 127
1, 234418, Note_off_c, 1, 65, 0
1, 234418, Note_off_c, 1, 52, 0
1, 234420, Note_on_c, 1, 77, 127
1, 234420, Note_on_c, 1, 53, 127
1, 234500, Note_off_c, 1, 77, 0
1, 234502, Note_on_c, 1, 76, 127
1, 234582, Note_off_c, 1, 53, 0
1, 234582, Note_off_c, 1, 76, 0
1, 234584, Note_on_c, 1, 55, 127
1, 234584, Note_on_c, 1, 77, 127
1, 234746, Note_off_c, 1, 55, 0
1, 234748, Note_on_c, 1, 57, 127
1, 234910, Note_off_c, 1, 77, 0
1, 234910, Note_off_c, 1, 57, 0
1, 234912, Note_on_c, 1, 53, 127
1, 234912, Note_on_c, 1, 77, 127
1, 235074, Note_off_c, 1, 53, 0
1, 235074, Note_off_c, 1, 77, 0
1, 235077, Note_on_c, 1, 58, 127
1, 235077, Note_on_c, 1, 77, 127
1, 235239, Note_off_c, 1, 58, 0
1, 235241, Note_on_c, 1, 60, 127
1, 235403, Note_off_c, 1, 60, 0
1, 235567, Note_off_c, 1, 77, 0
1, 235569, Note_on_c, 1, 57, 127
1, 235569, Note_on_c, 1, 79, 127
1, 235731, Note_off_c, 1, 57, 0
1, 235731, Note_off_c, 1, 79, 0
1, 235733, Note_on_c, 1, 77, 127
1, 235733, Note_on_c, 1, 55, 127
1, 235809, Note_on_c, 1, 76, 127
1, 235813, Note_off_c, 1, 77, 0
1, 235889, Note_off_c, 1, 76, 0
1, 235895, Note_off_c, 1, 55, 0
1, 235897, Note_on_c, 1, 60, 127
1, 236059, Note_off_c, 1, 60, 0
1, 236062, Note_on_c, 1, 58, 127
1, 236224, Note_off_c, 1, 58, 0
1, 236226, Note_on_c, 1, 60, 127
1, 236226, Note_on_c, 1, 77, 127
1, 236388, Note_off_c, 1, 60, 0
1, 236388, Note_off_c, 1, 77, 0
1, 236390, Note_on_c, 1, 77, 127
1, 236390, Note_on_c, 1, 57, 127
1, 236552, Note_off_c, 1, 77, 0
1, 236554, Note_on_c, 1, 79, 127
1, 236716, Note_off_c, 1, 57, 0
1, 236716, Note_off_c, 1, 79, 0
1, 236718, Note_on_c, 1, 77, 127
1, 236718, Note_on_c, 1, 53, 127
1, 236880, Note_off_c, 1, 77, 0
1, 236882, Note_on_c, 1, 76, 127
1, 237044, Note_off_c, 1, 53, 0
1, 237044, Note_off_c, 1, 76, 0
1, 237047, Note_on_c, 1, 65, 127
1, 237047, Note_on_c, 1, 74, 127
1, 237127, Note_off_c, 1, 65, 0
1, 237129, Note_on_c, 1, 64, 127
1, 237209, Note_off_c, 1, 74, 0
1, 237209, Note_off_c, 1, 64, 0
1, 237211, Note_on_c, 1, 76, 127
1, 237211, Note_on_c, 1, 65, 127
1, 237373, Note_off_c, 1, 76, 0
1, 237375, Note_on_c, 1, 77, 127
1, 237537, Note_off_c, 1, 65, 0
1, 237537, Note_off_c, 1, 77, 0
1, 237539, Note_on_c, 1, 65, 127
1, 237539, Note_on_c, 1, 81, 127
1, 237701, Note_off_c, 1, 65, 0
1, 237701, Note_off_c, 1, 81, 0
1, 237703, Note_on_c, 1, 71, 127
1, 237703, Note_on_c, 1, 65, 127
1, 237865, Note_off_c, 1, 71, 0
1, 237867, Note_on_c, 1, 72, 127
1, 238029, Note_off_c, 1, 72, 0
1, 238032, Note_on_c, 1, 74, 127
1, 238193, Note_off_c, 1, 65, 0
1, 238194, Note_off_c, 1, 74, 0
1, 238196, Note_on_c, 1, 67, 127
1, 238196, Note_on_c, 1, 79, 127
1, 238358, Note_off_c, 1, 67, 0
1, 238358, Note_off_c, 1, 79, 0
1, 238360, Note_on_c, 1, 65, 127
1, 238360, Note_on_c, 1, 72, 127
1, 238522, Note_off_c, 1, 65, 0
1, 238522, Note_off_c, 1, 72, 0
1, 238524, Note_on_c, 1, 64, 127
1, 238524, Note_on_c, 1, 74, 127
1, 238604, Note_off_c, 1, 64, 0
1, 238606, Note_on_c, 1, 65, 127
1, 238686, Note_off_c, 1, 74, 0
1, 238686, Note_off_c, 1, 65, 0
1, 238688, Note_on_c, 1, 64, 127
1, 238688, Note_on_c, 1, 76, 127
1, 238850, Note_off_c, 1, 64, 0
1, 238850, Note_off_c, 1, 76, 0
1, 238852, Note_on_c, 1, 64, 127
1, 238852, Note_on_c, 1, 79, 127
1, 239014, Note_off_c, 1, 64, 0
1, 239014, Note_off_c, 1, 79, 0
1, 239016, Note_on_c, 1, 69, 127
1, 239016, Note_on_c, 1, 64, 127
1, 239178, Note_off_c, 1, 69, 0
1, 239181, Note_on_c, 1, 71, 127
1, 239342, Note_off_c, 1, 64, 0
1, 239343, Note_off_c, 1, 71, 0
1, 239345, Note_on_c, 1, 72, 127
1, 239345, Note_on_c, 1, 57, 127
1, 239507, Note_off_c, 1, 72, 0
1, 239509, Note_on_c, 1, 77, 127
1, 239671, Note_off_c, 1, 57, 0
1, 239671, Note_off_c, 1, 77, 0
1, 239673, Note_on_c, 1, 62, 127
1, 239673, Note_on_c, 1, 71, 127
1, 239753, Note_off_c, 1, 62, 0
1, 239755, Note_on_c, 1, 60, 127
1, 239835, Note_off_c, 1, 71, 0
1, 239835, Note_off_c, 1, 60, 0
1, 239837, Note_on_c, 1, 72, 127
1, 239837, Note_on_c, 1, 62, 127
1, 239999, Note_off_c, 1, 72, 0
1, 240001, Note_on_c, 1, 74, 127
1, 240163, Note_off_c, 1, 62, 0
1, 240163, Note_off_c, 1, 74, 0
1, 240166, Note_on_c, 1, 62, 127
1, 240166, Note_on_c, 1, 77, 127
1, 240328, Note_off_c, 1, 62, 0
1, 240328, Note_off_c, 1, 77, 0
1, 240330, Note_on_c, 1, 67, 127
1, 240330, Note_on_c, 1, 62, 127
1, 240492, Note_off_c, 1, 67, 0
1, 240494, Note_on_c, 1, 69, 127
1, 240656, Note_off_c, 1, 69, 0
1, 240658, Note_on_c, 1, 71, 127
1, 240820, Note_off_c, 1, 62, 0
1, 240820, Note_off_c, 1, 71, 0
1, 240822, Note_on_c, 1, 64, 127
1, 240822, Note_on_c, 1, 76, 127
1, 240984, Note_off_c, 1, 64, 0
1, 240984, Note_off_c, 1, 76, 0
1, 240986, Note_on_c, 1, 62, 127
1, 240986, Note_on_c, 1, 69, 127
1, 241148, Note_off_c, 1, 62, 0
1, 241148, Note_off_c, 1, 69, 0
1, 241151, Note_on_c, 1, 60, 127
1, 241151, Note_on_c, 1, 71, 127
1, 241231, Note_off_c, 1, 60, 0
1, 241233, Note_on_c, 1, 62, 127
1, 241313, Note_off_c, 1, 71, 0
1, 241313, Note_off_c, 1, 62, 0
1, 241315, Note_on_c, 1, 60, 127
1, 241315, Note_on_c, 1, 72, 127
1, 241477, Note_off_c, 1, 60, 0
1, 241477, Note_off_c, 1, 72, 0
1, 241479, Note_on_c, 1, 60, 127
1, 241479, Note_on_c, 1, 76, 127
1, 241641, Note_off_c, 1, 60, 0
1, 241641, Note_off_c, 1, 76, 0
1, 241643, Note_on_c, 1, 60, 127
1, 241643, Note_on_c, 1, 65, 127
1, 241805, Note_off_c, 1, 60, 0
1, 241807, Note_on_c, 1, 64, 127
1, 241969, Note_off_c, 1, 65, 0
1, 241969, Note_off_c, 1, 64, 0
1, 241971, Note_on_c, 1, 62, 127
1, 241971, Note_on_c, 1, 69, 127
1, 242133, Note_off_c, 1, 62, 0
1, 242136, Note_on_c, 1, 60, 127
1, 242297, Note_off_c, 1, 69, 0
1, 242298, Note_off_c, 1, 60, 0
1, 242300, Note_on_c, 1, 74, 127
1, 242300, Note_on_c, 1, 59, 127
1, 242380, Note_off_c, 1, 74, 0
1, 242382, Note_on_c, 1, 72, 127
1, 242462, Note_off_c, 1, 59, 0
1, 242462, Note_off_c, 1, 72, 0
1, 242464, Note_on_c, 1, 57, 127
1, 242464, Note_on_c, 1, 74, 127
1, 242626, Note_off_c, 1, 57, 0
1, 242628, Note_on_c, 1, 55, 127
1, 242790, Note_off_c, 1, 74, 0
1, 242790, Note_off_c, 1, 55, 0
1, 242792, Note_on_c, 1, 53, 127
1, 242792, Note_on_c, 1, 74, 127
1, 242954, Note_off_c, 1, 53, 0
1, 242954, Note_off_c, 1, 74, 0
1, 242956, Note_on_c, 1, 74, 127
1, 242956, Note_on_c, 1, 52, 127
1, 243120, Note_on_c, 1, 67, 127
1, 243195, Note_off_c, 1, 74, 0
1, 243282, Note_off_c, 1, 67, 0
1, 243285, Note_on_c, 1, 69, 127
1, 243447, Note_off_c, 1, 69, 0
1, 243449, Note_on_c, 1, 71, 127
1, 243611, Note_off_c, 1, 71, 0
1, 243613, Note_on_c, 1, 72, 127
1, 243727, Note_off_c, 1, 52, 0
1, 243775, Note_off_c, 1, 72, 0
1, 243777, Note_on_c, 1, 50, 127
1, 243777, Note_on_c, 1, 74, 127
1, 243939, Note_off_c, 1, 50, 0
1, 243939, Note_off_c, 1, 74, 0
1, 243941, Note_on_c, 1, 48, 127
1, 243941, Note_on_c, 1, 76, 127
1, 244103, Note_off_c, 1, 48, 0
1, 244103, Note_off_c, 1, 76, 0
1, 244105, Note_on_c, 1, 47, 127
1, 244105, Note_on_c, 1, 72, 127
1, 244267, Note_off_c, 1, 47, 0
1, 244267, Note_off_c, 1, 72, 0
1, 244270, Note_on_c, 1, 45, 127
1, 244270, Note_on_c, 1, 77, 127
1, 244432, Note_off_c, 1, 45, 0
1, 244432, Note_off_c, 1, 77, 0
1, 244434, Note_on_c, 1, 43, 127
1, 244434, Note_on_c, 1, 79, 127
1, 244596, Note_off_c, 1, 43, 0
1, 244596, Note_off_c, 1, 79, 0
1, 244598, Note_on_c, 1, 45, 127
1, 244598, Note_on_c, 1, 77, 127
1, 244760, Note_off_c, 1, 45, 0
1, 244760, Note_off_c, 1, 77, 0
1, 244762, Note_on_c, 1, 41, 127
1, 244762, Note_on_c, 1, 76, 127
1, 244924, Note_off_c, 1, 41, 0
1, 244924, Note_off_c, 1, 76, 0
1, 244926, Note_on_c, 1, 74, 127
1, 244926, Note_on_c, 1, 43, 127
1, 245088, Note_off_c, 1, 74, 0
1, 245090, Note_on_c, 1, 79, 127
1, 245252, Note_off_c, 1, 43, 0
1, 245252, Note_off_c, 1, 79, 0
1, 245255, Note_on_c, 1, 77, 127
1, 245255, Note_on_c, 1, 55, 127
1, 245417, Note_off_c, 1, 77, 0
1, 245419, Note_on_c, 1, 79, 127
1, 245581, Note_off_c, 1, 55, 0
1, 245581, Note_off_c, 1, 79, 0
1, 245583, Note_on_c, 1, 48, 127
1, 245583, Note_on_c, 1, 76, 127
1, 245745, Note_off_c, 1, 48, 0
1, 245747, Note_on_c, 1, 55, 127
1, 245909, Note_off_c, 1, 76, 0
1, 245909, Note_off_c, 1, 55, 0
1, 245911, Note_on_c, 1, 57, 127
1, 245911, Note_on_c, 1, 72, 127
1, 246073, Note_off_c, 1, 57, 0
1, 246075, Note_on_c, 1, 59, 127
1, 246237, Note_off_c, 1, 72, 0
1, 246237, Note_off_c, 1, 59, 0
1, 246240, Note_on_c, 1, 84, 127
1, 246240, Note_on_c, 1, 60, 127
1, 246320, Note_off_c, 1, 84, 0
1, 246322, Note_on_c, 1, 83, 127
1, 246402, Note_off_c, 1, 60, 0
1, 246402, Note_off_c, 1, 83, 0
1, 246404, Note_on_c, 1, 62, 127
1, 246404, Note_on_c, 1, 84, 127
1, 246566, Note_off_c, 1, 62, 0
1, 246568, Note_on_c, 1, 64, 127
1, 246730, Note_off_c, 1, 84, 0
1, 246730, Note_off_c, 1, 64, 0
1, 246732, Note_on_c, 1, 60, 127
1, 246732, Note_on_c, 1, 84, 127
1, 246894, Note_off_c, 1, 60, 0
1, 246894, Note_off_c, 1, 84, 0
1, 246896, Note_on_c, 1, 65, 127
1, 246896, Note_on_c, 1, 84, 127
1, 247058, Note_off_c, 1, 65, 0
1, 247060, Note_on_c, 1, 67, 127
1, 247222, Note_off_c, 1, 67, 0
1, 247304, Note_off_c, 1, 84, 0
1, 247307, Note_on_c, 1, 83, 127
1, 247387, Note_off_c, 1, 83, 0
1, 247389, Note_on_c, 1, 84, 127
1, 247389, Note_on_c, 1, 64, 127
1, 247469, Note_off_c, 1, 84, 0
1, 247471, Note_on_c, 1, 81, 127
1, 247551, Note_off_c, 1, 64, 0
1, 247551, Note_off_c, 1, 81, 0
1, 247553, Note_on_c, 1, 84, 127
1, 247553, Note_on_c, 1, 62, 127
1, 247655, Note_on_c, 1, 83, 127
1, 247662, Note_off_c, 1, 84, 0
1, 247715, Note_off_c, 1, 62, 0
1, 247717, Note_on_c, 1, 67, 127
1, 247735, Note_off_c, 1, 83, 0
1, 247879, Note_off_c, 1, 67, 0
1, 247881, Note_on_c, 1, 65, 127
1, 248043, Note_off_c, 1, 65, 0
1, 248045, Note_on_c, 1, 67, 127
1, 248045, Note_on_c, 1, 83, 127
1, 248207, Note_off_c, 1, 67, 0
1, 248207, Note_off_c, 1, 83, 0
1, 248209, Note_on_c, 1, 60, 127
1, 248209, Note_on_c, 1, 83, 127
1, 248371, Note_off_c, 1, 60, 0
1, 248374, Note_on_c, 1, 62, 127
1, 248535, Note_off_c, 1, 83, 0
1, 248536, Note_off_c, 1, 62, 0
1, 248538, Note_on_c, 1, 64, 127
1, 248538, Note_on_c, 1, 76, 127
1, 248700, Note_off_c, 1, 64, 0
1, 248702, Note_on_c, 1, 67, 127
1, 248864, Note_off_c, 1, 76, 0
1, 248864, Note_off_c, 1, 67, 0
1, 248866, Note_on_c, 1, 81, 127
1, 248866, Note_on_c, 1, 53, 127
1, 248946, Note_off_c, 1, 81, 0
1, 248948, Note_on_c, 1, 79, 127
1, 249028, Note_off_c, 1, 53, 0
1, 249028, Note_off_c, 1, 79, 0
1, 249030, Note_on_c, 1, 55, 127
1, 249030, Note_on_c, 1, 81, 127
1, 249192, Note_off_c, 1, 55, 0
1, 249194, Note_on_c, 1, 57, 127
1, 249356, Note_off_c, 1, 81, 0
1, 249356, Note_off_c, 1, 57, 0
1, 249359, Note_on_c, 1, 60, 127
1, 249359, Note_on_c, 1, 81, 127
1, 249521, Note_off_c, 1, 60, 0
1, 249521, Note_off_c, 1, 81, 0
1, 249523, Note_on_c, 1, 59, 127
1, 249523, Note_on_c, 1, 81, 127
1, 249685, Note_off_c, 1, 59, 0
1, 249687, Note_on_c, 1, 60, 127
1, 249849, Note_off_c, 1, 60, 0
1, 249851, Note_on_c, 1, 62, 127
1, 250013, Note_off_c, 1, 81, 0
1, 250013, Note_off_c, 1, 62, 0
1, 250015, Note_on_c, 1, 79, 127
1, 250015, Note_on_c, 1, 65, 127
1, 250095, Note_off_c, 1, 79, 0
1, 250097, Note_on_c, 1, 77, 127
1, 250177, Note_off_c, 1, 65, 0
1, 250177, Note_off_c, 1, 77, 0
1, 250179, Note_on_c, 1, 76, 127
1, 250179, Note_on_c, 1, 52, 127
1, 250261, Note_on_c, 1, 77, 127
1, 250341, Note_off_c, 1, 76, 0
1, 250341, Note_off_c, 1, 52, 0
1, 250343, Note_off_c, 1, 77, 0
1, 250344, Note_on_c, 1, 53, 127
1, 250344, Note_on_c, 1, 79, 127
1, 250506, Note_off_c, 1, 53, 0
1, 250508, Note_on_c, 1, 55, 127
1, 250668, Note_off_c, 1, 79, 0
1, 250670, Note_off_c, 1, 55, 0
1, 250672, Note_on_c, 1, 59, 127
1, 250672, Note_on_c, 1, 79, 127
1, 250834, Note_off_c, 1, 59, 0
1, 250834, Note_off_c, 1, 79, 0
1, 250836, Note_on_c, 1, 57, 127
1, 250836, Note_on_c, 1, 79, 127
1, 250998, Note_off_c, 1, 57, 0
1, 251000, Note_on_c, 1, 59, 127
1, 251162, Note_off_c, 1, 79, 0
1, 251162, Note_off_c, 1, 59, 0
1, 251164, Note_on_c, 1, 60, 127
1, 251164, Note_on_c, 1, 72, 127
1, 251326, Note_off_c, 1, 60, 0
1, 251328, Note_on_c, 1, 64, 127
1, 251490, Note_off_c, 1, 72, 0
1, 251490, Note_off_c, 1, 64, 0
1, 251493, Note_on_c, 1, 77, 127
1, 251493, Note_on_c, 1, 50, 127
1, 251573, Note_off_c, 1, 77, 0
1, 251575, Note_on_c, 1, 76, 127
1, 251655, Note_off_c, 1, 50, 0
1, 251655, Note_off_c, 1, 76, 0
1, 251657, Note_on_c, 1, 52, 127
1, 251657, Note_on_c, 1, 77, 127
1, 251819, Note_off_c, 1, 52, 0
1, 251821, Note_on_c, 1, 53, 127
1, 251983, Note_off_c, 1, 77, 0
1, 251983, Note_off_c, 1, 53, 0
1, 251985, Note_on_c, 1, 57, 127
1, 251985, Note_on_c, 1, 77, 127
1, 252147, Note_off_c, 1, 57, 0
1, 252147, Note_off_c, 1, 77, 0
1, 252149, Note_on_c, 1, 77, 127
1, 252149, Note_on_c, 1, 55, 127
1, 252311, Note_off_c, 1, 77, 0
1, 252313, Note_on_c, 1, 81, 127
1, 252439, Note_off_c, 1, 55, 0
1, 252475, Note_off_c, 1, 81, 0
1, 252478, Note_on_c, 1, 79, 127
1, 252478, Note_on_c, 1, 48, 127
1, 252640, Note_off_c, 1, 79, 0
1, 252642, Note_on_c, 1, 77, 127
1, 252768, Note_off_c, 1, 48, 0
1, 252804, Note_off_c, 1, 77, 0
1, 252806, Note_on_c, 1, 60, 127
1, 252806, Note_on_c, 1, 76, 127
1, 252886, Note_off_c, 1, 60, 0
1, 252888, Note_on_c, 1, 59, 127
1, 252968, Note_off_c, 1, 76, 0
1, 252968, Note_off_c, 1, 59, 0
1, 252970, Note_on_c, 1, 77, 127
1, 252970, Note_on_c, 1, 60, 127
1, 253132, Note_off_c, 1, 77, 0
1, 253134, Note_on_c, 1, 79, 127
1, 253296, Note_off_c, 1, 60, 0
1, 253296, Note_off_c, 1, 79, 0
1, 253298, Note_on_c, 1, 60, 127
1, 253298, Note_on_c, 1, 76, 127
1, 253460, Note_off_c, 1, 60, 0
1, 253460, Note_off_c, 1, 76, 0
1, 253463, Note_on_c, 1, 77, 127
1, 253463, Note_on_c, 1, 60, 127
1, 253625, Note_off_c, 1, 77, 0
1, 253627, Note_on_c, 1, 79, 127
1, 253789, Note_off_c, 1, 79, 0
1, 253953, Note_off_c, 1, 60, 0
1, 253955, Note_on_c, 1, 62, 127
1, 253955, Note_on_c, 1, 76, 127
1, 254117, Note_off_c, 1, 62, 0
1, 254117, Note_off_c, 1, 76, 0
1, 254119, Note_on_c, 1, 60, 127
1, 254119, Note_on_c, 1, 74, 127
1, 254281, Note_off_c, 1, 60, 0
1, 254281, Note_off_c, 1, 74, 0
1, 254283, Note_on_c, 1, 58, 127
1, 254283, Note_on_c, 1, 79, 127
1, 254363, Note_off_c, 1, 58, 0
1, 254365, Note_on_c, 1, 60, 127
1, 254445, Note_off_c, 1, 79, 0
1, 254445, Note_off_c, 1, 60, 0
1, 254448, Note_on_c, 1, 58, 127
1, 254448, Note_on_c, 1, 77, 127
1, 254610, Note_off_c, 1, 58, 0
1, 254610, Note_off_c, 1, 77, 0
1, 254612, Note_on_c, 1, 58, 127
1, 254612, Note_on_c, 1, 79, 127
1, 254774, Note_off_c, 1, 58, 0
1, 254774, Note_off_c, 1, 79, 0
1, 254776, Note_on_c, 1, 76, 127
1, 254776, Note_on_c, 1, 58, 127
1, 254938, Note_off_c, 1, 76, 0
1, 254940, Note_on_c, 1, 72, 127
1, 255102, Note_off_c, 1, 58, 0
1, 255102, Note_off_c, 1, 72, 0
1, 255104, Note_on_c, 1, 60, 127
1, 255104, Note_on_c, 1, 74, 127
1, 255266, Note_off_c, 1, 60, 0
1, 255266, Note_off_c, 1, 74, 0
1, 255268, Note_on_c, 1, 58, 127
1, 255268, Note_on_c, 1, 76, 127
1, 255430, Note_off_c, 1, 58, 0
1, 255430, Note_off_c, 1, 76, 0
1, 255432, Note_on_c, 1, 57, 127
1, 255432, Note_on_c, 1, 77, 127
1, 255594, Note_off_c, 1, 57, 0
1, 255594, Note_off_c, 1, 77, 0
1, 255597, Note_on_c, 1, 55, 127
1, 255597, Note_on_c, 1, 79, 127
1, 255759, Note_off_c, 1, 55, 0
1, 255759, Note_off_c, 1, 79, 0
1, 255761, Note_on_c, 1, 53, 127
1, 255761, Note_on_c, 1, 81, 127
1, 255923, Note_off_c, 1, 53, 0
1, 255923, Note_off_c, 1, 81, 0
1, 255925, Note_on_c, 1, 52, 127
1, 255925, Note_on_c, 1, 77, 127
1, 256087, Note_off_c, 1, 52, 0
1, 256087, Note_off_c, 1, 77, 0
1, 256089, Note_on_c, 1, 50, 127
1, 256089, Note_on_c, 1, 82, 127
1, 256251, Note_off_c, 1, 50, 0
1, 256251, Note_off_c, 1, 82, 0
1, 256253, Note_on_c, 1, 48, 127
1, 256253, Note_on_c, 1, 84, 127
1, 256415, Note_off_c, 1, 48, 0
1, 256415, Note_off_c, 1, 84, 0
1, 256417, Note_on_c, 1, 50, 127
1, 256417, Note_on_c, 1, 82, 127
1, 256579, Note_off_c, 1, 50, 0
1, 256579, Note_off_c, 1, 82, 0
1, 256582, Note_on_c, 1, 46, 127
1, 256582, Note_on_c, 1, 81, 127
1, 256744, Note_off_c, 1, 46, 0
1, 256744, Note_off_c, 1, 81, 0
1, 256746, Note_on_c, 1, 79, 127
1, 256746, Note_on_c, 1, 48, 127
1, 256908, Note_off_c, 1, 79, 0
1, 256910, Note_on_c, 1, 84, 127
1, 257072, Note_off_c, 1, 48, 0
1, 257072, Note_off_c, 1, 84, 0
1, 257074, Note_on_c, 1, 82, 127
1, 257074, Note_on_c, 1, 36, 127
1, 257236, Note_off_c, 1, 82, 0
1, 257238, Note_on_c, 1, 84, 127
1, 257400, Note_off_c, 1, 36, 0
1, 257400, Note_off_c, 1, 84, 0
1, 257402, Note_on_c, 1, 81, 127
1, 257402, Note_on_c, 1, 41, 127
1, 257564, Note_off_c, 1, 81, 0
1, 257567, Note_on_c, 1, 82, 127
1, 257729, Note_off_c, 1, 82, 0
1, 257895, Note_on_c, 1, 79, 127
1, 258057, Note_off_c, 1, 79, 0
1, 258059, Note_on_c, 1, 77, 127
1, 258221, Note_off_c, 1, 77, 0
1, 258222, Note_off_c, 1, 41, 0
1, 258223, Note_on_c, 1, 76, 127
1, 258385, Note_off_c, 1, 76, 0
1, 258387, Note_on_c, 1, 74, 127
1, 258387, Note_on_c, 1, 53, 127
1, 258549, Note_off_c, 1, 74, 0
1, 258552, Note_on_c, 1, 72, 127
1, 258713, Note_off_c, 1, 53, 0
1, 258714, Note_off_c, 1, 72, 0
1, 258716, Note_on_c, 1, 55, 127
1, 258716, Note_on_c, 1, 71, 127
1, 258878, Note_off_c, 1, 55, 0
1, 258878, Note_off_c, 1, 71, 0
1, 258880, Note_on_c, 1, 60, 127
1, 258880, Note_on_c, 1, 67, 127
1, 259042, Note_off_c, 1, 60, 0
1, 259042, Note_off_c, 1, 67, 0
1, 259044, Note_on_c, 1, 59, 127
1, 259044, Note_on_c, 1, 69, 127
1, 259206, Note_off_c, 1, 59, 0
1, 259206, Note_off_c, 1, 69, 0
1, 259208, Note_on_c, 1, 57, 127
1, 259208, Note_on_c, 1, 71, 127
1, 259370, Note_off_c, 1, 57, 0
1, 259370, Note_off_c, 1, 71, 0
1, 259372, Note_on_c, 1, 55, 127
1, 259372, Note_on_c, 1, 72, 127
1, 259534, Note_off_c, 1, 55, 0
1, 259534, Note_off_c, 1, 72, 0
1, 259536, Note_on_c, 1, 53, 127
1, 259536, Note_on_c, 1, 74, 127
1, 259698, Note_off_c, 1, 53, 0
1, 259698, Note_off_c, 1, 74, 0
1, 259701, Note_on_c, 1, 52, 127
1, 259701, Note_on_c, 1, 76, 127
1, 259863, Note_off_c, 1, 52, 0
1, 259863, Note_off_c, 1, 76, 0
1, 259865, Note_on_c, 1, 50, 127
1, 259865, Note_on_c, 1, 77, 127
1, 260027, Note_off_c, 1, 50, 0
1, 260027, Note_off_c, 1, 77, 0
1, 260029, Note_on_c, 1, 79, 127
1, 260029, Note_on_c, 1, 48, 127
1, 260273, Note_off_c, 1, 79, 0
1, 260275, Note_on_c, 1, 81, 127
1, 260355, Note_off_c, 1, 48, 0
1, 260355, Note_off_c, 1, 81, 0
1, 260357, Note_on_c, 1, 79, 127
1, 260357, Note_on_c, 1, 53, 127
1, 260437, Note_off_c, 1, 79, 0
1, 260439, Note_on_c, 1, 77, 127
1, 260519, Note_off_c, 1, 77, 0
1, 260604, Note_on_c, 1, 81, 127
1, 260683, Note_off_c, 1, 53, 0
1, 260684, Note_off_c, 1, 81, 0
1, 260686, Note_on_c, 1, 76, 127
1, 260686, Note_on_c, 1, 55, 127
1, 260848, Note_off_c, 1, 76, 0
1, 260850, Note_on_c, 1, 74, 127
1, 260930, Note_off_c, 1, 74, 0
1, 261012, Note_off_c, 1, 55, 0
1, 261014, Note_on_c, 1, 74, 127
1, 261014, Note_on_c, 1, 43, 127
1, 261176, Note_off_c, 1, 74, 0
1, 261178, Note_on_c, 1, 72, 127
1, 261340, Note_off_c, 1, 43, 0
1, 261340, Note_off_c, 1, 72, 0
1, 261342, Note_on_c, 1, 72, 127
1, 261342, Note_on_c, 1, 36, 127
1, 261504, Note_off_c, 1, 72, 0
1, 261506, Note_on_c, 1, 67, 127
1, 261668, Note_off_c, 1, 67, 0
1, 261671, Note_on_c, 1, 69, 127
1, 261786, Note_off_c, 1, 36, 0
1, 261833, Note_off_c, 1, 69, 0
1, 261835, Note_on_c, 1, 71, 127
1, 261997, Note_off_c, 1, 71, 0
1, 261999, Note_on_c, 1, 60, 127
1, 261999, Note_on_c, 1, 72, 127
1, 262079, Note_off_c, 1, 60, 0
1, 262081, Note_on_c, 1, 59, 127
1, 262161, Note_off_c, 1, 72, 0
1, 262161, Note_off_c, 1, 59, 0
1, 262163, Note_on_c, 1, 74, 127
1, 262163, Note_on_c, 1, 60, 127
1, 262325, Note_off_c, 1, 74, 0
1, 262327, Note_on_c, 1, 76, 127
1, 262489, Note_off_c, 1, 60, 0
1, 262489, Note_off_c, 1, 76, 0
1, 262491, Note_on_c, 1, 60, 127
1, 262491, Note_on_c, 1, 72, 127
1, 262653, Note_off_c, 1, 60, 0
1, 262653, Note_off_c, 1, 72, 0
1, 262656, Note_on_c, 1, 77, 127
1, 262656, Note_on_c, 1, 60, 127
1, 262818, Note_off_c, 1, 77, 0
1, 262820, Note_on_c, 1, 79, 127
1, 262982, Note_off_c, 1, 79, 0
1, 263146, Note_off_c, 1, 60, 0
1, 263148, Note_on_c, 1, 62, 127
1, 263148, Note_on_c, 1, 76, 127
1, 263310, Note_off_c, 1, 62, 0
1, 263310, Note_off_c, 1, 76, 0
1, 263312, Note_on_c, 1, 60, 127
1, 263312, Note_on_c, 1, 74, 127
1, 263474, Note_off_c, 1, 60, 0
1, 263474, Note_off_c, 1, 74, 0
1, 263476, Note_on_c, 1, 58, 127
1, 263476, Note_on_c, 1, 79, 127
1, 263556, Note_off_c, 1, 58, 0
1, 263558, Note_on_c, 1, 60, 127
1, 263638, Note_off_c, 1, 79, 0
1, 263638, Note_off_c, 1, 60, 0
1, 263640, Note_on_c, 1, 58, 127
1, 263640, Note_on_c, 1, 77, 127
1, 263802, Note_off_c, 1, 58, 0
1, 263802, Note_off_c, 1, 77, 0
1, 263805, Note_on_c, 1, 58, 127
1, 263805, Note_on_c, 1, 79, 127
1, 263967, Note_off_c, 1, 58, 0
1, 263967, Note_off_c, 1, 79, 0
1, 263969, Note_on_c, 1, 58, 127
1, 263969, Note_on_c, 1, 76, 127
1, 264131, Note_off_c, 1, 58, 0
1, 264133, Note_on_c, 1, 48, 127
1, 264242, Note_off_c, 1, 76, 0
1, 264295, Note_off_c, 1, 48, 0
1, 264297, Note_on_c, 1, 50, 127
1, 264297, Note_on_c, 1, 72, 127
1, 264459, Note_off_c, 1, 50, 0
1, 264461, Note_on_c, 1, 52, 127
1, 264570, Note_off_c, 1, 72, 0
1, 264623, Note_off_c, 1, 52, 0
1, 264625, Note_on_c, 1, 77, 127
1, 264625, Note_on_c, 1, 53, 127
1, 264705, Note_off_c, 1, 77, 0
1, 264708, Note_on_c, 1, 76, 127
1, 264787, Note_off_c, 1, 53, 0
1, 264788, Note_off_c, 1, 76, 0
1, 264790, Note_on_c, 1, 55, 127
1, 264790, Note_on_c, 1, 77, 127
1, 264952, Note_off_c, 1, 55, 0
1, 264954, Note_on_c, 1, 57, 127
1, 265116, Note_off_c, 1, 77, 0
1, 265116, Note_off_c, 1, 57, 0
1, 265118, Note_on_c, 1, 53, 127
1, 265118, Note_on_c, 1, 77, 127
1, 265280, Note_off_c, 1, 53, 0
1, 265280, Note_off_c, 1, 77, 0
1, 265282, Note_on_c, 1, 58, 127
1, 265282, Note_on_c, 1, 77, 127
1, 265444, Note_off_c, 1, 58, 0
1, 265446, Note_on_c, 1, 60, 127
1, 265608, Note_off_c, 1, 60, 0
1, 265772, Note_off_c, 1, 77, 0
1, 265775, Note_on_c, 1, 57, 127
1, 265775, Note_on_c, 1, 79, 127
1, 265937, Note_off_c, 1, 57, 0
1, 265937, Note_off_c, 1, 79, 0
1, 265939, Note_on_c, 1, 55, 127
1, 265939, Note_on_c, 1, 77, 127
1, 266101, Note_off_c, 1, 55, 0
1, 266101, Note_off_c, 1, 77, 0
1, 266103, Note_on_c, 1, 75, 127
1, 266103, Note_on_c, 1, 60, 127
1, 266183, Note_off_c, 1, 75, 0
1, 266185, Note_on_c, 1, 77, 127
1, 266265, Note_off_c, 1, 60, 0
1, 266265, Note_off_c, 1, 77, 0
1, 266267, Note_on_c, 1, 58, 127
1, 266267, Note_on_c, 1, 75, 127
1, 266429, Note_off_c, 1, 58, 0
1, 266429, Note_off_c, 1, 75, 0
1, 266431, Note_on_c, 1, 60, 127
1, 266431, Note_on_c, 1, 75, 127
1, 266593, Note_off_c, 1, 60, 0
1, 266593, Note_off_c, 1, 75, 0
1, 266595, Note_on_c, 1, 75, 127
1, 266595, Note_on_c, 1, 57, 127
1, 266757, Note_off_c, 1, 75, 0
1, 266760, Note_on_c, 1, 65, 127
1, 266902, Note_off_c, 1, 57, 0
1, 266922, Note_off_c, 1, 65, 0
1, 266924, Note_on_c, 1, 67, 127
1, 266924, Note_on_c, 1, 53, 127
1, 267086, Note_off_c, 1, 67, 0
1, 267088, Note_on_c, 1, 69, 127
1, 267231, Note_off_c, 1, 53, 0
1, 267250, Note_off_c, 1, 69, 0
1, 267252, Note_on_c, 1, 58, 127
1, 267252, Note_on_c, 1, 70, 127
1, 267332, Note_off_c, 1, 58, 0
1, 267334, Note_on_c, 1, 57, 127
1, 267414, Note_off_c, 1, 70, 0
1, 267414, Note_off_c, 1, 57, 0
1, 267416, Note_on_c, 1, 72, 127
1, 267416, Note_on_c, 1, 58, 127
1, 267578, Note_off_c, 1, 72, 0
1, 267580, Note_on_c, 1, 74, 127
1, 267742, Note_off_c, 1, 58, 0
1, 267742, Note_off_c, 1, 74, 0
1, 267744, Note_on_c, 1, 58, 127
1, 267744, Note_on_c, 1, 70, 127
1, 267906, Note_off_c, 1, 58, 0
1, 267906, Note_off_c, 1, 70, 0
1, 267909, Note_on_c, 1, 75, 127
1, 267909, Note_on_c, 1, 58, 127
1, 268071, Note_off_c, 1, 75, 0
1, 268073, Note_on_c, 1, 77, 127
1, 268235, Note_off_c, 1, 77, 0
1, 268399, Note_off_c, 1, 58, 0
1, 268401, Note_on_c, 1, 60, 127
1, 268401, Note_on_c, 1, 74, 127
1, 268563, Note_off_c, 1, 60, 0
1, 268563, Note_off_c, 1, 74, 0
1, 268565, Note_on_c, 1, 58, 127
1, 268565, Note_on_c, 1, 72, 127
1, 268727, Note_off_c, 1, 58, 0
1, 268727, Note_off_c, 1, 72, 0
1, 268729, Note_on_c, 1, 57, 127
1, 268729, Note_on_c, 1, 77, 127
1, 268809, Note_off_c, 1, 57, 0
1, 268812, Note_on_c, 1, 58, 127
1, 268891, Note_off_c, 1, 77, 0
1, 268892, Note_off_c, 1, 58, 0
1, 268894, Note_on_c, 1, 57, 127
1, 268894, Note_on_c, 1, 75, 127
1, 269056, Note_off_c, 1, 57, 0
1, 269056, Note_off_c, 1, 75, 0
1, 269058, Note_on_c, 1, 58, 127
1, 269058, Note_on_c, 1, 77, 127
1, 269220, Note_off_c, 1, 58, 0
1, 269220, Note_off_c, 1, 77, 0
1, 269222, Note_on_c, 1, 58, 127
1, 269222, Note_on_c, 1, 74, 127
1, 269384, Note_off_c, 1, 58, 0
1, 269386, Note_on_c, 1, 50, 127
1, 269495, Note_off_c, 1, 74, 0
1, 269548, Note_off_c, 1, 50, 0
1, 269550, Note_on_c, 1, 52, 127
1, 269550, Note_on_c, 1, 70, 127
1, 269712, Note_off_c, 1, 52, 0
1, 269714, Note_on_c, 1, 53, 127
1, 269823, Note_off_c, 1, 70, 0
1, 269876, Note_off_c, 1, 53, 0
1, 269879, Note_on_c, 1, 55, 127
1, 269879, Note_on_c, 1, 79, 127
1, 269879, Note_on_c, 1, 82, 127
1, 269879, Note_on_c, 1, 74, 127
1, 270041, Note_off_c, 1, 55, 0
1, 270043, Note_on_c, 1, 57, 127
1, 270205, Note_off_c, 1, 57, 0
1, 270207, Note_on_c, 1, 58, 127
1, 270369, Note_off_c, 1, 79, 0
1, 270369, Note_off_c, 1, 82, 0
1, 270369, Note_off_c, 1, 74, 0
1, 270369, Note_off_c, 1, 58, 0
1, 270371, Note_on_c, 1, 55, 127
1, 270371, Note_on_c, 1, 82, 127
1, 270371, Note_on_c, 1, 79, 127
1, 270371, Note_on_c, 1, 74, 127
1, 270533, Note_off_c, 1, 55, 0
1, 270533, Note_off_c, 1, 82, 0
1, 270533, Note_off_c, 1, 79, 0
1, 270533, Note_off_c, 1, 74, 0
1, 270535, Note_on_c, 1, 60, 127
1, 270535, Note_on_c, 1, 79, 127
1, 270535, Note_on_c, 1, 76, 127
1, 270535, Note_on_c, 1, 82, 127
1, 270697, Note_off_c, 1, 60, 0
1, 270699, Note_on_c, 1, 48, 127
1, 270861, Note_off_c, 1, 48, 0
1, 270864, Note_on_c, 1, 50, 127
1, 271025, Note_off_c, 1, 79, 0
1, 271025, Note_off_c, 1, 76, 0
1, 271025, Note_off_c, 1, 82, 0
1, 271026, Note_off_c, 1, 50, 0
1, 271028, Note_on_c, 1, 52, 127
1, 271028, Note_on_c, 1, 79, 127
1, 271028, Note_on_c, 1, 76, 127
1, 271028, Note_on_c, 1, 84, 127
1, 271190, Note_off_c, 1, 52, 0
1, 271190, Note_off_c, 1, 79, 0
1, 271190, Note_off_c, 1, 76, 0
1, 271190, Note_off_c, 1, 84, 0
1, 271192, Note_on_c, 1, 53, 127
1, 271192, Note_on_c, 1, 81, 127
1, 271192, Note_on_c, 1, 77, 127
1, 271192, Note_on_c, 1, 76, 127
1, 271354, Note_off_c, 1, 53, 0
1, 271356, Note_on_c, 1, 55, 127
1, 271518, Note_off_c, 1, 55, 0
1, 271520, Note_on_c, 1, 57, 127
1, 271682, Note_off_c, 1, 81, 0
1, 271682, Note_off_c, 1, 77, 0
1, 271682, Note_off_c, 1, 76, 0
1, 271682, Note_off_c, 1, 57, 0
1, 271684, Note_on_c, 1, 53, 127
1, 271684, Note_on_c, 1, 77, 127
1, 271684, Note_on_c, 1, 76, 127
1, 271684, Note_on_c, 1, 81, 127
1, 271846, Note_off_c, 1, 53, 0
1, 271846, Note_off_c, 1, 77, 0
1, 271846, Note_off_c, 1, 76, 0
1, 271846, Note_off_c, 1, 81, 0
1, 271848, Note_on_c, 1, 58, 127
1, 271848, Note_on_c, 1, 81, 127
1, 271848, Note_on_c, 1, 74, 127
1, 271848, Note_on_c, 1, 77, 127
1, 272010, Note_off_c, 1, 58, 0
1, 272013, Note_on_c, 1, 57, 127
1, 272174, Note_off_c, 1, 81, 0
1, 272174, Note_off_c, 1, 74, 0
1, 272175, Note_off_c, 1, 57, 0
1, 272177, Note_on_c, 1, 55, 127
1, 272339, Note_off_c, 1, 55, 0
1, 272341, Note_on_c, 1, 53, 127
1, 272497, Note_off_c, 1, 77, 0
1, 272503, Note_off_c, 1, 53, 0
1, 272505, Note_on_c, 1, 52, 127
1, 272505, Note_on_c, 1, 74, 127
1, 272505, Note_on_c, 1, 79, 127
1, 272667, Note_off_c, 1, 52, 0
1, 272669, Note_on_c, 1, 50, 127
1, 272831, Note_off_c, 1, 50, 0
1, 272833, Note_on_c, 1, 48, 127
1, 272995, Note_off_c, 1, 74, 0
1, 272995, Note_off_c, 1, 79, 0
1, 272995, Note_off_c, 1, 48, 0
1, 272998, Note_on_c, 1, 46, 127
1, 272998, Note_on_c, 1, 79, 127
1, 272998, Note_on_c, 1, 74, 127
1, 273160, Note_off_c, 1, 46, 0
1, 273160, Note_off_c, 1, 79, 0
1, 273160, Note_off_c, 1, 74, 0
1, 273162, Note_on_c, 1, 45, 127
1, 273162, Note_on_c, 1, 79, 127
1, 273162, Note_on_c, 1, 72, 127
1, 273324, Note_off_c, 1, 45, 0
1, 273326, Note_on_c, 1, 46, 127
1, 273488, Note_off_c, 1, 46, 0
1, 273490, Note_on_c, 1, 48, 127
1, 273652, Note_off_c, 1, 79, 0
1, 273652, Note_off_c, 1, 72, 0
1, 273652, Note_off_c, 1, 48, 0
1, 273654, Note_on_c, 1, 52, 127
1, 273654, Note_on_c, 1, 81, 127
1, 273654, Note_on_c, 1, 72, 127
1, 273816, Note_off_c, 1, 52, 0
1, 273816, Note_off_c, 1, 81, 0
1, 273816, Note_off_c, 1, 72, 0
1, 273818, Note_on_c, 1, 77, 127
1, 273818, Note_on_c, 1, 50, 127
1, 273818, Note_on_c, 1, 72, 127
1, 273898, Note_off_c, 1, 77, 0
1, 273900, Note_on_c, 1, 76, 127
1, 273980, Note_off_c, 1, 50, 0
1, 273980, Note_off_c, 1, 76, 0
1, 273983, Note_on_c, 1, 52, 127
1, 274145, Note_off_c, 1, 52, 0
1, 274147, Note_on_c, 1, 53, 127
1, 274308, Note_off_c, 1, 72, 0
1, 274309, Note_off_c, 1, 53, 0
1, 274311, Note_on_c, 1, 57, 127
1, 274311, Note_on_c, 1, 72, 127
1, 274311, Note_on_c, 1, 77, 127
1, 274473, Note_off_c, 1, 57, 0
1, 274473, Note_off_c, 1, 72, 0
1, 274473, Note_off_c, 1, 77, 0
1, 274475, Note_on_c, 1, 55, 127
1, 274475, Note_on_c, 1, 70, 127
1, 274475, Note_on_c, 1, 77, 127
1, 274637, Note_off_c, 1, 55, 0
1, 274639, Note_on_c, 1, 43, 127
1, 274801, Note_off_c, 1, 43, 0
1, 274803, Note_on_c, 1, 45, 127
1, 274965, Note_off_c, 1, 70, 0
1, 274965, Note_off_c, 1, 77, 0
1, 274965, Note_off_c, 1, 45, 0
1, 274968, Note_on_c, 1, 46, 127
1, 274968, Note_on_c, 1, 70, 127
1, 274968, Note_on_c, 1, 79, 127
1, 275130, Note_off_c, 1, 46, 0
1, 275130, Note_off_c, 1, 70, 0
1, 275130, Note_off_c, 1, 79, 0
1, 275132, Note_on_c, 1, 48, 127
1, 275132, Note_on_c, 1, 77, 127
1, 275132, Note_on_c, 1, 70, 127
1, 275294, Note_off_c, 1, 48, 0
1, 275294, Note_off_c, 1, 77, 0
1, 275296, Note_on_c, 1, 76, 127
1, 275296, Note_on_c, 1, 45, 127
1, 275376, Note_off_c, 1, 76, 0
1, 275458, Note_off_c, 1, 45, 0
1, 275460, Note_on_c, 1, 46, 127
1, 275622, Note_off_c, 1, 70, 0
1, 275622, Note_off_c, 1, 46, 0
1, 275624, Note_on_c, 1, 48, 127
1, 275624, Note_on_c, 1, 77, 127
1, 275624, Note_on_c, 1, 70, 127
1, 275786, Note_off_c, 1, 48, 0
1, 275786, Note_off_c, 1, 77, 0
1, 275786, Note_off_c, 1, 70, 0
1, 275788, Note_on_c, 1, 69, 127
1, 275788, Note_on_c, 1, 77, 127
1, 275788, Note_on_c, 1, 38, 127
1, 276114, Note_off_c, 1, 69, 0
1, 276114, Note_off_c, 1, 77, 0
1, 276117, Note_on_c, 1, 62, 127
1, 276279, Note_off_c, 1, 62, 0
1, 276281, Note_on_c, 1, 64, 127
1, 276443, Note_off_c, 1, 64, 0
1, 276445, Note_on_c, 1, 65, 127
1, 276540, Note_off_c, 1, 38, 0
1, 276607, Note_off_c, 1, 65, 0
1, 276609, Note_on_c, 1, 67, 127
1, 276771, Note_off_c, 1, 67, 0
1, 276773, Note_on_c, 1, 69, 127
1, 276773, Note_on_c, 1, 50, 127
1, 276935, Note_off_c, 1, 69, 0
1, 276937, Note_on_c, 1, 65, 127
1, 277099, Note_off_c, 1, 50, 0
1, 277099, Note_off_c, 1, 65, 0
1, 277102, Note_on_c, 1, 55, 127
1, 277102, Note_on_c, 1, 70, 127
1, 277264, Note_off_c, 1, 55, 0
1, 277264, Note_off_c, 1, 70, 0
1, 277266, Note_on_c, 1, 57, 127
1, 277266, Note_on_c, 1, 72, 127
1, 277428, Note_off_c, 1, 57, 0
1, 277428, Note_off_c, 1, 72, 0
1, 277430, Note_on_c, 1, 55, 127
1, 277430, Note_on_c, 1, 70, 127
1, 277592, Note_off_c, 1, 55, 0
1, 277592, Note_off_c, 1, 70, 0
1, 277594, Note_on_c, 1, 53, 127
1, 277594, Note_on_c, 1, 69, 127
1, 277756, Note_off_c, 1, 53, 0
1, 277756, Note_off_c, 1, 69, 0
1, 277758, Note_on_c, 1, 52, 127
1, 277758, Note_on_c, 1, 67, 127
1, 277920, Note_off_c, 1, 52, 0
1, 277920, Note_off_c, 1, 67, 0
1, 277922, Note_on_c, 1, 48, 127
1, 277922, Note_on_c, 1, 72, 127
1, 278084, Note_off_c, 1, 48, 0
1, 278084, Note_off_c, 1, 72, 0
1, 278087, Note_on_c, 1, 50, 127
1, 278087, Note_on_c, 1, 70, 127
1, 278249, Note_off_c, 1, 50, 0
1, 278249, Note_off_c, 1, 70, 0
1, 278251, Note_on_c, 1, 52, 127
1, 278251, Note_on_c, 1, 72, 127
1, 278413, Note_off_c, 1, 52, 0
1, 278413, Note_off_c, 1, 72, 0
1, 278415, Note_on_c, 1, 53, 127
1, 278415, Note_on_c, 1, 69, 127
1, 278579, Note_off_c, 1, 53, 0
1, 278581, Note_on_c, 1, 55, 127
1, 278692, Note_off_c, 1, 69, 0
1, 278745, Note_off_c, 1, 55, 0
1, 278747, Note_on_c, 1, 53, 127
1, 278747, Note_on_c, 1, 60, 127
1, 278911, Note_off_c, 1, 53, 0
1, 278912, Note_on_c, 1, 52, 127
1, 279024, Note_off_c, 1, 60, 0
1, 279076, Note_off_c, 1, 52, 0
1, 279078, Note_on_c, 1, 50, 127
1, 279078, Note_on_c, 1, 62, 127
1, 279166, Note_on_c, 1, 64, 127
1, 279250, Note_off_c, 1, 50, 0
1, 279253, Note_off_c, 1, 64, 0
1, 279253, Note_on_c, 1, 48, 127
1, 279253, Note_on_c, 1, 65, 127
1, 279425, Note_off_c, 1, 48, 0
1, 279427, Note_on_c, 1, 46, 127
1, 279598, Note_off_c, 1, 65, 0
1, 279599, Note_off_c, 1, 62, 0
1, 279599, Note_off_c, 1, 46, 0
1, 279602, Note_on_c, 1, 45, 127
1, 279602, Note_on_c, 1, 65, 127
1, 279602, Note_on_c, 1, 57, 127
1, 279602, Note_on_c, 1, 60, 127
1, 279774, Note_off_c, 1, 45, 0
1, 279774, Note_off_c, 1, 65, 0
1, 279774, Note_off_c, 1, 57, 0
1, 279774, Note_off_c, 1, 60, 0
1, 279776, Note_on_c, 1, 62, 127
1, 279776, Note_on_c, 1, 46, 127
1, 279776, Note_on_c, 1, 65, 127
1, 279776, Note_on_c, 1, 55, 127
1, 279958, Note_off_c, 1, 62, 0
1, 279961, Note_on_c, 1, 60, 127
1, 280143, Note_off_c, 1, 46, 0
1, 280143, Note_off_c, 1, 60, 0
1, 280145, Note_on_c, 1, 58, 127
1, 280145, Note_on_c, 1, 43, 127
1, 280327, Note_off_c, 1, 58, 0
1, 280330, Note_on_c, 1, 57, 127
1, 280507, Note_off_c, 1, 65, 0
1, 280507, Note_off_c, 1, 55, 0
1, 280512, Note_off_c, 1, 43, 0
1, 280512, Note_off_c, 1, 57, 0
1, 280515, Note_on_c, 1, 48, 127
1, 280515, Note_on_c, 1, 64, 127
1, 280515, Note_on_c, 1, 55, 127
1, 280720, Note_on_c, 1, 60, 127
1, 280923, Note_off_c, 1, 48, 0
1, 280923, Note_off_c, 1, 60, 0
1, 280925, Note_on_c, 1, 58, 127
1, 280925, Note_on_c, 1, 36, 127
1, 281113, Note_off_c, 1, 64, 0
1, 281128, Note_off_c, 1, 58, 0
1, 281327, Note_off_c, 1, 55, 0
1, 281333, Note_off_c, 1, 36, 0
1, 281336, Note_on_c, 1, 41, 127
1, 281336, Note_on_c, 1, 57, 127
1, 281336, Note_on_c, 1, 65, 127
1, 283772, Note_off_c, 1, 41, 0
1, 283772, Note_off_c, 1, 57, 0
1, 283772, Note_off_c, 1, 65, 0
1, 284539, Note_on_c, 1, 77, 127
1, 284711, Note_off_c, 1, 77, 0
1, 284714, Note_on_c, 1, 53, 127
1, 284714, Note_on_c, 1, 77, 127
1, 284714, Note_on_c, 1, 69, 127
1, 284714, Note_on_c, 1, 72, 127
1, 285061, Note_off_c, 1, 53, 0
1, 285063, Note_on_c, 1, 41, 127
1, 285148, Note_off_c, 1, 77, 0
1, 285148, Note_off_c, 1, 69, 0
1, 285148, Note_off_c, 1, 72, 0
1, 285237, Note_on_c, 1, 76, 127
1, 285322, Note_off_c, 1, 76, 0
1, 285324, Note_on_c, 1, 74, 127
1, 285409, Note_off_c, 1, 74, 0
1, 285463, Note_off_c, 1, 41, 0
1, 285586, Note_on_c, 1, 74, 127
1, 285586, Note_on_c, 1, 65, 127
1, 285758, Note_off_c, 1, 74, 0
1, 285758, Note_off_c, 1, 65, 0
1, 285760, Note_on_c, 1, 72, 127
1, 285760, Note_on_c, 1, 64, 127
1, 285932, Note_off_c, 1, 72, 0
1, 285932, Note_off_c, 1, 64, 0
1, 285935, Note_on_c, 1, 70, 127
1, 285935, Note_on_c, 1, 62, 127
1, 286107, Note_off_c, 1, 70, 0
1, 286107, Note_off_c, 1, 62, 0
1, 286109, Note_on_c, 1, 69, 127
1, 286109, Note_on_c, 1, 60, 127
1, 286216, Note_off_c, 1, 69, 0
1, 286225, Note_on_c, 1, 70, 127
1, 286332, Note_off_c, 1, 70, 0
1, 286342, Note_on_c, 1, 72, 127
1, 286449, Note_off_c, 1, 72, 0
1, 286456, Note_off_c, 1, 60, 0
1, 286458, Note_on_c, 1, 69, 127
1, 286458, Note_on_c, 1, 65, 127
1, 286565, Note_off_c, 1, 69, 0
1, 286574, Note_on_c, 1, 70, 127
1, 286681, Note_off_c, 1, 70, 0
1, 286690, Note_on_c, 1, 72, 127
1, 286797, Note_off_c, 1, 72, 0
1, 286805, Note_off_c, 1, 65, 0
1, 286807, Note_on_c, 1, 65, 127
1, 286807, Note_on_c, 1, 57, 127
1, 286914, Note_off_c, 1, 65, 0
1, 286923, Note_on_c, 1, 67, 127
1, 287030, Note_off_c, 1, 67, 0
1, 287039, Note_on_c, 1, 69, 127
1, 287146, Note_off_c, 1, 69, 0
1, 287154, Note_off_c, 1, 57, 0
1, 287156, Note_on_c, 1, 65, 127
1, 287156, Note_on_c, 1, 60, 127
1, 287263, Note_off_c, 1, 65, 0
1, 287272, Note_on_c, 1, 67, 127
1, 287379, Note_off_c, 1, 67, 0
1, 287388, Note_on_c, 1, 69, 127
1, 287495, Note_off_c, 1, 69, 0
1, 287503, Note_off_c, 1, 60, 0
1, 287504, Note_on_c, 1, 53, 127
1, 287504, Note_on_c, 1, 60, 127
1, 287611, Note_off_c, 1, 53, 0
1, 287621, Note_on_c, 1, 55, 127
1, 287728, Note_off_c, 1, 55, 0
1, 287737, Note_on_c, 1, 57, 127
1, 287844, Note_off_c, 1, 57, 0
1, 287851, Note_off_c, 1, 60, 0
1, 287853, Note_on_c, 1, 53, 127
1, 287853, Note_on_c, 1, 65, 127
1, 287960, Note_off_c, 1, 53, 0
1, 287970, Note_on_c, 1, 55, 127
1, 288077, Note_off_c, 1, 55, 0
1, 288086, Note_on_c, 1, 57, 127
1, 288193, Note_off_c, 1, 57, 0
1, 288200, Note_off_c, 1, 65, 0
1, 288202, Note_on_c, 1, 67, 127
1, 288202, Note_on_c, 1, 50, 127
1, 288287, Note_off_c, 1, 67, 0
1, 288289, Note_on_c, 1, 65, 127
1, 288309, Note_off_c, 1, 50, 0
1, 288318, Note_on_c, 1, 52, 127
1, 288374, Note_off_c, 1, 65, 0
1, 288425, Note_off_c, 1, 52, 0
1, 288435, Note_on_c, 1, 53, 127
1, 288542, Note_off_c, 1, 53, 0
1, 288551, Note_on_c, 1, 67, 127
1, 288551, Note_on_c, 1, 50, 127
1, 288636, Note_off_c, 1, 67, 0
1, 288638, Note_on_c, 1, 65, 127
1, 288658, Note_off_c, 1, 50, 0
1, 288667, Note_on_c, 1, 52, 127
1, 288723, Note_off_c, 1, 65, 0
1, 288725, Note_on_c, 1, 64, 127
1, 288774, Note_off_c, 1, 52, 0
1, 288783, Note_on_c, 1, 53, 127
1, 288810, Note_off_c, 1, 64, 0
1, 288890, Note_off_c, 1, 53, 0
1, 288900, Note_on_c, 1, 46, 127
1, 288900, Note_on_c, 1, 67, 127
1, 289007, Note_off_c, 1, 46, 0
1, 289016, Note_on_c, 1, 48, 127
1, 289123, Note_off_c, 1, 48, 0
1, 289132, Note_on_c, 1, 50, 127
1, 289239, Note_off_c, 1, 50, 0
1, 289247, Note_off_c, 1, 67, 0
1, 289249, Note_on_c, 1, 46, 127
1, 289249, Note_on_c, 1, 67, 127
1, 289249, Note_on_c, 1, 65, 127
1, 289356, Note_off_c, 1, 46, 0
1, 289365, Note_on_c, 1, 48, 127
1, 289472, Note_off_c, 1, 48, 0
1, 289481, Note_on_c, 1, 50, 127
1, 289588, Note_off_c, 1, 50, 0
1, 289596, Note_off_c, 1, 67, 0
1, 289596, Note_off_c, 1, 65, 0
1, 289597, Note_on_c, 1, 69, 127
1, 289597, Note_on_c, 1, 43, 127
1, 289597, Note_on_c, 1, 64, 127
1, 289682, Note_off_c, 1, 69, 0
1, 289685, Note_on_c, 1, 67, 127
1, 289769, Note_off_c, 1, 43, 0
1, 289770, Note_off_c, 1, 67, 0
1, 289772, Note_on_c, 1, 48, 127
1, 289944, Note_off_c, 1, 48, 0
1, 289946, Note_on_c, 1, 46, 127
1, 290118, Note_off_c, 1, 46, 0
1, 290121, Note_on_c, 1, 65, 127
1, 290206, Note_off_c, 1, 65, 0
1, 290287, Note_off_c, 1, 64, 0
1, 290295, Note_on_c, 1, 69, 127
1, 290295, Note_on_c, 1, 41, 127
1, 290295, Note_on_c, 1, 65, 127
1, 290467, Note_off_c, 1, 69, 0
1, 290470, Note_on_c, 1, 72, 127
1, 290642, Note_off_c, 1, 41, 0
1, 290642, Note_off_c, 1, 72, 0
1, 290644, Note_on_c, 1, 74, 127
1, 290644, Note_on_c, 1, 53, 127
1, 290816, Note_off_c, 1, 74, 0
1, 290818, Note_on_c, 1, 76, 127
1, 290985, Note_off_c, 1, 65, 0
1, 290990, Note_off_c, 1, 76, 0
1, 290991, Note_off_c, 1, 53, 0
1, 290993, Note_on_c, 1, 55, 127
1, 290993, Note_on_c, 1, 77, 127
1, 291078, Note_off_c, 1, 55, 0
1, 291080, Note_on_c, 1, 53, 127
1, 291165, Note_off_c, 1, 53, 0
1, 291167, Note_on_c, 1, 72, 127
1, 291339, Note_off_c, 1, 72, 0
1, 291342, Note_on_c, 1, 70, 127
1, 291514, Note_off_c, 1, 70, 0
1, 291516, Note_on_c, 1, 52, 127
1, 291516, Note_on_c, 1, 69, 127
1, 291601, Note_off_c, 1, 52, 0
1, 291688, Note_off_c, 1, 69, 0
1, 292037, Note_off_c, 1, 77, 0
1, 292039, Note_on_c, 1, 76, 127
1, 292211, Note_off_c, 1, 76, 0
1, 292388, Note_on_c, 1, 57, 127
1, 292388, Note_on_c, 1, 79, 127
1, 292473, Note_off_c, 1, 57, 0
1, 292560, Note_off_c, 1, 79, 0
1, 293609, Note_on_c, 1, 67, 127
1, 293781, Note_off_c, 1, 67, 0
1, 293958, Note_on_c, 1, 65, 127
1, 294130, Note_off_c, 1, 65, 0
1, 294481, Note_on_c, 1, 62, 127
1, 294481, Note_on_c, 1, 58, 127
1, 295171, Note_off_c, 1, 62, 0
1, 295171, Note_off_c, 1, 58, 0
1, 295179, Note_on_c, 1, 70, 127
1, 295351, Note_off_c, 1, 70, 0
1, 295353, Note_on_c, 1, 67, 127
1, 295525, Note_off_c, 1, 67, 0
1, 295528, Note_on_c, 1, 69, 127
1, 295528, Note_on_c, 1, 62, 127
1, 295528, Note_on_c, 1, 58, 127
1, 295700, Note_off_c, 1, 69, 0
1, 295702, Note_on_c, 1, 70, 127
1, 295873, Note_off_c, 1, 62, 0
1, 295874, Note_off_c, 1, 70, 0
1, 295875, Note_off_c, 1, 58, 0
1, 295877, Note_on_c, 1, 64, 127
1, 295877, Note_on_c, 1, 60, 127
1, 295877, Note_on_c, 1, 58, 127
1, 296049, Note_off_c, 1, 64, 0
1, 296051, Note_on_c, 1, 67, 127
1, 296223, Note_off_c, 1, 67, 0
1, 296225, Note_on_c, 1, 69, 127
1, 296397, Note_off_c, 1, 69, 0
1, 296400, Note_on_c, 1, 70, 127
1, 296567, Note_off_c, 1, 60, 0
1, 296572, Note_off_c, 1, 70, 0
1, 296574, Note_on_c, 1, 72, 127
1, 296923, Note_on_c, 1, 62, 127
1, 297095, Note_off_c, 1, 62, 0
1, 297270, Note_off_c, 1, 58, 0
1, 297272, Note_on_c, 1, 57, 127
1, 297272, Note_on_c, 1, 65, 127
1, 297446, Note_off_c, 1, 72, 0
1, 297619, Note_off_c, 1, 57, 0
1, 297795, Note_on_c, 1, 74, 127
1, 297967, Note_off_c, 1, 74, 0
1, 297970, Note_on_c, 1, 55, 127
1, 298316, Note_off_c, 1, 65, 0
1, 298317, Note_off_c, 1, 55, 0
1, 298318, Note_on_c, 1, 72, 127
1, 298318, Note_on_c, 1, 64, 127
1, 298318, Note_on_c, 1, 60, 127
1, 298403, Note_off_c, 1, 72, 0
1, 298406, Note_on_c, 1, 70, 127
1, 298491, Note_off_c, 1, 70, 0
1, 298493, Note_on_c, 1, 69, 127
1, 298578, Note_off_c, 1, 69, 0
1, 298663, Note_off_c, 1, 64, 0
1, 298665, Note_off_c, 1, 60, 0
1, 298667, Note_on_c, 1, 69, 127
1, 298667, Note_on_c, 1, 53, 127
1, 298667, Note_on_c, 1, 65, 127
1, 298839, Note_off_c, 1, 69, 0
1, 298842, Note_on_c, 1, 72, 127
1, 299014, Note_off_c, 1, 53, 0
1, 299014, Note_off_c, 1, 72, 0
1, 299016, Note_on_c, 1, 74, 127
1, 299016, Note_on_c, 1, 52, 127
1, 299188, Note_off_c, 1, 74, 0
1, 299191, Note_on_c, 1, 76, 127
1, 299357, Note_off_c, 1, 65, 0
1, 299363, Note_off_c, 1, 52, 0
1, 299363, Note_off_c, 1, 76, 0
1, 299365, Note_on_c, 1, 50, 127
1, 299365, Note_on_c, 1, 77, 127
1, 299539, Note_on_c, 1, 69, 127
1, 299711, Note_off_c, 1, 69, 0
1, 299712, Note_off_c, 1, 50, 0
1, 299714, Note_on_c, 1, 71, 127
1, 299714, Note_on_c, 1, 48, 127
1, 299886, Note_off_c, 1, 71, 0
1, 299888, Note_on_c, 1, 72, 127
1, 300060, Note_off_c, 1, 72, 0
1, 300061, Note_off_c, 1, 48, 0
1, 300063, Note_on_c, 1, 47, 127
1, 300063, Note_on_c, 1, 74, 127
1, 300235, Note_off_c, 1, 47, 0
1, 300409, Note_off_c, 1, 77, 0
1, 300410, Note_off_c, 1, 74, 0
1, 300411, Note_on_c, 1, 52, 127
1, 300411, Note_on_c, 1, 72, 127
1, 300411, Note_on_c, 1, 76, 127
1, 300583, Note_off_c, 1, 52, 0
1, 300586, Note_on_c, 1, 53, 127
1, 300758, Note_off_c, 1, 72, 0
1, 300758, Note_off_c, 1, 76, 0
1, 300758, Note_off_c, 1, 53, 0
1, 300760, Note_on_c, 1, 74, 127
1, 300760, Note_on_c, 1, 55, 127
1, 300760, Note_on_c, 1, 71, 127
1, 300932, Note_off_c, 1, 74, 0
1, 300935, Note_on_c, 1, 79, 127
1, 301107, Note_off_c, 1, 55, 0
1, 301107, Note_off_c, 1, 79, 0
1, 301109, Note_on_c, 1, 77, 127
1, 301109, Note_on_c, 1, 43, 127
1, 301281, Note_off_c, 1, 77, 0
1, 301450, Note_off_c, 1, 71, 0
1, 301456, Note_off_c, 1, 43, 0
1, 301458, Note_on_c, 1, 48, 127
1, 301458, Note_on_c, 1, 72, 127
1, 301458, Note_on_c, 1, 76, 127
1, 301565, Note_off_c, 1, 48, 0
1, 301574, Note_on_c, 1, 50, 127
1, 301681, Note_off_c, 1, 50, 0
1, 301688, Note_off_c, 1, 72, 0
1, 301689, Note_on_c, 1, 67, 127
1, 301691, Note_on_c, 1, 52, 127
1, 301798, Note_off_c, 1, 52, 0
1, 301803, Note_off_c, 1, 67, 0
1, 301807, Note_on_c, 1, 69, 127
1, 302037, Note_off_c, 1, 69, 0
1, 302038, Note_on_c, 1, 71, 127
1, 302152, Note_off_c, 1, 71, 0
1, 302156, Note_on_c, 1, 45, 127
1, 302263, Note_off_c, 1, 45, 0
1, 302272, Note_on_c, 1, 47, 127
1, 302330, Note_off_c, 1, 76, 0
1, 302379, Note_off_c, 1, 47, 0
1, 302505, Note_on_c, 1, 77, 127
1, 302735, Note_off_c, 1, 77, 0
1, 302735, Note_on_c, 1, 79, 127
1, 302849, Note_off_c, 1, 79, 0
1, 302853, Note_on_c, 1, 81, 127
1, 302853, Note_on_c, 1, 41, 127
1, 302960, Note_off_c, 1, 81, 0
1, 302970, Note_on_c, 1, 83, 127
1, 303077, Note_off_c, 1, 83, 0
1, 303086, Note_on_c, 1, 84, 127
1, 303193, Note_off_c, 1, 84, 0
1, 303200, Note_off_c, 1, 41, 0
1, 303202, Note_on_c, 1, 57, 127
1, 303549, Note_off_c, 1, 57, 0
1, 303900, Note_on_c, 1, 53, 127
1, 304247, Note_off_c, 1, 53, 0
1, 304249, Note_on_c, 1, 47, 127
1, 304249, Note_on_c, 1, 74, 127
1, 304356, Note_off_c, 1, 47, 0
1, 304365, Note_on_c, 1, 48, 127
1, 304472, Note_off_c, 1, 48, 0
1, 304480, Note_on_c, 1, 72, 127
1, 304481, Note_on_c, 1, 50, 127
1, 304588, Note_off_c, 1, 50, 0
1, 304594, Note_off_c, 1, 72, 0
1, 304598, Note_on_c, 1, 71, 127
1, 304828, Note_off_c, 1, 71, 0
1, 304828, Note_on_c, 1, 69, 127
1, 304942, Note_off_c, 1, 69, 0
1, 304946, Note_on_c, 1, 43, 127
1, 305053, Note_off_c, 1, 43, 0
1, 305063, Note_on_c, 1, 45, 127
1, 305121, Note_off_c, 1, 74, 0
1, 305170, Note_off_c, 1, 45, 0
1, 305295, Note_on_c, 1, 76, 127
1, 305525, Note_off_c, 1, 76, 0
1, 305526, Note_on_c, 1, 77, 127
1, 305640, Note_off_c, 1, 77, 0
1, 305644, Note_on_c, 1, 79, 127
1, 305644, Note_on_c, 1, 40, 127
1, 305751, Note_off_c, 1, 79, 0
1, 305760, Note_on_c, 1, 81, 127
1, 305867, Note_off_c, 1, 81, 0
1, 305877, Note_on_c, 1, 83, 127
1, 305984, Note_off_c, 1, 83, 0
1, 305991, Note_off_c, 1, 40, 0
1, 305993, Note_on_c, 1, 55, 127
1, 306340, Note_off_c, 1, 55, 0
1, 306691, Note_on_c, 1, 52, 127
1, 307038, Note_off_c, 1, 52, 0
1, 307039, Note_on_c, 1, 45, 127
1, 307039, Note_on_c, 1, 72, 127
1, 307146, Note_off_c, 1, 45, 0
1, 307156, Note_on_c, 1, 47, 127
1, 307263, Note_off_c, 1, 47, 0
1, 307270, Note_on_c, 1, 71, 127
1, 307272, Note_on_c, 1, 48, 127
1, 307379, Note_off_c, 1, 48, 0
1, 307384, Note_off_c, 1, 71, 0
1, 307388, Note_on_c, 1, 69, 127
1, 307618, Note_off_c, 1, 69, 0
1, 307619, Note_on_c, 1, 67, 127
1, 307733, Note_off_c, 1, 67, 0
1, 307737, Note_on_c, 1, 42, 127
1, 307844, Note_off_c, 1, 42, 0
1, 307853, Note_on_c, 1, 43, 127
1, 307911, Note_off_c, 1, 72, 0
1, 307960, Note_off_c, 1, 43, 0
1, 307968, Note_on_c, 1, 75, 127
1, 308082, Note_off_c, 1, 75, 0
1, 308086, Note_on_c, 1, 74, 127
1, 308316, Note_off_c, 1, 74, 0
1, 308435, Note_on_c, 1, 78, 127
1, 308435, Note_on_c, 1, 38, 127
1, 308542, Note_off_c, 1, 78, 0
1, 308551, Note_on_c, 1, 79, 127
1, 308658, Note_off_c, 1, 79, 0
1, 308667, Note_on_c, 1, 81, 127
1, 308774, Note_off_c, 1, 81, 0
1, 308782, Note_off_c, 1, 38, 0
1, 309830, Note_on_c, 1, 71, 127
1, 309830, Note_on_c, 1, 67, 127
1, 309830, Note_on_c, 1, 43, 127
1, 309937, Note_off_c, 1, 71, 0
1, 309946, Note_on_c, 1, 72, 127
1, 310053, Note_off_c, 1, 72, 0
1, 310063, Note_on_c, 1, 74, 127
1, 310170, Note_off_c, 1, 74, 0
1, 310520, Note_off_c, 1, 67, 0
1, 310644, Note_on_c, 1, 69, 127
1, 310702, Note_off_c, 1, 43, 0
1, 310751, Note_off_c, 1, 69, 0
1, 310760, Note_on_c, 1, 71, 127
1, 310877, Note_on_c, 1, 65, 127
1, 310877, Note_on_c, 1, 55, 127
1, 310984, Note_off_c, 1, 65, 0
1, 310993, Note_on_c, 1, 67, 127
1, 311100, Note_off_c, 1, 67, 0
1, 311109, Note_on_c, 1, 68, 127
1, 311216, Note_off_c, 1, 68, 0
1, 311223, Note_off_c, 1, 71, 0
1, 311224, Note_off_c, 1, 55, 0
1, 311226, Note_on_c, 1, 56, 127
1, 311226, Note_on_c, 1, 72, 127
1, 311226, Note_on_c, 1, 63, 127
1, 311398, Note_off_c, 1, 56, 0
1, 311400, Note_on_c, 1, 55, 127
1, 311572, Note_off_c, 1, 55, 0
1, 311573, Note_off_c, 1, 72, 0
1, 311573, Note_off_c, 1, 63, 0
1, 311574, Note_on_c, 1, 54, 127
1, 311574, Note_on_c, 1, 75, 127
1, 311746, Note_off_c, 1, 54, 0
1, 311749, Note_on_c, 1, 55, 127
1, 311921, Note_off_c, 1, 55, 0
1, 311923, Note_on_c, 1, 48, 127
1, 311923, Note_on_c, 1, 68, 127
1, 312095, Note_off_c, 1, 48, 0
1, 312264, Note_off_c, 1, 75, 0
1, 312272, Note_on_c, 1, 72, 127
1, 312613, Note_off_c, 1, 68, 0
1, 312621, Note_on_c, 1, 57, 127
1, 312621, Note_on_c, 1, 66, 127
1, 312793, Note_off_c, 1, 57, 0
1, 312962, Note_off_c, 1, 72, 0
1, 312970, Note_on_c, 1, 69, 127
1, 313311, Note_off_c, 1, 66, 0
1, 313319, Note_on_c, 1, 62, 127
1, 313493, Note_on_c, 1, 51, 127
1, 313660, Note_off_c, 1, 69, 0
1, 313665, Note_off_c, 1, 51, 0
1, 313667, Note_on_c, 1, 50, 127
1, 313839, Note_off_c, 1, 50, 0
1, 314009, Note_off_c, 1, 62, 0
1, 314016, Note_on_c, 1, 59, 127
1, 314016, Note_on_c, 1, 53, 127
1, 314191, Note_on_c, 1, 62, 127
1, 314363, Note_off_c, 1, 62, 0
1, 314365, Note_on_c, 1, 67, 127
1, 314523, Note_off_c, 1, 59, 0
1, 314708, Note_off_c, 1, 67, 0
1, 314712, Note_on_c, 1, 60, 127
1, 314884, Note_off_c, 1, 53, 0
1, 314884, Note_off_c, 1, 60, 0
1, 314887, Note_on_c, 1, 69, 127
1, 314887, Note_on_c, 1, 53, 127
1, 315059, Note_off_c, 1, 69, 0
1, 315059, Note_off_c, 1, 53, 0
1, 315061, Note_on_c, 1, 62, 127
1, 315061, Note_on_c, 1, 52, 127
1, 315233, Note_off_c, 1, 62, 0
1, 315233, Note_off_c, 1, 52, 0
1, 315235, Note_on_c, 1, 71, 127
1, 315235, Note_on_c, 1, 50, 127
1, 315407, Note_off_c, 1, 71, 0
1, 315407, Note_off_c, 1, 50, 0
1, 315410, Note_on_c, 1, 48, 127
1, 315410, Note_on_c, 1, 64, 127
1, 315582, Note_off_c, 1, 48, 0
1, 315584, Note_on_c, 1, 67, 127
1, 315584, Note_on_c, 1, 52, 127
1, 315756, Note_off_c, 1, 67, 0
1, 315756, Note_off_c, 1, 52, 0
1, 315759, Note_on_c, 1, 57, 127
1, 315759, Note_on_c, 1, 72, 127
1, 315917, Note_off_c, 1, 64, 0
1, 315930, Note_off_c, 1, 57, 0
1, 315931, Note_on_c, 1, 53, 127
1, 316103, Note_off_c, 1, 53, 0
1, 316106, Note_on_c, 1, 62, 127
1, 316106, Note_on_c, 1, 55, 127
1, 316265, Note_off_c, 1, 72, 0
1, 316449, Note_off_c, 1, 62, 0
1, 316451, Note_off_c, 1, 55, 0
1, 316453, Note_on_c, 1, 65, 127
1, 316453, Note_on_c, 1, 43, 127
1, 316627, Note_on_c, 1, 71, 127
1, 316798, Note_off_c, 1, 65, 0
1, 316799, Note_off_c, 1, 71, 0
1, 316800, Note_off_c, 1, 43, 0
1, 316802, Note_on_c, 1, 48, 127
1, 316802, Note_on_c, 1, 64, 127
1, 316802, Note_on_c, 1, 67, 127
1, 316802, Note_on_c, 1, 72, 127
1, 316976, Note_on_c, 1, 36, 127
1, 317151, Note_on_c, 1, 40, 127
1, 317323, Note_off_c, 1, 40, 0
1, 317325, Note_on_c, 1, 43, 127
1, 317492, Note_off_c, 1, 48, 0
1, 317497, Note_off_c, 1, 43, 0
1, 317848, Note_off_c, 1, 36, 0
1, 318021, Note_off_c, 1, 64, 0
1, 318021, Note_off_c, 1, 67, 0
1, 318021, Note_off_c, 1, 72, 0
1, 318023, Note_on_c, 1, 79, 127
1, 318195, Note_off_c, 1, 79, 0
1, 318197, Note_on_c, 1, 48, 127
1, 318197, Note_on_c, 1, 72, 127
1, 318197, Note_on_c, 1, 76, 127
1, 318197, Note_on_c, 1, 79, 127
1, 318629, Note_off_c, 1, 48, 0
1, 318632, Note_on_c, 1, 43, 127
1, 318717, Note_off_c, 1, 43, 0
1, 318719, Note_on_c, 1, 45, 127
1, 318804, Note_off_c, 1, 45, 0
1, 318806, Note_on_c, 1, 47, 127
1, 318886, Note_off_c, 1, 72, 0
1, 318886, Note_off_c, 1, 76, 0
1, 318891, Note_off_c, 1, 47, 0
1, 319065, Note_off_c, 1, 79, 0
1, 319068, Note_on_c, 1, 67, 127
1, 319068, Note_on_c, 1, 47, 127
1, 319240, Note_off_c, 1, 67, 0
1, 319240, Note_off_c, 1, 47, 0
1, 319242, Note_on_c, 1, 69, 127
1, 319242, Note_on_c, 1, 48, 127
1, 319414, Note_off_c, 1, 69, 0
1, 319414, Note_off_c, 1, 48, 0
1, 319416, Note_on_c, 1, 71, 127
1, 319416, Note_on_c, 1, 50, 127
1, 319588, Note_off_c, 1, 71, 0
1, 319588, Note_off_c, 1, 50, 0
1, 319591, Note_on_c, 1, 52, 127
1, 319591, Note_on_c, 1, 72, 127
1, 319698, Note_off_c, 1, 52, 0
1, 319707, Note_on_c, 1, 50, 127
1, 319814, Note_off_c, 1, 50, 0
1, 319823, Note_on_c, 1, 48, 127
1, 319930, Note_off_c, 1, 48, 0
1, 319938, Note_off_c, 1, 72, 0
1, 319940, Note_on_c, 1, 52, 127
1, 319940, Note_on_c, 1, 67, 127
1, 320047, Note_off_c, 1, 52, 0
1, 320056, Note_on_c, 1, 50, 127
1, 320163, Note_off_c, 1, 50, 0
1, 320172, Note_on_c, 1, 48, 127
1, 320279, Note_off_c, 1, 48, 0
1, 320287, Note_off_c, 1, 67, 0
1, 320289, Note_on_c, 1, 55, 127
1, 320289, Note_on_c, 1, 76, 127
1, 320396, Note_off_c, 1, 55, 0
1, 320405, Note_on_c, 1, 53, 127
1, 320512, Note_off_c, 1, 53, 0
1, 320521, Note_on_c, 1, 52, 127
1, 320628, Note_off_c, 1, 52, 0
1, 320636, Note_off_c, 1, 76, 0
1, 320637, Note_on_c, 1, 55, 127
1, 320637, Note_on_c, 1, 72, 127
1, 320744, Note_off_c, 1, 55, 0
1, 320754, Note_on_c, 1, 53, 127
1, 320861, Note_off_c, 1, 53, 0
1, 320870, Note_on_c, 1, 52, 127
1, 320977, Note_off_c, 1, 52, 0
1, 320984, Note_off_c, 1, 72, 0
1, 320986, Note_on_c, 1, 79, 127
1, 320986, Note_on_c, 1, 60, 127
1, 321093, Note_off_c, 1, 79, 0
1, 321102, Note_on_c, 1, 77, 127
1, 321209, Note_off_c, 1, 77, 0
1, 321219, Note_on_c, 1, 76, 127
1, 321326, Note_off_c, 1, 76, 0
1, 321333, Note_off_c, 1, 60, 0
1, 321335, Note_on_c, 1, 79, 127
1, 321335, Note_on_c, 1, 55, 127
1, 321442, Note_off_c, 1, 79, 0
1, 321451, Note_on_c, 1, 77, 127
1, 321558, Note_off_c, 1, 77, 0
1, 321568, Note_on_c, 1, 76, 127
1, 321675, Note_off_c, 1, 76, 0
1, 321682, Note_off_c, 1, 55, 0
1, 321684, Note_on_c, 1, 84, 127
1, 321684, Note_on_c, 1, 55, 127
1, 321856, Note_off_c, 1, 84, 0
1, 321858, Note_on_c, 1, 79, 127
1, 322030, Note_off_c, 1, 79, 0
1, 322118, Note_off_c, 1, 55, 0
1, 322120, Note_on_c, 1, 77, 127
1, 322120, Note_on_c, 1, 59, 127
1, 322205, Note_off_c, 1, 77, 0
1, 322205, Note_off_c, 1, 59, 0
1, 322207, Note_on_c, 1, 57, 127
1, 322207, Note_on_c, 1, 76, 127
1, 322292, Note_off_c, 1, 57, 0
1, 322294, Note_on_c, 1, 55, 127
1, 322379, Note_off_c, 1, 76, 0
1, 322379, Note_off_c, 1, 55, 0
1, 322382, Note_on_c, 1, 81, 127
1, 322382, Note_on_c, 1, 53, 127
1, 322489, Note_off_c, 1, 81, 0
1, 322498, Note_on_c, 1, 79, 127
1, 322605, Note_off_c, 1, 79, 0
1, 322614, Note_on_c, 1, 77, 127
1, 322721, Note_off_c, 1, 77, 0
1, 322729, Note_off_c, 1, 53, 0
1, 322730, Note_on_c, 1, 77, 127
1, 322730, Note_on_c, 1, 53, 127
1, 322837, Note_off_c, 1, 77, 0
1, 322847, Note_on_c, 1, 76, 127
1, 322954, Note_off_c, 1, 76, 0
1, 322963, Note_on_c, 1, 74, 127
1, 323070, Note_off_c, 1, 74, 0
1, 323077, Note_off_c, 1, 53, 0
1, 323079, Note_on_c, 1, 83, 127
1, 323079, Note_on_c, 1, 53, 127
1, 323251, Note_off_c, 1, 83, 0
1, 323254, Note_on_c, 1, 77, 127
1, 323426, Note_off_c, 1, 77, 0
1, 323513, Note_off_c, 1, 53, 0
1, 323515, Note_on_c, 1, 76, 127
1, 323515, Note_on_c, 1, 57, 127
1, 323600, Note_off_c, 1, 76, 0
1, 323600, Note_off_c, 1, 57, 0
1, 323602, Note_on_c, 1, 55, 127
1, 323602, Note_on_c, 1, 74, 127
1, 323687, Note_off_c, 1, 55, 0
1, 323690, Note_on_c, 1, 53, 127
1, 323774, Note_off_c, 1, 74, 0
1, 323775, Note_off_c, 1, 53, 0
1, 323777, Note_on_c, 1, 72, 127
1, 323777, Note_on_c, 1, 52, 127
1, 323951, Note_on_c, 1, 55, 127
1, 324123, Note_off_c, 1, 55, 0
1, 324124, Note_off_c, 1, 72, 0
1, 324126, Note_on_c, 1, 57, 127
1, 324126, Note_on_c, 1, 79, 127
1, 324298, Note_off_c, 1, 57, 0
1, 324300, Note_on_c, 1, 59, 127
1, 324467, Note_off_c, 1, 52, 0
1, 324472, Note_off_c, 1, 59, 0
1, 324473, Note_off_c, 1, 79, 0
1, 324475, Note_on_c, 1, 81, 127
1, 324475, Note_on_c, 1, 60, 127
1, 324555, Note_on_c, 1, 79, 127
1, 324560, Note_off_c, 1, 81, 0
1, 324638, Note_off_c, 1, 79, 0
1, 324647, Note_on_c, 1, 55, 127
1, 324818, Note_off_c, 1, 55, 0
1, 324820, Note_on_c, 1, 53, 127
1, 324907, Note_on_c, 1, 82, 127
1, 324992, Note_off_c, 1, 53, 0
1, 324992, Note_off_c, 1, 82, 0
1, 324994, Note_on_c, 1, 52, 127
1, 325166, Note_off_c, 1, 52, 0
1, 325169, Note_on_c, 1, 77, 127
1, 325169, Note_on_c, 1, 50, 127
1, 325515, Note_off_c, 1, 60, 0
1, 325516, Note_off_c, 1, 77, 0
1, 325518, Note_on_c, 1, 59, 127
1, 325690, Note_off_c, 1, 59, 0
1, 325692, Note_on_c, 1, 57, 127
1, 325859, Note_off_c, 1, 50, 0
1, 325864, Note_off_c, 1, 57, 0
1, 325867, Note_on_c, 1, 79, 127
1, 325867, Note_on_c, 1, 59, 127
1, 325947, Note_on_c, 1, 77, 127
1, 325952, Note_off_c, 1, 79, 0
1, 326030, Note_off_c, 1, 77, 0
1, 326039, Note_on_c, 1, 55, 127
1, 326210, Note_off_c, 1, 55, 0
1, 326212, Note_on_c, 1, 53, 127
1, 326299, Note_on_c, 1, 81, 127
1, 326384, Note_off_c, 1, 53, 0
1, 326384, Note_off_c, 1, 81, 0
1, 326554, Note_off_c, 1, 59, 0
1, 326561, Note_on_c, 1, 76, 127
1, 326561, Note_on_c, 1, 48, 127
1, 326733, Note_off_c, 1, 76, 0
1, 326735, Note_on_c, 1, 74, 127
1, 326907, Note_off_c, 1, 74, 0
1, 326910, Note_on_c, 1, 55, 127
1, 327084, Note_on_c, 1, 77, 127
1, 327251, Note_off_c, 1, 48, 0
1, 327256, Note_off_c, 1, 77, 0
1, 327257, Note_off_c, 1, 55, 0
1, 327258, Note_on_c, 1, 60, 127
1, 327258, Note_on_c, 1, 76, 127
1, 327343, Note_off_c, 1, 60, 0
1, 327346, Note_on_c, 1, 59, 127
1, 327430, Note_off_c, 1, 76, 0
1, 327431, Note_off_c, 1, 59, 0
1, 327433, Note_on_c, 1, 60, 127
1, 327433, Note_on_c, 1, 79, 127
1, 327518, Note_off_c, 1, 60, 0
1, 327520, Note_on_c, 1, 59, 127
1, 327605, Note_off_c, 1, 79, 0
1, 327605, Note_off_c, 1, 59, 0
1, 327607, Note_on_c, 1, 78, 127
1, 327607, Note_on_c, 1, 60, 127
1, 327779, Note_off_c, 1, 78, 0
1, 327782, Note_on_c, 1, 76, 127
1, 327954, Note_off_c, 1, 76, 0
1, 328114, Note_off_c, 1, 60, 0
1, 328129, Note_on_c, 1, 57, 127
1, 328301, Note_off_c, 1, 57, 0
1, 328303, Note_on_c, 1, 59, 127
1, 328303, Note_on_c, 1, 74, 127
1, 328475, Note_off_c, 1, 59, 0
1, 328478, Note_on_c, 1, 60, 127
1, 328650, Note_off_c, 1, 74, 0
1, 328650, Note_off_c, 1, 60, 0
1, 328652, Note_on_c, 1, 79, 127
1, 328652, Note_on_c, 1, 59, 127
1, 328731, Note_on_c, 1, 78, 127
1, 328737, Note_off_c, 1, 79, 0
1, 328814, Note_off_c, 1, 78, 0
1, 328823, Note_off_c, 1, 59, 0
1, 328825, Note_on_c, 1, 62, 127
1, 328996, Note_off_c, 1, 62, 0
1, 328998, Note_on_c, 1, 61, 127
1, 329170, Note_off_c, 1, 61, 0
1, 329519, Note_on_c, 1, 76, 127
1, 329519, Note_on_c, 1, 67, 127
1, 329691, Note_off_c, 1, 76, 0
1, 329691, Note_off_c, 1, 67, 0
1, 329694, Note_on_c, 1, 77, 127
1, 329694, Note_on_c, 1, 69, 127
1, 329866, Note_off_c, 1, 77, 0
1, 329866, Note_off_c, 1, 69, 0
1, 329868, Note_on_c, 1, 70, 127
1, 330040, Note_off_c, 1, 70, 0
1, 330042, Note_on_c, 1, 77, 127
1, 330042, Note_on_c, 1, 69, 127
1, 330042, Note_on_c, 1, 62, 127
1, 330214, Note_off_c, 1, 77, 0
1, 330214, Note_off_c, 1, 69, 0
1, 330217, Note_on_c, 1, 72, 127
1, 330217, Note_on_c, 1, 81, 127
1, 330389, Note_off_c, 1, 72, 0
1, 330389, Note_off_c, 1, 81, 0
1, 330391, Note_on_c, 1, 79, 127
1, 330391, Note_on_c, 1, 70, 127
1, 330563, Note_off_c, 1, 79, 0
1, 330563, Note_off_c, 1, 70, 0
1, 330740, Note_on_c, 1, 67, 127
1, 330740, Note_on_c, 1, 76, 127
1, 330912, Note_off_c, 1, 67, 0
1, 330912, Note_off_c, 1, 76, 0
1, 330914, Note_on_c, 1, 74, 127
1, 330914, Note_on_c, 1, 65, 127
1, 331086, Note_off_c, 1, 74, 0
1, 331086, Note_off_c, 1, 65, 0
1, 331435, Note_off_c, 1, 62, 0
1, 331438, Note_on_c, 1, 76, 127
1, 331438, Note_on_c, 1, 67, 127
1, 331438, Note_on_c, 1, 61, 127
1, 331610, Note_off_c, 1, 76, 0
1, 331610, Note_off_c, 1, 67, 0
1, 331612, Note_on_c, 1, 70, 127
1, 331612, Note_on_c, 1, 79, 127
1, 331784, Note_off_c, 1, 70, 0
1, 331784, Note_off_c, 1, 79, 0
1, 331787, Note_on_c, 1, 69, 127
1, 331787, Note_on_c, 1, 77, 127
1, 331959, Note_off_c, 1, 69, 0
1, 331959, Note_off_c, 1, 77, 0
1, 332133, Note_off_c, 1, 61, 0
1, 332135, Note_on_c, 1, 62, 127
1, 332135, Note_on_c, 1, 65, 127
1, 332135, Note_on_c, 1, 74, 127
1, 332482, Note_off_c, 1, 62, 0
1, 332484, Note_on_c, 1, 55, 127
1, 332656, Note_off_c, 1, 65, 0
1, 332656, Note_off_c, 1, 74, 0
1, 332659, Note_on_c, 1, 67, 127
1, 332659, Note_on_c, 1, 76, 127
1, 332831, Note_off_c, 1, 55, 0
1, 332831, Note_off_c, 1, 67, 0
1, 332831, Note_off_c, 1, 76, 0
1, 332833, Note_on_c, 1, 74, 127
1, 332833, Note_on_c, 1, 57, 127
1, 332833, Note_on_c, 1, 64, 127
1, 332992, Note_off_c, 1, 74, 0
1, 332992, Note_on_c, 1, 73, 127
1, 333062, Note_off_c, 1, 73, 0
1, 333178, Note_off_c, 1, 57, 0
1, 333180, Note_on_c, 1, 45, 127
1, 333522, Note_off_c, 1, 64, 0
1, 333527, Note_off_c, 1, 45, 0
1, 333529, Note_on_c, 1, 74, 127
1, 333529, Note_on_c, 1, 38, 127
1, 333529, Note_on_c, 1, 65, 127
1, 333876, Note_off_c, 1, 74, 0
1, 333876, Note_off_c, 1, 38, 0
1, 333878, Note_on_c, 1, 69, 127
1, 333878, Note_on_c, 1, 50, 127
1, 333963, Note_off_c, 1, 69, 0
1, 333965, Note_on_c, 1, 70, 127
1, 334050, Note_off_c, 1, 70, 0
1, 334227, Note_on_c, 1, 72, 127
1, 334312, Note_off_c, 1, 72, 0
1, 334399, Note_off_c, 1, 50, 0
1, 334576, Note_on_c, 1, 48, 127
1, 334748, Note_off_c, 1, 48, 0
1, 334750, Note_on_c, 1, 46, 127
1, 334922, Note_off_c, 1, 46, 0
1, 334924, Note_on_c, 1, 45, 127
1, 335099, Note_on_c, 1, 75, 127
1, 335271, Note_off_c, 1, 45, 0
1, 335271, Note_off_c, 1, 75, 0
1, 335273, Note_on_c, 1, 57, 127
1, 335358, Note_off_c, 1, 57, 0
1, 335360, Note_on_c, 1, 58, 127
1, 335445, Note_off_c, 1, 58, 0
1, 335622, Note_on_c, 1, 60, 127
1, 335707, Note_off_c, 1, 60, 0
1, 336309, Note_off_c, 1, 65, 0
1, 336320, Note_on_c, 1, 60, 127
1, 336320, Note_on_c, 1, 67, 127
1, 336320, Note_on_c, 1, 64, 127
1, 336667, Note_off_c, 1, 60, 0
1, 336669, Note_on_c, 1, 48, 127
1, 336754, Note_off_c, 1, 67, 0
1, 336756, Note_on_c, 1, 69, 127
1, 336841, Note_off_c, 1, 69, 0
1, 337017, Note_on_c, 1, 70, 127
1, 337102, Note_off_c, 1, 70, 0
1, 337190, Note_off_c, 1, 48, 0
1, 337366, Note_on_c, 1, 46, 127
1, 337538, Note_off_c, 1, 46, 0
1, 337541, Note_on_c, 1, 45, 127
1, 337713, Note_off_c, 1, 64, 0
1, 337713, Note_off_c, 1, 45, 0
1, 337715, Note_on_c, 1, 70, 127
1, 337715, Note_on_c, 1, 43, 127
1, 337715, Note_on_c, 1, 63, 127
1, 337887, Note_off_c, 1, 70, 0
1, 337890, Note_on_c, 1, 74, 127
1, 338062, Note_off_c, 1, 43, 0
1, 338062, Note_off_c, 1, 74, 0
1, 338064, Note_on_c, 1, 55, 127
1, 338064, Note_on_c, 1, 72, 127
1, 338149, Note_off_c, 1, 55, 0
1, 338151, Note_on_c, 1, 57, 127
1, 338236, Note_off_c, 1, 72, 0
1, 338236, Note_off_c, 1, 57, 0
1, 338413, Note_on_c, 1, 58, 127
1, 338498, Note_off_c, 1, 58, 0
1, 338587, Note_on_c, 1, 69, 127
1, 338759, Note_off_c, 1, 69, 0
1, 339108, Note_off_c, 1, 63, 0
1, 339110, Note_on_c, 1, 65, 127
1, 339110, Note_on_c, 1, 62, 127
1, 339110, Note_on_c, 1, 58, 127
1, 339282, Note_off_c, 1, 65, 0
1, 339372, Note_on_c, 1, 67, 127
1, 339455, Note_off_c, 1, 62, 0
1, 339457, Note_off_c, 1, 58, 0
1, 339457, Note_off_c, 1, 67, 0
1, 339459, Note_on_c, 1, 69, 127
1, 339459, Note_on_c, 1, 46, 127
1, 339544, Note_off_c, 1, 69, 0
1, 339547, Note_on_c, 1, 67, 127
1, 339632, Note_off_c, 1, 67, 0
1, 339634, Note_on_c, 1, 65, 127
1, 339719, Note_off_c, 1, 65, 0
1, 339804, Note_off_c, 1, 46, 0
1, 339808, Note_on_c, 1, 69, 127
1, 339980, Note_off_c, 1, 69, 0
1, 339983, Note_on_c, 1, 69, 127
1, 339983, Note_on_c, 1, 53, 127
1, 340068, Note_off_c, 1, 69, 0
1, 340068, Note_off_c, 1, 53, 0
1, 340070, Note_on_c, 1, 70, 127
1, 340070, Note_on_c, 1, 55, 127
1, 340155, Note_off_c, 1, 70, 0
1, 340155, Note_off_c, 1, 55, 0
1, 340157, Note_on_c, 1, 72, 127
1, 340157, Note_on_c, 1, 57, 127
1, 340242, Note_off_c, 1, 72, 0
1, 340242, Note_off_c, 1, 57, 0
1, 340244, Note_on_c, 1, 70, 127
1, 340244, Note_on_c, 1, 55, 127
1, 340329, Note_off_c, 1, 70, 0
1, 340329, Note_off_c, 1, 55, 0
1, 340331, Note_on_c, 1, 69, 127
1, 340331, Note_on_c, 1, 53, 127
1, 340416, Note_off_c, 1, 69, 0
1, 340416, Note_off_c, 1, 53, 0
1, 340419, Note_on_c, 1, 70, 127
1, 340419, Note_on_c, 1, 55, 127
1, 340504, Note_off_c, 1, 70, 0
1, 340504, Note_off_c, 1, 55, 0
1, 340506, Note_on_c, 1, 72, 127
1, 340506, Note_on_c, 1, 57, 127
1, 340613, Note_off_c, 1, 72, 0
1, 340613, Note_off_c, 1, 57, 0
1, 340622, Note_on_c, 1, 70, 127
1, 340622, Note_on_c, 1, 55, 127
1, 340729, Note_off_c, 1, 70, 0
1, 340729, Note_off_c, 1, 55, 0
1, 340738, Note_on_c, 1, 72, 127
1, 340738, Note_on_c, 1, 57, 127
1, 340845, Note_off_c, 1, 72, 0
1, 340845, Note_off_c, 1, 57, 0
1, 340855, Note_on_c, 1, 74, 127
1, 340855, Note_on_c, 1, 58, 127
1, 340962, Note_off_c, 1, 74, 0
1, 340962, Note_off_c, 1, 58, 0
1, 340971, Note_on_c, 1, 72, 127
1, 340971, Note_on_c, 1, 57, 127
1, 341078, Note_off_c, 1, 72, 0
1, 341078, Note_off_c, 1, 57, 0
1, 341087, Note_on_c, 1, 74, 127
1, 341087, Note_on_c, 1, 58, 127
1, 341194, Note_off_c, 1, 74, 0
1, 341194, Note_off_c, 1, 58, 0
1, 341204, Note_on_c, 1, 76, 127
1, 341204, Note_on_c, 1, 60, 127
1, 341311, Note_off_c, 1, 76, 0
1, 341311, Note_off_c, 1, 60, 0
1, 341320, Note_on_c, 1, 74, 127
1, 341320, Note_on_c, 1, 58, 127
1, 341427, Note_off_c, 1, 74, 0
1, 341427, Note_off_c, 1, 58, 0
1, 341436, Note_on_c, 1, 76, 127
1, 341436, Note_on_c, 1, 60, 127
1, 341543, Note_off_c, 1, 76, 0
1, 341543, Note_off_c, 1, 60, 0
1, 341552, Note_on_c, 1, 77, 127
1, 341552, Note_on_c, 1, 62, 127
1, 341659, Note_off_c, 1, 77, 0
1, 341659, Note_off_c, 1, 62, 0
1, 341669, Note_on_c, 1, 76, 127
1, 341669, Note_on_c, 1, 60, 127
1, 341776, Note_off_c, 1, 76, 0
1, 341776, Note_off_c, 1, 60, 0
1, 341785, Note_on_c, 1, 77, 127
1, 341785, Note_on_c, 1, 62, 127
1, 341892, Note_off_c, 1, 77, 0
1, 341892, Note_off_c, 1, 62, 0
1, 341901, Note_on_c, 1, 79, 127
1, 341901, Note_on_c, 1, 64, 127
1, 342008, Note_off_c, 1, 79, 0
1, 342008, Note_off_c, 1, 64, 0
1, 342017, Note_on_c, 1, 77, 127
1, 342017, Note_on_c, 1, 62, 127
1, 342124, Note_off_c, 1, 77, 0
1, 342124, Note_off_c, 1, 62, 0
1, 342134, Note_on_c, 1, 79, 127
1, 342134, Note_on_c, 1, 64, 127
1, 342241, Note_off_c, 1, 79, 0
1, 342241, Note_off_c, 1, 64, 0
1, 342250, Note_on_c, 1, 81, 127
1, 342250, Note_on_c, 1, 65, 127
1, 342424, Note_on_c, 1, 72, 127
1, 342424, Note_on_c, 1, 57, 127
1, 342596, Note_off_c, 1, 72, 0
1, 342596, Note_off_c, 1, 57, 0
1, 342599, Note_on_c, 1, 74, 127
1, 342599, Note_on_c, 1, 58, 127
1, 342757, Note_off_c, 1, 81, 0
1, 342757, Note_off_c, 1, 65, 0
1, 342946, Note_on_c, 1, 79, 127
1, 342946, Note_on_c, 1, 70, 127
1, 343021, Note_off_c, 1, 79, 0
1, 343117, Note_off_c, 1, 70, 0
1, 343119, Note_on_c, 1, 69, 127
1, 343161, Note_on_c, 1, 77, 127
1, 343284, Note_off_c, 1, 74, 0
1, 343284, Note_off_c, 1, 77, 0
1, 343289, Note_off_c, 1, 58, 0
1, 343290, Note_off_c, 1, 69, 0
1, 343291, Note_on_c, 1, 76, 127
1, 343291, Note_on_c, 1, 67, 127
1, 343291, Note_on_c, 1, 72, 127
1, 343291, Note_on_c, 1, 60, 127
1, 343463, Note_off_c, 1, 76, 0
1, 343463, Note_off_c, 1, 67, 0
1, 343466, Note_on_c, 1, 77, 127
1, 343466, Note_on_c, 1, 69, 127
1, 343636, Note_off_c, 1, 72, 0
1, 343638, Note_off_c, 1, 77, 0
1, 343638, Note_off_c, 1, 69, 0
1, 343815, Note_on_c, 1, 65, 127
1, 343815, Note_on_c, 1, 74, 127
1, 343987, Note_off_c, 1, 65, 0
1, 343987, Note_off_c, 1, 74, 0
1, 343989, Note_on_c, 1, 64, 127
1, 344161, Note_off_c, 1, 60, 0
1, 344164, Note_on_c, 1, 58, 127
1, 344334, Note_off_c, 1, 64, 0
1, 344336, Note_off_c, 1, 58, 0
1, 344338, Note_on_c, 1, 57, 127
1, 344510, Note_off_c, 1, 57, 0
1, 344512, Note_on_c, 1, 72, 127
1, 344512, Note_on_c, 1, 55, 127
1, 344684, Note_off_c, 1, 72, 0
1, 344684, Note_off_c, 1, 55, 0
1, 344687, Note_on_c, 1, 73, 127
1, 344687, Note_on_c, 1, 53, 127
1, 344861, Note_off_c, 1, 73, 0
1, 344863, Note_on_c, 1, 72, 127
1, 345037, Note_off_c, 1, 72, 0
1, 345039, Note_on_c, 1, 71, 127
1, 345039, Note_on_c, 1, 56, 127
1, 345213, Note_off_c, 1, 71, 0
1, 345384, Note_off_c, 1, 53, 0
1, 345391, Note_on_c, 1, 65, 127
1, 345391, Note_on_c, 1, 50, 127
1, 345565, Note_off_c, 1, 65, 0
1, 345736, Note_off_c, 1, 56, 0
1, 346088, Note_off_c, 1, 50, 0
1, 346096, Note_on_c, 1, 74, 127
1, 346096, Note_on_c, 1, 47, 127
1, 346270, Note_off_c, 1, 74, 0
1, 346793, Note_off_c, 1, 47, 0
1, 346800, Note_on_c, 1, 43, 127
1, 346976, Note_on_c, 1, 68, 127
1, 347150, Note_off_c, 1, 68, 0
1, 347153, Note_on_c, 1, 67, 127
1, 347327, Note_off_c, 1, 67, 0
1, 347497, Note_off_c, 1, 43, 0
1, 347505, Note_on_c, 1, 70, 127
1, 347505, Note_on_c, 1, 40, 127
1, 347681, Note_on_c, 1, 73, 127
1, 347853, Note_off_c, 1, 70, 0
1, 347855, Note_off_c, 1, 73, 0
1, 348033, Note_on_c, 1, 67, 127
1, 348202, Note_off_c, 1, 40, 0
1, 348207, Note_off_c, 1, 67, 0
1, 348209, Note_on_c, 1, 64, 127
1, 348385, Note_off_c, 1, 64, 0
1, 348387, Note_on_c, 1, 67, 127
1, 348387, Note_on_c, 1, 58, 127
1, 348561, Note_off_c, 1, 67, 0
1, 348561, Note_off_c, 1, 58, 0
1, 348563, Note_on_c, 1, 72, 127
1, 348563, Note_on_c, 1, 57, 127
1, 348737, Note_off_c, 1, 72, 0
1, 348737, Note_off_c, 1, 57, 0
1, 348739, Note_on_c, 1, 70, 127
1, 348739, Note_on_c, 1, 55, 127
1, 348913, Note_off_c, 1, 70, 0
1, 348913, Note_off_c, 1, 55, 0
1, 348916, Note_on_c, 1, 53, 127
1, 348916, Note_on_c, 1, 69, 127
1, 349097, Note_off_c, 1, 53, 0
1, 349099, Note_on_c, 1, 72, 127
1, 349099, Note_on_c, 1, 57, 127
1, 349280, Note_off_c, 1, 72, 0
1, 349280, Note_off_c, 1, 57, 0
1, 349282, Note_on_c, 1, 62, 127
1, 349282, Note_on_c, 1, 77, 127
1, 349449, Note_off_c, 1, 69, 0
1, 349463, Note_off_c, 1, 62, 0
1, 349465, Note_on_c, 1, 58, 127
1, 349646, Note_off_c, 1, 58, 0
1, 349647, Note_on_c, 1, 67, 127
1, 349647, Note_on_c, 1, 60, 127
1, 349824, Note_off_c, 1, 77, 0
1, 350026, Note_off_c, 1, 67, 0
1, 350028, Note_off_c, 1, 60, 0
1, 350031, Note_on_c, 1, 70, 127
1, 350031, Note_on_c, 1, 48, 127
1, 350222, Note_on_c, 1, 76, 127
1, 350410, Note_off_c, 1, 70, 0
1, 350411, Note_off_c, 1, 76, 0
1, 350412, Note_off_c, 1, 48, 0
1, 350414, Note_on_c, 1, 53, 127
1, 350414, Note_on_c, 1, 69, 127
1, 350414, Note_on_c, 1, 72, 127
1, 350414, Note_on_c, 1, 77, 127
1, 350697, Note_on_c, 1, 41, 127
1, 350981, Note_on_c, 1, 45, 127
1, 351225, Note_off_c, 1, 45, 0
1, 351265, Note_on_c, 1, 48, 127
1, 351509, Note_off_c, 1, 48, 0
1, 351546, Note_off_c, 1, 53, 0
1, 351984, Note_off_c, 1, 41, 0
1, 354214, Note_off_c, 1, 69, 0
1, 354214, Note_off_c, 1, 72, 0
1, 354214, Note_off_c, 1, 77, 0
1, 354309, Note_on_c, 1, 77, 127
1, 354476, Note_off_c, 1, 77, 0
1, 354479, Note_on_c, 1, 53, 127
1, 354479, Note_on_c, 1, 77, 127
1, 354646, Note_off_c, 1, 53, 0
1, 354648, Note_on_c, 1, 55, 127
1, 354815, Note_off_c, 1, 55, 0
1, 354817, Note_on_c, 1, 57, 127
1, 354954, Note_off_c, 1, 77, 0
1, 354986, Note_on_c, 1, 72, 127
1, 355153, Note_off_c, 1, 57, 0
1, 355153, Note_off_c, 1, 72, 0
1, 355156, Note_on_c, 1, 58, 127
1, 355156, Note_on_c, 1, 74, 127
1, 355492, Note_off_c, 1, 58, 0
1, 355494, Note_on_c, 1, 60, 127
1, 355631, Note_off_c, 1, 74, 0
1, 355664, Note_on_c, 1, 77, 127
1, 355830, Note_off_c, 1, 60, 0
1, 355831, Note_off_c, 1, 77, 0
1, 355833, Note_on_c, 1, 72, 127
1, 355833, Note_on_c, 1, 62, 127
1, 356169, Note_off_c, 1, 72, 0
1, 356169, Note_off_c, 1, 62, 0
1, 356171, Note_on_c, 1, 72, 127
1, 356171, Note_on_c, 1, 64, 127
1, 356253, Note_off_c, 1, 72, 0
1, 356255, Note_on_c, 1, 70, 127
1, 356337, Note_off_c, 1, 70, 0
1, 356339, Note_on_c, 1, 69, 127
1, 356421, Note_off_c, 1, 69, 0
1, 356504, Note_off_c, 1, 64, 0
1, 356507, Note_on_c, 1, 69, 127
1, 356507, Note_on_c, 1, 65, 127
1, 356674, Note_off_c, 1, 69, 0
1, 356676, Note_on_c, 1, 72, 127
1, 356843, Note_off_c, 1, 72, 0
1, 356845, Note_on_c, 1, 74, 127
1, 356982, Note_off_c, 1, 65, 0
1, 357010, Note_off_c, 1, 74, 0
1, 357013, Note_on_c, 1, 76, 127
1, 357013, Note_on_c, 1, 60, 127
1, 357180, Note_off_c, 1, 76, 0
1, 357180, Note_off_c, 1, 60, 0
1, 357182, Note_on_c, 1, 77, 127
1, 357182, Note_on_c, 1, 62, 127
1, 357349, Note_off_c, 1, 77, 0
1, 357351, Note_on_c, 1, 81, 127
1, 357518, Note_off_c, 1, 81, 0
1, 357521, Note_on_c, 1, 79, 127
1, 357657, Note_off_c, 1, 62, 0
1, 357686, Note_off_c, 1, 79, 0
1, 357688, Note_on_c, 1, 81, 127
1, 357688, Note_on_c, 1, 65, 127
1, 357855, Note_off_c, 1, 81, 0
1, 357855, Note_off_c, 1, 65, 0
1, 357857, Note_on_c, 1, 82, 127
1, 357857, Note_on_c, 1, 60, 127
1, 358024, Note_off_c, 1, 82, 0
1, 358027, Note_on_c, 1, 81, 127
1, 358193, Note_off_c, 1, 60, 0
1, 358194, Note_off_c, 1, 81, 0
1, 358196, Note_on_c, 1, 60, 127
1, 358196, Note_on_c, 1, 79, 127
1, 358278, Note_off_c, 1, 60, 0
1, 358280, Note_on_c, 1, 58, 127
1, 358361, Note_off_c, 1, 79, 0
1, 358362, Note_off_c, 1, 58, 0
1, 358364, Note_on_c, 1, 57, 127
1, 358364, Note_on_c, 1, 77, 127
1, 358446, Note_off_c, 1, 57, 0
1, 358447, Note_on_c, 1, 58, 127
1, 358529, Note_off_c, 1, 77, 0
1, 358529, Note_off_c, 1, 58, 0
1, 358531, Note_on_c, 1, 57, 127
1, 358531, Note_on_c, 1, 84, 127
1, 358698, Note_off_c, 1, 57, 0
1, 358701, Note_on_c, 1, 53, 127
1, 358867, Note_off_c, 1, 84, 0
1, 358868, Note_off_c, 1, 53, 0
1, 358870, Note_on_c, 1, 55, 127
1, 358870, Note_on_c, 1, 72, 127
1, 359037, Note_off_c, 1, 55, 0
1, 359039, Note_on_c, 1, 57, 127
1, 359206, Note_off_c, 1, 72, 0
1, 359206, Note_off_c, 1, 57, 0
1, 359208, Note_on_c, 1, 58, 127
1, 359208, Note_on_c, 1, 74, 127
1, 359375, Note_off_c, 1, 58, 0
1, 359378, Note_on_c, 1, 60, 127
1, 359545, Note_off_c, 1, 60, 0
1, 359547, Note_on_c, 1, 57, 127
1, 359683, Note_off_c, 1, 74, 0
1, 359712, Note_off_c, 1, 57, 0
1, 359715, Note_on_c, 1, 82, 127
1, 359715, Note_on_c, 1, 58, 127
1, 359882, Note_off_c, 1, 82, 0
1, 359882, Note_off_c, 1, 58, 0
1, 359884, Note_on_c, 1, 60, 127
1, 359884, Note_on_c, 1, 81, 127
1, 360051, Note_off_c, 1, 60, 0
1, 360053, Note_on_c, 1, 59, 127
1, 360220, Note_off_c, 1, 81, 0
1, 360220, Note_off_c, 1, 59, 0
1, 360222, Note_on_c, 1, 81, 127
1, 360222, Note_on_c, 1, 57, 127
1, 360304, Note_off_c, 1, 81, 0
1, 360306, Note_on_c, 1, 79, 127
1, 360387, Note_off_c, 1, 57, 0
1, 360388, Note_off_c, 1, 79, 0
1, 360390, Note_on_c, 1, 77, 127
1, 360390, Note_on_c, 1, 55, 127
1, 360557, Note_off_c, 1, 77, 0
1, 360557, Note_off_c, 1, 55, 0
1, 360559, Note_on_c, 1, 77, 127
1, 360559, Note_on_c, 1, 60, 127
1, 360699, Note_off_c, 1, 77, 0
1, 360699, Note_on_c, 1, 76, 127
1, 360724, Note_off_c, 1, 60, 0
1, 360727, Note_on_c, 1, 59, 127
1, 360772, Note_off_c, 1, 76, 0
1, 360894, Note_off_c, 1, 59, 0
1, 361064, Note_on_c, 1, 77, 127
1, 361064, Note_on_c, 1, 62, 127
1, 361231, Note_off_c, 1, 77, 0
1, 361231, Note_off_c, 1, 62, 0
1, 361233, Note_on_c, 1, 64, 127
1, 361233, Note_on_c, 1, 79, 127
1, 361400, Note_off_c, 1, 64, 0
1, 361402, Note_on_c, 1, 67, 127
1, 361569, Note_off_c, 1, 79, 0
1, 361569, Note_off_c, 1, 67, 0
1, 361572, Note_on_c, 1, 81, 127
1, 361572, Note_on_c, 1, 65, 127
1, 361739, Note_off_c, 1, 81, 0
1, 361739, Note_off_c, 1, 65, 0
1, 361741, Note_on_c, 1, 82, 127
1, 361741, Note_on_c, 1, 67, 127
1, 361908, Note_off_c, 1, 82, 0
1, 361908, Note_off_c, 1, 67, 0
1, 361910, Note_on_c, 1, 81, 127
1, 361910, Note_on_c, 1, 61, 127
1, 362077, Note_off_c, 1, 81, 0
1, 362079, Note_on_c, 1, 79, 127
1, 362246, Note_off_c, 1, 61, 0
1, 362246, Note_off_c, 1, 79, 0
1, 362249, Note_on_c, 1, 77, 127
1, 362249, Note_on_c, 1, 57, 127
1, 362416, Note_off_c, 1, 77, 0
1, 362418, Note_on_c, 1, 76, 127
1, 362585, Note_off_c, 1, 57, 0
1, 362585, Note_off_c, 1, 76, 0
1, 362587, Note_on_c, 1, 77, 127
1, 362587, Note_on_c, 1, 62, 127
1, 362669, Note_off_c, 1, 77, 0
1, 362671, Note_on_c, 1, 76, 127
1, 362753, Note_off_c, 1, 76, 0
1, 362922, Note_off_c, 1, 62, 0
1, 362924, Note_on_c, 1, 50, 127
1, 363091, Note_off_c, 1, 50, 0
1, 363093, Note_on_c, 1, 76, 127
1, 363093, Note_on_c, 1, 52, 127
1, 363260, Note_off_c, 1, 76, 0
1, 363260, Note_off_c, 1, 52, 0
1, 363263, Note_on_c, 1, 53, 127
1, 363263, Note_on_c, 1, 74, 127
1, 363430, Note_off_c, 1, 53, 0
1, 363432, Note_on_c, 1, 55, 127
1, 363599, Note_off_c, 1, 74, 0
1, 363599, Note_off_c, 1, 55, 0
1, 363601, Note_on_c, 1, 72, 127
1, 363601, Note_on_c, 1, 52, 127
1, 363768, Note_off_c, 1, 72, 0
1, 363768, Note_off_c, 1, 52, 0
1, 363771, Note_on_c, 1, 71, 127
1, 363771, Note_on_c, 1, 53, 127
1, 363938, Note_off_c, 1, 71, 0
1, 363938, Note_off_c, 1, 53, 0
1, 363940, Note_on_c, 1, 72, 127
1, 363940, Note_on_c, 1, 55, 127
1, 364022, Note_off_c, 1, 72, 0
1, 364024, Note_on_c, 1, 71, 127
1, 364105, Note_off_c, 1, 55, 0
1, 364106, Note_off_c, 1, 71, 0
1, 364108, Note_on_c, 1, 54, 127
1, 364108, Note_on_c, 1, 72, 127
1, 364275, Note_off_c, 1, 54, 0
1, 364277, Note_on_c, 1, 52, 127
1, 364444, Note_off_c, 1, 72, 0
1, 364444, Note_off_c, 1, 52, 0
1, 364446, Note_on_c, 1, 74, 127
1, 364446, Note_on_c, 1, 50, 127
1, 364613, Note_off_c, 1, 74, 0
1, 364613, Note_off_c, 1, 50, 0
1, 364615, Note_on_c, 1, 72, 127
1, 364615, Note_on_c, 1, 55, 127
1, 364755, Note_off_c, 1, 72, 0
1, 364756, Note_on_c, 1, 71, 127
1, 364780, Note_off_c, 1, 55, 0
1, 364783, Note_on_c, 1, 57, 127
1, 364838, Note_off_c, 1, 71, 0
1, 364950, Note_off_c, 1, 57, 0
1, 365120, Note_on_c, 1, 69, 127
1, 365120, Note_on_c, 1, 53, 127
1, 365287, Note_off_c, 1, 69, 0
1, 365287, Note_off_c, 1, 53, 0
1, 365289, Note_on_c, 1, 52, 127
1, 365289, Note_on_c, 1, 67, 127
1, 365456, Note_off_c, 1, 52, 0
1, 365458, Note_on_c, 1, 55, 127
1, 365625, Note_off_c, 1, 55, 0
1, 365628, Note_on_c, 1, 53, 127
1, 365730, Note_off_c, 1, 67, 0
1, 365795, Note_off_c, 1, 53, 0
1, 365797, Note_on_c, 1, 79, 127
1, 365797, Note_on_c, 1, 52, 127
1, 365964, Note_off_c, 1, 79, 0
1, 365964, Note_off_c, 1, 52, 0
1, 365966, Note_on_c, 1, 77, 127
1, 365966, Note_on_c, 1, 50, 127
1, 366133, Note_off_c, 1, 77, 0
1, 366133, Note_off_c, 1, 50, 0
1, 366136, Note_on_c, 1, 76, 127
1, 366136, Note_on_c, 1, 48, 127
1, 366303, Note_off_c, 1, 76, 0
1, 366303, Note_off_c, 1, 48, 0
1, 366305, Note_on_c, 1, 74, 127
1, 366305, Note_on_c, 1, 60, 127
1, 366472, Note_off_c, 1, 74, 0
1, 366474, Note_on_c, 1, 72, 127
1, 366641, Note_off_c, 1, 60, 0
1, 366641, Note_off_c, 1, 72, 0
1, 366643, Note_on_c, 1, 53, 127
1, 366643, Note_on_c, 1, 81, 127
1, 366810, Note_off_c, 1, 53, 0
1, 366813, Note_on_c, 1, 52, 127
1, 366980, Note_off_c, 1, 52, 0
1, 366982, Note_on_c, 1, 50, 127
1, 367118, Note_off_c, 1, 81, 0
1, 367147, Note_off_c, 1, 50, 0
1, 367150, Note_on_c, 1, 76, 127
1, 367150, Note_on_c, 1, 48, 127
1, 367317, Note_off_c, 1, 76, 0
1, 367317, Note_off_c, 1, 48, 0
1, 367319, Note_on_c, 1, 47, 127
1, 367319, Note_on_c, 1, 77, 127
1, 367486, Note_off_c, 1, 47, 0
1, 367488, Note_on_c, 1, 43, 127
1, 367655, Note_off_c, 1, 43, 0
1, 367657, Note_on_c, 1, 48, 127
1, 367794, Note_off_c, 1, 77, 0
1, 367827, Note_on_c, 1, 79, 127
1, 367993, Note_off_c, 1, 48, 0
1, 367994, Note_off_c, 1, 79, 0
1, 367996, Note_on_c, 1, 76, 127
1, 367996, Note_on_c, 1, 55, 127
1, 368116, Note_on_c, 1, 74, 127
1, 368119, Note_off_c, 1, 76, 0
1, 368198, Note_off_c, 1, 74, 0
1, 368331, Note_off_c, 1, 55, 0
1, 368333, Note_on_c, 1, 43, 127
1, 368501, Note_on_c, 1, 72, 127
1, 368668, Note_off_c, 1, 43, 0
1, 368668, Note_off_c, 1, 72, 0
1, 368670, Note_on_c, 1, 48, 127
1, 368670, Note_on_c, 1, 72, 127
1, 369008, Note_on_c, 1, 36, 127
1, 369347, Note_on_c, 1, 43, 127
1, 369683, Note_off_c, 1, 43, 0
1, 369684, Note_off_c, 1, 48, 0
1, 369686, Note_on_c, 1, 67, 127
1, 369686, Note_on_c, 1, 64, 127
1, 370361, Note_off_c, 1, 72, 0
1, 370529, Note_off_c, 1, 67, 0
1, 370529, Note_off_c, 1, 64, 0
1, 370699, Note_off_c, 1, 36, 0
1, 370700, Note_on_c, 1, 67, 127
1, 370700, Note_on_c, 1, 48, 127
1, 371038, Note_on_c, 1, 50, 127
1, 371206, Note_off_c, 1, 67, 0
1, 371207, Note_on_c, 1, 72, 127
1, 371374, Note_off_c, 1, 50, 0
1, 371374, Note_off_c, 1, 72, 0
1, 371377, Note_on_c, 1, 52, 127
1, 371505, Note_on_c, 1, 70, 127
1, 371587, Note_off_c, 1, 70, 0
1, 371712, Note_off_c, 1, 52, 0
1, 371714, Note_on_c, 1, 53, 127
1, 371881, Note_on_c, 1, 69, 127
1, 372048, Note_off_c, 1, 69, 0
1, 372049, Note_off_c, 1, 53, 0
1, 372050, Note_on_c, 1, 55, 127
1, 372220, Note_on_c, 1, 74, 127
1, 372386, Note_off_c, 1, 55, 0
1, 372387, Note_off_c, 1, 74, 0
1, 372724, Note_off_c, 1, 48, 0
1, 372728, Note_on_c, 1, 69, 127
1, 372728, Note_on_c, 1, 53, 127
1, 372895, Note_off_c, 1, 69, 0
1, 372897, Note_on_c, 1, 72, 127
1, 373064, Note_off_c, 1, 72, 0
1, 373066, Note_on_c, 1, 74, 127
1, 373233, Note_off_c, 1, 74, 0
1, 373236, Note_on_c, 1, 75, 127
1, 373236, Note_on_c, 1, 65, 127
1, 373403, Note_off_c, 1, 75, 0
1, 373403, Note_off_c, 1, 65, 0
1, 373405, Note_on_c, 1, 77, 127
1, 373518, Note_on_c, 1, 63, 127
1, 373572, Note_off_c, 1, 77, 0
1, 373600, Note_off_c, 1, 63, 0
1, 373742, Note_on_c, 1, 70, 127
1, 373907, Note_off_c, 1, 70, 0
1, 373909, Note_on_c, 1, 79, 127
1, 373909, Note_on_c, 1, 62, 127
1, 374076, Note_off_c, 1, 79, 0
1, 374076, Note_off_c, 1, 62, 0
1, 374248, Note_on_c, 1, 67, 127
1, 374415, Note_off_c, 1, 67, 0
1, 374752, Note_off_c, 1, 53, 0
1, 374756, Note_on_c, 1, 58, 127
1, 374923, Note_off_c, 1, 58, 0
1, 374925, Note_on_c, 1, 75, 127
1, 374925, Note_on_c, 1, 53, 127
1, 375092, Note_off_c, 1, 75, 0
1, 375092, Note_off_c, 1, 53, 0
1, 375094, Note_on_c, 1, 74, 127
1, 375094, Note_on_c, 1, 55, 127
1, 375261, Note_off_c, 1, 74, 0
1, 375261, Note_off_c, 1, 55, 0
1, 375264, Note_on_c, 1, 72, 127
1, 375264, Note_on_c, 1, 57, 127
1, 375431, Note_off_c, 1, 72, 0
1, 375431, Note_off_c, 1, 57, 0
1, 375433, Note_on_c, 1, 58, 127
1, 375433, Note_on_c, 1, 70, 127
1, 375517, Note_on_c, 1, 72, 127
1, 375598, Note_off_c, 1, 58, 0
1, 375599, Note_off_c, 1, 72, 0
1, 375600, Note_on_c, 1, 50, 127
1, 375600, Note_on_c, 1, 74, 127
1, 375767, Note_off_c, 1, 50, 0
1, 375770, Note_on_c, 1, 52, 127
1, 375936, Note_off_c, 1, 74, 0
1, 375937, Note_off_c, 1, 52, 0
1, 375939, Note_on_c, 1, 75, 127
1, 375939, Note_on_c, 1, 60, 127
1, 376101, Note_off_c, 1, 70, 0
1, 376106, Note_off_c, 1, 75, 0
1, 376106, Note_off_c, 1, 60, 0
1, 376108, Note_on_c, 1, 69, 127
1, 376108, Note_on_c, 1, 54, 127
1, 376190, Note_off_c, 1, 69, 0
1, 376192, Note_on_c, 1, 70, 127
1, 376273, Note_off_c, 1, 54, 0
1, 376276, Note_on_c, 1, 57, 127
1, 376276, Note_on_c, 1, 72, 127
1, 376443, Note_off_c, 1, 57, 0
1, 376445, Note_on_c, 1, 55, 127
1, 376611, Note_off_c, 1, 72, 0
1, 376612, Note_off_c, 1, 55, 0
1, 376790, Note_off_c, 1, 70, 0
1, 377121, Note_on_c, 1, 50, 127
1, 377290, Note_on_c, 1, 74, 127
1, 377457, Note_off_c, 1, 50, 0
1, 377457, Note_off_c, 1, 74, 0
1, 377459, Note_on_c, 1, 72, 127
1, 377459, Note_on_c, 1, 55, 127
1, 377459, Note_on_c, 1, 67, 127
1, 377596, Note_on_c, 1, 70, 127
1, 377597, Note_off_c, 1, 72, 0
1, 377678, Note_off_c, 1, 70, 0
1, 377794, Note_off_c, 1, 55, 0
1, 377796, Note_on_c, 1, 48, 127
1, 377964, Note_on_c, 1, 69, 127
1, 378125, Note_off_c, 1, 67, 0
1, 378131, Note_off_c, 1, 48, 0
1, 378131, Note_off_c, 1, 69, 0
1, 378133, Note_on_c, 1, 70, 127
1, 378133, Note_on_c, 1, 50, 127
1, 378133, Note_on_c, 1, 66, 127
1, 378244, Note_off_c, 1, 70, 0
1, 378244, Note_on_c, 1, 69, 127
1, 378326, Note_off_c, 1, 69, 0
1, 378468, Note_off_c, 1, 50, 0
1, 378470, Note_on_c, 1, 38, 127
1, 378623, Note_off_c, 1, 66, 0
1, 378637, Note_on_c, 1, 67, 127
1, 378804, Note_off_c, 1, 67, 0
1, 378805, Note_off_c, 1, 38, 0
1, 378807, Note_on_c, 1, 43, 127
1, 378807, Note_on_c, 1, 67, 127
1, 378974, Note_off_c, 1, 43, 0
1, 378976, Note_on_c, 1, 50, 127
1, 379143, Note_off_c, 1, 50, 0
1, 379145, Note_on_c, 1, 52, 127
1, 379312, Note_off_c, 1, 52, 0
1, 379315, Note_on_c, 1, 54, 127
1, 379482, Note_off_c, 1, 54, 0
1, 379484, Note_on_c, 1, 55, 127
1, 379651, Note_off_c, 1, 55, 0
1, 379653, Note_off_c, 1, 67, 0
1, 379653, Note_on_c, 1, 58, 127
1, 379820, Note_off_c, 1, 58, 0
1, 379822, Note_on_c, 1, 57, 127
1, 379822, Note_on_c, 1, 79, 127
1, 379989, Note_off_c, 1, 57, 0
1, 379992, Note_on_c, 1, 58, 127
1, 380158, Note_off_c, 1, 79, 0
1, 380159, Note_off_c, 1, 58, 0
1, 380161, Note_on_c, 1, 76, 127
1, 380161, Note_on_c, 1, 60, 127
1, 380289, Note_on_c, 1, 74, 127
1, 380292, Note_off_c, 1, 76, 0
1, 380328, Note_off_c, 1, 60, 0
1, 380330, Note_on_c, 1, 58, 127
1, 380371, Note_off_c, 1, 74, 0
1, 380495, Note_off_c, 1, 58, 0
1, 380498, Note_on_c, 1, 57, 127
1, 380665, Note_off_c, 1, 57, 0
1, 380667, Note_on_c, 1, 55, 127
1, 380832, Note_off_c, 1, 55, 0
1, 380835, Note_on_c, 1, 77, 127
1, 380835, Note_on_c, 1, 62, 127
1, 380917, Note_off_c, 1, 77, 0
1, 380919, Note_on_c, 1, 76, 127
1, 381001, Note_off_c, 1, 76, 0
1, 381170, Note_off_c, 1, 62, 0
1, 381172, Note_on_c, 1, 50, 127
1, 381510, Note_on_c, 1, 74, 127
1, 381678, Note_off_c, 1, 50, 0
1, 381679, Note_on_c, 1, 53, 127
1, 381834, Note_off_c, 1, 74, 0
1, 381846, Note_off_c, 1, 53, 0
1, 381849, Note_on_c, 1, 72, 127
1, 381849, Note_on_c, 1, 52, 127
1, 382016, Note_off_c, 1, 72, 0
1, 382016, Note_off_c, 1, 52, 0
1, 382018, Note_on_c, 1, 70, 127
1, 382018, Note_on_c, 1, 53, 127
1, 382185, Note_off_c, 1, 70, 0
1, 382185, Note_off_c, 1, 53, 0
1, 382187, Note_on_c, 1, 70, 127
1, 382187, Note_on_c, 1, 55, 127
1, 382322, Note_off_c, 1, 70, 0
1, 382324, Note_on_c, 1, 69, 127
1, 382352, Note_off_c, 1, 55, 0
1, 382355, Note_on_c, 1, 53, 127
1, 382406, Note_off_c, 1, 69, 0
1, 382522, Note_off_c, 1, 53, 0
1, 382524, Note_on_c, 1, 52, 127
1, 382689, Note_off_c, 1, 52, 0
1, 382692, Note_on_c, 1, 50, 127
1, 382857, Note_off_c, 1, 50, 0
1, 382859, Note_on_c, 1, 57, 127
1, 382859, Note_on_c, 1, 72, 127
1, 383026, Note_off_c, 1, 57, 0
1, 383029, Note_on_c, 1, 58, 127
1, 383196, Note_off_c, 1, 58, 0
1, 383334, Note_off_c, 1, 72, 0
1, 383366, Note_on_c, 1, 70, 127
1, 383366, Note_on_c, 1, 55, 127
1, 383533, Note_off_c, 1, 70, 0
1, 383533, Note_off_c, 1, 55, 0
1, 383535, Note_on_c, 1, 53, 127
1, 383535, Note_on_c, 1, 69, 127
1, 383702, Note_off_c, 1, 53, 0
1, 383704, Note_on_c, 1, 57, 127
1, 383871, Note_off_c, 1, 69, 0
1, 383871, Note_off_c, 1, 57, 0
1, 383873, Note_on_c, 1, 67, 127
1, 383873, Note_on_c, 1, 58, 127
1, 384040, Note_off_c, 1, 67, 0
1, 384040, Note_off_c, 1, 58, 0
1, 384043, Note_on_c, 1, 65, 127
1, 384043, Note_on_c, 1, 60, 127
1, 384210, Note_off_c, 1, 65, 0
1, 384210, Note_off_c, 1, 60, 0
1, 384212, Note_on_c, 1, 70, 127
1, 384212, Note_on_c, 1, 62, 127
1, 384294, Note_off_c, 1, 70, 0
1, 384296, Note_on_c, 1, 69, 127
1, 384377, Note_off_c, 1, 62, 0
1, 384378, Note_off_c, 1, 69, 0
1, 384380, Note_on_c, 1, 63, 127
1, 384380, Note_on_c, 1, 70, 127
1, 384547, Note_off_c, 1, 63, 0
1, 384549, Note_on_c, 1, 62, 127
1, 384716, Note_off_c, 1, 70, 0
1, 384716, Note_off_c, 1, 62, 0
1, 384718, Note_on_c, 1, 72, 127
1, 384718, Note_on_c, 1, 60, 127
1, 384885, Note_off_c, 1, 72, 0
1, 384885, Note_off_c, 1, 60, 0
1, 384887, Note_on_c, 1, 74, 127
1, 384887, Note_on_c, 1, 58, 127
1, 384969, Note_off_c, 1, 74, 0
1, 384971, Note_on_c, 1, 72, 127
1, 385052, Note_off_c, 1, 58, 0
1, 385053, Note_off_c, 1, 72, 0
1, 385055, Note_on_c, 1, 62, 127
1, 385055, Note_on_c, 1, 74, 127
1, 385222, Note_off_c, 1, 62, 0
1, 385224, Note_on_c, 1, 64, 127
1, 385391, Note_off_c, 1, 74, 0
1, 385391, Note_off_c, 1, 64, 0
1, 385394, Note_on_c, 1, 72, 127
1, 385394, Note_on_c, 1, 65, 127
1, 385561, Note_off_c, 1, 72, 0
1, 385561, Note_off_c, 1, 65, 0
1, 385563, Note_on_c, 1, 70, 127
1, 385563, Note_on_c, 1, 67, 127
1, 385730, Note_off_c, 1, 70, 0
1, 385732, Note_on_c, 1, 69, 127
1, 385899, Note_off_c, 1, 67, 0
1, 385899, Note_off_c, 1, 69, 0
1, 385901, Note_on_c, 1, 67, 127
1, 385901, Note_on_c, 1, 50, 127
1, 386068, Note_off_c, 1, 67, 0
1, 386071, Note_on_c, 1, 70, 127
1, 386237, Note_off_c, 1, 50, 0
1, 386238, Note_off_c, 1, 70, 0
1, 386240, Note_on_c, 1, 69, 127
1, 386240, Note_on_c, 1, 52, 127
1, 386407, Note_off_c, 1, 69, 0
1, 386409, Note_on_c, 1, 67, 127
1, 386576, Note_off_c, 1, 52, 0
1, 386576, Note_off_c, 1, 67, 0
1, 386579, Note_on_c, 1, 69, 127
1, 386579, Note_on_c, 1, 53, 127
1, 386746, Note_off_c, 1, 69, 0
1, 386748, Note_on_c, 1, 65, 127
1, 386915, Note_off_c, 1, 53, 0
1, 386915, Note_off_c, 1, 65, 0
1, 386917, Note_on_c, 1, 64, 127
1, 386917, Note_on_c, 1, 48, 127
1, 386994, Note_on_c, 1, 62, 127
1, 386999, Note_off_c, 1, 64, 0
1, 387076, Note_off_c, 1, 62, 0
1, 387082, Note_off_c, 1, 48, 0
1, 387085, Note_on_c, 1, 52, 127
1, 387252, Note_off_c, 1, 52, 0
1, 387254, Note_on_c, 1, 50, 127
1, 387421, Note_off_c, 1, 50, 0
1, 387423, Note_on_c, 1, 62, 127
1, 387423, Note_on_c, 1, 52, 127
1, 387590, Note_off_c, 1, 62, 0
1, 387590, Note_off_c, 1, 52, 0
1, 387593, Note_on_c, 1, 53, 127
1, 387593, Note_on_c, 1, 60, 127
1, 387760, Note_off_c, 1, 53, 0
1, 387762, Note_on_c, 1, 52, 127
1, 387892, Note_off_c, 1, 60, 0
1, 387929, Note_off_c, 1, 52, 0
1, 387931, Note_on_c, 1, 50, 127
1, 387933, Note_on_c, 1, 72, 127
1, 388098, Note_off_c, 1, 50, 0
1, 388101, Note_on_c, 1, 48, 127
1, 388268, Note_off_c, 1, 48, 0
1, 388269, Note_off_c, 1, 72, 0
1, 388270, Note_on_c, 1, 77, 127
1, 388270, Note_on_c, 1, 46, 127
1, 388352, Note_off_c, 1, 77, 0
1, 388354, Note_on_c, 1, 76, 127
1, 388435, Note_off_c, 1, 46, 0
1, 388436, Note_off_c, 1, 76, 0
1, 388437, Note_on_c, 1, 45, 127
1, 388437, Note_on_c, 1, 77, 127
1, 388604, Note_off_c, 1, 45, 0
1, 388607, Note_on_c, 1, 43, 127
1, 388773, Note_off_c, 1, 77, 0
1, 388774, Note_off_c, 1, 43, 0
1, 388776, Note_on_c, 1, 79, 127
1, 388776, Note_on_c, 1, 41, 127
1, 388858, Note_off_c, 1, 79, 0
1, 388860, Note_on_c, 1, 81, 127
1, 388941, Note_off_c, 1, 41, 0
1, 388942, Note_off_c, 1, 81, 0
1, 388944, Note_on_c, 1, 81, 127
1, 388944, Note_on_c, 1, 46, 127
1, 389280, Note_off_c, 1, 81, 0
1, 389282, Note_on_c, 1, 79, 127
1, 389449, Note_off_c, 1, 79, 0
1, 389451, Note_on_c, 1, 77, 127
1, 389618, Note_off_c, 1, 77, 0
1, 389621, Note_on_c, 1, 76, 127
1, 389788, Note_off_c, 1, 46, 0
1, 389788, Note_off_c, 1, 76, 0
1, 389790, Note_on_c, 1, 74, 127
1, 389790, Note_on_c, 1, 48, 127
1, 389957, Note_off_c, 1, 74, 0
1, 389957, Note_off_c, 1, 48, 0
1, 389959, Note_on_c, 1, 50, 127
1, 389959, Note_on_c, 1, 82, 127
1, 390126, Note_off_c, 1, 50, 0
1, 390129, Note_on_c, 1, 48, 127
1, 390295, Note_off_c, 1, 82, 0
1, 390296, Note_off_c, 1, 48, 0
1, 390298, Note_on_c, 1, 77, 127
1, 390298, Note_on_c, 1, 46, 127
1, 390433, Note_off_c, 1, 77, 0
1, 390435, Note_on_c, 1, 76, 127
1, 390463, Note_off_c, 1, 46, 0
1, 390465, Note_on_c, 1, 45, 127
1, 390517, Note_off_c, 1, 76, 0
1, 390632, Note_off_c, 1, 45, 0
1, 390635, Note_on_c, 1, 43, 127
1, 390800, Note_off_c, 1, 43, 0
1, 390802, Note_on_c, 1, 41, 127
1, 390967, Note_off_c, 1, 41, 0
1, 390970, Note_on_c, 1, 70, 127
1, 390970, Note_on_c, 1, 40, 127
1, 390970, Note_on_c, 1, 67, 127
1, 391053, Note_off_c, 1, 70, 0
1, 391055, Note_on_c, 1, 69, 127
1, 391138, Note_off_c, 1, 69, 0
1, 391139, Note_off_c, 1, 40, 0
1, 391141, Note_on_c, 1, 48, 127
1, 391310, Note_off_c, 1, 48, 0
1, 391312, Note_on_c, 1, 50, 127
1, 391481, Note_off_c, 1, 50, 0
1, 391483, Note_on_c, 1, 72, 127
1, 391483, Note_on_c, 1, 52, 127
1, 391647, Note_off_c, 1, 67, 0
1, 391652, Note_off_c, 1, 72, 0
1, 391652, Note_off_c, 1, 52, 0
1, 391654, Note_on_c, 1, 70, 127
1, 391654, Note_on_c, 1, 53, 127
1, 391654, Note_on_c, 1, 65, 127
1, 391765, Note_on_c, 1, 69, 127
1, 391770, Note_off_c, 1, 70, 0
1, 391855, Note_off_c, 1, 69, 0
1, 392023, Note_off_c, 1, 53, 0
1, 392025, Note_on_c, 1, 46, 127
1, 392211, Note_on_c, 1, 67, 127
1, 392389, Note_off_c, 1, 65, 0
1, 392393, Note_off_c, 1, 67, 0
1, 392394, Note_off_c, 1, 46, 0
1, 392396, Note_on_c, 1, 69, 127
1, 392396, Note_on_c, 1, 48, 127
1, 392396, Note_on_c, 1, 64, 127
1, 392486, Note_off_c, 1, 69, 0
1, 392488, Note_on_c, 1, 67, 127
1, 392578, Note_off_c, 1, 67, 0
1, 392763, Note_off_c, 1, 48, 0
1, 392765, Note_on_c, 1, 36, 127
1, 392934, Note_off_c, 1, 64, 0
1, 392950, Note_on_c, 1, 65, 127
1, 393132, Note_off_c, 1, 36, 0
1, 393132, Note_off_c, 1, 65, 0
1, 393135, Note_on_c, 1, 65, 127
1, 393135, Note_on_c, 1, 41, 127
1, 393552, Note_on_c, 1, 45, 127
1, 393967, Note_off_c, 1, 45, 0
1, 393969, Note_on_c, 1, 48, 127
1, 394384, Note_off_c, 1, 48, 0
1, 394386, Note_on_c, 1, 57, 127
1, 394386, Note_on_c, 1, 60, 127
1, 394386, Note_on_c, 1, 53, 127
1, 396620, Note_off_c, 1, 57, 0
1, 396620, Note_off_c, 1, 60, 0
1, 396620, Note_off_c, 1, 53, 0
1, 396621, Note_off_c, 1, 65, 0
1, 396621, Note_off_c, 1, 41, 0
1, 398230, Note_on_c, 1, 72, 127
1, 398230, Note_on_c, 1, 69, 127
1, 398230, Note_on_c, 1, 65, 127
1, 398230, Note_on_c, 1, 60, 127
1, 398230, Note_on_c, 1, 53, 127
1, 398557, Note_off_c, 1, 72, 0
1, 398560, Note_on_c, 1, 75, 127
1, 398721, Note_off_c, 1, 75, 0
1, 398724, Note_on_c, 1, 74, 127
1, 398885, Note_off_c, 1, 74, 0
1, 399541, Note_off_c, 1, 69, 0
1, 399541, Note_off_c, 1, 65, 0
1, 399541, Note_off_c, 1, 60, 0
1, 399541, Note_off_c, 1, 53, 0
1, 400235, Note_on_c, 1, 74, 127
1, 400235, Note_on_c, 1, 65, 127
1, 400235, Note_on_c, 1, 70, 127
1, 400235, Note_on_c, 1, 58, 127
1, 400235, Note_on_c, 1, 46, 127
1, 400562, Note_off_c, 1, 74, 0
1, 400562, Note_off_c, 1, 65, 0
1, 400562, Note_off_c, 1, 70, 0
1, 400564, Note_on_c, 1, 63, 127
1, 400564, Note_on_c, 1, 69, 127
1, 400564, Note_on_c, 1, 72, 127
1, 400891, Note_off_c, 1, 63, 0
1, 400891, Note_off_c, 1, 69, 0
1, 400891, Note_off_c, 1, 72, 0
1, 401548, Note_off_c, 1, 58, 0
1, 401548, Note_off_c, 1, 46, 0
1, 402240, Note_on_c, 1, 67, 127
1, 402240, Note_on_c, 1, 60, 127
1, 402240, Note_on_c, 1, 64, 127
1, 402240, Note_on_c, 1, 58, 127
1, 402567, Note_off_c, 1, 67, 0
1, 402570, Note_on_c, 1, 69, 127
1, 402890, Note_off_c, 1, 60, 0
1, 402890, Note_off_c, 1, 64, 0
1, 402896, Note_off_c, 1, 58, 0
1, 402897, Note_off_c, 1, 69, 0
1, 402899, Note_on_c, 1, 69, 127
1, 402899, Note_on_c, 1, 65, 127
1, 402899, Note_on_c, 1, 60, 127
1, 402899, Note_on_c, 1, 57, 127
1, 403226, Note_off_c, 1, 69, 0
1, 403228, Note_on_c, 1, 70, 127
1, 403549, Note_off_c, 1, 65, 0
1, 403549, Note_off_c, 1, 60, 0
1, 403555, Note_off_c, 1, 57, 0
1, 403555, Note_off_c, 1, 70, 0
1, 403558, Note_on_c, 1, 70, 127
1, 403558, Note_on_c, 1, 60, 127
1, 403558, Note_on_c, 1, 64, 127
1, 403558, Note_on_c, 1, 55, 127
1, 403885, Note_off_c, 1, 70, 0
1, 403887, Note_on_c, 1, 72, 127
1, 404208, Note_off_c, 1, 60, 0
1, 404208, Note_off_c, 1, 64, 0
1, 404214, Note_off_c, 1, 55, 0
1, 404214, Note_off_c, 1, 72, 0
1, 404217, Note_on_c, 1, 70, 127
1, 404217, Note_on_c, 1, 65, 127
1, 404217, Note_on_c, 1, 60, 127
1, 404217, Note_on_c, 1, 53, 127
1, 404378, Note_off_c, 1, 70, 0
1, 404380, Note_on_c, 1, 69, 127
1, 404541, Note_off_c, 1, 69, 0
1, 404864, Note_off_c, 1, 65, 0
1, 404864, Note_off_c, 1, 60, 0
1, 404870, Note_off_c, 1, 53, 0
1, 404872, Note_on_c, 1, 67, 127
1, 404872, Note_on_c, 1, 64, 127
1, 404872, Note_on_c, 1, 58, 127
1, 404872, Note_on_c, 1, 48, 127
1, 405199, Note_off_c, 1, 67, 0
1, 405200, Note_on_c, 1, 69, 127
1, 405522, Note_off_c, 1, 64, 0
1, 405522, Note_off_c, 1, 58, 0
1, 405527, Note_off_c, 1, 69, 0
1, 405528, Note_off_c, 1, 48, 0
1, 405530, Note_on_c, 1, 57, 127
1, 405530, Note_on_c, 1, 60, 127
1, 405530, Note_on_c, 1, 65, 127
1, 405530, Note_on_c, 1, 41, 127
1, 406251, Note_off_c, 1, 57, 0
1, 406251, Note_off_c, 1, 60, 0
1, 406251, Note_off_c, 1, 65, 0
1, 406251, Note_off_c, 1, 41, 0
1, 406270, Note_on_c, 1, 53, 127
1, 406270, Note_on_c, 1, 69, 127
1, 406270, Note_on_c, 1, 65, 127
1, 406270, Note_on_c, 1, 60, 127
1, 406597, Note_off_c, 1, 53, 0
1, 406597, Note_off_c, 1, 69, 0
1, 406599, Note_on_c, 1, 56, 127
1, 406599, Note_on_c, 1, 72, 127
1, 406760, Note_off_c, 1, 56, 0
1, 406760, Note_off_c, 1, 72, 0
1, 406763, Note_on_c, 1, 55, 127
1, 406763, Note_on_c, 1, 71, 127
1, 406918, Note_off_c, 1, 65, 0
1, 406918, Note_off_c, 1, 60, 0
1, 406924, Note_off_c, 1, 55, 0
1, 406924, Note_off_c, 1, 71, 0
1, 406927, Note_on_c, 1, 72, 127
1, 406927, Note_on_c, 1, 56, 127
1, 406927, Note_on_c, 1, 65, 127
1, 406927, Note_on_c, 1, 62, 127
1, 407034, Note_off_c, 1, 72, 0
1, 407036, Note_on_c, 1, 71, 127
1, 407143, Note_off_c, 1, 71, 0
1, 408238, Note_off_c, 1, 56, 0
1, 408238, Note_off_c, 1, 65, 0
1, 408238, Note_off_c, 1, 62, 0
1, 408274, Note_on_c, 1, 75, 127
1, 408274, Note_on_c, 1, 47, 127
1, 408274, Note_on_c, 1, 55, 127
1, 408274, Note_on_c, 1, 65, 127
1, 408435, Note_off_c, 1, 75, 0
1, 408438, Note_on_c, 1, 74, 127
1, 408599, Note_off_c, 1, 47, 0
1, 408599, Note_off_c, 1, 74, 0
1, 408601, Note_on_c, 1, 72, 127
1, 408601, Note_on_c, 1, 45, 127
1, 408762, Note_off_c, 1, 72, 0
1, 408921, Note_off_c, 1, 55, 0
1, 408921, Note_off_c, 1, 65, 0
1, 408926, Note_off_c, 1, 45, 0
1, 408929, Note_on_c, 1, 47, 127
1, 408929, Note_on_c, 1, 74, 127
1, 408929, Note_on_c, 1, 67, 127
1, 408929, Note_on_c, 1, 55, 127
1, 409093, Note_on_c, 1, 75, 127
1, 409254, Note_off_c, 1, 75, 0
1, 409257, Note_on_c, 1, 77, 127
1, 409877, Note_off_c, 1, 47, 0
1, 409896, Note_on_c, 1, 48, 127
1, 410073, Note_off_c, 1, 48, 0
1, 410077, Note_on_c, 1, 50, 127
1, 410240, Note_off_c, 1, 74, 0
1, 410240, Note_off_c, 1, 67, 0
1, 410240, Note_off_c, 1, 55, 0
1, 410240, Note_off_c, 1, 77, 0
1, 410254, Note_off_c, 1, 50, 0
1, 410259, Note_on_c, 1, 52, 127
1, 410259, Note_on_c, 1, 55, 127
1, 410259, Note_on_c, 1, 67, 127
1, 410259, Note_on_c, 1, 76, 127
1, 410586, Note_off_c, 1, 52, 0
1, 410586, Note_off_c, 1, 55, 0
1, 410586, Note_off_c, 1, 67, 0
1, 410586, Note_off_c, 1, 76, 0
1, 410588, Note_on_c, 1, 53, 127
1, 410588, Note_on_c, 1, 57, 127
1, 410588, Note_on_c, 1, 74, 127
1, 410588, Note_on_c, 1, 65, 127
1, 410915, Note_off_c, 1, 53, 0
1, 410915, Note_off_c, 1, 57, 0
1, 410915, Note_off_c, 1, 74, 0
1, 410915, Note_off_c, 1, 65, 0
1, 410918, Note_on_c, 1, 53, 127
1, 410918, Note_on_c, 1, 57, 127
1, 410918, Note_on_c, 1, 74, 127
1, 410918, Note_on_c, 1, 65, 127
1, 411245, Note_off_c, 1, 53, 0
1, 411245, Note_off_c, 1, 57, 0
1, 411245, Note_off_c, 1, 74, 0
1, 411245, Note_off_c, 1, 65, 0
1, 411247, Note_on_c, 1, 55, 127
1, 411247, Note_on_c, 1, 64, 127
1, 411247, Note_on_c, 1, 72, 127
1, 411574, Note_off_c, 1, 55, 0
1, 411574, Note_off_c, 1, 64, 0
1, 411574, Note_off_c, 1, 72, 0
1, 411576, Note_on_c, 1, 64, 127
1, 411576, Note_on_c, 1, 72, 127
1, 411576, Note_on_c, 1, 55, 127
1, 411903, Note_off_c, 1, 64, 0
1, 411903, Note_off_c, 1, 72, 0
1, 411906, Note_on_c, 1, 43, 127
1, 411906, Note_on_c, 1, 71, 127
1, 411906, Note_on_c, 1, 62, 127
1, 412226, Note_off_c, 1, 55, 0
1, 412233, Note_off_c, 1, 43, 0
1, 412233, Note_off_c, 1, 71, 0
1, 412233, Note_off_c, 1, 62, 0
1, 412235, Note_on_c, 1, 71, 127
1, 412235, Note_on_c, 1, 62, 127
1, 412235, Note_on_c, 1, 48, 127
1, 412235, Note_on_c, 1, 55, 127
1, 412562, Note_off_c, 1, 71, 0
1, 412562, Note_off_c, 1, 62, 0
1, 412565, Note_on_c, 1, 72, 127
1, 412565, Note_on_c, 1, 64, 127
1, 412891, Note_off_c, 1, 48, 0
1, 412891, Note_off_c, 1, 55, 0
1, 412892, Note_off_c, 1, 72, 0
1, 412892, Note_off_c, 1, 64, 0
1, 412894, Note_on_c, 1, 36, 127
1, 412894, Note_on_c, 1, 48, 127
1, 412894, Note_on_c, 1, 67, 127
1, 412894, Note_on_c, 1, 64, 127
1, 412894, Note_on_c, 1, 72, 127
1, 414194, Note_off_c, 1, 36, 0
1, 414194, Note_off_c, 1, 48, 0
1, 414233, Note_off_c, 1, 67, 0
1, 414233, Note_off_c, 1, 64, 0
1, 414233, Note_off_c, 1, 72, 0
1, 414259, Note_on_c, 1, 76, 127
1, 414259, Note_on_c, 1, 67, 127
1, 414259, Note_on_c, 1, 72, 127
1, 414259, Note_on_c, 1, 60, 127
1, 414586, Note_off_c, 1, 76, 0
1, 414589, Note_on_c, 1, 77, 127
1, 414750, Note_off_c, 1, 77, 0
1, 414753, Note_on_c, 1, 79, 127
1, 414907, Note_off_c, 1, 67, 0
1, 414907, Note_off_c, 1, 72, 0
1, 414914, Note_off_c, 1, 60, 0
1, 414914, Note_off_c, 1, 79, 0
1, 414916, Note_on_c, 1, 77, 127
1, 414916, Note_on_c, 1, 72, 127
1, 414916, Note_on_c, 1, 67, 127
1, 414916, Note_on_c, 1, 58, 127
1, 415132, Note_off_c, 1, 77, 0
1, 415151, Note_on_c, 1, 76, 127
1, 415258, Note_off_c, 1, 76, 0
1, 415915, Note_on_c, 1, 74, 127
1, 416076, Note_off_c, 1, 74, 0
1, 416224, Note_off_c, 1, 72, 0
1, 416224, Note_off_c, 1, 67, 0
1, 416224, Note_off_c, 1, 58, 0
1, 416259, Note_on_c, 1, 79, 127
1, 416259, Note_on_c, 1, 76, 127
1, 416259, Note_on_c, 1, 69, 127
1, 416259, Note_on_c, 1, 64, 127
1, 416259, Note_on_c, 1, 57, 127
1, 416259, Note_on_c, 1, 61, 127
1, 416914, Note_off_c, 1, 79, 0
1, 416914, Note_off_c, 1, 76, 0
1, 416914, Note_off_c, 1, 69, 0
1, 416914, Note_off_c, 1, 64, 0
1, 416914, Note_off_c, 1, 57, 0
1, 416914, Note_off_c, 1, 61, 0
1, 416917, Note_on_c, 1, 74, 127
1, 416917, Note_on_c, 1, 69, 127
1, 416917, Note_on_c, 1, 55, 127
1, 416917, Note_on_c, 1, 64, 127
1, 417242, Note_off_c, 1, 74, 0
1, 417263, Note_on_c, 1, 73, 127
1, 417370, Note_off_c, 1, 73, 0
1, 417918, Note_on_c, 1, 71, 127
1, 418079, Note_off_c, 1, 71, 0
1, 418227, Note_off_c, 1, 69, 0
1, 418273, Note_on_c, 1, 82, 127
1, 418600, Note_off_c, 1, 82, 0
1, 418608, Note_on_c, 1, 81, 127
1, 418922, Note_off_c, 1, 55, 0
1, 418934, Note_off_c, 1, 64, 0
1, 418935, Note_off_c, 1, 81, 0
1, 418936, Note_on_c, 1, 81, 127
1, 418936, Note_on_c, 1, 74, 127
1, 418936, Note_on_c, 1, 53, 127
1, 418936, Note_on_c, 1, 65, 127
1, 419263, Note_off_c, 1, 81, 0
1, 419266, Note_on_c, 1, 79, 127
1, 419586, Note_off_c, 1, 74, 0
1, 419592, Note_off_c, 1, 53, 0
1, 419592, Note_off_c, 1, 65, 0
1, 419593, Note_off_c, 1, 79, 0
1, 419596, Note_on_c, 1, 79, 127
1, 419596, Note_on_c, 1, 76, 127
1, 419596, Note_on_c, 1, 61, 127
1, 419596, Note_on_c, 1, 52, 127
1, 419757, Note_off_c, 1, 79, 0
1, 419759, Note_on_c, 1, 77, 127
1, 419920, Note_off_c, 1, 77, 0
1, 420074, Note_off_c, 1, 76, 0
1, 420251, Note_off_c, 1, 61, 0
1, 420251, Note_off_c, 1, 52, 0
1, 420269, Note_on_c, 1, 79, 127
1, 420269, Note_on_c, 1, 69, 127
1, 420269, Note_on_c, 1, 62, 127
1, 420269, Note_on_c, 1, 50, 127
1, 420394, Note_on_c, 1, 77, 127
1, 420396, Note_off_c, 1, 79, 0
1, 420521, Note_off_c, 1, 77, 0
1, 420917, Note_off_c, 1, 69, 0
1, 420924, Note_off_c, 1, 62, 0
1, 420924, Note_off_c, 1, 50, 0
1, 420925, Note_on_c, 1, 76, 127
1, 420925, Note_on_c, 1, 67, 127
1, 420925, Note_on_c, 1, 61, 127
1, 420925, Note_on_c, 1, 57, 127
1, 421252, Note_off_c, 1, 76, 0
1, 421575, Note_off_c, 1, 67, 0
1, 421581, Note_off_c, 1, 61, 0
1, 421581, Note_off_c, 1, 57, 0
1, 421585, Note_on_c, 1, 65, 127
1, 421585, Note_on_c, 1, 74, 127
1, 421585, Note_on_c, 1, 62, 127
1, 422295, Note_off_c, 1, 65, 0
1, 422295, Note_off_c, 1, 74, 0
1, 422295, Note_off_c, 1, 62, 0
1, 422324, Note_on_c, 1, 78, 127
1, 422324, Note_on_c, 1, 69, 127
1, 422324, Note_on_c, 1, 74, 127
1, 422324, Note_on_c, 1, 60, 127
1, 422324, Note_on_c, 1, 62, 127
1, 422651, Note_off_c, 1, 78, 0
1, 422670, Note_on_c, 1, 81, 127
1, 422831, Note_off_c, 1, 81, 0
1, 422834, Note_on_c, 1, 79, 127
1, 422972, Note_off_c, 1, 69, 0
1, 422972, Note_off_c, 1, 74, 0
1, 422979, Note_off_c, 1, 60, 0
1, 422979, Note_off_c, 1, 62, 0
1, 422995, Note_off_c, 1, 79, 0
1, 422998, Note_on_c, 1, 67, 127
1, 422998, Note_on_c, 1, 74, 127
1, 422998, Note_on_c, 1, 62, 127
1, 422998, Note_on_c, 1, 79, 127
1, 422998, Note_on_c, 1, 58, 127
1, 424092, Note_off_c, 1, 67, 0
1, 424092, Note_off_c, 1, 74, 0
1, 424092, Note_off_c, 1, 62, 0
1, 424309, Note_off_c, 1, 79, 0
1, 424309, Note_off_c, 1, 58, 0
1, 424311, Note_on_c, 1, 75, 127
1, 424311, Note_on_c, 1, 69, 127
1, 424311, Note_on_c, 1, 60, 127
1, 424311, Note_on_c, 1, 54, 127
1, 424472, Note_off_c, 1, 75, 0
1, 424475, Note_on_c, 1, 72, 127
1, 424636, Note_off_c, 1, 72, 0
1, 424639, Note_on_c, 1, 74, 127
1, 424959, Note_off_c, 1, 69, 0
1, 424966, Note_off_c, 1, 60, 0
1, 424966, Note_off_c, 1, 54, 0
1, 424966, Note_off_c, 1, 74, 0
1, 424968, Note_on_c, 1, 74, 127
1, 424968, Note_on_c, 1, 68, 127
1, 424968, Note_on_c, 1, 59, 127
1, 424968, Note_on_c, 1, 53, 127
1, 425951, Note_off_c, 1, 74, 0
1, 426131, Note_off_c, 1, 68, 0
1, 426131, Note_off_c, 1, 59, 0
1, 426281, Note_off_c, 1, 53, 0
1, 426301, Note_on_c, 1, 79, 127
1, 426301, Note_on_c, 1, 67, 127
1, 426301, Note_on_c, 1, 51, 127
1, 426301, Note_on_c, 1, 60, 127
1, 426792, Note_off_c, 1, 79, 0
1, 426792, Note_off_c, 1, 67, 0
1, 426793, Note_on_c, 1, 81, 127
1, 426954, Note_off_c, 1, 81, 0
1, 426956, Note_off_c, 1, 51, 0
1, 426956, Note_off_c, 1, 60, 0
1, 426957, Note_on_c, 1, 48, 127
1, 426957, Note_on_c, 1, 75, 127
1, 426957, Note_on_c, 1, 79, 127
1, 426957, Note_on_c, 1, 81, 127
1, 426957, Note_on_c, 1, 60, 127
1, 427612, Note_off_c, 1, 48, 0
1, 427612, Note_off_c, 1, 75, 0
1, 427612, Note_off_c, 1, 79, 0
1, 427614, Note_on_c, 1, 78, 127
1, 427614, Note_on_c, 1, 74, 127
1, 427614, Note_on_c, 1, 50, 127
1, 427940, Note_off_c, 1, 81, 0
1, 427941, Note_off_c, 1, 78, 0
1, 428264, Note_off_c, 1, 74, 0
1, 428270, Note_off_c, 1, 50, 0
1, 428273, Note_on_c, 1, 55, 127
1, 428601, Note_off_c, 1, 60, 0
1, 428644, Note_on_c, 1, 57, 127
1, 428975, Note_off_c, 1, 55, 0
1, 428997, Note_on_c, 1, 58, 127
1, 428997, Note_on_c, 1, 67, 127
1, 429014, Note_off_c, 1, 57, 0
1, 430022, Note_off_c, 1, 58, 0
1, 430022, Note_off_c, 1, 67, 0
1, 430345, Note_on_c, 1, 71, 127
1, 430345, Note_on_c, 1, 62, 127
1, 430345, Note_on_c, 1, 67, 127
1, 430345, Note_on_c, 1, 53, 127
1, 430345, Note_on_c, 1, 55, 127
1, 430672, Note_off_c, 1, 71, 0
1, 430674, Note_on_c, 1, 74, 127
1, 430835, Note_off_c, 1, 74, 0
1, 430838, Note_on_c, 1, 72, 127
1, 430993, Note_off_c, 1, 62, 0
1, 430993, Note_off_c, 1, 67, 0
1, 430999, Note_off_c, 1, 72, 0
1, 431000, Note_off_c, 1, 53, 0
1, 431000, Note_off_c, 1, 55, 0
1, 431002, Note_on_c, 1, 72, 127
1, 431002, Note_on_c, 1, 55, 127
1, 431002, Note_on_c, 1, 67, 127
1, 431002, Note_on_c, 1, 60, 127
1, 431002, Note_on_c, 1, 52, 127
1, 431985, Note_off_c, 1, 72, 0
1, 432096, Note_off_c, 1, 55, 0
1, 432096, Note_off_c, 1, 67, 0
1, 432096, Note_off_c, 1, 60, 0
1, 432313, Note_off_c, 1, 52, 0
1, 432348, Note_on_c, 1, 77, 127
1, 432348, Note_on_c, 1, 69, 127
1, 432348, Note_on_c, 1, 65, 127
1, 432348, Note_on_c, 1, 51, 127
1, 432348, Note_on_c, 1, 60, 127
1, 432675, Note_off_c, 1, 77, 0
1, 432675, Note_off_c, 1, 69, 0
1, 432998, Note_off_c, 1, 65, 0
1, 433004, Note_off_c, 1, 51, 0
1, 433004, Note_off_c, 1, 60, 0
1, 433007, Note_on_c, 1, 70, 127
1, 433007, Note_on_c, 1, 58, 127
1, 433007, Note_on_c, 1, 65, 127
1, 433007, Note_on_c, 1, 50, 127
1, 433990, Note_off_c, 1, 70, 0
1, 434027, Note_on_c, 1, 72, 127
1, 434101, Note_off_c, 1, 58, 0
1, 434101, Note_off_c, 1, 65, 0
1, 434188, Note_off_c, 1, 72, 0
1, 434191, Note_on_c, 1, 74, 127
1, 434318, Note_off_c, 1, 50, 0
1, 434352, Note_off_c, 1, 74, 0
1, 434355, Note_on_c, 1, 75, 127
1, 434355, Note_on_c, 1, 72, 127
1, 434355, Note_on_c, 1, 67, 127
1, 434355, Note_on_c, 1, 48, 127
1, 434355, Note_on_c, 1, 58, 127
1, 434682, Note_off_c, 1, 75, 0
1, 434683, Note_on_c, 1, 79, 127
1, 435005, Note_off_c, 1, 72, 0
1, 435005, Note_off_c, 1, 67, 0
1, 435010, Note_off_c, 1, 79, 0
1, 435011, Note_off_c, 1, 48, 0
1, 435011, Note_off_c, 1, 58, 0
1, 435013, Note_on_c, 1, 77, 127
1, 435013, Note_on_c, 1, 72, 127
1, 435013, Note_on_c, 1, 58, 127
1, 435013, Note_on_c, 1, 53, 127
1, 435013, Note_on_c, 1, 60, 127
1, 435340, Note_off_c, 1, 77, 0
1, 435342, Note_on_c, 1, 75, 127
1, 435663, Note_off_c, 1, 72, 0
1, 435669, Note_off_c, 1, 58, 0
1, 435669, Note_off_c, 1, 53, 0
1, 435669, Note_off_c, 1, 60, 0
1, 435669, Note_off_c, 1, 75, 0
1, 435672, Note_on_c, 1, 74, 127
1, 435672, Note_on_c, 1, 65, 127
1, 435672, Note_on_c, 1, 72, 127
1, 435672, Note_on_c, 1, 53, 127
1, 435672, Note_on_c, 1, 57, 127
1, 435999, Note_off_c, 1, 74, 0
1, 436034, Note_on_c, 1, 75, 127
1, 436322, Note_off_c, 1, 65, 0
1, 436322, Note_off_c, 1, 72, 0
1, 436328, Note_off_c, 1, 53, 0
1, 436328, Note_off_c, 1, 57, 0
1, 436347, Note_on_c, 1, 70, 127
1, 436347, Note_on_c, 1, 58, 127
1, 436351, Note_off_c, 1, 75, 0
1, 437002, Note_off_c, 1, 70, 0
1, 437002, Note_off_c, 1, 58, 0
1, 437004, Note_on_c, 1, 72, 127
1, 437004, Note_on_c, 1, 63, 127
1, 437004, Note_on_c, 1, 57, 127
1, 437004, Note_on_c, 1, 53, 127
1, 437331, Note_off_c, 1, 72, 0
1, 437333, Note_on_c, 1, 74, 127
1, 437654, Note_off_c, 1, 63, 0
1, 437660, Note_off_c, 1, 57, 0
1, 437660, Note_off_c, 1, 53, 0
1, 437671, Note_off_c, 1, 74, 0
1, 437679, Note_on_c, 1, 46, 127
1, 437679, Note_on_c, 1, 58, 127
1, 437679, Note_on_c, 1, 62, 127
1, 437679, Note_on_c, 1, 70, 127
1, 438400, Note_off_c, 1, 46, 0
1, 438400, Note_off_c, 1, 58, 0
1, 438400, Note_off_c, 1, 62, 0
1, 438400, Note_off_c, 1, 70, 0
1, 438418, Note_on_c, 1, 67, 127
1, 438418, Note_on_c, 1, 65, 127
1, 438418, Note_on_c, 1, 62, 127
1, 438418, Note_on_c, 1, 47, 127
1, 438745, Note_off_c, 1, 67, 0
1, 438747, Note_on_c, 1, 69, 127
1, 438908, Note_off_c, 1, 69, 0
1, 439066, Note_off_c, 1, 65, 0
1, 439066, Note_off_c, 1, 62, 0
1, 439073, Note_off_c, 1, 47, 0
1, 439075, Note_on_c, 1, 62, 127
1, 439075, Note_on_c, 1, 65, 127
1, 439075, Note_on_c, 1, 67, 127
1, 439075, Note_on_c, 1, 48, 127
1, 439730, Note_off_c, 1, 62, 0
1, 439730, Note_off_c, 1, 65, 0
1, 439749, Note_on_c, 1, 64, 127
1, 439749, Note_on_c, 1, 60, 127
1, 440307, Note_off_c, 1, 67, 0
1, 440388, Note_off_c, 1, 48, 0
1, 440405, Note_off_c, 1, 64, 0
1, 440405, Note_off_c, 1, 60, 0
1, 440441, Note_on_c, 1, 67, 127
1, 440441, Note_on_c, 1, 65, 127
1, 440441, Note_on_c, 1, 49, 127
1, 440441, Note_on_c, 1, 58, 127
1, 440768, Note_off_c, 1, 67, 0
1, 440769, Note_on_c, 1, 68, 127
1, 440930, Note_off_c, 1, 68, 0
1, 441089, Note_off_c, 1, 65, 0
1, 441096, Note_off_c, 1, 49, 0
1, 441096, Note_off_c, 1, 58, 0
1, 441097, Note_on_c, 1, 56, 127
1, 441097, Note_on_c, 1, 50, 127
1, 441097, Note_on_c, 1, 71, 127
1, 441097, Note_on_c, 1, 65, 127
1, 441916, Note_off_c, 1, 56, 0
1, 442021, Note_off_c, 1, 50, 0
1, 442117, Note_on_c, 1, 55, 127
1, 442117, Note_on_c, 1, 69, 127
1, 442148, Note_off_c, 1, 71, 0
1, 442260, Note_off_c, 1, 65, 0
1, 442278, Note_off_c, 1, 55, 0
1, 442278, Note_off_c, 1, 69, 0
1, 442280, Note_on_c, 1, 53, 127
1, 442280, Note_on_c, 1, 71, 127
1, 442443, Note_off_c, 1, 53, 0
1, 442443, Note_off_c, 1, 71, 0
1, 442446, Note_on_c, 1, 52, 127
1, 442446, Note_on_c, 1, 55, 127
1, 442446, Note_on_c, 1, 60, 127
1, 442446, Note_on_c, 1, 67, 127
1, 442446, Note_on_c, 1, 72, 127
1, 442798, Note_off_c, 1, 52, 0
1, 442798, Note_off_c, 1, 55, 0
1, 442798, Note_off_c, 1, 60, 0
1, 442798, Note_off_c, 1, 67, 0
1, 442798, Note_off_c, 1, 72, 0
1, 442801, Note_on_c, 1, 53, 127
1, 442801, Note_on_c, 1, 57, 127
1, 442801, Note_on_c, 1, 60, 127
1, 443153, Note_off_c, 1, 53, 0
1, 443153, Note_off_c, 1, 57, 0
1, 443153, Note_off_c, 1, 60, 0
1, 443154, Note_on_c, 1, 45, 127
1, 443154, Note_on_c, 1, 57, 127
1, 443154, Note_on_c, 1, 65, 127
1, 443154, Note_on_c, 1, 60, 127
1, 443506, Note_off_c, 1, 45, 0
1, 443506, Note_off_c, 1, 57, 0
1, 443506, Note_off_c, 1, 65, 0
1, 443506, Note_off_c, 1, 60, 0
1, 443508, Note_on_c, 1, 46, 127
1, 443508, Note_on_c, 1, 53, 127
1, 443508, Note_on_c, 1, 70, 127
1, 443508, Note_on_c, 1, 65, 127
1, 443508, Note_on_c, 1, 62, 127
1, 443860, Note_off_c, 1, 46, 0
1, 443860, Note_off_c, 1, 53, 0
1, 443860, Note_off_c, 1, 70, 0
1, 443860, Note_off_c, 1, 65, 0
1, 443860, Note_off_c, 1, 62, 0
1, 443862, Note_on_c, 1, 48, 127
1, 443862, Note_on_c, 1, 65, 127
1, 443862, Note_on_c, 1, 69, 127
1, 443862, Note_on_c, 1, 60, 127
1, 444214, Note_off_c, 1, 48, 0
1, 444214, Note_off_c, 1, 65, 0
1, 444214, Note_off_c, 1, 69, 0
1, 444214, Note_off_c, 1, 60, 0
1, 444216, Note_on_c, 1, 36, 127
1, 444216, Note_on_c, 1, 64, 127
1, 444216, Note_on_c, 1, 58, 127
1, 444216, Note_on_c, 1, 67, 127
1, 444568, Note_off_c, 1, 36, 0
1, 444568, Note_off_c, 1, 64, 0
1, 444568, Note_off_c, 1, 58, 0
1, 444568, Note_off_c, 1, 67, 0
1, 444570, Note_on_c, 1, 65, 127
1, 444570, Note_on_c, 1, 60, 127
1, 444570, Note_on_c, 1, 58, 127
1, 444570, Note_on_c, 1, 48, 127
1, 444570, Note_on_c, 1, 41, 127
1, 444990, Note_off_c, 1, 65, 0
1, 444993, Note_on_c, 1, 64, 127
1, 445406, Note_off_c, 1, 60, 0
1, 445406, Note_off_c, 1, 58, 0
1, 445413, Note_off_c, 1, 48, 0
1, 445413, Note_off_c, 1, 41, 0
1, 445413, Note_off_c, 1, 64, 0
1, 445416, Note_on_c, 1, 41, 127
1, 445416, Note_on_c, 1, 53, 127
1, 445416, Note_on_c, 1, 57, 127
1, 445416, Note_on_c, 1, 65, 127
1, 445416, Note_on_c, 1, 60, 127
1, 447589, Note_off_c, 1, 41, 0
1, 447589, Note_off_c, 1, 53, 0
1, 447589, Note_off_c, 1, 57, 0
1, 447589, Note_off_c, 1, 65, 0
1, 447589, Note_off_c, 1, 60, 0
1, 448606, Note_on_c, 1, 65, 127
1, 448606, Note_on_c, 1, 53, 127
1, 448818, Note_off_c, 1, 65, 0
1, 448827, Note_on_c, 1, 67, 127
1, 449038, Note_off_c, 1, 53, 0
1, 449039, Note_off_c, 1, 67, 0
1, 449047, Note_on_c, 1, 69, 127
1, 449047, Note_on_c, 1, 52, 127
1, 449149, Note_off_c, 1, 69, 0
1, 449160, Note_on_c, 1, 67, 127
1, 449261, Note_off_c, 1, 52, 0
1, 449262, Note_off_c, 1, 67, 0
1, 449271, Note_on_c, 1, 69, 127
1, 449271, Note_on_c, 1, 50, 127
1, 449373, Note_off_c, 1, 69, 0
1, 449381, Note_on_c, 1, 67, 127
1, 449483, Note_off_c, 1, 67, 0
1, 449485, Note_off_c, 1, 50, 0
1, 449493, Note_on_c, 1, 69, 127
1, 449493, Note_on_c, 1, 52, 127
1, 449595, Note_off_c, 1, 69, 0
1, 449604, Note_on_c, 1, 67, 127
1, 449706, Note_off_c, 1, 67, 0
1, 449707, Note_off_c, 1, 52, 0
1, 449716, Note_on_c, 1, 65, 127
1, 449716, Note_on_c, 1, 48, 127
1, 449818, Note_off_c, 1, 65, 0
1, 449827, Note_on_c, 1, 67, 127
1, 449929, Note_off_c, 1, 67, 0
1, 449930, Note_off_c, 1, 48, 0
1, 449938, Note_on_c, 1, 69, 127
1, 449938, Note_on_c, 1, 53, 127
1, 450150, Note_off_c, 1, 69, 0
1, 450160, Note_on_c, 1, 70, 127
1, 450370, Note_off_c, 1, 53, 0
1, 450372, Note_off_c, 1, 70, 0
1, 450380, Note_on_c, 1, 41, 127
1, 450380, Note_on_c, 1, 72, 127
1, 450592, Note_off_c, 1, 41, 0
1, 450602, Note_on_c, 1, 43, 127
1, 450696, Note_off_c, 1, 72, 0
1, 450816, Note_off_c, 1, 43, 0
1, 450824, Note_on_c, 1, 45, 127
1, 450824, Note_on_c, 1, 77, 127
1, 451036, Note_off_c, 1, 45, 0
1, 451046, Note_on_c, 1, 46, 127
1, 451140, Note_off_c, 1, 77, 0
1, 451260, Note_off_c, 1, 46, 0
1, 451268, Note_on_c, 1, 69, 127
1, 451268, Note_on_c, 1, 48, 127
1, 451480, Note_off_c, 1, 69, 0
1, 451480, Note_off_c, 1, 48, 0
1, 451489, Note_on_c, 1, 70, 127
1, 451489, Note_on_c, 1, 50, 127
1, 451701, Note_off_c, 1, 70, 0
1, 451701, Note_off_c, 1, 50, 0
1, 451709, Note_on_c, 1, 52, 127
1, 451709, Note_on_c, 1, 72, 127
1, 451921, Note_off_c, 1, 52, 0
1, 451931, Note_on_c, 1, 55, 127
1, 452025, Note_off_c, 1, 72, 0
1, 452145, Note_off_c, 1, 55, 0
1, 452153, Note_on_c, 1, 54, 127
1, 452153, Note_on_c, 1, 74, 127
1, 452365, Note_off_c, 1, 54, 0
1, 452373, Note_on_c, 1, 57, 127
1, 452469, Note_off_c, 1, 74, 0
1, 452587, Note_off_c, 1, 57, 0
1, 452596, Note_on_c, 1, 55, 127
1, 452596, Note_on_c, 1, 72, 127
1, 452808, Note_off_c, 1, 55, 0
1, 452817, Note_on_c, 1, 57, 127
1, 452928, Note_off_c, 1, 72, 0
1, 452938, Note_on_c, 1, 70, 127
1, 453029, Note_off_c, 1, 57, 0
1, 453029, Note_off_c, 1, 70, 0
1, 453038, Note_on_c, 1, 72, 127
1, 453038, Note_on_c, 1, 58, 127
1, 453136, Note_off_c, 1, 72, 0
1, 453149, Note_on_c, 1, 70, 127
1, 453247, Note_off_c, 1, 70, 0
1, 453252, Note_off_c, 1, 58, 0
1, 453260, Note_on_c, 1, 72, 127
1, 453260, Note_on_c, 1, 57, 127
1, 453358, Note_off_c, 1, 72, 0
1, 453372, Note_on_c, 1, 70, 127
1, 453470, Note_off_c, 1, 70, 0
1, 453474, Note_off_c, 1, 57, 0
1, 453483, Note_on_c, 1, 55, 127
1, 453485, Note_on_c, 1, 69, 127
1, 453697, Note_off_c, 1, 55, 0
1, 453697, Note_off_c, 1, 69, 0
1, 453705, Note_on_c, 1, 70, 127
1, 453705, Note_on_c, 1, 53, 127
1, 453859, Note_off_c, 1, 70, 0
1, 453917, Note_off_c, 1, 53, 0
1, 453928, Note_on_c, 1, 67, 127
1, 453928, Note_on_c, 1, 52, 127
1, 454140, Note_off_c, 1, 67, 0
1, 454140, Note_off_c, 1, 52, 0
1, 454148, Note_on_c, 1, 69, 127
1, 454148, Note_on_c, 1, 50, 127
1, 454360, Note_off_c, 1, 69, 0
1, 454360, Note_off_c, 1, 50, 0
1, 454368, Note_on_c, 1, 70, 127
1, 454368, Note_on_c, 1, 48, 127
1, 454470, Note_off_c, 1, 70, 0
1, 454481, Note_on_c, 1, 69, 127
1, 454582, Note_off_c, 1, 48, 0
1, 454583, Note_off_c, 1, 69, 0
1, 454591, Note_on_c, 1, 70, 127
1, 454591, Note_on_c, 1, 50, 127
1, 454693, Note_off_c, 1, 70, 0
1, 454703, Note_on_c, 1, 69, 127
1, 454805, Note_off_c, 1, 50, 0
1, 454805, Note_off_c, 1, 69, 0
1, 454814, Note_on_c, 1, 70, 127
1, 454814, Note_on_c, 1, 52, 127
1, 454916, Note_off_c, 1, 70, 0
1, 454925, Note_on_c, 1, 69, 127
1, 455027, Note_off_c, 1, 69, 0
1, 455028, Note_off_c, 1, 52, 0
1, 455037, Note_on_c, 1, 67, 127
1, 455037, Note_on_c, 1, 53, 127
1, 455139, Note_off_c, 1, 67, 0
1, 455147, Note_on_c, 1, 69, 127
1, 455249, Note_off_c, 1, 69, 0
1, 455251, Note_off_c, 1, 53, 0
1, 455259, Note_on_c, 1, 70, 127
1, 455259, Note_on_c, 1, 55, 127
1, 455471, Note_off_c, 1, 70, 0
1, 455480, Note_on_c, 1, 72, 127
1, 455691, Note_off_c, 1, 55, 0
1, 455692, Note_off_c, 1, 72, 0
1, 455701, Note_on_c, 1, 43, 127
1, 455701, Note_on_c, 1, 74, 127
1, 455913, Note_off_c, 1, 43, 0
1, 455923, Note_on_c, 1, 45, 127
1, 456017, Note_off_c, 1, 74, 0
1, 456137, Note_off_c, 1, 45, 0
1, 456145, Note_on_c, 1, 46, 127
1, 456145, Note_on_c, 1, 79, 127
1, 456357, Note_off_c, 1, 46, 0
1, 456366, Note_on_c, 1, 43, 127
1, 456461, Note_off_c, 1, 79, 0
1, 456580, Note_off_c, 1, 43, 0
1, 456588, Note_on_c, 1, 77, 127
1, 456588, Note_on_c, 1, 48, 127
1, 456800, Note_off_c, 1, 77, 0
1, 456810, Note_on_c, 1, 76, 127
1, 457015, Note_off_c, 1, 76, 0
1, 457020, Note_off_c, 1, 48, 0
1, 457031, Note_on_c, 1, 74, 127
1, 457031, Note_on_c, 1, 50, 127
1, 457243, Note_off_c, 1, 74, 0
1, 457251, Note_on_c, 1, 72, 127
1, 457456, Note_off_c, 1, 72, 0
1, 457463, Note_off_c, 1, 50, 0
1, 457473, Note_on_c, 1, 70, 127
1, 457473, Note_on_c, 1, 52, 127
1, 457685, Note_off_c, 1, 70, 0
1, 457693, Note_on_c, 1, 69, 127
1, 457898, Note_off_c, 1, 69, 0
1, 457905, Note_off_c, 1, 52, 0
1, 457915, Note_on_c, 1, 67, 127
1, 457915, Note_on_c, 1, 53, 127
1, 458127, Note_off_c, 1, 67, 0
1, 458135, Note_on_c, 1, 69, 127
1, 458322, Note_off_c, 1, 69, 0
1, 458347, Note_off_c, 1, 53, 0
1, 458357, Note_on_c, 1, 70, 127
1, 458357, Note_on_c, 1, 48, 127
1, 458569, Note_off_c, 1, 70, 0
1, 458578, Note_on_c, 1, 69, 127
1, 458765, Note_off_c, 1, 69, 0
1, 458789, Note_off_c, 1, 48, 0
1, 458798, Note_on_c, 1, 67, 127
1, 458798, Note_on_c, 1, 45, 127
1, 459010, Note_off_c, 1, 67, 0
1, 459019, Note_on_c, 1, 65, 127
1, 459178, Note_off_c, 1, 65, 0
1, 459232, Note_off_c, 1, 45, 0
1, 459241, Note_on_c, 1, 69, 127
1, 459241, Note_on_c, 1, 41, 127
1, 459453, Note_off_c, 1, 69, 0
1, 459462, Note_on_c, 1, 71, 127
1, 459673, Note_off_c, 1, 41, 0
1, 459674, Note_off_c, 1, 71, 0
1, 459683, Note_on_c, 1, 72, 127
1, 459683, Note_on_c, 1, 53, 127
1, 459785, Note_off_c, 1, 72, 0
1, 459796, Note_on_c, 1, 71, 127
1, 459897, Note_off_c, 1, 53, 0
1, 459898, Note_off_c, 1, 71, 0
1, 459906, Note_on_c, 1, 72, 127
1, 459906, Note_on_c, 1, 52, 127
1, 460008, Note_off_c, 1, 72, 0
1, 460018, Note_on_c, 1, 71, 127
1, 460120, Note_off_c, 1, 52, 0
1, 460120, Note_off_c, 1, 71, 0
1, 460129, Note_on_c, 1, 72, 127
1, 460129, Note_on_c, 1, 53, 127
1, 460231, Note_off_c, 1, 72, 0
1, 460240, Note_on_c, 1, 71, 127
1, 460342, Note_off_c, 1, 71, 0
1, 460343, Note_off_c, 1, 53, 0
1, 460352, Note_on_c, 1, 69, 127
1, 460352, Note_on_c, 1, 50, 127
1, 460454, Note_off_c, 1, 69, 0
1, 460463, Note_on_c, 1, 71, 127
1, 460565, Note_off_c, 1, 71, 0
1, 460566, Note_off_c, 1, 50, 0
1, 460574, Note_on_c, 1, 72, 127
1, 460574, Note_on_c, 1, 52, 127
1, 460786, Note_off_c, 1, 72, 0
1, 460795, Note_on_c, 1, 74, 127
1, 461006, Note_off_c, 1, 52, 0
1, 461007, Note_off_c, 1, 74, 0
1, 461016, Note_on_c, 1, 76, 127
1, 461016, Note_on_c, 1, 53, 127
1, 461228, Note_off_c, 1, 76, 0
1, 461236, Note_on_c, 1, 74, 127
1, 461436, Note_off_c, 1, 74, 0
1, 461450, Note_off_c, 1, 53, 0
1, 461459, Note_on_c, 1, 77, 127
1, 461459, Note_on_c, 1, 55, 127
1, 461671, Note_off_c, 1, 77, 0
1, 461680, Note_on_c, 1, 76, 127
1, 461844, Note_off_c, 1, 76, 0
1, 461891, Note_off_c, 1, 55, 0
1, 461902, Note_on_c, 1, 76, 127
1, 461902, Note_on_c, 1, 48, 127
1, 462114, Note_off_c, 1, 76, 0
1, 462114, Note_off_c, 1, 48, 0
1, 462122, Note_on_c, 1, 77, 127
1, 462122, Note_on_c, 1, 50, 127
1, 462334, Note_off_c, 1, 77, 0
1, 462334, Note_off_c, 1, 50, 0
1, 462343, Note_on_c, 1, 79, 127
1, 462343, Note_on_c, 1, 52, 127
1, 462445, Note_off_c, 1, 79, 0
1, 462454, Note_on_c, 1, 77, 127
1, 462556, Note_off_c, 1, 77, 0
1, 462557, Note_off_c, 1, 52, 0
1, 462565, Note_on_c, 1, 79, 127
1, 462565, Note_on_c, 1, 50, 127
1, 462667, Note_off_c, 1, 79, 0
1, 462676, Note_on_c, 1, 77, 127
1, 462778, Note_off_c, 1, 77, 0
1, 462779, Note_off_c, 1, 50, 0
1, 462788, Note_on_c, 1, 79, 127
1, 462788, Note_on_c, 1, 48, 127
1, 462890, Note_off_c, 1, 79, 0
1, 462899, Note_on_c, 1, 77, 127
1, 463001, Note_off_c, 1, 77, 0
1, 463002, Note_off_c, 1, 48, 0
1, 463011, Note_on_c, 1, 76, 127
1, 463011, Note_on_c, 1, 50, 127
1, 463113, Note_off_c, 1, 76, 0
1, 463121, Note_on_c, 1, 77, 127
1, 463223, Note_off_c, 1, 77, 0
1, 463225, Note_off_c, 1, 50, 0
1, 463234, Note_on_c, 1, 52, 127
1, 463234, Note_on_c, 1, 79, 127
1, 463446, Note_off_c, 1, 52, 0
1, 463455, Note_on_c, 1, 50, 127
1, 463667, Note_off_c, 1, 50, 0
1, 463676, Note_on_c, 1, 53, 127
1, 463888, Note_off_c, 1, 53, 0
1, 464109, Note_off_c, 1, 79, 0
1, 464117, Note_on_c, 1, 50, 127
1, 464329, Note_off_c, 1, 50, 0
1, 464339, Note_on_c, 1, 48, 127
1, 464551, Note_off_c, 1, 48, 0
1, 464559, Note_on_c, 1, 53, 127
1, 464559, Note_on_c, 1, 81, 127
1, 464771, Note_off_c, 1, 53, 0
1, 464781, Note_on_c, 1, 52, 127
1, 464991, Note_off_c, 1, 81, 0
1, 464993, Note_off_c, 1, 52, 0
1, 465001, Note_on_c, 1, 74, 127
1, 465001, Note_on_c, 1, 53, 127
1, 465213, Note_off_c, 1, 74, 0
1, 465223, Note_on_c, 1, 76, 127
1, 465435, Note_off_c, 1, 76, 0
1, 465444, Note_on_c, 1, 77, 127
1, 465656, Note_off_c, 1, 77, 0
1, 465886, Note_on_c, 1, 79, 127
1, 466096, Note_off_c, 1, 53, 0
1, 466106, Note_on_c, 1, 52, 127
1, 466271, Note_off_c, 1, 79, 0
1, 466320, Note_off_c, 1, 52, 0
1, 466329, Note_on_c, 1, 53, 127
1, 466329, Note_on_c, 1, 71, 127
1, 466541, Note_off_c, 1, 53, 0
1, 466549, Note_on_c, 1, 55, 127
1, 466714, Note_off_c, 1, 71, 0
1, 466763, Note_off_c, 1, 55, 0
1, 466772, Note_on_c, 1, 72, 127
1, 466772, Note_on_c, 1, 57, 127
1, 466874, Note_off_c, 1, 72, 0
1, 466884, Note_on_c, 1, 71, 127
1, 466986, Note_off_c, 1, 57, 0
1, 466986, Note_off_c, 1, 71, 0
1, 466994, Note_on_c, 1, 52, 127
1, 466994, Note_on_c, 1, 72, 127
1, 467206, Note_off_c, 1, 52, 0
1, 467216, Note_on_c, 1, 53, 127
1, 467389, Note_off_c, 1, 72, 0
1, 467430, Note_off_c, 1, 53, 0
1, 467438, Note_on_c, 1, 77, 127
1, 467438, Note_on_c, 1, 50, 127
1, 467650, Note_off_c, 1, 77, 0
1, 467650, Note_off_c, 1, 50, 0
1, 467660, Note_on_c, 1, 76, 127
1, 467660, Note_on_c, 1, 55, 127
1, 467800, Note_off_c, 1, 76, 0
1, 467808, Note_on_c, 1, 74, 127
1, 467872, Note_off_c, 1, 74, 0
1, 468096, Note_off_c, 1, 55, 0
1, 468105, Note_on_c, 1, 74, 127
1, 468105, Note_on_c, 1, 43, 127
1, 468317, Note_off_c, 1, 74, 0
1, 468326, Note_on_c, 1, 72, 127
1, 468537, Note_off_c, 1, 43, 0
1, 468538, Note_off_c, 1, 72, 0
1, 468546, Note_on_c, 1, 48, 127
1, 468546, Note_on_c, 1, 72, 127
1, 468980, Note_off_c, 1, 48, 0
1, 468989, Note_on_c, 1, 52, 127
1, 469423, Note_off_c, 1, 52, 0
1, 469434, Note_on_c, 1, 55, 127
1, 469867, Note_off_c, 1, 72, 0
1, 469868, Note_off_c, 1, 55, 0
1, 469877, Note_on_c, 1, 76, 127
1, 469877, Note_on_c, 1, 60, 127
1, 470089, Note_off_c, 1, 76, 0
1, 470089, Note_off_c, 1, 60, 0
1, 470099, Note_on_c, 1, 77, 127
1, 470099, Note_on_c, 1, 58, 127
1, 470311, Note_off_c, 1, 77, 0
1, 470311, Note_off_c, 1, 58, 0
1, 470319, Note_on_c, 1, 79, 127
1, 470319, Note_on_c, 1, 57, 127
1, 470421, Note_off_c, 1, 79, 0
1, 470430, Note_on_c, 1, 77, 127
1, 470532, Note_off_c, 1, 77, 0
1, 470533, Note_off_c, 1, 57, 0
1, 470542, Note_on_c, 1, 79, 127
1, 470542, Note_on_c, 1, 55, 127
1, 470644, Note_off_c, 1, 79, 0
1, 470653, Note_on_c, 1, 77, 127
1, 470755, Note_off_c, 1, 77, 0
1, 470756, Note_off_c, 1, 55, 0
1, 470764, Note_on_c, 1, 79, 127
1, 470764, Note_on_c, 1, 57, 127
1, 470866, Note_off_c, 1, 79, 0
1, 470875, Note_on_c, 1, 77, 127
1, 470977, Note_off_c, 1, 77, 0
1, 470978, Note_off_c, 1, 57, 0
1, 470986, Note_on_c, 1, 76, 127
1, 470986, Note_on_c, 1, 53, 127
1, 471088, Note_off_c, 1, 76, 0
1, 471098, Note_on_c, 1, 77, 127
1, 471200, Note_off_c, 1, 53, 0
1, 471200, Note_off_c, 1, 77, 0
1, 471209, Note_on_c, 1, 79, 127
1, 471209, Note_on_c, 1, 60, 127
1, 471421, Note_off_c, 1, 79, 0
1, 471430, Note_on_c, 1, 77, 127
1, 471635, Note_off_c, 1, 77, 0
1, 471641, Note_off_c, 1, 60, 0
1, 471651, Note_on_c, 1, 76, 127
1, 471651, Note_on_c, 1, 48, 127
1, 471863, Note_off_c, 1, 76, 0
1, 471872, Note_on_c, 1, 74, 127
1, 472077, Note_off_c, 1, 74, 0
1, 472083, Note_off_c, 1, 48, 0
1, 472093, Note_on_c, 1, 76, 127
1, 472093, Note_on_c, 1, 46, 127
1, 472305, Note_off_c, 1, 76, 0
1, 472314, Note_on_c, 1, 72, 127
1, 472519, Note_off_c, 1, 72, 0
1, 472525, Note_off_c, 1, 46, 0
1, 472535, Note_on_c, 1, 77, 127
1, 472535, Note_on_c, 1, 45, 127
1, 472747, Note_off_c, 1, 77, 0
1, 472747, Note_off_c, 1, 45, 0
1, 472756, Note_on_c, 1, 79, 127
1, 472756, Note_on_c, 1, 48, 127
1, 472968, Note_off_c, 1, 79, 0
1, 472968, Note_off_c, 1, 48, 0
1, 472976, Note_on_c, 1, 81, 127
1, 472976, Note_on_c, 1, 46, 127
1, 473078, Note_off_c, 1, 81, 0
1, 473088, Note_on_c, 1, 79, 127
1, 473190, Note_off_c, 1, 46, 0
1, 473190, Note_off_c, 1, 79, 0
1, 473199, Note_on_c, 1, 81, 127
1, 473199, Note_on_c, 1, 45, 127
1, 473301, Note_off_c, 1, 81, 0
1, 473311, Note_on_c, 1, 79, 127
1, 473413, Note_off_c, 1, 45, 0
1, 473413, Note_off_c, 1, 79, 0
1, 473421, Note_on_c, 1, 81, 127
1, 473421, Note_on_c, 1, 46, 127
1, 473523, Note_off_c, 1, 81, 0
1, 473534, Note_on_c, 1, 79, 127
1, 473635, Note_off_c, 1, 46, 0
1, 473636, Note_off_c, 1, 79, 0
1, 473644, Note_on_c, 1, 77, 127
1, 473644, Note_on_c, 1, 48, 127
1, 473746, Note_off_c, 1, 77, 0
1, 473756, Note_on_c, 1, 79, 127
1, 473858, Note_off_c, 1, 48, 0
1, 473858, Note_off_c, 1, 79, 0
1, 473867, Note_on_c, 1, 41, 127
1, 473867, Note_on_c, 1, 81, 127
1, 474301, Note_off_c, 1, 41, 0
1, 474311, Note_on_c, 1, 53, 127
1, 474523, Note_off_c, 1, 53, 0
1, 474532, Note_on_c, 1, 52, 127
1, 474744, Note_off_c, 1, 52, 0
1, 474974, Note_on_c, 1, 50, 127
1, 475185, Note_off_c, 1, 81, 0
1, 475186, Note_off_c, 1, 50, 0
1, 475195, Note_on_c, 1, 69, 127
1, 475195, Note_on_c, 1, 49, 127
1, 475407, Note_off_c, 1, 69, 0
1, 475407, Note_off_c, 1, 49, 0
1, 475415, Note_on_c, 1, 71, 127
1, 475415, Note_on_c, 1, 50, 127
1, 475627, Note_off_c, 1, 71, 0
1, 475627, Note_off_c, 1, 50, 0
1, 475637, Note_on_c, 1, 52, 127
1, 475637, Note_on_c, 1, 73, 127
1, 475849, Note_off_c, 1, 52, 0
1, 475857, Note_on_c, 1, 55, 127
1, 475953, Note_off_c, 1, 73, 0
1, 476071, Note_off_c, 1, 55, 0
1, 476080, Note_on_c, 1, 53, 127
1, 476080, Note_on_c, 1, 74, 127
1, 476292, Note_off_c, 1, 53, 0
1, 476301, Note_on_c, 1, 57, 127
1, 476396, Note_off_c, 1, 74, 0
1, 476515, Note_off_c, 1, 57, 0
1, 476525, Note_on_c, 1, 73, 127
1, 476525, Note_on_c, 1, 45, 127
1, 476737, Note_off_c, 1, 73, 0
1, 476737, Note_off_c, 1, 45, 0
1, 476745, Note_on_c, 1, 74, 127
1, 476745, Note_on_c, 1, 47, 127
1, 476957, Note_off_c, 1, 74, 0
1, 476957, Note_off_c, 1, 47, 0
1, 476966, Note_on_c, 1, 49, 127
1, 476966, Note_on_c, 1, 76, 127
1, 477178, Note_off_c, 1, 49, 0
1, 477187, Note_on_c, 1, 52, 127
1, 477282, Note_off_c, 1, 76, 0
1, 477401, Note_off_c, 1, 52, 0
1, 477411, Note_on_c, 1, 50, 127
1, 477411, Note_on_c, 1, 77, 127
1, 477623, Note_off_c, 1, 50, 0
1, 477631, Note_on_c, 1, 53, 127
1, 477727, Note_off_c, 1, 77, 0
1, 477845, Note_off_c, 1, 53, 0
1, 477853, Note_on_c, 1, 77, 127
1, 477853, Note_on_c, 1, 46, 127
1, 478065, Note_off_c, 1, 77, 0
1, 478074, Note_on_c, 1, 76, 127
1, 478285, Note_off_c, 1, 46, 0
1, 478286, Note_off_c, 1, 76, 0
1, 478295, Note_on_c, 1, 77, 127
1, 478295, Note_on_c, 1, 43, 127
1, 478507, Note_off_c, 1, 77, 0
1, 478516, Note_on_c, 1, 76, 127
1, 478727, Note_off_c, 1, 43, 0
1, 478728, Note_off_c, 1, 76, 0
1, 478736, Note_on_c, 1, 74, 127
1, 478736, Note_on_c, 1, 45, 127
1, 478948, Note_off_c, 1, 74, 0
1, 478958, Note_on_c, 1, 73, 127
1, 479168, Note_off_c, 1, 45, 0
1, 479170, Note_off_c, 1, 73, 0
1, 479178, Note_on_c, 1, 38, 127
1, 479178, Note_on_c, 1, 74, 127
1, 479390, Note_off_c, 1, 38, 0
1, 479400, Note_on_c, 1, 45, 127
1, 479612, Note_off_c, 1, 45, 0
1, 479620, Note_on_c, 1, 50, 127
1, 479832, Note_off_c, 1, 50, 0
1, 479841, Note_on_c, 1, 52, 127
1, 480053, Note_off_c, 1, 52, 0
1, 480062, Note_on_c, 1, 53, 127
1, 480274, Note_off_c, 1, 53, 0
1, 480283, Note_on_c, 1, 55, 127
1, 480494, Note_off_c, 1, 74, 0
1, 480495, Note_off_c, 1, 55, 0
1, 480504, Note_on_c, 1, 57, 127
1, 480504, Note_on_c, 1, 77, 127
1, 480716, Note_off_c, 1, 57, 0
1, 480725, Note_on_c, 1, 55, 127
1, 480936, Note_off_c, 1, 77, 0
1, 480937, Note_off_c, 1, 55, 0
1, 480947, Note_on_c, 1, 75, 127
1, 480947, Note_on_c, 1, 53, 127
1, 481159, Note_off_c, 1, 75, 0
1, 481159, Note_off_c, 1, 53, 0
1, 481167, Note_on_c, 1, 74, 127
1, 481167, Note_on_c, 1, 55, 127
1, 481379, Note_off_c, 1, 74, 0
1, 481379, Note_off_c, 1, 55, 0
1, 481388, Note_on_c, 1, 72, 127
1, 481388, Note_on_c, 1, 57, 127
1, 481600, Note_off_c, 1, 72, 0
1, 481609, Note_on_c, 1, 74, 127
1, 481820, Note_off_c, 1, 57, 0
1, 481821, Note_off_c, 1, 74, 0
1, 481830, Note_on_c, 1, 75, 127
1, 481830, Note_on_c, 1, 58, 127
1, 482042, Note_off_c, 1, 75, 0
1, 482051, Note_on_c, 1, 74, 127
1, 482251, Note_off_c, 1, 74, 0
1, 482264, Note_off_c, 1, 58, 0
1, 482274, Note_on_c, 1, 72, 127
1, 482274, Note_on_c, 1, 46, 127
1, 482486, Note_off_c, 1, 72, 0
1, 482486, Note_off_c, 1, 46, 0
1, 482495, Note_on_c, 1, 70, 127
1, 482495, Note_on_c, 1, 53, 127
1, 482695, Note_off_c, 1, 70, 0
1, 482709, Note_off_c, 1, 53, 0
1, 482717, Note_on_c, 1, 55, 127
1, 482717, Note_on_c, 1, 74, 127
1, 482929, Note_off_c, 1, 55, 0
1, 482938, Note_on_c, 1, 57, 127
1, 483033, Note_off_c, 1, 74, 0
1, 483152, Note_off_c, 1, 57, 0
1, 483161, Note_on_c, 1, 58, 127
1, 483161, Note_on_c, 1, 79, 127
1, 483373, Note_off_c, 1, 58, 0
1, 483383, Note_on_c, 1, 57, 127
1, 483593, Note_off_c, 1, 79, 0
1, 483595, Note_off_c, 1, 57, 0
1, 483603, Note_on_c, 1, 77, 127
1, 483603, Note_on_c, 1, 55, 127
1, 483815, Note_off_c, 1, 77, 0
1, 483815, Note_off_c, 1, 55, 0
1, 483823, Note_on_c, 1, 76, 127
1, 483823, Note_on_c, 1, 57, 127
1, 484035, Note_off_c, 1, 76, 0
1, 484035, Note_off_c, 1, 57, 0
1, 484045, Note_on_c, 1, 74, 127
1, 484045, Note_on_c, 1, 59, 127
1, 484257, Note_off_c, 1, 74, 0
1, 484266, Note_on_c, 1, 76, 127
1, 484477, Note_off_c, 1, 59, 0
1, 484478, Note_off_c, 1, 76, 0
1, 484487, Note_on_c, 1, 77, 127
1, 484487, Note_on_c, 1, 60, 127
1, 484699, Note_off_c, 1, 77, 0
1, 484707, Note_on_c, 1, 76, 127
1, 484907, Note_off_c, 1, 76, 0
1, 484921, Note_off_c, 1, 60, 0
1, 484931, Note_on_c, 1, 74, 127
1, 484931, Note_on_c, 1, 48, 127
1, 485143, Note_off_c, 1, 74, 0
1, 485143, Note_off_c, 1, 48, 0
1, 485152, Note_on_c, 1, 72, 127
1, 485152, Note_on_c, 1, 62, 127
1, 485352, Note_off_c, 1, 72, 0
1, 485366, Note_off_c, 1, 62, 0
1, 485374, Note_on_c, 1, 74, 127
1, 485374, Note_on_c, 1, 60, 127
1, 485586, Note_off_c, 1, 74, 0
1, 485586, Note_off_c, 1, 60, 0
1, 485595, Note_on_c, 1, 76, 127
1, 485595, Note_on_c, 1, 58, 127
1, 485782, Note_off_c, 1, 76, 0
1, 485807, Note_off_c, 1, 58, 0
1, 485816, Note_on_c, 1, 77, 127
1, 485816, Note_on_c, 1, 57, 127
1, 486028, Note_off_c, 1, 77, 0
1, 486028, Note_off_c, 1, 57, 0
1, 486037, Note_on_c, 1, 79, 127
1, 486037, Note_on_c, 1, 58, 127
1, 486249, Note_off_c, 1, 79, 0
1, 486249, Note_off_c, 1, 58, 0
1, 486258, Note_on_c, 1, 81, 127
1, 486258, Note_on_c, 1, 57, 127
1, 486360, Note_off_c, 1, 81, 0
1, 486370, Note_on_c, 1, 79, 127
1, 486472, Note_off_c, 1, 57, 0
1, 486472, Note_off_c, 1, 79, 0
1, 486481, Note_on_c, 1, 81, 127
1, 486481, Note_on_c, 1, 55, 127
1, 486583, Note_off_c, 1, 81, 0
1, 486592, Note_on_c, 1, 79, 127
1, 486694, Note_off_c, 1, 79, 0
1, 486695, Note_off_c, 1, 55, 0
1, 486704, Note_on_c, 1, 81, 127
1, 486704, Note_on_c, 1, 53, 127
1, 486806, Note_off_c, 1, 81, 0
1, 486814, Note_on_c, 1, 79, 127
1, 486916, Note_off_c, 1, 79, 0
1, 486918, Note_off_c, 1, 53, 0
1, 486927, Note_on_c, 1, 77, 127
1, 486927, Note_on_c, 1, 52, 127
1, 487029, Note_off_c, 1, 77, 0
1, 487036, Note_on_c, 1, 79, 127
1, 487138, Note_off_c, 1, 79, 0
1, 487141, Note_off_c, 1, 52, 0
1, 487148, Note_on_c, 1, 81, 127
1, 487148, Note_on_c, 1, 53, 127
1, 487360, Note_off_c, 1, 81, 0
1, 487360, Note_off_c, 1, 53, 0
1, 487369, Note_on_c, 1, 82, 127
1, 487369, Note_on_c, 1, 55, 127
1, 487581, Note_off_c, 1, 82, 0
1, 487581, Note_off_c, 1, 55, 0
1, 487590, Note_on_c, 1, 53, 127
1, 487590, Note_on_c, 1, 84, 127
1, 487802, Note_off_c, 1, 53, 0
1, 487810, Note_on_c, 1, 52, 127
1, 488022, Note_off_c, 1, 52, 0
1, 488032, Note_on_c, 1, 50, 127
1, 488032, Note_on_c, 1, 72, 127
1, 488244, Note_off_c, 1, 50, 0
1, 488249, Note_off_c, 1, 84, 0
1, 488252, Note_on_c, 1, 48, 127
1, 488348, Note_off_c, 1, 72, 0
1, 488466, Note_off_c, 1, 48, 0
1, 488476, Note_on_c, 1, 46, 127
1, 488476, Note_on_c, 1, 74, 127
1, 488688, Note_off_c, 1, 46, 0
1, 488696, Note_on_c, 1, 45, 127
1, 488908, Note_off_c, 1, 74, 0
1, 488908, Note_off_c, 1, 45, 0
1, 488917, Note_on_c, 1, 76, 127
1, 488917, Note_on_c, 1, 43, 127
1, 489019, Note_off_c, 1, 76, 0
1, 489029, Note_on_c, 1, 77, 127
1, 489131, Note_off_c, 1, 77, 0
1, 489139, Note_on_c, 1, 79, 127
1, 489351, Note_off_c, 1, 43, 0
1, 489351, Note_off_c, 1, 79, 0
1, 489362, Note_on_c, 1, 77, 127
1, 489362, Note_on_c, 1, 48, 127
1, 489574, Note_off_c, 1, 77, 0
1, 489582, Note_on_c, 1, 76, 127
1, 489794, Note_off_c, 1, 48, 0
1, 489794, Note_off_c, 1, 76, 0
1, 489803, Note_on_c, 1, 41, 127
1, 489803, Note_on_c, 1, 77, 127
1, 490237, Note_off_c, 1, 41, 0
1, 490246, Note_on_c, 1, 48, 127
1, 490680, Note_off_c, 1, 48, 0
1, 490681, Note_off_c, 1, 77, 0
1, 490690, Note_on_c, 1, 53, 127
1, 491124, Note_off_c, 1, 53, 0
1, 491133, Note_on_c, 1, 50, 127
1, 491133, Note_on_c, 1, 77, 127
1, 491345, Note_off_c, 1, 50, 0
1, 491355, Note_on_c, 1, 57, 127
1, 491565, Note_off_c, 1, 77, 0
1, 491567, Note_off_c, 1, 57, 0
1, 491575, Note_on_c, 1, 52, 127
1, 491575, Note_on_c, 1, 76, 127
1, 491787, Note_off_c, 1, 52, 0
1, 491797, Note_on_c, 1, 57, 127
1, 492007, Note_off_c, 1, 76, 0
1, 492009, Note_off_c, 1, 57, 0
1, 492018, Note_on_c, 1, 53, 127
1, 492018, Note_on_c, 1, 74, 127
1, 492230, Note_off_c, 1, 53, 0
1, 492238, Note_on_c, 1, 57, 127
1, 492450, Note_off_c, 1, 74, 0
1, 492450, Note_off_c, 1, 57, 0
1, 492460, Note_on_c, 1, 74, 127
1, 492460, Note_on_c, 1, 55, 127
1, 492672, Note_off_c, 1, 74, 0
1, 492674, Note_off_c, 1, 55, 0
1, 492681, Note_on_c, 1, 73, 127
1, 492681, Note_on_c, 1, 57, 127
1, 492745, Note_off_c, 1, 73, 0
1, 492757, Note_on_c, 1, 74, 127
1, 492821, Note_off_c, 1, 74, 0
1, 492895, Note_off_c, 1, 57, 0
1, 492905, Note_on_c, 1, 53, 127
1, 492905, Note_on_c, 1, 73, 127
1, 493117, Note_off_c, 1, 53, 0
1, 493126, Note_on_c, 1, 57, 127
1, 493337, Note_off_c, 1, 73, 0
1, 493338, Note_off_c, 1, 57, 0
1, 493347, Note_on_c, 1, 52, 127
1, 493347, Note_on_c, 1, 74, 127
1, 493559, Note_off_c, 1, 52, 0
1, 493567, Note_on_c, 1, 57, 127
1, 493779, Note_off_c, 1, 74, 0
1, 493779, Note_off_c, 1, 57, 0
1, 493790, Note_on_c, 1, 53, 127
1, 493790, Note_on_c, 1, 69, 127
1, 494002, Note_off_c, 1, 53, 0
1, 494010, Note_on_c, 1, 57, 127
1, 494222, Note_off_c, 1, 69, 0
1, 494222, Note_off_c, 1, 57, 0
1, 494230, Note_on_c, 1, 70, 127
1, 494230, Note_on_c, 1, 55, 127
1, 494442, Note_off_c, 1, 70, 0
1, 494442, Note_off_c, 1, 55, 0
1, 494451, Note_on_c, 1, 69, 127
1, 494451, Note_on_c, 1, 53, 127
1, 494663, Note_off_c, 1, 69, 0
1, 494663, Note_off_c, 1, 53, 0
1, 494673, Note_on_c, 1, 67, 127
1, 494673, Note_on_c, 1, 52, 127
1, 494885, Note_off_c, 1, 67, 0
1, 494885, Note_off_c, 1, 52, 0
1, 494894, Note_on_c, 1, 70, 127
1, 494894, Note_on_c, 1, 50, 127
1, 495106, Note_off_c, 1, 70, 0
1, 495106, Note_off_c, 1, 50, 0
1, 495114, Note_on_c, 1, 50, 127
1, 495114, Note_on_c, 1, 69, 127
1, 495216, Note_off_c, 1, 50, 0
1, 495225, Note_on_c, 1, 49, 127
1, 495327, Note_off_c, 1, 49, 0
1, 495550, Note_off_c, 1, 69, 0
1, 495560, Note_on_c, 1, 67, 127
1, 495560, Note_on_c, 1, 50, 127
1, 495772, Note_off_c, 1, 67, 0
1, 495781, Note_on_c, 1, 65, 127
1, 495993, Note_off_c, 1, 65, 0
1, 496001, Note_on_c, 1, 64, 127
1, 496213, Note_off_c, 1, 64, 0
1, 496215, Note_off_c, 1, 50, 0
1, 496221, Note_on_c, 1, 62, 127
1, 496433, Note_off_c, 1, 62, 0
1, 496443, Note_on_c, 1, 50, 127
1, 496443, Note_on_c, 1, 77, 127
1, 496655, Note_off_c, 1, 50, 0
1, 496663, Note_on_c, 1, 62, 127
1, 496875, Note_off_c, 1, 77, 0
1, 496875, Note_off_c, 1, 62, 0
1, 496885, Note_on_c, 1, 52, 127
1, 496885, Note_on_c, 1, 76, 127
1, 497097, Note_off_c, 1, 52, 0
1, 497106, Note_on_c, 1, 62, 127
1, 497317, Note_off_c, 1, 76, 0
1, 497318, Note_off_c, 1, 62, 0
1, 497327, Note_on_c, 1, 53, 127
1, 497327, Note_on_c, 1, 74, 127
1, 497539, Note_off_c, 1, 53, 0
1, 497548, Note_on_c, 1, 62, 127
1, 497759, Note_off_c, 1, 74, 0
1, 497760, Note_off_c, 1, 62, 0
1, 497769, Note_on_c, 1, 82, 127
1, 497769, Note_on_c, 1, 55, 127
1, 497990, Note_on_c, 1, 62, 127
1, 498201, Note_off_c, 1, 82, 0
1, 498202, Note_off_c, 1, 62, 0
1, 498210, Note_on_c, 1, 61, 127
1, 498210, Note_on_c, 1, 81, 127
1, 498422, Note_off_c, 1, 61, 0
1, 498432, Note_on_c, 1, 57, 127
1, 498644, Note_off_c, 1, 55, 0
1, 498644, Note_off_c, 1, 57, 0
1, 498874, Note_on_c, 1, 53, 127
1, 499086, Note_off_c, 1, 53, 0
1, 499094, Note_on_c, 1, 58, 127
1, 499526, Note_off_c, 1, 81, 0
1, 499537, Note_on_c, 1, 79, 127
1, 499749, Note_off_c, 1, 79, 0
1, 499757, Note_on_c, 1, 77, 127
1, 499757, Note_on_c, 1, 64, 127
1, 499969, Note_off_c, 1, 77, 0
1, 499969, Note_off_c, 1, 64, 0
1, 499979, Note_on_c, 1, 76, 127
1, 499979, Note_on_c, 1, 65, 127
1, 500191, Note_off_c, 1, 76, 0
1, 500191, Note_off_c, 1, 65, 0
1, 500199, Note_on_c, 1, 67, 127
1, 500199, Note_on_c, 1, 74, 127
1, 500410, Note_off_c, 1, 58, 0
1, 500411, Note_off_c, 1, 67, 0
1, 500413, Note_off_c, 1, 74, 0
1, 500423, Note_on_c, 1, 74, 127
1, 500423, Note_on_c, 1, 69, 127
1, 500643, Note_on_c, 1, 65, 127
1, 500853, Note_off_c, 1, 74, 0
1, 500855, Note_off_c, 1, 65, 0
1, 500864, Note_on_c, 1, 73, 127
1, 500864, Note_on_c, 1, 64, 127
1, 500928, Note_off_c, 1, 73, 0
1, 501078, Note_off_c, 1, 64, 0
1, 501086, Note_on_c, 1, 62, 127
1, 501300, Note_off_c, 1, 62, 0
1, 501310, Note_on_c, 1, 61, 127
1, 501522, Note_off_c, 1, 61, 0
1, 501531, Note_on_c, 1, 59, 127
1, 501743, Note_off_c, 1, 69, 0
1, 501745, Note_off_c, 1, 59, 0
1, 501754, Note_on_c, 1, 57, 127
1, 501754, Note_on_c, 1, 76, 127
1, 501754, Note_on_c, 1, 73, 127
1, 501966, Note_off_c, 1, 57, 0
1, 501974, Note_on_c, 1, 58, 127
1, 502186, Note_off_c, 1, 76, 0
1, 502186, Note_off_c, 1, 58, 0
1, 502195, Note_on_c, 1, 77, 127
1, 502407, Note_off_c, 1, 77, 0
1, 502416, Note_on_c, 1, 55, 127
1, 502628, Note_off_c, 1, 55, 0
1, 502637, Note_on_c, 1, 74, 127
1, 502637, Note_on_c, 1, 53, 127
1, 502849, Note_off_c, 1, 74, 0
1, 502849, Note_off_c, 1, 53, 0
1, 502858, Note_on_c, 1, 52, 127
1, 503070, Note_off_c, 1, 73, 0
1, 503072, Note_off_c, 1, 52, 0
1, 503081, Note_on_c, 1, 50, 127
1, 503081, Note_on_c, 1, 77, 127
1, 503293, Note_off_c, 1, 50, 0
1, 503302, Note_on_c, 1, 52, 127
1, 503513, Note_off_c, 1, 77, 0
1, 503514, Note_off_c, 1, 52, 0
1, 503522, Note_on_c, 1, 53, 127
1, 503522, Note_on_c, 1, 70, 127
1, 503734, Note_off_c, 1, 53, 0
1, 503744, Note_on_c, 1, 55, 127
1, 503956, Note_off_c, 1, 55, 0
1, 503965, Note_on_c, 1, 57, 127
1, 504177, Note_off_c, 1, 57, 0
1, 504185, Note_on_c, 1, 58, 127
1, 504397, Note_off_c, 1, 58, 0
1, 504406, Note_on_c, 1, 60, 127
1, 504627, Note_on_c, 1, 52, 127
1, 504838, Note_off_c, 1, 70, 0
1, 504839, Note_off_c, 1, 52, 0
1, 504849, Note_on_c, 1, 69, 127
1, 505061, Note_off_c, 1, 69, 0
1, 505069, Note_on_c, 1, 67, 127
1, 505281, Note_off_c, 1, 67, 0
1, 505512, Note_on_c, 1, 65, 127
1, 505512, Note_on_c, 1, 50, 127
1, 505722, Note_off_c, 1, 60, 0
1, 505726, Note_off_c, 1, 65, 0
1, 505726, Note_off_c, 1, 50, 0
1, 505735, Note_on_c, 1, 52, 127
1, 505735, Note_on_c, 1, 67, 127
1, 505947, Note_off_c, 1, 52, 0
1, 505955, Note_on_c, 1, 53, 127
1, 506167, Note_off_c, 1, 67, 0
1, 506167, Note_off_c, 1, 53, 0
1, 506175, Note_on_c, 1, 52, 127
1, 506175, Note_on_c, 1, 60, 127
1, 506387, Note_off_c, 1, 52, 0
1, 506398, Note_on_c, 1, 50, 127
1, 506607, Note_off_c, 1, 60, 0
1, 506610, Note_off_c, 1, 50, 0
1, 506618, Note_on_c, 1, 48, 127
1, 506618, Note_on_c, 1, 72, 127
1, 506830, Note_off_c, 1, 48, 0
1, 506839, Note_on_c, 1, 46, 127
1, 507051, Note_off_c, 1, 46, 0
1, 507059, Note_on_c, 1, 45, 127
1, 507493, Note_off_c, 1, 72, 0
1, 507502, Note_on_c, 1, 70, 127
1, 507714, Note_off_c, 1, 70, 0
1, 507722, Note_on_c, 1, 69, 127
1, 507934, Note_off_c, 1, 69, 0
1, 507944, Note_on_c, 1, 67, 127
1, 507944, Note_on_c, 1, 53, 127
1, 508156, Note_off_c, 1, 67, 0
1, 508165, Note_on_c, 1, 65, 127
1, 508375, Note_off_c, 1, 45, 0
1, 508379, Note_off_c, 1, 65, 0
1, 508387, Note_on_c, 1, 75, 127
1, 508600, Note_off_c, 1, 53, 0
1, 508607, Note_on_c, 1, 55, 127
1, 508819, Note_off_c, 1, 55, 0
1, 508829, Note_on_c, 1, 74, 127
1, 508830, Note_off_c, 1, 75, 0
1, 508893, Note_off_c, 1, 74, 0
1, 509051, Note_on_c, 1, 51, 127
1, 509265, Note_off_c, 1, 51, 0
1, 509274, Note_on_c, 1, 50, 127
1, 509486, Note_off_c, 1, 50, 0
1, 509718, Note_on_c, 1, 47, 127
1, 510380, Note_on_c, 1, 71, 127
1, 510592, Note_off_c, 1, 71, 0
1, 511034, Note_off_c, 1, 47, 0
1, 511045, Note_on_c, 1, 77, 127
1, 511266, Note_on_c, 1, 57, 127
1, 511368, Note_off_c, 1, 77, 0
1, 511378, Note_on_c, 1, 76, 127
1, 511480, Note_off_c, 1, 57, 0
1, 511480, Note_off_c, 1, 76, 0
1, 511939, Note_on_c, 1, 52, 127
1, 512151, Note_off_c, 1, 52, 0
1, 512604, Note_on_c, 1, 79, 127
1, 512604, Note_on_c, 1, 52, 127
1, 512816, Note_off_c, 1, 79, 0
1, 512816, Note_off_c, 1, 52, 0
1, 512825, Note_on_c, 1, 77, 127
1, 512825, Note_on_c, 1, 50, 127
1, 513037, Note_off_c, 1, 77, 0
1, 513037, Note_off_c, 1, 50, 0
1, 513047, Note_on_c, 1, 76, 127
1, 513047, Note_on_c, 1, 48, 127
1, 513259, Note_off_c, 1, 76, 0
1, 513259, Note_off_c, 1, 48, 0
1, 513267, Note_on_c, 1, 74, 127
1, 513267, Note_on_c, 1, 46, 127
1, 513479, Note_off_c, 1, 74, 0
1, 513479, Note_off_c, 1, 46, 0
1, 513487, Note_on_c, 1, 72, 127
1, 513487, Note_on_c, 1, 45, 127
1, 513699, Note_off_c, 1, 72, 0
1, 513699, Note_off_c, 1, 45, 0
1, 513710, Note_on_c, 1, 43, 127
1, 513710, Note_on_c, 1, 82, 127
1, 513922, Note_off_c, 1, 43, 0
1, 513930, Note_on_c, 1, 50, 127
1, 514142, Note_off_c, 1, 82, 0
1, 514142, Note_off_c, 1, 50, 0
1, 514151, Note_on_c, 1, 81, 127
1, 514151, Note_on_c, 1, 52, 127
1, 514363, Note_off_c, 1, 81, 0
1, 514363, Note_off_c, 1, 52, 0
1, 514372, Note_on_c, 1, 79, 127
1, 514372, Note_on_c, 1, 48, 127
1, 514584, Note_off_c, 1, 79, 0
1, 514584, Note_off_c, 1, 48, 0
1, 514594, Note_on_c, 1, 81, 127
1, 514594, Note_on_c, 1, 53, 127
1, 514806, Note_off_c, 1, 81, 0
1, 514806, Note_off_c, 1, 53, 0
1, 514814, Note_on_c, 1, 77, 127
1, 514814, Note_on_c, 1, 45, 127
1, 515026, Note_off_c, 1, 77, 0
1, 515026, Note_off_c, 1, 45, 0
1, 515034, Note_on_c, 1, 46, 127
1, 515034, Note_on_c, 1, 74, 127
1, 515246, Note_off_c, 1, 46, 0
1, 515256, Note_on_c, 1, 50, 127
1, 515466, Note_off_c, 1, 74, 0
1, 515468, Note_off_c, 1, 50, 0
1, 515477, Note_on_c, 1, 43, 127
1, 515477, Note_on_c, 1, 70, 127
1, 515477, Note_on_c, 1, 79, 127
1, 515689, Note_off_c, 1, 43, 0
1, 515698, Note_on_c, 1, 46, 127
1, 515909, Note_off_c, 1, 70, 0
1, 515909, Note_off_c, 1, 79, 0
1, 515910, Note_off_c, 1, 46, 0
1, 515918, Note_on_c, 1, 48, 127
1, 515918, Note_on_c, 1, 67, 127
1, 515918, Note_on_c, 1, 76, 127
1, 516130, Note_off_c, 1, 48, 0
1, 516141, Note_on_c, 1, 36, 127
1, 516350, Note_off_c, 1, 67, 0
1, 516350, Note_off_c, 1, 76, 0
1, 516353, Note_off_c, 1, 36, 0
1, 516361, Note_on_c, 1, 41, 127
1, 516361, Note_on_c, 1, 69, 127
1, 516361, Note_on_c, 1, 77, 127
1, 516573, Note_off_c, 1, 41, 0
1, 516581, Note_on_c, 1, 45, 127
1, 516793, Note_off_c, 1, 45, 0
1, 516803, Note_on_c, 1, 46, 127
1, 517015, Note_off_c, 1, 46, 0
1, 517024, Note_on_c, 1, 48, 127
1, 517236, Note_off_c, 1, 69, 0
1, 517236, Note_off_c, 1, 48, 0
1, 517245, Note_on_c, 1, 50, 127
1, 517457, Note_off_c, 1, 50, 0
1, 517465, Note_on_c, 1, 52, 127
1, 517677, Note_off_c, 1, 77, 0
1, 517677, Note_off_c, 1, 52, 0
1, 517687, Note_on_c, 1, 53, 127
1, 517687, Note_on_c, 1, 69, 127
1, 517899, Note_off_c, 1, 53, 0
1, 517908, Note_on_c, 1, 57, 127
1, 518119, Note_off_c, 1, 69, 0
1, 518120, Note_off_c, 1, 57, 0
1, 518129, Note_on_c, 1, 72, 127
1, 518129, Note_on_c, 1, 55, 127
1, 518231, Note_off_c, 1, 72, 0
1, 518241, Note_on_c, 1, 71, 127
1, 518343, Note_off_c, 1, 55, 0
1, 518343, Note_off_c, 1, 71, 0
1, 518351, Note_on_c, 1, 69, 127
1, 518351, Note_on_c, 1, 53, 127
1, 518453, Note_off_c, 1, 69, 0
1, 518463, Note_on_c, 1, 71, 127
1, 518565, Note_off_c, 1, 53, 0
1, 518565, Note_off_c, 1, 71, 0
1, 518573, Note_on_c, 1, 52, 127
1, 518573, Note_on_c, 1, 72, 127
1, 518785, Note_off_c, 1, 52, 0
1, 518795, Note_on_c, 1, 50, 127
1, 518958, Note_off_c, 1, 72, 0
1, 519009, Note_off_c, 1, 50, 0
1, 519017, Note_on_c, 1, 55, 127
1, 519017, Note_on_c, 1, 71, 127
1, 519229, Note_off_c, 1, 55, 0
1, 519239, Note_on_c, 1, 53, 127
1, 519333, Note_off_c, 1, 71, 0
1, 519453, Note_off_c, 1, 53, 0
1, 519461, Note_on_c, 1, 52, 127
1, 519461, Note_on_c, 1, 79, 127
1, 519673, Note_off_c, 1, 52, 0
1, 519683, Note_on_c, 1, 50, 127
1, 519895, Note_off_c, 1, 50, 0
1, 519903, Note_on_c, 1, 49, 127
1, 520115, Note_off_c, 1, 49, 0
1, 520124, Note_on_c, 1, 47, 127
1, 520336, Note_off_c, 1, 47, 0
1, 520777, Note_off_c, 1, 79, 0
1, 520787, Note_on_c, 1, 77, 127
1, 520787, Note_on_c, 1, 57, 127
1, 520787, Note_on_c, 1, 50, 127
1, 520999, Note_off_c, 1, 77, 0
1, 521008, Note_on_c, 1, 76, 127
1, 521219, Note_off_c, 1, 57, 0
1, 521219, Note_off_c, 1, 50, 0
1, 521220, Note_off_c, 1, 76, 0
1, 521230, Note_on_c, 1, 77, 127
1, 521230, Note_on_c, 1, 46, 127
1, 521230, Note_on_c, 1, 55, 127
1, 521442, Note_off_c, 1, 77, 0
1, 521450, Note_on_c, 1, 74, 127
1, 521662, Note_off_c, 1, 46, 0
1, 521662, Note_off_c, 1, 55, 0
1, 521662, Note_off_c, 1, 74, 0
1, 521671, Note_on_c, 1, 45, 127
1, 521671, Note_on_c, 1, 76, 127
1, 521892, Note_on_c, 1, 57, 127
1, 522056, Note_off_c, 1, 45, 0
1, 522105, Note_off_c, 1, 76, 0
1, 522116, Note_on_c, 1, 74, 127
1, 522116, Note_on_c, 1, 47, 127
1, 522323, Note_off_c, 1, 57, 0
1, 522328, Note_off_c, 1, 74, 0
1, 522328, Note_off_c, 1, 47, 0
1, 522336, Note_on_c, 1, 73, 127
1, 522336, Note_on_c, 1, 57, 127
1, 522548, Note_off_c, 1, 73, 0
1, 522557, Note_on_c, 1, 49, 127
1, 522557, Note_on_c, 1, 71, 127
1, 522652, Note_off_c, 1, 57, 0
1, 522757, Note_off_c, 1, 49, 0
1, 522771, Note_off_c, 1, 71, 0
1, 522779, Note_on_c, 1, 69, 127
1, 522779, Note_on_c, 1, 57, 127
1, 522943, Note_off_c, 1, 69, 0
1, 523000, Note_on_c, 1, 50, 127
1, 523000, Note_on_c, 1, 77, 127
1, 523019, Note_off_c, 1, 57, 0
1, 523212, Note_off_c, 1, 50, 0
1, 523432, Note_off_c, 1, 77, 0
1, 523442, Note_on_c, 1, 52, 127
1, 523442, Note_on_c, 1, 76, 127
1, 523654, Note_off_c, 1, 52, 0
1, 523663, Note_on_c, 1, 57, 127
1, 523874, Note_off_c, 1, 76, 0
1, 523875, Note_off_c, 1, 57, 0
1, 523884, Note_on_c, 1, 53, 127
1, 523884, Note_on_c, 1, 74, 127
1, 524096, Note_off_c, 1, 53, 0
1, 524106, Note_on_c, 1, 57, 127
1, 524316, Note_off_c, 1, 74, 0
1, 524318, Note_off_c, 1, 57, 0
1, 524326, Note_on_c, 1, 74, 127
1, 524326, Note_on_c, 1, 55, 127
1, 524538, Note_off_c, 1, 74, 0
1, 524540, Note_off_c, 1, 55, 0
1, 524547, Note_on_c, 1, 73, 127
1, 524547, Note_on_c, 1, 57, 127
1, 524611, Note_off_c, 1, 73, 0
1, 524623, Note_on_c, 1, 74, 127
1, 524687, Note_off_c, 1, 74, 0
1, 524761, Note_off_c, 1, 57, 0
1, 524771, Note_on_c, 1, 53, 127
1, 524771, Note_on_c, 1, 73, 127
1, 524983, Note_off_c, 1, 53, 0
1, 524991, Note_on_c, 1, 57, 127
1, 525203, Note_off_c, 1, 73, 0
1, 525203, Note_off_c, 1, 57, 0
1, 525212, Note_on_c, 1, 52, 127
1, 525212, Note_on_c, 1, 74, 127
1, 525424, Note_off_c, 1, 52, 0
1, 525433, Note_on_c, 1, 57, 127
1, 525644, Note_off_c, 1, 74, 0
1, 525645, Note_off_c, 1, 57, 0
1, 525655, Note_on_c, 1, 53, 127
1, 525655, Note_on_c, 1, 69, 127
1, 525867, Note_off_c, 1, 53, 0
1, 525875, Note_on_c, 1, 57, 127
1, 526087, Note_off_c, 1, 69, 0
1, 526087, Note_off_c, 1, 57, 0
1, 526097, Note_on_c, 1, 70, 127
1, 526097, Note_on_c, 1, 55, 127
1, 526309, Note_off_c, 1, 70, 0
1, 526309, Note_off_c, 1, 55, 0
1, 526318, Note_on_c, 1, 69, 127
1, 526318, Note_on_c, 1, 53, 127
1, 526530, Note_off_c, 1, 69, 0
1, 526530, Note_off_c, 1, 53, 0
1, 526538, Note_on_c, 1, 67, 127
1, 526538, Note_on_c, 1, 52, 127
1, 526750, Note_off_c, 1, 67, 0
1, 526750, Note_off_c, 1, 52, 0
1, 526759, Note_on_c, 1, 70, 127
1, 526759, Note_on_c, 1, 50, 127
1, 526971, Note_off_c, 1, 70, 0
1, 526971, Note_off_c, 1, 50, 0
1, 526980, Note_on_c, 1, 50, 127
1, 526980, Note_on_c, 1, 69, 127
1, 527082, Note_off_c, 1, 50, 0
1, 527093, Note_on_c, 1, 49, 127
1, 527195, Note_off_c, 1, 49, 0
1, 527204, Note_on_c, 1, 47, 127
1, 527306, Note_off_c, 1, 47, 0
1, 527416, Note_off_c, 1, 69, 0
1, 527426, Note_on_c, 1, 67, 127
1, 527426, Note_on_c, 1, 50, 127
1, 527638, Note_off_c, 1, 67, 0
1, 527647, Note_on_c, 1, 65, 127
1, 527859, Note_off_c, 1, 65, 0
1, 527867, Note_on_c, 1, 64, 127
1, 528079, Note_off_c, 1, 64, 0
1, 528081, Note_off_c, 1, 50, 0
1, 528089, Note_on_c, 1, 62, 127
1, 528301, Note_off_c, 1, 62, 0
1, 528310, Note_on_c, 1, 70, 127
1, 528310, Note_on_c, 1, 55, 127
1, 528534, Note_on_c, 1, 62, 127
1, 528748, Note_off_c, 1, 70, 0
1, 528749, Note_off_c, 1, 62, 0
1, 528758, Note_on_c, 1, 63, 127
1, 528758, Note_on_c, 1, 69, 127
1, 528973, Note_off_c, 1, 63, 0
1, 529196, Note_off_c, 1, 69, 0
1, 529206, Note_on_c, 1, 61, 127
1, 529206, Note_on_c, 1, 67, 127
1, 529421, Note_off_c, 1, 61, 0
1, 529644, Note_off_c, 1, 55, 0
1, 529644, Note_off_c, 1, 67, 0
1, 529655, Note_on_c, 1, 55, 127
1, 529655, Note_on_c, 1, 75, 127
1, 529870, Note_off_c, 1, 55, 0
1, 529880, Note_on_c, 1, 58, 127
1, 530093, Note_off_c, 1, 75, 0
1, 530095, Note_off_c, 1, 58, 0
1, 530103, Note_on_c, 1, 74, 127
1, 530103, Note_on_c, 1, 57, 127
1, 530318, Note_off_c, 1, 74, 0
1, 530318, Note_off_c, 1, 57, 0
1, 530328, Note_on_c, 1, 73, 127
1, 530328, Note_on_c, 1, 55, 127
1, 530543, Note_off_c, 1, 73, 0
1, 530543, Note_off_c, 1, 55, 0
1, 530552, Note_on_c, 1, 53, 127
1, 530552, Note_on_c, 1, 74, 127
1, 530767, Note_off_c, 1, 53, 0
1, 530776, Note_on_c, 1, 52, 127
1, 530991, Note_off_c, 1, 52, 0
1, 530999, Note_on_c, 1, 50, 127
1, 531214, Note_off_c, 1, 50, 0
1, 531215, Note_off_c, 1, 74, 0
1, 531224, Note_on_c, 1, 76, 127
1, 531224, Note_on_c, 1, 55, 127
1, 531439, Note_off_c, 1, 76, 0
1, 531439, Note_off_c, 1, 55, 0
1, 531447, Note_on_c, 1, 77, 127
1, 531447, Note_on_c, 1, 57, 127
1, 531447, Note_on_c, 1, 73, 127
1, 531589, Note_off_c, 1, 77, 0
1, 531598, Note_on_c, 1, 76, 127
1, 531662, Note_off_c, 1, 76, 0
1, 531884, Note_off_c, 1, 57, 0
1, 531896, Note_on_c, 1, 45, 127
1, 532108, Note_off_c, 1, 73, 0
1, 532120, Note_on_c, 1, 74, 127
1, 532334, Note_off_c, 1, 45, 0
1, 532334, Note_off_c, 1, 74, 0
1, 532344, Note_on_c, 1, 50, 127
1, 532344, Note_on_c, 1, 74, 127
1, 532857, Note_off_c, 1, 50, 0
1, 532885, Note_on_c, 1, 45, 127
1, 533368, Note_off_c, 1, 45, 0
1, 533427, Note_on_c, 1, 38, 127
1, 535306, Note_off_c, 1, 38, 0
1, 535355, Note_off_c, 1, 74, 0
1, 536370, Note_on_c, 1, 60, 127
1, 536498, Note_off_c, 1, 60, 0
1, 536522, Note_on_c, 1, 65, 127
1, 536667, Note_off_c, 1, 65, 0
1, 536675, Note_on_c, 1, 60, 127
1, 536813, Note_off_c, 1, 60, 0
1, 536824, Note_on_c, 1, 65, 127
1, 536952, Note_off_c, 1, 65, 0
1, 536978, Note_on_c, 1, 69, 127
1, 537123, Note_off_c, 1, 69, 0
1, 537128, Note_on_c, 1, 65, 127
1, 537266, Note_off_c, 1, 65, 0
1, 537277, Note_on_c, 1, 69, 127
1, 537277, Note_on_c, 1, 48, 127
1, 537405, Note_off_c, 1, 69, 0
1, 537405, Note_off_c, 1, 48, 0
1, 537430, Note_on_c, 1, 53, 127
1, 537430, Note_on_c, 1, 72, 127
1, 537575, Note_off_c, 1, 53, 0
1, 537583, Note_on_c, 1, 48, 127
1, 537721, Note_off_c, 1, 48, 0
1, 537727, Note_off_c, 1, 72, 0
1, 537734, Note_on_c, 1, 65, 127
1, 537734, Note_on_c, 1, 53, 127
1, 537862, Note_off_c, 1, 65, 0
1, 537862, Note_off_c, 1, 53, 0
1, 537887, Note_on_c, 1, 57, 127
1, 537887, Note_on_c, 1, 77, 127
1, 538032, Note_off_c, 1, 57, 0
1, 538037, Note_on_c, 1, 53, 127
1, 538175, Note_off_c, 1, 53, 0
1, 538339, Note_on_c, 1, 60, 127
1, 538486, Note_off_c, 1, 77, 0
1, 538493, Note_on_c, 1, 76, 127
1, 538631, Note_off_c, 1, 76, 0
1, 538642, Note_on_c, 1, 74, 127
1, 538770, Note_off_c, 1, 74, 0
1, 538788, Note_off_c, 1, 60, 0
1, 538794, Note_on_c, 1, 72, 127
1, 538794, Note_on_c, 1, 48, 127
1, 538939, Note_off_c, 1, 72, 0
1, 538946, Note_on_c, 1, 74, 127
1, 539084, Note_off_c, 1, 74, 0
1, 539094, Note_on_c, 1, 70, 127
1, 539222, Note_off_c, 1, 70, 0
1, 539243, Note_off_c, 1, 48, 0
1, 539248, Note_on_c, 1, 69, 127
1, 539248, Note_on_c, 1, 53, 127
1, 539393, Note_off_c, 1, 69, 0
1, 539399, Note_on_c, 1, 72, 127
1, 539537, Note_off_c, 1, 72, 0
1, 539545, Note_off_c, 1, 53, 0
1, 539552, Note_on_c, 1, 77, 127
1, 539552, Note_on_c, 1, 52, 127
1, 539680, Note_off_c, 1, 77, 0
1, 539680, Note_off_c, 1, 52, 0
1, 539703, Note_on_c, 1, 71, 127
1, 539703, Note_on_c, 1, 50, 127
1, 539848, Note_off_c, 1, 71, 0
1, 539854, Note_on_c, 1, 74, 127
1, 539992, Note_off_c, 1, 74, 0
1, 540000, Note_off_c, 1, 50, 0
1, 540007, Note_on_c, 1, 77, 127
1, 540007, Note_on_c, 1, 55, 127
1, 540135, Note_off_c, 1, 77, 0
1, 540135, Note_off_c, 1, 55, 0
1, 540159, Note_on_c, 1, 76, 127
1, 540159, Note_on_c, 1, 60, 127
1, 540304, Note_off_c, 1, 76, 0
1, 540304, Note_off_c, 1, 60, 0
1, 540311, Note_on_c, 1, 79, 127
1, 540311, Note_on_c, 1, 55, 127
1, 540449, Note_off_c, 1, 79, 0
1, 540449, Note_off_c, 1, 55, 0
1, 540461, Note_on_c, 1, 76, 127
1, 540461, Note_on_c, 1, 60, 127
1, 540589, Note_off_c, 1, 76, 0
1, 540589, Note_off_c, 1, 60, 0
1, 540613, Note_on_c, 1, 72, 127
1, 540613, Note_on_c, 1, 64, 127
1, 540758, Note_off_c, 1, 72, 0
1, 540758, Note_off_c, 1, 64, 0
1, 540764, Note_on_c, 1, 76, 127
1, 540764, Note_on_c, 1, 60, 127
1, 540902, Note_off_c, 1, 76, 0
1, 540902, Note_off_c, 1, 60, 0
1, 540915, Note_on_c, 1, 72, 127
1, 540915, Note_on_c, 1, 64, 127
1, 541043, Note_off_c, 1, 72, 0
1, 541043, Note_off_c, 1, 64, 0
1, 541067, Note_on_c, 1, 71, 127
1, 541067, Note_on_c, 1, 67, 127
1, 541212, Note_off_c, 1, 71, 0
1, 541219, Note_on_c, 1, 72, 127
1, 541357, Note_off_c, 1, 72, 0
1, 541364, Note_off_c, 1, 67, 0
1, 541370, Note_on_c, 1, 74, 127
1, 541370, Note_on_c, 1, 60, 127
1, 541498, Note_off_c, 1, 74, 0
1, 541498, Note_off_c, 1, 60, 0
1, 541522, Note_on_c, 1, 76, 127
1, 541522, Note_on_c, 1, 72, 127
1, 541667, Note_off_c, 1, 76, 0
1, 541673, Note_on_c, 1, 77, 127
1, 541811, Note_off_c, 1, 77, 0
1, 541825, Note_on_c, 1, 79, 127
1, 541953, Note_off_c, 1, 79, 0
1, 541975, Note_on_c, 1, 81, 127
1, 542120, Note_off_c, 1, 81, 0
1, 542121, Note_off_c, 1, 72, 0
1, 542129, Note_on_c, 1, 83, 127
1, 542129, Note_on_c, 1, 71, 127
1, 542267, Note_off_c, 1, 83, 0
1, 542267, Note_off_c, 1, 71, 0
1, 542278, Note_on_c, 1, 84, 127
1, 542278, Note_on_c, 1, 69, 127
1, 542406, Note_off_c, 1, 84, 0
1, 542406, Note_off_c, 1, 69, 0
1, 542429, Note_on_c, 1, 74, 127
1, 542429, Note_on_c, 1, 67, 127
1, 542574, Note_off_c, 1, 74, 0
1, 542574, Note_off_c, 1, 67, 0
1, 542582, Note_on_c, 1, 84, 127
1, 542582, Note_on_c, 1, 69, 127
1, 542720, Note_off_c, 1, 84, 0
1, 542720, Note_off_c, 1, 69, 0
1, 542732, Note_on_c, 1, 83, 127
1, 542732, Note_on_c, 1, 65, 127
1, 542860, Note_off_c, 1, 83, 0
1, 542860, Note_off_c, 1, 65, 0
1, 542884, Note_on_c, 1, 64, 127
1, 542884, Note_on_c, 1, 84, 127
1, 543029, Note_off_c, 1, 64, 0
1, 543036, Note_on_c, 1, 67, 127
1, 543174, Note_off_c, 1, 67, 0
1, 543185, Note_on_c, 1, 72, 127
1, 543313, Note_off_c, 1, 72, 0
1, 543338, Note_on_c, 1, 66, 127
1, 543483, Note_off_c, 1, 66, 0
1, 543489, Note_on_c, 1, 69, 127
1, 543560, Note_off_c, 1, 84, 0
1, 543627, Note_off_c, 1, 69, 0
1, 543641, Note_on_c, 1, 81, 127
1, 543641, Note_on_c, 1, 72, 127
1, 543769, Note_off_c, 1, 81, 0
1, 543769, Note_off_c, 1, 72, 0
1, 543791, Note_on_c, 1, 70, 127
1, 543791, Note_on_c, 1, 67, 127
1, 543936, Note_off_c, 1, 70, 0
1, 543944, Note_on_c, 1, 74, 127
1, 544082, Note_off_c, 1, 74, 0
1, 544094, Note_on_c, 1, 81, 127
1, 544222, Note_off_c, 1, 81, 0
1, 544245, Note_on_c, 1, 79, 127
1, 544390, Note_off_c, 1, 79, 0
1, 544398, Note_on_c, 1, 78, 127
1, 544467, Note_off_c, 1, 67, 0
1, 544536, Note_off_c, 1, 78, 0
1, 544548, Note_on_c, 1, 79, 127
1, 544548, Note_on_c, 1, 67, 127
1, 544676, Note_off_c, 1, 79, 0
1, 544676, Note_off_c, 1, 67, 0
1, 544699, Note_on_c, 1, 62, 127
1, 544699, Note_on_c, 1, 70, 127
1, 544844, Note_off_c, 1, 62, 0
1, 544852, Note_on_c, 1, 65, 127
1, 544990, Note_off_c, 1, 65, 0
1, 544994, Note_off_c, 1, 70, 0
1, 545001, Note_on_c, 1, 70, 127
1, 545154, Note_on_c, 1, 64, 127
1, 545290, Note_off_c, 1, 70, 0
1, 545299, Note_off_c, 1, 64, 0
1, 545305, Note_on_c, 1, 67, 127
1, 545443, Note_off_c, 1, 67, 0
1, 545455, Note_on_c, 1, 79, 127
1, 545455, Note_on_c, 1, 48, 127
1, 545455, Note_on_c, 1, 70, 127
1, 545583, Note_off_c, 1, 79, 0
1, 545583, Note_off_c, 1, 48, 0
1, 545583, Note_off_c, 1, 70, 0
1, 545607, Note_on_c, 1, 53, 127
1, 545607, Note_on_c, 1, 69, 127
1, 545752, Note_off_c, 1, 53, 0
1, 545760, Note_on_c, 1, 72, 127
1, 545760, Note_on_c, 1, 48, 127
1, 545898, Note_off_c, 1, 72, 0
1, 545898, Note_off_c, 1, 48, 0
1, 545909, Note_on_c, 1, 79, 127
1, 546037, Note_off_c, 1, 79, 0
1, 546052, Note_off_c, 1, 69, 0
1, 546061, Note_on_c, 1, 77, 127
1, 546061, Note_on_c, 1, 57, 127
1, 546206, Note_off_c, 1, 77, 0
1, 546206, Note_off_c, 1, 57, 0
1, 546213, Note_on_c, 1, 76, 127
1, 546213, Note_on_c, 1, 53, 127
1, 546351, Note_off_c, 1, 76, 0
1, 546351, Note_off_c, 1, 53, 0
1, 546363, Note_on_c, 1, 77, 127
1, 546363, Note_on_c, 1, 57, 127
1, 546491, Note_off_c, 1, 77, 0
1, 546491, Note_off_c, 1, 57, 0
1, 546515, Note_on_c, 1, 60, 127
1, 546515, Note_on_c, 1, 67, 127
1, 546668, Note_on_c, 1, 72, 127
1, 546806, Note_off_c, 1, 72, 0
1, 546812, Note_off_c, 1, 60, 0
1, 546818, Note_on_c, 1, 77, 127
1, 546818, Note_on_c, 1, 53, 127
1, 546946, Note_off_c, 1, 77, 0
1, 546946, Note_off_c, 1, 53, 0
1, 546962, Note_off_c, 1, 67, 0
1, 546971, Note_on_c, 1, 75, 127
1, 546971, Note_on_c, 1, 65, 127
1, 547116, Note_off_c, 1, 75, 0
1, 547123, Note_on_c, 1, 74, 127
1, 547261, Note_off_c, 1, 74, 0
1, 547272, Note_on_c, 1, 69, 127
1, 547400, Note_off_c, 1, 69, 0
1, 547425, Note_on_c, 1, 70, 127
1, 547568, Note_off_c, 1, 65, 0
1, 547575, Note_on_c, 1, 64, 127
1, 547713, Note_off_c, 1, 64, 0
1, 547726, Note_on_c, 1, 76, 127
1, 547726, Note_on_c, 1, 62, 127
1, 547854, Note_off_c, 1, 76, 0
1, 547854, Note_off_c, 1, 62, 0
1, 547879, Note_on_c, 1, 77, 127
1, 547879, Note_on_c, 1, 60, 127
1, 547950, Note_off_c, 1, 77, 0
1, 548024, Note_off_c, 1, 60, 0
1, 548101, Note_off_c, 1, 70, 0
1, 548183, Note_on_c, 1, 74, 127
1, 548183, Note_on_c, 1, 58, 127
1, 548243, Note_off_c, 1, 74, 0
1, 548257, Note_on_c, 1, 76, 127
1, 548309, Note_off_c, 1, 58, 0
1, 548328, Note_off_c, 1, 76, 0
1, 548332, Note_on_c, 1, 77, 127
1, 548332, Note_on_c, 1, 57, 127
1, 548477, Note_off_c, 1, 77, 0
1, 548484, Note_on_c, 1, 76, 127
1, 548622, Note_off_c, 1, 76, 0
1, 548629, Note_off_c, 1, 57, 0
1, 548635, Note_on_c, 1, 74, 127
1, 548635, Note_on_c, 1, 70, 127
1, 548635, Note_on_c, 1, 58, 127
1, 548763, Note_off_c, 1, 74, 0
1, 548763, Note_off_c, 1, 70, 0
1, 548763, Note_off_c, 1, 58, 0
1, 548789, Note_on_c, 1, 72, 127
1, 548789, Note_on_c, 1, 60, 127
1, 548789, Note_on_c, 1, 69, 127
1, 548934, Note_off_c, 1, 72, 0
1, 548939, Note_on_c, 1, 74, 127
1, 549077, Note_off_c, 1, 74, 0
1, 549086, Note_off_c, 1, 60, 0
1, 549086, Note_off_c, 1, 69, 0
1, 549092, Note_on_c, 1, 70, 127
1, 549092, Note_on_c, 1, 67, 127
1, 549092, Note_on_c, 1, 48, 127
1, 549220, Note_off_c, 1, 70, 0
1, 549220, Note_off_c, 1, 67, 0
1, 549220, Note_off_c, 1, 48, 0
1, 549243, Note_on_c, 1, 69, 127
1, 549243, Note_on_c, 1, 53, 127
1, 549243, Note_on_c, 1, 65, 127
1, 549388, Note_off_c, 1, 69, 0
1, 549388, Note_off_c, 1, 53, 0
1, 549388, Note_off_c, 1, 65, 0
1, 549395, Note_on_c, 1, 67, 127
1, 549395, Note_on_c, 1, 48, 127
1, 549533, Note_off_c, 1, 67, 0
1, 549533, Note_off_c, 1, 48, 0
1, 549545, Note_on_c, 1, 65, 127
1, 549545, Note_on_c, 1, 53, 127
1, 549673, Note_off_c, 1, 65, 0
1, 549673, Note_off_c, 1, 53, 0
1, 549698, Note_on_c, 1, 72, 127
1, 549698, Note_on_c, 1, 57, 127
1, 549843, Note_off_c, 1, 72, 0
1, 549843, Note_off_c, 1, 57, 0
1, 549848, Note_on_c, 1, 69, 127
1, 549848, Note_on_c, 1, 53, 127
1, 549986, Note_off_c, 1, 69, 0
1, 549986, Note_off_c, 1, 53, 0
1, 550000, Note_on_c, 1, 65, 127
1, 550000, Note_on_c, 1, 57, 127
1, 550128, Note_off_c, 1, 65, 0
1, 550128, Note_off_c, 1, 57, 0
1, 550151, Note_on_c, 1, 72, 127
1, 550151, Note_on_c, 1, 52, 127
1, 550222, Note_off_c, 1, 72, 0
1, 550227, Note_on_c, 1, 70, 127
1, 550296, Note_off_c, 1, 52, 0
1, 550298, Note_off_c, 1, 70, 0
1, 550303, Note_on_c, 1, 48, 127
1, 550303, Note_on_c, 1, 72, 127
1, 550441, Note_off_c, 1, 48, 0
1, 550453, Note_on_c, 1, 52, 127
1, 550581, Note_off_c, 1, 52, 0
1, 550595, Note_off_c, 1, 72, 0
1, 550605, Note_on_c, 1, 72, 127
1, 550605, Note_on_c, 1, 55, 127
1, 550750, Note_off_c, 1, 72, 0
1, 550750, Note_off_c, 1, 55, 0
1, 550757, Note_on_c, 1, 67, 127
1, 550757, Note_on_c, 1, 52, 127
1, 550895, Note_off_c, 1, 67, 0
1, 550895, Note_off_c, 1, 52, 0
1, 550908, Note_on_c, 1, 64, 127
1, 550908, Note_on_c, 1, 55, 127
1, 551036, Note_off_c, 1, 64, 0
1, 551036, Note_off_c, 1, 55, 0
1, 551059, Note_on_c, 1, 72, 127
1, 551059, Note_on_c, 1, 57, 127
1, 551130, Note_off_c, 1, 72, 0
1, 551134, Note_on_c, 1, 70, 127
1, 551204, Note_off_c, 1, 57, 0
1, 551205, Note_off_c, 1, 70, 0
1, 551211, Note_on_c, 1, 48, 127
1, 551211, Note_on_c, 1, 72, 127
1, 551349, Note_off_c, 1, 48, 0
1, 551360, Note_on_c, 1, 53, 127
1, 551488, Note_off_c, 1, 53, 0
1, 551503, Note_off_c, 1, 72, 0
1, 551513, Note_on_c, 1, 72, 127
1, 551513, Note_on_c, 1, 57, 127
1, 551658, Note_off_c, 1, 72, 0
1, 551658, Note_off_c, 1, 57, 0
1, 551664, Note_on_c, 1, 69, 127
1, 551664, Note_on_c, 1, 53, 127
1, 551802, Note_off_c, 1, 69, 0
1, 551802, Note_off_c, 1, 53, 0
1, 551816, Note_on_c, 1, 65, 127
1, 551816, Note_on_c, 1, 57, 127
1, 551944, Note_off_c, 1, 65, 0
1, 551944, Note_off_c, 1, 57, 0
1, 551966, Note_on_c, 1, 72, 127
1, 551966, Note_on_c, 1, 52, 127
1, 552037, Note_off_c, 1, 72, 0
1, 552042, Note_on_c, 1, 70, 127
1, 552111, Note_off_c, 1, 52, 0
1, 552113, Note_off_c, 1, 70, 0
1, 552119, Note_on_c, 1, 48, 127
1, 552119, Note_on_c, 1, 72, 127
1, 552257, Note_off_c, 1, 48, 0
1, 552269, Note_on_c, 1, 52, 127
1, 552397, Note_off_c, 1, 52, 0
1, 552420, Note_on_c, 1, 54, 127
1, 552565, Note_off_c, 1, 54, 0
1, 552573, Note_on_c, 1, 50, 127
1, 552677, Note_off_c, 1, 72, 0
1, 552711, Note_off_c, 1, 50, 0
1, 552724, Note_on_c, 1, 69, 127
1, 552724, Note_on_c, 1, 54, 127
1, 552852, Note_off_c, 1, 69, 0
1, 552852, Note_off_c, 1, 54, 0
1, 552874, Note_on_c, 1, 70, 127
1, 552874, Note_on_c, 1, 55, 127
1, 553019, Note_off_c, 1, 70, 0
1, 553027, Note_on_c, 1, 62, 127
1, 553165, Note_off_c, 1, 62, 0
1, 553176, Note_on_c, 1, 67, 127
1, 553304, Note_off_c, 1, 67, 0
1, 553323, Note_off_c, 1, 55, 0
1, 553329, Note_on_c, 1, 70, 127
1, 553329, Note_on_c, 1, 50, 127
1, 553474, Note_off_c, 1, 70, 0
1, 553474, Note_off_c, 1, 50, 0
1, 553480, Note_on_c, 1, 67, 127
1, 553480, Note_on_c, 1, 46, 127
1, 553618, Note_off_c, 1, 67, 0
1, 553618, Note_off_c, 1, 46, 0
1, 553632, Note_on_c, 1, 70, 127
1, 553632, Note_on_c, 1, 43, 127
1, 553760, Note_off_c, 1, 70, 0
1, 553760, Note_off_c, 1, 43, 0
1, 553782, Note_on_c, 1, 50, 127
1, 553782, Note_on_c, 1, 66, 127
1, 553853, Note_off_c, 1, 50, 0
1, 553858, Note_on_c, 1, 48, 127
1, 553927, Note_off_c, 1, 66, 0
1, 553929, Note_off_c, 1, 48, 0
1, 553934, Note_on_c, 1, 62, 127
1, 553934, Note_on_c, 1, 50, 127
1, 554072, Note_off_c, 1, 62, 0
1, 554085, Note_on_c, 1, 66, 127
1, 554213, Note_off_c, 1, 66, 0
1, 554226, Note_off_c, 1, 50, 0
1, 554236, Note_on_c, 1, 69, 127
1, 554236, Note_on_c, 1, 50, 127
1, 554381, Note_off_c, 1, 69, 0
1, 554381, Note_off_c, 1, 50, 0
1, 554389, Note_on_c, 1, 66, 127
1, 554389, Note_on_c, 1, 45, 127
1, 554527, Note_off_c, 1, 66, 0
1, 554527, Note_off_c, 1, 45, 0
1, 554539, Note_on_c, 1, 69, 127
1, 554539, Note_on_c, 1, 42, 127
1, 554667, Note_off_c, 1, 69, 0
1, 554667, Note_off_c, 1, 42, 0
1, 554689, Note_on_c, 1, 50, 127
1, 554689, Note_on_c, 1, 70, 127
1, 554760, Note_off_c, 1, 50, 0
1, 554766, Note_on_c, 1, 48, 127
1, 554834, Note_off_c, 1, 70, 0
1, 554837, Note_off_c, 1, 48, 0
1, 554842, Note_on_c, 1, 62, 127
1, 554842, Note_on_c, 1, 50, 127
1, 554980, Note_off_c, 1, 62, 0
1, 554992, Note_on_c, 1, 67, 127
1, 555120, Note_off_c, 1, 67, 0
1, 555134, Note_off_c, 1, 50, 0
1, 555145, Note_on_c, 1, 70, 127
1, 555145, Note_on_c, 1, 50, 127
1, 555290, Note_off_c, 1, 70, 0
1, 555290, Note_off_c, 1, 50, 0
1, 555296, Note_on_c, 1, 67, 127
1, 555296, Note_on_c, 1, 46, 127
1, 555434, Note_off_c, 1, 67, 0
1, 555434, Note_off_c, 1, 46, 0
1, 555446, Note_on_c, 1, 70, 127
1, 555446, Note_on_c, 1, 43, 127
1, 555574, Note_off_c, 1, 70, 0
1, 555574, Note_off_c, 1, 43, 0
1, 555597, Note_on_c, 1, 50, 127
1, 555597, Note_on_c, 1, 66, 127
1, 555668, Note_off_c, 1, 50, 0
1, 555673, Note_on_c, 1, 48, 127
1, 555742, Note_off_c, 1, 66, 0
1, 555744, Note_off_c, 1, 48, 0
1, 555750, Note_on_c, 1, 62, 127
1, 555750, Note_on_c, 1, 50, 127
1, 555888, Note_off_c, 1, 62, 0
1, 555900, Note_on_c, 1, 66, 127
1, 556028, Note_off_c, 1, 66, 0
1, 556052, Note_on_c, 1, 69, 127
1, 556197, Note_off_c, 1, 69, 0
1, 556308, Note_off_c, 1, 50, 0
1, 556353, Note_on_c, 1, 69, 127
1, 556353, Note_on_c, 1, 50, 127
1, 556481, Note_off_c, 1, 69, 0
1, 556481, Note_off_c, 1, 50, 0
1, 556505, Note_on_c, 1, 70, 127
1, 556505, Note_on_c, 1, 55, 127
1, 556650, Note_off_c, 1, 70, 0
1, 556650, Note_off_c, 1, 55, 0
1, 556658, Note_on_c, 1, 67, 127
1, 556658, Note_on_c, 1, 50, 127
1, 556796, Note_off_c, 1, 67, 0
1, 556796, Note_off_c, 1, 50, 0
1, 556807, Note_on_c, 1, 70, 127
1, 556807, Note_on_c, 1, 55, 127
1, 556935, Note_off_c, 1, 70, 0
1, 556935, Note_off_c, 1, 55, 0
1, 556961, Note_on_c, 1, 74, 127
1, 556961, Note_on_c, 1, 58, 127
1, 557106, Note_off_c, 1, 74, 0
1, 557106, Note_off_c, 1, 58, 0
1, 557112, Note_on_c, 1, 70, 127
1, 557112, Note_on_c, 1, 55, 127
1, 557250, Note_off_c, 1, 70, 0
1, 557250, Note_off_c, 1, 55, 0
1, 557261, Note_on_c, 1, 74, 127
1, 557261, Note_on_c, 1, 58, 127
1, 557389, Note_off_c, 1, 74, 0
1, 557389, Note_off_c, 1, 58, 0
1, 557413, Note_on_c, 1, 77, 127
1, 557413, Note_on_c, 1, 57, 127
1, 557484, Note_off_c, 1, 77, 0
1, 557489, Note_on_c, 1, 76, 127
1, 557558, Note_off_c, 1, 57, 0
1, 557560, Note_off_c, 1, 76, 0
1, 557566, Note_on_c, 1, 53, 127
1, 557566, Note_on_c, 1, 77, 127
1, 557704, Note_off_c, 1, 53, 0
1, 557716, Note_on_c, 1, 57, 127
1, 557844, Note_off_c, 1, 57, 0
1, 557858, Note_off_c, 1, 77, 0
1, 557867, Note_on_c, 1, 77, 127
1, 557867, Note_on_c, 1, 60, 127
1, 558012, Note_off_c, 1, 77, 0
1, 558012, Note_off_c, 1, 60, 0
1, 558020, Note_on_c, 1, 72, 127
1, 558020, Note_on_c, 1, 57, 127
1, 558158, Note_off_c, 1, 72, 0
1, 558158, Note_off_c, 1, 57, 0
1, 558169, Note_on_c, 1, 69, 127
1, 558169, Note_on_c, 1, 60, 127
1, 558297, Note_off_c, 1, 69, 0
1, 558297, Note_off_c, 1, 60, 0
1, 558321, Note_on_c, 1, 77, 127
1, 558321, Note_on_c, 1, 62, 127
1, 558392, Note_off_c, 1, 77, 0
1, 558396, Note_on_c, 1, 76, 127
1, 558466, Note_off_c, 1, 62, 0
1, 558467, Note_off_c, 1, 76, 0
1, 558473, Note_on_c, 1, 53, 127
1, 558473, Note_on_c, 1, 77, 127
1, 558611, Note_off_c, 1, 53, 0
1, 558623, Note_on_c, 1, 58, 127
1, 558751, Note_off_c, 1, 58, 0
1, 558765, Note_off_c, 1, 77, 0
1, 558775, Note_on_c, 1, 77, 127
1, 558775, Note_on_c, 1, 62, 127
1, 558920, Note_off_c, 1, 77, 0
1, 558920, Note_off_c, 1, 62, 0
1, 558928, Note_on_c, 1, 74, 127
1, 558928, Note_on_c, 1, 58, 127
1, 559066, Note_off_c, 1, 74, 0
1, 559066, Note_off_c, 1, 58, 0
1, 559076, Note_on_c, 1, 70, 127
1, 559076, Note_on_c, 1, 62, 127
1, 559204, Note_off_c, 1, 70, 0
1, 559204, Note_off_c, 1, 62, 0
1, 559229, Note_on_c, 1, 77, 127
1, 559229, Note_on_c, 1, 57, 127
1, 559300, Note_off_c, 1, 77, 0
1, 559305, Note_on_c, 1, 76, 127
1, 559374, Note_off_c, 1, 57, 0
1, 559376, Note_off_c, 1, 76, 0
1, 559381, Note_on_c, 1, 53, 127
1, 559381, Note_on_c, 1, 77, 127
1, 559519, Note_off_c, 1, 53, 0
1, 559531, Note_on_c, 1, 57, 127
1, 559659, Note_off_c, 1, 57, 0
1, 559683, Note_on_c, 1, 60, 127
1, 559828, Note_off_c, 1, 60, 0
1, 559939, Note_off_c, 1, 77, 0
1, 559984, Note_on_c, 1, 60, 127
1, 560112, Note_off_c, 1, 60, 0
1, 560137, Note_on_c, 1, 65, 127
1, 560282, Note_off_c, 1, 65, 0
1, 560287, Note_on_c, 1, 60, 127
1, 560425, Note_off_c, 1, 60, 0
1, 560439, Note_on_c, 1, 65, 127
1, 560567, Note_off_c, 1, 65, 0
1, 560590, Note_on_c, 1, 69, 127
1, 560735, Note_off_c, 1, 69, 0
1, 560743, Note_on_c, 1, 65, 127
1, 560881, Note_off_c, 1, 65, 0
1, 560892, Note_on_c, 1, 69, 127
1, 560892, Note_on_c, 1, 36, 127
1, 561020, Note_off_c, 1, 69, 0
1, 561020, Note_off_c, 1, 36, 0
1, 561045, Note_on_c, 1, 41, 127
1, 561045, Note_on_c, 1, 72, 127
1, 561190, Note_off_c, 1, 41, 0
1, 561196, Note_on_c, 1, 36, 127
1, 561334, Note_off_c, 1, 36, 0
1, 561342, Note_off_c, 1, 72, 0
1, 561348, Note_on_c, 1, 65, 127
1, 561348, Note_on_c, 1, 41, 127
1, 561476, Note_off_c, 1, 65, 0
1, 561476, Note_off_c, 1, 41, 0
1, 561501, Note_on_c, 1, 77, 127
1, 561501, Note_on_c, 1, 45, 127
1, 561572, Note_off_c, 1, 77, 0
1, 561577, Note_on_c, 1, 76, 127
1, 561646, Note_off_c, 1, 45, 0
1, 561648, Note_off_c, 1, 76, 0
1, 561651, Note_on_c, 1, 41, 127
1, 561651, Note_on_c, 1, 77, 127
1, 561789, Note_off_c, 1, 41, 0
1, 561802, Note_on_c, 1, 45, 127
1, 561930, Note_off_c, 1, 45, 0
1, 561954, Note_on_c, 1, 48, 127
1, 562092, Note_off_c, 1, 77, 0
1, 562099, Note_off_c, 1, 48, 0
1, 562105, Note_on_c, 1, 76, 127
1, 562105, Note_on_c, 1, 45, 127
1, 562243, Note_off_c, 1, 76, 0
1, 562243, Note_off_c, 1, 45, 0
1, 562257, Note_on_c, 1, 74, 127
1, 562257, Note_on_c, 1, 48, 127
1, 562385, Note_off_c, 1, 74, 0
1, 562385, Note_off_c, 1, 48, 0
1, 562408, Note_on_c, 1, 72, 127
1, 562408, Note_on_c, 1, 52, 127
1, 562553, Note_off_c, 1, 72, 0
1, 562553, Note_off_c, 1, 52, 0
1, 562560, Note_on_c, 1, 74, 127
1, 562560, Note_on_c, 1, 48, 127
1, 562698, Note_off_c, 1, 74, 0
1, 562698, Note_off_c, 1, 48, 0
1, 562709, Note_on_c, 1, 70, 127
1, 562709, Note_on_c, 1, 52, 127
1, 562837, Note_off_c, 1, 70, 0
1, 562837, Note_off_c, 1, 52, 0
1, 562862, Note_on_c, 1, 69, 127
1, 562862, Note_on_c, 1, 53, 127
1, 563007, Note_off_c, 1, 69, 0
1, 563007, Note_off_c, 1, 53, 0
1, 563013, Note_on_c, 1, 72, 127
1, 563013, Note_on_c, 1, 48, 127
1, 563151, Note_off_c, 1, 72, 0
1, 563151, Note_off_c, 1, 48, 0
1, 563164, Note_on_c, 1, 79, 127
1, 563164, Note_on_c, 1, 53, 127
1, 563292, Note_off_c, 1, 79, 0
1, 563292, Note_off_c, 1, 53, 0
1, 563316, Note_on_c, 1, 77, 127
1, 563316, Note_on_c, 1, 57, 127
1, 563461, Note_off_c, 1, 77, 0
1, 563461, Note_off_c, 1, 57, 0
1, 563467, Note_on_c, 1, 76, 127
1, 563467, Note_on_c, 1, 53, 127
1, 563605, Note_off_c, 1, 76, 0
1, 563605, Note_off_c, 1, 53, 0
1, 563617, Note_on_c, 1, 77, 127
1, 563617, Note_on_c, 1, 57, 127
1, 563745, Note_off_c, 1, 77, 0
1, 563745, Note_off_c, 1, 57, 0
1, 563769, Note_on_c, 1, 67, 127
1, 563769, Note_on_c, 1, 60, 127
1, 563914, Note_off_c, 1, 67, 0
1, 563921, Note_on_c, 1, 72, 127
1, 564059, Note_off_c, 1, 72, 0
1, 564073, Note_on_c, 1, 77, 127
1, 564201, Note_off_c, 1, 77, 0
1, 564223, Note_on_c, 1, 76, 127
1, 564368, Note_off_c, 1, 76, 0
1, 564375, Note_on_c, 1, 74, 127
1, 564445, Note_off_c, 1, 60, 0
1, 564513, Note_off_c, 1, 74, 0
1, 564525, Note_on_c, 1, 76, 127
1, 564525, Note_on_c, 1, 49, 127
1, 564653, Note_off_c, 1, 76, 0
1, 564653, Note_off_c, 1, 49, 0
1, 564677, Note_on_c, 1, 65, 127
1, 564677, Note_on_c, 1, 50, 127
1, 564822, Note_off_c, 1, 65, 0
1, 564822, Note_off_c, 1, 50, 0
1, 564829, Note_on_c, 1, 69, 127
1, 564829, Note_on_c, 1, 45, 127
1, 564967, Note_off_c, 1, 69, 0
1, 564967, Note_off_c, 1, 45, 0
1, 564980, Note_on_c, 1, 76, 127
1, 564980, Note_on_c, 1, 50, 127
1, 565108, Note_off_c, 1, 76, 0
1, 565108, Note_off_c, 1, 50, 0
1, 565131, Note_on_c, 1, 74, 127
1, 565131, Note_on_c, 1, 53, 127
1, 565276, Note_off_c, 1, 74, 0
1, 565276, Note_off_c, 1, 53, 0
1, 565283, Note_on_c, 1, 73, 127
1, 565283, Note_on_c, 1, 50, 127
1, 565421, Note_off_c, 1, 73, 0
1, 565421, Note_off_c, 1, 50, 0
1, 565433, Note_on_c, 1, 74, 127
1, 565433, Note_on_c, 1, 53, 127
1, 565561, Note_off_c, 1, 74, 0
1, 565561, Note_off_c, 1, 53, 0
1, 565585, Note_on_c, 1, 64, 127
1, 565585, Note_on_c, 1, 57, 127
1, 565730, Note_off_c, 1, 64, 0
1, 565737, Note_on_c, 1, 69, 127
1, 565875, Note_off_c, 1, 69, 0
1, 565888, Note_on_c, 1, 74, 127
1, 566016, Note_off_c, 1, 74, 0
1, 566039, Note_on_c, 1, 72, 127
1, 566184, Note_off_c, 1, 72, 0
1, 566190, Note_on_c, 1, 71, 127
1, 566261, Note_off_c, 1, 57, 0
1, 566328, Note_off_c, 1, 71, 0
1, 566341, Note_on_c, 1, 72, 127
1, 566341, Note_on_c, 1, 45, 127
1, 566469, Note_off_c, 1, 72, 0
1, 566469, Note_off_c, 1, 45, 0
1, 566493, Note_on_c, 1, 62, 127
1, 566493, Note_on_c, 1, 46, 127
1, 566638, Note_off_c, 1, 62, 0
1, 566638, Note_off_c, 1, 46, 0
1, 566645, Note_on_c, 1, 65, 127
1, 566645, Note_on_c, 1, 41, 127
1, 566783, Note_off_c, 1, 65, 0
1, 566783, Note_off_c, 1, 41, 0
1, 566796, Note_on_c, 1, 72, 127
1, 566796, Note_on_c, 1, 46, 127
1, 566924, Note_off_c, 1, 72, 0
1, 566924, Note_off_c, 1, 46, 0
1, 566946, Note_on_c, 1, 70, 127
1, 566946, Note_on_c, 1, 50, 127
1, 567091, Note_off_c, 1, 70, 0
1, 567091, Note_off_c, 1, 50, 0
1, 567099, Note_on_c, 1, 69, 127
1, 567099, Note_on_c, 1, 46, 127
1, 567237, Note_off_c, 1, 69, 0
1, 567237, Note_off_c, 1, 46, 0
1, 567249, Note_on_c, 1, 70, 127
1, 567249, Note_on_c, 1, 50, 127
1, 567377, Note_off_c, 1, 70, 0
1, 567377, Note_off_c, 1, 50, 0
1, 567401, Note_on_c, 1, 60, 127
1, 567401, Note_on_c, 1, 53, 127
1, 567546, Note_off_c, 1, 60, 0
1, 567553, Note_on_c, 1, 65, 127
1, 567691, Note_off_c, 1, 65, 0
1, 567698, Note_off_c, 1, 53, 0
1, 567704, Note_on_c, 1, 70, 127
1, 567704, Note_on_c, 1, 41, 127
1, 567832, Note_off_c, 1, 70, 0
1, 567832, Note_off_c, 1, 41, 0
1, 567856, Note_on_c, 1, 53, 127
1, 567856, Note_on_c, 1, 69, 127
1, 567927, Note_off_c, 1, 53, 0
1, 567932, Note_on_c, 1, 52, 127
1, 568001, Note_off_c, 1, 69, 0
1, 568003, Note_off_c, 1, 52, 0
1, 568008, Note_on_c, 1, 67, 127
1, 568008, Note_on_c, 1, 53, 127
1, 568146, Note_off_c, 1, 67, 0
1, 568158, Note_on_c, 1, 69, 127
1, 568286, Note_off_c, 1, 69, 0
1, 568310, Note_on_c, 1, 59, 127
1, 568455, Note_off_c, 1, 59, 0
1, 568463, Note_on_c, 1, 62, 127
1, 568601, Note_off_c, 1, 62, 0
1, 568603, Note_off_c, 1, 53, 0
1, 568613, Note_on_c, 1, 67, 127
1, 568613, Note_on_c, 1, 40, 127
1, 568741, Note_off_c, 1, 67, 0
1, 568741, Note_off_c, 1, 40, 0
1, 568763, Note_on_c, 1, 60, 127
1, 568763, Note_on_c, 1, 52, 127
1, 568908, Note_off_c, 1, 60, 0
1, 568917, Note_on_c, 1, 64, 127
1, 569055, Note_off_c, 1, 64, 0
1, 569065, Note_on_c, 1, 67, 127
1, 569193, Note_off_c, 1, 67, 0
1, 569219, Note_on_c, 1, 57, 127
1, 569364, Note_off_c, 1, 57, 0
1, 569514, Note_off_c, 1, 52, 0
1, 569522, Note_on_c, 1, 65, 127
1, 569522, Note_on_c, 1, 38, 127
1, 569650, Note_off_c, 1, 65, 0
1, 569650, Note_off_c, 1, 38, 0
1, 569673, Note_on_c, 1, 59, 127
1, 569673, Note_on_c, 1, 50, 127
1, 569818, Note_off_c, 1, 59, 0
1, 569825, Note_on_c, 1, 62, 127
1, 569963, Note_off_c, 1, 62, 0
1, 569970, Note_off_c, 1, 50, 0
1, 569977, Note_on_c, 1, 65, 127
1, 569977, Note_on_c, 1, 43, 127
1, 570105, Note_off_c, 1, 65, 0
1, 570105, Note_off_c, 1, 43, 0
1, 570130, Note_on_c, 1, 64, 127
1, 570130, Note_on_c, 1, 48, 127
1, 570275, Note_off_c, 1, 64, 0
1, 570281, Note_on_c, 1, 67, 127
1, 570419, Note_off_c, 1, 67, 0
1, 570427, Note_off_c, 1, 48, 0
1, 570433, Note_on_c, 1, 72, 127
1, 570433, Note_on_c, 1, 52, 127
1, 570561, Note_off_c, 1, 72, 0
1, 570561, Note_off_c, 1, 52, 0
1, 570585, Note_on_c, 1, 66, 127
1, 570585, Note_on_c, 1, 45, 127
1, 570730, Note_off_c, 1, 66, 0
1, 570737, Note_on_c, 1, 69, 127
1, 570875, Note_off_c, 1, 69, 0
1, 570882, Note_off_c, 1, 45, 0
1, 570889, Note_on_c, 1, 72, 127
1, 570889, Note_on_c, 1, 50, 127
1, 571017, Note_off_c, 1, 72, 0
1, 571017, Note_off_c, 1, 50, 0
1, 571041, Note_on_c, 1, 71, 127
1, 571041, Note_on_c, 1, 43, 127
1, 571186, Note_off_c, 1, 71, 0
1, 571192, Note_on_c, 1, 69, 127
1, 571330, Note_off_c, 1, 69, 0
1, 571342, Note_on_c, 1, 67, 127
1, 571470, Note_off_c, 1, 67, 0
1, 571604, Note_off_c, 1, 43, 0
1, 571646, Note_on_c, 1, 69, 127
1, 571646, Note_on_c, 1, 55, 127
1, 571784, Note_off_c, 1, 69, 0
1, 571784, Note_off_c, 1, 55, 0
1, 571797, Note_on_c, 1, 71, 127
1, 571797, Note_on_c, 1, 53, 127
1, 571925, Note_off_c, 1, 71, 0
1, 571925, Note_off_c, 1, 53, 0
1, 571948, Note_on_c, 1, 72, 127
1, 571948, Note_on_c, 1, 52, 127
1, 572093, Note_off_c, 1, 72, 0
1, 572093, Note_off_c, 1, 52, 0
1, 572100, Note_on_c, 1, 74, 127
1, 572100, Note_on_c, 1, 53, 127
1, 572238, Note_off_c, 1, 74, 0
1, 572238, Note_off_c, 1, 53, 0
1, 572250, Note_on_c, 1, 76, 127
1, 572250, Note_on_c, 1, 55, 127
1, 572378, Note_off_c, 1, 76, 0
1, 572378, Note_off_c, 1, 55, 0
1, 572402, Note_on_c, 1, 76, 127
1, 572402, Note_on_c, 1, 55, 127
1, 572547, Note_off_c, 1, 76, 0
1, 572547, Note_off_c, 1, 55, 0
1, 572554, Note_on_c, 1, 77, 127
1, 572554, Note_on_c, 1, 57, 127
1, 572692, Note_off_c, 1, 77, 0
1, 572692, Note_off_c, 1, 57, 0
1, 572705, Note_on_c, 1, 79, 127
1, 572705, Note_on_c, 1, 59, 127
1, 572833, Note_off_c, 1, 79, 0
1, 572833, Note_off_c, 1, 59, 0
1, 572856, Note_on_c, 1, 79, 127
1, 572856, Note_on_c, 1, 60, 127
1, 572927, Note_off_c, 1, 79, 0
1, 572933, Note_on_c, 1, 77, 127
1, 573001, Note_off_c, 1, 60, 0
1, 573004, Note_off_c, 1, 77, 0
1, 573008, Note_on_c, 1, 43, 127
1, 573008, Note_on_c, 1, 79, 127
1, 573146, Note_off_c, 1, 43, 0
1, 573158, Note_on_c, 1, 48, 127
1, 573286, Note_off_c, 1, 48, 0
1, 573300, Note_off_c, 1, 79, 0
1, 573310, Note_on_c, 1, 79, 127
1, 573310, Note_on_c, 1, 52, 127
1, 573455, Note_off_c, 1, 79, 0
1, 573455, Note_off_c, 1, 52, 0
1, 573462, Note_on_c, 1, 76, 127
1, 573462, Note_on_c, 1, 48, 127
1, 573600, Note_off_c, 1, 76, 0
1, 573600, Note_off_c, 1, 48, 0
1, 573612, Note_on_c, 1, 72, 127
1, 573612, Note_on_c, 1, 52, 127
1, 573740, Note_off_c, 1, 72, 0
1, 573740, Note_off_c, 1, 52, 0
1, 573764, Note_on_c, 1, 79, 127
1, 573764, Note_on_c, 1, 47, 127
1, 573835, Note_off_c, 1, 79, 0
1, 573840, Note_on_c, 1, 77, 127
1, 573909, Note_off_c, 1, 47, 0
1, 573911, Note_off_c, 1, 77, 0
1, 573915, Note_on_c, 1, 43, 127
1, 573915, Note_on_c, 1, 79, 127
1, 574053, Note_off_c, 1, 43, 0
1, 574066, Note_on_c, 1, 47, 127
1, 574194, Note_off_c, 1, 47, 0
1, 574207, Note_off_c, 1, 79, 0
1, 574218, Note_on_c, 1, 79, 127
1, 574218, Note_on_c, 1, 50, 127
1, 574363, Note_off_c, 1, 79, 0
1, 574363, Note_off_c, 1, 50, 0
1, 574370, Note_on_c, 1, 74, 127
1, 574370, Note_on_c, 1, 47, 127
1, 574508, Note_off_c, 1, 74, 0
1, 574508, Note_off_c, 1, 47, 0
1, 574520, Note_on_c, 1, 71, 127
1, 574520, Note_on_c, 1, 50, 127
1, 574648, Note_off_c, 1, 71, 0
1, 574648, Note_off_c, 1, 50, 0
1, 574671, Note_on_c, 1, 79, 127
1, 574671, Note_on_c, 1, 52, 127
1, 574742, Note_off_c, 1, 79, 0
1, 574748, Note_on_c, 1, 77, 127
1, 574816, Note_off_c, 1, 52, 0
1, 574819, Note_off_c, 1, 77, 0
1, 574824, Note_on_c, 1, 43, 127
1, 574824, Note_on_c, 1, 79, 127
1, 574962, Note_off_c, 1, 43, 0
1, 574974, Note_on_c, 1, 48, 127
1, 575102, Note_off_c, 1, 48, 0
1, 575116, Note_off_c, 1, 79, 0
1, 575125, Note_on_c, 1, 79, 127
1, 575125, Note_on_c, 1, 52, 127
1, 575270, Note_off_c, 1, 79, 0
1, 575270, Note_off_c, 1, 52, 0
1, 575278, Note_on_c, 1, 76, 127
1, 575278, Note_on_c, 1, 48, 127
1, 575416, Note_off_c, 1, 76, 0
1, 575416, Note_off_c, 1, 48, 0
1, 575427, Note_on_c, 1, 72, 127
1, 575427, Note_on_c, 1, 52, 127
1, 575555, Note_off_c, 1, 72, 0
1, 575555, Note_off_c, 1, 52, 0
1, 575580, Note_on_c, 1, 79, 127
1, 575580, Note_on_c, 1, 47, 127
1, 575651, Note_off_c, 1, 79, 0
1, 575655, Note_on_c, 1, 77, 127
1, 575725, Note_off_c, 1, 47, 0
1, 575726, Note_off_c, 1, 77, 0
1, 575730, Note_on_c, 1, 43, 127
1, 575730, Note_on_c, 1, 79, 127
1, 575868, Note_off_c, 1, 43, 0
1, 575882, Note_on_c, 1, 47, 127
1, 576010, Note_off_c, 1, 47, 0
1, 576022, Note_off_c, 1, 79, 0
1, 576033, Note_on_c, 1, 79, 127
1, 576033, Note_on_c, 1, 50, 127
1, 576178, Note_off_c, 1, 79, 0
1, 576178, Note_off_c, 1, 50, 0
1, 576186, Note_on_c, 1, 74, 127
1, 576186, Note_on_c, 1, 47, 127
1, 576324, Note_off_c, 1, 74, 0
1, 576324, Note_off_c, 1, 47, 0
1, 576335, Note_on_c, 1, 71, 127
1, 576335, Note_on_c, 1, 50, 127
1, 576463, Note_off_c, 1, 71, 0
1, 576463, Note_off_c, 1, 50, 0
1, 576487, Note_on_c, 1, 72, 127
1, 576487, Note_on_c, 1, 52, 127
1, 576632, Note_off_c, 1, 72, 0
1, 576632, Note_off_c, 1, 52, 0
1, 576639, Note_on_c, 1, 69, 127
1, 576639, Note_on_c, 1, 48, 127
1, 576777, Note_off_c, 1, 69, 0
1, 576777, Note_off_c, 1, 48, 0
1, 576789, Note_on_c, 1, 77, 127
1, 576789, Note_on_c, 1, 45, 127
1, 576917, Note_off_c, 1, 77, 0
1, 576917, Note_off_c, 1, 45, 0
1, 576941, Note_on_c, 1, 71, 127
1, 576941, Note_on_c, 1, 50, 127
1, 577086, Note_off_c, 1, 71, 0
1, 577086, Note_off_c, 1, 50, 0
1, 577093, Note_on_c, 1, 67, 127
1, 577093, Note_on_c, 1, 47, 127
1, 577231, Note_off_c, 1, 67, 0
1, 577231, Note_off_c, 1, 47, 0
1, 577242, Note_on_c, 1, 76, 127
1, 577242, Note_on_c, 1, 43, 127
1, 577370, Note_off_c, 1, 76, 0
1, 577370, Note_off_c, 1, 43, 0
1, 577396, Note_on_c, 1, 69, 127
1, 577396, Note_on_c, 1, 48, 127
1, 577541, Note_off_c, 1, 69, 0
1, 577541, Note_off_c, 1, 48, 0
1, 577546, Note_on_c, 1, 65, 127
1, 577546, Note_on_c, 1, 45, 127
1, 577684, Note_off_c, 1, 65, 0
1, 577684, Note_off_c, 1, 45, 0
1, 577697, Note_on_c, 1, 74, 127
1, 577697, Note_on_c, 1, 41, 127
1, 577825, Note_off_c, 1, 74, 0
1, 577825, Note_off_c, 1, 41, 0
1, 577848, Note_on_c, 1, 67, 127
1, 577848, Note_on_c, 1, 47, 127
1, 577993, Note_off_c, 1, 67, 0
1, 577993, Note_off_c, 1, 47, 0
1, 578001, Note_on_c, 1, 64, 127
1, 578001, Note_on_c, 1, 43, 127
1, 578139, Note_off_c, 1, 64, 0
1, 578139, Note_off_c, 1, 43, 0
1, 578151, Note_on_c, 1, 72, 127
1, 578151, Note_on_c, 1, 40, 127
1, 578279, Note_off_c, 1, 72, 0
1, 578279, Note_off_c, 1, 40, 0
1, 578303, Note_on_c, 1, 65, 127
1, 578303, Note_on_c, 1, 45, 127
1, 578448, Note_off_c, 1, 65, 0
1, 578448, Note_off_c, 1, 45, 0
1, 578455, Note_on_c, 1, 62, 127
1, 578455, Note_on_c, 1, 41, 127
1, 578593, Note_off_c, 1, 62, 0
1, 578593, Note_off_c, 1, 41, 0
1, 578604, Note_on_c, 1, 72, 127
1, 578604, Note_on_c, 1, 38, 127
1, 578732, Note_off_c, 1, 72, 0
1, 578732, Note_off_c, 1, 38, 0
1, 578756, Note_on_c, 1, 65, 127
1, 578756, Note_on_c, 1, 43, 127
1, 578901, Note_off_c, 1, 65, 0
1, 578901, Note_off_c, 1, 43, 0
1, 578909, Note_on_c, 1, 62, 127
1, 578909, Note_on_c, 1, 41, 127
1, 579047, Note_off_c, 1, 62, 0
1, 579047, Note_off_c, 1, 41, 0
1, 579058, Note_on_c, 1, 71, 127
1, 579058, Note_on_c, 1, 43, 127
1, 579186, Note_off_c, 1, 71, 0
1, 579186, Note_off_c, 1, 43, 0
1, 579211, Note_on_c, 1, 72, 127
1, 579211, Note_on_c, 1, 36, 127
1, 579356, Note_off_c, 1, 72, 0
1, 579362, Note_on_c, 1, 64, 127
1, 579500, Note_off_c, 1, 64, 0
1, 579512, Note_on_c, 1, 67, 127
1, 579640, Note_off_c, 1, 67, 0
1, 579664, Note_on_c, 1, 60, 127
1, 579961, Note_off_c, 1, 60, 0
1, 579962, Note_off_c, 1, 36, 0
1, 579968, Note_on_c, 1, 67, 127
1, 580096, Note_off_c, 1, 67, 0
1, 580120, Note_on_c, 1, 64, 127
1, 580265, Note_off_c, 1, 64, 0
1, 580270, Note_on_c, 1, 67, 127
1, 580408, Note_off_c, 1, 67, 0
1, 580422, Note_on_c, 1, 64, 127
1, 580550, Note_off_c, 1, 64, 0
1, 580574, Note_on_c, 1, 60, 127
1, 580719, Note_off_c, 1, 60, 0
1, 580726, Note_on_c, 1, 64, 127
1, 580864, Note_off_c, 1, 64, 0
1, 580876, Note_on_c, 1, 79, 127
1, 580876, Note_on_c, 1, 60, 127
1, 581004, Note_off_c, 1, 79, 0
1, 581004, Note_off_c, 1, 60, 0
1, 581028, Note_on_c, 1, 76, 127
1, 581028, Note_on_c, 1, 55, 127
1, 581173, Note_off_c, 1, 76, 0
1, 581179, Note_on_c, 1, 79, 127
1, 581317, Note_off_c, 1, 79, 0
1, 581325, Note_off_c, 1, 55, 0
1, 581331, Note_on_c, 1, 76, 127
1, 581331, Note_on_c, 1, 60, 127
1, 581459, Note_off_c, 1, 76, 0
1, 581459, Note_off_c, 1, 60, 0
1, 581484, Note_on_c, 1, 72, 127
1, 581484, Note_on_c, 1, 48, 127
1, 581629, Note_off_c, 1, 72, 0
1, 581635, Note_on_c, 1, 76, 127
1, 581773, Note_off_c, 1, 76, 0
1, 581937, Note_on_c, 1, 67, 127
1, 582082, Note_off_c, 1, 67, 0
1, 582083, Note_off_c, 1, 48, 0
1, 582088, Note_on_c, 1, 72, 127
1, 582088, Note_on_c, 1, 50, 127
1, 582226, Note_off_c, 1, 72, 0
1, 582226, Note_off_c, 1, 50, 0
1, 582240, Note_on_c, 1, 70, 127
1, 582240, Note_on_c, 1, 52, 127
1, 582368, Note_off_c, 1, 70, 0
1, 582368, Note_off_c, 1, 52, 0
1, 582391, Note_on_c, 1, 69, 127
1, 582391, Note_on_c, 1, 53, 127
1, 582536, Note_off_c, 1, 69, 0
1, 582536, Note_off_c, 1, 53, 0
1, 582544, Note_on_c, 1, 70, 127
1, 582544, Note_on_c, 1, 52, 127
1, 582682, Note_off_c, 1, 70, 0
1, 582682, Note_off_c, 1, 52, 0
1, 582693, Note_on_c, 1, 67, 127
1, 582693, Note_on_c, 1, 55, 127
1, 582821, Note_off_c, 1, 67, 0
1, 582821, Note_off_c, 1, 55, 0
1, 582844, Note_on_c, 1, 65, 127
1, 582844, Note_on_c, 1, 57, 127
1, 582989, Note_off_c, 1, 65, 0
1, 582989, Note_off_c, 1, 57, 0
1, 582996, Note_on_c, 1, 64, 127
1, 582996, Note_on_c, 1, 55, 127
1, 583134, Note_off_c, 1, 64, 0
1, 583134, Note_off_c, 1, 55, 0
1, 583147, Note_on_c, 1, 67, 127
1, 583147, Note_on_c, 1, 58, 127
1, 583275, Note_off_c, 1, 67, 0
1, 583275, Note_off_c, 1, 58, 0
1, 583299, Note_on_c, 1, 57, 127
1, 583299, Note_on_c, 1, 65, 127
1, 583444, Note_off_c, 1, 57, 0
1, 583451, Note_on_c, 1, 58, 127
1, 583589, Note_off_c, 1, 58, 0
1, 583596, Note_off_c, 1, 65, 0
1, 583603, Note_on_c, 1, 84, 127
1, 583603, Note_on_c, 1, 60, 127
1, 583731, Note_off_c, 1, 84, 0
1, 583731, Note_off_c, 1, 60, 0
1, 583754, Note_on_c, 1, 81, 127
1, 583754, Note_on_c, 1, 53, 127
1, 583899, Note_off_c, 1, 81, 0
1, 583907, Note_on_c, 1, 84, 127
1, 584045, Note_off_c, 1, 84, 0
1, 584208, Note_on_c, 1, 77, 127
1, 584353, Note_off_c, 1, 77, 0
1, 584430, Note_off_c, 1, 53, 0
1, 584510, Note_on_c, 1, 77, 127
1, 584510, Note_on_c, 1, 53, 127
1, 584638, Note_off_c, 1, 77, 0
1, 584638, Note_off_c, 1, 53, 0
1, 584662, Note_on_c, 1, 57, 127
1, 584662, Note_on_c, 1, 72, 127
1, 584807, Note_off_c, 1, 57, 0
1, 584814, Note_on_c, 1, 53, 127
1, 584952, Note_off_c, 1, 53, 0
1, 584959, Note_off_c, 1, 72, 0
1, 584966, Note_on_c, 1, 77, 127
1, 584966, Note_on_c, 1, 57, 127
1, 585094, Note_off_c, 1, 77, 0
1, 585094, Note_off_c, 1, 57, 0
1, 585119, Note_on_c, 1, 60, 127
1, 585119, Note_on_c, 1, 65, 127
1, 585264, Note_off_c, 1, 60, 0
1, 585269, Note_on_c, 1, 57, 127
1, 585407, Note_off_c, 1, 57, 0
1, 585572, Note_on_c, 1, 63, 127
1, 585718, Note_off_c, 1, 65, 0
1, 585724, Note_on_c, 1, 67, 127
1, 585862, Note_off_c, 1, 67, 0
1, 585869, Note_off_c, 1, 63, 0
1, 585876, Note_on_c, 1, 69, 127
1, 585876, Note_on_c, 1, 51, 127
1, 586004, Note_off_c, 1, 69, 0
1, 586004, Note_off_c, 1, 51, 0
1, 586028, Note_on_c, 1, 70, 127
1, 586028, Note_on_c, 1, 50, 127
1, 586173, Note_off_c, 1, 70, 0
1, 586180, Note_on_c, 1, 69, 127
1, 586318, Note_off_c, 1, 69, 0
1, 586325, Note_off_c, 1, 50, 0
1, 586331, Note_on_c, 1, 72, 127
1, 586331, Note_on_c, 1, 48, 127
1, 586459, Note_off_c, 1, 72, 0
1, 586459, Note_off_c, 1, 48, 0
1, 586483, Note_on_c, 1, 74, 127
1, 586483, Note_on_c, 1, 46, 127
1, 586628, Note_off_c, 1, 74, 0
1, 586635, Note_on_c, 1, 72, 127
1, 586773, Note_off_c, 1, 72, 0
1, 586780, Note_off_c, 1, 46, 0
1, 586787, Note_on_c, 1, 75, 127
1, 586787, Note_on_c, 1, 53, 127
1, 586915, Note_off_c, 1, 75, 0
1, 586915, Note_off_c, 1, 53, 0
1, 586939, Note_on_c, 1, 74, 127
1, 586939, Note_on_c, 1, 58, 127
1, 587084, Note_off_c, 1, 74, 0
1, 587084, Note_off_c, 1, 58, 0
1, 587090, Note_on_c, 1, 76, 127
1, 587090, Note_on_c, 1, 60, 127
1, 587228, Note_off_c, 1, 76, 0
1, 587228, Note_off_c, 1, 60, 0
1, 587241, Note_on_c, 1, 78, 127
1, 587241, Note_on_c, 1, 57, 127
1, 587369, Note_off_c, 1, 78, 0
1, 587369, Note_off_c, 1, 57, 0
1, 587393, Note_on_c, 1, 79, 127
1, 587393, Note_on_c, 1, 58, 127
1, 587538, Note_off_c, 1, 79, 0
1, 587538, Note_off_c, 1, 58, 0
1, 587544, Note_on_c, 1, 78, 127
1, 587544, Note_on_c, 1, 60, 127
1, 587682, Note_off_c, 1, 78, 0
1, 587682, Note_off_c, 1, 60, 0
1, 587695, Note_on_c, 1, 81, 127
1, 587695, Note_on_c, 1, 57, 127
1, 587823, Note_off_c, 1, 81, 0
1, 587823, Note_off_c, 1, 57, 0
1, 587846, Note_on_c, 1, 79, 127
1, 587846, Note_on_c, 1, 59, 127
1, 587991, Note_off_c, 1, 79, 0
1, 587998, Note_on_c, 1, 77, 127
1, 588136, Note_off_c, 1, 77, 0
1, 588143, Note_off_c, 1, 59, 0
1, 588150, Note_on_c, 1, 76, 127
1, 588150, Note_on_c, 1, 61, 127
1, 588278, Note_off_c, 1, 76, 0
1, 588278, Note_off_c, 1, 61, 0
1, 588302, Note_on_c, 1, 77, 127
1, 588302, Note_on_c, 1, 62, 127
1, 588447, Note_off_c, 1, 77, 0
1, 588447, Note_off_c, 1, 62, 0
1, 588454, Note_on_c, 1, 76, 127
1, 588454, Note_on_c, 1, 61, 127
1, 588592, Note_off_c, 1, 76, 0
1, 588592, Note_off_c, 1, 61, 0
1, 588603, Note_on_c, 1, 79, 127
1, 588603, Note_on_c, 1, 64, 127
1, 588731, Note_off_c, 1, 79, 0
1, 588731, Note_off_c, 1, 64, 0
1, 588757, Note_on_c, 1, 77, 127
1, 588757, Note_on_c, 1, 62, 127
1, 588902, Note_off_c, 1, 77, 0
1, 588902, Note_off_c, 1, 62, 0
1, 588907, Note_on_c, 1, 76, 127
1, 588907, Note_on_c, 1, 55, 127
1, 589045, Note_off_c, 1, 76, 0
1, 589045, Note_off_c, 1, 55, 0
1, 589058, Note_on_c, 1, 74, 127
1, 589058, Note_on_c, 1, 58, 127
1, 589186, Note_off_c, 1, 74, 0
1, 589186, Note_off_c, 1, 58, 0
1, 589210, Note_on_c, 1, 73, 127
1, 589210, Note_on_c, 1, 57, 127
1, 589355, Note_off_c, 1, 73, 0
1, 589362, Note_on_c, 1, 71, 127
1, 589500, Note_off_c, 1, 71, 0
1, 589507, Note_off_c, 1, 57, 0
1, 589513, Note_on_c, 1, 74, 127
1, 589513, Note_on_c, 1, 45, 127
1, 589641, Note_off_c, 1, 74, 0
1, 589641, Note_off_c, 1, 45, 0
1, 589665, Note_on_c, 1, 57, 127
1, 589665, Note_on_c, 1, 73, 127
1, 589736, Note_off_c, 1, 57, 0
1, 589741, Note_on_c, 1, 55, 127
1, 589810, Note_off_c, 1, 73, 0
1, 589812, Note_off_c, 1, 55, 0
1, 589817, Note_on_c, 1, 69, 127
1, 589817, Note_on_c, 1, 57, 127
1, 589955, Note_off_c, 1, 69, 0
1, 589968, Note_on_c, 1, 73, 127
1, 590096, Note_off_c, 1, 73, 0
1, 590119, Note_on_c, 1, 74, 127
1, 590264, Note_off_c, 1, 74, 0
1, 590412, Note_off_c, 1, 57, 0
1, 590421, Note_on_c, 1, 76, 127
1, 590421, Note_on_c, 1, 45, 127
1, 590549, Note_off_c, 1, 76, 0
1, 590549, Note_off_c, 1, 45, 0
1, 590573, Note_on_c, 1, 57, 127
1, 590573, Note_on_c, 1, 74, 127
1, 590644, Note_off_c, 1, 57, 0
1, 590650, Note_on_c, 1, 55, 127
1, 590718, Note_off_c, 1, 74, 0
1, 590721, Note_off_c, 1, 55, 0
1, 590725, Note_on_c, 1, 69, 127
1, 590725, Note_on_c, 1, 57, 127
1, 590863, Note_off_c, 1, 69, 0
1, 590876, Note_on_c, 1, 74, 127
1, 591004, Note_off_c, 1, 74, 0
1, 591027, Note_on_c, 1, 76, 127
1, 591172, Note_off_c, 1, 76, 0
1, 591320, Note_off_c, 1, 57, 0
1, 591329, Note_on_c, 1, 77, 127
1, 591329, Note_on_c, 1, 45, 127
1, 591457, Note_off_c, 1, 77, 0
1, 591457, Note_off_c, 1, 45, 0
1, 591481, Note_on_c, 1, 57, 127
1, 591481, Note_on_c, 1, 76, 127
1, 591552, Note_off_c, 1, 57, 0
1, 591557, Note_on_c, 1, 55, 127
1, 591626, Note_off_c, 1, 76, 0
1, 591628, Note_off_c, 1, 55, 0
1, 591632, Note_on_c, 1, 69, 127
1, 591632, Note_on_c, 1, 57, 127
1, 591770, Note_off_c, 1, 69, 0
1, 591784, Note_on_c, 1, 76, 127
1, 591912, Note_off_c, 1, 76, 0
1, 591934, Note_on_c, 1, 77, 127
1, 592079, Note_off_c, 1, 77, 0
1, 592227, Note_off_c, 1, 57, 0
1, 592237, Note_on_c, 1, 79, 127
1, 592237, Note_on_c, 1, 45, 127
1, 592365, Note_off_c, 1, 79, 0
1, 592365, Note_off_c, 1, 45, 0
1, 592388, Note_on_c, 1, 77, 127
1, 592388, Note_on_c, 1, 57, 127
1, 592533, Note_off_c, 1, 77, 0
1, 592541, Note_on_c, 1, 76, 127
1, 592679, Note_off_c, 1, 76, 0
1, 592685, Note_off_c, 1, 57, 0
1, 592692, Note_on_c, 1, 74, 127
1, 592692, Note_on_c, 1, 45, 127
1, 592820, Note_off_c, 1, 74, 0
1, 592820, Note_off_c, 1, 45, 0
1, 592845, Note_on_c, 1, 73, 127
1, 592845, Note_on_c, 1, 57, 127
1, 592990, Note_off_c, 1, 73, 0
1, 592990, Note_off_c, 1, 57, 0
1, 592996, Note_on_c, 1, 76, 127
1, 592996, Note_on_c, 1, 55, 127
1, 593134, Note_off_c, 1, 76, 0
1, 593134, Note_off_c, 1, 55, 0
1, 593145, Note_on_c, 1, 74, 127
1, 593145, Note_on_c, 1, 58, 127
1, 593273, Note_off_c, 1, 74, 0
1, 593273, Note_off_c, 1, 58, 0
1, 593298, Note_on_c, 1, 73, 127
1, 593298, Note_on_c, 1, 57, 127
1, 593443, Note_off_c, 1, 73, 0
1, 593443, Note_off_c, 1, 57, 0
1, 593450, Note_on_c, 1, 76, 127
1, 593450, Note_on_c, 1, 55, 127
1, 593588, Note_off_c, 1, 76, 0
1, 593588, Note_off_c, 1, 55, 0
1, 593601, Note_on_c, 1, 74, 127
1, 593601, Note_on_c, 1, 58, 127
1, 593729, Note_off_c, 1, 74, 0
1, 593729, Note_off_c, 1, 58, 0
1, 593752, Note_on_c, 1, 73, 127
1, 593752, Note_on_c, 1, 57, 127
1, 593897, Note_off_c, 1, 73, 0
1, 593897, Note_off_c, 1, 57, 0
1, 593905, Note_on_c, 1, 76, 127
1, 593905, Note_on_c, 1, 55, 127
1, 594043, Note_off_c, 1, 76, 0
1, 594043, Note_off_c, 1, 55, 0
1, 594053, Note_on_c, 1, 74, 127
1, 594053, Note_on_c, 1, 58, 127
1, 594181, Note_off_c, 1, 74, 0
1, 594181, Note_off_c, 1, 58, 0
1, 594206, Note_on_c, 1, 74, 127
1, 594206, Note_on_c, 1, 57, 127
1, 594277, Note_off_c, 1, 74, 0
1, 594282, Note_on_c, 1, 73, 127
1, 594351, Note_off_c, 1, 57, 0
1, 594353, Note_off_c, 1, 73, 0
1, 594358, Note_on_c, 1, 74, 127
1, 594358, Note_on_c, 1, 58, 127
1, 594422, Note_off_c, 1, 74, 0
1, 594433, Note_on_c, 1, 73, 127
1, 594494, Note_off_c, 1, 58, 0
1, 594504, Note_off_c, 1, 73, 0
1, 594508, Note_on_c, 1, 69, 127
1, 594508, Note_on_c, 1, 55, 127
1, 594636, Note_off_c, 1, 69, 0
1, 594636, Note_off_c, 1, 55, 0
1, 594661, Note_on_c, 1, 53, 127
1, 594661, Note_on_c, 1, 81, 127
1, 594806, Note_off_c, 1, 53, 0
1, 594812, Note_on_c, 1, 52, 127
1, 594950, Note_off_c, 1, 52, 0
1, 594958, Note_off_c, 1, 81, 0
1, 594963, Note_on_c, 1, 69, 127
1, 594963, Note_on_c, 1, 55, 127
1, 595091, Note_off_c, 1, 69, 0
1, 595091, Note_off_c, 1, 55, 0
1, 595116, Note_on_c, 1, 81, 127
1, 595116, Note_on_c, 1, 53, 127
1, 595187, Note_off_c, 1, 81, 0
1, 595191, Note_on_c, 1, 79, 127
1, 595261, Note_off_c, 1, 53, 0
1, 595262, Note_off_c, 1, 79, 0
1, 595266, Note_on_c, 1, 57, 127
1, 595266, Note_on_c, 1, 81, 127
1, 595404, Note_off_c, 1, 57, 0
1, 595418, Note_on_c, 1, 52, 127
1, 595546, Note_off_c, 1, 52, 0
1, 595569, Note_on_c, 1, 53, 127
1, 595714, Note_off_c, 1, 53, 0
1, 595861, Note_off_c, 1, 81, 0
1, 595871, Note_on_c, 1, 69, 127
1, 595871, Note_on_c, 1, 57, 127
1, 595999, Note_off_c, 1, 69, 0
1, 595999, Note_off_c, 1, 57, 0
1, 596023, Note_on_c, 1, 81, 127
1, 596023, Note_on_c, 1, 53, 127
1, 596094, Note_off_c, 1, 81, 0
1, 596100, Note_on_c, 1, 79, 127
1, 596168, Note_off_c, 1, 53, 0
1, 596171, Note_off_c, 1, 79, 0
1, 596175, Note_on_c, 1, 81, 127
1, 596175, Note_on_c, 1, 52, 127
1, 596313, Note_off_c, 1, 81, 0
1, 596313, Note_off_c, 1, 52, 0
1, 596326, Note_on_c, 1, 69, 127
1, 596326, Note_on_c, 1, 50, 127
1, 596454, Note_off_c, 1, 69, 0
1, 596454, Note_off_c, 1, 50, 0
1, 596477, Note_on_c, 1, 49, 127
1, 596477, Note_on_c, 1, 81, 127
1, 596622, Note_off_c, 1, 49, 0
1, 596629, Note_on_c, 1, 47, 127
1, 596767, Note_off_c, 1, 47, 0
1, 596774, Note_off_c, 1, 81, 0
1, 596780, Note_on_c, 1, 69, 127
1, 596780, Note_on_c, 1, 50, 127
1, 596908, Note_off_c, 1, 69, 0
1, 596908, Note_off_c, 1, 50, 0
1, 596934, Note_on_c, 1, 81, 127
1, 596934, Note_on_c, 1, 49, 127
1, 597005, Note_off_c, 1, 81, 0
1, 597009, Note_on_c, 1, 79, 127
1, 597079, Note_off_c, 1, 49, 0
1, 597080, Note_off_c, 1, 79, 0
1, 597085, Note_on_c, 1, 52, 127
1, 597085, Note_on_c, 1, 81, 127
1, 597223, Note_off_c, 1, 52, 0
1, 597236, Note_on_c, 1, 47, 127
1, 597364, Note_off_c, 1, 47, 0
1, 597386, Note_on_c, 1, 49, 127
1, 597531, Note_off_c, 1, 49, 0
1, 597680, Note_off_c, 1, 81, 0
1, 597689, Note_on_c, 1, 69, 127
1, 597689, Note_on_c, 1, 50, 127
1, 597817, Note_off_c, 1, 69, 0
1, 597817, Note_off_c, 1, 50, 0
1, 597841, Note_on_c, 1, 49, 127
1, 597841, Note_on_c, 1, 81, 127
1, 597986, Note_off_c, 1, 49, 0
1, 597994, Note_on_c, 1, 47, 127
1, 598132, Note_off_c, 1, 47, 0
1, 598138, Note_off_c, 1, 81, 0
1, 598144, Note_on_c, 1, 76, 127
1, 598144, Note_on_c, 1, 45, 127
1, 598272, Note_off_c, 1, 76, 0
1, 598272, Note_off_c, 1, 45, 0
1, 598297, Note_on_c, 1, 77, 127
1, 598297, Note_on_c, 1, 50, 127
1, 598368, Note_off_c, 1, 77, 0
1, 598373, Note_on_c, 1, 79, 127
1, 598444, Note_off_c, 1, 79, 0
1, 598448, Note_on_c, 1, 81, 127
1, 598586, Note_off_c, 1, 81, 0
1, 598594, Note_off_c, 1, 50, 0
1, 598601, Note_on_c, 1, 74, 127
1, 598601, Note_on_c, 1, 53, 127
1, 598729, Note_off_c, 1, 74, 0
1, 598729, Note_off_c, 1, 53, 0
1, 598752, Note_on_c, 1, 69, 127
1, 598752, Note_on_c, 1, 57, 127
1, 598897, Note_off_c, 1, 69, 0
1, 598903, Note_on_c, 1, 74, 127
1, 599041, Note_off_c, 1, 74, 0
1, 599049, Note_off_c, 1, 57, 0
1, 599056, Note_on_c, 1, 73, 127
1, 599056, Note_on_c, 1, 45, 127
1, 599184, Note_off_c, 1, 73, 0
1, 599184, Note_off_c, 1, 45, 0
1, 599207, Note_on_c, 1, 50, 127
1, 599207, Note_on_c, 1, 74, 127
1, 599352, Note_off_c, 1, 50, 0
1, 599359, Note_on_c, 1, 45, 127
1, 599497, Note_off_c, 1, 45, 0
1, 599661, Note_on_c, 1, 53, 127
1, 599806, Note_off_c, 1, 53, 0
1, 599883, Note_off_c, 1, 74, 0
1, 599963, Note_on_c, 1, 74, 127
1, 599963, Note_on_c, 1, 53, 127
1, 600091, Note_off_c, 1, 74, 0
1, 600091, Note_off_c, 1, 53, 0
1, 600116, Note_on_c, 1, 72, 127
1, 600116, Note_on_c, 1, 57, 127
1, 600261, Note_off_c, 1, 72, 0
1, 600267, Note_on_c, 1, 77, 127
1, 600405, Note_off_c, 1, 77, 0
1, 600570, Note_on_c, 1, 69, 127
1, 600715, Note_off_c, 1, 69, 0
1, 600792, Note_off_c, 1, 57, 0
1, 600870, Note_on_c, 1, 69, 127
1, 600870, Note_on_c, 1, 60, 127
1, 600998, Note_off_c, 1, 69, 0
1, 600998, Note_off_c, 1, 60, 0
1, 601023, Note_on_c, 1, 57, 127
1, 601023, Note_on_c, 1, 65, 127
1, 601168, Note_off_c, 1, 57, 0
1, 601175, Note_on_c, 1, 60, 127
1, 601313, Note_off_c, 1, 60, 0
1, 601320, Note_off_c, 1, 65, 0
1, 601327, Note_on_c, 1, 72, 127
1, 601327, Note_on_c, 1, 57, 127
1, 601455, Note_off_c, 1, 72, 0
1, 601455, Note_off_c, 1, 57, 0
1, 601478, Note_on_c, 1, 53, 127
1, 601478, Note_on_c, 1, 60, 127
1, 601623, Note_off_c, 1, 53, 0
1, 601631, Note_on_c, 1, 57, 127
1, 601769, Note_off_c, 1, 57, 0
1, 601933, Note_on_c, 1, 48, 127
1, 602077, Note_off_c, 1, 60, 0
1, 602078, Note_off_c, 1, 48, 0
1, 602085, Note_on_c, 1, 62, 127
1, 602085, Note_on_c, 1, 53, 127
1, 602223, Note_off_c, 1, 62, 0
1, 602223, Note_off_c, 1, 53, 0
1, 602235, Note_on_c, 1, 63, 127
1, 602235, Note_on_c, 1, 48, 127
1, 602363, Note_off_c, 1, 63, 0
1, 602363, Note_off_c, 1, 48, 0
1, 602386, Note_on_c, 1, 65, 127
1, 602386, Note_on_c, 1, 45, 127
1, 602531, Note_off_c, 1, 65, 0
1, 602531, Note_off_c, 1, 45, 0
1, 602538, Note_on_c, 1, 67, 127
1, 602538, Note_on_c, 1, 48, 127
1, 602676, Note_off_c, 1, 67, 0
1, 602676, Note_off_c, 1, 48, 0
1, 602687, Note_on_c, 1, 63, 127
1, 602687, Note_on_c, 1, 45, 127
1, 602815, Note_off_c, 1, 63, 0
1, 602815, Note_off_c, 1, 45, 0
1, 602841, Note_on_c, 1, 62, 127
1, 602841, Note_on_c, 1, 46, 127
1, 602986, Note_off_c, 1, 62, 0
1, 602986, Note_off_c, 1, 46, 0
1, 602991, Note_on_c, 1, 65, 127
1, 602991, Note_on_c, 1, 41, 127
1, 603129, Note_off_c, 1, 65, 0
1, 603129, Note_off_c, 1, 41, 0
1, 603143, Note_on_c, 1, 72, 127
1, 603143, Note_on_c, 1, 46, 127
1, 603271, Note_off_c, 1, 72, 0
1, 603271, Note_off_c, 1, 46, 0
1, 603294, Note_on_c, 1, 70, 127
1, 603294, Note_on_c, 1, 50, 127
1, 603439, Note_off_c, 1, 70, 0
1, 603439, Note_off_c, 1, 50, 0
1, 603445, Note_on_c, 1, 69, 127
1, 603445, Note_on_c, 1, 46, 127
1, 603583, Note_off_c, 1, 69, 0
1, 603583, Note_off_c, 1, 46, 0
1, 603596, Note_on_c, 1, 70, 127
1, 603596, Note_on_c, 1, 50, 127
1, 603724, Note_off_c, 1, 70, 0
1, 603724, Note_off_c, 1, 50, 0
1, 603748, Note_on_c, 1, 60, 127
1, 603748, Note_on_c, 1, 53, 127
1, 603893, Note_off_c, 1, 60, 0
1, 603900, Note_on_c, 1, 65, 127
1, 604038, Note_off_c, 1, 65, 0
1, 604051, Note_on_c, 1, 70, 127
1, 604179, Note_off_c, 1, 70, 0
1, 604202, Note_on_c, 1, 69, 127
1, 604347, Note_off_c, 1, 69, 0
1, 604354, Note_on_c, 1, 67, 127
1, 604424, Note_off_c, 1, 53, 0
1, 604492, Note_off_c, 1, 67, 0
1, 604503, Note_on_c, 1, 69, 127
1, 604503, Note_on_c, 1, 42, 127
1, 604631, Note_off_c, 1, 69, 0
1, 604631, Note_off_c, 1, 42, 0
1, 604657, Note_on_c, 1, 58, 127
1, 604657, Note_on_c, 1, 43, 127
1, 604802, Note_off_c, 1, 58, 0
1, 604802, Note_off_c, 1, 43, 0
1, 604807, Note_on_c, 1, 62, 127
1, 604807, Note_on_c, 1, 38, 127
1, 604945, Note_off_c, 1, 62, 0
1, 604945, Note_off_c, 1, 38, 0
1, 604959, Note_on_c, 1, 69, 127
1, 604959, Note_on_c, 1, 43, 127
1, 605087, Note_off_c, 1, 69, 0
1, 605087, Note_off_c, 1, 43, 0
1, 605110, Note_on_c, 1, 67, 127
1, 605110, Note_on_c, 1, 46, 127
1, 605255, Note_off_c, 1, 67, 0
1, 605255, Note_off_c, 1, 46, 0
1, 605261, Note_on_c, 1, 66, 127
1, 605261, Note_on_c, 1, 43, 127
1, 605399, Note_off_c, 1, 66, 0
1, 605399, Note_off_c, 1, 43, 0
1, 605412, Note_on_c, 1, 67, 127
1, 605412, Note_on_c, 1, 46, 127
1, 605540, Note_off_c, 1, 67, 0
1, 605540, Note_off_c, 1, 46, 0
1, 605564, Note_on_c, 1, 50, 127
1, 605564, Note_on_c, 1, 66, 127
1, 605709, Note_off_c, 1, 50, 0
1, 605716, Note_on_c, 1, 48, 127
1, 605854, Note_off_c, 1, 48, 0
1, 605861, Note_off_c, 1, 66, 0
1, 605868, Note_on_c, 1, 62, 127
1, 605868, Note_on_c, 1, 51, 127
1, 605996, Note_off_c, 1, 62, 0
1, 605996, Note_off_c, 1, 51, 0
1, 606019, Note_on_c, 1, 74, 127
1, 606019, Note_on_c, 1, 50, 127
1, 606090, Note_off_c, 1, 74, 0
1, 606095, Note_on_c, 1, 72, 127
1, 606164, Note_off_c, 1, 50, 0
1, 606166, Note_off_c, 1, 72, 0
1, 606171, Note_on_c, 1, 51, 127
1, 606171, Note_on_c, 1, 74, 127
1, 606309, Note_off_c, 1, 51, 0
1, 606321, Note_on_c, 1, 48, 127
1, 606449, Note_off_c, 1, 48, 0
1, 606474, Note_on_c, 1, 46, 127
1, 606619, Note_off_c, 1, 46, 0
1, 606625, Note_on_c, 1, 45, 127
1, 606763, Note_off_c, 1, 45, 0
1, 606766, Note_off_c, 1, 74, 0
1, 606775, Note_on_c, 1, 62, 127
1, 606775, Note_on_c, 1, 48, 127
1, 606903, Note_off_c, 1, 62, 0
1, 606903, Note_off_c, 1, 48, 0
1, 606926, Note_on_c, 1, 74, 127
1, 606926, Note_on_c, 1, 46, 127
1, 606997, Note_off_c, 1, 74, 0
1, 607002, Note_on_c, 1, 72, 127
1, 607071, Note_off_c, 1, 46, 0
1, 607073, Note_off_c, 1, 72, 0
1, 607079, Note_on_c, 1, 74, 127
1, 607079, Note_on_c, 1, 48, 127
1, 607217, Note_off_c, 1, 74, 0
1, 607217, Note_off_c, 1, 48, 0
1, 607230, Note_on_c, 1, 62, 127
1, 607230, Note_on_c, 1, 45, 127
1, 607358, Note_off_c, 1, 62, 0
1, 607358, Note_off_c, 1, 45, 0
1, 607381, Note_on_c, 1, 43, 127
1, 607381, Note_on_c, 1, 74, 127
1, 607526, Note_off_c, 1, 43, 0
1, 607533, Note_on_c, 1, 42, 127
1, 607671, Note_off_c, 1, 42, 0
1, 607678, Note_off_c, 1, 74, 0
1, 607685, Note_on_c, 1, 62, 127
1, 607685, Note_on_c, 1, 45, 127
1, 607813, Note_off_c, 1, 62, 0
1, 607813, Note_off_c, 1, 45, 0
1, 607835, Note_on_c, 1, 74, 127
1, 607835, Note_on_c, 1, 43, 127
1, 607906, Note_off_c, 1, 74, 0
1, 607914, Note_on_c, 1, 72, 127
1, 607980, Note_off_c, 1, 43, 0
1, 607985, Note_off_c, 1, 72, 0
1, 607989, Note_on_c, 1, 46, 127
1, 607989, Note_on_c, 1, 74, 127
1, 608127, Note_off_c, 1, 46, 0
1, 608139, Note_on_c, 1, 45, 127
1, 608267, Note_off_c, 1, 45, 0
1, 608291, Note_on_c, 1, 42, 127
1, 608436, Note_off_c, 1, 42, 0
1, 608443, Note_on_c, 1, 43, 127
1, 608581, Note_off_c, 1, 43, 0
1, 608584, Note_off_c, 1, 74, 0
1, 608592, Note_on_c, 1, 62, 127
1, 608592, Note_on_c, 1, 45, 127
1, 608720, Note_off_c, 1, 62, 0
1, 608720, Note_off_c, 1, 45, 0
1, 608744, Note_on_c, 1, 74, 127
1, 608744, Note_on_c, 1, 38, 127
1, 608889, Note_off_c, 1, 74, 0
1, 608896, Note_on_c, 1, 76, 127
1, 609034, Note_off_c, 1, 76, 0
1, 609047, Note_on_c, 1, 78, 127
1, 609175, Note_off_c, 1, 78, 0
1, 609199, Note_on_c, 1, 79, 127
1, 609344, Note_off_c, 1, 79, 0
1, 609495, Note_off_c, 1, 38, 0
1, 609502, Note_on_c, 1, 81, 127
1, 609502, Note_on_c, 1, 38, 127
1, 609630, Note_off_c, 1, 81, 0
1, 609630, Note_off_c, 1, 38, 0
1, 609653, Note_on_c, 1, 50, 127
1, 609653, Note_on_c, 1, 79, 127
1, 609724, Note_off_c, 1, 50, 0
1, 609730, Note_on_c, 1, 48, 127
1, 609798, Note_off_c, 1, 79, 0
1, 609801, Note_off_c, 1, 48, 0
1, 609807, Note_on_c, 1, 74, 127
1, 609807, Note_on_c, 1, 50, 127
1, 609945, Note_off_c, 1, 74, 0
1, 609955, Note_on_c, 1, 79, 127
1, 610083, Note_off_c, 1, 79, 0
1, 610109, Note_on_c, 1, 81, 127
1, 610254, Note_off_c, 1, 81, 0
1, 610402, Note_off_c, 1, 50, 0
1, 610409, Note_on_c, 1, 82, 127
1, 610409, Note_on_c, 1, 38, 127
1, 610537, Note_off_c, 1, 82, 0
1, 610537, Note_off_c, 1, 38, 0
1, 610562, Note_on_c, 1, 50, 127
1, 610562, Note_on_c, 1, 81, 127
1, 610633, Note_off_c, 1, 50, 0
1, 610638, Note_on_c, 1, 48, 127
1, 610707, Note_off_c, 1, 81, 0
1, 610709, Note_off_c, 1, 48, 0
1, 610714, Note_on_c, 1, 74, 127
1, 610714, Note_on_c, 1, 50, 127
1, 610852, Note_off_c, 1, 74, 0
1, 610852, Note_off_c, 1, 50, 0
1, 610864, Note_on_c, 1, 81, 127
1, 610864, Note_on_c, 1, 38, 127
1, 610992, Note_off_c, 1, 81, 0
1, 610992, Note_off_c, 1, 38, 0
1, 611016, Note_on_c, 1, 82, 127
1, 611016, Note_on_c, 1, 50, 127
1, 611161, Note_off_c, 1, 82, 0
1, 611167, Note_on_c, 1, 81, 127
1, 611305, Note_off_c, 1, 81, 0
1, 611313, Note_off_c, 1, 50, 0
1, 611319, Note_on_c, 1, 84, 127
1, 611319, Note_on_c, 1, 38, 127
1, 611447, Note_off_c, 1, 84, 0
1, 611447, Note_off_c, 1, 38, 0
1, 611471, Note_on_c, 1, 50, 127
1, 611471, Note_on_c, 1, 82, 127
1, 611542, Note_off_c, 1, 50, 0
1, 611547, Note_on_c, 1, 48, 127
1, 611616, Note_off_c, 1, 82, 0
1, 611618, Note_off_c, 1, 48, 0
1, 611623, Note_on_c, 1, 81, 127
1, 611623, Note_on_c, 1, 50, 127
1, 611761, Note_off_c, 1, 81, 0
1, 611773, Note_on_c, 1, 79, 127
1, 611901, Note_off_c, 1, 79, 0
1, 611925, Note_on_c, 1, 78, 127
1, 612064, Note_off_c, 1, 50, 0
1, 612070, Note_off_c, 1, 78, 0
1, 612076, Note_on_c, 1, 76, 127
1, 612076, Note_on_c, 1, 50, 127
1, 612214, Note_off_c, 1, 76, 0
1, 612214, Note_off_c, 1, 50, 0
1, 612227, Note_on_c, 1, 74, 127
1, 612227, Note_on_c, 1, 52, 127
1, 612355, Note_off_c, 1, 74, 0
1, 612355, Note_off_c, 1, 52, 0
1, 612379, Note_on_c, 1, 54, 127
1, 612379, Note_on_c, 1, 81, 127
1, 612524, Note_off_c, 1, 54, 0
1, 612531, Note_on_c, 1, 52, 127
1, 612669, Note_off_c, 1, 52, 0
1, 612676, Note_off_c, 1, 81, 0
1, 612683, Note_on_c, 1, 72, 127
1, 612683, Note_on_c, 1, 50, 127
1, 612811, Note_off_c, 1, 72, 0
1, 612811, Note_off_c, 1, 50, 0
1, 612835, Note_on_c, 1, 70, 127
1, 612835, Note_on_c, 1, 55, 127
1, 612906, Note_off_c, 1, 70, 0
1, 612910, Note_on_c, 1, 72, 127
1, 612980, Note_off_c, 1, 55, 0
1, 612981, Note_off_c, 1, 72, 0
1, 612985, Note_on_c, 1, 74, 127
1, 612985, Note_on_c, 1, 46, 127
1, 613123, Note_off_c, 1, 74, 0
1, 613123, Note_off_c, 1, 46, 0
1, 613137, Note_on_c, 1, 67, 127
1, 613137, Note_on_c, 1, 48, 127
1, 613265, Note_off_c, 1, 67, 0
1, 613265, Note_off_c, 1, 48, 0
1, 613288, Note_on_c, 1, 62, 127
1, 613288, Note_on_c, 1, 50, 127
1, 613433, Note_off_c, 1, 62, 0
1, 613433, Note_off_c, 1, 50, 0
1, 613441, Note_on_c, 1, 67, 127
1, 613441, Note_on_c, 1, 48, 127
1, 613579, Note_off_c, 1, 67, 0
1, 613579, Note_off_c, 1, 48, 0
1, 613591, Note_on_c, 1, 66, 127
1, 613591, Note_on_c, 1, 50, 127
1, 613719, Note_off_c, 1, 66, 0
1, 613719, Note_off_c, 1, 50, 0
1, 613742, Note_on_c, 1, 43, 127
1, 613742, Note_on_c, 1, 67, 127
1, 613887, Note_off_c, 1, 43, 0
1, 613894, Note_on_c, 1, 62, 127
1, 614032, Note_off_c, 1, 62, 0
1, 614044, Note_on_c, 1, 58, 127
1, 614172, Note_off_c, 1, 58, 0
1, 614197, Note_on_c, 1, 55, 127
1, 614342, Note_off_c, 1, 55, 0
1, 614418, Note_off_c, 1, 67, 0
1, 614498, Note_on_c, 1, 70, 127
1, 614498, Note_on_c, 1, 55, 127
1, 614626, Note_off_c, 1, 70, 0
1, 614626, Note_off_c, 1, 55, 0
1, 614651, Note_on_c, 1, 60, 127
1, 614651, Note_on_c, 1, 52, 127
1, 614796, Note_off_c, 1, 60, 0
1, 614801, Note_on_c, 1, 64, 127
1, 614939, Note_off_c, 1, 64, 0
1, 614948, Note_off_c, 1, 52, 0
1, 614954, Note_on_c, 1, 67, 127
1, 614954, Note_on_c, 1, 60, 127
1, 615082, Note_off_c, 1, 67, 0
1, 615082, Note_off_c, 1, 60, 0
1, 615105, Note_on_c, 1, 70, 127
1, 615105, Note_on_c, 1, 48, 127
1, 615250, Note_off_c, 1, 70, 0
1, 615258, Note_on_c, 1, 67, 127
1, 615396, Note_off_c, 1, 67, 0
1, 615408, Note_on_c, 1, 69, 127
1, 615536, Note_off_c, 1, 69, 0
1, 615704, Note_off_c, 1, 48, 0
1, 615711, Note_on_c, 1, 64, 127
1, 615711, Note_on_c, 1, 60, 127
1, 615849, Note_off_c, 1, 64, 0
1, 615849, Note_off_c, 1, 60, 0
1, 615862, Note_on_c, 1, 65, 127
1, 615862, Note_on_c, 1, 57, 127
1, 615990, Note_off_c, 1, 65, 0
1, 615990, Note_off_c, 1, 57, 0
1, 616013, Note_on_c, 1, 69, 127
1, 616013, Note_on_c, 1, 53, 127
1, 616158, Note_off_c, 1, 69, 0
1, 616158, Note_off_c, 1, 53, 0
1, 616166, Note_on_c, 1, 64, 127
1, 616166, Note_on_c, 1, 57, 127
1, 616304, Note_off_c, 1, 64, 0
1, 616304, Note_off_c, 1, 57, 0
1, 616315, Note_on_c, 1, 65, 127
1, 616315, Note_on_c, 1, 53, 127
1, 616443, Note_off_c, 1, 65, 0
1, 616443, Note_off_c, 1, 53, 0
1, 616467, Note_on_c, 1, 58, 127
1, 616467, Note_on_c, 1, 50, 127
1, 616612, Note_off_c, 1, 58, 0
1, 616619, Note_on_c, 1, 62, 127
1, 616757, Note_off_c, 1, 62, 0
1, 616764, Note_off_c, 1, 50, 0
1, 616772, Note_on_c, 1, 65, 127
1, 616772, Note_on_c, 1, 58, 127
1, 616900, Note_off_c, 1, 65, 0
1, 616900, Note_off_c, 1, 58, 0
1, 616924, Note_on_c, 1, 69, 127
1, 616924, Note_on_c, 1, 46, 127
1, 617069, Note_off_c, 1, 69, 0
1, 617075, Note_on_c, 1, 65, 127
1, 617213, Note_off_c, 1, 65, 0
1, 617225, Note_on_c, 1, 67, 127
1, 617353, Note_off_c, 1, 67, 0
1, 617523, Note_off_c, 1, 46, 0
1, 617530, Note_on_c, 1, 62, 127
1, 617530, Note_on_c, 1, 58, 127
1, 617668, Note_off_c, 1, 62, 0
1, 617668, Note_off_c, 1, 58, 0
1, 617679, Note_on_c, 1, 64, 127
1, 617679, Note_on_c, 1, 55, 127
1, 617807, Note_off_c, 1, 64, 0
1, 617807, Note_off_c, 1, 55, 0
1, 617830, Note_on_c, 1, 67, 127
1, 617830, Note_on_c, 1, 52, 127
1, 617975, Note_off_c, 1, 67, 0
1, 617983, Note_on_c, 1, 62, 127
1, 618121, Note_off_c, 1, 62, 0
1, 618127, Note_off_c, 1, 52, 0
1, 618134, Note_on_c, 1, 64, 127
1, 618134, Note_on_c, 1, 55, 127
1, 618262, Note_off_c, 1, 64, 0
1, 618262, Note_off_c, 1, 55, 0
1, 618286, Note_on_c, 1, 57, 127
1, 618286, Note_on_c, 1, 49, 127
1, 618431, Note_off_c, 1, 57, 0
1, 618439, Note_on_c, 1, 61, 127
1, 618577, Note_off_c, 1, 61, 0
1, 618583, Note_off_c, 1, 49, 0
1, 618590, Note_on_c, 1, 64, 127
1, 618590, Note_on_c, 1, 57, 127
1, 618718, Note_off_c, 1, 64, 0
1, 618718, Note_off_c, 1, 57, 0
1, 618743, Note_on_c, 1, 67, 127
1, 618743, Note_on_c, 1, 45, 127
1, 618888, Note_off_c, 1, 67, 0
1, 618893, Note_on_c, 1, 64, 127
1, 619031, Note_off_c, 1, 64, 0
1, 619040, Note_off_c, 1, 45, 0
1, 619046, Note_on_c, 1, 65, 127
1, 619046, Note_on_c, 1, 50, 127
1, 619174, Note_off_c, 1, 65, 0
1, 619174, Note_off_c, 1, 50, 0
1, 619197, Note_on_c, 1, 55, 127
1, 619197, Note_on_c, 1, 46, 127
1, 619342, Note_off_c, 1, 55, 0
1, 619350, Note_on_c, 1, 58, 127
1, 619488, Note_off_c, 1, 58, 0
1, 619494, Note_off_c, 1, 46, 0
1, 619501, Note_on_c, 1, 62, 127
1, 619501, Note_on_c, 1, 55, 127
1, 619629, Note_off_c, 1, 62, 0
1, 619629, Note_off_c, 1, 55, 0
1, 619654, Note_on_c, 1, 65, 127
1, 619654, Note_on_c, 1, 43, 127
1, 619799, Note_off_c, 1, 65, 0
1, 619804, Note_on_c, 1, 62, 127
1, 619942, Note_off_c, 1, 62, 0
1, 619951, Note_off_c, 1, 43, 0
1, 619957, Note_on_c, 1, 64, 127
1, 619957, Note_on_c, 1, 48, 127
1, 620085, Note_off_c, 1, 64, 0
1, 620085, Note_off_c, 1, 48, 0
1, 620109, Note_on_c, 1, 53, 127
1, 620109, Note_on_c, 1, 45, 127
1, 620254, Note_off_c, 1, 53, 0
1, 620261, Note_on_c, 1, 57, 127
1, 620399, Note_off_c, 1, 57, 0
1, 620406, Note_off_c, 1, 45, 0
1, 620412, Note_on_c, 1, 60, 127
1, 620412, Note_on_c, 1, 53, 127
1, 620540, Note_off_c, 1, 60, 0
1, 620540, Note_off_c, 1, 53, 0
1, 620564, Note_on_c, 1, 67, 127
1, 620564, Note_on_c, 1, 47, 127
1, 620709, Note_off_c, 1, 67, 0
1, 620717, Note_on_c, 1, 64, 127
1, 620855, Note_off_c, 1, 64, 0
1, 620861, Note_off_c, 1, 47, 0
1, 620869, Note_on_c, 1, 65, 127
1, 620869, Note_on_c, 1, 55, 127
1, 620997, Note_off_c, 1, 65, 0
1, 620997, Note_off_c, 1, 55, 0
1, 621020, Note_on_c, 1, 69, 127
1, 621020, Note_on_c, 1, 48, 127
1, 621165, Note_off_c, 1, 69, 0
1, 621172, Note_on_c, 1, 64, 127
1, 621310, Note_off_c, 1, 64, 0
1, 621317, Note_off_c, 1, 48, 0
1, 621324, Note_on_c, 1, 65, 127
1, 621324, Note_on_c, 1, 57, 127
1, 621452, Note_off_c, 1, 65, 0
1, 621452, Note_off_c, 1, 57, 0
1, 621476, Note_on_c, 1, 71, 127
1, 621476, Note_on_c, 1, 50, 127
1, 621621, Note_off_c, 1, 71, 0
1, 621628, Note_on_c, 1, 64, 127
1, 621766, Note_off_c, 1, 64, 0
1, 621773, Note_off_c, 1, 50, 0
1, 621779, Note_on_c, 1, 65, 127
1, 621779, Note_on_c, 1, 59, 127
1, 621907, Note_off_c, 1, 65, 0
1, 621907, Note_off_c, 1, 59, 0
1, 621931, Note_on_c, 1, 72, 127
1, 621931, Note_on_c, 1, 48, 127
1, 622076, Note_off_c, 1, 72, 0
1, 622082, Note_on_c, 1, 64, 127
1, 622220, Note_off_c, 1, 64, 0
1, 622233, Note_on_c, 1, 67, 127
1, 622361, Note_off_c, 1, 67, 0
1, 622530, Note_off_c, 1, 48, 0
1, 622538, Note_on_c, 1, 74, 127
1, 622538, Note_on_c, 1, 48, 127
1, 622676, Note_off_c, 1, 74, 0
1, 622676, Note_off_c, 1, 48, 0
1, 622687, Note_on_c, 1, 76, 127
1, 622687, Note_on_c, 1, 46, 127
1, 622815, Note_off_c, 1, 76, 0
1, 622815, Note_off_c, 1, 46, 0
1, 622838, Note_on_c, 1, 77, 127
1, 622838, Note_on_c, 1, 45, 127
1, 622983, Note_off_c, 1, 77, 0
1, 622983, Note_off_c, 1, 45, 0
1, 622991, Note_on_c, 1, 79, 127
1, 622991, Note_on_c, 1, 43, 127
1, 623129, Note_off_c, 1, 79, 0
1, 623129, Note_off_c, 1, 43, 0
1, 623141, Note_on_c, 1, 81, 127
1, 623141, Note_on_c, 1, 41, 127
1, 623269, Note_off_c, 1, 81, 0
1, 623269, Note_off_c, 1, 41, 0
1, 623293, Note_on_c, 1, 81, 127
1, 623293, Note_on_c, 1, 41, 127
1, 623438, Note_off_c, 1, 81, 0
1, 623438, Note_off_c, 1, 41, 0
1, 623446, Note_on_c, 1, 82, 127
1, 623446, Note_on_c, 1, 43, 127
1, 623584, Note_off_c, 1, 82, 0
1, 623584, Note_off_c, 1, 43, 0
1, 623594, Note_on_c, 1, 84, 127
1, 623594, Note_on_c, 1, 45, 127
1, 623722, Note_off_c, 1, 84, 0
1, 623722, Note_off_c, 1, 45, 0
1, 623747, Note_on_c, 1, 84, 127
1, 623747, Note_on_c, 1, 45, 127
1, 623818, Note_off_c, 1, 84, 0
1, 623822, Note_on_c, 1, 82, 127
1, 623892, Note_off_c, 1, 45, 0
1, 623893, Note_off_c, 1, 82, 0
1, 623898, Note_on_c, 1, 36, 127
1, 623898, Note_on_c, 1, 84, 127
1, 624036, Note_off_c, 1, 36, 0
1, 624049, Note_on_c, 1, 41, 127
1, 624177, Note_off_c, 1, 41, 0
1, 624190, Note_off_c, 1, 84, 0
1, 624201, Note_on_c, 1, 84, 127
1, 624201, Note_on_c, 1, 45, 127
1, 624346, Note_off_c, 1, 84, 0
1, 624346, Note_off_c, 1, 45, 0
1, 624353, Note_on_c, 1, 81, 127
1, 624353, Note_on_c, 1, 41, 127
1, 624491, Note_off_c, 1, 81, 0
1, 624491, Note_off_c, 1, 41, 0
1, 624503, Note_on_c, 1, 77, 127
1, 624503, Note_on_c, 1, 45, 127
1, 624631, Note_off_c, 1, 77, 0
1, 624631, Note_off_c, 1, 45, 0
1, 624654, Note_on_c, 1, 84, 127
1, 624654, Note_on_c, 1, 48, 127
1, 624725, Note_off_c, 1, 84, 0
1, 624730, Note_on_c, 1, 82, 127
1, 624799, Note_off_c, 1, 48, 0
1, 624801, Note_off_c, 1, 82, 0
1, 624807, Note_on_c, 1, 43, 127
1, 624807, Note_on_c, 1, 84, 127
1, 624945, Note_off_c, 1, 43, 0
1, 624957, Note_on_c, 1, 48, 127
1, 625085, Note_off_c, 1, 48, 0
1, 625099, Note_off_c, 1, 84, 0
1, 625108, Note_on_c, 1, 84, 127
1, 625108, Note_on_c, 1, 52, 127
1, 625253, Note_off_c, 1, 84, 0
1, 625253, Note_off_c, 1, 52, 0
1, 625261, Note_on_c, 1, 79, 127
1, 625261, Note_on_c, 1, 48, 127
1, 625399, Note_off_c, 1, 79, 0
1, 625399, Note_off_c, 1, 48, 0
1, 625410, Note_on_c, 1, 76, 127
1, 625410, Note_on_c, 1, 52, 127
1, 625538, Note_off_c, 1, 76, 0
1, 625538, Note_off_c, 1, 52, 0
1, 625563, Note_on_c, 1, 84, 127
1, 625563, Note_on_c, 1, 53, 127
1, 625634, Note_off_c, 1, 84, 0
1, 625638, Note_on_c, 1, 82, 127
1, 625708, Note_off_c, 1, 53, 0
1, 625709, Note_off_c, 1, 82, 0
1, 625713, Note_on_c, 1, 48, 127
1, 625713, Note_on_c, 1, 84, 127
1, 625851, Note_off_c, 1, 48, 0
1, 625864, Note_on_c, 1, 53, 127
1, 625992, Note_off_c, 1, 53, 0
1, 626005, Note_off_c, 1, 84, 0
1, 626017, Note_on_c, 1, 84, 127
1, 626017, Note_on_c, 1, 57, 127
1, 626162, Note_off_c, 1, 84, 0
1, 626162, Note_off_c, 1, 57, 0
1, 626168, Note_on_c, 1, 81, 127
1, 626168, Note_on_c, 1, 53, 127
1, 626306, Note_off_c, 1, 81, 0
1, 626306, Note_off_c, 1, 53, 0
1, 626319, Note_on_c, 1, 77, 127
1, 626319, Note_on_c, 1, 57, 127
1, 626447, Note_off_c, 1, 77, 0
1, 626447, Note_off_c, 1, 57, 0
1, 626470, Note_on_c, 1, 84, 127
1, 626470, Note_on_c, 1, 60, 127
1, 626541, Note_off_c, 1, 84, 0
1, 626546, Note_on_c, 1, 82, 127
1, 626615, Note_off_c, 1, 60, 0
1, 626617, Note_off_c, 1, 82, 0
1, 626622, Note_on_c, 1, 55, 127
1, 626622, Note_on_c, 1, 84, 127
1, 626760, Note_off_c, 1, 55, 0
1, 626773, Note_on_c, 1, 60, 127
1, 626901, Note_off_c, 1, 60, 0
1, 626914, Note_off_c, 1, 84, 0
1, 626924, Note_on_c, 1, 84, 127
1, 626924, Note_on_c, 1, 64, 127
1, 627069, Note_off_c, 1, 84, 0
1, 627069, Note_off_c, 1, 64, 0
1, 627077, Note_on_c, 1, 79, 127
1, 627077, Note_on_c, 1, 60, 127
1, 627215, Note_off_c, 1, 79, 0
1, 627215, Note_off_c, 1, 60, 0
1, 627226, Note_on_c, 1, 76, 127
1, 627226, Note_on_c, 1, 64, 127
1, 627354, Note_off_c, 1, 76, 0
1, 627354, Note_off_c, 1, 64, 0
1, 627379, Note_on_c, 1, 77, 127
1, 627379, Note_on_c, 1, 69, 127
1, 627524, Note_off_c, 1, 77, 0
1, 627524, Note_off_c, 1, 69, 0
1, 627529, Note_on_c, 1, 74, 127
1, 627529, Note_on_c, 1, 65, 127
1, 627667, Note_off_c, 1, 74, 0
1, 627667, Note_off_c, 1, 65, 0
1, 627680, Note_on_c, 1, 82, 127
1, 627680, Note_on_c, 1, 62, 127
1, 627808, Note_off_c, 1, 82, 0
1, 627808, Note_off_c, 1, 62, 0
1, 627832, Note_on_c, 1, 76, 127
1, 627832, Note_on_c, 1, 67, 127
1, 627977, Note_off_c, 1, 76, 0
1, 627977, Note_off_c, 1, 67, 0
1, 627984, Note_on_c, 1, 72, 127
1, 627984, Note_on_c, 1, 64, 127
1, 628122, Note_off_c, 1, 72, 0
1, 628122, Note_off_c, 1, 64, 0
1, 628135, Note_on_c, 1, 81, 127
1, 628135, Note_on_c, 1, 60, 127
1, 628263, Note_off_c, 1, 81, 0
1, 628263, Note_off_c, 1, 60, 0
1, 628286, Note_on_c, 1, 74, 127
1, 628286, Note_on_c, 1, 65, 127
1, 628431, Note_off_c, 1, 74, 0
1, 628431, Note_off_c, 1, 65, 0
1, 628437, Note_on_c, 1, 70, 127
1, 628437, Note_on_c, 1, 62, 127
1, 628575, Note_off_c, 1, 70, 0
1, 628575, Note_off_c, 1, 62, 0
1, 628587, Note_on_c, 1, 79, 127
1, 628587, Note_on_c, 1, 58, 127
1, 628715, Note_off_c, 1, 79, 0
1, 628715, Note_off_c, 1, 58, 0
1, 628740, Note_on_c, 1, 72, 127
1, 628740, Note_on_c, 1, 64, 127
1, 628885, Note_off_c, 1, 72, 0
1, 628885, Note_off_c, 1, 64, 0
1, 628892, Note_on_c, 1, 69, 127
1, 628892, Note_on_c, 1, 60, 127
1, 629030, Note_off_c, 1, 69, 0
1, 629030, Note_off_c, 1, 60, 0
1, 629042, Note_on_c, 1, 77, 127
1, 629042, Note_on_c, 1, 57, 127
1, 629170, Note_off_c, 1, 77, 0
1, 629170, Note_off_c, 1, 57, 0
1, 629194, Note_on_c, 1, 70, 127
1, 629194, Note_on_c, 1, 62, 127
1, 629344, Note_off_c, 1, 70, 0
1, 629344, Note_off_c, 1, 62, 0
1, 629350, Note_on_c, 1, 67, 127
1, 629350, Note_on_c, 1, 58, 127
1, 629493, Note_off_c, 1, 67, 0
1, 629493, Note_off_c, 1, 58, 0
1, 629508, Note_on_c, 1, 77, 127
1, 629508, Note_on_c, 1, 55, 127
1, 629640, Note_off_c, 1, 77, 0
1, 629640, Note_off_c, 1, 55, 0
1, 629663, Note_on_c, 1, 70, 127
1, 629663, Note_on_c, 1, 60, 127
1, 629823, Note_off_c, 1, 70, 0
1, 629829, Note_on_c, 1, 67, 127
1, 629978, Note_off_c, 1, 67, 0
1, 629986, Note_off_c, 1, 60, 0
1, 629993, Note_on_c, 1, 76, 127
1, 629993, Note_on_c, 1, 48, 127
1, 630132, Note_off_c, 1, 76, 0
1, 630132, Note_off_c, 1, 48, 0
1, 630156, Note_on_c, 1, 77, 127
1, 630156, Note_on_c, 1, 41, 127
1, 630343, Note_off_c, 1, 77, 0
1, 630349, Note_on_c, 1, 69, 127
1, 630526, Note_off_c, 1, 69, 0
1, 630563, Note_on_c, 1, 72, 127
1, 630727, Note_off_c, 1, 72, 0
1, 630795, Note_on_c, 1, 65, 127
1, 632817, Note_off_c, 1, 41, 0
1, 632876, Note_off_c, 1, 65, 0
1, 632876, End_track
0, 0, End_of_file