0, 0, Header, 1, 1, 480
1, 0, Start_track
1, 0, Title_t, "Test"
1, 0, Tempo, 500000
1, 0, Instrument_name_t, "Church Organ"
1, 0, Note_on_c, 1, 52, 127
1, 337, Note_on_c, 1, 71, 127
1, 673, Note_off_c, 1, 71, 0
1, 675, Note_on_c, 1, 73, 127
1, 1013, Note_on_c, 1, 68, 127
1, 1349, Note_off_c, 1, 68, 0
1, 1351, Note_on_c, 1, 69, 127
1, 1519, Note_off_c, 1, 73, 0
1, 1843, Note_off_c, 1, 69, 0
1, 2534, Note_on_c, 1, 66, 127
1, 2701, Note_off_c, 1, 66, 0
1, 3041, Note_on_c, 1, 76, 127
1, 3208, Note_off_c, 1, 76, 0
1, 3210, Note_on_c, 1, 75, 127
1, 3377, Note_off_c, 1, 75, 0
1, 4561, Note_on_c, 1, 64, 127
1, 4728, Note_off_c, 1, 64, 0
1, 4898, Note_off_c, 1, 52, 0
1, 5068, Note_on_c, 1, 51, 127
1, 5235, Note_off_c, 1, 51, 0
1, 5237, Note_on_c, 1, 49, 127
1, 5404, Note_off_c, 1, 49, 0
1, 5575, Note_on_c, 1, 54, 127
1, 5742, Note_off_c, 1, 54, 0
1, 5744, Note_on_c, 1, 47, 127
1, 5911, Note_off_c, 1, 47, 0
1, 6420, Note_on_c, 1, 68, 127
1, 6420, Note_on_c, 1, 40, 127
1, 6587, Note_off_c, 1, 68, 0
1, 6589, Note_on_c, 1, 66, 127
1, 6756, Note_off_c, 1, 40, 0
1, 6756, Note_off_c, 1, 66, 0
1, 6758, Note_on_c, 1, 52, 127
1, 6758, Note_on_c, 1, 68, 127
1, 6927, Note_on_c, 1, 66, 127
1, 7094, Note_off_c, 1, 52, 0
1, 7094, Note_off_c, 1, 66, 0
1, 7096, Note_on_c, 1, 64, 127
1, 7096, Note_on_c, 1, 54, 127
1, 7263, Note_off_c, 1, 64, 0
1, 7265, Note_on_c, 1, 63, 127
1, 7432, Note_off_c, 1, 54, 0
1, 7432, Note_off_c, 1, 63, 0
1, 7434, Note_on_c, 1, 56, 127
1, 7602, Note_off_c, 1, 68, 0
1, 7770, Note_off_c, 1, 56, 0
1, 7772, Note_on_c, 1, 66, 127
1, 7772, Note_on_c, 1, 57, 127
1, 7939, Note_off_c, 1, 66, 0
1, 7941, Note_on_c, 1, 64, 127
1, 8108, Note_off_c, 1, 57, 0
1, 8108, Note_off_c, 1, 64, 0
1, 8110, Note_on_c, 1, 63, 127
1, 8110, Note_on_c, 1, 59, 127
1, 8446, Note_off_c, 1, 63, 0
1, 8448, Note_on_c, 1, 66, 127
1, 8784, Note_off_c, 1, 66, 0
1, 8785, Note_on_c, 1, 68, 127
1, 9123, Note_on_c, 1, 75, 127
1, 9459, Note_off_c, 1, 75, 0
1, 9461, Note_on_c, 1, 76, 127
1, 9629, Note_off_c, 1, 68, 0
1, 9968, Note_on_c, 1, 64, 127
1, 10135, Note_off_c, 1, 64, 0
1, 10305, Note_off_c, 1, 76, 0
1, 10644, Note_on_c, 1, 73, 127
1, 10811, Note_off_c, 1, 73, 0
1, 11151, Note_on_c, 1, 71, 127
1, 11318, Note_off_c, 1, 71, 0
1, 11320, Note_on_c, 1, 69, 127
1, 11487, Note_off_c, 1, 69, 0
1, 13008, Note_off_c, 1, 59, 0
1, 13178, Note_on_c, 1, 58, 127
1, 13345, Note_off_c, 1, 58, 0
1, 13347, Note_on_c, 1, 56, 127
1, 13514, Note_off_c, 1, 56, 0
1, 13685, Note_on_c, 1, 61, 127
1, 13852, Note_off_c, 1, 61, 0
1, 13854, Note_on_c, 1, 54, 127
1, 14021, Note_off_c, 1, 54, 0
1, 15375, Note_on_c, 1, 70, 127
1, 15542, Note_off_c, 1, 70, 0
1, 16051, Note_on_c, 1, 57, 127
1, 16218, Note_off_c, 1, 57, 0
1, 16896, Note_on_c, 1, 65, 127
1, 17063, Note_off_c, 1, 65, 0
1, 17233, Note_on_c, 1, 62, 127
1, 17400, Note_off_c, 1, 62, 0
1, 17402, Note_on_c, 1, 74, 127
1, 17738, Note_off_c, 1, 74, 0
1, 19261, Note_on_c, 1, 78, 127
1, 19428, Note_off_c, 1, 78, 0
1, 19430, Note_on_c, 1, 81, 127
1, 19766, Note_off_c, 1, 81, 0
1, 19937, Note_on_c, 1, 80, 127
1, 20104, Note_off_c, 1, 80, 0
1, 20275, Note_on_c, 1, 72, 127
1, 20444, Note_on_c, 1, 52, 127
1, 20611, Note_off_c, 1, 72, 0
1, 20611, Note_off_c, 1, 52, 0
1, 20613, Note_on_c, 1, 51, 127
1, 20613, Note_on_c, 1, 73, 127
1, 20613, Note_on_c, 1, 64, 127
1, 20780, Note_off_c, 1, 51, 0
1, 20782, Note_on_c, 1, 49, 127
1, 20949, Note_off_c, 1, 73, 0
1, 20949, Note_off_c, 1, 64, 0
1, 20949, Note_off_c, 1, 49, 0
1, 20951, Note_on_c, 1, 48, 127
1, 20951, Note_on_c, 1, 66, 127
1, 20951, Note_on_c, 1, 75, 127
1, 21118, Note_off_c, 1, 48, 0
1, 21120, Note_on_c, 1, 51, 127
1, 21287, Note_off_c, 1, 66, 0
1, 21287, Note_off_c, 1, 51, 0
1, 21288, Note_on_c, 1, 69, 127
1, 21288, Note_on_c, 1, 54, 127
1, 21455, Note_off_c, 1, 69, 0
1, 21455, Note_off_c, 1, 54, 0
1, 21457, Note_on_c, 1, 72, 127
1, 21457, Note_on_c, 1, 57, 127
1, 21619, Note_off_c, 1, 75, 0
1, 21624, Note_off_c, 1, 72, 0
1, 21626, Note_on_c, 1, 73, 127
1, 21793, Note_off_c, 1, 57, 0
1, 21962, Note_off_c, 1, 73, 0
1, 21964, Note_on_c, 1, 56, 127
1, 21964, Note_on_c, 1, 72, 127
1, 22131, Note_off_c, 1, 56, 0
1, 22133, Note_on_c, 1, 54, 127
1, 22300, Note_off_c, 1, 72, 0
1, 22300, Note_off_c, 1, 54, 0
1, 22302, Note_on_c, 1, 52, 127
1, 22302, Note_on_c, 1, 73, 127
1, 22469, Note_off_c, 1, 52, 0
1, 22471, Note_on_c, 1, 51, 127
1, 22638, Note_off_c, 1, 51, 0
1, 22640, Note_on_c, 1, 49, 127
1, 22640, Note_on_c, 1, 68, 127
1, 22807, Note_off_c, 1, 49, 0
1, 22809, Note_on_c, 1, 54, 127
1, 22970, Note_off_c, 1, 73, 0
1, 22976, Note_off_c, 1, 68, 0
1, 22976, Note_off_c, 1, 54, 0
1, 22978, Note_on_c, 1, 52, 127
1, 22978, Note_on_c, 1, 73, 127
1, 23145, Note_off_c, 1, 52, 0
1, 23147, Note_on_c, 1, 56, 127
1, 23314, Note_off_c, 1, 73, 0
1, 23314, Note_off_c, 1, 56, 0
1, 23316, Note_on_c, 1, 61, 127
1, 23316, Note_on_c, 1, 76, 127
1, 23483, Note_off_c, 1, 61, 0
1, 23485, Note_on_c, 1, 64, 127
1, 23652, Note_off_c, 1, 76, 0
1, 23654, Note_on_c, 1, 70, 127
1, 23654, Note_on_c, 1, 67, 127
1, 23821, Note_off_c, 1, 64, 0
1, 23990, Note_off_c, 1, 70, 0
1, 23992, Note_on_c, 1, 71, 127
1, 23992, Note_on_c, 1, 63, 127
1, 24159, Note_off_c, 1, 71, 0
1, 24159, Note_off_c, 1, 63, 0
1, 24161, Note_on_c, 1, 73, 127
1, 24322, Note_off_c, 1, 67, 0
1, 24330, Note_on_c, 1, 66, 127
1, 24330, Note_on_c, 1, 58, 127
1, 24354, Note_off_c, 1, 73, 0
1, 24497, Note_off_c, 1, 66, 0
1, 24499, Note_on_c, 1, 65, 127
1, 24666, Note_off_c, 1, 58, 0
1, 24666, Note_off_c, 1, 65, 0
1, 24668, Note_on_c, 1, 66, 127
1, 24668, Note_on_c, 1, 61, 127
1, 24835, Note_off_c, 1, 66, 0
1, 24837, Note_on_c, 1, 68, 127
1, 25004, Note_off_c, 1, 61, 0
1, 25004, Note_off_c, 1, 68, 0
1, 25006, Note_on_c, 1, 70, 127
1, 25006, Note_on_c, 1, 66, 127
1, 25173, Note_off_c, 1, 70, 0
1, 25175, Note_on_c, 1, 71, 127
1, 25342, Note_off_c, 1, 66, 0
1, 25342, Note_off_c, 1, 71, 0
1, 25344, Note_on_c, 1, 73, 127
1, 25344, Note_on_c, 1, 61, 127
1, 25511, Note_off_c, 1, 73, 0
1, 25512, Note_on_c, 1, 75, 127
1, 25679, Note_off_c, 1, 75, 0
1, 25680, Note_off_c, 1, 61, 0
1, 25681, Note_on_c, 1, 76, 127
1, 25681, Note_on_c, 1, 58, 127
1, 25848, Note_off_c, 1, 76, 0
1, 25850, Note_on_c, 1, 75, 127
1, 26017, Note_off_c, 1, 58, 0
1, 26017, Note_off_c, 1, 75, 0
1, 26019, Note_on_c, 1, 76, 127
1, 26019, Note_on_c, 1, 54, 127
1, 26186, Note_off_c, 1, 76, 0
1, 26188, Note_on_c, 1, 73, 127
1, 26355, Note_off_c, 1, 54, 0
1, 26355, Note_off_c, 1, 73, 0
1, 26357, Note_on_c, 1, 59, 127
1, 26357, Note_on_c, 1, 75, 127
1, 26524, Note_off_c, 1, 59, 0
1, 26526, Note_on_c, 1, 58, 127
1, 26693, Note_off_c, 1, 58, 0
1, 26864, Note_on_c, 1, 61, 127
1, 27031, Note_off_c, 1, 61, 0
1, 27033, Note_on_c, 1, 63, 127
1, 27200, Note_off_c, 1, 63, 0
1, 27202, Note_on_c, 1, 64, 127
1, 27369, Note_off_c, 1, 64, 0
1, 27371, Note_on_c, 1, 66, 127
1, 27538, Note_off_c, 1, 66, 0
1, 27540, Note_on_c, 1, 68, 127
1, 27707, Note_off_c, 1, 68, 0
1, 27709, Note_on_c, 1, 69, 127
1, 27876, Note_off_c, 1, 69, 0
1, 28554, Note_on_c, 1, 51, 127
1, 28721, Note_off_c, 1, 51, 0
1, 28723, Note_on_c, 1, 52, 127
1, 28890, Note_off_c, 1, 52, 0
1, 28892, Note_on_c, 1, 70, 127
1, 28892, Note_on_c, 1, 54, 127
1, 29049, Note_off_c, 1, 75, 0
1, 29059, Note_off_c, 1, 70, 0
1, 29059, Note_off_c, 1, 54, 0
1, 29061, Note_on_c, 1, 56, 127
1, 29061, Note_on_c, 1, 71, 127
1, 29061, Note_on_c, 1, 74, 127
1, 29228, Note_off_c, 1, 56, 0
1, 29230, Note_on_c, 1, 58, 127
1, 29397, Note_off_c, 1, 71, 0
1, 29397, Note_off_c, 1, 74, 0
1, 29397, Note_off_c, 1, 58, 0
1, 29399, Note_on_c, 1, 59, 127
1, 29399, Note_on_c, 1, 71, 127
1, 29399, Note_on_c, 1, 68, 127
1, 29566, Note_off_c, 1, 59, 0
1, 29568, Note_on_c, 1, 61, 127
1, 29735, Note_off_c, 1, 71, 0
1, 29735, Note_off_c, 1, 68, 0
1, 29735, Note_off_c, 1, 61, 0
1, 29736, Note_on_c, 1, 62, 127
1, 29736, Note_on_c, 1, 68, 127
1, 29736, Note_on_c, 1, 65, 127
1, 29903, Note_off_c, 1, 62, 0
1, 29905, Note_on_c, 1, 61, 127
1, 30072, Note_off_c, 1, 68, 0
1, 30072, Note_off_c, 1, 61, 0
1, 30074, Note_on_c, 1, 71, 127
1, 30243, Note_on_c, 1, 59, 127
1, 30404, Note_off_c, 1, 65, 0
1, 30410, Note_off_c, 1, 59, 0
1, 30412, Note_on_c, 1, 64, 127
1, 30579, Note_off_c, 1, 71, 0
1, 30750, Note_on_c, 1, 70, 127
1, 30917, Note_off_c, 1, 70, 0
1, 31426, Note_on_c, 1, 73, 127
1, 31593, Note_off_c, 1, 73, 0
1, 31764, Note_on_c, 1, 66, 127
1, 31764, Note_on_c, 1, 58, 127
1, 31925, Note_off_c, 1, 64, 0
1, 32100, Note_off_c, 1, 66, 0
1, 32102, Note_on_c, 1, 63, 127
1, 32102, Note_on_c, 1, 78, 127
1, 32269, Note_off_c, 1, 63, 0
1, 32432, Note_off_c, 1, 58, 0
1, 32607, Note_off_c, 1, 78, 0
1, 32609, Note_on_c, 1, 76, 127
1, 32776, Note_off_c, 1, 76, 0
1, 32778, Note_on_c, 1, 80, 127
1, 32778, Note_on_c, 1, 54, 127
1, 32778, Note_on_c, 1, 58, 127
1, 32945, Note_off_c, 1, 80, 0
1, 32947, Note_on_c, 1, 78, 127
1, 33114, Note_off_c, 1, 54, 0
1, 33114, Note_off_c, 1, 58, 0
1, 33114, Note_off_c, 1, 78, 0
1, 33116, Note_on_c, 1, 76, 127
1, 33116, Note_on_c, 1, 56, 127
1, 33116, Note_on_c, 1, 59, 127
1, 33283, Note_off_c, 1, 76, 0
1, 33285, Note_on_c, 1, 75, 127
1, 33452, Note_off_c, 1, 56, 0
1, 33452, Note_off_c, 1, 75, 0
1, 33454, Note_on_c, 1, 73, 127
1, 33454, Note_on_c, 1, 52, 127
1, 33621, Note_off_c, 1, 73, 0
1, 33623, Note_on_c, 1, 71, 127
1, 33790, Note_off_c, 1, 52, 0
1, 33790, Note_off_c, 1, 71, 0
1, 33792, Note_on_c, 1, 54, 127
1, 33960, Note_on_c, 1, 66, 127
1, 34127, Note_off_c, 1, 66, 0
1, 34128, Note_off_c, 1, 59, 0
1, 34129, Note_on_c, 1, 58, 127
1, 34298, Note_on_c, 1, 64, 127
1, 34460, Note_off_c, 1, 54, 0
1, 34465, Note_off_c, 1, 58, 0
1, 34465, Note_off_c, 1, 64, 0
1, 34467, Note_on_c, 1, 63, 127
1, 34467, Note_on_c, 1, 59, 127
1, 34634, Note_off_c, 1, 63, 0
1, 34636, Note_on_c, 1, 66, 127
1, 34803, Note_off_c, 1, 66, 0
1, 34805, Note_on_c, 1, 71, 127
1, 34805, Note_on_c, 1, 47, 127
1, 34972, Note_off_c, 1, 71, 0
1, 34974, Note_on_c, 1, 70, 127
1, 35135, Note_off_c, 1, 59, 0
1, 35141, Note_off_c, 1, 47, 0
1, 35141, Note_off_c, 1, 70, 0
1, 35143, Note_on_c, 1, 47, 127
1, 35143, Note_on_c, 1, 71, 127
1, 35312, Note_on_c, 1, 66, 127
1, 35479, Note_off_c, 1, 47, 0
1, 35479, Note_off_c, 1, 66, 0
1, 35481, Note_on_c, 1, 64, 127
1, 35481, Note_on_c, 1, 59, 127
1, 35648, Note_off_c, 1, 64, 0
1, 35811, Note_off_c, 1, 71, 0
1, 35817, Note_off_c, 1, 59, 0
1, 35819, Note_on_c, 1, 68, 127
1, 36157, Note_on_c, 1, 63, 127
1, 36324, Note_off_c, 1, 63, 0
1, 36487, Note_off_c, 1, 68, 0
1, 36833, Note_on_c, 1, 69, 127
1, 37000, Note_off_c, 1, 69, 0
1, 37171, Note_on_c, 1, 47, 127
1, 37171, Note_on_c, 1, 69, 127
1, 37340, Note_on_c, 1, 64, 127
1, 37507, Note_off_c, 1, 47, 0
1, 37507, Note_off_c, 1, 64, 0
1, 37509, Note_on_c, 1, 63, 127
1, 37509, Note_on_c, 1, 59, 127
1, 37676, Note_off_c, 1, 63, 0
1, 37839, Note_off_c, 1, 69, 0
1, 37845, Note_off_c, 1, 59, 0
1, 37847, Note_on_c, 1, 66, 127
1, 38184, Note_on_c, 1, 61, 127
1, 38351, Note_off_c, 1, 61, 0
1, 38515, Note_off_c, 1, 66, 0
1, 38860, Note_on_c, 1, 67, 127
1, 38860, Note_on_c, 1, 47, 127
1, 39027, Note_off_c, 1, 67, 0
1, 39029, Note_on_c, 1, 66, 127
1, 39196, Note_off_c, 1, 47, 0
1, 39196, Note_off_c, 1, 66, 0
1, 39198, Note_on_c, 1, 47, 127
1, 39198, Note_on_c, 1, 67, 127
1, 39367, Note_on_c, 1, 63, 127
1, 39534, Note_off_c, 1, 47, 0
1, 39534, Note_off_c, 1, 63, 0
1, 39536, Note_on_c, 1, 61, 127
1, 39536, Note_on_c, 1, 59, 127
1, 39703, Note_off_c, 1, 61, 0
1, 39866, Note_off_c, 1, 67, 0
1, 39872, Note_off_c, 1, 59, 0
1, 39874, Note_on_c, 1, 64, 127
1, 40886, Note_off_c, 1, 64, 0
1, 40888, Note_on_c, 1, 73, 127
1, 40888, Note_on_c, 1, 58, 127
1, 41224, Note_off_c, 1, 73, 0
1, 41393, Note_off_c, 1, 58, 0
1, 41395, Note_on_c, 1, 54, 127
1, 41562, Note_off_c, 1, 54, 0
1, 41564, Note_on_c, 1, 56, 127
1, 41564, Note_on_c, 1, 61, 127
1, 41564, Note_on_c, 1, 64, 127
1, 41731, Note_off_c, 1, 56, 0
1, 41733, Note_on_c, 1, 58, 127
1, 41900, Note_off_c, 1, 61, 0
1, 41900, Note_off_c, 1, 64, 0
1, 41900, Note_off_c, 1, 58, 0
1, 41902, Note_on_c, 1, 63, 127
1, 41902, Note_on_c, 1, 59, 127
1, 42071, Note_on_c, 1, 56, 127
1, 42238, Note_off_c, 1, 63, 0
1, 42238, Note_off_c, 1, 59, 0
1, 42238, Note_off_c, 1, 56, 0
1, 42240, Note_on_c, 1, 54, 127
1, 42240, Note_on_c, 1, 78, 127
1, 42407, Note_off_c, 1, 54, 0
1, 42408, Note_on_c, 1, 52, 127
1, 42575, Note_off_c, 1, 52, 0
1, 42576, Note_off_c, 1, 78, 0
1, 42577, Note_on_c, 1, 51, 127
1, 42577, Note_on_c, 1, 78, 127
1, 42744, Note_off_c, 1, 51, 0
1, 42746, Note_on_c, 1, 49, 127
1, 42913, Note_off_c, 1, 78, 0
1, 42913, Note_off_c, 1, 49, 0
1, 42915, Note_on_c, 1, 51, 127
1, 42915, Note_on_c, 1, 71, 127
1, 42915, Note_on_c, 1, 63, 127
1, 43082, Note_off_c, 1, 51, 0
1, 43084, Note_on_c, 1, 52, 127
1, 43251, Note_off_c, 1, 71, 0
1, 43251, Note_off_c, 1, 63, 0
1, 43251, Note_off_c, 1, 52, 0
1, 43253, Note_on_c, 1, 54, 127
1, 43253, Note_on_c, 1, 70, 127
1, 43253, Note_on_c, 1, 61, 127
1, 43420, Note_off_c, 1, 54, 0
1, 43422, Note_on_c, 1, 51, 127
1, 43589, Note_off_c, 1, 70, 0
1, 43589, Note_off_c, 1, 61, 0
1, 43589, Note_off_c, 1, 51, 0
1, 43591, Note_on_c, 1, 49, 127
1, 43591, Note_on_c, 1, 76, 127
1, 43758, Note_off_c, 1, 49, 0
1, 43760, Note_on_c, 1, 47, 127
1, 43927, Note_off_c, 1, 76, 0
1, 43927, Note_off_c, 1, 47, 0
1, 43929, Note_on_c, 1, 46, 127
1, 43929, Note_on_c, 1, 76, 127
1, 44096, Note_off_c, 1, 46, 0
1, 44098, Note_on_c, 1, 44, 127
1, 44265, Note_off_c, 1, 76, 0
1, 44265, Note_off_c, 1, 44, 0
1, 44267, Note_on_c, 1, 46, 127
1, 44267, Note_on_c, 1, 64, 127
1, 44267, Note_on_c, 1, 66, 127
1, 44267, Note_on_c, 1, 61, 127
1, 44434, Note_off_c, 1, 46, 0
1, 44436, Note_on_c, 1, 47, 127
1, 44603, Note_off_c, 1, 64, 0
1, 44603, Note_off_c, 1, 66, 0
1, 44603, Note_off_c, 1, 61, 0
1, 44603, Note_off_c, 1, 47, 0
1, 44605, Note_on_c, 1, 49, 127
1, 44605, Note_on_c, 1, 58, 127
1, 44605, Note_on_c, 1, 66, 127
1, 44605, Note_on_c, 1, 64, 127
1, 44772, Note_off_c, 1, 49, 0
1, 44774, Note_on_c, 1, 46, 127
1, 44941, Note_off_c, 1, 46, 0
1, 44943, Note_on_c, 1, 44, 127
1, 45110, Note_off_c, 1, 44, 0
1, 45112, Note_on_c, 1, 42, 127
1, 45273, Note_off_c, 1, 58, 0
1, 45279, Note_off_c, 1, 42, 0
1, 45281, Note_on_c, 1, 47, 127
1, 45281, Note_on_c, 1, 59, 127
1, 45448, Note_off_c, 1, 66, 0
1, 45448, Note_off_c, 1, 64, 0
1, 45450, Note_on_c, 1, 63, 127
1, 45617, Note_off_c, 1, 47, 0
1, 45619, Note_on_c, 1, 68, 127
1, 45786, Note_off_c, 1, 68, 0
1, 45788, Note_on_c, 1, 71, 127
1, 45942, Note_off_c, 1, 63, 0
1, 45949, Note_off_c, 1, 59, 0
1, 45957, Note_on_c, 1, 61, 127
1, 45957, Note_on_c, 1, 40, 127
1, 46122, Note_off_c, 1, 71, 0
1, 46291, Note_off_c, 1, 61, 0
1, 46293, Note_off_c, 1, 40, 0
1, 46295, Note_on_c, 1, 54, 127
1, 46464, Note_on_c, 1, 70, 127
1, 46631, Note_off_c, 1, 70, 0
1, 46967, Note_off_c, 1, 54, 0
1, 46974, Note_on_c, 1, 55, 127
1, 47313, Note_off_c, 1, 55, 0
1, 47664, Note_on_c, 1, 52, 127
1, 48010, Note_off_c, 1, 52, 0
1, 48730, Note_on_c, 1, 59, 127
1, 49068, Note_on_c, 1, 78, 127
1, 49404, Note_off_c, 1, 78, 0
1, 49406, Note_on_c, 1, 80, 127
1, 49744, Note_on_c, 1, 75, 127
1, 50080, Note_off_c, 1, 75, 0
1, 50082, Note_on_c, 1, 76, 127
1, 50250, Note_off_c, 1, 80, 0
1, 50574, Note_off_c, 1, 76, 0
1, 51265, Note_on_c, 1, 73, 127
1, 51431, Note_off_c, 1, 59, 0
1, 51432, Note_off_c, 1, 73, 0
1, 51434, Note_on_c, 1, 60, 127
1, 51941, Note_on_c, 1, 81, 127
1, 52108, Note_off_c, 1, 81, 0
1, 52783, Note_off_c, 1, 60, 0
1, 52785, Note_on_c, 1, 61, 127
1, 52785, Note_on_c, 1, 76, 127
1, 52954, Note_on_c, 1, 75, 127
1, 53121, Note_off_c, 1, 75, 0
1, 53123, Note_on_c, 1, 73, 127
1, 53290, Note_off_c, 1, 73, 0
1, 53292, Note_on_c, 1, 72, 127
1, 53459, Note_off_c, 1, 72, 0
1, 53628, Note_off_c, 1, 61, 0
1, 53630, Note_on_c, 1, 59, 127
1, 53797, Note_off_c, 1, 76, 0
1, 53797, Note_off_c, 1, 59, 0
1, 53799, Note_on_c, 1, 57, 127
1, 53966, Note_off_c, 1, 57, 0
1, 53968, Note_on_c, 1, 56, 127
1, 54135, Note_off_c, 1, 56, 0
1, 54137, Note_on_c, 1, 57, 127
1, 54137, Note_on_c, 1, 75, 127
1, 54137, Note_on_c, 1, 66, 127
1, 54304, Note_off_c, 1, 57, 0
1, 54306, Note_on_c, 1, 61, 127
1, 54473, Note_off_c, 1, 75, 0
1, 54473, Note_off_c, 1, 61, 0
1, 54475, Note_on_c, 1, 54, 127
1, 54475, Note_on_c, 1, 73, 127
1, 54642, Note_off_c, 1, 54, 0
1, 54811, Note_off_c, 1, 73, 0
1, 54813, Note_on_c, 1, 56, 127
1, 54813, Note_on_c, 1, 72, 127
1, 54981, Note_off_c, 1, 66, 0
1, 55149, Note_off_c, 1, 56, 0
1, 55151, Note_on_c, 1, 68, 127
1, 55151, Note_on_c, 1, 44, 127
1, 55318, Note_off_c, 1, 68, 0
1, 55320, Note_on_c, 1, 69, 127
1, 55487, Note_off_c, 1, 44, 0
1, 55487, Note_off_c, 1, 69, 0
1, 55827, Note_on_c, 1, 64, 127
1, 55994, Note_off_c, 1, 64, 0
1, 55996, Note_on_c, 1, 63, 127
1, 56162, Note_off_c, 1, 72, 0
1, 56163, Note_off_c, 1, 63, 0
1, 56165, Note_on_c, 1, 61, 127
1, 56165, Note_on_c, 1, 56, 127
1, 56332, Note_off_c, 1, 61, 0
1, 56334, Note_on_c, 1, 60, 127
1, 56501, Note_off_c, 1, 56, 0
1, 56501, Note_off_c, 1, 60, 0
1, 56503, Note_on_c, 1, 61, 127
1, 56503, Note_on_c, 1, 54, 127
1, 56670, Note_off_c, 1, 61, 0
1, 56672, Note_on_c, 1, 63, 127
1, 56839, Note_off_c, 1, 54, 0
1, 56839, Note_off_c, 1, 63, 0
1, 56840, Note_on_c, 1, 56, 127
1, 56840, Note_on_c, 1, 52, 127
1, 57009, Note_on_c, 1, 73, 127
1, 57176, Note_off_c, 1, 56, 0
1, 57176, Note_off_c, 1, 73, 0
1, 57178, Note_on_c, 1, 68, 127
1, 57178, Note_on_c, 1, 61, 127
1, 57345, Note_off_c, 1, 68, 0
1, 57347, Note_on_c, 1, 67, 127
1, 57508, Note_off_c, 1, 52, 0
1, 57514, Note_off_c, 1, 61, 0
1, 57514, Note_off_c, 1, 67, 0
1, 57516, Note_on_c, 1, 68, 127
1, 57516, Note_on_c, 1, 61, 127
1, 57683, Note_off_c, 1, 68, 0
1, 57685, Note_on_c, 1, 72, 127
1, 57852, Note_off_c, 1, 61, 0
1, 57852, Note_off_c, 1, 72, 0
1, 57854, Note_on_c, 1, 73, 127
1, 57854, Note_on_c, 1, 56, 127
1, 58021, Note_off_c, 1, 73, 0
1, 58023, Note_on_c, 1, 75, 127
1, 58190, Note_off_c, 1, 56, 0
1, 58190, Note_off_c, 1, 75, 0
1, 58192, Note_on_c, 1, 76, 127
1, 58192, Note_on_c, 1, 56, 127
1, 58192, Note_on_c, 1, 49, 127
1, 58359, Note_off_c, 1, 76, 0
1, 58361, Note_on_c, 1, 75, 127
1, 58528, Note_off_c, 1, 56, 0
1, 58528, Note_off_c, 1, 75, 0
1, 58699, Note_on_c, 1, 73, 127
1, 58860, Note_off_c, 1, 49, 0
1, 58866, Note_off_c, 1, 73, 0
1, 58868, Note_on_c, 1, 75, 127
1, 58868, Note_on_c, 1, 56, 127
1, 58868, Note_on_c, 1, 48, 127
1, 59035, Note_off_c, 1, 75, 0
1, 59037, Note_on_c, 1, 72, 127
1, 59204, Note_off_c, 1, 56, 0
1, 59204, Note_off_c, 1, 72, 0
1, 59206, Note_on_c, 1, 68, 127
1, 59206, Note_on_c, 1, 63, 127
1, 59373, Note_off_c, 1, 68, 0
1, 59375, Note_on_c, 1, 67, 127
1, 59536, Note_off_c, 1, 48, 0
1, 59542, Note_off_c, 1, 63, 0
1, 59542, Note_off_c, 1, 67, 0
1, 59544, Note_on_c, 1, 68, 127
1, 59544, Note_on_c, 1, 63, 127
1, 59711, Note_off_c, 1, 68, 0
1, 59713, Note_on_c, 1, 72, 127
1, 59880, Note_off_c, 1, 63, 0
1, 59880, Note_off_c, 1, 72, 0
1, 59882, Note_on_c, 1, 75, 127
1, 59882, Note_on_c, 1, 60, 127
1, 60049, Note_off_c, 1, 75, 0
1, 60051, Note_on_c, 1, 76, 127
1, 60218, Note_off_c, 1, 60, 0
1, 60218, Note_off_c, 1, 76, 0
1, 60220, Note_on_c, 1, 78, 127
1, 60220, Note_on_c, 1, 56, 127
1, 60220, Note_on_c, 1, 44, 127
1, 60387, Note_off_c, 1, 78, 0
1, 60389, Note_on_c, 1, 76, 127
1, 60556, Note_off_c, 1, 56, 0
1, 60556, Note_off_c, 1, 76, 0
1, 60727, Note_on_c, 1, 75, 127
1, 60888, Note_off_c, 1, 44, 0
1, 60894, Note_off_c, 1, 75, 0
1, 60896, Note_on_c, 1, 56, 127
1, 60896, Note_on_c, 1, 49, 127
1, 60896, Note_on_c, 1, 76, 127
1, 61064, Note_on_c, 1, 73, 127
1, 61231, Note_off_c, 1, 73, 0
1, 61232, Note_off_c, 1, 56, 0
1, 61232, Note_off_c, 1, 49, 0
1, 61233, Note_on_c, 1, 68, 127
1, 61233, Note_on_c, 1, 52, 127
1, 61400, Note_off_c, 1, 68, 0
1, 61402, Note_on_c, 1, 71, 127
1, 61569, Note_off_c, 1, 52, 0
1, 61569, Note_off_c, 1, 71, 0
1, 61571, Note_on_c, 1, 69, 127
1, 61571, Note_on_c, 1, 54, 127
1, 61738, Note_off_c, 1, 69, 0
1, 61907, Note_off_c, 1, 54, 0
1, 61909, Note_on_c, 1, 66, 127
1, 61909, Note_on_c, 1, 57, 127
1, 62075, Note_off_c, 1, 76, 0
1, 62078, Note_on_c, 1, 75, 127
1, 62243, Note_off_c, 1, 66, 0
1, 62245, Note_off_c, 1, 57, 0
1, 62247, Note_on_c, 1, 64, 127
1, 62247, Note_on_c, 1, 55, 127
1, 62412, Note_off_c, 1, 75, 0
1, 62581, Note_off_c, 1, 64, 0
1, 62583, Note_off_c, 1, 55, 0
1, 62585, Note_on_c, 1, 63, 127
1, 62754, Note_on_c, 1, 72, 127
1, 62919, Note_off_c, 1, 63, 0
1, 62921, Note_off_c, 1, 72, 0
1, 62923, Note_on_c, 1, 64, 127
1, 62923, Note_on_c, 1, 49, 127
1, 62923, Note_on_c, 1, 73, 127
1, 63090, Note_off_c, 1, 64, 0
1, 63092, Note_on_c, 1, 69, 127
1, 63259, Note_off_c, 1, 49, 0
1, 63259, Note_off_c, 1, 69, 0
1, 63261, Note_on_c, 1, 68, 127
1, 63261, Note_on_c, 1, 52, 127
1, 63428, Note_off_c, 1, 68, 0
1, 63430, Note_on_c, 1, 66, 127
1, 63591, Note_off_c, 1, 73, 0
1, 63597, Note_off_c, 1, 52, 0
1, 63597, Note_off_c, 1, 66, 0
1, 63599, Note_on_c, 1, 64, 127
1, 63599, Note_on_c, 1, 56, 127
1, 63766, Note_off_c, 1, 64, 0
1, 63768, Note_on_c, 1, 63, 127
1, 63935, Note_off_c, 1, 56, 0
1, 63935, Note_off_c, 1, 63, 0
1, 63937, Note_on_c, 1, 64, 127
1, 63937, Note_on_c, 1, 61, 127
1, 64104, Note_off_c, 1, 64, 0
1, 64106, Note_on_c, 1, 66, 127
1, 64273, Note_off_c, 1, 61, 0
1, 64273, Note_off_c, 1, 66, 0
1, 64275, Note_on_c, 1, 68, 127
1, 64275, Note_on_c, 1, 59, 127
1, 64442, Note_off_c, 1, 68, 0
1, 64444, Note_on_c, 1, 69, 127
1, 64611, Note_off_c, 1, 59, 0
1, 64611, Note_off_c, 1, 69, 0
1, 64613, Note_on_c, 1, 71, 127
1, 64613, Note_on_c, 1, 57, 127
1, 64695, Note_off_c, 1, 71, 0
1, 64697, Note_on_c, 1, 69, 127
1, 64779, Note_off_c, 1, 69, 0
1, 64782, Note_on_c, 1, 68, 127
1, 64864, Note_off_c, 1, 68, 0
1, 64949, Note_off_c, 1, 57, 0
1, 64951, Note_on_c, 1, 71, 127
1, 64951, Note_on_c, 1, 56, 127
1, 65120, Note_on_c, 1, 76, 127
1, 65285, Note_off_c, 1, 71, 0
1, 65287, Note_off_c, 1, 56, 0
1, 65287, Note_off_c, 1, 76, 0
1, 65288, Note_on_c, 1, 75, 127
1, 65288, Note_on_c, 1, 59, 127
1, 65455, Note_off_c, 1, 75, 0
1, 65457, Note_on_c, 1, 73, 127
1, 65624, Note_off_c, 1, 59, 0
1, 65624, Note_off_c, 1, 73, 0
1, 65626, Note_on_c, 1, 71, 127
1, 65626, Note_on_c, 1, 64, 127
1, 65793, Note_off_c, 1, 71, 0
1, 65795, Note_on_c, 1, 70, 127
1, 65962, Note_off_c, 1, 64, 0
1, 65962, Note_off_c, 1, 70, 0
1, 65964, Note_on_c, 1, 71, 127
1, 65964, Note_on_c, 1, 68, 127
1, 66131, Note_off_c, 1, 71, 0
1, 66133, Note_on_c, 1, 73, 127
1, 66300, Note_off_c, 1, 68, 0
1, 66300, Note_off_c, 1, 73, 0
1, 66302, Note_on_c, 1, 75, 127
1, 66302, Note_on_c, 1, 66, 127
1, 66469, Note_off_c, 1, 75, 0
1, 66471, Note_on_c, 1, 76, 127
1, 66638, Note_off_c, 1, 66, 0
1, 66638, Note_off_c, 1, 76, 0
1, 66640, Note_on_c, 1, 78, 127
1, 66640, Note_on_c, 1, 64, 127
1, 66722, Note_off_c, 1, 78, 0
1, 66725, Note_on_c, 1, 76, 127
1, 66807, Note_off_c, 1, 76, 0
1, 66809, Note_on_c, 1, 75, 127
1, 66891, Note_off_c, 1, 75, 0
1, 66976, Note_off_c, 1, 64, 0
1, 66978, Note_on_c, 1, 78, 127
1, 66978, Note_on_c, 1, 63, 127
1, 67145, Note_off_c, 1, 78, 0
1, 67147, Note_on_c, 1, 80, 127
1, 67314, Note_off_c, 1, 63, 0
1, 67314, Note_off_c, 1, 80, 0
1, 67316, Note_on_c, 1, 78, 127
1, 67316, Note_on_c, 1, 71, 127
1, 67316, Note_on_c, 1, 68, 127
1, 67483, Note_off_c, 1, 78, 0
1, 67485, Note_on_c, 1, 76, 127
1, 67652, Note_off_c, 1, 71, 0
1, 67652, Note_off_c, 1, 68, 0
1, 67652, Note_off_c, 1, 76, 0
1, 67654, Note_on_c, 1, 75, 127
1, 67654, Note_on_c, 1, 66, 127
1, 67654, Note_on_c, 1, 69, 127
1, 67821, Note_off_c, 1, 75, 0
1, 67823, Note_on_c, 1, 73, 127
1, 67990, Note_off_c, 1, 66, 0
1, 67990, Note_off_c, 1, 69, 0
1, 67990, Note_off_c, 1, 73, 0
1, 67992, Note_on_c, 1, 75, 127
1, 67992, Note_on_c, 1, 64, 127
1, 67992, Note_on_c, 1, 68, 127
1, 68159, Note_off_c, 1, 75, 0
1, 68161, Note_on_c, 1, 76, 127
1, 68328, Note_off_c, 1, 64, 0
1, 68328, Note_off_c, 1, 68, 0
1, 68328, Note_off_c, 1, 76, 0
1, 68330, Note_on_c, 1, 78, 127
1, 68330, Note_on_c, 1, 63, 127
1, 68330, Note_on_c, 1, 66, 127
1, 68497, Note_off_c, 1, 78, 0
1, 68499, Note_on_c, 1, 80, 127
1, 68666, Note_off_c, 1, 63, 0
1, 68666, Note_off_c, 1, 66, 0
1, 68666, Note_off_c, 1, 80, 0
1, 68668, Note_on_c, 1, 81, 127
1, 68668, Note_on_c, 1, 61, 127
1, 68668, Note_on_c, 1, 64, 127
1, 68750, Note_off_c, 1, 81, 0
1, 68752, Note_on_c, 1, 80, 127
1, 68834, Note_off_c, 1, 80, 0
1, 68837, Note_on_c, 1, 78, 127
1, 68919, Note_off_c, 1, 78, 0
1, 69004, Note_off_c, 1, 61, 0
1, 69004, Note_off_c, 1, 64, 0
1, 69006, Note_on_c, 1, 59, 127
1, 69006, Note_on_c, 1, 63, 127
1, 69006, Note_on_c, 1, 81, 127
1, 69175, Note_on_c, 1, 73, 127
1, 69342, Note_off_c, 1, 59, 0
1, 69342, Note_off_c, 1, 63, 0
1, 69342, Note_off_c, 1, 73, 0
1, 69344, Note_on_c, 1, 71, 127
1, 69344, Note_on_c, 1, 61, 127
1, 69344, Note_on_c, 1, 64, 127
1, 69511, Note_off_c, 1, 71, 0
1, 69512, Note_on_c, 1, 70, 127
1, 69674, Note_off_c, 1, 81, 0
1, 69679, Note_off_c, 1, 70, 0
1, 69680, Note_off_c, 1, 61, 0
1, 69680, Note_off_c, 1, 64, 0
1, 69681, Note_on_c, 1, 71, 127
1, 69681, Note_on_c, 1, 59, 127
1, 69681, Note_on_c, 1, 63, 127
1, 69848, Note_off_c, 1, 71, 0
1, 69850, Note_on_c, 1, 81, 127
1, 70017, Note_off_c, 1, 59, 0
1, 70017, Note_off_c, 1, 63, 0
1, 70017, Note_off_c, 1, 81, 0
1, 70019, Note_on_c, 1, 80, 127
1, 70019, Note_on_c, 1, 57, 127
1, 70019, Note_on_c, 1, 61, 127
1, 70186, Note_off_c, 1, 80, 0
1, 70188, Note_on_c, 1, 78, 127
1, 70355, Note_off_c, 1, 57, 0
1, 70355, Note_off_c, 1, 61, 0
1, 70355, Note_off_c, 1, 78, 0
1, 70357, Note_on_c, 1, 83, 127
1, 70357, Note_on_c, 1, 56, 127
1, 70357, Note_on_c, 1, 59, 127
1, 70526, Note_on_c, 1, 76, 127
1, 70691, Note_off_c, 1, 83, 0
1, 70693, Note_off_c, 1, 56, 0
1, 70693, Note_off_c, 1, 76, 0
1, 70695, Note_on_c, 1, 75, 127
1, 70695, Note_on_c, 1, 54, 127
1, 70862, Note_off_c, 1, 75, 0
1, 70864, Note_on_c, 1, 81, 127
1, 71031, Note_off_c, 1, 54, 0
1, 71031, Note_off_c, 1, 81, 0
1, 71033, Note_on_c, 1, 80, 127
1, 71033, Note_on_c, 1, 52, 127
1, 71200, Note_off_c, 1, 80, 0
1, 71201, Note_off_c, 1, 59, 0
1, 71202, Note_on_c, 1, 66, 127
1, 71369, Note_off_c, 1, 52, 0
1, 71369, Note_off_c, 1, 66, 0
1, 71371, Note_on_c, 1, 64, 127
1, 71371, Note_on_c, 1, 54, 127
1, 71538, Note_off_c, 1, 64, 0
1, 71540, Note_on_c, 1, 63, 127
1, 71707, Note_off_c, 1, 54, 0
1, 71707, Note_off_c, 1, 63, 0
1, 71709, Note_on_c, 1, 64, 127
1, 71709, Note_on_c, 1, 56, 127
1, 71876, Note_off_c, 1, 64, 0
1, 71878, Note_on_c, 1, 74, 127
1, 72045, Note_off_c, 1, 56, 0
1, 72045, Note_off_c, 1, 74, 0
1, 72047, Note_on_c, 1, 73, 127
1, 72047, Note_on_c, 1, 52, 127
1, 72214, Note_off_c, 1, 73, 0
1, 72216, Note_on_c, 1, 71, 127
1, 72383, Note_off_c, 1, 52, 0
1, 72383, Note_off_c, 1, 71, 0
1, 72385, Note_on_c, 1, 76, 127
1, 72385, Note_on_c, 1, 49, 127
1, 72554, Note_on_c, 1, 69, 127
1, 72719, Note_off_c, 1, 76, 0
1, 72721, Note_off_c, 1, 49, 0
1, 72721, Note_off_c, 1, 69, 0
1, 72723, Note_on_c, 1, 68, 127
1, 72723, Note_on_c, 1, 52, 127
1, 72890, Note_off_c, 1, 68, 0
1, 72892, Note_on_c, 1, 74, 127
1, 73059, Note_off_c, 1, 52, 0
1, 73059, Note_off_c, 1, 74, 0
1, 73061, Note_on_c, 1, 45, 127
1, 73061, Note_on_c, 1, 73, 127
1, 73230, Note_on_c, 1, 80, 127
1, 73397, Note_off_c, 1, 45, 0
1, 73397, Note_off_c, 1, 80, 0
1, 73399, Note_on_c, 1, 78, 127
1, 73399, Note_on_c, 1, 57, 127
1, 73566, Note_off_c, 1, 78, 0
1, 73568, Note_on_c, 1, 76, 127
1, 73735, Note_off_c, 1, 76, 0
1, 73904, Note_off_c, 1, 57, 0
1, 73905, Note_on_c, 1, 56, 127
1, 74072, Note_off_c, 1, 56, 0
1, 74074, Note_on_c, 1, 54, 127
1, 74074, Note_on_c, 1, 81, 127
1, 74241, Note_off_c, 1, 54, 0
1, 74243, Note_on_c, 1, 52, 127
1, 74410, Note_off_c, 1, 73, 0
1, 74410, Note_off_c, 1, 52, 0
1, 74412, Note_on_c, 1, 51, 127
1, 74412, Note_on_c, 1, 71, 127
1, 74579, Note_off_c, 1, 51, 0
1, 74581, Note_on_c, 1, 49, 127
1, 74742, Note_off_c, 1, 81, 0
1, 74748, Note_off_c, 1, 49, 0
1, 74750, Note_on_c, 1, 47, 127
1, 74750, Note_on_c, 1, 75, 127
1, 74917, Note_off_c, 1, 47, 0
1, 75088, Note_on_c, 1, 44, 127
1, 75255, Note_off_c, 1, 75, 0
1, 75424, Note_off_c, 1, 44, 0
1, 76436, Note_off_c, 1, 71, 0
1, 76440, Note_on_c, 1, 69, 127
1, 77116, Note_on_c, 1, 42, 127
1, 77452, Note_off_c, 1, 42, 0
1, 78780, Note_off_c, 1, 69, 0
1, 78805, Note_on_c, 1, 44, 127
1, 78805, Note_on_c, 1, 63, 127
1, 78805, Note_on_c, 1, 69, 127
1, 78972, Note_off_c, 1, 44, 0
1, 78974, Note_on_c, 1, 42, 127
1, 79141, Note_off_c, 1, 42, 0
1, 79143, Note_on_c, 1, 40, 127
1, 79297, Note_off_c, 1, 63, 0
1, 79312, Note_on_c, 1, 59, 127
1, 79473, Note_off_c, 1, 69, 0
1, 79479, Note_off_c, 1, 40, 0
1, 79481, Note_on_c, 1, 68, 127
1, 79481, Note_on_c, 1, 52, 127
1, 79648, Note_off_c, 1, 68, 0
1, 79650, Note_on_c, 1, 66, 127
1, 79817, Note_off_c, 1, 66, 0
1, 79819, Note_on_c, 1, 64, 127
1, 79986, Note_off_c, 1, 52, 0
1, 79988, Note_on_c, 1, 51, 127
1, 80155, Note_off_c, 1, 51, 0
1, 80326, Note_on_c, 1, 54, 127
1, 80491, Note_off_c, 1, 59, 0
1, 80493, Note_off_c, 1, 54, 0
1, 80495, Note_on_c, 1, 56, 127
1, 80662, Note_off_c, 1, 56, 0
1, 81168, Note_off_c, 1, 64, 0
1, 81171, Note_on_c, 1, 57, 127
1, 81171, Note_on_c, 1, 61, 127
1, 81340, Note_on_c, 1, 68, 127
1, 81507, Note_off_c, 1, 57, 0
1, 81507, Note_off_c, 1, 68, 0
1, 81509, Note_on_c, 1, 66, 127
1, 81509, Note_on_c, 1, 45, 127
1, 81676, Note_off_c, 1, 66, 0
1, 81678, Note_on_c, 1, 64, 127
1, 81839, Note_off_c, 1, 61, 0
1, 81845, Note_off_c, 1, 45, 0
1, 81845, Note_off_c, 1, 64, 0
1, 81847, Note_on_c, 1, 63, 127
1, 81847, Note_on_c, 1, 57, 127
1, 82014, Note_off_c, 1, 63, 0
1, 82016, Note_on_c, 1, 61, 127
1, 82183, Note_off_c, 1, 57, 0
1, 82183, Note_off_c, 1, 61, 0
1, 82184, Note_on_c, 1, 63, 127
1, 82184, Note_on_c, 1, 59, 127
1, 82351, Note_off_c, 1, 63, 0
1, 82353, Note_on_c, 1, 64, 127
1, 82520, Note_off_c, 1, 59, 0
1, 82520, Note_off_c, 1, 64, 0
1, 82522, Note_on_c, 1, 66, 127
1, 82522, Note_on_c, 1, 57, 127
1, 82689, Note_off_c, 1, 66, 0
1, 82691, Note_on_c, 1, 68, 127
1, 82858, Note_off_c, 1, 57, 0
1, 82858, Note_off_c, 1, 68, 0
1, 82860, Note_on_c, 1, 69, 127
1, 82860, Note_on_c, 1, 56, 127
1, 82942, Note_off_c, 1, 69, 0
1, 82945, Note_on_c, 1, 68, 127
1, 83027, Note_off_c, 1, 68, 0
1, 83029, Note_on_c, 1, 66, 127
1, 83111, Note_off_c, 1, 66, 0
1, 83196, Note_off_c, 1, 56, 0
1, 83198, Note_on_c, 1, 54, 127
1, 83198, Note_on_c, 1, 69, 127
1, 83367, Note_on_c, 1, 64, 127
1, 83534, Note_off_c, 1, 64, 0
1, 83536, Note_on_c, 1, 63, 127
1, 83703, Note_off_c, 1, 63, 0
1, 83705, Note_on_c, 1, 61, 127
1, 83872, Note_off_c, 1, 61, 0
1, 83874, Note_on_c, 1, 59, 127
1, 84041, Note_off_c, 1, 59, 0
1, 84043, Note_on_c, 1, 58, 127
1, 84148, Note_off_c, 1, 54, 0
1, 84210, Note_off_c, 1, 58, 0
1, 84212, Note_on_c, 1, 56, 127
1, 84548, Note_off_c, 1, 56, 0
1, 84888, Note_on_c, 1, 66, 127
1, 84888, Note_on_c, 1, 52, 127
1, 84970, Note_off_c, 1, 66, 0
1, 85222, Note_off_c, 1, 69, 0
1, 85224, Note_off_c, 1, 52, 0
1, 85226, Note_on_c, 1, 66, 127
1, 85226, Note_on_c, 1, 52, 127
1, 85562, Note_off_c, 1, 66, 0
1, 85562, Note_off_c, 1, 52, 0
1, 85564, Note_on_c, 1, 78, 127
1, 85564, Note_on_c, 1, 51, 127
1, 85900, Note_off_c, 1, 78, 0
1, 86069, Note_off_c, 1, 51, 0
1, 86071, Note_on_c, 1, 59, 127
1, 86238, Note_off_c, 1, 59, 0
1, 86240, Note_on_c, 1, 61, 127
1, 86240, Note_on_c, 1, 69, 127
1, 86240, Note_on_c, 1, 66, 127
1, 86407, Note_off_c, 1, 61, 0
1, 86408, Note_on_c, 1, 63, 127
1, 86575, Note_off_c, 1, 63, 0
1, 86576, Note_off_c, 1, 69, 0
1, 86576, Note_off_c, 1, 66, 0
1, 86577, Note_on_c, 1, 64, 127
1, 86577, Note_on_c, 1, 68, 127
1, 86746, Note_on_c, 1, 61, 127
1, 86913, Note_off_c, 1, 64, 0
1, 86913, Note_off_c, 1, 68, 0
1, 86913, Note_off_c, 1, 61, 0
1, 86915, Note_on_c, 1, 59, 127
1, 86915, Note_on_c, 1, 83, 127
1, 87082, Note_off_c, 1, 59, 0
1, 87084, Note_on_c, 1, 57, 127
1, 87251, Note_off_c, 1, 83, 0
1, 87251, Note_off_c, 1, 57, 0
1, 87253, Note_on_c, 1, 56, 127
1, 87253, Note_on_c, 1, 83, 127
1, 87420, Note_off_c, 1, 56, 0
1, 87422, Note_on_c, 1, 54, 127
1, 87589, Note_off_c, 1, 83, 0
1, 87589, Note_off_c, 1, 54, 0
1, 87591, Note_on_c, 1, 56, 127
1, 87591, Note_on_c, 1, 68, 127
1, 87591, Note_on_c, 1, 76, 127
1, 87758, Note_off_c, 1, 56, 0
1, 87760, Note_on_c, 1, 57, 127
1, 87927, Note_off_c, 1, 68, 0
1, 87927, Note_off_c, 1, 76, 0
1, 87927, Note_off_c, 1, 57, 0
1, 87929, Note_on_c, 1, 59, 127
1, 87929, Note_on_c, 1, 66, 127
1, 87929, Note_on_c, 1, 75, 127
1, 88096, Note_off_c, 1, 59, 0
1, 88098, Note_on_c, 1, 56, 127
1, 88265, Note_off_c, 1, 66, 0
1, 88265, Note_off_c, 1, 75, 0
1, 88265, Note_off_c, 1, 56, 0
1, 88267, Note_on_c, 1, 54, 127
1, 88267, Note_on_c, 1, 81, 127
1, 88434, Note_off_c, 1, 54, 0
1, 88436, Note_on_c, 1, 52, 127
1, 88603, Note_off_c, 1, 81, 0
1, 88603, Note_off_c, 1, 52, 0
1, 88605, Note_on_c, 1, 51, 127
1, 88605, Note_on_c, 1, 81, 127
1, 88772, Note_off_c, 1, 51, 0
1, 88774, Note_on_c, 1, 49, 127
1, 88941, Note_off_c, 1, 81, 0
1, 88941, Note_off_c, 1, 49, 0
1, 88943, Note_on_c, 1, 51, 127
1, 88943, Note_on_c, 1, 71, 127
1, 88943, Note_on_c, 1, 66, 127
1, 88943, Note_on_c, 1, 69, 127
1, 89110, Note_off_c, 1, 51, 0
1, 89112, Note_on_c, 1, 52, 127
1, 89279, Note_off_c, 1, 71, 0
1, 89279, Note_off_c, 1, 66, 0
1, 89279, Note_off_c, 1, 69, 0
1, 89279, Note_off_c, 1, 52, 0
1, 89281, Note_on_c, 1, 54, 127
1, 89281, Note_on_c, 1, 63, 127
1, 89281, Note_on_c, 1, 69, 127
1, 89281, Note_on_c, 1, 71, 127
1, 89448, Note_off_c, 1, 54, 0
1, 89450, Note_on_c, 1, 51, 127
1, 89617, Note_off_c, 1, 51, 0
1, 89619, Note_on_c, 1, 49, 127
1, 89786, Note_off_c, 1, 49, 0
1, 89788, Note_on_c, 1, 47, 127
1, 89955, Note_off_c, 1, 63, 0
1, 89955, Note_off_c, 1, 47, 0
1, 89957, Note_on_c, 1, 52, 127
1, 89957, Note_on_c, 1, 64, 127
1, 90125, Note_off_c, 1, 69, 0
1, 90126, Note_on_c, 1, 68, 127
1, 90293, Note_off_c, 1, 71, 0
1, 90293, Note_off_c, 1, 52, 0
1, 90295, Note_on_c, 1, 73, 127
1, 90462, Note_off_c, 1, 73, 0
1, 90464, Note_on_c, 1, 76, 127
1, 90625, Note_off_c, 1, 64, 0
1, 90632, Note_off_c, 1, 68, 0
1, 90632, Note_on_c, 1, 66, 127
1, 90632, Note_on_c, 1, 45, 127
1, 90798, Note_off_c, 1, 76, 0
1, 90966, Note_off_c, 1, 66, 0
1, 90968, Note_off_c, 1, 45, 0
1, 91139, Note_on_c, 1, 75, 127
1, 91306, Note_off_c, 1, 75, 0
1, 91308, Note_on_c, 1, 52, 127
1, 91308, Note_on_c, 1, 68, 127
1, 91477, Note_on_c, 1, 71, 127
1, 91644, Note_off_c, 1, 52, 0
1, 91644, Note_off_c, 1, 71, 0
1, 91646, Note_on_c, 1, 76, 127
1, 91646, Note_on_c, 1, 40, 127
1, 91813, Note_off_c, 1, 76, 0
1, 91815, Note_on_c, 1, 75, 127
1, 91976, Note_off_c, 1, 68, 0
1, 91982, Note_off_c, 1, 40, 0
1, 91982, Note_off_c, 1, 75, 0
1, 91984, Note_on_c, 1, 40, 127
1, 91984, Note_on_c, 1, 76, 127
1, 92153, Note_on_c, 1, 71, 127
1, 92320, Note_off_c, 1, 40, 0
1, 92320, Note_off_c, 1, 71, 0
1, 92322, Note_on_c, 1, 69, 127
1, 92322, Note_on_c, 1, 52, 127
1, 92489, Note_off_c, 1, 69, 0
1, 92652, Note_off_c, 1, 76, 0
1, 92658, Note_off_c, 1, 52, 0
1, 92660, Note_on_c, 1, 52, 127
1, 92660, Note_on_c, 1, 73, 127
1, 92829, Note_on_c, 1, 69, 127
1, 92996, Note_off_c, 1, 52, 0
1, 92996, Note_off_c, 1, 69, 0
1, 92998, Note_on_c, 1, 68, 127
1, 92998, Note_on_c, 1, 40, 127
1, 93165, Note_off_c, 1, 68, 0
1, 93328, Note_off_c, 1, 73, 0
1, 93334, Note_off_c, 1, 40, 0
1, 93336, Note_on_c, 1, 71, 127
1, 93503, Note_off_c, 1, 71, 0
1, 93674, Note_on_c, 1, 74, 127
1, 93841, Note_off_c, 1, 74, 0
1, 94012, Note_on_c, 1, 40, 127
1, 94012, Note_on_c, 1, 74, 127
1, 94181, Note_on_c, 1, 69, 127
1, 94348, Note_off_c, 1, 40, 0
1, 94348, Note_off_c, 1, 69, 0
1, 94350, Note_on_c, 1, 68, 127
1, 94350, Note_on_c, 1, 52, 127
1, 94517, Note_off_c, 1, 68, 0
1, 94680, Note_off_c, 1, 74, 0
1, 94686, Note_off_c, 1, 52, 0
1, 94688, Note_on_c, 1, 71, 127
1, 95025, Note_on_c, 1, 66, 127
1, 95192, Note_off_c, 1, 66, 0
1, 95356, Note_off_c, 1, 71, 0
1, 95701, Note_on_c, 1, 72, 127
1, 95868, Note_off_c, 1, 72, 0
1, 96039, Note_on_c, 1, 40, 127
1, 96039, Note_on_c, 1, 72, 127
1, 96208, Note_on_c, 1, 68, 127
1, 96375, Note_off_c, 1, 40, 0
1, 96375, Note_off_c, 1, 68, 0
1, 96377, Note_on_c, 1, 66, 127
1, 96377, Note_on_c, 1, 52, 127
1, 96544, Note_off_c, 1, 66, 0
1, 96707, Note_off_c, 1, 72, 0
1, 96713, Note_off_c, 1, 52, 0
1, 96715, Note_on_c, 1, 52, 127
1, 96715, Note_on_c, 1, 69, 127
1, 96884, Note_on_c, 1, 66, 127
1, 97051, Note_off_c, 1, 52, 0
1, 97051, Note_off_c, 1, 66, 0
1, 97053, Note_on_c, 1, 64, 127
1, 97053, Note_on_c, 1, 40, 127
1, 97220, Note_off_c, 1, 64, 0
1, 97389, Note_off_c, 1, 40, 0
1, 97391, Note_on_c, 1, 39, 127
1, 97391, Note_on_c, 1, 59, 127
1, 97558, Note_off_c, 1, 39, 0
1, 97560, Note_on_c, 1, 42, 127
1, 97727, Note_off_c, 1, 42, 0
1, 97729, Note_on_c, 1, 47, 127
1, 97896, Note_off_c, 1, 47, 0
1, 97898, Note_on_c, 1, 49, 127
1, 98059, Note_off_c, 1, 59, 0
1, 98064, Note_off_c, 1, 69, 0
1, 98065, Note_off_c, 1, 49, 0
1, 98067, Note_on_c, 1, 51, 127
1, 98234, Note_off_c, 1, 51, 0
1, 98236, Note_on_c, 1, 52, 127
1, 98403, Note_off_c, 1, 52, 0
1, 98405, Note_on_c, 1, 54, 127
1, 98572, Note_off_c, 1, 54, 0
1, 98574, Note_on_c, 1, 56, 127
1, 98741, Note_off_c, 1, 56, 0
1, 98743, Note_on_c, 1, 57, 127
1, 98910, Note_off_c, 1, 57, 0
1, 98912, Note_on_c, 1, 59, 127
1, 99079, Note_off_c, 1, 59, 0
1, 99080, Note_on_c, 1, 61, 127
1, 99247, Note_off_c, 1, 61, 0
1, 99249, Note_on_c, 1, 63, 127
1, 99416, Note_off_c, 1, 63, 0
1, 99418, Note_on_c, 1, 64, 127
1, 99418, Note_on_c, 1, 68, 127
1, 99587, Note_on_c, 1, 61, 127
1, 99754, Note_off_c, 1, 61, 0
1, 99756, Note_on_c, 1, 59, 127
1, 99923, Note_off_c, 1, 59, 0
1, 99925, Note_on_c, 1, 58, 127
1, 100086, Note_off_c, 1, 64, 0
1, 100092, Note_off_c, 1, 58, 0
1, 100261, Note_off_c, 1, 68, 0
1, 100432, Note_on_c, 1, 66, 127
1, 100599, Note_off_c, 1, 66, 0
1, 100770, Note_on_c, 1, 47, 127
1, 101108, Note_on_c, 1, 63, 127
1, 101277, Note_on_c, 1, 57, 127
1, 101438, Note_off_c, 1, 47, 0
1, 101442, Note_off_c, 1, 63, 0
1, 101444, Note_off_c, 1, 57, 0
1, 101446, Note_on_c, 1, 56, 127
1, 101446, Note_on_c, 1, 52, 127
1, 101617, Note_on_c, 1, 59, 127
1, 101785, Note_off_c, 1, 56, 0
1, 101785, Note_off_c, 1, 59, 0
1, 101787, Note_on_c, 1, 64, 127
1, 101787, Note_on_c, 1, 54, 127
1, 101955, Note_off_c, 1, 64, 0
1, 101958, Note_on_c, 1, 63, 127
1, 102126, Note_off_c, 1, 54, 0
1, 102126, Note_off_c, 1, 63, 0
1, 102470, Note_on_c, 1, 68, 127
1, 102638, Note_off_c, 1, 68, 0
1, 102812, Note_on_c, 1, 57, 127
1, 102812, Note_on_c, 1, 71, 127
1, 102982, Note_on_c, 1, 66, 127
1, 103150, Note_off_c, 1, 66, 0
1, 103151, Note_off_c, 1, 57, 0
1, 103324, Note_on_c, 1, 62, 127
1, 103492, Note_off_c, 1, 62, 0
1, 103495, Note_on_c, 1, 61, 127
1, 103669, Note_off_c, 1, 71, 0
1, 103839, Note_off_c, 1, 61, 0
1, 103843, Note_on_c, 1, 69, 127
1, 104015, Note_off_c, 1, 69, 0
1, 104540, Note_on_c, 1, 73, 127
1, 104712, Note_off_c, 1, 73, 0
1, 104888, Note_on_c, 1, 76, 127
1, 105578, Note_off_c, 1, 52, 0
1, 105585, Note_on_c, 1, 60, 127
1, 105768, Note_off_c, 1, 76, 0
1, 105950, Note_on_c, 1, 75, 127
1, 106131, Note_off_c, 1, 75, 0
1, 106306, Note_off_c, 1, 60, 0
1, 106698, Note_on_c, 1, 78, 127
1, 106888, Note_off_c, 1, 78, 0
1, 107081, Note_on_c, 1, 81, 127
1, 107283, Note_off_c, 1, 81, 0
1, 107930, Note_on_c, 1, 76, 127
1, 107930, Note_on_c, 1, 59, 127
1, 107930, Note_on_c, 1, 52, 127
1, 107930, Note_on_c, 1, 56, 127
1, 111456, Note_off_c, 1, 76, 0
1, 111456, Note_off_c, 1, 59, 0
1, 111456, Note_off_c, 1, 52, 0
1, 111456, Note_off_c, 1, 56, 0
1, 111541, Note_on_c, 1, 52, 127
1, 112815, Note_off_c, 1, 52, 0
1, 112817, Note_on_c, 1, 54, 127
1, 113454, Note_off_c, 1, 54, 0
1, 113456, Note_on_c, 1, 57, 127
1, 114093, Note_off_c, 1, 57, 0
1, 114095, Note_on_c, 1, 56, 127
1, 114732, Note_off_c, 1, 56, 0
1, 114733, Note_on_c, 1, 54, 127
1, 115370, Note_off_c, 1, 54, 0
1, 115372, Note_on_c, 1, 52, 127
1, 115372, Note_on_c, 1, 59, 127
1, 115713, Note_off_c, 1, 52, 0
1, 115716, Note_on_c, 1, 51, 127
1, 115884, Note_off_c, 1, 51, 0
1, 115886, Note_on_c, 1, 49, 127
1, 116054, Note_off_c, 1, 49, 0
1, 116400, Note_on_c, 1, 47, 127
1, 116737, Note_off_c, 1, 59, 0
1, 116741, Note_off_c, 1, 47, 0
1, 116743, Note_on_c, 1, 52, 127
1, 116743, Note_on_c, 1, 61, 127
1, 117084, Note_off_c, 1, 52, 0
1, 117087, Note_on_c, 1, 54, 127
1, 117427, Note_off_c, 1, 61, 0
1, 117428, Note_off_c, 1, 54, 0
1, 117430, Note_on_c, 1, 56, 127
1, 117430, Note_on_c, 1, 64, 127
1, 117771, Note_off_c, 1, 56, 0
1, 117773, Note_on_c, 1, 58, 127
1, 118114, Note_off_c, 1, 64, 0
1, 118114, Note_off_c, 1, 58, 0
1, 118116, Note_on_c, 1, 59, 127
1, 118116, Note_on_c, 1, 63, 127
1, 118284, Note_off_c, 1, 59, 0
1, 118287, Note_on_c, 1, 54, 127
1, 118455, Note_off_c, 1, 54, 0
1, 118798, Note_off_c, 1, 63, 0
1, 118801, Note_on_c, 1, 61, 127
1, 119144, Note_on_c, 1, 57, 127
1, 119485, Note_off_c, 1, 61, 0
1, 119487, Note_on_c, 1, 64, 127
1, 119828, Note_off_c, 1, 57, 0
1, 119830, Note_on_c, 1, 56, 127
1, 119998, Note_off_c, 1, 56, 0
1, 120856, Note_off_c, 1, 64, 0
1, 120858, Note_on_c, 1, 57, 127
1, 120858, Note_on_c, 1, 66, 127
1, 121201, Note_on_c, 1, 59, 127
1, 121542, Note_off_c, 1, 57, 0
1, 121542, Note_off_c, 1, 66, 0
1, 121542, Note_off_c, 1, 59, 0
1, 121545, Note_on_c, 1, 61, 127
1, 121545, Note_on_c, 1, 54, 127
1, 121545, Note_on_c, 1, 69, 127
1, 121886, Note_off_c, 1, 61, 0
1, 121888, Note_on_c, 1, 63, 127
1, 122229, Note_off_c, 1, 54, 0
1, 122229, Note_off_c, 1, 69, 0
1, 122229, Note_off_c, 1, 63, 0
1, 122231, Note_on_c, 1, 64, 127
1, 122231, Note_on_c, 1, 56, 127
1, 122231, Note_on_c, 1, 68, 127
1, 122399, Note_off_c, 1, 64, 0
1, 122402, Note_on_c, 1, 59, 127
1, 122570, Note_off_c, 1, 59, 0
1, 122913, Note_off_c, 1, 56, 0
1, 122913, Note_off_c, 1, 68, 0
1, 122916, Note_on_c, 1, 57, 127
1, 122916, Note_on_c, 1, 66, 127
1, 123257, Note_off_c, 1, 57, 0
1, 123259, Note_on_c, 1, 63, 127
1, 123596, Note_off_c, 1, 63, 0
1, 123598, Note_off_c, 1, 66, 0
1, 123600, Note_on_c, 1, 56, 127
1, 123600, Note_on_c, 1, 64, 127
1, 123600, Note_on_c, 1, 71, 127
1, 123946, Note_off_c, 1, 56, 0
1, 123949, Note_on_c, 1, 54, 127
1, 124295, Note_off_c, 1, 64, 0
1, 124295, Note_off_c, 1, 54, 0
1, 124297, Note_on_c, 1, 52, 127
1, 124643, Note_off_c, 1, 52, 0
1, 124646, Note_on_c, 1, 51, 127
1, 124646, Note_on_c, 1, 59, 127
1, 124988, Note_off_c, 1, 71, 0
1, 124992, Note_off_c, 1, 51, 0
1, 124992, Note_off_c, 1, 59, 0
1, 124994, Note_on_c, 1, 64, 127
1, 124994, Note_on_c, 1, 56, 127
1, 124994, Note_on_c, 1, 73, 127
1, 124994, Note_on_c, 1, 49, 127
1, 125340, Note_off_c, 1, 64, 0
1, 125343, Note_on_c, 1, 66, 127
1, 125689, Note_off_c, 1, 56, 0
1, 125689, Note_off_c, 1, 73, 0
1, 125689, Note_off_c, 1, 66, 0
1, 125691, Note_on_c, 1, 68, 127
1, 125691, Note_on_c, 1, 52, 127
1, 125691, Note_on_c, 1, 76, 127
1, 126037, Note_off_c, 1, 68, 0
1, 126040, Note_on_c, 1, 70, 127
1, 126382, Note_off_c, 1, 49, 0
1, 126386, Note_off_c, 1, 52, 0
1, 126386, Note_off_c, 1, 76, 0
1, 126386, Note_off_c, 1, 70, 0
1, 126388, Note_on_c, 1, 71, 127
1, 126388, Note_on_c, 1, 47, 127
1, 126388, Note_on_c, 1, 75, 127
1, 126388, Note_on_c, 1, 54, 127
1, 126560, Note_off_c, 1, 71, 0
1, 126562, Note_on_c, 1, 66, 127
1, 126734, Note_off_c, 1, 66, 0
1, 127083, Note_off_c, 1, 47, 0
1, 127083, Note_off_c, 1, 75, 0
1, 127085, Note_on_c, 1, 42, 127
1, 127085, Note_on_c, 1, 73, 127
1, 127434, Note_on_c, 1, 69, 127
1, 127780, Note_off_c, 1, 42, 0
1, 127780, Note_off_c, 1, 73, 0
1, 127782, Note_on_c, 1, 44, 127
1, 128129, Note_off_c, 1, 69, 0
1, 128130, Note_off_c, 1, 54, 0
1, 128131, Note_on_c, 1, 68, 127
1, 128303, Note_off_c, 1, 68, 0
1, 128479, Note_on_c, 1, 52, 127
1, 128825, Note_off_c, 1, 44, 0
1, 128828, Note_on_c, 1, 40, 127
1, 129174, Note_off_c, 1, 40, 0
1, 129176, Note_on_c, 1, 45, 127
1, 129176, Note_on_c, 1, 61, 127
1, 129522, Note_off_c, 1, 52, 0
1, 129524, Note_on_c, 1, 49, 127
1, 129870, Note_off_c, 1, 49, 0
1, 130219, Note_off_c, 1, 45, 0
1, 130219, Note_off_c, 1, 61, 0
1, 130221, Note_on_c, 1, 63, 127
1, 130393, Note_off_c, 1, 63, 0
1, 130396, Note_on_c, 1, 64, 127
1, 130568, Note_off_c, 1, 64, 0
1, 131267, Note_on_c, 1, 56, 127
1, 131613, Note_off_c, 1, 56, 0
1, 131615, Note_on_c, 1, 57, 127
1, 131961, Note_off_c, 1, 57, 0
1, 131964, Note_on_c, 1, 59, 127
1, 132136, Note_off_c, 1, 59, 0
1, 133009, Note_on_c, 1, 58, 127
1, 133355, Note_off_c, 1, 58, 0
1, 134055, Note_on_c, 1, 59, 127
1, 134750, Note_off_c, 1, 59, 0
1, 134752, Note_on_c, 1, 61, 127
1, 134752, Note_on_c, 1, 52, 127
1, 135447, Note_off_c, 1, 61, 0
1, 135449, Note_on_c, 1, 64, 127
1, 136144, Note_off_c, 1, 52, 0
1, 136144, Note_off_c, 1, 64, 0
1, 136146, Note_on_c, 1, 54, 127
1, 136146, Note_on_c, 1, 63, 127
1, 136841, Note_off_c, 1, 54, 0
1, 136841, Note_off_c, 1, 63, 0
1, 136843, Note_on_c, 1, 57, 127
1, 136843, Note_on_c, 1, 61, 127
1, 137538, Note_off_c, 1, 57, 0
1, 137538, Note_off_c, 1, 61, 0
1, 137540, Note_on_c, 1, 59, 127
1, 137540, Note_on_c, 1, 56, 127
1, 137540, Note_on_c, 1, 47, 127
1, 137886, Note_off_c, 1, 59, 0
1, 137888, Note_on_c, 1, 64, 127
1, 138235, Note_off_c, 1, 56, 0
1, 138236, Note_on_c, 1, 54, 127
1, 138583, Note_off_c, 1, 64, 0
1, 138585, Note_on_c, 1, 63, 127
1, 138928, Note_off_c, 1, 47, 0
1, 138929, Note_off_c, 1, 63, 0
1, 138931, Note_off_c, 1, 54, 0
1, 138933, Note_on_c, 1, 52, 127
1, 138933, Note_on_c, 1, 49, 127
1, 138933, Note_on_c, 1, 64, 127
1, 139279, Note_off_c, 1, 52, 0
1, 139282, Note_on_c, 1, 57, 127
1, 139282, Note_on_c, 1, 61, 127
1, 139628, Note_off_c, 1, 49, 0
1, 139977, Note_off_c, 1, 57, 0
1, 139977, Note_off_c, 1, 61, 0
1, 139979, Note_on_c, 1, 59, 127
1, 139979, Note_on_c, 1, 56, 127
1, 140151, Note_off_c, 1, 59, 0
1, 140153, Note_on_c, 1, 58, 127
1, 140321, Note_off_c, 1, 64, 0
1, 140325, Note_off_c, 1, 56, 0
1, 140325, Note_off_c, 1, 58, 0
1, 140327, Note_on_c, 1, 51, 127
1, 140327, Note_on_c, 1, 59, 127
1, 140327, Note_on_c, 1, 66, 127
1, 140327, Note_on_c, 1, 54, 127
1, 140673, Note_off_c, 1, 51, 0
1, 140673, Note_off_c, 1, 59, 0
1, 140673, Note_off_c, 1, 66, 0
1, 140676, Note_on_c, 1, 52, 127
1, 140848, Note_off_c, 1, 52, 0
1, 141016, Note_off_c, 1, 54, 0
1, 141024, Note_on_c, 1, 49, 127
1, 141024, Note_on_c, 1, 69, 127
1, 141373, Note_on_c, 1, 64, 127
1, 141545, Note_off_c, 1, 64, 0
1, 141547, Note_on_c, 1, 63, 127
1, 141719, Note_off_c, 1, 49, 0
1, 141719, Note_off_c, 1, 69, 0
1, 141719, Note_off_c, 1, 63, 0
1, 141721, Note_on_c, 1, 56, 127
1, 141721, Note_on_c, 1, 68, 127
1, 141721, Note_on_c, 1, 64, 127
1, 141721, Note_on_c, 1, 47, 127
1, 142067, Note_off_c, 1, 56, 0
1, 142070, Note_on_c, 1, 57, 127
1, 142416, Note_off_c, 1, 68, 0
1, 142416, Note_off_c, 1, 57, 0
1, 142418, Note_on_c, 1, 59, 127
1, 142418, Note_on_c, 1, 66, 127
1, 142590, Note_off_c, 1, 59, 0
1, 142592, Note_on_c, 1, 54, 127
1, 142764, Note_off_c, 1, 64, 0
1, 142764, Note_off_c, 1, 54, 0
1, 142767, Note_on_c, 1, 63, 127
1, 143109, Note_off_c, 1, 47, 0
1, 143113, Note_off_c, 1, 66, 0
1, 143113, Note_off_c, 1, 63, 0
1, 143115, Note_on_c, 1, 65, 127
1, 143115, Note_on_c, 1, 47, 127
1, 143115, Note_on_c, 1, 56, 127
1, 143115, Note_on_c, 1, 61, 127
1, 143461, Note_off_c, 1, 65, 0
1, 143464, Note_on_c, 1, 66, 127
1, 143810, Note_off_c, 1, 47, 0
1, 143810, Note_off_c, 1, 56, 0
1, 143810, Note_off_c, 1, 66, 0
1, 143812, Note_on_c, 1, 68, 127
1, 143812, Note_on_c, 1, 45, 127
1, 143812, Note_on_c, 1, 54, 127
1, 144158, Note_off_c, 1, 68, 0
1, 144161, Note_on_c, 1, 69, 127
1, 144503, Note_off_c, 1, 61, 0
1, 144507, Note_off_c, 1, 45, 0
1, 144507, Note_off_c, 1, 69, 0
1, 144509, Note_on_c, 1, 59, 127
1, 144509, Note_on_c, 1, 71, 127
1, 144509, Note_on_c, 1, 44, 127
1, 144855, Note_off_c, 1, 59, 0
1, 144855, Note_off_c, 1, 71, 0
1, 145200, Note_off_c, 1, 54, 0
1, 145206, Note_on_c, 1, 63, 127
1, 145206, Note_on_c, 1, 52, 127
1, 145552, Note_off_c, 1, 63, 0
1, 145555, Note_on_c, 1, 64, 127
1, 145897, Note_off_c, 1, 44, 0
1, 145901, Note_off_c, 1, 52, 0
1, 145901, Note_off_c, 1, 64, 0
1, 145903, Note_on_c, 1, 42, 127
1, 145903, Note_on_c, 1, 51, 127
1, 146249, Note_off_c, 1, 42, 0
1, 146249, Note_off_c, 1, 51, 0
1, 146252, Note_on_c, 1, 53, 127
1, 146598, Note_off_c, 1, 53, 0
1, 146600, Note_on_c, 1, 45, 127
1, 146600, Note_on_c, 1, 54, 127
1, 146600, Note_on_c, 1, 69, 127
1, 146600, Note_on_c, 1, 66, 127
1, 146946, Note_off_c, 1, 45, 0
1, 146948, Note_on_c, 1, 47, 127
1, 147294, Note_off_c, 1, 47, 0
1, 147295, Note_off_c, 1, 54, 0
1, 147295, Note_off_c, 1, 69, 0
1, 147297, Note_on_c, 1, 49, 127
1, 147297, Note_on_c, 1, 68, 127
1, 147643, Note_off_c, 1, 49, 0
1, 147645, Note_on_c, 1, 44, 127
1, 147645, Note_on_c, 1, 51, 127
1, 147988, Note_off_c, 1, 66, 0
1, 147991, Note_off_c, 1, 44, 0
1, 147991, Note_off_c, 1, 51, 0
1, 147994, Note_on_c, 1, 52, 127
1, 147994, Note_on_c, 1, 64, 127
1, 148340, Note_off_c, 1, 52, 0
1, 148689, Note_off_c, 1, 64, 0
1, 148691, Note_on_c, 1, 56, 127
1, 148691, Note_on_c, 1, 63, 127
1, 149037, Note_off_c, 1, 56, 0
1, 149729, Note_off_c, 1, 68, 0
1, 149911, Note_on_c, 1, 71, 127
1, 150079, Note_off_c, 1, 63, 0
1, 150083, Note_off_c, 1, 71, 0
1, 150085, Note_on_c, 1, 61, 127
1, 150085, Note_on_c, 1, 73, 127
1, 150431, Note_off_c, 1, 61, 0
1, 150431, Note_off_c, 1, 73, 0
1, 150433, Note_on_c, 1, 72, 127
1, 150779, Note_off_c, 1, 72, 0
1, 151130, Note_on_c, 1, 75, 127
1, 151476, Note_off_c, 1, 75, 0
1, 152873, Note_on_c, 1, 49, 127
1, 152873, Note_on_c, 1, 64, 127
1, 152873, Note_on_c, 1, 73, 127
1, 153221, Note_on_c, 1, 56, 127
1, 153567, Note_off_c, 1, 56, 0
1, 153568, Note_off_c, 1, 49, 0
1, 153570, Note_on_c, 1, 61, 127
1, 154265, Note_off_c, 1, 64, 0
1, 154265, Note_off_c, 1, 73, 0
1, 154267, Note_on_c, 1, 66, 127
1, 154267, Note_on_c, 1, 50, 127
1, 154613, Note_off_c, 1, 61, 0
1, 154615, Note_on_c, 1, 59, 127
1, 154787, Note_off_c, 1, 59, 0
1, 154789, Note_on_c, 1, 58, 127
1, 154961, Note_off_c, 1, 58, 0
1, 154962, Note_off_c, 1, 66, 0
1, 154964, Note_on_c, 1, 69, 127
1, 155310, Note_off_c, 1, 50, 0
1, 155312, Note_on_c, 1, 51, 127
1, 155658, Note_off_c, 1, 51, 0
1, 155659, Note_off_c, 1, 69, 0
1, 155660, Note_on_c, 1, 68, 127
1, 155660, Note_on_c, 1, 52, 127
1, 155660, Note_on_c, 1, 71, 127
1, 156009, Note_on_c, 1, 57, 127
1, 156181, Note_off_c, 1, 57, 0
1, 156355, Note_off_c, 1, 68, 0
1, 156703, Note_off_c, 1, 52, 0
1, 157048, Note_off_c, 1, 71, 0
1, 157054, Note_on_c, 1, 64, 127
1, 157054, Note_on_c, 1, 52, 127
1, 157054, Note_on_c, 1, 73, 127
1, 157054, Note_on_c, 1, 56, 127
1, 157400, Note_off_c, 1, 64, 0
1, 157403, Note_on_c, 1, 61, 127
1, 157749, Note_off_c, 1, 52, 0
1, 157749, Note_off_c, 1, 73, 0
1, 157749, Note_off_c, 1, 61, 0
1, 157751, Note_on_c, 1, 68, 127
1, 157751, Note_on_c, 1, 49, 127
1, 157751, Note_on_c, 1, 76, 127
1, 158097, Note_off_c, 1, 56, 0
1, 158440, Note_off_c, 1, 68, 0
1, 158446, Note_off_c, 1, 49, 0
1, 158446, Note_off_c, 1, 76, 0
1, 158448, Note_on_c, 1, 54, 127
1, 158448, Note_on_c, 1, 75, 127
1, 158448, Note_on_c, 1, 57, 127
1, 158797, Note_on_c, 1, 66, 127
1, 158969, Note_off_c, 1, 66, 0
1, 158971, Note_on_c, 1, 65, 127
1, 159143, Note_off_c, 1, 54, 0
1, 159143, Note_off_c, 1, 75, 0
1, 159143, Note_off_c, 1, 65, 0
1, 159145, Note_on_c, 1, 52, 127
1, 159145, Note_on_c, 1, 73, 127
1, 159491, Note_off_c, 1, 57, 0
1, 159494, Note_on_c, 1, 58, 127
1, 159840, Note_off_c, 1, 52, 0
1, 159840, Note_off_c, 1, 73, 0
1, 159840, Note_off_c, 1, 58, 0
1, 159842, Note_on_c, 1, 51, 127
1, 159842, Note_on_c, 1, 71, 127
1, 159842, Note_on_c, 1, 59, 127
1, 160191, Note_on_c, 1, 64, 127
1, 160363, Note_off_c, 1, 64, 0
1, 160365, Note_on_c, 1, 63, 127
1, 160537, Note_off_c, 1, 51, 0
1, 160537, Note_off_c, 1, 71, 0
1, 160537, Note_off_c, 1, 63, 0
1, 160539, Note_on_c, 1, 49, 127
1, 160885, Note_off_c, 1, 59, 0
1, 161234, Note_off_c, 1, 49, 0
1, 161236, Note_on_c, 1, 63, 127
1, 161236, Note_on_c, 1, 66, 127
1, 161236, Note_on_c, 1, 59, 127
1, 161236, Note_on_c, 1, 47, 127
1, 161582, Note_off_c, 1, 63, 0
1, 161582, Note_off_c, 1, 66, 0
1, 161756, Note_off_c, 1, 59, 0
1, 161759, Note_on_c, 1, 57, 127
1, 161931, Note_off_c, 1, 57, 0
1, 161933, Note_on_c, 1, 56, 127
1, 161933, Note_on_c, 1, 68, 127
1, 162105, Note_off_c, 1, 56, 0
1, 162107, Note_on_c, 1, 54, 127
1, 162279, Note_off_c, 1, 54, 0
1, 162282, Note_on_c, 1, 52, 127
1, 162454, Note_off_c, 1, 52, 0
1, 162456, Note_on_c, 1, 51, 127
1, 162624, Note_off_c, 1, 47, 0
1, 162628, Note_off_c, 1, 51, 0
1, 162630, Note_on_c, 1, 49, 127
1, 162976, Note_off_c, 1, 68, 0
1, 163153, Note_on_c, 1, 65, 127
1, 163325, Note_off_c, 1, 49, 0
1, 163325, Note_off_c, 1, 65, 0
1, 163676, Note_on_c, 1, 58, 127
1, 164022, Note_off_c, 1, 58, 0
1, 164372, Note_on_c, 1, 64, 127
1, 164544, Note_off_c, 1, 64, 0
1, 165418, Note_on_c, 1, 47, 127
1, 165418, Note_on_c, 1, 63, 127
1, 165418, Note_on_c, 1, 56, 127
1, 165418, Note_on_c, 1, 59, 127
1, 165764, Note_off_c, 1, 47, 0
1, 165764, Note_off_c, 1, 63, 0
1, 165766, Note_on_c, 1, 71, 127
1, 165766, Note_on_c, 1, 44, 127
1, 166112, Note_off_c, 1, 71, 0
1, 166113, Note_off_c, 1, 56, 0
1, 166113, Note_off_c, 1, 59, 0
1, 166115, Note_on_c, 1, 62, 127
1, 166115, Note_on_c, 1, 65, 127
1, 166461, Note_off_c, 1, 44, 0
1, 166463, Note_on_c, 1, 45, 127
1, 166635, Note_off_c, 1, 45, 0
1, 166810, Note_off_c, 1, 62, 0
1, 166812, Note_on_c, 1, 49, 127
1, 166812, Note_on_c, 1, 57, 127
1, 166812, Note_on_c, 1, 61, 127
1, 167158, Note_off_c, 1, 65, 0
1, 167160, Note_on_c, 1, 66, 127
1, 167507, Note_off_c, 1, 49, 0
1, 167507, Note_off_c, 1, 57, 0
1, 167855, Note_off_c, 1, 66, 0
1, 168206, Note_on_c, 1, 73, 127
1, 168554, Note_on_c, 1, 54, 127
1, 168899, Note_off_c, 1, 61, 0
1, 168901, Note_off_c, 1, 73, 0
1, 168903, Note_on_c, 1, 68, 127
1, 169249, Note_off_c, 1, 54, 0
1, 169251, Note_on_c, 1, 53, 127
1, 169597, Note_off_c, 1, 53, 0
1, 169598, Note_off_c, 1, 68, 0
1, 169600, Note_on_c, 1, 42, 127
1, 169948, Note_on_c, 1, 69, 127
1, 170295, Note_off_c, 1, 42, 0
1, 170297, Note_on_c, 1, 50, 127
1, 170643, Note_off_c, 1, 69, 0
1, 170992, Note_off_c, 1, 50, 0
1, 171691, Note_on_c, 1, 37, 127
1, 172386, Note_off_c, 1, 37, 0
1, 173433, Note_on_c, 1, 51, 127
1, 173779, Note_off_c, 1, 51, 0
1, 174478, Note_on_c, 1, 47, 127
1, 174478, Note_on_c, 1, 63, 127
1, 174478, Note_on_c, 1, 56, 127
1, 174478, Note_on_c, 1, 71, 127
1, 174824, Note_off_c, 1, 47, 0
1, 174824, Note_off_c, 1, 63, 0
1, 174827, Note_on_c, 1, 49, 127
1, 174827, Note_on_c, 1, 65, 127
1, 175173, Note_off_c, 1, 56, 0
1, 175173, Note_off_c, 1, 49, 0
1, 175173, Note_off_c, 1, 65, 0
1, 175175, Note_on_c, 1, 50, 127
1, 175175, Note_on_c, 1, 54, 127
1, 175175, Note_on_c, 1, 66, 127
1, 175521, Note_off_c, 1, 71, 0
1, 175521, Note_off_c, 1, 50, 0
1, 175524, Note_on_c, 1, 69, 127
1, 175870, Note_off_c, 1, 54, 0
1, 175870, Note_off_c, 1, 69, 0
1, 175872, Note_on_c, 1, 48, 127
1, 175872, Note_on_c, 1, 68, 127
1, 176218, Note_off_c, 1, 66, 0
1, 176218, Note_off_c, 1, 48, 0
1, 176221, Note_on_c, 1, 64, 127
1, 176567, Note_off_c, 1, 68, 0
1, 176567, Note_off_c, 1, 64, 0
1, 176569, Note_on_c, 1, 42, 127
1, 176915, Note_off_c, 1, 42, 0
1, 176918, Note_on_c, 1, 44, 127
1, 177264, Note_off_c, 1, 44, 0
1, 177266, Note_on_c, 1, 49, 127
1, 177266, Note_on_c, 1, 64, 127
1, 177266, Note_on_c, 1, 45, 127
1, 177266, Note_on_c, 1, 61, 127
1, 177612, Note_off_c, 1, 49, 0
1, 177612, Note_off_c, 1, 64, 0
1, 177615, Note_on_c, 1, 51, 127
1, 177615, Note_on_c, 1, 66, 127
1, 177961, Note_off_c, 1, 45, 0
1, 177961, Note_off_c, 1, 51, 0
1, 177961, Note_off_c, 1, 66, 0
1, 177963, Note_on_c, 1, 52, 127
1, 177963, Note_on_c, 1, 68, 127
1, 177963, Note_on_c, 1, 44, 127
1, 178309, Note_off_c, 1, 61, 0
1, 178309, Note_off_c, 1, 52, 0
1, 178312, Note_on_c, 1, 54, 127
1, 178312, Note_on_c, 1, 63, 127
1, 178484, Note_off_c, 1, 54, 0
1, 178484, Note_off_c, 1, 63, 0
1, 178660, Note_on_c, 1, 60, 127
1, 179006, Note_off_c, 1, 68, 0
1, 179009, Note_on_c, 1, 69, 127
1, 179351, Note_off_c, 1, 44, 0
1, 179355, Note_off_c, 1, 60, 0
1, 179355, Note_off_c, 1, 69, 0
1, 179357, Note_on_c, 1, 46, 127
1, 179703, Note_off_c, 1, 46, 0
1, 179706, Note_on_c, 1, 48, 127
1, 180052, Note_off_c, 1, 48, 0
1, 180054, Note_on_c, 1, 52, 127
1, 180054, Note_on_c, 1, 64, 127
1, 180054, Note_on_c, 1, 56, 127
1, 180054, Note_on_c, 1, 49, 127
1, 180400, Note_off_c, 1, 52, 0
1, 180403, Note_on_c, 1, 54, 127
1, 180749, Note_off_c, 1, 64, 0
1, 180749, Note_off_c, 1, 56, 0
1, 180749, Note_off_c, 1, 54, 0
1, 180751, Note_on_c, 1, 63, 127
1, 181097, Note_off_c, 1, 49, 0
1, 181097, Note_off_c, 1, 63, 0
1, 181100, Note_on_c, 1, 47, 127
1, 181446, Note_off_c, 1, 47, 0
1, 181448, Note_on_c, 1, 61, 127
1, 181448, Note_on_c, 1, 45, 127
1, 181794, Note_off_c, 1, 61, 0
1, 181796, Note_on_c, 1, 69, 127
1, 182142, Note_off_c, 1, 69, 0
1, 182143, Note_off_c, 1, 45, 0
1, 182145, Note_on_c, 1, 60, 127
1, 182145, Note_on_c, 1, 52, 127
1, 182145, Note_on_c, 1, 44, 127
1, 182491, Note_off_c, 1, 60, 0
1, 182493, Note_on_c, 1, 61, 127
1, 182840, Note_off_c, 1, 52, 0
1, 182842, Note_on_c, 1, 51, 127
1, 182842, Note_on_c, 1, 68, 127
1, 183188, Note_off_c, 1, 61, 0
1, 183537, Note_off_c, 1, 51, 0
1, 183537, Note_off_c, 1, 68, 0
1, 183539, Note_on_c, 1, 69, 127
1, 183885, Note_off_c, 1, 69, 0
1, 183887, Note_on_c, 1, 73, 127
1, 184232, Note_off_c, 1, 44, 0
1, 184233, Note_off_c, 1, 73, 0
1, 184236, Note_on_c, 1, 71, 127
1, 184236, Note_on_c, 1, 42, 127
1, 184236, Note_on_c, 1, 63, 127
1, 184582, Note_off_c, 1, 71, 0
1, 184584, Note_on_c, 1, 69, 127
1, 184930, Note_off_c, 1, 69, 0
1, 184931, Note_off_c, 1, 42, 0
1, 184931, Note_off_c, 1, 63, 0
1, 184933, Note_on_c, 1, 40, 127
1, 184933, Note_on_c, 1, 64, 127
1, 184933, Note_on_c, 1, 68, 127
1, 185279, Note_off_c, 1, 40, 0
1, 185279, Note_off_c, 1, 64, 0
1, 185279, Note_off_c, 1, 68, 0
1, 185281, Note_on_c, 1, 37, 127
1, 185281, Note_on_c, 1, 68, 127
1, 185627, Note_off_c, 1, 37, 0
1, 185627, Note_off_c, 1, 68, 0
1, 185630, Note_on_c, 1, 66, 127
1, 185630, Note_on_c, 1, 42, 127
1, 185630, Note_on_c, 1, 70, 127
1, 185976, Note_off_c, 1, 66, 0
1, 185978, Note_on_c, 1, 64, 127
1, 186324, Note_off_c, 1, 64, 0
1, 186325, Note_off_c, 1, 42, 0
1, 186325, Note_off_c, 1, 70, 0
1, 186327, Note_on_c, 1, 63, 127
1, 186327, Note_on_c, 1, 47, 127
1, 186327, Note_on_c, 1, 71, 127
1, 186673, Note_off_c, 1, 63, 0
1, 186675, Note_on_c, 1, 69, 127
1, 187021, Note_off_c, 1, 69, 0
1, 187022, Note_off_c, 1, 47, 0
1, 187024, Note_on_c, 1, 68, 127
1, 187024, Note_on_c, 1, 59, 127
1, 187370, Note_off_c, 1, 68, 0
1, 187372, Note_on_c, 1, 66, 127
1, 187718, Note_off_c, 1, 66, 0
1, 187719, Note_off_c, 1, 59, 0
1, 187721, Note_on_c, 1, 61, 127
1, 187721, Note_on_c, 1, 64, 127
1, 188067, Note_off_c, 1, 61, 0
1, 188067, Note_off_c, 1, 64, 0
1, 188418, Note_on_c, 1, 54, 127
1, 188759, Note_off_c, 1, 71, 0
1, 188766, Note_on_c, 1, 70, 127
1, 189112, Note_off_c, 1, 70, 0
1, 189113, Note_off_c, 1, 54, 0
1, 189115, Note_on_c, 1, 56, 127
1, 189115, Note_on_c, 1, 59, 127
1, 189115, Note_on_c, 1, 63, 127
1, 189115, Note_on_c, 1, 71, 127
1, 189461, Note_off_c, 1, 56, 0
1, 189461, Note_off_c, 1, 59, 0
1, 189461, Note_off_c, 1, 63, 0
1, 189461, Note_off_c, 1, 71, 0
1, 189463, Note_on_c, 1, 62, 127
1, 189463, Note_on_c, 1, 59, 127
1, 189463, Note_on_c, 1, 68, 127
1, 189463, Note_on_c, 1, 64, 127
1, 189809, Note_off_c, 1, 62, 0
1, 189809, Note_off_c, 1, 59, 0
1, 189809, Note_off_c, 1, 68, 0
1, 189809, Note_off_c, 1, 64, 0
1, 189812, Note_on_c, 1, 57, 127
1, 189812, Note_on_c, 1, 61, 127
1, 189812, Note_on_c, 1, 66, 127
1, 189812, Note_on_c, 1, 69, 127
1, 190158, Note_off_c, 1, 57, 0
1, 190158, Note_off_c, 1, 61, 0
1, 190158, Note_off_c, 1, 66, 0
1, 190158, Note_off_c, 1, 69, 0
1, 190160, Note_on_c, 1, 56, 127
1, 190160, Note_on_c, 1, 59, 127
1, 190160, Note_on_c, 1, 71, 127
1, 190160, Note_on_c, 1, 68, 127
1, 190506, Note_off_c, 1, 56, 0
1, 190506, Note_off_c, 1, 59, 0
1, 190506, Note_off_c, 1, 71, 0
1, 190506, Note_off_c, 1, 68, 0
1, 190508, Note_on_c, 1, 73, 127
1, 190508, Note_on_c, 1, 54, 127
1, 190508, Note_on_c, 1, 57, 127
1, 190508, Note_on_c, 1, 69, 127
1, 190854, Note_off_c, 1, 73, 0
1, 190857, Note_on_c, 1, 75, 127
1, 191203, Note_off_c, 1, 54, 0
1, 191203, Note_off_c, 1, 57, 0
1, 191203, Note_off_c, 1, 75, 0
1, 191205, Note_on_c, 1, 52, 127
1, 191205, Note_on_c, 1, 59, 127
1, 191205, Note_on_c, 1, 76, 127
1, 191551, Note_off_c, 1, 69, 0
1, 191554, Note_on_c, 1, 68, 127
1, 191900, Note_off_c, 1, 52, 0
1, 191900, Note_off_c, 1, 59, 0
1, 191900, Note_off_c, 1, 68, 0
1, 191902, Note_on_c, 1, 66, 127
1, 192248, Note_off_c, 1, 66, 0
1, 192251, Note_on_c, 1, 64, 127
1, 192597, Note_off_c, 1, 64, 0
1, 192599, Note_on_c, 1, 47, 127
1, 192947, Note_off_c, 1, 76, 0
1, 193294, Note_off_c, 1, 47, 0
1, 193296, Note_on_c, 1, 49, 127
1, 193296, Note_on_c, 1, 76, 127
1, 193296, Note_on_c, 1, 56, 127
1, 193296, Note_on_c, 1, 64, 127
1, 193642, Note_off_c, 1, 49, 0
1, 193642, Note_off_c, 1, 76, 0
1, 193645, Note_on_c, 1, 52, 127
1, 193645, Note_on_c, 1, 71, 127
1, 193991, Note_off_c, 1, 52, 0
1, 193993, Note_on_c, 1, 51, 127
1, 194339, Note_off_c, 1, 56, 0
1, 194339, Note_off_c, 1, 51, 0
1, 194340, Note_off_c, 1, 71, 0
1, 194342, Note_on_c, 1, 61, 127
1, 194342, Note_on_c, 1, 70, 127
1, 194684, Note_off_c, 1, 64, 0
1, 194688, Note_off_c, 1, 61, 0
1, 194688, Note_off_c, 1, 70, 0
1, 194690, Note_on_c, 1, 54, 127
1, 194690, Note_on_c, 1, 51, 127
1, 194690, Note_on_c, 1, 71, 127
1, 194690, Note_on_c, 1, 66, 127
1, 195036, Note_off_c, 1, 54, 0
1, 195036, Note_off_c, 1, 51, 0
1, 195039, Note_on_c, 1, 47, 127
1, 195385, Note_off_c, 1, 71, 0
1, 195385, Note_off_c, 1, 66, 0
1, 195385, Note_off_c, 1, 47, 0
1, 195387, Note_on_c, 1, 49, 127
1, 195387, Note_on_c, 1, 52, 127
1, 195387, Note_on_c, 1, 69, 127
1, 195733, Note_off_c, 1, 49, 0
1, 195733, Note_off_c, 1, 52, 0
1, 195736, Note_on_c, 1, 51, 127
1, 195736, Note_on_c, 1, 54, 127
1, 195736, Note_on_c, 1, 78, 127
1, 196082, Note_off_c, 1, 69, 0
1, 196082, Note_off_c, 1, 51, 0
1, 196082, Note_off_c, 1, 54, 0
1, 196082, Note_off_c, 1, 78, 0
1, 196084, Note_on_c, 1, 56, 127
1, 196084, Note_on_c, 1, 68, 127
1, 196084, Note_on_c, 1, 71, 127
1, 196084, Note_on_c, 1, 52, 127
1, 196430, Note_off_c, 1, 56, 0
1, 196430, Note_off_c, 1, 68, 0
1, 196430, Note_off_c, 1, 71, 0
1, 196433, Note_on_c, 1, 59, 127
1, 196779, Note_off_c, 1, 59, 0
1, 196781, Note_on_c, 1, 61, 127
1, 196781, Note_on_c, 1, 69, 127
1, 196781, Note_on_c, 1, 66, 127
1, 197127, Note_off_c, 1, 52, 0
1, 197127, Note_off_c, 1, 61, 0
1, 197127, Note_off_c, 1, 69, 0
1, 197130, Note_on_c, 1, 63, 127
1, 197130, Note_on_c, 1, 51, 127
1, 197476, Note_off_c, 1, 66, 0
1, 197476, Note_off_c, 1, 63, 0
1, 197476, Note_off_c, 1, 51, 0
1, 197478, Note_on_c, 1, 52, 127
1, 197478, Note_on_c, 1, 56, 127
1, 197478, Note_on_c, 1, 64, 127
1, 197478, Note_on_c, 1, 73, 127
1, 197824, Note_off_c, 1, 52, 0
1, 197824, Note_off_c, 1, 56, 0
1, 197824, Note_off_c, 1, 64, 0
1, 197827, Note_on_c, 1, 49, 127
1, 197827, Note_on_c, 1, 69, 127
1, 198173, Note_off_c, 1, 73, 0
1, 198173, Note_off_c, 1, 49, 0
1, 198175, Note_on_c, 1, 51, 127
1, 198175, Note_on_c, 1, 54, 127
1, 198175, Note_on_c, 1, 71, 127
1, 198521, Note_off_c, 1, 51, 0
1, 198521, Note_off_c, 1, 54, 0
1, 198522, Note_off_c, 1, 69, 0
1, 198524, Note_on_c, 1, 53, 127
1, 198524, Note_on_c, 1, 68, 127
1, 198870, Note_off_c, 1, 71, 0
1, 198870, Note_off_c, 1, 53, 0
1, 198870, Note_off_c, 1, 68, 0
1, 198872, Note_on_c, 1, 57, 127
1, 198872, Note_on_c, 1, 66, 127
1, 198872, Note_on_c, 1, 69, 127
1, 198872, Note_on_c, 1, 54, 127
1, 199218, Note_off_c, 1, 57, 0
1, 199218, Note_off_c, 1, 66, 0
1, 199220, Note_on_c, 1, 59, 127
1, 199220, Note_on_c, 1, 74, 127
1, 199566, Note_off_c, 1, 59, 0
1, 199566, Note_off_c, 1, 74, 0
1, 199567, Note_off_c, 1, 69, 0
1, 199569, Note_on_c, 1, 73, 127
1, 199569, Note_on_c, 1, 68, 127
1, 199569, Note_on_c, 1, 61, 127
1, 199915, Note_off_c, 1, 54, 0
1, 199915, Note_off_c, 1, 73, 0
1, 199917, Note_on_c, 1, 53, 127
1, 199917, Note_on_c, 1, 71, 127
1, 200263, Note_off_c, 1, 53, 0
1, 200263, Note_off_c, 1, 71, 0
1, 200264, Note_off_c, 1, 68, 0
1, 200612, Note_off_c, 1, 61, 0
1, 200614, Note_on_c, 1, 51, 127
1, 200614, Note_on_c, 1, 61, 127
1, 200614, Note_on_c, 1, 67, 127
1, 200614, Note_on_c, 1, 76, 127
1, 200960, Note_off_c, 1, 51, 0
1, 200960, Note_off_c, 1, 61, 0
1, 200960, Note_off_c, 1, 67, 0
1, 200960, Note_off_c, 1, 76, 0
1, 200963, Note_on_c, 1, 53, 127
1, 200963, Note_on_c, 1, 59, 127
1, 200963, Note_on_c, 1, 75, 127
1, 200963, Note_on_c, 1, 68, 127
1, 201309, Note_off_c, 1, 53, 0
1, 201309, Note_off_c, 1, 59, 0
1, 201309, Note_off_c, 1, 75, 0
1, 201309, Note_off_c, 1, 68, 0
1, 201311, Note_on_c, 1, 58, 127
1, 201311, Note_on_c, 1, 55, 127
1, 201311, Note_on_c, 1, 73, 127
1, 201311, Note_on_c, 1, 70, 127
1, 201657, Note_off_c, 1, 58, 0
1, 201657, Note_off_c, 1, 55, 0
1, 201657, Note_off_c, 1, 73, 0
1, 201657, Note_off_c, 1, 70, 0
1, 201660, Note_on_c, 1, 59, 127
1, 201660, Note_on_c, 1, 68, 127
1, 201660, Note_on_c, 1, 71, 127
1, 201660, Note_on_c, 1, 56, 127
1, 202006, Note_off_c, 1, 59, 0
1, 202006, Note_off_c, 1, 68, 0
1, 202008, Note_on_c, 1, 63, 127
1, 202008, Note_on_c, 1, 66, 127
1, 202354, Note_off_c, 1, 63, 0
1, 202354, Note_off_c, 1, 66, 0
1, 202355, Note_off_c, 1, 71, 0
1, 202357, Note_on_c, 1, 61, 127
1, 202357, Note_on_c, 1, 64, 127
1, 202357, Note_on_c, 1, 70, 127
1, 202703, Note_off_c, 1, 56, 0
1, 202705, Note_on_c, 1, 55, 127
1, 203051, Note_off_c, 1, 55, 0
1, 203052, Note_off_c, 1, 61, 0
1, 203052, Note_off_c, 1, 64, 0
1, 203400, Note_off_c, 1, 70, 0
1, 203576, Note_on_c, 1, 67, 127
1, 203748, Note_off_c, 1, 67, 0
1, 203751, Note_on_c, 1, 53, 127
1, 203751, Note_on_c, 1, 62, 127
1, 204099, Note_on_c, 1, 58, 127
1, 204271, Note_off_c, 1, 58, 0
1, 204446, Note_off_c, 1, 53, 0
1, 204446, Note_off_c, 1, 62, 0
1, 204448, Note_on_c, 1, 51, 127
1, 205143, Note_off_c, 1, 51, 0
1, 205145, Note_on_c, 1, 39, 127
1, 205840, Note_off_c, 1, 39, 0
1, 205842, Note_on_c, 1, 44, 127
1, 205842, Note_on_c, 1, 59, 127
1, 205842, Note_on_c, 1, 68, 127
1, 205842, Note_on_c, 1, 63, 127
1, 206537, Note_off_c, 1, 44, 0
1, 206537, Note_off_c, 1, 59, 0
1, 206537, Note_off_c, 1, 68, 0
1, 206537, Note_off_c, 1, 63, 0
1, 206539, Note_on_c, 1, 59, 127
1, 206887, Note_on_c, 1, 71, 127
1, 207233, Note_off_c, 1, 71, 0
1, 207234, Note_off_c, 1, 59, 0
1, 207236, Note_on_c, 1, 68, 127
1, 207236, Note_on_c, 1, 61, 127
1, 207236, Note_on_c, 1, 52, 127
1, 207582, Note_off_c, 1, 68, 0
1, 207584, Note_on_c, 1, 64, 127
1, 207930, Note_off_c, 1, 64, 0
1, 207931, Note_off_c, 1, 61, 0
1, 207932, Note_on_c, 1, 66, 127
1, 208278, Note_off_c, 1, 66, 0
1, 208624, Note_off_c, 1, 52, 0
1, 208629, Note_on_c, 1, 69, 127
1, 208629, Note_on_c, 1, 63, 127
1, 208629, Note_on_c, 1, 54, 127
1, 208975, Note_off_c, 1, 69, 0
1, 208978, Note_on_c, 1, 71, 127
1, 209324, Note_off_c, 1, 63, 0
1, 209324, Note_off_c, 1, 54, 0
1, 209324, Note_off_c, 1, 71, 0
1, 209326, Note_on_c, 1, 73, 127
1, 209326, Note_on_c, 1, 57, 127
1, 209326, Note_on_c, 1, 61, 127
1, 209672, Note_off_c, 1, 73, 0
1, 209675, Note_on_c, 1, 75, 127
1, 210021, Note_off_c, 1, 57, 0
1, 210021, Note_off_c, 1, 61, 0
1, 210021, Note_off_c, 1, 75, 0
1, 210023, Note_on_c, 1, 76, 127
1, 210023, Note_on_c, 1, 56, 127
1, 210023, Note_on_c, 1, 59, 127
1, 210023, Note_on_c, 1, 47, 127
1, 210195, Note_off_c, 1, 76, 0
1, 210198, Note_on_c, 1, 71, 127
1, 210370, Note_off_c, 1, 71, 0
1, 210718, Note_off_c, 1, 56, 0
1, 210718, Note_off_c, 1, 59, 0
1, 210720, Note_on_c, 1, 54, 127
1, 211069, Note_on_c, 1, 75, 127
1, 211411, Note_off_c, 1, 47, 0
1, 211415, Note_off_c, 1, 54, 0
1, 211417, Note_on_c, 1, 68, 127
1, 211417, Note_on_c, 1, 49, 127
1, 211417, Note_on_c, 1, 52, 127
1, 211763, Note_off_c, 1, 68, 0
1, 211764, Note_off_c, 1, 75, 0
1, 211766, Note_on_c, 1, 73, 127
1, 211766, Note_on_c, 1, 64, 127
1, 211938, Note_off_c, 1, 73, 0
1, 212110, Note_off_c, 1, 64, 0
1, 212112, Note_off_c, 1, 49, 0
1, 212112, Note_off_c, 1, 52, 0
1, 212114, Note_on_c, 1, 68, 127
1, 212114, Note_on_c, 1, 52, 127
1, 212114, Note_on_c, 1, 73, 127
1, 212460, Note_off_c, 1, 68, 0
1, 212463, Note_on_c, 1, 70, 127
1, 212809, Note_off_c, 1, 52, 0
1, 212809, Note_off_c, 1, 73, 0
1, 212809, Note_off_c, 1, 70, 0
1, 212811, Note_on_c, 1, 71, 127
1, 212811, Note_on_c, 1, 51, 127
1, 212985, Note_on_c, 1, 66, 127
1, 213155, Note_off_c, 1, 71, 0
1, 213157, Note_off_c, 1, 66, 0
1, 213506, Note_off_c, 1, 51, 0
1, 213508, Note_on_c, 1, 49, 127
1, 213508, Note_on_c, 1, 76, 127
1, 213857, Note_on_c, 1, 52, 127
1, 213857, Note_on_c, 1, 69, 127
1, 214203, Note_off_c, 1, 49, 0
1, 214203, Note_off_c, 1, 76, 0
1, 214203, Note_off_c, 1, 52, 0
1, 214205, Note_on_c, 1, 47, 127
1, 214205, Note_on_c, 1, 78, 127
1, 214551, Note_off_c, 1, 47, 0
1, 214552, Note_off_c, 1, 69, 0
1, 214554, Note_on_c, 1, 59, 127
1, 214554, Note_on_c, 1, 63, 127
1, 214900, Note_off_c, 1, 78, 0
1, 214900, Note_off_c, 1, 59, 0
1, 214900, Note_off_c, 1, 63, 0
1, 214902, Note_on_c, 1, 61, 127
1, 214902, Note_on_c, 1, 64, 127
1, 214902, Note_on_c, 1, 81, 127
1, 215248, Note_off_c, 1, 61, 0
1, 215248, Note_off_c, 1, 64, 0
1, 215251, Note_on_c, 1, 63, 127
1, 215251, Note_on_c, 1, 66, 127
1, 215597, Note_off_c, 1, 81, 0
1, 215597, Note_off_c, 1, 63, 0
1, 215597, Note_off_c, 1, 66, 0
1, 215599, Note_on_c, 1, 64, 127
1, 215599, Note_on_c, 1, 68, 127
1, 215599, Note_on_c, 1, 80, 127
1, 215771, Note_off_c, 1, 64, 0
1, 215773, Note_on_c, 1, 59, 127
1, 215945, Note_off_c, 1, 68, 0
1, 215945, Note_off_c, 1, 59, 0
1, 215948, Note_on_c, 1, 73, 127
1, 216294, Note_off_c, 1, 80, 0
1, 216294, Note_off_c, 1, 73, 0
1, 216296, Note_on_c, 1, 69, 127
1, 216296, Note_on_c, 1, 78, 127
1, 216642, Note_off_c, 1, 69, 0
1, 216644, Note_on_c, 1, 71, 127
1, 216644, Note_on_c, 1, 63, 127
1, 216990, Note_off_c, 1, 71, 0
1, 216991, Note_off_c, 1, 78, 0
1, 216993, Note_on_c, 1, 76, 127
1, 217164, Note_off_c, 1, 63, 0
1, 217167, Note_on_c, 1, 56, 127
1, 217339, Note_off_c, 1, 56, 0
1, 217341, Note_on_c, 1, 61, 127
1, 217688, Note_off_c, 1, 76, 0
1, 217690, Note_on_c, 1, 66, 127
1, 217690, Note_on_c, 1, 75, 127
1, 218036, Note_off_c, 1, 61, 0
1, 218036, Note_off_c, 1, 66, 0
1, 218385, Note_off_c, 1, 75, 0
1, 218561, Note_on_c, 1, 52, 127
1, 218733, Note_off_c, 1, 52, 0
1, 218735, Note_on_c, 1, 57, 127
1, 219430, Note_off_c, 1, 57, 0
1, 219781, Note_on_c, 1, 54, 127
1, 219781, Note_on_c, 1, 47, 127
1, 221173, Note_off_c, 1, 54, 0
1, 221173, Note_off_c, 1, 47, 0
1, 221175, Note_on_c, 1, 52, 127
1, 221175, Note_on_c, 1, 49, 127
1, 221175, Note_on_c, 1, 68, 127
1, 221521, Note_off_c, 1, 52, 0
1, 221523, Note_on_c, 1, 64, 127
1, 221523, Note_on_c, 1, 56, 127
1, 221695, Note_off_c, 1, 64, 0
1, 221697, Note_on_c, 1, 66, 127
1, 221869, Note_off_c, 1, 56, 0
1, 221869, Note_off_c, 1, 66, 0
1, 221870, Note_off_c, 1, 49, 0
1, 221870, Note_off_c, 1, 68, 0
1, 221872, Note_on_c, 1, 61, 127
1, 221872, Note_on_c, 1, 68, 127
1, 221872, Note_on_c, 1, 52, 127
1, 222218, Note_off_c, 1, 61, 0
1, 222218, Note_off_c, 1, 68, 0
1, 222220, Note_on_c, 1, 70, 127
1, 222220, Note_on_c, 1, 54, 127
1, 222566, Note_off_c, 1, 70, 0
1, 222567, Note_off_c, 1, 52, 0
1, 222569, Note_on_c, 1, 71, 127
1, 222569, Note_on_c, 1, 51, 127
1, 222743, Note_off_c, 1, 71, 0
1, 222745, Note_on_c, 1, 66, 127
1, 222918, Note_off_c, 1, 54, 0
1, 222919, Note_off_c, 1, 66, 0
1, 223273, Note_off_c, 1, 51, 0
1, 223274, Note_on_c, 1, 56, 127
1, 223274, Note_on_c, 1, 49, 127
1, 223274, Note_on_c, 1, 76, 127
1, 223626, Note_off_c, 1, 56, 0
1, 223628, Note_on_c, 1, 57, 127
1, 223628, Note_on_c, 1, 69, 127
1, 223979, Note_off_c, 1, 49, 0
1, 223979, Note_off_c, 1, 76, 0
1, 223980, Note_off_c, 1, 57, 0
1, 223982, Note_on_c, 1, 59, 127
1, 223982, Note_on_c, 1, 47, 127
1, 223982, Note_on_c, 1, 75, 127
1, 224159, Note_off_c, 1, 69, 0
1, 224161, Note_on_c, 1, 63, 127
1, 224338, Note_off_c, 1, 63, 0
1, 224339, Note_off_c, 1, 59, 0
1, 224698, Note_off_c, 1, 47, 0
1, 224698, Note_off_c, 1, 75, 0
1, 224700, Note_on_c, 1, 45, 127
1, 224700, Note_on_c, 1, 73, 127
1, 225416, Note_off_c, 1, 45, 0
1, 225416, Note_off_c, 1, 73, 0
1, 225418, Note_on_c, 1, 44, 127
1, 225784, Note_on_c, 1, 64, 127
1, 226146, Note_off_c, 1, 44, 0
1, 226148, Note_on_c, 1, 42, 127
1, 226510, Note_off_c, 1, 64, 0
1, 226874, Note_off_c, 1, 42, 0
1, 226877, Note_on_c, 1, 68, 127
1, 226877, Note_on_c, 1, 64, 127
1, 226877, Note_on_c, 1, 40, 127
1, 226877, Note_on_c, 1, 59, 127
1, 227060, Note_off_c, 1, 68, 0
1, 227062, Note_on_c, 1, 66, 127
1, 227243, Note_off_c, 1, 64, 0
1, 227244, Note_off_c, 1, 40, 0
1, 227245, Note_off_c, 1, 66, 0
1, 227247, Note_on_c, 1, 42, 127
1, 227432, Note_on_c, 1, 69, 127
1, 227614, Note_off_c, 1, 42, 0
1, 227615, Note_off_c, 1, 69, 0
1, 227616, Note_on_c, 1, 44, 127
1, 227616, Note_on_c, 1, 71, 127
1, 227983, Note_off_c, 1, 44, 0
1, 227983, Note_off_c, 1, 71, 0
1, 227984, Note_off_c, 1, 59, 0
1, 227986, Note_on_c, 1, 45, 127
1, 227986, Note_on_c, 1, 64, 127
1, 227986, Note_on_c, 1, 69, 127
1, 227986, Note_on_c, 1, 61, 127
1, 228353, Note_off_c, 1, 45, 0
1, 228353, Note_off_c, 1, 64, 0
1, 228353, Note_off_c, 1, 69, 0
1, 228353, Note_off_c, 1, 61, 0
1, 228356, Note_on_c, 1, 64, 127
1, 228356, Note_on_c, 1, 68, 127
1, 228356, Note_on_c, 1, 59, 127
1, 228356, Note_on_c, 1, 47, 127
1, 229119, Note_off_c, 1, 64, 0
1, 229119, Note_off_c, 1, 68, 0
1, 229121, Note_on_c, 1, 63, 127
1, 229121, Note_on_c, 1, 66, 127
1, 229529, Note_off_c, 1, 59, 0
1, 229531, Note_on_c, 1, 57, 127
1, 229939, Note_off_c, 1, 63, 0
1, 229939, Note_off_c, 1, 66, 0
1, 229939, Note_off_c, 1, 57, 0
1, 229940, Note_off_c, 1, 47, 0
1, 229941, Note_on_c, 1, 40, 127
1, 229941, Note_on_c, 1, 59, 127
1, 229941, Note_on_c, 1, 56, 127
1, 229941, Note_on_c, 1, 64, 127
1, 233223, Note_off_c, 1, 40, 0
1, 233223, Note_off_c, 1, 59, 0
1, 233223, Note_off_c, 1, 56, 0
1, 233223, Note_off_c, 1, 64, 0
1, 233223, End_track
0, 0, End_of_file