0, 0, Header, 1, 1, 480
1, 0, Start_track
1, 0, Title_t, "Test"
1, 0, Tempo, 500000
1, 0, Instrument_name_t, "Church Organ"
1, 68, Note_on_c, 1, 53, 127
1, 482, Note_on_c, 1, 68, 127
1, 482, Note_on_c, 1, 65, 127
1, 893, Note_off_c, 1, 53, 0
1, 893, Note_off_c, 1, 68, 0
1, 893, Note_off_c, 1, 65, 0
1, 897, Note_on_c, 1, 65, 127
1, 897, Note_on_c, 1, 68, 127
1, 897, Note_on_c, 1, 60, 127
1, 1308, Note_off_c, 1, 65, 0
1, 1308, Note_off_c, 1, 68, 0
1, 1310, Note_on_c, 1, 67, 127
1, 1310, Note_on_c, 1, 64, 127
1, 1722, Note_off_c, 1, 60, 0
1, 1725, Note_on_c, 1, 48, 127
1, 1913, Note_off_c, 1, 67, 0
1, 1913, Note_off_c, 1, 64, 0
1, 2139, Note_on_c, 1, 70, 127
1, 2550, Note_off_c, 1, 48, 0
1, 2550, Note_off_c, 1, 70, 0
1, 2554, Note_on_c, 1, 67, 127
1, 2554, Note_on_c, 1, 70, 127
1, 2554, Note_on_c, 1, 53, 127
1, 2965, Note_off_c, 1, 67, 0
1, 2965, Note_off_c, 1, 70, 0
1, 2969, Note_on_c, 1, 68, 127
1, 2969, Note_on_c, 1, 65, 127
1, 3379, Note_off_c, 1, 53, 0
1, 3383, Note_on_c, 1, 41, 127
1, 3572, Note_off_c, 1, 68, 0
1, 3572, Note_off_c, 1, 65, 0
1, 3798, Note_on_c, 1, 72, 127
1, 3798, Note_on_c, 1, 80, 127
1, 4208, Note_off_c, 1, 41, 0
1, 4209, Note_off_c, 1, 72, 0
1, 4209, Note_off_c, 1, 80, 0
1, 4211, Note_on_c, 1, 72, 127
1, 4211, Note_on_c, 1, 80, 127
1, 4211, Note_on_c, 1, 46, 127
1, 4622, Note_off_c, 1, 72, 0
1, 4622, Note_off_c, 1, 80, 0
1, 4626, Note_on_c, 1, 79, 127
1, 4626, Note_on_c, 1, 70, 127
1, 5036, Note_off_c, 1, 46, 0
1, 5040, Note_on_c, 1, 47, 127
1, 5229, Note_off_c, 1, 79, 0
1, 5229, Note_off_c, 1, 70, 0
1, 5455, Note_on_c, 1, 68, 127
1, 5455, Note_on_c, 1, 77, 127
1, 5865, Note_off_c, 1, 47, 0
1, 5866, Note_off_c, 1, 68, 0
1, 5866, Note_off_c, 1, 77, 0
1, 5869, Note_on_c, 1, 68, 127
1, 5869, Note_on_c, 1, 77, 127
1, 5869, Note_on_c, 1, 48, 127
1, 6280, Note_off_c, 1, 68, 0
1, 6280, Note_off_c, 1, 77, 0
1, 6284, Note_on_c, 1, 76, 127
1, 6284, Note_on_c, 1, 67, 127
1, 6694, Note_off_c, 1, 48, 0
1, 6714, Note_on_c, 1, 64, 127
1, 6902, Note_off_c, 1, 76, 0
1, 6902, Note_off_c, 1, 67, 0
1, 7128, Note_on_c, 1, 60, 127
1, 7537, Note_off_c, 1, 60, 0
1, 7539, Note_off_c, 1, 64, 0
1, 7543, Note_on_c, 1, 65, 127
1, 7750, Note_on_c, 1, 68, 127
1, 7957, Note_on_c, 1, 60, 127
1, 8159, Note_off_c, 1, 68, 0
1, 8366, Note_off_c, 1, 60, 0
1, 8372, Note_on_c, 1, 62, 127
1, 8492, Note_off_c, 1, 65, 0
1, 9197, Note_off_c, 1, 62, 0
1, 9200, Note_on_c, 1, 64, 127
1, 9407, Note_on_c, 1, 67, 127
1, 9615, Note_on_c, 1, 60, 127
1, 9816, Note_off_c, 1, 67, 0
1, 10024, Note_off_c, 1, 60, 0
1, 10025, Note_off_c, 1, 64, 0
1, 10037, Note_on_c, 1, 67, 127
1, 10244, Note_on_c, 1, 70, 127
1, 10452, Note_on_c, 1, 60, 127
1, 10653, Note_off_c, 1, 70, 0
1, 10861, Note_off_c, 1, 60, 0
1, 10866, Note_on_c, 1, 65, 127
1, 10964, Note_off_c, 1, 67, 0
1, 11073, Note_on_c, 1, 68, 127
1, 11482, Note_off_c, 1, 68, 0
1, 11695, Note_on_c, 1, 62, 127
1, 11837, Note_off_c, 1, 65, 0
1, 12520, Note_off_c, 1, 62, 0
1, 12523, Note_on_c, 1, 64, 127
1, 12731, Note_on_c, 1, 67, 127
1, 12944, Note_on_c, 1, 60, 127
1, 13140, Note_off_c, 1, 67, 0
1, 13348, Note_off_c, 1, 64, 0
1, 13353, Note_off_c, 1, 60, 0
1, 13385, Note_on_c, 1, 53, 127
1, 13799, Note_on_c, 1, 68, 127
1, 13799, Note_on_c, 1, 65, 127
1, 14210, Note_off_c, 1, 53, 0
1, 14210, Note_off_c, 1, 68, 0
1, 14210, Note_off_c, 1, 65, 0
1, 14213, Note_on_c, 1, 68, 127
1, 14213, Note_on_c, 1, 65, 127
1, 14213, Note_on_c, 1, 60, 127
1, 14624, Note_off_c, 1, 68, 0
1, 14624, Note_off_c, 1, 65, 0
1, 14627, Note_on_c, 1, 64, 127
1, 14627, Note_on_c, 1, 67, 127
1, 15038, Note_off_c, 1, 60, 0
1, 15042, Note_on_c, 1, 48, 127
1, 15230, Note_off_c, 1, 64, 0
1, 15230, Note_off_c, 1, 67, 0
1, 15456, Note_on_c, 1, 70, 127
1, 15867, Note_off_c, 1, 48, 0
1, 15867, Note_off_c, 1, 70, 0
1, 15871, Note_on_c, 1, 67, 127
1, 15871, Note_on_c, 1, 70, 127
1, 15871, Note_on_c, 1, 53, 127
1, 16282, Note_off_c, 1, 67, 0
1, 16282, Note_off_c, 1, 70, 0
1, 16285, Note_on_c, 1, 65, 127
1, 16285, Note_on_c, 1, 68, 127
1, 16696, Note_off_c, 1, 53, 0
1, 16700, Note_on_c, 1, 41, 127
1, 16888, Note_off_c, 1, 65, 0
1, 16888, Note_off_c, 1, 68, 0
1, 17114, Note_on_c, 1, 72, 127
1, 17525, Note_off_c, 1, 41, 0
1, 17525, Note_off_c, 1, 72, 0
1, 17528, Note_on_c, 1, 68, 127
1, 17528, Note_on_c, 1, 72, 127
1, 17528, Note_on_c, 1, 46, 127
1, 17939, Note_off_c, 1, 68, 0
1, 17939, Note_off_c, 1, 72, 0
1, 17943, Note_on_c, 1, 73, 127
1, 17943, Note_on_c, 1, 70, 127
1, 18353, Note_off_c, 1, 46, 0
1, 18357, Note_on_c, 1, 39, 127
1, 18546, Note_off_c, 1, 73, 0
1, 18546, Note_off_c, 1, 70, 0
1, 18772, Note_on_c, 1, 67, 127
1, 19182, Note_off_c, 1, 39, 0
1, 19183, Note_off_c, 1, 67, 0
1, 19186, Note_on_c, 1, 70, 127
1, 19186, Note_on_c, 1, 67, 127
1, 19186, Note_on_c, 1, 44, 127
1, 19597, Note_off_c, 1, 70, 0
1, 19597, Note_off_c, 1, 67, 0
1, 19600, Note_on_c, 1, 68, 127
1, 19600, Note_on_c, 1, 72, 127
1, 20011, Note_off_c, 1, 44, 0
1, 20023, Note_on_c, 1, 56, 127
1, 20203, Note_off_c, 1, 68, 0
1, 20203, Note_off_c, 1, 72, 0
1, 20437, Note_on_c, 1, 75, 127
1, 20848, Note_off_c, 1, 56, 0
1, 20848, Note_off_c, 1, 75, 0
1, 20852, Note_on_c, 1, 75, 127
1, 20852, Note_on_c, 1, 72, 127
1, 20852, Note_on_c, 1, 58, 127
1, 21263, Note_off_c, 1, 75, 0
1, 21263, Note_off_c, 1, 72, 0
1, 21266, Note_on_c, 1, 73, 127
1, 21266, Note_on_c, 1, 70, 127
1, 21677, Note_off_c, 1, 58, 0
1, 21681, Note_on_c, 1, 46, 127
1, 21869, Note_off_c, 1, 73, 0
1, 21869, Note_off_c, 1, 70, 0
1, 22506, Note_off_c, 1, 46, 0
1, 22509, Note_on_c, 1, 73, 127
1, 22509, Note_on_c, 1, 70, 127
1, 22509, Note_on_c, 1, 48, 127
1, 22920, Note_off_c, 1, 73, 0
1, 22920, Note_off_c, 1, 70, 0
1, 22923, Note_on_c, 1, 68, 127
1, 22923, Note_on_c, 1, 72, 127
1, 23334, Note_off_c, 1, 48, 0
1, 23338, Note_on_c, 1, 60, 127
1, 23526, Note_off_c, 1, 68, 0
1, 23526, Note_off_c, 1, 72, 0
1, 23753, Note_on_c, 1, 75, 127
1, 23753, Note_on_c, 1, 78, 127
1, 24163, Note_off_c, 1, 60, 0
1, 24164, Note_off_c, 1, 75, 0
1, 24164, Note_off_c, 1, 78, 0
1, 24167, Note_on_c, 1, 78, 127
1, 24167, Note_on_c, 1, 75, 127
1, 24167, Note_on_c, 1, 61, 127
1, 24578, Note_off_c, 1, 78, 0
1, 24578, Note_off_c, 1, 75, 0
1, 24582, Note_on_c, 1, 73, 127
1, 24582, Note_on_c, 1, 77, 127
1, 24992, Note_off_c, 1, 61, 0
1, 24996, Note_on_c, 1, 62, 127
1, 25185, Note_off_c, 1, 73, 0
1, 25185, Note_off_c, 1, 77, 0
1, 25410, Note_on_c, 1, 80, 127
1, 25410, Note_on_c, 1, 72, 127
1, 25821, Note_off_c, 1, 62, 0
1, 25821, Note_off_c, 1, 80, 0
1, 25821, Note_off_c, 1, 72, 0
1, 25824, Note_on_c, 1, 80, 127
1, 25824, Note_on_c, 1, 72, 127
1, 25824, Note_on_c, 1, 63, 127
1, 26245, Note_off_c, 1, 80, 0
1, 26245, Note_off_c, 1, 72, 0
1, 26245, Note_on_c, 1, 79, 127
1, 26245, Note_on_c, 1, 70, 127
1, 26649, Note_off_c, 1, 63, 0
1, 26685, Note_on_c, 1, 67, 127
1, 26863, Note_off_c, 1, 79, 0
1, 26863, Note_off_c, 1, 70, 0
1, 27510, Note_off_c, 1, 67, 0
1, 27514, Note_on_c, 1, 68, 127
1, 27721, Note_on_c, 1, 72, 127
1, 27928, Note_on_c, 1, 63, 127
1, 28130, Note_off_c, 1, 72, 0
1, 28337, Note_off_c, 1, 63, 0
1, 28343, Note_on_c, 1, 65, 127
1, 28463, Note_off_c, 1, 68, 0
1, 29168, Note_off_c, 1, 65, 0
1, 29172, Note_on_c, 1, 67, 127
1, 29379, Note_on_c, 1, 70, 127
1, 29586, Note_on_c, 1, 63, 127
1, 29788, Note_off_c, 1, 70, 0
1, 29995, Note_off_c, 1, 63, 0
1, 29997, Note_off_c, 1, 67, 0
1, 30000, Note_on_c, 1, 70, 127
1, 30207, Note_on_c, 1, 73, 127
1, 30415, Note_on_c, 1, 63, 127
1, 30616, Note_off_c, 1, 73, 0
1, 30824, Note_off_c, 1, 63, 0
1, 30829, Note_on_c, 1, 68, 127
1, 30905, Note_off_c, 1, 70, 0
1, 31036, Note_on_c, 1, 72, 127
1, 31445, Note_off_c, 1, 72, 0
1, 31654, Note_off_c, 1, 68, 0
1, 31658, Note_on_c, 1, 65, 127
1, 31865, Note_on_c, 1, 74, 127
1, 32274, Note_off_c, 1, 74, 0
1, 32483, Note_off_c, 1, 65, 0
1, 32487, Note_on_c, 1, 67, 127
1, 32695, Note_on_c, 1, 75, 127
1, 32901, Note_on_c, 1, 63, 127
1, 33104, Note_off_c, 1, 75, 0
1, 33310, Note_off_c, 1, 63, 0
1, 33312, Note_off_c, 1, 67, 0
1, 33315, Note_on_c, 1, 66, 127
1, 33315, Note_on_c, 1, 48, 127
1, 33519, Note_off_c, 1, 66, 0
1, 33523, Note_on_c, 1, 68, 127
1, 33727, Note_off_c, 1, 68, 0
1, 33730, Note_on_c, 1, 72, 127
1, 33730, Note_on_c, 1, 56, 127
1, 33934, Note_off_c, 1, 72, 0
1, 34134, Note_off_c, 1, 48, 0
1, 34145, Note_on_c, 1, 49, 127
1, 34549, Note_off_c, 1, 56, 0
1, 34559, Note_on_c, 1, 53, 127
1, 34766, Note_on_c, 1, 65, 127
1, 34964, Note_off_c, 1, 49, 0
1, 34970, Note_off_c, 1, 53, 0
1, 34970, Note_off_c, 1, 65, 0
1, 34974, Note_on_c, 1, 65, 127
1, 34974, Note_on_c, 1, 46, 127
1, 35178, Note_off_c, 1, 65, 0
1, 35181, Note_on_c, 1, 67, 127
1, 35385, Note_off_c, 1, 67, 0
1, 35388, Note_on_c, 1, 70, 127
1, 35388, Note_on_c, 1, 55, 127
1, 35592, Note_off_c, 1, 70, 0
1, 35596, Note_on_c, 1, 73, 127
1, 35793, Note_off_c, 1, 46, 0
1, 35800, Note_off_c, 1, 73, 0
1, 35802, Note_on_c, 1, 48, 127
1, 36207, Note_off_c, 1, 55, 0
1, 36216, Note_on_c, 1, 51, 127
1, 36424, Note_on_c, 1, 63, 127
1, 36621, Note_off_c, 1, 48, 0
1, 36627, Note_off_c, 1, 51, 0
1, 36628, Note_off_c, 1, 63, 0
1, 36631, Note_on_c, 1, 63, 127
1, 36631, Note_on_c, 1, 44, 127
1, 36835, Note_off_c, 1, 63, 0
1, 36838, Note_on_c, 1, 65, 127
1, 37042, Note_off_c, 1, 65, 0
1, 37045, Note_on_c, 1, 68, 127
1, 37045, Note_on_c, 1, 53, 127
1, 37249, Note_off_c, 1, 68, 0
1, 37253, Note_on_c, 1, 72, 127
1, 37450, Note_off_c, 1, 44, 0
1, 37457, Note_off_c, 1, 72, 0
1, 37460, Note_on_c, 1, 46, 127
1, 37864, Note_off_c, 1, 53, 0
1, 37875, Note_on_c, 1, 49, 127
1, 38082, Note_on_c, 1, 61, 127
1, 38279, Note_off_c, 1, 46, 0
1, 38286, Note_off_c, 1, 49, 0
1, 38286, Note_off_c, 1, 61, 0
1, 38289, Note_on_c, 1, 61, 127
1, 38289, Note_on_c, 1, 43, 127
1, 38493, Note_off_c, 1, 61, 0
1, 38496, Note_on_c, 1, 63, 127
1, 38700, Note_off_c, 1, 63, 0
1, 38703, Note_on_c, 1, 67, 127
1, 38703, Note_on_c, 1, 51, 127
1, 38907, Note_off_c, 1, 67, 0
1, 38910, Note_on_c, 1, 70, 127
1, 39108, Note_off_c, 1, 43, 0
1, 39114, Note_off_c, 1, 70, 0
1, 39117, Note_on_c, 1, 44, 127
1, 39522, Note_off_c, 1, 51, 0
1, 39532, Note_on_c, 1, 48, 127
1, 39739, Note_on_c, 1, 60, 127
1, 39953, Note_off_c, 1, 48, 0
1, 39982, Note_off_c, 1, 44, 0
1, 40103, Note_off_c, 1, 60, 0
1, 40178, Note_on_c, 1, 68, 127
1, 40385, Note_on_c, 1, 54, 127
1, 40587, Note_off_c, 1, 68, 0
1, 40796, Note_off_c, 1, 54, 0
1, 40800, Note_on_c, 1, 53, 127
1, 41006, Note_on_c, 1, 68, 127
1, 41211, Note_off_c, 1, 53, 0
1, 41213, Note_on_c, 1, 61, 127
1, 41213, Note_on_c, 1, 44, 127
1, 41415, Note_off_c, 1, 68, 0
1, 41622, Note_off_c, 1, 61, 0
1, 41624, Note_off_c, 1, 44, 0
1, 41628, Note_on_c, 1, 42, 127
1, 41835, Note_on_c, 1, 68, 127
1, 42039, Note_off_c, 1, 42, 0
1, 42042, Note_on_c, 1, 60, 127
1, 42042, Note_on_c, 1, 51, 127
1, 42244, Note_off_c, 1, 68, 0
1, 42451, Note_off_c, 1, 60, 0
1, 42453, Note_off_c, 1, 51, 0
1, 42457, Note_on_c, 1, 49, 127
1, 42664, Note_on_c, 1, 68, 127
1, 42868, Note_off_c, 1, 49, 0
1, 42871, Note_on_c, 1, 58, 127
1, 42871, Note_on_c, 1, 40, 127
1, 43073, Note_off_c, 1, 68, 0
1, 43280, Note_off_c, 1, 58, 0
1, 43282, Note_off_c, 1, 40, 0
1, 43286, Note_on_c, 1, 39, 127
1, 43493, Note_on_c, 1, 68, 127
1, 43697, Note_off_c, 1, 39, 0
1, 43700, Note_on_c, 1, 56, 127
1, 43700, Note_on_c, 1, 47, 127
1, 43902, Note_off_c, 1, 68, 0
1, 44109, Note_off_c, 1, 56, 0
1, 44111, Note_off_c, 1, 47, 0
1, 44114, Note_on_c, 1, 58, 127
1, 44114, Note_on_c, 1, 38, 127
1, 44318, Note_off_c, 1, 58, 0
1, 44321, Note_on_c, 1, 68, 127
1, 44525, Note_off_c, 1, 68, 0
1, 44529, Note_on_c, 1, 64, 127
1, 44529, Note_on_c, 1, 46, 127
1, 44733, Note_off_c, 1, 64, 0
1, 44933, Note_off_c, 1, 38, 0
1, 44940, Note_off_c, 1, 46, 0
1, 44943, Note_on_c, 1, 63, 127
1, 44943, Note_on_c, 1, 51, 127
1, 45150, Note_on_c, 1, 68, 127
1, 45352, Note_off_c, 1, 63, 0
1, 45358, Note_on_c, 1, 61, 127
1, 45358, Note_on_c, 1, 39, 127
1, 45559, Note_off_c, 1, 68, 0
1, 45565, Note_on_c, 1, 67, 127
1, 45775, Note_off_c, 1, 67, 0
1, 45779, Note_off_c, 1, 61, 0
1, 45779, Note_off_c, 1, 39, 0
1, 45780, Note_on_c, 1, 44, 127
1, 46226, Note_on_c, 1, 60, 127
1, 46624, Note_off_c, 1, 51, 0
1, 46661, Note_off_c, 1, 60, 0
1, 46694, Note_off_c, 1, 44, 0
1, 46696, Note_on_c, 1, 56, 127
1, 47110, Note_on_c, 1, 72, 127
1, 47110, Note_on_c, 1, 68, 127
1, 47521, Note_off_c, 1, 56, 0
1, 47521, Note_off_c, 1, 72, 0
1, 47521, Note_off_c, 1, 68, 0
1, 47524, Note_on_c, 1, 72, 127
1, 47524, Note_on_c, 1, 68, 127
1, 47524, Note_on_c, 1, 63, 127
1, 47935, Note_off_c, 1, 72, 0
1, 47935, Note_off_c, 1, 68, 0
1, 47939, Note_on_c, 1, 67, 127
1, 47939, Note_on_c, 1, 70, 127
1, 48349, Note_off_c, 1, 63, 0
1, 48354, Note_on_c, 1, 51, 127
1, 48542, Note_off_c, 1, 67, 0
1, 48542, Note_off_c, 1, 70, 0
1, 48768, Note_on_c, 1, 73, 127
1, 49179, Note_off_c, 1, 51, 0
1, 49179, Note_off_c, 1, 73, 0
1, 49183, Note_on_c, 1, 73, 127
1, 49183, Note_on_c, 1, 70, 127
1, 49183, Note_on_c, 1, 56, 127
1, 49594, Note_off_c, 1, 73, 0
1, 49594, Note_off_c, 1, 70, 0
1, 49597, Note_on_c, 1, 68, 127
1, 49597, Note_on_c, 1, 72, 127
1, 50008, Note_off_c, 1, 56, 0
1, 50011, Note_on_c, 1, 57, 127
1, 50200, Note_off_c, 1, 68, 0
1, 50200, Note_off_c, 1, 72, 0
1, 50425, Note_on_c, 1, 66, 127
1, 50425, Note_on_c, 1, 75, 127
1, 50836, Note_off_c, 1, 57, 0
1, 50836, Note_off_c, 1, 66, 0
1, 50836, Note_off_c, 1, 75, 0
1, 50840, Note_on_c, 1, 66, 127
1, 50840, Note_on_c, 1, 75, 127
1, 50840, Note_on_c, 1, 58, 127
1, 51251, Note_off_c, 1, 66, 0
1, 51251, Note_off_c, 1, 75, 0
1, 51255, Note_on_c, 1, 65, 127
1, 51255, Note_on_c, 1, 74, 127
1, 51665, Note_off_c, 1, 58, 0
1, 51669, Note_on_c, 1, 50, 127
1, 51858, Note_off_c, 1, 65, 0
1, 51858, Note_off_c, 1, 74, 0
1, 52084, Note_on_c, 1, 77, 127
1, 52084, Note_on_c, 1, 68, 127
1, 52494, Note_off_c, 1, 50, 0
1, 52495, Note_off_c, 1, 77, 0
1, 52495, Note_off_c, 1, 68, 0
1, 52498, Note_on_c, 1, 68, 127
1, 52498, Note_on_c, 1, 77, 127
1, 52498, Note_on_c, 1, 51, 127
1, 52909, Note_off_c, 1, 68, 0
1, 52909, Note_off_c, 1, 77, 0
1, 52912, Note_on_c, 1, 67, 127
1, 52912, Note_on_c, 1, 75, 127
1, 53327, Note_off_c, 1, 51, 0
1, 53335, Note_off_c, 1, 67, 0
1, 53342, Note_on_c, 1, 78, 127
1, 53343, Note_off_c, 1, 75, 0
1, 53550, Note_on_c, 1, 69, 127
1, 53757, Note_on_c, 1, 63, 127
1, 53959, Note_off_c, 1, 69, 0
1, 54166, Note_off_c, 1, 63, 0
1, 54167, Note_off_c, 1, 78, 0
1, 54171, Note_on_c, 1, 77, 127
1, 54379, Note_on_c, 1, 70, 127
1, 54586, Note_on_c, 1, 61, 127
1, 54788, Note_off_c, 1, 70, 0
1, 54995, Note_off_c, 1, 61, 0
1, 54996, Note_off_c, 1, 77, 0
1, 55000, Note_on_c, 1, 75, 127
1, 55000, Note_on_c, 1, 72, 127
1, 55207, Note_on_c, 1, 66, 127
1, 55414, Note_on_c, 1, 57, 127
1, 55616, Note_off_c, 1, 66, 0
1, 55823, Note_off_c, 1, 57, 0
1, 55825, Note_off_c, 1, 75, 0
1, 55829, Note_on_c, 1, 73, 127
1, 56036, Note_on_c, 1, 65, 127
1, 56240, Note_off_c, 1, 72, 0
1, 56243, Note_on_c, 1, 58, 127
1, 56243, Note_on_c, 1, 70, 127
1, 56445, Note_off_c, 1, 65, 0
1, 56648, Note_off_c, 1, 73, 0
1, 56652, Note_off_c, 1, 58, 0
1, 56654, Note_off_c, 1, 70, 0
1, 56658, Note_on_c, 1, 71, 127
1, 56658, Note_on_c, 1, 74, 127
1, 56865, Note_on_c, 1, 68, 127
1, 57072, Note_on_c, 1, 58, 127
1, 57274, Note_off_c, 1, 68, 0
1, 57481, Note_off_c, 1, 58, 0
1, 57483, Note_off_c, 1, 71, 0
1, 57483, Note_off_c, 1, 74, 0
1, 57487, Note_on_c, 1, 75, 127
1, 57487, Note_on_c, 1, 70, 127
1, 57694, Note_on_c, 1, 66, 127
1, 57900, Note_on_c, 1, 60, 127
1, 58103, Note_off_c, 1, 66, 0
1, 58309, Note_off_c, 1, 60, 0
1, 58312, Note_off_c, 1, 75, 0
1, 58312, Note_off_c, 1, 70, 0
1, 58315, Note_on_c, 1, 68, 127
1, 58315, Note_on_c, 1, 77, 127
1, 58522, Note_on_c, 1, 65, 127
1, 58730, Note_on_c, 1, 62, 127
1, 58931, Note_off_c, 1, 65, 0
1, 59139, Note_off_c, 1, 62, 0
1, 59140, Note_off_c, 1, 68, 0
1, 59144, Note_on_c, 1, 66, 127
1, 59351, Note_on_c, 1, 63, 127
1, 59555, Note_off_c, 1, 77, 0
1, 59555, Note_off_c, 1, 63, 0
1, 59559, Note_on_c, 1, 75, 127
1, 59963, Note_off_c, 1, 66, 0
1, 59968, Note_off_c, 1, 75, 0
1, 59973, Note_on_c, 1, 60, 127
1, 60181, Note_on_c, 1, 78, 127
1, 60181, Note_on_c, 1, 63, 127
1, 60382, Note_off_c, 1, 60, 0
1, 60385, Note_off_c, 1, 78, 0
1, 60385, Note_off_c, 1, 63, 0
1, 60388, Note_on_c, 1, 77, 127
1, 60388, Note_on_c, 1, 61, 127
1, 60592, Note_off_c, 1, 77, 0
1, 60592, Note_off_c, 1, 61, 0
1, 60595, Note_on_c, 1, 78, 127
1, 60595, Note_on_c, 1, 63, 127
1, 60799, Note_off_c, 1, 78, 0
1, 60799, Note_off_c, 1, 63, 0
1, 60801, Note_on_c, 1, 53, 127
1, 60801, Note_on_c, 1, 70, 127
1, 61009, Note_on_c, 1, 61, 127
1, 61210, Note_off_c, 1, 53, 0
1, 61213, Note_off_c, 1, 61, 0
1, 61216, Note_on_c, 1, 60, 127
1, 61216, Note_on_c, 1, 69, 127
1, 61226, Note_off_c, 1, 70, 0
1, 61420, Note_off_c, 1, 60, 0
1, 61625, Note_off_c, 1, 69, 0
1, 61631, Note_on_c, 1, 55, 127
1, 61838, Note_on_c, 1, 75, 127
1, 61838, Note_on_c, 1, 60, 127
1, 62040, Note_off_c, 1, 55, 0
1, 62042, Note_off_c, 1, 75, 0
1, 62042, Note_off_c, 1, 60, 0
1, 62045, Note_on_c, 1, 73, 127
1, 62045, Note_on_c, 1, 58, 127
1, 62249, Note_off_c, 1, 73, 0
1, 62249, Note_off_c, 1, 58, 0
1, 62252, Note_on_c, 1, 75, 127
1, 62252, Note_on_c, 1, 60, 127
1, 62456, Note_off_c, 1, 75, 0
1, 62456, Note_off_c, 1, 60, 0
1, 62460, Note_on_c, 1, 57, 127
1, 62460, Note_on_c, 1, 66, 127
1, 62664, Note_off_c, 1, 57, 0
1, 62667, Note_on_c, 1, 58, 127
1, 62871, Note_off_c, 1, 58, 0
1, 62874, Note_on_c, 1, 65, 127
1, 62885, Note_off_c, 1, 66, 0
1, 63289, Note_on_c, 1, 49, 127
1, 63492, Note_off_c, 1, 65, 0
1, 63496, Note_on_c, 1, 73, 127
1, 63698, Note_off_c, 1, 49, 0
1, 63700, Note_off_c, 1, 73, 0
1, 63702, Note_on_c, 1, 72, 127
1, 63702, Note_on_c, 1, 57, 127
1, 63906, Note_off_c, 1, 72, 0
1, 63906, Note_off_c, 1, 57, 0
1, 63910, Note_on_c, 1, 58, 127
1, 63910, Note_on_c, 1, 73, 127
1, 64114, Note_off_c, 1, 58, 0
1, 64117, Note_on_c, 1, 54, 127
1, 64117, Note_on_c, 1, 63, 127
1, 64319, Note_off_c, 1, 73, 0
1, 64321, Note_off_c, 1, 54, 0
1, 64324, Note_on_c, 1, 72, 127
1, 64324, Note_on_c, 1, 53, 127
1, 64526, Note_off_c, 1, 63, 0
1, 64528, Note_off_c, 1, 72, 0
1, 64528, Note_off_c, 1, 53, 0
1, 64531, Note_on_c, 1, 70, 127
1, 64531, Note_on_c, 1, 54, 127
1, 64735, Note_off_c, 1, 70, 0
1, 64735, Note_off_c, 1, 54, 0
1, 64739, Note_on_c, 1, 72, 127
1, 64739, Note_on_c, 1, 51, 127
1, 64943, Note_off_c, 1, 72, 0
1, 64943, Note_off_c, 1, 51, 0
1, 64946, Note_on_c, 1, 61, 127
1, 64946, Note_on_c, 1, 53, 127
1, 65153, Note_on_c, 1, 70, 127
1, 65355, Note_off_c, 1, 61, 0
1, 65357, Note_off_c, 1, 53, 0
1, 65361, Note_on_c, 1, 60, 127
1, 65361, Note_on_c, 1, 41, 127
1, 65562, Note_off_c, 1, 70, 0
1, 65568, Note_on_c, 1, 69, 127
1, 65770, Note_off_c, 1, 60, 0
1, 65772, Note_off_c, 1, 41, 0
1, 65772, Note_off_c, 1, 69, 0
1, 65775, Note_on_c, 1, 69, 127
1, 65775, Note_on_c, 1, 60, 127
1, 65775, Note_on_c, 1, 46, 127
1, 66195, Note_off_c, 1, 69, 0
1, 66198, Note_off_c, 1, 60, 0
1, 66198, Note_on_c, 1, 61, 127
1, 66198, Note_on_c, 1, 70, 127
1, 66609, Note_off_c, 1, 61, 0
1, 66614, Note_off_c, 1, 46, 0
1, 66635, Note_on_c, 1, 77, 127
1, 66638, Note_off_c, 1, 70, 0
1, 67046, Note_off_c, 1, 77, 0
1, 67050, Note_on_c, 1, 60, 127
1, 67050, Note_on_c, 1, 75, 127
1, 67254, Note_off_c, 1, 60, 0
1, 67257, Note_on_c, 1, 61, 127
1, 67461, Note_off_c, 1, 75, 0
1, 67461, Note_off_c, 1, 61, 0
1, 67464, Note_on_c, 1, 58, 127
1, 67464, Note_on_c, 1, 73, 127
1, 67668, Note_off_c, 1, 58, 0
1, 67672, Note_on_c, 1, 61, 127
1, 67875, Note_off_c, 1, 73, 0
1, 67876, Note_off_c, 1, 61, 0
1, 67879, Note_on_c, 1, 56, 127
1, 67879, Note_on_c, 1, 77, 127
1, 68083, Note_off_c, 1, 56, 0
1, 68086, Note_on_c, 1, 61, 127
1, 68290, Note_off_c, 1, 77, 0
1, 68290, Note_off_c, 1, 61, 0
1, 68293, Note_on_c, 1, 55, 127
1, 68293, Note_on_c, 1, 70, 127
1, 68497, Note_off_c, 1, 55, 0
1, 68500, Note_on_c, 1, 61, 127
1, 68704, Note_off_c, 1, 70, 0
1, 68704, Note_off_c, 1, 61, 0
1, 68707, Note_on_c, 1, 73, 127
1, 68707, Note_on_c, 1, 53, 127
1, 68911, Note_off_c, 1, 73, 0
1, 68911, Note_off_c, 1, 53, 0
1, 68914, Note_on_c, 1, 77, 127
1, 68914, Note_on_c, 1, 61, 127
1, 69118, Note_off_c, 1, 77, 0
1, 69118, Note_off_c, 1, 61, 0
1, 69122, Note_on_c, 1, 51, 127
1, 69122, Note_on_c, 1, 80, 127
1, 69326, Note_off_c, 1, 51, 0
1, 69329, Note_on_c, 1, 55, 127
1, 69533, Note_off_c, 1, 55, 0
1, 69536, Note_on_c, 1, 58, 127
1, 69536, Note_on_c, 1, 79, 127
1, 69547, Note_off_c, 1, 80, 0
1, 69740, Note_off_c, 1, 58, 0
1, 69743, Note_on_c, 1, 61, 127
1, 69947, Note_off_c, 1, 61, 0
1, 69951, Note_on_c, 1, 75, 127
1, 69962, Note_off_c, 1, 79, 0
1, 70158, Note_on_c, 1, 60, 127
1, 70362, Note_off_c, 1, 75, 0
1, 70362, Note_off_c, 1, 60, 0
1, 70365, Note_on_c, 1, 58, 127
1, 70365, Note_on_c, 1, 73, 127
1, 70569, Note_off_c, 1, 58, 0
1, 70573, Note_on_c, 1, 60, 127
1, 70776, Note_off_c, 1, 73, 0
1, 70777, Note_off_c, 1, 60, 0
1, 70780, Note_on_c, 1, 56, 127
1, 70780, Note_on_c, 1, 72, 127
1, 70984, Note_off_c, 1, 56, 0
1, 70987, Note_on_c, 1, 60, 127
1, 71191, Note_off_c, 1, 72, 0
1, 71191, Note_off_c, 1, 60, 0
1, 71194, Note_on_c, 1, 54, 127
1, 71194, Note_on_c, 1, 75, 127
1, 71398, Note_off_c, 1, 54, 0
1, 71401, Note_on_c, 1, 60, 127
1, 71605, Note_off_c, 1, 75, 0
1, 71605, Note_off_c, 1, 60, 0
1, 71608, Note_on_c, 1, 53, 127
1, 71608, Note_on_c, 1, 68, 127
1, 71812, Note_off_c, 1, 53, 0
1, 71815, Note_on_c, 1, 60, 127
1, 72019, Note_off_c, 1, 68, 0
1, 72019, Note_off_c, 1, 60, 0
1, 72023, Note_on_c, 1, 72, 127
1, 72023, Note_on_c, 1, 51, 127
1, 72227, Note_off_c, 1, 72, 0
1, 72227, Note_off_c, 1, 51, 0
1, 72230, Note_on_c, 1, 75, 127
1, 72230, Note_on_c, 1, 60, 127
1, 72434, Note_off_c, 1, 75, 0
1, 72434, Note_off_c, 1, 60, 0
1, 72437, Note_on_c, 1, 49, 127
1, 72437, Note_on_c, 1, 78, 127
1, 72641, Note_off_c, 1, 49, 0
1, 72644, Note_on_c, 1, 53, 127
1, 72848, Note_off_c, 1, 53, 0
1, 72852, Note_on_c, 1, 56, 127
1, 72852, Note_on_c, 1, 77, 127
1, 72859, Note_off_c, 1, 78, 0
1, 73056, Note_off_c, 1, 56, 0
1, 73059, Note_on_c, 1, 60, 127
1, 73263, Note_off_c, 1, 77, 0
1, 73263, Note_off_c, 1, 60, 0
1, 73266, Note_on_c, 1, 50, 127
1, 73266, Note_on_c, 1, 68, 127
1, 73470, Note_off_c, 1, 50, 0
1, 73473, Note_on_c, 1, 53, 127
1, 73677, Note_off_c, 1, 68, 0
1, 73677, Note_off_c, 1, 53, 0
1, 73681, Note_on_c, 1, 56, 127
1, 73681, Note_on_c, 1, 77, 127
1, 73885, Note_off_c, 1, 56, 0
1, 73888, Note_on_c, 1, 58, 127
1, 74092, Note_off_c, 1, 77, 0
1, 74092, Note_off_c, 1, 58, 0
1, 74095, Note_on_c, 1, 70, 127
1, 74095, Note_on_c, 1, 51, 127
1, 74195, Note_off_c, 1, 70, 0
1, 74199, Note_on_c, 1, 68, 127
1, 74299, Note_off_c, 1, 51, 0
1, 74299, Note_off_c, 1, 68, 0
1, 74302, Note_on_c, 1, 70, 127
1, 74302, Note_on_c, 1, 55, 127
1, 74402, Note_off_c, 1, 70, 0
1, 74405, Note_on_c, 1, 68, 127
1, 74505, Note_off_c, 1, 68, 0
1, 74506, Note_off_c, 1, 55, 0
1, 74509, Note_on_c, 1, 58, 127
1, 74509, Note_on_c, 1, 67, 127
1, 74713, Note_off_c, 1, 58, 0
1, 74716, Note_on_c, 1, 61, 127
1, 74920, Note_off_c, 1, 67, 0
1, 74920, Note_off_c, 1, 61, 0
1, 74923, Note_on_c, 1, 52, 127
1, 74923, Note_on_c, 1, 70, 127
1, 75127, Note_off_c, 1, 52, 0
1, 75131, Note_on_c, 1, 55, 127
1, 75334, Note_off_c, 1, 70, 0
1, 75335, Note_off_c, 1, 55, 0
1, 75338, Note_on_c, 1, 58, 127
1, 75338, Note_on_c, 1, 79, 127
1, 75542, Note_off_c, 1, 58, 0
1, 75545, Note_on_c, 1, 60, 127
1, 75749, Note_off_c, 1, 79, 0
1, 75749, Note_off_c, 1, 60, 0
1, 75753, Note_on_c, 1, 53, 127
1, 75753, Note_on_c, 1, 70, 127
1, 75957, Note_off_c, 1, 53, 0
1, 75960, Note_on_c, 1, 56, 127
1, 76164, Note_off_c, 1, 70, 0
1, 76164, Note_off_c, 1, 56, 0
1, 76167, Note_on_c, 1, 60, 127
1, 76167, Note_on_c, 1, 68, 127
1, 76371, Note_off_c, 1, 60, 0
1, 76374, Note_on_c, 1, 64, 127
1, 76568, Note_off_c, 1, 68, 0
1, 76587, Note_off_c, 1, 64, 0
1, 76590, Note_on_c, 1, 72, 127
1, 76590, Note_on_c, 1, 65, 127
1, 76797, Note_on_c, 1, 76, 127
1, 76999, Note_off_c, 1, 72, 0
1, 77001, Note_off_c, 1, 65, 0
1, 77001, Note_off_c, 1, 76, 0
1, 77003, Note_on_c, 1, 77, 127
1, 77003, Note_on_c, 1, 68, 127
1, 77207, Note_off_c, 1, 77, 0
1, 77211, Note_on_c, 1, 80, 127
1, 77414, Note_off_c, 1, 68, 0
1, 77418, Note_on_c, 1, 73, 127
1, 77418, Note_on_c, 1, 58, 127
1, 77512, Note_off_c, 1, 80, 0
1, 77719, Note_off_c, 1, 73, 0
1, 77829, Note_off_c, 1, 58, 0
1, 77832, Note_on_c, 1, 72, 127
1, 77832, Note_on_c, 1, 60, 127
1, 78133, Note_off_c, 1, 72, 0
1, 78243, Note_off_c, 1, 60, 0
1, 78247, Note_on_c, 1, 70, 127
1, 78247, Note_on_c, 1, 61, 127
1, 78656, Note_off_c, 1, 70, 0
1, 78658, Note_off_c, 1, 61, 0
1, 78661, Note_on_c, 1, 79, 127
1, 78661, Note_on_c, 1, 58, 127
1, 78865, Note_off_c, 1, 79, 0
1, 78869, Note_on_c, 1, 77, 127
1, 79072, Note_off_c, 1, 58, 0
1, 79073, Note_off_c, 1, 77, 0
1, 79076, Note_on_c, 1, 77, 127
1, 79076, Note_on_c, 1, 60, 127
1, 79283, Note_on_c, 1, 76, 127
1, 79303, Note_off_c, 1, 77, 0
1, 79487, Note_off_c, 1, 60, 0
1, 79487, Note_off_c, 1, 76, 0
1, 79494, Note_on_c, 1, 74, 127
1, 79494, Note_on_c, 1, 48, 127
1, 79706, Note_on_c, 1, 72, 127
1, 79711, Note_off_c, 1, 74, 0
1, 79903, Note_off_c, 1, 48, 0
1, 79934, Note_off_c, 1, 72, 0
1, 79936, Note_on_c, 1, 80, 127
1, 80140, Note_off_c, 1, 80, 0
1, 80143, Note_on_c, 1, 77, 127
1, 80347, Note_off_c, 1, 77, 0
1, 80351, Note_on_c, 1, 73, 127
1, 80351, Note_on_c, 1, 53, 127
1, 80351, Note_on_c, 1, 56, 127
1, 80555, Note_off_c, 1, 73, 0
1, 80558, Note_on_c, 1, 72, 127
1, 80762, Note_off_c, 1, 53, 0
1, 80762, Note_off_c, 1, 56, 0
1, 80762, Note_off_c, 1, 72, 0
1, 80765, Note_on_c, 1, 70, 127
1, 80765, Note_on_c, 1, 53, 127
1, 80765, Note_on_c, 1, 55, 127
1, 80969, Note_off_c, 1, 70, 0
1, 80973, Note_on_c, 1, 68, 127
1, 81176, Note_off_c, 1, 53, 0
1, 81177, Note_off_c, 1, 68, 0
1, 81180, Note_on_c, 1, 52, 127
1, 81387, Note_on_c, 1, 73, 127
1, 81584, Note_off_c, 1, 55, 0
1, 81589, Note_off_c, 1, 52, 0
1, 81591, Note_off_c, 1, 73, 0
1, 81594, Note_on_c, 1, 78, 127
1, 81798, Note_off_c, 1, 78, 0
1, 81801, Note_on_c, 1, 75, 127
1, 82005, Note_off_c, 1, 75, 0
1, 82008, Note_on_c, 1, 71, 127
1, 82008, Note_on_c, 1, 51, 127
1, 82008, Note_on_c, 1, 54, 127
1, 82212, Note_off_c, 1, 71, 0
1, 82215, Note_on_c, 1, 70, 127
1, 82419, Note_off_c, 1, 51, 0
1, 82419, Note_off_c, 1, 54, 0
1, 82419, Note_off_c, 1, 70, 0
1, 82423, Note_on_c, 1, 69, 127
1, 82423, Note_on_c, 1, 53, 127
1, 82423, Note_on_c, 1, 51, 127
1, 82627, Note_off_c, 1, 69, 0
1, 82630, Note_on_c, 1, 67, 127
1, 82834, Note_off_c, 1, 53, 0
1, 82834, Note_off_c, 1, 67, 0
1, 82837, Note_on_c, 1, 60, 127
1, 83044, Note_on_c, 1, 72, 127
1, 83242, Note_off_c, 1, 51, 0
1, 83246, Note_off_c, 1, 60, 0
1, 83248, Note_off_c, 1, 72, 0
1, 83252, Note_on_c, 1, 77, 127
1, 83456, Note_off_c, 1, 77, 0
1, 83459, Note_on_c, 1, 73, 127
1, 83663, Note_off_c, 1, 73, 0
1, 83666, Note_on_c, 1, 70, 127
1, 83666, Note_on_c, 1, 53, 127
1, 83666, Note_on_c, 1, 49, 127
1, 83870, Note_off_c, 1, 70, 0
1, 83873, Note_on_c, 1, 68, 127
1, 84077, Note_off_c, 1, 53, 0
1, 84077, Note_off_c, 1, 49, 0
1, 84077, Note_off_c, 1, 68, 0
1, 84081, Note_on_c, 1, 66, 127
1, 84081, Note_on_c, 1, 49, 127
1, 84081, Note_on_c, 1, 51, 127
1, 84285, Note_off_c, 1, 66, 0
1, 84288, Note_on_c, 1, 65, 127
1, 84492, Note_off_c, 1, 49, 0
1, 84492, Note_off_c, 1, 65, 0
1, 84495, Note_on_c, 1, 48, 127
1, 84702, Note_on_c, 1, 70, 127
1, 84900, Note_off_c, 1, 51, 0
1, 84904, Note_off_c, 1, 48, 0
1, 84906, Note_off_c, 1, 70, 0
1, 84909, Note_on_c, 1, 75, 127
1, 85113, Note_off_c, 1, 75, 0
1, 85116, Note_on_c, 1, 72, 127
1, 85320, Note_off_c, 1, 72, 0
1, 85323, Note_on_c, 1, 69, 127
1, 85323, Note_on_c, 1, 46, 127
1, 85323, Note_on_c, 1, 49, 127
1, 85527, Note_off_c, 1, 69, 0
1, 85531, Note_on_c, 1, 66, 127
1, 85734, Note_off_c, 1, 46, 0
1, 85734, Note_off_c, 1, 49, 0
1, 85735, Note_off_c, 1, 66, 0
1, 85738, Note_on_c, 1, 65, 127
1, 85738, Note_on_c, 1, 46, 127
1, 85738, Note_on_c, 1, 48, 127
1, 85942, Note_off_c, 1, 65, 0
1, 85945, Note_on_c, 1, 64, 127
1, 86149, Note_off_c, 1, 46, 0
1, 86149, Note_off_c, 1, 64, 0
1, 86153, Note_on_c, 1, 45, 127
1, 86360, Note_on_c, 1, 75, 127
1, 86557, Note_off_c, 1, 48, 0
1, 86562, Note_off_c, 1, 45, 0
1, 86564, Note_off_c, 1, 75, 0
1, 86567, Note_on_c, 1, 73, 127
1, 86567, Note_on_c, 1, 70, 127
1, 86774, Note_on_c, 1, 58, 127
1, 86978, Note_off_c, 1, 58, 0
1, 86982, Note_on_c, 1, 60, 127
1, 87186, Note_off_c, 1, 60, 0
1, 87189, Note_on_c, 1, 61, 127
1, 87392, Note_off_c, 1, 73, 0
1, 87392, Note_off_c, 1, 70, 0
1, 87396, Note_on_c, 1, 67, 127
1, 87396, Note_on_c, 1, 64, 127
1, 87600, Note_off_c, 1, 61, 0
1, 88017, Note_on_c, 1, 56, 127
1, 88221, Note_off_c, 1, 67, 0
1, 88221, Note_off_c, 1, 64, 0
1, 88428, Note_off_c, 1, 56, 0
1, 88432, Note_on_c, 1, 55, 127
1, 88636, Note_off_c, 1, 55, 0
1, 89675, Note_on_c, 1, 53, 127
1, 89879, Note_off_c, 1, 53, 0
1, 89883, Note_on_c, 1, 52, 127
1, 90702, Note_off_c, 1, 52, 0
1, 90727, Note_on_c, 1, 56, 127
1, 90727, Note_on_c, 1, 53, 127
1, 90934, Note_on_c, 1, 67, 127
1, 91136, Note_off_c, 1, 56, 0
1, 91141, Note_on_c, 1, 60, 127
1, 91235, Note_off_c, 1, 67, 0
1, 91349, Note_on_c, 1, 65, 127
1, 91546, Note_off_c, 1, 53, 0
1, 91552, Note_off_c, 1, 60, 0
1, 91553, Note_off_c, 1, 65, 0
1, 91556, Note_on_c, 1, 56, 127
1, 91556, Note_on_c, 1, 49, 127
1, 91763, Note_on_c, 1, 65, 127
1, 91965, Note_off_c, 1, 56, 0
1, 91967, Note_off_c, 1, 65, 0
1, 91970, Note_on_c, 1, 59, 127
1, 92375, Note_off_c, 1, 49, 0
1, 92381, Note_off_c, 1, 59, 0
1, 92385, Note_on_c, 1, 56, 127
1, 92385, Note_on_c, 1, 48, 127
1, 92607, Note_on_c, 1, 65, 127
1, 92825, Note_off_c, 1, 56, 0
1, 92833, Note_off_c, 1, 65, 0
1, 92847, Note_on_c, 1, 55, 127
1, 92847, Note_on_c, 1, 64, 127
1, 92847, Note_on_c, 1, 60, 127
1, 93177, Note_off_c, 1, 48, 0
1, 93342, Note_off_c, 1, 55, 0
1, 93381, Note_off_c, 1, 64, 0
1, 93381, Note_off_c, 1, 60, 0
1, 93435, Note_on_c, 1, 53, 127
1, 93850, Note_on_c, 1, 65, 127
1, 93850, Note_on_c, 1, 68, 127
1, 94260, Note_off_c, 1, 53, 0
1, 94261, Note_off_c, 1, 65, 0
1, 94261, Note_off_c, 1, 68, 0
1, 94264, Note_on_c, 1, 68, 127
1, 94264, Note_on_c, 1, 65, 127
1, 94264, Note_on_c, 1, 58, 127
1, 94675, Note_off_c, 1, 68, 0
1, 94675, Note_off_c, 1, 65, 0
1, 94679, Note_on_c, 1, 67, 127
1, 94679, Note_on_c, 1, 64, 127
1, 95089, Note_off_c, 1, 58, 0
1, 95108, Note_on_c, 1, 61, 127
1, 95282, Note_off_c, 1, 67, 0
1, 95282, Note_off_c, 1, 64, 0
1, 95933, Note_off_c, 1, 61, 0
1, 95937, Note_on_c, 1, 70, 127
1, 95937, Note_on_c, 1, 64, 127
1, 95937, Note_on_c, 1, 55, 127
1, 96141, Note_off_c, 1, 70, 0
1, 96145, Note_on_c, 1, 73, 127
1, 96349, Note_off_c, 1, 73, 0
1, 96352, Note_on_c, 1, 72, 127
1, 96756, Note_off_c, 1, 64, 0
1, 96762, Note_off_c, 1, 55, 0
1, 96783, Note_on_c, 1, 56, 127
1, 96955, Note_off_c, 1, 72, 0
1, 97197, Note_on_c, 1, 65, 127
1, 97608, Note_off_c, 1, 56, 0
1, 97608, Note_off_c, 1, 65, 0
1, 97611, Note_on_c, 1, 70, 127
1, 97611, Note_on_c, 1, 65, 127
1, 97611, Note_on_c, 1, 61, 127
1, 97815, Note_off_c, 1, 70, 0
1, 97818, Note_on_c, 1, 68, 127
1, 98020, Note_off_c, 1, 65, 0
1, 98022, Note_off_c, 1, 61, 0
1, 98022, Note_off_c, 1, 68, 0
1, 98025, Note_on_c, 1, 67, 127
1, 98025, Note_on_c, 1, 58, 127
1, 98229, Note_off_c, 1, 67, 0
1, 98233, Note_on_c, 1, 65, 127
1, 98436, Note_off_c, 1, 58, 0
1, 98437, Note_off_c, 1, 65, 0
1, 98440, Note_on_c, 1, 68, 127
1, 98440, Note_on_c, 1, 60, 127
1, 98644, Note_off_c, 1, 68, 0
1, 98647, Note_on_c, 1, 67, 127
1, 98851, Note_off_c, 1, 60, 0
1, 98851, Note_off_c, 1, 67, 0
1, 98854, Note_on_c, 1, 65, 127
1, 98854, Note_on_c, 1, 58, 127
1, 98854, Note_on_c, 1, 48, 127
1, 99058, Note_off_c, 1, 65, 0
1, 99062, Note_on_c, 1, 64, 127
1, 99265, Note_off_c, 1, 58, 0
1, 99265, Note_off_c, 1, 48, 0
1, 99266, Note_off_c, 1, 64, 0
1, 99269, Note_on_c, 1, 64, 127
1, 99269, Note_on_c, 1, 56, 127
1, 99269, Note_on_c, 1, 49, 127
1, 99473, Note_off_c, 1, 64, 0
1, 99476, Note_on_c, 1, 65, 127
1, 99680, Note_off_c, 1, 65, 0
1, 99683, Note_on_c, 1, 67, 127
1, 99887, Note_off_c, 1, 67, 0
1, 100094, Note_off_c, 1, 56, 0
1, 100094, Note_off_c, 1, 49, 0
1, 100098, Note_on_c, 1, 64, 127
1, 100098, Note_on_c, 1, 61, 127
1, 100302, Note_off_c, 1, 64, 0
1, 100304, Note_on_c, 1, 65, 127
1, 100508, Note_off_c, 1, 65, 0
1, 100509, Note_off_c, 1, 61, 0
1, 100512, Note_on_c, 1, 70, 127
1, 100512, Note_on_c, 1, 49, 127
1, 100719, Note_on_c, 1, 65, 127
1, 100921, Note_off_c, 1, 70, 0
1, 100923, Note_off_c, 1, 49, 0
1, 100923, Note_off_c, 1, 65, 0
1, 100926, Note_on_c, 1, 64, 127
1, 100926, Note_on_c, 1, 48, 127
1, 101130, Note_off_c, 1, 64, 0
1, 101133, Note_on_c, 1, 65, 127
1, 101337, Note_off_c, 1, 48, 0
1, 101337, Note_off_c, 1, 65, 0
1, 101341, Note_on_c, 1, 68, 127
1, 101341, Note_on_c, 1, 60, 127
1, 101548, Note_on_c, 1, 65, 127
1, 101750, Note_off_c, 1, 68, 0
1, 101752, Note_off_c, 1, 60, 0
1, 101752, Note_off_c, 1, 65, 0
1, 101755, Note_on_c, 1, 64, 127
1, 101755, Note_on_c, 1, 58, 127
1, 101959, Note_off_c, 1, 64, 0
1, 101963, Note_on_c, 1, 65, 127
1, 102166, Note_off_c, 1, 58, 0
1, 102167, Note_off_c, 1, 65, 0
1, 102170, Note_on_c, 1, 73, 127
1, 102170, Note_on_c, 1, 46, 127
1, 102377, Note_on_c, 1, 65, 127
1, 102579, Note_off_c, 1, 73, 0
1, 102581, Note_off_c, 1, 46, 0
1, 102581, Note_off_c, 1, 65, 0
1, 102584, Note_on_c, 1, 64, 127
1, 102584, Note_on_c, 1, 44, 127
1, 102788, Note_off_c, 1, 64, 0
1, 102788, Note_off_c, 1, 44, 0
1, 102792, Note_on_c, 1, 65, 127
1, 102792, Note_on_c, 1, 48, 127
1, 102996, Note_off_c, 1, 65, 0
1, 102996, Note_off_c, 1, 48, 0
1, 102999, Note_on_c, 1, 53, 127
1, 102999, Note_on_c, 1, 72, 127
1, 103203, Note_off_c, 1, 53, 0
1, 103205, Note_on_c, 1, 65, 127
1, 103205, Note_on_c, 1, 55, 127
1, 103343, Note_off_c, 1, 72, 0
1, 103409, Note_off_c, 1, 65, 0
1, 103409, Note_off_c, 1, 55, 0
1, 103413, Note_on_c, 1, 63, 127
1, 103413, Note_on_c, 1, 57, 127
1, 103617, Note_off_c, 1, 63, 0
1, 103620, Note_on_c, 1, 65, 127
1, 103824, Note_off_c, 1, 57, 0
1, 103824, Note_off_c, 1, 65, 0
1, 103827, Note_on_c, 1, 69, 127
1, 103827, Note_on_c, 1, 53, 127
1, 104031, Note_off_c, 1, 69, 0
1, 104034, Note_on_c, 1, 72, 127
1, 104238, Note_off_c, 1, 53, 0
1, 104238, Note_off_c, 1, 72, 0
1, 104242, Note_on_c, 1, 72, 127
1, 104242, Note_on_c, 1, 46, 127
1, 104446, Note_off_c, 1, 72, 0
1, 104449, Note_on_c, 1, 69, 127
1, 104653, Note_off_c, 1, 69, 0
1, 104656, Note_on_c, 1, 65, 127
1, 104656, Note_on_c, 1, 56, 127
1, 104860, Note_off_c, 1, 65, 0
1, 104863, Note_on_c, 1, 61, 127
1, 105061, Note_off_c, 1, 46, 0
1, 105067, Note_off_c, 1, 56, 0
1, 105067, Note_off_c, 1, 61, 0
1, 105071, Note_on_c, 1, 61, 127
1, 105071, Note_on_c, 1, 55, 127
1, 105275, Note_off_c, 1, 61, 0
1, 105278, Note_on_c, 1, 63, 127
1, 105482, Note_off_c, 1, 63, 0
1, 105485, Note_on_c, 1, 67, 127
1, 105485, Note_on_c, 1, 51, 127
1, 105689, Note_off_c, 1, 67, 0
1, 105693, Note_on_c, 1, 70, 127
1, 105896, Note_off_c, 1, 51, 0
1, 105897, Note_off_c, 1, 70, 0
1, 105900, Note_on_c, 1, 44, 127
1, 106311, Note_off_c, 1, 55, 0
1, 106521, Note_on_c, 1, 60, 127
1, 106719, Note_off_c, 1, 44, 0
1, 106725, Note_off_c, 1, 60, 0
1, 106728, Note_on_c, 1, 60, 127
1, 106728, Note_on_c, 1, 53, 127
1, 106932, Note_off_c, 1, 60, 0
1, 106935, Note_on_c, 1, 61, 127
1, 107139, Note_off_c, 1, 61, 0
1, 107143, Note_on_c, 1, 65, 127
1, 107143, Note_on_c, 1, 49, 127
1, 107347, Note_off_c, 1, 65, 0
1, 107350, Note_on_c, 1, 68, 127
1, 107554, Note_off_c, 1, 49, 0
1, 107554, Note_off_c, 1, 68, 0
1, 107557, Note_on_c, 1, 43, 127
1, 107968, Note_off_c, 1, 53, 0
1, 108179, Note_on_c, 1, 58, 127
1, 108376, Note_off_c, 1, 43, 0
1, 108383, Note_off_c, 1, 58, 0
1, 108386, Note_on_c, 1, 58, 127
1, 108386, Note_on_c, 1, 52, 127
1, 108590, Note_off_c, 1, 58, 0
1, 108594, Note_on_c, 1, 60, 127
1, 108798, Note_off_c, 1, 60, 0
1, 108800, Note_on_c, 1, 64, 127
1, 108800, Note_on_c, 1, 48, 127
1, 109004, Note_off_c, 1, 64, 0
1, 109007, Note_on_c, 1, 67, 127
1, 109205, Note_off_c, 1, 52, 0
1, 109211, Note_off_c, 1, 48, 0
1, 109211, Note_off_c, 1, 67, 0
1, 109214, Note_on_c, 1, 67, 127
1, 109214, Note_on_c, 1, 41, 127
1, 109418, Note_off_c, 1, 67, 0
1, 109422, Note_on_c, 1, 64, 127
1, 109625, Note_off_c, 1, 41, 0
1, 109626, Note_off_c, 1, 64, 0
1, 109629, Note_on_c, 1, 60, 127
1, 109629, Note_on_c, 1, 44, 127
1, 109836, Note_on_c, 1, 56, 127
1, 109856, Note_off_c, 1, 60, 0
1, 110059, Note_on_c, 1, 48, 127
1, 110060, Note_off_c, 1, 44, 0
1, 110073, Note_off_c, 1, 56, 0
1, 110267, Note_on_c, 1, 65, 127
1, 110470, Note_off_c, 1, 48, 0
1, 110474, Note_on_c, 1, 57, 127
1, 110474, Note_on_c, 1, 51, 127
1, 110676, Note_off_c, 1, 65, 0
1, 110883, Note_off_c, 1, 57, 0
1, 110885, Note_off_c, 1, 51, 0
1, 110895, Note_on_c, 1, 49, 127
1, 111096, Note_on_c, 1, 65, 127
1, 111302, Note_on_c, 1, 58, 127
1, 111302, Note_on_c, 1, 61, 127
1, 111302, Note_on_c, 1, 41, 127
1, 111306, Note_off_c, 1, 49, 0
1, 111505, Note_off_c, 1, 65, 0
1, 111711, Note_off_c, 1, 58, 0
1, 111711, Note_off_c, 1, 61, 0
1, 111713, Note_off_c, 1, 41, 0
1, 111723, Note_on_c, 1, 39, 127
1, 111924, Note_on_c, 1, 69, 127
1, 112131, Note_on_c, 1, 66, 127
1, 112131, Note_on_c, 1, 63, 127
1, 112131, Note_on_c, 1, 48, 127
1, 112134, Note_off_c, 1, 39, 0
1, 112333, Note_off_c, 1, 69, 0
1, 112540, Note_off_c, 1, 66, 0
1, 112540, Note_off_c, 1, 63, 0
1, 112542, Note_off_c, 1, 48, 0
1, 112552, Note_on_c, 1, 46, 127
1, 112753, Note_on_c, 1, 70, 127
1, 112960, Note_on_c, 1, 65, 127
1, 112960, Note_on_c, 1, 58, 127
1, 112960, Note_on_c, 1, 37, 127
1, 112963, Note_off_c, 1, 46, 0
1, 113162, Note_off_c, 1, 70, 0
1, 113369, Note_off_c, 1, 65, 0
1, 113369, Note_off_c, 1, 58, 0
1, 113371, Note_off_c, 1, 37, 0
1, 113381, Note_on_c, 1, 36, 127
1, 113582, Note_on_c, 1, 68, 127
1, 113790, Note_on_c, 1, 48, 127
1, 113790, Note_on_c, 1, 60, 127
1, 113790, Note_on_c, 1, 65, 127
1, 113792, Note_off_c, 1, 36, 0
1, 113991, Note_off_c, 1, 68, 0
1, 114210, Note_off_c, 1, 48, 0
1, 114215, Note_off_c, 1, 60, 0
1, 114215, Note_off_c, 1, 65, 0
1, 114235, Note_on_c, 1, 50, 127
1, 114235, Note_on_c, 1, 47, 127
1, 114235, Note_on_c, 1, 53, 127
1, 114690, Note_on_c, 1, 62, 127
1, 115144, Note_off_c, 1, 50, 0
1, 115144, Note_off_c, 1, 47, 0
1, 115144, Note_off_c, 1, 53, 0
1, 115399, Note_off_c, 1, 62, 0
1, 115401, Note_on_c, 1, 67, 127
1, 115635, Note_off_c, 1, 67, 0
1, 115639, Note_on_c, 1, 58, 127
1, 115877, Note_on_c, 1, 64, 127
1, 116109, Note_off_c, 1, 58, 0
1, 116109, Note_off_c, 1, 64, 0
1, 116111, Note_on_c, 1, 64, 127
1, 116111, Note_on_c, 1, 58, 127
1, 116111, Note_on_c, 1, 53, 127
1, 116719, Note_off_c, 1, 64, 0
1, 116719, Note_off_c, 1, 58, 0
1, 116720, Note_on_c, 1, 65, 127
1, 116720, Note_on_c, 1, 56, 127
1, 119191, Note_off_c, 1, 53, 0
1, 119191, Note_off_c, 1, 65, 0
1, 119191, Note_off_c, 1, 56, 0
1, 119379, Note_on_c, 1, 72, 127
1, 119701, Note_off_c, 1, 72, 0
1, 119704, Note_on_c, 1, 65, 127
1, 120026, Note_off_c, 1, 65, 0
1, 120030, Note_on_c, 1, 65, 127
1, 120352, Note_off_c, 1, 65, 0
1, 120356, Note_on_c, 1, 65, 127
1, 120678, Note_off_c, 1, 65, 0
1, 120682, Note_on_c, 1, 73, 127
1, 120841, Note_off_c, 1, 73, 0
1, 120844, Note_on_c, 1, 70, 127
1, 121003, Note_off_c, 1, 70, 0
1, 121005, Note_on_c, 1, 64, 127
1, 121327, Note_off_c, 1, 64, 0
1, 121331, Note_on_c, 1, 64, 127
1, 121653, Note_off_c, 1, 64, 0
1, 121657, Note_on_c, 1, 64, 127
1, 121816, Note_off_c, 1, 64, 0
1, 121819, Note_on_c, 1, 65, 127
1, 121978, Note_off_c, 1, 65, 0
1, 121981, Note_on_c, 1, 67, 127
1, 122140, Note_off_c, 1, 67, 0
1, 122143, Note_on_c, 1, 68, 127
1, 122302, Note_off_c, 1, 68, 0
1, 122304, Note_on_c, 1, 70, 127
1, 122463, Note_off_c, 1, 70, 0
1, 122467, Note_on_c, 1, 68, 127
1, 122626, Note_off_c, 1, 68, 0
1, 122628, Note_on_c, 1, 67, 127
1, 122787, Note_off_c, 1, 67, 0
1, 122791, Note_on_c, 1, 68, 127
1, 122950, Note_off_c, 1, 68, 0
1, 122953, Note_on_c, 1, 70, 127
1, 123112, Note_off_c, 1, 70, 0
1, 123113, Note_on_c, 1, 73, 127
1, 123272, Note_off_c, 1, 73, 0
1, 123276, Note_on_c, 1, 72, 127
1, 123435, Note_off_c, 1, 72, 0
1, 123437, Note_on_c, 1, 70, 127
1, 123596, Note_off_c, 1, 70, 0
1, 123600, Note_on_c, 1, 68, 127
1, 123759, Note_off_c, 1, 68, 0
1, 123762, Note_on_c, 1, 67, 127
1, 123921, Note_off_c, 1, 67, 0
1, 123923, Note_on_c, 1, 65, 127
1, 124082, Note_off_c, 1, 65, 0
1, 124086, Note_on_c, 1, 67, 127
1, 124245, Note_off_c, 1, 67, 0
1, 124247, Note_on_c, 1, 68, 127
1, 124406, Note_off_c, 1, 68, 0
1, 124409, Note_on_c, 1, 70, 127
1, 124568, Note_off_c, 1, 70, 0
1, 124571, Note_on_c, 1, 72, 127
1, 124571, Note_on_c, 1, 65, 127
1, 124730, Note_off_c, 1, 72, 0
1, 124733, Note_on_c, 1, 74, 127
1, 124891, Note_off_c, 1, 65, 0
1, 124892, Note_off_c, 1, 74, 0
1, 124896, Note_on_c, 1, 75, 127
1, 124896, Note_on_c, 1, 60, 127
1, 125055, Note_off_c, 1, 75, 0
1, 125057, Note_on_c, 1, 74, 127
1, 125216, Note_off_c, 1, 60, 0
1, 125216, Note_off_c, 1, 74, 0
1, 125218, Note_on_c, 1, 72, 127
1, 125218, Note_on_c, 1, 60, 127
1, 125377, Note_off_c, 1, 72, 0
1, 125380, Note_on_c, 1, 74, 127
1, 125538, Note_off_c, 1, 60, 0
1, 125539, Note_off_c, 1, 74, 0
1, 125542, Note_on_c, 1, 75, 127
1, 125542, Note_on_c, 1, 60, 127
1, 125701, Note_off_c, 1, 75, 0
1, 125703, Note_on_c, 1, 79, 127
1, 125862, Note_off_c, 1, 60, 0
1, 125862, Note_off_c, 1, 79, 0
1, 125866, Note_on_c, 1, 68, 127
1, 125866, Note_on_c, 1, 77, 127
1, 126025, Note_off_c, 1, 68, 0
1, 126025, Note_off_c, 1, 77, 0
1, 126028, Note_on_c, 1, 65, 127
1, 126028, Note_on_c, 1, 75, 127
1, 126187, Note_off_c, 1, 65, 0
1, 126187, Note_off_c, 1, 75, 0
1, 126190, Note_on_c, 1, 74, 127
1, 126190, Note_on_c, 1, 59, 127
1, 126349, Note_off_c, 1, 74, 0
1, 126352, Note_on_c, 1, 72, 127
1, 126510, Note_off_c, 1, 59, 0
1, 126511, Note_off_c, 1, 72, 0
1, 126513, Note_on_c, 1, 71, 127
1, 126513, Note_on_c, 1, 59, 127
1, 126672, Note_off_c, 1, 71, 0
1, 126676, Note_on_c, 1, 69, 127
1, 126833, Note_off_c, 1, 59, 0
1, 126835, Note_off_c, 1, 69, 0
1, 126838, Note_on_c, 1, 59, 127
1, 126838, Note_on_c, 1, 67, 127
1, 126997, Note_off_c, 1, 59, 0
1, 126997, Note_off_c, 1, 67, 0
1, 127000, Note_on_c, 1, 60, 127
1, 127000, Note_on_c, 1, 69, 127
1, 127159, Note_off_c, 1, 60, 0
1, 127159, Note_off_c, 1, 69, 0
1, 127161, Note_on_c, 1, 62, 127
1, 127161, Note_on_c, 1, 71, 127
1, 127320, Note_off_c, 1, 62, 0
1, 127320, Note_off_c, 1, 71, 0
1, 127322, Note_on_c, 1, 63, 127
1, 127322, Note_on_c, 1, 72, 127
1, 127481, Note_off_c, 1, 63, 0
1, 127481, Note_off_c, 1, 72, 0
1, 127485, Note_on_c, 1, 65, 127
1, 127485, Note_on_c, 1, 74, 127
1, 127644, Note_off_c, 1, 65, 0
1, 127646, Note_on_c, 1, 63, 127
1, 127805, Note_off_c, 1, 74, 0
1, 127805, Note_off_c, 1, 63, 0
1, 127808, Note_on_c, 1, 62, 127
1, 127808, Note_on_c, 1, 77, 127
1, 127967, Note_off_c, 1, 62, 0
1, 127971, Note_on_c, 1, 63, 127
1, 128128, Note_off_c, 1, 77, 0
1, 128130, Note_off_c, 1, 63, 0
1, 128132, Note_on_c, 1, 65, 127
1, 128132, Note_on_c, 1, 80, 127
1, 128291, Note_off_c, 1, 65, 0
1, 128295, Note_on_c, 1, 68, 127
1, 128452, Note_off_c, 1, 80, 0
1, 128454, Note_off_c, 1, 68, 0
1, 128456, Note_on_c, 1, 67, 127
1, 128456, Note_on_c, 1, 71, 127
1, 128615, Note_off_c, 1, 67, 0
1, 128618, Note_on_c, 1, 65, 127
1, 128776, Note_off_c, 1, 71, 0
1, 128777, Note_off_c, 1, 65, 0
1, 128781, Note_on_c, 1, 63, 127
1, 128781, Note_on_c, 1, 72, 127
1, 128940, Note_off_c, 1, 63, 0
1, 128942, Note_on_c, 1, 62, 127
1, 129101, Note_off_c, 1, 72, 0
1, 129101, Note_off_c, 1, 62, 0
1, 129103, Note_on_c, 1, 60, 127
1, 129103, Note_on_c, 1, 75, 127
1, 129262, Note_off_c, 1, 60, 0
1, 129265, Note_on_c, 1, 62, 127
1, 129423, Note_off_c, 1, 75, 0
1, 129424, Note_off_c, 1, 62, 0
1, 129427, Note_on_c, 1, 63, 127
1, 129427, Note_on_c, 1, 79, 127
1, 129586, Note_off_c, 1, 63, 0
1, 129589, Note_on_c, 1, 65, 127
1, 129747, Note_off_c, 1, 79, 0
1, 129748, Note_off_c, 1, 65, 0
1, 129751, Note_on_c, 1, 67, 127
1, 129751, Note_on_c, 1, 84, 127
1, 129910, Note_off_c, 1, 67, 0
1, 129913, Note_on_c, 1, 69, 127
1, 130071, Note_off_c, 1, 84, 0
1, 130072, Note_off_c, 1, 69, 0
1, 130075, Note_on_c, 1, 70, 127
1, 130075, Note_on_c, 1, 73, 127
1, 130234, Note_off_c, 1, 70, 0
1, 130237, Note_on_c, 1, 68, 127
1, 130395, Note_off_c, 1, 73, 0
1, 130396, Note_off_c, 1, 68, 0
1, 130399, Note_on_c, 1, 67, 127
1, 130399, Note_on_c, 1, 84, 127
1, 130558, Note_off_c, 1, 67, 0
1, 130561, Note_on_c, 1, 65, 127
1, 130719, Note_off_c, 1, 84, 0
1, 130720, Note_off_c, 1, 65, 0
1, 130722, Note_on_c, 1, 67, 127
1, 130722, Note_on_c, 1, 82, 127
1, 130881, Note_off_c, 1, 67, 0
1, 130885, Note_on_c, 1, 70, 127
1, 131042, Note_off_c, 1, 82, 0
1, 131044, Note_off_c, 1, 70, 0
1, 131047, Note_on_c, 1, 68, 127
1, 131047, Note_on_c, 1, 73, 127
1, 131206, Note_off_c, 1, 68, 0
1, 131207, Note_on_c, 1, 67, 127
1, 131366, Note_off_c, 1, 67, 0
1, 131367, Note_off_c, 1, 73, 0
1, 131370, Note_on_c, 1, 68, 127
1, 131370, Note_on_c, 1, 72, 127
1, 131529, Note_off_c, 1, 68, 0
1, 131531, Note_on_c, 1, 70, 127
1, 131690, Note_off_c, 1, 72, 0
1, 131690, Note_off_c, 1, 70, 0
1, 131694, Note_on_c, 1, 72, 127
1, 131694, Note_on_c, 1, 75, 127
1, 131853, Note_off_c, 1, 72, 0
1, 131856, Note_on_c, 1, 70, 127
1, 132014, Note_off_c, 1, 75, 0
1, 132015, Note_off_c, 1, 70, 0
1, 132017, Note_on_c, 1, 68, 127
1, 132017, Note_on_c, 1, 80, 127
1, 132176, Note_off_c, 1, 68, 0
1, 132180, Note_on_c, 1, 67, 127
1, 132337, Note_off_c, 1, 80, 0
1, 132339, Note_off_c, 1, 67, 0
1, 132341, Note_on_c, 1, 65, 127
1, 132341, Note_on_c, 1, 72, 127
1, 132500, Note_off_c, 1, 65, 0
1, 132503, Note_on_c, 1, 63, 127
1, 132661, Note_off_c, 1, 72, 0
1, 132662, Note_off_c, 1, 63, 0
1, 132665, Note_on_c, 1, 62, 127
1, 132665, Note_on_c, 1, 70, 127
1, 132824, Note_off_c, 1, 62, 0
1, 132827, Note_on_c, 1, 65, 127
1, 132985, Note_off_c, 1, 70, 0
1, 132986, Note_off_c, 1, 65, 0
1, 132990, Note_on_c, 1, 64, 127
1, 132990, Note_on_c, 1, 80, 127
1, 133149, Note_off_c, 1, 64, 0
1, 133151, Note_on_c, 1, 62, 127
1, 133310, Note_off_c, 1, 80, 0
1, 133310, Note_off_c, 1, 62, 0
1, 133312, Note_on_c, 1, 64, 127
1, 133312, Note_on_c, 1, 79, 127
1, 133471, Note_off_c, 1, 64, 0
1, 133474, Note_on_c, 1, 67, 127
1, 133632, Note_off_c, 1, 79, 0
1, 133633, Note_off_c, 1, 67, 0
1, 133636, Note_on_c, 1, 65, 127
1, 133636, Note_on_c, 1, 60, 127
1, 133636, Note_on_c, 1, 70, 127
1, 133795, Note_off_c, 1, 65, 0
1, 133798, Note_on_c, 1, 64, 127
1, 133956, Note_off_c, 1, 60, 0
1, 133956, Note_off_c, 1, 70, 0
1, 133957, Note_off_c, 1, 64, 0
1, 133960, Note_on_c, 1, 68, 127
1, 133960, Note_on_c, 1, 53, 127
1, 133960, Note_on_c, 1, 65, 127
1, 134119, Note_off_c, 1, 68, 0
1, 134122, Note_on_c, 1, 72, 127
1, 134280, Note_off_c, 1, 53, 0
1, 134281, Note_off_c, 1, 72, 0
1, 134284, Note_on_c, 1, 77, 127
1, 134443, Note_off_c, 1, 77, 0
1, 134446, Note_on_c, 1, 75, 127
1, 134600, Note_off_c, 1, 65, 0
1, 134606, Note_off_c, 1, 75, 0
1, 134610, Note_on_c, 1, 53, 127
1, 134610, Note_on_c, 1, 73, 127
1, 134772, Note_on_c, 1, 72, 127
1, 134930, Note_off_c, 1, 53, 0
1, 134931, Note_off_c, 1, 72, 0
1, 134933, Note_on_c, 1, 61, 127
1, 134933, Note_on_c, 1, 70, 127
1, 135092, Note_off_c, 1, 61, 0
1, 135092, Note_off_c, 1, 70, 0
1, 135095, Note_on_c, 1, 58, 127
1, 135095, Note_on_c, 1, 68, 127
1, 135254, Note_off_c, 1, 58, 0
1, 135254, Note_off_c, 1, 68, 0
1, 135257, Note_on_c, 1, 52, 127
1, 135257, Note_on_c, 1, 67, 127
1, 135415, Note_off_c, 1, 73, 0
1, 135577, Note_off_c, 1, 52, 0
1, 135897, Note_off_c, 1, 67, 0
1, 135906, Note_on_c, 1, 52, 127
1, 135906, Note_on_c, 1, 67, 127
1, 136065, Note_off_c, 1, 52, 0
1, 136069, Note_on_c, 1, 53, 127
1, 136069, Note_on_c, 1, 65, 127
1, 136228, Note_off_c, 1, 53, 0
1, 136228, Note_off_c, 1, 65, 0
1, 136231, Note_on_c, 1, 55, 127
1, 136231, Note_on_c, 1, 64, 127
1, 136390, Note_off_c, 1, 55, 0
1, 136390, Note_off_c, 1, 64, 0
1, 136393, Note_on_c, 1, 56, 127
1, 136393, Note_on_c, 1, 62, 127
1, 136552, Note_off_c, 1, 56, 0
1, 136552, Note_off_c, 1, 62, 0
1, 136554, Note_on_c, 1, 58, 127
1, 136713, Note_off_c, 1, 58, 0
1, 136874, Note_off_c, 1, 67, 0
1, 136878, Note_on_c, 1, 73, 127
1, 137198, Note_off_c, 1, 73, 0
1, 137201, Note_on_c, 1, 72, 127
1, 137364, Note_on_c, 1, 61, 127
1, 137523, Note_off_c, 1, 61, 0
1, 137525, Note_on_c, 1, 60, 127
1, 137684, Note_off_c, 1, 60, 0
1, 138169, Note_off_c, 1, 72, 0
1, 138658, Note_on_c, 1, 68, 127
1, 138817, Note_off_c, 1, 68, 0
1, 139468, Note_on_c, 1, 52, 127
1, 139468, Note_on_c, 1, 73, 127
1, 139468, Note_on_c, 1, 70, 127
1, 139627, Note_off_c, 1, 52, 0
1, 139630, Note_on_c, 1, 53, 127
1, 139788, Note_off_c, 1, 73, 0
1, 139789, Note_off_c, 1, 53, 0
1, 139792, Note_on_c, 1, 55, 127
1, 139792, Note_on_c, 1, 72, 127
1, 139950, Note_off_c, 1, 70, 0
1, 139951, Note_off_c, 1, 55, 0
1, 139954, Note_on_c, 1, 58, 127
1, 139954, Note_on_c, 1, 67, 127
1, 140113, Note_off_c, 1, 58, 0
1, 140113, Note_off_c, 1, 67, 0
1, 140115, Note_on_c, 1, 56, 127
1, 140115, Note_on_c, 1, 65, 127
1, 140274, Note_off_c, 1, 56, 0
1, 140274, Note_off_c, 1, 65, 0
1, 140278, Note_on_c, 1, 64, 127
1, 140437, Note_off_c, 1, 64, 0
1, 140440, Note_on_c, 1, 68, 127
1, 140760, Note_off_c, 1, 72, 0
1, 140760, Note_off_c, 1, 68, 0
1, 140763, Note_on_c, 1, 60, 127
1, 140763, Note_on_c, 1, 68, 127
1, 140763, Note_on_c, 1, 72, 127
1, 140922, Note_off_c, 1, 60, 0
1, 140924, Note_on_c, 1, 65, 127
1, 141083, Note_off_c, 1, 68, 0
1, 141083, Note_off_c, 1, 72, 0
1, 141083, Note_off_c, 1, 65, 0
1, 141087, Note_on_c, 1, 60, 127
1, 141087, Note_on_c, 1, 72, 127
1, 141087, Note_on_c, 1, 68, 127
1, 141246, Note_off_c, 1, 60, 0
1, 141249, Note_on_c, 1, 56, 127
1, 141407, Note_off_c, 1, 72, 0
1, 141408, Note_off_c, 1, 56, 0
1, 141410, Note_on_c, 1, 53, 127
1, 141410, Note_on_c, 1, 80, 127
1, 141569, Note_off_c, 1, 53, 0
1, 141730, Note_off_c, 1, 80, 0
1, 141734, Note_on_c, 1, 70, 127
1, 141734, Note_on_c, 1, 49, 127
1, 141893, Note_off_c, 1, 70, 0
1, 142054, Note_off_c, 1, 49, 0
1, 142058, Note_on_c, 1, 73, 127
1, 142217, Note_off_c, 1, 73, 0
1, 142705, Note_on_c, 1, 46, 127
1, 143025, Note_off_c, 1, 46, 0
1, 143026, Note_off_c, 1, 68, 0
1, 143029, Note_on_c, 1, 51, 127
1, 143029, Note_on_c, 1, 67, 127
1, 143029, Note_on_c, 1, 70, 127
1, 143188, Note_off_c, 1, 51, 0
1, 143191, Note_on_c, 1, 55, 127
1, 143349, Note_off_c, 1, 67, 0
1, 143349, Note_off_c, 1, 70, 0
1, 143350, Note_off_c, 1, 55, 0
1, 143353, Note_on_c, 1, 58, 127
1, 143353, Note_on_c, 1, 67, 127
1, 143353, Note_on_c, 1, 70, 127
1, 143512, Note_off_c, 1, 58, 0
1, 143515, Note_on_c, 1, 63, 127
1, 143673, Note_off_c, 1, 67, 0
1, 143673, Note_off_c, 1, 70, 0
1, 143674, Note_off_c, 1, 63, 0
1, 143677, Note_on_c, 1, 58, 127
1, 143677, Note_on_c, 1, 70, 127
1, 143677, Note_on_c, 1, 67, 127
1, 143836, Note_off_c, 1, 58, 0
1, 143839, Note_on_c, 1, 55, 127
1, 143997, Note_off_c, 1, 70, 0
1, 143998, Note_off_c, 1, 55, 0
1, 144000, Note_on_c, 1, 51, 127
1, 144000, Note_on_c, 1, 79, 127
1, 144159, Note_off_c, 1, 51, 0
1, 144320, Note_off_c, 1, 79, 0
1, 144325, Note_on_c, 1, 68, 127
1, 144325, Note_on_c, 1, 48, 127
1, 144484, Note_off_c, 1, 68, 0
1, 144645, Note_off_c, 1, 48, 0
1, 144648, Note_on_c, 1, 72, 127
1, 144807, Note_off_c, 1, 72, 0
1, 145296, Note_on_c, 1, 44, 127
1, 145616, Note_off_c, 1, 67, 0
1, 145616, Note_off_c, 1, 44, 0
1, 145619, Note_on_c, 1, 49, 127
1, 145619, Note_on_c, 1, 65, 127
1, 145619, Note_on_c, 1, 68, 127
1, 145778, Note_off_c, 1, 49, 0
1, 145782, Note_on_c, 1, 51, 127
1, 145939, Note_off_c, 1, 65, 0
1, 145939, Note_off_c, 1, 68, 0
1, 145941, Note_off_c, 1, 51, 0
1, 145943, Note_on_c, 1, 53, 127
1, 145943, Note_on_c, 1, 65, 127
1, 145943, Note_on_c, 1, 68, 127
1, 146102, Note_off_c, 1, 53, 0
1, 146105, Note_on_c, 1, 51, 127
1, 146263, Note_off_c, 1, 65, 0
1, 146263, Note_off_c, 1, 68, 0
1, 146264, Note_off_c, 1, 51, 0
1, 146268, Note_on_c, 1, 49, 127
1, 146268, Note_on_c, 1, 68, 127
1, 146268, Note_on_c, 1, 65, 127
1, 146427, Note_off_c, 1, 49, 0
1, 146429, Note_on_c, 1, 48, 127
1, 146588, Note_off_c, 1, 68, 0
1, 146588, Note_off_c, 1, 48, 0
1, 146592, Note_on_c, 1, 46, 127
1, 146592, Note_on_c, 1, 73, 127
1, 146751, Note_off_c, 1, 46, 0
1, 146752, Note_on_c, 1, 44, 127
1, 146911, Note_off_c, 1, 44, 0
1, 146912, Note_off_c, 1, 65, 0
1, 146914, Note_on_c, 1, 43, 127
1, 146914, Note_on_c, 1, 63, 127
1, 147074, Note_off_c, 1, 73, 0
1, 147234, Note_off_c, 1, 43, 0
1, 147238, Note_on_c, 1, 67, 127
1, 147397, Note_off_c, 1, 67, 0
1, 147562, Note_on_c, 1, 70, 127
1, 147721, Note_off_c, 1, 70, 0
1, 147724, Note_on_c, 1, 72, 127
1, 147883, Note_off_c, 1, 72, 0
1, 147886, Note_on_c, 1, 39, 127
1, 148206, Note_off_c, 1, 63, 0
1, 148206, Note_off_c, 1, 39, 0
1, 148209, Note_on_c, 1, 72, 127
1, 148209, Note_on_c, 1, 44, 127
1, 148368, Note_off_c, 1, 72, 0
1, 148372, Note_on_c, 1, 73, 127
1, 148529, Note_off_c, 1, 44, 0
1, 148531, Note_off_c, 1, 73, 0
1, 148534, Note_on_c, 1, 70, 127
1, 148534, Note_on_c, 1, 43, 127
1, 148693, Note_off_c, 1, 70, 0
1, 148696, Note_on_c, 1, 72, 127
1, 148854, Note_off_c, 1, 43, 0
1, 148855, Note_off_c, 1, 72, 0
1, 148857, Note_on_c, 1, 73, 127
1, 148857, Note_on_c, 1, 41, 127
1, 149016, Note_off_c, 1, 73, 0
1, 149018, Note_on_c, 1, 72, 127
1, 149177, Note_off_c, 1, 41, 0
1, 149177, Note_off_c, 1, 72, 0
1, 149181, Note_on_c, 1, 70, 127
1, 149181, Note_on_c, 1, 50, 127
1, 149340, Note_off_c, 1, 70, 0
1, 149343, Note_on_c, 1, 68, 127
1, 149501, Note_off_c, 1, 50, 0
1, 149502, Note_off_c, 1, 68, 0
1, 149504, Note_on_c, 1, 67, 127
1, 149504, Note_on_c, 1, 51, 127
1, 149663, Note_off_c, 1, 67, 0
1, 149667, Note_on_c, 1, 68, 127
1, 149824, Note_off_c, 1, 51, 0
1, 149826, Note_off_c, 1, 68, 0
1, 149828, Note_on_c, 1, 70, 127
1, 149828, Note_on_c, 1, 39, 127
1, 149987, Note_off_c, 1, 70, 0
1, 149991, Note_on_c, 1, 67, 127
1, 150150, Note_off_c, 1, 67, 0
1, 150152, Note_on_c, 1, 63, 127
1, 150232, Note_off_c, 1, 39, 0
1, 150316, Note_on_c, 1, 61, 127
1, 150474, Note_off_c, 1, 63, 0
1, 150475, Note_off_c, 1, 61, 0
1, 150478, Note_on_c, 1, 60, 127
1, 150478, Note_on_c, 1, 75, 127
1, 150637, Note_off_c, 1, 60, 0
1, 150639, Note_on_c, 1, 58, 127
1, 150798, Note_off_c, 1, 75, 0
1, 150798, Note_off_c, 1, 58, 0
1, 150801, Note_on_c, 1, 60, 127
1, 150801, Note_on_c, 1, 68, 127
1, 150960, Note_off_c, 1, 60, 0
1, 150964, Note_on_c, 1, 63, 127
1, 151121, Note_off_c, 1, 68, 0
1, 151123, Note_off_c, 1, 63, 0
1, 151125, Note_on_c, 1, 60, 127
1, 151125, Note_on_c, 1, 68, 127
1, 151284, Note_off_c, 1, 60, 0
1, 151288, Note_on_c, 1, 56, 127
1, 151445, Note_off_c, 1, 68, 0
1, 151447, Note_off_c, 1, 56, 0
1, 151449, Note_on_c, 1, 53, 127
1, 151449, Note_on_c, 1, 68, 127
1, 151608, Note_off_c, 1, 53, 0
1, 151611, Note_on_c, 1, 63, 127
1, 151769, Note_off_c, 1, 68, 0
1, 151770, Note_off_c, 1, 63, 0
1, 151773, Note_on_c, 1, 61, 127
1, 151773, Note_on_c, 1, 77, 127
1, 151932, Note_off_c, 1, 61, 0
1, 151932, Note_off_c, 1, 77, 0
1, 151935, Note_on_c, 1, 60, 127
1, 151935, Note_on_c, 1, 73, 127
1, 152094, Note_off_c, 1, 60, 0
1, 152094, Note_off_c, 1, 73, 0
1, 152098, Note_on_c, 1, 58, 127
1, 152098, Note_on_c, 1, 67, 127
1, 152257, Note_off_c, 1, 58, 0
1, 152259, Note_on_c, 1, 61, 127
1, 152418, Note_off_c, 1, 67, 0
1, 152418, Note_off_c, 1, 61, 0
1, 152420, Note_on_c, 1, 58, 127
1, 152420, Note_on_c, 1, 67, 127
1, 152579, Note_off_c, 1, 58, 0
1, 152582, Note_on_c, 1, 55, 127
1, 152740, Note_off_c, 1, 67, 0
1, 152741, Note_off_c, 1, 55, 0
1, 152744, Note_on_c, 1, 51, 127
1, 152744, Note_on_c, 1, 67, 127
1, 152903, Note_off_c, 1, 51, 0
1, 152903, Note_off_c, 1, 67, 0
1, 152905, Note_on_c, 1, 60, 127
1, 152905, Note_on_c, 1, 68, 127
1, 153064, Note_off_c, 1, 60, 0
1, 153064, Note_off_c, 1, 68, 0
1, 153068, Note_on_c, 1, 58, 127
1, 153068, Note_on_c, 1, 70, 127
1, 153227, Note_off_c, 1, 58, 0
1, 153227, Note_off_c, 1, 70, 0
1, 153230, Note_on_c, 1, 56, 127
1, 153230, Note_on_c, 1, 72, 127
1, 153389, Note_off_c, 1, 56, 0
1, 153389, Note_off_c, 1, 72, 0
1, 153392, Note_on_c, 1, 55, 127
1, 153392, Note_on_c, 1, 73, 127
1, 153551, Note_off_c, 1, 55, 0
1, 153551, Note_off_c, 1, 73, 0
1, 153554, Note_on_c, 1, 56, 127
1, 153554, Note_on_c, 1, 72, 127
1, 153713, Note_off_c, 1, 56, 0
1, 153713, Note_off_c, 1, 72, 0
1, 153715, Note_on_c, 1, 55, 127
1, 153715, Note_on_c, 1, 70, 127
1, 153874, Note_off_c, 1, 55, 0
1, 153874, Note_off_c, 1, 70, 0
1, 153878, Note_on_c, 1, 53, 127
1, 153878, Note_on_c, 1, 72, 127
1, 154037, Note_off_c, 1, 53, 0
1, 154037, Note_off_c, 1, 72, 0
1, 154040, Note_on_c, 1, 51, 127
1, 154040, Note_on_c, 1, 73, 127
1, 154199, Note_off_c, 1, 51, 0
1, 154199, Note_off_c, 1, 73, 0
1, 154201, Note_on_c, 1, 49, 127
1, 154201, Note_on_c, 1, 77, 127
1, 154360, Note_off_c, 1, 49, 0
1, 154360, Note_off_c, 1, 77, 0
1, 154364, Note_on_c, 1, 48, 127
1, 154364, Note_on_c, 1, 75, 127
1, 154523, Note_off_c, 1, 48, 0
1, 154523, Note_off_c, 1, 75, 0
1, 154524, Note_on_c, 1, 46, 127
1, 154524, Note_on_c, 1, 73, 127
1, 154683, Note_off_c, 1, 46, 0
1, 154683, Note_off_c, 1, 73, 0
1, 154687, Note_on_c, 1, 72, 127
1, 154687, Note_on_c, 1, 44, 127
1, 154846, Note_off_c, 1, 72, 0
1, 154848, Note_on_c, 1, 70, 127
1, 155007, Note_off_c, 1, 44, 0
1, 155007, Note_off_c, 1, 70, 0
1, 155010, Note_on_c, 1, 68, 127
1, 155010, Note_on_c, 1, 56, 127
1, 155169, Note_off_c, 1, 68, 0
1, 155173, Note_on_c, 1, 67, 127
1, 155330, Note_off_c, 1, 56, 0
1, 155332, Note_off_c, 1, 67, 0
1, 155334, Note_on_c, 1, 68, 127
1, 155334, Note_on_c, 1, 55, 127
1, 155493, Note_off_c, 1, 68, 0
1, 155497, Note_on_c, 1, 70, 127
1, 155654, Note_off_c, 1, 55, 0
1, 155656, Note_off_c, 1, 70, 0
1, 155658, Note_on_c, 1, 72, 127
1, 155658, Note_on_c, 1, 53, 127
1, 155658, Note_on_c, 1, 68, 127
1, 155817, Note_off_c, 1, 72, 0
1, 155820, Note_on_c, 1, 74, 127
1, 155978, Note_off_c, 1, 53, 0
1, 155978, Note_off_c, 1, 68, 0
1, 155979, Note_off_c, 1, 74, 0
1, 155982, Note_on_c, 1, 60, 127
1, 155982, Note_on_c, 1, 63, 127
1, 155982, Note_on_c, 1, 75, 127
1, 156141, Note_off_c, 1, 60, 0
1, 156144, Note_on_c, 1, 58, 127
1, 156302, Note_off_c, 1, 63, 0
1, 156303, Note_off_c, 1, 58, 0
1, 156468, Note_on_c, 1, 61, 127
1, 156627, Note_off_c, 1, 61, 0
1, 156950, Note_off_c, 1, 75, 0
1, 156953, Note_on_c, 1, 56, 127
1, 156953, Note_on_c, 1, 72, 127
1, 156953, Note_on_c, 1, 75, 127
1, 157112, Note_off_c, 1, 56, 0
1, 157112, Note_off_c, 1, 72, 0
1, 157115, Note_on_c, 1, 55, 127
1, 157115, Note_on_c, 1, 68, 127
1, 157273, Note_off_c, 1, 75, 0
1, 157274, Note_off_c, 1, 55, 0
1, 157274, Note_off_c, 1, 68, 0
1, 157277, Note_on_c, 1, 80, 127
1, 157277, Note_on_c, 1, 62, 127
1, 157277, Note_on_c, 1, 53, 127
1, 157436, Note_off_c, 1, 80, 0
1, 157439, Note_on_c, 1, 79, 127
1, 157597, Note_off_c, 1, 62, 0
1, 157598, Note_off_c, 1, 79, 0
1, 157763, Note_on_c, 1, 82, 127
1, 157921, Note_off_c, 1, 53, 0
1, 157922, Note_off_c, 1, 82, 0
1, 157924, Note_on_c, 1, 62, 127
1, 157924, Note_on_c, 1, 80, 127
1, 157924, Note_on_c, 1, 58, 127
1, 158083, Note_off_c, 1, 62, 0
1, 158083, Note_off_c, 1, 80, 0
1, 158087, Note_on_c, 1, 63, 127
1, 158087, Note_on_c, 1, 79, 127
1, 158246, Note_off_c, 1, 63, 0
1, 158246, Note_off_c, 1, 79, 0
1, 158249, Note_on_c, 1, 65, 127
1, 158249, Note_on_c, 1, 77, 127
1, 158408, Note_off_c, 1, 65, 0
1, 158408, Note_off_c, 1, 77, 0
1, 158410, Note_on_c, 1, 67, 127
1, 158410, Note_on_c, 1, 75, 127
1, 158569, Note_off_c, 1, 67, 0
1, 158569, Note_off_c, 1, 75, 0
1, 158572, Note_on_c, 1, 68, 127
1, 158572, Note_on_c, 1, 74, 127
1, 158731, Note_off_c, 1, 68, 0
1, 158892, Note_off_c, 1, 58, 0
1, 158896, Note_on_c, 1, 56, 127
1, 159055, Note_off_c, 1, 56, 0
1, 159058, Note_on_c, 1, 55, 127
1, 159217, Note_off_c, 1, 55, 0
1, 159219, Note_on_c, 1, 53, 127
1, 159378, Note_off_c, 1, 53, 0
1, 159382, Note_on_c, 1, 51, 127
1, 159382, Note_on_c, 1, 72, 127
1, 159541, Note_off_c, 1, 51, 0
1, 159541, Note_off_c, 1, 72, 0
1, 159543, Note_on_c, 1, 50, 127
1, 159543, Note_on_c, 1, 70, 127
1, 159702, Note_off_c, 1, 50, 0
1, 159702, Note_off_c, 1, 70, 0
1, 159705, Note_on_c, 1, 48, 127
1, 159864, Note_off_c, 1, 48, 0
1, 159867, Note_on_c, 1, 47, 127
1, 160026, Note_off_c, 1, 74, 0
1, 160187, Note_off_c, 1, 47, 0
1, 160192, Note_on_c, 1, 71, 127
1, 160351, Note_off_c, 1, 71, 0
1, 160838, Note_on_c, 1, 43, 127
1, 161158, Note_off_c, 1, 43, 0
1, 161486, Note_on_c, 1, 55, 127
1, 161486, Note_on_c, 1, 67, 127
1, 161486, Note_on_c, 1, 75, 127
1, 161645, Note_off_c, 1, 55, 0
1, 161648, Note_on_c, 1, 60, 127
1, 161806, Note_off_c, 1, 67, 0
1, 161806, Note_off_c, 1, 75, 0
1, 161807, Note_off_c, 1, 60, 0
1, 161809, Note_on_c, 1, 55, 127
1, 161809, Note_on_c, 1, 75, 127
1, 161809, Note_on_c, 1, 67, 127
1, 161968, Note_off_c, 1, 55, 0
1, 161972, Note_on_c, 1, 51, 127
1, 162129, Note_off_c, 1, 75, 0
1, 162131, Note_off_c, 1, 51, 0
1, 162134, Note_on_c, 1, 48, 127
1, 162293, Note_off_c, 1, 48, 0
1, 162453, Note_off_c, 1, 67, 0
1, 162458, Note_on_c, 1, 65, 127
1, 162458, Note_on_c, 1, 44, 127
1, 162617, Note_off_c, 1, 65, 0
1, 162778, Note_off_c, 1, 44, 0
1, 162781, Note_on_c, 1, 68, 127
1, 162940, Note_off_c, 1, 68, 0
1, 163428, Note_on_c, 1, 41, 127
1, 163748, Note_off_c, 1, 41, 0
1, 163752, Note_on_c, 1, 46, 127
1, 163752, Note_on_c, 1, 65, 127
1, 163752, Note_on_c, 1, 74, 127
1, 163911, Note_off_c, 1, 46, 0
1, 163914, Note_on_c, 1, 50, 127
1, 164072, Note_off_c, 1, 65, 0
1, 164072, Note_off_c, 1, 74, 0
1, 164073, Note_off_c, 1, 50, 0
1, 164076, Note_on_c, 1, 53, 127
1, 164076, Note_on_c, 1, 65, 127
1, 164076, Note_on_c, 1, 74, 127
1, 164235, Note_off_c, 1, 53, 0
1, 164238, Note_on_c, 1, 58, 127
1, 164396, Note_off_c, 1, 65, 0
1, 164396, Note_off_c, 1, 74, 0
1, 164397, Note_off_c, 1, 58, 0
1, 164400, Note_on_c, 1, 53, 127
1, 164400, Note_on_c, 1, 74, 127
1, 164400, Note_on_c, 1, 65, 127
1, 164559, Note_off_c, 1, 53, 0
1, 164562, Note_on_c, 1, 50, 127
1, 164720, Note_off_c, 1, 74, 0
1, 164721, Note_off_c, 1, 50, 0
1, 164723, Note_on_c, 1, 46, 127
1, 164882, Note_off_c, 1, 46, 0
1, 165044, Note_off_c, 1, 65, 0
1, 165047, Note_on_c, 1, 63, 127
1, 165047, Note_on_c, 1, 43, 127
1, 165206, Note_off_c, 1, 63, 0
1, 165367, Note_off_c, 1, 43, 0
1, 165371, Note_on_c, 1, 67, 127
1, 165530, Note_off_c, 1, 67, 0
1, 166018, Note_on_c, 1, 39, 127
1, 166338, Note_off_c, 1, 39, 0
1, 166343, Note_on_c, 1, 44, 127
1, 166343, Note_on_c, 1, 63, 127
1, 166343, Note_on_c, 1, 72, 127
1, 166502, Note_off_c, 1, 44, 0
1, 166504, Note_on_c, 1, 46, 127
1, 166663, Note_off_c, 1, 63, 0
1, 166663, Note_off_c, 1, 72, 0
1, 166663, Note_off_c, 1, 46, 0
1, 166666, Note_on_c, 1, 48, 127
1, 166666, Note_on_c, 1, 63, 127
1, 166666, Note_on_c, 1, 72, 127
1, 166825, Note_off_c, 1, 48, 0
1, 166827, Note_on_c, 1, 46, 127
1, 166986, Note_off_c, 1, 63, 0
1, 166986, Note_off_c, 1, 72, 0
1, 166986, Note_off_c, 1, 46, 0
1, 166990, Note_on_c, 1, 44, 127
1, 166990, Note_on_c, 1, 63, 127
1, 166990, Note_on_c, 1, 72, 127
1, 167149, Note_off_c, 1, 44, 0
1, 167152, Note_on_c, 1, 43, 127
1, 167310, Note_off_c, 1, 63, 0
1, 167310, Note_off_c, 1, 72, 0
1, 167311, Note_off_c, 1, 43, 0
1, 167313, Note_on_c, 1, 41, 127
1, 167313, Note_on_c, 1, 77, 127
1, 167313, Note_on_c, 1, 68, 127
1, 167472, Note_off_c, 1, 41, 0
1, 167476, Note_on_c, 1, 39, 127
1, 167633, Note_off_c, 1, 77, 0
1, 167635, Note_off_c, 1, 39, 0
1, 167637, Note_on_c, 1, 71, 127
1, 167637, Note_on_c, 1, 38, 127
1, 167796, Note_off_c, 1, 71, 0
1, 167800, Note_on_c, 1, 72, 127
1, 167957, Note_off_c, 1, 38, 0
1, 167959, Note_off_c, 1, 72, 0
1, 167961, Note_on_c, 1, 48, 127
1, 167961, Note_on_c, 1, 74, 127
1, 168118, Note_off_c, 1, 68, 0
1, 168281, Note_off_c, 1, 48, 0
1, 168286, Note_on_c, 1, 67, 127
1, 168286, Note_on_c, 1, 47, 127
1, 168445, Note_off_c, 1, 67, 0
1, 168447, Note_on_c, 1, 65, 127
1, 168606, Note_off_c, 1, 47, 0
1, 168606, Note_off_c, 1, 65, 0
1, 168608, Note_on_c, 1, 63, 127
1, 168608, Note_on_c, 1, 43, 127
1, 168767, Note_off_c, 1, 63, 0
1, 168770, Note_on_c, 1, 62, 127
1, 168928, Note_off_c, 1, 43, 0
1, 168929, Note_off_c, 1, 62, 0
1, 169090, Note_off_c, 1, 74, 0
1, 169256, Note_on_c, 1, 44, 127
1, 169576, Note_off_c, 1, 44, 0
1, 170228, Note_on_c, 1, 36, 127
1, 170552, Note_on_c, 1, 64, 127
1, 170711, Note_off_c, 1, 64, 0
1, 171196, Note_off_c, 1, 36, 0
1, 171199, Note_on_c, 1, 60, 127
1, 171361, Note_on_c, 1, 70, 127
1, 171519, Note_off_c, 1, 60, 0
1, 171520, Note_off_c, 1, 70, 0
1, 171522, Note_on_c, 1, 53, 127
1, 171842, Note_off_c, 1, 53, 0
1, 172495, Note_on_c, 1, 61, 127
1, 172654, Note_off_c, 1, 61, 0
1, 172656, Note_on_c, 1, 58, 127
1, 172656, Note_on_c, 1, 73, 127
1, 172815, Note_off_c, 1, 58, 0
1, 172817, Note_on_c, 1, 52, 127
1, 172976, Note_off_c, 1, 73, 0
1, 173137, Note_off_c, 1, 52, 0
1, 173465, Note_on_c, 1, 79, 127
1, 173789, Note_on_c, 1, 55, 127
1, 173789, Note_on_c, 1, 76, 127
1, 173948, Note_off_c, 1, 55, 0
1, 173951, Note_on_c, 1, 56, 127
1, 174109, Note_off_c, 1, 76, 0
1, 174110, Note_off_c, 1, 56, 0
1, 175080, Note_off_c, 1, 79, 0
1, 176058, Note_on_c, 1, 56, 127
1, 176058, Note_on_c, 1, 65, 127
1, 176217, Note_off_c, 1, 56, 0
1, 176217, Note_off_c, 1, 65, 0
1, 176219, Note_on_c, 1, 58, 127
1, 176219, Note_on_c, 1, 67, 127
1, 176378, Note_off_c, 1, 58, 0
1, 176378, Note_off_c, 1, 67, 0
1, 176381, Note_on_c, 1, 60, 127
1, 176381, Note_on_c, 1, 68, 127
1, 176540, Note_off_c, 1, 60, 0
1, 176540, Note_off_c, 1, 68, 0
1, 176542, Note_on_c, 1, 61, 127
1, 176542, Note_on_c, 1, 70, 127
1, 176701, Note_off_c, 1, 61, 0
1, 176701, Note_off_c, 1, 70, 0
1, 176704, Note_on_c, 1, 63, 127
1, 176704, Note_on_c, 1, 72, 127
1, 176863, Note_off_c, 1, 63, 0
1, 176866, Note_on_c, 1, 61, 127
1, 177024, Note_off_c, 1, 72, 0
1, 177025, Note_off_c, 1, 61, 0
1, 177028, Note_on_c, 1, 60, 127
1, 177028, Note_on_c, 1, 75, 127
1, 177187, Note_off_c, 1, 60, 0
1, 177191, Note_on_c, 1, 61, 127
1, 177348, Note_off_c, 1, 75, 0
1, 177350, Note_off_c, 1, 61, 0
1, 177352, Note_on_c, 1, 63, 127
1, 177352, Note_on_c, 1, 78, 127
1, 177511, Note_off_c, 1, 63, 0
1, 177514, Note_on_c, 1, 66, 127
1, 177673, Note_off_c, 1, 66, 0
1, 177676, Note_on_c, 1, 65, 127
1, 177676, Note_on_c, 1, 81, 127
1, 177835, Note_off_c, 1, 65, 0
1, 177996, Note_off_c, 1, 81, 0
1, 178000, Note_on_c, 1, 61, 127
1, 178000, Note_on_c, 1, 82, 127
1, 178159, Note_off_c, 1, 61, 0
1, 178162, Note_on_c, 1, 60, 127
1, 178320, Note_off_c, 1, 78, 0
1, 178320, Note_off_c, 1, 82, 0
1, 178321, Note_off_c, 1, 60, 0
1, 178324, Note_on_c, 1, 58, 127
1, 178324, Note_on_c, 1, 69, 127
1, 178324, Note_on_c, 1, 75, 127
1, 178483, Note_off_c, 1, 58, 0
1, 178485, Note_on_c, 1, 60, 127
1, 178644, Note_off_c, 1, 69, 0
1, 178644, Note_off_c, 1, 75, 0
1, 178644, Note_off_c, 1, 60, 0
1, 178647, Note_on_c, 1, 61, 127
1, 178647, Note_on_c, 1, 70, 127
1, 178647, Note_on_c, 1, 73, 127
1, 178806, Note_off_c, 1, 61, 0
1, 178808, Note_on_c, 1, 63, 127
1, 178967, Note_off_c, 1, 70, 0
1, 178967, Note_off_c, 1, 73, 0
1, 178967, Note_off_c, 1, 63, 0
1, 178971, Note_on_c, 1, 65, 127
1, 178971, Note_on_c, 1, 73, 127
1, 178971, Note_on_c, 1, 82, 127
1, 179130, Note_off_c, 1, 65, 0
1, 179133, Note_on_c, 1, 67, 127
1, 179291, Note_off_c, 1, 73, 0
1, 179292, Note_off_c, 1, 67, 0
1, 179295, Note_on_c, 1, 68, 127
1, 179295, Note_on_c, 1, 72, 127
1, 179454, Note_off_c, 1, 68, 0
1, 179457, Note_on_c, 1, 70, 127
1, 179615, Note_off_c, 1, 82, 0
1, 179616, Note_off_c, 1, 70, 0
1, 179618, Note_on_c, 1, 84, 127
1, 179777, Note_off_c, 1, 84, 0
1, 179943, Note_on_c, 1, 80, 127
1, 180102, Note_off_c, 1, 80, 0
1, 180104, Note_on_c, 1, 63, 127
1, 180104, Note_on_c, 1, 79, 127
1, 180263, Note_off_c, 1, 63, 0
1, 180263, Note_off_c, 1, 79, 0
1, 180267, Note_on_c, 1, 61, 127
1, 180267, Note_on_c, 1, 77, 127
1, 180426, Note_off_c, 1, 61, 0
1, 180426, Note_off_c, 1, 77, 0
1, 180428, Note_on_c, 1, 60, 127
1, 180428, Note_on_c, 1, 76, 127
1, 180587, Note_off_c, 1, 72, 0
1, 180587, Note_off_c, 1, 60, 0
1, 180587, Note_off_c, 1, 76, 0
1, 180590, Note_on_c, 1, 61, 127
1, 180590, Note_on_c, 1, 77, 127
1, 180749, Note_off_c, 1, 61, 0
1, 180751, Note_on_c, 1, 63, 127
1, 180910, Note_off_c, 1, 63, 0
1, 180913, Note_on_c, 1, 68, 127
1, 181076, Note_on_c, 1, 60, 127
1, 181233, Note_off_c, 1, 68, 0
1, 181235, Note_off_c, 1, 60, 0
1, 181237, Note_on_c, 1, 58, 127
1, 181237, Note_on_c, 1, 73, 127
1, 181396, Note_off_c, 1, 58, 0
1, 181400, Note_on_c, 1, 56, 127
1, 181557, Note_off_c, 1, 73, 0
1, 181559, Note_off_c, 1, 56, 0
1, 181561, Note_on_c, 1, 55, 127
1, 181561, Note_on_c, 1, 72, 127
1, 181720, Note_off_c, 1, 55, 0
1, 181723, Note_on_c, 1, 53, 127
1, 181881, Note_off_c, 1, 72, 0
1, 181882, Note_off_c, 1, 53, 0
1, 181885, Note_on_c, 1, 70, 127
1, 182205, Note_off_c, 1, 77, 0
1, 182209, Note_on_c, 1, 82, 127
1, 182368, Note_off_c, 1, 82, 0
1, 182371, Note_on_c, 1, 80, 127
1, 182530, Note_off_c, 1, 80, 0
1, 182532, Note_on_c, 1, 52, 127
1, 182532, Note_on_c, 1, 79, 127
1, 182691, Note_off_c, 1, 52, 0
1, 182691, Note_off_c, 1, 79, 0
1, 182694, Note_on_c, 1, 50, 127
1, 182853, Note_off_c, 1, 50, 0
1, 182856, Note_on_c, 1, 48, 127
1, 182856, Note_on_c, 1, 76, 127
1, 183015, Note_off_c, 1, 48, 0
1, 183015, Note_off_c, 1, 76, 0
1, 183018, Note_on_c, 1, 47, 127
1, 183018, Note_on_c, 1, 74, 127
1, 183177, Note_off_c, 1, 70, 0
1, 183177, Note_off_c, 1, 47, 0
1, 183177, Note_off_c, 1, 74, 0
1, 183180, Note_on_c, 1, 76, 127
1, 183180, Note_on_c, 1, 48, 127
1, 183339, Note_off_c, 1, 76, 0
1, 183342, Note_on_c, 1, 77, 127
1, 183500, Note_off_c, 1, 48, 0
1, 183501, Note_off_c, 1, 77, 0
1, 183503, Note_on_c, 1, 55, 127
1, 183503, Note_on_c, 1, 76, 127
1, 183503, Note_on_c, 1, 48, 127
1, 183662, Note_off_c, 1, 55, 0
1, 183662, Note_off_c, 1, 76, 0
1, 183666, Note_on_c, 1, 56, 127
1, 183666, Note_on_c, 1, 74, 127
1, 183823, Note_off_c, 1, 48, 0
1, 183825, Note_off_c, 1, 56, 0
1, 183825, Note_off_c, 1, 74, 0
1, 183827, Note_on_c, 1, 72, 127
1, 183827, Note_on_c, 1, 58, 127
1, 183827, Note_on_c, 1, 48, 127
1, 183986, Note_off_c, 1, 72, 0
1, 183990, Note_on_c, 1, 70, 127
1, 184147, Note_off_c, 1, 58, 0
1, 184149, Note_off_c, 1, 70, 0
1, 184152, Note_on_c, 1, 68, 127
1, 184152, Note_on_c, 1, 60, 127
1, 184311, Note_off_c, 1, 68, 0
1, 184313, Note_on_c, 1, 67, 127
1, 184471, Note_off_c, 1, 48, 0
1, 184472, Note_off_c, 1, 60, 0
1, 184472, Note_off_c, 1, 67, 0
1, 184475, Note_on_c, 1, 68, 127
1, 184475, Note_on_c, 1, 48, 127
1, 184475, Note_on_c, 1, 53, 127
1, 184634, Note_off_c, 1, 68, 0
1, 184636, Note_on_c, 1, 65, 127
1, 184795, Note_off_c, 1, 48, 0
1, 184795, Note_off_c, 1, 53, 0
1, 184795, Note_off_c, 1, 65, 0
1, 184799, Note_on_c, 1, 68, 127
1, 184799, Note_on_c, 1, 48, 127
1, 184799, Note_on_c, 1, 53, 127
1, 184958, Note_off_c, 1, 68, 0
1, 184960, Note_on_c, 1, 72, 127
1, 185119, Note_off_c, 1, 48, 0
1, 185119, Note_off_c, 1, 53, 0
1, 185119, Note_off_c, 1, 72, 0
1, 185122, Note_on_c, 1, 48, 127
1, 185122, Note_on_c, 1, 77, 127
1, 185122, Note_on_c, 1, 53, 127
1, 185285, Note_on_c, 1, 72, 127
1, 185442, Note_off_c, 1, 48, 0
1, 185442, Note_off_c, 1, 77, 0
1, 185444, Note_off_c, 1, 53, 0
1, 185445, Note_off_c, 1, 72, 0
1, 185448, Note_on_c, 1, 61, 127
1, 185448, Note_on_c, 1, 70, 127
1, 185607, Note_off_c, 1, 61, 0
1, 185607, Note_off_c, 1, 70, 0
1, 185610, Note_on_c, 1, 58, 127
1, 185610, Note_on_c, 1, 68, 127
1, 185769, Note_off_c, 1, 58, 0
1, 185769, Note_off_c, 1, 68, 0
1, 185773, Note_on_c, 1, 70, 127
1, 185773, Note_on_c, 1, 48, 127
1, 185773, Note_on_c, 1, 52, 127
1, 185932, Note_off_c, 1, 70, 0
1, 185934, Note_on_c, 1, 67, 127
1, 186093, Note_off_c, 1, 48, 0
1, 186093, Note_off_c, 1, 52, 0
1, 186093, Note_off_c, 1, 67, 0
1, 186097, Note_on_c, 1, 70, 127
1, 186097, Note_on_c, 1, 48, 127
1, 186097, Note_on_c, 1, 52, 127
1, 186256, Note_off_c, 1, 70, 0
1, 186257, Note_on_c, 1, 76, 127
1, 186416, Note_off_c, 1, 76, 0
1, 186417, Note_off_c, 1, 48, 0
1, 186417, Note_off_c, 1, 52, 0
1, 186419, Note_on_c, 1, 52, 127
1, 186419, Note_on_c, 1, 79, 127
1, 186419, Note_on_c, 1, 48, 127
1, 186578, Note_off_c, 1, 52, 0
1, 186578, Note_off_c, 1, 79, 0
1, 186581, Note_on_c, 1, 53, 127
1, 186581, Note_on_c, 1, 77, 127
1, 186739, Note_off_c, 1, 48, 0
1, 186741, Note_off_c, 1, 53, 0
1, 186741, Note_off_c, 1, 77, 0
1, 186745, Note_on_c, 1, 55, 127
1, 186745, Note_on_c, 1, 76, 127
1, 186904, Note_off_c, 1, 55, 0
1, 186904, Note_off_c, 1, 76, 0
1, 186907, Note_on_c, 1, 56, 127
1, 186907, Note_on_c, 1, 74, 127
1, 187066, Note_off_c, 1, 56, 0
1, 187066, Note_off_c, 1, 74, 0
1, 187069, Note_on_c, 1, 58, 127
1, 187069, Note_on_c, 1, 76, 127
1, 187228, Note_off_c, 1, 58, 0
1, 187228, Note_off_c, 1, 76, 0
1, 187231, Note_on_c, 1, 56, 127
1, 187231, Note_on_c, 1, 72, 127
1, 187390, Note_off_c, 1, 56, 0
1, 187390, Note_off_c, 1, 72, 0
1, 187394, Note_on_c, 1, 55, 127
1, 187394, Note_on_c, 1, 76, 127
1, 187553, Note_off_c, 1, 55, 0
1, 187553, Note_off_c, 1, 76, 0
1, 187555, Note_on_c, 1, 56, 127
1, 187555, Note_on_c, 1, 79, 127
1, 187714, Note_off_c, 1, 56, 0
1, 187714, Note_off_c, 1, 79, 0
1, 187717, Note_on_c, 1, 58, 127
1, 187717, Note_on_c, 1, 84, 127
1, 187876, Note_off_c, 1, 58, 0
1, 187876, Note_off_c, 1, 84, 0
1, 187879, Note_on_c, 1, 61, 127
1, 187879, Note_on_c, 1, 82, 127
1, 188038, Note_off_c, 1, 61, 0
1, 188038, Note_off_c, 1, 82, 0
1, 188040, Note_on_c, 1, 60, 127
1, 188040, Note_on_c, 1, 80, 127
1, 188199, Note_off_c, 1, 60, 0
1, 188199, Note_off_c, 1, 80, 0
1, 188201, Note_on_c, 1, 58, 127
1, 188201, Note_on_c, 1, 79, 127
1, 188360, Note_off_c, 1, 58, 0
1, 188360, Note_off_c, 1, 79, 0
1, 188364, Note_on_c, 1, 77, 127
1, 188364, Note_on_c, 1, 56, 127
1, 188364, Note_on_c, 1, 49, 127
1, 188523, Note_off_c, 1, 77, 0
1, 188526, Note_on_c, 1, 78, 127
1, 188684, Note_off_c, 1, 56, 0
1, 188685, Note_off_c, 1, 78, 0
1, 188688, Note_on_c, 1, 57, 127
1, 188850, Note_on_c, 1, 75, 127
1, 189008, Note_off_c, 1, 57, 0
1, 189009, Note_off_c, 1, 75, 0
1, 189011, Note_on_c, 1, 73, 127
1, 189011, Note_on_c, 1, 58, 127
1, 189170, Note_off_c, 1, 73, 0
1, 189174, Note_on_c, 1, 72, 127
1, 189331, Note_off_c, 1, 58, 0
1, 189333, Note_off_c, 1, 72, 0
1, 189336, Note_on_c, 1, 70, 127
1, 189336, Note_on_c, 1, 60, 127
1, 189495, Note_off_c, 1, 70, 0
1, 189498, Note_on_c, 1, 69, 127
1, 189656, Note_off_c, 1, 60, 0
1, 189657, Note_off_c, 1, 69, 0
1, 189660, Note_on_c, 1, 61, 127
1, 189818, Note_off_c, 1, 49, 0
1, 189821, Note_on_c, 1, 51, 127
1, 189980, Note_off_c, 1, 51, 0
1, 189983, Note_on_c, 1, 65, 127
1, 190144, Note_on_c, 1, 48, 127
1, 190303, Note_off_c, 1, 65, 0
1, 190303, Note_off_c, 1, 48, 0
1, 190306, Note_on_c, 1, 46, 127
1, 190465, Note_off_c, 1, 46, 0
1, 190469, Note_on_c, 1, 44, 127
1, 190628, Note_off_c, 1, 61, 0
1, 190628, Note_off_c, 1, 44, 0
1, 190630, Note_on_c, 1, 42, 127
1, 190789, Note_off_c, 1, 42, 0
1, 190793, Note_on_c, 1, 41, 127
1, 190793, Note_on_c, 1, 68, 127
1, 190952, Note_off_c, 1, 41, 0
1, 190952, Note_off_c, 1, 68, 0
1, 190954, Note_on_c, 1, 39, 127
1, 190954, Note_on_c, 1, 66, 127
1, 191274, Note_off_c, 1, 39, 0
1, 191274, Note_off_c, 1, 66, 0
1, 192249, Note_on_c, 1, 45, 127
1, 192569, Note_off_c, 1, 45, 0
1, 192573, Note_on_c, 1, 63, 127
1, 192732, Note_off_c, 1, 63, 0
1, 193220, Note_on_c, 1, 54, 127
1, 193379, Note_off_c, 1, 54, 0
1, 194029, Note_on_c, 1, 67, 127
1, 194188, Note_off_c, 1, 67, 0
1, 196136, Note_on_c, 1, 64, 127
1, 196300, Note_on_c, 1, 55, 127
1, 196458, Note_off_c, 1, 64, 0
1, 196459, Note_off_c, 1, 55, 0
1, 196462, Note_on_c, 1, 56, 127
1, 196462, Note_on_c, 1, 72, 127
1, 196462, Note_on_c, 1, 65, 127
1, 196621, Note_off_c, 1, 56, 0
1, 196621, Note_off_c, 1, 72, 0
1, 196624, Note_on_c, 1, 60, 127
1, 196624, Note_on_c, 1, 74, 127
1, 196782, Note_off_c, 1, 65, 0
1, 196783, Note_off_c, 1, 60, 0
1, 196783, Note_off_c, 1, 74, 0
1, 196787, Note_on_c, 1, 58, 127
1, 196787, Note_on_c, 1, 67, 127
1, 196787, Note_on_c, 1, 76, 127
1, 196946, Note_off_c, 1, 58, 0
1, 196948, Note_on_c, 1, 56, 127
1, 197107, Note_off_c, 1, 67, 0
1, 197107, Note_off_c, 1, 76, 0
1, 197107, Note_off_c, 1, 56, 0
1, 197110, Note_on_c, 1, 55, 127
1, 197110, Note_on_c, 1, 68, 127
1, 197110, Note_on_c, 1, 77, 127
1, 197269, Note_off_c, 1, 55, 0
1, 197272, Note_on_c, 1, 53, 127
1, 197430, Note_off_c, 1, 68, 0
1, 197430, Note_off_c, 1, 77, 0
1, 197431, Note_off_c, 1, 53, 0
1, 197433, Note_on_c, 1, 52, 127
1, 197433, Note_on_c, 1, 70, 127
1, 197433, Note_on_c, 1, 79, 127
1, 197592, Note_off_c, 1, 52, 0
1, 197595, Note_on_c, 1, 53, 127
1, 197753, Note_off_c, 1, 70, 0
1, 197753, Note_off_c, 1, 79, 0
1, 197754, Note_off_c, 1, 53, 0
1, 197757, Note_on_c, 1, 55, 127
1, 197757, Note_on_c, 1, 70, 127
1, 197757, Note_on_c, 1, 77, 127
1, 197916, Note_off_c, 1, 55, 0
1, 197916, Note_off_c, 1, 70, 0
1, 197919, Note_on_c, 1, 56, 127
1, 197919, Note_on_c, 1, 68, 127
1, 198077, Note_off_c, 1, 77, 0
1, 198078, Note_off_c, 1, 56, 0
1, 198078, Note_off_c, 1, 68, 0
1, 198081, Note_on_c, 1, 55, 127
1, 198081, Note_on_c, 1, 76, 127
1, 198081, Note_on_c, 1, 70, 127
1, 198240, Note_off_c, 1, 55, 0
1, 198243, Note_on_c, 1, 53, 127
1, 198401, Note_off_c, 1, 76, 0
1, 198402, Note_off_c, 1, 53, 0
1, 198404, Note_on_c, 1, 52, 127
1, 198404, Note_on_c, 1, 77, 127
1, 198563, Note_off_c, 1, 52, 0
1, 198567, Note_on_c, 1, 50, 127
1, 198724, Note_off_c, 1, 77, 0
1, 198726, Note_off_c, 1, 50, 0
1, 198729, Note_on_c, 1, 48, 127
1, 198729, Note_on_c, 1, 79, 127
1, 198886, Note_off_c, 1, 70, 0
1, 199049, Note_off_c, 1, 48, 0
1, 199053, Note_on_c, 1, 73, 127
1, 199212, Note_off_c, 1, 73, 0
1, 199214, Note_on_c, 1, 72, 127
1, 199373, Note_off_c, 1, 72, 0
1, 199534, Note_off_c, 1, 79, 0
1, 199700, Note_on_c, 1, 58, 127
1, 199859, Note_off_c, 1, 58, 0
1, 200996, Note_on_c, 1, 61, 127
1, 201155, Note_off_c, 1, 61, 0
1, 201320, Note_on_c, 1, 79, 127
1, 201320, Note_on_c, 1, 55, 127
1, 201479, Note_off_c, 1, 79, 0
1, 201483, Note_on_c, 1, 77, 127
1, 201640, Note_off_c, 1, 55, 0
1, 201642, Note_off_c, 1, 77, 0
1, 201644, Note_on_c, 1, 76, 127
1, 201644, Note_on_c, 1, 55, 127
1, 201803, Note_off_c, 1, 76, 0
1, 201806, Note_on_c, 1, 74, 127
1, 201964, Note_off_c, 1, 55, 0
1, 201965, Note_off_c, 1, 74, 0
1, 201968, Note_on_c, 1, 76, 127
1, 201968, Note_on_c, 1, 55, 127
1, 202127, Note_off_c, 1, 76, 0
1, 202130, Note_on_c, 1, 77, 127
1, 202288, Note_off_c, 1, 55, 0
1, 202289, Note_off_c, 1, 77, 0
1, 202292, Note_on_c, 1, 65, 127
1, 202292, Note_on_c, 1, 73, 127
1, 202292, Note_on_c, 1, 79, 127
1, 202451, Note_off_c, 1, 65, 0
1, 202451, Note_off_c, 1, 73, 0
1, 202454, Note_on_c, 1, 64, 127
1, 202454, Note_on_c, 1, 70, 127
1, 202613, Note_off_c, 1, 64, 0
1, 202774, Note_off_c, 1, 70, 0
1, 202780, Note_on_c, 1, 68, 127
1, 202938, Note_off_c, 1, 79, 0
1, 202939, Note_off_c, 1, 68, 0
1, 202941, Note_on_c, 1, 77, 127
1, 203100, Note_off_c, 1, 77, 0
1, 203103, Note_on_c, 1, 76, 127
1, 203262, Note_off_c, 1, 76, 0
1, 203265, Note_on_c, 1, 72, 127
1, 203424, Note_off_c, 1, 72, 0
1, 203751, Note_on_c, 1, 67, 127
1, 203910, Note_off_c, 1, 67, 0
1, 203912, Note_on_c, 1, 65, 127
1, 203912, Note_on_c, 1, 80, 127
1, 204071, Note_off_c, 1, 65, 0
1, 204075, Note_on_c, 1, 64, 127
1, 204232, Note_off_c, 1, 80, 0
1, 204234, Note_off_c, 1, 64, 0
1, 204237, Note_on_c, 1, 65, 127
1, 204237, Note_on_c, 1, 72, 127
1, 204237, Note_on_c, 1, 80, 127
1, 204396, Note_off_c, 1, 65, 0
1, 204399, Note_on_c, 1, 67, 127
1, 204557, Note_off_c, 1, 72, 0
1, 204557, Note_off_c, 1, 80, 0
1, 204558, Note_off_c, 1, 67, 0
1, 204561, Note_on_c, 1, 65, 127
1, 204561, Note_on_c, 1, 80, 127
1, 204561, Note_on_c, 1, 72, 127
1, 204720, Note_off_c, 1, 65, 0
1, 204722, Note_on_c, 1, 63, 127
1, 204881, Note_off_c, 1, 80, 0
1, 204881, Note_off_c, 1, 63, 0
1, 204884, Note_on_c, 1, 61, 127
1, 205043, Note_off_c, 1, 61, 0
1, 205045, Note_on_c, 1, 60, 127
1, 205204, Note_off_c, 1, 60, 0
1, 205205, Note_off_c, 1, 72, 0
1, 205207, Note_on_c, 1, 70, 127
1, 205366, Note_off_c, 1, 70, 0
1, 205531, Note_on_c, 1, 73, 127
1, 205690, Note_off_c, 1, 73, 0
1, 206180, Note_on_c, 1, 58, 127
1, 206500, Note_off_c, 1, 58, 0
1, 206503, Note_on_c, 1, 63, 127
1, 206503, Note_on_c, 1, 70, 127
1, 206503, Note_on_c, 1, 79, 127
1, 206662, Note_off_c, 1, 63, 0
1, 206665, Note_on_c, 1, 62, 127
1, 206823, Note_off_c, 1, 70, 0
1, 206823, Note_off_c, 1, 79, 0
1, 206824, Note_off_c, 1, 62, 0
1, 206826, Note_on_c, 1, 63, 127
1, 206826, Note_on_c, 1, 70, 127
1, 206826, Note_on_c, 1, 79, 127
1, 206985, Note_off_c, 1, 63, 0
1, 206988, Note_on_c, 1, 65, 127
1, 207146, Note_off_c, 1, 70, 0
1, 207146, Note_off_c, 1, 79, 0
1, 207147, Note_off_c, 1, 65, 0
1, 207150, Note_on_c, 1, 63, 127
1, 207150, Note_on_c, 1, 79, 127
1, 207150, Note_on_c, 1, 70, 127
1, 207309, Note_off_c, 1, 63, 0
1, 207312, Note_on_c, 1, 61, 127
1, 207470, Note_off_c, 1, 79, 0
1, 207471, Note_off_c, 1, 61, 0
1, 207474, Note_on_c, 1, 60, 127
1, 207633, Note_off_c, 1, 60, 0
1, 207636, Note_on_c, 1, 58, 127
1, 207794, Note_off_c, 1, 70, 0
1, 207795, Note_off_c, 1, 58, 0
1, 207798, Note_on_c, 1, 68, 127
1, 207957, Note_off_c, 1, 68, 0
1, 208122, Note_on_c, 1, 72, 127
1, 208281, Note_off_c, 1, 72, 0
1, 208770, Note_on_c, 1, 56, 127
1, 209090, Note_off_c, 1, 56, 0
1, 209093, Note_on_c, 1, 61, 127
1, 209093, Note_on_c, 1, 68, 127
1, 209093, Note_on_c, 1, 77, 127
1, 209252, Note_off_c, 1, 61, 0
1, 209255, Note_on_c, 1, 63, 127
1, 209413, Note_off_c, 1, 68, 0
1, 209414, Note_off_c, 1, 63, 0
1, 209579, Note_on_c, 1, 60, 127
1, 209738, Note_off_c, 1, 60, 0
1, 209740, Note_on_c, 1, 58, 127
1, 209740, Note_on_c, 1, 73, 127
1, 209899, Note_off_c, 1, 58, 0
1, 209902, Note_on_c, 1, 56, 127
1, 210061, Note_off_c, 1, 77, 0
1, 210061, Note_off_c, 1, 56, 0
1, 210064, Note_on_c, 1, 55, 127
1, 210223, Note_off_c, 1, 55, 0
1, 210226, Note_on_c, 1, 53, 127
1, 210385, Note_off_c, 1, 53, 0
1, 210389, Note_on_c, 1, 75, 127
1, 210708, Note_off_c, 1, 73, 0
1, 210712, Note_on_c, 1, 57, 127
1, 210712, Note_on_c, 1, 72, 127
1, 210871, Note_off_c, 1, 57, 0
1, 210871, Note_off_c, 1, 72, 0
1, 210874, Note_on_c, 1, 70, 127
1, 211033, Note_off_c, 1, 70, 0
1, 211035, Note_on_c, 1, 69, 127
1, 211198, Note_on_c, 1, 51, 127
1, 211357, Note_off_c, 1, 75, 0
1, 211357, Note_off_c, 1, 51, 0
1, 211359, Note_on_c, 1, 49, 127
1, 211518, Note_off_c, 1, 49, 0
1, 211521, Note_on_c, 1, 48, 127
1, 211675, Note_off_c, 1, 69, 0
1, 211681, Note_off_c, 1, 48, 0
1, 211685, Note_on_c, 1, 70, 127
1, 211685, Note_on_c, 1, 49, 127
1, 211847, Note_on_c, 1, 53, 127
1, 212005, Note_off_c, 1, 70, 0
1, 212006, Note_off_c, 1, 53, 0
1, 212009, Note_on_c, 1, 55, 127
1, 212168, Note_off_c, 1, 55, 0
1, 212171, Note_on_c, 1, 57, 127
1, 212325, Note_off_c, 1, 49, 0
1, 212331, Note_off_c, 1, 57, 0
1, 212334, Note_on_c, 1, 70, 127
1, 212334, Note_on_c, 1, 58, 127
1, 212497, Note_on_c, 1, 49, 127
1, 212654, Note_off_c, 1, 70, 0
1, 212656, Note_off_c, 1, 49, 0
1, 212658, Note_on_c, 1, 51, 127
1, 212658, Note_on_c, 1, 78, 127
1, 212817, Note_off_c, 1, 51, 0
1, 212817, Note_off_c, 1, 78, 0
1, 212820, Note_on_c, 1, 53, 127
1, 212820, Note_on_c, 1, 75, 127
1, 212974, Note_off_c, 1, 58, 0
1, 212980, Note_off_c, 1, 53, 0
1, 212980, Note_off_c, 1, 75, 0
1, 212984, Note_on_c, 1, 69, 127
1, 212984, Note_on_c, 1, 54, 127
1, 213146, Note_on_c, 1, 60, 127
1, 213304, Note_off_c, 1, 69, 0
1, 213305, Note_off_c, 1, 60, 0
1, 213308, Note_on_c, 1, 63, 127
1, 213467, Note_off_c, 1, 63, 0
1, 213470, Note_on_c, 1, 61, 127
1, 213629, Note_off_c, 1, 61, 0
1, 213791, Note_off_c, 1, 54, 0
1, 213794, Note_on_c, 1, 58, 127
1, 213794, Note_on_c, 1, 70, 127
1, 213953, Note_off_c, 1, 58, 0
1, 213953, Note_off_c, 1, 70, 0
1, 213955, Note_on_c, 1, 57, 127
1, 213955, Note_on_c, 1, 72, 127
1, 214114, Note_off_c, 1, 57, 0
1, 214114, Note_off_c, 1, 72, 0
1, 214117, Note_on_c, 1, 55, 127
1, 214117, Note_on_c, 1, 73, 127
1, 214276, Note_off_c, 1, 55, 0
1, 214276, Note_off_c, 1, 73, 0
1, 214279, Note_on_c, 1, 75, 127
1, 214279, Note_on_c, 1, 53, 127
1, 214438, Note_off_c, 1, 75, 0
1, 214441, Note_on_c, 1, 58, 127
1, 214441, Note_on_c, 1, 73, 127
1, 214600, Note_off_c, 1, 58, 0
1, 214600, Note_off_c, 1, 73, 0
1, 214602, Note_on_c, 1, 57, 127
1, 214602, Note_on_c, 1, 72, 127
1, 214749, Note_off_c, 1, 53, 0
1, 214761, Note_off_c, 1, 57, 0
1, 214761, Note_off_c, 1, 72, 0
1, 214765, Note_on_c, 1, 55, 127
1, 214765, Note_on_c, 1, 73, 127
1, 214924, Note_off_c, 1, 55, 0
1, 214924, Note_off_c, 1, 73, 0
1, 214926, Note_on_c, 1, 53, 127
1, 214926, Note_on_c, 1, 75, 127
1, 215085, Note_off_c, 1, 53, 0
1, 215085, Note_off_c, 1, 75, 0
1, 215089, Note_on_c, 1, 51, 127
1, 215089, Note_on_c, 1, 78, 127
1, 215248, Note_off_c, 1, 51, 0
1, 215248, Note_off_c, 1, 78, 0
1, 215251, Note_on_c, 1, 49, 127
1, 215251, Note_on_c, 1, 77, 127
1, 215251, Note_on_c, 1, 72, 127
1, 215410, Note_off_c, 1, 49, 0
1, 215410, Note_off_c, 1, 77, 0
1, 215412, Note_on_c, 1, 48, 127
1, 215412, Note_on_c, 1, 75, 127
1, 215571, Note_off_c, 1, 72, 0
1, 215571, Note_off_c, 1, 48, 0
1, 215571, Note_off_c, 1, 75, 0
1, 215575, Note_on_c, 1, 46, 127
1, 215575, Note_on_c, 1, 65, 127
1, 215575, Note_on_c, 1, 73, 127
1, 215734, Note_off_c, 1, 46, 0
1, 215736, Note_on_c, 1, 48, 127
1, 215895, Note_off_c, 1, 65, 0
1, 215895, Note_off_c, 1, 73, 0
1, 215895, Note_off_c, 1, 48, 0
1, 215899, Note_on_c, 1, 49, 127
1, 215899, Note_on_c, 1, 65, 127
1, 215899, Note_on_c, 1, 73, 127
1, 216058, Note_off_c, 1, 49, 0
1, 216059, Note_on_c, 1, 48, 127
1, 216218, Note_off_c, 1, 48, 0
1, 216219, Note_off_c, 1, 65, 0
1, 216219, Note_off_c, 1, 73, 0
1, 216221, Note_on_c, 1, 46, 127
1, 216221, Note_on_c, 1, 73, 127
1, 216221, Note_on_c, 1, 65, 127
1, 216380, Note_off_c, 1, 46, 0
1, 216384, Note_on_c, 1, 44, 127
1, 216541, Note_off_c, 1, 73, 0
1, 216543, Note_off_c, 1, 65, 0
1, 216544, Note_off_c, 1, 44, 0
1, 216547, Note_on_c, 1, 43, 127
1, 216547, Note_on_c, 1, 73, 127
1, 216706, Note_off_c, 1, 43, 0
1, 216709, Note_on_c, 1, 41, 127
1, 216709, Note_on_c, 1, 70, 127
1, 216867, Note_off_c, 1, 73, 0
1, 216869, Note_off_c, 1, 41, 0
1, 216869, Note_off_c, 1, 70, 0
1, 216874, Note_on_c, 1, 43, 127
1, 216874, Note_on_c, 1, 64, 127
1, 216874, Note_on_c, 1, 73, 127
1, 217033, Note_off_c, 1, 43, 0
1, 217035, Note_on_c, 1, 44, 127
1, 217194, Note_off_c, 1, 64, 0
1, 217194, Note_off_c, 1, 73, 0
1, 217194, Note_off_c, 1, 44, 0
1, 217198, Note_on_c, 1, 46, 127
1, 217198, Note_on_c, 1, 64, 127
1, 217198, Note_on_c, 1, 73, 127
1, 217357, Note_off_c, 1, 46, 0
1, 217359, Note_on_c, 1, 44, 127
1, 217518, Note_off_c, 1, 64, 0
1, 217518, Note_off_c, 1, 73, 0
1, 217518, Note_off_c, 1, 44, 0
1, 217520, Note_on_c, 1, 43, 127
1, 217520, Note_on_c, 1, 64, 127
1, 217520, Note_on_c, 1, 73, 127
1, 217679, Note_off_c, 1, 43, 0
1, 217679, Note_off_c, 1, 64, 0
1, 217683, Note_on_c, 1, 41, 127
1, 217683, Note_on_c, 1, 65, 127
1, 217842, Note_off_c, 1, 41, 0
1, 217842, Note_off_c, 1, 65, 0
1, 217844, Note_on_c, 1, 40, 127
1, 217844, Note_on_c, 1, 67, 127
1, 217990, Note_off_c, 1, 73, 0
1, 218003, Note_off_c, 1, 40, 0
1, 218003, Note_off_c, 1, 67, 0
1, 218006, Note_on_c, 1, 38, 127
1, 218006, Note_on_c, 1, 68, 127
1, 218165, Note_off_c, 1, 38, 0
1, 218165, Note_off_c, 1, 68, 0
1, 218168, Note_on_c, 1, 70, 127
1, 218168, Note_on_c, 1, 36, 127
1, 218168, Note_on_c, 1, 64, 127
1, 218327, Note_off_c, 1, 70, 0
1, 218330, Note_on_c, 1, 68, 127
1, 218488, Note_off_c, 1, 36, 0
1, 218489, Note_off_c, 1, 68, 0
1, 218493, Note_on_c, 1, 67, 127
1, 218493, Note_on_c, 1, 40, 127
1, 218652, Note_off_c, 1, 67, 0
1, 218813, Note_off_c, 1, 40, 0
1, 218816, Note_on_c, 1, 43, 127
1, 218978, Note_on_c, 1, 73, 127
1, 219136, Note_off_c, 1, 64, 0
1, 219136, Note_off_c, 1, 43, 0
1, 219137, Note_off_c, 1, 73, 0
1, 219140, Note_on_c, 1, 72, 127
1, 219140, Note_on_c, 1, 76, 127
1, 219140, Note_on_c, 1, 48, 127
1, 219299, Note_off_c, 1, 72, 0
1, 219301, Note_on_c, 1, 70, 127
1, 219460, Note_off_c, 1, 76, 0
1, 219460, Note_off_c, 1, 70, 0
1, 219463, Note_on_c, 1, 68, 127
1, 219463, Note_on_c, 1, 77, 127
1, 219622, Note_off_c, 1, 48, 0
1, 219625, Note_on_c, 1, 41, 127
1, 219783, Note_off_c, 1, 68, 0
1, 219783, Note_off_c, 1, 77, 0
1, 219784, Note_off_c, 1, 41, 0
1, 219787, Note_on_c, 1, 44, 127
1, 219787, Note_on_c, 1, 68, 127
1, 219787, Note_on_c, 1, 72, 127
1, 219946, Note_off_c, 1, 44, 0
1, 219949, Note_on_c, 1, 48, 127
1, 220107, Note_off_c, 1, 68, 0
1, 220107, Note_off_c, 1, 72, 0
1, 220108, Note_off_c, 1, 48, 0
1, 220110, Note_on_c, 1, 53, 127
1, 220110, Note_on_c, 1, 72, 127
1, 220110, Note_on_c, 1, 68, 127
1, 220269, Note_off_c, 1, 53, 0
1, 220273, Note_on_c, 1, 56, 127
1, 220430, Note_off_c, 1, 72, 0
1, 220432, Note_off_c, 1, 56, 0
1, 220434, Note_on_c, 1, 55, 127
1, 220434, Note_on_c, 1, 80, 127
1, 220593, Note_off_c, 1, 55, 0
1, 220754, Note_off_c, 1, 80, 0
1, 220759, Note_on_c, 1, 70, 127
1, 220759, Note_on_c, 1, 61, 127
1, 220918, Note_off_c, 1, 70, 0
1, 221079, Note_off_c, 1, 61, 0
1, 221083, Note_on_c, 1, 73, 127
1, 221083, Note_on_c, 1, 58, 127
1, 221242, Note_off_c, 1, 73, 0
1, 221403, Note_off_c, 1, 58, 0
1, 222049, Note_off_c, 1, 68, 0
1, 222053, Note_on_c, 1, 36, 127
1, 222053, Note_on_c, 1, 67, 127
1, 222053, Note_on_c, 1, 70, 127
1, 222212, Note_off_c, 1, 36, 0
1, 222215, Note_on_c, 1, 40, 127
1, 222373, Note_off_c, 1, 67, 0
1, 222373, Note_off_c, 1, 70, 0
1, 222374, Note_off_c, 1, 40, 0
1, 222377, Note_on_c, 1, 43, 127
1, 222377, Note_on_c, 1, 67, 127
1, 222377, Note_on_c, 1, 70, 127
1, 222536, Note_off_c, 1, 43, 0
1, 222539, Note_on_c, 1, 48, 127
1, 222697, Note_off_c, 1, 67, 0
1, 222697, Note_off_c, 1, 70, 0
1, 222698, Note_off_c, 1, 48, 0
1, 222701, Note_on_c, 1, 52, 127
1, 222701, Note_on_c, 1, 70, 127
1, 222701, Note_on_c, 1, 67, 127
1, 222860, Note_off_c, 1, 52, 0
1, 222863, Note_on_c, 1, 55, 127
1, 223021, Note_off_c, 1, 70, 0
1, 223022, Note_off_c, 1, 55, 0
1, 223025, Note_on_c, 1, 53, 127
1, 223025, Note_on_c, 1, 79, 127
1, 223184, Note_off_c, 1, 53, 0
1, 223345, Note_off_c, 1, 79, 0
1, 223349, Note_on_c, 1, 68, 127
1, 223349, Note_on_c, 1, 60, 127
1, 223508, Note_off_c, 1, 68, 0
1, 223669, Note_off_c, 1, 60, 0
1, 223672, Note_on_c, 1, 72, 127
1, 223672, Note_on_c, 1, 56, 127
1, 223831, Note_off_c, 1, 72, 0
1, 223992, Note_off_c, 1, 56, 0
1, 224640, Note_off_c, 1, 67, 0
1, 224644, Note_on_c, 1, 36, 127
1, 224644, Note_on_c, 1, 65, 127
1, 224644, Note_on_c, 1, 68, 127
1, 224808, Note_off_c, 1, 36, 0
1, 224811, Note_on_c, 1, 41, 127
1, 224975, Note_off_c, 1, 41, 0
1, 224977, Note_off_c, 1, 65, 0
1, 224977, Note_off_c, 1, 68, 0
1, 224980, Note_on_c, 1, 44, 127
1, 224980, Note_on_c, 1, 65, 127
1, 224980, Note_on_c, 1, 68, 127
1, 225144, Note_off_c, 1, 44, 0
1, 225147, Note_on_c, 1, 48, 127
1, 225311, Note_off_c, 1, 48, 0
1, 225313, Note_off_c, 1, 65, 0
1, 225313, Note_off_c, 1, 68, 0
1, 225315, Note_on_c, 1, 53, 127
1, 225315, Note_on_c, 1, 68, 127
1, 225315, Note_on_c, 1, 65, 127
1, 225479, Note_off_c, 1, 53, 0
1, 225483, Note_on_c, 1, 56, 127
1, 225647, Note_off_c, 1, 56, 0
1, 225648, Note_off_c, 1, 68, 0
1, 225651, Note_on_c, 1, 55, 127
1, 225651, Note_on_c, 1, 77, 127
1, 225815, Note_off_c, 1, 55, 0
1, 225984, Note_off_c, 1, 77, 0
1, 225987, Note_on_c, 1, 67, 127
1, 225987, Note_on_c, 1, 58, 127
1, 226158, Note_off_c, 1, 67, 0
1, 226330, Note_off_c, 1, 65, 0
1, 226332, Note_off_c, 1, 58, 0
1, 226334, Note_on_c, 1, 70, 127
1, 226334, Note_on_c, 1, 55, 127
1, 226334, Note_on_c, 1, 64, 127
1, 226505, Note_off_c, 1, 70, 0
1, 226508, Note_on_c, 1, 68, 127
1, 226679, Note_off_c, 1, 55, 0
1, 226679, Note_off_c, 1, 68, 0
1, 226682, Note_on_c, 1, 67, 127
1, 226682, Note_on_c, 1, 52, 127
1, 226853, Note_off_c, 1, 67, 0
1, 226856, Note_on_c, 1, 73, 127
1, 227027, Note_off_c, 1, 64, 0
1, 227027, Note_off_c, 1, 52, 0
1, 227027, Note_off_c, 1, 73, 0
1, 227029, Note_on_c, 1, 72, 127
1, 227029, Note_on_c, 1, 48, 127
1, 227029, Note_on_c, 1, 64, 127
1, 227200, Note_off_c, 1, 72, 0
1, 227203, Note_on_c, 1, 70, 127
1, 227374, Note_off_c, 1, 48, 0
1, 227374, Note_off_c, 1, 64, 0
1, 227374, Note_off_c, 1, 70, 0
1, 227378, Note_on_c, 1, 49, 127
1, 227378, Note_on_c, 1, 68, 127
1, 227378, Note_on_c, 1, 65, 127
1, 227745, Note_off_c, 1, 49, 0
1, 227747, Note_on_c, 1, 46, 127
1, 227940, Note_off_c, 1, 68, 0
1, 227943, Note_on_c, 1, 67, 127
1, 228136, Note_off_c, 1, 65, 0
1, 228136, Note_off_c, 1, 46, 0
1, 228136, Note_off_c, 1, 67, 0
1, 228138, Note_on_c, 1, 68, 127
1, 228138, Note_on_c, 1, 48, 127
1, 228138, Note_on_c, 1, 64, 127
1, 228242, Note_off_c, 1, 68, 0
1, 228247, Note_on_c, 1, 67, 127
1, 228351, Note_off_c, 1, 67, 0
1, 228566, Note_off_c, 1, 48, 0
1, 228571, Note_on_c, 1, 36, 127
1, 228787, Note_on_c, 1, 65, 127
1, 228996, Note_off_c, 1, 64, 0
1, 229007, Note_off_c, 1, 36, 0
1, 229009, Note_off_c, 1, 65, 0
1, 229021, Note_on_c, 1, 41, 127
1, 229021, Note_on_c, 1, 65, 127
1, 232015, Note_off_c, 1, 41, 0
1, 232015, Note_off_c, 1, 65, 0
1, 232015, End_track
0, 0, End_of_file