0, 0, Header, 1, 1, 480
1, 0, Start_track
1, 0, Title_t, "Test"
1, 0, Tempo, 500000
1, 0, Instrument_name_t, "Church Organ"
1, 50, Note_on_c, 1, 62, 127
1, 50, Note_on_c, 1, 58, 127
1, 267, Note_on_c, 1, 70, 127
1, 483, Note_off_c, 1, 70, 0
1, 484, Note_on_c, 1, 72, 127
1, 555, Note_off_c, 1, 72, 0
1, 772, Note_on_c, 1, 69, 127
1, 843, Note_off_c, 1, 69, 0
1, 915, Note_off_c, 1, 62, 0
1, 916, Note_on_c, 1, 63, 127
1, 1349, Note_off_c, 1, 63, 0
1, 1350, Note_on_c, 1, 74, 127
1, 1350, Note_on_c, 1, 65, 127
1, 1746, Note_off_c, 1, 74, 0
1, 1779, Note_off_c, 1, 58, 0
1, 1784, Note_off_c, 1, 65, 0
1, 1785, Note_on_c, 1, 75, 127
1, 1785, Note_on_c, 1, 67, 127
1, 1785, Note_on_c, 1, 58, 127
1, 2002, Note_on_c, 1, 70, 127
1, 2218, Note_off_c, 1, 70, 0
1, 2219, Note_on_c, 1, 72, 127
1, 2282, Note_off_c, 1, 75, 0
1, 2290, Note_off_c, 1, 72, 0
1, 2507, Note_on_c, 1, 69, 127
1, 2578, Note_off_c, 1, 69, 0
1, 2650, Note_off_c, 1, 67, 0
1, 2651, Note_on_c, 1, 74, 127
1, 2651, Note_on_c, 1, 65, 127
1, 3058, Note_off_c, 1, 74, 0
1, 3084, Note_off_c, 1, 65, 0
1, 3085, Note_on_c, 1, 63, 127
1, 3514, Note_off_c, 1, 58, 0
1, 3519, Note_off_c, 1, 63, 0
1, 3520, Note_on_c, 1, 77, 127
1, 3520, Note_on_c, 1, 62, 127
1, 3520, Note_on_c, 1, 58, 127
1, 3737, Note_on_c, 1, 70, 127
1, 3953, Note_off_c, 1, 70, 0
1, 3954, Note_on_c, 1, 72, 127
1, 4025, Note_off_c, 1, 72, 0
1, 4085, Note_off_c, 1, 77, 0
1, 4242, Note_on_c, 1, 69, 127
1, 4313, Note_off_c, 1, 69, 0
1, 4385, Note_off_c, 1, 62, 0
1, 4386, Note_on_c, 1, 79, 127
1, 4386, Note_on_c, 1, 63, 127
1, 4793, Note_off_c, 1, 79, 0
1, 4819, Note_off_c, 1, 63, 0
1, 4820, Note_on_c, 1, 81, 127
1, 4820, Note_on_c, 1, 60, 127
1, 5227, Note_off_c, 1, 81, 0
1, 5249, Note_off_c, 1, 58, 0
1, 5254, Note_off_c, 1, 60, 0
1, 5255, Note_on_c, 1, 82, 127
1, 5255, Note_on_c, 1, 62, 127
1, 5471, Note_off_c, 1, 82, 0
1, 5472, Note_on_c, 1, 81, 127
1, 5573, Note_off_c, 1, 81, 0
1, 5581, Note_on_c, 1, 79, 127
1, 5682, Note_off_c, 1, 79, 0
1, 5689, Note_off_c, 1, 62, 0
1, 5690, Note_on_c, 1, 77, 127
1, 5690, Note_on_c, 1, 50, 127
1, 5690, Note_on_c, 1, 58, 127
1, 5906, Note_off_c, 1, 77, 0
1, 5907, Note_on_c, 1, 82, 127
1, 6109, Note_off_c, 1, 82, 0
1, 6124, Note_off_c, 1, 50, 0
1, 6125, Note_on_c, 1, 72, 127
1, 6125, Note_on_c, 1, 51, 127
1, 6233, Note_off_c, 1, 72, 0
1, 6234, Note_on_c, 1, 74, 127
1, 6342, Note_off_c, 1, 74, 0
1, 6343, Note_on_c, 1, 75, 127
1, 6559, Note_off_c, 1, 58, 0
1, 6559, Note_off_c, 1, 51, 0
1, 6560, Note_on_c, 1, 53, 127
1, 6560, Note_on_c, 1, 57, 127
1, 6762, Note_off_c, 1, 75, 0
1, 6995, Note_off_c, 1, 53, 0
1, 6995, Note_off_c, 1, 57, 0
1, 6996, Note_on_c, 1, 74, 127
1, 6996, Note_on_c, 1, 46, 127
1, 6996, Note_on_c, 1, 58, 127
1, 7104, Note_off_c, 1, 74, 0
1, 7105, Note_on_c, 1, 72, 127
1, 7213, Note_off_c, 1, 72, 0
1, 7214, Note_on_c, 1, 70, 127
1, 7399, Note_off_c, 1, 46, 0
1, 7402, Note_off_c, 1, 58, 0
1, 7431, Note_on_c, 1, 62, 127
1, 7599, Note_off_c, 1, 70, 0
1, 7649, Note_on_c, 1, 67, 127
1, 7757, Note_off_c, 1, 67, 0
1, 7758, Note_on_c, 1, 69, 127
1, 7866, Note_off_c, 1, 62, 0
1, 7866, Note_off_c, 1, 69, 0
1, 7867, Note_on_c, 1, 70, 127
1, 7867, Note_on_c, 1, 67, 127
1, 7975, Note_off_c, 1, 70, 0
1, 7976, Note_on_c, 1, 72, 127
1, 8084, Note_off_c, 1, 72, 0
1, 8085, Note_on_c, 1, 74, 127
1, 8302, Note_on_c, 1, 58, 127
1, 8518, Note_off_c, 1, 74, 0
1, 8736, Note_off_c, 1, 58, 0
1, 8737, Note_on_c, 1, 57, 127
1, 8955, Note_on_c, 1, 69, 127
1, 9171, Note_off_c, 1, 67, 0
1, 9172, Note_on_c, 1, 60, 127
1, 9362, Note_off_c, 1, 69, 0
1, 9389, Note_on_c, 1, 65, 127
1, 9497, Note_off_c, 1, 65, 0
1, 9606, Note_off_c, 1, 60, 0
1, 10041, Note_off_c, 1, 57, 0
1, 10042, Note_on_c, 1, 62, 127
1, 10476, Note_off_c, 1, 62, 0
1, 10477, Note_on_c, 1, 55, 127
1, 10912, Note_on_c, 1, 64, 127
1, 11128, Note_off_c, 1, 64, 0
1, 11346, Note_off_c, 1, 55, 0
1, 11347, Note_on_c, 1, 72, 127
1, 11347, Note_on_c, 1, 64, 127
1, 11455, Note_off_c, 1, 72, 0
1, 11456, Note_on_c, 1, 74, 127
1, 11564, Note_off_c, 1, 74, 0
1, 11565, Note_on_c, 1, 76, 127
1, 11673, Note_off_c, 1, 76, 0
1, 11674, Note_on_c, 1, 77, 127
1, 11782, Note_off_c, 1, 77, 0
1, 11783, Note_on_c, 1, 79, 127
1, 11783, Note_on_c, 1, 60, 127
1, 11999, Note_off_c, 1, 79, 0
1, 12000, Note_on_c, 1, 70, 127
1, 12213, Note_off_c, 1, 60, 0
1, 12216, Note_off_c, 1, 64, 0
1, 12216, Note_off_c, 1, 70, 0
1, 12217, Note_on_c, 1, 72, 127
1, 12217, Note_on_c, 1, 65, 127
1, 12325, Note_off_c, 1, 72, 0
1, 12326, Note_on_c, 1, 70, 127
1, 12434, Note_off_c, 1, 70, 0
1, 12435, Note_on_c, 1, 69, 127
1, 12435, Note_on_c, 1, 53, 127
1, 12543, Note_off_c, 1, 69, 0
1, 12652, Note_off_c, 1, 53, 0
1, 12653, Note_on_c, 1, 55, 127
1, 12724, Note_off_c, 1, 55, 0
1, 12941, Note_on_c, 1, 52, 127
1, 13012, Note_off_c, 1, 52, 0
1, 13519, Note_on_c, 1, 57, 127
1, 13735, Note_off_c, 1, 57, 0
1, 13947, Note_off_c, 1, 65, 0
1, 13954, Note_on_c, 1, 58, 127
1, 13954, Note_on_c, 1, 74, 127
1, 13954, Note_on_c, 1, 65, 127
1, 14170, Note_off_c, 1, 58, 0
1, 14171, Note_on_c, 1, 53, 127
1, 14387, Note_off_c, 1, 74, 0
1, 14387, Note_off_c, 1, 53, 0
1, 14388, Note_on_c, 1, 55, 127
1, 14388, Note_on_c, 1, 72, 127
1, 14459, Note_off_c, 1, 55, 0
1, 14603, Note_off_c, 1, 72, 0
1, 14604, Note_on_c, 1, 70, 127
1, 14676, Note_on_c, 1, 52, 127
1, 14747, Note_off_c, 1, 52, 0
1, 14819, Note_off_c, 1, 70, 0
1, 14820, Note_on_c, 1, 57, 127
1, 15036, Note_off_c, 1, 57, 0
1, 15682, Note_off_c, 1, 65, 0
1, 15689, Note_on_c, 1, 60, 127
1, 15689, Note_on_c, 1, 75, 127
1, 15689, Note_on_c, 1, 69, 127
1, 15905, Note_off_c, 1, 60, 0
1, 15906, Note_on_c, 1, 53, 127
1, 16122, Note_off_c, 1, 75, 0
1, 16122, Note_off_c, 1, 69, 0
1, 16122, Note_off_c, 1, 53, 0
1, 16123, Note_on_c, 1, 55, 127
1, 16123, Note_on_c, 1, 74, 127
1, 16123, Note_on_c, 1, 70, 127
1, 16194, Note_off_c, 1, 55, 0
1, 16195, Note_on_c, 1, 53, 127
1, 16266, Note_off_c, 1, 53, 0
1, 16338, Note_off_c, 1, 74, 0
1, 16339, Note_on_c, 1, 76, 127
1, 16411, Note_on_c, 1, 52, 127
1, 16482, Note_off_c, 1, 52, 0
1, 16554, Note_off_c, 1, 76, 0
1, 16555, Note_on_c, 1, 62, 127
1, 16555, Note_on_c, 1, 77, 127
1, 16849, Note_off_c, 1, 62, 0
1, 16988, Note_off_c, 1, 77, 0
1, 16989, Note_on_c, 1, 64, 127
1, 16989, Note_on_c, 1, 79, 127
1, 17328, Note_off_c, 1, 64, 0
1, 17422, Note_off_c, 1, 70, 0
1, 17423, Note_on_c, 1, 65, 127
1, 17423, Note_on_c, 1, 69, 127
1, 17428, Note_off_c, 1, 79, 0
1, 17640, Note_off_c, 1, 65, 0
1, 17859, Note_on_c, 1, 60, 127
1, 18075, Note_off_c, 1, 60, 0
1, 18292, Note_off_c, 1, 69, 0
1, 18402, Note_on_c, 1, 57, 127
1, 18510, Note_off_c, 1, 57, 0
1, 18511, Note_on_c, 1, 58, 127
1, 18728, Note_on_c, 1, 67, 127
1, 18936, Note_off_c, 1, 58, 0
1, 19118, Note_off_c, 1, 67, 0
1, 19162, Note_on_c, 1, 57, 127
1, 19162, Note_on_c, 1, 77, 127
1, 19270, Note_off_c, 1, 57, 0
1, 19271, Note_on_c, 1, 55, 127
1, 19379, Note_off_c, 1, 55, 0
1, 19380, Note_on_c, 1, 53, 127
1, 19597, Note_on_c, 1, 72, 127
1, 19788, Note_off_c, 1, 53, 0
1, 19924, Note_on_c, 1, 58, 127
1, 20032, Note_off_c, 1, 72, 0
1, 20032, Note_off_c, 1, 58, 0
1, 20033, Note_on_c, 1, 60, 127
1, 20033, Note_on_c, 1, 69, 127
1, 20141, Note_off_c, 1, 60, 0
1, 20142, Note_on_c, 1, 62, 127
1, 20250, Note_off_c, 1, 62, 0
1, 20251, Note_on_c, 1, 63, 127
1, 20467, Note_off_c, 1, 69, 0
1, 20468, Note_on_c, 1, 65, 127
1, 20684, Note_off_c, 1, 63, 0
1, 20902, Note_off_c, 1, 65, 0
1, 20903, Note_on_c, 1, 70, 127
1, 21337, Note_off_c, 1, 77, 0
1, 21773, Note_on_c, 1, 74, 127
1, 21882, Note_on_c, 1, 67, 127
1, 21988, Note_off_c, 1, 70, 0
1, 21989, Note_off_c, 1, 67, 0
1, 21990, Note_on_c, 1, 68, 127
1, 22206, Note_off_c, 1, 74, 0
1, 22423, Note_off_c, 1, 68, 0
1, 22642, Note_on_c, 1, 67, 127
1, 22642, Note_on_c, 1, 75, 127
1, 22750, Note_off_c, 1, 67, 0
1, 22751, Note_on_c, 1, 65, 127
1, 22859, Note_off_c, 1, 65, 0
1, 22860, Note_on_c, 1, 63, 127
1, 23077, Note_on_c, 1, 79, 127
1, 23256, Note_off_c, 1, 63, 0
1, 23294, Note_on_c, 1, 62, 127
1, 23402, Note_off_c, 1, 62, 0
1, 23511, Note_off_c, 1, 79, 0
1, 23512, Note_on_c, 1, 84, 127
1, 23730, Note_on_c, 1, 69, 127
1, 23838, Note_off_c, 1, 69, 0
1, 23839, Note_on_c, 1, 70, 127
1, 23945, Note_off_c, 1, 75, 0
1, 23946, Note_off_c, 1, 70, 0
1, 23947, Note_on_c, 1, 72, 127
1, 24163, Note_off_c, 1, 72, 0
1, 24381, Note_on_c, 1, 74, 127
1, 24815, Note_off_c, 1, 84, 0
1, 24816, Note_on_c, 1, 77, 127
1, 25033, Note_on_c, 1, 60, 127
1, 25141, Note_off_c, 1, 60, 0
1, 25250, Note_off_c, 1, 77, 0
1, 25251, Note_on_c, 1, 82, 127
1, 25686, Note_off_c, 1, 74, 0
1, 26555, Note_off_c, 1, 82, 0
1, 26556, Note_on_c, 1, 81, 127
1, 26665, Note_on_c, 1, 58, 127
1, 26773, Note_off_c, 1, 81, 0
1, 26773, Note_off_c, 1, 58, 0
1, 26774, Note_on_c, 1, 57, 127
1, 26882, Note_off_c, 1, 57, 0
1, 27210, Note_on_c, 1, 78, 127
1, 27427, Note_off_c, 1, 78, 0
1, 27755, Note_on_c, 1, 55, 127
1, 27863, Note_off_c, 1, 55, 0
1, 27864, Note_on_c, 1, 62, 127
1, 27864, Note_on_c, 1, 78, 127
1, 27864, Note_on_c, 1, 69, 127
1, 28079, Note_off_c, 1, 62, 0
1, 28297, Note_off_c, 1, 78, 0
1, 28298, Note_on_c, 1, 63, 127
1, 28369, Note_off_c, 1, 63, 0
1, 28586, Note_on_c, 1, 61, 127
1, 28657, Note_off_c, 1, 61, 0
1, 28729, Note_off_c, 1, 69, 0
1, 28730, Note_on_c, 1, 64, 127
1, 28730, Note_on_c, 1, 79, 127
1, 28947, Note_on_c, 1, 62, 127
1, 29115, Note_off_c, 1, 64, 0
1, 29164, Note_off_c, 1, 79, 0
1, 29164, Note_off_c, 1, 62, 0
1, 29165, Note_on_c, 1, 66, 127
1, 29165, Note_on_c, 1, 81, 127
1, 29382, Note_on_c, 1, 62, 127
1, 29561, Note_off_c, 1, 66, 0
1, 29598, Note_off_c, 1, 81, 0
1, 29598, Note_off_c, 1, 62, 0
1, 29599, Note_on_c, 1, 50, 127
1, 29599, Note_on_c, 1, 67, 127
1, 29599, Note_on_c, 1, 70, 127
1, 29814, Note_off_c, 1, 50, 0
1, 29815, Note_off_c, 1, 67, 0
1, 29816, Note_on_c, 1, 62, 127
1, 30032, Note_off_c, 1, 70, 0
1, 30032, Note_off_c, 1, 62, 0
1, 30033, Note_on_c, 1, 63, 127
1, 30033, Note_on_c, 1, 79, 127
1, 30104, Note_off_c, 1, 63, 0
1, 30105, Note_on_c, 1, 62, 127
1, 30176, Note_off_c, 1, 62, 0
1, 30321, Note_on_c, 1, 61, 127
1, 30392, Note_off_c, 1, 61, 0
1, 30464, Note_off_c, 1, 79, 0
1, 30465, Note_on_c, 1, 66, 127
1, 30465, Note_on_c, 1, 81, 127
1, 30682, Note_on_c, 1, 62, 127
1, 30827, Note_off_c, 1, 66, 0
1, 30898, Note_off_c, 1, 81, 0
1, 30898, Note_off_c, 1, 62, 0
1, 30899, Note_on_c, 1, 67, 127
1, 30899, Note_on_c, 1, 82, 127
1, 31116, Note_on_c, 1, 62, 127
1, 31261, Note_off_c, 1, 67, 0
1, 31332, Note_off_c, 1, 82, 0
1, 31332, Note_off_c, 1, 62, 0
1, 31333, Note_on_c, 1, 69, 127
1, 31333, Note_on_c, 1, 72, 127
1, 31550, Note_on_c, 1, 50, 127
1, 31718, Note_off_c, 1, 69, 0
1, 31767, Note_off_c, 1, 72, 0
1, 31767, Note_off_c, 1, 50, 0
1, 31768, Note_on_c, 1, 51, 127
1, 31768, Note_on_c, 1, 75, 127
1, 31768, Note_on_c, 1, 72, 127
1, 31839, Note_off_c, 1, 51, 0
1, 31840, Note_on_c, 1, 50, 127
1, 31911, Note_off_c, 1, 50, 0
1, 32056, Note_on_c, 1, 49, 127
1, 32127, Note_off_c, 1, 49, 0
1, 32199, Note_off_c, 1, 75, 0
1, 32199, Note_off_c, 1, 72, 0
1, 32200, Note_on_c, 1, 52, 127
1, 32200, Note_on_c, 1, 74, 127
1, 32200, Note_on_c, 1, 70, 127
1, 32416, Note_off_c, 1, 52, 0
1, 32417, Note_on_c, 1, 50, 127
1, 32633, Note_off_c, 1, 74, 0
1, 32633, Note_off_c, 1, 70, 0
1, 32633, Note_off_c, 1, 50, 0
1, 32634, Note_on_c, 1, 54, 127
1, 32634, Note_on_c, 1, 72, 127
1, 32634, Note_on_c, 1, 69, 127
1, 32850, Note_off_c, 1, 54, 0
1, 32851, Note_on_c, 1, 50, 127
1, 33067, Note_off_c, 1, 72, 0
1, 33067, Note_off_c, 1, 50, 0
1, 33068, Note_on_c, 1, 70, 127
1, 33068, Note_on_c, 1, 55, 127
1, 33176, Note_off_c, 1, 70, 0
1, 33177, Note_off_c, 1, 69, 0
1, 33286, Note_on_c, 1, 74, 127
1, 33502, Note_off_c, 1, 55, 0
1, 33503, Note_on_c, 1, 46, 127
1, 33503, Note_on_c, 1, 67, 127
1, 33719, Note_off_c, 1, 74, 0
1, 33937, Note_off_c, 1, 46, 0
1, 33938, Note_on_c, 1, 48, 127
1, 34372, Note_off_c, 1, 67, 0
1, 34372, Note_off_c, 1, 48, 0
1, 34373, Note_on_c, 1, 66, 127
1, 34801, Note_off_c, 1, 66, 0
1, 34808, Note_on_c, 1, 70, 127
1, 34808, Note_on_c, 1, 43, 127
1, 34808, Note_on_c, 1, 67, 127
1, 35007, Note_off_c, 1, 70, 0
1, 35025, Note_on_c, 1, 74, 127
1, 35218, Note_off_c, 1, 74, 0
1, 35241, Note_off_c, 1, 43, 0
1, 35242, Note_on_c, 1, 75, 127
1, 35242, Note_on_c, 1, 55, 127
1, 35313, Note_off_c, 1, 75, 0
1, 35530, Note_on_c, 1, 73, 127
1, 35601, Note_off_c, 1, 73, 0
1, 35674, Note_on_c, 1, 82, 127
1, 35890, Note_off_c, 1, 67, 0
1, 36107, Note_off_c, 1, 55, 0
1, 36108, Note_on_c, 1, 53, 127
1, 36396, Note_on_c, 1, 72, 127
1, 36467, Note_off_c, 1, 72, 0
1, 36539, Note_off_c, 1, 53, 0
1, 36540, Note_on_c, 1, 79, 127
1, 36540, Note_on_c, 1, 52, 127
1, 36756, Note_off_c, 1, 79, 0
1, 36973, Note_off_c, 1, 82, 0
1, 36973, Note_off_c, 1, 52, 0
1, 36974, Note_on_c, 1, 81, 127
1, 37408, Note_on_c, 1, 46, 127
1, 37624, Note_off_c, 1, 81, 0
1, 37841, Note_off_c, 1, 46, 0
1, 38059, Note_on_c, 1, 77, 127
1, 38275, Note_off_c, 1, 77, 0
1, 38276, Note_on_c, 1, 76, 127
1, 38276, Note_on_c, 1, 48, 127
1, 38707, Note_off_c, 1, 76, 0
1, 38711, Note_on_c, 1, 64, 127
1, 38999, Note_on_c, 1, 71, 127
1, 39070, Note_off_c, 1, 71, 0
1, 39142, Note_off_c, 1, 64, 0
1, 39143, Note_on_c, 1, 65, 127
1, 39576, Note_off_c, 1, 65, 0
1, 40005, Note_off_c, 1, 48, 0
1, 40012, Note_on_c, 1, 77, 127
1, 40012, Note_on_c, 1, 69, 127
1, 40012, Note_on_c, 1, 48, 127
1, 40228, Note_off_c, 1, 77, 0
1, 40229, Note_on_c, 1, 72, 127
1, 40445, Note_off_c, 1, 69, 0
1, 40445, Note_off_c, 1, 72, 0
1, 40446, Note_on_c, 1, 74, 127
1, 40446, Note_on_c, 1, 65, 127
1, 40517, Note_off_c, 1, 74, 0
1, 40734, Note_on_c, 1, 71, 127
1, 40805, Note_off_c, 1, 71, 0
1, 40877, Note_off_c, 1, 65, 0
1, 40878, Note_on_c, 1, 76, 127
1, 40878, Note_on_c, 1, 67, 127
1, 41127, Note_off_c, 1, 76, 0
1, 41312, Note_off_c, 1, 67, 0
1, 41741, Note_off_c, 1, 48, 0
1, 41748, Note_on_c, 1, 79, 127
1, 41748, Note_on_c, 1, 70, 127
1, 41856, Note_off_c, 1, 79, 0
1, 41857, Note_on_c, 1, 77, 127
1, 41965, Note_off_c, 1, 77, 0
1, 41966, Note_on_c, 1, 76, 127
1, 42182, Note_off_c, 1, 70, 0
1, 42183, Note_on_c, 1, 60, 127
1, 42183, Note_on_c, 1, 64, 127
1, 42373, Note_off_c, 1, 76, 0
1, 42400, Note_on_c, 1, 74, 127
1, 42508, Note_off_c, 1, 74, 0
1, 42509, Note_on_c, 1, 72, 127
1, 42617, Note_off_c, 1, 60, 0
1, 42617, Note_off_c, 1, 64, 0
1, 42617, Note_off_c, 1, 72, 0
1, 42618, Note_on_c, 1, 82, 127
1, 42618, Note_on_c, 1, 62, 127
1, 42618, Note_on_c, 1, 65, 127
1, 42726, Note_off_c, 1, 82, 0
1, 42727, Note_on_c, 1, 81, 127
1, 42835, Note_off_c, 1, 81, 0
1, 42836, Note_on_c, 1, 79, 127
1, 43052, Note_off_c, 1, 62, 0
1, 43052, Note_off_c, 1, 65, 0
1, 43053, Note_on_c, 1, 64, 127
1, 43053, Note_on_c, 1, 67, 127
1, 43255, Note_off_c, 1, 79, 0
1, 43271, Note_on_c, 1, 77, 127
1, 43379, Note_off_c, 1, 77, 0
1, 43380, Note_on_c, 1, 76, 127
1, 43488, Note_off_c, 1, 64, 0
1, 43488, Note_off_c, 1, 67, 0
1, 43488, Note_off_c, 1, 76, 0
1, 43489, Note_on_c, 1, 84, 127
1, 43489, Note_on_c, 1, 65, 127
1, 43489, Note_on_c, 1, 69, 127
1, 43597, Note_off_c, 1, 84, 0
1, 43598, Note_on_c, 1, 76, 127
1, 43706, Note_off_c, 1, 76, 0
1, 43707, Note_on_c, 1, 77, 127
1, 43815, Note_off_c, 1, 77, 0
1, 43816, Note_on_c, 1, 79, 127
1, 43924, Note_off_c, 1, 65, 0
1, 43924, Note_off_c, 1, 79, 0
1, 43925, Note_on_c, 1, 58, 127
1, 44252, Note_on_c, 1, 74, 127
1, 44360, Note_off_c, 1, 69, 0
1, 44360, Note_off_c, 1, 58, 0
1, 44360, Note_off_c, 1, 74, 0
1, 44361, Note_on_c, 1, 77, 127
1, 44361, Note_on_c, 1, 60, 127
1, 44361, Note_on_c, 1, 67, 127
1, 44523, Note_off_c, 1, 77, 0
1, 44524, Note_on_c, 1, 76, 127
1, 44577, Note_off_c, 1, 76, 0
1, 44793, Note_off_c, 1, 60, 0
1, 44794, Note_on_c, 1, 48, 127
1, 45227, Note_off_c, 1, 67, 0
1, 45227, Note_off_c, 1, 48, 0
1, 45228, Note_on_c, 1, 41, 127
1, 45228, Note_on_c, 1, 69, 127
1, 45228, Note_on_c, 1, 77, 127
1, 45658, Note_off_c, 1, 41, 0
1, 45661, Note_off_c, 1, 69, 0
1, 45694, Note_on_c, 1, 60, 127
1, 45767, Note_off_c, 1, 77, 0
1, 46020, Note_on_c, 1, 70, 127
1, 46128, Note_off_c, 1, 60, 0
1, 46128, Note_off_c, 1, 70, 0
1, 46129, Note_on_c, 1, 72, 127
1, 46129, Note_on_c, 1, 57, 127
1, 46237, Note_off_c, 1, 72, 0
1, 46238, Note_on_c, 1, 74, 127
1, 46346, Note_off_c, 1, 74, 0
1, 46347, Note_on_c, 1, 75, 127
1, 46563, Note_off_c, 1, 57, 0
1, 46564, Note_on_c, 1, 53, 127
1, 46780, Note_off_c, 1, 75, 0
1, 46998, Note_off_c, 1, 53, 0
1, 46999, Note_on_c, 1, 74, 127
1, 46999, Note_on_c, 1, 58, 127
1, 47107, Note_off_c, 1, 74, 0
1, 47108, Note_on_c, 1, 72, 127
1, 47216, Note_off_c, 1, 72, 0
1, 47217, Note_on_c, 1, 70, 127
1, 47434, Note_on_c, 1, 53, 127
1, 47602, Note_off_c, 1, 70, 0
1, 47761, Note_on_c, 1, 75, 127
1, 47869, Note_off_c, 1, 53, 0
1, 47869, Note_off_c, 1, 75, 0
1, 47870, Note_on_c, 1, 77, 127
1, 47870, Note_on_c, 1, 50, 127
1, 47978, Note_off_c, 1, 77, 0
1, 47979, Note_on_c, 1, 79, 127
1, 48087, Note_off_c, 1, 79, 0
1, 48088, Note_on_c, 1, 80, 127
1, 48304, Note_off_c, 1, 50, 0
1, 48305, Note_on_c, 1, 46, 127
1, 48521, Note_off_c, 1, 80, 0
1, 48739, Note_off_c, 1, 46, 0
1, 48740, Note_on_c, 1, 51, 127
1, 49174, Note_off_c, 1, 58, 0
1, 49175, Note_on_c, 1, 55, 127
1, 49609, Note_off_c, 1, 55, 0
1, 49610, Note_on_c, 1, 60, 127
1, 49828, Note_on_c, 1, 81, 127
1, 49936, Note_off_c, 1, 81, 0
1, 49937, Note_on_c, 1, 82, 127
1, 50045, Note_off_c, 1, 51, 0
1, 50045, Note_off_c, 1, 82, 0
1, 50046, Note_on_c, 1, 84, 127
1, 50306, Note_off_c, 1, 84, 0
1, 50479, Note_off_c, 1, 60, 0
1, 50480, Note_on_c, 1, 77, 127
1, 50480, Note_on_c, 1, 50, 127
1, 50588, Note_off_c, 1, 77, 0
1, 50589, Note_on_c, 1, 75, 127
1, 50697, Note_off_c, 1, 75, 0
1, 50698, Note_on_c, 1, 74, 127
1, 50915, Note_on_c, 1, 53, 127
1, 51105, Note_off_c, 1, 74, 0
1, 51132, Note_on_c, 1, 72, 127
1, 51240, Note_off_c, 1, 72, 0
1, 51349, Note_off_c, 1, 53, 0
1, 51350, Note_on_c, 1, 58, 127
1, 51568, Note_on_c, 1, 79, 127
1, 51676, Note_off_c, 1, 79, 0
1, 51677, Note_on_c, 1, 81, 127
1, 51785, Note_off_c, 1, 50, 0
1, 51785, Note_off_c, 1, 81, 0
1, 51786, Note_on_c, 1, 82, 127
1, 51786, Note_on_c, 1, 55, 127
1, 52046, Note_off_c, 1, 82, 0
1, 52219, Note_off_c, 1, 58, 0
1, 52219, Note_off_c, 1, 55, 0
1, 52220, Note_on_c, 1, 75, 127
1, 52220, Note_on_c, 1, 48, 127
1, 52328, Note_off_c, 1, 75, 0
1, 52329, Note_on_c, 1, 74, 127
1, 52437, Note_off_c, 1, 74, 0
1, 52438, Note_on_c, 1, 72, 127
1, 52655, Note_on_c, 1, 57, 127
1, 52861, Note_off_c, 1, 72, 0
1, 52871, Note_off_c, 1, 57, 0
1, 52872, Note_on_c, 1, 55, 127
1, 53089, Note_off_c, 1, 55, 0
1, 53307, Note_on_c, 1, 70, 127
1, 53407, Note_off_c, 1, 70, 0
1, 53416, Note_on_c, 1, 69, 127
1, 53516, Note_off_c, 1, 69, 0
1, 53524, Note_off_c, 1, 48, 0
1, 53525, Note_on_c, 1, 53, 127
1, 53742, Note_on_c, 1, 67, 127
1, 53850, Note_off_c, 1, 67, 0
1, 53851, Note_on_c, 1, 65, 127
1, 53959, Note_off_c, 1, 53, 0
1, 53960, Note_on_c, 1, 46, 127
1, 54066, Note_off_c, 1, 65, 0
1, 54394, Note_off_c, 1, 46, 0
1, 54395, Note_on_c, 1, 50, 127
1, 54828, Note_off_c, 1, 50, 0
1, 54829, Note_on_c, 1, 51, 127
1, 55046, Note_on_c, 1, 62, 127
1, 55262, Note_off_c, 1, 51, 0
1, 55262, Note_off_c, 1, 62, 0
1, 55263, Note_on_c, 1, 63, 127
1, 55913, Note_off_c, 1, 63, 0
1, 55914, Note_on_c, 1, 41, 127
1, 56130, Note_off_c, 1, 41, 0
1, 56131, Note_on_c, 1, 43, 127
1, 56131, Note_on_c, 1, 79, 127
1, 56131, Note_on_c, 1, 75, 127
1, 56202, Note_off_c, 1, 43, 0
1, 56203, Note_on_c, 1, 41, 127
1, 56274, Note_off_c, 1, 41, 0
1, 56419, Note_on_c, 1, 40, 127
1, 56490, Note_off_c, 1, 40, 0
1, 56562, Note_off_c, 1, 79, 0
1, 56562, Note_off_c, 1, 75, 0
1, 56563, Note_on_c, 1, 43, 127
1, 56563, Note_on_c, 1, 77, 127
1, 56563, Note_on_c, 1, 74, 127
1, 56779, Note_off_c, 1, 43, 0
1, 56780, Note_on_c, 1, 41, 127
1, 56996, Note_off_c, 1, 77, 0
1, 56996, Note_off_c, 1, 74, 0
1, 56996, Note_off_c, 1, 41, 0
1, 56997, Note_on_c, 1, 45, 127
1, 56997, Note_on_c, 1, 75, 127
1, 56997, Note_on_c, 1, 72, 127
1, 57214, Note_on_c, 1, 41, 127
1, 57223, Note_off_c, 1, 45, 0
1, 57430, Note_off_c, 1, 75, 0
1, 57430, Note_off_c, 1, 72, 0
1, 57430, Note_off_c, 1, 41, 0
1, 57431, Note_on_c, 1, 46, 127
1, 57431, Note_on_c, 1, 70, 127
1, 57431, Note_on_c, 1, 74, 127
1, 57648, Note_on_c, 1, 41, 127
1, 57668, Note_off_c, 1, 46, 0
1, 57781, Note_off_c, 1, 70, 0
1, 57863, Note_off_c, 1, 74, 0
1, 57864, Note_off_c, 1, 41, 0
1, 57865, Note_on_c, 1, 43, 127
1, 57865, Note_on_c, 1, 82, 127
1, 57865, Note_on_c, 1, 74, 127
1, 57936, Note_off_c, 1, 43, 0
1, 57937, Note_on_c, 1, 41, 127
1, 58008, Note_off_c, 1, 41, 0
1, 58153, Note_on_c, 1, 40, 127
1, 58224, Note_off_c, 1, 40, 0
1, 58296, Note_off_c, 1, 82, 0
1, 58296, Note_off_c, 1, 74, 0
1, 58297, Note_on_c, 1, 45, 127
1, 58297, Note_on_c, 1, 81, 127
1, 58297, Note_on_c, 1, 72, 127
1, 58514, Note_on_c, 1, 41, 127
1, 58546, Note_off_c, 1, 45, 0
1, 58731, Note_off_c, 1, 81, 0
1, 58731, Note_off_c, 1, 72, 0
1, 58731, Note_off_c, 1, 41, 0
1, 58732, Note_on_c, 1, 46, 127
1, 58732, Note_on_c, 1, 79, 127
1, 58732, Note_on_c, 1, 70, 127
1, 58949, Note_on_c, 1, 41, 127
1, 58992, Note_off_c, 1, 46, 0
1, 59165, Note_off_c, 1, 79, 0
1, 59165, Note_off_c, 1, 70, 0
1, 59165, Note_off_c, 1, 41, 0
1, 59166, Note_on_c, 1, 48, 127
1, 59166, Note_on_c, 1, 69, 127
1, 59166, Note_on_c, 1, 77, 127
1, 59383, Note_on_c, 1, 41, 127
1, 59449, Note_off_c, 1, 48, 0
1, 59528, Note_off_c, 1, 69, 0
1, 59595, Note_off_c, 1, 77, 0
1, 59600, Note_off_c, 1, 41, 0
1, 59601, Note_on_c, 1, 43, 127
1, 59601, Note_on_c, 1, 75, 127
1, 59601, Note_on_c, 1, 72, 127
1, 59672, Note_off_c, 1, 43, 0
1, 59673, Note_on_c, 1, 41, 127
1, 59744, Note_off_c, 1, 41, 0
1, 59889, Note_on_c, 1, 40, 127
1, 59960, Note_off_c, 1, 40, 0
1, 60032, Note_off_c, 1, 75, 0
1, 60032, Note_off_c, 1, 72, 0
1, 60033, Note_on_c, 1, 50, 127
1, 60033, Note_on_c, 1, 74, 127
1, 60033, Note_on_c, 1, 70, 127
1, 60250, Note_on_c, 1, 41, 127
1, 60327, Note_off_c, 1, 50, 0
1, 60466, Note_off_c, 1, 74, 0
1, 60466, Note_off_c, 1, 41, 0
1, 60467, Note_on_c, 1, 51, 127
1, 60467, Note_on_c, 1, 72, 127
1, 60772, Note_off_c, 1, 51, 0
1, 60900, Note_off_c, 1, 70, 0
1, 60900, Note_off_c, 1, 72, 0
1, 60901, Note_on_c, 1, 74, 127
1, 60901, Note_on_c, 1, 53, 127
1, 61009, Note_off_c, 1, 74, 0
1, 61010, Note_on_c, 1, 72, 127
1, 61118, Note_off_c, 1, 72, 0
1, 61119, Note_on_c, 1, 70, 127
1, 61335, Note_off_c, 1, 53, 0
1, 61335, Note_off_c, 1, 70, 0
1, 61336, Note_on_c, 1, 75, 127
1, 61336, Note_on_c, 1, 55, 127
1, 61336, Note_on_c, 1, 60, 127
1, 61444, Note_off_c, 1, 75, 0
1, 61445, Note_on_c, 1, 74, 127
1, 61553, Note_off_c, 1, 55, 0
1, 61553, Note_off_c, 1, 74, 0
1, 61554, Note_on_c, 1, 51, 127
1, 61554, Note_on_c, 1, 72, 127
1, 61770, Note_off_c, 1, 60, 0
1, 61770, Note_off_c, 1, 51, 0
1, 61770, Note_off_c, 1, 72, 0
1, 61771, Note_on_c, 1, 70, 127
1, 61771, Note_on_c, 1, 62, 127
1, 61771, Note_on_c, 1, 53, 127
1, 61933, Note_off_c, 1, 70, 0
1, 61934, Note_on_c, 1, 69, 127
1, 61987, Note_off_c, 1, 69, 0
1, 62203, Note_off_c, 1, 62, 0
1, 62204, Note_on_c, 1, 41, 127
1, 62204, Note_on_c, 1, 63, 127
1, 62634, Note_off_c, 1, 41, 0
1, 62637, Note_off_c, 1, 53, 0
1, 62637, Note_off_c, 1, 63, 0
1, 62646, Note_on_c, 1, 70, 127
1, 62646, Note_on_c, 1, 62, 127
1, 62646, Note_on_c, 1, 46, 127
1, 62864, Note_off_c, 1, 70, 0
1, 63083, Note_off_c, 1, 62, 0
1, 63084, Note_on_c, 1, 72, 127
1, 63084, Note_on_c, 1, 58, 127
1, 63156, Note_off_c, 1, 72, 0
1, 63376, Note_on_c, 1, 69, 127
1, 63448, Note_off_c, 1, 69, 0
1, 63522, Note_on_c, 1, 63, 127
1, 63959, Note_off_c, 1, 58, 0
1, 63959, Note_off_c, 1, 63, 0
1, 63960, Note_on_c, 1, 74, 127
1, 63960, Note_on_c, 1, 56, 127
1, 63960, Note_on_c, 1, 65, 127
1, 64178, Note_off_c, 1, 74, 0
1, 64399, Note_off_c, 1, 46, 0
1, 64399, Note_off_c, 1, 56, 0
1, 64400, Note_on_c, 1, 75, 127
1, 64400, Note_on_c, 1, 55, 127
1, 64620, Note_off_c, 1, 75, 0
1, 64841, Note_off_c, 1, 65, 0
1, 64841, Note_off_c, 1, 55, 0
1, 65286, Note_on_c, 1, 53, 127
1, 65286, Note_on_c, 1, 57, 127
1, 65727, Note_off_c, 1, 53, 0
1, 65727, Note_off_c, 1, 57, 0
1, 65728, Note_on_c, 1, 51, 127
1, 65728, Note_on_c, 1, 60, 127
1, 66173, Note_off_c, 1, 51, 0
1, 66173, Note_off_c, 1, 60, 0
1, 66174, Note_on_c, 1, 77, 127
1, 66174, Note_on_c, 1, 50, 127
1, 66174, Note_on_c, 1, 53, 127
1, 66174, Note_on_c, 1, 58, 127
1, 66174, Note_on_c, 1, 46, 127
1, 66397, Note_off_c, 1, 77, 0
1, 66398, Note_on_c, 1, 70, 127
1, 66621, Note_off_c, 1, 50, 0
1, 66621, Note_off_c, 1, 53, 0
1, 66621, Note_off_c, 1, 58, 0
1, 66621, Note_off_c, 1, 70, 0
1, 66622, Note_on_c, 1, 72, 127
1, 66622, Note_on_c, 1, 56, 127
1, 66622, Note_on_c, 1, 62, 127
1, 66622, Note_on_c, 1, 65, 127
1, 66695, Note_off_c, 1, 72, 0
1, 66918, Note_on_c, 1, 69, 127
1, 66991, Note_off_c, 1, 69, 0
1, 67065, Note_off_c, 1, 56, 0
1, 67065, Note_off_c, 1, 62, 0
1, 67065, Note_off_c, 1, 65, 0
1, 67066, Note_on_c, 1, 79, 127
1, 67066, Note_on_c, 1, 55, 127
1, 67066, Note_on_c, 1, 51, 127
1, 67501, Note_off_c, 1, 79, 0
1, 67513, Note_off_c, 1, 55, 0
1, 67513, Note_off_c, 1, 51, 0
1, 67514, Note_on_c, 1, 81, 127
1, 67514, Note_on_c, 1, 54, 127
1, 67514, Note_on_c, 1, 60, 127
1, 67942, Note_off_c, 1, 81, 0
1, 67961, Note_off_c, 1, 54, 0
1, 67961, Note_off_c, 1, 60, 0
1, 67962, Note_on_c, 1, 82, 127
1, 67962, Note_on_c, 1, 74, 127
1, 68191, Note_off_c, 1, 82, 0
1, 68405, Note_off_c, 1, 74, 0
1, 68421, Note_off_c, 1, 46, 0
1, 68422, Note_on_c, 1, 77, 127
1, 68422, Note_on_c, 1, 50, 127
1, 68422, Note_on_c, 1, 38, 127
1, 68422, Note_on_c, 1, 74, 127
1, 68661, Note_off_c, 1, 77, 0
1, 68662, Note_on_c, 1, 82, 127
1, 68920, Note_off_c, 1, 50, 0
1, 68920, Note_off_c, 1, 38, 0
1, 68920, Note_off_c, 1, 74, 0
1, 68920, Note_off_c, 1, 82, 0
1, 68921, Note_on_c, 1, 79, 127
1, 68921, Note_on_c, 1, 51, 127
1, 68921, Note_on_c, 1, 39, 127
1, 68921, Note_on_c, 1, 72, 127
1, 68921, Note_on_c, 1, 75, 127
1, 69179, Note_off_c, 1, 79, 0
1, 69180, Note_on_c, 1, 82, 127
1, 69456, Note_off_c, 1, 51, 0
1, 69456, Note_off_c, 1, 39, 0
1, 69456, Note_off_c, 1, 72, 0
1, 69456, Note_off_c, 1, 75, 0
1, 69456, Note_off_c, 1, 82, 0
1, 69457, Note_on_c, 1, 77, 127
1, 69457, Note_on_c, 1, 53, 127
1, 69457, Note_on_c, 1, 41, 127
1, 69457, Note_on_c, 1, 72, 127
1, 69457, Note_on_c, 1, 75, 127
1, 69733, Note_off_c, 1, 77, 0
1, 69734, Note_on_c, 1, 81, 127
1, 70010, Note_off_c, 1, 53, 0
1, 70010, Note_off_c, 1, 41, 0
1, 70010, Note_off_c, 1, 72, 0
1, 70010, Note_off_c, 1, 75, 0
1, 70010, Note_off_c, 1, 81, 0
1, 70027, Note_on_c, 1, 74, 127
1, 70027, Note_on_c, 1, 70, 127
1, 70027, Note_on_c, 1, 82, 127
1, 70027, Note_on_c, 1, 77, 127
1, 70027, Note_on_c, 1, 34, 127
1, 70027, Note_on_c, 1, 46, 127
1, 72427, Note_off_c, 1, 74, 0
1, 72427, Note_off_c, 1, 70, 0
1, 72427, Note_off_c, 1, 82, 0
1, 72427, Note_off_c, 1, 77, 0
1, 72427, Note_off_c, 1, 34, 0
1, 72427, Note_off_c, 1, 46, 0
1, 72528, Note_on_c, 1, 77, 127
1, 72699, Note_off_c, 1, 77, 0
1, 72739, Note_on_c, 1, 77, 127
1, 72739, Note_on_c, 1, 46, 127
1, 72868, Note_on_c, 1, 74, 127
1, 72996, Note_off_c, 1, 74, 0
1, 72997, Note_on_c, 1, 70, 127
1, 73125, Note_off_c, 1, 70, 0
1, 73126, Note_on_c, 1, 69, 127
1, 73254, Note_off_c, 1, 69, 0
1, 73513, Note_on_c, 1, 65, 127
1, 73641, Note_off_c, 1, 65, 0
1, 73770, Note_off_c, 1, 77, 0
1, 73771, Note_on_c, 1, 62, 127
1, 73899, Note_off_c, 1, 62, 0
1, 74029, Note_on_c, 1, 58, 127
1, 74416, Note_on_c, 1, 68, 127
1, 74544, Note_off_c, 1, 68, 0
1, 74802, Note_off_c, 1, 46, 0
1, 74802, Note_off_c, 1, 58, 0
1, 74803, Note_on_c, 1, 79, 127
1, 74803, Note_on_c, 1, 46, 127
1, 74932, Note_on_c, 1, 75, 127
1, 75060, Note_off_c, 1, 75, 0
1, 75061, Note_on_c, 1, 70, 127
1, 75189, Note_off_c, 1, 70, 0
1, 75190, Note_on_c, 1, 69, 127
1, 75318, Note_off_c, 1, 69, 0
1, 75577, Note_on_c, 1, 67, 127
1, 75705, Note_off_c, 1, 67, 0
1, 75834, Note_off_c, 1, 79, 0
1, 75835, Note_on_c, 1, 63, 127
1, 75963, Note_off_c, 1, 63, 0
1, 76093, Note_on_c, 1, 58, 127
1, 76866, Note_off_c, 1, 46, 0
1, 76866, Note_off_c, 1, 58, 0
1, 76867, Note_on_c, 1, 81, 127
1, 76867, Note_on_c, 1, 46, 127
1, 76996, Note_on_c, 1, 75, 127
1, 77124, Note_off_c, 1, 75, 0
1, 77125, Note_on_c, 1, 72, 127
1, 77253, Note_off_c, 1, 72, 0
1, 77254, Note_on_c, 1, 70, 127
1, 77382, Note_off_c, 1, 70, 0
1, 77641, Note_on_c, 1, 69, 127
1, 77769, Note_off_c, 1, 69, 0
1, 77898, Note_off_c, 1, 81, 0
1, 77899, Note_on_c, 1, 63, 127
1, 78027, Note_off_c, 1, 63, 0
1, 78157, Note_on_c, 1, 60, 127
1, 78285, Note_off_c, 1, 60, 0
1, 78930, Note_off_c, 1, 46, 0
1, 78931, Note_on_c, 1, 82, 127
1, 78931, Note_on_c, 1, 46, 127
1, 79060, Note_on_c, 1, 77, 127
1, 79188, Note_off_c, 1, 77, 0
1, 79189, Note_on_c, 1, 74, 127
1, 79317, Note_off_c, 1, 74, 0
1, 79318, Note_on_c, 1, 72, 127
1, 79446, Note_off_c, 1, 72, 0
1, 79704, Note_off_c, 1, 82, 0
1, 79705, Note_on_c, 1, 70, 127
1, 79833, Note_off_c, 1, 70, 0
1, 79963, Note_on_c, 1, 65, 127
1, 80091, Note_off_c, 1, 65, 0
1, 80221, Note_on_c, 1, 62, 127
1, 80349, Note_off_c, 1, 62, 0
1, 80479, Note_on_c, 1, 58, 127
1, 80609, Note_on_c, 1, 67, 127
1, 80737, Note_off_c, 1, 58, 0
1, 80738, Note_on_c, 1, 57, 127
1, 80866, Note_off_c, 1, 67, 0
1, 80995, Note_off_c, 1, 46, 0
1, 80995, Note_off_c, 1, 57, 0
1, 80996, Note_on_c, 1, 55, 127
1, 80996, Note_on_c, 1, 46, 127
1, 81125, Note_on_c, 1, 72, 127
1, 81254, Note_on_c, 1, 64, 127
1, 81382, Note_off_c, 1, 64, 0
1, 81383, Note_on_c, 1, 62, 127
1, 81511, Note_off_c, 1, 62, 0
1, 81512, Note_off_c, 1, 72, 0
1, 81641, Note_on_c, 1, 67, 127
1, 81769, Note_off_c, 1, 67, 0
1, 81770, Note_on_c, 1, 60, 127
1, 81898, Note_off_c, 1, 60, 0
1, 82027, Note_off_c, 1, 55, 0
1, 82027, Note_off_c, 1, 46, 0
1, 82028, Note_on_c, 1, 54, 127
1, 82028, Note_on_c, 1, 45, 127
1, 82157, Note_on_c, 1, 57, 127
1, 82285, Note_off_c, 1, 57, 0
1, 82286, Note_on_c, 1, 60, 127
1, 82414, Note_off_c, 1, 60, 0
1, 82415, Note_on_c, 1, 63, 127
1, 82543, Note_off_c, 1, 63, 0
1, 82544, Note_on_c, 1, 62, 127
1, 82672, Note_off_c, 1, 62, 0
1, 82802, Note_on_c, 1, 72, 127
1, 83060, Note_off_c, 1, 54, 0
1, 83060, Note_off_c, 1, 45, 0
1, 83061, Note_on_c, 1, 55, 127
1, 83061, Note_on_c, 1, 43, 127
1, 83190, Note_on_c, 1, 67, 127
1, 83314, Note_off_c, 1, 72, 0
1, 83318, Note_off_c, 1, 67, 0
1, 83448, Note_on_c, 1, 71, 127
1, 83576, Note_off_c, 1, 71, 0
1, 83706, Note_on_c, 1, 75, 127
1, 83834, Note_off_c, 1, 75, 0
1, 83835, Note_on_c, 1, 69, 127
1, 83963, Note_off_c, 1, 69, 0
1, 84093, Note_on_c, 1, 66, 127
1, 84221, Note_off_c, 1, 66, 0
1, 84607, Note_off_c, 1, 55, 0
1, 84609, Note_on_c, 1, 74, 127
1, 84737, Note_off_c, 1, 74, 0
1, 84867, Note_on_c, 1, 81, 127
1, 84875, Note_off_c, 1, 43, 0
1, 85062, Note_off_c, 1, 81, 0
1, 85386, Note_on_c, 1, 70, 127
1, 85386, Note_on_c, 1, 55, 127
1, 85449, Note_off_c, 1, 70, 0
1, 85450, Note_on_c, 1, 72, 127
1, 85513, Note_off_c, 1, 72, 0
1, 85578, Note_on_c, 1, 69, 127
1, 85641, Note_off_c, 1, 69, 0
1, 85771, Note_on_c, 1, 74, 127
1, 85899, Note_off_c, 1, 55, 0
1, 85899, Note_off_c, 1, 74, 0
1, 85900, Note_on_c, 1, 76, 127
1, 85900, Note_on_c, 1, 53, 127
1, 86028, Note_off_c, 1, 76, 0
1, 86029, Note_on_c, 1, 77, 127
1, 86157, Note_off_c, 1, 53, 0
1, 86157, Note_off_c, 1, 77, 0
1, 86158, Note_on_c, 1, 52, 127
1, 86158, Note_on_c, 1, 79, 127
1, 86287, Note_on_c, 1, 72, 127
1, 86415, Note_off_c, 1, 52, 0
1, 86415, Note_off_c, 1, 72, 0
1, 86416, Note_on_c, 1, 70, 127
1, 86416, Note_on_c, 1, 64, 127
1, 86544, Note_off_c, 1, 70, 0
1, 86545, Note_on_c, 1, 69, 127
1, 86673, Note_off_c, 1, 69, 0
1, 86795, Note_off_c, 1, 79, 0
1, 86931, Note_off_c, 1, 64, 0
1, 86932, Note_on_c, 1, 62, 127
1, 87062, Note_on_c, 1, 77, 127
1, 87190, Note_off_c, 1, 62, 0
1, 87190, Note_off_c, 1, 77, 0
1, 87191, Note_on_c, 1, 70, 127
1, 87191, Note_on_c, 1, 60, 127
1, 87319, Note_off_c, 1, 70, 0
1, 87320, Note_on_c, 1, 77, 127
1, 87448, Note_off_c, 1, 77, 0
1, 87449, Note_on_c, 1, 76, 127
1, 87449, Note_on_c, 1, 48, 127
1, 87512, Note_off_c, 1, 76, 0
1, 87641, Note_on_c, 1, 74, 127
1, 87700, Note_off_c, 1, 60, 0
1, 87704, Note_off_c, 1, 74, 0
1, 87834, Note_on_c, 1, 79, 127
1, 87962, Note_off_c, 1, 48, 0
1, 87962, Note_off_c, 1, 79, 0
1, 87963, Note_on_c, 1, 81, 127
1, 87963, Note_on_c, 1, 46, 127
1, 88091, Note_off_c, 1, 81, 0
1, 88092, Note_on_c, 1, 82, 127
1, 88220, Note_off_c, 1, 46, 0
1, 88220, Note_off_c, 1, 82, 0
1, 88221, Note_on_c, 1, 45, 127
1, 88221, Note_on_c, 1, 84, 127
1, 88350, Note_on_c, 1, 77, 127
1, 88478, Note_off_c, 1, 45, 0
1, 88478, Note_off_c, 1, 77, 0
1, 88479, Note_on_c, 1, 76, 127
1, 88479, Note_on_c, 1, 57, 127
1, 88607, Note_off_c, 1, 76, 0
1, 88608, Note_on_c, 1, 74, 127
1, 88736, Note_off_c, 1, 74, 0
1, 88856, Note_off_c, 1, 84, 0
1, 88995, Note_off_c, 1, 57, 0
1, 88996, Note_on_c, 1, 55, 127
1, 89126, Note_on_c, 1, 82, 127
1, 89254, Note_off_c, 1, 55, 0
1, 89255, Note_on_c, 1, 53, 127
1, 89320, Note_off_c, 1, 82, 0
1, 89513, Note_off_c, 1, 53, 0
1, 89514, Note_on_c, 1, 81, 127
1, 89514, Note_on_c, 1, 65, 127
1, 89642, Note_off_c, 1, 81, 0
1, 89643, Note_on_c, 1, 79, 127
1, 89771, Note_off_c, 1, 65, 0
1, 89771, Note_off_c, 1, 79, 0
1, 89772, Note_on_c, 1, 77, 127
1, 89772, Note_on_c, 1, 69, 127
1, 89901, Note_on_c, 1, 81, 127
1, 89966, Note_off_c, 1, 77, 0
1, 90029, Note_off_c, 1, 69, 0
1, 90029, Note_off_c, 1, 81, 0
1, 90030, Note_on_c, 1, 76, 127
1, 90030, Note_on_c, 1, 72, 127
1, 90159, Note_on_c, 1, 81, 127
1, 90224, Note_off_c, 1, 76, 0
1, 90287, Note_off_c, 1, 72, 0
1, 90287, Note_off_c, 1, 81, 0
1, 90288, Note_on_c, 1, 74, 127
1, 90288, Note_on_c, 1, 70, 127
1, 90417, Note_on_c, 1, 81, 127
1, 90544, Note_off_c, 1, 74, 0
1, 90545, Note_off_c, 1, 81, 0
1, 90546, Note_on_c, 1, 58, 127
1, 90675, Note_on_c, 1, 72, 127
1, 90799, Note_off_c, 1, 70, 0
1, 90803, Note_off_c, 1, 58, 0
1, 90803, Note_off_c, 1, 72, 0
1, 90804, Note_on_c, 1, 70, 127
1, 90804, Note_on_c, 1, 62, 127
1, 90933, Note_on_c, 1, 74, 127
1, 90998, Note_off_c, 1, 70, 0
1, 91061, Note_off_c, 1, 62, 0
1, 91061, Note_off_c, 1, 74, 0
1, 91062, Note_on_c, 1, 69, 127
1, 91062, Note_on_c, 1, 65, 127
1, 91191, Note_on_c, 1, 74, 127
1, 91256, Note_off_c, 1, 69, 0
1, 91319, Note_off_c, 1, 65, 0
1, 91319, Note_off_c, 1, 74, 0
1, 91320, Note_on_c, 1, 67, 127
1, 91320, Note_on_c, 1, 52, 127
1, 91448, Note_off_c, 1, 67, 0
1, 91449, Note_on_c, 1, 81, 127
1, 91577, Note_off_c, 1, 52, 0
1, 91577, Note_off_c, 1, 81, 0
1, 91578, Note_on_c, 1, 79, 127
1, 91578, Note_on_c, 1, 64, 127
1, 91706, Note_off_c, 1, 79, 0
1, 91707, Note_on_c, 1, 77, 127
1, 91835, Note_off_c, 1, 64, 0
1, 91835, Note_off_c, 1, 77, 0
1, 91836, Note_on_c, 1, 76, 127
1, 91836, Note_on_c, 1, 67, 127
1, 91965, Note_on_c, 1, 79, 127
1, 92030, Note_off_c, 1, 76, 0
1, 92093, Note_off_c, 1, 67, 0
1, 92093, Note_off_c, 1, 79, 0
1, 92094, Note_on_c, 1, 74, 127
1, 92094, Note_on_c, 1, 70, 127
1, 92223, Note_on_c, 1, 79, 127
1, 92288, Note_off_c, 1, 74, 0
1, 92351, Note_off_c, 1, 70, 0
1, 92351, Note_off_c, 1, 79, 0
1, 92352, Note_on_c, 1, 72, 127
1, 92352, Note_on_c, 1, 69, 127
1, 92481, Note_on_c, 1, 79, 127
1, 92608, Note_off_c, 1, 72, 0
1, 92609, Note_off_c, 1, 79, 0
1, 92610, Note_on_c, 1, 57, 127
1, 92739, Note_on_c, 1, 70, 127
1, 92863, Note_off_c, 1, 69, 0
1, 92867, Note_off_c, 1, 57, 0
1, 92867, Note_off_c, 1, 70, 0
1, 92868, Note_on_c, 1, 69, 127
1, 92868, Note_on_c, 1, 60, 127
1, 92997, Note_on_c, 1, 72, 127
1, 93062, Note_off_c, 1, 69, 0
1, 93125, Note_off_c, 1, 60, 0
1, 93125, Note_off_c, 1, 72, 0
1, 93126, Note_on_c, 1, 67, 127
1, 93126, Note_on_c, 1, 64, 127
1, 93255, Note_on_c, 1, 72, 127
1, 93320, Note_off_c, 1, 67, 0
1, 93383, Note_off_c, 1, 64, 0
1, 93383, Note_off_c, 1, 72, 0
1, 93384, Note_on_c, 1, 65, 127
1, 93384, Note_on_c, 1, 50, 127
1, 93512, Note_off_c, 1, 65, 0
1, 93513, Note_on_c, 1, 79, 127
1, 93641, Note_off_c, 1, 50, 0
1, 93641, Note_off_c, 1, 79, 0
1, 93642, Note_on_c, 1, 77, 127
1, 93642, Note_on_c, 1, 62, 127
1, 93770, Note_off_c, 1, 77, 0
1, 93771, Note_on_c, 1, 76, 127
1, 93899, Note_off_c, 1, 62, 0
1, 93899, Note_off_c, 1, 76, 0
1, 93900, Note_on_c, 1, 74, 127
1, 93900, Note_on_c, 1, 65, 127
1, 94029, Note_on_c, 1, 77, 127
1, 94094, Note_off_c, 1, 74, 0
1, 94157, Note_off_c, 1, 65, 0
1, 94157, Note_off_c, 1, 77, 0
1, 94158, Note_on_c, 1, 72, 127
1, 94158, Note_on_c, 1, 69, 127
1, 94287, Note_on_c, 1, 77, 127
1, 94352, Note_off_c, 1, 72, 0
1, 94415, Note_off_c, 1, 69, 0
1, 94415, Note_off_c, 1, 77, 0
1, 94416, Note_on_c, 1, 70, 127
1, 94416, Note_on_c, 1, 67, 127
1, 94545, Note_on_c, 1, 77, 127
1, 94672, Note_off_c, 1, 70, 0
1, 94673, Note_off_c, 1, 77, 0
1, 94674, Note_on_c, 1, 55, 127
1, 94803, Note_on_c, 1, 69, 127
1, 94927, Note_off_c, 1, 67, 0
1, 94931, Note_off_c, 1, 55, 0
1, 94931, Note_off_c, 1, 69, 0
1, 94932, Note_on_c, 1, 67, 127
1, 94932, Note_on_c, 1, 58, 127
1, 95061, Note_on_c, 1, 70, 127
1, 95126, Note_off_c, 1, 67, 0
1, 95189, Note_off_c, 1, 58, 0
1, 95189, Note_off_c, 1, 70, 0
1, 95190, Note_on_c, 1, 65, 127
1, 95190, Note_on_c, 1, 62, 127
1, 95319, Note_on_c, 1, 70, 127
1, 95384, Note_off_c, 1, 65, 0
1, 95447, Note_off_c, 1, 62, 0
1, 95447, Note_off_c, 1, 70, 0
1, 95448, Note_on_c, 1, 48, 127
1, 95448, Note_on_c, 1, 65, 127
1, 95576, Note_off_c, 1, 48, 0
1, 95577, Note_on_c, 1, 60, 127
1, 95619, Note_off_c, 1, 65, 0
1, 95620, Note_on_c, 1, 64, 127
1, 95705, Note_off_c, 1, 60, 0
1, 95705, Note_off_c, 1, 64, 0
1, 95706, Note_on_c, 1, 65, 127
1, 95706, Note_on_c, 1, 58, 127
1, 95749, Note_on_c, 1, 64, 127
1, 95769, Note_off_c, 1, 65, 0
1, 95812, Note_off_c, 1, 64, 0
1, 95834, Note_off_c, 1, 58, 0
1, 95835, Note_on_c, 1, 57, 127
1, 95963, Note_off_c, 1, 57, 0
1, 95964, Note_on_c, 1, 55, 127
1, 96092, Note_off_c, 1, 55, 0
1, 96093, Note_on_c, 1, 53, 127
1, 96221, Note_off_c, 1, 53, 0
1, 96222, Note_on_c, 1, 52, 127
1, 96222, Note_on_c, 1, 60, 127
1, 96350, Note_off_c, 1, 52, 0
1, 96351, Note_on_c, 1, 50, 127
1, 96479, Note_off_c, 1, 60, 0
1, 96479, Note_off_c, 1, 50, 0
1, 96480, Note_on_c, 1, 48, 127
1, 96480, Note_on_c, 1, 65, 127
1, 96608, Note_off_c, 1, 48, 0
1, 96609, Note_on_c, 1, 57, 127
1, 96737, Note_off_c, 1, 65, 0
1, 96737, Note_off_c, 1, 57, 0
1, 96738, Note_on_c, 1, 67, 127
1, 96738, Note_on_c, 1, 55, 127
1, 96866, Note_off_c, 1, 67, 0
1, 96866, Note_off_c, 1, 55, 0
1, 96867, Note_on_c, 1, 69, 127
1, 96867, Note_on_c, 1, 53, 127
1, 96995, Note_off_c, 1, 69, 0
1, 96995, Note_off_c, 1, 53, 0
1, 96996, Note_on_c, 1, 52, 127
1, 96996, Note_on_c, 1, 70, 127
1, 97124, Note_off_c, 1, 52, 0
1, 97125, Note_on_c, 1, 55, 127
1, 97253, Note_off_c, 1, 70, 0
1, 97253, Note_off_c, 1, 55, 0
1, 97254, Note_on_c, 1, 69, 127
1, 97254, Note_on_c, 1, 48, 127
1, 97317, Note_off_c, 1, 69, 0
1, 97318, Note_on_c, 1, 70, 127
1, 97381, Note_off_c, 1, 48, 0
1, 97381, Note_off_c, 1, 70, 0
1, 97382, Note_on_c, 1, 69, 127
1, 97382, Note_on_c, 1, 52, 127
1, 97445, Note_off_c, 1, 69, 0
1, 97446, Note_on_c, 1, 67, 127
1, 97509, Note_off_c, 1, 52, 0
1, 97509, Note_off_c, 1, 67, 0
1, 97510, Note_on_c, 1, 36, 127
1, 97510, Note_on_c, 1, 69, 127
1, 97639, Note_on_c, 1, 65, 127
1, 97767, Note_off_c, 1, 65, 0
1, 97768, Note_on_c, 1, 64, 127
1, 97896, Note_off_c, 1, 64, 0
1, 97897, Note_on_c, 1, 62, 127
1, 98021, Note_off_c, 1, 36, 0
1, 98025, Note_off_c, 1, 62, 0
1, 98026, Note_on_c, 1, 60, 127
1, 98154, Note_off_c, 1, 69, 0
1, 98154, Note_off_c, 1, 60, 0
1, 98155, Note_on_c, 1, 60, 127
1, 98155, Note_on_c, 1, 58, 127
1, 98283, Note_off_c, 1, 60, 0
1, 98283, Note_off_c, 1, 58, 0
1, 98284, Note_on_c, 1, 65, 127
1, 98284, Note_on_c, 1, 57, 127
1, 98412, Note_off_c, 1, 65, 0
1, 98412, Note_off_c, 1, 57, 0
1, 98413, Note_on_c, 1, 67, 127
1, 98413, Note_on_c, 1, 55, 127
1, 98541, Note_off_c, 1, 67, 0
1, 98541, Note_off_c, 1, 55, 0
1, 98542, Note_on_c, 1, 53, 127
1, 98542, Note_on_c, 1, 69, 127
1, 98670, Note_off_c, 1, 53, 0
1, 98671, Note_on_c, 1, 65, 127
1, 98671, Note_on_c, 1, 52, 127
1, 98736, Note_off_c, 1, 69, 0
1, 98799, Note_off_c, 1, 65, 0
1, 98799, Note_off_c, 1, 52, 0
1, 98800, Note_on_c, 1, 71, 127
1, 98800, Note_on_c, 1, 50, 127
1, 98928, Note_off_c, 1, 71, 0
1, 98928, Note_off_c, 1, 50, 0
1, 98929, Note_on_c, 1, 72, 127
1, 98929, Note_on_c, 1, 48, 127
1, 99057, Note_off_c, 1, 72, 0
1, 99057, Note_off_c, 1, 48, 0
1, 99058, Note_on_c, 1, 47, 127
1, 99058, Note_on_c, 1, 74, 127
1, 99186, Note_off_c, 1, 47, 0
1, 99187, Note_on_c, 1, 65, 127
1, 99187, Note_on_c, 1, 55, 127
1, 99314, Note_off_c, 1, 74, 0
1, 99315, Note_off_c, 1, 65, 0
1, 99315, Note_off_c, 1, 55, 0
1, 99316, Note_on_c, 1, 72, 127
1, 99316, Note_on_c, 1, 43, 127
1, 99379, Note_off_c, 1, 72, 0
1, 99380, Note_on_c, 1, 74, 127
1, 99443, Note_off_c, 1, 43, 0
1, 99443, Note_off_c, 1, 74, 0
1, 99444, Note_on_c, 1, 72, 127
1, 99444, Note_on_c, 1, 53, 127
1, 99507, Note_off_c, 1, 72, 0
1, 99508, Note_on_c, 1, 71, 127
1, 99571, Note_off_c, 1, 53, 0
1, 99571, Note_off_c, 1, 71, 0
1, 99572, Note_on_c, 1, 36, 127
1, 99572, Note_on_c, 1, 72, 127
1, 99701, Note_on_c, 1, 69, 127
1, 99829, Note_off_c, 1, 69, 0
1, 99830, Note_on_c, 1, 67, 127
1, 99958, Note_off_c, 1, 67, 0
1, 99959, Note_on_c, 1, 65, 127
1, 100083, Note_off_c, 1, 36, 0
1, 100087, Note_off_c, 1, 65, 0
1, 100088, Note_on_c, 1, 64, 127
1, 100216, Note_off_c, 1, 64, 0
1, 100217, Note_on_c, 1, 62, 127
1, 100345, Note_off_c, 1, 72, 0
1, 100345, Note_off_c, 1, 62, 0
1, 100346, Note_on_c, 1, 60, 127
1, 100346, Note_on_c, 1, 67, 127
1, 100474, Note_off_c, 1, 60, 0
1, 100475, Note_on_c, 1, 58, 127
1, 100603, Note_off_c, 1, 67, 0
1, 100603, Note_off_c, 1, 58, 0
1, 100604, Note_on_c, 1, 57, 127
1, 100604, Note_on_c, 1, 72, 127
1, 100732, Note_off_c, 1, 57, 0
1, 100733, Note_on_c, 1, 60, 127
1, 100861, Note_off_c, 1, 72, 0
1, 100861, Note_off_c, 1, 60, 0
1, 100862, Note_on_c, 1, 74, 127
1, 100862, Note_on_c, 1, 65, 127
1, 100990, Note_off_c, 1, 74, 0
1, 100990, Note_off_c, 1, 65, 0
1, 100991, Note_on_c, 1, 76, 127
1, 100991, Note_on_c, 1, 64, 127
1, 101119, Note_off_c, 1, 76, 0
1, 101119, Note_off_c, 1, 64, 0
1, 101120, Note_on_c, 1, 56, 127
1, 101120, Note_on_c, 1, 77, 127
1, 101248, Note_off_c, 1, 56, 0
1, 101249, Note_on_c, 1, 62, 127
1, 101349, Note_off_c, 1, 77, 0
1, 101377, Note_off_c, 1, 62, 0
1, 101378, Note_on_c, 1, 76, 127
1, 101378, Note_on_c, 1, 60, 127
1, 101441, Note_off_c, 1, 76, 0
1, 101442, Note_on_c, 1, 77, 127
1, 101505, Note_off_c, 1, 60, 0
1, 101505, Note_off_c, 1, 77, 0
1, 101506, Note_on_c, 1, 76, 127
1, 101506, Note_on_c, 1, 59, 127
1, 101569, Note_off_c, 1, 76, 0
1, 101570, Note_on_c, 1, 74, 127
1, 101633, Note_off_c, 1, 59, 0
1, 101633, Note_off_c, 1, 74, 0
1, 101634, Note_on_c, 1, 55, 127
1, 101634, Note_on_c, 1, 76, 127
1, 101762, Note_off_c, 1, 55, 0
1, 101763, Note_on_c, 1, 58, 127
1, 101891, Note_off_c, 1, 76, 0
1, 101891, Note_off_c, 1, 58, 0
1, 101892, Note_on_c, 1, 77, 127
1, 101892, Note_on_c, 1, 61, 127
1, 102020, Note_off_c, 1, 77, 0
1, 102020, Note_off_c, 1, 61, 0
1, 102021, Note_on_c, 1, 79, 127
1, 102021, Note_on_c, 1, 60, 127
1, 102149, Note_off_c, 1, 79, 0
1, 102149, Note_off_c, 1, 60, 0
1, 102150, Note_on_c, 1, 53, 127
1, 102150, Note_on_c, 1, 80, 127
1, 102278, Note_off_c, 1, 53, 0
1, 102279, Note_on_c, 1, 60, 127
1, 102379, Note_off_c, 1, 80, 0
1, 102407, Note_off_c, 1, 60, 0
1, 102408, Note_on_c, 1, 79, 127
1, 102408, Note_on_c, 1, 58, 127
1, 102471, Note_off_c, 1, 79, 0
1, 102472, Note_on_c, 1, 80, 127
1, 102535, Note_off_c, 1, 58, 0
1, 102535, Note_off_c, 1, 80, 0
1, 102536, Note_on_c, 1, 79, 127
1, 102536, Note_on_c, 1, 56, 127
1, 102599, Note_off_c, 1, 79, 0
1, 102600, Note_on_c, 1, 77, 127
1, 102663, Note_off_c, 1, 56, 0
1, 102663, Note_off_c, 1, 77, 0
1, 102664, Note_on_c, 1, 52, 127
1, 102664, Note_on_c, 1, 79, 127
1, 102792, Note_off_c, 1, 52, 0
1, 102793, Note_on_c, 1, 58, 127
1, 102921, Note_off_c, 1, 79, 0
1, 102921, Note_off_c, 1, 58, 0
1, 102922, Note_on_c, 1, 80, 127
1, 102922, Note_on_c, 1, 56, 127
1, 103050, Note_off_c, 1, 80, 0
1, 103050, Note_off_c, 1, 56, 0
1, 103051, Note_on_c, 1, 82, 127
1, 103051, Note_on_c, 1, 55, 127
1, 103179, Note_off_c, 1, 82, 0
1, 103179, Note_off_c, 1, 55, 0
1, 103180, Note_on_c, 1, 53, 127
1, 103180, Note_on_c, 1, 84, 127
1, 103308, Note_off_c, 1, 53, 0
1, 103309, Note_on_c, 1, 52, 127
1, 103430, Note_off_c, 1, 84, 0
1, 103437, Note_off_c, 1, 52, 0
1, 103438, Note_on_c, 1, 84, 127
1, 103438, Note_on_c, 1, 50, 127
1, 103492, Note_on_c, 1, 82, 127
1, 103501, Note_off_c, 1, 84, 0
1, 103554, Note_off_c, 1, 82, 0
1, 103565, Note_off_c, 1, 50, 0
1, 103566, Note_on_c, 1, 48, 127
1, 103639, Note_on_c, 1, 81, 127
1, 103694, Note_off_c, 1, 48, 0
1, 103694, Note_off_c, 1, 81, 0
1, 103695, Note_on_c, 1, 82, 127
1, 103695, Note_on_c, 1, 64, 127
1, 103823, Note_off_c, 1, 82, 0
1, 103824, Note_on_c, 1, 79, 127
1, 103952, Note_off_c, 1, 64, 0
1, 103952, Note_off_c, 1, 79, 0
1, 103953, Note_on_c, 1, 76, 127
1, 103953, Note_on_c, 1, 67, 127
1, 104081, Note_off_c, 1, 76, 0
1, 104082, Note_on_c, 1, 72, 127
1, 104210, Note_off_c, 1, 67, 0
1, 104210, Note_off_c, 1, 72, 0
1, 104211, Note_on_c, 1, 70, 127
1, 104211, Note_on_c, 1, 60, 127
1, 104339, Note_off_c, 1, 70, 0
1, 104340, Note_on_c, 1, 67, 127
1, 104468, Note_off_c, 1, 60, 0
1, 104468, Note_off_c, 1, 67, 0
1, 104469, Note_on_c, 1, 72, 127
1, 104469, Note_on_c, 1, 58, 127
1, 104597, Note_off_c, 1, 72, 0
1, 104598, Note_on_c, 1, 76, 127
1, 104726, Note_off_c, 1, 58, 0
1, 104726, Note_off_c, 1, 76, 0
1, 104727, Note_on_c, 1, 57, 127
1, 104727, Note_on_c, 1, 77, 127
1, 104856, Note_on_c, 1, 72, 127
1, 104984, Note_off_c, 1, 57, 0
1, 104984, Note_off_c, 1, 72, 0
1, 104985, Note_on_c, 1, 69, 127
1, 104985, Note_on_c, 1, 58, 127
1, 105113, Note_off_c, 1, 69, 0
1, 105114, Note_on_c, 1, 65, 127
1, 105242, Note_off_c, 1, 58, 0
1, 105242, Note_off_c, 1, 65, 0
1, 105243, Note_on_c, 1, 60, 127
1, 105362, Note_off_c, 1, 77, 0
1, 105373, Note_on_c, 1, 67, 127
1, 105501, Note_off_c, 1, 60, 0
1, 105501, Note_off_c, 1, 67, 0
1, 105502, Note_on_c, 1, 70, 127
1, 105502, Note_on_c, 1, 48, 127
1, 105630, Note_off_c, 1, 70, 0
1, 105631, Note_on_c, 1, 76, 127
1, 105759, Note_off_c, 1, 48, 0
1, 105764, Note_off_c, 1, 76, 0
1, 105768, Note_on_c, 1, 77, 127
1, 105768, Note_on_c, 1, 53, 127
1, 105897, Note_on_c, 1, 70, 127
1, 105897, Note_on_c, 1, 62, 127
1, 106027, Note_off_c, 1, 70, 0
1, 106027, Note_off_c, 1, 62, 0
1, 106028, Note_on_c, 1, 60, 127
1, 106028, Note_on_c, 1, 69, 127
1, 106158, Note_off_c, 1, 77, 0
1, 106158, Note_off_c, 1, 53, 0
1, 106159, Note_on_c, 1, 75, 127
1, 106159, Note_on_c, 1, 57, 127
1, 106287, Note_off_c, 1, 60, 0
1, 106288, Note_off_c, 1, 75, 0
1, 106288, Note_off_c, 1, 57, 0
1, 106289, Note_on_c, 1, 74, 127
1, 106289, Note_on_c, 1, 58, 127
1, 106419, Note_off_c, 1, 69, 0
1, 106681, Note_off_c, 1, 74, 0
1, 106681, Note_off_c, 1, 58, 0
1, 106812, Note_on_c, 1, 64, 127
1, 106812, Note_on_c, 1, 55, 127
1, 106943, Note_on_c, 1, 74, 127
1, 106943, Note_on_c, 1, 57, 127
1, 107073, Note_off_c, 1, 74, 0
1, 107073, Note_off_c, 1, 57, 0
1, 107074, Note_on_c, 1, 72, 127
1, 107074, Note_on_c, 1, 58, 127
1, 107204, Note_off_c, 1, 64, 0
1, 107204, Note_off_c, 1, 55, 0
1, 107205, Note_on_c, 1, 65, 127
1, 107205, Note_on_c, 1, 53, 127
1, 107333, Note_off_c, 1, 72, 0
1, 107333, Note_off_c, 1, 58, 0
1, 107334, Note_off_c, 1, 65, 0
1, 107334, Note_off_c, 1, 53, 0
1, 107335, Note_on_c, 1, 67, 127
1, 107335, Note_on_c, 1, 52, 127
1, 107466, Note_on_c, 1, 69, 127
1, 107466, Note_on_c, 1, 53, 127
1, 107596, Note_off_c, 1, 69, 0
1, 107596, Note_off_c, 1, 53, 0
1, 107597, Note_on_c, 1, 55, 127
1, 107597, Note_on_c, 1, 70, 127
1, 107727, Note_off_c, 1, 67, 0
1, 107727, Note_off_c, 1, 52, 0
1, 107856, Note_off_c, 1, 55, 0
1, 107857, Note_off_c, 1, 70, 0
1, 107858, Note_on_c, 1, 69, 127
1, 107858, Note_on_c, 1, 53, 127
1, 107989, Note_on_c, 1, 64, 127
1, 107989, Note_on_c, 1, 55, 127
1, 108054, Note_off_c, 1, 69, 0
1, 108120, Note_off_c, 1, 64, 0
1, 108120, Note_off_c, 1, 55, 0
1, 108121, Note_on_c, 1, 56, 127
1, 108121, Note_on_c, 1, 65, 127
1, 108254, Note_off_c, 1, 53, 0
1, 108255, Note_on_c, 1, 59, 127
1, 108255, Note_on_c, 1, 50, 127
1, 108386, Note_off_c, 1, 56, 0
1, 108387, Note_off_c, 1, 59, 0
1, 108387, Note_off_c, 1, 50, 0
1, 108388, Note_on_c, 1, 60, 127
1, 108388, Note_on_c, 1, 48, 127
1, 108521, Note_off_c, 1, 65, 0
1, 108655, Note_off_c, 1, 60, 0
1, 108656, Note_on_c, 1, 58, 127
1, 108656, Note_on_c, 1, 36, 127
1, 108918, Note_off_c, 1, 48, 0
1, 108922, Note_off_c, 1, 58, 0
1, 108922, Note_off_c, 1, 36, 0
1, 108939, Note_on_c, 1, 65, 127
1, 108939, Note_on_c, 1, 57, 127
1, 108939, Note_on_c, 1, 60, 127
1, 108939, Note_on_c, 1, 41, 127
1, 108939, Note_on_c, 1, 53, 127
1, 109714, Note_off_c, 1, 65, 0
1, 109748, Note_off_c, 1, 57, 0
1, 109748, Note_off_c, 1, 60, 0
1, 109816, Note_on_c, 1, 72, 127
1, 109930, Note_off_c, 1, 41, 0
1, 109944, Note_off_c, 1, 72, 0
1, 109973, Note_off_c, 1, 53, 0
1, 109982, Note_on_c, 1, 72, 127
1, 109982, Note_on_c, 1, 41, 127
1, 110111, Note_on_c, 1, 69, 127
1, 110239, Note_off_c, 1, 69, 0
1, 110240, Note_on_c, 1, 65, 127
1, 110368, Note_off_c, 1, 65, 0
1, 110369, Note_on_c, 1, 64, 127
1, 110497, Note_off_c, 1, 64, 0
1, 110756, Note_on_c, 1, 60, 127
1, 110884, Note_off_c, 1, 60, 0
1, 111013, Note_off_c, 1, 72, 0
1, 111014, Note_on_c, 1, 57, 127
1, 111142, Note_off_c, 1, 57, 0
1, 111272, Note_on_c, 1, 53, 127
1, 111659, Note_on_c, 1, 63, 127
1, 111787, Note_off_c, 1, 63, 0
1, 111917, Note_on_c, 1, 70, 127
1, 112045, Note_off_c, 1, 41, 0
1, 112045, Note_off_c, 1, 53, 0
1, 112045, Note_off_c, 1, 70, 0
1, 112046, Note_on_c, 1, 72, 127
1, 112046, Note_on_c, 1, 42, 127
1, 112175, Note_on_c, 1, 69, 127
1, 112303, Note_off_c, 1, 69, 0
1, 112304, Note_on_c, 1, 63, 127
1, 112432, Note_off_c, 1, 63, 0
1, 112433, Note_on_c, 1, 62, 127
1, 112561, Note_off_c, 1, 62, 0
1, 112819, Note_off_c, 1, 72, 0
1, 112820, Note_on_c, 1, 60, 127
1, 112948, Note_off_c, 1, 60, 0
1, 113078, Note_on_c, 1, 57, 127
1, 113206, Note_off_c, 1, 57, 0
1, 113336, Note_on_c, 1, 54, 127
1, 113464, Note_off_c, 1, 54, 0
1, 113723, Note_on_c, 1, 66, 127
1, 113851, Note_off_c, 1, 66, 0
1, 114109, Note_off_c, 1, 42, 0
1, 114110, Note_on_c, 1, 43, 127
1, 114110, Note_on_c, 1, 70, 127
1, 114239, Note_on_c, 1, 69, 127
1, 114366, Note_off_c, 1, 43, 0
1, 114367, Note_off_c, 1, 69, 0
1, 114368, Note_on_c, 1, 67, 127
1, 114368, Note_on_c, 1, 45, 127
1, 114496, Note_off_c, 1, 67, 0
1, 114497, Note_on_c, 1, 66, 127
1, 114624, Note_off_c, 1, 45, 0
1, 114625, Note_off_c, 1, 66, 0
1, 114626, Note_on_c, 1, 46, 127
1, 114745, Note_off_c, 1, 70, 0
1, 114882, Note_off_c, 1, 46, 0
1, 114885, Note_on_c, 1, 62, 127
1, 115013, Note_off_c, 1, 62, 0
1, 115014, Note_on_c, 1, 65, 127
1, 115142, Note_off_c, 1, 65, 0
1, 115143, Note_on_c, 1, 48, 127
1, 115143, Note_on_c, 1, 63, 127
1, 115400, Note_off_c, 1, 48, 0
1, 115788, Note_on_c, 1, 72, 127
1, 115916, Note_off_c, 1, 63, 0
1, 115916, Note_off_c, 1, 72, 0
1, 115917, Note_on_c, 1, 66, 127
1, 115917, Note_on_c, 1, 45, 127
1, 116045, Note_off_c, 1, 66, 0
1, 116046, Note_on_c, 1, 67, 127
1, 116174, Note_off_c, 1, 45, 0
1, 116174, Note_off_c, 1, 67, 0
1, 116175, Note_on_c, 1, 66, 127
1, 116175, Note_on_c, 1, 50, 127
1, 116304, Note_on_c, 1, 62, 127
1, 116432, Note_off_c, 1, 62, 0
1, 116433, Note_on_c, 1, 60, 127
1, 116561, Note_off_c, 1, 60, 0
1, 116562, Note_on_c, 1, 58, 127
1, 116690, Note_off_c, 1, 58, 0
1, 116820, Note_on_c, 1, 63, 127
1, 116948, Note_off_c, 1, 66, 0
1, 116948, Note_off_c, 1, 63, 0
1, 116949, Note_on_c, 1, 57, 127
1, 117075, Note_off_c, 1, 50, 0
1, 117077, Note_off_c, 1, 57, 0
1, 117078, Note_on_c, 1, 60, 127
1, 117206, Note_off_c, 1, 60, 0
1, 117207, Note_on_c, 1, 54, 127
1, 117335, Note_off_c, 1, 54, 0
1, 117336, Note_on_c, 1, 57, 127
1, 117464, Note_off_c, 1, 57, 0
1, 117465, Note_on_c, 1, 62, 127
1, 117465, Note_on_c, 1, 48, 127
1, 117593, Note_off_c, 1, 62, 0
1, 117594, Note_on_c, 1, 66, 127
1, 117721, Note_off_c, 1, 48, 0
1, 117722, Note_off_c, 1, 66, 0
1, 117723, Note_on_c, 1, 67, 127
1, 117723, Note_on_c, 1, 46, 127
1, 117852, Note_on_c, 1, 62, 127
1, 117917, Note_off_c, 1, 67, 0
1, 117979, Note_off_c, 1, 46, 0
1, 117980, Note_off_c, 1, 62, 0
1, 117981, Note_on_c, 1, 69, 127
1, 117981, Note_on_c, 1, 45, 127
1, 118110, Note_on_c, 1, 62, 127
1, 118175, Note_off_c, 1, 69, 0
1, 118237, Note_off_c, 1, 45, 0
1, 118238, Note_off_c, 1, 62, 0
1, 118239, Note_on_c, 1, 43, 127
1, 118239, Note_on_c, 1, 70, 127
1, 118368, Note_on_c, 1, 67, 127
1, 118496, Note_off_c, 1, 67, 0
1, 118497, Note_on_c, 1, 65, 127
1, 118625, Note_off_c, 1, 65, 0
1, 118626, Note_on_c, 1, 63, 127
1, 118750, Note_off_c, 1, 43, 0
1, 118754, Note_off_c, 1, 63, 0
1, 118884, Note_off_c, 1, 70, 0
1, 118884, Note_on_c, 1, 68, 127
1, 119012, Note_off_c, 1, 68, 0
1, 119013, Note_on_c, 1, 62, 127
1, 119141, Note_off_c, 1, 62, 0
1, 119142, Note_on_c, 1, 65, 127
1, 119270, Note_off_c, 1, 65, 0
1, 119271, Note_on_c, 1, 59, 127
1, 119400, Note_on_c, 1, 62, 127
1, 119527, Note_off_c, 1, 59, 0
1, 119528, Note_off_c, 1, 62, 0
1, 119529, Note_on_c, 1, 67, 127
1, 119529, Note_on_c, 1, 53, 127
1, 119657, Note_off_c, 1, 67, 0
1, 119658, Note_on_c, 1, 71, 127
1, 119786, Note_off_c, 1, 53, 0
1, 119786, Note_off_c, 1, 71, 0
1, 119787, Note_on_c, 1, 72, 127
1, 119787, Note_on_c, 1, 51, 127
1, 119916, Note_on_c, 1, 67, 127
1, 119981, Note_off_c, 1, 72, 0
1, 120044, Note_off_c, 1, 51, 0
1, 120045, Note_on_c, 1, 74, 127
1, 120045, Note_on_c, 1, 50, 127
1, 120110, Note_off_c, 1, 67, 0
1, 120175, Note_on_c, 1, 65, 127
1, 120302, Note_off_c, 1, 74, 0
1, 120303, Note_off_c, 1, 50, 0
1, 120303, Note_off_c, 1, 65, 0
1, 120304, Note_on_c, 1, 63, 127
1, 120304, Note_on_c, 1, 48, 127
1, 120432, Note_off_c, 1, 63, 0
1, 120433, Note_on_c, 1, 67, 127
1, 120561, Note_off_c, 1, 48, 0
1, 120561, Note_off_c, 1, 67, 0
1, 120562, Note_on_c, 1, 69, 127
1, 120562, Note_on_c, 1, 60, 127
1, 120690, Note_off_c, 1, 69, 0
1, 120691, Note_on_c, 1, 71, 127
1, 120819, Note_off_c, 1, 60, 0
1, 120819, Note_off_c, 1, 71, 0
1, 120820, Note_on_c, 1, 72, 127
1, 120820, Note_on_c, 1, 63, 127
1, 120949, Note_on_c, 1, 75, 127
1, 121014, Note_off_c, 1, 72, 0
1, 121077, Note_off_c, 1, 63, 0
1, 121077, Note_off_c, 1, 75, 0
1, 121078, Note_on_c, 1, 70, 127
1, 121078, Note_on_c, 1, 67, 127
1, 121207, Note_on_c, 1, 75, 127
1, 121272, Note_off_c, 1, 70, 0
1, 121335, Note_off_c, 1, 67, 0
1, 121335, Note_off_c, 1, 75, 0
1, 121336, Note_on_c, 1, 68, 127
1, 121336, Note_on_c, 1, 65, 127
1, 121465, Note_on_c, 1, 75, 127
1, 121592, Note_off_c, 1, 68, 0
1, 121593, Note_off_c, 1, 75, 0
1, 121594, Note_on_c, 1, 53, 127
1, 121723, Note_on_c, 1, 67, 127
1, 121847, Note_off_c, 1, 65, 0
1, 121851, Note_off_c, 1, 53, 0
1, 121851, Note_off_c, 1, 67, 0
1, 121852, Note_on_c, 1, 65, 127
1, 121852, Note_on_c, 1, 56, 127
1, 121981, Note_on_c, 1, 68, 127
1, 122046, Note_off_c, 1, 65, 0
1, 122109, Note_off_c, 1, 56, 0
1, 122109, Note_off_c, 1, 68, 0
1, 122110, Note_on_c, 1, 63, 127
1, 122110, Note_on_c, 1, 60, 127
1, 122239, Note_on_c, 1, 68, 127
1, 122304, Note_off_c, 1, 63, 0
1, 122367, Note_off_c, 1, 60, 0
1, 122367, Note_off_c, 1, 68, 0
1, 122368, Note_on_c, 1, 62, 127
1, 122368, Note_on_c, 1, 46, 127
1, 122496, Note_off_c, 1, 62, 0
1, 122497, Note_on_c, 1, 65, 127
1, 122625, Note_off_c, 1, 46, 0
1, 122625, Note_off_c, 1, 65, 0
1, 122626, Note_on_c, 1, 67, 127
1, 122626, Note_on_c, 1, 58, 127
1, 122754, Note_off_c, 1, 67, 0
1, 122755, Note_on_c, 1, 69, 127
1, 122883, Note_off_c, 1, 58, 0
1, 122883, Note_off_c, 1, 69, 0
1, 122884, Note_on_c, 1, 70, 127
1, 122884, Note_on_c, 1, 62, 127
1, 123013, Note_on_c, 1, 74, 127
1, 123078, Note_off_c, 1, 70, 0
1, 123141, Note_off_c, 1, 62, 0
1, 123141, Note_off_c, 1, 74, 0
1, 123142, Note_on_c, 1, 68, 127
1, 123142, Note_on_c, 1, 65, 127
1, 123271, Note_on_c, 1, 74, 127
1, 123336, Note_off_c, 1, 68, 0
1, 123399, Note_off_c, 1, 65, 0
1, 123399, Note_off_c, 1, 74, 0
1, 123400, Note_on_c, 1, 67, 127
1, 123400, Note_on_c, 1, 63, 127
1, 123529, Note_on_c, 1, 74, 127
1, 123656, Note_off_c, 1, 67, 0
1, 123657, Note_off_c, 1, 74, 0
1, 123658, Note_on_c, 1, 51, 127
1, 123787, Note_on_c, 1, 65, 127
1, 123911, Note_off_c, 1, 63, 0
1, 123915, Note_off_c, 1, 51, 0
1, 123915, Note_off_c, 1, 65, 0
1, 123916, Note_on_c, 1, 63, 127
1, 123916, Note_on_c, 1, 55, 127
1, 124045, Note_on_c, 1, 67, 127
1, 124110, Note_off_c, 1, 63, 0
1, 124173, Note_off_c, 1, 55, 0
1, 124173, Note_off_c, 1, 67, 0
1, 124174, Note_on_c, 1, 62, 127
1, 124174, Note_on_c, 1, 58, 127
1, 124303, Note_on_c, 1, 67, 127
1, 124368, Note_off_c, 1, 62, 0
1, 124431, Note_off_c, 1, 58, 0
1, 124431, Note_off_c, 1, 67, 0
1, 124432, Note_on_c, 1, 60, 127
1, 124432, Note_on_c, 1, 44, 127
1, 124560, Note_off_c, 1, 60, 0
1, 124561, Note_on_c, 1, 63, 127
1, 124689, Note_off_c, 1, 44, 0
1, 124689, Note_off_c, 1, 63, 0
1, 124690, Note_on_c, 1, 65, 127
1, 124690, Note_on_c, 1, 56, 127
1, 124818, Note_off_c, 1, 65, 0
1, 124819, Note_on_c, 1, 67, 127
1, 124947, Note_off_c, 1, 56, 0
1, 124947, Note_off_c, 1, 67, 0
1, 124948, Note_on_c, 1, 68, 127
1, 124948, Note_on_c, 1, 60, 127
1, 125077, Note_on_c, 1, 72, 127
1, 125142, Note_off_c, 1, 68, 0
1, 125205, Note_off_c, 1, 60, 0
1, 125205, Note_off_c, 1, 72, 0
1, 125206, Note_on_c, 1, 67, 127
1, 125206, Note_on_c, 1, 63, 127
1, 125335, Note_on_c, 1, 72, 127
1, 125400, Note_off_c, 1, 67, 0
1, 125463, Note_off_c, 1, 63, 0
1, 125463, Note_off_c, 1, 72, 0
1, 125464, Note_on_c, 1, 65, 127
1, 125464, Note_on_c, 1, 62, 127
1, 125593, Note_on_c, 1, 72, 127
1, 125720, Note_off_c, 1, 65, 0
1, 125721, Note_off_c, 1, 72, 0
1, 125722, Note_on_c, 1, 50, 127
1, 125851, Note_on_c, 1, 63, 127
1, 125975, Note_off_c, 1, 62, 0
1, 125979, Note_off_c, 1, 50, 0
1, 125979, Note_off_c, 1, 63, 0
1, 125980, Note_on_c, 1, 62, 127
1, 125980, Note_on_c, 1, 53, 127
1, 126109, Note_on_c, 1, 65, 127
1, 126141, Note_off_c, 1, 62, 0
1, 126237, Note_off_c, 1, 53, 0
1, 126237, Note_off_c, 1, 65, 0
1, 126238, Note_on_c, 1, 60, 127
1, 126238, Note_on_c, 1, 56, 127
1, 126367, Note_on_c, 1, 65, 127
1, 126399, Note_off_c, 1, 60, 0
1, 126495, Note_off_c, 1, 56, 0
1, 126495, Note_off_c, 1, 65, 0
1, 126496, Note_on_c, 1, 43, 127
1, 126496, Note_on_c, 1, 60, 127
1, 126624, Note_off_c, 1, 43, 0
1, 126624, Note_off_c, 1, 60, 0
1, 126625, Note_on_c, 1, 59, 127
1, 126625, Note_on_c, 1, 55, 127
1, 126688, Note_off_c, 1, 59, 0
1, 126689, Note_on_c, 1, 60, 127
1, 126752, Note_off_c, 1, 55, 0
1, 126752, Note_off_c, 1, 60, 0
1, 126753, Note_on_c, 1, 59, 127
1, 126753, Note_on_c, 1, 53, 127
1, 126816, Note_off_c, 1, 59, 0
1, 126817, Note_on_c, 1, 60, 127
1, 126880, Note_off_c, 1, 53, 0
1, 126880, Note_off_c, 1, 60, 0
1, 126881, Note_on_c, 1, 59, 127
1, 126881, Note_on_c, 1, 51, 127
1, 126944, Note_off_c, 1, 59, 0
1, 126945, Note_on_c, 1, 60, 127
1, 127008, Note_off_c, 1, 51, 0
1, 127008, Note_off_c, 1, 60, 0
1, 127009, Note_on_c, 1, 50, 127
1, 127009, Note_on_c, 1, 59, 127
1, 127137, Note_off_c, 1, 50, 0
1, 127138, Note_on_c, 1, 48, 127
1, 127203, Note_off_c, 1, 59, 0
1, 127266, Note_off_c, 1, 48, 0
1, 127267, Note_on_c, 1, 47, 127
1, 127267, Note_on_c, 1, 55, 127
1, 127395, Note_off_c, 1, 47, 0
1, 127396, Note_on_c, 1, 45, 127
1, 127524, Note_off_c, 1, 55, 0
1, 127524, Note_off_c, 1, 45, 0
1, 127525, Note_on_c, 1, 43, 127
1, 127525, Note_on_c, 1, 60, 127
1, 127653, Note_off_c, 1, 43, 0
1, 127654, Note_on_c, 1, 51, 127
1, 127782, Note_off_c, 1, 60, 0
1, 127782, Note_off_c, 1, 51, 0
1, 127783, Note_on_c, 1, 50, 127
1, 127783, Note_on_c, 1, 62, 127
1, 127911, Note_off_c, 1, 50, 0
1, 127911, Note_off_c, 1, 62, 0
1, 127912, Note_on_c, 1, 48, 127
1, 127912, Note_on_c, 1, 63, 127
1, 128040, Note_off_c, 1, 48, 0
1, 128040, Note_off_c, 1, 63, 0
1, 128041, Note_on_c, 1, 47, 127
1, 128041, Note_on_c, 1, 65, 127
1, 128169, Note_off_c, 1, 47, 0
1, 128170, Note_on_c, 1, 50, 127
1, 128298, Note_off_c, 1, 65, 0
1, 128298, Note_off_c, 1, 50, 0
1, 128299, Note_on_c, 1, 63, 127
1, 128299, Note_on_c, 1, 43, 127
1, 128362, Note_off_c, 1, 63, 0
1, 128363, Note_on_c, 1, 65, 127
1, 128426, Note_off_c, 1, 43, 0
1, 128426, Note_off_c, 1, 65, 0
1, 128427, Note_on_c, 1, 63, 127
1, 128427, Note_on_c, 1, 47, 127
1, 128490, Note_off_c, 1, 63, 0
1, 128491, Note_on_c, 1, 62, 127
1, 128554, Note_off_c, 1, 47, 0
1, 128554, Note_off_c, 1, 62, 0
1, 128555, Note_on_c, 1, 31, 127
1, 128555, Note_on_c, 1, 63, 127
1, 128684, Note_on_c, 1, 60, 127
1, 128812, Note_off_c, 1, 60, 0
1, 128813, Note_on_c, 1, 59, 127
1, 128932, Note_off_c, 1, 31, 0
1, 128941, Note_off_c, 1, 59, 0
1, 128942, Note_on_c, 1, 57, 127
1, 129070, Note_off_c, 1, 57, 0
1, 129071, Note_on_c, 1, 55, 127
1, 129199, Note_off_c, 1, 63, 0
1, 129199, Note_off_c, 1, 55, 0
1, 129200, Note_on_c, 1, 53, 127
1, 129200, Note_on_c, 1, 55, 127
1, 129328, Note_off_c, 1, 53, 0
1, 129328, Note_off_c, 1, 55, 0
1, 129329, Note_on_c, 1, 51, 127
1, 129329, Note_on_c, 1, 60, 127
1, 129457, Note_off_c, 1, 51, 0
1, 129457, Note_off_c, 1, 60, 0
1, 129458, Note_on_c, 1, 50, 127
1, 129458, Note_on_c, 1, 62, 127
1, 129586, Note_off_c, 1, 50, 0
1, 129586, Note_off_c, 1, 62, 0
1, 129587, Note_on_c, 1, 48, 127
1, 129587, Note_on_c, 1, 63, 127
1, 129715, Note_off_c, 1, 48, 0
1, 129715, Note_off_c, 1, 63, 0
1, 129716, Note_on_c, 1, 46, 127
1, 129716, Note_on_c, 1, 60, 127
1, 129844, Note_off_c, 1, 46, 0
1, 129844, Note_off_c, 1, 60, 0
1, 129845, Note_on_c, 1, 45, 127
1, 129845, Note_on_c, 1, 66, 127
1, 129973, Note_off_c, 1, 45, 0
1, 129973, Note_off_c, 1, 66, 0
1, 129974, Note_on_c, 1, 43, 127
1, 129974, Note_on_c, 1, 67, 127
1, 130102, Note_off_c, 1, 43, 0
1, 130102, Note_off_c, 1, 67, 0
1, 130103, Note_on_c, 1, 42, 127
1, 130103, Note_on_c, 1, 69, 127
1, 130231, Note_off_c, 1, 42, 0
1, 130232, Note_on_c, 1, 50, 127
1, 130232, Note_on_c, 1, 60, 127
1, 130359, Note_off_c, 1, 69, 0
1, 130360, Note_off_c, 1, 50, 0
1, 130360, Note_off_c, 1, 60, 0
1, 130361, Note_on_c, 1, 38, 127
1, 130361, Note_on_c, 1, 67, 127
1, 130489, Note_off_c, 1, 38, 0
1, 130489, Note_off_c, 1, 67, 0
1, 130490, Note_on_c, 1, 48, 127
1, 130490, Note_on_c, 1, 66, 127
1, 130618, Note_off_c, 1, 48, 0
1, 130618, Note_off_c, 1, 66, 0
1, 130619, Note_on_c, 1, 31, 127
1, 130619, Note_on_c, 1, 67, 127
1, 130748, Note_on_c, 1, 63, 127
1, 130876, Note_off_c, 1, 63, 0
1, 130877, Note_on_c, 1, 62, 127
1, 130996, Note_off_c, 1, 31, 0
1, 131005, Note_off_c, 1, 62, 0
1, 131006, Note_on_c, 1, 60, 127
1, 131134, Note_off_c, 1, 60, 0
1, 131135, Note_on_c, 1, 59, 127
1, 131263, Note_off_c, 1, 59, 0
1, 131264, Note_on_c, 1, 57, 127
1, 131319, Note_off_c, 1, 67, 0
1, 131392, Note_off_c, 1, 57, 0
1, 131393, Note_on_c, 1, 55, 127
1, 131393, Note_on_c, 1, 62, 127
1, 131521, Note_off_c, 1, 55, 0
1, 131522, Note_on_c, 1, 53, 127
1, 131650, Note_off_c, 1, 62, 0
1, 131650, Note_off_c, 1, 53, 0
1, 131651, Note_on_c, 1, 51, 127
1, 131651, Note_on_c, 1, 67, 127
1, 131779, Note_off_c, 1, 51, 0
1, 131780, Note_on_c, 1, 55, 127
1, 131908, Note_off_c, 1, 67, 0
1, 131908, Note_off_c, 1, 55, 0
1, 131909, Note_on_c, 1, 60, 127
1, 131909, Note_on_c, 1, 69, 127
1, 132037, Note_off_c, 1, 60, 0
1, 132037, Note_off_c, 1, 69, 0
1, 132038, Note_on_c, 1, 62, 127
1, 132038, Note_on_c, 1, 71, 127
1, 132166, Note_off_c, 1, 62, 0
1, 132166, Note_off_c, 1, 71, 0
1, 132167, Note_on_c, 1, 54, 127
1, 132167, Note_on_c, 1, 72, 127
1, 132295, Note_off_c, 1, 54, 0
1, 132296, Note_on_c, 1, 63, 127
1, 132403, Note_off_c, 1, 72, 0
1, 132425, Note_off_c, 1, 63, 0
1, 132426, Note_on_c, 1, 71, 127
1, 132426, Note_on_c, 1, 62, 127
1, 132489, Note_off_c, 1, 71, 0
1, 132490, Note_on_c, 1, 72, 127
1, 132553, Note_off_c, 1, 62, 0
1, 132553, Note_off_c, 1, 72, 0
1, 132554, Note_on_c, 1, 71, 127
1, 132554, Note_on_c, 1, 60, 127
1, 132617, Note_off_c, 1, 71, 0
1, 132618, Note_on_c, 1, 69, 127
1, 132681, Note_off_c, 1, 60, 0
1, 132681, Note_off_c, 1, 69, 0
1, 132682, Note_on_c, 1, 55, 127
1, 132682, Note_on_c, 1, 71, 127
1, 132810, Note_off_c, 1, 55, 0
1, 132811, Note_on_c, 1, 62, 127
1, 132939, Note_off_c, 1, 71, 0
1, 132939, Note_off_c, 1, 62, 0
1, 132940, Note_on_c, 1, 63, 127
1, 132940, Note_on_c, 1, 72, 127
1, 133068, Note_off_c, 1, 63, 0
1, 133068, Note_off_c, 1, 72, 0
1, 133069, Note_on_c, 1, 65, 127
1, 133069, Note_on_c, 1, 74, 127
1, 133197, Note_off_c, 1, 65, 0
1, 133197, Note_off_c, 1, 74, 0
1, 133198, Note_on_c, 1, 57, 127
1, 133198, Note_on_c, 1, 75, 127
1, 133326, Note_off_c, 1, 57, 0
1, 133327, Note_on_c, 1, 67, 127
1, 133434, Note_off_c, 1, 75, 0
1, 133456, Note_off_c, 1, 67, 0
1, 133457, Note_on_c, 1, 74, 127
1, 133457, Note_on_c, 1, 65, 127
1, 133520, Note_off_c, 1, 74, 0
1, 133521, Note_on_c, 1, 75, 127
1, 133584, Note_off_c, 1, 65, 0
1, 133584, Note_off_c, 1, 75, 0
1, 133585, Note_on_c, 1, 74, 127
1, 133585, Note_on_c, 1, 63, 127
1, 133648, Note_off_c, 1, 74, 0
1, 133649, Note_on_c, 1, 72, 127
1, 133712, Note_off_c, 1, 63, 0
1, 133712, Note_off_c, 1, 72, 0
1, 133713, Note_on_c, 1, 59, 127
1, 133713, Note_on_c, 1, 74, 127
1, 133841, Note_off_c, 1, 59, 0
1, 133842, Note_on_c, 1, 65, 127
1, 133970, Note_off_c, 1, 74, 0
1, 133970, Note_off_c, 1, 65, 0
1, 133971, Note_on_c, 1, 63, 127
1, 133971, Note_on_c, 1, 75, 127
1, 134099, Note_off_c, 1, 63, 0
1, 134099, Note_off_c, 1, 75, 0
1, 134100, Note_on_c, 1, 62, 127
1, 134100, Note_on_c, 1, 77, 127
1, 134228, Note_off_c, 1, 62, 0
1, 134228, Note_off_c, 1, 77, 0
1, 134229, Note_on_c, 1, 60, 127
1, 134229, Note_on_c, 1, 79, 127
1, 134357, Note_off_c, 1, 60, 0
1, 134358, Note_on_c, 1, 63, 127
1, 134458, Note_off_c, 1, 79, 0
1, 134486, Note_off_c, 1, 63, 0
1, 134487, Note_on_c, 1, 79, 127
1, 134487, Note_on_c, 1, 62, 127
1, 134550, Note_off_c, 1, 79, 0
1, 134551, Note_on_c, 1, 77, 127
1, 134614, Note_off_c, 1, 62, 0
1, 134614, Note_off_c, 1, 77, 0
1, 134615, Note_on_c, 1, 60, 127
1, 134688, Note_on_c, 1, 75, 127
1, 134743, Note_off_c, 1, 60, 0
1, 134743, Note_off_c, 1, 75, 0
1, 134744, Note_on_c, 1, 77, 127
1, 134744, Note_on_c, 1, 62, 127
1, 134872, Note_off_c, 1, 77, 0
1, 134873, Note_on_c, 1, 74, 127
1, 135001, Note_off_c, 1, 62, 0
1, 135001, Note_off_c, 1, 74, 0
1, 135002, Note_on_c, 1, 71, 127
1, 135002, Note_on_c, 1, 65, 127
1, 135130, Note_off_c, 1, 71, 0
1, 135131, Note_on_c, 1, 67, 127
1, 135259, Note_off_c, 1, 65, 0
1, 135259, Note_off_c, 1, 67, 0
1, 135260, Note_on_c, 1, 65, 127
1, 135260, Note_on_c, 1, 55, 127
1, 135388, Note_off_c, 1, 65, 0
1, 135389, Note_on_c, 1, 62, 127
1, 135517, Note_off_c, 1, 55, 0
1, 135517, Note_off_c, 1, 62, 0
1, 135518, Note_on_c, 1, 67, 127
1, 135518, Note_on_c, 1, 53, 127
1, 135646, Note_off_c, 1, 67, 0
1, 135647, Note_on_c, 1, 71, 127
1, 135775, Note_off_c, 1, 53, 0
1, 135775, Note_off_c, 1, 71, 0
1, 135776, Note_on_c, 1, 51, 127
1, 135776, Note_on_c, 1, 72, 127
1, 135905, Note_on_c, 1, 67, 127
1, 136033, Note_off_c, 1, 51, 0
1, 136033, Note_off_c, 1, 67, 0
1, 136034, Note_on_c, 1, 63, 127
1, 136034, Note_on_c, 1, 53, 127
1, 136162, Note_off_c, 1, 63, 0
1, 136163, Note_on_c, 1, 60, 127
1, 136284, Note_off_c, 1, 60, 0
1, 136291, Note_off_c, 1, 53, 0
1, 136292, Note_on_c, 1, 55, 127
1, 136415, Note_off_c, 1, 72, 0
1, 136422, Note_on_c, 1, 62, 127
1, 136550, Note_off_c, 1, 55, 0
1, 136550, Note_off_c, 1, 62, 0
1, 136551, Note_on_c, 1, 65, 127
1, 136551, Note_on_c, 1, 43, 127
1, 136679, Note_off_c, 1, 65, 0
1, 136680, Note_on_c, 1, 71, 127
1, 136808, Note_off_c, 1, 43, 0
1, 136808, Note_off_c, 1, 71, 0
1, 136809, Note_on_c, 1, 72, 127
1, 136809, Note_on_c, 1, 48, 127
1, 136937, Note_off_c, 1, 72, 0
1, 136938, Note_on_c, 1, 67, 127
1, 137066, Note_off_c, 1, 48, 0
1, 137066, Note_off_c, 1, 67, 0
1, 137067, Note_on_c, 1, 63, 127
1, 137067, Note_on_c, 1, 55, 127
1, 137195, Note_off_c, 1, 63, 0
1, 137196, Note_on_c, 1, 62, 127
1, 137324, Note_off_c, 1, 55, 0
1, 137324, Note_off_c, 1, 62, 0
1, 137325, Note_on_c, 1, 63, 127
1, 137325, Note_on_c, 1, 60, 127
1, 137453, Note_off_c, 1, 63, 0
1, 137454, Note_on_c, 1, 67, 127
1, 137582, Note_off_c, 1, 60, 0
1, 137582, Note_off_c, 1, 67, 0
1, 137583, Note_on_c, 1, 72, 127
1, 137583, Note_on_c, 1, 58, 127
1, 137711, Note_off_c, 1, 72, 0
1, 137712, Note_on_c, 1, 74, 127
1, 137840, Note_off_c, 1, 58, 0
1, 137840, Note_off_c, 1, 74, 0
1, 137841, Note_on_c, 1, 75, 127
1, 137841, Note_on_c, 1, 57, 127
1, 137970, Note_on_c, 1, 72, 127
1, 138097, Note_off_c, 1, 75, 0
1, 138098, Note_off_c, 1, 57, 0
1, 138098, Note_off_c, 1, 72, 0
1, 138099, Note_on_c, 1, 69, 127
1, 138099, Note_on_c, 1, 60, 127
1, 138227, Note_off_c, 1, 69, 0
1, 138228, Note_on_c, 1, 67, 127
1, 138356, Note_off_c, 1, 60, 0
1, 138356, Note_off_c, 1, 67, 0
1, 138357, Note_on_c, 1, 69, 127
1, 138357, Note_on_c, 1, 53, 127
1, 138485, Note_off_c, 1, 69, 0
1, 138486, Note_on_c, 1, 72, 127
1, 138614, Note_off_c, 1, 53, 0
1, 138615, Note_on_c, 1, 65, 127
1, 138615, Note_on_c, 1, 57, 127
1, 138742, Note_off_c, 1, 72, 0
1, 138810, Note_off_c, 1, 65, 0
1, 138873, Note_off_c, 1, 57, 0
1, 138874, Note_on_c, 1, 74, 127
1, 138874, Note_on_c, 1, 46, 127
1, 139002, Note_off_c, 1, 74, 0
1, 139003, Note_on_c, 1, 77, 127
1, 139131, Note_off_c, 1, 46, 0
1, 139131, Note_off_c, 1, 77, 0
1, 139132, Note_on_c, 1, 70, 127
1, 139132, Note_on_c, 1, 50, 127
1, 139260, Note_off_c, 1, 70, 0
1, 139261, Note_on_c, 1, 69, 127
1, 139389, Note_off_c, 1, 50, 0
1, 139389, Note_off_c, 1, 69, 0
1, 139390, Note_on_c, 1, 70, 127
1, 139390, Note_on_c, 1, 53, 127
1, 139518, Note_off_c, 1, 70, 0
1, 139519, Note_on_c, 1, 74, 127
1, 139647, Note_off_c, 1, 53, 0
1, 139647, Note_off_c, 1, 74, 0
1, 139648, Note_on_c, 1, 77, 127
1, 139648, Note_on_c, 1, 58, 127
1, 139776, Note_off_c, 1, 77, 0
1, 139777, Note_on_c, 1, 79, 127
1, 139905, Note_off_c, 1, 58, 0
1, 139905, Note_off_c, 1, 79, 0
1, 139906, Note_on_c, 1, 80, 127
1, 139906, Note_on_c, 1, 62, 127
1, 140035, Note_on_c, 1, 77, 127
1, 140162, Note_off_c, 1, 80, 0
1, 140163, Note_off_c, 1, 62, 0
1, 140163, Note_off_c, 1, 77, 0
1, 140164, Note_on_c, 1, 74, 127
1, 140164, Note_on_c, 1, 65, 127
1, 140292, Note_off_c, 1, 74, 0
1, 140293, Note_on_c, 1, 72, 127
1, 140421, Note_off_c, 1, 65, 0
1, 140421, Note_off_c, 1, 72, 0
1, 140422, Note_on_c, 1, 74, 127
1, 140422, Note_on_c, 1, 58, 127
1, 140550, Note_off_c, 1, 74, 0
1, 140551, Note_on_c, 1, 77, 127
1, 140679, Note_off_c, 1, 58, 0
1, 140680, Note_on_c, 1, 70, 127
1, 140680, Note_on_c, 1, 62, 127
1, 140807, Note_off_c, 1, 77, 0
1, 140875, Note_off_c, 1, 70, 0
1, 140938, Note_off_c, 1, 62, 0
1, 140939, Note_on_c, 1, 79, 127
1, 140939, Note_on_c, 1, 63, 127
1, 141067, Note_off_c, 1, 79, 0
1, 141068, Note_on_c, 1, 82, 127
1, 141196, Note_off_c, 1, 63, 0
1, 141196, Note_off_c, 1, 82, 0
1, 141197, Note_on_c, 1, 75, 127
1, 141197, Note_on_c, 1, 62, 127
1, 141325, Note_off_c, 1, 75, 0
1, 141326, Note_on_c, 1, 74, 127
1, 141454, Note_off_c, 1, 62, 0
1, 141454, Note_off_c, 1, 74, 0
1, 141455, Note_on_c, 1, 75, 127
1, 141455, Note_on_c, 1, 60, 127
1, 141583, Note_off_c, 1, 75, 0
1, 141584, Note_on_c, 1, 79, 127
1, 141712, Note_off_c, 1, 60, 0
1, 141712, Note_off_c, 1, 79, 0
1, 141713, Note_on_c, 1, 81, 127
1, 141713, Note_on_c, 1, 58, 127
1, 141841, Note_off_c, 1, 81, 0
1, 141842, Note_on_c, 1, 82, 127
1, 141970, Note_off_c, 1, 58, 0
1, 141970, Note_off_c, 1, 82, 0
1, 141971, Note_on_c, 1, 57, 127
1, 141971, Note_on_c, 1, 84, 127
1, 142100, Note_on_c, 1, 77, 127
1, 142230, Note_off_c, 1, 57, 0
1, 142230, Note_off_c, 1, 77, 0
1, 142231, Note_on_c, 1, 75, 127
1, 142231, Note_on_c, 1, 60, 127
1, 142361, Note_off_c, 1, 75, 0
1, 142362, Note_on_c, 1, 74, 127
1, 142492, Note_off_c, 1, 60, 0
1, 142492, Note_off_c, 1, 74, 0
1, 142493, Note_on_c, 1, 53, 127
1, 142617, Note_off_c, 1, 84, 0
1, 142753, Note_off_c, 1, 53, 0
1, 142754, Note_on_c, 1, 72, 127
1, 142754, Note_on_c, 1, 57, 127
1, 142884, Note_off_c, 1, 72, 0
1, 142885, Note_on_c, 1, 75, 127
1, 143015, Note_off_c, 1, 57, 0
1, 143015, Note_off_c, 1, 75, 0
1, 143016, Note_on_c, 1, 58, 127
1, 143016, Note_on_c, 1, 74, 127
1, 143147, Note_on_c, 1, 68, 127
1, 143277, Note_off_c, 1, 58, 0
1, 143277, Note_off_c, 1, 68, 0
1, 143278, Note_on_c, 1, 67, 127
1, 143278, Note_on_c, 1, 62, 127
1, 143408, Note_off_c, 1, 67, 0
1, 143409, Note_off_c, 1, 74, 0
1, 143409, Note_on_c, 1, 65, 127
1, 143539, Note_off_c, 1, 62, 0
1, 143539, Note_off_c, 1, 65, 0
1, 143540, Note_on_c, 1, 64, 127
1, 143540, Note_on_c, 1, 55, 127
1, 143670, Note_off_c, 1, 64, 0
1, 143671, Note_on_c, 1, 67, 127
1, 143801, Note_off_c, 1, 55, 0
1, 143801, Note_off_c, 1, 67, 0
1, 143802, Note_on_c, 1, 70, 127
1, 143802, Note_on_c, 1, 60, 127
1, 143933, Note_on_c, 1, 67, 127
1, 143952, Note_off_c, 1, 70, 0
1, 144062, Note_off_c, 1, 60, 0
1, 144062, Note_off_c, 1, 67, 0
1, 144063, Note_on_c, 1, 69, 127
1, 144063, Note_on_c, 1, 53, 127
1, 144194, Note_on_c, 1, 75, 127
1, 144259, Note_off_c, 1, 69, 0
1, 144323, Note_off_c, 1, 53, 0
1, 144323, Note_off_c, 1, 75, 0
1, 144324, Note_on_c, 1, 74, 127
1, 144324, Note_on_c, 1, 58, 127
1, 144454, Note_off_c, 1, 74, 0
1, 144455, Note_on_c, 1, 72, 127
1, 144585, Note_off_c, 1, 58, 0
1, 144585, Note_off_c, 1, 72, 0
1, 144586, Note_on_c, 1, 74, 127
1, 144586, Note_on_c, 1, 51, 127
1, 144716, Note_off_c, 1, 74, 0
1, 144717, Note_on_c, 1, 70, 127
1, 144847, Note_off_c, 1, 51, 0
1, 144847, Note_off_c, 1, 70, 0
1, 144848, Note_on_c, 1, 65, 127
1, 144848, Note_on_c, 1, 53, 127
1, 144978, Note_off_c, 1, 65, 0
1, 144979, Note_on_c, 1, 69, 127
1, 145109, Note_off_c, 1, 53, 0
1, 145109, Note_off_c, 1, 69, 0
1, 145118, Note_on_c, 1, 46, 127
1, 145118, Note_on_c, 1, 70, 127
1, 145249, Note_on_c, 1, 74, 127
1, 145382, Note_off_c, 1, 74, 0
1, 145383, Note_on_c, 1, 77, 127
1, 145383, Note_on_c, 1, 56, 127
1, 145516, Note_off_c, 1, 77, 0
1, 145517, Note_on_c, 1, 79, 127
1, 145645, Note_off_c, 1, 46, 0
1, 145649, Note_off_c, 1, 56, 0
1, 145649, Note_off_c, 1, 79, 0
1, 145650, Note_on_c, 1, 80, 127
1, 145650, Note_on_c, 1, 62, 127
1, 145783, Note_off_c, 1, 80, 0
1, 145917, Note_off_c, 1, 62, 0
1, 145918, Note_on_c, 1, 65, 127
1, 146044, Note_off_c, 1, 70, 0
1, 146185, Note_off_c, 1, 65, 0
1, 146454, Note_on_c, 1, 75, 127
1, 146454, Note_on_c, 1, 58, 127
1, 146587, Note_off_c, 1, 75, 0
1, 146720, Note_off_c, 1, 58, 0
1, 146721, Note_on_c, 1, 82, 127
1, 146721, Note_on_c, 1, 63, 127
1, 146854, Note_off_c, 1, 82, 0
1, 146987, Note_off_c, 1, 63, 0
1, 146988, Note_on_c, 1, 76, 127
1, 146988, Note_on_c, 1, 67, 127
1, 147121, Note_off_c, 1, 76, 0
1, 147122, Note_on_c, 1, 73, 127
1, 147255, Note_off_c, 1, 67, 0
1, 147256, Note_on_c, 1, 46, 127
1, 147323, Note_off_c, 1, 73, 0
1, 147390, Note_on_c, 1, 72, 127
1, 147523, Note_off_c, 1, 46, 0
1, 147523, Note_off_c, 1, 72, 0
1, 147524, Note_on_c, 1, 75, 127
1, 147524, Note_on_c, 1, 60, 127
1, 147657, Note_off_c, 1, 75, 0
1, 147658, Note_on_c, 1, 81, 127
1, 147791, Note_off_c, 1, 60, 0
1, 147791, Note_off_c, 1, 81, 0
1, 147792, Note_on_c, 1, 84, 127
1, 147792, Note_on_c, 1, 63, 127
1, 147926, Note_on_c, 1, 81, 127
1, 148057, Note_off_c, 1, 84, 0
1, 148058, Note_off_c, 1, 63, 0
1, 148058, Note_off_c, 1, 81, 0
1, 148059, Note_on_c, 1, 78, 127
1, 148059, Note_on_c, 1, 69, 127
1, 148192, Note_off_c, 1, 78, 0
1, 148193, Note_on_c, 1, 75, 127
1, 148326, Note_off_c, 1, 69, 0
1, 148326, Note_off_c, 1, 75, 0
1, 148327, Note_on_c, 1, 70, 127
1, 148327, Note_on_c, 1, 74, 127
1, 148460, Note_off_c, 1, 70, 0
1, 148461, Note_on_c, 1, 62, 127
1, 148461, Note_on_c, 1, 82, 127
1, 148594, Note_off_c, 1, 62, 0
1, 148594, Note_off_c, 1, 82, 0
1, 148595, Note_on_c, 1, 60, 127
1, 148595, Note_on_c, 1, 79, 127
1, 148728, Note_off_c, 1, 74, 0
1, 148728, Note_off_c, 1, 60, 0
1, 148728, Note_off_c, 1, 79, 0
1, 148729, Note_on_c, 1, 58, 127
1, 148729, Note_on_c, 1, 76, 127
1, 148862, Note_off_c, 1, 58, 0
1, 148862, Note_off_c, 1, 76, 0
1, 148863, Note_on_c, 1, 77, 127
1, 148863, Note_on_c, 1, 65, 127
1, 148997, Note_on_c, 1, 70, 127
1, 149130, Note_off_c, 1, 70, 0
1, 149131, Note_on_c, 1, 69, 127
1, 149131, Note_on_c, 1, 53, 127
1, 149264, Note_off_c, 1, 77, 0
1, 149264, Note_off_c, 1, 69, 0
1, 149265, Note_on_c, 1, 75, 127
1, 149393, Note_off_c, 1, 65, 0
1, 149397, Note_off_c, 1, 53, 0
1, 149397, Note_off_c, 1, 75, 0
1, 149398, Note_on_c, 1, 74, 127
1, 149398, Note_on_c, 1, 58, 127
1, 149535, Note_on_c, 1, 68, 127
1, 149663, Note_off_c, 1, 74, 0
1, 149668, Note_off_c, 1, 68, 0
1, 149679, Note_on_c, 1, 67, 127
1, 149679, Note_on_c, 1, 63, 127
1, 149822, Note_on_c, 1, 72, 127
1, 149966, Note_off_c, 1, 72, 0
1, 149968, Note_off_c, 1, 67, 0
1, 149970, Note_off_c, 1, 63, 0
1, 149978, Note_on_c, 1, 70, 127
1, 149978, Note_on_c, 1, 62, 127
1, 150130, Note_on_c, 1, 65, 127
1, 150265, Note_off_c, 1, 58, 0
1, 150284, Note_off_c, 1, 70, 0
1, 150286, Note_off_c, 1, 62, 0
1, 150293, Note_off_c, 1, 65, 0
1, 150298, Note_on_c, 1, 63, 127
1, 150298, Note_on_c, 1, 60, 127
1, 150468, Note_on_c, 1, 69, 127
1, 150624, Note_off_c, 1, 63, 0
1, 150626, Note_off_c, 1, 60, 0
1, 150631, Note_off_c, 1, 69, 0
1, 150679, Note_on_c, 1, 70, 127
1, 150679, Note_on_c, 1, 62, 127
1, 150679, Note_on_c, 1, 65, 127
1, 150679, Note_on_c, 1, 58, 127
1, 150679, Note_on_c, 1, 46, 127
1, 152640, Note_off_c, 1, 70, 0
1, 152679, Note_off_c, 1, 62, 0
1, 152679, Note_off_c, 1, 65, 0
1, 152679, Note_off_c, 1, 58, 0
1, 153051, Note_on_c, 1, 74, 127
1, 153079, Note_off_c, 1, 46, 0
1, 153180, Note_off_c, 1, 74, 0
1, 153181, Note_on_c, 1, 69, 127
1, 153310, Note_off_c, 1, 69, 0
1, 153571, Note_on_c, 1, 62, 127
1, 153571, Note_on_c, 1, 70, 127
1, 153668, Note_off_c, 1, 62, 0
1, 153701, Note_off_c, 1, 70, 0
1, 153702, Note_on_c, 1, 74, 127
1, 153702, Note_on_c, 1, 58, 127
1, 153831, Note_off_c, 1, 74, 0
1, 153832, Note_on_c, 1, 77, 127
1, 153961, Note_off_c, 1, 77, 0
1, 153962, Note_on_c, 1, 62, 127
1, 153962, Note_on_c, 1, 69, 127
1, 153994, Note_off_c, 1, 58, 0
1, 154059, Note_off_c, 1, 62, 0
1, 154092, Note_off_c, 1, 69, 0
1, 154093, Note_on_c, 1, 70, 127
1, 154093, Note_on_c, 1, 55, 127
1, 154222, Note_off_c, 1, 70, 0
1, 154223, Note_on_c, 1, 74, 127
1, 154352, Note_off_c, 1, 74, 0
1, 154353, Note_on_c, 1, 69, 127
1, 154482, Note_off_c, 1, 69, 0
1, 154613, Note_on_c, 1, 67, 127
1, 154677, Note_off_c, 1, 55, 0
1, 154742, Note_off_c, 1, 67, 0
1, 154743, Note_on_c, 1, 63, 127
1, 154743, Note_on_c, 1, 70, 127
1, 154840, Note_off_c, 1, 63, 0
1, 154873, Note_off_c, 1, 70, 0
1, 154874, Note_on_c, 1, 75, 127
1, 154874, Note_on_c, 1, 58, 127
1, 155003, Note_off_c, 1, 75, 0
1, 155004, Note_on_c, 1, 79, 127
1, 155133, Note_off_c, 1, 79, 0
1, 155134, Note_on_c, 1, 63, 127
1, 155134, Note_on_c, 1, 69, 127
1, 155166, Note_off_c, 1, 58, 0
1, 155231, Note_off_c, 1, 63, 0
1, 155264, Note_off_c, 1, 69, 0
1, 155265, Note_on_c, 1, 70, 127
1, 155265, Note_on_c, 1, 50, 127
1, 155394, Note_off_c, 1, 70, 0
1, 155395, Note_on_c, 1, 77, 127
1, 155524, Note_off_c, 1, 77, 0
1, 155525, Note_on_c, 1, 72, 127
1, 155654, Note_off_c, 1, 72, 0
1, 155655, Note_on_c, 1, 74, 127
1, 155784, Note_off_c, 1, 74, 0
1, 155849, Note_off_c, 1, 50, 0
1, 155915, Note_on_c, 1, 65, 127
1, 155915, Note_on_c, 1, 74, 127
1, 156012, Note_off_c, 1, 65, 0
1, 156045, Note_off_c, 1, 74, 0
1, 156046, Note_on_c, 1, 77, 127
1, 156046, Note_on_c, 1, 62, 127
1, 156175, Note_off_c, 1, 77, 0
1, 156176, Note_on_c, 1, 82, 127
1, 156305, Note_off_c, 1, 62, 0
1, 156305, Note_off_c, 1, 82, 0
1, 156306, Note_on_c, 1, 65, 127
1, 156306, Note_on_c, 1, 74, 127
1, 156403, Note_off_c, 1, 65, 0
1, 156436, Note_off_c, 1, 74, 0
1, 156437, Note_on_c, 1, 79, 127
1, 156437, Note_on_c, 1, 63, 127
1, 156566, Note_off_c, 1, 79, 0
1, 156567, Note_on_c, 1, 69, 127
1, 156696, Note_off_c, 1, 69, 0
1, 156697, Note_on_c, 1, 51, 127
1, 156697, Note_on_c, 1, 72, 127
1, 156729, Note_off_c, 1, 63, 0
1, 156794, Note_off_c, 1, 51, 0
1, 156827, Note_off_c, 1, 72, 0
1, 156828, Note_on_c, 1, 77, 127
1, 156828, Note_on_c, 1, 50, 127
1, 156957, Note_off_c, 1, 77, 0
1, 156958, Note_on_c, 1, 67, 127
1, 157087, Note_off_c, 1, 67, 0
1, 157088, Note_on_c, 1, 62, 127
1, 157088, Note_on_c, 1, 70, 127
1, 157120, Note_off_c, 1, 50, 0
1, 157185, Note_off_c, 1, 62, 0
1, 157218, Note_off_c, 1, 70, 0
1, 157219, Note_on_c, 1, 75, 127
1, 157219, Note_on_c, 1, 60, 127
1, 157348, Note_off_c, 1, 75, 0
1, 157349, Note_on_c, 1, 65, 127
1, 157478, Note_off_c, 1, 65, 0
1, 157479, Note_on_c, 1, 48, 127
1, 157479, Note_on_c, 1, 69, 127
1, 157511, Note_off_c, 1, 60, 0
1, 157576, Note_off_c, 1, 48, 0
1, 157609, Note_off_c, 1, 69, 0
1, 157610, Note_on_c, 1, 46, 127
1, 157610, Note_on_c, 1, 74, 127
1, 157739, Note_off_c, 1, 46, 0
1, 157740, Note_on_c, 1, 50, 127
1, 157869, Note_off_c, 1, 50, 0
1, 157870, Note_on_c, 1, 45, 127
1, 157999, Note_off_c, 1, 45, 0
1, 158107, Note_off_c, 1, 74, 0
1, 158130, Note_on_c, 1, 70, 127
1, 158130, Note_on_c, 1, 41, 127
1, 158259, Note_off_c, 1, 70, 0
1, 158259, Note_off_c, 1, 41, 0
1, 158260, Note_on_c, 1, 74, 127
1, 158260, Note_on_c, 1, 46, 127
1, 158389, Note_off_c, 1, 74, 0
1, 158389, Note_off_c, 1, 46, 0
1, 158390, Note_on_c, 1, 77, 127
1, 158390, Note_on_c, 1, 50, 127
1, 158519, Note_off_c, 1, 77, 0
1, 158519, Note_off_c, 1, 50, 0
1, 158520, Note_on_c, 1, 74, 127
1, 158520, Note_on_c, 1, 53, 127
1, 158649, Note_off_c, 1, 74, 0
1, 158649, Note_off_c, 1, 53, 0
1, 158650, Note_on_c, 1, 72, 127
1, 158650, Note_on_c, 1, 45, 127
1, 158779, Note_off_c, 1, 72, 0
1, 158779, Note_off_c, 1, 45, 0
1, 158780, Note_on_c, 1, 70, 127
1, 158780, Note_on_c, 1, 43, 127
1, 158909, Note_off_c, 1, 70, 0
1, 158910, Note_on_c, 1, 74, 127
1, 159039, Note_off_c, 1, 74, 0
1, 159040, Note_on_c, 1, 69, 127
1, 159169, Note_off_c, 1, 69, 0
1, 159300, Note_on_c, 1, 67, 127
1, 159364, Note_off_c, 1, 43, 0
1, 159429, Note_off_c, 1, 67, 0
1, 159430, Note_on_c, 1, 50, 127
1, 159430, Note_on_c, 1, 70, 127
1, 159527, Note_off_c, 1, 50, 0
1, 159560, Note_off_c, 1, 70, 0
1, 159561, Note_on_c, 1, 74, 127
1, 159561, Note_on_c, 1, 46, 127
1, 159690, Note_off_c, 1, 74, 0
1, 159691, Note_on_c, 1, 79, 127
1, 159820, Note_off_c, 1, 46, 0
1, 159820, Note_off_c, 1, 79, 0
1, 159821, Note_on_c, 1, 43, 127
1, 159821, Note_on_c, 1, 82, 127
1, 159918, Note_off_c, 1, 43, 0
1, 159951, Note_off_c, 1, 82, 0
1, 159952, Note_on_c, 1, 48, 127
1, 159952, Note_on_c, 1, 76, 127
1, 160081, Note_off_c, 1, 48, 0
1, 160082, Note_on_c, 1, 52, 127
1, 160211, Note_off_c, 1, 52, 0
1, 160212, Note_on_c, 1, 47, 127
1, 160341, Note_off_c, 1, 47, 0
1, 160471, Note_off_c, 1, 76, 0
1, 160472, Note_on_c, 1, 72, 127
1, 160472, Note_on_c, 1, 43, 127
1, 160601, Note_off_c, 1, 72, 0
1, 160601, Note_off_c, 1, 43, 0
1, 160602, Note_on_c, 1, 76, 127
1, 160602, Note_on_c, 1, 48, 127
1, 160731, Note_off_c, 1, 76, 0
1, 160731, Note_off_c, 1, 48, 0
1, 160732, Note_on_c, 1, 79, 127
1, 160732, Note_on_c, 1, 52, 127
1, 160861, Note_off_c, 1, 79, 0
1, 160861, Note_off_c, 1, 52, 0
1, 160862, Note_on_c, 1, 76, 127
1, 160862, Note_on_c, 1, 55, 127
1, 160991, Note_off_c, 1, 76, 0
1, 160991, Note_off_c, 1, 55, 0
1, 160992, Note_on_c, 1, 74, 127
1, 160992, Note_on_c, 1, 46, 127
1, 161121, Note_off_c, 1, 74, 0
1, 161121, Note_off_c, 1, 46, 0
1, 161122, Note_on_c, 1, 72, 127
1, 161122, Note_on_c, 1, 45, 127
1, 161251, Note_off_c, 1, 72, 0
1, 161252, Note_on_c, 1, 76, 127
1, 161381, Note_off_c, 1, 76, 0
1, 161382, Note_on_c, 1, 71, 127
1, 161511, Note_off_c, 1, 71, 0
1, 161642, Note_on_c, 1, 69, 127
1, 161682, Note_off_c, 1, 45, 0
1, 161771, Note_off_c, 1, 69, 0
1, 161772, Note_on_c, 1, 52, 127
1, 161772, Note_on_c, 1, 72, 127
1, 161869, Note_off_c, 1, 52, 0
1, 161902, Note_off_c, 1, 72, 0
1, 161903, Note_on_c, 1, 76, 127
1, 161903, Note_on_c, 1, 48, 127
1, 162032, Note_off_c, 1, 76, 0
1, 162033, Note_on_c, 1, 81, 127
1, 162162, Note_off_c, 1, 48, 0
1, 162162, Note_off_c, 1, 81, 0
1, 162163, Note_on_c, 1, 45, 127
1, 162163, Note_on_c, 1, 84, 127
1, 162260, Note_off_c, 1, 45, 0
1, 162293, Note_off_c, 1, 84, 0
1, 162294, Note_on_c, 1, 50, 127
1, 162294, Note_on_c, 1, 77, 127
1, 162423, Note_off_c, 1, 50, 0
1, 162424, Note_on_c, 1, 53, 127
1, 162553, Note_off_c, 1, 53, 0
1, 162554, Note_on_c, 1, 48, 127
1, 162683, Note_off_c, 1, 48, 0
1, 162813, Note_off_c, 1, 77, 0
1, 162814, Note_on_c, 1, 74, 127
1, 162814, Note_on_c, 1, 45, 127
1, 162943, Note_off_c, 1, 74, 0
1, 162943, Note_off_c, 1, 45, 0
1, 162944, Note_on_c, 1, 77, 127
1, 162944, Note_on_c, 1, 50, 127
1, 163073, Note_off_c, 1, 77, 0
1, 163073, Note_off_c, 1, 50, 0
1, 163074, Note_on_c, 1, 53, 127
1, 163074, Note_on_c, 1, 81, 127
1, 163203, Note_off_c, 1, 53, 0
1, 163204, Note_on_c, 1, 57, 127
1, 163333, Note_off_c, 1, 57, 0
1, 163334, Note_on_c, 1, 48, 127
1, 163460, Note_off_c, 1, 81, 0
1, 163463, Note_off_c, 1, 48, 0
1, 163464, Note_on_c, 1, 46, 127
1, 163594, Note_on_c, 1, 74, 127
1, 163723, Note_off_c, 1, 74, 0
1, 163724, Note_on_c, 1, 57, 127
1, 163724, Note_on_c, 1, 72, 127
1, 163756, Note_off_c, 1, 46, 0
1, 163821, Note_off_c, 1, 57, 0
1, 163854, Note_off_c, 1, 72, 0
1, 163855, Note_on_c, 1, 70, 127
1, 163855, Note_on_c, 1, 55, 127
1, 163984, Note_off_c, 1, 70, 0
1, 163985, Note_on_c, 1, 74, 127
1, 164114, Note_off_c, 1, 74, 0
1, 164115, Note_on_c, 1, 46, 127
1, 164115, Note_on_c, 1, 79, 127
1, 164147, Note_off_c, 1, 55, 0
1, 164212, Note_off_c, 1, 46, 0
1, 164245, Note_off_c, 1, 79, 0
1, 164246, Note_on_c, 1, 72, 127
1, 164246, Note_on_c, 1, 45, 127
1, 164375, Note_off_c, 1, 72, 0
1, 164376, Note_on_c, 1, 70, 127
1, 164505, Note_off_c, 1, 70, 0
1, 164506, Note_on_c, 1, 53, 127
1, 164506, Note_on_c, 1, 69, 127
1, 164538, Note_off_c, 1, 45, 0
1, 164603, Note_off_c, 1, 53, 0
1, 164637, Note_on_c, 1, 43, 127
1, 164700, Note_off_c, 1, 69, 0
1, 164929, Note_off_c, 1, 43, 0
1, 165028, Note_on_c, 1, 67, 127
1, 165028, Note_on_c, 1, 52, 127
1, 165157, Note_off_c, 1, 67, 0
1, 165158, Note_on_c, 1, 70, 127
1, 165287, Note_off_c, 1, 70, 0
1, 165288, Note_on_c, 1, 43, 127
1, 165288, Note_on_c, 1, 76, 127
1, 165320, Note_off_c, 1, 52, 0
1, 165385, Note_off_c, 1, 43, 0
1, 165418, Note_off_c, 1, 76, 0
1, 165419, Note_on_c, 1, 69, 127
1, 165419, Note_on_c, 1, 41, 127
1, 165548, Note_off_c, 1, 69, 0
1, 165549, Note_on_c, 1, 67, 127
1, 165678, Note_off_c, 1, 67, 0
1, 165679, Note_on_c, 1, 50, 127
1, 165679, Note_on_c, 1, 65, 127
1, 165711, Note_off_c, 1, 41, 0
1, 165776, Note_off_c, 1, 50, 0
1, 165810, Note_on_c, 1, 40, 127
1, 165873, Note_off_c, 1, 65, 0
1, 166102, Note_off_c, 1, 40, 0
1, 166201, Note_on_c, 1, 64, 127
1, 166201, Note_on_c, 1, 48, 127
1, 166330, Note_off_c, 1, 64, 0
1, 166331, Note_on_c, 1, 67, 127
1, 166460, Note_off_c, 1, 67, 0
1, 166461, Note_on_c, 1, 40, 127
1, 166461, Note_on_c, 1, 72, 127
1, 166493, Note_off_c, 1, 48, 0
1, 166558, Note_off_c, 1, 40, 0
1, 166591, Note_off_c, 1, 72, 0
1, 166592, Note_on_c, 1, 65, 127
1, 166592, Note_on_c, 1, 38, 127
1, 166721, Note_off_c, 1, 65, 0
1, 166722, Note_on_c, 1, 64, 127
1, 166851, Note_off_c, 1, 64, 0
1, 166852, Note_on_c, 1, 47, 127
1, 166852, Note_on_c, 1, 62, 127
1, 166884, Note_off_c, 1, 38, 0
1, 166949, Note_off_c, 1, 47, 0
1, 166982, Note_off_c, 1, 62, 0
1, 166983, Note_on_c, 1, 36, 127
1, 166983, Note_on_c, 1, 64, 127
1, 167112, Note_off_c, 1, 36, 0
1, 167113, Note_on_c, 1, 40, 127
1, 167242, Note_off_c, 1, 40, 0
1, 167243, Note_on_c, 1, 43, 127
1, 167369, Note_off_c, 1, 64, 0
1, 167372, Note_off_c, 1, 43, 0
1, 167373, Note_on_c, 1, 48, 127
1, 167502, Note_off_c, 1, 48, 0
1, 167503, Note_on_c, 1, 52, 127
1, 167632, Note_off_c, 1, 52, 0
1, 167633, Note_on_c, 1, 55, 127
1, 167666, Note_on_c, 1, 76, 127
1, 167763, Note_off_c, 1, 55, 0
1, 167763, Note_off_c, 1, 76, 0
1, 167764, Note_on_c, 1, 77, 127
1, 167764, Note_on_c, 1, 46, 127
1, 167812, Note_off_c, 1, 77, 0
1, 167813, Note_on_c, 1, 76, 127
1, 167861, Note_off_c, 1, 76, 0
1, 167894, Note_off_c, 1, 46, 0
1, 167895, Note_on_c, 1, 45, 127
1, 168024, Note_off_c, 1, 45, 0
1, 168025, Note_on_c, 1, 43, 127
1, 168058, Note_on_c, 1, 74, 127
1, 168106, Note_off_c, 1, 74, 0
1, 168155, Note_off_c, 1, 43, 0
1, 168156, Note_on_c, 1, 77, 127
1, 168156, Note_on_c, 1, 36, 127
1, 168285, Note_off_c, 1, 77, 0
1, 168285, Note_off_c, 1, 36, 0
1, 168286, Note_on_c, 1, 72, 127
1, 168286, Note_on_c, 1, 41, 127
1, 168415, Note_off_c, 1, 72, 0
1, 168415, Note_off_c, 1, 41, 0
1, 168416, Note_on_c, 1, 69, 127
1, 168416, Note_on_c, 1, 45, 127
1, 168545, Note_off_c, 1, 69, 0
1, 168545, Note_off_c, 1, 45, 0
1, 168546, Note_on_c, 1, 48, 127
1, 168546, Note_on_c, 1, 65, 127
1, 168675, Note_off_c, 1, 48, 0
1, 168676, Note_on_c, 1, 53, 127
1, 168805, Note_off_c, 1, 53, 0
1, 168806, Note_on_c, 1, 57, 127
1, 168839, Note_on_c, 1, 77, 127
1, 168933, Note_off_c, 1, 65, 0
1, 168936, Note_off_c, 1, 57, 0
1, 168936, Note_off_c, 1, 77, 0
1, 168937, Note_on_c, 1, 79, 127
1, 168937, Note_on_c, 1, 48, 127
1, 168985, Note_off_c, 1, 79, 0
1, 168986, Note_on_c, 1, 77, 127
1, 169034, Note_off_c, 1, 77, 0
1, 169067, Note_off_c, 1, 48, 0
1, 169068, Note_on_c, 1, 46, 127
1, 169197, Note_off_c, 1, 46, 0
1, 169198, Note_on_c, 1, 45, 127
1, 169231, Note_on_c, 1, 76, 127
1, 169279, Note_off_c, 1, 76, 0
1, 169328, Note_off_c, 1, 45, 0
1, 169329, Note_on_c, 1, 79, 127
1, 169329, Note_on_c, 1, 36, 127
1, 169458, Note_off_c, 1, 79, 0
1, 169458, Note_off_c, 1, 36, 0
1, 169459, Note_on_c, 1, 76, 127
1, 169459, Note_on_c, 1, 43, 127
1, 169588, Note_off_c, 1, 76, 0
1, 169588, Note_off_c, 1, 43, 0
1, 169589, Note_on_c, 1, 70, 127
1, 169589, Note_on_c, 1, 48, 127
1, 169718, Note_off_c, 1, 70, 0
1, 169718, Note_off_c, 1, 48, 0
1, 169719, Note_on_c, 1, 52, 127
1, 169719, Note_on_c, 1, 67, 127
1, 169848, Note_off_c, 1, 52, 0
1, 169849, Note_on_c, 1, 55, 127
1, 169978, Note_off_c, 1, 55, 0
1, 169979, Note_on_c, 1, 58, 127
1, 170012, Note_on_c, 1, 79, 127
1, 170106, Note_off_c, 1, 67, 0
1, 170109, Note_off_c, 1, 58, 0
1, 170109, Note_off_c, 1, 79, 0
1, 170110, Note_on_c, 1, 81, 127
1, 170110, Note_on_c, 1, 52, 127
1, 170158, Note_off_c, 1, 81, 0
1, 170159, Note_on_c, 1, 79, 127
1, 170207, Note_off_c, 1, 79, 0
1, 170240, Note_off_c, 1, 52, 0
1, 170241, Note_on_c, 1, 50, 127
1, 170370, Note_off_c, 1, 50, 0
1, 170371, Note_on_c, 1, 48, 127
1, 170404, Note_on_c, 1, 77, 127
1, 170452, Note_off_c, 1, 77, 0
1, 170501, Note_off_c, 1, 48, 0
1, 170502, Note_on_c, 1, 80, 127
1, 170502, Note_on_c, 1, 36, 127
1, 170502, Note_on_c, 1, 47, 127
1, 170631, Note_off_c, 1, 80, 0
1, 170632, Note_on_c, 1, 76, 127
1, 170761, Note_off_c, 1, 76, 0
1, 170762, Note_on_c, 1, 77, 127
1, 170891, Note_off_c, 1, 77, 0
1, 170892, Note_on_c, 1, 74, 127
1, 171021, Note_off_c, 1, 74, 0
1, 171282, Note_on_c, 1, 83, 127
1, 171411, Note_off_c, 1, 83, 0
1, 171412, Note_on_c, 1, 86, 127
1, 171541, Note_off_c, 1, 86, 0
1, 171671, Note_off_c, 1, 36, 0
1, 171671, Note_off_c, 1, 47, 0
1, 171672, Note_on_c, 1, 76, 127
1, 171672, Note_on_c, 1, 48, 127
1, 171672, Note_on_c, 1, 36, 127
1, 171801, Note_off_c, 1, 76, 0
1, 171802, Note_on_c, 1, 74, 127
1, 171931, Note_off_c, 1, 74, 0
1, 171932, Note_on_c, 1, 72, 127
1, 172061, Note_off_c, 1, 72, 0
1, 172062, Note_on_c, 1, 79, 127
1, 172191, Note_off_c, 1, 48, 0
1, 172191, Note_off_c, 1, 79, 0
1, 172256, Note_off_c, 1, 36, 0
1, 172322, Note_on_c, 1, 72, 127
1, 172322, Note_on_c, 1, 48, 127
1, 172451, Note_off_c, 1, 72, 0
1, 172451, Note_off_c, 1, 48, 0
1, 172452, Note_on_c, 1, 70, 127
1, 172452, Note_on_c, 1, 50, 127
1, 172581, Note_off_c, 1, 70, 0
1, 172582, Note_on_c, 1, 69, 127
1, 172711, Note_off_c, 1, 50, 0
1, 172711, Note_off_c, 1, 69, 0
1, 172712, Note_on_c, 1, 67, 127
1, 172712, Note_on_c, 1, 52, 127
1, 172841, Note_off_c, 1, 67, 0
1, 172841, Note_off_c, 1, 52, 0
1, 172842, Note_on_c, 1, 69, 127
1, 172842, Note_on_c, 1, 53, 127
1, 172971, Note_off_c, 1, 69, 0
1, 172971, Note_off_c, 1, 53, 0
1, 172972, Note_on_c, 1, 72, 127
1, 172972, Note_on_c, 1, 57, 127
1, 173101, Note_off_c, 1, 72, 0
1, 173101, Note_off_c, 1, 57, 0
1, 173102, Note_on_c, 1, 67, 127
1, 173102, Note_on_c, 1, 60, 127
1, 173231, Note_off_c, 1, 67, 0
1, 173231, Note_off_c, 1, 60, 0
1, 173232, Note_on_c, 1, 69, 127
1, 173232, Note_on_c, 1, 53, 127
1, 173361, Note_off_c, 1, 69, 0
1, 173361, Note_off_c, 1, 53, 0
1, 173362, Note_on_c, 1, 65, 127
1, 173362, Note_on_c, 1, 57, 127
1, 173491, Note_off_c, 1, 65, 0
1, 173491, Note_off_c, 1, 57, 0
1, 173492, Note_on_c, 1, 69, 127
1, 173492, Note_on_c, 1, 60, 127
1, 173621, Note_off_c, 1, 69, 0
1, 173621, Note_off_c, 1, 60, 0
1, 173622, Note_on_c, 1, 52, 127
1, 173622, Note_on_c, 1, 72, 127
1, 173751, Note_off_c, 1, 52, 0
1, 173752, Note_on_c, 1, 77, 127
1, 173752, Note_on_c, 1, 57, 127
1, 173881, Note_off_c, 1, 72, 0
1, 173881, Note_off_c, 1, 77, 0
1, 173881, Note_off_c, 1, 57, 0
1, 173882, Note_on_c, 1, 67, 127
1, 173882, Note_on_c, 1, 60, 127
1, 174011, Note_off_c, 1, 67, 0
1, 174011, Note_off_c, 1, 60, 0
1, 174012, Note_on_c, 1, 65, 127
1, 174012, Note_on_c, 1, 50, 127
1, 174141, Note_off_c, 1, 65, 0
1, 174141, Note_off_c, 1, 50, 0
1, 174142, Note_on_c, 1, 69, 127
1, 174142, Note_on_c, 1, 53, 127
1, 174271, Note_off_c, 1, 69, 0
1, 174271, Note_off_c, 1, 53, 0
1, 174272, Note_on_c, 1, 64, 127
1, 174272, Note_on_c, 1, 57, 127
1, 174401, Note_off_c, 1, 64, 0
1, 174401, Note_off_c, 1, 57, 0
1, 174402, Note_on_c, 1, 65, 127
1, 174402, Note_on_c, 1, 50, 127
1, 174531, Note_off_c, 1, 65, 0
1, 174531, Note_off_c, 1, 50, 0
1, 174532, Note_on_c, 1, 62, 127
1, 174532, Note_on_c, 1, 53, 127
1, 174661, Note_off_c, 1, 62, 0
1, 174661, Note_off_c, 1, 53, 0
1, 174662, Note_on_c, 1, 65, 127
1, 174662, Note_on_c, 1, 57, 127
1, 174791, Note_off_c, 1, 65, 0
1, 174791, Note_off_c, 1, 57, 0
1, 174792, Note_on_c, 1, 48, 127
1, 174792, Note_on_c, 1, 69, 127
1, 174921, Note_off_c, 1, 48, 0
1, 174922, Note_on_c, 1, 74, 127
1, 174922, Note_on_c, 1, 53, 127
1, 175051, Note_off_c, 1, 69, 0
1, 175051, Note_off_c, 1, 74, 0
1, 175051, Note_off_c, 1, 53, 0
1, 175052, Note_on_c, 1, 64, 127
1, 175052, Note_on_c, 1, 57, 127
1, 175181, Note_off_c, 1, 64, 0
1, 175181, Note_off_c, 1, 57, 0
1, 175182, Note_on_c, 1, 62, 127
1, 175182, Note_on_c, 1, 46, 127
1, 175311, Note_off_c, 1, 62, 0
1, 175311, Note_off_c, 1, 46, 0
1, 175312, Note_on_c, 1, 65, 127
1, 175312, Note_on_c, 1, 50, 127
1, 175441, Note_off_c, 1, 65, 0
1, 175441, Note_off_c, 1, 50, 0
1, 175442, Note_on_c, 1, 60, 127
1, 175442, Note_on_c, 1, 53, 127
1, 175571, Note_off_c, 1, 60, 0
1, 175571, Note_off_c, 1, 53, 0
1, 175572, Note_on_c, 1, 62, 127
1, 175572, Note_on_c, 1, 46, 127
1, 175701, Note_off_c, 1, 62, 0
1, 175701, Note_off_c, 1, 46, 0
1, 175702, Note_on_c, 1, 58, 127
1, 175702, Note_on_c, 1, 50, 127
1, 175831, Note_off_c, 1, 58, 0
1, 175831, Note_off_c, 1, 50, 0
1, 175832, Note_on_c, 1, 62, 127
1, 175832, Note_on_c, 1, 53, 127
1, 175961, Note_off_c, 1, 62, 0
1, 175961, Note_off_c, 1, 53, 0
1, 175962, Note_on_c, 1, 45, 127
1, 175962, Note_on_c, 1, 65, 127
1, 176091, Note_off_c, 1, 45, 0
1, 176092, Note_on_c, 1, 70, 127
1, 176092, Note_on_c, 1, 50, 127
1, 176221, Note_off_c, 1, 65, 0
1, 176221, Note_off_c, 1, 70, 0
1, 176221, Note_off_c, 1, 50, 0
1, 176222, Note_on_c, 1, 60, 127
1, 176222, Note_on_c, 1, 53, 127
1, 176351, Note_off_c, 1, 60, 0
1, 176351, Note_off_c, 1, 53, 0
1, 176352, Note_on_c, 1, 43, 127
1, 176352, Note_on_c, 1, 58, 127
1, 176481, Note_off_c, 1, 43, 0
1, 176482, Note_on_c, 1, 46, 127
1, 176611, Note_off_c, 1, 46, 0
1, 176612, Note_on_c, 1, 50, 127
1, 176738, Note_off_c, 1, 58, 0
1, 176741, Note_off_c, 1, 50, 0
1, 176742, Note_on_c, 1, 43, 127
1, 176871, Note_off_c, 1, 43, 0
1, 176872, Note_on_c, 1, 46, 127
1, 177001, Note_off_c, 1, 46, 0
1, 177002, Note_on_c, 1, 67, 127
1, 177002, Note_on_c, 1, 50, 127
1, 177099, Note_off_c, 1, 67, 0
1, 177132, Note_off_c, 1, 50, 0
1, 177133, Note_on_c, 1, 41, 127
1, 177133, Note_on_c, 1, 58, 127
1, 177262, Note_off_c, 1, 41, 0
1, 177263, Note_on_c, 1, 46, 127
1, 177392, Note_off_c, 1, 46, 0
1, 177393, Note_on_c, 1, 67, 127
1, 177393, Note_on_c, 1, 50, 127
1, 177425, Note_off_c, 1, 58, 0
1, 177490, Note_off_c, 1, 67, 0
1, 177523, Note_off_c, 1, 50, 0
1, 177524, Note_on_c, 1, 60, 127
1, 177524, Note_on_c, 1, 40, 127
1, 177621, Note_off_c, 1, 60, 0
1, 177622, Note_on_c, 1, 58, 127
1, 177654, Note_off_c, 1, 40, 0
1, 177655, Note_on_c, 1, 43, 127
1, 177670, Note_off_c, 1, 58, 0
1, 177784, Note_off_c, 1, 43, 0
1, 177785, Note_on_c, 1, 48, 127
1, 177915, Note_off_c, 1, 48, 0
1, 177916, Note_on_c, 1, 52, 127
1, 177916, Note_on_c, 1, 58, 127
1, 178045, Note_off_c, 1, 52, 0
1, 178046, Note_on_c, 1, 55, 127
1, 178160, Note_off_c, 1, 58, 0
1, 178175, Note_off_c, 1, 55, 0
1, 178176, Note_on_c, 1, 53, 127
1, 178176, Note_on_c, 1, 58, 127
1, 178305, Note_off_c, 1, 53, 0
1, 178305, Note_off_c, 1, 58, 0
1, 178306, Note_on_c, 1, 67, 127
1, 178306, Note_on_c, 1, 52, 127
1, 178435, Note_off_c, 1, 67, 0
1, 178435, Note_off_c, 1, 52, 0
1, 178436, Note_on_c, 1, 57, 127
1, 178436, Note_on_c, 1, 50, 127
1, 178565, Note_off_c, 1, 57, 0
1, 178565, Note_off_c, 1, 50, 0
1, 178566, Note_on_c, 1, 58, 127
1, 178566, Note_on_c, 1, 48, 127
1, 178695, Note_off_c, 1, 58, 0
1, 178695, Note_off_c, 1, 48, 0
1, 178704, Note_on_c, 1, 57, 127
1, 178704, Note_on_c, 1, 53, 127
1, 178833, Note_off_c, 1, 57, 0
1, 178834, Note_on_c, 1, 60, 127
1, 178963, Note_off_c, 1, 53, 0
1, 178963, Note_off_c, 1, 60, 0
1, 178964, Note_on_c, 1, 50, 127
1, 178964, Note_on_c, 1, 58, 127
1, 179093, Note_off_c, 1, 50, 0
1, 179093, Note_off_c, 1, 58, 0
1, 179094, Note_on_c, 1, 60, 127
1, 179094, Note_on_c, 1, 45, 127
1, 179223, Note_off_c, 1, 60, 0
1, 179224, Note_on_c, 1, 65, 127
1, 179353, Note_off_c, 1, 45, 0
1, 179353, Note_off_c, 1, 65, 0
1, 179354, Note_on_c, 1, 64, 127
1, 179354, Note_on_c, 1, 46, 127
1, 179483, Note_off_c, 1, 64, 0
1, 179483, Note_off_c, 1, 46, 0
1, 179484, Note_on_c, 1, 70, 127
1, 179484, Note_on_c, 1, 48, 127
1, 179613, Note_off_c, 1, 70, 0
1, 179614, Note_on_c, 1, 69, 127
1, 179743, Note_off_c, 1, 69, 0
1, 179744, Note_on_c, 1, 67, 127
1, 179744, Note_on_c, 1, 36, 127
1, 179851, Note_off_c, 1, 67, 0
1, 179870, Note_off_c, 1, 48, 0
1, 179873, Note_off_c, 1, 36, 0
1, 179882, Note_on_c, 1, 65, 127
1, 179882, Note_on_c, 1, 41, 127
1, 180011, Note_off_c, 1, 65, 0
1, 180012, Note_on_c, 1, 69, 127
1, 180126, Note_off_c, 1, 41, 0
1, 180141, Note_off_c, 1, 69, 0
1, 180142, Note_on_c, 1, 48, 127
1, 180142, Note_on_c, 1, 64, 127
1, 180239, Note_off_c, 1, 48, 0
1, 180272, Note_off_c, 1, 64, 0
1, 180273, Note_on_c, 1, 65, 127
1, 180273, Note_on_c, 1, 45, 127
1, 180402, Note_off_c, 1, 65, 0
1, 180403, Note_on_c, 1, 60, 127
1, 180532, Note_off_c, 1, 60, 0
1, 180533, Note_on_c, 1, 48, 127
1, 180565, Note_off_c, 1, 45, 0
1, 180630, Note_off_c, 1, 48, 0
1, 180664, Note_on_c, 1, 69, 127
1, 180664, Note_on_c, 1, 41, 127
1, 180793, Note_off_c, 1, 69, 0
1, 180794, Note_on_c, 1, 72, 127
1, 180923, Note_off_c, 1, 72, 0
1, 180924, Note_on_c, 1, 45, 127
1, 180924, Note_on_c, 1, 64, 127
1, 180956, Note_off_c, 1, 41, 0
1, 181021, Note_off_c, 1, 45, 0
1, 181054, Note_off_c, 1, 64, 0
1, 181055, Note_on_c, 1, 65, 127
1, 181055, Note_on_c, 1, 38, 127
1, 181184, Note_off_c, 1, 65, 0
1, 181185, Note_on_c, 1, 69, 127
1, 181279, Note_off_c, 1, 38, 0
1, 181315, Note_off_c, 1, 69, 0
1, 181316, Note_on_c, 1, 48, 127
1, 181316, Note_on_c, 1, 64, 127
1, 181413, Note_off_c, 1, 48, 0
1, 181446, Note_off_c, 1, 64, 0
1, 181447, Note_on_c, 1, 65, 127
1, 181447, Note_on_c, 1, 45, 127
1, 181576, Note_off_c, 1, 65, 0
1, 181577, Note_on_c, 1, 60, 127
1, 181706, Note_off_c, 1, 60, 0
1, 181707, Note_on_c, 1, 48, 127
1, 181739, Note_off_c, 1, 45, 0
1, 181804, Note_off_c, 1, 48, 0
1, 181838, Note_on_c, 1, 69, 127
1, 181838, Note_on_c, 1, 41, 127
1, 181967, Note_off_c, 1, 69, 0
1, 181968, Note_on_c, 1, 72, 127
1, 182097, Note_off_c, 1, 72, 0
1, 182098, Note_on_c, 1, 45, 127
1, 182098, Note_on_c, 1, 64, 127
1, 182130, Note_off_c, 1, 41, 0
1, 182195, Note_off_c, 1, 45, 0
1, 182228, Note_off_c, 1, 64, 0
1, 182229, Note_on_c, 1, 65, 127
1, 182229, Note_on_c, 1, 33, 127
1, 182358, Note_off_c, 1, 65, 0
1, 182359, Note_on_c, 1, 69, 127
1, 182473, Note_off_c, 1, 33, 0
1, 182488, Note_off_c, 1, 69, 0
1, 182489, Note_on_c, 1, 48, 127
1, 182489, Note_on_c, 1, 64, 127
1, 182586, Note_off_c, 1, 48, 0
1, 182619, Note_off_c, 1, 64, 0
1, 182620, Note_on_c, 1, 65, 127
1, 182620, Note_on_c, 1, 45, 127
1, 182749, Note_off_c, 1, 65, 0
1, 182750, Note_on_c, 1, 60, 127
1, 182879, Note_off_c, 1, 60, 0
1, 182880, Note_on_c, 1, 48, 127
1, 182912, Note_off_c, 1, 45, 0
1, 182977, Note_off_c, 1, 48, 0
1, 183011, Note_on_c, 1, 69, 127
1, 183011, Note_on_c, 1, 41, 127
1, 183140, Note_off_c, 1, 69, 0
1, 183141, Note_on_c, 1, 72, 127
1, 183270, Note_off_c, 1, 72, 0
1, 183271, Note_on_c, 1, 45, 127
1, 183271, Note_on_c, 1, 64, 127
1, 183303, Note_off_c, 1, 41, 0
1, 183368, Note_off_c, 1, 45, 0
1, 183401, Note_off_c, 1, 64, 0
1, 183402, Note_on_c, 1, 62, 127
1, 183402, Note_on_c, 1, 34, 127
1, 183531, Note_off_c, 1, 62, 0
1, 183532, Note_on_c, 1, 70, 127
1, 183661, Note_off_c, 1, 70, 0
1, 183662, Note_on_c, 1, 46, 127
1, 183662, Note_on_c, 1, 67, 127
1, 183694, Note_off_c, 1, 34, 0
1, 183759, Note_off_c, 1, 46, 0
1, 183792, Note_off_c, 1, 67, 0
1, 183793, Note_on_c, 1, 65, 127
1, 183793, Note_on_c, 1, 48, 127
1, 183938, Note_off_c, 1, 65, 0
1, 183939, Note_on_c, 1, 64, 127
1, 183987, Note_off_c, 1, 64, 0
1, 184183, Note_off_c, 1, 48, 0
1, 184184, Note_on_c, 1, 65, 127
1, 184184, Note_on_c, 1, 36, 127
1, 184232, Note_off_c, 1, 65, 0
1, 184233, Note_on_c, 1, 64, 127
1, 184378, Note_off_c, 1, 64, 0
1, 184573, Note_off_c, 1, 36, 0
1, 184574, Note_on_c, 1, 57, 127
1, 184574, Note_on_c, 1, 60, 127
1, 184574, Note_on_c, 1, 65, 127
1, 184574, Note_on_c, 1, 41, 127
1, 185354, Note_off_c, 1, 57, 0
1, 185354, Note_off_c, 1, 60, 0
1, 185534, Note_off_c, 1, 65, 0
1, 185649, Note_on_c, 1, 53, 127
1, 185744, Note_off_c, 1, 41, 0
1, 185779, Note_on_c, 1, 69, 127
1, 185908, Note_off_c, 1, 69, 0
1, 185909, Note_on_c, 1, 64, 127
1, 186038, Note_off_c, 1, 64, 0
1, 186279, Note_off_c, 1, 53, 0
1, 186299, Note_on_c, 1, 57, 127
1, 186299, Note_on_c, 1, 65, 127
1, 186396, Note_off_c, 1, 57, 0
1, 186429, Note_off_c, 1, 65, 0
1, 186430, Note_on_c, 1, 69, 127
1, 186430, Note_on_c, 1, 60, 127
1, 186559, Note_off_c, 1, 69, 0
1, 186560, Note_on_c, 1, 72, 127
1, 186689, Note_off_c, 1, 72, 0
1, 186690, Note_on_c, 1, 63, 127
1, 186690, Note_on_c, 1, 67, 127
1, 186722, Note_off_c, 1, 60, 0
1, 186787, Note_off_c, 1, 63, 0
1, 186820, Note_off_c, 1, 67, 0
1, 186821, Note_on_c, 1, 69, 127
1, 186821, Note_on_c, 1, 51, 127
1, 186950, Note_off_c, 1, 69, 0
1, 186951, Note_on_c, 1, 72, 127
1, 187080, Note_off_c, 1, 72, 0
1, 187081, Note_on_c, 1, 67, 127
1, 187210, Note_off_c, 1, 67, 0
1, 187341, Note_on_c, 1, 66, 127
1, 187461, Note_off_c, 1, 51, 0
1, 187470, Note_off_c, 1, 66, 0
1, 187471, Note_on_c, 1, 54, 127
1, 187471, Note_on_c, 1, 69, 127
1, 187568, Note_off_c, 1, 54, 0
1, 187601, Note_off_c, 1, 69, 0
1, 187602, Note_on_c, 1, 72, 127
1, 187602, Note_on_c, 1, 57, 127
1, 187731, Note_off_c, 1, 72, 0
1, 187732, Note_on_c, 1, 75, 127
1, 187861, Note_off_c, 1, 75, 0
1, 187862, Note_on_c, 1, 60, 127
1, 187862, Note_on_c, 1, 70, 127
1, 187894, Note_off_c, 1, 57, 0
1, 187959, Note_off_c, 1, 60, 0
1, 187992, Note_off_c, 1, 70, 0
1, 187993, Note_on_c, 1, 72, 127
1, 187993, Note_on_c, 1, 50, 127
1, 188122, Note_off_c, 1, 72, 0
1, 188123, Note_on_c, 1, 75, 127
1, 188252, Note_off_c, 1, 75, 0
1, 188253, Note_on_c, 1, 70, 127
1, 188382, Note_off_c, 1, 70, 0
1, 188513, Note_on_c, 1, 69, 127
1, 188642, Note_off_c, 1, 69, 0
1, 188643, Note_off_c, 1, 50, 0
1, 188643, Note_on_c, 1, 57, 127
1, 188740, Note_off_c, 1, 57, 0
1, 188774, Note_on_c, 1, 78, 127
1, 188774, Note_on_c, 1, 62, 127
1, 188903, Note_off_c, 1, 78, 0
1, 188904, Note_on_c, 1, 81, 127
1, 189033, Note_off_c, 1, 81, 0
1, 189034, Note_on_c, 1, 66, 127
1, 189034, Note_on_c, 1, 74, 127
1, 189066, Note_off_c, 1, 62, 0
1, 189131, Note_off_c, 1, 66, 0
1, 189164, Note_off_c, 1, 74, 0
1, 189165, Note_on_c, 1, 82, 127
1, 189165, Note_on_c, 1, 67, 127
1, 189294, Note_off_c, 1, 82, 0
1, 189295, Note_on_c, 1, 84, 127
1, 189424, Note_off_c, 1, 84, 0
1, 189425, Note_on_c, 1, 55, 127
1, 189425, Note_on_c, 1, 75, 127
1, 189457, Note_off_c, 1, 67, 0
1, 189522, Note_off_c, 1, 55, 0
1, 189555, Note_off_c, 1, 75, 0
1, 189556, Note_on_c, 1, 81, 127
1, 189556, Note_on_c, 1, 53, 127
1, 189685, Note_off_c, 1, 81, 0
1, 189686, Note_on_c, 1, 82, 127
1, 189815, Note_off_c, 1, 82, 0
1, 189816, Note_on_c, 1, 65, 127
1, 189816, Note_on_c, 1, 74, 127
1, 189848, Note_off_c, 1, 53, 0
1, 189913, Note_off_c, 1, 65, 0
1, 189946, Note_off_c, 1, 74, 0
1, 189947, Note_on_c, 1, 79, 127
1, 189947, Note_on_c, 1, 63, 127
1, 190076, Note_off_c, 1, 79, 0
1, 190077, Note_on_c, 1, 81, 127
1, 190206, Note_off_c, 1, 81, 0
1, 190207, Note_on_c, 1, 51, 127
1, 190207, Note_on_c, 1, 72, 127
1, 190239, Note_off_c, 1, 63, 0
1, 190304, Note_off_c, 1, 51, 0
1, 190337, Note_off_c, 1, 72, 0
1, 190338, Note_on_c, 1, 79, 127
1, 190338, Note_on_c, 1, 50, 127
1, 190435, Note_off_c, 1, 79, 0
1, 190436, Note_on_c, 1, 78, 127
1, 190468, Note_off_c, 1, 50, 0
1, 190469, Note_on_c, 1, 54, 127
1, 190484, Note_off_c, 1, 78, 0
1, 190598, Note_off_c, 1, 54, 0
1, 190599, Note_on_c, 1, 57, 127
1, 190729, Note_off_c, 1, 57, 0
1, 190730, Note_on_c, 1, 62, 127
1, 190730, Note_on_c, 1, 78, 127
1, 190859, Note_off_c, 1, 62, 0
1, 190859, Note_off_c, 1, 78, 0
1, 190860, Note_on_c, 1, 66, 127
1, 190860, Note_on_c, 1, 74, 127
1, 190989, Note_off_c, 1, 66, 0
1, 190989, Note_off_c, 1, 74, 0
1, 190990, Note_on_c, 1, 69, 127
1, 190990, Note_on_c, 1, 78, 127
1, 191119, Note_off_c, 1, 69, 0
1, 191119, Note_off_c, 1, 78, 0
1, 191120, Note_on_c, 1, 81, 127
1, 191120, Note_on_c, 1, 72, 127
1, 191249, Note_off_c, 1, 81, 0
1, 191250, Note_on_c, 1, 74, 127
1, 191374, Note_off_c, 1, 72, 0
1, 191379, Note_off_c, 1, 74, 0
1, 191380, Note_on_c, 1, 72, 127
1, 191509, Note_off_c, 1, 72, 0
1, 191510, Note_on_c, 1, 43, 127
1, 191510, Note_on_c, 1, 70, 127
1, 191639, Note_off_c, 1, 43, 0
1, 191639, Note_off_c, 1, 70, 0
1, 191640, Note_on_c, 1, 46, 127
1, 191640, Note_on_c, 1, 74, 127
1, 191769, Note_off_c, 1, 46, 0
1, 191769, Note_off_c, 1, 74, 0
1, 191770, Note_on_c, 1, 50, 127
1, 191770, Note_on_c, 1, 69, 127
1, 191899, Note_off_c, 1, 50, 0
1, 191899, Note_off_c, 1, 69, 0
1, 191900, Note_on_c, 1, 55, 127
1, 191900, Note_on_c, 1, 70, 127
1, 192029, Note_off_c, 1, 55, 0
1, 192029, Note_off_c, 1, 70, 0
1, 192030, Note_on_c, 1, 58, 127
1, 192030, Note_on_c, 1, 67, 127
1, 192159, Note_off_c, 1, 58, 0
1, 192159, Note_off_c, 1, 67, 0
1, 192160, Note_on_c, 1, 62, 127
1, 192160, Note_on_c, 1, 70, 127
1, 192289, Note_off_c, 1, 62, 0
1, 192289, Note_off_c, 1, 70, 0
1, 192290, Note_on_c, 1, 74, 127
1, 192290, Note_on_c, 1, 65, 127
1, 192419, Note_off_c, 1, 74, 0
1, 192420, Note_on_c, 1, 79, 127
1, 192549, Note_off_c, 1, 79, 0
1, 192550, Note_on_c, 1, 82, 127
1, 192679, Note_off_c, 1, 65, 0
1, 192679, Note_off_c, 1, 82, 0
1, 192680, Note_on_c, 1, 77, 127
1, 192680, Note_on_c, 1, 48, 127
1, 192777, Note_off_c, 1, 77, 0
1, 192778, Note_on_c, 1, 75, 127
1, 192810, Note_off_c, 1, 48, 0
1, 192811, Note_on_c, 1, 51, 127
1, 192826, Note_off_c, 1, 75, 0
1, 192940, Note_off_c, 1, 51, 0
1, 192941, Note_on_c, 1, 55, 127
1, 193071, Note_off_c, 1, 55, 0
1, 193072, Note_on_c, 1, 60, 127
1, 193072, Note_on_c, 1, 75, 127
1, 193201, Note_off_c, 1, 60, 0
1, 193201, Note_off_c, 1, 75, 0
1, 193202, Note_on_c, 1, 63, 127
1, 193202, Note_on_c, 1, 72, 127
1, 193331, Note_off_c, 1, 63, 0
1, 193331, Note_off_c, 1, 72, 0
1, 193332, Note_on_c, 1, 67, 127
1, 193332, Note_on_c, 1, 75, 127
1, 193461, Note_off_c, 1, 67, 0
1, 193461, Note_off_c, 1, 75, 0
1, 193462, Note_on_c, 1, 79, 127
1, 193462, Note_on_c, 1, 70, 127
1, 193591, Note_off_c, 1, 79, 0
1, 193592, Note_on_c, 1, 72, 127
1, 193716, Note_off_c, 1, 70, 0
1, 193721, Note_off_c, 1, 72, 0
1, 193722, Note_on_c, 1, 70, 127
1, 193851, Note_off_c, 1, 70, 0
1, 193852, Note_on_c, 1, 41, 127
1, 193852, Note_on_c, 1, 69, 127
1, 193981, Note_off_c, 1, 41, 0
1, 193981, Note_off_c, 1, 69, 0
1, 193982, Note_on_c, 1, 45, 127
1, 193982, Note_on_c, 1, 72, 127
1, 194111, Note_off_c, 1, 45, 0
1, 194111, Note_off_c, 1, 72, 0
1, 194112, Note_on_c, 1, 48, 127
1, 194112, Note_on_c, 1, 67, 127
1, 194241, Note_off_c, 1, 48, 0
1, 194241, Note_off_c, 1, 67, 0
1, 194242, Note_on_c, 1, 53, 127
1, 194242, Note_on_c, 1, 69, 127
1, 194371, Note_off_c, 1, 53, 0
1, 194371, Note_off_c, 1, 69, 0
1, 194372, Note_on_c, 1, 57, 127
1, 194372, Note_on_c, 1, 65, 127
1, 194501, Note_off_c, 1, 57, 0
1, 194501, Note_off_c, 1, 65, 0
1, 194502, Note_on_c, 1, 60, 127
1, 194502, Note_on_c, 1, 69, 127
1, 194631, Note_off_c, 1, 60, 0
1, 194631, Note_off_c, 1, 69, 0
1, 194632, Note_on_c, 1, 72, 127
1, 194632, Note_on_c, 1, 63, 127
1, 194761, Note_off_c, 1, 72, 0
1, 194762, Note_on_c, 1, 77, 127
1, 194891, Note_off_c, 1, 77, 0
1, 194892, Note_on_c, 1, 81, 127
1, 194925, Note_off_c, 1, 63, 0
1, 195022, Note_off_c, 1, 81, 0
1, 195023, Note_on_c, 1, 75, 127
1, 195023, Note_on_c, 1, 46, 127
1, 195120, Note_off_c, 1, 75, 0
1, 195121, Note_on_c, 1, 74, 127
1, 195153, Note_off_c, 1, 46, 0
1, 195154, Note_on_c, 1, 50, 127
1, 195169, Note_off_c, 1, 74, 0
1, 195283, Note_off_c, 1, 50, 0
1, 195284, Note_on_c, 1, 53, 127
1, 195414, Note_off_c, 1, 53, 0
1, 195415, Note_on_c, 1, 58, 127
1, 195415, Note_on_c, 1, 74, 127
1, 195544, Note_off_c, 1, 58, 0
1, 195544, Note_off_c, 1, 74, 0
1, 195545, Note_on_c, 1, 62, 127
1, 195545, Note_on_c, 1, 70, 127
1, 195674, Note_off_c, 1, 62, 0
1, 195674, Note_off_c, 1, 70, 0
1, 195675, Note_on_c, 1, 65, 127
1, 195675, Note_on_c, 1, 74, 127
1, 195804, Note_off_c, 1, 65, 0
1, 195804, Note_off_c, 1, 74, 0
1, 195805, Note_on_c, 1, 77, 127
1, 195805, Note_on_c, 1, 68, 127
1, 195934, Note_off_c, 1, 77, 0
1, 195935, Note_on_c, 1, 70, 127
1, 196064, Note_off_c, 1, 68, 0
1, 196064, Note_off_c, 1, 70, 0
1, 196065, Note_on_c, 1, 68, 127
1, 196194, Note_off_c, 1, 68, 0
1, 196195, Note_on_c, 1, 67, 127
1, 196325, Note_on_c, 1, 63, 127
1, 196454, Note_off_c, 1, 63, 0
1, 196455, Note_on_c, 1, 77, 127
1, 196455, Note_on_c, 1, 62, 127
1, 196487, Note_off_c, 1, 67, 0
1, 196552, Note_off_c, 1, 77, 0
1, 196585, Note_off_c, 1, 62, 0
1, 196586, Note_on_c, 1, 60, 127
1, 196586, Note_on_c, 1, 75, 127
1, 196715, Note_off_c, 1, 60, 0
1, 196716, Note_on_c, 1, 63, 127
1, 196845, Note_off_c, 1, 63, 0
1, 196846, Note_on_c, 1, 82, 127
1, 196846, Note_on_c, 1, 67, 127
1, 196878, Note_off_c, 1, 75, 0
1, 196943, Note_off_c, 1, 82, 0
1, 196976, Note_off_c, 1, 67, 0
1, 196977, Note_on_c, 1, 65, 127
1, 196977, Note_on_c, 1, 80, 127
1, 197106, Note_off_c, 1, 65, 0
1, 197107, Note_on_c, 1, 62, 127
1, 197236, Note_off_c, 1, 62, 0
1, 197237, Note_on_c, 1, 74, 127
1, 197237, Note_on_c, 1, 58, 127
1, 197269, Note_off_c, 1, 80, 0
1, 197334, Note_off_c, 1, 74, 0
1, 197359, Note_off_c, 1, 58, 0
1, 197367, Note_on_c, 1, 63, 127
1, 197497, Note_on_c, 1, 60, 127
1, 197626, Note_off_c, 1, 60, 0
1, 197627, Note_on_c, 1, 74, 127
1, 197627, Note_on_c, 1, 58, 127
1, 197659, Note_off_c, 1, 63, 0
1, 197724, Note_off_c, 1, 74, 0
1, 197757, Note_off_c, 1, 58, 0
1, 197758, Note_on_c, 1, 56, 127
1, 197758, Note_on_c, 1, 72, 127
1, 197887, Note_off_c, 1, 56, 0
1, 197888, Note_on_c, 1, 60, 127
1, 198017, Note_off_c, 1, 60, 0
1, 198018, Note_on_c, 1, 79, 127
1, 198018, Note_on_c, 1, 63, 127
1, 198050, Note_off_c, 1, 72, 0
1, 198115, Note_off_c, 1, 79, 0
1, 198148, Note_off_c, 1, 63, 0
1, 198149, Note_on_c, 1, 62, 127
1, 198149, Note_on_c, 1, 77, 127
1, 198278, Note_off_c, 1, 62, 0
1, 198279, Note_on_c, 1, 59, 127
1, 198408, Note_off_c, 1, 59, 0
1, 198409, Note_on_c, 1, 71, 127
1, 198409, Note_on_c, 1, 55, 127
1, 198441, Note_off_c, 1, 77, 0
1, 198506, Note_off_c, 1, 71, 0
1, 198531, Note_off_c, 1, 55, 0
1, 198539, Note_on_c, 1, 60, 127
1, 198669, Note_on_c, 1, 57, 127
1, 198798, Note_off_c, 1, 57, 0
1, 198799, Note_on_c, 1, 70, 127
1, 198799, Note_on_c, 1, 55, 127
1, 198831, Note_off_c, 1, 60, 0
1, 198896, Note_off_c, 1, 70, 0
1, 198929, Note_off_c, 1, 55, 0
1, 198930, Note_on_c, 1, 54, 127
1, 198930, Note_on_c, 1, 69, 127
1, 199059, Note_off_c, 1, 54, 0
1, 199060, Note_on_c, 1, 57, 127
1, 199189, Note_off_c, 1, 57, 0
1, 199190, Note_on_c, 1, 75, 127
1, 199190, Note_on_c, 1, 60, 127
1, 199222, Note_off_c, 1, 69, 0
1, 199287, Note_off_c, 1, 75, 0
1, 199320, Note_off_c, 1, 60, 0
1, 199321, Note_on_c, 1, 58, 127
1, 199321, Note_on_c, 1, 74, 127
1, 199450, Note_off_c, 1, 58, 0
1, 199451, Note_on_c, 1, 55, 127
1, 199580, Note_off_c, 1, 55, 0
1, 199581, Note_on_c, 1, 67, 127
1, 199581, Note_on_c, 1, 51, 127
1, 199613, Note_off_c, 1, 74, 0
1, 199678, Note_off_c, 1, 67, 0
1, 199712, Note_on_c, 1, 66, 127
1, 199841, Note_off_c, 1, 51, 0
1, 199841, Note_off_c, 1, 66, 0
1, 199842, Note_on_c, 1, 60, 127
1, 199842, Note_on_c, 1, 69, 127
1, 199971, Note_off_c, 1, 60, 0
1, 199971, Note_off_c, 1, 69, 0
1, 199972, Note_on_c, 1, 57, 127
1, 199972, Note_on_c, 1, 72, 127
1, 200101, Note_off_c, 1, 57, 0
1, 200101, Note_off_c, 1, 72, 0
1, 200102, Note_on_c, 1, 54, 127
1, 200102, Note_on_c, 1, 75, 127
1, 200231, Note_off_c, 1, 54, 0
1, 200231, Note_off_c, 1, 75, 0
1, 200232, Note_on_c, 1, 55, 127
1, 200232, Note_on_c, 1, 74, 127
1, 200361, Note_off_c, 1, 55, 0
1, 200361, Note_off_c, 1, 74, 0
1, 200362, Note_on_c, 1, 57, 127
1, 200362, Note_on_c, 1, 72, 127
1, 200491, Note_off_c, 1, 57, 0
1, 200491, Note_off_c, 1, 72, 0
1, 200492, Note_on_c, 1, 51, 127
1, 200492, Note_on_c, 1, 81, 127
1, 200621, Note_off_c, 1, 51, 0
1, 200622, Note_on_c, 1, 50, 127
1, 200716, Note_off_c, 1, 81, 0
1, 200752, Note_off_c, 1, 50, 0
1, 200753, Note_on_c, 1, 48, 127
1, 200882, Note_off_c, 1, 48, 0
1, 200883, Note_on_c, 1, 46, 127
1, 200883, Note_on_c, 1, 62, 127
1, 201012, Note_off_c, 1, 46, 0
1, 201012, Note_off_c, 1, 62, 0
1, 201013, Note_on_c, 1, 55, 127
1, 201013, Note_on_c, 1, 67, 127
1, 201142, Note_off_c, 1, 55, 0
1, 201142, Note_off_c, 1, 67, 0
1, 201143, Note_on_c, 1, 50, 127
1, 201143, Note_on_c, 1, 70, 127
1, 201272, Note_off_c, 1, 50, 0
1, 201272, Note_off_c, 1, 70, 0
1, 201273, Note_on_c, 1, 46, 127
1, 201273, Note_on_c, 1, 74, 127
1, 201402, Note_off_c, 1, 46, 0
1, 201402, Note_off_c, 1, 74, 0
1, 201403, Note_on_c, 1, 48, 127
1, 201403, Note_on_c, 1, 72, 127
1, 201532, Note_off_c, 1, 48, 0
1, 201532, Note_off_c, 1, 72, 0
1, 201533, Note_on_c, 1, 50, 127
1, 201533, Note_on_c, 1, 70, 127
1, 201662, Note_off_c, 1, 50, 0
1, 201662, Note_off_c, 1, 70, 0
1, 201663, Note_on_c, 1, 43, 127
1, 201663, Note_on_c, 1, 82, 127
1, 201792, Note_off_c, 1, 43, 0
1, 201793, Note_on_c, 1, 42, 127
1, 201913, Note_off_c, 1, 82, 0
1, 201922, Note_off_c, 1, 42, 0
1, 201923, Note_on_c, 1, 40, 127
1, 202053, Note_off_c, 1, 40, 0
1, 202054, Note_on_c, 1, 61, 127
1, 202054, Note_on_c, 1, 38, 127
1, 202183, Note_off_c, 1, 61, 0
1, 202184, Note_on_c, 1, 64, 127
1, 202313, Note_off_c, 1, 64, 0
1, 202314, Note_on_c, 1, 67, 127
1, 202314, Note_on_c, 1, 49, 127
1, 202440, Note_off_c, 1, 38, 0
1, 202443, Note_off_c, 1, 67, 0
1, 202444, Note_on_c, 1, 70, 127
1, 202573, Note_off_c, 1, 70, 0
1, 202574, Note_on_c, 1, 69, 127
1, 202700, Note_off_c, 1, 49, 0
1, 202703, Note_off_c, 1, 69, 0
1, 202834, Note_on_c, 1, 76, 127
1, 203126, Note_off_c, 1, 76, 0
1, 203224, Note_on_c, 1, 66, 127
1, 203224, Note_on_c, 1, 38, 127
1, 203224, Note_on_c, 1, 50, 127
1, 203353, Note_off_c, 1, 66, 0
1, 203354, Note_on_c, 1, 67, 127
1, 203483, Note_off_c, 1, 67, 0
1, 203484, Note_on_c, 1, 69, 127
1, 203613, Note_off_c, 1, 69, 0
1, 203614, Note_on_c, 1, 62, 127
1, 203712, Note_off_c, 1, 38, 0
1, 203744, Note_off_c, 1, 62, 0
1, 203809, Note_off_c, 1, 50, 0
1, 203875, Note_on_c, 1, 51, 127
1, 203875, Note_on_c, 1, 69, 127
1, 203972, Note_off_c, 1, 51, 0
1, 204005, Note_off_c, 1, 69, 0
1, 204006, Note_on_c, 1, 72, 127
1, 204006, Note_on_c, 1, 50, 127
1, 204135, Note_off_c, 1, 72, 0
1, 204136, Note_on_c, 1, 70, 127
1, 204265, Note_off_c, 1, 70, 0
1, 204266, Note_on_c, 1, 48, 127
1, 204266, Note_on_c, 1, 69, 127
1, 204298, Note_off_c, 1, 50, 0
1, 204363, Note_off_c, 1, 48, 0
1, 204396, Note_off_c, 1, 69, 0
1, 204397, Note_on_c, 1, 79, 127
1, 204397, Note_on_c, 1, 46, 127
1, 204526, Note_off_c, 1, 79, 0
1, 204527, Note_on_c, 1, 77, 127
1, 204656, Note_off_c, 1, 77, 0
1, 204657, Note_on_c, 1, 54, 127
1, 204657, Note_on_c, 1, 75, 127
1, 204689, Note_off_c, 1, 46, 0
1, 204754, Note_off_c, 1, 54, 0
1, 204787, Note_off_c, 1, 75, 0
1, 204788, Note_on_c, 1, 74, 127
1, 204788, Note_on_c, 1, 55, 127
1, 204917, Note_off_c, 1, 74, 0
1, 204918, Note_on_c, 1, 72, 127
1, 205047, Note_off_c, 1, 72, 0
1, 205048, Note_on_c, 1, 48, 127
1, 205048, Note_on_c, 1, 70, 127
1, 205080, Note_off_c, 1, 55, 0
1, 205145, Note_off_c, 1, 48, 0
1, 205178, Note_off_c, 1, 70, 0
1, 205179, Note_on_c, 1, 69, 127
1, 205179, Note_on_c, 1, 50, 127
1, 205308, Note_off_c, 1, 69, 0
1, 205309, Note_on_c, 1, 72, 127
1, 205438, Note_off_c, 1, 72, 0
1, 205439, Note_on_c, 1, 38, 127
1, 205439, Note_on_c, 1, 66, 127
1, 205471, Note_off_c, 1, 50, 0
1, 205536, Note_off_c, 1, 38, 0
1, 205569, Note_off_c, 1, 66, 0
1, 205570, Note_on_c, 1, 43, 127
1, 205570, Note_on_c, 1, 67, 127
1, 205699, Note_off_c, 1, 43, 0
1, 205700, Note_on_c, 1, 46, 127
1, 205829, Note_off_c, 1, 46, 0
1, 205830, Note_on_c, 1, 42, 127
1, 205959, Note_off_c, 1, 42, 0
1, 206058, Note_off_c, 1, 67, 0
1, 206091, Note_on_c, 1, 38, 127
1, 206220, Note_off_c, 1, 38, 0
1, 206221, Note_on_c, 1, 70, 127
1, 206221, Note_on_c, 1, 43, 127
1, 206318, Note_off_c, 1, 70, 0
1, 206351, Note_off_c, 1, 43, 0
1, 206352, Note_on_c, 1, 46, 127
1, 206352, Note_on_c, 1, 62, 127
1, 206481, Note_off_c, 1, 46, 0
1, 206482, Note_on_c, 1, 50, 127
1, 206611, Note_off_c, 1, 50, 0
1, 206612, Note_on_c, 1, 63, 127
1, 206612, Note_on_c, 1, 43, 127
1, 206644, Note_off_c, 1, 62, 0
1, 206709, Note_off_c, 1, 63, 0
1, 206742, Note_off_c, 1, 43, 0
1, 206743, Note_on_c, 1, 65, 127
1, 206743, Note_on_c, 1, 38, 127
1, 206872, Note_off_c, 1, 65, 0
1, 206873, Note_on_c, 1, 68, 127
1, 207002, Note_off_c, 1, 68, 0
1, 207003, Note_on_c, 1, 63, 127
1, 207132, Note_off_c, 1, 63, 0
1, 207327, Note_off_c, 1, 38, 0
1, 207393, Note_on_c, 1, 46, 127
1, 207393, Note_on_c, 1, 74, 127
1, 207490, Note_off_c, 1, 46, 0
1, 207523, Note_off_c, 1, 74, 0
1, 207524, Note_on_c, 1, 50, 127
1, 207524, Note_on_c, 1, 77, 127
1, 207653, Note_off_c, 1, 50, 0
1, 207654, Note_on_c, 1, 53, 127
1, 207783, Note_off_c, 1, 53, 0
1, 207784, Note_on_c, 1, 68, 127
1, 207784, Note_on_c, 1, 46, 127
1, 207816, Note_off_c, 1, 77, 0
1, 207881, Note_off_c, 1, 68, 0
1, 207914, Note_off_c, 1, 46, 0
1, 207915, Note_on_c, 1, 67, 127
1, 207915, Note_on_c, 1, 51, 127
1, 208044, Note_off_c, 1, 67, 0
1, 208045, Note_on_c, 1, 70, 127
1, 208174, Note_off_c, 1, 70, 0
1, 208175, Note_on_c, 1, 65, 127
1, 208304, Note_off_c, 1, 65, 0
1, 208434, Note_off_c, 1, 51, 0
1, 208435, Note_on_c, 1, 55, 127
1, 208435, Note_on_c, 1, 70, 127
1, 208532, Note_off_c, 1, 55, 0
1, 208565, Note_off_c, 1, 70, 0
1, 208566, Note_on_c, 1, 51, 127
1, 208566, Note_on_c, 1, 75, 127
1, 208695, Note_off_c, 1, 51, 0
1, 208695, Note_off_c, 1, 75, 0
1, 208696, Note_on_c, 1, 48, 127
1, 208696, Note_on_c, 1, 79, 127
1, 208825, Note_off_c, 1, 48, 0
1, 208826, Note_on_c, 1, 51, 127
1, 208955, Note_off_c, 1, 51, 0
1, 208956, Note_on_c, 1, 43, 127
1, 209085, Note_off_c, 1, 43, 0
1, 209086, Note_on_c, 1, 45, 127
1, 209215, Note_off_c, 1, 79, 0
1, 209216, Note_on_c, 1, 77, 127
1, 209345, Note_off_c, 1, 77, 0
1, 209346, Note_on_c, 1, 53, 127
1, 209346, Note_on_c, 1, 75, 127
1, 209378, Note_off_c, 1, 45, 0
1, 209443, Note_off_c, 1, 53, 0
1, 209476, Note_off_c, 1, 75, 0
1, 209477, Note_on_c, 1, 74, 127
1, 209477, Note_on_c, 1, 58, 127
1, 209606, Note_off_c, 1, 74, 0
1, 209607, Note_on_c, 1, 75, 127
1, 209736, Note_off_c, 1, 75, 0
1, 209737, Note_on_c, 1, 50, 127
1, 209737, Note_on_c, 1, 77, 127
1, 209769, Note_off_c, 1, 58, 0
1, 209834, Note_off_c, 1, 50, 0
1, 209867, Note_off_c, 1, 77, 0
1, 209868, Note_on_c, 1, 67, 127
1, 209868, Note_on_c, 1, 51, 127
1, 209997, Note_off_c, 1, 67, 0
1, 209998, Note_on_c, 1, 69, 127
1, 210127, Note_off_c, 1, 69, 0
1, 210128, Note_on_c, 1, 48, 127
1, 210128, Note_on_c, 1, 70, 127
1, 210160, Note_off_c, 1, 51, 0
1, 210225, Note_off_c, 1, 48, 0
1, 210258, Note_off_c, 1, 70, 0
1, 210259, Note_on_c, 1, 70, 127
1, 210259, Note_on_c, 1, 41, 127
1, 210356, Note_off_c, 1, 70, 0
1, 210357, Note_on_c, 1, 69, 127
1, 210389, Note_off_c, 1, 41, 0
1, 210390, Note_on_c, 1, 45, 127
1, 210405, Note_off_c, 1, 69, 0
1, 210519, Note_off_c, 1, 45, 0
1, 210520, Note_on_c, 1, 48, 127
1, 210650, Note_off_c, 1, 48, 0
1, 210651, Note_on_c, 1, 53, 127
1, 210651, Note_on_c, 1, 69, 127
1, 210780, Note_off_c, 1, 53, 0
1, 210781, Note_on_c, 1, 57, 127
1, 210910, Note_off_c, 1, 57, 0
1, 210911, Note_on_c, 1, 60, 127
1, 210943, Note_off_c, 1, 69, 0
1, 211041, Note_off_c, 1, 60, 0
1, 211042, Note_on_c, 1, 70, 127
1, 211042, Note_on_c, 1, 51, 127
1, 211106, Note_off_c, 1, 70, 0
1, 211107, Note_on_c, 1, 69, 127
1, 211171, Note_off_c, 1, 51, 0
1, 211171, Note_off_c, 1, 69, 0
1, 211172, Note_on_c, 1, 70, 127
1, 211172, Note_on_c, 1, 50, 127
1, 211236, Note_off_c, 1, 70, 0
1, 211237, Note_on_c, 1, 69, 127
1, 211301, Note_off_c, 1, 50, 0
1, 211301, Note_off_c, 1, 69, 0
1, 211302, Note_on_c, 1, 67, 127
1, 211302, Note_on_c, 1, 48, 127
1, 211366, Note_off_c, 1, 67, 0
1, 211367, Note_on_c, 1, 69, 127
1, 211431, Note_off_c, 1, 48, 0
1, 211431, Note_off_c, 1, 69, 0
1, 211432, Note_on_c, 1, 41, 127
1, 211432, Note_on_c, 1, 70, 127
1, 211561, Note_off_c, 1, 41, 0
1, 211561, Note_off_c, 1, 70, 0
1, 211562, Note_on_c, 1, 46, 127
1, 211562, Note_on_c, 1, 65, 127
1, 211691, Note_off_c, 1, 46, 0
1, 211691, Note_off_c, 1, 65, 0
1, 211692, Note_on_c, 1, 50, 127
1, 211692, Note_on_c, 1, 62, 127
1, 211821, Note_off_c, 1, 50, 0
1, 211821, Note_off_c, 1, 62, 0
1, 211822, Note_on_c, 1, 53, 127
1, 211822, Note_on_c, 1, 58, 127
1, 211951, Note_off_c, 1, 53, 0
1, 211951, Note_off_c, 1, 58, 0
1, 211952, Note_on_c, 1, 58, 127
1, 212081, Note_off_c, 1, 58, 0
1, 212082, Note_on_c, 1, 70, 127
1, 212082, Note_on_c, 1, 62, 127
1, 212179, Note_off_c, 1, 70, 0
1, 212212, Note_off_c, 1, 62, 0
1, 212213, Note_on_c, 1, 72, 127
1, 212213, Note_on_c, 1, 53, 127
1, 212277, Note_off_c, 1, 72, 0
1, 212278, Note_on_c, 1, 70, 127
1, 212342, Note_off_c, 1, 53, 0
1, 212342, Note_off_c, 1, 70, 0
1, 212343, Note_on_c, 1, 72, 127
1, 212343, Note_on_c, 1, 51, 127
1, 212407, Note_off_c, 1, 72, 0
1, 212408, Note_on_c, 1, 70, 127
1, 212472, Note_off_c, 1, 51, 0
1, 212472, Note_off_c, 1, 70, 0
1, 212473, Note_on_c, 1, 69, 127
1, 212473, Note_on_c, 1, 50, 127
1, 212537, Note_off_c, 1, 69, 0
1, 212538, Note_on_c, 1, 70, 127
1, 212602, Note_off_c, 1, 50, 0
1, 212602, Note_off_c, 1, 70, 0
1, 212603, Note_on_c, 1, 41, 127
1, 212603, Note_on_c, 1, 72, 127
1, 212732, Note_off_c, 1, 41, 0
1, 212732, Note_off_c, 1, 72, 0
1, 212733, Note_on_c, 1, 48, 127
1, 212733, Note_on_c, 1, 69, 127
1, 212862, Note_off_c, 1, 48, 0
1, 212862, Note_off_c, 1, 69, 0
1, 212863, Note_on_c, 1, 53, 127
1, 212863, Note_on_c, 1, 63, 127
1, 212992, Note_off_c, 1, 53, 0
1, 212992, Note_off_c, 1, 63, 0
1, 212993, Note_on_c, 1, 57, 127
1, 212993, Note_on_c, 1, 60, 127
1, 213122, Note_off_c, 1, 57, 0
1, 213122, Note_off_c, 1, 60, 0
1, 213123, Note_on_c, 1, 60, 127
1, 213252, Note_off_c, 1, 60, 0
1, 213253, Note_on_c, 1, 72, 127
1, 213253, Note_on_c, 1, 63, 127
1, 213350, Note_off_c, 1, 72, 0
1, 213383, Note_off_c, 1, 63, 0
1, 213384, Note_on_c, 1, 74, 127
1, 213384, Note_on_c, 1, 57, 127
1, 213448, Note_off_c, 1, 74, 0
1, 213449, Note_on_c, 1, 72, 127
1, 213513, Note_off_c, 1, 57, 0
1, 213513, Note_off_c, 1, 72, 0
1, 213514, Note_on_c, 1, 74, 127
1, 213514, Note_on_c, 1, 55, 127
1, 213578, Note_off_c, 1, 74, 0
1, 213579, Note_on_c, 1, 72, 127
1, 213643, Note_off_c, 1, 55, 0
1, 213643, Note_off_c, 1, 72, 0
1, 213644, Note_on_c, 1, 70, 127
1, 213644, Note_on_c, 1, 53, 127
1, 213708, Note_off_c, 1, 70, 0
1, 213709, Note_on_c, 1, 72, 127
1, 213773, Note_off_c, 1, 53, 0
1, 213773, Note_off_c, 1, 72, 0
1, 213774, Note_on_c, 1, 73, 127
1, 213774, Note_on_c, 1, 52, 127
1, 213774, Note_on_c, 1, 41, 127
1, 213903, Note_off_c, 1, 73, 0
1, 213904, Note_on_c, 1, 69, 127
1, 214033, Note_off_c, 1, 69, 0
1, 214034, Note_on_c, 1, 70, 127
1, 214163, Note_off_c, 1, 70, 0
1, 214164, Note_on_c, 1, 67, 127
1, 214293, Note_off_c, 1, 67, 0
1, 214554, Note_on_c, 1, 76, 127
1, 214683, Note_off_c, 1, 76, 0
1, 214684, Note_on_c, 1, 79, 127
1, 214813, Note_off_c, 1, 79, 0
1, 214943, Note_off_c, 1, 52, 0
1, 214943, Note_off_c, 1, 41, 0
1, 214944, Note_on_c, 1, 70, 127
1, 214944, Note_on_c, 1, 53, 127
1, 214944, Note_on_c, 1, 41, 127
1, 215008, Note_off_c, 1, 70, 0
1, 215009, Note_on_c, 1, 69, 127
1, 215073, Note_off_c, 1, 69, 0
1, 215204, Note_on_c, 1, 67, 127
1, 215268, Note_off_c, 1, 67, 0
1, 215269, Note_on_c, 1, 65, 127
1, 215333, Note_off_c, 1, 65, 0
1, 215339, Note_on_c, 1, 75, 127
1, 215463, Note_off_c, 1, 53, 0
1, 215463, Note_off_c, 1, 41, 0
1, 215464, Note_on_c, 1, 45, 127
1, 215593, Note_off_c, 1, 45, 0
1, 215594, Note_on_c, 1, 48, 127
1, 215723, Note_off_c, 1, 48, 0
1, 215844, Note_off_c, 1, 75, 0
1, 215854, Note_on_c, 1, 55, 127
1, 215854, Note_on_c, 1, 74, 127
1, 215983, Note_off_c, 1, 55, 0
1, 215983, Note_off_c, 1, 74, 0
1, 215984, Note_on_c, 1, 72, 127
1, 215984, Note_on_c, 1, 57, 127
1, 216123, Note_off_c, 1, 72, 0
1, 216125, Note_off_c, 1, 57, 0
1, 216130, Note_on_c, 1, 73, 127
1, 216130, Note_on_c, 1, 58, 127
1, 216259, Note_off_c, 1, 73, 0
1, 216260, Note_on_c, 1, 79, 127
1, 216389, Note_off_c, 1, 58, 0
1, 216389, Note_off_c, 1, 79, 0
1, 216390, Note_on_c, 1, 72, 127
1, 216390, Note_on_c, 1, 57, 127
1, 216519, Note_off_c, 1, 72, 0
1, 216519, Note_off_c, 1, 57, 0
1, 216520, Note_on_c, 1, 73, 127
1, 216520, Note_on_c, 1, 58, 127
1, 216649, Note_off_c, 1, 73, 0
1, 216650, Note_on_c, 1, 69, 127
1, 216779, Note_off_c, 1, 58, 0
1, 216779, Note_off_c, 1, 69, 0
1, 216780, Note_on_c, 1, 52, 127
1, 216780, Note_on_c, 1, 70, 127
1, 216909, Note_off_c, 1, 52, 0
1, 216909, Note_off_c, 1, 70, 0
1, 216910, Note_on_c, 1, 63, 127
1, 216910, Note_on_c, 1, 53, 127
1, 216974, Note_off_c, 1, 63, 0
1, 216975, Note_on_c, 1, 65, 127
1, 217039, Note_off_c, 1, 65, 0
1, 217105, Note_on_c, 1, 62, 127
1, 217169, Note_off_c, 1, 62, 0
1, 217170, Note_on_c, 1, 41, 127
1, 217267, Note_off_c, 1, 41, 0
1, 217296, Note_off_c, 1, 53, 0
1, 217308, Note_on_c, 1, 46, 127
1, 217308, Note_on_c, 1, 62, 127
1, 217437, Note_off_c, 1, 46, 0
1, 217437, Note_off_c, 1, 62, 0
1, 217438, Note_on_c, 1, 50, 127
1, 217438, Note_on_c, 1, 65, 127
1, 217567, Note_off_c, 1, 50, 0
1, 217567, Note_off_c, 1, 65, 0
1, 217568, Note_on_c, 1, 51, 127
1, 217568, Note_on_c, 1, 60, 127
1, 217697, Note_off_c, 1, 51, 0
1, 217697, Note_off_c, 1, 60, 0
1, 217698, Note_on_c, 1, 53, 127
1, 217698, Note_on_c, 1, 62, 127
1, 217827, Note_off_c, 1, 53, 0
1, 217827, Note_off_c, 1, 62, 0
1, 217828, Note_on_c, 1, 50, 127
1, 217828, Note_on_c, 1, 58, 127
1, 217957, Note_off_c, 1, 50, 0
1, 217957, Note_off_c, 1, 58, 0
1, 217958, Note_on_c, 1, 48, 127
1, 217958, Note_on_c, 1, 62, 127
1, 218087, Note_off_c, 1, 48, 0
1, 218087, Note_off_c, 1, 62, 0
1, 218088, Note_on_c, 1, 46, 127
1, 218088, Note_on_c, 1, 65, 127
1, 218217, Note_off_c, 1, 46, 0
1, 218217, Note_off_c, 1, 65, 0
1, 218218, Note_on_c, 1, 50, 127
1, 218218, Note_on_c, 1, 70, 127
1, 218347, Note_off_c, 1, 50, 0
1, 218347, Note_off_c, 1, 70, 0
1, 218348, Note_on_c, 1, 55, 127
1, 218348, Note_on_c, 1, 63, 127
1, 218477, Note_off_c, 1, 55, 0
1, 218477, Note_off_c, 1, 63, 0
1, 218478, Note_on_c, 1, 65, 127
1, 218478, Note_on_c, 1, 43, 127
1, 218607, Note_off_c, 1, 65, 0
1, 218608, Note_on_c, 1, 70, 127
1, 218737, Note_off_c, 1, 70, 0
1, 218738, Note_on_c, 1, 63, 127
1, 218867, Note_off_c, 1, 63, 0
1, 218998, Note_on_c, 1, 62, 127
1, 219127, Note_off_c, 1, 62, 0
1, 219257, Note_off_c, 1, 43, 0
1, 219258, Note_on_c, 1, 70, 127
1, 219387, Note_off_c, 1, 70, 0
1, 219388, Note_on_c, 1, 74, 127
1, 219517, Note_off_c, 1, 74, 0
1, 219518, Note_on_c, 1, 69, 127
1, 219647, Note_off_c, 1, 69, 0
1, 219648, Note_on_c, 1, 38, 127
1, 219648, Note_on_c, 1, 70, 127
1, 219777, Note_off_c, 1, 38, 0
1, 219777, Note_off_c, 1, 70, 0
1, 219778, Note_on_c, 1, 46, 127
1, 219778, Note_on_c, 1, 74, 127
1, 219907, Note_off_c, 1, 46, 0
1, 219907, Note_off_c, 1, 74, 0
1, 219908, Note_on_c, 1, 48, 127
1, 219908, Note_on_c, 1, 69, 127
1, 220037, Note_off_c, 1, 48, 0
1, 220037, Note_off_c, 1, 69, 0
1, 220038, Note_on_c, 1, 50, 127
1, 220038, Note_on_c, 1, 70, 127
1, 220167, Note_off_c, 1, 50, 0
1, 220167, Note_off_c, 1, 70, 0
1, 220168, Note_on_c, 1, 48, 127
1, 220168, Note_on_c, 1, 65, 127
1, 220297, Note_off_c, 1, 48, 0
1, 220297, Note_off_c, 1, 65, 0
1, 220298, Note_on_c, 1, 46, 127
1, 220298, Note_on_c, 1, 70, 127
1, 220427, Note_off_c, 1, 46, 0
1, 220427, Note_off_c, 1, 70, 0
1, 220428, Note_on_c, 1, 53, 127
1, 220428, Note_on_c, 1, 74, 127
1, 220557, Note_off_c, 1, 53, 0
1, 220557, Note_off_c, 1, 74, 0
1, 220558, Note_on_c, 1, 50, 127
1, 220558, Note_on_c, 1, 77, 127
1, 220687, Note_off_c, 1, 50, 0
1, 220687, Note_off_c, 1, 77, 0
1, 220688, Note_on_c, 1, 46, 127
1, 220688, Note_on_c, 1, 68, 127
1, 220817, Note_off_c, 1, 46, 0
1, 220817, Note_off_c, 1, 68, 0
1, 220826, Note_on_c, 1, 67, 127
1, 220826, Note_on_c, 1, 39, 127
1, 220955, Note_off_c, 1, 67, 0
1, 220956, Note_on_c, 1, 75, 127
1, 221092, Note_off_c, 1, 75, 0
1, 221093, Note_on_c, 1, 51, 127
1, 221093, Note_on_c, 1, 72, 127
1, 221195, Note_off_c, 1, 51, 0
1, 221226, Note_off_c, 1, 39, 0
1, 221229, Note_off_c, 1, 72, 0
1, 221230, Note_on_c, 1, 70, 127
1, 221230, Note_on_c, 1, 53, 127
1, 221332, Note_off_c, 1, 70, 0
1, 221333, Note_on_c, 1, 69, 127
1, 221383, Note_off_c, 1, 69, 0
1, 221669, Note_on_c, 1, 41, 127
1, 222128, Note_off_c, 1, 53, 0
1, 222128, Note_off_c, 1, 41, 0
1, 222160, Note_on_c, 1, 70, 127
1, 222160, Note_on_c, 1, 65, 127
1, 222160, Note_on_c, 1, 62, 127
1, 222160, Note_on_c, 1, 46, 127
1, 225560, Note_off_c, 1, 70, 0
1, 225660, Note_off_c, 1, 65, 0
1, 225760, Note_off_c, 1, 62, 0
1, 226853, Note_on_c, 1, 74, 127
1, 226853, Note_on_c, 1, 58, 127
1, 227160, Note_off_c, 1, 46, 0
1, 227639, Note_off_c, 1, 74, 0
1, 227832, Note_off_c, 1, 58, 0
1, 227833, Note_on_c, 1, 74, 127
1, 227833, Note_on_c, 1, 46, 127
1, 227833, Note_on_c, 1, 65, 127
1, 227833, Note_on_c, 1, 58, 127
1, 228490, Note_off_c, 1, 74, 0
1, 228491, Note_on_c, 1, 72, 127
1, 228597, Note_off_c, 1, 72, 0
1, 228598, Note_on_c, 1, 70, 127
1, 228704, Note_off_c, 1, 70, 0
1, 228705, Note_on_c, 1, 69, 127
1, 228811, Note_off_c, 1, 69, 0
1, 229302, Note_on_c, 1, 77, 127
1, 229546, Note_off_c, 1, 77, 0
1, 229547, Note_on_c, 1, 67, 127
1, 229695, Note_off_c, 1, 46, 0
1, 229791, Note_off_c, 1, 65, 0
1, 229791, Note_off_c, 1, 58, 0
1, 229791, Note_off_c, 1, 67, 0
1, 229792, Note_on_c, 1, 68, 127
1, 229792, Note_on_c, 1, 65, 127
1, 229792, Note_on_c, 1, 58, 127
1, 229852, Note_off_c, 1, 68, 0
1, 229853, Note_on_c, 1, 67, 127
1, 229913, Note_off_c, 1, 67, 0
1, 230770, Note_off_c, 1, 65, 0
1, 230770, Note_off_c, 1, 58, 0
1, 230771, Note_on_c, 1, 68, 127
1, 230771, Note_on_c, 1, 46, 127
1, 230771, Note_on_c, 1, 65, 127
1, 230771, Note_on_c, 1, 62, 127
1, 230771, Note_on_c, 1, 58, 127
1, 231428, Note_off_c, 1, 68, 0
1, 231429, Note_on_c, 1, 70, 127
1, 231535, Note_off_c, 1, 70, 0
1, 231643, Note_on_c, 1, 67, 127
1, 231749, Note_off_c, 1, 67, 0
1, 231995, Note_on_c, 1, 74, 127
1, 232239, Note_off_c, 1, 74, 0
1, 232240, Note_on_c, 1, 77, 127
1, 232684, Note_off_c, 1, 46, 0
1, 232729, Note_off_c, 1, 65, 0
1, 232729, Note_off_c, 1, 62, 0
1, 232729, Note_off_c, 1, 58, 0
1, 232730, Note_on_c, 1, 63, 127
1, 232853, Note_off_c, 1, 77, 0
1, 232975, Note_on_c, 1, 75, 127
1, 233096, Note_off_c, 1, 75, 0
1, 233219, Note_on_c, 1, 72, 127
1, 233340, Note_off_c, 1, 72, 0
1, 233707, Note_off_c, 1, 63, 0
1, 234198, Note_on_c, 1, 69, 127
1, 234442, Note_off_c, 1, 69, 0
1, 234688, Note_on_c, 1, 60, 127
1, 235178, Note_on_c, 1, 57, 127
1, 235667, Note_off_c, 1, 60, 0
1, 235667, Note_off_c, 1, 57, 0
1, 235668, Note_on_c, 1, 65, 127
1, 235668, Note_on_c, 1, 58, 127
1, 235784, Note_off_c, 1, 65, 0
1, 235785, Note_on_c, 1, 63, 127
1, 235901, Note_off_c, 1, 63, 0
1, 236156, Note_on_c, 1, 53, 127
1, 236401, Note_on_c, 1, 62, 127
1, 236645, Note_off_c, 1, 58, 0
1, 236645, Note_off_c, 1, 53, 0
1, 236645, Note_off_c, 1, 62, 0
1, 236646, Note_on_c, 1, 62, 127
1, 236646, Note_on_c, 1, 53, 127
1, 236646, Note_on_c, 1, 46, 127
1, 236646, Note_on_c, 1, 58, 127
1, 237182, Note_off_c, 1, 62, 0
1, 237266, Note_on_c, 1, 65, 127
1, 237385, Note_off_c, 1, 65, 0
1, 237386, Note_on_c, 1, 63, 127
1, 237505, Note_off_c, 1, 63, 0
1, 237870, Note_off_c, 1, 53, 0
1, 237870, Note_off_c, 1, 46, 0
1, 237870, Note_on_c, 1, 67, 127
1, 237991, Note_off_c, 1, 67, 0
1, 237992, Note_on_c, 1, 69, 127
1, 238113, Note_off_c, 1, 69, 0
1, 238114, Note_on_c, 1, 70, 127
1, 238358, Note_off_c, 1, 70, 0
1, 238603, Note_off_c, 1, 58, 0
1, 238604, Note_on_c, 1, 65, 127
1, 238604, Note_on_c, 1, 60, 127
1, 238604, Note_on_c, 1, 58, 127
1, 238848, Note_off_c, 1, 65, 0
1, 238849, Note_on_c, 1, 64, 127
1, 239093, Note_off_c, 1, 64, 0
1, 239094, Note_on_c, 1, 67, 127
1, 239338, Note_off_c, 1, 67, 0
1, 239339, Note_on_c, 1, 72, 127
1, 239583, Note_off_c, 1, 60, 0
1, 239583, Note_off_c, 1, 58, 0
1, 239583, Note_off_c, 1, 72, 0
1, 239584, Note_on_c, 1, 72, 127
1, 239584, Note_on_c, 1, 46, 127
1, 239584, Note_on_c, 1, 55, 127
1, 239584, Note_on_c, 1, 67, 127
1, 239584, Note_on_c, 1, 64, 127
1, 240195, Note_off_c, 1, 72, 0
1, 240200, Note_on_c, 1, 74, 127
1, 240325, Note_off_c, 1, 74, 0
1, 240326, Note_on_c, 1, 75, 127
1, 240451, Note_off_c, 1, 75, 0
1, 240680, Note_off_c, 1, 46, 0
1, 240800, Note_on_c, 1, 70, 127
1, 240923, Note_off_c, 1, 55, 0
1, 241037, Note_off_c, 1, 70, 0
1, 241038, Note_on_c, 1, 69, 127
1, 241042, Note_off_c, 1, 67, 0
1, 241167, Note_off_c, 1, 69, 0
1, 241542, Note_off_c, 1, 64, 0
1, 241543, Note_on_c, 1, 67, 127
1, 241543, Note_on_c, 1, 60, 127
1, 241543, Note_on_c, 1, 57, 127
1, 241787, Note_off_c, 1, 67, 0
1, 241788, Note_on_c, 1, 66, 127
1, 242032, Note_off_c, 1, 66, 0
1, 242033, Note_on_c, 1, 69, 127
1, 242277, Note_off_c, 1, 69, 0
1, 242278, Note_on_c, 1, 72, 127
1, 242399, Note_off_c, 1, 72, 0
1, 242400, Note_on_c, 1, 75, 127
1, 242521, Note_off_c, 1, 60, 0
1, 242521, Note_off_c, 1, 57, 0
1, 242521, Note_off_c, 1, 75, 0
1, 242522, Note_on_c, 1, 75, 127
1, 242522, Note_on_c, 1, 72, 127
1, 242522, Note_on_c, 1, 45, 127
1, 242522, Note_on_c, 1, 57, 127
1, 242522, Note_on_c, 1, 66, 127
1, 243256, Note_off_c, 1, 75, 0
1, 243257, Note_on_c, 1, 74, 127
1, 243377, Note_off_c, 1, 72, 0
1, 243378, Note_off_c, 1, 74, 0
1, 243500, Note_off_c, 1, 45, 0
1, 243746, Note_off_c, 1, 57, 0
1, 243761, Note_on_c, 1, 70, 127
1, 243990, Note_off_c, 1, 70, 0
1, 244251, Note_on_c, 1, 69, 127
1, 244480, Note_off_c, 1, 66, 0
1, 244480, Note_off_c, 1, 69, 0
1, 244481, Note_on_c, 1, 70, 127
1, 244481, Note_on_c, 1, 62, 127
1, 244481, Note_on_c, 1, 55, 127
1, 244801, Note_off_c, 1, 70, 0
1, 244802, Note_on_c, 1, 69, 127
1, 244865, Note_off_c, 1, 69, 0
1, 244866, Note_on_c, 1, 67, 127
1, 244929, Note_off_c, 1, 67, 0
1, 244930, Note_on_c, 1, 66, 127
1, 244993, Note_off_c, 1, 66, 0
1, 245459, Note_off_c, 1, 62, 0
1, 245460, Note_on_c, 1, 43, 127
1, 246071, Note_on_c, 1, 72, 127
1, 246192, Note_off_c, 1, 72, 0
1, 246193, Note_on_c, 1, 74, 127
1, 246430, Note_off_c, 1, 55, 0
1, 246438, Note_on_c, 1, 53, 127
1, 246627, Note_off_c, 1, 74, 0
1, 246683, Note_on_c, 1, 76, 127
1, 246804, Note_off_c, 1, 76, 0
1, 246805, Note_on_c, 1, 77, 127
1, 246926, Note_off_c, 1, 77, 0
1, 246927, Note_on_c, 1, 79, 127
1, 247048, Note_off_c, 1, 79, 0
1, 247408, Note_off_c, 1, 43, 0
1, 247414, Note_off_c, 1, 53, 0
1, 247415, Note_on_c, 1, 79, 127
1, 247415, Note_on_c, 1, 60, 127
1, 247415, Note_on_c, 1, 52, 127
1, 247536, Note_off_c, 1, 79, 0
1, 247537, Note_on_c, 1, 72, 127
1, 247658, Note_off_c, 1, 72, 0
1, 247659, Note_on_c, 1, 70, 127
1, 247780, Note_off_c, 1, 70, 0
1, 247781, Note_on_c, 1, 69, 127
1, 247902, Note_off_c, 1, 69, 0
1, 248392, Note_off_c, 1, 60, 0
1, 248392, Note_off_c, 1, 52, 0
1, 248393, Note_on_c, 1, 79, 127
1, 248393, Note_on_c, 1, 72, 127
1, 248393, Note_on_c, 1, 70, 127
1, 248393, Note_on_c, 1, 40, 127
1, 248393, Note_on_c, 1, 52, 127
1, 248393, Note_on_c, 1, 67, 127
1, 249004, Note_off_c, 1, 79, 0
1, 249017, Note_on_c, 1, 77, 127
1, 249134, Note_off_c, 1, 77, 0
1, 249135, Note_on_c, 1, 76, 127
1, 249252, Note_off_c, 1, 76, 0
1, 249253, Note_on_c, 1, 74, 127
1, 249370, Note_off_c, 1, 72, 0
1, 249370, Note_off_c, 1, 70, 0
1, 249370, Note_off_c, 1, 74, 0
1, 249616, Note_off_c, 1, 40, 0
1, 249859, Note_off_c, 1, 52, 0
1, 250106, Note_on_c, 1, 69, 127
1, 250350, Note_off_c, 1, 67, 0
1, 250350, Note_off_c, 1, 69, 0
1, 250351, Note_on_c, 1, 69, 127
1, 250351, Note_on_c, 1, 53, 127
1, 250595, Note_off_c, 1, 69, 0
1, 250596, Note_on_c, 1, 60, 127
1, 250717, Note_off_c, 1, 60, 0
1, 250718, Note_on_c, 1, 64, 127
1, 250839, Note_off_c, 1, 64, 0
1, 250840, Note_on_c, 1, 65, 127
1, 251084, Note_off_c, 1, 65, 0
1, 251330, Note_on_c, 1, 41, 127
1, 251697, Note_on_c, 1, 67, 127
1, 251818, Note_off_c, 1, 67, 0
1, 252064, Note_on_c, 1, 72, 127
1, 252301, Note_off_c, 1, 53, 0
1, 252309, Note_on_c, 1, 52, 127
1, 252375, Note_off_c, 1, 41, 0
1, 252523, Note_off_c, 1, 72, 0
1, 252676, Note_on_c, 1, 70, 127
1, 252797, Note_off_c, 1, 70, 0
1, 253043, Note_on_c, 1, 77, 127
1, 253287, Note_off_c, 1, 52, 0
1, 253288, Note_on_c, 1, 50, 127
1, 253490, Note_off_c, 1, 77, 0
1, 253533, Note_on_c, 1, 81, 127
1, 253654, Note_off_c, 1, 81, 0
1, 253655, Note_on_c, 1, 79, 127
1, 253776, Note_off_c, 1, 79, 0
1, 253899, Note_on_c, 1, 76, 127
1, 254020, Note_off_c, 1, 76, 0
1, 254021, Note_on_c, 1, 74, 127
1, 254265, Note_off_c, 1, 74, 0
1, 254266, Note_on_c, 1, 38, 127
1, 255236, Note_off_c, 1, 50, 0
1, 255243, Note_on_c, 1, 48, 127
1, 255309, Note_off_c, 1, 38, 0
1, 256220, Note_off_c, 1, 48, 0
1, 256221, Note_on_c, 1, 74, 127
1, 256221, Note_on_c, 1, 46, 127
1, 256545, Note_off_c, 1, 74, 0
1, 256588, Note_on_c, 1, 72, 127
1, 256704, Note_off_c, 1, 72, 0
1, 256710, Note_on_c, 1, 70, 127
1, 256826, Note_off_c, 1, 70, 0
1, 256832, Note_on_c, 1, 69, 127
1, 256948, Note_off_c, 1, 69, 0
1, 257076, Note_on_c, 1, 67, 127
1, 257192, Note_off_c, 1, 67, 0
1, 257197, Note_off_c, 1, 46, 0
1, 257198, Note_on_c, 1, 65, 127
1, 257198, Note_on_c, 1, 48, 127
1, 257605, Note_off_c, 1, 65, 0
1, 257606, Note_on_c, 1, 67, 127
1, 257677, Note_off_c, 1, 67, 0
1, 257764, Note_on_c, 1, 64, 127
1, 257850, Note_off_c, 1, 64, 0
1, 257938, Note_on_c, 1, 62, 127
1, 258037, Note_on_c, 1, 70, 127
1, 258054, Note_off_c, 1, 62, 0
1, 258176, Note_off_c, 1, 70, 0
1, 258178, Note_on_c, 1, 36, 127
1, 259149, Note_off_c, 1, 48, 0
1, 259155, Note_off_c, 1, 36, 0
1, 259156, Note_on_c, 1, 65, 127
1, 259156, Note_on_c, 1, 41, 127
1, 259830, Note_on_c, 1, 45, 127
1, 259951, Note_off_c, 1, 45, 0
1, 259952, Note_on_c, 1, 48, 127
1, 260135, Note_off_c, 1, 65, 0
1, 260135, Note_off_c, 1, 48, 0
1, 260136, Note_on_c, 1, 60, 127
1, 260136, Note_on_c, 1, 57, 127
1, 260136, Note_on_c, 1, 53, 127
1, 261109, Note_off_c, 1, 41, 0
1, 261681, Note_off_c, 1, 60, 0
1, 261796, Note_off_c, 1, 57, 0
1, 262036, Note_off_c, 1, 53, 0
1, 262081, Note_on_c, 1, 72, 127
1, 262081, Note_on_c, 1, 53, 127
1, 262081, Note_on_c, 1, 57, 127
1, 262081, Note_on_c, 1, 60, 127
1, 262081, Note_on_c, 1, 65, 127
1, 262081, Note_on_c, 1, 69, 127
1, 262815, Note_off_c, 1, 72, 0
1, 263060, Note_off_c, 1, 53, 0
1, 263060, Note_off_c, 1, 57, 0
1, 263060, Note_off_c, 1, 60, 0
1, 263060, Note_off_c, 1, 65, 0
1, 263060, Note_off_c, 1, 69, 0
1, 263061, Note_on_c, 1, 72, 127
1, 263061, Note_on_c, 1, 69, 127
1, 263061, Note_on_c, 1, 65, 127
1, 263061, Note_on_c, 1, 41, 127
1, 263061, Note_on_c, 1, 53, 127
1, 263713, Note_off_c, 1, 72, 0
1, 263714, Note_on_c, 1, 74, 127
1, 263821, Note_off_c, 1, 74, 0
1, 263932, Note_on_c, 1, 70, 127
1, 264039, Note_off_c, 1, 70, 0
1, 264132, Note_off_c, 1, 69, 0
1, 264584, Note_on_c, 1, 67, 127
1, 264691, Note_off_c, 1, 67, 0
1, 264799, Note_off_c, 1, 65, 0
1, 264909, Note_off_c, 1, 41, 0
1, 265017, Note_off_c, 1, 53, 0
1, 265018, Note_on_c, 1, 77, 127
1, 265018, Note_on_c, 1, 51, 127
1, 265018, Note_on_c, 1, 57, 127
1, 265752, Note_off_c, 1, 77, 0
1, 265997, Note_off_c, 1, 51, 0
1, 265997, Note_off_c, 1, 57, 0
1, 265998, Note_on_c, 1, 77, 127
1, 265998, Note_on_c, 1, 72, 127
1, 265998, Note_on_c, 1, 39, 127
1, 265998, Note_on_c, 1, 69, 127
1, 265998, Note_on_c, 1, 51, 127
1, 266585, Note_off_c, 1, 77, 0
1, 266586, Note_on_c, 1, 79, 127
1, 266683, Note_off_c, 1, 79, 0
1, 266781, Note_on_c, 1, 75, 127
1, 266878, Note_off_c, 1, 75, 0
1, 266976, Note_off_c, 1, 72, 0
1, 267075, Note_on_c, 1, 74, 127
1, 267172, Note_off_c, 1, 74, 0
1, 267662, Note_on_c, 1, 70, 127
1, 267758, Note_off_c, 1, 70, 0
1, 267782, Note_off_c, 1, 39, 0
1, 267782, Note_off_c, 1, 69, 0
1, 267909, Note_off_c, 1, 51, 0
1, 267955, Note_on_c, 1, 70, 127
1, 267955, Note_on_c, 1, 50, 127
1, 268199, Note_off_c, 1, 70, 0
1, 268200, Note_on_c, 1, 65, 127
1, 268321, Note_off_c, 1, 65, 0
1, 268322, Note_on_c, 1, 69, 127
1, 268443, Note_off_c, 1, 69, 0
1, 268689, Note_on_c, 1, 74, 127
1, 268933, Note_off_c, 1, 50, 0
1, 268933, Note_off_c, 1, 74, 0
1, 268934, Note_on_c, 1, 75, 127
1, 268934, Note_on_c, 1, 48, 127
1, 269179, Note_on_c, 1, 67, 127
1, 269300, Note_off_c, 1, 67, 0
1, 269301, Note_on_c, 1, 69, 127
1, 269422, Note_off_c, 1, 69, 0
1, 269423, Note_on_c, 1, 70, 127
1, 269544, Note_off_c, 1, 70, 0
1, 269911, Note_off_c, 1, 75, 0
1, 269911, Note_off_c, 1, 48, 0
1, 269912, Note_on_c, 1, 69, 127
1, 269912, Note_on_c, 1, 53, 127
1, 270157, Note_on_c, 1, 72, 127
1, 270278, Note_off_c, 1, 72, 0
1, 270279, Note_on_c, 1, 74, 127
1, 270400, Note_off_c, 1, 74, 0
1, 270401, Note_on_c, 1, 75, 127
1, 270522, Note_off_c, 1, 75, 0
1, 270889, Note_off_c, 1, 69, 0
1, 270889, Note_off_c, 1, 53, 0
1, 270890, Note_on_c, 1, 74, 127
1, 270890, Note_on_c, 1, 58, 127
1, 271013, Note_on_c, 1, 72, 127
1, 271134, Note_off_c, 1, 72, 0
1, 271135, Note_on_c, 1, 70, 127
1, 271256, Note_off_c, 1, 70, 0
1, 271257, Note_on_c, 1, 69, 127
1, 271378, Note_off_c, 1, 69, 0
1, 271616, Note_off_c, 1, 74, 0
1, 271868, Note_off_c, 1, 58, 0
1, 271869, Note_on_c, 1, 74, 127
1, 271869, Note_on_c, 1, 70, 127
1, 271869, Note_on_c, 1, 46, 127
1, 271869, Note_on_c, 1, 65, 127
1, 271869, Note_on_c, 1, 58, 127
1, 272480, Note_off_c, 1, 74, 0
1, 272480, Note_off_c, 1, 70, 0
1, 272481, Note_on_c, 1, 72, 127
1, 272602, Note_off_c, 1, 72, 0
1, 272725, Note_on_c, 1, 69, 127
1, 272846, Note_off_c, 1, 46, 0
1, 272846, Note_off_c, 1, 65, 0
1, 272846, Note_off_c, 1, 69, 0
1, 273091, Note_off_c, 1, 58, 0
1, 273213, Note_on_c, 1, 72, 127
1, 273334, Note_off_c, 1, 72, 0
1, 273335, Note_on_c, 1, 74, 127
1, 273456, Note_off_c, 1, 74, 0
1, 273457, Note_on_c, 1, 75, 127
1, 273578, Note_off_c, 1, 75, 0
1, 273579, Note_on_c, 1, 77, 127
1, 273700, Note_off_c, 1, 77, 0
1, 273701, Note_on_c, 1, 79, 127
1, 273822, Note_off_c, 1, 79, 0
1, 273823, Note_on_c, 1, 80, 127
1, 273823, Note_on_c, 1, 59, 127
1, 273823, Note_on_c, 1, 62, 127
1, 273944, Note_off_c, 1, 80, 0
1, 273945, Note_on_c, 1, 79, 127
1, 274066, Note_off_c, 1, 79, 0
1, 274067, Note_on_c, 1, 77, 127
1, 274188, Note_off_c, 1, 77, 0
1, 274189, Note_on_c, 1, 75, 127
1, 274310, Note_off_c, 1, 75, 0
1, 274311, Note_on_c, 1, 74, 127
1, 274432, Note_off_c, 1, 74, 0
1, 274799, Note_off_c, 1, 59, 0
1, 274799, Note_off_c, 1, 62, 0
1, 274800, Note_on_c, 1, 71, 127
1, 274800, Note_on_c, 1, 55, 127
1, 274800, Note_on_c, 1, 62, 127
1, 275044, Note_off_c, 1, 71, 0
1, 275045, Note_on_c, 1, 74, 127
1, 275289, Note_off_c, 1, 74, 0
1, 275290, Note_on_c, 1, 77, 127
1, 275534, Note_off_c, 1, 77, 0
1, 275535, Note_on_c, 1, 80, 127
1, 275779, Note_off_c, 1, 80, 0
1, 275948, Note_on_c, 1, 79, 127
1, 276020, Note_off_c, 1, 79, 0
1, 276267, Note_off_c, 1, 55, 0
1, 276514, Note_on_c, 1, 75, 127
1, 276635, Note_off_c, 1, 75, 0
1, 276757, Note_off_c, 1, 62, 0
1, 276758, Note_on_c, 1, 75, 127
1, 276758, Note_on_c, 1, 60, 127
1, 276758, Note_on_c, 1, 48, 127
1, 276879, Note_off_c, 1, 75, 0
1, 276880, Note_on_c, 1, 74, 127
1, 277001, Note_off_c, 1, 74, 0
1, 277002, Note_on_c, 1, 72, 127
1, 277123, Note_off_c, 1, 72, 0
1, 277124, Note_on_c, 1, 70, 127
1, 277245, Note_off_c, 1, 70, 0
1, 277246, Note_on_c, 1, 68, 127
1, 277367, Note_off_c, 1, 68, 0
1, 277734, Note_off_c, 1, 60, 0
1, 277734, Note_off_c, 1, 48, 0
1, 277735, Note_on_c, 1, 65, 127
1, 277735, Note_on_c, 1, 56, 127
1, 277735, Note_on_c, 1, 60, 127
1, 277979, Note_off_c, 1, 65, 0
1, 277980, Note_on_c, 1, 68, 127
1, 278224, Note_off_c, 1, 68, 0
1, 278225, Note_on_c, 1, 72, 127
1, 278469, Note_off_c, 1, 72, 0
1, 278470, Note_on_c, 1, 75, 127
1, 278714, Note_off_c, 1, 75, 0
1, 278883, Note_on_c, 1, 74, 127
1, 278955, Note_off_c, 1, 74, 0
1, 279519, Note_off_c, 1, 56, 0
1, 279570, Note_on_c, 1, 71, 127
1, 279691, Note_off_c, 1, 60, 0
1, 279691, Note_off_c, 1, 71, 0
1, 279692, Note_on_c, 1, 72, 127
1, 279692, Note_on_c, 1, 54, 127
1, 279692, Note_on_c, 1, 57, 127
1, 279936, Note_off_c, 1, 72, 0
1, 279937, Note_on_c, 1, 63, 127
1, 280181, Note_off_c, 1, 63, 0
1, 280182, Note_on_c, 1, 65, 127
1, 280262, Note_off_c, 1, 65, 0
1, 280344, Note_on_c, 1, 62, 127
1, 280424, Note_off_c, 1, 62, 0
1, 280669, Note_off_c, 1, 54, 0
1, 280669, Note_off_c, 1, 57, 0
1, 280670, Note_on_c, 1, 69, 127
1, 280670, Note_on_c, 1, 55, 127
1, 280914, Note_off_c, 1, 69, 0
1, 280915, Note_on_c, 1, 66, 127
1, 281159, Note_off_c, 1, 66, 0
1, 281160, Note_on_c, 1, 67, 127
1, 281240, Note_off_c, 1, 67, 0
1, 281322, Note_on_c, 1, 64, 127
1, 281402, Note_off_c, 1, 64, 0
1, 281648, Note_on_c, 1, 75, 127
1, 281648, Note_on_c, 1, 43, 127
1, 281892, Note_off_c, 1, 75, 0
1, 281893, Note_on_c, 1, 71, 127
1, 282137, Note_off_c, 1, 71, 0
1, 282138, Note_on_c, 1, 72, 127
1, 282218, Note_off_c, 1, 72, 0
1, 282617, Note_off_c, 1, 55, 0
1, 282623, Note_off_c, 1, 43, 0
1, 282624, Note_on_c, 1, 72, 127
1, 282624, Note_on_c, 1, 48, 127
1, 283358, Note_off_c, 1, 72, 0
1, 283603, Note_off_c, 1, 48, 0
1, 283604, Note_on_c, 1, 67, 127
1, 283604, Note_on_c, 1, 72, 127
1, 283604, Note_on_c, 1, 36, 127
1, 283604, Note_on_c, 1, 48, 127
1, 283604, Note_on_c, 1, 60, 127
1, 283604, Note_on_c, 1, 63, 127
1, 284204, Note_off_c, 1, 67, 0
1, 284215, Note_off_c, 1, 72, 0
1, 284338, Note_on_c, 1, 69, 127
1, 284459, Note_off_c, 1, 69, 0
1, 284460, Note_on_c, 1, 71, 127
1, 284581, Note_off_c, 1, 71, 0
1, 284704, Note_on_c, 1, 74, 127
1, 284825, Note_off_c, 1, 74, 0
1, 285387, Note_off_c, 1, 36, 0
1, 285559, Note_off_c, 1, 48, 0
1, 285559, Note_off_c, 1, 60, 0
1, 285559, Note_off_c, 1, 63, 0
1, 285560, Note_on_c, 1, 74, 127
1, 285560, Note_on_c, 1, 48, 127
1, 285672, Note_on_c, 1, 75, 127
1, 285681, Note_off_c, 1, 74, 0
1, 285786, Note_on_c, 1, 77, 127
1, 285794, Note_off_c, 1, 75, 0
1, 285804, Note_off_c, 1, 48, 0
1, 285805, Note_on_c, 1, 50, 127
1, 285889, Note_off_c, 1, 77, 0
1, 286048, Note_off_c, 1, 50, 0
1, 286049, Note_on_c, 1, 51, 127
1, 286292, Note_off_c, 1, 51, 0
1, 286293, Note_on_c, 1, 55, 127
1, 286536, Note_off_c, 1, 55, 0
1, 286537, Note_on_c, 1, 60, 127
1, 286779, Note_off_c, 1, 60, 0
1, 287024, Note_on_c, 1, 53, 127
1, 287267, Note_off_c, 1, 53, 0
1, 288000, Note_on_c, 1, 46, 127
1, 288243, Note_off_c, 1, 46, 0
1, 288487, Note_on_c, 1, 45, 127
1, 288729, Note_off_c, 1, 45, 0
1, 289463, Note_on_c, 1, 57, 127
1, 289706, Note_off_c, 1, 57, 0
1, 289951, Note_on_c, 1, 58, 127
1, 290193, Note_off_c, 1, 58, 0
1, 290925, Note_on_c, 1, 65, 127
1, 291167, Note_off_c, 1, 65, 0
1, 291779, Note_on_c, 1, 72, 127
1, 291900, Note_off_c, 1, 72, 0
1, 292146, Note_on_c, 1, 67, 127
1, 292146, Note_on_c, 1, 82, 127
1, 292390, Note_off_c, 1, 67, 0
1, 292391, Note_on_c, 1, 64, 127
1, 292539, Note_off_c, 1, 82, 0
1, 292636, Note_on_c, 1, 81, 127
1, 292757, Note_off_c, 1, 81, 0
1, 292758, Note_on_c, 1, 79, 127
1, 292879, Note_off_c, 1, 79, 0
1, 293124, Note_off_c, 1, 64, 0
1, 293125, Note_on_c, 1, 65, 127
1, 293125, Note_on_c, 1, 72, 127
1, 293369, Note_off_c, 1, 65, 0
1, 293370, Note_on_c, 1, 55, 127
1, 293591, Note_off_c, 1, 72, 0
1, 293615, Note_on_c, 1, 70, 127
1, 293736, Note_off_c, 1, 70, 0
1, 293737, Note_on_c, 1, 69, 127
1, 293858, Note_off_c, 1, 69, 0
1, 294103, Note_off_c, 1, 55, 0
1, 294104, Note_on_c, 1, 79, 127
1, 294104, Note_on_c, 1, 64, 127
1, 294348, Note_off_c, 1, 79, 0
1, 294348, Note_off_c, 1, 64, 0
1, 294349, Note_on_c, 1, 72, 127
1, 294349, Note_on_c, 1, 53, 127
1, 294529, Note_off_c, 1, 72, 0
1, 294530, Note_on_c, 1, 70, 127
1, 294639, Note_off_c, 1, 70, 0
1, 294860, Note_on_c, 1, 69, 127
1, 294976, Note_off_c, 1, 69, 0
1, 294977, Note_on_c, 1, 67, 127
1, 295093, Note_off_c, 1, 67, 0
1, 295328, Note_on_c, 1, 65, 127
1, 295918, Note_off_c, 1, 53, 0
1, 296094, Note_on_c, 1, 55, 127
1, 296215, Note_off_c, 1, 55, 0
1, 296274, Note_on_c, 1, 51, 127
1, 296396, Note_off_c, 1, 51, 0
1, 297048, Note_on_c, 1, 50, 127
1, 297286, Note_off_c, 1, 65, 0
1, 297287, Note_off_c, 1, 50, 0
1, 297293, Note_on_c, 1, 50, 127
1, 297538, Note_on_c, 1, 58, 127
1, 297659, Note_off_c, 1, 58, 0
1, 297660, Note_on_c, 1, 60, 127
1, 297781, Note_off_c, 1, 60, 0
1, 297782, Note_on_c, 1, 62, 127
1, 298026, Note_off_c, 1, 62, 0
1, 298027, Note_on_c, 1, 65, 127
1, 298271, Note_off_c, 1, 50, 0
1, 298272, Note_on_c, 1, 38, 127
1, 298516, Note_off_c, 1, 65, 0
1, 298639, Note_on_c, 1, 63, 127
1, 298760, Note_off_c, 1, 63, 0
1, 299005, Note_off_c, 1, 38, 0
1, 299006, Note_on_c, 1, 68, 127
1, 299006, Note_on_c, 1, 50, 127
1, 299250, Note_off_c, 1, 68, 0
1, 299250, Note_off_c, 1, 50, 0
1, 299251, Note_on_c, 1, 50, 127
1, 299251, Note_on_c, 1, 68, 127
1, 299331, Note_off_c, 1, 50, 0
1, 299332, Note_on_c, 1, 48, 127
1, 299412, Note_off_c, 1, 48, 0
1, 299981, Note_on_c, 1, 46, 127
1, 300225, Note_off_c, 1, 68, 0
1, 300225, Note_off_c, 1, 46, 0
1, 300226, Note_on_c, 1, 51, 127
1, 300471, Note_on_c, 1, 67, 127
1, 300592, Note_off_c, 1, 67, 0
1, 300593, Note_on_c, 1, 68, 127
1, 300714, Note_off_c, 1, 68, 0
1, 300715, Note_on_c, 1, 70, 127
1, 300959, Note_off_c, 1, 70, 0
1, 300960, Note_on_c, 1, 73, 127
1, 301150, Note_off_c, 1, 51, 0
1, 301204, Note_off_c, 1, 73, 0
1, 301205, Note_on_c, 1, 50, 127
1, 301205, Note_on_c, 1, 73, 127
1, 301325, Note_on_c, 1, 52, 127
1, 301326, Note_off_c, 1, 50, 0
1, 301445, Note_on_c, 1, 53, 127
1, 301446, Note_off_c, 1, 52, 0
1, 301449, Note_off_c, 1, 73, 0
1, 301450, Note_on_c, 1, 70, 127
1, 301525, Note_off_c, 1, 53, 0
1, 301571, Note_off_c, 1, 70, 0
1, 301572, Note_on_c, 1, 72, 127
1, 301693, Note_off_c, 1, 72, 0
1, 301938, Note_on_c, 1, 79, 127
1, 302182, Note_off_c, 1, 79, 0
1, 302671, Note_on_c, 1, 69, 127
1, 302915, Note_off_c, 1, 69, 0
1, 303320, Note_on_c, 1, 62, 127
1, 303436, Note_off_c, 1, 62, 0
1, 303437, Note_on_c, 1, 63, 127
1, 303553, Note_off_c, 1, 63, 0
1, 303554, Note_on_c, 1, 65, 127
1, 303670, Note_off_c, 1, 65, 0
1, 303671, Note_on_c, 1, 67, 127
1, 303787, Note_off_c, 1, 67, 0
1, 304139, Note_on_c, 1, 74, 127
1, 304139, Note_on_c, 1, 51, 127
1, 304383, Note_off_c, 1, 74, 0
1, 304384, Note_on_c, 1, 75, 127
1, 304505, Note_off_c, 1, 75, 0
1, 304628, Note_on_c, 1, 72, 127
1, 304749, Note_off_c, 1, 72, 0
1, 305115, Note_off_c, 1, 51, 0
1, 305116, Note_on_c, 1, 70, 127
1, 305116, Note_on_c, 1, 53, 127
1, 305360, Note_off_c, 1, 70, 0
1, 305361, Note_on_c, 1, 67, 127
1, 305605, Note_off_c, 1, 67, 0
1, 305667, Note_on_c, 1, 69, 127
1, 305727, Note_off_c, 1, 69, 0
1, 306093, Note_off_c, 1, 53, 0
1, 306094, Note_on_c, 1, 70, 127
1, 306094, Note_on_c, 1, 46, 127
1, 306814, Note_on_c, 1, 50, 127
1, 306944, Note_off_c, 1, 50, 0
1, 306945, Note_on_c, 1, 53, 127
1, 307140, Note_off_c, 1, 70, 0
1, 307140, Note_off_c, 1, 53, 0
1, 307141, Note_on_c, 1, 58, 127
1, 307141, Note_on_c, 1, 62, 127
1, 307141, Note_on_c, 1, 65, 127
1, 308712, Note_off_c, 1, 46, 0
1, 309041, Note_off_c, 1, 58, 0
1, 309205, Note_on_c, 1, 74, 127
1, 309233, Note_off_c, 1, 62, 0
1, 309233, Note_off_c, 1, 65, 0
1, 309490, Note_on_c, 1, 69, 127
1, 309627, Note_off_c, 1, 69, 0
1, 309905, Note_off_c, 1, 74, 0
1, 310050, Note_on_c, 1, 74, 127
1, 310050, Note_on_c, 1, 46, 127
1, 310190, Note_on_c, 1, 70, 127
1, 310327, Note_off_c, 1, 74, 0
1, 310327, Note_off_c, 1, 46, 0
1, 310327, Note_off_c, 1, 70, 0
1, 310330, Note_on_c, 1, 75, 127
1, 310330, Note_on_c, 1, 48, 127
1, 310470, Note_on_c, 1, 70, 127
1, 310607, Note_off_c, 1, 75, 0
1, 310607, Note_off_c, 1, 48, 0
1, 310607, Note_off_c, 1, 70, 0
1, 310610, Note_on_c, 1, 77, 127
1, 310610, Note_on_c, 1, 50, 127
1, 310750, Note_on_c, 1, 70, 127
1, 310820, Note_off_c, 1, 77, 0
1, 310887, Note_off_c, 1, 50, 0
1, 310887, Note_off_c, 1, 70, 0
1, 310890, Note_on_c, 1, 45, 127
1, 310890, Note_on_c, 1, 72, 127
1, 311030, Note_on_c, 1, 69, 127
1, 311167, Note_off_c, 1, 45, 0
1, 311167, Note_off_c, 1, 69, 0
1, 311170, Note_on_c, 1, 67, 127
1, 311170, Note_on_c, 1, 48, 127
1, 311307, Note_off_c, 1, 67, 0
1, 311447, Note_off_c, 1, 48, 0
1, 311450, Note_on_c, 1, 65, 127
1, 311450, Note_on_c, 1, 53, 127
1, 311587, Note_off_c, 1, 65, 0
1, 311590, Note_off_c, 1, 72, 0
1, 311727, Note_off_c, 1, 53, 0
1, 311730, Note_on_c, 1, 72, 127
1, 311730, Note_on_c, 1, 57, 127
1, 311870, Note_on_c, 1, 65, 127
1, 312007, Note_off_c, 1, 72, 0
1, 312007, Note_off_c, 1, 57, 0
1, 312007, Note_off_c, 1, 65, 0
1, 312010, Note_on_c, 1, 58, 127
1, 312010, Note_on_c, 1, 74, 127
1, 312147, Note_off_c, 1, 58, 0
1, 312150, Note_on_c, 1, 65, 127
1, 312150, Note_on_c, 1, 57, 127
1, 312287, Note_off_c, 1, 74, 0
1, 312287, Note_off_c, 1, 65, 0
1, 312287, Note_off_c, 1, 57, 0
1, 312290, Note_on_c, 1, 55, 127
1, 312290, Note_on_c, 1, 75, 127
1, 312427, Note_off_c, 1, 55, 0
1, 312430, Note_on_c, 1, 65, 127
1, 312430, Note_on_c, 1, 53, 127
1, 312500, Note_off_c, 1, 75, 0
1, 312567, Note_off_c, 1, 65, 0
1, 312567, Note_off_c, 1, 53, 0
1, 312570, Note_on_c, 1, 74, 127
1, 312570, Note_on_c, 1, 58, 127
1, 312710, Note_on_c, 1, 68, 127
1, 312847, Note_off_c, 1, 74, 0
1, 312847, Note_off_c, 1, 58, 0
1, 312847, Note_off_c, 1, 68, 0
1, 312850, Note_on_c, 1, 75, 127
1, 312850, Note_on_c, 1, 60, 127
1, 312990, Note_on_c, 1, 67, 127
1, 313127, Note_off_c, 1, 75, 0
1, 313127, Note_off_c, 1, 60, 0
1, 313127, Note_off_c, 1, 67, 0
1, 313130, Note_on_c, 1, 77, 127
1, 313130, Note_on_c, 1, 62, 127
1, 313270, Note_on_c, 1, 65, 127
1, 313407, Note_off_c, 1, 77, 0
1, 313407, Note_off_c, 1, 62, 0
1, 313407, Note_off_c, 1, 65, 0
1, 313410, Note_on_c, 1, 79, 127
1, 313410, Note_on_c, 1, 63, 127
1, 313550, Note_on_c, 1, 77, 127
1, 313687, Note_off_c, 1, 79, 0
1, 313687, Note_off_c, 1, 63, 0
1, 313687, Note_off_c, 1, 77, 0
1, 313690, Note_on_c, 1, 81, 127
1, 313690, Note_on_c, 1, 65, 127
1, 313830, Note_on_c, 1, 75, 127
1, 313967, Note_off_c, 1, 81, 0
1, 313967, Note_off_c, 1, 65, 0
1, 313967, Note_off_c, 1, 75, 0
1, 313970, Note_on_c, 1, 82, 127
1, 313970, Note_on_c, 1, 67, 127
1, 314110, Note_on_c, 1, 74, 127
1, 314180, Note_off_c, 1, 82, 0
1, 314247, Note_off_c, 1, 67, 0
1, 314247, Note_off_c, 1, 74, 0
1, 314250, Note_on_c, 1, 72, 127
1, 314250, Note_on_c, 1, 69, 127
1, 314390, Note_on_c, 1, 75, 127
1, 314527, Note_off_c, 1, 72, 0
1, 314527, Note_off_c, 1, 69, 0
1, 314527, Note_off_c, 1, 75, 0
1, 314530, Note_on_c, 1, 74, 127
1, 314530, Note_on_c, 1, 70, 127
1, 314667, Note_off_c, 1, 74, 0
1, 314670, Note_on_c, 1, 72, 127
1, 314807, Note_off_c, 1, 70, 0
1, 314807, Note_off_c, 1, 72, 0
1, 314810, Note_on_c, 1, 74, 127
1, 314810, Note_on_c, 1, 58, 127
1, 314947, Note_off_c, 1, 74, 0
1, 314950, Note_on_c, 1, 70, 127
1, 315087, Note_off_c, 1, 58, 0
1, 315087, Note_off_c, 1, 70, 0
1, 315090, Note_on_c, 1, 65, 127
1, 315090, Note_on_c, 1, 72, 127
1, 315230, Note_on_c, 1, 69, 127
1, 315367, Note_off_c, 1, 65, 0
1, 315367, Note_off_c, 1, 69, 0
1, 315370, Note_on_c, 1, 67, 127
1, 315370, Note_on_c, 1, 53, 127
1, 315507, Note_off_c, 1, 67, 0
1, 315647, Note_off_c, 1, 53, 0
1, 315650, Note_on_c, 1, 57, 127
1, 315790, Note_off_c, 1, 72, 0
1, 315790, Note_on_c, 1, 75, 127
1, 315927, Note_off_c, 1, 57, 0
1, 315927, Note_off_c, 1, 75, 0
1, 315930, Note_on_c, 1, 58, 127
1, 315930, Note_on_c, 1, 74, 127
1, 316070, Note_on_c, 1, 70, 127
1, 316207, Note_off_c, 1, 58, 0
1, 316207, Note_off_c, 1, 70, 0
1, 316210, Note_on_c, 1, 69, 127
1, 316210, Note_on_c, 1, 53, 127
1, 316347, Note_off_c, 1, 69, 0
1, 316487, Note_off_c, 1, 53, 0
1, 316490, Note_on_c, 1, 65, 127
1, 316490, Note_on_c, 1, 50, 127
1, 316627, Note_off_c, 1, 65, 0
1, 316630, Note_off_c, 1, 74, 0
1, 316767, Note_off_c, 1, 50, 0
1, 316770, Note_on_c, 1, 74, 127
1, 316770, Note_on_c, 1, 46, 127
1, 316910, Note_on_c, 1, 70, 127
1, 317047, Note_off_c, 1, 74, 0
1, 317047, Note_off_c, 1, 46, 0
1, 317047, Note_off_c, 1, 70, 0
1, 317050, Note_on_c, 1, 75, 127
1, 317050, Note_on_c, 1, 48, 127
1, 317190, Note_on_c, 1, 70, 127
1, 317260, Note_off_c, 1, 75, 0
1, 317327, Note_off_c, 1, 48, 0
1, 317327, Note_off_c, 1, 70, 0
1, 317330, Note_on_c, 1, 77, 127
1, 317330, Note_on_c, 1, 50, 127
1, 317470, Note_on_c, 1, 70, 127
1, 317540, Note_off_c, 1, 77, 0
1, 317607, Note_off_c, 1, 50, 0
1, 317607, Note_off_c, 1, 70, 0
1, 317610, Note_on_c, 1, 45, 127
1, 317610, Note_on_c, 1, 72, 127
1, 317750, Note_on_c, 1, 69, 127
1, 317887, Note_off_c, 1, 45, 0
1, 317887, Note_off_c, 1, 69, 0
1, 317890, Note_on_c, 1, 67, 127
1, 317890, Note_on_c, 1, 48, 127
1, 318027, Note_off_c, 1, 67, 0
1, 318167, Note_off_c, 1, 48, 0
1, 318170, Note_on_c, 1, 65, 127
1, 318170, Note_on_c, 1, 53, 127
1, 318307, Note_off_c, 1, 65, 0
1, 318310, Note_off_c, 1, 72, 0
1, 318447, Note_off_c, 1, 53, 0
1, 318450, Note_on_c, 1, 72, 127
1, 318450, Note_on_c, 1, 57, 127
1, 318590, Note_on_c, 1, 65, 127
1, 318727, Note_off_c, 1, 72, 0
1, 318727, Note_off_c, 1, 57, 0
1, 318727, Note_off_c, 1, 65, 0
1, 318730, Note_on_c, 1, 58, 127
1, 318730, Note_on_c, 1, 74, 127
1, 318867, Note_off_c, 1, 58, 0
1, 318870, Note_on_c, 1, 65, 127
1, 318870, Note_on_c, 1, 57, 127
1, 318940, Note_off_c, 1, 74, 0
1, 319007, Note_off_c, 1, 65, 0
1, 319007, Note_off_c, 1, 57, 0
1, 319010, Note_on_c, 1, 55, 127
1, 319010, Note_on_c, 1, 75, 127
1, 319147, Note_off_c, 1, 55, 0
1, 319150, Note_on_c, 1, 65, 127
1, 319150, Note_on_c, 1, 53, 127
1, 319220, Note_off_c, 1, 75, 0
1, 319287, Note_off_c, 1, 65, 0
1, 319287, Note_off_c, 1, 53, 0
1, 319290, Note_on_c, 1, 74, 127
1, 319290, Note_on_c, 1, 58, 127
1, 319430, Note_on_c, 1, 72, 127
1, 319567, Note_off_c, 1, 74, 0
1, 319567, Note_off_c, 1, 58, 0
1, 319567, Note_off_c, 1, 72, 0
1, 319570, Note_on_c, 1, 76, 127
1, 319570, Note_on_c, 1, 60, 127
1, 319710, Note_on_c, 1, 70, 127
1, 319780, Note_off_c, 1, 76, 0
1, 319847, Note_off_c, 1, 60, 0
1, 319847, Note_off_c, 1, 70, 0
1, 319850, Note_on_c, 1, 77, 127
1, 319850, Note_on_c, 1, 62, 127
1, 319990, Note_on_c, 1, 69, 127
1, 320060, Note_off_c, 1, 77, 0
1, 320127, Note_off_c, 1, 62, 0
1, 320127, Note_off_c, 1, 69, 0
1, 320130, Note_on_c, 1, 67, 127
1, 320130, Note_on_c, 1, 52, 127
1, 320270, Note_on_c, 1, 70, 127
1, 320407, Note_off_c, 1, 67, 0
1, 320407, Note_off_c, 1, 52, 0
1, 320407, Note_off_c, 1, 70, 0
1, 320410, Note_on_c, 1, 65, 127
1, 320410, Note_on_c, 1, 50, 127
1, 320550, Note_on_c, 1, 70, 127
1, 320620, Note_off_c, 1, 65, 0
1, 320687, Note_off_c, 1, 50, 0
1, 320687, Note_off_c, 1, 70, 0
1, 320690, Note_on_c, 1, 64, 127
1, 320690, Note_on_c, 1, 48, 127
1, 320830, Note_on_c, 1, 70, 127
1, 320900, Note_off_c, 1, 64, 0
1, 320967, Note_off_c, 1, 48, 0
1, 320967, Note_off_c, 1, 70, 0
1, 320970, Note_on_c, 1, 69, 127
1, 320970, Note_on_c, 1, 53, 127
1, 321110, Note_on_c, 1, 72, 127
1, 321247, Note_off_c, 1, 69, 0
1, 321247, Note_off_c, 1, 53, 0
1, 321247, Note_off_c, 1, 72, 0
1, 321250, Note_on_c, 1, 69, 127
1, 321250, Note_on_c, 1, 46, 127
1, 321387, Note_off_c, 1, 69, 0
1, 321390, Note_on_c, 1, 65, 127
1, 321527, Note_off_c, 1, 46, 0
1, 321527, Note_off_c, 1, 65, 0
1, 321530, Note_on_c, 1, 60, 127
1, 321530, Note_on_c, 1, 48, 127
1, 321667, Note_off_c, 1, 60, 0
1, 321670, Note_on_c, 1, 64, 127
1, 321807, Note_off_c, 1, 48, 0
1, 321807, Note_off_c, 1, 64, 0
1, 321810, Note_on_c, 1, 53, 127
1, 321810, Note_on_c, 1, 65, 127
1, 322087, Note_off_c, 1, 53, 0
1, 322090, Note_on_c, 1, 48, 127
1, 322367, Note_off_c, 1, 48, 0
1, 322369, Note_off_c, 1, 65, 0
1, 322370, Note_on_c, 1, 45, 127
1, 322647, Note_off_c, 1, 45, 0
1, 322650, Note_on_c, 1, 41, 127
1, 322650, Note_on_c, 1, 81, 127
1, 322790, Note_on_c, 1, 77, 127
1, 322927, Note_off_c, 1, 41, 0
1, 322927, Note_off_c, 1, 77, 0
1, 322930, Note_on_c, 1, 76, 127
1, 322930, Note_on_c, 1, 48, 127
1, 323067, Note_off_c, 1, 76, 0
1, 323207, Note_off_c, 1, 48, 0
1, 323210, Note_on_c, 1, 72, 127
1, 323210, Note_on_c, 1, 53, 127
1, 323347, Note_off_c, 1, 72, 0
1, 323350, Note_off_c, 1, 81, 0
1, 323487, Note_off_c, 1, 53, 0
1, 323490, Note_on_c, 1, 81, 127
1, 323490, Note_on_c, 1, 51, 127
1, 323630, Note_on_c, 1, 77, 127
1, 323767, Note_off_c, 1, 81, 0
1, 323767, Note_off_c, 1, 51, 0
1, 323767, Note_off_c, 1, 77, 0
1, 323770, Note_on_c, 1, 82, 127
1, 323770, Note_on_c, 1, 50, 127
1, 323910, Note_on_c, 1, 77, 127
1, 324047, Note_off_c, 1, 82, 0
1, 324047, Note_off_c, 1, 50, 0
1, 324047, Note_off_c, 1, 77, 0
1, 324050, Note_on_c, 1, 81, 127
1, 324050, Note_on_c, 1, 46, 127
1, 324190, Note_on_c, 1, 77, 127
1, 324327, Note_off_c, 1, 81, 0
1, 324327, Note_off_c, 1, 46, 0
1, 324327, Note_off_c, 1, 77, 0
1, 324330, Note_on_c, 1, 51, 127
1, 324330, Note_on_c, 1, 79, 127
1, 324470, Note_on_c, 1, 75, 127
1, 324607, Note_off_c, 1, 51, 0
1, 324607, Note_off_c, 1, 75, 0
1, 324610, Note_on_c, 1, 74, 127
1, 324610, Note_on_c, 1, 55, 127
1, 324747, Note_off_c, 1, 74, 0
1, 324887, Note_off_c, 1, 55, 0
1, 324890, Note_on_c, 1, 72, 127
1, 324890, Note_on_c, 1, 56, 127
1, 325027, Note_off_c, 1, 72, 0
1, 325167, Note_off_c, 1, 56, 0
1, 325168, Note_off_c, 1, 79, 0
1, 325170, Note_on_c, 1, 77, 127
1, 325170, Note_on_c, 1, 50, 127
1, 325307, Note_off_c, 1, 77, 0
1, 325310, Note_on_c, 1, 74, 127
1, 325447, Note_off_c, 1, 50, 0
1, 325450, Note_on_c, 1, 55, 127
1, 325587, Note_off_c, 1, 74, 0
1, 325590, Note_on_c, 1, 72, 127
1, 325727, Note_off_c, 1, 55, 0
1, 325730, Note_on_c, 1, 43, 127
1, 325867, Note_off_c, 1, 72, 0
1, 325870, Note_on_c, 1, 71, 127
1, 326007, Note_off_c, 1, 43, 0
1, 326007, Note_off_c, 1, 71, 0
1, 326010, Note_on_c, 1, 72, 127
1, 326010, Note_on_c, 1, 48, 127
1, 326150, Note_on_c, 1, 75, 127
1, 326287, Note_off_c, 1, 72, 0
1, 326287, Note_off_c, 1, 48, 0
1, 326287, Note_off_c, 1, 75, 0
1, 326290, Note_on_c, 1, 78, 127
1, 326290, Note_on_c, 1, 57, 127
1, 326430, Note_on_c, 1, 72, 127
1, 326567, Note_off_c, 1, 78, 0
1, 326567, Note_off_c, 1, 57, 0
1, 326567, Note_off_c, 1, 72, 0
1, 326570, Note_on_c, 1, 81, 127
1, 326570, Note_on_c, 1, 55, 127
1, 326710, Note_on_c, 1, 72, 127
1, 326780, Note_off_c, 1, 81, 0
1, 326847, Note_off_c, 1, 55, 0
1, 326847, Note_off_c, 1, 72, 0
1, 326850, Note_on_c, 1, 69, 127
1, 326850, Note_on_c, 1, 54, 127
1, 326990, Note_on_c, 1, 72, 127
1, 327127, Note_off_c, 1, 69, 0
1, 327127, Note_off_c, 1, 54, 0
1, 327127, Note_off_c, 1, 72, 0
1, 327130, Note_on_c, 1, 66, 127
1, 327130, Note_on_c, 1, 50, 127
1, 327270, Note_on_c, 1, 72, 127
1, 327407, Note_off_c, 1, 66, 0
1, 327407, Note_off_c, 1, 50, 0
1, 327407, Note_off_c, 1, 72, 0
1, 327410, Note_on_c, 1, 62, 127
1, 327410, Note_on_c, 1, 54, 127
1, 327550, Note_on_c, 1, 72, 127
1, 327620, Note_off_c, 1, 62, 0
1, 327687, Note_off_c, 1, 54, 0
1, 327687, Note_off_c, 1, 72, 0
1, 327690, Note_on_c, 1, 55, 127
1, 327690, Note_on_c, 1, 70, 127
1, 327830, Note_on_c, 1, 75, 127
1, 327967, Note_off_c, 1, 55, 0
1, 327967, Note_off_c, 1, 75, 0
1, 327970, Note_on_c, 1, 74, 127
1, 327970, Note_on_c, 1, 46, 127
1, 328107, Note_off_c, 1, 74, 0
1, 328109, Note_off_c, 1, 70, 0
1, 328247, Note_off_c, 1, 46, 0
1, 328250, Note_on_c, 1, 72, 127
1, 328250, Note_on_c, 1, 50, 127
1, 328387, Note_off_c, 1, 72, 0
1, 328390, Note_on_c, 1, 69, 127
1, 328527, Note_off_c, 1, 50, 0
1, 328527, Note_off_c, 1, 69, 0
1, 328530, Note_on_c, 1, 43, 127
1, 328530, Note_on_c, 1, 67, 127
1, 328667, Note_off_c, 1, 43, 0
1, 328670, Note_on_c, 1, 45, 127
1, 328807, Note_off_c, 1, 45, 0
1, 328810, Note_on_c, 1, 46, 127
1, 328841, Note_off_c, 1, 67, 0
1, 328947, Note_off_c, 1, 46, 0
1, 328950, Note_on_c, 1, 69, 127
1, 328950, Note_on_c, 1, 48, 127
1, 329017, Note_off_c, 1, 69, 0
1, 329020, Note_on_c, 1, 70, 127
1, 329087, Note_off_c, 1, 48, 0
1, 329087, Note_off_c, 1, 70, 0
1, 329090, Note_on_c, 1, 69, 127
1, 329090, Note_on_c, 1, 50, 127
1, 329157, Note_off_c, 1, 69, 0
1, 329160, Note_on_c, 1, 67, 127
1, 329227, Note_off_c, 1, 50, 0
1, 329227, Note_off_c, 1, 67, 0
1, 329230, Note_on_c, 1, 65, 127
1, 329230, Note_on_c, 1, 51, 127
1, 329297, Note_off_c, 1, 65, 0
1, 329300, Note_on_c, 1, 63, 127
1, 329367, Note_off_c, 1, 51, 0
1, 329367, Note_off_c, 1, 63, 0
1, 329370, Note_on_c, 1, 53, 127
1, 329370, Note_on_c, 1, 62, 127
1, 329510, Note_on_c, 1, 70, 127
1, 329647, Note_off_c, 1, 53, 0
1, 329647, Note_off_c, 1, 70, 0
1, 329650, Note_on_c, 1, 69, 127
1, 329650, Note_on_c, 1, 51, 127
1, 329787, Note_off_c, 1, 69, 0
1, 329927, Note_off_c, 1, 51, 0
1, 329929, Note_off_c, 1, 62, 0
1, 329930, Note_on_c, 1, 77, 127
1, 329930, Note_on_c, 1, 50, 127
1, 330207, Note_off_c, 1, 77, 0
1, 330207, Note_off_c, 1, 50, 0
1, 330210, Note_on_c, 1, 80, 127
1, 330487, Note_off_c, 1, 80, 0
1, 330490, Note_on_c, 1, 79, 127
1, 330767, Note_off_c, 1, 79, 0
1, 331050, Note_on_c, 1, 55, 127
1, 331050, Note_on_c, 1, 63, 127
1, 331190, Note_on_c, 1, 70, 127
1, 331327, Note_off_c, 1, 55, 0
1, 331327, Note_off_c, 1, 70, 0
1, 331330, Note_on_c, 1, 69, 127
1, 331330, Note_on_c, 1, 53, 127
1, 331467, Note_off_c, 1, 69, 0
1, 331607, Note_off_c, 1, 53, 0
1, 331609, Note_off_c, 1, 63, 0
1, 331610, Note_on_c, 1, 79, 127
1, 331610, Note_on_c, 1, 51, 127
1, 331820, Note_off_c, 1, 79, 0
1, 331887, Note_off_c, 1, 51, 0
1, 331890, Note_on_c, 1, 63, 127
1, 331890, Note_on_c, 1, 55, 127
1, 332030, Note_on_c, 1, 70, 127
1, 332167, Note_off_c, 1, 63, 0
1, 332167, Note_off_c, 1, 55, 0
1, 332167, Note_off_c, 1, 70, 0
1, 332170, Note_on_c, 1, 65, 127
1, 332170, Note_on_c, 1, 53, 127
1, 332310, Note_on_c, 1, 70, 127
1, 332447, Note_off_c, 1, 65, 0
1, 332447, Note_off_c, 1, 53, 0
1, 332447, Note_off_c, 1, 70, 0
1, 332450, Note_on_c, 1, 67, 127
1, 332450, Note_on_c, 1, 51, 127
1, 332590, Note_on_c, 1, 70, 127
1, 332727, Note_off_c, 1, 67, 0
1, 332727, Note_off_c, 1, 51, 0
1, 332727, Note_off_c, 1, 70, 0
1, 332730, Note_on_c, 1, 72, 127
1, 332730, Note_on_c, 1, 56, 127
1, 332870, Note_on_c, 1, 70, 127
1, 333007, Note_off_c, 1, 72, 0
1, 333007, Note_off_c, 1, 56, 0
1, 333007, Note_off_c, 1, 70, 0
1, 333010, Note_on_c, 1, 74, 127
1, 333010, Note_on_c, 1, 58, 127
1, 333150, Note_on_c, 1, 68, 127
1, 333287, Note_off_c, 1, 74, 0
1, 333287, Note_off_c, 1, 58, 0
1, 333287, Note_off_c, 1, 68, 0
1, 333290, Note_on_c, 1, 75, 127
1, 333290, Note_on_c, 1, 60, 127
1, 333430, Note_on_c, 1, 67, 127
1, 333567, Note_off_c, 1, 75, 0
1, 333567, Note_off_c, 1, 60, 0
1, 333567, Note_off_c, 1, 67, 0
1, 333570, Note_on_c, 1, 77, 127
1, 333570, Note_on_c, 1, 62, 127
1, 333710, Note_on_c, 1, 75, 127
1, 333847, Note_off_c, 1, 77, 0
1, 333847, Note_off_c, 1, 62, 0
1, 333847, Note_off_c, 1, 75, 0
1, 333850, Note_on_c, 1, 79, 127
1, 333850, Note_on_c, 1, 63, 127
1, 333990, Note_on_c, 1, 74, 127
1, 334127, Note_off_c, 1, 79, 0
1, 334127, Note_off_c, 1, 63, 0
1, 334127, Note_off_c, 1, 74, 0
1, 334130, Note_on_c, 1, 81, 127
1, 334130, Note_on_c, 1, 65, 127
1, 334270, Note_on_c, 1, 72, 127
1, 334407, Note_off_c, 1, 81, 0
1, 334407, Note_off_c, 1, 65, 0
1, 334407, Note_off_c, 1, 72, 0
1, 334410, Note_on_c, 1, 82, 127
1, 334410, Note_on_c, 1, 67, 127
1, 334547, Note_off_c, 1, 82, 0
1, 334550, Note_on_c, 1, 81, 127
1, 334687, Note_off_c, 1, 67, 0
1, 334687, Note_off_c, 1, 81, 0
1, 334690, Note_on_c, 1, 79, 127
1, 334690, Note_on_c, 1, 69, 127
1, 334827, Note_off_c, 1, 79, 0
1, 334830, Note_on_c, 1, 77, 127
1, 334967, Note_off_c, 1, 69, 0
1, 334967, Note_off_c, 1, 77, 0
1, 334970, Note_on_c, 1, 75, 127
1, 334970, Note_on_c, 1, 70, 127
1, 335107, Note_off_c, 1, 75, 0
1, 335110, Note_on_c, 1, 74, 127
1, 335247, Note_off_c, 1, 70, 0
1, 335247, Note_off_c, 1, 74, 0
1, 335250, Note_on_c, 1, 72, 127
1, 335250, Note_on_c, 1, 65, 127
1, 335387, Note_off_c, 1, 72, 0
1, 335390, Note_on_c, 1, 70, 127
1, 335527, Note_off_c, 1, 65, 0
1, 335527, Note_off_c, 1, 70, 0
1, 335530, Note_on_c, 1, 69, 127
1, 335530, Note_on_c, 1, 53, 127
1, 335667, Note_off_c, 1, 69, 0
1, 335670, Note_on_c, 1, 67, 127
1, 335807, Note_off_c, 1, 53, 0
1, 335807, Note_off_c, 1, 67, 0
1, 335810, Note_on_c, 1, 65, 127
1, 335810, Note_on_c, 1, 57, 127
1, 335947, Note_off_c, 1, 65, 0
1, 335950, Note_on_c, 1, 63, 127
1, 336053, Note_off_c, 1, 57, 0
1, 336058, Note_off_c, 1, 63, 0
1, 336088, Note_on_c, 1, 62, 127
1, 336250, Note_on_c, 1, 77, 127
1, 336365, Note_off_c, 1, 62, 0
1, 336387, Note_off_c, 1, 77, 0
1, 336390, Note_on_c, 1, 79, 127
1, 336390, Note_on_c, 1, 50, 127
1, 336527, Note_off_c, 1, 79, 0
1, 336530, Note_on_c, 1, 77, 127
1, 336667, Note_off_c, 1, 50, 0
1, 336670, Note_on_c, 1, 72, 127
1, 336670, Note_on_c, 1, 53, 127
1, 336740, Note_off_c, 1, 77, 0
1, 336947, Note_off_c, 1, 72, 0
1, 336947, Note_off_c, 1, 53, 0
1, 336950, Note_on_c, 1, 71, 127
1, 336950, Note_on_c, 1, 55, 127
1, 337227, Note_off_c, 1, 71, 0
1, 337227, Note_off_c, 1, 55, 0
1, 337230, Note_on_c, 1, 69, 127
1, 337230, Note_on_c, 1, 57, 127
1, 337507, Note_off_c, 1, 69, 0
1, 337507, Note_off_c, 1, 57, 0
1, 337510, Note_on_c, 1, 67, 127
1, 337510, Note_on_c, 1, 59, 127
1, 337720, Note_off_c, 1, 67, 0
1, 337787, Note_off_c, 1, 59, 0
1, 337790, Note_on_c, 1, 60, 127
1, 337930, Note_on_c, 1, 75, 127
1, 338067, Note_off_c, 1, 60, 0
1, 338067, Note_off_c, 1, 75, 0
1, 338070, Note_on_c, 1, 77, 127
1, 338070, Note_on_c, 1, 48, 127
1, 338207, Note_off_c, 1, 77, 0
1, 338210, Note_on_c, 1, 75, 127
1, 338347, Note_off_c, 1, 48, 0
1, 338350, Note_on_c, 1, 70, 127
1, 338350, Note_on_c, 1, 51, 127
1, 338420, Note_off_c, 1, 75, 0
1, 338627, Note_off_c, 1, 70, 0
1, 338627, Note_off_c, 1, 51, 0
1, 338630, Note_on_c, 1, 69, 127
1, 338630, Note_on_c, 1, 53, 127
1, 338907, Note_off_c, 1, 69, 0
1, 338907, Note_off_c, 1, 53, 0
1, 338910, Note_on_c, 1, 67, 127
1, 338910, Note_on_c, 1, 55, 127
1, 339187, Note_off_c, 1, 67, 0
1, 339187, Note_off_c, 1, 55, 0
1, 339190, Note_on_c, 1, 65, 127
1, 339190, Note_on_c, 1, 57, 127
1, 339400, Note_off_c, 1, 65, 0
1, 339467, Note_off_c, 1, 57, 0
1, 339470, Note_on_c, 1, 74, 127
1, 339470, Note_on_c, 1, 58, 127
1, 339610, Note_on_c, 1, 77, 127
1, 339747, Note_off_c, 1, 74, 0
1, 339747, Note_off_c, 1, 58, 0
1, 339747, Note_off_c, 1, 77, 0
1, 339750, Note_on_c, 1, 74, 127
1, 339750, Note_on_c, 1, 51, 127
1, 339887, Note_off_c, 1, 74, 0
1, 339890, Note_on_c, 1, 70, 127
1, 340027, Note_off_c, 1, 51, 0
1, 340027, Note_off_c, 1, 70, 0
1, 340030, Note_on_c, 1, 65, 127
1, 340030, Note_on_c, 1, 53, 127
1, 340167, Note_off_c, 1, 65, 0
1, 340170, Note_on_c, 1, 69, 127
1, 340307, Note_off_c, 1, 53, 0
1, 340307, Note_off_c, 1, 69, 0
1, 340310, Note_on_c, 1, 46, 127
1, 340310, Note_on_c, 1, 70, 127
1, 340587, Note_off_c, 1, 46, 0
1, 340590, Note_on_c, 1, 50, 127
1, 340867, Note_off_c, 1, 50, 0
1, 340869, Note_off_c, 1, 70, 0
1, 340870, Note_on_c, 1, 53, 127
1, 341147, Note_off_c, 1, 53, 0
1, 341150, Note_on_c, 1, 70, 127
1, 341150, Note_on_c, 1, 58, 127
1, 341429, Note_on_c, 1, 60, 127
1, 341706, Note_off_c, 1, 60, 0
1, 341708, Note_off_c, 1, 70, 0
1, 341709, Note_on_c, 1, 65, 127
1, 341709, Note_on_c, 1, 62, 127
1, 341986, Note_off_c, 1, 65, 0
1, 341986, Note_off_c, 1, 62, 0
1, 341989, Note_on_c, 1, 67, 127
1, 341989, Note_on_c, 1, 63, 127
1, 342266, Note_off_c, 1, 67, 0
1, 342266, Note_off_c, 1, 63, 0
1, 342269, Note_on_c, 1, 68, 127
1, 342734, Note_off_c, 1, 68, 0
1, 342824, Note_off_c, 1, 58, 0
1, 342827, Note_on_c, 1, 67, 127
1, 342827, Note_on_c, 1, 63, 127
1, 343104, Note_off_c, 1, 67, 0
1, 343107, Note_on_c, 1, 75, 127
1, 343107, Note_on_c, 1, 69, 127
1, 343107, Note_on_c, 1, 60, 127
1, 343384, Note_off_c, 1, 75, 0
1, 343384, Note_off_c, 1, 69, 0
1, 343384, Note_off_c, 1, 60, 0
1, 343386, Note_off_c, 1, 63, 0
1, 343387, Note_on_c, 1, 74, 127
1, 343387, Note_on_c, 1, 70, 127
1, 343387, Note_on_c, 1, 58, 127
1, 343387, Note_on_c, 1, 65, 127
1, 343664, Note_off_c, 1, 74, 0
1, 343664, Note_off_c, 1, 70, 0
1, 343664, Note_off_c, 1, 58, 0
1, 343667, Note_on_c, 1, 72, 127
1, 343667, Note_on_c, 1, 69, 127
1, 343667, Note_on_c, 1, 53, 127
1, 343944, Note_off_c, 1, 72, 0
1, 343944, Note_off_c, 1, 69, 0
1, 343946, Note_off_c, 1, 65, 0
1, 343947, Note_on_c, 1, 60, 127
1, 344224, Note_off_c, 1, 60, 0
1, 344227, Note_on_c, 1, 67, 127
1, 344227, Note_on_c, 1, 63, 127
1, 344364, Note_off_c, 1, 67, 0
1, 344432, Note_off_c, 1, 53, 0
1, 344504, Note_off_c, 1, 63, 0
1, 345064, Note_on_c, 1, 62, 127
1, 345341, Note_off_c, 1, 62, 0
1, 345624, Note_on_c, 1, 68, 127
1, 346043, Note_off_c, 1, 68, 0
1, 346464, Note_on_c, 1, 75, 127
1, 346741, Note_off_c, 1, 75, 0
1, 346744, Note_on_c, 1, 74, 127
1, 346744, Note_on_c, 1, 70, 127
1, 346744, Note_on_c, 1, 58, 127
1, 346744, Note_on_c, 1, 65, 127
1, 347021, Note_off_c, 1, 74, 0
1, 347021, Note_off_c, 1, 70, 0
1, 347021, Note_off_c, 1, 58, 0
1, 347021, Note_off_c, 1, 65, 0
1, 347024, Note_on_c, 1, 74, 127
1, 347024, Note_on_c, 1, 53, 127
1, 347024, Note_on_c, 1, 69, 127
1, 347024, Note_on_c, 1, 65, 127
1, 347160, Note_off_c, 1, 74, 0
1, 347163, Note_on_c, 1, 72, 127
1, 347299, Note_off_c, 1, 72, 0
1, 347674, Note_on_c, 1, 70, 127
1, 347764, Note_off_c, 1, 70, 0
1, 347786, Note_off_c, 1, 53, 0
1, 347859, Note_off_c, 1, 69, 0
1, 347860, Note_off_c, 1, 65, 0
1, 347861, Note_on_c, 1, 70, 127
1, 347861, Note_on_c, 1, 58, 127
1, 348140, Note_on_c, 1, 60, 127
1, 348417, Note_off_c, 1, 60, 0
1, 348419, Note_off_c, 1, 70, 0
1, 348420, Note_on_c, 1, 65, 127
1, 348420, Note_on_c, 1, 62, 127
1, 348696, Note_off_c, 1, 65, 0
1, 348696, Note_off_c, 1, 62, 0
1, 348699, Note_on_c, 1, 67, 127
1, 348699, Note_on_c, 1, 63, 127
1, 348976, Note_off_c, 1, 67, 0
1, 348976, Note_off_c, 1, 63, 0
1, 349228, Note_on_c, 1, 68, 127
1, 349488, Note_off_c, 1, 58, 0
1, 349524, Note_off_c, 1, 68, 0
1, 349538, Note_on_c, 1, 67, 127
1, 349538, Note_on_c, 1, 63, 127
1, 349808, Note_on_c, 1, 60, 127
1, 349808, Note_on_c, 1, 69, 127
1, 349808, Note_on_c, 1, 75, 127
1, 349815, Note_off_c, 1, 67, 0
1, 350085, Note_off_c, 1, 60, 0
1, 350085, Note_off_c, 1, 69, 0
1, 350085, Note_off_c, 1, 75, 0
1, 350097, Note_off_c, 1, 63, 0
1, 350098, Note_on_c, 1, 74, 127
1, 350098, Note_on_c, 1, 70, 127
1, 350098, Note_on_c, 1, 58, 127
1, 350375, Note_off_c, 1, 74, 0
1, 350375, Note_off_c, 1, 70, 0
1, 350375, Note_off_c, 1, 58, 0
1, 350378, Note_on_c, 1, 69, 127
1, 350378, Note_on_c, 1, 72, 127
1, 350378, Note_on_c, 1, 65, 127
1, 350378, Note_on_c, 1, 53, 127
1, 350654, Note_off_c, 1, 69, 0
1, 350655, Note_off_c, 1, 72, 0
1, 350657, Note_on_c, 1, 70, 127
1, 350657, Note_on_c, 1, 60, 127
1, 350794, Note_off_c, 1, 70, 0
1, 350934, Note_off_c, 1, 60, 0
1, 350936, Note_off_c, 1, 65, 0
1, 350936, Note_off_c, 1, 53, 0
1, 350937, Note_on_c, 1, 67, 127
1, 350937, Note_on_c, 1, 63, 127
1, 351074, Note_off_c, 1, 67, 0
1, 351214, Note_off_c, 1, 63, 0
1, 351217, Note_on_c, 1, 58, 127
1, 351776, Note_on_c, 1, 62, 127
1, 352053, Note_off_c, 1, 62, 0
1, 352336, Note_on_c, 1, 68, 127
1, 352612, Note_off_c, 1, 68, 0
1, 352615, Note_off_c, 1, 58, 0
1, 352893, Note_on_c, 1, 67, 127
1, 352893, Note_on_c, 1, 63, 127
1, 353170, Note_off_c, 1, 67, 0
1, 353170, Note_off_c, 1, 63, 0
1, 353173, Note_on_c, 1, 75, 127
1, 353173, Note_on_c, 1, 69, 127
1, 353173, Note_on_c, 1, 60, 127
1, 353450, Note_off_c, 1, 75, 0
1, 353450, Note_off_c, 1, 69, 0
1, 353450, Note_off_c, 1, 60, 0
1, 353453, Note_on_c, 1, 74, 127
1, 353453, Note_on_c, 1, 70, 127
1, 353453, Note_on_c, 1, 58, 127
1, 353453, Note_on_c, 1, 65, 127
1, 353730, Note_off_c, 1, 74, 0
1, 353730, Note_off_c, 1, 70, 0
1, 353730, Note_off_c, 1, 58, 0
1, 353730, Note_off_c, 1, 65, 0
1, 353733, Note_on_c, 1, 72, 127
1, 353733, Note_on_c, 1, 65, 127
1, 353733, Note_on_c, 1, 53, 127
1, 353733, Note_on_c, 1, 69, 127
1, 354291, Note_off_c, 1, 72, 0
1, 354292, Note_on_c, 1, 74, 127
1, 354315, Note_off_c, 1, 65, 0
1, 354428, Note_off_c, 1, 74, 0
1, 354431, Note_on_c, 1, 76, 127
1, 354540, Note_off_c, 1, 53, 0
1, 354567, Note_off_c, 1, 76, 0
1, 354570, Note_on_c, 1, 77, 127
1, 354570, Note_on_c, 1, 60, 127
1, 354845, Note_off_c, 1, 69, 0
1, 354850, Note_on_c, 1, 70, 127
1, 354850, Note_on_c, 1, 55, 127
1, 355127, Note_off_c, 1, 70, 0
1, 355127, Note_off_c, 1, 55, 0
1, 355129, Note_off_c, 1, 77, 0
1, 355129, Note_off_c, 1, 60, 0
1, 355130, Note_on_c, 1, 72, 127
1, 355130, Note_on_c, 1, 57, 127
1, 355130, Note_on_c, 1, 65, 127
1, 355407, Note_off_c, 1, 72, 0
1, 355407, Note_off_c, 1, 57, 0
1, 355407, Note_off_c, 1, 65, 0
1, 355410, Note_on_c, 1, 70, 127
1, 355410, Note_on_c, 1, 74, 127
1, 355410, Note_on_c, 1, 58, 127
1, 355687, Note_off_c, 1, 70, 0
1, 355687, Note_off_c, 1, 74, 0
1, 355687, Note_off_c, 1, 58, 0
1, 355690, Note_on_c, 1, 69, 127
1, 355690, Note_on_c, 1, 60, 127
1, 355690, Note_on_c, 1, 75, 127
1, 355967, Note_off_c, 1, 69, 0
1, 355967, Note_off_c, 1, 60, 0
1, 355970, Note_on_c, 1, 67, 127
1, 355970, Note_on_c, 1, 58, 127
1, 356247, Note_off_c, 1, 67, 0
1, 356247, Note_off_c, 1, 58, 0
1, 356250, Note_on_c, 1, 66, 127
1, 356250, Note_on_c, 1, 57, 127
1, 356527, Note_off_c, 1, 66, 0
1, 356527, Note_off_c, 1, 57, 0
1, 356528, Note_off_c, 1, 75, 0
1, 356530, Note_on_c, 1, 58, 127
1, 356530, Note_on_c, 1, 54, 127
1, 356530, Note_on_c, 1, 62, 127
1, 356530, Note_on_c, 1, 74, 127
1, 356666, Note_off_c, 1, 58, 0
1, 356669, Note_on_c, 1, 57, 127
1, 356806, Note_off_c, 1, 54, 0
1, 356806, Note_off_c, 1, 57, 0
1, 356807, Note_off_c, 1, 62, 0
1, 356807, Note_off_c, 1, 74, 0
1, 356809, Note_on_c, 1, 55, 127
1, 356809, Note_on_c, 1, 69, 127
1, 356809, Note_on_c, 1, 72, 127
1, 356809, Note_on_c, 1, 50, 127
1, 356946, Note_off_c, 1, 55, 0
1, 356949, Note_on_c, 1, 54, 127
1, 357086, Note_off_c, 1, 69, 0
1, 357086, Note_off_c, 1, 72, 0
1, 357086, Note_off_c, 1, 50, 0
1, 357086, Note_off_c, 1, 54, 0
1, 357089, Note_on_c, 1, 67, 127
1, 357089, Note_on_c, 1, 70, 127
1, 357089, Note_on_c, 1, 55, 127
1, 357366, Note_off_c, 1, 67, 0
1, 357366, Note_off_c, 1, 70, 0
1, 357366, Note_off_c, 1, 55, 0
1, 357369, Note_on_c, 1, 69, 127
1, 357369, Note_on_c, 1, 66, 127
1, 357369, Note_on_c, 1, 50, 127
1, 357506, Note_off_c, 1, 69, 0
1, 357509, Note_on_c, 1, 70, 127
1, 357646, Note_off_c, 1, 66, 0
1, 357646, Note_off_c, 1, 50, 0
1, 357646, Note_off_c, 1, 70, 0
1, 357649, Note_on_c, 1, 43, 127
1, 357649, Note_on_c, 1, 67, 127
1, 357925, Note_off_c, 1, 43, 0
1, 357928, Note_on_c, 1, 55, 127
1, 357928, Note_on_c, 1, 70, 127
1, 357928, Note_on_c, 1, 75, 127
1, 358204, Note_off_c, 1, 55, 0
1, 358207, Note_on_c, 1, 57, 127
1, 358484, Note_off_c, 1, 57, 0
1, 358485, Note_off_c, 1, 67, 0
1, 358486, Note_off_c, 1, 70, 0
1, 358486, Note_off_c, 1, 75, 0
1, 358487, Note_on_c, 1, 68, 127
1, 358487, Note_on_c, 1, 74, 127
1, 358487, Note_on_c, 1, 53, 127
1, 358487, Note_on_c, 1, 58, 127
1, 358764, Note_off_c, 1, 68, 0
1, 358764, Note_off_c, 1, 74, 0
1, 358764, Note_off_c, 1, 53, 0
1, 358764, Note_off_c, 1, 58, 0
1, 358767, Note_on_c, 1, 67, 127
1, 358767, Note_on_c, 1, 79, 127
1, 358767, Note_on_c, 1, 51, 127
1, 359044, Note_off_c, 1, 67, 0
1, 359044, Note_off_c, 1, 79, 0
1, 359047, Note_on_c, 1, 69, 127
1, 359047, Note_on_c, 1, 60, 127
1, 359047, Note_on_c, 1, 77, 127
1, 359324, Note_off_c, 1, 69, 0
1, 359324, Note_off_c, 1, 60, 0
1, 359326, Note_off_c, 1, 51, 0
1, 359327, Note_on_c, 1, 70, 127
1, 359327, Note_on_c, 1, 50, 127
1, 359327, Note_on_c, 1, 62, 127
1, 359604, Note_off_c, 1, 70, 0
1, 359604, Note_off_c, 1, 50, 0
1, 359604, Note_off_c, 1, 62, 0
1, 359607, Note_on_c, 1, 65, 127
1, 359607, Note_on_c, 1, 53, 127
1, 359884, Note_off_c, 1, 65, 0
1, 359885, Note_off_c, 1, 77, 0
1, 360167, Note_on_c, 1, 63, 127
1, 360373, Note_off_c, 1, 53, 0
1, 360444, Note_off_c, 1, 63, 0
1, 360447, Note_on_c, 1, 58, 127
1, 360447, Note_on_c, 1, 62, 127
1, 360447, Note_on_c, 1, 65, 127
1, 360447, Note_on_c, 1, 70, 127
1, 360726, Note_on_c, 1, 46, 127
1, 361003, Note_off_c, 1, 46, 0
1, 361005, Note_off_c, 1, 58, 0
1, 361006, Note_on_c, 1, 50, 127
1, 361283, Note_off_c, 1, 50, 0
1, 361284, Note_off_c, 1, 62, 0
1, 361285, Note_off_c, 1, 65, 0
1, 361285, Note_off_c, 1, 70, 0
1, 361286, Note_on_c, 1, 69, 127
1, 361286, Note_on_c, 1, 53, 127
1, 361286, Note_on_c, 1, 77, 127
1, 361286, Note_on_c, 1, 60, 127
1, 361563, Note_off_c, 1, 69, 0
1, 361563, Note_off_c, 1, 53, 0
1, 361566, Note_on_c, 1, 70, 127
1, 361566, Note_on_c, 1, 55, 127
1, 361843, Note_off_c, 1, 70, 0
1, 361843, Note_off_c, 1, 55, 0
1, 361845, Note_off_c, 1, 77, 0
1, 361845, Note_off_c, 1, 60, 0
1, 361846, Note_on_c, 1, 72, 127
1, 361846, Note_on_c, 1, 57, 127
1, 361846, Note_on_c, 1, 65, 127
1, 362123, Note_off_c, 1, 72, 0
1, 362123, Note_off_c, 1, 57, 0
1, 362126, Note_on_c, 1, 70, 127
1, 362126, Note_on_c, 1, 74, 127
1, 362126, Note_on_c, 1, 58, 127
1, 362403, Note_off_c, 1, 70, 0
1, 362403, Note_off_c, 1, 74, 0
1, 362403, Note_off_c, 1, 58, 0
1, 362405, Note_off_c, 1, 65, 0
1, 362406, Note_on_c, 1, 69, 127
1, 362406, Note_on_c, 1, 60, 127
1, 362406, Note_on_c, 1, 75, 127
1, 362683, Note_off_c, 1, 69, 0
1, 362683, Note_off_c, 1, 60, 0
1, 362686, Note_on_c, 1, 67, 127
1, 362686, Note_on_c, 1, 58, 127
1, 362963, Note_off_c, 1, 67, 0
1, 362963, Note_off_c, 1, 58, 0
1, 362966, Note_on_c, 1, 66, 127
1, 362966, Note_on_c, 1, 57, 127
1, 363243, Note_off_c, 1, 66, 0
1, 363243, Note_off_c, 1, 57, 0
1, 363244, Note_off_c, 1, 75, 0
1, 363246, Note_on_c, 1, 58, 127
1, 363246, Note_on_c, 1, 54, 127
1, 363246, Note_on_c, 1, 62, 127
1, 363246, Note_on_c, 1, 74, 127
1, 363383, Note_off_c, 1, 58, 0
1, 363386, Note_on_c, 1, 57, 127
1, 363456, Note_off_c, 1, 54, 0
1, 363523, Note_off_c, 1, 62, 0
1, 363523, Note_off_c, 1, 74, 0
1, 363523, Note_off_c, 1, 57, 0
1, 363526, Note_on_c, 1, 55, 127
1, 363526, Note_on_c, 1, 50, 127
1, 363526, Note_on_c, 1, 69, 127
1, 363526, Note_on_c, 1, 72, 127
1, 363663, Note_off_c, 1, 55, 0
1, 363666, Note_on_c, 1, 54, 127
1, 363736, Note_off_c, 1, 50, 0
1, 363803, Note_off_c, 1, 69, 0
1, 363803, Note_off_c, 1, 72, 0
1, 363803, Note_off_c, 1, 54, 0
1, 363806, Note_on_c, 1, 67, 127
1, 363806, Note_on_c, 1, 70, 127
1, 363806, Note_on_c, 1, 55, 127
1, 364083, Note_off_c, 1, 67, 0
1, 364083, Note_off_c, 1, 70, 0
1, 364083, Note_off_c, 1, 55, 0
1, 364086, Note_on_c, 1, 69, 127
1, 364086, Note_on_c, 1, 66, 127
1, 364086, Note_on_c, 1, 50, 127
1, 364223, Note_off_c, 1, 69, 0
1, 364226, Note_on_c, 1, 70, 127
1, 364296, Note_off_c, 1, 66, 0
1, 364363, Note_off_c, 1, 50, 0
1, 364363, Note_off_c, 1, 70, 0
1, 364366, Note_on_c, 1, 67, 127
1, 364366, Note_on_c, 1, 43, 127
1, 364643, Note_off_c, 1, 67, 0
1, 364646, Note_on_c, 1, 70, 127
1, 364646, Note_on_c, 1, 75, 127
1, 364925, Note_on_c, 1, 57, 127
1, 365202, Note_off_c, 1, 57, 0
1, 365203, Note_off_c, 1, 43, 0
1, 365204, Note_off_c, 1, 70, 0
1, 365204, Note_off_c, 1, 75, 0
1, 365205, Note_on_c, 1, 68, 127
1, 365205, Note_on_c, 1, 74, 127
1, 365205, Note_on_c, 1, 53, 127
1, 365205, Note_on_c, 1, 58, 127
1, 365482, Note_off_c, 1, 68, 0
1, 365482, Note_off_c, 1, 74, 0
1, 365482, Note_off_c, 1, 53, 0
1, 365482, Note_off_c, 1, 58, 0
1, 365485, Note_on_c, 1, 67, 127
1, 365485, Note_on_c, 1, 79, 127
1, 365485, Note_on_c, 1, 51, 127
1, 365762, Note_off_c, 1, 67, 0
1, 365762, Note_off_c, 1, 79, 0
1, 365765, Note_on_c, 1, 69, 127
1, 365765, Note_on_c, 1, 77, 127
1, 365765, Note_on_c, 1, 60, 127
1, 366042, Note_off_c, 1, 69, 0
1, 366042, Note_off_c, 1, 77, 0
1, 366042, Note_off_c, 1, 60, 0
1, 366044, Note_off_c, 1, 51, 0
1, 366045, Note_on_c, 1, 50, 127
1, 366045, Note_on_c, 1, 62, 127
1, 366045, Note_on_c, 1, 70, 127
1, 366322, Note_off_c, 1, 50, 0
1, 366322, Note_off_c, 1, 62, 0
1, 366325, Note_on_c, 1, 65, 127
1, 366325, Note_on_c, 1, 53, 127
1, 366602, Note_off_c, 1, 65, 0
1, 366604, Note_off_c, 1, 70, 0
1, 366605, Note_on_c, 1, 60, 127
1, 366882, Note_off_c, 1, 60, 0
1, 366885, Note_on_c, 1, 69, 127
1, 366885, Note_on_c, 1, 63, 127
1, 367162, Note_off_c, 1, 69, 0
1, 367162, Note_off_c, 1, 63, 0
1, 367163, Note_off_c, 1, 53, 0
1, 367165, Note_on_c, 1, 46, 127
1, 367165, Note_on_c, 1, 62, 127
1, 367165, Note_on_c, 1, 58, 127
1, 367165, Note_on_c, 1, 65, 127
1, 367165, Note_on_c, 1, 70, 127
1, 367442, Note_off_c, 1, 46, 0
1, 367442, Note_off_c, 1, 62, 0
1, 367445, Note_on_c, 1, 50, 127
1, 367722, Note_off_c, 1, 50, 0
1, 367724, Note_off_c, 1, 58, 0
1, 367725, Note_on_c, 1, 53, 127
1, 368002, Note_off_c, 1, 53, 0
1, 368004, Note_off_c, 1, 65, 0
1, 368004, Note_off_c, 1, 70, 0
1, 368005, Note_on_c, 1, 58, 127
1, 368005, Note_on_c, 1, 74, 127
1, 368145, Note_on_c, 1, 70, 127
1, 368282, Note_off_c, 1, 58, 0
1, 368282, Note_off_c, 1, 70, 0
1, 368285, Note_on_c, 1, 69, 127
1, 368285, Note_on_c, 1, 53, 127
1, 368422, Note_off_c, 1, 69, 0
1, 368424, Note_off_c, 1, 74, 0
1, 368562, Note_off_c, 1, 53, 0
1, 368565, Note_on_c, 1, 65, 127
1, 368565, Note_on_c, 1, 50, 127
1, 368683, Note_off_c, 1, 65, 0
1, 368705, Note_on_c, 1, 70, 127
1, 368823, Note_off_c, 1, 70, 0
1, 368842, Note_off_c, 1, 50, 0
1, 368845, Note_on_c, 1, 74, 127
1, 368845, Note_on_c, 1, 46, 127
1, 368985, Note_on_c, 1, 70, 127
1, 369122, Note_off_c, 1, 74, 0
1, 369122, Note_off_c, 1, 46, 0
1, 369122, Note_off_c, 1, 70, 0
1, 369125, Note_on_c, 1, 75, 127
1, 369125, Note_on_c, 1, 48, 127
1, 369262, Note_off_c, 1, 75, 0
1, 369265, Note_on_c, 1, 70, 127
1, 369383, Note_off_c, 1, 70, 0
1, 369402, Note_off_c, 1, 48, 0
1, 369405, Note_on_c, 1, 77, 127
1, 369405, Note_on_c, 1, 50, 127
1, 369523, Note_off_c, 1, 77, 0
1, 369545, Note_on_c, 1, 70, 127
1, 369663, Note_off_c, 1, 70, 0
1, 369682, Note_off_c, 1, 50, 0
1, 369685, Note_on_c, 1, 45, 127
1, 369685, Note_on_c, 1, 72, 127
1, 369825, Note_on_c, 1, 69, 127
1, 369962, Note_off_c, 1, 45, 0
1, 369962, Note_off_c, 1, 69, 0
1, 369965, Note_on_c, 1, 67, 127
1, 369965, Note_on_c, 1, 48, 127
1, 370102, Note_off_c, 1, 67, 0
1, 370104, Note_off_c, 1, 72, 0
1, 370242, Note_off_c, 1, 48, 0
1, 370245, Note_on_c, 1, 65, 127
1, 370245, Note_on_c, 1, 53, 127
1, 370363, Note_off_c, 1, 65, 0
1, 370385, Note_on_c, 1, 69, 127
1, 370503, Note_off_c, 1, 69, 0
1, 370522, Note_off_c, 1, 53, 0
1, 370525, Note_on_c, 1, 72, 127
1, 370525, Note_on_c, 1, 57, 127
1, 370665, Note_on_c, 1, 65, 127
1, 370802, Note_off_c, 1, 72, 0
1, 370802, Note_off_c, 1, 57, 0
1, 370802, Note_off_c, 1, 65, 0
1, 370805, Note_on_c, 1, 74, 127
1, 370805, Note_on_c, 1, 58, 127
1, 370942, Note_off_c, 1, 74, 0
1, 370942, Note_off_c, 1, 58, 0
1, 370945, Note_on_c, 1, 65, 127
1, 370945, Note_on_c, 1, 57, 127
1, 371063, Note_off_c, 1, 65, 0
1, 371070, Note_off_c, 1, 57, 0
1, 371084, Note_on_c, 1, 75, 127
1, 371084, Note_on_c, 1, 55, 127
1, 371202, Note_off_c, 1, 75, 0
1, 371209, Note_off_c, 1, 55, 0
1, 371223, Note_on_c, 1, 65, 127
1, 371223, Note_on_c, 1, 53, 127
1, 371341, Note_off_c, 1, 65, 0
1, 371348, Note_off_c, 1, 53, 0
1, 371362, Note_on_c, 1, 74, 127
1, 371362, Note_on_c, 1, 58, 127
1, 371502, Note_on_c, 1, 68, 127
1, 371639, Note_off_c, 1, 74, 0
1, 371639, Note_off_c, 1, 58, 0
1, 371639, Note_off_c, 1, 68, 0
1, 371642, Note_on_c, 1, 75, 127
1, 371642, Note_on_c, 1, 60, 127
1, 371779, Note_off_c, 1, 75, 0
1, 371782, Note_on_c, 1, 67, 127
1, 371919, Note_off_c, 1, 60, 0
1, 371919, Note_off_c, 1, 67, 0
1, 371922, Note_on_c, 1, 77, 127
1, 371922, Note_on_c, 1, 62, 127
1, 372040, Note_off_c, 1, 77, 0
1, 372062, Note_on_c, 1, 65, 127
1, 372180, Note_off_c, 1, 65, 0
1, 372199, Note_off_c, 1, 62, 0
1, 372202, Note_on_c, 1, 79, 127
1, 372202, Note_on_c, 1, 63, 127
1, 372339, Note_off_c, 1, 79, 0
1, 372342, Note_on_c, 1, 77, 127
1, 372479, Note_off_c, 1, 63, 0
1, 372482, Note_on_c, 1, 81, 127
1, 372482, Note_on_c, 1, 65, 127
1, 372619, Note_off_c, 1, 77, 0
1, 372619, Note_off_c, 1, 81, 0
1, 372622, Note_on_c, 1, 75, 127
1, 372759, Note_off_c, 1, 65, 0
1, 372759, Note_off_c, 1, 75, 0
1, 372762, Note_on_c, 1, 82, 127
1, 372762, Note_on_c, 1, 67, 127
1, 372880, Note_off_c, 1, 82, 0
1, 372902, Note_on_c, 1, 74, 127
1, 373020, Note_off_c, 1, 74, 0
1, 373039, Note_off_c, 1, 67, 0
1, 373042, Note_on_c, 1, 72, 127
1, 373042, Note_on_c, 1, 69, 127
1, 373182, Note_on_c, 1, 75, 127
1, 373319, Note_off_c, 1, 72, 0
1, 373319, Note_off_c, 1, 69, 0
1, 373319, Note_off_c, 1, 75, 0
1, 373322, Note_on_c, 1, 74, 127
1, 373322, Note_on_c, 1, 70, 127
1, 373459, Note_off_c, 1, 74, 0
1, 373462, Note_on_c, 1, 72, 127
1, 373580, Note_off_c, 1, 72, 0
1, 373602, Note_on_c, 1, 58, 127
1, 373741, Note_off_c, 1, 70, 0
1, 373879, Note_off_c, 1, 58, 0
1, 373882, Note_on_c, 1, 72, 127
1, 373882, Note_on_c, 1, 65, 127
1, 374019, Note_off_c, 1, 72, 0
1, 374022, Note_on_c, 1, 69, 127
1, 374159, Note_off_c, 1, 65, 0
1, 374159, Note_off_c, 1, 69, 0
1, 374162, Note_on_c, 1, 67, 127
1, 374162, Note_on_c, 1, 53, 127
1, 374299, Note_off_c, 1, 67, 0
1, 374302, Note_on_c, 1, 69, 127
1, 374420, Note_off_c, 1, 69, 0
1, 374439, Note_off_c, 1, 53, 0
1, 374442, Note_on_c, 1, 65, 127
1, 374442, Note_on_c, 1, 57, 127
1, 374560, Note_off_c, 1, 65, 0
1, 374582, Note_on_c, 1, 75, 127
1, 374700, Note_off_c, 1, 75, 0
1, 374719, Note_off_c, 1, 57, 0
1, 374722, Note_on_c, 1, 58, 127
1, 374722, Note_on_c, 1, 74, 127
1, 374862, Note_on_c, 1, 70, 127
1, 374999, Note_off_c, 1, 58, 0
1, 374999, Note_off_c, 1, 70, 0
1, 375002, Note_on_c, 1, 69, 127
1, 375002, Note_on_c, 1, 53, 127
1, 375072, Note_off_c, 1, 74, 0
1, 375139, Note_off_c, 1, 69, 0
1, 375279, Note_off_c, 1, 53, 0
1, 375282, Note_on_c, 1, 65, 127
1, 375282, Note_on_c, 1, 50, 127
1, 375400, Note_off_c, 1, 65, 0
1, 375422, Note_on_c, 1, 70, 127
1, 375540, Note_off_c, 1, 70, 0
1, 375559, Note_off_c, 1, 50, 0
1, 375562, Note_on_c, 1, 74, 127
1, 375562, Note_on_c, 1, 46, 127
1, 375699, Note_off_c, 1, 74, 0
1, 375702, Note_on_c, 1, 70, 127
1, 375839, Note_off_c, 1, 46, 0
1, 375839, Note_off_c, 1, 70, 0
1, 375842, Note_on_c, 1, 75, 127
1, 375842, Note_on_c, 1, 48, 127
1, 375979, Note_off_c, 1, 75, 0
1, 375982, Note_on_c, 1, 70, 127
1, 376100, Note_off_c, 1, 70, 0
1, 376119, Note_off_c, 1, 48, 0
1, 376122, Note_on_c, 1, 77, 127
1, 376122, Note_on_c, 1, 50, 127
1, 376240, Note_off_c, 1, 77, 0
1, 376262, Note_on_c, 1, 70, 127
1, 376380, Note_off_c, 1, 70, 0
1, 376399, Note_off_c, 1, 50, 0
1, 376402, Note_on_c, 1, 45, 127
1, 376402, Note_on_c, 1, 72, 127
1, 376542, Note_on_c, 1, 69, 127
1, 376679, Note_off_c, 1, 45, 0
1, 376679, Note_off_c, 1, 69, 0
1, 376682, Note_on_c, 1, 67, 127
1, 376682, Note_on_c, 1, 48, 127
1, 376752, Note_off_c, 1, 72, 0
1, 376819, Note_off_c, 1, 67, 0
1, 376959, Note_off_c, 1, 48, 0
1, 376962, Note_on_c, 1, 65, 127
1, 376962, Note_on_c, 1, 53, 127
1, 377080, Note_off_c, 1, 65, 0
1, 377102, Note_on_c, 1, 69, 127
1, 377220, Note_off_c, 1, 69, 0
1, 377239, Note_off_c, 1, 53, 0
1, 377242, Note_on_c, 1, 72, 127
1, 377242, Note_on_c, 1, 57, 127
1, 377379, Note_off_c, 1, 72, 0
1, 377382, Note_on_c, 1, 65, 127
1, 377519, Note_off_c, 1, 57, 0
1, 377519, Note_off_c, 1, 65, 0
1, 377522, Note_on_c, 1, 74, 127
1, 377522, Note_on_c, 1, 58, 127
1, 377659, Note_off_c, 1, 74, 0
1, 377659, Note_off_c, 1, 58, 0
1, 377662, Note_on_c, 1, 65, 127
1, 377662, Note_on_c, 1, 57, 127
1, 377780, Note_off_c, 1, 65, 0
1, 377784, Note_off_c, 1, 57, 0
1, 377802, Note_on_c, 1, 75, 127
1, 377802, Note_on_c, 1, 55, 127
1, 377920, Note_off_c, 1, 75, 0
1, 377924, Note_off_c, 1, 55, 0
1, 377942, Note_on_c, 1, 65, 127
1, 377942, Note_on_c, 1, 53, 127
1, 378060, Note_off_c, 1, 65, 0
1, 378064, Note_off_c, 1, 53, 0
1, 378082, Note_on_c, 1, 74, 127
1, 378082, Note_on_c, 1, 58, 127
1, 378219, Note_off_c, 1, 74, 0
1, 378222, Note_on_c, 1, 72, 127
1, 378359, Note_off_c, 1, 58, 0
1, 378359, Note_off_c, 1, 72, 0
1, 378362, Note_on_c, 1, 76, 127
1, 378362, Note_on_c, 1, 60, 127
1, 378499, Note_off_c, 1, 76, 0
1, 378502, Note_on_c, 1, 70, 127
1, 378620, Note_off_c, 1, 70, 0
1, 378639, Note_off_c, 1, 60, 0
1, 378642, Note_on_c, 1, 77, 127
1, 378642, Note_on_c, 1, 62, 127
1, 378760, Note_off_c, 1, 77, 0
1, 378782, Note_on_c, 1, 69, 127
1, 378900, Note_off_c, 1, 69, 0
1, 378919, Note_off_c, 1, 62, 0
1, 378922, Note_on_c, 1, 67, 127
1, 378922, Note_on_c, 1, 52, 127
1, 379059, Note_off_c, 1, 67, 0
1, 379062, Note_on_c, 1, 70, 127
1, 379199, Note_off_c, 1, 52, 0
1, 379199, Note_off_c, 1, 70, 0
1, 379202, Note_on_c, 1, 65, 127
1, 379202, Note_on_c, 1, 50, 127
1, 379339, Note_off_c, 1, 65, 0
1, 379342, Note_on_c, 1, 70, 127
1, 379460, Note_off_c, 1, 70, 0
1, 379479, Note_off_c, 1, 50, 0
1, 379482, Note_on_c, 1, 64, 127
1, 379482, Note_on_c, 1, 48, 127
1, 379600, Note_off_c, 1, 64, 0
1, 379622, Note_on_c, 1, 70, 127
1, 379740, Note_off_c, 1, 70, 0
1, 379759, Note_off_c, 1, 48, 0
1, 379762, Note_on_c, 1, 69, 127
1, 379762, Note_on_c, 1, 53, 127
1, 379899, Note_off_c, 1, 69, 0
1, 379902, Note_on_c, 1, 72, 127
1, 380039, Note_off_c, 1, 53, 0
1, 380039, Note_off_c, 1, 72, 0
1, 380042, Note_on_c, 1, 69, 127
1, 380042, Note_on_c, 1, 46, 127
1, 380179, Note_off_c, 1, 69, 0
1, 380182, Note_on_c, 1, 65, 127
1, 380300, Note_off_c, 1, 65, 0
1, 380319, Note_off_c, 1, 46, 0
1, 380322, Note_on_c, 1, 60, 127
1, 380322, Note_on_c, 1, 48, 127
1, 380440, Note_off_c, 1, 60, 0
1, 380462, Note_on_c, 1, 64, 127
1, 380580, Note_off_c, 1, 64, 0
1, 380599, Note_off_c, 1, 48, 0
1, 380602, Note_on_c, 1, 53, 127
1, 380602, Note_on_c, 1, 65, 127
1, 380879, Note_off_c, 1, 53, 0
1, 380882, Note_on_c, 1, 48, 127
1, 381159, Note_off_c, 1, 48, 0
1, 381162, Note_on_c, 1, 45, 127
1, 381367, Note_off_c, 1, 65, 0
1, 381439, Note_off_c, 1, 45, 0
1, 381441, Note_on_c, 1, 41, 127
1, 381441, Note_on_c, 1, 81, 127
1, 381581, Note_on_c, 1, 77, 127
1, 381718, Note_off_c, 1, 41, 0
1, 381718, Note_off_c, 1, 77, 0
1, 381721, Note_on_c, 1, 76, 127
1, 381721, Note_on_c, 1, 48, 127
1, 381858, Note_off_c, 1, 76, 0
1, 381860, Note_off_c, 1, 81, 0
1, 381998, Note_off_c, 1, 48, 0
1, 382001, Note_on_c, 1, 72, 127
1, 382001, Note_on_c, 1, 53, 127
1, 382119, Note_off_c, 1, 72, 0
1, 382141, Note_on_c, 1, 77, 127
1, 382259, Note_off_c, 1, 77, 0
1, 382278, Note_off_c, 1, 53, 0
1, 382281, Note_on_c, 1, 81, 127
1, 382281, Note_on_c, 1, 51, 127
1, 382421, Note_on_c, 1, 77, 127
1, 382558, Note_off_c, 1, 81, 0
1, 382558, Note_off_c, 1, 51, 0
1, 382558, Note_off_c, 1, 77, 0
1, 382561, Note_on_c, 1, 82, 127
1, 382561, Note_on_c, 1, 50, 127
1, 382698, Note_off_c, 1, 82, 0
1, 382701, Note_on_c, 1, 77, 127
1, 382819, Note_off_c, 1, 77, 0
1, 382838, Note_off_c, 1, 50, 0
1, 382841, Note_on_c, 1, 81, 127
1, 382841, Note_on_c, 1, 46, 127
1, 382959, Note_off_c, 1, 81, 0
1, 382981, Note_on_c, 1, 77, 127
1, 383099, Note_off_c, 1, 77, 0
1, 383118, Note_off_c, 1, 46, 0
1, 383121, Note_on_c, 1, 51, 127
1, 383121, Note_on_c, 1, 79, 127
1, 383261, Note_on_c, 1, 75, 127
1, 383398, Note_off_c, 1, 51, 0
1, 383398, Note_off_c, 1, 75, 0
1, 383401, Note_on_c, 1, 74, 127
1, 383401, Note_on_c, 1, 55, 127
1, 383538, Note_off_c, 1, 74, 0
1, 383540, Note_off_c, 1, 79, 0
1, 383678, Note_off_c, 1, 55, 0
1, 383681, Note_on_c, 1, 72, 127
1, 383681, Note_on_c, 1, 56, 127
1, 383799, Note_off_c, 1, 72, 0
1, 383821, Note_on_c, 1, 75, 127
1, 383939, Note_off_c, 1, 75, 0
1, 383958, Note_off_c, 1, 56, 0
1, 383961, Note_on_c, 1, 77, 127
1, 383961, Note_on_c, 1, 50, 127
1, 384101, Note_on_c, 1, 74, 127
1, 384238, Note_off_c, 1, 77, 0
1, 384238, Note_off_c, 1, 50, 0
1, 384238, Note_off_c, 1, 74, 0
1, 384241, Note_on_c, 1, 77, 127
1, 384241, Note_on_c, 1, 55, 127
1, 384378, Note_off_c, 1, 77, 0
1, 384381, Note_on_c, 1, 72, 127
1, 384499, Note_off_c, 1, 72, 0
1, 384518, Note_off_c, 1, 55, 0
1, 384521, Note_on_c, 1, 77, 127
1, 384521, Note_on_c, 1, 43, 127
1, 384639, Note_off_c, 1, 77, 0
1, 384661, Note_on_c, 1, 71, 127
1, 384779, Note_off_c, 1, 71, 0
1, 384798, Note_off_c, 1, 43, 0
1, 384801, Note_on_c, 1, 48, 127
1, 384801, Note_on_c, 1, 72, 127
1, 384941, Note_on_c, 1, 75, 127
1, 385078, Note_off_c, 1, 48, 0
1, 385078, Note_off_c, 1, 75, 0
1, 385081, Note_on_c, 1, 78, 127
1, 385081, Note_on_c, 1, 57, 127
1, 385218, Note_off_c, 1, 78, 0
1, 385220, Note_off_c, 1, 72, 0
1, 385358, Note_off_c, 1, 57, 0
1, 385361, Note_on_c, 1, 81, 127
1, 385361, Note_on_c, 1, 55, 127
1, 385479, Note_off_c, 1, 81, 0
1, 385501, Note_on_c, 1, 72, 127
1, 385619, Note_off_c, 1, 72, 0
1, 385638, Note_off_c, 1, 55, 0
1, 385641, Note_on_c, 1, 69, 127
1, 385641, Note_on_c, 1, 54, 127
1, 385781, Note_on_c, 1, 72, 127
1, 385918, Note_off_c, 1, 69, 0
1, 385918, Note_off_c, 1, 54, 0
1, 385918, Note_off_c, 1, 72, 0
1, 385921, Note_on_c, 1, 66, 127
1, 385921, Note_on_c, 1, 50, 127
1, 386058, Note_off_c, 1, 66, 0
1, 386061, Note_on_c, 1, 72, 127
1, 386179, Note_off_c, 1, 72, 0
1, 386198, Note_off_c, 1, 50, 0
1, 386201, Note_on_c, 1, 62, 127
1, 386201, Note_on_c, 1, 54, 127
1, 386319, Note_off_c, 1, 62, 0
1, 386341, Note_on_c, 1, 72, 127
1, 386459, Note_off_c, 1, 72, 0
1, 386478, Note_off_c, 1, 54, 0
1, 386481, Note_on_c, 1, 55, 127
1, 386481, Note_on_c, 1, 70, 127
1, 386621, Note_on_c, 1, 75, 127
1, 386758, Note_off_c, 1, 55, 0
1, 386758, Note_off_c, 1, 75, 0
1, 386761, Note_on_c, 1, 74, 127
1, 386761, Note_on_c, 1, 46, 127
1, 386898, Note_off_c, 1, 74, 0
1, 386900, Note_off_c, 1, 70, 0
1, 387038, Note_off_c, 1, 46, 0
1, 387041, Note_on_c, 1, 72, 127
1, 387041, Note_on_c, 1, 50, 127
1, 387159, Note_off_c, 1, 72, 0
1, 387181, Note_on_c, 1, 69, 127
1, 387299, Note_off_c, 1, 69, 0
1, 387318, Note_off_c, 1, 50, 0
1, 387321, Note_on_c, 1, 43, 127
1, 387321, Note_on_c, 1, 67, 127
1, 387458, Note_off_c, 1, 43, 0
1, 387461, Note_on_c, 1, 45, 127
1, 387598, Note_off_c, 1, 67, 0
1, 387598, Note_off_c, 1, 45, 0
1, 387601, Note_on_c, 1, 46, 127
1, 387738, Note_off_c, 1, 46, 0
1, 387738, Note_on_c, 1, 69, 127
1, 387741, Note_on_c, 1, 48, 127
1, 387804, Note_off_c, 1, 69, 0
1, 387811, Note_on_c, 1, 70, 127
1, 387878, Note_off_c, 1, 48, 0
1, 387878, Note_off_c, 1, 70, 0
1, 387881, Note_on_c, 1, 69, 127
1, 387881, Note_on_c, 1, 50, 127
1, 387951, Note_on_c, 1, 67, 127
1, 387956, Note_off_c, 1, 69, 0
1, 388018, Note_off_c, 1, 50, 0
1, 388018, Note_off_c, 1, 67, 0
1, 388021, Note_on_c, 1, 65, 127
1, 388021, Note_on_c, 1, 51, 127
1, 388088, Note_off_c, 1, 65, 0
1, 388091, Note_on_c, 1, 63, 127
1, 388158, Note_off_c, 1, 51, 0
1, 388158, Note_off_c, 1, 63, 0
1, 388161, Note_on_c, 1, 62, 127
1, 388161, Note_on_c, 1, 53, 127
1, 388301, Note_on_c, 1, 70, 127
1, 388438, Note_off_c, 1, 62, 0
1, 388438, Note_off_c, 1, 53, 0
1, 388438, Note_off_c, 1, 70, 0
1, 388441, Note_on_c, 1, 69, 127
1, 388441, Note_on_c, 1, 51, 127
1, 388578, Note_off_c, 1, 69, 0
1, 388581, Note_on_c, 1, 70, 127
1, 388699, Note_off_c, 1, 70, 0
1, 388718, Note_off_c, 1, 51, 0
1, 388721, Note_on_c, 1, 77, 127
1, 388721, Note_on_c, 1, 50, 127
1, 388839, Note_off_c, 1, 77, 0
1, 388861, Note_on_c, 1, 70, 127
1, 388979, Note_off_c, 1, 70, 0
1, 388998, Note_off_c, 1, 50, 0
1, 389001, Note_on_c, 1, 80, 127
1, 389001, Note_on_c, 1, 53, 127
1, 389141, Note_on_c, 1, 70, 127
1, 389278, Note_off_c, 1, 80, 0
1, 389278, Note_off_c, 1, 53, 0
1, 389278, Note_off_c, 1, 70, 0
1, 389281, Note_on_c, 1, 79, 127
1, 389281, Note_on_c, 1, 51, 127
1, 389418, Note_off_c, 1, 79, 0
1, 389421, Note_on_c, 1, 70, 127
1, 389539, Note_off_c, 1, 70, 0
1, 389558, Note_off_c, 1, 51, 0
1, 389561, Note_on_c, 1, 77, 127
1, 389561, Note_on_c, 1, 50, 127
1, 389679, Note_off_c, 1, 77, 0
1, 389701, Note_on_c, 1, 70, 127
1, 389819, Note_off_c, 1, 70, 0
1, 389838, Note_off_c, 1, 50, 0
1, 389841, Note_on_c, 1, 63, 127
1, 389841, Note_on_c, 1, 55, 127
1, 389981, Note_on_c, 1, 70, 127
1, 390118, Note_off_c, 1, 63, 0
1, 390118, Note_off_c, 1, 55, 0
1, 390118, Note_off_c, 1, 70, 0
1, 390121, Note_on_c, 1, 69, 127
1, 390121, Note_on_c, 1, 53, 127
1, 390258, Note_off_c, 1, 69, 0
1, 390261, Note_on_c, 1, 70, 127
1, 390379, Note_off_c, 1, 70, 0
1, 390398, Note_off_c, 1, 53, 0
1, 390401, Note_on_c, 1, 79, 127
1, 390401, Note_on_c, 1, 51, 127
1, 390519, Note_off_c, 1, 79, 0
1, 390541, Note_on_c, 1, 70, 127
1, 390659, Note_off_c, 1, 70, 0
1, 390678, Note_off_c, 1, 51, 0
1, 390681, Note_on_c, 1, 63, 127
1, 390681, Note_on_c, 1, 55, 127
1, 390821, Note_on_c, 1, 70, 127
1, 390958, Note_off_c, 1, 63, 0
1, 390958, Note_off_c, 1, 55, 0
1, 390961, Note_on_c, 1, 65, 127
1, 390961, Note_on_c, 1, 53, 127
1, 391098, Note_off_c, 1, 70, 0
1, 391098, Note_off_c, 1, 65, 0
1, 391238, Note_off_c, 1, 53, 0
1, 391241, Note_on_c, 1, 67, 127
1, 391241, Note_on_c, 1, 51, 127
1, 391359, Note_off_c, 1, 67, 0
1, 391381, Note_on_c, 1, 70, 127
1, 391499, Note_off_c, 1, 70, 0
1, 391518, Note_off_c, 1, 51, 0
1, 391521, Note_on_c, 1, 72, 127
1, 391521, Note_on_c, 1, 56, 127
1, 391658, Note_off_c, 1, 72, 0
1, 391661, Note_on_c, 1, 70, 127
1, 391798, Note_off_c, 1, 56, 0
1, 391801, Note_on_c, 1, 74, 127
1, 391801, Note_on_c, 1, 58, 127
1, 391938, Note_off_c, 1, 70, 0
1, 391938, Note_off_c, 1, 74, 0
1, 391941, Note_on_c, 1, 68, 127
1, 392059, Note_off_c, 1, 68, 0
1, 392078, Note_off_c, 1, 58, 0
1, 392081, Note_on_c, 1, 75, 127
1, 392081, Note_on_c, 1, 60, 127
1, 392199, Note_off_c, 1, 75, 0
1, 392221, Note_on_c, 1, 67, 127
1, 392339, Note_off_c, 1, 67, 0
1, 392358, Note_off_c, 1, 60, 0
1, 392361, Note_on_c, 1, 77, 127
1, 392361, Note_on_c, 1, 62, 127
1, 392498, Note_off_c, 1, 77, 0
1, 392501, Note_on_c, 1, 75, 127
1, 392638, Note_off_c, 1, 62, 0
1, 392641, Note_on_c, 1, 79, 127
1, 392641, Note_on_c, 1, 63, 127
1, 392778, Note_off_c, 1, 75, 0
1, 392778, Note_off_c, 1, 79, 0
1, 392781, Note_on_c, 1, 74, 127
1, 392899, Note_off_c, 1, 74, 0
1, 392918, Note_off_c, 1, 63, 0
1, 392921, Note_on_c, 1, 81, 127
1, 392921, Note_on_c, 1, 65, 127
1, 393039, Note_off_c, 1, 81, 0
1, 393061, Note_on_c, 1, 72, 127
1, 393179, Note_off_c, 1, 72, 0
1, 393198, Note_off_c, 1, 65, 0
1, 393201, Note_on_c, 1, 82, 127
1, 393201, Note_on_c, 1, 67, 127
1, 393338, Note_off_c, 1, 82, 0
1, 393341, Note_on_c, 1, 81, 127
1, 393478, Note_off_c, 1, 67, 0
1, 393478, Note_off_c, 1, 81, 0
1, 393481, Note_on_c, 1, 79, 127
1, 393481, Note_on_c, 1, 69, 127
1, 393618, Note_off_c, 1, 79, 0
1, 393621, Note_on_c, 1, 77, 127
1, 393758, Note_off_c, 1, 69, 0
1, 393758, Note_off_c, 1, 77, 0
1, 393761, Note_on_c, 1, 75, 127
1, 393761, Note_on_c, 1, 70, 127
1, 393879, Note_off_c, 1, 75, 0
1, 393901, Note_on_c, 1, 74, 127
1, 394019, Note_off_c, 1, 74, 0
1, 394038, Note_off_c, 1, 70, 0
1, 394041, Note_on_c, 1, 65, 127
1, 394041, Note_on_c, 1, 72, 127
1, 394181, Note_on_c, 1, 70, 127
1, 394318, Note_off_c, 1, 65, 0
1, 394318, Note_off_c, 1, 70, 0
1, 394321, Note_on_c, 1, 69, 127
1, 394321, Note_on_c, 1, 53, 127
1, 394439, Note_off_c, 1, 69, 0
1, 394461, Note_on_c, 1, 67, 127
1, 394579, Note_off_c, 1, 67, 0
1, 394598, Note_off_c, 1, 53, 0
1, 394601, Note_on_c, 1, 57, 127
1, 394741, Note_on_c, 1, 63, 127
1, 394859, Note_off_c, 1, 63, 0
1, 394878, Note_off_c, 1, 57, 0
1, 394879, Note_off_c, 1, 72, 0
1, 394881, Note_on_c, 1, 62, 127
1, 395021, Note_on_c, 1, 77, 127
1, 395158, Note_off_c, 1, 77, 0
1, 395161, Note_on_c, 1, 79, 127
1, 395161, Note_on_c, 1, 50, 127
1, 395298, Note_off_c, 1, 79, 0
1, 395438, Note_off_c, 1, 50, 0
1, 395440, Note_off_c, 1, 62, 0
1, 395441, Note_on_c, 1, 72, 127
1, 395441, Note_on_c, 1, 53, 127
1, 395559, Note_off_c, 1, 72, 0
1, 395581, Note_on_c, 1, 77, 127
1, 395699, Note_off_c, 1, 77, 0
1, 395718, Note_off_c, 1, 53, 0
1, 395721, Note_on_c, 1, 71, 127
1, 395721, Note_on_c, 1, 55, 127
1, 395858, Note_off_c, 1, 71, 0
1, 395861, Note_on_c, 1, 77, 127
1, 395998, Note_off_c, 1, 55, 0
1, 395998, Note_off_c, 1, 77, 0
1, 396001, Note_on_c, 1, 69, 127
1, 396001, Note_on_c, 1, 57, 127
1, 396138, Note_off_c, 1, 69, 0
1, 396141, Note_on_c, 1, 77, 127
1, 396259, Note_off_c, 1, 77, 0
1, 396278, Note_off_c, 1, 57, 0
1, 396281, Note_on_c, 1, 67, 127
1, 396281, Note_on_c, 1, 59, 127
1, 396399, Note_off_c, 1, 67, 0
1, 396421, Note_on_c, 1, 77, 127
1, 396539, Note_off_c, 1, 77, 0
1, 396558, Note_off_c, 1, 59, 0
1, 396561, Note_on_c, 1, 60, 127
1, 396705, Note_on_c, 1, 75, 127
1, 396848, Note_off_c, 1, 75, 0
1, 396849, Note_on_c, 1, 77, 127
1, 396849, Note_on_c, 1, 48, 127
1, 396992, Note_off_c, 1, 77, 0
1, 397137, Note_off_c, 1, 60, 0
1, 397137, Note_off_c, 1, 48, 0
1, 397138, Note_on_c, 1, 70, 127
1, 397138, Note_on_c, 1, 51, 127
1, 397260, Note_off_c, 1, 70, 0
1, 397282, Note_on_c, 1, 75, 127
1, 397404, Note_off_c, 1, 75, 0
1, 397426, Note_off_c, 1, 51, 0
1, 397427, Note_on_c, 1, 69, 127
1, 397427, Note_on_c, 1, 53, 127
1, 397570, Note_off_c, 1, 69, 0
1, 397571, Note_on_c, 1, 75, 127
1, 397714, Note_off_c, 1, 53, 0
1, 397714, Note_off_c, 1, 75, 0
1, 397715, Note_on_c, 1, 67, 127
1, 397715, Note_on_c, 1, 55, 127
1, 397858, Note_off_c, 1, 67, 0
1, 397859, Note_on_c, 1, 75, 127
1, 397981, Note_off_c, 1, 75, 0
1, 398003, Note_off_c, 1, 55, 0
1, 398004, Note_on_c, 1, 65, 127
1, 398004, Note_on_c, 1, 57, 127
1, 398126, Note_off_c, 1, 65, 0
1, 398148, Note_on_c, 1, 75, 127
1, 398270, Note_off_c, 1, 75, 0
1, 398292, Note_off_c, 1, 57, 0
1, 398293, Note_on_c, 1, 74, 127
1, 398293, Note_on_c, 1, 58, 127
1, 398451, Note_off_c, 1, 74, 0
1, 398452, Note_on_c, 1, 77, 127
1, 398610, Note_off_c, 1, 58, 0
1, 398610, Note_off_c, 1, 77, 0
1, 398611, Note_on_c, 1, 74, 127
1, 398611, Note_on_c, 1, 51, 127
1, 398746, Note_off_c, 1, 74, 0
1, 398770, Note_on_c, 1, 70, 127
1, 398905, Note_off_c, 1, 70, 0
1, 398929, Note_off_c, 1, 51, 0
1, 398935, Note_on_c, 1, 65, 127
1, 398935, Note_on_c, 1, 53, 127
1, 399123, Note_on_c, 1, 69, 127
1, 399173, Note_off_c, 1, 65, 0
1, 399251, Note_off_c, 1, 53, 0
1, 399271, Note_off_c, 1, 69, 0
1, 399330, Note_on_c, 1, 46, 127
1, 399332, Note_on_c, 1, 70, 127
1, 400489, Note_off_c, 1, 46, 0
1, 402094, Note_off_c, 1, 70, 0
1, 402295, Note_on_c, 1, 77, 127
1, 402367, Note_on_c, 1, 62, 127
1, 402440, Note_on_c, 1, 70, 127
1, 402507, Note_off_c, 1, 77, 0
1, 402513, Note_on_c, 1, 58, 127
1, 402578, Note_off_c, 1, 62, 0
1, 402651, Note_off_c, 1, 70, 0
1, 402659, Note_off_c, 1, 58, 0
1, 402730, Note_on_c, 1, 46, 127
1, 402876, Note_off_c, 1, 46, 0
1, 403166, Note_on_c, 1, 79, 127
1, 403239, Note_on_c, 1, 63, 127
1, 403378, Note_off_c, 1, 79, 0
1, 403384, Note_on_c, 1, 68, 127
1, 403450, Note_off_c, 1, 63, 0
1, 403530, Note_off_c, 1, 68, 0
1, 403602, Note_on_c, 1, 67, 127
1, 403748, Note_off_c, 1, 67, 0
1, 404037, Note_on_c, 1, 72, 127
1, 404182, Note_on_c, 1, 69, 127
1, 404249, Note_off_c, 1, 72, 0
1, 404255, Note_on_c, 1, 66, 127
1, 404393, Note_off_c, 1, 69, 0
1, 404401, Note_off_c, 1, 66, 0
1, 404473, Note_on_c, 1, 65, 127
1, 404619, Note_off_c, 1, 65, 0
1, 404908, Note_on_c, 1, 74, 127
1, 404981, Note_on_c, 1, 65, 127
1, 405054, Note_on_c, 1, 70, 127
1, 405120, Note_off_c, 1, 74, 0
1, 405126, Note_on_c, 1, 58, 127
1, 405192, Note_off_c, 1, 65, 0
1, 405265, Note_off_c, 1, 70, 0
1, 405272, Note_off_c, 1, 58, 0
1, 405344, Note_on_c, 1, 46, 127
1, 405490, Note_off_c, 1, 46, 0
1, 405780, Note_on_c, 1, 79, 127
1, 405992, Note_off_c, 1, 79, 0
1, 405997, Note_on_c, 1, 69, 127
1, 406143, Note_off_c, 1, 69, 0
1, 406215, Note_on_c, 1, 67, 127
1, 406361, Note_off_c, 1, 67, 0
1, 406651, Note_on_c, 1, 64, 127
1, 406796, Note_on_c, 1, 72, 127
1, 407007, Note_off_c, 1, 72, 0
1, 407078, Note_off_c, 1, 64, 0
1, 407086, Note_on_c, 1, 60, 127
1, 407232, Note_off_c, 1, 60, 0
1, 407304, Note_on_c, 1, 76, 127
1, 407450, Note_off_c, 1, 76, 0
1, 407522, Note_on_c, 1, 77, 127
1, 407595, Note_on_c, 1, 69, 127
1, 407667, Note_on_c, 1, 72, 127
1, 407734, Note_off_c, 1, 77, 0
1, 407740, Note_on_c, 1, 67, 127
1, 407806, Note_off_c, 1, 69, 0
1, 407878, Note_off_c, 1, 72, 0
1, 407886, Note_off_c, 1, 67, 0
1, 407958, Note_on_c, 1, 65, 127
1, 408104, Note_off_c, 1, 65, 0
1, 408175, Note_on_c, 1, 64, 127
1, 408321, Note_off_c, 1, 64, 0
1, 408393, Note_on_c, 1, 62, 127
1, 408538, Note_on_c, 1, 70, 127
1, 408749, Note_off_c, 1, 70, 0
1, 408820, Note_off_c, 1, 62, 0
1, 408829, Note_on_c, 1, 58, 127
1, 408975, Note_off_c, 1, 58, 0
1, 409047, Note_on_c, 1, 74, 127
1, 409193, Note_off_c, 1, 74, 0
1, 409264, Note_on_c, 1, 76, 127
1, 409337, Note_on_c, 1, 67, 127
1, 409410, Note_on_c, 1, 70, 127
1, 409476, Note_off_c, 1, 76, 0
1, 409482, Note_on_c, 1, 61, 127
1, 409548, Note_off_c, 1, 67, 0
1, 409621, Note_off_c, 1, 70, 0
1, 409628, Note_off_c, 1, 61, 0
1, 409700, Note_on_c, 1, 60, 127
1, 409846, Note_off_c, 1, 60, 0
1, 410136, Note_on_c, 1, 77, 127
1, 410208, Note_on_c, 1, 65, 127
1, 410281, Note_on_c, 1, 68, 127
1, 410348, Note_off_c, 1, 77, 0
1, 410419, Note_off_c, 1, 65, 0
1, 410492, Note_off_c, 1, 68, 0
1, 411007, Note_on_c, 1, 79, 127
1, 411079, Note_on_c, 1, 64, 127
1, 411219, Note_off_c, 1, 79, 0
1, 411290, Note_off_c, 1, 64, 0
1, 411878, Note_on_c, 1, 80, 127
1, 412090, Note_off_c, 1, 80, 0
1, 412749, Note_on_c, 1, 71, 127
1, 412822, Note_on_c, 1, 62, 127
1, 412961, Note_off_c, 1, 71, 0
1, 412967, Note_on_c, 1, 56, 127
1, 413033, Note_off_c, 1, 62, 0
1, 413113, Note_off_c, 1, 56, 0
1, 413185, Note_on_c, 1, 55, 127
1, 413331, Note_off_c, 1, 55, 0
1, 413620, Note_on_c, 1, 72, 127
1, 413832, Note_off_c, 1, 72, 0
1, 413838, Note_on_c, 1, 49, 127
1, 413984, Note_off_c, 1, 49, 0
1, 414056, Note_on_c, 1, 48, 127
1, 414202, Note_off_c, 1, 48, 0
1, 414709, Note_on_c, 1, 59, 127
1, 414855, Note_off_c, 1, 59, 0
1, 415363, Note_on_c, 1, 41, 127
1, 415435, Note_on_c, 1, 57, 127
1, 415525, Note_off_c, 1, 57, 0
1, 415655, Note_on_c, 1, 69, 127
1, 415746, Note_off_c, 1, 69, 0
1, 415794, Note_off_c, 1, 41, 0
1, 416244, Note_on_c, 1, 53, 127
1, 416244, Note_on_c, 1, 81, 127
1, 416335, Note_off_c, 1, 53, 0
1, 416458, Note_off_c, 1, 81, 0
1, 416464, Note_on_c, 1, 63, 127
1, 416610, Note_off_c, 1, 63, 0
1, 417117, Note_on_c, 1, 82, 127
1, 417262, Note_on_c, 1, 74, 127
1, 417329, Note_off_c, 1, 82, 0
1, 417473, Note_off_c, 1, 74, 0
1, 417553, Note_on_c, 1, 58, 127
1, 417699, Note_off_c, 1, 58, 0
1, 418860, Note_on_c, 1, 78, 127
1, 419072, Note_off_c, 1, 78, 0
1, 419368, Note_on_c, 1, 66, 127
1, 419510, Note_off_c, 1, 66, 0
1, 422344, Note_on_c, 1, 84, 127
1, 422556, Note_off_c, 1, 84, 0
1, 423870, Note_on_c, 1, 73, 127
1, 424013, Note_off_c, 1, 73, 0
1, 425616, Note_on_c, 1, 50, 127
1, 425718, Note_off_c, 1, 50, 0
1, 425835, Note_on_c, 1, 43, 127
1, 425907, Note_on_c, 1, 70, 127
1, 425980, Note_on_c, 1, 79, 127
1, 426047, Note_off_c, 1, 43, 0
1, 426053, Note_on_c, 1, 50, 127
1, 426118, Note_off_c, 1, 70, 0
1, 426191, Note_off_c, 1, 79, 0
1, 426199, Note_off_c, 1, 50, 0
1, 426270, Note_on_c, 1, 55, 127
1, 426416, Note_off_c, 1, 55, 0
1, 426488, Note_on_c, 1, 58, 127
1, 426634, Note_off_c, 1, 58, 0
1, 426706, Note_on_c, 1, 62, 127
1, 426779, Note_on_c, 1, 68, 127
1, 426851, Note_on_c, 1, 77, 127
1, 426918, Note_off_c, 1, 62, 0
1, 426924, Note_on_c, 1, 65, 127
1, 426990, Note_off_c, 1, 68, 0
1, 427062, Note_off_c, 1, 77, 0
1, 427070, Note_off_c, 1, 65, 0
1, 427359, Note_on_c, 1, 74, 127
1, 427505, Note_off_c, 1, 74, 0
1, 427577, Note_on_c, 1, 63, 127
1, 427650, Note_on_c, 1, 67, 127
1, 427722, Note_on_c, 1, 75, 127
1, 427789, Note_off_c, 1, 63, 0
1, 427861, Note_off_c, 1, 67, 0
1, 427933, Note_off_c, 1, 75, 0
1, 428448, Note_on_c, 1, 60, 127
1, 428521, Note_on_c, 1, 69, 127
1, 428660, Note_off_c, 1, 60, 0
1, 428732, Note_off_c, 1, 69, 0
1, 429102, Note_on_c, 1, 76, 127
1, 429247, Note_on_c, 1, 73, 127
1, 429248, Note_off_c, 1, 76, 0
1, 429389, Note_off_c, 1, 73, 0
1, 429465, Note_on_c, 1, 72, 127
1, 429676, Note_off_c, 1, 72, 0
1, 431207, Note_on_c, 1, 71, 127
1, 431418, Note_off_c, 1, 71, 0
1, 432151, Note_on_c, 1, 64, 127
1, 432578, Note_off_c, 1, 64, 0
1, 432877, Note_on_c, 1, 66, 127
1, 433088, Note_off_c, 1, 66, 0
1, 434765, Note_on_c, 1, 61, 127
1, 435192, Note_off_c, 1, 61, 0
1, 437378, Note_on_c, 1, 54, 127
1, 437524, Note_off_c, 1, 54, 0
1, 437596, Note_on_c, 1, 53, 127
1, 437742, Note_off_c, 1, 53, 0
1, 438975, Note_on_c, 1, 57, 127
1, 439186, Note_off_c, 1, 57, 0
1, 440863, Note_on_c, 1, 49, 127
1, 441009, Note_off_c, 1, 49, 0
1, 441081, Note_on_c, 1, 48, 127
1, 441227, Note_off_c, 1, 48, 0
1, 441734, Note_on_c, 1, 42, 127
1, 441880, Note_off_c, 1, 42, 0
1, 441952, Note_on_c, 1, 41, 127
1, 442098, Note_off_c, 1, 41, 0
1, 442605, Note_on_c, 1, 52, 127
1, 442751, Note_off_c, 1, 52, 0
1, 443259, Note_on_c, 1, 46, 127
1, 443349, Note_on_c, 1, 50, 127
1, 443404, Note_on_c, 1, 53, 127
1, 443434, Note_off_c, 1, 50, 0
1, 443459, Note_on_c, 1, 58, 127
1, 443489, Note_off_c, 1, 53, 0
1, 443516, Note_on_c, 1, 62, 127
1, 443549, Note_off_c, 1, 58, 0
1, 443577, Note_on_c, 1, 65, 127
1, 443609, Note_off_c, 1, 62, 0
1, 443637, Note_on_c, 1, 70, 127
1, 443670, Note_off_c, 1, 65, 0
1, 443698, Note_on_c, 1, 74, 127
1, 443730, Note_off_c, 1, 70, 0
1, 443771, Note_on_c, 1, 77, 127
1, 443775, Note_off_c, 1, 46, 0
1, 443791, Note_off_c, 1, 74, 0
1, 443864, Note_off_c, 1, 77, 0
1, 443885, Note_on_c, 1, 82, 127
1, 446885, Note_off_c, 1, 82, 0
1, 446885, End_track
0, 0, End_of_file