0, 0, Header, 1, 1, 480
1, 0, Start_track
1, 0, Title_t, "Test"
1, 0, Tempo, 500000
1, 0, Instrument_name_t, "Church Organ"
1, 0, Note_on_c, 1, 74, 127
1, 48, Note_off_c, 1, 74, 0
1, 60, Note_on_c, 1, 65, 127
1, 60, Note_on_c, 1, 69, 127
1, 60, Note_on_c, 1, 62, 127
1, 60, Note_on_c, 1, 74, 127
1, 120, Note_on_c, 1, 57, 127
1, 144, Note_off_c, 1, 57, 0
1, 150, Note_on_c, 1, 55, 127
1, 174, Note_off_c, 1, 55, 0
1, 180, Note_on_c, 1, 53, 127
1, 204, Note_off_c, 1, 53, 0
1, 252, Note_off_c, 1, 65, 0
1, 252, Note_off_c, 1, 69, 0
1, 252, Note_off_c, 1, 62, 0
1, 300, Note_on_c, 1, 50, 127
1, 348, Note_off_c, 1, 74, 0
1, 360, Note_on_c, 1, 77, 127
1, 408, Note_off_c, 1, 77, 0
1, 420, Note_on_c, 1, 76, 127
1, 468, Note_off_c, 1, 76, 0
1, 540, Note_on_c, 1, 52, 127
1, 555, Note_on_c, 1, 73, 127
1, 570, Note_off_c, 1, 73, 0
1, 588, Note_off_c, 1, 52, 0
1, 780, Note_on_c, 1, 72, 127
1, 792, Note_off_c, 1, 72, 0
1, 795, Note_on_c, 1, 70, 127
1, 807, Note_off_c, 1, 70, 0
1, 840, Note_on_c, 1, 58, 127
1, 888, Note_off_c, 1, 58, 0
1, 1020, Note_on_c, 1, 81, 127
1, 1020, Note_on_c, 1, 54, 127
1, 1068, Note_off_c, 1, 54, 0
1, 1164, Note_off_c, 1, 81, 0
1, 1200, Note_on_c, 1, 75, 127
1, 1248, Note_off_c, 1, 75, 0
1, 1680, Note_on_c, 1, 67, 127
1, 1785, Note_on_c, 1, 79, 127
1, 1913, Note_off_c, 1, 79, 0
1, 2172, Note_off_c, 1, 67, 0
1, 2235, Note_on_c, 1, 61, 127
1, 2247, Note_off_c, 1, 61, 0
1, 2364, Note_off_c, 1, 50, 0
1, 2400, Note_on_c, 1, 67, 127
1, 2400, Note_on_c, 1, 61, 127
1, 2448, Note_off_c, 1, 67, 0
1, 2448, Note_off_c, 1, 61, 0
1, 2460, Note_on_c, 1, 65, 127
1, 2460, Note_on_c, 1, 62, 127
1, 2508, Note_off_c, 1, 65, 0
1, 2520, Note_on_c, 1, 69, 127
1, 2544, Note_off_c, 1, 69, 0
1, 2550, Note_on_c, 1, 67, 127
1, 2574, Note_off_c, 1, 67, 0
1, 2604, Note_off_c, 1, 62, 0
1, 2610, Note_on_c, 1, 67, 127
1, 2634, Note_off_c, 1, 67, 0
1, 2640, Note_on_c, 1, 69, 127
1, 2640, Note_on_c, 1, 60, 127
1, 2688, Note_off_c, 1, 69, 0
1, 2688, Note_off_c, 1, 60, 0
1, 2700, Note_on_c, 1, 62, 127
1, 2700, Note_on_c, 1, 58, 127
1, 2748, Note_off_c, 1, 58, 0
1, 2760, Note_on_c, 1, 57, 127
1, 2808, Note_off_c, 1, 57, 0
1, 2820, Note_on_c, 1, 55, 127
1, 2844, Note_off_c, 1, 62, 0
1, 2868, Note_off_c, 1, 55, 0
1, 2880, Note_on_c, 1, 70, 127
1, 2880, Note_on_c, 1, 53, 127
1, 2928, Note_off_c, 1, 70, 0
1, 2928, Note_off_c, 1, 53, 0
1, 2940, Note_on_c, 1, 60, 127
1, 2940, Note_on_c, 1, 52, 127
1, 2988, Note_off_c, 1, 52, 0
1, 3000, Note_on_c, 1, 64, 127
1, 3000, Note_on_c, 1, 55, 127
1, 3024, Note_off_c, 1, 55, 0
1, 3030, Note_on_c, 1, 53, 127
1, 3048, Note_off_c, 1, 64, 0
1, 3054, Note_off_c, 1, 53, 0
1, 3060, Note_on_c, 1, 67, 127
1, 3108, Note_off_c, 1, 67, 0
1, 3120, Note_on_c, 1, 70, 127
1, 3132, Note_off_c, 1, 60, 0
1, 3168, Note_off_c, 1, 70, 0
1, 3180, Note_on_c, 1, 64, 127
1, 3180, Note_on_c, 1, 48, 127
1, 3240, Note_on_c, 1, 70, 127
1, 3276, Note_off_c, 1, 48, 0
1, 3288, Note_off_c, 1, 70, 0
1, 3300, Note_on_c, 1, 69, 127
1, 3300, Note_on_c, 1, 60, 127
1, 3348, Note_off_c, 1, 69, 0
1, 3360, Note_on_c, 1, 67, 127
1, 3372, Note_off_c, 1, 64, 0
1, 3408, Note_off_c, 1, 67, 0
1, 3420, Note_on_c, 1, 65, 127
1, 3420, Note_on_c, 1, 53, 127
1, 3480, Note_on_c, 1, 72, 127
1, 3504, Note_off_c, 1, 72, 0
1, 3516, Note_off_c, 1, 60, 0
1, 3564, Note_off_c, 1, 53, 0
1, 3600, Note_on_c, 1, 52, 127
1, 3612, Note_off_c, 1, 65, 0
1, 3648, Note_off_c, 1, 52, 0
1, 3660, Note_on_c, 1, 65, 127
1, 3660, Note_on_c, 1, 50, 127
1, 3708, Note_off_c, 1, 50, 0
1, 3720, Note_on_c, 1, 48, 127
1, 3768, Note_off_c, 1, 48, 0
1, 3780, Note_on_c, 1, 46, 127
1, 3804, Note_off_c, 1, 65, 0
1, 3828, Note_off_c, 1, 46, 0
1, 3840, Note_on_c, 1, 77, 127
1, 3840, Note_on_c, 1, 45, 127
1, 3888, Note_off_c, 1, 77, 0
1, 3888, Note_off_c, 1, 45, 0
1, 3900, Note_on_c, 1, 67, 127
1, 3900, Note_on_c, 1, 46, 127
1, 3948, Note_off_c, 1, 46, 0
1, 3960, Note_on_c, 1, 70, 127
1, 3960, Note_on_c, 1, 50, 127
1, 3984, Note_off_c, 1, 50, 0
1, 3990, Note_on_c, 1, 48, 127
1, 4008, Note_off_c, 1, 70, 0
1, 4014, Note_off_c, 1, 48, 0
1, 4020, Note_on_c, 1, 74, 127
1, 4068, Note_off_c, 1, 74, 0
1, 4080, Note_on_c, 1, 77, 127
1, 4092, Note_off_c, 1, 67, 0
1, 4128, Note_off_c, 1, 77, 0
1, 4140, Note_on_c, 1, 70, 127
1, 4140, Note_on_c, 1, 43, 127
1, 4200, Note_on_c, 1, 77, 127
1, 4236, Note_off_c, 1, 43, 0
1, 4248, Note_off_c, 1, 77, 0
1, 4260, Note_on_c, 1, 76, 127
1, 4260, Note_on_c, 1, 55, 127
1, 4308, Note_off_c, 1, 76, 0
1, 4320, Note_on_c, 1, 74, 127
1, 4332, Note_off_c, 1, 70, 0
1, 4356, Note_off_c, 1, 55, 0
1, 4368, Note_off_c, 1, 74, 0
1, 4380, Note_on_c, 1, 73, 127
1, 4380, Note_on_c, 1, 57, 127
1, 4428, Note_off_c, 1, 73, 0
1, 4440, Note_on_c, 1, 71, 127
1, 4488, Note_off_c, 1, 71, 0
1, 4500, Note_on_c, 1, 69, 127
1, 4500, Note_on_c, 1, 61, 127
1, 4548, Note_off_c, 1, 69, 0
1, 4596, Note_off_c, 1, 61, 0
1, 4620, Note_on_c, 1, 72, 127
1, 4620, Note_on_c, 1, 65, 127
1, 4635, Note_off_c, 1, 72, 0
1, 4668, Note_off_c, 1, 57, 0
1, 4680, Note_on_c, 1, 60, 127
1, 4728, Note_off_c, 1, 60, 0
1, 4740, Note_on_c, 1, 59, 127
1, 4788, Note_off_c, 1, 59, 0
1, 4860, Note_on_c, 1, 56, 127
1, 4908, Note_off_c, 1, 56, 0
1, 4956, Note_off_c, 1, 65, 0
1, 4980, Note_on_c, 1, 74, 127
1, 4980, Note_on_c, 1, 59, 127
1, 5028, Note_off_c, 1, 59, 0
1, 5040, Note_on_c, 1, 52, 127
1, 5088, Note_off_c, 1, 52, 0
1, 5100, Note_on_c, 1, 70, 127
1, 5100, Note_on_c, 1, 64, 127
1, 5100, Note_on_c, 1, 55, 127
1, 5148, Note_off_c, 1, 74, 0
1, 5160, Note_on_c, 1, 77, 127
1, 5208, Note_off_c, 1, 77, 0
1, 5220, Note_on_c, 1, 76, 127
1, 5244, Note_off_c, 1, 70, 0
1, 5244, Note_off_c, 1, 64, 0
1, 5244, Note_off_c, 1, 55, 0
1, 5268, Note_off_c, 1, 76, 0
1, 5280, Note_on_c, 1, 74, 127
1, 5280, Note_on_c, 1, 55, 127
1, 5328, Note_off_c, 1, 74, 0
1, 5328, Note_off_c, 1, 55, 0
1, 5340, Note_on_c, 1, 73, 127
1, 5340, Note_on_c, 1, 69, 127
1, 5340, Note_on_c, 1, 67, 127
1, 5340, Note_on_c, 1, 64, 127
1, 5388, Note_off_c, 1, 73, 0
1, 5400, Note_on_c, 1, 74, 127
1, 5448, Note_off_c, 1, 74, 0
1, 5460, Note_on_c, 1, 76, 127
1, 5484, Note_off_c, 1, 69, 0
1, 5484, Note_off_c, 1, 67, 0
1, 5484, Note_off_c, 1, 64, 0
1, 5520, Note_on_c, 1, 58, 127
1, 5568, Note_off_c, 1, 58, 0
1, 5580, Note_on_c, 1, 57, 127
1, 5628, Note_off_c, 1, 76, 0
1, 5628, Note_off_c, 1, 57, 0
1, 5640, Note_on_c, 1, 76, 127
1, 5640, Note_on_c, 1, 55, 127
1, 5688, Note_off_c, 1, 76, 0
1, 5688, Note_off_c, 1, 55, 0
1, 5700, Note_on_c, 1, 74, 127
1, 5700, Note_on_c, 1, 53, 127
1, 5748, Note_off_c, 1, 74, 0
1, 5748, Note_off_c, 1, 53, 0
1, 5760, Note_on_c, 1, 73, 127
1, 5760, Note_on_c, 1, 52, 127
1, 5808, Note_off_c, 1, 73, 0
1, 5808, Note_off_c, 1, 52, 0
1, 5820, Note_on_c, 1, 74, 127
1, 5820, Note_on_c, 1, 69, 127
1, 5820, Note_on_c, 1, 53, 127
1, 5868, Note_off_c, 1, 74, 0
1, 5880, Note_on_c, 1, 76, 127
1, 5916, Note_off_c, 1, 53, 0
1, 5928, Note_off_c, 1, 76, 0
1, 5940, Note_on_c, 1, 77, 127
1, 5940, Note_on_c, 1, 52, 127
1, 5988, Note_off_c, 1, 52, 0
1, 6000, Note_on_c, 1, 50, 127
1, 6048, Note_off_c, 1, 50, 0
1, 6060, Note_on_c, 1, 62, 127
1, 6108, Note_off_c, 1, 77, 0
1, 6156, Note_off_c, 1, 69, 0
1, 6204, Note_off_c, 1, 62, 0
1, 6240, Note_on_c, 1, 74, 127
1, 6240, Note_on_c, 1, 62, 127
1, 6288, Note_off_c, 1, 74, 0
1, 6288, Note_off_c, 1, 62, 0
1, 6300, Note_on_c, 1, 83, 127
1, 6300, Note_on_c, 1, 64, 127
1, 6300, Note_on_c, 1, 56, 127
1, 6300, Note_on_c, 1, 59, 127
1, 6348, Note_off_c, 1, 83, 0
1, 6360, Note_on_c, 1, 76, 127
1, 6408, Note_off_c, 1, 76, 0
1, 6420, Note_on_c, 1, 77, 127
1, 6444, Note_off_c, 1, 64, 0
1, 6444, Note_off_c, 1, 56, 0
1, 6444, Note_off_c, 1, 59, 0
1, 6468, Note_off_c, 1, 77, 0
1, 6480, Note_on_c, 1, 74, 127
1, 6480, Note_on_c, 1, 57, 127
1, 6504, Note_off_c, 1, 57, 0
1, 6510, Note_on_c, 1, 59, 127
1, 6528, Note_off_c, 1, 74, 0
1, 6534, Note_off_c, 1, 59, 0
1, 6540, Note_on_c, 1, 74, 127
1, 6540, Note_on_c, 1, 69, 127
1, 6540, Note_on_c, 1, 50, 127
1, 6552, Note_off_c, 1, 74, 0
1, 6555, Note_on_c, 1, 72, 127
1, 6567, Note_off_c, 1, 72, 0
1, 6588, Note_off_c, 1, 50, 0
1, 6600, Note_on_c, 1, 53, 127
1, 6648, Note_off_c, 1, 53, 0
1, 6660, Note_on_c, 1, 52, 127
1, 6684, Note_off_c, 1, 69, 0
1, 6708, Note_off_c, 1, 52, 0
1, 6720, Note_on_c, 1, 68, 127
1, 6720, Note_on_c, 1, 71, 127
1, 6720, Note_on_c, 1, 50, 127
1, 6768, Note_off_c, 1, 68, 0
1, 6768, Note_off_c, 1, 71, 0
1, 6768, Note_off_c, 1, 50, 0
1, 6780, Note_on_c, 1, 69, 127
1, 6780, Note_on_c, 1, 76, 127
1, 6780, Note_on_c, 1, 49, 127
1, 6840, Note_on_c, 1, 50, 127
1, 6888, Note_off_c, 1, 50, 0
1, 6900, Note_on_c, 1, 52, 127
1, 6924, Note_off_c, 1, 69, 0
1, 6924, Note_off_c, 1, 76, 0
1, 6960, Note_on_c, 1, 70, 127
1, 7008, Note_off_c, 1, 70, 0
1, 7068, Note_off_c, 1, 49, 0
1, 7068, Note_off_c, 1, 52, 0
1, 7080, Note_on_c, 1, 67, 127
1, 7080, Note_on_c, 1, 52, 127
1, 7128, Note_off_c, 1, 67, 0
1, 7128, Note_off_c, 1, 52, 0
1, 7140, Note_on_c, 1, 65, 127
1, 7140, Note_on_c, 1, 50, 127
1, 7188, Note_off_c, 1, 65, 0
1, 7188, Note_off_c, 1, 50, 0
1, 7200, Note_on_c, 1, 64, 127
1, 7200, Note_on_c, 1, 49, 127
1, 7248, Note_off_c, 1, 64, 0
1, 7248, Note_off_c, 1, 49, 0
1, 7260, Note_on_c, 1, 65, 127
1, 7260, Note_on_c, 1, 50, 127
1, 7308, Note_off_c, 1, 50, 0
1, 7320, Note_on_c, 1, 52, 127
1, 7356, Note_off_c, 1, 65, 0
1, 7368, Note_off_c, 1, 52, 0
1, 7380, Note_on_c, 1, 64, 127
1, 7380, Note_on_c, 1, 53, 127
1, 7428, Note_off_c, 1, 64, 0
1, 7440, Note_on_c, 1, 62, 127
1, 7500, Note_on_c, 1, 74, 127
1, 7500, Note_on_c, 1, 65, 127
1, 7500, Note_on_c, 1, 69, 127
1, 7548, Note_off_c, 1, 53, 0
1, 7620, Note_on_c, 1, 52, 127
1, 7644, Note_off_c, 1, 74, 0
1, 7668, Note_off_c, 1, 52, 0
1, 7680, Note_on_c, 1, 50, 127
1, 7692, Note_off_c, 1, 62, 0
1, 7692, Note_off_c, 1, 65, 0
1, 7692, Note_off_c, 1, 69, 0
1, 7728, Note_off_c, 1, 50, 0
1, 7740, Note_on_c, 1, 68, 127
1, 7740, Note_on_c, 1, 62, 127
1, 7740, Note_on_c, 1, 59, 127
1, 7788, Note_off_c, 1, 59, 0
1, 7800, Note_on_c, 1, 52, 127
1, 7848, Note_off_c, 1, 52, 0
1, 7860, Note_on_c, 1, 53, 127
1, 7884, Note_off_c, 1, 68, 0
1, 7908, Note_off_c, 1, 53, 0
1, 7920, Note_on_c, 1, 69, 127
1, 7920, Note_on_c, 1, 50, 127
1, 7932, Note_off_c, 1, 62, 0
1, 7944, Note_off_c, 1, 69, 0
1, 7950, Note_on_c, 1, 71, 127
1, 7968, Note_off_c, 1, 50, 0
1, 7974, Note_off_c, 1, 71, 0
1, 7980, Note_on_c, 1, 62, 127
1, 7980, Note_on_c, 1, 57, 127
1, 7992, Note_off_c, 1, 57, 0
1, 7995, Note_on_c, 1, 56, 127
1, 8007, Note_off_c, 1, 56, 0
1, 8028, Note_off_c, 1, 62, 0
1, 8040, Note_on_c, 1, 65, 127
1, 8088, Note_off_c, 1, 65, 0
1, 8100, Note_on_c, 1, 64, 127
1, 8148, Note_off_c, 1, 64, 0
1, 8160, Note_on_c, 1, 62, 127
1, 8160, Note_on_c, 1, 56, 127
1, 8208, Note_off_c, 1, 62, 0
1, 8208, Note_off_c, 1, 56, 0
1, 8220, Note_on_c, 1, 62, 127
1, 8220, Note_on_c, 1, 57, 127
1, 8268, Note_off_c, 1, 62, 0
1, 8280, Note_on_c, 1, 59, 127
1, 8328, Note_off_c, 1, 59, 0
1, 8340, Note_on_c, 1, 60, 127
1, 8364, Note_off_c, 1, 57, 0
1, 8388, Note_off_c, 1, 60, 0
1, 8400, Note_on_c, 1, 64, 127
1, 8400, Note_on_c, 1, 55, 127
1, 8448, Note_off_c, 1, 64, 0
1, 8448, Note_off_c, 1, 55, 0
1, 8460, Note_on_c, 1, 64, 127
1, 8460, Note_on_c, 1, 67, 127
1, 8460, Note_on_c, 1, 61, 127
1, 8460, Note_on_c, 1, 53, 127
1, 8508, Note_off_c, 1, 53, 0
1, 8520, Note_on_c, 1, 52, 127
1, 8568, Note_off_c, 1, 52, 0
1, 8580, Note_on_c, 1, 50, 127
1, 8604, Note_off_c, 1, 67, 0
1, 8628, Note_off_c, 1, 50, 0
1, 8640, Note_on_c, 1, 49, 127
1, 8652, Note_off_c, 1, 64, 0
1, 8652, Note_off_c, 1, 61, 0
1, 8688, Note_off_c, 1, 49, 0
1, 8700, Note_on_c, 1, 62, 127
1, 8700, Note_on_c, 1, 67, 127
1, 8700, Note_on_c, 1, 57, 127
1, 8700, Note_on_c, 1, 50, 127
1, 8748, Note_off_c, 1, 62, 0
1, 8748, Note_off_c, 1, 67, 0
1, 8748, Note_off_c, 1, 57, 0
1, 8760, Note_on_c, 1, 64, 127
1, 8808, Note_off_c, 1, 64, 0
1, 8820, Note_on_c, 1, 65, 127
1, 8844, Note_off_c, 1, 50, 0
1, 8868, Note_off_c, 1, 65, 0
1, 8880, Note_on_c, 1, 69, 127
1, 8880, Note_on_c, 1, 52, 127
1, 8928, Note_off_c, 1, 69, 0
1, 8928, Note_off_c, 1, 52, 0
1, 8940, Note_on_c, 1, 71, 127
1, 8940, Note_on_c, 1, 50, 127
1, 8988, Note_off_c, 1, 71, 0
1, 8988, Note_off_c, 1, 50, 0
1, 9000, Note_on_c, 1, 72, 127
1, 9000, Note_on_c, 1, 48, 127
1, 9048, Note_off_c, 1, 72, 0
1, 9048, Note_off_c, 1, 48, 0
1, 9060, Note_on_c, 1, 74, 127
1, 9060, Note_on_c, 1, 47, 127
1, 9108, Note_off_c, 1, 74, 0
1, 9108, Note_off_c, 1, 47, 0
1, 9120, Note_on_c, 1, 74, 127
1, 9120, Note_on_c, 1, 45, 127
1, 9168, Note_off_c, 1, 74, 0
1, 9168, Note_off_c, 1, 45, 0
1, 9180, Note_on_c, 1, 74, 127
1, 9180, Note_on_c, 1, 52, 127
1, 9180, Note_on_c, 1, 47, 127
1, 9180, Note_on_c, 1, 44, 127
1, 9228, Note_off_c, 1, 74, 0
1, 9240, Note_on_c, 1, 71, 127
1, 9288, Note_off_c, 1, 71, 0
1, 9300, Note_on_c, 1, 68, 127
1, 9348, Note_off_c, 1, 68, 0
1, 9372, Note_off_c, 1, 52, 0
1, 9372, Note_off_c, 1, 47, 0
1, 9468, Note_off_c, 1, 44, 0
1, 9480, Note_on_c, 1, 76, 127
1, 9480, Note_on_c, 1, 45, 127
1, 9504, Note_off_c, 1, 76, 0
1, 9510, Note_on_c, 1, 77, 127
1, 9528, Note_off_c, 1, 45, 0
1, 9534, Note_off_c, 1, 77, 0
1, 9540, Note_on_c, 1, 76, 127
1, 9540, Note_on_c, 1, 47, 127
1, 9588, Note_off_c, 1, 76, 0
1, 9588, Note_off_c, 1, 47, 0
1, 9600, Note_on_c, 1, 74, 127
1, 9600, Note_on_c, 1, 48, 127
1, 9648, Note_off_c, 1, 74, 0
1, 9648, Note_off_c, 1, 48, 0
1, 9660, Note_on_c, 1, 81, 127
1, 9660, Note_on_c, 1, 76, 127
1, 9660, Note_on_c, 1, 50, 127
1, 9672, Note_off_c, 1, 81, 0
1, 9675, Note_on_c, 1, 80, 127
1, 9687, Note_off_c, 1, 80, 0
1, 9708, Note_off_c, 1, 50, 0
1, 9720, Note_on_c, 1, 52, 127
1, 9744, Note_off_c, 1, 52, 0
1, 9750, Note_on_c, 1, 53, 127
1, 9774, Note_off_c, 1, 53, 0
1, 9840, Note_on_c, 1, 78, 127
1, 9852, Note_off_c, 1, 76, 0
1, 9864, Note_off_c, 1, 78, 0
1, 9900, Note_on_c, 1, 81, 127
1, 9900, Note_on_c, 1, 48, 127
1, 9948, Note_off_c, 1, 81, 0
1, 9948, Note_off_c, 1, 48, 0
1, 9960, Note_on_c, 1, 83, 127
1, 9960, Note_on_c, 1, 47, 127
1, 9984, Note_off_c, 1, 83, 0
1, 9990, Note_on_c, 1, 84, 127
1, 10008, Note_off_c, 1, 47, 0
1, 10014, Note_off_c, 1, 84, 0
1, 10020, Note_on_c, 1, 83, 127
1, 10020, Note_on_c, 1, 45, 127
1, 10068, Note_off_c, 1, 83, 0
1, 10068, Note_off_c, 1, 45, 0
1, 10080, Note_on_c, 1, 74, 127
1, 10080, Note_on_c, 1, 71, 127
1, 10080, Note_on_c, 1, 44, 127
1, 10128, Note_off_c, 1, 74, 0
1, 10128, Note_off_c, 1, 71, 0
1, 10128, Note_off_c, 1, 44, 0
1, 10140, Note_on_c, 1, 74, 127
1, 10140, Note_on_c, 1, 71, 127
1, 10140, Note_on_c, 1, 45, 127
1, 10152, Note_off_c, 1, 74, 0
1, 10155, Note_on_c, 1, 72, 127
1, 10167, Note_off_c, 1, 72, 0
1, 10236, Note_off_c, 1, 71, 0
1, 10236, Note_off_c, 1, 45, 0
1, 10260, Note_on_c, 1, 69, 127
1, 10260, Note_on_c, 1, 50, 127
1, 10356, Note_off_c, 1, 50, 0
1, 10380, Note_on_c, 1, 52, 127
1, 10476, Note_off_c, 1, 69, 0
1, 10500, Note_on_c, 1, 68, 127
1, 10500, Note_on_c, 1, 40, 127
1, 10572, Note_off_c, 1, 52, 0
1, 10596, Note_off_c, 1, 68, 0
1, 10596, Note_off_c, 1, 40, 0
1, 10620, Note_on_c, 1, 69, 127
1, 10620, Note_on_c, 1, 45, 127
1, 10680, Note_on_c, 1, 52, 127
1, 10704, Note_off_c, 1, 52, 0
1, 10710, Note_on_c, 1, 50, 127
1, 10734, Note_off_c, 1, 50, 0
1, 10740, Note_on_c, 1, 49, 127
1, 10764, Note_off_c, 1, 49, 0
1, 10812, Note_off_c, 1, 69, 0
1, 10860, Note_on_c, 1, 53, 127
1, 10920, Note_on_c, 1, 59, 127
1, 10968, Note_off_c, 1, 59, 0
1, 10980, Note_on_c, 1, 62, 127
1, 11028, Note_off_c, 1, 62, 0
1, 11040, Note_on_c, 1, 68, 127
1, 11052, Note_off_c, 1, 53, 0
1, 11088, Note_off_c, 1, 68, 0
1, 11100, Note_on_c, 1, 61, 127
1, 11100, Note_on_c, 1, 64, 127
1, 11388, Note_off_c, 1, 45, 0
1, 11388, Note_off_c, 1, 61, 0
1, 11388, Note_off_c, 1, 64, 0
1, 11580, Note_on_c, 1, 74, 127
1, 11628, Note_off_c, 1, 74, 0
1, 11640, Note_on_c, 1, 65, 127
1, 11640, Note_on_c, 1, 69, 127
1, 11640, Note_on_c, 1, 62, 127
1, 11640, Note_on_c, 1, 74, 127
1, 11700, Note_on_c, 1, 57, 127
1, 11724, Note_off_c, 1, 57, 0
1, 11730, Note_on_c, 1, 55, 127
1, 11754, Note_off_c, 1, 55, 0
1, 11760, Note_on_c, 1, 53, 127
1, 11784, Note_off_c, 1, 53, 0
1, 11832, Note_off_c, 1, 65, 0
1, 11832, Note_off_c, 1, 69, 0
1, 11832, Note_off_c, 1, 62, 0
1, 11880, Note_on_c, 1, 50, 127
1, 11928, Note_off_c, 1, 74, 0
1, 11940, Note_on_c, 1, 77, 127
1, 11988, Note_off_c, 1, 77, 0
1, 12000, Note_on_c, 1, 76, 127
1, 12048, Note_off_c, 1, 76, 0
1, 12120, Note_on_c, 1, 52, 127
1, 12135, Note_on_c, 1, 73, 127
1, 12150, Note_off_c, 1, 73, 0
1, 12168, Note_off_c, 1, 52, 0
1, 12360, Note_on_c, 1, 72, 127
1, 12372, Note_off_c, 1, 72, 0
1, 12375, Note_on_c, 1, 70, 127
1, 12387, Note_off_c, 1, 70, 0
1, 12420, Note_on_c, 1, 58, 127
1, 12468, Note_off_c, 1, 58, 0
1, 12600, Note_on_c, 1, 81, 127
1, 12600, Note_on_c, 1, 54, 127
1, 12648, Note_off_c, 1, 54, 0
1, 12744, Note_off_c, 1, 81, 0
1, 12780, Note_on_c, 1, 75, 127
1, 12828, Note_off_c, 1, 75, 0
1, 13260, Note_on_c, 1, 67, 127
1, 13365, Note_on_c, 1, 79, 127
1, 13493, Note_off_c, 1, 79, 0
1, 13752, Note_off_c, 1, 67, 0
1, 13815, Note_on_c, 1, 61, 127
1, 13827, Note_off_c, 1, 61, 0
1, 13944, Note_off_c, 1, 50, 0
1, 13980, Note_on_c, 1, 67, 127
1, 13980, Note_on_c, 1, 61, 127
1, 14028, Note_off_c, 1, 67, 0
1, 14028, Note_off_c, 1, 61, 0
1, 14040, Note_on_c, 1, 65, 127
1, 14040, Note_on_c, 1, 62, 127
1, 14088, Note_off_c, 1, 65, 0
1, 14100, Note_on_c, 1, 69, 127
1, 14124, Note_off_c, 1, 69, 0
1, 14130, Note_on_c, 1, 67, 127
1, 14154, Note_off_c, 1, 67, 0
1, 14184, Note_off_c, 1, 62, 0
1, 14190, Note_on_c, 1, 67, 127
1, 14214, Note_off_c, 1, 67, 0
1, 14220, Note_on_c, 1, 69, 127
1, 14220, Note_on_c, 1, 60, 127
1, 14268, Note_off_c, 1, 69, 0
1, 14268, Note_off_c, 1, 60, 0
1, 14280, Note_on_c, 1, 62, 127
1, 14280, Note_on_c, 1, 58, 127
1, 14328, Note_off_c, 1, 58, 0
1, 14340, Note_on_c, 1, 57, 127
1, 14388, Note_off_c, 1, 57, 0
1, 14400, Note_on_c, 1, 55, 127
1, 14424, Note_off_c, 1, 62, 0
1, 14448, Note_off_c, 1, 55, 0
1, 14460, Note_on_c, 1, 70, 127
1, 14460, Note_on_c, 1, 53, 127
1, 14508, Note_off_c, 1, 70, 0
1, 14508, Note_off_c, 1, 53, 0
1, 14520, Note_on_c, 1, 60, 127
1, 14520, Note_on_c, 1, 52, 127
1, 14568, Note_off_c, 1, 52, 0
1, 14580, Note_on_c, 1, 64, 127
1, 14580, Note_on_c, 1, 55, 127
1, 14604, Note_off_c, 1, 55, 0
1, 14610, Note_on_c, 1, 53, 127
1, 14628, Note_off_c, 1, 64, 0
1, 14634, Note_off_c, 1, 53, 0
1, 14640, Note_on_c, 1, 67, 127
1, 14688, Note_off_c, 1, 67, 0
1, 14700, Note_on_c, 1, 70, 127
1, 14712, Note_off_c, 1, 60, 0
1, 14748, Note_off_c, 1, 70, 0
1, 14760, Note_on_c, 1, 64, 127
1, 14760, Note_on_c, 1, 48, 127
1, 14820, Note_on_c, 1, 70, 127
1, 14856, Note_off_c, 1, 48, 0
1, 14868, Note_off_c, 1, 70, 0
1, 14880, Note_on_c, 1, 69, 127
1, 14880, Note_on_c, 1, 60, 127
1, 14928, Note_off_c, 1, 69, 0
1, 14940, Note_on_c, 1, 67, 127
1, 14952, Note_off_c, 1, 64, 0
1, 14988, Note_off_c, 1, 67, 0
1, 15000, Note_on_c, 1, 65, 127
1, 15000, Note_on_c, 1, 53, 127
1, 15060, Note_on_c, 1, 72, 127
1, 15084, Note_off_c, 1, 72, 0
1, 15096, Note_off_c, 1, 60, 0
1, 15144, Note_off_c, 1, 53, 0
1, 15180, Note_on_c, 1, 52, 127
1, 15192, Note_off_c, 1, 65, 0
1, 15228, Note_off_c, 1, 52, 0
1, 15240, Note_on_c, 1, 65, 127
1, 15240, Note_on_c, 1, 50, 127
1, 15288, Note_off_c, 1, 50, 0
1, 15300, Note_on_c, 1, 48, 127
1, 15348, Note_off_c, 1, 48, 0
1, 15360, Note_on_c, 1, 46, 127
1, 15384, Note_off_c, 1, 65, 0
1, 15408, Note_off_c, 1, 46, 0
1, 15420, Note_on_c, 1, 77, 127
1, 15420, Note_on_c, 1, 45, 127
1, 15468, Note_off_c, 1, 77, 0
1, 15468, Note_off_c, 1, 45, 0
1, 15480, Note_on_c, 1, 67, 127
1, 15480, Note_on_c, 1, 46, 127
1, 15528, Note_off_c, 1, 46, 0
1, 15540, Note_on_c, 1, 70, 127
1, 15540, Note_on_c, 1, 50, 127
1, 15564, Note_off_c, 1, 50, 0
1, 15570, Note_on_c, 1, 48, 127
1, 15588, Note_off_c, 1, 70, 0
1, 15594, Note_off_c, 1, 48, 0
1, 15600, Note_on_c, 1, 74, 127
1, 15648, Note_off_c, 1, 74, 0
1, 15660, Note_on_c, 1, 77, 127
1, 15672, Note_off_c, 1, 67, 0
1, 15708, Note_off_c, 1, 77, 0
1, 15720, Note_on_c, 1, 70, 127
1, 15720, Note_on_c, 1, 43, 127
1, 15780, Note_on_c, 1, 77, 127
1, 15816, Note_off_c, 1, 43, 0
1, 15828, Note_off_c, 1, 77, 0
1, 15840, Note_on_c, 1, 76, 127
1, 15840, Note_on_c, 1, 55, 127
1, 15888, Note_off_c, 1, 76, 0
1, 15900, Note_on_c, 1, 74, 127
1, 15912, Note_off_c, 1, 70, 0
1, 15936, Note_off_c, 1, 55, 0
1, 15948, Note_off_c, 1, 74, 0
1, 15960, Note_on_c, 1, 73, 127
1, 15960, Note_on_c, 1, 57, 127
1, 16008, Note_off_c, 1, 73, 0
1, 16020, Note_on_c, 1, 71, 127
1, 16068, Note_off_c, 1, 71, 0
1, 16080, Note_on_c, 1, 69, 127
1, 16080, Note_on_c, 1, 61, 127
1, 16128, Note_off_c, 1, 69, 0
1, 16176, Note_off_c, 1, 61, 0
1, 16200, Note_on_c, 1, 72, 127
1, 16200, Note_on_c, 1, 65, 127
1, 16215, Note_off_c, 1, 72, 0
1, 16248, Note_off_c, 1, 57, 0
1, 16260, Note_on_c, 1, 60, 127
1, 16308, Note_off_c, 1, 60, 0
1, 16320, Note_on_c, 1, 59, 127
1, 16368, Note_off_c, 1, 59, 0
1, 16440, Note_on_c, 1, 56, 127
1, 16488, Note_off_c, 1, 56, 0
1, 16536, Note_off_c, 1, 65, 0
1, 16560, Note_on_c, 1, 74, 127
1, 16560, Note_on_c, 1, 59, 127
1, 16608, Note_off_c, 1, 59, 0
1, 16620, Note_on_c, 1, 52, 127
1, 16668, Note_off_c, 1, 52, 0
1, 16680, Note_on_c, 1, 70, 127
1, 16680, Note_on_c, 1, 64, 127
1, 16680, Note_on_c, 1, 55, 127
1, 16728, Note_off_c, 1, 74, 0
1, 16740, Note_on_c, 1, 77, 127
1, 16788, Note_off_c, 1, 77, 0
1, 16800, Note_on_c, 1, 76, 127
1, 16824, Note_off_c, 1, 70, 0
1, 16824, Note_off_c, 1, 64, 0
1, 16824, Note_off_c, 1, 55, 0
1, 16848, Note_off_c, 1, 76, 0
1, 16860, Note_on_c, 1, 74, 127
1, 16860, Note_on_c, 1, 55, 127
1, 16908, Note_off_c, 1, 74, 0
1, 16908, Note_off_c, 1, 55, 0
1, 16920, Note_on_c, 1, 73, 127
1, 16920, Note_on_c, 1, 69, 127
1, 16920, Note_on_c, 1, 67, 127
1, 16920, Note_on_c, 1, 64, 127
1, 16968, Note_off_c, 1, 73, 0
1, 16980, Note_on_c, 1, 74, 127
1, 17028, Note_off_c, 1, 74, 0
1, 17040, Note_on_c, 1, 76, 127
1, 17064, Note_off_c, 1, 69, 0
1, 17064, Note_off_c, 1, 67, 0
1, 17064, Note_off_c, 1, 64, 0
1, 17100, Note_on_c, 1, 58, 127
1, 17148, Note_off_c, 1, 58, 0
1, 17160, Note_on_c, 1, 57, 127
1, 17208, Note_off_c, 1, 76, 0
1, 17208, Note_off_c, 1, 57, 0
1, 17220, Note_on_c, 1, 76, 127
1, 17220, Note_on_c, 1, 55, 127
1, 17268, Note_off_c, 1, 76, 0
1, 17268, Note_off_c, 1, 55, 0
1, 17280, Note_on_c, 1, 74, 127
1, 17280, Note_on_c, 1, 53, 127
1, 17328, Note_off_c, 1, 74, 0
1, 17328, Note_off_c, 1, 53, 0
1, 17340, Note_on_c, 1, 73, 127
1, 17340, Note_on_c, 1, 52, 127
1, 17388, Note_off_c, 1, 73, 0
1, 17388, Note_off_c, 1, 52, 0
1, 17400, Note_on_c, 1, 74, 127
1, 17400, Note_on_c, 1, 69, 127
1, 17400, Note_on_c, 1, 53, 127
1, 17448, Note_off_c, 1, 74, 0
1, 17460, Note_on_c, 1, 76, 127
1, 17496, Note_off_c, 1, 53, 0
1, 17508, Note_off_c, 1, 76, 0
1, 17520, Note_on_c, 1, 77, 127
1, 17520, Note_on_c, 1, 52, 127
1, 17568, Note_off_c, 1, 52, 0
1, 17580, Note_on_c, 1, 50, 127
1, 17628, Note_off_c, 1, 50, 0
1, 17640, Note_on_c, 1, 62, 127
1, 17688, Note_off_c, 1, 77, 0
1, 17736, Note_off_c, 1, 69, 0
1, 17784, Note_off_c, 1, 62, 0
1, 17820, Note_on_c, 1, 74, 127
1, 17820, Note_on_c, 1, 62, 127
1, 17868, Note_off_c, 1, 74, 0
1, 17868, Note_off_c, 1, 62, 0
1, 17880, Note_on_c, 1, 83, 127
1, 17880, Note_on_c, 1, 64, 127
1, 17880, Note_on_c, 1, 56, 127
1, 17880, Note_on_c, 1, 59, 127
1, 17928, Note_off_c, 1, 83, 0
1, 17940, Note_on_c, 1, 76, 127
1, 17988, Note_off_c, 1, 76, 0
1, 18000, Note_on_c, 1, 77, 127
1, 18024, Note_off_c, 1, 64, 0
1, 18024, Note_off_c, 1, 56, 0
1, 18024, Note_off_c, 1, 59, 0
1, 18048, Note_off_c, 1, 77, 0
1, 18060, Note_on_c, 1, 74, 127
1, 18060, Note_on_c, 1, 57, 127
1, 18084, Note_off_c, 1, 57, 0
1, 18090, Note_on_c, 1, 59, 127
1, 18108, Note_off_c, 1, 74, 0
1, 18114, Note_off_c, 1, 59, 0
1, 18120, Note_on_c, 1, 74, 127
1, 18120, Note_on_c, 1, 69, 127
1, 18120, Note_on_c, 1, 50, 127
1, 18132, Note_off_c, 1, 74, 0
1, 18135, Note_on_c, 1, 72, 127
1, 18147, Note_off_c, 1, 72, 0
1, 18168, Note_off_c, 1, 50, 0
1, 18180, Note_on_c, 1, 53, 127
1, 18228, Note_off_c, 1, 53, 0
1, 18240, Note_on_c, 1, 52, 127
1, 18264, Note_off_c, 1, 69, 0
1, 18288, Note_off_c, 1, 52, 0
1, 18300, Note_on_c, 1, 68, 127
1, 18300, Note_on_c, 1, 71, 127
1, 18300, Note_on_c, 1, 50, 127
1, 18348, Note_off_c, 1, 68, 0
1, 18348, Note_off_c, 1, 71, 0
1, 18348, Note_off_c, 1, 50, 0
1, 18360, Note_on_c, 1, 69, 127
1, 18360, Note_on_c, 1, 76, 127
1, 18360, Note_on_c, 1, 49, 127
1, 18420, Note_on_c, 1, 50, 127
1, 18468, Note_off_c, 1, 50, 0
1, 18480, Note_on_c, 1, 52, 127
1, 18504, Note_off_c, 1, 69, 0
1, 18504, Note_off_c, 1, 76, 0
1, 18540, Note_on_c, 1, 70, 127
1, 18588, Note_off_c, 1, 70, 0
1, 18648, Note_off_c, 1, 49, 0
1, 18648, Note_off_c, 1, 52, 0
1, 18660, Note_on_c, 1, 67, 127
1, 18660, Note_on_c, 1, 52, 127
1, 18708, Note_off_c, 1, 67, 0
1, 18708, Note_off_c, 1, 52, 0
1, 18720, Note_on_c, 1, 65, 127
1, 18720, Note_on_c, 1, 50, 127
1, 18768, Note_off_c, 1, 65, 0
1, 18768, Note_off_c, 1, 50, 0
1, 18780, Note_on_c, 1, 64, 127
1, 18780, Note_on_c, 1, 49, 127
1, 18828, Note_off_c, 1, 64, 0
1, 18828, Note_off_c, 1, 49, 0
1, 18840, Note_on_c, 1, 65, 127
1, 18840, Note_on_c, 1, 50, 127
1, 18888, Note_off_c, 1, 50, 0
1, 18900, Note_on_c, 1, 52, 127
1, 18936, Note_off_c, 1, 65, 0
1, 18948, Note_off_c, 1, 52, 0
1, 18960, Note_on_c, 1, 64, 127
1, 18960, Note_on_c, 1, 53, 127
1, 19008, Note_off_c, 1, 64, 0
1, 19020, Note_on_c, 1, 62, 127
1, 19080, Note_on_c, 1, 74, 127
1, 19080, Note_on_c, 1, 65, 127
1, 19080, Note_on_c, 1, 69, 127
1, 19128, Note_off_c, 1, 53, 0
1, 19200, Note_on_c, 1, 52, 127
1, 19224, Note_off_c, 1, 74, 0
1, 19248, Note_off_c, 1, 52, 0
1, 19260, Note_on_c, 1, 50, 127
1, 19272, Note_off_c, 1, 62, 0
1, 19272, Note_off_c, 1, 65, 0
1, 19272, Note_off_c, 1, 69, 0
1, 19308, Note_off_c, 1, 50, 0
1, 19320, Note_on_c, 1, 68, 127
1, 19320, Note_on_c, 1, 62, 127
1, 19320, Note_on_c, 1, 59, 127
1, 19368, Note_off_c, 1, 59, 0
1, 19380, Note_on_c, 1, 52, 127
1, 19428, Note_off_c, 1, 52, 0
1, 19440, Note_on_c, 1, 53, 127
1, 19464, Note_off_c, 1, 68, 0
1, 19488, Note_off_c, 1, 53, 0
1, 19500, Note_on_c, 1, 69, 127
1, 19500, Note_on_c, 1, 50, 127
1, 19512, Note_off_c, 1, 62, 0
1, 19524, Note_off_c, 1, 69, 0
1, 19530, Note_on_c, 1, 71, 127
1, 19548, Note_off_c, 1, 50, 0
1, 19554, Note_off_c, 1, 71, 0
1, 19560, Note_on_c, 1, 62, 127
1, 19560, Note_on_c, 1, 57, 127
1, 19572, Note_off_c, 1, 57, 0
1, 19575, Note_on_c, 1, 56, 127
1, 19587, Note_off_c, 1, 56, 0
1, 19608, Note_off_c, 1, 62, 0
1, 19620, Note_on_c, 1, 65, 127
1, 19668, Note_off_c, 1, 65, 0
1, 19680, Note_on_c, 1, 64, 127
1, 19728, Note_off_c, 1, 64, 0
1, 19740, Note_on_c, 1, 62, 127
1, 19740, Note_on_c, 1, 56, 127
1, 19788, Note_off_c, 1, 62, 0
1, 19788, Note_off_c, 1, 56, 0
1, 19800, Note_on_c, 1, 62, 127
1, 19800, Note_on_c, 1, 57, 127
1, 19848, Note_off_c, 1, 62, 0
1, 19860, Note_on_c, 1, 59, 127
1, 19908, Note_off_c, 1, 59, 0
1, 19920, Note_on_c, 1, 60, 127
1, 19944, Note_off_c, 1, 57, 0
1, 19968, Note_off_c, 1, 60, 0
1, 19980, Note_on_c, 1, 64, 127
1, 19980, Note_on_c, 1, 55, 127
1, 20028, Note_off_c, 1, 64, 0
1, 20028, Note_off_c, 1, 55, 0
1, 20040, Note_on_c, 1, 64, 127
1, 20040, Note_on_c, 1, 67, 127
1, 20040, Note_on_c, 1, 61, 127
1, 20040, Note_on_c, 1, 53, 127
1, 20088, Note_off_c, 1, 53, 0
1, 20100, Note_on_c, 1, 52, 127
1, 20148, Note_off_c, 1, 52, 0
1, 20160, Note_on_c, 1, 50, 127
1, 20184, Note_off_c, 1, 67, 0
1, 20208, Note_off_c, 1, 50, 0
1, 20220, Note_on_c, 1, 49, 127
1, 20232, Note_off_c, 1, 64, 0
1, 20232, Note_off_c, 1, 61, 0
1, 20268, Note_off_c, 1, 49, 0
1, 20280, Note_on_c, 1, 62, 127
1, 20280, Note_on_c, 1, 67, 127
1, 20280, Note_on_c, 1, 57, 127
1, 20280, Note_on_c, 1, 50, 127
1, 20328, Note_off_c, 1, 62, 0
1, 20328, Note_off_c, 1, 67, 0
1, 20328, Note_off_c, 1, 57, 0
1, 20340, Note_on_c, 1, 64, 127
1, 20388, Note_off_c, 1, 64, 0
1, 20400, Note_on_c, 1, 65, 127
1, 20424, Note_off_c, 1, 50, 0
1, 20448, Note_off_c, 1, 65, 0
1, 20460, Note_on_c, 1, 69, 127
1, 20460, Note_on_c, 1, 52, 127
1, 20508, Note_off_c, 1, 69, 0
1, 20508, Note_off_c, 1, 52, 0
1, 20520, Note_on_c, 1, 71, 127
1, 20520, Note_on_c, 1, 50, 127
1, 20568, Note_off_c, 1, 71, 0
1, 20568, Note_off_c, 1, 50, 0
1, 20580, Note_on_c, 1, 72, 127
1, 20580, Note_on_c, 1, 48, 127
1, 20628, Note_off_c, 1, 72, 0
1, 20628, Note_off_c, 1, 48, 0
1, 20640, Note_on_c, 1, 74, 127
1, 20640, Note_on_c, 1, 47, 127
1, 20688, Note_off_c, 1, 74, 0
1, 20688, Note_off_c, 1, 47, 0
1, 20700, Note_on_c, 1, 74, 127
1, 20700, Note_on_c, 1, 45, 127
1, 20748, Note_off_c, 1, 74, 0
1, 20748, Note_off_c, 1, 45, 0
1, 20760, Note_on_c, 1, 74, 127
1, 20760, Note_on_c, 1, 52, 127
1, 20760, Note_on_c, 1, 47, 127
1, 20760, Note_on_c, 1, 44, 127
1, 20808, Note_off_c, 1, 74, 0
1, 20820, Note_on_c, 1, 71, 127
1, 20868, Note_off_c, 1, 71, 0
1, 20880, Note_on_c, 1, 68, 127
1, 20928, Note_off_c, 1, 68, 0
1, 20952, Note_off_c, 1, 52, 0
1, 20952, Note_off_c, 1, 47, 0
1, 21048, Note_off_c, 1, 44, 0
1, 21060, Note_on_c, 1, 76, 127
1, 21060, Note_on_c, 1, 45, 127
1, 21084, Note_off_c, 1, 76, 0
1, 21090, Note_on_c, 1, 77, 127
1, 21108, Note_off_c, 1, 45, 0
1, 21114, Note_off_c, 1, 77, 0
1, 21120, Note_on_c, 1, 76, 127
1, 21120, Note_on_c, 1, 47, 127
1, 21168, Note_off_c, 1, 76, 0
1, 21168, Note_off_c, 1, 47, 0
1, 21180, Note_on_c, 1, 74, 127
1, 21180, Note_on_c, 1, 48, 127
1, 21228, Note_off_c, 1, 74, 0
1, 21228, Note_off_c, 1, 48, 0
1, 21240, Note_on_c, 1, 81, 127
1, 21240, Note_on_c, 1, 76, 127
1, 21240, Note_on_c, 1, 50, 127
1, 21252, Note_off_c, 1, 81, 0
1, 21255, Note_on_c, 1, 80, 127
1, 21267, Note_off_c, 1, 80, 0
1, 21288, Note_off_c, 1, 50, 0
1, 21300, Note_on_c, 1, 52, 127
1, 21324, Note_off_c, 1, 52, 0
1, 21330, Note_on_c, 1, 53, 127
1, 21354, Note_off_c, 1, 53, 0
1, 21420, Note_on_c, 1, 78, 127
1, 21432, Note_off_c, 1, 76, 0
1, 21444, Note_off_c, 1, 78, 0
1, 21480, Note_on_c, 1, 81, 127
1, 21480, Note_on_c, 1, 48, 127
1, 21528, Note_off_c, 1, 81, 0
1, 21528, Note_off_c, 1, 48, 0
1, 21540, Note_on_c, 1, 83, 127
1, 21540, Note_on_c, 1, 47, 127
1, 21564, Note_off_c, 1, 83, 0
1, 21570, Note_on_c, 1, 84, 127
1, 21588, Note_off_c, 1, 47, 0
1, 21594, Note_off_c, 1, 84, 0
1, 21600, Note_on_c, 1, 83, 127
1, 21600, Note_on_c, 1, 45, 127
1, 21648, Note_off_c, 1, 83, 0
1, 21648, Note_off_c, 1, 45, 0
1, 21660, Note_on_c, 1, 74, 127
1, 21660, Note_on_c, 1, 71, 127
1, 21660, Note_on_c, 1, 44, 127
1, 21708, Note_off_c, 1, 74, 0
1, 21708, Note_off_c, 1, 71, 0
1, 21708, Note_off_c, 1, 44, 0
1, 21720, Note_on_c, 1, 74, 127
1, 21720, Note_on_c, 1, 71, 127
1, 21720, Note_on_c, 1, 45, 127
1, 21732, Note_off_c, 1, 74, 0
1, 21735, Note_on_c, 1, 72, 127
1, 21747, Note_off_c, 1, 72, 0
1, 21816, Note_off_c, 1, 71, 0
1, 21816, Note_off_c, 1, 45, 0
1, 21840, Note_on_c, 1, 69, 127
1, 21840, Note_on_c, 1, 50, 127
1, 21936, Note_off_c, 1, 50, 0
1, 21960, Note_on_c, 1, 52, 127
1, 22056, Note_off_c, 1, 69, 0
1, 22080, Note_on_c, 1, 68, 127
1, 22080, Note_on_c, 1, 40, 127
1, 22152, Note_off_c, 1, 52, 0
1, 22176, Note_off_c, 1, 68, 0
1, 22176, Note_off_c, 1, 40, 0
1, 22200, Note_on_c, 1, 69, 127
1, 22200, Note_on_c, 1, 45, 127
1, 22260, Note_on_c, 1, 52, 127
1, 22284, Note_off_c, 1, 52, 0
1, 22290, Note_on_c, 1, 50, 127
1, 22314, Note_off_c, 1, 50, 0
1, 22320, Note_on_c, 1, 49, 127
1, 22344, Note_off_c, 1, 49, 0
1, 22392, Note_off_c, 1, 69, 0
1, 22440, Note_on_c, 1, 53, 127
1, 22500, Note_on_c, 1, 59, 127
1, 22548, Note_off_c, 1, 59, 0
1, 22560, Note_on_c, 1, 62, 127
1, 22608, Note_off_c, 1, 62, 0
1, 22620, Note_on_c, 1, 68, 127
1, 22632, Note_off_c, 1, 53, 0
1, 22668, Note_off_c, 1, 68, 0
1, 22680, Note_on_c, 1, 61, 127
1, 22680, Note_on_c, 1, 64, 127
1, 22968, Note_off_c, 1, 45, 0
1, 22968, Note_off_c, 1, 61, 0
1, 22968, Note_off_c, 1, 64, 0
1, 23160, Note_on_c, 1, 76, 127
1, 23160, Note_on_c, 1, 57, 127
1, 23208, Note_off_c, 1, 76, 0
1, 23208, Note_off_c, 1, 57, 0
1, 23220, Note_on_c, 1, 73, 127
1, 23220, Note_on_c, 1, 69, 127
1, 23220, Note_on_c, 1, 76, 127
1, 23220, Note_on_c, 1, 57, 127
1, 23268, Note_off_c, 1, 73, 0
1, 23268, Note_off_c, 1, 69, 0
1, 23268, Note_off_c, 1, 76, 0
1, 23280, Note_on_c, 1, 79, 127
1, 23304, Note_off_c, 1, 79, 0
1, 23310, Note_on_c, 1, 77, 127
1, 23334, Note_off_c, 1, 77, 0
1, 23508, Note_off_c, 1, 57, 0
1, 23520, Note_on_c, 1, 76, 127
1, 23520, Note_on_c, 1, 56, 127
1, 23544, Note_off_c, 1, 76, 0
1, 23550, Note_on_c, 1, 74, 127
1, 23568, Note_off_c, 1, 56, 0
1, 23574, Note_off_c, 1, 74, 0
1, 23580, Note_on_c, 1, 73, 127
1, 23580, Note_on_c, 1, 57, 127
1, 23604, Note_off_c, 1, 73, 0
1, 23610, Note_on_c, 1, 74, 127
1, 23628, Note_off_c, 1, 57, 0
1, 23634, Note_off_c, 1, 74, 0
1, 23640, Note_on_c, 1, 76, 127
1, 23640, Note_on_c, 1, 59, 127
1, 23688, Note_off_c, 1, 76, 0
1, 23688, Note_off_c, 1, 59, 0
1, 23700, Note_on_c, 1, 69, 127
1, 23700, Note_on_c, 1, 61, 127
1, 23748, Note_off_c, 1, 61, 0
1, 23760, Note_on_c, 1, 59, 127
1, 23808, Note_off_c, 1, 59, 0
1, 23820, Note_on_c, 1, 57, 127
1, 23844, Note_off_c, 1, 69, 0
1, 23868, Note_off_c, 1, 57, 0
1, 23880, Note_on_c, 1, 71, 127
1, 23880, Note_on_c, 1, 64, 127
1, 23928, Note_off_c, 1, 71, 0
1, 23928, Note_off_c, 1, 64, 0
1, 23940, Note_on_c, 1, 73, 127
1, 23940, Note_on_c, 1, 58, 127
1, 23988, Note_off_c, 1, 73, 0
1, 24000, Note_on_c, 1, 74, 127
1, 24048, Note_off_c, 1, 74, 0
1, 24060, Note_on_c, 1, 76, 127
1, 24084, Note_off_c, 1, 58, 0
1, 24108, Note_off_c, 1, 76, 0
1, 24120, Note_on_c, 1, 77, 127
1, 24120, Note_on_c, 1, 58, 127
1, 24168, Note_off_c, 1, 77, 0
1, 24168, Note_off_c, 1, 58, 0
1, 24180, Note_on_c, 1, 79, 127
1, 24180, Note_on_c, 1, 49, 127
1, 24228, Note_off_c, 1, 79, 0
1, 24240, Note_on_c, 1, 81, 127
1, 24288, Note_off_c, 1, 81, 0
1, 24300, Note_on_c, 1, 82, 127
1, 24324, Note_off_c, 1, 49, 0
1, 24348, Note_off_c, 1, 82, 0
1, 24360, Note_on_c, 1, 79, 127
1, 24360, Note_on_c, 1, 57, 127
1, 24408, Note_off_c, 1, 79, 0
1, 24408, Note_off_c, 1, 57, 0
1, 24420, Note_on_c, 1, 79, 127
1, 24420, Note_on_c, 1, 59, 127
1, 24432, Note_off_c, 1, 79, 0
1, 24435, Note_on_c, 1, 77, 127
1, 24447, Note_off_c, 1, 77, 0
1, 24468, Note_off_c, 1, 59, 0
1, 24480, Note_on_c, 1, 61, 127
1, 24528, Note_off_c, 1, 61, 0
1, 24540, Note_on_c, 1, 62, 127
1, 24588, Note_off_c, 1, 62, 0
1, 24600, Note_on_c, 1, 76, 127
1, 24600, Note_on_c, 1, 64, 127
1, 24648, Note_off_c, 1, 76, 0
1, 24648, Note_off_c, 1, 64, 0
1, 24660, Note_on_c, 1, 81, 127
1, 24660, Note_on_c, 1, 65, 127
1, 24708, Note_off_c, 1, 81, 0
1, 24708, Note_off_c, 1, 65, 0
1, 24720, Note_on_c, 1, 79, 127
1, 24720, Note_on_c, 1, 70, 127
1, 24768, Note_off_c, 1, 79, 0
1, 24768, Note_off_c, 1, 70, 0
1, 24780, Note_on_c, 1, 69, 127
1, 24780, Note_on_c, 1, 77, 127
1, 24828, Note_off_c, 1, 69, 0
1, 24828, Note_off_c, 1, 77, 0
1, 24840, Note_on_c, 1, 79, 127
1, 24840, Note_on_c, 1, 67, 127
1, 24864, Note_off_c, 1, 79, 0
1, 24870, Note_on_c, 1, 81, 127
1, 24888, Note_off_c, 1, 67, 0
1, 24894, Note_off_c, 1, 81, 0
1, 24900, Note_on_c, 1, 65, 127
1, 24900, Note_on_c, 1, 74, 127
1, 24948, Note_off_c, 1, 65, 0
1, 24948, Note_off_c, 1, 74, 0
1, 24960, Note_on_c, 1, 76, 127
1, 24960, Note_on_c, 1, 64, 127
1, 24984, Note_off_c, 1, 76, 0
1, 24990, Note_on_c, 1, 77, 127
1, 25008, Note_off_c, 1, 64, 0
1, 25014, Note_off_c, 1, 77, 0
1, 25020, Note_on_c, 1, 62, 127
1, 25020, Note_on_c, 1, 76, 127
1, 25068, Note_off_c, 1, 62, 0
1, 25068, Note_off_c, 1, 76, 0
1, 25080, Note_on_c, 1, 77, 127
1, 25080, Note_on_c, 1, 61, 127
1, 25104, Note_off_c, 1, 77, 0
1, 25110, Note_on_c, 1, 79, 127
1, 25128, Note_off_c, 1, 61, 0
1, 25140, Note_on_c, 1, 58, 127
1, 25158, Note_off_c, 1, 79, 0
1, 25200, Note_on_c, 1, 76, 127
1, 25236, Note_off_c, 1, 58, 0
1, 25248, Note_off_c, 1, 76, 0
1, 25260, Note_on_c, 1, 74, 127
1, 25260, Note_on_c, 1, 50, 127
1, 25308, Note_off_c, 1, 74, 0
1, 25308, Note_off_c, 1, 50, 0
1, 25320, Note_on_c, 1, 81, 127
1, 25320, Note_on_c, 1, 52, 127
1, 25368, Note_off_c, 1, 81, 0
1, 25368, Note_off_c, 1, 52, 0
1, 25380, Note_on_c, 1, 75, 127
1, 25380, Note_on_c, 1, 72, 127
1, 25380, Note_on_c, 1, 54, 127
1, 25392, Note_off_c, 1, 75, 0
1, 25395, Note_on_c, 1, 74, 127
1, 25407, Note_off_c, 1, 74, 0
1, 25428, Note_off_c, 1, 54, 0
1, 25440, Note_on_c, 1, 55, 127
1, 25488, Note_off_c, 1, 55, 0
1, 25500, Note_on_c, 1, 57, 127
1, 25548, Note_off_c, 1, 57, 0
1, 25560, Note_on_c, 1, 58, 127
1, 25572, Note_off_c, 1, 72, 0
1, 25608, Note_off_c, 1, 58, 0
1, 25620, Note_on_c, 1, 67, 127
1, 25620, Note_on_c, 1, 60, 127
1, 25632, Note_off_c, 1, 67, 0
1, 25635, Note_on_c, 1, 66, 127
1, 25647, Note_off_c, 1, 66, 0
1, 25680, Note_on_c, 1, 57, 127
1, 25704, Note_off_c, 1, 57, 0
1, 25710, Note_on_c, 1, 55, 127
1, 25734, Note_off_c, 1, 55, 0
1, 25740, Note_on_c, 1, 54, 127
1, 25764, Note_off_c, 1, 54, 0
1, 25800, Note_on_c, 1, 62, 127
1, 25848, Note_off_c, 1, 62, 0
1, 25860, Note_on_c, 1, 64, 127
1, 25860, Note_on_c, 1, 50, 127
1, 25908, Note_off_c, 1, 60, 0
1, 25908, Note_off_c, 1, 64, 0
1, 25980, Note_on_c, 1, 58, 127
1, 26028, Note_off_c, 1, 58, 0
1, 26040, Note_on_c, 1, 69, 127
1, 26052, Note_off_c, 1, 50, 0
1, 26088, Note_off_c, 1, 69, 0
1, 26100, Note_on_c, 1, 70, 127
1, 26100, Note_on_c, 1, 55, 127
1, 26148, Note_off_c, 1, 70, 0
1, 26148, Note_off_c, 1, 55, 0
1, 26160, Note_on_c, 1, 67, 127
1, 26160, Note_on_c, 1, 53, 127
1, 26184, Note_off_c, 1, 67, 0
1, 26190, Note_on_c, 1, 69, 127
1, 26208, Note_off_c, 1, 53, 0
1, 26214, Note_off_c, 1, 69, 0
1, 26220, Note_on_c, 1, 70, 127
1, 26220, Note_on_c, 1, 51, 127
1, 26244, Note_off_c, 1, 70, 0
1, 26250, Note_on_c, 1, 69, 127
1, 26268, Note_off_c, 1, 51, 0
1, 26274, Note_off_c, 1, 69, 0
1, 26280, Note_on_c, 1, 67, 127
1, 26280, Note_on_c, 1, 50, 127
1, 26328, Note_off_c, 1, 67, 0
1, 26328, Note_off_c, 1, 50, 0
1, 26340, Note_on_c, 1, 75, 127
1, 26340, Note_on_c, 1, 48, 127
1, 26388, Note_off_c, 1, 48, 0
1, 26400, Note_on_c, 1, 67, 127
1, 26400, Note_on_c, 1, 46, 127
1, 26448, Note_off_c, 1, 67, 0
1, 26448, Note_off_c, 1, 46, 0
1, 26460, Note_on_c, 1, 72, 127
1, 26460, Note_on_c, 1, 45, 127
1, 26484, Note_off_c, 1, 75, 0
1, 26508, Note_off_c, 1, 72, 0
1, 26508, Note_off_c, 1, 45, 0
1, 26520, Note_on_c, 1, 75, 127
1, 26520, Note_on_c, 1, 70, 127
1, 26520, Note_on_c, 1, 43, 127
1, 26568, Note_off_c, 1, 75, 0
1, 26568, Note_off_c, 1, 70, 0
1, 26568, Note_off_c, 1, 43, 0
1, 26580, Note_on_c, 1, 69, 127
1, 26580, Note_on_c, 1, 75, 127
1, 26580, Note_on_c, 1, 41, 127
1, 26628, Note_off_c, 1, 69, 0
1, 26628, Note_off_c, 1, 75, 0
1, 26628, Note_off_c, 1, 41, 0
1, 26640, Note_on_c, 1, 65, 127
1, 26640, Note_on_c, 1, 51, 127
1, 26664, Note_off_c, 1, 65, 0
1, 26670, Note_on_c, 1, 67, 127
1, 26688, Note_off_c, 1, 51, 0
1, 26694, Note_off_c, 1, 67, 0
1, 26700, Note_on_c, 1, 69, 127
1, 26700, Note_on_c, 1, 50, 127
1, 26724, Note_off_c, 1, 69, 0
1, 26730, Note_on_c, 1, 67, 127
1, 26748, Note_off_c, 1, 50, 0
1, 26754, Note_off_c, 1, 67, 0
1, 26760, Note_on_c, 1, 65, 127
1, 26760, Note_on_c, 1, 48, 127
1, 26808, Note_off_c, 1, 65, 0
1, 26808, Note_off_c, 1, 48, 0
1, 26820, Note_on_c, 1, 74, 127
1, 26820, Note_on_c, 1, 46, 127
1, 26868, Note_off_c, 1, 46, 0
1, 26880, Note_on_c, 1, 65, 127
1, 26880, Note_on_c, 1, 45, 127
1, 26928, Note_off_c, 1, 65, 0
1, 26928, Note_off_c, 1, 45, 0
1, 26940, Note_on_c, 1, 70, 127
1, 26940, Note_on_c, 1, 43, 127
1, 26964, Note_off_c, 1, 74, 0
1, 26988, Note_off_c, 1, 70, 0
1, 26988, Note_off_c, 1, 43, 0
1, 27000, Note_on_c, 1, 69, 127
1, 27000, Note_on_c, 1, 74, 127
1, 27000, Note_on_c, 1, 41, 127
1, 27048, Note_off_c, 1, 69, 0
1, 27048, Note_off_c, 1, 74, 0
1, 27048, Note_off_c, 1, 41, 0
1, 27060, Note_on_c, 1, 74, 127
1, 27060, Note_on_c, 1, 67, 127
1, 27060, Note_on_c, 1, 39, 127
1, 27108, Note_off_c, 1, 74, 0
1, 27120, Note_on_c, 1, 79, 127
1, 27144, Note_off_c, 1, 79, 0
1, 27150, Note_on_c, 1, 77, 127
1, 27156, Note_off_c, 1, 67, 0
1, 27174, Note_off_c, 1, 77, 0
1, 27180, Note_on_c, 1, 75, 127
1, 27204, Note_off_c, 1, 75, 0
1, 27300, Note_on_c, 1, 72, 127
1, 27348, Note_off_c, 1, 39, 0
1, 27360, Note_on_c, 1, 78, 127
1, 27360, Note_on_c, 1, 51, 127
1, 27384, Note_off_c, 1, 51, 0
1, 27390, Note_on_c, 1, 50, 127
1, 27408, Note_off_c, 1, 78, 0
1, 27414, Note_off_c, 1, 50, 0
1, 27420, Note_on_c, 1, 48, 127
1, 27444, Note_off_c, 1, 72, 0
1, 27444, Note_off_c, 1, 48, 0
1, 27480, Note_on_c, 1, 72, 127
1, 27480, Note_on_c, 1, 81, 127
1, 27480, Note_on_c, 1, 51, 127
1, 27528, Note_off_c, 1, 72, 0
1, 27528, Note_off_c, 1, 81, 0
1, 27528, Note_off_c, 1, 51, 0
1, 27540, Note_on_c, 1, 72, 127
1, 27540, Note_on_c, 1, 74, 127
1, 27540, Note_on_c, 1, 42, 127
1, 27588, Note_off_c, 1, 72, 0
1, 27600, Note_on_c, 1, 70, 127
1, 27624, Note_off_c, 1, 70, 0
1, 27630, Note_on_c, 1, 69, 127
1, 27636, Note_off_c, 1, 42, 0
1, 27654, Note_off_c, 1, 69, 0
1, 27660, Note_on_c, 1, 43, 127
1, 27684, Note_off_c, 1, 74, 0
1, 27708, Note_off_c, 1, 43, 0
1, 27720, Note_on_c, 1, 75, 127
1, 27720, Note_on_c, 1, 67, 127
1, 27720, Note_on_c, 1, 48, 127
1, 27768, Note_off_c, 1, 75, 0
1, 27768, Note_off_c, 1, 67, 0
1, 27768, Note_off_c, 1, 48, 0
1, 27780, Note_on_c, 1, 70, 127
1, 27780, Note_on_c, 1, 66, 127
1, 27780, Note_on_c, 1, 50, 127
1, 27792, Note_off_c, 1, 70, 0
1, 27795, Note_on_c, 1, 69, 127
1, 27807, Note_off_c, 1, 69, 0
1, 27876, Note_off_c, 1, 50, 0
1, 27900, Note_on_c, 1, 48, 127
1, 27960, Note_on_c, 1, 67, 127
1, 27972, Note_off_c, 1, 66, 0
1, 27996, Note_off_c, 1, 48, 0
1, 28008, Note_off_c, 1, 67, 0
1, 28020, Note_on_c, 1, 67, 127
1, 28020, Note_on_c, 1, 47, 127
1, 28080, Note_on_c, 1, 50, 127
1, 28128, Note_off_c, 1, 50, 0
1, 28140, Note_on_c, 1, 52, 127
1, 28188, Note_off_c, 1, 52, 0
1, 28200, Note_on_c, 1, 54, 127
1, 28248, Note_off_c, 1, 54, 0
1, 28260, Note_on_c, 1, 55, 127
1, 28308, Note_off_c, 1, 67, 0
1, 28308, Note_off_c, 1, 47, 0
1, 28320, Note_on_c, 1, 66, 127
1, 28320, Note_on_c, 1, 48, 127
1, 28356, Note_off_c, 1, 55, 0
1, 28368, Note_off_c, 1, 66, 0
1, 28368, Note_off_c, 1, 48, 0
1, 28380, Note_on_c, 1, 67, 127
1, 28380, Note_on_c, 1, 47, 127
1, 28428, Note_off_c, 1, 67, 0
1, 28428, Note_off_c, 1, 47, 0
1, 28440, Note_on_c, 1, 69, 127
1, 28440, Note_on_c, 1, 45, 127
1, 28488, Note_off_c, 1, 69, 0
1, 28488, Note_off_c, 1, 45, 0
1, 28500, Note_on_c, 1, 71, 127
1, 28500, Note_on_c, 1, 43, 127
1, 28548, Note_off_c, 1, 71, 0
1, 28548, Note_off_c, 1, 43, 0
1, 28560, Note_on_c, 1, 69, 127
1, 28560, Note_on_c, 1, 45, 127
1, 28608, Note_off_c, 1, 69, 0
1, 28608, Note_off_c, 1, 45, 0
1, 28620, Note_on_c, 1, 67, 127
1, 28620, Note_on_c, 1, 47, 127
1, 28668, Note_off_c, 1, 67, 0
1, 28668, Note_off_c, 1, 47, 0
1, 28680, Note_on_c, 1, 74, 127
1, 28680, Note_on_c, 1, 48, 127
1, 28728, Note_off_c, 1, 74, 0
1, 28728, Note_off_c, 1, 48, 0
1, 28740, Note_on_c, 1, 65, 127
1, 28740, Note_on_c, 1, 50, 127
1, 28788, Note_off_c, 1, 50, 0
1, 28800, Note_on_c, 1, 52, 127
1, 28824, Note_off_c, 1, 52, 0
1, 28830, Note_on_c, 1, 53, 127
1, 28854, Note_off_c, 1, 53, 0
1, 28884, Note_off_c, 1, 65, 0
1, 28920, Note_on_c, 1, 65, 127
1, 28920, Note_on_c, 1, 50, 127
1, 28968, Note_off_c, 1, 65, 0
1, 28968, Note_off_c, 1, 50, 0
1, 28980, Note_on_c, 1, 59, 127
1, 28980, Note_on_c, 1, 55, 127
1, 29028, Note_off_c, 1, 55, 0
1, 29040, Note_on_c, 1, 57, 127
1, 29088, Note_off_c, 1, 57, 0
1, 29124, Note_off_c, 1, 59, 0
1, 29160, Note_on_c, 1, 67, 127
1, 29160, Note_on_c, 1, 53, 127
1, 29208, Note_off_c, 1, 67, 0
1, 29208, Note_off_c, 1, 53, 0
1, 29220, Note_on_c, 1, 69, 127
1, 29220, Note_on_c, 1, 52, 127
1, 29268, Note_off_c, 1, 69, 0
1, 29280, Note_on_c, 1, 71, 127
1, 29280, Note_on_c, 1, 55, 127
1, 29316, Note_off_c, 1, 52, 0
1, 29328, Note_off_c, 1, 71, 0
1, 29328, Note_off_c, 1, 55, 0
1, 29340, Note_on_c, 1, 72, 127
1, 29340, Note_on_c, 1, 57, 127
1, 29340, Note_on_c, 1, 50, 127
1, 29388, Note_off_c, 1, 72, 0
1, 29388, Note_off_c, 1, 57, 0
1, 29400, Note_on_c, 1, 74, 127
1, 29400, Note_on_c, 1, 59, 127
1, 29436, Note_off_c, 1, 50, 0
1, 29448, Note_off_c, 1, 74, 0
1, 29448, Note_off_c, 1, 59, 0
1, 29460, Note_on_c, 1, 76, 127
1, 29460, Note_on_c, 1, 60, 127
1, 29460, Note_on_c, 1, 48, 127
1, 29508, Note_off_c, 1, 76, 0
1, 29520, Note_on_c, 1, 72, 127
1, 29544, Note_off_c, 1, 72, 0
1, 29550, Note_on_c, 1, 74, 127
1, 29556, Note_off_c, 1, 60, 0
1, 29574, Note_off_c, 1, 74, 0
1, 29580, Note_on_c, 1, 55, 127
1, 29628, Note_off_c, 1, 55, 0
1, 29640, Note_on_c, 1, 57, 127
1, 29688, Note_off_c, 1, 57, 0
1, 29700, Note_on_c, 1, 79, 127
1, 29700, Note_on_c, 1, 58, 127
1, 29748, Note_off_c, 1, 48, 0
1, 29760, Note_on_c, 1, 53, 127
1, 29808, Note_off_c, 1, 53, 0
1, 29820, Note_on_c, 1, 52, 127
1, 29844, Note_off_c, 1, 79, 0
1, 29868, Note_off_c, 1, 52, 0
1, 29880, Note_on_c, 1, 50, 127
1, 29892, Note_off_c, 1, 58, 0
1, 29928, Note_off_c, 1, 50, 0
1, 29940, Note_on_c, 1, 79, 127
1, 29940, Note_on_c, 1, 49, 127
1, 29940, Note_on_c, 1, 57, 127
1, 29988, Note_off_c, 1, 79, 0
1, 29988, Note_off_c, 1, 49, 0
1, 30000, Note_on_c, 1, 76, 127
1, 30000, Note_on_c, 1, 47, 127
1, 30024, Note_off_c, 1, 76, 0
1, 30030, Note_on_c, 1, 74, 127
1, 30048, Note_off_c, 1, 47, 0
1, 30054, Note_off_c, 1, 74, 0
1, 30060, Note_on_c, 1, 73, 127
1, 30060, Note_on_c, 1, 45, 127
1, 30084, Note_off_c, 1, 73, 0
1, 30108, Note_off_c, 1, 45, 0
1, 30120, Note_on_c, 1, 52, 127
1, 30132, Note_off_c, 1, 57, 0
1, 30168, Note_off_c, 1, 52, 0
1, 30180, Note_on_c, 1, 67, 127
1, 30180, Note_on_c, 1, 49, 127
1, 30192, Note_off_c, 1, 49, 0
1, 30195, Note_on_c, 1, 46, 127
1, 30207, Note_off_c, 1, 46, 0
1, 30228, Note_off_c, 1, 67, 0
1, 30240, Note_on_c, 1, 70, 127
1, 30288, Note_off_c, 1, 70, 0
1, 30315, Note_on_c, 1, 69, 127
1, 30327, Note_off_c, 1, 69, 0
1, 30345, Note_on_c, 1, 69, 127
1, 30357, Note_off_c, 1, 69, 0
1, 30360, Note_on_c, 1, 67, 127
1, 30360, Note_on_c, 1, 46, 127
1, 30408, Note_off_c, 1, 67, 0
1, 30408, Note_off_c, 1, 46, 0
1, 30420, Note_on_c, 1, 76, 127
1, 30420, Note_on_c, 1, 37, 127
1, 30480, Note_on_c, 1, 70, 127
1, 30528, Note_off_c, 1, 70, 0
1, 30540, Note_on_c, 1, 69, 127
1, 30564, Note_off_c, 1, 37, 0
1, 30588, Note_off_c, 1, 69, 0
1, 30600, Note_on_c, 1, 67, 127
1, 30600, Note_on_c, 1, 45, 127
1, 30648, Note_off_c, 1, 67, 0
1, 30648, Note_off_c, 1, 45, 0
1, 30660, Note_on_c, 1, 47, 127
1, 30675, Note_on_c, 1, 65, 127
1, 30687, Note_off_c, 1, 65, 0
1, 30708, Note_off_c, 1, 47, 0
1, 30720, Note_on_c, 1, 49, 127
1, 30768, Note_off_c, 1, 49, 0
1, 30780, Note_on_c, 1, 50, 127
1, 30828, Note_off_c, 1, 50, 0
1, 30840, Note_on_c, 1, 64, 127
1, 30840, Note_on_c, 1, 52, 127
1, 30888, Note_off_c, 1, 64, 0
1, 30888, Note_off_c, 1, 52, 0
1, 30900, Note_on_c, 1, 53, 127
1, 30960, Note_on_c, 1, 57, 127
1, 31008, Note_off_c, 1, 57, 0
1, 31020, Note_on_c, 1, 59, 127
1, 31044, Note_off_c, 1, 76, 0
1, 31068, Note_off_c, 1, 59, 0
1, 31080, Note_on_c, 1, 79, 127
1, 31080, Note_on_c, 1, 61, 127
1, 31128, Note_off_c, 1, 79, 0
1, 31128, Note_off_c, 1, 61, 0
1, 31140, Note_on_c, 1, 77, 127
1, 31140, Note_on_c, 1, 62, 127
1, 31188, Note_off_c, 1, 77, 0
1, 31188, Note_off_c, 1, 62, 0
1, 31260, Note_on_c, 1, 74, 127
1, 31284, Note_off_c, 1, 53, 0
1, 31308, Note_off_c, 1, 74, 0
1, 31320, Note_on_c, 1, 72, 127
1, 31368, Note_off_c, 1, 72, 0
1, 31380, Note_on_c, 1, 55, 127
1, 31560, Note_on_c, 1, 81, 127
1, 31608, Note_off_c, 1, 81, 0
1, 31764, Note_off_c, 1, 55, 0
1, 31860, Note_on_c, 1, 73, 127
1, 32244, Note_off_c, 1, 73, 0
1, 32340, Note_on_c, 1, 74, 127
1, 32340, Note_on_c, 1, 65, 127
1, 32340, Note_on_c, 1, 58, 127
1, 32388, Note_off_c, 1, 74, 0
1, 32400, Note_on_c, 1, 72, 127
1, 32448, Note_off_c, 1, 72, 0
1, 32460, Note_on_c, 1, 70, 127
1, 32508, Note_off_c, 1, 70, 0
1, 32520, Note_on_c, 1, 69, 127
1, 32568, Note_off_c, 1, 69, 0
1, 32580, Note_on_c, 1, 67, 127
1, 32628, Note_off_c, 1, 65, 0
1, 32700, Note_on_c, 1, 64, 127
1, 32724, Note_off_c, 1, 67, 0
1, 32748, Note_off_c, 1, 64, 0
1, 32760, Note_on_c, 1, 62, 127
1, 32808, Note_off_c, 1, 62, 0
1, 32820, Note_on_c, 1, 76, 127
1, 32820, Note_on_c, 1, 61, 127
1, 32868, Note_off_c, 1, 58, 0
1, 32916, Note_off_c, 1, 61, 0
1, 32940, Note_on_c, 1, 57, 127
1, 32964, Note_off_c, 1, 76, 0
1, 32988, Note_off_c, 1, 57, 0
1, 33000, Note_on_c, 1, 70, 127
1, 33000, Note_on_c, 1, 55, 127
1, 33048, Note_off_c, 1, 70, 0
1, 33048, Note_off_c, 1, 55, 0
1, 33060, Note_on_c, 1, 69, 127
1, 33060, Note_on_c, 1, 53, 127
1, 33108, Note_off_c, 1, 69, 0
1, 33108, Note_off_c, 1, 53, 0
1, 33120, Note_on_c, 1, 67, 127
1, 33120, Note_on_c, 1, 52, 127
1, 33168, Note_off_c, 1, 67, 0
1, 33168, Note_off_c, 1, 52, 0
1, 33180, Note_on_c, 1, 65, 127
1, 33180, Note_on_c, 1, 50, 127
1, 33228, Note_off_c, 1, 65, 0
1, 33228, Note_off_c, 1, 50, 0
1, 33240, Note_on_c, 1, 64, 127
1, 33240, Note_on_c, 1, 49, 127
1, 33288, Note_off_c, 1, 64, 0
1, 33288, Note_off_c, 1, 49, 0
1, 33300, Note_on_c, 1, 65, 127
1, 33300, Note_on_c, 1, 50, 127
1, 33360, Note_on_c, 1, 69, 127
1, 33396, Note_off_c, 1, 50, 0
1, 33408, Note_off_c, 1, 69, 0
1, 33420, Note_on_c, 1, 73, 127
1, 33420, Note_on_c, 1, 55, 127
1, 33468, Note_off_c, 1, 73, 0
1, 33480, Note_on_c, 1, 74, 127
1, 33492, Note_off_c, 1, 65, 0
1, 33516, Note_off_c, 1, 55, 0
1, 33528, Note_off_c, 1, 74, 0
1, 33540, Note_on_c, 1, 64, 127
1, 33540, Note_on_c, 1, 61, 127
1, 33540, Note_on_c, 1, 57, 127
1, 33636, Note_off_c, 1, 57, 0
1, 33660, Note_on_c, 1, 45, 127
1, 33684, Note_off_c, 1, 64, 0
1, 33720, Note_on_c, 1, 62, 127
1, 33732, Note_off_c, 1, 61, 0
1, 33756, Note_off_c, 1, 45, 0
1, 33768, Note_off_c, 1, 62, 0
1, 33780, Note_on_c, 1, 62, 127
1, 33780, Note_on_c, 1, 50, 127
1, 33828, Note_off_c, 1, 62, 0
1, 33840, Note_on_c, 1, 66, 127
1, 33840, Note_on_c, 1, 57, 127
1, 33864, Note_off_c, 1, 66, 0
1, 33864, Note_off_c, 1, 57, 0
1, 33870, Note_on_c, 1, 67, 127
1, 33870, Note_on_c, 1, 58, 127
1, 33894, Note_off_c, 1, 67, 0
1, 33894, Note_off_c, 1, 58, 0
1, 33900, Note_on_c, 1, 69, 127
1, 33900, Note_on_c, 1, 60, 127
1, 33924, Note_off_c, 1, 69, 0
1, 33924, Note_off_c, 1, 60, 0
1, 34080, Note_on_c, 1, 64, 127
1, 34080, Note_on_c, 1, 55, 127
1, 34104, Note_off_c, 1, 55, 0
1, 34200, Note_on_c, 1, 73, 127
1, 34224, Note_off_c, 1, 64, 0
1, 34248, Note_off_c, 1, 73, 0
1, 34260, Note_on_c, 1, 74, 127
1, 34452, Note_off_c, 1, 50, 0
1, 34500, Note_on_c, 1, 38, 127
1, 34548, Note_off_c, 1, 74, 0
1, 34596, Note_off_c, 1, 38, 0
1, 34680, Note_on_c, 1, 76, 127
1, 34680, Note_on_c, 1, 57, 127
1, 34728, Note_off_c, 1, 76, 0
1, 34728, Note_off_c, 1, 57, 0
1, 34740, Note_on_c, 1, 73, 127
1, 34740, Note_on_c, 1, 69, 127
1, 34740, Note_on_c, 1, 76, 127
1, 34740, Note_on_c, 1, 57, 127
1, 34788, Note_off_c, 1, 73, 0
1, 34788, Note_off_c, 1, 69, 0
1, 34788, Note_off_c, 1, 76, 0
1, 34800, Note_on_c, 1, 79, 127
1, 34824, Note_off_c, 1, 79, 0
1, 34830, Note_on_c, 1, 77, 127
1, 34854, Note_off_c, 1, 77, 0
1, 35028, Note_off_c, 1, 57, 0
1, 35040, Note_on_c, 1, 76, 127
1, 35040, Note_on_c, 1, 56, 127
1, 35064, Note_off_c, 1, 76, 0
1, 35070, Note_on_c, 1, 74, 127
1, 35088, Note_off_c, 1, 56, 0
1, 35094, Note_off_c, 1, 74, 0
1, 35100, Note_on_c, 1, 73, 127
1, 35100, Note_on_c, 1, 57, 127
1, 35124, Note_off_c, 1, 73, 0
1, 35130, Note_on_c, 1, 74, 127
1, 35148, Note_off_c, 1, 57, 0
1, 35154, Note_off_c, 1, 74, 0
1, 35160, Note_on_c, 1, 76, 127
1, 35160, Note_on_c, 1, 59, 127
1, 35208, Note_off_c, 1, 76, 0
1, 35208, Note_off_c, 1, 59, 0
1, 35220, Note_on_c, 1, 69, 127
1, 35220, Note_on_c, 1, 61, 127
1, 35268, Note_off_c, 1, 61, 0
1, 35280, Note_on_c, 1, 59, 127
1, 35328, Note_off_c, 1, 59, 0
1, 35340, Note_on_c, 1, 57, 127
1, 35364, Note_off_c, 1, 69, 0
1, 35388, Note_off_c, 1, 57, 0
1, 35400, Note_on_c, 1, 71, 127
1, 35400, Note_on_c, 1, 64, 127
1, 35448, Note_off_c, 1, 71, 0
1, 35448, Note_off_c, 1, 64, 0
1, 35460, Note_on_c, 1, 73, 127
1, 35460, Note_on_c, 1, 58, 127
1, 35508, Note_off_c, 1, 73, 0
1, 35520, Note_on_c, 1, 74, 127
1, 35568, Note_off_c, 1, 74, 0
1, 35580, Note_on_c, 1, 76, 127
1, 35604, Note_off_c, 1, 58, 0
1, 35628, Note_off_c, 1, 76, 0
1, 35640, Note_on_c, 1, 77, 127
1, 35640, Note_on_c, 1, 58, 127
1, 35688, Note_off_c, 1, 77, 0
1, 35688, Note_off_c, 1, 58, 0
1, 35700, Note_on_c, 1, 79, 127
1, 35700, Note_on_c, 1, 49, 127
1, 35748, Note_off_c, 1, 79, 0
1, 35760, Note_on_c, 1, 81, 127
1, 35808, Note_off_c, 1, 81, 0
1, 35820, Note_on_c, 1, 82, 127
1, 35844, Note_off_c, 1, 49, 0
1, 35868, Note_off_c, 1, 82, 0
1, 35880, Note_on_c, 1, 79, 127
1, 35880, Note_on_c, 1, 57, 127
1, 35928, Note_off_c, 1, 79, 0
1, 35928, Note_off_c, 1, 57, 0
1, 35940, Note_on_c, 1, 79, 127
1, 35940, Note_on_c, 1, 59, 127
1, 35952, Note_off_c, 1, 79, 0
1, 35955, Note_on_c, 1, 77, 127
1, 35967, Note_off_c, 1, 77, 0
1, 35988, Note_off_c, 1, 59, 0
1, 36000, Note_on_c, 1, 61, 127
1, 36048, Note_off_c, 1, 61, 0
1, 36060, Note_on_c, 1, 62, 127
1, 36108, Note_off_c, 1, 62, 0
1, 36120, Note_on_c, 1, 76, 127
1, 36120, Note_on_c, 1, 64, 127
1, 36168, Note_off_c, 1, 76, 0
1, 36168, Note_off_c, 1, 64, 0
1, 36180, Note_on_c, 1, 81, 127
1, 36180, Note_on_c, 1, 65, 127
1, 36228, Note_off_c, 1, 81, 0
1, 36228, Note_off_c, 1, 65, 0
1, 36240, Note_on_c, 1, 79, 127
1, 36240, Note_on_c, 1, 70, 127
1, 36288, Note_off_c, 1, 79, 0
1, 36288, Note_off_c, 1, 70, 0
1, 36300, Note_on_c, 1, 69, 127
1, 36300, Note_on_c, 1, 77, 127
1, 36348, Note_off_c, 1, 69, 0
1, 36348, Note_off_c, 1, 77, 0
1, 36360, Note_on_c, 1, 79, 127
1, 36360, Note_on_c, 1, 67, 127
1, 36384, Note_off_c, 1, 79, 0
1, 36390, Note_on_c, 1, 81, 127
1, 36408, Note_off_c, 1, 67, 0
1, 36414, Note_off_c, 1, 81, 0
1, 36420, Note_on_c, 1, 65, 127
1, 36420, Note_on_c, 1, 74, 127
1, 36468, Note_off_c, 1, 65, 0
1, 36468, Note_off_c, 1, 74, 0
1, 36480, Note_on_c, 1, 76, 127
1, 36480, Note_on_c, 1, 64, 127
1, 36504, Note_off_c, 1, 76, 0
1, 36510, Note_on_c, 1, 77, 127
1, 36528, Note_off_c, 1, 64, 0
1, 36534, Note_off_c, 1, 77, 0
1, 36540, Note_on_c, 1, 62, 127
1, 36540, Note_on_c, 1, 76, 127
1, 36588, Note_off_c, 1, 62, 0
1, 36588, Note_off_c, 1, 76, 0
1, 36600, Note_on_c, 1, 77, 127
1, 36600, Note_on_c, 1, 61, 127
1, 36624, Note_off_c, 1, 77, 0
1, 36630, Note_on_c, 1, 79, 127
1, 36648, Note_off_c, 1, 61, 0
1, 36660, Note_on_c, 1, 58, 127
1, 36678, Note_off_c, 1, 79, 0
1, 36720, Note_on_c, 1, 76, 127
1, 36756, Note_off_c, 1, 58, 0
1, 36768, Note_off_c, 1, 76, 0
1, 36780, Note_on_c, 1, 74, 127
1, 36780, Note_on_c, 1, 50, 127
1, 36828, Note_off_c, 1, 74, 0
1, 36828, Note_off_c, 1, 50, 0
1, 36840, Note_on_c, 1, 81, 127
1, 36840, Note_on_c, 1, 52, 127
1, 36888, Note_off_c, 1, 81, 0
1, 36888, Note_off_c, 1, 52, 0
1, 36900, Note_on_c, 1, 75, 127
1, 36900, Note_on_c, 1, 72, 127
1, 36900, Note_on_c, 1, 54, 127
1, 36912, Note_off_c, 1, 75, 0
1, 36915, Note_on_c, 1, 74, 127
1, 36927, Note_off_c, 1, 74, 0
1, 36948, Note_off_c, 1, 54, 0
1, 36960, Note_on_c, 1, 55, 127
1, 37008, Note_off_c, 1, 55, 0
1, 37020, Note_on_c, 1, 57, 127
1, 37068, Note_off_c, 1, 57, 0
1, 37080, Note_on_c, 1, 58, 127
1, 37092, Note_off_c, 1, 72, 0
1, 37128, Note_off_c, 1, 58, 0
1, 37140, Note_on_c, 1, 67, 127
1, 37140, Note_on_c, 1, 60, 127
1, 37152, Note_off_c, 1, 67, 0
1, 37155, Note_on_c, 1, 66, 127
1, 37167, Note_off_c, 1, 66, 0
1, 37200, Note_on_c, 1, 57, 127
1, 37224, Note_off_c, 1, 57, 0
1, 37230, Note_on_c, 1, 55, 127
1, 37254, Note_off_c, 1, 55, 0
1, 37260, Note_on_c, 1, 54, 127
1, 37284, Note_off_c, 1, 54, 0
1, 37320, Note_on_c, 1, 62, 127
1, 37368, Note_off_c, 1, 62, 0
1, 37380, Note_on_c, 1, 64, 127
1, 37380, Note_on_c, 1, 50, 127
1, 37428, Note_off_c, 1, 60, 0
1, 37428, Note_off_c, 1, 64, 0
1, 37500, Note_on_c, 1, 58, 127
1, 37548, Note_off_c, 1, 58, 0
1, 37560, Note_on_c, 1, 69, 127
1, 37572, Note_off_c, 1, 50, 0
1, 37608, Note_off_c, 1, 69, 0
1, 37620, Note_on_c, 1, 70, 127
1, 37620, Note_on_c, 1, 55, 127
1, 37668, Note_off_c, 1, 70, 0
1, 37668, Note_off_c, 1, 55, 0
1, 37680, Note_on_c, 1, 67, 127
1, 37680, Note_on_c, 1, 53, 127
1, 37704, Note_off_c, 1, 67, 0
1, 37710, Note_on_c, 1, 69, 127
1, 37728, Note_off_c, 1, 53, 0
1, 37734, Note_off_c, 1, 69, 0
1, 37740, Note_on_c, 1, 70, 127
1, 37740, Note_on_c, 1, 51, 127
1, 37764, Note_off_c, 1, 70, 0
1, 37770, Note_on_c, 1, 69, 127
1, 37788, Note_off_c, 1, 51, 0
1, 37794, Note_off_c, 1, 69, 0
1, 37800, Note_on_c, 1, 67, 127
1, 37800, Note_on_c, 1, 50, 127
1, 37848, Note_off_c, 1, 67, 0
1, 37848, Note_off_c, 1, 50, 0
1, 37860, Note_on_c, 1, 75, 127
1, 37860, Note_on_c, 1, 48, 127
1, 37908, Note_off_c, 1, 48, 0
1, 37920, Note_on_c, 1, 67, 127
1, 37920, Note_on_c, 1, 46, 127
1, 37968, Note_off_c, 1, 67, 0
1, 37968, Note_off_c, 1, 46, 0
1, 37980, Note_on_c, 1, 72, 127
1, 37980, Note_on_c, 1, 45, 127
1, 38004, Note_off_c, 1, 75, 0
1, 38028, Note_off_c, 1, 72, 0
1, 38028, Note_off_c, 1, 45, 0
1, 38040, Note_on_c, 1, 75, 127
1, 38040, Note_on_c, 1, 70, 127
1, 38040, Note_on_c, 1, 43, 127
1, 38088, Note_off_c, 1, 75, 0
1, 38088, Note_off_c, 1, 70, 0
1, 38088, Note_off_c, 1, 43, 0
1, 38100, Note_on_c, 1, 69, 127
1, 38100, Note_on_c, 1, 75, 127
1, 38100, Note_on_c, 1, 41, 127
1, 38148, Note_off_c, 1, 69, 0
1, 38148, Note_off_c, 1, 75, 0
1, 38148, Note_off_c, 1, 41, 0
1, 38160, Note_on_c, 1, 65, 127
1, 38160, Note_on_c, 1, 51, 127
1, 38184, Note_off_c, 1, 65, 0
1, 38190, Note_on_c, 1, 67, 127
1, 38208, Note_off_c, 1, 51, 0
1, 38214, Note_off_c, 1, 67, 0
1, 38220, Note_on_c, 1, 69, 127
1, 38220, Note_on_c, 1, 50, 127
1, 38244, Note_off_c, 1, 69, 0
1, 38250, Note_on_c, 1, 67, 127
1, 38268, Note_off_c, 1, 50, 0
1, 38274, Note_off_c, 1, 67, 0
1, 38280, Note_on_c, 1, 65, 127
1, 38280, Note_on_c, 1, 48, 127
1, 38328, Note_off_c, 1, 65, 0
1, 38328, Note_off_c, 1, 48, 0
1, 38340, Note_on_c, 1, 74, 127
1, 38340, Note_on_c, 1, 46, 127
1, 38388, Note_off_c, 1, 46, 0
1, 38400, Note_on_c, 1, 65, 127
1, 38400, Note_on_c, 1, 45, 127
1, 38448, Note_off_c, 1, 65, 0
1, 38448, Note_off_c, 1, 45, 0
1, 38460, Note_on_c, 1, 70, 127
1, 38460, Note_on_c, 1, 43, 127
1, 38484, Note_off_c, 1, 74, 0
1, 38508, Note_off_c, 1, 70, 0
1, 38508, Note_off_c, 1, 43, 0
1, 38520, Note_on_c, 1, 69, 127
1, 38520, Note_on_c, 1, 74, 127
1, 38520, Note_on_c, 1, 41, 127
1, 38568, Note_off_c, 1, 69, 0
1, 38568, Note_off_c, 1, 74, 0
1, 38568, Note_off_c, 1, 41, 0
1, 38580, Note_on_c, 1, 74, 127
1, 38580, Note_on_c, 1, 67, 127
1, 38580, Note_on_c, 1, 39, 127
1, 38628, Note_off_c, 1, 74, 0
1, 38640, Note_on_c, 1, 79, 127
1, 38664, Note_off_c, 1, 79, 0
1, 38670, Note_on_c, 1, 77, 127
1, 38676, Note_off_c, 1, 67, 0
1, 38694, Note_off_c, 1, 77, 0
1, 38700, Note_on_c, 1, 75, 127
1, 38724, Note_off_c, 1, 75, 0
1, 38820, Note_on_c, 1, 72, 127
1, 38868, Note_off_c, 1, 39, 0
1, 38880, Note_on_c, 1, 78, 127
1, 38880, Note_on_c, 1, 51, 127
1, 38904, Note_off_c, 1, 51, 0
1, 38910, Note_on_c, 1, 50, 127
1, 38928, Note_off_c, 1, 78, 0
1, 38934, Note_off_c, 1, 50, 0
1, 38940, Note_on_c, 1, 48, 127
1, 38964, Note_off_c, 1, 72, 0
1, 38964, Note_off_c, 1, 48, 0
1, 39000, Note_on_c, 1, 72, 127
1, 39000, Note_on_c, 1, 81, 127
1, 39000, Note_on_c, 1, 51, 127
1, 39048, Note_off_c, 1, 72, 0
1, 39048, Note_off_c, 1, 81, 0
1, 39048, Note_off_c, 1, 51, 0
1, 39060, Note_on_c, 1, 72, 127
1, 39060, Note_on_c, 1, 74, 127
1, 39060, Note_on_c, 1, 42, 127
1, 39108, Note_off_c, 1, 72, 0
1, 39120, Note_on_c, 1, 70, 127
1, 39144, Note_off_c, 1, 70, 0
1, 39150, Note_on_c, 1, 69, 127
1, 39156, Note_off_c, 1, 42, 0
1, 39174, Note_off_c, 1, 69, 0
1, 39180, Note_on_c, 1, 43, 127
1, 39204, Note_off_c, 1, 74, 0
1, 39228, Note_off_c, 1, 43, 0
1, 39240, Note_on_c, 1, 75, 127
1, 39240, Note_on_c, 1, 67, 127
1, 39240, Note_on_c, 1, 48, 127
1, 39288, Note_off_c, 1, 75, 0
1, 39288, Note_off_c, 1, 67, 0
1, 39288, Note_off_c, 1, 48, 0
1, 39300, Note_on_c, 1, 70, 127
1, 39300, Note_on_c, 1, 66, 127
1, 39300, Note_on_c, 1, 50, 127
1, 39312, Note_off_c, 1, 70, 0
1, 39315, Note_on_c, 1, 69, 127
1, 39327, Note_off_c, 1, 69, 0
1, 39396, Note_off_c, 1, 50, 0
1, 39420, Note_on_c, 1, 48, 127
1, 39480, Note_on_c, 1, 67, 127
1, 39492, Note_off_c, 1, 66, 0
1, 39516, Note_off_c, 1, 48, 0
1, 39528, Note_off_c, 1, 67, 0
1, 39540, Note_on_c, 1, 67, 127
1, 39540, Note_on_c, 1, 47, 127
1, 39600, Note_on_c, 1, 50, 127
1, 39648, Note_off_c, 1, 50, 0
1, 39660, Note_on_c, 1, 52, 127
1, 39708, Note_off_c, 1, 52, 0
1, 39720, Note_on_c, 1, 54, 127
1, 39768, Note_off_c, 1, 54, 0
1, 39780, Note_on_c, 1, 55, 127
1, 39828, Note_off_c, 1, 67, 0
1, 39828, Note_off_c, 1, 47, 0
1, 39840, Note_on_c, 1, 66, 127
1, 39840, Note_on_c, 1, 48, 127
1, 39876, Note_off_c, 1, 55, 0
1, 39888, Note_off_c, 1, 66, 0
1, 39888, Note_off_c, 1, 48, 0
1, 39900, Note_on_c, 1, 67, 127
1, 39900, Note_on_c, 1, 47, 127
1, 39948, Note_off_c, 1, 67, 0
1, 39948, Note_off_c, 1, 47, 0
1, 39960, Note_on_c, 1, 69, 127
1, 39960, Note_on_c, 1, 45, 127
1, 40008, Note_off_c, 1, 69, 0
1, 40008, Note_off_c, 1, 45, 0
1, 40020, Note_on_c, 1, 71, 127
1, 40020, Note_on_c, 1, 43, 127
1, 40068, Note_off_c, 1, 71, 0
1, 40068, Note_off_c, 1, 43, 0
1, 40080, Note_on_c, 1, 69, 127
1, 40080, Note_on_c, 1, 45, 127
1, 40128, Note_off_c, 1, 69, 0
1, 40128, Note_off_c, 1, 45, 0
1, 40140, Note_on_c, 1, 67, 127
1, 40140, Note_on_c, 1, 47, 127
1, 40188, Note_off_c, 1, 67, 0
1, 40188, Note_off_c, 1, 47, 0
1, 40200, Note_on_c, 1, 74, 127
1, 40200, Note_on_c, 1, 48, 127
1, 40248, Note_off_c, 1, 74, 0
1, 40248, Note_off_c, 1, 48, 0
1, 40260, Note_on_c, 1, 65, 127
1, 40260, Note_on_c, 1, 50, 127
1, 40308, Note_off_c, 1, 50, 0
1, 40320, Note_on_c, 1, 52, 127
1, 40344, Note_off_c, 1, 52, 0
1, 40350, Note_on_c, 1, 53, 127
1, 40374, Note_off_c, 1, 53, 0
1, 40404, Note_off_c, 1, 65, 0
1, 40440, Note_on_c, 1, 65, 127
1, 40440, Note_on_c, 1, 50, 127
1, 40488, Note_off_c, 1, 65, 0
1, 40488, Note_off_c, 1, 50, 0
1, 40500, Note_on_c, 1, 59, 127
1, 40500, Note_on_c, 1, 55, 127
1, 40548, Note_off_c, 1, 55, 0
1, 40560, Note_on_c, 1, 57, 127
1, 40608, Note_off_c, 1, 57, 0
1, 40644, Note_off_c, 1, 59, 0
1, 40680, Note_on_c, 1, 67, 127
1, 40680, Note_on_c, 1, 53, 127
1, 40728, Note_off_c, 1, 67, 0
1, 40728, Note_off_c, 1, 53, 0
1, 40740, Note_on_c, 1, 69, 127
1, 40740, Note_on_c, 1, 52, 127
1, 40788, Note_off_c, 1, 69, 0
1, 40800, Note_on_c, 1, 71, 127
1, 40800, Note_on_c, 1, 55, 127
1, 40836, Note_off_c, 1, 52, 0
1, 40848, Note_off_c, 1, 71, 0
1, 40848, Note_off_c, 1, 55, 0
1, 40860, Note_on_c, 1, 72, 127
1, 40860, Note_on_c, 1, 57, 127
1, 40860, Note_on_c, 1, 50, 127
1, 40908, Note_off_c, 1, 72, 0
1, 40908, Note_off_c, 1, 57, 0
1, 40920, Note_on_c, 1, 74, 127
1, 40920, Note_on_c, 1, 59, 127
1, 40956, Note_off_c, 1, 50, 0
1, 40968, Note_off_c, 1, 74, 0
1, 40968, Note_off_c, 1, 59, 0
1, 40980, Note_on_c, 1, 76, 127
1, 40980, Note_on_c, 1, 60, 127
1, 40980, Note_on_c, 1, 48, 127
1, 41028, Note_off_c, 1, 76, 0
1, 41040, Note_on_c, 1, 72, 127
1, 41064, Note_off_c, 1, 72, 0
1, 41070, Note_on_c, 1, 74, 127
1, 41076, Note_off_c, 1, 60, 0
1, 41094, Note_off_c, 1, 74, 0
1, 41100, Note_on_c, 1, 55, 127
1, 41148, Note_off_c, 1, 55, 0
1, 41160, Note_on_c, 1, 57, 127
1, 41208, Note_off_c, 1, 57, 0
1, 41220, Note_on_c, 1, 79, 127
1, 41220, Note_on_c, 1, 58, 127
1, 41268, Note_off_c, 1, 48, 0
1, 41280, Note_on_c, 1, 53, 127
1, 41328, Note_off_c, 1, 53, 0
1, 41340, Note_on_c, 1, 52, 127
1, 41364, Note_off_c, 1, 79, 0
1, 41388, Note_off_c, 1, 52, 0
1, 41400, Note_on_c, 1, 50, 127
1, 41412, Note_off_c, 1, 58, 0
1, 41448, Note_off_c, 1, 50, 0
1, 41460, Note_on_c, 1, 79, 127
1, 41460, Note_on_c, 1, 49, 127
1, 41460, Note_on_c, 1, 57, 127
1, 41508, Note_off_c, 1, 79, 0
1, 41508, Note_off_c, 1, 49, 0
1, 41520, Note_on_c, 1, 76, 127
1, 41520, Note_on_c, 1, 47, 127
1, 41544, Note_off_c, 1, 76, 0
1, 41550, Note_on_c, 1, 74, 127
1, 41568, Note_off_c, 1, 47, 0
1, 41574, Note_off_c, 1, 74, 0
1, 41580, Note_on_c, 1, 73, 127
1, 41580, Note_on_c, 1, 45, 127
1, 41604, Note_off_c, 1, 73, 0
1, 41628, Note_off_c, 1, 45, 0
1, 41640, Note_on_c, 1, 52, 127
1, 41652, Note_off_c, 1, 57, 0
1, 41688, Note_off_c, 1, 52, 0
1, 41700, Note_on_c, 1, 67, 127
1, 41700, Note_on_c, 1, 49, 127
1, 41712, Note_off_c, 1, 49, 0
1, 41715, Note_on_c, 1, 46, 127
1, 41727, Note_off_c, 1, 46, 0
1, 41748, Note_off_c, 1, 67, 0
1, 41760, Note_on_c, 1, 70, 127
1, 41808, Note_off_c, 1, 70, 0
1, 41835, Note_on_c, 1, 69, 127
1, 41847, Note_off_c, 1, 69, 0
1, 41865, Note_on_c, 1, 69, 127
1, 41877, Note_off_c, 1, 69, 0
1, 41880, Note_on_c, 1, 67, 127
1, 41880, Note_on_c, 1, 46, 127
1, 41928, Note_off_c, 1, 67, 0
1, 41928, Note_off_c, 1, 46, 0
1, 41940, Note_on_c, 1, 76, 127
1, 41940, Note_on_c, 1, 37, 127
1, 42000, Note_on_c, 1, 70, 127
1, 42048, Note_off_c, 1, 70, 0
1, 42060, Note_on_c, 1, 69, 127
1, 42084, Note_off_c, 1, 37, 0
1, 42108, Note_off_c, 1, 69, 0
1, 42120, Note_on_c, 1, 67, 127
1, 42120, Note_on_c, 1, 45, 127
1, 42168, Note_off_c, 1, 67, 0
1, 42168, Note_off_c, 1, 45, 0
1, 42180, Note_on_c, 1, 47, 127
1, 42195, Note_on_c, 1, 65, 127
1, 42207, Note_off_c, 1, 65, 0
1, 42228, Note_off_c, 1, 47, 0
1, 42240, Note_on_c, 1, 49, 127
1, 42288, Note_off_c, 1, 49, 0
1, 42300, Note_on_c, 1, 50, 127
1, 42348, Note_off_c, 1, 50, 0
1, 42360, Note_on_c, 1, 64, 127
1, 42360, Note_on_c, 1, 52, 127
1, 42408, Note_off_c, 1, 64, 0
1, 42408, Note_off_c, 1, 52, 0
1, 42420, Note_on_c, 1, 53, 127
1, 42480, Note_on_c, 1, 57, 127
1, 42528, Note_off_c, 1, 57, 0
1, 42540, Note_on_c, 1, 59, 127
1, 42564, Note_off_c, 1, 76, 0
1, 42588, Note_off_c, 1, 59, 0
1, 42600, Note_on_c, 1, 79, 127
1, 42600, Note_on_c, 1, 61, 127
1, 42648, Note_off_c, 1, 79, 0
1, 42648, Note_off_c, 1, 61, 0
1, 42660, Note_on_c, 1, 77, 127
1, 42660, Note_on_c, 1, 62, 127
1, 42708, Note_off_c, 1, 77, 0
1, 42708, Note_off_c, 1, 62, 0
1, 42780, Note_on_c, 1, 74, 127
1, 42804, Note_off_c, 1, 53, 0
1, 42828, Note_off_c, 1, 74, 0
1, 42840, Note_on_c, 1, 72, 127
1, 42888, Note_off_c, 1, 72, 0
1, 42900, Note_on_c, 1, 55, 127
1, 43080, Note_on_c, 1, 81, 127
1, 43128, Note_off_c, 1, 81, 0
1, 43284, Note_off_c, 1, 55, 0
1, 43380, Note_on_c, 1, 73, 127
1, 43764, Note_off_c, 1, 73, 0
1, 43860, Note_on_c, 1, 74, 127
1, 43860, Note_on_c, 1, 65, 127
1, 43860, Note_on_c, 1, 58, 127
1, 43908, Note_off_c, 1, 74, 0
1, 43920, Note_on_c, 1, 72, 127
1, 43968, Note_off_c, 1, 72, 0
1, 43980, Note_on_c, 1, 70, 127
1, 44028, Note_off_c, 1, 70, 0
1, 44040, Note_on_c, 1, 69, 127
1, 44088, Note_off_c, 1, 69, 0
1, 44100, Note_on_c, 1, 67, 127
1, 44148, Note_off_c, 1, 65, 0
1, 44220, Note_on_c, 1, 64, 127
1, 44244, Note_off_c, 1, 67, 0
1, 44268, Note_off_c, 1, 64, 0
1, 44280, Note_on_c, 1, 62, 127
1, 44328, Note_off_c, 1, 62, 0
1, 44340, Note_on_c, 1, 76, 127
1, 44340, Note_on_c, 1, 61, 127
1, 44388, Note_off_c, 1, 58, 0
1, 44436, Note_off_c, 1, 61, 0
1, 44460, Note_on_c, 1, 57, 127
1, 44484, Note_off_c, 1, 76, 0
1, 44508, Note_off_c, 1, 57, 0
1, 44520, Note_on_c, 1, 70, 127
1, 44520, Note_on_c, 1, 55, 127
1, 44568, Note_off_c, 1, 70, 0
1, 44568, Note_off_c, 1, 55, 0
1, 44580, Note_on_c, 1, 69, 127
1, 44580, Note_on_c, 1, 53, 127
1, 44628, Note_off_c, 1, 69, 0
1, 44628, Note_off_c, 1, 53, 0
1, 44640, Note_on_c, 1, 67, 127
1, 44640, Note_on_c, 1, 52, 127
1, 44688, Note_off_c, 1, 67, 0
1, 44688, Note_off_c, 1, 52, 0
1, 44700, Note_on_c, 1, 65, 127
1, 44700, Note_on_c, 1, 50, 127
1, 44748, Note_off_c, 1, 65, 0
1, 44748, Note_off_c, 1, 50, 0
1, 44760, Note_on_c, 1, 64, 127
1, 44760, Note_on_c, 1, 49, 127
1, 44808, Note_off_c, 1, 64, 0
1, 44808, Note_off_c, 1, 49, 0
1, 44820, Note_on_c, 1, 65, 127
1, 44820, Note_on_c, 1, 50, 127
1, 44880, Note_on_c, 1, 69, 127
1, 44916, Note_off_c, 1, 50, 0
1, 44928, Note_off_c, 1, 69, 0
1, 44940, Note_on_c, 1, 73, 127
1, 44940, Note_on_c, 1, 55, 127
1, 44988, Note_off_c, 1, 73, 0
1, 45000, Note_on_c, 1, 74, 127
1, 45012, Note_off_c, 1, 65, 0
1, 45036, Note_off_c, 1, 55, 0
1, 45048, Note_off_c, 1, 74, 0
1, 45060, Note_on_c, 1, 64, 127
1, 45060, Note_on_c, 1, 61, 127
1, 45060, Note_on_c, 1, 57, 127
1, 45156, Note_off_c, 1, 57, 0
1, 45180, Note_on_c, 1, 45, 127
1, 45204, Note_off_c, 1, 64, 0
1, 45240, Note_on_c, 1, 62, 127
1, 45252, Note_off_c, 1, 61, 0
1, 45276, Note_off_c, 1, 45, 0
1, 45288, Note_off_c, 1, 62, 0
1, 45300, Note_on_c, 1, 62, 127
1, 45300, Note_on_c, 1, 50, 127
1, 45348, Note_off_c, 1, 62, 0
1, 45360, Note_on_c, 1, 66, 127
1, 45360, Note_on_c, 1, 57, 127
1, 45384, Note_off_c, 1, 66, 0
1, 45384, Note_off_c, 1, 57, 0
1, 45390, Note_on_c, 1, 67, 127
1, 45390, Note_on_c, 1, 58, 127
1, 45414, Note_off_c, 1, 67, 0
1, 45414, Note_off_c, 1, 58, 0
1, 45420, Note_on_c, 1, 69, 127
1, 45420, Note_on_c, 1, 60, 127
1, 45444, Note_off_c, 1, 69, 0
1, 45444, Note_off_c, 1, 60, 0
1, 45600, Note_on_c, 1, 64, 127
1, 45600, Note_on_c, 1, 55, 127
1, 45624, Note_off_c, 1, 55, 0
1, 45720, Note_on_c, 1, 73, 127
1, 45744, Note_off_c, 1, 64, 0
1, 45768, Note_off_c, 1, 73, 0
1, 45780, Note_on_c, 1, 74, 127
1, 45972, Note_off_c, 1, 50, 0
1, 46020, Note_on_c, 1, 38, 127
1, 46068, Note_off_c, 1, 74, 0
1, 46116, Note_off_c, 1, 38, 0
1, 46116, End_track
0, 0, End_of_file