0, 0, Header, 1, 1, 480
1, 0, Start_track
1, 0, Title_t, "Test"
1, 0, Tempo, 500000
1, 0, Instrument_name_t, "Church Organ"
1, 32, Note_on_c, 1, 48, 127
1, 32, Note_on_c, 1, 36, 127
1, 281, Note_on_c, 1, 72, 127
1, 528, Note_off_c, 1, 72, 0
1, 531, Note_on_c, 1, 74, 127
1, 778, Note_off_c, 1, 74, 0
1, 780, Note_on_c, 1, 76, 127
1, 1030, Note_on_c, 1, 67, 127
1, 1274, Note_off_c, 1, 76, 0
1, 1524, Note_off_c, 1, 67, 0
1, 1529, Note_on_c, 1, 65, 127
1, 2023, Note_off_c, 1, 65, 0
1, 2028, Note_on_c, 1, 64, 127
1, 2278, Note_on_c, 1, 71, 127
1, 2400, Note_off_c, 1, 71, 0
1, 2403, Note_on_c, 1, 69, 127
1, 2525, Note_off_c, 1, 69, 0
1, 2756, Note_off_c, 1, 64, 0
1, 2777, Note_on_c, 1, 70, 127
1, 3505, Note_off_c, 1, 70, 0
1, 3526, Note_on_c, 1, 60, 127
1, 4774, Note_off_c, 1, 60, 0
1, 5024, Note_on_c, 1, 62, 127
1, 5518, Note_off_c, 1, 62, 0
1, 5523, Note_on_c, 1, 57, 127
1, 5770, Note_off_c, 1, 57, 0
1, 6022, Note_on_c, 1, 59, 127
1, 7010, Note_off_c, 1, 59, 0
1, 7020, Note_on_c, 1, 55, 127
1, 8016, Note_off_c, 1, 48, 0
1, 8515, Note_off_c, 1, 55, 0
1, 9004, Note_off_c, 1, 36, 0
1, 9267, Note_on_c, 1, 53, 127
1, 9514, Note_off_c, 1, 53, 0
1, 9516, Note_on_c, 1, 52, 127
1, 9763, Note_off_c, 1, 52, 0
1, 9766, Note_on_c, 1, 50, 127
1, 10013, Note_off_c, 1, 50, 0
1, 10390, Note_on_c, 1, 47, 127
1, 10512, Note_off_c, 1, 47, 0
1, 11014, Note_on_c, 1, 43, 127
1, 11264, Note_off_c, 1, 43, 0
1, 11264, Note_on_c, 1, 46, 127
1, 11511, Note_off_c, 1, 46, 0
1, 11513, Note_on_c, 1, 45, 127
1, 11760, Note_off_c, 1, 45, 0
1, 12012, Note_on_c, 1, 41, 127
1, 15002, Note_off_c, 1, 41, 0
1, 15008, Note_on_c, 1, 40, 127
1, 15508, Note_off_c, 1, 40, 0
1, 16006, Note_on_c, 1, 38, 127
1, 17001, Note_off_c, 1, 38, 0
1, 20000, Note_on_c, 1, 42, 127
1, 20496, Note_off_c, 1, 42, 0
1, 24742, Note_on_c, 1, 54, 127
1, 24989, Note_off_c, 1, 54, 0
1, 26988, Note_on_c, 1, 61, 127
1, 27235, Note_off_c, 1, 61, 0
1, 27488, Note_on_c, 1, 49, 127
1, 27984, Note_off_c, 1, 49, 0
1, 29984, Note_on_c, 1, 44, 127
1, 30480, Note_off_c, 1, 44, 0
1, 33977, Note_on_c, 1, 68, 127
1, 35225, Note_off_c, 1, 68, 0
1, 37472, Note_on_c, 1, 47, 127
1, 37472, Note_on_c, 1, 65, 127
1, 37472, Note_on_c, 1, 62, 127
1, 37719, Note_off_c, 1, 47, 0
1, 37721, Note_on_c, 1, 50, 127
1, 37968, Note_off_c, 1, 65, 0
1, 37968, Note_off_c, 1, 50, 0
1, 37971, Note_on_c, 1, 49, 127
1, 37971, Note_on_c, 1, 64, 127
1, 38200, Note_off_c, 1, 62, 0
1, 38218, Note_off_c, 1, 49, 0
1, 38220, Note_on_c, 1, 52, 127
1, 38467, Note_off_c, 1, 52, 0
1, 38470, Note_on_c, 1, 45, 127
1, 38470, Note_on_c, 1, 61, 127
1, 38699, Note_off_c, 1, 64, 0
1, 38720, Note_on_c, 1, 55, 127
1, 38964, Note_off_c, 1, 45, 0
1, 38964, Note_off_c, 1, 61, 0
1, 38969, Note_on_c, 1, 57, 127
1, 39214, Note_off_c, 1, 55, 0
1, 39476, Note_on_c, 1, 53, 127
1, 39723, Note_off_c, 1, 53, 0
1, 40217, Note_off_c, 1, 57, 0
1, 40297, Note_on_c, 1, 69, 127
1, 40544, Note_off_c, 1, 69, 0
1, 40547, Note_on_c, 1, 71, 127
1, 40794, Note_off_c, 1, 71, 0
1, 40796, Note_on_c, 1, 73, 127
1, 41043, Note_off_c, 1, 73, 0
1, 41046, Note_on_c, 1, 74, 127
1, 41046, Note_on_c, 1, 46, 127
1, 41293, Note_off_c, 1, 74, 0
1, 41296, Note_on_c, 1, 77, 127
1, 41795, Note_on_c, 1, 72, 127
1, 42034, Note_off_c, 1, 46, 0
1, 42042, Note_off_c, 1, 72, 0
1, 42044, Note_on_c, 1, 43, 127
1, 42044, Note_on_c, 1, 70, 127
1, 42284, Note_off_c, 1, 77, 0
1, 42544, Note_on_c, 1, 75, 127
1, 42791, Note_off_c, 1, 75, 0
1, 43292, Note_on_c, 1, 79, 127
1, 43539, Note_off_c, 1, 79, 0
1, 44038, Note_off_c, 1, 43, 0
1, 44280, Note_off_c, 1, 70, 0
1, 45040, Note_on_c, 1, 54, 127
1, 45536, Note_off_c, 1, 54, 0
1, 45788, Note_on_c, 1, 68, 127
1, 46035, Note_off_c, 1, 68, 0
1, 47036, Note_on_c, 1, 73, 127
1, 47036, Note_on_c, 1, 52, 127
1, 47036, Note_on_c, 1, 69, 127
1, 47036, Note_on_c, 1, 45, 127
1, 47283, Note_off_c, 1, 73, 0
1, 47286, Note_on_c, 1, 74, 127
1, 47532, Note_off_c, 1, 52, 0
1, 47533, Note_off_c, 1, 74, 0
1, 47536, Note_on_c, 1, 76, 127
1, 47536, Note_on_c, 1, 57, 127
1, 47764, Note_off_c, 1, 69, 0
1, 47785, Note_on_c, 1, 67, 127
1, 48024, Note_off_c, 1, 45, 0
1, 48032, Note_off_c, 1, 67, 0
1, 48035, Note_on_c, 1, 65, 127
1, 48035, Note_on_c, 1, 50, 127
1, 48264, Note_off_c, 1, 76, 0
1, 48524, Note_off_c, 1, 57, 0
1, 48534, Note_on_c, 1, 58, 127
1, 49030, Note_off_c, 1, 58, 0
1, 49530, Note_off_c, 1, 65, 0
1, 49532, Note_on_c, 1, 70, 127
1, 49532, Note_on_c, 1, 55, 127
1, 50026, Note_off_c, 1, 70, 0
1, 50028, Note_off_c, 1, 55, 0
1, 50032, Note_on_c, 1, 53, 127
1, 50032, Note_on_c, 1, 77, 127
1, 50279, Note_off_c, 1, 53, 0
1, 50765, Note_off_c, 1, 50, 0
1, 50780, Note_on_c, 1, 48, 127
1, 51027, Note_off_c, 1, 48, 0
1, 51030, Note_on_c, 1, 47, 127
1, 51280, Note_off_c, 1, 77, 0
1, 51280, Note_on_c, 1, 56, 127
1, 51527, Note_off_c, 1, 56, 0
1, 51758, Note_off_c, 1, 47, 0
1, 52028, Note_on_c, 1, 44, 127
1, 52522, Note_off_c, 1, 44, 0
1, 52528, Note_on_c, 1, 72, 127
1, 52528, Note_on_c, 1, 54, 127
1, 52775, Note_off_c, 1, 72, 0
1, 52775, Note_off_c, 1, 54, 0
1, 52777, Note_on_c, 1, 71, 127
1, 53024, Note_off_c, 1, 71, 0
1, 53526, Note_on_c, 1, 81, 127
1, 53773, Note_off_c, 1, 81, 0
1, 53776, Note_on_c, 1, 80, 127
1, 54023, Note_off_c, 1, 80, 0
1, 54524, Note_on_c, 1, 59, 127
1, 54771, Note_off_c, 1, 59, 0
1, 54774, Note_on_c, 1, 61, 127
1, 55021, Note_off_c, 1, 61, 0
1, 55024, Note_on_c, 1, 62, 127
1, 55273, Note_on_c, 1, 79, 127
1, 55520, Note_off_c, 1, 79, 0
1, 56272, Note_on_c, 1, 66, 127
1, 56519, Note_off_c, 1, 62, 0
1, 56519, Note_off_c, 1, 66, 0
1, 56521, Note_on_c, 1, 64, 127
1, 56768, Note_off_c, 1, 64, 0
1, 59267, Note_on_c, 1, 60, 127
1, 59514, Note_off_c, 1, 60, 0
1, 59766, Note_on_c, 1, 75, 127
1, 60013, Note_off_c, 1, 75, 0
1, 68011, Note_on_c, 1, 68, 127
1, 68739, Note_off_c, 1, 68, 0
1, 70008, Note_on_c, 1, 46, 127
1, 71750, Note_off_c, 1, 46, 0
1, 71755, Note_on_c, 1, 51, 127
1, 72002, Note_off_c, 1, 51, 0
1, 73752, Note_on_c, 1, 63, 127
1, 73999, Note_off_c, 1, 63, 0
1, 74001, Note_on_c, 1, 43, 127
1, 75743, Note_off_c, 1, 43, 0
1, 76014, Note_on_c, 1, 41, 127
1, 76014, Note_on_c, 1, 60, 127
1, 76014, Note_on_c, 1, 69, 127
1, 76264, Note_on_c, 1, 48, 127
1, 76511, Note_off_c, 1, 48, 0
1, 76513, Note_on_c, 1, 50, 127
1, 76760, Note_off_c, 1, 50, 0
1, 76763, Note_on_c, 1, 52, 127
1, 77010, Note_off_c, 1, 52, 0
1, 77012, Note_on_c, 1, 53, 127
1, 77262, Note_off_c, 1, 41, 0
1, 77262, Note_on_c, 1, 57, 127
1, 77506, Note_off_c, 1, 53, 0
1, 77509, Note_off_c, 1, 60, 0
1, 77509, Note_off_c, 1, 57, 0
1, 77512, Note_on_c, 1, 65, 127
1, 78008, Note_off_c, 1, 69, 0
1, 78011, Note_on_c, 1, 47, 127
1, 78011, Note_on_c, 1, 67, 127
1, 78240, Note_off_c, 1, 65, 0
1, 78507, Note_off_c, 1, 47, 0
1, 78510, Note_on_c, 1, 64, 127
1, 78510, Note_on_c, 1, 43, 127
1, 78757, Note_off_c, 1, 64, 0
1, 78760, Note_on_c, 1, 62, 127
1, 79006, Note_off_c, 1, 43, 0
1, 79007, Note_off_c, 1, 62, 0
1, 79506, Note_off_c, 1, 67, 0
1, 79758, Note_on_c, 1, 72, 127
1, 80005, Note_off_c, 1, 72, 0
1, 80632, Note_on_c, 1, 55, 127
1, 80754, Note_off_c, 1, 55, 0
1, 81256, Note_on_c, 1, 74, 127
1, 81378, Note_off_c, 1, 74, 0
1, 82753, Note_on_c, 1, 59, 127
1, 83000, Note_off_c, 1, 59, 0
1, 83752, Note_on_c, 1, 71, 127
1, 83999, Note_off_c, 1, 71, 0
1, 84001, Note_on_c, 1, 45, 127
1, 84001, Note_on_c, 1, 72, 127
1, 84251, Note_on_c, 1, 69, 127
1, 84497, Note_off_c, 1, 45, 0
1, 84498, Note_off_c, 1, 69, 0
1, 84500, Note_on_c, 1, 64, 127
1, 84500, Note_on_c, 1, 48, 127
1, 84500, Note_on_c, 1, 57, 127
1, 84747, Note_off_c, 1, 64, 0
1, 84750, Note_on_c, 1, 67, 127
1, 84996, Note_off_c, 1, 48, 0
1, 84997, Note_off_c, 1, 67, 0
1, 85000, Note_on_c, 1, 66, 127
1, 85000, Note_on_c, 1, 50, 127
1, 85494, Note_off_c, 1, 66, 0
1, 85496, Note_off_c, 1, 50, 0
1, 85499, Note_on_c, 1, 54, 127
1, 85499, Note_on_c, 1, 62, 127
1, 85743, Note_off_c, 1, 72, 0
1, 85995, Note_off_c, 1, 57, 0
1, 85995, Note_off_c, 1, 54, 0
1, 85998, Note_on_c, 1, 43, 127
1, 85998, Note_on_c, 1, 71, 127
1, 86497, Note_on_c, 1, 52, 127
1, 86744, Note_off_c, 1, 52, 0
1, 86996, Note_on_c, 1, 55, 127
1, 87246, Note_off_c, 1, 43, 0
1, 87246, Note_on_c, 1, 59, 127
1, 87490, Note_off_c, 1, 55, 0
1, 87493, Note_off_c, 1, 62, 0
1, 87493, Note_off_c, 1, 71, 0
1, 87493, Note_off_c, 1, 59, 0
1, 87496, Note_on_c, 1, 73, 127
1, 87496, Note_on_c, 1, 52, 127
1, 87496, Note_on_c, 1, 67, 127
1, 87618, Note_off_c, 1, 73, 0
1, 87620, Note_on_c, 1, 74, 127
1, 87742, Note_off_c, 1, 74, 0
1, 87743, Note_off_c, 1, 52, 0
1, 87745, Note_on_c, 1, 76, 127
1, 87745, Note_on_c, 1, 55, 127
1, 87992, Note_off_c, 1, 76, 0
1, 87992, Note_off_c, 1, 55, 0
1, 87995, Note_on_c, 1, 49, 127
1, 87995, Note_on_c, 1, 69, 127
1, 88224, Note_off_c, 1, 67, 0
1, 88491, Note_off_c, 1, 49, 0
1, 88494, Note_on_c, 1, 65, 127
1, 88494, Note_on_c, 1, 45, 127
1, 88741, Note_off_c, 1, 65, 0
1, 88744, Note_on_c, 1, 64, 127
1, 88990, Note_off_c, 1, 45, 0
1, 88991, Note_off_c, 1, 64, 0
1, 88993, Note_on_c, 1, 50, 127
1, 89489, Note_off_c, 1, 50, 0
1, 89490, Note_off_c, 1, 69, 0
1, 89492, Note_on_c, 1, 70, 127
1, 89492, Note_on_c, 1, 48, 127
1, 89739, Note_off_c, 1, 70, 0
1, 89742, Note_on_c, 1, 72, 127
1, 89988, Note_off_c, 1, 48, 0
1, 89989, Note_off_c, 1, 72, 0
1, 89992, Note_on_c, 1, 46, 127
1, 90488, Note_off_c, 1, 46, 0
1, 91240, Note_on_c, 1, 77, 127
1, 91487, Note_off_c, 1, 77, 0
1, 91489, Note_on_c, 1, 43, 127
1, 91985, Note_off_c, 1, 43, 0
1, 94484, Note_on_c, 1, 53, 127
1, 94731, Note_off_c, 1, 53, 0
1, 94984, Note_on_c, 1, 57, 127
1, 95231, Note_off_c, 1, 57, 0
1, 95233, Note_on_c, 1, 60, 127
1, 95480, Note_off_c, 1, 60, 0
1, 95483, Note_on_c, 1, 52, 127
1, 95483, Note_on_c, 1, 70, 127
1, 95483, Note_on_c, 1, 67, 127
1, 95730, Note_off_c, 1, 52, 0
1, 95732, Note_on_c, 1, 55, 127
1, 95979, Note_off_c, 1, 70, 0
1, 95979, Note_off_c, 1, 55, 0
1, 95982, Note_on_c, 1, 54, 127
1, 95982, Note_on_c, 1, 69, 127
1, 96211, Note_off_c, 1, 67, 0
1, 96229, Note_off_c, 1, 54, 0
1, 96232, Note_on_c, 1, 57, 127
1, 96479, Note_off_c, 1, 57, 0
1, 96481, Note_on_c, 1, 66, 127
1, 96481, Note_on_c, 1, 50, 127
1, 96710, Note_off_c, 1, 69, 0
1, 96731, Note_on_c, 1, 60, 127
1, 96975, Note_off_c, 1, 66, 0
1, 96975, Note_off_c, 1, 50, 0
1, 96980, Note_on_c, 1, 62, 127
1, 97225, Note_off_c, 1, 60, 0
1, 97480, Note_on_c, 1, 58, 127
1, 97727, Note_off_c, 1, 58, 0
1, 98228, Note_off_c, 1, 62, 0
1, 98260, Note_on_c, 1, 74, 127
1, 98507, Note_off_c, 1, 74, 0
1, 98510, Note_on_c, 1, 76, 127
1, 98757, Note_off_c, 1, 76, 0
1, 98760, Note_on_c, 1, 78, 127
1, 99007, Note_off_c, 1, 78, 0
1, 99009, Note_on_c, 1, 79, 127
1, 99009, Note_on_c, 1, 51, 127
1, 99256, Note_off_c, 1, 79, 0
1, 99259, Note_on_c, 1, 82, 127
1, 99505, Note_off_c, 1, 51, 0
1, 99758, Note_on_c, 1, 77, 127
1, 100005, Note_off_c, 1, 77, 0
1, 100008, Note_on_c, 1, 48, 127
1, 100008, Note_on_c, 1, 75, 127
1, 100247, Note_off_c, 1, 82, 0
1, 100507, Note_on_c, 1, 80, 127
1, 100754, Note_off_c, 1, 80, 0
1, 101256, Note_on_c, 1, 84, 127
1, 101503, Note_off_c, 1, 84, 0
1, 102002, Note_off_c, 1, 48, 0
1, 102244, Note_off_c, 1, 75, 0
1, 103003, Note_on_c, 1, 59, 127
1, 103499, Note_off_c, 1, 59, 0
1, 103752, Note_on_c, 1, 73, 127
1, 103999, Note_off_c, 1, 73, 0
1, 105000, Note_on_c, 1, 78, 127
1, 105000, Note_on_c, 1, 57, 127
1, 105000, Note_on_c, 1, 74, 127
1, 105000, Note_on_c, 1, 50, 127
1, 105247, Note_off_c, 1, 78, 0
1, 105249, Note_on_c, 1, 79, 127
1, 105496, Note_off_c, 1, 57, 0
1, 105496, Note_off_c, 1, 79, 0
1, 105499, Note_on_c, 1, 81, 127
1, 105499, Note_on_c, 1, 62, 127
1, 105728, Note_off_c, 1, 74, 0
1, 105748, Note_on_c, 1, 72, 127
1, 105988, Note_off_c, 1, 50, 0
1, 105995, Note_off_c, 1, 72, 0
1, 105998, Note_on_c, 1, 70, 127
1, 105998, Note_on_c, 1, 55, 127
1, 106227, Note_off_c, 1, 81, 0
1, 106487, Note_off_c, 1, 62, 0
1, 106492, Note_off_c, 1, 70, 0
1, 106497, Note_on_c, 1, 63, 127
1, 106993, Note_off_c, 1, 63, 0
1, 107496, Note_on_c, 1, 75, 127
1, 107496, Note_on_c, 1, 60, 127
1, 107990, Note_off_c, 1, 75, 0
1, 107992, Note_off_c, 1, 60, 0
1, 107995, Note_on_c, 1, 58, 127
1, 107995, Note_on_c, 1, 82, 127
1, 108242, Note_off_c, 1, 58, 0
1, 108728, Note_off_c, 1, 55, 0
1, 108744, Note_on_c, 1, 53, 127
1, 108991, Note_off_c, 1, 53, 0
1, 108993, Note_on_c, 1, 52, 127
1, 109243, Note_off_c, 1, 82, 0
1, 109243, Note_on_c, 1, 61, 127
1, 109490, Note_off_c, 1, 61, 0
1, 109721, Note_off_c, 1, 52, 0
1, 109992, Note_on_c, 1, 49, 127
1, 110304, Note_off_c, 1, 49, 0
1, 110491, Note_on_c, 1, 77, 127
1, 110491, Note_on_c, 1, 59, 127
1, 110738, Note_off_c, 1, 77, 0
1, 110738, Note_off_c, 1, 59, 0
1, 110740, Note_on_c, 1, 76, 127
1, 110987, Note_off_c, 1, 76, 0
1, 111739, Note_on_c, 1, 80, 127
1, 111986, Note_off_c, 1, 80, 0
1, 111988, Note_on_c, 1, 47, 127
1, 112300, Note_off_c, 1, 47, 0
1, 113486, Note_on_c, 1, 48, 127
1, 113733, Note_off_c, 1, 48, 0
1, 113985, Note_on_c, 1, 45, 127
1, 114973, Note_off_c, 1, 45, 0
1, 115483, Note_on_c, 1, 67, 127
1, 116731, Note_on_c, 1, 71, 127
1, 116978, Note_off_c, 1, 71, 0
1, 117477, Note_off_c, 1, 67, 0
1, 117979, Note_on_c, 1, 41, 127
1, 117979, Note_on_c, 1, 69, 127
1, 118226, Note_off_c, 1, 41, 0
1, 119731, Note_off_c, 1, 69, 0
1, 120990, Note_on_c, 1, 52, 127
1, 120990, Note_on_c, 1, 64, 127
1, 120990, Note_on_c, 1, 67, 127
1, 120990, Note_on_c, 1, 72, 127
1, 121237, Note_off_c, 1, 52, 0
1, 121240, Note_on_c, 1, 55, 127
1, 121487, Note_off_c, 1, 55, 0
1, 121489, Note_on_c, 1, 48, 127
1, 121736, Note_off_c, 1, 48, 0
1, 121988, Note_on_c, 1, 43, 127
1, 122235, Note_off_c, 1, 64, 0
1, 122235, Note_off_c, 1, 67, 0
1, 122488, Note_on_c, 1, 50, 127
1, 122488, Note_on_c, 1, 65, 127
1, 122735, Note_off_c, 1, 50, 0
1, 122735, Note_off_c, 1, 65, 0
1, 122987, Note_on_c, 1, 62, 127
1, 123234, Note_off_c, 1, 62, 0
1, 123720, Note_off_c, 1, 72, 0
1, 123736, Note_on_c, 1, 71, 127
1, 123982, Note_off_c, 1, 43, 0
1, 123983, Note_off_c, 1, 71, 0
1, 125498, Note_on_c, 1, 60, 127
1, 125997, Note_off_c, 1, 60, 0
1, 126003, Note_on_c, 1, 57, 127
1, 126512, Note_on_c, 1, 53, 127
1, 126512, Note_on_c, 1, 74, 127
1, 126764, Note_off_c, 1, 53, 0
1, 126764, Note_off_c, 1, 74, 0
1, 126767, Note_on_c, 1, 76, 127
1, 127019, Note_off_c, 1, 76, 0
1, 127022, Note_on_c, 1, 77, 127
1, 127274, Note_off_c, 1, 77, 0
1, 127277, Note_on_c, 1, 81, 127
1, 127529, Note_off_c, 1, 81, 0
1, 128038, Note_off_c, 1, 57, 0
1, 128041, Note_on_c, 1, 70, 127
1, 128299, Note_on_c, 1, 69, 127
1, 128553, Note_off_c, 1, 69, 0
1, 129837, Note_off_c, 1, 70, 0
1, 131734, Note_on_c, 1, 56, 127
1, 132306, Note_off_c, 1, 56, 0
1, 132308, Note_on_c, 1, 67, 127
1, 132308, Note_on_c, 1, 72, 127
1, 132308, Note_on_c, 1, 60, 127
1, 132308, Note_on_c, 1, 64, 127
1, 132308, Note_on_c, 1, 48, 127
1, 132308, Note_on_c, 1, 55, 127
1, 136910, Note_off_c, 1, 67, 0
1, 136910, Note_off_c, 1, 72, 0
1, 136910, Note_off_c, 1, 60, 0
1, 136910, Note_off_c, 1, 64, 0
1, 136910, Note_off_c, 1, 48, 0
1, 136910, Note_off_c, 1, 55, 0
1, 137259, Note_on_c, 1, 67, 127
1, 137430, Note_off_c, 1, 67, 0
1, 137433, Note_on_c, 1, 65, 127
1, 137604, Note_off_c, 1, 65, 0
1, 137607, Note_on_c, 1, 67, 127
1, 137950, Note_off_c, 1, 67, 0
1, 137953, Note_on_c, 1, 60, 127
1, 138296, Note_off_c, 1, 60, 0
1, 138299, Note_on_c, 1, 69, 127
1, 138384, Note_off_c, 1, 69, 0
1, 138387, Note_on_c, 1, 67, 127
1, 138472, Note_off_c, 1, 67, 0
1, 138475, Note_on_c, 1, 69, 127
1, 138560, Note_off_c, 1, 69, 0
1, 138564, Note_on_c, 1, 67, 127
1, 138649, Note_off_c, 1, 67, 0
1, 138652, Note_on_c, 1, 69, 127
1, 138995, Note_off_c, 1, 69, 0
1, 138998, Note_on_c, 1, 67, 127
1, 139861, Note_off_c, 1, 67, 0
1, 140033, Note_on_c, 1, 65, 127
1, 140204, Note_off_c, 1, 65, 0
1, 140207, Note_on_c, 1, 64, 127
1, 140378, Note_off_c, 1, 64, 0
1, 140381, Note_on_c, 1, 65, 127
1, 140552, Note_off_c, 1, 65, 0
1, 140555, Note_on_c, 1, 67, 127
1, 140726, Note_off_c, 1, 67, 0
1, 140730, Note_on_c, 1, 64, 127
1, 140901, Note_off_c, 1, 64, 0
1, 140904, Note_on_c, 1, 65, 127
1, 141075, Note_off_c, 1, 65, 0
1, 141078, Note_on_c, 1, 62, 127
1, 141249, Note_off_c, 1, 62, 0
1, 141252, Note_on_c, 1, 65, 127
1, 141423, Note_off_c, 1, 65, 0
1, 141426, Note_on_c, 1, 64, 127
1, 141597, Note_off_c, 1, 64, 0
1, 141601, Note_on_c, 1, 65, 127
1, 141772, Note_off_c, 1, 65, 0
1, 141775, Note_on_c, 1, 67, 127
1, 141946, Note_off_c, 1, 67, 0
1, 141949, Note_on_c, 1, 69, 127
1, 142120, Note_off_c, 1, 69, 0
1, 142123, Note_on_c, 1, 65, 127
1, 142294, Note_off_c, 1, 65, 0
1, 142297, Note_on_c, 1, 67, 127
1, 142468, Note_off_c, 1, 67, 0
1, 142472, Note_on_c, 1, 64, 127
1, 142643, Note_off_c, 1, 64, 0
1, 142646, Note_on_c, 1, 62, 127
1, 142817, Note_off_c, 1, 62, 0
1, 142820, Note_on_c, 1, 72, 127
1, 142820, Note_on_c, 1, 64, 127
1, 142991, Note_off_c, 1, 72, 0
1, 142991, Note_off_c, 1, 64, 0
1, 142994, Note_on_c, 1, 71, 127
1, 142994, Note_on_c, 1, 65, 127
1, 143165, Note_off_c, 1, 71, 0
1, 143165, Note_off_c, 1, 65, 0
1, 143168, Note_on_c, 1, 64, 127
1, 143168, Note_on_c, 1, 72, 127
1, 143339, Note_off_c, 1, 64, 0
1, 143343, Note_on_c, 1, 65, 127
1, 143513, Note_off_c, 1, 72, 0
1, 143514, Note_off_c, 1, 65, 0
1, 143517, Note_on_c, 1, 62, 127
1, 143517, Note_on_c, 1, 67, 127
1, 143688, Note_off_c, 1, 62, 0
1, 143691, Note_on_c, 1, 64, 127
1, 143862, Note_off_c, 1, 67, 0
1, 143862, Note_off_c, 1, 64, 0
1, 143865, Note_on_c, 1, 76, 127
1, 143865, Note_on_c, 1, 60, 127
1, 143950, Note_off_c, 1, 76, 0
1, 143954, Note_on_c, 1, 74, 127
1, 144039, Note_off_c, 1, 60, 0
1, 144039, Note_off_c, 1, 74, 0
1, 144042, Note_on_c, 1, 76, 127
1, 144042, Note_on_c, 1, 59, 127
1, 144127, Note_off_c, 1, 76, 0
1, 144130, Note_on_c, 1, 74, 127
1, 144215, Note_off_c, 1, 74, 0
1, 144216, Note_off_c, 1, 59, 0
1, 144219, Note_on_c, 1, 60, 127
1, 144219, Note_on_c, 1, 76, 127
1, 144390, Note_off_c, 1, 60, 0
1, 144393, Note_on_c, 1, 62, 127
1, 144564, Note_off_c, 1, 76, 0
1, 144564, Note_off_c, 1, 62, 0
1, 144567, Note_on_c, 1, 60, 127
1, 144567, Note_on_c, 1, 74, 127
1, 144738, Note_off_c, 1, 60, 0
1, 144741, Note_on_c, 1, 62, 127
1, 144912, Note_off_c, 1, 62, 0
1, 144916, Note_on_c, 1, 59, 127
1, 145087, Note_off_c, 1, 59, 0
1, 145264, Note_on_c, 1, 57, 127
1, 145435, Note_off_c, 1, 57, 0
1, 145438, Note_off_c, 1, 74, 0
1, 145612, Note_on_c, 1, 72, 127
1, 145612, Note_on_c, 1, 60, 127
1, 145783, Note_off_c, 1, 72, 0
1, 145783, Note_off_c, 1, 60, 0
1, 145787, Note_on_c, 1, 71, 127
1, 145787, Note_on_c, 1, 62, 127
1, 145958, Note_off_c, 1, 71, 0
1, 145958, Note_off_c, 1, 62, 0
1, 145961, Note_on_c, 1, 72, 127
1, 145961, Note_on_c, 1, 64, 127
1, 146132, Note_off_c, 1, 72, 0
1, 146132, Note_off_c, 1, 64, 0
1, 146135, Note_on_c, 1, 74, 127
1, 146135, Note_on_c, 1, 66, 127
1, 146306, Note_off_c, 1, 74, 0
1, 146306, Note_off_c, 1, 66, 0
1, 146309, Note_on_c, 1, 71, 127
1, 146309, Note_on_c, 1, 67, 127
1, 146480, Note_off_c, 1, 71, 0
1, 146483, Note_on_c, 1, 72, 127
1, 146654, Note_off_c, 1, 72, 0
1, 146658, Note_on_c, 1, 69, 127
1, 146829, Note_off_c, 1, 69, 0
1, 147003, Note_off_c, 1, 67, 0
1, 147006, Note_on_c, 1, 71, 127
1, 147006, Note_on_c, 1, 66, 127
1, 147177, Note_off_c, 1, 71, 0
1, 147177, Note_off_c, 1, 66, 0
1, 147180, Note_on_c, 1, 72, 127
1, 147180, Note_on_c, 1, 64, 127
1, 147351, Note_off_c, 1, 72, 0
1, 147351, Note_off_c, 1, 64, 0
1, 147354, Note_on_c, 1, 67, 127
1, 147354, Note_on_c, 1, 74, 127
1, 147439, Note_off_c, 1, 67, 0
1, 147443, Note_on_c, 1, 66, 127
1, 147528, Note_off_c, 1, 74, 0
1, 147528, Note_off_c, 1, 66, 0
1, 147531, Note_on_c, 1, 67, 127
1, 147531, Note_on_c, 1, 76, 127
1, 147616, Note_off_c, 1, 67, 0
1, 147620, Note_on_c, 1, 66, 127
1, 147705, Note_off_c, 1, 76, 0
1, 147705, Note_off_c, 1, 66, 0
1, 147708, Note_on_c, 1, 67, 127
1, 147708, Note_on_c, 1, 72, 127
1, 147793, Note_off_c, 1, 67, 0
1, 147796, Note_on_c, 1, 66, 127
1, 147881, Note_off_c, 1, 66, 0
1, 147882, Note_off_c, 1, 72, 0
1, 147885, Note_on_c, 1, 64, 127
1, 147885, Note_on_c, 1, 74, 127
1, 147970, Note_off_c, 1, 64, 0
1, 147973, Note_on_c, 1, 66, 127
1, 148058, Note_off_c, 1, 66, 0
1, 148059, Note_off_c, 1, 74, 0
1, 148062, Note_on_c, 1, 71, 127
1, 148062, Note_on_c, 1, 67, 127
1, 148233, Note_off_c, 1, 71, 0
1, 148236, Note_on_c, 1, 69, 127
1, 148407, Note_off_c, 1, 69, 0
1, 148410, Note_on_c, 1, 55, 127
1, 148581, Note_off_c, 1, 55, 0
1, 148584, Note_on_c, 1, 72, 127
1, 148584, Note_on_c, 1, 53, 127
1, 148755, Note_off_c, 1, 72, 0
1, 148755, Note_off_c, 1, 53, 0
1, 149107, Note_on_c, 1, 48, 127
1, 149452, Note_off_c, 1, 48, 0
1, 149455, Note_on_c, 1, 57, 127
1, 149540, Note_off_c, 1, 57, 0
1, 149629, Note_off_c, 1, 67, 0
1, 149632, Note_on_c, 1, 64, 127
1, 149806, Note_off_c, 1, 64, 0
1, 149809, Note_on_c, 1, 65, 127
1, 150157, Note_on_c, 1, 70, 127
1, 150329, Note_off_c, 1, 65, 0
1, 150331, Note_on_c, 1, 62, 127
1, 150502, Note_off_c, 1, 62, 0
1, 150677, Note_off_c, 1, 70, 0
1, 151374, Note_on_c, 1, 52, 127
1, 151545, Note_off_c, 1, 52, 0
1, 151548, Note_on_c, 1, 53, 127
1, 151548, Note_on_c, 1, 71, 127
1, 151548, Note_on_c, 1, 67, 127
1, 151719, Note_off_c, 1, 53, 0
1, 151722, Note_on_c, 1, 55, 127
1, 151893, Note_off_c, 1, 71, 0
1, 151893, Note_off_c, 1, 55, 0
1, 151897, Note_on_c, 1, 52, 127
1, 151897, Note_on_c, 1, 72, 127
1, 152068, Note_off_c, 1, 52, 0
1, 152242, Note_off_c, 1, 67, 0
1, 152245, Note_on_c, 1, 65, 127
1, 152245, Note_on_c, 1, 50, 127
1, 152416, Note_off_c, 1, 65, 0
1, 152416, Note_off_c, 1, 50, 0
1, 152419, Note_on_c, 1, 69, 127
1, 152590, Note_off_c, 1, 69, 0
1, 152591, Note_off_c, 1, 72, 0
1, 152593, Note_on_c, 1, 67, 127
1, 152593, Note_on_c, 1, 52, 127
1, 152593, Note_on_c, 1, 72, 127
1, 152764, Note_off_c, 1, 67, 0
1, 152764, Note_off_c, 1, 52, 0
1, 152768, Note_on_c, 1, 69, 127
1, 152768, Note_on_c, 1, 53, 127
1, 152939, Note_off_c, 1, 69, 0
1, 152939, Note_off_c, 1, 53, 0
1, 152942, Note_on_c, 1, 55, 127
1, 152942, Note_on_c, 1, 62, 127
1, 153113, Note_off_c, 1, 55, 0
1, 153116, Note_on_c, 1, 57, 127
1, 153287, Note_off_c, 1, 72, 0
1, 153287, Note_off_c, 1, 57, 0
1, 153290, Note_on_c, 1, 71, 127
1, 153635, Note_off_c, 1, 71, 0
1, 153636, Note_off_c, 1, 62, 0
1, 153639, Note_on_c, 1, 52, 127
1, 153639, Note_on_c, 1, 60, 127
1, 153639, Note_on_c, 1, 72, 127
1, 153810, Note_off_c, 1, 52, 0
1, 153813, Note_on_c, 1, 50, 127
1, 153982, Note_off_c, 1, 60, 0
1, 153984, Note_off_c, 1, 50, 0
1, 153987, Note_on_c, 1, 79, 127
1, 154158, Note_off_c, 1, 79, 0
1, 154161, Note_on_c, 1, 77, 127
1, 154161, Note_on_c, 1, 53, 127
1, 154332, Note_off_c, 1, 77, 0
1, 154332, Note_off_c, 1, 53, 0
1, 154681, Note_off_c, 1, 72, 0
1, 155032, Note_on_c, 1, 81, 127
1, 155117, Note_off_c, 1, 81, 0
1, 155557, Note_on_c, 1, 71, 127
1, 155557, Note_on_c, 1, 55, 127
1, 155728, Note_off_c, 1, 71, 0
1, 155728, Note_off_c, 1, 55, 0
1, 155732, Note_on_c, 1, 53, 127
1, 155732, Note_on_c, 1, 72, 127
1, 155732, Note_on_c, 1, 79, 127
1, 155903, Note_off_c, 1, 53, 0
1, 155906, Note_on_c, 1, 55, 127
1, 156077, Note_off_c, 1, 72, 0
1, 156077, Note_off_c, 1, 55, 0
1, 156080, Note_on_c, 1, 52, 127
1, 156080, Note_on_c, 1, 67, 127
1, 156251, Note_off_c, 1, 52, 0
1, 156425, Note_off_c, 1, 67, 0
1, 156426, Note_off_c, 1, 79, 0
1, 156428, Note_on_c, 1, 50, 127
1, 156428, Note_on_c, 1, 78, 127
1, 156428, Note_on_c, 1, 74, 127
1, 156599, Note_off_c, 1, 50, 0
1, 156603, Note_on_c, 1, 49, 127
1, 156773, Note_off_c, 1, 78, 0
1, 156774, Note_off_c, 1, 49, 0
1, 156777, Note_on_c, 1, 81, 127
1, 156948, Note_off_c, 1, 81, 0
1, 156951, Note_on_c, 1, 79, 127
1, 156951, Note_on_c, 1, 52, 127
1, 157122, Note_off_c, 1, 74, 0
1, 157122, Note_off_c, 1, 79, 0
1, 157122, Note_off_c, 1, 52, 0
1, 157125, Note_on_c, 1, 54, 127
1, 157125, Note_on_c, 1, 81, 127
1, 157125, Note_on_c, 1, 72, 127
1, 157296, Note_off_c, 1, 54, 0
1, 157299, Note_on_c, 1, 55, 127
1, 157470, Note_off_c, 1, 81, 0
1, 157470, Note_off_c, 1, 55, 0
1, 157474, Note_on_c, 1, 52, 127
1, 157474, Note_on_c, 1, 74, 127
1, 157645, Note_off_c, 1, 52, 0
1, 157819, Note_off_c, 1, 72, 0
1, 157819, Note_off_c, 1, 74, 0
1, 157822, Note_on_c, 1, 83, 127
1, 157822, Note_on_c, 1, 55, 127
1, 157822, Note_on_c, 1, 71, 127
1, 157907, Note_off_c, 1, 83, 0
1, 157910, Note_on_c, 1, 81, 127
1, 157995, Note_off_c, 1, 81, 0
1, 157996, Note_off_c, 1, 55, 0
1, 157999, Note_on_c, 1, 54, 127
1, 158170, Note_off_c, 1, 71, 0
1, 158170, Note_off_c, 1, 54, 0
1, 158173, Note_on_c, 1, 74, 127
1, 158344, Note_off_c, 1, 74, 0
1, 158347, Note_on_c, 1, 72, 127
1, 158347, Note_on_c, 1, 57, 127
1, 158518, Note_off_c, 1, 72, 0
1, 158518, Note_off_c, 1, 57, 0
1, 158521, Note_on_c, 1, 55, 127
1, 158521, Note_on_c, 1, 74, 127
1, 158521, Note_on_c, 1, 81, 127
1, 158692, Note_off_c, 1, 55, 0
1, 158696, Note_on_c, 1, 57, 127
1, 158866, Note_off_c, 1, 74, 0
1, 158867, Note_off_c, 1, 57, 0
1, 158870, Note_on_c, 1, 53, 127
1, 158870, Note_on_c, 1, 69, 127
1, 159041, Note_off_c, 1, 53, 0
1, 159215, Note_off_c, 1, 81, 0
1, 159215, Note_off_c, 1, 69, 0
1, 159218, Note_on_c, 1, 52, 127
1, 159218, Note_on_c, 1, 80, 127
1, 159218, Note_on_c, 1, 76, 127
1, 159389, Note_off_c, 1, 52, 0
1, 159392, Note_on_c, 1, 50, 127
1, 159563, Note_off_c, 1, 80, 0
1, 159563, Note_off_c, 1, 50, 0
1, 159567, Note_on_c, 1, 83, 127
1, 159738, Note_off_c, 1, 83, 0
1, 159741, Note_on_c, 1, 81, 127
1, 159741, Note_on_c, 1, 54, 127
1, 159912, Note_off_c, 1, 76, 0
1, 159912, Note_off_c, 1, 81, 0
1, 159912, Note_off_c, 1, 54, 0
1, 159915, Note_on_c, 1, 56, 127
1, 159915, Note_on_c, 1, 83, 127
1, 159915, Note_on_c, 1, 74, 127
1, 160086, Note_off_c, 1, 56, 0
1, 160089, Note_on_c, 1, 57, 127
1, 160260, Note_off_c, 1, 83, 0
1, 160260, Note_off_c, 1, 57, 0
1, 160263, Note_on_c, 1, 54, 127
1, 160263, Note_on_c, 1, 76, 127
1, 160434, Note_off_c, 1, 54, 0
1, 160608, Note_off_c, 1, 76, 0
1, 160609, Note_off_c, 1, 74, 0
1, 160612, Note_on_c, 1, 84, 127
1, 160612, Note_on_c, 1, 57, 127
1, 160612, Note_on_c, 1, 72, 127
1, 160697, Note_off_c, 1, 84, 0
1, 160700, Note_on_c, 1, 83, 127
1, 160785, Note_off_c, 1, 83, 0
1, 160786, Note_off_c, 1, 57, 0
1, 160789, Note_on_c, 1, 56, 127
1, 160960, Note_off_c, 1, 72, 0
1, 160960, Note_off_c, 1, 56, 0
1, 160963, Note_on_c, 1, 76, 127
1, 161134, Note_off_c, 1, 76, 0
1, 161137, Note_on_c, 1, 74, 127
1, 161137, Note_on_c, 1, 59, 127
1, 161308, Note_off_c, 1, 74, 0
1, 161308, Note_off_c, 1, 59, 0
1, 161660, Note_on_c, 1, 55, 127
1, 161660, Note_on_c, 1, 81, 127
1, 161831, Note_off_c, 1, 55, 0
1, 162005, Note_off_c, 1, 81, 0
1, 162008, Note_on_c, 1, 54, 127
1, 162179, Note_off_c, 1, 54, 0
1, 162356, Note_on_c, 1, 52, 127
1, 162527, Note_off_c, 1, 52, 0
1, 163053, Note_on_c, 1, 79, 127
1, 163398, Note_off_c, 1, 79, 0
1, 163402, Note_on_c, 1, 60, 127
1, 163573, Note_off_c, 1, 60, 0
1, 163924, Note_on_c, 1, 71, 127
1, 163924, Note_on_c, 1, 62, 127
1, 164095, Note_off_c, 1, 71, 0
1, 164095, Note_off_c, 1, 62, 0
1, 164098, Note_on_c, 1, 60, 127
1, 164098, Note_on_c, 1, 78, 127
1, 164098, Note_on_c, 1, 69, 127
1, 164269, Note_off_c, 1, 60, 0
1, 164273, Note_on_c, 1, 62, 127
1, 164443, Note_off_c, 1, 78, 0
1, 164443, Note_off_c, 1, 69, 0
1, 164444, Note_off_c, 1, 62, 0
1, 164447, Note_on_c, 1, 59, 127
1, 164447, Note_on_c, 1, 79, 127
1, 164447, Note_on_c, 1, 71, 127
1, 164618, Note_off_c, 1, 59, 0
1, 164621, Note_on_c, 1, 60, 127
1, 164792, Note_off_c, 1, 60, 0
1, 164795, Note_on_c, 1, 62, 127
1, 165138, Note_off_c, 1, 79, 0
1, 165138, Note_off_c, 1, 71, 0
1, 165141, Note_on_c, 1, 78, 127
1, 165141, Note_on_c, 1, 69, 127
1, 165312, Note_off_c, 1, 78, 0
1, 165312, Note_off_c, 1, 69, 0
1, 165315, Note_on_c, 1, 76, 127
1, 165315, Note_on_c, 1, 67, 127
1, 165486, Note_off_c, 1, 76, 0
1, 165486, Note_off_c, 1, 67, 0
1, 165840, Note_off_c, 1, 62, 0
1, 165843, Note_on_c, 1, 79, 127
1, 165843, Note_on_c, 1, 62, 127
1, 165843, Note_on_c, 1, 50, 127
1, 165928, Note_off_c, 1, 79, 0
1, 165931, Note_on_c, 1, 78, 127
1, 166016, Note_off_c, 1, 78, 0
1, 166191, Note_off_c, 1, 62, 0
1, 166191, Note_off_c, 1, 50, 0
1, 166194, Note_on_c, 1, 79, 127
1, 166194, Note_on_c, 1, 55, 127
1, 166194, Note_on_c, 1, 71, 127
1, 166537, Note_off_c, 1, 79, 0
1, 166537, Note_off_c, 1, 55, 0
1, 166540, Note_on_c, 1, 76, 127
1, 166540, Note_on_c, 1, 67, 127
1, 166711, Note_off_c, 1, 76, 0
1, 166711, Note_off_c, 1, 67, 0
1, 166714, Note_on_c, 1, 74, 127
1, 166714, Note_on_c, 1, 65, 127
1, 166880, Note_off_c, 1, 71, 0
1, 166885, Note_off_c, 1, 74, 0
1, 166885, Note_off_c, 1, 65, 0
1, 166888, Note_on_c, 1, 67, 127
1, 166888, Note_on_c, 1, 73, 127
1, 167059, Note_off_c, 1, 67, 0
1, 167062, Note_on_c, 1, 69, 127
1, 167233, Note_off_c, 1, 73, 0
1, 167233, Note_off_c, 1, 69, 0
1, 167237, Note_on_c, 1, 65, 127
1, 167237, Note_on_c, 1, 74, 127
1, 167408, Note_off_c, 1, 65, 0
1, 167411, Note_on_c, 1, 67, 127
1, 167582, Note_off_c, 1, 67, 0
1, 167585, Note_on_c, 1, 64, 127
1, 167757, Note_off_c, 1, 74, 0
1, 167759, Note_on_c, 1, 79, 127
1, 167930, Note_off_c, 1, 79, 0
1, 167933, Note_on_c, 1, 82, 127
1, 168104, Note_off_c, 1, 82, 0
1, 168108, Note_on_c, 1, 81, 127
1, 168279, Note_off_c, 1, 81, 0
1, 168456, Note_on_c, 1, 77, 127
1, 168456, Note_on_c, 1, 69, 127
1, 168627, Note_off_c, 1, 77, 0
1, 168627, Note_off_c, 1, 69, 0
1, 168630, Note_on_c, 1, 76, 127
1, 168801, Note_off_c, 1, 76, 0
1, 168976, Note_off_c, 1, 64, 0
1, 168979, Note_on_c, 1, 64, 127
1, 168979, Note_on_c, 1, 73, 127
1, 169150, Note_on_c, 1, 67, 127
1, 169319, Note_off_c, 1, 64, 0
1, 169321, Note_off_c, 1, 67, 0
1, 169322, Note_off_c, 1, 73, 0
1, 169324, Note_on_c, 1, 65, 127
1, 169324, Note_on_c, 1, 62, 127
1, 169324, Note_on_c, 1, 74, 127
1, 169495, Note_off_c, 1, 65, 0
1, 169499, Note_on_c, 1, 67, 127
1, 169669, Note_off_c, 1, 62, 0
1, 169670, Note_off_c, 1, 67, 0
1, 169673, Note_on_c, 1, 69, 127
1, 169673, Note_on_c, 1, 53, 127
1, 169844, Note_off_c, 1, 69, 0
1, 169847, Note_on_c, 1, 70, 127
1, 170018, Note_off_c, 1, 74, 0
1, 170018, Note_off_c, 1, 53, 0
1, 170018, Note_off_c, 1, 70, 0
1, 170021, Note_on_c, 1, 67, 127
1, 170021, Note_on_c, 1, 73, 127
1, 170021, Note_on_c, 1, 57, 127
1, 170192, Note_off_c, 1, 67, 0
1, 170195, Note_on_c, 1, 69, 127
1, 170364, Note_off_c, 1, 73, 0
1, 170366, Note_off_c, 1, 57, 0
1, 170366, Note_off_c, 1, 69, 0
1, 170370, Note_on_c, 1, 65, 127
1, 170370, Note_on_c, 1, 50, 127
1, 170541, Note_off_c, 1, 65, 0
1, 170544, Note_on_c, 1, 64, 127
1, 170713, Note_off_c, 1, 50, 0
1, 170715, Note_off_c, 1, 64, 0
1, 170718, Note_on_c, 1, 74, 127
1, 170718, Note_on_c, 1, 65, 127
1, 170889, Note_off_c, 1, 74, 0
1, 170889, Note_off_c, 1, 65, 0
1, 170892, Note_on_c, 1, 73, 127
1, 170892, Note_on_c, 1, 67, 127
1, 171063, Note_off_c, 1, 73, 0
1, 171063, Note_off_c, 1, 67, 0
1, 171066, Note_on_c, 1, 65, 127
1, 171066, Note_on_c, 1, 74, 127
1, 171237, Note_off_c, 1, 65, 0
1, 171241, Note_on_c, 1, 67, 127
1, 171411, Note_off_c, 1, 74, 0
1, 171412, Note_off_c, 1, 67, 0
1, 171415, Note_on_c, 1, 64, 127
1, 171415, Note_on_c, 1, 69, 127
1, 171586, Note_off_c, 1, 64, 0
1, 171589, Note_on_c, 1, 65, 127
1, 171760, Note_off_c, 1, 69, 0
1, 171760, Note_off_c, 1, 65, 0
1, 171763, Note_on_c, 1, 77, 127
1, 171763, Note_on_c, 1, 62, 127
1, 171848, Note_off_c, 1, 77, 0
1, 171852, Note_on_c, 1, 76, 127
1, 171937, Note_off_c, 1, 62, 0
1, 171937, Note_off_c, 1, 76, 0
1, 171940, Note_on_c, 1, 77, 127
1, 171940, Note_on_c, 1, 60, 127
1, 172025, Note_off_c, 1, 77, 0
1, 172028, Note_on_c, 1, 76, 127
1, 172113, Note_off_c, 1, 76, 0
1, 172114, Note_off_c, 1, 60, 0
1, 172117, Note_on_c, 1, 62, 127
1, 172117, Note_on_c, 1, 77, 127
1, 172288, Note_off_c, 1, 62, 0
1, 172291, Note_on_c, 1, 64, 127
1, 172462, Note_off_c, 1, 77, 0
1, 172462, Note_off_c, 1, 64, 0
1, 172465, Note_on_c, 1, 62, 127
1, 172465, Note_on_c, 1, 76, 127
1, 172636, Note_off_c, 1, 62, 0
1, 172639, Note_on_c, 1, 64, 127
1, 172810, Note_off_c, 1, 64, 0
1, 172814, Note_on_c, 1, 60, 127
1, 172985, Note_off_c, 1, 60, 0
1, 173162, Note_on_c, 1, 59, 127
1, 173333, Note_off_c, 1, 59, 0
1, 173336, Note_off_c, 1, 76, 0
1, 173510, Note_on_c, 1, 74, 127
1, 173510, Note_on_c, 1, 62, 127
1, 173681, Note_off_c, 1, 74, 0
1, 173681, Note_off_c, 1, 62, 0
1, 173685, Note_on_c, 1, 72, 127
1, 173685, Note_on_c, 1, 64, 127
1, 173856, Note_off_c, 1, 72, 0
1, 173856, Note_off_c, 1, 64, 0
1, 173859, Note_on_c, 1, 74, 127
1, 173859, Note_on_c, 1, 66, 127
1, 174030, Note_off_c, 1, 74, 0
1, 174030, Note_off_c, 1, 66, 0
1, 174033, Note_on_c, 1, 76, 127
1, 174033, Note_on_c, 1, 68, 127
1, 174204, Note_off_c, 1, 76, 0
1, 174204, Note_off_c, 1, 68, 0
1, 174207, Note_on_c, 1, 72, 127
1, 174207, Note_on_c, 1, 69, 127
1, 174378, Note_off_c, 1, 72, 0
1, 174381, Note_on_c, 1, 74, 127
1, 174552, Note_off_c, 1, 74, 0
1, 174556, Note_on_c, 1, 71, 127
1, 174727, Note_off_c, 1, 71, 0
1, 174901, Note_off_c, 1, 69, 0
1, 174904, Note_on_c, 1, 72, 127
1, 174904, Note_on_c, 1, 68, 127
1, 175075, Note_off_c, 1, 72, 0
1, 175075, Note_off_c, 1, 68, 0
1, 175078, Note_on_c, 1, 74, 127
1, 175078, Note_on_c, 1, 66, 127
1, 175249, Note_off_c, 1, 74, 0
1, 175249, Note_off_c, 1, 66, 0
1, 175252, Note_on_c, 1, 69, 127
1, 175252, Note_on_c, 1, 76, 127
1, 175337, Note_off_c, 1, 69, 0
1, 175341, Note_on_c, 1, 68, 127
1, 175426, Note_off_c, 1, 76, 0
1, 175426, Note_off_c, 1, 68, 0
1, 175429, Note_on_c, 1, 69, 127
1, 175429, Note_on_c, 1, 77, 127
1, 175514, Note_off_c, 1, 69, 0
1, 175518, Note_on_c, 1, 68, 127
1, 175603, Note_off_c, 1, 77, 0
1, 175603, Note_off_c, 1, 68, 0
1, 175606, Note_on_c, 1, 69, 127
1, 175606, Note_on_c, 1, 74, 127
1, 175691, Note_off_c, 1, 69, 0
1, 175694, Note_on_c, 1, 68, 127
1, 175779, Note_off_c, 1, 68, 0
1, 175780, Note_off_c, 1, 74, 0
1, 175783, Note_on_c, 1, 66, 127
1, 175783, Note_on_c, 1, 76, 127
1, 175868, Note_off_c, 1, 66, 0
1, 175871, Note_on_c, 1, 68, 127
1, 175956, Note_off_c, 1, 68, 0
1, 175957, Note_off_c, 1, 76, 0
1, 175960, Note_on_c, 1, 69, 127
1, 175960, Note_on_c, 1, 72, 127
1, 176131, Note_off_c, 1, 69, 0
1, 176134, Note_on_c, 1, 68, 127
1, 176305, Note_off_c, 1, 72, 0
1, 176305, Note_off_c, 1, 68, 0
1, 176308, Note_on_c, 1, 76, 127
1, 176308, Note_on_c, 1, 69, 127
1, 176479, Note_off_c, 1, 76, 0
1, 176479, Note_off_c, 1, 69, 0
1, 176482, Note_on_c, 1, 74, 127
1, 176482, Note_on_c, 1, 71, 127
1, 176653, Note_off_c, 1, 74, 0
1, 176653, Note_off_c, 1, 71, 0
1, 176656, Note_on_c, 1, 69, 127
1, 176656, Note_on_c, 1, 76, 127
1, 176827, Note_off_c, 1, 69, 0
1, 176831, Note_on_c, 1, 71, 127
1, 177001, Note_off_c, 1, 76, 0
1, 177002, Note_off_c, 1, 71, 0
1, 177005, Note_on_c, 1, 67, 127
1, 177005, Note_on_c, 1, 72, 127
1, 177176, Note_off_c, 1, 67, 0
1, 177179, Note_on_c, 1, 69, 127
1, 177350, Note_off_c, 1, 72, 0
1, 177350, Note_off_c, 1, 69, 0
1, 177353, Note_on_c, 1, 66, 127
1, 177353, Note_on_c, 1, 81, 127
1, 177524, Note_off_c, 1, 66, 0
1, 177527, Note_on_c, 1, 64, 127
1, 177698, Note_off_c, 1, 81, 0
1, 177698, Note_off_c, 1, 64, 0
1, 177702, Note_on_c, 1, 66, 127
1, 177702, Note_on_c, 1, 72, 127
1, 177873, Note_off_c, 1, 66, 0
1, 177876, Note_on_c, 1, 67, 127
1, 178047, Note_off_c, 1, 72, 0
1, 178047, Note_off_c, 1, 67, 0
1, 178050, Note_on_c, 1, 66, 127
1, 178050, Note_on_c, 1, 69, 127
1, 178221, Note_off_c, 1, 66, 0
1, 178224, Note_on_c, 1, 67, 127
1, 178395, Note_off_c, 1, 69, 0
1, 178395, Note_off_c, 1, 67, 0
1, 178398, Note_on_c, 1, 64, 127
1, 178398, Note_on_c, 1, 74, 127
1, 178569, Note_off_c, 1, 64, 0
1, 178573, Note_on_c, 1, 66, 127
1, 178743, Note_off_c, 1, 74, 0
1, 178744, Note_off_c, 1, 66, 0
1, 178747, Note_on_c, 1, 72, 127
1, 178747, Note_on_c, 1, 67, 127
1, 178814, Note_on_c, 1, 71, 127
1, 178817, Note_off_c, 1, 72, 0
1, 178886, Note_off_c, 1, 71, 0
1, 178918, Note_off_c, 1, 67, 0
1, 178921, Note_on_c, 1, 66, 127
1, 179092, Note_off_c, 1, 66, 0
1, 179095, Note_on_c, 1, 74, 127
1, 179266, Note_off_c, 1, 74, 0
1, 179269, Note_on_c, 1, 72, 127
1, 179269, Note_on_c, 1, 69, 127
1, 179440, Note_off_c, 1, 72, 0
1, 179440, Note_off_c, 1, 69, 0
1, 179444, Note_on_c, 1, 67, 127
1, 179444, Note_on_c, 1, 74, 127
1, 179615, Note_off_c, 1, 67, 0
1, 179618, Note_on_c, 1, 69, 127
1, 179789, Note_off_c, 1, 74, 0
1, 179789, Note_off_c, 1, 69, 0
1, 179792, Note_on_c, 1, 65, 127
1, 179792, Note_on_c, 1, 71, 127
1, 179963, Note_off_c, 1, 65, 0
1, 179966, Note_on_c, 1, 67, 127
1, 180137, Note_off_c, 1, 71, 0
1, 180137, Note_off_c, 1, 67, 0
1, 180140, Note_on_c, 1, 64, 127
1, 180140, Note_on_c, 1, 79, 127
1, 180311, Note_off_c, 1, 64, 0
1, 180315, Note_on_c, 1, 62, 127
1, 180485, Note_off_c, 1, 79, 0
1, 180486, Note_off_c, 1, 62, 0
1, 180489, Note_on_c, 1, 64, 127
1, 180489, Note_on_c, 1, 70, 127
1, 180660, Note_off_c, 1, 64, 0
1, 180663, Note_on_c, 1, 65, 127
1, 180834, Note_off_c, 1, 70, 0
1, 180834, Note_off_c, 1, 65, 0
1, 180837, Note_on_c, 1, 64, 127
1, 180837, Note_on_c, 1, 67, 127
1, 181008, Note_off_c, 1, 64, 0
1, 181011, Note_on_c, 1, 65, 127
1, 181182, Note_off_c, 1, 67, 0
1, 181182, Note_off_c, 1, 65, 0
1, 181186, Note_on_c, 1, 62, 127
1, 181186, Note_on_c, 1, 72, 127
1, 181357, Note_off_c, 1, 62, 0
1, 181360, Note_on_c, 1, 64, 127
1, 181531, Note_off_c, 1, 72, 0
1, 181531, Note_off_c, 1, 64, 0
1, 181534, Note_on_c, 1, 70, 127
1, 181534, Note_on_c, 1, 65, 127
1, 181596, Note_off_c, 1, 70, 0
1, 181599, Note_on_c, 1, 69, 127
1, 181661, Note_off_c, 1, 69, 0
1, 181708, Note_off_c, 1, 65, 0
1, 181711, Note_on_c, 1, 64, 127
1, 181882, Note_off_c, 1, 64, 0
1, 181885, Note_on_c, 1, 74, 127
1, 181885, Note_on_c, 1, 65, 127
1, 182056, Note_off_c, 1, 74, 0
1, 182056, Note_off_c, 1, 65, 0
1, 182059, Note_on_c, 1, 72, 127
1, 182059, Note_on_c, 1, 67, 127
1, 182230, Note_off_c, 1, 72, 0
1, 182230, Note_off_c, 1, 67, 0
1, 182233, Note_on_c, 1, 74, 127
1, 182233, Note_on_c, 1, 65, 127
1, 182404, Note_off_c, 1, 74, 0
1, 182404, Note_off_c, 1, 65, 0
1, 182408, Note_on_c, 1, 76, 127
1, 182408, Note_on_c, 1, 67, 127
1, 182579, Note_off_c, 1, 76, 0
1, 182579, Note_off_c, 1, 67, 0
1, 182582, Note_on_c, 1, 72, 127
1, 182582, Note_on_c, 1, 64, 127
1, 182753, Note_off_c, 1, 72, 0
1, 182753, Note_off_c, 1, 64, 0
1, 182756, Note_on_c, 1, 74, 127
1, 182756, Note_on_c, 1, 65, 127
1, 182927, Note_off_c, 1, 74, 0
1, 182927, Note_off_c, 1, 65, 0
1, 182930, Note_on_c, 1, 71, 127
1, 182930, Note_on_c, 1, 62, 127
1, 183101, Note_off_c, 1, 71, 0
1, 183104, Note_on_c, 1, 69, 127
1, 183275, Note_off_c, 1, 62, 0
1, 183275, Note_off_c, 1, 69, 0
1, 183279, Note_on_c, 1, 71, 127
1, 183279, Note_on_c, 1, 67, 127
1, 183450, Note_off_c, 1, 71, 0
1, 183450, Note_off_c, 1, 67, 0
1, 183453, Note_on_c, 1, 72, 127
1, 183453, Note_on_c, 1, 65, 127
1, 183624, Note_off_c, 1, 72, 0
1, 183624, Note_off_c, 1, 65, 0
1, 183627, Note_on_c, 1, 71, 127
1, 183627, Note_on_c, 1, 67, 127
1, 183798, Note_off_c, 1, 71, 0
1, 183798, Note_off_c, 1, 67, 0
1, 183801, Note_on_c, 1, 72, 127
1, 183801, Note_on_c, 1, 69, 127
1, 183972, Note_off_c, 1, 72, 0
1, 183972, Note_off_c, 1, 69, 0
1, 183975, Note_on_c, 1, 69, 127
1, 183975, Note_on_c, 1, 65, 127
1, 184146, Note_off_c, 1, 69, 0
1, 184146, Note_off_c, 1, 65, 0
1, 184150, Note_on_c, 1, 71, 127
1, 184150, Note_on_c, 1, 67, 127
1, 184321, Note_off_c, 1, 71, 0
1, 184321, Note_off_c, 1, 67, 0
1, 184324, Note_on_c, 1, 64, 127
1, 184324, Note_on_c, 1, 67, 127
1, 184495, Note_off_c, 1, 64, 0
1, 184498, Note_on_c, 1, 62, 127
1, 184669, Note_off_c, 1, 67, 0
1, 184669, Note_off_c, 1, 62, 0
1, 184672, Note_on_c, 1, 72, 127
1, 184672, Note_on_c, 1, 64, 127
1, 184843, Note_off_c, 1, 72, 0
1, 184843, Note_off_c, 1, 64, 0
1, 184846, Note_on_c, 1, 71, 127
1, 184846, Note_on_c, 1, 65, 127
1, 185017, Note_off_c, 1, 71, 0
1, 185017, Note_off_c, 1, 65, 0
1, 185021, Note_on_c, 1, 72, 127
1, 185021, Note_on_c, 1, 64, 127
1, 185192, Note_off_c, 1, 72, 0
1, 185192, Note_off_c, 1, 64, 0
1, 185195, Note_on_c, 1, 74, 127
1, 185195, Note_on_c, 1, 65, 127
1, 185366, Note_off_c, 1, 74, 0
1, 185366, Note_off_c, 1, 65, 0
1, 185369, Note_on_c, 1, 70, 127
1, 185369, Note_on_c, 1, 62, 127
1, 185540, Note_off_c, 1, 70, 0
1, 185540, Note_off_c, 1, 62, 0
1, 185543, Note_on_c, 1, 72, 127
1, 185543, Note_on_c, 1, 64, 127
1, 185714, Note_off_c, 1, 72, 0
1, 185714, Note_off_c, 1, 64, 0
1, 185717, Note_on_c, 1, 69, 127
1, 185717, Note_on_c, 1, 60, 127
1, 185888, Note_off_c, 1, 69, 0
1, 185892, Note_on_c, 1, 67, 127
1, 186062, Note_off_c, 1, 60, 0
1, 186063, Note_off_c, 1, 67, 0
1, 186066, Note_on_c, 1, 69, 127
1, 186066, Note_on_c, 1, 65, 127
1, 186237, Note_off_c, 1, 69, 0
1, 186237, Note_off_c, 1, 65, 0
1, 186240, Note_on_c, 1, 70, 127
1, 186240, Note_on_c, 1, 64, 127
1, 186411, Note_off_c, 1, 70, 0
1, 186411, Note_off_c, 1, 64, 0
1, 186414, Note_on_c, 1, 69, 127
1, 186414, Note_on_c, 1, 65, 127
1, 186585, Note_off_c, 1, 69, 0
1, 186585, Note_off_c, 1, 65, 0
1, 186588, Note_on_c, 1, 70, 127
1, 186588, Note_on_c, 1, 67, 127
1, 186759, Note_off_c, 1, 70, 0
1, 186759, Note_off_c, 1, 67, 0
1, 186763, Note_on_c, 1, 67, 127
1, 186763, Note_on_c, 1, 64, 127
1, 186934, Note_off_c, 1, 67, 0
1, 186934, Note_off_c, 1, 64, 0
1, 186937, Note_on_c, 1, 69, 127
1, 186937, Note_on_c, 1, 65, 127
1, 187108, Note_off_c, 1, 69, 0
1, 187108, Note_off_c, 1, 65, 0
1, 187111, Note_on_c, 1, 67, 127
1, 187111, Note_on_c, 1, 62, 127
1, 187249, Note_on_c, 1, 65, 127
1, 187267, Note_off_c, 1, 67, 0
1, 187282, Note_off_c, 1, 62, 0
1, 187285, Note_on_c, 1, 60, 127
1, 187324, Note_on_c, 1, 64, 127
1, 187342, Note_off_c, 1, 65, 0
1, 187407, Note_off_c, 1, 64, 0
1, 187454, Note_off_c, 1, 60, 0
1, 188492, Note_on_c, 1, 59, 127
1, 188663, Note_off_c, 1, 59, 0
1, 188666, Note_on_c, 1, 57, 127
1, 188837, Note_off_c, 1, 57, 0
1, 188840, Note_on_c, 1, 74, 127
1, 189011, Note_off_c, 1, 74, 0
1, 189014, Note_on_c, 1, 72, 127
1, 189185, Note_off_c, 1, 72, 0
1, 189537, Note_on_c, 1, 57, 127
1, 189537, Note_on_c, 1, 65, 127
1, 189708, Note_off_c, 1, 57, 0
1, 189711, Note_on_c, 1, 59, 127
1, 189882, Note_off_c, 1, 65, 0
1, 189882, Note_off_c, 1, 59, 0
1, 189885, Note_on_c, 1, 64, 127
1, 189885, Note_on_c, 1, 60, 127
1, 190056, Note_off_c, 1, 64, 0
1, 190059, Note_on_c, 1, 62, 127
1, 190230, Note_off_c, 1, 62, 0
1, 190234, Note_on_c, 1, 48, 127
1, 190405, Note_off_c, 1, 48, 0
1, 190408, Note_on_c, 1, 65, 127
1, 190408, Note_on_c, 1, 47, 127
1, 190579, Note_off_c, 1, 65, 0
1, 190579, Note_off_c, 1, 47, 0
1, 190927, Note_off_c, 1, 60, 0
1, 190930, Note_on_c, 1, 62, 127
1, 190930, Note_on_c, 1, 43, 127
1, 190930, Note_on_c, 1, 59, 127
1, 191101, Note_off_c, 1, 62, 0
1, 191105, Note_on_c, 1, 64, 127
1, 191275, Note_off_c, 1, 43, 0
1, 191276, Note_off_c, 1, 64, 0
1, 191279, Note_on_c, 1, 52, 127
1, 191279, Note_on_c, 1, 60, 127
1, 191364, Note_off_c, 1, 52, 0
1, 191367, Note_on_c, 1, 50, 127
1, 191452, Note_off_c, 1, 59, 0
1, 191452, Note_off_c, 1, 50, 0
1, 191632, Note_on_c, 1, 57, 127
1, 191804, Note_off_c, 1, 60, 0
1, 192152, Note_off_c, 1, 57, 0
1, 192329, Note_on_c, 1, 55, 127
1, 193020, Note_off_c, 1, 55, 0
1, 193023, Note_on_c, 1, 48, 127
1, 193194, Note_off_c, 1, 48, 0
1, 193198, Note_on_c, 1, 47, 127
1, 193369, Note_off_c, 1, 47, 0
1, 193372, Note_on_c, 1, 54, 127
1, 193717, Note_off_c, 1, 54, 0
1, 193720, Note_on_c, 1, 47, 127
1, 193720, Note_on_c, 1, 59, 127
1, 193720, Note_on_c, 1, 55, 127
1, 193891, Note_off_c, 1, 47, 0
1, 193894, Note_on_c, 1, 48, 127
1, 194065, Note_off_c, 1, 59, 0
1, 194065, Note_off_c, 1, 48, 0
1, 194069, Note_on_c, 1, 45, 127
1, 194069, Note_on_c, 1, 60, 127
1, 194240, Note_off_c, 1, 55, 0
1, 194240, Note_off_c, 1, 45, 0
1, 194243, Note_on_c, 1, 54, 127
1, 194414, Note_off_c, 1, 54, 0
1, 194591, Note_on_c, 1, 52, 127
1, 194762, Note_off_c, 1, 52, 0
1, 194765, Note_on_c, 1, 50, 127
1, 194936, Note_off_c, 1, 50, 0
1, 195111, Note_off_c, 1, 60, 0
1, 195114, Note_on_c, 1, 57, 127
1, 195459, Note_off_c, 1, 57, 0
1, 195462, Note_on_c, 1, 62, 127
1, 196333, Note_on_c, 1, 53, 127
1, 196504, Note_off_c, 1, 62, 0
1, 196504, Note_off_c, 1, 53, 0
1, 196856, Note_on_c, 1, 64, 127
1, 197898, Note_off_c, 1, 64, 0
1, 198249, Note_on_c, 1, 65, 127
1, 199291, Note_off_c, 1, 65, 0
1, 199643, Note_on_c, 1, 67, 127
1, 200337, Note_off_c, 1, 67, 0
1, 200340, Note_on_c, 1, 52, 127
1, 200340, Note_on_c, 1, 69, 127
1, 200340, Note_on_c, 1, 60, 127
1, 200511, Note_off_c, 1, 52, 0
1, 200514, Note_on_c, 1, 53, 127
1, 200685, Note_off_c, 1, 69, 0
1, 200685, Note_off_c, 1, 60, 0
1, 200685, Note_off_c, 1, 53, 0
1, 200688, Note_on_c, 1, 50, 127
1, 200688, Note_on_c, 1, 71, 127
1, 200688, Note_on_c, 1, 62, 127
1, 200859, Note_off_c, 1, 50, 0
1, 200862, Note_on_c, 1, 52, 127
1, 201033, Note_off_c, 1, 71, 0
1, 201033, Note_off_c, 1, 62, 0
1, 201033, Note_off_c, 1, 52, 0
1, 201037, Note_on_c, 1, 48, 127
1, 201037, Note_on_c, 1, 64, 127
1, 201037, Note_on_c, 1, 72, 127
1, 201208, Note_off_c, 1, 48, 0
1, 201211, Note_on_c, 1, 50, 127
1, 201382, Note_off_c, 1, 64, 0
1, 201382, Note_off_c, 1, 50, 0
1, 201385, Note_on_c, 1, 67, 127
1, 201385, Note_on_c, 1, 52, 127
1, 201556, Note_off_c, 1, 67, 0
1, 201556, Note_off_c, 1, 52, 0
1, 201559, Note_on_c, 1, 65, 127
1, 201730, Note_off_c, 1, 65, 0
1, 201908, Note_on_c, 1, 46, 127
1, 202079, Note_off_c, 1, 46, 0
1, 202082, Note_on_c, 1, 45, 127
1, 202082, Note_on_c, 1, 60, 127
1, 202253, Note_off_c, 1, 45, 0
1, 202256, Note_on_c, 1, 43, 127
1, 202427, Note_off_c, 1, 60, 0
1, 202427, Note_off_c, 1, 43, 0
1, 202430, Note_on_c, 1, 69, 127
1, 202430, Note_on_c, 1, 41, 127
1, 202515, Note_off_c, 1, 69, 0
1, 202604, Note_off_c, 1, 41, 0
1, 202607, Note_on_c, 1, 40, 127
1, 202781, Note_off_c, 1, 40, 0
1, 203829, Note_on_c, 1, 38, 127
1, 204000, Note_off_c, 1, 38, 0
1, 204177, Note_on_c, 1, 47, 127
1, 204348, Note_off_c, 1, 47, 0
1, 204874, Note_on_c, 1, 53, 127
1, 205045, Note_off_c, 1, 53, 0
1, 205223, Note_on_c, 1, 62, 127
1, 205223, Note_on_c, 1, 55, 127
1, 205394, Note_off_c, 1, 62, 0
1, 205917, Note_off_c, 1, 72, 0
1, 205919, Note_on_c, 1, 71, 127
1, 206614, Note_off_c, 1, 55, 0
1, 206790, Note_off_c, 1, 71, 0
1, 208010, Note_on_c, 1, 76, 127
1, 208095, Note_off_c, 1, 76, 0
1, 208098, Note_on_c, 1, 74, 127
1, 208183, Note_off_c, 1, 74, 0
1, 208187, Note_on_c, 1, 59, 127
1, 208361, Note_off_c, 1, 59, 0
1, 209406, Note_on_c, 1, 57, 127
1, 209577, Note_off_c, 1, 57, 0
1, 209754, Note_on_c, 1, 72, 127
1, 209754, Note_on_c, 1, 60, 127
1, 209925, Note_off_c, 1, 72, 0
1, 209925, Note_off_c, 1, 60, 0
1, 209929, Note_on_c, 1, 71, 127
1, 209929, Note_on_c, 1, 62, 127
1, 210100, Note_off_c, 1, 71, 0
1, 210100, Note_off_c, 1, 62, 0
1, 210103, Note_on_c, 1, 72, 127
1, 210103, Note_on_c, 1, 64, 127
1, 210274, Note_off_c, 1, 72, 0
1, 210274, Note_off_c, 1, 64, 0
1, 210277, Note_on_c, 1, 74, 127
1, 210277, Note_on_c, 1, 66, 127
1, 210448, Note_off_c, 1, 74, 0
1, 210448, Note_off_c, 1, 66, 0
1, 210451, Note_on_c, 1, 71, 127
1, 210451, Note_on_c, 1, 59, 127
1, 210451, Note_on_c, 1, 67, 127
1, 210622, Note_off_c, 1, 71, 0
1, 210625, Note_on_c, 1, 72, 127
1, 210796, Note_off_c, 1, 59, 0
1, 210796, Note_off_c, 1, 72, 0
1, 210800, Note_on_c, 1, 69, 127
1, 210800, Note_on_c, 1, 60, 127
1, 210971, Note_off_c, 1, 69, 0
1, 211145, Note_off_c, 1, 67, 0
1, 211145, Note_off_c, 1, 60, 0
1, 211148, Note_on_c, 1, 71, 127
1, 211148, Note_on_c, 1, 57, 127
1, 211148, Note_on_c, 1, 67, 127
1, 211319, Note_off_c, 1, 71, 0
1, 211322, Note_on_c, 1, 72, 127
1, 211493, Note_off_c, 1, 57, 0
1, 211493, Note_off_c, 1, 72, 0
1, 211496, Note_on_c, 1, 74, 127
1, 211496, Note_on_c, 1, 62, 127
1, 211667, Note_off_c, 1, 74, 0
1, 211671, Note_on_c, 1, 76, 127
1, 211841, Note_off_c, 1, 62, 0
1, 211842, Note_off_c, 1, 67, 0
1, 211842, Note_off_c, 1, 76, 0
1, 211845, Note_on_c, 1, 72, 127
1, 211845, Note_on_c, 1, 66, 127
1, 211845, Note_on_c, 1, 50, 127
1, 212016, Note_off_c, 1, 72, 0
1, 212019, Note_on_c, 1, 74, 127
1, 212190, Note_off_c, 1, 66, 0
1, 212190, Note_off_c, 1, 50, 0
1, 212190, Note_off_c, 1, 74, 0
1, 212193, Note_on_c, 1, 43, 127
1, 212193, Note_on_c, 1, 71, 127
1, 212193, Note_on_c, 1, 67, 127
1, 212364, Note_off_c, 1, 43, 0
1, 212367, Note_on_c, 1, 42, 127
1, 212538, Note_off_c, 1, 71, 0
1, 212538, Note_off_c, 1, 42, 0
1, 212542, Note_on_c, 1, 74, 127
1, 212713, Note_off_c, 1, 74, 0
1, 212716, Note_on_c, 1, 72, 127
1, 212716, Note_on_c, 1, 45, 127
1, 212887, Note_off_c, 1, 72, 0
1, 212887, Note_off_c, 1, 45, 0
1, 212890, Note_on_c, 1, 47, 127
1, 213061, Note_off_c, 1, 47, 0
1, 213064, Note_on_c, 1, 48, 127
1, 213235, Note_off_c, 1, 67, 0
1, 213235, Note_off_c, 1, 48, 0
1, 213238, Note_on_c, 1, 45, 127
1, 213238, Note_on_c, 1, 67, 127
1, 213409, Note_off_c, 1, 45, 0
1, 213413, Note_on_c, 1, 47, 127
1, 213584, Note_off_c, 1, 47, 0
1, 213587, Note_on_c, 1, 48, 127
1, 213587, Note_on_c, 1, 76, 127
1, 213758, Note_off_c, 1, 48, 0
1, 213927, Note_off_c, 1, 67, 0
1, 214109, Note_on_c, 1, 65, 127
1, 214109, Note_on_c, 1, 50, 127
1, 214280, Note_off_c, 1, 65, 0
1, 214280, Note_off_c, 1, 50, 0
1, 214281, Note_off_c, 1, 76, 0
1, 214284, Note_on_c, 1, 48, 127
1, 214284, Note_on_c, 1, 67, 127
1, 214284, Note_on_c, 1, 74, 127
1, 214455, Note_off_c, 1, 48, 0
1, 214458, Note_on_c, 1, 50, 127
1, 214629, Note_off_c, 1, 67, 0
1, 214629, Note_off_c, 1, 50, 0
1, 214632, Note_on_c, 1, 47, 127
1, 214632, Note_on_c, 1, 62, 127
1, 214803, Note_off_c, 1, 47, 0
1, 214977, Note_off_c, 1, 62, 0
1, 214978, Note_off_c, 1, 74, 0
1, 214980, Note_on_c, 1, 69, 127
1, 214980, Note_on_c, 1, 45, 127
1, 214980, Note_on_c, 1, 72, 127
1, 215065, Note_off_c, 1, 69, 0
1, 215069, Note_on_c, 1, 67, 127
1, 215154, Note_off_c, 1, 45, 0
1, 215154, Note_off_c, 1, 67, 0
1, 215157, Note_on_c, 1, 44, 127
1, 215328, Note_off_c, 1, 72, 0
1, 215328, Note_off_c, 1, 44, 0
1, 215331, Note_on_c, 1, 76, 127
1, 215502, Note_off_c, 1, 76, 0
1, 215506, Note_on_c, 1, 74, 127
1, 215506, Note_on_c, 1, 47, 127
1, 215677, Note_off_c, 1, 74, 0
1, 215677, Note_off_c, 1, 47, 0
1, 215680, Note_on_c, 1, 48, 127
1, 215680, Note_on_c, 1, 76, 127
1, 215680, Note_on_c, 1, 67, 127
1, 215851, Note_off_c, 1, 48, 0
1, 215854, Note_on_c, 1, 50, 127
1, 216025, Note_off_c, 1, 76, 0
1, 216025, Note_off_c, 1, 50, 0
1, 216028, Note_on_c, 1, 47, 127
1, 216028, Note_on_c, 1, 69, 127
1, 216199, Note_off_c, 1, 47, 0
1, 216373, Note_off_c, 1, 69, 0
1, 216374, Note_off_c, 1, 67, 0
1, 216377, Note_on_c, 1, 50, 127
1, 216377, Note_on_c, 1, 65, 127
1, 216377, Note_on_c, 1, 77, 127
1, 216548, Note_off_c, 1, 50, 0
1, 216551, Note_on_c, 1, 48, 127
1, 216722, Note_off_c, 1, 65, 0
1, 216722, Note_off_c, 1, 48, 0
1, 216725, Note_on_c, 1, 69, 127
1, 216896, Note_off_c, 1, 69, 0
1, 216899, Note_on_c, 1, 67, 127
1, 216899, Note_on_c, 1, 52, 127
1, 217070, Note_off_c, 1, 67, 0
1, 217070, Note_off_c, 1, 52, 0
1, 217071, Note_off_c, 1, 77, 0
1, 217073, Note_on_c, 1, 50, 127
1, 217073, Note_on_c, 1, 69, 127
1, 217073, Note_on_c, 1, 76, 127
1, 217244, Note_off_c, 1, 50, 0
1, 217248, Note_on_c, 1, 52, 127
1, 217418, Note_off_c, 1, 69, 0
1, 217419, Note_off_c, 1, 52, 0
1, 217422, Note_on_c, 1, 48, 127
1, 217422, Note_on_c, 1, 64, 127
1, 217593, Note_off_c, 1, 48, 0
1, 217767, Note_off_c, 1, 76, 0
1, 217767, Note_off_c, 1, 64, 0
1, 217770, Note_on_c, 1, 71, 127
1, 217770, Note_on_c, 1, 47, 127
1, 217770, Note_on_c, 1, 74, 127
1, 217855, Note_off_c, 1, 71, 0
1, 217859, Note_on_c, 1, 69, 127
1, 217944, Note_off_c, 1, 47, 0
1, 217944, Note_off_c, 1, 69, 0
1, 217947, Note_on_c, 1, 45, 127
1, 218118, Note_off_c, 1, 74, 0
1, 218118, Note_off_c, 1, 45, 0
1, 218121, Note_on_c, 1, 77, 127
1, 218292, Note_off_c, 1, 77, 0
1, 218295, Note_on_c, 1, 76, 127
1, 218295, Note_on_c, 1, 48, 127
1, 218466, Note_off_c, 1, 76, 0
1, 218466, Note_off_c, 1, 48, 0
1, 218470, Note_on_c, 1, 50, 127
1, 218470, Note_on_c, 1, 77, 127
1, 218470, Note_on_c, 1, 69, 127
1, 218641, Note_off_c, 1, 50, 0
1, 218644, Note_on_c, 1, 52, 127
1, 218815, Note_off_c, 1, 77, 0
1, 218815, Note_off_c, 1, 52, 0
1, 218818, Note_on_c, 1, 48, 127
1, 218818, Note_on_c, 1, 71, 127
1, 218989, Note_off_c, 1, 48, 0
1, 219163, Note_off_c, 1, 71, 0
1, 219164, Note_off_c, 1, 69, 0
1, 219166, Note_on_c, 1, 52, 127
1, 219166, Note_on_c, 1, 67, 127
1, 219166, Note_on_c, 1, 79, 127
1, 219337, Note_off_c, 1, 52, 0
1, 219341, Note_on_c, 1, 50, 127
1, 219511, Note_off_c, 1, 67, 0
1, 219512, Note_off_c, 1, 50, 0
1, 219515, Note_on_c, 1, 71, 127
1, 219686, Note_off_c, 1, 71, 0
1, 219689, Note_on_c, 1, 69, 127
1, 219689, Note_on_c, 1, 53, 127
1, 219860, Note_off_c, 1, 79, 0
1, 219860, Note_off_c, 1, 69, 0
1, 219860, Note_off_c, 1, 53, 0
1, 219863, Note_on_c, 1, 52, 127
1, 219863, Note_on_c, 1, 71, 127
1, 219863, Note_on_c, 1, 77, 127
1, 220034, Note_off_c, 1, 52, 0
1, 220037, Note_on_c, 1, 53, 127
1, 220208, Note_off_c, 1, 71, 0
1, 220208, Note_off_c, 1, 53, 0
1, 220212, Note_on_c, 1, 50, 127
1, 220212, Note_on_c, 1, 67, 127
1, 220383, Note_off_c, 1, 50, 0
1, 220557, Note_off_c, 1, 77, 0
1, 220557, Note_off_c, 1, 67, 0
1, 220560, Note_on_c, 1, 72, 127
1, 220560, Note_on_c, 1, 48, 127
1, 220560, Note_on_c, 1, 76, 127
1, 220633, Note_on_c, 1, 71, 127
1, 220645, Note_off_c, 1, 72, 0
1, 220718, Note_off_c, 1, 71, 0
1, 220734, Note_off_c, 1, 48, 0
1, 220737, Note_on_c, 1, 47, 127
1, 220908, Note_off_c, 1, 76, 0
1, 220908, Note_off_c, 1, 47, 0
1, 220911, Note_on_c, 1, 77, 127
1, 221085, Note_on_c, 1, 50, 127
1, 221256, Note_off_c, 1, 77, 0
1, 221256, Note_off_c, 1, 50, 0
1, 221259, Note_on_c, 1, 52, 127
1, 221259, Note_on_c, 1, 70, 127
1, 221259, Note_on_c, 1, 79, 127
1, 221430, Note_off_c, 1, 52, 0
1, 221434, Note_on_c, 1, 53, 127
1, 221605, Note_off_c, 1, 53, 0
1, 221608, Note_on_c, 1, 50, 127
1, 221779, Note_off_c, 1, 50, 0
1, 221953, Note_off_c, 1, 70, 0
1, 221956, Note_on_c, 1, 69, 127
1, 222130, Note_on_c, 1, 55, 127
1, 222301, Note_off_c, 1, 55, 0
1, 222650, Note_off_c, 1, 79, 0
1, 222653, Note_on_c, 1, 77, 127
1, 222827, Note_on_c, 1, 48, 127
1, 222998, Note_off_c, 1, 48, 0
1, 223001, Note_on_c, 1, 47, 127
1, 223172, Note_off_c, 1, 47, 0
1, 223176, Note_on_c, 1, 45, 127
1, 223347, Note_off_c, 1, 69, 0
1, 223347, Note_off_c, 1, 45, 0
1, 223350, Note_on_c, 1, 67, 127
1, 223524, Note_on_c, 1, 43, 127
1, 223695, Note_off_c, 1, 43, 0
1, 224044, Note_off_c, 1, 77, 0
1, 224047, Note_on_c, 1, 76, 127
1, 224741, Note_off_c, 1, 67, 0
1, 224743, Note_on_c, 1, 65, 127
1, 225438, Note_off_c, 1, 76, 0
1, 225440, Note_on_c, 1, 74, 127
1, 225785, Note_off_c, 1, 74, 0
1, 225789, Note_on_c, 1, 72, 127
1, 226134, Note_off_c, 1, 72, 0
1, 226137, Note_on_c, 1, 71, 127
1, 226311, Note_on_c, 1, 57, 127
1, 226482, Note_off_c, 1, 57, 0
1, 226826, Note_off_c, 1, 71, 0
1, 226830, Note_off_c, 1, 65, 0
1, 226834, Note_on_c, 1, 57, 127
1, 226834, Note_on_c, 1, 64, 127
1, 226834, Note_on_c, 1, 72, 127
1, 227005, Note_off_c, 1, 57, 0
1, 227008, Note_on_c, 1, 59, 127
1, 227179, Note_off_c, 1, 59, 0
1, 227182, Note_on_c, 1, 55, 127
1, 227353, Note_off_c, 1, 55, 0
1, 227528, Note_off_c, 1, 64, 0
1, 227531, Note_on_c, 1, 53, 127
1, 227531, Note_on_c, 1, 62, 127
1, 227702, Note_off_c, 1, 53, 0
1, 227879, Note_on_c, 1, 52, 127
1, 228050, Note_off_c, 1, 52, 0
1, 228225, Note_off_c, 1, 72, 0
1, 228227, Note_on_c, 1, 71, 127
1, 228399, Note_off_c, 1, 62, 0
1, 228402, Note_on_c, 1, 65, 127
1, 228573, Note_off_c, 1, 65, 0
1, 228921, Note_off_c, 1, 71, 0
1, 228924, Note_on_c, 1, 67, 127
1, 228924, Note_on_c, 1, 72, 127
1, 228924, Note_on_c, 1, 52, 127
1, 229100, Note_off_c, 1, 67, 0
1, 229104, Note_on_c, 1, 69, 127
1, 229280, Note_off_c, 1, 72, 0
1, 229280, Note_off_c, 1, 52, 0
1, 229280, Note_off_c, 1, 69, 0
1, 229283, Note_on_c, 1, 65, 127
1, 229283, Note_on_c, 1, 74, 127
1, 229283, Note_on_c, 1, 53, 127
1, 229459, Note_off_c, 1, 65, 0
1, 229462, Note_on_c, 1, 67, 127
1, 229638, Note_off_c, 1, 67, 0
1, 229639, Note_off_c, 1, 74, 0
1, 229639, Note_off_c, 1, 53, 0
1, 229642, Note_on_c, 1, 67, 127
1, 229642, Note_on_c, 1, 64, 127
1, 229642, Note_on_c, 1, 55, 127
1, 229818, Note_off_c, 1, 67, 0
1, 229821, Note_on_c, 1, 72, 127
1, 229998, Note_off_c, 1, 64, 0
1, 229998, Note_off_c, 1, 55, 0
1, 230001, Note_on_c, 1, 62, 127
1, 230001, Note_on_c, 1, 56, 127
1, 230177, Note_off_c, 1, 72, 0
1, 230180, Note_on_c, 1, 71, 127
1, 230356, Note_off_c, 1, 71, 0
1, 230357, Note_off_c, 1, 62, 0
1, 230357, Note_off_c, 1, 56, 0
1, 230359, Note_on_c, 1, 72, 127
1, 230359, Note_on_c, 1, 57, 127
1, 230359, Note_on_c, 1, 60, 127
1, 230530, Note_off_c, 1, 72, 0
1, 230534, Note_on_c, 1, 65, 127
1, 230704, Note_off_c, 1, 57, 0
1, 230705, Note_off_c, 1, 65, 0
1, 230708, Note_on_c, 1, 64, 127
1, 230708, Note_on_c, 1, 55, 127
1, 230879, Note_off_c, 1, 64, 0
1, 230879, Note_off_c, 1, 55, 0
1, 230882, Note_on_c, 1, 62, 127
1, 230882, Note_on_c, 1, 53, 127
1, 231053, Note_off_c, 1, 60, 0
1, 231053, Note_off_c, 1, 62, 0
1, 231053, Note_off_c, 1, 53, 0
1, 231056, Note_on_c, 1, 64, 127
1, 231056, Note_on_c, 1, 55, 127
1, 231056, Note_on_c, 1, 60, 127
1, 231227, Note_off_c, 1, 64, 0
1, 231230, Note_on_c, 1, 65, 127
1, 231401, Note_off_c, 1, 55, 0
1, 231401, Note_off_c, 1, 65, 0
1, 231405, Note_on_c, 1, 62, 127
1, 231405, Note_on_c, 1, 48, 127
1, 231576, Note_off_c, 1, 62, 0
1, 231750, Note_off_c, 1, 48, 0
1, 231753, Note_on_c, 1, 57, 127
1, 231838, Note_off_c, 1, 57, 0
1, 232281, Note_on_c, 1, 67, 127
1, 232452, Note_off_c, 1, 67, 0
1, 233309, Note_off_c, 1, 60, 0
1, 233500, Note_on_c, 1, 53, 127
1, 233671, Note_off_c, 1, 53, 0
1, 233674, Note_on_c, 1, 52, 127
1, 233845, Note_off_c, 1, 52, 0
1, 234197, Note_on_c, 1, 50, 127
1, 234542, Note_off_c, 1, 50, 0
1, 234899, Note_on_c, 1, 64, 127
1, 234899, Note_on_c, 1, 55, 127
1, 234899, Note_on_c, 1, 60, 127
1, 235070, Note_off_c, 1, 64, 0
1, 235073, Note_on_c, 1, 65, 127
1, 235244, Note_off_c, 1, 55, 0
1, 235244, Note_off_c, 1, 65, 0
1, 235247, Note_on_c, 1, 53, 127
1, 235593, Note_off_c, 1, 60, 0
1, 235596, Note_on_c, 1, 62, 127
1, 235596, Note_on_c, 1, 59, 127
1, 235767, Note_off_c, 1, 62, 0
1, 235941, Note_off_c, 1, 53, 0
1, 235941, Note_off_c, 1, 59, 0
1, 235944, Note_on_c, 1, 52, 127
1, 235944, Note_on_c, 1, 60, 127
1, 236115, Note_off_c, 1, 52, 0
1, 236118, Note_on_c, 1, 50, 127
1, 236289, Note_off_c, 1, 50, 0
1, 236293, Note_on_c, 1, 55, 127
1, 236464, Note_off_c, 1, 55, 0
1, 236467, Note_on_c, 1, 53, 127
1, 236638, Note_off_c, 1, 53, 0
1, 236989, Note_on_c, 1, 48, 127
1, 237334, Note_off_c, 1, 48, 0
1, 237338, Note_on_c, 1, 57, 127
1, 237423, Note_off_c, 1, 57, 0
1, 239782, Note_on_c, 1, 47, 127
1, 239953, Note_off_c, 1, 47, 0
1, 239956, Note_on_c, 1, 45, 127
1, 240127, Note_off_c, 1, 45, 0
1, 240130, Note_on_c, 1, 43, 127
1, 240301, Note_off_c, 1, 43, 0
1, 240304, Note_on_c, 1, 41, 127
1, 240475, Note_off_c, 1, 60, 0
1, 240475, Note_off_c, 1, 41, 0
1, 240479, Note_on_c, 1, 59, 127
1, 240824, Note_off_c, 1, 59, 0
1, 240827, Note_on_c, 1, 43, 127
1, 240827, Note_on_c, 1, 60, 127
1, 240827, Note_on_c, 1, 57, 127
1, 240998, Note_off_c, 1, 43, 0
1, 241001, Note_on_c, 1, 41, 127
1, 241172, Note_off_c, 1, 60, 0
1, 241172, Note_off_c, 1, 57, 0
1, 241172, Note_off_c, 1, 41, 0
1, 241175, Note_on_c, 1, 40, 127
1, 241175, Note_on_c, 1, 62, 127
1, 241175, Note_on_c, 1, 59, 127
1, 241346, Note_off_c, 1, 40, 0
1, 241350, Note_on_c, 1, 38, 127
1, 241520, Note_off_c, 1, 62, 0
1, 241520, Note_off_c, 1, 59, 0
1, 241521, Note_off_c, 1, 38, 0
1, 241524, Note_on_c, 1, 36, 127
1, 241524, Note_on_c, 1, 64, 127
1, 241524, Note_on_c, 1, 60, 127
1, 241701, Note_on_c, 1, 48, 127
1, 241872, Note_off_c, 1, 36, 0
1, 241875, Note_off_c, 1, 64, 0
1, 241875, Note_off_c, 1, 60, 0
1, 241877, Note_on_c, 1, 67, 127
1, 241877, Note_on_c, 1, 58, 127
1, 241877, Note_on_c, 1, 52, 127
1, 242049, Note_off_c, 1, 48, 0
1, 242051, Note_off_c, 1, 67, 0
1, 242051, Note_off_c, 1, 58, 0
1, 242051, Note_off_c, 1, 52, 0
1, 242054, Note_on_c, 1, 65, 127
1, 242054, Note_on_c, 1, 57, 127
1, 242054, Note_on_c, 1, 48, 127
1, 242228, Note_off_c, 1, 65, 0
1, 242228, Note_off_c, 1, 57, 0
1, 242231, Note_on_c, 1, 36, 127
1, 242231, Note_on_c, 1, 67, 127
1, 242231, Note_on_c, 1, 58, 127
1, 242402, Note_off_c, 1, 48, 0
1, 242576, Note_off_c, 1, 36, 0
1, 242579, Note_off_c, 1, 67, 0
1, 242579, Note_off_c, 1, 58, 0
1, 242582, Note_on_c, 1, 55, 127
1, 242582, Note_on_c, 1, 60, 127
1, 242582, Note_on_c, 1, 64, 127
1, 242756, Note_off_c, 1, 55, 0
1, 242933, Note_off_c, 1, 60, 0
1, 242933, Note_off_c, 1, 64, 0
1, 242936, Note_on_c, 1, 69, 127
1, 243112, Note_on_c, 1, 38, 127
1, 243286, Note_off_c, 1, 38, 0
1, 243289, Note_on_c, 1, 40, 127
1, 243463, Note_off_c, 1, 40, 0
1, 243466, Note_on_c, 1, 41, 127
1, 243640, Note_off_c, 1, 69, 0
1, 243640, Note_off_c, 1, 41, 0
1, 243643, Note_on_c, 1, 43, 127
1, 243817, Note_off_c, 1, 43, 0
1, 243820, Note_on_c, 1, 45, 127
1, 243994, Note_off_c, 1, 45, 0
1, 243996, Note_on_c, 1, 47, 127
1, 244170, Note_off_c, 1, 47, 0
1, 244704, Note_on_c, 1, 50, 127
1, 244878, Note_off_c, 1, 50, 0
1, 244880, Note_on_c, 1, 64, 127
1, 244880, Note_on_c, 1, 48, 127
1, 245054, Note_off_c, 1, 64, 0
1, 245057, Note_on_c, 1, 36, 127
1, 245057, Note_on_c, 1, 65, 127
1, 245228, Note_off_c, 1, 48, 0
1, 245402, Note_off_c, 1, 36, 0
1, 245406, Note_on_c, 1, 53, 127
1, 245406, Note_on_c, 1, 62, 127
1, 245580, Note_off_c, 1, 53, 0
1, 245751, Note_off_c, 1, 65, 0
1, 245759, Note_on_c, 1, 47, 127
1, 245759, Note_on_c, 1, 67, 127
1, 245933, Note_off_c, 1, 47, 0
1, 246105, Note_off_c, 1, 62, 0
1, 246290, Note_on_c, 1, 60, 127
1, 246290, Note_on_c, 1, 45, 127
1, 246463, Note_off_c, 1, 67, 0
1, 246464, Note_off_c, 1, 60, 0
1, 246464, Note_off_c, 1, 45, 0
1, 246466, Note_on_c, 1, 43, 127
1, 246466, Note_on_c, 1, 62, 127
1, 246466, Note_on_c, 1, 65, 127
1, 246640, Note_off_c, 1, 43, 0
1, 246643, Note_on_c, 1, 41, 127
1, 246817, Note_off_c, 1, 62, 0
1, 246817, Note_off_c, 1, 41, 0
1, 246820, Note_on_c, 1, 40, 127
1, 246820, Note_on_c, 1, 55, 127
1, 246994, Note_off_c, 1, 40, 0
1, 246997, Note_on_c, 1, 38, 127
1, 247170, Note_off_c, 1, 65, 0
1, 247171, Note_off_c, 1, 55, 0
1, 247171, Note_off_c, 1, 38, 0
1, 247174, Note_on_c, 1, 36, 127
1, 247174, Note_on_c, 1, 64, 127
1, 247174, Note_on_c, 1, 60, 127
1, 247356, Note_on_c, 1, 48, 127
1, 247532, Note_off_c, 1, 36, 0
1, 247535, Note_off_c, 1, 64, 0
1, 247535, Note_off_c, 1, 60, 0
1, 247538, Note_on_c, 1, 50, 127
1, 247538, Note_on_c, 1, 65, 127
1, 247538, Note_on_c, 1, 68, 127
1, 247538, Note_on_c, 1, 59, 127
1, 247714, Note_off_c, 1, 48, 0
1, 247717, Note_off_c, 1, 50, 0
1, 247899, Note_off_c, 1, 65, 0
1, 247899, Note_off_c, 1, 68, 0
1, 247899, Note_off_c, 1, 59, 0
1, 247902, Note_on_c, 1, 52, 127
1, 247902, Note_on_c, 1, 67, 127
1, 248263, Note_off_c, 1, 52, 0
1, 248266, Note_off_c, 1, 67, 0
1, 248268, Note_on_c, 1, 53, 127
1, 248268, Note_on_c, 1, 71, 127
1, 248268, Note_on_c, 1, 62, 127
1, 248629, Note_off_c, 1, 53, 0
1, 248632, Note_off_c, 1, 71, 0
1, 248632, Note_off_c, 1, 62, 0
1, 248635, Note_on_c, 1, 55, 127
1, 248635, Note_on_c, 1, 72, 127
1, 249009, Note_off_c, 1, 55, 0
1, 249012, Note_off_c, 1, 72, 0
1, 249014, Note_on_c, 1, 56, 127
1, 249388, Note_off_c, 1, 56, 0
1, 249779, Note_on_c, 1, 47, 127
1, 249966, Note_off_c, 1, 47, 0
1, 250161, Note_on_c, 1, 41, 127
1, 250161, Note_on_c, 1, 57, 127
1, 250959, Note_off_c, 1, 41, 0
1, 250959, Note_off_c, 1, 57, 0
1, 250962, Note_on_c, 1, 43, 127
1, 251760, Note_off_c, 1, 43, 0
1, 251779, Note_on_c, 1, 36, 127
1, 251779, Note_on_c, 1, 48, 127
1, 251779, Note_on_c, 1, 60, 127
1, 251779, Note_on_c, 1, 67, 127
1, 251779, Note_on_c, 1, 64, 127
1, 251779, Note_on_c, 1, 72, 127
1, 255192, Note_off_c, 1, 36, 0
1, 255192, Note_off_c, 1, 48, 0
1, 255192, Note_off_c, 1, 60, 0
1, 255192, Note_off_c, 1, 67, 0
1, 255192, Note_off_c, 1, 64, 0
1, 255192, Note_off_c, 1, 72, 0
1, 255192, End_track
0, 0, End_of_file