0, 0, Header, 1, 1, 480
1, 0, Start_track
1, 0, Title_t, "Test"
1, 0, Tempo, 500000
1, 0, Instrument_name_t, "Church Organ"
1, 64, Note_on_c, 1, 47, 127
1, 64, Note_on_c, 1, 66, 127
1, 370, Note_off_c, 1, 47, 0
1, 372, Note_on_c, 1, 49, 127
1, 659, Note_off_c, 1, 49, 0
1, 674, Note_on_c, 1, 50, 127
1, 674, Note_on_c, 1, 71, 127
1, 980, Note_off_c, 1, 50, 0
1, 983, Note_on_c, 1, 52, 127
1, 1270, Note_off_c, 1, 52, 0
1, 1283, Note_off_c, 1, 66, 0
1, 1285, Note_on_c, 1, 54, 127
1, 1285, Note_on_c, 1, 73, 127
1, 1591, Note_off_c, 1, 54, 0
1, 1593, Note_on_c, 1, 56, 127
1, 1880, Note_off_c, 1, 56, 0
1, 1893, Note_off_c, 1, 71, 0
1, 1893, Note_off_c, 1, 73, 0
1, 1895, Note_on_c, 1, 57, 127
1, 1895, Note_on_c, 1, 69, 127
1, 1895, Note_on_c, 1, 78, 127
1, 2201, Note_off_c, 1, 57, 0
1, 2204, Note_on_c, 1, 59, 127
1, 2491, Note_off_c, 1, 59, 0
1, 2503, Note_off_c, 1, 69, 0
1, 2506, Note_on_c, 1, 61, 127
1, 2506, Note_on_c, 1, 68, 127
1, 2812, Note_off_c, 1, 61, 0
1, 3114, Note_off_c, 1, 78, 0
1, 3114, Note_off_c, 1, 68, 0
1, 3116, Note_on_c, 1, 58, 127
1, 3116, Note_on_c, 1, 76, 127
1, 3116, Note_on_c, 1, 73, 127
1, 3422, Note_off_c, 1, 58, 0
1, 3425, Note_on_c, 1, 54, 127
1, 3712, Note_off_c, 1, 54, 0
1, 3724, Note_off_c, 1, 76, 0
1, 3727, Note_on_c, 1, 59, 127
1, 3727, Note_on_c, 1, 74, 127
1, 4033, Note_off_c, 1, 59, 0
1, 4035, Note_on_c, 1, 57, 127
1, 4322, Note_off_c, 1, 57, 0
1, 4335, Note_off_c, 1, 73, 0
1, 4337, Note_on_c, 1, 71, 127
1, 4337, Note_on_c, 1, 55, 127
1, 4640, Note_off_c, 1, 71, 0
1, 4643, Note_off_c, 1, 55, 0
1, 4643, Note_on_c, 1, 69, 127
1, 4946, Note_off_c, 1, 69, 0
1, 4948, Note_on_c, 1, 52, 127
1, 4948, Note_on_c, 1, 67, 127
1, 5254, Note_off_c, 1, 52, 0
1, 5256, Note_on_c, 1, 49, 127
1, 5543, Note_off_c, 1, 49, 0
1, 5557, Note_off_c, 1, 74, 0
1, 5559, Note_on_c, 1, 50, 127
1, 5865, Note_off_c, 1, 50, 0
1, 6169, Note_on_c, 1, 70, 127
1, 6472, Note_off_c, 1, 67, 0
1, 6474, Note_on_c, 1, 66, 127
1, 6478, Note_on_c, 1, 42, 127
1, 6765, Note_off_c, 1, 42, 0
1, 6777, Note_off_c, 1, 70, 0
1, 6777, Note_off_c, 1, 66, 0
1, 6780, Note_on_c, 1, 71, 127
1, 6780, Note_on_c, 1, 44, 127
1, 6780, Note_on_c, 1, 64, 127
1, 7083, Note_off_c, 1, 71, 0
1, 7085, Note_on_c, 1, 73, 127
1, 7086, Note_off_c, 1, 44, 0
1, 7088, Note_on_c, 1, 46, 127
1, 7375, Note_off_c, 1, 46, 0
1, 7388, Note_off_c, 1, 73, 0
1, 7390, Note_on_c, 1, 47, 127
1, 7390, Note_on_c, 1, 66, 127
1, 7696, Note_off_c, 1, 47, 0
1, 7699, Note_on_c, 1, 49, 127
1, 7986, Note_off_c, 1, 49, 0
1, 7998, Note_off_c, 1, 66, 0
1, 7999, Note_off_c, 1, 64, 0
1, 8001, Note_on_c, 1, 50, 127
1, 8001, Note_on_c, 1, 62, 127
1, 8001, Note_on_c, 1, 71, 127
1, 8307, Note_off_c, 1, 50, 0
1, 8309, Note_on_c, 1, 52, 127
1, 8596, Note_off_c, 1, 52, 0
1, 8609, Note_off_c, 1, 62, 0
1, 8611, Note_on_c, 1, 54, 127
1, 8611, Note_on_c, 1, 61, 127
1, 8917, Note_off_c, 1, 54, 0
1, 8920, Note_on_c, 1, 56, 127
1, 9207, Note_off_c, 1, 56, 0
1, 9219, Note_off_c, 1, 61, 0
1, 9220, Note_off_c, 1, 71, 0
1, 9222, Note_on_c, 1, 57, 127
1, 9222, Note_on_c, 1, 69, 127
1, 9222, Note_on_c, 1, 66, 127
1, 9528, Note_off_c, 1, 57, 0
1, 9530, Note_on_c, 1, 54, 127
1, 9817, Note_off_c, 1, 54, 0
1, 9830, Note_off_c, 1, 69, 0
1, 9832, Note_on_c, 1, 59, 127
1, 9832, Note_on_c, 1, 67, 127
1, 10138, Note_off_c, 1, 59, 0
1, 10141, Note_on_c, 1, 47, 127
1, 10428, Note_off_c, 1, 47, 0
1, 10441, Note_off_c, 1, 66, 0
1, 10443, Note_on_c, 1, 49, 127
1, 10443, Note_on_c, 1, 64, 127
1, 10749, Note_off_c, 1, 49, 0
1, 10751, Note_on_c, 1, 45, 127
1, 11038, Note_off_c, 1, 45, 0
1, 11051, Note_off_c, 1, 67, 0
1, 11054, Note_on_c, 1, 50, 127
1, 11360, Note_off_c, 1, 50, 0
1, 11662, Note_off_c, 1, 64, 0
1, 11664, Note_on_c, 1, 62, 127
1, 12275, Note_on_c, 1, 43, 127
1, 12275, Note_on_c, 1, 71, 127
1, 12581, Note_off_c, 1, 43, 0
1, 12883, Note_off_c, 1, 62, 0
1, 12883, Note_off_c, 1, 71, 0
1, 12885, Note_on_c, 1, 52, 127
1, 12885, Note_on_c, 1, 76, 127
1, 12885, Note_on_c, 1, 67, 127
1, 13191, Note_off_c, 1, 52, 0
1, 13194, Note_on_c, 1, 50, 127
1, 13481, Note_off_c, 1, 50, 0
1, 13493, Note_off_c, 1, 76, 0
1, 13496, Note_on_c, 1, 49, 127
1, 13496, Note_on_c, 1, 69, 127
1, 13802, Note_off_c, 1, 49, 0
1, 13804, Note_on_c, 1, 57, 127
1, 14091, Note_off_c, 1, 57, 0
1, 14104, Note_off_c, 1, 67, 0
1, 14104, Note_off_c, 1, 69, 0
1, 14106, Note_on_c, 1, 59, 127
1, 14106, Note_on_c, 1, 66, 127
1, 14106, Note_on_c, 1, 74, 127
1, 14412, Note_off_c, 1, 59, 0
1, 14415, Note_on_c, 1, 54, 127
1, 14702, Note_off_c, 1, 54, 0
1, 14714, Note_off_c, 1, 66, 0
1, 14717, Note_on_c, 1, 55, 127
1, 14717, Note_on_c, 1, 64, 127
1, 15023, Note_off_c, 1, 55, 0
1, 15025, Note_on_c, 1, 52, 127
1, 15312, Note_off_c, 1, 52, 0
1, 15325, Note_off_c, 1, 74, 0
1, 15328, Note_on_c, 1, 57, 127
1, 15328, Note_on_c, 1, 73, 127
1, 15634, Note_off_c, 1, 57, 0
1, 15636, Note_on_c, 1, 45, 127
1, 15923, Note_off_c, 1, 45, 0
1, 15925, Note_off_c, 1, 73, 0
1, 15936, Note_off_c, 1, 64, 0
1, 15938, Note_on_c, 1, 74, 127
1, 15938, Note_on_c, 1, 50, 127
1, 15938, Note_on_c, 1, 66, 127
1, 16089, Note_off_c, 1, 74, 0
1, 16091, Note_on_c, 1, 73, 127
1, 16242, Note_off_c, 1, 73, 0
1, 16243, Note_on_c, 1, 71, 127
1, 16244, Note_off_c, 1, 50, 0
1, 16247, Note_on_c, 1, 52, 127
1, 16394, Note_off_c, 1, 71, 0
1, 16396, Note_on_c, 1, 69, 127
1, 16534, Note_off_c, 1, 52, 0
1, 16547, Note_off_c, 1, 69, 0
1, 16549, Note_on_c, 1, 54, 127
1, 16855, Note_off_c, 1, 54, 0
1, 16857, Note_on_c, 1, 55, 127
1, 17144, Note_off_c, 1, 55, 0
1, 17157, Note_off_c, 1, 66, 0
1, 17159, Note_on_c, 1, 45, 127
1, 17159, Note_on_c, 1, 64, 127
1, 17465, Note_off_c, 1, 45, 0
1, 17468, Note_on_c, 1, 47, 127
1, 17755, Note_off_c, 1, 47, 0
1, 17767, Note_off_c, 1, 64, 0
1, 17770, Note_on_c, 1, 49, 127
1, 17770, Note_on_c, 1, 73, 127
1, 17770, Note_on_c, 1, 69, 127
1, 18076, Note_off_c, 1, 49, 0
1, 18078, Note_on_c, 1, 50, 127
1, 18365, Note_off_c, 1, 50, 0
1, 18378, Note_off_c, 1, 73, 0
1, 18380, Note_on_c, 1, 52, 127
1, 18380, Note_on_c, 1, 71, 127
1, 18686, Note_off_c, 1, 52, 0
1, 18689, Note_on_c, 1, 54, 127
1, 18976, Note_off_c, 1, 54, 0
1, 18988, Note_off_c, 1, 71, 0
1, 18989, Note_off_c, 1, 69, 0
1, 18991, Note_on_c, 1, 55, 127
1, 18991, Note_on_c, 1, 67, 127
1, 18991, Note_on_c, 1, 76, 127
1, 19297, Note_off_c, 1, 55, 0
1, 19299, Note_on_c, 1, 57, 127
1, 19586, Note_off_c, 1, 57, 0
1, 19599, Note_off_c, 1, 67, 0
1, 19601, Note_on_c, 1, 47, 127
1, 19601, Note_on_c, 1, 66, 127
1, 19907, Note_off_c, 1, 47, 0
1, 19910, Note_on_c, 1, 49, 127
1, 20197, Note_off_c, 1, 49, 0
1, 20209, Note_off_c, 1, 66, 0
1, 20210, Note_off_c, 1, 76, 0
1, 20212, Note_on_c, 1, 50, 127
1, 20212, Note_on_c, 1, 74, 127
1, 20212, Note_on_c, 1, 71, 127
1, 20518, Note_off_c, 1, 50, 0
1, 20520, Note_on_c, 1, 52, 127
1, 20807, Note_off_c, 1, 52, 0
1, 20820, Note_off_c, 1, 74, 0
1, 20823, Note_on_c, 1, 54, 127
1, 20823, Note_on_c, 1, 73, 127
1, 21129, Note_off_c, 1, 54, 0
1, 21131, Note_on_c, 1, 56, 127
1, 21418, Note_off_c, 1, 56, 0
1, 21431, Note_off_c, 1, 71, 0
1, 21431, Note_off_c, 1, 73, 0
1, 21433, Note_on_c, 1, 57, 127
1, 21433, Note_on_c, 1, 69, 127
1, 21433, Note_on_c, 1, 78, 127
1, 21739, Note_off_c, 1, 57, 0
1, 21742, Note_on_c, 1, 59, 127
1, 22029, Note_off_c, 1, 59, 0
1, 22041, Note_off_c, 1, 69, 0
1, 22044, Note_on_c, 1, 61, 127
1, 22044, Note_on_c, 1, 68, 127
1, 22350, Note_off_c, 1, 61, 0
1, 22652, Note_off_c, 1, 78, 0
1, 22652, Note_off_c, 1, 68, 0
1, 22654, Note_on_c, 1, 61, 127
1, 22654, Note_on_c, 1, 77, 127
1, 22654, Note_on_c, 1, 73, 127
1, 22960, Note_off_c, 1, 61, 0
1, 22963, Note_on_c, 1, 57, 127
1, 23250, Note_off_c, 1, 57, 0
1, 23262, Note_off_c, 1, 77, 0
1, 23265, Note_on_c, 1, 62, 127
1, 23265, Note_on_c, 1, 78, 127
1, 23571, Note_off_c, 1, 62, 0
1, 23873, Note_off_c, 1, 73, 0
1, 23873, Note_off_c, 1, 78, 0
1, 23875, Note_on_c, 1, 62, 127
1, 23875, Note_on_c, 1, 80, 127
1, 23875, Note_on_c, 1, 71, 127
1, 24181, Note_off_c, 1, 62, 0
1, 24184, Note_on_c, 1, 59, 127
1, 24471, Note_off_c, 1, 59, 0
1, 24483, Note_off_c, 1, 80, 0
1, 24486, Note_on_c, 1, 53, 127
1, 24486, Note_on_c, 1, 73, 127
1, 24792, Note_off_c, 1, 53, 0
1, 24794, Note_on_c, 1, 61, 127
1, 25081, Note_off_c, 1, 61, 0
1, 25094, Note_off_c, 1, 71, 0
1, 25094, Note_off_c, 1, 73, 0
1, 25096, Note_on_c, 1, 62, 127
1, 25096, Note_on_c, 1, 69, 127
1, 25096, Note_on_c, 1, 78, 127
1, 25402, Note_off_c, 1, 62, 0
1, 25405, Note_on_c, 1, 57, 127
1, 25692, Note_off_c, 1, 57, 0
1, 25704, Note_off_c, 1, 69, 0
1, 25707, Note_on_c, 1, 59, 127
1, 25707, Note_on_c, 1, 68, 127
1, 26013, Note_off_c, 1, 59, 0
1, 26015, Note_on_c, 1, 56, 127
1, 26302, Note_off_c, 1, 56, 0
1, 26315, Note_off_c, 1, 78, 0
1, 26318, Note_on_c, 1, 61, 127
1, 26318, Note_on_c, 1, 77, 127
1, 26624, Note_off_c, 1, 61, 0
1, 26626, Note_on_c, 1, 49, 127
1, 26913, Note_off_c, 1, 49, 0
1, 26926, Note_off_c, 1, 68, 0
1, 26926, Note_off_c, 1, 77, 0
1, 26928, Note_on_c, 1, 54, 127
1, 26928, Note_on_c, 1, 69, 127
1, 26928, Note_on_c, 1, 78, 127
1, 27234, Note_off_c, 1, 54, 0
1, 27237, Note_on_c, 1, 52, 127
1, 27524, Note_off_c, 1, 52, 0
1, 27536, Note_off_c, 1, 69, 0
1, 27539, Note_on_c, 1, 74, 127
1, 27842, Note_off_c, 1, 78, 0
1, 27847, Note_on_c, 1, 56, 127
1, 28134, Note_off_c, 1, 56, 0
1, 28149, Note_on_c, 1, 57, 127
1, 28149, Note_on_c, 1, 76, 127
1, 28455, Note_off_c, 1, 57, 0
1, 28458, Note_on_c, 1, 59, 127
1, 28745, Note_off_c, 1, 59, 0
1, 28757, Note_off_c, 1, 76, 0
1, 28758, Note_off_c, 1, 74, 0
1, 28760, Note_on_c, 1, 61, 127
1, 28760, Note_on_c, 1, 73, 127
1, 28760, Note_on_c, 1, 81, 127
1, 29066, Note_off_c, 1, 61, 0
1, 29068, Note_on_c, 1, 62, 127
1, 29355, Note_off_c, 1, 62, 0
1, 29368, Note_off_c, 1, 73, 0
1, 29370, Note_on_c, 1, 52, 127
1, 29370, Note_on_c, 1, 71, 127
1, 29676, Note_off_c, 1, 52, 0
1, 29679, Note_on_c, 1, 54, 127
1, 29966, Note_off_c, 1, 54, 0
1, 29978, Note_off_c, 1, 71, 0
1, 29979, Note_off_c, 1, 81, 0
1, 29981, Note_on_c, 1, 55, 127
1, 29981, Note_on_c, 1, 79, 127
1, 29981, Note_on_c, 1, 76, 127
1, 30287, Note_off_c, 1, 55, 0
1, 30289, Note_on_c, 1, 57, 127
1, 30576, Note_off_c, 1, 57, 0
1, 30589, Note_off_c, 1, 79, 0
1, 30592, Note_on_c, 1, 59, 127
1, 30592, Note_on_c, 1, 78, 127
1, 30898, Note_off_c, 1, 59, 0
1, 30900, Note_on_c, 1, 61, 127
1, 31187, Note_off_c, 1, 61, 0
1, 31200, Note_off_c, 1, 76, 0
1, 31200, Note_off_c, 1, 78, 0
1, 31202, Note_on_c, 1, 62, 127
1, 31202, Note_on_c, 1, 74, 127
1, 31202, Note_on_c, 1, 83, 127
1, 31508, Note_off_c, 1, 62, 0
1, 31511, Note_on_c, 1, 64, 127
1, 31798, Note_off_c, 1, 64, 0
1, 31810, Note_off_c, 1, 74, 0
1, 31813, Note_on_c, 1, 54, 127
1, 31813, Note_on_c, 1, 73, 127
1, 32119, Note_off_c, 1, 54, 0
1, 32121, Note_on_c, 1, 52, 127
1, 32408, Note_off_c, 1, 52, 0
1, 32421, Note_off_c, 1, 83, 0
1, 32421, Note_off_c, 1, 73, 0
1, 32423, Note_on_c, 1, 54, 127
1, 32423, Note_on_c, 1, 82, 127
1, 32423, Note_on_c, 1, 78, 127
1, 32729, Note_off_c, 1, 54, 0
1, 32732, Note_on_c, 1, 50, 127
1, 33019, Note_off_c, 1, 50, 0
1, 33031, Note_off_c, 1, 82, 0
1, 33034, Note_on_c, 1, 55, 127
1, 33034, Note_on_c, 1, 83, 127
1, 33337, Note_off_c, 1, 78, 0
1, 33339, Note_on_c, 1, 71, 127
1, 33340, Note_off_c, 1, 55, 0
1, 33642, Note_off_c, 1, 71, 0
1, 33644, Note_on_c, 1, 76, 127
1, 33948, Note_off_c, 1, 83, 0
1, 33950, Note_on_c, 1, 81, 127
1, 33953, Note_on_c, 1, 52, 127
1, 34101, Note_off_c, 1, 81, 0
1, 34102, Note_on_c, 1, 79, 127
1, 34240, Note_off_c, 1, 52, 0
1, 34253, Note_off_c, 1, 79, 0
1, 34255, Note_on_c, 1, 58, 127
1, 34558, Note_off_c, 1, 76, 0
1, 34560, Note_on_c, 1, 74, 127
1, 34561, Note_off_c, 1, 58, 0
1, 34711, Note_off_c, 1, 74, 0
1, 34713, Note_on_c, 1, 73, 127
1, 34864, Note_off_c, 1, 73, 0
1, 34865, Note_on_c, 1, 59, 127
1, 35171, Note_off_c, 1, 59, 0
1, 35476, Note_on_c, 1, 54, 127
1, 35476, Note_on_c, 1, 71, 127
1, 35476, Note_on_c, 1, 74, 127
1, 35782, Note_off_c, 1, 54, 0
1, 35784, Note_on_c, 1, 52, 127
1, 36071, Note_off_c, 1, 52, 0
1, 36084, Note_off_c, 1, 71, 0
1, 36087, Note_on_c, 1, 70, 127
1, 36161, Note_off_c, 1, 74, 0
1, 36163, Note_on_c, 1, 73, 127
1, 36237, Note_off_c, 1, 73, 0
1, 36395, Note_on_c, 1, 42, 127
1, 36682, Note_off_c, 1, 42, 0
1, 36695, Note_off_c, 1, 70, 0
1, 36697, Note_on_c, 1, 47, 127
1, 36697, Note_on_c, 1, 71, 127
1, 37002, Note_on_c, 1, 79, 127
1, 37299, Note_off_c, 1, 47, 0
1, 37305, Note_off_c, 1, 71, 0
1, 37308, Note_on_c, 1, 45, 127
1, 37308, Note_on_c, 1, 73, 127
1, 37610, Note_off_c, 1, 79, 0
1, 37613, Note_on_c, 1, 78, 127
1, 37910, Note_off_c, 1, 45, 0
1, 37916, Note_off_c, 1, 73, 0
1, 37918, Note_on_c, 1, 74, 127
1, 38071, Note_on_c, 1, 43, 127
1, 38215, Note_off_c, 1, 43, 0
1, 38221, Note_off_c, 1, 78, 0
1, 38224, Note_on_c, 1, 83, 127
1, 38375, Note_off_c, 1, 83, 0
1, 38376, Note_on_c, 1, 82, 127
1, 38527, Note_off_c, 1, 82, 0
1, 38832, Note_off_c, 1, 74, 0
1, 38834, Note_on_c, 1, 76, 127
1, 39139, Note_on_c, 1, 42, 127
1, 39438, Note_off_c, 1, 76, 0
1, 40360, Note_on_c, 1, 54, 127
1, 40360, Note_on_c, 1, 70, 127
1, 41573, Note_off_c, 1, 42, 0
1, 41579, Note_off_c, 1, 54, 0
1, 41579, Note_off_c, 1, 70, 0
1, 41582, Note_on_c, 1, 54, 127
1, 41582, Note_on_c, 1, 81, 127
1, 41887, Note_on_c, 1, 73, 127
1, 41888, Note_off_c, 1, 54, 0
1, 41890, Note_on_c, 1, 55, 127
1, 42177, Note_off_c, 1, 55, 0
1, 42190, Note_off_c, 1, 73, 0
1, 42192, Note_on_c, 1, 78, 127
1, 42192, Note_on_c, 1, 57, 127
1, 42495, Note_off_c, 1, 78, 0
1, 42497, Note_on_c, 1, 76, 127
1, 42498, Note_off_c, 1, 57, 0
1, 42800, Note_off_c, 1, 76, 0
1, 42803, Note_on_c, 1, 59, 127
1, 42803, Note_on_c, 1, 75, 127
1, 43106, Note_off_c, 1, 81, 0
1, 43109, Note_off_c, 1, 59, 0
1, 43413, Note_on_c, 1, 83, 127
1, 43716, Note_off_c, 1, 83, 0
1, 44022, Note_off_c, 1, 75, 0
1, 44024, Note_on_c, 1, 52, 127
1, 44024, Note_on_c, 1, 76, 127
1, 44024, Note_on_c, 1, 79, 127
1, 44330, Note_off_c, 1, 52, 0
1, 44332, Note_on_c, 1, 43, 127
1, 44619, Note_off_c, 1, 43, 0
1, 44632, Note_off_c, 1, 76, 0
1, 44632, Note_off_c, 1, 79, 0
1, 44634, Note_on_c, 1, 45, 127
1, 44634, Note_on_c, 1, 75, 127
1, 44634, Note_on_c, 1, 78, 127
1, 44940, Note_off_c, 1, 45, 0
1, 44943, Note_on_c, 1, 47, 127
1, 45230, Note_off_c, 1, 47, 0
1, 45242, Note_off_c, 1, 75, 0
1, 45242, Note_off_c, 1, 78, 0
1, 45245, Note_on_c, 1, 76, 127
1, 45245, Note_on_c, 1, 40, 127
1, 45245, Note_on_c, 1, 79, 127
1, 45548, Note_off_c, 1, 76, 0
1, 45550, Note_on_c, 1, 71, 127
1, 45551, Note_off_c, 1, 40, 0
1, 45553, Note_on_c, 1, 42, 127
1, 45840, Note_off_c, 1, 42, 0
1, 45853, Note_off_c, 1, 71, 0
1, 45856, Note_on_c, 1, 43, 127
1, 46161, Note_on_c, 1, 74, 127
1, 46162, Note_off_c, 1, 43, 0
1, 46464, Note_off_c, 1, 74, 0
1, 46466, Note_on_c, 1, 45, 127
1, 46466, Note_on_c, 1, 73, 127
1, 46769, Note_off_c, 1, 79, 0
1, 46772, Note_off_c, 1, 45, 0
1, 47077, Note_on_c, 1, 81, 127
1, 47380, Note_off_c, 1, 81, 0
1, 47685, Note_off_c, 1, 73, 0
1, 47687, Note_on_c, 1, 38, 127
1, 47687, Note_on_c, 1, 74, 127
1, 47687, Note_on_c, 1, 78, 127
1, 47993, Note_off_c, 1, 38, 0
1, 47996, Note_on_c, 1, 42, 127
1, 48283, Note_off_c, 1, 42, 0
1, 48295, Note_off_c, 1, 74, 0
1, 48295, Note_off_c, 1, 78, 0
1, 48298, Note_on_c, 1, 43, 127
1, 48298, Note_on_c, 1, 73, 127
1, 48298, Note_on_c, 1, 76, 127
1, 48604, Note_off_c, 1, 43, 0
1, 48606, Note_on_c, 1, 45, 127
1, 48893, Note_off_c, 1, 45, 0
1, 48906, Note_off_c, 1, 73, 0
1, 48906, Note_off_c, 1, 76, 0
1, 48908, Note_on_c, 1, 74, 127
1, 48908, Note_on_c, 1, 38, 127
1, 48908, Note_on_c, 1, 78, 127
1, 49211, Note_off_c, 1, 74, 0
1, 49214, Note_off_c, 1, 38, 0
1, 49214, Note_on_c, 1, 69, 127
1, 49217, Note_on_c, 1, 52, 127
1, 49504, Note_off_c, 1, 52, 0
1, 49517, Note_off_c, 1, 69, 0
1, 49519, Note_on_c, 1, 71, 127
1, 49519, Note_on_c, 1, 50, 127
1, 49822, Note_off_c, 1, 71, 0
1, 49824, Note_on_c, 1, 73, 127
1, 49825, Note_off_c, 1, 50, 0
1, 49827, Note_on_c, 1, 49, 127
1, 50114, Note_off_c, 1, 49, 0
1, 50127, Note_off_c, 1, 73, 0
1, 50129, Note_on_c, 1, 47, 127
1, 50432, Note_off_c, 1, 78, 0
1, 50435, Note_off_c, 1, 47, 0
1, 50438, Note_on_c, 1, 45, 127
1, 50725, Note_off_c, 1, 45, 0
1, 50740, Note_on_c, 1, 80, 127
1, 50740, Note_on_c, 1, 44, 127
1, 51043, Note_off_c, 1, 80, 0
1, 51045, Note_on_c, 1, 81, 127
1, 51046, Note_off_c, 1, 44, 0
1, 51048, Note_on_c, 1, 42, 127
1, 51335, Note_off_c, 1, 42, 0
1, 51348, Note_off_c, 1, 81, 0
1, 51351, Note_on_c, 1, 41, 127
1, 51351, Note_on_c, 1, 83, 127
1, 51657, Note_off_c, 1, 41, 0
1, 51659, Note_on_c, 1, 54, 127
1, 51946, Note_off_c, 1, 54, 0
1, 51959, Note_off_c, 1, 83, 0
1, 51961, Note_on_c, 1, 78, 127
1, 51961, Note_on_c, 1, 56, 127
1, 51961, Note_on_c, 1, 81, 127
1, 52264, Note_off_c, 1, 78, 0
1, 52266, Note_on_c, 1, 76, 127
1, 52267, Note_off_c, 1, 56, 0
1, 52270, Note_on_c, 1, 57, 127
1, 52557, Note_off_c, 1, 57, 0
1, 52569, Note_off_c, 1, 76, 0
1, 52572, Note_on_c, 1, 74, 127
1, 52572, Note_on_c, 1, 59, 127
1, 52875, Note_off_c, 1, 74, 0
1, 52877, Note_on_c, 1, 73, 127
1, 52878, Note_off_c, 1, 59, 0
1, 52880, Note_on_c, 1, 61, 127
1, 53167, Note_off_c, 1, 61, 0
1, 53180, Note_off_c, 1, 81, 0
1, 53180, Note_off_c, 1, 73, 0
1, 53182, Note_on_c, 1, 79, 127
1, 53182, Note_on_c, 1, 62, 127
1, 53182, Note_on_c, 1, 71, 127
1, 53485, Note_off_c, 1, 79, 0
1, 53488, Note_off_c, 1, 62, 0
1, 53488, Note_on_c, 1, 78, 127
1, 53491, Note_on_c, 1, 59, 127
1, 53778, Note_off_c, 1, 59, 0
1, 53791, Note_off_c, 1, 78, 0
1, 53793, Note_on_c, 1, 77, 127
1, 53793, Note_on_c, 1, 61, 127
1, 54096, Note_off_c, 1, 77, 0
1, 54098, Note_on_c, 1, 73, 127
1, 54099, Note_off_c, 1, 61, 0
1, 54101, Note_on_c, 1, 42, 127
1, 54388, Note_off_c, 1, 42, 0
1, 54401, Note_off_c, 1, 71, 0
1, 54401, Note_off_c, 1, 73, 0
1, 54403, Note_on_c, 1, 78, 127
1, 54403, Note_on_c, 1, 44, 127
1, 54403, Note_on_c, 1, 69, 127
1, 54706, Note_off_c, 1, 78, 0
1, 54709, Note_off_c, 1, 44, 0
1, 54709, Note_on_c, 1, 76, 127
1, 54712, Note_on_c, 1, 45, 127
1, 54999, Note_off_c, 1, 45, 0
1, 55012, Note_off_c, 1, 76, 0
1, 55014, Note_on_c, 1, 47, 127
1, 55014, Note_on_c, 1, 74, 127
1, 55317, Note_off_c, 1, 69, 0
1, 55320, Note_off_c, 1, 47, 0
1, 55322, Note_on_c, 1, 49, 127
1, 55609, Note_off_c, 1, 49, 0
1, 55624, Note_on_c, 1, 68, 127
1, 55624, Note_on_c, 1, 50, 127
1, 55927, Note_off_c, 1, 68, 0
1, 55930, Note_off_c, 1, 50, 0
1, 55930, Note_on_c, 1, 66, 127
1, 56233, Note_off_c, 1, 66, 0
1, 56235, Note_on_c, 1, 65, 127
1, 56538, Note_off_c, 1, 65, 0
1, 56543, Note_on_c, 1, 51, 127
1, 56830, Note_off_c, 1, 51, 0
1, 56844, Note_off_c, 1, 74, 0
1, 56846, Note_on_c, 1, 73, 127
1, 56846, Note_on_c, 1, 53, 127
1, 56846, Note_on_c, 1, 68, 127
1, 57149, Note_off_c, 1, 73, 0
1, 57151, Note_on_c, 1, 71, 127
1, 57152, Note_off_c, 1, 53, 0
1, 57154, Note_on_c, 1, 49, 127
1, 57441, Note_off_c, 1, 49, 0
1, 57454, Note_off_c, 1, 71, 0
1, 57456, Note_on_c, 1, 69, 127
1, 57456, Note_on_c, 1, 54, 127
1, 57759, Note_off_c, 1, 69, 0
1, 57762, Note_off_c, 1, 54, 0
1, 57765, Note_on_c, 1, 56, 127
1, 58052, Note_off_c, 1, 56, 0
1, 58065, Note_off_c, 1, 68, 0
1, 58067, Note_on_c, 1, 66, 127
1, 58067, Note_on_c, 1, 57, 127
1, 58067, Note_on_c, 1, 73, 127
1, 58370, Note_off_c, 1, 66, 0
1, 58372, Note_on_c, 1, 64, 127
1, 58373, Note_off_c, 1, 57, 0
1, 58375, Note_on_c, 1, 54, 127
1, 58662, Note_off_c, 1, 54, 0
1, 58675, Note_off_c, 1, 64, 0
1, 58677, Note_on_c, 1, 59, 127
1, 58677, Note_on_c, 1, 62, 127
1, 58983, Note_off_c, 1, 59, 0
1, 59286, Note_off_c, 1, 73, 0
1, 59288, Note_on_c, 1, 56, 127
1, 59288, Note_on_c, 1, 71, 127
1, 59594, Note_off_c, 1, 56, 0
1, 59896, Note_off_c, 1, 62, 0
1, 59898, Note_on_c, 1, 53, 127
1, 59898, Note_on_c, 1, 61, 127
1, 60204, Note_off_c, 1, 53, 0
1, 60207, Note_on_c, 1, 49, 127
1, 60494, Note_off_c, 1, 49, 0
1, 60507, Note_off_c, 1, 71, 0
1, 60509, Note_on_c, 1, 69, 127
1, 60817, Note_on_c, 1, 52, 127
1, 61104, Note_off_c, 1, 52, 0
1, 61117, Note_off_c, 1, 61, 0
1, 61120, Note_on_c, 1, 50, 127
1, 61426, Note_off_c, 1, 50, 0
1, 61728, Note_off_c, 1, 69, 0
1, 61730, Note_on_c, 1, 68, 127
1, 62033, Note_off_c, 1, 68, 0
1, 62039, Note_on_c, 1, 47, 127
1, 62326, Note_off_c, 1, 47, 0
1, 62341, Note_on_c, 1, 65, 127
1, 62644, Note_off_c, 1, 65, 0
1, 62646, Note_on_c, 1, 74, 127
1, 62949, Note_off_c, 1, 74, 0
1, 62951, Note_on_c, 1, 66, 127
1, 62951, Note_on_c, 1, 73, 127
1, 62951, Note_on_c, 1, 45, 127
1, 63254, Note_off_c, 1, 66, 0
1, 63254, Note_off_c, 1, 73, 0
1, 63256, Note_on_c, 1, 68, 127
1, 63256, Note_on_c, 1, 71, 127
1, 63257, Note_off_c, 1, 45, 0
1, 63260, Note_on_c, 1, 47, 127
1, 63547, Note_off_c, 1, 47, 0
1, 63559, Note_off_c, 1, 68, 0
1, 63559, Note_off_c, 1, 71, 0
1, 63562, Note_on_c, 1, 61, 127
1, 63562, Note_on_c, 1, 49, 127
1, 63562, Note_on_c, 1, 69, 127
1, 63865, Note_off_c, 1, 61, 0
1, 63867, Note_on_c, 1, 66, 127
1, 63868, Note_off_c, 1, 49, 0
1, 63870, Note_on_c, 1, 47, 127
1, 64157, Note_off_c, 1, 47, 0
1, 64170, Note_off_c, 1, 69, 0
1, 64172, Note_on_c, 1, 68, 127
1, 64475, Note_off_c, 1, 66, 0
1, 64478, Note_on_c, 1, 65, 127
1, 64481, Note_on_c, 1, 37, 127
1, 64768, Note_off_c, 1, 37, 0
1, 64780, Note_off_c, 1, 68, 0
1, 64781, Note_off_c, 1, 65, 0
1, 64783, Note_on_c, 1, 42, 127
1, 64783, Note_on_c, 1, 66, 127
1, 65089, Note_off_c, 1, 42, 0
1, 65091, Note_on_c, 1, 49, 127
1, 65378, Note_off_c, 1, 49, 0
1, 65391, Note_off_c, 1, 66, 0
1, 65393, Note_on_c, 1, 51, 127
1, 65393, Note_on_c, 1, 72, 127
1, 65699, Note_off_c, 1, 51, 0
1, 65702, Note_on_c, 1, 52, 127
1, 65989, Note_off_c, 1, 52, 0
1, 66004, Note_on_c, 1, 54, 127
1, 66004, Note_on_c, 1, 75, 127
1, 66310, Note_off_c, 1, 54, 0
1, 66312, Note_on_c, 1, 57, 127
1, 66599, Note_off_c, 1, 57, 0
1, 66612, Note_off_c, 1, 72, 0
1, 66612, Note_off_c, 1, 75, 0
1, 66615, Note_on_c, 1, 71, 127
1, 66615, Note_on_c, 1, 76, 127
1, 66615, Note_on_c, 1, 55, 127
1, 66918, Note_off_c, 1, 71, 0
1, 66918, Note_off_c, 1, 76, 0
1, 66920, Note_on_c, 1, 69, 127
1, 66920, Note_on_c, 1, 78, 127
1, 66921, Note_off_c, 1, 55, 0
1, 66923, Note_on_c, 1, 54, 127
1, 67210, Note_off_c, 1, 54, 0
1, 67223, Note_off_c, 1, 69, 0
1, 67223, Note_off_c, 1, 78, 0
1, 67225, Note_on_c, 1, 67, 127
1, 67225, Note_on_c, 1, 71, 127
1, 67225, Note_on_c, 1, 52, 127
1, 67528, Note_off_c, 1, 67, 0
1, 67528, Note_off_c, 1, 71, 0
1, 67530, Note_on_c, 1, 75, 127
1, 67530, Note_on_c, 1, 84, 127
1, 67531, Note_off_c, 1, 52, 0
1, 67534, Note_on_c, 1, 54, 127
1, 67821, Note_off_c, 1, 54, 0
1, 67833, Note_off_c, 1, 75, 0
1, 67833, Note_off_c, 1, 84, 0
1, 67836, Note_on_c, 1, 76, 127
1, 67836, Note_on_c, 1, 83, 127
1, 67836, Note_on_c, 1, 55, 127
1, 68139, Note_off_c, 1, 76, 0
1, 68139, Note_off_c, 1, 83, 0
1, 68141, Note_on_c, 1, 78, 127
1, 68141, Note_on_c, 1, 81, 127
1, 68142, Note_off_c, 1, 55, 0
1, 68144, Note_on_c, 1, 57, 127
1, 68431, Note_off_c, 1, 57, 0
1, 68444, Note_off_c, 1, 78, 0
1, 68444, Note_off_c, 1, 81, 0
1, 68446, Note_on_c, 1, 71, 127
1, 68446, Note_on_c, 1, 59, 127
1, 68446, Note_on_c, 1, 79, 127
1, 68749, Note_off_c, 1, 71, 0
1, 68752, Note_off_c, 1, 59, 0
1, 68752, Note_on_c, 1, 76, 127
1, 68755, Note_on_c, 1, 57, 127
1, 69042, Note_off_c, 1, 57, 0
1, 69054, Note_off_c, 1, 79, 0
1, 69057, Note_on_c, 1, 78, 127
1, 69360, Note_off_c, 1, 76, 0
1, 69362, Note_on_c, 1, 75, 127
1, 69365, Note_on_c, 1, 47, 127
1, 69652, Note_off_c, 1, 47, 0
1, 69665, Note_off_c, 1, 78, 0
1, 69665, Note_off_c, 1, 75, 0
1, 69667, Note_on_c, 1, 52, 127
1, 69667, Note_on_c, 1, 76, 127
1, 69973, Note_off_c, 1, 52, 0
1, 69976, Note_on_c, 1, 59, 127
1, 70263, Note_off_c, 1, 59, 0
1, 70275, Note_off_c, 1, 76, 0
1, 70278, Note_on_c, 1, 61, 127
1, 70278, Note_on_c, 1, 82, 127
1, 70584, Note_off_c, 1, 61, 0
1, 70586, Note_on_c, 1, 62, 127
1, 70873, Note_off_c, 1, 62, 0
1, 70888, Note_on_c, 1, 64, 127
1, 70888, Note_on_c, 1, 73, 127
1, 71194, Note_off_c, 1, 64, 0
1, 71197, Note_on_c, 1, 55, 127
1, 71484, Note_off_c, 1, 55, 0
1, 71496, Note_off_c, 1, 73, 0
1, 71497, Note_off_c, 1, 82, 0
1, 71499, Note_on_c, 1, 74, 127
1, 71499, Note_on_c, 1, 81, 127
1, 71499, Note_on_c, 1, 54, 127
1, 71802, Note_off_c, 1, 74, 0
1, 71802, Note_off_c, 1, 81, 0
1, 71804, Note_on_c, 1, 76, 127
1, 71804, Note_on_c, 1, 79, 127
1, 71805, Note_off_c, 1, 54, 0
1, 71807, Note_on_c, 1, 52, 127
1, 72094, Note_off_c, 1, 52, 0
1, 72107, Note_off_c, 1, 76, 0
1, 72107, Note_off_c, 1, 79, 0
1, 72110, Note_on_c, 1, 69, 127
1, 72110, Note_on_c, 1, 78, 127
1, 72110, Note_on_c, 1, 50, 127
1, 72413, Note_off_c, 1, 69, 0
1, 72413, Note_off_c, 1, 78, 0
1, 72415, Note_on_c, 1, 70, 127
1, 72415, Note_on_c, 1, 73, 127
1, 72416, Note_off_c, 1, 50, 0
1, 72418, Note_on_c, 1, 52, 127
1, 72705, Note_off_c, 1, 52, 0
1, 72718, Note_off_c, 1, 70, 0
1, 72718, Note_off_c, 1, 73, 0
1, 72720, Note_on_c, 1, 69, 127
1, 72720, Note_on_c, 1, 74, 127
1, 72720, Note_on_c, 1, 54, 127
1, 73023, Note_off_c, 1, 69, 0
1, 73023, Note_off_c, 1, 74, 0
1, 73025, Note_on_c, 1, 67, 127
1, 73025, Note_on_c, 1, 76, 127
1, 73026, Note_off_c, 1, 54, 0
1, 73029, Note_on_c, 1, 55, 127
1, 73316, Note_off_c, 1, 55, 0
1, 73328, Note_off_c, 1, 67, 0
1, 73328, Note_off_c, 1, 76, 0
1, 73331, Note_on_c, 1, 69, 127
1, 73331, Note_on_c, 1, 57, 127
1, 73331, Note_on_c, 1, 66, 127
1, 73634, Note_off_c, 1, 69, 0
1, 73636, Note_on_c, 1, 74, 127
1, 73637, Note_off_c, 1, 57, 0
1, 73639, Note_on_c, 1, 55, 127
1, 73926, Note_off_c, 1, 55, 0
1, 73939, Note_off_c, 1, 66, 0
1, 73941, Note_on_c, 1, 64, 127
1, 74244, Note_off_c, 1, 74, 0
1, 74247, Note_on_c, 1, 73, 127
1, 74250, Note_on_c, 1, 45, 127
1, 74537, Note_off_c, 1, 45, 0
1, 74549, Note_off_c, 1, 64, 0
1, 74550, Note_off_c, 1, 73, 0
1, 74552, Note_on_c, 1, 66, 127
1, 74552, Note_on_c, 1, 47, 127
1, 74552, Note_on_c, 1, 62, 127
1, 74855, Note_off_c, 1, 66, 0
1, 74857, Note_on_c, 1, 71, 127
1, 74858, Note_off_c, 1, 47, 0
1, 74860, Note_on_c, 1, 50, 127
1, 75147, Note_off_c, 1, 50, 0
1, 75160, Note_off_c, 1, 62, 0
1, 75162, Note_on_c, 1, 54, 127
1, 75162, Note_on_c, 1, 61, 127
1, 75465, Note_off_c, 1, 71, 0
1, 75468, Note_off_c, 1, 54, 0
1, 75468, Note_on_c, 1, 69, 127
1, 75471, Note_on_c, 1, 42, 127
1, 75758, Note_off_c, 1, 42, 0
1, 75770, Note_off_c, 1, 61, 0
1, 75771, Note_off_c, 1, 69, 0
1, 75773, Note_on_c, 1, 62, 127
1, 75773, Note_on_c, 1, 43, 127
1, 75773, Note_on_c, 1, 59, 127
1, 76076, Note_off_c, 1, 62, 0
1, 76078, Note_on_c, 1, 67, 127
1, 76079, Note_off_c, 1, 43, 0
1, 76081, Note_on_c, 1, 47, 127
1, 76368, Note_off_c, 1, 47, 0
1, 76381, Note_off_c, 1, 59, 0
1, 76384, Note_on_c, 1, 57, 127
1, 76384, Note_on_c, 1, 50, 127
1, 76686, Note_off_c, 1, 67, 0
1, 76689, Note_on_c, 1, 66, 127
1, 76992, Note_off_c, 1, 57, 0
1, 76992, Note_off_c, 1, 66, 0
1, 76994, Note_on_c, 1, 68, 127
1, 77291, Note_off_c, 1, 50, 0
1, 77602, Note_off_c, 1, 68, 0
1, 77605, Note_on_c, 1, 70, 127
1, 77605, Note_on_c, 1, 49, 127
1, 77605, Note_on_c, 1, 64, 127
1, 77908, Note_off_c, 1, 70, 0
1, 77910, Note_on_c, 1, 71, 127
1, 77911, Note_off_c, 1, 49, 0
1, 77913, Note_on_c, 1, 47, 127
1, 78200, Note_off_c, 1, 47, 0
1, 78213, Note_off_c, 1, 71, 0
1, 78215, Note_on_c, 1, 46, 127
1, 78215, Note_on_c, 1, 73, 127
1, 78519, Note_off_c, 1, 64, 0
1, 78520, Note_on_c, 1, 67, 127
1, 78521, Note_off_c, 1, 46, 0
1, 78524, Note_on_c, 1, 42, 127
1, 78811, Note_off_c, 1, 42, 0
1, 78823, Note_off_c, 1, 67, 0
1, 78826, Note_on_c, 1, 66, 127
1, 78826, Note_on_c, 1, 44, 127
1, 79129, Note_off_c, 1, 66, 0
1, 79132, Note_off_c, 1, 44, 0
1, 79436, Note_on_c, 1, 62, 127
1, 79739, Note_off_c, 1, 73, 0
1, 79745, Note_on_c, 1, 54, 127
1, 80032, Note_off_c, 1, 54, 0
1, 80044, Note_off_c, 1, 62, 0
1, 80047, Note_on_c, 1, 73, 127
1, 80047, Note_on_c, 1, 52, 127
1, 80047, Note_on_c, 1, 67, 127
1, 80350, Note_off_c, 1, 73, 0
1, 80352, Note_on_c, 1, 74, 127
1, 80353, Note_off_c, 1, 52, 0
1, 80355, Note_on_c, 1, 50, 127
1, 80642, Note_off_c, 1, 50, 0
1, 80655, Note_off_c, 1, 74, 0
1, 80657, Note_on_c, 1, 49, 127
1, 80657, Note_on_c, 1, 76, 127
1, 80961, Note_off_c, 1, 67, 0
1, 80963, Note_off_c, 1, 49, 0
1, 80963, Note_on_c, 1, 71, 127
1, 80966, Note_on_c, 1, 45, 127
1, 81253, Note_off_c, 1, 45, 0
1, 81266, Note_off_c, 1, 71, 0
1, 81268, Note_on_c, 1, 69, 127
1, 81268, Note_on_c, 1, 47, 127
1, 81571, Note_off_c, 1, 69, 0
1, 81574, Note_off_c, 1, 47, 0
1, 81879, Note_on_c, 1, 66, 127
1, 82181, Note_off_c, 1, 76, 0
1, 82187, Note_on_c, 1, 57, 127
1, 82474, Note_off_c, 1, 57, 0
1, 82487, Note_off_c, 1, 66, 0
1, 82489, Note_on_c, 1, 76, 127
1, 82489, Note_on_c, 1, 55, 127
1, 82489, Note_on_c, 1, 71, 127
1, 82792, Note_off_c, 1, 76, 0
1, 82794, Note_on_c, 1, 78, 127
1, 82795, Note_off_c, 1, 55, 0
1, 82798, Note_on_c, 1, 54, 127
1, 83085, Note_off_c, 1, 54, 0
1, 83097, Note_off_c, 1, 78, 0
1, 83100, Note_on_c, 1, 52, 127
1, 83100, Note_on_c, 1, 79, 127
1, 83403, Note_off_c, 1, 71, 0
1, 83405, Note_on_c, 1, 74, 127
1, 83406, Note_off_c, 1, 52, 0
1, 83408, Note_on_c, 1, 49, 127
1, 83695, Note_off_c, 1, 49, 0
1, 83708, Note_off_c, 1, 74, 0
1, 83710, Note_on_c, 1, 73, 127
1, 83710, Note_on_c, 1, 50, 127
1, 84013, Note_off_c, 1, 73, 0
1, 84016, Note_off_c, 1, 50, 0
1, 84321, Note_on_c, 1, 46, 127
1, 84627, Note_off_c, 1, 46, 0
1, 84930, Note_off_c, 1, 79, 0
1, 84931, Note_on_c, 1, 74, 127
1, 84931, Note_on_c, 1, 56, 127
1, 84931, Note_on_c, 1, 78, 127
1, 85234, Note_off_c, 1, 74, 0
1, 85237, Note_off_c, 1, 56, 0
1, 85237, Note_on_c, 1, 73, 127
1, 85240, Note_on_c, 1, 58, 127
1, 85527, Note_off_c, 1, 58, 0
1, 85540, Note_off_c, 1, 73, 0
1, 85542, Note_on_c, 1, 59, 127
1, 85845, Note_off_c, 1, 78, 0
1, 85847, Note_on_c, 1, 81, 127
1, 85848, Note_off_c, 1, 59, 0
1, 85850, Note_on_c, 1, 47, 127
1, 86137, Note_off_c, 1, 47, 0
1, 86150, Note_off_c, 1, 81, 0
1, 86152, Note_on_c, 1, 79, 127
1, 86152, Note_on_c, 1, 49, 127
1, 86152, Note_on_c, 1, 71, 127
1, 86455, Note_off_c, 1, 79, 0
1, 86458, Note_off_c, 1, 49, 0
1, 86458, Note_on_c, 1, 78, 127
1, 86461, Note_on_c, 1, 50, 127
1, 86748, Note_off_c, 1, 50, 0
1, 86761, Note_off_c, 1, 78, 0
1, 86763, Note_on_c, 1, 52, 127
1, 87066, Note_off_c, 1, 71, 0
1, 87068, Note_on_c, 1, 74, 127
1, 87069, Note_off_c, 1, 52, 0
1, 87071, Note_on_c, 1, 54, 127
1, 87358, Note_off_c, 1, 54, 0
1, 87371, Note_off_c, 1, 74, 0
1, 87374, Note_on_c, 1, 73, 127
1, 87374, Note_on_c, 1, 52, 127
1, 87374, Note_on_c, 1, 80, 127
1, 87677, Note_off_c, 1, 73, 0
1, 87679, Note_on_c, 1, 71, 127
1, 87680, Note_off_c, 1, 52, 0
1, 87682, Note_on_c, 1, 50, 127
1, 87969, Note_off_c, 1, 50, 0
1, 87982, Note_off_c, 1, 71, 0
1, 87984, Note_on_c, 1, 49, 127
1, 87984, Note_on_c, 1, 76, 127
1, 88288, Note_off_c, 1, 80, 0
1, 88289, Note_on_c, 1, 83, 127
1, 88290, Note_off_c, 1, 49, 0
1, 88293, Note_on_c, 1, 61, 127
1, 88580, Note_off_c, 1, 61, 0
1, 88592, Note_off_c, 1, 76, 0
1, 88592, Note_off_c, 1, 83, 0
1, 88595, Note_on_c, 1, 81, 127
1, 88595, Note_on_c, 1, 62, 127
1, 88595, Note_on_c, 1, 73, 127
1, 88898, Note_off_c, 1, 81, 0
1, 88900, Note_on_c, 1, 80, 127
1, 88901, Note_off_c, 1, 62, 0
1, 88903, Note_on_c, 1, 64, 127
1, 89190, Note_off_c, 1, 64, 0
1, 89203, Note_off_c, 1, 80, 0
1, 89205, Note_on_c, 1, 66, 127
1, 89509, Note_off_c, 1, 73, 0
1, 89511, Note_off_c, 1, 66, 0
1, 89511, Note_on_c, 1, 76, 127
1, 89514, Note_on_c, 1, 67, 127
1, 89801, Note_off_c, 1, 67, 0
1, 89814, Note_off_c, 1, 76, 0
1, 89816, Note_on_c, 1, 74, 127
1, 89816, Note_on_c, 1, 66, 127
1, 89816, Note_on_c, 1, 82, 127
1, 90119, Note_off_c, 1, 74, 0
1, 90121, Note_on_c, 1, 73, 127
1, 90122, Note_off_c, 1, 66, 0
1, 90124, Note_on_c, 1, 64, 127
1, 90411, Note_off_c, 1, 64, 0
1, 90424, Note_off_c, 1, 73, 0
1, 90426, Note_on_c, 1, 62, 127
1, 90426, Note_on_c, 1, 78, 127
1, 90730, Note_off_c, 1, 82, 0
1, 90732, Note_off_c, 1, 62, 0
1, 90732, Note_on_c, 1, 84, 127
1, 90735, Note_on_c, 1, 50, 127
1, 91022, Note_off_c, 1, 50, 0
1, 91034, Note_off_c, 1, 78, 0
1, 91035, Note_off_c, 1, 84, 0
1, 91037, Note_on_c, 1, 83, 127
1, 91037, Note_on_c, 1, 52, 127
1, 91037, Note_on_c, 1, 74, 127
1, 91340, Note_off_c, 1, 83, 0
1, 91342, Note_on_c, 1, 82, 127
1, 91343, Note_off_c, 1, 52, 0
1, 91345, Note_on_c, 1, 54, 127
1, 91632, Note_off_c, 1, 54, 0
1, 91645, Note_off_c, 1, 82, 0
1, 91648, Note_on_c, 1, 55, 127
1, 91951, Note_off_c, 1, 74, 0
1, 91953, Note_on_c, 1, 76, 127
1, 91954, Note_off_c, 1, 55, 0
1, 92256, Note_off_c, 1, 76, 0
1, 92258, Note_on_c, 1, 78, 127
1, 92563, Note_on_c, 1, 81, 127
1, 92567, Note_on_c, 1, 51, 127
1, 92854, Note_off_c, 1, 51, 0
1, 92866, Note_off_c, 1, 81, 0
1, 92869, Note_on_c, 1, 79, 127
1, 93177, Note_on_c, 1, 50, 127
1, 93464, Note_off_c, 1, 50, 0
1, 93477, Note_off_c, 1, 78, 0
1, 93479, Note_on_c, 1, 49, 127
1, 93785, Note_off_c, 1, 49, 0
1, 93788, Note_on_c, 1, 47, 127
1, 94075, Note_off_c, 1, 47, 0
1, 94088, Note_off_c, 1, 79, 0
1, 94090, Note_on_c, 1, 46, 127
1, 94396, Note_off_c, 1, 46, 0
1, 94700, Note_on_c, 1, 59, 127
1, 95006, Note_off_c, 1, 59, 0
1, 95009, Note_on_c, 1, 57, 127
1, 95296, Note_off_c, 1, 57, 0
1, 95311, Note_on_c, 1, 56, 127
1, 95617, Note_off_c, 1, 56, 0
1, 95921, Note_on_c, 1, 73, 127
1, 96230, Note_on_c, 1, 58, 127
1, 96517, Note_off_c, 1, 58, 0
1, 97140, Note_off_c, 1, 73, 0
1, 97143, Note_on_c, 1, 71, 127
1, 97446, Note_off_c, 1, 71, 0
1, 97448, Note_on_c, 1, 69, 127
1, 97751, Note_off_c, 1, 69, 0
1, 97753, Note_on_c, 1, 67, 127
1, 98974, Note_on_c, 1, 70, 127
1, 99277, Note_off_c, 1, 67, 0
1, 99277, Note_off_c, 1, 70, 0
1, 99585, Note_on_c, 1, 71, 127
1, 99585, Note_on_c, 1, 78, 127
1, 99585, Note_on_c, 1, 50, 127
1, 99888, Note_off_c, 1, 71, 0
1, 99888, Note_off_c, 1, 78, 0
1, 99890, Note_on_c, 1, 73, 127
1, 99890, Note_on_c, 1, 76, 127
1, 99891, Note_off_c, 1, 50, 0
1, 99893, Note_on_c, 1, 52, 127
1, 100180, Note_off_c, 1, 52, 0
1, 100193, Note_off_c, 1, 73, 0
1, 100193, Note_off_c, 1, 76, 0
1, 100195, Note_on_c, 1, 66, 127
1, 100195, Note_on_c, 1, 54, 127
1, 100195, Note_on_c, 1, 74, 127
1, 100498, Note_off_c, 1, 66, 0
1, 100501, Note_off_c, 1, 54, 0
1, 100501, Note_on_c, 1, 71, 127
1, 100504, Note_on_c, 1, 52, 127
1, 100791, Note_off_c, 1, 52, 0
1, 100803, Note_off_c, 1, 74, 0
1, 100806, Note_on_c, 1, 73, 127
1, 101109, Note_off_c, 1, 71, 0
1, 101111, Note_on_c, 1, 70, 127
1, 101114, Note_on_c, 1, 42, 127
1, 101401, Note_off_c, 1, 42, 0
1, 101414, Note_off_c, 1, 73, 0
1, 101414, Note_off_c, 1, 70, 0
1, 101417, Note_on_c, 1, 43, 127
1, 101417, Note_on_c, 1, 71, 127
1, 101732, Note_on_c, 1, 64, 127
1, 102037, Note_off_c, 1, 43, 0
1, 102046, Note_on_c, 1, 42, 127
1, 102358, Note_off_c, 1, 64, 0
1, 102360, Note_on_c, 1, 63, 127
1, 102666, Note_off_c, 1, 42, 0
1, 102672, Note_off_c, 1, 63, 0
1, 102675, Note_on_c, 1, 40, 127
1, 102675, Note_on_c, 1, 67, 127
1, 102986, Note_off_c, 1, 71, 0
1, 103295, Note_off_c, 1, 40, 0
1, 103304, Note_on_c, 1, 38, 127
1, 103618, Note_on_c, 1, 70, 127
1, 103924, Note_off_c, 1, 38, 0
1, 103930, Note_off_c, 1, 70, 0
1, 103933, Note_on_c, 1, 37, 127
1, 103933, Note_on_c, 1, 76, 127
1, 104244, Note_off_c, 1, 67, 0
1, 104254, Note_off_c, 1, 37, 0
1, 104257, Note_on_c, 1, 59, 127
1, 104557, Note_off_c, 1, 59, 0
1, 104574, Note_on_c, 1, 58, 127
1, 104895, Note_off_c, 1, 58, 0
1, 104895, Note_on_c, 1, 66, 127
1, 104899, Note_on_c, 1, 57, 127
1, 105199, Note_off_c, 1, 57, 0
1, 105213, Note_off_c, 1, 66, 0
1, 105217, Note_on_c, 1, 56, 127
1, 105533, Note_off_c, 1, 76, 0
1, 105538, Note_off_c, 1, 56, 0
1, 105540, Note_on_c, 1, 55, 127
1, 105840, Note_off_c, 1, 55, 0
1, 105857, Note_on_c, 1, 54, 127
1, 106178, Note_off_c, 1, 54, 0
1, 106178, Note_on_c, 1, 75, 127
1, 106496, Note_off_c, 1, 75, 0
1, 106499, Note_on_c, 1, 52, 127
1, 106499, Note_on_c, 1, 79, 127
1, 106820, Note_off_c, 1, 52, 0
1, 107141, Note_on_c, 1, 62, 127
1, 107462, Note_off_c, 1, 62, 0
1, 107465, Note_on_c, 1, 61, 127
1, 107765, Note_off_c, 1, 61, 0
1, 107782, Note_on_c, 1, 74, 127
1, 108099, Note_off_c, 1, 79, 0
1, 108102, Note_on_c, 1, 78, 127
1, 108106, Note_on_c, 1, 60, 127
1, 108406, Note_off_c, 1, 60, 0
1, 108740, Note_off_c, 1, 78, 0
1, 108744, Note_on_c, 1, 77, 127
1, 109062, Note_off_c, 1, 77, 0
1, 109065, Note_on_c, 1, 83, 127
1, 109065, Note_on_c, 1, 53, 127
1, 109387, Note_off_c, 1, 74, 0
1, 109388, Note_off_c, 1, 83, 0
1, 109390, Note_on_c, 1, 72, 127
1, 109391, Note_off_c, 1, 53, 0
1, 109711, Note_off_c, 1, 72, 0
1, 109715, Note_on_c, 1, 76, 127
1, 109715, Note_on_c, 1, 55, 127
1, 109715, Note_on_c, 1, 71, 127
1, 110038, Note_off_c, 1, 76, 0
1, 110040, Note_on_c, 1, 79, 127
1, 110041, Note_off_c, 1, 55, 0
1, 110043, Note_on_c, 1, 52, 127
1, 110346, Note_off_c, 1, 52, 0
1, 110361, Note_off_c, 1, 79, 0
1, 110364, Note_on_c, 1, 54, 127
1, 110364, Note_on_c, 1, 74, 127
1, 110693, Note_off_c, 1, 54, 0
1, 111018, Note_off_c, 1, 74, 0
1, 111020, Note_off_c, 1, 71, 0
1, 111022, Note_on_c, 1, 54, 127
1, 111022, Note_on_c, 1, 70, 127
1, 111022, Note_on_c, 1, 73, 127
1, 111366, Note_off_c, 1, 54, 0
1, 111369, Note_on_c, 1, 42, 127
1, 111692, Note_off_c, 1, 42, 0
1, 111707, Note_off_c, 1, 70, 0
1, 111707, Note_off_c, 1, 73, 0
1, 111711, Note_on_c, 1, 69, 127
1, 111711, Note_on_c, 1, 75, 127
1, 111711, Note_on_c, 1, 47, 127
1, 112065, Note_off_c, 1, 69, 0
1, 112065, Note_off_c, 1, 75, 0
1, 112068, Note_on_c, 1, 76, 127
1, 112068, Note_on_c, 1, 67, 127
1, 112422, Note_off_c, 1, 76, 0
1, 112425, Note_on_c, 1, 70, 127
1, 112779, Note_off_c, 1, 67, 0
1, 112779, Note_off_c, 1, 70, 0
1, 112784, Note_on_c, 1, 71, 127
1, 112784, Note_on_c, 1, 66, 127
1, 113138, Note_off_c, 1, 71, 0
1, 113520, Note_off_c, 1, 66, 0
1, 113521, Note_on_c, 1, 64, 127
1, 113898, Note_off_c, 1, 64, 0
1, 113903, Note_on_c, 1, 61, 127
1, 114661, Note_off_c, 1, 61, 0
1, 114664, Note_on_c, 1, 63, 127
1, 117112, Note_off_c, 1, 47, 0
1, 117116, Note_off_c, 1, 63, 0
1, 118395, Note_on_c, 1, 66, 127
1, 118802, Note_off_c, 1, 66, 0
1, 118805, Note_on_c, 1, 62, 127
1, 119212, Note_off_c, 1, 62, 0
1, 119215, Note_on_c, 1, 59, 127
1, 119622, Note_off_c, 1, 59, 0
1, 119624, Note_on_c, 1, 67, 127
1, 120031, Note_off_c, 1, 67, 0
1, 120033, Note_on_c, 1, 66, 127
1, 120440, Note_off_c, 1, 66, 0
1, 120443, Note_on_c, 1, 71, 127
1, 120850, Note_off_c, 1, 71, 0
1, 120853, Note_on_c, 1, 70, 127
1, 121260, Note_off_c, 1, 70, 0
1, 121262, Note_on_c, 1, 64, 127
1, 121669, Note_off_c, 1, 64, 0
1, 121672, Note_on_c, 1, 63, 127
1, 122079, Note_off_c, 1, 63, 0
1, 122081, Note_on_c, 1, 72, 127
1, 122488, Note_off_c, 1, 72, 0
1, 122491, Note_on_c, 1, 71, 127
1, 122898, Note_off_c, 1, 71, 0
1, 122900, Note_on_c, 1, 66, 127
1, 123307, Note_off_c, 1, 66, 0
1, 123310, Note_on_c, 1, 65, 127
1, 123717, Note_off_c, 1, 65, 0
1, 123720, Note_on_c, 1, 74, 127
1, 124127, Note_off_c, 1, 74, 0
1, 124129, Note_on_c, 1, 73, 127
1, 124536, Note_off_c, 1, 73, 0
1, 124538, Note_on_c, 1, 72, 127
1, 124945, Note_off_c, 1, 72, 0
1, 124948, Note_on_c, 1, 73, 127
1, 125355, Note_off_c, 1, 73, 0
1, 125358, Note_on_c, 1, 69, 127
1, 125765, Note_off_c, 1, 69, 0
1, 125768, Note_on_c, 1, 66, 127
1, 126175, Note_off_c, 1, 66, 0
1, 126177, Note_on_c, 1, 69, 127
1, 126277, Note_off_c, 1, 69, 0
1, 126280, Note_on_c, 1, 68, 127
1, 126380, Note_off_c, 1, 68, 0
1, 126383, Note_on_c, 1, 69, 127
1, 126483, Note_off_c, 1, 69, 0
1, 126485, Note_on_c, 1, 68, 127
1, 126585, Note_off_c, 1, 68, 0
1, 126588, Note_on_c, 1, 69, 127
1, 126688, Note_off_c, 1, 69, 0
1, 126691, Note_on_c, 1, 68, 127
1, 126791, Note_off_c, 1, 68, 0
1, 126794, Note_on_c, 1, 69, 127
1, 126894, Note_off_c, 1, 69, 0
1, 126897, Note_on_c, 1, 68, 127
1, 126997, Note_off_c, 1, 68, 0
1, 126999, Note_on_c, 1, 69, 127
1, 127099, Note_off_c, 1, 69, 0
1, 127102, Note_on_c, 1, 68, 127
1, 127202, Note_off_c, 1, 68, 0
1, 127205, Note_on_c, 1, 69, 127
1, 127305, Note_off_c, 1, 69, 0
1, 127308, Note_on_c, 1, 68, 127
1, 127408, Note_off_c, 1, 68, 0
1, 127411, Note_on_c, 1, 69, 127
1, 127511, Note_off_c, 1, 69, 0
1, 127514, Note_on_c, 1, 68, 127
1, 127614, Note_off_c, 1, 68, 0
1, 127616, Note_on_c, 1, 69, 127
1, 127716, Note_off_c, 1, 69, 0
1, 127719, Note_on_c, 1, 68, 127
1, 127819, Note_off_c, 1, 68, 0
1, 127822, Note_on_c, 1, 66, 127
1, 128231, Note_on_c, 1, 59, 127
1, 128433, Note_off_c, 1, 66, 0
1, 128435, Note_on_c, 1, 65, 127
1, 128636, Note_off_c, 1, 59, 0
1, 128636, Note_off_c, 1, 65, 0
1, 128639, Note_on_c, 1, 66, 127
1, 128639, Note_on_c, 1, 57, 127
1, 128840, Note_off_c, 1, 66, 0
1, 128843, Note_on_c, 1, 68, 127
1, 129044, Note_off_c, 1, 57, 0
1, 129044, Note_off_c, 1, 68, 0
1, 129047, Note_on_c, 1, 69, 127
1, 129047, Note_on_c, 1, 54, 127
1, 129248, Note_off_c, 1, 69, 0
1, 129251, Note_on_c, 1, 73, 127
1, 129452, Note_off_c, 1, 54, 0
1, 129452, Note_off_c, 1, 73, 0
1, 129454, Note_on_c, 1, 71, 127
1, 129454, Note_on_c, 1, 62, 127
1, 129655, Note_off_c, 1, 71, 0
1, 129659, Note_on_c, 1, 68, 127
1, 129859, Note_off_c, 1, 62, 0
1, 129860, Note_off_c, 1, 68, 0
1, 129863, Note_on_c, 1, 69, 127
1, 129863, Note_on_c, 1, 59, 127
1, 130064, Note_off_c, 1, 69, 0
1, 130067, Note_on_c, 1, 72, 127
1, 130268, Note_off_c, 1, 59, 0
1, 130268, Note_off_c, 1, 72, 0
1, 130271, Note_on_c, 1, 64, 127
1, 130271, Note_on_c, 1, 78, 127
1, 130678, Note_off_c, 1, 64, 0
1, 130680, Note_on_c, 1, 63, 127
1, 131087, Note_off_c, 1, 63, 0
1, 131088, Note_off_c, 1, 78, 0
1, 131090, Note_on_c, 1, 57, 127
1, 131090, Note_on_c, 1, 76, 127
1, 131497, Note_off_c, 1, 57, 0
1, 131499, Note_on_c, 1, 56, 127
1, 131906, Note_off_c, 1, 56, 0
1, 131907, Note_off_c, 1, 76, 0
1, 131908, Note_on_c, 1, 65, 127
1, 131908, Note_on_c, 1, 74, 127
1, 132315, Note_off_c, 1, 65, 0
1, 132319, Note_on_c, 1, 64, 127
1, 132725, Note_off_c, 1, 74, 0
1, 132726, Note_off_c, 1, 64, 0
1, 132728, Note_on_c, 1, 59, 127
1, 132728, Note_on_c, 1, 73, 127
1, 133135, Note_off_c, 1, 59, 0
1, 133138, Note_on_c, 1, 58, 127
1, 133545, Note_off_c, 1, 73, 0
1, 133545, Note_off_c, 1, 58, 0
1, 133547, Note_on_c, 1, 67, 127
1, 133547, Note_on_c, 1, 71, 127
1, 133954, Note_off_c, 1, 67, 0
1, 133956, Note_on_c, 1, 66, 127
1, 134363, Note_off_c, 1, 66, 0
1, 134366, Note_on_c, 1, 65, 127
1, 134773, Note_off_c, 1, 71, 0
1, 134773, Note_off_c, 1, 65, 0
1, 134776, Note_on_c, 1, 66, 127
1, 134776, Note_on_c, 1, 70, 127
1, 135183, Note_off_c, 1, 66, 0
1, 135183, Note_off_c, 1, 70, 0
1, 135185, Note_on_c, 1, 62, 127
1, 135185, Note_on_c, 1, 71, 127
1, 135592, Note_off_c, 1, 62, 0
1, 135595, Note_on_c, 1, 59, 127
1, 136002, Note_off_c, 1, 59, 0
1, 136141, Note_on_c, 1, 61, 127
1, 136205, Note_off_c, 1, 71, 0
1, 136209, Note_on_c, 1, 73, 127
1, 136273, Note_off_c, 1, 61, 0
1, 136410, Note_off_c, 1, 73, 0
1, 136412, Note_on_c, 1, 61, 127
1, 136412, Note_on_c, 1, 74, 127
1, 136546, Note_off_c, 1, 61, 0
1, 136549, Note_on_c, 1, 62, 127
1, 136613, Note_off_c, 1, 74, 0
1, 136616, Note_on_c, 1, 76, 127
1, 136681, Note_off_c, 1, 62, 0
1, 136817, Note_off_c, 1, 76, 0
1, 136820, Note_on_c, 1, 62, 127
1, 136820, Note_on_c, 1, 78, 127
1, 136954, Note_off_c, 1, 62, 0
1, 136957, Note_on_c, 1, 61, 127
1, 137021, Note_off_c, 1, 78, 0
1, 137024, Note_on_c, 1, 79, 127
1, 137089, Note_off_c, 1, 61, 0
1, 137225, Note_off_c, 1, 79, 0
1, 137228, Note_on_c, 1, 61, 127
1, 137228, Note_on_c, 1, 71, 127
1, 137362, Note_off_c, 1, 61, 0
1, 137364, Note_on_c, 1, 62, 127
1, 137429, Note_off_c, 1, 71, 0
1, 137432, Note_on_c, 1, 70, 127
1, 137496, Note_off_c, 1, 62, 0
1, 137633, Note_off_c, 1, 70, 0
1, 137636, Note_on_c, 1, 59, 127
1, 137636, Note_on_c, 1, 74, 127
1, 137837, Note_off_c, 1, 59, 0
1, 137840, Note_on_c, 1, 66, 127
1, 138041, Note_off_c, 1, 66, 0
1, 138044, Note_on_c, 1, 68, 127
1, 138245, Note_off_c, 1, 68, 0
1, 138247, Note_on_c, 1, 70, 127
1, 138448, Note_off_c, 1, 70, 0
1, 138452, Note_on_c, 1, 71, 127
1, 138653, Note_off_c, 1, 71, 0
1, 138655, Note_on_c, 1, 73, 127
1, 138856, Note_off_c, 1, 73, 0
1, 139063, Note_on_c, 1, 65, 127
1, 139264, Note_off_c, 1, 65, 0
1, 139267, Note_on_c, 1, 69, 127
1, 139676, Note_off_c, 1, 74, 0
1, 139677, Note_on_c, 1, 72, 127
1, 140084, Note_off_c, 1, 72, 0
1, 140496, Note_on_c, 1, 75, 127
1, 140903, Note_off_c, 1, 75, 0
1, 140906, Note_on_c, 1, 76, 127
1, 141313, Note_off_c, 1, 69, 0
1, 141315, Note_on_c, 1, 67, 127
1, 141722, Note_off_c, 1, 67, 0
1, 142952, Note_off_c, 1, 76, 0
1, 143772, Note_on_c, 1, 77, 127
1, 144179, Note_off_c, 1, 77, 0
1, 144182, Note_on_c, 1, 78, 127
1, 144591, Note_on_c, 1, 54, 127
1, 144777, Note_off_c, 1, 78, 0
1, 144796, Note_on_c, 1, 79, 127
1, 144996, Note_off_c, 1, 54, 0
1, 144997, Note_off_c, 1, 79, 0
1, 144999, Note_on_c, 1, 78, 127
1, 144999, Note_on_c, 1, 50, 127
1, 144999, Note_on_c, 1, 71, 127
1, 145200, Note_off_c, 1, 78, 0
1, 145203, Note_on_c, 1, 76, 127
1, 145404, Note_off_c, 1, 50, 0
1, 145404, Note_off_c, 1, 76, 0
1, 145407, Note_on_c, 1, 74, 127
1, 145407, Note_on_c, 1, 47, 127
1, 145593, Note_off_c, 1, 71, 0
1, 145608, Note_off_c, 1, 74, 0
1, 145812, Note_off_c, 1, 47, 0
1, 145816, Note_on_c, 1, 73, 127
1, 145816, Note_on_c, 1, 55, 127
1, 146017, Note_off_c, 1, 73, 0
1, 146019, Note_on_c, 1, 76, 127
1, 146220, Note_off_c, 1, 76, 0
1, 146221, Note_off_c, 1, 55, 0
1, 146223, Note_on_c, 1, 74, 127
1, 146223, Note_on_c, 1, 54, 127
1, 146424, Note_off_c, 1, 74, 0
1, 146427, Note_on_c, 1, 71, 127
1, 146628, Note_off_c, 1, 54, 0
1, 146628, Note_off_c, 1, 71, 0
1, 146631, Note_on_c, 1, 59, 127
1, 146631, Note_on_c, 1, 66, 127
1, 146631, Note_on_c, 1, 73, 127
1, 147038, Note_off_c, 1, 59, 0
1, 147038, Note_off_c, 1, 66, 0
1, 147040, Note_on_c, 1, 58, 127
1, 147040, Note_on_c, 1, 78, 127
1, 147440, Note_off_c, 1, 73, 0
1, 147447, Note_off_c, 1, 58, 0
1, 147450, Note_on_c, 1, 52, 127
1, 147450, Note_on_c, 1, 71, 127
1, 147857, Note_off_c, 1, 52, 0
1, 147859, Note_on_c, 1, 51, 127
1, 148063, Note_off_c, 1, 78, 0
1, 148065, Note_on_c, 1, 79, 127
1, 148261, Note_off_c, 1, 71, 0
1, 148268, Note_off_c, 1, 51, 0
1, 148268, Note_off_c, 1, 79, 0
1, 148271, Note_on_c, 1, 78, 127
1, 148271, Note_on_c, 1, 60, 127
1, 148271, Note_on_c, 1, 69, 127
1, 148472, Note_off_c, 1, 78, 0
1, 148475, Note_on_c, 1, 76, 127
1, 148676, Note_off_c, 1, 60, 0
1, 148676, Note_off_c, 1, 76, 0
1, 148679, Note_on_c, 1, 75, 127
1, 148679, Note_on_c, 1, 59, 127
1, 148880, Note_off_c, 1, 75, 0
1, 148882, Note_on_c, 1, 73, 127
1, 149079, Note_off_c, 1, 69, 0
1, 149085, Note_off_c, 1, 73, 0
1, 149086, Note_off_c, 1, 59, 0
1, 149088, Note_on_c, 1, 71, 127
1, 149088, Note_on_c, 1, 54, 127
1, 149088, Note_on_c, 1, 68, 127
1, 149222, Note_off_c, 1, 71, 0
1, 149225, Note_on_c, 1, 73, 127
1, 149359, Note_off_c, 1, 73, 0
1, 149361, Note_on_c, 1, 74, 127
1, 149495, Note_off_c, 1, 54, 0
1, 149495, Note_off_c, 1, 74, 0
1, 149498, Note_on_c, 1, 53, 127
1, 149897, Note_off_c, 1, 68, 0
1, 149905, Note_off_c, 1, 53, 0
1, 149907, Note_on_c, 1, 62, 127
1, 149907, Note_on_c, 1, 66, 127
1, 150312, Note_off_c, 1, 62, 0
1, 150315, Note_on_c, 1, 69, 127
1, 150315, Note_on_c, 1, 61, 127
1, 150516, Note_off_c, 1, 69, 0
1, 150720, Note_off_c, 1, 61, 0
1, 150723, Note_on_c, 1, 60, 127
1, 151130, Note_off_c, 1, 66, 0
1, 151130, Note_off_c, 1, 60, 0
1, 151133, Note_on_c, 1, 65, 127
1, 151540, Note_off_c, 1, 65, 0
1, 151542, Note_on_c, 1, 57, 127
1, 151542, Note_on_c, 1, 69, 127
1, 151542, Note_on_c, 1, 66, 127
1, 151949, Note_off_c, 1, 57, 0
1, 151952, Note_on_c, 1, 54, 127
1, 152359, Note_off_c, 1, 69, 0
1, 152359, Note_off_c, 1, 54, 0
1, 152361, Note_on_c, 1, 71, 127
1, 152361, Note_on_c, 1, 56, 127
1, 152565, Note_off_c, 1, 66, 0
1, 152567, Note_on_c, 1, 68, 127
1, 152768, Note_off_c, 1, 68, 0
1, 152956, Note_off_c, 1, 71, 0
1, 153180, Note_on_c, 1, 73, 127
1, 153381, Note_off_c, 1, 73, 0
1, 153384, Note_on_c, 1, 74, 127
1, 153585, Note_off_c, 1, 74, 0
1, 153792, Note_on_c, 1, 65, 127
1, 153993, Note_off_c, 1, 56, 0
1, 153993, Note_off_c, 1, 65, 0
1, 154404, Note_on_c, 1, 55, 127
1, 154605, Note_off_c, 1, 55, 0
1, 154814, Note_on_c, 1, 59, 127
1, 155015, Note_off_c, 1, 59, 0
1, 155017, Note_on_c, 1, 60, 127
1, 155218, Note_off_c, 1, 60, 0
1, 155221, Note_on_c, 1, 52, 127
1, 155422, Note_off_c, 1, 52, 0
1, 155426, Note_on_c, 1, 51, 127
1, 155627, Note_off_c, 1, 51, 0
1, 155629, Note_on_c, 1, 67, 127
1, 156445, Note_on_c, 1, 58, 127
1, 156445, Note_on_c, 1, 64, 127
1, 156646, Note_off_c, 1, 58, 0
1, 156852, Note_on_c, 1, 50, 127
1, 157053, Note_off_c, 1, 50, 0
1, 157057, Note_on_c, 1, 49, 127
1, 157258, Note_off_c, 1, 67, 0
1, 157258, Note_off_c, 1, 49, 0
1, 157671, Note_on_c, 1, 47, 127
1, 157870, Note_off_c, 1, 64, 0
1, 157876, Note_on_c, 1, 62, 127
1, 158077, Note_off_c, 1, 62, 0
1, 158078, Note_off_c, 1, 47, 0
1, 158080, Note_on_c, 1, 61, 127
1, 158080, Note_on_c, 1, 69, 127
1, 158080, Note_on_c, 1, 54, 127
1, 158281, Note_off_c, 1, 61, 0
1, 158283, Note_on_c, 1, 59, 127
1, 158484, Note_off_c, 1, 59, 0
1, 158485, Note_off_c, 1, 69, 0
1, 158488, Note_on_c, 1, 57, 127
1, 158488, Note_on_c, 1, 66, 127
1, 158674, Note_off_c, 1, 54, 0
1, 158689, Note_off_c, 1, 57, 0
1, 158893, Note_off_c, 1, 66, 0
1, 158896, Note_on_c, 1, 56, 127
1, 158896, Note_on_c, 1, 74, 127
1, 158896, Note_on_c, 1, 65, 127
1, 159097, Note_off_c, 1, 56, 0
1, 159301, Note_off_c, 1, 74, 0
1, 159301, Note_off_c, 1, 65, 0
1, 159303, Note_on_c, 1, 63, 127
1, 159303, Note_on_c, 1, 71, 127
1, 159708, Note_off_c, 1, 63, 0
1, 159708, Note_off_c, 1, 71, 0
1, 159711, Note_on_c, 1, 60, 127
1, 159711, Note_on_c, 1, 76, 127
1, 159711, Note_on_c, 1, 54, 127
1, 160118, Note_off_c, 1, 60, 0
1, 160118, Note_off_c, 1, 76, 0
1, 160120, Note_on_c, 1, 59, 127
1, 160120, Note_on_c, 1, 75, 127
1, 160321, Note_off_c, 1, 59, 0
1, 160325, Note_on_c, 1, 57, 127
1, 160520, Note_off_c, 1, 54, 0
1, 160528, Note_off_c, 1, 57, 0
1, 160530, Note_on_c, 1, 69, 127
1, 160530, Note_on_c, 1, 52, 127
1, 160925, Note_off_c, 1, 75, 0
1, 160937, Note_off_c, 1, 69, 0
1, 160940, Note_on_c, 1, 68, 127
1, 161347, Note_off_c, 1, 52, 0
1, 161347, Note_off_c, 1, 68, 0
1, 161350, Note_on_c, 1, 77, 127
1, 161350, Note_on_c, 1, 50, 127
1, 161757, Note_off_c, 1, 77, 0
1, 162167, Note_off_c, 1, 50, 0
1, 162168, Note_on_c, 1, 71, 127
1, 162168, Note_on_c, 1, 49, 127
1, 162168, Note_on_c, 1, 52, 127
1, 162575, Note_off_c, 1, 71, 0
1, 162578, Note_on_c, 1, 76, 127
1, 162578, Note_on_c, 1, 70, 127
1, 162985, Note_off_c, 1, 49, 0
1, 162985, Note_off_c, 1, 52, 0
1, 162985, Note_off_c, 1, 76, 0
1, 162985, Note_off_c, 1, 70, 0
1, 162988, Note_on_c, 1, 74, 127
1, 162988, Note_on_c, 1, 79, 127
1, 162988, Note_on_c, 1, 59, 127
1, 162988, Note_on_c, 1, 47, 127
1, 163189, Note_off_c, 1, 74, 0
1, 163191, Note_on_c, 1, 73, 127
1, 163391, Note_off_c, 1, 79, 0
1, 163392, Note_off_c, 1, 73, 0
1, 163393, Note_off_c, 1, 59, 0
1, 163396, Note_on_c, 1, 78, 127
1, 163396, Note_on_c, 1, 57, 127
1, 163599, Note_on_c, 1, 71, 127
1, 163799, Note_off_c, 1, 78, 0
1, 163800, Note_off_c, 1, 71, 0
1, 163801, Note_off_c, 1, 57, 0
1, 163804, Note_on_c, 1, 56, 127
1, 163804, Note_on_c, 1, 77, 127
1, 164211, Note_off_c, 1, 47, 0
1, 164211, Note_off_c, 1, 56, 0
1, 164211, Note_off_c, 1, 77, 0
1, 164213, Note_on_c, 1, 46, 127
1, 164213, Note_on_c, 1, 54, 127
1, 164620, Note_off_c, 1, 46, 0
1, 164620, Note_off_c, 1, 54, 0
1, 164622, Note_on_c, 1, 66, 127
1, 164622, Note_on_c, 1, 74, 127
1, 164622, Note_on_c, 1, 71, 127
1, 164622, Note_on_c, 1, 47, 127
1, 165029, Note_off_c, 1, 66, 0
1, 165029, Note_off_c, 1, 74, 0
1, 165029, Note_off_c, 1, 71, 0
1, 165032, Note_on_c, 1, 62, 127
1, 165439, Note_off_c, 1, 62, 0
1, 165441, Note_on_c, 1, 67, 127
1, 165441, Note_on_c, 1, 64, 127
1, 165441, Note_on_c, 1, 73, 127
1, 165642, Note_off_c, 1, 47, 0
1, 165645, Note_on_c, 1, 49, 127
1, 165846, Note_off_c, 1, 49, 0
1, 165850, Note_on_c, 1, 50, 127
1, 166051, Note_off_c, 1, 50, 0
1, 166053, Note_on_c, 1, 52, 127
1, 166254, Note_off_c, 1, 52, 0
1, 166258, Note_on_c, 1, 54, 127
1, 166459, Note_off_c, 1, 54, 0
1, 166461, Note_on_c, 1, 55, 127
1, 166662, Note_off_c, 1, 55, 0
1, 166869, Note_on_c, 1, 46, 127
1, 167070, Note_off_c, 1, 46, 0
1, 167273, Note_off_c, 1, 67, 0
1, 167273, Note_off_c, 1, 64, 0
1, 167273, Note_off_c, 1, 73, 0
1, 167481, Note_on_c, 1, 61, 127
1, 167684, Note_on_c, 1, 76, 127
1, 167885, Note_off_c, 1, 76, 0
1, 167889, Note_on_c, 1, 78, 127
1, 167889, Note_on_c, 1, 58, 127
1, 168090, Note_off_c, 1, 78, 0
1, 168093, Note_on_c, 1, 79, 127
1, 168294, Note_off_c, 1, 58, 0
1, 168294, Note_off_c, 1, 79, 0
1, 168501, Note_on_c, 1, 70, 127
1, 168702, Note_off_c, 1, 61, 0
1, 168702, Note_off_c, 1, 70, 0
1, 169521, Note_on_c, 1, 68, 127
1, 169929, Note_on_c, 1, 42, 127
1, 170130, Note_off_c, 1, 42, 0
1, 170134, Note_on_c, 1, 41, 127
1, 170335, Note_off_c, 1, 41, 0
1, 170541, Note_off_c, 1, 68, 0
1, 170543, Note_on_c, 1, 65, 127
1, 170744, Note_off_c, 1, 65, 0
1, 171155, Note_on_c, 1, 69, 127
1, 171356, Note_off_c, 1, 69, 0
1, 171563, Note_on_c, 1, 57, 127
1, 171968, Note_off_c, 1, 57, 0
1, 171971, Note_on_c, 1, 59, 127
1, 172376, Note_off_c, 1, 59, 0
1, 172379, Note_on_c, 1, 59, 127
1, 172379, Note_on_c, 1, 50, 127
1, 172379, Note_on_c, 1, 78, 127
1, 172580, Note_off_c, 1, 59, 0
1, 172583, Note_on_c, 1, 57, 127
1, 172782, Note_off_c, 1, 50, 0
1, 172784, Note_off_c, 1, 57, 0
1, 172786, Note_on_c, 1, 56, 127
1, 172786, Note_on_c, 1, 52, 127
1, 172987, Note_off_c, 1, 56, 0
1, 173189, Note_off_c, 1, 52, 0
1, 173192, Note_off_c, 1, 78, 0
1, 173194, Note_on_c, 1, 76, 127
1, 173194, Note_on_c, 1, 56, 127
1, 173194, Note_on_c, 1, 59, 127
1, 173395, Note_off_c, 1, 76, 0
1, 173398, Note_on_c, 1, 74, 127
1, 173599, Note_off_c, 1, 56, 0
1, 173599, Note_off_c, 1, 74, 0
1, 173602, Note_on_c, 1, 73, 127
1, 173602, Note_on_c, 1, 57, 127
1, 173803, Note_off_c, 1, 73, 0
1, 173896, Note_off_c, 1, 59, 0
1, 174009, Note_off_c, 1, 57, 0
1, 174012, Note_on_c, 1, 57, 127
1, 174012, Note_on_c, 1, 49, 127
1, 174012, Note_on_c, 1, 76, 127
1, 174213, Note_off_c, 1, 57, 0
1, 174216, Note_on_c, 1, 56, 127
1, 174415, Note_off_c, 1, 49, 0
1, 174417, Note_off_c, 1, 56, 0
1, 174420, Note_on_c, 1, 54, 127
1, 174420, Note_on_c, 1, 50, 127
1, 174621, Note_off_c, 1, 54, 0
1, 174823, Note_off_c, 1, 50, 0
1, 174825, Note_off_c, 1, 76, 0
1, 174828, Note_on_c, 1, 74, 127
1, 174828, Note_on_c, 1, 54, 127
1, 174828, Note_on_c, 1, 57, 127
1, 175029, Note_off_c, 1, 74, 0
1, 175031, Note_on_c, 1, 73, 127
1, 175232, Note_off_c, 1, 73, 0
1, 175233, Note_off_c, 1, 54, 0
1, 175236, Note_on_c, 1, 71, 127
1, 175236, Note_on_c, 1, 56, 127
1, 175437, Note_off_c, 1, 71, 0
1, 175530, Note_off_c, 1, 57, 0
1, 175643, Note_off_c, 1, 56, 0
1, 175645, Note_on_c, 1, 56, 127
1, 175645, Note_on_c, 1, 47, 127
1, 175645, Note_on_c, 1, 74, 127
1, 175846, Note_off_c, 1, 56, 0
1, 175849, Note_on_c, 1, 54, 127
1, 176048, Note_off_c, 1, 47, 0
1, 176050, Note_off_c, 1, 54, 0
1, 176053, Note_on_c, 1, 53, 127
1, 176053, Note_on_c, 1, 49, 127
1, 176254, Note_off_c, 1, 53, 0
1, 176456, Note_off_c, 1, 49, 0
1, 176458, Note_off_c, 1, 74, 0
1, 176461, Note_on_c, 1, 73, 127
1, 176461, Note_on_c, 1, 53, 127
1, 176461, Note_on_c, 1, 56, 127
1, 176662, Note_off_c, 1, 73, 0
1, 176665, Note_on_c, 1, 71, 127
1, 176866, Note_off_c, 1, 53, 0
1, 176866, Note_off_c, 1, 56, 0
1, 176866, Note_off_c, 1, 71, 0
1, 176868, Note_on_c, 1, 54, 127
1, 176868, Note_on_c, 1, 69, 127
1, 177074, Note_on_c, 1, 71, 127
1, 177275, Note_off_c, 1, 54, 0
1, 177275, Note_off_c, 1, 71, 0
1, 177278, Note_on_c, 1, 45, 127
1, 177278, Note_on_c, 1, 66, 127
1, 177278, Note_on_c, 1, 73, 127
1, 177677, Note_off_c, 1, 69, 0
1, 177685, Note_off_c, 1, 45, 0
1, 177685, Note_off_c, 1, 66, 0
1, 177688, Note_on_c, 1, 47, 127
1, 177688, Note_on_c, 1, 62, 127
1, 178087, Note_off_c, 1, 73, 0
1, 178095, Note_off_c, 1, 47, 0
1, 178095, Note_off_c, 1, 62, 0
1, 178097, Note_on_c, 1, 71, 127
1, 178097, Note_on_c, 1, 59, 127
1, 178097, Note_on_c, 1, 50, 127
1, 178097, Note_on_c, 1, 78, 127
1, 178298, Note_off_c, 1, 71, 0
1, 178301, Note_on_c, 1, 69, 127
1, 178502, Note_off_c, 1, 59, 0
1, 178502, Note_off_c, 1, 50, 0
1, 178502, Note_off_c, 1, 69, 0
1, 178505, Note_on_c, 1, 67, 127
1, 178505, Note_on_c, 1, 52, 127
1, 178706, Note_off_c, 1, 67, 0
1, 178905, Note_off_c, 1, 78, 0
1, 178912, Note_off_c, 1, 52, 0
1, 178915, Note_on_c, 1, 76, 127
1, 178915, Note_on_c, 1, 43, 127
1, 178915, Note_on_c, 1, 71, 127
1, 179116, Note_off_c, 1, 76, 0
1, 179119, Note_on_c, 1, 74, 127
1, 179320, Note_off_c, 1, 43, 0
1, 179320, Note_off_c, 1, 74, 0
1, 179322, Note_on_c, 1, 73, 127
1, 179322, Note_on_c, 1, 45, 127
1, 179523, Note_off_c, 1, 73, 0
1, 179723, Note_off_c, 1, 71, 0
1, 179729, Note_off_c, 1, 45, 0
1, 179732, Note_on_c, 1, 69, 127
1, 179732, Note_on_c, 1, 49, 127
1, 179732, Note_on_c, 1, 76, 127
1, 179933, Note_off_c, 1, 69, 0
1, 179936, Note_on_c, 1, 67, 127
1, 180137, Note_off_c, 1, 49, 0
1, 180137, Note_off_c, 1, 67, 0
1, 180139, Note_on_c, 1, 66, 127
1, 180139, Note_on_c, 1, 50, 127
1, 180340, Note_off_c, 1, 66, 0
1, 180540, Note_off_c, 1, 76, 0
1, 180546, Note_off_c, 1, 50, 0
1, 180550, Note_on_c, 1, 74, 127
1, 180550, Note_on_c, 1, 42, 127
1, 180550, Note_on_c, 1, 69, 127
1, 180751, Note_off_c, 1, 74, 0
1, 180753, Note_on_c, 1, 73, 127
1, 180954, Note_off_c, 1, 73, 0
1, 180955, Note_off_c, 1, 42, 0
1, 180958, Note_on_c, 1, 71, 127
1, 180958, Note_on_c, 1, 43, 127
1, 181159, Note_off_c, 1, 71, 0
1, 181358, Note_off_c, 1, 69, 0
1, 181365, Note_off_c, 1, 43, 0
1, 181367, Note_on_c, 1, 67, 127
1, 181367, Note_on_c, 1, 47, 127
1, 181367, Note_on_c, 1, 74, 127
1, 181568, Note_off_c, 1, 67, 0
1, 181570, Note_on_c, 1, 66, 127
1, 181771, Note_off_c, 1, 66, 0
1, 181772, Note_off_c, 1, 47, 0
1, 181775, Note_on_c, 1, 64, 127
1, 181775, Note_on_c, 1, 49, 127
1, 181976, Note_off_c, 1, 64, 0
1, 182175, Note_off_c, 1, 74, 0
1, 182182, Note_off_c, 1, 49, 0
1, 182184, Note_on_c, 1, 73, 127
1, 182184, Note_on_c, 1, 40, 127
1, 182184, Note_on_c, 1, 67, 127
1, 182385, Note_off_c, 1, 73, 0
1, 182389, Note_on_c, 1, 71, 127
1, 182589, Note_off_c, 1, 40, 0
1, 182590, Note_off_c, 1, 71, 0
1, 182592, Note_on_c, 1, 70, 127
1, 182592, Note_on_c, 1, 42, 127
1, 182793, Note_off_c, 1, 70, 0
1, 182992, Note_off_c, 1, 67, 0
1, 182999, Note_off_c, 1, 42, 0
1, 183001, Note_on_c, 1, 66, 127
1, 183001, Note_on_c, 1, 46, 127
1, 183001, Note_on_c, 1, 73, 127
1, 183202, Note_off_c, 1, 66, 0
1, 183206, Note_on_c, 1, 64, 127
1, 183406, Note_off_c, 1, 46, 0
1, 183407, Note_off_c, 1, 64, 0
1, 183410, Note_on_c, 1, 62, 127
1, 183410, Note_on_c, 1, 47, 127
1, 183809, Note_off_c, 1, 73, 0
1, 183819, Note_on_c, 1, 71, 127
1, 184020, Note_off_c, 1, 71, 0
1, 184023, Note_on_c, 1, 70, 127
1, 184219, Note_off_c, 1, 62, 0
1, 184226, Note_off_c, 1, 70, 0
1, 184430, Note_off_c, 1, 47, 0
1, 184432, Note_on_c, 1, 49, 127
1, 184633, Note_off_c, 1, 49, 0
1, 184637, Note_on_c, 1, 50, 127
1, 184637, Note_on_c, 1, 59, 127
1, 184838, Note_off_c, 1, 50, 0
1, 184841, Note_on_c, 1, 54, 127
1, 185042, Note_off_c, 1, 59, 0
1, 185042, Note_off_c, 1, 54, 0
1, 185044, Note_on_c, 1, 52, 127
1, 185044, Note_on_c, 1, 67, 127
1, 185245, Note_off_c, 1, 52, 0
1, 185447, Note_off_c, 1, 67, 0
1, 185452, Note_on_c, 1, 50, 127
1, 185452, Note_on_c, 1, 71, 127
1, 185452, Note_on_c, 1, 66, 127
1, 185653, Note_off_c, 1, 50, 0
1, 185653, Note_off_c, 1, 71, 0
1, 185657, Note_on_c, 1, 54, 127
1, 185657, Note_on_c, 1, 74, 127
1, 185855, Note_off_c, 1, 66, 0
1, 185858, Note_off_c, 1, 54, 0
1, 185858, Note_off_c, 1, 74, 0
1, 185860, Note_on_c, 1, 55, 127
1, 185860, Note_on_c, 1, 71, 127
1, 185860, Note_on_c, 1, 73, 127
1, 186061, Note_off_c, 1, 55, 0
1, 186064, Note_on_c, 1, 52, 127
1, 186265, Note_off_c, 1, 71, 0
1, 186265, Note_off_c, 1, 52, 0
1, 186268, Note_on_c, 1, 54, 127
1, 186268, Note_on_c, 1, 70, 127
1, 186469, Note_off_c, 1, 54, 0
1, 186472, Note_on_c, 1, 58, 127
1, 186668, Note_off_c, 1, 73, 0
1, 186675, Note_off_c, 1, 70, 0
1, 186675, Note_off_c, 1, 58, 0
1, 186677, Note_on_c, 1, 59, 127
1, 186677, Note_on_c, 1, 64, 127
1, 186677, Note_on_c, 1, 71, 127
1, 186878, Note_off_c, 1, 59, 0
1, 186881, Note_on_c, 1, 55, 127
1, 187082, Note_off_c, 1, 64, 0
1, 187082, Note_off_c, 1, 55, 0
1, 187086, Note_on_c, 1, 54, 127
1, 187086, Note_on_c, 1, 63, 127
1, 187287, Note_off_c, 1, 54, 0
1, 187289, Note_on_c, 1, 52, 127
1, 187485, Note_off_c, 1, 71, 0
1, 187492, Note_off_c, 1, 52, 0
1, 187493, Note_off_c, 1, 63, 0
1, 187495, Note_on_c, 1, 72, 127
1, 187495, Note_on_c, 1, 51, 127
1, 187495, Note_on_c, 1, 69, 127
1, 187902, Note_off_c, 1, 72, 0
1, 187905, Note_on_c, 1, 71, 127
1, 188106, Note_off_c, 1, 51, 0
1, 188108, Note_on_c, 1, 49, 127
1, 188304, Note_off_c, 1, 69, 0
1, 188311, Note_off_c, 1, 49, 0
1, 188312, Note_off_c, 1, 71, 0
1, 188314, Note_on_c, 1, 50, 127
1, 188314, Note_on_c, 1, 66, 127
1, 188314, Note_on_c, 1, 68, 127
1, 188515, Note_off_c, 1, 50, 0
1, 188518, Note_on_c, 1, 52, 127
1, 188719, Note_off_c, 1, 66, 0
1, 188719, Note_off_c, 1, 52, 0
1, 188722, Note_on_c, 1, 65, 127
1, 188926, Note_on_c, 1, 49, 127
1, 189122, Note_off_c, 1, 68, 0
1, 189129, Note_off_c, 1, 65, 0
1, 189129, Note_off_c, 1, 49, 0
1, 189131, Note_on_c, 1, 47, 127
1, 189131, Note_on_c, 1, 74, 127
1, 189131, Note_on_c, 1, 66, 127
1, 189332, Note_off_c, 1, 47, 0
1, 189336, Note_on_c, 1, 45, 127
1, 189536, Note_off_c, 1, 74, 0
1, 189537, Note_off_c, 1, 45, 0
1, 189539, Note_on_c, 1, 44, 127
1, 189539, Note_on_c, 1, 73, 127
1, 189740, Note_off_c, 1, 44, 0
1, 189743, Note_on_c, 1, 42, 127
1, 189944, Note_off_c, 1, 73, 0
1, 189944, Note_off_c, 1, 42, 0
1, 189948, Note_on_c, 1, 72, 127
1, 190352, Note_off_c, 1, 66, 0
1, 190353, Note_off_c, 1, 72, 0
1, 190355, Note_on_c, 1, 45, 127
1, 190355, Note_on_c, 1, 73, 127
1, 190355, Note_on_c, 1, 65, 127
1, 190556, Note_off_c, 1, 45, 0
1, 190559, Note_on_c, 1, 44, 127
1, 190760, Note_off_c, 1, 73, 0
1, 190760, Note_off_c, 1, 65, 0
1, 190760, Note_off_c, 1, 44, 0
1, 190763, Note_on_c, 1, 42, 127
1, 190763, Note_on_c, 1, 66, 127
1, 190763, Note_on_c, 1, 69, 127
1, 190964, Note_off_c, 1, 42, 0
1, 190967, Note_on_c, 1, 45, 127
1, 191168, Note_off_c, 1, 66, 0
1, 191168, Note_off_c, 1, 69, 0
1, 191168, Note_off_c, 1, 45, 0
1, 191171, Note_on_c, 1, 50, 127
1, 191171, Note_on_c, 1, 66, 127
1, 191372, Note_off_c, 1, 50, 0
1, 191374, Note_on_c, 1, 49, 127
1, 191575, Note_off_c, 1, 49, 0
1, 191579, Note_on_c, 1, 68, 127
1, 191579, Note_on_c, 1, 47, 127
1, 191765, Note_off_c, 1, 66, 0
1, 191779, Note_off_c, 1, 68, 0
1, 191984, Note_off_c, 1, 47, 0
1, 191987, Note_on_c, 1, 69, 127
1, 191987, Note_on_c, 1, 44, 127
1, 192188, Note_off_c, 1, 69, 0
1, 192191, Note_on_c, 1, 71, 127
1, 192392, Note_off_c, 1, 44, 0
1, 192392, Note_off_c, 1, 71, 0
1, 192394, Note_on_c, 1, 73, 127
1, 192595, Note_off_c, 1, 73, 0
1, 192599, Note_on_c, 1, 74, 127
1, 192800, Note_off_c, 1, 74, 0
1, 192802, Note_on_c, 1, 37, 127
1, 193007, Note_on_c, 1, 65, 127
1, 193207, Note_off_c, 1, 37, 0
1, 193208, Note_off_c, 1, 65, 0
1, 193210, Note_on_c, 1, 54, 127
1, 193210, Note_on_c, 1, 66, 127
1, 193210, Note_on_c, 1, 69, 127
1, 193411, Note_off_c, 1, 54, 0
1, 193414, Note_on_c, 1, 55, 127
1, 193615, Note_off_c, 1, 55, 0
1, 193618, Note_on_c, 1, 57, 127
1, 193819, Note_off_c, 1, 57, 0
1, 193822, Note_on_c, 1, 59, 127
1, 194018, Note_off_c, 1, 66, 0
1, 194025, Note_off_c, 1, 59, 0
1, 194028, Note_on_c, 1, 60, 127
1, 194028, Note_on_c, 1, 78, 127
1, 194229, Note_off_c, 1, 60, 0
1, 194231, Note_on_c, 1, 62, 127
1, 194432, Note_off_c, 1, 62, 0
1, 194436, Note_on_c, 1, 52, 127
1, 194637, Note_off_c, 1, 52, 0
1, 194639, Note_on_c, 1, 51, 127
1, 194840, Note_off_c, 1, 51, 0
1, 195251, Note_off_c, 1, 78, 0
1, 195252, Note_off_c, 1, 69, 0
1, 195253, Note_on_c, 1, 76, 127
1, 195253, Note_on_c, 1, 72, 127
1, 195660, Note_off_c, 1, 76, 0
1, 195660, Note_off_c, 1, 72, 0
1, 195662, Note_on_c, 1, 71, 127
1, 195662, Note_on_c, 1, 75, 127
1, 196069, Note_off_c, 1, 71, 0
1, 196069, Note_off_c, 1, 75, 0
1, 196481, Note_on_c, 1, 79, 127
1, 196686, Note_on_c, 1, 47, 127
1, 196887, Note_off_c, 1, 47, 0
1, 196890, Note_on_c, 1, 49, 127
1, 197091, Note_off_c, 1, 49, 0
1, 197093, Note_on_c, 1, 50, 127
1, 197294, Note_off_c, 1, 50, 0
1, 197909, Note_on_c, 1, 46, 127
1, 198110, Note_off_c, 1, 46, 0
1, 198519, Note_off_c, 1, 79, 0
1, 198523, Note_on_c, 1, 74, 127
1, 198930, Note_off_c, 1, 74, 0
1, 198932, Note_on_c, 1, 77, 127
1, 198932, Note_on_c, 1, 73, 127
1, 199339, Note_off_c, 1, 77, 0
1, 199339, Note_off_c, 1, 73, 0
1, 199341, Note_on_c, 1, 80, 127
1, 199748, Note_off_c, 1, 80, 0
1, 200569, Note_on_c, 1, 74, 127
1, 200569, Note_on_c, 1, 47, 127
1, 200770, Note_off_c, 1, 74, 0
1, 200772, Note_on_c, 1, 76, 127
1, 200973, Note_off_c, 1, 76, 0
1, 200974, Note_off_c, 1, 47, 0
1, 200977, Note_on_c, 1, 71, 127
1, 200977, Note_on_c, 1, 50, 127
1, 200977, Note_on_c, 1, 78, 127
1, 201178, Note_off_c, 1, 71, 0
1, 201180, Note_on_c, 1, 69, 127
1, 201381, Note_off_c, 1, 69, 0
1, 201382, Note_off_c, 1, 50, 0
1, 201384, Note_on_c, 1, 67, 127
1, 201384, Note_on_c, 1, 52, 127
1, 201585, Note_off_c, 1, 67, 0
1, 201785, Note_off_c, 1, 78, 0
1, 201791, Note_off_c, 1, 52, 0
1, 201794, Note_on_c, 1, 76, 127
1, 201794, Note_on_c, 1, 43, 127
1, 201794, Note_on_c, 1, 71, 127
1, 201995, Note_off_c, 1, 76, 0
1, 201998, Note_on_c, 1, 74, 127
1, 202199, Note_off_c, 1, 43, 0
1, 202199, Note_off_c, 1, 74, 0
1, 202202, Note_on_c, 1, 73, 127
1, 202202, Note_on_c, 1, 45, 127
1, 202403, Note_off_c, 1, 73, 0
1, 202602, Note_off_c, 1, 71, 0
1, 202609, Note_off_c, 1, 45, 0
1, 202611, Note_on_c, 1, 69, 127
1, 202611, Note_on_c, 1, 49, 127
1, 202611, Note_on_c, 1, 76, 127
1, 202812, Note_off_c, 1, 69, 0
1, 202815, Note_on_c, 1, 67, 127
1, 203016, Note_off_c, 1, 49, 0
1, 203016, Note_off_c, 1, 67, 0
1, 203020, Note_on_c, 1, 66, 127
1, 203020, Note_on_c, 1, 50, 127
1, 203221, Note_off_c, 1, 66, 0
1, 203419, Note_off_c, 1, 76, 0
1, 203427, Note_off_c, 1, 50, 0
1, 203429, Note_on_c, 1, 74, 127
1, 203429, Note_on_c, 1, 42, 127
1, 203429, Note_on_c, 1, 69, 127
1, 203630, Note_off_c, 1, 74, 0
1, 203633, Note_on_c, 1, 73, 127
1, 203834, Note_off_c, 1, 42, 0
1, 203834, Note_off_c, 1, 73, 0
1, 203837, Note_on_c, 1, 71, 127
1, 203837, Note_on_c, 1, 43, 127
1, 204038, Note_off_c, 1, 71, 0
1, 204237, Note_off_c, 1, 69, 0
1, 204244, Note_off_c, 1, 43, 0
1, 204246, Note_on_c, 1, 67, 127
1, 204246, Note_on_c, 1, 47, 127
1, 204246, Note_on_c, 1, 74, 127
1, 204447, Note_off_c, 1, 67, 0
1, 204451, Note_on_c, 1, 66, 127
1, 204651, Note_off_c, 1, 47, 0
1, 204652, Note_off_c, 1, 66, 0
1, 204654, Note_on_c, 1, 64, 127
1, 204654, Note_on_c, 1, 49, 127
1, 204855, Note_off_c, 1, 64, 0
1, 205054, Note_off_c, 1, 74, 0
1, 205061, Note_off_c, 1, 49, 0
1, 205063, Note_on_c, 1, 73, 127
1, 205063, Note_on_c, 1, 40, 127
1, 205063, Note_on_c, 1, 67, 127
1, 205264, Note_off_c, 1, 73, 0
1, 205268, Note_on_c, 1, 71, 127
1, 205468, Note_off_c, 1, 40, 0
1, 205469, Note_off_c, 1, 71, 0
1, 205471, Note_on_c, 1, 70, 127
1, 205471, Note_on_c, 1, 42, 127
1, 205672, Note_off_c, 1, 70, 0
1, 205871, Note_off_c, 1, 67, 0
1, 205878, Note_off_c, 1, 42, 0
1, 205882, Note_on_c, 1, 66, 127
1, 205882, Note_on_c, 1, 46, 127
1, 205882, Note_on_c, 1, 73, 127
1, 206083, Note_off_c, 1, 66, 0
1, 206085, Note_on_c, 1, 64, 127
1, 206286, Note_off_c, 1, 64, 0
1, 206287, Note_off_c, 1, 46, 0
1, 206289, Note_on_c, 1, 62, 127
1, 206289, Note_on_c, 1, 47, 127
1, 206490, Note_off_c, 1, 62, 0
1, 206690, Note_off_c, 1, 73, 0
1, 206696, Note_off_c, 1, 47, 0
1, 206699, Note_on_c, 1, 71, 127
1, 206699, Note_on_c, 1, 50, 127
1, 206699, Note_on_c, 1, 59, 127
1, 206699, Note_on_c, 1, 66, 127
1, 207104, Note_off_c, 1, 71, 0
1, 207106, Note_off_c, 1, 50, 0
1, 207106, Note_off_c, 1, 59, 0
1, 207108, Note_on_c, 1, 52, 127
1, 207108, Note_on_c, 1, 55, 127
1, 207508, Note_off_c, 1, 66, 0
1, 207510, Note_off_c, 1, 52, 0
1, 207515, Note_off_c, 1, 55, 0
1, 207517, Note_on_c, 1, 64, 127
1, 207517, Note_on_c, 1, 55, 127
1, 207517, Note_on_c, 1, 83, 127
1, 207718, Note_off_c, 1, 64, 0
1, 207722, Note_on_c, 1, 62, 127
1, 207922, Note_off_c, 1, 55, 0
1, 207923, Note_off_c, 1, 62, 0
1, 207925, Note_on_c, 1, 60, 127
1, 207925, Note_on_c, 1, 57, 127
1, 208126, Note_off_c, 1, 60, 0
1, 208325, Note_off_c, 1, 83, 0
1, 208332, Note_off_c, 1, 57, 0
1, 208335, Note_on_c, 1, 81, 127
1, 208335, Note_on_c, 1, 60, 127
1, 208335, Note_on_c, 1, 64, 127
1, 208536, Note_off_c, 1, 81, 0
1, 208539, Note_on_c, 1, 79, 127
1, 208740, Note_off_c, 1, 60, 0
1, 208740, Note_off_c, 1, 79, 0
1, 208742, Note_on_c, 1, 78, 127
1, 208742, Note_on_c, 1, 62, 127
1, 208943, Note_off_c, 1, 78, 0
1, 209143, Note_off_c, 1, 64, 0
1, 209149, Note_off_c, 1, 62, 0
1, 209153, Note_on_c, 1, 62, 127
1, 209153, Note_on_c, 1, 54, 127
1, 209153, Note_on_c, 1, 81, 127
1, 209354, Note_off_c, 1, 62, 0
1, 209356, Note_on_c, 1, 60, 127
1, 209557, Note_off_c, 1, 60, 0
1, 209558, Note_off_c, 1, 54, 0
1, 209561, Note_on_c, 1, 59, 127
1, 209561, Note_on_c, 1, 55, 127
1, 209762, Note_off_c, 1, 59, 0
1, 209961, Note_off_c, 1, 81, 0
1, 209968, Note_off_c, 1, 55, 0
1, 209970, Note_on_c, 1, 79, 127
1, 209970, Note_on_c, 1, 59, 127
1, 209970, Note_on_c, 1, 62, 127
1, 210171, Note_off_c, 1, 79, 0
1, 210173, Note_on_c, 1, 78, 127
1, 210374, Note_off_c, 1, 78, 0
1, 210375, Note_off_c, 1, 59, 0
1, 210378, Note_on_c, 1, 76, 127
1, 210378, Note_on_c, 1, 60, 127
1, 210579, Note_off_c, 1, 76, 0
1, 210778, Note_off_c, 1, 62, 0
1, 210785, Note_off_c, 1, 60, 0
1, 210787, Note_on_c, 1, 60, 127
1, 210787, Note_on_c, 1, 52, 127
1, 210787, Note_on_c, 1, 79, 127
1, 210988, Note_off_c, 1, 60, 0
1, 210991, Note_on_c, 1, 59, 127
1, 211192, Note_off_c, 1, 52, 0
1, 211192, Note_off_c, 1, 59, 0
1, 211195, Note_on_c, 1, 57, 127
1, 211195, Note_on_c, 1, 54, 127
1, 211396, Note_off_c, 1, 57, 0
1, 211595, Note_off_c, 1, 79, 0
1, 211602, Note_off_c, 1, 54, 0
1, 211604, Note_on_c, 1, 78, 127
1, 211604, Note_on_c, 1, 57, 127
1, 211604, Note_on_c, 1, 60, 127
1, 211805, Note_off_c, 1, 78, 0
1, 211809, Note_on_c, 1, 76, 127
1, 212009, Note_off_c, 1, 57, 0
1, 212010, Note_off_c, 1, 76, 0
1, 212013, Note_on_c, 1, 75, 127
1, 212013, Note_on_c, 1, 59, 127
1, 212214, Note_off_c, 1, 75, 0
1, 212412, Note_off_c, 1, 60, 0
1, 212420, Note_off_c, 1, 59, 0
1, 212422, Note_on_c, 1, 59, 127
1, 212422, Note_on_c, 1, 51, 127
1, 212422, Note_on_c, 1, 78, 127
1, 212623, Note_off_c, 1, 59, 0
1, 212626, Note_on_c, 1, 57, 127
1, 212827, Note_off_c, 1, 51, 0
1, 212827, Note_off_c, 1, 57, 0
1, 212830, Note_on_c, 1, 52, 127
1, 212830, Note_on_c, 1, 55, 127
1, 213230, Note_off_c, 1, 78, 0
1, 213240, Note_on_c, 1, 76, 127
1, 213441, Note_off_c, 1, 76, 0
1, 213444, Note_on_c, 1, 75, 127
1, 213639, Note_off_c, 1, 52, 0
1, 213639, Note_off_c, 1, 55, 0
1, 213647, Note_off_c, 1, 75, 0
1, 213649, Note_on_c, 1, 76, 127
1, 213649, Note_on_c, 1, 55, 127
1, 213850, Note_off_c, 1, 76, 0
1, 213853, Note_on_c, 1, 78, 127
1, 214054, Note_off_c, 1, 55, 0
1, 214054, Note_off_c, 1, 78, 0
1, 214057, Note_on_c, 1, 64, 127
1, 214057, Note_on_c, 1, 79, 127
1, 214057, Note_on_c, 1, 52, 127
1, 214258, Note_off_c, 1, 64, 0
1, 214258, Note_off_c, 1, 79, 0
1, 214261, Note_on_c, 1, 63, 127
1, 214261, Note_on_c, 1, 83, 127
1, 214462, Note_off_c, 1, 52, 0
1, 214462, Note_off_c, 1, 63, 0
1, 214462, Note_off_c, 1, 83, 0
1, 214464, Note_on_c, 1, 63, 127
1, 214464, Note_on_c, 1, 81, 127
1, 214464, Note_on_c, 1, 60, 127
1, 214665, Note_off_c, 1, 63, 0
1, 214669, Note_on_c, 1, 64, 127
1, 214867, Note_off_c, 1, 81, 0
1, 214869, Note_off_c, 1, 60, 0
1, 214870, Note_off_c, 1, 64, 0
1, 214872, Note_on_c, 1, 66, 127
1, 214872, Note_on_c, 1, 79, 127
1, 214872, Note_on_c, 1, 59, 127
1, 215073, Note_off_c, 1, 66, 0
1, 215077, Note_on_c, 1, 67, 127
1, 215275, Note_off_c, 1, 79, 0
1, 215277, Note_off_c, 1, 59, 0
1, 215278, Note_off_c, 1, 67, 0
1, 215281, Note_on_c, 1, 69, 127
1, 215281, Note_on_c, 1, 64, 127
1, 215281, Note_on_c, 1, 78, 127
1, 215482, Note_off_c, 1, 69, 0
1, 215484, Note_on_c, 1, 67, 127
1, 215685, Note_off_c, 1, 67, 0
1, 215686, Note_off_c, 1, 64, 0
1, 215689, Note_on_c, 1, 63, 127
1, 215892, Note_on_c, 1, 71, 127
1, 216089, Note_off_c, 1, 78, 0
1, 216095, Note_off_c, 1, 71, 0
1, 216096, Note_off_c, 1, 63, 0
1, 216098, Note_on_c, 1, 72, 127
1, 216098, Note_on_c, 1, 57, 127
1, 216098, Note_on_c, 1, 76, 127
1, 216299, Note_off_c, 1, 72, 0
1, 216302, Note_on_c, 1, 69, 127
1, 216503, Note_off_c, 1, 57, 0
1, 216503, Note_off_c, 1, 69, 0
1, 216506, Note_on_c, 1, 56, 127
1, 216506, Note_on_c, 1, 71, 127
1, 216906, Note_off_c, 1, 76, 0
1, 216913, Note_off_c, 1, 56, 0
1, 216915, Note_on_c, 1, 65, 127
1, 216915, Note_on_c, 1, 74, 127
1, 217101, Note_off_c, 1, 71, 0
1, 217320, Note_off_c, 1, 65, 0
1, 217323, Note_on_c, 1, 68, 127
1, 217323, Note_on_c, 1, 64, 127
1, 217524, Note_off_c, 1, 68, 0
1, 217527, Note_on_c, 1, 66, 127
1, 217723, Note_off_c, 1, 74, 0
1, 217730, Note_off_c, 1, 64, 0
1, 217730, Note_off_c, 1, 66, 0
1, 217732, Note_on_c, 1, 64, 127
1, 217732, Note_on_c, 1, 59, 127
1, 217732, Note_on_c, 1, 73, 127
1, 217933, Note_off_c, 1, 64, 0
1, 217937, Note_on_c, 1, 67, 127
1, 218137, Note_off_c, 1, 59, 0
1, 218138, Note_off_c, 1, 67, 0
1, 218140, Note_on_c, 1, 66, 127
1, 218140, Note_on_c, 1, 58, 127
1, 218341, Note_off_c, 1, 66, 0
1, 218345, Note_on_c, 1, 70, 127
1, 218540, Note_off_c, 1, 73, 0
1, 218547, Note_off_c, 1, 58, 0
1, 218548, Note_off_c, 1, 70, 0
1, 218551, Note_on_c, 1, 67, 127
1, 218551, Note_on_c, 1, 71, 127
1, 218756, Note_on_c, 1, 73, 127
1, 218957, Note_off_c, 1, 73, 0
1, 218958, Note_off_c, 1, 67, 0
1, 218960, Note_on_c, 1, 74, 127
1, 218960, Note_on_c, 1, 66, 127
1, 219161, Note_off_c, 1, 74, 0
1, 219163, Note_on_c, 1, 76, 127
1, 219364, Note_off_c, 1, 76, 0
1, 219365, Note_off_c, 1, 66, 0
1, 219368, Note_on_c, 1, 65, 127
1, 219773, Note_off_c, 1, 65, 0
1, 219774, Note_off_c, 1, 71, 0
1, 219980, Note_on_c, 1, 70, 127
1, 220181, Note_off_c, 1, 70, 0
1, 220183, Note_on_c, 1, 62, 127
1, 220183, Note_on_c, 1, 71, 127
1, 220389, Note_on_c, 1, 69, 127
1, 220590, Note_off_c, 1, 62, 0
1, 220590, Note_off_c, 1, 69, 0
1, 220593, Note_on_c, 1, 67, 127
1, 220593, Note_on_c, 1, 59, 127
1, 220794, Note_off_c, 1, 67, 0
1, 220797, Note_on_c, 1, 66, 127
1, 220998, Note_off_c, 1, 59, 0
1, 220998, Note_off_c, 1, 66, 0
1, 221000, Note_on_c, 1, 61, 127
1, 221000, Note_on_c, 1, 64, 127
1, 221205, Note_off_c, 1, 71, 0
1, 221206, Note_on_c, 1, 73, 127
1, 221407, Note_off_c, 1, 73, 0
1, 221411, Note_on_c, 1, 74, 127
1, 221612, Note_off_c, 1, 74, 0
1, 221614, Note_on_c, 1, 76, 127
1, 221815, Note_off_c, 1, 76, 0
1, 221819, Note_on_c, 1, 78, 127
1, 222020, Note_off_c, 1, 78, 0
1, 222022, Note_on_c, 1, 79, 127
1, 222223, Note_off_c, 1, 79, 0
1, 222430, Note_on_c, 1, 70, 127
1, 222631, Note_off_c, 1, 61, 0
1, 222631, Note_off_c, 1, 64, 0
1, 222631, Note_off_c, 1, 70, 0
1, 222634, Note_on_c, 1, 59, 127
1, 222634, Note_on_c, 1, 74, 127
1, 222839, Note_on_c, 1, 66, 127
1, 223040, Note_off_c, 1, 66, 0
1, 223044, Note_on_c, 1, 68, 127
1, 223245, Note_off_c, 1, 68, 0
1, 223247, Note_on_c, 1, 70, 127
1, 223448, Note_off_c, 1, 70, 0
1, 223451, Note_on_c, 1, 71, 127
1, 223652, Note_off_c, 1, 71, 0
1, 223656, Note_on_c, 1, 73, 127
1, 223857, Note_off_c, 1, 73, 0
1, 224063, Note_on_c, 1, 65, 127
1, 224159, Note_off_c, 1, 59, 0
1, 224264, Note_off_c, 1, 65, 0
1, 224265, Note_off_c, 1, 74, 0
1, 224267, Note_on_c, 1, 73, 127
1, 224267, Note_on_c, 1, 69, 127
1, 224473, Note_on_c, 1, 61, 127
1, 224674, Note_off_c, 1, 61, 0
1, 224676, Note_on_c, 1, 63, 127
1, 224877, Note_off_c, 1, 63, 0
1, 224881, Note_on_c, 1, 65, 127
1, 225082, Note_off_c, 1, 65, 0
1, 225084, Note_on_c, 1, 66, 127
1, 225285, Note_off_c, 1, 66, 0
1, 225288, Note_on_c, 1, 68, 127
1, 225489, Note_off_c, 1, 68, 0
1, 225490, Note_off_c, 1, 73, 0
1, 225493, Note_on_c, 1, 75, 127
1, 225696, Note_on_c, 1, 60, 127
1, 225897, Note_off_c, 1, 60, 0
1, 225898, Note_off_c, 1, 69, 0
1, 225898, Note_off_c, 1, 75, 0
1, 225901, Note_on_c, 1, 61, 127
1, 225901, Note_on_c, 1, 68, 127
1, 225901, Note_on_c, 1, 77, 127
1, 226102, Note_off_c, 1, 61, 0
1, 226104, Note_on_c, 1, 59, 127
1, 226305, Note_off_c, 1, 59, 0
1, 226306, Note_off_c, 1, 68, 0
1, 226308, Note_on_c, 1, 57, 127
1, 226308, Note_on_c, 1, 73, 127
1, 226509, Note_off_c, 1, 57, 0
1, 226512, Note_on_c, 1, 56, 127
1, 226709, Note_off_c, 1, 77, 0
1, 226715, Note_off_c, 1, 73, 0
1, 226715, Note_off_c, 1, 56, 0
1, 226718, Note_on_c, 1, 54, 127
1, 226718, Note_on_c, 1, 69, 127
1, 226919, Note_off_c, 1, 54, 0
1, 226921, Note_on_c, 1, 56, 127
1, 227122, Note_off_c, 1, 56, 0
1, 227123, Note_off_c, 1, 69, 0
1, 227126, Note_on_c, 1, 57, 127
1, 227126, Note_on_c, 1, 66, 127
1, 227126, Note_on_c, 1, 78, 127
1, 227327, Note_off_c, 1, 57, 0
1, 227330, Note_on_c, 1, 61, 127
1, 227531, Note_off_c, 1, 66, 0
1, 227531, Note_off_c, 1, 61, 0
1, 227533, Note_on_c, 1, 59, 127
1, 227533, Note_on_c, 1, 74, 127
1, 227720, Note_off_c, 1, 78, 0
1, 227734, Note_off_c, 1, 59, 0
1, 227738, Note_on_c, 1, 56, 127
1, 227738, Note_on_c, 1, 77, 127
1, 227936, Note_off_c, 1, 74, 0
1, 227939, Note_off_c, 1, 56, 0
1, 227939, Note_off_c, 1, 77, 0
1, 227941, Note_on_c, 1, 57, 127
1, 227941, Note_on_c, 1, 78, 127
1, 227941, Note_on_c, 1, 73, 127
1, 228142, Note_off_c, 1, 57, 0
1, 228142, Note_off_c, 1, 78, 0
1, 228145, Note_on_c, 1, 61, 127
1, 228145, Note_on_c, 1, 81, 127
1, 228344, Note_off_c, 1, 73, 0
1, 228346, Note_off_c, 1, 61, 0
1, 228346, Note_off_c, 1, 81, 0
1, 228349, Note_on_c, 1, 62, 127
1, 228349, Note_on_c, 1, 78, 127
1, 228349, Note_on_c, 1, 80, 127
1, 228550, Note_off_c, 1, 62, 0
1, 228553, Note_on_c, 1, 59, 127
1, 228754, Note_off_c, 1, 78, 0
1, 228754, Note_off_c, 1, 59, 0
1, 228757, Note_on_c, 1, 61, 127
1, 228757, Note_on_c, 1, 77, 127
1, 228958, Note_off_c, 1, 61, 0
1, 228961, Note_on_c, 1, 65, 127
1, 229157, Note_off_c, 1, 80, 0
1, 229164, Note_off_c, 1, 77, 0
1, 229164, Note_off_c, 1, 65, 0
1, 229167, Note_on_c, 1, 66, 127
1, 229167, Note_on_c, 1, 71, 127
1, 229368, Note_off_c, 1, 66, 0
1, 229370, Note_on_c, 1, 64, 127
1, 229571, Note_off_c, 1, 64, 0
1, 229572, Note_off_c, 1, 71, 0
1, 229575, Note_on_c, 1, 62, 127
1, 229575, Note_on_c, 1, 70, 127
1, 229575, Note_on_c, 1, 78, 127
1, 229776, Note_off_c, 1, 62, 0
1, 229778, Note_on_c, 1, 61, 127
1, 229979, Note_off_c, 1, 61, 0
1, 229980, Note_off_c, 1, 70, 0
1, 229980, Note_off_c, 1, 78, 0
1, 229983, Note_on_c, 1, 59, 127
1, 229983, Note_on_c, 1, 74, 127
1, 230184, Note_off_c, 1, 59, 0
1, 230186, Note_on_c, 1, 61, 127
1, 230387, Note_off_c, 1, 61, 0
1, 230388, Note_off_c, 1, 74, 0
1, 230390, Note_on_c, 1, 62, 127
1, 230390, Note_on_c, 1, 71, 127
1, 230591, Note_off_c, 1, 62, 0
1, 230594, Note_on_c, 1, 66, 127
1, 230795, Note_off_c, 1, 66, 0
1, 230798, Note_on_c, 1, 64, 127
1, 230798, Note_on_c, 1, 79, 127
1, 230984, Note_off_c, 1, 71, 0
1, 230999, Note_off_c, 1, 64, 0
1, 231002, Note_on_c, 1, 61, 127
1, 231002, Note_on_c, 1, 70, 127
1, 231201, Note_off_c, 1, 79, 0
1, 231203, Note_off_c, 1, 61, 0
1, 231203, Note_off_c, 1, 70, 0
1, 231206, Note_on_c, 1, 62, 127
1, 231206, Note_on_c, 1, 71, 127
1, 231206, Note_on_c, 1, 78, 127
1, 231407, Note_off_c, 1, 62, 0
1, 231407, Note_off_c, 1, 71, 0
1, 231409, Note_on_c, 1, 66, 127
1, 231409, Note_on_c, 1, 74, 127
1, 231609, Note_off_c, 1, 78, 0
1, 231610, Note_off_c, 1, 66, 0
1, 231610, Note_off_c, 1, 74, 0
1, 231614, Note_on_c, 1, 67, 127
1, 231614, Note_on_c, 1, 83, 127
1, 231614, Note_on_c, 1, 73, 127
1, 231815, Note_off_c, 1, 67, 0
1, 231818, Note_on_c, 1, 64, 127
1, 232019, Note_off_c, 1, 83, 0
1, 232019, Note_off_c, 1, 64, 0
1, 232021, Note_on_c, 1, 66, 127
1, 232021, Note_on_c, 1, 82, 127
1, 232222, Note_off_c, 1, 66, 0
1, 232226, Note_on_c, 1, 70, 127
1, 232426, Note_off_c, 1, 82, 0
1, 232427, Note_off_c, 1, 70, 0
1, 232429, Note_on_c, 1, 71, 127
1, 232429, Note_on_c, 1, 76, 127
1, 232630, Note_off_c, 1, 71, 0
1, 232634, Note_on_c, 1, 69, 127
1, 232834, Note_off_c, 1, 76, 0
1, 232835, Note_off_c, 1, 73, 0
1, 232835, Note_off_c, 1, 69, 0
1, 232837, Note_on_c, 1, 67, 127
1, 232837, Note_on_c, 1, 75, 127
1, 232837, Note_on_c, 1, 71, 127
1, 233038, Note_off_c, 1, 67, 0
1, 233041, Note_on_c, 1, 66, 127
1, 233242, Note_off_c, 1, 75, 0
1, 233242, Note_off_c, 1, 71, 0
1, 233242, Note_off_c, 1, 66, 0
1, 233245, Note_on_c, 1, 64, 127
1, 233245, Note_on_c, 1, 76, 127
1, 233245, Note_on_c, 1, 79, 127
1, 233446, Note_off_c, 1, 64, 0
1, 233449, Note_on_c, 1, 62, 127
1, 233650, Note_off_c, 1, 76, 0
1, 233650, Note_off_c, 1, 62, 0
1, 233654, Note_on_c, 1, 70, 127
1, 233857, Note_on_c, 1, 61, 127
1, 234058, Note_off_c, 1, 61, 0
1, 234059, Note_off_c, 1, 70, 0
1, 234061, Note_on_c, 1, 71, 127
1, 234265, Note_off_c, 1, 79, 0
1, 234266, Note_on_c, 1, 78, 127
1, 234467, Note_off_c, 1, 78, 0
1, 234471, Note_on_c, 1, 80, 127
1, 234672, Note_off_c, 1, 80, 0
1, 234674, Note_on_c, 1, 82, 127
1, 234875, Note_off_c, 1, 82, 0
1, 234879, Note_on_c, 1, 83, 127
1, 235080, Note_off_c, 1, 83, 0
1, 235490, Note_on_c, 1, 77, 127
1, 235691, Note_off_c, 1, 77, 0
1, 235890, Note_off_c, 1, 71, 0
1, 236308, Note_on_c, 1, 73, 127
1, 236511, Note_off_c, 1, 73, 0
1, 236513, Note_on_c, 1, 74, 127
1, 236513, Note_on_c, 1, 59, 127
1, 236513, Note_on_c, 1, 77, 127
1, 236714, Note_off_c, 1, 74, 0
1, 236717, Note_on_c, 1, 76, 127
1, 236918, Note_off_c, 1, 59, 0
1, 236918, Note_off_c, 1, 76, 0
1, 236921, Note_on_c, 1, 69, 127
1, 236921, Note_on_c, 1, 62, 127
1, 237122, Note_off_c, 1, 69, 0
1, 237125, Note_on_c, 1, 68, 127
1, 237326, Note_off_c, 1, 62, 0
1, 237326, Note_off_c, 1, 68, 0
1, 237329, Note_on_c, 1, 60, 127
1, 237533, Note_off_c, 1, 77, 0
1, 237739, Note_on_c, 1, 78, 127
1, 237940, Note_off_c, 1, 78, 0
1, 237942, Note_on_c, 1, 80, 127
1, 238143, Note_off_c, 1, 80, 0
1, 238147, Note_on_c, 1, 81, 127
1, 238348, Note_off_c, 1, 81, 0
1, 238350, Note_on_c, 1, 83, 127
1, 238551, Note_off_c, 1, 83, 0
1, 238758, Note_on_c, 1, 75, 127
1, 238959, Note_off_c, 1, 75, 0
1, 239166, Note_on_c, 1, 66, 127
1, 239367, Note_off_c, 1, 60, 0
1, 239367, Note_off_c, 1, 66, 0
1, 239370, Note_on_c, 1, 67, 127
1, 239370, Note_on_c, 1, 52, 127
1, 239370, Note_on_c, 1, 59, 127
1, 239576, Note_on_c, 1, 69, 127
1, 239775, Note_off_c, 1, 67, 0
1, 239777, Note_off_c, 1, 52, 0
1, 239777, Note_off_c, 1, 59, 0
1, 239777, Note_off_c, 1, 69, 0
1, 239779, Note_on_c, 1, 71, 127
1, 239779, Note_on_c, 1, 50, 127
1, 239779, Note_on_c, 1, 66, 127
1, 239980, Note_off_c, 1, 71, 0
1, 239984, Note_on_c, 1, 73, 127
1, 240184, Note_off_c, 1, 50, 0
1, 240185, Note_off_c, 1, 73, 0
1, 240187, Note_on_c, 1, 74, 127
1, 240187, Note_on_c, 1, 47, 127
1, 240187, Note_on_c, 1, 59, 127
1, 240388, Note_off_c, 1, 74, 0
1, 240391, Note_on_c, 1, 78, 127
1, 240587, Note_off_c, 1, 66, 0
1, 240594, Note_off_c, 1, 47, 0
1, 240594, Note_off_c, 1, 78, 0
1, 240597, Note_on_c, 1, 76, 127
1, 240597, Note_on_c, 1, 55, 127
1, 240782, Note_off_c, 1, 59, 0
1, 240798, Note_off_c, 1, 76, 0
1, 240801, Note_on_c, 1, 58, 127
1, 241000, Note_off_c, 1, 55, 0
1, 241002, Note_off_c, 1, 58, 0
1, 241005, Note_on_c, 1, 59, 127
1, 241005, Note_on_c, 1, 74, 127
1, 241005, Note_on_c, 1, 54, 127
1, 241206, Note_off_c, 1, 59, 0
1, 241206, Note_off_c, 1, 74, 0
1, 241209, Note_on_c, 1, 62, 127
1, 241209, Note_on_c, 1, 78, 127
1, 241408, Note_off_c, 1, 54, 0
1, 241410, Note_off_c, 1, 62, 0
1, 241410, Note_off_c, 1, 78, 0
1, 241413, Note_on_c, 1, 79, 127
1, 241413, Note_on_c, 1, 59, 127
1, 241413, Note_on_c, 1, 61, 127
1, 241614, Note_off_c, 1, 79, 0
1, 241616, Note_on_c, 1, 76, 127
1, 241817, Note_off_c, 1, 76, 0
1, 241818, Note_off_c, 1, 59, 0
1, 241821, Note_on_c, 1, 78, 127
1, 241821, Note_on_c, 1, 58, 127
1, 242022, Note_off_c, 1, 78, 0
1, 242024, Note_on_c, 1, 82, 127
1, 242221, Note_off_c, 1, 61, 0
1, 242227, Note_off_c, 1, 82, 0
1, 242228, Note_off_c, 1, 58, 0
1, 242230, Note_on_c, 1, 52, 127
1, 242230, Note_on_c, 1, 54, 127
1, 242230, Note_on_c, 1, 83, 127
1, 242436, Note_on_c, 1, 78, 127
1, 242637, Note_off_c, 1, 52, 0
1, 242637, Note_off_c, 1, 78, 0
1, 242639, Note_on_c, 1, 81, 127
1, 242639, Note_on_c, 1, 51, 127
1, 242840, Note_off_c, 1, 81, 0
1, 242844, Note_on_c, 1, 79, 127
1, 243039, Note_off_c, 1, 54, 0
1, 243039, Note_off_c, 1, 83, 0
1, 243046, Note_off_c, 1, 51, 0
1, 243047, Note_off_c, 1, 79, 0
1, 243049, Note_on_c, 1, 78, 127
1, 243049, Note_on_c, 1, 60, 127
1, 243049, Note_on_c, 1, 81, 127
1, 243250, Note_off_c, 1, 78, 0
1, 243253, Note_on_c, 1, 76, 127
1, 243454, Note_off_c, 1, 60, 0
1, 243454, Note_off_c, 1, 76, 0
1, 243457, Note_on_c, 1, 75, 127
1, 243457, Note_on_c, 1, 59, 127
1, 243658, Note_off_c, 1, 75, 0
1, 243661, Note_on_c, 1, 73, 127
1, 243857, Note_off_c, 1, 81, 0
1, 243864, Note_off_c, 1, 59, 0
1, 243864, Note_off_c, 1, 73, 0
1, 243867, Note_on_c, 1, 71, 127
1, 243867, Note_on_c, 1, 54, 127
1, 243867, Note_on_c, 1, 80, 127
1, 244068, Note_off_c, 1, 71, 0
1, 244070, Note_on_c, 1, 74, 127
1, 244271, Note_off_c, 1, 74, 0
1, 244272, Note_off_c, 1, 54, 0
1, 244275, Note_on_c, 1, 73, 127
1, 244275, Note_on_c, 1, 53, 127
1, 244476, Note_off_c, 1, 73, 0
1, 244675, Note_off_c, 1, 80, 0
1, 244682, Note_off_c, 1, 53, 0
1, 244684, Note_on_c, 1, 69, 127
1, 244684, Note_on_c, 1, 62, 127
1, 244684, Note_on_c, 1, 78, 127
1, 244885, Note_off_c, 1, 69, 0
1, 244888, Note_on_c, 1, 68, 127
1, 245089, Note_off_c, 1, 62, 0
1, 245089, Note_off_c, 1, 68, 0
1, 245092, Note_on_c, 1, 61, 127
1, 245295, Note_on_c, 1, 66, 127
1, 245496, Note_off_c, 1, 66, 0
1, 245497, Note_off_c, 1, 61, 0
1, 245500, Note_on_c, 1, 60, 127
1, 245704, Note_off_c, 1, 78, 0
1, 245706, Note_on_c, 1, 77, 127
1, 245907, Note_off_c, 1, 60, 0
1, 245907, Note_off_c, 1, 77, 0
1, 246318, Note_on_c, 1, 57, 127
1, 246318, Note_on_c, 1, 78, 127
1, 246524, Note_on_c, 1, 76, 127
1, 246725, Note_off_c, 1, 57, 0
1, 246725, Note_off_c, 1, 76, 0
1, 246729, Note_on_c, 1, 74, 127
1, 246729, Note_on_c, 1, 54, 127
1, 246930, Note_off_c, 1, 74, 0
1, 246932, Note_on_c, 1, 73, 127
1, 247133, Note_off_c, 1, 73, 0
1, 247134, Note_off_c, 1, 54, 0
1, 247137, Note_on_c, 1, 71, 127
1, 247137, Note_on_c, 1, 56, 127
1, 247338, Note_off_c, 1, 78, 0
1, 247338, Note_off_c, 1, 71, 0
1, 247340, Note_on_c, 1, 69, 127
1, 247541, Note_off_c, 1, 69, 0
1, 247544, Note_on_c, 1, 68, 127
1, 247745, Note_off_c, 1, 68, 0
1, 248360, Note_on_c, 1, 66, 127
1, 248561, Note_off_c, 1, 66, 0
1, 248563, Note_on_c, 1, 65, 127
1, 248764, Note_off_c, 1, 65, 0
1, 248766, Note_off_c, 1, 56, 0
1, 248972, Note_on_c, 1, 52, 127
1, 249173, Note_off_c, 1, 52, 0
1, 249175, Note_on_c, 1, 50, 127
1, 249175, Note_on_c, 1, 78, 127
1, 249175, Note_on_c, 1, 70, 127
1, 249376, Note_off_c, 1, 50, 0
1, 249380, Note_on_c, 1, 49, 127
1, 249580, Note_off_c, 1, 78, 0
1, 249580, Note_off_c, 1, 70, 0
1, 249581, Note_off_c, 1, 49, 0
1, 249583, Note_on_c, 1, 47, 127
1, 249583, Note_on_c, 1, 74, 127
1, 249784, Note_off_c, 1, 47, 0
1, 249788, Note_on_c, 1, 49, 127
1, 249988, Note_off_c, 1, 74, 0
1, 249989, Note_off_c, 1, 49, 0
1, 249991, Note_on_c, 1, 50, 127
1, 249991, Note_on_c, 1, 71, 127
1, 250192, Note_off_c, 1, 50, 0
1, 250195, Note_on_c, 1, 54, 127
1, 250396, Note_off_c, 1, 54, 0
1, 250399, Note_on_c, 1, 52, 127
1, 250399, Note_on_c, 1, 79, 127
1, 250585, Note_off_c, 1, 71, 0
1, 250600, Note_off_c, 1, 52, 0
1, 250603, Note_on_c, 1, 49, 127
1, 250603, Note_on_c, 1, 70, 127
1, 250802, Note_off_c, 1, 79, 0
1, 250804, Note_off_c, 1, 49, 0
1, 250804, Note_off_c, 1, 70, 0
1, 250807, Note_on_c, 1, 50, 127
1, 250807, Note_on_c, 1, 71, 127
1, 250807, Note_on_c, 1, 78, 127
1, 251008, Note_off_c, 1, 50, 0
1, 251008, Note_off_c, 1, 71, 0
1, 251011, Note_on_c, 1, 54, 127
1, 251011, Note_on_c, 1, 74, 127
1, 251210, Note_off_c, 1, 78, 0
1, 251212, Note_off_c, 1, 54, 0
1, 251212, Note_off_c, 1, 74, 0
1, 251215, Note_on_c, 1, 55, 127
1, 251215, Note_on_c, 1, 83, 127
1, 251215, Note_on_c, 1, 73, 127
1, 251416, Note_off_c, 1, 55, 0
1, 251419, Note_on_c, 1, 52, 127
1, 251620, Note_off_c, 1, 83, 0
1, 251620, Note_off_c, 1, 52, 0
1, 251623, Note_on_c, 1, 54, 127
1, 251623, Note_on_c, 1, 82, 127
1, 251824, Note_off_c, 1, 54, 0
1, 251827, Note_on_c, 1, 58, 127
1, 252023, Note_off_c, 1, 73, 0
1, 252030, Note_off_c, 1, 82, 0
1, 252030, Note_off_c, 1, 58, 0
1, 252033, Note_on_c, 1, 59, 127
1, 252033, Note_on_c, 1, 76, 127
1, 252234, Note_off_c, 1, 59, 0
1, 252236, Note_on_c, 1, 57, 127
1, 252437, Note_off_c, 1, 57, 0
1, 252438, Note_off_c, 1, 76, 0
1, 252440, Note_on_c, 1, 55, 127
1, 252440, Note_on_c, 1, 71, 127
1, 252440, Note_on_c, 1, 75, 127
1, 252641, Note_off_c, 1, 55, 0
1, 252644, Note_on_c, 1, 54, 127
1, 252845, Note_off_c, 1, 71, 0
1, 252845, Note_off_c, 1, 75, 0
1, 252845, Note_off_c, 1, 54, 0
1, 252848, Note_on_c, 1, 52, 127
1, 252848, Note_on_c, 1, 67, 127
1, 253049, Note_off_c, 1, 52, 0
1, 253052, Note_on_c, 1, 54, 127
1, 253253, Note_off_c, 1, 67, 0
1, 253253, Note_off_c, 1, 54, 0
1, 253256, Note_on_c, 1, 55, 127
1, 253256, Note_on_c, 1, 64, 127
1, 253256, Note_on_c, 1, 76, 127
1, 253457, Note_off_c, 1, 55, 0
1, 253460, Note_on_c, 1, 59, 127
1, 253661, Note_off_c, 1, 64, 0
1, 253661, Note_off_c, 1, 59, 0
1, 253664, Note_on_c, 1, 57, 127
1, 253664, Note_on_c, 1, 72, 127
1, 253850, Note_off_c, 1, 76, 0
1, 253865, Note_off_c, 1, 57, 0
1, 253865, Note_off_c, 1, 72, 0
1, 253868, Note_on_c, 1, 54, 127
1, 253868, Note_on_c, 1, 75, 127
1, 254069, Note_off_c, 1, 54, 0
1, 254069, Note_off_c, 1, 75, 0
1, 254071, Note_on_c, 1, 55, 127
1, 254071, Note_on_c, 1, 76, 127
1, 254071, Note_on_c, 1, 71, 127
1, 254272, Note_off_c, 1, 55, 0
1, 254272, Note_off_c, 1, 76, 0
1, 254276, Note_on_c, 1, 59, 127
1, 254276, Note_on_c, 1, 79, 127
1, 254474, Note_off_c, 1, 71, 0
1, 254477, Note_off_c, 1, 59, 0
1, 254477, Note_off_c, 1, 79, 0
1, 254479, Note_on_c, 1, 60, 127
1, 254479, Note_on_c, 1, 76, 127
1, 254479, Note_on_c, 1, 78, 127
1, 254680, Note_off_c, 1, 60, 0
1, 254684, Note_on_c, 1, 57, 127
1, 254884, Note_off_c, 1, 76, 0
1, 254885, Note_off_c, 1, 57, 0
1, 254887, Note_on_c, 1, 59, 127
1, 254887, Note_on_c, 1, 75, 127
1, 255088, Note_off_c, 1, 59, 0
1, 255091, Note_on_c, 1, 63, 127
1, 255287, Note_off_c, 1, 78, 0
1, 255294, Note_off_c, 1, 75, 0
1, 255294, Note_off_c, 1, 63, 0
1, 255297, Note_on_c, 1, 76, 127
1, 255297, Note_on_c, 1, 69, 127
1, 255297, Note_on_c, 1, 64, 127
1, 255498, Note_off_c, 1, 76, 0
1, 255501, Note_on_c, 1, 74, 127
1, 255700, Note_off_c, 1, 69, 0
1, 255702, Note_off_c, 1, 64, 0
1, 255702, Note_off_c, 1, 74, 0
1, 255705, Note_on_c, 1, 73, 127
1, 255705, Note_on_c, 1, 68, 127
1, 255705, Note_on_c, 1, 52, 127
1, 255906, Note_off_c, 1, 73, 0
1, 255909, Note_on_c, 1, 71, 127
1, 256108, Note_off_c, 1, 68, 0
1, 256110, Note_off_c, 1, 52, 0
1, 256110, Note_off_c, 1, 71, 0
1, 256113, Note_on_c, 1, 49, 127
1, 256113, Note_on_c, 1, 69, 127
1, 256318, Note_on_c, 1, 71, 127
1, 256519, Note_off_c, 1, 71, 0
1, 256520, Note_off_c, 1, 49, 0
1, 256522, Note_on_c, 1, 73, 127
1, 256522, Note_on_c, 1, 45, 127
1, 256723, Note_off_c, 1, 73, 0
1, 256727, Note_on_c, 1, 76, 127
1, 256927, Note_off_c, 1, 45, 0
1, 256928, Note_off_c, 1, 76, 0
1, 256930, Note_on_c, 1, 74, 127
1, 256930, Note_on_c, 1, 54, 127
1, 257131, Note_off_c, 1, 74, 0
1, 257335, Note_off_c, 1, 54, 0
1, 257336, Note_off_c, 1, 69, 0
1, 257338, Note_on_c, 1, 73, 127
1, 257338, Note_on_c, 1, 68, 127
1, 257338, Note_on_c, 1, 52, 127
1, 257539, Note_off_c, 1, 73, 0
1, 257542, Note_on_c, 1, 76, 127
1, 257741, Note_off_c, 1, 68, 0
1, 257743, Note_off_c, 1, 52, 0
1, 257743, Note_off_c, 1, 76, 0
1, 257746, Note_on_c, 1, 78, 127
1, 257746, Note_on_c, 1, 73, 127
1, 257746, Note_on_c, 1, 57, 127
1, 257947, Note_off_c, 1, 78, 0
1, 257950, Note_on_c, 1, 74, 127
1, 258149, Note_off_c, 1, 73, 0
1, 258151, Note_off_c, 1, 57, 0
1, 258151, Note_off_c, 1, 74, 0
1, 258153, Note_on_c, 1, 76, 127
1, 258153, Note_on_c, 1, 71, 127
1, 258153, Note_on_c, 1, 56, 127
1, 258354, Note_off_c, 1, 76, 0
1, 258358, Note_on_c, 1, 80, 127
1, 258556, Note_off_c, 1, 71, 0
1, 258558, Note_off_c, 1, 56, 0
1, 258559, Note_off_c, 1, 80, 0
1, 258561, Note_on_c, 1, 81, 127
1, 258561, Note_on_c, 1, 76, 127
1, 258561, Note_on_c, 1, 50, 127
1, 258762, Note_off_c, 1, 81, 0
1, 258766, Note_on_c, 1, 79, 127
1, 258964, Note_off_c, 1, 76, 0
1, 258966, Note_off_c, 1, 50, 0
1, 258967, Note_off_c, 1, 79, 0
1, 258969, Note_on_c, 1, 78, 127
1, 258969, Note_on_c, 1, 49, 127
1, 258969, Note_on_c, 1, 57, 127
1, 259170, Note_off_c, 1, 78, 0
1, 259173, Note_on_c, 1, 76, 127
1, 259374, Note_off_c, 1, 49, 0
1, 259374, Note_off_c, 1, 57, 0
1, 259374, Note_off_c, 1, 76, 0
1, 259378, Note_on_c, 1, 74, 127
1, 259378, Note_on_c, 1, 50, 127
1, 259378, Note_on_c, 1, 54, 127
1, 259579, Note_off_c, 1, 74, 0
1, 259581, Note_on_c, 1, 73, 127
1, 259782, Note_off_c, 1, 73, 0
1, 259783, Note_off_c, 1, 50, 0
1, 259783, Note_off_c, 1, 54, 0
1, 259786, Note_on_c, 1, 71, 127
1, 259786, Note_on_c, 1, 66, 127
1, 259786, Note_on_c, 1, 50, 127
1, 259987, Note_off_c, 1, 71, 0
1, 259989, Note_on_c, 1, 69, 127
1, 260189, Note_off_c, 1, 66, 0
1, 260190, Note_off_c, 1, 69, 0
1, 260193, Note_on_c, 1, 67, 127
1, 260193, Note_on_c, 1, 59, 127
1, 260193, Note_on_c, 1, 62, 127
1, 260394, Note_off_c, 1, 67, 0
1, 260397, Note_on_c, 1, 64, 127
1, 260598, Note_off_c, 1, 59, 0
1, 260598, Note_off_c, 1, 64, 0
1, 260601, Note_on_c, 1, 57, 127
1, 261001, Note_off_c, 1, 62, 0
1, 261008, Note_off_c, 1, 57, 0
1, 261418, Note_on_c, 1, 61, 127
1, 261623, Note_on_c, 1, 73, 127
1, 261823, Note_off_c, 1, 61, 0
1, 261824, Note_off_c, 1, 73, 0
1, 261826, Note_on_c, 1, 74, 127
1, 261826, Note_on_c, 1, 55, 127
1, 262027, Note_off_c, 1, 74, 0
1, 262030, Note_on_c, 1, 76, 127
1, 262231, Note_off_c, 1, 50, 0
1, 262231, Note_off_c, 1, 55, 0
1, 262231, Note_off_c, 1, 76, 0
1, 262234, Note_on_c, 1, 74, 127
1, 262234, Note_on_c, 1, 54, 127
1, 262440, Note_on_c, 1, 76, 127
1, 262639, Note_off_c, 1, 74, 0
1, 262641, Note_off_c, 1, 54, 0
1, 262641, Note_off_c, 1, 76, 0
1, 262643, Note_on_c, 1, 78, 127
1, 262643, Note_on_c, 1, 63, 127
1, 262643, Note_on_c, 1, 72, 127
1, 262844, Note_off_c, 1, 78, 0
1, 262848, Note_on_c, 1, 79, 127
1, 263048, Note_off_c, 1, 63, 0
1, 263049, Note_off_c, 1, 79, 0
1, 263052, Note_on_c, 1, 81, 127
1, 263052, Note_on_c, 1, 62, 127
1, 263253, Note_off_c, 1, 81, 0
1, 263451, Note_off_c, 1, 72, 0
1, 263459, Note_off_c, 1, 62, 0
1, 263461, Note_on_c, 1, 74, 127
1, 263461, Note_on_c, 1, 57, 127
1, 263461, Note_on_c, 1, 71, 127
1, 263662, Note_off_c, 1, 74, 0
1, 263665, Note_on_c, 1, 77, 127
1, 263866, Note_off_c, 1, 57, 0
1, 263866, Note_off_c, 1, 77, 0
1, 263869, Note_on_c, 1, 76, 127
1, 263869, Note_on_c, 1, 56, 127
1, 264070, Note_off_c, 1, 76, 0
1, 264269, Note_off_c, 1, 71, 0
1, 264276, Note_off_c, 1, 56, 0
1, 264278, Note_on_c, 1, 72, 127
1, 264278, Note_on_c, 1, 65, 127
1, 264278, Note_on_c, 1, 69, 127
1, 264479, Note_off_c, 1, 72, 0
1, 264483, Note_on_c, 1, 71, 127
1, 264683, Note_off_c, 1, 65, 0
1, 264684, Note_off_c, 1, 71, 0
1, 264686, Note_on_c, 1, 64, 127
1, 264891, Note_on_c, 1, 74, 127
1, 265091, Note_off_c, 1, 64, 0
1, 265092, Note_off_c, 1, 74, 0
1, 265094, Note_on_c, 1, 63, 127
1, 265499, Note_off_c, 1, 69, 0
1, 265499, Note_off_c, 1, 63, 0
1, 265706, Note_on_c, 1, 68, 127
1, 265907, Note_off_c, 1, 68, 0
1, 265910, Note_on_c, 1, 61, 127
1, 265910, Note_on_c, 1, 69, 127
1, 266116, Note_on_c, 1, 67, 127
1, 266317, Note_off_c, 1, 61, 0
1, 266317, Note_off_c, 1, 67, 0
1, 266320, Note_on_c, 1, 66, 127
1, 266320, Note_on_c, 1, 57, 127
1, 266521, Note_off_c, 1, 66, 0
1, 266523, Note_on_c, 1, 64, 127
1, 266724, Note_off_c, 1, 64, 0
1, 266725, Note_off_c, 1, 57, 0
1, 266728, Note_on_c, 1, 62, 127
1, 266728, Note_on_c, 1, 59, 127
1, 266934, Note_off_c, 1, 62, 0
1, 267133, Note_off_c, 1, 59, 0
1, 267134, Note_off_c, 1, 69, 0
1, 267137, Note_on_c, 1, 74, 127
1, 267137, Note_on_c, 1, 59, 127
1, 267338, Note_off_c, 1, 74, 0
1, 267341, Note_on_c, 1, 61, 127
1, 267341, Note_on_c, 1, 76, 127
1, 267542, Note_off_c, 1, 61, 0
1, 267542, Note_off_c, 1, 76, 0
1, 267545, Note_on_c, 1, 78, 127
1, 267545, Note_on_c, 1, 62, 127
1, 267746, Note_off_c, 1, 78, 0
1, 267748, Note_on_c, 1, 79, 127
1, 267949, Note_off_c, 1, 79, 0
1, 267953, Note_on_c, 1, 69, 127
1, 268154, Note_off_c, 1, 69, 0
1, 268157, Note_on_c, 1, 68, 127
1, 268353, Note_off_c, 1, 62, 0
1, 268360, Note_off_c, 1, 68, 0
1, 268769, Note_off_c, 1, 59, 0
1, 268770, Note_on_c, 1, 67, 127
1, 268770, Note_on_c, 1, 57, 127
1, 268971, Note_off_c, 1, 67, 0
1, 268974, Note_on_c, 1, 66, 127
1, 269177, Note_off_c, 1, 66, 0
1, 269585, Note_off_c, 1, 57, 0
1, 269588, Note_on_c, 1, 55, 127
1, 269791, Note_on_c, 1, 64, 127
1, 269994, Note_off_c, 1, 64, 0
1, 269997, Note_on_c, 1, 73, 127
1, 270198, Note_off_c, 1, 73, 0
1, 270201, Note_on_c, 1, 71, 127
1, 270402, Note_off_c, 1, 71, 0
1, 270403, Note_off_c, 1, 55, 0
1, 270405, Note_on_c, 1, 50, 127
1, 270405, Note_on_c, 1, 54, 127
1, 270810, Note_off_c, 1, 50, 0
1, 270810, Note_off_c, 1, 54, 0
1, 270813, Note_on_c, 1, 49, 127
1, 270813, Note_on_c, 1, 52, 127
1, 271218, Note_off_c, 1, 49, 0
1, 271218, Note_off_c, 1, 52, 0
1, 271221, Note_on_c, 1, 45, 127
1, 271626, Note_off_c, 1, 45, 0
1, 271628, Note_on_c, 1, 54, 127
1, 271628, Note_on_c, 1, 81, 127
1, 271834, Note_on_c, 1, 79, 127
1, 272035, Note_off_c, 1, 54, 0
1, 272035, Note_off_c, 1, 79, 0
1, 272038, Note_on_c, 1, 78, 127
1, 272038, Note_on_c, 1, 50, 127
1, 272239, Note_off_c, 1, 78, 0
1, 272242, Note_on_c, 1, 76, 127
1, 272443, Note_off_c, 1, 50, 0
1, 272443, Note_off_c, 1, 76, 0
1, 272446, Note_on_c, 1, 74, 127
1, 272446, Note_on_c, 1, 55, 127
1, 272647, Note_off_c, 1, 74, 0
1, 272650, Note_on_c, 1, 72, 127
1, 272851, Note_off_c, 1, 55, 0
1, 272851, Note_off_c, 1, 72, 0
1, 272853, Note_on_c, 1, 71, 127
1, 273054, Note_off_c, 1, 71, 0
1, 273259, Note_off_c, 1, 81, 0
1, 273261, Note_on_c, 1, 74, 127
1, 273261, Note_on_c, 1, 48, 127
1, 273261, Note_on_c, 1, 79, 127
1, 273462, Note_off_c, 1, 74, 0
1, 273466, Note_on_c, 1, 76, 127
1, 273666, Note_off_c, 1, 48, 0
1, 273667, Note_off_c, 1, 76, 0
1, 273670, Note_on_c, 1, 47, 127
1, 273873, Note_on_c, 1, 72, 127
1, 274069, Note_off_c, 1, 79, 0
1, 274076, Note_off_c, 1, 72, 0
1, 274077, Note_off_c, 1, 47, 0
1, 274079, Note_on_c, 1, 71, 127
1, 274079, Note_on_c, 1, 57, 127
1, 274079, Note_on_c, 1, 77, 127
1, 274280, Note_off_c, 1, 71, 0
1, 274283, Note_on_c, 1, 73, 127
1, 274484, Note_off_c, 1, 57, 0
1, 274484, Note_off_c, 1, 73, 0
1, 274487, Note_on_c, 1, 74, 127
1, 274487, Note_on_c, 1, 56, 127
1, 274688, Note_off_c, 1, 74, 0
1, 274887, Note_off_c, 1, 77, 0
1, 274894, Note_off_c, 1, 56, 0
1, 274896, Note_on_c, 1, 67, 127
1, 274896, Note_on_c, 1, 50, 127
1, 274896, Note_on_c, 1, 76, 127
1, 275097, Note_off_c, 1, 67, 0
1, 275101, Note_on_c, 1, 70, 127
1, 275301, Note_off_c, 1, 50, 0
1, 275302, Note_off_c, 1, 70, 0
1, 275304, Note_on_c, 1, 69, 127
1, 275304, Note_on_c, 1, 49, 127
1, 275505, Note_off_c, 1, 69, 0
1, 275704, Note_off_c, 1, 76, 0
1, 275711, Note_off_c, 1, 49, 0
1, 275714, Note_on_c, 1, 65, 127
1, 275714, Note_on_c, 1, 58, 127
1, 275714, Note_on_c, 1, 74, 127
1, 275915, Note_off_c, 1, 65, 0
1, 275918, Note_on_c, 1, 64, 127
1, 276119, Note_off_c, 1, 58, 0
1, 276119, Note_off_c, 1, 64, 0
1, 276121, Note_on_c, 1, 57, 127
1, 276326, Note_on_c, 1, 62, 127
1, 276526, Note_off_c, 1, 57, 0
1, 276527, Note_off_c, 1, 62, 0
1, 276529, Note_on_c, 1, 56, 127
1, 276734, Note_off_c, 1, 74, 0
1, 276735, Note_on_c, 1, 73, 127
1, 276936, Note_off_c, 1, 56, 0
1, 276936, Note_off_c, 1, 73, 0
1, 277349, Note_on_c, 1, 54, 127
1, 277349, Note_on_c, 1, 74, 127
1, 277554, Note_on_c, 1, 72, 127
1, 277755, Note_off_c, 1, 72, 0
1, 277756, Note_off_c, 1, 54, 0
1, 277758, Note_on_c, 1, 71, 127
1, 277758, Note_on_c, 1, 50, 127
1, 277959, Note_off_c, 1, 71, 0
1, 277963, Note_on_c, 1, 69, 127
1, 278163, Note_off_c, 1, 50, 0
1, 278164, Note_off_c, 1, 69, 0
1, 278166, Note_on_c, 1, 67, 127
1, 278166, Note_on_c, 1, 52, 127
1, 278367, Note_off_c, 1, 67, 0
1, 278369, Note_off_c, 1, 74, 0
1, 278370, Note_on_c, 1, 66, 127
1, 278370, Note_on_c, 1, 76, 127
1, 278571, Note_off_c, 1, 66, 0
1, 278571, Note_off_c, 1, 76, 0
1, 278574, Note_on_c, 1, 64, 127
1, 278574, Note_on_c, 1, 78, 127
1, 278775, Note_off_c, 1, 64, 0
1, 278775, Note_off_c, 1, 78, 0
1, 278778, Note_on_c, 1, 62, 127
1, 278778, Note_on_c, 1, 79, 127
1, 278979, Note_off_c, 1, 62, 0
1, 278979, Note_off_c, 1, 79, 0
1, 278982, Note_on_c, 1, 61, 127
1, 278982, Note_on_c, 1, 81, 127
1, 279183, Note_off_c, 1, 61, 0
1, 279183, Note_off_c, 1, 81, 0
1, 279186, Note_on_c, 1, 59, 127
1, 279186, Note_on_c, 1, 83, 127
1, 279387, Note_off_c, 1, 59, 0
1, 279387, Note_off_c, 1, 83, 0
1, 279389, Note_on_c, 1, 57, 127
1, 279590, Note_off_c, 1, 57, 0
1, 279594, Note_on_c, 1, 55, 127
1, 279594, Note_on_c, 1, 73, 127
1, 279795, Note_off_c, 1, 52, 0
1, 279795, Note_off_c, 1, 55, 0
1, 279795, Note_off_c, 1, 73, 0
1, 279797, Note_on_c, 1, 54, 127
1, 279797, Note_on_c, 1, 50, 127
1, 279797, Note_on_c, 1, 74, 127
1, 279998, Note_off_c, 1, 54, 0
1, 280002, Note_on_c, 1, 57, 127
1, 280203, Note_off_c, 1, 57, 0
1, 280206, Note_on_c, 1, 59, 127
1, 280407, Note_off_c, 1, 59, 0
1, 280409, Note_on_c, 1, 61, 127
1, 280605, Note_off_c, 1, 50, 0
1, 280612, Note_off_c, 1, 61, 0
1, 280615, Note_on_c, 1, 62, 127
1, 280816, Note_off_c, 1, 62, 0
1, 280819, Note_on_c, 1, 64, 127
1, 281020, Note_off_c, 1, 64, 0
1, 281023, Note_on_c, 1, 47, 127
1, 281227, Note_on_c, 1, 56, 127
1, 281426, Note_off_c, 1, 47, 0
1, 281428, Note_off_c, 1, 56, 0
1, 281431, Note_on_c, 1, 45, 127
1, 281840, Note_on_c, 1, 66, 127
1, 282041, Note_off_c, 1, 66, 0
1, 282045, Note_on_c, 1, 67, 127
1, 282240, Note_off_c, 1, 45, 0
1, 282245, Note_off_c, 1, 74, 0
1, 282248, Note_off_c, 1, 67, 0
1, 282250, Note_on_c, 1, 69, 127
1, 282250, Note_on_c, 1, 73, 127
1, 282451, Note_off_c, 1, 69, 0
1, 282454, Note_on_c, 1, 71, 127
1, 282653, Note_off_c, 1, 73, 0
1, 282655, Note_off_c, 1, 71, 0
1, 282657, Note_on_c, 1, 78, 127
1, 282862, Note_on_c, 1, 63, 127
1, 283063, Note_off_c, 1, 63, 0
1, 283065, Note_on_c, 1, 52, 127
1, 283251, Note_off_c, 1, 78, 0
1, 283474, Note_on_c, 1, 58, 127
1, 283675, Note_off_c, 1, 58, 0
1, 283873, Note_off_c, 1, 52, 0
1, 283883, Note_on_c, 1, 76, 127
1, 284084, Note_off_c, 1, 76, 0
1, 284291, Note_on_c, 1, 49, 127
1, 284495, Note_on_c, 1, 70, 127
1, 284696, Note_off_c, 1, 49, 0
1, 284696, Note_off_c, 1, 70, 0
1, 284902, Note_on_c, 1, 42, 127
1, 285103, Note_off_c, 1, 42, 0
1, 285107, Note_on_c, 1, 44, 127
1, 285308, Note_off_c, 1, 44, 0
1, 285516, Note_on_c, 1, 47, 127
1, 285516, Note_on_c, 1, 73, 127
1, 285516, Note_on_c, 1, 65, 127
1, 285717, Note_off_c, 1, 47, 0
1, 285720, Note_on_c, 1, 49, 127
1, 285921, Note_off_c, 1, 73, 0
1, 285921, Note_off_c, 1, 65, 0
1, 285921, Note_off_c, 1, 49, 0
1, 285924, Note_on_c, 1, 42, 127
1, 285924, Note_on_c, 1, 71, 127
1, 285924, Note_on_c, 1, 68, 127
1, 286125, Note_off_c, 1, 42, 0
1, 286128, Note_on_c, 1, 41, 127
1, 286329, Note_off_c, 1, 71, 0
1, 286329, Note_off_c, 1, 41, 0
1, 286332, Note_on_c, 1, 73, 127
1, 286332, Note_on_c, 1, 45, 127
1, 286518, Note_off_c, 1, 68, 0
1, 286536, Note_on_c, 1, 49, 127
1, 286536, Note_on_c, 1, 65, 127
1, 286737, Note_off_c, 1, 49, 0
1, 286737, Note_off_c, 1, 65, 0
1, 286739, Note_on_c, 1, 51, 127
1, 286739, Note_on_c, 1, 66, 127
1, 286940, Note_off_c, 1, 51, 0
1, 286940, Note_off_c, 1, 66, 0
1, 286944, Note_on_c, 1, 53, 127
1, 287145, Note_off_c, 1, 53, 0
1, 287147, Note_on_c, 1, 54, 127
1, 287147, Note_on_c, 1, 69, 127
1, 287348, Note_off_c, 1, 54, 0
1, 287348, Note_off_c, 1, 69, 0
1, 287352, Note_on_c, 1, 56, 127
1, 287553, Note_off_c, 1, 56, 0
1, 287556, Note_on_c, 1, 57, 127
1, 287556, Note_on_c, 1, 62, 127
1, 287757, Note_off_c, 1, 57, 0
1, 287757, Note_off_c, 1, 62, 0
1, 287759, Note_on_c, 1, 61, 127
1, 287960, Note_off_c, 1, 61, 0
1, 287961, Note_off_c, 1, 73, 0
1, 287964, Note_on_c, 1, 63, 127
1, 288773, Note_off_c, 1, 63, 0
1, 288778, Note_off_c, 1, 45, 0
1, 288782, Note_on_c, 1, 71, 127
1, 288782, Note_on_c, 1, 65, 127
1, 288782, Note_on_c, 1, 44, 127
1, 288782, Note_on_c, 1, 56, 127
1, 288983, Note_off_c, 1, 71, 0
1, 288987, Note_on_c, 1, 73, 127
1, 289185, Note_off_c, 1, 65, 0
1, 289188, Note_off_c, 1, 73, 0
1, 289190, Note_on_c, 1, 66, 127
1, 289190, Note_on_c, 1, 68, 127
1, 289391, Note_off_c, 1, 66, 0
1, 289593, Note_off_c, 1, 68, 0
1, 289595, Note_off_c, 1, 44, 0
1, 289595, Note_off_c, 1, 56, 0
1, 289598, Note_on_c, 1, 42, 127
1, 289598, Note_on_c, 1, 69, 127
1, 289804, Note_on_c, 1, 68, 127
1, 290005, Note_off_c, 1, 42, 0
1, 290005, Note_off_c, 1, 68, 0
1, 290007, Note_on_c, 1, 66, 127
1, 290007, Note_on_c, 1, 61, 127
1, 290208, Note_off_c, 1, 66, 0
1, 290212, Note_on_c, 1, 65, 127
1, 290407, Note_off_c, 1, 69, 0
1, 290414, Note_off_c, 1, 61, 0
1, 290415, Note_off_c, 1, 65, 0
1, 290418, Note_on_c, 1, 66, 127
1, 290418, Note_on_c, 1, 57, 127
1, 290619, Note_off_c, 1, 66, 0
1, 290621, Note_on_c, 1, 68, 127
1, 290822, Note_off_c, 1, 68, 0
1, 290823, Note_off_c, 1, 57, 0
1, 290826, Note_on_c, 1, 69, 127
1, 290826, Note_on_c, 1, 54, 127
1, 291027, Note_off_c, 1, 69, 0
1, 291029, Note_on_c, 1, 73, 127
1, 291230, Note_off_c, 1, 73, 0
1, 291231, Note_off_c, 1, 54, 0
1, 291233, Note_on_c, 1, 71, 127
1, 291233, Note_on_c, 1, 62, 127
1, 291434, Note_off_c, 1, 71, 0
1, 291437, Note_on_c, 1, 68, 127
1, 291638, Note_off_c, 1, 62, 0
1, 291638, Note_off_c, 1, 68, 0
1, 291641, Note_on_c, 1, 69, 127
1, 291641, Note_on_c, 1, 61, 127
1, 291842, Note_off_c, 1, 69, 0
1, 291845, Note_on_c, 1, 73, 127
1, 292046, Note_off_c, 1, 61, 0
1, 292046, Note_off_c, 1, 73, 0
1, 292049, Note_on_c, 1, 71, 127
1, 292049, Note_on_c, 1, 66, 127
1, 292049, Note_on_c, 1, 80, 127
1, 292250, Note_off_c, 1, 71, 0
1, 292252, Note_on_c, 1, 74, 127
1, 292453, Note_off_c, 1, 74, 0
1, 292454, Note_off_c, 1, 66, 0
1, 292457, Note_on_c, 1, 73, 127
1, 292457, Note_on_c, 1, 65, 127
1, 292658, Note_off_c, 1, 73, 0
1, 292857, Note_off_c, 1, 80, 0
1, 292864, Note_off_c, 1, 65, 0
1, 292866, Note_on_c, 1, 73, 127
1, 292866, Note_on_c, 1, 59, 127
1, 292866, Note_on_c, 1, 78, 127
1, 293067, Note_off_c, 1, 73, 0
1, 293070, Note_on_c, 1, 74, 127
1, 293271, Note_off_c, 1, 59, 0
1, 293271, Note_off_c, 1, 74, 0
1, 293274, Note_on_c, 1, 76, 127
1, 293274, Note_on_c, 1, 58, 127
1, 293475, Note_off_c, 1, 76, 0
1, 293674, Note_off_c, 1, 78, 0
1, 293681, Note_off_c, 1, 58, 0
1, 293683, Note_on_c, 1, 73, 127
1, 293683, Note_on_c, 1, 67, 127
1, 293683, Note_on_c, 1, 76, 127
1, 293884, Note_off_c, 1, 73, 0
1, 293888, Note_on_c, 1, 71, 127
1, 294088, Note_off_c, 1, 67, 0
1, 294089, Note_off_c, 1, 71, 0
1, 294092, Note_on_c, 1, 70, 127
1, 294092, Note_on_c, 1, 66, 127
1, 294293, Note_off_c, 1, 70, 0
1, 294295, Note_on_c, 1, 68, 127
1, 294491, Note_off_c, 1, 76, 0
1, 294498, Note_off_c, 1, 68, 0
1, 294499, Note_off_c, 1, 66, 0
1, 294501, Note_on_c, 1, 66, 127
1, 294501, Note_on_c, 1, 61, 127
1, 294501, Note_on_c, 1, 75, 127
1, 294702, Note_off_c, 1, 66, 0
1, 294705, Note_on_c, 1, 69, 127
1, 294906, Note_off_c, 1, 61, 0
1, 294906, Note_off_c, 1, 69, 0
1, 294909, Note_on_c, 1, 68, 127
1, 294909, Note_on_c, 1, 60, 127
1, 295110, Note_off_c, 1, 68, 0
1, 295113, Note_on_c, 1, 72, 127
1, 295309, Note_off_c, 1, 75, 0
1, 295316, Note_off_c, 1, 60, 0
1, 295316, Note_off_c, 1, 72, 0
1, 295319, Note_on_c, 1, 69, 127
1, 295319, Note_on_c, 1, 73, 127
1, 295524, Note_on_c, 1, 75, 127
1, 295725, Note_off_c, 1, 75, 0
1, 295726, Note_off_c, 1, 69, 0
1, 295728, Note_on_c, 1, 76, 127
1, 295728, Note_on_c, 1, 68, 127
1, 295929, Note_off_c, 1, 76, 0
1, 295932, Note_on_c, 1, 78, 127
1, 296133, Note_off_c, 1, 68, 0
1, 296133, Note_off_c, 1, 78, 0
1, 296136, Note_on_c, 1, 67, 127
1, 296541, Note_off_c, 1, 67, 0
1, 296542, Note_off_c, 1, 73, 0
1, 296543, Note_on_c, 1, 73, 127
1, 296543, Note_on_c, 1, 68, 127
1, 296744, Note_off_c, 1, 73, 0
1, 296749, Note_on_c, 1, 72, 127
1, 296950, Note_off_c, 1, 68, 0
1, 296950, Note_off_c, 1, 72, 0
1, 296954, Note_on_c, 1, 68, 127
1, 296954, Note_on_c, 1, 64, 127
1, 296954, Note_on_c, 1, 73, 127
1, 297155, Note_off_c, 1, 68, 0
1, 297157, Note_on_c, 1, 71, 127
1, 297358, Note_off_c, 1, 71, 0
1, 297359, Note_off_c, 1, 64, 0
1, 297362, Note_on_c, 1, 69, 127
1, 297362, Note_on_c, 1, 61, 127
1, 297563, Note_off_c, 1, 69, 0
1, 297767, Note_off_c, 1, 61, 0
1, 297769, Note_on_c, 1, 66, 127
1, 297769, Note_on_c, 1, 63, 127
1, 297974, Note_off_c, 1, 73, 0
1, 297974, Note_on_c, 1, 75, 127
1, 298175, Note_off_c, 1, 75, 0
1, 298179, Note_on_c, 1, 76, 127
1, 298380, Note_off_c, 1, 76, 0
1, 298382, Note_on_c, 1, 78, 127
1, 298583, Note_off_c, 1, 78, 0
1, 298587, Note_on_c, 1, 80, 127
1, 298788, Note_off_c, 1, 80, 0
1, 298791, Note_on_c, 1, 81, 127
1, 298992, Note_off_c, 1, 81, 0
1, 299199, Note_on_c, 1, 72, 127
1, 299400, Note_off_c, 1, 66, 0
1, 299400, Note_off_c, 1, 72, 0
1, 299603, Note_off_c, 1, 63, 0
1, 299606, Note_on_c, 1, 56, 127
1, 299807, Note_off_c, 1, 56, 0
1, 299810, Note_on_c, 1, 58, 127
1, 300011, Note_off_c, 1, 58, 0
1, 300014, Note_on_c, 1, 60, 127
1, 300215, Note_off_c, 1, 60, 0
1, 300625, Note_on_c, 1, 54, 127
1, 300826, Note_off_c, 1, 54, 0
1, 300830, Note_on_c, 1, 52, 127
1, 301031, Note_off_c, 1, 52, 0
1, 301851, Note_on_c, 1, 81, 127
1, 301851, Note_on_c, 1, 66, 127
1, 302052, Note_off_c, 1, 81, 0
1, 302052, Note_off_c, 1, 66, 0
1, 302055, Note_on_c, 1, 68, 127
1, 302055, Note_on_c, 1, 83, 127
1, 302256, Note_off_c, 1, 68, 0
1, 302256, Note_off_c, 1, 83, 0
1, 302259, Note_on_c, 1, 69, 127
1, 302259, Note_on_c, 1, 75, 127
1, 302460, Note_off_c, 1, 69, 0
1, 302460, Note_off_c, 1, 75, 0
1, 302463, Note_on_c, 1, 73, 127
1, 302463, Note_on_c, 1, 71, 127
1, 302664, Note_off_c, 1, 73, 0
1, 302664, Note_off_c, 1, 71, 0
1, 302667, Note_on_c, 1, 69, 127
1, 302667, Note_on_c, 1, 75, 127
1, 302868, Note_off_c, 1, 69, 0
1, 302870, Note_on_c, 1, 66, 127
1, 303071, Note_off_c, 1, 66, 0
1, 303075, Note_on_c, 1, 68, 127
1, 303075, Note_on_c, 1, 47, 127
1, 303276, Note_off_c, 1, 68, 0
1, 303475, Note_off_c, 1, 75, 0
1, 303482, Note_off_c, 1, 47, 0
1, 303484, Note_on_c, 1, 71, 127
1, 303484, Note_on_c, 1, 44, 127
1, 303685, Note_off_c, 1, 71, 0
1, 303688, Note_on_c, 1, 73, 127
1, 303889, Note_off_c, 1, 44, 0
1, 303889, Note_off_c, 1, 73, 0
1, 303892, Note_on_c, 1, 75, 127
1, 303892, Note_on_c, 1, 40, 127
1, 304093, Note_off_c, 1, 75, 0
1, 304096, Note_on_c, 1, 76, 127
1, 304297, Note_off_c, 1, 40, 0
1, 304297, Note_off_c, 1, 76, 0
1, 304300, Note_on_c, 1, 78, 127
1, 304300, Note_on_c, 1, 49, 127
1, 304501, Note_off_c, 1, 78, 0
1, 304504, Note_on_c, 1, 75, 127
1, 304705, Note_off_c, 1, 49, 0
1, 304705, Note_off_c, 1, 75, 0
1, 304707, Note_on_c, 1, 76, 127
1, 304707, Note_on_c, 1, 47, 127
1, 304908, Note_off_c, 1, 76, 0
1, 304912, Note_on_c, 1, 80, 127
1, 305112, Note_off_c, 1, 47, 0
1, 305113, Note_off_c, 1, 80, 0
1, 305116, Note_on_c, 1, 52, 127
1, 305116, Note_on_c, 1, 78, 127
1, 305321, Note_on_c, 1, 73, 127
1, 305522, Note_off_c, 1, 73, 0
1, 305523, Note_off_c, 1, 52, 0
1, 305526, Note_on_c, 1, 71, 127
1, 305526, Note_on_c, 1, 51, 127
1, 305727, Note_off_c, 1, 71, 0
1, 305729, Note_on_c, 1, 69, 127
1, 305925, Note_off_c, 1, 78, 0
1, 305932, Note_off_c, 1, 69, 0
1, 305933, Note_off_c, 1, 51, 0
1, 305935, Note_on_c, 1, 71, 127
1, 305935, Note_on_c, 1, 45, 127
1, 305935, Note_on_c, 1, 76, 127
1, 306136, Note_off_c, 1, 71, 0
1, 306138, Note_on_c, 1, 73, 127
1, 306339, Note_off_c, 1, 73, 0
1, 306340, Note_off_c, 1, 45, 0
1, 306343, Note_on_c, 1, 74, 127
1, 306343, Note_on_c, 1, 44, 127
1, 306544, Note_off_c, 1, 74, 0
1, 306743, Note_off_c, 1, 76, 0
1, 306750, Note_off_c, 1, 44, 0
1, 306752, Note_on_c, 1, 71, 127
1, 306752, Note_on_c, 1, 53, 127
1, 306752, Note_on_c, 1, 74, 127
1, 306953, Note_off_c, 1, 71, 0
1, 306956, Note_on_c, 1, 69, 127
1, 307157, Note_off_c, 1, 53, 0
1, 307157, Note_off_c, 1, 69, 0
1, 307160, Note_on_c, 1, 68, 127
1, 307160, Note_on_c, 1, 52, 127
1, 307361, Note_off_c, 1, 68, 0
1, 307364, Note_on_c, 1, 66, 127
1, 307560, Note_off_c, 1, 74, 0
1, 307567, Note_off_c, 1, 52, 0
1, 307567, Note_off_c, 1, 66, 0
1, 307569, Note_on_c, 1, 64, 127
1, 307569, Note_on_c, 1, 47, 127
1, 307569, Note_on_c, 1, 73, 127
1, 307770, Note_off_c, 1, 64, 0
1, 307774, Note_on_c, 1, 67, 127
1, 307974, Note_off_c, 1, 47, 0
1, 307975, Note_off_c, 1, 67, 0
1, 307978, Note_on_c, 1, 66, 127
1, 307978, Note_on_c, 1, 46, 127
1, 308179, Note_off_c, 1, 66, 0
1, 308377, Note_off_c, 1, 73, 0
1, 308385, Note_off_c, 1, 46, 0
1, 308387, Note_on_c, 1, 62, 127
1, 308387, Note_on_c, 1, 55, 127
1, 308387, Note_on_c, 1, 71, 127
1, 308588, Note_off_c, 1, 62, 0
1, 308591, Note_on_c, 1, 61, 127
1, 308792, Note_off_c, 1, 55, 0
1, 308792, Note_off_c, 1, 61, 0
1, 308795, Note_on_c, 1, 54, 127
1, 308999, Note_on_c, 1, 59, 127
1, 309200, Note_off_c, 1, 54, 0
1, 309200, Note_off_c, 1, 59, 0
1, 309203, Note_on_c, 1, 53, 127
1, 309407, Note_off_c, 1, 71, 0
1, 309409, Note_on_c, 1, 70, 127
1, 309610, Note_off_c, 1, 53, 0
1, 309610, Note_off_c, 1, 70, 0
1, 310022, Note_on_c, 1, 50, 127
1, 310022, Note_on_c, 1, 71, 127
1, 310228, Note_on_c, 1, 69, 127
1, 310429, Note_off_c, 1, 50, 0
1, 310429, Note_off_c, 1, 69, 0
1, 310431, Note_on_c, 1, 67, 127
1, 310431, Note_on_c, 1, 47, 127
1, 310632, Note_off_c, 1, 67, 0
1, 310635, Note_on_c, 1, 66, 127
1, 310836, Note_off_c, 1, 47, 0
1, 310836, Note_off_c, 1, 66, 0
1, 310840, Note_on_c, 1, 64, 127
1, 310840, Note_on_c, 1, 49, 127
1, 311044, Note_off_c, 1, 71, 0
1, 311045, Note_on_c, 1, 73, 127
1, 311246, Note_off_c, 1, 73, 0
1, 311249, Note_on_c, 1, 74, 127
1, 311450, Note_off_c, 1, 74, 0
1, 311453, Note_on_c, 1, 76, 127
1, 311649, Note_off_c, 1, 64, 0
1, 311656, Note_off_c, 1, 76, 0
1, 311659, Note_on_c, 1, 78, 127
1, 311860, Note_off_c, 1, 78, 0
1, 311862, Note_on_c, 1, 79, 127
1, 312063, Note_off_c, 1, 79, 0
1, 312271, Note_on_c, 1, 70, 127
1, 312472, Note_off_c, 1, 49, 0
1, 312472, Note_off_c, 1, 70, 0
1, 313290, Note_on_c, 1, 62, 127
1, 313697, Note_off_c, 1, 62, 0
1, 313699, Note_on_c, 1, 59, 127
1, 314106, Note_off_c, 1, 59, 0
1, 314109, Note_on_c, 1, 76, 127
1, 314109, Note_on_c, 1, 73, 127
1, 314109, Note_on_c, 1, 67, 127
1, 314310, Note_off_c, 1, 76, 0
1, 314313, Note_on_c, 1, 74, 127
1, 314512, Note_off_c, 1, 73, 0
1, 314514, Note_off_c, 1, 67, 0
1, 314514, Note_off_c, 1, 74, 0
1, 314517, Note_on_c, 1, 78, 127
1, 314517, Note_on_c, 1, 74, 127
1, 314517, Note_on_c, 1, 66, 127
1, 314718, Note_off_c, 1, 78, 0
1, 314721, Note_on_c, 1, 76, 127
1, 314920, Note_off_c, 1, 74, 0
1, 314922, Note_off_c, 1, 66, 0
1, 314922, Note_off_c, 1, 76, 0
1, 314925, Note_on_c, 1, 71, 127
1, 314925, Note_on_c, 1, 79, 127
1, 315130, Note_on_c, 1, 76, 127
1, 315331, Note_off_c, 1, 76, 0
1, 315332, Note_off_c, 1, 71, 0
1, 315334, Note_on_c, 1, 74, 127
1, 315334, Note_on_c, 1, 70, 127
1, 315535, Note_off_c, 1, 74, 0
1, 315539, Note_on_c, 1, 73, 127
1, 315739, Note_off_c, 1, 70, 0
1, 315740, Note_off_c, 1, 73, 0
1, 315742, Note_on_c, 1, 64, 127
1, 316147, Note_off_c, 1, 64, 0
1, 316150, Note_on_c, 1, 63, 127
1, 316356, Note_on_c, 1, 78, 127
1, 316357, Note_off_c, 1, 79, 0
1, 316557, Note_off_c, 1, 63, 0
1, 316557, Note_off_c, 1, 78, 0
1, 316559, Note_on_c, 1, 72, 127
1, 316559, Note_on_c, 1, 81, 127
1, 316765, Note_on_c, 1, 78, 127
1, 316966, Note_off_c, 1, 72, 0
1, 316966, Note_off_c, 1, 78, 0
1, 316970, Note_on_c, 1, 76, 127
1, 316970, Note_on_c, 1, 71, 127
1, 317171, Note_off_c, 1, 76, 0
1, 317173, Note_on_c, 1, 75, 127
1, 317374, Note_off_c, 1, 75, 0
1, 317375, Note_off_c, 1, 71, 0
1, 317377, Note_on_c, 1, 73, 127
1, 317377, Note_on_c, 1, 66, 127
1, 317578, Note_off_c, 1, 73, 0
1, 317782, Note_off_c, 1, 66, 0
1, 317785, Note_on_c, 1, 65, 127
1, 317990, Note_on_c, 1, 80, 127
1, 317991, Note_off_c, 1, 81, 0
1, 318191, Note_off_c, 1, 80, 0
1, 318192, Note_off_c, 1, 65, 0
1, 318195, Note_on_c, 1, 83, 127
1, 318195, Note_on_c, 1, 74, 127
1, 318401, Note_on_c, 1, 80, 127
1, 318600, Note_off_c, 1, 83, 0
1, 318602, Note_off_c, 1, 74, 0
1, 318604, Note_on_c, 1, 81, 127
1, 318604, Note_on_c, 1, 73, 127
1, 318804, Note_off_c, 1, 80, 0
1, 318810, Note_on_c, 1, 78, 127
1, 319009, Note_off_c, 1, 81, 0
1, 319011, Note_off_c, 1, 73, 0
1, 319013, Note_on_c, 1, 72, 127
1, 319213, Note_off_c, 1, 78, 0
1, 319420, Note_off_c, 1, 72, 0
1, 319423, Note_on_c, 1, 77, 127
1, 319624, Note_off_c, 1, 77, 0
1, 319830, Note_on_c, 1, 69, 127
1, 320237, Note_off_c, 1, 69, 0
1, 320241, Note_on_c, 1, 66, 127
1, 320646, Note_off_c, 1, 66, 0
1, 320649, Note_on_c, 1, 71, 127
1, 320649, Note_on_c, 1, 68, 127
1, 322278, Note_off_c, 1, 71, 0
1, 322481, Note_off_c, 1, 68, 0
1, 322484, Note_on_c, 1, 61, 127
1, 322685, Note_off_c, 1, 61, 0
1, 322688, Note_on_c, 1, 63, 127
1, 322889, Note_off_c, 1, 63, 0
1, 322892, Note_on_c, 1, 65, 127
1, 323093, Note_off_c, 1, 65, 0
1, 323503, Note_on_c, 1, 59, 127
1, 323704, Note_off_c, 1, 59, 0
1, 323707, Note_on_c, 1, 57, 127
1, 323908, Note_off_c, 1, 57, 0
1, 324323, Note_on_c, 1, 67, 127
1, 324524, Note_off_c, 1, 67, 0
1, 325138, Note_on_c, 1, 64, 127
1, 325339, Note_off_c, 1, 64, 0
1, 325956, Note_on_c, 1, 79, 127
1, 326157, Note_off_c, 1, 79, 0
1, 326568, Note_on_c, 1, 84, 127
1, 326769, Note_off_c, 1, 84, 0
1, 326975, Note_on_c, 1, 76, 127
1, 327176, Note_off_c, 1, 76, 0
1, 327179, Note_on_c, 1, 58, 127
1, 327584, Note_off_c, 1, 58, 0
1, 327589, Note_on_c, 1, 62, 127
1, 327589, Note_on_c, 1, 54, 127
1, 327790, Note_off_c, 1, 62, 0
1, 327992, Note_off_c, 1, 54, 0
1, 328405, Note_on_c, 1, 74, 127
1, 328405, Note_on_c, 1, 62, 127
1, 328606, Note_off_c, 1, 74, 0
1, 328608, Note_on_c, 1, 71, 127
1, 328809, Note_off_c, 1, 71, 0
1, 328810, Note_off_c, 1, 62, 0
1, 328813, Note_on_c, 1, 79, 127
1, 328813, Note_on_c, 1, 64, 127
1, 329014, Note_off_c, 1, 79, 0
1, 329016, Note_on_c, 1, 81, 127
1, 329217, Note_off_c, 1, 81, 0
1, 329218, Note_off_c, 1, 64, 0
1, 329220, Note_on_c, 1, 76, 127
1, 329220, Note_on_c, 1, 67, 127
1, 329220, Note_on_c, 1, 83, 127
1, 329421, Note_off_c, 1, 76, 0
1, 329425, Note_on_c, 1, 74, 127
1, 329625, Note_off_c, 1, 67, 0
1, 329626, Note_off_c, 1, 74, 0
1, 329628, Note_on_c, 1, 73, 127
1, 329628, Note_on_c, 1, 69, 127
1, 329829, Note_off_c, 1, 73, 0
1, 330028, Note_off_c, 1, 83, 0
1, 330035, Note_off_c, 1, 69, 0
1, 330038, Note_on_c, 1, 81, 127
1, 330038, Note_on_c, 1, 61, 127
1, 330038, Note_on_c, 1, 76, 127
1, 330239, Note_off_c, 1, 81, 0
1, 330242, Note_on_c, 1, 79, 127
1, 330443, Note_off_c, 1, 61, 0
1, 330443, Note_off_c, 1, 79, 0
1, 330445, Note_on_c, 1, 78, 127
1, 330445, Note_on_c, 1, 62, 127
1, 330646, Note_off_c, 1, 78, 0
1, 330846, Note_off_c, 1, 76, 0
1, 330852, Note_off_c, 1, 62, 0
1, 330856, Note_on_c, 1, 74, 127
1, 330856, Note_on_c, 1, 66, 127
1, 330856, Note_on_c, 1, 81, 127
1, 331057, Note_off_c, 1, 74, 0
1, 331059, Note_on_c, 1, 73, 127
1, 331260, Note_off_c, 1, 73, 0
1, 331261, Note_off_c, 1, 66, 0
1, 331263, Note_on_c, 1, 71, 127
1, 331263, Note_on_c, 1, 67, 127
1, 331464, Note_off_c, 1, 71, 0
1, 331664, Note_off_c, 1, 81, 0
1, 331670, Note_off_c, 1, 67, 0
1, 331673, Note_on_c, 1, 79, 127
1, 331673, Note_on_c, 1, 59, 127
1, 331673, Note_on_c, 1, 74, 127
1, 331874, Note_off_c, 1, 79, 0
1, 331876, Note_on_c, 1, 78, 127
1, 332077, Note_off_c, 1, 78, 0
1, 332078, Note_off_c, 1, 59, 0
1, 332081, Note_on_c, 1, 76, 127
1, 332081, Note_on_c, 1, 61, 127
1, 332282, Note_off_c, 1, 76, 0
1, 332481, Note_off_c, 1, 74, 0
1, 332488, Note_off_c, 1, 61, 0
1, 332490, Note_on_c, 1, 73, 127
1, 332490, Note_on_c, 1, 64, 127
1, 332490, Note_on_c, 1, 79, 127
1, 332691, Note_off_c, 1, 73, 0
1, 332694, Note_on_c, 1, 71, 127
1, 332895, Note_off_c, 1, 64, 0
1, 332895, Note_off_c, 1, 71, 0
1, 332898, Note_on_c, 1, 70, 127
1, 332898, Note_on_c, 1, 66, 127
1, 333099, Note_off_c, 1, 70, 0
1, 333298, Note_off_c, 1, 79, 0
1, 333305, Note_off_c, 1, 66, 0
1, 333307, Note_on_c, 1, 78, 127
1, 333307, Note_on_c, 1, 58, 127
1, 333307, Note_on_c, 1, 73, 127
1, 333508, Note_off_c, 1, 78, 0
1, 333511, Note_on_c, 1, 76, 127
1, 333712, Note_off_c, 1, 58, 0
1, 333712, Note_off_c, 1, 76, 0
1, 333715, Note_on_c, 1, 59, 127
1, 333715, Note_on_c, 1, 74, 127
1, 333916, Note_off_c, 1, 59, 0
1, 333919, Note_on_c, 1, 54, 127
1, 334120, Note_off_c, 1, 54, 0
1, 334125, Note_on_c, 1, 56, 127
1, 334326, Note_off_c, 1, 56, 0
1, 334530, Note_off_c, 1, 73, 0
1, 334533, Note_on_c, 1, 71, 127
1, 334735, Note_off_c, 1, 74, 0
1, 334736, Note_on_c, 1, 60, 127
1, 334936, Note_off_c, 1, 71, 0
1, 334937, Note_off_c, 1, 60, 0
1, 334941, Note_on_c, 1, 52, 127
1, 334941, Note_on_c, 1, 69, 127
1, 334941, Note_on_c, 1, 78, 127
1, 335142, Note_off_c, 1, 52, 0
1, 335144, Note_on_c, 1, 51, 127
1, 335345, Note_off_c, 1, 51, 0
1, 335346, Note_off_c, 1, 69, 0
1, 335349, Note_on_c, 1, 67, 127
1, 335550, Note_off_c, 1, 67, 0
1, 335749, Note_off_c, 1, 78, 0
1, 335758, Note_on_c, 1, 76, 127
1, 335758, Note_on_c, 1, 55, 127
1, 335758, Note_on_c, 1, 71, 127
1, 335959, Note_off_c, 1, 76, 0
1, 335962, Note_on_c, 1, 74, 127
1, 336163, Note_off_c, 1, 55, 0
1, 336163, Note_off_c, 1, 74, 0
1, 336166, Note_on_c, 1, 73, 127
1, 336166, Note_on_c, 1, 57, 127
1, 336367, Note_off_c, 1, 73, 0
1, 336566, Note_off_c, 1, 71, 0
1, 336573, Note_off_c, 1, 57, 0
1, 336575, Note_on_c, 1, 69, 127
1, 336575, Note_on_c, 1, 61, 127
1, 336575, Note_on_c, 1, 76, 127
1, 336776, Note_off_c, 1, 69, 0
1, 336780, Note_on_c, 1, 67, 127
1, 336980, Note_off_c, 1, 61, 0
1, 336981, Note_off_c, 1, 67, 0
1, 336983, Note_on_c, 1, 66, 127
1, 336983, Note_on_c, 1, 62, 127
1, 337184, Note_off_c, 1, 66, 0
1, 337383, Note_off_c, 1, 76, 0
1, 337390, Note_off_c, 1, 62, 0
1, 337393, Note_on_c, 1, 74, 127
1, 337393, Note_on_c, 1, 54, 127
1, 337393, Note_on_c, 1, 69, 127
1, 337594, Note_off_c, 1, 74, 0
1, 337597, Note_on_c, 1, 73, 127
1, 337798, Note_off_c, 1, 54, 0
1, 337798, Note_off_c, 1, 73, 0
1, 337801, Note_on_c, 1, 71, 127
1, 337801, Note_on_c, 1, 55, 127
1, 338002, Note_off_c, 1, 71, 0
1, 338201, Note_off_c, 1, 69, 0
1, 338208, Note_off_c, 1, 55, 0
1, 338210, Note_on_c, 1, 67, 127
1, 338210, Note_on_c, 1, 59, 127
1, 338210, Note_on_c, 1, 74, 127
1, 338411, Note_off_c, 1, 67, 0
1, 338414, Note_on_c, 1, 66, 127
1, 338615, Note_off_c, 1, 59, 0
1, 338615, Note_off_c, 1, 66, 0
1, 338618, Note_on_c, 1, 64, 127
1, 338618, Note_on_c, 1, 61, 127
1, 338819, Note_off_c, 1, 64, 0
1, 339018, Note_off_c, 1, 74, 0
1, 339025, Note_off_c, 1, 61, 0
1, 339028, Note_on_c, 1, 73, 127
1, 339028, Note_on_c, 1, 52, 127
1, 339028, Note_on_c, 1, 67, 127
1, 339229, Note_off_c, 1, 73, 0
1, 339232, Note_on_c, 1, 71, 127
1, 339433, Note_off_c, 1, 52, 0
1, 339433, Note_off_c, 1, 71, 0
1, 339435, Note_on_c, 1, 70, 127
1, 339435, Note_on_c, 1, 54, 127
1, 339636, Note_off_c, 1, 70, 0
1, 339836, Note_off_c, 1, 67, 0
1, 339842, Note_off_c, 1, 54, 0
1, 339845, Note_on_c, 1, 66, 127
1, 339845, Note_on_c, 1, 58, 127
1, 339845, Note_on_c, 1, 73, 127
1, 340046, Note_off_c, 1, 66, 0
1, 340049, Note_on_c, 1, 64, 127
1, 340250, Note_off_c, 1, 58, 0
1, 340250, Note_off_c, 1, 64, 0
1, 340252, Note_on_c, 1, 59, 127
1, 340252, Note_on_c, 1, 62, 127
1, 340442, Note_off_c, 1, 73, 0
1, 340664, Note_off_c, 1, 59, 0
1, 340668, Note_on_c, 1, 68, 127
1, 340668, Note_on_c, 1, 54, 127
1, 340872, Note_off_c, 1, 68, 0
1, 340875, Note_on_c, 1, 70, 127
1, 341073, Note_off_c, 1, 62, 0
1, 341081, Note_off_c, 1, 70, 0
1, 341082, Note_off_c, 1, 54, 0
1, 341083, Note_on_c, 1, 50, 127
1, 341083, Note_on_c, 1, 71, 127
1, 341293, Note_on_c, 1, 73, 127
1, 341497, Note_off_c, 1, 50, 0
1, 341497, Note_off_c, 1, 73, 0
1, 341500, Note_on_c, 1, 74, 127
1, 341500, Note_on_c, 1, 47, 127
1, 341704, Note_off_c, 1, 74, 0
1, 341708, Note_on_c, 1, 78, 127
1, 341912, Note_off_c, 1, 47, 0
1, 341912, Note_off_c, 1, 78, 0
1, 341914, Note_on_c, 1, 76, 127
1, 341914, Note_on_c, 1, 55, 127
1, 342118, Note_off_c, 1, 76, 0
1, 342326, Note_off_c, 1, 71, 0
1, 342326, Note_off_c, 1, 55, 0
1, 342329, Note_on_c, 1, 74, 127
1, 342329, Note_on_c, 1, 70, 127
1, 342329, Note_on_c, 1, 54, 127
1, 342533, Note_off_c, 1, 74, 0
1, 342537, Note_on_c, 1, 78, 127
1, 342739, Note_off_c, 1, 70, 0
1, 342741, Note_off_c, 1, 54, 0
1, 342741, Note_off_c, 1, 78, 0
1, 342744, Note_on_c, 1, 79, 127
1, 342744, Note_on_c, 1, 74, 127
1, 342744, Note_on_c, 1, 59, 127
1, 342948, Note_off_c, 1, 79, 0
1, 342951, Note_on_c, 1, 76, 127
1, 343154, Note_off_c, 1, 74, 0
1, 343155, Note_off_c, 1, 76, 0
1, 343156, Note_off_c, 1, 59, 0
1, 343159, Note_on_c, 1, 78, 127
1, 343159, Note_on_c, 1, 73, 127
1, 343159, Note_on_c, 1, 58, 127
1, 343363, Note_off_c, 1, 78, 0
1, 343366, Note_on_c, 1, 82, 127
1, 343569, Note_off_c, 1, 73, 0
1, 343570, Note_off_c, 1, 82, 0
1, 343571, Note_off_c, 1, 58, 0
1, 343573, Note_on_c, 1, 83, 127
1, 343573, Note_on_c, 1, 78, 127
1, 343573, Note_on_c, 1, 52, 127
1, 343777, Note_off_c, 1, 83, 0
1, 343780, Note_on_c, 1, 81, 127
1, 343983, Note_off_c, 1, 78, 0
1, 343984, Note_off_c, 1, 81, 0
1, 343985, Note_off_c, 1, 52, 0
1, 343988, Note_on_c, 1, 79, 127
1, 343988, Note_on_c, 1, 51, 127
1, 343988, Note_on_c, 1, 47, 127
1, 344192, Note_off_c, 1, 79, 0
1, 344196, Note_on_c, 1, 78, 127
1, 344400, Note_off_c, 1, 51, 0
1, 344400, Note_off_c, 1, 47, 0
1, 344400, Note_off_c, 1, 78, 0
1, 344402, Note_on_c, 1, 76, 127
1, 344402, Note_on_c, 1, 43, 127
1, 344402, Note_on_c, 1, 52, 127
1, 344606, Note_off_c, 1, 76, 0
1, 344610, Note_on_c, 1, 74, 127
1, 344814, Note_off_c, 1, 43, 0
1, 344814, Note_off_c, 1, 74, 0
1, 344817, Note_on_c, 1, 72, 127
1, 344817, Note_on_c, 1, 40, 127
1, 345021, Note_off_c, 1, 72, 0
1, 345025, Note_on_c, 1, 71, 127
1, 345229, Note_off_c, 1, 40, 0
1, 345229, Note_off_c, 1, 71, 0
1, 345231, Note_on_c, 1, 69, 127
1, 345231, Note_on_c, 1, 48, 127
1, 345435, Note_off_c, 1, 69, 0
1, 345439, Note_on_c, 1, 66, 127
1, 345643, Note_off_c, 1, 48, 0
1, 345643, Note_off_c, 1, 66, 0
1, 345646, Note_on_c, 1, 67, 127
1, 345646, Note_on_c, 1, 47, 127
1, 345850, Note_off_c, 1, 67, 0
1, 346057, Note_off_c, 1, 52, 0
1, 346058, Note_off_c, 1, 47, 0
1, 346061, Note_on_c, 1, 72, 127
1, 346061, Note_on_c, 1, 52, 127
1, 346061, Note_on_c, 1, 54, 127
1, 346265, Note_off_c, 1, 72, 0
1, 346268, Note_on_c, 1, 69, 127
1, 346472, Note_off_c, 1, 69, 0
1, 346473, Note_off_c, 1, 52, 0
1, 346476, Note_on_c, 1, 51, 127
1, 346476, Note_on_c, 1, 71, 127
1, 346684, Note_on_c, 1, 75, 127
1, 346884, Note_off_c, 1, 54, 0
1, 346890, Note_off_c, 1, 75, 0
1, 346891, Note_off_c, 1, 51, 0
1, 346893, Note_on_c, 1, 45, 127
1, 346893, Note_on_c, 1, 76, 127
1, 347083, Note_off_c, 1, 71, 0
1, 347101, Note_on_c, 1, 73, 127
1, 347305, Note_off_c, 1, 45, 0
1, 347305, Note_off_c, 1, 73, 0
1, 347308, Note_on_c, 1, 44, 127
1, 347714, Note_off_c, 1, 76, 0
1, 347722, Note_off_c, 1, 44, 0
1, 347724, Note_on_c, 1, 53, 127
1, 347724, Note_on_c, 1, 68, 127
1, 347724, Note_on_c, 1, 74, 127
1, 347933, Note_on_c, 1, 59, 127
1, 348136, Note_off_c, 1, 53, 0
1, 348137, Note_off_c, 1, 59, 0
1, 348141, Note_on_c, 1, 61, 127
1, 348141, Note_on_c, 1, 52, 127
1, 348345, Note_off_c, 1, 61, 0
1, 348348, Note_on_c, 1, 62, 127
1, 348551, Note_off_c, 1, 52, 0
1, 348552, Note_off_c, 1, 68, 0
1, 348552, Note_off_c, 1, 74, 0
1, 348552, Note_off_c, 1, 62, 0
1, 348555, Note_on_c, 1, 47, 127
1, 348555, Note_on_c, 1, 64, 127
1, 348555, Note_on_c, 1, 73, 127
1, 348764, Note_on_c, 1, 67, 127
1, 348968, Note_off_c, 1, 67, 0
1, 348969, Note_off_c, 1, 47, 0
1, 348972, Note_on_c, 1, 46, 127
1, 348972, Note_on_c, 1, 66, 127
1, 349161, Note_off_c, 1, 64, 0
1, 349378, Note_off_c, 1, 73, 0
1, 349384, Note_off_c, 1, 46, 0
1, 349387, Note_on_c, 1, 62, 127
1, 349387, Note_on_c, 1, 55, 127
1, 349387, Note_on_c, 1, 71, 127
1, 349578, Note_off_c, 1, 66, 0
1, 349591, Note_off_c, 1, 62, 0
1, 349595, Note_on_c, 1, 61, 127
1, 349797, Note_off_c, 1, 55, 0
1, 349799, Note_off_c, 1, 61, 0
1, 349802, Note_on_c, 1, 59, 127
1, 349802, Note_on_c, 1, 54, 127
1, 350006, Note_off_c, 1, 59, 0
1, 350010, Note_on_c, 1, 57, 127
1, 350212, Note_off_c, 1, 54, 0
1, 350214, Note_off_c, 1, 57, 0
1, 350217, Note_on_c, 1, 53, 127
1, 350217, Note_on_c, 1, 56, 127
1, 350424, Note_off_c, 1, 71, 0
1, 350426, Note_on_c, 1, 70, 127
1, 350630, Note_off_c, 1, 70, 0
1, 350631, Note_off_c, 1, 53, 0
1, 350631, Note_off_c, 1, 56, 0
1, 351050, Note_on_c, 1, 50, 127
1, 351460, Note_off_c, 1, 50, 0
1, 351878, Note_on_c, 1, 52, 127
1, 351878, Note_on_c, 1, 49, 127
1, 352301, Note_on_c, 1, 74, 127
1, 352509, Note_off_c, 1, 74, 0
1, 352512, Note_on_c, 1, 76, 127
1, 352720, Note_off_c, 1, 76, 0
1, 352723, Note_on_c, 1, 78, 127
1, 352931, Note_off_c, 1, 78, 0
1, 352934, Note_on_c, 1, 79, 127
1, 353142, Note_off_c, 1, 79, 0
1, 353563, Note_off_c, 1, 52, 0
1, 353563, Note_off_c, 1, 49, 0
1, 353566, Note_on_c, 1, 71, 127
1, 353566, Note_on_c, 1, 54, 127
1, 353566, Note_on_c, 1, 50, 127
1, 353566, Note_on_c, 1, 59, 127
1, 353774, Note_off_c, 1, 71, 0
1, 353777, Note_on_c, 1, 74, 127
1, 353985, Note_off_c, 1, 74, 0
1, 353987, Note_on_c, 1, 76, 127
1, 354195, Note_off_c, 1, 76, 0
1, 354198, Note_on_c, 1, 78, 127
1, 354406, Note_off_c, 1, 78, 0
1, 354409, Note_on_c, 1, 79, 127
1, 354617, Note_off_c, 1, 79, 0
1, 354618, Note_off_c, 1, 54, 0
1, 354618, Note_off_c, 1, 50, 0
1, 354618, Note_off_c, 1, 59, 0
1, 354620, Note_on_c, 1, 81, 127
1, 354828, Note_off_c, 1, 81, 0
1, 354830, Note_on_c, 1, 72, 127
1, 354830, Note_on_c, 1, 66, 127
1, 354830, Note_on_c, 1, 51, 127
1, 354830, Note_on_c, 1, 57, 127
1, 355038, Note_off_c, 1, 72, 0
1, 355040, Note_on_c, 1, 71, 127
1, 355248, Note_off_c, 1, 66, 0
1, 355248, Note_off_c, 1, 51, 0
1, 355248, Note_off_c, 1, 57, 0
1, 355248, Note_off_c, 1, 71, 0
1, 355251, Note_on_c, 1, 72, 127
1, 355251, Note_on_c, 1, 55, 127
1, 355251, Note_on_c, 1, 52, 127
1, 355251, Note_on_c, 1, 64, 127
1, 355459, Note_off_c, 1, 72, 0
1, 355462, Note_on_c, 1, 76, 127
1, 355670, Note_off_c, 1, 76, 0
1, 355672, Note_on_c, 1, 78, 127
1, 355880, Note_off_c, 1, 78, 0
1, 355883, Note_on_c, 1, 79, 127
1, 356091, Note_off_c, 1, 79, 0
1, 356094, Note_on_c, 1, 82, 127
1, 356302, Note_off_c, 1, 82, 0
1, 356303, Note_off_c, 1, 55, 0
1, 356303, Note_off_c, 1, 52, 0
1, 356303, Note_off_c, 1, 64, 0
1, 356305, Note_on_c, 1, 83, 127
1, 356513, Note_off_c, 1, 83, 0
1, 356515, Note_on_c, 1, 74, 127
1, 356515, Note_on_c, 1, 59, 127
1, 356515, Note_on_c, 1, 53, 127
1, 356723, Note_off_c, 1, 74, 0
1, 356726, Note_on_c, 1, 73, 127
1, 356933, Note_off_c, 1, 59, 0
1, 356933, Note_off_c, 1, 53, 0
1, 356934, Note_off_c, 1, 73, 0
1, 356937, Note_on_c, 1, 54, 127
1, 356937, Note_on_c, 1, 58, 127
1, 356937, Note_on_c, 1, 74, 127
1, 357150, Note_off_c, 1, 54, 0
1, 357150, Note_off_c, 1, 58, 0
1, 357368, Note_on_c, 1, 56, 127
1, 357368, Note_on_c, 1, 66, 127
1, 357581, Note_off_c, 1, 56, 0
1, 357797, Note_off_c, 1, 66, 0
1, 357800, Note_on_c, 1, 59, 127
1, 357800, Note_on_c, 1, 62, 127
1, 358013, Note_off_c, 1, 59, 0
1, 358016, Note_on_c, 1, 61, 127
1, 358229, Note_off_c, 1, 62, 0
1, 358229, Note_off_c, 1, 61, 0
1, 358658, Note_off_c, 1, 74, 0
1, 358660, Note_on_c, 1, 67, 127
1, 358660, Note_on_c, 1, 73, 127
1, 359089, Note_off_c, 1, 67, 0
1, 359524, Note_on_c, 1, 71, 127
1, 359953, Note_off_c, 1, 71, 0
1, 359956, Note_on_c, 1, 64, 127
1, 359956, Note_on_c, 1, 70, 127
1, 360169, Note_off_c, 1, 64, 0
1, 360356, Note_off_c, 1, 73, 0
1, 360385, Note_off_c, 1, 70, 0
1, 360610, Note_on_c, 1, 46, 127
1, 360830, Note_off_c, 1, 46, 0
1, 360831, Note_on_c, 1, 47, 127
1, 360831, Note_on_c, 1, 63, 127
1, 361051, Note_off_c, 1, 47, 0
1, 361054, Note_on_c, 1, 49, 127
1, 361274, Note_off_c, 1, 63, 0
1, 361274, Note_off_c, 1, 49, 0
1, 361276, Note_on_c, 1, 51, 127
1, 361276, Note_on_c, 1, 72, 127
1, 361510, Note_off_c, 1, 51, 0
1, 361510, Note_off_c, 1, 72, 0
1, 361513, Note_on_c, 1, 52, 127
1, 361513, Note_on_c, 1, 70, 127
1, 361747, Note_off_c, 1, 52, 0
1, 361747, Note_off_c, 1, 70, 0
1, 361748, Note_on_c, 1, 42, 127
1, 361748, Note_on_c, 1, 68, 127
1, 361748, Note_on_c, 1, 62, 127
1, 361748, Note_on_c, 1, 71, 127
1, 361982, Note_off_c, 1, 42, 0
1, 361985, Note_on_c, 1, 41, 127
1, 362217, Note_off_c, 1, 68, 0
1, 362217, Note_off_c, 1, 62, 0
1, 362219, Note_off_c, 1, 41, 0
1, 362221, Note_on_c, 1, 66, 127
1, 362221, Note_on_c, 1, 61, 127
1, 362467, Note_on_c, 1, 47, 127
1, 362708, Note_off_c, 1, 47, 0
1, 362709, Note_off_c, 1, 66, 0
1, 362713, Note_on_c, 1, 49, 127
1, 362713, Note_on_c, 1, 65, 127
1, 362954, Note_off_c, 1, 49, 0
1, 362959, Note_on_c, 1, 50, 127
1, 363200, Note_off_c, 1, 71, 0
1, 363200, Note_off_c, 1, 50, 0
1, 363201, Note_off_c, 1, 65, 0
1, 363205, Note_on_c, 1, 52, 127
1, 363205, Note_on_c, 1, 70, 127
1, 363457, Note_off_c, 1, 52, 0
1, 363749, Note_on_c, 1, 54, 127
1, 364057, Note_on_c, 1, 64, 127
1, 364320, Note_off_c, 1, 70, 0
1, 364330, Note_off_c, 1, 61, 0
1, 364361, Note_off_c, 1, 64, 0
1, 364365, Note_on_c, 1, 63, 127
1, 364365, Note_on_c, 1, 59, 127
1, 368384, Note_off_c, 1, 54, 0
1, 368384, Note_off_c, 1, 63, 0
1, 368384, Note_off_c, 1, 59, 0
1, 368384, End_track
0, 0, End_of_file