0, 0, Header, 1, 1, 480
1, 0, Start_track
1, 0, Title_t, "Test"
1, 0, Tempo, 500000
1, 0, Instrument_name_t, "Church Organ"
1, 0, Note_on_c, 1, 50, 127
1, 120, Note_on_c, 1, 53, 127
1, 216, Note_off_c, 1, 53, 0
1, 240, Note_on_c, 1, 57, 127
1, 360, Note_on_c, 1, 62, 127
1, 480, Note_on_c, 1, 65, 127
1, 600, Note_on_c, 1, 69, 127
1, 648, Note_off_c, 1, 57, 0
1, 648, Note_off_c, 1, 62, 0
1, 672, Note_off_c, 1, 65, 0
1, 696, Note_off_c, 1, 69, 0
1, 720, Note_on_c, 1, 61, 127
1, 720, Note_on_c, 1, 55, 127
1, 720, Note_on_c, 1, 52, 127
1, 840, Note_on_c, 1, 67, 127
1, 960, Note_on_c, 1, 70, 127
1, 1008, Note_off_c, 1, 61, 0
1, 1008, Note_off_c, 1, 55, 0
1, 1008, Note_off_c, 1, 52, 0
1, 1032, Note_off_c, 1, 67, 0
1, 1056, Note_off_c, 1, 70, 0
1, 1680, Note_on_c, 1, 74, 127
1, 1800, Note_on_c, 1, 64, 127
1, 1800, Note_on_c, 1, 58, 127
1, 1896, Note_off_c, 1, 74, 0
1, 1920, Note_on_c, 1, 76, 127
1, 2016, Note_off_c, 1, 76, 0
1, 2040, Note_on_c, 1, 73, 127
1, 2088, Note_off_c, 1, 64, 0
1, 2088, Note_off_c, 1, 58, 0
1, 2136, Note_off_c, 1, 73, 0
1, 2400, Note_on_c, 1, 72, 127
1, 2520, Note_on_c, 1, 66, 127
1, 2880, Note_on_c, 1, 60, 127
1, 2976, Note_off_c, 1, 60, 0
1, 3432, Note_off_c, 1, 72, 0
1, 3432, Note_off_c, 1, 66, 0
1, 5328, Note_off_c, 1, 50, 0
1, 5400, Note_on_c, 1, 65, 127
1, 5400, Note_on_c, 1, 62, 127
1, 5400, Note_on_c, 1, 57, 127
1, 5400, Note_on_c, 1, 50, 127
1, 5496, Note_off_c, 1, 65, 0
1, 5520, Note_on_c, 1, 64, 127
1, 5616, Note_off_c, 1, 64, 0
1, 5688, Note_off_c, 1, 57, 0
1, 5736, Note_off_c, 1, 62, 0
1, 5760, Note_on_c, 1, 77, 127
1, 5784, Note_off_c, 1, 77, 0
1, 5790, Note_on_c, 1, 76, 127
1, 5808, Note_off_c, 1, 50, 0
1, 5814, Note_off_c, 1, 76, 0
1, 5820, Note_on_c, 1, 77, 127
1, 5820, Note_on_c, 1, 52, 127
1, 5868, Note_off_c, 1, 52, 0
1, 5880, Note_on_c, 1, 53, 127
1, 5928, Note_off_c, 1, 53, 0
1, 5940, Note_on_c, 1, 55, 127
1, 5988, Note_off_c, 1, 55, 0
1, 6000, Note_on_c, 1, 57, 127
1, 6072, Note_off_c, 1, 77, 0
1, 6096, Note_off_c, 1, 57, 0
1, 6120, Note_on_c, 1, 77, 127
1, 6120, Note_on_c, 1, 48, 127
1, 6216, Note_off_c, 1, 48, 0
1, 6240, Note_on_c, 1, 52, 127
1, 6336, Note_off_c, 1, 52, 0
1, 6360, Note_on_c, 1, 57, 127
1, 6408, Note_off_c, 1, 77, 0
1, 6456, Note_off_c, 1, 57, 0
1, 6480, Note_on_c, 1, 79, 127
1, 6480, Note_on_c, 1, 47, 127
1, 6504, Note_off_c, 1, 79, 0
1, 6510, Note_on_c, 1, 77, 127
1, 6534, Note_off_c, 1, 77, 0
1, 6576, Note_off_c, 1, 47, 0
1, 6600, Note_on_c, 1, 79, 127
1, 6600, Note_on_c, 1, 50, 127
1, 6624, Note_off_c, 1, 79, 0
1, 6630, Note_on_c, 1, 77, 127
1, 6654, Note_off_c, 1, 77, 0
1, 6696, Note_off_c, 1, 50, 0
1, 6720, Note_on_c, 1, 79, 127
1, 6720, Note_on_c, 1, 53, 127
1, 6744, Note_off_c, 1, 79, 0
1, 6750, Note_on_c, 1, 77, 127
1, 6774, Note_off_c, 1, 77, 0
1, 6816, Note_off_c, 1, 53, 0
1, 6840, Note_on_c, 1, 79, 127
1, 6840, Note_on_c, 1, 57, 127
1, 6864, Note_off_c, 1, 79, 0
1, 6870, Note_on_c, 1, 77, 127
1, 6894, Note_off_c, 1, 77, 0
1, 6936, Note_off_c, 1, 57, 0
1, 6960, Note_on_c, 1, 79, 127
1, 6960, Note_on_c, 1, 59, 127
1, 6984, Note_off_c, 1, 79, 0
1, 6990, Note_on_c, 1, 77, 127
1, 7014, Note_off_c, 1, 77, 0
1, 7056, Note_off_c, 1, 59, 0
1, 7080, Note_on_c, 1, 79, 127
1, 7080, Note_on_c, 1, 60, 127
1, 7104, Note_off_c, 1, 79, 0
1, 7110, Note_on_c, 1, 77, 127
1, 7134, Note_off_c, 1, 77, 0
1, 7176, Note_off_c, 1, 60, 0
1, 7200, Note_on_c, 1, 79, 127
1, 7200, Note_on_c, 1, 59, 127
1, 7224, Note_off_c, 1, 79, 0
1, 7230, Note_on_c, 1, 77, 127
1, 7254, Note_off_c, 1, 77, 0
1, 7296, Note_off_c, 1, 59, 0
1, 7320, Note_on_c, 1, 79, 127
1, 7320, Note_on_c, 1, 56, 127
1, 7344, Note_off_c, 1, 79, 0
1, 7350, Note_on_c, 1, 77, 127
1, 7374, Note_off_c, 1, 77, 0
1, 7416, Note_off_c, 1, 56, 0
1, 7440, Note_on_c, 1, 79, 127
1, 7440, Note_on_c, 1, 57, 127
1, 7464, Note_off_c, 1, 79, 0
1, 7470, Note_on_c, 1, 77, 127
1, 7494, Note_off_c, 1, 77, 0
1, 7536, Note_off_c, 1, 57, 0
1, 7560, Note_on_c, 1, 79, 127
1, 7560, Note_on_c, 1, 56, 127
1, 7584, Note_off_c, 1, 79, 0
1, 7590, Note_on_c, 1, 77, 127
1, 7614, Note_off_c, 1, 77, 0
1, 7680, Note_on_c, 1, 59, 127
1, 7776, Note_off_c, 1, 59, 0
1, 7800, Note_on_c, 1, 62, 127
1, 7896, Note_off_c, 1, 62, 0
1, 7920, Note_on_c, 1, 65, 127
1, 8016, Note_off_c, 1, 65, 0
1, 8040, Note_on_c, 1, 64, 127
1, 8136, Note_off_c, 1, 64, 0
1, 8280, Note_on_c, 1, 60, 127
1, 8376, Note_off_c, 1, 60, 0
1, 8568, Note_off_c, 1, 56, 0
1, 8640, Note_on_c, 1, 57, 127
1, 8760, Note_on_c, 1, 76, 127
1, 8856, Note_off_c, 1, 76, 0
1, 8880, Note_on_c, 1, 74, 127
1, 8976, Note_off_c, 1, 74, 0
1, 9120, Note_on_c, 1, 81, 127
1, 9216, Note_off_c, 1, 81, 0
1, 9240, Note_on_c, 1, 80, 127
1, 9336, Note_off_c, 1, 80, 0
1, 9480, Note_on_c, 1, 83, 127
1, 9576, Note_off_c, 1, 83, 0
1, 9600, Note_on_c, 1, 84, 127
1, 9696, Note_off_c, 1, 84, 0
1, 10008, Note_off_c, 1, 57, 0
1, 10440, Note_on_c, 1, 72, 127
1, 10440, Note_on_c, 1, 56, 127
1, 10440, Note_on_c, 1, 52, 127
1, 10536, Note_off_c, 1, 72, 0
1, 10560, Note_on_c, 1, 74, 127
1, 10656, Note_off_c, 1, 74, 0
1, 10680, Note_on_c, 1, 71, 127
1, 10728, Note_off_c, 1, 56, 0
1, 10728, Note_off_c, 1, 52, 0
1, 10776, Note_off_c, 1, 71, 0
1, 10800, Note_on_c, 1, 72, 127
1, 10800, Note_on_c, 1, 57, 127
1, 10920, Note_on_c, 1, 69, 127
1, 11016, Note_off_c, 1, 69, 0
1, 11040, Note_on_c, 1, 64, 127
1, 11136, Note_off_c, 1, 64, 0
1, 11160, Note_on_c, 1, 60, 127
1, 11256, Note_off_c, 1, 60, 0
1, 11376, Note_off_c, 1, 57, 0
1, 11520, Note_on_c, 1, 55, 127
1, 11616, Note_off_c, 1, 55, 0
1, 11640, Note_on_c, 1, 53, 127
1, 11736, Note_off_c, 1, 53, 0
1, 11760, Note_on_c, 1, 52, 127
1, 11856, Note_off_c, 1, 52, 0
1, 12336, Note_off_c, 1, 72, 0
1, 12360, Note_on_c, 1, 71, 127
1, 12360, Note_on_c, 1, 62, 127
1, 12456, Note_off_c, 1, 71, 0
1, 12456, Note_off_c, 1, 62, 0
1, 12600, Note_on_c, 1, 74, 127
1, 12600, Note_on_c, 1, 59, 127
1, 12696, Note_off_c, 1, 74, 0
1, 12696, Note_off_c, 1, 59, 0
1, 12720, Note_on_c, 1, 76, 127
1, 12816, Note_off_c, 1, 76, 0
1, 12840, Note_on_c, 1, 77, 127
1, 12936, Note_off_c, 1, 77, 0
1, 12960, Note_on_c, 1, 68, 127
1, 13056, Note_off_c, 1, 68, 0
1, 13320, Note_on_c, 1, 65, 127
1, 13416, Note_off_c, 1, 65, 0
1, 15480, Note_on_c, 1, 60, 127
1, 15576, Note_off_c, 1, 60, 0
1, 15600, Note_on_c, 1, 57, 127
1, 15696, Note_off_c, 1, 57, 0
1, 15720, Note_on_c, 1, 60, 127
1, 15816, Note_off_c, 1, 60, 0
1, 15840, Note_on_c, 1, 64, 127
1, 15936, Note_off_c, 1, 64, 0
1, 15960, Note_on_c, 1, 69, 127
1, 16056, Note_off_c, 1, 69, 0
1, 16080, Note_on_c, 1, 72, 127
1, 16176, Note_off_c, 1, 72, 0
1, 16200, Note_on_c, 1, 76, 127
1, 16296, Note_off_c, 1, 76, 0
1, 16320, Note_on_c, 1, 69, 127
1, 16416, Note_off_c, 1, 69, 0
1, 16440, Note_on_c, 1, 72, 127
1, 16536, Note_off_c, 1, 72, 0
1, 16560, Note_on_c, 1, 76, 127
1, 16656, Note_off_c, 1, 76, 0
1, 16680, Note_on_c, 1, 81, 127
1, 16776, Note_off_c, 1, 81, 0
1, 16800, Note_on_c, 1, 76, 127
1, 16896, Note_off_c, 1, 76, 0
1, 16920, Note_on_c, 1, 72, 127
1, 17016, Note_off_c, 1, 72, 0
1, 17040, Note_on_c, 1, 76, 127
1, 17136, Note_off_c, 1, 76, 0
1, 17160, Note_on_c, 1, 72, 127
1, 17256, Note_off_c, 1, 72, 0
1, 17280, Note_on_c, 1, 69, 127
1, 17376, Note_off_c, 1, 69, 0
1, 17400, Note_on_c, 1, 72, 127
1, 17448, Note_off_c, 1, 72, 0
1, 17460, Note_on_c, 1, 71, 127
1, 17508, Note_off_c, 1, 71, 0
1, 17520, Note_on_c, 1, 69, 127
1, 17568, Note_off_c, 1, 69, 0
1, 17580, Note_on_c, 1, 68, 127
1, 17628, Note_off_c, 1, 68, 0
1, 17640, Note_on_c, 1, 69, 127
1, 17736, Note_off_c, 1, 69, 0
1, 17760, Note_on_c, 1, 72, 127
1, 17856, Note_off_c, 1, 72, 0
1, 17880, Note_on_c, 1, 69, 127
1, 17976, Note_off_c, 1, 69, 0
1, 18000, Note_on_c, 1, 64, 127
1, 18096, Note_off_c, 1, 64, 0
1, 18120, Note_on_c, 1, 69, 127
1, 18216, Note_off_c, 1, 69, 0
1, 18240, Note_on_c, 1, 64, 127
1, 18336, Note_off_c, 1, 64, 0
1, 18360, Note_on_c, 1, 60, 127
1, 18456, Note_off_c, 1, 60, 0
1, 18480, Note_on_c, 1, 64, 127
1, 18576, Note_off_c, 1, 64, 0
1, 18600, Note_on_c, 1, 60, 127
1, 18696, Note_off_c, 1, 60, 0
1, 18720, Note_on_c, 1, 57, 127
1, 18816, Note_off_c, 1, 57, 0
1, 18840, Note_on_c, 1, 60, 127
1, 18888, Note_off_c, 1, 60, 0
1, 18900, Note_on_c, 1, 59, 127
1, 18948, Note_off_c, 1, 59, 0
1, 18960, Note_on_c, 1, 57, 127
1, 19008, Note_off_c, 1, 57, 0
1, 19020, Note_on_c, 1, 56, 127
1, 19068, Note_off_c, 1, 56, 0
1, 19080, Note_on_c, 1, 57, 127
1, 19176, Note_off_c, 1, 57, 0
1, 19200, Note_on_c, 1, 52, 127
1, 19296, Note_off_c, 1, 52, 0
1, 19320, Note_on_c, 1, 48, 127
1, 19416, Note_off_c, 1, 48, 0
1, 19440, Note_on_c, 1, 45, 127
1, 19560, Note_on_c, 1, 48, 127
1, 19680, Note_on_c, 1, 52, 127
1, 19800, Note_on_c, 1, 57, 127
1, 19920, Note_on_c, 1, 60, 127
1, 20040, Note_on_c, 1, 64, 127
1, 20088, Note_off_c, 1, 48, 0
1, 20088, Note_off_c, 1, 52, 0
1, 20088, Note_off_c, 1, 57, 0
1, 20112, Note_off_c, 1, 60, 0
1, 20136, Note_off_c, 1, 64, 0
1, 20160, Note_on_c, 1, 56, 127
1, 20160, Note_on_c, 1, 50, 127
1, 20160, Note_on_c, 1, 47, 127
1, 20280, Note_on_c, 1, 62, 127
1, 20400, Note_on_c, 1, 65, 127
1, 20448, Note_off_c, 1, 56, 0
1, 20448, Note_off_c, 1, 50, 0
1, 20448, Note_off_c, 1, 47, 0
1, 20472, Note_off_c, 1, 62, 0
1, 20496, Note_off_c, 1, 65, 0
1, 21120, Note_on_c, 1, 69, 127
1, 21240, Note_on_c, 1, 59, 127
1, 21240, Note_on_c, 1, 53, 127
1, 21336, Note_off_c, 1, 69, 0
1, 21360, Note_on_c, 1, 71, 127
1, 21456, Note_off_c, 1, 71, 0
1, 21480, Note_on_c, 1, 68, 127
1, 21528, Note_off_c, 1, 59, 0
1, 21528, Note_off_c, 1, 53, 0
1, 21576, Note_off_c, 1, 68, 0
1, 21840, Note_on_c, 1, 67, 127
1, 21960, Note_on_c, 1, 61, 127
1, 22248, Note_off_c, 1, 61, 0
1, 22320, Note_on_c, 1, 55, 127
1, 22416, Note_off_c, 1, 55, 0
1, 22872, Note_off_c, 1, 67, 0
1, 23760, Note_on_c, 1, 58, 127
1, 23952, Note_off_c, 1, 58, 0
1, 24768, Note_off_c, 1, 45, 0
1, 24840, Note_on_c, 1, 62, 127
1, 24840, Note_on_c, 1, 52, 127
1, 24840, Note_on_c, 1, 57, 127
1, 24840, Note_on_c, 1, 45, 127
1, 24864, Note_off_c, 1, 62, 0
1, 24870, Note_on_c, 1, 60, 127
1, 24894, Note_off_c, 1, 60, 0
1, 24960, Note_on_c, 1, 59, 127
1, 25056, Note_off_c, 1, 59, 0
1, 25128, Note_off_c, 1, 52, 0
1, 25128, Note_off_c, 1, 45, 0
1, 25176, Note_off_c, 1, 57, 0
1, 25200, Note_on_c, 1, 72, 127
1, 25224, Note_off_c, 1, 72, 0
1, 25230, Note_on_c, 1, 71, 127
1, 25254, Note_off_c, 1, 71, 0
1, 25260, Note_on_c, 1, 72, 127
1, 25320, Note_on_c, 1, 45, 127
1, 25368, Note_off_c, 1, 45, 0
1, 25380, Note_on_c, 1, 46, 127
1, 25428, Note_off_c, 1, 46, 0
1, 25440, Note_on_c, 1, 48, 127
1, 25488, Note_off_c, 1, 48, 0
1, 25500, Note_on_c, 1, 50, 127
1, 25512, Note_off_c, 1, 72, 0
1, 25548, Note_off_c, 1, 50, 0
1, 25560, Note_on_c, 1, 72, 127
1, 25560, Note_on_c, 1, 51, 127
1, 25656, Note_off_c, 1, 51, 0
1, 25680, Note_on_c, 1, 48, 127
1, 25776, Note_off_c, 1, 48, 0
1, 25800, Note_on_c, 1, 45, 127
1, 25848, Note_off_c, 1, 72, 0
1, 25896, Note_off_c, 1, 45, 0
1, 25920, Note_on_c, 1, 74, 127
1, 25920, Note_on_c, 1, 42, 127
1, 25944, Note_off_c, 1, 74, 0
1, 25950, Note_on_c, 1, 72, 127
1, 25974, Note_off_c, 1, 72, 0
1, 26016, Note_off_c, 1, 42, 0
1, 26040, Note_on_c, 1, 74, 127
1, 26040, Note_on_c, 1, 45, 127
1, 26064, Note_off_c, 1, 74, 0
1, 26070, Note_on_c, 1, 72, 127
1, 26094, Note_off_c, 1, 72, 0
1, 26136, Note_off_c, 1, 45, 0
1, 26160, Note_on_c, 1, 74, 127
1, 26160, Note_on_c, 1, 50, 127
1, 26184, Note_off_c, 1, 74, 0
1, 26190, Note_on_c, 1, 72, 127
1, 26214, Note_off_c, 1, 72, 0
1, 26256, Note_off_c, 1, 50, 0
1, 26280, Note_on_c, 1, 74, 127
1, 26280, Note_on_c, 1, 54, 127
1, 26304, Note_off_c, 1, 74, 0
1, 26310, Note_on_c, 1, 72, 127
1, 26334, Note_off_c, 1, 72, 0
1, 26376, Note_off_c, 1, 54, 0
1, 26400, Note_on_c, 1, 74, 127
1, 26400, Note_on_c, 1, 57, 127
1, 26424, Note_off_c, 1, 74, 0
1, 26430, Note_on_c, 1, 72, 127
1, 26454, Note_off_c, 1, 72, 0
1, 26496, Note_off_c, 1, 57, 0
1, 26520, Note_on_c, 1, 74, 127
1, 26520, Note_on_c, 1, 60, 127
1, 26544, Note_off_c, 1, 74, 0
1, 26550, Note_on_c, 1, 72, 127
1, 26574, Note_off_c, 1, 72, 0
1, 26616, Note_off_c, 1, 60, 0
1, 26640, Note_on_c, 1, 74, 127
1, 26640, Note_on_c, 1, 63, 127
1, 26664, Note_off_c, 1, 74, 0
1, 26670, Note_on_c, 1, 72, 127
1, 26694, Note_off_c, 1, 72, 0
1, 26736, Note_off_c, 1, 63, 0
1, 26760, Note_on_c, 1, 74, 127
1, 26760, Note_on_c, 1, 62, 127
1, 26784, Note_off_c, 1, 74, 0
1, 26790, Note_on_c, 1, 72, 127
1, 26814, Note_off_c, 1, 72, 0
1, 26856, Note_off_c, 1, 62, 0
1, 26880, Note_on_c, 1, 74, 127
1, 26880, Note_on_c, 1, 60, 127
1, 26904, Note_off_c, 1, 74, 0
1, 26910, Note_on_c, 1, 72, 127
1, 26934, Note_off_c, 1, 72, 0
1, 26976, Note_off_c, 1, 60, 0
1, 27000, Note_on_c, 1, 58, 127
1, 27120, Note_on_c, 1, 62, 127
1, 27216, Note_off_c, 1, 62, 0
1, 27240, Note_on_c, 1, 66, 127
1, 27336, Note_off_c, 1, 66, 0
1, 27360, Note_on_c, 1, 69, 127
1, 27456, Note_off_c, 1, 58, 0
1, 27480, Note_on_c, 1, 57, 127
1, 27576, Note_off_c, 1, 57, 0
1, 27600, Note_on_c, 1, 75, 127
1, 27600, Note_on_c, 1, 55, 127
1, 27648, Note_off_c, 1, 69, 0
1, 27696, Note_off_c, 1, 75, 0
1, 27696, Note_off_c, 1, 55, 0
1, 27720, Note_on_c, 1, 78, 127
1, 27720, Note_on_c, 1, 57, 127
1, 27816, Note_off_c, 1, 78, 0
1, 27816, Note_off_c, 1, 57, 0
1, 27840, Note_on_c, 1, 81, 127
1, 27840, Note_on_c, 1, 55, 127
1, 27936, Note_off_c, 1, 81, 0
1, 27936, Note_off_c, 1, 55, 0
1, 27960, Note_on_c, 1, 72, 127
1, 27960, Note_on_c, 1, 54, 127
1, 28056, Note_off_c, 1, 72, 0
1, 28056, Note_off_c, 1, 54, 0
1, 28080, Note_on_c, 1, 70, 127
1, 28080, Note_on_c, 1, 55, 127
1, 28176, Note_off_c, 1, 70, 0
1, 28200, Note_on_c, 1, 69, 127
1, 28296, Note_off_c, 1, 69, 0
1, 28320, Note_on_c, 1, 67, 127
1, 28416, Note_off_c, 1, 67, 0
1, 28440, Note_on_c, 1, 82, 127
1, 28464, Note_off_c, 1, 82, 0
1, 28470, Note_on_c, 1, 81, 127
1, 28488, Note_off_c, 1, 55, 0
1, 28494, Note_off_c, 1, 81, 0
1, 28500, Note_on_c, 1, 82, 127
1, 28500, Note_on_c, 1, 55, 127
1, 28548, Note_off_c, 1, 55, 0
1, 28560, Note_on_c, 1, 57, 127
1, 28608, Note_off_c, 1, 57, 0
1, 28620, Note_on_c, 1, 58, 127
1, 28668, Note_off_c, 1, 58, 0
1, 28680, Note_on_c, 1, 60, 127
1, 28728, Note_off_c, 1, 60, 0
1, 28740, Note_on_c, 1, 62, 127
1, 28752, Note_off_c, 1, 82, 0
1, 28788, Note_off_c, 1, 62, 0
1, 28800, Note_on_c, 1, 64, 127
1, 28800, Note_on_c, 1, 82, 127
1, 28848, Note_off_c, 1, 64, 0
1, 28860, Note_on_c, 1, 65, 127
1, 28908, Note_off_c, 1, 65, 0
1, 28920, Note_on_c, 1, 67, 127
1, 28968, Note_off_c, 1, 67, 0
1, 29088, Note_off_c, 1, 82, 0
1, 29100, Note_on_c, 1, 67, 127
1, 29148, Note_off_c, 1, 67, 0
1, 29160, Note_on_c, 1, 84, 127
1, 29160, Note_on_c, 1, 61, 127
1, 29184, Note_off_c, 1, 84, 0
1, 29190, Note_on_c, 1, 82, 127
1, 29208, Note_off_c, 1, 61, 0
1, 29214, Note_off_c, 1, 82, 0
1, 29220, Note_on_c, 1, 84, 127
1, 29220, Note_on_c, 1, 62, 127
1, 29244, Note_off_c, 1, 84, 0
1, 29250, Note_on_c, 1, 82, 127
1, 29268, Note_off_c, 1, 62, 0
1, 29274, Note_off_c, 1, 82, 0
1, 29280, Note_on_c, 1, 84, 127
1, 29280, Note_on_c, 1, 64, 127
1, 29304, Note_off_c, 1, 84, 0
1, 29310, Note_on_c, 1, 82, 127
1, 29328, Note_off_c, 1, 64, 0
1, 29334, Note_off_c, 1, 82, 0
1, 29340, Note_on_c, 1, 84, 127
1, 29340, Note_on_c, 1, 61, 127
1, 29364, Note_off_c, 1, 84, 0
1, 29370, Note_on_c, 1, 82, 127
1, 29388, Note_off_c, 1, 61, 0
1, 29394, Note_off_c, 1, 82, 0
1, 29400, Note_on_c, 1, 84, 127
1, 29400, Note_on_c, 1, 62, 127
1, 29424, Note_off_c, 1, 84, 0
1, 29430, Note_on_c, 1, 82, 127
1, 29448, Note_off_c, 1, 62, 0
1, 29454, Note_off_c, 1, 82, 0
1, 29460, Note_on_c, 1, 84, 127
1, 29460, Note_on_c, 1, 64, 127
1, 29484, Note_off_c, 1, 84, 0
1, 29490, Note_on_c, 1, 82, 127
1, 29508, Note_off_c, 1, 64, 0
1, 29514, Note_off_c, 1, 82, 0
1, 29520, Note_on_c, 1, 84, 127
1, 29520, Note_on_c, 1, 55, 127
1, 29544, Note_off_c, 1, 84, 0
1, 29550, Note_on_c, 1, 82, 127
1, 29568, Note_off_c, 1, 55, 0
1, 29574, Note_off_c, 1, 82, 0
1, 29580, Note_on_c, 1, 84, 127
1, 29580, Note_on_c, 1, 57, 127
1, 29604, Note_off_c, 1, 84, 0
1, 29610, Note_on_c, 1, 82, 127
1, 29628, Note_off_c, 1, 57, 0
1, 29634, Note_off_c, 1, 82, 0
1, 29640, Note_on_c, 1, 84, 127
1, 29640, Note_on_c, 1, 58, 127
1, 29664, Note_off_c, 1, 84, 0
1, 29670, Note_on_c, 1, 82, 127
1, 29688, Note_off_c, 1, 58, 0
1, 29694, Note_off_c, 1, 82, 0
1, 29700, Note_on_c, 1, 84, 127
1, 29700, Note_on_c, 1, 55, 127
1, 29724, Note_off_c, 1, 84, 0
1, 29730, Note_on_c, 1, 82, 127
1, 29748, Note_off_c, 1, 55, 0
1, 29754, Note_off_c, 1, 82, 0
1, 29760, Note_on_c, 1, 84, 127
1, 29760, Note_on_c, 1, 57, 127
1, 29784, Note_off_c, 1, 84, 0
1, 29790, Note_on_c, 1, 82, 127
1, 29808, Note_off_c, 1, 57, 0
1, 29814, Note_off_c, 1, 82, 0
1, 29820, Note_on_c, 1, 84, 127
1, 29820, Note_on_c, 1, 58, 127
1, 29844, Note_off_c, 1, 84, 0
1, 29850, Note_on_c, 1, 82, 127
1, 29868, Note_off_c, 1, 58, 0
1, 29874, Note_off_c, 1, 82, 0
1, 29880, Note_on_c, 1, 84, 127
1, 29880, Note_on_c, 1, 52, 127
1, 29904, Note_off_c, 1, 84, 0
1, 29910, Note_on_c, 1, 82, 127
1, 29928, Note_off_c, 1, 52, 0
1, 29934, Note_off_c, 1, 82, 0
1, 29940, Note_on_c, 1, 84, 127
1, 29940, Note_on_c, 1, 53, 127
1, 29964, Note_off_c, 1, 84, 0
1, 29970, Note_on_c, 1, 82, 127
1, 29988, Note_off_c, 1, 53, 0
1, 29994, Note_off_c, 1, 82, 0
1, 30000, Note_on_c, 1, 84, 127
1, 30000, Note_on_c, 1, 55, 127
1, 30024, Note_off_c, 1, 84, 0
1, 30030, Note_on_c, 1, 82, 127
1, 30048, Note_off_c, 1, 55, 0
1, 30054, Note_off_c, 1, 82, 0
1, 30060, Note_on_c, 1, 84, 127
1, 30060, Note_on_c, 1, 52, 127
1, 30084, Note_off_c, 1, 84, 0
1, 30090, Note_on_c, 1, 82, 127
1, 30108, Note_off_c, 1, 52, 0
1, 30114, Note_off_c, 1, 82, 0
1, 30120, Note_on_c, 1, 84, 127
1, 30120, Note_on_c, 1, 53, 127
1, 30144, Note_off_c, 1, 84, 0
1, 30150, Note_on_c, 1, 82, 127
1, 30168, Note_off_c, 1, 53, 0
1, 30174, Note_off_c, 1, 82, 0
1, 30180, Note_on_c, 1, 84, 127
1, 30180, Note_on_c, 1, 55, 127
1, 30204, Note_off_c, 1, 84, 0
1, 30210, Note_on_c, 1, 82, 127
1, 30228, Note_off_c, 1, 55, 0
1, 30240, Note_on_c, 1, 45, 127
1, 30336, Note_off_c, 1, 82, 0
1, 30336, Note_off_c, 1, 45, 0
1, 30360, Note_on_c, 1, 81, 127
1, 30360, Note_on_c, 1, 47, 127
1, 30456, Note_off_c, 1, 81, 0
1, 30456, Note_off_c, 1, 47, 0
1, 30480, Note_on_c, 1, 79, 127
1, 30480, Note_on_c, 1, 49, 127
1, 30576, Note_off_c, 1, 79, 0
1, 30576, Note_off_c, 1, 49, 0
1, 30600, Note_on_c, 1, 77, 127
1, 30600, Note_on_c, 1, 50, 127
1, 30696, Note_off_c, 1, 77, 0
1, 30696, Note_off_c, 1, 50, 0
1, 30720, Note_on_c, 1, 76, 127
1, 30720, Note_on_c, 1, 52, 127
1, 30816, Note_off_c, 1, 76, 0
1, 30816, Note_off_c, 1, 52, 0
1, 30840, Note_on_c, 1, 74, 127
1, 30840, Note_on_c, 1, 53, 127
1, 30936, Note_off_c, 1, 74, 0
1, 30936, Note_off_c, 1, 53, 0
1, 30960, Note_on_c, 1, 73, 127
1, 30960, Note_on_c, 1, 55, 127
1, 31056, Note_off_c, 1, 73, 0
1, 31056, Note_off_c, 1, 55, 0
1, 31080, Note_on_c, 1, 81, 127
1, 31080, Note_on_c, 1, 57, 127
1, 31176, Note_off_c, 1, 81, 0
1, 31176, Note_off_c, 1, 57, 0
1, 31200, Note_on_c, 1, 79, 127
1, 31200, Note_on_c, 1, 45, 127
1, 31296, Note_off_c, 1, 79, 0
1, 31296, Note_off_c, 1, 45, 0
1, 31320, Note_on_c, 1, 77, 127
1, 31320, Note_on_c, 1, 50, 127
1, 31416, Note_off_c, 1, 77, 0
1, 31440, Note_on_c, 1, 76, 127
1, 31536, Note_off_c, 1, 76, 0
1, 31560, Note_on_c, 1, 74, 127
1, 31656, Note_off_c, 1, 74, 0
1, 31680, Note_on_c, 1, 72, 127
1, 31776, Note_off_c, 1, 50, 0
1, 31776, Note_off_c, 1, 72, 0
1, 31800, Note_on_c, 1, 70, 127
1, 31800, Note_on_c, 1, 62, 127
1, 31896, Note_off_c, 1, 70, 0
1, 31896, Note_off_c, 1, 62, 0
1, 31920, Note_on_c, 1, 69, 127
1, 31920, Note_on_c, 1, 60, 127
1, 32016, Note_off_c, 1, 69, 0
1, 32016, Note_off_c, 1, 60, 0
1, 32040, Note_on_c, 1, 67, 127
1, 32040, Note_on_c, 1, 58, 127
1, 32136, Note_off_c, 1, 67, 0
1, 32136, Note_off_c, 1, 58, 0
1, 32160, Note_on_c, 1, 79, 127
1, 32160, Note_on_c, 1, 57, 127
1, 32256, Note_off_c, 1, 79, 0
1, 32256, Note_off_c, 1, 57, 0
1, 32280, Note_on_c, 1, 77, 127
1, 32280, Note_on_c, 1, 58, 127
1, 32376, Note_off_c, 1, 77, 0
1, 32376, Note_off_c, 1, 58, 0
1, 32400, Note_on_c, 1, 76, 127
1, 32400, Note_on_c, 1, 48, 127
1, 32496, Note_off_c, 1, 76, 0
1, 32520, Note_on_c, 1, 74, 127
1, 32616, Note_off_c, 1, 74, 0
1, 32640, Note_on_c, 1, 72, 127
1, 32736, Note_off_c, 1, 72, 0
1, 32760, Note_on_c, 1, 70, 127
1, 32856, Note_off_c, 1, 48, 0
1, 32856, Note_off_c, 1, 70, 0
1, 32880, Note_on_c, 1, 69, 127
1, 32880, Note_on_c, 1, 60, 127
1, 32976, Note_off_c, 1, 69, 0
1, 32976, Note_off_c, 1, 60, 0
1, 33000, Note_on_c, 1, 67, 127
1, 33000, Note_on_c, 1, 58, 127
1, 33096, Note_off_c, 1, 67, 0
1, 33096, Note_off_c, 1, 58, 0
1, 33120, Note_on_c, 1, 65, 127
1, 33120, Note_on_c, 1, 57, 127
1, 33216, Note_off_c, 1, 65, 0
1, 33216, Note_off_c, 1, 57, 0
1, 33240, Note_on_c, 1, 77, 127
1, 33240, Note_on_c, 1, 55, 127
1, 33336, Note_off_c, 1, 77, 0
1, 33336, Note_off_c, 1, 55, 0
1, 33360, Note_on_c, 1, 76, 127
1, 33360, Note_on_c, 1, 57, 127
1, 33456, Note_off_c, 1, 76, 0
1, 33456, Note_off_c, 1, 57, 0
1, 33480, Note_on_c, 1, 74, 127
1, 33480, Note_on_c, 1, 46, 127
1, 33576, Note_off_c, 1, 74, 0
1, 33600, Note_on_c, 1, 82, 127
1, 33696, Note_off_c, 1, 82, 0
1, 33720, Note_on_c, 1, 81, 127
1, 33768, Note_off_c, 1, 46, 0
1, 33816, Note_off_c, 1, 81, 0
1, 33840, Note_on_c, 1, 80, 127
1, 33936, Note_off_c, 1, 80, 0
1, 33960, Note_on_c, 1, 81, 127
1, 34056, Note_off_c, 1, 81, 0
1, 34080, Note_on_c, 1, 76, 127
1, 34176, Note_off_c, 1, 76, 0
1, 34200, Note_on_c, 1, 77, 127
1, 34296, Note_off_c, 1, 77, 0
1, 34320, Note_on_c, 1, 73, 127
1, 34416, Note_off_c, 1, 73, 0
1, 34440, Note_on_c, 1, 74, 127
1, 34536, Note_off_c, 1, 74, 0
1, 34560, Note_on_c, 1, 68, 127
1, 34560, Note_on_c, 1, 47, 127
1, 34656, Note_off_c, 1, 68, 0
1, 34680, Note_on_c, 1, 71, 127
1, 34776, Note_off_c, 1, 71, 0
1, 34800, Note_on_c, 1, 74, 127
1, 34848, Note_off_c, 1, 47, 0
1, 34896, Note_off_c, 1, 74, 0
1, 34920, Note_on_c, 1, 77, 127
1, 35016, Note_off_c, 1, 77, 0
1, 35040, Note_on_c, 1, 76, 127
1, 35136, Note_off_c, 1, 76, 0
1, 35160, Note_on_c, 1, 74, 127
1, 35256, Note_off_c, 1, 74, 0
1, 35280, Note_on_c, 1, 73, 127
1, 35376, Note_off_c, 1, 73, 0
1, 35400, Note_on_c, 1, 74, 127
1, 35496, Note_off_c, 1, 74, 0
1, 35520, Note_on_c, 1, 71, 127
1, 35616, Note_off_c, 1, 71, 0
1, 35640, Note_on_c, 1, 74, 127
1, 35640, Note_on_c, 1, 45, 127
1, 35664, Note_off_c, 1, 74, 0
1, 35670, Note_on_c, 1, 73, 127
1, 35694, Note_off_c, 1, 73, 0
1, 35760, Note_on_c, 1, 70, 127
1, 35832, Note_off_c, 1, 45, 0
1, 35856, Note_off_c, 1, 70, 0
1, 35880, Note_on_c, 1, 69, 127
1, 35976, Note_off_c, 1, 69, 0
1, 36000, Note_on_c, 1, 68, 127
1, 36096, Note_off_c, 1, 68, 0
1, 36240, Note_on_c, 1, 64, 127
1, 36336, Note_off_c, 1, 64, 0
1, 36360, Note_on_c, 1, 73, 127
1, 36360, Note_on_c, 1, 65, 127
1, 36384, Note_off_c, 1, 73, 0
1, 36390, Note_on_c, 1, 74, 127
1, 36414, Note_off_c, 1, 74, 0
1, 36420, Note_on_c, 1, 76, 127
1, 36444, Note_off_c, 1, 76, 0
1, 36456, Note_off_c, 1, 65, 0
1, 36480, Note_on_c, 1, 76, 127
1, 36480, Note_on_c, 1, 61, 127
1, 36504, Note_off_c, 1, 76, 0
1, 36510, Note_on_c, 1, 74, 127
1, 36534, Note_off_c, 1, 74, 0
1, 36576, Note_off_c, 1, 61, 0
1, 36600, Note_on_c, 1, 76, 127
1, 36600, Note_on_c, 1, 62, 127
1, 36624, Note_off_c, 1, 76, 0
1, 36630, Note_on_c, 1, 74, 127
1, 36654, Note_off_c, 1, 74, 0
1, 36696, Note_off_c, 1, 62, 0
1, 36720, Note_on_c, 1, 56, 127
1, 36780, Note_on_c, 1, 77, 127
1, 36816, Note_off_c, 1, 56, 0
1, 36828, Note_off_c, 1, 77, 0
1, 36840, Note_on_c, 1, 76, 127
1, 36840, Note_on_c, 1, 59, 127
1, 36888, Note_off_c, 1, 76, 0
1, 36900, Note_on_c, 1, 74, 127
1, 36936, Note_off_c, 1, 59, 0
1, 36948, Note_off_c, 1, 74, 0
1, 36960, Note_on_c, 1, 72, 127
1, 36960, Note_on_c, 1, 62, 127
1, 37008, Note_off_c, 1, 72, 0
1, 37020, Note_on_c, 1, 71, 127
1, 37056, Note_off_c, 1, 62, 0
1, 37068, Note_off_c, 1, 71, 0
1, 37080, Note_on_c, 1, 81, 127
1, 37080, Note_on_c, 1, 65, 127
1, 37104, Note_off_c, 1, 81, 0
1, 37110, Note_on_c, 1, 80, 127
1, 37134, Note_off_c, 1, 80, 0
1, 37140, Note_on_c, 1, 78, 127
1, 37164, Note_off_c, 1, 78, 0
1, 37176, Note_off_c, 1, 65, 0
1, 37200, Note_on_c, 1, 81, 127
1, 37200, Note_on_c, 1, 64, 127
1, 37224, Note_off_c, 1, 81, 0
1, 37230, Note_on_c, 1, 80, 127
1, 37254, Note_off_c, 1, 80, 0
1, 37296, Note_off_c, 1, 64, 0
1, 37320, Note_on_c, 1, 81, 127
1, 37320, Note_on_c, 1, 62, 127
1, 37344, Note_off_c, 1, 81, 0
1, 37350, Note_on_c, 1, 80, 127
1, 37374, Note_off_c, 1, 80, 0
1, 37416, Note_off_c, 1, 62, 0
1, 37440, Note_on_c, 1, 81, 127
1, 37440, Note_on_c, 1, 61, 127
1, 37464, Note_off_c, 1, 81, 0
1, 37470, Note_on_c, 1, 80, 127
1, 37494, Note_off_c, 1, 80, 0
1, 37536, Note_off_c, 1, 61, 0
1, 37560, Note_on_c, 1, 81, 127
1, 37560, Note_on_c, 1, 62, 127
1, 37584, Note_off_c, 1, 81, 0
1, 37590, Note_on_c, 1, 80, 127
1, 37614, Note_off_c, 1, 80, 0
1, 37656, Note_off_c, 1, 62, 0
1, 37680, Note_on_c, 1, 81, 127
1, 37680, Note_on_c, 1, 59, 127
1, 37704, Note_off_c, 1, 81, 0
1, 37710, Note_on_c, 1, 80, 127
1, 37734, Note_off_c, 1, 80, 0
1, 37776, Note_off_c, 1, 59, 0
1, 37800, Note_on_c, 1, 81, 127
1, 37800, Note_on_c, 1, 61, 127
1, 37896, Note_off_c, 1, 61, 0
1, 37920, Note_on_c, 1, 58, 127
1, 38016, Note_off_c, 1, 58, 0
1, 38040, Note_on_c, 1, 57, 127
1, 38088, Note_off_c, 1, 81, 0
1, 38136, Note_off_c, 1, 57, 0
1, 38160, Note_on_c, 1, 56, 127
1, 38256, Note_off_c, 1, 56, 0
1, 38280, Note_on_c, 1, 57, 127
1, 38376, Note_off_c, 1, 57, 0
1, 38400, Note_on_c, 1, 52, 127
1, 38496, Note_off_c, 1, 52, 0
1, 38520, Note_on_c, 1, 53, 127
1, 38616, Note_off_c, 1, 53, 0
1, 38640, Note_on_c, 1, 49, 127
1, 38736, Note_off_c, 1, 49, 0
1, 38760, Note_on_c, 1, 50, 127
1, 38856, Note_off_c, 1, 50, 0
1, 38880, Note_on_c, 1, 65, 127
1, 38880, Note_on_c, 1, 71, 127
1, 38880, Note_on_c, 1, 74, 127
1, 38880, Note_on_c, 1, 44, 127
1, 38993, Note_off_c, 1, 65, 0
1, 38993, Note_off_c, 1, 71, 0
1, 39072, Note_off_c, 1, 74, 0
1, 39120, Note_on_c, 1, 76, 127
1, 39144, Note_off_c, 1, 76, 0
1, 39168, Note_off_c, 1, 44, 0
1, 39180, Note_on_c, 1, 73, 127
1, 39204, Note_off_c, 1, 73, 0
1, 39210, Note_on_c, 1, 74, 127
1, 39234, Note_off_c, 1, 74, 0
1, 39240, Note_on_c, 1, 76, 127
1, 39240, Note_on_c, 1, 71, 127
1, 39240, Note_on_c, 1, 44, 127
1, 39240, Note_on_c, 1, 53, 127
1, 39264, Note_off_c, 1, 76, 0
1, 39270, Note_on_c, 1, 74, 127
1, 39294, Note_off_c, 1, 74, 0
1, 39816, Note_off_c, 1, 71, 0
1, 39816, Note_off_c, 1, 44, 0
1, 39816, Note_off_c, 1, 53, 0
1, 39840, Note_on_c, 1, 73, 127
1, 39888, Note_off_c, 1, 73, 0
1, 39900, Note_on_c, 1, 74, 127
1, 39948, Note_off_c, 1, 74, 0
1, 39960, Note_on_c, 1, 73, 127
1, 39960, Note_on_c, 1, 69, 127
1, 39960, Note_on_c, 1, 52, 127
1, 39960, Note_on_c, 1, 45, 127
1, 40008, Note_off_c, 1, 52, 0
1, 40020, Note_on_c, 1, 57, 127
1, 40056, Note_off_c, 1, 73, 0
1, 40056, Note_off_c, 1, 69, 0
1, 40056, Note_off_c, 1, 45, 0
1, 40068, Note_off_c, 1, 57, 0
1, 40080, Note_on_c, 1, 59, 127
1, 40128, Note_off_c, 1, 59, 0
1, 40140, Note_on_c, 1, 61, 127
1, 40188, Note_off_c, 1, 61, 0
1, 40200, Note_on_c, 1, 62, 127
1, 40248, Note_off_c, 1, 62, 0
1, 40260, Note_on_c, 1, 64, 127
1, 40308, Note_off_c, 1, 64, 0
1, 40320, Note_on_c, 1, 65, 127
1, 40410, Note_off_c, 1, 65, 0
1, 40440, Note_on_c, 1, 64, 127
1, 40530, Note_off_c, 1, 64, 0
1, 40560, Note_on_c, 1, 62, 127
1, 40650, Note_off_c, 1, 62, 0
1, 40680, Note_on_c, 1, 64, 127
1, 40770, Note_off_c, 1, 64, 0
1, 40800, Note_on_c, 1, 62, 127
1, 40890, Note_off_c, 1, 62, 0
1, 40920, Note_on_c, 1, 61, 127
1, 41010, Note_off_c, 1, 61, 0
1, 41040, Note_on_c, 1, 62, 127
1, 41100, Note_on_c, 1, 50, 127
1, 41148, Note_off_c, 1, 50, 0
1, 41160, Note_on_c, 1, 52, 127
1, 41208, Note_off_c, 1, 52, 0
1, 41220, Note_on_c, 1, 54, 127
1, 41268, Note_off_c, 1, 54, 0
1, 41280, Note_on_c, 1, 55, 127
1, 41328, Note_off_c, 1, 55, 0
1, 41340, Note_on_c, 1, 57, 127
1, 41388, Note_off_c, 1, 57, 0
1, 41400, Note_on_c, 1, 58, 127
1, 41490, Note_off_c, 1, 58, 0
1, 41592, Note_off_c, 1, 62, 0
1, 41640, Note_on_c, 1, 70, 127
1, 41640, Note_on_c, 1, 55, 127
1, 41730, Note_off_c, 1, 55, 0
1, 41736, Note_off_c, 1, 70, 0
1, 41760, Note_on_c, 1, 60, 127
1, 41760, Note_on_c, 1, 57, 127
1, 41850, Note_off_c, 1, 57, 0
1, 41880, Note_on_c, 1, 55, 127
1, 41952, Note_off_c, 1, 60, 0
1, 41970, Note_off_c, 1, 55, 0
1, 42000, Note_on_c, 1, 69, 127
1, 42000, Note_on_c, 1, 54, 127
1, 42090, Note_off_c, 1, 54, 0
1, 42096, Note_off_c, 1, 69, 0
1, 42120, Note_on_c, 1, 58, 127
1, 42120, Note_on_c, 1, 55, 127
1, 42168, Note_off_c, 1, 58, 0
1, 42180, Note_on_c, 1, 62, 127
1, 42228, Note_off_c, 1, 62, 0
1, 42240, Note_on_c, 1, 64, 127
1, 42288, Note_off_c, 1, 64, 0
1, 42300, Note_on_c, 1, 65, 127
1, 42348, Note_off_c, 1, 65, 0
1, 42480, Note_on_c, 1, 67, 127
1, 42528, Note_off_c, 1, 55, 0
1, 42540, Note_on_c, 1, 52, 127
1, 42588, Note_off_c, 1, 52, 0
1, 42600, Note_on_c, 1, 50, 127
1, 42648, Note_off_c, 1, 50, 0
1, 42660, Note_on_c, 1, 49, 127
1, 42708, Note_off_c, 1, 49, 0
1, 42840, Note_on_c, 1, 53, 127
1, 42888, Note_off_c, 1, 67, 0
1, 42900, Note_on_c, 1, 57, 127
1, 42948, Note_off_c, 1, 57, 0
1, 42960, Note_on_c, 1, 59, 127
1, 43008, Note_off_c, 1, 59, 0
1, 43020, Note_on_c, 1, 61, 127
1, 43068, Note_off_c, 1, 61, 0
1, 43260, Note_on_c, 1, 69, 127
1, 43308, Note_off_c, 1, 69, 0
1, 43320, Note_on_c, 1, 71, 127
1, 43368, Note_off_c, 1, 71, 0
1, 43380, Note_on_c, 1, 73, 127
1, 43428, Note_off_c, 1, 73, 0
1, 43440, Note_on_c, 1, 74, 127
1, 43488, Note_off_c, 1, 74, 0
1, 43500, Note_on_c, 1, 76, 127
1, 43548, Note_off_c, 1, 76, 0
1, 43560, Note_on_c, 1, 77, 127
1, 43650, Note_off_c, 1, 77, 0
1, 43752, Note_off_c, 1, 53, 0
1, 43800, Note_on_c, 1, 74, 127
1, 43800, Note_on_c, 1, 65, 127
1, 43800, Note_on_c, 1, 58, 127
1, 43890, Note_off_c, 1, 74, 0
1, 43890, Note_off_c, 1, 58, 0
1, 43896, Note_off_c, 1, 65, 0
1, 43920, Note_on_c, 1, 76, 127
1, 43920, Note_on_c, 1, 67, 127
1, 43920, Note_on_c, 1, 55, 127
1, 44010, Note_off_c, 1, 76, 0
1, 44016, Note_off_c, 1, 67, 0
1, 44040, Note_on_c, 1, 74, 127
1, 44040, Note_on_c, 1, 65, 127
1, 44112, Note_off_c, 1, 55, 0
1, 44130, Note_off_c, 1, 74, 0
1, 44136, Note_off_c, 1, 65, 0
1, 44160, Note_on_c, 1, 73, 127
1, 44160, Note_on_c, 1, 64, 127
1, 44160, Note_on_c, 1, 57, 127
1, 44250, Note_off_c, 1, 73, 0
1, 44256, Note_off_c, 1, 64, 0
1, 44256, Note_off_c, 1, 57, 0
1, 44280, Note_on_c, 1, 74, 127
1, 44280, Note_on_c, 1, 62, 127
1, 44280, Note_on_c, 1, 58, 127
1, 44328, Note_off_c, 1, 74, 0
1, 44340, Note_on_c, 1, 72, 127
1, 44388, Note_off_c, 1, 72, 0
1, 44400, Note_on_c, 1, 70, 127
1, 44448, Note_off_c, 1, 70, 0
1, 44460, Note_on_c, 1, 69, 127
1, 44508, Note_off_c, 1, 69, 0
1, 44520, Note_on_c, 1, 67, 127
1, 44568, Note_off_c, 1, 62, 0
1, 44568, Note_off_c, 1, 67, 0
1, 44580, Note_on_c, 1, 65, 127
1, 44628, Note_off_c, 1, 65, 0
1, 44640, Note_on_c, 1, 64, 127
1, 44640, Note_on_c, 1, 60, 127
1, 44688, Note_off_c, 1, 64, 0
1, 44856, Note_off_c, 1, 58, 0
1, 45000, Note_on_c, 1, 57, 127
1, 45216, Note_off_c, 1, 60, 0
1, 45648, Note_off_c, 1, 57, 0
1, 45720, Note_on_c, 1, 55, 127
1, 45912, Note_off_c, 1, 55, 0
1, 45960, Note_on_c, 1, 53, 127
1, 46056, Note_off_c, 1, 53, 0
1, 46080, Note_on_c, 1, 52, 127
1, 46368, Note_off_c, 1, 52, 0
1, 47160, Note_on_c, 1, 50, 127
1, 47448, Note_off_c, 1, 50, 0
1, 47520, Note_on_c, 1, 48, 127
1, 47808, Note_off_c, 1, 48, 0
1, 47820, Note_on_c, 1, 65, 127
1, 47868, Note_off_c, 1, 65, 0
1, 47880, Note_on_c, 1, 60, 127
1, 47880, Note_on_c, 1, 46, 127
1, 47880, Note_on_c, 1, 55, 127
1, 47928, Note_off_c, 1, 60, 0
1, 47940, Note_on_c, 1, 64, 127
1, 47988, Note_off_c, 1, 64, 0
1, 48000, Note_on_c, 1, 65, 127
1, 48048, Note_off_c, 1, 65, 0
1, 48060, Note_on_c, 1, 69, 127
1, 48108, Note_off_c, 1, 69, 0
1, 48168, Note_off_c, 1, 46, 0
1, 48168, Note_off_c, 1, 55, 0
1, 48180, Note_on_c, 1, 65, 127
1, 48228, Note_off_c, 1, 65, 0
1, 48240, Note_on_c, 1, 60, 127
1, 48240, Note_on_c, 1, 45, 127
1, 48240, Note_on_c, 1, 53, 127
1, 48288, Note_off_c, 1, 60, 0
1, 48300, Note_on_c, 1, 64, 127
1, 48348, Note_off_c, 1, 64, 0
1, 48360, Note_on_c, 1, 65, 127
1, 48408, Note_off_c, 1, 65, 0
1, 48420, Note_on_c, 1, 69, 127
1, 48468, Note_off_c, 1, 69, 0
1, 48528, Note_off_c, 1, 45, 0
1, 48528, Note_off_c, 1, 53, 0
1, 48540, Note_on_c, 1, 65, 127
1, 48588, Note_off_c, 1, 65, 0
1, 48600, Note_on_c, 1, 62, 127
1, 48600, Note_on_c, 1, 53, 127
1, 48600, Note_on_c, 1, 46, 127
1, 48648, Note_off_c, 1, 53, 0
1, 48696, Note_off_c, 1, 62, 0
1, 48720, Note_on_c, 1, 64, 127
1, 48720, Note_on_c, 1, 55, 127
1, 48768, Note_off_c, 1, 64, 0
1, 48768, Note_off_c, 1, 55, 0
1, 48780, Note_on_c, 1, 65, 127
1, 48780, Note_on_c, 1, 57, 127
1, 48792, Note_off_c, 1, 46, 0
1, 48828, Note_off_c, 1, 65, 0
1, 48828, Note_off_c, 1, 57, 0
1, 48840, Note_on_c, 1, 67, 127
1, 48840, Note_on_c, 1, 58, 127
1, 48888, Note_off_c, 1, 67, 0
1, 48888, Note_off_c, 1, 58, 0
1, 48900, Note_on_c, 1, 69, 127
1, 48900, Note_on_c, 1, 60, 127
1, 48948, Note_off_c, 1, 69, 0
1, 48948, Note_off_c, 1, 60, 0
1, 48960, Note_on_c, 1, 70, 127
1, 48960, Note_on_c, 1, 62, 127
1, 49050, Note_off_c, 1, 70, 0
1, 49050, Note_off_c, 1, 62, 0
1, 49080, Note_on_c, 1, 69, 127
1, 49080, Note_on_c, 1, 60, 127
1, 49170, Note_off_c, 1, 69, 0
1, 49170, Note_off_c, 1, 60, 0
1, 49200, Note_on_c, 1, 67, 127
1, 49200, Note_on_c, 1, 58, 127
1, 49290, Note_off_c, 1, 67, 0
1, 49290, Note_off_c, 1, 58, 0
1, 49320, Note_on_c, 1, 69, 127
1, 49320, Note_on_c, 1, 60, 127
1, 49410, Note_off_c, 1, 69, 0
1, 49410, Note_off_c, 1, 60, 0
1, 49440, Note_on_c, 1, 67, 127
1, 49440, Note_on_c, 1, 58, 127
1, 49530, Note_off_c, 1, 67, 0
1, 49530, Note_off_c, 1, 58, 0
1, 49560, Note_on_c, 1, 65, 127
1, 49560, Note_on_c, 1, 57, 127
1, 49650, Note_off_c, 1, 65, 0
1, 49650, Note_off_c, 1, 57, 0
1, 49680, Note_on_c, 1, 72, 127
1, 49680, Note_on_c, 1, 55, 127
1, 49740, Note_on_c, 1, 46, 127
1, 49788, Note_off_c, 1, 46, 0
1, 49800, Note_on_c, 1, 48, 127
1, 49848, Note_off_c, 1, 48, 0
1, 49860, Note_on_c, 1, 50, 127
1, 49872, Note_off_c, 1, 72, 0
1, 49872, Note_off_c, 1, 55, 0
1, 49908, Note_off_c, 1, 50, 0
1, 49920, Note_on_c, 1, 64, 127
1, 49920, Note_on_c, 1, 48, 127
1, 49920, Note_on_c, 1, 55, 127
1, 49968, Note_off_c, 1, 48, 0
1, 49980, Note_on_c, 1, 46, 127
1, 50016, Note_off_c, 1, 64, 0
1, 50016, Note_off_c, 1, 55, 0
1, 50028, Note_off_c, 1, 46, 0
1, 50040, Note_on_c, 1, 65, 127
1, 50040, Note_on_c, 1, 45, 127
1, 50040, Note_on_c, 1, 53, 127
1, 50130, Note_off_c, 1, 45, 0
1, 50160, Note_on_c, 1, 48, 127
1, 50232, Note_off_c, 1, 65, 0
1, 50250, Note_off_c, 1, 48, 0
1, 50280, Note_on_c, 1, 67, 127
1, 50280, Note_on_c, 1, 46, 127
1, 50370, Note_off_c, 1, 46, 0
1, 50376, Note_off_c, 1, 67, 0
1, 50400, Note_on_c, 1, 69, 127
1, 50424, Note_off_c, 1, 69, 0
1, 50496, Note_off_c, 1, 53, 0
1, 50640, Note_on_c, 1, 52, 127
1, 50736, Note_off_c, 1, 52, 0
1, 50760, Note_on_c, 1, 57, 127
1, 50760, Note_on_c, 1, 65, 127
1, 50760, Note_on_c, 1, 60, 127
1, 50760, Note_on_c, 1, 53, 127
1, 50760, Note_on_c, 1, 41, 127
1, 50808, Note_off_c, 1, 53, 0
1, 50820, Note_on_c, 1, 48, 127
1, 50856, Note_off_c, 1, 41, 0
1, 50868, Note_off_c, 1, 48, 0
1, 50880, Note_on_c, 1, 50, 127
1, 50928, Note_off_c, 1, 50, 0
1, 50940, Note_on_c, 1, 52, 127
1, 50952, Note_off_c, 1, 57, 0
1, 50952, Note_off_c, 1, 65, 0
1, 50952, Note_off_c, 1, 60, 0
1, 50988, Note_off_c, 1, 52, 0
1, 51000, Note_on_c, 1, 53, 127
1, 51048, Note_off_c, 1, 53, 0
1, 51060, Note_on_c, 1, 55, 127
1, 51108, Note_off_c, 1, 55, 0
1, 51120, Note_on_c, 1, 57, 127
1, 51180, Note_on_c, 1, 62, 127
1, 51210, Note_off_c, 1, 57, 0
1, 51228, Note_off_c, 1, 62, 0
1, 51240, Note_on_c, 1, 64, 127
1, 51240, Note_on_c, 1, 55, 127
1, 51288, Note_off_c, 1, 64, 0
1, 51300, Note_on_c, 1, 65, 127
1, 51330, Note_off_c, 1, 55, 0
1, 51348, Note_off_c, 1, 65, 0
1, 51360, Note_on_c, 1, 67, 127
1, 51360, Note_on_c, 1, 53, 127
1, 51408, Note_off_c, 1, 67, 0
1, 51420, Note_on_c, 1, 69, 127
1, 51450, Note_off_c, 1, 53, 0
1, 51468, Note_off_c, 1, 69, 0
1, 51480, Note_on_c, 1, 58, 127
1, 51480, Note_on_c, 1, 55, 127
1, 51528, Note_off_c, 1, 58, 0
1, 51540, Note_on_c, 1, 60, 127
1, 51570, Note_off_c, 1, 55, 0
1, 51588, Note_off_c, 1, 60, 0
1, 51600, Note_on_c, 1, 62, 127
1, 51600, Note_on_c, 1, 53, 127
1, 51648, Note_off_c, 1, 62, 0
1, 51660, Note_on_c, 1, 64, 127
1, 51690, Note_off_c, 1, 53, 0
1, 51708, Note_off_c, 1, 64, 0
1, 51720, Note_on_c, 1, 65, 127
1, 51720, Note_on_c, 1, 52, 127
1, 51768, Note_off_c, 1, 65, 0
1, 51780, Note_on_c, 1, 67, 127
1, 51810, Note_off_c, 1, 52, 0
1, 51828, Note_off_c, 1, 67, 0
1, 51840, Note_on_c, 1, 53, 127
1, 51840, Note_on_c, 1, 57, 127
1, 51900, Note_on_c, 1, 77, 127
1, 51948, Note_off_c, 1, 77, 0
1, 51960, Note_on_c, 1, 76, 127
1, 52008, Note_off_c, 1, 76, 0
1, 52020, Note_on_c, 1, 74, 127
1, 52068, Note_off_c, 1, 74, 0
1, 52080, Note_on_c, 1, 72, 127
1, 52128, Note_off_c, 1, 72, 0
1, 52140, Note_on_c, 1, 70, 127
1, 52188, Note_off_c, 1, 70, 0
1, 52200, Note_on_c, 1, 69, 127
1, 52248, Note_off_c, 1, 53, 0
1, 52260, Note_on_c, 1, 52, 127
1, 52290, Note_off_c, 1, 69, 0
1, 52308, Note_off_c, 1, 52, 0
1, 52320, Note_on_c, 1, 71, 127
1, 52344, Note_off_c, 1, 57, 0
1, 52380, Note_on_c, 1, 55, 127
1, 52410, Note_off_c, 1, 71, 0
1, 52428, Note_off_c, 1, 55, 0
1, 52440, Note_on_c, 1, 72, 127
1, 52440, Note_on_c, 1, 53, 127
1, 52500, Note_on_c, 1, 52, 127
1, 52530, Note_off_c, 1, 72, 0
1, 52548, Note_off_c, 1, 52, 0
1, 52560, Note_on_c, 1, 71, 127
1, 52560, Note_on_c, 1, 50, 127
1, 52650, Note_off_c, 1, 71, 0
1, 52656, Note_off_c, 1, 53, 0
1, 52656, Note_off_c, 1, 50, 0
1, 52680, Note_on_c, 1, 72, 127
1, 52680, Note_on_c, 1, 52, 127
1, 52680, Note_on_c, 1, 55, 127
1, 52770, Note_off_c, 1, 72, 0
1, 52776, Note_off_c, 1, 52, 0
1, 52776, Note_off_c, 1, 55, 0
1, 52800, Note_on_c, 1, 74, 127
1, 52800, Note_on_c, 1, 53, 127
1, 52800, Note_on_c, 1, 57, 127
1, 52890, Note_off_c, 1, 74, 0
1, 52896, Note_off_c, 1, 53, 0
1, 52896, Note_off_c, 1, 57, 0
1, 52920, Note_on_c, 1, 72, 127
1, 52920, Note_on_c, 1, 55, 127
1, 52920, Note_on_c, 1, 52, 127
1, 52980, Note_on_c, 1, 69, 127
1, 53028, Note_off_c, 1, 69, 0
1, 53040, Note_on_c, 1, 67, 127
1, 53088, Note_off_c, 1, 67, 0
1, 53100, Note_on_c, 1, 65, 127
1, 53148, Note_off_c, 1, 65, 0
1, 53160, Note_on_c, 1, 64, 127
1, 53208, Note_off_c, 1, 55, 0
1, 53208, Note_off_c, 1, 64, 0
1, 53220, Note_on_c, 1, 62, 127
1, 53268, Note_off_c, 1, 62, 0
1, 53280, Note_on_c, 1, 60, 127
1, 53370, Note_off_c, 1, 60, 0
1, 53376, Note_off_c, 1, 52, 0
1, 53400, Note_on_c, 1, 53, 127
1, 53460, Note_on_c, 1, 57, 127
1, 53496, Note_off_c, 1, 53, 0
1, 53556, Note_off_c, 1, 57, 0
1, 53580, Note_on_c, 1, 58, 127
1, 53628, Note_off_c, 1, 58, 0
1, 54600, Note_on_c, 1, 63, 127
1, 54696, Note_off_c, 1, 63, 0
1, 54720, Note_on_c, 1, 54, 127
1, 54912, Note_off_c, 1, 72, 0
1, 55008, Note_off_c, 1, 54, 0
1, 55080, Note_on_c, 1, 71, 127
1, 55128, Note_off_c, 1, 71, 0
1, 55320, Note_on_c, 1, 74, 127
1, 55368, Note_off_c, 1, 74, 0
1, 55380, Note_on_c, 1, 76, 127
1, 55428, Note_off_c, 1, 76, 0
1, 55440, Note_on_c, 1, 77, 127
1, 55500, Note_on_c, 1, 59, 127
1, 55530, Note_off_c, 1, 77, 0
1, 55548, Note_off_c, 1, 59, 0
1, 55560, Note_on_c, 1, 76, 127
1, 55560, Note_on_c, 1, 60, 127
1, 55608, Note_off_c, 1, 60, 0
1, 55620, Note_on_c, 1, 62, 127
1, 55650, Note_off_c, 1, 76, 0
1, 55668, Note_off_c, 1, 62, 0
1, 55680, Note_on_c, 1, 74, 127
1, 55680, Note_on_c, 1, 64, 127
1, 55728, Note_off_c, 1, 64, 0
1, 55740, Note_on_c, 1, 65, 127
1, 55770, Note_off_c, 1, 74, 0
1, 55788, Note_off_c, 1, 65, 0
1, 55800, Note_on_c, 1, 76, 127
1, 55800, Note_on_c, 1, 67, 127
1, 55848, Note_off_c, 1, 76, 0
1, 55860, Note_on_c, 1, 72, 127
1, 55890, Note_off_c, 1, 67, 0
1, 55908, Note_off_c, 1, 72, 0
1, 55920, Note_on_c, 1, 74, 127
1, 55920, Note_on_c, 1, 65, 127
1, 55968, Note_off_c, 1, 74, 0
1, 55980, Note_on_c, 1, 76, 127
1, 56010, Note_off_c, 1, 65, 0
1, 56028, Note_off_c, 1, 76, 0
1, 56040, Note_on_c, 1, 77, 127
1, 56040, Note_on_c, 1, 64, 127
1, 56088, Note_off_c, 1, 77, 0
1, 56100, Note_on_c, 1, 79, 127
1, 56130, Note_off_c, 1, 64, 0
1, 56148, Note_off_c, 1, 79, 0
1, 56160, Note_on_c, 1, 81, 127
1, 56160, Note_on_c, 1, 65, 127
1, 56208, Note_off_c, 1, 81, 0
1, 56220, Note_on_c, 1, 77, 127
1, 56268, Note_off_c, 1, 77, 0
1, 56280, Note_on_c, 1, 76, 127
1, 56280, Note_on_c, 1, 55, 127
1, 56328, Note_off_c, 1, 76, 0
1, 56340, Note_on_c, 1, 74, 127
1, 56352, Note_off_c, 1, 65, 0
1, 56388, Note_off_c, 1, 74, 0
1, 56472, Note_off_c, 1, 55, 0
1, 56520, Note_on_c, 1, 79, 127
1, 56520, Note_on_c, 1, 64, 127
1, 56568, Note_off_c, 1, 79, 0
1, 56580, Note_on_c, 1, 76, 127
1, 56628, Note_off_c, 1, 76, 0
1, 56640, Note_on_c, 1, 74, 127
1, 56640, Note_on_c, 1, 55, 127
1, 56688, Note_off_c, 1, 74, 0
1, 56700, Note_on_c, 1, 72, 127
1, 56712, Note_off_c, 1, 64, 0
1, 56748, Note_off_c, 1, 72, 0
1, 56832, Note_off_c, 1, 55, 0
1, 56880, Note_on_c, 1, 77, 127
1, 56880, Note_on_c, 1, 62, 127
1, 56928, Note_off_c, 1, 77, 0
1, 56940, Note_on_c, 1, 74, 127
1, 56988, Note_off_c, 1, 74, 0
1, 57000, Note_on_c, 1, 72, 127
1, 57000, Note_on_c, 1, 55, 127
1, 57048, Note_off_c, 1, 72, 0
1, 57060, Note_on_c, 1, 71, 127
1, 57072, Note_off_c, 1, 62, 0
1, 57108, Note_off_c, 1, 71, 0
1, 57192, Note_off_c, 1, 55, 0
1, 57240, Note_on_c, 1, 76, 127
1, 57240, Note_on_c, 1, 60, 127
1, 57288, Note_off_c, 1, 76, 0
1, 57300, Note_on_c, 1, 71, 127
1, 57348, Note_off_c, 1, 71, 0
1, 57360, Note_on_c, 1, 72, 127
1, 57360, Note_on_c, 1, 48, 127
1, 57408, Note_off_c, 1, 72, 0
1, 57432, Note_off_c, 1, 60, 0
1, 57552, Note_off_c, 1, 48, 0
1, 57600, Note_on_c, 1, 65, 127
1, 57600, Note_on_c, 1, 60, 127
1, 57648, Note_off_c, 1, 65, 0
1, 57660, Note_on_c, 1, 71, 127
1, 57708, Note_off_c, 1, 71, 0
1, 57720, Note_on_c, 1, 72, 127
1, 57720, Note_on_c, 1, 50, 127
1, 57768, Note_off_c, 1, 72, 0
1, 57780, Note_on_c, 1, 76, 127
1, 57792, Note_off_c, 1, 60, 0
1, 57828, Note_off_c, 1, 76, 0
1, 57912, Note_off_c, 1, 50, 0
1, 57960, Note_on_c, 1, 67, 127
1, 57960, Note_on_c, 1, 60, 127
1, 58008, Note_off_c, 1, 67, 0
1, 58020, Note_on_c, 1, 71, 127
1, 58068, Note_off_c, 1, 71, 0
1, 58080, Note_on_c, 1, 72, 127
1, 58080, Note_on_c, 1, 52, 127
1, 58128, Note_off_c, 1, 72, 0
1, 58140, Note_on_c, 1, 76, 127
1, 58152, Note_off_c, 1, 60, 0
1, 58188, Note_off_c, 1, 76, 0
1, 58272, Note_off_c, 1, 52, 0
1, 58320, Note_on_c, 1, 69, 127
1, 58320, Note_on_c, 1, 60, 127
1, 58368, Note_off_c, 1, 69, 0
1, 58380, Note_on_c, 1, 71, 127
1, 58428, Note_off_c, 1, 71, 0
1, 58440, Note_on_c, 1, 72, 127
1, 58440, Note_on_c, 1, 53, 127
1, 58488, Note_off_c, 1, 72, 0
1, 58500, Note_on_c, 1, 76, 127
1, 58512, Note_off_c, 1, 60, 0
1, 58548, Note_off_c, 1, 76, 0
1, 58632, Note_off_c, 1, 53, 0
1, 58680, Note_on_c, 1, 67, 127
1, 58680, Note_on_c, 1, 60, 127
1, 58728, Note_off_c, 1, 67, 0
1, 58740, Note_on_c, 1, 71, 127
1, 58788, Note_off_c, 1, 71, 0
1, 58800, Note_on_c, 1, 72, 127
1, 58800, Note_on_c, 1, 55, 127
1, 58848, Note_off_c, 1, 72, 0
1, 58860, Note_on_c, 1, 76, 127
1, 58872, Note_off_c, 1, 60, 0
1, 58908, Note_off_c, 1, 76, 0
1, 58992, Note_off_c, 1, 55, 0
1, 59040, Note_on_c, 1, 66, 127
1, 59040, Note_on_c, 1, 60, 127
1, 59088, Note_off_c, 1, 66, 0
1, 59100, Note_on_c, 1, 71, 127
1, 59148, Note_off_c, 1, 71, 0
1, 59160, Note_on_c, 1, 72, 127
1, 59160, Note_on_c, 1, 57, 127
1, 59208, Note_off_c, 1, 72, 0
1, 59220, Note_on_c, 1, 75, 127
1, 59232, Note_off_c, 1, 60, 0
1, 59268, Note_off_c, 1, 75, 0
1, 59352, Note_off_c, 1, 57, 0
1, 59400, Note_on_c, 1, 65, 127
1, 59400, Note_on_c, 1, 59, 127
1, 59400, Note_on_c, 1, 62, 127
1, 59448, Note_off_c, 1, 65, 0
1, 59460, Note_on_c, 1, 69, 127
1, 59496, Note_off_c, 1, 59, 0
1, 59508, Note_off_c, 1, 69, 0
1, 59520, Note_on_c, 1, 71, 127
1, 59520, Note_on_c, 1, 57, 127
1, 59568, Note_off_c, 1, 71, 0
1, 59580, Note_on_c, 1, 74, 127
1, 59616, Note_off_c, 1, 57, 0
1, 59628, Note_off_c, 1, 74, 0
1, 59640, Note_on_c, 1, 55, 127
1, 59688, Note_off_c, 1, 62, 0
1, 59736, Note_off_c, 1, 55, 0
1, 59760, Note_on_c, 1, 63, 127
1, 59760, Note_on_c, 1, 60, 127
1, 59808, Note_off_c, 1, 63, 0
1, 59820, Note_on_c, 1, 67, 127
1, 59868, Note_off_c, 1, 67, 0
1, 59880, Note_on_c, 1, 69, 127
1, 59880, Note_on_c, 1, 54, 127
1, 59928, Note_off_c, 1, 69, 0
1, 59940, Note_on_c, 1, 72, 127
1, 59976, Note_off_c, 1, 54, 0
1, 59988, Note_off_c, 1, 72, 0
1, 60000, Note_on_c, 1, 66, 127
1, 60000, Note_on_c, 1, 57, 127
1, 60048, Note_off_c, 1, 60, 0
1, 60048, Note_off_c, 1, 66, 0
1, 60096, Note_off_c, 1, 57, 0
1, 60120, Note_on_c, 1, 62, 127
1, 60120, Note_on_c, 1, 55, 127
1, 60168, Note_off_c, 1, 62, 0
1, 60180, Note_on_c, 1, 65, 127
1, 60228, Note_off_c, 1, 65, 0
1, 60240, Note_on_c, 1, 67, 127
1, 60288, Note_off_c, 1, 67, 0
1, 60300, Note_on_c, 1, 71, 127
1, 60348, Note_off_c, 1, 71, 0
1, 60360, Note_on_c, 1, 43, 127
1, 60408, Note_off_c, 1, 55, 0
1, 60456, Note_off_c, 1, 43, 0
1, 60480, Note_on_c, 1, 64, 127
1, 60480, Note_on_c, 1, 72, 127
1, 60480, Note_on_c, 1, 48, 127
1, 60528, Note_off_c, 1, 48, 0
1, 60540, Note_on_c, 1, 60, 127
1, 60588, Note_off_c, 1, 60, 0
1, 60600, Note_on_c, 1, 58, 127
1, 60648, Note_off_c, 1, 58, 0
1, 60660, Note_on_c, 1, 57, 127
1, 60708, Note_off_c, 1, 57, 0
1, 60720, Note_on_c, 1, 55, 127
1, 60768, Note_off_c, 1, 64, 0
1, 60768, Note_off_c, 1, 55, 0
1, 60780, Note_on_c, 1, 53, 127
1, 60828, Note_off_c, 1, 53, 0
1, 60840, Note_on_c, 1, 52, 127
1, 60888, Note_off_c, 1, 72, 0
1, 60900, Note_on_c, 1, 67, 127
1, 60930, Note_off_c, 1, 52, 0
1, 60948, Note_off_c, 1, 67, 0
1, 60960, Note_on_c, 1, 69, 127
1, 60960, Note_on_c, 1, 54, 127
1, 61008, Note_off_c, 1, 69, 0
1, 61020, Note_on_c, 1, 71, 127
1, 61050, Note_off_c, 1, 54, 0
1, 61068, Note_off_c, 1, 71, 0
1, 61080, Note_on_c, 1, 72, 127
1, 61080, Note_on_c, 1, 55, 127
1, 61128, Note_off_c, 1, 72, 0
1, 61140, Note_on_c, 1, 74, 127
1, 61170, Note_off_c, 1, 55, 0
1, 61188, Note_off_c, 1, 74, 0
1, 61200, Note_on_c, 1, 75, 127
1, 61200, Note_on_c, 1, 54, 127
1, 61290, Note_off_c, 1, 54, 0
1, 61296, Note_off_c, 1, 75, 0
1, 61320, Note_on_c, 1, 74, 127
1, 61320, Note_on_c, 1, 55, 127
1, 61410, Note_off_c, 1, 55, 0
1, 61416, Note_off_c, 1, 74, 0
1, 61440, Note_on_c, 1, 72, 127
1, 61440, Note_on_c, 1, 57, 127
1, 61530, Note_off_c, 1, 72, 0
1, 61530, Note_off_c, 1, 57, 0
1, 61560, Note_on_c, 1, 70, 127
1, 61560, Note_on_c, 1, 55, 127
1, 61620, Note_on_c, 1, 67, 127
1, 61668, Note_off_c, 1, 67, 0
1, 61680, Note_on_c, 1, 66, 127
1, 61728, Note_off_c, 1, 66, 0
1, 61740, Note_on_c, 1, 64, 127
1, 61752, Note_off_c, 1, 55, 0
1, 61788, Note_off_c, 1, 64, 0
1, 61800, Note_on_c, 1, 62, 127
1, 61848, Note_off_c, 1, 62, 0
1, 61860, Note_on_c, 1, 60, 127
1, 61908, Note_off_c, 1, 60, 0
1, 61920, Note_on_c, 1, 58, 127
1, 61968, Note_off_c, 1, 58, 0
1, 61980, Note_on_c, 1, 57, 127
1, 62028, Note_off_c, 1, 57, 0
1, 62100, Note_on_c, 1, 53, 127
1, 62112, Note_off_c, 1, 70, 0
1, 62148, Note_off_c, 1, 53, 0
1, 62160, Note_on_c, 1, 70, 127
1, 62160, Note_on_c, 1, 67, 127
1, 62160, Note_on_c, 1, 65, 127
1, 62160, Note_on_c, 1, 52, 127
1, 62208, Note_off_c, 1, 52, 0
1, 62220, Note_on_c, 1, 50, 127
1, 62250, Note_off_c, 1, 70, 0
1, 62256, Note_off_c, 1, 67, 0
1, 62256, Note_off_c, 1, 65, 0
1, 62268, Note_off_c, 1, 50, 0
1, 62280, Note_on_c, 1, 74, 127
1, 62280, Note_on_c, 1, 70, 127
1, 62280, Note_on_c, 1, 64, 127
1, 62280, Note_on_c, 1, 48, 127
1, 62376, Note_off_c, 1, 74, 0
1, 62376, Note_off_c, 1, 70, 0
1, 62400, Note_on_c, 1, 72, 127
1, 62400, Note_on_c, 1, 69, 127
1, 62496, Note_off_c, 1, 72, 0
1, 62496, Note_off_c, 1, 69, 0
1, 62520, Note_on_c, 1, 67, 127
1, 62568, Note_off_c, 1, 64, 0
1, 62568, Note_off_c, 1, 48, 0
1, 62616, Note_off_c, 1, 67, 0
1, 62640, Note_on_c, 1, 69, 127
1, 62640, Note_on_c, 1, 53, 127
1, 62700, Note_on_c, 1, 65, 127
1, 62748, Note_off_c, 1, 65, 0
1, 62760, Note_on_c, 1, 64, 127
1, 62808, Note_off_c, 1, 64, 0
1, 62820, Note_on_c, 1, 62, 127
1, 62832, Note_off_c, 1, 53, 0
1, 62868, Note_off_c, 1, 62, 0
1, 62880, Note_on_c, 1, 60, 127
1, 62928, Note_off_c, 1, 60, 0
1, 62940, Note_on_c, 1, 58, 127
1, 62988, Note_off_c, 1, 58, 0
1, 63000, Note_on_c, 1, 57, 127
1, 63048, Note_off_c, 1, 57, 0
1, 63060, Note_on_c, 1, 55, 127
1, 63108, Note_off_c, 1, 55, 0
1, 63180, Note_on_c, 1, 52, 127
1, 63192, Note_off_c, 1, 69, 0
1, 63228, Note_off_c, 1, 52, 0
1, 63240, Note_on_c, 1, 69, 127
1, 63240, Note_on_c, 1, 50, 127
1, 63288, Note_off_c, 1, 50, 0
1, 63300, Note_on_c, 1, 48, 127
1, 63348, Note_off_c, 1, 48, 0
1, 63360, Note_on_c, 1, 74, 127
1, 63360, Note_on_c, 1, 47, 127
1, 63408, Note_off_c, 1, 74, 0
1, 63420, Note_on_c, 1, 76, 127
1, 63468, Note_off_c, 1, 76, 0
1, 63600, Note_on_c, 1, 77, 127
1, 63648, Note_off_c, 1, 69, 0
1, 63648, Note_off_c, 1, 47, 0
1, 63696, Note_off_c, 1, 77, 0
1, 63720, Note_on_c, 1, 67, 127
1, 63780, Note_on_c, 1, 52, 127
1, 63828, Note_off_c, 1, 52, 0
1, 63840, Note_on_c, 1, 53, 127
1, 63888, Note_off_c, 1, 53, 0
1, 63900, Note_on_c, 1, 55, 127
1, 63948, Note_off_c, 1, 55, 0
1, 63960, Note_on_c, 1, 57, 127
1, 64008, Note_off_c, 1, 67, 0
1, 64008, Note_off_c, 1, 57, 0
1, 64020, Note_on_c, 1, 59, 127
1, 64068, Note_off_c, 1, 59, 0
1, 64080, Note_on_c, 1, 61, 127
1, 64128, Note_off_c, 1, 61, 0
1, 64140, Note_on_c, 1, 62, 127
1, 64188, Note_off_c, 1, 62, 0
1, 64200, Note_on_c, 1, 64, 127
1, 64248, Note_off_c, 1, 64, 0
1, 64260, Note_on_c, 1, 65, 127
1, 64308, Note_off_c, 1, 65, 0
1, 64320, Note_on_c, 1, 67, 127
1, 64320, Note_on_c, 1, 52, 127
1, 64380, Note_on_c, 1, 69, 127
1, 64416, Note_off_c, 1, 67, 0
1, 64416, Note_off_c, 1, 52, 0
1, 64428, Note_off_c, 1, 69, 0
1, 64440, Note_on_c, 1, 67, 127
1, 64440, Note_on_c, 1, 71, 127
1, 64440, Note_on_c, 1, 61, 127
1, 64440, Note_on_c, 1, 57, 127
1, 64536, Note_off_c, 1, 67, 0
1, 64536, Note_off_c, 1, 71, 0
1, 64560, Note_on_c, 1, 69, 127
1, 64560, Note_on_c, 1, 65, 127
1, 64632, Note_off_c, 1, 57, 0
1, 64656, Note_off_c, 1, 69, 0
1, 64656, Note_off_c, 1, 65, 0
1, 64680, Note_on_c, 1, 64, 127
1, 64680, Note_on_c, 1, 52, 127
1, 64728, Note_off_c, 1, 61, 0
1, 64776, Note_off_c, 1, 64, 0
1, 64776, Note_off_c, 1, 52, 0
1, 64800, Note_on_c, 1, 65, 127
1, 64800, Note_on_c, 1, 50, 127
1, 64848, Note_off_c, 1, 65, 0
1, 64860, Note_on_c, 1, 62, 127
1, 64896, Note_off_c, 1, 50, 0
1, 64908, Note_off_c, 1, 62, 0
1, 64920, Note_on_c, 1, 61, 127
1, 64920, Note_on_c, 1, 53, 127
1, 64968, Note_off_c, 1, 61, 0
1, 64980, Note_on_c, 1, 59, 127
1, 65016, Note_off_c, 1, 53, 0
1, 65028, Note_off_c, 1, 59, 0
1, 65040, Note_on_c, 1, 61, 127
1, 65040, Note_on_c, 1, 45, 127
1, 65088, Note_off_c, 1, 61, 0
1, 65100, Note_on_c, 1, 62, 127
1, 65130, Note_off_c, 1, 45, 0
1, 65148, Note_off_c, 1, 62, 0
1, 65160, Note_on_c, 1, 67, 127
1, 65160, Note_on_c, 1, 52, 127
1, 65208, Note_off_c, 1, 67, 0
1, 65220, Note_on_c, 1, 64, 127
1, 65256, Note_off_c, 1, 52, 0
1, 65268, Note_off_c, 1, 64, 0
1, 65280, Note_on_c, 1, 62, 127
1, 65280, Note_on_c, 1, 55, 127
1, 65328, Note_off_c, 1, 62, 0
1, 65340, Note_on_c, 1, 61, 127
1, 65376, Note_off_c, 1, 55, 0
1, 65388, Note_off_c, 1, 61, 0
1, 65400, Note_on_c, 1, 62, 127
1, 65400, Note_on_c, 1, 45, 127
1, 65448, Note_off_c, 1, 62, 0
1, 65460, Note_on_c, 1, 64, 127
1, 65490, Note_off_c, 1, 45, 0
1, 65508, Note_off_c, 1, 64, 0
1, 65520, Note_on_c, 1, 69, 127
1, 65520, Note_on_c, 1, 53, 127
1, 65568, Note_off_c, 1, 69, 0
1, 65580, Note_on_c, 1, 65, 127
1, 65616, Note_off_c, 1, 53, 0
1, 65628, Note_off_c, 1, 65, 0
1, 65640, Note_on_c, 1, 64, 127
1, 65640, Note_on_c, 1, 57, 127
1, 65688, Note_off_c, 1, 64, 0
1, 65700, Note_on_c, 1, 62, 127
1, 65736, Note_off_c, 1, 57, 0
1, 65748, Note_off_c, 1, 62, 0
1, 65760, Note_on_c, 1, 64, 127
1, 65760, Note_on_c, 1, 50, 127
1, 65808, Note_off_c, 1, 64, 0
1, 65820, Note_on_c, 1, 65, 127
1, 65850, Note_off_c, 1, 50, 0
1, 65868, Note_off_c, 1, 65, 0
1, 65880, Note_on_c, 1, 71, 127
1, 65880, Note_on_c, 1, 55, 127
1, 65928, Note_off_c, 1, 71, 0
1, 65940, Note_on_c, 1, 67, 127
1, 65976, Note_off_c, 1, 55, 0
1, 65988, Note_off_c, 1, 67, 0
1, 66000, Note_on_c, 1, 65, 127
1, 66000, Note_on_c, 1, 43, 127
1, 66048, Note_off_c, 1, 65, 0
1, 66060, Note_on_c, 1, 64, 127
1, 66096, Note_off_c, 1, 43, 0
1, 66108, Note_off_c, 1, 64, 0
1, 66120, Note_on_c, 1, 65, 127
1, 66120, Note_on_c, 1, 55, 127
1, 66168, Note_off_c, 1, 65, 0
1, 66180, Note_on_c, 1, 67, 127
1, 66210, Note_off_c, 1, 55, 0
1, 66228, Note_off_c, 1, 67, 0
1, 66240, Note_on_c, 1, 73, 127
1, 66240, Note_on_c, 1, 55, 127
1, 66288, Note_off_c, 1, 73, 0
1, 66300, Note_on_c, 1, 69, 127
1, 66336, Note_off_c, 1, 55, 0
1, 66348, Note_off_c, 1, 69, 0
1, 66360, Note_on_c, 1, 67, 127
1, 66360, Note_on_c, 1, 45, 127
1, 66408, Note_off_c, 1, 67, 0
1, 66420, Note_on_c, 1, 65, 127
1, 66456, Note_off_c, 1, 45, 0
1, 66468, Note_off_c, 1, 65, 0
1, 66480, Note_on_c, 1, 67, 127
1, 66480, Note_on_c, 1, 55, 127
1, 66528, Note_off_c, 1, 67, 0
1, 66540, Note_on_c, 1, 69, 127
1, 66570, Note_off_c, 1, 55, 0
1, 66588, Note_off_c, 1, 69, 0
1, 66600, Note_on_c, 1, 74, 127
1, 66600, Note_on_c, 1, 55, 127
1, 66648, Note_off_c, 1, 74, 0
1, 66660, Note_on_c, 1, 70, 127
1, 66696, Note_off_c, 1, 55, 0
1, 66708, Note_off_c, 1, 70, 0
1, 66720, Note_on_c, 1, 69, 127
1, 66720, Note_on_c, 1, 46, 127
1, 66768, Note_off_c, 1, 69, 0
1, 66780, Note_on_c, 1, 67, 127
1, 66816, Note_off_c, 1, 46, 0
1, 66828, Note_off_c, 1, 67, 0
1, 66840, Note_on_c, 1, 69, 127
1, 66840, Note_on_c, 1, 55, 127
1, 66888, Note_off_c, 1, 69, 0
1, 66900, Note_on_c, 1, 70, 127
1, 66930, Note_off_c, 1, 55, 0
1, 66948, Note_off_c, 1, 70, 0
1, 66960, Note_on_c, 1, 76, 127
1, 66960, Note_on_c, 1, 49, 127
1, 67008, Note_off_c, 1, 76, 0
1, 67020, Note_on_c, 1, 70, 127
1, 67056, Note_off_c, 1, 49, 0
1, 67068, Note_off_c, 1, 70, 0
1, 67080, Note_on_c, 1, 69, 127
1, 67080, Note_on_c, 1, 52, 127
1, 67128, Note_off_c, 1, 69, 0
1, 67140, Note_on_c, 1, 67, 127
1, 67176, Note_off_c, 1, 52, 0
1, 67188, Note_off_c, 1, 67, 0
1, 67200, Note_on_c, 1, 65, 127
1, 67200, Note_on_c, 1, 57, 127
1, 67248, Note_off_c, 1, 65, 0
1, 67260, Note_on_c, 1, 64, 127
1, 67296, Note_off_c, 1, 57, 0
1, 67308, Note_off_c, 1, 64, 0
1, 67320, Note_on_c, 1, 65, 127
1, 67320, Note_on_c, 1, 50, 127
1, 67368, Note_off_c, 1, 65, 0
1, 67380, Note_on_c, 1, 69, 127
1, 67416, Note_off_c, 1, 50, 0
1, 67428, Note_off_c, 1, 69, 0
1, 67440, Note_on_c, 1, 70, 127
1, 67440, Note_on_c, 1, 53, 127
1, 67488, Note_off_c, 1, 70, 0
1, 67500, Note_on_c, 1, 72, 127
1, 67536, Note_off_c, 1, 53, 0
1, 67548, Note_off_c, 1, 72, 0
1, 67560, Note_on_c, 1, 70, 127
1, 67560, Note_on_c, 1, 57, 127
1, 67608, Note_off_c, 1, 70, 0
1, 67620, Note_on_c, 1, 69, 127
1, 67656, Note_off_c, 1, 57, 0
1, 67668, Note_off_c, 1, 69, 0
1, 67680, Note_on_c, 1, 67, 127
1, 67680, Note_on_c, 1, 46, 127
1, 67728, Note_off_c, 1, 67, 0
1, 67740, Note_on_c, 1, 74, 127
1, 67776, Note_off_c, 1, 46, 0
1, 67788, Note_off_c, 1, 74, 0
1, 67800, Note_on_c, 1, 76, 127
1, 67800, Note_on_c, 1, 50, 127
1, 67848, Note_off_c, 1, 76, 0
1, 67860, Note_on_c, 1, 77, 127
1, 67896, Note_off_c, 1, 50, 0
1, 67908, Note_off_c, 1, 77, 0
1, 67920, Note_on_c, 1, 76, 127
1, 67920, Note_on_c, 1, 55, 127
1, 67968, Note_off_c, 1, 76, 0
1, 67980, Note_on_c, 1, 74, 127
1, 68016, Note_off_c, 1, 55, 0
1, 68028, Note_off_c, 1, 74, 0
1, 68040, Note_on_c, 1, 73, 127
1, 68040, Note_on_c, 1, 57, 127
1, 68088, Note_off_c, 1, 57, 0
1, 68100, Note_on_c, 1, 45, 127
1, 68148, Note_off_c, 1, 45, 0
1, 68160, Note_on_c, 1, 47, 127
1, 68208, Note_off_c, 1, 47, 0
1, 68220, Note_on_c, 1, 49, 127
1, 68268, Note_off_c, 1, 49, 0
1, 68280, Note_on_c, 1, 50, 127
1, 68328, Note_off_c, 1, 50, 0
1, 68340, Note_on_c, 1, 52, 127
1, 68388, Note_off_c, 1, 52, 0
1, 68400, Note_on_c, 1, 53, 127
1, 68448, Note_off_c, 1, 73, 0
1, 68460, Note_on_c, 1, 71, 127
1, 68490, Note_off_c, 1, 53, 0
1, 68508, Note_off_c, 1, 71, 0
1, 68520, Note_on_c, 1, 73, 127
1, 68520, Note_on_c, 1, 52, 127
1, 68568, Note_off_c, 1, 73, 0
1, 68580, Note_on_c, 1, 74, 127
1, 68610, Note_off_c, 1, 52, 0
1, 68628, Note_off_c, 1, 74, 0
1, 68640, Note_on_c, 1, 76, 127
1, 68640, Note_on_c, 1, 50, 127
1, 68688, Note_off_c, 1, 76, 0
1, 68700, Note_on_c, 1, 77, 127
1, 68730, Note_off_c, 1, 50, 0
1, 68748, Note_off_c, 1, 77, 0
1, 68760, Note_on_c, 1, 79, 127
1, 68760, Note_on_c, 1, 52, 127
1, 68808, Note_off_c, 1, 79, 0
1, 68820, Note_on_c, 1, 77, 127
1, 68850, Note_off_c, 1, 52, 0
1, 68868, Note_off_c, 1, 77, 0
1, 68880, Note_on_c, 1, 76, 127
1, 68880, Note_on_c, 1, 50, 127
1, 68928, Note_off_c, 1, 76, 0
1, 68940, Note_on_c, 1, 77, 127
1, 68970, Note_off_c, 1, 50, 0
1, 68988, Note_off_c, 1, 77, 0
1, 69000, Note_on_c, 1, 79, 127
1, 69000, Note_on_c, 1, 49, 127
1, 69048, Note_off_c, 1, 79, 0
1, 69060, Note_on_c, 1, 76, 127
1, 69090, Note_off_c, 1, 49, 0
1, 69108, Note_off_c, 1, 76, 0
1, 69120, Note_on_c, 1, 77, 127
1, 69120, Note_on_c, 1, 50, 127
1, 69168, Note_off_c, 1, 77, 0
1, 69180, Note_on_c, 1, 74, 127
1, 69228, Note_off_c, 1, 74, 0
1, 69240, Note_on_c, 1, 76, 127
1, 69288, Note_off_c, 1, 76, 0
1, 69300, Note_on_c, 1, 78, 127
1, 69348, Note_off_c, 1, 78, 0
1, 69360, Note_on_c, 1, 79, 127
1, 69408, Note_off_c, 1, 79, 0
1, 69420, Note_on_c, 1, 81, 127
1, 69468, Note_off_c, 1, 81, 0
1, 69480, Note_on_c, 1, 82, 127
1, 69528, Note_off_c, 1, 50, 0
1, 69540, Note_on_c, 1, 52, 127
1, 69570, Note_off_c, 1, 82, 0
1, 69588, Note_off_c, 1, 52, 0
1, 69600, Note_on_c, 1, 81, 127
1, 69600, Note_on_c, 1, 54, 127
1, 69648, Note_off_c, 1, 54, 0
1, 69660, Note_on_c, 1, 55, 127
1, 69690, Note_off_c, 1, 81, 0
1, 69708, Note_off_c, 1, 55, 0
1, 69720, Note_on_c, 1, 79, 127
1, 69720, Note_on_c, 1, 57, 127
1, 69768, Note_off_c, 1, 57, 0
1, 69780, Note_on_c, 1, 58, 127
1, 69810, Note_off_c, 1, 79, 0
1, 69828, Note_off_c, 1, 58, 0
1, 69840, Note_on_c, 1, 81, 127
1, 69840, Note_on_c, 1, 60, 127
1, 69888, Note_off_c, 1, 60, 0
1, 69900, Note_on_c, 1, 58, 127
1, 69930, Note_off_c, 1, 81, 0
1, 69948, Note_off_c, 1, 58, 0
1, 69960, Note_on_c, 1, 79, 127
1, 69960, Note_on_c, 1, 57, 127
1, 70008, Note_off_c, 1, 57, 0
1, 70020, Note_on_c, 1, 58, 127
1, 70050, Note_off_c, 1, 79, 0
1, 70068, Note_off_c, 1, 58, 0
1, 70080, Note_on_c, 1, 78, 127
1, 70080, Note_on_c, 1, 60, 127
1, 70128, Note_off_c, 1, 60, 0
1, 70140, Note_on_c, 1, 57, 127
1, 70170, Note_off_c, 1, 78, 0
1, 70188, Note_off_c, 1, 57, 0
1, 70200, Note_on_c, 1, 79, 127
1, 70200, Note_on_c, 1, 59, 127
1, 70248, Note_off_c, 1, 59, 0
1, 70260, Note_on_c, 1, 55, 127
1, 70308, Note_off_c, 1, 55, 0
1, 70320, Note_on_c, 1, 57, 127
1, 70368, Note_off_c, 1, 57, 0
1, 70440, Note_on_c, 1, 60, 127
1, 70488, Note_off_c, 1, 60, 0
1, 70500, Note_on_c, 1, 62, 127
1, 70548, Note_off_c, 1, 62, 0
1, 70560, Note_on_c, 1, 64, 127
1, 70608, Note_off_c, 1, 79, 0
1, 70620, Note_on_c, 1, 69, 127
1, 70650, Note_off_c, 1, 64, 0
1, 70668, Note_off_c, 1, 69, 0
1, 70680, Note_on_c, 1, 71, 127
1, 70680, Note_on_c, 1, 62, 127
1, 70728, Note_off_c, 1, 71, 0
1, 70740, Note_on_c, 1, 72, 127
1, 70770, Note_off_c, 1, 62, 0
1, 70788, Note_off_c, 1, 72, 0
1, 70800, Note_on_c, 1, 74, 127
1, 70800, Note_on_c, 1, 60, 127
1, 70848, Note_off_c, 1, 74, 0
1, 70860, Note_on_c, 1, 76, 127
1, 70890, Note_off_c, 1, 60, 0
1, 70908, Note_off_c, 1, 76, 0
1, 70920, Note_on_c, 1, 77, 127
1, 70920, Note_on_c, 1, 62, 127
1, 70968, Note_off_c, 1, 77, 0
1, 70980, Note_on_c, 1, 76, 127
1, 71010, Note_off_c, 1, 62, 0
1, 71028, Note_off_c, 1, 76, 0
1, 71040, Note_on_c, 1, 74, 127
1, 71040, Note_on_c, 1, 60, 127
1, 71088, Note_off_c, 1, 74, 0
1, 71100, Note_on_c, 1, 76, 127
1, 71130, Note_off_c, 1, 60, 0
1, 71148, Note_off_c, 1, 76, 0
1, 71160, Note_on_c, 1, 77, 127
1, 71160, Note_on_c, 1, 59, 127
1, 71208, Note_off_c, 1, 77, 0
1, 71220, Note_on_c, 1, 74, 127
1, 71250, Note_off_c, 1, 59, 0
1, 71268, Note_off_c, 1, 74, 0
1, 71280, Note_on_c, 1, 76, 127
1, 71280, Note_on_c, 1, 60, 127
1, 71328, Note_off_c, 1, 76, 0
1, 71340, Note_on_c, 1, 72, 127
1, 71388, Note_off_c, 1, 72, 0
1, 71400, Note_on_c, 1, 74, 127
1, 71448, Note_off_c, 1, 74, 0
1, 71520, Note_on_c, 1, 77, 127
1, 71568, Note_off_c, 1, 77, 0
1, 71580, Note_on_c, 1, 79, 127
1, 71628, Note_off_c, 1, 79, 0
1, 71640, Note_on_c, 1, 81, 127
1, 71688, Note_off_c, 1, 60, 0
1, 71700, Note_on_c, 1, 62, 127
1, 71730, Note_off_c, 1, 81, 0
1, 71748, Note_off_c, 1, 62, 0
1, 71760, Note_on_c, 1, 64, 127
1, 71760, Note_on_c, 1, 79, 127
1, 71808, Note_off_c, 1, 64, 0
1, 71820, Note_on_c, 1, 65, 127
1, 71850, Note_off_c, 1, 79, 0
1, 71868, Note_off_c, 1, 65, 0
1, 71880, Note_on_c, 1, 67, 127
1, 71880, Note_on_c, 1, 77, 127
1, 71928, Note_off_c, 1, 67, 0
1, 71940, Note_on_c, 1, 69, 127
1, 71970, Note_off_c, 1, 77, 0
1, 71988, Note_off_c, 1, 69, 0
1, 72000, Note_on_c, 1, 70, 127
1, 72000, Note_on_c, 1, 79, 127
1, 72048, Note_off_c, 1, 70, 0
1, 72060, Note_on_c, 1, 69, 127
1, 72090, Note_off_c, 1, 79, 0
1, 72108, Note_off_c, 1, 69, 0
1, 72120, Note_on_c, 1, 67, 127
1, 72120, Note_on_c, 1, 77, 127
1, 72168, Note_off_c, 1, 67, 0
1, 72180, Note_on_c, 1, 69, 127
1, 72210, Note_off_c, 1, 77, 0
1, 72228, Note_off_c, 1, 69, 0
1, 72240, Note_on_c, 1, 70, 127
1, 72240, Note_on_c, 1, 76, 127
1, 72288, Note_off_c, 1, 70, 0
1, 72300, Note_on_c, 1, 67, 127
1, 72330, Note_off_c, 1, 76, 0
1, 72348, Note_off_c, 1, 67, 0
1, 72360, Note_on_c, 1, 69, 127
1, 72360, Note_on_c, 1, 77, 127
1, 72408, Note_off_c, 1, 69, 0
1, 72420, Note_on_c, 1, 65, 127
1, 72456, Note_off_c, 1, 77, 0
1, 72468, Note_off_c, 1, 65, 0
1, 72480, Note_on_c, 1, 64, 127
1, 72480, Note_on_c, 1, 82, 127
1, 72528, Note_off_c, 1, 64, 0
1, 72540, Note_on_c, 1, 62, 127
1, 72570, Note_off_c, 1, 82, 0
1, 72588, Note_off_c, 1, 62, 0
1, 72600, Note_on_c, 1, 64, 127
1, 72600, Note_on_c, 1, 74, 127
1, 72648, Note_off_c, 1, 64, 0
1, 72660, Note_on_c, 1, 65, 127
1, 72690, Note_off_c, 1, 74, 0
1, 72708, Note_off_c, 1, 65, 0
1, 72720, Note_on_c, 1, 67, 127
1, 72720, Note_on_c, 1, 76, 127
1, 72768, Note_off_c, 1, 67, 0
1, 72780, Note_on_c, 1, 64, 127
1, 72816, Note_off_c, 1, 76, 0
1, 72828, Note_off_c, 1, 64, 0
1, 72840, Note_on_c, 1, 62, 127
1, 72840, Note_on_c, 1, 81, 127
1, 72888, Note_off_c, 1, 62, 0
1, 72900, Note_on_c, 1, 60, 127
1, 72930, Note_off_c, 1, 81, 0
1, 72948, Note_off_c, 1, 60, 0
1, 72960, Note_on_c, 1, 62, 127
1, 72960, Note_on_c, 1, 72, 127
1, 73008, Note_off_c, 1, 62, 0
1, 73020, Note_on_c, 1, 64, 127
1, 73050, Note_off_c, 1, 72, 0
1, 73068, Note_off_c, 1, 64, 0
1, 73080, Note_on_c, 1, 65, 127
1, 73080, Note_on_c, 1, 74, 127
1, 73128, Note_off_c, 1, 65, 0
1, 73140, Note_on_c, 1, 62, 127
1, 73176, Note_off_c, 1, 74, 0
1, 73188, Note_off_c, 1, 62, 0
1, 73200, Note_on_c, 1, 60, 127
1, 73200, Note_on_c, 1, 79, 127
1, 73248, Note_off_c, 1, 60, 0
1, 73260, Note_on_c, 1, 58, 127
1, 73290, Note_off_c, 1, 79, 0
1, 73308, Note_off_c, 1, 58, 0
1, 73320, Note_on_c, 1, 60, 127
1, 73320, Note_on_c, 1, 70, 127
1, 73368, Note_off_c, 1, 60, 0
1, 73380, Note_on_c, 1, 62, 127
1, 73410, Note_off_c, 1, 70, 0
1, 73428, Note_off_c, 1, 62, 0
1, 73440, Note_on_c, 1, 72, 127
1, 73440, Note_on_c, 1, 64, 127
1, 73488, Note_off_c, 1, 64, 0
1, 73500, Note_on_c, 1, 60, 127
1, 73536, Note_off_c, 1, 72, 0
1, 73548, Note_off_c, 1, 60, 0
1, 73560, Note_on_c, 1, 77, 127
1, 73560, Note_on_c, 1, 58, 127
1, 73608, Note_off_c, 1, 58, 0
1, 73620, Note_on_c, 1, 57, 127
1, 73656, Note_off_c, 1, 77, 0
1, 73668, Note_off_c, 1, 57, 0
1, 73680, Note_on_c, 1, 69, 127
1, 73680, Note_on_c, 1, 58, 127
1, 73728, Note_off_c, 1, 58, 0
1, 73740, Note_on_c, 1, 60, 127
1, 73770, Note_off_c, 1, 69, 0
1, 73788, Note_off_c, 1, 60, 0
1, 73800, Note_on_c, 1, 70, 127
1, 73800, Note_on_c, 1, 62, 127
1, 73848, Note_off_c, 1, 62, 0
1, 73860, Note_on_c, 1, 58, 127
1, 73896, Note_off_c, 1, 70, 0
1, 73908, Note_off_c, 1, 58, 0
1, 73920, Note_on_c, 1, 76, 127
1, 73920, Note_on_c, 1, 57, 127
1, 73968, Note_off_c, 1, 57, 0
1, 73980, Note_on_c, 1, 55, 127
1, 74016, Note_off_c, 1, 76, 0
1, 74028, Note_off_c, 1, 55, 0
1, 74040, Note_on_c, 1, 67, 127
1, 74040, Note_on_c, 1, 57, 127
1, 74088, Note_off_c, 1, 57, 0
1, 74100, Note_on_c, 1, 58, 127
1, 74130, Note_off_c, 1, 67, 0
1, 74148, Note_off_c, 1, 58, 0
1, 74160, Note_on_c, 1, 69, 127
1, 74160, Note_on_c, 1, 60, 127
1, 74208, Note_off_c, 1, 60, 0
1, 74220, Note_on_c, 1, 57, 127
1, 74256, Note_off_c, 1, 69, 0
1, 74268, Note_off_c, 1, 57, 0
1, 74280, Note_on_c, 1, 74, 127
1, 74280, Note_on_c, 1, 55, 127
1, 74328, Note_off_c, 1, 55, 0
1, 74340, Note_on_c, 1, 53, 127
1, 74376, Note_off_c, 1, 74, 0
1, 74388, Note_off_c, 1, 53, 0
1, 74400, Note_on_c, 1, 65, 127
1, 74400, Note_on_c, 1, 55, 127
1, 74448, Note_off_c, 1, 55, 0
1, 74460, Note_on_c, 1, 57, 127
1, 74490, Note_off_c, 1, 65, 0
1, 74508, Note_off_c, 1, 57, 0
1, 74520, Note_on_c, 1, 67, 127
1, 74520, Note_on_c, 1, 58, 127
1, 74568, Note_off_c, 1, 67, 0
1, 74580, Note_on_c, 1, 69, 127
1, 74628, Note_off_c, 1, 69, 0
1, 74640, Note_on_c, 1, 70, 127
1, 74688, Note_off_c, 1, 70, 0
1, 74700, Note_on_c, 1, 74, 127
1, 74748, Note_off_c, 1, 74, 0
1, 74808, Note_off_c, 1, 58, 0
1, 74820, Note_on_c, 1, 69, 127
1, 74868, Note_off_c, 1, 69, 0
1, 74880, Note_on_c, 1, 67, 127
1, 74928, Note_off_c, 1, 67, 0
1, 74940, Note_on_c, 1, 69, 127
1, 74988, Note_off_c, 1, 69, 0
1, 75000, Note_on_c, 1, 70, 127
1, 75048, Note_off_c, 1, 70, 0
1, 75060, Note_on_c, 1, 74, 127
1, 75108, Note_off_c, 1, 74, 0
1, 75120, Note_on_c, 1, 69, 127
1, 75168, Note_off_c, 1, 69, 0
1, 75180, Note_on_c, 1, 67, 127
1, 75228, Note_off_c, 1, 67, 0
1, 75240, Note_on_c, 1, 65, 127
1, 75240, Note_on_c, 1, 57, 127
1, 75288, Note_off_c, 1, 65, 0
1, 75300, Note_on_c, 1, 67, 127
1, 75348, Note_off_c, 1, 67, 0
1, 75360, Note_on_c, 1, 69, 127
1, 75408, Note_off_c, 1, 69, 0
1, 75420, Note_on_c, 1, 74, 127
1, 75468, Note_off_c, 1, 74, 0
1, 75528, Note_off_c, 1, 57, 0
1, 75540, Note_on_c, 1, 65, 127
1, 75588, Note_off_c, 1, 65, 0
1, 75600, Note_on_c, 1, 64, 127
1, 75600, Note_on_c, 1, 55, 127
1, 75648, Note_off_c, 1, 64, 0
1, 75660, Note_on_c, 1, 65, 127
1, 75708, Note_off_c, 1, 65, 0
1, 75720, Note_on_c, 1, 67, 127
1, 75768, Note_off_c, 1, 67, 0
1, 75780, Note_on_c, 1, 70, 127
1, 75828, Note_off_c, 1, 70, 0
1, 75888, Note_off_c, 1, 55, 0
1, 75900, Note_on_c, 1, 65, 127
1, 75948, Note_off_c, 1, 65, 0
1, 75960, Note_on_c, 1, 64, 127
1, 76008, Note_off_c, 1, 64, 0
1, 76020, Note_on_c, 1, 65, 127
1, 76068, Note_off_c, 1, 65, 0
1, 76080, Note_on_c, 1, 67, 127
1, 76128, Note_off_c, 1, 67, 0
1, 76140, Note_on_c, 1, 70, 127
1, 76188, Note_off_c, 1, 70, 0
1, 76200, Note_on_c, 1, 65, 127
1, 76248, Note_off_c, 1, 65, 0
1, 76260, Note_on_c, 1, 64, 127
1, 76308, Note_off_c, 1, 64, 0
1, 76320, Note_on_c, 1, 62, 127
1, 76320, Note_on_c, 1, 56, 127
1, 76368, Note_off_c, 1, 62, 0
1, 76380, Note_on_c, 1, 64, 127
1, 76428, Note_off_c, 1, 64, 0
1, 76440, Note_on_c, 1, 65, 127
1, 76488, Note_off_c, 1, 65, 0
1, 76500, Note_on_c, 1, 71, 127
1, 76548, Note_off_c, 1, 71, 0
1, 76608, Note_off_c, 1, 56, 0
1, 76620, Note_on_c, 1, 62, 127
1, 76668, Note_off_c, 1, 62, 0
1, 76680, Note_on_c, 1, 61, 127
1, 76680, Note_on_c, 1, 57, 127
1, 76728, Note_off_c, 1, 57, 0
1, 76740, Note_on_c, 1, 45, 127
1, 76776, Note_off_c, 1, 61, 0
1, 76788, Note_off_c, 1, 45, 0
1, 76800, Note_on_c, 1, 62, 127
1, 76800, Note_on_c, 1, 47, 127
1, 76848, Note_off_c, 1, 62, 0
1, 76848, Note_off_c, 1, 47, 0
1, 76860, Note_on_c, 1, 64, 127
1, 76860, Note_on_c, 1, 49, 127
1, 76908, Note_off_c, 1, 64, 0
1, 76908, Note_off_c, 1, 49, 0
1, 76920, Note_on_c, 1, 65, 127
1, 76920, Note_on_c, 1, 50, 127
1, 76968, Note_off_c, 1, 65, 0
1, 76968, Note_off_c, 1, 50, 0
1, 76980, Note_on_c, 1, 67, 127
1, 76980, Note_on_c, 1, 52, 127
1, 77028, Note_off_c, 1, 67, 0
1, 77028, Note_off_c, 1, 52, 0
1, 77040, Note_on_c, 1, 69, 127
1, 77040, Note_on_c, 1, 53, 127
1, 77088, Note_off_c, 1, 69, 0
1, 77100, Note_on_c, 1, 71, 127
1, 77130, Note_off_c, 1, 53, 0
1, 77148, Note_off_c, 1, 71, 0
1, 77160, Note_on_c, 1, 73, 127
1, 77160, Note_on_c, 1, 52, 127
1, 77208, Note_off_c, 1, 73, 0
1, 77220, Note_on_c, 1, 74, 127
1, 77250, Note_off_c, 1, 52, 0
1, 77268, Note_off_c, 1, 74, 0
1, 77280, Note_on_c, 1, 76, 127
1, 77280, Note_on_c, 1, 50, 127
1, 77328, Note_off_c, 1, 76, 0
1, 77340, Note_on_c, 1, 77, 127
1, 77370, Note_off_c, 1, 50, 0
1, 77388, Note_off_c, 1, 77, 0
1, 77400, Note_on_c, 1, 79, 127
1, 77400, Note_on_c, 1, 52, 127
1, 77448, Note_off_c, 1, 79, 0
1, 77460, Note_on_c, 1, 77, 127
1, 77490, Note_off_c, 1, 52, 0
1, 77508, Note_off_c, 1, 77, 0
1, 77520, Note_on_c, 1, 76, 127
1, 77520, Note_on_c, 1, 50, 127
1, 77568, Note_off_c, 1, 76, 0
1, 77580, Note_on_c, 1, 77, 127
1, 77610, Note_off_c, 1, 50, 0
1, 77628, Note_off_c, 1, 77, 0
1, 77640, Note_on_c, 1, 79, 127
1, 77640, Note_on_c, 1, 49, 127
1, 77688, Note_off_c, 1, 79, 0
1, 77700, Note_on_c, 1, 76, 127
1, 77730, Note_off_c, 1, 49, 0
1, 77748, Note_off_c, 1, 76, 0
1, 77760, Note_on_c, 1, 77, 127
1, 77760, Note_on_c, 1, 50, 127
1, 77808, Note_off_c, 1, 77, 0
1, 77820, Note_on_c, 1, 74, 127
1, 77856, Note_off_c, 1, 50, 0
1, 77868, Note_off_c, 1, 74, 0
1, 77880, Note_on_c, 1, 72, 127
1, 77880, Note_on_c, 1, 55, 127
1, 77928, Note_off_c, 1, 72, 0
1, 77940, Note_on_c, 1, 70, 127
1, 77976, Note_off_c, 1, 55, 0
1, 77988, Note_off_c, 1, 70, 0
1, 78000, Note_on_c, 1, 72, 127
1, 78000, Note_on_c, 1, 46, 127
1, 78048, Note_off_c, 1, 72, 0
1, 78060, Note_on_c, 1, 74, 127
1, 78090, Note_off_c, 1, 46, 0
1, 78108, Note_off_c, 1, 74, 0
1, 78120, Note_on_c, 1, 76, 127
1, 78120, Note_on_c, 1, 48, 127
1, 78168, Note_off_c, 1, 76, 0
1, 78180, Note_on_c, 1, 72, 127
1, 78216, Note_off_c, 1, 48, 0
1, 78228, Note_off_c, 1, 72, 0
1, 78240, Note_on_c, 1, 70, 127
1, 78240, Note_on_c, 1, 53, 127
1, 78288, Note_off_c, 1, 70, 0
1, 78300, Note_on_c, 1, 69, 127
1, 78336, Note_off_c, 1, 53, 0
1, 78348, Note_off_c, 1, 69, 0
1, 78360, Note_on_c, 1, 70, 127
1, 78360, Note_on_c, 1, 45, 127
1, 78408, Note_off_c, 1, 70, 0
1, 78420, Note_on_c, 1, 72, 127
1, 78450, Note_off_c, 1, 45, 0
1, 78468, Note_off_c, 1, 72, 0
1, 78480, Note_on_c, 1, 74, 127
1, 78480, Note_on_c, 1, 46, 127
1, 78528, Note_off_c, 1, 74, 0
1, 78540, Note_on_c, 1, 70, 127
1, 78576, Note_off_c, 1, 46, 0
1, 78588, Note_off_c, 1, 70, 0
1, 78600, Note_on_c, 1, 69, 127
1, 78600, Note_on_c, 1, 52, 127
1, 78648, Note_off_c, 1, 69, 0
1, 78660, Note_on_c, 1, 67, 127
1, 78696, Note_off_c, 1, 52, 0
1, 78708, Note_off_c, 1, 67, 0
1, 78720, Note_on_c, 1, 69, 127
1, 78720, Note_on_c, 1, 43, 127
1, 78768, Note_off_c, 1, 69, 0
1, 78780, Note_on_c, 1, 70, 127
1, 78810, Note_off_c, 1, 43, 0
1, 78828, Note_off_c, 1, 70, 0
1, 78840, Note_on_c, 1, 72, 127
1, 78840, Note_on_c, 1, 45, 127
1, 78888, Note_off_c, 1, 72, 0
1, 78900, Note_on_c, 1, 69, 127
1, 78936, Note_off_c, 1, 45, 0
1, 78948, Note_off_c, 1, 69, 0
1, 78960, Note_on_c, 1, 67, 127
1, 78960, Note_on_c, 1, 50, 127
1, 79008, Note_off_c, 1, 67, 0
1, 79020, Note_on_c, 1, 65, 127
1, 79056, Note_off_c, 1, 50, 0
1, 79068, Note_off_c, 1, 65, 0
1, 79080, Note_on_c, 1, 67, 127
1, 79080, Note_on_c, 1, 41, 127
1, 79128, Note_off_c, 1, 67, 0
1, 79140, Note_on_c, 1, 69, 127
1, 79170, Note_off_c, 1, 41, 0
1, 79188, Note_off_c, 1, 69, 0
1, 79200, Note_on_c, 1, 70, 127
1, 79200, Note_on_c, 1, 43, 127
1, 79248, Note_off_c, 1, 70, 0
1, 79260, Note_on_c, 1, 67, 127
1, 79296, Note_off_c, 1, 43, 0
1, 79308, Note_off_c, 1, 67, 0
1, 79320, Note_on_c, 1, 65, 127
1, 79320, Note_on_c, 1, 48, 127
1, 79368, Note_off_c, 1, 65, 0
1, 79380, Note_on_c, 1, 64, 127
1, 79416, Note_off_c, 1, 48, 0
1, 79428, Note_off_c, 1, 64, 0
1, 79440, Note_on_c, 1, 65, 127
1, 79440, Note_on_c, 1, 40, 127
1, 79488, Note_off_c, 1, 65, 0
1, 79500, Note_on_c, 1, 67, 127
1, 79530, Note_off_c, 1, 40, 0
1, 79548, Note_off_c, 1, 67, 0
1, 79560, Note_on_c, 1, 69, 127
1, 79560, Note_on_c, 1, 41, 127
1, 79608, Note_off_c, 1, 69, 0
1, 79620, Note_on_c, 1, 65, 127
1, 79656, Note_off_c, 1, 41, 0
1, 79668, Note_off_c, 1, 65, 0
1, 79680, Note_on_c, 1, 64, 127
1, 79680, Note_on_c, 1, 46, 127
1, 79728, Note_off_c, 1, 64, 0
1, 79740, Note_on_c, 1, 62, 127
1, 79776, Note_off_c, 1, 46, 0
1, 79788, Note_off_c, 1, 62, 0
1, 79800, Note_on_c, 1, 64, 127
1, 79800, Note_on_c, 1, 38, 127
1, 79848, Note_off_c, 1, 64, 0
1, 79860, Note_on_c, 1, 65, 127
1, 79890, Note_off_c, 1, 38, 0
1, 79908, Note_off_c, 1, 65, 0
1, 79920, Note_on_c, 1, 67, 127
1, 79920, Note_on_c, 1, 40, 127
1, 79968, Note_off_c, 1, 40, 0
1, 79980, Note_on_c, 1, 45, 127
1, 80028, Note_off_c, 1, 45, 0
1, 80040, Note_on_c, 1, 43, 127
1, 80088, Note_off_c, 1, 43, 0
1, 80100, Note_on_c, 1, 41, 127
1, 80148, Note_off_c, 1, 41, 0
1, 80220, Note_on_c, 1, 38, 127
1, 80268, Note_off_c, 1, 38, 0
1, 80280, Note_on_c, 1, 37, 127
1, 80328, Note_off_c, 1, 67, 0
1, 80340, Note_on_c, 1, 70, 127
1, 80370, Note_off_c, 1, 37, 0
1, 80388, Note_off_c, 1, 70, 0
1, 80400, Note_on_c, 1, 69, 127
1, 80400, Note_on_c, 1, 38, 127
1, 80448, Note_off_c, 1, 69, 0
1, 80460, Note_on_c, 1, 67, 127
1, 80490, Note_off_c, 1, 38, 0
1, 80508, Note_off_c, 1, 67, 0
1, 80520, Note_on_c, 1, 65, 127
1, 80520, Note_on_c, 1, 40, 127
1, 80568, Note_off_c, 1, 65, 0
1, 80580, Note_on_c, 1, 64, 127
1, 80610, Note_off_c, 1, 40, 0
1, 80628, Note_off_c, 1, 64, 0
1, 80640, Note_on_c, 1, 65, 127
1, 80640, Note_on_c, 1, 38, 127
1, 80688, Note_off_c, 1, 65, 0
1, 80700, Note_on_c, 1, 69, 127
1, 80730, Note_off_c, 1, 38, 0
1, 80748, Note_off_c, 1, 69, 0
1, 80760, Note_on_c, 1, 67, 127
1, 80760, Note_on_c, 1, 40, 127
1, 80808, Note_off_c, 1, 67, 0
1, 80820, Note_on_c, 1, 65, 127
1, 80850, Note_off_c, 1, 40, 0
1, 80868, Note_off_c, 1, 65, 0
1, 80880, Note_on_c, 1, 64, 127
1, 80880, Note_on_c, 1, 41, 127
1, 80928, Note_off_c, 1, 64, 0
1, 80940, Note_on_c, 1, 62, 127
1, 80970, Note_off_c, 1, 41, 0
1, 80988, Note_off_c, 1, 62, 0
1, 81000, Note_on_c, 1, 61, 127
1, 81000, Note_on_c, 1, 40, 127
1, 81048, Note_off_c, 1, 61, 0
1, 81060, Note_on_c, 1, 62, 127
1, 81090, Note_off_c, 1, 40, 0
1, 81108, Note_off_c, 1, 62, 0
1, 81120, Note_on_c, 1, 64, 127
1, 81120, Note_on_c, 1, 41, 127
1, 81168, Note_off_c, 1, 64, 0
1, 81180, Note_on_c, 1, 69, 127
1, 81210, Note_off_c, 1, 41, 0
1, 81228, Note_off_c, 1, 69, 0
1, 81240, Note_on_c, 1, 61, 127
1, 81240, Note_on_c, 1, 43, 127
1, 81288, Note_off_c, 1, 61, 0
1, 81300, Note_on_c, 1, 64, 127
1, 81330, Note_off_c, 1, 43, 0
1, 81348, Note_off_c, 1, 64, 0
1, 81360, Note_on_c, 1, 62, 127
1, 81360, Note_on_c, 1, 41, 127
1, 81408, Note_off_c, 1, 62, 0
1, 81420, Note_on_c, 1, 64, 127
1, 81450, Note_off_c, 1, 41, 0
1, 81468, Note_off_c, 1, 64, 0
1, 81480, Note_on_c, 1, 65, 127
1, 81480, Note_on_c, 1, 43, 127
1, 81528, Note_off_c, 1, 65, 0
1, 81540, Note_on_c, 1, 70, 127
1, 81570, Note_off_c, 1, 43, 0
1, 81588, Note_off_c, 1, 70, 0
1, 81600, Note_on_c, 1, 62, 127
1, 81600, Note_on_c, 1, 45, 127
1, 81648, Note_off_c, 1, 62, 0
1, 81660, Note_on_c, 1, 65, 127
1, 81690, Note_off_c, 1, 45, 0
1, 81708, Note_off_c, 1, 65, 0
1, 81720, Note_on_c, 1, 64, 127
1, 81720, Note_on_c, 1, 43, 127
1, 81768, Note_off_c, 1, 64, 0
1, 81780, Note_on_c, 1, 65, 127
1, 81810, Note_off_c, 1, 43, 0
1, 81828, Note_off_c, 1, 65, 0
1, 81840, Note_on_c, 1, 67, 127
1, 81840, Note_on_c, 1, 45, 127
1, 81888, Note_off_c, 1, 67, 0
1, 81900, Note_on_c, 1, 72, 127
1, 81930, Note_off_c, 1, 45, 0
1, 81948, Note_off_c, 1, 72, 0
1, 81960, Note_on_c, 1, 64, 127
1, 81960, Note_on_c, 1, 46, 127
1, 82008, Note_off_c, 1, 64, 0
1, 82020, Note_on_c, 1, 67, 127
1, 82050, Note_off_c, 1, 46, 0
1, 82068, Note_off_c, 1, 67, 0
1, 82080, Note_on_c, 1, 65, 127
1, 82080, Note_on_c, 1, 45, 127
1, 82128, Note_off_c, 1, 65, 0
1, 82140, Note_on_c, 1, 67, 127
1, 82170, Note_off_c, 1, 45, 0
1, 82188, Note_off_c, 1, 67, 0
1, 82200, Note_on_c, 1, 69, 127
1, 82200, Note_on_c, 1, 47, 127
1, 82248, Note_off_c, 1, 69, 0
1, 82260, Note_on_c, 1, 74, 127
1, 82290, Note_off_c, 1, 47, 0
1, 82308, Note_off_c, 1, 74, 0
1, 82320, Note_on_c, 1, 66, 127
1, 82320, Note_on_c, 1, 48, 127
1, 82368, Note_off_c, 1, 66, 0
1, 82380, Note_on_c, 1, 69, 127
1, 82410, Note_off_c, 1, 48, 0
1, 82428, Note_off_c, 1, 69, 0
1, 82440, Note_on_c, 1, 67, 127
1, 82440, Note_on_c, 1, 47, 127
1, 82488, Note_off_c, 1, 67, 0
1, 82500, Note_on_c, 1, 69, 127
1, 82530, Note_off_c, 1, 47, 0
1, 82548, Note_off_c, 1, 69, 0
1, 82560, Note_on_c, 1, 71, 127
1, 82560, Note_on_c, 1, 49, 127
1, 82608, Note_off_c, 1, 71, 0
1, 82620, Note_on_c, 1, 76, 127
1, 82650, Note_off_c, 1, 49, 0
1, 82668, Note_off_c, 1, 76, 0
1, 82680, Note_on_c, 1, 68, 127
1, 82680, Note_on_c, 1, 50, 127
1, 82728, Note_off_c, 1, 68, 0
1, 82740, Note_on_c, 1, 71, 127
1, 82770, Note_off_c, 1, 50, 0
1, 82788, Note_off_c, 1, 71, 0
1, 82800, Note_on_c, 1, 69, 127
1, 82800, Note_on_c, 1, 49, 127
1, 82848, Note_off_c, 1, 69, 0
1, 82848, Note_off_c, 1, 49, 0
1, 82860, Note_on_c, 1, 71, 127
1, 82860, Note_on_c, 1, 53, 127
1, 82908, Note_off_c, 1, 71, 0
1, 82908, Note_off_c, 1, 53, 0
1, 82920, Note_on_c, 1, 73, 127
1, 82920, Note_on_c, 1, 52, 127
1, 82968, Note_off_c, 1, 73, 0
1, 82968, Note_off_c, 1, 52, 0
1, 82980, Note_on_c, 1, 74, 127
1, 82980, Note_on_c, 1, 50, 127
1, 83028, Note_off_c, 1, 74, 0
1, 83028, Note_off_c, 1, 50, 0
1, 83040, Note_on_c, 1, 76, 127
1, 83040, Note_on_c, 1, 49, 127
1, 83088, Note_off_c, 1, 76, 0
1, 83088, Note_off_c, 1, 49, 0
1, 83100, Note_on_c, 1, 77, 127
1, 83100, Note_on_c, 1, 47, 127
1, 83148, Note_off_c, 1, 77, 0
1, 83148, Note_off_c, 1, 47, 0
1, 83160, Note_on_c, 1, 79, 127
1, 83160, Note_on_c, 1, 45, 127
1, 83208, Note_off_c, 1, 79, 0
1, 83220, Note_on_c, 1, 76, 127
1, 83256, Note_off_c, 1, 45, 0
1, 83268, Note_off_c, 1, 76, 0
1, 83280, Note_on_c, 1, 73, 127
1, 83280, Note_on_c, 1, 57, 127
1, 83328, Note_off_c, 1, 73, 0
1, 83340, Note_on_c, 1, 69, 127
1, 83376, Note_off_c, 1, 57, 0
1, 83388, Note_off_c, 1, 69, 0
1, 83400, Note_on_c, 1, 73, 127
1, 83400, Note_on_c, 1, 45, 127
1, 83448, Note_off_c, 1, 73, 0
1, 83460, Note_on_c, 1, 76, 127
1, 83490, Note_off_c, 1, 45, 0
1, 83508, Note_off_c, 1, 76, 0
1, 83520, Note_on_c, 1, 77, 127
1, 83520, Note_on_c, 1, 45, 127
1, 83568, Note_off_c, 1, 77, 0
1, 83580, Note_on_c, 1, 74, 127
1, 83616, Note_off_c, 1, 45, 0
1, 83628, Note_off_c, 1, 74, 0
1, 83640, Note_on_c, 1, 71, 127
1, 83640, Note_on_c, 1, 57, 127
1, 83688, Note_off_c, 1, 71, 0
1, 83700, Note_on_c, 1, 68, 127
1, 83736, Note_off_c, 1, 57, 0
1, 83748, Note_off_c, 1, 68, 0
1, 83760, Note_on_c, 1, 71, 127
1, 83760, Note_on_c, 1, 45, 127
1, 83808, Note_off_c, 1, 71, 0
1, 83820, Note_on_c, 1, 74, 127
1, 83850, Note_off_c, 1, 45, 0
1, 83868, Note_off_c, 1, 74, 0
1, 83880, Note_on_c, 1, 76, 127
1, 83880, Note_on_c, 1, 45, 127
1, 83928, Note_off_c, 1, 76, 0
1, 83940, Note_on_c, 1, 73, 127
1, 83976, Note_off_c, 1, 45, 0
1, 83988, Note_off_c, 1, 73, 0
1, 84000, Note_on_c, 1, 70, 127
1, 84000, Note_on_c, 1, 57, 127
1, 84048, Note_off_c, 1, 70, 0
1, 84060, Note_on_c, 1, 67, 127
1, 84096, Note_off_c, 1, 57, 0
1, 84108, Note_off_c, 1, 67, 0
1, 84120, Note_on_c, 1, 70, 127
1, 84120, Note_on_c, 1, 45, 127
1, 84168, Note_off_c, 1, 70, 0
1, 84180, Note_on_c, 1, 73, 127
1, 84210, Note_off_c, 1, 45, 0
1, 84228, Note_off_c, 1, 73, 0
1, 84240, Note_on_c, 1, 74, 127
1, 84240, Note_on_c, 1, 45, 127
1, 84288, Note_off_c, 1, 74, 0
1, 84300, Note_on_c, 1, 71, 127
1, 84336, Note_off_c, 1, 45, 0
1, 84348, Note_off_c, 1, 71, 0
1, 84360, Note_on_c, 1, 68, 127
1, 84360, Note_on_c, 1, 57, 127
1, 84408, Note_off_c, 1, 68, 0
1, 84420, Note_on_c, 1, 65, 127
1, 84456, Note_off_c, 1, 57, 0
1, 84468, Note_off_c, 1, 65, 0
1, 84480, Note_on_c, 1, 68, 127
1, 84480, Note_on_c, 1, 45, 127
1, 84528, Note_off_c, 1, 68, 0
1, 84540, Note_on_c, 1, 71, 127
1, 84570, Note_off_c, 1, 45, 0
1, 84588, Note_off_c, 1, 71, 0
1, 84600, Note_on_c, 1, 73, 127
1, 84600, Note_on_c, 1, 45, 127
1, 84648, Note_off_c, 1, 73, 0
1, 84660, Note_on_c, 1, 70, 127
1, 84696, Note_off_c, 1, 45, 0
1, 84708, Note_off_c, 1, 70, 0
1, 84720, Note_on_c, 1, 67, 127
1, 84720, Note_on_c, 1, 57, 127
1, 84768, Note_off_c, 1, 67, 0
1, 84780, Note_on_c, 1, 64, 127
1, 84816, Note_off_c, 1, 57, 0
1, 84828, Note_off_c, 1, 64, 0
1, 84840, Note_on_c, 1, 67, 127
1, 84840, Note_on_c, 1, 45, 127
1, 84888, Note_off_c, 1, 67, 0
1, 84900, Note_on_c, 1, 70, 127
1, 84930, Note_off_c, 1, 45, 0
1, 84948, Note_off_c, 1, 70, 0
1, 84960, Note_on_c, 1, 73, 127
1, 84960, Note_on_c, 1, 43, 127
1, 85008, Note_off_c, 1, 73, 0
1, 85020, Note_on_c, 1, 76, 127
1, 85056, Note_off_c, 1, 43, 0
1, 85068, Note_off_c, 1, 76, 0
1, 85080, Note_on_c, 1, 74, 127
1, 85080, Note_on_c, 1, 55, 127
1, 85128, Note_off_c, 1, 74, 0
1, 85140, Note_on_c, 1, 73, 127
1, 85176, Note_off_c, 1, 55, 0
1, 85188, Note_off_c, 1, 73, 0
1, 85200, Note_on_c, 1, 71, 127
1, 85200, Note_on_c, 1, 43, 127
1, 85248, Note_off_c, 1, 71, 0
1, 85260, Note_on_c, 1, 69, 127
1, 85290, Note_off_c, 1, 43, 0
1, 85308, Note_off_c, 1, 69, 0
1, 85320, Note_on_c, 1, 74, 127
1, 85320, Note_on_c, 1, 41, 127
1, 85380, Note_on_c, 1, 49, 127
1, 85416, Note_off_c, 1, 74, 0
1, 85428, Note_off_c, 1, 49, 0
1, 85440, Note_on_c, 1, 69, 127
1, 85440, Note_on_c, 1, 50, 127
1, 85488, Note_off_c, 1, 50, 0
1, 85500, Note_on_c, 1, 53, 127
1, 85512, Note_off_c, 1, 41, 0
1, 85536, Note_off_c, 1, 69, 0
1, 85548, Note_off_c, 1, 53, 0
1, 85560, Note_on_c, 1, 65, 127
1, 85560, Note_on_c, 1, 49, 127
1, 85608, Note_off_c, 1, 49, 0
1, 85620, Note_on_c, 1, 50, 127
1, 85650, Note_off_c, 1, 65, 0
1, 85668, Note_off_c, 1, 50, 0
1, 85680, Note_on_c, 1, 62, 127
1, 85680, Note_on_c, 1, 43, 127
1, 85740, Note_on_c, 1, 49, 127
1, 85776, Note_off_c, 1, 62, 0
1, 85788, Note_off_c, 1, 49, 0
1, 85800, Note_on_c, 1, 69, 127
1, 85800, Note_on_c, 1, 50, 127
1, 85848, Note_off_c, 1, 50, 0
1, 85860, Note_on_c, 1, 53, 127
1, 85872, Note_off_c, 1, 43, 0
1, 85896, Note_off_c, 1, 69, 0
1, 85908, Note_off_c, 1, 53, 0
1, 85920, Note_on_c, 1, 65, 127
1, 85920, Note_on_c, 1, 49, 127
1, 85968, Note_off_c, 1, 49, 0
1, 85980, Note_on_c, 1, 50, 127
1, 86010, Note_off_c, 1, 65, 0
1, 86028, Note_off_c, 1, 50, 0
1, 86040, Note_on_c, 1, 62, 127
1, 86040, Note_on_c, 1, 45, 127
1, 86100, Note_on_c, 1, 49, 127
1, 86136, Note_off_c, 1, 62, 0
1, 86148, Note_off_c, 1, 49, 0
1, 86160, Note_on_c, 1, 69, 127
1, 86160, Note_on_c, 1, 50, 127
1, 86208, Note_off_c, 1, 50, 0
1, 86220, Note_on_c, 1, 53, 127
1, 86232, Note_off_c, 1, 45, 0
1, 86256, Note_off_c, 1, 69, 0
1, 86268, Note_off_c, 1, 53, 0
1, 86280, Note_on_c, 1, 65, 127
1, 86280, Note_on_c, 1, 49, 127
1, 86328, Note_off_c, 1, 49, 0
1, 86340, Note_on_c, 1, 50, 127
1, 86370, Note_off_c, 1, 65, 0
1, 86388, Note_off_c, 1, 50, 0
1, 86400, Note_on_c, 1, 62, 127
1, 86400, Note_on_c, 1, 46, 127
1, 86460, Note_on_c, 1, 49, 127
1, 86496, Note_off_c, 1, 62, 0
1, 86508, Note_off_c, 1, 49, 0
1, 86520, Note_on_c, 1, 69, 127
1, 86520, Note_on_c, 1, 50, 127
1, 86568, Note_off_c, 1, 50, 0
1, 86580, Note_on_c, 1, 53, 127
1, 86592, Note_off_c, 1, 46, 0
1, 86616, Note_off_c, 1, 69, 0
1, 86628, Note_off_c, 1, 53, 0
1, 86640, Note_on_c, 1, 65, 127
1, 86640, Note_on_c, 1, 49, 127
1, 86688, Note_off_c, 1, 49, 0
1, 86700, Note_on_c, 1, 50, 127
1, 86730, Note_off_c, 1, 65, 0
1, 86748, Note_off_c, 1, 50, 0
1, 86760, Note_on_c, 1, 62, 127
1, 86760, Note_on_c, 1, 47, 127
1, 86820, Note_on_c, 1, 49, 127
1, 86856, Note_off_c, 1, 62, 0
1, 86868, Note_off_c, 1, 49, 0
1, 86880, Note_on_c, 1, 68, 127
1, 86880, Note_on_c, 1, 50, 127
1, 86928, Note_off_c, 1, 50, 0
1, 86940, Note_on_c, 1, 53, 127
1, 86952, Note_off_c, 1, 47, 0
1, 86976, Note_off_c, 1, 68, 0
1, 86988, Note_off_c, 1, 53, 0
1, 87000, Note_on_c, 1, 65, 127
1, 87000, Note_on_c, 1, 49, 127
1, 87048, Note_off_c, 1, 49, 0
1, 87060, Note_on_c, 1, 50, 127
1, 87090, Note_off_c, 1, 65, 0
1, 87108, Note_off_c, 1, 50, 0
1, 87120, Note_on_c, 1, 62, 127
1, 87120, Note_on_c, 1, 45, 127
1, 87180, Note_on_c, 1, 49, 127
1, 87216, Note_off_c, 1, 62, 0
1, 87228, Note_off_c, 1, 49, 0
1, 87240, Note_on_c, 1, 69, 127
1, 87240, Note_on_c, 1, 50, 127
1, 87288, Note_off_c, 1, 50, 0
1, 87300, Note_on_c, 1, 53, 127
1, 87312, Note_off_c, 1, 45, 0
1, 87336, Note_off_c, 1, 69, 0
1, 87348, Note_off_c, 1, 53, 0
1, 87360, Note_on_c, 1, 65, 127
1, 87360, Note_on_c, 1, 49, 127
1, 87408, Note_off_c, 1, 49, 0
1, 87420, Note_on_c, 1, 50, 127
1, 87450, Note_off_c, 1, 65, 0
1, 87468, Note_off_c, 1, 50, 0
1, 87480, Note_on_c, 1, 62, 127
1, 87480, Note_on_c, 1, 44, 127
1, 87528, Note_off_c, 1, 62, 0
1, 87540, Note_on_c, 1, 64, 127
1, 87588, Note_off_c, 1, 64, 0
1, 87600, Note_on_c, 1, 65, 127
1, 87648, Note_off_c, 1, 65, 0
1, 87660, Note_on_c, 1, 71, 127
1, 87708, Note_off_c, 1, 71, 0
1, 87768, Note_off_c, 1, 44, 0
1, 87780, Note_on_c, 1, 64, 127
1, 87828, Note_off_c, 1, 64, 0
1, 87840, Note_on_c, 1, 62, 127
1, 87888, Note_off_c, 1, 62, 0
1, 87900, Note_on_c, 1, 64, 127
1, 87948, Note_off_c, 1, 64, 0
1, 87960, Note_on_c, 1, 65, 127
1, 88008, Note_off_c, 1, 65, 0
1, 88020, Note_on_c, 1, 71, 127
1, 88068, Note_off_c, 1, 71, 0
1, 88080, Note_on_c, 1, 64, 127
1, 88128, Note_off_c, 1, 64, 0
1, 88140, Note_on_c, 1, 62, 127
1, 88188, Note_off_c, 1, 62, 0
1, 88200, Note_on_c, 1, 61, 127
1, 88200, Note_on_c, 1, 43, 127
1, 88248, Note_off_c, 1, 61, 0
1, 88260, Note_on_c, 1, 64, 127
1, 88308, Note_off_c, 1, 64, 0
1, 88320, Note_on_c, 1, 67, 127
1, 88368, Note_off_c, 1, 67, 0
1, 88380, Note_on_c, 1, 70, 127
1, 88428, Note_off_c, 1, 70, 0
1, 88440, Note_on_c, 1, 69, 127
1, 88488, Note_off_c, 1, 43, 0
1, 88488, Note_off_c, 1, 69, 0
1, 88500, Note_on_c, 1, 67, 127
1, 88548, Note_off_c, 1, 67, 0
1, 88560, Note_on_c, 1, 69, 127
1, 88560, Note_on_c, 1, 41, 127
1, 88608, Note_off_c, 1, 69, 0
1, 88608, Note_off_c, 1, 41, 0
1, 88620, Note_on_c, 1, 67, 127
1, 88620, Note_on_c, 1, 45, 127
1, 88668, Note_off_c, 1, 67, 0
1, 88668, Note_off_c, 1, 45, 0
1, 88680, Note_on_c, 1, 65, 127
1, 88680, Note_on_c, 1, 47, 127
1, 88728, Note_off_c, 1, 65, 0
1, 88728, Note_off_c, 1, 47, 0
1, 88740, Note_on_c, 1, 64, 127
1, 88740, Note_on_c, 1, 49, 127
1, 88788, Note_off_c, 1, 64, 0
1, 88788, Note_off_c, 1, 49, 0
1, 88800, Note_on_c, 1, 62, 127
1, 88800, Note_on_c, 1, 50, 127
1, 88848, Note_off_c, 1, 62, 0
1, 88848, Note_off_c, 1, 50, 0
1, 88860, Note_on_c, 1, 60, 127
1, 88860, Note_on_c, 1, 52, 127
1, 88908, Note_off_c, 1, 60, 0
1, 88908, Note_off_c, 1, 52, 0
1, 88920, Note_on_c, 1, 59, 127
1, 88920, Note_on_c, 1, 53, 127
1, 88968, Note_off_c, 1, 59, 0
1, 88980, Note_on_c, 1, 57, 127
1, 89010, Note_off_c, 1, 53, 0
1, 89028, Note_off_c, 1, 57, 0
1, 89040, Note_on_c, 1, 59, 127
1, 89040, Note_on_c, 1, 52, 127
1, 89088, Note_off_c, 1, 59, 0
1, 89100, Note_on_c, 1, 61, 127
1, 89130, Note_off_c, 1, 52, 0
1, 89148, Note_off_c, 1, 61, 0
1, 89160, Note_on_c, 1, 62, 127
1, 89160, Note_on_c, 1, 50, 127
1, 89208, Note_off_c, 1, 62, 0
1, 89220, Note_on_c, 1, 64, 127
1, 89250, Note_off_c, 1, 50, 0
1, 89268, Note_off_c, 1, 64, 0
1, 89280, Note_on_c, 1, 61, 127
1, 89280, Note_on_c, 1, 52, 127
1, 89328, Note_off_c, 1, 61, 0
1, 89340, Note_on_c, 1, 59, 127
1, 89370, Note_off_c, 1, 52, 0
1, 89388, Note_off_c, 1, 59, 0
1, 89400, Note_on_c, 1, 61, 127
1, 89400, Note_on_c, 1, 50, 127
1, 89448, Note_off_c, 1, 61, 0
1, 89460, Note_on_c, 1, 62, 127
1, 89490, Note_off_c, 1, 50, 0
1, 89508, Note_off_c, 1, 62, 0
1, 89520, Note_on_c, 1, 64, 127
1, 89520, Note_on_c, 1, 49, 127
1, 89568, Note_off_c, 1, 64, 0
1, 89580, Note_on_c, 1, 55, 127
1, 89610, Note_off_c, 1, 49, 0
1, 89628, Note_off_c, 1, 55, 0
1, 89640, Note_on_c, 1, 53, 127
1, 89640, Note_on_c, 1, 50, 127
1, 89700, Note_on_c, 1, 69, 127
1, 89748, Note_off_c, 1, 69, 0
1, 89760, Note_on_c, 1, 71, 127
1, 89808, Note_off_c, 1, 71, 0
1, 89820, Note_on_c, 1, 73, 127
1, 89832, Note_off_c, 1, 53, 0
1, 89832, Note_off_c, 1, 50, 0
1, 89868, Note_off_c, 1, 73, 0
1, 89880, Note_on_c, 1, 74, 127
1, 89880, Note_on_c, 1, 48, 127
1, 89880, Note_on_c, 1, 52, 127
1, 89928, Note_off_c, 1, 74, 0
1, 89940, Note_on_c, 1, 76, 127
1, 89976, Note_off_c, 1, 48, 0
1, 89976, Note_off_c, 1, 52, 0
1, 89988, Note_off_c, 1, 76, 0
1, 90000, Note_on_c, 1, 77, 127
1, 90000, Note_on_c, 1, 50, 127
1, 90000, Note_on_c, 1, 46, 127
1, 90090, Note_off_c, 1, 77, 0
1, 90090, Note_off_c, 1, 50, 0
1, 90120, Note_on_c, 1, 76, 127
1, 90120, Note_on_c, 1, 52, 127
1, 90192, Note_off_c, 1, 46, 0
1, 90210, Note_off_c, 1, 76, 0
1, 90210, Note_off_c, 1, 52, 0
1, 90240, Note_on_c, 1, 74, 127
1, 90240, Note_on_c, 1, 53, 127
1, 90240, Note_on_c, 1, 45, 127
1, 90330, Note_off_c, 1, 74, 0
1, 90330, Note_off_c, 1, 53, 0
1, 90336, Note_off_c, 1, 45, 0
1, 90360, Note_on_c, 1, 76, 127
1, 90360, Note_on_c, 1, 55, 127
1, 90360, Note_on_c, 1, 43, 127
1, 90450, Note_off_c, 1, 55, 0
1, 90456, Note_off_c, 1, 76, 0
1, 90480, Note_on_c, 1, 77, 127
1, 90480, Note_on_c, 1, 53, 127
1, 90528, Note_off_c, 1, 77, 0
1, 90552, Note_off_c, 1, 43, 0
1, 90570, Note_off_c, 1, 53, 0
1, 90600, Note_on_c, 1, 74, 127
1, 90600, Note_on_c, 1, 52, 127
1, 90600, Note_on_c, 1, 45, 127
1, 90648, Note_off_c, 1, 74, 0
1, 90660, Note_on_c, 1, 73, 127
1, 90690, Note_off_c, 1, 52, 0
1, 90696, Note_off_c, 1, 45, 0
1, 90708, Note_off_c, 1, 73, 0
1, 90720, Note_on_c, 1, 81, 127
1, 90720, Note_on_c, 1, 50, 127
1, 90720, Note_on_c, 1, 41, 127
1, 90768, Note_off_c, 1, 81, 0
1, 90780, Note_on_c, 1, 79, 127
1, 90828, Note_off_c, 1, 79, 0
1, 90840, Note_on_c, 1, 77, 127
1, 90888, Note_off_c, 1, 77, 0
1, 90900, Note_on_c, 1, 76, 127
1, 90948, Note_off_c, 1, 76, 0
1, 90960, Note_on_c, 1, 74, 127
1, 91008, Note_off_c, 1, 50, 0
1, 91008, Note_off_c, 1, 41, 0
1, 91008, Note_off_c, 1, 74, 0
1, 91020, Note_on_c, 1, 73, 127
1, 91068, Note_off_c, 1, 73, 0
1, 91080, Note_on_c, 1, 74, 127
1, 91128, Note_off_c, 1, 74, 0
1, 91140, Note_on_c, 1, 76, 127
1, 91188, Note_off_c, 1, 76, 0
1, 91200, Note_on_c, 1, 74, 127
1, 91248, Note_off_c, 1, 74, 0
1, 91260, Note_on_c, 1, 76, 127
1, 91308, Note_off_c, 1, 76, 0
1, 91320, Note_on_c, 1, 77, 127
1, 91320, Note_on_c, 1, 70, 127
1, 91320, Note_on_c, 1, 50, 127
1, 91320, Note_on_c, 1, 43, 127
1, 91368, Note_off_c, 1, 50, 0
1, 91380, Note_on_c, 1, 52, 127
1, 91410, Note_off_c, 1, 77, 0
1, 91416, Note_off_c, 1, 70, 0
1, 91416, Note_off_c, 1, 43, 0
1, 91428, Note_off_c, 1, 52, 0
1, 91440, Note_on_c, 1, 69, 127
1, 91440, Note_on_c, 1, 53, 127
1, 91440, Note_on_c, 1, 45, 127
1, 91560, Note_on_c, 1, 74, 127
1, 91632, Note_off_c, 1, 69, 0
1, 91632, Note_off_c, 1, 53, 0
1, 91632, Note_off_c, 1, 45, 0
1, 91656, Note_off_c, 1, 74, 0
1, 91680, Note_on_c, 1, 73, 127
1, 91680, Note_on_c, 1, 67, 127
1, 91680, Note_on_c, 1, 45, 127
1, 91680, Note_on_c, 1, 52, 127
1, 91770, Note_off_c, 1, 73, 0
1, 91776, Note_off_c, 1, 67, 0
1, 91776, Note_off_c, 1, 45, 0
1, 91776, Note_off_c, 1, 52, 0
1, 91800, Note_on_c, 1, 74, 127
1, 91800, Note_on_c, 1, 65, 127
1, 91800, Note_on_c, 1, 50, 127
1, 91800, Note_on_c, 1, 38, 127
1, 91896, Note_off_c, 1, 74, 0
1, 91920, Note_on_c, 1, 69, 127
1, 91992, Note_off_c, 1, 65, 0
1, 92016, Note_off_c, 1, 69, 0
1, 92088, Note_off_c, 1, 50, 0
1, 92088, Note_off_c, 1, 38, 0
1, 92160, Note_on_c, 1, 69, 127
1, 92250, Note_off_c, 1, 69, 0
1, 92280, Note_on_c, 1, 69, 127
1, 92370, Note_off_c, 1, 69, 0
1, 92400, Note_on_c, 1, 69, 127
1, 92400, Note_on_c, 1, 65, 127
1, 92400, Note_on_c, 1, 62, 127
1, 92490, Note_off_c, 1, 69, 0
1, 92490, Note_off_c, 1, 62, 0
1, 92496, Note_off_c, 1, 65, 0
1, 92520, Note_on_c, 1, 70, 127
1, 92520, Note_on_c, 1, 67, 127
1, 92520, Note_on_c, 1, 58, 127
1, 92568, Note_off_c, 1, 70, 0
1, 92580, Note_on_c, 1, 72, 127
1, 92610, Note_off_c, 1, 58, 0
1, 92628, Note_off_c, 1, 72, 0
1, 92640, Note_on_c, 1, 74, 127
1, 92640, Note_on_c, 1, 57, 127
1, 92688, Note_off_c, 1, 74, 0
1, 92712, Note_off_c, 1, 67, 0
1, 92730, Note_off_c, 1, 57, 0
1, 92760, Note_on_c, 1, 72, 127
1, 92760, Note_on_c, 1, 65, 127
1, 92760, Note_on_c, 1, 55, 127
1, 92808, Note_off_c, 1, 72, 0
1, 92820, Note_on_c, 1, 74, 127
1, 92850, Note_off_c, 1, 55, 0
1, 92856, Note_off_c, 1, 65, 0
1, 92868, Note_off_c, 1, 74, 0
1, 92880, Note_on_c, 1, 67, 127
1, 92880, Note_on_c, 1, 64, 127
1, 92880, Note_on_c, 1, 60, 127
1, 92970, Note_off_c, 1, 67, 0
1, 93168, Note_off_c, 1, 64, 0
1, 93168, Note_off_c, 1, 60, 0
1, 93240, Note_on_c, 1, 67, 127
1, 93330, Note_off_c, 1, 67, 0
1, 93360, Note_on_c, 1, 67, 127
1, 93450, Note_off_c, 1, 67, 0
1, 93480, Note_on_c, 1, 67, 127
1, 93480, Note_on_c, 1, 64, 127
1, 93480, Note_on_c, 1, 58, 127
1, 93570, Note_off_c, 1, 67, 0
1, 93570, Note_off_c, 1, 58, 0
1, 93576, Note_off_c, 1, 64, 0
1, 93600, Note_on_c, 1, 69, 127
1, 93600, Note_on_c, 1, 65, 127
1, 93600, Note_on_c, 1, 57, 127
1, 93648, Note_off_c, 1, 69, 0
1, 93660, Note_on_c, 1, 70, 127
1, 93690, Note_off_c, 1, 57, 0
1, 93708, Note_off_c, 1, 70, 0
1, 93720, Note_on_c, 1, 72, 127
1, 93720, Note_on_c, 1, 55, 127
1, 93768, Note_off_c, 1, 72, 0
1, 93792, Note_off_c, 1, 65, 0
1, 93810, Note_off_c, 1, 55, 0
1, 93840, Note_on_c, 1, 70, 127
1, 93840, Note_on_c, 1, 64, 127
1, 93840, Note_on_c, 1, 53, 127
1, 93888, Note_off_c, 1, 70, 0
1, 93900, Note_on_c, 1, 72, 127
1, 93930, Note_off_c, 1, 53, 0
1, 93936, Note_off_c, 1, 64, 0
1, 93948, Note_off_c, 1, 72, 0
1, 93960, Note_on_c, 1, 65, 127
1, 93960, Note_on_c, 1, 58, 127
1, 93960, Note_on_c, 1, 62, 127
1, 94008, Note_off_c, 1, 65, 0
1, 94020, Note_on_c, 1, 67, 127
1, 94068, Note_off_c, 1, 67, 0
1, 94080, Note_on_c, 1, 69, 127
1, 94128, Note_off_c, 1, 69, 0
1, 94152, Note_off_c, 1, 58, 0
1, 94200, Note_on_c, 1, 57, 127
1, 94296, Note_off_c, 1, 57, 0
1, 94320, Note_on_c, 1, 70, 127
1, 94320, Note_on_c, 1, 55, 127
1, 94368, Note_off_c, 1, 70, 0
1, 94380, Note_on_c, 1, 72, 127
1, 94428, Note_off_c, 1, 72, 0
1, 94440, Note_on_c, 1, 74, 127
1, 94488, Note_off_c, 1, 74, 0
1, 94512, Note_off_c, 1, 62, 0
1, 94512, Note_off_c, 1, 55, 0
1, 94560, Note_on_c, 1, 72, 127
1, 94560, Note_on_c, 1, 60, 127
1, 94560, Note_on_c, 1, 57, 127
1, 94608, Note_off_c, 1, 72, 0
1, 94620, Note_on_c, 1, 74, 127
1, 94656, Note_off_c, 1, 60, 0
1, 94656, Note_off_c, 1, 57, 0
1, 94668, Note_off_c, 1, 74, 0
1, 94680, Note_on_c, 1, 76, 127
1, 94680, Note_on_c, 1, 55, 127
1, 94680, Note_on_c, 1, 58, 127
1, 94728, Note_off_c, 1, 76, 0
1, 94740, Note_on_c, 1, 77, 127
1, 94788, Note_off_c, 1, 77, 0
1, 94800, Note_on_c, 1, 79, 127
1, 94848, Note_off_c, 1, 79, 0
1, 94872, Note_off_c, 1, 55, 0
1, 94920, Note_on_c, 1, 53, 127
1, 95016, Note_off_c, 1, 53, 0
1, 95040, Note_on_c, 1, 72, 127
1, 95040, Note_on_c, 1, 52, 127
1, 95088, Note_off_c, 1, 58, 0
1, 95160, Note_on_c, 1, 57, 127
1, 95208, Note_off_c, 1, 57, 0
1, 95328, Note_off_c, 1, 52, 0
1, 95448, Note_off_c, 1, 72, 0
1, 95520, Note_on_c, 1, 74, 127
1, 95568, Note_off_c, 1, 74, 0
1, 95760, Note_on_c, 1, 71, 127
1, 95760, Note_on_c, 1, 50, 127
1, 95808, Note_off_c, 1, 71, 0
1, 96048, Note_off_c, 1, 50, 0
1, 96120, Note_on_c, 1, 76, 127
1, 96120, Note_on_c, 1, 72, 127
1, 96120, Note_on_c, 1, 48, 127
1, 96120, Note_on_c, 1, 55, 127
1, 96216, Note_off_c, 1, 48, 0
1, 96216, Note_off_c, 1, 55, 0
1, 96240, Note_on_c, 1, 60, 127
1, 96336, Note_off_c, 1, 60, 0
1, 96408, Note_off_c, 1, 76, 0
1, 96408, Note_off_c, 1, 72, 0
1, 96480, Note_on_c, 1, 60, 127
1, 96576, Note_off_c, 1, 60, 0
1, 96600, Note_on_c, 1, 60, 127
1, 96696, Note_off_c, 1, 60, 0
1, 96720, Note_on_c, 1, 78, 127
1, 96720, Note_on_c, 1, 69, 127
1, 96720, Note_on_c, 1, 60, 127
1, 96810, Note_off_c, 1, 78, 0
1, 96816, Note_off_c, 1, 69, 0
1, 96816, Note_off_c, 1, 60, 0
1, 96840, Note_on_c, 1, 79, 127
1, 96840, Note_on_c, 1, 70, 127
1, 96840, Note_on_c, 1, 58, 127
1, 96888, Note_off_c, 1, 58, 0
1, 96900, Note_on_c, 1, 57, 127
1, 96930, Note_off_c, 1, 79, 0
1, 96936, Note_off_c, 1, 70, 0
1, 96948, Note_off_c, 1, 57, 0
1, 96960, Note_on_c, 1, 81, 127
1, 96960, Note_on_c, 1, 72, 127
1, 96960, Note_on_c, 1, 55, 127
1, 97008, Note_off_c, 1, 55, 0
1, 97020, Note_on_c, 1, 58, 127
1, 97050, Note_off_c, 1, 81, 0
1, 97056, Note_off_c, 1, 72, 0
1, 97068, Note_off_c, 1, 58, 0
1, 97080, Note_on_c, 1, 82, 127
1, 97080, Note_on_c, 1, 74, 127
1, 97080, Note_on_c, 1, 57, 127
1, 97128, Note_off_c, 1, 57, 0
1, 97140, Note_on_c, 1, 55, 127
1, 97170, Note_off_c, 1, 82, 0
1, 97176, Note_off_c, 1, 74, 0
1, 97188, Note_off_c, 1, 55, 0
1, 97200, Note_on_c, 1, 69, 127
1, 97200, Note_on_c, 1, 78, 127
1, 97200, Note_on_c, 1, 62, 127
1, 97290, Note_off_c, 1, 62, 0
1, 97488, Note_off_c, 1, 69, 0
1, 97488, Note_off_c, 1, 78, 0
1, 97560, Note_on_c, 1, 62, 127
1, 97650, Note_off_c, 1, 62, 0
1, 97680, Note_on_c, 1, 62, 127
1, 97770, Note_off_c, 1, 62, 0
1, 97800, Note_on_c, 1, 71, 127
1, 97800, Note_on_c, 1, 80, 127
1, 97800, Note_on_c, 1, 62, 127
1, 97890, Note_off_c, 1, 62, 0
1, 97896, Note_off_c, 1, 71, 0
1, 97896, Note_off_c, 1, 80, 0
1, 97920, Note_on_c, 1, 81, 127
1, 97920, Note_on_c, 1, 72, 127
1, 97920, Note_on_c, 1, 60, 127
1, 97968, Note_off_c, 1, 60, 0
1, 97980, Note_on_c, 1, 59, 127
1, 98016, Note_off_c, 1, 81, 0
1, 98016, Note_off_c, 1, 72, 0
1, 98028, Note_off_c, 1, 59, 0
1, 98040, Note_on_c, 1, 83, 127
1, 98040, Note_on_c, 1, 74, 127
1, 98040, Note_on_c, 1, 57, 127
1, 98088, Note_off_c, 1, 57, 0
1, 98100, Note_on_c, 1, 60, 127
1, 98136, Note_off_c, 1, 83, 0
1, 98136, Note_off_c, 1, 74, 0
1, 98148, Note_off_c, 1, 60, 0
1, 98160, Note_on_c, 1, 76, 127
1, 98160, Note_on_c, 1, 84, 127
1, 98160, Note_on_c, 1, 59, 127
1, 98208, Note_off_c, 1, 59, 0
1, 98220, Note_on_c, 1, 57, 127
1, 98256, Note_off_c, 1, 76, 0
1, 98256, Note_off_c, 1, 84, 0
1, 98268, Note_off_c, 1, 57, 0
1, 98280, Note_on_c, 1, 80, 127
1, 98280, Note_on_c, 1, 71, 127
1, 98280, Note_on_c, 1, 64, 127
1, 98328, Note_off_c, 1, 80, 0
1, 98328, Note_off_c, 1, 64, 0
1, 98340, Note_on_c, 1, 83, 127
1, 98340, Note_on_c, 1, 62, 127
1, 98376, Note_off_c, 1, 71, 0
1, 98388, Note_off_c, 1, 83, 0
1, 98388, Note_off_c, 1, 62, 0
1, 98400, Note_on_c, 1, 81, 127
1, 98400, Note_on_c, 1, 60, 127
1, 98448, Note_off_c, 1, 81, 0
1, 98448, Note_off_c, 1, 60, 0
1, 98460, Note_on_c, 1, 79, 127
1, 98460, Note_on_c, 1, 64, 127
1, 98508, Note_off_c, 1, 79, 0
1, 98508, Note_off_c, 1, 64, 0
1, 98520, Note_on_c, 1, 77, 127
1, 98520, Note_on_c, 1, 62, 127
1, 98568, Note_off_c, 1, 77, 0
1, 98568, Note_off_c, 1, 62, 0
1, 98580, Note_on_c, 1, 76, 127
1, 98580, Note_on_c, 1, 60, 127
1, 98628, Note_off_c, 1, 76, 0
1, 98628, Note_off_c, 1, 60, 0
1, 98640, Note_on_c, 1, 74, 127
1, 98640, Note_on_c, 1, 59, 127
1, 98688, Note_off_c, 1, 74, 0
1, 98688, Note_off_c, 1, 59, 0
1, 98700, Note_on_c, 1, 77, 127
1, 98700, Note_on_c, 1, 57, 127
1, 98748, Note_off_c, 1, 77, 0
1, 98748, Note_off_c, 1, 57, 0
1, 98760, Note_on_c, 1, 76, 127
1, 98760, Note_on_c, 1, 56, 127
1, 98808, Note_off_c, 1, 76, 0
1, 98808, Note_off_c, 1, 56, 0
1, 98820, Note_on_c, 1, 74, 127
1, 98820, Note_on_c, 1, 59, 127
1, 98868, Note_off_c, 1, 74, 0
1, 98868, Note_off_c, 1, 59, 0
1, 98880, Note_on_c, 1, 72, 127
1, 98880, Note_on_c, 1, 57, 127
1, 98928, Note_off_c, 1, 72, 0
1, 98928, Note_off_c, 1, 57, 0
1, 98940, Note_on_c, 1, 71, 127
1, 98940, Note_on_c, 1, 55, 127
1, 98988, Note_off_c, 1, 71, 0
1, 98988, Note_off_c, 1, 55, 0
1, 99000, Note_on_c, 1, 69, 127
1, 99000, Note_on_c, 1, 53, 127
1, 99048, Note_off_c, 1, 69, 0
1, 99048, Note_off_c, 1, 53, 0
1, 99060, Note_on_c, 1, 72, 127
1, 99060, Note_on_c, 1, 52, 127
1, 99108, Note_off_c, 1, 72, 0
1, 99108, Note_off_c, 1, 52, 0
1, 99120, Note_on_c, 1, 71, 127
1, 99120, Note_on_c, 1, 50, 127
1, 99168, Note_off_c, 1, 71, 0
1, 99168, Note_off_c, 1, 50, 0
1, 99180, Note_on_c, 1, 69, 127
1, 99180, Note_on_c, 1, 53, 127
1, 99228, Note_off_c, 1, 69, 0
1, 99228, Note_off_c, 1, 53, 0
1, 99240, Note_on_c, 1, 68, 127
1, 99240, Note_on_c, 1, 52, 127
1, 99288, Note_off_c, 1, 68, 0
1, 99288, Note_off_c, 1, 52, 0
1, 99300, Note_on_c, 1, 69, 127
1, 99300, Note_on_c, 1, 50, 127
1, 99348, Note_off_c, 1, 69, 0
1, 99348, Note_off_c, 1, 50, 0
1, 99360, Note_on_c, 1, 68, 127
1, 99360, Note_on_c, 1, 52, 127
1, 99408, Note_off_c, 1, 52, 0
1, 99420, Note_on_c, 1, 40, 127
1, 99456, Note_off_c, 1, 68, 0
1, 99468, Note_off_c, 1, 40, 0
1, 99480, Note_on_c, 1, 64, 127
1, 99480, Note_on_c, 1, 42, 127
1, 99528, Note_off_c, 1, 42, 0
1, 99540, Note_on_c, 1, 44, 127
1, 99576, Note_off_c, 1, 64, 0
1, 99588, Note_off_c, 1, 44, 0
1, 99600, Note_on_c, 1, 64, 127
1, 99600, Note_on_c, 1, 45, 127
1, 99648, Note_off_c, 1, 45, 0
1, 99660, Note_on_c, 1, 47, 127
1, 99696, Note_off_c, 1, 64, 0
1, 99708, Note_off_c, 1, 47, 0
1, 99720, Note_on_c, 1, 69, 127
1, 99720, Note_on_c, 1, 64, 127
1, 99720, Note_on_c, 1, 48, 127
1, 99768, Note_off_c, 1, 69, 0
1, 99780, Note_on_c, 1, 71, 127
1, 99810, Note_off_c, 1, 48, 0
1, 99828, Note_off_c, 1, 71, 0
1, 99840, Note_on_c, 1, 72, 127
1, 99840, Note_on_c, 1, 47, 127
1, 99888, Note_off_c, 1, 72, 0
1, 99930, Note_off_c, 1, 47, 0
1, 99960, Note_on_c, 1, 45, 127
1, 100050, Note_off_c, 1, 45, 0
1, 100200, Note_on_c, 1, 74, 127
1, 100248, Note_off_c, 1, 74, 0
1, 100320, Note_on_c, 1, 44, 127
1, 100410, Note_off_c, 1, 44, 0
1, 100488, Note_off_c, 1, 64, 0
1, 100500, Note_on_c, 1, 66, 127
1, 100548, Note_off_c, 1, 66, 0
1, 100560, Note_on_c, 1, 67, 127
1, 100608, Note_off_c, 1, 67, 0
1, 100920, Note_on_c, 1, 76, 127
1, 100968, Note_off_c, 1, 76, 0
1, 101640, Note_on_c, 1, 77, 127
1, 101640, Note_on_c, 1, 50, 127
1, 101688, Note_off_c, 1, 77, 0
1, 101688, Note_off_c, 1, 50, 0
1, 102060, Note_on_c, 1, 68, 127
1, 102108, Note_off_c, 1, 68, 0
1, 102360, Note_on_c, 1, 79, 127
1, 102360, Note_on_c, 1, 52, 127
1, 102408, Note_off_c, 1, 79, 0
1, 102408, Note_off_c, 1, 52, 0
1, 102420, Note_on_c, 1, 49, 127
1, 102468, Note_off_c, 1, 49, 0
1, 102660, Note_on_c, 1, 70, 127
1, 102708, Note_off_c, 1, 70, 0
1, 102840, Note_on_c, 1, 53, 127
1, 102936, Note_off_c, 1, 53, 0
1, 102960, Note_on_c, 1, 58, 127
1, 103152, Note_off_c, 1, 58, 0
1, 103200, Note_on_c, 1, 60, 127
1, 103296, Note_off_c, 1, 60, 0
1, 103320, Note_on_c, 1, 62, 127
1, 103512, Note_off_c, 1, 62, 0
1, 103680, Note_on_c, 1, 59, 127
1, 103968, Note_off_c, 1, 59, 0
1, 104400, Note_on_c, 1, 75, 127
1, 104400, Note_on_c, 1, 54, 127
1, 104448, Note_off_c, 1, 75, 0
1, 104520, Note_on_c, 1, 78, 127
1, 104568, Note_off_c, 1, 78, 0
1, 104688, Note_off_c, 1, 54, 0
1, 104940, Note_on_c, 1, 56, 127
1, 104988, Note_off_c, 1, 56, 0
1, 105000, Note_on_c, 1, 57, 127
1, 105048, Note_off_c, 1, 57, 0
1, 105060, Note_on_c, 1, 59, 127
1, 105108, Note_off_c, 1, 59, 0
1, 105120, Note_on_c, 1, 60, 127
1, 105180, Note_on_c, 1, 66, 127
1, 105210, Note_off_c, 1, 60, 0
1, 105228, Note_off_c, 1, 66, 0
1, 105240, Note_on_c, 1, 68, 127
1, 105240, Note_on_c, 1, 59, 127
1, 105288, Note_off_c, 1, 68, 0
1, 105300, Note_on_c, 1, 69, 127
1, 105330, Note_off_c, 1, 59, 0
1, 105348, Note_off_c, 1, 69, 0
1, 105360, Note_on_c, 1, 71, 127
1, 105360, Note_on_c, 1, 57, 127
1, 105408, Note_off_c, 1, 71, 0
1, 105420, Note_on_c, 1, 72, 127
1, 105450, Note_off_c, 1, 57, 0
1, 105468, Note_off_c, 1, 72, 0
1, 105480, Note_on_c, 1, 74, 127
1, 105480, Note_on_c, 1, 59, 127
1, 105528, Note_off_c, 1, 74, 0
1, 105540, Note_on_c, 1, 72, 127
1, 105570, Note_off_c, 1, 59, 0
1, 105588, Note_off_c, 1, 72, 0
1, 105600, Note_on_c, 1, 76, 127
1, 105600, Note_on_c, 1, 57, 127
1, 105648, Note_off_c, 1, 76, 0
1, 105660, Note_on_c, 1, 74, 127
1, 105690, Note_off_c, 1, 57, 0
1, 105708, Note_off_c, 1, 74, 0
1, 105720, Note_on_c, 1, 72, 127
1, 105720, Note_on_c, 1, 56, 127
1, 105768, Note_off_c, 1, 72, 0
1, 105780, Note_on_c, 1, 71, 127
1, 105810, Note_off_c, 1, 56, 0
1, 105828, Note_off_c, 1, 71, 0
1, 105840, Note_on_c, 1, 72, 127
1, 105840, Note_on_c, 1, 57, 127
1, 105888, Note_off_c, 1, 72, 0
1, 105900, Note_on_c, 1, 69, 127
1, 105948, Note_off_c, 1, 69, 0
1, 105960, Note_on_c, 1, 71, 127
1, 106008, Note_off_c, 1, 71, 0
1, 106020, Note_on_c, 1, 73, 127
1, 106068, Note_off_c, 1, 73, 0
1, 106080, Note_on_c, 1, 74, 127
1, 106128, Note_off_c, 1, 74, 0
1, 106140, Note_on_c, 1, 76, 127
1, 106188, Note_off_c, 1, 76, 0
1, 106200, Note_on_c, 1, 77, 127
1, 106248, Note_off_c, 1, 57, 0
1, 106260, Note_on_c, 1, 59, 127
1, 106290, Note_off_c, 1, 77, 0
1, 106308, Note_off_c, 1, 59, 0
1, 106320, Note_on_c, 1, 76, 127
1, 106320, Note_on_c, 1, 61, 127
1, 106368, Note_off_c, 1, 61, 0
1, 106380, Note_on_c, 1, 62, 127
1, 106410, Note_off_c, 1, 76, 0
1, 106428, Note_off_c, 1, 62, 0
1, 106440, Note_on_c, 1, 74, 127
1, 106440, Note_on_c, 1, 64, 127
1, 106488, Note_off_c, 1, 64, 0
1, 106500, Note_on_c, 1, 65, 127
1, 106530, Note_off_c, 1, 74, 0
1, 106548, Note_off_c, 1, 65, 0
1, 106560, Note_on_c, 1, 76, 127
1, 106560, Note_on_c, 1, 67, 127
1, 106608, Note_off_c, 1, 67, 0
1, 106620, Note_on_c, 1, 65, 127
1, 106650, Note_off_c, 1, 76, 0
1, 106668, Note_off_c, 1, 65, 0
1, 106680, Note_on_c, 1, 74, 127
1, 106680, Note_on_c, 1, 69, 127
1, 106728, Note_off_c, 1, 69, 0
1, 106740, Note_on_c, 1, 67, 127
1, 106770, Note_off_c, 1, 74, 0
1, 106788, Note_off_c, 1, 67, 0
1, 106800, Note_on_c, 1, 73, 127
1, 106800, Note_on_c, 1, 65, 127
1, 106848, Note_off_c, 1, 65, 0
1, 106860, Note_on_c, 1, 64, 127
1, 106890, Note_off_c, 1, 73, 0
1, 106908, Note_off_c, 1, 64, 0
1, 106920, Note_on_c, 1, 74, 127
1, 106920, Note_on_c, 1, 65, 127
1, 106968, Note_off_c, 1, 65, 0
1, 106980, Note_on_c, 1, 57, 127
1, 107028, Note_off_c, 1, 57, 0
1, 107040, Note_on_c, 1, 59, 127
1, 107088, Note_off_c, 1, 59, 0
1, 107100, Note_on_c, 1, 60, 127
1, 107148, Note_off_c, 1, 60, 0
1, 107280, Note_on_c, 1, 62, 127
1, 107328, Note_off_c, 1, 74, 0
1, 107340, Note_on_c, 1, 71, 127
1, 107388, Note_off_c, 1, 71, 0
1, 107400, Note_on_c, 1, 69, 127
1, 107448, Note_off_c, 1, 69, 0
1, 107460, Note_on_c, 1, 68, 127
1, 107508, Note_off_c, 1, 68, 0
1, 107640, Note_on_c, 1, 64, 127
1, 107688, Note_off_c, 1, 62, 0
1, 107700, Note_on_c, 1, 56, 127
1, 107748, Note_off_c, 1, 56, 0
1, 108060, Note_on_c, 1, 40, 127
1, 108108, Note_off_c, 1, 40, 0
1, 108120, Note_on_c, 1, 42, 127
1, 108168, Note_off_c, 1, 42, 0
1, 108180, Note_on_c, 1, 44, 127
1, 108228, Note_off_c, 1, 44, 0
1, 108240, Note_on_c, 1, 45, 127
1, 108288, Note_off_c, 1, 45, 0
1, 108300, Note_on_c, 1, 47, 127
1, 108348, Note_off_c, 1, 47, 0
1, 108360, Note_on_c, 1, 48, 127
1, 108408, Note_off_c, 1, 64, 0
1, 108420, Note_on_c, 1, 66, 127
1, 108450, Note_off_c, 1, 48, 0
1, 108468, Note_off_c, 1, 66, 0
1, 108480, Note_on_c, 1, 68, 127
1, 108480, Note_on_c, 1, 47, 127
1, 108528, Note_off_c, 1, 68, 0
1, 108540, Note_on_c, 1, 69, 127
1, 108570, Note_off_c, 1, 47, 0
1, 108588, Note_off_c, 1, 69, 0
1, 108600, Note_on_c, 1, 71, 127
1, 108600, Note_on_c, 1, 45, 127
1, 108648, Note_off_c, 1, 71, 0
1, 108660, Note_on_c, 1, 72, 127
1, 108690, Note_off_c, 1, 45, 0
1, 108708, Note_off_c, 1, 72, 0
1, 108720, Note_on_c, 1, 62, 127
1, 108720, Note_on_c, 1, 47, 127
1, 108780, Note_on_c, 1, 64, 127
1, 108810, Note_off_c, 1, 47, 0
1, 108828, Note_off_c, 1, 64, 0
1, 108840, Note_on_c, 1, 66, 127
1, 108840, Note_on_c, 1, 45, 127
1, 108888, Note_off_c, 1, 66, 0
1, 108900, Note_on_c, 1, 68, 127
1, 108930, Note_off_c, 1, 45, 0
1, 108948, Note_off_c, 1, 68, 0
1, 108960, Note_on_c, 1, 69, 127
1, 108960, Note_on_c, 1, 44, 127
1, 109008, Note_off_c, 1, 62, 0
1, 109008, Note_off_c, 1, 69, 0
1, 109020, Note_on_c, 1, 71, 127
1, 109050, Note_off_c, 1, 44, 0
1, 109080, Note_on_c, 1, 60, 127
1, 109176, Note_off_c, 1, 71, 0
1, 109200, Note_on_c, 1, 48, 127
1, 109248, Note_off_c, 1, 48, 0
1, 109260, Note_on_c, 1, 50, 127
1, 109308, Note_off_c, 1, 50, 0
1, 109320, Note_on_c, 1, 52, 127
1, 109368, Note_off_c, 1, 60, 0
1, 109368, Note_off_c, 1, 52, 0
1, 109380, Note_on_c, 1, 53, 127
1, 109428, Note_off_c, 1, 53, 0
1, 109440, Note_on_c, 1, 69, 127
1, 109440, Note_on_c, 1, 59, 127
1, 109440, Note_on_c, 1, 55, 127
1, 109488, Note_off_c, 1, 55, 0
1, 109500, Note_on_c, 1, 52, 127
1, 109536, Note_off_c, 1, 69, 0
1, 109548, Note_off_c, 1, 52, 0
1, 109560, Note_on_c, 1, 67, 127
1, 109560, Note_on_c, 1, 50, 127
1, 109608, Note_off_c, 1, 50, 0
1, 109620, Note_on_c, 1, 48, 127
1, 109632, Note_off_c, 1, 59, 0
1, 109668, Note_off_c, 1, 48, 0
1, 109800, Note_on_c, 1, 57, 127
1, 109800, Note_on_c, 1, 41, 127
1, 109848, Note_off_c, 1, 41, 0
1, 109860, Note_on_c, 1, 43, 127
1, 109896, Note_off_c, 1, 67, 0
1, 109908, Note_off_c, 1, 43, 0
1, 109920, Note_on_c, 1, 60, 127
1, 109920, Note_on_c, 1, 45, 127
1, 109968, Note_off_c, 1, 45, 0
1, 109980, Note_on_c, 1, 47, 127
1, 110016, Note_off_c, 1, 60, 0
1, 110028, Note_off_c, 1, 47, 0
1, 110040, Note_on_c, 1, 65, 127
1, 110088, Note_off_c, 1, 57, 0
1, 110256, Note_off_c, 1, 65, 0
1, 110280, Note_on_c, 1, 64, 127
1, 110520, Note_on_c, 1, 38, 127
1, 110520, Note_on_c, 1, 53, 127
1, 110568, Note_off_c, 1, 38, 0
1, 110580, Note_on_c, 1, 40, 127
1, 110616, Note_off_c, 1, 64, 0
1, 110628, Note_off_c, 1, 40, 0
1, 110760, Note_on_c, 1, 62, 127
1, 110808, Note_off_c, 1, 53, 0
1, 110856, Note_off_c, 1, 62, 0
1, 110880, Note_on_c, 1, 62, 127
1, 110880, Note_on_c, 1, 48, 127
1, 110880, Note_on_c, 1, 52, 127
1, 110928, Note_off_c, 1, 48, 0
1, 110940, Note_on_c, 1, 45, 127
1, 110976, Note_off_c, 1, 62, 0
1, 110988, Note_off_c, 1, 45, 0
1, 111000, Note_on_c, 1, 60, 127
1, 111000, Note_on_c, 1, 44, 127
1, 111048, Note_off_c, 1, 44, 0
1, 111060, Note_on_c, 1, 42, 127
1, 111072, Note_off_c, 1, 52, 0
1, 111108, Note_off_c, 1, 42, 0
1, 111240, Note_on_c, 1, 54, 127
1, 111240, Note_on_c, 1, 39, 127
1, 111288, Note_off_c, 1, 60, 0
1, 111300, Note_on_c, 1, 56, 127
1, 111336, Note_off_c, 1, 54, 0
1, 111348, Note_off_c, 1, 56, 0
1, 111360, Note_on_c, 1, 57, 127
1, 111408, Note_off_c, 1, 57, 0
1, 111600, Note_on_c, 1, 51, 127
1, 111648, Note_off_c, 1, 51, 0
1, 111960, Note_on_c, 1, 47, 127
1, 112152, Note_off_c, 1, 47, 0
1, 112248, Note_off_c, 1, 39, 0
1, 112260, Note_on_c, 1, 51, 127
1, 112308, Note_off_c, 1, 51, 0
1, 112320, Note_on_c, 1, 40, 127
1, 112380, Note_on_c, 1, 52, 127
1, 112428, Note_off_c, 1, 52, 0
1, 112440, Note_on_c, 1, 54, 127
1, 112488, Note_off_c, 1, 54, 0
1, 112500, Note_on_c, 1, 56, 127
1, 112548, Note_off_c, 1, 56, 0
1, 112560, Note_on_c, 1, 57, 127
1, 112608, Note_off_c, 1, 57, 0
1, 112620, Note_on_c, 1, 59, 127
1, 112668, Note_off_c, 1, 59, 0
1, 112680, Note_on_c, 1, 60, 127
1, 112728, Note_off_c, 1, 40, 0
1, 112740, Note_on_c, 1, 42, 127
1, 112770, Note_off_c, 1, 60, 0
1, 112788, Note_off_c, 1, 42, 0
1, 112800, Note_on_c, 1, 44, 127
1, 112800, Note_on_c, 1, 59, 127
1, 112848, Note_off_c, 1, 44, 0
1, 112860, Note_on_c, 1, 45, 127
1, 112890, Note_off_c, 1, 59, 0
1, 112908, Note_off_c, 1, 45, 0
1, 112920, Note_on_c, 1, 47, 127
1, 112920, Note_on_c, 1, 57, 127
1, 112968, Note_off_c, 1, 47, 0
1, 112980, Note_on_c, 1, 48, 127
1, 113010, Note_off_c, 1, 57, 0
1, 113028, Note_off_c, 1, 48, 0
1, 113040, Note_on_c, 1, 50, 127
1, 113040, Note_on_c, 1, 59, 127
1, 113088, Note_off_c, 1, 50, 0
1, 113100, Note_on_c, 1, 48, 127
1, 113130, Note_off_c, 1, 59, 0
1, 113148, Note_off_c, 1, 48, 0
1, 113160, Note_on_c, 1, 52, 127
1, 113160, Note_on_c, 1, 57, 127
1, 113208, Note_off_c, 1, 52, 0
1, 113220, Note_on_c, 1, 50, 127
1, 113250, Note_off_c, 1, 57, 0
1, 113268, Note_off_c, 1, 50, 0
1, 113280, Note_on_c, 1, 48, 127
1, 113280, Note_on_c, 1, 56, 127
1, 113328, Note_off_c, 1, 48, 0
1, 113340, Note_on_c, 1, 47, 127
1, 113370, Note_off_c, 1, 56, 0
1, 113388, Note_off_c, 1, 47, 0
1, 113400, Note_on_c, 1, 57, 127
1, 113400, Note_on_c, 1, 48, 127
1, 113448, Note_off_c, 1, 57, 0
1, 113448, Note_off_c, 1, 48, 0
1, 113460, Note_on_c, 1, 59, 127
1, 113460, Note_on_c, 1, 47, 127
1, 113508, Note_off_c, 1, 59, 0
1, 113508, Note_off_c, 1, 47, 0
1, 113520, Note_on_c, 1, 60, 127
1, 113520, Note_on_c, 1, 45, 127
1, 113568, Note_off_c, 1, 60, 0
1, 113568, Note_off_c, 1, 45, 0
1, 113580, Note_on_c, 1, 62, 127
1, 113580, Note_on_c, 1, 47, 127
1, 113628, Note_off_c, 1, 62, 0
1, 113628, Note_off_c, 1, 47, 0
1, 113640, Note_on_c, 1, 64, 127
1, 113640, Note_on_c, 1, 48, 127
1, 113688, Note_off_c, 1, 64, 0
1, 113688, Note_off_c, 1, 48, 0
1, 113700, Note_on_c, 1, 65, 127
1, 113700, Note_on_c, 1, 50, 127
1, 113748, Note_off_c, 1, 65, 0
1, 113748, Note_off_c, 1, 50, 0
1, 113760, Note_on_c, 1, 67, 127
1, 113760, Note_on_c, 1, 52, 127
1, 113808, Note_off_c, 1, 67, 0
1, 113808, Note_off_c, 1, 52, 0
1, 113820, Note_on_c, 1, 65, 127
1, 113820, Note_on_c, 1, 50, 127
1, 113868, Note_off_c, 1, 65, 0
1, 113868, Note_off_c, 1, 50, 0
1, 113880, Note_on_c, 1, 64, 127
1, 113880, Note_on_c, 1, 49, 127
1, 113928, Note_off_c, 1, 64, 0
1, 113928, Note_off_c, 1, 49, 0
1, 113940, Note_on_c, 1, 65, 127
1, 113940, Note_on_c, 1, 50, 127
1, 113988, Note_off_c, 1, 65, 0
1, 113988, Note_off_c, 1, 50, 0
1, 114000, Note_on_c, 1, 67, 127
1, 114000, Note_on_c, 1, 52, 127
1, 114048, Note_off_c, 1, 67, 0
1, 114048, Note_off_c, 1, 52, 0
1, 114060, Note_on_c, 1, 69, 127
1, 114060, Note_on_c, 1, 53, 127
1, 114108, Note_off_c, 1, 69, 0
1, 114108, Note_off_c, 1, 53, 0
1, 114120, Note_on_c, 1, 67, 127
1, 114120, Note_on_c, 1, 61, 127
1, 114120, Note_on_c, 1, 64, 127
1, 114120, Note_on_c, 1, 70, 127
1, 114120, Note_on_c, 1, 55, 127
1, 114168, Note_off_c, 1, 55, 0
1, 114180, Note_on_c, 1, 53, 127
1, 114216, Note_off_c, 1, 67, 0
1, 114216, Note_off_c, 1, 61, 0
1, 114216, Note_off_c, 1, 64, 0
1, 114216, Note_off_c, 1, 70, 0
1, 114228, Note_off_c, 1, 53, 0
1, 114240, Note_on_c, 1, 69, 127
1, 114240, Note_on_c, 1, 62, 127
1, 114240, Note_on_c, 1, 65, 127
1, 114240, Note_on_c, 1, 52, 127
1, 114288, Note_off_c, 1, 52, 0
1, 114300, Note_on_c, 1, 53, 127
1, 114336, Note_off_c, 1, 69, 0
1, 114336, Note_off_c, 1, 62, 0
1, 114336, Note_off_c, 1, 65, 0
1, 114348, Note_off_c, 1, 53, 0
1, 114360, Note_on_c, 1, 67, 127
1, 114360, Note_on_c, 1, 64, 127
1, 114360, Note_on_c, 1, 61, 127
1, 114360, Note_on_c, 1, 55, 127
1, 114408, Note_off_c, 1, 55, 0
1, 114420, Note_on_c, 1, 57, 127
1, 114450, Note_off_c, 1, 67, 0
1, 114456, Note_off_c, 1, 64, 0
1, 114456, Note_off_c, 1, 61, 0
1, 114468, Note_off_c, 1, 57, 0
1, 114480, Note_on_c, 1, 65, 127
1, 114480, Note_on_c, 1, 50, 127
1, 114540, Note_on_c, 1, 62, 127
1, 114588, Note_off_c, 1, 62, 0
1, 114600, Note_on_c, 1, 60, 127
1, 114648, Note_off_c, 1, 60, 0
1, 114660, Note_on_c, 1, 58, 127
1, 114708, Note_off_c, 1, 58, 0
1, 114720, Note_on_c, 1, 57, 127
1, 114768, Note_off_c, 1, 50, 0
1, 114768, Note_off_c, 1, 57, 0
1, 114780, Note_on_c, 1, 55, 127
1, 114828, Note_off_c, 1, 55, 0
1, 114840, Note_on_c, 1, 53, 127
1, 114888, Note_off_c, 1, 53, 0
1, 114900, Note_on_c, 1, 52, 127
1, 114948, Note_off_c, 1, 52, 0
1, 115020, Note_on_c, 1, 48, 127
1, 115032, Note_off_c, 1, 65, 0
1, 115068, Note_off_c, 1, 48, 0
1, 115080, Note_on_c, 1, 65, 127
1, 115080, Note_on_c, 1, 60, 127
1, 115080, Note_on_c, 1, 62, 127
1, 115080, Note_on_c, 1, 47, 127
1, 115128, Note_off_c, 1, 47, 0
1, 115140, Note_on_c, 1, 45, 127
1, 115176, Note_off_c, 1, 65, 0
1, 115176, Note_off_c, 1, 60, 0
1, 115176, Note_off_c, 1, 62, 0
1, 115188, Note_off_c, 1, 45, 0
1, 115200, Note_on_c, 1, 69, 127
1, 115200, Note_on_c, 1, 65, 127
1, 115200, Note_on_c, 1, 59, 127
1, 115200, Note_on_c, 1, 43, 127
1, 115296, Note_off_c, 1, 69, 0
1, 115296, Note_off_c, 1, 65, 0
1, 115320, Note_on_c, 1, 64, 127
1, 115320, Note_on_c, 1, 67, 127
1, 115416, Note_off_c, 1, 64, 0
1, 115416, Note_off_c, 1, 67, 0
1, 115440, Note_on_c, 1, 62, 127
1, 115488, Note_off_c, 1, 59, 0
1, 115488, Note_off_c, 1, 43, 0
1, 115536, Note_off_c, 1, 62, 0
1, 115560, Note_on_c, 1, 64, 127
1, 115560, Note_on_c, 1, 48, 127
1, 115620, Note_on_c, 1, 60, 127
1, 115668, Note_off_c, 1, 60, 0
1, 115680, Note_on_c, 1, 59, 127
1, 115728, Note_off_c, 1, 59, 0
1, 115740, Note_on_c, 1, 57, 127
1, 115788, Note_off_c, 1, 57, 0
1, 115800, Note_on_c, 1, 55, 127
1, 115848, Note_off_c, 1, 48, 0
1, 115848, Note_off_c, 1, 55, 0
1, 115860, Note_on_c, 1, 53, 127
1, 115908, Note_off_c, 1, 53, 0
1, 115920, Note_on_c, 1, 52, 127
1, 115968, Note_off_c, 1, 52, 0
1, 115980, Note_on_c, 1, 50, 127
1, 116028, Note_off_c, 1, 50, 0
1, 116100, Note_on_c, 1, 47, 127
1, 116112, Note_off_c, 1, 64, 0
1, 116148, Note_off_c, 1, 47, 0
1, 116160, Note_on_c, 1, 64, 127
1, 116160, Note_on_c, 1, 45, 127
1, 116208, Note_off_c, 1, 45, 0
1, 116220, Note_on_c, 1, 43, 127
1, 116268, Note_off_c, 1, 43, 0
1, 116280, Note_on_c, 1, 69, 127
1, 116280, Note_on_c, 1, 42, 127
1, 116328, Note_off_c, 1, 69, 0
1, 116340, Note_on_c, 1, 71, 127
1, 116388, Note_off_c, 1, 71, 0
1, 116520, Note_on_c, 1, 72, 127
1, 116568, Note_off_c, 1, 64, 0
1, 116568, Note_off_c, 1, 42, 0
1, 116616, Note_off_c, 1, 72, 0
1, 116640, Note_on_c, 1, 62, 127
1, 116700, Note_on_c, 1, 47, 127
1, 116748, Note_off_c, 1, 47, 0
1, 116760, Note_on_c, 1, 48, 127
1, 116808, Note_off_c, 1, 48, 0
1, 116820, Note_on_c, 1, 50, 127
1, 116868, Note_off_c, 1, 50, 0
1, 116880, Note_on_c, 1, 52, 127
1, 116928, Note_off_c, 1, 52, 0
1, 116940, Note_on_c, 1, 54, 127
1, 116988, Note_off_c, 1, 54, 0
1, 117000, Note_on_c, 1, 56, 127
1, 117048, Note_off_c, 1, 56, 0
1, 117060, Note_on_c, 1, 57, 127
1, 117096, Note_off_c, 1, 62, 0
1, 117108, Note_off_c, 1, 57, 0
1, 117120, Note_on_c, 1, 59, 127
1, 117168, Note_off_c, 1, 59, 0
1, 117180, Note_on_c, 1, 60, 127
1, 117228, Note_off_c, 1, 60, 0
1, 117240, Note_on_c, 1, 62, 127
1, 117240, Note_on_c, 1, 57, 127
1, 117240, Note_on_c, 1, 47, 127
1, 117288, Note_off_c, 1, 62, 0
1, 117300, Note_on_c, 1, 64, 127
1, 117336, Note_off_c, 1, 57, 0
1, 117336, Note_off_c, 1, 47, 0
1, 117348, Note_off_c, 1, 64, 0
1, 117360, Note_on_c, 1, 65, 127
1, 117360, Note_on_c, 1, 62, 127
1, 117360, Note_on_c, 1, 52, 127
1, 117360, Note_on_c, 1, 56, 127
1, 117456, Note_off_c, 1, 65, 0
1, 117456, Note_off_c, 1, 62, 0
1, 117480, Note_on_c, 1, 64, 127
1, 117480, Note_on_c, 1, 60, 127
1, 117552, Note_off_c, 1, 52, 0
1, 117576, Note_off_c, 1, 64, 0
1, 117576, Note_off_c, 1, 60, 0
1, 117600, Note_on_c, 1, 59, 127
1, 117600, Note_on_c, 1, 40, 127
1, 117648, Note_off_c, 1, 56, 0
1, 117696, Note_off_c, 1, 59, 0
1, 117696, Note_off_c, 1, 40, 0
1, 117720, Note_on_c, 1, 60, 127
1, 117720, Note_on_c, 1, 57, 127
1, 117720, Note_on_c, 1, 45, 127
1, 117768, Note_off_c, 1, 60, 0
1, 117780, Note_on_c, 1, 62, 127
1, 117816, Note_off_c, 1, 57, 0
1, 117816, Note_off_c, 1, 45, 0
1, 117828, Note_off_c, 1, 62, 0
1, 117840, Note_on_c, 1, 64, 127
1, 117888, Note_off_c, 1, 64, 0
1, 117900, Note_on_c, 1, 60, 127
1, 117900, Note_on_c, 1, 45, 127
1, 117948, Note_off_c, 1, 60, 0
1, 117948, Note_off_c, 1, 45, 0
1, 117960, Note_on_c, 1, 62, 127
1, 117960, Note_on_c, 1, 47, 127
1, 118008, Note_off_c, 1, 62, 0
1, 118008, Note_off_c, 1, 47, 0
1, 118020, Note_on_c, 1, 64, 127
1, 118020, Note_on_c, 1, 48, 127
1, 118068, Note_off_c, 1, 64, 0
1, 118068, Note_off_c, 1, 48, 0
1, 118080, Note_on_c, 1, 65, 127
1, 118080, Note_on_c, 1, 50, 127
1, 118128, Note_off_c, 1, 65, 0
1, 118128, Note_off_c, 1, 50, 0
1, 118140, Note_on_c, 1, 67, 127
1, 118140, Note_on_c, 1, 52, 127
1, 118188, Note_off_c, 1, 67, 0
1, 118188, Note_off_c, 1, 52, 0
1, 118200, Note_on_c, 1, 69, 127
1, 118200, Note_on_c, 1, 53, 127
1, 118248, Note_off_c, 1, 69, 0
1, 118248, Note_off_c, 1, 53, 0
1, 118260, Note_on_c, 1, 65, 127
1, 118260, Note_on_c, 1, 50, 127
1, 118308, Note_off_c, 1, 65, 0
1, 118308, Note_off_c, 1, 50, 0
1, 118320, Note_on_c, 1, 67, 127
1, 118320, Note_on_c, 1, 52, 127
1, 118368, Note_off_c, 1, 67, 0
1, 118368, Note_off_c, 1, 52, 0
1, 118380, Note_on_c, 1, 69, 127
1, 118380, Note_on_c, 1, 53, 127
1, 118428, Note_off_c, 1, 69, 0
1, 118428, Note_off_c, 1, 53, 0
1, 118440, Note_on_c, 1, 71, 127
1, 118440, Note_on_c, 1, 50, 127
1, 118488, Note_off_c, 1, 71, 0
1, 118488, Note_off_c, 1, 50, 0
1, 118500, Note_on_c, 1, 72, 127
1, 118500, Note_on_c, 1, 52, 127
1, 118548, Note_off_c, 1, 72, 0
1, 118548, Note_off_c, 1, 52, 0
1, 118560, Note_on_c, 1, 74, 127
1, 118560, Note_on_c, 1, 53, 127
1, 118608, Note_off_c, 1, 74, 0
1, 118608, Note_off_c, 1, 53, 0
1, 118620, Note_on_c, 1, 71, 127
1, 118620, Note_on_c, 1, 50, 127
1, 118668, Note_off_c, 1, 71, 0
1, 118668, Note_off_c, 1, 50, 0
1, 118680, Note_on_c, 1, 72, 127
1, 118680, Note_on_c, 1, 52, 127
1, 118728, Note_off_c, 1, 72, 0
1, 118728, Note_off_c, 1, 52, 0
1, 118740, Note_on_c, 1, 74, 127
1, 118740, Note_on_c, 1, 53, 127
1, 118788, Note_off_c, 1, 74, 0
1, 118788, Note_off_c, 1, 53, 0
1, 118800, Note_on_c, 1, 64, 127
1, 118800, Note_on_c, 1, 44, 127
1, 118848, Note_off_c, 1, 44, 0
1, 118860, Note_on_c, 1, 53, 127
1, 118896, Note_off_c, 1, 64, 0
1, 118908, Note_off_c, 1, 53, 0
1, 118920, Note_on_c, 1, 66, 127
1, 118920, Note_on_c, 1, 52, 127
1, 118968, Note_off_c, 1, 66, 0
1, 118968, Note_off_c, 1, 52, 0
1, 118980, Note_on_c, 1, 68, 127
1, 118980, Note_on_c, 1, 50, 127
1, 119028, Note_off_c, 1, 68, 0
1, 119028, Note_off_c, 1, 50, 0
1, 119040, Note_on_c, 1, 69, 127
1, 119040, Note_on_c, 1, 48, 127
1, 119088, Note_off_c, 1, 69, 0
1, 119088, Note_off_c, 1, 48, 0
1, 119100, Note_on_c, 1, 71, 127
1, 119100, Note_on_c, 1, 47, 127
1, 119148, Note_off_c, 1, 71, 0
1, 119148, Note_off_c, 1, 47, 0
1, 119160, Note_on_c, 1, 72, 127
1, 119160, Note_on_c, 1, 45, 127
1, 119208, Note_off_c, 1, 45, 0
1, 119220, Note_on_c, 1, 47, 127
1, 119250, Note_off_c, 1, 72, 0
1, 119268, Note_off_c, 1, 47, 0
1, 119280, Note_on_c, 1, 71, 127
1, 119280, Note_on_c, 1, 45, 127
1, 119328, Note_off_c, 1, 45, 0
1, 119340, Note_on_c, 1, 43, 127
1, 119370, Note_off_c, 1, 71, 0
1, 119388, Note_off_c, 1, 43, 0
1, 119400, Note_on_c, 1, 69, 127
1, 119400, Note_on_c, 1, 41, 127
1, 119448, Note_off_c, 1, 41, 0
1, 119460, Note_on_c, 1, 40, 127
1, 119490, Note_off_c, 1, 69, 0
1, 119508, Note_off_c, 1, 40, 0
1, 119520, Note_on_c, 1, 71, 127
1, 119520, Note_on_c, 1, 38, 127
1, 119610, Note_off_c, 1, 38, 0
1, 119616, Note_off_c, 1, 71, 0
1, 119640, Note_on_c, 1, 72, 127
1, 119640, Note_on_c, 1, 50, 127
1, 119688, Note_off_c, 1, 72, 0
1, 119700, Note_on_c, 1, 71, 127
1, 119730, Note_off_c, 1, 50, 0
1, 119748, Note_off_c, 1, 71, 0
1, 119760, Note_on_c, 1, 69, 127
1, 119760, Note_on_c, 1, 52, 127
1, 119808, Note_off_c, 1, 69, 0
1, 119820, Note_on_c, 1, 68, 127
1, 119850, Note_off_c, 1, 52, 0
1, 119868, Note_off_c, 1, 68, 0
1, 119880, Note_on_c, 1, 76, 127
1, 119880, Note_on_c, 1, 48, 127
1, 119928, Note_off_c, 1, 76, 0
1, 119940, Note_on_c, 1, 74, 127
1, 119976, Note_off_c, 1, 48, 0
1, 119988, Note_off_c, 1, 74, 0
1, 120000, Note_on_c, 1, 72, 127
1, 120048, Note_off_c, 1, 72, 0
1, 120060, Note_on_c, 1, 71, 127
1, 120060, Note_on_c, 1, 48, 127
1, 120108, Note_off_c, 1, 71, 0
1, 120108, Note_off_c, 1, 48, 0
1, 120120, Note_on_c, 1, 69, 127
1, 120120, Note_on_c, 1, 50, 127
1, 120168, Note_off_c, 1, 69, 0
1, 120168, Note_off_c, 1, 50, 0
1, 120180, Note_on_c, 1, 68, 127
1, 120180, Note_on_c, 1, 52, 127
1, 120228, Note_off_c, 1, 68, 0
1, 120228, Note_off_c, 1, 52, 0
1, 120240, Note_on_c, 1, 69, 127
1, 120240, Note_on_c, 1, 53, 127
1, 120288, Note_off_c, 1, 69, 0
1, 120300, Note_on_c, 1, 71, 127
1, 120330, Note_off_c, 1, 53, 0
1, 120348, Note_off_c, 1, 71, 0
1, 120360, Note_on_c, 1, 69, 127
1, 120360, Note_on_c, 1, 52, 127
1, 120408, Note_off_c, 1, 69, 0
1, 120420, Note_on_c, 1, 71, 127
1, 120450, Note_off_c, 1, 52, 0
1, 120468, Note_off_c, 1, 71, 0
1, 120480, Note_on_c, 1, 72, 127
1, 120480, Note_on_c, 1, 65, 127
1, 120480, Note_on_c, 1, 50, 127
1, 120570, Note_off_c, 1, 50, 0
1, 120576, Note_off_c, 1, 72, 0
1, 120576, Note_off_c, 1, 65, 0
1, 120600, Note_on_c, 1, 64, 127
1, 120600, Note_on_c, 1, 52, 127
1, 120720, Note_on_c, 1, 69, 127
1, 120792, Note_off_c, 1, 64, 0
1, 120816, Note_off_c, 1, 69, 0
1, 120840, Note_on_c, 1, 68, 127
1, 120840, Note_on_c, 1, 62, 127
1, 120840, Note_on_c, 1, 40, 127
1, 120888, Note_off_c, 1, 52, 0
1, 120936, Note_off_c, 1, 68, 0
1, 120936, Note_off_c, 1, 62, 0
1, 120936, Note_off_c, 1, 40, 0
1, 120960, Note_on_c, 1, 61, 127
1, 120960, Note_on_c, 1, 69, 127
1, 120960, Note_on_c, 1, 52, 127
1, 120960, Note_on_c, 1, 45, 127
1, 121008, Note_off_c, 1, 61, 0
1, 121020, Note_on_c, 1, 57, 127
1, 121056, Note_off_c, 1, 69, 0
1, 121056, Note_off_c, 1, 52, 0
1, 121056, Note_off_c, 1, 45, 0
1, 121068, Note_off_c, 1, 57, 0
1, 121080, Note_on_c, 1, 59, 127
1, 121080, Note_on_c, 1, 45, 127
1, 121128, Note_off_c, 1, 59, 0
1, 121140, Note_on_c, 1, 61, 127
1, 121176, Note_off_c, 1, 45, 0
1, 121188, Note_off_c, 1, 61, 0
1, 121200, Note_on_c, 1, 62, 127
1, 121200, Note_on_c, 1, 45, 127
1, 121248, Note_off_c, 1, 62, 0
1, 121260, Note_on_c, 1, 64, 127
1, 121296, Note_off_c, 1, 45, 0
1, 121308, Note_off_c, 1, 64, 0
1, 121320, Note_on_c, 1, 65, 127
1, 121320, Note_on_c, 1, 45, 127
1, 121380, Note_on_c, 1, 57, 127
1, 121410, Note_off_c, 1, 65, 0
1, 121416, Note_off_c, 1, 45, 0
1, 121440, Note_on_c, 1, 64, 127
1, 121476, Note_off_c, 1, 57, 0
1, 121500, Note_on_c, 1, 55, 127
1, 121530, Note_off_c, 1, 64, 0
1, 121560, Note_on_c, 1, 62, 127
1, 121596, Note_off_c, 1, 55, 0
1, 121620, Note_on_c, 1, 53, 127
1, 121650, Note_off_c, 1, 62, 0
1, 121668, Note_off_c, 1, 53, 0
1, 121680, Note_on_c, 1, 64, 127
1, 121680, Note_on_c, 1, 58, 127
1, 121680, Note_on_c, 1, 45, 127
1, 121740, Note_on_c, 1, 55, 127
1, 121770, Note_off_c, 1, 64, 0
1, 121776, Note_off_c, 1, 58, 0
1, 121776, Note_off_c, 1, 45, 0
1, 121800, Note_on_c, 1, 62, 127
1, 121800, Note_on_c, 1, 57, 127
1, 121836, Note_off_c, 1, 55, 0
1, 121860, Note_on_c, 1, 53, 127
1, 121890, Note_off_c, 1, 62, 0
1, 121896, Note_off_c, 1, 57, 0
1, 121920, Note_on_c, 1, 61, 127
1, 121956, Note_off_c, 1, 53, 0
1, 121980, Note_on_c, 1, 52, 127
1, 122010, Note_off_c, 1, 61, 0
1, 122028, Note_off_c, 1, 52, 0
1, 122040, Note_on_c, 1, 57, 127
1, 122040, Note_on_c, 1, 62, 127
1, 122040, Note_on_c, 1, 53, 127
1, 122088, Note_off_c, 1, 53, 0
1, 122100, Note_on_c, 1, 45, 127
1, 122136, Note_off_c, 1, 57, 0
1, 122136, Note_off_c, 1, 62, 0
1, 122148, Note_off_c, 1, 45, 0
1, 122160, Note_on_c, 1, 57, 127
1, 122160, Note_on_c, 1, 47, 127
1, 122208, Note_off_c, 1, 47, 0
1, 122220, Note_on_c, 1, 49, 127
1, 122256, Note_off_c, 1, 57, 0
1, 122268, Note_off_c, 1, 49, 0
1, 122280, Note_on_c, 1, 57, 127
1, 122280, Note_on_c, 1, 50, 127
1, 122328, Note_off_c, 1, 50, 0
1, 122340, Note_on_c, 1, 52, 127
1, 122376, Note_off_c, 1, 57, 0
1, 122388, Note_off_c, 1, 52, 0
1, 122400, Note_on_c, 1, 57, 127
1, 122400, Note_on_c, 1, 53, 127
1, 122460, Note_on_c, 1, 69, 127
1, 122490, Note_off_c, 1, 53, 0
1, 122496, Note_off_c, 1, 57, 0
1, 122520, Note_on_c, 1, 52, 127
1, 122556, Note_off_c, 1, 69, 0
1, 122580, Note_on_c, 1, 67, 127
1, 122610, Note_off_c, 1, 52, 0
1, 122640, Note_on_c, 1, 50, 127
1, 122676, Note_off_c, 1, 67, 0
1, 122700, Note_on_c, 1, 65, 127
1, 122730, Note_off_c, 1, 50, 0
1, 122748, Note_off_c, 1, 65, 0
1, 122760, Note_on_c, 1, 57, 127
1, 122760, Note_on_c, 1, 52, 127
1, 122820, Note_on_c, 1, 67, 127
1, 122850, Note_off_c, 1, 52, 0
1, 122856, Note_off_c, 1, 57, 0
1, 122880, Note_on_c, 1, 50, 127
1, 122916, Note_off_c, 1, 67, 0
1, 122940, Note_on_c, 1, 65, 127
1, 122970, Note_off_c, 1, 50, 0
1, 123000, Note_on_c, 1, 49, 127
1, 123036, Note_off_c, 1, 65, 0
1, 123060, Note_on_c, 1, 64, 127
1, 123090, Note_off_c, 1, 49, 0
1, 123108, Note_off_c, 1, 64, 0
1, 123120, Note_on_c, 1, 65, 127
1, 123120, Note_on_c, 1, 57, 127
1, 123120, Note_on_c, 1, 50, 127
1, 123168, Note_off_c, 1, 65, 0
1, 123180, Note_on_c, 1, 62, 127
1, 123216, Note_off_c, 1, 57, 0
1, 123216, Note_off_c, 1, 50, 0
1, 123228, Note_off_c, 1, 62, 0
1, 123240, Note_on_c, 1, 64, 127
1, 123240, Note_on_c, 1, 50, 127
1, 123288, Note_off_c, 1, 64, 0
1, 123300, Note_on_c, 1, 66, 127
1, 123336, Note_off_c, 1, 50, 0
1, 123348, Note_off_c, 1, 66, 0
1, 123360, Note_on_c, 1, 67, 127
1, 123360, Note_on_c, 1, 50, 127
1, 123408, Note_off_c, 1, 67, 0
1, 123420, Note_on_c, 1, 69, 127
1, 123456, Note_off_c, 1, 50, 0
1, 123468, Note_off_c, 1, 69, 0
1, 123480, Note_on_c, 1, 70, 127
1, 123480, Note_on_c, 1, 50, 127
1, 123540, Note_on_c, 1, 62, 127
1, 123570, Note_off_c, 1, 70, 0
1, 123576, Note_off_c, 1, 50, 0
1, 123600, Note_on_c, 1, 69, 127
1, 123636, Note_off_c, 1, 62, 0
1, 123660, Note_on_c, 1, 60, 127
1, 123690, Note_off_c, 1, 69, 0
1, 123720, Note_on_c, 1, 67, 127
1, 123756, Note_off_c, 1, 60, 0
1, 123780, Note_on_c, 1, 58, 127
1, 123810, Note_off_c, 1, 67, 0
1, 123828, Note_off_c, 1, 58, 0
1, 123840, Note_on_c, 1, 69, 127
1, 123840, Note_on_c, 1, 63, 127
1, 123840, Note_on_c, 1, 50, 127
1, 123900, Note_on_c, 1, 60, 127
1, 123930, Note_off_c, 1, 69, 0
1, 123936, Note_off_c, 1, 63, 0
1, 123936, Note_off_c, 1, 50, 0
1, 123960, Note_on_c, 1, 67, 127
1, 123960, Note_on_c, 1, 62, 127
1, 123996, Note_off_c, 1, 60, 0
1, 124020, Note_on_c, 1, 58, 127
1, 124050, Note_off_c, 1, 67, 0
1, 124056, Note_off_c, 1, 62, 0
1, 124080, Note_on_c, 1, 66, 127
1, 124116, Note_off_c, 1, 58, 0
1, 124140, Note_on_c, 1, 57, 127
1, 124170, Note_off_c, 1, 66, 0
1, 124188, Note_off_c, 1, 57, 0
1, 124200, Note_on_c, 1, 62, 127
1, 124200, Note_on_c, 1, 67, 127
1, 124200, Note_on_c, 1, 58, 127
1, 124248, Note_off_c, 1, 58, 0
1, 124260, Note_on_c, 1, 50, 127
1, 124296, Note_off_c, 1, 62, 0
1, 124296, Note_off_c, 1, 67, 0
1, 124308, Note_off_c, 1, 50, 0
1, 124320, Note_on_c, 1, 62, 127
1, 124320, Note_on_c, 1, 52, 127
1, 124368, Note_off_c, 1, 52, 0
1, 124380, Note_on_c, 1, 54, 127
1, 124416, Note_off_c, 1, 62, 0
1, 124428, Note_off_c, 1, 54, 0
1, 124440, Note_on_c, 1, 62, 127
1, 124440, Note_on_c, 1, 55, 127
1, 124488, Note_off_c, 1, 55, 0
1, 124500, Note_on_c, 1, 57, 127
1, 124536, Note_off_c, 1, 62, 0
1, 124548, Note_off_c, 1, 57, 0
1, 124560, Note_on_c, 1, 62, 127
1, 124560, Note_on_c, 1, 58, 127
1, 124620, Note_on_c, 1, 74, 127
1, 124650, Note_off_c, 1, 58, 0
1, 124656, Note_off_c, 1, 62, 0
1, 124680, Note_on_c, 1, 57, 127
1, 124716, Note_off_c, 1, 74, 0
1, 124740, Note_on_c, 1, 72, 127
1, 124770, Note_off_c, 1, 57, 0
1, 124800, Note_on_c, 1, 55, 127
1, 124836, Note_off_c, 1, 72, 0
1, 124860, Note_on_c, 1, 70, 127
1, 124890, Note_off_c, 1, 55, 0
1, 124908, Note_off_c, 1, 70, 0
1, 124920, Note_on_c, 1, 62, 127
1, 124920, Note_on_c, 1, 57, 127
1, 124980, Note_on_c, 1, 72, 127
1, 125010, Note_off_c, 1, 57, 0
1, 125016, Note_off_c, 1, 62, 0
1, 125040, Note_on_c, 1, 55, 127
1, 125076, Note_off_c, 1, 72, 0
1, 125100, Note_on_c, 1, 70, 127
1, 125130, Note_off_c, 1, 55, 0
1, 125160, Note_on_c, 1, 54, 127
1, 125196, Note_off_c, 1, 70, 0
1, 125220, Note_on_c, 1, 69, 127
1, 125250, Note_off_c, 1, 54, 0
1, 125268, Note_off_c, 1, 69, 0
1, 125280, Note_on_c, 1, 70, 127
1, 125280, Note_on_c, 1, 62, 127
1, 125280, Note_on_c, 1, 55, 127
1, 125370, Note_off_c, 1, 70, 0
1, 125376, Note_off_c, 1, 62, 0
1, 125376, Note_off_c, 1, 55, 0
1, 125400, Note_on_c, 1, 74, 127
1, 125490, Note_off_c, 1, 74, 0
1, 125520, Note_on_c, 1, 74, 127
1, 125610, Note_off_c, 1, 74, 0
1, 125640, Note_on_c, 1, 74, 127
1, 125730, Note_off_c, 1, 74, 0
1, 125760, Note_on_c, 1, 74, 127
1, 125850, Note_off_c, 1, 74, 0
1, 125880, Note_on_c, 1, 74, 127
1, 125880, Note_on_c, 1, 70, 127
1, 125880, Note_on_c, 1, 67, 127
1, 125970, Note_off_c, 1, 74, 0
1, 125976, Note_off_c, 1, 70, 0
1, 125976, Note_off_c, 1, 67, 0
1, 126000, Note_on_c, 1, 75, 127
1, 126000, Note_on_c, 1, 72, 127
1, 126000, Note_on_c, 1, 63, 127
1, 126048, Note_off_c, 1, 75, 0
1, 126060, Note_on_c, 1, 77, 127
1, 126096, Note_off_c, 1, 63, 0
1, 126108, Note_off_c, 1, 77, 0
1, 126120, Note_on_c, 1, 79, 127
1, 126120, Note_on_c, 1, 62, 127
1, 126168, Note_off_c, 1, 79, 0
1, 126192, Note_off_c, 1, 72, 0
1, 126216, Note_off_c, 1, 62, 0
1, 126240, Note_on_c, 1, 77, 127
1, 126240, Note_on_c, 1, 70, 127
1, 126240, Note_on_c, 1, 60, 127
1, 126288, Note_off_c, 1, 77, 0
1, 126300, Note_on_c, 1, 79, 127
1, 126336, Note_off_c, 1, 70, 0
1, 126336, Note_off_c, 1, 60, 0
1, 126348, Note_off_c, 1, 79, 0
1, 126360, Note_on_c, 1, 72, 127
1, 126360, Note_on_c, 1, 69, 127
1, 126360, Note_on_c, 1, 65, 127
1, 126450, Note_off_c, 1, 72, 0
1, 126648, Note_off_c, 1, 69, 0
1, 126648, Note_off_c, 1, 65, 0
1, 126720, Note_on_c, 1, 72, 127
1, 126810, Note_off_c, 1, 72, 0
1, 126840, Note_on_c, 1, 72, 127
1, 126930, Note_off_c, 1, 72, 0
1, 126960, Note_on_c, 1, 72, 127
1, 126960, Note_on_c, 1, 69, 127
1, 126960, Note_on_c, 1, 63, 127
1, 127050, Note_off_c, 1, 72, 0
1, 127056, Note_off_c, 1, 69, 0
1, 127056, Note_off_c, 1, 63, 0
1, 127080, Note_on_c, 1, 74, 127
1, 127080, Note_on_c, 1, 70, 127
1, 127080, Note_on_c, 1, 62, 127
1, 127128, Note_off_c, 1, 74, 0
1, 127140, Note_on_c, 1, 75, 127
1, 127176, Note_off_c, 1, 62, 0
1, 127188, Note_off_c, 1, 75, 0
1, 127200, Note_on_c, 1, 77, 127
1, 127200, Note_on_c, 1, 60, 127
1, 127248, Note_off_c, 1, 77, 0
1, 127272, Note_off_c, 1, 70, 0
1, 127296, Note_off_c, 1, 60, 0
1, 127320, Note_on_c, 1, 75, 127
1, 127320, Note_on_c, 1, 68, 127
1, 127320, Note_on_c, 1, 58, 127
1, 127368, Note_off_c, 1, 75, 0
1, 127380, Note_on_c, 1, 77, 127
1, 127416, Note_off_c, 1, 68, 0
1, 127416, Note_off_c, 1, 58, 0
1, 127428, Note_off_c, 1, 77, 0
1, 127440, Note_on_c, 1, 70, 127
1, 127440, Note_on_c, 1, 63, 127
1, 127440, Note_on_c, 1, 67, 127
1, 127488, Note_off_c, 1, 70, 0
1, 127500, Note_on_c, 1, 72, 127
1, 127548, Note_off_c, 1, 72, 0
1, 127560, Note_on_c, 1, 74, 127
1, 127608, Note_off_c, 1, 74, 0
1, 127632, Note_off_c, 1, 63, 0
1, 127680, Note_on_c, 1, 62, 127
1, 127776, Note_off_c, 1, 62, 0
1, 127800, Note_on_c, 1, 75, 127
1, 127800, Note_on_c, 1, 60, 127
1, 127848, Note_off_c, 1, 75, 0
1, 127860, Note_on_c, 1, 77, 127
1, 127908, Note_off_c, 1, 77, 0
1, 127920, Note_on_c, 1, 79, 127
1, 127968, Note_off_c, 1, 79, 0
1, 127992, Note_off_c, 1, 67, 0
1, 127992, Note_off_c, 1, 60, 0
1, 128040, Note_on_c, 1, 77, 127
1, 128040, Note_on_c, 1, 62, 127
1, 128040, Note_on_c, 1, 65, 127
1, 128088, Note_off_c, 1, 77, 0
1, 128100, Note_on_c, 1, 79, 127
1, 128136, Note_off_c, 1, 62, 0
1, 128136, Note_off_c, 1, 65, 0
1, 128148, Note_off_c, 1, 79, 0
1, 128160, Note_on_c, 1, 81, 127
1, 128160, Note_on_c, 1, 60, 127
1, 128160, Note_on_c, 1, 63, 127
1, 128208, Note_off_c, 1, 81, 0
1, 128220, Note_on_c, 1, 82, 127
1, 128256, Note_off_c, 1, 60, 0
1, 128256, Note_off_c, 1, 63, 0
1, 128268, Note_off_c, 1, 82, 0
1, 128280, Note_on_c, 1, 84, 127
1, 128280, Note_on_c, 1, 62, 127
1, 128280, Note_on_c, 1, 58, 127
1, 128328, Note_off_c, 1, 84, 0
1, 128340, Note_on_c, 1, 81, 127
1, 128376, Note_off_c, 1, 62, 0
1, 128376, Note_off_c, 1, 58, 0
1, 128388, Note_off_c, 1, 81, 0
1, 128400, Note_on_c, 1, 82, 127
1, 128400, Note_on_c, 1, 57, 127
1, 128400, Note_on_c, 1, 60, 127
1, 128448, Note_off_c, 1, 82, 0
1, 128460, Note_on_c, 1, 84, 127
1, 128496, Note_off_c, 1, 57, 0
1, 128496, Note_off_c, 1, 60, 0
1, 128508, Note_off_c, 1, 84, 0
1, 128520, Note_on_c, 1, 78, 127
1, 128520, Note_on_c, 1, 62, 127
1, 128640, Note_on_c, 1, 69, 127
1, 128736, Note_off_c, 1, 69, 0
1, 128808, Note_off_c, 1, 78, 0
1, 128808, Note_off_c, 1, 62, 0
1, 128880, Note_on_c, 1, 69, 127
1, 128940, Note_on_c, 1, 63, 127
1, 128976, Note_off_c, 1, 69, 0
1, 128988, Note_off_c, 1, 63, 0
1, 129000, Note_on_c, 1, 69, 127
1, 129000, Note_on_c, 1, 62, 127
1, 129048, Note_off_c, 1, 62, 0
1, 129060, Note_on_c, 1, 60, 127
1, 129096, Note_off_c, 1, 69, 0
1, 129108, Note_off_c, 1, 60, 0
1, 129120, Note_on_c, 1, 69, 127
1, 129120, Note_on_c, 1, 58, 127
1, 129168, Note_off_c, 1, 58, 0
1, 129180, Note_on_c, 1, 57, 127
1, 129216, Note_off_c, 1, 69, 0
1, 129228, Note_off_c, 1, 57, 0
1, 129240, Note_on_c, 1, 71, 127
1, 129240, Note_on_c, 1, 77, 127
1, 129240, Note_on_c, 1, 55, 127
1, 129288, Note_off_c, 1, 71, 0
1, 129288, Note_off_c, 1, 55, 0
1, 129300, Note_on_c, 1, 72, 127
1, 129300, Note_on_c, 1, 57, 127
1, 129348, Note_off_c, 1, 72, 0
1, 129348, Note_off_c, 1, 57, 0
1, 129360, Note_on_c, 1, 74, 127
1, 129360, Note_on_c, 1, 59, 127
1, 129408, Note_off_c, 1, 74, 0
1, 129408, Note_off_c, 1, 59, 0
1, 129528, Note_off_c, 1, 77, 0
1, 129540, Note_on_c, 1, 74, 127
1, 129540, Note_on_c, 1, 59, 127
1, 129588, Note_off_c, 1, 74, 0
1, 129588, Note_off_c, 1, 59, 0
1, 129600, Note_on_c, 1, 67, 127
1, 129600, Note_on_c, 1, 76, 127
1, 129600, Note_on_c, 1, 60, 127
1, 129696, Note_off_c, 1, 67, 0
1, 129888, Note_off_c, 1, 76, 0
1, 129888, Note_off_c, 1, 60, 0
1, 129960, Note_on_c, 1, 67, 127
1, 130020, Note_on_c, 1, 62, 127
1, 130056, Note_off_c, 1, 67, 0
1, 130068, Note_off_c, 1, 62, 0
1, 130080, Note_on_c, 1, 67, 127
1, 130080, Note_on_c, 1, 60, 127
1, 130128, Note_off_c, 1, 60, 0
1, 130140, Note_on_c, 1, 58, 127
1, 130176, Note_off_c, 1, 67, 0
1, 130188, Note_off_c, 1, 58, 0
1, 130200, Note_on_c, 1, 67, 127
1, 130200, Note_on_c, 1, 57, 127
1, 130248, Note_off_c, 1, 57, 0
1, 130260, Note_on_c, 1, 55, 127
1, 130296, Note_off_c, 1, 67, 0
1, 130308, Note_off_c, 1, 55, 0
1, 130320, Note_on_c, 1, 69, 127
1, 130320, Note_on_c, 1, 75, 127
1, 130320, Note_on_c, 1, 53, 127
1, 130368, Note_off_c, 1, 69, 0
1, 130368, Note_off_c, 1, 53, 0
1, 130380, Note_on_c, 1, 70, 127
1, 130380, Note_on_c, 1, 55, 127
1, 130428, Note_off_c, 1, 70, 0
1, 130428, Note_off_c, 1, 55, 0
1, 130440, Note_on_c, 1, 72, 127
1, 130440, Note_on_c, 1, 57, 127
1, 130488, Note_off_c, 1, 72, 0
1, 130488, Note_off_c, 1, 57, 0
1, 130608, Note_off_c, 1, 75, 0
1, 130620, Note_on_c, 1, 72, 127
1, 130620, Note_on_c, 1, 57, 127
1, 130668, Note_off_c, 1, 72, 0
1, 130668, Note_off_c, 1, 57, 0
1, 130680, Note_on_c, 1, 74, 127
1, 130680, Note_on_c, 1, 58, 127
1, 130728, Note_off_c, 1, 58, 0
1, 130740, Note_on_c, 1, 57, 127
1, 130788, Note_off_c, 1, 57, 0
1, 130800, Note_on_c, 1, 77, 127
1, 130860, Note_on_c, 1, 62, 127
1, 130896, Note_off_c, 1, 77, 0
1, 130908, Note_off_c, 1, 62, 0
1, 130920, Note_on_c, 1, 82, 127
1, 130968, Note_off_c, 1, 74, 0
1, 131016, Note_off_c, 1, 82, 0
1, 131040, Note_on_c, 1, 75, 127
1, 131040, Note_on_c, 1, 55, 127
1, 131088, Note_off_c, 1, 55, 0
1, 131100, Note_on_c, 1, 57, 127
1, 131148, Note_off_c, 1, 57, 0
1, 131160, Note_on_c, 1, 79, 127
1, 131160, Note_on_c, 1, 58, 127
1, 131208, Note_off_c, 1, 58, 0
1, 131220, Note_on_c, 1, 62, 127
1, 131256, Note_off_c, 1, 79, 0
1, 131268, Note_off_c, 1, 62, 0
1, 131280, Note_on_c, 1, 82, 127
1, 131328, Note_off_c, 1, 75, 0
1, 131376, Note_off_c, 1, 82, 0
1, 131400, Note_on_c, 1, 74, 127
1, 131400, Note_on_c, 1, 53, 127
1, 131448, Note_off_c, 1, 53, 0
1, 131460, Note_on_c, 1, 57, 127
1, 131508, Note_off_c, 1, 57, 0
1, 131520, Note_on_c, 1, 77, 127
1, 131520, Note_on_c, 1, 58, 127
1, 131568, Note_off_c, 1, 58, 0
1, 131580, Note_on_c, 1, 62, 127
1, 131616, Note_off_c, 1, 77, 0
1, 131628, Note_off_c, 1, 62, 0
1, 131640, Note_on_c, 1, 82, 127
1, 131688, Note_off_c, 1, 74, 0
1, 131736, Note_off_c, 1, 82, 0
1, 131760, Note_on_c, 1, 72, 127
1, 131760, Note_on_c, 1, 51, 127
1, 131808, Note_off_c, 1, 51, 0
1, 131820, Note_on_c, 1, 57, 127
1, 131868, Note_off_c, 1, 57, 0
1, 131880, Note_on_c, 1, 79, 127
1, 131880, Note_on_c, 1, 58, 127
1, 131928, Note_off_c, 1, 58, 0
1, 131940, Note_on_c, 1, 62, 127
1, 131976, Note_off_c, 1, 79, 0
1, 131988, Note_off_c, 1, 62, 0
1, 132000, Note_on_c, 1, 82, 127
1, 132048, Note_off_c, 1, 72, 0
1, 132096, Note_off_c, 1, 82, 0
1, 132120, Note_on_c, 1, 70, 127
1, 132120, Note_on_c, 1, 50, 127
1, 132168, Note_off_c, 1, 50, 0
1, 132180, Note_on_c, 1, 57, 127
1, 132228, Note_off_c, 1, 57, 0
1, 132240, Note_on_c, 1, 77, 127
1, 132240, Note_on_c, 1, 58, 127
1, 132288, Note_off_c, 1, 58, 0
1, 132300, Note_on_c, 1, 62, 127
1, 132336, Note_off_c, 1, 77, 0
1, 132348, Note_off_c, 1, 62, 0
1, 132360, Note_on_c, 1, 82, 127
1, 132408, Note_off_c, 1, 70, 0
1, 132456, Note_off_c, 1, 82, 0
1, 132480, Note_on_c, 1, 70, 127
1, 132480, Note_on_c, 1, 51, 127
1, 132528, Note_off_c, 1, 51, 0
1, 132540, Note_on_c, 1, 57, 127
1, 132588, Note_off_c, 1, 57, 0
1, 132600, Note_on_c, 1, 75, 127
1, 132600, Note_on_c, 1, 58, 127
1, 132648, Note_off_c, 1, 58, 0
1, 132660, Note_on_c, 1, 62, 127
1, 132696, Note_off_c, 1, 75, 0
1, 132708, Note_off_c, 1, 62, 0
1, 132720, Note_on_c, 1, 79, 127
1, 132768, Note_off_c, 1, 70, 0
1, 132816, Note_off_c, 1, 79, 0
1, 132840, Note_on_c, 1, 72, 127
1, 132840, Note_on_c, 1, 45, 127
1, 132888, Note_off_c, 1, 72, 0
1, 132900, Note_on_c, 1, 74, 127
1, 132948, Note_off_c, 1, 74, 0
1, 132960, Note_on_c, 1, 75, 127
1, 133008, Note_off_c, 1, 75, 0
1, 133020, Note_on_c, 1, 79, 127
1, 133068, Note_off_c, 1, 79, 0
1, 133248, Note_off_c, 1, 45, 0
1, 133260, Note_on_c, 1, 74, 127
1, 133260, Note_on_c, 1, 46, 127
1, 133308, Note_off_c, 1, 74, 0
1, 133308, Note_off_c, 1, 46, 0
1, 133320, Note_on_c, 1, 75, 127
1, 133320, Note_on_c, 1, 48, 127
1, 133368, Note_off_c, 1, 75, 0
1, 133368, Note_off_c, 1, 48, 0
1, 133380, Note_on_c, 1, 77, 127
1, 133380, Note_on_c, 1, 45, 127
1, 133428, Note_off_c, 1, 77, 0
1, 133428, Note_off_c, 1, 45, 0
1, 133440, Note_on_c, 1, 79, 127
1, 133440, Note_on_c, 1, 46, 127
1, 133488, Note_off_c, 1, 79, 0
1, 133488, Note_off_c, 1, 46, 0
1, 133500, Note_on_c, 1, 81, 127
1, 133500, Note_on_c, 1, 48, 127
1, 133548, Note_off_c, 1, 81, 0
1, 133548, Note_off_c, 1, 48, 0
1, 133560, Note_on_c, 1, 82, 127
1, 133560, Note_on_c, 1, 41, 127
1, 133608, Note_off_c, 1, 82, 0
1, 133620, Note_on_c, 1, 81, 127
1, 133656, Note_off_c, 1, 41, 0
1, 133668, Note_off_c, 1, 81, 0
1, 133680, Note_on_c, 1, 84, 127
1, 133680, Note_on_c, 1, 53, 127
1, 133728, Note_off_c, 1, 84, 0
1, 133740, Note_on_c, 1, 82, 127
1, 133776, Note_off_c, 1, 53, 0
1, 133788, Note_off_c, 1, 82, 0
1, 133800, Note_on_c, 1, 81, 127
1, 133800, Note_on_c, 1, 51, 127
1, 133848, Note_off_c, 1, 81, 0
1, 133860, Note_on_c, 1, 79, 127
1, 133896, Note_off_c, 1, 51, 0
1, 133908, Note_off_c, 1, 79, 0
1, 133920, Note_on_c, 1, 77, 127
1, 133920, Note_on_c, 1, 51, 127
1, 133944, Note_off_c, 1, 51, 0
1, 133950, Note_on_c, 1, 50, 127
1, 133968, Note_off_c, 1, 77, 0
1, 133974, Note_off_c, 1, 50, 0
1, 133980, Note_on_c, 1, 82, 127
1, 133980, Note_on_c, 1, 51, 127
1, 134004, Note_off_c, 1, 51, 0
1, 134010, Note_on_c, 1, 50, 127
1, 134028, Note_off_c, 1, 82, 0
1, 134040, Note_on_c, 1, 81, 127
1, 134088, Note_off_c, 1, 81, 0
1, 134100, Note_on_c, 1, 79, 127
1, 134136, Note_off_c, 1, 50, 0
1, 134148, Note_off_c, 1, 79, 0
1, 134160, Note_on_c, 1, 77, 127
1, 134160, Note_on_c, 1, 48, 127
1, 134208, Note_off_c, 1, 77, 0
1, 134220, Note_on_c, 1, 75, 127
1, 134256, Note_off_c, 1, 48, 0
1, 134268, Note_off_c, 1, 75, 0
1, 134280, Note_on_c, 1, 74, 127
1, 134280, Note_on_c, 1, 46, 127
1, 134328, Note_off_c, 1, 74, 0
1, 134340, Note_on_c, 1, 75, 127
1, 134376, Note_off_c, 1, 46, 0
1, 134388, Note_off_c, 1, 75, 0
1, 134400, Note_on_c, 1, 77, 127
1, 134400, Note_on_c, 1, 58, 127
1, 134448, Note_off_c, 1, 77, 0
1, 134460, Note_on_c, 1, 72, 127
1, 134496, Note_off_c, 1, 58, 0
1, 134508, Note_off_c, 1, 72, 0
1, 134520, Note_on_c, 1, 74, 127
1, 134520, Note_on_c, 1, 56, 127
1, 134568, Note_off_c, 1, 74, 0
1, 134580, Note_on_c, 1, 70, 127
1, 134616, Note_off_c, 1, 56, 0
1, 134628, Note_off_c, 1, 70, 0
1, 134640, Note_on_c, 1, 75, 127
1, 134640, Note_on_c, 1, 55, 127
1, 134688, Note_off_c, 1, 75, 0
1, 134700, Note_on_c, 1, 77, 127
1, 134736, Note_off_c, 1, 55, 0
1, 134748, Note_off_c, 1, 77, 0
1, 134760, Note_on_c, 1, 79, 127
1, 134760, Note_on_c, 1, 53, 127
1, 134808, Note_off_c, 1, 79, 0
1, 134820, Note_on_c, 1, 74, 127
1, 134856, Note_off_c, 1, 53, 0
1, 134868, Note_off_c, 1, 74, 0
1, 134880, Note_on_c, 1, 75, 127
1, 134880, Note_on_c, 1, 51, 127
1, 134928, Note_off_c, 1, 75, 0
1, 134940, Note_on_c, 1, 72, 127
1, 134976, Note_off_c, 1, 51, 0
1, 134988, Note_off_c, 1, 72, 0
1, 135000, Note_on_c, 1, 77, 127
1, 135000, Note_on_c, 1, 63, 127
1, 135048, Note_off_c, 1, 77, 0
1, 135048, Note_off_c, 1, 63, 0
1, 135060, Note_on_c, 1, 79, 127
1, 135060, Note_on_c, 1, 62, 127
1, 135108, Note_off_c, 1, 79, 0
1, 135108, Note_off_c, 1, 62, 0
1, 135120, Note_on_c, 1, 81, 127
1, 135120, Note_on_c, 1, 60, 127
1, 135168, Note_off_c, 1, 81, 0
1, 135168, Note_off_c, 1, 60, 0
1, 135180, Note_on_c, 1, 74, 127
1, 135180, Note_on_c, 1, 58, 127
1, 135228, Note_off_c, 1, 74, 0
1, 135228, Note_off_c, 1, 58, 0
1, 135240, Note_on_c, 1, 75, 127
1, 135240, Note_on_c, 1, 60, 127
1, 135288, Note_off_c, 1, 75, 0
1, 135288, Note_off_c, 1, 60, 0
1, 135300, Note_on_c, 1, 72, 127
1, 135300, Note_on_c, 1, 57, 127
1, 135348, Note_off_c, 1, 72, 0
1, 135348, Note_off_c, 1, 57, 0
1, 135360, Note_on_c, 1, 74, 127
1, 135360, Note_on_c, 1, 58, 127
1, 135408, Note_off_c, 1, 74, 0
1, 135420, Note_on_c, 1, 81, 127
1, 135450, Note_off_c, 1, 58, 0
1, 135468, Note_off_c, 1, 81, 0
1, 135480, Note_on_c, 1, 82, 127
1, 135480, Note_on_c, 1, 50, 127
1, 135528, Note_off_c, 1, 82, 0
1, 135540, Note_on_c, 1, 77, 127
1, 135570, Note_off_c, 1, 50, 0
1, 135588, Note_off_c, 1, 77, 0
1, 135600, Note_on_c, 1, 79, 127
1, 135600, Note_on_c, 1, 51, 127
1, 135648, Note_off_c, 1, 79, 0
1, 135660, Note_on_c, 1, 75, 127
1, 135690, Note_off_c, 1, 51, 0
1, 135708, Note_off_c, 1, 75, 0
1, 135720, Note_on_c, 1, 74, 127
1, 135720, Note_on_c, 1, 53, 127
1, 135768, Note_off_c, 1, 74, 0
1, 135780, Note_on_c, 1, 72, 127
1, 135810, Note_off_c, 1, 53, 0
1, 135828, Note_off_c, 1, 72, 0
1, 135840, Note_on_c, 1, 75, 127
1, 135840, Note_on_c, 1, 51, 127
1, 135888, Note_off_c, 1, 75, 0
1, 135900, Note_on_c, 1, 74, 127
1, 135930, Note_off_c, 1, 51, 0
1, 135948, Note_off_c, 1, 74, 0
1, 135960, Note_on_c, 1, 72, 127
1, 135960, Note_on_c, 1, 53, 127
1, 136008, Note_off_c, 1, 72, 0
1, 136020, Note_on_c, 1, 74, 127
1, 136050, Note_off_c, 1, 53, 0
1, 136068, Note_off_c, 1, 74, 0
1, 136080, Note_on_c, 1, 70, 127
1, 136080, Note_on_c, 1, 46, 127
1, 136128, Note_off_c, 1, 70, 0
1, 136140, Note_on_c, 1, 74, 127
1, 136188, Note_off_c, 1, 74, 0
1, 136200, Note_on_c, 1, 77, 127
1, 136248, Note_off_c, 1, 77, 0
1, 136440, Note_on_c, 1, 82, 127
1, 136488, Note_off_c, 1, 46, 0
1, 136500, Note_on_c, 1, 50, 127
1, 136536, Note_off_c, 1, 82, 0
1, 136548, Note_off_c, 1, 50, 0
1, 136560, Note_on_c, 1, 74, 127
1, 136560, Note_on_c, 1, 82, 127
1, 136560, Note_on_c, 1, 53, 127
1, 136608, Note_off_c, 1, 53, 0
1, 136620, Note_on_c, 1, 46, 127
1, 136656, Note_off_c, 1, 74, 0
1, 136656, Note_off_c, 1, 82, 0
1, 136668, Note_off_c, 1, 46, 0
1, 136680, Note_on_c, 1, 74, 127
1, 136680, Note_on_c, 1, 82, 127
1, 136680, Note_on_c, 1, 50, 127
1, 136728, Note_off_c, 1, 50, 0
1, 136740, Note_on_c, 1, 53, 127
1, 136776, Note_off_c, 1, 74, 0
1, 136776, Note_off_c, 1, 82, 0
1, 136788, Note_off_c, 1, 53, 0
1, 136800, Note_on_c, 1, 82, 127
1, 136800, Note_on_c, 1, 74, 127
1, 136800, Note_on_c, 1, 58, 127
1, 136848, Note_off_c, 1, 58, 0
1, 136860, Note_on_c, 1, 62, 127
1, 136896, Note_off_c, 1, 82, 0
1, 136896, Note_off_c, 1, 74, 0
1, 136908, Note_off_c, 1, 62, 0
1, 136920, Note_on_c, 1, 74, 127
1, 136920, Note_on_c, 1, 82, 127
1, 136920, Note_on_c, 1, 65, 127
1, 136968, Note_off_c, 1, 65, 0
1, 136980, Note_on_c, 1, 58, 127
1, 137016, Note_off_c, 1, 74, 0
1, 137016, Note_off_c, 1, 82, 0
1, 137028, Note_off_c, 1, 58, 0
1, 137040, Note_on_c, 1, 82, 127
1, 137040, Note_on_c, 1, 74, 127
1, 137040, Note_on_c, 1, 62, 127
1, 137088, Note_off_c, 1, 62, 0
1, 137100, Note_on_c, 1, 65, 127
1, 137136, Note_off_c, 1, 82, 0
1, 137136, Note_off_c, 1, 74, 0
1, 137148, Note_off_c, 1, 65, 0
1, 137160, Note_on_c, 1, 82, 127
1, 137160, Note_on_c, 1, 72, 127
1, 137160, Note_on_c, 1, 51, 127
1, 137208, Note_off_c, 1, 82, 0
1, 137220, Note_on_c, 1, 79, 127
1, 137256, Note_off_c, 1, 72, 0
1, 137256, Note_off_c, 1, 51, 0
1, 137268, Note_off_c, 1, 79, 0
1, 137280, Note_on_c, 1, 75, 127
1, 137328, Note_off_c, 1, 75, 0
1, 137340, Note_on_c, 1, 79, 127
1, 137388, Note_off_c, 1, 79, 0
1, 137400, Note_on_c, 1, 75, 127
1, 137448, Note_off_c, 1, 75, 0
1, 137460, Note_on_c, 1, 72, 127
1, 137508, Note_off_c, 1, 72, 0
1, 137520, Note_on_c, 1, 81, 127
1, 137520, Note_on_c, 1, 41, 127
1, 137568, Note_off_c, 1, 41, 0
1, 137580, Note_on_c, 1, 45, 127
1, 137616, Note_off_c, 1, 81, 0
1, 137628, Note_off_c, 1, 45, 0
1, 137640, Note_on_c, 1, 72, 127
1, 137640, Note_on_c, 1, 81, 127
1, 137640, Note_on_c, 1, 48, 127
1, 137688, Note_off_c, 1, 48, 0
1, 137700, Note_on_c, 1, 41, 127
1, 137736, Note_off_c, 1, 72, 0
1, 137736, Note_off_c, 1, 81, 0
1, 137748, Note_off_c, 1, 41, 0
1, 137760, Note_on_c, 1, 81, 127
1, 137760, Note_on_c, 1, 72, 127
1, 137760, Note_on_c, 1, 45, 127
1, 137808, Note_off_c, 1, 45, 0
1, 137820, Note_on_c, 1, 48, 127
1, 137856, Note_off_c, 1, 81, 0
1, 137856, Note_off_c, 1, 72, 0
1, 137868, Note_off_c, 1, 48, 0
1, 137880, Note_on_c, 1, 81, 127
1, 137880, Note_on_c, 1, 72, 127
1, 137880, Note_on_c, 1, 53, 127
1, 137928, Note_off_c, 1, 53, 0
1, 137940, Note_on_c, 1, 57, 127
1, 137976, Note_off_c, 1, 81, 0
1, 137976, Note_off_c, 1, 72, 0
1, 137988, Note_off_c, 1, 57, 0
1, 138000, Note_on_c, 1, 72, 127
1, 138000, Note_on_c, 1, 81, 127
1, 138000, Note_on_c, 1, 60, 127
1, 138048, Note_off_c, 1, 60, 0
1, 138060, Note_on_c, 1, 53, 127
1, 138096, Note_off_c, 1, 72, 0
1, 138096, Note_off_c, 1, 81, 0
1, 138108, Note_off_c, 1, 53, 0
1, 138120, Note_on_c, 1, 81, 127
1, 138120, Note_on_c, 1, 72, 127
1, 138120, Note_on_c, 1, 57, 127
1, 138168, Note_off_c, 1, 57, 0
1, 138180, Note_on_c, 1, 60, 127
1, 138216, Note_off_c, 1, 81, 0
1, 138216, Note_off_c, 1, 72, 0
1, 138228, Note_off_c, 1, 60, 0
1, 138240, Note_on_c, 1, 80, 127
1, 138240, Note_on_c, 1, 70, 127
1, 138240, Note_on_c, 1, 50, 127
1, 138288, Note_off_c, 1, 80, 0
1, 138300, Note_on_c, 1, 77, 127
1, 138336, Note_off_c, 1, 70, 0
1, 138336, Note_off_c, 1, 50, 0
1, 138348, Note_off_c, 1, 77, 0
1, 138360, Note_on_c, 1, 74, 127
1, 138408, Note_off_c, 1, 74, 0
1, 138420, Note_on_c, 1, 77, 127
1, 138468, Note_off_c, 1, 77, 0
1, 138480, Note_on_c, 1, 74, 127
1, 138528, Note_off_c, 1, 74, 0
1, 138540, Note_on_c, 1, 70, 127
1, 138588, Note_off_c, 1, 70, 0
1, 138600, Note_on_c, 1, 79, 127
1, 138600, Note_on_c, 1, 39, 127
1, 138648, Note_off_c, 1, 39, 0
1, 138660, Note_on_c, 1, 43, 127
1, 138696, Note_off_c, 1, 79, 0
1, 138708, Note_off_c, 1, 43, 0
1, 138720, Note_on_c, 1, 79, 127
1, 138720, Note_on_c, 1, 70, 127
1, 138720, Note_on_c, 1, 46, 127
1, 138768, Note_off_c, 1, 46, 0
1, 138780, Note_on_c, 1, 39, 127
1, 138816, Note_off_c, 1, 79, 0
1, 138816, Note_off_c, 1, 70, 0
1, 138828, Note_off_c, 1, 39, 0
1, 138840, Note_on_c, 1, 70, 127
1, 138840, Note_on_c, 1, 79, 127
1, 138840, Note_on_c, 1, 43, 127
1, 138888, Note_off_c, 1, 43, 0
1, 138900, Note_on_c, 1, 46, 127
1, 138936, Note_off_c, 1, 70, 0
1, 138936, Note_off_c, 1, 79, 0
1, 138948, Note_off_c, 1, 46, 0
1, 138960, Note_on_c, 1, 79, 127
1, 138960, Note_on_c, 1, 70, 127
1, 138960, Note_on_c, 1, 51, 127
1, 139008, Note_off_c, 1, 51, 0
1, 139020, Note_on_c, 1, 55, 127
1, 139056, Note_off_c, 1, 79, 0
1, 139056, Note_off_c, 1, 70, 0
1, 139068, Note_off_c, 1, 55, 0
1, 139080, Note_on_c, 1, 70, 127
1, 139080, Note_on_c, 1, 79, 127
1, 139080, Note_on_c, 1, 58, 127
1, 139128, Note_off_c, 1, 58, 0
1, 139140, Note_on_c, 1, 51, 127
1, 139176, Note_off_c, 1, 70, 0
1, 139176, Note_off_c, 1, 79, 0
1, 139188, Note_off_c, 1, 51, 0
1, 139200, Note_on_c, 1, 79, 127
1, 139200, Note_on_c, 1, 70, 127
1, 139200, Note_on_c, 1, 55, 127
1, 139248, Note_off_c, 1, 55, 0
1, 139260, Note_on_c, 1, 58, 127
1, 139296, Note_off_c, 1, 79, 0
1, 139296, Note_off_c, 1, 70, 0
1, 139308, Note_off_c, 1, 58, 0
1, 139320, Note_on_c, 1, 75, 127
1, 139320, Note_on_c, 1, 79, 127
1, 139320, Note_on_c, 1, 48, 127
1, 139368, Note_off_c, 1, 48, 0
1, 139380, Note_on_c, 1, 51, 127
1, 139416, Note_off_c, 1, 75, 0
1, 139428, Note_off_c, 1, 51, 0
1, 139440, Note_on_c, 1, 74, 127
1, 139440, Note_on_c, 1, 55, 127
1, 139488, Note_off_c, 1, 55, 0
1, 139536, Note_off_c, 1, 74, 0
1, 139560, Note_on_c, 1, 72, 127
1, 139608, Note_off_c, 1, 79, 0
1, 139656, Note_off_c, 1, 72, 0
1, 139680, Note_on_c, 1, 84, 127
1, 139680, Note_on_c, 1, 72, 127
1, 139680, Note_on_c, 1, 45, 127
1, 139728, Note_off_c, 1, 45, 0
1, 139740, Note_on_c, 1, 48, 127
1, 139776, Note_off_c, 1, 84, 0
1, 139788, Note_off_c, 1, 48, 0
1, 139800, Note_on_c, 1, 82, 127
1, 139800, Note_on_c, 1, 51, 127
1, 139848, Note_off_c, 1, 51, 0
1, 139896, Note_off_c, 1, 82, 0
1, 139920, Note_on_c, 1, 81, 127
1, 140016, Note_off_c, 1, 81, 0
1, 140040, Note_on_c, 1, 42, 127
1, 140088, Note_off_c, 1, 42, 0
1, 140160, Note_on_c, 1, 79, 127
1, 140256, Note_off_c, 1, 79, 0
1, 140280, Note_on_c, 1, 78, 127
1, 140376, Note_off_c, 1, 78, 0
1, 140400, Note_on_c, 1, 38, 127
1, 140448, Note_off_c, 1, 72, 0
1, 140496, Note_off_c, 1, 38, 0
1, 140520, Note_on_c, 1, 74, 127
1, 140520, Note_on_c, 1, 50, 127
1, 140568, Note_off_c, 1, 74, 0
1, 140580, Note_on_c, 1, 78, 127
1, 140616, Note_off_c, 1, 50, 0
1, 140628, Note_off_c, 1, 78, 0
1, 140640, Note_on_c, 1, 72, 127
1, 140640, Note_on_c, 1, 38, 127
1, 140688, Note_off_c, 1, 72, 0
1, 140700, Note_on_c, 1, 74, 127
1, 140730, Note_off_c, 1, 38, 0
1, 140748, Note_off_c, 1, 74, 0
1, 140760, Note_on_c, 1, 70, 127
1, 140760, Note_on_c, 1, 38, 127
1, 140808, Note_off_c, 1, 70, 0
1, 140820, Note_on_c, 1, 74, 127
1, 140856, Note_off_c, 1, 38, 0
1, 140868, Note_off_c, 1, 74, 0
1, 140880, Note_on_c, 1, 75, 127
1, 140880, Note_on_c, 1, 50, 127
1, 140928, Note_off_c, 1, 75, 0
1, 140940, Note_on_c, 1, 79, 127
1, 140976, Note_off_c, 1, 50, 0
1, 140988, Note_off_c, 1, 79, 0
1, 141000, Note_on_c, 1, 74, 127
1, 141000, Note_on_c, 1, 38, 127
1, 141048, Note_off_c, 1, 74, 0
1, 141060, Note_on_c, 1, 75, 127
1, 141090, Note_off_c, 1, 38, 0
1, 141108, Note_off_c, 1, 75, 0
1, 141120, Note_on_c, 1, 72, 127
1, 141120, Note_on_c, 1, 38, 127
1, 141168, Note_off_c, 1, 72, 0
1, 141180, Note_on_c, 1, 76, 127
1, 141216, Note_off_c, 1, 38, 0
1, 141228, Note_off_c, 1, 76, 0
1, 141240, Note_on_c, 1, 78, 127
1, 141240, Note_on_c, 1, 50, 127
1, 141288, Note_off_c, 1, 78, 0
1, 141300, Note_on_c, 1, 81, 127
1, 141336, Note_off_c, 1, 50, 0
1, 141348, Note_off_c, 1, 81, 0
1, 141360, Note_on_c, 1, 76, 127
1, 141360, Note_on_c, 1, 38, 127
1, 141408, Note_off_c, 1, 76, 0
1, 141420, Note_on_c, 1, 78, 127
1, 141450, Note_off_c, 1, 38, 0
1, 141468, Note_off_c, 1, 78, 0
1, 141480, Note_on_c, 1, 74, 127
1, 141480, Note_on_c, 1, 38, 127
1, 141528, Note_off_c, 1, 74, 0
1, 141540, Note_on_c, 1, 78, 127
1, 141576, Note_off_c, 1, 38, 0
1, 141588, Note_off_c, 1, 78, 0
1, 141600, Note_on_c, 1, 79, 127
1, 141600, Note_on_c, 1, 50, 127
1, 141648, Note_off_c, 1, 79, 0
1, 141660, Note_on_c, 1, 82, 127
1, 141696, Note_off_c, 1, 50, 0
1, 141708, Note_off_c, 1, 82, 0
1, 141720, Note_on_c, 1, 78, 127
1, 141720, Note_on_c, 1, 38, 127
1, 141768, Note_off_c, 1, 78, 0
1, 141780, Note_on_c, 1, 79, 127
1, 141810, Note_off_c, 1, 38, 0
1, 141828, Note_off_c, 1, 79, 0
1, 141840, Note_on_c, 1, 76, 127
1, 141840, Note_on_c, 1, 38, 127
1, 141888, Note_off_c, 1, 76, 0
1, 141900, Note_on_c, 1, 79, 127
1, 141936, Note_off_c, 1, 38, 0
1, 141948, Note_off_c, 1, 79, 0
1, 141960, Note_on_c, 1, 81, 127
1, 141960, Note_on_c, 1, 50, 127
1, 142008, Note_off_c, 1, 81, 0
1, 142020, Note_on_c, 1, 84, 127
1, 142056, Note_off_c, 1, 50, 0
1, 142068, Note_off_c, 1, 84, 0
1, 142080, Note_on_c, 1, 79, 127
1, 142080, Note_on_c, 1, 38, 127
1, 142128, Note_off_c, 1, 79, 0
1, 142140, Note_on_c, 1, 81, 127
1, 142170, Note_off_c, 1, 38, 0
1, 142188, Note_off_c, 1, 81, 0
1, 142200, Note_on_c, 1, 78, 127
1, 142200, Note_on_c, 1, 38, 127
1, 142248, Note_off_c, 1, 78, 0
1, 142260, Note_on_c, 1, 79, 127
1, 142296, Note_off_c, 1, 38, 0
1, 142308, Note_off_c, 1, 79, 0
1, 142320, Note_on_c, 1, 81, 127
1, 142320, Note_on_c, 1, 50, 127
1, 142368, Note_off_c, 1, 81, 0
1, 142380, Note_on_c, 1, 84, 127
1, 142416, Note_off_c, 1, 50, 0
1, 142428, Note_off_c, 1, 84, 0
1, 142440, Note_on_c, 1, 78, 127
1, 142440, Note_on_c, 1, 38, 127
1, 142488, Note_off_c, 1, 78, 0
1, 142500, Note_on_c, 1, 81, 127
1, 142530, Note_off_c, 1, 38, 0
1, 142548, Note_off_c, 1, 81, 0
1, 142560, Note_on_c, 1, 82, 127
1, 142560, Note_on_c, 1, 43, 127
1, 142608, Note_off_c, 1, 82, 0
1, 142608, Note_off_c, 1, 43, 0
1, 142620, Note_on_c, 1, 81, 127
1, 142620, Note_on_c, 1, 45, 127
1, 142668, Note_off_c, 1, 81, 0
1, 142668, Note_off_c, 1, 45, 0
1, 142680, Note_on_c, 1, 79, 127
1, 142680, Note_on_c, 1, 46, 127
1, 142728, Note_off_c, 1, 79, 0
1, 142728, Note_off_c, 1, 46, 0
1, 142740, Note_on_c, 1, 77, 127
1, 142740, Note_on_c, 1, 43, 127
1, 142788, Note_off_c, 1, 77, 0
1, 142788, Note_off_c, 1, 43, 0
1, 142800, Note_on_c, 1, 75, 127
1, 142800, Note_on_c, 1, 45, 127
1, 142848, Note_off_c, 1, 75, 0
1, 142848, Note_off_c, 1, 45, 0
1, 142860, Note_on_c, 1, 74, 127
1, 142860, Note_on_c, 1, 46, 127
1, 142908, Note_off_c, 1, 74, 0
1, 142908, Note_off_c, 1, 46, 0
1, 142920, Note_on_c, 1, 75, 127
1, 142920, Note_on_c, 1, 48, 127
1, 142968, Note_off_c, 1, 75, 0
1, 142980, Note_on_c, 1, 72, 127
1, 143010, Note_off_c, 1, 48, 0
1, 143028, Note_off_c, 1, 72, 0
1, 143040, Note_on_c, 1, 81, 127
1, 143040, Note_on_c, 1, 46, 127
1, 143088, Note_off_c, 1, 81, 0
1, 143100, Note_on_c, 1, 74, 127
1, 143130, Note_off_c, 1, 46, 0
1, 143148, Note_off_c, 1, 74, 0
1, 143160, Note_on_c, 1, 75, 127
1, 143160, Note_on_c, 1, 45, 127
1, 143208, Note_off_c, 1, 75, 0
1, 143220, Note_on_c, 1, 72, 127
1, 143250, Note_off_c, 1, 45, 0
1, 143268, Note_off_c, 1, 72, 0
1, 143280, Note_on_c, 1, 74, 127
1, 143280, Note_on_c, 1, 46, 127
1, 143328, Note_off_c, 1, 74, 0
1, 143340, Note_on_c, 1, 70, 127
1, 143370, Note_off_c, 1, 46, 0
1, 143388, Note_off_c, 1, 70, 0
1, 143400, Note_on_c, 1, 79, 127
1, 143400, Note_on_c, 1, 45, 127
1, 143448, Note_off_c, 1, 79, 0
1, 143460, Note_on_c, 1, 72, 127
1, 143490, Note_off_c, 1, 45, 0
1, 143508, Note_off_c, 1, 72, 0
1, 143520, Note_on_c, 1, 74, 127
1, 143520, Note_on_c, 1, 43, 127
1, 143568, Note_off_c, 1, 74, 0
1, 143580, Note_on_c, 1, 70, 127
1, 143610, Note_off_c, 1, 43, 0
1, 143628, Note_off_c, 1, 70, 0
1, 143640, Note_on_c, 1, 72, 127
1, 143640, Note_on_c, 1, 50, 127
1, 143688, Note_off_c, 1, 50, 0
1, 143700, Note_on_c, 1, 62, 127
1, 143748, Note_off_c, 1, 62, 0
1, 143760, Note_on_c, 1, 60, 127
1, 143808, Note_off_c, 1, 60, 0
1, 143820, Note_on_c, 1, 58, 127
1, 143868, Note_off_c, 1, 58, 0
1, 143880, Note_on_c, 1, 57, 127
1, 143928, Note_off_c, 1, 57, 0
1, 143940, Note_on_c, 1, 55, 127
1, 143988, Note_off_c, 1, 55, 0
1, 144000, Note_on_c, 1, 54, 127
1, 144048, Note_off_c, 1, 72, 0
1, 144060, Note_on_c, 1, 75, 127
1, 144090, Note_off_c, 1, 54, 0
1, 144108, Note_off_c, 1, 75, 0
1, 144120, Note_on_c, 1, 74, 127
1, 144120, Note_on_c, 1, 55, 127
1, 144168, Note_off_c, 1, 74, 0
1, 144180, Note_on_c, 1, 72, 127
1, 144210, Note_off_c, 1, 55, 0
1, 144228, Note_off_c, 1, 72, 0
1, 144240, Note_on_c, 1, 70, 127
1, 144240, Note_on_c, 1, 57, 127
1, 144288, Note_off_c, 1, 70, 0
1, 144300, Note_on_c, 1, 69, 127
1, 144330, Note_off_c, 1, 57, 0
1, 144348, Note_off_c, 1, 69, 0
1, 144360, Note_on_c, 1, 70, 127
1, 144360, Note_on_c, 1, 55, 127
1, 144408, Note_off_c, 1, 70, 0
1, 144420, Note_on_c, 1, 74, 127
1, 144450, Note_off_c, 1, 55, 0
1, 144468, Note_off_c, 1, 74, 0
1, 144480, Note_on_c, 1, 72, 127
1, 144480, Note_on_c, 1, 57, 127
1, 144528, Note_off_c, 1, 72, 0
1, 144540, Note_on_c, 1, 70, 127
1, 144570, Note_off_c, 1, 57, 0
1, 144588, Note_off_c, 1, 70, 0
1, 144600, Note_on_c, 1, 69, 127
1, 144600, Note_on_c, 1, 58, 127
1, 144648, Note_off_c, 1, 69, 0
1, 144660, Note_on_c, 1, 67, 127
1, 144690, Note_off_c, 1, 58, 0
1, 144708, Note_off_c, 1, 67, 0
1, 144720, Note_on_c, 1, 66, 127
1, 144720, Note_on_c, 1, 60, 127
1, 144768, Note_off_c, 1, 60, 0
1, 144780, Note_on_c, 1, 57, 127
1, 144816, Note_off_c, 1, 66, 0
1, 144828, Note_off_c, 1, 57, 0
1, 144840, Note_on_c, 1, 62, 127
1, 144840, Note_on_c, 1, 54, 127
1, 144888, Note_off_c, 1, 54, 0
1, 144900, Note_on_c, 1, 50, 127
1, 144936, Note_off_c, 1, 62, 0
1, 144948, Note_off_c, 1, 50, 0
1, 144960, Note_on_c, 1, 74, 127
1, 144960, Note_on_c, 1, 54, 127
1, 145008, Note_off_c, 1, 54, 0
1, 145020, Note_on_c, 1, 57, 127
1, 145050, Note_off_c, 1, 74, 0
1, 145068, Note_off_c, 1, 57, 0
1, 145080, Note_on_c, 1, 74, 127
1, 145080, Note_on_c, 1, 58, 127
1, 145128, Note_off_c, 1, 58, 0
1, 145140, Note_on_c, 1, 55, 127
1, 145176, Note_off_c, 1, 74, 0
1, 145188, Note_off_c, 1, 55, 0
1, 145200, Note_on_c, 1, 64, 127
1, 145200, Note_on_c, 1, 52, 127
1, 145248, Note_off_c, 1, 52, 0
1, 145260, Note_on_c, 1, 49, 127
1, 145296, Note_off_c, 1, 64, 0
1, 145308, Note_off_c, 1, 49, 0
1, 145320, Note_on_c, 1, 74, 127
1, 145320, Note_on_c, 1, 52, 127
1, 145368, Note_off_c, 1, 52, 0
1, 145380, Note_on_c, 1, 55, 127
1, 145410, Note_off_c, 1, 74, 0
1, 145428, Note_off_c, 1, 55, 0
1, 145440, Note_on_c, 1, 74, 127
1, 145440, Note_on_c, 1, 57, 127
1, 145488, Note_off_c, 1, 57, 0
1, 145500, Note_on_c, 1, 54, 127
1, 145536, Note_off_c, 1, 74, 0
1, 145548, Note_off_c, 1, 54, 0
1, 145560, Note_on_c, 1, 66, 127
1, 145560, Note_on_c, 1, 51, 127
1, 145608, Note_off_c, 1, 51, 0
1, 145620, Note_on_c, 1, 49, 127
1, 145656, Note_off_c, 1, 66, 0
1, 145668, Note_off_c, 1, 49, 0
1, 145680, Note_on_c, 1, 74, 127
1, 145680, Note_on_c, 1, 51, 127
1, 145728, Note_off_c, 1, 51, 0
1, 145740, Note_on_c, 1, 54, 127
1, 145770, Note_off_c, 1, 74, 0
1, 145788, Note_off_c, 1, 54, 0
1, 145800, Note_on_c, 1, 74, 127
1, 145800, Note_on_c, 1, 55, 127
1, 145848, Note_off_c, 1, 55, 0
1, 145860, Note_on_c, 1, 52, 127
1, 145896, Note_off_c, 1, 74, 0
1, 145908, Note_off_c, 1, 52, 0
1, 145920, Note_on_c, 1, 67, 127
1, 145920, Note_on_c, 1, 49, 127
1, 145968, Note_off_c, 1, 49, 0
1, 145980, Note_on_c, 1, 46, 127
1, 146016, Note_off_c, 1, 67, 0
1, 146028, Note_off_c, 1, 46, 0
1, 146040, Note_on_c, 1, 74, 127
1, 146040, Note_on_c, 1, 49, 127
1, 146088, Note_off_c, 1, 49, 0
1, 146100, Note_on_c, 1, 52, 127
1, 146130, Note_off_c, 1, 74, 0
1, 146148, Note_off_c, 1, 52, 0
1, 146160, Note_on_c, 1, 74, 127
1, 146160, Note_on_c, 1, 54, 127
1, 146208, Note_off_c, 1, 54, 0
1, 146220, Note_on_c, 1, 51, 127
1, 146256, Note_off_c, 1, 74, 0
1, 146268, Note_off_c, 1, 51, 0
1, 146280, Note_on_c, 1, 69, 127
1, 146280, Note_on_c, 1, 48, 127
1, 146328, Note_off_c, 1, 48, 0
1, 146340, Note_on_c, 1, 45, 127
1, 146376, Note_off_c, 1, 69, 0
1, 146388, Note_off_c, 1, 45, 0
1, 146400, Note_on_c, 1, 70, 127
1, 146400, Note_on_c, 1, 48, 127
1, 146448, Note_off_c, 1, 48, 0
1, 146460, Note_on_c, 1, 51, 127
1, 146490, Note_off_c, 1, 70, 0
1, 146508, Note_off_c, 1, 51, 0
1, 146520, Note_on_c, 1, 72, 127
1, 146520, Note_on_c, 1, 54, 127
1, 146568, Note_off_c, 1, 72, 0
1, 146568, Note_off_c, 1, 54, 0
1, 146580, Note_on_c, 1, 70, 127
1, 146580, Note_on_c, 1, 50, 127
1, 146628, Note_off_c, 1, 70, 0
1, 146628, Note_off_c, 1, 50, 0
1, 146640, Note_on_c, 1, 74, 127
1, 146640, Note_on_c, 1, 54, 127
1, 146688, Note_off_c, 1, 74, 0
1, 146688, Note_off_c, 1, 54, 0
1, 146700, Note_on_c, 1, 72, 127
1, 146700, Note_on_c, 1, 57, 127
1, 146748, Note_off_c, 1, 72, 0
1, 146748, Note_off_c, 1, 57, 0
1, 146760, Note_on_c, 1, 70, 127
1, 146760, Note_on_c, 1, 55, 127
1, 146808, Note_off_c, 1, 70, 0
1, 146808, Note_off_c, 1, 55, 0
1, 146820, Note_on_c, 1, 69, 127
1, 146820, Note_on_c, 1, 54, 127
1, 146868, Note_off_c, 1, 69, 0
1, 146868, Note_off_c, 1, 54, 0
1, 146880, Note_on_c, 1, 70, 127
1, 146880, Note_on_c, 1, 55, 127
1, 146928, Note_off_c, 1, 55, 0
1, 146940, Note_on_c, 1, 54, 127
1, 146976, Note_off_c, 1, 70, 0
1, 146988, Note_off_c, 1, 54, 0
1, 147000, Note_on_c, 1, 74, 127
1, 147000, Note_on_c, 1, 55, 127
1, 147048, Note_off_c, 1, 55, 0
1, 147060, Note_on_c, 1, 58, 127
1, 147096, Note_off_c, 1, 74, 0
1, 147108, Note_off_c, 1, 58, 0
1, 147120, Note_on_c, 1, 70, 127
1, 147120, Note_on_c, 1, 54, 127
1, 147168, Note_off_c, 1, 54, 0
1, 147180, Note_on_c, 1, 55, 127
1, 147210, Note_off_c, 1, 70, 0
1, 147228, Note_off_c, 1, 55, 0
1, 147240, Note_on_c, 1, 67, 127
1, 147240, Note_on_c, 1, 46, 127
1, 147288, Note_off_c, 1, 46, 0
1, 147300, Note_on_c, 1, 54, 127
1, 147336, Note_off_c, 1, 67, 0
1, 147348, Note_off_c, 1, 54, 0
1, 147360, Note_on_c, 1, 74, 127
1, 147360, Note_on_c, 1, 55, 127
1, 147408, Note_off_c, 1, 55, 0
1, 147420, Note_on_c, 1, 58, 127
1, 147456, Note_off_c, 1, 74, 0
1, 147468, Note_off_c, 1, 58, 0
1, 147480, Note_on_c, 1, 70, 127
1, 147480, Note_on_c, 1, 54, 127
1, 147528, Note_off_c, 1, 54, 0
1, 147540, Note_on_c, 1, 55, 127
1, 147570, Note_off_c, 1, 70, 0
1, 147588, Note_off_c, 1, 55, 0
1, 147600, Note_on_c, 1, 67, 127
1, 147600, Note_on_c, 1, 48, 127
1, 147648, Note_off_c, 1, 48, 0
1, 147660, Note_on_c, 1, 54, 127
1, 147696, Note_off_c, 1, 67, 0
1, 147708, Note_off_c, 1, 54, 0
1, 147720, Note_on_c, 1, 74, 127
1, 147720, Note_on_c, 1, 55, 127
1, 147768, Note_off_c, 1, 55, 0
1, 147780, Note_on_c, 1, 58, 127
1, 147816, Note_off_c, 1, 74, 0
1, 147828, Note_off_c, 1, 58, 0
1, 147840, Note_on_c, 1, 70, 127
1, 147840, Note_on_c, 1, 54, 127
1, 147888, Note_off_c, 1, 54, 0
1, 147900, Note_on_c, 1, 55, 127
1, 147930, Note_off_c, 1, 70, 0
1, 147948, Note_off_c, 1, 55, 0
1, 147960, Note_on_c, 1, 67, 127
1, 147960, Note_on_c, 1, 50, 127
1, 148008, Note_off_c, 1, 50, 0
1, 148020, Note_on_c, 1, 54, 127
1, 148056, Note_off_c, 1, 67, 0
1, 148068, Note_off_c, 1, 54, 0
1, 148080, Note_on_c, 1, 74, 127
1, 148080, Note_on_c, 1, 55, 127
1, 148128, Note_off_c, 1, 55, 0
1, 148140, Note_on_c, 1, 58, 127
1, 148176, Note_off_c, 1, 74, 0
1, 148188, Note_off_c, 1, 58, 0
1, 148200, Note_on_c, 1, 70, 127
1, 148200, Note_on_c, 1, 54, 127
1, 148248, Note_off_c, 1, 54, 0
1, 148260, Note_on_c, 1, 55, 127
1, 148290, Note_off_c, 1, 70, 0
1, 148308, Note_off_c, 1, 55, 0
1, 148320, Note_on_c, 1, 67, 127
1, 148320, Note_on_c, 1, 51, 127
1, 148368, Note_off_c, 1, 51, 0
1, 148380, Note_on_c, 1, 54, 127
1, 148416, Note_off_c, 1, 67, 0
1, 148428, Note_off_c, 1, 54, 0
1, 148440, Note_on_c, 1, 74, 127
1, 148440, Note_on_c, 1, 55, 127
1, 148488, Note_off_c, 1, 55, 0
1, 148500, Note_on_c, 1, 58, 127
1, 148536, Note_off_c, 1, 74, 0
1, 148548, Note_off_c, 1, 58, 0
1, 148560, Note_on_c, 1, 70, 127
1, 148560, Note_on_c, 1, 54, 127
1, 148608, Note_off_c, 1, 54, 0
1, 148620, Note_on_c, 1, 55, 127
1, 148650, Note_off_c, 1, 70, 0
1, 148668, Note_off_c, 1, 55, 0
1, 148680, Note_on_c, 1, 67, 127
1, 148680, Note_on_c, 1, 50, 127
1, 148728, Note_off_c, 1, 50, 0
1, 148740, Note_on_c, 1, 54, 127
1, 148776, Note_off_c, 1, 67, 0
1, 148788, Note_off_c, 1, 54, 0
1, 148800, Note_on_c, 1, 74, 127
1, 148800, Note_on_c, 1, 55, 127
1, 148848, Note_off_c, 1, 55, 0
1, 148860, Note_on_c, 1, 58, 127
1, 148896, Note_off_c, 1, 74, 0
1, 148908, Note_off_c, 1, 58, 0
1, 148920, Note_on_c, 1, 70, 127
1, 148920, Note_on_c, 1, 54, 127
1, 148968, Note_off_c, 1, 54, 0
1, 148980, Note_on_c, 1, 55, 127
1, 149010, Note_off_c, 1, 70, 0
1, 149028, Note_off_c, 1, 55, 0
1, 149040, Note_on_c, 1, 67, 127
1, 149040, Note_on_c, 1, 49, 127
1, 149088, Note_off_c, 1, 67, 0
1, 149100, Note_on_c, 1, 69, 127
1, 149148, Note_off_c, 1, 69, 0
1, 149160, Note_on_c, 1, 70, 127
1, 149208, Note_off_c, 1, 70, 0
1, 149220, Note_on_c, 1, 76, 127
1, 149268, Note_off_c, 1, 76, 0
1, 149328, Note_off_c, 1, 49, 0
1, 149340, Note_on_c, 1, 69, 127
1, 149388, Note_off_c, 1, 69, 0
1, 149400, Note_on_c, 1, 67, 127
1, 149448, Note_off_c, 1, 67, 0
1, 149460, Note_on_c, 1, 69, 127
1, 149508, Note_off_c, 1, 69, 0
1, 149520, Note_on_c, 1, 70, 127
1, 149568, Note_off_c, 1, 70, 0
1, 149580, Note_on_c, 1, 76, 127
1, 149628, Note_off_c, 1, 76, 0
1, 149640, Note_on_c, 1, 69, 127
1, 149688, Note_off_c, 1, 69, 0
1, 149700, Note_on_c, 1, 67, 127
1, 149748, Note_off_c, 1, 67, 0
1, 149760, Note_on_c, 1, 66, 127
1, 149760, Note_on_c, 1, 48, 127
1, 149808, Note_off_c, 1, 66, 0
1, 149820, Note_on_c, 1, 69, 127
1, 149868, Note_off_c, 1, 69, 0
1, 149880, Note_on_c, 1, 72, 127
1, 149928, Note_off_c, 1, 72, 0
1, 149940, Note_on_c, 1, 75, 127
1, 149988, Note_off_c, 1, 75, 0
1, 150000, Note_on_c, 1, 74, 127
1, 150048, Note_off_c, 1, 48, 0
1, 150048, Note_off_c, 1, 74, 0
1, 150060, Note_on_c, 1, 72, 127
1, 150108, Note_off_c, 1, 72, 0
1, 150120, Note_on_c, 1, 74, 127
1, 150120, Note_on_c, 1, 46, 127
1, 150168, Note_off_c, 1, 74, 0
1, 150168, Note_off_c, 1, 46, 0
1, 150180, Note_on_c, 1, 72, 127
1, 150180, Note_on_c, 1, 50, 127
1, 150228, Note_off_c, 1, 72, 0
1, 150228, Note_off_c, 1, 50, 0
1, 150240, Note_on_c, 1, 70, 127
1, 150240, Note_on_c, 1, 52, 127
1, 150288, Note_off_c, 1, 70, 0
1, 150288, Note_off_c, 1, 52, 0
1, 150300, Note_on_c, 1, 69, 127
1, 150300, Note_on_c, 1, 54, 127
1, 150348, Note_off_c, 1, 69, 0
1, 150348, Note_off_c, 1, 54, 0
1, 150360, Note_on_c, 1, 67, 127
1, 150360, Note_on_c, 1, 55, 127
1, 150408, Note_off_c, 1, 67, 0
1, 150408, Note_off_c, 1, 55, 0
1, 150420, Note_on_c, 1, 65, 127
1, 150420, Note_on_c, 1, 57, 127
1, 150468, Note_off_c, 1, 65, 0
1, 150468, Note_off_c, 1, 57, 0
1, 150480, Note_on_c, 1, 64, 127
1, 150480, Note_on_c, 1, 58, 127
1, 150528, Note_off_c, 1, 64, 0
1, 150540, Note_on_c, 1, 62, 127
1, 150570, Note_off_c, 1, 58, 0
1, 150588, Note_off_c, 1, 62, 0
1, 150600, Note_on_c, 1, 64, 127
1, 150600, Note_on_c, 1, 57, 127
1, 150648, Note_off_c, 1, 64, 0
1, 150660, Note_on_c, 1, 66, 127
1, 150690, Note_off_c, 1, 57, 0
1, 150708, Note_off_c, 1, 66, 0
1, 150720, Note_on_c, 1, 67, 127
1, 150720, Note_on_c, 1, 55, 127
1, 150768, Note_off_c, 1, 67, 0
1, 150780, Note_on_c, 1, 69, 127
1, 150810, Note_off_c, 1, 55, 0
1, 150828, Note_off_c, 1, 69, 0
1, 150840, Note_on_c, 1, 66, 127
1, 150840, Note_on_c, 1, 57, 127
1, 150888, Note_off_c, 1, 66, 0
1, 150900, Note_on_c, 1, 64, 127
1, 150930, Note_off_c, 1, 57, 0
1, 150948, Note_off_c, 1, 64, 0
1, 150960, Note_on_c, 1, 66, 127
1, 150960, Note_on_c, 1, 55, 127
1, 151008, Note_off_c, 1, 66, 0
1, 151020, Note_on_c, 1, 67, 127
1, 151050, Note_off_c, 1, 55, 0
1, 151068, Note_off_c, 1, 67, 0
1, 151080, Note_on_c, 1, 69, 127
1, 151080, Note_on_c, 1, 54, 127
1, 151128, Note_off_c, 1, 69, 0
1, 151140, Note_on_c, 1, 60, 127
1, 151170, Note_off_c, 1, 54, 0
1, 151188, Note_off_c, 1, 60, 0
1, 151200, Note_on_c, 1, 55, 127
1, 151200, Note_on_c, 1, 58, 127
1, 151260, Note_on_c, 1, 74, 127
1, 151308, Note_off_c, 1, 74, 0
1, 151320, Note_on_c, 1, 76, 127
1, 151368, Note_off_c, 1, 76, 0
1, 151380, Note_on_c, 1, 78, 127
1, 151392, Note_off_c, 1, 55, 0
1, 151392, Note_off_c, 1, 58, 0
1, 151428, Note_off_c, 1, 78, 0
1, 151440, Note_on_c, 1, 79, 127
1, 151440, Note_on_c, 1, 57, 127
1, 151440, Note_on_c, 1, 53, 127
1, 151488, Note_off_c, 1, 79, 0
1, 151500, Note_on_c, 1, 81, 127
1, 151536, Note_off_c, 1, 57, 0
1, 151536, Note_off_c, 1, 53, 0
1, 151548, Note_off_c, 1, 81, 0
1, 151560, Note_on_c, 1, 82, 127
1, 151560, Note_on_c, 1, 55, 127
1, 151560, Note_on_c, 1, 51, 127
1, 151650, Note_off_c, 1, 82, 0
1, 151650, Note_off_c, 1, 55, 0
1, 151680, Note_on_c, 1, 81, 127
1, 151680, Note_on_c, 1, 57, 127
1, 151752, Note_off_c, 1, 51, 0
1, 151770, Note_off_c, 1, 81, 0
1, 151770, Note_off_c, 1, 57, 0
1, 151800, Note_on_c, 1, 79, 127
1, 151800, Note_on_c, 1, 58, 127
1, 151800, Note_on_c, 1, 50, 127
1, 151890, Note_off_c, 1, 79, 0
1, 151890, Note_off_c, 1, 58, 0
1, 151896, Note_off_c, 1, 50, 0
1, 151920, Note_on_c, 1, 81, 127
1, 151920, Note_on_c, 1, 60, 127
1, 151920, Note_on_c, 1, 48, 127
1, 152010, Note_off_c, 1, 81, 0
1, 152010, Note_off_c, 1, 60, 0
1, 152040, Note_on_c, 1, 82, 127
1, 152040, Note_on_c, 1, 58, 127
1, 152088, Note_off_c, 1, 82, 0
1, 152112, Note_off_c, 1, 48, 0
1, 152130, Note_off_c, 1, 58, 0
1, 152160, Note_on_c, 1, 79, 127
1, 152160, Note_on_c, 1, 57, 127
1, 152160, Note_on_c, 1, 50, 127
1, 152208, Note_off_c, 1, 79, 0
1, 152220, Note_on_c, 1, 78, 127
1, 152250, Note_off_c, 1, 57, 0
1, 152256, Note_off_c, 1, 50, 0
1, 152268, Note_off_c, 1, 78, 0
1, 152280, Note_on_c, 1, 79, 127
1, 152280, Note_on_c, 1, 51, 127
1, 152280, Note_on_c, 1, 55, 127
1, 152328, Note_off_c, 1, 79, 0
1, 152340, Note_on_c, 1, 77, 127
1, 152388, Note_off_c, 1, 77, 0
1, 152400, Note_on_c, 1, 75, 127
1, 152448, Note_off_c, 1, 75, 0
1, 152460, Note_on_c, 1, 74, 127
1, 152508, Note_off_c, 1, 74, 0
1, 152520, Note_on_c, 1, 72, 127
1, 152568, Note_off_c, 1, 72, 0
1, 152580, Note_on_c, 1, 71, 127
1, 152628, Note_off_c, 1, 71, 0
1, 152736, Note_off_c, 1, 51, 0
1, 152760, Note_on_c, 1, 50, 127
1, 152856, Note_off_c, 1, 50, 0
1, 152880, Note_on_c, 1, 48, 127
1, 152976, Note_off_c, 1, 48, 0
1, 153000, Note_on_c, 1, 70, 127
1, 153096, Note_off_c, 1, 70, 0
1, 153192, Note_off_c, 1, 55, 0
1, 153240, Note_on_c, 1, 69, 127
1, 153240, Note_on_c, 1, 54, 127
1, 153240, Note_on_c, 1, 50, 127
1, 153288, Note_off_c, 1, 69, 0
1, 153300, Note_on_c, 1, 70, 127
1, 153336, Note_off_c, 1, 54, 0
1, 153336, Note_off_c, 1, 50, 0
1, 153348, Note_off_c, 1, 70, 0
1, 153360, Note_on_c, 1, 67, 127
1, 153360, Note_on_c, 1, 43, 127
1, 153360, Note_on_c, 1, 55, 127
1, 153456, Note_off_c, 1, 67, 0
1, 153480, Note_on_c, 1, 70, 127
1, 153576, Note_off_c, 1, 70, 0
1, 153648, Note_off_c, 1, 43, 0
1, 153648, Note_off_c, 1, 55, 0
1, 153720, Note_on_c, 1, 70, 127
1, 153816, Note_off_c, 1, 70, 0
1, 153840, Note_on_c, 1, 70, 127
1, 153936, Note_off_c, 1, 70, 0
1, 153960, Note_on_c, 1, 70, 127
1, 153960, Note_on_c, 1, 62, 127
1, 153960, Note_on_c, 1, 55, 127
1, 154056, Note_off_c, 1, 70, 0
1, 154056, Note_off_c, 1, 62, 0
1, 154056, Note_off_c, 1, 55, 0
1, 154080, Note_on_c, 1, 76, 127
1, 154080, Note_on_c, 1, 60, 127
1, 154080, Note_on_c, 1, 62, 127
1, 154128, Note_off_c, 1, 76, 0
1, 154140, Note_on_c, 1, 77, 127
1, 154176, Note_off_c, 1, 60, 0
1, 154176, Note_off_c, 1, 62, 0
1, 154188, Note_off_c, 1, 77, 0
1, 154200, Note_on_c, 1, 79, 127
1, 154200, Note_on_c, 1, 57, 127
1, 154200, Note_on_c, 1, 62, 127
1, 154248, Note_off_c, 1, 79, 0
1, 154260, Note_on_c, 1, 76, 127
1, 154296, Note_off_c, 1, 57, 0
1, 154296, Note_off_c, 1, 62, 0
1, 154308, Note_off_c, 1, 76, 0
1, 154320, Note_on_c, 1, 77, 127
1, 154320, Note_on_c, 1, 64, 127
1, 154320, Note_on_c, 1, 58, 127
1, 154320, Note_on_c, 1, 55, 127
1, 154368, Note_off_c, 1, 77, 0
1, 154380, Note_on_c, 1, 79, 127
1, 154416, Note_off_c, 1, 64, 0
1, 154416, Note_off_c, 1, 58, 0
1, 154416, Note_off_c, 1, 55, 0
1, 154428, Note_off_c, 1, 79, 0
1, 154440, Note_on_c, 1, 69, 127
1, 154440, Note_on_c, 1, 60, 127
1, 154440, Note_on_c, 1, 65, 127
1, 154440, Note_on_c, 1, 53, 127
1, 154536, Note_off_c, 1, 69, 0
1, 154728, Note_off_c, 1, 60, 0
1, 154728, Note_off_c, 1, 65, 0
1, 154728, Note_off_c, 1, 53, 0
1, 154800, Note_on_c, 1, 69, 127
1, 154896, Note_off_c, 1, 69, 0
1, 154920, Note_on_c, 1, 69, 127
1, 155016, Note_off_c, 1, 69, 0
1, 155040, Note_on_c, 1, 69, 127
1, 155040, Note_on_c, 1, 67, 127
1, 155040, Note_on_c, 1, 61, 127
1, 155040, Note_on_c, 1, 57, 127
1, 155040, Note_on_c, 1, 64, 127
1, 155136, Note_off_c, 1, 69, 0
1, 155136, Note_off_c, 1, 67, 0
1, 155136, Note_off_c, 1, 61, 0
1, 155136, Note_off_c, 1, 57, 0
1, 155136, Note_off_c, 1, 64, 0
1, 155160, Note_on_c, 1, 74, 127
1, 155160, Note_on_c, 1, 58, 127
1, 155160, Note_on_c, 1, 65, 127
1, 155160, Note_on_c, 1, 62, 127
1, 155208, Note_off_c, 1, 74, 0
1, 155220, Note_on_c, 1, 76, 127
1, 155268, Note_off_c, 1, 76, 0
1, 155280, Note_on_c, 1, 77, 127
1, 155328, Note_off_c, 1, 77, 0
1, 155352, Note_off_c, 1, 58, 0
1, 155352, Note_off_c, 1, 65, 0
1, 155400, Note_on_c, 1, 60, 127
1, 155496, Note_off_c, 1, 60, 0
1, 155520, Note_on_c, 1, 79, 127
1, 155568, Note_off_c, 1, 79, 0
1, 155580, Note_on_c, 1, 81, 127
1, 155628, Note_off_c, 1, 81, 0
1, 155640, Note_on_c, 1, 82, 127
1, 155688, Note_off_c, 1, 82, 0
1, 155712, Note_off_c, 1, 62, 0
1, 155760, Note_on_c, 1, 81, 127
1, 155760, Note_on_c, 1, 57, 127
1, 155760, Note_on_c, 1, 60, 127
1, 155808, Note_off_c, 1, 81, 0
1, 155820, Note_on_c, 1, 82, 127
1, 155856, Note_off_c, 1, 57, 0
1, 155856, Note_off_c, 1, 60, 0
1, 155868, Note_off_c, 1, 82, 0
1, 155880, Note_on_c, 1, 76, 127
1, 155880, Note_on_c, 1, 58, 127
1, 155880, Note_on_c, 1, 55, 127
1, 155928, Note_off_c, 1, 76, 0
1, 155940, Note_on_c, 1, 77, 127
1, 155988, Note_off_c, 1, 77, 0
1, 156000, Note_on_c, 1, 79, 127
1, 156048, Note_off_c, 1, 79, 0
1, 156072, Note_off_c, 1, 58, 0
1, 156072, Note_off_c, 1, 55, 0
1, 156120, Note_on_c, 1, 77, 127
1, 156120, Note_on_c, 1, 53, 127
1, 156120, Note_on_c, 1, 57, 127
1, 156168, Note_off_c, 1, 77, 0
1, 156180, Note_on_c, 1, 79, 127
1, 156216, Note_off_c, 1, 53, 0
1, 156216, Note_off_c, 1, 57, 0
1, 156228, Note_off_c, 1, 79, 0
1, 156240, Note_on_c, 1, 73, 127
1, 156240, Note_on_c, 1, 52, 127
1, 156240, Note_on_c, 1, 55, 127
1, 156288, Note_off_c, 1, 73, 0
1, 156300, Note_on_c, 1, 74, 127
1, 156348, Note_off_c, 1, 74, 0
1, 156360, Note_on_c, 1, 76, 127
1, 156408, Note_off_c, 1, 76, 0
1, 156432, Note_off_c, 1, 52, 0
1, 156480, Note_on_c, 1, 50, 127
1, 156576, Note_off_c, 1, 50, 0
1, 156600, Note_on_c, 1, 69, 127
1, 156600, Note_on_c, 1, 49, 127
1, 156648, Note_off_c, 1, 55, 0
1, 156720, Note_on_c, 1, 53, 127
1, 156768, Note_off_c, 1, 53, 0
1, 156888, Note_off_c, 1, 49, 0
1, 157008, Note_off_c, 1, 69, 0
1, 157080, Note_on_c, 1, 71, 127
1, 157128, Note_off_c, 1, 71, 0
1, 157200, Note_on_c, 1, 48, 127
1, 157296, Note_off_c, 1, 48, 0
1, 157320, Note_on_c, 1, 77, 127
1, 157320, Note_on_c, 1, 46, 127
1, 157368, Note_off_c, 1, 77, 0
1, 157440, Note_on_c, 1, 79, 127
1, 157488, Note_off_c, 1, 79, 0
1, 157608, Note_off_c, 1, 46, 0
1, 157680, Note_on_c, 1, 73, 127
1, 157680, Note_on_c, 1, 45, 127
1, 157740, Note_on_c, 1, 57, 127
1, 157776, Note_off_c, 1, 73, 0
1, 157776, Note_off_c, 1, 45, 0
1, 157788, Note_off_c, 1, 57, 0
1, 157800, Note_on_c, 1, 59, 127
1, 157848, Note_off_c, 1, 59, 0
1, 157860, Note_on_c, 1, 61, 127
1, 157908, Note_off_c, 1, 61, 0
1, 157920, Note_on_c, 1, 62, 127
1, 157968, Note_off_c, 1, 62, 0
1, 157980, Note_on_c, 1, 64, 127
1, 158028, Note_off_c, 1, 64, 0
1, 158040, Note_on_c, 1, 65, 127
1, 158130, Note_off_c, 1, 65, 0
1, 158160, Note_on_c, 1, 64, 127
1, 158250, Note_off_c, 1, 64, 0
1, 158280, Note_on_c, 1, 62, 127
1, 158370, Note_off_c, 1, 62, 0
1, 158400, Note_on_c, 1, 64, 127
1, 158490, Note_off_c, 1, 64, 0
1, 158520, Note_on_c, 1, 62, 127
1, 158610, Note_off_c, 1, 62, 0
1, 158640, Note_on_c, 1, 61, 127
1, 158730, Note_off_c, 1, 61, 0
1, 158760, Note_on_c, 1, 62, 127
1, 158820, Note_on_c, 1, 50, 127
1, 158868, Note_off_c, 1, 50, 0
1, 158880, Note_on_c, 1, 52, 127
1, 158928, Note_off_c, 1, 52, 0
1, 158940, Note_on_c, 1, 54, 127
1, 158988, Note_off_c, 1, 54, 0
1, 159000, Note_on_c, 1, 55, 127
1, 159048, Note_off_c, 1, 55, 0
1, 159060, Note_on_c, 1, 57, 127
1, 159108, Note_off_c, 1, 57, 0
1, 159120, Note_on_c, 1, 58, 127
1, 159210, Note_off_c, 1, 58, 0
1, 159312, Note_off_c, 1, 62, 0
1, 159360, Note_on_c, 1, 70, 127
1, 159360, Note_on_c, 1, 55, 127
1, 159450, Note_off_c, 1, 55, 0
1, 159456, Note_off_c, 1, 70, 0
1, 159480, Note_on_c, 1, 60, 127
1, 159480, Note_on_c, 1, 57, 127
1, 159570, Note_off_c, 1, 57, 0
1, 159600, Note_on_c, 1, 55, 127
1, 159672, Note_off_c, 1, 60, 0
1, 159690, Note_off_c, 1, 55, 0
1, 159720, Note_on_c, 1, 69, 127
1, 159720, Note_on_c, 1, 54, 127
1, 159810, Note_off_c, 1, 54, 0
1, 159816, Note_off_c, 1, 69, 0
1, 159840, Note_on_c, 1, 58, 127
1, 159840, Note_on_c, 1, 55, 127
1, 159888, Note_off_c, 1, 58, 0
1, 159900, Note_on_c, 1, 62, 127
1, 159948, Note_off_c, 1, 62, 0
1, 159960, Note_on_c, 1, 64, 127
1, 160008, Note_off_c, 1, 64, 0
1, 160020, Note_on_c, 1, 65, 127
1, 160068, Note_off_c, 1, 65, 0
1, 160200, Note_on_c, 1, 67, 127
1, 160248, Note_off_c, 1, 55, 0
1, 160260, Note_on_c, 1, 52, 127
1, 160308, Note_off_c, 1, 52, 0
1, 160320, Note_on_c, 1, 50, 127
1, 160368, Note_off_c, 1, 50, 0
1, 160380, Note_on_c, 1, 49, 127
1, 160428, Note_off_c, 1, 49, 0
1, 160560, Note_on_c, 1, 53, 127
1, 160608, Note_off_c, 1, 67, 0
1, 160620, Note_on_c, 1, 57, 127
1, 160668, Note_off_c, 1, 57, 0
1, 160680, Note_on_c, 1, 59, 127
1, 160728, Note_off_c, 1, 59, 0
1, 160740, Note_on_c, 1, 61, 127
1, 160788, Note_off_c, 1, 61, 0
1, 160980, Note_on_c, 1, 69, 127
1, 161028, Note_off_c, 1, 69, 0
1, 161040, Note_on_c, 1, 71, 127
1, 161088, Note_off_c, 1, 71, 0
1, 161100, Note_on_c, 1, 73, 127
1, 161148, Note_off_c, 1, 73, 0
1, 161160, Note_on_c, 1, 74, 127
1, 161208, Note_off_c, 1, 74, 0
1, 161220, Note_on_c, 1, 76, 127
1, 161268, Note_off_c, 1, 76, 0
1, 161280, Note_on_c, 1, 77, 127
1, 161370, Note_off_c, 1, 77, 0
1, 161472, Note_off_c, 1, 53, 0
1, 161520, Note_on_c, 1, 74, 127
1, 161520, Note_on_c, 1, 58, 127
1, 161520, Note_on_c, 1, 65, 127
1, 161610, Note_off_c, 1, 74, 0
1, 161616, Note_off_c, 1, 58, 0
1, 161616, Note_off_c, 1, 65, 0
1, 161640, Note_on_c, 1, 76, 127
1, 161640, Note_on_c, 1, 67, 127
1, 161640, Note_on_c, 1, 55, 127
1, 161730, Note_off_c, 1, 76, 0
1, 161736, Note_off_c, 1, 67, 0
1, 161760, Note_on_c, 1, 74, 127
1, 161760, Note_on_c, 1, 65, 127
1, 161832, Note_off_c, 1, 55, 0
1, 161850, Note_off_c, 1, 74, 0
1, 161856, Note_off_c, 1, 65, 0
1, 161880, Note_on_c, 1, 73, 127
1, 161880, Note_on_c, 1, 57, 127
1, 161880, Note_on_c, 1, 64, 127
1, 161970, Note_off_c, 1, 73, 0
1, 161976, Note_off_c, 1, 57, 0
1, 161976, Note_off_c, 1, 64, 0
1, 162000, Note_on_c, 1, 74, 127
1, 162000, Note_on_c, 1, 62, 127
1, 162000, Note_on_c, 1, 58, 127
1, 162048, Note_off_c, 1, 74, 0
1, 162060, Note_on_c, 1, 72, 127
1, 162108, Note_off_c, 1, 72, 0
1, 162120, Note_on_c, 1, 70, 127
1, 162168, Note_off_c, 1, 70, 0
1, 162180, Note_on_c, 1, 69, 127
1, 162228, Note_off_c, 1, 69, 0
1, 162240, Note_on_c, 1, 67, 127
1, 162288, Note_off_c, 1, 62, 0
1, 162288, Note_off_c, 1, 67, 0
1, 162300, Note_on_c, 1, 65, 127
1, 162348, Note_off_c, 1, 65, 0
1, 162360, Note_on_c, 1, 64, 127
1, 162360, Note_on_c, 1, 60, 127
1, 162408, Note_off_c, 1, 64, 0
1, 162576, Note_off_c, 1, 58, 0
1, 162720, Note_on_c, 1, 57, 127
1, 162936, Note_off_c, 1, 60, 0
1, 163368, Note_off_c, 1, 57, 0
1, 163440, Note_on_c, 1, 55, 127
1, 163632, Note_off_c, 1, 55, 0
1, 163680, Note_on_c, 1, 53, 127
1, 163776, Note_off_c, 1, 53, 0
1, 163800, Note_on_c, 1, 52, 127
1, 164088, Note_off_c, 1, 52, 0
1, 164880, Note_on_c, 1, 50, 127
1, 165168, Note_off_c, 1, 50, 0
1, 165240, Note_on_c, 1, 48, 127
1, 165528, Note_off_c, 1, 48, 0
1, 165540, Note_on_c, 1, 65, 127
1, 165588, Note_off_c, 1, 65, 0
1, 165600, Note_on_c, 1, 60, 127
1, 165600, Note_on_c, 1, 55, 127
1, 165600, Note_on_c, 1, 46, 127
1, 165648, Note_off_c, 1, 60, 0
1, 165660, Note_on_c, 1, 64, 127
1, 165708, Note_off_c, 1, 64, 0
1, 165720, Note_on_c, 1, 65, 127
1, 165768, Note_off_c, 1, 65, 0
1, 165780, Note_on_c, 1, 69, 127
1, 165828, Note_off_c, 1, 69, 0
1, 165888, Note_off_c, 1, 55, 0
1, 165888, Note_off_c, 1, 46, 0
1, 165900, Note_on_c, 1, 65, 127
1, 165948, Note_off_c, 1, 65, 0
1, 165960, Note_on_c, 1, 60, 127
1, 165960, Note_on_c, 1, 45, 127
1, 165960, Note_on_c, 1, 53, 127
1, 166008, Note_off_c, 1, 60, 0
1, 166020, Note_on_c, 1, 64, 127
1, 166068, Note_off_c, 1, 64, 0
1, 166080, Note_on_c, 1, 65, 127
1, 166128, Note_off_c, 1, 65, 0
1, 166140, Note_on_c, 1, 69, 127
1, 166188, Note_off_c, 1, 69, 0
1, 166248, Note_off_c, 1, 45, 0
1, 166248, Note_off_c, 1, 53, 0
1, 166260, Note_on_c, 1, 65, 127
1, 166308, Note_off_c, 1, 65, 0
1, 166320, Note_on_c, 1, 62, 127
1, 166320, Note_on_c, 1, 53, 127
1, 166320, Note_on_c, 1, 46, 127
1, 166368, Note_off_c, 1, 53, 0
1, 166416, Note_off_c, 1, 62, 0
1, 166440, Note_on_c, 1, 64, 127
1, 166440, Note_on_c, 1, 55, 127
1, 166488, Note_off_c, 1, 64, 0
1, 166488, Note_off_c, 1, 55, 0
1, 166500, Note_on_c, 1, 65, 127
1, 166500, Note_on_c, 1, 57, 127
1, 166512, Note_off_c, 1, 46, 0
1, 166548, Note_off_c, 1, 65, 0
1, 166548, Note_off_c, 1, 57, 0
1, 166560, Note_on_c, 1, 67, 127
1, 166560, Note_on_c, 1, 58, 127
1, 166608, Note_off_c, 1, 67, 0
1, 166608, Note_off_c, 1, 58, 0
1, 166620, Note_on_c, 1, 69, 127
1, 166620, Note_on_c, 1, 60, 127
1, 166668, Note_off_c, 1, 69, 0
1, 166668, Note_off_c, 1, 60, 0
1, 166680, Note_on_c, 1, 70, 127
1, 166680, Note_on_c, 1, 62, 127
1, 166770, Note_off_c, 1, 70, 0
1, 166770, Note_off_c, 1, 62, 0
1, 166800, Note_on_c, 1, 69, 127
1, 166800, Note_on_c, 1, 60, 127
1, 166890, Note_off_c, 1, 69, 0
1, 166890, Note_off_c, 1, 60, 0
1, 166920, Note_on_c, 1, 67, 127
1, 166920, Note_on_c, 1, 58, 127
1, 167010, Note_off_c, 1, 67, 0
1, 167010, Note_off_c, 1, 58, 0
1, 167040, Note_on_c, 1, 69, 127
1, 167040, Note_on_c, 1, 60, 127
1, 167130, Note_off_c, 1, 69, 0
1, 167130, Note_off_c, 1, 60, 0
1, 167160, Note_on_c, 1, 67, 127
1, 167160, Note_on_c, 1, 58, 127
1, 167250, Note_off_c, 1, 67, 0
1, 167250, Note_off_c, 1, 58, 0
1, 167280, Note_on_c, 1, 65, 127
1, 167280, Note_on_c, 1, 57, 127
1, 167370, Note_off_c, 1, 65, 0
1, 167370, Note_off_c, 1, 57, 0
1, 167400, Note_on_c, 1, 72, 127
1, 167400, Note_on_c, 1, 64, 127
1, 167400, Note_on_c, 1, 55, 127
1, 167460, Note_on_c, 1, 46, 127
1, 167508, Note_off_c, 1, 46, 0
1, 167520, Note_on_c, 1, 48, 127
1, 167568, Note_off_c, 1, 48, 0
1, 167580, Note_on_c, 1, 50, 127
1, 167592, Note_off_c, 1, 72, 0
1, 167592, Note_off_c, 1, 64, 0
1, 167592, Note_off_c, 1, 55, 0
1, 167628, Note_off_c, 1, 50, 0
1, 167640, Note_on_c, 1, 60, 127
1, 167640, Note_on_c, 1, 64, 127
1, 167640, Note_on_c, 1, 48, 127
1, 167640, Note_on_c, 1, 55, 127
1, 167688, Note_off_c, 1, 48, 0
1, 167700, Note_on_c, 1, 46, 127
1, 167736, Note_off_c, 1, 60, 0
1, 167736, Note_off_c, 1, 64, 0
1, 167736, Note_off_c, 1, 55, 0
1, 167748, Note_off_c, 1, 46, 0
1, 167760, Note_on_c, 1, 60, 127
1, 167760, Note_on_c, 1, 65, 127
1, 167760, Note_on_c, 1, 45, 127
1, 167760, Note_on_c, 1, 53, 127
1, 167856, Note_off_c, 1, 45, 0
1, 167880, Note_on_c, 1, 48, 127
1, 167952, Note_off_c, 1, 60, 0
1, 167952, Note_off_c, 1, 65, 0
1, 167976, Note_off_c, 1, 48, 0
1, 168000, Note_on_c, 1, 67, 127
1, 168000, Note_on_c, 1, 62, 127
1, 168000, Note_on_c, 1, 46, 127
1, 168096, Note_off_c, 1, 67, 0
1, 168096, Note_off_c, 1, 62, 0
1, 168096, Note_off_c, 1, 46, 0
1, 168120, Note_on_c, 1, 69, 127
1, 168144, Note_off_c, 1, 69, 0
1, 168233, Note_off_c, 1, 53, 0
1, 168360, Note_on_c, 1, 52, 127
1, 168473, Note_off_c, 1, 52, 0
1, 168480, Note_on_c, 1, 57, 127
1, 168480, Note_on_c, 1, 65, 127
1, 168480, Note_on_c, 1, 60, 127
1, 168480, Note_on_c, 1, 53, 127
1, 168480, Note_on_c, 1, 41, 127
1, 168528, Note_off_c, 1, 53, 0
1, 168540, Note_on_c, 1, 48, 127
1, 168576, Note_off_c, 1, 41, 0
1, 168588, Note_off_c, 1, 48, 0
1, 168600, Note_on_c, 1, 50, 127
1, 168648, Note_off_c, 1, 50, 0
1, 168660, Note_on_c, 1, 52, 127
1, 168672, Note_off_c, 1, 57, 0
1, 168672, Note_off_c, 1, 65, 0
1, 168672, Note_off_c, 1, 60, 0
1, 168708, Note_off_c, 1, 52, 0
1, 168720, Note_on_c, 1, 53, 127
1, 168768, Note_off_c, 1, 53, 0
1, 168780, Note_on_c, 1, 55, 127
1, 168828, Note_off_c, 1, 55, 0
1, 168840, Note_on_c, 1, 57, 127
1, 168900, Note_on_c, 1, 62, 127
1, 168930, Note_off_c, 1, 57, 0
1, 168948, Note_off_c, 1, 62, 0
1, 168960, Note_on_c, 1, 64, 127
1, 168960, Note_on_c, 1, 55, 127
1, 169008, Note_off_c, 1, 64, 0
1, 169020, Note_on_c, 1, 65, 127
1, 169050, Note_off_c, 1, 55, 0
1, 169068, Note_off_c, 1, 65, 0
1, 169080, Note_on_c, 1, 67, 127
1, 169080, Note_on_c, 1, 53, 127
1, 169128, Note_off_c, 1, 67, 0
1, 169140, Note_on_c, 1, 69, 127
1, 169170, Note_off_c, 1, 53, 0
1, 169188, Note_off_c, 1, 69, 0
1, 169200, Note_on_c, 1, 58, 127
1, 169200, Note_on_c, 1, 55, 127
1, 169248, Note_off_c, 1, 58, 0
1, 169260, Note_on_c, 1, 60, 127
1, 169290, Note_off_c, 1, 55, 0
1, 169308, Note_off_c, 1, 60, 0
1, 169320, Note_on_c, 1, 62, 127
1, 169320, Note_on_c, 1, 53, 127
1, 169368, Note_off_c, 1, 62, 0
1, 169380, Note_on_c, 1, 64, 127
1, 169410, Note_off_c, 1, 53, 0
1, 169428, Note_off_c, 1, 64, 0
1, 169440, Note_on_c, 1, 65, 127
1, 169440, Note_on_c, 1, 52, 127
1, 169488, Note_off_c, 1, 65, 0
1, 169500, Note_on_c, 1, 67, 127
1, 169530, Note_off_c, 1, 52, 0
1, 169548, Note_off_c, 1, 67, 0
1, 169560, Note_on_c, 1, 53, 127
1, 169560, Note_on_c, 1, 57, 127
1, 169620, Note_on_c, 1, 77, 127
1, 169668, Note_off_c, 1, 77, 0
1, 169680, Note_on_c, 1, 76, 127
1, 169728, Note_off_c, 1, 76, 0
1, 169740, Note_on_c, 1, 74, 127
1, 169788, Note_off_c, 1, 74, 0
1, 169800, Note_on_c, 1, 72, 127
1, 169848, Note_off_c, 1, 72, 0
1, 169860, Note_on_c, 1, 70, 127
1, 169908, Note_off_c, 1, 70, 0
1, 169920, Note_on_c, 1, 69, 127
1, 169968, Note_off_c, 1, 53, 0
1, 169980, Note_on_c, 1, 52, 127
1, 170010, Note_off_c, 1, 69, 0
1, 170028, Note_off_c, 1, 52, 0
1, 170040, Note_on_c, 1, 71, 127
1, 170064, Note_off_c, 1, 57, 0
1, 170100, Note_on_c, 1, 55, 127
1, 170130, Note_off_c, 1, 71, 0
1, 170148, Note_off_c, 1, 55, 0
1, 170160, Note_on_c, 1, 72, 127
1, 170160, Note_on_c, 1, 53, 127
1, 170220, Note_on_c, 1, 52, 127
1, 170250, Note_off_c, 1, 72, 0
1, 170256, Note_off_c, 1, 53, 0
1, 170268, Note_off_c, 1, 52, 0
1, 170280, Note_on_c, 1, 71, 127
1, 170280, Note_on_c, 1, 50, 127
1, 170280, Note_on_c, 1, 53, 127
1, 170370, Note_off_c, 1, 71, 0
1, 170376, Note_off_c, 1, 50, 0
1, 170376, Note_off_c, 1, 53, 0
1, 170400, Note_on_c, 1, 72, 127
1, 170400, Note_on_c, 1, 55, 127
1, 170400, Note_on_c, 1, 52, 127
1, 170490, Note_off_c, 1, 72, 0
1, 170496, Note_off_c, 1, 55, 0
1, 170496, Note_off_c, 1, 52, 0
1, 170520, Note_on_c, 1, 74, 127
1, 170520, Note_on_c, 1, 53, 127
1, 170520, Note_on_c, 1, 57, 127
1, 170610, Note_off_c, 1, 74, 0
1, 170616, Note_off_c, 1, 53, 0
1, 170616, Note_off_c, 1, 57, 0
1, 170640, Note_on_c, 1, 72, 127
1, 170640, Note_on_c, 1, 55, 127
1, 170640, Note_on_c, 1, 52, 127
1, 170700, Note_on_c, 1, 69, 127
1, 170748, Note_off_c, 1, 69, 0
1, 170760, Note_on_c, 1, 67, 127
1, 170808, Note_off_c, 1, 67, 0
1, 170820, Note_on_c, 1, 65, 127
1, 170868, Note_off_c, 1, 65, 0
1, 170880, Note_on_c, 1, 64, 127
1, 170928, Note_off_c, 1, 55, 0
1, 170928, Note_off_c, 1, 64, 0
1, 170940, Note_on_c, 1, 62, 127
1, 170988, Note_off_c, 1, 62, 0
1, 171000, Note_on_c, 1, 60, 127
1, 171096, Note_off_c, 1, 52, 0
1, 171096, Note_off_c, 1, 60, 0
1, 171120, Note_on_c, 1, 53, 127
1, 171180, Note_on_c, 1, 57, 127
1, 171216, Note_off_c, 1, 53, 0
1, 171276, Note_off_c, 1, 57, 0
1, 171300, Note_on_c, 1, 58, 127
1, 171348, Note_off_c, 1, 58, 0
1, 172320, Note_on_c, 1, 63, 127
1, 172410, Note_off_c, 1, 63, 0
1, 172440, Note_on_c, 1, 54, 127
1, 172632, Note_off_c, 1, 72, 0
1, 172728, Note_off_c, 1, 54, 0
1, 172800, Note_on_c, 1, 71, 127
1, 172848, Note_off_c, 1, 71, 0
1, 173040, Note_on_c, 1, 74, 127
1, 173088, Note_off_c, 1, 74, 0
1, 173100, Note_on_c, 1, 76, 127
1, 173148, Note_off_c, 1, 76, 0
1, 173160, Note_on_c, 1, 77, 127
1, 173220, Note_on_c, 1, 59, 127
1, 173250, Note_off_c, 1, 77, 0
1, 173268, Note_off_c, 1, 59, 0
1, 173280, Note_on_c, 1, 76, 127
1, 173280, Note_on_c, 1, 60, 127
1, 173328, Note_off_c, 1, 60, 0
1, 173340, Note_on_c, 1, 62, 127
1, 173370, Note_off_c, 1, 76, 0
1, 173388, Note_off_c, 1, 62, 0
1, 173400, Note_on_c, 1, 74, 127
1, 173400, Note_on_c, 1, 64, 127
1, 173448, Note_off_c, 1, 64, 0
1, 173460, Note_on_c, 1, 65, 127
1, 173490, Note_off_c, 1, 74, 0
1, 173508, Note_off_c, 1, 65, 0
1, 173520, Note_on_c, 1, 76, 127
1, 173520, Note_on_c, 1, 67, 127
1, 173568, Note_off_c, 1, 76, 0
1, 173580, Note_on_c, 1, 72, 127
1, 173610, Note_off_c, 1, 67, 0
1, 173628, Note_off_c, 1, 72, 0
1, 173640, Note_on_c, 1, 74, 127
1, 173640, Note_on_c, 1, 65, 127
1, 173688, Note_off_c, 1, 74, 0
1, 173700, Note_on_c, 1, 76, 127
1, 173730, Note_off_c, 1, 65, 0
1, 173748, Note_off_c, 1, 76, 0
1, 173760, Note_on_c, 1, 77, 127
1, 173760, Note_on_c, 1, 64, 127
1, 173808, Note_off_c, 1, 77, 0
1, 173820, Note_on_c, 1, 79, 127
1, 173850, Note_off_c, 1, 64, 0
1, 173868, Note_off_c, 1, 79, 0
1, 173880, Note_on_c, 1, 81, 127
1, 173880, Note_on_c, 1, 65, 127
1, 173928, Note_off_c, 1, 81, 0
1, 173940, Note_on_c, 1, 77, 127
1, 173988, Note_off_c, 1, 77, 0
1, 174000, Note_on_c, 1, 76, 127
1, 174000, Note_on_c, 1, 55, 127
1, 174048, Note_off_c, 1, 76, 0
1, 174060, Note_on_c, 1, 74, 127
1, 174072, Note_off_c, 1, 65, 0
1, 174108, Note_off_c, 1, 74, 0
1, 174192, Note_off_c, 1, 55, 0
1, 174240, Note_on_c, 1, 79, 127
1, 174240, Note_on_c, 1, 64, 127
1, 174288, Note_off_c, 1, 79, 0
1, 174300, Note_on_c, 1, 76, 127
1, 174348, Note_off_c, 1, 76, 0
1, 174360, Note_on_c, 1, 74, 127
1, 174360, Note_on_c, 1, 55, 127
1, 174408, Note_off_c, 1, 74, 0
1, 174420, Note_on_c, 1, 72, 127
1, 174432, Note_off_c, 1, 64, 0
1, 174468, Note_off_c, 1, 72, 0
1, 174552, Note_off_c, 1, 55, 0
1, 174600, Note_on_c, 1, 77, 127
1, 174600, Note_on_c, 1, 62, 127
1, 174648, Note_off_c, 1, 77, 0
1, 174660, Note_on_c, 1, 74, 127
1, 174708, Note_off_c, 1, 74, 0
1, 174720, Note_on_c, 1, 72, 127
1, 174720, Note_on_c, 1, 55, 127
1, 174768, Note_off_c, 1, 72, 0
1, 174780, Note_on_c, 1, 71, 127
1, 174792, Note_off_c, 1, 62, 0
1, 174828, Note_off_c, 1, 71, 0
1, 174912, Note_off_c, 1, 55, 0
1, 174960, Note_on_c, 1, 76, 127
1, 174960, Note_on_c, 1, 60, 127
1, 175008, Note_off_c, 1, 76, 0
1, 175020, Note_on_c, 1, 71, 127
1, 175068, Note_off_c, 1, 71, 0
1, 175080, Note_on_c, 1, 72, 127
1, 175080, Note_on_c, 1, 48, 127
1, 175128, Note_off_c, 1, 72, 0
1, 175152, Note_off_c, 1, 60, 0
1, 175272, Note_off_c, 1, 48, 0
1, 175320, Note_on_c, 1, 65, 127
1, 175320, Note_on_c, 1, 60, 127
1, 175368, Note_off_c, 1, 65, 0
1, 175380, Note_on_c, 1, 71, 127
1, 175428, Note_off_c, 1, 71, 0
1, 175440, Note_on_c, 1, 72, 127
1, 175440, Note_on_c, 1, 50, 127
1, 175488, Note_off_c, 1, 72, 0
1, 175500, Note_on_c, 1, 76, 127
1, 175512, Note_off_c, 1, 60, 0
1, 175548, Note_off_c, 1, 76, 0
1, 175632, Note_off_c, 1, 50, 0
1, 175680, Note_on_c, 1, 67, 127
1, 175680, Note_on_c, 1, 60, 127
1, 175728, Note_off_c, 1, 67, 0
1, 175740, Note_on_c, 1, 71, 127
1, 175788, Note_off_c, 1, 71, 0
1, 175800, Note_on_c, 1, 72, 127
1, 175800, Note_on_c, 1, 52, 127
1, 175848, Note_off_c, 1, 72, 0
1, 175860, Note_on_c, 1, 76, 127
1, 175872, Note_off_c, 1, 60, 0
1, 175908, Note_off_c, 1, 76, 0
1, 175992, Note_off_c, 1, 52, 0
1, 176040, Note_on_c, 1, 69, 127
1, 176040, Note_on_c, 1, 60, 127
1, 176088, Note_off_c, 1, 69, 0
1, 176100, Note_on_c, 1, 71, 127
1, 176148, Note_off_c, 1, 71, 0
1, 176160, Note_on_c, 1, 72, 127
1, 176160, Note_on_c, 1, 53, 127
1, 176208, Note_off_c, 1, 72, 0
1, 176220, Note_on_c, 1, 76, 127
1, 176232, Note_off_c, 1, 60, 0
1, 176268, Note_off_c, 1, 76, 0
1, 176352, Note_off_c, 1, 53, 0
1, 176400, Note_on_c, 1, 67, 127
1, 176400, Note_on_c, 1, 60, 127
1, 176448, Note_off_c, 1, 67, 0
1, 176460, Note_on_c, 1, 71, 127
1, 176508, Note_off_c, 1, 71, 0
1, 176520, Note_on_c, 1, 72, 127
1, 176520, Note_on_c, 1, 55, 127
1, 176568, Note_off_c, 1, 72, 0
1, 176580, Note_on_c, 1, 76, 127
1, 176592, Note_off_c, 1, 60, 0
1, 176628, Note_off_c, 1, 76, 0
1, 176712, Note_off_c, 1, 55, 0
1, 176760, Note_on_c, 1, 66, 127
1, 176760, Note_on_c, 1, 60, 127
1, 176808, Note_off_c, 1, 66, 0
1, 176820, Note_on_c, 1, 71, 127
1, 176868, Note_off_c, 1, 71, 0
1, 176880, Note_on_c, 1, 72, 127
1, 176880, Note_on_c, 1, 57, 127
1, 176928, Note_off_c, 1, 72, 0
1, 176940, Note_on_c, 1, 75, 127
1, 176952, Note_off_c, 1, 60, 0
1, 176988, Note_off_c, 1, 75, 0
1, 177072, Note_off_c, 1, 57, 0
1, 177120, Note_on_c, 1, 65, 127
1, 177120, Note_on_c, 1, 59, 127
1, 177120, Note_on_c, 1, 62, 127
1, 177168, Note_off_c, 1, 65, 0
1, 177180, Note_on_c, 1, 69, 127
1, 177216, Note_off_c, 1, 59, 0
1, 177228, Note_off_c, 1, 69, 0
1, 177240, Note_on_c, 1, 71, 127
1, 177240, Note_on_c, 1, 57, 127
1, 177288, Note_off_c, 1, 71, 0
1, 177300, Note_on_c, 1, 74, 127
1, 177336, Note_off_c, 1, 57, 0
1, 177348, Note_off_c, 1, 74, 0
1, 177360, Note_on_c, 1, 55, 127
1, 177408, Note_off_c, 1, 62, 0
1, 177456, Note_off_c, 1, 55, 0
1, 177480, Note_on_c, 1, 63, 127
1, 177480, Note_on_c, 1, 60, 127
1, 177528, Note_off_c, 1, 63, 0
1, 177540, Note_on_c, 1, 67, 127
1, 177588, Note_off_c, 1, 67, 0
1, 177600, Note_on_c, 1, 69, 127
1, 177600, Note_on_c, 1, 54, 127
1, 177648, Note_off_c, 1, 69, 0
1, 177660, Note_on_c, 1, 72, 127
1, 177696, Note_off_c, 1, 54, 0
1, 177708, Note_off_c, 1, 72, 0
1, 177720, Note_on_c, 1, 66, 127
1, 177720, Note_on_c, 1, 57, 127
1, 177768, Note_off_c, 1, 60, 0
1, 177768, Note_off_c, 1, 66, 0
1, 177816, Note_off_c, 1, 57, 0
1, 177840, Note_on_c, 1, 62, 127
1, 177840, Note_on_c, 1, 55, 127
1, 177888, Note_off_c, 1, 62, 0
1, 177900, Note_on_c, 1, 65, 127
1, 177948, Note_off_c, 1, 65, 0
1, 177960, Note_on_c, 1, 67, 127
1, 178008, Note_off_c, 1, 67, 0
1, 178020, Note_on_c, 1, 71, 127
1, 178068, Note_off_c, 1, 71, 0
1, 178080, Note_on_c, 1, 43, 127
1, 178128, Note_off_c, 1, 55, 0
1, 178176, Note_off_c, 1, 43, 0
1, 178200, Note_on_c, 1, 64, 127
1, 178200, Note_on_c, 1, 72, 127
1, 178200, Note_on_c, 1, 48, 127
1, 178248, Note_off_c, 1, 48, 0
1, 178260, Note_on_c, 1, 60, 127
1, 178308, Note_off_c, 1, 60, 0
1, 178320, Note_on_c, 1, 58, 127
1, 178368, Note_off_c, 1, 58, 0
1, 178380, Note_on_c, 1, 57, 127
1, 178428, Note_off_c, 1, 57, 0
1, 178440, Note_on_c, 1, 55, 127
1, 178488, Note_off_c, 1, 64, 0
1, 178488, Note_off_c, 1, 55, 0
1, 178500, Note_on_c, 1, 53, 127
1, 178548, Note_off_c, 1, 53, 0
1, 178560, Note_on_c, 1, 52, 127
1, 178608, Note_off_c, 1, 72, 0
1, 178620, Note_on_c, 1, 67, 127
1, 178650, Note_off_c, 1, 52, 0
1, 178668, Note_off_c, 1, 67, 0
1, 178680, Note_on_c, 1, 69, 127
1, 178680, Note_on_c, 1, 54, 127
1, 178728, Note_off_c, 1, 69, 0
1, 178740, Note_on_c, 1, 71, 127
1, 178770, Note_off_c, 1, 54, 0
1, 178788, Note_off_c, 1, 71, 0
1, 178800, Note_on_c, 1, 72, 127
1, 178800, Note_on_c, 1, 55, 127
1, 178848, Note_off_c, 1, 72, 0
1, 178860, Note_on_c, 1, 74, 127
1, 178890, Note_off_c, 1, 55, 0
1, 178908, Note_off_c, 1, 74, 0
1, 178920, Note_on_c, 1, 75, 127
1, 178920, Note_on_c, 1, 54, 127
1, 179010, Note_off_c, 1, 54, 0
1, 179016, Note_off_c, 1, 75, 0
1, 179040, Note_on_c, 1, 74, 127
1, 179040, Note_on_c, 1, 55, 127
1, 179130, Note_off_c, 1, 55, 0
1, 179136, Note_off_c, 1, 74, 0
1, 179160, Note_on_c, 1, 72, 127
1, 179160, Note_on_c, 1, 57, 127
1, 179250, Note_off_c, 1, 72, 0
1, 179250, Note_off_c, 1, 57, 0
1, 179280, Note_on_c, 1, 70, 127
1, 179280, Note_on_c, 1, 55, 127
1, 179340, Note_on_c, 1, 67, 127
1, 179388, Note_off_c, 1, 67, 0
1, 179400, Note_on_c, 1, 66, 127
1, 179448, Note_off_c, 1, 66, 0
1, 179460, Note_on_c, 1, 64, 127
1, 179472, Note_off_c, 1, 55, 0
1, 179508, Note_off_c, 1, 64, 0
1, 179520, Note_on_c, 1, 62, 127
1, 179568, Note_off_c, 1, 62, 0
1, 179580, Note_on_c, 1, 60, 127
1, 179628, Note_off_c, 1, 60, 0
1, 179640, Note_on_c, 1, 58, 127
1, 179688, Note_off_c, 1, 58, 0
1, 179700, Note_on_c, 1, 57, 127
1, 179748, Note_off_c, 1, 57, 0
1, 179820, Note_on_c, 1, 53, 127
1, 179832, Note_off_c, 1, 70, 0
1, 179868, Note_off_c, 1, 53, 0
1, 179880, Note_on_c, 1, 70, 127
1, 179880, Note_on_c, 1, 67, 127
1, 179880, Note_on_c, 1, 65, 127
1, 179880, Note_on_c, 1, 52, 127
1, 179928, Note_off_c, 1, 52, 0
1, 179940, Note_on_c, 1, 50, 127
1, 179976, Note_off_c, 1, 70, 0
1, 179976, Note_off_c, 1, 67, 0
1, 179976, Note_off_c, 1, 65, 0
1, 179988, Note_off_c, 1, 50, 0
1, 180000, Note_on_c, 1, 70, 127
1, 180000, Note_on_c, 1, 74, 127
1, 180000, Note_on_c, 1, 64, 127
1, 180000, Note_on_c, 1, 48, 127
1, 180096, Note_off_c, 1, 70, 0
1, 180096, Note_off_c, 1, 74, 0
1, 180120, Note_on_c, 1, 69, 127
1, 180120, Note_on_c, 1, 72, 127
1, 180216, Note_off_c, 1, 69, 0
1, 180216, Note_off_c, 1, 72, 0
1, 180240, Note_on_c, 1, 67, 127
1, 180288, Note_off_c, 1, 64, 0
1, 180288, Note_off_c, 1, 48, 0
1, 180336, Note_off_c, 1, 67, 0
1, 180360, Note_on_c, 1, 69, 127
1, 180360, Note_on_c, 1, 53, 127
1, 180420, Note_on_c, 1, 65, 127
1, 180468, Note_off_c, 1, 65, 0
1, 180480, Note_on_c, 1, 64, 127
1, 180528, Note_off_c, 1, 64, 0
1, 180540, Note_on_c, 1, 62, 127
1, 180552, Note_off_c, 1, 53, 0
1, 180588, Note_off_c, 1, 62, 0
1, 180600, Note_on_c, 1, 60, 127
1, 180648, Note_off_c, 1, 60, 0
1, 180660, Note_on_c, 1, 58, 127
1, 180708, Note_off_c, 1, 58, 0
1, 180720, Note_on_c, 1, 57, 127
1, 180768, Note_off_c, 1, 57, 0
1, 180780, Note_on_c, 1, 55, 127
1, 180828, Note_off_c, 1, 55, 0
1, 180900, Note_on_c, 1, 52, 127
1, 180912, Note_off_c, 1, 69, 0
1, 180948, Note_off_c, 1, 52, 0
1, 180960, Note_on_c, 1, 69, 127
1, 180960, Note_on_c, 1, 50, 127
1, 181008, Note_off_c, 1, 50, 0
1, 181020, Note_on_c, 1, 48, 127
1, 181068, Note_off_c, 1, 48, 0
1, 181080, Note_on_c, 1, 74, 127
1, 181080, Note_on_c, 1, 47, 127
1, 181128, Note_off_c, 1, 74, 0
1, 181140, Note_on_c, 1, 76, 127
1, 181188, Note_off_c, 1, 76, 0
1, 181320, Note_on_c, 1, 77, 127
1, 181368, Note_off_c, 1, 69, 0
1, 181368, Note_off_c, 1, 47, 0
1, 181416, Note_off_c, 1, 77, 0
1, 181440, Note_on_c, 1, 67, 127
1, 181500, Note_on_c, 1, 52, 127
1, 181548, Note_off_c, 1, 52, 0
1, 181560, Note_on_c, 1, 53, 127
1, 181608, Note_off_c, 1, 53, 0
1, 181620, Note_on_c, 1, 55, 127
1, 181668, Note_off_c, 1, 55, 0
1, 181680, Note_on_c, 1, 57, 127
1, 181728, Note_off_c, 1, 67, 0
1, 181728, Note_off_c, 1, 57, 0
1, 181740, Note_on_c, 1, 59, 127
1, 181788, Note_off_c, 1, 59, 0
1, 181800, Note_on_c, 1, 61, 127
1, 181848, Note_off_c, 1, 61, 0
1, 181860, Note_on_c, 1, 62, 127
1, 181908, Note_off_c, 1, 62, 0
1, 181920, Note_on_c, 1, 64, 127
1, 181968, Note_off_c, 1, 64, 0
1, 181980, Note_on_c, 1, 65, 127
1, 182028, Note_off_c, 1, 65, 0
1, 182040, Note_on_c, 1, 67, 127
1, 182040, Note_on_c, 1, 52, 127
1, 182100, Note_on_c, 1, 69, 127
1, 182136, Note_off_c, 1, 52, 0
1, 182148, Note_off_c, 1, 69, 0
1, 182160, Note_on_c, 1, 70, 127
1, 182160, Note_on_c, 1, 61, 127
1, 182160, Note_on_c, 1, 57, 127
1, 182256, Note_off_c, 1, 67, 0
1, 182256, Note_off_c, 1, 70, 0
1, 182280, Note_on_c, 1, 65, 127
1, 182352, Note_off_c, 1, 57, 0
1, 182376, Note_off_c, 1, 65, 0
1, 182400, Note_on_c, 1, 64, 127
1, 182400, Note_on_c, 1, 45, 127
1, 182496, Note_off_c, 1, 64, 0
1, 182496, Note_off_c, 1, 45, 0
1, 182520, Note_off_c, 1, 61, 0
1, 182520, Note_on_c, 1, 50, 127
1, 182580, Note_on_c, 1, 62, 127
1, 182616, Note_off_c, 1, 50, 0
1, 182628, Note_off_c, 1, 62, 0
1, 182640, Note_on_c, 1, 61, 127
1, 182640, Note_on_c, 1, 53, 127
1, 182688, Note_off_c, 1, 61, 0
1, 182700, Note_on_c, 1, 59, 127
1, 182736, Note_off_c, 1, 53, 0
1, 182748, Note_off_c, 1, 59, 0
1, 182760, Note_on_c, 1, 61, 127
1, 182760, Note_on_c, 1, 45, 127
1, 182808, Note_off_c, 1, 61, 0
1, 182820, Note_on_c, 1, 62, 127
1, 182850, Note_off_c, 1, 45, 0
1, 182868, Note_off_c, 1, 62, 0
1, 182880, Note_on_c, 1, 67, 127
1, 182880, Note_on_c, 1, 52, 127
1, 182928, Note_off_c, 1, 67, 0
1, 182940, Note_on_c, 1, 64, 127
1, 182976, Note_off_c, 1, 52, 0
1, 182988, Note_off_c, 1, 64, 0
1, 183000, Note_on_c, 1, 62, 127
1, 183000, Note_on_c, 1, 55, 127
1, 183048, Note_off_c, 1, 62, 0
1, 183060, Note_on_c, 1, 61, 127
1, 183096, Note_off_c, 1, 55, 0
1, 183108, Note_off_c, 1, 61, 0
1, 183120, Note_on_c, 1, 62, 127
1, 183120, Note_on_c, 1, 45, 127
1, 183168, Note_off_c, 1, 62, 0
1, 183180, Note_on_c, 1, 64, 127
1, 183210, Note_off_c, 1, 45, 0
1, 183228, Note_off_c, 1, 64, 0
1, 183240, Note_on_c, 1, 69, 127
1, 183240, Note_on_c, 1, 53, 127
1, 183288, Note_off_c, 1, 69, 0
1, 183300, Note_on_c, 1, 65, 127
1, 183336, Note_off_c, 1, 53, 0
1, 183348, Note_off_c, 1, 65, 0
1, 183360, Note_on_c, 1, 64, 127
1, 183360, Note_on_c, 1, 57, 127
1, 183408, Note_off_c, 1, 64, 0
1, 183420, Note_on_c, 1, 62, 127
1, 183456, Note_off_c, 1, 57, 0
1, 183468, Note_off_c, 1, 62, 0
1, 183480, Note_on_c, 1, 64, 127
1, 183480, Note_on_c, 1, 50, 127
1, 183528, Note_off_c, 1, 64, 0
1, 183540, Note_on_c, 1, 65, 127
1, 183570, Note_off_c, 1, 50, 0
1, 183588, Note_off_c, 1, 65, 0
1, 183600, Note_on_c, 1, 71, 127
1, 183600, Note_on_c, 1, 55, 127
1, 183648, Note_off_c, 1, 71, 0
1, 183660, Note_on_c, 1, 67, 127
1, 183696, Note_off_c, 1, 55, 0
1, 183708, Note_off_c, 1, 67, 0
1, 183720, Note_on_c, 1, 65, 127
1, 183720, Note_on_c, 1, 43, 127
1, 183768, Note_off_c, 1, 65, 0
1, 183780, Note_on_c, 1, 64, 127
1, 183816, Note_off_c, 1, 43, 0
1, 183828, Note_off_c, 1, 64, 0
1, 183840, Note_on_c, 1, 65, 127
1, 183840, Note_on_c, 1, 55, 127
1, 183888, Note_off_c, 1, 65, 0
1, 183900, Note_on_c, 1, 67, 127
1, 183930, Note_off_c, 1, 55, 0
1, 183948, Note_off_c, 1, 67, 0
1, 183960, Note_on_c, 1, 73, 127
1, 183960, Note_on_c, 1, 55, 127
1, 184008, Note_off_c, 1, 73, 0
1, 184020, Note_on_c, 1, 69, 127
1, 184056, Note_off_c, 1, 55, 0
1, 184068, Note_off_c, 1, 69, 0
1, 184080, Note_on_c, 1, 67, 127
1, 184080, Note_on_c, 1, 45, 127
1, 184128, Note_off_c, 1, 67, 0
1, 184140, Note_on_c, 1, 65, 127
1, 184176, Note_off_c, 1, 45, 0
1, 184188, Note_off_c, 1, 65, 0
1, 184200, Note_on_c, 1, 67, 127
1, 184200, Note_on_c, 1, 55, 127
1, 184248, Note_off_c, 1, 67, 0
1, 184260, Note_on_c, 1, 69, 127
1, 184290, Note_off_c, 1, 55, 0
1, 184308, Note_off_c, 1, 69, 0
1, 184320, Note_on_c, 1, 74, 127
1, 184320, Note_on_c, 1, 55, 127
1, 184368, Note_off_c, 1, 74, 0
1, 184380, Note_on_c, 1, 70, 127
1, 184416, Note_off_c, 1, 55, 0
1, 184428, Note_off_c, 1, 70, 0
1, 184440, Note_on_c, 1, 69, 127
1, 184440, Note_on_c, 1, 46, 127
1, 184488, Note_off_c, 1, 69, 0
1, 184500, Note_on_c, 1, 67, 127
1, 184536, Note_off_c, 1, 46, 0
1, 184548, Note_off_c, 1, 67, 0
1, 184560, Note_on_c, 1, 69, 127
1, 184560, Note_on_c, 1, 55, 127
1, 184608, Note_off_c, 1, 69, 0
1, 184620, Note_on_c, 1, 70, 127
1, 184650, Note_off_c, 1, 55, 0
1, 184668, Note_off_c, 1, 70, 0
1, 184680, Note_on_c, 1, 76, 127
1, 184680, Note_on_c, 1, 49, 127
1, 184728, Note_off_c, 1, 76, 0
1, 184740, Note_on_c, 1, 70, 127
1, 184776, Note_off_c, 1, 49, 0
1, 184788, Note_off_c, 1, 70, 0
1, 184800, Note_on_c, 1, 69, 127
1, 184800, Note_on_c, 1, 52, 127
1, 184848, Note_off_c, 1, 69, 0
1, 184860, Note_on_c, 1, 67, 127
1, 184896, Note_off_c, 1, 52, 0
1, 184908, Note_off_c, 1, 67, 0
1, 184920, Note_on_c, 1, 65, 127
1, 184920, Note_on_c, 1, 57, 127
1, 184968, Note_off_c, 1, 65, 0
1, 184980, Note_on_c, 1, 64, 127
1, 185016, Note_off_c, 1, 57, 0
1, 185028, Note_off_c, 1, 64, 0
1, 185040, Note_on_c, 1, 65, 127
1, 185040, Note_on_c, 1, 50, 127
1, 185088, Note_off_c, 1, 65, 0
1, 185100, Note_on_c, 1, 69, 127
1, 185136, Note_off_c, 1, 50, 0
1, 185148, Note_off_c, 1, 69, 0
1, 185160, Note_on_c, 1, 70, 127
1, 185160, Note_on_c, 1, 53, 127
1, 185208, Note_off_c, 1, 70, 0
1, 185220, Note_on_c, 1, 72, 127
1, 185256, Note_off_c, 1, 53, 0
1, 185268, Note_off_c, 1, 72, 0
1, 185280, Note_on_c, 1, 70, 127
1, 185280, Note_on_c, 1, 57, 127
1, 185328, Note_off_c, 1, 70, 0
1, 185340, Note_on_c, 1, 69, 127
1, 185376, Note_off_c, 1, 57, 0
1, 185388, Note_off_c, 1, 69, 0
1, 185400, Note_on_c, 1, 67, 127
1, 185400, Note_on_c, 1, 46, 127
1, 185448, Note_off_c, 1, 67, 0
1, 185460, Note_on_c, 1, 74, 127
1, 185496, Note_off_c, 1, 46, 0
1, 185508, Note_off_c, 1, 74, 0
1, 185520, Note_on_c, 1, 76, 127
1, 185520, Note_on_c, 1, 50, 127
1, 185568, Note_off_c, 1, 76, 0
1, 185580, Note_on_c, 1, 77, 127
1, 185616, Note_off_c, 1, 50, 0
1, 185628, Note_off_c, 1, 77, 0
1, 185640, Note_on_c, 1, 76, 127
1, 185640, Note_on_c, 1, 55, 127
1, 185688, Note_off_c, 1, 76, 0
1, 185700, Note_on_c, 1, 74, 127
1, 185736, Note_off_c, 1, 55, 0
1, 185748, Note_off_c, 1, 74, 0
1, 185760, Note_on_c, 1, 73, 127
1, 185760, Note_on_c, 1, 57, 127
1, 185808, Note_off_c, 1, 57, 0
1, 185820, Note_on_c, 1, 45, 127
1, 185868, Note_off_c, 1, 45, 0
1, 185880, Note_on_c, 1, 47, 127
1, 185928, Note_off_c, 1, 47, 0
1, 185940, Note_on_c, 1, 49, 127
1, 185988, Note_off_c, 1, 49, 0
1, 186000, Note_on_c, 1, 50, 127
1, 186048, Note_off_c, 1, 50, 0
1, 186060, Note_on_c, 1, 52, 127
1, 186108, Note_off_c, 1, 52, 0
1, 186120, Note_on_c, 1, 53, 127
1, 186168, Note_off_c, 1, 73, 0
1, 186180, Note_on_c, 1, 71, 127
1, 186210, Note_off_c, 1, 53, 0
1, 186228, Note_off_c, 1, 71, 0
1, 186240, Note_on_c, 1, 73, 127
1, 186240, Note_on_c, 1, 52, 127
1, 186288, Note_off_c, 1, 73, 0
1, 186300, Note_on_c, 1, 74, 127
1, 186330, Note_off_c, 1, 52, 0
1, 186348, Note_off_c, 1, 74, 0
1, 186360, Note_on_c, 1, 76, 127
1, 186360, Note_on_c, 1, 50, 127
1, 186408, Note_off_c, 1, 76, 0
1, 186420, Note_on_c, 1, 77, 127
1, 186450, Note_off_c, 1, 50, 0
1, 186468, Note_off_c, 1, 77, 0
1, 186480, Note_on_c, 1, 79, 127
1, 186480, Note_on_c, 1, 52, 127
1, 186528, Note_off_c, 1, 79, 0
1, 186540, Note_on_c, 1, 77, 127
1, 186570, Note_off_c, 1, 52, 0
1, 186588, Note_off_c, 1, 77, 0
1, 186600, Note_on_c, 1, 76, 127
1, 186600, Note_on_c, 1, 50, 127
1, 186648, Note_off_c, 1, 76, 0
1, 186660, Note_on_c, 1, 77, 127
1, 186690, Note_off_c, 1, 50, 0
1, 186708, Note_off_c, 1, 77, 0
1, 186720, Note_on_c, 1, 79, 127
1, 186720, Note_on_c, 1, 49, 127
1, 186768, Note_off_c, 1, 79, 0
1, 186780, Note_on_c, 1, 76, 127
1, 186810, Note_off_c, 1, 49, 0
1, 186828, Note_off_c, 1, 76, 0
1, 186840, Note_on_c, 1, 77, 127
1, 186840, Note_on_c, 1, 50, 127
1, 186888, Note_off_c, 1, 77, 0
1, 186900, Note_on_c, 1, 74, 127
1, 186948, Note_off_c, 1, 74, 0
1, 186960, Note_on_c, 1, 76, 127
1, 187008, Note_off_c, 1, 76, 0
1, 187020, Note_on_c, 1, 78, 127
1, 187068, Note_off_c, 1, 78, 0
1, 187080, Note_on_c, 1, 79, 127
1, 187128, Note_off_c, 1, 79, 0
1, 187140, Note_on_c, 1, 81, 127
1, 187188, Note_off_c, 1, 81, 0
1, 187200, Note_on_c, 1, 82, 127
1, 187248, Note_off_c, 1, 50, 0
1, 187260, Note_on_c, 1, 52, 127
1, 187290, Note_off_c, 1, 82, 0
1, 187308, Note_off_c, 1, 52, 0
1, 187320, Note_on_c, 1, 81, 127
1, 187320, Note_on_c, 1, 54, 127
1, 187368, Note_off_c, 1, 54, 0
1, 187380, Note_on_c, 1, 55, 127
1, 187410, Note_off_c, 1, 81, 0
1, 187428, Note_off_c, 1, 55, 0
1, 187440, Note_on_c, 1, 79, 127
1, 187440, Note_on_c, 1, 57, 127
1, 187488, Note_off_c, 1, 57, 0
1, 187500, Note_on_c, 1, 58, 127
1, 187530, Note_off_c, 1, 79, 0
1, 187548, Note_off_c, 1, 58, 0
1, 187560, Note_on_c, 1, 81, 127
1, 187560, Note_on_c, 1, 60, 127
1, 187608, Note_off_c, 1, 60, 0
1, 187620, Note_on_c, 1, 58, 127
1, 187650, Note_off_c, 1, 81, 0
1, 187668, Note_off_c, 1, 58, 0
1, 187680, Note_on_c, 1, 79, 127
1, 187680, Note_on_c, 1, 57, 127
1, 187728, Note_off_c, 1, 57, 0
1, 187740, Note_on_c, 1, 58, 127
1, 187770, Note_off_c, 1, 79, 0
1, 187788, Note_off_c, 1, 58, 0
1, 187800, Note_on_c, 1, 78, 127
1, 187800, Note_on_c, 1, 60, 127
1, 187848, Note_off_c, 1, 60, 0
1, 187860, Note_on_c, 1, 57, 127
1, 187890, Note_off_c, 1, 78, 0
1, 187908, Note_off_c, 1, 57, 0
1, 187920, Note_on_c, 1, 79, 127
1, 187920, Note_on_c, 1, 59, 127
1, 187968, Note_off_c, 1, 59, 0
1, 187980, Note_on_c, 1, 55, 127
1, 188028, Note_off_c, 1, 55, 0
1, 188040, Note_on_c, 1, 57, 127
1, 188088, Note_off_c, 1, 57, 0
1, 188160, Note_on_c, 1, 60, 127
1, 188208, Note_off_c, 1, 60, 0
1, 188220, Note_on_c, 1, 62, 127
1, 188268, Note_off_c, 1, 62, 0
1, 188280, Note_on_c, 1, 84, 127
1, 188328, Note_off_c, 1, 79, 0
1, 188340, Note_on_c, 1, 69, 127
1, 188370, Note_off_c, 1, 84, 0
1, 188388, Note_off_c, 1, 69, 0
1, 188400, Note_on_c, 1, 71, 127
1, 188400, Note_on_c, 1, 62, 127
1, 188448, Note_off_c, 1, 71, 0
1, 188460, Note_on_c, 1, 72, 127
1, 188490, Note_off_c, 1, 62, 0
1, 188508, Note_off_c, 1, 72, 0
1, 188520, Note_on_c, 1, 74, 127
1, 188520, Note_on_c, 1, 60, 127
1, 188568, Note_off_c, 1, 74, 0
1, 188580, Note_on_c, 1, 76, 127
1, 188610, Note_off_c, 1, 60, 0
1, 188628, Note_off_c, 1, 76, 0
1, 188640, Note_on_c, 1, 77, 127
1, 188640, Note_on_c, 1, 62, 127
1, 188688, Note_off_c, 1, 77, 0
1, 188700, Note_on_c, 1, 76, 127
1, 188730, Note_off_c, 1, 62, 0
1, 188748, Note_off_c, 1, 76, 0
1, 188760, Note_on_c, 1, 74, 127
1, 188760, Note_on_c, 1, 60, 127
1, 188808, Note_off_c, 1, 74, 0
1, 188820, Note_on_c, 1, 76, 127
1, 188850, Note_off_c, 1, 60, 0
1, 188868, Note_off_c, 1, 76, 0
1, 188880, Note_on_c, 1, 77, 127
1, 188880, Note_on_c, 1, 59, 127
1, 188928, Note_off_c, 1, 77, 0
1, 188940, Note_on_c, 1, 74, 127
1, 188970, Note_off_c, 1, 59, 0
1, 188988, Note_off_c, 1, 74, 0
1, 189000, Note_on_c, 1, 76, 127
1, 189000, Note_on_c, 1, 60, 127
1, 189048, Note_off_c, 1, 76, 0
1, 189060, Note_on_c, 1, 72, 127
1, 189108, Note_off_c, 1, 72, 0
1, 189120, Note_on_c, 1, 74, 127
1, 189168, Note_off_c, 1, 74, 0
1, 189240, Note_on_c, 1, 77, 127
1, 189288, Note_off_c, 1, 77, 0
1, 189300, Note_on_c, 1, 79, 127
1, 189348, Note_off_c, 1, 79, 0
1, 189360, Note_on_c, 1, 81, 127
1, 189408, Note_off_c, 1, 60, 0
1, 189420, Note_on_c, 1, 62, 127
1, 189450, Note_off_c, 1, 81, 0
1, 189468, Note_off_c, 1, 62, 0
1, 189480, Note_on_c, 1, 64, 127
1, 189480, Note_on_c, 1, 79, 127
1, 189528, Note_off_c, 1, 64, 0
1, 189540, Note_on_c, 1, 65, 127
1, 189570, Note_off_c, 1, 79, 0
1, 189588, Note_off_c, 1, 65, 0
1, 189600, Note_on_c, 1, 67, 127
1, 189600, Note_on_c, 1, 77, 127
1, 189648, Note_off_c, 1, 67, 0
1, 189660, Note_on_c, 1, 69, 127
1, 189690, Note_off_c, 1, 77, 0
1, 189708, Note_off_c, 1, 69, 0
1, 189720, Note_on_c, 1, 70, 127
1, 189720, Note_on_c, 1, 79, 127
1, 189768, Note_off_c, 1, 70, 0
1, 189780, Note_on_c, 1, 69, 127
1, 189810, Note_off_c, 1, 79, 0
1, 189828, Note_off_c, 1, 69, 0
1, 189840, Note_on_c, 1, 67, 127
1, 189840, Note_on_c, 1, 77, 127
1, 189888, Note_off_c, 1, 67, 0
1, 189900, Note_on_c, 1, 69, 127
1, 189930, Note_off_c, 1, 77, 0
1, 189948, Note_off_c, 1, 69, 0
1, 189960, Note_on_c, 1, 70, 127
1, 189960, Note_on_c, 1, 76, 127
1, 190008, Note_off_c, 1, 70, 0
1, 190020, Note_on_c, 1, 67, 127
1, 190050, Note_off_c, 1, 76, 0
1, 190068, Note_off_c, 1, 67, 0
1, 190080, Note_on_c, 1, 69, 127
1, 190080, Note_on_c, 1, 77, 127
1, 190128, Note_off_c, 1, 69, 0
1, 190140, Note_on_c, 1, 65, 127
1, 190176, Note_off_c, 1, 77, 0
1, 190188, Note_off_c, 1, 65, 0
1, 190200, Note_on_c, 1, 64, 127
1, 190200, Note_on_c, 1, 82, 127
1, 190248, Note_off_c, 1, 64, 0
1, 190260, Note_on_c, 1, 62, 127
1, 190296, Note_off_c, 1, 82, 0
1, 190308, Note_off_c, 1, 62, 0
1, 190320, Note_on_c, 1, 64, 127
1, 190320, Note_on_c, 1, 74, 127
1, 190368, Note_off_c, 1, 64, 0
1, 190380, Note_on_c, 1, 65, 127
1, 190410, Note_off_c, 1, 74, 0
1, 190428, Note_off_c, 1, 65, 0
1, 190440, Note_on_c, 1, 67, 127
1, 190440, Note_on_c, 1, 76, 127
1, 190488, Note_off_c, 1, 67, 0
1, 190500, Note_on_c, 1, 64, 127
1, 190536, Note_off_c, 1, 76, 0
1, 190548, Note_off_c, 1, 64, 0
1, 190560, Note_on_c, 1, 62, 127
1, 190560, Note_on_c, 1, 81, 127
1, 190608, Note_off_c, 1, 62, 0
1, 190620, Note_on_c, 1, 60, 127
1, 190656, Note_off_c, 1, 81, 0
1, 190668, Note_off_c, 1, 60, 0
1, 190680, Note_on_c, 1, 62, 127
1, 190680, Note_on_c, 1, 72, 127
1, 190728, Note_off_c, 1, 62, 0
1, 190740, Note_on_c, 1, 64, 127
1, 190770, Note_off_c, 1, 72, 0
1, 190788, Note_off_c, 1, 64, 0
1, 190800, Note_on_c, 1, 65, 127
1, 190800, Note_on_c, 1, 74, 127
1, 190848, Note_off_c, 1, 65, 0
1, 190860, Note_on_c, 1, 62, 127
1, 190896, Note_off_c, 1, 74, 0
1, 190908, Note_off_c, 1, 62, 0
1, 190920, Note_on_c, 1, 60, 127
1, 190920, Note_on_c, 1, 79, 127
1, 190968, Note_off_c, 1, 60, 0
1, 190980, Note_on_c, 1, 58, 127
1, 191016, Note_off_c, 1, 79, 0
1, 191028, Note_off_c, 1, 58, 0
1, 191040, Note_on_c, 1, 60, 127
1, 191040, Note_on_c, 1, 70, 127
1, 191088, Note_off_c, 1, 60, 0
1, 191100, Note_on_c, 1, 62, 127
1, 191130, Note_off_c, 1, 70, 0
1, 191148, Note_off_c, 1, 62, 0
1, 191160, Note_on_c, 1, 72, 127
1, 191160, Note_on_c, 1, 64, 127
1, 191208, Note_off_c, 1, 64, 0
1, 191220, Note_on_c, 1, 60, 127
1, 191256, Note_off_c, 1, 72, 0
1, 191268, Note_off_c, 1, 60, 0
1, 191280, Note_on_c, 1, 77, 127
1, 191280, Note_on_c, 1, 58, 127
1, 191328, Note_off_c, 1, 58, 0
1, 191340, Note_on_c, 1, 57, 127
1, 191376, Note_off_c, 1, 77, 0
1, 191388, Note_off_c, 1, 57, 0
1, 191400, Note_on_c, 1, 69, 127
1, 191400, Note_on_c, 1, 58, 127
1, 191448, Note_off_c, 1, 58, 0
1, 191460, Note_on_c, 1, 60, 127
1, 191490, Note_off_c, 1, 69, 0
1, 191508, Note_off_c, 1, 60, 0
1, 191520, Note_on_c, 1, 70, 127
1, 191520, Note_on_c, 1, 62, 127
1, 191568, Note_off_c, 1, 62, 0
1, 191580, Note_on_c, 1, 58, 127
1, 191616, Note_off_c, 1, 70, 0
1, 191628, Note_off_c, 1, 58, 0
1, 191640, Note_on_c, 1, 76, 127
1, 191640, Note_on_c, 1, 57, 127
1, 191688, Note_off_c, 1, 57, 0
1, 191700, Note_on_c, 1, 55, 127
1, 191736, Note_off_c, 1, 76, 0
1, 191748, Note_off_c, 1, 55, 0
1, 191760, Note_on_c, 1, 67, 127
1, 191760, Note_on_c, 1, 57, 127
1, 191808, Note_off_c, 1, 57, 0
1, 191820, Note_on_c, 1, 58, 127
1, 191850, Note_off_c, 1, 67, 0
1, 191868, Note_off_c, 1, 58, 0
1, 191880, Note_on_c, 1, 69, 127
1, 191880, Note_on_c, 1, 60, 127
1, 191928, Note_off_c, 1, 60, 0
1, 191940, Note_on_c, 1, 57, 127
1, 191976, Note_off_c, 1, 69, 0
1, 191988, Note_off_c, 1, 57, 0
1, 192000, Note_on_c, 1, 74, 127
1, 192000, Note_on_c, 1, 55, 127
1, 192048, Note_off_c, 1, 55, 0
1, 192060, Note_on_c, 1, 53, 127
1, 192096, Note_off_c, 1, 74, 0
1, 192108, Note_off_c, 1, 53, 0
1, 192120, Note_on_c, 1, 65, 127
1, 192120, Note_on_c, 1, 55, 127
1, 192168, Note_off_c, 1, 55, 0
1, 192180, Note_on_c, 1, 57, 127
1, 192210, Note_off_c, 1, 65, 0
1, 192228, Note_off_c, 1, 57, 0
1, 192240, Note_on_c, 1, 67, 127
1, 192240, Note_on_c, 1, 58, 127
1, 192288, Note_off_c, 1, 67, 0
1, 192300, Note_on_c, 1, 69, 127
1, 192348, Note_off_c, 1, 69, 0
1, 192360, Note_on_c, 1, 70, 127
1, 192408, Note_off_c, 1, 70, 0
1, 192420, Note_on_c, 1, 74, 127
1, 192468, Note_off_c, 1, 74, 0
1, 192528, Note_off_c, 1, 58, 0
1, 192540, Note_on_c, 1, 69, 127
1, 192588, Note_off_c, 1, 69, 0
1, 192600, Note_on_c, 1, 67, 127
1, 192648, Note_off_c, 1, 67, 0
1, 192660, Note_on_c, 1, 69, 127
1, 192708, Note_off_c, 1, 69, 0
1, 192720, Note_on_c, 1, 70, 127
1, 192768, Note_off_c, 1, 70, 0
1, 192780, Note_on_c, 1, 74, 127
1, 192828, Note_off_c, 1, 74, 0
1, 192840, Note_on_c, 1, 69, 127
1, 192888, Note_off_c, 1, 69, 0
1, 192900, Note_on_c, 1, 67, 127
1, 192948, Note_off_c, 1, 67, 0
1, 192960, Note_on_c, 1, 65, 127
1, 192960, Note_on_c, 1, 57, 127
1, 193008, Note_off_c, 1, 65, 0
1, 193020, Note_on_c, 1, 67, 127
1, 193068, Note_off_c, 1, 67, 0
1, 193080, Note_on_c, 1, 69, 127
1, 193128, Note_off_c, 1, 69, 0
1, 193140, Note_on_c, 1, 74, 127
1, 193188, Note_off_c, 1, 74, 0
1, 193248, Note_off_c, 1, 57, 0
1, 193260, Note_on_c, 1, 65, 127
1, 193308, Note_off_c, 1, 65, 0
1, 193320, Note_on_c, 1, 64, 127
1, 193320, Note_on_c, 1, 55, 127
1, 193368, Note_off_c, 1, 64, 0
1, 193380, Note_on_c, 1, 65, 127
1, 193428, Note_off_c, 1, 65, 0
1, 193440, Note_on_c, 1, 67, 127
1, 193488, Note_off_c, 1, 67, 0
1, 193500, Note_on_c, 1, 70, 127
1, 193548, Note_off_c, 1, 70, 0
1, 193608, Note_off_c, 1, 55, 0
1, 193620, Note_on_c, 1, 65, 127
1, 193668, Note_off_c, 1, 65, 0
1, 193680, Note_on_c, 1, 64, 127
1, 193728, Note_off_c, 1, 64, 0
1, 193740, Note_on_c, 1, 65, 127
1, 193788, Note_off_c, 1, 65, 0
1, 193800, Note_on_c, 1, 67, 127
1, 193848, Note_off_c, 1, 67, 0
1, 193860, Note_on_c, 1, 70, 127
1, 193908, Note_off_c, 1, 70, 0
1, 193920, Note_on_c, 1, 65, 127
1, 193968, Note_off_c, 1, 65, 0
1, 193980, Note_on_c, 1, 64, 127
1, 194028, Note_off_c, 1, 64, 0
1, 194040, Note_on_c, 1, 62, 127
1, 194040, Note_on_c, 1, 56, 127
1, 194088, Note_off_c, 1, 62, 0
1, 194100, Note_on_c, 1, 64, 127
1, 194148, Note_off_c, 1, 64, 0
1, 194160, Note_on_c, 1, 65, 127
1, 194208, Note_off_c, 1, 65, 0
1, 194220, Note_on_c, 1, 71, 127
1, 194268, Note_off_c, 1, 71, 0
1, 194328, Note_off_c, 1, 56, 0
1, 194340, Note_on_c, 1, 62, 127
1, 194388, Note_off_c, 1, 62, 0
1, 194400, Note_on_c, 1, 61, 127
1, 194400, Note_on_c, 1, 57, 127
1, 194448, Note_off_c, 1, 57, 0
1, 194460, Note_on_c, 1, 45, 127
1, 194496, Note_off_c, 1, 61, 0
1, 194508, Note_off_c, 1, 45, 0
1, 194520, Note_on_c, 1, 62, 127
1, 194520, Note_on_c, 1, 47, 127
1, 194568, Note_off_c, 1, 62, 0
1, 194568, Note_off_c, 1, 47, 0
1, 194580, Note_on_c, 1, 64, 127
1, 194580, Note_on_c, 1, 49, 127
1, 194628, Note_off_c, 1, 64, 0
1, 194628, Note_off_c, 1, 49, 0
1, 194640, Note_on_c, 1, 65, 127
1, 194640, Note_on_c, 1, 50, 127
1, 194688, Note_off_c, 1, 65, 0
1, 194688, Note_off_c, 1, 50, 0
1, 194700, Note_on_c, 1, 67, 127
1, 194700, Note_on_c, 1, 52, 127
1, 194748, Note_off_c, 1, 67, 0
1, 194748, Note_off_c, 1, 52, 0
1, 194760, Note_on_c, 1, 69, 127
1, 194760, Note_on_c, 1, 53, 127
1, 194808, Note_off_c, 1, 69, 0
1, 194820, Note_on_c, 1, 71, 127
1, 194850, Note_off_c, 1, 53, 0
1, 194868, Note_off_c, 1, 71, 0
1, 194880, Note_on_c, 1, 73, 127
1, 194880, Note_on_c, 1, 52, 127
1, 194928, Note_off_c, 1, 73, 0
1, 194940, Note_on_c, 1, 74, 127
1, 194970, Note_off_c, 1, 52, 0
1, 194988, Note_off_c, 1, 74, 0
1, 195000, Note_on_c, 1, 76, 127
1, 195000, Note_on_c, 1, 50, 127
1, 195048, Note_off_c, 1, 76, 0
1, 195060, Note_on_c, 1, 77, 127
1, 195090, Note_off_c, 1, 50, 0
1, 195108, Note_off_c, 1, 77, 0
1, 195120, Note_on_c, 1, 79, 127
1, 195120, Note_on_c, 1, 52, 127
1, 195168, Note_off_c, 1, 79, 0
1, 195180, Note_on_c, 1, 77, 127
1, 195210, Note_off_c, 1, 52, 0
1, 195228, Note_off_c, 1, 77, 0
1, 195240, Note_on_c, 1, 76, 127
1, 195240, Note_on_c, 1, 50, 127
1, 195288, Note_off_c, 1, 76, 0
1, 195300, Note_on_c, 1, 77, 127
1, 195330, Note_off_c, 1, 50, 0
1, 195348, Note_off_c, 1, 77, 0
1, 195360, Note_on_c, 1, 79, 127
1, 195360, Note_on_c, 1, 49, 127
1, 195408, Note_off_c, 1, 79, 0
1, 195420, Note_on_c, 1, 76, 127
1, 195450, Note_off_c, 1, 49, 0
1, 195468, Note_off_c, 1, 76, 0
1, 195480, Note_on_c, 1, 77, 127
1, 195480, Note_on_c, 1, 50, 127
1, 195528, Note_off_c, 1, 77, 0
1, 195540, Note_on_c, 1, 74, 127
1, 195576, Note_off_c, 1, 50, 0
1, 195588, Note_off_c, 1, 74, 0
1, 195600, Note_on_c, 1, 72, 127
1, 195600, Note_on_c, 1, 55, 127
1, 195648, Note_off_c, 1, 72, 0
1, 195660, Note_on_c, 1, 70, 127
1, 195696, Note_off_c, 1, 55, 0
1, 195708, Note_off_c, 1, 70, 0
1, 195720, Note_on_c, 1, 72, 127
1, 195720, Note_on_c, 1, 46, 127
1, 195768, Note_off_c, 1, 72, 0
1, 195780, Note_on_c, 1, 74, 127
1, 195810, Note_off_c, 1, 46, 0
1, 195828, Note_off_c, 1, 74, 0
1, 195840, Note_on_c, 1, 76, 127
1, 195840, Note_on_c, 1, 48, 127
1, 195888, Note_off_c, 1, 76, 0
1, 195900, Note_on_c, 1, 72, 127
1, 195936, Note_off_c, 1, 48, 0
1, 195948, Note_off_c, 1, 72, 0
1, 195960, Note_on_c, 1, 70, 127
1, 195960, Note_on_c, 1, 53, 127
1, 196008, Note_off_c, 1, 70, 0
1, 196020, Note_on_c, 1, 69, 127
1, 196056, Note_off_c, 1, 53, 0
1, 196068, Note_off_c, 1, 69, 0
1, 196080, Note_on_c, 1, 70, 127
1, 196080, Note_on_c, 1, 45, 127
1, 196128, Note_off_c, 1, 70, 0
1, 196140, Note_on_c, 1, 72, 127
1, 196170, Note_off_c, 1, 45, 0
1, 196188, Note_off_c, 1, 72, 0
1, 196200, Note_on_c, 1, 74, 127
1, 196200, Note_on_c, 1, 46, 127
1, 196248, Note_off_c, 1, 74, 0
1, 196260, Note_on_c, 1, 70, 127
1, 196296, Note_off_c, 1, 46, 0
1, 196308, Note_off_c, 1, 70, 0
1, 196320, Note_on_c, 1, 69, 127
1, 196320, Note_on_c, 1, 52, 127
1, 196368, Note_off_c, 1, 69, 0
1, 196380, Note_on_c, 1, 67, 127
1, 196416, Note_off_c, 1, 52, 0
1, 196428, Note_off_c, 1, 67, 0
1, 196440, Note_on_c, 1, 69, 127
1, 196440, Note_on_c, 1, 43, 127
1, 196488, Note_off_c, 1, 69, 0
1, 196500, Note_on_c, 1, 70, 127
1, 196530, Note_off_c, 1, 43, 0
1, 196548, Note_off_c, 1, 70, 0
1, 196560, Note_on_c, 1, 72, 127
1, 196560, Note_on_c, 1, 45, 127
1, 196608, Note_off_c, 1, 72, 0
1, 196620, Note_on_c, 1, 69, 127
1, 196656, Note_off_c, 1, 45, 0
1, 196668, Note_off_c, 1, 69, 0
1, 196680, Note_on_c, 1, 67, 127
1, 196680, Note_on_c, 1, 50, 127
1, 196728, Note_off_c, 1, 67, 0
1, 196740, Note_on_c, 1, 65, 127
1, 196776, Note_off_c, 1, 50, 0
1, 196788, Note_off_c, 1, 65, 0
1, 196800, Note_on_c, 1, 67, 127
1, 196800, Note_on_c, 1, 41, 127
1, 196848, Note_off_c, 1, 67, 0
1, 196860, Note_on_c, 1, 69, 127
1, 196890, Note_off_c, 1, 41, 0
1, 196908, Note_off_c, 1, 69, 0
1, 196920, Note_on_c, 1, 70, 127
1, 196920, Note_on_c, 1, 43, 127
1, 196968, Note_off_c, 1, 70, 0
1, 196980, Note_on_c, 1, 67, 127
1, 197016, Note_off_c, 1, 43, 0
1, 197028, Note_off_c, 1, 67, 0
1, 197040, Note_on_c, 1, 65, 127
1, 197040, Note_on_c, 1, 48, 127
1, 197088, Note_off_c, 1, 65, 0
1, 197100, Note_on_c, 1, 64, 127
1, 197136, Note_off_c, 1, 48, 0
1, 197148, Note_off_c, 1, 64, 0
1, 197160, Note_on_c, 1, 65, 127
1, 197160, Note_on_c, 1, 40, 127
1, 197208, Note_off_c, 1, 65, 0
1, 197220, Note_on_c, 1, 67, 127
1, 197250, Note_off_c, 1, 40, 0
1, 197268, Note_off_c, 1, 67, 0
1, 197280, Note_on_c, 1, 69, 127
1, 197280, Note_on_c, 1, 41, 127
1, 197328, Note_off_c, 1, 69, 0
1, 197340, Note_on_c, 1, 65, 127
1, 197376, Note_off_c, 1, 41, 0
1, 197388, Note_off_c, 1, 65, 0
1, 197400, Note_on_c, 1, 64, 127
1, 197400, Note_on_c, 1, 46, 127
1, 197448, Note_off_c, 1, 64, 0
1, 197460, Note_on_c, 1, 62, 127
1, 197496, Note_off_c, 1, 46, 0
1, 197508, Note_off_c, 1, 62, 0
1, 197520, Note_on_c, 1, 64, 127
1, 197520, Note_on_c, 1, 38, 127
1, 197568, Note_off_c, 1, 64, 0
1, 197580, Note_on_c, 1, 65, 127
1, 197610, Note_off_c, 1, 38, 0
1, 197628, Note_off_c, 1, 65, 0
1, 197640, Note_on_c, 1, 67, 127
1, 197640, Note_on_c, 1, 40, 127
1, 197688, Note_off_c, 1, 40, 0
1, 197700, Note_on_c, 1, 45, 127
1, 197748, Note_off_c, 1, 45, 0
1, 197760, Note_on_c, 1, 43, 127
1, 197808, Note_off_c, 1, 43, 0
1, 197820, Note_on_c, 1, 41, 127
1, 197868, Note_off_c, 1, 41, 0
1, 197940, Note_on_c, 1, 38, 127
1, 197988, Note_off_c, 1, 38, 0
1, 198000, Note_on_c, 1, 37, 127
1, 198048, Note_off_c, 1, 67, 0
1, 198060, Note_on_c, 1, 70, 127
1, 198090, Note_off_c, 1, 37, 0
1, 198108, Note_off_c, 1, 70, 0
1, 198120, Note_on_c, 1, 69, 127
1, 198120, Note_on_c, 1, 38, 127
1, 198168, Note_off_c, 1, 69, 0
1, 198180, Note_on_c, 1, 67, 127
1, 198210, Note_off_c, 1, 38, 0
1, 198228, Note_off_c, 1, 67, 0
1, 198240, Note_on_c, 1, 65, 127
1, 198240, Note_on_c, 1, 40, 127
1, 198288, Note_off_c, 1, 65, 0
1, 198300, Note_on_c, 1, 64, 127
1, 198330, Note_off_c, 1, 40, 0
1, 198348, Note_off_c, 1, 64, 0
1, 198360, Note_on_c, 1, 65, 127
1, 198360, Note_on_c, 1, 38, 127
1, 198408, Note_off_c, 1, 65, 0
1, 198420, Note_on_c, 1, 69, 127
1, 198450, Note_off_c, 1, 38, 0
1, 198468, Note_off_c, 1, 69, 0
1, 198480, Note_on_c, 1, 67, 127
1, 198480, Note_on_c, 1, 40, 127
1, 198528, Note_off_c, 1, 67, 0
1, 198540, Note_on_c, 1, 65, 127
1, 198570, Note_off_c, 1, 40, 0
1, 198588, Note_off_c, 1, 65, 0
1, 198600, Note_on_c, 1, 64, 127
1, 198600, Note_on_c, 1, 41, 127
1, 198648, Note_off_c, 1, 64, 0
1, 198660, Note_on_c, 1, 62, 127
1, 198690, Note_off_c, 1, 41, 0
1, 198708, Note_off_c, 1, 62, 0
1, 198720, Note_on_c, 1, 61, 127
1, 198720, Note_on_c, 1, 40, 127
1, 198768, Note_off_c, 1, 61, 0
1, 198780, Note_on_c, 1, 62, 127
1, 198810, Note_off_c, 1, 40, 0
1, 198828, Note_off_c, 1, 62, 0
1, 198840, Note_on_c, 1, 64, 127
1, 198840, Note_on_c, 1, 41, 127
1, 198888, Note_off_c, 1, 64, 0
1, 198900, Note_on_c, 1, 69, 127
1, 198930, Note_off_c, 1, 41, 0
1, 198948, Note_off_c, 1, 69, 0
1, 198960, Note_on_c, 1, 61, 127
1, 198960, Note_on_c, 1, 43, 127
1, 199008, Note_off_c, 1, 61, 0
1, 199020, Note_on_c, 1, 64, 127
1, 199050, Note_off_c, 1, 43, 0
1, 199068, Note_off_c, 1, 64, 0
1, 199080, Note_on_c, 1, 62, 127
1, 199080, Note_on_c, 1, 41, 127
1, 199128, Note_off_c, 1, 62, 0
1, 199140, Note_on_c, 1, 64, 127
1, 199170, Note_off_c, 1, 41, 0
1, 199188, Note_off_c, 1, 64, 0
1, 199200, Note_on_c, 1, 65, 127
1, 199200, Note_on_c, 1, 43, 127
1, 199248, Note_off_c, 1, 65, 0
1, 199260, Note_on_c, 1, 70, 127
1, 199290, Note_off_c, 1, 43, 0
1, 199308, Note_off_c, 1, 70, 0
1, 199320, Note_on_c, 1, 62, 127
1, 199320, Note_on_c, 1, 45, 127
1, 199368, Note_off_c, 1, 62, 0
1, 199380, Note_on_c, 1, 65, 127
1, 199410, Note_off_c, 1, 45, 0
1, 199428, Note_off_c, 1, 65, 0
1, 199440, Note_on_c, 1, 64, 127
1, 199440, Note_on_c, 1, 43, 127
1, 199488, Note_off_c, 1, 64, 0
1, 199500, Note_on_c, 1, 65, 127
1, 199530, Note_off_c, 1, 43, 0
1, 199548, Note_off_c, 1, 65, 0
1, 199560, Note_on_c, 1, 67, 127
1, 199560, Note_on_c, 1, 45, 127
1, 199608, Note_off_c, 1, 67, 0
1, 199620, Note_on_c, 1, 72, 127
1, 199650, Note_off_c, 1, 45, 0
1, 199668, Note_off_c, 1, 72, 0
1, 199680, Note_on_c, 1, 64, 127
1, 199680, Note_on_c, 1, 46, 127
1, 199728, Note_off_c, 1, 64, 0
1, 199740, Note_on_c, 1, 67, 127
1, 199770, Note_off_c, 1, 46, 0
1, 199788, Note_off_c, 1, 67, 0
1, 199800, Note_on_c, 1, 65, 127
1, 199800, Note_on_c, 1, 45, 127
1, 199848, Note_off_c, 1, 65, 0
1, 199860, Note_on_c, 1, 67, 127
1, 199890, Note_off_c, 1, 45, 0
1, 199908, Note_off_c, 1, 67, 0
1, 199920, Note_on_c, 1, 69, 127
1, 199920, Note_on_c, 1, 47, 127
1, 199968, Note_off_c, 1, 69, 0
1, 199980, Note_on_c, 1, 74, 127
1, 200010, Note_off_c, 1, 47, 0
1, 200028, Note_off_c, 1, 74, 0
1, 200040, Note_on_c, 1, 66, 127
1, 200040, Note_on_c, 1, 48, 127
1, 200088, Note_off_c, 1, 66, 0
1, 200100, Note_on_c, 1, 69, 127
1, 200130, Note_off_c, 1, 48, 0
1, 200148, Note_off_c, 1, 69, 0
1, 200160, Note_on_c, 1, 67, 127
1, 200160, Note_on_c, 1, 47, 127
1, 200208, Note_off_c, 1, 67, 0
1, 200220, Note_on_c, 1, 69, 127
1, 200250, Note_off_c, 1, 47, 0
1, 200268, Note_off_c, 1, 69, 0
1, 200280, Note_on_c, 1, 71, 127
1, 200280, Note_on_c, 1, 49, 127
1, 200328, Note_off_c, 1, 71, 0
1, 200340, Note_on_c, 1, 76, 127
1, 200370, Note_off_c, 1, 49, 0
1, 200388, Note_off_c, 1, 76, 0
1, 200400, Note_on_c, 1, 68, 127
1, 200400, Note_on_c, 1, 50, 127
1, 200448, Note_off_c, 1, 68, 0
1, 200460, Note_on_c, 1, 71, 127
1, 200490, Note_off_c, 1, 50, 0
1, 200508, Note_off_c, 1, 71, 0
1, 200520, Note_on_c, 1, 69, 127
1, 200520, Note_on_c, 1, 49, 127
1, 200568, Note_off_c, 1, 69, 0
1, 200568, Note_off_c, 1, 49, 0
1, 200580, Note_on_c, 1, 71, 127
1, 200580, Note_on_c, 1, 53, 127
1, 200628, Note_off_c, 1, 71, 0
1, 200628, Note_off_c, 1, 53, 0
1, 200640, Note_on_c, 1, 73, 127
1, 200640, Note_on_c, 1, 52, 127
1, 200688, Note_off_c, 1, 73, 0
1, 200688, Note_off_c, 1, 52, 0
1, 200700, Note_on_c, 1, 74, 127
1, 200700, Note_on_c, 1, 50, 127
1, 200748, Note_off_c, 1, 74, 0
1, 200748, Note_off_c, 1, 50, 0
1, 200760, Note_on_c, 1, 76, 127
1, 200760, Note_on_c, 1, 49, 127
1, 200808, Note_off_c, 1, 76, 0
1, 200808, Note_off_c, 1, 49, 0
1, 200820, Note_on_c, 1, 77, 127
1, 200820, Note_on_c, 1, 47, 127
1, 200868, Note_off_c, 1, 77, 0
1, 200868, Note_off_c, 1, 47, 0
1, 200880, Note_on_c, 1, 79, 127
1, 200880, Note_on_c, 1, 45, 127
1, 200928, Note_off_c, 1, 79, 0
1, 200940, Note_on_c, 1, 76, 127
1, 200976, Note_off_c, 1, 45, 0
1, 200988, Note_off_c, 1, 76, 0
1, 201000, Note_on_c, 1, 73, 127
1, 201000, Note_on_c, 1, 57, 127
1, 201048, Note_off_c, 1, 73, 0
1, 201060, Note_on_c, 1, 69, 127
1, 201096, Note_off_c, 1, 57, 0
1, 201108, Note_off_c, 1, 69, 0
1, 201120, Note_on_c, 1, 73, 127
1, 201120, Note_on_c, 1, 45, 127
1, 201168, Note_off_c, 1, 73, 0
1, 201180, Note_on_c, 1, 76, 127
1, 201210, Note_off_c, 1, 45, 0
1, 201228, Note_off_c, 1, 76, 0
1, 201240, Note_on_c, 1, 77, 127
1, 201240, Note_on_c, 1, 45, 127
1, 201288, Note_off_c, 1, 77, 0
1, 201300, Note_on_c, 1, 74, 127
1, 201336, Note_off_c, 1, 45, 0
1, 201348, Note_off_c, 1, 74, 0
1, 201360, Note_on_c, 1, 71, 127
1, 201360, Note_on_c, 1, 57, 127
1, 201408, Note_off_c, 1, 71, 0
1, 201420, Note_on_c, 1, 68, 127
1, 201456, Note_off_c, 1, 57, 0
1, 201468, Note_off_c, 1, 68, 0
1, 201480, Note_on_c, 1, 71, 127
1, 201480, Note_on_c, 1, 45, 127
1, 201528, Note_off_c, 1, 71, 0
1, 201540, Note_on_c, 1, 74, 127
1, 201570, Note_off_c, 1, 45, 0
1, 201588, Note_off_c, 1, 74, 0
1, 201600, Note_on_c, 1, 76, 127
1, 201600, Note_on_c, 1, 45, 127
1, 201648, Note_off_c, 1, 76, 0
1, 201660, Note_on_c, 1, 72, 127
1, 201696, Note_off_c, 1, 45, 0
1, 201708, Note_off_c, 1, 72, 0
1, 201720, Note_on_c, 1, 70, 127
1, 201720, Note_on_c, 1, 57, 127
1, 201768, Note_off_c, 1, 70, 0
1, 201780, Note_on_c, 1, 67, 127
1, 201816, Note_off_c, 1, 57, 0
1, 201828, Note_off_c, 1, 67, 0
1, 201840, Note_on_c, 1, 70, 127
1, 201840, Note_on_c, 1, 45, 127
1, 201888, Note_off_c, 1, 70, 0
1, 201900, Note_on_c, 1, 72, 127
1, 201930, Note_off_c, 1, 45, 0
1, 201948, Note_off_c, 1, 72, 0
1, 201960, Note_on_c, 1, 74, 127
1, 201960, Note_on_c, 1, 45, 127
1, 202008, Note_off_c, 1, 74, 0
1, 202020, Note_on_c, 1, 71, 127
1, 202056, Note_off_c, 1, 45, 0
1, 202068, Note_off_c, 1, 71, 0
1, 202080, Note_on_c, 1, 68, 127
1, 202080, Note_on_c, 1, 57, 127
1, 202128, Note_off_c, 1, 68, 0
1, 202140, Note_on_c, 1, 65, 127
1, 202176, Note_off_c, 1, 57, 0
1, 202188, Note_off_c, 1, 65, 0
1, 202200, Note_on_c, 1, 68, 127
1, 202200, Note_on_c, 1, 45, 127
1, 202248, Note_off_c, 1, 68, 0
1, 202260, Note_on_c, 1, 71, 127
1, 202290, Note_off_c, 1, 45, 0
1, 202308, Note_off_c, 1, 71, 0
1, 202320, Note_on_c, 1, 73, 127
1, 202320, Note_on_c, 1, 45, 127
1, 202368, Note_off_c, 1, 73, 0
1, 202380, Note_on_c, 1, 70, 127
1, 202416, Note_off_c, 1, 45, 0
1, 202428, Note_off_c, 1, 70, 0
1, 202440, Note_on_c, 1, 67, 127
1, 202440, Note_on_c, 1, 57, 127
1, 202488, Note_off_c, 1, 67, 0
1, 202500, Note_on_c, 1, 64, 127
1, 202536, Note_off_c, 1, 57, 0
1, 202548, Note_off_c, 1, 64, 0
1, 202560, Note_on_c, 1, 67, 127
1, 202560, Note_on_c, 1, 45, 127
1, 202608, Note_off_c, 1, 67, 0
1, 202620, Note_on_c, 1, 70, 127
1, 202650, Note_off_c, 1, 45, 0
1, 202668, Note_off_c, 1, 70, 0
1, 202680, Note_on_c, 1, 73, 127
1, 202680, Note_on_c, 1, 43, 127
1, 202728, Note_off_c, 1, 73, 0
1, 202740, Note_on_c, 1, 76, 127
1, 202776, Note_off_c, 1, 43, 0
1, 202788, Note_off_c, 1, 76, 0
1, 202800, Note_on_c, 1, 74, 127
1, 202800, Note_on_c, 1, 55, 127
1, 202848, Note_off_c, 1, 74, 0
1, 202860, Note_on_c, 1, 73, 127
1, 202896, Note_off_c, 1, 55, 0
1, 202908, Note_off_c, 1, 73, 0
1, 202920, Note_on_c, 1, 71, 127
1, 202920, Note_on_c, 1, 43, 127
1, 202968, Note_off_c, 1, 71, 0
1, 202980, Note_on_c, 1, 69, 127
1, 203010, Note_off_c, 1, 43, 0
1, 203028, Note_off_c, 1, 69, 0
1, 203040, Note_on_c, 1, 74, 127
1, 203040, Note_on_c, 1, 41, 127
1, 203100, Note_on_c, 1, 49, 127
1, 203136, Note_off_c, 1, 74, 0
1, 203148, Note_off_c, 1, 49, 0
1, 203160, Note_on_c, 1, 69, 127
1, 203160, Note_on_c, 1, 50, 127
1, 203208, Note_off_c, 1, 50, 0
1, 203220, Note_on_c, 1, 53, 127
1, 203232, Note_off_c, 1, 41, 0
1, 203256, Note_off_c, 1, 69, 0
1, 203268, Note_off_c, 1, 53, 0
1, 203280, Note_on_c, 1, 65, 127
1, 203280, Note_on_c, 1, 49, 127
1, 203328, Note_off_c, 1, 49, 0
1, 203340, Note_on_c, 1, 50, 127
1, 203370, Note_off_c, 1, 65, 0
1, 203388, Note_off_c, 1, 50, 0
1, 203400, Note_on_c, 1, 62, 127
1, 203400, Note_on_c, 1, 43, 127
1, 203460, Note_on_c, 1, 49, 127
1, 203496, Note_off_c, 1, 62, 0
1, 203508, Note_off_c, 1, 49, 0
1, 203520, Note_on_c, 1, 69, 127
1, 203520, Note_on_c, 1, 50, 127
1, 203568, Note_off_c, 1, 50, 0
1, 203580, Note_on_c, 1, 53, 127
1, 203592, Note_off_c, 1, 43, 0
1, 203616, Note_off_c, 1, 69, 0
1, 203628, Note_off_c, 1, 53, 0
1, 203640, Note_on_c, 1, 65, 127
1, 203640, Note_on_c, 1, 49, 127
1, 203688, Note_off_c, 1, 49, 0
1, 203700, Note_on_c, 1, 50, 127
1, 203730, Note_off_c, 1, 65, 0
1, 203748, Note_off_c, 1, 50, 0
1, 203760, Note_on_c, 1, 62, 127
1, 203760, Note_on_c, 1, 45, 127
1, 203820, Note_on_c, 1, 49, 127
1, 203856, Note_off_c, 1, 62, 0
1, 203868, Note_off_c, 1, 49, 0
1, 203880, Note_on_c, 1, 69, 127
1, 203880, Note_on_c, 1, 50, 127
1, 203928, Note_off_c, 1, 50, 0
1, 203940, Note_on_c, 1, 53, 127
1, 203952, Note_off_c, 1, 45, 0
1, 203976, Note_off_c, 1, 69, 0
1, 203988, Note_off_c, 1, 53, 0
1, 204000, Note_on_c, 1, 65, 127
1, 204000, Note_on_c, 1, 49, 127
1, 204048, Note_off_c, 1, 49, 0
1, 204060, Note_on_c, 1, 50, 127
1, 204090, Note_off_c, 1, 65, 0
1, 204108, Note_off_c, 1, 50, 0
1, 204120, Note_on_c, 1, 62, 127
1, 204120, Note_on_c, 1, 46, 127
1, 204180, Note_on_c, 1, 49, 127
1, 204216, Note_off_c, 1, 62, 0
1, 204228, Note_off_c, 1, 49, 0
1, 204240, Note_on_c, 1, 69, 127
1, 204240, Note_on_c, 1, 50, 127
1, 204288, Note_off_c, 1, 50, 0
1, 204300, Note_on_c, 1, 53, 127
1, 204312, Note_off_c, 1, 46, 0
1, 204336, Note_off_c, 1, 69, 0
1, 204348, Note_off_c, 1, 53, 0
1, 204360, Note_on_c, 1, 65, 127
1, 204360, Note_on_c, 1, 49, 127
1, 204408, Note_off_c, 1, 49, 0
1, 204420, Note_on_c, 1, 50, 127
1, 204450, Note_off_c, 1, 65, 0
1, 204468, Note_off_c, 1, 50, 0
1, 204480, Note_on_c, 1, 62, 127
1, 204480, Note_on_c, 1, 47, 127
1, 204540, Note_on_c, 1, 49, 127
1, 204576, Note_off_c, 1, 62, 0
1, 204588, Note_off_c, 1, 49, 0
1, 204600, Note_on_c, 1, 68, 127
1, 204600, Note_on_c, 1, 50, 127
1, 204648, Note_off_c, 1, 50, 0
1, 204660, Note_on_c, 1, 53, 127
1, 204696, Note_off_c, 1, 68, 0
1, 204708, Note_off_c, 1, 53, 0
1, 204720, Note_off_c, 1, 47, 0
1, 204720, Note_on_c, 1, 65, 127
1, 204810, Note_off_c, 1, 65, 0
1, 204840, Note_on_c, 1, 62, 127
1, 204840, Note_on_c, 1, 45, 127
1, 204900, Note_on_c, 1, 49, 127
1, 204936, Note_off_c, 1, 62, 0
1, 204948, Note_off_c, 1, 49, 0
1, 204960, Note_on_c, 1, 69, 127
1, 204960, Note_on_c, 1, 50, 127
1, 205008, Note_off_c, 1, 50, 0
1, 205020, Note_on_c, 1, 53, 127
1, 205056, Note_off_c, 1, 69, 0
1, 205065, Note_off_c, 1, 45, 0
1, 205068, Note_off_c, 1, 53, 0
1, 205080, Note_on_c, 1, 65, 127
1, 205080, Note_on_c, 1, 49, 127
1, 205128, Note_off_c, 1, 49, 0
1, 205140, Note_on_c, 1, 50, 127
1, 205170, Note_off_c, 1, 65, 0
1, 205188, Note_off_c, 1, 50, 0
1, 205200, Note_on_c, 1, 62, 127
1, 205200, Note_on_c, 1, 44, 127
1, 205248, Note_off_c, 1, 62, 0
1, 205260, Note_on_c, 1, 64, 127
1, 205308, Note_off_c, 1, 64, 0
1, 205320, Note_on_c, 1, 65, 127
1, 205368, Note_off_c, 1, 65, 0
1, 205380, Note_on_c, 1, 71, 127
1, 205428, Note_off_c, 1, 71, 0
1, 205488, Note_off_c, 1, 44, 0
1, 205500, Note_on_c, 1, 64, 127
1, 205548, Note_off_c, 1, 64, 0
1, 205560, Note_on_c, 1, 62, 127
1, 205608, Note_off_c, 1, 62, 0
1, 205620, Note_on_c, 1, 64, 127
1, 205668, Note_off_c, 1, 64, 0
1, 205680, Note_on_c, 1, 65, 127
1, 205728, Note_off_c, 1, 65, 0
1, 205740, Note_on_c, 1, 71, 127
1, 205788, Note_off_c, 1, 71, 0
1, 205800, Note_on_c, 1, 64, 127
1, 205848, Note_off_c, 1, 64, 0
1, 205860, Note_on_c, 1, 62, 127
1, 205908, Note_off_c, 1, 62, 0
1, 205920, Note_on_c, 1, 61, 127
1, 205920, Note_on_c, 1, 43, 127
1, 205968, Note_off_c, 1, 61, 0
1, 205980, Note_on_c, 1, 64, 127
1, 206028, Note_off_c, 1, 64, 0
1, 206040, Note_on_c, 1, 67, 127
1, 206088, Note_off_c, 1, 67, 0
1, 206100, Note_on_c, 1, 70, 127
1, 206148, Note_off_c, 1, 70, 0
1, 206160, Note_on_c, 1, 69, 127
1, 206208, Note_off_c, 1, 43, 0
1, 206208, Note_off_c, 1, 69, 0
1, 206220, Note_on_c, 1, 67, 127
1, 206268, Note_off_c, 1, 67, 0
1, 206280, Note_on_c, 1, 69, 127
1, 206280, Note_on_c, 1, 41, 127
1, 206328, Note_off_c, 1, 69, 0
1, 206328, Note_off_c, 1, 41, 0
1, 206340, Note_on_c, 1, 67, 127
1, 206340, Note_on_c, 1, 45, 127
1, 206388, Note_off_c, 1, 67, 0
1, 206388, Note_off_c, 1, 45, 0
1, 206400, Note_on_c, 1, 65, 127
1, 206400, Note_on_c, 1, 47, 127
1, 206448, Note_off_c, 1, 65, 0
1, 206448, Note_off_c, 1, 47, 0
1, 206460, Note_on_c, 1, 64, 127
1, 206460, Note_on_c, 1, 49, 127
1, 206508, Note_off_c, 1, 64, 0
1, 206508, Note_off_c, 1, 49, 0
1, 206520, Note_on_c, 1, 62, 127
1, 206520, Note_on_c, 1, 50, 127
1, 206568, Note_off_c, 1, 62, 0
1, 206568, Note_off_c, 1, 50, 0
1, 206580, Note_on_c, 1, 60, 127
1, 206580, Note_on_c, 1, 52, 127
1, 206628, Note_off_c, 1, 60, 0
1, 206628, Note_off_c, 1, 52, 0
1, 206640, Note_on_c, 1, 59, 127
1, 206640, Note_on_c, 1, 53, 127
1, 206688, Note_off_c, 1, 59, 0
1, 206700, Note_on_c, 1, 57, 127
1, 206730, Note_off_c, 1, 53, 0
1, 206748, Note_off_c, 1, 57, 0
1, 206760, Note_on_c, 1, 59, 127
1, 206760, Note_on_c, 1, 52, 127
1, 206808, Note_off_c, 1, 59, 0
1, 206820, Note_on_c, 1, 61, 127
1, 206850, Note_off_c, 1, 52, 0
1, 206868, Note_off_c, 1, 61, 0
1, 206880, Note_on_c, 1, 62, 127
1, 206880, Note_on_c, 1, 50, 127
1, 206928, Note_off_c, 1, 62, 0
1, 206940, Note_on_c, 1, 64, 127
1, 206970, Note_off_c, 1, 50, 0
1, 206988, Note_off_c, 1, 64, 0
1, 207000, Note_on_c, 1, 61, 127
1, 207000, Note_on_c, 1, 52, 127
1, 207048, Note_off_c, 1, 61, 0
1, 207060, Note_on_c, 1, 59, 127
1, 207090, Note_off_c, 1, 52, 0
1, 207108, Note_off_c, 1, 59, 0
1, 207120, Note_on_c, 1, 61, 127
1, 207120, Note_on_c, 1, 50, 127
1, 207168, Note_off_c, 1, 61, 0
1, 207180, Note_on_c, 1, 62, 127
1, 207210, Note_off_c, 1, 50, 0
1, 207228, Note_off_c, 1, 62, 0
1, 207240, Note_on_c, 1, 64, 127
1, 207240, Note_on_c, 1, 49, 127
1, 207288, Note_off_c, 1, 64, 0
1, 207300, Note_on_c, 1, 57, 127
1, 207330, Note_off_c, 1, 49, 0
1, 207348, Note_off_c, 1, 57, 0
1, 207360, Note_on_c, 1, 50, 127
1, 207360, Note_on_c, 1, 53, 127
1, 207420, Note_on_c, 1, 69, 127
1, 207468, Note_off_c, 1, 69, 0
1, 207480, Note_on_c, 1, 71, 127
1, 207528, Note_off_c, 1, 71, 0
1, 207540, Note_on_c, 1, 73, 127
1, 207552, Note_off_c, 1, 50, 0
1, 207552, Note_off_c, 1, 53, 0
1, 207588, Note_off_c, 1, 73, 0
1, 207600, Note_on_c, 1, 74, 127
1, 207600, Note_on_c, 1, 48, 127
1, 207600, Note_on_c, 1, 52, 127
1, 207648, Note_off_c, 1, 74, 0
1, 207660, Note_on_c, 1, 76, 127
1, 207696, Note_off_c, 1, 48, 0
1, 207696, Note_off_c, 1, 52, 0
1, 207708, Note_off_c, 1, 76, 0
1, 207720, Note_on_c, 1, 77, 127
1, 207720, Note_on_c, 1, 50, 127
1, 207720, Note_on_c, 1, 46, 127
1, 207810, Note_off_c, 1, 77, 0
1, 207810, Note_off_c, 1, 50, 0
1, 207840, Note_on_c, 1, 76, 127
1, 207840, Note_on_c, 1, 52, 127
1, 207912, Note_off_c, 1, 46, 0
1, 207930, Note_off_c, 1, 76, 0
1, 207930, Note_off_c, 1, 52, 0
1, 207960, Note_on_c, 1, 74, 127
1, 207960, Note_on_c, 1, 53, 127
1, 207960, Note_on_c, 1, 45, 127
1, 208050, Note_off_c, 1, 53, 0
1, 208056, Note_off_c, 1, 74, 0
1, 208056, Note_off_c, 1, 45, 0
1, 208080, Note_on_c, 1, 76, 127
1, 208080, Note_on_c, 1, 55, 127
1, 208080, Note_on_c, 1, 43, 127
1, 208170, Note_off_c, 1, 55, 0
1, 208176, Note_off_c, 1, 76, 0
1, 208200, Note_on_c, 1, 77, 127
1, 208200, Note_on_c, 1, 53, 127
1, 208248, Note_off_c, 1, 77, 0
1, 208272, Note_off_c, 1, 43, 0
1, 208290, Note_off_c, 1, 53, 0
1, 208320, Note_on_c, 1, 74, 127
1, 208320, Note_on_c, 1, 52, 127
1, 208320, Note_on_c, 1, 45, 127
1, 208368, Note_off_c, 1, 74, 0
1, 208380, Note_on_c, 1, 73, 127
1, 208410, Note_off_c, 1, 52, 0
1, 208416, Note_off_c, 1, 45, 0
1, 208428, Note_off_c, 1, 73, 0
1, 208440, Note_on_c, 1, 81, 127
1, 208440, Note_on_c, 1, 41, 127
1, 208440, Note_on_c, 1, 50, 127
1, 208488, Note_off_c, 1, 81, 0
1, 208500, Note_on_c, 1, 79, 127
1, 208548, Note_off_c, 1, 79, 0
1, 208560, Note_on_c, 1, 77, 127
1, 208608, Note_off_c, 1, 77, 0
1, 208620, Note_on_c, 1, 76, 127
1, 208668, Note_off_c, 1, 76, 0
1, 208680, Note_on_c, 1, 74, 127
1, 208728, Note_off_c, 1, 41, 0
1, 208728, Note_off_c, 1, 50, 0
1, 208728, Note_off_c, 1, 74, 0
1, 208740, Note_on_c, 1, 73, 127
1, 208788, Note_off_c, 1, 73, 0
1, 208800, Note_on_c, 1, 74, 127
1, 208848, Note_off_c, 1, 74, 0
1, 208860, Note_on_c, 1, 76, 127
1, 208908, Note_off_c, 1, 76, 0
1, 208920, Note_on_c, 1, 74, 127
1, 208968, Note_off_c, 1, 74, 0
1, 208980, Note_on_c, 1, 76, 127
1, 209028, Note_off_c, 1, 76, 0
1, 209040, Note_on_c, 1, 70, 127
1, 209040, Note_on_c, 1, 77, 127
1, 209040, Note_on_c, 1, 50, 127
1, 209040, Note_on_c, 1, 43, 127
1, 209088, Note_off_c, 1, 50, 0
1, 209100, Note_on_c, 1, 52, 127
1, 209136, Note_off_c, 1, 70, 0
1, 209136, Note_off_c, 1, 77, 0
1, 209136, Note_off_c, 1, 43, 0
1, 209148, Note_off_c, 1, 52, 0
1, 209160, Note_on_c, 1, 69, 127
1, 209160, Note_on_c, 1, 53, 127
1, 209160, Note_on_c, 1, 45, 127
1, 209280, Note_on_c, 1, 74, 127
1, 209352, Note_off_c, 1, 69, 0
1, 209352, Note_off_c, 1, 53, 0
1, 209352, Note_off_c, 1, 45, 0
1, 209376, Note_off_c, 1, 74, 0
1, 209400, Note_on_c, 1, 73, 127
1, 209400, Note_on_c, 1, 67, 127
1, 209400, Note_on_c, 1, 52, 127
1, 209400, Note_on_c, 1, 45, 127
1, 209490, Note_off_c, 1, 73, 0
1, 209496, Note_off_c, 1, 67, 0
1, 209496, Note_off_c, 1, 52, 0
1, 209513, Note_off_c, 1, 45, 0
1, 209520, Note_on_c, 1, 65, 127
1, 209520, Note_on_c, 1, 74, 127
1, 209520, Note_on_c, 1, 50, 127
1, 209520, Note_on_c, 1, 38, 127
1, 209808, Note_off_c, 1, 65, 0
1, 209808, Note_off_c, 1, 74, 0
1, 209808, Note_off_c, 1, 50, 0
1, 209880, Note_off_c, 1, 38, 0
1, 209880, End_track
0, 0, End_of_file