0, 0, Header, 1, 1, 480
1, 0, Start_track
1, 0, Title_t, "Test"
1, 0, Tempo, 500000
1, 0, Instrument_name_t, "Church Organ"
1, 0, Note_on_c, 1, 79, 127
1, 0, Note_on_c, 1, 43, 127
1, 192, Note_off_c, 1, 79, 0
1, 192, Note_off_c, 1, 43, 0
1, 240, Note_on_c, 1, 82, 127
1, 240, Note_on_c, 1, 50, 127
1, 336, Note_off_c, 1, 82, 0
1, 360, Note_on_c, 1, 81, 127
1, 432, Note_off_c, 1, 50, 0
1, 456, Note_off_c, 1, 81, 0
1, 480, Note_on_c, 1, 82, 127
1, 480, Note_on_c, 1, 55, 127
1, 672, Note_off_c, 1, 82, 0
1, 672, Note_off_c, 1, 55, 0
1, 720, Note_on_c, 1, 79, 127
1, 720, Note_on_c, 1, 58, 127
1, 816, Note_off_c, 1, 79, 0
1, 840, Note_on_c, 1, 74, 127
1, 912, Note_off_c, 1, 58, 0
1, 936, Note_off_c, 1, 74, 0
1, 960, Note_on_c, 1, 81, 127
1, 960, Note_on_c, 1, 60, 127
1, 1152, Note_off_c, 1, 81, 0
1, 1152, Note_off_c, 1, 60, 0
1, 1200, Note_on_c, 1, 78, 127
1, 1200, Note_on_c, 1, 62, 127
1, 1296, Note_off_c, 1, 78, 0
1, 1320, Note_on_c, 1, 74, 127
1, 1392, Note_off_c, 1, 62, 0
1, 1416, Note_off_c, 1, 74, 0
1, 1440, Note_on_c, 1, 79, 127
1, 1440, Note_on_c, 1, 63, 127
1, 1536, Note_off_c, 1, 63, 0
1, 1560, Note_on_c, 1, 65, 127
1, 1656, Note_off_c, 1, 65, 0
1, 1800, Note_on_c, 1, 62, 127
1, 1824, Note_off_c, 1, 79, 0
1, 1896, Note_off_c, 1, 62, 0
1, 1920, Note_on_c, 1, 75, 127
1, 1920, Note_on_c, 1, 60, 127
1, 2016, Note_off_c, 1, 60, 0
1, 2040, Note_on_c, 1, 58, 127
1, 2112, Note_off_c, 1, 75, 0
1, 2136, Note_off_c, 1, 58, 0
1, 2160, Note_on_c, 1, 72, 127
1, 2160, Note_on_c, 1, 57, 127
1, 2256, Note_off_c, 1, 72, 0
1, 2256, Note_off_c, 1, 57, 0
1, 2280, Note_on_c, 1, 69, 127
1, 2280, Note_on_c, 1, 60, 127
1, 2376, Note_off_c, 1, 69, 0
1, 2376, Note_off_c, 1, 60, 0
1, 2400, Note_on_c, 1, 74, 127
1, 2400, Note_on_c, 1, 58, 127
1, 2496, Note_off_c, 1, 58, 0
1, 2520, Note_on_c, 1, 57, 127
1, 2592, Note_off_c, 1, 74, 0
1, 2616, Note_off_c, 1, 57, 0
1, 2640, Note_on_c, 1, 70, 127
1, 2640, Note_on_c, 1, 55, 127
1, 2736, Note_off_c, 1, 70, 0
1, 2736, Note_off_c, 1, 55, 0
1, 2760, Note_on_c, 1, 67, 127
1, 2760, Note_on_c, 1, 58, 127
1, 2856, Note_off_c, 1, 67, 0
1, 2856, Note_off_c, 1, 58, 0
1, 2880, Note_on_c, 1, 72, 127
1, 2880, Note_on_c, 1, 57, 127
1, 2976, Note_off_c, 1, 72, 0
1, 2976, Note_off_c, 1, 57, 0
1, 3000, Note_on_c, 1, 69, 127
1, 3000, Note_on_c, 1, 55, 127
1, 3096, Note_off_c, 1, 69, 0
1, 3096, Note_off_c, 1, 55, 0
1, 3120, Note_on_c, 1, 74, 127
1, 3120, Note_on_c, 1, 54, 127
1, 3216, Note_off_c, 1, 54, 0
1, 3240, Note_on_c, 1, 50, 127
1, 3312, Note_off_c, 1, 74, 0
1, 3336, Note_off_c, 1, 50, 0
1, 3360, Note_on_c, 1, 70, 127
1, 3360, Note_on_c, 1, 55, 127
1, 3552, Note_off_c, 1, 70, 0
1, 3552, Note_off_c, 1, 55, 0
1, 3600, Note_on_c, 1, 69, 127
1, 3600, Note_on_c, 1, 50, 127
1, 3696, Note_off_c, 1, 69, 0
1, 3720, Note_on_c, 1, 67, 127
1, 3792, Note_off_c, 1, 50, 0
1, 3816, Note_off_c, 1, 67, 0
1, 3840, Note_on_c, 1, 79, 127
1, 3840, Note_on_c, 1, 46, 127
1, 4032, Note_off_c, 1, 79, 0
1, 4032, Note_off_c, 1, 46, 0
1, 4080, Note_on_c, 1, 82, 127
1, 4080, Note_on_c, 1, 50, 127
1, 4176, Note_off_c, 1, 82, 0
1, 4200, Note_on_c, 1, 81, 127
1, 4272, Note_off_c, 1, 50, 0
1, 4296, Note_off_c, 1, 81, 0
1, 4320, Note_on_c, 1, 82, 127
1, 4320, Note_on_c, 1, 55, 127
1, 4512, Note_off_c, 1, 82, 0
1, 4512, Note_off_c, 1, 55, 0
1, 4560, Note_on_c, 1, 79, 127
1, 4560, Note_on_c, 1, 58, 127
1, 4656, Note_off_c, 1, 79, 0
1, 4680, Note_on_c, 1, 74, 127
1, 4752, Note_off_c, 1, 58, 0
1, 4776, Note_off_c, 1, 74, 0
1, 4800, Note_on_c, 1, 81, 127
1, 4800, Note_on_c, 1, 60, 127
1, 4992, Note_off_c, 1, 81, 0
1, 4992, Note_off_c, 1, 60, 0
1, 5040, Note_on_c, 1, 78, 127
1, 5040, Note_on_c, 1, 62, 127
1, 5136, Note_off_c, 1, 78, 0
1, 5160, Note_on_c, 1, 74, 127
1, 5232, Note_off_c, 1, 62, 0
1, 5256, Note_off_c, 1, 74, 0
1, 5280, Note_on_c, 1, 79, 127
1, 5280, Note_on_c, 1, 63, 127
1, 5376, Note_off_c, 1, 63, 0
1, 5400, Note_on_c, 1, 65, 127
1, 5496, Note_off_c, 1, 65, 0
1, 5568, Note_off_c, 1, 79, 0
1, 5640, Note_on_c, 1, 77, 127
1, 5640, Note_on_c, 1, 62, 127
1, 5736, Note_off_c, 1, 77, 0
1, 5736, Note_off_c, 1, 62, 0
1, 5760, Note_on_c, 1, 75, 127
1, 5760, Note_on_c, 1, 60, 127
1, 5856, Note_off_c, 1, 75, 0
1, 5856, Note_off_c, 1, 60, 0
1, 5880, Note_on_c, 1, 74, 127
1, 5880, Note_on_c, 1, 58, 127
1, 5976, Note_off_c, 1, 74, 0
1, 5976, Note_off_c, 1, 58, 0
1, 6000, Note_on_c, 1, 72, 127
1, 6000, Note_on_c, 1, 57, 127
1, 6096, Note_off_c, 1, 72, 0
1, 6096, Note_off_c, 1, 57, 0
1, 6120, Note_on_c, 1, 70, 127
1, 6120, Note_on_c, 1, 55, 127
1, 6216, Note_off_c, 1, 70, 0
1, 6216, Note_off_c, 1, 55, 0
1, 6240, Note_on_c, 1, 81, 127
1, 6240, Note_on_c, 1, 53, 127
1, 6336, Note_off_c, 1, 81, 0
1, 6360, Note_on_c, 1, 82, 127
1, 6432, Note_off_c, 1, 53, 0
1, 6456, Note_off_c, 1, 82, 0
1, 6480, Note_on_c, 1, 74, 127
1, 6480, Note_on_c, 1, 55, 127
1, 6576, Note_off_c, 1, 74, 0
1, 6600, Note_on_c, 1, 75, 127
1, 6672, Note_off_c, 1, 55, 0
1, 6696, Note_off_c, 1, 75, 0
1, 6720, Note_on_c, 1, 77, 127
1, 6720, Note_on_c, 1, 51, 127
1, 6816, Note_off_c, 1, 77, 0
1, 6840, Note_on_c, 1, 72, 127
1, 6912, Note_off_c, 1, 51, 0
1, 6936, Note_off_c, 1, 72, 0
1, 6960, Note_on_c, 1, 74, 127
1, 6960, Note_on_c, 1, 53, 127
1, 7152, Note_off_c, 1, 74, 0
1, 7152, Note_off_c, 1, 53, 0
1, 7200, Note_on_c, 1, 72, 127
1, 7200, Note_on_c, 1, 46, 127
1, 7296, Note_off_c, 1, 46, 0
1, 7320, Note_on_c, 1, 48, 127
1, 7416, Note_off_c, 1, 48, 0
1, 7440, Note_off_c, 1, 72, 0
1, 7440, Note_on_c, 1, 70, 127
1, 7560, Note_on_c, 1, 45, 127
1, 7656, Note_off_c, 1, 45, 0
1, 7665, Note_off_c, 1, 70, 0
1, 7680, Note_on_c, 1, 79, 127
1, 7680, Note_on_c, 1, 43, 127
1, 7872, Note_off_c, 1, 79, 0
1, 7872, Note_off_c, 1, 43, 0
1, 7920, Note_on_c, 1, 82, 127
1, 7920, Note_on_c, 1, 50, 127
1, 8016, Note_off_c, 1, 82, 0
1, 8040, Note_on_c, 1, 81, 127
1, 8112, Note_off_c, 1, 50, 0
1, 8136, Note_off_c, 1, 81, 0
1, 8160, Note_on_c, 1, 82, 127
1, 8160, Note_on_c, 1, 55, 127
1, 8352, Note_off_c, 1, 82, 0
1, 8352, Note_off_c, 1, 55, 0
1, 8400, Note_on_c, 1, 79, 127
1, 8400, Note_on_c, 1, 58, 127
1, 8496, Note_off_c, 1, 79, 0
1, 8520, Note_on_c, 1, 74, 127
1, 8592, Note_off_c, 1, 58, 0
1, 8616, Note_off_c, 1, 74, 0
1, 8640, Note_on_c, 1, 81, 127
1, 8640, Note_on_c, 1, 60, 127
1, 8832, Note_off_c, 1, 81, 0
1, 8832, Note_off_c, 1, 60, 0
1, 8880, Note_on_c, 1, 78, 127
1, 8880, Note_on_c, 1, 62, 127
1, 8976, Note_off_c, 1, 78, 0
1, 9000, Note_on_c, 1, 74, 127
1, 9072, Note_off_c, 1, 62, 0
1, 9096, Note_off_c, 1, 74, 0
1, 9120, Note_on_c, 1, 79, 127
1, 9120, Note_on_c, 1, 63, 127
1, 9216, Note_off_c, 1, 63, 0
1, 9240, Note_on_c, 1, 65, 127
1, 9336, Note_off_c, 1, 65, 0
1, 9480, Note_on_c, 1, 62, 127
1, 9504, Note_off_c, 1, 79, 0
1, 9576, Note_off_c, 1, 62, 0
1, 9600, Note_on_c, 1, 75, 127
1, 9600, Note_on_c, 1, 60, 127
1, 9696, Note_off_c, 1, 60, 0
1, 9720, Note_on_c, 1, 58, 127
1, 9792, Note_off_c, 1, 75, 0
1, 9816, Note_off_c, 1, 58, 0
1, 9840, Note_on_c, 1, 72, 127
1, 9840, Note_on_c, 1, 57, 127
1, 9936, Note_off_c, 1, 72, 0
1, 9936, Note_off_c, 1, 57, 0
1, 9960, Note_on_c, 1, 69, 127
1, 9960, Note_on_c, 1, 60, 127
1, 10056, Note_off_c, 1, 69, 0
1, 10056, Note_off_c, 1, 60, 0
1, 10080, Note_on_c, 1, 74, 127
1, 10080, Note_on_c, 1, 58, 127
1, 10176, Note_off_c, 1, 58, 0
1, 10200, Note_on_c, 1, 57, 127
1, 10272, Note_off_c, 1, 74, 0
1, 10296, Note_off_c, 1, 57, 0
1, 10320, Note_on_c, 1, 70, 127
1, 10320, Note_on_c, 1, 55, 127
1, 10416, Note_off_c, 1, 70, 0
1, 10416, Note_off_c, 1, 55, 0
1, 10440, Note_on_c, 1, 67, 127
1, 10440, Note_on_c, 1, 58, 127
1, 10536, Note_off_c, 1, 67, 0
1, 10536, Note_off_c, 1, 58, 0
1, 10560, Note_on_c, 1, 72, 127
1, 10560, Note_on_c, 1, 57, 127
1, 10656, Note_off_c, 1, 72, 0
1, 10656, Note_off_c, 1, 57, 0
1, 10680, Note_on_c, 1, 69, 127
1, 10680, Note_on_c, 1, 55, 127
1, 10776, Note_off_c, 1, 69, 0
1, 10776, Note_off_c, 1, 55, 0
1, 10800, Note_on_c, 1, 74, 127
1, 10800, Note_on_c, 1, 54, 127
1, 10896, Note_off_c, 1, 54, 0
1, 10920, Note_on_c, 1, 50, 127
1, 10992, Note_off_c, 1, 74, 0
1, 11016, Note_off_c, 1, 50, 0
1, 11040, Note_on_c, 1, 70, 127
1, 11040, Note_on_c, 1, 55, 127
1, 11232, Note_off_c, 1, 70, 0
1, 11232, Note_off_c, 1, 55, 0
1, 11280, Note_on_c, 1, 69, 127
1, 11280, Note_on_c, 1, 50, 127
1, 11376, Note_off_c, 1, 69, 0
1, 11400, Note_on_c, 1, 67, 127
1, 11472, Note_off_c, 1, 50, 0
1, 11496, Note_off_c, 1, 67, 0
1, 11520, Note_on_c, 1, 79, 127
1, 11520, Note_on_c, 1, 46, 127
1, 11712, Note_off_c, 1, 79, 0
1, 11712, Note_off_c, 1, 46, 0
1, 11760, Note_on_c, 1, 82, 127
1, 11760, Note_on_c, 1, 50, 127
1, 11856, Note_off_c, 1, 82, 0
1, 11880, Note_on_c, 1, 81, 127
1, 11952, Note_off_c, 1, 50, 0
1, 11976, Note_off_c, 1, 81, 0
1, 12000, Note_on_c, 1, 82, 127
1, 12000, Note_on_c, 1, 55, 127
1, 12192, Note_off_c, 1, 82, 0
1, 12192, Note_off_c, 1, 55, 0
1, 12240, Note_on_c, 1, 79, 127
1, 12240, Note_on_c, 1, 58, 127
1, 12336, Note_off_c, 1, 79, 0
1, 12360, Note_on_c, 1, 74, 127
1, 12432, Note_off_c, 1, 58, 0
1, 12456, Note_off_c, 1, 74, 0
1, 12480, Note_on_c, 1, 81, 127
1, 12480, Note_on_c, 1, 60, 127
1, 12672, Note_off_c, 1, 81, 0
1, 12672, Note_off_c, 1, 60, 0
1, 12720, Note_on_c, 1, 78, 127
1, 12720, Note_on_c, 1, 62, 127
1, 12816, Note_off_c, 1, 78, 0
1, 12840, Note_on_c, 1, 74, 127
1, 12912, Note_off_c, 1, 62, 0
1, 12936, Note_off_c, 1, 74, 0
1, 12960, Note_on_c, 1, 79, 127
1, 12960, Note_on_c, 1, 63, 127
1, 13056, Note_off_c, 1, 63, 0
1, 13080, Note_on_c, 1, 65, 127
1, 13176, Note_off_c, 1, 65, 0
1, 13248, Note_off_c, 1, 79, 0
1, 13320, Note_on_c, 1, 77, 127
1, 13320, Note_on_c, 1, 62, 127
1, 13416, Note_off_c, 1, 77, 0
1, 13416, Note_off_c, 1, 62, 0
1, 13440, Note_on_c, 1, 75, 127
1, 13440, Note_on_c, 1, 60, 127
1, 13536, Note_off_c, 1, 75, 0
1, 13536, Note_off_c, 1, 60, 0
1, 13560, Note_on_c, 1, 74, 127
1, 13560, Note_on_c, 1, 58, 127
1, 13656, Note_off_c, 1, 74, 0
1, 13656, Note_off_c, 1, 58, 0
1, 13680, Note_on_c, 1, 72, 127
1, 13680, Note_on_c, 1, 57, 127
1, 13776, Note_off_c, 1, 72, 0
1, 13776, Note_off_c, 1, 57, 0
1, 13800, Note_on_c, 1, 70, 127
1, 13800, Note_on_c, 1, 55, 127
1, 13896, Note_off_c, 1, 70, 0
1, 13896, Note_off_c, 1, 55, 0
1, 13920, Note_on_c, 1, 81, 127
1, 13920, Note_on_c, 1, 53, 127
1, 14016, Note_off_c, 1, 81, 0
1, 14040, Note_on_c, 1, 82, 127
1, 14112, Note_off_c, 1, 53, 0
1, 14136, Note_off_c, 1, 82, 0
1, 14160, Note_on_c, 1, 74, 127
1, 14160, Note_on_c, 1, 55, 127
1, 14256, Note_off_c, 1, 74, 0
1, 14280, Note_on_c, 1, 75, 127
1, 14352, Note_off_c, 1, 55, 0
1, 14376, Note_off_c, 1, 75, 0
1, 14400, Note_on_c, 1, 77, 127
1, 14400, Note_on_c, 1, 51, 127
1, 14496, Note_off_c, 1, 77, 0
1, 14520, Note_on_c, 1, 72, 127
1, 14592, Note_off_c, 1, 51, 0
1, 14616, Note_off_c, 1, 72, 0
1, 14640, Note_on_c, 1, 74, 127
1, 14640, Note_on_c, 1, 53, 127
1, 14832, Note_off_c, 1, 74, 0
1, 14832, Note_off_c, 1, 53, 0
1, 14880, Note_on_c, 1, 72, 127
1, 14880, Note_on_c, 1, 46, 127
1, 14976, Note_off_c, 1, 46, 0
1, 15000, Note_on_c, 1, 53, 127
1, 15096, Note_off_c, 1, 53, 0
1, 15105, Note_off_c, 1, 72, 0
1, 15120, Note_on_c, 1, 70, 127
1, 15120, Note_on_c, 1, 55, 127
1, 15216, Note_off_c, 1, 55, 0
1, 15240, Note_on_c, 1, 57, 127
1, 15336, Note_off_c, 1, 57, 0
1, 15345, Note_off_c, 1, 70, 0
1, 15360, Note_on_c, 1, 74, 127
1, 15360, Note_on_c, 1, 58, 127
1, 15552, Note_off_c, 1, 74, 0
1, 15552, Note_off_c, 1, 58, 0
1, 15600, Note_on_c, 1, 77, 127
1, 15600, Note_on_c, 1, 60, 127
1, 15696, Note_off_c, 1, 77, 0
1, 15720, Note_on_c, 1, 75, 127
1, 15792, Note_off_c, 1, 60, 0
1, 15816, Note_off_c, 1, 75, 0
1, 15840, Note_on_c, 1, 77, 127
1, 15840, Note_on_c, 1, 62, 127
1, 16032, Note_off_c, 1, 77, 0
1, 16032, Note_off_c, 1, 62, 0
1, 16080, Note_on_c, 1, 74, 127
1, 16080, Note_on_c, 1, 58, 127
1, 16193, Note_off_c, 1, 74, 0
1, 16200, Note_on_c, 1, 70, 127
1, 16272, Note_off_c, 1, 58, 0
1, 16313, Note_off_c, 1, 70, 0
1, 16320, Note_on_c, 1, 79, 127
1, 16320, Note_on_c, 1, 63, 127
1, 16512, Note_off_c, 1, 63, 0
1, 16545, Note_off_c, 1, 79, 0
1, 16560, Note_on_c, 1, 75, 127
1, 16560, Note_on_c, 1, 60, 127
1, 16656, Note_off_c, 1, 75, 0
1, 16680, Note_on_c, 1, 70, 127
1, 16752, Note_off_c, 1, 60, 0
1, 16776, Note_off_c, 1, 70, 0
1, 16800, Note_on_c, 1, 77, 127
1, 16800, Note_on_c, 1, 62, 127
1, 16896, Note_off_c, 1, 62, 0
1, 16920, Note_on_c, 1, 60, 127
1, 17016, Note_off_c, 1, 60, 0
1, 17040, Note_on_c, 1, 58, 127
1, 17136, Note_off_c, 1, 58, 0
1, 17160, Note_on_c, 1, 57, 127
1, 17184, Note_off_c, 1, 77, 0
1, 17256, Note_off_c, 1, 57, 0
1, 17280, Note_on_c, 1, 82, 127
1, 17280, Note_on_c, 1, 55, 127
1, 17376, Note_off_c, 1, 82, 0
1, 17400, Note_on_c, 1, 81, 127
1, 17472, Note_off_c, 1, 55, 0
1, 17496, Note_off_c, 1, 81, 0
1, 17520, Note_on_c, 1, 79, 127
1, 17520, Note_on_c, 1, 53, 127
1, 17616, Note_off_c, 1, 79, 0
1, 17640, Note_on_c, 1, 81, 127
1, 17712, Note_off_c, 1, 53, 0
1, 17736, Note_off_c, 1, 81, 0
1, 17760, Note_on_c, 1, 82, 127
1, 17760, Note_on_c, 1, 52, 127
1, 17856, Note_off_c, 1, 82, 0
1, 17880, Note_on_c, 1, 79, 127
1, 17952, Note_off_c, 1, 52, 0
1, 17976, Note_off_c, 1, 79, 0
1, 18000, Note_on_c, 1, 76, 127
1, 18000, Note_on_c, 1, 48, 127
1, 18096, Note_off_c, 1, 76, 0
1, 18120, Note_on_c, 1, 72, 127
1, 18192, Note_off_c, 1, 48, 0
1, 18216, Note_off_c, 1, 72, 0
1, 18240, Note_on_c, 1, 82, 127
1, 18240, Note_on_c, 1, 50, 127
1, 18336, Note_off_c, 1, 82, 0
1, 18360, Note_on_c, 1, 81, 127
1, 18432, Note_off_c, 1, 50, 0
1, 18456, Note_off_c, 1, 81, 0
1, 18480, Note_on_c, 1, 79, 127
1, 18480, Note_on_c, 1, 52, 127
1, 18576, Note_off_c, 1, 79, 0
1, 18600, Note_on_c, 1, 81, 127
1, 18672, Note_off_c, 1, 52, 0
1, 18696, Note_off_c, 1, 81, 0
1, 18720, Note_on_c, 1, 82, 127
1, 18720, Note_on_c, 1, 53, 127
1, 18816, Note_off_c, 1, 82, 0
1, 18840, Note_on_c, 1, 81, 127
1, 18912, Note_off_c, 1, 53, 0
1, 18936, Note_off_c, 1, 81, 0
1, 18960, Note_on_c, 1, 79, 127
1, 18960, Note_on_c, 1, 55, 127
1, 19056, Note_off_c, 1, 79, 0
1, 19056, Note_off_c, 1, 55, 0
1, 19080, Note_on_c, 1, 77, 127
1, 19080, Note_on_c, 1, 57, 127
1, 19176, Note_off_c, 1, 77, 0
1, 19176, Note_off_c, 1, 57, 0
1, 19200, Note_on_c, 1, 79, 127
1, 19200, Note_on_c, 1, 58, 127
1, 19296, Note_off_c, 1, 79, 0
1, 19320, Note_on_c, 1, 77, 127
1, 19392, Note_off_c, 1, 58, 0
1, 19416, Note_off_c, 1, 77, 0
1, 19440, Note_on_c, 1, 76, 127
1, 19440, Note_on_c, 1, 55, 127
1, 19536, Note_off_c, 1, 76, 0
1, 19560, Note_on_c, 1, 77, 127
1, 19632, Note_off_c, 1, 55, 0
1, 19656, Note_off_c, 1, 77, 0
1, 19680, Note_on_c, 1, 79, 127
1, 19680, Note_on_c, 1, 52, 127
1, 19776, Note_off_c, 1, 79, 0
1, 19800, Note_on_c, 1, 76, 127
1, 19872, Note_off_c, 1, 52, 0
1, 19896, Note_off_c, 1, 76, 0
1, 19920, Note_on_c, 1, 73, 127
1, 19920, Note_on_c, 1, 45, 127
1, 20016, Note_off_c, 1, 73, 0
1, 20040, Note_on_c, 1, 69, 127
1, 20112, Note_off_c, 1, 45, 0
1, 20136, Note_off_c, 1, 69, 0
1, 20160, Note_on_c, 1, 79, 127
1, 20160, Note_on_c, 1, 47, 127
1, 20256, Note_off_c, 1, 79, 0
1, 20280, Note_on_c, 1, 77, 127
1, 20352, Note_off_c, 1, 47, 0
1, 20376, Note_off_c, 1, 77, 0
1, 20400, Note_on_c, 1, 76, 127
1, 20400, Note_on_c, 1, 49, 127
1, 20496, Note_off_c, 1, 76, 0
1, 20520, Note_on_c, 1, 77, 127
1, 20592, Note_off_c, 1, 49, 0
1, 20616, Note_off_c, 1, 77, 0
1, 20640, Note_on_c, 1, 79, 127
1, 20640, Note_on_c, 1, 50, 127
1, 20736, Note_off_c, 1, 79, 0
1, 20760, Note_on_c, 1, 77, 127
1, 20832, Note_off_c, 1, 50, 0
1, 20856, Note_off_c, 1, 77, 0
1, 20880, Note_on_c, 1, 76, 127
1, 20880, Note_on_c, 1, 38, 127
1, 20976, Note_off_c, 1, 76, 0
1, 21000, Note_on_c, 1, 74, 127
1, 21072, Note_off_c, 1, 38, 0
1, 21096, Note_off_c, 1, 74, 0
1, 21120, Note_on_c, 1, 81, 127
1, 21120, Note_on_c, 1, 62, 127
1, 21312, Note_off_c, 1, 81, 0
1, 21312, Note_off_c, 1, 62, 0
1, 21360, Note_on_c, 1, 81, 127
1, 21360, Note_on_c, 1, 65, 127
1, 21456, Note_off_c, 1, 65, 0
1, 21480, Note_on_c, 1, 64, 127
1, 21552, Note_off_c, 1, 81, 0
1, 21576, Note_off_c, 1, 64, 0
1, 21600, Note_on_c, 1, 81, 127
1, 21600, Note_on_c, 1, 65, 127
1, 21657, Note_off_c, 1, 81, 0
1, 21660, Note_on_c, 1, 79, 127
1, 21717, Note_off_c, 1, 79, 0
1, 21792, Note_off_c, 1, 65, 0
1, 21840, Note_on_c, 1, 81, 127
1, 21840, Note_on_c, 1, 62, 127
1, 21897, Note_off_c, 1, 81, 0
1, 21900, Note_on_c, 1, 79, 127
1, 21936, Note_off_c, 1, 62, 0
1, 21957, Note_off_c, 1, 79, 0
1, 21960, Note_on_c, 1, 81, 127
1, 21960, Note_on_c, 1, 57, 127
1, 22017, Note_off_c, 1, 81, 0
1, 22020, Note_on_c, 1, 79, 127
1, 22056, Note_off_c, 1, 57, 0
1, 22077, Note_off_c, 1, 79, 0
1, 22080, Note_on_c, 1, 81, 127
1, 22080, Note_on_c, 1, 64, 127
1, 22137, Note_off_c, 1, 81, 0
1, 22140, Note_on_c, 1, 79, 127
1, 22197, Note_off_c, 1, 79, 0
1, 22272, Note_off_c, 1, 64, 0
1, 22320, Note_on_c, 1, 81, 127
1, 22320, Note_on_c, 1, 61, 127
1, 22377, Note_off_c, 1, 81, 0
1, 22380, Note_on_c, 1, 79, 127
1, 22416, Note_off_c, 1, 61, 0
1, 22437, Note_off_c, 1, 79, 0
1, 22440, Note_on_c, 1, 81, 127
1, 22440, Note_on_c, 1, 57, 127
1, 22497, Note_off_c, 1, 81, 0
1, 22500, Note_on_c, 1, 79, 127
1, 22536, Note_off_c, 1, 57, 0
1, 22548, Note_off_c, 1, 79, 0
1, 22560, Note_on_c, 1, 81, 127
1, 22560, Note_on_c, 1, 62, 127
1, 22656, Note_off_c, 1, 81, 0
1, 22680, Note_on_c, 1, 77, 127
1, 22776, Note_off_c, 1, 77, 0
1, 22800, Note_on_c, 1, 79, 127
1, 22896, Note_off_c, 1, 79, 0
1, 22944, Note_off_c, 1, 62, 0
1, 23040, Note_on_c, 1, 82, 127
1, 23040, Note_on_c, 1, 55, 127
1, 23136, Note_off_c, 1, 82, 0
1, 23160, Note_on_c, 1, 81, 127
1, 23232, Note_off_c, 1, 55, 0
1, 23256, Note_off_c, 1, 81, 0
1, 23280, Note_on_c, 1, 79, 127
1, 23280, Note_on_c, 1, 57, 127
1, 23376, Note_off_c, 1, 79, 0
1, 23400, Note_on_c, 1, 77, 127
1, 23472, Note_off_c, 1, 57, 0
1, 23496, Note_off_c, 1, 77, 0
1, 23520, Note_on_c, 1, 76, 127
1, 23520, Note_on_c, 1, 58, 127
1, 23616, Note_off_c, 1, 76, 0
1, 23640, Note_on_c, 1, 74, 127
1, 23712, Note_off_c, 1, 58, 0
1, 23736, Note_off_c, 1, 74, 0
1, 23760, Note_on_c, 1, 73, 127
1, 23760, Note_on_c, 1, 55, 127
1, 23856, Note_off_c, 1, 73, 0
1, 23880, Note_on_c, 1, 74, 127
1, 23952, Note_off_c, 1, 55, 0
1, 23976, Note_off_c, 1, 74, 0
1, 24000, Note_on_c, 1, 79, 127
1, 24000, Note_on_c, 1, 57, 127
1, 24096, Note_off_c, 1, 79, 0
1, 24120, Note_on_c, 1, 77, 127
1, 24192, Note_off_c, 1, 57, 0
1, 24216, Note_off_c, 1, 77, 0
1, 24240, Note_on_c, 1, 76, 127
1, 24240, Note_on_c, 1, 45, 127
1, 24336, Note_off_c, 1, 76, 0
1, 24360, Note_on_c, 1, 77, 127
1, 24432, Note_off_c, 1, 45, 0
1, 24456, Note_off_c, 1, 77, 0
1, 24480, Note_on_c, 1, 74, 127
1, 24480, Note_on_c, 1, 38, 127
1, 24576, Note_off_c, 1, 38, 0
1, 24600, Note_on_c, 1, 50, 127
1, 24696, Note_off_c, 1, 50, 0
1, 24720, Note_on_c, 1, 51, 127
1, 24816, Note_off_c, 1, 51, 0
1, 24840, Note_on_c, 1, 53, 127
1, 24864, Note_off_c, 1, 74, 0
1, 24936, Note_off_c, 1, 53, 0
1, 24960, Note_on_c, 1, 74, 127
1, 24960, Note_on_c, 1, 55, 127
1, 25140, Note_off_c, 1, 55, 0
1, 25152, Note_off_c, 1, 74, 0
1, 25200, Note_on_c, 1, 77, 127
1, 25200, Note_on_c, 1, 55, 127
1, 25296, Note_off_c, 1, 77, 0
1, 25320, Note_on_c, 1, 75, 127
1, 25380, Note_off_c, 1, 55, 0
1, 25416, Note_off_c, 1, 75, 0
1, 25440, Note_on_c, 1, 77, 127
1, 25440, Note_on_c, 1, 56, 127
1, 25488, Note_off_c, 1, 56, 0
1, 25500, Note_on_c, 1, 55, 127
1, 25548, Note_off_c, 1, 55, 0
1, 25632, Note_off_c, 1, 77, 0
1, 25680, Note_on_c, 1, 74, 127
1, 25680, Note_on_c, 1, 56, 127
1, 25728, Note_off_c, 1, 56, 0
1, 25740, Note_on_c, 1, 55, 127
1, 25776, Note_off_c, 1, 74, 0
1, 25788, Note_off_c, 1, 55, 0
1, 25800, Note_on_c, 1, 71, 127
1, 25800, Note_on_c, 1, 56, 127
1, 25848, Note_off_c, 1, 56, 0
1, 25860, Note_on_c, 1, 55, 127
1, 25896, Note_off_c, 1, 71, 0
1, 25908, Note_off_c, 1, 55, 0
1, 25920, Note_on_c, 1, 80, 127
1, 25920, Note_on_c, 1, 56, 127
1, 25968, Note_off_c, 1, 56, 0
1, 25980, Note_on_c, 1, 55, 127
1, 26028, Note_off_c, 1, 55, 0
1, 26112, Note_off_c, 1, 80, 0
1, 26160, Note_on_c, 1, 77, 127
1, 26160, Note_on_c, 1, 56, 127
1, 26208, Note_off_c, 1, 56, 0
1, 26220, Note_on_c, 1, 55, 127
1, 26256, Note_off_c, 1, 77, 0
1, 26268, Note_off_c, 1, 55, 0
1, 26280, Note_on_c, 1, 74, 127
1, 26280, Note_on_c, 1, 56, 127
1, 26328, Note_off_c, 1, 56, 0
1, 26340, Note_on_c, 1, 55, 127
1, 26376, Note_off_c, 1, 74, 0
1, 26400, Note_on_c, 1, 75, 127
1, 26592, Note_off_c, 1, 75, 0
1, 26640, Note_on_c, 1, 72, 127
1, 26736, Note_off_c, 1, 72, 0
1, 26760, Note_on_c, 1, 67, 127
1, 26784, Note_off_c, 1, 55, 0
1, 26856, Note_off_c, 1, 67, 0
1, 26880, Note_on_c, 1, 79, 127
1, 26880, Note_on_c, 1, 55, 127
1, 27072, Note_off_c, 1, 79, 0
1, 27072, Note_off_c, 1, 55, 0
1, 27120, Note_on_c, 1, 75, 127
1, 27120, Note_on_c, 1, 55, 127
1, 27216, Note_off_c, 1, 75, 0
1, 27240, Note_on_c, 1, 72, 127
1, 27312, Note_off_c, 1, 55, 0
1, 27336, Note_off_c, 1, 72, 0
1, 27360, Note_on_c, 1, 74, 127
1, 27360, Note_on_c, 1, 55, 127
1, 27552, Note_off_c, 1, 74, 0
1, 27600, Note_on_c, 1, 70, 127
1, 27696, Note_off_c, 1, 70, 0
1, 27720, Note_on_c, 1, 67, 127
1, 27744, Note_off_c, 1, 55, 0
1, 27816, Note_off_c, 1, 67, 0
1, 27840, Note_on_c, 1, 79, 127
1, 27840, Note_on_c, 1, 55, 127
1, 28032, Note_off_c, 1, 79, 0
1, 28032, Note_off_c, 1, 55, 0
1, 28080, Note_on_c, 1, 74, 127
1, 28080, Note_on_c, 1, 55, 127
1, 28176, Note_off_c, 1, 74, 0
1, 28200, Note_on_c, 1, 70, 127
1, 28272, Note_off_c, 1, 55, 0
1, 28296, Note_off_c, 1, 70, 0
1, 28320, Note_on_c, 1, 72, 127
1, 28320, Note_on_c, 1, 55, 127
1, 28512, Note_off_c, 1, 72, 0
1, 28560, Note_on_c, 1, 69, 127
1, 28656, Note_off_c, 1, 69, 0
1, 28680, Note_on_c, 1, 66, 127
1, 28704, Note_off_c, 1, 55, 0
1, 28776, Note_off_c, 1, 66, 0
1, 28800, Note_on_c, 1, 75, 127
1, 28800, Note_on_c, 1, 55, 127
1, 28896, Note_off_c, 1, 55, 0
1, 28992, Note_off_c, 1, 75, 0
1, 29040, Note_on_c, 1, 72, 127
1, 29040, Note_on_c, 1, 55, 127
1, 29136, Note_off_c, 1, 72, 0
1, 29136, Note_off_c, 1, 55, 0
1, 29160, Note_on_c, 1, 69, 127
1, 29160, Note_on_c, 1, 55, 127
1, 29256, Note_off_c, 1, 69, 0
1, 29256, Note_off_c, 1, 55, 0
1, 29280, Note_on_c, 1, 74, 127
1, 29280, Note_on_c, 1, 55, 127
1, 29376, Note_off_c, 1, 55, 0
1, 29472, Note_off_c, 1, 74, 0
1, 29520, Note_on_c, 1, 70, 127
1, 29520, Note_on_c, 1, 55, 127
1, 29616, Note_off_c, 1, 70, 0
1, 29616, Note_off_c, 1, 55, 0
1, 29640, Note_on_c, 1, 67, 127
1, 29640, Note_on_c, 1, 55, 127
1, 29736, Note_off_c, 1, 67, 0
1, 29736, Note_off_c, 1, 55, 0
1, 29760, Note_on_c, 1, 72, 127
1, 29760, Note_on_c, 1, 55, 127
1, 29856, Note_off_c, 1, 72, 0
1, 29856, Note_off_c, 1, 55, 0
1, 29880, Note_on_c, 1, 69, 127
1, 29880, Note_on_c, 1, 54, 127
1, 29976, Note_off_c, 1, 69, 0
1, 29976, Note_off_c, 1, 54, 0
1, 30000, Note_on_c, 1, 70, 127
1, 30000, Note_on_c, 1, 55, 127
1, 30096, Note_off_c, 1, 70, 0
1, 30120, Note_on_c, 1, 67, 127
1, 30192, Note_off_c, 1, 55, 0
1, 30216, Note_off_c, 1, 67, 0
1, 30240, Note_on_c, 1, 69, 127
1, 30240, Note_on_c, 1, 50, 127
1, 30336, Note_off_c, 1, 69, 0
1, 30360, Note_on_c, 1, 62, 127
1, 30432, Note_off_c, 1, 50, 0
1, 30456, Note_off_c, 1, 62, 0
1, 30480, Note_on_c, 1, 64, 127
1, 30480, Note_on_c, 1, 48, 127
1, 30576, Note_off_c, 1, 64, 0
1, 30600, Note_on_c, 1, 66, 127
1, 30672, Note_off_c, 1, 48, 0
1, 30696, Note_off_c, 1, 66, 0
1, 30720, Note_on_c, 1, 67, 127
1, 30720, Note_on_c, 1, 46, 127
1, 30816, Note_off_c, 1, 67, 0
1, 30840, Note_on_c, 1, 69, 127
1, 30912, Note_off_c, 1, 46, 0
1, 30936, Note_off_c, 1, 69, 0
1, 30960, Note_on_c, 1, 70, 127
1, 30960, Note_on_c, 1, 50, 127
1, 31056, Note_off_c, 1, 70, 0
1, 31080, Note_on_c, 1, 67, 127
1, 31152, Note_off_c, 1, 50, 0
1, 31176, Note_off_c, 1, 67, 0
1, 31200, Note_on_c, 1, 75, 127
1, 31200, Note_on_c, 1, 42, 127
1, 31296, Note_off_c, 1, 75, 0
1, 31320, Note_on_c, 1, 72, 127
1, 31392, Note_off_c, 1, 42, 0
1, 31416, Note_off_c, 1, 72, 0
1, 31440, Note_on_c, 1, 74, 127
1, 31440, Note_on_c, 1, 50, 127
1, 31536, Note_off_c, 1, 74, 0
1, 31560, Note_on_c, 1, 70, 127
1, 31632, Note_off_c, 1, 50, 0
1, 31656, Note_off_c, 1, 70, 0
1, 31680, Note_on_c, 1, 72, 127
1, 31680, Note_on_c, 1, 43, 127
1, 31776, Note_off_c, 1, 72, 0
1, 31800, Note_on_c, 1, 69, 127
1, 31872, Note_off_c, 1, 43, 0
1, 31896, Note_off_c, 1, 69, 0
1, 31920, Note_on_c, 1, 70, 127
1, 31920, Note_on_c, 1, 50, 127
1, 32016, Note_off_c, 1, 70, 0
1, 32040, Note_on_c, 1, 67, 127
1, 32112, Note_off_c, 1, 50, 0
1, 32136, Note_off_c, 1, 67, 0
1, 32160, Note_on_c, 1, 69, 127
1, 32160, Note_on_c, 1, 38, 127
1, 32352, Note_off_c, 1, 69, 0
1, 32352, Note_off_c, 1, 38, 0
1, 32400, Note_on_c, 1, 62, 127
1, 32400, Note_on_c, 1, 50, 127
1, 32496, Note_off_c, 1, 50, 0
1, 32520, Note_on_c, 1, 48, 127
1, 32592, Note_off_c, 1, 62, 0
1, 32616, Note_off_c, 1, 48, 0
1, 32640, Note_on_c, 1, 67, 127
1, 32640, Note_on_c, 1, 46, 127
1, 32832, Note_off_c, 1, 67, 0
1, 32832, Note_off_c, 1, 46, 0
1, 32880, Note_on_c, 1, 70, 127
1, 32880, Note_on_c, 1, 45, 127
1, 32976, Note_off_c, 1, 70, 0
1, 33000, Note_on_c, 1, 69, 127
1, 33072, Note_off_c, 1, 45, 0
1, 33096, Note_off_c, 1, 69, 0
1, 33120, Note_on_c, 1, 70, 127
1, 33120, Note_on_c, 1, 43, 127
1, 33216, Note_off_c, 1, 70, 0
1, 33240, Note_on_c, 1, 66, 127
1, 33300, Note_off_c, 1, 43, 0
1, 33336, Note_off_c, 1, 66, 0
1, 33360, Note_on_c, 1, 67, 127
1, 33456, Note_off_c, 1, 67, 0
1, 33480, Note_on_c, 1, 62, 127
1, 33576, Note_off_c, 1, 62, 0
1, 33600, Note_on_c, 1, 71, 127
1, 33600, Note_on_c, 1, 41, 127
1, 33696, Note_off_c, 1, 71, 0
1, 33720, Note_on_c, 1, 65, 127
1, 33780, Note_off_c, 1, 41, 0
1, 33816, Note_off_c, 1, 65, 0
1, 33840, Note_on_c, 1, 67, 127
1, 33936, Note_off_c, 1, 67, 0
1, 33960, Note_on_c, 1, 62, 127
1, 34056, Note_off_c, 1, 62, 0
1, 34080, Note_on_c, 1, 72, 127
1, 34080, Note_on_c, 1, 39, 127
1, 34176, Note_off_c, 1, 72, 0
1, 34200, Note_on_c, 1, 62, 127
1, 34260, Note_off_c, 1, 39, 0
1, 34296, Note_off_c, 1, 62, 0
1, 34320, Note_on_c, 1, 63, 127
1, 34320, Note_on_c, 1, 55, 127
1, 34416, Note_off_c, 1, 63, 0
1, 34416, Note_off_c, 1, 55, 0
1, 34440, Note_on_c, 1, 67, 127
1, 34440, Note_on_c, 1, 53, 127
1, 34536, Note_off_c, 1, 67, 0
1, 34536, Note_off_c, 1, 53, 0
1, 34560, Note_on_c, 1, 72, 127
1, 34560, Note_on_c, 1, 51, 127
1, 34656, Note_off_c, 1, 72, 0
1, 34680, Note_on_c, 1, 67, 127
1, 34752, Note_off_c, 1, 51, 0
1, 34776, Note_off_c, 1, 67, 0
1, 34800, Note_on_c, 1, 74, 127
1, 34800, Note_on_c, 1, 50, 127
1, 34896, Note_off_c, 1, 74, 0
1, 34920, Note_on_c, 1, 67, 127
1, 34992, Note_off_c, 1, 50, 0
1, 35016, Note_off_c, 1, 67, 0
1, 35040, Note_on_c, 1, 75, 127
1, 35040, Note_on_c, 1, 48, 127
1, 35136, Note_off_c, 1, 75, 0
1, 35160, Note_on_c, 1, 71, 127
1, 35220, Note_off_c, 1, 48, 0
1, 35256, Note_off_c, 1, 71, 0
1, 35280, Note_on_c, 1, 72, 127
1, 35376, Note_off_c, 1, 72, 0
1, 35400, Note_on_c, 1, 67, 127
1, 35496, Note_off_c, 1, 67, 0
1, 35520, Note_on_c, 1, 75, 127
1, 35520, Note_on_c, 1, 46, 127
1, 35616, Note_off_c, 1, 75, 0
1, 35640, Note_on_c, 1, 70, 127
1, 35700, Note_off_c, 1, 46, 0
1, 35736, Note_off_c, 1, 70, 0
1, 35760, Note_on_c, 1, 72, 127
1, 35856, Note_off_c, 1, 72, 0
1, 35880, Note_on_c, 1, 67, 127
1, 35976, Note_off_c, 1, 67, 0
1, 36000, Note_on_c, 1, 77, 127
1, 36000, Note_on_c, 1, 45, 127
1, 36096, Note_off_c, 1, 77, 0
1, 36120, Note_on_c, 1, 67, 127
1, 36180, Note_off_c, 1, 45, 0
1, 36216, Note_off_c, 1, 67, 0
1, 36240, Note_on_c, 1, 69, 127
1, 36240, Note_on_c, 1, 60, 127
1, 36336, Note_off_c, 1, 69, 0
1, 36336, Note_off_c, 1, 60, 0
1, 36360, Note_on_c, 1, 72, 127
1, 36360, Note_on_c, 1, 58, 127
1, 36456, Note_off_c, 1, 72, 0
1, 36456, Note_off_c, 1, 58, 0
1, 36480, Note_on_c, 1, 78, 127
1, 36480, Note_on_c, 1, 57, 127
1, 36576, Note_off_c, 1, 78, 0
1, 36600, Note_on_c, 1, 72, 127
1, 36672, Note_off_c, 1, 57, 0
1, 36696, Note_off_c, 1, 72, 0
1, 36720, Note_on_c, 1, 79, 127
1, 36720, Note_on_c, 1, 55, 127
1, 36816, Note_off_c, 1, 79, 0
1, 36840, Note_on_c, 1, 72, 127
1, 36912, Note_off_c, 1, 55, 0
1, 36936, Note_off_c, 1, 72, 0
1, 36960, Note_on_c, 1, 81, 127
1, 36960, Note_on_c, 1, 54, 127
1, 37056, Note_off_c, 1, 81, 0
1, 37080, Note_on_c, 1, 76, 127
1, 37140, Note_off_c, 1, 54, 0
1, 37176, Note_off_c, 1, 76, 0
1, 37200, Note_on_c, 1, 78, 127
1, 37296, Note_off_c, 1, 78, 0
1, 37320, Note_on_c, 1, 74, 127
1, 37416, Note_off_c, 1, 74, 0
1, 37440, Note_on_c, 1, 82, 127
1, 37440, Note_on_c, 1, 52, 127
1, 37536, Note_off_c, 1, 82, 0
1, 37560, Note_on_c, 1, 78, 127
1, 37620, Note_off_c, 1, 52, 0
1, 37656, Note_off_c, 1, 78, 0
1, 37680, Note_on_c, 1, 79, 127
1, 37776, Note_off_c, 1, 79, 0
1, 37800, Note_on_c, 1, 74, 127
1, 37896, Note_off_c, 1, 74, 0
1, 37920, Note_on_c, 1, 84, 127
1, 37920, Note_on_c, 1, 50, 127
1, 38016, Note_off_c, 1, 84, 0
1, 38040, Note_on_c, 1, 81, 127
1, 38100, Note_off_c, 1, 50, 0
1, 38136, Note_off_c, 1, 81, 0
1, 38160, Note_on_c, 1, 74, 127
1, 38160, Note_on_c, 1, 54, 127
1, 38256, Note_off_c, 1, 74, 0
1, 38280, Note_on_c, 1, 84, 127
1, 38352, Note_off_c, 1, 54, 0
1, 38376, Note_off_c, 1, 84, 0
1, 38400, Note_on_c, 1, 82, 127
1, 38400, Note_on_c, 1, 55, 127
1, 38496, Note_off_c, 1, 82, 0
1, 38520, Note_on_c, 1, 81, 127
1, 38592, Note_off_c, 1, 55, 0
1, 38616, Note_off_c, 1, 81, 0
1, 38640, Note_on_c, 1, 79, 127
1, 38640, Note_on_c, 1, 57, 127
1, 38736, Note_off_c, 1, 79, 0
1, 38760, Note_on_c, 1, 78, 127
1, 38832, Note_off_c, 1, 57, 0
1, 38856, Note_off_c, 1, 78, 0
1, 38880, Note_on_c, 1, 79, 127
1, 38880, Note_on_c, 1, 58, 127
1, 38976, Note_off_c, 1, 79, 0
1, 39000, Note_on_c, 1, 74, 127
1, 39072, Note_off_c, 1, 58, 0
1, 39096, Note_off_c, 1, 74, 0
1, 39120, Note_on_c, 1, 75, 127
1, 39120, Note_on_c, 1, 60, 127
1, 39216, Note_off_c, 1, 75, 0
1, 39240, Note_on_c, 1, 72, 127
1, 39312, Note_off_c, 1, 60, 0
1, 39336, Note_off_c, 1, 72, 0
1, 39360, Note_on_c, 1, 70, 127
1, 39360, Note_on_c, 1, 62, 127
1, 39552, Note_off_c, 1, 70, 0
1, 39552, Note_off_c, 1, 62, 0
1, 39600, Note_on_c, 1, 69, 127
1, 39600, Note_on_c, 1, 50, 127
1, 39624, Note_off_c, 1, 69, 0
1, 39630, Note_on_c, 1, 70, 127
1, 39654, Note_off_c, 1, 70, 0
1, 39690, Note_on_c, 1, 67, 127
1, 39792, Note_off_c, 1, 50, 0
1, 39816, Note_off_c, 1, 67, 0
1, 39840, Note_on_c, 1, 67, 127
1, 39840, Note_on_c, 1, 43, 127
1, 40224, Note_off_c, 1, 67, 0
1, 40224, Note_off_c, 1, 43, 0
1, 40320, Note_on_c, 1, 74, 127
1, 40320, Note_on_c, 1, 58, 127
1, 40512, Note_off_c, 1, 74, 0
1, 40512, Note_off_c, 1, 58, 0
1, 40560, Note_on_c, 1, 77, 127
1, 40560, Note_on_c, 1, 60, 127
1, 40656, Note_off_c, 1, 77, 0
1, 40680, Note_on_c, 1, 75, 127
1, 40752, Note_off_c, 1, 60, 0
1, 40776, Note_off_c, 1, 75, 0
1, 40800, Note_on_c, 1, 77, 127
1, 40800, Note_on_c, 1, 62, 127
1, 40992, Note_off_c, 1, 77, 0
1, 40992, Note_off_c, 1, 62, 0
1, 41040, Note_on_c, 1, 74, 127
1, 41040, Note_on_c, 1, 58, 127
1, 41153, Note_off_c, 1, 74, 0
1, 41160, Note_on_c, 1, 70, 127
1, 41232, Note_off_c, 1, 58, 0
1, 41273, Note_off_c, 1, 70, 0
1, 41280, Note_on_c, 1, 79, 127
1, 41280, Note_on_c, 1, 63, 127
1, 41472, Note_off_c, 1, 63, 0
1, 41505, Note_off_c, 1, 79, 0
1, 41520, Note_on_c, 1, 75, 127
1, 41520, Note_on_c, 1, 60, 127
1, 41616, Note_off_c, 1, 75, 0
1, 41640, Note_on_c, 1, 70, 127
1, 41712, Note_off_c, 1, 60, 0
1, 41736, Note_off_c, 1, 70, 0
1, 41760, Note_on_c, 1, 77, 127
1, 41760, Note_on_c, 1, 62, 127
1, 41856, Note_off_c, 1, 62, 0
1, 41880, Note_on_c, 1, 60, 127
1, 41976, Note_off_c, 1, 60, 0
1, 42000, Note_on_c, 1, 58, 127
1, 42096, Note_off_c, 1, 58, 0
1, 42120, Note_on_c, 1, 57, 127
1, 42144, Note_off_c, 1, 77, 0
1, 42216, Note_off_c, 1, 57, 0
1, 42240, Note_on_c, 1, 82, 127
1, 42240, Note_on_c, 1, 55, 127
1, 42336, Note_off_c, 1, 82, 0
1, 42360, Note_on_c, 1, 81, 127
1, 42432, Note_off_c, 1, 55, 0
1, 42456, Note_off_c, 1, 81, 0
1, 42480, Note_on_c, 1, 79, 127
1, 42480, Note_on_c, 1, 53, 127
1, 42576, Note_off_c, 1, 79, 0
1, 42600, Note_on_c, 1, 81, 127
1, 42672, Note_off_c, 1, 53, 0
1, 42696, Note_off_c, 1, 81, 0
1, 42720, Note_on_c, 1, 82, 127
1, 42720, Note_on_c, 1, 52, 127
1, 42816, Note_off_c, 1, 82, 0
1, 42840, Note_on_c, 1, 79, 127
1, 42912, Note_off_c, 1, 52, 0
1, 42936, Note_off_c, 1, 79, 0
1, 42960, Note_on_c, 1, 76, 127
1, 42960, Note_on_c, 1, 48, 127
1, 43056, Note_off_c, 1, 76, 0
1, 43080, Note_on_c, 1, 72, 127
1, 43152, Note_off_c, 1, 48, 0
1, 43176, Note_off_c, 1, 72, 0
1, 43200, Note_on_c, 1, 82, 127
1, 43200, Note_on_c, 1, 50, 127
1, 43296, Note_off_c, 1, 82, 0
1, 43320, Note_on_c, 1, 81, 127
1, 43392, Note_off_c, 1, 50, 0
1, 43416, Note_off_c, 1, 81, 0
1, 43440, Note_on_c, 1, 79, 127
1, 43440, Note_on_c, 1, 52, 127
1, 43536, Note_off_c, 1, 79, 0
1, 43560, Note_on_c, 1, 81, 127
1, 43632, Note_off_c, 1, 52, 0
1, 43656, Note_off_c, 1, 81, 0
1, 43680, Note_on_c, 1, 82, 127
1, 43680, Note_on_c, 1, 53, 127
1, 43776, Note_off_c, 1, 82, 0
1, 43800, Note_on_c, 1, 81, 127
1, 43872, Note_off_c, 1, 53, 0
1, 43896, Note_off_c, 1, 81, 0
1, 43920, Note_on_c, 1, 79, 127
1, 43920, Note_on_c, 1, 55, 127
1, 44016, Note_off_c, 1, 79, 0
1, 44016, Note_off_c, 1, 55, 0
1, 44040, Note_on_c, 1, 77, 127
1, 44040, Note_on_c, 1, 57, 127
1, 44136, Note_off_c, 1, 77, 0
1, 44136, Note_off_c, 1, 57, 0
1, 44160, Note_on_c, 1, 79, 127
1, 44160, Note_on_c, 1, 58, 127
1, 44256, Note_off_c, 1, 79, 0
1, 44280, Note_on_c, 1, 77, 127
1, 44352, Note_off_c, 1, 58, 0
1, 44376, Note_off_c, 1, 77, 0
1, 44400, Note_on_c, 1, 76, 127
1, 44400, Note_on_c, 1, 55, 127
1, 44496, Note_off_c, 1, 76, 0
1, 44520, Note_on_c, 1, 77, 127
1, 44592, Note_off_c, 1, 55, 0
1, 44616, Note_off_c, 1, 77, 0
1, 44640, Note_on_c, 1, 79, 127
1, 44640, Note_on_c, 1, 52, 127
1, 44736, Note_off_c, 1, 79, 0
1, 44760, Note_on_c, 1, 76, 127
1, 44832, Note_off_c, 1, 52, 0
1, 44856, Note_off_c, 1, 76, 0
1, 44880, Note_on_c, 1, 73, 127
1, 44880, Note_on_c, 1, 45, 127
1, 44976, Note_off_c, 1, 73, 0
1, 45000, Note_on_c, 1, 69, 127
1, 45072, Note_off_c, 1, 45, 0
1, 45096, Note_off_c, 1, 69, 0
1, 45120, Note_on_c, 1, 79, 127
1, 45120, Note_on_c, 1, 47, 127
1, 45216, Note_off_c, 1, 79, 0
1, 45240, Note_on_c, 1, 77, 127
1, 45312, Note_off_c, 1, 47, 0
1, 45336, Note_off_c, 1, 77, 0
1, 45360, Note_on_c, 1, 76, 127
1, 45360, Note_on_c, 1, 49, 127
1, 45456, Note_off_c, 1, 76, 0
1, 45480, Note_on_c, 1, 77, 127
1, 45552, Note_off_c, 1, 49, 0
1, 45576, Note_off_c, 1, 77, 0
1, 45600, Note_on_c, 1, 79, 127
1, 45600, Note_on_c, 1, 50, 127
1, 45696, Note_off_c, 1, 79, 0
1, 45720, Note_on_c, 1, 77, 127
1, 45792, Note_off_c, 1, 50, 0
1, 45816, Note_off_c, 1, 77, 0
1, 45840, Note_on_c, 1, 76, 127
1, 45840, Note_on_c, 1, 38, 127
1, 45936, Note_off_c, 1, 76, 0
1, 45960, Note_on_c, 1, 74, 127
1, 46032, Note_off_c, 1, 38, 0
1, 46056, Note_off_c, 1, 74, 0
1, 46080, Note_on_c, 1, 81, 127
1, 46080, Note_on_c, 1, 62, 127
1, 46272, Note_off_c, 1, 81, 0
1, 46272, Note_off_c, 1, 62, 0
1, 46320, Note_on_c, 1, 81, 127
1, 46320, Note_on_c, 1, 65, 127
1, 46416, Note_off_c, 1, 65, 0
1, 46440, Note_on_c, 1, 64, 127
1, 46512, Note_off_c, 1, 81, 0
1, 46536, Note_off_c, 1, 64, 0
1, 46560, Note_on_c, 1, 81, 127
1, 46560, Note_on_c, 1, 65, 127
1, 46617, Note_off_c, 1, 81, 0
1, 46620, Note_on_c, 1, 79, 127
1, 46677, Note_off_c, 1, 79, 0
1, 46752, Note_off_c, 1, 65, 0
1, 46800, Note_on_c, 1, 81, 127
1, 46800, Note_on_c, 1, 62, 127
1, 46857, Note_off_c, 1, 81, 0
1, 46860, Note_on_c, 1, 79, 127
1, 46896, Note_off_c, 1, 62, 0
1, 46917, Note_off_c, 1, 79, 0
1, 46920, Note_on_c, 1, 81, 127
1, 46920, Note_on_c, 1, 57, 127
1, 46977, Note_off_c, 1, 81, 0
1, 46980, Note_on_c, 1, 79, 127
1, 47016, Note_off_c, 1, 57, 0
1, 47037, Note_off_c, 1, 79, 0
1, 47040, Note_on_c, 1, 81, 127
1, 47040, Note_on_c, 1, 64, 127
1, 47097, Note_off_c, 1, 81, 0
1, 47100, Note_on_c, 1, 79, 127
1, 47157, Note_off_c, 1, 79, 0
1, 47232, Note_off_c, 1, 64, 0
1, 47280, Note_on_c, 1, 81, 127
1, 47280, Note_on_c, 1, 61, 127
1, 47337, Note_off_c, 1, 81, 0
1, 47340, Note_on_c, 1, 79, 127
1, 47376, Note_off_c, 1, 61, 0
1, 47397, Note_off_c, 1, 79, 0
1, 47400, Note_on_c, 1, 81, 127
1, 47400, Note_on_c, 1, 57, 127
1, 47457, Note_off_c, 1, 81, 0
1, 47460, Note_on_c, 1, 79, 127
1, 47496, Note_off_c, 1, 57, 0
1, 47508, Note_off_c, 1, 79, 0
1, 47520, Note_on_c, 1, 81, 127
1, 47520, Note_on_c, 1, 62, 127
1, 47616, Note_off_c, 1, 81, 0
1, 47640, Note_on_c, 1, 77, 127
1, 47736, Note_off_c, 1, 77, 0
1, 47760, Note_on_c, 1, 79, 127
1, 47856, Note_off_c, 1, 79, 0
1, 47904, Note_off_c, 1, 62, 0
1, 48000, Note_on_c, 1, 82, 127
1, 48000, Note_on_c, 1, 55, 127
1, 48096, Note_off_c, 1, 82, 0
1, 48120, Note_on_c, 1, 81, 127
1, 48192, Note_off_c, 1, 55, 0
1, 48216, Note_off_c, 1, 81, 0
1, 48240, Note_on_c, 1, 79, 127
1, 48240, Note_on_c, 1, 57, 127
1, 48336, Note_off_c, 1, 79, 0
1, 48360, Note_on_c, 1, 77, 127
1, 48432, Note_off_c, 1, 57, 0
1, 48456, Note_off_c, 1, 77, 0
1, 48480, Note_on_c, 1, 76, 127
1, 48480, Note_on_c, 1, 58, 127
1, 48576, Note_off_c, 1, 76, 0
1, 48600, Note_on_c, 1, 74, 127
1, 48672, Note_off_c, 1, 58, 0
1, 48696, Note_off_c, 1, 74, 0
1, 48720, Note_on_c, 1, 73, 127
1, 48720, Note_on_c, 1, 55, 127
1, 48816, Note_off_c, 1, 73, 0
1, 48840, Note_on_c, 1, 74, 127
1, 48912, Note_off_c, 1, 55, 0
1, 48936, Note_off_c, 1, 74, 0
1, 48960, Note_on_c, 1, 79, 127
1, 48960, Note_on_c, 1, 57, 127
1, 49056, Note_off_c, 1, 79, 0
1, 49080, Note_on_c, 1, 77, 127
1, 49152, Note_off_c, 1, 57, 0
1, 49176, Note_off_c, 1, 77, 0
1, 49200, Note_on_c, 1, 76, 127
1, 49200, Note_on_c, 1, 45, 127
1, 49296, Note_off_c, 1, 76, 0
1, 49320, Note_on_c, 1, 77, 127
1, 49392, Note_off_c, 1, 45, 0
1, 49416, Note_off_c, 1, 77, 0
1, 49440, Note_on_c, 1, 74, 127
1, 49440, Note_on_c, 1, 38, 127
1, 49536, Note_off_c, 1, 38, 0
1, 49560, Note_on_c, 1, 50, 127
1, 49656, Note_off_c, 1, 50, 0
1, 49680, Note_on_c, 1, 51, 127
1, 49776, Note_off_c, 1, 51, 0
1, 49800, Note_on_c, 1, 53, 127
1, 49824, Note_off_c, 1, 74, 0
1, 49896, Note_off_c, 1, 53, 0
1, 49920, Note_on_c, 1, 74, 127
1, 49920, Note_on_c, 1, 55, 127
1, 50100, Note_off_c, 1, 55, 0
1, 50112, Note_off_c, 1, 74, 0
1, 50160, Note_on_c, 1, 77, 127
1, 50160, Note_on_c, 1, 55, 127
1, 50256, Note_off_c, 1, 77, 0
1, 50280, Note_on_c, 1, 75, 127
1, 50340, Note_off_c, 1, 55, 0
1, 50376, Note_off_c, 1, 75, 0
1, 50400, Note_on_c, 1, 77, 127
1, 50400, Note_on_c, 1, 56, 127
1, 50448, Note_off_c, 1, 56, 0
1, 50460, Note_on_c, 1, 55, 127
1, 50508, Note_off_c, 1, 55, 0
1, 50592, Note_off_c, 1, 77, 0
1, 50640, Note_on_c, 1, 74, 127
1, 50640, Note_on_c, 1, 56, 127
1, 50688, Note_off_c, 1, 56, 0
1, 50700, Note_on_c, 1, 55, 127
1, 50736, Note_off_c, 1, 74, 0
1, 50748, Note_off_c, 1, 55, 0
1, 50760, Note_on_c, 1, 71, 127
1, 50760, Note_on_c, 1, 56, 127
1, 50808, Note_off_c, 1, 56, 0
1, 50820, Note_on_c, 1, 55, 127
1, 50856, Note_off_c, 1, 71, 0
1, 50868, Note_off_c, 1, 55, 0
1, 50880, Note_on_c, 1, 80, 127
1, 50880, Note_on_c, 1, 56, 127
1, 50928, Note_off_c, 1, 56, 0
1, 50940, Note_on_c, 1, 55, 127
1, 50988, Note_off_c, 1, 55, 0
1, 51072, Note_off_c, 1, 80, 0
1, 51120, Note_on_c, 1, 77, 127
1, 51120, Note_on_c, 1, 56, 127
1, 51168, Note_off_c, 1, 56, 0
1, 51180, Note_on_c, 1, 55, 127
1, 51216, Note_off_c, 1, 77, 0
1, 51228, Note_off_c, 1, 55, 0
1, 51240, Note_on_c, 1, 74, 127
1, 51240, Note_on_c, 1, 56, 127
1, 51288, Note_off_c, 1, 56, 0
1, 51300, Note_on_c, 1, 55, 127
1, 51336, Note_off_c, 1, 74, 0
1, 51360, Note_on_c, 1, 75, 127
1, 51552, Note_off_c, 1, 75, 0
1, 51600, Note_on_c, 1, 72, 127
1, 51696, Note_off_c, 1, 72, 0
1, 51720, Note_on_c, 1, 67, 127
1, 51744, Note_off_c, 1, 55, 0
1, 51816, Note_off_c, 1, 67, 0
1, 51840, Note_on_c, 1, 79, 127
1, 51840, Note_on_c, 1, 55, 127
1, 52032, Note_off_c, 1, 79, 0
1, 52032, Note_off_c, 1, 55, 0
1, 52080, Note_on_c, 1, 75, 127
1, 52080, Note_on_c, 1, 55, 127
1, 52176, Note_off_c, 1, 75, 0
1, 52200, Note_on_c, 1, 72, 127
1, 52272, Note_off_c, 1, 55, 0
1, 52296, Note_off_c, 1, 72, 0
1, 52320, Note_on_c, 1, 74, 127
1, 52320, Note_on_c, 1, 55, 127
1, 52512, Note_off_c, 1, 74, 0
1, 52560, Note_on_c, 1, 70, 127
1, 52656, Note_off_c, 1, 70, 0
1, 52680, Note_on_c, 1, 67, 127
1, 52704, Note_off_c, 1, 55, 0
1, 52776, Note_off_c, 1, 67, 0
1, 52800, Note_on_c, 1, 79, 127
1, 52800, Note_on_c, 1, 55, 127
1, 52992, Note_off_c, 1, 79, 0
1, 52992, Note_off_c, 1, 55, 0
1, 53040, Note_on_c, 1, 74, 127
1, 53040, Note_on_c, 1, 55, 127
1, 53136, Note_off_c, 1, 74, 0
1, 53160, Note_on_c, 1, 70, 127
1, 53232, Note_off_c, 1, 55, 0
1, 53256, Note_off_c, 1, 70, 0
1, 53280, Note_on_c, 1, 72, 127
1, 53280, Note_on_c, 1, 55, 127
1, 53472, Note_off_c, 1, 72, 0
1, 53520, Note_on_c, 1, 69, 127
1, 53616, Note_off_c, 1, 69, 0
1, 53640, Note_on_c, 1, 66, 127
1, 53664, Note_off_c, 1, 55, 0
1, 53736, Note_off_c, 1, 66, 0
1, 53760, Note_on_c, 1, 75, 127
1, 53760, Note_on_c, 1, 55, 127
1, 53856, Note_off_c, 1, 55, 0
1, 53952, Note_off_c, 1, 75, 0
1, 54000, Note_on_c, 1, 72, 127
1, 54000, Note_on_c, 1, 55, 127
1, 54096, Note_off_c, 1, 72, 0
1, 54096, Note_off_c, 1, 55, 0
1, 54120, Note_on_c, 1, 69, 127
1, 54120, Note_on_c, 1, 55, 127
1, 54216, Note_off_c, 1, 69, 0
1, 54216, Note_off_c, 1, 55, 0
1, 54240, Note_on_c, 1, 74, 127
1, 54240, Note_on_c, 1, 55, 127
1, 54336, Note_off_c, 1, 55, 0
1, 54432, Note_off_c, 1, 74, 0
1, 54480, Note_on_c, 1, 70, 127
1, 54480, Note_on_c, 1, 55, 127
1, 54576, Note_off_c, 1, 70, 0
1, 54576, Note_off_c, 1, 55, 0
1, 54600, Note_on_c, 1, 67, 127
1, 54600, Note_on_c, 1, 55, 127
1, 54696, Note_off_c, 1, 67, 0
1, 54696, Note_off_c, 1, 55, 0
1, 54720, Note_on_c, 1, 72, 127
1, 54720, Note_on_c, 1, 55, 127
1, 54816, Note_off_c, 1, 72, 0
1, 54816, Note_off_c, 1, 55, 0
1, 54840, Note_on_c, 1, 69, 127
1, 54840, Note_on_c, 1, 54, 127
1, 54936, Note_off_c, 1, 69, 0
1, 54936, Note_off_c, 1, 54, 0
1, 54960, Note_on_c, 1, 70, 127
1, 54960, Note_on_c, 1, 55, 127
1, 55056, Note_off_c, 1, 70, 0
1, 55080, Note_on_c, 1, 67, 127
1, 55152, Note_off_c, 1, 55, 0
1, 55176, Note_off_c, 1, 67, 0
1, 55200, Note_on_c, 1, 69, 127
1, 55200, Note_on_c, 1, 50, 127
1, 55296, Note_off_c, 1, 69, 0
1, 55320, Note_on_c, 1, 62, 127
1, 55392, Note_off_c, 1, 50, 0
1, 55416, Note_off_c, 1, 62, 0
1, 55440, Note_on_c, 1, 64, 127
1, 55440, Note_on_c, 1, 48, 127
1, 55536, Note_off_c, 1, 64, 0
1, 55560, Note_on_c, 1, 66, 127
1, 55632, Note_off_c, 1, 48, 0
1, 55656, Note_off_c, 1, 66, 0
1, 55680, Note_on_c, 1, 67, 127
1, 55680, Note_on_c, 1, 46, 127
1, 55776, Note_off_c, 1, 67, 0
1, 55800, Note_on_c, 1, 69, 127
1, 55872, Note_off_c, 1, 46, 0
1, 55896, Note_off_c, 1, 69, 0
1, 55920, Note_on_c, 1, 70, 127
1, 55920, Note_on_c, 1, 50, 127
1, 56016, Note_off_c, 1, 70, 0
1, 56040, Note_on_c, 1, 67, 127
1, 56112, Note_off_c, 1, 50, 0
1, 56136, Note_off_c, 1, 67, 0
1, 56160, Note_on_c, 1, 75, 127
1, 56160, Note_on_c, 1, 42, 127
1, 56256, Note_off_c, 1, 75, 0
1, 56280, Note_on_c, 1, 72, 127
1, 56352, Note_off_c, 1, 42, 0
1, 56376, Note_off_c, 1, 72, 0
1, 56400, Note_on_c, 1, 74, 127
1, 56400, Note_on_c, 1, 50, 127
1, 56496, Note_off_c, 1, 74, 0
1, 56520, Note_on_c, 1, 70, 127
1, 56592, Note_off_c, 1, 50, 0
1, 56616, Note_off_c, 1, 70, 0
1, 56640, Note_on_c, 1, 72, 127
1, 56640, Note_on_c, 1, 43, 127
1, 56736, Note_off_c, 1, 72, 0
1, 56760, Note_on_c, 1, 69, 127
1, 56832, Note_off_c, 1, 43, 0
1, 56856, Note_off_c, 1, 69, 0
1, 56880, Note_on_c, 1, 70, 127
1, 56880, Note_on_c, 1, 50, 127
1, 56976, Note_off_c, 1, 70, 0
1, 57000, Note_on_c, 1, 67, 127
1, 57072, Note_off_c, 1, 50, 0
1, 57096, Note_off_c, 1, 67, 0
1, 57120, Note_on_c, 1, 69, 127
1, 57120, Note_on_c, 1, 38, 127
1, 57312, Note_off_c, 1, 69, 0
1, 57312, Note_off_c, 1, 38, 0
1, 57360, Note_on_c, 1, 62, 127
1, 57360, Note_on_c, 1, 50, 127
1, 57456, Note_off_c, 1, 50, 0
1, 57480, Note_on_c, 1, 48, 127
1, 57552, Note_off_c, 1, 62, 0
1, 57576, Note_off_c, 1, 48, 0
1, 57600, Note_on_c, 1, 67, 127
1, 57600, Note_on_c, 1, 46, 127
1, 57792, Note_off_c, 1, 67, 0
1, 57792, Note_off_c, 1, 46, 0
1, 57840, Note_on_c, 1, 70, 127
1, 57840, Note_on_c, 1, 45, 127
1, 57936, Note_off_c, 1, 70, 0
1, 57960, Note_on_c, 1, 69, 127
1, 58032, Note_off_c, 1, 45, 0
1, 58056, Note_off_c, 1, 69, 0
1, 58080, Note_on_c, 1, 70, 127
1, 58080, Note_on_c, 1, 43, 127
1, 58176, Note_off_c, 1, 70, 0
1, 58200, Note_on_c, 1, 66, 127
1, 58260, Note_off_c, 1, 43, 0
1, 58296, Note_off_c, 1, 66, 0
1, 58320, Note_on_c, 1, 67, 127
1, 58416, Note_off_c, 1, 67, 0
1, 58440, Note_on_c, 1, 62, 127
1, 58536, Note_off_c, 1, 62, 0
1, 58560, Note_on_c, 1, 71, 127
1, 58560, Note_on_c, 1, 41, 127
1, 58656, Note_off_c, 1, 71, 0
1, 58680, Note_on_c, 1, 65, 127
1, 58740, Note_off_c, 1, 41, 0
1, 58776, Note_off_c, 1, 65, 0
1, 58800, Note_on_c, 1, 67, 127
1, 58896, Note_off_c, 1, 67, 0
1, 58920, Note_on_c, 1, 62, 127
1, 59016, Note_off_c, 1, 62, 0
1, 59040, Note_on_c, 1, 72, 127
1, 59040, Note_on_c, 1, 39, 127
1, 59136, Note_off_c, 1, 72, 0
1, 59160, Note_on_c, 1, 62, 127
1, 59220, Note_off_c, 1, 39, 0
1, 59256, Note_off_c, 1, 62, 0
1, 59280, Note_on_c, 1, 63, 127
1, 59280, Note_on_c, 1, 55, 127
1, 59376, Note_off_c, 1, 63, 0
1, 59376, Note_off_c, 1, 55, 0
1, 59400, Note_on_c, 1, 67, 127
1, 59400, Note_on_c, 1, 53, 127
1, 59496, Note_off_c, 1, 67, 0
1, 59496, Note_off_c, 1, 53, 0
1, 59520, Note_on_c, 1, 72, 127
1, 59520, Note_on_c, 1, 51, 127
1, 59616, Note_off_c, 1, 72, 0
1, 59640, Note_on_c, 1, 67, 127
1, 59712, Note_off_c, 1, 51, 0
1, 59736, Note_off_c, 1, 67, 0
1, 59760, Note_on_c, 1, 74, 127
1, 59760, Note_on_c, 1, 50, 127
1, 59856, Note_off_c, 1, 74, 0
1, 59880, Note_on_c, 1, 67, 127
1, 59952, Note_off_c, 1, 50, 0
1, 59976, Note_off_c, 1, 67, 0
1, 60000, Note_on_c, 1, 75, 127
1, 60000, Note_on_c, 1, 48, 127
1, 60096, Note_off_c, 1, 75, 0
1, 60120, Note_on_c, 1, 71, 127
1, 60180, Note_off_c, 1, 48, 0
1, 60216, Note_off_c, 1, 71, 0
1, 60240, Note_on_c, 1, 72, 127
1, 60336, Note_off_c, 1, 72, 0
1, 60360, Note_on_c, 1, 67, 127
1, 60456, Note_off_c, 1, 67, 0
1, 60480, Note_on_c, 1, 75, 127
1, 60480, Note_on_c, 1, 46, 127
1, 60576, Note_off_c, 1, 75, 0
1, 60600, Note_on_c, 1, 70, 127
1, 60660, Note_off_c, 1, 46, 0
1, 60696, Note_off_c, 1, 70, 0
1, 60720, Note_on_c, 1, 72, 127
1, 60816, Note_off_c, 1, 72, 0
1, 60840, Note_on_c, 1, 67, 127
1, 60936, Note_off_c, 1, 67, 0
1, 60960, Note_on_c, 1, 77, 127
1, 60960, Note_on_c, 1, 45, 127
1, 61056, Note_off_c, 1, 77, 0
1, 61080, Note_on_c, 1, 67, 127
1, 61140, Note_off_c, 1, 45, 0
1, 61176, Note_off_c, 1, 67, 0
1, 61200, Note_on_c, 1, 69, 127
1, 61200, Note_on_c, 1, 60, 127
1, 61296, Note_off_c, 1, 69, 0
1, 61296, Note_off_c, 1, 60, 0
1, 61320, Note_on_c, 1, 72, 127
1, 61320, Note_on_c, 1, 58, 127
1, 61416, Note_off_c, 1, 72, 0
1, 61416, Note_off_c, 1, 58, 0
1, 61440, Note_on_c, 1, 78, 127
1, 61440, Note_on_c, 1, 57, 127
1, 61536, Note_off_c, 1, 78, 0
1, 61560, Note_on_c, 1, 72, 127
1, 61632, Note_off_c, 1, 57, 0
1, 61656, Note_off_c, 1, 72, 0
1, 61680, Note_on_c, 1, 79, 127
1, 61680, Note_on_c, 1, 55, 127
1, 61776, Note_off_c, 1, 79, 0
1, 61800, Note_on_c, 1, 72, 127
1, 61872, Note_off_c, 1, 55, 0
1, 61896, Note_off_c, 1, 72, 0
1, 61920, Note_on_c, 1, 81, 127
1, 61920, Note_on_c, 1, 54, 127
1, 62016, Note_off_c, 1, 81, 0
1, 62040, Note_on_c, 1, 76, 127
1, 62100, Note_off_c, 1, 54, 0
1, 62136, Note_off_c, 1, 76, 0
1, 62160, Note_on_c, 1, 78, 127
1, 62256, Note_off_c, 1, 78, 0
1, 62280, Note_on_c, 1, 74, 127
1, 62376, Note_off_c, 1, 74, 0
1, 62400, Note_on_c, 1, 82, 127
1, 62400, Note_on_c, 1, 52, 127
1, 62496, Note_off_c, 1, 82, 0
1, 62520, Note_on_c, 1, 78, 127
1, 62580, Note_off_c, 1, 52, 0
1, 62616, Note_off_c, 1, 78, 0
1, 62640, Note_on_c, 1, 79, 127
1, 62736, Note_off_c, 1, 79, 0
1, 62760, Note_on_c, 1, 74, 127
1, 62856, Note_off_c, 1, 74, 0
1, 62880, Note_on_c, 1, 84, 127
1, 62880, Note_on_c, 1, 50, 127
1, 62976, Note_off_c, 1, 84, 0
1, 63000, Note_on_c, 1, 81, 127
1, 63060, Note_off_c, 1, 50, 0
1, 63096, Note_off_c, 1, 81, 0
1, 63120, Note_on_c, 1, 74, 127
1, 63120, Note_on_c, 1, 54, 127
1, 63216, Note_off_c, 1, 74, 0
1, 63240, Note_on_c, 1, 84, 127
1, 63312, Note_off_c, 1, 54, 0
1, 63336, Note_off_c, 1, 84, 0
1, 63360, Note_on_c, 1, 82, 127
1, 63360, Note_on_c, 1, 55, 127
1, 63456, Note_off_c, 1, 82, 0
1, 63480, Note_on_c, 1, 81, 127
1, 63552, Note_off_c, 1, 55, 0
1, 63576, Note_off_c, 1, 81, 0
1, 63600, Note_on_c, 1, 79, 127
1, 63600, Note_on_c, 1, 57, 127
1, 63696, Note_off_c, 1, 79, 0
1, 63720, Note_on_c, 1, 78, 127
1, 63792, Note_off_c, 1, 57, 0
1, 63816, Note_off_c, 1, 78, 0
1, 63840, Note_on_c, 1, 79, 127
1, 63840, Note_on_c, 1, 58, 127
1, 63936, Note_off_c, 1, 79, 0
1, 63960, Note_on_c, 1, 74, 127
1, 64032, Note_off_c, 1, 58, 0
1, 64056, Note_off_c, 1, 74, 0
1, 64080, Note_on_c, 1, 75, 127
1, 64080, Note_on_c, 1, 60, 127
1, 64176, Note_off_c, 1, 75, 0
1, 64200, Note_on_c, 1, 72, 127
1, 64272, Note_off_c, 1, 60, 0
1, 64296, Note_off_c, 1, 72, 0
1, 64320, Note_on_c, 1, 70, 127
1, 64320, Note_on_c, 1, 62, 127
1, 64512, Note_off_c, 1, 70, 0
1, 64512, Note_off_c, 1, 62, 0
1, 64560, Note_on_c, 1, 69, 127
1, 64560, Note_on_c, 1, 50, 127
1, 64584, Note_off_c, 1, 69, 0
1, 64590, Note_on_c, 1, 70, 127
1, 64614, Note_off_c, 1, 70, 0
1, 64650, Note_on_c, 1, 67, 127
1, 64752, Note_off_c, 1, 50, 0
1, 64776, Note_off_c, 1, 67, 0
1, 64800, Note_on_c, 1, 67, 127
1, 64800, Note_on_c, 1, 43, 127
1, 65184, Note_off_c, 1, 67, 0
1, 65184, Note_off_c, 1, 43, 0
1, 65184, End_track
0, 0, End_of_file