0, 0, Header, 1, 1, 480
1, 0, Start_track
1, 0, Title_t, "Test"
1, 0, Tempo, 500000
1, 0, Instrument_name_t, "Church Organ"
1, 64, Note_on_c, 1, 67, 127
1, 64, Note_on_c, 1, 55, 127
1, 155, Note_on_c, 1, 71, 127
1, 245, Note_off_c, 1, 71, 0
1, 247, Note_on_c, 1, 74, 127
1, 337, Note_off_c, 1, 74, 0
1, 338, Note_on_c, 1, 79, 127
1, 338, Note_on_c, 1, 43, 127
1, 428, Note_off_c, 1, 79, 0
1, 793, Note_off_c, 1, 67, 0
1, 886, Note_off_c, 1, 55, 0
1, 1070, Note_on_c, 1, 62, 127
1, 1160, Note_off_c, 1, 62, 0
1, 1162, Note_on_c, 1, 64, 127
1, 1345, Note_on_c, 1, 72, 127
1, 1434, Note_off_c, 1, 43, 0
1, 1435, Note_off_c, 1, 72, 0
1, 1436, Note_on_c, 1, 76, 127
1, 1526, Note_off_c, 1, 76, 0
1, 1891, Note_off_c, 1, 64, 0
1, 2168, Note_on_c, 1, 60, 127
1, 2258, Note_off_c, 1, 60, 0
1, 2260, Note_on_c, 1, 57, 127
1, 2443, Note_on_c, 1, 66, 127
1, 2533, Note_off_c, 1, 66, 0
1, 2535, Note_on_c, 1, 69, 127
1, 2625, Note_off_c, 1, 69, 0
1, 2989, Note_off_c, 1, 57, 0
1, 3267, Note_on_c, 1, 54, 127
1, 3352, Note_off_c, 1, 54, 0
1, 3450, Note_on_c, 1, 59, 127
1, 3540, Note_off_c, 1, 59, 0
1, 4365, Note_on_c, 1, 52, 127
1, 4455, Note_off_c, 1, 52, 0
1, 4548, Note_on_c, 1, 61, 127
1, 4638, Note_off_c, 1, 61, 0
1, 5280, Note_on_c, 1, 61, 127
1, 5280, Note_on_c, 1, 55, 127
1, 5370, Note_off_c, 1, 61, 0
1, 5372, Note_on_c, 1, 57, 127
1, 5462, Note_off_c, 1, 57, 0
1, 5463, Note_on_c, 1, 52, 127
1, 5553, Note_off_c, 1, 55, 0
1, 5553, Note_off_c, 1, 52, 0
1, 5555, Note_on_c, 1, 54, 127
1, 5555, Note_on_c, 1, 62, 127
1, 5646, Note_on_c, 1, 57, 127
1, 5736, Note_off_c, 1, 57, 0
1, 5738, Note_on_c, 1, 61, 127
1, 5826, Note_off_c, 1, 54, 0
1, 5826, Note_off_c, 1, 62, 0
1, 5828, Note_off_c, 1, 61, 0
1, 5829, Note_on_c, 1, 62, 127
1, 5921, Note_on_c, 1, 57, 127
1, 6011, Note_off_c, 1, 57, 0
1, 6012, Note_on_c, 1, 54, 127
1, 6102, Note_off_c, 1, 54, 0
1, 6287, Note_on_c, 1, 50, 127
1, 6372, Note_off_c, 1, 62, 0
1, 6377, Note_off_c, 1, 50, 0
1, 6378, Note_on_c, 1, 54, 127
1, 6378, Note_on_c, 1, 62, 127
1, 6468, Note_off_c, 1, 54, 0
1, 6470, Note_on_c, 1, 50, 127
1, 6560, Note_off_c, 1, 50, 0
1, 6561, Note_on_c, 1, 47, 127
1, 6651, Note_off_c, 1, 62, 0
1, 6651, Note_off_c, 1, 47, 0
1, 6653, Note_on_c, 1, 62, 127
1, 6653, Note_on_c, 1, 52, 127
1, 6744, Note_on_c, 1, 61, 127
1, 6824, Note_off_c, 1, 62, 0
1, 6834, Note_off_c, 1, 61, 0
1, 6928, Note_on_c, 1, 64, 127
1, 6928, Note_on_c, 1, 40, 127
1, 7156, Note_off_c, 1, 64, 0
1, 7196, Note_off_c, 1, 52, 0
1, 7199, Note_off_c, 1, 40, 0
1, 7202, Note_on_c, 1, 66, 127
1, 7294, Note_on_c, 1, 61, 127
1, 7384, Note_off_c, 1, 61, 0
1, 7385, Note_on_c, 1, 62, 127
1, 7430, Note_off_c, 1, 66, 0
1, 7475, Note_off_c, 1, 62, 0
1, 7477, Note_on_c, 1, 67, 127
1, 7477, Note_on_c, 1, 52, 127
1, 7568, Note_on_c, 1, 61, 127
1, 7658, Note_off_c, 1, 61, 0
1, 7660, Note_on_c, 1, 62, 127
1, 7705, Note_off_c, 1, 67, 0
1, 7750, Note_off_c, 1, 52, 0
1, 7750, Note_off_c, 1, 62, 0
1, 7751, Note_on_c, 1, 69, 127
1, 7751, Note_on_c, 1, 49, 127
1, 7843, Note_on_c, 1, 61, 127
1, 7933, Note_off_c, 1, 61, 0
1, 7934, Note_on_c, 1, 62, 127
1, 7979, Note_off_c, 1, 69, 0
1, 8024, Note_off_c, 1, 49, 0
1, 8024, Note_off_c, 1, 62, 0
1, 8026, Note_on_c, 1, 71, 127
1, 8026, Note_on_c, 1, 45, 127
1, 8117, Note_on_c, 1, 61, 127
1, 8207, Note_off_c, 1, 61, 0
1, 8209, Note_on_c, 1, 62, 127
1, 8254, Note_off_c, 1, 71, 0
1, 8299, Note_off_c, 1, 45, 0
1, 8299, Note_off_c, 1, 62, 0
1, 8300, Note_on_c, 1, 69, 127
1, 8300, Note_on_c, 1, 47, 127
1, 8392, Note_on_c, 1, 61, 127
1, 8482, Note_off_c, 1, 61, 0
1, 8483, Note_on_c, 1, 62, 127
1, 8528, Note_off_c, 1, 69, 0
1, 8573, Note_off_c, 1, 47, 0
1, 8573, Note_off_c, 1, 62, 0
1, 8575, Note_on_c, 1, 67, 127
1, 8575, Note_on_c, 1, 49, 127
1, 8666, Note_on_c, 1, 61, 127
1, 8756, Note_off_c, 1, 61, 0
1, 8758, Note_on_c, 1, 62, 127
1, 8803, Note_off_c, 1, 67, 0
1, 8848, Note_off_c, 1, 49, 0
1, 8848, Note_off_c, 1, 62, 0
1, 8849, Note_on_c, 1, 50, 127
1, 8849, Note_on_c, 1, 66, 127
1, 8941, Note_on_c, 1, 61, 127
1, 9031, Note_off_c, 1, 61, 0
1, 9032, Note_on_c, 1, 62, 127
1, 9106, Note_off_c, 1, 50, 0
1, 9122, Note_off_c, 1, 66, 0
1, 9122, Note_off_c, 1, 62, 0
1, 9124, Note_on_c, 1, 52, 127
1, 9124, Note_on_c, 1, 67, 127
1, 9216, Note_on_c, 1, 61, 127
1, 9306, Note_off_c, 1, 61, 0
1, 9307, Note_on_c, 1, 62, 127
1, 9381, Note_off_c, 1, 52, 0
1, 9397, Note_off_c, 1, 67, 0
1, 9397, Note_off_c, 1, 62, 0
1, 9399, Note_on_c, 1, 54, 127
1, 9399, Note_on_c, 1, 69, 127
1, 9490, Note_on_c, 1, 61, 127
1, 9580, Note_off_c, 1, 61, 0
1, 9582, Note_on_c, 1, 62, 127
1, 9656, Note_off_c, 1, 54, 0
1, 9672, Note_off_c, 1, 69, 0
1, 9672, Note_off_c, 1, 62, 0
1, 9673, Note_on_c, 1, 55, 127
1, 9673, Note_on_c, 1, 71, 127
1, 9765, Note_on_c, 1, 61, 127
1, 9855, Note_off_c, 1, 61, 0
1, 9856, Note_on_c, 1, 62, 127
1, 9930, Note_off_c, 1, 55, 0
1, 9946, Note_off_c, 1, 71, 0
1, 9946, Note_off_c, 1, 62, 0
1, 9948, Note_on_c, 1, 54, 127
1, 9948, Note_on_c, 1, 69, 127
1, 10039, Note_on_c, 1, 61, 127
1, 10129, Note_off_c, 1, 61, 0
1, 10131, Note_on_c, 1, 62, 127
1, 10205, Note_off_c, 1, 54, 0
1, 10221, Note_off_c, 1, 69, 0
1, 10221, Note_off_c, 1, 62, 0
1, 10222, Note_on_c, 1, 52, 127
1, 10222, Note_on_c, 1, 67, 127
1, 10314, Note_on_c, 1, 61, 127
1, 10404, Note_off_c, 1, 61, 0
1, 10405, Note_on_c, 1, 62, 127
1, 10479, Note_off_c, 1, 52, 0
1, 10495, Note_off_c, 1, 67, 0
1, 10495, Note_off_c, 1, 62, 0
1, 10497, Note_on_c, 1, 50, 127
1, 10497, Note_on_c, 1, 66, 127
1, 10588, Note_on_c, 1, 61, 127
1, 10678, Note_off_c, 1, 61, 0
1, 10680, Note_on_c, 1, 62, 127
1, 10754, Note_off_c, 1, 50, 0
1, 10770, Note_off_c, 1, 66, 0
1, 10770, Note_off_c, 1, 62, 0
1, 10771, Note_on_c, 1, 54, 127
1, 10771, Note_on_c, 1, 69, 127
1, 10863, Note_on_c, 1, 61, 127
1, 10942, Note_off_c, 1, 54, 0
1, 10953, Note_off_c, 1, 61, 0
1, 10954, Note_on_c, 1, 62, 127
1, 11044, Note_off_c, 1, 69, 0
1, 11044, Note_off_c, 1, 62, 0
1, 11046, Note_on_c, 1, 47, 127
1, 11046, Note_on_c, 1, 68, 127
1, 11137, Note_on_c, 1, 71, 127
1, 11227, Note_off_c, 1, 71, 0
1, 11229, Note_on_c, 1, 74, 127
1, 11319, Note_off_c, 1, 74, 0
1, 11320, Note_on_c, 1, 77, 127
1, 11320, Note_on_c, 1, 59, 127
1, 11410, Note_off_c, 1, 77, 0
1, 11589, Note_off_c, 1, 47, 0
1, 11720, Note_off_c, 1, 59, 0
1, 11775, Note_off_c, 1, 68, 0
1, 11778, Note_on_c, 1, 68, 127
1, 11868, Note_off_c, 1, 68, 0
1, 11870, Note_on_c, 1, 71, 127
1, 11870, Note_on_c, 1, 57, 127
1, 11960, Note_off_c, 1, 71, 0
1, 11961, Note_on_c, 1, 68, 127
1, 12051, Note_off_c, 1, 68, 0
1, 12053, Note_on_c, 1, 64, 127
1, 12143, Note_off_c, 1, 57, 0
1, 12143, Note_off_c, 1, 64, 0
1, 12144, Note_on_c, 1, 56, 127
1, 12144, Note_on_c, 1, 62, 127
1, 12236, Note_on_c, 1, 65, 127
1, 12326, Note_off_c, 1, 65, 0
1, 12327, Note_on_c, 1, 68, 127
1, 12417, Note_off_c, 1, 68, 0
1, 12419, Note_on_c, 1, 71, 127
1, 12419, Note_on_c, 1, 44, 127
1, 12509, Note_off_c, 1, 71, 0
1, 12687, Note_off_c, 1, 56, 0
1, 12733, Note_off_c, 1, 44, 0
1, 12873, Note_off_c, 1, 62, 0
1, 12876, Note_on_c, 1, 62, 127
1, 12966, Note_off_c, 1, 62, 0
1, 12968, Note_on_c, 1, 65, 127
1, 12968, Note_on_c, 1, 56, 127
1, 13058, Note_off_c, 1, 65, 0
1, 13059, Note_on_c, 1, 62, 127
1, 13149, Note_off_c, 1, 62, 0
1, 13151, Note_on_c, 1, 59, 127
1, 13241, Note_off_c, 1, 56, 0
1, 13241, Note_off_c, 1, 59, 0
1, 13242, Note_on_c, 1, 60, 127
1, 13242, Note_on_c, 1, 57, 127
1, 13332, Note_off_c, 1, 60, 0
1, 13425, Note_on_c, 1, 64, 127
1, 13515, Note_off_c, 1, 64, 0
1, 13517, Note_on_c, 1, 69, 127
1, 13517, Note_on_c, 1, 76, 127
1, 13607, Note_off_c, 1, 69, 0
1, 13785, Note_off_c, 1, 57, 0
1, 13790, Note_off_c, 1, 76, 0
1, 13792, Note_on_c, 1, 64, 127
1, 13792, Note_on_c, 1, 72, 127
1, 13882, Note_off_c, 1, 64, 0
1, 13883, Note_on_c, 1, 60, 127
1, 13973, Note_off_c, 1, 60, 0
1, 13975, Note_on_c, 1, 57, 127
1, 14065, Note_off_c, 1, 72, 0
1, 14065, Note_off_c, 1, 57, 0
1, 14066, Note_on_c, 1, 60, 127
1, 14066, Note_on_c, 1, 69, 127
1, 14156, Note_off_c, 1, 60, 0
1, 14158, Note_on_c, 1, 57, 127
1, 14248, Note_off_c, 1, 57, 0
1, 14249, Note_on_c, 1, 52, 127
1, 14339, Note_off_c, 1, 69, 0
1, 14339, Note_off_c, 1, 52, 0
1, 14341, Note_on_c, 1, 64, 127
1, 14341, Note_on_c, 1, 48, 127
1, 14432, Note_on_c, 1, 52, 127
1, 14522, Note_off_c, 1, 52, 0
1, 14524, Note_on_c, 1, 57, 127
1, 14614, Note_off_c, 1, 64, 0
1, 14614, Note_off_c, 1, 57, 0
1, 14615, Note_on_c, 1, 60, 127
1, 14615, Note_on_c, 1, 76, 127
1, 14705, Note_off_c, 1, 60, 0
1, 14884, Note_off_c, 1, 48, 0
1, 14888, Note_off_c, 1, 76, 0
1, 14890, Note_on_c, 1, 57, 127
1, 14890, Note_on_c, 1, 72, 127
1, 14980, Note_off_c, 1, 57, 0
1, 14981, Note_on_c, 1, 52, 127
1, 15071, Note_off_c, 1, 52, 0
1, 15073, Note_on_c, 1, 48, 127
1, 15163, Note_off_c, 1, 72, 0
1, 15163, Note_off_c, 1, 48, 0
1, 15164, Note_on_c, 1, 52, 127
1, 15164, Note_on_c, 1, 69, 127
1, 15254, Note_off_c, 1, 52, 0
1, 15256, Note_on_c, 1, 48, 127
1, 15346, Note_off_c, 1, 48, 0
1, 15347, Note_on_c, 1, 45, 127
1, 15437, Note_off_c, 1, 69, 0
1, 15437, Note_off_c, 1, 45, 0
1, 15439, Note_on_c, 1, 42, 127
1, 15439, Note_on_c, 1, 75, 127
1, 15530, Note_on_c, 1, 78, 127
1, 15620, Note_off_c, 1, 78, 0
1, 15622, Note_on_c, 1, 81, 127
1, 15712, Note_off_c, 1, 81, 0
1, 15713, Note_on_c, 1, 84, 127
1, 15713, Note_on_c, 1, 54, 127
1, 15803, Note_off_c, 1, 84, 0
1, 15982, Note_off_c, 1, 42, 0
1, 15982, Note_off_c, 1, 75, 0
1, 16113, Note_off_c, 1, 54, 0
1, 16171, Note_on_c, 1, 75, 127
1, 16261, Note_off_c, 1, 75, 0
1, 16263, Note_on_c, 1, 78, 127
1, 16263, Note_on_c, 1, 52, 127
1, 16353, Note_off_c, 1, 78, 0
1, 16354, Note_on_c, 1, 75, 127
1, 16444, Note_off_c, 1, 75, 0
1, 16446, Note_on_c, 1, 71, 127
1, 16536, Note_off_c, 1, 52, 0
1, 16536, Note_off_c, 1, 71, 0
1, 16537, Note_on_c, 1, 69, 127
1, 16537, Note_on_c, 1, 51, 127
1, 16629, Note_on_c, 1, 72, 127
1, 16719, Note_off_c, 1, 72, 0
1, 16720, Note_on_c, 1, 75, 127
1, 16810, Note_off_c, 1, 75, 0
1, 16812, Note_on_c, 1, 78, 127
1, 16812, Note_on_c, 1, 39, 127
1, 16902, Note_off_c, 1, 78, 0
1, 17080, Note_off_c, 1, 69, 0
1, 17137, Note_off_c, 1, 51, 0
1, 17269, Note_off_c, 1, 39, 0
1, 17361, Note_on_c, 1, 72, 127
1, 17361, Note_on_c, 1, 51, 127
1, 17451, Note_off_c, 1, 72, 0
1, 17452, Note_on_c, 1, 69, 127
1, 17542, Note_off_c, 1, 69, 0
1, 17544, Note_on_c, 1, 66, 127
1, 17634, Note_off_c, 1, 51, 0
1, 17634, Note_off_c, 1, 66, 0
1, 17635, Note_on_c, 1, 52, 127
1, 17635, Note_on_c, 1, 67, 127
1, 17727, Note_on_c, 1, 63, 127
1, 17817, Note_off_c, 1, 63, 0
1, 17818, Note_on_c, 1, 64, 127
1, 17892, Note_off_c, 1, 52, 0
1, 17908, Note_off_c, 1, 67, 0
1, 17908, Note_off_c, 1, 64, 0
1, 17910, Note_on_c, 1, 54, 127
1, 17910, Note_on_c, 1, 69, 127
1, 18001, Note_on_c, 1, 63, 127
1, 18091, Note_off_c, 1, 63, 0
1, 18093, Note_on_c, 1, 64, 127
1, 18167, Note_off_c, 1, 54, 0
1, 18183, Note_off_c, 1, 69, 0
1, 18183, Note_off_c, 1, 64, 0
1, 18184, Note_on_c, 1, 55, 127
1, 18184, Note_on_c, 1, 71, 127
1, 18276, Note_on_c, 1, 63, 127
1, 18366, Note_off_c, 1, 63, 0
1, 18368, Note_on_c, 1, 64, 127
1, 18441, Note_off_c, 1, 55, 0
1, 18457, Note_off_c, 1, 71, 0
1, 18458, Note_off_c, 1, 64, 0
1, 18459, Note_on_c, 1, 57, 127
1, 18459, Note_on_c, 1, 72, 127
1, 18551, Note_on_c, 1, 63, 127
1, 18641, Note_off_c, 1, 63, 0
1, 18642, Note_on_c, 1, 64, 127
1, 18716, Note_off_c, 1, 57, 0
1, 18732, Note_off_c, 1, 72, 0
1, 18732, Note_off_c, 1, 64, 0
1, 18734, Note_on_c, 1, 55, 127
1, 18734, Note_on_c, 1, 71, 127
1, 18825, Note_on_c, 1, 63, 127
1, 18915, Note_off_c, 1, 63, 0
1, 18917, Note_on_c, 1, 64, 127
1, 18991, Note_off_c, 1, 55, 0
1, 19007, Note_off_c, 1, 71, 0
1, 19007, Note_off_c, 1, 64, 0
1, 19008, Note_on_c, 1, 54, 127
1, 19008, Note_on_c, 1, 69, 127
1, 19100, Note_on_c, 1, 63, 127
1, 19190, Note_off_c, 1, 63, 0
1, 19191, Note_on_c, 1, 64, 127
1, 19265, Note_off_c, 1, 54, 0
1, 19281, Note_off_c, 1, 69, 0
1, 19281, Note_off_c, 1, 64, 0
1, 19283, Note_on_c, 1, 52, 127
1, 19283, Note_on_c, 1, 67, 127
1, 19374, Note_on_c, 1, 63, 127
1, 19464, Note_off_c, 1, 63, 0
1, 19466, Note_on_c, 1, 64, 127
1, 19540, Note_off_c, 1, 52, 0
1, 19556, Note_off_c, 1, 67, 0
1, 19556, Note_off_c, 1, 64, 0
1, 19557, Note_on_c, 1, 55, 127
1, 19557, Note_on_c, 1, 71, 127
1, 19649, Note_on_c, 1, 63, 127
1, 19728, Note_off_c, 1, 55, 0
1, 19739, Note_off_c, 1, 63, 0
1, 19740, Note_on_c, 1, 64, 127
1, 19830, Note_off_c, 1, 71, 0
1, 19830, Note_off_c, 1, 64, 0
1, 19832, Note_on_c, 1, 69, 127
1, 19832, Note_on_c, 1, 49, 127
1, 19923, Note_on_c, 1, 68, 127
1, 20003, Note_off_c, 1, 69, 0
1, 20013, Note_off_c, 1, 68, 0
1, 20105, Note_off_c, 1, 49, 0
1, 20106, Note_on_c, 1, 71, 127
1, 20106, Note_on_c, 1, 50, 127
1, 20198, Note_on_c, 1, 68, 127
1, 20288, Note_off_c, 1, 68, 0
1, 20289, Note_on_c, 1, 69, 127
1, 20306, Note_off_c, 1, 71, 0
1, 20379, Note_off_c, 1, 50, 0
1, 20379, Note_off_c, 1, 69, 0
1, 20381, Note_on_c, 1, 73, 127
1, 20381, Note_on_c, 1, 52, 127
1, 20472, Note_on_c, 1, 68, 127
1, 20562, Note_off_c, 1, 68, 0
1, 20564, Note_on_c, 1, 69, 127
1, 20581, Note_off_c, 1, 73, 0
1, 20654, Note_off_c, 1, 52, 0
1, 20654, Note_off_c, 1, 69, 0
1, 20656, Note_on_c, 1, 74, 127
1, 20656, Note_on_c, 1, 54, 127
1, 20747, Note_on_c, 1, 68, 127
1, 20837, Note_off_c, 1, 68, 0
1, 20839, Note_on_c, 1, 69, 127
1, 20856, Note_off_c, 1, 74, 0
1, 20929, Note_off_c, 1, 54, 0
1, 20929, Note_off_c, 1, 69, 0
1, 20930, Note_on_c, 1, 76, 127
1, 20930, Note_on_c, 1, 49, 127
1, 21022, Note_on_c, 1, 68, 127
1, 21112, Note_off_c, 1, 68, 0
1, 21113, Note_on_c, 1, 69, 127
1, 21130, Note_off_c, 1, 76, 0
1, 21203, Note_off_c, 1, 49, 0
1, 21203, Note_off_c, 1, 69, 0
1, 21205, Note_on_c, 1, 78, 127
1, 21205, Note_on_c, 1, 47, 127
1, 21296, Note_on_c, 1, 68, 127
1, 21386, Note_off_c, 1, 68, 0
1, 21388, Note_on_c, 1, 69, 127
1, 21405, Note_off_c, 1, 78, 0
1, 21478, Note_off_c, 1, 47, 0
1, 21478, Note_off_c, 1, 69, 0
1, 21479, Note_on_c, 1, 79, 127
1, 21479, Note_on_c, 1, 45, 127
1, 21571, Note_on_c, 1, 76, 127
1, 21650, Note_off_c, 1, 79, 0
1, 21661, Note_off_c, 1, 76, 0
1, 21662, Note_on_c, 1, 73, 127
1, 21752, Note_off_c, 1, 45, 0
1, 21752, Note_off_c, 1, 73, 0
1, 21754, Note_on_c, 1, 69, 127
1, 21754, Note_on_c, 1, 49, 127
1, 21845, Note_on_c, 1, 73, 127
1, 21925, Note_off_c, 1, 69, 0
1, 21935, Note_off_c, 1, 73, 0
1, 21937, Note_on_c, 1, 76, 127
1, 22027, Note_off_c, 1, 49, 0
1, 22027, Note_off_c, 1, 76, 0
1, 22028, Note_on_c, 1, 50, 127
1, 22028, Note_on_c, 1, 78, 127
1, 22118, Note_off_c, 1, 50, 0
1, 22120, Note_on_c, 1, 54, 127
1, 22210, Note_off_c, 1, 54, 0
1, 22211, Note_on_c, 1, 57, 127
1, 22301, Note_off_c, 1, 57, 0
1, 22303, Note_on_c, 1, 62, 127
1, 22393, Note_off_c, 1, 62, 0
1, 22514, Note_off_c, 1, 78, 0
1, 22577, Note_on_c, 1, 81, 127
1, 22577, Note_on_c, 1, 50, 127
1, 22667, Note_off_c, 1, 81, 0
1, 22669, Note_on_c, 1, 78, 127
1, 22759, Note_off_c, 1, 78, 0
1, 22760, Note_on_c, 1, 74, 127
1, 22850, Note_off_c, 1, 74, 0
1, 22852, Note_on_c, 1, 72, 127
1, 22852, Note_on_c, 1, 62, 127
1, 22942, Note_off_c, 1, 72, 0
1, 23120, Note_off_c, 1, 50, 0
1, 23218, Note_on_c, 1, 55, 127
1, 23308, Note_off_c, 1, 55, 0
1, 23310, Note_on_c, 1, 59, 127
1, 23395, Note_off_c, 1, 62, 0
1, 23400, Note_off_c, 1, 59, 0
1, 23401, Note_on_c, 1, 62, 127
1, 23401, Note_on_c, 1, 79, 127
1, 23491, Note_off_c, 1, 62, 0
1, 23493, Note_on_c, 1, 59, 127
1, 23583, Note_off_c, 1, 59, 0
1, 23584, Note_on_c, 1, 55, 127
1, 23641, Note_off_c, 1, 79, 0
1, 23674, Note_off_c, 1, 55, 0
1, 23676, Note_on_c, 1, 79, 127
1, 23676, Note_on_c, 1, 50, 127
1, 23766, Note_off_c, 1, 79, 0
1, 23767, Note_on_c, 1, 76, 127
1, 23857, Note_off_c, 1, 76, 0
1, 23859, Note_on_c, 1, 73, 127
1, 23949, Note_off_c, 1, 73, 0
1, 23950, Note_on_c, 1, 69, 127
1, 23950, Note_on_c, 1, 62, 127
1, 24040, Note_off_c, 1, 69, 0
1, 24219, Note_off_c, 1, 50, 0
1, 24316, Note_on_c, 1, 57, 127
1, 24406, Note_off_c, 1, 57, 0
1, 24408, Note_on_c, 1, 61, 127
1, 24493, Note_off_c, 1, 62, 0
1, 24498, Note_off_c, 1, 61, 0
1, 24499, Note_on_c, 1, 62, 127
1, 24499, Note_on_c, 1, 78, 127
1, 24589, Note_off_c, 1, 62, 0
1, 24591, Note_on_c, 1, 57, 127
1, 24681, Note_off_c, 1, 57, 0
1, 24682, Note_on_c, 1, 54, 127
1, 24727, Note_off_c, 1, 78, 0
1, 24772, Note_off_c, 1, 54, 0
1, 24774, Note_on_c, 1, 78, 127
1, 24774, Note_on_c, 1, 50, 127
1, 24864, Note_off_c, 1, 78, 0
1, 24865, Note_on_c, 1, 74, 127
1, 24955, Note_off_c, 1, 74, 0
1, 24957, Note_on_c, 1, 71, 127
1, 25047, Note_off_c, 1, 71, 0
1, 25048, Note_on_c, 1, 67, 127
1, 25048, Note_on_c, 1, 62, 127
1, 25138, Note_off_c, 1, 67, 0
1, 25317, Note_off_c, 1, 50, 0
1, 25415, Note_on_c, 1, 52, 127
1, 25505, Note_off_c, 1, 52, 0
1, 25506, Note_on_c, 1, 55, 127
1, 25591, Note_off_c, 1, 62, 0
1, 25596, Note_off_c, 1, 55, 0
1, 25598, Note_on_c, 1, 59, 127
1, 25600, Note_on_c, 1, 76, 127
1, 25688, Note_off_c, 1, 59, 0
1, 25689, Note_on_c, 1, 55, 127
1, 25689, Note_on_c, 1, 74, 127
1, 25690, Note_off_c, 1, 76, 0
1, 25779, Note_off_c, 1, 55, 0
1, 25779, Note_off_c, 1, 74, 0
1, 25781, Note_on_c, 1, 52, 127
1, 25871, Note_off_c, 1, 52, 0
1, 25872, Note_on_c, 1, 76, 127
1, 25872, Note_on_c, 1, 50, 127
1, 25962, Note_off_c, 1, 76, 0
1, 25964, Note_on_c, 1, 73, 127
1, 26054, Note_off_c, 1, 73, 0
1, 26055, Note_on_c, 1, 69, 127
1, 26145, Note_off_c, 1, 69, 0
1, 26147, Note_on_c, 1, 67, 127
1, 26147, Note_on_c, 1, 62, 127
1, 26237, Note_off_c, 1, 67, 0
1, 26272, Note_off_c, 1, 50, 0
1, 26420, Note_off_c, 1, 62, 0
1, 26421, Note_on_c, 1, 50, 127
1, 26421, Note_on_c, 1, 76, 127
1, 26511, Note_off_c, 1, 50, 0
1, 26513, Note_on_c, 1, 54, 127
1, 26603, Note_off_c, 1, 54, 0
1, 26604, Note_on_c, 1, 57, 127
1, 26694, Note_off_c, 1, 76, 0
1, 26694, Note_off_c, 1, 57, 0
1, 26696, Note_on_c, 1, 74, 127
1, 26696, Note_on_c, 1, 62, 127
1, 26757, Note_off_c, 1, 74, 0
1, 26759, Note_on_c, 1, 73, 127
1, 26786, Note_off_c, 1, 62, 0
1, 26787, Note_on_c, 1, 57, 127
1, 26820, Note_off_c, 1, 73, 0
1, 26877, Note_off_c, 1, 57, 0
1, 26879, Note_on_c, 1, 54, 127
1, 26969, Note_off_c, 1, 54, 0
1, 27153, Note_on_c, 1, 50, 127
1, 27243, Note_off_c, 1, 50, 0
1, 27336, Note_on_c, 1, 50, 127
1, 27426, Note_off_c, 1, 50, 0
1, 27428, Note_on_c, 1, 48, 127
1, 27428, Note_on_c, 1, 74, 127
1, 27518, Note_off_c, 1, 48, 0
1, 27518, Note_off_c, 1, 74, 0
1, 27520, Note_on_c, 1, 47, 127
1, 27520, Note_on_c, 1, 74, 127
1, 27610, Note_off_c, 1, 47, 0
1, 27610, Note_off_c, 1, 74, 0
1, 27611, Note_on_c, 1, 50, 127
1, 27611, Note_on_c, 1, 72, 127
1, 27701, Note_off_c, 1, 50, 0
1, 27701, Note_off_c, 1, 72, 0
1, 27703, Note_on_c, 1, 54, 127
1, 27703, Note_on_c, 1, 71, 127
1, 27793, Note_off_c, 1, 54, 0
1, 27793, Note_off_c, 1, 71, 0
1, 27794, Note_on_c, 1, 55, 127
1, 27794, Note_on_c, 1, 71, 127
1, 27884, Note_off_c, 1, 55, 0
1, 27884, Note_off_c, 1, 71, 0
1, 27886, Note_on_c, 1, 50, 127
1, 27886, Note_on_c, 1, 69, 127
1, 27976, Note_off_c, 1, 50, 0
1, 27976, Note_off_c, 1, 69, 0
1, 27977, Note_on_c, 1, 47, 127
1, 27977, Note_on_c, 1, 67, 127
1, 28067, Note_off_c, 1, 47, 0
1, 28067, Note_off_c, 1, 67, 0
1, 28069, Note_on_c, 1, 50, 127
1, 28069, Note_on_c, 1, 67, 127
1, 28159, Note_off_c, 1, 50, 0
1, 28159, Note_off_c, 1, 67, 0
1, 28160, Note_on_c, 1, 47, 127
1, 28160, Note_on_c, 1, 71, 127
1, 28250, Note_off_c, 1, 47, 0
1, 28250, Note_off_c, 1, 71, 0
1, 28252, Note_on_c, 1, 43, 127
1, 28252, Note_on_c, 1, 74, 127
1, 28342, Note_off_c, 1, 43, 0
1, 28342, Note_off_c, 1, 74, 0
1, 28343, Note_on_c, 1, 47, 127
1, 28343, Note_on_c, 1, 77, 127
1, 28433, Note_off_c, 1, 47, 0
1, 28433, Note_off_c, 1, 77, 0
1, 28435, Note_on_c, 1, 43, 127
1, 28435, Note_on_c, 1, 76, 127
1, 28525, Note_off_c, 1, 43, 0
1, 28525, Note_off_c, 1, 76, 0
1, 28526, Note_on_c, 1, 41, 127
1, 28526, Note_on_c, 1, 74, 127
1, 28616, Note_off_c, 1, 41, 0
1, 28616, Note_off_c, 1, 74, 0
1, 28618, Note_on_c, 1, 40, 127
1, 28618, Note_on_c, 1, 74, 127
1, 28708, Note_off_c, 1, 40, 0
1, 28708, Note_off_c, 1, 74, 0
1, 28709, Note_on_c, 1, 43, 127
1, 28709, Note_on_c, 1, 76, 127
1, 28799, Note_off_c, 1, 43, 0
1, 28799, Note_off_c, 1, 76, 0
1, 28801, Note_on_c, 1, 47, 127
1, 28801, Note_on_c, 1, 77, 127
1, 28891, Note_off_c, 1, 47, 0
1, 28891, Note_off_c, 1, 77, 0
1, 28892, Note_on_c, 1, 48, 127
1, 28892, Note_on_c, 1, 77, 127
1, 28982, Note_off_c, 1, 48, 0
1, 28984, Note_on_c, 1, 52, 127
1, 29063, Note_off_c, 1, 77, 0
1, 29074, Note_off_c, 1, 52, 0
1, 29075, Note_on_c, 1, 55, 127
1, 29075, Note_on_c, 1, 76, 127
1, 29165, Note_off_c, 1, 55, 0
1, 29167, Note_on_c, 1, 60, 127
1, 29257, Note_off_c, 1, 60, 0
1, 29350, Note_on_c, 1, 52, 127
1, 29432, Note_off_c, 1, 76, 0
1, 29440, Note_off_c, 1, 52, 0
1, 29441, Note_on_c, 1, 55, 127
1, 29531, Note_off_c, 1, 55, 0
1, 29533, Note_on_c, 1, 52, 127
1, 29533, Note_on_c, 1, 76, 127
1, 29623, Note_off_c, 1, 52, 0
1, 29624, Note_on_c, 1, 50, 127
1, 29714, Note_off_c, 1, 76, 0
1, 29714, Note_off_c, 1, 50, 0
1, 29716, Note_on_c, 1, 49, 127
1, 29716, Note_on_c, 1, 76, 127
1, 29806, Note_off_c, 1, 49, 0
1, 29806, Note_off_c, 1, 76, 0
1, 29808, Note_on_c, 1, 52, 127
1, 29808, Note_on_c, 1, 74, 127
1, 29898, Note_off_c, 1, 52, 0
1, 29898, Note_off_c, 1, 74, 0
1, 29899, Note_on_c, 1, 55, 127
1, 29899, Note_on_c, 1, 73, 127
1, 29989, Note_off_c, 1, 55, 0
1, 29989, Note_off_c, 1, 73, 0
1, 29991, Note_on_c, 1, 57, 127
1, 29991, Note_on_c, 1, 73, 127
1, 30081, Note_off_c, 1, 57, 0
1, 30081, Note_off_c, 1, 73, 0
1, 30082, Note_on_c, 1, 52, 127
1, 30082, Note_on_c, 1, 71, 127
1, 30172, Note_off_c, 1, 52, 0
1, 30172, Note_off_c, 1, 71, 0
1, 30174, Note_on_c, 1, 49, 127
1, 30174, Note_on_c, 1, 69, 127
1, 30264, Note_off_c, 1, 49, 0
1, 30264, Note_off_c, 1, 69, 0
1, 30265, Note_on_c, 1, 52, 127
1, 30265, Note_on_c, 1, 69, 127
1, 30355, Note_off_c, 1, 52, 0
1, 30355, Note_off_c, 1, 69, 0
1, 30357, Note_on_c, 1, 49, 127
1, 30357, Note_on_c, 1, 73, 127
1, 30447, Note_off_c, 1, 49, 0
1, 30447, Note_off_c, 1, 73, 0
1, 30448, Note_on_c, 1, 45, 127
1, 30448, Note_on_c, 1, 76, 127
1, 30538, Note_off_c, 1, 45, 0
1, 30538, Note_off_c, 1, 76, 0
1, 30540, Note_on_c, 1, 49, 127
1, 30540, Note_on_c, 1, 79, 127
1, 30630, Note_off_c, 1, 49, 0
1, 30630, Note_off_c, 1, 79, 0
1, 30631, Note_on_c, 1, 45, 127
1, 30631, Note_on_c, 1, 78, 127
1, 30721, Note_off_c, 1, 45, 0
1, 30721, Note_off_c, 1, 78, 0
1, 30723, Note_on_c, 1, 43, 127
1, 30723, Note_on_c, 1, 76, 127
1, 30813, Note_off_c, 1, 43, 0
1, 30813, Note_off_c, 1, 76, 0
1, 30814, Note_on_c, 1, 42, 127
1, 30814, Note_on_c, 1, 76, 127
1, 30904, Note_off_c, 1, 42, 0
1, 30904, Note_off_c, 1, 76, 0
1, 30906, Note_on_c, 1, 45, 127
1, 30906, Note_on_c, 1, 78, 127
1, 30996, Note_off_c, 1, 45, 0
1, 30996, Note_off_c, 1, 78, 0
1, 30997, Note_on_c, 1, 49, 127
1, 30997, Note_on_c, 1, 79, 127
1, 31087, Note_off_c, 1, 49, 0
1, 31087, Note_off_c, 1, 79, 0
1, 31089, Note_on_c, 1, 50, 127
1, 31089, Note_on_c, 1, 79, 127
1, 31179, Note_off_c, 1, 50, 0
1, 31179, Note_off_c, 1, 79, 0
1, 31180, Note_on_c, 1, 78, 127
1, 31180, Note_on_c, 1, 54, 127
1, 31233, Note_on_c, 1, 79, 127
1, 31237, Note_off_c, 1, 78, 0
1, 31270, Note_off_c, 1, 54, 0
1, 31272, Note_on_c, 1, 57, 127
1, 31290, Note_off_c, 1, 79, 0
1, 31362, Note_off_c, 1, 57, 0
1, 31363, Note_on_c, 1, 62, 127
1, 31453, Note_off_c, 1, 62, 0
1, 31821, Note_on_c, 1, 50, 127
1, 31821, Note_on_c, 1, 81, 127
1, 31911, Note_off_c, 1, 50, 0
1, 31911, Note_off_c, 1, 81, 0
1, 31912, Note_on_c, 1, 54, 127
1, 31912, Note_on_c, 1, 81, 127
1, 32002, Note_off_c, 1, 54, 0
1, 32002, Note_off_c, 1, 81, 0
1, 32004, Note_on_c, 1, 50, 127
1, 32004, Note_on_c, 1, 79, 127
1, 32094, Note_off_c, 1, 50, 0
1, 32094, Note_off_c, 1, 79, 0
1, 32096, Note_on_c, 1, 45, 127
1, 32096, Note_on_c, 1, 78, 127
1, 32186, Note_off_c, 1, 45, 0
1, 32186, Note_off_c, 1, 78, 0
1, 32187, Note_on_c, 1, 50, 127
1, 32187, Note_on_c, 1, 78, 127
1, 32277, Note_off_c, 1, 50, 0
1, 32277, Note_off_c, 1, 78, 0
1, 32279, Note_on_c, 1, 45, 127
1, 32279, Note_on_c, 1, 76, 127
1, 32369, Note_off_c, 1, 45, 0
1, 32369, Note_off_c, 1, 76, 0
1, 32370, Note_on_c, 1, 42, 127
1, 32370, Note_on_c, 1, 74, 127
1, 32460, Note_off_c, 1, 42, 0
1, 32460, Note_off_c, 1, 74, 0
1, 32462, Note_on_c, 1, 74, 127
1, 32462, Note_on_c, 1, 38, 127
1, 32552, Note_off_c, 1, 74, 0
1, 32553, Note_on_c, 1, 78, 127
1, 32643, Note_off_c, 1, 78, 0
1, 32645, Note_on_c, 1, 81, 127
1, 32735, Note_off_c, 1, 38, 0
1, 32735, Note_off_c, 1, 81, 0
1, 32736, Note_on_c, 1, 84, 127
1, 32736, Note_on_c, 1, 50, 127
1, 32826, Note_off_c, 1, 84, 0
1, 32828, Note_on_c, 1, 83, 127
1, 32918, Note_off_c, 1, 83, 0
1, 32919, Note_on_c, 1, 81, 127
1, 33009, Note_off_c, 1, 50, 0
1, 33009, Note_off_c, 1, 81, 0
1, 33011, Note_on_c, 1, 81, 127
1, 33011, Note_on_c, 1, 43, 127
1, 33101, Note_off_c, 1, 81, 0
1, 33102, Note_on_c, 1, 83, 127
1, 33192, Note_off_c, 1, 83, 0
1, 33194, Note_on_c, 1, 84, 127
1, 33284, Note_off_c, 1, 84, 0
1, 33375, Note_off_c, 1, 43, 0
1, 33377, Note_on_c, 1, 47, 127
1, 33467, Note_off_c, 1, 47, 0
1, 33468, Note_on_c, 1, 50, 127
1, 33468, Note_on_c, 1, 83, 127
1, 33558, Note_off_c, 1, 50, 0
1, 33560, Note_on_c, 1, 55, 127
1, 33649, Note_off_c, 1, 83, 0
1, 33650, Note_off_c, 1, 55, 0
1, 33651, Note_on_c, 1, 57, 127
1, 33651, Note_on_c, 1, 81, 127
1, 33741, Note_off_c, 1, 57, 0
1, 33741, Note_off_c, 1, 81, 0
1, 33743, Note_on_c, 1, 59, 127
1, 33743, Note_on_c, 1, 79, 127
1, 33833, Note_off_c, 1, 59, 0
1, 33833, Note_off_c, 1, 79, 0
1, 33834, Note_on_c, 1, 59, 127
1, 33834, Note_on_c, 1, 77, 127
1, 33924, Note_off_c, 1, 59, 0
1, 33924, Note_off_c, 1, 77, 0
1, 33926, Note_on_c, 1, 60, 127
1, 33926, Note_on_c, 1, 76, 127
1, 34016, Note_off_c, 1, 60, 0
1, 34016, Note_off_c, 1, 76, 0
1, 34017, Note_on_c, 1, 62, 127
1, 34017, Note_on_c, 1, 74, 127
1, 34107, Note_off_c, 1, 62, 0
1, 34107, Note_off_c, 1, 74, 0
1, 34109, Note_on_c, 1, 72, 127
1, 34109, Note_on_c, 1, 64, 127
1, 34200, Note_on_c, 1, 76, 127
1, 34290, Note_off_c, 1, 76, 0
1, 34292, Note_on_c, 1, 79, 127
1, 34380, Note_off_c, 1, 72, 0
1, 34382, Note_off_c, 1, 64, 0
1, 34382, Note_off_c, 1, 79, 0
1, 34384, Note_on_c, 1, 60, 127
1, 34384, Note_on_c, 1, 81, 127
1, 34474, Note_off_c, 1, 60, 0
1, 34475, Note_on_c, 1, 57, 127
1, 34475, Note_on_c, 1, 78, 127
1, 34565, Note_off_c, 1, 57, 0
1, 34565, Note_off_c, 1, 78, 0
1, 34567, Note_on_c, 1, 54, 127
1, 34567, Note_on_c, 1, 74, 127
1, 34655, Note_off_c, 1, 81, 0
1, 34657, Note_off_c, 1, 54, 0
1, 34657, Note_off_c, 1, 74, 0
1, 34658, Note_on_c, 1, 71, 127
1, 34658, Note_on_c, 1, 62, 127
1, 34750, Note_on_c, 1, 74, 127
1, 34840, Note_off_c, 1, 74, 0
1, 34841, Note_on_c, 1, 78, 127
1, 34929, Note_off_c, 1, 71, 0
1, 34931, Note_off_c, 1, 62, 0
1, 34931, Note_off_c, 1, 78, 0
1, 34933, Note_on_c, 1, 59, 127
1, 34933, Note_on_c, 1, 79, 127
1, 35023, Note_off_c, 1, 59, 0
1, 35024, Note_on_c, 1, 55, 127
1, 35024, Note_on_c, 1, 76, 127
1, 35114, Note_off_c, 1, 55, 0
1, 35114, Note_off_c, 1, 76, 0
1, 35116, Note_on_c, 1, 52, 127
1, 35116, Note_on_c, 1, 72, 127
1, 35204, Note_off_c, 1, 79, 0
1, 35206, Note_off_c, 1, 52, 0
1, 35206, Note_off_c, 1, 72, 0
1, 35207, Note_on_c, 1, 69, 127
1, 35207, Note_on_c, 1, 60, 127
1, 35299, Note_on_c, 1, 72, 127
1, 35389, Note_off_c, 1, 72, 0
1, 35390, Note_on_c, 1, 76, 127
1, 35478, Note_off_c, 1, 69, 0
1, 35480, Note_off_c, 1, 60, 0
1, 35480, Note_off_c, 1, 76, 0
1, 35482, Note_on_c, 1, 57, 127
1, 35482, Note_on_c, 1, 78, 127
1, 35572, Note_off_c, 1, 57, 0
1, 35573, Note_on_c, 1, 54, 127
1, 35573, Note_on_c, 1, 74, 127
1, 35663, Note_off_c, 1, 54, 0
1, 35663, Note_off_c, 1, 74, 0
1, 35665, Note_on_c, 1, 50, 127
1, 35665, Note_on_c, 1, 71, 127
1, 35753, Note_off_c, 1, 78, 0
1, 35755, Note_off_c, 1, 50, 0
1, 35755, Note_off_c, 1, 71, 0
1, 35756, Note_on_c, 1, 67, 127
1, 35756, Note_on_c, 1, 59, 127
1, 35848, Note_on_c, 1, 71, 127
1, 35938, Note_off_c, 1, 71, 0
1, 35939, Note_on_c, 1, 74, 127
1, 36027, Note_off_c, 1, 67, 0
1, 36029, Note_off_c, 1, 59, 0
1, 36029, Note_off_c, 1, 74, 0
1, 36031, Note_on_c, 1, 55, 127
1, 36031, Note_on_c, 1, 76, 127
1, 36121, Note_off_c, 1, 55, 0
1, 36122, Note_on_c, 1, 52, 127
1, 36122, Note_on_c, 1, 72, 127
1, 36212, Note_off_c, 1, 52, 0
1, 36212, Note_off_c, 1, 72, 0
1, 36214, Note_on_c, 1, 48, 127
1, 36214, Note_on_c, 1, 69, 127
1, 36302, Note_off_c, 1, 76, 0
1, 36304, Note_off_c, 1, 48, 0
1, 36304, Note_off_c, 1, 69, 0
1, 36305, Note_on_c, 1, 66, 127
1, 36305, Note_on_c, 1, 57, 127
1, 36397, Note_on_c, 1, 69, 127
1, 36487, Note_off_c, 1, 69, 0
1, 36488, Note_on_c, 1, 72, 127
1, 36576, Note_off_c, 1, 66, 0
1, 36578, Note_off_c, 1, 57, 0
1, 36578, Note_off_c, 1, 72, 0
1, 36580, Note_on_c, 1, 54, 127
1, 36580, Note_on_c, 1, 74, 127
1, 36670, Note_off_c, 1, 54, 0
1, 36672, Note_on_c, 1, 50, 127
1, 36672, Note_on_c, 1, 71, 127
1, 36762, Note_off_c, 1, 50, 0
1, 36762, Note_off_c, 1, 71, 0
1, 36763, Note_on_c, 1, 47, 127
1, 36763, Note_on_c, 1, 67, 127
1, 36837, Note_off_c, 1, 74, 0
1, 36853, Note_off_c, 1, 47, 0
1, 36853, Note_off_c, 1, 67, 0
1, 36855, Note_on_c, 1, 64, 127
1, 36855, Note_on_c, 1, 55, 127
1, 36946, Note_on_c, 1, 67, 127
1, 37036, Note_off_c, 1, 67, 0
1, 37038, Note_on_c, 1, 71, 127
1, 37098, Note_off_c, 1, 64, 0
1, 37128, Note_off_c, 1, 55, 0
1, 37128, Note_off_c, 1, 71, 0
1, 37129, Note_on_c, 1, 52, 127
1, 37129, Note_on_c, 1, 72, 127
1, 37219, Note_off_c, 1, 52, 0
1, 37221, Note_on_c, 1, 48, 127
1, 37221, Note_on_c, 1, 69, 127
1, 37311, Note_off_c, 1, 48, 0
1, 37311, Note_off_c, 1, 69, 0
1, 37312, Note_on_c, 1, 45, 127
1, 37312, Note_on_c, 1, 66, 127
1, 37357, Note_off_c, 1, 72, 0
1, 37402, Note_off_c, 1, 45, 0
1, 37402, Note_off_c, 1, 66, 0
1, 37404, Note_on_c, 1, 62, 127
1, 37404, Note_on_c, 1, 54, 127
1, 37495, Note_on_c, 1, 66, 127
1, 37585, Note_off_c, 1, 66, 0
1, 37587, Note_on_c, 1, 69, 127
1, 37618, Note_off_c, 1, 62, 0
1, 37677, Note_off_c, 1, 54, 0
1, 37677, Note_off_c, 1, 69, 0
1, 37678, Note_on_c, 1, 50, 127
1, 37678, Note_on_c, 1, 71, 127
1, 37768, Note_off_c, 1, 50, 0
1, 37770, Note_on_c, 1, 47, 127
1, 37770, Note_on_c, 1, 67, 127
1, 37860, Note_off_c, 1, 47, 0
1, 37860, Note_off_c, 1, 67, 0
1, 37861, Note_on_c, 1, 43, 127
1, 37861, Note_on_c, 1, 64, 127
1, 37878, Note_off_c, 1, 71, 0
1, 37951, Note_off_c, 1, 43, 0
1, 37951, Note_off_c, 1, 64, 0
1, 37953, Note_on_c, 1, 52, 127
1, 37953, Note_on_c, 1, 60, 127
1, 38045, Note_off_c, 1, 52, 0
1, 38047, Note_on_c, 1, 48, 127
1, 38047, Note_on_c, 1, 64, 127
1, 38139, Note_off_c, 1, 48, 0
1, 38139, Note_off_c, 1, 64, 0
1, 38142, Note_on_c, 1, 45, 127
1, 38142, Note_on_c, 1, 67, 127
1, 38144, Note_off_c, 1, 60, 0
1, 38233, Note_off_c, 1, 45, 0
1, 38233, Note_off_c, 1, 67, 0
1, 38234, Note_on_c, 1, 54, 127
1, 38234, Note_on_c, 1, 69, 127
1, 38326, Note_off_c, 1, 54, 0
1, 38329, Note_on_c, 1, 50, 127
1, 38329, Note_on_c, 1, 66, 127
1, 38409, Note_off_c, 1, 69, 0
1, 38420, Note_off_c, 1, 50, 0
1, 38420, Note_off_c, 1, 66, 0
1, 38422, Note_on_c, 1, 47, 127
1, 38422, Note_on_c, 1, 62, 127
1, 38514, Note_off_c, 1, 47, 0
1, 38514, Note_off_c, 1, 62, 0
1, 38516, Note_on_c, 1, 55, 127
1, 38516, Note_on_c, 1, 59, 127
1, 38615, Note_on_c, 1, 62, 127
1, 38712, Note_off_c, 1, 62, 0
1, 38714, Note_on_c, 1, 66, 127
1, 38810, Note_off_c, 1, 55, 0
1, 38811, Note_off_c, 1, 66, 0
1, 38812, Note_on_c, 1, 52, 127
1, 38812, Note_on_c, 1, 67, 127
1, 38900, Note_off_c, 1, 59, 0
1, 38909, Note_on_c, 1, 64, 127
1, 39006, Note_off_c, 1, 64, 0
1, 39008, Note_on_c, 1, 60, 127
1, 39105, Note_off_c, 1, 52, 0
1, 39105, Note_off_c, 1, 60, 0
1, 39107, Note_on_c, 1, 48, 127
1, 39107, Note_on_c, 1, 57, 127
1, 39446, Note_off_c, 1, 67, 0
1, 39453, Note_off_c, 1, 48, 0
1, 39454, Note_on_c, 1, 50, 127
1, 39560, Note_off_c, 1, 57, 0
1, 39801, Note_off_c, 1, 50, 0
1, 39811, Note_on_c, 1, 67, 127
1, 39811, Note_on_c, 1, 43, 127
1, 39811, Note_on_c, 1, 59, 127
1, 39811, Note_on_c, 1, 62, 127
1, 42591, Note_off_c, 1, 67, 0
1, 42602, Note_off_c, 1, 43, 0
1, 42602, Note_off_c, 1, 59, 0
1, 42602, Note_off_c, 1, 62, 0
1, 42607, Note_on_c, 1, 67, 127
1, 42913, Note_off_c, 1, 67, 0
1, 42914, Note_on_c, 1, 69, 127
1, 43065, Note_off_c, 1, 69, 0
1, 43067, Note_on_c, 1, 67, 127
1, 43218, Note_off_c, 1, 67, 0
1, 43220, Note_on_c, 1, 66, 127
1, 43371, Note_off_c, 1, 66, 0
1, 43373, Note_on_c, 1, 67, 127
1, 43524, Note_off_c, 1, 67, 0
1, 43526, Note_on_c, 1, 69, 127
1, 43832, Note_off_c, 1, 69, 0
1, 43834, Note_on_c, 1, 71, 127
1, 43985, Note_off_c, 1, 71, 0
1, 43987, Note_on_c, 1, 69, 127
1, 44138, Note_off_c, 1, 69, 0
1, 44140, Note_on_c, 1, 67, 127
1, 44291, Note_off_c, 1, 67, 0
1, 44293, Note_on_c, 1, 69, 127
1, 44444, Note_off_c, 1, 69, 0
1, 44446, Note_on_c, 1, 71, 127
1, 44752, Note_off_c, 1, 71, 0
1, 44753, Note_on_c, 1, 69, 127
1, 45059, Note_off_c, 1, 69, 0
1, 45061, Note_on_c, 1, 67, 127
1, 45367, Note_off_c, 1, 67, 0
1, 45368, Note_on_c, 1, 62, 127
1, 45598, Note_off_c, 1, 62, 0
1, 45676, Note_on_c, 1, 72, 127
1, 46289, Note_off_c, 1, 72, 0
1, 46291, Note_on_c, 1, 71, 127
1, 46597, Note_off_c, 1, 71, 0
1, 46598, Note_on_c, 1, 69, 127
1, 46904, Note_off_c, 1, 69, 0
1, 46905, Note_on_c, 1, 67, 127
1, 47211, Note_off_c, 1, 67, 0
1, 47213, Note_on_c, 1, 66, 127
1, 47443, Note_off_c, 1, 66, 0
1, 47520, Note_on_c, 1, 76, 127
1, 48133, Note_off_c, 1, 76, 0
1, 48135, Note_on_c, 1, 74, 127
1, 48441, Note_off_c, 1, 74, 0
1, 48443, Note_on_c, 1, 76, 127
1, 48594, Note_off_c, 1, 76, 0
1, 48596, Note_on_c, 1, 74, 127
1, 48747, Note_off_c, 1, 74, 0
1, 48749, Note_on_c, 1, 72, 127
1, 48900, Note_off_c, 1, 72, 0
1, 48902, Note_on_c, 1, 71, 127
1, 49053, Note_off_c, 1, 71, 0
1, 49055, Note_on_c, 1, 69, 127
1, 49361, Note_off_c, 1, 69, 0
1, 49362, Note_on_c, 1, 72, 127
1, 49513, Note_off_c, 1, 72, 0
1, 49515, Note_on_c, 1, 71, 127
1, 49666, Note_off_c, 1, 71, 0
1, 49668, Note_on_c, 1, 69, 127
1, 49819, Note_off_c, 1, 69, 0
1, 49821, Note_on_c, 1, 67, 127
1, 49972, Note_off_c, 1, 67, 0
1, 49974, Note_on_c, 1, 62, 127
1, 49974, Note_on_c, 1, 66, 127
1, 50280, Note_off_c, 1, 62, 0
1, 50280, Note_off_c, 1, 66, 0
1, 50282, Note_on_c, 1, 64, 127
1, 50282, Note_on_c, 1, 67, 127
1, 50433, Note_off_c, 1, 64, 0
1, 50435, Note_on_c, 1, 62, 127
1, 50586, Note_off_c, 1, 67, 0
1, 50586, Note_off_c, 1, 62, 0
1, 50588, Note_on_c, 1, 61, 127
1, 50588, Note_on_c, 1, 69, 127
1, 50739, Note_off_c, 1, 61, 0
1, 50741, Note_on_c, 1, 62, 127
1, 50892, Note_off_c, 1, 69, 0
1, 50892, Note_off_c, 1, 62, 0
1, 50894, Note_on_c, 1, 64, 127
1, 50894, Note_on_c, 1, 67, 127
1, 51200, Note_off_c, 1, 64, 0
1, 51200, Note_off_c, 1, 67, 0
1, 51201, Note_on_c, 1, 66, 127
1, 51201, Note_on_c, 1, 69, 127
1, 51352, Note_off_c, 1, 66, 0
1, 51354, Note_on_c, 1, 64, 127
1, 51505, Note_off_c, 1, 69, 0
1, 51505, Note_off_c, 1, 64, 0
1, 51507, Note_on_c, 1, 62, 127
1, 51507, Note_on_c, 1, 71, 127
1, 51658, Note_off_c, 1, 62, 0
1, 51660, Note_on_c, 1, 64, 127
1, 51811, Note_off_c, 1, 71, 0
1, 51811, Note_off_c, 1, 64, 0
1, 51813, Note_on_c, 1, 66, 127
1, 51813, Note_on_c, 1, 69, 127
1, 52119, Note_off_c, 1, 66, 0
1, 52119, Note_off_c, 1, 69, 0
1, 52121, Note_on_c, 1, 71, 127
1, 52121, Note_on_c, 1, 64, 127
1, 52272, Note_off_c, 1, 71, 0
1, 52274, Note_on_c, 1, 73, 127
1, 52425, Note_off_c, 1, 64, 0
1, 52425, Note_off_c, 1, 73, 0
1, 52427, Note_on_c, 1, 74, 127
1, 52427, Note_on_c, 1, 62, 127
1, 52578, Note_off_c, 1, 74, 0
1, 52580, Note_on_c, 1, 71, 127
1, 52731, Note_off_c, 1, 62, 0
1, 52731, Note_off_c, 1, 71, 0
1, 52733, Note_on_c, 1, 73, 127
1, 52733, Note_on_c, 1, 57, 127
1, 52884, Note_off_c, 1, 73, 0
1, 52886, Note_on_c, 1, 71, 127
1, 52988, Note_off_c, 1, 57, 0
1, 53039, Note_off_c, 1, 71, 0
1, 53040, Note_on_c, 1, 73, 127
1, 53040, Note_on_c, 1, 67, 127
1, 53191, Note_off_c, 1, 73, 0
1, 53193, Note_on_c, 1, 74, 127
1, 53344, Note_off_c, 1, 74, 0
1, 53346, Note_on_c, 1, 76, 127
1, 53497, Note_off_c, 1, 76, 0
1, 53650, Note_off_c, 1, 67, 0
1, 53652, Note_on_c, 1, 74, 127
1, 53652, Note_on_c, 1, 66, 127
1, 53803, Note_off_c, 1, 74, 0
1, 53805, Note_on_c, 1, 73, 127
1, 53956, Note_off_c, 1, 66, 0
1, 53956, Note_off_c, 1, 73, 0
1, 53958, Note_on_c, 1, 74, 127
1, 53958, Note_on_c, 1, 64, 127
1, 54109, Note_off_c, 1, 74, 0
1, 54111, Note_on_c, 1, 76, 127
1, 54262, Note_off_c, 1, 64, 0
1, 54262, Note_off_c, 1, 76, 0
1, 54264, Note_on_c, 1, 78, 127
1, 54264, Note_on_c, 1, 62, 127
1, 54415, Note_off_c, 1, 78, 0
1, 54417, Note_on_c, 1, 74, 127
1, 54568, Note_off_c, 1, 62, 0
1, 54568, Note_off_c, 1, 74, 0
1, 54570, Note_on_c, 1, 76, 127
1, 54570, Note_on_c, 1, 61, 127
1, 54721, Note_off_c, 1, 76, 0
1, 54723, Note_on_c, 1, 74, 127
1, 54825, Note_off_c, 1, 61, 0
1, 54876, Note_off_c, 1, 74, 0
1, 54878, Note_on_c, 1, 76, 127
1, 54878, Note_on_c, 1, 71, 127
1, 55029, Note_off_c, 1, 76, 0
1, 55031, Note_on_c, 1, 78, 127
1, 55182, Note_off_c, 1, 78, 0
1, 55184, Note_on_c, 1, 79, 127
1, 55335, Note_off_c, 1, 79, 0
1, 55488, Note_off_c, 1, 71, 0
1, 55490, Note_on_c, 1, 69, 127
1, 55490, Note_on_c, 1, 78, 127
1, 55796, Note_off_c, 1, 69, 0
1, 55796, Note_off_c, 1, 78, 0
1, 55797, Note_on_c, 1, 71, 127
1, 55797, Note_on_c, 1, 79, 127
1, 55948, Note_off_c, 1, 71, 0
1, 55948, Note_off_c, 1, 79, 0
1, 55950, Note_on_c, 1, 69, 127
1, 55950, Note_on_c, 1, 78, 127
1, 56101, Note_off_c, 1, 69, 0
1, 56101, Note_off_c, 1, 78, 0
1, 56103, Note_on_c, 1, 67, 127
1, 56103, Note_on_c, 1, 76, 127
1, 56254, Note_off_c, 1, 67, 0
1, 56254, Note_off_c, 1, 76, 0
1, 56256, Note_on_c, 1, 66, 127
1, 56256, Note_on_c, 1, 74, 127
1, 56407, Note_off_c, 1, 66, 0
1, 56407, Note_off_c, 1, 74, 0
1, 56409, Note_on_c, 1, 64, 127
1, 56409, Note_on_c, 1, 79, 127
1, 56715, Note_off_c, 1, 64, 0
1, 56717, Note_on_c, 1, 67, 127
1, 56868, Note_off_c, 1, 67, 0
1, 56870, Note_on_c, 1, 66, 127
1, 57021, Note_off_c, 1, 66, 0
1, 57176, Note_on_c, 1, 62, 127
1, 57327, Note_off_c, 1, 62, 0
1, 57329, Note_on_c, 1, 61, 127
1, 57480, Note_off_c, 1, 79, 0
1, 57482, Note_on_c, 1, 78, 127
1, 57633, Note_off_c, 1, 61, 0
1, 57633, Note_off_c, 1, 78, 0
1, 57635, Note_on_c, 1, 76, 127
1, 57635, Note_on_c, 1, 67, 127
1, 57786, Note_off_c, 1, 76, 0
1, 57788, Note_on_c, 1, 79, 127
1, 57939, Note_off_c, 1, 67, 0
1, 57941, Note_on_c, 1, 74, 127
1, 57941, Note_on_c, 1, 66, 127
1, 58043, Note_off_c, 1, 79, 0
1, 58094, Note_off_c, 1, 74, 0
1, 58247, Note_off_c, 1, 66, 0
1, 58248, Note_on_c, 1, 73, 127
1, 58248, Note_on_c, 1, 64, 127
1, 58401, Note_off_c, 1, 73, 0
1, 58554, Note_off_c, 1, 64, 0
1, 58556, Note_on_c, 1, 71, 127
1, 58556, Note_on_c, 1, 62, 127
1, 58709, Note_off_c, 1, 71, 0
1, 58862, Note_off_c, 1, 62, 0
1, 58863, Note_on_c, 1, 69, 127
1, 58863, Note_on_c, 1, 61, 127
1, 59016, Note_off_c, 1, 69, 0
1, 59169, Note_off_c, 1, 61, 0
1, 59171, Note_on_c, 1, 62, 127
1, 59171, Note_on_c, 1, 78, 127
1, 59322, Note_off_c, 1, 62, 0
1, 59324, Note_on_c, 1, 64, 127
1, 59475, Note_off_c, 1, 78, 0
1, 59475, Note_off_c, 1, 64, 0
1, 59477, Note_on_c, 1, 66, 127
1, 59477, Note_on_c, 1, 74, 127
1, 59631, Note_on_c, 1, 62, 127
1, 59781, Note_off_c, 1, 66, 0
1, 59782, Note_off_c, 1, 62, 0
1, 59783, Note_off_c, 1, 74, 0
1, 59784, Note_on_c, 1, 67, 127
1, 59784, Note_on_c, 1, 76, 127
1, 59938, Note_on_c, 1, 62, 127
1, 60088, Note_off_c, 1, 67, 0
1, 60089, Note_off_c, 1, 62, 0
1, 60090, Note_off_c, 1, 76, 0
1, 60091, Note_on_c, 1, 69, 127
1, 60091, Note_on_c, 1, 78, 127
1, 60246, Note_on_c, 1, 62, 127
1, 60395, Note_off_c, 1, 69, 0
1, 60397, Note_off_c, 1, 78, 0
1, 60397, Note_off_c, 1, 62, 0
1, 60399, Note_on_c, 1, 71, 127
1, 60399, Note_on_c, 1, 79, 127
1, 60553, Note_on_c, 1, 62, 127
1, 60703, Note_off_c, 1, 71, 0
1, 60704, Note_off_c, 1, 62, 0
1, 60705, Note_off_c, 1, 79, 0
1, 60706, Note_on_c, 1, 72, 127
1, 60706, Note_on_c, 1, 81, 127
1, 60861, Note_on_c, 1, 62, 127
1, 61010, Note_off_c, 1, 72, 0
1, 61012, Note_off_c, 1, 62, 0
1, 61014, Note_on_c, 1, 55, 127
1, 61014, Note_on_c, 1, 71, 127
1, 61319, Note_off_c, 1, 81, 0
1, 61320, Note_off_c, 1, 55, 0
1, 61321, Note_on_c, 1, 57, 127
1, 61321, Note_on_c, 1, 74, 127
1, 61472, Note_off_c, 1, 57, 0
1, 61625, Note_off_c, 1, 74, 0
1, 61627, Note_on_c, 1, 54, 127
1, 61627, Note_on_c, 1, 79, 127
1, 61778, Note_off_c, 1, 54, 0
1, 61932, Note_off_c, 1, 71, 0
1, 62239, Note_off_c, 1, 79, 0
1, 62241, Note_on_c, 1, 59, 127
1, 62241, Note_on_c, 1, 78, 127
1, 62392, Note_off_c, 1, 59, 0
1, 62545, Note_off_c, 1, 78, 0
1, 62547, Note_on_c, 1, 76, 127
1, 62851, Note_off_c, 1, 76, 0
1, 62853, Note_on_c, 1, 59, 127
1, 62853, Note_on_c, 1, 74, 127
1, 63159, Note_off_c, 1, 59, 0
1, 63159, Note_off_c, 1, 74, 0
1, 63160, Note_on_c, 1, 57, 127
1, 63160, Note_on_c, 1, 66, 127
1, 63160, Note_on_c, 1, 72, 127
1, 63466, Note_off_c, 1, 57, 0
1, 63466, Note_off_c, 1, 66, 0
1, 63466, Note_off_c, 1, 72, 0
1, 63468, Note_on_c, 1, 55, 127
1, 63468, Note_on_c, 1, 71, 127
1, 63468, Note_on_c, 1, 67, 127
1, 63774, Note_off_c, 1, 55, 0
1, 63774, Note_off_c, 1, 71, 0
1, 63775, Note_on_c, 1, 50, 127
1, 63775, Note_on_c, 1, 69, 127
1, 64046, Note_off_c, 1, 50, 0
1, 64081, Note_off_c, 1, 67, 0
1, 64083, Note_on_c, 1, 66, 127
1, 64083, Note_on_c, 1, 60, 127
1, 64234, Note_off_c, 1, 66, 0
1, 64382, Note_off_c, 1, 69, 0
1, 64695, Note_off_c, 1, 60, 0
1, 64696, Note_on_c, 1, 67, 127
1, 64696, Note_on_c, 1, 59, 127
1, 64847, Note_off_c, 1, 67, 0
1, 64849, Note_on_c, 1, 66, 127
1, 65000, Note_off_c, 1, 59, 0
1, 65000, Note_off_c, 1, 66, 0
1, 65002, Note_on_c, 1, 67, 127
1, 65002, Note_on_c, 1, 57, 127
1, 65153, Note_off_c, 1, 67, 0
1, 65155, Note_on_c, 1, 69, 127
1, 65306, Note_off_c, 1, 57, 0
1, 65306, Note_off_c, 1, 69, 0
1, 65308, Note_on_c, 1, 71, 127
1, 65308, Note_on_c, 1, 55, 127
1, 65308, Note_on_c, 1, 74, 127
1, 65459, Note_off_c, 1, 71, 0
1, 65461, Note_on_c, 1, 67, 127
1, 65612, Note_off_c, 1, 55, 0
1, 65612, Note_off_c, 1, 67, 0
1, 65614, Note_on_c, 1, 69, 127
1, 65614, Note_on_c, 1, 54, 127
1, 65765, Note_off_c, 1, 69, 0
1, 65885, Note_off_c, 1, 54, 0
1, 65920, Note_off_c, 1, 74, 0
1, 65922, Note_on_c, 1, 69, 127
1, 65922, Note_on_c, 1, 72, 127
1, 65922, Note_on_c, 1, 64, 127
1, 66073, Note_off_c, 1, 69, 0
1, 66075, Note_on_c, 1, 71, 127
1, 66226, Note_off_c, 1, 72, 0
1, 66226, Note_off_c, 1, 71, 0
1, 66228, Note_on_c, 1, 81, 127
1, 66532, Note_off_c, 1, 64, 0
1, 66534, Note_on_c, 1, 62, 127
1, 66675, Note_off_c, 1, 81, 0
1, 66840, Note_off_c, 1, 62, 0
1, 66841, Note_on_c, 1, 64, 127
1, 66841, Note_on_c, 1, 72, 127
1, 66841, Note_on_c, 1, 79, 127
1, 66992, Note_off_c, 1, 64, 0
1, 66992, Note_off_c, 1, 72, 0
1, 66994, Note_on_c, 1, 62, 127
1, 66994, Note_on_c, 1, 71, 127
1, 67145, Note_off_c, 1, 62, 0
1, 67145, Note_off_c, 1, 71, 0
1, 67147, Note_on_c, 1, 60, 127
1, 67147, Note_on_c, 1, 69, 127
1, 67298, Note_off_c, 1, 60, 0
1, 67298, Note_off_c, 1, 69, 0
1, 67300, Note_on_c, 1, 59, 127
1, 67300, Note_on_c, 1, 67, 127
1, 67451, Note_off_c, 1, 59, 0
1, 67451, Note_off_c, 1, 67, 0
1, 67453, Note_on_c, 1, 57, 127
1, 67759, Note_off_c, 1, 79, 0
1, 67759, Note_off_c, 1, 57, 0
1, 67761, Note_on_c, 1, 81, 127
1, 67912, Note_off_c, 1, 81, 0
1, 68067, Note_on_c, 1, 78, 127
1, 68218, Note_off_c, 1, 78, 0
1, 68220, Note_on_c, 1, 55, 127
1, 68220, Note_on_c, 1, 76, 127
1, 68371, Note_off_c, 1, 55, 0
1, 68371, Note_off_c, 1, 76, 0
1, 68373, Note_on_c, 1, 54, 127
1, 68373, Note_on_c, 1, 74, 127
1, 68985, Note_off_c, 1, 54, 0
1, 68986, Note_on_c, 1, 52, 127
1, 69292, Note_off_c, 1, 52, 0
1, 69294, Note_on_c, 1, 50, 127
1, 69294, Note_on_c, 1, 66, 127
1, 69445, Note_off_c, 1, 50, 0
1, 69597, Note_off_c, 1, 66, 0
1, 69753, Note_on_c, 1, 48, 127
1, 69904, Note_off_c, 1, 48, 0
1, 69906, Note_on_c, 1, 47, 127
1, 70057, Note_off_c, 1, 47, 0
1, 70059, Note_on_c, 1, 45, 127
1, 70210, Note_off_c, 1, 45, 0
1, 70212, Note_on_c, 1, 43, 127
1, 70363, Note_off_c, 1, 43, 0
1, 70516, Note_off_c, 1, 74, 0
1, 70518, Note_on_c, 1, 47, 127
1, 70518, Note_on_c, 1, 65, 127
1, 70518, Note_on_c, 1, 74, 127
1, 70672, Note_on_c, 1, 43, 127
1, 70822, Note_off_c, 1, 47, 0
1, 70823, Note_off_c, 1, 43, 0
1, 70824, Note_off_c, 1, 65, 0
1, 70824, Note_off_c, 1, 74, 0
1, 70825, Note_on_c, 1, 48, 127
1, 70825, Note_on_c, 1, 64, 127
1, 70825, Note_on_c, 1, 72, 127
1, 70979, Note_on_c, 1, 43, 127
1, 71129, Note_off_c, 1, 48, 0
1, 71130, Note_off_c, 1, 43, 0
1, 71131, Note_off_c, 1, 64, 0
1, 71131, Note_off_c, 1, 72, 0
1, 71132, Note_on_c, 1, 50, 127
1, 71132, Note_on_c, 1, 62, 127
1, 71132, Note_on_c, 1, 71, 127
1, 71287, Note_on_c, 1, 43, 127
1, 71436, Note_off_c, 1, 50, 0
1, 71438, Note_off_c, 1, 62, 0
1, 71438, Note_off_c, 1, 71, 0
1, 71438, Note_off_c, 1, 43, 0
1, 71440, Note_on_c, 1, 52, 127
1, 71440, Note_on_c, 1, 60, 127
1, 71440, Note_on_c, 1, 69, 127
1, 71594, Note_on_c, 1, 43, 127
1, 71744, Note_off_c, 1, 52, 0
1, 71745, Note_off_c, 1, 43, 0
1, 71746, Note_off_c, 1, 60, 0
1, 71746, Note_off_c, 1, 69, 0
1, 71747, Note_on_c, 1, 67, 127
1, 71747, Note_on_c, 1, 59, 127
1, 71747, Note_on_c, 1, 53, 127
1, 71902, Note_on_c, 1, 43, 127
1, 72039, Note_off_c, 1, 67, 0
1, 72044, Note_off_c, 1, 59, 0
1, 72051, Note_off_c, 1, 53, 0
1, 72053, Note_off_c, 1, 43, 0
1, 72055, Note_on_c, 1, 52, 127
1, 72055, Note_on_c, 1, 72, 127
1, 72206, Note_off_c, 1, 52, 0
1, 72206, Note_off_c, 1, 72, 0
1, 72208, Note_on_c, 1, 50, 127
1, 72208, Note_on_c, 1, 74, 127
1, 72359, Note_off_c, 1, 50, 0
1, 72359, Note_off_c, 1, 74, 0
1, 72361, Note_on_c, 1, 48, 127
1, 72361, Note_on_c, 1, 76, 127
1, 72515, Note_on_c, 1, 52, 127
1, 72649, Note_off_c, 1, 48, 0
1, 72666, Note_off_c, 1, 52, 0
1, 72668, Note_on_c, 1, 47, 127
1, 72668, Note_on_c, 1, 67, 127
1, 72956, Note_off_c, 1, 47, 0
1, 72974, Note_off_c, 1, 67, 0
1, 72976, Note_on_c, 1, 45, 127
1, 72976, Note_on_c, 1, 66, 127
1, 73127, Note_off_c, 1, 76, 0
1, 73129, Note_on_c, 1, 74, 127
1, 73263, Note_off_c, 1, 45, 0
1, 73280, Note_off_c, 1, 74, 0
1, 73282, Note_on_c, 1, 72, 127
1, 73282, Note_on_c, 1, 43, 127
1, 73433, Note_off_c, 1, 72, 0
1, 73435, Note_on_c, 1, 71, 127
1, 73537, Note_off_c, 1, 43, 0
1, 73588, Note_off_c, 1, 71, 0
1, 73589, Note_on_c, 1, 69, 127
1, 73589, Note_on_c, 1, 42, 127
1, 73740, Note_off_c, 1, 69, 0
1, 73780, Note_off_c, 1, 42, 0
1, 73897, Note_on_c, 1, 50, 127
1, 74048, Note_off_c, 1, 50, 0
1, 74508, Note_off_c, 1, 66, 0
1, 74819, Note_on_c, 1, 64, 127
1, 75433, Note_on_c, 1, 40, 127
1, 75624, Note_off_c, 1, 40, 0
1, 76353, Note_off_c, 1, 64, 0
1, 76664, Note_on_c, 1, 62, 127
1, 77276, Note_on_c, 1, 38, 127
1, 77467, Note_off_c, 1, 38, 0
1, 77582, Note_off_c, 1, 62, 0
1, 77583, Note_on_c, 1, 67, 127
1, 77583, Note_on_c, 1, 47, 127
1, 77583, Note_on_c, 1, 62, 127
1, 77734, Note_off_c, 1, 67, 0
1, 77736, Note_on_c, 1, 69, 127
1, 77887, Note_off_c, 1, 47, 0
1, 77887, Note_off_c, 1, 62, 0
1, 77887, Note_off_c, 1, 69, 0
1, 77889, Note_on_c, 1, 60, 127
1, 77889, Note_on_c, 1, 45, 127
1, 77889, Note_on_c, 1, 71, 127
1, 78040, Note_off_c, 1, 60, 0
1, 78042, Note_on_c, 1, 62, 127
1, 78193, Note_off_c, 1, 45, 0
1, 78193, Note_off_c, 1, 62, 0
1, 78195, Note_on_c, 1, 64, 127
1, 78195, Note_on_c, 1, 43, 127
1, 78346, Note_off_c, 1, 64, 0
1, 78499, Note_off_c, 1, 43, 0
1, 78655, Note_off_c, 1, 71, 0
1, 78809, Note_on_c, 1, 59, 127
1, 78809, Note_on_c, 1, 43, 127
1, 78809, Note_on_c, 1, 64, 127
1, 78960, Note_off_c, 1, 59, 0
1, 78962, Note_on_c, 1, 60, 127
1, 79113, Note_off_c, 1, 43, 0
1, 79113, Note_off_c, 1, 64, 0
1, 79113, Note_off_c, 1, 60, 0
1, 79115, Note_on_c, 1, 62, 127
1, 79115, Note_on_c, 1, 42, 127
1, 79115, Note_on_c, 1, 69, 127
1, 79266, Note_off_c, 1, 62, 0
1, 79268, Note_on_c, 1, 60, 127
1, 79419, Note_off_c, 1, 42, 0
1, 79419, Note_off_c, 1, 60, 0
1, 79421, Note_on_c, 1, 43, 127
1, 79421, Note_on_c, 1, 59, 127
1, 79572, Note_off_c, 1, 69, 0
1, 79572, Note_off_c, 1, 43, 0
1, 79574, Note_on_c, 1, 55, 127
1, 79574, Note_on_c, 1, 67, 127
1, 79725, Note_off_c, 1, 59, 0
1, 79725, Note_off_c, 1, 55, 0
1, 79725, Note_off_c, 1, 67, 0
1, 79727, Note_on_c, 1, 53, 127
1, 79727, Note_on_c, 1, 60, 127
1, 79727, Note_on_c, 1, 69, 127
1, 79878, Note_off_c, 1, 53, 0
1, 79880, Note_on_c, 1, 52, 127
1, 80031, Note_off_c, 1, 60, 0
1, 80031, Note_off_c, 1, 69, 0
1, 80031, Note_off_c, 1, 52, 0
1, 80033, Note_on_c, 1, 50, 127
1, 80033, Note_on_c, 1, 62, 127
1, 80033, Note_on_c, 1, 71, 127
1, 80184, Note_off_c, 1, 50, 0
1, 80186, Note_on_c, 1, 53, 127
1, 80337, Note_off_c, 1, 62, 0
1, 80337, Note_off_c, 1, 71, 0
1, 80337, Note_off_c, 1, 53, 0
1, 80339, Note_on_c, 1, 52, 127
1, 80339, Note_on_c, 1, 72, 127
1, 80339, Note_on_c, 1, 67, 127
1, 80490, Note_off_c, 1, 52, 0
1, 80490, Note_off_c, 1, 72, 0
1, 80492, Note_on_c, 1, 53, 127
1, 80492, Note_on_c, 1, 74, 127
1, 80594, Note_off_c, 1, 67, 0
1, 80645, Note_off_c, 1, 53, 0
1, 80645, Note_off_c, 1, 74, 0
1, 80646, Note_on_c, 1, 52, 127
1, 80646, Note_on_c, 1, 72, 127
1, 80646, Note_on_c, 1, 57, 127
1, 80797, Note_off_c, 1, 52, 0
1, 80797, Note_off_c, 1, 72, 0
1, 80799, Note_on_c, 1, 50, 127
1, 80799, Note_on_c, 1, 71, 127
1, 80950, Note_off_c, 1, 50, 0
1, 80950, Note_off_c, 1, 71, 0
1, 80952, Note_on_c, 1, 48, 127
1, 80952, Note_on_c, 1, 69, 127
1, 81103, Note_off_c, 1, 48, 0
1, 81103, Note_off_c, 1, 69, 0
1, 81105, Note_on_c, 1, 67, 127
1, 81256, Note_off_c, 1, 57, 0
1, 81256, Note_off_c, 1, 67, 0
1, 81258, Note_on_c, 1, 67, 127
1, 81258, Note_on_c, 1, 50, 127
1, 81258, Note_on_c, 1, 59, 127
1, 81333, Note_off_c, 1, 67, 0
1, 81336, Note_on_c, 1, 66, 127
1, 81411, Note_off_c, 1, 50, 0
1, 81411, Note_off_c, 1, 66, 0
1, 81413, Note_on_c, 1, 52, 127
1, 81565, Note_off_c, 1, 59, 0
1, 81566, Note_off_c, 1, 52, 0
1, 81567, Note_on_c, 1, 67, 127
1, 81567, Note_on_c, 1, 50, 127
1, 81567, Note_on_c, 1, 60, 127
1, 81642, Note_off_c, 1, 67, 0
1, 81644, Note_on_c, 1, 66, 127
1, 81719, Note_off_c, 1, 66, 0
1, 81720, Note_off_c, 1, 50, 0
1, 81722, Note_on_c, 1, 64, 127
1, 81722, Note_on_c, 1, 48, 127
1, 81797, Note_off_c, 1, 64, 0
1, 81874, Note_off_c, 1, 60, 0
1, 81875, Note_off_c, 1, 48, 0
1, 81876, Note_on_c, 1, 47, 127
1, 81876, Note_on_c, 1, 62, 127
1, 81876, Note_on_c, 1, 67, 127
1, 82027, Note_off_c, 1, 47, 0
1, 82029, Note_on_c, 1, 50, 127
1, 82180, Note_off_c, 1, 62, 0
1, 82180, Note_off_c, 1, 50, 0
1, 82182, Note_on_c, 1, 48, 127
1, 82182, Note_on_c, 1, 64, 127
1, 82333, Note_off_c, 1, 67, 0
1, 82333, Note_off_c, 1, 48, 0
1, 82335, Note_on_c, 1, 71, 127
1, 82453, Note_off_c, 1, 64, 0
1, 82488, Note_off_c, 1, 71, 0
1, 82490, Note_on_c, 1, 48, 127
1, 82490, Note_on_c, 1, 69, 127
1, 82490, Note_on_c, 1, 54, 127
1, 82641, Note_off_c, 1, 48, 0
1, 82641, Note_off_c, 1, 69, 0
1, 82643, Note_on_c, 1, 47, 127
1, 82643, Note_on_c, 1, 67, 127
1, 82794, Note_off_c, 1, 47, 0
1, 82794, Note_off_c, 1, 67, 0
1, 82796, Note_on_c, 1, 45, 127
1, 82796, Note_on_c, 1, 66, 127
1, 82947, Note_off_c, 1, 45, 0
1, 82947, Note_off_c, 1, 66, 0
1, 82949, Note_on_c, 1, 64, 127
1, 83100, Note_off_c, 1, 54, 0
1, 83100, Note_off_c, 1, 64, 0
1, 83102, Note_on_c, 1, 47, 127
1, 83102, Note_on_c, 1, 55, 127
1, 83102, Note_on_c, 1, 62, 127
1, 83253, Note_off_c, 1, 47, 0
1, 83255, Note_on_c, 1, 48, 127
1, 83406, Note_off_c, 1, 55, 0
1, 83406, Note_off_c, 1, 48, 0
1, 83561, Note_on_c, 1, 45, 127
1, 83561, Note_on_c, 1, 57, 127
1, 83712, Note_off_c, 1, 45, 0
1, 83712, Note_off_c, 1, 57, 0
1, 83714, Note_on_c, 1, 43, 127
1, 83714, Note_on_c, 1, 59, 127
1, 83865, Note_off_c, 1, 43, 0
1, 83865, Note_off_c, 1, 59, 0
1, 83867, Note_on_c, 1, 61, 127
1, 84018, Note_off_c, 1, 62, 0
1, 84018, Note_off_c, 1, 61, 0
1, 84020, Note_on_c, 1, 47, 127
1, 84020, Note_on_c, 1, 62, 127
1, 84171, Note_off_c, 1, 47, 0
1, 84173, Note_on_c, 1, 49, 127
1, 84324, Note_off_c, 1, 62, 0
1, 84324, Note_off_c, 1, 49, 0
1, 84326, Note_on_c, 1, 50, 127
1, 84326, Note_on_c, 1, 59, 127
1, 84477, Note_off_c, 1, 50, 0
1, 84477, Note_off_c, 1, 59, 0
1, 84479, Note_on_c, 1, 52, 127
1, 84479, Note_on_c, 1, 61, 127
1, 84630, Note_off_c, 1, 52, 0
1, 84630, Note_off_c, 1, 61, 0
1, 84640, Note_on_c, 1, 54, 127
1, 84640, Note_on_c, 1, 62, 127
1, 84791, Note_off_c, 1, 54, 0
1, 84791, Note_off_c, 1, 62, 0
1, 84793, Note_on_c, 1, 55, 127
1, 84793, Note_on_c, 1, 64, 127
1, 84944, Note_off_c, 1, 55, 0
1, 84944, Note_off_c, 1, 64, 0
1, 84946, Note_on_c, 1, 54, 127
1, 84946, Note_on_c, 1, 66, 127
1, 84946, Note_on_c, 1, 69, 127
1, 85252, Note_off_c, 1, 54, 0
1, 85252, Note_off_c, 1, 66, 0
1, 85252, Note_off_c, 1, 69, 0
1, 85253, Note_on_c, 1, 67, 127
1, 85253, Note_on_c, 1, 64, 127
1, 85253, Note_on_c, 1, 59, 127
1, 85404, Note_off_c, 1, 67, 0
1, 85406, Note_on_c, 1, 69, 127
1, 85557, Note_off_c, 1, 64, 0
1, 85557, Note_off_c, 1, 69, 0
1, 85559, Note_on_c, 1, 71, 127
1, 85559, Note_on_c, 1, 47, 127
1, 85559, Note_on_c, 1, 63, 127
1, 85710, Note_off_c, 1, 71, 0
1, 85859, Note_off_c, 1, 59, 0
1, 85863, Note_off_c, 1, 47, 0
1, 85863, Note_off_c, 1, 63, 0
1, 85865, Note_on_c, 1, 52, 127
1, 85865, Note_on_c, 1, 64, 127
1, 85865, Note_on_c, 1, 67, 127
1, 86171, Note_off_c, 1, 52, 0
1, 86171, Note_off_c, 1, 64, 0
1, 86171, Note_off_c, 1, 67, 0
1, 86173, Note_on_c, 1, 66, 127
1, 86173, Note_on_c, 1, 62, 127
1, 86173, Note_on_c, 1, 57, 127
1, 86324, Note_off_c, 1, 66, 0
1, 86326, Note_on_c, 1, 67, 127
1, 86477, Note_off_c, 1, 62, 0
1, 86477, Note_off_c, 1, 67, 0
1, 86479, Note_on_c, 1, 69, 127
1, 86479, Note_on_c, 1, 45, 127
1, 86479, Note_on_c, 1, 61, 127
1, 86630, Note_off_c, 1, 69, 0
1, 86779, Note_off_c, 1, 57, 0
1, 86783, Note_off_c, 1, 45, 0
1, 86783, Note_off_c, 1, 61, 0
1, 86785, Note_on_c, 1, 50, 127
1, 86785, Note_on_c, 1, 62, 127
1, 86785, Note_on_c, 1, 66, 127
1, 87091, Note_off_c, 1, 50, 0
1, 87091, Note_off_c, 1, 62, 0
1, 87091, Note_off_c, 1, 66, 0
1, 87092, Note_on_c, 1, 61, 127
1, 87092, Note_on_c, 1, 52, 127
1, 87092, Note_on_c, 1, 67, 127
1, 87243, Note_off_c, 1, 61, 0
1, 87245, Note_on_c, 1, 59, 127
1, 87396, Note_off_c, 1, 52, 0
1, 87396, Note_off_c, 1, 67, 0
1, 87396, Note_off_c, 1, 59, 0
1, 87398, Note_on_c, 1, 57, 127
1, 87398, Note_on_c, 1, 69, 127
1, 87398, Note_on_c, 1, 54, 127
1, 87549, Note_off_c, 1, 57, 0
1, 87551, Note_on_c, 1, 60, 127
1, 87702, Note_off_c, 1, 69, 0
1, 87702, Note_off_c, 1, 60, 0
1, 87704, Note_on_c, 1, 59, 127
1, 87704, Note_on_c, 1, 74, 127
1, 87855, Note_off_c, 1, 59, 0
1, 87942, Note_off_c, 1, 74, 0
1, 88008, Note_off_c, 1, 54, 0
1, 88010, Note_on_c, 1, 66, 127
1, 88010, Note_on_c, 1, 59, 127
1, 88010, Note_on_c, 1, 55, 127
1, 88085, Note_off_c, 1, 66, 0
1, 88087, Note_on_c, 1, 64, 127
1, 88162, Note_off_c, 1, 64, 0
1, 88163, Note_off_c, 1, 59, 0
1, 88165, Note_on_c, 1, 57, 127
1, 88317, Note_off_c, 1, 55, 0
1, 88318, Note_off_c, 1, 57, 0
1, 88319, Note_on_c, 1, 66, 127
1, 88319, Note_on_c, 1, 55, 127
1, 88319, Note_on_c, 1, 49, 127
1, 88394, Note_off_c, 1, 66, 0
1, 88396, Note_on_c, 1, 64, 127
1, 88471, Note_off_c, 1, 64, 0
1, 88472, Note_off_c, 1, 55, 0
1, 88474, Note_on_c, 1, 62, 127
1, 88474, Note_on_c, 1, 59, 127
1, 88549, Note_off_c, 1, 62, 0
1, 88626, Note_off_c, 1, 49, 0
1, 88627, Note_off_c, 1, 59, 0
1, 88628, Note_on_c, 1, 57, 127
1, 88628, Note_on_c, 1, 66, 127
1, 88628, Note_on_c, 1, 50, 127
1, 88779, Note_off_c, 1, 57, 0
1, 88781, Note_on_c, 1, 59, 127
1, 88932, Note_off_c, 1, 66, 0
1, 88932, Note_off_c, 1, 59, 0
1, 88934, Note_on_c, 1, 67, 127
1, 89087, Note_on_c, 1, 55, 127
1, 89238, Note_off_c, 1, 67, 0
1, 89238, Note_off_c, 1, 55, 0
1, 89240, Note_on_c, 1, 54, 127
1, 89240, Note_on_c, 1, 69, 127
1, 89391, Note_off_c, 1, 54, 0
1, 89393, Note_off_c, 1, 50, 0
1, 89544, Note_off_c, 1, 69, 0
1, 89546, Note_on_c, 1, 55, 127
1, 89546, Note_on_c, 1, 71, 127
1, 89697, Note_off_c, 1, 55, 0
1, 89699, Note_on_c, 1, 57, 127
1, 89784, Note_off_c, 1, 71, 0
1, 89850, Note_off_c, 1, 57, 0
1, 89852, Note_on_c, 1, 62, 127
1, 89852, Note_on_c, 1, 55, 127
1, 89927, Note_off_c, 1, 62, 0
1, 89929, Note_on_c, 1, 61, 127
1, 90004, Note_off_c, 1, 61, 0
1, 90005, Note_off_c, 1, 55, 0
1, 90006, Note_on_c, 1, 62, 127
1, 90006, Note_on_c, 1, 54, 127
1, 90081, Note_off_c, 1, 62, 0
1, 90084, Note_on_c, 1, 61, 127
1, 90159, Note_off_c, 1, 54, 0
1, 90159, Note_off_c, 1, 61, 0
1, 90161, Note_on_c, 1, 62, 127
1, 90161, Note_on_c, 1, 52, 127
1, 90236, Note_off_c, 1, 62, 0
1, 90238, Note_on_c, 1, 61, 127
1, 90313, Note_off_c, 1, 61, 0
1, 90314, Note_off_c, 1, 52, 0
1, 90315, Note_on_c, 1, 59, 127
1, 90315, Note_on_c, 1, 55, 127
1, 90390, Note_off_c, 1, 59, 0
1, 90393, Note_on_c, 1, 61, 127
1, 90468, Note_off_c, 1, 55, 0
1, 90468, Note_off_c, 1, 61, 0
1, 90470, Note_on_c, 1, 54, 127
1, 90470, Note_on_c, 1, 62, 127
1, 90621, Note_off_c, 1, 54, 0
1, 90623, Note_on_c, 1, 55, 127
1, 90774, Note_off_c, 1, 62, 0
1, 90774, Note_off_c, 1, 55, 0
1, 90776, Note_on_c, 1, 54, 127
1, 90776, Note_on_c, 1, 62, 127
1, 90927, Note_off_c, 1, 54, 0
1, 90927, Note_off_c, 1, 62, 0
1, 90929, Note_on_c, 1, 52, 127
1, 90929, Note_on_c, 1, 64, 127
1, 91080, Note_off_c, 1, 52, 0
1, 91080, Note_off_c, 1, 64, 0
1, 91082, Note_on_c, 1, 50, 127
1, 91082, Note_on_c, 1, 66, 127
1, 91233, Note_off_c, 1, 50, 0
1, 91233, Note_off_c, 1, 66, 0
1, 91235, Note_on_c, 1, 52, 127
1, 91235, Note_on_c, 1, 67, 127
1, 91386, Note_off_c, 1, 52, 0
1, 91386, Note_off_c, 1, 67, 0
1, 91388, Note_on_c, 1, 54, 127
1, 91388, Note_on_c, 1, 69, 127
1, 91539, Note_off_c, 1, 54, 0
1, 91541, Note_on_c, 1, 55, 127
1, 91692, Note_off_c, 1, 69, 0
1, 91692, Note_off_c, 1, 55, 0
1, 91694, Note_on_c, 1, 57, 127
1, 91694, Note_on_c, 1, 66, 127
1, 91845, Note_off_c, 1, 57, 0
1, 91845, Note_off_c, 1, 66, 0
1, 91847, Note_on_c, 1, 59, 127
1, 91847, Note_on_c, 1, 67, 127
1, 91998, Note_off_c, 1, 59, 0
1, 91998, Note_off_c, 1, 67, 0
1, 92000, Note_on_c, 1, 60, 127
1, 92000, Note_on_c, 1, 69, 127
1, 92151, Note_off_c, 1, 60, 0
1, 92151, Note_off_c, 1, 69, 0
1, 92153, Note_on_c, 1, 62, 127
1, 92153, Note_on_c, 1, 71, 127
1, 92304, Note_off_c, 1, 62, 0
1, 92304, Note_off_c, 1, 71, 0
1, 92306, Note_on_c, 1, 50, 127
1, 92306, Note_on_c, 1, 54, 127
1, 92306, Note_on_c, 1, 72, 127
1, 92612, Note_off_c, 1, 50, 0
1, 92612, Note_off_c, 1, 54, 0
1, 92613, Note_on_c, 1, 48, 127
1, 92613, Note_on_c, 1, 69, 127
1, 92764, Note_off_c, 1, 48, 0
1, 92917, Note_off_c, 1, 69, 0
1, 92918, Note_off_c, 1, 72, 0
1, 92919, Note_on_c, 1, 52, 127
1, 92919, Note_on_c, 1, 71, 127
1, 92919, Note_on_c, 1, 67, 127
1, 93070, Note_off_c, 1, 52, 0
1, 93072, Note_on_c, 1, 50, 127
1, 93223, Note_off_c, 1, 71, 0
1, 93223, Note_off_c, 1, 50, 0
1, 93225, Note_on_c, 1, 48, 127
1, 93225, Note_on_c, 1, 69, 127
1, 93531, Note_off_c, 1, 67, 0
1, 93531, Note_off_c, 1, 48, 0
1, 93533, Note_on_c, 1, 47, 127
1, 93684, Note_off_c, 1, 47, 0
1, 93839, Note_on_c, 1, 66, 127
1, 94143, Note_off_c, 1, 69, 0
1, 94143, Note_off_c, 1, 66, 0
1, 94145, Note_on_c, 1, 67, 127
1, 94145, Note_on_c, 1, 47, 127
1, 94299, Note_on_c, 1, 79, 127
1, 94449, Note_off_c, 1, 67, 0
1, 94450, Note_off_c, 1, 79, 0
1, 94451, Note_off_c, 1, 47, 0
1, 94452, Note_on_c, 1, 78, 127
1, 94452, Note_on_c, 1, 48, 127
1, 94603, Note_off_c, 1, 78, 0
1, 94605, Note_on_c, 1, 76, 127
1, 94756, Note_off_c, 1, 48, 0
1, 94756, Note_off_c, 1, 76, 0
1, 94758, Note_on_c, 1, 74, 127
1, 94758, Note_on_c, 1, 50, 127
1, 94909, Note_off_c, 1, 74, 0
1, 94911, Note_on_c, 1, 78, 127
1, 95062, Note_off_c, 1, 50, 0
1, 95062, Note_off_c, 1, 78, 0
1, 95064, Note_on_c, 1, 76, 127
1, 95064, Note_on_c, 1, 55, 127
1, 95215, Note_off_c, 1, 76, 0
1, 95217, Note_on_c, 1, 78, 127
1, 95335, Note_off_c, 1, 55, 0
1, 95370, Note_off_c, 1, 78, 0
1, 95372, Note_on_c, 1, 76, 127
1, 95372, Note_on_c, 1, 45, 127
1, 95523, Note_off_c, 1, 76, 0
1, 95525, Note_on_c, 1, 74, 127
1, 95676, Note_off_c, 1, 74, 0
1, 95678, Note_on_c, 1, 72, 127
1, 95829, Note_off_c, 1, 72, 0
1, 95962, Note_off_c, 1, 45, 0
1, 95985, Note_on_c, 1, 74, 127
1, 95985, Note_on_c, 1, 47, 127
1, 96136, Note_off_c, 1, 74, 0
1, 96138, Note_on_c, 1, 76, 127
1, 96289, Note_off_c, 1, 47, 0
1, 96289, Note_off_c, 1, 76, 0
1, 96291, Note_on_c, 1, 74, 127
1, 96291, Note_on_c, 1, 48, 127
1, 96442, Note_off_c, 1, 74, 0
1, 96444, Note_on_c, 1, 72, 127
1, 96595, Note_off_c, 1, 48, 0
1, 96595, Note_off_c, 1, 72, 0
1, 96597, Note_on_c, 1, 71, 127
1, 96597, Note_on_c, 1, 50, 127
1, 96748, Note_off_c, 1, 71, 0
1, 96750, Note_on_c, 1, 74, 127
1, 96901, Note_off_c, 1, 50, 0
1, 96901, Note_off_c, 1, 74, 0
1, 96903, Note_on_c, 1, 72, 127
1, 96903, Note_on_c, 1, 52, 127
1, 97054, Note_off_c, 1, 72, 0
1, 97056, Note_on_c, 1, 74, 127
1, 97174, Note_off_c, 1, 52, 0
1, 97209, Note_off_c, 1, 74, 0
1, 97211, Note_on_c, 1, 72, 127
1, 97211, Note_on_c, 1, 42, 127
1, 97362, Note_off_c, 1, 72, 0
1, 97364, Note_on_c, 1, 71, 127
1, 97515, Note_off_c, 1, 71, 0
1, 97517, Note_on_c, 1, 69, 127
1, 97668, Note_off_c, 1, 69, 0
1, 97801, Note_off_c, 1, 42, 0
1, 97824, Note_on_c, 1, 43, 127
1, 97824, Note_on_c, 1, 71, 127
1, 97975, Note_off_c, 1, 43, 0
1, 97975, Note_off_c, 1, 71, 0
1, 97977, Note_on_c, 1, 45, 127
1, 97977, Note_on_c, 1, 69, 127
1, 98128, Note_off_c, 1, 45, 0
1, 98128, Note_off_c, 1, 69, 0
1, 98130, Note_on_c, 1, 67, 127
1, 98130, Note_on_c, 1, 47, 127
1, 98285, Note_on_c, 1, 71, 127
1, 98434, Note_off_c, 1, 67, 0
1, 98436, Note_off_c, 1, 71, 0
1, 98438, Note_on_c, 1, 66, 127
1, 98438, Note_on_c, 1, 62, 127
1, 98742, Note_off_c, 1, 66, 0
1, 98744, Note_off_c, 1, 62, 0
1, 98745, Note_on_c, 1, 61, 127
1, 98745, Note_on_c, 1, 64, 127
1, 98896, Note_off_c, 1, 47, 0
1, 98898, Note_on_c, 1, 45, 127
1, 99048, Note_off_c, 1, 61, 0
1, 99048, Note_off_c, 1, 64, 0
1, 99049, Note_off_c, 1, 45, 0
1, 99051, Note_on_c, 1, 43, 127
1, 99051, Note_on_c, 1, 62, 127
1, 99202, Note_off_c, 1, 43, 0
1, 99204, Note_on_c, 1, 42, 127
1, 99204, Note_on_c, 1, 71, 127
1, 99354, Note_off_c, 1, 62, 0
1, 99355, Note_off_c, 1, 42, 0
1, 99355, Note_off_c, 1, 71, 0
1, 99357, Note_on_c, 1, 40, 127
1, 99357, Note_on_c, 1, 61, 127
1, 99508, Note_off_c, 1, 40, 0
1, 99510, Note_on_c, 1, 43, 127
1, 99510, Note_on_c, 1, 71, 127
1, 99660, Note_off_c, 1, 61, 0
1, 99661, Note_off_c, 1, 43, 0
1, 99661, Note_off_c, 1, 71, 0
1, 99663, Note_on_c, 1, 42, 127
1, 99663, Note_on_c, 1, 69, 127
1, 99814, Note_off_c, 1, 42, 0
1, 99816, Note_on_c, 1, 43, 127
1, 99816, Note_on_c, 1, 67, 127
1, 99854, Note_off_c, 1, 69, 0
1, 99969, Note_off_c, 1, 43, 0
1, 99969, Note_off_c, 1, 67, 0
1, 99971, Note_on_c, 1, 66, 127
1, 99971, Note_on_c, 1, 45, 127
1, 100125, Note_on_c, 1, 69, 127
1, 100275, Note_off_c, 1, 66, 0
1, 100278, Note_on_c, 1, 64, 127
1, 100278, Note_on_c, 1, 61, 127
1, 100316, Note_off_c, 1, 69, 0
1, 100582, Note_off_c, 1, 64, 0
1, 100584, Note_off_c, 1, 61, 0
1, 100586, Note_on_c, 1, 59, 127
1, 100586, Note_on_c, 1, 62, 127
1, 100738, Note_off_c, 1, 45, 0
1, 100740, Note_on_c, 1, 43, 127
1, 100890, Note_off_c, 1, 59, 0
1, 100890, Note_off_c, 1, 62, 0
1, 100891, Note_off_c, 1, 43, 0
1, 100893, Note_on_c, 1, 42, 127
1, 101046, Note_off_c, 1, 42, 0
1, 101048, Note_on_c, 1, 40, 127
1, 101199, Note_off_c, 1, 40, 0
1, 101201, Note_on_c, 1, 38, 127
1, 101354, Note_off_c, 1, 38, 0
1, 101508, Note_on_c, 1, 40, 127
1, 101508, Note_on_c, 1, 67, 127
1, 101659, Note_off_c, 1, 40, 0
1, 101661, Note_on_c, 1, 42, 127
1, 101661, Note_on_c, 1, 66, 127
1, 101746, Note_off_c, 1, 67, 0
1, 101812, Note_off_c, 1, 42, 0
1, 101812, Note_off_c, 1, 66, 0
1, 101814, Note_on_c, 1, 64, 127
1, 101814, Note_on_c, 1, 43, 127
1, 101968, Note_on_c, 1, 67, 127
1, 102118, Note_off_c, 1, 64, 0
1, 102121, Note_on_c, 1, 62, 127
1, 102121, Note_on_c, 1, 59, 127
1, 102223, Note_off_c, 1, 67, 0
1, 102425, Note_off_c, 1, 62, 0
1, 102427, Note_off_c, 1, 59, 0
1, 102429, Note_on_c, 1, 57, 127
1, 102429, Note_on_c, 1, 61, 127
1, 102581, Note_off_c, 1, 43, 0
1, 102583, Note_on_c, 1, 42, 127
1, 102733, Note_off_c, 1, 57, 0
1, 102733, Note_off_c, 1, 61, 0
1, 102734, Note_off_c, 1, 42, 0
1, 102736, Note_on_c, 1, 40, 127
1, 102889, Note_off_c, 1, 40, 0
1, 102891, Note_on_c, 1, 38, 127
1, 103042, Note_off_c, 1, 38, 0
1, 103044, Note_on_c, 1, 37, 127
1, 103197, Note_off_c, 1, 37, 0
1, 103351, Note_on_c, 1, 38, 127
1, 103351, Note_on_c, 1, 66, 127
1, 103506, Note_on_c, 1, 40, 127
1, 103506, Note_on_c, 1, 74, 127
1, 103544, Note_off_c, 1, 38, 0
1, 103655, Note_off_c, 1, 66, 0
1, 103657, Note_off_c, 1, 40, 0
1, 103657, Note_off_c, 1, 74, 0
1, 103659, Note_on_c, 1, 72, 127
1, 103659, Note_on_c, 1, 42, 127
1, 103810, Note_off_c, 1, 72, 0
1, 103812, Note_on_c, 1, 38, 127
1, 103812, Note_on_c, 1, 71, 127
1, 103914, Note_off_c, 1, 42, 0
1, 103965, Note_off_c, 1, 38, 0
1, 103965, Note_off_c, 1, 71, 0
1, 103966, Note_on_c, 1, 69, 127
1, 103966, Note_on_c, 1, 43, 127
1, 104117, Note_off_c, 1, 69, 0
1, 104119, Note_on_c, 1, 38, 127
1, 104119, Note_on_c, 1, 67, 127
1, 104221, Note_off_c, 1, 43, 0
1, 104272, Note_off_c, 1, 38, 0
1, 104272, Note_off_c, 1, 67, 0
1, 104274, Note_on_c, 1, 66, 127
1, 104274, Note_on_c, 1, 45, 127
1, 104425, Note_off_c, 1, 66, 0
1, 104427, Note_on_c, 1, 38, 127
1, 104427, Note_on_c, 1, 64, 127
1, 104529, Note_off_c, 1, 45, 0
1, 104580, Note_off_c, 1, 38, 0
1, 104580, Note_off_c, 1, 64, 0
1, 104581, Note_on_c, 1, 62, 127
1, 104581, Note_on_c, 1, 47, 127
1, 104732, Note_off_c, 1, 62, 0
1, 104734, Note_on_c, 1, 38, 127
1, 104734, Note_on_c, 1, 60, 127
1, 104836, Note_off_c, 1, 47, 0
1, 104887, Note_off_c, 1, 38, 0
1, 104887, Note_off_c, 1, 60, 0
1, 104888, Note_on_c, 1, 59, 127
1, 104888, Note_on_c, 1, 48, 127
1, 105039, Note_off_c, 1, 59, 0
1, 105042, Note_on_c, 1, 38, 127
1, 105042, Note_on_c, 1, 57, 127
1, 105159, Note_off_c, 1, 48, 0
1, 105195, Note_off_c, 1, 38, 0
1, 105195, Note_off_c, 1, 57, 0
1, 105196, Note_on_c, 1, 55, 127
1, 105196, Note_on_c, 1, 47, 127
1, 105347, Note_off_c, 1, 55, 0
1, 105349, Note_on_c, 1, 57, 127
1, 105499, Note_off_c, 1, 47, 0
1, 105500, Note_off_c, 1, 57, 0
1, 105502, Note_on_c, 1, 53, 127
1, 105502, Note_on_c, 1, 59, 127
1, 105653, Note_off_c, 1, 53, 0
1, 105655, Note_on_c, 1, 52, 127
1, 105655, Note_on_c, 1, 55, 127
1, 105805, Note_off_c, 1, 59, 0
1, 105806, Note_off_c, 1, 52, 0
1, 105806, Note_off_c, 1, 55, 0
1, 105808, Note_on_c, 1, 50, 127
1, 105808, Note_on_c, 1, 60, 127
1, 105959, Note_off_c, 1, 50, 0
1, 105961, Note_on_c, 1, 48, 127
1, 105961, Note_on_c, 1, 55, 127
1, 106111, Note_off_c, 1, 60, 0
1, 106112, Note_off_c, 1, 48, 0
1, 106112, Note_off_c, 1, 55, 0
1, 106114, Note_on_c, 1, 47, 127
1, 106114, Note_on_c, 1, 62, 127
1, 106265, Note_off_c, 1, 47, 0
1, 106267, Note_on_c, 1, 45, 127
1, 106267, Note_on_c, 1, 55, 127
1, 106417, Note_off_c, 1, 62, 0
1, 106418, Note_off_c, 1, 45, 0
1, 106418, Note_off_c, 1, 55, 0
1, 106420, Note_on_c, 1, 43, 127
1, 106420, Note_on_c, 1, 64, 127
1, 106571, Note_off_c, 1, 43, 0
1, 106573, Note_on_c, 1, 41, 127
1, 106573, Note_on_c, 1, 55, 127
1, 106723, Note_off_c, 1, 64, 0
1, 106724, Note_off_c, 1, 41, 0
1, 106724, Note_off_c, 1, 55, 0
1, 106726, Note_on_c, 1, 40, 127
1, 106726, Note_on_c, 1, 65, 127
1, 106877, Note_off_c, 1, 40, 0
1, 106879, Note_on_c, 1, 38, 127
1, 106879, Note_on_c, 1, 55, 127
1, 107029, Note_off_c, 1, 65, 0
1, 107030, Note_off_c, 1, 38, 0
1, 107030, Note_off_c, 1, 55, 0
1, 107032, Note_on_c, 1, 36, 127
1, 107032, Note_on_c, 1, 64, 127
1, 107183, Note_off_c, 1, 36, 0
1, 107185, Note_on_c, 1, 38, 127
1, 107185, Note_on_c, 1, 72, 127
1, 107336, Note_off_c, 1, 38, 0
1, 107336, Note_off_c, 1, 72, 0
1, 107338, Note_on_c, 1, 40, 127
1, 107338, Note_on_c, 1, 71, 127
1, 107479, Note_off_c, 1, 64, 0
1, 107491, Note_off_c, 1, 40, 0
1, 107493, Note_on_c, 1, 42, 127
1, 107493, Note_on_c, 1, 74, 127
1, 107642, Note_off_c, 1, 71, 0
1, 107644, Note_off_c, 1, 42, 0
1, 107646, Note_on_c, 1, 44, 127
1, 107646, Note_on_c, 1, 69, 127
1, 107716, Note_off_c, 1, 74, 0
1, 107797, Note_off_c, 1, 44, 0
1, 107799, Note_on_c, 1, 45, 127
1, 107949, Note_off_c, 1, 69, 0
1, 107950, Note_off_c, 1, 45, 0
1, 107952, Note_on_c, 1, 47, 127
1, 107952, Note_on_c, 1, 68, 127
1, 108103, Note_off_c, 1, 47, 0
1, 108105, Note_on_c, 1, 48, 127
1, 108255, Note_off_c, 1, 68, 0
1, 108256, Note_off_c, 1, 48, 0
1, 108258, Note_on_c, 1, 50, 127
1, 108258, Note_on_c, 1, 66, 127
1, 108409, Note_off_c, 1, 50, 0
1, 108411, Note_on_c, 1, 52, 127
1, 108561, Note_off_c, 1, 66, 0
1, 108562, Note_off_c, 1, 52, 0
1, 108564, Note_on_c, 1, 54, 127
1, 108717, Note_off_c, 1, 54, 0
1, 108718, Note_on_c, 1, 56, 127
1, 108869, Note_off_c, 1, 56, 0
1, 108871, Note_on_c, 1, 57, 127
1, 108871, Note_on_c, 1, 72, 127
1, 109022, Note_off_c, 1, 57, 0
1, 109022, Note_off_c, 1, 72, 0
1, 109024, Note_on_c, 1, 55, 127
1, 109024, Note_on_c, 1, 69, 127
1, 109175, Note_off_c, 1, 55, 0
1, 109175, Note_off_c, 1, 69, 0
1, 109177, Note_on_c, 1, 71, 127
1, 109177, Note_on_c, 1, 54, 127
1, 109328, Note_off_c, 1, 71, 0
1, 109330, Note_on_c, 1, 57, 127
1, 109330, Note_on_c, 1, 73, 127
1, 109415, Note_off_c, 1, 54, 0
1, 109481, Note_off_c, 1, 57, 0
1, 109481, Note_off_c, 1, 73, 0
1, 109483, Note_on_c, 1, 75, 127
1, 109483, Note_on_c, 1, 52, 127
1, 109634, Note_off_c, 1, 75, 0
1, 109636, Note_on_c, 1, 57, 127
1, 109636, Note_on_c, 1, 76, 127
1, 109706, Note_off_c, 1, 52, 0
1, 109787, Note_off_c, 1, 57, 0
1, 109787, Note_off_c, 1, 76, 0
1, 109789, Note_on_c, 1, 78, 127
1, 109789, Note_on_c, 1, 51, 127
1, 109940, Note_off_c, 1, 78, 0
1, 109942, Note_on_c, 1, 57, 127
1, 109942, Note_on_c, 1, 79, 127
1, 109996, Note_off_c, 1, 51, 0
1, 110093, Note_off_c, 1, 57, 0
1, 110093, Note_off_c, 1, 79, 0
1, 110095, Note_on_c, 1, 81, 127
1, 110095, Note_on_c, 1, 49, 127
1, 110246, Note_off_c, 1, 81, 0
1, 110248, Note_on_c, 1, 57, 127
1, 110248, Note_on_c, 1, 83, 127
1, 110253, Note_off_c, 1, 49, 0
1, 110399, Note_off_c, 1, 57, 0
1, 110399, Note_off_c, 1, 83, 0
1, 110401, Note_on_c, 1, 47, 127
1, 110401, Note_on_c, 1, 84, 127
1, 110545, Note_off_c, 1, 47, 0
1, 110554, Note_off_c, 1, 84, 0
1, 110556, Note_on_c, 1, 57, 127
1, 110556, Note_on_c, 1, 75, 127
1, 110700, Note_off_c, 1, 57, 0
1, 110709, Note_off_c, 1, 75, 0
1, 110710, Note_on_c, 1, 55, 127
1, 110710, Note_on_c, 1, 76, 127
1, 111016, Note_off_c, 1, 55, 0
1, 111016, Note_off_c, 1, 76, 0
1, 111017, Note_on_c, 1, 78, 127
1, 111017, Note_on_c, 1, 60, 127
1, 111168, Note_off_c, 1, 78, 0
1, 111170, Note_on_c, 1, 76, 127
1, 111321, Note_off_c, 1, 60, 0
1, 111321, Note_off_c, 1, 76, 0
1, 111323, Note_on_c, 1, 75, 127
1, 111323, Note_on_c, 1, 59, 127
1, 111474, Note_off_c, 1, 75, 0
1, 111477, Note_on_c, 1, 76, 127
1, 111627, Note_off_c, 1, 59, 0
1, 111628, Note_off_c, 1, 76, 0
1, 111630, Note_on_c, 1, 57, 127
1, 111630, Note_on_c, 1, 78, 127
1, 111936, Note_off_c, 1, 57, 0
1, 111936, Note_off_c, 1, 78, 0
1, 111937, Note_on_c, 1, 79, 127
1, 111937, Note_on_c, 1, 59, 127
1, 112088, Note_off_c, 1, 79, 0
1, 112090, Note_on_c, 1, 78, 127
1, 112241, Note_off_c, 1, 78, 0
1, 112243, Note_on_c, 1, 76, 127
1, 112243, Note_on_c, 1, 47, 127
1, 112394, Note_off_c, 1, 76, 0
1, 112543, Note_off_c, 1, 59, 0
1, 112547, Note_off_c, 1, 47, 0
1, 112549, Note_on_c, 1, 52, 127
1, 112549, Note_on_c, 1, 79, 127
1, 112700, Note_off_c, 1, 52, 0
1, 112702, Note_on_c, 1, 54, 127
1, 112853, Note_off_c, 1, 79, 0
1, 112853, Note_off_c, 1, 54, 0
1, 112855, Note_on_c, 1, 55, 127
1, 112855, Note_on_c, 1, 78, 127
1, 113009, Note_on_c, 1, 52, 127
1, 113048, Note_off_c, 1, 55, 0
1, 113162, Note_off_c, 1, 78, 0
1, 113162, Note_off_c, 1, 52, 0
1, 113164, Note_on_c, 1, 57, 127
1, 113164, Note_on_c, 1, 76, 127
1, 113318, Note_on_c, 1, 52, 127
1, 113357, Note_off_c, 1, 57, 0
1, 113471, Note_off_c, 1, 76, 0
1, 113471, Note_off_c, 1, 52, 0
1, 113473, Note_on_c, 1, 59, 127
1, 113473, Note_on_c, 1, 71, 127
1, 113627, Note_on_c, 1, 52, 127
1, 113666, Note_off_c, 1, 59, 0
1, 113697, Note_off_c, 1, 71, 0
1, 113778, Note_off_c, 1, 52, 0
1, 113780, Note_on_c, 1, 81, 127
1, 113780, Note_on_c, 1, 61, 127
1, 113855, Note_off_c, 1, 81, 0
1, 113857, Note_on_c, 1, 79, 127
1, 113932, Note_off_c, 1, 79, 0
1, 113933, Note_off_c, 1, 61, 0
1, 113935, Note_on_c, 1, 52, 127
1, 113935, Note_on_c, 1, 81, 127
1, 114086, Note_off_c, 1, 52, 0
1, 114088, Note_on_c, 1, 63, 127
1, 114239, Note_off_c, 1, 63, 0
1, 114382, Note_off_c, 1, 81, 0
1, 114395, Note_on_c, 1, 64, 127
1, 114395, Note_on_c, 1, 79, 127
1, 114546, Note_off_c, 1, 64, 0
1, 114548, Note_on_c, 1, 63, 127
1, 114699, Note_off_c, 1, 79, 0
1, 114699, Note_off_c, 1, 63, 0
1, 114701, Note_on_c, 1, 64, 127
1, 114701, Note_on_c, 1, 78, 127
1, 114852, Note_off_c, 1, 64, 0
1, 114854, Note_on_c, 1, 66, 127
1, 115005, Note_off_c, 1, 78, 0
1, 115005, Note_off_c, 1, 66, 0
1, 115007, Note_on_c, 1, 67, 127
1, 115007, Note_on_c, 1, 76, 127
1, 115158, Note_off_c, 1, 67, 0
1, 115160, Note_on_c, 1, 64, 127
1, 115311, Note_off_c, 1, 76, 0
1, 115311, Note_off_c, 1, 64, 0
1, 115313, Note_on_c, 1, 66, 127
1, 115313, Note_on_c, 1, 75, 127
1, 115464, Note_off_c, 1, 66, 0
1, 115466, Note_on_c, 1, 64, 127
1, 115536, Note_off_c, 1, 75, 0
1, 115617, Note_off_c, 1, 64, 0
1, 115619, Note_on_c, 1, 81, 127
1, 115619, Note_on_c, 1, 66, 127
1, 115694, Note_off_c, 1, 81, 0
1, 115699, Note_on_c, 1, 83, 127
1, 115770, Note_off_c, 1, 66, 0
1, 115772, Note_on_c, 1, 67, 127
1, 115773, Note_off_c, 1, 83, 0
1, 115778, Note_on_c, 1, 84, 127
1, 115923, Note_off_c, 1, 67, 0
1, 115925, Note_on_c, 1, 69, 127
1, 116076, Note_off_c, 1, 69, 0
1, 116224, Note_off_c, 1, 84, 0
1, 116231, Note_on_c, 1, 67, 127
1, 116231, Note_on_c, 1, 83, 127
1, 116537, Note_off_c, 1, 67, 0
1, 116537, Note_off_c, 1, 83, 0
1, 116539, Note_on_c, 1, 69, 127
1, 116539, Note_on_c, 1, 84, 127
1, 116690, Note_off_c, 1, 69, 0
1, 116690, Note_off_c, 1, 84, 0
1, 116692, Note_on_c, 1, 67, 127
1, 116692, Note_on_c, 1, 83, 127
1, 116843, Note_off_c, 1, 67, 0
1, 116843, Note_off_c, 1, 83, 0
1, 116845, Note_on_c, 1, 66, 127
1, 116845, Note_on_c, 1, 81, 127
1, 116996, Note_off_c, 1, 66, 0
1, 116996, Note_off_c, 1, 81, 0
1, 116998, Note_on_c, 1, 64, 127
1, 116998, Note_on_c, 1, 79, 127
1, 117149, Note_off_c, 1, 64, 0
1, 117149, Note_off_c, 1, 79, 0
1, 117151, Note_on_c, 1, 78, 127
1, 117151, Note_on_c, 1, 69, 127
1, 117457, Note_off_c, 1, 78, 0
1, 117458, Note_on_c, 1, 81, 127
1, 117609, Note_off_c, 1, 81, 0
1, 117611, Note_on_c, 1, 79, 127
1, 117762, Note_off_c, 1, 79, 0
1, 117917, Note_on_c, 1, 76, 127
1, 118068, Note_off_c, 1, 76, 0
1, 118070, Note_on_c, 1, 75, 127
1, 118225, Note_on_c, 1, 67, 127
1, 118376, Note_off_c, 1, 75, 0
1, 118376, Note_off_c, 1, 67, 0
1, 118378, Note_on_c, 1, 66, 127
1, 118520, Note_off_c, 1, 69, 0
1, 118531, Note_off_c, 1, 66, 0
1, 118685, Note_on_c, 1, 64, 127
1, 118836, Note_off_c, 1, 64, 0
1, 118991, Note_on_c, 1, 63, 127
1, 119142, Note_off_c, 1, 63, 0
1, 119297, Note_on_c, 1, 61, 127
1, 119448, Note_off_c, 1, 61, 0
1, 119603, Note_on_c, 1, 59, 127
1, 119794, Note_off_c, 1, 59, 0
1, 119911, Note_on_c, 1, 67, 127
1, 119911, Note_on_c, 1, 76, 127
1, 120217, Note_off_c, 1, 67, 0
1, 120217, Note_off_c, 1, 76, 0
1, 120218, Note_on_c, 1, 66, 127
1, 120218, Note_on_c, 1, 74, 127
1, 120369, Note_off_c, 1, 66, 0
1, 120371, Note_on_c, 1, 67, 127
1, 120522, Note_off_c, 1, 74, 0
1, 120522, Note_off_c, 1, 67, 0
1, 120524, Note_on_c, 1, 69, 127
1, 120524, Note_on_c, 1, 72, 127
1, 120675, Note_off_c, 1, 69, 0
1, 120677, Note_on_c, 1, 67, 127
1, 120828, Note_off_c, 1, 72, 0
1, 120828, Note_off_c, 1, 67, 0
1, 120830, Note_on_c, 1, 66, 127
1, 120830, Note_on_c, 1, 74, 127
1, 121136, Note_off_c, 1, 66, 0
1, 121136, Note_off_c, 1, 74, 0
1, 121138, Note_on_c, 1, 64, 127
1, 121138, Note_on_c, 1, 72, 127
1, 121289, Note_off_c, 1, 64, 0
1, 121291, Note_on_c, 1, 66, 127
1, 121442, Note_off_c, 1, 72, 0
1, 121442, Note_off_c, 1, 66, 0
1, 121444, Note_on_c, 1, 67, 127
1, 121444, Note_on_c, 1, 71, 127
1, 121595, Note_off_c, 1, 67, 0
1, 121597, Note_on_c, 1, 66, 127
1, 121748, Note_off_c, 1, 71, 0
1, 121748, Note_off_c, 1, 66, 0
1, 121750, Note_on_c, 1, 72, 127
1, 121750, Note_on_c, 1, 64, 127
1, 121904, Note_on_c, 1, 84, 127
1, 122054, Note_off_c, 1, 72, 0
1, 122055, Note_off_c, 1, 84, 0
1, 122056, Note_off_c, 1, 64, 0
1, 122057, Note_on_c, 1, 83, 127
1, 122057, Note_on_c, 1, 66, 127
1, 122208, Note_off_c, 1, 83, 0
1, 122210, Note_on_c, 1, 81, 127
1, 122361, Note_off_c, 1, 66, 0
1, 122361, Note_off_c, 1, 81, 0
1, 122363, Note_on_c, 1, 79, 127
1, 122363, Note_on_c, 1, 67, 127
1, 122514, Note_off_c, 1, 79, 0
1, 122516, Note_on_c, 1, 83, 127
1, 122667, Note_off_c, 1, 67, 0
1, 122667, Note_off_c, 1, 83, 0
1, 122669, Note_on_c, 1, 81, 127
1, 122669, Note_on_c, 1, 72, 127
1, 122820, Note_off_c, 1, 81, 0
1, 122822, Note_on_c, 1, 83, 127
1, 122907, Note_off_c, 1, 72, 0
1, 122973, Note_off_c, 1, 83, 0
1, 122975, Note_on_c, 1, 81, 127
1, 122975, Note_on_c, 1, 63, 127
1, 123126, Note_off_c, 1, 81, 0
1, 123128, Note_on_c, 1, 79, 127
1, 123279, Note_off_c, 1, 79, 0
1, 123281, Note_on_c, 1, 78, 127
1, 123432, Note_off_c, 1, 78, 0
1, 123535, Note_off_c, 1, 63, 0
1, 123587, Note_on_c, 1, 79, 127
1, 123587, Note_on_c, 1, 64, 127
1, 123738, Note_off_c, 1, 79, 0
1, 123740, Note_on_c, 1, 81, 127
1, 123891, Note_off_c, 1, 64, 0
1, 123891, Note_off_c, 1, 81, 0
1, 123893, Note_on_c, 1, 79, 127
1, 123893, Note_on_c, 1, 66, 127
1, 124044, Note_off_c, 1, 79, 0
1, 124046, Note_on_c, 1, 78, 127
1, 124197, Note_off_c, 1, 66, 0
1, 124197, Note_off_c, 1, 78, 0
1, 124199, Note_on_c, 1, 76, 127
1, 124199, Note_on_c, 1, 67, 127
1, 124350, Note_off_c, 1, 76, 0
1, 124352, Note_on_c, 1, 79, 127
1, 124503, Note_off_c, 1, 67, 0
1, 124503, Note_off_c, 1, 79, 0
1, 124505, Note_on_c, 1, 78, 127
1, 124505, Note_on_c, 1, 69, 127
1, 124656, Note_off_c, 1, 78, 0
1, 124658, Note_on_c, 1, 79, 127
1, 124743, Note_off_c, 1, 69, 0
1, 124809, Note_off_c, 1, 79, 0
1, 124811, Note_on_c, 1, 78, 127
1, 124811, Note_on_c, 1, 59, 127
1, 124962, Note_off_c, 1, 78, 0
1, 124964, Note_on_c, 1, 76, 127
1, 125115, Note_off_c, 1, 76, 0
1, 125117, Note_on_c, 1, 75, 127
1, 125268, Note_off_c, 1, 75, 0
1, 125421, Note_off_c, 1, 59, 0
1, 125423, Note_on_c, 1, 60, 127
1, 125423, Note_on_c, 1, 76, 127
1, 125574, Note_off_c, 1, 60, 0
1, 125576, Note_on_c, 1, 59, 127
1, 125727, Note_off_c, 1, 76, 0
1, 125727, Note_off_c, 1, 59, 0
1, 125729, Note_on_c, 1, 57, 127
1, 125729, Note_on_c, 1, 78, 127
1, 125880, Note_off_c, 1, 57, 0
1, 125880, Note_off_c, 1, 78, 0
1, 125882, Note_on_c, 1, 59, 127
1, 125882, Note_on_c, 1, 79, 127
1, 126033, Note_off_c, 1, 59, 0
1, 126033, Note_off_c, 1, 79, 0
1, 126035, Note_on_c, 1, 61, 127
1, 126035, Note_on_c, 1, 81, 127
1, 126186, Note_off_c, 1, 61, 0
1, 126188, Note_on_c, 1, 63, 127
1, 126339, Note_off_c, 1, 63, 0
1, 126341, Note_on_c, 1, 64, 127
1, 126492, Note_off_c, 1, 64, 0
1, 126576, Note_off_c, 1, 81, 0
1, 126647, Note_on_c, 1, 64, 127
1, 126647, Note_on_c, 1, 79, 127
1, 126798, Note_off_c, 1, 64, 0
1, 126798, Note_off_c, 1, 79, 0
1, 126800, Note_on_c, 1, 66, 127
1, 126800, Note_on_c, 1, 81, 127
1, 126951, Note_off_c, 1, 66, 0
1, 126951, Note_off_c, 1, 81, 0
1, 126953, Note_on_c, 1, 67, 127
1, 126953, Note_on_c, 1, 83, 127
1, 127104, Note_off_c, 1, 67, 0
1, 127106, Note_on_c, 1, 69, 127
1, 127257, Note_off_c, 1, 69, 0
1, 127259, Note_on_c, 1, 71, 127
1, 127414, Note_on_c, 1, 47, 127
1, 127489, Note_off_c, 1, 47, 0
1, 127491, Note_on_c, 1, 49, 127
1, 127566, Note_off_c, 1, 83, 0
1, 127566, Note_off_c, 1, 49, 0
1, 127568, Note_on_c, 1, 51, 127
1, 127568, Note_on_c, 1, 81, 127
1, 127719, Note_off_c, 1, 51, 0
1, 127872, Note_off_c, 1, 81, 0
1, 127874, Note_on_c, 1, 52, 127
1, 127874, Note_on_c, 1, 79, 127
1, 128025, Note_off_c, 1, 52, 0
1, 128178, Note_off_c, 1, 79, 0
1, 128180, Note_on_c, 1, 54, 127
1, 128180, Note_on_c, 1, 78, 127
1, 128331, Note_off_c, 1, 54, 0
1, 128331, Note_off_c, 1, 78, 0
1, 128484, Note_off_c, 1, 71, 0
1, 128486, Note_on_c, 1, 55, 127
1, 128486, Note_on_c, 1, 72, 127
1, 128486, Note_on_c, 1, 81, 127
1, 128637, Note_off_c, 1, 55, 0
1, 128639, Note_on_c, 1, 47, 127
1, 128790, Note_off_c, 1, 72, 0
1, 128790, Note_off_c, 1, 81, 0
1, 128790, Note_off_c, 1, 47, 0
1, 128792, Note_on_c, 1, 57, 127
1, 128792, Note_on_c, 1, 66, 127
1, 128792, Note_on_c, 1, 75, 127
1, 128943, Note_off_c, 1, 57, 0
1, 128945, Note_on_c, 1, 47, 127
1, 129096, Note_off_c, 1, 66, 0
1, 129096, Note_off_c, 1, 75, 0
1, 129096, Note_off_c, 1, 47, 0
1, 129098, Note_on_c, 1, 55, 127
1, 129098, Note_on_c, 1, 64, 127
1, 129098, Note_on_c, 1, 76, 127
1, 129249, Note_off_c, 1, 55, 0
1, 129249, Note_off_c, 1, 64, 0
1, 129251, Note_on_c, 1, 54, 127
1, 129251, Note_on_c, 1, 66, 127
1, 129402, Note_off_c, 1, 54, 0
1, 129402, Note_off_c, 1, 66, 0
1, 129404, Note_on_c, 1, 52, 127
1, 129404, Note_on_c, 1, 67, 127
1, 129597, Note_off_c, 1, 52, 0
1, 129711, Note_off_c, 1, 76, 0
1, 129713, Note_on_c, 1, 50, 127
1, 129713, Note_on_c, 1, 71, 127
1, 129906, Note_off_c, 1, 50, 0
1, 130020, Note_off_c, 1, 71, 0
1, 130022, Note_on_c, 1, 49, 127
1, 130022, Note_on_c, 1, 69, 127
1, 130173, Note_off_c, 1, 67, 0
1, 130213, Note_off_c, 1, 49, 0
1, 130330, Note_on_c, 1, 47, 127
1, 130483, Note_on_c, 1, 62, 127
1, 130521, Note_off_c, 1, 47, 0
1, 130636, Note_off_c, 1, 62, 0
1, 130637, Note_on_c, 1, 61, 127
1, 130637, Note_on_c, 1, 45, 127
1, 130788, Note_off_c, 1, 61, 0
1, 130812, Note_off_c, 1, 45, 0
1, 131248, Note_off_c, 1, 69, 0
1, 131251, Note_on_c, 1, 50, 127
1, 131251, Note_on_c, 1, 66, 127
1, 131405, Note_on_c, 1, 54, 127
1, 131459, Note_off_c, 1, 50, 0
1, 131556, Note_off_c, 1, 54, 0
1, 131558, Note_on_c, 1, 49, 127
1, 131558, Note_on_c, 1, 69, 127
1, 131766, Note_off_c, 1, 49, 0
1, 131864, Note_off_c, 1, 69, 0
1, 131865, Note_on_c, 1, 47, 127
1, 131865, Note_on_c, 1, 67, 127
1, 132017, Note_off_c, 1, 66, 0
1, 132018, Note_on_c, 1, 64, 127
1, 132072, Note_off_c, 1, 47, 0
1, 132169, Note_off_c, 1, 64, 0
1, 132171, Note_on_c, 1, 62, 127
1, 132171, Note_on_c, 1, 45, 127
1, 132322, Note_off_c, 1, 62, 0
1, 132324, Note_on_c, 1, 61, 127
1, 132378, Note_off_c, 1, 45, 0
1, 132475, Note_off_c, 1, 61, 0
1, 132477, Note_on_c, 1, 59, 127
1, 132477, Note_on_c, 1, 43, 127
1, 132628, Note_off_c, 1, 59, 0
1, 132652, Note_off_c, 1, 43, 0
1, 132785, Note_on_c, 1, 52, 127
1, 132936, Note_off_c, 1, 52, 0
1, 133089, Note_off_c, 1, 67, 0
1, 133091, Note_on_c, 1, 49, 127
1, 133091, Note_on_c, 1, 64, 127
1, 133245, Note_on_c, 1, 52, 127
1, 133315, Note_off_c, 1, 49, 0
1, 133396, Note_off_c, 1, 52, 0
1, 133398, Note_on_c, 1, 47, 127
1, 133398, Note_on_c, 1, 67, 127
1, 133622, Note_off_c, 1, 47, 0
1, 133704, Note_off_c, 1, 67, 0
1, 133706, Note_on_c, 1, 46, 127
1, 133706, Note_on_c, 1, 66, 127
1, 133850, Note_off_c, 1, 64, 0
1, 133860, Note_on_c, 1, 62, 127
1, 133930, Note_off_c, 1, 46, 0
1, 134011, Note_off_c, 1, 62, 0
1, 134013, Note_on_c, 1, 61, 127
1, 134013, Note_on_c, 1, 44, 127
1, 134164, Note_off_c, 1, 61, 0
1, 134166, Note_on_c, 1, 59, 127
1, 134220, Note_off_c, 1, 44, 0
1, 134317, Note_off_c, 1, 59, 0
1, 134319, Note_on_c, 1, 58, 127
1, 134319, Note_on_c, 1, 42, 127
1, 134470, Note_off_c, 1, 58, 0
1, 134494, Note_off_c, 1, 42, 0
1, 134627, Note_on_c, 1, 50, 127
1, 134778, Note_off_c, 1, 66, 0
1, 134778, Note_off_c, 1, 50, 0
1, 134780, Note_on_c, 1, 54, 127
1, 134780, Note_on_c, 1, 71, 127
1, 134931, Note_off_c, 1, 54, 0
1, 134931, Note_off_c, 1, 71, 0
1, 134933, Note_on_c, 1, 52, 127
1, 134933, Note_on_c, 1, 73, 127
1, 135084, Note_off_c, 1, 52, 0
1, 135084, Note_off_c, 1, 73, 0
1, 135086, Note_on_c, 1, 50, 127
1, 135086, Note_on_c, 1, 71, 127
1, 135237, Note_off_c, 1, 50, 0
1, 135237, Note_off_c, 1, 71, 0
1, 135239, Note_on_c, 1, 49, 127
1, 135239, Note_on_c, 1, 70, 127
1, 135390, Note_off_c, 1, 49, 0
1, 135390, Note_off_c, 1, 70, 0
1, 135392, Note_on_c, 1, 47, 127
1, 135392, Note_on_c, 1, 71, 127
1, 135543, Note_off_c, 1, 47, 0
1, 135543, Note_off_c, 1, 71, 0
1, 135545, Note_on_c, 1, 46, 127
1, 135545, Note_on_c, 1, 73, 127
1, 135696, Note_off_c, 1, 46, 0
1, 135698, Note_on_c, 1, 49, 127
1, 135849, Note_off_c, 1, 73, 0
1, 135849, Note_off_c, 1, 49, 0
1, 135851, Note_on_c, 1, 47, 127
1, 135851, Note_on_c, 1, 74, 127
1, 136002, Note_off_c, 1, 47, 0
1, 136002, Note_off_c, 1, 74, 0
1, 136004, Note_on_c, 1, 46, 127
1, 136004, Note_on_c, 1, 73, 127
1, 136155, Note_off_c, 1, 46, 0
1, 136155, Note_off_c, 1, 73, 0
1, 136157, Note_on_c, 1, 44, 127
1, 136157, Note_on_c, 1, 71, 127
1, 136308, Note_off_c, 1, 44, 0
1, 136308, Note_off_c, 1, 71, 0
1, 136310, Note_on_c, 1, 42, 127
1, 136310, Note_on_c, 1, 73, 127
1, 136461, Note_off_c, 1, 42, 0
1, 136461, Note_off_c, 1, 73, 0
1, 136463, Note_on_c, 1, 47, 127
1, 136463, Note_on_c, 1, 74, 127
1, 136769, Note_off_c, 1, 47, 0
1, 136769, Note_off_c, 1, 74, 0
1, 136770, Note_on_c, 1, 49, 127
1, 136770, Note_on_c, 1, 73, 127
1, 136921, Note_off_c, 1, 49, 0
1, 136923, Note_on_c, 1, 47, 127
1, 137074, Note_off_c, 1, 73, 0
1, 137074, Note_off_c, 1, 47, 0
1, 137076, Note_on_c, 1, 46, 127
1, 137076, Note_on_c, 1, 71, 127
1, 137227, Note_off_c, 1, 46, 0
1, 137229, Note_on_c, 1, 47, 127
1, 137380, Note_off_c, 1, 71, 0
1, 137380, Note_off_c, 1, 47, 0
1, 137382, Note_on_c, 1, 70, 127
1, 137382, Note_on_c, 1, 49, 127
1, 137622, Note_off_c, 1, 70, 0
1, 137688, Note_off_c, 1, 49, 0
1, 137690, Note_on_c, 1, 50, 127
1, 137690, Note_on_c, 1, 79, 127
1, 137841, Note_off_c, 1, 50, 0
1, 137843, Note_on_c, 1, 49, 127
1, 137994, Note_off_c, 1, 49, 0
1, 137996, Note_on_c, 1, 47, 127
1, 138147, Note_off_c, 1, 47, 0
1, 138300, Note_off_c, 1, 79, 0
1, 138302, Note_on_c, 1, 50, 127
1, 138302, Note_on_c, 1, 78, 127
1, 138608, Note_off_c, 1, 50, 0
1, 138608, Note_off_c, 1, 78, 0
1, 138609, Note_on_c, 1, 79, 127
1, 138609, Note_on_c, 1, 49, 127
1, 138760, Note_off_c, 1, 79, 0
1, 138762, Note_on_c, 1, 78, 127
1, 138913, Note_off_c, 1, 49, 0
1, 138913, Note_off_c, 1, 78, 0
1, 138915, Note_on_c, 1, 76, 127
1, 138915, Note_on_c, 1, 47, 127
1, 139066, Note_off_c, 1, 76, 0
1, 139068, Note_on_c, 1, 74, 127
1, 139219, Note_off_c, 1, 47, 0
1, 139219, Note_off_c, 1, 74, 0
1, 139221, Note_on_c, 1, 46, 127
1, 139221, Note_on_c, 1, 73, 127
1, 139492, Note_off_c, 1, 46, 0
1, 139527, Note_off_c, 1, 73, 0
1, 139529, Note_on_c, 1, 76, 127
1, 139529, Note_on_c, 1, 55, 127
1, 139680, Note_off_c, 1, 76, 0
1, 139682, Note_on_c, 1, 74, 127
1, 139833, Note_off_c, 1, 74, 0
1, 139835, Note_on_c, 1, 73, 127
1, 139986, Note_off_c, 1, 73, 0
1, 139988, Note_on_c, 1, 71, 127
1, 140139, Note_off_c, 1, 55, 0
1, 140139, Note_off_c, 1, 71, 0
1, 140141, Note_on_c, 1, 54, 127
1, 140141, Note_on_c, 1, 70, 127
1, 140292, Note_off_c, 1, 54, 0
1, 140292, Note_off_c, 1, 70, 0
1, 140294, Note_on_c, 1, 56, 127
1, 140294, Note_on_c, 1, 71, 127
1, 140445, Note_off_c, 1, 56, 0
1, 140445, Note_off_c, 1, 71, 0
1, 140447, Note_on_c, 1, 58, 127
1, 140447, Note_on_c, 1, 73, 127
1, 140601, Note_on_c, 1, 54, 127
1, 140601, Note_on_c, 1, 70, 127
1, 140640, Note_off_c, 1, 58, 0
1, 140751, Note_off_c, 1, 73, 0
1, 140752, Note_off_c, 1, 54, 0
1, 140754, Note_on_c, 1, 59, 127
1, 140754, Note_on_c, 1, 74, 127
1, 140792, Note_off_c, 1, 70, 0
1, 140947, Note_off_c, 1, 59, 0
1, 141058, Note_off_c, 1, 74, 0
1, 141062, Note_on_c, 1, 61, 127
1, 141062, Note_on_c, 1, 76, 127
1, 141255, Note_off_c, 1, 61, 0
1, 141366, Note_off_c, 1, 76, 0
1, 141369, Note_on_c, 1, 62, 127
1, 141369, Note_on_c, 1, 78, 127
1, 141562, Note_off_c, 1, 62, 0
1, 141673, Note_off_c, 1, 78, 0
1, 141677, Note_on_c, 1, 64, 127
1, 141677, Note_on_c, 1, 79, 127
1, 141870, Note_off_c, 1, 64, 0
1, 141981, Note_off_c, 1, 79, 0
1, 142290, Note_on_c, 1, 55, 127
1, 142290, Note_on_c, 1, 71, 127
1, 142443, Note_off_c, 1, 55, 0
1, 142594, Note_off_c, 1, 71, 0
1, 142598, Note_on_c, 1, 61, 127
1, 142598, Note_on_c, 1, 76, 127
1, 142673, Note_off_c, 1, 61, 0
1, 142673, Note_off_c, 1, 76, 0
1, 142675, Note_on_c, 1, 59, 127
1, 142675, Note_on_c, 1, 74, 127
1, 142750, Note_off_c, 1, 59, 0
1, 142750, Note_off_c, 1, 74, 0
1, 142752, Note_on_c, 1, 58, 127
1, 142752, Note_on_c, 1, 73, 127
1, 142827, Note_off_c, 1, 58, 0
1, 142827, Note_off_c, 1, 73, 0
1, 142829, Note_on_c, 1, 59, 127
1, 142829, Note_on_c, 1, 74, 127
1, 142904, Note_off_c, 1, 59, 0
1, 142904, Note_off_c, 1, 74, 0
1, 142906, Note_on_c, 1, 61, 127
1, 142906, Note_on_c, 1, 76, 127
1, 143057, Note_off_c, 1, 61, 0
1, 143059, Note_on_c, 1, 52, 127
1, 143059, Note_on_c, 1, 68, 127
1, 143210, Note_off_c, 1, 52, 0
1, 143210, Note_off_c, 1, 68, 0
1, 143212, Note_on_c, 1, 54, 127
1, 143212, Note_on_c, 1, 70, 127
1, 143353, Note_off_c, 1, 76, 0
1, 143365, Note_off_c, 1, 54, 0
1, 143516, Note_off_c, 1, 70, 0
1, 143520, Note_on_c, 1, 59, 127
1, 143520, Note_on_c, 1, 74, 127
1, 143595, Note_off_c, 1, 59, 0
1, 143595, Note_off_c, 1, 74, 0
1, 143597, Note_on_c, 1, 58, 127
1, 143597, Note_on_c, 1, 73, 127
1, 143672, Note_off_c, 1, 58, 0
1, 143672, Note_off_c, 1, 73, 0
1, 143674, Note_on_c, 1, 56, 127
1, 143674, Note_on_c, 1, 71, 127
1, 143749, Note_off_c, 1, 56, 0
1, 143749, Note_off_c, 1, 71, 0
1, 143752, Note_on_c, 1, 58, 127
1, 143752, Note_on_c, 1, 73, 127
1, 143827, Note_off_c, 1, 58, 0
1, 143827, Note_off_c, 1, 73, 0
1, 143829, Note_on_c, 1, 59, 127
1, 143829, Note_on_c, 1, 74, 127
1, 143980, Note_off_c, 1, 59, 0
1, 143982, Note_on_c, 1, 61, 127
1, 144133, Note_off_c, 1, 61, 0
1, 144135, Note_on_c, 1, 62, 127
1, 144439, Note_off_c, 1, 62, 0
1, 144442, Note_on_c, 1, 64, 127
1, 144746, Note_off_c, 1, 64, 0
1, 144750, Note_on_c, 1, 66, 127
1, 145054, Note_off_c, 1, 66, 0
1, 145057, Note_on_c, 1, 68, 127
1, 145361, Note_off_c, 1, 68, 0
1, 145365, Note_on_c, 1, 69, 127
1, 145365, Note_on_c, 1, 47, 127
1, 145669, Note_off_c, 1, 69, 0
1, 145671, Note_off_c, 1, 47, 0
1, 145672, Note_on_c, 1, 52, 127
1, 145823, Note_off_c, 1, 52, 0
1, 145825, Note_on_c, 1, 54, 127
1, 145976, Note_off_c, 1, 54, 0
1, 145978, Note_on_c, 1, 56, 127
1, 146186, Note_off_c, 1, 56, 0
1, 146286, Note_on_c, 1, 57, 127
1, 146494, Note_off_c, 1, 57, 0
1, 147209, Note_on_c, 1, 71, 127
1, 147659, Note_off_c, 1, 71, 0
1, 147671, Note_off_c, 1, 74, 0
1, 148132, Note_on_c, 1, 61, 127
1, 148132, Note_on_c, 1, 71, 127
1, 148283, Note_off_c, 1, 61, 0
1, 148285, Note_on_c, 1, 59, 127
1, 148285, Note_on_c, 1, 64, 127
1, 148435, Note_off_c, 1, 71, 0
1, 148436, Note_off_c, 1, 59, 0
1, 148436, Note_off_c, 1, 64, 0
1, 148438, Note_on_c, 1, 57, 127
1, 148438, Note_on_c, 1, 73, 127
1, 148589, Note_off_c, 1, 57, 0
1, 148591, Note_on_c, 1, 59, 127
1, 148591, Note_on_c, 1, 64, 127
1, 148741, Note_off_c, 1, 73, 0
1, 148742, Note_off_c, 1, 59, 0
1, 148742, Note_off_c, 1, 64, 0
1, 148744, Note_on_c, 1, 57, 127
1, 148744, Note_on_c, 1, 74, 127
1, 148895, Note_off_c, 1, 57, 0
1, 148897, Note_on_c, 1, 55, 127
1, 148897, Note_on_c, 1, 66, 127
1, 149015, Note_off_c, 1, 74, 0
1, 149050, Note_off_c, 1, 55, 0
1, 149051, Note_on_c, 1, 54, 127
1, 149051, Note_on_c, 1, 76, 127
1, 149051, Note_on_c, 1, 49, 127
1, 149090, Note_off_c, 1, 66, 0
1, 149204, Note_off_c, 1, 54, 0
1, 149206, Note_on_c, 1, 52, 127
1, 149206, Note_on_c, 1, 67, 127
1, 149291, Note_off_c, 1, 76, 0
1, 149357, Note_off_c, 1, 49, 0
1, 149357, Note_off_c, 1, 52, 0
1, 149357, Note_off_c, 1, 67, 0
1, 149359, Note_on_c, 1, 66, 127
1, 149359, Note_on_c, 1, 50, 127
1, 149510, Note_off_c, 1, 66, 0
1, 149512, Note_on_c, 1, 67, 127
1, 149587, Note_off_c, 1, 67, 0
1, 149589, Note_on_c, 1, 69, 127
1, 149664, Note_off_c, 1, 69, 0
1, 149666, Note_on_c, 1, 71, 127
1, 149818, Note_off_c, 1, 50, 0
1, 149819, Note_on_c, 1, 52, 127
1, 149969, Note_off_c, 1, 71, 0
1, 149970, Note_off_c, 1, 52, 0
1, 149972, Note_on_c, 1, 50, 127
1, 149972, Note_on_c, 1, 73, 127
1, 150123, Note_off_c, 1, 50, 0
1, 150125, Note_on_c, 1, 49, 127
1, 150125, Note_on_c, 1, 66, 127
1, 150275, Note_off_c, 1, 73, 0
1, 150276, Note_off_c, 1, 49, 0
1, 150276, Note_off_c, 1, 66, 0
1, 150278, Note_on_c, 1, 47, 127
1, 150278, Note_on_c, 1, 74, 127
1, 150429, Note_off_c, 1, 47, 0
1, 150431, Note_on_c, 1, 49, 127
1, 150431, Note_on_c, 1, 66, 127
1, 150581, Note_off_c, 1, 74, 0
1, 150582, Note_off_c, 1, 49, 0
1, 150582, Note_off_c, 1, 66, 0
1, 150584, Note_on_c, 1, 47, 127
1, 150584, Note_on_c, 1, 76, 127
1, 150735, Note_off_c, 1, 47, 0
1, 150737, Note_on_c, 1, 45, 127
1, 150737, Note_on_c, 1, 67, 127
1, 150887, Note_off_c, 1, 76, 0
1, 150888, Note_off_c, 1, 45, 0
1, 150890, Note_on_c, 1, 43, 127
1, 150890, Note_on_c, 1, 78, 127
1, 150928, Note_off_c, 1, 67, 0
1, 151043, Note_off_c, 1, 43, 0
1, 151043, Note_off_c, 1, 78, 0
1, 151045, Note_on_c, 1, 42, 127
1, 151045, Note_on_c, 1, 69, 127
1, 151196, Note_off_c, 1, 42, 0
1, 151196, Note_off_c, 1, 69, 0
1, 151198, Note_on_c, 1, 67, 127
1, 151198, Note_on_c, 1, 40, 127
1, 151349, Note_off_c, 1, 67, 0
1, 151351, Note_on_c, 1, 66, 127
1, 151502, Note_off_c, 1, 40, 0
1, 151502, Note_off_c, 1, 66, 0
1, 151504, Note_on_c, 1, 50, 127
1, 151504, Note_on_c, 1, 67, 127
1, 151658, Note_on_c, 1, 71, 127
1, 151809, Note_off_c, 1, 71, 0
1, 151810, Note_off_c, 1, 50, 0
1, 151811, Note_on_c, 1, 76, 127
1, 151811, Note_on_c, 1, 49, 127
1, 151953, Note_off_c, 1, 67, 0
1, 152115, Note_off_c, 1, 76, 0
1, 152117, Note_off_c, 1, 49, 0
1, 152119, Note_on_c, 1, 66, 127
1, 152119, Note_on_c, 1, 50, 127
1, 152273, Note_on_c, 1, 71, 127
1, 152423, Note_off_c, 1, 66, 0
1, 152424, Note_off_c, 1, 71, 0
1, 152426, Note_on_c, 1, 52, 127
1, 152426, Note_on_c, 1, 69, 127
1, 152544, Note_off_c, 1, 50, 0
1, 152577, Note_off_c, 1, 52, 0
1, 152577, Note_off_c, 1, 69, 0
1, 152579, Note_on_c, 1, 50, 127
1, 152579, Note_on_c, 1, 73, 127
1, 152730, Note_off_c, 1, 50, 0
1, 152730, Note_off_c, 1, 73, 0
1, 152732, Note_on_c, 1, 49, 127
1, 152732, Note_on_c, 1, 47, 127
1, 152732, Note_on_c, 1, 74, 127
1, 152883, Note_off_c, 1, 49, 0
1, 152885, Note_on_c, 1, 50, 127
1, 153036, Note_off_c, 1, 47, 0
1, 153036, Note_off_c, 1, 50, 0
1, 153038, Note_on_c, 1, 43, 127
1, 153038, Note_on_c, 1, 52, 127
1, 153344, Note_off_c, 1, 74, 0
1, 153344, Note_off_c, 1, 43, 0
1, 153344, Note_off_c, 1, 52, 0
1, 153345, Note_on_c, 1, 54, 127
1, 153345, Note_on_c, 1, 73, 127
1, 153345, Note_on_c, 1, 45, 127
1, 153496, Note_off_c, 1, 54, 0
1, 153498, Note_on_c, 1, 52, 127
1, 153649, Note_off_c, 1, 52, 0
1, 153651, Note_on_c, 1, 50, 127
1, 153802, Note_off_c, 1, 50, 0
1, 153886, Note_off_c, 1, 73, 0
1, 153955, Note_off_c, 1, 45, 0
1, 153958, Note_on_c, 1, 50, 127
1, 153958, Note_on_c, 1, 54, 127
1, 153958, Note_on_c, 1, 74, 127
1, 154264, Note_off_c, 1, 50, 0
1, 154264, Note_off_c, 1, 54, 0
1, 154264, Note_off_c, 1, 74, 0
1, 154265, Note_on_c, 1, 76, 127
1, 154265, Note_on_c, 1, 49, 127
1, 154265, Note_on_c, 1, 52, 127
1, 154416, Note_off_c, 1, 76, 0
1, 154418, Note_on_c, 1, 74, 127
1, 154569, Note_off_c, 1, 49, 0
1, 154569, Note_off_c, 1, 52, 0
1, 154569, Note_off_c, 1, 74, 0
1, 154571, Note_on_c, 1, 73, 127
1, 154571, Note_on_c, 1, 47, 127
1, 154571, Note_on_c, 1, 50, 127
1, 154722, Note_off_c, 1, 73, 0
1, 154724, Note_on_c, 1, 74, 127
1, 154875, Note_off_c, 1, 47, 0
1, 154875, Note_off_c, 1, 50, 0
1, 154875, Note_off_c, 1, 74, 0
1, 154877, Note_on_c, 1, 49, 127
1, 154877, Note_on_c, 1, 76, 127
1, 154877, Note_on_c, 1, 45, 127
1, 155117, Note_off_c, 1, 49, 0
1, 155183, Note_off_c, 1, 76, 0
1, 155184, Note_on_c, 1, 78, 127
1, 155184, Note_on_c, 1, 59, 127
1, 155335, Note_off_c, 1, 78, 0
1, 155490, Note_on_c, 1, 74, 127
1, 155641, Note_off_c, 1, 74, 0
1, 155794, Note_off_c, 1, 59, 0
1, 155796, Note_on_c, 1, 57, 127
1, 156102, Note_off_c, 1, 57, 0
1, 156104, Note_on_c, 1, 79, 127
1, 156255, Note_off_c, 1, 79, 0
1, 156410, Note_on_c, 1, 55, 127
1, 156561, Note_off_c, 1, 55, 0
1, 156563, Note_on_c, 1, 54, 127
1, 156714, Note_off_c, 1, 54, 0
1, 156716, Note_on_c, 1, 73, 127
1, 156716, Note_on_c, 1, 52, 127
1, 156940, Note_off_c, 1, 73, 0
1, 157022, Note_off_c, 1, 52, 0
1, 157023, Note_on_c, 1, 83, 127
1, 157482, Note_on_c, 1, 50, 127
1, 157633, Note_off_c, 1, 50, 0
1, 157634, Note_off_c, 1, 45, 0
1, 157786, Note_off_c, 1, 83, 0
1, 157788, Note_on_c, 1, 81, 127
1, 157939, Note_off_c, 1, 81, 0
1, 159788, Note_on_c, 1, 47, 127
1, 159941, Note_off_c, 1, 47, 0
1, 160558, Note_on_c, 1, 81, 127
1, 160558, Note_on_c, 1, 55, 127
1, 160633, Note_off_c, 1, 81, 0
1, 160636, Note_on_c, 1, 79, 127
1, 160711, Note_off_c, 1, 55, 0
1, 160711, Note_off_c, 1, 79, 0
1, 160713, Note_on_c, 1, 78, 127
1, 160713, Note_on_c, 1, 57, 127
1, 160867, Note_on_c, 1, 52, 127
1, 160867, Note_on_c, 1, 81, 127
1, 160906, Note_off_c, 1, 78, 0
1, 161020, Note_off_c, 1, 52, 0
1, 161020, Note_off_c, 1, 81, 0
1, 161022, Note_on_c, 1, 50, 127
1, 161022, Note_on_c, 1, 76, 127
1, 161173, Note_off_c, 1, 50, 0
1, 161175, Note_on_c, 1, 49, 127
1, 161213, Note_off_c, 1, 76, 0
1, 161328, Note_off_c, 1, 49, 0
1, 161329, Note_on_c, 1, 74, 127
1, 161329, Note_on_c, 1, 47, 127
1, 161480, Note_off_c, 1, 57, 0
1, 161482, Note_on_c, 1, 55, 127
1, 161520, Note_off_c, 1, 74, 0
1, 161635, Note_off_c, 1, 55, 0
1, 161637, Note_on_c, 1, 54, 127
1, 161637, Note_on_c, 1, 73, 127
1, 161788, Note_off_c, 1, 54, 0
1, 161828, Note_off_c, 1, 73, 0
1, 161944, Note_on_c, 1, 71, 127
1, 162135, Note_off_c, 1, 71, 0
1, 162249, Note_off_c, 1, 47, 0
1, 162252, Note_on_c, 1, 52, 127
1, 162252, Note_on_c, 1, 79, 127
1, 162403, Note_off_c, 1, 52, 0
1, 162403, Note_off_c, 1, 79, 0
1, 162405, Note_on_c, 1, 54, 127
1, 162405, Note_on_c, 1, 78, 127
1, 162556, Note_off_c, 1, 54, 0
1, 162556, Note_off_c, 1, 78, 0
1, 162558, Note_on_c, 1, 76, 127
1, 162558, Note_on_c, 1, 55, 127
1, 162712, Note_on_c, 1, 50, 127
1, 162712, Note_on_c, 1, 79, 127
1, 162782, Note_off_c, 1, 76, 0
1, 162863, Note_off_c, 1, 50, 0
1, 162863, Note_off_c, 1, 79, 0
1, 162865, Note_on_c, 1, 49, 127
1, 162865, Note_on_c, 1, 74, 127
1, 163016, Note_off_c, 1, 49, 0
1, 163018, Note_on_c, 1, 47, 127
1, 163088, Note_off_c, 1, 74, 0
1, 163169, Note_off_c, 1, 47, 0
1, 163171, Note_on_c, 1, 73, 127
1, 163171, Note_on_c, 1, 45, 127
1, 163323, Note_off_c, 1, 55, 0
1, 163324, Note_on_c, 1, 54, 127
1, 163394, Note_off_c, 1, 73, 0
1, 163475, Note_off_c, 1, 54, 0
1, 163477, Note_on_c, 1, 52, 127
1, 163477, Note_on_c, 1, 71, 127
1, 163628, Note_off_c, 1, 52, 0
1, 163700, Note_off_c, 1, 71, 0
1, 163783, Note_on_c, 1, 69, 127
1, 164006, Note_off_c, 1, 69, 0
1, 164087, Note_off_c, 1, 45, 0
1, 164089, Note_on_c, 1, 50, 127
1, 164089, Note_on_c, 1, 78, 127
1, 164240, Note_off_c, 1, 50, 0
1, 164240, Note_off_c, 1, 78, 0
1, 164242, Note_on_c, 1, 52, 127
1, 164242, Note_on_c, 1, 76, 127
1, 164393, Note_off_c, 1, 52, 0
1, 164393, Note_off_c, 1, 76, 0
1, 164395, Note_on_c, 1, 74, 127
1, 164395, Note_on_c, 1, 54, 127
1, 164550, Note_on_c, 1, 48, 127
1, 164550, Note_on_c, 1, 78, 127
1, 164652, Note_off_c, 1, 74, 0
1, 164703, Note_off_c, 1, 48, 0
1, 164703, Note_off_c, 1, 78, 0
1, 164704, Note_on_c, 1, 47, 127
1, 164704, Note_on_c, 1, 72, 127
1, 164855, Note_off_c, 1, 47, 0
1, 164857, Note_on_c, 1, 45, 127
1, 164959, Note_off_c, 1, 72, 0
1, 165010, Note_off_c, 1, 45, 0
1, 165011, Note_on_c, 1, 71, 127
1, 165011, Note_on_c, 1, 43, 127
1, 165162, Note_off_c, 1, 54, 0
1, 165266, Note_off_c, 1, 71, 0
1, 165319, Note_on_c, 1, 49, 127
1, 165319, Note_on_c, 1, 69, 127
1, 165460, Note_off_c, 1, 43, 0
1, 165472, Note_off_c, 1, 49, 0
1, 165473, Note_on_c, 1, 51, 127
1, 165576, Note_off_c, 1, 69, 0
1, 165626, Note_off_c, 1, 51, 0
1, 165628, Note_on_c, 1, 52, 127
1, 165628, Note_on_c, 1, 67, 127
1, 165779, Note_off_c, 1, 52, 0
1, 165781, Note_on_c, 1, 54, 127
1, 165781, Note_on_c, 1, 78, 127
1, 165883, Note_off_c, 1, 67, 0
1, 165934, Note_off_c, 1, 54, 0
1, 165934, Note_off_c, 1, 78, 0
1, 165935, Note_on_c, 1, 55, 127
1, 165935, Note_on_c, 1, 76, 127
1, 166086, Note_off_c, 1, 55, 0
1, 166086, Note_off_c, 1, 76, 0
1, 166088, Note_on_c, 1, 57, 127
1, 166088, Note_on_c, 1, 74, 127
1, 166239, Note_off_c, 1, 57, 0
1, 166239, Note_off_c, 1, 74, 0
1, 166241, Note_on_c, 1, 55, 127
1, 166241, Note_on_c, 1, 73, 127
1, 166392, Note_off_c, 1, 55, 0
1, 166394, Note_on_c, 1, 54, 127
1, 166394, Note_on_c, 1, 76, 127
1, 166512, Note_off_c, 1, 73, 0
1, 166547, Note_off_c, 1, 54, 0
1, 166547, Note_off_c, 1, 76, 0
1, 166549, Note_on_c, 1, 52, 127
1, 166549, Note_on_c, 1, 71, 127
1, 166700, Note_off_c, 1, 52, 0
1, 166702, Note_on_c, 1, 50, 127
1, 166702, Note_on_c, 1, 76, 127
1, 166804, Note_off_c, 1, 71, 0
1, 166855, Note_off_c, 1, 50, 0
1, 166855, Note_off_c, 1, 76, 0
1, 166856, Note_on_c, 1, 49, 127
1, 166856, Note_on_c, 1, 69, 127
1, 167007, Note_off_c, 1, 49, 0
1, 167009, Note_on_c, 1, 45, 127
1, 167009, Note_on_c, 1, 76, 127
1, 167094, Note_off_c, 1, 69, 0
1, 167160, Note_off_c, 1, 45, 0
1, 167160, Note_off_c, 1, 76, 0
1, 167162, Note_on_c, 1, 47, 127
1, 167162, Note_on_c, 1, 67, 127
1, 167313, Note_off_c, 1, 47, 0
1, 167315, Note_on_c, 1, 49, 127
1, 167315, Note_on_c, 1, 76, 127
1, 167353, Note_off_c, 1, 67, 0
1, 167468, Note_off_c, 1, 49, 0
1, 167468, Note_off_c, 1, 76, 0
1, 167470, Note_on_c, 1, 50, 127
1, 167470, Note_on_c, 1, 66, 127
1, 167621, Note_off_c, 1, 50, 0
1, 167621, Note_off_c, 1, 66, 0
1, 167623, Note_on_c, 1, 52, 127
1, 167623, Note_on_c, 1, 76, 127
1, 167774, Note_off_c, 1, 52, 0
1, 167774, Note_off_c, 1, 76, 0
1, 167776, Note_on_c, 1, 54, 127
1, 167776, Note_on_c, 1, 74, 127
1, 167927, Note_off_c, 1, 54, 0
1, 167929, Note_on_c, 1, 55, 127
1, 167929, Note_on_c, 1, 66, 127
1, 168080, Note_off_c, 1, 55, 0
1, 168080, Note_off_c, 1, 66, 0
1, 168082, Note_on_c, 1, 64, 127
1, 168082, Note_on_c, 1, 57, 127
1, 168233, Note_off_c, 1, 64, 0
1, 168235, Note_on_c, 1, 67, 127
1, 168382, Note_off_c, 1, 74, 0
1, 168388, Note_on_c, 1, 45, 127
1, 168541, Note_on_c, 1, 73, 127
1, 168682, Note_off_c, 1, 67, 0
1, 168688, Note_off_c, 1, 57, 0
1, 168692, Note_off_c, 1, 45, 0
1, 168692, Note_off_c, 1, 73, 0
1, 168694, Note_on_c, 1, 76, 127
1, 168694, Note_on_c, 1, 50, 127
1, 168769, Note_off_c, 1, 76, 0
1, 168771, Note_on_c, 1, 74, 127
1, 168846, Note_off_c, 1, 74, 0
1, 169001, Note_off_c, 1, 50, 0
1, 169003, Note_on_c, 1, 76, 127
1, 169003, Note_on_c, 1, 48, 127
1, 169078, Note_off_c, 1, 76, 0
1, 169080, Note_on_c, 1, 74, 127
1, 169155, Note_off_c, 1, 74, 0
1, 169156, Note_off_c, 1, 48, 0
1, 169157, Note_on_c, 1, 76, 127
1, 169157, Note_on_c, 1, 50, 127
1, 169232, Note_off_c, 1, 76, 0
1, 169234, Note_on_c, 1, 74, 127
1, 169309, Note_off_c, 1, 74, 0
1, 169310, Note_off_c, 1, 50, 0
1, 169311, Note_on_c, 1, 76, 127
1, 169311, Note_on_c, 1, 52, 127
1, 169386, Note_off_c, 1, 76, 0
1, 169389, Note_on_c, 1, 74, 127
1, 169464, Note_off_c, 1, 52, 0
1, 169464, Note_off_c, 1, 74, 0
1, 169466, Note_on_c, 1, 76, 127
1, 169466, Note_on_c, 1, 50, 127
1, 169541, Note_off_c, 1, 76, 0
1, 169543, Note_on_c, 1, 74, 127
1, 169618, Note_off_c, 1, 74, 0
1, 169619, Note_off_c, 1, 50, 0
1, 169620, Note_on_c, 1, 76, 127
1, 169620, Note_on_c, 1, 48, 127
1, 169695, Note_off_c, 1, 76, 0
1, 169698, Note_on_c, 1, 74, 127
1, 169773, Note_off_c, 1, 74, 0
1, 169927, Note_off_c, 1, 48, 0
1, 169929, Note_on_c, 1, 76, 127
1, 169929, Note_on_c, 1, 47, 127
1, 170004, Note_off_c, 1, 76, 0
1, 170006, Note_on_c, 1, 74, 127
1, 170081, Note_off_c, 1, 74, 0
1, 170082, Note_off_c, 1, 47, 0
1, 170084, Note_on_c, 1, 76, 127
1, 170084, Note_on_c, 1, 48, 127
1, 170159, Note_off_c, 1, 76, 0
1, 170161, Note_on_c, 1, 74, 127
1, 170236, Note_off_c, 1, 74, 0
1, 170237, Note_off_c, 1, 48, 0
1, 170238, Note_on_c, 1, 76, 127
1, 170238, Note_on_c, 1, 50, 127
1, 170313, Note_off_c, 1, 76, 0
1, 170315, Note_on_c, 1, 74, 127
1, 170390, Note_off_c, 1, 74, 0
1, 170391, Note_off_c, 1, 50, 0
1, 170393, Note_on_c, 1, 72, 127
1, 170393, Note_on_c, 1, 48, 127
1, 170468, Note_off_c, 1, 72, 0
1, 170470, Note_on_c, 1, 74, 127
1, 170546, Note_off_c, 1, 48, 0
1, 170547, Note_on_c, 1, 47, 127
1, 170701, Note_on_c, 1, 67, 127
1, 170852, Note_off_c, 1, 67, 0
1, 170853, Note_off_c, 1, 47, 0
1, 170854, Note_on_c, 1, 65, 127
1, 171005, Note_off_c, 1, 65, 0
1, 171007, Note_on_c, 1, 64, 127
1, 171158, Note_off_c, 1, 64, 0
1, 171160, Note_on_c, 1, 62, 127
1, 171160, Note_on_c, 1, 50, 127
1, 171311, Note_off_c, 1, 62, 0
1, 171464, Note_off_c, 1, 50, 0
1, 171466, Note_on_c, 1, 55, 127
1, 171721, Note_off_c, 1, 55, 0
1, 171765, Note_off_c, 1, 74, 0
1, 171772, Note_on_c, 1, 64, 127
1, 171772, Note_on_c, 1, 45, 127
1, 171772, Note_on_c, 1, 72, 127
1, 171923, Note_off_c, 1, 64, 0
1, 171925, Note_on_c, 1, 62, 127
1, 172076, Note_off_c, 1, 62, 0
1, 172078, Note_on_c, 1, 60, 127
1, 172229, Note_off_c, 1, 60, 0
1, 172382, Note_off_c, 1, 45, 0
1, 172384, Note_on_c, 1, 47, 127
1, 172688, Note_off_c, 1, 72, 0
1, 172688, Note_off_c, 1, 47, 0
1, 172691, Note_on_c, 1, 62, 127
1, 172691, Note_on_c, 1, 48, 127
1, 172691, Note_on_c, 1, 71, 127
1, 172842, Note_off_c, 1, 62, 0
1, 172844, Note_on_c, 1, 60, 127
1, 172995, Note_off_c, 1, 48, 0
1, 172995, Note_off_c, 1, 60, 0
1, 172997, Note_on_c, 1, 59, 127
1, 172997, Note_on_c, 1, 50, 127
1, 173148, Note_off_c, 1, 59, 0
1, 173301, Note_off_c, 1, 50, 0
1, 173303, Note_on_c, 1, 52, 127
1, 173558, Note_off_c, 1, 52, 0
1, 173609, Note_off_c, 1, 71, 0
1, 173610, Note_on_c, 1, 60, 127
1, 173610, Note_on_c, 1, 42, 127
1, 173610, Note_on_c, 1, 69, 127
1, 173761, Note_off_c, 1, 60, 0
1, 173763, Note_on_c, 1, 59, 127
1, 173914, Note_off_c, 1, 59, 0
1, 173916, Note_on_c, 1, 57, 127
1, 174067, Note_off_c, 1, 57, 0
1, 174220, Note_off_c, 1, 42, 0
1, 174222, Note_on_c, 1, 43, 127
1, 174376, Note_off_c, 1, 69, 0
1, 174376, Note_on_c, 1, 67, 127
1, 174527, Note_off_c, 1, 67, 0
1, 174528, Note_off_c, 1, 43, 0
1, 174836, Note_on_c, 1, 45, 127
1, 174836, Note_on_c, 1, 66, 127
1, 174987, Note_off_c, 1, 45, 0
1, 174987, Note_off_c, 1, 66, 0
1, 174989, Note_on_c, 1, 47, 127
1, 175140, Note_off_c, 1, 47, 0
1, 175142, Note_on_c, 1, 66, 127
1, 175142, Note_on_c, 1, 38, 127
1, 175142, Note_on_c, 1, 57, 127
1, 175321, Note_on_c, 1, 62, 127
1, 175328, Note_off_c, 1, 66, 0
1, 175396, Note_off_c, 1, 62, 0
1, 175399, Note_on_c, 1, 64, 127
1, 175450, Note_off_c, 1, 38, 0
1, 175472, Note_off_c, 1, 57, 0
1, 175474, Note_off_c, 1, 64, 0
1, 175476, Note_on_c, 1, 60, 127
1, 175476, Note_on_c, 1, 66, 127
1, 175630, Note_off_c, 1, 60, 0
1, 175632, Note_on_c, 1, 62, 127
1, 175632, Note_on_c, 1, 59, 127
1, 175703, Note_off_c, 1, 66, 0
1, 175786, Note_off_c, 1, 62, 0
1, 175786, Note_off_c, 1, 59, 0
1, 175788, Note_on_c, 1, 57, 127
1, 175788, Note_on_c, 1, 67, 127
1, 175942, Note_off_c, 1, 57, 0
1, 175943, Note_on_c, 1, 62, 127
1, 175943, Note_on_c, 1, 55, 127
1, 176015, Note_off_c, 1, 67, 0
1, 176097, Note_off_c, 1, 62, 0
1, 176097, Note_off_c, 1, 55, 0
1, 176099, Note_on_c, 1, 54, 127
1, 176099, Note_on_c, 1, 69, 127
1, 176253, Note_off_c, 1, 54, 0
1, 176255, Note_on_c, 1, 62, 127
1, 176255, Note_on_c, 1, 52, 127
1, 176326, Note_off_c, 1, 69, 0
1, 176409, Note_off_c, 1, 62, 0
1, 176409, Note_off_c, 1, 52, 0
1, 176411, Note_on_c, 1, 50, 127
1, 176411, Note_on_c, 1, 71, 127
1, 176565, Note_off_c, 1, 50, 0
1, 176567, Note_on_c, 1, 62, 127
1, 176567, Note_on_c, 1, 48, 127
1, 176638, Note_off_c, 1, 71, 0
1, 176721, Note_off_c, 1, 62, 0
1, 176721, Note_off_c, 1, 48, 0
1, 176723, Note_on_c, 1, 47, 127
1, 176723, Note_on_c, 1, 72, 127
1, 176877, Note_off_c, 1, 47, 0
1, 176879, Note_on_c, 1, 62, 127
1, 176879, Note_on_c, 1, 45, 127
1, 176950, Note_off_c, 1, 72, 0
1, 177033, Note_off_c, 1, 62, 0
1, 177033, Note_off_c, 1, 45, 0
1, 177035, Note_on_c, 1, 71, 127
1, 177035, Note_on_c, 1, 43, 127
1, 177190, Note_off_c, 1, 71, 0
1, 177190, Note_off_c, 1, 43, 0
1, 177192, Note_on_c, 1, 79, 127
1, 177192, Note_on_c, 1, 45, 127
1, 177347, Note_off_c, 1, 79, 0
1, 177347, Note_off_c, 1, 45, 0
1, 177349, Note_on_c, 1, 77, 127
1, 177349, Note_on_c, 1, 47, 127
1, 177504, Note_off_c, 1, 77, 0
1, 177506, Note_on_c, 1, 76, 127
1, 177506, Note_on_c, 1, 43, 127
1, 177579, Note_off_c, 1, 47, 0
1, 177663, Note_off_c, 1, 76, 0
1, 177663, Note_off_c, 1, 43, 0
1, 177665, Note_on_c, 1, 74, 127
1, 177665, Note_on_c, 1, 48, 127
1, 177820, Note_off_c, 1, 74, 0
1, 177822, Note_on_c, 1, 72, 127
1, 177822, Note_on_c, 1, 43, 127
1, 177895, Note_off_c, 1, 48, 0
1, 177979, Note_off_c, 1, 72, 0
1, 177979, Note_off_c, 1, 43, 0
1, 177981, Note_on_c, 1, 71, 127
1, 177981, Note_on_c, 1, 50, 127
1, 178136, Note_off_c, 1, 71, 0
1, 178139, Note_on_c, 1, 69, 127
1, 178139, Note_on_c, 1, 43, 127
1, 178211, Note_off_c, 1, 50, 0
1, 178296, Note_off_c, 1, 69, 0
1, 178296, Note_off_c, 1, 43, 0
1, 178297, Note_on_c, 1, 67, 127
1, 178297, Note_on_c, 1, 52, 127
1, 178452, Note_off_c, 1, 67, 0
1, 178455, Note_on_c, 1, 65, 127
1, 178455, Note_on_c, 1, 43, 127
1, 178527, Note_off_c, 1, 52, 0
1, 178612, Note_off_c, 1, 65, 0
1, 178612, Note_off_c, 1, 43, 0
1, 178613, Note_on_c, 1, 64, 127
1, 178613, Note_on_c, 1, 53, 127
1, 178768, Note_off_c, 1, 64, 0
1, 178771, Note_on_c, 1, 62, 127
1, 178771, Note_on_c, 1, 43, 127
1, 178843, Note_off_c, 1, 53, 0
1, 178928, Note_off_c, 1, 62, 0
1, 178928, Note_off_c, 1, 43, 0
1, 178929, Note_on_c, 1, 60, 127
1, 178929, Note_on_c, 1, 52, 127
1, 179087, Note_off_c, 1, 60, 0
1, 179087, Note_off_c, 1, 52, 0
1, 179089, Note_on_c, 1, 40, 127
1, 179089, Note_on_c, 1, 76, 127
1, 179167, Note_off_c, 1, 40, 0
1, 179170, Note_on_c, 1, 42, 127
1, 179247, Note_off_c, 1, 76, 0
1, 179248, Note_off_c, 1, 42, 0
1, 179250, Note_on_c, 1, 74, 127
1, 179250, Note_on_c, 1, 44, 127
1, 179408, Note_off_c, 1, 74, 0
1, 179410, Note_on_c, 1, 72, 127
1, 179410, Note_on_c, 1, 40, 127
1, 179517, Note_off_c, 1, 44, 0
1, 179568, Note_off_c, 1, 72, 0
1, 179568, Note_off_c, 1, 40, 0
1, 179570, Note_on_c, 1, 71, 127
1, 179570, Note_on_c, 1, 45, 127
1, 179728, Note_off_c, 1, 71, 0
1, 179730, Note_on_c, 1, 69, 127
1, 179730, Note_on_c, 1, 40, 127
1, 179837, Note_off_c, 1, 45, 0
1, 179888, Note_off_c, 1, 69, 0
1, 179888, Note_off_c, 1, 40, 0
1, 179890, Note_on_c, 1, 68, 127
1, 179890, Note_on_c, 1, 47, 127
1, 180048, Note_off_c, 1, 68, 0
1, 180050, Note_on_c, 1, 66, 127
1, 180050, Note_on_c, 1, 40, 127
1, 180157, Note_off_c, 1, 47, 0
1, 180208, Note_off_c, 1, 66, 0
1, 180208, Note_off_c, 1, 40, 0
1, 180211, Note_on_c, 1, 64, 127
1, 180211, Note_on_c, 1, 48, 127
1, 180369, Note_off_c, 1, 64, 0
1, 180371, Note_on_c, 1, 62, 127
1, 180371, Note_on_c, 1, 40, 127
1, 180478, Note_off_c, 1, 48, 0
1, 180529, Note_off_c, 1, 62, 0
1, 180529, Note_off_c, 1, 40, 0
1, 180531, Note_on_c, 1, 60, 127
1, 180531, Note_on_c, 1, 50, 127
1, 180689, Note_off_c, 1, 60, 0
1, 180691, Note_on_c, 1, 59, 127
1, 180691, Note_on_c, 1, 40, 127
1, 180798, Note_off_c, 1, 50, 0
1, 180849, Note_off_c, 1, 59, 0
1, 180849, Note_off_c, 1, 40, 0
1, 180851, Note_on_c, 1, 57, 127
1, 180851, Note_on_c, 1, 49, 127
1, 181011, Note_off_c, 1, 57, 0
1, 181011, Note_off_c, 1, 49, 0
1, 181013, Note_on_c, 1, 59, 127
1, 181013, Note_on_c, 1, 57, 127
1, 181173, Note_off_c, 1, 59, 0
1, 181173, Note_off_c, 1, 57, 0
1, 181174, Note_on_c, 1, 55, 127
1, 181174, Note_on_c, 1, 61, 127
1, 181334, Note_off_c, 1, 55, 0
1, 181336, Note_on_c, 1, 54, 127
1, 181336, Note_on_c, 1, 57, 127
1, 181494, Note_off_c, 1, 61, 0
1, 181496, Note_off_c, 1, 54, 0
1, 181498, Note_on_c, 1, 52, 127
1, 181498, Note_on_c, 1, 62, 127
1, 181571, Note_off_c, 1, 57, 0
1, 181658, Note_off_c, 1, 52, 0
1, 181659, Note_on_c, 1, 50, 127
1, 181818, Note_off_c, 1, 62, 0
1, 181819, Note_off_c, 1, 50, 0
1, 181821, Note_on_c, 1, 49, 127
1, 181821, Note_on_c, 1, 64, 127
1, 181981, Note_off_c, 1, 49, 0
1, 181982, Note_on_c, 1, 47, 127
1, 182141, Note_off_c, 1, 64, 0
1, 182142, Note_off_c, 1, 47, 0
1, 182144, Note_on_c, 1, 45, 127
1, 182144, Note_on_c, 1, 66, 127
1, 182304, Note_off_c, 1, 45, 0
1, 182306, Note_on_c, 1, 43, 127
1, 182464, Note_off_c, 1, 66, 0
1, 182466, Note_off_c, 1, 43, 0
1, 182467, Note_on_c, 1, 67, 127
1, 182467, Note_on_c, 1, 42, 127
1, 182628, Note_off_c, 1, 67, 0
1, 182628, Note_off_c, 1, 42, 0
1, 182630, Note_on_c, 1, 57, 127
1, 182630, Note_on_c, 1, 40, 127
1, 182790, Note_off_c, 1, 57, 0
1, 182790, Note_off_c, 1, 40, 0
1, 182792, Note_on_c, 1, 66, 127
1, 182792, Note_on_c, 1, 62, 127
1, 182792, Note_on_c, 1, 38, 127
1, 183119, Note_off_c, 1, 66, 0
1, 183119, Note_off_c, 1, 62, 0
1, 183121, Note_on_c, 1, 60, 127
1, 183121, Note_on_c, 1, 71, 127
1, 183284, Note_off_c, 1, 60, 0
1, 183448, Note_off_c, 1, 71, 0
1, 183450, Note_on_c, 1, 64, 127
1, 183450, Note_on_c, 1, 67, 127
1, 183613, Note_off_c, 1, 64, 0
1, 183777, Note_off_c, 1, 38, 0
1, 183777, Note_off_c, 1, 67, 0
1, 183778, Note_on_c, 1, 64, 127
1, 183778, Note_on_c, 1, 60, 127
1, 183778, Note_on_c, 1, 38, 127
1, 184105, Note_off_c, 1, 64, 0
1, 184105, Note_off_c, 1, 60, 0
1, 184107, Note_on_c, 1, 59, 127
1, 184107, Note_on_c, 1, 69, 127
1, 184270, Note_off_c, 1, 59, 0
1, 184434, Note_off_c, 1, 69, 0
1, 184436, Note_on_c, 1, 62, 127
1, 184436, Note_on_c, 1, 66, 127
1, 184599, Note_off_c, 1, 62, 0
1, 184763, Note_off_c, 1, 66, 0
1, 184765, Note_on_c, 1, 67, 127
1, 184930, Note_on_c, 1, 50, 127
1, 185092, Note_off_c, 1, 38, 0
1, 185093, Note_off_c, 1, 50, 0
1, 185094, Note_on_c, 1, 48, 127
1, 185257, Note_off_c, 1, 48, 0
1, 185423, Note_on_c, 1, 52, 127
1, 185586, Note_off_c, 1, 52, 0
1, 185914, Note_off_c, 1, 67, 0
1, 186081, Note_on_c, 1, 71, 127
1, 186081, Note_on_c, 1, 47, 127
1, 186081, Note_on_c, 1, 54, 127
1, 186161, Note_off_c, 1, 71, 0
1, 186162, Note_on_c, 1, 69, 127
1, 186242, Note_off_c, 1, 47, 0
1, 186242, Note_off_c, 1, 69, 0
1, 186244, Note_on_c, 1, 48, 127
1, 186405, Note_off_c, 1, 48, 0
1, 186407, Note_on_c, 1, 50, 127
1, 186568, Note_off_c, 1, 50, 0
1, 186570, Note_on_c, 1, 67, 127
1, 186650, Note_off_c, 1, 67, 0
1, 186731, Note_off_c, 1, 54, 0
1, 186733, Note_on_c, 1, 71, 127
1, 186733, Note_on_c, 1, 55, 127
1, 186733, Note_on_c, 1, 47, 127
1, 187060, Note_off_c, 1, 71, 0
1, 187060, Note_off_c, 1, 55, 0
1, 187060, Note_off_c, 1, 47, 0
1, 187062, Note_on_c, 1, 72, 127
1, 187062, Note_on_c, 1, 69, 127
1, 187062, Note_on_c, 1, 45, 127
1, 187225, Note_off_c, 1, 72, 0
1, 187225, Note_off_c, 1, 69, 0
1, 187225, Note_off_c, 1, 45, 0
1, 187226, Note_on_c, 1, 71, 127
1, 187226, Note_on_c, 1, 67, 127
1, 187226, Note_on_c, 1, 47, 127
1, 187389, Note_off_c, 1, 71, 0
1, 187389, Note_off_c, 1, 67, 0
1, 187389, Note_off_c, 1, 47, 0
1, 187391, Note_on_c, 1, 69, 127
1, 187391, Note_on_c, 1, 66, 127
1, 187391, Note_on_c, 1, 48, 127
1, 187554, Note_off_c, 1, 69, 0
1, 187554, Note_off_c, 1, 66, 0
1, 187554, Note_off_c, 1, 48, 0
1, 187555, Note_on_c, 1, 71, 127
1, 187555, Note_on_c, 1, 67, 127
1, 187555, Note_on_c, 1, 47, 127
1, 187718, Note_off_c, 1, 71, 0
1, 187718, Note_off_c, 1, 67, 0
1, 187718, Note_off_c, 1, 47, 0
1, 187720, Note_on_c, 1, 72, 127
1, 187720, Note_on_c, 1, 69, 127
1, 187720, Note_on_c, 1, 45, 127
1, 188047, Note_off_c, 1, 72, 0
1, 188047, Note_off_c, 1, 69, 0
1, 188047, Note_off_c, 1, 45, 0
1, 188048, Note_on_c, 1, 74, 127
1, 188048, Note_on_c, 1, 71, 127
1, 188048, Note_on_c, 1, 43, 127
1, 188211, Note_off_c, 1, 74, 0
1, 188211, Note_off_c, 1, 71, 0
1, 188211, Note_off_c, 1, 43, 0
1, 188213, Note_on_c, 1, 72, 127
1, 188213, Note_on_c, 1, 69, 127
1, 188213, Note_on_c, 1, 45, 127
1, 188376, Note_off_c, 1, 72, 0
1, 188376, Note_off_c, 1, 69, 0
1, 188376, Note_off_c, 1, 45, 0
1, 188377, Note_on_c, 1, 71, 127
1, 188377, Note_on_c, 1, 67, 127
1, 188377, Note_on_c, 1, 47, 127
1, 188540, Note_off_c, 1, 71, 0
1, 188540, Note_off_c, 1, 67, 0
1, 188540, Note_off_c, 1, 47, 0
1, 188546, Note_on_c, 1, 45, 127
1, 188546, Note_on_c, 1, 69, 127
1, 188546, Note_on_c, 1, 72, 127
1, 188716, Note_off_c, 1, 45, 0
1, 188716, Note_off_c, 1, 69, 0
1, 188716, Note_off_c, 1, 72, 0
1, 188722, Note_on_c, 1, 43, 127
1, 188722, Note_on_c, 1, 71, 127
1, 188722, Note_on_c, 1, 74, 127
1, 188887, Note_off_c, 1, 43, 0
1, 188890, Note_on_c, 1, 55, 127
1, 188971, Note_off_c, 1, 55, 0
1, 188972, Note_on_c, 1, 54, 127
1, 189053, Note_off_c, 1, 71, 0
1, 189053, Note_off_c, 1, 74, 0
1, 189053, Note_off_c, 1, 54, 0
1, 189055, Note_on_c, 1, 52, 127
1, 189055, Note_on_c, 1, 69, 127
1, 189055, Note_on_c, 1, 72, 127
1, 189220, Note_off_c, 1, 52, 0
1, 189223, Note_on_c, 1, 55, 127
1, 189388, Note_off_c, 1, 69, 0
1, 189388, Note_off_c, 1, 72, 0
1, 189388, Note_off_c, 1, 55, 0
1, 189390, Note_on_c, 1, 50, 127
1, 189390, Note_on_c, 1, 71, 127
1, 189390, Note_on_c, 1, 67, 127
1, 189555, Note_off_c, 1, 50, 0
1, 189557, Note_on_c, 1, 55, 127
1, 189722, Note_off_c, 1, 55, 0
1, 189723, Note_off_c, 1, 71, 0
1, 189725, Note_on_c, 1, 49, 127
1, 189725, Note_on_c, 1, 69, 127
1, 189890, Note_off_c, 1, 49, 0
1, 190057, Note_off_c, 1, 67, 0
1, 190058, Note_off_c, 1, 69, 0
1, 190059, Note_on_c, 1, 47, 127
1, 190059, Note_on_c, 1, 74, 127
1, 190059, Note_on_c, 1, 79, 127
1, 190224, Note_off_c, 1, 47, 0
1, 190227, Note_on_c, 1, 55, 127
1, 190392, Note_off_c, 1, 74, 0
1, 190392, Note_off_c, 1, 55, 0
1, 190394, Note_on_c, 1, 45, 127
1, 190394, Note_on_c, 1, 73, 127
1, 190568, Note_off_c, 1, 45, 0
1, 190726, Note_off_c, 1, 79, 0
1, 190727, Note_off_c, 1, 73, 0
1, 190744, Note_on_c, 1, 50, 127
1, 190744, Note_on_c, 1, 78, 127
1, 190911, Note_off_c, 1, 50, 0
1, 190913, Note_on_c, 1, 48, 127
1, 191080, Note_off_c, 1, 78, 0
1, 191080, Note_off_c, 1, 48, 0
1, 191082, Note_on_c, 1, 46, 127
1, 191082, Note_on_c, 1, 76, 127
1, 191082, Note_on_c, 1, 67, 127
1, 191249, Note_off_c, 1, 46, 0
1, 191251, Note_on_c, 1, 50, 127
1, 191418, Note_off_c, 1, 76, 0
1, 191418, Note_off_c, 1, 67, 0
1, 191418, Note_off_c, 1, 50, 0
1, 191419, Note_on_c, 1, 45, 127
1, 191419, Note_on_c, 1, 74, 127
1, 191419, Note_on_c, 1, 66, 127
1, 191586, Note_off_c, 1, 45, 0
1, 191588, Note_on_c, 1, 50, 127
1, 191755, Note_off_c, 1, 74, 0
1, 191755, Note_off_c, 1, 66, 0
1, 191755, Note_off_c, 1, 50, 0
1, 191757, Note_on_c, 1, 43, 127
1, 191757, Note_on_c, 1, 73, 127
1, 191757, Note_on_c, 1, 64, 127
1, 191924, Note_off_c, 1, 43, 0
1, 191926, Note_on_c, 1, 52, 127
1, 192055, Note_off_c, 1, 73, 0
1, 192055, Note_off_c, 1, 64, 0
1, 192093, Note_off_c, 1, 52, 0
1, 192094, Note_on_c, 1, 42, 127
1, 192094, Note_on_c, 1, 82, 127
1, 192094, Note_on_c, 1, 73, 127
1, 192261, Note_off_c, 1, 42, 0
1, 192263, Note_on_c, 1, 52, 127
1, 192430, Note_off_c, 1, 52, 0
1, 192432, Note_on_c, 1, 40, 127
1, 192621, Note_off_c, 1, 40, 0
1, 192783, Note_off_c, 1, 82, 0
1, 192784, Note_off_c, 1, 73, 0
1, 192785, Note_on_c, 1, 81, 127
1, 192785, Note_on_c, 1, 72, 127
1, 192958, Note_off_c, 1, 81, 0
1, 192960, Note_on_c, 1, 79, 127
1, 193133, Note_off_c, 1, 79, 0
1, 193134, Note_on_c, 1, 78, 127
1, 193134, Note_on_c, 1, 38, 127
1, 193307, Note_off_c, 1, 78, 0
1, 193309, Note_on_c, 1, 76, 127
1, 193481, Note_off_c, 1, 38, 0
1, 193482, Note_off_c, 1, 76, 0
1, 193483, Note_on_c, 1, 43, 127
1, 193483, Note_on_c, 1, 74, 127
1, 193655, Note_off_c, 1, 72, 0
1, 193658, Note_on_c, 1, 71, 127
1, 193743, Note_off_c, 1, 71, 0
1, 193745, Note_on_c, 1, 69, 127
1, 193830, Note_off_c, 1, 43, 0
1, 193830, Note_off_c, 1, 69, 0
1, 194004, Note_off_c, 1, 74, 0
1, 194181, Note_on_c, 1, 36, 127
1, 194181, Note_on_c, 1, 69, 127
1, 194356, Note_on_c, 1, 72, 127
1, 194528, Note_off_c, 1, 36, 0
1, 194529, Note_off_c, 1, 72, 0
1, 194530, Note_on_c, 1, 79, 127
1, 194530, Note_on_c, 1, 38, 127
1, 194712, Note_on_c, 1, 78, 127
1, 194715, Note_off_c, 1, 79, 0
1, 194877, Note_off_c, 1, 69, 0
1, 194877, Note_off_c, 1, 38, 0
1, 194895, Note_on_c, 1, 71, 127
1, 194895, Note_on_c, 1, 43, 127
1, 194895, Note_on_c, 1, 55, 127
1, 194899, Note_off_c, 1, 78, 0
1, 195165, Note_on_c, 1, 76, 127
1, 195253, Note_off_c, 1, 71, 0
1, 195253, Note_off_c, 1, 76, 0
1, 195255, Note_on_c, 1, 74, 127
1, 195612, Note_off_c, 1, 74, 0
1, 195975, Note_on_c, 1, 67, 127
1, 196153, Note_off_c, 1, 43, 0
1, 196245, Note_on_c, 1, 45, 127
1, 196333, Note_off_c, 1, 45, 0
1, 196335, Note_on_c, 1, 47, 127
1, 196692, Note_off_c, 1, 47, 0
1, 196694, Note_off_c, 1, 67, 0
1, 196695, Note_on_c, 1, 48, 127
1, 196695, Note_on_c, 1, 66, 127
1, 197051, Note_off_c, 1, 48, 0
1, 197052, Note_off_c, 1, 66, 0
1, 197054, Note_on_c, 1, 50, 127
1, 197417, Note_off_c, 1, 50, 0
1, 197783, Note_on_c, 1, 65, 127
1, 198143, Note_off_c, 1, 55, 0
1, 198146, Note_off_c, 1, 65, 0
1, 198148, Note_on_c, 1, 64, 127
1, 198514, Note_on_c, 1, 52, 127
1, 198875, Note_off_c, 1, 52, 0
1, 198877, Note_off_c, 1, 64, 0
1, 198879, Note_on_c, 1, 54, 127
1, 198879, Note_on_c, 1, 63, 127
1, 199242, Note_off_c, 1, 54, 0
1, 199243, Note_off_c, 1, 63, 0
1, 199261, Note_on_c, 1, 62, 127
1, 199261, Note_on_c, 1, 43, 127
1, 199261, Note_on_c, 1, 55, 127
1, 199354, Note_on_c, 1, 67, 127
1, 199445, Note_off_c, 1, 67, 0
1, 199447, Note_on_c, 1, 69, 127
1, 199538, Note_off_c, 1, 69, 0
1, 199540, Note_on_c, 1, 71, 127
1, 199631, Note_off_c, 1, 62, 0
1, 199631, Note_off_c, 1, 71, 0
1, 199633, Note_on_c, 1, 72, 127
1, 199633, Note_on_c, 1, 64, 127
1, 200000, Note_off_c, 1, 72, 0
1, 200001, Note_off_c, 1, 64, 0
1, 200003, Note_on_c, 1, 74, 127
1, 200003, Note_on_c, 1, 65, 127
1, 200370, Note_off_c, 1, 74, 0
1, 200371, Note_off_c, 1, 65, 0
1, 200373, Note_on_c, 1, 76, 127
1, 200750, Note_off_c, 1, 76, 0
1, 201137, Note_on_c, 1, 78, 127
1, 201518, Note_off_c, 1, 78, 0
1, 201522, Note_on_c, 1, 79, 127
1, 202674, Note_off_c, 1, 79, 0
1, 204283, Note_off_c, 1, 43, 0
1, 204283, Note_off_c, 1, 55, 0
1, 204283, End_track
0, 0, End_of_file