0, 0, Header, 1, 1, 480
1, 0, Start_track
1, 0, Title_t, "Test"
1, 0, Tempo, 500000
1, 0, Instrument_name_t, "Church Organ"
1, 64, Note_on_c, 1, 58, 127
1, 142, Note_on_c, 1, 65, 127
1, 220, Note_on_c, 1, 74, 127
1, 262, Note_off_c, 1, 65, 0
1, 344, Note_off_c, 1, 58, 0
1, 376, Note_on_c, 1, 57, 127
1, 500, Note_off_c, 1, 74, 0
1, 533, Note_on_c, 1, 72, 127
1, 656, Note_off_c, 1, 57, 0
1, 813, Note_off_c, 1, 72, 0
1, 1002, Note_on_c, 1, 53, 127
1, 1081, Note_on_c, 1, 69, 127
1, 1146, Note_off_c, 1, 69, 0
1, 1159, Note_on_c, 1, 77, 127
1, 1282, Note_off_c, 1, 53, 0
1, 1315, Note_on_c, 1, 55, 127
1, 1394, Note_on_c, 1, 62, 127
1, 1439, Note_off_c, 1, 77, 0
1, 1472, Note_on_c, 1, 70, 127
1, 1514, Note_off_c, 1, 62, 0
1, 1595, Note_off_c, 1, 55, 0
1, 1752, Note_off_c, 1, 70, 0
1, 2254, Note_on_c, 1, 50, 127
1, 2534, Note_off_c, 1, 50, 0
1, 2567, Note_on_c, 1, 51, 127
1, 2724, Note_on_c, 1, 67, 127
1, 2847, Note_off_c, 1, 51, 0
1, 3004, Note_off_c, 1, 67, 0
1, 3506, Note_on_c, 1, 46, 127
1, 3786, Note_off_c, 1, 46, 0
1, 3819, Note_on_c, 1, 48, 127
1, 3976, Note_on_c, 1, 63, 127
1, 4066, Note_off_c, 1, 63, 0
1, 4067, Note_off_c, 1, 48, 0
1, 4445, Note_on_c, 1, 45, 127
1, 4523, Note_on_c, 1, 60, 127
1, 4623, Note_off_c, 1, 60, 0
1, 4655, Note_off_c, 1, 45, 0
1, 4758, Note_on_c, 1, 41, 127
1, 4898, Note_off_c, 1, 41, 0
1, 4914, Note_on_c, 1, 63, 127
1, 4993, Note_on_c, 1, 57, 127
1, 5058, Note_off_c, 1, 57, 0
1, 5071, Note_on_c, 1, 46, 127
1, 5124, Note_off_c, 1, 63, 0
1, 5188, Note_on_c, 1, 62, 127
1, 5253, Note_off_c, 1, 62, 0
1, 5266, Note_on_c, 1, 65, 127
1, 5351, Note_off_c, 1, 46, 0
1, 5421, Note_on_c, 1, 53, 127
1, 5476, Note_off_c, 1, 65, 0
1, 5491, Note_off_c, 1, 53, 0
1, 5496, Note_on_c, 1, 58, 127
1, 5561, Note_off_c, 1, 58, 0
1, 5569, Note_on_c, 1, 62, 127
1, 5639, Note_off_c, 1, 62, 0
1, 5643, Note_on_c, 1, 58, 127
1, 5708, Note_off_c, 1, 58, 0
1, 5716, Note_on_c, 1, 50, 127
1, 5786, Note_off_c, 1, 50, 0
1, 5789, Note_on_c, 1, 53, 127
1, 5854, Note_off_c, 1, 53, 0
1, 5862, Note_on_c, 1, 58, 127
1, 5932, Note_off_c, 1, 58, 0
1, 5936, Note_on_c, 1, 53, 127
1, 6001, Note_off_c, 1, 53, 0
1, 6009, Note_on_c, 1, 46, 127
1, 6082, Note_on_c, 1, 50, 127
1, 6099, Note_off_c, 1, 46, 0
1, 6147, Note_off_c, 1, 50, 0
1, 6155, Note_on_c, 1, 53, 127
1, 6225, Note_off_c, 1, 53, 0
1, 6234, Note_on_c, 1, 50, 127
1, 6299, Note_off_c, 1, 50, 0
1, 6311, Note_on_c, 1, 43, 127
1, 6479, Note_on_c, 1, 50, 127
1, 6544, Note_off_c, 1, 50, 0
1, 6557, Note_on_c, 1, 52, 127
1, 6622, Note_off_c, 1, 52, 0
1, 6636, Note_on_c, 1, 54, 127
1, 6641, Note_off_c, 1, 43, 0
1, 6701, Note_off_c, 1, 54, 0
1, 6714, Note_on_c, 1, 55, 127
1, 6779, Note_off_c, 1, 55, 0
1, 6792, Note_on_c, 1, 57, 127
1, 6857, Note_off_c, 1, 57, 0
1, 6870, Note_on_c, 1, 58, 127
1, 6935, Note_off_c, 1, 58, 0
1, 6949, Note_on_c, 1, 60, 127
1, 7014, Note_off_c, 1, 60, 0
1, 7027, Note_on_c, 1, 58, 127
1, 7092, Note_off_c, 1, 58, 0
1, 7105, Note_on_c, 1, 55, 127
1, 7170, Note_off_c, 1, 55, 0
1, 7183, Note_on_c, 1, 57, 127
1, 7248, Note_off_c, 1, 57, 0
1, 7262, Note_on_c, 1, 58, 127
1, 7327, Note_off_c, 1, 58, 0
1, 7340, Note_on_c, 1, 60, 127
1, 7405, Note_off_c, 1, 60, 0
1, 7418, Note_on_c, 1, 62, 127
1, 7483, Note_off_c, 1, 62, 0
1, 7496, Note_on_c, 1, 64, 127
1, 7561, Note_off_c, 1, 64, 0
1, 7575, Note_on_c, 1, 65, 127
1, 7640, Note_off_c, 1, 65, 0
1, 7653, Note_on_c, 1, 60, 127
1, 7731, Note_on_c, 1, 64, 127
1, 7796, Note_off_c, 1, 64, 0
1, 7809, Note_on_c, 1, 67, 127
1, 7874, Note_off_c, 1, 67, 0
1, 7933, Note_off_c, 1, 60, 0
1, 7966, Note_on_c, 1, 55, 127
1, 8044, Note_on_c, 1, 60, 127
1, 8109, Note_off_c, 1, 60, 0
1, 8122, Note_on_c, 1, 64, 127
1, 8187, Note_off_c, 1, 64, 0
1, 8246, Note_off_c, 1, 55, 0
1, 8279, Note_on_c, 1, 52, 127
1, 8357, Note_on_c, 1, 55, 127
1, 8422, Note_off_c, 1, 55, 0
1, 8435, Note_on_c, 1, 60, 127
1, 8500, Note_off_c, 1, 60, 0
1, 8559, Note_off_c, 1, 52, 0
1, 8592, Note_on_c, 1, 48, 127
1, 8670, Note_on_c, 1, 52, 127
1, 8735, Note_off_c, 1, 52, 0
1, 8748, Note_on_c, 1, 55, 127
1, 8813, Note_off_c, 1, 55, 0
1, 8872, Note_off_c, 1, 48, 0
1, 8905, Note_on_c, 1, 45, 127
1, 9038, Note_on_c, 1, 52, 127
1, 9103, Note_off_c, 1, 52, 0
1, 9116, Note_on_c, 1, 53, 127
1, 9181, Note_off_c, 1, 53, 0
1, 9194, Note_on_c, 1, 55, 127
1, 9255, Note_off_c, 1, 45, 0
1, 9259, Note_off_c, 1, 55, 0
1, 9273, Note_on_c, 1, 57, 127
1, 9338, Note_off_c, 1, 57, 0
1, 9351, Note_on_c, 1, 59, 127
1, 9416, Note_off_c, 1, 59, 0
1, 9429, Note_on_c, 1, 60, 127
1, 9494, Note_off_c, 1, 60, 0
1, 9507, Note_on_c, 1, 62, 127
1, 9572, Note_off_c, 1, 62, 0
1, 9586, Note_on_c, 1, 60, 127
1, 9651, Note_off_c, 1, 60, 0
1, 9664, Note_on_c, 1, 57, 127
1, 9729, Note_off_c, 1, 57, 0
1, 9742, Note_on_c, 1, 59, 127
1, 9807, Note_off_c, 1, 59, 0
1, 9820, Note_on_c, 1, 60, 127
1, 9885, Note_off_c, 1, 60, 0
1, 9899, Note_on_c, 1, 62, 127
1, 9964, Note_off_c, 1, 62, 0
1, 9977, Note_on_c, 1, 64, 127
1, 10042, Note_off_c, 1, 64, 0
1, 10055, Note_on_c, 1, 65, 127
1, 10120, Note_off_c, 1, 65, 0
1, 10133, Note_on_c, 1, 67, 127
1, 10198, Note_off_c, 1, 67, 0
1, 10212, Note_on_c, 1, 62, 127
1, 10290, Note_on_c, 1, 65, 127
1, 10355, Note_off_c, 1, 65, 0
1, 10368, Note_on_c, 1, 69, 127
1, 10458, Note_off_c, 1, 69, 0
1, 10492, Note_off_c, 1, 62, 0
1, 10525, Note_on_c, 1, 57, 127
1, 10603, Note_on_c, 1, 62, 127
1, 10668, Note_off_c, 1, 62, 0
1, 10681, Note_on_c, 1, 65, 127
1, 10771, Note_off_c, 1, 65, 0
1, 10805, Note_off_c, 1, 57, 0
1, 10838, Note_on_c, 1, 53, 127
1, 10916, Note_on_c, 1, 57, 127
1, 10981, Note_off_c, 1, 57, 0
1, 10994, Note_on_c, 1, 62, 127
1, 11084, Note_off_c, 1, 62, 0
1, 11118, Note_off_c, 1, 53, 0
1, 11150, Note_on_c, 1, 50, 127
1, 11229, Note_on_c, 1, 53, 127
1, 11294, Note_off_c, 1, 53, 0
1, 11307, Note_on_c, 1, 57, 127
1, 11360, Note_off_c, 1, 50, 0
1, 11397, Note_off_c, 1, 57, 0
1, 11463, Note_on_c, 1, 46, 127
1, 11542, Note_on_c, 1, 53, 127
1, 11607, Note_off_c, 1, 53, 0
1, 11620, Note_on_c, 1, 62, 127
1, 11743, Note_off_c, 1, 46, 0
1, 11776, Note_on_c, 1, 43, 127
1, 11790, Note_off_c, 1, 62, 0
1, 11933, Note_on_c, 1, 58, 127
1, 12023, Note_off_c, 1, 58, 0
1, 12056, Note_off_c, 1, 43, 0
1, 12089, Note_on_c, 1, 45, 127
1, 12168, Note_on_c, 1, 53, 127
1, 12233, Note_off_c, 1, 53, 0
1, 12246, Note_on_c, 1, 60, 127
1, 12336, Note_off_c, 1, 60, 0
1, 12369, Note_off_c, 1, 45, 0
1, 12402, Note_on_c, 1, 41, 127
1, 12481, Note_on_c, 1, 53, 127
1, 12546, Note_off_c, 1, 53, 0
1, 12559, Note_on_c, 1, 63, 127
1, 12612, Note_off_c, 1, 41, 0
1, 12649, Note_off_c, 1, 63, 0
1, 12715, Note_on_c, 1, 46, 127
1, 12794, Note_on_c, 1, 53, 127
1, 12859, Note_off_c, 1, 53, 0
1, 12872, Note_on_c, 1, 62, 127
1, 12995, Note_off_c, 1, 46, 0
1, 13028, Note_on_c, 1, 43, 127
1, 13082, Note_off_c, 1, 62, 0
1, 13185, Note_on_c, 1, 58, 127
1, 13308, Note_off_c, 1, 43, 0
1, 13341, Note_on_c, 1, 45, 127
1, 13395, Note_off_c, 1, 58, 0
1, 13498, Note_on_c, 1, 60, 127
1, 13621, Note_off_c, 1, 45, 0
1, 13654, Note_on_c, 1, 41, 127
1, 13708, Note_off_c, 1, 60, 0
1, 13811, Note_on_c, 1, 63, 127
1, 13864, Note_off_c, 1, 41, 0
1, 14021, Note_off_c, 1, 63, 0
1, 14280, Note_on_c, 1, 47, 127
1, 14358, Note_on_c, 1, 55, 127
1, 14423, Note_off_c, 1, 55, 0
1, 14437, Note_on_c, 1, 65, 127
1, 14490, Note_off_c, 1, 47, 0
1, 14593, Note_on_c, 1, 48, 127
1, 14647, Note_off_c, 1, 65, 0
1, 14750, Note_on_c, 1, 64, 127
1, 14803, Note_off_c, 1, 48, 0
1, 14906, Note_on_c, 1, 49, 127
1, 14960, Note_off_c, 1, 64, 0
1, 14984, Note_on_c, 1, 57, 127
1, 15049, Note_off_c, 1, 57, 0
1, 15062, Note_on_c, 1, 67, 127
1, 15116, Note_off_c, 1, 49, 0
1, 15219, Note_on_c, 1, 50, 127
1, 15272, Note_off_c, 1, 67, 0
1, 15429, Note_off_c, 1, 50, 0
1, 15532, Note_on_c, 1, 38, 127
1, 15688, Note_on_c, 1, 69, 127
1, 15742, Note_off_c, 1, 38, 0
1, 15845, Note_on_c, 1, 40, 127
1, 15898, Note_off_c, 1, 69, 0
1, 16145, Note_off_c, 1, 40, 0
1, 16158, Note_on_c, 1, 52, 127
1, 16314, Note_on_c, 1, 70, 127
1, 16368, Note_off_c, 1, 52, 0
1, 16524, Note_off_c, 1, 70, 0
1, 16940, Note_on_c, 1, 72, 127
1, 17140, Note_off_c, 1, 72, 0
1, 17566, Note_on_c, 1, 74, 127
1, 17654, Note_on_c, 1, 64, 127
1, 17686, Note_off_c, 1, 74, 0
1, 17756, Note_off_c, 1, 64, 0
1, 17758, Note_on_c, 1, 57, 127
1, 17873, Note_on_c, 1, 60, 127
1, 17943, Note_off_c, 1, 60, 0
1, 17949, Note_on_c, 1, 62, 127
1, 18019, Note_off_c, 1, 62, 0
1, 18026, Note_on_c, 1, 64, 127
1, 18038, Note_off_c, 1, 57, 0
1, 18096, Note_off_c, 1, 64, 0
1, 18102, Note_on_c, 1, 65, 127
1, 18172, Note_off_c, 1, 65, 0
1, 18179, Note_on_c, 1, 67, 127
1, 18249, Note_off_c, 1, 67, 0
1, 18256, Note_on_c, 1, 69, 127
1, 18326, Note_off_c, 1, 69, 0
1, 18332, Note_on_c, 1, 70, 127
1, 18402, Note_off_c, 1, 70, 0
1, 18409, Note_on_c, 1, 72, 127
1, 18479, Note_off_c, 1, 72, 0
1, 18485, Note_on_c, 1, 70, 127
1, 18555, Note_off_c, 1, 70, 0
1, 18562, Note_on_c, 1, 69, 127
1, 18632, Note_off_c, 1, 69, 0
1, 18639, Note_on_c, 1, 67, 127
1, 18709, Note_off_c, 1, 67, 0
1, 18715, Note_on_c, 1, 65, 127
1, 18785, Note_off_c, 1, 65, 0
1, 18792, Note_on_c, 1, 63, 127
1, 18862, Note_off_c, 1, 63, 0
1, 18869, Note_on_c, 1, 62, 127
1, 18939, Note_off_c, 1, 62, 0
1, 18945, Note_on_c, 1, 60, 127
1, 19015, Note_off_c, 1, 60, 0
1, 19022, Note_on_c, 1, 62, 127
1, 19098, Note_on_c, 1, 58, 127
1, 19099, Note_off_c, 1, 62, 0
1, 19168, Note_off_c, 1, 58, 0
1, 19175, Note_on_c, 1, 57, 127
1, 19245, Note_off_c, 1, 57, 0
1, 19252, Note_on_c, 1, 55, 127
1, 19322, Note_off_c, 1, 55, 0
1, 19328, Note_on_c, 1, 53, 127
1, 19398, Note_off_c, 1, 53, 0
1, 19405, Note_on_c, 1, 51, 127
1, 19475, Note_off_c, 1, 51, 0
1, 19481, Note_on_c, 1, 50, 127
1, 19551, Note_off_c, 1, 50, 0
1, 19558, Note_on_c, 1, 48, 127
1, 19628, Note_off_c, 1, 48, 0
1, 19635, Note_on_c, 1, 46, 127
1, 19705, Note_off_c, 1, 46, 0
1, 19711, Note_on_c, 1, 48, 127
1, 19781, Note_off_c, 1, 48, 0
1, 19788, Note_on_c, 1, 50, 127
1, 19858, Note_off_c, 1, 50, 0
1, 19864, Note_on_c, 1, 48, 127
1, 19934, Note_off_c, 1, 48, 0
1, 19941, Note_on_c, 1, 46, 127
1, 20011, Note_off_c, 1, 46, 0
1, 20018, Note_on_c, 1, 45, 127
1, 20081, Note_off_c, 1, 45, 0
1, 20094, Note_on_c, 1, 43, 127
1, 20157, Note_off_c, 1, 43, 0
1, 20171, Note_on_c, 1, 41, 127
1, 20226, Note_off_c, 1, 41, 0
1, 20249, Note_on_c, 1, 40, 127
1, 20365, Note_on_c, 1, 60, 127
1, 20428, Note_off_c, 1, 60, 0
1, 20441, Note_on_c, 1, 70, 127
1, 20459, Note_off_c, 1, 40, 0
1, 20594, Note_on_c, 1, 41, 127
1, 20651, Note_off_c, 1, 70, 0
1, 20756, Note_on_c, 1, 69, 127
1, 20804, Note_off_c, 1, 41, 0
1, 20909, Note_on_c, 1, 38, 127
1, 20966, Note_off_c, 1, 69, 0
1, 20994, Note_on_c, 1, 58, 127
1, 21057, Note_off_c, 1, 58, 0
1, 21119, Note_off_c, 1, 38, 0
1, 21386, Note_on_c, 1, 67, 127
1, 21596, Note_off_c, 1, 67, 0
1, 21624, Note_on_c, 1, 57, 127
1, 21687, Note_off_c, 1, 57, 0
1, 21854, Note_on_c, 1, 45, 127
1, 22016, Note_on_c, 1, 65, 127
1, 22054, Note_off_c, 1, 45, 0
1, 22169, Note_on_c, 1, 46, 127
1, 22216, Note_off_c, 1, 65, 0
1, 22254, Note_on_c, 1, 55, 127
1, 22317, Note_off_c, 1, 55, 0
1, 22329, Note_off_c, 1, 46, 0
1, 22331, Note_on_c, 1, 65, 127
1, 22407, Note_on_c, 1, 55, 127
1, 22470, Note_off_c, 1, 55, 0
1, 22484, Note_on_c, 1, 48, 127
1, 22491, Note_off_c, 1, 65, 0
1, 22604, Note_off_c, 1, 48, 0
1, 22645, Note_on_c, 1, 64, 127
1, 22722, Note_on_c, 1, 55, 127
1, 22765, Note_off_c, 1, 64, 0
1, 22785, Note_off_c, 1, 55, 0
1, 22799, Note_on_c, 1, 57, 127
1, 22799, Note_on_c, 1, 41, 127
1, 22913, Note_on_c, 1, 60, 127
1, 22976, Note_off_c, 1, 60, 0
1, 22989, Note_on_c, 1, 65, 127
1, 23009, Note_off_c, 1, 57, 0
1, 23052, Note_off_c, 1, 65, 0
1, 23399, Note_off_c, 1, 41, 0
1, 23449, Note_on_c, 1, 53, 127
1, 23526, Note_on_c, 1, 57, 127
1, 23589, Note_off_c, 1, 57, 0
1, 23602, Note_on_c, 1, 60, 127
1, 23659, Note_off_c, 1, 53, 0
1, 23665, Note_off_c, 1, 60, 0
1, 23679, Note_on_c, 1, 57, 127
1, 23742, Note_off_c, 1, 57, 0
1, 23755, Note_on_c, 1, 53, 127
1, 23818, Note_off_c, 1, 53, 0
1, 23832, Note_on_c, 1, 60, 127
1, 23895, Note_off_c, 1, 60, 0
1, 23909, Note_on_c, 1, 57, 127
1, 23972, Note_off_c, 1, 57, 0
1, 23985, Note_on_c, 1, 53, 127
1, 24048, Note_off_c, 1, 53, 0
1, 24062, Note_on_c, 1, 48, 127
1, 24142, Note_on_c, 1, 53, 127
1, 24208, Note_off_c, 1, 53, 0
1, 24222, Note_on_c, 1, 52, 127
1, 24272, Note_off_c, 1, 48, 0
1, 24288, Note_off_c, 1, 52, 0
1, 24301, Note_on_c, 1, 50, 127
1, 24367, Note_off_c, 1, 50, 0
1, 24381, Note_on_c, 1, 48, 127
1, 24447, Note_off_c, 1, 48, 0
1, 24461, Note_on_c, 1, 46, 127
1, 24527, Note_off_c, 1, 46, 0
1, 24541, Note_on_c, 1, 45, 127
1, 24607, Note_off_c, 1, 45, 0
1, 24621, Note_on_c, 1, 43, 127
1, 24687, Note_off_c, 1, 43, 0
1, 24701, Note_on_c, 1, 41, 127
1, 24790, Note_on_c, 1, 45, 127
1, 24864, Note_off_c, 1, 45, 0
1, 24880, Note_on_c, 1, 48, 127
1, 24911, Note_off_c, 1, 41, 0
1, 24954, Note_off_c, 1, 48, 0
1, 24970, Note_on_c, 1, 53, 127
1, 25044, Note_off_c, 1, 53, 0
1, 25059, Note_on_c, 1, 57, 127
1, 25133, Note_off_c, 1, 57, 0
1, 25149, Note_on_c, 1, 60, 127
1, 25223, Note_off_c, 1, 60, 0
1, 25239, Note_on_c, 1, 63, 127
1, 25313, Note_off_c, 1, 63, 0
1, 25328, Note_on_c, 1, 66, 127
1, 25402, Note_off_c, 1, 66, 0
1, 25444, Note_on_c, 1, 38, 127
1, 26344, Note_off_c, 1, 38, 0
1, 26399, Note_on_c, 1, 62, 127
1, 26399, Note_on_c, 1, 77, 127
1, 26399, Note_on_c, 1, 68, 127
1, 26399, Note_on_c, 1, 70, 127
1, 26399, Note_on_c, 1, 74, 127
1, 26399, Note_on_c, 1, 53, 127
1, 26399, Note_on_c, 1, 58, 127
1, 26399, Note_on_c, 1, 50, 127
1, 27068, Note_off_c, 1, 62, 0
1, 27068, Note_off_c, 1, 77, 0
1, 27068, Note_off_c, 1, 68, 0
1, 27068, Note_off_c, 1, 70, 0
1, 27068, Note_off_c, 1, 74, 0
1, 27068, Note_off_c, 1, 53, 0
1, 27068, Note_off_c, 1, 58, 0
1, 27068, Note_off_c, 1, 50, 0
1, 27087, Note_on_c, 1, 62, 127
1, 27087, Note_on_c, 1, 50, 127
1, 27087, Note_on_c, 1, 74, 127
1, 27087, Note_on_c, 1, 53, 127
1, 27087, Note_on_c, 1, 58, 127
1, 27087, Note_on_c, 1, 70, 127
1, 27087, Note_on_c, 1, 77, 127
1, 27087, Note_on_c, 1, 68, 127
1, 27256, Note_off_c, 1, 62, 0
1, 27256, Note_off_c, 1, 50, 0
1, 27256, Note_off_c, 1, 74, 0
1, 27256, Note_off_c, 1, 53, 0
1, 27256, Note_off_c, 1, 58, 0
1, 27256, Note_off_c, 1, 70, 0
1, 27256, Note_off_c, 1, 77, 0
1, 27256, Note_off_c, 1, 68, 0
1, 27258, Note_on_c, 1, 47, 127
1, 27289, Note_on_c, 1, 50, 127
1, 27320, Note_on_c, 1, 55, 127
1, 27351, Note_on_c, 1, 59, 127
1, 27382, Note_on_c, 1, 62, 127
1, 27413, Note_on_c, 1, 67, 127
1, 27442, Note_off_c, 1, 62, 0
1, 27444, Note_on_c, 1, 71, 127
1, 27475, Note_on_c, 1, 74, 127
1, 27506, Note_on_c, 1, 77, 127
1, 28233, Note_off_c, 1, 67, 0
1, 28322, Note_off_c, 1, 47, 0
1, 28323, Note_off_c, 1, 50, 0
1, 28326, Note_off_c, 1, 55, 0
1, 28334, Note_off_c, 1, 71, 0
1, 28335, Note_off_c, 1, 59, 0
1, 28378, Note_off_c, 1, 77, 0
1, 28381, Note_on_c, 1, 79, 127
1, 28435, Note_off_c, 1, 74, 0
1, 28448, Note_off_c, 1, 79, 0
1, 28450, Note_on_c, 1, 80, 127
1, 28517, Note_off_c, 1, 80, 0
1, 28518, Note_on_c, 1, 79, 127
1, 28581, Note_off_c, 1, 79, 0
1, 28587, Note_on_c, 1, 77, 127
1, 28644, Note_off_c, 1, 77, 0
1, 28655, Note_on_c, 1, 75, 127
1, 28712, Note_off_c, 1, 75, 0
1, 28724, Note_on_c, 1, 74, 127
1, 28792, Note_on_c, 1, 75, 127
1, 28804, Note_off_c, 1, 74, 0
1, 28849, Note_off_c, 1, 75, 0
1, 28861, Note_on_c, 1, 77, 127
1, 28918, Note_off_c, 1, 77, 0
1, 28929, Note_on_c, 1, 75, 127
1, 28986, Note_off_c, 1, 75, 0
1, 28997, Note_on_c, 1, 74, 127
1, 29054, Note_off_c, 1, 74, 0
1, 29066, Note_on_c, 1, 72, 127
1, 29123, Note_off_c, 1, 72, 0
1, 29134, Note_on_c, 1, 71, 127
1, 29203, Note_on_c, 1, 72, 127
1, 29214, Note_off_c, 1, 71, 0
1, 29260, Note_off_c, 1, 72, 0
1, 29271, Note_on_c, 1, 74, 127
1, 29328, Note_off_c, 1, 74, 0
1, 29340, Note_on_c, 1, 72, 127
1, 29397, Note_off_c, 1, 72, 0
1, 29408, Note_on_c, 1, 71, 127
1, 29465, Note_off_c, 1, 71, 0
1, 29477, Note_on_c, 1, 69, 127
1, 29534, Note_off_c, 1, 69, 0
1, 29545, Note_on_c, 1, 67, 127
1, 29614, Note_on_c, 1, 69, 127
1, 29625, Note_off_c, 1, 67, 0
1, 29671, Note_off_c, 1, 69, 0
1, 29682, Note_on_c, 1, 71, 127
1, 29739, Note_off_c, 1, 71, 0
1, 29751, Note_on_c, 1, 69, 127
1, 29808, Note_off_c, 1, 69, 0
1, 29819, Note_on_c, 1, 67, 127
1, 29876, Note_off_c, 1, 67, 0
1, 29887, Note_on_c, 1, 65, 127
1, 29944, Note_off_c, 1, 65, 0
1, 29956, Note_on_c, 1, 63, 127
1, 30011, Note_off_c, 1, 63, 0
1, 30023, Note_on_c, 1, 62, 127
1, 30078, Note_off_c, 1, 62, 0
1, 30090, Note_on_c, 1, 60, 127
1, 30145, Note_off_c, 1, 60, 0
1, 30156, Note_on_c, 1, 58, 127
1, 30211, Note_off_c, 1, 58, 0
1, 30223, Note_on_c, 1, 56, 127
1, 30278, Note_off_c, 1, 56, 0
1, 30290, Note_on_c, 1, 55, 127
1, 30345, Note_off_c, 1, 55, 0
1, 30357, Note_on_c, 1, 53, 127
1, 30412, Note_off_c, 1, 53, 0
1, 30424, Note_on_c, 1, 51, 127
1, 30479, Note_off_c, 1, 51, 0
1, 30491, Note_on_c, 1, 50, 127
1, 30546, Note_off_c, 1, 50, 0
1, 30557, Note_on_c, 1, 48, 127
1, 30612, Note_off_c, 1, 48, 0
1, 30624, Note_on_c, 1, 46, 127
1, 30679, Note_off_c, 1, 46, 0
1, 30691, Note_on_c, 1, 44, 127
1, 30746, Note_off_c, 1, 44, 0
1, 30758, Note_on_c, 1, 43, 127
1, 30813, Note_off_c, 1, 43, 0
1, 30825, Note_on_c, 1, 41, 127
1, 30880, Note_off_c, 1, 41, 0
1, 30892, Note_on_c, 1, 39, 127
1, 30947, Note_off_c, 1, 39, 0
1, 30958, Note_on_c, 1, 38, 127
1, 31013, Note_off_c, 1, 38, 0
1, 31025, Note_on_c, 1, 36, 127
1, 32075, Note_off_c, 1, 36, 0
1, 32112, Note_on_c, 1, 48, 127
1, 32112, Note_on_c, 1, 51, 127
1, 32112, Note_on_c, 1, 55, 127
1, 32112, Note_on_c, 1, 60, 127
1, 32112, Note_on_c, 1, 67, 127
1, 32112, Note_on_c, 1, 72, 127
1, 32112, Note_on_c, 1, 75, 127
1, 32834, Note_off_c, 1, 48, 0
1, 32834, Note_off_c, 1, 51, 0
1, 32834, Note_off_c, 1, 55, 0
1, 32834, Note_off_c, 1, 60, 0
1, 32834, Note_off_c, 1, 67, 0
1, 32834, Note_off_c, 1, 72, 0
1, 32834, Note_off_c, 1, 75, 0
1, 32852, Note_on_c, 1, 48, 127
1, 32852, Note_on_c, 1, 51, 127
1, 32852, Note_on_c, 1, 55, 127
1, 32852, Note_on_c, 1, 67, 127
1, 32852, Note_on_c, 1, 60, 127
1, 32852, Note_on_c, 1, 72, 127
1, 32852, Note_on_c, 1, 75, 127
1, 33091, Note_off_c, 1, 48, 0
1, 33091, Note_off_c, 1, 51, 0
1, 33091, Note_off_c, 1, 55, 0
1, 33091, Note_off_c, 1, 67, 0
1, 33093, Note_on_c, 1, 53, 127
1, 33147, Note_on_c, 1, 57, 127
1, 33195, Note_off_c, 1, 60, 0
1, 33255, Note_on_c, 1, 65, 127
1, 33308, Note_on_c, 1, 69, 127
1, 33340, Note_off_c, 1, 72, 0
1, 33413, Note_off_c, 1, 75, 0
1, 33947, Note_off_c, 1, 53, 0
1, 33949, Note_off_c, 1, 57, 0
1, 34105, Note_off_c, 1, 65, 0
1, 34137, Note_on_c, 1, 50, 127
1, 34205, Note_off_c, 1, 50, 0
1, 34208, Note_off_c, 1, 69, 0
1, 34281, Note_on_c, 1, 53, 127
1, 34349, Note_off_c, 1, 53, 0
1, 34352, Note_on_c, 1, 55, 127
1, 34420, Note_off_c, 1, 55, 0
1, 34424, Note_on_c, 1, 57, 127
1, 34492, Note_off_c, 1, 57, 0
1, 34496, Note_on_c, 1, 58, 127
1, 34564, Note_off_c, 1, 58, 0
1, 34567, Note_on_c, 1, 57, 127
1, 34635, Note_off_c, 1, 57, 0
1, 34639, Note_on_c, 1, 55, 127
1, 34707, Note_off_c, 1, 55, 0
1, 34711, Note_on_c, 1, 53, 127
1, 34779, Note_off_c, 1, 53, 0
1, 34783, Note_on_c, 1, 55, 127
1, 34851, Note_off_c, 1, 55, 0
1, 34854, Note_on_c, 1, 57, 127
1, 34922, Note_off_c, 1, 57, 0
1, 34926, Note_on_c, 1, 58, 127
1, 34994, Note_off_c, 1, 58, 0
1, 34998, Note_on_c, 1, 60, 127
1, 35066, Note_off_c, 1, 60, 0
1, 35070, Note_on_c, 1, 62, 127
1, 35138, Note_off_c, 1, 62, 0
1, 35141, Note_on_c, 1, 60, 127
1, 35209, Note_off_c, 1, 60, 0
1, 35213, Note_on_c, 1, 58, 127
1, 35281, Note_off_c, 1, 58, 0
1, 35285, Note_on_c, 1, 57, 127
1, 35353, Note_off_c, 1, 57, 0
1, 35356, Note_on_c, 1, 58, 127
1, 35424, Note_off_c, 1, 58, 0
1, 35428, Note_on_c, 1, 60, 127
1, 35496, Note_off_c, 1, 60, 0
1, 35500, Note_on_c, 1, 62, 127
1, 35568, Note_off_c, 1, 62, 0
1, 35572, Note_on_c, 1, 63, 127
1, 35640, Note_off_c, 1, 63, 0
1, 35643, Note_on_c, 1, 65, 127
1, 35711, Note_off_c, 1, 65, 0
1, 35715, Note_on_c, 1, 63, 127
1, 35783, Note_off_c, 1, 63, 0
1, 35787, Note_on_c, 1, 62, 127
1, 35855, Note_off_c, 1, 62, 0
1, 35858, Note_on_c, 1, 60, 127
1, 35926, Note_off_c, 1, 60, 0
1, 35930, Note_on_c, 1, 62, 127
1, 35998, Note_off_c, 1, 62, 0
1, 36002, Note_on_c, 1, 63, 127
1, 36070, Note_off_c, 1, 63, 0
1, 36074, Note_on_c, 1, 65, 127
1, 36142, Note_off_c, 1, 65, 0
1, 36145, Note_on_c, 1, 67, 127
1, 36213, Note_off_c, 1, 67, 0
1, 36217, Note_on_c, 1, 69, 127
1, 36285, Note_off_c, 1, 69, 0
1, 36289, Note_on_c, 1, 70, 127
1, 36352, Note_off_c, 1, 70, 0
1, 36357, Note_on_c, 1, 72, 127
1, 36420, Note_off_c, 1, 72, 0
1, 36426, Note_on_c, 1, 74, 127
1, 36489, Note_off_c, 1, 74, 0
1, 36494, Note_on_c, 1, 75, 127
1, 36557, Note_off_c, 1, 75, 0
1, 36563, Note_on_c, 1, 77, 127
1, 36624, Note_off_c, 1, 77, 0
1, 36631, Note_on_c, 1, 79, 127
1, 36692, Note_off_c, 1, 79, 0
1, 36700, Note_on_c, 1, 81, 127
1, 36757, Note_off_c, 1, 81, 0
1, 36770, Note_on_c, 1, 77, 127
1, 36827, Note_off_c, 1, 77, 0
1, 36844, Note_on_c, 1, 82, 127
1, 37634, Note_off_c, 1, 82, 0
1, 37645, Note_on_c, 1, 46, 127
1, 37645, Note_on_c, 1, 58, 127
1, 37645, Note_on_c, 1, 53, 127
1, 37645, Note_on_c, 1, 50, 127
1, 37645, Note_on_c, 1, 68, 127
1, 37645, Note_on_c, 1, 65, 127
1, 37645, Note_on_c, 1, 74, 127
1, 37645, Note_on_c, 1, 70, 127
1, 38262, Note_off_c, 1, 46, 0
1, 38262, Note_off_c, 1, 58, 0
1, 38262, Note_off_c, 1, 53, 0
1, 38262, Note_off_c, 1, 50, 0
1, 38262, Note_off_c, 1, 68, 0
1, 38262, Note_off_c, 1, 65, 0
1, 38262, Note_off_c, 1, 74, 0
1, 38262, Note_off_c, 1, 70, 0
1, 38280, Note_on_c, 1, 53, 127
1, 38280, Note_on_c, 1, 65, 127
1, 38280, Note_on_c, 1, 50, 127
1, 38280, Note_on_c, 1, 46, 127
1, 38280, Note_on_c, 1, 68, 127
1, 38280, Note_on_c, 1, 58, 127
1, 38280, Note_on_c, 1, 70, 127
1, 38280, Note_on_c, 1, 74, 127
1, 38449, Note_off_c, 1, 53, 0
1, 38449, Note_off_c, 1, 65, 0
1, 38449, Note_off_c, 1, 50, 0
1, 38449, Note_off_c, 1, 46, 0
1, 38449, Note_off_c, 1, 68, 0
1, 38451, Note_on_c, 1, 51, 127
1, 38502, Note_on_c, 1, 55, 127
1, 38541, Note_off_c, 1, 58, 0
1, 38603, Note_on_c, 1, 63, 127
1, 38653, Note_on_c, 1, 67, 127
1, 38680, Note_off_c, 1, 70, 0
1, 38731, Note_off_c, 1, 74, 0
1, 39351, Note_off_c, 1, 51, 0
1, 39352, Note_off_c, 1, 55, 0
1, 39353, Note_off_c, 1, 63, 0
1, 39353, Note_off_c, 1, 67, 0
1, 39393, Note_on_c, 1, 52, 127
1, 39393, Note_on_c, 1, 55, 127
1, 39393, Note_on_c, 1, 58, 127
1, 39393, Note_on_c, 1, 67, 127
1, 39393, Note_on_c, 1, 70, 127
1, 39393, Note_on_c, 1, 73, 127
1, 40010, Note_off_c, 1, 52, 0
1, 40010, Note_off_c, 1, 55, 0
1, 40010, Note_off_c, 1, 58, 0
1, 40010, Note_off_c, 1, 67, 0
1, 40010, Note_off_c, 1, 70, 0
1, 40010, Note_off_c, 1, 73, 0
1, 40029, Note_on_c, 1, 70, 127
1, 40029, Note_on_c, 1, 67, 127
1, 40029, Note_on_c, 1, 55, 127
1, 40029, Note_on_c, 1, 52, 127
1, 40029, Note_on_c, 1, 60, 127
1, 40029, Note_on_c, 1, 72, 127
1, 40234, Note_off_c, 1, 70, 0
1, 40234, Note_off_c, 1, 67, 0
1, 40234, Note_off_c, 1, 55, 0
1, 40234, Note_off_c, 1, 52, 0
1, 40236, Note_on_c, 1, 53, 127
1, 40314, Note_on_c, 1, 57, 127
1, 40376, Note_off_c, 1, 60, 0
1, 40471, Note_on_c, 1, 63, 127
1, 40550, Note_on_c, 1, 65, 127
1, 40628, Note_on_c, 1, 69, 127
1, 40689, Note_off_c, 1, 72, 0
1, 41108, Note_off_c, 1, 57, 0
1, 41116, Note_off_c, 1, 53, 0
1, 41131, Note_off_c, 1, 63, 0
1, 41148, Note_off_c, 1, 65, 0
1, 41389, Note_off_c, 1, 69, 0
1, 41403, Note_on_c, 1, 69, 127
1, 41482, Note_off_c, 1, 69, 0
1, 41489, Note_on_c, 1, 65, 127
1, 41568, Note_off_c, 1, 65, 0
1, 41576, Note_on_c, 1, 63, 127
1, 41655, Note_off_c, 1, 63, 0
1, 41662, Note_on_c, 1, 65, 127
1, 41741, Note_off_c, 1, 65, 0
1, 41749, Note_on_c, 1, 69, 127
1, 41828, Note_off_c, 1, 69, 0
1, 41835, Note_on_c, 1, 72, 127
1, 41914, Note_off_c, 1, 72, 0
1, 41921, Note_on_c, 1, 69, 127
1, 42000, Note_off_c, 1, 69, 0
1, 42008, Note_on_c, 1, 72, 127
1, 42087, Note_off_c, 1, 72, 0
1, 42094, Note_on_c, 1, 69, 127
1, 42173, Note_off_c, 1, 69, 0
1, 42181, Note_on_c, 1, 65, 127
1, 42260, Note_off_c, 1, 65, 0
1, 42267, Note_on_c, 1, 63, 127
1, 42346, Note_off_c, 1, 63, 0
1, 42353, Note_on_c, 1, 65, 127
1, 42432, Note_off_c, 1, 65, 0
1, 42440, Note_on_c, 1, 69, 127
1, 42519, Note_off_c, 1, 69, 0
1, 42526, Note_on_c, 1, 72, 127
1, 42605, Note_off_c, 1, 72, 0
1, 42612, Note_on_c, 1, 78, 127
1, 42697, Note_on_c, 1, 77, 127
1, 42703, Note_off_c, 1, 78, 0
1, 42776, Note_off_c, 1, 77, 0
1, 42781, Note_on_c, 1, 75, 127
1, 42860, Note_off_c, 1, 75, 0
1, 42866, Note_on_c, 1, 73, 127
1, 42945, Note_off_c, 1, 73, 0
1, 42950, Note_on_c, 1, 72, 127
1, 43029, Note_off_c, 1, 72, 0
1, 43034, Note_on_c, 1, 70, 127
1, 43113, Note_off_c, 1, 70, 0
1, 43119, Note_on_c, 1, 69, 127
1, 43198, Note_off_c, 1, 69, 0
1, 43203, Note_on_c, 1, 67, 127
1, 43282, Note_off_c, 1, 67, 0
1, 43288, Note_on_c, 1, 69, 127
1, 43379, Note_off_c, 1, 69, 0
1, 43398, Note_on_c, 1, 65, 127
1, 43455, Note_off_c, 1, 65, 0
1, 43474, Note_on_c, 1, 69, 127
1, 43531, Note_off_c, 1, 69, 0
1, 43541, Note_on_c, 1, 72, 127
1, 43598, Note_off_c, 1, 72, 0
1, 43614, Note_on_c, 1, 75, 127
1, 43671, Note_off_c, 1, 75, 0
1, 43688, Note_on_c, 1, 78, 127
1, 43745, Note_off_c, 1, 78, 0
1, 43759, Note_on_c, 1, 81, 127
1, 43816, Note_off_c, 1, 81, 0
1, 43830, Note_on_c, 1, 84, 127
1, 43887, Note_off_c, 1, 84, 0
1, 43901, Note_on_c, 1, 82, 127
1, 44480, Note_on_c, 1, 72, 127
1, 44497, Note_off_c, 1, 82, 0
1, 44670, Note_off_c, 1, 72, 0
1, 44672, Note_on_c, 1, 73, 127
1, 44865, Note_on_c, 1, 69, 127
1, 44952, Note_off_c, 1, 73, 0
1, 45055, Note_off_c, 1, 69, 0
1, 45057, Note_on_c, 1, 70, 127
1, 45249, Note_on_c, 1, 64, 127
1, 45337, Note_off_c, 1, 70, 0
1, 45439, Note_off_c, 1, 64, 0
1, 45442, Note_on_c, 1, 60, 127
1, 45442, Note_on_c, 1, 41, 127
1, 45442, Note_on_c, 1, 53, 127
1, 45442, Note_on_c, 1, 72, 127
1, 45442, Note_on_c, 1, 70, 127
1, 45442, Note_on_c, 1, 65, 127
1, 45442, Note_on_c, 1, 51, 127
1, 45442, Note_on_c, 1, 48, 127
1, 45826, Note_off_c, 1, 60, 0
1, 45828, Note_on_c, 1, 62, 127
1, 46092, Note_off_c, 1, 41, 0
1, 46092, Note_off_c, 1, 53, 0
1, 46142, Note_off_c, 1, 72, 0
1, 46142, Note_off_c, 1, 70, 0
1, 46142, Note_off_c, 1, 65, 0
1, 46142, Note_off_c, 1, 51, 0
1, 46142, Note_off_c, 1, 48, 0
1, 46212, Note_off_c, 1, 62, 0
1, 46270, Note_on_c, 1, 63, 127
1, 46270, Note_on_c, 1, 69, 127
1, 46657, Note_on_c, 1, 55, 127
1, 46970, Note_off_c, 1, 63, 0
1, 46970, Note_off_c, 1, 69, 0
1, 47009, Note_off_c, 1, 55, 0
1, 47010, Note_on_c, 1, 46, 127
1, 47074, Note_on_c, 1, 50, 127
1, 47201, Note_on_c, 1, 56, 127
1, 48301, Note_off_c, 1, 56, 0
1, 48374, Note_off_c, 1, 50, 0
1, 48410, Note_off_c, 1, 46, 0
1, 48482, Note_on_c, 1, 58, 127
1, 48553, Note_off_c, 1, 58, 0
1, 48568, Note_on_c, 1, 56, 127
1, 48639, Note_off_c, 1, 56, 0
1, 48654, Note_on_c, 1, 58, 127
1, 48725, Note_off_c, 1, 58, 0
1, 48741, Note_on_c, 1, 62, 127
1, 48812, Note_off_c, 1, 62, 0
1, 48827, Note_on_c, 1, 65, 127
1, 48898, Note_off_c, 1, 65, 0
1, 48914, Note_on_c, 1, 62, 127
1, 48985, Note_off_c, 1, 62, 0
1, 49000, Note_on_c, 1, 65, 127
1, 49071, Note_off_c, 1, 65, 0
1, 49086, Note_on_c, 1, 62, 127
1, 49157, Note_off_c, 1, 62, 0
1, 49173, Note_on_c, 1, 58, 127
1, 49244, Note_off_c, 1, 58, 0
1, 49259, Note_on_c, 1, 56, 127
1, 49330, Note_off_c, 1, 56, 0
1, 49345, Note_on_c, 1, 58, 127
1, 49416, Note_off_c, 1, 58, 0
1, 49432, Note_on_c, 1, 62, 127
1, 49503, Note_off_c, 1, 62, 0
1, 49518, Note_on_c, 1, 65, 127
1, 49589, Note_off_c, 1, 65, 0
1, 49605, Note_on_c, 1, 71, 127
1, 49691, Note_on_c, 1, 68, 127
1, 49762, Note_off_c, 1, 68, 0
1, 49777, Note_on_c, 1, 65, 127
1, 49805, Note_off_c, 1, 71, 0
1, 49848, Note_off_c, 1, 65, 0
1, 49864, Note_on_c, 1, 62, 127
1, 49935, Note_off_c, 1, 62, 0
1, 49950, Note_on_c, 1, 59, 127
1, 50037, Note_on_c, 1, 56, 127
1, 50108, Note_off_c, 1, 56, 0
1, 50123, Note_on_c, 1, 53, 127
1, 50150, Note_off_c, 1, 59, 0
1, 50209, Note_on_c, 1, 62, 127
1, 50263, Note_off_c, 1, 53, 0
1, 50280, Note_off_c, 1, 62, 0
1, 50296, Note_on_c, 1, 63, 127
1, 50296, Note_on_c, 1, 55, 127
1, 50356, Note_on_c, 1, 62, 127
1, 50367, Note_off_c, 1, 63, 0
1, 50427, Note_off_c, 1, 62, 0
1, 50696, Note_off_c, 1, 55, 0
1, 51013, Note_on_c, 1, 60, 127
1, 51083, Note_off_c, 1, 60, 0
1, 51092, Note_on_c, 1, 62, 127
1, 51162, Note_off_c, 1, 62, 0
1, 51170, Note_on_c, 1, 63, 127
1, 51240, Note_off_c, 1, 63, 0
1, 51248, Note_on_c, 1, 62, 127
1, 51318, Note_off_c, 1, 62, 0
1, 51326, Note_on_c, 1, 60, 127
1, 51396, Note_off_c, 1, 60, 0
1, 51405, Note_on_c, 1, 58, 127
1, 51475, Note_off_c, 1, 58, 0
1, 51483, Note_on_c, 1, 57, 127
1, 51553, Note_off_c, 1, 57, 0
1, 51561, Note_on_c, 1, 58, 127
1, 51631, Note_off_c, 1, 58, 0
1, 51639, Note_on_c, 1, 60, 127
1, 51709, Note_off_c, 1, 60, 0
1, 51718, Note_on_c, 1, 58, 127
1, 51788, Note_off_c, 1, 58, 0
1, 51796, Note_on_c, 1, 57, 127
1, 51866, Note_off_c, 1, 57, 0
1, 51874, Note_on_c, 1, 55, 127
1, 51944, Note_off_c, 1, 55, 0
1, 51952, Note_on_c, 1, 53, 127
1, 52022, Note_off_c, 1, 53, 0
1, 52031, Note_on_c, 1, 55, 127
1, 52101, Note_off_c, 1, 55, 0
1, 52109, Note_on_c, 1, 57, 127
1, 52179, Note_off_c, 1, 57, 0
1, 52187, Note_on_c, 1, 55, 127
1, 52257, Note_off_c, 1, 55, 0
1, 52265, Note_on_c, 1, 53, 127
1, 52335, Note_off_c, 1, 53, 0
1, 52344, Note_on_c, 1, 51, 127
1, 52414, Note_off_c, 1, 51, 0
1, 52422, Note_on_c, 1, 50, 127
1, 52492, Note_off_c, 1, 50, 0
1, 52500, Note_on_c, 1, 51, 127
1, 52570, Note_off_c, 1, 51, 0
1, 52578, Note_on_c, 1, 53, 127
1, 52648, Note_off_c, 1, 53, 0
1, 52657, Note_on_c, 1, 51, 127
1, 52722, Note_off_c, 1, 51, 0
1, 52735, Note_on_c, 1, 50, 127
1, 52800, Note_off_c, 1, 50, 0
1, 52813, Note_on_c, 1, 48, 127
1, 52878, Note_off_c, 1, 48, 0
1, 52891, Note_on_c, 1, 46, 127
1, 52956, Note_off_c, 1, 46, 0
1, 52969, Note_on_c, 1, 45, 127
1, 53034, Note_off_c, 1, 45, 0
1, 53048, Note_on_c, 1, 46, 127
1, 53123, Note_on_c, 1, 50, 127
1, 53138, Note_off_c, 1, 46, 0
1, 53184, Note_off_c, 1, 50, 0
1, 53198, Note_on_c, 1, 53, 127
1, 53259, Note_off_c, 1, 53, 0
1, 53273, Note_on_c, 1, 50, 127
1, 53334, Note_off_c, 1, 50, 0
1, 53348, Note_on_c, 1, 50, 127
1, 53409, Note_off_c, 1, 50, 0
1, 53423, Note_on_c, 1, 53, 127
1, 53484, Note_off_c, 1, 53, 0
1, 53498, Note_on_c, 1, 58, 127
1, 53559, Note_off_c, 1, 58, 0
1, 53573, Note_on_c, 1, 53, 127
1, 53634, Note_off_c, 1, 53, 0
1, 53648, Note_on_c, 1, 53, 127
1, 53709, Note_off_c, 1, 53, 0
1, 53723, Note_on_c, 1, 58, 127
1, 53784, Note_off_c, 1, 58, 0
1, 53798, Note_on_c, 1, 62, 127
1, 53859, Note_off_c, 1, 62, 0
1, 53873, Note_on_c, 1, 58, 127
1, 53934, Note_off_c, 1, 58, 0
1, 53947, Note_on_c, 1, 58, 127
1, 54008, Note_off_c, 1, 58, 0
1, 54022, Note_on_c, 1, 62, 127
1, 54083, Note_off_c, 1, 62, 0
1, 54097, Note_on_c, 1, 65, 127
1, 54158, Note_off_c, 1, 65, 0
1, 54172, Note_on_c, 1, 62, 127
1, 54233, Note_off_c, 1, 62, 0
1, 54247, Note_on_c, 1, 62, 127
1, 54308, Note_off_c, 1, 62, 0
1, 54322, Note_on_c, 1, 65, 127
1, 54383, Note_off_c, 1, 65, 0
1, 54397, Note_on_c, 1, 70, 127
1, 54458, Note_off_c, 1, 70, 0
1, 54472, Note_on_c, 1, 65, 127
1, 54533, Note_off_c, 1, 65, 0
1, 54547, Note_on_c, 1, 65, 127
1, 54608, Note_off_c, 1, 65, 0
1, 54622, Note_on_c, 1, 70, 127
1, 54683, Note_off_c, 1, 70, 0
1, 54697, Note_on_c, 1, 74, 127
1, 54758, Note_off_c, 1, 74, 0
1, 54772, Note_on_c, 1, 70, 127
1, 54833, Note_off_c, 1, 70, 0
1, 54847, Note_on_c, 1, 70, 127
1, 54908, Note_off_c, 1, 70, 0
1, 54922, Note_on_c, 1, 74, 127
1, 54983, Note_off_c, 1, 74, 0
1, 54997, Note_on_c, 1, 77, 127
1, 55058, Note_off_c, 1, 77, 0
1, 55072, Note_on_c, 1, 74, 127
1, 55133, Note_off_c, 1, 74, 0
1, 55147, Note_on_c, 1, 82, 127
1, 57047, Note_off_c, 1, 82, 0
1, 57385, Note_on_c, 1, 65, 127
1, 57719, Note_off_c, 1, 65, 0
1, 57723, Note_on_c, 1, 67, 127
1, 58057, Note_off_c, 1, 67, 0
1, 58061, Note_on_c, 1, 65, 127
1, 58395, Note_off_c, 1, 65, 0
1, 58399, Note_on_c, 1, 70, 127
1, 58733, Note_off_c, 1, 70, 0
1, 58737, Note_on_c, 1, 62, 127
1, 59071, Note_off_c, 1, 62, 0
1, 59075, Note_on_c, 1, 60, 127
1, 59355, Note_off_c, 1, 60, 0
1, 59413, Note_on_c, 1, 69, 127
1, 59578, Note_off_c, 1, 69, 0
1, 59582, Note_on_c, 1, 67, 127
1, 59747, Note_off_c, 1, 67, 0
1, 59751, Note_on_c, 1, 70, 127
1, 59916, Note_off_c, 1, 70, 0
1, 59920, Note_on_c, 1, 69, 127
1, 60085, Note_off_c, 1, 69, 0
1, 60089, Note_on_c, 1, 67, 127
1, 60254, Note_off_c, 1, 67, 0
1, 60258, Note_on_c, 1, 65, 127
1, 60423, Note_off_c, 1, 65, 0
1, 60427, Note_on_c, 1, 72, 127
1, 60761, Note_off_c, 1, 72, 0
1, 60765, Note_on_c, 1, 63, 127
1, 61099, Note_off_c, 1, 63, 0
1, 61103, Note_on_c, 1, 62, 127
1, 61393, Note_off_c, 1, 62, 0
1, 61440, Note_on_c, 1, 70, 127
1, 61605, Note_off_c, 1, 70, 0
1, 61609, Note_on_c, 1, 72, 127
1, 61774, Note_off_c, 1, 72, 0
1, 61778, Note_on_c, 1, 69, 127
1, 61943, Note_off_c, 1, 69, 0
1, 61947, Note_on_c, 1, 70, 127
1, 62112, Note_off_c, 1, 70, 0
1, 62116, Note_on_c, 1, 72, 127
1, 62281, Note_off_c, 1, 72, 0
1, 62285, Note_on_c, 1, 74, 127
1, 62450, Note_off_c, 1, 74, 0
1, 62454, Note_on_c, 1, 75, 127
1, 62619, Note_off_c, 1, 75, 0
1, 62623, Note_on_c, 1, 74, 127
1, 62788, Note_off_c, 1, 74, 0
1, 62792, Note_on_c, 1, 72, 127
1, 62957, Note_off_c, 1, 72, 0
1, 62961, Note_on_c, 1, 75, 127
1, 63126, Note_off_c, 1, 75, 0
1, 63130, Note_on_c, 1, 74, 127
1, 63295, Note_off_c, 1, 74, 0
1, 63299, Note_on_c, 1, 72, 127
1, 63464, Note_off_c, 1, 72, 0
1, 63468, Note_on_c, 1, 70, 127
1, 63633, Note_off_c, 1, 70, 0
1, 63637, Note_on_c, 1, 72, 127
1, 63802, Note_off_c, 1, 72, 0
1, 63806, Note_on_c, 1, 69, 127
1, 63971, Note_off_c, 1, 69, 0
1, 63975, Note_on_c, 1, 70, 127
1, 64140, Note_off_c, 1, 70, 0
1, 64144, Note_on_c, 1, 72, 127
1, 64309, Note_off_c, 1, 72, 0
1, 64313, Note_on_c, 1, 74, 127
1, 64478, Note_off_c, 1, 74, 0
1, 64482, Note_on_c, 1, 75, 127
1, 64647, Note_off_c, 1, 75, 0
1, 64651, Note_on_c, 1, 74, 127
1, 64816, Note_off_c, 1, 74, 0
1, 64820, Note_on_c, 1, 72, 127
1, 64985, Note_off_c, 1, 72, 0
1, 64989, Note_on_c, 1, 75, 127
1, 65154, Note_off_c, 1, 75, 0
1, 65158, Note_on_c, 1, 75, 127
1, 65228, Note_on_c, 1, 74, 127
1, 65238, Note_off_c, 1, 75, 0
1, 65308, Note_off_c, 1, 74, 0
1, 65496, Note_on_c, 1, 58, 127
1, 65664, Note_on_c, 1, 72, 127
1, 65829, Note_off_c, 1, 72, 0
1, 65830, Note_off_c, 1, 58, 0
1, 65833, Note_on_c, 1, 70, 127
1, 65833, Note_on_c, 1, 62, 127
1, 65998, Note_off_c, 1, 70, 0
1, 66002, Note_on_c, 1, 69, 127
1, 66167, Note_off_c, 1, 62, 0
1, 66167, Note_off_c, 1, 69, 0
1, 66171, Note_on_c, 1, 70, 127
1, 66171, Note_on_c, 1, 58, 127
1, 66336, Note_off_c, 1, 70, 0
1, 66340, Note_on_c, 1, 72, 127
1, 66505, Note_off_c, 1, 58, 0
1, 66505, Note_off_c, 1, 72, 0
1, 66509, Note_on_c, 1, 65, 127
1, 66509, Note_on_c, 1, 74, 127
1, 66843, Note_off_c, 1, 65, 0
1, 66843, Note_off_c, 1, 74, 0
1, 66847, Note_on_c, 1, 57, 127
1, 66847, Note_on_c, 1, 77, 127
1, 67181, Note_off_c, 1, 57, 0
1, 67185, Note_on_c, 1, 55, 127
1, 67485, Note_off_c, 1, 55, 0
1, 67523, Note_on_c, 1, 64, 127
1, 67523, Note_on_c, 1, 70, 127
1, 67529, Note_off_c, 1, 77, 0
1, 67688, Note_off_c, 1, 64, 0
1, 67692, Note_on_c, 1, 62, 127
1, 67857, Note_off_c, 1, 70, 0
1, 67857, Note_off_c, 1, 62, 0
1, 67861, Note_on_c, 1, 65, 127
1, 67861, Note_on_c, 1, 69, 127
1, 68026, Note_off_c, 1, 65, 0
1, 68030, Note_on_c, 1, 64, 127
1, 68195, Note_off_c, 1, 69, 0
1, 68195, Note_off_c, 1, 64, 0
1, 68199, Note_on_c, 1, 62, 127
1, 68199, Note_on_c, 1, 70, 127
1, 68364, Note_off_c, 1, 62, 0
1, 68368, Note_on_c, 1, 60, 127
1, 68533, Note_off_c, 1, 70, 0
1, 68533, Note_off_c, 1, 60, 0
1, 68537, Note_on_c, 1, 67, 127
1, 68537, Note_on_c, 1, 76, 127
1, 68871, Note_off_c, 1, 67, 0
1, 68871, Note_off_c, 1, 76, 0
1, 68875, Note_on_c, 1, 79, 127
1, 68875, Note_on_c, 1, 58, 127
1, 69195, Note_off_c, 1, 79, 0
1, 69209, Note_off_c, 1, 58, 0
1, 69213, Note_on_c, 1, 57, 127
1, 69513, Note_off_c, 1, 57, 0
1, 69551, Note_on_c, 1, 65, 127
1, 69551, Note_on_c, 1, 69, 127
1, 69716, Note_off_c, 1, 65, 0
1, 69716, Note_off_c, 1, 69, 0
1, 69720, Note_on_c, 1, 67, 127
1, 69720, Note_on_c, 1, 70, 127
1, 69885, Note_off_c, 1, 67, 0
1, 69885, Note_off_c, 1, 70, 0
1, 69888, Note_on_c, 1, 64, 127
1, 69888, Note_on_c, 1, 72, 127
1, 70053, Note_off_c, 1, 64, 0
1, 70057, Note_on_c, 1, 65, 127
1, 70222, Note_off_c, 1, 72, 0
1, 70222, Note_off_c, 1, 65, 0
1, 70226, Note_on_c, 1, 67, 127
1, 70226, Note_on_c, 1, 72, 127
1, 70391, Note_off_c, 1, 67, 0
1, 70395, Note_on_c, 1, 69, 127
1, 70560, Note_off_c, 1, 72, 0
1, 70560, Note_off_c, 1, 69, 0
1, 70564, Note_on_c, 1, 70, 127
1, 70564, Note_on_c, 1, 72, 127
1, 70729, Note_off_c, 1, 70, 0
1, 70733, Note_on_c, 1, 69, 127
1, 70898, Note_off_c, 1, 72, 0
1, 70898, Note_off_c, 1, 69, 0
1, 70902, Note_on_c, 1, 67, 127
1, 70902, Note_on_c, 1, 72, 127
1, 71067, Note_off_c, 1, 67, 0
1, 71071, Note_on_c, 1, 70, 127
1, 71236, Note_off_c, 1, 72, 0
1, 71236, Note_off_c, 1, 70, 0
1, 71240, Note_on_c, 1, 69, 127
1, 71240, Note_on_c, 1, 72, 127
1, 71405, Note_off_c, 1, 69, 0
1, 71405, Note_off_c, 1, 72, 0
1, 71409, Note_on_c, 1, 67, 127
1, 71409, Note_on_c, 1, 70, 127
1, 71574, Note_off_c, 1, 67, 0
1, 71574, Note_off_c, 1, 70, 0
1, 71578, Note_on_c, 1, 65, 127
1, 71578, Note_on_c, 1, 69, 127
1, 71743, Note_off_c, 1, 65, 0
1, 71743, Note_off_c, 1, 69, 0
1, 71747, Note_on_c, 1, 67, 127
1, 71747, Note_on_c, 1, 70, 127
1, 71912, Note_off_c, 1, 67, 0
1, 71912, Note_off_c, 1, 70, 0
1, 71916, Note_on_c, 1, 64, 127
1, 71916, Note_on_c, 1, 72, 127
1, 72081, Note_off_c, 1, 64, 0
1, 72085, Note_on_c, 1, 65, 127
1, 72250, Note_off_c, 1, 72, 0
1, 72250, Note_off_c, 1, 65, 0
1, 72254, Note_on_c, 1, 67, 127
1, 72254, Note_on_c, 1, 72, 127
1, 72419, Note_off_c, 1, 67, 0
1, 72423, Note_on_c, 1, 69, 127
1, 72588, Note_off_c, 1, 72, 0
1, 72588, Note_off_c, 1, 69, 0
1, 72592, Note_on_c, 1, 70, 127
1, 72592, Note_on_c, 1, 72, 127
1, 72757, Note_off_c, 1, 70, 0
1, 72761, Note_on_c, 1, 69, 127
1, 72926, Note_off_c, 1, 72, 0
1, 72926, Note_off_c, 1, 69, 0
1, 72930, Note_on_c, 1, 67, 127
1, 72930, Note_on_c, 1, 72, 127
1, 73095, Note_off_c, 1, 67, 0
1, 73099, Note_on_c, 1, 70, 127
1, 73264, Note_off_c, 1, 72, 0
1, 73264, Note_off_c, 1, 70, 0
1, 73268, Note_on_c, 1, 70, 127
1, 73268, Note_on_c, 1, 72, 127
1, 73348, Note_off_c, 1, 70, 0
1, 73349, Note_on_c, 1, 69, 127
1, 73429, Note_off_c, 1, 69, 0
1, 73606, Note_on_c, 1, 53, 127
1, 73775, Note_on_c, 1, 67, 127
1, 73940, Note_off_c, 1, 53, 0
1, 73940, Note_off_c, 1, 67, 0
1, 73944, Note_on_c, 1, 65, 127
1, 73944, Note_on_c, 1, 55, 127
1, 74109, Note_off_c, 1, 65, 0
1, 74112, Note_on_c, 1, 63, 127
1, 74277, Note_off_c, 1, 63, 0
1, 74278, Note_off_c, 1, 55, 0
1, 74281, Note_on_c, 1, 62, 127
1, 74446, Note_off_c, 1, 62, 0
1, 74617, Note_off_c, 1, 72, 0
1, 74619, Note_on_c, 1, 58, 127
1, 74619, Note_on_c, 1, 65, 127
1, 74788, Note_on_c, 1, 74, 127
1, 74953, Note_off_c, 1, 58, 0
1, 74953, Note_off_c, 1, 65, 0
1, 74953, Note_off_c, 1, 74, 0
1, 74957, Note_on_c, 1, 50, 127
1, 74957, Note_on_c, 1, 70, 127
1, 75126, Note_on_c, 1, 74, 127
1, 75291, Note_off_c, 1, 50, 0
1, 75291, Note_off_c, 1, 74, 0
1, 75295, Note_on_c, 1, 48, 127
1, 75295, Note_on_c, 1, 75, 127
1, 75595, Note_off_c, 1, 48, 0
1, 75633, Note_on_c, 1, 57, 127
1, 75633, Note_on_c, 1, 63, 127
1, 75641, Note_off_c, 1, 70, 0
1, 75798, Note_off_c, 1, 57, 0
1, 75802, Note_on_c, 1, 55, 127
1, 75967, Note_off_c, 1, 63, 0
1, 75967, Note_off_c, 1, 55, 0
1, 75971, Note_on_c, 1, 58, 127
1, 75971, Note_on_c, 1, 62, 127
1, 76136, Note_off_c, 1, 58, 0
1, 76305, Note_off_c, 1, 62, 0
1, 76478, Note_on_c, 1, 53, 127
1, 76643, Note_off_c, 1, 53, 0
1, 76644, Note_off_c, 1, 75, 0
1, 76647, Note_on_c, 1, 60, 127
1, 76647, Note_on_c, 1, 69, 127
1, 76816, Note_on_c, 1, 75, 127
1, 76981, Note_off_c, 1, 60, 0
1, 76981, Note_off_c, 1, 69, 0
1, 76981, Note_off_c, 1, 75, 0
1, 76985, Note_on_c, 1, 51, 127
1, 76985, Note_on_c, 1, 72, 127
1, 77154, Note_on_c, 1, 75, 127
1, 77319, Note_off_c, 1, 51, 0
1, 77319, Note_off_c, 1, 75, 0
1, 77323, Note_on_c, 1, 50, 127
1, 77323, Note_on_c, 1, 77, 127
1, 77623, Note_off_c, 1, 50, 0
1, 77661, Note_on_c, 1, 58, 127
1, 77661, Note_on_c, 1, 62, 127
1, 77667, Note_off_c, 1, 72, 0
1, 77826, Note_off_c, 1, 58, 0
1, 77826, Note_off_c, 1, 62, 0
1, 77830, Note_on_c, 1, 60, 127
1, 77830, Note_on_c, 1, 63, 127
1, 77995, Note_off_c, 1, 60, 0
1, 77995, Note_off_c, 1, 63, 0
1, 77999, Note_on_c, 1, 57, 127
1, 77999, Note_on_c, 1, 65, 127
1, 78164, Note_off_c, 1, 57, 0
1, 78333, Note_off_c, 1, 77, 0
1, 78333, Note_off_c, 1, 65, 0
1, 78336, Note_on_c, 1, 60, 127
1, 78336, Note_on_c, 1, 69, 127
1, 78336, Note_on_c, 1, 65, 127
1, 78501, Note_off_c, 1, 60, 0
1, 78501, Note_off_c, 1, 69, 0
1, 78505, Note_on_c, 1, 62, 127
1, 78505, Note_on_c, 1, 70, 127
1, 78670, Note_off_c, 1, 65, 0
1, 78670, Note_off_c, 1, 62, 0
1, 78670, Note_off_c, 1, 70, 0
1, 78674, Note_on_c, 1, 63, 127
1, 78674, Note_on_c, 1, 72, 127
1, 78674, Note_on_c, 1, 65, 127
1, 78839, Note_off_c, 1, 63, 0
1, 78839, Note_off_c, 1, 72, 0
1, 78843, Note_on_c, 1, 62, 127
1, 78843, Note_on_c, 1, 70, 127
1, 79008, Note_off_c, 1, 65, 0
1, 79008, Note_off_c, 1, 62, 0
1, 79008, Note_off_c, 1, 70, 0
1, 79012, Note_on_c, 1, 60, 127
1, 79012, Note_on_c, 1, 69, 127
1, 79012, Note_on_c, 1, 65, 127
1, 79177, Note_off_c, 1, 60, 0
1, 79177, Note_off_c, 1, 69, 0
1, 79181, Note_on_c, 1, 63, 127
1, 79181, Note_on_c, 1, 72, 127
1, 79346, Note_off_c, 1, 65, 0
1, 79346, Note_off_c, 1, 63, 0
1, 79346, Note_off_c, 1, 72, 0
1, 79350, Note_on_c, 1, 62, 127
1, 79350, Note_on_c, 1, 65, 127
1, 79350, Note_on_c, 1, 70, 127
1, 79515, Note_off_c, 1, 62, 0
1, 79515, Note_off_c, 1, 65, 0
1, 79519, Note_on_c, 1, 60, 127
1, 79519, Note_on_c, 1, 63, 127
1, 79684, Note_off_c, 1, 60, 0
1, 79684, Note_off_c, 1, 63, 0
1, 79688, Note_on_c, 1, 58, 127
1, 79853, Note_off_c, 1, 58, 0
1, 80018, Note_off_c, 1, 70, 0
1, 80026, Note_on_c, 1, 57, 127
1, 80026, Note_on_c, 1, 65, 127
1, 80191, Note_off_c, 1, 57, 0
1, 80195, Note_on_c, 1, 58, 127
1, 80360, Note_off_c, 1, 65, 0
1, 80360, Note_off_c, 1, 58, 0
1, 80364, Note_on_c, 1, 60, 127
1, 80364, Note_on_c, 1, 69, 127
1, 80364, Note_on_c, 1, 65, 127
1, 80529, Note_off_c, 1, 60, 0
1, 80529, Note_off_c, 1, 69, 0
1, 80533, Note_on_c, 1, 62, 127
1, 80533, Note_on_c, 1, 70, 127
1, 80698, Note_off_c, 1, 65, 0
1, 80698, Note_off_c, 1, 62, 0
1, 80698, Note_off_c, 1, 70, 0
1, 80702, Note_on_c, 1, 63, 127
1, 80702, Note_on_c, 1, 72, 127
1, 80702, Note_on_c, 1, 65, 127
1, 80867, Note_off_c, 1, 63, 0
1, 80867, Note_off_c, 1, 72, 0
1, 80871, Note_on_c, 1, 62, 127
1, 80871, Note_on_c, 1, 70, 127
1, 81036, Note_off_c, 1, 65, 0
1, 81036, Note_off_c, 1, 62, 0
1, 81036, Note_off_c, 1, 70, 0
1, 81040, Note_on_c, 1, 60, 127
1, 81040, Note_on_c, 1, 69, 127
1, 81040, Note_on_c, 1, 65, 127
1, 81205, Note_off_c, 1, 60, 0
1, 81205, Note_off_c, 1, 69, 0
1, 81209, Note_on_c, 1, 63, 127
1, 81209, Note_on_c, 1, 72, 127
1, 81374, Note_off_c, 1, 65, 0
1, 81374, Note_off_c, 1, 63, 0
1, 81374, Note_off_c, 1, 72, 0
1, 81378, Note_on_c, 1, 63, 127
1, 81378, Note_on_c, 1, 70, 127
1, 81378, Note_on_c, 1, 65, 127
1, 81543, Note_off_c, 1, 63, 0
1, 81547, Note_on_c, 1, 62, 127
1, 81712, Note_off_c, 1, 70, 0
1, 81712, Note_off_c, 1, 62, 0
1, 81716, Note_on_c, 1, 50, 127
1, 81881, Note_off_c, 1, 50, 0
1, 81885, Note_on_c, 1, 48, 127
1, 82050, Note_off_c, 1, 48, 0
1, 82054, Note_on_c, 1, 46, 127
1, 82054, Note_on_c, 1, 74, 127
1, 82219, Note_off_c, 1, 46, 0
1, 82223, Note_on_c, 1, 45, 127
1, 82388, Note_off_c, 1, 74, 0
1, 82388, Note_off_c, 1, 45, 0
1, 82727, Note_off_c, 1, 65, 0
1, 82729, Note_on_c, 1, 50, 127
1, 82729, Note_on_c, 1, 77, 127
1, 82898, Note_on_c, 1, 57, 127
1, 83063, Note_off_c, 1, 50, 0
1, 83063, Note_off_c, 1, 77, 0
1, 83063, Note_off_c, 1, 57, 0
1, 83067, Note_on_c, 1, 53, 127
1, 83067, Note_on_c, 1, 69, 127
1, 83236, Note_on_c, 1, 57, 127
1, 83401, Note_off_c, 1, 53, 0
1, 83401, Note_off_c, 1, 69, 0
1, 83401, Note_off_c, 1, 57, 0
1, 83405, Note_on_c, 1, 67, 127
1, 83405, Note_on_c, 1, 58, 127
1, 83739, Note_off_c, 1, 67, 0
1, 83743, Note_on_c, 1, 76, 127
1, 83743, Note_on_c, 1, 46, 127
1, 83908, Note_off_c, 1, 76, 0
1, 83912, Note_on_c, 1, 74, 127
1, 84073, Note_off_c, 1, 58, 0
1, 84077, Note_off_c, 1, 46, 0
1, 84077, Note_off_c, 1, 74, 0
1, 84081, Note_on_c, 1, 77, 127
1, 84081, Note_on_c, 1, 45, 127
1, 84246, Note_off_c, 1, 77, 0
1, 84250, Note_on_c, 1, 76, 127
1, 84415, Note_off_c, 1, 45, 0
1, 84415, Note_off_c, 1, 76, 0
1, 84419, Note_on_c, 1, 74, 127
1, 84419, Note_on_c, 1, 46, 127
1, 84584, Note_off_c, 1, 74, 0
1, 84588, Note_on_c, 1, 72, 127
1, 84753, Note_off_c, 1, 46, 0
1, 84753, Note_off_c, 1, 72, 0
1, 84757, Note_on_c, 1, 52, 127
1, 84757, Note_on_c, 1, 79, 127
1, 84926, Note_on_c, 1, 58, 127
1, 85091, Note_off_c, 1, 52, 0
1, 85091, Note_off_c, 1, 79, 0
1, 85091, Note_off_c, 1, 58, 0
1, 85095, Note_on_c, 1, 55, 127
1, 85095, Note_on_c, 1, 70, 127
1, 85264, Note_on_c, 1, 58, 127
1, 85429, Note_off_c, 1, 55, 0
1, 85429, Note_off_c, 1, 70, 0
1, 85429, Note_off_c, 1, 58, 0
1, 85433, Note_on_c, 1, 60, 127
1, 85433, Note_on_c, 1, 69, 127
1, 85767, Note_off_c, 1, 60, 0
1, 85767, Note_off_c, 1, 69, 0
1, 85771, Note_on_c, 1, 45, 127
1, 85771, Note_on_c, 1, 77, 127
1, 85936, Note_off_c, 1, 45, 0
1, 85936, Note_off_c, 1, 77, 0
1, 85940, Note_on_c, 1, 46, 127
1, 85940, Note_on_c, 1, 79, 127
1, 86105, Note_off_c, 1, 46, 0
1, 86105, Note_off_c, 1, 79, 0
1, 86109, Note_on_c, 1, 76, 127
1, 86109, Note_on_c, 1, 48, 127
1, 86274, Note_off_c, 1, 76, 0
1, 86278, Note_on_c, 1, 77, 127
1, 86443, Note_off_c, 1, 48, 0
1, 86443, Note_off_c, 1, 77, 0
1, 86447, Note_on_c, 1, 52, 127
1, 86447, Note_on_c, 1, 79, 127
1, 86447, Note_on_c, 1, 48, 127
1, 86612, Note_off_c, 1, 52, 0
1, 86612, Note_off_c, 1, 79, 0
1, 86616, Note_on_c, 1, 53, 127
1, 86616, Note_on_c, 1, 81, 127
1, 86781, Note_off_c, 1, 48, 0
1, 86781, Note_off_c, 1, 53, 0
1, 86781, Note_off_c, 1, 81, 0
1, 86784, Note_on_c, 1, 55, 127
1, 86784, Note_on_c, 1, 82, 127
1, 86784, Note_on_c, 1, 48, 127
1, 86949, Note_off_c, 1, 55, 0
1, 86949, Note_off_c, 1, 82, 0
1, 86953, Note_on_c, 1, 53, 127
1, 86953, Note_on_c, 1, 81, 127
1, 87118, Note_off_c, 1, 48, 0
1, 87118, Note_off_c, 1, 53, 0
1, 87118, Note_off_c, 1, 81, 0
1, 87122, Note_on_c, 1, 52, 127
1, 87122, Note_on_c, 1, 79, 127
1, 87122, Note_on_c, 1, 48, 127
1, 87287, Note_off_c, 1, 52, 0
1, 87287, Note_off_c, 1, 79, 0
1, 87291, Note_on_c, 1, 55, 127
1, 87291, Note_on_c, 1, 82, 127
1, 87456, Note_off_c, 1, 48, 0
1, 87456, Note_off_c, 1, 55, 0
1, 87456, Note_off_c, 1, 82, 0
1, 87460, Note_on_c, 1, 48, 127
1, 87460, Note_on_c, 1, 81, 127
1, 87460, Note_on_c, 1, 53, 127
1, 87625, Note_off_c, 1, 48, 0
1, 87625, Note_off_c, 1, 81, 0
1, 87629, Note_on_c, 1, 46, 127
1, 87629, Note_on_c, 1, 79, 127
1, 87794, Note_off_c, 1, 46, 0
1, 87794, Note_off_c, 1, 79, 0
1, 87798, Note_on_c, 1, 45, 127
1, 87798, Note_on_c, 1, 77, 127
1, 87963, Note_off_c, 1, 45, 0
1, 87963, Note_off_c, 1, 77, 0
1, 88128, Note_off_c, 1, 53, 0
1, 88136, Note_on_c, 1, 76, 127
1, 88136, Note_on_c, 1, 48, 127
1, 88301, Note_off_c, 1, 76, 0
1, 88305, Note_on_c, 1, 77, 127
1, 88470, Note_off_c, 1, 48, 0
1, 88470, Note_off_c, 1, 77, 0
1, 88474, Note_on_c, 1, 52, 127
1, 88474, Note_on_c, 1, 79, 127
1, 88474, Note_on_c, 1, 48, 127
1, 88639, Note_off_c, 1, 52, 0
1, 88639, Note_off_c, 1, 79, 0
1, 88643, Note_on_c, 1, 53, 127
1, 88643, Note_on_c, 1, 81, 127
1, 88808, Note_off_c, 1, 48, 0
1, 88808, Note_off_c, 1, 53, 0
1, 88808, Note_off_c, 1, 81, 0
1, 88812, Note_on_c, 1, 55, 127
1, 88812, Note_on_c, 1, 82, 127
1, 88812, Note_on_c, 1, 48, 127
1, 88977, Note_off_c, 1, 55, 0
1, 88977, Note_off_c, 1, 82, 0
1, 88981, Note_on_c, 1, 53, 127
1, 88981, Note_on_c, 1, 81, 127
1, 89146, Note_off_c, 1, 48, 0
1, 89146, Note_off_c, 1, 53, 0
1, 89146, Note_off_c, 1, 81, 0
1, 89150, Note_on_c, 1, 52, 127
1, 89150, Note_on_c, 1, 79, 127
1, 89150, Note_on_c, 1, 48, 127
1, 89315, Note_off_c, 1, 52, 0
1, 89315, Note_off_c, 1, 79, 0
1, 89319, Note_on_c, 1, 55, 127
1, 89319, Note_on_c, 1, 82, 127
1, 89484, Note_off_c, 1, 48, 0
1, 89484, Note_off_c, 1, 55, 0
1, 89484, Note_off_c, 1, 82, 0
1, 89488, Note_on_c, 1, 41, 127
1, 89488, Note_on_c, 1, 53, 127
1, 89488, Note_on_c, 1, 81, 127
1, 89653, Note_off_c, 1, 41, 0
1, 89653, Note_off_c, 1, 53, 0
1, 89653, Note_off_c, 1, 81, 0
1, 89657, Note_on_c, 1, 57, 127
1, 89657, Note_on_c, 1, 82, 127
1, 89822, Note_off_c, 1, 57, 0
1, 89822, Note_off_c, 1, 82, 0
1, 89826, Note_on_c, 1, 58, 127
1, 89826, Note_on_c, 1, 81, 127
1, 89991, Note_off_c, 1, 58, 0
1, 89991, Note_off_c, 1, 81, 0
1, 89995, Note_on_c, 1, 60, 127
1, 89995, Note_on_c, 1, 79, 127
1, 90160, Note_off_c, 1, 60, 0
1, 90160, Note_off_c, 1, 79, 0
1, 90164, Note_on_c, 1, 78, 127
1, 90164, Note_on_c, 1, 62, 127
1, 90329, Note_off_c, 1, 78, 0
1, 90333, Note_on_c, 1, 79, 127
1, 90498, Note_off_c, 1, 62, 0
1, 90498, Note_off_c, 1, 79, 0
1, 90502, Note_on_c, 1, 54, 127
1, 90502, Note_on_c, 1, 81, 127
1, 90502, Note_on_c, 1, 62, 127
1, 90667, Note_off_c, 1, 54, 0
1, 90667, Note_off_c, 1, 81, 0
1, 90671, Note_on_c, 1, 55, 127
1, 90671, Note_on_c, 1, 82, 127
1, 90836, Note_off_c, 1, 62, 0
1, 90836, Note_off_c, 1, 55, 0
1, 90836, Note_off_c, 1, 82, 0
1, 90840, Note_on_c, 1, 57, 127
1, 90840, Note_on_c, 1, 84, 127
1, 90840, Note_on_c, 1, 62, 127
1, 91005, Note_off_c, 1, 57, 0
1, 91005, Note_off_c, 1, 84, 0
1, 91008, Note_on_c, 1, 55, 127
1, 91008, Note_on_c, 1, 82, 127
1, 91173, Note_off_c, 1, 55, 0
1, 91173, Note_off_c, 1, 82, 0
1, 91174, Note_off_c, 1, 62, 0
1, 91177, Note_on_c, 1, 54, 127
1, 91177, Note_on_c, 1, 81, 127
1, 91177, Note_on_c, 1, 62, 127
1, 91342, Note_off_c, 1, 54, 0
1, 91342, Note_off_c, 1, 81, 0
1, 91346, Note_on_c, 1, 57, 127
1, 91346, Note_on_c, 1, 84, 127
1, 91511, Note_off_c, 1, 62, 0
1, 91511, Note_off_c, 1, 57, 0
1, 91511, Note_off_c, 1, 84, 0
1, 91515, Note_on_c, 1, 62, 127
1, 91515, Note_on_c, 1, 82, 127
1, 91515, Note_on_c, 1, 55, 127
1, 91680, Note_off_c, 1, 62, 0
1, 91680, Note_off_c, 1, 82, 0
1, 91684, Note_on_c, 1, 60, 127
1, 91684, Note_on_c, 1, 81, 127
1, 91849, Note_off_c, 1, 60, 0
1, 91849, Note_off_c, 1, 81, 0
1, 91853, Note_on_c, 1, 58, 127
1, 91853, Note_on_c, 1, 79, 127
1, 92018, Note_off_c, 1, 58, 0
1, 92018, Note_off_c, 1, 79, 0
1, 92183, Note_off_c, 1, 55, 0
1, 92191, Note_on_c, 1, 78, 127
1, 92191, Note_on_c, 1, 62, 127
1, 92356, Note_off_c, 1, 78, 0
1, 92360, Note_on_c, 1, 79, 127
1, 92525, Note_off_c, 1, 62, 0
1, 92525, Note_off_c, 1, 79, 0
1, 92529, Note_on_c, 1, 54, 127
1, 92529, Note_on_c, 1, 81, 127
1, 92529, Note_on_c, 1, 62, 127
1, 92694, Note_off_c, 1, 54, 0
1, 92694, Note_off_c, 1, 81, 0
1, 92698, Note_on_c, 1, 55, 127
1, 92698, Note_on_c, 1, 82, 127
1, 92863, Note_off_c, 1, 62, 0
1, 92863, Note_off_c, 1, 55, 0
1, 92863, Note_off_c, 1, 82, 0
1, 92867, Note_on_c, 1, 57, 127
1, 92867, Note_on_c, 1, 84, 127
1, 92867, Note_on_c, 1, 62, 127
1, 93032, Note_off_c, 1, 57, 0
1, 93032, Note_off_c, 1, 84, 0
1, 93036, Note_on_c, 1, 55, 127
1, 93036, Note_on_c, 1, 82, 127
1, 93201, Note_off_c, 1, 62, 0
1, 93201, Note_off_c, 1, 55, 0
1, 93201, Note_off_c, 1, 82, 0
1, 93205, Note_on_c, 1, 54, 127
1, 93205, Note_on_c, 1, 81, 127
1, 93205, Note_on_c, 1, 62, 127
1, 93370, Note_off_c, 1, 54, 0
1, 93370, Note_off_c, 1, 81, 0
1, 93374, Note_on_c, 1, 57, 127
1, 93374, Note_on_c, 1, 84, 127
1, 93539, Note_off_c, 1, 62, 0
1, 93539, Note_off_c, 1, 57, 0
1, 93539, Note_off_c, 1, 84, 0
1, 93543, Note_on_c, 1, 82, 127
1, 93543, Note_on_c, 1, 55, 127
1, 93543, Note_on_c, 1, 62, 127
1, 93708, Note_off_c, 1, 82, 0
1, 93712, Note_on_c, 1, 81, 127
1, 93877, Note_off_c, 1, 55, 0
1, 93877, Note_off_c, 1, 81, 0
1, 93881, Note_on_c, 1, 79, 127
1, 93881, Note_on_c, 1, 50, 127
1, 94046, Note_off_c, 1, 79, 0
1, 94050, Note_on_c, 1, 77, 127
1, 94211, Note_off_c, 1, 62, 0
1, 94215, Note_off_c, 1, 50, 0
1, 94215, Note_off_c, 1, 77, 0
1, 94219, Note_on_c, 1, 75, 127
1, 94219, Note_on_c, 1, 48, 127
1, 94384, Note_off_c, 1, 75, 0
1, 94388, Note_on_c, 1, 77, 127
1, 94553, Note_off_c, 1, 48, 0
1, 94553, Note_off_c, 1, 77, 0
1, 94557, Note_on_c, 1, 79, 127
1, 94557, Note_on_c, 1, 50, 127
1, 94722, Note_off_c, 1, 79, 0
1, 94726, Note_on_c, 1, 81, 127
1, 94891, Note_off_c, 1, 50, 0
1, 94891, Note_off_c, 1, 81, 0
1, 94895, Note_on_c, 1, 82, 127
1, 94895, Note_on_c, 1, 43, 127
1, 95060, Note_off_c, 1, 82, 0
1, 95064, Note_on_c, 1, 81, 127
1, 95229, Note_off_c, 1, 43, 0
1, 95229, Note_off_c, 1, 81, 0
1, 95232, Note_on_c, 1, 79, 127
1, 95232, Note_on_c, 1, 51, 127
1, 95397, Note_off_c, 1, 79, 0
1, 95401, Note_on_c, 1, 82, 127
1, 95566, Note_off_c, 1, 51, 0
1, 95566, Note_off_c, 1, 82, 0
1, 95570, Note_on_c, 1, 81, 127
1, 95570, Note_on_c, 1, 53, 127
1, 95735, Note_off_c, 1, 81, 0
1, 95739, Note_on_c, 1, 79, 127
1, 95904, Note_off_c, 1, 53, 0
1, 95904, Note_off_c, 1, 79, 0
1, 95908, Note_on_c, 1, 77, 127
1, 95908, Note_on_c, 1, 48, 127
1, 96073, Note_off_c, 1, 77, 0
1, 96077, Note_on_c, 1, 75, 127
1, 96242, Note_off_c, 1, 48, 0
1, 96242, Note_off_c, 1, 75, 0
1, 96246, Note_on_c, 1, 74, 127
1, 96246, Note_on_c, 1, 46, 127
1, 96411, Note_off_c, 1, 74, 0
1, 96415, Note_on_c, 1, 75, 127
1, 96580, Note_off_c, 1, 46, 0
1, 96580, Note_off_c, 1, 75, 0
1, 96584, Note_on_c, 1, 77, 127
1, 96584, Note_on_c, 1, 48, 127
1, 96749, Note_off_c, 1, 77, 0
1, 96753, Note_on_c, 1, 79, 127
1, 96918, Note_off_c, 1, 48, 0
1, 96918, Note_off_c, 1, 79, 0
1, 96922, Note_on_c, 1, 81, 127
1, 96922, Note_on_c, 1, 41, 127
1, 97087, Note_off_c, 1, 81, 0
1, 97091, Note_on_c, 1, 79, 127
1, 97256, Note_off_c, 1, 41, 0
1, 97256, Note_off_c, 1, 79, 0
1, 97260, Note_on_c, 1, 77, 127
1, 97260, Note_on_c, 1, 50, 127
1, 97425, Note_off_c, 1, 77, 0
1, 97429, Note_on_c, 1, 81, 127
1, 97594, Note_off_c, 1, 50, 0
1, 97594, Note_off_c, 1, 81, 0
1, 97598, Note_on_c, 1, 79, 127
1, 97598, Note_on_c, 1, 51, 127
1, 97763, Note_off_c, 1, 79, 0
1, 97767, Note_on_c, 1, 77, 127
1, 97932, Note_off_c, 1, 51, 0
1, 97932, Note_off_c, 1, 77, 0
1, 97936, Note_on_c, 1, 75, 127
1, 97936, Note_on_c, 1, 46, 127
1, 98101, Note_off_c, 1, 75, 0
1, 98105, Note_on_c, 1, 74, 127
1, 98270, Note_off_c, 1, 46, 0
1, 98270, Note_off_c, 1, 74, 0
1, 98274, Note_on_c, 1, 72, 127
1, 98274, Note_on_c, 1, 45, 127
1, 98439, Note_off_c, 1, 72, 0
1, 98443, Note_on_c, 1, 74, 127
1, 98608, Note_off_c, 1, 45, 0
1, 98608, Note_off_c, 1, 74, 0
1, 98612, Note_on_c, 1, 75, 127
1, 98612, Note_on_c, 1, 46, 127
1, 98777, Note_off_c, 1, 75, 0
1, 98781, Note_on_c, 1, 77, 127
1, 98946, Note_off_c, 1, 46, 0
1, 98946, Note_off_c, 1, 77, 0
1, 98950, Note_on_c, 1, 79, 127
1, 98950, Note_on_c, 1, 39, 127
1, 99115, Note_off_c, 1, 79, 0
1, 99119, Note_on_c, 1, 78, 127
1, 99284, Note_off_c, 1, 39, 0
1, 99284, Note_off_c, 1, 78, 0
1, 99288, Note_on_c, 1, 76, 127
1, 99288, Note_on_c, 1, 48, 127
1, 99453, Note_off_c, 1, 76, 0
1, 99456, Note_on_c, 1, 79, 127
1, 99621, Note_off_c, 1, 79, 0
1, 99622, Note_off_c, 1, 48, 0
1, 99625, Note_on_c, 1, 78, 127
1, 99625, Note_on_c, 1, 50, 127
1, 99790, Note_off_c, 1, 78, 0
1, 99794, Note_on_c, 1, 76, 127
1, 99959, Note_off_c, 1, 76, 0
1, 99963, Note_on_c, 1, 74, 127
1, 99963, Note_on_c, 1, 62, 127
1, 100117, Note_off_c, 1, 50, 0
1, 100128, Note_off_c, 1, 74, 0
1, 100132, Note_on_c, 1, 72, 127
1, 100297, Note_off_c, 1, 62, 0
1, 100297, Note_off_c, 1, 72, 0
1, 100301, Note_on_c, 1, 70, 127
1, 100301, Note_on_c, 1, 63, 127
1, 100466, Note_off_c, 1, 70, 0
1, 100470, Note_on_c, 1, 69, 127
1, 100635, Note_off_c, 1, 63, 0
1, 100635, Note_off_c, 1, 69, 0
1, 100639, Note_on_c, 1, 70, 127
1, 100639, Note_on_c, 1, 62, 127
1, 100804, Note_off_c, 1, 70, 0
1, 100808, Note_on_c, 1, 72, 127
1, 100973, Note_off_c, 1, 62, 0
1, 100973, Note_off_c, 1, 72, 0
1, 100977, Note_on_c, 1, 67, 127
1, 100977, Note_on_c, 1, 74, 127
1, 101146, Note_on_c, 1, 55, 127
1, 101311, Note_off_c, 1, 67, 0
1, 101311, Note_off_c, 1, 74, 0
1, 101311, Note_off_c, 1, 55, 0
1, 101315, Note_on_c, 1, 51, 127
1, 101315, Note_on_c, 1, 58, 127
1, 101315, Note_on_c, 1, 79, 127
1, 101480, Note_off_c, 1, 51, 0
1, 101484, Note_on_c, 1, 55, 127
1, 101649, Note_off_c, 1, 58, 0
1, 101649, Note_off_c, 1, 55, 0
1, 101653, Note_on_c, 1, 57, 127
1, 101653, Note_on_c, 1, 48, 127
1, 101987, Note_off_c, 1, 79, 0
1, 101987, Note_off_c, 1, 57, 0
1, 101991, Note_on_c, 1, 66, 127
1, 101991, Note_on_c, 1, 72, 127
1, 102005, Note_off_c, 1, 48, 0
1, 102156, Note_off_c, 1, 66, 0
1, 102160, Note_on_c, 1, 64, 127
1, 102325, Note_off_c, 1, 72, 0
1, 102325, Note_off_c, 1, 64, 0
1, 102329, Note_on_c, 1, 67, 127
1, 102329, Note_on_c, 1, 70, 127
1, 102494, Note_off_c, 1, 67, 0
1, 102498, Note_on_c, 1, 66, 127
1, 102663, Note_off_c, 1, 70, 0
1, 102663, Note_off_c, 1, 66, 0
1, 102667, Note_on_c, 1, 64, 127
1, 102667, Note_on_c, 1, 72, 127
1, 102832, Note_off_c, 1, 64, 0
1, 102836, Note_on_c, 1, 62, 127
1, 103001, Note_off_c, 1, 72, 0
1, 103001, Note_off_c, 1, 62, 0
1, 103005, Note_on_c, 1, 69, 127
1, 103005, Note_on_c, 1, 78, 127
1, 103174, Note_on_c, 1, 57, 127
1, 103339, Note_off_c, 1, 69, 0
1, 103339, Note_off_c, 1, 78, 0
1, 103339, Note_off_c, 1, 57, 0
1, 103343, Note_on_c, 1, 54, 127
1, 103343, Note_on_c, 1, 60, 127
1, 103343, Note_on_c, 1, 81, 127
1, 103508, Note_off_c, 1, 54, 0
1, 103512, Note_on_c, 1, 57, 127
1, 103677, Note_off_c, 1, 60, 0
1, 103677, Note_off_c, 1, 81, 0
1, 103677, Note_off_c, 1, 57, 0
1, 103680, Note_on_c, 1, 58, 127
1, 103680, Note_on_c, 1, 50, 127
1, 104014, Note_off_c, 1, 58, 0
1, 104018, Note_on_c, 1, 67, 127
1, 104018, Note_on_c, 1, 70, 127
1, 104183, Note_off_c, 1, 67, 0
1, 104183, Note_off_c, 1, 70, 0
1, 104187, Note_on_c, 1, 69, 127
1, 104187, Note_on_c, 1, 72, 127
1, 104348, Note_off_c, 1, 50, 0
1, 104352, Note_off_c, 1, 69, 0
1, 104352, Note_off_c, 1, 72, 0
1, 104356, Note_on_c, 1, 66, 127
1, 104356, Note_on_c, 1, 74, 127
1, 104521, Note_off_c, 1, 66, 0
1, 104525, Note_on_c, 1, 67, 127
1, 104690, Note_off_c, 1, 74, 0
1, 104690, Note_off_c, 1, 67, 0
1, 104694, Note_on_c, 1, 42, 127
1, 104694, Note_on_c, 1, 69, 127
1, 104694, Note_on_c, 1, 74, 127
1, 104859, Note_off_c, 1, 42, 0
1, 104859, Note_off_c, 1, 69, 0
1, 104863, Note_on_c, 1, 43, 127
1, 104863, Note_on_c, 1, 70, 127
1, 105028, Note_off_c, 1, 74, 0
1, 105028, Note_off_c, 1, 43, 0
1, 105028, Note_off_c, 1, 70, 0
1, 105032, Note_on_c, 1, 45, 127
1, 105032, Note_on_c, 1, 72, 127
1, 105032, Note_on_c, 1, 74, 127
1, 105197, Note_off_c, 1, 45, 0
1, 105197, Note_off_c, 1, 72, 0
1, 105201, Note_on_c, 1, 43, 127
1, 105201, Note_on_c, 1, 70, 127
1, 105366, Note_off_c, 1, 74, 0
1, 105366, Note_off_c, 1, 43, 0
1, 105366, Note_off_c, 1, 70, 0
1, 105370, Note_on_c, 1, 42, 127
1, 105370, Note_on_c, 1, 69, 127
1, 105370, Note_on_c, 1, 74, 127
1, 105535, Note_off_c, 1, 42, 0
1, 105535, Note_off_c, 1, 69, 0
1, 105539, Note_on_c, 1, 45, 127
1, 105539, Note_on_c, 1, 72, 127
1, 105704, Note_off_c, 1, 74, 0
1, 105704, Note_off_c, 1, 45, 0
1, 105704, Note_off_c, 1, 72, 0
1, 105708, Note_on_c, 1, 70, 127
1, 105708, Note_on_c, 1, 74, 127
1, 105708, Note_on_c, 1, 43, 127
1, 105873, Note_off_c, 1, 70, 0
1, 105873, Note_off_c, 1, 74, 0
1, 105877, Note_on_c, 1, 69, 127
1, 105877, Note_on_c, 1, 72, 127
1, 106042, Note_off_c, 1, 69, 0
1, 106042, Note_off_c, 1, 72, 0
1, 106046, Note_on_c, 1, 67, 127
1, 106211, Note_off_c, 1, 67, 0
1, 106376, Note_off_c, 1, 43, 0
1, 106384, Note_on_c, 1, 66, 127
1, 106384, Note_on_c, 1, 74, 127
1, 106549, Note_off_c, 1, 66, 0
1, 106553, Note_on_c, 1, 67, 127
1, 106718, Note_off_c, 1, 74, 0
1, 106718, Note_off_c, 1, 67, 0
1, 106722, Note_on_c, 1, 42, 127
1, 106722, Note_on_c, 1, 69, 127
1, 106722, Note_on_c, 1, 74, 127
1, 106887, Note_off_c, 1, 42, 0
1, 106887, Note_off_c, 1, 69, 0
1, 106891, Note_on_c, 1, 43, 127
1, 106891, Note_on_c, 1, 70, 127
1, 107056, Note_off_c, 1, 74, 0
1, 107056, Note_off_c, 1, 43, 0
1, 107056, Note_off_c, 1, 70, 0
1, 107060, Note_on_c, 1, 45, 127
1, 107060, Note_on_c, 1, 72, 127
1, 107060, Note_on_c, 1, 74, 127
1, 107225, Note_off_c, 1, 45, 0
1, 107225, Note_off_c, 1, 72, 0
1, 107229, Note_on_c, 1, 43, 127
1, 107229, Note_on_c, 1, 70, 127
1, 107394, Note_off_c, 1, 74, 0
1, 107394, Note_off_c, 1, 43, 0
1, 107394, Note_off_c, 1, 70, 0
1, 107398, Note_on_c, 1, 42, 127
1, 107398, Note_on_c, 1, 69, 127
1, 107398, Note_on_c, 1, 74, 127
1, 107563, Note_off_c, 1, 42, 0
1, 107563, Note_off_c, 1, 69, 0
1, 107567, Note_on_c, 1, 45, 127
1, 107567, Note_on_c, 1, 72, 127
1, 107732, Note_off_c, 1, 74, 0
1, 107732, Note_off_c, 1, 45, 0
1, 107732, Note_off_c, 1, 72, 0
1, 107736, Note_on_c, 1, 70, 127
1, 107736, Note_on_c, 1, 43, 127
1, 107736, Note_on_c, 1, 74, 127
1, 107901, Note_off_c, 1, 70, 0
1, 107920, Note_on_c, 1, 72, 127
1, 108070, Note_off_c, 1, 43, 0
1, 108070, Note_off_c, 1, 74, 0
1, 108085, Note_off_c, 1, 72, 0
1, 108089, Note_on_c, 1, 74, 127
1, 108089, Note_on_c, 1, 55, 127
1, 108254, Note_off_c, 1, 74, 0
1, 108258, Note_on_c, 1, 75, 127
1, 108423, Note_off_c, 1, 55, 0
1, 108423, Note_off_c, 1, 75, 0
1, 108427, Note_on_c, 1, 58, 127
1, 108427, Note_on_c, 1, 74, 127
1, 108596, Note_on_c, 1, 72, 127
1, 108761, Note_off_c, 1, 58, 0
1, 108761, Note_off_c, 1, 72, 0
1, 108765, Note_on_c, 1, 70, 127
1, 108765, Note_on_c, 1, 55, 127
1, 108919, Note_off_c, 1, 74, 0
1, 108930, Note_off_c, 1, 70, 0
1, 108934, Note_on_c, 1, 68, 127
1, 109099, Note_off_c, 1, 55, 0
1, 109099, Note_off_c, 1, 68, 0
1, 109103, Note_on_c, 1, 67, 127
1, 109103, Note_on_c, 1, 60, 127
1, 109272, Note_on_c, 1, 75, 127
1, 109437, Note_off_c, 1, 67, 0
1, 109437, Note_off_c, 1, 60, 0
1, 109437, Note_off_c, 1, 75, 0
1, 109441, Note_on_c, 1, 51, 127
1, 109441, Note_on_c, 1, 72, 127
1, 109610, Note_on_c, 1, 75, 127
1, 109775, Note_off_c, 1, 51, 0
1, 109775, Note_off_c, 1, 75, 0
1, 109779, Note_on_c, 1, 50, 127
1, 109779, Note_on_c, 1, 77, 127
1, 110113, Note_off_c, 1, 72, 0
1, 110113, Note_off_c, 1, 50, 0
1, 110117, Note_on_c, 1, 59, 127
1, 110117, Note_on_c, 1, 65, 127
1, 110282, Note_off_c, 1, 59, 0
1, 110286, Note_on_c, 1, 57, 127
1, 110447, Note_off_c, 1, 77, 0
1, 110451, Note_off_c, 1, 65, 0
1, 110451, Note_off_c, 1, 57, 0
1, 110455, Note_on_c, 1, 60, 127
1, 110455, Note_on_c, 1, 63, 127
1, 110620, Note_off_c, 1, 60, 0
1, 110624, Note_on_c, 1, 59, 127
1, 110789, Note_off_c, 1, 63, 0
1, 110789, Note_off_c, 1, 59, 0
1, 110793, Note_on_c, 1, 57, 127
1, 110793, Note_on_c, 1, 65, 127
1, 110958, Note_off_c, 1, 57, 0
1, 110962, Note_on_c, 1, 55, 127
1, 111127, Note_off_c, 1, 65, 0
1, 111127, Note_off_c, 1, 55, 0
1, 111131, Note_on_c, 1, 71, 127
1, 111131, Note_on_c, 1, 62, 127
1, 111300, Note_on_c, 1, 77, 127
1, 111465, Note_off_c, 1, 71, 0
1, 111465, Note_off_c, 1, 62, 0
1, 111465, Note_off_c, 1, 77, 0
1, 111469, Note_on_c, 1, 74, 127
1, 111469, Note_on_c, 1, 53, 127
1, 111638, Note_on_c, 1, 77, 127
1, 111803, Note_off_c, 1, 74, 0
1, 111803, Note_off_c, 1, 53, 0
1, 111803, Note_off_c, 1, 77, 0
1, 111807, Note_on_c, 1, 51, 127
1, 111807, Note_on_c, 1, 79, 127
1, 112141, Note_off_c, 1, 51, 0
1, 112144, Note_on_c, 1, 63, 127
1, 112144, Note_on_c, 1, 60, 127
1, 112309, Note_off_c, 1, 63, 0
1, 112309, Note_off_c, 1, 60, 0
1, 112313, Note_on_c, 1, 65, 127
1, 112313, Note_on_c, 1, 62, 127
1, 112478, Note_off_c, 1, 65, 0
1, 112478, Note_off_c, 1, 62, 0
1, 112482, Note_on_c, 1, 59, 127
1, 112482, Note_on_c, 1, 67, 127
1, 112647, Note_off_c, 1, 59, 0
1, 112816, Note_off_c, 1, 67, 0
1, 112817, Note_off_c, 1, 79, 0
1, 112820, Note_on_c, 1, 71, 127
1, 112820, Note_on_c, 1, 62, 127
1, 112820, Note_on_c, 1, 67, 127
1, 112985, Note_off_c, 1, 71, 0
1, 112985, Note_off_c, 1, 62, 0
1, 112989, Note_on_c, 1, 72, 127
1, 112989, Note_on_c, 1, 63, 127
1, 113154, Note_off_c, 1, 67, 0
1, 113154, Note_off_c, 1, 72, 0
1, 113154, Note_off_c, 1, 63, 0
1, 113158, Note_on_c, 1, 74, 127
1, 113158, Note_on_c, 1, 65, 127
1, 113158, Note_on_c, 1, 67, 127
1, 113323, Note_off_c, 1, 74, 0
1, 113323, Note_off_c, 1, 65, 0
1, 113327, Note_on_c, 1, 72, 127
1, 113327, Note_on_c, 1, 63, 127
1, 113492, Note_off_c, 1, 67, 0
1, 113492, Note_off_c, 1, 72, 0
1, 113492, Note_off_c, 1, 63, 0
1, 113496, Note_on_c, 1, 71, 127
1, 113496, Note_on_c, 1, 62, 127
1, 113496, Note_on_c, 1, 67, 127
1, 113661, Note_off_c, 1, 71, 0
1, 113661, Note_off_c, 1, 62, 0
1, 113665, Note_on_c, 1, 74, 127
1, 113665, Note_on_c, 1, 65, 127
1, 113830, Note_off_c, 1, 67, 0
1, 113830, Note_off_c, 1, 74, 0
1, 113830, Note_off_c, 1, 65, 0
1, 113834, Note_on_c, 1, 67, 127
1, 113834, Note_on_c, 1, 63, 127
1, 113834, Note_on_c, 1, 72, 127
1, 113999, Note_off_c, 1, 67, 0
1, 113999, Note_off_c, 1, 63, 0
1, 114003, Note_on_c, 1, 65, 127
1, 114003, Note_on_c, 1, 62, 127
1, 114168, Note_off_c, 1, 65, 0
1, 114168, Note_off_c, 1, 62, 0
1, 114172, Note_on_c, 1, 60, 127
1, 114337, Note_off_c, 1, 60, 0
1, 114502, Note_off_c, 1, 72, 0
1, 114510, Note_on_c, 1, 59, 127
1, 114510, Note_on_c, 1, 67, 127
1, 114675, Note_off_c, 1, 59, 0
1, 114679, Note_on_c, 1, 60, 127
1, 114844, Note_off_c, 1, 67, 0
1, 114844, Note_off_c, 1, 60, 0
1, 114848, Note_on_c, 1, 71, 127
1, 114848, Note_on_c, 1, 62, 127
1, 114848, Note_on_c, 1, 67, 127
1, 115013, Note_off_c, 1, 71, 0
1, 115013, Note_off_c, 1, 62, 0
1, 115017, Note_on_c, 1, 72, 127
1, 115017, Note_on_c, 1, 63, 127
1, 115182, Note_off_c, 1, 67, 0
1, 115182, Note_off_c, 1, 72, 0
1, 115182, Note_off_c, 1, 63, 0
1, 115186, Note_on_c, 1, 74, 127
1, 115186, Note_on_c, 1, 65, 127
1, 115186, Note_on_c, 1, 67, 127
1, 115351, Note_off_c, 1, 74, 0
1, 115351, Note_off_c, 1, 65, 0
1, 115355, Note_on_c, 1, 72, 127
1, 115355, Note_on_c, 1, 63, 127
1, 115520, Note_off_c, 1, 67, 0
1, 115520, Note_off_c, 1, 72, 0
1, 115520, Note_off_c, 1, 63, 0
1, 115524, Note_on_c, 1, 71, 127
1, 115524, Note_on_c, 1, 62, 127
1, 115524, Note_on_c, 1, 67, 127
1, 115689, Note_off_c, 1, 71, 0
1, 115689, Note_off_c, 1, 62, 0
1, 115693, Note_on_c, 1, 74, 127
1, 115693, Note_on_c, 1, 65, 127
1, 115858, Note_off_c, 1, 67, 0
1, 115858, Note_off_c, 1, 74, 0
1, 115858, Note_off_c, 1, 65, 0
1, 115862, Note_on_c, 1, 63, 127
1, 115862, Note_on_c, 1, 72, 127
1, 115862, Note_on_c, 1, 67, 127
1, 116027, Note_off_c, 1, 63, 0
1, 116031, Note_on_c, 1, 62, 127
1, 116196, Note_off_c, 1, 72, 0
1, 116196, Note_off_c, 1, 62, 0
1, 116200, Note_on_c, 1, 60, 127
1, 116200, Note_on_c, 1, 75, 127
1, 116365, Note_off_c, 1, 60, 0
1, 116368, Note_on_c, 1, 58, 127
1, 116533, Note_off_c, 1, 58, 0
1, 116534, Note_off_c, 1, 75, 0
1, 116537, Note_on_c, 1, 57, 127
1, 116537, Note_on_c, 1, 74, 127
1, 116702, Note_off_c, 1, 57, 0
1, 116871, Note_off_c, 1, 74, 0
1, 117211, Note_off_c, 1, 67, 0
1, 117213, Note_on_c, 1, 63, 127
1, 117213, Note_on_c, 1, 72, 127
1, 117378, Note_off_c, 1, 63, 0
1, 117382, Note_on_c, 1, 62, 127
1, 117547, Note_off_c, 1, 72, 0
1, 117547, Note_off_c, 1, 62, 0
1, 117551, Note_on_c, 1, 60, 127
1, 117551, Note_on_c, 1, 81, 127
1, 117551, Note_on_c, 1, 75, 127
1, 117716, Note_off_c, 1, 60, 0
1, 117720, Note_on_c, 1, 63, 127
1, 117885, Note_off_c, 1, 81, 0
1, 117885, Note_off_c, 1, 75, 0
1, 117885, Note_off_c, 1, 63, 0
1, 117889, Note_on_c, 1, 62, 127
1, 117889, Note_on_c, 1, 82, 127
1, 117889, Note_on_c, 1, 77, 127
1, 118054, Note_off_c, 1, 62, 0
1, 118058, Note_on_c, 1, 60, 127
1, 118223, Note_off_c, 1, 82, 0
1, 118223, Note_off_c, 1, 60, 0
1, 118227, Note_on_c, 1, 58, 127
1, 118227, Note_on_c, 1, 74, 127
1, 118392, Note_off_c, 1, 58, 0
1, 118396, Note_on_c, 1, 57, 127
1, 118561, Note_off_c, 1, 74, 0
1, 118561, Note_off_c, 1, 57, 0
1, 118565, Note_on_c, 1, 55, 127
1, 118565, Note_on_c, 1, 72, 127
1, 118730, Note_off_c, 1, 55, 0
1, 118899, Note_off_c, 1, 72, 0
1, 119238, Note_off_c, 1, 77, 0
1, 119241, Note_on_c, 1, 62, 127
1, 119241, Note_on_c, 1, 70, 127
1, 119406, Note_off_c, 1, 62, 0
1, 119410, Note_on_c, 1, 60, 127
1, 119575, Note_off_c, 1, 70, 0
1, 119575, Note_off_c, 1, 60, 0
1, 119579, Note_on_c, 1, 58, 127
1, 119579, Note_on_c, 1, 79, 127
1, 119579, Note_on_c, 1, 74, 127
1, 119744, Note_off_c, 1, 58, 0
1, 119748, Note_on_c, 1, 62, 127
1, 119913, Note_off_c, 1, 79, 0
1, 119913, Note_off_c, 1, 74, 0
1, 119913, Note_off_c, 1, 62, 0
1, 119917, Note_on_c, 1, 60, 127
1, 119917, Note_on_c, 1, 81, 127
1, 119917, Note_on_c, 1, 75, 127
1, 120082, Note_off_c, 1, 60, 0
1, 120086, Note_on_c, 1, 58, 127
1, 120251, Note_off_c, 1, 81, 0
1, 120251, Note_off_c, 1, 58, 0
1, 120255, Note_on_c, 1, 57, 127
1, 120255, Note_on_c, 1, 72, 127
1, 120420, Note_off_c, 1, 57, 0
1, 120424, Note_on_c, 1, 55, 127
1, 120589, Note_off_c, 1, 72, 0
1, 120589, Note_off_c, 1, 55, 0
1, 120592, Note_on_c, 1, 54, 127
1, 120592, Note_on_c, 1, 70, 127
1, 120757, Note_off_c, 1, 54, 0
1, 120926, Note_off_c, 1, 70, 0
1, 121266, Note_off_c, 1, 75, 0
1, 121268, Note_on_c, 1, 60, 127
1, 121268, Note_on_c, 1, 69, 127
1, 121433, Note_off_c, 1, 60, 0
1, 121437, Note_on_c, 1, 58, 127
1, 121602, Note_off_c, 1, 69, 0
1, 121602, Note_off_c, 1, 58, 0
1, 121606, Note_on_c, 1, 57, 127
1, 121606, Note_on_c, 1, 78, 127
1, 121606, Note_on_c, 1, 72, 127
1, 121771, Note_off_c, 1, 57, 0
1, 121775, Note_on_c, 1, 60, 127
1, 121940, Note_off_c, 1, 78, 0
1, 121940, Note_off_c, 1, 72, 0
1, 121940, Note_off_c, 1, 60, 0
1, 121944, Note_on_c, 1, 79, 127
1, 121944, Note_on_c, 1, 74, 127
1, 121944, Note_on_c, 1, 58, 127
1, 122109, Note_off_c, 1, 79, 0
1, 122113, Note_on_c, 1, 77, 127
1, 122278, Note_off_c, 1, 74, 0
1, 122278, Note_off_c, 1, 58, 0
1, 122278, Note_off_c, 1, 77, 0
1, 122282, Note_on_c, 1, 76, 127
1, 122282, Note_on_c, 1, 58, 127
1, 122282, Note_on_c, 1, 55, 127
1, 122447, Note_off_c, 1, 76, 0
1, 122451, Note_on_c, 1, 74, 127
1, 122616, Note_off_c, 1, 58, 0
1, 122616, Note_off_c, 1, 55, 0
1, 122616, Note_off_c, 1, 74, 0
1, 122620, Note_on_c, 1, 73, 127
1, 122620, Note_on_c, 1, 57, 127
1, 122620, Note_on_c, 1, 53, 127
1, 122785, Note_off_c, 1, 73, 0
1, 122789, Note_on_c, 1, 74, 127
1, 122954, Note_off_c, 1, 57, 0
1, 122954, Note_off_c, 1, 53, 0
1, 122954, Note_off_c, 1, 74, 0
1, 122958, Note_on_c, 1, 76, 127
1, 122958, Note_on_c, 1, 58, 127
1, 122958, Note_on_c, 1, 55, 127
1, 123123, Note_off_c, 1, 76, 0
1, 123127, Note_on_c, 1, 77, 127
1, 123292, Note_off_c, 1, 58, 0
1, 123292, Note_off_c, 1, 55, 0
1, 123292, Note_off_c, 1, 77, 0
1, 123296, Note_on_c, 1, 79, 127
1, 123296, Note_on_c, 1, 55, 127
1, 123296, Note_on_c, 1, 52, 127
1, 123461, Note_off_c, 1, 79, 0
1, 123465, Note_on_c, 1, 77, 127
1, 123630, Note_off_c, 1, 55, 0
1, 123630, Note_off_c, 1, 77, 0
1, 123634, Note_on_c, 1, 76, 127
1, 123634, Note_on_c, 1, 61, 127
1, 123799, Note_off_c, 1, 76, 0
1, 123968, Note_off_c, 1, 52, 0
1, 123968, Note_off_c, 1, 61, 0
1, 123972, Note_on_c, 1, 77, 127
1, 123972, Note_on_c, 1, 62, 127
1, 123972, Note_on_c, 1, 50, 127
1, 124137, Note_off_c, 1, 77, 0
1, 124141, Note_on_c, 1, 75, 127
1, 124306, Note_off_c, 1, 62, 0
1, 124306, Note_off_c, 1, 50, 0
1, 124306, Note_off_c, 1, 75, 0
1, 124310, Note_on_c, 1, 74, 127
1, 124310, Note_on_c, 1, 56, 127
1, 124310, Note_on_c, 1, 53, 127
1, 124475, Note_off_c, 1, 74, 0
1, 124479, Note_on_c, 1, 72, 127
1, 124644, Note_off_c, 1, 56, 0
1, 124644, Note_off_c, 1, 53, 0
1, 124644, Note_off_c, 1, 72, 0
1, 124648, Note_on_c, 1, 71, 127
1, 124648, Note_on_c, 1, 55, 127
1, 124648, Note_on_c, 1, 51, 127
1, 124813, Note_off_c, 1, 71, 0
1, 124816, Note_on_c, 1, 72, 127
1, 124981, Note_off_c, 1, 72, 0
1, 124982, Note_off_c, 1, 55, 0
1, 124982, Note_off_c, 1, 51, 0
1, 124985, Note_on_c, 1, 74, 127
1, 124985, Note_on_c, 1, 56, 127
1, 124985, Note_on_c, 1, 53, 127
1, 125150, Note_off_c, 1, 74, 0
1, 125154, Note_on_c, 1, 75, 127
1, 125319, Note_off_c, 1, 56, 0
1, 125319, Note_off_c, 1, 53, 0
1, 125319, Note_off_c, 1, 75, 0
1, 125323, Note_on_c, 1, 77, 127
1, 125323, Note_on_c, 1, 53, 127
1, 125323, Note_on_c, 1, 50, 127
1, 125488, Note_off_c, 1, 77, 0
1, 125492, Note_on_c, 1, 75, 127
1, 125657, Note_off_c, 1, 53, 0
1, 125657, Note_off_c, 1, 75, 0
1, 125661, Note_on_c, 1, 74, 127
1, 125661, Note_on_c, 1, 59, 127
1, 125826, Note_off_c, 1, 74, 0
1, 125995, Note_off_c, 1, 50, 0
1, 125995, Note_off_c, 1, 59, 0
1, 125999, Note_on_c, 1, 75, 127
1, 125999, Note_on_c, 1, 60, 127
1, 125999, Note_on_c, 1, 48, 127
1, 126164, Note_off_c, 1, 75, 0
1, 126168, Note_on_c, 1, 72, 127
1, 126333, Note_off_c, 1, 60, 0
1, 126333, Note_off_c, 1, 72, 0
1, 126337, Note_on_c, 1, 71, 127
1, 126502, Note_off_c, 1, 71, 0
1, 126506, Note_on_c, 1, 69, 127
1, 126671, Note_off_c, 1, 69, 0
1, 126675, Note_on_c, 1, 67, 127
1, 126675, Note_on_c, 1, 63, 127
1, 126840, Note_off_c, 1, 67, 0
1, 126844, Note_on_c, 1, 65, 127
1, 127009, Note_off_c, 1, 63, 0
1, 127009, Note_off_c, 1, 65, 0
1, 127348, Note_off_c, 1, 48, 0
1, 127351, Note_on_c, 1, 67, 127
1, 127351, Note_on_c, 1, 75, 127
1, 127520, Note_on_c, 1, 48, 127
1, 127685, Note_off_c, 1, 67, 0
1, 127685, Note_off_c, 1, 48, 0
1, 127689, Note_on_c, 1, 51, 127
1, 127689, Note_on_c, 1, 58, 127
1, 127854, Note_off_c, 1, 51, 0
1, 128023, Note_off_c, 1, 58, 0
1, 128027, Note_on_c, 1, 56, 127
1, 128027, Note_on_c, 1, 53, 127
1, 128361, Note_off_c, 1, 75, 0
1, 128361, Note_off_c, 1, 56, 0
1, 128361, Note_off_c, 1, 53, 0
1, 128365, Note_on_c, 1, 62, 127
1, 128365, Note_on_c, 1, 68, 127
1, 128530, Note_off_c, 1, 62, 0
1, 128534, Note_on_c, 1, 60, 127
1, 128699, Note_off_c, 1, 68, 0
1, 128699, Note_off_c, 1, 60, 0
1, 128703, Note_on_c, 1, 63, 127
1, 128703, Note_on_c, 1, 67, 127
1, 128868, Note_off_c, 1, 63, 0
1, 128872, Note_on_c, 1, 62, 127
1, 129037, Note_off_c, 1, 67, 0
1, 129037, Note_off_c, 1, 62, 0
1, 129040, Note_on_c, 1, 60, 127
1, 129040, Note_on_c, 1, 68, 127
1, 129205, Note_off_c, 1, 60, 0
1, 129209, Note_on_c, 1, 58, 127
1, 129374, Note_off_c, 1, 68, 0
1, 129374, Note_off_c, 1, 58, 0
1, 129378, Note_on_c, 1, 74, 127
1, 129378, Note_on_c, 1, 65, 127
1, 129547, Note_on_c, 1, 46, 127
1, 129712, Note_off_c, 1, 74, 0
1, 129712, Note_off_c, 1, 65, 0
1, 129712, Note_off_c, 1, 46, 0
1, 129716, Note_on_c, 1, 50, 127
1, 129716, Note_on_c, 1, 77, 127
1, 129716, Note_on_c, 1, 56, 127
1, 129881, Note_off_c, 1, 50, 0
1, 129885, Note_on_c, 1, 46, 127
1, 130050, Note_off_c, 1, 77, 0
1, 130050, Note_off_c, 1, 56, 0
1, 130050, Note_off_c, 1, 46, 0
1, 130054, Note_on_c, 1, 55, 127
1, 130054, Note_on_c, 1, 51, 127
1, 130219, Note_off_c, 1, 55, 0
1, 130223, Note_on_c, 1, 58, 127
1, 130388, Note_off_c, 1, 58, 0
1, 130392, Note_on_c, 1, 60, 127
1, 130392, Note_on_c, 1, 70, 127
1, 130557, Note_off_c, 1, 60, 0
1, 130561, Note_on_c, 1, 62, 127
1, 130726, Note_off_c, 1, 70, 0
1, 130726, Note_off_c, 1, 62, 0
1, 130730, Note_on_c, 1, 63, 127
1, 130730, Note_on_c, 1, 72, 127
1, 130895, Note_off_c, 1, 63, 0
1, 131064, Note_off_c, 1, 72, 0
1, 131237, Note_on_c, 1, 65, 127
1, 131402, Note_off_c, 1, 65, 0
1, 131403, Note_off_c, 1, 51, 0
1, 131406, Note_on_c, 1, 75, 127
1, 131406, Note_on_c, 1, 67, 127
1, 131575, Note_on_c, 1, 51, 127
1, 131740, Note_off_c, 1, 75, 0
1, 131740, Note_off_c, 1, 67, 0
1, 131740, Note_off_c, 1, 51, 0
1, 131744, Note_on_c, 1, 55, 127
1, 131744, Note_on_c, 1, 67, 127
1, 131744, Note_on_c, 1, 63, 127
1, 131909, Note_off_c, 1, 55, 0
1, 131913, Note_on_c, 1, 51, 127
1, 132078, Note_off_c, 1, 67, 0
1, 132078, Note_off_c, 1, 51, 0
1, 132082, Note_on_c, 1, 65, 127
1, 132082, Note_on_c, 1, 58, 127
1, 132416, Note_off_c, 1, 63, 0
1, 132416, Note_off_c, 1, 65, 0
1, 132416, Note_off_c, 1, 58, 0
1, 132420, Note_on_c, 1, 74, 127
1, 132420, Note_on_c, 1, 56, 127
1, 132585, Note_off_c, 1, 74, 0
1, 132589, Note_on_c, 1, 72, 127
1, 132754, Note_off_c, 1, 56, 0
1, 132754, Note_off_c, 1, 72, 0
1, 132758, Note_on_c, 1, 75, 127
1, 132758, Note_on_c, 1, 55, 127
1, 132923, Note_off_c, 1, 75, 0
1, 132927, Note_on_c, 1, 74, 127
1, 133092, Note_off_c, 1, 55, 0
1, 133092, Note_off_c, 1, 74, 0
1, 133096, Note_on_c, 1, 72, 127
1, 133096, Note_on_c, 1, 56, 127
1, 133261, Note_off_c, 1, 72, 0
1, 133264, Note_on_c, 1, 70, 127
1, 133429, Note_off_c, 1, 70, 0
1, 133430, Note_off_c, 1, 56, 0
1, 133433, Note_on_c, 1, 77, 127
1, 133433, Note_on_c, 1, 62, 127
1, 133602, Note_on_c, 1, 58, 127
1, 133767, Note_off_c, 1, 77, 0
1, 133767, Note_off_c, 1, 62, 0
1, 133767, Note_off_c, 1, 58, 0
1, 133771, Note_on_c, 1, 62, 127
1, 133771, Note_on_c, 1, 68, 127
1, 133771, Note_on_c, 1, 65, 127
1, 133936, Note_off_c, 1, 62, 0
1, 133940, Note_on_c, 1, 58, 127
1, 134105, Note_off_c, 1, 68, 0
1, 134105, Note_off_c, 1, 65, 0
1, 134105, Note_off_c, 1, 58, 0
1, 134109, Note_on_c, 1, 67, 127
1, 134109, Note_on_c, 1, 63, 127
1, 134443, Note_off_c, 1, 67, 0
1, 134447, Note_on_c, 1, 75, 127
1, 134447, Note_on_c, 1, 55, 127
1, 134601, Note_off_c, 1, 63, 0
1, 134612, Note_off_c, 1, 75, 0
1, 134612, Note_off_c, 1, 55, 0
1, 134616, Note_on_c, 1, 77, 127
1, 134616, Note_on_c, 1, 56, 127
1, 134781, Note_off_c, 1, 77, 0
1, 134781, Note_off_c, 1, 56, 0
1, 134785, Note_on_c, 1, 74, 127
1, 134785, Note_on_c, 1, 58, 127
1, 134950, Note_off_c, 1, 74, 0
1, 134954, Note_on_c, 1, 75, 127
1, 135119, Note_off_c, 1, 58, 0
1, 135119, Note_off_c, 1, 75, 0
1, 135123, Note_on_c, 1, 77, 127
1, 135123, Note_on_c, 1, 50, 127
1, 135123, Note_on_c, 1, 58, 127
1, 135288, Note_off_c, 1, 77, 0
1, 135288, Note_off_c, 1, 50, 0
1, 135292, Note_on_c, 1, 79, 127
1, 135292, Note_on_c, 1, 51, 127
1, 135457, Note_off_c, 1, 58, 0
1, 135457, Note_off_c, 1, 79, 0
1, 135457, Note_off_c, 1, 51, 0
1, 135461, Note_on_c, 1, 80, 127
1, 135461, Note_on_c, 1, 53, 127
1, 135461, Note_on_c, 1, 58, 127
1, 135626, Note_off_c, 1, 80, 0
1, 135626, Note_off_c, 1, 53, 0
1, 135630, Note_on_c, 1, 79, 127
1, 135630, Note_on_c, 1, 51, 127
1, 135795, Note_off_c, 1, 58, 0
1, 135795, Note_off_c, 1, 79, 0
1, 135795, Note_off_c, 1, 51, 0
1, 135799, Note_on_c, 1, 77, 127
1, 135799, Note_on_c, 1, 50, 127
1, 135799, Note_on_c, 1, 58, 127
1, 135964, Note_off_c, 1, 77, 0
1, 135964, Note_off_c, 1, 50, 0
1, 135968, Note_on_c, 1, 80, 127
1, 135968, Note_on_c, 1, 53, 127
1, 136133, Note_off_c, 1, 58, 0
1, 136133, Note_off_c, 1, 80, 0
1, 136133, Note_off_c, 1, 53, 0
1, 136137, Note_on_c, 1, 79, 127
1, 136137, Note_on_c, 1, 58, 127
1, 136137, Note_on_c, 1, 51, 127
1, 136302, Note_off_c, 1, 79, 0
1, 136302, Note_off_c, 1, 58, 0
1, 136306, Note_on_c, 1, 77, 127
1, 136306, Note_on_c, 1, 56, 127
1, 136471, Note_off_c, 1, 77, 0
1, 136471, Note_off_c, 1, 56, 0
1, 136475, Note_on_c, 1, 75, 127
1, 136475, Note_on_c, 1, 55, 127
1, 136640, Note_off_c, 1, 75, 0
1, 136640, Note_off_c, 1, 55, 0
1, 136805, Note_off_c, 1, 51, 0
1, 136813, Note_on_c, 1, 74, 127
1, 136813, Note_on_c, 1, 58, 127
1, 136978, Note_off_c, 1, 74, 0
1, 136982, Note_on_c, 1, 75, 127
1, 137147, Note_off_c, 1, 58, 0
1, 137147, Note_off_c, 1, 75, 0
1, 137151, Note_on_c, 1, 77, 127
1, 137151, Note_on_c, 1, 50, 127
1, 137151, Note_on_c, 1, 58, 127
1, 137316, Note_off_c, 1, 77, 0
1, 137316, Note_off_c, 1, 50, 0
1, 137320, Note_on_c, 1, 79, 127
1, 137320, Note_on_c, 1, 51, 127
1, 137485, Note_off_c, 1, 58, 0
1, 137485, Note_off_c, 1, 79, 0
1, 137485, Note_off_c, 1, 51, 0
1, 137488, Note_on_c, 1, 80, 127
1, 137488, Note_on_c, 1, 53, 127
1, 137488, Note_on_c, 1, 58, 127
1, 137653, Note_off_c, 1, 80, 0
1, 137653, Note_off_c, 1, 53, 0
1, 137657, Note_on_c, 1, 79, 127
1, 137657, Note_on_c, 1, 51, 127
1, 137822, Note_off_c, 1, 58, 0
1, 137822, Note_off_c, 1, 79, 0
1, 137822, Note_off_c, 1, 51, 0
1, 137826, Note_on_c, 1, 77, 127
1, 137826, Note_on_c, 1, 50, 127
1, 137826, Note_on_c, 1, 58, 127
1, 137991, Note_off_c, 1, 77, 0
1, 137991, Note_off_c, 1, 50, 0
1, 137995, Note_on_c, 1, 80, 127
1, 137995, Note_on_c, 1, 53, 127
1, 138160, Note_off_c, 1, 58, 0
1, 138160, Note_off_c, 1, 80, 0
1, 138160, Note_off_c, 1, 53, 0
1, 138164, Note_on_c, 1, 80, 127
1, 138164, Note_on_c, 1, 58, 127
1, 138164, Note_on_c, 1, 51, 127
1, 138235, Note_on_c, 1, 79, 127
1, 138244, Note_off_c, 1, 80, 0
1, 138315, Note_off_c, 1, 79, 0
1, 138498, Note_off_c, 1, 58, 0
1, 138502, Note_on_c, 1, 63, 127
1, 138671, Note_on_c, 1, 77, 127
1, 138832, Note_off_c, 1, 51, 0
1, 138836, Note_off_c, 1, 63, 0
1, 138836, Note_off_c, 1, 77, 0
1, 138840, Note_on_c, 1, 75, 127
1, 138840, Note_on_c, 1, 67, 127
1, 139005, Note_off_c, 1, 75, 0
1, 139009, Note_on_c, 1, 74, 127
1, 139174, Note_off_c, 1, 67, 0
1, 139174, Note_off_c, 1, 74, 0
1, 139178, Note_on_c, 1, 75, 127
1, 139178, Note_on_c, 1, 63, 127
1, 139343, Note_off_c, 1, 75, 0
1, 139347, Note_on_c, 1, 77, 127
1, 139512, Note_off_c, 1, 63, 0
1, 139512, Note_off_c, 1, 77, 0
1, 139516, Note_on_c, 1, 79, 127
1, 139516, Note_on_c, 1, 70, 127
1, 139685, Note_on_c, 1, 51, 127
1, 139850, Note_off_c, 1, 79, 0
1, 139850, Note_off_c, 1, 70, 0
1, 139850, Note_off_c, 1, 51, 0
1, 139854, Note_on_c, 1, 55, 127
1, 139854, Note_on_c, 1, 62, 127
1, 139854, Note_on_c, 1, 82, 127
1, 140019, Note_off_c, 1, 55, 0
1, 140023, Note_on_c, 1, 51, 127
1, 140188, Note_off_c, 1, 62, 0
1, 140188, Note_off_c, 1, 51, 0
1, 140192, Note_on_c, 1, 60, 127
1, 140192, Note_on_c, 1, 53, 127
1, 140526, Note_off_c, 1, 82, 0
1, 140526, Note_off_c, 1, 60, 0
1, 140530, Note_on_c, 1, 69, 127
1, 140530, Note_on_c, 1, 75, 127
1, 140695, Note_off_c, 1, 69, 0
1, 140699, Note_on_c, 1, 67, 127
1, 140860, Note_off_c, 1, 53, 0
1, 140864, Note_off_c, 1, 75, 0
1, 140864, Note_off_c, 1, 67, 0
1, 140868, Note_on_c, 1, 70, 127
1, 140868, Note_on_c, 1, 74, 127
1, 141033, Note_off_c, 1, 70, 0
1, 141037, Note_on_c, 1, 69, 127
1, 141202, Note_off_c, 1, 74, 0
1, 141202, Note_off_c, 1, 69, 0
1, 141206, Note_on_c, 1, 67, 127
1, 141206, Note_on_c, 1, 75, 127
1, 141371, Note_off_c, 1, 67, 0
1, 141375, Note_on_c, 1, 65, 127
1, 141540, Note_off_c, 1, 75, 0
1, 141540, Note_off_c, 1, 65, 0
1, 141544, Note_on_c, 1, 81, 127
1, 141544, Note_on_c, 1, 72, 127
1, 141712, Note_on_c, 1, 53, 127
1, 141877, Note_off_c, 1, 53, 0
1, 141878, Note_off_c, 1, 81, 0
1, 141878, Note_off_c, 1, 72, 0
1, 141881, Note_on_c, 1, 57, 127
1, 141881, Note_on_c, 1, 84, 127
1, 141881, Note_on_c, 1, 63, 127
1, 142046, Note_off_c, 1, 57, 0
1, 142050, Note_on_c, 1, 53, 127
1, 142215, Note_off_c, 1, 84, 0
1, 142215, Note_off_c, 1, 63, 0
1, 142215, Note_off_c, 1, 53, 0
1, 142219, Note_on_c, 1, 62, 127
1, 142219, Note_on_c, 1, 58, 127
1, 142553, Note_off_c, 1, 62, 0
1, 142557, Note_on_c, 1, 74, 127
1, 142557, Note_on_c, 1, 70, 127
1, 142722, Note_off_c, 1, 74, 0
1, 142722, Note_off_c, 1, 70, 0
1, 142726, Note_on_c, 1, 75, 127
1, 142726, Note_on_c, 1, 72, 127
1, 142887, Note_off_c, 1, 58, 0
1, 142891, Note_off_c, 1, 75, 0
1, 142891, Note_off_c, 1, 72, 0
1, 142895, Note_on_c, 1, 69, 127
1, 142895, Note_on_c, 1, 77, 127
1, 143060, Note_off_c, 1, 69, 0
1, 143064, Note_on_c, 1, 70, 127
1, 143229, Note_off_c, 1, 77, 0
1, 143229, Note_off_c, 1, 70, 0
1, 143233, Note_on_c, 1, 72, 127
1, 143233, Note_on_c, 1, 57, 127
1, 143233, Note_on_c, 1, 77, 127
1, 143398, Note_off_c, 1, 72, 0
1, 143398, Note_off_c, 1, 57, 0
1, 143402, Note_on_c, 1, 74, 127
1, 143402, Note_on_c, 1, 58, 127
1, 143567, Note_off_c, 1, 77, 0
1, 143567, Note_off_c, 1, 74, 0
1, 143567, Note_off_c, 1, 58, 0
1, 143571, Note_on_c, 1, 75, 127
1, 143571, Note_on_c, 1, 60, 127
1, 143571, Note_on_c, 1, 77, 127
1, 143736, Note_off_c, 1, 75, 0
1, 143736, Note_off_c, 1, 60, 0
1, 143740, Note_on_c, 1, 74, 127
1, 143740, Note_on_c, 1, 58, 127
1, 143905, Note_off_c, 1, 77, 0
1, 143905, Note_off_c, 1, 74, 0
1, 143905, Note_off_c, 1, 58, 0
1, 143909, Note_on_c, 1, 72, 127
1, 143909, Note_on_c, 1, 57, 127
1, 143909, Note_on_c, 1, 77, 127
1, 144074, Note_off_c, 1, 72, 0
1, 144074, Note_off_c, 1, 57, 0
1, 144078, Note_on_c, 1, 75, 127
1, 144078, Note_on_c, 1, 60, 127
1, 144243, Note_off_c, 1, 77, 0
1, 144243, Note_off_c, 1, 75, 0
1, 144243, Note_off_c, 1, 60, 0
1, 144247, Note_on_c, 1, 77, 127
1, 144247, Note_on_c, 1, 74, 127
1, 144247, Note_on_c, 1, 58, 127
1, 144412, Note_off_c, 1, 77, 0
1, 144412, Note_off_c, 1, 74, 0
1, 144416, Note_on_c, 1, 75, 127
1, 144416, Note_on_c, 1, 72, 127
1, 144581, Note_off_c, 1, 75, 0
1, 144581, Note_off_c, 1, 72, 0
1, 144585, Note_on_c, 1, 70, 127
1, 144750, Note_off_c, 1, 70, 0
1, 144915, Note_off_c, 1, 58, 0
1, 144923, Note_on_c, 1, 69, 127
1, 144923, Note_on_c, 1, 77, 127
1, 145088, Note_off_c, 1, 69, 0
1, 145092, Note_on_c, 1, 70, 127
1, 145257, Note_off_c, 1, 77, 0
1, 145257, Note_off_c, 1, 70, 0
1, 145261, Note_on_c, 1, 72, 127
1, 145261, Note_on_c, 1, 57, 127
1, 145261, Note_on_c, 1, 77, 127
1, 145426, Note_off_c, 1, 72, 0
1, 145426, Note_off_c, 1, 57, 0
1, 145430, Note_on_c, 1, 74, 127
1, 145430, Note_on_c, 1, 58, 127
1, 145595, Note_off_c, 1, 77, 0
1, 145595, Note_off_c, 1, 74, 0
1, 145595, Note_off_c, 1, 58, 0
1, 145599, Note_on_c, 1, 75, 127
1, 145599, Note_on_c, 1, 60, 127
1, 145599, Note_on_c, 1, 77, 127
1, 145764, Note_off_c, 1, 75, 0
1, 145764, Note_off_c, 1, 60, 0
1, 145768, Note_on_c, 1, 74, 127
1, 145768, Note_on_c, 1, 58, 127
1, 145933, Note_off_c, 1, 77, 0
1, 145933, Note_off_c, 1, 74, 0
1, 145933, Note_off_c, 1, 58, 0
1, 145936, Note_on_c, 1, 72, 127
1, 145936, Note_on_c, 1, 57, 127
1, 145936, Note_on_c, 1, 77, 127
1, 146101, Note_off_c, 1, 72, 0
1, 146101, Note_off_c, 1, 57, 0
1, 146105, Note_on_c, 1, 75, 127
1, 146105, Note_on_c, 1, 60, 127
1, 146270, Note_off_c, 1, 77, 0
1, 146270, Note_off_c, 1, 75, 0
1, 146270, Note_off_c, 1, 60, 0
1, 146274, Note_on_c, 1, 58, 127
1, 146274, Note_on_c, 1, 74, 127
1, 146274, Note_on_c, 1, 77, 127
1, 146439, Note_off_c, 1, 58, 0
1, 146443, Note_on_c, 1, 53, 127
1, 146608, Note_off_c, 1, 74, 0
1, 146608, Note_off_c, 1, 53, 0
1, 146612, Note_on_c, 1, 50, 127
1, 146777, Note_off_c, 1, 50, 0
1, 146781, Note_on_c, 1, 55, 127
1, 146781, Note_on_c, 1, 51, 127
1, 146946, Note_off_c, 1, 55, 0
1, 146946, Note_off_c, 1, 51, 0
1, 146950, Note_on_c, 1, 57, 127
1, 147115, Note_off_c, 1, 57, 0
1, 147284, Note_off_c, 1, 77, 0
1, 147288, Note_on_c, 1, 69, 127
1, 147288, Note_on_c, 1, 60, 127
1, 147288, Note_on_c, 1, 53, 127
1, 147453, Note_off_c, 1, 69, 0
1, 147453, Note_off_c, 1, 60, 0
1, 147457, Note_on_c, 1, 70, 127
1, 147457, Note_on_c, 1, 62, 127
1, 147622, Note_off_c, 1, 53, 0
1, 147622, Note_off_c, 1, 70, 0
1, 147622, Note_off_c, 1, 62, 0
1, 147626, Note_on_c, 1, 72, 127
1, 147626, Note_on_c, 1, 63, 127
1, 147626, Note_on_c, 1, 53, 127
1, 147791, Note_off_c, 1, 72, 0
1, 147791, Note_off_c, 1, 63, 0
1, 147795, Note_on_c, 1, 70, 127
1, 147795, Note_on_c, 1, 62, 127
1, 147960, Note_off_c, 1, 53, 0
1, 147960, Note_off_c, 1, 70, 0
1, 147960, Note_off_c, 1, 62, 0
1, 147964, Note_on_c, 1, 69, 127
1, 147964, Note_on_c, 1, 60, 127
1, 147964, Note_on_c, 1, 53, 127
1, 148129, Note_off_c, 1, 69, 0
1, 148129, Note_off_c, 1, 60, 0
1, 148133, Note_on_c, 1, 72, 127
1, 148133, Note_on_c, 1, 63, 127
1, 148298, Note_off_c, 1, 53, 0
1, 148298, Note_off_c, 1, 72, 0
1, 148298, Note_off_c, 1, 63, 0
1, 148302, Note_on_c, 1, 62, 127
1, 148302, Note_on_c, 1, 53, 127
1, 148302, Note_on_c, 1, 70, 127
1, 148467, Note_off_c, 1, 62, 0
1, 148467, Note_off_c, 1, 53, 0
1, 148471, Note_on_c, 1, 60, 127
1, 148471, Note_on_c, 1, 51, 127
1, 148636, Note_off_c, 1, 60, 0
1, 148636, Note_off_c, 1, 51, 0
1, 148640, Note_on_c, 1, 58, 127
1, 148640, Note_on_c, 1, 50, 127
1, 148805, Note_off_c, 1, 58, 0
1, 148805, Note_off_c, 1, 50, 0
1, 148970, Note_off_c, 1, 70, 0
1, 148978, Note_on_c, 1, 57, 127
1, 148978, Note_on_c, 1, 53, 127
1, 149143, Note_off_c, 1, 57, 0
1, 149147, Note_on_c, 1, 58, 127
1, 149312, Note_off_c, 1, 53, 0
1, 149312, Note_off_c, 1, 58, 0
1, 149316, Note_on_c, 1, 69, 127
1, 149316, Note_on_c, 1, 60, 127
1, 149316, Note_on_c, 1, 53, 127
1, 149481, Note_off_c, 1, 69, 0
1, 149481, Note_off_c, 1, 60, 0
1, 149485, Note_on_c, 1, 70, 127
1, 149485, Note_on_c, 1, 62, 127
1, 149650, Note_off_c, 1, 53, 0
1, 149650, Note_off_c, 1, 70, 0
1, 149650, Note_off_c, 1, 62, 0
1, 149654, Note_on_c, 1, 72, 127
1, 149654, Note_on_c, 1, 63, 127
1, 149654, Note_on_c, 1, 53, 127
1, 149819, Note_off_c, 1, 72, 0
1, 149819, Note_off_c, 1, 63, 0
1, 149823, Note_on_c, 1, 70, 127
1, 149823, Note_on_c, 1, 62, 127
1, 149988, Note_off_c, 1, 53, 0
1, 149988, Note_off_c, 1, 70, 0
1, 149988, Note_off_c, 1, 62, 0
1, 149992, Note_on_c, 1, 69, 127
1, 149992, Note_on_c, 1, 60, 127
1, 149992, Note_on_c, 1, 53, 127
1, 150157, Note_off_c, 1, 69, 0
1, 150157, Note_off_c, 1, 60, 0
1, 150160, Note_on_c, 1, 72, 127
1, 150160, Note_on_c, 1, 63, 127
1, 150325, Note_off_c, 1, 72, 0
1, 150325, Note_off_c, 1, 63, 0
1, 150326, Note_off_c, 1, 53, 0
1, 150329, Note_on_c, 1, 53, 127
1, 150329, Note_on_c, 1, 70, 127
1, 150329, Note_on_c, 1, 62, 127
1, 150494, Note_off_c, 1, 53, 0
1, 150498, Note_on_c, 1, 51, 127
1, 150663, Note_off_c, 1, 70, 0
1, 150663, Note_off_c, 1, 62, 0
1, 150663, Note_off_c, 1, 51, 0
1, 150667, Note_on_c, 1, 50, 127
1, 150667, Note_on_c, 1, 79, 127
1, 150667, Note_on_c, 1, 70, 127
1, 150832, Note_off_c, 1, 50, 0
1, 150836, Note_on_c, 1, 51, 127
1, 151001, Note_off_c, 1, 79, 0
1, 151001, Note_off_c, 1, 70, 0
1, 151001, Note_off_c, 1, 51, 0
1, 151005, Note_on_c, 1, 53, 127
1, 151005, Note_on_c, 1, 74, 127
1, 151005, Note_on_c, 1, 70, 127
1, 151339, Note_off_c, 1, 53, 0
1, 151343, Note_on_c, 1, 51, 127
1, 151423, Note_off_c, 1, 74, 0
1, 151428, Note_on_c, 1, 72, 127
1, 151497, Note_off_c, 1, 70, 0
1, 151508, Note_off_c, 1, 72, 0
1, 151677, Note_off_c, 1, 51, 0
1, 151681, Note_on_c, 1, 74, 127
1, 151681, Note_on_c, 1, 69, 127
1, 151681, Note_on_c, 1, 53, 127
1, 151832, Note_off_c, 1, 74, 0
1, 151836, Note_on_c, 1, 72, 127
1, 151916, Note_off_c, 1, 72, 0
1, 152104, Note_on_c, 1, 41, 127
1, 152104, Note_on_c, 1, 63, 127
1, 152265, Note_off_c, 1, 69, 0
1, 152278, Note_on_c, 1, 70, 127
1, 152509, Note_off_c, 1, 53, 0
1, 152538, Note_off_c, 1, 70, 0
1, 152542, Note_off_c, 1, 41, 0
1, 152561, Note_off_c, 1, 63, 0
1, 152568, Note_on_c, 1, 46, 127
1, 152568, Note_on_c, 1, 53, 127
1, 152568, Note_on_c, 1, 62, 127
1, 152568, Note_on_c, 1, 70, 127
1, 155384, Note_off_c, 1, 46, 0
1, 155384, Note_off_c, 1, 53, 0
1, 155384, Note_off_c, 1, 62, 0
1, 155384, Note_off_c, 1, 70, 0
1, 155384, End_track
0, 0, End_of_file