0, 0, Header, 1, 1, 480
1, 0, Start_track
1, 0, Title_t, "Test"
1, 0, Tempo, 500000
1, 0, Instrument_name_t, "Church Organ"
1, 0, Note_on_c, 1, 81, 127
1, 48, Note_off_c, 1, 81, 0
1, 60, Note_on_c, 1, 81, 127
1, 120, Note_on_c, 1, 57, 127
1, 180, Note_on_c, 1, 61, 127
1, 240, Note_on_c, 1, 64, 127
1, 252, Note_off_c, 1, 81, 0
1, 300, Note_on_c, 1, 69, 127
1, 360, Note_on_c, 1, 73, 127
1, 408, Note_off_c, 1, 73, 0
1, 420, Note_on_c, 1, 76, 127
1, 468, Note_off_c, 1, 76, 0
1, 492, Note_off_c, 1, 61, 0
1, 492, Note_off_c, 1, 64, 0
1, 492, Note_off_c, 1, 69, 0
1, 540, Note_on_c, 1, 71, 127
1, 540, Note_on_c, 1, 62, 127
1, 660, Note_on_c, 1, 80, 127
1, 708, Note_off_c, 1, 80, 0
1, 720, Note_on_c, 1, 78, 127
1, 768, Note_off_c, 1, 78, 0
1, 840, Note_on_c, 1, 83, 127
1, 888, Note_off_c, 1, 83, 0
1, 924, Note_off_c, 1, 71, 0
1, 924, Note_off_c, 1, 62, 0
1, 1020, Note_on_c, 1, 79, 127
1, 1260, Note_on_c, 1, 66, 127
1, 1308, Note_off_c, 1, 79, 0
1, 1380, Note_on_c, 1, 74, 127
1, 1404, Note_off_c, 1, 66, 0
1, 1440, Note_on_c, 1, 68, 127
1, 1488, Note_off_c, 1, 68, 0
1, 1548, Note_off_c, 1, 74, 0
1, 1980, Note_on_c, 1, 67, 127
1, 2028, Note_off_c, 1, 67, 0
1, 2124, Note_off_c, 1, 57, 0
1, 2340, Note_on_c, 1, 65, 127
1, 2436, Note_off_c, 1, 65, 0
1, 2820, Note_on_c, 1, 54, 127
1, 2868, Note_off_c, 1, 54, 0
1, 2880, Note_on_c, 1, 56, 127
1, 2928, Note_off_c, 1, 56, 0
1, 2940, Note_on_c, 1, 71, 127
1, 2940, Note_on_c, 1, 66, 127
1, 2940, Note_on_c, 1, 57, 127
1, 2940, Note_on_c, 1, 63, 127
1, 2988, Note_off_c, 1, 57, 0
1, 3000, Note_on_c, 1, 54, 127
1, 3048, Note_off_c, 1, 54, 0
1, 3060, Note_on_c, 1, 51, 127
1, 3108, Note_off_c, 1, 51, 0
1, 3120, Note_on_c, 1, 47, 127
1, 3132, Note_off_c, 1, 71, 0
1, 3132, Note_off_c, 1, 66, 0
1, 3132, Note_off_c, 1, 63, 0
1, 3168, Note_off_c, 1, 47, 0
1, 3180, Note_on_c, 1, 71, 127
1, 3180, Note_on_c, 1, 56, 127
1, 3240, Note_on_c, 1, 59, 127
1, 3300, Note_on_c, 1, 64, 127
1, 3324, Note_off_c, 1, 71, 0
1, 3336, Note_off_c, 1, 59, 0
1, 3360, Note_on_c, 1, 73, 127
1, 3372, Note_off_c, 1, 56, 0
1, 3408, Note_off_c, 1, 73, 0
1, 3420, Note_on_c, 1, 69, 127
1, 3420, Note_on_c, 1, 61, 127
1, 3420, Note_on_c, 1, 54, 127
1, 3468, Note_off_c, 1, 69, 0
1, 3540, Note_on_c, 1, 66, 127
1, 3588, Note_off_c, 1, 66, 0
1, 3600, Note_on_c, 1, 68, 127
1, 3648, Note_off_c, 1, 68, 0
1, 3708, Note_off_c, 1, 64, 0
1, 3756, Note_off_c, 1, 61, 0
1, 3780, Note_on_c, 1, 63, 127
1, 3804, Note_off_c, 1, 54, 0
1, 3840, Note_on_c, 1, 57, 127
1, 3876, Note_off_c, 1, 63, 0
1, 3888, Note_off_c, 1, 57, 0
1, 3900, Note_on_c, 1, 69, 127
1, 3900, Note_on_c, 1, 64, 127
1, 3900, Note_on_c, 1, 59, 127
1, 3900, Note_on_c, 1, 52, 127
1, 3948, Note_off_c, 1, 69, 0
1, 4020, Note_on_c, 1, 68, 127
1, 4068, Note_off_c, 1, 68, 0
1, 4080, Note_on_c, 1, 66, 127
1, 4092, Note_off_c, 1, 64, 0
1, 4092, Note_off_c, 1, 59, 0
1, 4128, Note_off_c, 1, 66, 0
1, 4170, Note_on_c, 1, 63, 127
1, 4188, Note_off_c, 1, 52, 0
1, 4194, Note_off_c, 1, 63, 0
1, 4200, Note_on_c, 1, 54, 127
1, 4248, Note_off_c, 1, 54, 0
1, 4260, Note_on_c, 1, 47, 127
1, 4308, Note_off_c, 1, 47, 0
1, 4320, Note_on_c, 1, 49, 127
1, 4368, Note_off_c, 1, 49, 0
1, 4380, Note_on_c, 1, 50, 127
1, 4500, Note_on_c, 1, 44, 127
1, 4560, Note_on_c, 1, 40, 127
1, 4608, Note_off_c, 1, 50, 0
1, 4608, Note_off_c, 1, 44, 0
1, 4608, Note_off_c, 1, 40, 0
1, 4620, Note_on_c, 1, 69, 127
1, 4620, Note_on_c, 1, 64, 127
1, 4620, Note_on_c, 1, 49, 127
1, 4668, Note_off_c, 1, 69, 0
1, 4680, Note_on_c, 1, 71, 127
1, 4680, Note_on_c, 1, 57, 127
1, 4716, Note_off_c, 1, 49, 0
1, 4728, Note_off_c, 1, 71, 0
1, 4740, Note_on_c, 1, 73, 127
1, 4740, Note_on_c, 1, 47, 127
1, 4755, Note_off_c, 1, 73, 0
1, 4800, Note_off_c, 1, 57, 0
1, 4800, Note_on_c, 1, 56, 127
1, 4836, Note_off_c, 1, 47, 0
1, 4860, Note_off_c, 1, 56, 0
1, 4860, Note_on_c, 1, 45, 127
1, 5040, Note_on_c, 1, 68, 127
1, 5040, Note_on_c, 1, 52, 127
1, 5052, Note_off_c, 1, 45, 0
1, 5088, Note_off_c, 1, 68, 0
1, 5088, Note_off_c, 1, 52, 0
1, 5160, Note_on_c, 1, 59, 127
1, 5208, Note_off_c, 1, 59, 0
1, 5280, Note_on_c, 1, 54, 127
1, 5328, Note_off_c, 1, 54, 0
1, 5340, Note_on_c, 1, 55, 127
1, 5484, Note_off_c, 1, 64, 0
1, 5568, Note_off_c, 1, 55, 0
1, 5580, Note_on_c, 1, 74, 127
1, 5580, Note_on_c, 1, 69, 127
1, 5580, Note_on_c, 1, 54, 127
1, 5628, Note_off_c, 1, 74, 0
1, 5640, Note_on_c, 1, 73, 127
1, 5640, Note_on_c, 1, 62, 127
1, 5664, Note_off_c, 1, 73, 0
1, 5676, Note_off_c, 1, 54, 0
1, 5700, Note_on_c, 1, 76, 127
1, 5700, Note_on_c, 1, 52, 127
1, 5736, Note_off_c, 1, 62, 0
1, 5748, Note_off_c, 1, 76, 0
1, 5760, Note_on_c, 1, 61, 127
1, 5772, Note_off_c, 1, 69, 0
1, 5796, Note_off_c, 1, 52, 0
1, 5808, Note_off_c, 1, 61, 0
1, 5820, Note_on_c, 1, 78, 127
1, 5820, Note_on_c, 1, 69, 127
1, 5820, Note_on_c, 1, 50, 127
1, 5880, Note_on_c, 1, 76, 127
1, 5940, Note_off_c, 1, 76, 0
1, 5940, Note_on_c, 1, 74, 127
1, 6000, Note_off_c, 1, 74, 0
1, 6000, Note_on_c, 1, 73, 127
1, 6000, Note_on_c, 1, 57, 127
1, 6012, Note_off_c, 1, 50, 0
1, 6048, Note_off_c, 1, 57, 0
1, 6060, Note_off_c, 1, 73, 0
1, 6060, Note_on_c, 1, 62, 127
1, 6108, Note_off_c, 1, 62, 0
1, 6120, Note_on_c, 1, 66, 127
1, 6168, Note_off_c, 1, 66, 0
1, 6180, Note_on_c, 1, 59, 127
1, 6204, Note_off_c, 1, 78, 0
1, 6204, Note_off_c, 1, 69, 0
1, 6228, Note_off_c, 1, 59, 0
1, 6240, Note_on_c, 1, 61, 127
1, 6288, Note_off_c, 1, 61, 0
1, 6300, Note_on_c, 1, 80, 127
1, 6300, Note_on_c, 1, 76, 127
1, 6300, Note_on_c, 1, 62, 127
1, 6348, Note_off_c, 1, 80, 0
1, 6360, Note_on_c, 1, 81, 127
1, 6360, Note_on_c, 1, 59, 127
1, 6408, Note_off_c, 1, 81, 0
1, 6420, Note_on_c, 1, 56, 127
1, 6480, Note_on_c, 1, 52, 127
1, 6492, Note_off_c, 1, 62, 0
1, 6528, Note_off_c, 1, 59, 0
1, 6528, Note_off_c, 1, 56, 0
1, 6528, Note_off_c, 1, 52, 0
1, 6540, Note_on_c, 1, 83, 127
1, 6540, Note_on_c, 1, 61, 127
1, 6555, Note_off_c, 1, 83, 0
1, 6600, Note_on_c, 1, 64, 127
1, 6636, Note_off_c, 1, 61, 0
1, 6684, Note_off_c, 1, 76, 0
1, 6720, Note_on_c, 1, 57, 127
1, 6768, Note_off_c, 1, 57, 0
1, 6780, Note_on_c, 1, 55, 127
1, 6960, Note_on_c, 1, 78, 127
1, 7008, Note_off_c, 1, 78, 0
1, 7080, Note_on_c, 1, 74, 127
1, 7128, Note_off_c, 1, 74, 0
1, 7140, Note_on_c, 1, 73, 127
1, 7164, Note_off_c, 1, 55, 0
1, 7188, Note_off_c, 1, 73, 0
1, 7200, Note_on_c, 1, 71, 127
1, 7248, Note_off_c, 1, 71, 0
1, 7452, Note_off_c, 1, 64, 0
1, 7500, Note_on_c, 1, 71, 127
1, 7500, Note_on_c, 1, 64, 127
1, 7560, Note_on_c, 1, 74, 127
1, 7620, Note_on_c, 1, 81, 127
1, 7620, Note_on_c, 1, 52, 127
1, 7668, Note_off_c, 1, 81, 0
1, 7680, Note_on_c, 1, 80, 127
1, 7692, Note_off_c, 1, 71, 0
1, 7692, Note_off_c, 1, 64, 0
1, 7716, Note_off_c, 1, 52, 0
1, 7728, Note_off_c, 1, 74, 0
1, 7740, Note_on_c, 1, 57, 127
1, 7788, Note_off_c, 1, 80, 0
1, 7860, Note_on_c, 1, 66, 127
1, 7860, Note_on_c, 1, 78, 127
1, 7908, Note_off_c, 1, 66, 0
1, 7908, Note_off_c, 1, 78, 0
1, 7920, Note_on_c, 1, 76, 127
1, 7920, Note_on_c, 1, 68, 127
1, 7968, Note_off_c, 1, 76, 0
1, 7968, Note_off_c, 1, 68, 0
1, 7980, Note_on_c, 1, 69, 127
1, 8028, Note_off_c, 1, 57, 0
1, 8100, Note_on_c, 1, 73, 127
1, 8124, Note_off_c, 1, 69, 0
1, 8148, Note_off_c, 1, 73, 0
1, 8160, Note_on_c, 1, 75, 127
1, 8208, Note_off_c, 1, 75, 0
1, 8220, Note_on_c, 1, 76, 127
1, 8220, Note_on_c, 1, 58, 127
1, 8280, Note_on_c, 1, 73, 127
1, 8340, Note_on_c, 1, 70, 127
1, 8400, Note_on_c, 1, 66, 127
1, 8445, Note_off_c, 1, 76, 0
1, 8448, Note_off_c, 1, 73, 0
1, 8448, Note_off_c, 1, 70, 0
1, 8490, Note_on_c, 1, 75, 127
1, 8508, Note_off_c, 1, 58, 0
1, 8514, Note_off_c, 1, 75, 0
1, 8520, Note_on_c, 1, 54, 127
1, 8568, Note_off_c, 1, 54, 0
1, 8580, Note_on_c, 1, 56, 127
1, 8628, Note_off_c, 1, 56, 0
1, 8640, Note_on_c, 1, 78, 127
1, 8700, Note_off_c, 1, 78, 0
1, 8700, Note_on_c, 1, 59, 127
1, 8820, Note_on_c, 1, 71, 127
1, 8868, Note_off_c, 1, 71, 0
1, 8988, Note_off_c, 1, 59, 0
1, 9000, Note_on_c, 1, 61, 127
1, 9048, Note_off_c, 1, 61, 0
1, 9084, Note_off_c, 1, 66, 0
1, 9180, Note_on_c, 1, 57, 127
1, 9228, Note_off_c, 1, 57, 0
1, 9300, Note_on_c, 1, 51, 127
1, 9360, Note_on_c, 1, 47, 127
1, 9408, Note_off_c, 1, 51, 0
1, 9408, Note_off_c, 1, 47, 0
1, 9420, Note_on_c, 1, 74, 127
1, 9420, Note_on_c, 1, 71, 127
1, 9420, Note_on_c, 1, 56, 127
1, 9449, Note_off_c, 1, 74, 0
1, 9450, Note_on_c, 1, 73, 127
1, 9474, Note_off_c, 1, 73, 0
1, 9480, Note_on_c, 1, 59, 127
1, 9528, Note_off_c, 1, 59, 0
1, 9540, Note_on_c, 1, 64, 127
1, 9600, Note_on_c, 1, 76, 127
1, 9612, Note_off_c, 1, 71, 0
1, 9612, Note_off_c, 1, 56, 0
1, 9648, Note_off_c, 1, 76, 0
1, 9660, Note_on_c, 1, 57, 127
1, 9756, Note_off_c, 1, 57, 0
1, 9780, Note_on_c, 1, 69, 127
1, 9828, Note_off_c, 1, 69, 0
1, 9840, Note_on_c, 1, 68, 127
1, 9852, Note_off_c, 1, 64, 0
1, 9888, Note_off_c, 1, 68, 0
1, 9900, Note_on_c, 1, 69, 127
1, 9900, Note_on_c, 1, 54, 127
1, 9948, Note_off_c, 1, 69, 0
1, 9960, Note_on_c, 1, 73, 127
1, 9996, Note_off_c, 1, 54, 0
1, 10008, Note_off_c, 1, 73, 0
1, 10020, Note_on_c, 1, 66, 127
1, 10020, Note_on_c, 1, 52, 127
1, 10068, Note_off_c, 1, 66, 0
1, 10080, Note_on_c, 1, 68, 127
1, 10116, Note_off_c, 1, 52, 0
1, 10128, Note_off_c, 1, 68, 0
1, 10140, Note_on_c, 1, 69, 127
1, 10140, Note_on_c, 1, 51, 127
1, 10200, Note_on_c, 1, 66, 127
1, 10236, Note_off_c, 1, 51, 0
1, 10260, Note_on_c, 1, 63, 127
1, 10260, Note_on_c, 1, 47, 127
1, 10320, Note_on_c, 1, 59, 127
1, 10356, Note_off_c, 1, 47, 0
1, 10368, Note_off_c, 1, 69, 0
1, 10368, Note_off_c, 1, 66, 0
1, 10368, Note_off_c, 1, 63, 0
1, 10368, Note_off_c, 1, 59, 0
1, 10380, Note_on_c, 1, 68, 127
1, 10380, Note_on_c, 1, 52, 127
1, 10440, Note_on_c, 1, 59, 127
1, 10488, Note_off_c, 1, 59, 0
1, 10500, Note_on_c, 1, 64, 127
1, 10500, Note_on_c, 1, 40, 127
1, 10524, Note_off_c, 1, 68, 0
1, 10596, Note_off_c, 1, 64, 0
1, 10596, Note_off_c, 1, 40, 0
1, 10620, Note_on_c, 1, 45, 127
1, 10668, Note_off_c, 1, 52, 0
1, 10740, Note_on_c, 1, 66, 127
1, 10740, Note_on_c, 1, 54, 127
1, 10788, Note_off_c, 1, 66, 0
1, 10788, Note_off_c, 1, 54, 0
1, 10800, Note_on_c, 1, 56, 127
1, 10848, Note_off_c, 1, 56, 0
1, 10860, Note_on_c, 1, 57, 127
1, 10920, Note_on_c, 1, 69, 127
1, 10956, Note_off_c, 1, 45, 0
1, 10968, Note_off_c, 1, 69, 0
1, 10980, Note_on_c, 1, 61, 127
1, 11004, Note_off_c, 1, 57, 0
1, 11028, Note_off_c, 1, 61, 0
1, 11040, Note_on_c, 1, 63, 127
1, 11088, Note_off_c, 1, 63, 0
1, 11100, Note_on_c, 1, 64, 127
1, 11100, Note_on_c, 1, 46, 127
1, 11160, Note_on_c, 1, 61, 127
1, 11220, Note_on_c, 1, 58, 127
1, 11280, Note_on_c, 1, 54, 127
1, 11328, Note_off_c, 1, 64, 0
1, 11328, Note_off_c, 1, 61, 0
1, 11370, Note_on_c, 1, 63, 127
1, 11388, Note_off_c, 1, 46, 0
1, 11394, Note_off_c, 1, 63, 0
1, 11400, Note_on_c, 1, 42, 127
1, 11448, Note_off_c, 1, 42, 0
1, 11460, Note_on_c, 1, 44, 127
1, 11508, Note_off_c, 1, 44, 0
1, 11520, Note_on_c, 1, 66, 127
1, 11532, Note_off_c, 1, 58, 0
1, 11532, Note_off_c, 1, 54, 0
1, 11568, Note_off_c, 1, 66, 0
1, 11580, Note_on_c, 1, 63, 127
1, 11580, Note_on_c, 1, 35, 127
1, 11628, Note_off_c, 1, 35, 0
1, 11640, Note_on_c, 1, 47, 127
1, 11700, Note_on_c, 1, 51, 127
1, 11760, Note_on_c, 1, 54, 127
1, 11772, Note_off_c, 1, 63, 0
1, 11820, Note_on_c, 1, 59, 127
1, 11940, Note_on_c, 1, 66, 127
1, 11988, Note_off_c, 1, 66, 0
1, 12000, Note_on_c, 1, 71, 127
1, 12012, Note_off_c, 1, 51, 0
1, 12012, Note_off_c, 1, 54, 0
1, 12012, Note_off_c, 1, 59, 0
1, 12060, Note_on_c, 1, 61, 127
1, 12060, Note_on_c, 1, 52, 127
1, 12108, Note_off_c, 1, 71, 0
1, 12180, Note_on_c, 1, 70, 127
1, 12228, Note_off_c, 1, 70, 0
1, 12240, Note_on_c, 1, 68, 127
1, 12288, Note_off_c, 1, 68, 0
1, 12360, Note_on_c, 1, 73, 127
1, 12408, Note_off_c, 1, 73, 0
1, 12444, Note_off_c, 1, 61, 0
1, 12444, Note_off_c, 1, 52, 0
1, 12540, Note_on_c, 1, 69, 127
1, 12780, Note_on_c, 1, 56, 127
1, 12876, Note_off_c, 1, 69, 0
1, 12900, Note_on_c, 1, 64, 127
1, 12924, Note_off_c, 1, 56, 0
1, 12960, Note_on_c, 1, 58, 127
1, 12996, Note_off_c, 1, 64, 0
1, 13008, Note_off_c, 1, 58, 0
1, 13404, Note_off_c, 1, 47, 0
1, 13500, Note_on_c, 1, 57, 127
1, 13692, Note_off_c, 1, 57, 0
1, 13860, Note_on_c, 1, 55, 127
1, 13956, Note_off_c, 1, 55, 0
1, 14640, Note_on_c, 1, 62, 127
1, 14688, Note_off_c, 1, 62, 0
1, 14880, Note_on_c, 1, 60, 127
1, 14928, Note_off_c, 1, 60, 0
1, 14940, Note_on_c, 1, 59, 127
1, 14940, Note_on_c, 1, 64, 127
1, 14940, Note_on_c, 1, 56, 127
1, 14940, Note_on_c, 1, 52, 127
1, 15000, Note_on_c, 1, 40, 127
1, 15060, Note_on_c, 1, 44, 127
1, 15120, Note_on_c, 1, 47, 127
1, 15132, Note_off_c, 1, 52, 0
1, 15168, Note_off_c, 1, 44, 0
1, 15228, Note_off_c, 1, 59, 0
1, 15228, Note_off_c, 1, 64, 0
1, 15228, Note_off_c, 1, 56, 0
1, 15324, Note_off_c, 1, 40, 0
1, 15324, Note_off_c, 1, 47, 0
1, 15360, Note_on_c, 1, 81, 127
1, 15408, Note_off_c, 1, 81, 0
1, 15420, Note_on_c, 1, 81, 127
1, 15480, Note_on_c, 1, 57, 127
1, 15540, Note_on_c, 1, 61, 127
1, 15600, Note_on_c, 1, 64, 127
1, 15612, Note_off_c, 1, 81, 0
1, 15660, Note_on_c, 1, 69, 127
1, 15720, Note_on_c, 1, 73, 127
1, 15768, Note_off_c, 1, 73, 0
1, 15780, Note_on_c, 1, 76, 127
1, 15828, Note_off_c, 1, 76, 0
1, 15852, Note_off_c, 1, 61, 0
1, 15852, Note_off_c, 1, 64, 0
1, 15852, Note_off_c, 1, 69, 0
1, 15900, Note_on_c, 1, 71, 127
1, 15900, Note_on_c, 1, 62, 127
1, 16020, Note_on_c, 1, 80, 127
1, 16068, Note_off_c, 1, 80, 0
1, 16080, Note_on_c, 1, 78, 127
1, 16128, Note_off_c, 1, 78, 0
1, 16200, Note_on_c, 1, 83, 127
1, 16248, Note_off_c, 1, 83, 0
1, 16284, Note_off_c, 1, 71, 0
1, 16284, Note_off_c, 1, 62, 0
1, 16380, Note_on_c, 1, 79, 127
1, 16620, Note_on_c, 1, 66, 127
1, 16668, Note_off_c, 1, 79, 0
1, 16740, Note_on_c, 1, 74, 127
1, 16764, Note_off_c, 1, 66, 0
1, 16800, Note_on_c, 1, 68, 127
1, 16848, Note_off_c, 1, 68, 0
1, 16908, Note_off_c, 1, 74, 0
1, 17340, Note_on_c, 1, 67, 127
1, 17388, Note_off_c, 1, 67, 0
1, 17484, Note_off_c, 1, 57, 0
1, 17700, Note_on_c, 1, 65, 127
1, 17796, Note_off_c, 1, 65, 0
1, 18180, Note_on_c, 1, 54, 127
1, 18228, Note_off_c, 1, 54, 0
1, 18240, Note_on_c, 1, 56, 127
1, 18288, Note_off_c, 1, 56, 0
1, 18300, Note_on_c, 1, 71, 127
1, 18300, Note_on_c, 1, 66, 127
1, 18300, Note_on_c, 1, 57, 127
1, 18300, Note_on_c, 1, 63, 127
1, 18348, Note_off_c, 1, 57, 0
1, 18360, Note_on_c, 1, 54, 127
1, 18408, Note_off_c, 1, 54, 0
1, 18420, Note_on_c, 1, 51, 127
1, 18468, Note_off_c, 1, 51, 0
1, 18480, Note_on_c, 1, 47, 127
1, 18492, Note_off_c, 1, 71, 0
1, 18492, Note_off_c, 1, 66, 0
1, 18492, Note_off_c, 1, 63, 0
1, 18528, Note_off_c, 1, 47, 0
1, 18540, Note_on_c, 1, 71, 127
1, 18540, Note_on_c, 1, 56, 127
1, 18600, Note_on_c, 1, 59, 127
1, 18660, Note_on_c, 1, 64, 127
1, 18684, Note_off_c, 1, 71, 0
1, 18696, Note_off_c, 1, 59, 0
1, 18720, Note_on_c, 1, 73, 127
1, 18732, Note_off_c, 1, 56, 0
1, 18768, Note_off_c, 1, 73, 0
1, 18780, Note_on_c, 1, 69, 127
1, 18780, Note_on_c, 1, 61, 127
1, 18780, Note_on_c, 1, 54, 127
1, 18828, Note_off_c, 1, 69, 0
1, 18900, Note_on_c, 1, 66, 127
1, 18948, Note_off_c, 1, 66, 0
1, 18960, Note_on_c, 1, 68, 127
1, 19008, Note_off_c, 1, 68, 0
1, 19068, Note_off_c, 1, 64, 0
1, 19116, Note_off_c, 1, 61, 0
1, 19140, Note_on_c, 1, 63, 127
1, 19164, Note_off_c, 1, 54, 0
1, 19200, Note_on_c, 1, 57, 127
1, 19236, Note_off_c, 1, 63, 0
1, 19248, Note_off_c, 1, 57, 0
1, 19260, Note_on_c, 1, 69, 127
1, 19260, Note_on_c, 1, 64, 127
1, 19260, Note_on_c, 1, 59, 127
1, 19260, Note_on_c, 1, 52, 127
1, 19308, Note_off_c, 1, 69, 0
1, 19380, Note_on_c, 1, 68, 127
1, 19428, Note_off_c, 1, 68, 0
1, 19440, Note_on_c, 1, 66, 127
1, 19452, Note_off_c, 1, 64, 0
1, 19452, Note_off_c, 1, 59, 0
1, 19488, Note_off_c, 1, 66, 0
1, 19530, Note_on_c, 1, 63, 127
1, 19548, Note_off_c, 1, 52, 0
1, 19554, Note_off_c, 1, 63, 0
1, 19560, Note_on_c, 1, 54, 127
1, 19608, Note_off_c, 1, 54, 0
1, 19620, Note_on_c, 1, 47, 127
1, 19668, Note_off_c, 1, 47, 0
1, 19680, Note_on_c, 1, 49, 127
1, 19728, Note_off_c, 1, 49, 0
1, 19740, Note_on_c, 1, 50, 127
1, 19860, Note_on_c, 1, 44, 127
1, 19920, Note_on_c, 1, 40, 127
1, 19968, Note_off_c, 1, 50, 0
1, 19968, Note_off_c, 1, 44, 0
1, 19968, Note_off_c, 1, 40, 0
1, 19980, Note_on_c, 1, 69, 127
1, 19980, Note_on_c, 1, 64, 127
1, 19980, Note_on_c, 1, 49, 127
1, 20028, Note_off_c, 1, 69, 0
1, 20040, Note_on_c, 1, 71, 127
1, 20040, Note_on_c, 1, 57, 127
1, 20076, Note_off_c, 1, 49, 0
1, 20088, Note_off_c, 1, 71, 0
1, 20100, Note_on_c, 1, 73, 127
1, 20100, Note_on_c, 1, 47, 127
1, 20115, Note_off_c, 1, 73, 0
1, 20160, Note_off_c, 1, 57, 0
1, 20160, Note_on_c, 1, 56, 127
1, 20196, Note_off_c, 1, 47, 0
1, 20220, Note_off_c, 1, 56, 0
1, 20220, Note_on_c, 1, 45, 127
1, 20400, Note_on_c, 1, 68, 127
1, 20400, Note_on_c, 1, 52, 127
1, 20412, Note_off_c, 1, 45, 0
1, 20448, Note_off_c, 1, 68, 0
1, 20448, Note_off_c, 1, 52, 0
1, 20520, Note_on_c, 1, 59, 127
1, 20568, Note_off_c, 1, 59, 0
1, 20640, Note_on_c, 1, 54, 127
1, 20688, Note_off_c, 1, 54, 0
1, 20700, Note_on_c, 1, 55, 127
1, 20844, Note_off_c, 1, 64, 0
1, 20928, Note_off_c, 1, 55, 0
1, 20940, Note_on_c, 1, 74, 127
1, 20940, Note_on_c, 1, 69, 127
1, 20940, Note_on_c, 1, 54, 127
1, 20988, Note_off_c, 1, 74, 0
1, 21000, Note_on_c, 1, 73, 127
1, 21000, Note_on_c, 1, 62, 127
1, 21024, Note_off_c, 1, 73, 0
1, 21036, Note_off_c, 1, 54, 0
1, 21060, Note_on_c, 1, 76, 127
1, 21060, Note_on_c, 1, 52, 127
1, 21096, Note_off_c, 1, 62, 0
1, 21108, Note_off_c, 1, 76, 0
1, 21120, Note_on_c, 1, 61, 127
1, 21132, Note_off_c, 1, 69, 0
1, 21156, Note_off_c, 1, 52, 0
1, 21168, Note_off_c, 1, 61, 0
1, 21180, Note_on_c, 1, 78, 127
1, 21180, Note_on_c, 1, 69, 127
1, 21180, Note_on_c, 1, 50, 127
1, 21240, Note_on_c, 1, 76, 127
1, 21300, Note_off_c, 1, 76, 0
1, 21300, Note_on_c, 1, 74, 127
1, 21360, Note_off_c, 1, 74, 0
1, 21360, Note_on_c, 1, 73, 127
1, 21360, Note_on_c, 1, 57, 127
1, 21372, Note_off_c, 1, 50, 0
1, 21408, Note_off_c, 1, 57, 0
1, 21420, Note_off_c, 1, 73, 0
1, 21420, Note_on_c, 1, 62, 127
1, 21468, Note_off_c, 1, 62, 0
1, 21480, Note_on_c, 1, 66, 127
1, 21528, Note_off_c, 1, 66, 0
1, 21540, Note_on_c, 1, 59, 127
1, 21564, Note_off_c, 1, 78, 0
1, 21564, Note_off_c, 1, 69, 0
1, 21588, Note_off_c, 1, 59, 0
1, 21600, Note_on_c, 1, 61, 127
1, 21648, Note_off_c, 1, 61, 0
1, 21660, Note_on_c, 1, 80, 127
1, 21660, Note_on_c, 1, 76, 127
1, 21660, Note_on_c, 1, 62, 127
1, 21708, Note_off_c, 1, 80, 0
1, 21720, Note_on_c, 1, 81, 127
1, 21720, Note_on_c, 1, 59, 127
1, 21768, Note_off_c, 1, 81, 0
1, 21780, Note_on_c, 1, 56, 127
1, 21840, Note_on_c, 1, 52, 127
1, 21852, Note_off_c, 1, 62, 0
1, 21888, Note_off_c, 1, 59, 0
1, 21888, Note_off_c, 1, 56, 0
1, 21888, Note_off_c, 1, 52, 0
1, 21900, Note_on_c, 1, 83, 127
1, 21900, Note_on_c, 1, 61, 127
1, 21915, Note_off_c, 1, 83, 0
1, 21960, Note_on_c, 1, 64, 127
1, 21996, Note_off_c, 1, 61, 0
1, 22044, Note_off_c, 1, 76, 0
1, 22080, Note_on_c, 1, 57, 127
1, 22128, Note_off_c, 1, 57, 0
1, 22140, Note_on_c, 1, 55, 127
1, 22320, Note_on_c, 1, 78, 127
1, 22368, Note_off_c, 1, 78, 0
1, 22440, Note_on_c, 1, 74, 127
1, 22488, Note_off_c, 1, 74, 0
1, 22500, Note_on_c, 1, 73, 127
1, 22524, Note_off_c, 1, 55, 0
1, 22548, Note_off_c, 1, 73, 0
1, 22560, Note_on_c, 1, 71, 127
1, 22608, Note_off_c, 1, 71, 0
1, 22812, Note_off_c, 1, 64, 0
1, 22860, Note_on_c, 1, 71, 127
1, 22860, Note_on_c, 1, 64, 127
1, 22920, Note_on_c, 1, 74, 127
1, 22980, Note_on_c, 1, 81, 127
1, 22980, Note_on_c, 1, 52, 127
1, 23028, Note_off_c, 1, 81, 0
1, 23040, Note_on_c, 1, 80, 127
1, 23052, Note_off_c, 1, 71, 0
1, 23052, Note_off_c, 1, 64, 0
1, 23076, Note_off_c, 1, 52, 0
1, 23088, Note_off_c, 1, 74, 0
1, 23100, Note_on_c, 1, 57, 127
1, 23148, Note_off_c, 1, 80, 0
1, 23220, Note_on_c, 1, 66, 127
1, 23220, Note_on_c, 1, 78, 127
1, 23268, Note_off_c, 1, 66, 0
1, 23268, Note_off_c, 1, 78, 0
1, 23280, Note_on_c, 1, 76, 127
1, 23280, Note_on_c, 1, 68, 127
1, 23328, Note_off_c, 1, 76, 0
1, 23328, Note_off_c, 1, 68, 0
1, 23340, Note_on_c, 1, 69, 127
1, 23388, Note_off_c, 1, 57, 0
1, 23460, Note_on_c, 1, 73, 127
1, 23484, Note_off_c, 1, 69, 0
1, 23508, Note_off_c, 1, 73, 0
1, 23520, Note_on_c, 1, 75, 127
1, 23568, Note_off_c, 1, 75, 0
1, 23580, Note_on_c, 1, 76, 127
1, 23580, Note_on_c, 1, 58, 127
1, 23640, Note_on_c, 1, 73, 127
1, 23700, Note_on_c, 1, 70, 127
1, 23760, Note_on_c, 1, 66, 127
1, 23805, Note_off_c, 1, 76, 0
1, 23808, Note_off_c, 1, 73, 0
1, 23808, Note_off_c, 1, 70, 0
1, 23850, Note_on_c, 1, 75, 127
1, 23868, Note_off_c, 1, 58, 0
1, 23874, Note_off_c, 1, 75, 0
1, 23880, Note_on_c, 1, 54, 127
1, 23928, Note_off_c, 1, 54, 0
1, 23940, Note_on_c, 1, 56, 127
1, 23988, Note_off_c, 1, 56, 0
1, 24000, Note_on_c, 1, 78, 127
1, 24060, Note_off_c, 1, 78, 0
1, 24060, Note_on_c, 1, 59, 127
1, 24180, Note_on_c, 1, 71, 127
1, 24228, Note_off_c, 1, 71, 0
1, 24348, Note_off_c, 1, 59, 0
1, 24360, Note_on_c, 1, 61, 127
1, 24408, Note_off_c, 1, 61, 0
1, 24444, Note_off_c, 1, 66, 0
1, 24540, Note_on_c, 1, 57, 127
1, 24588, Note_off_c, 1, 57, 0
1, 24660, Note_on_c, 1, 51, 127
1, 24720, Note_on_c, 1, 47, 127
1, 24768, Note_off_c, 1, 51, 0
1, 24768, Note_off_c, 1, 47, 0
1, 24780, Note_on_c, 1, 74, 127
1, 24780, Note_on_c, 1, 71, 127
1, 24780, Note_on_c, 1, 56, 127
1, 24809, Note_off_c, 1, 74, 0
1, 24810, Note_on_c, 1, 73, 127
1, 24834, Note_off_c, 1, 73, 0
1, 24840, Note_on_c, 1, 59, 127
1, 24888, Note_off_c, 1, 59, 0
1, 24900, Note_on_c, 1, 64, 127
1, 24960, Note_on_c, 1, 76, 127
1, 24972, Note_off_c, 1, 71, 0
1, 24972, Note_off_c, 1, 56, 0
1, 25008, Note_off_c, 1, 76, 0
1, 25020, Note_on_c, 1, 57, 127
1, 25116, Note_off_c, 1, 57, 0
1, 25140, Note_on_c, 1, 69, 127
1, 25188, Note_off_c, 1, 69, 0
1, 25200, Note_on_c, 1, 68, 127
1, 25212, Note_off_c, 1, 64, 0
1, 25248, Note_off_c, 1, 68, 0
1, 25260, Note_on_c, 1, 69, 127
1, 25260, Note_on_c, 1, 54, 127
1, 25308, Note_off_c, 1, 69, 0
1, 25320, Note_on_c, 1, 73, 127
1, 25356, Note_off_c, 1, 54, 0
1, 25368, Note_off_c, 1, 73, 0
1, 25380, Note_on_c, 1, 66, 127
1, 25380, Note_on_c, 1, 52, 127
1, 25428, Note_off_c, 1, 66, 0
1, 25440, Note_on_c, 1, 68, 127
1, 25476, Note_off_c, 1, 52, 0
1, 25488, Note_off_c, 1, 68, 0
1, 25500, Note_on_c, 1, 69, 127
1, 25500, Note_on_c, 1, 51, 127
1, 25560, Note_on_c, 1, 66, 127
1, 25596, Note_off_c, 1, 51, 0
1, 25620, Note_on_c, 1, 63, 127
1, 25620, Note_on_c, 1, 47, 127
1, 25680, Note_on_c, 1, 59, 127
1, 25716, Note_off_c, 1, 47, 0
1, 25728, Note_off_c, 1, 69, 0
1, 25728, Note_off_c, 1, 66, 0
1, 25728, Note_off_c, 1, 63, 0
1, 25728, Note_off_c, 1, 59, 0
1, 25740, Note_on_c, 1, 68, 127
1, 25740, Note_on_c, 1, 52, 127
1, 25800, Note_on_c, 1, 59, 127
1, 25848, Note_off_c, 1, 59, 0
1, 25860, Note_on_c, 1, 64, 127
1, 25860, Note_on_c, 1, 40, 127
1, 25884, Note_off_c, 1, 68, 0
1, 25956, Note_off_c, 1, 64, 0
1, 25956, Note_off_c, 1, 40, 0
1, 25980, Note_on_c, 1, 45, 127
1, 26028, Note_off_c, 1, 52, 0
1, 26100, Note_on_c, 1, 66, 127
1, 26100, Note_on_c, 1, 54, 127
1, 26148, Note_off_c, 1, 66, 0
1, 26148, Note_off_c, 1, 54, 0
1, 26160, Note_on_c, 1, 56, 127
1, 26208, Note_off_c, 1, 56, 0
1, 26220, Note_on_c, 1, 57, 127
1, 26280, Note_on_c, 1, 69, 127
1, 26316, Note_off_c, 1, 45, 0
1, 26328, Note_off_c, 1, 69, 0
1, 26340, Note_on_c, 1, 61, 127
1, 26364, Note_off_c, 1, 57, 0
1, 26388, Note_off_c, 1, 61, 0
1, 26400, Note_on_c, 1, 63, 127
1, 26448, Note_off_c, 1, 63, 0
1, 26460, Note_on_c, 1, 64, 127
1, 26460, Note_on_c, 1, 46, 127
1, 26520, Note_on_c, 1, 61, 127
1, 26580, Note_on_c, 1, 58, 127
1, 26640, Note_on_c, 1, 54, 127
1, 26688, Note_off_c, 1, 64, 0
1, 26688, Note_off_c, 1, 61, 0
1, 26730, Note_on_c, 1, 63, 127
1, 26748, Note_off_c, 1, 46, 0
1, 26754, Note_off_c, 1, 63, 0
1, 26760, Note_on_c, 1, 42, 127
1, 26808, Note_off_c, 1, 42, 0
1, 26820, Note_on_c, 1, 44, 127
1, 26868, Note_off_c, 1, 44, 0
1, 26880, Note_on_c, 1, 66, 127
1, 26892, Note_off_c, 1, 58, 0
1, 26892, Note_off_c, 1, 54, 0
1, 26928, Note_off_c, 1, 66, 0
1, 26940, Note_on_c, 1, 63, 127
1, 26940, Note_on_c, 1, 35, 127
1, 26988, Note_off_c, 1, 35, 0
1, 27000, Note_on_c, 1, 47, 127
1, 27060, Note_on_c, 1, 51, 127
1, 27120, Note_on_c, 1, 54, 127
1, 27132, Note_off_c, 1, 63, 0
1, 27180, Note_on_c, 1, 59, 127
1, 27300, Note_on_c, 1, 66, 127
1, 27348, Note_off_c, 1, 66, 0
1, 27360, Note_on_c, 1, 71, 127
1, 27372, Note_off_c, 1, 51, 0
1, 27372, Note_off_c, 1, 54, 0
1, 27372, Note_off_c, 1, 59, 0
1, 27420, Note_on_c, 1, 61, 127
1, 27420, Note_on_c, 1, 52, 127
1, 27468, Note_off_c, 1, 71, 0
1, 27540, Note_on_c, 1, 70, 127
1, 27588, Note_off_c, 1, 70, 0
1, 27600, Note_on_c, 1, 68, 127
1, 27648, Note_off_c, 1, 68, 0
1, 27720, Note_on_c, 1, 73, 127
1, 27768, Note_off_c, 1, 73, 0
1, 27804, Note_off_c, 1, 61, 0
1, 27804, Note_off_c, 1, 52, 0
1, 27900, Note_on_c, 1, 69, 127
1, 28140, Note_on_c, 1, 56, 127
1, 28236, Note_off_c, 1, 69, 0
1, 28260, Note_on_c, 1, 64, 127
1, 28284, Note_off_c, 1, 56, 0
1, 28320, Note_on_c, 1, 58, 127
1, 28356, Note_off_c, 1, 64, 0
1, 28368, Note_off_c, 1, 58, 0
1, 28764, Note_off_c, 1, 47, 0
1, 28860, Note_on_c, 1, 57, 127
1, 29052, Note_off_c, 1, 57, 0
1, 29220, Note_on_c, 1, 55, 127
1, 29316, Note_off_c, 1, 55, 0
1, 30000, Note_on_c, 1, 62, 127
1, 30048, Note_off_c, 1, 62, 0
1, 30240, Note_on_c, 1, 60, 127
1, 30288, Note_off_c, 1, 60, 0
1, 30300, Note_on_c, 1, 59, 127
1, 30300, Note_on_c, 1, 64, 127
1, 30300, Note_on_c, 1, 56, 127
1, 30300, Note_on_c, 1, 52, 127
1, 30360, Note_on_c, 1, 40, 127
1, 30420, Note_on_c, 1, 44, 127
1, 30480, Note_on_c, 1, 47, 127
1, 30492, Note_off_c, 1, 52, 0
1, 30528, Note_off_c, 1, 44, 0
1, 30588, Note_off_c, 1, 59, 0
1, 30588, Note_off_c, 1, 64, 0
1, 30588, Note_off_c, 1, 56, 0
1, 30684, Note_off_c, 1, 40, 0
1, 30684, Note_off_c, 1, 47, 0
1, 30720, Note_on_c, 1, 71, 127
1, 30777, Note_off_c, 1, 71, 0
1, 30780, Note_on_c, 1, 71, 127
1, 30840, Note_on_c, 1, 52, 127
1, 30900, Note_on_c, 1, 56, 127
1, 30960, Note_on_c, 1, 59, 127
1, 30972, Note_off_c, 1, 71, 0
1, 31020, Note_on_c, 1, 64, 127
1, 31080, Note_on_c, 1, 68, 127
1, 31200, Note_on_c, 1, 76, 127
1, 31212, Note_off_c, 1, 56, 0
1, 31212, Note_off_c, 1, 59, 0
1, 31212, Note_off_c, 1, 64, 0
1, 31248, Note_off_c, 1, 68, 0
1, 31248, Note_off_c, 1, 76, 0
1, 31260, Note_on_c, 1, 66, 127
1, 31260, Note_on_c, 1, 70, 127
1, 31260, Note_on_c, 1, 61, 127
1, 31308, Note_off_c, 1, 52, 0
1, 31320, Note_on_c, 1, 55, 127
1, 31368, Note_off_c, 1, 55, 0
1, 31380, Note_on_c, 1, 49, 127
1, 31428, Note_off_c, 1, 49, 0
1, 31500, Note_on_c, 1, 46, 127
1, 31548, Note_off_c, 1, 46, 0
1, 31620, Note_on_c, 1, 42, 127
1, 31668, Note_off_c, 1, 42, 0
1, 31740, Note_on_c, 1, 50, 127
1, 31800, Note_on_c, 1, 54, 127
1, 31860, Note_on_c, 1, 58, 127
1, 31884, Note_off_c, 1, 66, 0
1, 31884, Note_off_c, 1, 70, 0
1, 31884, Note_off_c, 1, 61, 0
1, 31932, Note_off_c, 1, 50, 0
1, 31968, Note_off_c, 1, 54, 0
1, 31968, Note_off_c, 1, 58, 0
1, 31980, Note_on_c, 1, 62, 127
1, 31980, Note_on_c, 1, 50, 127
1, 31980, Note_on_c, 1, 59, 127
1, 32028, Note_off_c, 1, 62, 0
1, 32040, Note_on_c, 1, 66, 127
1, 32076, Note_off_c, 1, 50, 0
1, 32100, Note_on_c, 1, 71, 127
1, 32100, Note_on_c, 1, 54, 127
1, 32160, Note_on_c, 1, 74, 127
1, 32196, Note_off_c, 1, 54, 0
1, 32208, Note_off_c, 1, 66, 0
1, 32208, Note_off_c, 1, 71, 0
1, 32208, Note_off_c, 1, 74, 0
1, 32220, Note_on_c, 1, 76, 127
1, 32220, Note_on_c, 1, 55, 127
1, 32220, Note_on_c, 1, 49, 127
1, 32268, Note_off_c, 1, 76, 0
1, 32280, Note_on_c, 1, 79, 127
1, 32316, Note_off_c, 1, 59, 0
1, 32316, Note_off_c, 1, 55, 0
1, 32328, Note_off_c, 1, 79, 0
1, 32340, Note_on_c, 1, 73, 127
1, 32340, Note_on_c, 1, 52, 127
1, 32388, Note_off_c, 1, 73, 0
1, 32412, Note_off_c, 1, 49, 0
1, 32436, Note_off_c, 1, 52, 0
1, 32460, Note_on_c, 1, 70, 127
1, 32460, Note_on_c, 1, 54, 127
1, 32508, Note_off_c, 1, 70, 0
1, 32520, Note_on_c, 1, 73, 127
1, 32568, Note_off_c, 1, 73, 0
1, 32580, Note_on_c, 1, 66, 127
1, 32580, Note_on_c, 1, 42, 127
1, 32640, Note_on_c, 1, 76, 127
1, 32652, Note_off_c, 1, 54, 0
1, 32676, Note_off_c, 1, 42, 0
1, 32688, Note_off_c, 1, 76, 0
1, 32700, Note_on_c, 1, 47, 127
1, 32748, Note_off_c, 1, 66, 0
1, 32820, Note_on_c, 1, 68, 127
1, 32868, Note_off_c, 1, 68, 0
1, 32940, Note_on_c, 1, 71, 127
1, 32988, Note_off_c, 1, 71, 0
1, 33000, Note_on_c, 1, 74, 127
1, 33060, Note_on_c, 1, 67, 127
1, 33084, Note_off_c, 1, 74, 0
1, 33108, Note_off_c, 1, 67, 0
1, 33180, Note_on_c, 1, 65, 127
1, 33228, Note_off_c, 1, 47, 0
1, 33240, Note_on_c, 1, 50, 127
1, 33288, Note_off_c, 1, 50, 0
1, 33300, Note_on_c, 1, 44, 127
1, 33348, Note_off_c, 1, 44, 0
1, 33420, Note_on_c, 1, 41, 127
1, 33468, Note_off_c, 1, 41, 0
1, 33540, Note_on_c, 1, 37, 127
1, 33564, Note_off_c, 1, 65, 0
1, 33588, Note_off_c, 1, 37, 0
1, 33660, Note_on_c, 1, 69, 127
1, 33660, Note_on_c, 1, 45, 127
1, 33720, Note_on_c, 1, 49, 127
1, 33840, Note_on_c, 1, 57, 127
1, 33852, Note_off_c, 1, 69, 0
1, 33888, Note_off_c, 1, 49, 0
1, 33888, Note_off_c, 1, 57, 0
1, 33900, Note_on_c, 1, 59, 127
1, 33900, Note_on_c, 1, 51, 127
1, 33960, Note_on_c, 1, 63, 127
1, 33996, Note_off_c, 1, 45, 0
1, 33996, Note_off_c, 1, 51, 0
1, 34092, Note_off_c, 1, 59, 0
1, 34128, Note_off_c, 1, 63, 0
1, 34140, Note_on_c, 1, 71, 127
1, 34140, Note_on_c, 1, 65, 127
1, 34140, Note_on_c, 1, 44, 127
1, 34188, Note_off_c, 1, 71, 0
1, 34188, Note_off_c, 1, 44, 0
1, 34200, Note_on_c, 1, 68, 127
1, 34200, Note_on_c, 1, 49, 127
1, 34236, Note_off_c, 1, 65, 0
1, 34248, Note_off_c, 1, 68, 0
1, 34248, Note_off_c, 1, 49, 0
1, 34260, Note_on_c, 1, 73, 127
1, 34260, Note_on_c, 1, 51, 127
1, 34308, Note_off_c, 1, 73, 0
1, 34308, Note_off_c, 1, 51, 0
1, 34320, Note_on_c, 1, 71, 127
1, 34320, Note_on_c, 1, 53, 127
1, 34368, Note_off_c, 1, 71, 0
1, 34368, Note_off_c, 1, 53, 0
1, 34380, Note_on_c, 1, 69, 127
1, 34380, Note_on_c, 1, 54, 127
1, 34428, Note_off_c, 1, 54, 0
1, 34440, Note_on_c, 1, 66, 127
1, 34440, Note_on_c, 1, 53, 127
1, 34476, Note_off_c, 1, 69, 0
1, 34488, Note_off_c, 1, 53, 0
1, 34500, Note_on_c, 1, 74, 127
1, 34536, Note_off_c, 1, 66, 0
1, 34560, Note_on_c, 1, 65, 127
1, 34560, Note_on_c, 1, 56, 127
1, 34596, Note_off_c, 1, 74, 0
1, 34608, Note_off_c, 1, 65, 0
1, 34608, Note_off_c, 1, 56, 0
1, 34620, Note_on_c, 1, 73, 127
1, 34620, Note_on_c, 1, 57, 127
1, 34668, Note_off_c, 1, 57, 0
1, 34680, Note_on_c, 1, 64, 127
1, 34680, Note_on_c, 1, 56, 127
1, 34728, Note_off_c, 1, 64, 0
1, 34728, Note_off_c, 1, 56, 0
1, 34740, Note_on_c, 1, 66, 127
1, 34764, Note_off_c, 1, 73, 0
1, 34800, Note_on_c, 1, 71, 127
1, 34800, Note_on_c, 1, 59, 127
1, 34848, Note_off_c, 1, 71, 0
1, 34848, Note_off_c, 1, 59, 0
1, 34860, Note_on_c, 1, 69, 127
1, 34860, Note_on_c, 1, 61, 127
1, 34908, Note_off_c, 1, 66, 0
1, 34956, Note_off_c, 1, 69, 0
1, 34956, Note_off_c, 1, 61, 0
1, 34980, Note_on_c, 1, 68, 127
1, 34980, Note_on_c, 1, 49, 127
1, 35076, Note_off_c, 1, 68, 0
1, 35076, Note_off_c, 1, 49, 0
1, 35100, Note_on_c, 1, 66, 127
1, 35100, Note_on_c, 1, 54, 127
1, 35148, Note_off_c, 1, 66, 0
1, 35160, Note_on_c, 1, 58, 127
1, 35160, Note_on_c, 1, 73, 127
1, 35208, Note_off_c, 1, 58, 0
1, 35208, Note_off_c, 1, 73, 0
1, 35220, Note_on_c, 1, 78, 127
1, 35220, Note_on_c, 1, 61, 127
1, 35268, Note_off_c, 1, 78, 0
1, 35268, Note_off_c, 1, 61, 0
1, 35280, Note_on_c, 1, 65, 127
1, 35280, Note_on_c, 1, 80, 127
1, 35292, Note_off_c, 1, 54, 0
1, 35328, Note_off_c, 1, 65, 0
1, 35328, Note_off_c, 1, 80, 0
1, 35340, Note_on_c, 1, 66, 127
1, 35340, Note_on_c, 1, 81, 127
1, 35388, Note_off_c, 1, 66, 0
1, 35400, Note_on_c, 1, 69, 127
1, 35448, Note_off_c, 1, 69, 0
1, 35460, Note_on_c, 1, 62, 127
1, 35460, Note_on_c, 1, 54, 127
1, 35484, Note_off_c, 1, 81, 0
1, 35508, Note_off_c, 1, 62, 0
1, 35556, Note_off_c, 1, 54, 0
1, 35580, Note_on_c, 1, 81, 127
1, 35580, Note_on_c, 1, 60, 127
1, 35580, Note_on_c, 1, 56, 127
1, 35628, Note_off_c, 1, 81, 0
1, 35640, Note_on_c, 1, 78, 127
1, 35688, Note_off_c, 1, 78, 0
1, 35700, Note_on_c, 1, 75, 127
1, 35748, Note_off_c, 1, 75, 0
1, 35772, Note_off_c, 1, 60, 0
1, 35820, Note_on_c, 1, 72, 127
1, 35868, Note_off_c, 1, 56, 0
1, 35868, Note_off_c, 1, 72, 0
1, 35880, Note_on_c, 1, 75, 127
1, 35880, Note_on_c, 1, 56, 127
1, 35928, Note_off_c, 1, 75, 0
1, 35928, Note_off_c, 1, 56, 0
1, 35940, Note_on_c, 1, 68, 127
1, 35940, Note_on_c, 1, 58, 127
1, 35988, Note_off_c, 1, 68, 0
1, 35988, Note_off_c, 1, 58, 0
1, 36000, Note_on_c, 1, 78, 127
1, 36000, Note_on_c, 1, 60, 127
1, 36048, Note_off_c, 1, 78, 0
1, 36048, Note_off_c, 1, 60, 0
1, 36060, Note_on_c, 1, 76, 127
1, 36060, Note_on_c, 1, 61, 127
1, 36108, Note_off_c, 1, 61, 0
1, 36120, Note_on_c, 1, 75, 127
1, 36120, Note_on_c, 1, 64, 127
1, 36168, Note_off_c, 1, 75, 0
1, 36168, Note_off_c, 1, 64, 0
1, 36180, Note_on_c, 1, 73, 127
1, 36180, Note_on_c, 1, 57, 127
1, 36228, Note_off_c, 1, 73, 0
1, 36228, Note_off_c, 1, 57, 0
1, 36240, Note_on_c, 1, 71, 127
1, 36252, Note_off_c, 1, 76, 0
1, 36288, Note_off_c, 1, 71, 0
1, 36300, Note_on_c, 1, 76, 127
1, 36300, Note_on_c, 1, 69, 127
1, 36300, Note_on_c, 1, 54, 127
1, 36348, Note_off_c, 1, 76, 0
1, 36348, Note_off_c, 1, 54, 0
1, 36360, Note_on_c, 1, 57, 127
1, 36408, Note_off_c, 1, 57, 0
1, 36420, Note_on_c, 1, 75, 127
1, 36420, Note_on_c, 1, 51, 127
1, 36468, Note_off_c, 1, 75, 0
1, 36468, Note_off_c, 1, 51, 0
1, 36480, Note_on_c, 1, 73, 127
1, 36528, Note_off_c, 1, 73, 0
1, 36540, Note_on_c, 1, 72, 127
1, 36540, Note_on_c, 1, 44, 127
1, 36588, Note_off_c, 1, 69, 0
1, 36600, Note_on_c, 1, 68, 127
1, 36636, Note_off_c, 1, 72, 0
1, 36660, Note_on_c, 1, 70, 127
1, 36660, Note_on_c, 1, 56, 127
1, 36708, Note_off_c, 1, 70, 0
1, 36708, Note_off_c, 1, 56, 0
1, 36732, Note_off_c, 1, 44, 0
1, 36744, Note_off_c, 1, 68, 0
1, 36780, Note_on_c, 1, 73, 127
1, 36780, Note_on_c, 1, 68, 127
1, 36780, Note_on_c, 1, 52, 127
1, 36828, Note_off_c, 1, 73, 0
1, 36840, Note_on_c, 1, 72, 127
1, 36840, Note_on_c, 1, 61, 127
1, 36876, Note_off_c, 1, 52, 0
1, 36888, Note_off_c, 1, 72, 0
1, 36900, Note_on_c, 1, 51, 127
1, 36936, Note_off_c, 1, 61, 0
1, 36960, Note_on_c, 1, 75, 127
1, 36960, Note_on_c, 1, 60, 127
1, 36972, Note_off_c, 1, 68, 0
1, 36996, Note_off_c, 1, 51, 0
1, 37008, Note_off_c, 1, 75, 0
1, 37008, Note_off_c, 1, 60, 0
1, 37020, Note_on_c, 1, 76, 127
1, 37020, Note_on_c, 1, 49, 127
1, 37068, Note_off_c, 1, 76, 0
1, 37068, Note_off_c, 1, 49, 0
1, 37080, Note_on_c, 1, 78, 127
1, 37080, Note_on_c, 1, 51, 127
1, 37128, Note_off_c, 1, 78, 0
1, 37128, Note_off_c, 1, 51, 0
1, 37140, Note_on_c, 1, 80, 127
1, 37140, Note_on_c, 1, 52, 127
1, 37188, Note_off_c, 1, 80, 0
1, 37188, Note_off_c, 1, 52, 0
1, 37200, Note_on_c, 1, 81, 127
1, 37200, Note_on_c, 1, 54, 127
1, 37248, Note_off_c, 1, 81, 0
1, 37248, Note_off_c, 1, 54, 0
1, 37260, Note_on_c, 1, 76, 127
1, 37260, Note_on_c, 1, 72, 127
1, 37260, Note_on_c, 1, 56, 127
1, 37272, Note_off_c, 1, 76, 0
1, 37275, Note_on_c, 1, 75, 127
1, 37287, Note_off_c, 1, 75, 0
1, 37380, Note_on_c, 1, 44, 127
1, 37440, Note_on_c, 1, 73, 127
1, 37452, Note_off_c, 1, 72, 0
1, 37452, Note_off_c, 1, 56, 0
1, 37476, Note_off_c, 1, 44, 0
1, 37488, Note_off_c, 1, 73, 0
1, 37500, Note_on_c, 1, 73, 127
1, 37500, Note_on_c, 1, 56, 127
1, 37500, Note_on_c, 1, 49, 127
1, 37560, Note_on_c, 1, 68, 127
1, 37620, Note_on_c, 1, 64, 127
1, 37644, Note_off_c, 1, 56, 0
1, 37692, Note_off_c, 1, 49, 0
1, 37740, Note_on_c, 1, 61, 127
1, 37769, Note_off_c, 1, 61, 0
1, 37770, Note_on_c, 1, 59, 127
1, 37788, Note_off_c, 1, 73, 0
1, 37788, Note_off_c, 1, 68, 0
1, 37788, Note_off_c, 1, 64, 0
1, 37794, Note_off_c, 1, 59, 0
1, 37800, Note_on_c, 1, 74, 127
1, 37800, Note_on_c, 1, 61, 127
1, 37848, Note_off_c, 1, 74, 0
1, 37860, Note_on_c, 1, 73, 127
1, 37896, Note_off_c, 1, 61, 0
1, 37908, Note_off_c, 1, 73, 0
1, 37920, Note_on_c, 1, 74, 127
1, 37920, Note_on_c, 1, 59, 127
1, 37968, Note_off_c, 1, 74, 0
1, 37968, Note_off_c, 1, 59, 0
1, 37980, Note_on_c, 1, 76, 127
1, 37980, Note_on_c, 1, 58, 127
1, 38028, Note_off_c, 1, 76, 0
1, 38028, Note_off_c, 1, 58, 0
1, 38040, Note_on_c, 1, 79, 127
1, 38040, Note_on_c, 1, 59, 127
1, 38088, Note_off_c, 1, 79, 0
1, 38088, Note_off_c, 1, 59, 0
1, 38100, Note_on_c, 1, 73, 127
1, 38100, Note_on_c, 1, 58, 127
1, 38148, Note_off_c, 1, 73, 0
1, 38148, Note_off_c, 1, 58, 0
1, 38160, Note_on_c, 1, 76, 127
1, 38160, Note_on_c, 1, 56, 127
1, 38208, Note_off_c, 1, 76, 0
1, 38208, Note_off_c, 1, 56, 0
1, 38220, Note_on_c, 1, 70, 127
1, 38220, Note_on_c, 1, 54, 127
1, 38268, Note_off_c, 1, 70, 0
1, 38268, Note_off_c, 1, 54, 0
1, 38280, Note_on_c, 1, 73, 127
1, 38280, Note_on_c, 1, 52, 127
1, 38328, Note_off_c, 1, 73, 0
1, 38328, Note_off_c, 1, 52, 0
1, 38340, Note_on_c, 1, 66, 127
1, 38340, Note_on_c, 1, 50, 127
1, 38388, Note_off_c, 1, 66, 0
1, 38388, Note_off_c, 1, 50, 0
1, 38400, Note_on_c, 1, 76, 127
1, 38400, Note_on_c, 1, 49, 127
1, 38448, Note_off_c, 1, 76, 0
1, 38448, Note_off_c, 1, 49, 0
1, 38460, Note_on_c, 1, 74, 127
1, 38460, Note_on_c, 1, 47, 127
1, 38520, Note_on_c, 1, 71, 127
1, 38580, Note_on_c, 1, 66, 127
1, 38640, Note_on_c, 1, 54, 127
1, 38652, Note_off_c, 1, 74, 0
1, 38652, Note_off_c, 1, 47, 0
1, 38688, Note_off_c, 1, 54, 0
1, 38700, Note_on_c, 1, 59, 127
1, 38729, Note_off_c, 1, 59, 0
1, 38730, Note_on_c, 1, 57, 127
1, 38748, Note_off_c, 1, 71, 0
1, 38748, Note_off_c, 1, 66, 0
1, 38754, Note_off_c, 1, 57, 0
1, 38760, Note_on_c, 1, 73, 127
1, 38760, Note_on_c, 1, 57, 127
1, 38808, Note_off_c, 1, 73, 0
1, 38820, Note_on_c, 1, 71, 127
1, 38856, Note_off_c, 1, 57, 0
1, 38868, Note_off_c, 1, 71, 0
1, 38880, Note_on_c, 1, 73, 127
1, 38880, Note_on_c, 1, 57, 127
1, 38928, Note_off_c, 1, 73, 0
1, 38928, Note_off_c, 1, 57, 0
1, 38940, Note_on_c, 1, 74, 127
1, 38940, Note_on_c, 1, 56, 127
1, 38988, Note_off_c, 1, 74, 0
1, 38988, Note_off_c, 1, 56, 0
1, 39000, Note_on_c, 1, 76, 127
1, 39000, Note_on_c, 1, 57, 127
1, 39024, Note_off_c, 1, 76, 0
1, 39030, Note_on_c, 1, 78, 127
1, 39048, Note_off_c, 1, 57, 0
1, 39054, Note_off_c, 1, 78, 0
1, 39060, Note_on_c, 1, 71, 127
1, 39060, Note_on_c, 1, 56, 127
1, 39108, Note_off_c, 1, 71, 0
1, 39108, Note_off_c, 1, 56, 0
1, 39120, Note_on_c, 1, 73, 127
1, 39120, Note_on_c, 1, 54, 127
1, 39144, Note_off_c, 1, 73, 0
1, 39150, Note_on_c, 1, 74, 127
1, 39168, Note_off_c, 1, 54, 0
1, 39174, Note_off_c, 1, 74, 0
1, 39180, Note_on_c, 1, 68, 127
1, 39180, Note_on_c, 1, 52, 127
1, 39228, Note_off_c, 1, 68, 0
1, 39228, Note_off_c, 1, 52, 0
1, 39240, Note_on_c, 1, 69, 127
1, 39240, Note_on_c, 1, 50, 127
1, 39264, Note_off_c, 1, 69, 0
1, 39270, Note_on_c, 1, 71, 127
1, 39288, Note_off_c, 1, 50, 0
1, 39294, Note_off_c, 1, 71, 0
1, 39300, Note_on_c, 1, 64, 127
1, 39300, Note_on_c, 1, 49, 127
1, 39348, Note_off_c, 1, 64, 0
1, 39348, Note_off_c, 1, 49, 0
1, 39360, Note_on_c, 1, 74, 127
1, 39360, Note_on_c, 1, 47, 127
1, 39408, Note_off_c, 1, 74, 0
1, 39408, Note_off_c, 1, 47, 0
1, 39420, Note_on_c, 1, 73, 127
1, 39480, Note_on_c, 1, 69, 127
1, 39540, Note_on_c, 1, 64, 127
1, 39600, Note_on_c, 1, 52, 127
1, 39648, Note_off_c, 1, 52, 0
1, 39660, Note_on_c, 1, 57, 127
1, 39689, Note_off_c, 1, 57, 0
1, 39690, Note_on_c, 1, 56, 127
1, 39708, Note_off_c, 1, 73, 0
1, 39708, Note_off_c, 1, 69, 0
1, 39708, Note_off_c, 1, 64, 0
1, 39714, Note_off_c, 1, 56, 0
1, 39720, Note_on_c, 1, 69, 127
1, 39720, Note_on_c, 1, 57, 127
1, 39768, Note_off_c, 1, 69, 0
1, 39780, Note_on_c, 1, 71, 127
1, 39828, Note_off_c, 1, 71, 0
1, 39833, Note_off_c, 1, 57, 0
1, 39840, Note_on_c, 1, 73, 127
1, 39840, Note_on_c, 1, 55, 127
1, 39888, Note_off_c, 1, 73, 0
1, 39888, Note_off_c, 1, 55, 0
1, 39900, Note_on_c, 1, 74, 127
1, 39900, Note_on_c, 1, 54, 127
1, 39948, Note_off_c, 1, 74, 0
1, 39948, Note_off_c, 1, 54, 0
1, 39960, Note_on_c, 1, 76, 127
1, 39960, Note_on_c, 1, 55, 127
1, 40008, Note_off_c, 1, 76, 0
1, 40008, Note_off_c, 1, 55, 0
1, 40020, Note_on_c, 1, 74, 127
1, 40020, Note_on_c, 1, 54, 127
1, 40068, Note_off_c, 1, 74, 0
1, 40068, Note_off_c, 1, 54, 0
1, 40080, Note_on_c, 1, 73, 127
1, 40080, Note_on_c, 1, 52, 127
1, 40128, Note_off_c, 1, 73, 0
1, 40128, Note_off_c, 1, 52, 0
1, 40140, Note_on_c, 1, 71, 127
1, 40140, Note_on_c, 1, 50, 127
1, 40188, Note_off_c, 1, 71, 0
1, 40188, Note_off_c, 1, 50, 0
1, 40200, Note_on_c, 1, 69, 127
1, 40200, Note_on_c, 1, 49, 127
1, 40248, Note_off_c, 1, 69, 0
1, 40248, Note_off_c, 1, 49, 0
1, 40260, Note_on_c, 1, 68, 127
1, 40260, Note_on_c, 1, 47, 127
1, 40308, Note_off_c, 1, 68, 0
1, 40308, Note_off_c, 1, 47, 0
1, 40320, Note_on_c, 1, 69, 127
1, 40320, Note_on_c, 1, 45, 127
1, 40368, Note_off_c, 1, 69, 0
1, 40368, Note_off_c, 1, 45, 0
1, 40380, Note_on_c, 1, 68, 127
1, 40380, Note_on_c, 1, 52, 127
1, 40395, Note_off_c, 1, 68, 0
1, 40395, Note_on_c, 1, 69, 127
1, 40407, Note_off_c, 1, 69, 0
1, 40440, Note_on_c, 1, 64, 127
1, 40488, Note_off_c, 1, 64, 0
1, 40524, Note_off_c, 1, 52, 0
1, 40560, Note_on_c, 1, 71, 127
1, 40560, Note_on_c, 1, 50, 127
1, 40608, Note_off_c, 1, 71, 0
1, 40608, Note_off_c, 1, 50, 0
1, 40620, Note_on_c, 1, 76, 127
1, 40620, Note_on_c, 1, 49, 127
1, 40635, Note_off_c, 1, 49, 0
1, 40635, Note_on_c, 1, 50, 127
1, 40647, Note_off_c, 1, 50, 0
1, 40680, Note_on_c, 1, 45, 127
1, 40728, Note_off_c, 1, 45, 0
1, 40764, Note_off_c, 1, 76, 0
1, 40800, Note_on_c, 1, 74, 127
1, 40800, Note_on_c, 1, 52, 127
1, 40848, Note_off_c, 1, 74, 0
1, 40848, Note_off_c, 1, 52, 0
1, 40860, Note_on_c, 1, 73, 127
1, 40860, Note_on_c, 1, 57, 127
1, 40875, Note_off_c, 1, 73, 0
1, 40875, Note_on_c, 1, 74, 127
1, 40887, Note_off_c, 1, 74, 0
1, 40920, Note_on_c, 1, 69, 127
1, 40968, Note_off_c, 1, 69, 0
1, 41004, Note_off_c, 1, 57, 0
1, 41040, Note_on_c, 1, 76, 127
1, 41040, Note_on_c, 1, 55, 127
1, 41088, Note_off_c, 1, 76, 0
1, 41088, Note_off_c, 1, 55, 0
1, 41100, Note_on_c, 1, 81, 127
1, 41100, Note_on_c, 1, 54, 127
1, 41115, Note_off_c, 1, 54, 0
1, 41115, Note_on_c, 1, 55, 127
1, 41127, Note_off_c, 1, 55, 0
1, 41160, Note_on_c, 1, 50, 127
1, 41208, Note_off_c, 1, 50, 0
1, 41244, Note_off_c, 1, 81, 0
1, 41280, Note_on_c, 1, 79, 127
1, 41280, Note_on_c, 1, 57, 127
1, 41328, Note_off_c, 1, 79, 0
1, 41328, Note_off_c, 1, 57, 0
1, 41340, Note_on_c, 1, 78, 127
1, 41340, Note_on_c, 1, 62, 127
1, 41388, Note_off_c, 1, 78, 0
1, 41400, Note_on_c, 1, 81, 127
1, 41436, Note_off_c, 1, 62, 0
1, 41448, Note_off_c, 1, 81, 0
1, 41460, Note_on_c, 1, 74, 127
1, 41460, Note_on_c, 1, 61, 127
1, 41508, Note_off_c, 1, 74, 0
1, 41520, Note_on_c, 1, 76, 127
1, 41556, Note_off_c, 1, 61, 0
1, 41568, Note_off_c, 1, 76, 0
1, 41580, Note_on_c, 1, 78, 127
1, 41580, Note_on_c, 1, 59, 127
1, 41628, Note_off_c, 1, 78, 0
1, 41640, Note_on_c, 1, 74, 127
1, 41676, Note_off_c, 1, 59, 0
1, 41688, Note_off_c, 1, 74, 0
1, 41700, Note_on_c, 1, 71, 127
1, 41700, Note_on_c, 1, 57, 127
1, 41748, Note_off_c, 1, 71, 0
1, 41760, Note_on_c, 1, 73, 127
1, 41796, Note_off_c, 1, 57, 0
1, 41808, Note_off_c, 1, 73, 0
1, 41820, Note_on_c, 1, 74, 127
1, 41820, Note_on_c, 1, 59, 127
1, 41868, Note_off_c, 1, 74, 0
1, 41880, Note_on_c, 1, 78, 127
1, 41916, Note_off_c, 1, 59, 0
1, 41928, Note_off_c, 1, 78, 0
1, 41940, Note_on_c, 1, 71, 127
1, 41940, Note_on_c, 1, 57, 127
1, 41988, Note_off_c, 1, 71, 0
1, 42000, Note_on_c, 1, 73, 127
1, 42036, Note_off_c, 1, 57, 0
1, 42048, Note_off_c, 1, 73, 0
1, 42060, Note_on_c, 1, 74, 127
1, 42060, Note_on_c, 1, 56, 127
1, 42108, Note_off_c, 1, 74, 0
1, 42120, Note_on_c, 1, 71, 127
1, 42156, Note_off_c, 1, 56, 0
1, 42168, Note_off_c, 1, 71, 0
1, 42180, Note_on_c, 1, 68, 127
1, 42180, Note_on_c, 1, 54, 127
1, 42228, Note_off_c, 1, 68, 0
1, 42240, Note_on_c, 1, 69, 127
1, 42276, Note_off_c, 1, 54, 0
1, 42288, Note_off_c, 1, 69, 0
1, 42300, Note_on_c, 1, 68, 127
1, 42300, Note_on_c, 1, 52, 127
1, 42329, Note_off_c, 1, 68, 0
1, 42330, Note_on_c, 1, 69, 127
1, 42354, Note_off_c, 1, 69, 0
1, 42360, Note_on_c, 1, 54, 127
1, 42408, Note_off_c, 1, 54, 0
1, 42420, Note_on_c, 1, 56, 127
1, 42480, Note_on_c, 1, 66, 127
1, 42480, Note_on_c, 1, 59, 127
1, 42528, Note_off_c, 1, 66, 0
1, 42540, Note_on_c, 1, 64, 127
1, 42660, Note_on_c, 1, 71, 127
1, 42708, Note_off_c, 1, 71, 0
1, 42720, Note_on_c, 1, 76, 127
1, 42732, Note_off_c, 1, 56, 0
1, 42732, Note_off_c, 1, 59, 0
1, 42732, Note_off_c, 1, 64, 0
1, 42780, Note_on_c, 1, 57, 127
1, 42828, Note_off_c, 1, 76, 0
1, 42900, Note_on_c, 1, 75, 127
1, 42948, Note_off_c, 1, 75, 0
1, 42960, Note_on_c, 1, 73, 127
1, 43008, Note_off_c, 1, 73, 0
1, 43080, Note_on_c, 1, 78, 127
1, 43128, Note_off_c, 1, 78, 0
1, 43164, Note_off_c, 1, 57, 0
1, 43260, Note_on_c, 1, 74, 127
1, 43500, Note_on_c, 1, 61, 127
1, 43596, Note_off_c, 1, 74, 0
1, 43644, Note_off_c, 1, 61, 0
1, 43680, Note_on_c, 1, 63, 127
1, 43728, Note_off_c, 1, 63, 0
1, 44220, Note_on_c, 1, 62, 127
1, 44364, Note_off_c, 1, 52, 0
1, 44453, Note_off_c, 1, 62, 0
1, 44580, Note_on_c, 1, 60, 127
1, 44676, Note_off_c, 1, 60, 0
1, 45360, Note_on_c, 1, 67, 127
1, 45408, Note_off_c, 1, 67, 0
1, 45660, Note_on_c, 1, 64, 127
1, 45660, Note_on_c, 1, 69, 127
1, 45660, Note_on_c, 1, 61, 127
1, 45660, Note_on_c, 1, 57, 127
1, 45720, Note_on_c, 1, 45, 127
1, 45780, Note_on_c, 1, 49, 127
1, 45840, Note_on_c, 1, 52, 127
1, 45852, Note_off_c, 1, 57, 0
1, 45888, Note_off_c, 1, 49, 0
1, 45948, Note_off_c, 1, 64, 0
1, 45948, Note_off_c, 1, 69, 0
1, 45948, Note_off_c, 1, 61, 0
1, 46044, Note_off_c, 1, 45, 0
1, 46044, Note_off_c, 1, 52, 0
1, 46080, Note_on_c, 1, 71, 127
1, 46137, Note_off_c, 1, 71, 0
1, 46140, Note_on_c, 1, 71, 127
1, 46200, Note_on_c, 1, 52, 127
1, 46260, Note_on_c, 1, 56, 127
1, 46320, Note_on_c, 1, 59, 127
1, 46332, Note_off_c, 1, 71, 0
1, 46380, Note_on_c, 1, 64, 127
1, 46440, Note_on_c, 1, 68, 127
1, 46560, Note_on_c, 1, 76, 127
1, 46572, Note_off_c, 1, 56, 0
1, 46572, Note_off_c, 1, 59, 0
1, 46572, Note_off_c, 1, 64, 0
1, 46608, Note_off_c, 1, 68, 0
1, 46608, Note_off_c, 1, 76, 0
1, 46620, Note_on_c, 1, 66, 127
1, 46620, Note_on_c, 1, 70, 127
1, 46620, Note_on_c, 1, 61, 127
1, 46668, Note_off_c, 1, 52, 0
1, 46680, Note_on_c, 1, 55, 127
1, 46728, Note_off_c, 1, 55, 0
1, 46740, Note_on_c, 1, 49, 127
1, 46788, Note_off_c, 1, 49, 0
1, 46860, Note_on_c, 1, 46, 127
1, 46908, Note_off_c, 1, 46, 0
1, 46980, Note_on_c, 1, 42, 127
1, 47028, Note_off_c, 1, 42, 0
1, 47100, Note_on_c, 1, 50, 127
1, 47160, Note_on_c, 1, 54, 127
1, 47220, Note_on_c, 1, 58, 127
1, 47244, Note_off_c, 1, 66, 0
1, 47244, Note_off_c, 1, 70, 0
1, 47244, Note_off_c, 1, 61, 0
1, 47292, Note_off_c, 1, 50, 0
1, 47328, Note_off_c, 1, 54, 0
1, 47328, Note_off_c, 1, 58, 0
1, 47340, Note_on_c, 1, 62, 127
1, 47340, Note_on_c, 1, 50, 127
1, 47340, Note_on_c, 1, 59, 127
1, 47388, Note_off_c, 1, 62, 0
1, 47400, Note_on_c, 1, 66, 127
1, 47436, Note_off_c, 1, 50, 0
1, 47460, Note_on_c, 1, 71, 127
1, 47460, Note_on_c, 1, 54, 127
1, 47520, Note_on_c, 1, 74, 127
1, 47556, Note_off_c, 1, 54, 0
1, 47568, Note_off_c, 1, 66, 0
1, 47568, Note_off_c, 1, 71, 0
1, 47568, Note_off_c, 1, 74, 0
1, 47580, Note_on_c, 1, 76, 127
1, 47580, Note_on_c, 1, 55, 127
1, 47580, Note_on_c, 1, 49, 127
1, 47628, Note_off_c, 1, 76, 0
1, 47640, Note_on_c, 1, 79, 127
1, 47676, Note_off_c, 1, 59, 0
1, 47676, Note_off_c, 1, 55, 0
1, 47688, Note_off_c, 1, 79, 0
1, 47700, Note_on_c, 1, 73, 127
1, 47700, Note_on_c, 1, 52, 127
1, 47748, Note_off_c, 1, 73, 0
1, 47772, Note_off_c, 1, 49, 0
1, 47796, Note_off_c, 1, 52, 0
1, 47820, Note_on_c, 1, 70, 127
1, 47820, Note_on_c, 1, 54, 127
1, 47868, Note_off_c, 1, 70, 0
1, 47880, Note_on_c, 1, 73, 127
1, 47928, Note_off_c, 1, 73, 0
1, 47940, Note_on_c, 1, 66, 127
1, 47940, Note_on_c, 1, 42, 127
1, 48000, Note_on_c, 1, 76, 127
1, 48012, Note_off_c, 1, 54, 0
1, 48036, Note_off_c, 1, 42, 0
1, 48048, Note_off_c, 1, 76, 0
1, 48060, Note_on_c, 1, 47, 127
1, 48108, Note_off_c, 1, 66, 0
1, 48180, Note_on_c, 1, 68, 127
1, 48228, Note_off_c, 1, 68, 0
1, 48300, Note_on_c, 1, 71, 127
1, 48348, Note_off_c, 1, 71, 0
1, 48360, Note_on_c, 1, 74, 127
1, 48420, Note_on_c, 1, 67, 127
1, 48444, Note_off_c, 1, 74, 0
1, 48468, Note_off_c, 1, 67, 0
1, 48540, Note_on_c, 1, 65, 127
1, 48588, Note_off_c, 1, 47, 0
1, 48600, Note_on_c, 1, 50, 127
1, 48648, Note_off_c, 1, 50, 0
1, 48660, Note_on_c, 1, 44, 127
1, 48708, Note_off_c, 1, 44, 0
1, 48780, Note_on_c, 1, 41, 127
1, 48828, Note_off_c, 1, 41, 0
1, 48900, Note_on_c, 1, 37, 127
1, 48924, Note_off_c, 1, 65, 0
1, 48948, Note_off_c, 1, 37, 0
1, 49020, Note_on_c, 1, 69, 127
1, 49020, Note_on_c, 1, 45, 127
1, 49080, Note_on_c, 1, 49, 127
1, 49200, Note_on_c, 1, 57, 127
1, 49212, Note_off_c, 1, 69, 0
1, 49248, Note_off_c, 1, 49, 0
1, 49248, Note_off_c, 1, 57, 0
1, 49260, Note_on_c, 1, 59, 127
1, 49260, Note_on_c, 1, 51, 127
1, 49320, Note_on_c, 1, 63, 127
1, 49356, Note_off_c, 1, 45, 0
1, 49356, Note_off_c, 1, 51, 0
1, 49452, Note_off_c, 1, 59, 0
1, 49488, Note_off_c, 1, 63, 0
1, 49500, Note_on_c, 1, 71, 127
1, 49500, Note_on_c, 1, 65, 127
1, 49500, Note_on_c, 1, 44, 127
1, 49548, Note_off_c, 1, 71, 0
1, 49548, Note_off_c, 1, 44, 0
1, 49560, Note_on_c, 1, 68, 127
1, 49560, Note_on_c, 1, 49, 127
1, 49596, Note_off_c, 1, 65, 0
1, 49608, Note_off_c, 1, 68, 0
1, 49608, Note_off_c, 1, 49, 0
1, 49620, Note_on_c, 1, 73, 127
1, 49620, Note_on_c, 1, 51, 127
1, 49668, Note_off_c, 1, 73, 0
1, 49668, Note_off_c, 1, 51, 0
1, 49680, Note_on_c, 1, 71, 127
1, 49680, Note_on_c, 1, 53, 127
1, 49728, Note_off_c, 1, 71, 0
1, 49728, Note_off_c, 1, 53, 0
1, 49740, Note_on_c, 1, 69, 127
1, 49740, Note_on_c, 1, 54, 127
1, 49788, Note_off_c, 1, 54, 0
1, 49800, Note_on_c, 1, 66, 127
1, 49800, Note_on_c, 1, 53, 127
1, 49836, Note_off_c, 1, 69, 0
1, 49848, Note_off_c, 1, 53, 0
1, 49860, Note_on_c, 1, 74, 127
1, 49896, Note_off_c, 1, 66, 0
1, 49920, Note_on_c, 1, 65, 127
1, 49920, Note_on_c, 1, 56, 127
1, 49956, Note_off_c, 1, 74, 0
1, 49968, Note_off_c, 1, 65, 0
1, 49968, Note_off_c, 1, 56, 0
1, 49980, Note_on_c, 1, 73, 127
1, 49980, Note_on_c, 1, 57, 127
1, 50028, Note_off_c, 1, 57, 0
1, 50040, Note_on_c, 1, 64, 127
1, 50040, Note_on_c, 1, 56, 127
1, 50088, Note_off_c, 1, 64, 0
1, 50088, Note_off_c, 1, 56, 0
1, 50100, Note_on_c, 1, 66, 127
1, 50124, Note_off_c, 1, 73, 0
1, 50160, Note_on_c, 1, 71, 127
1, 50160, Note_on_c, 1, 59, 127
1, 50208, Note_off_c, 1, 71, 0
1, 50208, Note_off_c, 1, 59, 0
1, 50220, Note_on_c, 1, 69, 127
1, 50220, Note_on_c, 1, 61, 127
1, 50268, Note_off_c, 1, 66, 0
1, 50316, Note_off_c, 1, 69, 0
1, 50316, Note_off_c, 1, 61, 0
1, 50340, Note_on_c, 1, 68, 127
1, 50340, Note_on_c, 1, 49, 127
1, 50436, Note_off_c, 1, 68, 0
1, 50436, Note_off_c, 1, 49, 0
1, 50460, Note_on_c, 1, 66, 127
1, 50460, Note_on_c, 1, 54, 127
1, 50508, Note_off_c, 1, 66, 0
1, 50520, Note_on_c, 1, 58, 127
1, 50520, Note_on_c, 1, 73, 127
1, 50568, Note_off_c, 1, 58, 0
1, 50568, Note_off_c, 1, 73, 0
1, 50580, Note_on_c, 1, 78, 127
1, 50580, Note_on_c, 1, 61, 127
1, 50628, Note_off_c, 1, 78, 0
1, 50628, Note_off_c, 1, 61, 0
1, 50640, Note_on_c, 1, 65, 127
1, 50640, Note_on_c, 1, 80, 127
1, 50652, Note_off_c, 1, 54, 0
1, 50688, Note_off_c, 1, 65, 0
1, 50688, Note_off_c, 1, 80, 0
1, 50700, Note_on_c, 1, 66, 127
1, 50700, Note_on_c, 1, 81, 127
1, 50748, Note_off_c, 1, 66, 0
1, 50760, Note_on_c, 1, 69, 127
1, 50808, Note_off_c, 1, 69, 0
1, 50820, Note_on_c, 1, 62, 127
1, 50820, Note_on_c, 1, 54, 127
1, 50844, Note_off_c, 1, 81, 0
1, 50868, Note_off_c, 1, 62, 0
1, 50916, Note_off_c, 1, 54, 0
1, 50940, Note_on_c, 1, 81, 127
1, 50940, Note_on_c, 1, 60, 127
1, 50940, Note_on_c, 1, 56, 127
1, 50988, Note_off_c, 1, 81, 0
1, 51000, Note_on_c, 1, 78, 127
1, 51048, Note_off_c, 1, 78, 0
1, 51060, Note_on_c, 1, 75, 127
1, 51108, Note_off_c, 1, 75, 0
1, 51132, Note_off_c, 1, 60, 0
1, 51180, Note_on_c, 1, 72, 127
1, 51228, Note_off_c, 1, 56, 0
1, 51228, Note_off_c, 1, 72, 0
1, 51240, Note_on_c, 1, 75, 127
1, 51240, Note_on_c, 1, 56, 127
1, 51288, Note_off_c, 1, 75, 0
1, 51288, Note_off_c, 1, 56, 0
1, 51300, Note_on_c, 1, 68, 127
1, 51300, Note_on_c, 1, 58, 127
1, 51348, Note_off_c, 1, 68, 0
1, 51348, Note_off_c, 1, 58, 0
1, 51360, Note_on_c, 1, 78, 127
1, 51360, Note_on_c, 1, 60, 127
1, 51408, Note_off_c, 1, 78, 0
1, 51408, Note_off_c, 1, 60, 0
1, 51420, Note_on_c, 1, 76, 127
1, 51420, Note_on_c, 1, 61, 127
1, 51468, Note_off_c, 1, 61, 0
1, 51480, Note_on_c, 1, 75, 127
1, 51480, Note_on_c, 1, 64, 127
1, 51528, Note_off_c, 1, 75, 0
1, 51528, Note_off_c, 1, 64, 0
1, 51540, Note_on_c, 1, 73, 127
1, 51540, Note_on_c, 1, 57, 127
1, 51588, Note_off_c, 1, 73, 0
1, 51588, Note_off_c, 1, 57, 0
1, 51600, Note_on_c, 1, 71, 127
1, 51612, Note_off_c, 1, 76, 0
1, 51648, Note_off_c, 1, 71, 0
1, 51660, Note_on_c, 1, 76, 127
1, 51660, Note_on_c, 1, 69, 127
1, 51660, Note_on_c, 1, 54, 127
1, 51708, Note_off_c, 1, 76, 0
1, 51708, Note_off_c, 1, 54, 0
1, 51720, Note_on_c, 1, 57, 127
1, 51768, Note_off_c, 1, 57, 0
1, 51780, Note_on_c, 1, 75, 127
1, 51780, Note_on_c, 1, 51, 127
1, 51828, Note_off_c, 1, 75, 0
1, 51828, Note_off_c, 1, 51, 0
1, 51840, Note_on_c, 1, 73, 127
1, 51888, Note_off_c, 1, 73, 0
1, 51900, Note_on_c, 1, 72, 127
1, 51900, Note_on_c, 1, 44, 127
1, 51948, Note_off_c, 1, 69, 0
1, 51960, Note_on_c, 1, 68, 127
1, 51996, Note_off_c, 1, 72, 0
1, 52020, Note_on_c, 1, 70, 127
1, 52020, Note_on_c, 1, 56, 127
1, 52068, Note_off_c, 1, 70, 0
1, 52068, Note_off_c, 1, 56, 0
1, 52092, Note_off_c, 1, 44, 0
1, 52104, Note_off_c, 1, 68, 0
1, 52140, Note_on_c, 1, 73, 127
1, 52140, Note_on_c, 1, 68, 127
1, 52140, Note_on_c, 1, 52, 127
1, 52188, Note_off_c, 1, 73, 0
1, 52200, Note_on_c, 1, 72, 127
1, 52200, Note_on_c, 1, 61, 127
1, 52236, Note_off_c, 1, 52, 0
1, 52248, Note_off_c, 1, 72, 0
1, 52260, Note_on_c, 1, 51, 127
1, 52296, Note_off_c, 1, 61, 0
1, 52320, Note_on_c, 1, 75, 127
1, 52320, Note_on_c, 1, 60, 127
1, 52332, Note_off_c, 1, 68, 0
1, 52356, Note_off_c, 1, 51, 0
1, 52368, Note_off_c, 1, 75, 0
1, 52368, Note_off_c, 1, 60, 0
1, 52380, Note_on_c, 1, 76, 127
1, 52380, Note_on_c, 1, 49, 127
1, 52428, Note_off_c, 1, 76, 0
1, 52428, Note_off_c, 1, 49, 0
1, 52440, Note_on_c, 1, 78, 127
1, 52440, Note_on_c, 1, 51, 127
1, 52488, Note_off_c, 1, 78, 0
1, 52488, Note_off_c, 1, 51, 0
1, 52500, Note_on_c, 1, 80, 127
1, 52500, Note_on_c, 1, 52, 127
1, 52548, Note_off_c, 1, 80, 0
1, 52548, Note_off_c, 1, 52, 0
1, 52560, Note_on_c, 1, 81, 127
1, 52560, Note_on_c, 1, 54, 127
1, 52608, Note_off_c, 1, 81, 0
1, 52608, Note_off_c, 1, 54, 0
1, 52620, Note_on_c, 1, 76, 127
1, 52620, Note_on_c, 1, 72, 127
1, 52620, Note_on_c, 1, 56, 127
1, 52632, Note_off_c, 1, 76, 0
1, 52635, Note_on_c, 1, 75, 127
1, 52647, Note_off_c, 1, 75, 0
1, 52740, Note_on_c, 1, 44, 127
1, 52800, Note_on_c, 1, 73, 127
1, 52812, Note_off_c, 1, 72, 0
1, 52812, Note_off_c, 1, 56, 0
1, 52836, Note_off_c, 1, 44, 0
1, 52848, Note_off_c, 1, 73, 0
1, 52860, Note_on_c, 1, 73, 127
1, 52860, Note_on_c, 1, 56, 127
1, 52860, Note_on_c, 1, 49, 127
1, 52920, Note_on_c, 1, 68, 127
1, 52980, Note_on_c, 1, 64, 127
1, 53004, Note_off_c, 1, 56, 0
1, 53052, Note_off_c, 1, 49, 0
1, 53100, Note_on_c, 1, 61, 127
1, 53129, Note_off_c, 1, 61, 0
1, 53130, Note_on_c, 1, 59, 127
1, 53148, Note_off_c, 1, 73, 0
1, 53148, Note_off_c, 1, 68, 0
1, 53148, Note_off_c, 1, 64, 0
1, 53154, Note_off_c, 1, 59, 0
1, 53160, Note_on_c, 1, 74, 127
1, 53160, Note_on_c, 1, 61, 127
1, 53208, Note_off_c, 1, 74, 0
1, 53220, Note_on_c, 1, 73, 127
1, 53256, Note_off_c, 1, 61, 0
1, 53268, Note_off_c, 1, 73, 0
1, 53280, Note_on_c, 1, 74, 127
1, 53280, Note_on_c, 1, 59, 127
1, 53328, Note_off_c, 1, 74, 0
1, 53328, Note_off_c, 1, 59, 0
1, 53340, Note_on_c, 1, 76, 127
1, 53340, Note_on_c, 1, 58, 127
1, 53388, Note_off_c, 1, 76, 0
1, 53388, Note_off_c, 1, 58, 0
1, 53400, Note_on_c, 1, 79, 127
1, 53400, Note_on_c, 1, 59, 127
1, 53448, Note_off_c, 1, 79, 0
1, 53448, Note_off_c, 1, 59, 0
1, 53460, Note_on_c, 1, 73, 127
1, 53460, Note_on_c, 1, 58, 127
1, 53508, Note_off_c, 1, 73, 0
1, 53508, Note_off_c, 1, 58, 0
1, 53520, Note_on_c, 1, 76, 127
1, 53520, Note_on_c, 1, 56, 127
1, 53568, Note_off_c, 1, 76, 0
1, 53568, Note_off_c, 1, 56, 0
1, 53580, Note_on_c, 1, 70, 127
1, 53580, Note_on_c, 1, 54, 127
1, 53628, Note_off_c, 1, 70, 0
1, 53628, Note_off_c, 1, 54, 0
1, 53640, Note_on_c, 1, 73, 127
1, 53640, Note_on_c, 1, 52, 127
1, 53688, Note_off_c, 1, 73, 0
1, 53688, Note_off_c, 1, 52, 0
1, 53700, Note_on_c, 1, 66, 127
1, 53700, Note_on_c, 1, 50, 127
1, 53748, Note_off_c, 1, 66, 0
1, 53748, Note_off_c, 1, 50, 0
1, 53760, Note_on_c, 1, 76, 127
1, 53760, Note_on_c, 1, 49, 127
1, 53808, Note_off_c, 1, 76, 0
1, 53808, Note_off_c, 1, 49, 0
1, 53820, Note_on_c, 1, 74, 127
1, 53820, Note_on_c, 1, 47, 127
1, 53880, Note_on_c, 1, 71, 127
1, 53940, Note_on_c, 1, 66, 127
1, 54000, Note_on_c, 1, 54, 127
1, 54012, Note_off_c, 1, 74, 0
1, 54012, Note_off_c, 1, 47, 0
1, 54048, Note_off_c, 1, 54, 0
1, 54060, Note_on_c, 1, 59, 127
1, 54089, Note_off_c, 1, 59, 0
1, 54090, Note_on_c, 1, 57, 127
1, 54108, Note_off_c, 1, 71, 0
1, 54108, Note_off_c, 1, 66, 0
1, 54114, Note_off_c, 1, 57, 0
1, 54120, Note_on_c, 1, 73, 127
1, 54120, Note_on_c, 1, 57, 127
1, 54168, Note_off_c, 1, 73, 0
1, 54180, Note_on_c, 1, 71, 127
1, 54216, Note_off_c, 1, 57, 0
1, 54228, Note_off_c, 1, 71, 0
1, 54240, Note_on_c, 1, 73, 127
1, 54240, Note_on_c, 1, 57, 127
1, 54288, Note_off_c, 1, 73, 0
1, 54288, Note_off_c, 1, 57, 0
1, 54300, Note_on_c, 1, 74, 127
1, 54300, Note_on_c, 1, 56, 127
1, 54348, Note_off_c, 1, 74, 0
1, 54348, Note_off_c, 1, 56, 0
1, 54360, Note_on_c, 1, 76, 127
1, 54360, Note_on_c, 1, 57, 127
1, 54384, Note_off_c, 1, 76, 0
1, 54390, Note_on_c, 1, 78, 127
1, 54408, Note_off_c, 1, 57, 0
1, 54414, Note_off_c, 1, 78, 0
1, 54420, Note_on_c, 1, 71, 127
1, 54420, Note_on_c, 1, 56, 127
1, 54468, Note_off_c, 1, 71, 0
1, 54468, Note_off_c, 1, 56, 0
1, 54480, Note_on_c, 1, 73, 127
1, 54480, Note_on_c, 1, 54, 127
1, 54504, Note_off_c, 1, 73, 0
1, 54510, Note_on_c, 1, 74, 127
1, 54528, Note_off_c, 1, 54, 0
1, 54534, Note_off_c, 1, 74, 0
1, 54540, Note_on_c, 1, 68, 127
1, 54540, Note_on_c, 1, 52, 127
1, 54588, Note_off_c, 1, 68, 0
1, 54588, Note_off_c, 1, 52, 0
1, 54600, Note_on_c, 1, 69, 127
1, 54600, Note_on_c, 1, 50, 127
1, 54624, Note_off_c, 1, 69, 0
1, 54630, Note_on_c, 1, 71, 127
1, 54648, Note_off_c, 1, 50, 0
1, 54654, Note_off_c, 1, 71, 0
1, 54660, Note_on_c, 1, 64, 127
1, 54660, Note_on_c, 1, 49, 127
1, 54708, Note_off_c, 1, 64, 0
1, 54708, Note_off_c, 1, 49, 0
1, 54720, Note_on_c, 1, 74, 127
1, 54720, Note_on_c, 1, 47, 127
1, 54768, Note_off_c, 1, 74, 0
1, 54768, Note_off_c, 1, 47, 0
1, 54780, Note_on_c, 1, 73, 127
1, 54840, Note_on_c, 1, 69, 127
1, 54900, Note_on_c, 1, 64, 127
1, 54960, Note_on_c, 1, 52, 127
1, 55008, Note_off_c, 1, 52, 0
1, 55020, Note_on_c, 1, 57, 127
1, 55049, Note_off_c, 1, 57, 0
1, 55050, Note_on_c, 1, 56, 127
1, 55068, Note_off_c, 1, 73, 0
1, 55068, Note_off_c, 1, 69, 0
1, 55068, Note_off_c, 1, 64, 0
1, 55074, Note_off_c, 1, 56, 0
1, 55080, Note_on_c, 1, 69, 127
1, 55080, Note_on_c, 1, 57, 127
1, 55128, Note_off_c, 1, 69, 0
1, 55140, Note_on_c, 1, 71, 127
1, 55188, Note_off_c, 1, 71, 0
1, 55193, Note_off_c, 1, 57, 0
1, 55200, Note_on_c, 1, 73, 127
1, 55200, Note_on_c, 1, 55, 127
1, 55248, Note_off_c, 1, 73, 0
1, 55248, Note_off_c, 1, 55, 0
1, 55260, Note_on_c, 1, 74, 127
1, 55260, Note_on_c, 1, 54, 127
1, 55308, Note_off_c, 1, 74, 0
1, 55308, Note_off_c, 1, 54, 0
1, 55320, Note_on_c, 1, 76, 127
1, 55320, Note_on_c, 1, 55, 127
1, 55368, Note_off_c, 1, 76, 0
1, 55368, Note_off_c, 1, 55, 0
1, 55380, Note_on_c, 1, 74, 127
1, 55380, Note_on_c, 1, 54, 127
1, 55428, Note_off_c, 1, 74, 0
1, 55428, Note_off_c, 1, 54, 0
1, 55440, Note_on_c, 1, 73, 127
1, 55440, Note_on_c, 1, 52, 127
1, 55488, Note_off_c, 1, 73, 0
1, 55488, Note_off_c, 1, 52, 0
1, 55500, Note_on_c, 1, 71, 127
1, 55500, Note_on_c, 1, 50, 127
1, 55548, Note_off_c, 1, 71, 0
1, 55548, Note_off_c, 1, 50, 0
1, 55560, Note_on_c, 1, 69, 127
1, 55560, Note_on_c, 1, 49, 127
1, 55608, Note_off_c, 1, 69, 0
1, 55608, Note_off_c, 1, 49, 0
1, 55620, Note_on_c, 1, 68, 127
1, 55620, Note_on_c, 1, 47, 127
1, 55668, Note_off_c, 1, 68, 0
1, 55668, Note_off_c, 1, 47, 0
1, 55680, Note_on_c, 1, 69, 127
1, 55680, Note_on_c, 1, 45, 127
1, 55728, Note_off_c, 1, 69, 0
1, 55728, Note_off_c, 1, 45, 0
1, 55740, Note_on_c, 1, 68, 127
1, 55740, Note_on_c, 1, 52, 127
1, 55755, Note_off_c, 1, 68, 0
1, 55755, Note_on_c, 1, 69, 127
1, 55767, Note_off_c, 1, 69, 0
1, 55800, Note_on_c, 1, 64, 127
1, 55848, Note_off_c, 1, 64, 0
1, 55884, Note_off_c, 1, 52, 0
1, 55920, Note_on_c, 1, 71, 127
1, 55920, Note_on_c, 1, 50, 127
1, 55968, Note_off_c, 1, 71, 0
1, 55968, Note_off_c, 1, 50, 0
1, 55980, Note_on_c, 1, 76, 127
1, 55980, Note_on_c, 1, 49, 127
1, 55995, Note_off_c, 1, 49, 0
1, 55995, Note_on_c, 1, 50, 127
1, 56007, Note_off_c, 1, 50, 0
1, 56040, Note_on_c, 1, 45, 127
1, 56088, Note_off_c, 1, 45, 0
1, 56124, Note_off_c, 1, 76, 0
1, 56160, Note_on_c, 1, 74, 127
1, 56160, Note_on_c, 1, 52, 127
1, 56208, Note_off_c, 1, 74, 0
1, 56208, Note_off_c, 1, 52, 0
1, 56220, Note_on_c, 1, 73, 127
1, 56220, Note_on_c, 1, 57, 127
1, 56235, Note_off_c, 1, 73, 0
1, 56235, Note_on_c, 1, 74, 127
1, 56247, Note_off_c, 1, 74, 0
1, 56280, Note_on_c, 1, 69, 127
1, 56328, Note_off_c, 1, 69, 0
1, 56364, Note_off_c, 1, 57, 0
1, 56400, Note_on_c, 1, 76, 127
1, 56400, Note_on_c, 1, 55, 127
1, 56448, Note_off_c, 1, 76, 0
1, 56448, Note_off_c, 1, 55, 0
1, 56460, Note_on_c, 1, 81, 127
1, 56460, Note_on_c, 1, 54, 127
1, 56475, Note_off_c, 1, 54, 0
1, 56475, Note_on_c, 1, 55, 127
1, 56487, Note_off_c, 1, 55, 0
1, 56520, Note_on_c, 1, 50, 127
1, 56568, Note_off_c, 1, 50, 0
1, 56604, Note_off_c, 1, 81, 0
1, 56640, Note_on_c, 1, 79, 127
1, 56640, Note_on_c, 1, 57, 127
1, 56688, Note_off_c, 1, 79, 0
1, 56688, Note_off_c, 1, 57, 0
1, 56700, Note_on_c, 1, 78, 127
1, 56700, Note_on_c, 1, 62, 127
1, 56748, Note_off_c, 1, 78, 0
1, 56760, Note_on_c, 1, 81, 127
1, 56796, Note_off_c, 1, 62, 0
1, 56808, Note_off_c, 1, 81, 0
1, 56820, Note_on_c, 1, 74, 127
1, 56820, Note_on_c, 1, 61, 127
1, 56868, Note_off_c, 1, 74, 0
1, 56880, Note_on_c, 1, 76, 127
1, 56916, Note_off_c, 1, 61, 0
1, 56928, Note_off_c, 1, 76, 0
1, 56940, Note_on_c, 1, 78, 127
1, 56940, Note_on_c, 1, 59, 127
1, 56988, Note_off_c, 1, 78, 0
1, 57000, Note_on_c, 1, 74, 127
1, 57036, Note_off_c, 1, 59, 0
1, 57048, Note_off_c, 1, 74, 0
1, 57060, Note_on_c, 1, 71, 127
1, 57060, Note_on_c, 1, 57, 127
1, 57108, Note_off_c, 1, 71, 0
1, 57120, Note_on_c, 1, 73, 127
1, 57156, Note_off_c, 1, 57, 0
1, 57168, Note_off_c, 1, 73, 0
1, 57180, Note_on_c, 1, 74, 127
1, 57180, Note_on_c, 1, 59, 127
1, 57228, Note_off_c, 1, 74, 0
1, 57240, Note_on_c, 1, 78, 127
1, 57276, Note_off_c, 1, 59, 0
1, 57288, Note_off_c, 1, 78, 0
1, 57300, Note_on_c, 1, 71, 127
1, 57300, Note_on_c, 1, 57, 127
1, 57348, Note_off_c, 1, 71, 0
1, 57360, Note_on_c, 1, 73, 127
1, 57396, Note_off_c, 1, 57, 0
1, 57408, Note_off_c, 1, 73, 0
1, 57420, Note_on_c, 1, 74, 127
1, 57420, Note_on_c, 1, 56, 127
1, 57468, Note_off_c, 1, 74, 0
1, 57480, Note_on_c, 1, 71, 127
1, 57516, Note_off_c, 1, 56, 0
1, 57528, Note_off_c, 1, 71, 0
1, 57540, Note_on_c, 1, 68, 127
1, 57540, Note_on_c, 1, 54, 127
1, 57588, Note_off_c, 1, 68, 0
1, 57600, Note_on_c, 1, 69, 127
1, 57636, Note_off_c, 1, 54, 0
1, 57648, Note_off_c, 1, 69, 0
1, 57660, Note_on_c, 1, 68, 127
1, 57660, Note_on_c, 1, 52, 127
1, 57689, Note_off_c, 1, 68, 0
1, 57690, Note_on_c, 1, 69, 127
1, 57714, Note_off_c, 1, 69, 0
1, 57720, Note_on_c, 1, 54, 127
1, 57768, Note_off_c, 1, 54, 0
1, 57780, Note_on_c, 1, 56, 127
1, 57840, Note_on_c, 1, 66, 127
1, 57840, Note_on_c, 1, 59, 127
1, 57888, Note_off_c, 1, 66, 0
1, 57900, Note_on_c, 1, 64, 127
1, 58020, Note_on_c, 1, 71, 127
1, 58068, Note_off_c, 1, 71, 0
1, 58080, Note_on_c, 1, 76, 127
1, 58092, Note_off_c, 1, 56, 0
1, 58092, Note_off_c, 1, 59, 0
1, 58092, Note_off_c, 1, 64, 0
1, 58140, Note_on_c, 1, 57, 127
1, 58188, Note_off_c, 1, 76, 0
1, 58260, Note_on_c, 1, 75, 127
1, 58308, Note_off_c, 1, 75, 0
1, 58320, Note_on_c, 1, 73, 127
1, 58368, Note_off_c, 1, 73, 0
1, 58440, Note_on_c, 1, 78, 127
1, 58488, Note_off_c, 1, 78, 0
1, 58524, Note_off_c, 1, 57, 0
1, 58620, Note_on_c, 1, 74, 127
1, 58860, Note_on_c, 1, 61, 127
1, 58956, Note_off_c, 1, 74, 0
1, 59004, Note_off_c, 1, 61, 0
1, 59040, Note_on_c, 1, 63, 127
1, 59088, Note_off_c, 1, 63, 0
1, 59580, Note_on_c, 1, 62, 127
1, 59724, Note_off_c, 1, 52, 0
1, 59813, Note_off_c, 1, 62, 0
1, 59940, Note_on_c, 1, 60, 127
1, 60036, Note_off_c, 1, 60, 0
1, 60720, Note_on_c, 1, 67, 127
1, 60768, Note_off_c, 1, 67, 0
1, 61020, Note_on_c, 1, 64, 127
1, 61020, Note_on_c, 1, 69, 127
1, 61020, Note_on_c, 1, 61, 127
1, 61020, Note_on_c, 1, 57, 127
1, 61080, Note_on_c, 1, 45, 127
1, 61140, Note_on_c, 1, 49, 127
1, 61200, Note_on_c, 1, 52, 127
1, 61212, Note_off_c, 1, 57, 0
1, 61248, Note_off_c, 1, 49, 0
1, 61308, Note_off_c, 1, 64, 0
1, 61308, Note_off_c, 1, 69, 0
1, 61308, Note_off_c, 1, 61, 0
1, 61404, Note_off_c, 1, 45, 0
1, 61404, Note_off_c, 1, 52, 0
1, 61404, End_track
0, 0, End_of_file