0, 0, Header, 1, 1, 480
1, 0, Start_track
1, 0, Title_t, "Test"
1, 0, Tempo, 500000
1, 0, Instrument_name_t, "Church Organ"
1, 64, Note_on_c, 1, 50, 127
1, 407, Note_off_c, 1, 50, 0
1, 411, Note_on_c, 1, 50, 127
1, 643, Note_on_c, 1, 69, 127
1, 754, Note_off_c, 1, 50, 0
1, 759, Note_on_c, 1, 65, 127
1, 805, Note_off_c, 1, 69, 0
1, 874, Note_on_c, 1, 62, 127
1, 976, Note_off_c, 1, 65, 0
1, 1036, Note_off_c, 1, 62, 0
1, 1338, Note_on_c, 1, 74, 127
1, 1454, Note_on_c, 1, 70, 127
1, 1500, Note_off_c, 1, 74, 0
1, 1569, Note_on_c, 1, 67, 127
1, 1671, Note_off_c, 1, 70, 0
1, 1731, Note_off_c, 1, 67, 0
1, 1917, Note_on_c, 1, 64, 127
1, 2079, Note_off_c, 1, 64, 0
1, 2264, Note_on_c, 1, 61, 127
1, 2426, Note_off_c, 1, 61, 0
1, 3423, Note_on_c, 1, 81, 127
1, 3539, Note_on_c, 1, 77, 127
1, 3585, Note_off_c, 1, 81, 0
1, 3756, Note_off_c, 1, 77, 0
1, 4234, Note_on_c, 1, 55, 127
1, 4577, Note_off_c, 1, 55, 0
1, 4813, Note_on_c, 1, 79, 127
1, 4929, Note_on_c, 1, 76, 127
1, 4929, Note_on_c, 1, 60, 127
1, 4975, Note_off_c, 1, 79, 0
1, 5045, Note_on_c, 1, 72, 127
1, 5146, Note_off_c, 1, 76, 0
1, 5207, Note_off_c, 1, 72, 0
1, 5272, Note_off_c, 1, 60, 0
1, 5624, Note_on_c, 1, 53, 127
1, 5967, Note_off_c, 1, 53, 0
1, 6319, Note_on_c, 1, 58, 127
1, 6662, Note_off_c, 1, 58, 0
1, 7361, Note_on_c, 1, 57, 127
1, 7704, Note_off_c, 1, 57, 0
1, 8288, Note_on_c, 1, 82, 127
1, 8404, Note_on_c, 1, 52, 127
1, 8450, Note_off_c, 1, 82, 0
1, 8747, Note_off_c, 1, 52, 0
1, 8752, Note_on_c, 1, 48, 127
1, 8983, Note_on_c, 1, 84, 127
1, 9095, Note_off_c, 1, 48, 0
1, 9145, Note_off_c, 1, 84, 0
1, 10489, Note_on_c, 1, 46, 127
1, 10832, Note_off_c, 1, 46, 0
1, 10837, Note_on_c, 1, 45, 127
1, 11180, Note_off_c, 1, 45, 0
1, 11184, Note_on_c, 1, 43, 127
1, 11527, Note_off_c, 1, 43, 0
1, 11532, Note_on_c, 1, 41, 127
1, 11875, Note_off_c, 1, 41, 0
1, 11879, Note_on_c, 1, 40, 127
1, 12222, Note_off_c, 1, 40, 0
1, 12227, Note_on_c, 1, 36, 127
1, 12570, Note_off_c, 1, 36, 0
1, 15007, Note_on_c, 1, 51, 127
1, 15350, Note_off_c, 1, 51, 0
1, 15470, Note_on_c, 1, 54, 127
1, 15632, Note_off_c, 1, 54, 0
1, 15934, Note_on_c, 1, 63, 127
1, 16151, Note_off_c, 1, 63, 0
1, 18019, Note_on_c, 1, 66, 127
1, 18236, Note_off_c, 1, 66, 0
1, 20915, Note_on_c, 1, 59, 127
1, 21031, Note_on_c, 1, 56, 127
1, 21077, Note_off_c, 1, 59, 0
1, 21193, Note_off_c, 1, 56, 0
1, 21957, Note_on_c, 1, 47, 127
1, 22300, Note_off_c, 1, 47, 0
1, 23579, Note_on_c, 1, 68, 127
1, 23796, Note_off_c, 1, 68, 0
1, 27865, Note_on_c, 1, 38, 127
1, 28299, Note_off_c, 1, 38, 0
1, 28792, Note_on_c, 1, 75, 127
1, 29009, Note_off_c, 1, 75, 0
1, 32035, Note_on_c, 1, 73, 127
1, 32197, Note_off_c, 1, 73, 0
1, 33425, Note_on_c, 1, 77, 127
1, 33425, Note_on_c, 1, 50, 127
1, 33541, Note_on_c, 1, 74, 127
1, 33642, Note_off_c, 1, 77, 0
1, 33657, Note_on_c, 1, 69, 127
1, 33658, Note_off_c, 1, 74, 0
1, 33768, Note_off_c, 1, 50, 0
1, 33773, Note_on_c, 1, 65, 127
1, 33773, Note_on_c, 1, 53, 127
1, 33774, Note_off_c, 1, 69, 0
1, 33889, Note_on_c, 1, 62, 127
1, 33935, Note_off_c, 1, 65, 0
1, 34051, Note_off_c, 1, 62, 0
1, 34116, Note_off_c, 1, 53, 0
1, 34120, Note_on_c, 1, 55, 127
1, 34352, Note_on_c, 1, 71, 127
1, 34463, Note_off_c, 1, 55, 0
1, 34468, Note_on_c, 1, 57, 127
1, 34569, Note_off_c, 1, 71, 0
1, 34700, Note_on_c, 1, 73, 127
1, 34811, Note_off_c, 1, 57, 0
1, 34816, Note_on_c, 1, 58, 127
1, 34917, Note_off_c, 1, 73, 0
1, 35159, Note_off_c, 1, 58, 0
1, 35742, Note_on_c, 1, 70, 127
1, 35858, Note_on_c, 1, 64, 127
1, 35959, Note_off_c, 1, 70, 0
1, 35974, Note_on_c, 1, 61, 127
1, 36020, Note_off_c, 1, 64, 0
1, 36136, Note_off_c, 1, 61, 0
1, 36206, Note_on_c, 1, 46, 127
1, 36437, Note_on_c, 1, 67, 127
1, 36549, Note_off_c, 1, 46, 0
1, 36553, Note_on_c, 1, 41, 127
1, 36654, Note_off_c, 1, 67, 0
1, 36896, Note_off_c, 1, 41, 0
1, 36901, Note_on_c, 1, 43, 127
1, 37244, Note_off_c, 1, 43, 0
1, 37248, Note_on_c, 1, 60, 127
1, 37248, Note_on_c, 1, 45, 127
1, 37410, Note_off_c, 1, 60, 0
1, 37480, Note_on_c, 1, 63, 127
1, 37591, Note_off_c, 1, 45, 0
1, 37697, Note_off_c, 1, 63, 0
1, 38407, Note_on_c, 1, 52, 127
1, 38569, Note_off_c, 1, 52, 0
1, 38986, Note_on_c, 1, 38, 127
1, 39118, Note_on_c, 1, 54, 127
1, 39280, Note_off_c, 1, 54, 0
1, 40044, Note_on_c, 1, 66, 127
1, 40160, Note_on_c, 1, 42, 127
1, 40286, Note_off_c, 1, 42, 0
1, 40387, Note_off_c, 1, 66, 0
1, 41158, Note_off_c, 1, 38, 0
1, 42030, Note_on_c, 1, 76, 127
1, 42319, Note_off_c, 1, 76, 0
1, 42377, Note_on_c, 1, 79, 127
1, 42666, Note_off_c, 1, 79, 0
1, 45157, Note_on_c, 1, 75, 127
1, 45446, Note_off_c, 1, 75, 0
1, 45852, Note_on_c, 1, 72, 127
1, 46141, Note_off_c, 1, 72, 0
1, 48748, Note_on_c, 1, 82, 127
1, 48864, Note_on_c, 1, 81, 127
1, 48910, Note_off_c, 1, 82, 0
1, 49026, Note_off_c, 1, 81, 0
1, 57099, Note_on_c, 1, 44, 127
1, 57221, Note_on_c, 1, 59, 127
1, 57383, Note_off_c, 1, 59, 0
1, 58139, Note_off_c, 1, 44, 0
1, 59901, Note_on_c, 1, 47, 127
1, 60033, Note_on_c, 1, 56, 127
1, 60195, Note_off_c, 1, 56, 0
1, 60941, Note_off_c, 1, 47, 0
1, 61307, Note_on_c, 1, 49, 127
1, 61650, Note_off_c, 1, 49, 0
1, 64119, Note_on_c, 1, 68, 127
1, 64640, Note_off_c, 1, 68, 0
1, 64830, Note_on_c, 1, 80, 127
1, 64992, Note_off_c, 1, 80, 0
1, 65178, Note_on_c, 1, 83, 127
1, 65503, Note_off_c, 1, 83, 0
1, 65925, Note_on_c, 1, 78, 127
1, 66100, Note_off_c, 1, 78, 0
1, 68387, Note_on_c, 1, 47, 127
1, 68389, Note_on_c, 1, 53, 127
1, 68389, Note_on_c, 1, 50, 127
1, 68389, Note_on_c, 1, 56, 127
1, 68389, Note_on_c, 1, 65, 127
1, 68389, Note_on_c, 1, 74, 127
1, 68389, Note_on_c, 1, 71, 127
1, 68389, Note_on_c, 1, 62, 127
1, 69018, Note_off_c, 1, 47, 0
1, 69020, Note_off_c, 1, 53, 0
1, 69020, Note_off_c, 1, 50, 0
1, 69020, Note_off_c, 1, 56, 0
1, 69020, Note_off_c, 1, 65, 0
1, 69020, Note_off_c, 1, 74, 0
1, 69020, Note_off_c, 1, 71, 0
1, 69020, Note_off_c, 1, 62, 0
1, 69023, Note_on_c, 1, 45, 127
1, 69024, Note_on_c, 1, 53, 127
1, 69024, Note_on_c, 1, 50, 127
1, 69024, Note_on_c, 1, 57, 127
1, 69024, Note_on_c, 1, 65, 127
1, 69024, Note_on_c, 1, 62, 127
1, 69024, Note_on_c, 1, 74, 127
1, 69024, Note_on_c, 1, 69, 127
1, 69654, Note_off_c, 1, 45, 0
1, 69655, Note_off_c, 1, 53, 0
1, 69655, Note_off_c, 1, 50, 0
1, 69655, Note_off_c, 1, 57, 0
1, 69655, Note_off_c, 1, 65, 0
1, 69655, Note_off_c, 1, 62, 0
1, 69655, Note_off_c, 1, 74, 0
1, 69655, Note_off_c, 1, 69, 0
1, 69658, Note_on_c, 1, 45, 127
1, 69660, Note_on_c, 1, 52, 127
1, 69660, Note_on_c, 1, 57, 127
1, 69660, Note_on_c, 1, 64, 127
1, 69660, Note_on_c, 1, 67, 127
1, 69660, Note_on_c, 1, 73, 127
1, 70289, Note_off_c, 1, 45, 0
1, 70291, Note_off_c, 1, 52, 0
1, 70291, Note_off_c, 1, 57, 0
1, 70291, Note_off_c, 1, 64, 0
1, 70291, Note_off_c, 1, 67, 0
1, 70291, Note_off_c, 1, 73, 0
1, 70294, Note_on_c, 1, 38, 127
1, 70296, Note_on_c, 1, 45, 127
1, 70298, Note_on_c, 1, 50, 127
1, 70299, Note_on_c, 1, 62, 127
1, 70301, Note_on_c, 1, 66, 127
1, 70303, Note_on_c, 1, 69, 127
1, 70305, Note_on_c, 1, 74, 127
1, 74533, Note_off_c, 1, 38, 0
1, 74535, Note_off_c, 1, 45, 0
1, 74537, Note_off_c, 1, 50, 0
1, 74538, Note_off_c, 1, 62, 0
1, 74540, Note_off_c, 1, 66, 0
1, 74542, Note_off_c, 1, 69, 0
1, 74544, Note_off_c, 1, 74, 0
1, 74728, Note_on_c, 1, 62, 127
1, 75066, Note_off_c, 1, 62, 0
1, 75070, Note_on_c, 1, 64, 127
1, 75408, Note_off_c, 1, 64, 0
1, 75412, Note_on_c, 1, 65, 127
1, 75750, Note_off_c, 1, 65, 0
1, 75754, Note_on_c, 1, 67, 127
1, 76092, Note_off_c, 1, 67, 0
1, 76096, Note_on_c, 1, 64, 127
1, 76434, Note_off_c, 1, 64, 0
1, 76439, Note_on_c, 1, 65, 127
1, 76607, Note_off_c, 1, 65, 0
1, 76611, Note_on_c, 1, 62, 127
1, 76779, Note_off_c, 1, 62, 0
1, 76782, Note_on_c, 1, 61, 127
1, 76950, Note_off_c, 1, 61, 0
1, 76954, Note_on_c, 1, 62, 127
1, 77122, Note_off_c, 1, 62, 0
1, 77126, Note_on_c, 1, 70, 127
1, 77806, Note_off_c, 1, 70, 0
1, 77811, Note_on_c, 1, 69, 127
1, 77925, Note_on_c, 1, 67, 127
1, 77935, Note_off_c, 1, 69, 0
1, 78049, Note_off_c, 1, 67, 0
1, 78267, Note_on_c, 1, 65, 127
1, 78391, Note_off_c, 1, 65, 0
1, 78837, Note_on_c, 1, 57, 127
1, 79175, Note_off_c, 1, 57, 0
1, 79179, Note_on_c, 1, 59, 127
1, 79519, Note_off_c, 1, 59, 0
1, 79523, Note_on_c, 1, 65, 127
1, 79523, Note_on_c, 1, 61, 127
1, 79691, Note_off_c, 1, 65, 0
1, 79695, Note_on_c, 1, 64, 127
1, 79863, Note_off_c, 1, 61, 0
1, 79863, Note_off_c, 1, 64, 0
1, 79867, Note_on_c, 1, 67, 127
1, 79867, Note_on_c, 1, 62, 127
1, 80035, Note_off_c, 1, 67, 0
1, 80039, Note_on_c, 1, 65, 127
1, 80207, Note_off_c, 1, 62, 0
1, 80207, Note_off_c, 1, 65, 0
1, 80211, Note_on_c, 1, 64, 127
1, 80211, Note_on_c, 1, 59, 127
1, 80379, Note_off_c, 1, 64, 0
1, 80383, Note_on_c, 1, 62, 127
1, 80551, Note_off_c, 1, 59, 0
1, 80551, Note_off_c, 1, 62, 0
1, 80555, Note_on_c, 1, 60, 127
1, 80555, Note_on_c, 1, 64, 127
1, 80723, Note_off_c, 1, 60, 0
1, 80726, Note_on_c, 1, 57, 127
1, 80894, Note_off_c, 1, 57, 0
1, 80895, Note_off_c, 1, 64, 0
1, 80898, Note_on_c, 1, 56, 127
1, 80898, Note_on_c, 1, 72, 127
1, 81066, Note_off_c, 1, 56, 0
1, 81070, Note_on_c, 1, 57, 127
1, 81238, Note_off_c, 1, 57, 0
1, 81242, Note_on_c, 1, 65, 127
1, 81410, Note_off_c, 1, 72, 0
1, 81414, Note_on_c, 1, 71, 127
1, 81582, Note_off_c, 1, 71, 0
1, 81586, Note_on_c, 1, 69, 127
1, 81754, Note_off_c, 1, 69, 0
1, 81926, Note_off_c, 1, 65, 0
1, 81930, Note_on_c, 1, 64, 127
1, 81930, Note_on_c, 1, 71, 127
1, 82044, Note_on_c, 1, 62, 127
1, 82054, Note_off_c, 1, 64, 0
1, 82098, Note_off_c, 1, 71, 0
1, 82102, Note_on_c, 1, 69, 127
1, 82170, Note_off_c, 1, 62, 0
1, 82270, Note_off_c, 1, 69, 0
1, 82274, Note_on_c, 1, 68, 127
1, 82388, Note_on_c, 1, 61, 127
1, 82442, Note_off_c, 1, 68, 0
1, 82514, Note_off_c, 1, 61, 0
1, 82790, Note_on_c, 1, 67, 127
1, 82958, Note_off_c, 1, 67, 0
1, 82962, Note_on_c, 1, 66, 127
1, 83130, Note_off_c, 1, 66, 0
1, 83306, Note_on_c, 1, 76, 127
1, 83822, Note_on_c, 1, 59, 127
1, 83990, Note_off_c, 1, 76, 0
1, 83990, Note_off_c, 1, 59, 0
1, 83994, Note_on_c, 1, 62, 127
1, 83994, Note_on_c, 1, 67, 127
1, 84162, Note_off_c, 1, 62, 0
1, 84165, Note_on_c, 1, 61, 127
1, 84333, Note_off_c, 1, 61, 0
1, 84337, Note_on_c, 1, 59, 127
1, 84505, Note_off_c, 1, 59, 0
1, 84509, Note_on_c, 1, 57, 127
1, 84677, Note_off_c, 1, 57, 0
1, 84678, Note_off_c, 1, 67, 0
1, 84681, Note_on_c, 1, 65, 127
1, 84681, Note_on_c, 1, 62, 127
1, 85019, Note_off_c, 1, 65, 0
1, 85023, Note_on_c, 1, 50, 127
1, 85023, Note_on_c, 1, 74, 127
1, 85357, Note_off_c, 1, 62, 0
1, 85361, Note_off_c, 1, 50, 0
1, 85366, Note_on_c, 1, 52, 127
1, 85533, Note_off_c, 1, 74, 0
1, 85537, Note_on_c, 1, 72, 127
1, 85705, Note_off_c, 1, 72, 0
1, 85706, Note_off_c, 1, 52, 0
1, 85709, Note_on_c, 1, 70, 127
1, 85709, Note_on_c, 1, 53, 127
1, 85877, Note_off_c, 1, 70, 0
1, 85881, Note_on_c, 1, 69, 127
1, 86049, Note_off_c, 1, 53, 0
1, 86049, Note_off_c, 1, 69, 0
1, 86053, Note_on_c, 1, 72, 127
1, 86053, Note_on_c, 1, 55, 127
1, 86221, Note_off_c, 1, 72, 0
1, 86225, Note_on_c, 1, 70, 127
1, 86393, Note_off_c, 1, 55, 0
1, 86393, Note_off_c, 1, 70, 0
1, 86397, Note_on_c, 1, 69, 127
1, 86397, Note_on_c, 1, 52, 127
1, 86565, Note_off_c, 1, 69, 0
1, 86569, Note_on_c, 1, 67, 127
1, 86737, Note_off_c, 1, 52, 0
1, 86737, Note_off_c, 1, 67, 0
1, 86741, Note_on_c, 1, 53, 127
1, 86741, Note_on_c, 1, 69, 127
1, 86909, Note_off_c, 1, 53, 0
1, 86913, Note_on_c, 1, 50, 127
1, 87081, Note_off_c, 1, 50, 0
1, 87085, Note_on_c, 1, 49, 127
1, 87085, Note_on_c, 1, 65, 127
1, 87253, Note_off_c, 1, 49, 0
1, 87425, Note_off_c, 1, 69, 0
1, 87429, Note_on_c, 1, 58, 127
1, 87429, Note_on_c, 1, 67, 127
1, 87597, Note_off_c, 1, 65, 0
1, 87601, Note_on_c, 1, 64, 127
1, 87769, Note_off_c, 1, 64, 0
1, 87773, Note_on_c, 1, 62, 127
1, 87941, Note_off_c, 1, 62, 0
1, 88113, Note_off_c, 1, 58, 0
1, 88117, Note_on_c, 1, 57, 127
1, 88231, Note_on_c, 1, 55, 127
1, 88241, Note_off_c, 1, 57, 0
1, 88357, Note_off_c, 1, 55, 0
1, 88461, Note_on_c, 1, 61, 127
1, 88629, Note_off_c, 1, 61, 0
1, 89143, Note_off_c, 1, 67, 0
1, 89833, Note_on_c, 1, 53, 127
1, 89833, Note_on_c, 1, 67, 127
1, 89833, Note_on_c, 1, 64, 127
1, 90001, Note_off_c, 1, 53, 0
1, 90005, Note_on_c, 1, 52, 127
1, 90173, Note_off_c, 1, 67, 0
1, 90173, Note_off_c, 1, 64, 0
1, 90173, Note_off_c, 1, 52, 0
1, 90176, Note_on_c, 1, 55, 127
1, 90176, Note_on_c, 1, 69, 127
1, 90176, Note_on_c, 1, 61, 127
1, 90344, Note_off_c, 1, 55, 0
1, 90348, Note_on_c, 1, 53, 127
1, 90516, Note_off_c, 1, 69, 0
1, 90516, Note_off_c, 1, 61, 0
1, 90516, Note_off_c, 1, 53, 0
1, 90520, Note_on_c, 1, 52, 127
1, 90520, Note_on_c, 1, 65, 127
1, 90520, Note_on_c, 1, 62, 127
1, 90688, Note_off_c, 1, 52, 0
1, 90692, Note_on_c, 1, 50, 127
1, 90860, Note_off_c, 1, 65, 0
1, 90860, Note_off_c, 1, 62, 0
1, 90860, Note_off_c, 1, 50, 0
1, 90864, Note_on_c, 1, 70, 127
1, 90864, Note_on_c, 1, 63, 127
1, 90864, Note_on_c, 1, 55, 127
1, 91032, Note_off_c, 1, 70, 0
1, 91036, Note_on_c, 1, 67, 127
1, 91204, Note_off_c, 1, 63, 0
1, 91204, Note_off_c, 1, 55, 0
1, 91204, Note_off_c, 1, 67, 0
1, 91208, Note_on_c, 1, 66, 127
1, 91208, Note_on_c, 1, 62, 127
1, 91208, Note_on_c, 1, 58, 127
1, 91376, Note_off_c, 1, 66, 0
1, 91380, Note_on_c, 1, 67, 127
1, 91548, Note_off_c, 1, 62, 0
1, 91548, Note_off_c, 1, 67, 0
1, 91552, Note_on_c, 1, 75, 127
1, 91720, Note_off_c, 1, 58, 0
1, 91724, Note_on_c, 1, 57, 127
1, 91892, Note_off_c, 1, 57, 0
1, 91896, Note_on_c, 1, 55, 127
1, 92064, Note_off_c, 1, 55, 0
1, 92236, Note_off_c, 1, 75, 0
1, 92240, Note_on_c, 1, 74, 127
1, 92240, Note_on_c, 1, 57, 127
1, 92240, Note_on_c, 1, 64, 127
1, 92354, Note_on_c, 1, 73, 127
1, 92364, Note_off_c, 1, 74, 0
1, 92408, Note_off_c, 1, 57, 0
1, 92412, Note_on_c, 1, 55, 127
1, 92480, Note_off_c, 1, 73, 0
1, 92580, Note_off_c, 1, 55, 0
1, 92584, Note_on_c, 1, 53, 127
1, 92698, Note_on_c, 1, 71, 127
1, 92752, Note_off_c, 1, 53, 0
1, 92824, Note_off_c, 1, 71, 0
1, 92920, Note_off_c, 1, 64, 0
1, 93100, Note_on_c, 1, 69, 127
1, 93268, Note_off_c, 1, 69, 0
1, 93272, Note_on_c, 1, 67, 127
1, 93272, Note_on_c, 1, 52, 127
1, 93440, Note_off_c, 1, 67, 0
1, 93440, Note_off_c, 1, 52, 0
1, 93615, Note_on_c, 1, 57, 127
1, 93615, Note_on_c, 1, 74, 127
1, 93615, Note_on_c, 1, 65, 127
1, 93783, Note_off_c, 1, 57, 0
1, 93787, Note_on_c, 1, 55, 127
1, 93955, Note_off_c, 1, 55, 0
1, 93959, Note_on_c, 1, 53, 127
1, 94127, Note_off_c, 1, 53, 0
1, 94299, Note_off_c, 1, 74, 0
1, 94299, Note_off_c, 1, 65, 0
1, 94303, Note_on_c, 1, 72, 127
1, 94303, Note_on_c, 1, 55, 127
1, 94303, Note_on_c, 1, 62, 127
1, 94417, Note_on_c, 1, 71, 127
1, 94427, Note_off_c, 1, 72, 0
1, 94471, Note_off_c, 1, 55, 0
1, 94475, Note_on_c, 1, 53, 127
1, 94543, Note_off_c, 1, 71, 0
1, 94643, Note_off_c, 1, 53, 0
1, 94647, Note_on_c, 1, 52, 127
1, 94761, Note_on_c, 1, 69, 127
1, 94815, Note_off_c, 1, 52, 0
1, 94887, Note_off_c, 1, 69, 0
1, 94983, Note_off_c, 1, 62, 0
1, 95163, Note_on_c, 1, 67, 127
1, 95331, Note_off_c, 1, 67, 0
1, 95335, Note_on_c, 1, 65, 127
1, 95335, Note_on_c, 1, 50, 127
1, 95503, Note_off_c, 1, 65, 0
1, 95503, Note_off_c, 1, 50, 0
1, 95679, Note_on_c, 1, 55, 127
1, 95679, Note_on_c, 1, 72, 127
1, 95679, Note_on_c, 1, 63, 127
1, 95847, Note_off_c, 1, 55, 0
1, 95851, Note_on_c, 1, 53, 127
1, 96019, Note_off_c, 1, 53, 0
1, 96023, Note_on_c, 1, 51, 127
1, 96191, Note_off_c, 1, 51, 0
1, 96363, Note_off_c, 1, 72, 0
1, 96363, Note_off_c, 1, 63, 0
1, 96367, Note_on_c, 1, 70, 127
1, 96367, Note_on_c, 1, 53, 127
1, 96367, Note_on_c, 1, 60, 127
1, 96481, Note_on_c, 1, 69, 127
1, 96491, Note_off_c, 1, 70, 0
1, 96535, Note_off_c, 1, 53, 0
1, 96539, Note_on_c, 1, 51, 127
1, 96607, Note_off_c, 1, 69, 0
1, 96707, Note_off_c, 1, 51, 0
1, 96711, Note_on_c, 1, 50, 127
1, 96825, Note_on_c, 1, 67, 127
1, 96879, Note_off_c, 1, 50, 0
1, 96882, Note_off_c, 1, 60, 0
1, 96951, Note_off_c, 1, 67, 0
1, 97398, Note_on_c, 1, 49, 127
1, 97566, Note_off_c, 1, 49, 0
1, 97742, Note_on_c, 1, 58, 127
1, 98084, Note_on_c, 1, 65, 127
1, 98409, Note_off_c, 1, 58, 0
1, 98422, Note_off_c, 1, 65, 0
1, 98426, Note_on_c, 1, 57, 127
1, 98426, Note_on_c, 1, 64, 127
1, 98540, Note_on_c, 1, 55, 127
1, 98550, Note_off_c, 1, 57, 0
1, 98664, Note_off_c, 1, 55, 0
1, 98764, Note_off_c, 1, 64, 0
1, 99111, Note_on_c, 1, 61, 127
1, 99791, Note_off_c, 1, 61, 0
1, 99795, Note_on_c, 1, 71, 127
1, 99795, Note_on_c, 1, 62, 127
1, 100135, Note_off_c, 1, 71, 0
1, 100135, Note_off_c, 1, 62, 0
1, 100139, Note_on_c, 1, 53, 127
1, 100139, Note_on_c, 1, 73, 127
1, 100139, Note_on_c, 1, 64, 127
1, 100307, Note_off_c, 1, 53, 0
1, 100311, Note_on_c, 1, 52, 127
1, 100479, Note_off_c, 1, 73, 0
1, 100479, Note_off_c, 1, 64, 0
1, 100479, Note_off_c, 1, 52, 0
1, 100483, Note_on_c, 1, 55, 127
1, 100483, Note_on_c, 1, 74, 127
1, 100483, Note_on_c, 1, 57, 127
1, 100651, Note_off_c, 1, 55, 0
1, 100655, Note_on_c, 1, 53, 127
1, 100823, Note_off_c, 1, 74, 0
1, 100823, Note_off_c, 1, 53, 0
1, 100827, Note_on_c, 1, 52, 127
1, 100827, Note_on_c, 1, 71, 127
1, 100995, Note_off_c, 1, 52, 0
1, 100998, Note_on_c, 1, 50, 127
1, 101091, Note_off_c, 1, 57, 0
1, 101164, Note_off_c, 1, 50, 0
1, 101165, Note_off_c, 1, 71, 0
1, 101169, Note_on_c, 1, 73, 127
1, 101169, Note_on_c, 1, 52, 127
1, 101337, Note_off_c, 1, 73, 0
1, 101341, Note_on_c, 1, 69, 127
1, 101509, Note_off_c, 1, 52, 0
1, 101509, Note_off_c, 1, 69, 0
1, 101513, Note_on_c, 1, 68, 127
1, 101513, Note_on_c, 1, 64, 127
1, 101513, Note_on_c, 1, 49, 127
1, 101681, Note_off_c, 1, 68, 0
1, 101684, Note_on_c, 1, 69, 127
1, 101852, Note_off_c, 1, 69, 0
1, 101853, Note_off_c, 1, 64, 0
1, 101853, Note_off_c, 1, 49, 0
1, 101856, Note_on_c, 1, 62, 127
1, 101856, Note_on_c, 1, 50, 127
1, 101856, Note_on_c, 1, 77, 127
1, 102194, Note_off_c, 1, 62, 0
1, 102194, Note_off_c, 1, 50, 0
1, 102199, Note_on_c, 1, 61, 127
1, 102199, Note_on_c, 1, 52, 127
1, 102491, Note_off_c, 1, 77, 0
1, 102539, Note_off_c, 1, 61, 0
1, 102539, Note_off_c, 1, 52, 0
1, 102542, Note_on_c, 1, 76, 127
1, 102542, Note_on_c, 1, 59, 127
1, 102542, Note_on_c, 1, 53, 127
1, 102656, Note_on_c, 1, 74, 127
1, 102666, Note_off_c, 1, 76, 0
1, 102780, Note_off_c, 1, 74, 0
1, 102880, Note_off_c, 1, 59, 0
1, 102880, Note_off_c, 1, 53, 0
1, 102884, Note_on_c, 1, 62, 127
1, 102884, Note_on_c, 1, 50, 127
1, 102999, Note_on_c, 1, 73, 127
1, 103123, Note_off_c, 1, 73, 0
1, 103222, Note_off_c, 1, 62, 0
1, 103222, Note_off_c, 1, 50, 0
1, 103227, Note_on_c, 1, 61, 127
1, 103227, Note_on_c, 1, 57, 127
1, 103395, Note_off_c, 1, 61, 0
1, 103399, Note_on_c, 1, 64, 127
1, 103567, Note_off_c, 1, 64, 0
1, 103570, Note_on_c, 1, 65, 127
1, 103570, Note_on_c, 1, 81, 127
1, 103738, Note_off_c, 1, 65, 0
1, 103742, Note_off_c, 1, 57, 0
1, 103914, Note_on_c, 1, 54, 127
1, 104082, Note_off_c, 1, 81, 0
1, 104086, Note_on_c, 1, 79, 127
1, 104254, Note_off_c, 1, 54, 0
1, 104254, Note_off_c, 1, 79, 0
1, 104258, Note_on_c, 1, 78, 127
1, 104258, Note_on_c, 1, 52, 127
1, 104426, Note_off_c, 1, 78, 0
1, 104598, Note_off_c, 1, 52, 0
1, 104602, Note_on_c, 1, 79, 127
1, 104602, Note_on_c, 1, 50, 127
1, 104602, Note_on_c, 1, 60, 127
1, 104770, Note_off_c, 1, 79, 0
1, 104774, Note_on_c, 1, 78, 127
1, 104942, Note_off_c, 1, 50, 0
1, 104942, Note_off_c, 1, 78, 0
1, 104946, Note_on_c, 1, 76, 127
1, 104946, Note_on_c, 1, 54, 127
1, 105114, Note_off_c, 1, 76, 0
1, 105118, Note_on_c, 1, 74, 127
1, 105286, Note_off_c, 1, 60, 0
1, 105286, Note_off_c, 1, 54, 0
1, 105286, Note_off_c, 1, 74, 0
1, 105290, Note_on_c, 1, 75, 127
1, 105290, Note_on_c, 1, 58, 127
1, 105290, Note_on_c, 1, 55, 127
1, 105458, Note_off_c, 1, 75, 0
1, 105458, Note_off_c, 1, 58, 0
1, 105462, Note_on_c, 1, 84, 127
1, 105462, Note_on_c, 1, 62, 127
1, 105630, Note_off_c, 1, 84, 0
1, 105630, Note_off_c, 1, 62, 0
1, 105634, Note_on_c, 1, 63, 127
1, 105634, Note_on_c, 1, 82, 127
1, 105802, Note_off_c, 1, 63, 0
1, 105805, Note_off_c, 1, 55, 0
1, 105978, Note_on_c, 1, 56, 127
1, 105978, Note_on_c, 1, 59, 127
1, 106097, Note_off_c, 1, 82, 0
1, 106150, Note_on_c, 1, 81, 127
1, 106318, Note_off_c, 1, 56, 0
1, 106318, Note_off_c, 1, 81, 0
1, 106322, Note_on_c, 1, 80, 127
1, 106322, Note_on_c, 1, 54, 127
1, 106490, Note_off_c, 1, 80, 0
1, 106494, Note_on_c, 1, 78, 127
1, 106662, Note_off_c, 1, 59, 0
1, 106662, Note_off_c, 1, 54, 0
1, 106662, Note_off_c, 1, 78, 0
1, 106666, Note_on_c, 1, 81, 127
1, 106666, Note_on_c, 1, 52, 127
1, 106666, Note_on_c, 1, 64, 127
1, 106834, Note_off_c, 1, 81, 0
1, 106838, Note_on_c, 1, 80, 127
1, 107006, Note_off_c, 1, 52, 0
1, 107006, Note_off_c, 1, 80, 0
1, 107009, Note_on_c, 1, 78, 127
1, 107009, Note_on_c, 1, 56, 127
1, 107177, Note_off_c, 1, 78, 0
1, 107181, Note_on_c, 1, 76, 127
1, 107349, Note_off_c, 1, 56, 0
1, 107349, Note_off_c, 1, 76, 0
1, 107353, Note_on_c, 1, 74, 127
1, 107353, Note_on_c, 1, 57, 127
1, 107521, Note_off_c, 1, 74, 0
1, 107525, Note_on_c, 1, 72, 127
1, 107693, Note_off_c, 1, 72, 0
1, 107695, Note_off_c, 1, 64, 0
1, 107697, Note_on_c, 1, 71, 127
1, 107697, Note_on_c, 1, 45, 127
1, 107865, Note_off_c, 1, 71, 0
1, 108037, Note_off_c, 1, 45, 0
1, 108041, Note_on_c, 1, 47, 127
1, 108381, Note_off_c, 1, 47, 0
1, 108385, Note_on_c, 1, 69, 127
1, 108385, Note_on_c, 1, 48, 127
1, 108553, Note_off_c, 1, 69, 0
1, 108725, Note_off_c, 1, 48, 0
1, 108729, Note_on_c, 1, 50, 127
1, 109069, Note_off_c, 1, 50, 0
1, 109072, Note_off_c, 1, 57, 0
1, 109073, Note_on_c, 1, 68, 127
1, 109073, Note_on_c, 1, 47, 127
1, 109241, Note_off_c, 1, 68, 0
1, 109245, Note_on_c, 1, 69, 127
1, 109413, Note_off_c, 1, 47, 0
1, 109413, Note_off_c, 1, 69, 0
1, 109417, Note_on_c, 1, 49, 127
1, 109417, Note_on_c, 1, 67, 127
1, 109585, Note_off_c, 1, 49, 0
1, 109589, Note_on_c, 1, 45, 127
1, 109757, Note_off_c, 1, 45, 0
1, 109761, Note_on_c, 1, 44, 127
1, 109761, Note_on_c, 1, 57, 127
1, 109929, Note_off_c, 1, 44, 0
1, 110101, Note_off_c, 1, 57, 0
1, 110105, Note_on_c, 1, 59, 127
1, 110105, Note_on_c, 1, 53, 127
1, 110273, Note_off_c, 1, 67, 0
1, 110277, Note_on_c, 1, 65, 127
1, 110445, Note_off_c, 1, 59, 0
1, 110445, Note_off_c, 1, 65, 0
1, 110448, Note_on_c, 1, 64, 127
1, 110448, Note_on_c, 1, 61, 127
1, 110616, Note_off_c, 1, 64, 0
1, 110788, Note_off_c, 1, 61, 0
1, 110789, Note_off_c, 1, 53, 0
1, 110792, Note_on_c, 1, 52, 127
1, 110792, Note_on_c, 1, 65, 127
1, 110792, Note_on_c, 1, 62, 127
1, 110906, Note_on_c, 1, 50, 127
1, 110916, Note_off_c, 1, 52, 0
1, 110960, Note_off_c, 1, 65, 0
1, 110964, Note_on_c, 1, 64, 127
1, 111032, Note_off_c, 1, 50, 0
1, 111132, Note_off_c, 1, 62, 0
1, 111132, Note_off_c, 1, 64, 0
1, 111136, Note_on_c, 1, 59, 127
1, 111250, Note_on_c, 1, 48, 127
1, 111308, Note_on_c, 1, 69, 127
1, 111376, Note_off_c, 1, 48, 0
1, 111476, Note_off_c, 1, 59, 0
1, 111476, Note_off_c, 1, 69, 0
1, 111480, Note_on_c, 1, 60, 127
1, 111648, Note_off_c, 1, 60, 0
1, 111652, Note_on_c, 1, 57, 127
1, 111820, Note_off_c, 1, 57, 0
1, 111824, Note_on_c, 1, 56, 127
1, 111824, Note_on_c, 1, 53, 127
1, 111992, Note_off_c, 1, 56, 0
1, 112164, Note_off_c, 1, 53, 0
1, 113200, Note_on_c, 1, 47, 127
1, 113368, Note_off_c, 1, 47, 0
1, 114400, Note_on_c, 1, 75, 127
1, 114568, Note_off_c, 1, 75, 0
1, 114572, Note_on_c, 1, 76, 127
1, 114740, Note_off_c, 1, 76, 0
1, 114916, Note_on_c, 1, 72, 127
1, 115084, Note_off_c, 1, 72, 0
1, 115088, Note_on_c, 1, 71, 127
1, 115256, Note_off_c, 1, 71, 0
1, 115431, Note_on_c, 1, 68, 127
1, 115599, Note_off_c, 1, 68, 0
1, 115603, Note_on_c, 1, 69, 127
1, 115603, Note_on_c, 1, 57, 127
1, 115771, Note_off_c, 1, 69, 0
1, 115775, Note_on_c, 1, 68, 127
1, 115943, Note_off_c, 1, 68, 0
1, 115947, Note_on_c, 1, 45, 127
1, 116285, Note_off_c, 1, 45, 0
1, 116289, Note_on_c, 1, 47, 127
1, 116461, Note_on_c, 1, 67, 127
1, 116629, Note_off_c, 1, 47, 0
1, 116629, Note_off_c, 1, 67, 0
1, 116633, Note_on_c, 1, 65, 127
1, 116633, Note_on_c, 1, 49, 127
1, 116801, Note_off_c, 1, 65, 0
1, 116805, Note_on_c, 1, 64, 127
1, 116973, Note_off_c, 1, 49, 0
1, 116973, Note_off_c, 1, 64, 0
1, 116977, Note_on_c, 1, 50, 127
1, 117317, Note_off_c, 1, 50, 0
1, 117320, Note_off_c, 1, 57, 0
1, 117321, Note_on_c, 1, 64, 127
1, 117321, Note_on_c, 1, 47, 127
1, 117489, Note_off_c, 1, 64, 0
1, 117493, Note_on_c, 1, 62, 127
1, 117661, Note_off_c, 1, 47, 0
1, 117661, Note_off_c, 1, 62, 0
1, 117665, Note_on_c, 1, 49, 127
1, 117665, Note_on_c, 1, 64, 127
1, 117833, Note_off_c, 1, 49, 0
1, 117837, Note_on_c, 1, 45, 127
1, 118005, Note_off_c, 1, 64, 0
1, 118005, Note_off_c, 1, 45, 0
1, 118009, Note_on_c, 1, 44, 127
1, 118009, Note_on_c, 1, 76, 127
1, 118177, Note_off_c, 1, 44, 0
1, 118181, Note_on_c, 1, 45, 127
1, 118349, Note_off_c, 1, 76, 0
1, 118349, Note_off_c, 1, 45, 0
1, 118353, Note_on_c, 1, 74, 127
1, 118353, Note_on_c, 1, 53, 127
1, 118691, Note_off_c, 1, 74, 0
1, 118695, Note_on_c, 1, 73, 127
1, 119020, Note_off_c, 1, 53, 0
1, 119033, Note_off_c, 1, 73, 0
1, 119037, Note_on_c, 1, 52, 127
1, 119037, Note_on_c, 1, 71, 127
1, 119151, Note_on_c, 1, 50, 127
1, 119161, Note_off_c, 1, 52, 0
1, 119275, Note_off_c, 1, 50, 0
1, 119375, Note_off_c, 1, 71, 0
1, 119379, Note_on_c, 1, 74, 127
1, 119493, Note_on_c, 1, 49, 127
1, 119617, Note_off_c, 1, 49, 0
1, 119717, Note_off_c, 1, 74, 0
1, 119721, Note_on_c, 1, 73, 127
1, 119721, Note_on_c, 1, 57, 127
1, 119889, Note_off_c, 1, 73, 0
1, 119893, Note_on_c, 1, 76, 127
1, 120061, Note_off_c, 1, 76, 0
1, 120065, Note_on_c, 1, 77, 127
1, 120065, Note_on_c, 1, 53, 127
1, 120233, Note_off_c, 1, 77, 0
1, 120401, Note_off_c, 1, 57, 0
1, 120405, Note_off_c, 1, 53, 0
1, 120409, Note_on_c, 1, 52, 127
1, 120409, Note_on_c, 1, 67, 127
1, 120747, Note_off_c, 1, 52, 0
1, 120751, Note_on_c, 1, 50, 127
1, 121089, Note_off_c, 1, 67, 0
1, 121089, Note_off_c, 1, 50, 0
1, 121093, Note_on_c, 1, 67, 127
1, 121093, Note_on_c, 1, 49, 127
1, 121225, Note_off_c, 1, 67, 0
1, 121227, Note_on_c, 1, 69, 127
1, 121359, Note_off_c, 1, 69, 0
1, 121361, Note_on_c, 1, 70, 127
1, 121431, Note_off_c, 1, 49, 0
1, 121435, Note_on_c, 1, 52, 127
1, 121773, Note_off_c, 1, 52, 0
1, 121777, Note_on_c, 1, 50, 127
1, 121945, Note_off_c, 1, 50, 0
1, 121947, Note_off_c, 1, 70, 0
1, 121949, Note_on_c, 1, 69, 127
1, 121949, Note_on_c, 1, 53, 127
1, 122117, Note_off_c, 1, 69, 0
1, 122117, Note_off_c, 1, 53, 0
1, 122121, Note_on_c, 1, 67, 127
1, 122121, Note_on_c, 1, 55, 127
1, 122289, Note_off_c, 1, 67, 0
1, 122289, Note_off_c, 1, 55, 0
1, 122293, Note_on_c, 1, 69, 127
1, 122293, Note_on_c, 1, 53, 127
1, 122461, Note_off_c, 1, 69, 0
1, 122461, Note_off_c, 1, 53, 0
1, 122465, Note_on_c, 1, 69, 127
1, 122465, Note_on_c, 1, 45, 127
1, 122633, Note_off_c, 1, 69, 0
1, 122637, Note_on_c, 1, 67, 127
1, 122805, Note_off_c, 1, 67, 0
1, 122809, Note_on_c, 1, 65, 127
1, 122977, Note_off_c, 1, 65, 0
1, 123136, Note_off_c, 1, 45, 0
1, 123153, Note_on_c, 1, 50, 127
1, 123153, Note_on_c, 1, 67, 127
1, 123267, Note_on_c, 1, 49, 127
1, 123277, Note_off_c, 1, 50, 0
1, 123321, Note_off_c, 1, 67, 0
1, 123325, Note_on_c, 1, 65, 127
1, 123393, Note_off_c, 1, 49, 0
1, 123493, Note_off_c, 1, 65, 0
1, 123497, Note_on_c, 1, 64, 127
1, 123611, Note_on_c, 1, 47, 127
1, 123665, Note_off_c, 1, 64, 0
1, 123737, Note_off_c, 1, 47, 0
1, 124186, Note_on_c, 1, 62, 127
1, 124527, Note_off_c, 1, 62, 0
1, 124531, Note_on_c, 1, 60, 127
1, 124873, Note_off_c, 1, 60, 0
1, 124877, Note_on_c, 1, 66, 127
1, 124877, Note_on_c, 1, 58, 127
1, 125046, Note_off_c, 1, 66, 0
1, 125219, Note_off_c, 1, 58, 0
1, 125223, Note_on_c, 1, 57, 127
1, 125565, Note_off_c, 1, 57, 0
1, 125569, Note_on_c, 1, 69, 127
1, 125738, Note_off_c, 1, 69, 0
1, 125914, Note_on_c, 1, 67, 127
1, 125914, Note_on_c, 1, 58, 127
1, 126083, Note_off_c, 1, 67, 0
1, 126087, Note_on_c, 1, 69, 127
1, 126256, Note_off_c, 1, 69, 0
1, 126260, Note_on_c, 1, 70, 127
1, 126260, Note_on_c, 1, 55, 127
1, 126429, Note_off_c, 1, 70, 0
1, 126602, Note_off_c, 1, 58, 0
1, 126602, Note_off_c, 1, 55, 0
1, 126606, Note_on_c, 1, 69, 127
1, 126606, Note_on_c, 1, 54, 127
1, 126606, Note_on_c, 1, 62, 127
1, 126775, Note_off_c, 1, 69, 0
1, 126779, Note_on_c, 1, 71, 127
1, 126948, Note_off_c, 1, 54, 0
1, 126948, Note_off_c, 1, 71, 0
1, 126952, Note_on_c, 1, 72, 127
1, 126952, Note_on_c, 1, 52, 127
1, 127121, Note_off_c, 1, 72, 0
1, 127294, Note_off_c, 1, 52, 0
1, 127298, Note_on_c, 1, 50, 127
1, 127471, Note_on_c, 1, 73, 127
1, 127640, Note_off_c, 1, 50, 0
1, 127640, Note_off_c, 1, 73, 0
1, 127644, Note_on_c, 1, 74, 127
1, 127644, Note_on_c, 1, 53, 127
1, 127813, Note_off_c, 1, 74, 0
1, 127985, Note_off_c, 1, 62, 0
1, 127986, Note_off_c, 1, 53, 0
1, 127990, Note_on_c, 1, 73, 127
1, 127990, Note_on_c, 1, 55, 127
1, 127990, Note_on_c, 1, 52, 127
1, 128331, Note_off_c, 1, 73, 0
1, 128335, Note_on_c, 1, 81, 127
1, 128672, Note_off_c, 1, 55, 0
1, 128676, Note_off_c, 1, 81, 0
1, 128680, Note_on_c, 1, 79, 127
1, 128849, Note_off_c, 1, 52, 0
1, 128853, Note_on_c, 1, 50, 127
1, 129022, Note_off_c, 1, 79, 0
1, 129022, Note_off_c, 1, 50, 0
1, 129026, Note_on_c, 1, 49, 127
1, 129026, Note_on_c, 1, 77, 127
1, 129195, Note_off_c, 1, 49, 0
1, 129199, Note_on_c, 1, 47, 127
1, 129368, Note_off_c, 1, 77, 0
1, 129368, Note_off_c, 1, 47, 0
1, 129372, Note_on_c, 1, 50, 127
1, 129372, Note_on_c, 1, 76, 127
1, 129541, Note_off_c, 1, 50, 0
1, 129545, Note_on_c, 1, 49, 127
1, 129714, Note_off_c, 1, 76, 0
1, 129714, Note_off_c, 1, 49, 0
1, 129718, Note_on_c, 1, 47, 127
1, 129718, Note_on_c, 1, 79, 127
1, 129887, Note_off_c, 1, 47, 0
1, 129891, Note_on_c, 1, 45, 127
1, 130060, Note_off_c, 1, 79, 0
1, 130060, Note_off_c, 1, 45, 0
1, 130064, Note_on_c, 1, 77, 127
1, 130064, Note_on_c, 1, 50, 127
1, 130233, Note_off_c, 1, 77, 0
1, 130237, Note_on_c, 1, 81, 127
1, 130406, Note_off_c, 1, 81, 0
1, 130410, Note_on_c, 1, 82, 127
1, 130410, Note_on_c, 1, 62, 127
1, 130579, Note_off_c, 1, 82, 0
1, 130748, Note_off_c, 1, 50, 0
1, 130752, Note_off_c, 1, 62, 0
1, 130755, Note_on_c, 1, 64, 127
1, 130755, Note_on_c, 1, 73, 127
1, 131096, Note_off_c, 1, 64, 0
1, 131101, Note_on_c, 1, 65, 127
1, 131441, Note_off_c, 1, 73, 0
1, 131442, Note_off_c, 1, 65, 0
1, 131446, Note_on_c, 1, 67, 127
1, 131446, Note_on_c, 1, 76, 127
1, 131787, Note_off_c, 1, 67, 0
1, 131791, Note_on_c, 1, 64, 127
1, 132132, Note_off_c, 1, 64, 0
1, 132136, Note_on_c, 1, 65, 127
1, 132305, Note_off_c, 1, 65, 0
1, 132309, Note_on_c, 1, 62, 127
1, 132478, Note_off_c, 1, 76, 0
1, 132478, Note_off_c, 1, 62, 0
1, 132482, Note_on_c, 1, 61, 127
1, 132482, Note_on_c, 1, 69, 127
1, 132482, Note_on_c, 1, 57, 127
1, 132651, Note_off_c, 1, 61, 0
1, 132655, Note_on_c, 1, 62, 127
1, 132824, Note_off_c, 1, 69, 0
1, 132824, Note_off_c, 1, 57, 0
1, 132824, Note_off_c, 1, 62, 0
1, 132828, Note_on_c, 1, 55, 127
1, 132828, Note_on_c, 1, 70, 127
1, 132828, Note_on_c, 1, 74, 127
1, 133169, Note_off_c, 1, 55, 0
1, 133173, Note_on_c, 1, 53, 127
1, 133503, Note_off_c, 1, 70, 0
1, 133514, Note_off_c, 1, 74, 0
1, 133514, Note_off_c, 1, 53, 0
1, 133518, Note_on_c, 1, 69, 127
1, 133518, Note_on_c, 1, 52, 127
1, 133518, Note_on_c, 1, 72, 127
1, 133633, Note_on_c, 1, 67, 127
1, 133643, Note_off_c, 1, 69, 0
1, 133758, Note_off_c, 1, 67, 0
1, 133859, Note_off_c, 1, 52, 0
1, 133863, Note_on_c, 1, 55, 127
1, 133978, Note_on_c, 1, 66, 127
1, 134103, Note_off_c, 1, 66, 0
1, 134204, Note_off_c, 1, 55, 0
1, 134208, Note_on_c, 1, 54, 127
1, 134381, Note_on_c, 1, 57, 127
1, 134550, Note_off_c, 1, 72, 0
1, 134550, Note_off_c, 1, 57, 0
1, 134554, Note_on_c, 1, 58, 127
1, 134554, Note_on_c, 1, 75, 127
1, 134723, Note_off_c, 1, 58, 0
1, 134892, Note_off_c, 1, 54, 0
1, 134900, Note_on_c, 1, 50, 127
1, 135069, Note_off_c, 1, 75, 0
1, 135073, Note_on_c, 1, 74, 127
1, 135242, Note_off_c, 1, 74, 0
1, 135566, Note_off_c, 1, 50, 0
1, 135592, Note_on_c, 1, 74, 127
1, 135592, Note_on_c, 1, 57, 127
1, 135592, Note_on_c, 1, 54, 127
1, 135761, Note_off_c, 1, 74, 0
1, 135765, Note_on_c, 1, 72, 127
1, 135934, Note_off_c, 1, 72, 0
1, 135937, Note_on_c, 1, 70, 127
1, 136106, Note_off_c, 1, 70, 0
1, 136258, Note_off_c, 1, 57, 0
1, 136258, Note_off_c, 1, 54, 0
1, 136283, Note_on_c, 1, 72, 127
1, 136283, Note_on_c, 1, 43, 127
1, 136452, Note_off_c, 1, 72, 0
1, 136456, Note_on_c, 1, 70, 127
1, 136456, Note_on_c, 1, 55, 127
1, 136625, Note_off_c, 1, 70, 0
1, 136625, Note_off_c, 1, 55, 0
1, 136629, Note_on_c, 1, 69, 127
1, 136629, Note_on_c, 1, 54, 127
1, 136798, Note_off_c, 1, 69, 0
1, 136798, Note_off_c, 1, 54, 0
1, 136971, Note_off_c, 1, 43, 0
1, 136975, Note_on_c, 1, 74, 127
1, 136975, Note_on_c, 1, 52, 127
1, 136975, Note_on_c, 1, 48, 127
1, 137144, Note_off_c, 1, 74, 0
1, 137148, Note_on_c, 1, 72, 127
1, 137317, Note_off_c, 1, 72, 0
1, 137321, Note_on_c, 1, 70, 127
1, 137490, Note_off_c, 1, 70, 0
1, 137641, Note_off_c, 1, 52, 0
1, 137641, Note_off_c, 1, 48, 0
1, 137667, Note_on_c, 1, 72, 127
1, 137667, Note_on_c, 1, 55, 127
1, 137667, Note_on_c, 1, 52, 127
1, 137836, Note_off_c, 1, 72, 0
1, 137840, Note_on_c, 1, 70, 127
1, 138009, Note_off_c, 1, 70, 0
1, 138013, Note_on_c, 1, 69, 127
1, 138182, Note_off_c, 1, 69, 0
1, 138333, Note_off_c, 1, 55, 0
1, 138333, Note_off_c, 1, 52, 0
1, 138359, Note_on_c, 1, 70, 127
1, 138359, Note_on_c, 1, 41, 127
1, 138528, Note_off_c, 1, 70, 0
1, 138532, Note_on_c, 1, 69, 127
1, 138532, Note_on_c, 1, 53, 127
1, 138701, Note_off_c, 1, 69, 0
1, 138701, Note_off_c, 1, 53, 0
1, 138705, Note_on_c, 1, 67, 127
1, 138705, Note_on_c, 1, 52, 127
1, 138874, Note_off_c, 1, 67, 0
1, 138874, Note_off_c, 1, 52, 0
1, 139047, Note_off_c, 1, 41, 0
1, 139051, Note_on_c, 1, 72, 127
1, 139051, Note_on_c, 1, 50, 127
1, 139051, Note_on_c, 1, 46, 127
1, 139220, Note_off_c, 1, 72, 0
1, 139224, Note_on_c, 1, 70, 127
1, 139393, Note_off_c, 1, 70, 0
1, 139396, Note_on_c, 1, 69, 127
1, 139565, Note_off_c, 1, 69, 0
1, 139717, Note_off_c, 1, 50, 0
1, 139717, Note_off_c, 1, 46, 0
1, 139742, Note_on_c, 1, 70, 127
1, 139742, Note_on_c, 1, 53, 127
1, 139742, Note_on_c, 1, 50, 127
1, 139911, Note_off_c, 1, 70, 0
1, 139915, Note_on_c, 1, 69, 127
1, 140084, Note_off_c, 1, 69, 0
1, 140088, Note_on_c, 1, 67, 127
1, 140257, Note_off_c, 1, 67, 0
1, 140408, Note_off_c, 1, 53, 0
1, 140408, Note_off_c, 1, 50, 0
1, 140434, Note_on_c, 1, 69, 127
1, 140434, Note_on_c, 1, 52, 127
1, 140603, Note_off_c, 1, 69, 0
1, 140607, Note_on_c, 1, 67, 127
1, 140776, Note_off_c, 1, 67, 0
1, 140780, Note_on_c, 1, 65, 127
1, 140780, Note_on_c, 1, 53, 127
1, 140949, Note_off_c, 1, 65, 0
1, 141122, Note_off_c, 1, 53, 0
1, 141126, Note_on_c, 1, 55, 127
1, 141126, Note_on_c, 1, 76, 127
1, 141467, Note_off_c, 1, 55, 0
1, 141471, Note_on_c, 1, 57, 127
1, 141799, Note_off_c, 1, 76, 0
1, 141812, Note_off_c, 1, 57, 0
1, 141816, Note_on_c, 1, 74, 127
1, 141816, Note_on_c, 1, 58, 127
1, 141931, Note_on_c, 1, 73, 127
1, 141941, Note_off_c, 1, 74, 0
1, 142056, Note_off_c, 1, 73, 0
1, 142157, Note_off_c, 1, 58, 0
1, 142276, Note_on_c, 1, 71, 127
1, 142401, Note_off_c, 1, 71, 0
1, 142502, Note_off_c, 1, 52, 0
1, 142851, Note_on_c, 1, 50, 127
1, 143192, Note_off_c, 1, 50, 0
1, 143369, Note_on_c, 1, 72, 127
1, 143538, Note_off_c, 1, 72, 0
1, 143542, Note_on_c, 1, 70, 127
1, 143542, Note_on_c, 1, 57, 127
1, 143542, Note_on_c, 1, 54, 127
1, 143711, Note_off_c, 1, 70, 0
1, 143715, Note_on_c, 1, 69, 127
1, 143884, Note_off_c, 1, 57, 0
1, 143884, Note_off_c, 1, 54, 0
1, 143884, Note_off_c, 1, 69, 0
1, 143888, Note_on_c, 1, 72, 127
1, 143888, Note_on_c, 1, 55, 127
1, 144057, Note_off_c, 1, 72, 0
1, 144061, Note_on_c, 1, 70, 127
1, 144230, Note_off_c, 1, 55, 0
1, 144230, Note_off_c, 1, 70, 0
1, 144234, Note_on_c, 1, 69, 127
1, 144234, Note_on_c, 1, 52, 127
1, 144403, Note_off_c, 1, 69, 0
1, 144407, Note_on_c, 1, 67, 127
1, 144576, Note_off_c, 1, 52, 0
1, 144576, Note_off_c, 1, 67, 0
1, 144580, Note_on_c, 1, 54, 127
1, 144580, Note_on_c, 1, 69, 127
1, 144749, Note_off_c, 1, 54, 0
1, 144753, Note_on_c, 1, 50, 127
1, 144922, Note_off_c, 1, 69, 0
1, 144922, Note_off_c, 1, 50, 0
1, 144926, Note_on_c, 1, 49, 127
1, 144926, Note_on_c, 1, 66, 127
1, 144926, Note_on_c, 1, 57, 127
1, 145095, Note_off_c, 1, 49, 0
1, 145099, Note_on_c, 1, 50, 127
1, 145268, Note_off_c, 1, 66, 0
1, 145268, Note_off_c, 1, 57, 0
1, 145268, Note_off_c, 1, 50, 0
1, 145272, Note_on_c, 1, 67, 127
1, 145272, Note_on_c, 1, 58, 127
1, 145272, Note_on_c, 1, 55, 127
1, 145613, Note_off_c, 1, 67, 0
1, 145613, Note_off_c, 1, 58, 0
1, 145613, Note_off_c, 1, 55, 0
1, 145617, Note_on_c, 1, 69, 127
1, 145617, Note_on_c, 1, 57, 127
1, 145617, Note_on_c, 1, 54, 127
1, 145958, Note_off_c, 1, 69, 0
1, 145958, Note_off_c, 1, 57, 0
1, 145958, Note_off_c, 1, 54, 0
1, 145962, Note_on_c, 1, 70, 127
1, 145962, Note_on_c, 1, 55, 127
1, 145962, Note_on_c, 1, 52, 127
1, 146303, Note_off_c, 1, 70, 0
1, 146303, Note_off_c, 1, 55, 0
1, 146303, Note_off_c, 1, 52, 0
1, 146307, Note_on_c, 1, 69, 127
1, 146307, Note_on_c, 1, 58, 127
1, 146307, Note_on_c, 1, 55, 127
1, 146476, Note_off_c, 1, 69, 0
1, 146480, Note_on_c, 1, 67, 127
1, 146649, Note_off_c, 1, 58, 0
1, 146649, Note_off_c, 1, 55, 0
1, 146649, Note_off_c, 1, 67, 0
1, 146653, Note_on_c, 1, 69, 127
1, 146653, Note_on_c, 1, 57, 127
1, 146653, Note_on_c, 1, 54, 127
1, 146822, Note_off_c, 1, 69, 0
1, 146826, Note_on_c, 1, 72, 127
1, 146969, Note_off_c, 1, 72, 0
1, 146995, Note_off_c, 1, 57, 0
1, 146995, Note_off_c, 1, 54, 0
1, 146999, Note_on_c, 1, 58, 127
1, 146999, Note_on_c, 1, 55, 127
1, 146999, Note_on_c, 1, 75, 127
1, 147340, Note_off_c, 1, 58, 0
1, 147340, Note_off_c, 1, 55, 0
1, 147344, Note_on_c, 1, 57, 127
1, 147344, Note_on_c, 1, 54, 127
1, 147513, Note_off_c, 1, 75, 0
1, 147517, Note_on_c, 1, 74, 127
1, 147686, Note_off_c, 1, 57, 0
1, 147686, Note_off_c, 1, 54, 0
1, 147686, Note_off_c, 1, 74, 0
1, 147690, Note_on_c, 1, 72, 127
1, 147690, Note_on_c, 1, 55, 127
1, 147690, Note_on_c, 1, 52, 127
1, 147859, Note_off_c, 1, 72, 0
1, 147863, Note_on_c, 1, 70, 127
1, 148032, Note_off_c, 1, 55, 0
1, 148032, Note_off_c, 1, 52, 0
1, 148032, Note_off_c, 1, 70, 0
1, 148036, Note_on_c, 1, 74, 127
1, 148036, Note_on_c, 1, 54, 127
1, 148036, Note_on_c, 1, 50, 127
1, 148205, Note_off_c, 1, 74, 0
1, 148209, Note_on_c, 1, 72, 127
1, 148378, Note_off_c, 1, 54, 0
1, 148378, Note_off_c, 1, 50, 0
1, 148378, Note_off_c, 1, 72, 0
1, 148382, Note_on_c, 1, 70, 127
1, 148382, Note_on_c, 1, 57, 127
1, 148382, Note_on_c, 1, 54, 127
1, 148551, Note_off_c, 1, 70, 0
1, 148555, Note_on_c, 1, 69, 127
1, 148724, Note_off_c, 1, 57, 0
1, 148724, Note_off_c, 1, 54, 0
1, 148724, Note_off_c, 1, 69, 0
1, 148728, Note_on_c, 1, 70, 127
1, 148728, Note_on_c, 1, 55, 127
1, 148728, Note_on_c, 1, 43, 127
1, 148897, Note_off_c, 1, 70, 0
1, 148901, Note_on_c, 1, 74, 127
1, 149044, Note_off_c, 1, 74, 0
1, 149070, Note_off_c, 1, 55, 0
1, 149070, Note_off_c, 1, 43, 0
1, 149074, Note_on_c, 1, 60, 127
1, 149074, Note_on_c, 1, 57, 127
1, 149074, Note_on_c, 1, 77, 127
1, 149415, Note_off_c, 1, 60, 0
1, 149415, Note_off_c, 1, 57, 0
1, 149419, Note_on_c, 1, 59, 127
1, 149419, Note_on_c, 1, 56, 127
1, 149588, Note_off_c, 1, 77, 0
1, 149592, Note_on_c, 1, 76, 127
1, 149761, Note_off_c, 1, 59, 0
1, 149761, Note_off_c, 1, 56, 0
1, 149761, Note_off_c, 1, 76, 0
1, 149765, Note_on_c, 1, 74, 127
1, 149765, Note_on_c, 1, 57, 127
1, 149765, Note_on_c, 1, 54, 127
1, 149934, Note_off_c, 1, 74, 0
1, 149937, Note_on_c, 1, 73, 127
1, 150106, Note_off_c, 1, 73, 0
1, 150107, Note_off_c, 1, 57, 0
1, 150107, Note_off_c, 1, 54, 0
1, 150110, Note_on_c, 1, 76, 127
1, 150110, Note_on_c, 1, 56, 127
1, 150110, Note_on_c, 1, 52, 127
1, 150279, Note_off_c, 1, 76, 0
1, 150283, Note_on_c, 1, 74, 127
1, 150452, Note_off_c, 1, 56, 0
1, 150452, Note_off_c, 1, 52, 0
1, 150452, Note_off_c, 1, 74, 0
1, 150456, Note_on_c, 1, 73, 127
1, 150456, Note_on_c, 1, 59, 127
1, 150456, Note_on_c, 1, 56, 127
1, 150625, Note_off_c, 1, 73, 0
1, 150629, Note_on_c, 1, 71, 127
1, 150798, Note_off_c, 1, 59, 0
1, 150798, Note_off_c, 1, 56, 0
1, 150798, Note_off_c, 1, 71, 0
1, 150802, Note_on_c, 1, 73, 127
1, 150802, Note_on_c, 1, 57, 127
1, 150802, Note_on_c, 1, 45, 127
1, 150971, Note_off_c, 1, 73, 0
1, 150975, Note_on_c, 1, 76, 127
1, 151118, Note_off_c, 1, 76, 0
1, 151144, Note_off_c, 1, 57, 0
1, 151144, Note_off_c, 1, 45, 0
1, 151148, Note_on_c, 1, 65, 127
1, 151148, Note_on_c, 1, 62, 127
1, 151148, Note_on_c, 1, 82, 127
1, 151489, Note_off_c, 1, 65, 0
1, 151489, Note_off_c, 1, 62, 0
1, 151493, Note_on_c, 1, 64, 127
1, 151493, Note_on_c, 1, 61, 127
1, 151662, Note_off_c, 1, 82, 0
1, 151666, Note_on_c, 1, 81, 127
1, 151835, Note_off_c, 1, 64, 0
1, 151835, Note_off_c, 1, 61, 0
1, 151835, Note_off_c, 1, 81, 0
1, 151839, Note_on_c, 1, 79, 127
1, 151839, Note_on_c, 1, 62, 127
1, 151839, Note_on_c, 1, 59, 127
1, 152008, Note_off_c, 1, 79, 0
1, 152012, Note_on_c, 1, 77, 127
1, 152181, Note_off_c, 1, 62, 0
1, 152181, Note_off_c, 1, 59, 0
1, 152181, Note_off_c, 1, 77, 0
1, 152185, Note_on_c, 1, 81, 127
1, 152185, Note_on_c, 1, 61, 127
1, 152185, Note_on_c, 1, 57, 127
1, 152354, Note_off_c, 1, 81, 0
1, 152358, Note_on_c, 1, 79, 127
1, 152527, Note_off_c, 1, 61, 0
1, 152527, Note_off_c, 1, 57, 0
1, 152527, Note_off_c, 1, 79, 0
1, 152531, Note_on_c, 1, 77, 127
1, 152531, Note_on_c, 1, 64, 127
1, 152531, Note_on_c, 1, 61, 127
1, 152700, Note_off_c, 1, 77, 0
1, 152704, Note_on_c, 1, 76, 127
1, 152873, Note_off_c, 1, 64, 0
1, 152873, Note_off_c, 1, 61, 0
1, 152873, Note_off_c, 1, 76, 0
1, 152877, Note_on_c, 1, 79, 127
1, 152877, Note_on_c, 1, 62, 127
1, 153046, Note_off_c, 1, 79, 0
1, 153050, Note_on_c, 1, 77, 127
1, 153219, Note_off_c, 1, 77, 0
1, 153223, Note_on_c, 1, 76, 127
1, 153223, Note_on_c, 1, 50, 127
1, 153392, Note_off_c, 1, 76, 0
1, 153561, Note_off_c, 1, 62, 0
1, 153565, Note_off_c, 1, 50, 0
1, 153569, Note_on_c, 1, 77, 127
1, 153569, Note_on_c, 1, 52, 127
1, 153738, Note_off_c, 1, 77, 0
1, 153742, Note_on_c, 1, 76, 127
1, 153911, Note_off_c, 1, 52, 0
1, 153911, Note_off_c, 1, 76, 0
1, 153915, Note_on_c, 1, 74, 127
1, 153915, Note_on_c, 1, 53, 127
1, 154084, Note_off_c, 1, 74, 0
1, 154087, Note_on_c, 1, 76, 127
1, 154256, Note_off_c, 1, 76, 0
1, 154257, Note_off_c, 1, 53, 0
1, 154260, Note_on_c, 1, 76, 127
1, 154260, Note_on_c, 1, 55, 127
1, 154429, Note_off_c, 1, 76, 0
1, 154433, Note_on_c, 1, 74, 127
1, 154602, Note_off_c, 1, 55, 0
1, 154602, Note_off_c, 1, 74, 0
1, 154606, Note_on_c, 1, 73, 127
1, 154606, Note_on_c, 1, 52, 127
1, 154775, Note_off_c, 1, 73, 0
1, 154779, Note_on_c, 1, 74, 127
1, 154948, Note_off_c, 1, 52, 0
1, 154948, Note_off_c, 1, 74, 0
1, 154952, Note_on_c, 1, 54, 127
1, 154952, Note_on_c, 1, 72, 127
1, 155121, Note_off_c, 1, 54, 0
1, 155125, Note_on_c, 1, 50, 127
1, 155294, Note_off_c, 1, 50, 0
1, 155298, Note_on_c, 1, 49, 127
1, 155298, Note_on_c, 1, 62, 127
1, 155467, Note_off_c, 1, 49, 0
1, 155640, Note_off_c, 1, 62, 0
1, 155644, Note_on_c, 1, 64, 127
1, 155644, Note_on_c, 1, 58, 127
1, 155813, Note_off_c, 1, 72, 0
1, 155817, Note_on_c, 1, 70, 127
1, 155986, Note_off_c, 1, 64, 0
1, 155986, Note_off_c, 1, 70, 0
1, 155990, Note_on_c, 1, 69, 127
1, 155990, Note_on_c, 1, 66, 127
1, 156159, Note_off_c, 1, 69, 0
1, 156319, Note_off_c, 1, 58, 0
1, 156332, Note_off_c, 1, 66, 0
1, 156336, Note_on_c, 1, 57, 127
1, 156336, Note_on_c, 1, 70, 127
1, 156336, Note_on_c, 1, 67, 127
1, 156451, Note_on_c, 1, 55, 127
1, 156461, Note_off_c, 1, 57, 0
1, 156505, Note_off_c, 1, 70, 0
1, 156509, Note_on_c, 1, 69, 127
1, 156577, Note_off_c, 1, 55, 0
1, 156678, Note_off_c, 1, 67, 0
1, 156678, Note_off_c, 1, 69, 0
1, 156682, Note_on_c, 1, 64, 127
1, 156797, Note_on_c, 1, 53, 127
1, 156855, Note_on_c, 1, 74, 127
1, 156923, Note_off_c, 1, 53, 0
1, 157024, Note_off_c, 1, 64, 0
1, 157024, Note_off_c, 1, 74, 0
1, 157028, Note_on_c, 1, 65, 127
1, 157197, Note_off_c, 1, 65, 0
1, 157201, Note_on_c, 1, 62, 127
1, 157370, Note_off_c, 1, 62, 0
1, 157374, Note_on_c, 1, 61, 127
1, 157374, Note_on_c, 1, 58, 127
1, 157543, Note_off_c, 1, 61, 0
1, 157716, Note_off_c, 1, 58, 0
1, 158757, Note_on_c, 1, 52, 127
1, 158926, Note_off_c, 1, 52, 0
1, 160028, Note_on_c, 1, 80, 127
1, 160218, Note_off_c, 1, 80, 0
1, 160222, Note_on_c, 1, 81, 127
1, 160411, Note_off_c, 1, 81, 0
1, 160608, Note_on_c, 1, 77, 127
1, 160797, Note_off_c, 1, 77, 0
1, 160801, Note_on_c, 1, 76, 127
1, 160991, Note_off_c, 1, 76, 0
1, 161188, Note_on_c, 1, 73, 127
1, 161376, Note_off_c, 1, 73, 0
1, 161380, Note_on_c, 1, 62, 127
1, 161380, Note_on_c, 1, 74, 127
1, 161380, Note_on_c, 1, 50, 127
1, 161838, Note_off_c, 1, 62, 0
1, 161844, Note_on_c, 1, 72, 127
1, 161844, Note_on_c, 1, 69, 127
1, 161844, Note_on_c, 1, 54, 127
1, 162302, Note_off_c, 1, 72, 0
1, 162302, Note_off_c, 1, 69, 0
1, 162302, Note_off_c, 1, 54, 0
1, 162307, Note_on_c, 1, 70, 127
1, 162307, Note_on_c, 1, 67, 127
1, 162307, Note_on_c, 1, 52, 127
1, 162307, Note_on_c, 1, 55, 127
1, 162765, Note_off_c, 1, 70, 0
1, 162765, Note_off_c, 1, 67, 0
1, 162765, Note_off_c, 1, 52, 0
1, 162765, Note_off_c, 1, 55, 0
1, 162771, Note_on_c, 1, 66, 127
1, 162771, Note_on_c, 1, 57, 127
1, 163229, Note_off_c, 1, 66, 0
1, 163229, Note_off_c, 1, 57, 0
1, 163235, Note_on_c, 1, 64, 127
1, 163235, Note_on_c, 1, 58, 127
1, 163693, Note_off_c, 1, 64, 0
1, 163693, Note_off_c, 1, 58, 0
1, 164157, Note_off_c, 1, 74, 0
1, 164157, Note_off_c, 1, 50, 0
1, 164178, Note_on_c, 1, 54, 127
1, 164178, Note_on_c, 1, 50, 127
1, 164178, Note_on_c, 1, 57, 127
1, 164178, Note_on_c, 1, 66, 127
1, 164178, Note_on_c, 1, 69, 127
1, 164178, Note_on_c, 1, 62, 127
1, 164178, Note_on_c, 1, 74, 127
1, 167604, Note_off_c, 1, 54, 0
1, 167604, Note_off_c, 1, 50, 0
1, 167604, Note_off_c, 1, 57, 0
1, 167604, Note_off_c, 1, 66, 0
1, 167604, Note_off_c, 1, 69, 0
1, 167604, Note_off_c, 1, 62, 0
1, 167604, Note_off_c, 1, 74, 0
1, 167604, End_track
0, 0, End_of_file