0, 0, Header, 1, 1, 480
1, 0, Start_track
1, 0, Title_t, "Test"
1, 0, Tempo, 500000
1, 0, Instrument_name_t, "Church Organ"
1, 0, Note_on_c, 1, 45, 127
1, 48, Note_off_c, 1, 45, 0
1, 60, Note_on_c, 1, 49, 127
1, 108, Note_off_c, 1, 49, 0
1, 120, Note_on_c, 1, 52, 127
1, 168, Note_off_c, 1, 52, 0
1, 180, Note_on_c, 1, 57, 127
1, 228, Note_off_c, 1, 57, 0
1, 240, Note_on_c, 1, 56, 127
1, 288, Note_off_c, 1, 56, 0
1, 300, Note_on_c, 1, 54, 127
1, 348, Note_off_c, 1, 54, 0
1, 360, Note_on_c, 1, 52, 127
1, 408, Note_off_c, 1, 52, 0
1, 420, Note_on_c, 1, 56, 127
1, 468, Note_off_c, 1, 56, 0
1, 480, Note_on_c, 1, 59, 127
1, 528, Note_off_c, 1, 59, 0
1, 540, Note_on_c, 1, 62, 127
1, 588, Note_off_c, 1, 62, 0
1, 600, Note_on_c, 1, 61, 127
1, 648, Note_off_c, 1, 61, 0
1, 660, Note_on_c, 1, 59, 127
1, 708, Note_off_c, 1, 59, 0
1, 720, Note_on_c, 1, 57, 127
1, 768, Note_off_c, 1, 57, 0
1, 780, Note_on_c, 1, 61, 127
1, 828, Note_off_c, 1, 61, 0
1, 840, Note_on_c, 1, 64, 127
1, 888, Note_off_c, 1, 64, 0
1, 900, Note_on_c, 1, 69, 127
1, 948, Note_off_c, 1, 69, 0
1, 960, Note_on_c, 1, 68, 127
1, 1008, Note_off_c, 1, 68, 0
1, 1020, Note_on_c, 1, 66, 127
1, 1068, Note_off_c, 1, 66, 0
1, 1080, Note_on_c, 1, 64, 127
1, 1128, Note_off_c, 1, 64, 0
1, 1140, Note_on_c, 1, 68, 127
1, 1188, Note_off_c, 1, 68, 0
1, 1200, Note_on_c, 1, 71, 127
1, 1248, Note_off_c, 1, 71, 0
1, 1260, Note_on_c, 1, 74, 127
1, 1308, Note_off_c, 1, 74, 0
1, 1320, Note_on_c, 1, 73, 127
1, 1368, Note_off_c, 1, 73, 0
1, 1380, Note_on_c, 1, 71, 127
1, 1428, Note_off_c, 1, 71, 0
1, 1440, Note_on_c, 1, 69, 127
1, 1488, Note_off_c, 1, 69, 0
1, 1500, Note_on_c, 1, 71, 127
1, 1548, Note_off_c, 1, 71, 0
1, 1560, Note_on_c, 1, 73, 127
1, 1608, Note_off_c, 1, 73, 0
1, 1620, Note_on_c, 1, 74, 127
1, 1668, Note_off_c, 1, 74, 0
1, 1680, Note_on_c, 1, 76, 127
1, 1728, Note_off_c, 1, 76, 0
1, 1740, Note_on_c, 1, 78, 127
1, 1788, Note_off_c, 1, 78, 0
1, 1800, Note_on_c, 1, 80, 127
1, 1848, Note_off_c, 1, 80, 0
1, 1860, Note_on_c, 1, 81, 127
1, 1908, Note_off_c, 1, 81, 0
1, 1920, Note_on_c, 1, 83, 127
1, 1968, Note_off_c, 1, 83, 0
1, 1980, Note_on_c, 1, 80, 127
1, 2028, Note_off_c, 1, 80, 0
1, 2040, Note_on_c, 1, 76, 127
1, 2088, Note_off_c, 1, 76, 0
1, 2100, Note_on_c, 1, 80, 127
1, 2148, Note_off_c, 1, 80, 0
1, 2160, Note_on_c, 1, 81, 127
1, 2280, Note_on_c, 1, 80, 127
1, 2328, Note_off_c, 1, 80, 0
1, 2340, Note_on_c, 1, 78, 127
1, 2388, Note_off_c, 1, 78, 0
1, 2400, Note_on_c, 1, 76, 127
1, 2460, Note_on_c, 1, 74, 127
1, 2508, Note_off_c, 1, 74, 0
1, 2520, Note_on_c, 1, 73, 127
1, 2580, Note_on_c, 1, 71, 127
1, 2628, Note_off_c, 1, 71, 0
1, 2640, Note_on_c, 1, 69, 127
1, 2688, Note_off_c, 1, 69, 0
1, 2700, Note_on_c, 1, 68, 127
1, 2748, Note_off_c, 1, 68, 0
1, 2820, Note_on_c, 1, 64, 127
1, 2868, Note_off_c, 1, 64, 0
1, 2880, Note_on_c, 1, 57, 127
1, 2976, Note_off_c, 1, 81, 0
1, 3072, Note_off_c, 1, 76, 0
1, 3072, Note_off_c, 1, 73, 0
1, 3072, Note_off_c, 1, 57, 0
1, 3120, Note_on_c, 1, 78, 127
1, 3216, Note_off_c, 1, 78, 0
1, 3240, Note_on_c, 1, 76, 127
1, 3336, Note_off_c, 1, 76, 0
1, 3360, Note_on_c, 1, 78, 127
1, 3456, Note_off_c, 1, 78, 0
1, 3480, Note_on_c, 1, 74, 127
1, 3576, Note_off_c, 1, 74, 0
1, 3600, Note_on_c, 1, 69, 127
1, 3600, Note_on_c, 1, 73, 127
1, 3696, Note_off_c, 1, 69, 0
1, 3720, Note_on_c, 1, 68, 127
1, 3816, Note_off_c, 1, 68, 0
1, 3840, Note_on_c, 1, 66, 127
1, 3936, Note_off_c, 1, 66, 0
1, 3960, Note_on_c, 1, 64, 127
1, 4056, Note_off_c, 1, 64, 0
1, 4152, Note_off_c, 1, 73, 0
1, 4200, Note_on_c, 1, 74, 127
1, 4200, Note_on_c, 1, 62, 127
1, 4296, Note_off_c, 1, 74, 0
1, 4296, Note_off_c, 1, 62, 0
1, 4320, Note_on_c, 1, 76, 127
1, 4320, Note_on_c, 1, 61, 127
1, 4416, Note_off_c, 1, 76, 0
1, 4440, Note_on_c, 1, 74, 127
1, 4536, Note_off_c, 1, 74, 0
1, 4560, Note_on_c, 1, 73, 127
1, 4656, Note_off_c, 1, 73, 0
1, 4680, Note_on_c, 1, 71, 127
1, 4776, Note_off_c, 1, 71, 0
1, 4872, Note_off_c, 1, 61, 0
1, 4920, Note_on_c, 1, 62, 127
1, 4920, Note_on_c, 1, 69, 127
1, 5016, Note_off_c, 1, 62, 0
1, 5016, Note_off_c, 1, 69, 0
1, 5040, Note_on_c, 1, 68, 127
1, 5040, Note_on_c, 1, 64, 127
1, 5160, Note_on_c, 1, 62, 127
1, 5256, Note_off_c, 1, 62, 0
1, 5280, Note_on_c, 1, 61, 127
1, 5376, Note_off_c, 1, 61, 0
1, 5400, Note_on_c, 1, 59, 127
1, 5496, Note_off_c, 1, 59, 0
1, 5592, Note_off_c, 1, 68, 0
1, 5640, Note_on_c, 1, 69, 127
1, 5640, Note_on_c, 1, 57, 127
1, 5736, Note_off_c, 1, 69, 0
1, 5736, Note_off_c, 1, 57, 0
1, 5760, Note_on_c, 1, 71, 127
1, 5760, Note_on_c, 1, 56, 127
1, 5856, Note_off_c, 1, 71, 0
1, 5880, Note_on_c, 1, 73, 127
1, 5952, Note_off_c, 1, 64, 0
1, 5976, Note_off_c, 1, 73, 0
1, 6000, Note_on_c, 1, 74, 127
1, 6096, Note_off_c, 1, 74, 0
1, 6312, Note_off_c, 1, 56, 0
1, 6360, Note_on_c, 1, 52, 127
1, 6456, Note_off_c, 1, 52, 0
1, 6720, Note_on_c, 1, 54, 127
1, 6816, Note_off_c, 1, 54, 0
1, 7080, Note_on_c, 1, 50, 127
1, 7176, Note_off_c, 1, 50, 0
1, 7200, Note_on_c, 1, 76, 127
1, 7200, Note_on_c, 1, 49, 127
1, 7296, Note_off_c, 1, 76, 0
1, 7320, Note_on_c, 1, 78, 127
1, 7416, Note_off_c, 1, 78, 0
1, 7440, Note_on_c, 1, 79, 127
1, 7536, Note_off_c, 1, 79, 0
1, 7752, Note_off_c, 1, 49, 0
1, 7800, Note_on_c, 1, 45, 127
1, 7896, Note_off_c, 1, 45, 0
1, 8160, Note_on_c, 1, 55, 127
1, 8256, Note_off_c, 1, 55, 0
1, 8520, Note_on_c, 1, 76, 127
1, 8520, Note_on_c, 1, 52, 127
1, 8616, Note_off_c, 1, 76, 0
1, 8616, Note_off_c, 1, 52, 0
1, 8640, Note_on_c, 1, 78, 127
1, 8640, Note_on_c, 1, 51, 127
1, 8736, Note_off_c, 1, 78, 0
1, 8760, Note_on_c, 1, 80, 127
1, 8832, Note_off_c, 1, 51, 0
1, 8856, Note_off_c, 1, 80, 0
1, 8880, Note_on_c, 1, 81, 127
1, 8880, Note_on_c, 1, 54, 127
1, 8976, Note_off_c, 1, 81, 0
1, 8976, Note_off_c, 1, 54, 0
1, 9000, Note_on_c, 1, 83, 127
1, 9000, Note_on_c, 1, 51, 127
1, 9096, Note_off_c, 1, 83, 0
1, 9120, Note_on_c, 1, 80, 127
1, 9192, Note_off_c, 1, 51, 0
1, 9216, Note_off_c, 1, 80, 0
1, 9240, Note_on_c, 1, 81, 127
1, 9240, Note_on_c, 1, 47, 127
1, 9336, Note_off_c, 1, 81, 0
1, 9336, Note_off_c, 1, 47, 0
1, 9360, Note_on_c, 1, 80, 127
1, 9360, Note_on_c, 1, 76, 127
1, 9360, Note_on_c, 1, 52, 127
1, 9456, Note_off_c, 1, 52, 0
1, 9480, Note_on_c, 1, 51, 127
1, 9576, Note_off_c, 1, 51, 0
1, 9600, Note_on_c, 1, 49, 127
1, 9696, Note_off_c, 1, 49, 0
1, 9720, Note_on_c, 1, 47, 127
1, 9816, Note_off_c, 1, 47, 0
1, 9912, Note_off_c, 1, 80, 0
1, 9960, Note_on_c, 1, 81, 127
1, 9960, Note_on_c, 1, 45, 127
1, 10056, Note_off_c, 1, 81, 0
1, 10056, Note_off_c, 1, 45, 0
1, 10080, Note_on_c, 1, 83, 127
1, 10080, Note_on_c, 1, 44, 127
1, 10176, Note_off_c, 1, 83, 0
1, 10368, Note_off_c, 1, 76, 0
1, 10368, Note_off_c, 1, 44, 0
1, 10440, Note_on_c, 1, 78, 127
1, 10440, Note_on_c, 1, 45, 127
1, 10536, Note_off_c, 1, 78, 0
1, 10560, Note_on_c, 1, 80, 127
1, 10560, Note_on_c, 1, 49, 127
1, 10656, Note_off_c, 1, 80, 0
1, 10656, Note_off_c, 1, 49, 0
1, 10680, Note_on_c, 1, 76, 127
1, 10680, Note_on_c, 1, 54, 127
1, 10728, Note_off_c, 1, 45, 0
1, 10776, Note_off_c, 1, 76, 0
1, 10776, Note_off_c, 1, 54, 0
1, 10800, Note_on_c, 1, 75, 127
1, 10800, Note_on_c, 1, 47, 127
1, 10896, Note_off_c, 1, 75, 0
1, 10920, Note_on_c, 1, 76, 127
1, 10920, Note_on_c, 1, 59, 127
1, 10992, Note_off_c, 1, 47, 0
1, 11016, Note_off_c, 1, 76, 0
1, 11016, Note_off_c, 1, 59, 0
1, 11040, Note_on_c, 1, 78, 127
1, 11040, Note_on_c, 1, 61, 127
1, 11136, Note_off_c, 1, 61, 0
1, 11160, Note_on_c, 1, 71, 127
1, 11160, Note_on_c, 1, 63, 127
1, 11256, Note_off_c, 1, 71, 0
1, 11256, Note_off_c, 1, 63, 0
1, 11280, Note_on_c, 1, 73, 127
1, 11376, Note_off_c, 1, 73, 0
1, 11400, Note_on_c, 1, 69, 127
1, 11400, Note_on_c, 1, 59, 127
1, 11496, Note_off_c, 1, 69, 0
1, 11496, Note_off_c, 1, 59, 0
1, 11520, Note_on_c, 1, 68, 127
1, 11520, Note_on_c, 1, 64, 127
1, 11616, Note_off_c, 1, 78, 0
1, 11616, Note_off_c, 1, 64, 0
1, 11640, Note_on_c, 1, 56, 127
1, 11736, Note_off_c, 1, 56, 0
1, 11760, Note_on_c, 1, 76, 127
1, 11760, Note_on_c, 1, 57, 127
1, 11808, Note_off_c, 1, 68, 0
1, 11856, Note_off_c, 1, 57, 0
1, 11880, Note_on_c, 1, 66, 127
1, 11976, Note_off_c, 1, 76, 0
1, 12120, Note_on_c, 1, 75, 127
1, 12168, Note_off_c, 1, 66, 0
1, 12216, Note_off_c, 1, 75, 0
1, 12240, Note_on_c, 1, 76, 127
1, 12240, Note_on_c, 1, 64, 127
1, 12240, Note_on_c, 1, 52, 127
1, 12336, Note_off_c, 1, 76, 0
1, 12360, Note_on_c, 1, 75, 127
1, 12456, Note_off_c, 1, 75, 0
1, 12480, Note_on_c, 1, 73, 127
1, 12480, Note_on_c, 1, 54, 127
1, 12576, Note_off_c, 1, 73, 0
1, 12576, Note_off_c, 1, 54, 0
1, 12600, Note_on_c, 1, 71, 127
1, 12600, Note_on_c, 1, 56, 127
1, 12696, Note_off_c, 1, 71, 0
1, 12792, Note_off_c, 1, 56, 0
1, 12840, Note_on_c, 1, 69, 127
1, 12936, Note_off_c, 1, 69, 0
1, 12960, Note_on_c, 1, 68, 127
1, 12960, Note_on_c, 1, 59, 127
1, 13056, Note_off_c, 1, 64, 0
1, 13080, Note_on_c, 1, 63, 127
1, 13152, Note_off_c, 1, 68, 0
1, 13176, Note_off_c, 1, 63, 0
1, 13200, Note_off_c, 1, 59, 0
1, 13200, Note_on_c, 1, 61, 127
1, 13296, Note_off_c, 1, 61, 0
1, 13560, Note_on_c, 1, 57, 127
1, 13560, Note_on_c, 1, 66, 127
1, 13656, Note_off_c, 1, 57, 0
1, 13656, Note_off_c, 1, 66, 0
1, 13776, Note_off_c, 1, 52, 0
1, 13800, Note_on_c, 1, 51, 127
1, 13896, Note_off_c, 1, 51, 0
1, 13920, Note_on_c, 1, 49, 127
1, 14016, Note_off_c, 1, 49, 0
1, 14040, Note_on_c, 1, 47, 127
1, 14136, Note_off_c, 1, 47, 0
1, 14280, Note_on_c, 1, 45, 127
1, 14376, Note_off_c, 1, 45, 0
1, 14400, Note_on_c, 1, 44, 127
1, 14592, Note_off_c, 1, 44, 0
1, 14880, Note_on_c, 1, 62, 127
1, 14880, Note_on_c, 1, 42, 127
1, 14976, Note_off_c, 1, 62, 0
1, 14976, Note_off_c, 1, 42, 0
1, 15000, Note_on_c, 1, 61, 127
1, 15000, Note_on_c, 1, 40, 127
1, 15096, Note_off_c, 1, 61, 0
1, 15096, Note_off_c, 1, 40, 0
1, 15120, Note_on_c, 1, 62, 127
1, 15120, Note_on_c, 1, 42, 127
1, 15216, Note_off_c, 1, 62, 0
1, 15216, Note_off_c, 1, 42, 0
1, 15240, Note_on_c, 1, 64, 127
1, 15240, Note_on_c, 1, 44, 127
1, 15336, Note_off_c, 1, 64, 0
1, 15336, Note_off_c, 1, 44, 0
1, 15360, Note_on_c, 1, 66, 127
1, 15360, Note_on_c, 1, 45, 127
1, 15456, Note_off_c, 1, 66, 0
1, 15456, Note_off_c, 1, 45, 0
1, 15480, Note_on_c, 1, 64, 127
1, 15480, Note_on_c, 1, 44, 127
1, 15576, Note_off_c, 1, 64, 0
1, 15576, Note_off_c, 1, 44, 0
1, 15600, Note_on_c, 1, 66, 127
1, 15600, Note_on_c, 1, 45, 127
1, 15696, Note_off_c, 1, 66, 0
1, 15696, Note_off_c, 1, 45, 0
1, 15720, Note_on_c, 1, 62, 127
1, 15720, Note_on_c, 1, 47, 127
1, 15816, Note_off_c, 1, 62, 0
1, 15816, Note_off_c, 1, 47, 0
1, 15840, Note_on_c, 1, 69, 127
1, 15840, Note_on_c, 1, 61, 127
1, 15840, Note_on_c, 1, 45, 127
1, 15936, Note_off_c, 1, 69, 0
1, 15960, Note_on_c, 1, 68, 127
1, 16032, Note_off_c, 1, 45, 0
1, 16056, Note_off_c, 1, 68, 0
1, 16080, Note_on_c, 1, 66, 127
1, 16080, Note_on_c, 1, 47, 127
1, 16176, Note_off_c, 1, 66, 0
1, 16176, Note_off_c, 1, 47, 0
1, 16200, Note_on_c, 1, 64, 127
1, 16200, Note_on_c, 1, 49, 127
1, 16296, Note_off_c, 1, 64, 0
1, 16296, Note_off_c, 1, 49, 0
1, 16320, Note_on_c, 1, 67, 127
1, 16416, Note_off_c, 1, 61, 0
1, 16416, Note_off_c, 1, 67, 0
1, 16440, Note_on_c, 1, 66, 127
1, 16440, Note_on_c, 1, 45, 127
1, 16536, Note_off_c, 1, 66, 0
1, 16536, Note_off_c, 1, 45, 0
1, 16560, Note_on_c, 1, 67, 127
1, 16560, Note_on_c, 1, 62, 127
1, 16560, Note_on_c, 1, 47, 127
1, 16656, Note_off_c, 1, 67, 0
1, 16656, Note_off_c, 1, 47, 0
1, 16680, Note_on_c, 1, 69, 127
1, 16680, Note_on_c, 1, 49, 127
1, 16776, Note_off_c, 1, 69, 0
1, 16776, Note_off_c, 1, 49, 0
1, 16800, Note_on_c, 1, 71, 127
1, 16800, Note_on_c, 1, 50, 127
1, 16848, Note_off_c, 1, 62, 0
1, 16896, Note_off_c, 1, 71, 0
1, 16896, Note_off_c, 1, 50, 0
1, 16920, Note_on_c, 1, 69, 127
1, 16920, Note_on_c, 1, 64, 127
1, 16920, Note_on_c, 1, 49, 127
1, 17016, Note_off_c, 1, 69, 0
1, 17016, Note_off_c, 1, 49, 0
1, 17040, Note_on_c, 1, 71, 127
1, 17040, Note_on_c, 1, 50, 127
1, 17136, Note_off_c, 1, 71, 0
1, 17136, Note_off_c, 1, 50, 0
1, 17160, Note_on_c, 1, 67, 127
1, 17160, Note_on_c, 1, 52, 127
1, 17256, Note_off_c, 1, 67, 0
1, 17256, Note_off_c, 1, 52, 0
1, 17280, Note_on_c, 1, 66, 127
1, 17376, Note_off_c, 1, 66, 0
1, 17400, Note_on_c, 1, 68, 127
1, 17496, Note_off_c, 1, 68, 0
1, 17520, Note_on_c, 1, 54, 127
1, 17568, Note_off_c, 1, 64, 0
1, 17616, Note_off_c, 1, 54, 0
1, 17640, Note_on_c, 1, 62, 127
1, 17640, Note_on_c, 1, 71, 127
1, 17640, Note_on_c, 1, 44, 127
1, 17736, Note_off_c, 1, 44, 0
1, 17760, Note_on_c, 1, 45, 127
1, 17856, Note_off_c, 1, 45, 0
1, 17880, Note_on_c, 1, 47, 127
1, 17928, Note_off_c, 1, 62, 0
1, 17976, Note_off_c, 1, 47, 0
1, 18000, Note_on_c, 1, 61, 127
1, 18000, Note_on_c, 1, 40, 127
1, 18113, Note_off_c, 1, 71, 0
1, 18120, Note_on_c, 1, 69, 127
1, 18216, Note_off_c, 1, 69, 0
1, 18240, Note_on_c, 1, 68, 127
1, 18288, Note_off_c, 1, 40, 0
1, 18336, Note_off_c, 1, 68, 0
1, 18360, Note_on_c, 1, 42, 127
1, 18456, Note_off_c, 1, 42, 0
1, 18480, Note_on_c, 1, 66, 127
1, 18552, Note_off_c, 1, 61, 0
1, 18576, Note_off_c, 1, 66, 0
1, 18600, Note_on_c, 1, 68, 127
1, 18600, Note_on_c, 1, 59, 127
1, 18600, Note_on_c, 1, 38, 127
1, 18696, Note_off_c, 1, 68, 0
1, 18696, Note_off_c, 1, 59, 0
1, 18696, Note_off_c, 1, 38, 0
1, 18720, Note_on_c, 1, 65, 127
1, 18720, Note_on_c, 1, 61, 127
1, 18720, Note_on_c, 1, 37, 127
1, 18816, Note_off_c, 1, 61, 0
1, 18840, Note_on_c, 1, 59, 127
1, 18936, Note_off_c, 1, 59, 0
1, 18960, Note_on_c, 1, 57, 127
1, 19056, Note_off_c, 1, 57, 0
1, 19080, Note_on_c, 1, 56, 127
1, 19176, Note_off_c, 1, 56, 0
1, 19536, Note_off_c, 1, 65, 0
1, 19560, Note_on_c, 1, 66, 127
1, 19656, Note_off_c, 1, 66, 0
1, 19680, Note_on_c, 1, 68, 127
1, 19776, Note_off_c, 1, 68, 0
1, 19992, Note_off_c, 1, 37, 0
1, 20040, Note_on_c, 1, 65, 127
1, 20040, Note_on_c, 1, 49, 127
1, 20136, Note_off_c, 1, 65, 0
1, 20136, Note_off_c, 1, 49, 0
1, 20160, Note_on_c, 1, 66, 127
1, 20160, Note_on_c, 1, 50, 127
1, 20160, Note_on_c, 1, 57, 127
1, 20256, Note_off_c, 1, 66, 0
1, 20280, Note_on_c, 1, 68, 127
1, 20376, Note_off_c, 1, 68, 0
1, 20400, Note_on_c, 1, 69, 127
1, 20448, Note_off_c, 1, 50, 0
1, 20496, Note_off_c, 1, 69, 0
1, 20520, Note_on_c, 1, 71, 127
1, 20520, Note_on_c, 1, 51, 127
1, 20616, Note_off_c, 1, 57, 0
1, 20640, Note_on_c, 1, 56, 127
1, 20736, Note_off_c, 1, 56, 0
1, 20760, Note_on_c, 1, 54, 127
1, 20808, Note_off_c, 1, 51, 0
1, 20856, Note_off_c, 1, 54, 0
1, 20880, Note_on_c, 1, 52, 127
1, 20976, Note_off_c, 1, 71, 0
1, 21000, Note_on_c, 1, 73, 127
1, 21096, Note_off_c, 1, 73, 0
1, 21120, Note_on_c, 1, 74, 127
1, 21168, Note_off_c, 1, 52, 0
1, 21216, Note_off_c, 1, 74, 0
1, 21240, Note_on_c, 1, 53, 127
1, 21480, Note_on_c, 1, 61, 127
1, 21528, Note_off_c, 1, 53, 0
1, 21576, Note_off_c, 1, 61, 0
1, 21600, Note_on_c, 1, 69, 127
1, 21600, Note_on_c, 1, 54, 127
1, 21696, Note_off_c, 1, 69, 0
1, 21720, Note_on_c, 1, 71, 127
1, 21816, Note_off_c, 1, 71, 0
1, 21840, Note_on_c, 1, 68, 127
1, 21840, Note_on_c, 1, 47, 127
1, 21936, Note_off_c, 1, 68, 0
1, 21936, Note_off_c, 1, 47, 0
1, 21960, Note_on_c, 1, 49, 127
1, 22056, Note_off_c, 1, 54, 0
1, 22200, Note_on_c, 1, 66, 127
1, 22200, Note_on_c, 1, 53, 127
1, 22248, Note_off_c, 1, 49, 0
1, 22296, Note_off_c, 1, 66, 0
1, 22296, Note_off_c, 1, 53, 0
1, 22320, Note_on_c, 1, 78, 127
1, 22320, Note_on_c, 1, 66, 127
1, 22320, Note_on_c, 1, 42, 127
1, 22320, Note_on_c, 1, 54, 127
1, 22416, Note_off_c, 1, 78, 0
1, 22440, Note_on_c, 1, 76, 127
1, 22512, Note_off_c, 1, 42, 0
1, 22512, Note_off_c, 1, 54, 0
1, 22536, Note_off_c, 1, 76, 0
1, 22560, Note_on_c, 1, 74, 127
1, 22560, Note_on_c, 1, 56, 127
1, 22656, Note_off_c, 1, 74, 0
1, 22656, Note_off_c, 1, 56, 0
1, 22680, Note_on_c, 1, 73, 127
1, 22680, Note_on_c, 1, 58, 127
1, 22776, Note_off_c, 1, 73, 0
1, 22872, Note_off_c, 1, 58, 0
1, 22920, Note_on_c, 1, 71, 127
1, 22920, Note_on_c, 1, 59, 127
1, 23016, Note_off_c, 1, 71, 0
1, 23016, Note_off_c, 1, 59, 0
1, 23040, Note_on_c, 1, 70, 127
1, 23040, Note_on_c, 1, 61, 127
1, 23136, Note_off_c, 1, 66, 0
1, 23160, Note_on_c, 1, 64, 127
1, 23232, Note_off_c, 1, 70, 0
1, 23232, Note_off_c, 1, 61, 0
1, 23256, Note_off_c, 1, 64, 0
1, 23280, Note_on_c, 1, 71, 127
1, 23280, Note_on_c, 1, 62, 127
1, 23376, Note_off_c, 1, 71, 0
1, 23376, Note_off_c, 1, 62, 0
1, 23400, Note_on_c, 1, 61, 127
1, 23400, Note_on_c, 1, 70, 127
1, 23496, Note_off_c, 1, 61, 0
1, 23520, Note_on_c, 1, 62, 127
1, 23592, Note_off_c, 1, 70, 0
1, 23616, Note_off_c, 1, 62, 0
1, 23640, Note_on_c, 1, 59, 127
1, 23640, Note_on_c, 1, 68, 127
1, 23736, Note_off_c, 1, 59, 0
1, 23736, Note_off_c, 1, 68, 0
1, 23760, Note_on_c, 1, 66, 127
1, 23760, Note_on_c, 1, 58, 127
1, 23880, Note_on_c, 1, 64, 127
1, 23952, Note_off_c, 1, 58, 0
1, 23976, Note_off_c, 1, 64, 0
1, 24000, Note_on_c, 1, 62, 127
1, 24000, Note_on_c, 1, 59, 127
1, 24096, Note_off_c, 1, 62, 0
1, 24096, Note_off_c, 1, 59, 0
1, 24120, Note_on_c, 1, 61, 127
1, 24216, Note_off_c, 1, 61, 0
1, 24360, Note_on_c, 1, 56, 127
1, 24456, Note_off_c, 1, 56, 0
1, 24480, Note_on_c, 1, 54, 127
1, 24576, Note_off_c, 1, 66, 0
1, 24600, Note_on_c, 1, 68, 127
1, 24672, Note_off_c, 1, 54, 0
1, 24696, Note_off_c, 1, 68, 0
1, 24720, Note_on_c, 1, 70, 127
1, 24720, Note_on_c, 1, 52, 127
1, 24816, Note_off_c, 1, 70, 0
1, 24816, Note_off_c, 1, 52, 0
1, 24840, Note_on_c, 1, 71, 127
1, 24840, Note_on_c, 1, 50, 127
1, 24936, Note_off_c, 1, 71, 0
1, 24960, Note_on_c, 1, 70, 127
1, 25032, Note_off_c, 1, 50, 0
1, 25056, Note_off_c, 1, 70, 0
1, 25080, Note_on_c, 1, 73, 127
1, 25080, Note_on_c, 1, 49, 127
1, 25176, Note_off_c, 1, 73, 0
1, 25176, Note_off_c, 1, 49, 0
1, 25200, Note_on_c, 1, 59, 127
1, 25200, Note_on_c, 1, 74, 127
1, 25200, Note_on_c, 1, 47, 127
1, 25296, Note_off_c, 1, 59, 0
1, 25320, Note_on_c, 1, 61, 127
1, 25392, Note_off_c, 1, 47, 0
1, 25416, Note_off_c, 1, 61, 0
1, 25440, Note_on_c, 1, 62, 127
1, 25536, Note_off_c, 1, 62, 0
1, 25560, Note_on_c, 1, 64, 127
1, 25656, Note_off_c, 1, 64, 0
1, 25800, Note_on_c, 1, 66, 127
1, 25896, Note_off_c, 1, 66, 0
1, 25920, Note_on_c, 1, 67, 127
1, 26016, Note_off_c, 1, 74, 0
1, 26040, Note_on_c, 1, 73, 127
1, 26136, Note_off_c, 1, 73, 0
1, 26160, Note_on_c, 1, 71, 127
1, 26256, Note_off_c, 1, 71, 0
1, 26280, Note_on_c, 1, 76, 127
1, 26376, Note_off_c, 1, 67, 0
1, 26640, Note_on_c, 1, 69, 127
1, 26736, Note_off_c, 1, 76, 0
1, 27120, Note_on_c, 1, 78, 127
1, 27216, Note_off_c, 1, 69, 0
1, 27216, Note_off_c, 1, 78, 0
1, 27240, Note_on_c, 1, 76, 127
1, 27336, Note_off_c, 1, 76, 0
1, 27360, Note_on_c, 1, 70, 127
1, 27360, Note_on_c, 1, 78, 127
1, 27360, Note_on_c, 1, 54, 127
1, 27456, Note_off_c, 1, 70, 0
1, 27456, Note_off_c, 1, 54, 0
1, 27480, Note_on_c, 1, 71, 127
1, 27480, Note_on_c, 1, 56, 127
1, 27576, Note_off_c, 1, 71, 0
1, 27576, Note_off_c, 1, 56, 0
1, 27600, Note_on_c, 1, 73, 127
1, 27600, Note_on_c, 1, 58, 127
1, 27696, Note_off_c, 1, 73, 0
1, 27696, Note_off_c, 1, 58, 0
1, 27720, Note_on_c, 1, 74, 127
1, 27720, Note_on_c, 1, 59, 127
1, 27816, Note_off_c, 1, 74, 0
1, 27816, Note_off_c, 1, 59, 0
1, 27840, Note_on_c, 1, 76, 127
1, 27936, Note_off_c, 1, 76, 0
1, 27960, Note_on_c, 1, 69, 127
1, 27960, Note_on_c, 1, 61, 127
1, 28056, Note_off_c, 1, 69, 0
1, 28056, Note_off_c, 1, 61, 0
1, 28080, Note_on_c, 1, 62, 127
1, 28176, Note_off_c, 1, 78, 0
1, 28200, Note_on_c, 1, 79, 127
1, 28296, Note_off_c, 1, 79, 0
1, 28320, Note_on_c, 1, 81, 127
1, 28416, Note_off_c, 1, 81, 0
1, 28440, Note_on_c, 1, 83, 127
1, 28536, Note_off_c, 1, 83, 0
1, 28560, Note_on_c, 1, 84, 127
1, 28632, Note_off_c, 1, 62, 0
1, 28656, Note_off_c, 1, 84, 0
1, 28680, Note_on_c, 1, 63, 127
1, 28776, Note_off_c, 1, 63, 0
1, 28800, Note_on_c, 1, 64, 127
1, 28896, Note_off_c, 1, 64, 0
1, 28920, Note_on_c, 1, 66, 127
1, 29016, Note_off_c, 1, 66, 0
1, 29040, Note_on_c, 1, 67, 127
1, 29136, Note_off_c, 1, 67, 0
1, 29880, Note_on_c, 1, 73, 127
1, 29880, Note_on_c, 1, 70, 127
1, 29880, Note_on_c, 1, 66, 127
1, 29909, Note_off_c, 1, 73, 0
1, 29910, Note_on_c, 1, 74, 127
1, 29939, Note_off_c, 1, 74, 0
1, 29976, Note_off_c, 1, 66, 0
1, 30000, Note_on_c, 1, 61, 127
1, 30072, Note_off_c, 1, 70, 0
1, 30096, Note_off_c, 1, 61, 0
1, 30120, Note_on_c, 1, 71, 127
1, 30120, Note_on_c, 1, 64, 127
1, 30216, Note_off_c, 1, 71, 0
1, 30216, Note_off_c, 1, 64, 0
1, 30240, Note_on_c, 1, 83, 127
1, 30240, Note_on_c, 1, 71, 127
1, 30240, Note_on_c, 1, 63, 127
1, 30336, Note_off_c, 1, 83, 0
1, 30360, Note_on_c, 1, 81, 127
1, 30456, Note_off_c, 1, 81, 0
1, 30480, Note_on_c, 1, 80, 127
1, 30576, Note_off_c, 1, 80, 0
1, 30600, Note_on_c, 1, 78, 127
1, 30696, Note_off_c, 1, 78, 0
1, 30792, Note_off_c, 1, 63, 0
1, 30840, Note_on_c, 1, 76, 127
1, 30840, Note_on_c, 1, 64, 127
1, 30936, Note_off_c, 1, 76, 0
1, 30936, Note_off_c, 1, 64, 0
1, 30960, Note_on_c, 1, 75, 127
1, 30960, Note_on_c, 1, 66, 127
1, 31056, Note_off_c, 1, 75, 0
1, 31056, Note_off_c, 1, 66, 0
1, 31080, Note_on_c, 1, 59, 127
1, 31176, Note_off_c, 1, 59, 0
1, 31200, Note_on_c, 1, 57, 127
1, 31248, Note_off_c, 1, 71, 0
1, 31296, Note_off_c, 1, 57, 0
1, 31320, Note_on_c, 1, 71, 127
1, 31320, Note_on_c, 1, 56, 127
1, 31416, Note_off_c, 1, 56, 0
1, 31440, Note_on_c, 1, 73, 127
1, 31440, Note_on_c, 1, 57, 127
1, 31512, Note_off_c, 1, 71, 0
1, 31536, Note_off_c, 1, 73, 0
1, 31536, Note_off_c, 1, 57, 0
1, 31560, Note_on_c, 1, 75, 127
1, 31560, Note_on_c, 1, 69, 127
1, 31560, Note_on_c, 1, 54, 127
1, 31656, Note_off_c, 1, 75, 0
1, 31656, Note_off_c, 1, 69, 0
1, 31656, Note_off_c, 1, 54, 0
1, 31680, Note_on_c, 1, 76, 127
1, 31680, Note_on_c, 1, 68, 127
1, 31680, Note_on_c, 1, 52, 127
1, 31776, Note_off_c, 1, 76, 0
1, 31776, Note_off_c, 1, 52, 0
1, 31800, Note_on_c, 1, 71, 127
1, 31800, Note_on_c, 1, 54, 127
1, 31896, Note_off_c, 1, 71, 0
1, 31896, Note_off_c, 1, 54, 0
1, 31920, Note_on_c, 1, 56, 127
1, 31968, Note_off_c, 1, 68, 0
1, 32016, Note_off_c, 1, 56, 0
1, 32040, Note_on_c, 1, 66, 127
1, 32040, Note_on_c, 1, 57, 127
1, 32136, Note_off_c, 1, 57, 0
1, 32280, Note_on_c, 1, 74, 127
1, 32280, Note_on_c, 1, 59, 127
1, 32328, Note_off_c, 1, 66, 0
1, 32376, Note_off_c, 1, 59, 0
1, 32400, Note_on_c, 1, 64, 127
1, 32496, Note_off_c, 1, 74, 0
1, 32640, Note_on_c, 1, 73, 127
1, 32688, Note_off_c, 1, 64, 0
1, 32736, Note_off_c, 1, 73, 0
1, 32760, Note_on_c, 1, 73, 127
1, 32760, Note_on_c, 1, 66, 127
1, 32856, Note_off_c, 1, 73, 0
1, 32880, Note_on_c, 1, 71, 127
1, 32880, Note_on_c, 1, 54, 127
1, 32976, Note_off_c, 1, 71, 0
1, 32976, Note_off_c, 1, 54, 0
1, 33000, Note_on_c, 1, 69, 127
1, 33000, Note_on_c, 1, 59, 127
1, 33048, Note_off_c, 1, 66, 0
1, 33096, Note_off_c, 1, 69, 0
1, 33096, Note_off_c, 1, 59, 0
1, 33120, Note_on_c, 1, 59, 127
1, 33120, Note_on_c, 1, 68, 127
1, 33120, Note_on_c, 1, 52, 127
1, 33216, Note_off_c, 1, 59, 0
1, 33240, Note_on_c, 1, 61, 127
1, 33336, Note_off_c, 1, 61, 0
1, 33360, Note_on_c, 1, 63, 127
1, 33360, Note_on_c, 1, 47, 127
1, 33456, Note_off_c, 1, 63, 0
1, 33456, Note_off_c, 1, 47, 0
1, 33480, Note_on_c, 1, 64, 127
1, 33480, Note_on_c, 1, 44, 127
1, 33576, Note_off_c, 1, 64, 0
1, 33576, Note_off_c, 1, 44, 0
1, 33600, Note_on_c, 1, 45, 127
1, 33696, Note_off_c, 1, 45, 0
1, 33720, Note_on_c, 1, 66, 127
1, 33816, Note_off_c, 1, 66, 0
1, 33840, Note_on_c, 1, 40, 127
1, 33936, Note_off_c, 1, 68, 0
1, 33936, Note_off_c, 1, 52, 0
1, 33960, Note_on_c, 1, 69, 127
1, 33960, Note_on_c, 1, 54, 127
1, 34032, Note_off_c, 1, 40, 0
1, 34056, Note_off_c, 1, 69, 0
1, 34056, Note_off_c, 1, 54, 0
1, 34080, Note_on_c, 1, 71, 127
1, 34080, Note_on_c, 1, 56, 127
1, 34176, Note_off_c, 1, 71, 0
1, 34176, Note_off_c, 1, 56, 0
1, 34200, Note_on_c, 1, 73, 127
1, 34200, Note_on_c, 1, 57, 127
1, 34296, Note_off_c, 1, 73, 0
1, 34296, Note_off_c, 1, 57, 0
1, 34440, Note_on_c, 1, 74, 127
1, 34536, Note_off_c, 1, 74, 0
1, 34920, Note_on_c, 1, 49, 127
1, 35016, Note_off_c, 1, 49, 0
1, 35040, Note_on_c, 1, 50, 127
1, 35136, Note_off_c, 1, 50, 0
1, 35520, Note_on_c, 1, 76, 127
1, 35616, Note_off_c, 1, 76, 0
1, 35640, Note_on_c, 1, 78, 127
1, 35640, Note_on_c, 1, 62, 127
1, 35736, Note_off_c, 1, 78, 0
1, 35736, Note_off_c, 1, 62, 0
1, 35880, Note_on_c, 1, 79, 127
1, 35976, Note_off_c, 1, 79, 0
1, 36480, Note_on_c, 1, 55, 127
1, 36576, Note_off_c, 1, 55, 0
1, 36840, Note_on_c, 1, 80, 127
1, 36936, Note_off_c, 1, 80, 0
1, 36960, Note_on_c, 1, 81, 127
1, 37056, Note_off_c, 1, 81, 0
1, 37080, Note_on_c, 1, 83, 127
1, 37176, Note_off_c, 1, 83, 0
1, 38640, Note_on_c, 1, 76, 127
1, 38640, Note_on_c, 1, 73, 127
1, 38640, Note_on_c, 1, 64, 127
1, 38736, Note_off_c, 1, 76, 0
1, 38736, Note_off_c, 1, 73, 0
1, 38736, Note_off_c, 1, 64, 0
1, 38760, Note_on_c, 1, 78, 127
1, 38760, Note_on_c, 1, 74, 127
1, 38760, Note_on_c, 1, 62, 127
1, 38856, Note_off_c, 1, 78, 0
1, 38856, Note_off_c, 1, 74, 0
1, 38856, Note_off_c, 1, 62, 0
1, 38880, Note_on_c, 1, 76, 127
1, 38880, Note_on_c, 1, 79, 127
1, 38880, Note_on_c, 1, 61, 127
1, 38976, Note_off_c, 1, 76, 0
1, 38976, Note_off_c, 1, 61, 0
1, 39000, Note_on_c, 1, 74, 127
1, 39000, Note_on_c, 1, 62, 127
1, 39096, Note_off_c, 1, 74, 0
1, 39096, Note_off_c, 1, 62, 0
1, 39120, Note_on_c, 1, 78, 127
1, 39120, Note_on_c, 1, 59, 127
1, 39216, Note_off_c, 1, 78, 0
1, 39216, Note_off_c, 1, 59, 0
1, 39456, Note_off_c, 1, 79, 0
1, 39480, Note_on_c, 1, 57, 127
1, 39576, Note_off_c, 1, 57, 0
1, 39720, Note_on_c, 1, 69, 127
1, 39816, Note_off_c, 1, 69, 0
1, 39840, Note_on_c, 1, 73, 127
1, 39936, Note_off_c, 1, 73, 0
1, 40320, Note_on_c, 1, 56, 127
1, 40416, Note_off_c, 1, 56, 0
1, 40440, Note_on_c, 1, 68, 127
1, 40536, Note_off_c, 1, 68, 0
1, 40560, Note_on_c, 1, 71, 127
1, 40560, Note_on_c, 1, 52, 127
1, 40656, Note_off_c, 1, 71, 0
1, 40656, Note_off_c, 1, 52, 0
1, 40800, Note_on_c, 1, 49, 127
1, 40896, Note_off_c, 1, 49, 0
1, 41040, Note_on_c, 1, 42, 127
1, 41328, Note_off_c, 1, 42, 0
1, 41400, Note_on_c, 1, 44, 127
1, 41424, Note_off_c, 1, 44, 0
1, 41430, Note_on_c, 1, 45, 127
1, 41454, Note_off_c, 1, 45, 0
1, 41520, Note_on_c, 1, 73, 127
1, 41520, Note_on_c, 1, 44, 127
1, 41544, Note_off_c, 1, 44, 0
1, 41550, Note_on_c, 1, 45, 127
1, 41574, Note_off_c, 1, 45, 0
1, 41616, Note_off_c, 1, 73, 0
1, 41640, Note_on_c, 1, 71, 127
1, 41640, Note_on_c, 1, 44, 127
1, 41664, Note_off_c, 1, 44, 0
1, 41670, Note_on_c, 1, 45, 127
1, 41694, Note_off_c, 1, 45, 0
1, 41760, Note_on_c, 1, 73, 127
1, 41856, Note_off_c, 1, 71, 0
1, 41880, Note_on_c, 1, 69, 127
1, 41880, Note_on_c, 1, 49, 127
1, 41976, Note_off_c, 1, 69, 0
1, 41976, Note_off_c, 1, 49, 0
1, 42000, Note_on_c, 1, 67, 127
1, 42000, Note_on_c, 1, 52, 127
1, 42096, Note_off_c, 1, 67, 0
1, 42096, Note_off_c, 1, 52, 0
1, 42120, Note_on_c, 1, 66, 127
1, 42120, Note_on_c, 1, 57, 127
1, 42216, Note_off_c, 1, 66, 0
1, 42216, Note_off_c, 1, 57, 0
1, 42360, Note_on_c, 1, 64, 127
1, 42456, Note_off_c, 1, 64, 0
1, 42480, Note_on_c, 1, 38, 127
1, 42576, Note_off_c, 1, 73, 0
1, 42600, Note_on_c, 1, 74, 127
1, 42696, Note_off_c, 1, 74, 0
1, 42768, Note_off_c, 1, 38, 0
1, 42840, Note_on_c, 1, 39, 127
1, 42869, Note_off_c, 1, 39, 0
1, 42870, Note_on_c, 1, 40, 127
1, 42899, Note_off_c, 1, 40, 0
1, 43080, Note_on_c, 1, 69, 127
1, 43080, Note_on_c, 1, 39, 127
1, 43109, Note_off_c, 1, 39, 0
1, 43110, Note_on_c, 1, 40, 127
1, 43139, Note_off_c, 1, 40, 0
1, 43176, Note_off_c, 1, 69, 0
1, 43200, Note_on_c, 1, 68, 127
1, 43200, Note_on_c, 1, 64, 127
1, 43200, Note_on_c, 1, 40, 127
1, 43229, Note_off_c, 1, 68, 0
1, 43230, Note_on_c, 1, 69, 127
1, 43254, Note_off_c, 1, 69, 0
1, 43296, Note_off_c, 1, 64, 0
1, 43320, Note_on_c, 1, 62, 127
1, 43392, Note_off_c, 1, 40, 0
1, 43416, Note_off_c, 1, 62, 0
1, 43440, Note_on_c, 1, 61, 127
1, 43536, Note_off_c, 1, 61, 0
1, 43560, Note_on_c, 1, 59, 127
1, 43656, Note_off_c, 1, 59, 0
1, 43680, Note_on_c, 1, 69, 127
1, 43680, Note_on_c, 1, 61, 127
1, 43776, Note_off_c, 1, 69, 0
1, 43776, Note_off_c, 1, 61, 0
1, 43800, Note_on_c, 1, 71, 127
1, 43800, Note_on_c, 1, 57, 127
1, 43896, Note_off_c, 1, 71, 0
1, 43896, Note_off_c, 1, 57, 0
1, 43920, Note_on_c, 1, 64, 127
1, 43920, Note_on_c, 1, 56, 127
1, 44016, Note_off_c, 1, 64, 0
1, 44040, Note_on_c, 1, 62, 127
1, 44112, Note_off_c, 1, 56, 0
1, 44136, Note_off_c, 1, 62, 0
1, 44160, Note_on_c, 1, 61, 127
1, 44160, Note_on_c, 1, 57, 127
1, 44256, Note_off_c, 1, 61, 0
1, 44256, Note_off_c, 1, 57, 0
1, 44280, Note_on_c, 1, 59, 127
1, 44280, Note_on_c, 1, 56, 127
1, 44376, Note_off_c, 1, 59, 0
1, 44400, Note_on_c, 1, 61, 127
1, 44472, Note_off_c, 1, 56, 0
1, 44496, Note_off_c, 1, 61, 0
1, 44520, Note_on_c, 1, 57, 127
1, 44520, Note_on_c, 1, 54, 127
1, 44616, Note_off_c, 1, 57, 0
1, 44616, Note_off_c, 1, 54, 0
1, 44640, Note_on_c, 1, 76, 127
1, 44640, Note_on_c, 1, 56, 127
1, 44640, Note_on_c, 1, 52, 127
1, 44736, Note_off_c, 1, 76, 0
1, 44760, Note_on_c, 1, 74, 127
1, 44832, Note_off_c, 1, 56, 0
1, 44832, Note_off_c, 1, 52, 0
1, 44856, Note_off_c, 1, 74, 0
1, 44880, Note_on_c, 1, 57, 127
1, 44880, Note_on_c, 1, 73, 127
1, 44880, Note_on_c, 1, 54, 127
1, 44976, Note_off_c, 1, 57, 0
1, 44976, Note_off_c, 1, 73, 0
1, 44976, Note_off_c, 1, 54, 0
1, 45000, Note_on_c, 1, 71, 127
1, 45000, Note_on_c, 1, 59, 127
1, 45000, Note_on_c, 1, 56, 127
1, 45096, Note_off_c, 1, 71, 0
1, 45096, Note_off_c, 1, 59, 0
1, 45120, Note_on_c, 1, 64, 127
1, 45120, Note_on_c, 1, 74, 127
1, 45192, Note_off_c, 1, 56, 0
1, 45216, Note_off_c, 1, 64, 0
1, 45216, Note_off_c, 1, 74, 0
1, 45240, Note_on_c, 1, 73, 127
1, 45240, Note_on_c, 1, 66, 127
1, 45240, Note_on_c, 1, 57, 127
1, 45336, Note_off_c, 1, 73, 0
1, 45336, Note_off_c, 1, 66, 0
1, 45336, Note_off_c, 1, 57, 0
1, 45360, Note_on_c, 1, 68, 127
1, 45360, Note_on_c, 1, 74, 127
1, 45360, Note_on_c, 1, 52, 127
1, 45360, Note_on_c, 1, 59, 127
1, 45456, Note_off_c, 1, 52, 0
1, 45480, Note_on_c, 1, 50, 127
1, 45552, Note_off_c, 1, 59, 0
1, 45576, Note_off_c, 1, 50, 0
1, 45600, Note_on_c, 1, 49, 127
1, 45696, Note_off_c, 1, 49, 0
1, 45720, Note_on_c, 1, 47, 127
1, 45816, Note_off_c, 1, 47, 0
1, 45912, Note_off_c, 1, 68, 0
1, 45960, Note_on_c, 1, 69, 127
1, 45960, Note_on_c, 1, 45, 127
1, 46056, Note_off_c, 1, 69, 0
1, 46056, Note_off_c, 1, 45, 0
1, 46080, Note_on_c, 1, 71, 127
1, 46080, Note_on_c, 1, 44, 127
1, 46176, Note_off_c, 1, 44, 0
1, 46200, Note_on_c, 1, 42, 127
1, 46296, Note_off_c, 1, 42, 0
1, 46320, Note_on_c, 1, 40, 127
1, 46368, Note_off_c, 1, 74, 0
1, 46416, Note_off_c, 1, 40, 0
1, 46440, Note_on_c, 1, 73, 127
1, 46536, Note_off_c, 1, 71, 0
1, 46680, Note_on_c, 1, 67, 127
1, 46776, Note_off_c, 1, 67, 0
1, 46800, Note_on_c, 1, 66, 127
1, 46896, Note_off_c, 1, 73, 0
1, 47088, Note_off_c, 1, 66, 0
1, 47160, Note_on_c, 1, 71, 127
1, 47160, Note_on_c, 1, 65, 127
1, 47160, Note_on_c, 1, 50, 127
1, 47256, Note_off_c, 1, 71, 0
1, 47256, Note_off_c, 1, 50, 0
1, 47280, Note_on_c, 1, 72, 127
1, 47280, Note_on_c, 1, 52, 127
1, 47376, Note_off_c, 1, 72, 0
1, 47376, Note_off_c, 1, 52, 0
1, 47400, Note_on_c, 1, 69, 127
1, 47400, Note_on_c, 1, 53, 127
1, 47496, Note_off_c, 1, 69, 0
1, 47496, Note_off_c, 1, 53, 0
1, 47520, Note_on_c, 1, 68, 127
1, 47616, Note_off_c, 1, 65, 0
1, 47640, Note_on_c, 1, 64, 127
1, 47736, Note_off_c, 1, 64, 0
1, 47760, Note_on_c, 1, 62, 127
1, 47856, Note_off_c, 1, 62, 0
1, 47880, Note_on_c, 1, 61, 127
1, 47976, Note_off_c, 1, 68, 0
1, 47976, Note_off_c, 1, 61, 0
1, 48120, Note_on_c, 1, 59, 127
1, 48216, Note_off_c, 1, 59, 0
1, 48360, Note_on_c, 1, 76, 127
1, 48456, Note_off_c, 1, 76, 0
1, 48960, Note_on_c, 1, 81, 127
1, 48960, Note_on_c, 1, 69, 127
1, 48960, Note_on_c, 1, 61, 127
1, 49056, Note_off_c, 1, 81, 0
1, 49080, Note_on_c, 1, 80, 127
1, 49152, Note_off_c, 1, 61, 0
1, 49176, Note_off_c, 1, 80, 0
1, 49200, Note_on_c, 1, 78, 127
1, 49200, Note_on_c, 1, 62, 127
1, 49296, Note_off_c, 1, 78, 0
1, 49296, Note_off_c, 1, 62, 0
1, 49320, Note_on_c, 1, 76, 127
1, 49416, Note_off_c, 1, 76, 0
1, 49560, Note_on_c, 1, 74, 127
1, 49560, Note_on_c, 1, 59, 127
1, 49656, Note_off_c, 1, 74, 0
1, 49656, Note_off_c, 1, 59, 0
1, 49680, Note_on_c, 1, 73, 127
1, 49680, Note_on_c, 1, 57, 127
1, 49776, Note_off_c, 1, 69, 0
1, 49800, Note_on_c, 1, 68, 127
1, 49872, Note_off_c, 1, 73, 0
1, 49896, Note_off_c, 1, 68, 0
1, 49920, Note_on_c, 1, 66, 127
1, 50016, Note_off_c, 1, 66, 0
1, 50040, Note_on_c, 1, 64, 127
1, 50136, Note_off_c, 1, 64, 0
1, 50280, Note_on_c, 1, 71, 127
1, 50376, Note_off_c, 1, 71, 0
1, 52416, Note_off_c, 1, 57, 0
1, 52440, Note_on_c, 1, 74, 127
1, 52440, Note_on_c, 1, 71, 127
1, 52536, Note_off_c, 1, 74, 0
1, 52536, Note_off_c, 1, 71, 0
1, 52560, Note_on_c, 1, 76, 127
1, 52560, Note_on_c, 1, 69, 127
1, 52560, Note_on_c, 1, 73, 127
1, 52560, Note_on_c, 1, 81, 127
1, 52560, Note_on_c, 1, 45, 127
1, 52944, Note_off_c, 1, 76, 0
1, 52944, Note_off_c, 1, 73, 0
1, 53136, Note_off_c, 1, 69, 0
1, 53136, Note_off_c, 1, 81, 0
1, 53136, Note_off_c, 1, 45, 0
1, 53136, End_track
0, 0, End_of_file