0, 0, Header, 1, 1, 480
1, 0, Start_track
1, 0, Title_t, "Test"
1, 0, Tempo, 500000
1, 0, Instrument_name_t, "Church Organ"
1, 0, Note_on_c, 1, 81, 127
1, 0, Note_on_c, 1, 76, 127
1, 0, Note_on_c, 1, 72, 127
1, 0, Note_on_c, 1, 69, 127
1, 98, Note_on_c, 1, 45, 127
1, 195, Note_off_c, 1, 45, 0
1, 197, Note_on_c, 1, 47, 127
1, 294, Note_off_c, 1, 47, 0
1, 296, Note_on_c, 1, 48, 127
1, 393, Note_off_c, 1, 48, 0
1, 395, Note_on_c, 1, 50, 127
1, 492, Note_off_c, 1, 50, 0
1, 494, Note_on_c, 1, 52, 127
1, 591, Note_off_c, 1, 52, 0
1, 593, Note_on_c, 1, 54, 127
1, 690, Note_off_c, 1, 54, 0
1, 692, Note_on_c, 1, 56, 127
1, 789, Note_off_c, 1, 56, 0
1, 791, Note_on_c, 1, 57, 127
1, 1185, Note_off_c, 1, 81, 0
1, 1185, Note_off_c, 1, 76, 0
1, 1185, Note_off_c, 1, 72, 0
1, 1582, Note_on_c, 1, 74, 127
1, 1582, Note_on_c, 1, 77, 127
1, 1976, Note_off_c, 1, 74, 0
1, 1976, Note_off_c, 1, 77, 0
1, 2768, Note_on_c, 1, 71, 127
1, 3159, Note_off_c, 1, 69, 0
1, 3160, Note_off_c, 1, 57, 0
1, 3162, Note_off_c, 1, 71, 0
1, 3164, Note_on_c, 1, 72, 127
1, 3164, Note_on_c, 1, 76, 127
1, 3164, Note_on_c, 1, 69, 127
1, 3263, Note_on_c, 1, 45, 127
1, 3360, Note_off_c, 1, 45, 0
1, 3361, Note_on_c, 1, 47, 127
1, 3458, Note_off_c, 1, 47, 0
1, 3460, Note_on_c, 1, 48, 127
1, 3557, Note_off_c, 1, 48, 0
1, 3559, Note_on_c, 1, 50, 127
1, 3656, Note_off_c, 1, 50, 0
1, 3658, Note_on_c, 1, 52, 127
1, 3755, Note_off_c, 1, 52, 0
1, 3757, Note_on_c, 1, 54, 127
1, 3854, Note_off_c, 1, 54, 0
1, 3856, Note_on_c, 1, 56, 127
1, 3953, Note_off_c, 1, 56, 0
1, 3955, Note_on_c, 1, 57, 127
1, 4297, Note_off_c, 1, 72, 0
1, 4297, Note_off_c, 1, 76, 0
1, 4348, Note_off_c, 1, 69, 0
1, 4350, Note_on_c, 1, 64, 127
1, 4744, Note_off_c, 1, 64, 0
1, 4746, Note_on_c, 1, 65, 127
1, 4746, Note_on_c, 1, 71, 127
1, 4746, Note_on_c, 1, 74, 127
1, 5140, Note_off_c, 1, 65, 0
1, 5140, Note_off_c, 1, 71, 0
1, 5140, Note_off_c, 1, 74, 0
1, 5932, Note_on_c, 1, 62, 127
1, 5932, Note_on_c, 1, 68, 127
1, 6324, Note_off_c, 1, 57, 0
1, 6326, Note_off_c, 1, 62, 0
1, 6326, Note_off_c, 1, 68, 0
1, 6328, Note_on_c, 1, 69, 127
1, 6328, Note_on_c, 1, 72, 127
1, 6328, Note_on_c, 1, 64, 127
1, 6427, Note_on_c, 1, 45, 127
1, 6524, Note_off_c, 1, 45, 0
1, 6526, Note_on_c, 1, 47, 127
1, 6623, Note_off_c, 1, 47, 0
1, 6624, Note_on_c, 1, 48, 127
1, 6721, Note_off_c, 1, 48, 0
1, 6723, Note_on_c, 1, 50, 127
1, 6820, Note_off_c, 1, 50, 0
1, 6822, Note_on_c, 1, 52, 127
1, 6919, Note_off_c, 1, 52, 0
1, 6921, Note_on_c, 1, 54, 127
1, 7018, Note_off_c, 1, 54, 0
1, 7020, Note_on_c, 1, 56, 127
1, 7117, Note_off_c, 1, 56, 0
1, 7119, Note_on_c, 1, 57, 127
1, 7513, Note_off_c, 1, 69, 0
1, 7513, Note_off_c, 1, 72, 0
1, 7513, Note_off_c, 1, 64, 0
1, 7513, Note_off_c, 1, 57, 0
1, 7514, Note_on_c, 1, 53, 127
1, 7514, Note_on_c, 1, 69, 127
1, 7514, Note_on_c, 1, 74, 127
1, 7514, Note_on_c, 1, 65, 127
1, 7905, Note_off_c, 1, 53, 0
1, 7908, Note_off_c, 1, 69, 0
1, 7908, Note_off_c, 1, 74, 0
1, 7908, Note_off_c, 1, 65, 0
1, 7910, Note_on_c, 1, 67, 127
1, 7910, Note_on_c, 1, 71, 127
1, 7910, Note_on_c, 1, 62, 127
1, 8009, Note_on_c, 1, 43, 127
1, 8106, Note_off_c, 1, 43, 0
1, 8108, Note_on_c, 1, 45, 127
1, 8205, Note_off_c, 1, 45, 0
1, 8207, Note_on_c, 1, 47, 127
1, 8304, Note_off_c, 1, 47, 0
1, 8305, Note_on_c, 1, 48, 127
1, 8402, Note_off_c, 1, 48, 0
1, 8404, Note_on_c, 1, 50, 127
1, 8501, Note_off_c, 1, 50, 0
1, 8503, Note_on_c, 1, 52, 127
1, 8600, Note_off_c, 1, 52, 0
1, 8602, Note_on_c, 1, 53, 127
1, 8699, Note_off_c, 1, 53, 0
1, 8701, Note_on_c, 1, 55, 127
1, 9095, Note_off_c, 1, 67, 0
1, 9095, Note_off_c, 1, 71, 0
1, 9095, Note_off_c, 1, 62, 0
1, 9095, Note_off_c, 1, 55, 0
1, 9096, Note_on_c, 1, 52, 127
1, 9096, Note_on_c, 1, 67, 127
1, 9096, Note_on_c, 1, 72, 127
1, 9096, Note_on_c, 1, 64, 127
1, 9487, Note_off_c, 1, 52, 0
1, 9490, Note_off_c, 1, 67, 0
1, 9490, Note_off_c, 1, 72, 0
1, 9490, Note_off_c, 1, 64, 0
1, 9492, Note_on_c, 1, 65, 127
1, 9492, Note_on_c, 1, 69, 127
1, 9492, Note_on_c, 1, 60, 127
1, 9591, Note_on_c, 1, 41, 127
1, 9688, Note_off_c, 1, 41, 0
1, 9690, Note_on_c, 1, 43, 127
1, 9787, Note_off_c, 1, 43, 0
1, 9789, Note_on_c, 1, 45, 127
1, 9886, Note_off_c, 1, 45, 0
1, 9888, Note_on_c, 1, 47, 127
1, 9985, Note_off_c, 1, 47, 0
1, 9986, Note_on_c, 1, 48, 127
1, 10083, Note_off_c, 1, 48, 0
1, 10085, Note_on_c, 1, 50, 127
1, 10182, Note_off_c, 1, 50, 0
1, 10184, Note_on_c, 1, 52, 127
1, 10281, Note_off_c, 1, 52, 0
1, 10283, Note_on_c, 1, 53, 127
1, 10677, Note_off_c, 1, 65, 0
1, 10677, Note_off_c, 1, 69, 0
1, 10677, Note_off_c, 1, 60, 0
1, 10677, Note_off_c, 1, 53, 0
1, 10679, Note_on_c, 1, 50, 127
1, 10679, Note_on_c, 1, 65, 127
1, 10679, Note_on_c, 1, 71, 127
1, 10679, Note_on_c, 1, 62, 127
1, 11070, Note_off_c, 1, 50, 0
1, 11073, Note_off_c, 1, 65, 0
1, 11073, Note_off_c, 1, 71, 0
1, 11073, Note_off_c, 1, 62, 0
1, 11074, Note_on_c, 1, 64, 127
1, 11074, Note_on_c, 1, 68, 127
1, 11074, Note_on_c, 1, 59, 127
1, 11173, Note_on_c, 1, 40, 127
1, 11270, Note_off_c, 1, 40, 0
1, 11272, Note_on_c, 1, 42, 127
1, 11369, Note_off_c, 1, 42, 0
1, 11371, Note_on_c, 1, 44, 127
1, 11468, Note_off_c, 1, 44, 0
1, 11470, Note_on_c, 1, 45, 127
1, 11567, Note_off_c, 1, 45, 0
1, 11568, Note_on_c, 1, 47, 127
1, 11665, Note_off_c, 1, 47, 0
1, 11667, Note_on_c, 1, 48, 127
1, 11764, Note_off_c, 1, 48, 0
1, 11766, Note_on_c, 1, 50, 127
1, 11863, Note_off_c, 1, 50, 0
1, 11865, Note_on_c, 1, 52, 127
1, 11962, Note_off_c, 1, 64, 0
1, 11962, Note_off_c, 1, 68, 0
1, 11962, Note_off_c, 1, 59, 0
1, 12063, Note_on_c, 1, 66, 127
1, 12160, Note_off_c, 1, 66, 0
1, 12259, Note_off_c, 1, 52, 0
1, 12261, Note_on_c, 1, 69, 127
1, 12261, Note_on_c, 1, 50, 127
1, 12358, Note_off_c, 1, 69, 0
1, 12360, Note_on_c, 1, 71, 127
1, 12457, Note_off_c, 1, 71, 0
1, 12458, Note_on_c, 1, 73, 127
1, 12555, Note_off_c, 1, 73, 0
1, 12557, Note_on_c, 1, 74, 127
1, 12654, Note_off_c, 1, 74, 0
1, 12655, Note_off_c, 1, 50, 0
1, 12656, Note_on_c, 1, 76, 127
1, 12656, Note_on_c, 1, 49, 127
1, 12753, Note_off_c, 1, 76, 0
1, 12755, Note_on_c, 1, 73, 127
1, 12852, Note_off_c, 1, 73, 0
1, 12854, Note_on_c, 1, 69, 127
1, 12951, Note_off_c, 1, 69, 0
1, 12953, Note_on_c, 1, 71, 127
1, 13050, Note_off_c, 1, 49, 0
1, 13050, Note_off_c, 1, 71, 0
1, 13052, Note_on_c, 1, 73, 127
1, 13052, Note_on_c, 1, 52, 127
1, 13149, Note_off_c, 1, 73, 0
1, 13151, Note_on_c, 1, 74, 127
1, 13248, Note_off_c, 1, 74, 0
1, 13249, Note_on_c, 1, 76, 127
1, 13346, Note_off_c, 1, 76, 0
1, 13348, Note_on_c, 1, 77, 127
1, 13445, Note_off_c, 1, 77, 0
1, 13446, Note_off_c, 1, 52, 0
1, 13447, Note_on_c, 1, 79, 127
1, 13447, Note_on_c, 1, 49, 127
1, 13841, Note_off_c, 1, 79, 0
1, 13841, Note_off_c, 1, 49, 0
1, 13843, Note_on_c, 1, 73, 127
1, 13843, Note_on_c, 1, 76, 127
1, 13843, Note_on_c, 1, 79, 127
1, 13843, Note_on_c, 1, 69, 127
1, 13843, Note_on_c, 1, 45, 127
1, 14237, Note_off_c, 1, 73, 0
1, 14237, Note_off_c, 1, 76, 0
1, 14237, Note_off_c, 1, 79, 0
1, 14237, Note_off_c, 1, 69, 0
1, 14237, Note_off_c, 1, 45, 0
1, 14238, Note_on_c, 1, 50, 127
1, 14238, Note_on_c, 1, 73, 127
1, 14238, Note_on_c, 1, 76, 127
1, 14238, Note_on_c, 1, 79, 127
1, 14238, Note_on_c, 1, 69, 127
1, 14335, Note_off_c, 1, 50, 0
1, 14337, Note_on_c, 1, 38, 127
1, 14434, Note_off_c, 1, 38, 0
1, 14436, Note_on_c, 1, 40, 127
1, 14533, Note_off_c, 1, 40, 0
1, 14535, Note_on_c, 1, 42, 127
1, 14632, Note_off_c, 1, 73, 0
1, 14632, Note_off_c, 1, 76, 0
1, 14632, Note_off_c, 1, 79, 0
1, 14632, Note_off_c, 1, 69, 0
1, 14632, Note_off_c, 1, 42, 0
1, 14634, Note_on_c, 1, 43, 127
1, 14634, Note_on_c, 1, 74, 127
1, 14634, Note_on_c, 1, 78, 127
1, 14731, Note_off_c, 1, 43, 0
1, 14733, Note_on_c, 1, 45, 127
1, 14830, Note_off_c, 1, 45, 0
1, 14832, Note_on_c, 1, 47, 127
1, 14929, Note_off_c, 1, 47, 0
1, 14930, Note_on_c, 1, 48, 127
1, 15027, Note_off_c, 1, 48, 0
1, 15029, Note_on_c, 1, 50, 127
1, 15127, Note_off_c, 1, 74, 0
1, 15127, Note_off_c, 1, 78, 0
1, 15128, Note_on_c, 1, 62, 127
1, 15225, Note_off_c, 1, 62, 0
1, 15227, Note_on_c, 1, 64, 127
1, 15324, Note_off_c, 1, 64, 0
1, 15326, Note_on_c, 1, 66, 127
1, 15423, Note_off_c, 1, 50, 0
1, 15423, Note_off_c, 1, 66, 0
1, 15425, Note_on_c, 1, 67, 127
1, 15425, Note_on_c, 1, 48, 127
1, 15522, Note_off_c, 1, 67, 0
1, 15524, Note_on_c, 1, 69, 127
1, 15621, Note_off_c, 1, 69, 0
1, 15623, Note_on_c, 1, 71, 127
1, 15720, Note_off_c, 1, 71, 0
1, 15721, Note_on_c, 1, 72, 127
1, 15818, Note_off_c, 1, 72, 0
1, 15819, Note_off_c, 1, 48, 0
1, 15820, Note_on_c, 1, 74, 127
1, 15820, Note_on_c, 1, 47, 127
1, 15917, Note_off_c, 1, 74, 0
1, 15919, Note_on_c, 1, 71, 127
1, 16016, Note_off_c, 1, 71, 0
1, 16018, Note_on_c, 1, 67, 127
1, 16115, Note_off_c, 1, 67, 0
1, 16117, Note_on_c, 1, 69, 127
1, 16214, Note_off_c, 1, 47, 0
1, 16214, Note_off_c, 1, 69, 0
1, 16216, Note_on_c, 1, 71, 127
1, 16216, Note_on_c, 1, 50, 127
1, 16313, Note_off_c, 1, 71, 0
1, 16315, Note_on_c, 1, 72, 127
1, 16412, Note_off_c, 1, 72, 0
1, 16414, Note_on_c, 1, 74, 127
1, 16511, Note_off_c, 1, 74, 0
1, 16512, Note_on_c, 1, 76, 127
1, 16609, Note_off_c, 1, 76, 0
1, 16610, Note_off_c, 1, 50, 0
1, 16611, Note_on_c, 1, 77, 127
1, 16611, Note_on_c, 1, 47, 127
1, 17005, Note_off_c, 1, 77, 0
1, 17005, Note_off_c, 1, 47, 0
1, 17007, Note_on_c, 1, 74, 127
1, 17007, Note_on_c, 1, 77, 127
1, 17007, Note_on_c, 1, 67, 127
1, 17007, Note_on_c, 1, 71, 127
1, 17007, Note_on_c, 1, 43, 127
1, 17401, Note_off_c, 1, 74, 0
1, 17401, Note_off_c, 1, 77, 0
1, 17401, Note_off_c, 1, 67, 0
1, 17401, Note_off_c, 1, 71, 0
1, 17401, Note_off_c, 1, 43, 0
1, 17402, Note_on_c, 1, 48, 127
1, 17402, Note_on_c, 1, 74, 127
1, 17402, Note_on_c, 1, 77, 127
1, 17402, Note_on_c, 1, 67, 127
1, 17402, Note_on_c, 1, 71, 127
1, 17499, Note_off_c, 1, 48, 0
1, 17501, Note_on_c, 1, 36, 127
1, 17598, Note_off_c, 1, 36, 0
1, 17600, Note_on_c, 1, 38, 127
1, 17697, Note_off_c, 1, 38, 0
1, 17699, Note_on_c, 1, 40, 127
1, 17796, Note_off_c, 1, 74, 0
1, 17796, Note_off_c, 1, 77, 0
1, 17796, Note_off_c, 1, 67, 0
1, 17796, Note_off_c, 1, 71, 0
1, 17796, Note_off_c, 1, 40, 0
1, 17798, Note_on_c, 1, 41, 127
1, 17798, Note_on_c, 1, 76, 127
1, 17798, Note_on_c, 1, 72, 127
1, 17895, Note_off_c, 1, 41, 0
1, 17897, Note_on_c, 1, 43, 127
1, 17994, Note_off_c, 1, 43, 0
1, 17996, Note_on_c, 1, 45, 127
1, 18093, Note_off_c, 1, 45, 0
1, 18095, Note_on_c, 1, 47, 127
1, 18192, Note_off_c, 1, 47, 0
1, 18193, Note_on_c, 1, 48, 127
1, 18291, Note_off_c, 1, 76, 0
1, 18291, Note_off_c, 1, 72, 0
1, 18292, Note_on_c, 1, 60, 127
1, 18389, Note_off_c, 1, 60, 0
1, 18391, Note_on_c, 1, 62, 127
1, 18488, Note_off_c, 1, 62, 0
1, 18490, Note_on_c, 1, 64, 127
1, 18587, Note_off_c, 1, 48, 0
1, 18587, Note_off_c, 1, 64, 0
1, 18589, Note_on_c, 1, 65, 127
1, 18589, Note_on_c, 1, 47, 127
1, 18686, Note_off_c, 1, 65, 0
1, 18688, Note_on_c, 1, 67, 127
1, 18785, Note_off_c, 1, 67, 0
1, 18787, Note_on_c, 1, 69, 127
1, 18884, Note_off_c, 1, 69, 0
1, 18886, Note_on_c, 1, 71, 127
1, 18980, Note_off_c, 1, 47, 0
1, 18983, Note_off_c, 1, 71, 0
1, 18984, Note_on_c, 1, 72, 127
1, 19083, Note_on_c, 1, 45, 127
1, 19180, Note_off_c, 1, 45, 0
1, 19182, Note_on_c, 1, 47, 127
1, 19279, Note_off_c, 1, 47, 0
1, 19281, Note_on_c, 1, 48, 127
1, 19378, Note_off_c, 1, 72, 0
1, 19378, Note_off_c, 1, 48, 0
1, 19380, Note_on_c, 1, 65, 127
1, 19380, Note_on_c, 1, 50, 127
1, 19457, Note_on_c, 1, 64, 127
1, 19462, Note_off_c, 1, 65, 0
1, 19477, Note_off_c, 1, 50, 0
1, 19479, Note_on_c, 1, 52, 127
1, 19539, Note_off_c, 1, 64, 0
1, 19576, Note_off_c, 1, 52, 0
1, 19578, Note_on_c, 1, 53, 127
1, 19675, Note_off_c, 1, 53, 0
1, 19677, Note_on_c, 1, 55, 127
1, 19774, Note_off_c, 1, 55, 0
1, 19776, Note_on_c, 1, 57, 127
1, 19874, Note_on_c, 1, 67, 127
1, 19971, Note_off_c, 1, 67, 0
1, 20170, Note_off_c, 1, 57, 0
1, 20171, Note_on_c, 1, 65, 127
1, 20171, Note_on_c, 1, 45, 127
1, 20268, Note_off_c, 1, 65, 0
1, 20270, Note_on_c, 1, 67, 127
1, 20367, Note_off_c, 1, 67, 0
1, 20369, Note_on_c, 1, 69, 127
1, 20466, Note_off_c, 1, 69, 0
1, 20468, Note_on_c, 1, 71, 127
1, 20562, Note_off_c, 1, 45, 0
1, 20565, Note_off_c, 1, 71, 0
1, 20567, Note_on_c, 1, 72, 127
1, 20665, Note_on_c, 1, 43, 127
1, 20762, Note_off_c, 1, 43, 0
1, 20764, Note_on_c, 1, 45, 127
1, 20861, Note_off_c, 1, 45, 0
1, 20863, Note_on_c, 1, 47, 127
1, 20960, Note_off_c, 1, 47, 0
1, 20961, Note_off_c, 1, 72, 0
1, 20962, Note_on_c, 1, 64, 127
1, 20962, Note_on_c, 1, 48, 127
1, 21039, Note_on_c, 1, 62, 127
1, 21044, Note_off_c, 1, 64, 0
1, 21059, Note_off_c, 1, 48, 0
1, 21061, Note_on_c, 1, 50, 127
1, 21121, Note_off_c, 1, 62, 0
1, 21158, Note_off_c, 1, 50, 0
1, 21160, Note_on_c, 1, 52, 127
1, 21257, Note_off_c, 1, 52, 0
1, 21259, Note_on_c, 1, 53, 127
1, 21356, Note_off_c, 1, 53, 0
1, 21358, Note_on_c, 1, 55, 127
1, 21456, Note_on_c, 1, 65, 127
1, 21553, Note_off_c, 1, 65, 0
1, 21752, Note_off_c, 1, 55, 0
1, 21753, Note_on_c, 1, 64, 127
1, 21753, Note_on_c, 1, 43, 127
1, 21850, Note_off_c, 1, 64, 0
1, 21852, Note_on_c, 1, 67, 127
1, 21949, Note_off_c, 1, 67, 0
1, 21951, Note_on_c, 1, 69, 127
1, 22048, Note_off_c, 1, 69, 0
1, 22050, Note_on_c, 1, 71, 127
1, 22147, Note_off_c, 1, 43, 0
1, 22147, Note_off_c, 1, 71, 0
1, 22149, Note_on_c, 1, 72, 127
1, 22149, Note_on_c, 1, 42, 127
1, 22246, Note_off_c, 1, 72, 0
1, 22248, Note_on_c, 1, 71, 127
1, 22345, Note_off_c, 1, 42, 0
1, 22345, Note_off_c, 1, 71, 0
1, 22346, Note_on_c, 1, 72, 127
1, 22346, Note_on_c, 1, 45, 127
1, 22443, Note_off_c, 1, 72, 0
1, 22445, Note_on_c, 1, 75, 127
1, 22542, Note_off_c, 1, 45, 0
1, 22542, Note_off_c, 1, 75, 0
1, 22544, Note_on_c, 1, 69, 127
1, 22544, Note_on_c, 1, 48, 127
1, 22641, Note_off_c, 1, 69, 0
1, 22643, Note_on_c, 1, 67, 127
1, 22740, Note_off_c, 1, 48, 0
1, 22740, Note_off_c, 1, 67, 0
1, 22742, Note_on_c, 1, 69, 127
1, 22742, Note_on_c, 1, 51, 127
1, 22839, Note_off_c, 1, 69, 0
1, 22841, Note_on_c, 1, 72, 127
1, 22938, Note_off_c, 1, 51, 0
1, 22938, Note_off_c, 1, 72, 0
1, 22940, Note_on_c, 1, 66, 127
1, 22940, Note_on_c, 1, 48, 127
1, 23037, Note_off_c, 1, 66, 0
1, 23039, Note_on_c, 1, 64, 127
1, 23136, Note_off_c, 1, 48, 0
1, 23136, Note_off_c, 1, 64, 0
1, 23137, Note_on_c, 1, 66, 127
1, 23137, Note_on_c, 1, 45, 127
1, 23234, Note_off_c, 1, 66, 0
1, 23236, Note_on_c, 1, 69, 127
1, 23333, Note_off_c, 1, 45, 0
1, 23333, Note_off_c, 1, 69, 0
1, 23335, Note_on_c, 1, 63, 127
1, 23335, Note_on_c, 1, 43, 127
1, 23432, Note_off_c, 1, 63, 0
1, 23434, Note_on_c, 1, 62, 127
1, 23531, Note_off_c, 1, 43, 0
1, 23531, Note_off_c, 1, 62, 0
1, 23533, Note_on_c, 1, 63, 127
1, 23533, Note_on_c, 1, 42, 127
1, 23630, Note_off_c, 1, 63, 0
1, 23632, Note_on_c, 1, 72, 127
1, 23729, Note_off_c, 1, 42, 0
1, 23729, Note_off_c, 1, 72, 0
1, 23731, Note_on_c, 1, 71, 127
1, 23731, Note_on_c, 1, 41, 127
1, 23828, Note_off_c, 1, 71, 0
1, 23830, Note_on_c, 1, 69, 127
1, 23927, Note_off_c, 1, 41, 0
1, 23927, Note_off_c, 1, 69, 0
1, 23928, Note_on_c, 1, 71, 127
1, 23928, Note_on_c, 1, 44, 127
1, 24025, Note_off_c, 1, 71, 0
1, 24027, Note_on_c, 1, 74, 127
1, 24124, Note_off_c, 1, 44, 0
1, 24124, Note_off_c, 1, 74, 0
1, 24126, Note_on_c, 1, 68, 127
1, 24126, Note_on_c, 1, 47, 127
1, 24223, Note_off_c, 1, 68, 0
1, 24225, Note_on_c, 1, 67, 127
1, 24322, Note_off_c, 1, 47, 0
1, 24322, Note_off_c, 1, 67, 0
1, 24324, Note_on_c, 1, 68, 127
1, 24324, Note_on_c, 1, 50, 127
1, 24421, Note_off_c, 1, 68, 0
1, 24423, Note_on_c, 1, 71, 127
1, 24520, Note_off_c, 1, 50, 0
1, 24520, Note_off_c, 1, 71, 0
1, 24522, Note_on_c, 1, 65, 127
1, 24522, Note_on_c, 1, 47, 127
1, 24619, Note_off_c, 1, 65, 0
1, 24621, Note_on_c, 1, 64, 127
1, 24718, Note_off_c, 1, 47, 0
1, 24718, Note_off_c, 1, 64, 0
1, 24720, Note_on_c, 1, 65, 127
1, 24720, Note_on_c, 1, 44, 127
1, 24817, Note_off_c, 1, 65, 0
1, 24818, Note_on_c, 1, 68, 127
1, 24915, Note_off_c, 1, 68, 0
1, 24916, Note_off_c, 1, 44, 0
1, 24917, Note_on_c, 1, 62, 127
1, 24917, Note_on_c, 1, 43, 127
1, 25014, Note_off_c, 1, 62, 0
1, 25016, Note_on_c, 1, 60, 127
1, 25113, Note_off_c, 1, 43, 0
1, 25113, Note_off_c, 1, 60, 0
1, 25115, Note_on_c, 1, 62, 127
1, 25115, Note_on_c, 1, 41, 127
1, 25212, Note_off_c, 1, 62, 0
1, 25214, Note_on_c, 1, 71, 127
1, 25311, Note_off_c, 1, 41, 0
1, 25311, Note_off_c, 1, 71, 0
1, 25313, Note_on_c, 1, 72, 127
1, 25313, Note_on_c, 1, 40, 127
1, 25410, Note_off_c, 1, 72, 0
1, 25410, Note_off_c, 1, 40, 0
1, 25412, Note_on_c, 1, 71, 127
1, 25412, Note_on_c, 1, 43, 127
1, 25509, Note_off_c, 1, 71, 0
1, 25509, Note_off_c, 1, 43, 0
1, 25511, Note_on_c, 1, 69, 127
1, 25511, Note_on_c, 1, 45, 127
1, 25608, Note_off_c, 1, 69, 0
1, 25608, Note_off_c, 1, 45, 0
1, 25609, Note_on_c, 1, 67, 127
1, 25609, Note_on_c, 1, 47, 127
1, 25706, Note_off_c, 1, 67, 0
1, 25706, Note_off_c, 1, 47, 0
1, 25708, Note_on_c, 1, 65, 127
1, 25708, Note_on_c, 1, 48, 127
1, 25805, Note_off_c, 1, 65, 0
1, 25805, Note_off_c, 1, 48, 0
1, 25807, Note_on_c, 1, 64, 127
1, 25807, Note_on_c, 1, 50, 127
1, 25904, Note_off_c, 1, 64, 0
1, 25904, Note_off_c, 1, 50, 0
1, 25906, Note_on_c, 1, 62, 127
1, 25906, Note_on_c, 1, 52, 127
1, 26003, Note_off_c, 1, 62, 0
1, 26003, Note_off_c, 1, 52, 0
1, 26005, Note_on_c, 1, 60, 127
1, 26005, Note_on_c, 1, 53, 127
1, 26093, Note_off_c, 1, 60, 0
1, 26102, Note_off_c, 1, 53, 0
1, 26104, Note_on_c, 1, 55, 127
1, 26302, Note_on_c, 1, 62, 127
1, 26498, Note_off_c, 1, 55, 0
1, 26499, Note_on_c, 1, 65, 127
1, 26499, Note_on_c, 1, 43, 127
1, 26697, Note_on_c, 1, 71, 127
1, 26890, Note_off_c, 1, 65, 0
1, 26890, Note_off_c, 1, 43, 0
1, 26893, Note_off_c, 1, 71, 0
1, 26894, Note_off_c, 1, 62, 0
1, 26895, Note_on_c, 1, 72, 127
1, 26895, Note_on_c, 1, 67, 127
1, 26895, Note_on_c, 1, 64, 127
1, 26994, Note_on_c, 1, 48, 127
1, 27091, Note_off_c, 1, 48, 0
1, 27093, Note_on_c, 1, 50, 127
1, 27190, Note_off_c, 1, 50, 0
1, 27192, Note_on_c, 1, 52, 127
1, 27289, Note_off_c, 1, 52, 0
1, 27290, Note_on_c, 1, 53, 127
1, 27387, Note_off_c, 1, 53, 0
1, 27389, Note_on_c, 1, 55, 127
1, 27486, Note_off_c, 1, 55, 0
1, 27488, Note_on_c, 1, 57, 127
1, 27585, Note_off_c, 1, 57, 0
1, 27587, Note_on_c, 1, 59, 127
1, 27684, Note_off_c, 1, 59, 0
1, 27686, Note_on_c, 1, 60, 127
1, 27783, Note_off_c, 1, 72, 0
1, 27783, Note_off_c, 1, 67, 0
1, 27783, Note_off_c, 1, 64, 0
1, 27884, Note_on_c, 1, 69, 127
1, 27981, Note_off_c, 1, 69, 0
1, 27983, Note_on_c, 1, 71, 127
1, 28080, Note_off_c, 1, 60, 0
1, 28080, Note_off_c, 1, 71, 0
1, 28081, Note_on_c, 1, 72, 127
1, 28081, Note_on_c, 1, 58, 127
1, 28178, Note_off_c, 1, 72, 0
1, 28180, Note_on_c, 1, 74, 127
1, 28277, Note_off_c, 1, 74, 0
1, 28279, Note_on_c, 1, 76, 127
1, 28376, Note_off_c, 1, 76, 0
1, 28378, Note_on_c, 1, 77, 127
1, 28475, Note_off_c, 1, 58, 0
1, 28475, Note_off_c, 1, 77, 0
1, 28477, Note_on_c, 1, 79, 127
1, 28477, Note_on_c, 1, 57, 127
1, 28574, Note_off_c, 1, 79, 0
1, 28576, Note_on_c, 1, 77, 127
1, 28673, Note_off_c, 1, 57, 0
1, 28673, Note_off_c, 1, 77, 0
1, 28675, Note_on_c, 1, 79, 127
1, 28675, Note_on_c, 1, 52, 127
1, 28772, Note_off_c, 1, 79, 0
1, 28774, Note_on_c, 1, 82, 127
1, 28871, Note_off_c, 1, 52, 0
1, 28871, Note_off_c, 1, 82, 0
1, 28872, Note_on_c, 1, 76, 127
1, 28872, Note_on_c, 1, 49, 127
1, 28969, Note_off_c, 1, 76, 0
1, 28971, Note_on_c, 1, 74, 127
1, 29068, Note_off_c, 1, 49, 0
1, 29068, Note_off_c, 1, 74, 0
1, 29070, Note_on_c, 1, 76, 127
1, 29070, Note_on_c, 1, 45, 127
1, 29167, Note_off_c, 1, 76, 0
1, 29169, Note_on_c, 1, 79, 127
1, 29266, Note_off_c, 1, 45, 0
1, 29266, Note_off_c, 1, 79, 0
1, 29268, Note_on_c, 1, 73, 127
1, 29268, Note_on_c, 1, 55, 127
1, 29365, Note_off_c, 1, 73, 0
1, 29367, Note_on_c, 1, 71, 127
1, 29464, Note_off_c, 1, 55, 0
1, 29464, Note_off_c, 1, 71, 0
1, 29466, Note_on_c, 1, 73, 127
1, 29466, Note_on_c, 1, 52, 127
1, 29563, Note_off_c, 1, 73, 0
1, 29565, Note_on_c, 1, 76, 127
1, 29662, Note_off_c, 1, 52, 0
1, 29662, Note_off_c, 1, 76, 0
1, 29664, Note_on_c, 1, 69, 127
1, 29664, Note_on_c, 1, 49, 127
1, 29761, Note_off_c, 1, 69, 0
1, 29762, Note_on_c, 1, 68, 127
1, 29859, Note_off_c, 1, 68, 0
1, 29860, Note_off_c, 1, 49, 0
1, 29861, Note_on_c, 1, 69, 127
1, 29861, Note_on_c, 1, 45, 127
1, 29958, Note_off_c, 1, 69, 0
1, 29960, Note_on_c, 1, 76, 127
1, 30057, Note_off_c, 1, 45, 0
1, 30057, Note_off_c, 1, 76, 0
1, 30059, Note_on_c, 1, 77, 127
1, 30059, Note_on_c, 1, 50, 127
1, 30156, Note_off_c, 1, 77, 0
1, 30158, Note_on_c, 1, 76, 127
1, 30255, Note_off_c, 1, 50, 0
1, 30255, Note_off_c, 1, 76, 0
1, 30257, Note_on_c, 1, 77, 127
1, 30257, Note_on_c, 1, 52, 127
1, 30354, Note_off_c, 1, 77, 0
1, 30356, Note_on_c, 1, 81, 127
1, 30453, Note_off_c, 1, 52, 0
1, 30453, Note_off_c, 1, 81, 0
1, 30455, Note_on_c, 1, 74, 127
1, 30455, Note_on_c, 1, 53, 127
1, 30552, Note_off_c, 1, 74, 0
1, 30553, Note_on_c, 1, 72, 127
1, 30650, Note_off_c, 1, 72, 0
1, 30651, Note_off_c, 1, 53, 0
1, 30652, Note_on_c, 1, 74, 127
1, 30652, Note_on_c, 1, 52, 127
1, 30749, Note_off_c, 1, 74, 0
1, 30751, Note_on_c, 1, 77, 127
1, 30848, Note_off_c, 1, 52, 0
1, 30848, Note_off_c, 1, 77, 0
1, 30850, Note_on_c, 1, 71, 127
1, 30850, Note_on_c, 1, 50, 127
1, 30947, Note_off_c, 1, 71, 0
1, 30949, Note_on_c, 1, 69, 127
1, 31046, Note_off_c, 1, 50, 0
1, 31046, Note_off_c, 1, 69, 0
1, 31048, Note_on_c, 1, 71, 127
1, 31048, Note_on_c, 1, 48, 127
1, 31145, Note_off_c, 1, 71, 0
1, 31147, Note_on_c, 1, 74, 127
1, 31244, Note_off_c, 1, 48, 0
1, 31244, Note_off_c, 1, 74, 0
1, 31246, Note_on_c, 1, 68, 127
1, 31246, Note_on_c, 1, 47, 127
1, 31343, Note_off_c, 1, 68, 0
1, 31344, Note_on_c, 1, 66, 127
1, 31441, Note_off_c, 1, 66, 0
1, 31442, Note_off_c, 1, 47, 0
1, 31443, Note_on_c, 1, 68, 127
1, 31443, Note_on_c, 1, 45, 127
1, 31540, Note_off_c, 1, 68, 0
1, 31542, Note_on_c, 1, 71, 127
1, 31639, Note_off_c, 1, 45, 0
1, 31639, Note_off_c, 1, 71, 0
1, 31641, Note_on_c, 1, 74, 127
1, 31641, Note_on_c, 1, 44, 127
1, 31738, Note_off_c, 1, 74, 0
1, 31740, Note_on_c, 1, 72, 127
1, 31837, Note_off_c, 1, 44, 0
1, 31837, Note_off_c, 1, 72, 0
1, 31839, Note_on_c, 1, 74, 127
1, 31839, Note_on_c, 1, 45, 127
1, 31936, Note_off_c, 1, 74, 0
1, 31938, Note_on_c, 1, 77, 127
1, 32035, Note_off_c, 1, 45, 0
1, 32035, Note_off_c, 1, 77, 0
1, 32037, Note_on_c, 1, 71, 127
1, 32037, Note_on_c, 1, 44, 127
1, 32134, Note_off_c, 1, 71, 0
1, 32136, Note_on_c, 1, 69, 127
1, 32233, Note_off_c, 1, 44, 0
1, 32233, Note_off_c, 1, 69, 0
1, 32234, Note_on_c, 1, 71, 127
1, 32234, Note_on_c, 1, 42, 127
1, 32331, Note_off_c, 1, 71, 0
1, 32333, Note_on_c, 1, 74, 127
1, 32430, Note_off_c, 1, 42, 0
1, 32430, Note_off_c, 1, 74, 0
1, 32432, Note_on_c, 1, 68, 127
1, 32432, Note_on_c, 1, 40, 127
1, 32529, Note_off_c, 1, 68, 0
1, 32531, Note_on_c, 1, 66, 127
1, 32628, Note_off_c, 1, 40, 0
1, 32628, Note_off_c, 1, 66, 0
1, 32630, Note_on_c, 1, 68, 127
1, 32630, Note_on_c, 1, 42, 127
1, 32727, Note_off_c, 1, 68, 0
1, 32729, Note_on_c, 1, 71, 127
1, 32826, Note_off_c, 1, 42, 0
1, 32826, Note_off_c, 1, 71, 0
1, 32828, Note_on_c, 1, 64, 127
1, 32828, Note_on_c, 1, 44, 127
1, 32925, Note_off_c, 1, 64, 0
1, 32927, Note_on_c, 1, 63, 127
1, 33024, Note_off_c, 1, 44, 0
1, 33024, Note_off_c, 1, 63, 0
1, 33025, Note_on_c, 1, 64, 127
1, 33025, Note_on_c, 1, 40, 127
1, 33122, Note_off_c, 1, 64, 0
1, 33124, Note_on_c, 1, 71, 127
1, 33221, Note_off_c, 1, 40, 0
1, 33221, Note_off_c, 1, 71, 0
1, 33223, Note_on_c, 1, 72, 127
1, 33223, Note_on_c, 1, 45, 127
1, 33322, Note_on_c, 1, 69, 127
1, 33418, Note_off_c, 1, 72, 0
1, 33419, Note_off_c, 1, 45, 0
1, 33419, Note_off_c, 1, 69, 0
1, 33421, Note_on_c, 1, 64, 127
1, 33421, Note_on_c, 1, 47, 127
1, 33518, Note_off_c, 1, 64, 0
1, 33520, Note_on_c, 1, 63, 127
1, 33617, Note_off_c, 1, 47, 0
1, 33617, Note_off_c, 1, 63, 0
1, 33619, Note_on_c, 1, 64, 127
1, 33619, Note_on_c, 1, 48, 127
1, 33716, Note_off_c, 1, 64, 0
1, 33718, Note_on_c, 1, 69, 127
1, 33815, Note_off_c, 1, 48, 0
1, 33815, Note_off_c, 1, 69, 0
1, 33816, Note_on_c, 1, 72, 127
1, 33816, Note_on_c, 1, 47, 127
1, 33913, Note_off_c, 1, 72, 0
1, 33915, Note_on_c, 1, 74, 127
1, 34012, Note_off_c, 1, 47, 0
1, 34012, Note_off_c, 1, 74, 0
1, 34014, Note_on_c, 1, 72, 127
1, 34014, Note_on_c, 1, 45, 127
1, 34113, Note_on_c, 1, 69, 127
1, 34209, Note_off_c, 1, 72, 0
1, 34210, Note_off_c, 1, 45, 0
1, 34210, Note_off_c, 1, 69, 0
1, 34212, Note_on_c, 1, 64, 127
1, 34212, Note_on_c, 1, 47, 127
1, 34309, Note_off_c, 1, 64, 0
1, 34311, Note_on_c, 1, 63, 127
1, 34408, Note_off_c, 1, 47, 0
1, 34408, Note_off_c, 1, 63, 0
1, 34410, Note_on_c, 1, 64, 127
1, 34410, Note_on_c, 1, 48, 127
1, 34507, Note_off_c, 1, 64, 0
1, 34509, Note_on_c, 1, 69, 127
1, 34606, Note_off_c, 1, 48, 0
1, 34606, Note_off_c, 1, 69, 0
1, 34608, Note_on_c, 1, 72, 127
1, 34608, Note_on_c, 1, 47, 127
1, 34705, Note_off_c, 1, 72, 0
1, 34706, Note_on_c, 1, 74, 127
1, 34803, Note_off_c, 1, 74, 0
1, 34804, Note_off_c, 1, 47, 0
1, 34805, Note_on_c, 1, 45, 127
1, 34805, Note_on_c, 1, 72, 127
1, 34904, Note_on_c, 1, 69, 127
1, 35001, Note_off_c, 1, 45, 0
1, 35001, Note_off_c, 1, 69, 0
1, 35003, Note_on_c, 1, 66, 127
1, 35003, Note_on_c, 1, 47, 127
1, 35052, Note_off_c, 1, 72, 0
1, 35100, Note_off_c, 1, 66, 0
1, 35102, Note_on_c, 1, 64, 127
1, 35199, Note_off_c, 1, 47, 0
1, 35199, Note_off_c, 1, 64, 0
1, 35201, Note_on_c, 1, 66, 127
1, 35201, Note_on_c, 1, 48, 127
1, 35298, Note_off_c, 1, 66, 0
1, 35300, Note_on_c, 1, 69, 127
1, 35397, Note_off_c, 1, 48, 0
1, 35397, Note_off_c, 1, 69, 0
1, 35399, Note_on_c, 1, 72, 127
1, 35399, Note_on_c, 1, 47, 127
1, 35496, Note_off_c, 1, 72, 0
1, 35497, Note_on_c, 1, 74, 127
1, 35594, Note_off_c, 1, 74, 0
1, 35595, Note_off_c, 1, 47, 0
1, 35596, Note_on_c, 1, 45, 127
1, 35596, Note_on_c, 1, 72, 127
1, 35695, Note_on_c, 1, 69, 127
1, 35792, Note_off_c, 1, 45, 0
1, 35792, Note_off_c, 1, 69, 0
1, 35794, Note_on_c, 1, 66, 127
1, 35794, Note_on_c, 1, 47, 127
1, 35884, Note_off_c, 1, 72, 0
1, 35891, Note_off_c, 1, 66, 0
1, 35893, Note_on_c, 1, 64, 127
1, 35990, Note_off_c, 1, 47, 0
1, 35990, Note_off_c, 1, 64, 0
1, 35992, Note_on_c, 1, 66, 127
1, 35992, Note_on_c, 1, 48, 127
1, 36089, Note_off_c, 1, 66, 0
1, 36091, Note_on_c, 1, 69, 127
1, 36188, Note_off_c, 1, 48, 0
1, 36188, Note_off_c, 1, 69, 0
1, 36190, Note_on_c, 1, 72, 127
1, 36190, Note_on_c, 1, 47, 127
1, 36287, Note_off_c, 1, 72, 0
1, 36288, Note_on_c, 1, 76, 127
1, 36385, Note_off_c, 1, 76, 0
1, 36386, Note_off_c, 1, 47, 0
1, 36387, Note_on_c, 1, 45, 127
1, 36387, Note_on_c, 1, 75, 127
1, 36486, Note_on_c, 1, 72, 127
1, 36583, Note_off_c, 1, 45, 0
1, 36583, Note_off_c, 1, 72, 0
1, 36585, Note_on_c, 1, 69, 127
1, 36585, Note_on_c, 1, 47, 127
1, 36682, Note_off_c, 1, 69, 0
1, 36684, Note_on_c, 1, 68, 127
1, 36778, Note_off_c, 1, 75, 0
1, 36781, Note_off_c, 1, 47, 0
1, 36781, Note_off_c, 1, 68, 0
1, 36783, Note_on_c, 1, 69, 127
1, 36783, Note_on_c, 1, 48, 127
1, 36880, Note_off_c, 1, 69, 0
1, 36882, Note_on_c, 1, 72, 127
1, 36979, Note_off_c, 1, 48, 0
1, 36979, Note_off_c, 1, 72, 0
1, 36981, Note_on_c, 1, 75, 127
1, 36981, Note_on_c, 1, 47, 127
1, 37078, Note_off_c, 1, 75, 0
1, 37080, Note_on_c, 1, 76, 127
1, 37177, Note_off_c, 1, 47, 0
1, 37177, Note_off_c, 1, 76, 0
1, 37178, Note_on_c, 1, 45, 127
1, 37178, Note_on_c, 1, 75, 127
1, 37277, Note_on_c, 1, 72, 127
1, 37374, Note_off_c, 1, 45, 0
1, 37374, Note_off_c, 1, 72, 0
1, 37376, Note_on_c, 1, 69, 127
1, 37376, Note_on_c, 1, 47, 127
1, 37473, Note_off_c, 1, 69, 0
1, 37475, Note_on_c, 1, 68, 127
1, 37569, Note_off_c, 1, 75, 0
1, 37572, Note_off_c, 1, 47, 0
1, 37572, Note_off_c, 1, 68, 0
1, 37574, Note_on_c, 1, 69, 127
1, 37574, Note_on_c, 1, 48, 127
1, 37671, Note_off_c, 1, 69, 0
1, 37673, Note_on_c, 1, 72, 127
1, 37770, Note_off_c, 1, 48, 0
1, 37770, Note_off_c, 1, 72, 0
1, 37772, Note_on_c, 1, 75, 127
1, 37772, Note_on_c, 1, 45, 127
1, 37869, Note_off_c, 1, 75, 0
1, 37871, Note_on_c, 1, 78, 127
1, 37968, Note_off_c, 1, 45, 0
1, 37968, Note_off_c, 1, 78, 0
1, 37969, Note_on_c, 1, 81, 127
1, 37969, Note_on_c, 1, 39, 127
1, 38066, Note_off_c, 1, 81, 0
1, 38068, Note_on_c, 1, 79, 127
1, 38165, Note_off_c, 1, 79, 0
1, 38167, Note_on_c, 1, 78, 127
1, 38264, Note_off_c, 1, 78, 0
1, 38266, Note_on_c, 1, 76, 127
1, 38363, Note_off_c, 1, 76, 0
1, 38365, Note_on_c, 1, 75, 127
1, 38462, Note_off_c, 1, 75, 0
1, 38464, Note_on_c, 1, 73, 127
1, 38561, Note_off_c, 1, 39, 0
1, 38561, Note_off_c, 1, 73, 0
1, 38563, Note_on_c, 1, 71, 127
1, 38660, Note_off_c, 1, 71, 0
1, 38662, Note_on_c, 1, 70, 127
1, 38759, Note_off_c, 1, 70, 0
1, 38760, Note_on_c, 1, 71, 127
1, 38760, Note_on_c, 1, 47, 127
1, 38857, Note_off_c, 1, 71, 0
1, 38859, Note_on_c, 1, 73, 127
1, 38956, Note_off_c, 1, 73, 0
1, 38958, Note_on_c, 1, 75, 127
1, 39055, Note_off_c, 1, 75, 0
1, 39057, Note_on_c, 1, 76, 127
1, 39154, Note_off_c, 1, 47, 0
1, 39154, Note_off_c, 1, 76, 0
1, 39156, Note_on_c, 1, 78, 127
1, 39156, Note_on_c, 1, 45, 127
1, 39253, Note_off_c, 1, 78, 0
1, 39255, Note_on_c, 1, 79, 127
1, 39352, Note_off_c, 1, 79, 0
1, 39354, Note_on_c, 1, 81, 127
1, 39451, Note_off_c, 1, 81, 0
1, 39550, Note_off_c, 1, 45, 0
1, 39552, Note_on_c, 1, 43, 127
1, 39552, Note_on_c, 1, 83, 127
1, 39649, Note_off_c, 1, 43, 0
1, 39650, Note_on_c, 1, 47, 127
1, 39747, Note_off_c, 1, 47, 0
1, 39749, Note_on_c, 1, 49, 127
1, 39846, Note_off_c, 1, 49, 0
1, 39848, Note_on_c, 1, 51, 127
1, 39945, Note_off_c, 1, 51, 0
1, 39947, Note_on_c, 1, 52, 127
1, 40044, Note_off_c, 1, 52, 0
1, 40046, Note_on_c, 1, 54, 127
1, 40143, Note_off_c, 1, 54, 0
1, 40144, Note_off_c, 1, 83, 0
1, 40145, Note_on_c, 1, 55, 127
1, 40145, Note_on_c, 1, 76, 127
1, 40242, Note_off_c, 1, 55, 0
1, 40244, Note_on_c, 1, 57, 127
1, 40341, Note_off_c, 1, 76, 0
1, 40341, Note_off_c, 1, 57, 0
1, 40343, Note_on_c, 1, 79, 127
1, 40343, Note_on_c, 1, 76, 127
1, 40343, Note_on_c, 1, 59, 127
1, 40415, Note_on_c, 1, 78, 127
1, 40425, Note_off_c, 1, 79, 0
1, 40497, Note_off_c, 1, 78, 0
1, 40734, Note_off_c, 1, 76, 0
1, 40737, Note_off_c, 1, 59, 0
1, 40738, Note_on_c, 1, 47, 127
1, 40738, Note_on_c, 1, 78, 127
1, 40738, Note_on_c, 1, 71, 127
1, 40738, Note_on_c, 1, 75, 127
1, 41129, Note_off_c, 1, 47, 0
1, 41132, Note_off_c, 1, 78, 0
1, 41132, Note_off_c, 1, 71, 0
1, 41132, Note_off_c, 1, 75, 0
1, 41134, Note_on_c, 1, 71, 127
1, 41134, Note_on_c, 1, 76, 127
1, 41134, Note_on_c, 1, 67, 127
1, 41232, Note_on_c, 1, 52, 127
1, 41329, Note_off_c, 1, 52, 0
1, 41331, Note_on_c, 1, 54, 127
1, 41428, Note_off_c, 1, 54, 0
1, 41430, Note_on_c, 1, 55, 127
1, 41527, Note_off_c, 1, 55, 0
1, 41529, Note_on_c, 1, 57, 127
1, 41626, Note_off_c, 1, 57, 0
1, 41628, Note_on_c, 1, 59, 127
1, 41725, Note_off_c, 1, 59, 0
1, 41727, Note_on_c, 1, 61, 127
1, 41824, Note_off_c, 1, 61, 0
1, 41826, Note_on_c, 1, 63, 127
1, 41923, Note_off_c, 1, 63, 0
1, 41925, Note_on_c, 1, 64, 127
1, 42319, Note_off_c, 1, 71, 0
1, 42319, Note_off_c, 1, 76, 0
1, 42319, Note_off_c, 1, 67, 0
1, 42320, Note_on_c, 1, 79, 127
1, 42714, Note_off_c, 1, 79, 0
1, 42716, Note_on_c, 1, 72, 127
1, 42716, Note_on_c, 1, 81, 127
1, 43110, Note_off_c, 1, 72, 0
1, 43110, Note_off_c, 1, 81, 0
1, 43902, Note_on_c, 1, 78, 127
1, 43902, Note_on_c, 1, 69, 127
1, 44296, Note_off_c, 1, 78, 0
1, 44296, Note_off_c, 1, 69, 0
1, 44395, Note_off_c, 1, 64, 0
1, 44397, Note_on_c, 1, 40, 127
1, 44494, Note_off_c, 1, 40, 0
1, 44496, Note_on_c, 1, 42, 127
1, 44593, Note_off_c, 1, 42, 0
1, 44594, Note_on_c, 1, 43, 127
1, 44691, Note_off_c, 1, 43, 0
1, 44693, Note_on_c, 1, 45, 127
1, 44790, Note_off_c, 1, 45, 0
1, 44792, Note_on_c, 1, 47, 127
1, 44889, Note_off_c, 1, 47, 0
1, 44891, Note_on_c, 1, 49, 127
1, 44988, Note_off_c, 1, 49, 0
1, 44990, Note_on_c, 1, 51, 127
1, 45087, Note_off_c, 1, 51, 0
1, 47066, Note_on_c, 1, 75, 127
1, 47066, Note_on_c, 1, 66, 127
1, 47460, Note_off_c, 1, 75, 0
1, 47460, Note_off_c, 1, 66, 0
1, 48648, Note_on_c, 1, 70, 127
1, 48648, Note_on_c, 1, 79, 127
1, 49042, Note_off_c, 1, 70, 0
1, 49042, Note_off_c, 1, 79, 0
1, 49044, Note_on_c, 1, 70, 127
1, 49044, Note_on_c, 1, 79, 127
1, 49143, Note_on_c, 1, 45, 127
1, 49240, Note_off_c, 1, 45, 0
1, 49242, Note_on_c, 1, 47, 127
1, 49339, Note_off_c, 1, 47, 0
1, 49341, Note_on_c, 1, 49, 127
1, 49438, Note_off_c, 1, 70, 0
1, 49438, Note_off_c, 1, 79, 0
1, 49438, Note_off_c, 1, 49, 0
1, 49440, Note_on_c, 1, 50, 127
1, 49440, Note_on_c, 1, 69, 127
1, 49440, Note_on_c, 1, 73, 127
1, 49537, Note_off_c, 1, 50, 0
1, 49538, Note_on_c, 1, 52, 127
1, 49635, Note_off_c, 1, 52, 0
1, 49637, Note_on_c, 1, 53, 127
1, 49734, Note_off_c, 1, 53, 0
1, 49736, Note_on_c, 1, 55, 127
1, 49833, Note_off_c, 1, 55, 0
1, 49835, Note_on_c, 1, 57, 127
1, 50161, Note_off_c, 1, 69, 0
1, 50161, Note_off_c, 1, 73, 0
1, 50231, Note_on_c, 1, 76, 127
1, 50231, Note_on_c, 1, 67, 127
1, 50625, Note_off_c, 1, 57, 0
1, 50625, Note_off_c, 1, 76, 0
1, 50625, Note_off_c, 1, 67, 0
1, 50626, Note_on_c, 1, 67, 127
1, 50626, Note_on_c, 1, 76, 127
1, 50725, Note_on_c, 1, 50, 127
1, 50822, Note_off_c, 1, 50, 0
1, 50824, Note_on_c, 1, 52, 127
1, 50921, Note_off_c, 1, 52, 0
1, 50923, Note_on_c, 1, 53, 127
1, 51020, Note_off_c, 1, 67, 0
1, 51020, Note_off_c, 1, 76, 0
1, 51020, Note_off_c, 1, 53, 0
1, 51022, Note_on_c, 1, 55, 127
1, 51022, Note_on_c, 1, 74, 127
1, 51022, Note_on_c, 1, 65, 127
1, 51119, Note_off_c, 1, 55, 0
1, 51120, Note_on_c, 1, 57, 127
1, 51217, Note_off_c, 1, 57, 0
1, 51219, Note_on_c, 1, 59, 127
1, 51316, Note_off_c, 1, 59, 0
1, 51318, Note_on_c, 1, 61, 127
1, 51415, Note_off_c, 1, 61, 0
1, 51417, Note_on_c, 1, 62, 127
1, 51743, Note_off_c, 1, 74, 0
1, 51743, Note_off_c, 1, 65, 0
1, 51813, Note_on_c, 1, 77, 127
1, 51813, Note_on_c, 1, 68, 127
1, 52207, Note_off_c, 1, 62, 0
1, 52207, Note_off_c, 1, 77, 0
1, 52207, Note_off_c, 1, 68, 0
1, 52208, Note_on_c, 1, 68, 127
1, 52208, Note_on_c, 1, 77, 127
1, 52307, Note_on_c, 1, 43, 127
1, 52404, Note_off_c, 1, 43, 0
1, 52406, Note_on_c, 1, 45, 127
1, 52503, Note_off_c, 1, 45, 0
1, 52505, Note_on_c, 1, 47, 127
1, 52602, Note_off_c, 1, 68, 0
1, 52602, Note_off_c, 1, 77, 0
1, 52602, Note_off_c, 1, 47, 0
1, 52604, Note_on_c, 1, 48, 127
1, 52604, Note_on_c, 1, 67, 127
1, 52604, Note_on_c, 1, 71, 127
1, 52701, Note_off_c, 1, 48, 0
1, 52703, Note_on_c, 1, 50, 127
1, 52800, Note_off_c, 1, 50, 0
1, 52801, Note_on_c, 1, 52, 127
1, 52898, Note_off_c, 1, 52, 0
1, 52900, Note_on_c, 1, 53, 127
1, 52997, Note_off_c, 1, 53, 0
1, 52999, Note_on_c, 1, 55, 127
1, 53325, Note_off_c, 1, 67, 0
1, 53395, Note_on_c, 1, 65, 127
1, 53395, Note_on_c, 1, 74, 127
1, 53397, Note_off_c, 1, 71, 0
1, 53789, Note_off_c, 1, 55, 0
1, 53789, Note_off_c, 1, 65, 0
1, 53789, Note_off_c, 1, 74, 0
1, 53790, Note_on_c, 1, 65, 127
1, 53790, Note_on_c, 1, 74, 127
1, 53889, Note_on_c, 1, 48, 127
1, 53986, Note_off_c, 1, 48, 0
1, 53988, Note_on_c, 1, 50, 127
1, 54085, Note_off_c, 1, 50, 0
1, 54087, Note_on_c, 1, 52, 127
1, 54184, Note_off_c, 1, 65, 0
1, 54184, Note_off_c, 1, 74, 0
1, 54184, Note_off_c, 1, 52, 0
1, 54186, Note_on_c, 1, 53, 127
1, 54186, Note_on_c, 1, 64, 127
1, 54186, Note_on_c, 1, 72, 127
1, 54283, Note_off_c, 1, 53, 0
1, 54285, Note_on_c, 1, 55, 127
1, 54382, Note_off_c, 1, 55, 0
1, 54384, Note_on_c, 1, 57, 127
1, 54481, Note_off_c, 1, 57, 0
1, 54482, Note_on_c, 1, 59, 127
1, 54577, Note_off_c, 1, 64, 0
1, 54579, Note_off_c, 1, 59, 0
1, 54581, Note_on_c, 1, 60, 127
1, 54679, Note_off_c, 1, 72, 0
1, 54680, Note_on_c, 1, 71, 127
1, 54777, Note_off_c, 1, 71, 0
1, 54878, Note_on_c, 1, 74, 127
1, 54975, Note_off_c, 1, 60, 0
1, 54975, Note_off_c, 1, 74, 0
1, 54977, Note_on_c, 1, 72, 127
1, 54977, Note_on_c, 1, 52, 127
1, 55074, Note_off_c, 1, 72, 0
1, 55076, Note_on_c, 1, 71, 127
1, 55173, Note_off_c, 1, 71, 0
1, 55175, Note_on_c, 1, 69, 127
1, 55272, Note_off_c, 1, 69, 0
1, 55273, Note_on_c, 1, 68, 127
1, 55370, Note_off_c, 1, 68, 0
1, 55371, Note_off_c, 1, 52, 0
1, 55372, Note_on_c, 1, 69, 127
1, 55372, Note_on_c, 1, 53, 127
1, 55469, Note_off_c, 1, 69, 0
1, 55471, Note_on_c, 1, 72, 127
1, 55568, Note_off_c, 1, 72, 0
1, 55570, Note_on_c, 1, 74, 127
1, 55667, Note_off_c, 1, 74, 0
1, 55669, Note_on_c, 1, 76, 127
1, 55766, Note_off_c, 1, 53, 0
1, 55766, Note_off_c, 1, 76, 0
1, 55768, Note_on_c, 1, 74, 127
1, 55768, Note_on_c, 1, 54, 127
1, 55865, Note_off_c, 1, 74, 0
1, 55867, Note_on_c, 1, 72, 127
1, 55964, Note_off_c, 1, 72, 0
1, 55966, Note_on_c, 1, 71, 127
1, 56063, Note_off_c, 1, 71, 0
1, 56064, Note_on_c, 1, 69, 127
1, 56161, Note_off_c, 1, 69, 0
1, 56162, Note_off_c, 1, 54, 0
1, 56163, Note_on_c, 1, 71, 127
1, 56163, Note_on_c, 1, 55, 127
1, 56260, Note_off_c, 1, 71, 0
1, 56262, Note_on_c, 1, 74, 127
1, 56359, Note_off_c, 1, 74, 0
1, 56361, Note_on_c, 1, 76, 127
1, 56458, Note_off_c, 1, 76, 0
1, 56460, Note_on_c, 1, 77, 127
1, 56557, Note_off_c, 1, 55, 0
1, 56557, Note_off_c, 1, 77, 0
1, 56559, Note_on_c, 1, 76, 127
1, 56559, Note_on_c, 1, 56, 127
1, 56656, Note_off_c, 1, 76, 0
1, 56658, Note_on_c, 1, 74, 127
1, 56755, Note_off_c, 1, 74, 0
1, 56757, Note_on_c, 1, 72, 127
1, 56854, Note_off_c, 1, 72, 0
1, 56856, Note_on_c, 1, 71, 127
1, 56950, Note_off_c, 1, 56, 0
1, 56953, Note_off_c, 1, 71, 0
1, 56954, Note_on_c, 1, 72, 127
1, 57053, Note_on_c, 1, 57, 127
1, 57150, Note_off_c, 1, 57, 0
1, 57152, Note_on_c, 1, 59, 127
1, 57201, Note_off_c, 1, 72, 0
1, 57249, Note_off_c, 1, 59, 0
1, 57251, Note_on_c, 1, 60, 127
1, 57348, Note_off_c, 1, 60, 0
1, 57350, Note_on_c, 1, 62, 127
1, 57350, Note_on_c, 1, 69, 127
1, 57447, Note_off_c, 1, 62, 0
1, 57449, Note_on_c, 1, 64, 127
1, 57546, Note_off_c, 1, 64, 0
1, 57548, Note_on_c, 1, 66, 127
1, 57645, Note_off_c, 1, 66, 0
1, 57647, Note_on_c, 1, 68, 127
1, 57741, Note_off_c, 1, 69, 0
1, 57744, Note_off_c, 1, 68, 0
1, 57745, Note_on_c, 1, 69, 127
1, 57844, Note_on_c, 1, 76, 127
1, 57941, Note_off_c, 1, 76, 0
1, 57943, Note_on_c, 1, 77, 127
1, 58040, Note_off_c, 1, 77, 0
1, 58042, Note_on_c, 1, 79, 127
1, 58139, Note_off_c, 1, 69, 0
1, 58139, Note_off_c, 1, 79, 0
1, 58141, Note_on_c, 1, 77, 127
1, 58141, Note_on_c, 1, 57, 127
1, 58238, Note_off_c, 1, 77, 0
1, 58240, Note_on_c, 1, 76, 127
1, 58337, Note_off_c, 1, 76, 0
1, 58339, Note_on_c, 1, 74, 127
1, 58436, Note_off_c, 1, 74, 0
1, 58438, Note_on_c, 1, 73, 127
1, 58535, Note_off_c, 1, 57, 0
1, 58535, Note_off_c, 1, 73, 0
1, 58536, Note_on_c, 1, 74, 127
1, 58536, Note_on_c, 1, 58, 127
1, 58633, Note_off_c, 1, 74, 0
1, 58635, Note_on_c, 1, 77, 127
1, 58732, Note_off_c, 1, 77, 0
1, 58734, Note_on_c, 1, 79, 127
1, 58831, Note_off_c, 1, 79, 0
1, 58833, Note_on_c, 1, 81, 127
1, 58930, Note_off_c, 1, 58, 0
1, 58930, Note_off_c, 1, 81, 0
1, 58932, Note_on_c, 1, 79, 127
1, 58932, Note_on_c, 1, 59, 127
1, 59029, Note_off_c, 1, 79, 0
1, 59031, Note_on_c, 1, 77, 127
1, 59128, Note_off_c, 1, 77, 0
1, 59130, Note_on_c, 1, 76, 127
1, 59227, Note_off_c, 1, 76, 0
1, 59229, Note_on_c, 1, 74, 127
1, 59326, Note_off_c, 1, 59, 0
1, 59326, Note_off_c, 1, 74, 0
1, 59328, Note_on_c, 1, 76, 127
1, 59328, Note_on_c, 1, 60, 127
1, 59425, Note_off_c, 1, 76, 0
1, 59426, Note_on_c, 1, 79, 127
1, 59523, Note_off_c, 1, 79, 0
1, 59525, Note_on_c, 1, 81, 127
1, 59622, Note_off_c, 1, 81, 0
1, 59624, Note_on_c, 1, 82, 127
1, 59721, Note_off_c, 1, 82, 0
1, 59722, Note_off_c, 1, 60, 0
1, 59723, Note_on_c, 1, 81, 127
1, 59723, Note_on_c, 1, 61, 127
1, 59820, Note_off_c, 1, 81, 0
1, 59822, Note_on_c, 1, 79, 127
1, 59919, Note_off_c, 1, 79, 0
1, 59921, Note_on_c, 1, 77, 127
1, 60018, Note_off_c, 1, 77, 0
1, 60020, Note_on_c, 1, 76, 127
1, 60114, Note_off_c, 1, 61, 0
1, 60117, Note_off_c, 1, 76, 0
1, 60119, Note_on_c, 1, 77, 127
1, 60217, Note_on_c, 1, 62, 127
1, 60314, Note_off_c, 1, 62, 0
1, 60316, Note_on_c, 1, 64, 127
1, 60366, Note_off_c, 1, 77, 0
1, 60413, Note_off_c, 1, 64, 0
1, 60415, Note_on_c, 1, 65, 127
1, 60512, Note_off_c, 1, 65, 0
1, 60514, Note_on_c, 1, 67, 127
1, 60514, Note_on_c, 1, 74, 127
1, 60611, Note_off_c, 1, 67, 0
1, 60613, Note_on_c, 1, 69, 127
1, 60710, Note_off_c, 1, 69, 0
1, 60712, Note_on_c, 1, 71, 127
1, 60809, Note_off_c, 1, 71, 0
1, 60811, Note_on_c, 1, 73, 127
1, 60905, Note_off_c, 1, 74, 0
1, 60908, Note_off_c, 1, 73, 0
1, 60910, Note_on_c, 1, 74, 127
1, 61008, Note_on_c, 1, 76, 127
1, 61105, Note_off_c, 1, 76, 0
1, 61107, Note_on_c, 1, 77, 127
1, 61204, Note_off_c, 1, 77, 0
1, 61206, Note_on_c, 1, 79, 127
1, 61303, Note_off_c, 1, 79, 0
1, 61304, Note_off_c, 1, 74, 0
1, 61305, Note_on_c, 1, 77, 127
1, 61305, Note_on_c, 1, 62, 127
1, 61402, Note_off_c, 1, 77, 0
1, 61404, Note_on_c, 1, 76, 127
1, 61501, Note_off_c, 1, 76, 0
1, 61503, Note_on_c, 1, 74, 127
1, 61600, Note_off_c, 1, 74, 0
1, 61602, Note_on_c, 1, 72, 127
1, 61699, Note_off_c, 1, 72, 0
1, 61701, Note_on_c, 1, 70, 127
1, 61798, Note_off_c, 1, 62, 0
1, 61898, Note_on_c, 1, 61, 127
1, 61948, Note_off_c, 1, 70, 0
1, 61995, Note_off_c, 1, 61, 0
1, 61997, Note_on_c, 1, 62, 127
1, 62094, Note_off_c, 1, 62, 0
1, 62096, Note_on_c, 1, 64, 127
1, 62096, Note_on_c, 1, 77, 127
1, 62193, Note_off_c, 1, 64, 0
1, 62195, Note_on_c, 1, 62, 127
1, 62292, Note_off_c, 1, 62, 0
1, 62294, Note_on_c, 1, 61, 127
1, 62391, Note_off_c, 1, 61, 0
1, 62492, Note_on_c, 1, 50, 127
1, 62589, Note_off_c, 1, 77, 0
1, 62591, Note_on_c, 1, 74, 127
1, 62688, Note_off_c, 1, 74, 0
1, 62689, Note_on_c, 1, 76, 127
1, 62786, Note_off_c, 1, 76, 0
1, 62886, Note_off_c, 1, 50, 0
1, 62887, Note_on_c, 1, 76, 127
1, 62887, Note_on_c, 1, 56, 127
1, 62984, Note_off_c, 1, 76, 0
1, 62986, Note_on_c, 1, 74, 127
1, 63083, Note_off_c, 1, 74, 0
1, 63085, Note_on_c, 1, 72, 127
1, 63182, Note_off_c, 1, 72, 0
1, 63184, Note_on_c, 1, 71, 127
1, 63278, Note_off_c, 1, 56, 0
1, 63281, Note_off_c, 1, 71, 0
1, 63283, Note_on_c, 1, 69, 127
1, 63382, Note_on_c, 1, 60, 127
1, 63479, Note_off_c, 1, 60, 0
1, 63480, Note_on_c, 1, 59, 127
1, 63530, Note_off_c, 1, 69, 0
1, 63577, Note_off_c, 1, 59, 0
1, 63579, Note_on_c, 1, 60, 127
1, 63676, Note_off_c, 1, 60, 0
1, 63678, Note_on_c, 1, 62, 127
1, 63678, Note_on_c, 1, 76, 127
1, 63775, Note_off_c, 1, 62, 0
1, 63777, Note_on_c, 1, 60, 127
1, 63874, Note_off_c, 1, 60, 0
1, 63876, Note_on_c, 1, 59, 127
1, 63973, Note_off_c, 1, 59, 0
1, 64074, Note_on_c, 1, 48, 127
1, 64171, Note_off_c, 1, 76, 0
1, 64173, Note_on_c, 1, 72, 127
1, 64270, Note_off_c, 1, 72, 0
1, 64272, Note_on_c, 1, 74, 127
1, 64369, Note_off_c, 1, 74, 0
1, 64468, Note_off_c, 1, 48, 0
1, 64469, Note_on_c, 1, 74, 127
1, 64469, Note_on_c, 1, 57, 127
1, 64566, Note_off_c, 1, 74, 0
1, 64568, Note_on_c, 1, 72, 127
1, 64665, Note_off_c, 1, 72, 0
1, 64667, Note_on_c, 1, 71, 127
1, 64764, Note_off_c, 1, 71, 0
1, 64766, Note_on_c, 1, 69, 127
1, 64860, Note_off_c, 1, 57, 0
1, 64863, Note_off_c, 1, 69, 0
1, 64865, Note_on_c, 1, 68, 127
1, 64964, Note_on_c, 1, 59, 127
1, 65061, Note_off_c, 1, 59, 0
1, 65063, Note_on_c, 1, 57, 127
1, 65112, Note_off_c, 1, 68, 0
1, 65160, Note_off_c, 1, 57, 0
1, 65161, Note_on_c, 1, 59, 127
1, 65258, Note_off_c, 1, 59, 0
1, 65260, Note_on_c, 1, 60, 127
1, 65260, Note_on_c, 1, 74, 127
1, 65357, Note_off_c, 1, 60, 0
1, 65359, Note_on_c, 1, 59, 127
1, 65456, Note_off_c, 1, 59, 0
1, 65458, Note_on_c, 1, 57, 127
1, 65555, Note_off_c, 1, 57, 0
1, 65656, Note_on_c, 1, 47, 127
1, 65753, Note_off_c, 1, 74, 0
1, 65755, Note_on_c, 1, 69, 127
1, 65852, Note_off_c, 1, 69, 0
1, 65854, Note_on_c, 1, 71, 127
1, 65951, Note_off_c, 1, 71, 0
1, 65952, Note_on_c, 1, 72, 127
1, 66049, Note_off_c, 1, 72, 0
1, 66050, Note_off_c, 1, 47, 0
1, 66051, Note_on_c, 1, 71, 127
1, 66051, Note_on_c, 1, 57, 127
1, 66148, Note_off_c, 1, 71, 0
1, 66150, Note_on_c, 1, 69, 127
1, 66247, Note_off_c, 1, 69, 0
1, 66249, Note_on_c, 1, 68, 127
1, 66346, Note_off_c, 1, 68, 0
1, 66348, Note_on_c, 1, 66, 127
1, 66442, Note_off_c, 1, 57, 0
1, 66445, Note_off_c, 1, 66, 0
1, 66447, Note_on_c, 1, 64, 127
1, 66546, Note_on_c, 1, 56, 127
1, 66643, Note_off_c, 1, 56, 0
1, 66645, Note_on_c, 1, 57, 127
1, 66694, Note_off_c, 1, 64, 0
1, 66742, Note_off_c, 1, 57, 0
1, 66744, Note_on_c, 1, 59, 127
1, 66841, Note_off_c, 1, 59, 0
1, 66842, Note_on_c, 1, 57, 127
1, 66842, Note_on_c, 1, 74, 127
1, 66939, Note_off_c, 1, 57, 0
1, 66941, Note_on_c, 1, 56, 127
1, 67038, Note_off_c, 1, 56, 0
1, 67040, Note_on_c, 1, 54, 127
1, 67137, Note_off_c, 1, 54, 0
1, 67139, Note_on_c, 1, 52, 127
1, 67236, Note_off_c, 1, 52, 0
1, 67238, Note_on_c, 1, 64, 127
1, 67335, Note_off_c, 1, 74, 0
1, 67337, Note_on_c, 1, 72, 127
1, 67434, Note_off_c, 1, 72, 0
1, 67436, Note_on_c, 1, 71, 127
1, 67533, Note_off_c, 1, 71, 0
1, 67632, Note_off_c, 1, 64, 0
1, 67633, Note_on_c, 1, 74, 127
1, 67633, Note_on_c, 1, 62, 127
1, 67730, Note_off_c, 1, 74, 0
1, 67732, Note_on_c, 1, 76, 127
1, 67829, Note_off_c, 1, 76, 0
1, 67831, Note_on_c, 1, 78, 127
1, 67928, Note_off_c, 1, 78, 0
1, 67930, Note_on_c, 1, 80, 127
1, 68027, Note_off_c, 1, 62, 0
1, 68027, Note_off_c, 1, 80, 0
1, 68029, Note_on_c, 1, 81, 127
1, 68029, Note_on_c, 1, 60, 127
1, 68225, Note_off_c, 1, 81, 0
1, 68227, Note_on_c, 1, 79, 127
1, 68324, Note_off_c, 1, 79, 0
1, 68326, Note_on_c, 1, 77, 127
1, 68423, Note_off_c, 1, 60, 0
1, 68423, Note_off_c, 1, 77, 0
1, 68424, Note_on_c, 1, 76, 127
1, 68424, Note_on_c, 1, 48, 127
1, 68620, Note_off_c, 1, 76, 0
1, 68620, Note_off_c, 1, 48, 0
1, 68622, Note_on_c, 1, 74, 127
1, 68622, Note_on_c, 1, 50, 127
1, 68818, Note_off_c, 1, 74, 0
1, 68818, Note_off_c, 1, 50, 0
1, 68820, Note_on_c, 1, 72, 127
1, 68820, Note_on_c, 1, 69, 127
1, 68820, Note_on_c, 1, 52, 127
1, 69214, Note_off_c, 1, 72, 0
1, 69214, Note_off_c, 1, 69, 0
1, 69216, Note_on_c, 1, 40, 127
1, 69216, Note_on_c, 1, 68, 127
1, 69281, Note_on_c, 1, 71, 127
1, 69345, Note_off_c, 1, 71, 0
1, 69607, Note_off_c, 1, 40, 0
1, 69610, Note_off_c, 1, 52, 0
1, 69610, Note_off_c, 1, 68, 0
1, 69611, Note_on_c, 1, 69, 127
1, 69710, Note_on_c, 1, 41, 127
1, 69807, Note_off_c, 1, 41, 0
1, 69809, Note_on_c, 1, 43, 127
1, 69906, Note_off_c, 1, 43, 0
1, 69908, Note_on_c, 1, 45, 127
1, 69961, Note_off_c, 1, 69, 0
1, 70005, Note_off_c, 1, 45, 0
1, 70007, Note_on_c, 1, 64, 127
1, 70007, Note_on_c, 1, 47, 127
1, 70079, Note_on_c, 1, 62, 127
1, 70084, Note_off_c, 1, 64, 0
1, 70104, Note_off_c, 1, 47, 0
1, 70105, Note_on_c, 1, 49, 127
1, 70156, Note_off_c, 1, 62, 0
1, 70202, Note_off_c, 1, 49, 0
1, 70204, Note_on_c, 1, 50, 127
1, 70301, Note_off_c, 1, 50, 0
1, 70303, Note_on_c, 1, 52, 127
1, 70400, Note_off_c, 1, 52, 0
1, 70402, Note_on_c, 1, 53, 127
1, 70699, Note_on_c, 1, 60, 127
1, 70796, Note_off_c, 1, 53, 0
1, 70796, Note_off_c, 1, 60, 0
1, 70798, Note_on_c, 1, 62, 127
1, 70798, Note_on_c, 1, 41, 127
1, 70895, Note_off_c, 1, 62, 0
1, 70896, Note_on_c, 1, 64, 127
1, 70993, Note_off_c, 1, 64, 0
1, 70995, Note_on_c, 1, 66, 127
1, 71092, Note_off_c, 1, 66, 0
1, 71094, Note_on_c, 1, 68, 127
1, 71191, Note_off_c, 1, 68, 0
1, 71193, Note_on_c, 1, 69, 127
1, 71291, Note_off_c, 1, 41, 0
1, 71292, Note_on_c, 1, 40, 127
1, 71389, Note_off_c, 1, 40, 0
1, 71391, Note_on_c, 1, 42, 127
1, 71488, Note_off_c, 1, 42, 0
1, 71490, Note_on_c, 1, 44, 127
1, 71543, Note_off_c, 1, 69, 0
1, 71587, Note_off_c, 1, 44, 0
1, 71589, Note_on_c, 1, 62, 127
1, 71589, Note_on_c, 1, 45, 127
1, 71655, Note_on_c, 1, 60, 127
1, 71661, Note_off_c, 1, 62, 0
1, 71686, Note_off_c, 1, 45, 0
1, 71688, Note_on_c, 1, 47, 127
1, 71727, Note_off_c, 1, 60, 0
1, 71785, Note_off_c, 1, 47, 0
1, 71786, Note_on_c, 1, 48, 127
1, 71883, Note_off_c, 1, 48, 0
1, 71885, Note_on_c, 1, 50, 127
1, 71982, Note_off_c, 1, 50, 0
1, 71984, Note_on_c, 1, 52, 127
1, 72281, Note_on_c, 1, 59, 127
1, 72378, Note_off_c, 1, 52, 0
1, 72378, Note_off_c, 1, 59, 0
1, 72380, Note_on_c, 1, 60, 127
1, 72380, Note_on_c, 1, 40, 127
1, 72477, Note_off_c, 1, 60, 0
1, 72479, Note_on_c, 1, 64, 127
1, 72576, Note_off_c, 1, 64, 0
1, 72577, Note_on_c, 1, 66, 127
1, 72674, Note_off_c, 1, 66, 0
1, 72676, Note_on_c, 1, 68, 127
1, 72773, Note_off_c, 1, 68, 0
1, 72774, Note_off_c, 1, 40, 0
1, 72775, Note_on_c, 1, 69, 127
1, 72775, Note_on_c, 1, 39, 127
1, 72872, Note_off_c, 1, 69, 0
1, 72874, Note_on_c, 1, 68, 127
1, 72971, Note_off_c, 1, 39, 0
1, 72971, Note_off_c, 1, 68, 0
1, 72973, Note_on_c, 1, 69, 127
1, 72973, Note_on_c, 1, 42, 127
1, 73070, Note_off_c, 1, 69, 0
1, 73072, Note_on_c, 1, 72, 127
1, 73169, Note_off_c, 1, 42, 0
1, 73169, Note_off_c, 1, 72, 0
1, 73171, Note_on_c, 1, 66, 127
1, 73171, Note_on_c, 1, 45, 127
1, 73268, Note_off_c, 1, 66, 0
1, 73270, Note_on_c, 1, 64, 127
1, 73367, Note_off_c, 1, 45, 0
1, 73367, Note_off_c, 1, 64, 0
1, 73368, Note_on_c, 1, 66, 127
1, 73368, Note_on_c, 1, 48, 127
1, 73465, Note_off_c, 1, 66, 0
1, 73467, Note_on_c, 1, 69, 127
1, 73564, Note_off_c, 1, 48, 0
1, 73564, Note_off_c, 1, 69, 0
1, 73566, Note_on_c, 1, 63, 127
1, 73566, Note_on_c, 1, 45, 127
1, 73663, Note_off_c, 1, 63, 0
1, 73665, Note_on_c, 1, 61, 127
1, 73762, Note_off_c, 1, 45, 0
1, 73762, Note_off_c, 1, 61, 0
1, 73764, Note_on_c, 1, 63, 127
1, 73764, Note_on_c, 1, 42, 127
1, 73861, Note_off_c, 1, 63, 0
1, 73863, Note_on_c, 1, 66, 127
1, 73960, Note_off_c, 1, 42, 0
1, 73960, Note_off_c, 1, 66, 0
1, 73962, Note_on_c, 1, 60, 127
1, 73962, Note_on_c, 1, 40, 127
1, 74059, Note_off_c, 1, 60, 0
1, 74061, Note_on_c, 1, 59, 127
1, 74158, Note_off_c, 1, 40, 0
1, 74158, Note_off_c, 1, 59, 0
1, 74160, Note_on_c, 1, 60, 127
1, 74160, Note_on_c, 1, 39, 127
1, 74257, Note_off_c, 1, 60, 0
1, 74258, Note_on_c, 1, 69, 127
1, 74355, Note_off_c, 1, 69, 0
1, 74356, Note_off_c, 1, 39, 0
1, 74357, Note_on_c, 1, 68, 127
1, 74357, Note_on_c, 1, 38, 127
1, 74454, Note_off_c, 1, 68, 0
1, 74456, Note_on_c, 1, 66, 127
1, 74553, Note_off_c, 1, 38, 0
1, 74553, Note_off_c, 1, 66, 0
1, 74555, Note_on_c, 1, 68, 127
1, 74555, Note_on_c, 1, 41, 127
1, 74652, Note_off_c, 1, 68, 0
1, 74654, Note_on_c, 1, 71, 127
1, 74751, Note_off_c, 1, 41, 0
1, 74751, Note_off_c, 1, 71, 0
1, 74753, Note_on_c, 1, 65, 127
1, 74753, Note_on_c, 1, 44, 127
1, 74850, Note_off_c, 1, 65, 0
1, 74852, Note_on_c, 1, 64, 127
1, 74949, Note_off_c, 1, 44, 0
1, 74949, Note_off_c, 1, 64, 0
1, 74951, Note_on_c, 1, 65, 127
1, 74951, Note_on_c, 1, 47, 127
1, 75048, Note_off_c, 1, 65, 0
1, 75049, Note_on_c, 1, 68, 127
1, 75146, Note_off_c, 1, 68, 0
1, 75147, Note_off_c, 1, 47, 0
1, 75148, Note_on_c, 1, 62, 127
1, 75148, Note_on_c, 1, 44, 127
1, 75245, Note_off_c, 1, 62, 0
1, 75247, Note_on_c, 1, 60, 127
1, 75344, Note_off_c, 1, 44, 0
1, 75344, Note_off_c, 1, 60, 0
1, 75346, Note_on_c, 1, 62, 127
1, 75346, Note_on_c, 1, 41, 127
1, 75443, Note_off_c, 1, 62, 0
1, 75445, Note_on_c, 1, 65, 127
1, 75542, Note_off_c, 1, 41, 0
1, 75542, Note_off_c, 1, 65, 0
1, 75544, Note_on_c, 1, 59, 127
1, 75544, Note_on_c, 1, 40, 127
1, 75641, Note_off_c, 1, 59, 0
1, 75643, Note_on_c, 1, 57, 127
1, 75740, Note_off_c, 1, 40, 0
1, 75740, Note_off_c, 1, 57, 0
1, 75742, Note_on_c, 1, 59, 127
1, 75742, Note_on_c, 1, 38, 127
1, 75839, Note_off_c, 1, 59, 0
1, 75840, Note_on_c, 1, 68, 127
1, 75937, Note_off_c, 1, 68, 0
1, 75938, Note_off_c, 1, 38, 0
1, 75939, Note_on_c, 1, 69, 127
1, 75939, Note_on_c, 1, 36, 127
1, 76036, Note_off_c, 1, 69, 0
1, 76036, Note_off_c, 1, 36, 0
1, 76038, Note_on_c, 1, 68, 127
1, 76038, Note_on_c, 1, 40, 127
1, 76135, Note_off_c, 1, 68, 0
1, 76135, Note_off_c, 1, 40, 0
1, 76137, Note_on_c, 1, 66, 127
1, 76137, Note_on_c, 1, 42, 127
1, 76234, Note_off_c, 1, 66, 0
1, 76234, Note_off_c, 1, 42, 0
1, 76236, Note_on_c, 1, 64, 127
1, 76236, Note_on_c, 1, 44, 127
1, 76333, Note_off_c, 1, 64, 0
1, 76333, Note_off_c, 1, 44, 0
1, 76335, Note_on_c, 1, 62, 127
1, 76335, Note_on_c, 1, 45, 127
1, 76432, Note_off_c, 1, 62, 0
1, 76432, Note_off_c, 1, 45, 0
1, 76434, Note_on_c, 1, 60, 127
1, 76434, Note_on_c, 1, 47, 127
1, 76531, Note_off_c, 1, 60, 0
1, 76531, Note_off_c, 1, 47, 0
1, 76533, Note_on_c, 1, 59, 127
1, 76533, Note_on_c, 1, 48, 127
1, 76624, Note_off_c, 1, 59, 0
1, 76624, Note_off_c, 1, 48, 0
1, 76632, Note_on_c, 1, 57, 127
1, 76632, Note_on_c, 1, 50, 127
1, 76716, Note_off_c, 1, 57, 0
1, 76716, Note_off_c, 1, 50, 0
1, 76730, Note_on_c, 1, 52, 127
1, 76928, Note_on_c, 1, 59, 127
1, 77124, Note_off_c, 1, 52, 0
1, 77126, Note_on_c, 1, 62, 127
1, 77126, Note_on_c, 1, 40, 127
1, 77324, Note_on_c, 1, 68, 127
1, 77517, Note_off_c, 1, 62, 0
1, 77517, Note_off_c, 1, 40, 0
1, 77520, Note_off_c, 1, 59, 0
1, 77520, Note_off_c, 1, 68, 0
1, 77521, Note_on_c, 1, 60, 127
1, 77521, Note_on_c, 1, 64, 127
1, 77521, Note_on_c, 1, 69, 127
1, 77620, Note_on_c, 1, 45, 127
1, 77717, Note_off_c, 1, 45, 0
1, 77719, Note_on_c, 1, 47, 127
1, 77816, Note_off_c, 1, 47, 0
1, 77818, Note_on_c, 1, 48, 127
1, 77915, Note_off_c, 1, 48, 0
1, 77917, Note_on_c, 1, 50, 127
1, 78014, Note_off_c, 1, 50, 0
1, 78016, Note_on_c, 1, 52, 127
1, 78113, Note_off_c, 1, 52, 0
1, 78115, Note_on_c, 1, 54, 127
1, 78212, Note_off_c, 1, 54, 0
1, 78214, Note_on_c, 1, 56, 127
1, 78311, Note_off_c, 1, 56, 0
1, 78312, Note_on_c, 1, 57, 127
1, 78706, Note_off_c, 1, 60, 0
1, 78706, Note_off_c, 1, 64, 0
1, 78706, Note_off_c, 1, 69, 0
1, 78708, Note_on_c, 1, 72, 127
1, 79102, Note_off_c, 1, 72, 0
1, 79104, Note_on_c, 1, 74, 127
1, 79104, Note_on_c, 1, 65, 127
1, 79498, Note_off_c, 1, 74, 0
1, 79498, Note_off_c, 1, 65, 0
1, 80290, Note_on_c, 1, 71, 127
1, 80290, Note_on_c, 1, 62, 127
1, 80684, Note_off_c, 1, 71, 0
1, 80684, Note_off_c, 1, 62, 0
1, 80782, Note_off_c, 1, 57, 0
1, 81872, Note_on_c, 1, 76, 127
1, 82266, Note_off_c, 1, 76, 0
1, 82268, Note_on_c, 1, 77, 127
1, 82662, Note_off_c, 1, 77, 0
1, 84048, Note_on_c, 1, 59, 127
1, 84145, Note_off_c, 1, 59, 0
1, 84443, Note_on_c, 1, 66, 127
1, 84540, Note_off_c, 1, 66, 0
1, 84542, Note_on_c, 1, 68, 127
1, 84639, Note_off_c, 1, 68, 0
1, 85036, Note_on_c, 1, 81, 127
1, 85430, Note_off_c, 1, 81, 0
1, 85432, Note_on_c, 1, 83, 127
1, 85826, Note_off_c, 1, 83, 0
1, 86618, Note_on_c, 1, 80, 127
1, 87012, Note_off_c, 1, 80, 0
1, 87409, Note_on_c, 1, 75, 127
1, 87803, Note_off_c, 1, 75, 0
1, 88200, Note_on_c, 1, 65, 127
1, 88200, Note_on_c, 1, 69, 127
1, 88200, Note_on_c, 1, 50, 127
1, 88594, Note_off_c, 1, 65, 0
1, 88594, Note_off_c, 1, 69, 0
1, 88594, Note_off_c, 1, 50, 0
1, 88596, Note_on_c, 1, 64, 127
1, 88596, Note_on_c, 1, 69, 127
1, 88596, Note_on_c, 1, 72, 127
1, 88596, Note_on_c, 1, 52, 127
1, 89296, Note_off_c, 1, 64, 0
1, 89296, Note_off_c, 1, 69, 0
1, 89296, Note_off_c, 1, 72, 0
1, 89296, Note_off_c, 1, 52, 0
1, 89387, Note_on_c, 1, 62, 127
1, 89387, Note_on_c, 1, 68, 127
1, 89387, Note_on_c, 1, 71, 127
1, 89387, Note_on_c, 1, 40, 127
1, 90087, Note_off_c, 1, 62, 0
1, 90087, Note_off_c, 1, 68, 0
1, 90087, Note_off_c, 1, 71, 0
1, 90087, Note_off_c, 1, 40, 0
1, 90194, Note_on_c, 1, 45, 127
1, 90194, Note_on_c, 1, 69, 127
1, 90194, Note_on_c, 1, 64, 127
1, 90194, Note_on_c, 1, 60, 127
1, 92594, Note_off_c, 1, 45, 0
1, 92594, Note_off_c, 1, 69, 0
1, 92594, Note_off_c, 1, 64, 0
1, 92594, Note_off_c, 1, 60, 0
1, 93520, Note_on_c, 1, 69, 127
1, 93770, Note_off_c, 1, 69, 0
1, 93774, Note_on_c, 1, 69, 127
1, 93864, Note_off_c, 1, 69, 0
1, 93867, Note_on_c, 1, 68, 127
1, 93957, Note_off_c, 1, 68, 0
1, 93960, Note_on_c, 1, 45, 127
1, 93960, Note_on_c, 1, 69, 127
1, 94143, Note_off_c, 1, 45, 0
1, 94145, Note_on_c, 1, 48, 127
1, 94328, Note_off_c, 1, 48, 0
1, 94330, Note_on_c, 1, 52, 127
1, 94513, Note_off_c, 1, 52, 0
1, 94516, Note_on_c, 1, 57, 127
1, 94699, Note_off_c, 1, 69, 0
1, 94884, Note_off_c, 1, 57, 0
1, 94887, Note_on_c, 1, 71, 127
1, 94887, Note_on_c, 1, 55, 127
1, 95070, Note_off_c, 1, 71, 0
1, 95072, Note_on_c, 1, 72, 127
1, 95255, Note_off_c, 1, 55, 0
1, 95255, Note_off_c, 1, 72, 0
1, 95257, Note_on_c, 1, 74, 127
1, 95257, Note_on_c, 1, 53, 127
1, 95440, Note_off_c, 1, 74, 0
1, 95443, Note_on_c, 1, 76, 127
1, 95625, Note_off_c, 1, 53, 0
1, 95626, Note_off_c, 1, 76, 0
1, 95628, Note_on_c, 1, 77, 127
1, 95628, Note_on_c, 1, 50, 127
1, 95811, Note_off_c, 1, 77, 0
1, 95814, Note_on_c, 1, 69, 127
1, 95996, Note_off_c, 1, 50, 0
1, 95997, Note_off_c, 1, 69, 0
1, 95999, Note_on_c, 1, 68, 127
1, 95999, Note_on_c, 1, 52, 127
1, 96182, Note_off_c, 1, 68, 0
1, 96184, Note_on_c, 1, 77, 127
1, 96367, Note_off_c, 1, 52, 0
1, 96367, Note_off_c, 1, 77, 0
1, 96370, Note_on_c, 1, 76, 127
1, 96370, Note_on_c, 1, 40, 127
1, 96553, Note_off_c, 1, 76, 0
1, 96555, Note_on_c, 1, 74, 127
1, 96738, Note_off_c, 1, 40, 0
1, 96738, Note_off_c, 1, 74, 0
1, 96741, Note_on_c, 1, 74, 127
1, 96741, Note_on_c, 1, 45, 127
1, 96924, Note_off_c, 1, 74, 0
1, 96926, Note_on_c, 1, 72, 127
1, 97109, Note_off_c, 1, 72, 0
1, 97111, Note_on_c, 1, 71, 127
1, 97294, Note_off_c, 1, 71, 0
1, 97297, Note_on_c, 1, 69, 127
1, 97474, Note_off_c, 1, 45, 0
1, 97480, Note_off_c, 1, 69, 0
1, 97482, Note_on_c, 1, 81, 127
1, 97572, Note_off_c, 1, 81, 0
1, 97575, Note_on_c, 1, 80, 127
1, 97665, Note_off_c, 1, 80, 0
1, 97668, Note_on_c, 1, 57, 127
1, 97668, Note_on_c, 1, 81, 127
1, 97851, Note_off_c, 1, 57, 0
1, 97853, Note_on_c, 1, 59, 127
1, 98036, Note_off_c, 1, 81, 0
1, 98036, Note_off_c, 1, 59, 0
1, 98038, Note_on_c, 1, 79, 127
1, 98038, Note_on_c, 1, 60, 127
1, 98221, Note_off_c, 1, 79, 0
1, 98221, Note_off_c, 1, 60, 0
1, 98224, Note_on_c, 1, 77, 127
1, 98224, Note_on_c, 1, 62, 127
1, 98407, Note_off_c, 1, 77, 0
1, 98407, Note_off_c, 1, 62, 0
1, 98409, Note_on_c, 1, 76, 127
1, 98409, Note_on_c, 1, 64, 127
1, 98592, Note_off_c, 1, 76, 0
1, 98592, Note_off_c, 1, 64, 0
1, 98595, Note_on_c, 1, 74, 127
1, 98595, Note_on_c, 1, 65, 127
1, 98778, Note_off_c, 1, 74, 0
1, 98778, Note_off_c, 1, 65, 0
1, 98780, Note_on_c, 1, 72, 127
1, 98780, Note_on_c, 1, 57, 127
1, 98963, Note_off_c, 1, 72, 0
1, 98963, Note_off_c, 1, 57, 0
1, 98965, Note_on_c, 1, 71, 127
1, 98965, Note_on_c, 1, 56, 127
1, 99148, Note_off_c, 1, 71, 0
1, 99148, Note_off_c, 1, 56, 0
1, 99151, Note_on_c, 1, 81, 127
1, 99151, Note_on_c, 1, 65, 127
1, 99334, Note_off_c, 1, 81, 0
1, 99334, Note_off_c, 1, 65, 0
1, 99336, Note_on_c, 1, 80, 127
1, 99336, Note_on_c, 1, 64, 127
1, 99519, Note_off_c, 1, 80, 0
1, 99519, Note_off_c, 1, 64, 0
1, 99522, Note_on_c, 1, 81, 127
1, 99522, Note_on_c, 1, 62, 127
1, 99612, Note_off_c, 1, 81, 0
1, 99614, Note_on_c, 1, 83, 127
1, 99704, Note_off_c, 1, 83, 0
1, 99705, Note_off_c, 1, 62, 0
1, 99707, Note_on_c, 1, 60, 127
1, 99707, Note_on_c, 1, 76, 127
1, 99890, Note_off_c, 1, 60, 0
1, 99892, Note_on_c, 1, 64, 127
1, 100075, Note_off_c, 1, 64, 0
1, 100078, Note_on_c, 1, 66, 127
1, 100261, Note_off_c, 1, 66, 0
1, 100263, Note_on_c, 1, 68, 127
1, 100446, Note_off_c, 1, 68, 0
1, 100449, Note_on_c, 1, 69, 127
1, 100631, Note_off_c, 1, 76, 0
1, 100634, Note_on_c, 1, 79, 127
1, 100817, Note_off_c, 1, 79, 0
1, 100819, Note_on_c, 1, 77, 127
1, 100819, Note_on_c, 1, 57, 127
1, 101002, Note_off_c, 1, 77, 0
1, 101187, Note_off_c, 1, 57, 0
1, 101190, Note_on_c, 1, 74, 127
1, 101190, Note_on_c, 1, 59, 127
1, 101373, Note_off_c, 1, 74, 0
1, 101376, Note_on_c, 1, 72, 127
1, 101559, Note_off_c, 1, 69, 0
1, 101559, Note_off_c, 1, 72, 0
1, 101561, Note_on_c, 1, 71, 127
1, 101744, Note_off_c, 1, 71, 0
1, 101923, Note_off_c, 1, 59, 0
1, 102673, Note_on_c, 1, 72, 127
1, 102673, Note_on_c, 1, 69, 127
1, 102856, Note_off_c, 1, 72, 0
1, 102859, Note_on_c, 1, 71, 127
1, 103039, Note_off_c, 1, 69, 0
1, 103042, Note_off_c, 1, 71, 0
1, 103044, Note_on_c, 1, 69, 127
1, 103044, Note_on_c, 1, 64, 127
1, 103227, Note_off_c, 1, 69, 0
1, 103230, Note_on_c, 1, 71, 127
1, 103412, Note_off_c, 1, 64, 0
1, 103413, Note_off_c, 1, 71, 0
1, 103415, Note_on_c, 1, 72, 127
1, 103415, Note_on_c, 1, 57, 127
1, 103598, Note_off_c, 1, 72, 0
1, 103598, Note_off_c, 1, 57, 0
1, 103600, Note_on_c, 1, 74, 127
1, 103600, Note_on_c, 1, 69, 127
1, 103783, Note_off_c, 1, 74, 0
1, 103783, Note_off_c, 1, 69, 0
1, 103786, Note_on_c, 1, 76, 127
1, 103786, Note_on_c, 1, 67, 127
1, 103969, Note_off_c, 1, 76, 0
1, 103969, Note_off_c, 1, 67, 0
1, 103971, Note_on_c, 1, 77, 127
1, 103971, Note_on_c, 1, 65, 127
1, 104154, Note_off_c, 1, 77, 0
1, 104154, Note_off_c, 1, 65, 0
1, 104157, Note_on_c, 1, 64, 127
1, 104157, Note_on_c, 1, 79, 127
1, 104340, Note_off_c, 1, 64, 0
1, 104342, Note_on_c, 1, 77, 127
1, 104342, Note_on_c, 1, 62, 127
1, 104525, Note_off_c, 1, 77, 0
1, 104525, Note_off_c, 1, 62, 0
1, 104527, Note_on_c, 1, 76, 127
1, 104527, Note_on_c, 1, 60, 127
1, 104710, Note_off_c, 1, 76, 0
1, 104710, Note_off_c, 1, 60, 0
1, 104713, Note_on_c, 1, 74, 127
1, 104896, Note_off_c, 1, 74, 0
1, 104898, Note_on_c, 1, 72, 127
1, 105084, Note_off_c, 1, 79, 0
1, 105084, Note_on_c, 1, 82, 127
1, 105084, Note_on_c, 1, 67, 127
1, 105267, Note_off_c, 1, 82, 0
1, 105267, Note_off_c, 1, 67, 0
1, 105269, Note_on_c, 1, 81, 127
1, 105269, Note_on_c, 1, 65, 127
1, 105452, Note_off_c, 1, 81, 0
1, 105452, Note_off_c, 1, 65, 0
1, 105825, Note_off_c, 1, 72, 0
1, 106011, Note_on_c, 1, 59, 127
1, 106194, Note_off_c, 1, 59, 0
1, 106381, Note_on_c, 1, 71, 127
1, 106921, Note_off_c, 1, 71, 0
1, 106938, Note_on_c, 1, 77, 127
1, 106938, Note_on_c, 1, 71, 127
1, 106938, Note_on_c, 1, 62, 127
1, 107121, Note_off_c, 1, 77, 0
1, 107121, Note_off_c, 1, 71, 0
1, 107121, Note_off_c, 1, 62, 0
1, 107123, Note_on_c, 1, 76, 127
1, 107123, Note_on_c, 1, 60, 127
1, 107123, Note_on_c, 1, 72, 127
1, 107213, Note_off_c, 1, 76, 0
1, 107216, Note_on_c, 1, 74, 127
1, 107306, Note_off_c, 1, 60, 0
1, 107306, Note_off_c, 1, 74, 0
1, 107308, Note_on_c, 1, 59, 127
1, 107491, Note_off_c, 1, 59, 0
1, 107494, Note_on_c, 1, 57, 127
1, 107677, Note_off_c, 1, 57, 0
1, 107679, Note_on_c, 1, 55, 127
1, 107862, Note_off_c, 1, 55, 0
1, 107865, Note_on_c, 1, 54, 127
1, 107865, Note_on_c, 1, 81, 127
1, 108048, Note_off_c, 1, 54, 0
1, 108050, Note_on_c, 1, 52, 127
1, 108233, Note_off_c, 1, 52, 0
1, 108235, Note_on_c, 1, 51, 127
1, 108416, Note_off_c, 1, 72, 0
1, 108418, Note_off_c, 1, 51, 0
1, 108419, Note_off_c, 1, 81, 0
1, 108421, Note_on_c, 1, 81, 127
1, 108421, Note_on_c, 1, 72, 127
1, 108421, Note_on_c, 1, 52, 127
1, 108604, Note_off_c, 1, 81, 0
1, 108604, Note_off_c, 1, 72, 0
1, 108604, Note_off_c, 1, 52, 0
1, 108606, Note_on_c, 1, 81, 127
1, 108606, Note_on_c, 1, 51, 127
1, 108606, Note_on_c, 1, 71, 127
1, 108789, Note_off_c, 1, 81, 0
1, 108792, Note_on_c, 1, 79, 127
1, 108975, Note_off_c, 1, 79, 0
1, 109162, Note_on_c, 1, 78, 127
1, 109339, Note_off_c, 1, 51, 0
1, 109345, Note_off_c, 1, 78, 0
1, 109533, Note_on_c, 1, 52, 127
1, 109716, Note_off_c, 1, 52, 0
1, 109719, Note_on_c, 1, 54, 127
1, 109899, Note_off_c, 1, 71, 0
1, 109902, Note_off_c, 1, 54, 0
1, 109904, Note_on_c, 1, 71, 127
1, 109904, Note_on_c, 1, 79, 127
1, 109904, Note_on_c, 1, 55, 127
1, 110087, Note_off_c, 1, 71, 0
1, 110087, Note_off_c, 1, 79, 0
1, 110087, Note_off_c, 1, 55, 0
1, 110089, Note_on_c, 1, 57, 127
1, 110089, Note_on_c, 1, 79, 127
1, 110089, Note_on_c, 1, 71, 127
1, 110272, Note_off_c, 1, 57, 0
1, 110275, Note_on_c, 1, 55, 127
1, 110458, Note_off_c, 1, 55, 0
1, 110646, Note_on_c, 1, 59, 127
1, 110828, Note_off_c, 1, 79, 0
1, 110828, Note_off_c, 1, 71, 0
1, 110829, Note_off_c, 1, 59, 0
1, 110831, Note_on_c, 1, 60, 127
1, 110831, Note_on_c, 1, 77, 127
1, 110831, Note_on_c, 1, 69, 127
1, 111014, Note_off_c, 1, 60, 0
1, 111016, Note_on_c, 1, 59, 127
1, 111199, Note_off_c, 1, 77, 0
1, 111199, Note_off_c, 1, 59, 0
1, 111202, Note_on_c, 1, 76, 127
1, 111387, Note_on_c, 1, 57, 127
1, 111570, Note_off_c, 1, 76, 0
1, 111570, Note_off_c, 1, 57, 0
1, 111573, Note_on_c, 1, 75, 127
1, 111758, Note_off_c, 1, 69, 0
1, 111758, Note_on_c, 1, 72, 127
1, 111941, Note_off_c, 1, 72, 0
1, 111943, Note_on_c, 1, 71, 127
1, 112126, Note_off_c, 1, 71, 0
1, 112306, Note_off_c, 1, 75, 0
1, 112314, Note_on_c, 1, 67, 127
1, 112497, Note_off_c, 1, 67, 0
1, 112500, Note_on_c, 1, 66, 127
1, 112683, Note_off_c, 1, 66, 0
1, 112685, Note_on_c, 1, 64, 127
1, 112685, Note_on_c, 1, 78, 127
1, 112868, Note_off_c, 1, 64, 0
1, 112870, Note_on_c, 1, 63, 127
1, 113053, Note_off_c, 1, 78, 0
1, 113053, Note_off_c, 1, 63, 0
1, 113056, Note_on_c, 1, 79, 127
1, 114166, Note_off_c, 1, 79, 0
1, 117504, Note_on_c, 1, 74, 127
1, 117504, Note_on_c, 1, 56, 127
1, 117687, Note_off_c, 1, 74, 0
1, 118243, Note_off_c, 1, 56, 0
1, 118987, Note_on_c, 1, 52, 127
1, 119172, Note_on_c, 1, 68, 127
1, 119355, Note_off_c, 1, 68, 0
1, 119914, Note_on_c, 1, 62, 127
1, 120097, Note_off_c, 1, 62, 0
1, 123427, Note_off_c, 1, 52, 0
1, 123435, Note_on_c, 1, 71, 127
1, 123525, Note_off_c, 1, 71, 0
1, 123528, Note_on_c, 1, 69, 127
1, 123618, Note_off_c, 1, 69, 0
1, 123621, Note_on_c, 1, 40, 127
1, 123621, Note_on_c, 1, 71, 127
1, 123804, Note_off_c, 1, 40, 0
1, 123806, Note_on_c, 1, 44, 127
1, 123989, Note_off_c, 1, 44, 0
1, 123991, Note_on_c, 1, 47, 127
1, 124174, Note_off_c, 1, 47, 0
1, 124177, Note_on_c, 1, 52, 127
1, 124360, Note_off_c, 1, 71, 0
1, 124362, Note_on_c, 1, 72, 127
1, 124545, Note_off_c, 1, 72, 0
1, 124733, Note_on_c, 1, 69, 127
1, 124916, Note_off_c, 1, 69, 0
1, 124918, Note_on_c, 1, 68, 127
1, 125101, Note_off_c, 1, 68, 0
1, 125287, Note_off_c, 1, 52, 0
1, 125289, Note_on_c, 1, 71, 127
1, 125289, Note_on_c, 1, 54, 127
1, 125472, Note_off_c, 1, 71, 0
1, 125475, Note_on_c, 1, 68, 127
1, 125657, Note_off_c, 1, 54, 0
1, 125658, Note_off_c, 1, 68, 0
1, 125660, Note_on_c, 1, 64, 127
1, 125660, Note_on_c, 1, 56, 127
1, 125843, Note_off_c, 1, 64, 0
1, 125845, Note_on_c, 1, 74, 127
1, 126028, Note_off_c, 1, 56, 0
1, 126028, Note_off_c, 1, 74, 0
1, 126031, Note_on_c, 1, 72, 127
1, 126031, Note_on_c, 1, 52, 127
1, 126214, Note_off_c, 1, 72, 0
1, 126216, Note_on_c, 1, 71, 127
1, 126399, Note_off_c, 1, 52, 0
1, 126399, Note_off_c, 1, 71, 0
1, 126402, Note_on_c, 1, 72, 127
1, 126402, Note_on_c, 1, 57, 127
1, 126585, Note_off_c, 1, 72, 0
1, 126587, Note_on_c, 1, 74, 127
1, 126770, Note_off_c, 1, 57, 0
1, 126770, Note_off_c, 1, 74, 0
1, 126772, Note_on_c, 1, 76, 127
1, 126772, Note_on_c, 1, 55, 127
1, 126955, Note_off_c, 1, 76, 0
1, 126958, Note_on_c, 1, 72, 127
1, 127141, Note_off_c, 1, 72, 0
1, 127143, Note_on_c, 1, 69, 127
1, 127326, Note_off_c, 1, 55, 0
1, 127326, Note_off_c, 1, 69, 0
1, 127329, Note_on_c, 1, 71, 127
1, 127329, Note_on_c, 1, 53, 127
1, 127512, Note_off_c, 1, 71, 0
1, 127512, Note_off_c, 1, 53, 0
1, 127514, Note_on_c, 1, 73, 127
1, 127514, Note_on_c, 1, 52, 127
1, 127697, Note_off_c, 1, 73, 0
1, 127697, Note_off_c, 1, 52, 0
1, 127699, Note_on_c, 1, 74, 127
1, 127699, Note_on_c, 1, 50, 127
1, 127882, Note_off_c, 1, 74, 0
1, 127882, Note_off_c, 1, 50, 0
1, 127885, Note_on_c, 1, 76, 127
1, 127885, Note_on_c, 1, 49, 127
1, 128068, Note_off_c, 1, 76, 0
1, 128068, Note_off_c, 1, 49, 0
1, 128070, Note_on_c, 1, 77, 127
1, 128070, Note_on_c, 1, 50, 127
1, 128253, Note_off_c, 1, 77, 0
1, 128253, Note_off_c, 1, 50, 0
1, 128256, Note_on_c, 1, 79, 127
1, 128256, Note_on_c, 1, 52, 127
1, 128439, Note_off_c, 1, 79, 0
1, 128439, Note_off_c, 1, 52, 0
1, 128441, Note_on_c, 1, 76, 127
1, 128441, Note_on_c, 1, 49, 127
1, 128624, Note_off_c, 1, 76, 0
1, 128624, Note_off_c, 1, 49, 0
1, 128626, Note_on_c, 1, 73, 127
1, 128626, Note_on_c, 1, 45, 127
1, 128809, Note_off_c, 1, 73, 0
1, 128809, Note_off_c, 1, 45, 0
1, 128812, Note_on_c, 1, 82, 127
1, 128812, Note_on_c, 1, 55, 127
1, 128995, Note_off_c, 1, 82, 0
1, 128995, Note_off_c, 1, 55, 0
1, 128997, Note_on_c, 1, 81, 127
1, 128997, Note_on_c, 1, 53, 127
1, 129180, Note_off_c, 1, 81, 0
1, 129180, Note_off_c, 1, 53, 0
1, 129183, Note_on_c, 1, 79, 127
1, 129183, Note_on_c, 1, 52, 127
1, 129366, Note_off_c, 1, 79, 0
1, 129366, Note_off_c, 1, 52, 0
1, 129368, Note_on_c, 1, 77, 127
1, 129368, Note_on_c, 1, 50, 127
1, 129551, Note_off_c, 1, 77, 0
1, 129553, Note_on_c, 1, 76, 127
1, 129736, Note_off_c, 1, 50, 0
1, 129736, Note_off_c, 1, 76, 0
1, 129739, Note_on_c, 1, 77, 127
1, 129739, Note_on_c, 1, 38, 127
1, 129922, Note_off_c, 1, 77, 0
1, 129924, Note_on_c, 1, 74, 127
1, 130107, Note_off_c, 1, 74, 0
1, 130110, Note_on_c, 1, 81, 127
1, 130293, Note_off_c, 1, 38, 0
1, 130295, Note_on_c, 1, 50, 127
1, 130478, Note_off_c, 1, 50, 0
1, 130480, Note_on_c, 1, 73, 127
1, 130480, Note_on_c, 1, 52, 127
1, 130663, Note_off_c, 1, 73, 0
1, 130663, Note_off_c, 1, 52, 0
1, 130666, Note_on_c, 1, 53, 127
1, 130843, Note_off_c, 1, 81, 0
1, 130849, Note_off_c, 1, 53, 0
1, 130851, Note_on_c, 1, 55, 127
1, 130851, Note_on_c, 1, 82, 127
1, 131034, Note_off_c, 1, 55, 0
1, 131405, Note_off_c, 1, 82, 0
1, 131407, Note_on_c, 1, 57, 127
1, 131590, Note_off_c, 1, 57, 0
1, 131593, Note_on_c, 1, 58, 127
1, 131593, Note_on_c, 1, 79, 127
1, 131776, Note_off_c, 1, 58, 0
1, 131964, Note_on_c, 1, 76, 127
1, 132133, Note_off_c, 1, 79, 0
1, 132147, Note_off_c, 1, 76, 0
1, 132149, Note_on_c, 1, 77, 127
1, 132149, Note_on_c, 1, 55, 127
1, 132239, Note_off_c, 1, 77, 0
1, 132242, Note_on_c, 1, 79, 127
1, 132332, Note_off_c, 1, 55, 0
1, 132334, Note_on_c, 1, 73, 127
1, 132334, Note_on_c, 1, 57, 127
1, 132511, Note_off_c, 1, 79, 0
1, 132889, Note_on_c, 1, 76, 127
1, 133072, Note_off_c, 1, 76, 0
1, 133259, Note_off_c, 1, 73, 0
1, 133260, Note_on_c, 1, 74, 127
1, 133626, Note_off_c, 1, 74, 0
1, 133631, Note_on_c, 1, 71, 127
1, 133814, Note_off_c, 1, 71, 0
1, 134002, Note_on_c, 1, 69, 127
1, 134185, Note_off_c, 1, 69, 0
1, 134187, Note_on_c, 1, 70, 127
1, 134373, Note_on_c, 1, 67, 127
1, 134555, Note_off_c, 1, 70, 0
1, 134556, Note_off_c, 1, 67, 0
1, 134558, Note_on_c, 1, 65, 127
1, 134926, Note_off_c, 1, 65, 0
1, 134929, Note_on_c, 1, 64, 127
1, 135287, Note_off_c, 1, 57, 0
1, 135296, Note_off_c, 1, 64, 0
1, 135299, Note_on_c, 1, 62, 127
1, 135667, Note_off_c, 1, 62, 0
1, 135669, Note_on_c, 1, 66, 127
1, 135669, Note_on_c, 1, 50, 127
1, 135852, Note_off_c, 1, 66, 0
1, 136223, Note_off_c, 1, 50, 0
1, 136411, Note_on_c, 1, 74, 127
1, 136411, Note_on_c, 1, 52, 127
1, 136594, Note_off_c, 1, 74, 0
1, 136594, Note_off_c, 1, 52, 0
1, 136596, Note_on_c, 1, 72, 127
1, 136596, Note_on_c, 1, 54, 127
1, 136779, Note_off_c, 1, 72, 0
1, 136779, Note_off_c, 1, 54, 0
1, 136782, Note_on_c, 1, 71, 127
1, 136782, Note_on_c, 1, 55, 127
1, 136965, Note_off_c, 1, 71, 0
1, 136965, Note_off_c, 1, 55, 0
1, 136967, Note_on_c, 1, 69, 127
1, 136967, Note_on_c, 1, 57, 127
1, 137150, Note_off_c, 1, 69, 0
1, 137150, Note_off_c, 1, 57, 0
1, 137153, Note_on_c, 1, 67, 127
1, 137153, Note_on_c, 1, 59, 127
1, 137336, Note_off_c, 1, 67, 0
1, 137336, Note_off_c, 1, 59, 0
1, 137338, Note_on_c, 1, 66, 127
1, 137338, Note_on_c, 1, 50, 127
1, 137521, Note_off_c, 1, 66, 0
1, 137521, Note_off_c, 1, 50, 0
1, 137523, Note_on_c, 1, 64, 127
1, 137523, Note_on_c, 1, 48, 127
1, 137706, Note_off_c, 1, 64, 0
1, 137706, Note_off_c, 1, 48, 0
1, 137709, Note_on_c, 1, 67, 127
1, 137709, Note_on_c, 1, 59, 127
1, 137892, Note_off_c, 1, 67, 0
1, 137892, Note_off_c, 1, 59, 0
1, 137894, Note_on_c, 1, 66, 127
1, 137894, Note_on_c, 1, 57, 127
1, 138077, Note_off_c, 1, 66, 0
1, 138077, Note_off_c, 1, 57, 0
1, 138080, Note_on_c, 1, 67, 127
1, 138080, Note_on_c, 1, 55, 127
1, 138263, Note_off_c, 1, 67, 0
1, 138263, Note_off_c, 1, 55, 0
1, 138265, Note_on_c, 1, 54, 127
1, 138265, Note_on_c, 1, 69, 127
1, 138450, Note_on_c, 1, 64, 127
1, 138633, Note_off_c, 1, 64, 0
1, 138636, Note_on_c, 1, 62, 127
1, 138819, Note_off_c, 1, 62, 0
1, 138821, Note_on_c, 1, 60, 127
1, 138998, Note_off_c, 1, 54, 0
1, 139004, Note_off_c, 1, 60, 0
1, 139007, Note_on_c, 1, 55, 127
1, 139007, Note_on_c, 1, 59, 127
1, 139189, Note_off_c, 1, 69, 0
1, 139375, Note_off_c, 1, 55, 0
1, 139375, Note_off_c, 1, 59, 0
1, 139377, Note_on_c, 1, 67, 127
1, 139377, Note_on_c, 1, 60, 127
1, 139377, Note_on_c, 1, 57, 127
1, 139560, Note_off_c, 1, 67, 0
1, 139563, Note_on_c, 1, 66, 127
1, 139745, Note_off_c, 1, 60, 0
1, 139745, Note_off_c, 1, 57, 0
1, 139746, Note_off_c, 1, 66, 0
1, 139748, Note_on_c, 1, 67, 127
1, 139748, Note_on_c, 1, 62, 127
1, 139748, Note_on_c, 1, 59, 127
1, 139934, Note_on_c, 1, 74, 127
1, 140117, Note_off_c, 1, 74, 0
1, 140119, Note_on_c, 1, 79, 127
1, 140288, Note_off_c, 1, 67, 0
1, 140302, Note_off_c, 1, 62, 0
1, 140302, Note_off_c, 1, 59, 0
1, 140304, Note_on_c, 1, 69, 127
1, 140304, Note_on_c, 1, 60, 127
1, 140304, Note_on_c, 1, 64, 127
1, 140487, Note_off_c, 1, 69, 0
1, 140487, Note_off_c, 1, 60, 0
1, 140487, Note_off_c, 1, 64, 0
1, 140490, Note_on_c, 1, 71, 127
1, 140659, Note_off_c, 1, 79, 0
1, 140856, Note_off_c, 1, 71, 0
1, 140861, Note_on_c, 1, 50, 127
1, 141046, Note_on_c, 1, 78, 127
1, 141229, Note_off_c, 1, 50, 0
1, 141229, Note_off_c, 1, 78, 0
1, 141231, Note_on_c, 1, 55, 127
1, 141788, Note_on_c, 1, 57, 127
1, 141971, Note_off_c, 1, 57, 0
1, 142341, Note_off_c, 1, 55, 0
1, 142344, Note_on_c, 1, 69, 127
1, 142344, Note_on_c, 1, 57, 127
1, 142344, Note_on_c, 1, 53, 127
1, 142527, Note_off_c, 1, 69, 0
1, 142529, Note_on_c, 1, 71, 127
1, 142712, Note_off_c, 1, 57, 0
1, 142712, Note_off_c, 1, 53, 0
1, 142712, Note_off_c, 1, 71, 0
1, 142715, Note_on_c, 1, 72, 127
1, 142715, Note_on_c, 1, 55, 127
1, 142715, Note_on_c, 1, 52, 127
1, 142898, Note_off_c, 1, 72, 0
1, 142900, Note_on_c, 1, 74, 127
1, 143083, Note_off_c, 1, 55, 0
1, 143083, Note_off_c, 1, 74, 0
1, 143085, Note_on_c, 1, 76, 127
1, 143085, Note_on_c, 1, 60, 127
1, 143268, Note_off_c, 1, 76, 0
1, 143271, Note_on_c, 1, 67, 127
1, 143448, Note_off_c, 1, 52, 0
1, 143454, Note_off_c, 1, 67, 0
1, 143456, Note_on_c, 1, 65, 127
1, 143456, Note_on_c, 1, 57, 127
1, 143639, Note_off_c, 1, 65, 0
1, 143818, Note_off_c, 1, 60, 0
1, 144189, Note_off_c, 1, 57, 0
1, 144198, Note_on_c, 1, 71, 127
1, 144381, Note_off_c, 1, 71, 0
1, 144383, Note_on_c, 1, 69, 127
1, 144566, Note_off_c, 1, 69, 0
1, 144939, Note_on_c, 1, 64, 127
1, 145307, Note_off_c, 1, 64, 0
1, 145310, Note_on_c, 1, 62, 127
1, 145678, Note_off_c, 1, 62, 0
1, 145681, Note_on_c, 1, 76, 127
1, 145681, Note_on_c, 1, 48, 127
1, 145681, Note_on_c, 1, 60, 127
1, 145864, Note_off_c, 1, 76, 0
1, 145866, Note_on_c, 1, 71, 127
1, 146049, Note_off_c, 1, 48, 0
1, 146049, Note_off_c, 1, 71, 0
1, 146052, Note_on_c, 1, 72, 127
1, 146052, Note_on_c, 1, 52, 127
1, 146235, Note_off_c, 1, 72, 0
1, 146237, Note_on_c, 1, 68, 127
1, 146420, Note_off_c, 1, 52, 0
1, 146420, Note_off_c, 1, 68, 0
1, 146423, Note_on_c, 1, 69, 127
1, 146423, Note_on_c, 1, 53, 127
1, 146606, Note_off_c, 1, 69, 0
1, 146791, Note_off_c, 1, 60, 0
1, 146793, Note_on_c, 1, 62, 127
1, 147156, Note_off_c, 1, 53, 0
1, 147161, Note_off_c, 1, 62, 0
1, 147164, Note_on_c, 1, 68, 127
1, 147164, Note_on_c, 1, 64, 127
1, 147164, Note_on_c, 1, 52, 127
1, 147347, Note_off_c, 1, 68, 0
1, 147350, Note_on_c, 1, 66, 127
1, 147530, Note_off_c, 1, 64, 0
1, 147533, Note_off_c, 1, 66, 0
1, 147720, Note_on_c, 1, 62, 127
1, 147903, Note_off_c, 1, 62, 0
1, 147906, Note_on_c, 1, 60, 127
1, 148091, Note_on_c, 1, 77, 127
1, 148274, Note_off_c, 1, 52, 0
1, 148274, Note_off_c, 1, 60, 0
1, 148274, Note_off_c, 1, 77, 0
1, 148277, Note_on_c, 1, 76, 127
1, 148277, Note_on_c, 1, 56, 127
1, 148277, Note_on_c, 1, 59, 127
1, 148460, Note_off_c, 1, 76, 0
1, 148462, Note_on_c, 1, 74, 127
1, 148645, Note_off_c, 1, 56, 0
1, 148645, Note_off_c, 1, 59, 0
1, 148645, Note_off_c, 1, 74, 0
1, 148647, Note_on_c, 1, 73, 127
1, 148647, Note_on_c, 1, 57, 127
1, 148830, Note_off_c, 1, 73, 0
1, 148833, Note_on_c, 1, 74, 127
1, 149015, Note_off_c, 1, 57, 0
1, 149016, Note_off_c, 1, 74, 0
1, 149018, Note_on_c, 1, 76, 127
1, 149018, Note_on_c, 1, 61, 127
1, 149018, Note_on_c, 1, 55, 127
1, 149201, Note_off_c, 1, 76, 0
1, 149204, Note_on_c, 1, 73, 127
1, 149386, Note_off_c, 1, 61, 0
1, 149386, Note_off_c, 1, 55, 0
1, 149387, Note_off_c, 1, 73, 0
1, 149389, Note_on_c, 1, 69, 127
1, 149389, Note_on_c, 1, 62, 127
1, 149389, Note_on_c, 1, 53, 127
1, 149572, Note_off_c, 1, 69, 0
1, 149574, Note_on_c, 1, 79, 127
1, 149757, Note_off_c, 1, 62, 0
1, 149757, Note_off_c, 1, 53, 0
1, 149757, Note_off_c, 1, 79, 0
1, 149760, Note_on_c, 1, 77, 127
1, 149760, Note_on_c, 1, 57, 127
1, 149760, Note_on_c, 1, 61, 127
1, 149943, Note_off_c, 1, 77, 0
1, 149945, Note_on_c, 1, 76, 127
1, 150128, Note_off_c, 1, 57, 0
1, 150128, Note_off_c, 1, 61, 0
1, 150128, Note_off_c, 1, 76, 0
1, 150131, Note_on_c, 1, 77, 127
1, 150131, Note_on_c, 1, 62, 127
1, 150131, Note_on_c, 1, 50, 127
1, 150314, Note_off_c, 1, 77, 0
1, 150316, Note_on_c, 1, 79, 127
1, 150499, Note_off_c, 1, 62, 0
1, 150499, Note_off_c, 1, 50, 0
1, 150499, Note_off_c, 1, 79, 0
1, 150501, Note_on_c, 1, 81, 127
1, 150501, Note_on_c, 1, 52, 127
1, 150501, Note_on_c, 1, 48, 127
1, 150684, Note_off_c, 1, 81, 0
1, 150687, Note_on_c, 1, 77, 127
1, 150869, Note_off_c, 1, 52, 0
1, 150869, Note_off_c, 1, 48, 0
1, 150870, Note_off_c, 1, 77, 0
1, 150872, Note_on_c, 1, 74, 127
1, 150872, Note_on_c, 1, 47, 127
1, 150872, Note_on_c, 1, 53, 127
1, 151058, Note_on_c, 1, 72, 127
1, 151141, Note_off_c, 1, 74, 0
1, 151239, Note_off_c, 1, 47, 0
1, 151240, Note_off_c, 1, 72, 0
1, 151242, Note_on_c, 1, 71, 127
1, 151242, Note_on_c, 1, 50, 127
1, 151411, Note_off_c, 1, 53, 0
1, 151427, Note_on_c, 1, 69, 127
1, 151427, Note_on_c, 1, 54, 127
1, 151551, Note_off_c, 1, 71, 0
1, 151610, Note_off_c, 1, 69, 0
1, 151610, Note_off_c, 1, 54, 0
1, 151613, Note_on_c, 1, 56, 127
1, 151613, Note_on_c, 1, 76, 127
1, 151796, Note_off_c, 1, 56, 0
1, 151798, Note_on_c, 1, 68, 127
1, 151798, Note_on_c, 1, 59, 127
1, 151975, Note_off_c, 1, 50, 0
1, 151981, Note_off_c, 1, 68, 0
1, 151981, Note_off_c, 1, 59, 0
1, 151984, Note_on_c, 1, 48, 127
1, 151984, Note_on_c, 1, 52, 127
1, 152153, Note_off_c, 1, 76, 0
1, 152167, Note_off_c, 1, 48, 0
1, 152167, Note_off_c, 1, 52, 0
1, 152169, Note_on_c, 1, 77, 127
1, 152352, Note_off_c, 1, 77, 0
1, 152354, Note_on_c, 1, 52, 127
1, 152354, Note_on_c, 1, 71, 127
1, 152537, Note_off_c, 1, 52, 0
1, 152540, Note_on_c, 1, 69, 127
1, 152540, Note_on_c, 1, 50, 127
1, 152723, Note_off_c, 1, 69, 0
1, 152723, Note_off_c, 1, 50, 0
1, 152725, Note_on_c, 1, 68, 127
1, 152894, Note_off_c, 1, 71, 0
1, 152911, Note_on_c, 1, 72, 127
1, 152911, Note_on_c, 1, 48, 127
1, 153091, Note_off_c, 1, 68, 0
1, 153094, Note_off_c, 1, 72, 0
1, 153094, Note_off_c, 1, 48, 0
1, 153096, Note_on_c, 1, 53, 127
1, 153096, Note_on_c, 1, 74, 127
1, 153279, Note_off_c, 1, 53, 0
1, 153281, Note_on_c, 1, 72, 127
1, 153281, Note_on_c, 1, 52, 127
1, 153464, Note_off_c, 1, 72, 0
1, 153464, Note_off_c, 1, 52, 0
1, 153467, Note_on_c, 1, 71, 127
1, 153467, Note_on_c, 1, 50, 127
1, 153650, Note_off_c, 1, 71, 0
1, 153650, Note_off_c, 1, 50, 0
1, 153652, Note_on_c, 1, 69, 127
1, 153652, Note_on_c, 1, 48, 127
1, 153835, Note_off_c, 1, 69, 0
1, 153835, Note_off_c, 1, 48, 0
1, 153838, Note_on_c, 1, 68, 127
1, 153838, Note_on_c, 1, 47, 127
1, 154021, Note_off_c, 1, 68, 0
1, 154021, Note_off_c, 1, 47, 0
1, 154579, Note_on_c, 1, 44, 127
1, 154579, Note_on_c, 1, 64, 127
1, 154756, Note_off_c, 1, 74, 0
1, 154946, Note_off_c, 1, 44, 0
1, 154949, Note_on_c, 1, 45, 127
1, 155118, Note_off_c, 1, 64, 0
1, 155134, Note_on_c, 1, 60, 127
1, 155317, Note_off_c, 1, 45, 0
1, 155317, Note_off_c, 1, 60, 0
1, 155320, Note_on_c, 1, 59, 127
1, 155503, Note_off_c, 1, 59, 0
1, 155691, Note_on_c, 1, 40, 127
1, 155691, Note_on_c, 1, 62, 127
1, 156058, Note_off_c, 1, 40, 0
1, 156238, Note_off_c, 1, 62, 0
1, 156255, Note_on_c, 1, 61, 127
1, 156447, Note_off_c, 1, 61, 0
1, 156450, Note_on_c, 1, 55, 127
1, 156642, Note_off_c, 1, 55, 0
1, 157034, Note_on_c, 1, 57, 127
1, 157226, Note_off_c, 1, 57, 0
1, 160368, Note_on_c, 1, 45, 127
1, 160368, Note_on_c, 1, 60, 127
1, 160461, Note_on_c, 1, 64, 127
1, 160551, Note_off_c, 1, 45, 0
1, 160553, Note_on_c, 1, 52, 127
1, 160553, Note_on_c, 1, 69, 127
1, 160736, Note_off_c, 1, 52, 0
1, 160739, Note_on_c, 1, 57, 127
1, 160908, Note_off_c, 1, 60, 0
1, 160909, Note_off_c, 1, 64, 0
1, 160921, Note_off_c, 1, 69, 0
1, 160924, Note_on_c, 1, 68, 127
1, 161107, Note_off_c, 1, 68, 0
1, 161293, Note_off_c, 1, 57, 0
1, 161295, Note_on_c, 1, 56, 127
1, 161295, Note_on_c, 1, 71, 127
1, 161478, Note_off_c, 1, 56, 0
1, 161478, Note_off_c, 1, 71, 0
1, 161480, Note_on_c, 1, 57, 127
1, 161480, Note_on_c, 1, 72, 127
1, 161663, Note_off_c, 1, 57, 0
1, 161663, Note_off_c, 1, 72, 0
1, 161666, Note_on_c, 1, 59, 127
1, 161666, Note_on_c, 1, 74, 127
1, 161849, Note_off_c, 1, 59, 0
1, 161849, Note_off_c, 1, 74, 0
1, 161851, Note_on_c, 1, 60, 127
1, 161851, Note_on_c, 1, 76, 127
1, 162034, Note_off_c, 1, 60, 0
1, 162037, Note_on_c, 1, 62, 127
1, 162037, Note_on_c, 1, 69, 127
1, 162217, Note_off_c, 1, 76, 0
1, 162220, Note_off_c, 1, 62, 0
1, 162222, Note_on_c, 1, 64, 127
1, 162306, Note_off_c, 1, 69, 0
1, 162312, Note_off_c, 1, 64, 0
1, 162407, Note_on_c, 1, 60, 127
1, 162407, Note_on_c, 1, 77, 127
1, 162497, Note_off_c, 1, 60, 0
1, 162500, Note_on_c, 1, 62, 127
1, 162590, Note_off_c, 1, 77, 0
1, 162590, Note_off_c, 1, 62, 0
1, 162593, Note_on_c, 1, 69, 127
1, 162593, Note_on_c, 1, 64, 127
1, 162732, Note_on_c, 1, 68, 127
1, 162739, Note_off_c, 1, 69, 0
1, 162776, Note_off_c, 1, 64, 0
1, 162778, Note_on_c, 1, 59, 127
1, 162822, Note_off_c, 1, 68, 0
1, 162960, Note_off_c, 1, 59, 0
1, 162963, Note_on_c, 1, 52, 127
1, 163146, Note_off_c, 1, 52, 0
1, 163148, Note_on_c, 1, 53, 127
1, 163148, Note_on_c, 1, 69, 127
1, 163331, Note_off_c, 1, 53, 0
1, 163331, Note_off_c, 1, 69, 0
1, 163333, Note_on_c, 1, 52, 127
1, 163333, Note_on_c, 1, 71, 127
1, 163516, Note_off_c, 1, 52, 0
1, 163519, Note_on_c, 1, 50, 127
1, 163673, Note_off_c, 1, 71, 0
1, 163702, Note_off_c, 1, 50, 0
1, 163704, Note_on_c, 1, 48, 127
1, 163704, Note_on_c, 1, 64, 127
1, 163887, Note_off_c, 1, 48, 0
1, 163890, Note_on_c, 1, 47, 127
1, 164044, Note_off_c, 1, 64, 0
1, 164073, Note_off_c, 1, 47, 0
1, 164075, Note_on_c, 1, 74, 127
1, 164075, Note_on_c, 1, 45, 127
1, 164165, Note_off_c, 1, 74, 0
1, 164168, Note_on_c, 1, 72, 127
1, 164258, Note_off_c, 1, 45, 0
1, 164258, Note_off_c, 1, 72, 0
1, 164260, Note_on_c, 1, 53, 127
1, 164260, Note_on_c, 1, 74, 127
1, 164443, Note_off_c, 1, 53, 0
1, 164446, Note_on_c, 1, 45, 127
1, 164628, Note_off_c, 1, 74, 0
1, 164629, Note_off_c, 1, 45, 0
1, 164631, Note_on_c, 1, 44, 127
1, 164631, Note_on_c, 1, 76, 127
1, 164814, Note_off_c, 1, 44, 0
1, 164814, Note_off_c, 1, 76, 0
1, 164817, Note_on_c, 1, 74, 127
1, 164817, Note_on_c, 1, 45, 127
1, 164894, Note_on_c, 1, 72, 127
1, 164907, Note_off_c, 1, 74, 0
1, 164984, Note_off_c, 1, 72, 0
1, 165000, Note_off_c, 1, 45, 0
1, 165002, Note_on_c, 1, 40, 127
1, 165185, Note_off_c, 1, 40, 0
1, 165373, Note_on_c, 1, 47, 127
1, 165373, Note_on_c, 1, 71, 127
1, 165556, Note_off_c, 1, 47, 0
1, 165556, Note_off_c, 1, 71, 0
1, 165558, Note_on_c, 1, 48, 127
1, 165558, Note_on_c, 1, 69, 127
1, 165741, Note_off_c, 1, 48, 0
1, 165741, Note_off_c, 1, 69, 0
1, 165744, Note_on_c, 1, 47, 127
1, 165744, Note_on_c, 1, 68, 127
1, 165927, Note_off_c, 1, 47, 0
1, 165927, Note_off_c, 1, 68, 0
1, 165929, Note_on_c, 1, 48, 127
1, 165929, Note_on_c, 1, 69, 127
1, 166112, Note_off_c, 1, 48, 0
1, 166112, Note_off_c, 1, 69, 0
1, 166114, Note_on_c, 1, 50, 127
1, 166114, Note_on_c, 1, 71, 127
1, 166297, Note_off_c, 1, 50, 0
1, 166297, Note_off_c, 1, 71, 0
1, 166300, Note_on_c, 1, 52, 127
1, 166300, Note_on_c, 1, 72, 127
1, 166300, Note_on_c, 1, 68, 127
1, 166377, Note_on_c, 1, 50, 127
1, 166390, Note_off_c, 1, 52, 0
1, 166467, Note_off_c, 1, 50, 0
1, 166576, Note_off_c, 1, 72, 0
1, 166578, Note_on_c, 1, 71, 127
1, 166668, Note_off_c, 1, 71, 0
1, 166671, Note_on_c, 1, 40, 127
1, 166840, Note_off_c, 1, 68, 0
1, 166856, Note_on_c, 1, 69, 127
1, 167039, Note_off_c, 1, 40, 0
1, 167039, Note_off_c, 1, 69, 0
1, 167041, Note_on_c, 1, 45, 127
1, 167041, Note_on_c, 1, 69, 127
1, 167224, Note_off_c, 1, 45, 0
1, 167227, Note_on_c, 1, 57, 127
1, 167410, Note_off_c, 1, 57, 0
1, 167412, Note_on_c, 1, 55, 127
1, 167595, Note_off_c, 1, 69, 0
1, 167595, Note_off_c, 1, 55, 0
1, 167598, Note_on_c, 1, 53, 127
1, 167598, Note_on_c, 1, 81, 127
1, 167781, Note_off_c, 1, 53, 0
1, 167781, Note_off_c, 1, 81, 0
1, 167783, Note_on_c, 1, 52, 127
1, 167783, Note_on_c, 1, 79, 127
1, 167966, Note_off_c, 1, 52, 0
1, 167966, Note_off_c, 1, 79, 0
1, 167968, Note_on_c, 1, 50, 127
1, 167968, Note_on_c, 1, 77, 127
1, 168151, Note_off_c, 1, 50, 0
1, 168151, Note_off_c, 1, 77, 0
1, 168154, Note_on_c, 1, 48, 127
1, 168154, Note_on_c, 1, 76, 127
1, 168337, Note_off_c, 1, 48, 0
1, 168337, Note_off_c, 1, 76, 0
1, 168339, Note_on_c, 1, 50, 127
1, 168339, Note_on_c, 1, 74, 127
1, 168522, Note_off_c, 1, 50, 0
1, 168522, Note_off_c, 1, 74, 0
1, 168525, Note_on_c, 1, 52, 127
1, 168525, Note_on_c, 1, 72, 127
1, 168708, Note_off_c, 1, 52, 0
1, 168708, Note_off_c, 1, 72, 0
1, 168710, Note_on_c, 1, 50, 127
1, 168710, Note_on_c, 1, 79, 127
1, 168893, Note_off_c, 1, 50, 0
1, 168893, Note_off_c, 1, 79, 0
1, 168895, Note_on_c, 1, 72, 127
1, 168895, Note_on_c, 1, 52, 127
1, 168985, Note_off_c, 1, 72, 0
1, 168988, Note_on_c, 1, 70, 127
1, 169078, Note_off_c, 1, 52, 0
1, 169078, Note_off_c, 1, 70, 0
1, 169081, Note_on_c, 1, 69, 127
1, 169081, Note_on_c, 1, 48, 127
1, 169171, Note_off_c, 1, 69, 0
1, 169173, Note_on_c, 1, 70, 127
1, 169263, Note_off_c, 1, 70, 0
1, 169264, Note_off_c, 1, 48, 0
1, 169266, Note_on_c, 1, 53, 127
1, 169266, Note_on_c, 1, 69, 127
1, 169449, Note_off_c, 1, 53, 0
1, 169452, Note_on_c, 1, 41, 127
1, 169634, Note_off_c, 1, 69, 0
1, 169635, Note_off_c, 1, 41, 0
1, 169637, Note_on_c, 1, 53, 127
1, 169637, Note_on_c, 1, 74, 127
1, 169820, Note_off_c, 1, 53, 0
1, 169822, Note_on_c, 1, 52, 127
1, 170005, Note_off_c, 1, 52, 0
1, 170191, Note_off_c, 1, 74, 0
1, 170193, Note_on_c, 1, 55, 127
1, 170193, Note_on_c, 1, 72, 127
1, 170376, Note_off_c, 1, 55, 0
1, 170376, Note_off_c, 1, 72, 0
1, 170379, Note_on_c, 1, 57, 127
1, 170379, Note_on_c, 1, 77, 127
1, 170562, Note_off_c, 1, 57, 0
1, 170562, Note_off_c, 1, 77, 0
1, 170564, Note_on_c, 1, 59, 127
1, 170564, Note_on_c, 1, 74, 127
1, 170747, Note_off_c, 1, 59, 0
1, 170747, Note_off_c, 1, 74, 0
1, 170749, Note_on_c, 1, 60, 127
1, 170749, Note_on_c, 1, 76, 127
1, 170932, Note_off_c, 1, 60, 0
1, 170932, Note_off_c, 1, 76, 0
1, 170935, Note_on_c, 1, 53, 127
1, 170935, Note_on_c, 1, 77, 127
1, 171118, Note_off_c, 1, 53, 0
1, 171118, Note_off_c, 1, 77, 0
1, 171120, Note_on_c, 1, 79, 127
1, 171120, Note_on_c, 1, 60, 127
1, 171210, Note_off_c, 1, 79, 0
1, 171213, Note_on_c, 1, 77, 127
1, 171303, Note_off_c, 1, 60, 0
1, 171303, Note_off_c, 1, 77, 0
1, 171306, Note_on_c, 1, 76, 127
1, 171306, Note_on_c, 1, 62, 127
1, 171396, Note_off_c, 1, 76, 0
1, 171398, Note_on_c, 1, 77, 127
1, 171488, Note_off_c, 1, 77, 0
1, 171489, Note_off_c, 1, 62, 0
1, 171491, Note_on_c, 1, 79, 127
1, 171491, Note_on_c, 1, 53, 127
1, 171581, Note_off_c, 1, 79, 0
1, 171584, Note_on_c, 1, 77, 127
1, 171674, Note_off_c, 1, 53, 0
1, 171674, Note_off_c, 1, 77, 0
1, 171676, Note_on_c, 1, 76, 127
1, 171676, Note_on_c, 1, 52, 127
1, 171766, Note_off_c, 1, 76, 0
1, 171769, Note_on_c, 1, 74, 127
1, 171859, Note_off_c, 1, 74, 0
1, 171862, Note_on_c, 1, 72, 127
1, 172044, Note_off_c, 1, 52, 0
1, 172045, Note_off_c, 1, 72, 0
1, 172047, Note_on_c, 1, 53, 127
1, 172047, Note_on_c, 1, 79, 127
1, 172230, Note_off_c, 1, 53, 0
1, 172230, Note_off_c, 1, 79, 0
1, 172233, Note_on_c, 1, 70, 127
1, 172233, Note_on_c, 1, 55, 127
1, 172416, Note_off_c, 1, 70, 0
1, 172418, Note_on_c, 1, 69, 127
1, 172601, Note_off_c, 1, 55, 0
1, 172601, Note_off_c, 1, 69, 0
1, 172603, Note_on_c, 1, 70, 127
1, 172603, Note_on_c, 1, 48, 127
1, 172786, Note_off_c, 1, 70, 0
1, 172789, Note_on_c, 1, 76, 127
1, 172971, Note_off_c, 1, 48, 0
1, 172972, Note_off_c, 1, 76, 0
1, 172974, Note_on_c, 1, 79, 127
1, 172974, Note_on_c, 1, 58, 127
1, 173157, Note_off_c, 1, 79, 0
1, 173160, Note_on_c, 1, 77, 127
1, 173343, Note_off_c, 1, 77, 0
1, 173528, Note_off_c, 1, 58, 0
1, 173530, Note_on_c, 1, 60, 127
1, 173530, Note_on_c, 1, 76, 127
1, 173713, Note_off_c, 1, 60, 0
1, 173713, Note_off_c, 1, 76, 0
1, 173716, Note_on_c, 1, 58, 127
1, 173716, Note_on_c, 1, 77, 127
1, 173806, Note_off_c, 1, 58, 0
1, 173808, Note_on_c, 1, 57, 127
1, 173898, Note_off_c, 1, 57, 0
1, 173899, Note_off_c, 1, 77, 0
1, 173901, Note_on_c, 1, 58, 127
1, 173901, Note_on_c, 1, 76, 127
1, 173991, Note_off_c, 1, 58, 0
1, 173994, Note_on_c, 1, 57, 127
1, 174084, Note_off_c, 1, 76, 0
1, 174087, Note_on_c, 1, 74, 127
1, 174270, Note_off_c, 1, 57, 0
1, 174270, Note_off_c, 1, 74, 0
1, 174272, Note_on_c, 1, 55, 127
1, 174272, Note_on_c, 1, 72, 127
1, 174455, Note_off_c, 1, 55, 0
1, 174455, Note_off_c, 1, 72, 0
1, 174457, Note_on_c, 1, 53, 127
1, 174457, Note_on_c, 1, 74, 127
1, 174640, Note_off_c, 1, 53, 0
1, 174640, Note_off_c, 1, 74, 0
1, 174643, Note_on_c, 1, 72, 127
1, 174643, Note_on_c, 1, 52, 127
1, 174733, Note_off_c, 1, 72, 0
1, 174735, Note_on_c, 1, 71, 127
1, 174825, Note_off_c, 1, 71, 0
1, 174826, Note_off_c, 1, 52, 0
1, 174828, Note_on_c, 1, 50, 127
1, 174828, Note_on_c, 1, 72, 127
1, 175011, Note_off_c, 1, 50, 0
1, 175011, Note_off_c, 1, 72, 0
1, 175014, Note_on_c, 1, 48, 127
1, 175014, Note_on_c, 1, 74, 127
1, 175197, Note_off_c, 1, 48, 0
1, 175197, Note_off_c, 1, 74, 0
1, 175199, Note_on_c, 1, 76, 127
1, 175199, Note_on_c, 1, 55, 127
1, 175338, Note_on_c, 1, 74, 127
1, 175344, Note_off_c, 1, 76, 0
1, 175428, Note_off_c, 1, 74, 0
1, 175570, Note_on_c, 1, 43, 127
1, 175755, Note_on_c, 1, 72, 127
1, 175932, Note_off_c, 1, 55, 0
1, 175938, Note_off_c, 1, 43, 0
1, 175938, Note_off_c, 1, 72, 0
1, 175941, Note_on_c, 1, 48, 127
1, 175941, Note_on_c, 1, 72, 127
1, 176310, Note_on_c, 1, 36, 127
1, 176680, Note_on_c, 1, 43, 127
1, 177047, Note_off_c, 1, 43, 0
1, 177048, Note_off_c, 1, 48, 0
1, 177050, Note_on_c, 1, 64, 127
1, 177050, Note_on_c, 1, 67, 127
1, 177788, Note_off_c, 1, 64, 0
1, 177788, Note_off_c, 1, 67, 0
1, 177790, Note_off_c, 1, 72, 0
1, 177790, Note_on_c, 1, 76, 127
1, 178157, Note_off_c, 1, 76, 0
1, 178159, Note_off_c, 1, 36, 0
1, 178160, Note_on_c, 1, 48, 127
1, 178160, Note_on_c, 1, 67, 127
1, 178253, Note_on_c, 1, 72, 127
1, 178343, Note_off_c, 1, 48, 0
1, 178346, Note_on_c, 1, 55, 127
1, 178346, Note_on_c, 1, 76, 127
1, 178529, Note_off_c, 1, 55, 0
1, 178531, Note_on_c, 1, 60, 127
1, 178700, Note_off_c, 1, 67, 0
1, 178701, Note_off_c, 1, 72, 0
1, 178714, Note_off_c, 1, 76, 0
1, 178716, Note_on_c, 1, 77, 127
1, 178899, Note_off_c, 1, 77, 0
1, 179085, Note_off_c, 1, 60, 0
1, 179087, Note_on_c, 1, 62, 127
1, 179087, Note_on_c, 1, 74, 127
1, 179270, Note_off_c, 1, 62, 0
1, 179270, Note_off_c, 1, 74, 0
1, 179273, Note_on_c, 1, 64, 127
1, 179273, Note_on_c, 1, 72, 127
1, 179456, Note_off_c, 1, 64, 0
1, 179456, Note_off_c, 1, 72, 0
1, 179458, Note_on_c, 1, 65, 127
1, 179458, Note_on_c, 1, 71, 127
1, 179641, Note_off_c, 1, 65, 0
1, 179641, Note_off_c, 1, 71, 0
1, 179643, Note_on_c, 1, 64, 127
1, 179643, Note_on_c, 1, 72, 127
1, 179826, Note_off_c, 1, 64, 0
1, 179826, Note_off_c, 1, 72, 0
1, 179829, Note_on_c, 1, 60, 127
1, 179829, Note_on_c, 1, 69, 127
1, 180012, Note_off_c, 1, 60, 0
1, 180012, Note_off_c, 1, 69, 0
1, 180014, Note_on_c, 1, 57, 127
1, 180014, Note_on_c, 1, 79, 127
1, 180197, Note_off_c, 1, 57, 0
1, 180197, Note_off_c, 1, 79, 0
1, 180200, Note_on_c, 1, 62, 127
1, 180200, Note_on_c, 1, 78, 127
1, 180383, Note_off_c, 1, 62, 0
1, 180383, Note_off_c, 1, 78, 0
1, 180385, Note_on_c, 1, 81, 127
1, 180385, Note_on_c, 1, 59, 127
1, 180458, Note_on_c, 1, 79, 127
1, 180475, Note_off_c, 1, 81, 0
1, 180548, Note_off_c, 1, 79, 0
1, 180568, Note_off_c, 1, 59, 0
1, 180570, Note_on_c, 1, 60, 127
1, 180753, Note_off_c, 1, 60, 0
1, 180941, Note_on_c, 1, 57, 127
1, 181124, Note_off_c, 1, 57, 0
1, 181127, Note_on_c, 1, 55, 127
1, 181127, Note_on_c, 1, 83, 127
1, 181310, Note_off_c, 1, 55, 0
1, 181312, Note_on_c, 1, 54, 127
1, 181495, Note_off_c, 1, 83, 0
1, 181495, Note_off_c, 1, 54, 0
1, 181497, Note_on_c, 1, 52, 127
1, 181497, Note_on_c, 1, 71, 127
1, 181680, Note_off_c, 1, 52, 0
1, 181683, Note_on_c, 1, 51, 127
1, 181865, Note_off_c, 1, 71, 0
1, 181866, Note_off_c, 1, 51, 0
1, 181868, Note_on_c, 1, 52, 127
1, 181868, Note_on_c, 1, 71, 127
1, 182051, Note_off_c, 1, 52, 0
1, 182051, Note_off_c, 1, 71, 0
1, 182054, Note_on_c, 1, 45, 127
1, 182054, Note_on_c, 1, 72, 127
1, 182237, Note_off_c, 1, 45, 0
1, 182239, Note_on_c, 1, 57, 127
1, 182401, Note_off_c, 1, 72, 0
1, 182423, Note_on_c, 1, 74, 127
1, 182606, Note_off_c, 1, 74, 0
1, 182782, Note_off_c, 1, 57, 0
1, 182794, Note_on_c, 1, 54, 127
1, 182794, Note_on_c, 1, 71, 127
1, 182977, Note_off_c, 1, 54, 0
1, 182980, Note_on_c, 1, 51, 127
1, 183141, Note_off_c, 1, 71, 0
1, 183163, Note_off_c, 1, 51, 0
1, 183165, Note_on_c, 1, 47, 127
1, 183165, Note_on_c, 1, 81, 127
1, 183165, Note_on_c, 1, 78, 127
1, 183348, Note_off_c, 1, 47, 0
1, 183348, Note_off_c, 1, 81, 0
1, 183350, Note_on_c, 1, 52, 127
1, 183350, Note_on_c, 1, 79, 127
1, 183531, Note_off_c, 1, 78, 0
1, 183536, Note_on_c, 1, 76, 127
1, 183718, Note_off_c, 1, 52, 0
1, 183721, Note_on_c, 1, 57, 127
1, 183890, Note_off_c, 1, 79, 0
1, 184089, Note_off_c, 1, 57, 0
1, 184092, Note_on_c, 1, 59, 127
1, 184269, Note_off_c, 1, 76, 0
1, 184459, Note_off_c, 1, 59, 0
1, 184462, Note_on_c, 1, 75, 127
1, 184828, Note_off_c, 1, 75, 0
1, 184833, Note_on_c, 1, 52, 127
1, 184833, Note_on_c, 1, 76, 127
1, 185018, Note_on_c, 1, 71, 127
1, 185203, Note_on_c, 1, 68, 127
1, 185387, Note_off_c, 1, 52, 0
1, 185389, Note_on_c, 1, 51, 127
1, 185572, Note_off_c, 1, 51, 0
1, 185760, Note_on_c, 1, 54, 127
1, 185943, Note_off_c, 1, 54, 0
1, 185945, Note_on_c, 1, 56, 127
1, 186128, Note_off_c, 1, 56, 0
1, 186130, Note_on_c, 1, 57, 127
1, 186311, Note_off_c, 1, 71, 0
1, 186313, Note_off_c, 1, 57, 0
1, 186314, Note_off_c, 1, 76, 0
1, 186498, Note_off_c, 1, 68, 0
1, 186501, Note_on_c, 1, 59, 127
1, 186501, Note_on_c, 1, 76, 127
1, 186684, Note_off_c, 1, 59, 0
1, 186684, Note_off_c, 1, 76, 0
1, 186687, Note_on_c, 1, 78, 127
1, 186687, Note_on_c, 1, 50, 127
1, 186870, Note_off_c, 1, 78, 0
1, 186872, Note_on_c, 1, 80, 127
1, 187055, Note_off_c, 1, 50, 0
1, 187055, Note_off_c, 1, 80, 0
1, 187057, Note_on_c, 1, 80, 127
1, 187057, Note_on_c, 1, 49, 127
1, 187240, Note_off_c, 1, 80, 0
1, 187243, Note_on_c, 1, 52, 127
1, 187243, Note_on_c, 1, 81, 127
1, 187426, Note_off_c, 1, 52, 0
1, 187428, Note_on_c, 1, 53, 127
1, 187611, Note_off_c, 1, 81, 0
1, 187611, Note_off_c, 1, 53, 0
1, 187614, Note_on_c, 1, 55, 127
1, 187614, Note_on_c, 1, 71, 127
1, 187797, Note_off_c, 1, 55, 0
1, 187797, Note_off_c, 1, 71, 0
1, 187799, Note_on_c, 1, 57, 127
1, 187799, Note_on_c, 1, 73, 127
1, 187982, Note_off_c, 1, 57, 0
1, 187982, Note_off_c, 1, 73, 0
1, 187984, Note_on_c, 1, 74, 127
1, 188167, Note_off_c, 1, 74, 0
1, 188170, Note_on_c, 1, 76, 127
1, 188170, Note_on_c, 1, 58, 127
1, 188353, Note_off_c, 1, 76, 0
1, 188355, Note_on_c, 1, 77, 127
1, 188538, Note_off_c, 1, 49, 0
1, 188538, Note_off_c, 1, 77, 0
1, 188541, Note_on_c, 1, 50, 127
1, 188726, Note_on_c, 1, 79, 127
1, 188903, Note_off_c, 1, 58, 0
1, 188909, Note_off_c, 1, 50, 0
1, 188909, Note_off_c, 1, 79, 0
1, 188911, Note_on_c, 1, 70, 127
1, 188911, Note_on_c, 1, 49, 127
1, 189094, Note_off_c, 1, 70, 0
1, 189097, Note_on_c, 1, 69, 127
1, 189279, Note_off_c, 1, 49, 0
1, 189280, Note_off_c, 1, 69, 0
1, 189282, Note_on_c, 1, 50, 127
1, 189282, Note_on_c, 1, 76, 127
1, 189465, Note_off_c, 1, 50, 0
1, 189465, Note_off_c, 1, 76, 0
1, 189468, Note_on_c, 1, 49, 127
1, 189468, Note_on_c, 1, 77, 127
1, 189651, Note_off_c, 1, 49, 0
1, 189653, Note_on_c, 1, 50, 127
1, 189836, Note_off_c, 1, 77, 0
1, 189836, Note_off_c, 1, 50, 0
1, 189838, Note_on_c, 1, 52, 127
1, 189838, Note_on_c, 1, 76, 127
1, 190021, Note_off_c, 1, 52, 0
1, 190021, Note_off_c, 1, 76, 0
1, 190024, Note_on_c, 1, 53, 127
1, 190024, Note_on_c, 1, 74, 127
1, 190207, Note_off_c, 1, 53, 0
1, 190207, Note_off_c, 1, 74, 0
1, 190209, Note_on_c, 1, 52, 127
1, 190209, Note_on_c, 1, 72, 127
1, 190392, Note_off_c, 1, 52, 0
1, 190392, Note_off_c, 1, 72, 0
1, 190395, Note_on_c, 1, 70, 127
1, 190395, Note_on_c, 1, 50, 127
1, 190578, Note_off_c, 1, 70, 0
1, 190580, Note_on_c, 1, 69, 127
1, 190763, Note_off_c, 1, 50, 0
1, 190763, Note_off_c, 1, 69, 0
1, 190765, Note_on_c, 1, 62, 127
1, 190765, Note_on_c, 1, 70, 127
1, 190855, Note_off_c, 1, 62, 0
1, 190855, Note_off_c, 1, 70, 0
1, 190858, Note_on_c, 1, 61, 127
1, 190858, Note_on_c, 1, 69, 127
1, 190948, Note_off_c, 1, 61, 0
1, 190948, Note_off_c, 1, 69, 0
1, 190951, Note_on_c, 1, 67, 127
1, 190951, Note_on_c, 1, 62, 127
1, 191134, Note_off_c, 1, 67, 0
1, 191136, Note_on_c, 1, 76, 127
1, 191319, Note_off_c, 1, 62, 0
1, 191322, Note_on_c, 1, 64, 127
1, 191505, Note_off_c, 1, 64, 0
1, 191507, Note_on_c, 1, 66, 127
1, 191646, Note_on_c, 1, 60, 127
1, 191676, Note_off_c, 1, 76, 0
1, 191692, Note_on_c, 1, 69, 127
1, 191736, Note_off_c, 1, 60, 0
1, 191874, Note_off_c, 1, 69, 0
1, 191877, Note_on_c, 1, 74, 127
1, 192044, Note_off_c, 1, 66, 0
1, 192049, Note_on_c, 1, 59, 127
1, 192060, Note_on_c, 1, 68, 127
1, 192232, Note_off_c, 1, 59, 0
1, 192243, Note_off_c, 1, 68, 0
1, 192245, Note_on_c, 1, 57, 127
1, 192415, Note_off_c, 1, 74, 0
1, 192613, Note_off_c, 1, 57, 0
1, 192616, Note_on_c, 1, 72, 127
1, 192616, Note_on_c, 1, 50, 127
1, 192799, Note_off_c, 1, 72, 0
1, 192802, Note_on_c, 1, 71, 127
1, 192984, Note_off_c, 1, 50, 0
1, 192985, Note_off_c, 1, 71, 0
1, 192987, Note_on_c, 1, 72, 127
1, 192987, Note_on_c, 1, 52, 127
1, 192987, Note_on_c, 1, 68, 127
1, 193133, Note_off_c, 1, 72, 0
1, 193133, Note_on_c, 1, 71, 127
1, 193223, Note_off_c, 1, 71, 0
1, 193354, Note_off_c, 1, 52, 0
1, 193357, Note_on_c, 1, 40, 127
1, 193541, Note_on_c, 1, 69, 127
1, 193718, Note_off_c, 1, 68, 0
1, 193724, Note_off_c, 1, 40, 0
1, 193724, Note_off_c, 1, 69, 0
1, 193727, Note_on_c, 1, 45, 127
1, 193727, Note_on_c, 1, 69, 127
1, 194167, Note_on_c, 1, 48, 127
1, 194605, Note_off_c, 1, 48, 0
1, 194608, Note_on_c, 1, 52, 127
1, 195046, Note_off_c, 1, 52, 0
1, 195049, Note_on_c, 1, 57, 127
1, 195049, Note_on_c, 1, 60, 127
1, 195049, Note_on_c, 1, 64, 127
1, 197241, Note_off_c, 1, 45, 0
1, 197241, Note_off_c, 1, 69, 0
1, 197254, Note_off_c, 1, 57, 0
1, 197254, Note_off_c, 1, 60, 0
1, 197254, Note_off_c, 1, 64, 0
1, 199019, Note_on_c, 1, 69, 127
1, 199019, Note_on_c, 1, 57, 127
1, 199268, Note_on_c, 1, 74, 127
1, 199377, Note_on_c, 1, 76, 127
1, 199453, Note_off_c, 1, 74, 0
1, 199591, Note_off_c, 1, 76, 0
1, 199801, Note_off_c, 1, 69, 0
1, 199810, Note_on_c, 1, 72, 127
1, 199810, Note_on_c, 1, 45, 127
1, 199892, Note_off_c, 1, 72, 0
1, 199892, Note_on_c, 1, 71, 127
1, 199974, Note_off_c, 1, 71, 0
1, 200598, Note_off_c, 1, 45, 0
1, 200599, Note_off_c, 1, 57, 0
1, 200996, Note_on_c, 1, 77, 127
1, 201389, Note_off_c, 1, 77, 0
1, 201392, Note_on_c, 1, 65, 127
1, 201983, Note_off_c, 1, 65, 0
1, 202183, Note_on_c, 1, 56, 127
1, 202183, Note_on_c, 1, 64, 127
1, 202965, Note_off_c, 1, 56, 0
1, 202974, Note_on_c, 1, 54, 127
1, 203367, Note_off_c, 1, 54, 0
1, 203369, Note_on_c, 1, 52, 127
1, 203762, Note_off_c, 1, 52, 0
1, 203763, Note_off_c, 1, 64, 0
1, 203765, Note_on_c, 1, 57, 127
1, 203765, Note_on_c, 1, 64, 127
1, 203765, Note_on_c, 1, 69, 127
1, 203765, Note_on_c, 1, 72, 127
1, 204553, Note_off_c, 1, 57, 0
1, 204553, Note_off_c, 1, 64, 0
1, 204556, Note_on_c, 1, 53, 127
1, 204556, Note_on_c, 1, 62, 127
1, 204630, Note_off_c, 1, 69, 0
1, 204659, Note_on_c, 1, 68, 127
1, 204753, Note_off_c, 1, 72, 0
1, 204762, Note_on_c, 1, 71, 127
1, 204895, Note_off_c, 1, 71, 0
1, 205342, Note_off_c, 1, 68, 0
1, 205344, Note_off_c, 1, 53, 0
1, 205344, Note_off_c, 1, 62, 0
1, 205347, Note_on_c, 1, 71, 127
1, 205347, Note_on_c, 1, 66, 127
1, 205347, Note_on_c, 1, 60, 127
1, 205347, Note_on_c, 1, 51, 127
1, 205542, Note_off_c, 1, 71, 0
1, 205545, Note_on_c, 1, 69, 127
1, 205740, Note_off_c, 1, 69, 0
1, 205743, Note_on_c, 1, 68, 127
1, 205938, Note_off_c, 1, 68, 0
1, 206129, Note_off_c, 1, 66, 0
1, 206129, Note_off_c, 1, 60, 0
1, 206135, Note_off_c, 1, 51, 0
1, 206138, Note_on_c, 1, 69, 127
1, 206138, Note_on_c, 1, 52, 127
1, 206138, Note_on_c, 1, 64, 127
1, 206138, Note_on_c, 1, 59, 127
1, 206336, Note_on_c, 1, 68, 127
1, 206337, Note_off_c, 1, 69, 0
1, 206459, Note_off_c, 1, 68, 0
1, 206926, Note_off_c, 1, 52, 0
1, 206929, Note_on_c, 1, 40, 127
1, 207325, Note_on_c, 1, 66, 127
1, 207326, Note_off_c, 1, 64, 0
1, 207717, Note_off_c, 1, 40, 0
1, 207718, Note_off_c, 1, 59, 0
1, 207718, Note_off_c, 1, 66, 0
1, 207720, Note_on_c, 1, 52, 127
1, 207720, Note_on_c, 1, 64, 127
1, 208113, Note_off_c, 1, 52, 0
1, 208116, Note_on_c, 1, 50, 127
1, 208508, Note_off_c, 1, 64, 0
1, 208509, Note_off_c, 1, 50, 0
1, 208511, Note_on_c, 1, 69, 127
1, 208511, Note_on_c, 1, 49, 127
1, 208620, Note_on_c, 1, 77, 127
1, 208716, Note_off_c, 1, 77, 0
1, 208730, Note_on_c, 1, 76, 127
1, 208826, Note_off_c, 1, 76, 0
1, 208839, Note_on_c, 1, 74, 127
1, 208935, Note_off_c, 1, 74, 0
1, 209105, Note_on_c, 1, 79, 127
1, 209293, Note_off_c, 1, 69, 0
1, 209299, Note_off_c, 1, 49, 0
1, 209302, Note_on_c, 1, 45, 127
1, 209302, Note_on_c, 1, 73, 127
1, 210090, Note_off_c, 1, 45, 0
1, 210093, Note_on_c, 1, 57, 127
1, 210485, Note_off_c, 1, 79, 0
1, 210489, Note_on_c, 1, 81, 127
1, 210881, Note_off_c, 1, 57, 0
1, 210882, Note_off_c, 1, 73, 0
1, 210882, Note_off_c, 1, 81, 0
1, 210884, Note_on_c, 1, 79, 127
1, 210884, Note_on_c, 1, 69, 127
1, 210884, Note_on_c, 1, 50, 127
1, 211079, Note_off_c, 1, 79, 0
1, 211082, Note_on_c, 1, 77, 127
1, 211277, Note_off_c, 1, 77, 0
1, 211280, Note_on_c, 1, 76, 127
1, 211475, Note_off_c, 1, 76, 0
1, 211478, Note_on_c, 1, 74, 127
1, 211666, Note_off_c, 1, 69, 0
1, 211672, Note_off_c, 1, 50, 0
1, 211673, Note_off_c, 1, 74, 0
1, 211675, Note_on_c, 1, 52, 127
1, 211675, Note_on_c, 1, 72, 127
1, 211675, Note_on_c, 1, 67, 127
1, 212463, Note_off_c, 1, 52, 0
1, 212463, Note_off_c, 1, 72, 0
1, 212466, Note_on_c, 1, 53, 127
1, 212664, Note_on_c, 1, 71, 127
1, 212859, Note_off_c, 1, 67, 0
1, 212859, Note_off_c, 1, 71, 0
1, 212862, Note_on_c, 1, 69, 127
1, 213057, Note_off_c, 1, 69, 0
1, 213254, Note_off_c, 1, 53, 0
1, 213257, Note_on_c, 1, 52, 127
1, 213257, Note_on_c, 1, 72, 127
1, 213455, Note_on_c, 1, 71, 127
1, 213551, Note_off_c, 1, 71, 0
1, 213554, Note_on_c, 1, 69, 127
1, 213650, Note_off_c, 1, 69, 0
1, 213653, Note_on_c, 1, 67, 127
1, 213848, Note_off_c, 1, 67, 0
1, 213851, Note_on_c, 1, 65, 127
1, 214045, Note_off_c, 1, 52, 0
1, 214046, Note_off_c, 1, 65, 0
1, 214049, Note_on_c, 1, 64, 127
1, 214049, Note_on_c, 1, 53, 127
1, 214442, Note_off_c, 1, 64, 0
1, 214837, Note_off_c, 1, 53, 0
1, 214840, Note_on_c, 1, 62, 127
1, 214840, Note_on_c, 1, 55, 127
1, 215234, Note_off_c, 1, 72, 0
1, 215622, Note_off_c, 1, 62, 0
1, 215628, Note_off_c, 1, 55, 0
1, 215631, Note_on_c, 1, 48, 127
1, 215631, Note_on_c, 1, 72, 127
1, 215631, Note_on_c, 1, 64, 127
1, 215713, Note_on_c, 1, 47, 127
1, 215727, Note_off_c, 1, 48, 0
1, 215809, Note_off_c, 1, 47, 0
1, 215878, Note_on_c, 1, 65, 127
1, 215981, Note_on_c, 1, 67, 127
1, 216028, Note_off_c, 1, 65, 0
1, 216222, Note_off_c, 1, 72, 0
1, 216390, Note_off_c, 1, 67, 0
1, 216413, Note_off_c, 1, 64, 0
1, 216422, Note_on_c, 1, 36, 127
1, 218002, Note_off_c, 1, 36, 0
1, 218004, Note_on_c, 1, 67, 127
1, 218004, Note_on_c, 1, 60, 127
1, 218103, Note_on_c, 1, 72, 127
1, 218201, Note_on_c, 1, 74, 127
1, 218300, Note_on_c, 1, 76, 127
1, 218386, Note_off_c, 1, 74, 0
1, 218588, Note_off_c, 1, 76, 0
1, 218786, Note_off_c, 1, 67, 0
1, 218786, Note_off_c, 1, 72, 0
1, 218792, Note_off_c, 1, 60, 0
1, 218795, Note_on_c, 1, 48, 127
1, 218795, Note_on_c, 1, 76, 127
1, 218795, Note_on_c, 1, 67, 127
1, 218795, Note_on_c, 1, 72, 127
1, 219583, Note_off_c, 1, 48, 0
1, 219586, Note_on_c, 1, 60, 127
1, 219979, Note_off_c, 1, 76, 0
1, 219981, Note_on_c, 1, 78, 127
1, 220374, Note_off_c, 1, 60, 0
1, 220374, Note_off_c, 1, 78, 0
1, 220375, Note_off_c, 1, 67, 0
1, 220375, Note_off_c, 1, 72, 0
1, 220377, Note_on_c, 1, 79, 127
1, 220377, Note_on_c, 1, 74, 127
1, 220377, Note_on_c, 1, 59, 127
1, 220869, Note_off_c, 1, 79, 0
1, 220871, Note_on_c, 1, 81, 127
1, 220967, Note_off_c, 1, 81, 0
1, 221069, Note_on_c, 1, 78, 127
1, 221159, Note_off_c, 1, 74, 0
1, 221165, Note_off_c, 1, 78, 0
1, 221168, Note_on_c, 1, 47, 127
1, 221956, Note_off_c, 1, 47, 0
1, 221957, Note_off_c, 1, 59, 0
1, 222573, Note_on_c, 1, 83, 127
1, 222748, Note_off_c, 1, 83, 0
1, 222750, Note_on_c, 1, 77, 127
1, 222750, Note_on_c, 1, 72, 127
1, 223044, Note_off_c, 1, 77, 0
1, 223047, Note_on_c, 1, 76, 127
1, 223539, Note_off_c, 1, 76, 0
1, 223541, Note_on_c, 1, 57, 127
1, 223934, Note_off_c, 1, 57, 0
1, 223937, Note_on_c, 1, 55, 127
1, 224330, Note_off_c, 1, 55, 0
1, 224332, Note_on_c, 1, 54, 127
1, 224725, Note_off_c, 1, 54, 0
1, 225119, Note_off_c, 1, 72, 0
1, 225123, Note_on_c, 1, 76, 127
1, 225123, Note_on_c, 1, 47, 127
1, 225123, Note_on_c, 1, 71, 127
1, 225699, Note_off_c, 1, 76, 0
1, 225716, Note_on_c, 1, 75, 127
1, 225911, Note_off_c, 1, 47, 0
1, 225914, Note_on_c, 1, 59, 127
1, 226334, Note_off_c, 1, 75, 0
1, 226351, Note_on_c, 1, 73, 127
1, 226701, Note_off_c, 1, 73, 0
1, 226702, Note_off_c, 1, 59, 0
1, 226703, Note_off_c, 1, 71, 0
1, 226705, Note_on_c, 1, 59, 127
1, 226705, Note_on_c, 1, 71, 127
1, 226900, Note_off_c, 1, 59, 0
1, 226903, Note_on_c, 1, 57, 127
1, 226999, Note_off_c, 1, 57, 0
1, 227493, Note_off_c, 1, 71, 0
1, 227496, Note_on_c, 1, 55, 127
1, 227496, Note_on_c, 1, 76, 127
1, 227889, Note_off_c, 1, 55, 0
1, 227892, Note_on_c, 1, 52, 127
1, 228087, Note_off_c, 1, 76, 0
1, 228089, Note_on_c, 1, 78, 127
1, 228185, Note_off_c, 1, 78, 0
1, 228188, Note_on_c, 1, 79, 127
1, 228284, Note_off_c, 1, 79, 0
1, 228285, Note_off_c, 1, 52, 0
1, 228287, Note_on_c, 1, 64, 127
1, 228287, Note_on_c, 1, 79, 127
1, 228680, Note_off_c, 1, 64, 0
1, 228683, Note_on_c, 1, 62, 127
1, 229076, Note_off_c, 1, 62, 0
1, 229471, Note_off_c, 1, 79, 0
1, 229474, Note_on_c, 1, 61, 127
1, 229474, Note_on_c, 1, 79, 127
1, 229867, Note_off_c, 1, 61, 0
1, 229867, Note_off_c, 1, 79, 0
1, 229869, Note_on_c, 1, 61, 127
1, 229869, Note_on_c, 1, 70, 127
1, 230090, Note_on_c, 1, 73, 127
1, 230253, Note_on_c, 1, 76, 127
1, 230262, Note_off_c, 1, 61, 0
1, 230265, Note_on_c, 1, 60, 127
1, 230415, Note_on_c, 1, 79, 127
1, 230641, Note_off_c, 1, 79, 0
1, 230644, Note_off_c, 1, 76, 0
1, 230651, Note_off_c, 1, 70, 0
1, 230658, Note_off_c, 1, 60, 0
1, 230660, Note_on_c, 1, 69, 127
1, 230660, Note_on_c, 1, 75, 127
1, 230666, Note_off_c, 1, 73, 0
1, 230957, Note_on_c, 1, 78, 127
1, 231056, Note_on_c, 1, 59, 127
1, 231442, Note_off_c, 1, 69, 0
1, 231442, Note_off_c, 1, 75, 0
1, 231449, Note_off_c, 1, 59, 0
1, 231533, Note_off_c, 1, 78, 0
1, 231847, Note_on_c, 1, 78, 127
1, 231847, Note_on_c, 1, 58, 127
1, 232042, Note_off_c, 1, 78, 0
1, 232045, Note_on_c, 1, 79, 127
1, 232240, Note_off_c, 1, 58, 0
1, 232240, Note_off_c, 1, 79, 0
1, 232242, Note_on_c, 1, 58, 127
1, 232242, Note_on_c, 1, 73, 127
1, 232242, Note_on_c, 1, 67, 127
1, 232635, Note_off_c, 1, 58, 0
1, 232638, Note_on_c, 1, 59, 127
1, 232734, Note_off_c, 1, 73, 0
1, 232737, Note_on_c, 1, 75, 127
1, 232833, Note_off_c, 1, 75, 0
1, 233024, Note_off_c, 1, 67, 0
1, 233031, Note_off_c, 1, 59, 0
1, 233033, Note_on_c, 1, 59, 127
1, 233033, Note_on_c, 1, 76, 127
1, 233033, Note_on_c, 1, 66, 127
1, 233129, Note_off_c, 1, 59, 0
1, 233132, Note_on_c, 1, 58, 127
1, 233228, Note_off_c, 1, 58, 0
1, 233525, Note_off_c, 1, 76, 0
1, 233528, Note_on_c, 1, 75, 127
1, 233624, Note_off_c, 1, 75, 0
1, 233627, Note_on_c, 1, 73, 127
1, 233723, Note_off_c, 1, 73, 0
1, 233825, Note_on_c, 1, 47, 127
1, 234613, Note_off_c, 1, 66, 0
1, 234613, Note_off_c, 1, 47, 0
1, 234616, Note_on_c, 1, 52, 127
1, 234616, Note_on_c, 1, 76, 127
1, 234712, Note_off_c, 1, 52, 0
1, 234714, Note_on_c, 1, 51, 127
1, 234810, Note_off_c, 1, 51, 0
1, 234813, Note_on_c, 1, 71, 127
1, 235008, Note_off_c, 1, 71, 0
1, 235011, Note_on_c, 1, 67, 127
1, 235206, Note_off_c, 1, 67, 0
1, 235209, Note_on_c, 1, 66, 127
1, 235404, Note_off_c, 1, 66, 0
1, 235407, Note_on_c, 1, 40, 127
1, 235802, Note_on_c, 1, 75, 127
1, 235996, Note_off_c, 1, 76, 0
1, 235997, Note_off_c, 1, 75, 0
1, 236195, Note_off_c, 1, 40, 0
1, 236198, Note_on_c, 1, 64, 127
1, 236593, Note_on_c, 1, 50, 127
1, 236986, Note_off_c, 1, 64, 0
1, 236986, Note_off_c, 1, 50, 0
1, 236989, Note_on_c, 1, 49, 127
1, 236989, Note_on_c, 1, 69, 127
1, 237108, Note_on_c, 1, 76, 127
1, 237228, Note_on_c, 1, 77, 127
1, 237347, Note_on_c, 1, 79, 127
1, 237382, Note_off_c, 1, 49, 0
1, 237384, Note_on_c, 1, 52, 127
1, 237413, Note_off_c, 1, 77, 0
1, 237573, Note_off_c, 1, 79, 0
1, 237582, Note_on_c, 1, 81, 127
1, 237771, Note_off_c, 1, 69, 0
1, 237777, Note_off_c, 1, 52, 0
1, 237777, Note_off_c, 1, 81, 0
1, 237780, Note_on_c, 1, 45, 127
1, 237780, Note_on_c, 1, 73, 127
1, 237791, Note_off_c, 1, 76, 0
1, 238568, Note_off_c, 1, 45, 0
1, 238571, Note_on_c, 1, 57, 127
1, 239359, Note_off_c, 1, 57, 0
1, 239360, Note_off_c, 1, 73, 0
1, 239362, Note_on_c, 1, 50, 127
1, 239362, Note_on_c, 1, 74, 127
1, 239755, Note_off_c, 1, 50, 0
1, 240144, Note_off_c, 1, 74, 0
1, 240153, Note_on_c, 1, 76, 127
1, 240153, Note_on_c, 1, 62, 127
1, 240153, Note_on_c, 1, 69, 127
1, 240416, Note_off_c, 1, 76, 0
1, 240421, Note_on_c, 1, 77, 127
1, 240546, Note_off_c, 1, 62, 0
1, 240548, Note_on_c, 1, 60, 127
1, 240754, Note_off_c, 1, 77, 0
1, 240941, Note_off_c, 1, 60, 0
1, 240944, Note_on_c, 1, 59, 127
1, 240944, Note_on_c, 1, 74, 127
1, 241141, Note_off_c, 1, 69, 0
1, 241142, Note_on_c, 1, 68, 127
1, 241337, Note_off_c, 1, 59, 0
1, 241337, Note_off_c, 1, 68, 0
1, 241339, Note_on_c, 1, 67, 127
1, 241339, Note_on_c, 1, 57, 127
1, 241534, Note_off_c, 1, 67, 0
1, 241537, Note_on_c, 1, 66, 127
1, 241732, Note_off_c, 1, 57, 0
1, 241732, Note_off_c, 1, 66, 0
1, 241735, Note_on_c, 1, 65, 127
1, 241735, Note_on_c, 1, 56, 127
1, 241982, Note_off_c, 1, 65, 0
1, 241982, Note_on_c, 1, 64, 127
1, 242128, Note_off_c, 1, 74, 0
1, 242128, Note_off_c, 1, 56, 0
1, 242130, Note_on_c, 1, 52, 127
1, 242229, Note_on_c, 1, 72, 127
1, 242325, Note_off_c, 1, 72, 0
1, 242328, Note_on_c, 1, 71, 127
1, 242523, Note_off_c, 1, 52, 0
1, 242523, Note_off_c, 1, 71, 0
1, 242921, Note_on_c, 1, 55, 127
1, 243298, Note_off_c, 1, 64, 0
1, 243314, Note_off_c, 1, 55, 0
1, 243317, Note_on_c, 1, 72, 127
1, 243317, Note_on_c, 1, 53, 127
1, 243317, Note_on_c, 1, 62, 127
1, 243512, Note_off_c, 1, 72, 0
1, 243515, Note_on_c, 1, 71, 127
1, 243628, Note_off_c, 1, 71, 0
1, 243713, Note_on_c, 1, 59, 127
1, 243910, Note_on_c, 1, 69, 127
1, 244099, Note_off_c, 1, 53, 0
1, 244099, Note_off_c, 1, 62, 0
1, 244105, Note_off_c, 1, 69, 0
1, 244106, Note_off_c, 1, 59, 0
1, 244108, Note_on_c, 1, 60, 127
1, 244108, Note_on_c, 1, 69, 127
1, 244108, Note_on_c, 1, 64, 127
1, 244108, Note_on_c, 1, 52, 127
1, 244896, Note_off_c, 1, 60, 0
1, 244896, Note_off_c, 1, 69, 0
1, 244998, Note_on_c, 1, 59, 127
1, 244998, Note_on_c, 1, 68, 127
1, 245094, Note_off_c, 1, 59, 0
1, 245101, Note_off_c, 1, 68, 0
1, 245472, Note_on_c, 1, 66, 127
1, 245472, Note_on_c, 1, 57, 127
1, 245686, Note_off_c, 1, 66, 0
1, 245688, Note_off_c, 1, 64, 0
1, 245688, Note_off_c, 1, 57, 0
1, 245690, Note_on_c, 1, 56, 127
1, 246085, Note_off_c, 1, 52, 0
1, 246086, Note_on_c, 1, 50, 127
1, 246472, Note_off_c, 1, 56, 0
1, 246479, Note_off_c, 1, 50, 0
1, 246481, Note_on_c, 1, 49, 127
1, 246481, Note_on_c, 1, 57, 127
1, 246580, Note_on_c, 1, 64, 127
1, 246679, Note_on_c, 1, 65, 127
1, 246778, Note_on_c, 1, 67, 127
1, 246864, Note_off_c, 1, 65, 0
1, 246874, Note_off_c, 1, 49, 0
1, 246877, Note_on_c, 1, 47, 127
1, 247066, Note_off_c, 1, 67, 0
1, 247263, Note_off_c, 1, 57, 0
1, 247263, Note_off_c, 1, 64, 0
1, 247270, Note_off_c, 1, 47, 0
1, 247272, Note_on_c, 1, 49, 127
1, 247272, Note_on_c, 1, 67, 127
1, 247272, Note_on_c, 1, 64, 127
1, 247272, Note_on_c, 1, 57, 127
1, 247665, Note_off_c, 1, 49, 0
1, 247668, Note_on_c, 1, 52, 127
1, 248061, Note_off_c, 1, 52, 0
1, 248063, Note_on_c, 1, 45, 127
1, 248456, Note_off_c, 1, 67, 0
1, 248456, Note_off_c, 1, 64, 0
1, 248456, Note_off_c, 1, 57, 0
1, 248456, Note_off_c, 1, 45, 0
1, 248459, Note_on_c, 1, 66, 127
1, 248459, Note_on_c, 1, 47, 127
1, 248654, Note_off_c, 1, 66, 0
1, 248657, Note_on_c, 1, 64, 127
1, 248852, Note_off_c, 1, 47, 0
1, 248854, Note_on_c, 1, 48, 127
1, 248854, Note_on_c, 1, 57, 127
1, 248916, Note_off_c, 1, 64, 0
1, 248953, Note_on_c, 1, 62, 127
1, 249247, Note_off_c, 1, 48, 0
1, 249250, Note_on_c, 1, 52, 127
1, 249448, Note_on_c, 1, 68, 127
1, 249636, Note_off_c, 1, 57, 0
1, 249636, Note_off_c, 1, 62, 0
1, 249643, Note_off_c, 1, 52, 0
1, 249643, Note_off_c, 1, 68, 0
1, 249645, Note_on_c, 1, 69, 127
1, 249645, Note_on_c, 1, 50, 127
1, 249645, Note_on_c, 1, 59, 127
1, 249842, Note_off_c, 1, 69, 0
1, 249843, Note_on_c, 1, 68, 127
1, 249939, Note_off_c, 1, 68, 0
1, 250038, Note_off_c, 1, 50, 0
1, 250041, Note_on_c, 1, 53, 127
1, 250434, Note_off_c, 1, 53, 0
1, 250436, Note_on_c, 1, 52, 127
1, 250829, Note_off_c, 1, 52, 0
1, 251225, Note_off_c, 1, 59, 0
1, 251227, Note_on_c, 1, 48, 127
1, 251227, Note_on_c, 1, 69, 127
1, 251347, Note_on_c, 1, 68, 127
1, 251443, Note_off_c, 1, 68, 0
1, 251466, Note_on_c, 1, 66, 127
1, 251562, Note_off_c, 1, 66, 0
1, 251586, Note_on_c, 1, 64, 127
1, 251620, Note_off_c, 1, 48, 0
1, 251623, Note_on_c, 1, 45, 127
1, 251821, Note_on_c, 1, 74, 127
1, 252001, Note_off_c, 1, 69, 0
1, 252016, Note_off_c, 1, 45, 0
1, 252016, Note_off_c, 1, 74, 0
1, 252018, Note_on_c, 1, 52, 127
1, 252216, Note_on_c, 1, 72, 127
1, 252780, Note_off_c, 1, 64, 0
1, 252806, Note_off_c, 1, 52, 0
1, 252809, Note_on_c, 1, 62, 127
1, 252809, Note_on_c, 1, 40, 127
1, 253007, Note_on_c, 1, 71, 127
1, 253202, Note_off_c, 1, 71, 0
1, 253204, Note_off_c, 1, 72, 0
1, 253591, Note_off_c, 1, 62, 0
1, 253597, Note_off_c, 1, 40, 0
1, 253601, Note_on_c, 1, 45, 127
1, 253601, Note_on_c, 1, 69, 127
1, 254008, Note_off_c, 1, 45, 0
1, 254010, Note_on_c, 1, 52, 127
1, 254112, Note_on_c, 1, 62, 127
1, 254214, Note_on_c, 1, 60, 127
1, 254281, Note_off_c, 1, 62, 0
1, 254316, Note_on_c, 1, 59, 127
1, 254397, Note_off_c, 1, 60, 0
1, 254416, Note_off_c, 1, 52, 0
1, 254416, Note_off_c, 1, 59, 0
1, 254419, Note_on_c, 1, 57, 127
1, 254543, Note_on_c, 1, 64, 127
1, 254597, Note_off_c, 1, 69, 0
1, 256872, Note_off_c, 1, 57, 0
1, 256890, Note_off_c, 1, 64, 0
1, 258517, Note_on_c, 1, 76, 127
1, 258517, Note_on_c, 1, 45, 127
1, 258599, Note_off_c, 1, 76, 0
1, 258601, Note_on_c, 1, 74, 127
1, 258683, Note_off_c, 1, 74, 0
1, 258852, Note_off_c, 1, 45, 0
1, 258855, Note_on_c, 1, 44, 127
1, 259190, Note_off_c, 1, 44, 0
1, 259192, Note_on_c, 1, 72, 127
1, 259192, Note_on_c, 1, 45, 127
1, 259358, Note_off_c, 1, 72, 0
1, 259361, Note_on_c, 1, 71, 127
1, 259527, Note_off_c, 1, 45, 0
1, 259527, Note_off_c, 1, 71, 0
1, 259530, Note_on_c, 1, 69, 127
1, 259530, Note_on_c, 1, 47, 127
1, 259696, Note_off_c, 1, 69, 0
1, 259699, Note_on_c, 1, 68, 127
1, 259865, Note_off_c, 1, 47, 0
1, 259865, Note_off_c, 1, 68, 0
1, 259868, Note_on_c, 1, 69, 127
1, 259868, Note_on_c, 1, 48, 127
1, 260034, Note_off_c, 1, 69, 0
1, 260037, Note_on_c, 1, 72, 127
1, 260203, Note_off_c, 1, 48, 0
1, 260203, Note_off_c, 1, 72, 0
1, 260206, Note_on_c, 1, 77, 127
1, 260206, Note_on_c, 1, 45, 127
1, 260372, Note_off_c, 1, 77, 0
1, 260375, Note_on_c, 1, 76, 127
1, 260541, Note_off_c, 1, 45, 0
1, 260541, Note_off_c, 1, 76, 0
1, 260544, Note_on_c, 1, 76, 127
1, 260544, Note_on_c, 1, 47, 127
1, 260665, Note_off_c, 1, 76, 0
1, 260667, Note_on_c, 1, 74, 127
1, 260738, Note_off_c, 1, 74, 0
1, 260880, Note_off_c, 1, 47, 0
1, 260883, Note_on_c, 1, 57, 127
1, 261052, Note_on_c, 1, 72, 127
1, 261218, Note_off_c, 1, 57, 0
1, 261218, Note_off_c, 1, 72, 0
1, 261220, Note_on_c, 1, 71, 127
1, 261220, Note_on_c, 1, 56, 127
1, 261386, Note_off_c, 1, 71, 0
1, 261389, Note_on_c, 1, 69, 127
1, 261555, Note_off_c, 1, 56, 0
1, 261555, Note_off_c, 1, 69, 0
1, 261558, Note_on_c, 1, 68, 127
1, 261558, Note_on_c, 1, 59, 127
1, 261724, Note_off_c, 1, 68, 0
1, 261727, Note_on_c, 1, 66, 127
1, 261893, Note_off_c, 1, 59, 0
1, 261893, Note_off_c, 1, 66, 0
1, 261896, Note_on_c, 1, 68, 127
1, 261896, Note_on_c, 1, 52, 127
1, 262062, Note_off_c, 1, 68, 0
1, 262065, Note_on_c, 1, 71, 127
1, 262231, Note_off_c, 1, 52, 0
1, 262231, Note_off_c, 1, 71, 0
1, 262234, Note_on_c, 1, 74, 127
1, 262234, Note_on_c, 1, 56, 127
1, 262400, Note_off_c, 1, 74, 0
1, 262403, Note_on_c, 1, 76, 127
1, 262569, Note_off_c, 1, 56, 0
1, 262569, Note_off_c, 1, 76, 0
1, 262572, Note_on_c, 1, 74, 127
1, 262572, Note_on_c, 1, 57, 127
1, 262730, Note_on_c, 1, 72, 127
1, 262735, Note_off_c, 1, 74, 0
1, 262809, Note_off_c, 1, 72, 0
1, 262908, Note_off_c, 1, 57, 0
1, 262911, Note_on_c, 1, 55, 127
1, 263080, Note_on_c, 1, 71, 127
1, 263246, Note_off_c, 1, 55, 0
1, 263246, Note_off_c, 1, 71, 0
1, 263249, Note_on_c, 1, 69, 127
1, 263249, Note_on_c, 1, 53, 127
1, 263415, Note_off_c, 1, 69, 0
1, 263417, Note_on_c, 1, 67, 127
1, 263583, Note_off_c, 1, 67, 0
1, 263584, Note_off_c, 1, 53, 0
1, 263586, Note_on_c, 1, 65, 127
1, 263586, Note_on_c, 1, 52, 127
1, 263752, Note_off_c, 1, 65, 0
1, 263755, Note_on_c, 1, 64, 127
1, 263921, Note_off_c, 1, 52, 0
1, 263921, Note_off_c, 1, 64, 0
1, 263924, Note_on_c, 1, 62, 127
1, 263924, Note_on_c, 1, 53, 127
1, 264090, Note_off_c, 1, 62, 0
1, 264093, Note_on_c, 1, 72, 127
1, 264259, Note_off_c, 1, 53, 0
1, 264259, Note_off_c, 1, 72, 0
1, 264262, Note_on_c, 1, 71, 127
1, 264262, Note_on_c, 1, 50, 127
1, 264406, Note_on_c, 1, 72, 127
1, 264411, Note_off_c, 1, 71, 0
1, 264501, Note_on_c, 1, 69, 127
1, 264502, Note_off_c, 1, 72, 0
1, 264577, Note_off_c, 1, 69, 0
1, 264597, Note_off_c, 1, 50, 0
1, 264600, Note_on_c, 1, 69, 127
1, 264600, Note_on_c, 1, 52, 127
1, 264811, Note_off_c, 1, 69, 0
1, 264811, Note_on_c, 1, 68, 127
1, 264894, Note_off_c, 1, 68, 0
1, 264936, Note_off_c, 1, 52, 0
1, 264939, Note_on_c, 1, 47, 127
1, 265275, Note_off_c, 1, 47, 0
1, 265278, Note_on_c, 1, 40, 127
1, 265613, Note_off_c, 1, 40, 0
1, 265784, Note_on_c, 1, 66, 127
1, 265950, Note_off_c, 1, 66, 0
1, 265953, Note_on_c, 1, 52, 127
1, 265953, Note_on_c, 1, 64, 127
1, 266288, Note_off_c, 1, 52, 0
1, 266291, Note_on_c, 1, 50, 127
1, 266445, Note_off_c, 1, 64, 0
1, 266626, Note_off_c, 1, 50, 0
1, 266629, Note_on_c, 1, 79, 127
1, 266629, Note_on_c, 1, 49, 127
1, 266711, Note_off_c, 1, 79, 0
1, 266713, Note_on_c, 1, 77, 127
1, 266795, Note_off_c, 1, 77, 0
1, 266964, Note_off_c, 1, 49, 0
1, 266967, Note_on_c, 1, 52, 127
1, 267302, Note_off_c, 1, 52, 0
1, 267305, Note_on_c, 1, 76, 127
1, 267305, Note_on_c, 1, 45, 127
1, 267471, Note_off_c, 1, 76, 0
1, 267474, Note_on_c, 1, 74, 127
1, 267640, Note_off_c, 1, 45, 0
1, 267640, Note_off_c, 1, 74, 0
1, 267643, Note_on_c, 1, 73, 127
1, 267643, Note_on_c, 1, 47, 127
1, 267809, Note_off_c, 1, 73, 0
1, 267811, Note_on_c, 1, 71, 127
1, 267977, Note_off_c, 1, 71, 0
1, 267978, Note_off_c, 1, 47, 0
1, 267980, Note_on_c, 1, 69, 127
1, 267980, Note_on_c, 1, 49, 127
1, 268146, Note_off_c, 1, 69, 0
1, 268149, Note_on_c, 1, 79, 127
1, 268315, Note_off_c, 1, 49, 0
1, 268315, Note_off_c, 1, 79, 0
1, 268318, Note_on_c, 1, 77, 127
1, 268318, Note_on_c, 1, 45, 127
1, 268452, Note_on_c, 1, 79, 127
1, 268484, Note_off_c, 1, 77, 0
1, 268549, Note_off_c, 1, 79, 0
1, 268553, Note_on_c, 1, 76, 127
1, 268651, Note_off_c, 1, 76, 0
1, 268653, Note_off_c, 1, 45, 0
1, 268656, Note_on_c, 1, 76, 127
1, 268656, Note_on_c, 1, 50, 127
1, 268822, Note_off_c, 1, 76, 0
1, 268825, Note_on_c, 1, 77, 127
1, 268907, Note_off_c, 1, 77, 0
1, 268990, Note_off_c, 1, 50, 0
1, 268993, Note_on_c, 1, 52, 127
1, 269328, Note_off_c, 1, 52, 0
1, 269331, Note_on_c, 1, 74, 127
1, 269331, Note_on_c, 1, 53, 127
1, 269497, Note_off_c, 1, 74, 0
1, 269500, Note_on_c, 1, 76, 127
1, 269666, Note_off_c, 1, 53, 0
1, 269666, Note_off_c, 1, 76, 0
1, 269669, Note_on_c, 1, 77, 127
1, 269669, Note_on_c, 1, 50, 127
1, 269835, Note_off_c, 1, 77, 0
1, 269837, Note_on_c, 1, 74, 127
1, 270003, Note_off_c, 1, 74, 0
1, 270004, Note_off_c, 1, 50, 0
1, 270006, Note_on_c, 1, 72, 127
1, 270006, Note_on_c, 1, 55, 127
1, 270172, Note_off_c, 1, 72, 0
1, 270175, Note_on_c, 1, 71, 127
1, 270341, Note_off_c, 1, 55, 0
1, 270341, Note_off_c, 1, 71, 0
1, 270344, Note_on_c, 1, 69, 127
1, 270344, Note_on_c, 1, 53, 127
1, 270510, Note_off_c, 1, 69, 0
1, 270513, Note_on_c, 1, 67, 127
1, 270679, Note_off_c, 1, 53, 0
1, 270679, Note_off_c, 1, 67, 0
1, 270682, Note_on_c, 1, 52, 127
1, 270682, Note_on_c, 1, 72, 127
1, 270848, Note_off_c, 1, 52, 0
1, 270848, Note_off_c, 1, 72, 0
1, 270851, Note_on_c, 1, 50, 127
1, 270851, Note_on_c, 1, 77, 127
1, 271017, Note_off_c, 1, 50, 0
1, 271017, Note_off_c, 1, 77, 0
1, 271020, Note_on_c, 1, 48, 127
1, 271020, Note_on_c, 1, 76, 127
1, 271186, Note_off_c, 1, 48, 0
1, 271186, Note_off_c, 1, 76, 0
1, 271189, Note_on_c, 1, 50, 127
1, 271189, Note_on_c, 1, 81, 127
1, 271355, Note_off_c, 1, 50, 0
1, 271355, Note_off_c, 1, 81, 0
1, 271358, Note_on_c, 1, 52, 127
1, 271358, Note_on_c, 1, 79, 127
1, 271524, Note_off_c, 1, 52, 0
1, 271524, Note_off_c, 1, 79, 0
1, 271527, Note_on_c, 1, 50, 127
1, 271527, Note_on_c, 1, 71, 127
1, 271693, Note_off_c, 1, 50, 0
1, 271693, Note_off_c, 1, 71, 0
1, 271696, Note_on_c, 1, 52, 127
1, 271696, Note_on_c, 1, 72, 127
1, 271862, Note_off_c, 1, 52, 0
1, 271862, Note_off_c, 1, 72, 0
1, 271864, Note_on_c, 1, 53, 127
1, 271864, Note_on_c, 1, 77, 127
1, 272030, Note_off_c, 1, 53, 0
1, 272030, Note_off_c, 1, 77, 0
1, 272033, Note_on_c, 1, 76, 127
1, 272033, Note_on_c, 1, 55, 127
1, 272199, Note_off_c, 1, 76, 0
1, 272202, Note_on_c, 1, 74, 127
1, 272285, Note_off_c, 1, 74, 0
1, 272369, Note_off_c, 1, 55, 0
1, 272372, Note_on_c, 1, 43, 127
1, 272542, Note_on_c, 1, 72, 127
1, 272708, Note_off_c, 1, 43, 0
1, 272708, Note_off_c, 1, 72, 0
1, 272711, Note_on_c, 1, 72, 127
1, 272711, Note_on_c, 1, 48, 127
1, 272793, Note_off_c, 1, 72, 0
1, 272796, Note_on_c, 1, 71, 127
1, 272878, Note_off_c, 1, 71, 0
1, 273046, Note_off_c, 1, 48, 0
1, 273049, Note_on_c, 1, 43, 127
1, 273384, Note_off_c, 1, 43, 0
1, 273387, Note_on_c, 1, 40, 127
1, 273722, Note_off_c, 1, 40, 0
1, 274062, Note_on_c, 1, 36, 127
1, 274734, Note_off_c, 1, 36, 0
1, 274737, Note_on_c, 1, 48, 127
1, 274737, Note_on_c, 1, 72, 127
1, 274903, Note_off_c, 1, 48, 0
1, 274906, Note_on_c, 1, 52, 127
1, 275072, Note_off_c, 1, 72, 0
1, 275072, Note_off_c, 1, 52, 0
1, 275075, Note_on_c, 1, 55, 127
1, 275075, Note_on_c, 1, 71, 127
1, 275241, Note_off_c, 1, 55, 0
1, 275244, Note_on_c, 1, 53, 127
1, 275410, Note_off_c, 1, 71, 0
1, 275410, Note_off_c, 1, 53, 0
1, 275413, Note_on_c, 1, 52, 127
1, 275413, Note_on_c, 1, 72, 127
1, 275579, Note_off_c, 1, 52, 0
1, 275582, Note_on_c, 1, 50, 127
1, 275748, Note_off_c, 1, 72, 0
1, 275748, Note_off_c, 1, 50, 0
1, 275751, Note_on_c, 1, 48, 127
1, 275751, Note_on_c, 1, 74, 127
1, 275917, Note_off_c, 1, 48, 0
1, 275920, Note_on_c, 1, 47, 127
1, 276086, Note_off_c, 1, 74, 0
1, 276086, Note_off_c, 1, 47, 0
1, 276089, Note_on_c, 1, 48, 127
1, 276089, Note_on_c, 1, 76, 127
1, 276255, Note_off_c, 1, 48, 0
1, 276257, Note_on_c, 1, 52, 127
1, 276423, Note_off_c, 1, 52, 0
1, 276424, Note_off_c, 1, 76, 0
1, 276426, Note_on_c, 1, 50, 127
1, 276426, Note_on_c, 1, 78, 127
1, 276592, Note_off_c, 1, 50, 0
1, 276595, Note_on_c, 1, 48, 127
1, 276761, Note_off_c, 1, 78, 0
1, 276761, Note_off_c, 1, 48, 0
1, 276764, Note_on_c, 1, 47, 127
1, 276764, Note_on_c, 1, 79, 127
1, 276930, Note_off_c, 1, 47, 0
1, 276933, Note_on_c, 1, 52, 127
1, 277099, Note_off_c, 1, 79, 0
1, 277099, Note_off_c, 1, 52, 0
1, 277102, Note_on_c, 1, 50, 127
1, 277102, Note_on_c, 1, 78, 127
1, 277268, Note_off_c, 1, 50, 0
1, 277271, Note_on_c, 1, 48, 127
1, 277437, Note_off_c, 1, 78, 0
1, 277437, Note_off_c, 1, 48, 0
1, 277440, Note_on_c, 1, 47, 127
1, 277440, Note_on_c, 1, 79, 127
1, 277606, Note_off_c, 1, 47, 0
1, 277609, Note_on_c, 1, 45, 127
1, 277775, Note_off_c, 1, 79, 0
1, 277775, Note_off_c, 1, 45, 0
1, 277778, Note_on_c, 1, 43, 127
1, 277778, Note_on_c, 1, 83, 127
1, 277944, Note_off_c, 1, 43, 0
1, 277947, Note_on_c, 1, 42, 127
1, 278113, Note_off_c, 1, 83, 0
1, 278113, Note_off_c, 1, 42, 0
1, 278116, Note_on_c, 1, 43, 127
1, 278116, Note_on_c, 1, 76, 127
1, 278282, Note_off_c, 1, 43, 0
1, 278284, Note_on_c, 1, 47, 127
1, 278450, Note_off_c, 1, 47, 0
1, 278451, Note_off_c, 1, 76, 0
1, 278453, Note_on_c, 1, 52, 127
1, 278453, Note_on_c, 1, 79, 127
1, 278619, Note_off_c, 1, 52, 0
1, 278622, Note_on_c, 1, 55, 127
1, 278788, Note_off_c, 1, 79, 0
1, 278788, Note_off_c, 1, 55, 0
1, 278791, Note_on_c, 1, 45, 127
1, 278791, Note_on_c, 1, 72, 127
1, 278957, Note_off_c, 1, 45, 0
1, 278960, Note_on_c, 1, 43, 127
1, 279126, Note_off_c, 1, 72, 0
1, 279126, Note_off_c, 1, 43, 0
1, 279129, Note_on_c, 1, 45, 127
1, 279129, Note_on_c, 1, 79, 127
1, 279295, Note_off_c, 1, 45, 0
1, 279298, Note_on_c, 1, 47, 127
1, 279464, Note_off_c, 1, 79, 0
1, 279464, Note_off_c, 1, 47, 0
1, 279467, Note_on_c, 1, 48, 127
1, 279467, Note_on_c, 1, 78, 127
1, 279633, Note_off_c, 1, 48, 0
1, 279636, Note_on_c, 1, 50, 127
1, 279802, Note_off_c, 1, 78, 0
1, 279802, Note_off_c, 1, 50, 0
1, 279805, Note_on_c, 1, 48, 127
1, 279805, Note_on_c, 1, 81, 127
1, 279971, Note_off_c, 1, 48, 0
1, 279974, Note_on_c, 1, 47, 127
1, 280140, Note_off_c, 1, 81, 0
1, 280140, Note_off_c, 1, 47, 0
1, 280143, Note_on_c, 1, 45, 127
1, 280143, Note_on_c, 1, 75, 127
1, 280309, Note_off_c, 1, 45, 0
1, 280312, Note_on_c, 1, 43, 127
1, 280478, Note_off_c, 1, 75, 0
1, 280478, Note_off_c, 1, 43, 0
1, 280480, Note_on_c, 1, 45, 127
1, 280480, Note_on_c, 1, 76, 127
1, 280646, Note_off_c, 1, 45, 0
1, 280649, Note_on_c, 1, 42, 127
1, 280815, Note_off_c, 1, 76, 0
1, 280815, Note_off_c, 1, 42, 0
1, 280818, Note_on_c, 1, 47, 127
1, 280818, Note_on_c, 1, 76, 127
1, 280984, Note_off_c, 1, 47, 0
1, 280987, Note_on_c, 1, 54, 127
1, 281046, Note_off_c, 1, 76, 0
1, 281047, Note_on_c, 1, 75, 127
1, 281129, Note_off_c, 1, 75, 0
1, 281153, Note_off_c, 1, 54, 0
1, 281156, Note_on_c, 1, 55, 127
1, 281321, Note_off_c, 1, 55, 0
1, 281324, Note_on_c, 1, 57, 127
1, 281490, Note_off_c, 1, 57, 0
1, 281493, Note_on_c, 1, 59, 127
1, 281659, Note_off_c, 1, 59, 0
1, 281662, Note_on_c, 1, 60, 127
1, 281828, Note_off_c, 1, 60, 0
1, 282000, Note_on_c, 1, 73, 127
1, 282166, Note_off_c, 1, 73, 0
1, 282169, Note_on_c, 1, 55, 127
1, 282169, Note_on_c, 1, 71, 127
1, 282335, Note_off_c, 1, 55, 0
1, 282338, Note_on_c, 1, 54, 127
1, 282504, Note_off_c, 1, 54, 0
1, 282506, Note_on_c, 1, 52, 127
1, 282661, Note_off_c, 1, 71, 0
1, 282672, Note_off_c, 1, 52, 0
1, 282675, Note_on_c, 1, 51, 127
1, 282841, Note_off_c, 1, 51, 0
1, 282844, Note_on_c, 1, 52, 127
1, 282844, Note_on_c, 1, 79, 127
1, 283013, Note_on_c, 1, 78, 127
1, 283179, Note_off_c, 1, 52, 0
1, 283179, Note_off_c, 1, 78, 0
1, 283182, Note_on_c, 1, 76, 127
1, 283182, Note_on_c, 1, 54, 127
1, 283348, Note_off_c, 1, 76, 0
1, 283351, Note_on_c, 1, 75, 127
1, 283517, Note_off_c, 1, 54, 0
1, 283517, Note_off_c, 1, 75, 0
1, 283520, Note_on_c, 1, 55, 127
1, 283689, Note_on_c, 1, 71, 127
1, 283855, Note_off_c, 1, 55, 0
1, 283855, Note_off_c, 1, 71, 0
1, 283858, Note_on_c, 1, 72, 127
1, 284024, Note_off_c, 1, 72, 0
1, 284027, Note_on_c, 1, 69, 127
1, 284193, Note_off_c, 1, 69, 0
1, 284196, Note_on_c, 1, 64, 127
1, 284362, Note_off_c, 1, 64, 0
1, 284365, Note_on_c, 1, 66, 127
1, 284531, Note_off_c, 1, 66, 0
1, 284533, Note_on_c, 1, 67, 127
1, 284699, Note_off_c, 1, 67, 0
1, 285040, Note_on_c, 1, 74, 127
1, 285206, Note_off_c, 1, 74, 0
1, 285209, Note_on_c, 1, 45, 127
1, 285375, Note_off_c, 1, 45, 0
1, 285378, Note_on_c, 1, 47, 127
1, 285544, Note_off_c, 1, 47, 0
1, 285547, Note_on_c, 1, 48, 127
1, 285882, Note_off_c, 1, 48, 0
1, 286054, Note_on_c, 1, 77, 127
1, 286220, Note_off_c, 1, 77, 0
1, 286223, Note_on_c, 1, 57, 127
1, 286389, Note_off_c, 1, 57, 0
1, 286392, Note_on_c, 1, 59, 127
1, 286558, Note_off_c, 1, 59, 0
1, 286561, Note_on_c, 1, 60, 127
1, 286714, Note_off_c, 1, 79, 0
1, 286727, Note_off_c, 1, 60, 0
1, 286729, Note_on_c, 1, 57, 127
1, 286729, Note_on_c, 1, 79, 127
1, 286895, Note_off_c, 1, 57, 0
1, 286895, Note_off_c, 1, 79, 0
1, 286898, Note_on_c, 1, 78, 127
1, 286898, Note_on_c, 1, 63, 127
1, 287067, Note_on_c, 1, 72, 127
1, 287233, Note_off_c, 1, 72, 0
1, 287236, Note_on_c, 1, 71, 127
1, 287402, Note_off_c, 1, 71, 0
1, 287405, Note_on_c, 1, 69, 127
1, 287566, Note_off_c, 1, 78, 0
1, 287571, Note_off_c, 1, 63, 0
1, 287571, Note_off_c, 1, 69, 0
1, 287574, Note_on_c, 1, 64, 127
1, 287574, Note_on_c, 1, 67, 127
1, 287743, Note_on_c, 1, 71, 127
1, 287909, Note_off_c, 1, 64, 0
1, 287909, Note_off_c, 1, 71, 0
1, 287912, Note_on_c, 1, 76, 127
1, 287912, Note_on_c, 1, 57, 127
1, 288066, Note_off_c, 1, 67, 0
1, 288245, Note_off_c, 1, 76, 0
1, 288247, Note_off_c, 1, 57, 0
1, 288250, Note_on_c, 1, 59, 127
1, 288250, Note_on_c, 1, 66, 127
1, 288419, Note_on_c, 1, 69, 127
1, 288585, Note_off_c, 1, 59, 0
1, 288585, Note_off_c, 1, 69, 0
1, 288588, Note_on_c, 1, 76, 127
1, 288588, Note_on_c, 1, 47, 127
1, 288754, Note_off_c, 1, 76, 0
1, 288756, Note_on_c, 1, 75, 127
1, 288918, Note_off_c, 1, 66, 0
1, 288922, Note_off_c, 1, 75, 0
1, 288923, Note_off_c, 1, 47, 0
1, 288925, Note_on_c, 1, 40, 127
1, 288925, Note_on_c, 1, 76, 127
1, 289094, Note_on_c, 1, 72, 127
1, 289260, Note_off_c, 1, 72, 0
1, 289263, Note_on_c, 1, 71, 127
1, 289429, Note_off_c, 1, 71, 0
1, 289432, Note_on_c, 1, 69, 127
1, 289598, Note_off_c, 1, 69, 0
1, 289601, Note_on_c, 1, 68, 127
1, 289683, Note_off_c, 1, 68, 0
1, 289686, Note_on_c, 1, 66, 127
1, 289767, Note_off_c, 1, 40, 0
1, 289768, Note_off_c, 1, 66, 0
1, 289770, Note_on_c, 1, 63, 127
1, 289936, Note_off_c, 1, 63, 0
1, 289939, Note_on_c, 1, 64, 127
1, 290105, Note_off_c, 1, 64, 0
1, 290108, Note_on_c, 1, 59, 127
1, 290274, Note_off_c, 1, 59, 0
1, 290277, Note_on_c, 1, 56, 127
1, 290443, Note_off_c, 1, 56, 0
1, 290446, Note_on_c, 1, 52, 127
1, 290612, Note_off_c, 1, 52, 0
1, 290784, Note_on_c, 1, 50, 127
1, 290947, Note_off_c, 1, 76, 0
1, 290950, Note_off_c, 1, 50, 0
1, 290952, Note_on_c, 1, 76, 127
1, 290952, Note_on_c, 1, 49, 127
1, 291034, Note_off_c, 1, 76, 0
1, 291037, Note_on_c, 1, 74, 127
1, 291119, Note_off_c, 1, 74, 0
1, 291287, Note_off_c, 1, 49, 0
1, 291290, Note_on_c, 1, 52, 127
1, 291625, Note_off_c, 1, 52, 0
1, 291628, Note_on_c, 1, 73, 127
1, 291628, Note_on_c, 1, 57, 127
1, 291794, Note_off_c, 1, 73, 0
1, 291797, Note_on_c, 1, 71, 127
1, 291963, Note_off_c, 1, 57, 0
1, 291963, Note_off_c, 1, 71, 0
1, 291966, Note_on_c, 1, 69, 127
1, 291966, Note_on_c, 1, 55, 127
1, 292132, Note_off_c, 1, 69, 0
1, 292135, Note_on_c, 1, 82, 127
1, 292301, Note_off_c, 1, 55, 0
1, 292301, Note_off_c, 1, 82, 0
1, 292304, Note_on_c, 1, 81, 127
1, 292304, Note_on_c, 1, 53, 127
1, 292470, Note_off_c, 1, 81, 0
1, 292473, Note_on_c, 1, 79, 127
1, 292639, Note_off_c, 1, 53, 0
1, 292639, Note_off_c, 1, 79, 0
1, 292642, Note_on_c, 1, 77, 127
1, 292642, Note_on_c, 1, 52, 127
1, 292808, Note_off_c, 1, 77, 0
1, 292811, Note_on_c, 1, 79, 127
1, 292893, Note_off_c, 1, 79, 0
1, 292895, Note_on_c, 1, 76, 127
1, 292977, Note_off_c, 1, 52, 0
1, 292977, Note_off_c, 1, 76, 0
1, 292979, Note_on_c, 1, 76, 127
1, 292979, Note_on_c, 1, 50, 127
1, 293120, Note_on_c, 1, 77, 127
1, 293145, Note_off_c, 1, 76, 0
1, 293203, Note_off_c, 1, 77, 0
1, 293314, Note_off_c, 1, 50, 0
1, 293317, Note_on_c, 1, 49, 127
1, 293652, Note_off_c, 1, 49, 0
1, 293655, Note_on_c, 1, 74, 127
1, 293655, Note_on_c, 1, 50, 127
1, 293821, Note_off_c, 1, 74, 0
1, 293824, Note_on_c, 1, 72, 127
1, 293990, Note_off_c, 1, 50, 0
1, 293990, Note_off_c, 1, 72, 0
1, 293993, Note_on_c, 1, 71, 127
1, 293993, Note_on_c, 1, 52, 127
1, 294159, Note_off_c, 1, 71, 0
1, 294162, Note_on_c, 1, 69, 127
1, 294328, Note_off_c, 1, 52, 0
1, 294328, Note_off_c, 1, 69, 0
1, 294331, Note_on_c, 1, 68, 127
1, 294331, Note_on_c, 1, 53, 127
1, 294497, Note_off_c, 1, 68, 0
1, 294500, Note_on_c, 1, 69, 127
1, 294666, Note_off_c, 1, 53, 0
1, 294666, Note_off_c, 1, 69, 0
1, 294669, Note_on_c, 1, 71, 127
1, 294669, Note_on_c, 1, 50, 127
1, 294835, Note_off_c, 1, 71, 0
1, 294838, Note_on_c, 1, 72, 127
1, 295004, Note_off_c, 1, 50, 0
1, 295004, Note_off_c, 1, 72, 0
1, 295007, Note_on_c, 1, 74, 127
1, 295007, Note_on_c, 1, 47, 127
1, 295173, Note_off_c, 1, 74, 0
1, 295175, Note_on_c, 1, 77, 127
1, 295341, Note_off_c, 1, 77, 0
1, 295342, Note_off_c, 1, 47, 0
1, 295344, Note_on_c, 1, 76, 127
1, 295344, Note_on_c, 1, 44, 127
1, 295510, Note_off_c, 1, 76, 0
1, 295513, Note_on_c, 1, 74, 127
1, 295679, Note_off_c, 1, 44, 0
1, 295679, Note_off_c, 1, 74, 0
1, 295682, Note_on_c, 1, 72, 127
1, 295682, Note_on_c, 1, 45, 127
1, 295848, Note_off_c, 1, 72, 0
1, 295851, Note_on_c, 1, 68, 127
1, 296017, Note_off_c, 1, 45, 0
1, 296017, Note_off_c, 1, 68, 0
1, 296020, Note_on_c, 1, 69, 127
1, 296020, Note_on_c, 1, 48, 127
1, 296186, Note_off_c, 1, 69, 0
1, 296189, Note_on_c, 1, 66, 127
1, 296355, Note_off_c, 1, 48, 0
1, 296355, Note_off_c, 1, 66, 0
1, 296358, Note_on_c, 1, 63, 127
1, 296358, Note_on_c, 1, 42, 127
1, 296524, Note_off_c, 1, 63, 0
1, 296527, Note_on_c, 1, 72, 127
1, 296693, Note_off_c, 1, 42, 0
1, 296693, Note_off_c, 1, 72, 0
1, 296696, Note_on_c, 1, 71, 127
1, 296696, Note_on_c, 1, 47, 127
1, 296830, Note_on_c, 1, 72, 127
1, 296862, Note_off_c, 1, 71, 0
1, 296925, Note_off_c, 1, 72, 0
1, 296931, Note_on_c, 1, 69, 127
1, 297027, Note_off_c, 1, 69, 0
1, 297030, Note_off_c, 1, 47, 0
1, 297033, Note_on_c, 1, 40, 127
1, 297033, Note_on_c, 1, 69, 127
1, 297199, Note_off_c, 1, 40, 0
1, 297201, Note_on_c, 1, 47, 127
1, 297286, Note_on_c, 1, 68, 127
1, 297288, Note_off_c, 1, 69, 0
1, 297368, Note_off_c, 1, 47, 0
1, 297369, Note_off_c, 1, 68, 0
1, 297371, Note_on_c, 1, 48, 127
1, 297538, Note_off_c, 1, 48, 0
1, 297541, Note_on_c, 1, 50, 127
1, 297707, Note_off_c, 1, 50, 0
1, 297710, Note_on_c, 1, 52, 127
1, 297876, Note_off_c, 1, 52, 0
1, 297879, Note_on_c, 1, 51, 127
1, 298045, Note_off_c, 1, 51, 0
1, 298048, Note_on_c, 1, 52, 127
1, 298048, Note_on_c, 1, 66, 127
1, 298214, Note_off_c, 1, 52, 0
1, 298217, Note_on_c, 1, 54, 127
1, 298383, Note_off_c, 1, 66, 0
1, 298383, Note_off_c, 1, 54, 0
1, 298386, Note_on_c, 1, 56, 127
1, 298386, Note_on_c, 1, 64, 127
1, 298552, Note_off_c, 1, 56, 0
1, 298555, Note_on_c, 1, 52, 127
1, 298721, Note_off_c, 1, 64, 0
1, 298721, Note_off_c, 1, 52, 0
1, 298724, Note_on_c, 1, 59, 127
1, 298724, Note_on_c, 1, 66, 127
1, 298890, Note_off_c, 1, 59, 0
1, 298893, Note_on_c, 1, 50, 127
1, 299059, Note_off_c, 1, 66, 0
1, 299059, Note_off_c, 1, 50, 0
1, 299062, Note_on_c, 1, 49, 127
1, 299062, Note_on_c, 1, 67, 127
1, 299228, Note_off_c, 1, 49, 0
1, 299231, Note_on_c, 1, 52, 127
1, 299397, Note_off_c, 1, 52, 0
1, 299399, Note_on_c, 1, 45, 127
1, 299566, Note_off_c, 1, 67, 0
1, 299568, Note_on_c, 1, 66, 127
1, 299734, Note_off_c, 1, 66, 0
1, 299737, Note_on_c, 1, 64, 127
1, 299903, Note_off_c, 1, 64, 0
1, 299997, Note_off_c, 1, 45, 0
1, 300075, Note_on_c, 1, 67, 127
1, 300075, Note_on_c, 1, 57, 127
1, 300241, Note_off_c, 1, 67, 0
1, 300244, Note_on_c, 1, 71, 127
1, 300410, Note_off_c, 1, 57, 0
1, 300410, Note_off_c, 1, 71, 0
1, 300413, Note_on_c, 1, 69, 127
1, 300413, Note_on_c, 1, 59, 127
1, 300579, Note_off_c, 1, 69, 0
1, 300582, Note_on_c, 1, 67, 127
1, 300748, Note_off_c, 1, 59, 0
1, 300748, Note_off_c, 1, 67, 0
1, 300751, Note_on_c, 1, 66, 127
1, 300751, Note_on_c, 1, 61, 127
1, 300885, Note_on_c, 1, 67, 127
1, 300917, Note_off_c, 1, 66, 0
1, 300980, Note_off_c, 1, 67, 0
1, 300986, Note_on_c, 1, 64, 127
1, 301082, Note_off_c, 1, 64, 0
1, 301085, Note_off_c, 1, 61, 0
1, 301088, Note_on_c, 1, 66, 127
1, 301088, Note_on_c, 1, 62, 127
1, 301254, Note_off_c, 1, 66, 0
1, 301257, Note_on_c, 1, 69, 127
1, 301423, Note_off_c, 1, 62, 0
1, 301423, Note_off_c, 1, 69, 0
1, 301425, Note_on_c, 1, 71, 127
1, 301425, Note_on_c, 1, 60, 127
1, 301591, Note_off_c, 1, 71, 0
1, 301594, Note_on_c, 1, 72, 127
1, 301760, Note_off_c, 1, 60, 0
1, 301760, Note_off_c, 1, 72, 0
1, 301763, Note_on_c, 1, 74, 127
1, 301763, Note_on_c, 1, 59, 127
1, 301929, Note_off_c, 1, 74, 0
1, 301932, Note_on_c, 1, 76, 127
1, 302098, Note_off_c, 1, 59, 0
1, 302098, Note_off_c, 1, 76, 0
1, 302101, Note_on_c, 1, 62, 127
1, 302101, Note_on_c, 1, 77, 127
1, 302270, Note_on_c, 1, 69, 127
1, 302436, Note_off_c, 1, 62, 0
1, 302436, Note_off_c, 1, 69, 0
1, 302439, Note_on_c, 1, 68, 127
1, 302439, Note_on_c, 1, 64, 127
1, 302593, Note_off_c, 1, 77, 0
1, 302772, Note_off_c, 1, 68, 0
1, 302774, Note_off_c, 1, 64, 0
1, 302777, Note_on_c, 1, 76, 127
1, 302777, Note_on_c, 1, 62, 127
1, 302943, Note_off_c, 1, 76, 0
1, 302946, Note_on_c, 1, 74, 127
1, 303112, Note_off_c, 1, 62, 0
1, 303112, Note_off_c, 1, 74, 0
1, 303115, Note_on_c, 1, 60, 127
1, 303115, Note_on_c, 1, 76, 127
1, 303286, Note_on_c, 1, 71, 127
1, 303454, Note_off_c, 1, 60, 0
1, 303454, Note_off_c, 1, 71, 0
1, 303457, Note_on_c, 1, 57, 127
1, 303457, Note_on_c, 1, 72, 127
1, 303625, Note_off_c, 1, 57, 0
1, 303625, Note_off_c, 1, 72, 0
1, 303628, Note_on_c, 1, 59, 127
1, 303628, Note_on_c, 1, 68, 127
1, 303796, Note_off_c, 1, 59, 0
1, 303796, Note_off_c, 1, 68, 0
1, 303799, Note_on_c, 1, 69, 127
1, 303969, Note_off_c, 1, 76, 0
1, 303970, Note_on_c, 1, 77, 127
1, 304138, Note_off_c, 1, 77, 0
1, 304141, Note_on_c, 1, 62, 127
1, 304318, Note_on_c, 1, 74, 127
1, 304487, Note_off_c, 1, 69, 0
1, 304492, Note_off_c, 1, 62, 0
1, 304492, Note_off_c, 1, 74, 0
1, 304494, Note_on_c, 1, 74, 127
1, 304494, Note_on_c, 1, 64, 127
1, 304580, Note_off_c, 1, 74, 0
1, 304582, Note_on_c, 1, 72, 127
1, 304668, Note_off_c, 1, 72, 0
1, 304846, Note_off_c, 1, 64, 0
1, 304848, Note_on_c, 1, 71, 127
1, 304848, Note_on_c, 1, 52, 127
1, 305023, Note_off_c, 1, 71, 0
1, 305025, Note_on_c, 1, 69, 127
1, 305200, Note_off_c, 1, 52, 0
1, 305200, Note_off_c, 1, 69, 0
1, 305202, Note_on_c, 1, 57, 127
1, 305202, Note_on_c, 1, 69, 127
1, 305391, Note_on_c, 1, 64, 127
1, 305577, Note_off_c, 1, 64, 0
1, 305579, Note_on_c, 1, 60, 127
1, 305765, Note_off_c, 1, 60, 0
1, 305953, Note_off_c, 1, 57, 0
1, 306161, Note_on_c, 1, 52, 127
1, 306363, Note_off_c, 1, 52, 0
1, 306366, Note_on_c, 1, 48, 127
1, 306568, Note_off_c, 1, 48, 0
1, 306898, Note_on_c, 1, 45, 127
1, 307590, Note_off_c, 1, 69, 0
1, 308791, Note_off_c, 1, 45, 0
1, 308901, Note_on_c, 1, 76, 127
1, 308901, Note_on_c, 1, 45, 127
1, 308950, Note_off_c, 1, 76, 0
1, 308962, Note_on_c, 1, 74, 127
1, 309011, Note_off_c, 1, 74, 0
1, 309101, Note_off_c, 1, 45, 0
1, 309103, Note_on_c, 1, 48, 127
1, 309304, Note_off_c, 1, 48, 0
1, 309306, Note_on_c, 1, 52, 127
1, 309507, Note_off_c, 1, 52, 0
1, 309508, Note_on_c, 1, 57, 127
1, 309709, Note_off_c, 1, 57, 0
1, 310117, Note_on_c, 1, 77, 127
1, 310117, Note_on_c, 1, 47, 127
1, 310196, Note_on_c, 1, 76, 127
1, 310217, Note_off_c, 1, 77, 0
1, 310276, Note_on_c, 1, 74, 127
1, 310296, Note_off_c, 1, 76, 0
1, 310319, Note_off_c, 1, 47, 0
1, 310321, Note_on_c, 1, 50, 127
1, 310377, Note_off_c, 1, 74, 0
1, 310523, Note_off_c, 1, 50, 0
1, 310525, Note_on_c, 1, 52, 127
1, 310726, Note_off_c, 1, 52, 0
1, 310728, Note_on_c, 1, 56, 127
1, 310929, Note_off_c, 1, 56, 0
1, 311337, Note_on_c, 1, 64, 127
1, 311337, Note_on_c, 1, 48, 127
1, 311470, Note_off_c, 1, 64, 0
1, 311472, Note_on_c, 1, 66, 127
1, 311605, Note_off_c, 1, 66, 0
1, 311607, Note_on_c, 1, 68, 127
1, 311740, Note_off_c, 1, 68, 0
1, 311741, Note_on_c, 1, 69, 127
1, 311741, Note_on_c, 1, 52, 127
1, 311874, Note_off_c, 1, 69, 0
1, 311876, Note_on_c, 1, 71, 127
1, 312009, Note_off_c, 1, 71, 0
1, 312011, Note_on_c, 1, 72, 127
1, 312144, Note_off_c, 1, 52, 0
1, 312144, Note_off_c, 1, 72, 0
1, 312145, Note_off_c, 1, 48, 0
1, 312146, Note_on_c, 1, 74, 127
1, 312146, Note_on_c, 1, 56, 127
1, 312146, Note_on_c, 1, 47, 127
1, 312279, Note_off_c, 1, 74, 0
1, 312281, Note_on_c, 1, 72, 127
1, 312414, Note_off_c, 1, 72, 0
1, 312416, Note_on_c, 1, 71, 127
1, 312549, Note_off_c, 1, 56, 0
1, 312549, Note_off_c, 1, 47, 0
1, 312549, Note_off_c, 1, 71, 0
1, 312551, Note_on_c, 1, 71, 127
1, 312551, Note_on_c, 1, 57, 127
1, 312551, Note_on_c, 1, 45, 127
1, 312684, Note_off_c, 1, 71, 0
1, 312684, Note_off_c, 1, 57, 0
1, 312684, Note_off_c, 1, 45, 0
1, 312686, Note_on_c, 1, 72, 127
1, 312686, Note_on_c, 1, 47, 127
1, 312743, Note_on_c, 1, 71, 127
1, 312751, Note_off_c, 1, 72, 0
1, 312808, Note_off_c, 1, 71, 0
1, 312818, Note_off_c, 1, 47, 0
1, 312820, Note_on_c, 1, 48, 127
1, 312953, Note_off_c, 1, 48, 0
1, 312955, Note_on_c, 1, 50, 127
1, 313088, Note_off_c, 1, 50, 0
1, 313090, Note_on_c, 1, 52, 127
1, 313223, Note_off_c, 1, 52, 0
1, 313225, Note_on_c, 1, 53, 127
1, 313359, Note_off_c, 1, 53, 0
1, 313361, Note_on_c, 1, 55, 127
1, 313361, Note_on_c, 1, 71, 127
1, 313494, Note_off_c, 1, 55, 0
1, 313496, Note_on_c, 1, 53, 127
1, 313629, Note_off_c, 1, 53, 0
1, 313631, Note_on_c, 1, 52, 127
1, 313719, Note_off_c, 1, 71, 0
1, 313764, Note_off_c, 1, 52, 0
1, 313765, Note_on_c, 1, 69, 127
1, 313765, Note_on_c, 1, 53, 127
1, 313898, Note_off_c, 1, 69, 0
1, 313900, Note_on_c, 1, 71, 127
1, 314033, Note_off_c, 1, 71, 0
1, 314035, Note_on_c, 1, 73, 127
1, 314168, Note_off_c, 1, 73, 0
1, 314170, Note_on_c, 1, 74, 127
1, 314170, Note_on_c, 1, 57, 127
1, 314303, Note_off_c, 1, 74, 0
1, 314305, Note_on_c, 1, 76, 127
1, 314438, Note_off_c, 1, 76, 0
1, 314440, Note_on_c, 1, 77, 127
1, 314573, Note_off_c, 1, 53, 0
1, 314573, Note_off_c, 1, 57, 0
1, 314573, Note_off_c, 1, 77, 0
1, 314575, Note_on_c, 1, 79, 127
1, 314575, Note_on_c, 1, 61, 127
1, 314575, Note_on_c, 1, 52, 127
1, 314708, Note_off_c, 1, 79, 0
1, 314710, Note_on_c, 1, 77, 127
1, 314843, Note_off_c, 1, 77, 0
1, 314845, Note_on_c, 1, 76, 127
1, 314978, Note_off_c, 1, 61, 0
1, 314978, Note_off_c, 1, 52, 0
1, 314978, Note_off_c, 1, 76, 0
1, 314980, Note_on_c, 1, 77, 127
1, 314980, Note_on_c, 1, 62, 127
1, 314980, Note_on_c, 1, 50, 127
1, 315042, Note_on_c, 1, 76, 127
1, 315046, Note_off_c, 1, 77, 0
1, 315107, Note_off_c, 1, 76, 0
1, 315113, Note_off_c, 1, 62, 0
1, 315113, Note_off_c, 1, 50, 0
1, 315115, Note_on_c, 1, 52, 127
1, 315248, Note_off_c, 1, 52, 0
1, 315250, Note_on_c, 1, 53, 127
1, 315383, Note_off_c, 1, 53, 0
1, 315385, Note_on_c, 1, 55, 127
1, 315518, Note_off_c, 1, 55, 0
1, 315520, Note_on_c, 1, 57, 127
1, 315653, Note_off_c, 1, 57, 0
1, 315654, Note_on_c, 1, 59, 127
1, 315787, Note_off_c, 1, 59, 0
1, 315789, Note_on_c, 1, 60, 127
1, 315789, Note_on_c, 1, 76, 127
1, 315922, Note_off_c, 1, 60, 0
1, 315924, Note_on_c, 1, 59, 127
1, 316057, Note_off_c, 1, 59, 0
1, 316059, Note_on_c, 1, 57, 127
1, 316192, Note_off_c, 1, 57, 0
1, 316194, Note_on_c, 1, 65, 127
1, 316598, Note_off_c, 1, 76, 0
1, 316598, Note_off_c, 1, 65, 0
1, 316600, Note_on_c, 1, 74, 127
1, 316600, Note_on_c, 1, 53, 127
1, 316801, Note_off_c, 1, 74, 0
1, 316803, Note_on_c, 1, 72, 127
1, 317004, Note_off_c, 1, 53, 0
1, 317004, Note_off_c, 1, 72, 0
1, 317006, Note_on_c, 1, 71, 127
1, 317006, Note_on_c, 1, 65, 127
1, 317207, Note_off_c, 1, 71, 0
1, 317209, Note_on_c, 1, 69, 127
1, 317410, Note_off_c, 1, 65, 0
1, 317410, Note_off_c, 1, 69, 0
1, 317412, Note_on_c, 1, 69, 127
1, 317412, Note_on_c, 1, 64, 127
1, 317613, Note_off_c, 1, 69, 0
1, 317615, Note_on_c, 1, 68, 127
1, 317680, Note_off_c, 1, 68, 0
1, 317815, Note_off_c, 1, 64, 0
1, 317816, Note_on_c, 1, 59, 127
1, 318017, Note_off_c, 1, 59, 0
1, 318019, Note_on_c, 1, 57, 127
1, 318220, Note_off_c, 1, 57, 0
1, 318222, Note_on_c, 1, 56, 127
1, 318423, Note_off_c, 1, 56, 0
1, 318425, Note_on_c, 1, 54, 127
1, 318626, Note_off_c, 1, 54, 0
1, 318628, Note_on_c, 1, 52, 127
1, 318628, Note_on_c, 1, 71, 127
1, 318694, Note_off_c, 1, 52, 0
1, 318696, Note_on_c, 1, 50, 127
1, 318762, Note_off_c, 1, 50, 0
1, 318830, Note_off_c, 1, 71, 0
1, 318832, Note_on_c, 1, 68, 127
1, 319033, Note_off_c, 1, 68, 0
1, 319035, Note_on_c, 1, 64, 127
1, 319236, Note_off_c, 1, 64, 0
1, 319644, Note_on_c, 1, 74, 127
1, 319845, Note_off_c, 1, 74, 0
1, 319847, Note_on_c, 1, 52, 127
1, 319847, Note_on_c, 1, 72, 127
1, 319913, Note_off_c, 1, 52, 0
1, 319916, Note_on_c, 1, 50, 127
1, 319982, Note_off_c, 1, 50, 0
1, 320049, Note_off_c, 1, 72, 0
1, 320051, Note_on_c, 1, 69, 127
1, 320252, Note_off_c, 1, 69, 0
1, 320253, Note_on_c, 1, 64, 127
1, 320454, Note_off_c, 1, 64, 0
1, 320862, Note_on_c, 1, 76, 127
1, 321063, Note_off_c, 1, 76, 0
1, 321065, Note_on_c, 1, 40, 127
1, 321065, Note_on_c, 1, 74, 127
1, 321065, Note_on_c, 1, 68, 127
1, 321065, Note_on_c, 1, 71, 127
1, 321198, Note_off_c, 1, 40, 0
1, 321200, Note_on_c, 1, 42, 127
1, 321333, Note_off_c, 1, 42, 0
1, 321335, Note_on_c, 1, 44, 127
1, 321468, Note_off_c, 1, 74, 0
1, 321468, Note_off_c, 1, 68, 0
1, 321468, Note_off_c, 1, 71, 0
1, 321468, Note_off_c, 1, 44, 0
1, 321470, Note_on_c, 1, 45, 127
1, 321470, Note_on_c, 1, 69, 127
1, 321470, Note_on_c, 1, 72, 127
1, 321470, Note_on_c, 1, 64, 127
1, 321603, Note_off_c, 1, 45, 0
1, 321605, Note_on_c, 1, 47, 127
1, 321738, Note_off_c, 1, 47, 0
1, 321740, Note_on_c, 1, 48, 127
1, 321873, Note_off_c, 1, 69, 0
1, 321873, Note_off_c, 1, 72, 0
1, 321873, Note_off_c, 1, 64, 0
1, 321873, Note_off_c, 1, 48, 0
1, 321875, Note_on_c, 1, 50, 127
1, 321875, Note_on_c, 1, 68, 127
1, 321875, Note_on_c, 1, 71, 127
1, 321875, Note_on_c, 1, 64, 127
1, 322008, Note_off_c, 1, 50, 0
1, 322010, Note_on_c, 1, 48, 127
1, 322143, Note_off_c, 1, 48, 0
1, 322144, Note_on_c, 1, 47, 127
1, 322277, Note_off_c, 1, 47, 0
1, 322278, Note_off_c, 1, 68, 0
1, 322278, Note_off_c, 1, 71, 0
1, 322278, Note_off_c, 1, 64, 0
1, 322279, Note_on_c, 1, 71, 127
1, 322279, Note_on_c, 1, 76, 127
1, 322279, Note_on_c, 1, 64, 127
1, 322279, Note_on_c, 1, 68, 127
1, 322279, Note_on_c, 1, 47, 127
1, 322683, Note_off_c, 1, 71, 0
1, 322683, Note_off_c, 1, 76, 0
1, 322683, Note_off_c, 1, 64, 0
1, 322683, Note_off_c, 1, 68, 0
1, 322683, Note_off_c, 1, 47, 0
1, 322685, Note_on_c, 1, 48, 127
1, 322685, Note_on_c, 1, 69, 127
1, 322751, Note_off_c, 1, 48, 0
1, 322753, Note_on_c, 1, 47, 127
1, 322819, Note_off_c, 1, 47, 0
1, 322887, Note_off_c, 1, 69, 0
1, 322889, Note_on_c, 1, 68, 127
1, 323090, Note_off_c, 1, 68, 0
1, 323092, Note_on_c, 1, 69, 127
1, 323092, Note_on_c, 1, 47, 127
1, 323293, Note_off_c, 1, 69, 0
1, 323295, Note_on_c, 1, 71, 127
1, 323496, Note_off_c, 1, 47, 0
1, 323496, Note_off_c, 1, 71, 0
1, 323498, Note_on_c, 1, 72, 127
1, 323498, Note_on_c, 1, 45, 127
1, 323631, Note_off_c, 1, 72, 0
1, 323633, Note_on_c, 1, 71, 127
1, 323766, Note_off_c, 1, 71, 0
1, 323768, Note_on_c, 1, 69, 127
1, 323901, Note_off_c, 1, 69, 0
1, 323903, Note_on_c, 1, 67, 127
1, 323903, Note_on_c, 1, 52, 127
1, 324036, Note_off_c, 1, 67, 0
1, 324038, Note_on_c, 1, 65, 127
1, 324171, Note_off_c, 1, 65, 0
1, 324173, Note_on_c, 1, 64, 127
1, 324306, Note_off_c, 1, 52, 0
1, 324306, Note_off_c, 1, 64, 0
1, 324307, Note_on_c, 1, 62, 127
1, 324307, Note_on_c, 1, 53, 127
1, 324440, Note_off_c, 1, 62, 0
1, 324710, Note_off_c, 1, 45, 0
1, 324712, Note_on_c, 1, 47, 127
1, 325115, Note_off_c, 1, 53, 0
1, 325252, Note_on_c, 1, 74, 127
1, 325385, Note_off_c, 1, 74, 0
1, 325387, Note_on_c, 1, 76, 127
1, 325520, Note_off_c, 1, 76, 0
1, 325522, Note_on_c, 1, 77, 127
1, 325522, Note_on_c, 1, 50, 127
1, 325655, Note_off_c, 1, 77, 0
1, 325924, Note_off_c, 1, 47, 0
1, 325925, Note_off_c, 1, 50, 0
1, 325927, Note_on_c, 1, 52, 127
1, 325927, Note_on_c, 1, 79, 127
1, 326128, Note_off_c, 1, 52, 0
1, 326130, Note_on_c, 1, 40, 127
1, 326331, Note_off_c, 1, 79, 0
1, 326331, Note_off_c, 1, 40, 0
1, 326332, Note_on_c, 1, 41, 127
1, 326332, Note_on_c, 1, 64, 127
1, 326332, Note_on_c, 1, 72, 127
1, 326533, Note_off_c, 1, 41, 0
1, 326535, Note_on_c, 1, 53, 127
1, 326736, Note_off_c, 1, 64, 0
1, 326736, Note_off_c, 1, 72, 0
1, 326736, Note_off_c, 1, 53, 0
1, 326738, Note_on_c, 1, 43, 127
1, 326738, Note_on_c, 1, 71, 127
1, 326738, Note_on_c, 1, 62, 127
1, 326939, Note_off_c, 1, 43, 0
1, 326941, Note_on_c, 1, 55, 127
1, 327142, Note_off_c, 1, 71, 0
1, 327142, Note_off_c, 1, 62, 0
1, 327142, Note_off_c, 1, 55, 0
1, 327144, Note_on_c, 1, 48, 127
1, 327144, Note_on_c, 1, 71, 127
1, 327144, Note_on_c, 1, 62, 127
1, 327277, Note_off_c, 1, 48, 0
1, 327279, Note_on_c, 1, 60, 127
1, 327412, Note_off_c, 1, 60, 0
1, 327414, Note_on_c, 1, 59, 127
1, 327547, Note_off_c, 1, 71, 0
1, 327547, Note_off_c, 1, 62, 0
1, 327547, Note_off_c, 1, 59, 0
1, 327549, Note_on_c, 1, 57, 127
1, 327549, Note_on_c, 1, 64, 127
1, 327549, Note_on_c, 1, 72, 127
1, 327682, Note_off_c, 1, 57, 0
1, 327684, Note_on_c, 1, 55, 127
1, 327817, Note_off_c, 1, 55, 0
1, 327819, Note_on_c, 1, 53, 127
1, 327952, Note_off_c, 1, 53, 0
1, 327954, Note_on_c, 1, 52, 127
1, 328087, Note_off_c, 1, 52, 0
1, 328357, Note_off_c, 1, 64, 0
1, 328357, Note_off_c, 1, 72, 0
1, 328358, Note_on_c, 1, 79, 127
1, 328358, Note_on_c, 1, 48, 127
1, 328407, Note_off_c, 1, 79, 0
1, 328419, Note_on_c, 1, 77, 127
1, 328468, Note_off_c, 1, 77, 0
1, 328490, Note_off_c, 1, 48, 0
1, 328492, Note_on_c, 1, 55, 127
1, 328625, Note_off_c, 1, 55, 0
1, 328627, Note_on_c, 1, 53, 127
1, 328760, Note_off_c, 1, 53, 0
1, 328762, Note_on_c, 1, 52, 127
1, 328895, Note_off_c, 1, 52, 0
1, 328897, Note_on_c, 1, 50, 127
1, 329030, Note_off_c, 1, 50, 0
1, 329167, Note_on_c, 1, 47, 127
1, 329300, Note_off_c, 1, 47, 0
1, 329302, Note_on_c, 1, 49, 127
1, 329435, Note_off_c, 1, 49, 0
1, 329572, Note_on_c, 1, 81, 127
1, 329572, Note_on_c, 1, 49, 127
1, 329630, Note_on_c, 1, 79, 127
1, 329637, Note_off_c, 1, 81, 0
1, 329687, Note_on_c, 1, 77, 127
1, 329695, Note_off_c, 1, 79, 0
1, 329704, Note_off_c, 1, 49, 0
1, 329706, Note_on_c, 1, 58, 127
1, 329752, Note_off_c, 1, 77, 0
1, 329839, Note_off_c, 1, 58, 0
1, 329841, Note_on_c, 1, 57, 127
1, 329974, Note_off_c, 1, 57, 0
1, 329976, Note_on_c, 1, 55, 127
1, 330109, Note_off_c, 1, 55, 0
1, 330111, Note_on_c, 1, 53, 127
1, 330244, Note_off_c, 1, 53, 0
1, 330245, Note_on_c, 1, 52, 127
1, 330378, Note_off_c, 1, 52, 0
1, 330380, Note_on_c, 1, 50, 127
1, 330513, Note_off_c, 1, 50, 0
1, 330786, Note_on_c, 1, 82, 127
1, 330786, Note_on_c, 1, 52, 127
1, 330919, Note_off_c, 1, 82, 0
1, 330919, Note_off_c, 1, 52, 0
1, 330921, Note_on_c, 1, 81, 127
1, 330921, Note_on_c, 1, 53, 127
1, 331054, Note_off_c, 1, 81, 0
1, 331054, Note_off_c, 1, 53, 0
1, 331056, Note_on_c, 1, 79, 127
1, 331056, Note_on_c, 1, 55, 127
1, 331189, Note_off_c, 1, 79, 0
1, 331189, Note_off_c, 1, 55, 0
1, 331191, Note_on_c, 1, 77, 127
1, 331191, Note_on_c, 1, 57, 127
1, 331324, Note_off_c, 1, 77, 0
1, 331326, Note_on_c, 1, 76, 127
1, 331459, Note_off_c, 1, 76, 0
1, 331461, Note_on_c, 1, 74, 127
1, 331594, Note_off_c, 1, 57, 0
1, 331594, Note_off_c, 1, 74, 0
1, 331596, Note_on_c, 1, 73, 127
1, 331596, Note_on_c, 1, 45, 127
1, 331729, Note_off_c, 1, 73, 0
1, 331731, Note_on_c, 1, 74, 127
1, 331864, Note_off_c, 1, 74, 0
1, 331866, Note_on_c, 1, 76, 127
1, 331999, Note_off_c, 1, 45, 0
1, 331999, Note_off_c, 1, 76, 0
1, 332001, Note_on_c, 1, 50, 127
1, 332001, Note_on_c, 1, 76, 127
1, 332134, Note_off_c, 1, 50, 0
1, 332135, Note_on_c, 1, 52, 127
1, 332268, Note_off_c, 1, 52, 0
1, 332270, Note_on_c, 1, 53, 127
1, 332403, Note_off_c, 1, 53, 0
1, 332404, Note_off_c, 1, 76, 0
1, 332405, Note_on_c, 1, 77, 127
1, 332405, Note_on_c, 1, 55, 127
1, 332455, Note_off_c, 1, 77, 0
1, 332456, Note_on_c, 1, 76, 127
1, 332506, Note_off_c, 1, 76, 0
1, 332538, Note_off_c, 1, 55, 0
1, 332540, Note_on_c, 1, 57, 127
1, 332673, Note_off_c, 1, 57, 0
1, 332675, Note_on_c, 1, 59, 127
1, 332808, Note_off_c, 1, 59, 0
1, 332810, Note_on_c, 1, 60, 127
1, 332810, Note_on_c, 1, 76, 127
1, 332943, Note_off_c, 1, 60, 0
1, 332945, Note_on_c, 1, 59, 127
1, 333078, Note_off_c, 1, 59, 0
1, 333080, Note_on_c, 1, 57, 127
1, 333213, Note_off_c, 1, 76, 0
1, 333213, Note_off_c, 1, 57, 0
1, 333215, Note_on_c, 1, 68, 127
1, 333215, Note_on_c, 1, 59, 127
1, 333348, Note_off_c, 1, 68, 0
1, 333348, Note_off_c, 1, 59, 0
1, 333350, Note_on_c, 1, 69, 127
1, 333350, Note_on_c, 1, 60, 127
1, 333483, Note_off_c, 1, 69, 0
1, 333483, Note_off_c, 1, 60, 0
1, 333485, Note_on_c, 1, 71, 127
1, 333485, Note_on_c, 1, 62, 127
1, 333618, Note_off_c, 1, 71, 0
1, 333618, Note_off_c, 1, 62, 0
1, 333620, Note_on_c, 1, 72, 127
1, 333620, Note_on_c, 1, 64, 127
1, 333753, Note_off_c, 1, 72, 0
1, 333753, Note_off_c, 1, 64, 0
1, 333755, Note_on_c, 1, 74, 127
1, 333755, Note_on_c, 1, 66, 127
1, 333888, Note_off_c, 1, 74, 0
1, 333888, Note_off_c, 1, 66, 0
1, 333890, Note_on_c, 1, 76, 127
1, 333890, Note_on_c, 1, 68, 127
1, 334023, Note_off_c, 1, 76, 0
1, 334023, Note_off_c, 1, 68, 0
1, 334025, Note_on_c, 1, 77, 127
1, 334025, Note_on_c, 1, 69, 127
1, 334158, Note_off_c, 1, 77, 0
1, 334158, Note_off_c, 1, 69, 0
1, 334159, Note_on_c, 1, 76, 127
1, 334159, Note_on_c, 1, 67, 127
1, 334292, Note_off_c, 1, 76, 0
1, 334292, Note_off_c, 1, 67, 0
1, 334294, Note_on_c, 1, 74, 127
1, 334294, Note_on_c, 1, 65, 127
1, 334427, Note_off_c, 1, 74, 0
1, 334427, Note_off_c, 1, 65, 0
1, 334429, Note_on_c, 1, 64, 127
1, 334429, Note_on_c, 1, 81, 127
1, 334562, Note_off_c, 1, 64, 0
1, 334564, Note_on_c, 1, 62, 127
1, 334631, Note_off_c, 1, 81, 0
1, 334632, Note_on_c, 1, 80, 127
1, 334698, Note_off_c, 1, 62, 0
1, 334698, Note_off_c, 1, 80, 0
1, 334700, Note_on_c, 1, 81, 127
1, 334700, Note_on_c, 1, 60, 127
1, 334766, Note_off_c, 1, 81, 0
1, 334768, Note_on_c, 1, 80, 127
1, 334834, Note_off_c, 1, 60, 0
1, 334834, Note_off_c, 1, 80, 0
1, 334836, Note_on_c, 1, 81, 127
1, 334836, Note_on_c, 1, 59, 127
1, 334902, Note_off_c, 1, 81, 0
1, 334904, Note_on_c, 1, 80, 127
1, 334970, Note_off_c, 1, 59, 0
1, 334970, Note_off_c, 1, 80, 0
1, 334972, Note_on_c, 1, 81, 127
1, 334972, Note_on_c, 1, 60, 127
1, 335038, Note_off_c, 1, 81, 0
1, 335040, Note_on_c, 1, 80, 127
1, 335106, Note_off_c, 1, 60, 0
1, 335106, Note_off_c, 1, 80, 0
1, 335108, Note_on_c, 1, 78, 127
1, 335108, Note_on_c, 1, 62, 127
1, 335174, Note_off_c, 1, 78, 0
1, 335176, Note_on_c, 1, 80, 127
1, 335242, Note_off_c, 1, 62, 0
1, 335242, Note_off_c, 1, 80, 0
1, 335244, Note_on_c, 1, 60, 127
1, 335244, Note_on_c, 1, 81, 127
1, 335377, Note_off_c, 1, 60, 0
1, 335379, Note_on_c, 1, 59, 127
1, 335512, Note_off_c, 1, 59, 0
1, 335514, Note_on_c, 1, 57, 127
1, 335647, Note_off_c, 1, 57, 0
1, 335649, Note_on_c, 1, 53, 127
1, 335782, Note_off_c, 1, 53, 0
1, 335784, Note_on_c, 1, 52, 127
1, 335850, Note_off_c, 1, 81, 0
1, 335918, Note_off_c, 1, 52, 0
1, 335920, Note_on_c, 1, 51, 127
1, 336053, Note_off_c, 1, 51, 0
1, 336055, Note_on_c, 1, 52, 127
1, 336055, Note_on_c, 1, 76, 127
1, 336114, Note_on_c, 1, 50, 127
1, 336122, Note_off_c, 1, 52, 0
1, 336181, Note_off_c, 1, 50, 0
1, 336262, Note_off_c, 1, 76, 0
1, 336263, Note_on_c, 1, 74, 127
1, 336470, Note_off_c, 1, 74, 0
1, 336471, Note_on_c, 1, 72, 127
1, 336471, Note_on_c, 1, 40, 127
1, 336678, Note_off_c, 1, 72, 0
1, 336679, Note_on_c, 1, 71, 127
1, 336886, Note_off_c, 1, 40, 0
1, 336886, Note_off_c, 1, 71, 0
1, 336887, Note_on_c, 1, 69, 127
1, 336887, Note_on_c, 1, 45, 127
1, 337345, Note_on_c, 1, 48, 127
1, 337573, Note_off_c, 1, 48, 0
1, 337575, Note_on_c, 1, 52, 127
1, 337805, Note_on_c, 1, 57, 127
1, 337819, Note_off_c, 1, 52, 0
1, 339710, Note_off_c, 1, 57, 0
1, 339715, Note_off_c, 1, 69, 0
1, 339715, Note_off_c, 1, 45, 0
1, 340415, Note_on_c, 1, 76, 127
1, 340602, Note_off_c, 1, 76, 0
1, 340603, Note_on_c, 1, 76, 127
1, 340790, Note_off_c, 1, 76, 0
1, 340792, Note_on_c, 1, 74, 127
1, 340979, Note_off_c, 1, 74, 0
1, 340980, Note_on_c, 1, 72, 127
1, 341167, Note_off_c, 1, 72, 0
1, 341169, Note_on_c, 1, 74, 127
1, 341261, Note_off_c, 1, 74, 0
1, 341262, Note_on_c, 1, 72, 127
1, 341354, Note_off_c, 1, 72, 0
1, 341356, Note_on_c, 1, 71, 127
1, 341543, Note_off_c, 1, 71, 0
1, 341545, Note_on_c, 1, 69, 127
1, 341732, Note_off_c, 1, 69, 0
1, 341733, Note_on_c, 1, 69, 127
1, 341922, Note_on_c, 1, 67, 127
1, 342109, Note_off_c, 1, 67, 0
1, 342110, Note_on_c, 1, 65, 127
1, 342297, Note_off_c, 1, 65, 0
1, 342485, Note_off_c, 1, 69, 0
1, 342487, Note_on_c, 1, 64, 127
1, 342674, Note_off_c, 1, 64, 0
1, 342675, Note_on_c, 1, 62, 127
1, 342675, Note_on_c, 1, 69, 127
1, 342862, Note_off_c, 1, 62, 0
1, 342862, Note_off_c, 1, 69, 0
1, 342864, Note_on_c, 1, 62, 127
1, 342864, Note_on_c, 1, 71, 127
1, 342956, Note_off_c, 1, 62, 0
1, 342956, Note_off_c, 1, 71, 0
1, 342958, Note_on_c, 1, 72, 127
1, 342958, Note_on_c, 1, 64, 127
1, 343050, Note_off_c, 1, 72, 0
1, 343050, Note_off_c, 1, 64, 0
1, 343051, Note_on_c, 1, 65, 127
1, 343051, Note_on_c, 1, 74, 127
1, 343238, Note_off_c, 1, 65, 0
1, 343238, Note_off_c, 1, 74, 0
1, 343240, Note_on_c, 1, 72, 127
1, 343240, Note_on_c, 1, 64, 127
1, 343427, Note_off_c, 1, 72, 0
1, 343427, Note_off_c, 1, 64, 0
1, 343428, Note_on_c, 1, 62, 127
1, 343428, Note_on_c, 1, 71, 127
1, 343615, Note_off_c, 1, 62, 0
1, 343615, Note_off_c, 1, 71, 0
1, 343617, Note_on_c, 1, 59, 127
1, 343617, Note_on_c, 1, 68, 127
1, 343804, Note_off_c, 1, 59, 0
1, 343804, Note_off_c, 1, 68, 0
1, 343805, Note_on_c, 1, 69, 127
1, 343805, Note_on_c, 1, 60, 127
1, 343805, Note_on_c, 1, 52, 127
1, 343992, Note_off_c, 1, 69, 0
1, 343992, Note_off_c, 1, 60, 0
1, 343992, Note_off_c, 1, 52, 0
1, 343994, Note_on_c, 1, 69, 127
1, 343994, Note_on_c, 1, 52, 127
1, 343994, Note_on_c, 1, 59, 127
1, 344181, Note_off_c, 1, 69, 0
1, 344181, Note_off_c, 1, 52, 0
1, 344182, Note_on_c, 1, 68, 127
1, 344182, Note_on_c, 1, 50, 127
1, 344366, Note_off_c, 1, 59, 0
1, 344369, Note_off_c, 1, 68, 0
1, 344369, Note_off_c, 1, 50, 0
1, 344371, Note_on_c, 1, 64, 127
1, 344371, Note_on_c, 1, 48, 127
1, 344558, Note_off_c, 1, 64, 0
1, 344558, Note_off_c, 1, 48, 0
1, 344559, Note_on_c, 1, 69, 127
1, 344559, Note_on_c, 1, 48, 127
1, 344651, Note_off_c, 1, 69, 0
1, 344653, Note_on_c, 1, 71, 127
1, 344745, Note_off_c, 1, 48, 0
1, 344745, Note_off_c, 1, 71, 0
1, 344747, Note_on_c, 1, 72, 127
1, 344747, Note_on_c, 1, 47, 127
1, 344808, Note_off_c, 1, 72, 0
1, 344810, Note_on_c, 1, 71, 127
1, 344871, Note_off_c, 1, 71, 0
1, 344934, Note_off_c, 1, 47, 0
1, 344935, Note_on_c, 1, 71, 127
1, 344935, Note_on_c, 1, 45, 127
1, 344996, Note_off_c, 1, 71, 0
1, 344998, Note_on_c, 1, 69, 127
1, 345059, Note_off_c, 1, 69, 0
1, 345122, Note_off_c, 1, 45, 0
1, 345124, Note_on_c, 1, 72, 127
1, 345124, Note_on_c, 1, 45, 127
1, 345311, Note_off_c, 1, 72, 0
1, 345311, Note_off_c, 1, 45, 0
1, 345312, Note_on_c, 1, 71, 127
1, 345312, Note_on_c, 1, 48, 127
1, 345404, Note_off_c, 1, 71, 0
1, 345406, Note_on_c, 1, 69, 127
1, 345498, Note_off_c, 1, 48, 0
1, 345498, Note_off_c, 1, 69, 0
1, 345500, Note_on_c, 1, 71, 127
1, 345500, Note_on_c, 1, 52, 127
1, 345687, Note_off_c, 1, 71, 0
1, 345687, Note_off_c, 1, 52, 0
1, 345688, Note_on_c, 1, 72, 127
1, 345688, Note_on_c, 1, 57, 127
1, 345780, Note_off_c, 1, 72, 0
1, 345780, Note_off_c, 1, 57, 0
1, 345782, Note_on_c, 1, 74, 127
1, 345782, Note_on_c, 1, 59, 127
1, 345874, Note_off_c, 1, 74, 0
1, 345874, Note_off_c, 1, 59, 0
1, 345876, Note_on_c, 1, 76, 127
1, 345876, Note_on_c, 1, 60, 127
1, 345937, Note_off_c, 1, 76, 0
1, 345937, Note_off_c, 1, 60, 0
1, 345939, Note_on_c, 1, 74, 127
1, 345939, Note_on_c, 1, 59, 127
1, 346000, Note_off_c, 1, 74, 0
1, 346000, Note_off_c, 1, 59, 0
1, 346001, Note_on_c, 1, 76, 127
1, 346001, Note_on_c, 1, 60, 127
1, 346062, Note_off_c, 1, 76, 0
1, 346062, Note_off_c, 1, 60, 0
1, 346064, Note_on_c, 1, 74, 127
1, 346064, Note_on_c, 1, 59, 127
1, 346125, Note_off_c, 1, 74, 0
1, 346125, Note_off_c, 1, 59, 0
1, 346127, Note_on_c, 1, 72, 127
1, 346127, Note_on_c, 1, 57, 127
1, 346188, Note_off_c, 1, 72, 0
1, 346188, Note_off_c, 1, 57, 0
1, 346190, Note_on_c, 1, 74, 127
1, 346190, Note_on_c, 1, 59, 127
1, 346251, Note_off_c, 1, 74, 0
1, 346251, Note_off_c, 1, 59, 0
1, 346253, Note_on_c, 1, 76, 127
1, 346253, Note_on_c, 1, 60, 127
1, 346440, Note_off_c, 1, 76, 0
1, 346440, Note_off_c, 1, 60, 0
1, 346441, Note_on_c, 1, 74, 127
1, 346441, Note_on_c, 1, 59, 127
1, 346533, Note_off_c, 1, 74, 0
1, 346533, Note_off_c, 1, 59, 0
1, 346535, Note_on_c, 1, 72, 127
1, 346535, Note_on_c, 1, 57, 127
1, 346627, Note_off_c, 1, 72, 0
1, 346627, Note_off_c, 1, 57, 0
1, 346629, Note_on_c, 1, 74, 127
1, 346629, Note_on_c, 1, 59, 127
1, 346816, Note_off_c, 1, 74, 0
1, 346816, Note_off_c, 1, 59, 0
1, 346817, Note_on_c, 1, 76, 127
1, 346817, Note_on_c, 1, 60, 127
1, 346909, Note_off_c, 1, 76, 0
1, 346909, Note_off_c, 1, 60, 0
1, 346911, Note_on_c, 1, 77, 127
1, 346911, Note_on_c, 1, 62, 127
1, 347003, Note_off_c, 1, 77, 0
1, 347003, Note_off_c, 1, 62, 0
1, 347005, Note_on_c, 1, 79, 127
1, 347005, Note_on_c, 1, 64, 127
1, 347066, Note_off_c, 1, 79, 0
1, 347066, Note_off_c, 1, 64, 0
1, 347067, Note_on_c, 1, 77, 127
1, 347067, Note_on_c, 1, 62, 127
1, 347128, Note_off_c, 1, 77, 0
1, 347128, Note_off_c, 1, 62, 0
1, 347130, Note_on_c, 1, 79, 127
1, 347130, Note_on_c, 1, 64, 127
1, 347191, Note_off_c, 1, 79, 0
1, 347191, Note_off_c, 1, 64, 0
1, 347193, Note_on_c, 1, 77, 127
1, 347193, Note_on_c, 1, 62, 127
1, 347254, Note_off_c, 1, 77, 0
1, 347254, Note_off_c, 1, 62, 0
1, 347256, Note_on_c, 1, 76, 127
1, 347256, Note_on_c, 1, 60, 127
1, 347317, Note_off_c, 1, 76, 0
1, 347317, Note_off_c, 1, 60, 0
1, 347319, Note_on_c, 1, 77, 127
1, 347319, Note_on_c, 1, 62, 127
1, 347380, Note_off_c, 1, 77, 0
1, 347380, Note_off_c, 1, 62, 0
1, 347382, Note_on_c, 1, 64, 127
1, 347382, Note_on_c, 1, 79, 127
1, 347569, Note_off_c, 1, 64, 0
1, 347570, Note_on_c, 1, 62, 127
1, 347757, Note_off_c, 1, 62, 0
1, 347759, Note_on_c, 1, 76, 127
1, 347759, Note_on_c, 1, 61, 127
1, 347946, Note_off_c, 1, 76, 0
1, 347946, Note_off_c, 1, 61, 0
1, 347947, Note_on_c, 1, 69, 127
1, 348134, Note_off_c, 1, 79, 0
1, 348136, Note_on_c, 1, 81, 127
1, 348136, Note_on_c, 1, 59, 127
1, 348228, Note_off_c, 1, 81, 0
1, 348322, Note_off_c, 1, 59, 0
1, 348323, Note_on_c, 1, 77, 127
1, 348323, Note_on_c, 1, 57, 127
1, 348415, Note_off_c, 1, 77, 0
1, 348509, Note_off_c, 1, 69, 0
1, 348509, Note_off_c, 1, 57, 0
1, 348510, Note_on_c, 1, 62, 127
1, 348510, Note_on_c, 1, 77, 127
1, 348697, Note_off_c, 1, 62, 0
1, 348699, Note_on_c, 1, 60, 127
1, 348886, Note_off_c, 1, 60, 0
1, 348887, Note_on_c, 1, 74, 127
1, 348887, Note_on_c, 1, 59, 127
1, 349074, Note_off_c, 1, 74, 0
1, 349074, Note_off_c, 1, 59, 0
1, 349076, Note_on_c, 1, 67, 127
1, 349262, Note_off_c, 1, 77, 0
1, 349264, Note_on_c, 1, 79, 127
1, 349264, Note_on_c, 1, 57, 127
1, 349356, Note_off_c, 1, 79, 0
1, 349450, Note_off_c, 1, 57, 0
1, 349452, Note_on_c, 1, 76, 127
1, 349452, Note_on_c, 1, 55, 127
1, 349544, Note_off_c, 1, 76, 0
1, 349638, Note_off_c, 1, 67, 0
1, 349638, Note_off_c, 1, 55, 0
1, 349639, Note_on_c, 1, 60, 127
1, 349639, Note_on_c, 1, 76, 127
1, 349826, Note_off_c, 1, 60, 0
1, 349828, Note_on_c, 1, 59, 127
1, 350015, Note_off_c, 1, 59, 0
1, 350016, Note_on_c, 1, 72, 127
1, 350016, Note_on_c, 1, 57, 127
1, 350203, Note_off_c, 1, 72, 0
1, 350203, Note_off_c, 1, 57, 0
1, 350205, Note_on_c, 1, 65, 127
1, 350391, Note_off_c, 1, 76, 0
1, 350393, Note_on_c, 1, 77, 127
1, 350393, Note_on_c, 1, 55, 127
1, 350485, Note_off_c, 1, 77, 0
1, 350579, Note_off_c, 1, 55, 0
1, 350581, Note_on_c, 1, 74, 127
1, 350581, Note_on_c, 1, 53, 127
1, 350673, Note_off_c, 1, 74, 0
1, 350767, Note_off_c, 1, 53, 0
1, 350768, Note_on_c, 1, 71, 127
1, 350955, Note_off_c, 1, 71, 0
1, 351144, Note_on_c, 1, 69, 127
1, 351236, Note_off_c, 1, 69, 0
1, 351238, Note_on_c, 1, 67, 127
1, 351329, Note_off_c, 1, 65, 0
1, 351330, Note_off_c, 1, 67, 0
1, 351332, Note_on_c, 1, 64, 127
1, 351519, Note_off_c, 1, 64, 0
1, 351708, Note_on_c, 1, 62, 127
1, 351800, Note_off_c, 1, 62, 0
1, 353399, Note_on_c, 1, 52, 127
1, 353586, Note_off_c, 1, 52, 0
1, 353587, Note_on_c, 1, 52, 127
1, 353774, Note_off_c, 1, 52, 0
1, 353776, Note_on_c, 1, 50, 127
1, 353963, Note_off_c, 1, 50, 0
1, 353964, Note_on_c, 1, 79, 127
1, 353964, Note_on_c, 1, 76, 127
1, 353964, Note_on_c, 1, 48, 127
1, 354151, Note_off_c, 1, 79, 0
1, 354151, Note_off_c, 1, 76, 0
1, 354151, Note_off_c, 1, 48, 0
1, 354153, Note_on_c, 1, 76, 127
1, 354153, Note_on_c, 1, 72, 127
1, 354153, Note_on_c, 1, 48, 127
1, 354340, Note_off_c, 1, 76, 0
1, 354340, Note_off_c, 1, 72, 0
1, 354341, Note_on_c, 1, 74, 127
1, 354341, Note_on_c, 1, 71, 127
1, 354528, Note_off_c, 1, 48, 0
1, 354528, Note_off_c, 1, 74, 0
1, 354528, Note_off_c, 1, 71, 0
1, 354530, Note_on_c, 1, 72, 127
1, 354530, Note_on_c, 1, 53, 127
1, 354530, Note_on_c, 1, 69, 127
1, 354717, Note_off_c, 1, 72, 0
1, 354717, Note_off_c, 1, 53, 0
1, 354718, Note_on_c, 1, 55, 127
1, 354792, Note_on_c, 1, 71, 127
1, 354847, Note_off_c, 1, 71, 0
1, 354901, Note_off_c, 1, 69, 0
1, 354906, Note_on_c, 1, 67, 127
1, 355092, Note_off_c, 1, 55, 0
1, 355093, Note_off_c, 1, 67, 0
1, 355094, Note_on_c, 1, 72, 127
1, 355094, Note_on_c, 1, 65, 127
1, 355094, Note_on_c, 1, 43, 127
1, 355281, Note_off_c, 1, 72, 0
1, 355281, Note_off_c, 1, 65, 0
1, 355281, Note_off_c, 1, 43, 0
1, 355283, Note_on_c, 1, 72, 127
1, 355283, Note_on_c, 1, 48, 127
1, 355283, Note_on_c, 1, 64, 127
1, 355470, Note_off_c, 1, 72, 0
1, 355471, Note_on_c, 1, 71, 127
1, 355658, Note_off_c, 1, 71, 0
1, 355660, Note_on_c, 1, 69, 127
1, 355847, Note_off_c, 1, 69, 0
1, 356035, Note_off_c, 1, 48, 0
1, 356037, Note_on_c, 1, 67, 127
1, 356224, Note_off_c, 1, 67, 0
1, 356225, Note_on_c, 1, 66, 127
1, 356225, Note_on_c, 1, 45, 127
1, 356412, Note_off_c, 1, 66, 0
1, 356412, Note_off_c, 1, 45, 0
1, 356414, Note_on_c, 1, 50, 127
1, 356601, Note_off_c, 1, 50, 0
1, 356784, Note_off_c, 1, 64, 0
1, 356791, Note_on_c, 1, 57, 127
1, 356791, Note_on_c, 1, 47, 127
1, 356978, Note_off_c, 1, 57, 0
1, 356978, Note_off_c, 1, 47, 0
1, 356979, Note_on_c, 1, 62, 127
1, 357166, Note_off_c, 1, 62, 0
1, 357168, Note_on_c, 1, 60, 127
1, 357355, Note_off_c, 1, 60, 0
1, 357356, Note_on_c, 1, 59, 127
1, 357356, Note_on_c, 1, 43, 127
1, 357543, Note_off_c, 1, 59, 0
1, 357543, Note_off_c, 1, 43, 0
1, 357545, Note_on_c, 1, 71, 127
1, 357545, Note_on_c, 1, 43, 127
1, 357545, Note_on_c, 1, 59, 127
1, 357732, Note_off_c, 1, 71, 0
1, 357733, Note_on_c, 1, 69, 127
1, 357920, Note_off_c, 1, 69, 0
1, 357922, Note_on_c, 1, 67, 127
1, 358109, Note_off_c, 1, 67, 0
1, 358299, Note_on_c, 1, 66, 127
1, 358486, Note_off_c, 1, 43, 0
1, 358486, Note_off_c, 1, 66, 0
1, 358487, Note_on_c, 1, 64, 127
1, 358674, Note_off_c, 1, 64, 0
1, 358676, Note_on_c, 1, 48, 127
1, 358863, Note_off_c, 1, 48, 0
1, 358864, Note_on_c, 1, 47, 127
1, 359046, Note_off_c, 1, 59, 0
1, 359051, Note_off_c, 1, 47, 0
1, 359052, Note_on_c, 1, 55, 127
1, 359052, Note_on_c, 1, 45, 127
1, 359239, Note_off_c, 1, 55, 0
1, 359239, Note_off_c, 1, 45, 0
1, 359241, Note_on_c, 1, 60, 127
1, 359428, Note_off_c, 1, 60, 0
1, 359618, Note_on_c, 1, 57, 127
1, 359618, Note_on_c, 1, 42, 127
1, 359805, Note_off_c, 1, 57, 0
1, 359805, Note_off_c, 1, 42, 0
1, 359806, Note_on_c, 1, 69, 127
1, 359806, Note_on_c, 1, 42, 127
1, 359806, Note_on_c, 1, 57, 127
1, 359993, Note_off_c, 1, 69, 0
1, 359993, Note_off_c, 1, 42, 0
1, 359995, Note_on_c, 1, 67, 127
1, 359995, Note_on_c, 1, 43, 127
1, 360182, Note_off_c, 1, 67, 0
1, 360182, Note_off_c, 1, 43, 0
1, 360183, Note_on_c, 1, 66, 127
1, 360183, Note_on_c, 1, 45, 127
1, 360370, Note_off_c, 1, 66, 0
1, 360370, Note_off_c, 1, 45, 0
1, 360560, Note_on_c, 1, 64, 127
1, 360560, Note_on_c, 1, 47, 127
1, 360652, Note_off_c, 1, 64, 0
1, 360654, Note_on_c, 1, 63, 127
1, 360746, Note_off_c, 1, 47, 0
1, 360746, Note_off_c, 1, 63, 0
1, 360748, Note_on_c, 1, 48, 127
1, 360935, Note_off_c, 1, 48, 0
1, 361306, Note_off_c, 1, 57, 0
1, 361313, Note_on_c, 1, 61, 127
1, 361405, Note_off_c, 1, 61, 0
1, 361407, Note_on_c, 1, 59, 127
1, 361499, Note_off_c, 1, 59, 0
1, 361501, Note_on_c, 1, 55, 127
1, 361688, Note_off_c, 1, 55, 0
1, 361877, Note_on_c, 1, 54, 127
1, 361969, Note_off_c, 1, 54, 0
1, 361970, Note_on_c, 1, 52, 127
1, 362062, Note_off_c, 1, 52, 0
1, 362064, Note_on_c, 1, 51, 127
1, 362251, Note_off_c, 1, 51, 0
1, 362440, Note_on_c, 1, 49, 127
1, 362532, Note_off_c, 1, 49, 0
1, 363191, Note_on_c, 1, 54, 127
1, 363191, Note_on_c, 1, 69, 127
1, 363378, Note_off_c, 1, 54, 0
1, 363380, Note_on_c, 1, 52, 127
1, 363567, Note_off_c, 1, 52, 0
1, 363568, Note_on_c, 1, 51, 127
1, 363755, Note_off_c, 1, 51, 0
1, 363945, Note_on_c, 1, 49, 127
1, 364132, Note_off_c, 1, 69, 0
1, 364132, Note_off_c, 1, 49, 0
1, 364133, Note_on_c, 1, 71, 127
1, 364133, Note_on_c, 1, 51, 127
1, 364133, Note_on_c, 1, 47, 127
1, 364320, Note_off_c, 1, 71, 0
1, 364320, Note_off_c, 1, 51, 0
1, 364320, Note_off_c, 1, 47, 0
1, 364322, Note_on_c, 1, 67, 127
1, 364322, Note_on_c, 1, 40, 127
1, 364509, Note_off_c, 1, 67, 0
1, 364509, Note_off_c, 1, 40, 0
1, 364510, Note_on_c, 1, 69, 127
1, 364510, Note_on_c, 1, 42, 127
1, 364602, Note_off_c, 1, 69, 0
1, 364604, Note_on_c, 1, 67, 127
1, 364696, Note_off_c, 1, 42, 0
1, 364696, Note_off_c, 1, 67, 0
1, 364698, Note_on_c, 1, 66, 127
1, 364698, Note_on_c, 1, 43, 127
1, 364790, Note_off_c, 1, 66, 0
1, 364792, Note_on_c, 1, 64, 127
1, 364884, Note_off_c, 1, 43, 0
1, 364885, Note_on_c, 1, 72, 127
1, 364885, Note_on_c, 1, 45, 127
1, 365072, Note_off_c, 1, 72, 0
1, 365072, Note_off_c, 1, 45, 0
1, 365074, Note_on_c, 1, 74, 127
1, 365074, Note_on_c, 1, 47, 127
1, 365166, Note_off_c, 1, 74, 0
1, 365166, Note_off_c, 1, 47, 0
1, 365261, Note_on_c, 1, 71, 127
1, 365353, Note_off_c, 1, 71, 0
1, 365355, Note_on_c, 1, 69, 127
1, 365355, Note_on_c, 1, 42, 127
1, 365447, Note_off_c, 1, 69, 0
1, 365447, Note_off_c, 1, 42, 0
1, 365916, Note_off_c, 1, 64, 0
1, 365918, Note_on_c, 1, 67, 127
1, 365918, Note_on_c, 1, 40, 127
1, 366010, Note_off_c, 1, 67, 0
1, 366010, Note_off_c, 1, 40, 0
1, 366012, Note_on_c, 1, 67, 127
1, 366012, Note_on_c, 1, 47, 127
1, 366012, Note_on_c, 1, 63, 127
1, 366069, Note_off_c, 1, 67, 0
1, 366071, Note_on_c, 1, 66, 127
1, 366128, Note_off_c, 1, 66, 0
1, 366198, Note_off_c, 1, 47, 0
1, 366200, Note_on_c, 1, 45, 127
1, 366386, Note_off_c, 1, 63, 0
1, 366387, Note_off_c, 1, 45, 0
1, 366388, Note_on_c, 1, 64, 127
1, 366575, Note_off_c, 1, 64, 0
1, 366577, Note_on_c, 1, 40, 127
1, 366577, Note_on_c, 1, 64, 127
1, 366764, Note_off_c, 1, 40, 0
1, 366765, Note_on_c, 1, 47, 127
1, 366952, Note_off_c, 1, 47, 0
1, 366954, Note_on_c, 1, 52, 127
1, 367142, Note_on_c, 1, 56, 127
1, 367142, Note_on_c, 1, 59, 127
1, 367516, Note_off_c, 1, 56, 0
1, 367516, Note_off_c, 1, 59, 0
1, 367517, Note_off_c, 1, 52, 0
1, 367518, Note_off_c, 1, 64, 0
1, 367518, Note_on_c, 1, 71, 127
1, 367705, Note_off_c, 1, 71, 0
1, 367707, Note_on_c, 1, 64, 127
1, 367894, Note_off_c, 1, 64, 0
1, 367895, Note_on_c, 1, 66, 127
1, 368082, Note_off_c, 1, 66, 0
1, 368084, Note_on_c, 1, 68, 127
1, 368271, Note_off_c, 1, 68, 0
1, 368272, Note_on_c, 1, 68, 127
1, 368459, Note_off_c, 1, 68, 0
1, 368461, Note_on_c, 1, 69, 127
1, 368648, Note_off_c, 1, 69, 0
1, 368649, Note_on_c, 1, 64, 127
1, 368649, Note_on_c, 1, 71, 127
1, 368836, Note_off_c, 1, 64, 0
1, 368836, Note_off_c, 1, 71, 0
1, 368837, Note_on_c, 1, 57, 127
1, 368837, Note_on_c, 1, 72, 127
1, 369024, Note_off_c, 1, 57, 0
1, 369026, Note_on_c, 1, 59, 127
1, 369213, Note_off_c, 1, 59, 0
1, 369214, Note_on_c, 1, 60, 127
1, 369401, Note_off_c, 1, 60, 0
1, 369589, Note_off_c, 1, 72, 0
1, 369591, Note_on_c, 1, 62, 127
1, 369778, Note_off_c, 1, 62, 0
1, 369780, Note_on_c, 1, 72, 127
1, 369780, Note_on_c, 1, 64, 127
1, 369967, Note_off_c, 1, 72, 0
1, 369967, Note_off_c, 1, 64, 0
1, 369968, Note_on_c, 1, 74, 127
1, 369968, Note_on_c, 1, 65, 127
1, 370060, Note_off_c, 1, 74, 0
1, 370060, Note_off_c, 1, 65, 0
1, 370062, Note_on_c, 1, 64, 127
1, 370062, Note_on_c, 1, 72, 127
1, 370154, Note_off_c, 1, 64, 0
1, 370154, Note_off_c, 1, 72, 0
1, 370156, Note_on_c, 1, 62, 127
1, 370156, Note_on_c, 1, 71, 127
1, 370343, Note_off_c, 1, 62, 0
1, 370343, Note_off_c, 1, 71, 0
1, 370344, Note_on_c, 1, 64, 127
1, 370344, Note_on_c, 1, 72, 127
1, 370531, Note_off_c, 1, 64, 0
1, 370531, Note_off_c, 1, 72, 0
1, 370533, Note_on_c, 1, 65, 127
1, 370533, Note_on_c, 1, 74, 127
1, 370625, Note_off_c, 1, 65, 0
1, 370627, Note_on_c, 1, 67, 127
1, 370718, Note_off_c, 1, 74, 0
1, 370719, Note_off_c, 1, 67, 0
1, 370720, Note_on_c, 1, 69, 127
1, 370720, Note_on_c, 1, 77, 127
1, 370812, Note_off_c, 1, 69, 0
1, 370814, Note_on_c, 1, 71, 127
1, 370905, Note_off_c, 1, 77, 0
1, 370906, Note_off_c, 1, 71, 0
1, 370908, Note_on_c, 1, 72, 127
1, 370908, Note_on_c, 1, 76, 127
1, 370908, Note_on_c, 1, 60, 127
1, 371095, Note_off_c, 1, 72, 0
1, 371095, Note_off_c, 1, 76, 0
1, 371095, Note_off_c, 1, 60, 0
1, 371096, Note_on_c, 1, 76, 127
1, 371096, Note_on_c, 1, 55, 127
1, 371096, Note_on_c, 1, 71, 127
1, 371158, Note_off_c, 1, 76, 0
1, 371160, Note_on_c, 1, 74, 127
1, 371222, Note_off_c, 1, 74, 0
1, 371283, Note_off_c, 1, 55, 0
1, 371285, Note_on_c, 1, 57, 127
1, 371468, Note_off_c, 1, 71, 0
1, 371472, Note_off_c, 1, 57, 0
1, 371473, Note_on_c, 1, 67, 127
1, 371473, Note_on_c, 1, 59, 127
1, 371660, Note_off_c, 1, 67, 0
1, 371660, Note_off_c, 1, 59, 0
1, 371662, Note_on_c, 1, 79, 127
1, 371662, Note_on_c, 1, 59, 127
1, 371754, Note_off_c, 1, 79, 0
1, 371755, Note_on_c, 1, 77, 127
1, 371847, Note_off_c, 1, 77, 0
1, 371848, Note_off_c, 1, 59, 0
1, 371849, Note_on_c, 1, 76, 127
1, 371849, Note_on_c, 1, 60, 127
1, 371941, Note_off_c, 1, 76, 0
1, 371943, Note_on_c, 1, 74, 127
1, 372035, Note_off_c, 1, 60, 0
1, 372035, Note_off_c, 1, 74, 0
1, 372037, Note_on_c, 1, 72, 127
1, 372037, Note_on_c, 1, 62, 127
1, 372129, Note_off_c, 1, 72, 0
1, 372130, Note_on_c, 1, 71, 127
1, 372222, Note_off_c, 1, 71, 0
1, 372223, Note_off_c, 1, 62, 0
1, 372224, Note_on_c, 1, 72, 127
1, 372224, Note_on_c, 1, 64, 127
1, 372316, Note_off_c, 1, 72, 0
1, 372318, Note_on_c, 1, 74, 127
1, 372410, Note_off_c, 1, 64, 0
1, 372410, Note_off_c, 1, 74, 0
1, 372412, Note_on_c, 1, 76, 127
1, 372412, Note_on_c, 1, 60, 127
1, 372504, Note_off_c, 1, 76, 0
1, 372505, Note_on_c, 1, 77, 127
1, 372597, Note_off_c, 1, 77, 0
1, 372598, Note_off_c, 1, 60, 0
1, 372599, Note_on_c, 1, 79, 127
1, 372599, Note_on_c, 1, 64, 127
1, 372691, Note_off_c, 1, 79, 0
1, 372693, Note_on_c, 1, 76, 127
1, 372785, Note_off_c, 1, 64, 0
1, 372785, Note_off_c, 1, 76, 0
1, 372787, Note_on_c, 1, 81, 127
1, 372787, Note_on_c, 1, 65, 127
1, 372879, Note_off_c, 1, 81, 0
1, 372880, Note_on_c, 1, 79, 127
1, 372972, Note_off_c, 1, 79, 0
1, 372973, Note_off_c, 1, 65, 0
1, 372974, Note_on_c, 1, 77, 127
1, 372974, Note_on_c, 1, 69, 127
1, 373066, Note_off_c, 1, 77, 0
1, 373068, Note_on_c, 1, 76, 127
1, 373160, Note_off_c, 1, 69, 0
1, 373160, Note_off_c, 1, 76, 0
1, 373161, Note_on_c, 1, 74, 127
1, 373161, Note_on_c, 1, 65, 127
1, 373253, Note_off_c, 1, 74, 0
1, 373255, Note_on_c, 1, 72, 127
1, 373347, Note_off_c, 1, 72, 0
1, 373349, Note_on_c, 1, 71, 127
1, 373349, Note_on_c, 1, 79, 127
1, 373441, Note_off_c, 1, 65, 0
1, 373443, Note_on_c, 1, 69, 127
1, 373535, Note_off_c, 1, 71, 0
1, 373535, Note_off_c, 1, 69, 0
1, 373536, Note_on_c, 1, 67, 127
1, 373628, Note_off_c, 1, 67, 0
1, 373724, Note_on_c, 1, 64, 127
1, 373816, Note_off_c, 1, 64, 0
1, 373818, Note_on_c, 1, 62, 127
1, 373910, Note_off_c, 1, 62, 0
1, 373911, Note_on_c, 1, 60, 127
1, 373911, Note_on_c, 1, 76, 127
1, 374003, Note_off_c, 1, 60, 0
1, 374005, Note_on_c, 1, 59, 127
1, 374097, Note_off_c, 1, 79, 0
1, 374097, Note_off_c, 1, 59, 0
1, 374099, Note_on_c, 1, 57, 127
1, 374099, Note_on_c, 1, 81, 127
1, 374191, Note_off_c, 1, 57, 0
1, 374192, Note_on_c, 1, 55, 127
1, 374284, Note_off_c, 1, 55, 0
1, 374285, Note_off_c, 1, 81, 0
1, 374286, Note_on_c, 1, 53, 127
1, 374378, Note_off_c, 1, 53, 0
1, 374380, Note_on_c, 1, 52, 127
1, 374472, Note_off_c, 1, 52, 0
1, 374474, Note_on_c, 1, 50, 127
1, 374474, Note_on_c, 1, 77, 127
1, 374566, Note_off_c, 1, 50, 0
1, 374659, Note_off_c, 1, 76, 0
1, 374755, Note_on_c, 1, 48, 127
1, 374847, Note_off_c, 1, 48, 0
1, 374849, Note_on_c, 1, 47, 127
1, 374941, Note_off_c, 1, 47, 0
1, 374942, Note_on_c, 1, 45, 127
1, 375034, Note_off_c, 1, 45, 0
1, 375036, Note_on_c, 1, 43, 127
1, 375128, Note_off_c, 1, 43, 0
1, 375222, Note_off_c, 1, 77, 0
1, 375317, Note_on_c, 1, 41, 127
1, 375409, Note_off_c, 1, 41, 0
1, 375411, Note_on_c, 1, 40, 127
1, 375503, Note_off_c, 1, 40, 0
1, 375505, Note_on_c, 1, 38, 127
1, 375597, Note_off_c, 1, 38, 0
1, 375598, Note_on_c, 1, 76, 127
1, 375598, Note_on_c, 1, 72, 127
1, 375598, Note_on_c, 1, 36, 127
1, 375785, Note_off_c, 1, 76, 0
1, 375785, Note_off_c, 1, 72, 0
1, 375787, Note_on_c, 1, 74, 127
1, 375787, Note_on_c, 1, 77, 127
1, 375973, Note_off_c, 1, 36, 0
1, 375974, Note_off_c, 1, 74, 0
1, 375974, Note_off_c, 1, 77, 0
1, 375975, Note_on_c, 1, 79, 127
1, 375975, Note_on_c, 1, 76, 127
1, 375975, Note_on_c, 1, 41, 127
1, 376162, Note_off_c, 1, 79, 0
1, 376162, Note_off_c, 1, 76, 0
1, 376162, Note_off_c, 1, 41, 0
1, 376164, Note_on_c, 1, 76, 127
1, 376164, Note_on_c, 1, 43, 127
1, 376164, Note_on_c, 1, 71, 127
1, 376228, Note_off_c, 1, 76, 0
1, 376233, Note_on_c, 1, 74, 127
1, 376297, Note_off_c, 1, 74, 0
1, 376351, Note_off_c, 1, 43, 0
1, 376352, Note_on_c, 1, 41, 127
1, 376536, Note_off_c, 1, 71, 0
1, 376539, Note_off_c, 1, 41, 0
1, 376541, Note_on_c, 1, 72, 127
1, 376728, Note_off_c, 1, 72, 0
1, 376729, Note_on_c, 1, 72, 127
1, 376729, Note_on_c, 1, 36, 127
1, 376916, Note_off_c, 1, 72, 0
1, 376918, Note_on_c, 1, 74, 127
1, 377105, Note_off_c, 1, 74, 0
1, 377106, Note_on_c, 1, 76, 127
1, 377293, Note_off_c, 1, 76, 0
1, 377481, Note_off_c, 1, 36, 0
1, 377483, Note_on_c, 1, 77, 127
1, 377670, Note_off_c, 1, 77, 0
1, 377672, Note_on_c, 1, 79, 127
1, 377672, Note_on_c, 1, 64, 127
1, 377859, Note_off_c, 1, 79, 0
1, 377859, Note_off_c, 1, 64, 0
1, 377860, Note_on_c, 1, 64, 127
1, 377860, Note_on_c, 1, 73, 127
1, 377860, Note_on_c, 1, 79, 127
1, 378047, Note_off_c, 1, 64, 0
1, 378049, Note_on_c, 1, 62, 127
1, 378236, Note_off_c, 1, 62, 0
1, 378237, Note_on_c, 1, 61, 127
1, 378424, Note_off_c, 1, 73, 0
1, 378424, Note_off_c, 1, 61, 0
1, 378426, Note_on_c, 1, 76, 127
1, 378612, Note_off_c, 1, 79, 0
1, 378614, Note_on_c, 1, 81, 127
1, 378614, Note_on_c, 1, 59, 127
1, 378706, Note_off_c, 1, 81, 0
1, 378797, Note_off_c, 1, 76, 0
1, 378800, Note_off_c, 1, 59, 0
1, 378802, Note_on_c, 1, 77, 127
1, 378802, Note_on_c, 1, 57, 127
1, 378894, Note_off_c, 1, 77, 0
1, 378895, Note_on_c, 1, 76, 127
1, 378987, Note_off_c, 1, 76, 0
1, 378988, Note_off_c, 1, 57, 0
1, 378989, Note_on_c, 1, 77, 127
1, 378989, Note_on_c, 1, 62, 127
1, 378989, Note_on_c, 1, 74, 127
1, 379176, Note_off_c, 1, 77, 0
1, 379176, Note_off_c, 1, 62, 0
1, 379178, Note_on_c, 1, 79, 127
1, 379178, Note_on_c, 1, 64, 127
1, 379270, Note_off_c, 1, 79, 0
1, 379360, Note_off_c, 1, 74, 0
1, 379364, Note_off_c, 1, 64, 0
1, 379365, Note_on_c, 1, 76, 127
1, 379365, Note_on_c, 1, 65, 127
1, 379457, Note_off_c, 1, 76, 0
1, 379459, Note_on_c, 1, 74, 127
1, 379551, Note_off_c, 1, 65, 0
1, 379553, Note_on_c, 1, 81, 127
1, 379740, Note_off_c, 1, 81, 0
1, 379741, Note_on_c, 1, 82, 127
1, 379741, Note_on_c, 1, 67, 127
1, 379833, Note_off_c, 1, 82, 0
1, 379927, Note_off_c, 1, 67, 0
1, 379929, Note_on_c, 1, 79, 127
1, 379929, Note_on_c, 1, 69, 127
1, 380021, Note_off_c, 1, 79, 0
1, 380022, Note_on_c, 1, 77, 127
1, 380114, Note_off_c, 1, 74, 0
1, 380114, Note_off_c, 1, 77, 0
1, 380115, Note_off_c, 1, 69, 0
1, 380116, Note_on_c, 1, 73, 127
1, 380116, Note_on_c, 1, 76, 127
1, 380116, Note_on_c, 1, 70, 127
1, 380303, Note_off_c, 1, 73, 0
1, 380303, Note_off_c, 1, 76, 0
1, 380303, Note_off_c, 1, 70, 0
1, 380304, Note_on_c, 1, 77, 127
1, 380304, Note_on_c, 1, 74, 127
1, 380304, Note_on_c, 1, 69, 127
1, 380491, Note_off_c, 1, 77, 0
1, 380491, Note_off_c, 1, 74, 0
1, 380491, Note_off_c, 1, 69, 0
1, 380493, Note_on_c, 1, 76, 127
1, 380493, Note_on_c, 1, 79, 127
1, 380493, Note_on_c, 1, 67, 127
1, 380680, Note_off_c, 1, 76, 0
1, 380680, Note_off_c, 1, 79, 0
1, 380680, Note_off_c, 1, 67, 0
1, 380681, Note_on_c, 1, 79, 127
1, 380681, Note_on_c, 1, 76, 127
1, 380681, Note_on_c, 1, 67, 127
1, 380868, Note_off_c, 1, 79, 0
1, 380868, Note_off_c, 1, 76, 0
1, 380868, Note_off_c, 1, 67, 0
1, 380870, Note_on_c, 1, 81, 127
1, 380870, Note_on_c, 1, 77, 127
1, 380870, Note_on_c, 1, 65, 127
1, 381057, Note_off_c, 1, 81, 0
1, 381057, Note_off_c, 1, 77, 0
1, 381057, Note_off_c, 1, 65, 0
1, 381058, Note_on_c, 1, 79, 127
1, 381058, Note_on_c, 1, 82, 127
1, 381058, Note_on_c, 1, 64, 127
1, 381245, Note_off_c, 1, 79, 0
1, 381245, Note_off_c, 1, 82, 0
1, 381245, Note_off_c, 1, 64, 0
1, 381247, Note_on_c, 1, 64, 127
1, 381247, Note_on_c, 1, 79, 127
1, 381247, Note_on_c, 1, 82, 127
1, 381434, Note_off_c, 1, 64, 0
1, 381435, Note_on_c, 1, 67, 127
1, 381527, Note_off_c, 1, 67, 0
1, 381529, Note_on_c, 1, 65, 127
1, 381621, Note_off_c, 1, 65, 0
1, 381717, Note_on_c, 1, 62, 127
1, 381809, Note_off_c, 1, 62, 0
1, 381810, Note_on_c, 1, 61, 127
1, 381997, Note_off_c, 1, 79, 0
1, 381997, Note_off_c, 1, 82, 0
1, 381997, Note_off_c, 1, 61, 0
1, 381999, Note_on_c, 1, 62, 127
1, 381999, Note_on_c, 1, 77, 127
1, 381999, Note_on_c, 1, 81, 127
1, 382091, Note_off_c, 1, 62, 0
1, 382093, Note_on_c, 1, 61, 127
1, 382185, Note_off_c, 1, 77, 0
1, 382185, Note_off_c, 1, 81, 0
1, 382185, Note_off_c, 1, 61, 0
1, 382186, Note_on_c, 1, 59, 127
1, 382186, Note_on_c, 1, 76, 127
1, 382186, Note_on_c, 1, 79, 127
1, 382278, Note_off_c, 1, 59, 0
1, 382280, Note_on_c, 1, 57, 127
1, 382372, Note_off_c, 1, 76, 0
1, 382372, Note_off_c, 1, 79, 0
1, 382372, Note_off_c, 1, 57, 0
1, 382374, Note_on_c, 1, 77, 127
1, 382374, Note_on_c, 1, 62, 127
1, 382374, Note_on_c, 1, 74, 127
1, 382561, Note_off_c, 1, 77, 0
1, 382561, Note_off_c, 1, 62, 0
1, 382562, Note_on_c, 1, 79, 127
1, 382562, Note_on_c, 1, 53, 127
1, 382654, Note_off_c, 1, 79, 0
1, 382745, Note_off_c, 1, 74, 0
1, 382748, Note_off_c, 1, 53, 0
1, 382750, Note_on_c, 1, 76, 127
1, 382750, Note_on_c, 1, 55, 127
1, 382842, Note_off_c, 1, 76, 0
1, 382843, Note_on_c, 1, 74, 127
1, 382935, Note_off_c, 1, 74, 0
1, 382936, Note_off_c, 1, 55, 0
1, 382937, Note_on_c, 1, 74, 127
1, 382937, Note_on_c, 1, 57, 127
1, 382937, Note_on_c, 1, 64, 127
1, 383000, Note_off_c, 1, 74, 0
1, 383001, Note_on_c, 1, 73, 127
1, 383064, Note_off_c, 1, 73, 0
1, 383124, Note_off_c, 1, 57, 0
1, 383126, Note_on_c, 1, 55, 127
1, 383309, Note_off_c, 1, 64, 0
1, 383313, Note_off_c, 1, 55, 0
1, 383314, Note_on_c, 1, 65, 127
1, 383314, Note_on_c, 1, 74, 127
1, 383314, Note_on_c, 1, 57, 127
1, 383501, Note_off_c, 1, 65, 0
1, 383501, Note_off_c, 1, 74, 0
1, 383501, Note_off_c, 1, 57, 0
1, 383503, Note_on_c, 1, 50, 127
1, 383503, Note_on_c, 1, 65, 127
1, 383503, Note_on_c, 1, 74, 127
1, 383690, Note_off_c, 1, 50, 0
1, 383691, Note_on_c, 1, 52, 127
1, 383878, Note_off_c, 1, 65, 0
1, 383878, Note_off_c, 1, 52, 0
1, 383880, Note_on_c, 1, 69, 127
1, 383880, Note_on_c, 1, 53, 127
1, 384067, Note_off_c, 1, 74, 0
1, 384067, Note_off_c, 1, 69, 0
1, 384067, Note_off_c, 1, 53, 0
1, 384068, Note_on_c, 1, 53, 127
1, 384068, Note_on_c, 1, 74, 127
1, 384255, Note_off_c, 1, 53, 0
1, 384257, Note_on_c, 1, 76, 127
1, 384257, Note_on_c, 1, 55, 127
1, 384444, Note_off_c, 1, 76, 0
1, 384444, Note_off_c, 1, 55, 0
1, 384445, Note_on_c, 1, 77, 127
1, 384445, Note_on_c, 1, 57, 127
1, 384632, Note_off_c, 1, 77, 0
1, 384632, Note_off_c, 1, 57, 0
1, 384634, Note_on_c, 1, 47, 127
1, 384820, Note_off_c, 1, 74, 0
1, 384822, Note_on_c, 1, 72, 127
1, 385009, Note_off_c, 1, 72, 0
1, 385011, Note_on_c, 1, 71, 127
1, 385198, Note_off_c, 1, 71, 0
1, 385386, Note_off_c, 1, 47, 0
1, 385388, Note_on_c, 1, 69, 127
1, 385575, Note_off_c, 1, 69, 0
1, 385576, Note_on_c, 1, 67, 127
1, 385763, Note_off_c, 1, 67, 0
1, 385765, Note_on_c, 1, 76, 127
1, 385765, Note_on_c, 1, 48, 127
1, 385952, Note_off_c, 1, 76, 0
1, 385952, Note_off_c, 1, 48, 0
1, 385953, Note_on_c, 1, 74, 127
1, 385953, Note_on_c, 1, 50, 127
1, 386140, Note_off_c, 1, 74, 0
1, 386140, Note_off_c, 1, 50, 0
1, 386141, Note_on_c, 1, 72, 127
1, 386141, Note_on_c, 1, 52, 127
1, 386328, Note_off_c, 1, 72, 0
1, 386328, Note_off_c, 1, 52, 0
1, 386330, Note_on_c, 1, 52, 127
1, 386330, Note_on_c, 1, 72, 127
1, 386517, Note_off_c, 1, 52, 0
1, 386518, Note_on_c, 1, 74, 127
1, 386518, Note_on_c, 1, 53, 127
1, 386705, Note_off_c, 1, 74, 0
1, 386705, Note_off_c, 1, 53, 0
1, 386707, Note_on_c, 1, 76, 127
1, 386707, Note_on_c, 1, 55, 127
1, 386894, Note_off_c, 1, 76, 0
1, 386894, Note_off_c, 1, 55, 0
1, 386895, Note_on_c, 1, 45, 127
1, 387082, Note_off_c, 1, 72, 0
1, 387084, Note_on_c, 1, 71, 127
1, 387271, Note_off_c, 1, 71, 0
1, 387272, Note_on_c, 1, 69, 127
1, 387459, Note_off_c, 1, 69, 0
1, 387649, Note_on_c, 1, 67, 127
1, 387836, Note_off_c, 1, 45, 0
1, 387836, Note_off_c, 1, 67, 0
1, 387838, Note_on_c, 1, 65, 127
1, 388025, Note_off_c, 1, 65, 0
1, 388026, Note_on_c, 1, 74, 127
1, 388026, Note_on_c, 1, 47, 127
1, 388026, Note_on_c, 1, 65, 127
1, 388213, Note_off_c, 1, 74, 0
1, 388213, Note_off_c, 1, 47, 0
1, 388215, Note_on_c, 1, 72, 127
1, 388215, Note_on_c, 1, 48, 127
1, 388398, Note_off_c, 1, 65, 0
1, 388402, Note_off_c, 1, 72, 0
1, 388402, Note_off_c, 1, 48, 0
1, 388403, Note_on_c, 1, 71, 127
1, 388403, Note_on_c, 1, 50, 127
1, 388590, Note_off_c, 1, 71, 0
1, 388590, Note_off_c, 1, 50, 0
1, 388592, Note_on_c, 1, 50, 127
1, 388592, Note_on_c, 1, 71, 127
1, 388779, Note_off_c, 1, 50, 0
1, 388780, Note_on_c, 1, 72, 127
1, 388780, Note_on_c, 1, 52, 127
1, 388967, Note_off_c, 1, 72, 0
1, 388967, Note_off_c, 1, 52, 0
1, 388969, Note_on_c, 1, 74, 127
1, 388969, Note_on_c, 1, 53, 127
1, 389156, Note_off_c, 1, 74, 0
1, 389156, Note_off_c, 1, 53, 0
1, 389157, Note_on_c, 1, 44, 127
1, 389344, Note_off_c, 1, 71, 0
1, 389344, Note_off_c, 1, 44, 0
1, 389346, Note_on_c, 1, 69, 127
1, 389346, Note_on_c, 1, 45, 127
1, 389533, Note_off_c, 1, 69, 0
1, 389533, Note_off_c, 1, 45, 0
1, 389534, Note_on_c, 1, 68, 127
1, 389534, Note_on_c, 1, 47, 127
1, 389721, Note_off_c, 1, 68, 0
1, 389721, Note_off_c, 1, 47, 0
1, 389723, Note_on_c, 1, 40, 127
1, 389910, Note_off_c, 1, 40, 0
1, 389911, Note_on_c, 1, 66, 127
1, 389911, Note_on_c, 1, 42, 127
1, 390098, Note_off_c, 1, 66, 0
1, 390098, Note_off_c, 1, 42, 0
1, 390100, Note_on_c, 1, 64, 127
1, 390287, Note_off_c, 1, 64, 0
1, 390288, Note_on_c, 1, 72, 127
1, 390288, Note_on_c, 1, 45, 127
1, 390288, Note_on_c, 1, 64, 127
1, 390475, Note_off_c, 1, 72, 0
1, 390475, Note_off_c, 1, 45, 0
1, 390477, Note_on_c, 1, 71, 127
1, 390477, Note_on_c, 1, 47, 127
1, 390664, Note_off_c, 1, 71, 0
1, 390664, Note_off_c, 1, 47, 0
1, 390665, Note_on_c, 1, 69, 127
1, 390665, Note_on_c, 1, 48, 127
1, 390852, Note_off_c, 1, 69, 0
1, 390852, Note_off_c, 1, 48, 0
1, 391419, Note_on_c, 1, 66, 127
1, 391419, Note_on_c, 1, 50, 127
1, 391606, Note_off_c, 1, 66, 0
1, 391606, Note_off_c, 1, 50, 0
1, 391608, Note_on_c, 1, 68, 127
1, 391608, Note_on_c, 1, 52, 127
1, 391795, Note_off_c, 1, 68, 0
1, 391795, Note_off_c, 1, 52, 0
1, 391796, Note_on_c, 1, 53, 127
1, 391976, Note_off_c, 1, 64, 0
1, 391983, Note_off_c, 1, 53, 0
1, 391985, Note_on_c, 1, 71, 127
1, 391985, Note_on_c, 1, 53, 127
1, 391985, Note_on_c, 1, 62, 127
1, 392077, Note_off_c, 1, 71, 0
1, 392078, Note_on_c, 1, 69, 127
1, 392170, Note_off_c, 1, 69, 0
1, 392171, Note_off_c, 1, 53, 0
1, 392172, Note_on_c, 1, 52, 127
1, 392266, Note_on_c, 1, 72, 127
1, 392358, Note_off_c, 1, 52, 0
1, 392358, Note_off_c, 1, 72, 0
1, 392360, Note_on_c, 1, 74, 127
1, 392360, Note_on_c, 1, 50, 127
1, 392547, Note_off_c, 1, 74, 0
1, 392547, Note_off_c, 1, 50, 0
1, 392548, Note_on_c, 1, 68, 127
1, 392744, Note_off_c, 1, 68, 0
1, 392746, Note_on_c, 1, 64, 127
1, 392942, Note_off_c, 1, 64, 0
1, 392943, Note_off_c, 1, 62, 0
1, 392944, Note_on_c, 1, 60, 127
1, 392944, Note_on_c, 1, 50, 127
1, 392944, Note_on_c, 1, 69, 127
1, 393140, Note_off_c, 1, 60, 0
1, 393140, Note_off_c, 1, 50, 0
1, 393141, Note_on_c, 1, 52, 127
1, 393141, Note_on_c, 1, 59, 127
1, 393335, Note_off_c, 1, 69, 0
1, 393339, Note_on_c, 1, 71, 127
1, 393535, Note_off_c, 1, 52, 0
1, 393535, Note_off_c, 1, 71, 0
1, 393537, Note_on_c, 1, 68, 127
1, 393537, Note_on_c, 1, 40, 127
1, 393733, Note_off_c, 1, 59, 0
1, 393733, Note_off_c, 1, 68, 0
1, 393733, Note_off_c, 1, 40, 0
1, 393735, Note_on_c, 1, 69, 127
1, 393735, Note_on_c, 1, 45, 127
1, 394003, Note_on_c, 1, 49, 127
1, 394271, Note_on_c, 1, 52, 127
1, 394273, Note_off_c, 1, 49, 0
1, 394561, Note_off_c, 1, 52, 0
1, 394587, Note_on_c, 1, 57, 127
1, 394587, Note_on_c, 1, 64, 127
1, 394587, Note_on_c, 1, 61, 127
1, 396735, Note_off_c, 1, 69, 0
1, 396735, Note_off_c, 1, 45, 0
1, 396755, Note_off_c, 1, 57, 0
1, 396755, Note_off_c, 1, 64, 0
1, 396755, Note_off_c, 1, 61, 0
1, 396755, End_track
0, 0, End_of_file