0, 0, Header, 1, 1, 480
1, 0, Start_track
1, 0, Title_t, "Test"
1, 0, Tempo, 500000
1, 0, Instrument_name_t, "Church Organ"
1, 96, Note_on_c, 1, 72, 127
1, 580, Note_off_c, 1, 72, 0
1, 602, Note_on_c, 1, 77, 127
1, 692, Note_on_c, 1, 76, 127
1, 697, Note_off_c, 1, 77, 0
1, 788, Note_off_c, 1, 76, 0
1, 1109, Note_on_c, 1, 72, 127
1, 1614, Note_off_c, 1, 72, 0
1, 1615, Note_on_c, 1, 72, 127
1, 1615, Note_on_c, 1, 53, 127
1, 1899, Note_off_c, 1, 72, 0
1, 1908, Note_on_c, 1, 74, 127
1, 1983, Note_off_c, 1, 74, 0
1, 2121, Note_off_c, 1, 53, 0
1, 2122, Note_on_c, 1, 58, 127
1, 2627, Note_off_c, 1, 58, 0
1, 2628, Note_on_c, 1, 74, 127
1, 2628, Note_on_c, 1, 53, 127
1, 2740, Note_off_c, 1, 74, 0
1, 2741, Note_on_c, 1, 72, 127
1, 2853, Note_off_c, 1, 72, 0
1, 2997, Note_on_c, 1, 75, 127
1, 3124, Note_off_c, 1, 75, 0
1, 3132, Note_off_c, 1, 53, 0
1, 3133, Note_on_c, 1, 74, 127
1, 3133, Note_on_c, 1, 60, 127
1, 3133, Note_on_c, 1, 57, 127
1, 3195, Note_off_c, 1, 74, 0
1, 3196, Note_on_c, 1, 72, 127
1, 3258, Note_off_c, 1, 72, 0
1, 3632, Note_off_c, 1, 60, 0
1, 3637, Note_on_c, 1, 65, 127
1, 3890, Note_on_c, 1, 70, 127
1, 4138, Note_off_c, 1, 65, 0
1, 4142, Note_off_c, 1, 57, 0
1, 4142, Note_off_c, 1, 70, 0
1, 4143, Note_on_c, 1, 72, 127
1, 4143, Note_on_c, 1, 60, 127
1, 4143, Note_on_c, 1, 57, 127
1, 4211, Note_on_c, 1, 70, 127
1, 4212, Note_off_c, 1, 72, 0
1, 4280, Note_off_c, 1, 70, 0
1, 4424, Note_on_c, 1, 74, 127
1, 4644, Note_off_c, 1, 60, 0
1, 4645, Note_off_c, 1, 74, 0
1, 4648, Note_off_c, 1, 57, 0
1, 4649, Note_on_c, 1, 72, 127
1, 4649, Note_on_c, 1, 62, 127
1, 4649, Note_on_c, 1, 55, 127
1, 4774, Note_off_c, 1, 72, 0
1, 4775, Note_on_c, 1, 70, 127
1, 4837, Note_off_c, 1, 70, 0
1, 5148, Note_off_c, 1, 62, 0
1, 5152, Note_off_c, 1, 55, 0
1, 5153, Note_on_c, 1, 70, 127
1, 5153, Note_on_c, 1, 60, 127
1, 5153, Note_on_c, 1, 64, 127
1, 5404, Note_off_c, 1, 70, 0
1, 5407, Note_on_c, 1, 69, 127
1, 5659, Note_off_c, 1, 60, 0
1, 5659, Note_off_c, 1, 69, 0
1, 5660, Note_on_c, 1, 48, 127
1, 5912, Note_on_c, 1, 72, 127
1, 6164, Note_off_c, 1, 64, 0
1, 6164, Note_off_c, 1, 48, 0
1, 6164, Note_off_c, 1, 72, 0
1, 6165, Note_on_c, 1, 70, 127
1, 6165, Note_on_c, 1, 60, 127
1, 6165, Note_on_c, 1, 53, 127
1, 6218, Note_off_c, 1, 70, 0
1, 6218, Note_on_c, 1, 69, 127
1, 6271, Note_off_c, 1, 69, 0
1, 6668, Note_off_c, 1, 60, 0
1, 6673, Note_on_c, 1, 65, 127
1, 7178, Note_off_c, 1, 65, 0
1, 7179, Note_on_c, 1, 57, 127
1, 7684, Note_off_c, 1, 57, 0
1, 7685, Note_on_c, 1, 74, 127
1, 7685, Note_on_c, 1, 67, 127
1, 7748, Note_on_c, 1, 59, 127
1, 7810, Note_off_c, 1, 59, 0
1, 8188, Note_off_c, 1, 74, 0
1, 8189, Note_on_c, 1, 79, 127
1, 8692, Note_off_c, 1, 67, 0
1, 8692, Note_off_c, 1, 79, 0
1, 8693, Note_off_c, 1, 53, 0
1, 8693, Note_on_c, 1, 52, 127
1, 9197, Note_off_c, 1, 52, 0
1, 9198, Note_on_c, 1, 67, 127
1, 9198, Note_on_c, 1, 53, 127
1, 9451, Note_on_c, 1, 57, 127
1, 9451, Note_on_c, 1, 69, 127
1, 9699, Note_off_c, 1, 67, 0
1, 9703, Note_off_c, 1, 57, 0
1, 9704, Note_on_c, 1, 65, 127
1, 9704, Note_on_c, 1, 62, 127
1, 9952, Note_off_c, 1, 69, 0
1, 9957, Note_on_c, 1, 74, 127
1, 10209, Note_off_c, 1, 74, 0
1, 10463, Note_on_c, 1, 71, 127
1, 10714, Note_off_c, 1, 53, 0
1, 10715, Note_off_c, 1, 65, 0
1, 10715, Note_off_c, 1, 62, 0
1, 10715, Note_off_c, 1, 71, 0
1, 10716, Note_on_c, 1, 72, 127
1, 10716, Note_on_c, 1, 66, 127
1, 10716, Note_on_c, 1, 57, 127
1, 10716, Note_on_c, 1, 60, 127
1, 11221, Note_off_c, 1, 72, 0
1, 11221, Note_off_c, 1, 66, 0
1, 11221, Note_off_c, 1, 57, 0
1, 11221, Note_off_c, 1, 60, 0
1, 11222, Note_on_c, 1, 74, 127
1, 11222, Note_on_c, 1, 62, 127
1, 11222, Note_on_c, 1, 55, 127
1, 11222, Note_on_c, 1, 67, 127
1, 11347, Note_off_c, 1, 74, 0
1, 11348, Note_on_c, 1, 72, 127
1, 11410, Note_off_c, 1, 72, 0
1, 11725, Note_off_c, 1, 62, 0
1, 11725, Note_off_c, 1, 55, 0
1, 11726, Note_on_c, 1, 43, 127
1, 11979, Note_on_c, 1, 71, 127
1, 12231, Note_off_c, 1, 67, 0
1, 12231, Note_off_c, 1, 43, 0
1, 12231, Note_off_c, 1, 71, 0
1, 12232, Note_on_c, 1, 72, 127
1, 12232, Note_on_c, 1, 55, 127
1, 12232, Note_on_c, 1, 48, 127
1, 12232, Note_on_c, 1, 64, 127
1, 12294, Note_off_c, 1, 72, 0
1, 12295, Note_on_c, 1, 71, 127
1, 12357, Note_off_c, 1, 71, 0
1, 12736, Note_off_c, 1, 55, 0
1, 12737, Note_on_c, 1, 60, 127
1, 12989, Note_off_c, 1, 48, 0
1, 12990, Note_on_c, 1, 50, 127
1, 13238, Note_off_c, 1, 60, 0
1, 13242, Note_off_c, 1, 64, 0
1, 13242, Note_off_c, 1, 50, 0
1, 13243, Note_on_c, 1, 52, 127
1, 13243, Note_on_c, 1, 55, 127
1, 13495, Note_off_c, 1, 52, 0
1, 13496, Note_on_c, 1, 50, 127
1, 13744, Note_off_c, 1, 55, 0
1, 13748, Note_off_c, 1, 50, 0
1, 13749, Note_on_c, 1, 57, 127
1, 13749, Note_on_c, 1, 48, 127
1, 13848, Note_on_c, 1, 55, 127
1, 13855, Note_off_c, 1, 57, 0
1, 13951, Note_off_c, 1, 55, 0
1, 14250, Note_off_c, 1, 48, 0
1, 14255, Note_on_c, 1, 53, 127
1, 14756, Note_off_c, 1, 53, 0
1, 14761, Note_on_c, 1, 57, 127
1, 14761, Note_on_c, 1, 45, 127
1, 14866, Note_off_c, 1, 57, 0
1, 14866, Note_on_c, 1, 55, 127
1, 14971, Note_off_c, 1, 55, 0
1, 15107, Note_on_c, 1, 58, 127
1, 15261, Note_off_c, 1, 45, 0
1, 15266, Note_on_c, 1, 47, 127
1, 15269, Note_off_c, 1, 58, 0
1, 15765, Note_off_c, 1, 47, 0
1, 15770, Note_on_c, 1, 49, 127
1, 16023, Note_on_c, 1, 53, 127
1, 16271, Note_off_c, 1, 49, 0
1, 16275, Note_off_c, 1, 53, 0
1, 16276, Note_on_c, 1, 55, 127
1, 16276, Note_on_c, 1, 45, 127
1, 16381, Note_off_c, 1, 55, 0
1, 16381, Note_on_c, 1, 53, 127
1, 16486, Note_off_c, 1, 53, 0
1, 16612, Note_on_c, 1, 57, 127
1, 16770, Note_off_c, 1, 57, 0
1, 16775, Note_off_c, 1, 45, 0
1, 16780, Note_on_c, 1, 50, 127
1, 16780, Note_on_c, 1, 57, 127
1, 16780, Note_on_c, 1, 53, 127
1, 17281, Note_off_c, 1, 50, 0
1, 17285, Note_off_c, 1, 57, 0
1, 17286, Note_on_c, 1, 62, 127
1, 17538, Note_off_c, 1, 53, 0
1, 17539, Note_on_c, 1, 52, 127
1, 17791, Note_off_c, 1, 62, 0
1, 17791, Note_off_c, 1, 52, 0
1, 17792, Note_on_c, 1, 53, 127
1, 17792, Note_on_c, 1, 50, 127
1, 17792, Note_on_c, 1, 57, 127
1, 18044, Note_off_c, 1, 53, 0
1, 18045, Note_on_c, 1, 55, 127
1, 18293, Note_off_c, 1, 50, 0
1, 18297, Note_off_c, 1, 57, 0
1, 18297, Note_off_c, 1, 55, 0
1, 18298, Note_on_c, 1, 60, 127
1, 18298, Note_on_c, 1, 52, 127
1, 18298, Note_on_c, 1, 45, 127
1, 18403, Note_off_c, 1, 60, 0
1, 18403, Note_on_c, 1, 59, 127
1, 18508, Note_off_c, 1, 59, 0
1, 18802, Note_off_c, 1, 52, 0
1, 18802, Note_off_c, 1, 45, 0
1, 18803, Note_on_c, 1, 50, 127
1, 18803, Note_on_c, 1, 54, 127
1, 19308, Note_off_c, 1, 50, 0
1, 19309, Note_on_c, 1, 38, 127
1, 19648, Note_on_c, 1, 62, 127
1, 19797, Note_off_c, 1, 62, 0
1, 19814, Note_off_c, 1, 54, 0
1, 19814, Note_off_c, 1, 38, 0
1, 19815, Note_on_c, 1, 60, 127
1, 19815, Note_on_c, 1, 55, 127
1, 19815, Note_on_c, 1, 43, 127
1, 19877, Note_off_c, 1, 60, 0
1, 19878, Note_on_c, 1, 59, 127
1, 19940, Note_off_c, 1, 59, 0
1, 20066, Note_off_c, 1, 55, 0
1, 20067, Note_on_c, 1, 53, 127
1, 20314, Note_off_c, 1, 43, 0
1, 20318, Note_off_c, 1, 53, 0
1, 20319, Note_on_c, 1, 52, 127
1, 20319, Note_on_c, 1, 67, 127
1, 20571, Note_off_c, 1, 52, 0
1, 20572, Note_on_c, 1, 50, 127
1, 20824, Note_off_c, 1, 67, 0
1, 20824, Note_off_c, 1, 50, 0
1, 20825, Note_on_c, 1, 50, 127
1, 20825, Note_on_c, 1, 62, 127
1, 20887, Note_off_c, 1, 50, 0
1, 20888, Note_on_c, 1, 48, 127
1, 20950, Note_off_c, 1, 48, 0
1, 21077, Note_on_c, 1, 47, 127
1, 21329, Note_off_c, 1, 62, 0
1, 21329, Note_off_c, 1, 47, 0
1, 21330, Note_on_c, 1, 64, 127
1, 21330, Note_on_c, 1, 48, 127
1, 21582, Note_off_c, 1, 64, 0
1, 21582, Note_off_c, 1, 48, 0
1, 21583, Note_on_c, 1, 62, 127
1, 21583, Note_on_c, 1, 47, 127
1, 21835, Note_off_c, 1, 62, 0
1, 21835, Note_off_c, 1, 47, 0
1, 21836, Note_on_c, 1, 64, 127
1, 21836, Note_on_c, 1, 48, 127
1, 21898, Note_off_c, 1, 64, 0
1, 21898, Note_off_c, 1, 48, 0
1, 21899, Note_on_c, 1, 62, 127
1, 21899, Note_on_c, 1, 47, 127
1, 21961, Note_off_c, 1, 62, 0
1, 21961, Note_off_c, 1, 47, 0
1, 21962, Note_on_c, 1, 64, 127
1, 21962, Note_on_c, 1, 48, 127
1, 22087, Note_off_c, 1, 64, 0
1, 22087, Note_off_c, 1, 48, 0
1, 22088, Note_on_c, 1, 65, 127
1, 22088, Note_on_c, 1, 50, 127
1, 22340, Note_off_c, 1, 65, 0
1, 22340, Note_off_c, 1, 50, 0
1, 22341, Note_on_c, 1, 67, 127
1, 22341, Note_on_c, 1, 52, 127
1, 22593, Note_off_c, 1, 67, 0
1, 22593, Note_off_c, 1, 52, 0
1, 22594, Note_on_c, 1, 69, 127
1, 22594, Note_on_c, 1, 53, 127
1, 22846, Note_off_c, 1, 69, 0
1, 22846, Note_off_c, 1, 53, 0
1, 22847, Note_on_c, 1, 71, 127
1, 22847, Note_on_c, 1, 62, 127
1, 22847, Note_on_c, 1, 55, 127
1, 23099, Note_off_c, 1, 71, 0
1, 23100, Note_on_c, 1, 69, 127
1, 23348, Note_off_c, 1, 62, 0
1, 23352, Note_off_c, 1, 55, 0
1, 23352, Note_off_c, 1, 69, 0
1, 23353, Note_on_c, 1, 71, 127
1, 23353, Note_on_c, 1, 67, 127
1, 23353, Note_on_c, 1, 59, 127
1, 23432, Note_off_c, 1, 71, 0
1, 23432, Note_on_c, 1, 69, 127
1, 23511, Note_off_c, 1, 69, 0
1, 23606, Note_on_c, 1, 74, 127
1, 23854, Note_off_c, 1, 67, 0
1, 23858, Note_off_c, 1, 59, 0
1, 23858, Note_off_c, 1, 74, 0
1, 23859, Note_on_c, 1, 72, 127
1, 23859, Note_on_c, 1, 64, 127
1, 23859, Note_on_c, 1, 60, 127
1, 23921, Note_off_c, 1, 72, 0
1, 23922, Note_on_c, 1, 71, 127
1, 23984, Note_off_c, 1, 71, 0
1, 24359, Note_off_c, 1, 64, 0
1, 24363, Note_off_c, 1, 60, 0
1, 24364, Note_on_c, 1, 69, 127
1, 24364, Note_on_c, 1, 62, 127
1, 24364, Note_on_c, 1, 65, 127
1, 24616, Note_off_c, 1, 69, 0
1, 24617, Note_on_c, 1, 67, 127
1, 24869, Note_off_c, 1, 62, 0
1, 24869, Note_off_c, 1, 67, 0
1, 24870, Note_on_c, 1, 57, 127
1, 25123, Note_on_c, 1, 72, 127
1, 25375, Note_off_c, 1, 57, 0
1, 25375, Note_off_c, 1, 72, 0
1, 25376, Note_on_c, 1, 71, 127
1, 25438, Note_off_c, 1, 71, 0
1, 25879, Note_off_c, 1, 65, 0
1, 25881, Note_on_c, 1, 64, 127
1, 26387, Note_on_c, 1, 61, 127
1, 26640, Note_on_c, 1, 70, 127
1, 26892, Note_off_c, 1, 61, 0
1, 26892, Note_off_c, 1, 70, 0
1, 27397, Note_off_c, 1, 64, 0
1, 27399, Note_on_c, 1, 62, 127
1, 27399, Note_on_c, 1, 65, 127
1, 27399, Note_on_c, 1, 69, 127
1, 27651, Note_off_c, 1, 62, 0
1, 27652, Note_on_c, 1, 61, 127
1, 27904, Note_off_c, 1, 65, 0
1, 27904, Note_off_c, 1, 69, 0
1, 27904, Note_off_c, 1, 61, 0
1, 27905, Note_on_c, 1, 62, 127
1, 27905, Note_on_c, 1, 74, 127
1, 28157, Note_off_c, 1, 62, 0
1, 28158, Note_on_c, 1, 64, 127
1, 28410, Note_off_c, 1, 74, 0
1, 28410, Note_off_c, 1, 64, 0
1, 28411, Note_on_c, 1, 66, 127
1, 28411, Note_on_c, 1, 69, 127
1, 28663, Note_off_c, 1, 66, 0
1, 28664, Note_on_c, 1, 62, 127
1, 28916, Note_off_c, 1, 69, 0
1, 28916, Note_off_c, 1, 62, 0
1, 28917, Note_on_c, 1, 70, 127
1, 28917, Note_on_c, 1, 74, 127
1, 28917, Note_on_c, 1, 67, 127
1, 29169, Note_off_c, 1, 70, 0
1, 29170, Note_on_c, 1, 69, 127
1, 29418, Note_off_c, 1, 74, 0
1, 29422, Note_off_c, 1, 67, 0
1, 29422, Note_off_c, 1, 69, 0
1, 29423, Note_on_c, 1, 79, 127
1, 29423, Note_on_c, 1, 70, 127
1, 29423, Note_on_c, 1, 63, 127
1, 29502, Note_on_c, 1, 77, 127
1, 29503, Note_off_c, 1, 79, 0
1, 29581, Note_off_c, 1, 77, 0
1, 29673, Note_off_c, 1, 70, 0
1, 29676, Note_on_c, 1, 67, 127
1, 29926, Note_off_c, 1, 67, 0
1, 29927, Note_off_c, 1, 63, 0
1, 29928, Note_on_c, 1, 75, 127
1, 29928, Note_on_c, 1, 69, 127
1, 29928, Note_on_c, 1, 65, 127
1, 29990, Note_off_c, 1, 75, 0
1, 29991, Note_on_c, 1, 74, 127
1, 30053, Note_off_c, 1, 74, 0
1, 30178, Note_off_c, 1, 69, 0
1, 30180, Note_on_c, 1, 71, 127
1, 30306, Note_on_c, 1, 72, 127
1, 30368, Note_off_c, 1, 72, 0
1, 30430, Note_off_c, 1, 71, 0
1, 30431, Note_off_c, 1, 65, 0
1, 30432, Note_on_c, 1, 75, 127
1, 30432, Note_on_c, 1, 60, 127
1, 30432, Note_on_c, 1, 72, 127
1, 30494, Note_off_c, 1, 75, 0
1, 30495, Note_on_c, 1, 74, 127
1, 30557, Note_off_c, 1, 74, 0
1, 30683, Note_off_c, 1, 60, 0
1, 30684, Note_on_c, 1, 62, 127
1, 30932, Note_off_c, 1, 72, 0
1, 30936, Note_off_c, 1, 62, 0
1, 30937, Note_on_c, 1, 63, 127
1, 30937, Note_on_c, 1, 67, 127
1, 31189, Note_off_c, 1, 63, 0
1, 31438, Note_off_c, 1, 67, 0
1, 31443, Note_on_c, 1, 63, 127
1, 31443, Note_on_c, 1, 72, 127
1, 31695, Note_off_c, 1, 63, 0
1, 31696, Note_on_c, 1, 65, 127
1, 31948, Note_off_c, 1, 65, 0
1, 31949, Note_on_c, 1, 67, 127
1, 32128, Note_off_c, 1, 72, 0
1, 32202, Note_on_c, 1, 74, 127
1, 32450, Note_off_c, 1, 67, 0
1, 32454, Note_off_c, 1, 74, 0
1, 32455, Note_on_c, 1, 72, 127
1, 32455, Note_on_c, 1, 62, 127
1, 32517, Note_off_c, 1, 72, 0
1, 32518, Note_on_c, 1, 71, 127
1, 32580, Note_off_c, 1, 71, 0
1, 32707, Note_on_c, 1, 69, 127
1, 32955, Note_off_c, 1, 62, 0
1, 32959, Note_off_c, 1, 69, 0
1, 32960, Note_on_c, 1, 70, 127
1, 32960, Note_on_c, 1, 67, 127
1, 33022, Note_off_c, 1, 70, 0
1, 33023, Note_on_c, 1, 69, 127
1, 33085, Note_off_c, 1, 69, 0
1, 33212, Note_on_c, 1, 72, 127
1, 33460, Note_off_c, 1, 67, 0
1, 33464, Note_off_c, 1, 72, 0
1, 33465, Note_on_c, 1, 70, 127
1, 33465, Note_on_c, 1, 57, 127
1, 33527, Note_off_c, 1, 70, 0
1, 33528, Note_on_c, 1, 69, 127
1, 33590, Note_off_c, 1, 69, 0
1, 33717, Note_on_c, 1, 67, 127
1, 33969, Note_off_c, 1, 57, 0
1, 33969, Note_off_c, 1, 67, 0
1, 33970, Note_on_c, 1, 67, 127
1, 33970, Note_on_c, 1, 62, 127
1, 34032, Note_off_c, 1, 67, 0
1, 34043, Note_on_c, 1, 66, 127
1, 34105, Note_off_c, 1, 66, 0
1, 34252, Note_on_c, 1, 64, 127
1, 34476, Note_off_c, 1, 62, 0
1, 34476, Note_off_c, 1, 64, 0
1, 34477, Note_on_c, 1, 65, 127
1, 34477, Note_on_c, 1, 58, 127
1, 34477, Note_on_c, 1, 74, 127
1, 34729, Note_off_c, 1, 65, 0
1, 34730, Note_on_c, 1, 67, 127
1, 34982, Note_off_c, 1, 58, 0
1, 34982, Note_off_c, 1, 67, 0
1, 34983, Note_on_c, 1, 64, 127
1, 34983, Note_on_c, 1, 55, 127
1, 35235, Note_off_c, 1, 74, 0
1, 35236, Note_on_c, 1, 76, 127
1, 35484, Note_off_c, 1, 64, 0
1, 35488, Note_off_c, 1, 55, 0
1, 35488, Note_off_c, 1, 76, 0
1, 35489, Note_on_c, 1, 74, 127
1, 35489, Note_on_c, 1, 64, 127
1, 35489, Note_on_c, 1, 57, 127
1, 35551, Note_off_c, 1, 74, 0
1, 35552, Note_on_c, 1, 73, 127
1, 35614, Note_off_c, 1, 73, 0
1, 35741, Note_on_c, 1, 71, 127
1, 35989, Note_off_c, 1, 64, 0
1, 35993, Note_off_c, 1, 57, 0
1, 35993, Note_off_c, 1, 71, 0
1, 35994, Note_on_c, 1, 72, 127
1, 35994, Note_on_c, 1, 48, 127
1, 35994, Note_on_c, 1, 69, 127
1, 36056, Note_off_c, 1, 72, 0
1, 36057, Note_on_c, 1, 71, 127
1, 36119, Note_off_c, 1, 71, 0
1, 36246, Note_on_c, 1, 74, 127
1, 36498, Note_off_c, 1, 48, 0
1, 36498, Note_off_c, 1, 74, 0
1, 36499, Note_on_c, 1, 50, 127
1, 36562, Note_on_c, 1, 70, 127
1, 36624, Note_off_c, 1, 70, 0
1, 36750, Note_off_c, 1, 69, 0
1, 37003, Note_off_c, 1, 50, 0
1, 37004, Note_on_c, 1, 67, 127
1, 37004, Note_on_c, 1, 52, 127
1, 37256, Note_off_c, 1, 67, 0
1, 37257, Note_on_c, 1, 65, 127
1, 37509, Note_off_c, 1, 52, 0
1, 37509, Note_off_c, 1, 65, 0
1, 37510, Note_on_c, 1, 67, 127
1, 37510, Note_on_c, 1, 48, 127
1, 37763, Note_on_c, 1, 72, 127
1, 38011, Note_off_c, 1, 67, 0
1, 38015, Note_off_c, 1, 48, 0
1, 38015, Note_off_c, 1, 72, 0
1, 38016, Note_on_c, 1, 72, 127
1, 38016, Note_on_c, 1, 60, 127
1, 38016, Note_on_c, 1, 69, 127
1, 38016, Note_on_c, 1, 53, 127
1, 38521, Note_off_c, 1, 72, 0
1, 38521, Note_off_c, 1, 60, 0
1, 38522, Note_on_c, 1, 77, 127
1, 38522, Note_on_c, 1, 57, 127
1, 38627, Note_on_c, 1, 76, 127
1, 38640, Note_off_c, 1, 77, 0
1, 38745, Note_off_c, 1, 76, 0
1, 39026, Note_off_c, 1, 69, 0
1, 39026, Note_off_c, 1, 53, 0
1, 39026, Note_off_c, 1, 57, 0
1, 39027, Note_on_c, 1, 63, 127
1, 39027, Note_on_c, 1, 65, 127
1, 39532, Note_off_c, 1, 63, 0
1, 39533, Note_on_c, 1, 70, 127
1, 39533, Note_on_c, 1, 62, 127
1, 39533, Note_on_c, 1, 55, 127
1, 40038, Note_off_c, 1, 65, 0
1, 40038, Note_off_c, 1, 70, 0
1, 40038, Note_off_c, 1, 62, 0
1, 40038, Note_off_c, 1, 55, 0
1, 40039, Note_on_c, 1, 65, 127
1, 40039, Note_on_c, 1, 60, 127
1, 40039, Note_on_c, 1, 57, 127
1, 40039, Note_on_c, 1, 72, 127
1, 40101, Note_off_c, 1, 65, 0
1, 40102, Note_on_c, 1, 63, 127
1, 40164, Note_off_c, 1, 63, 0
1, 40291, Note_on_c, 1, 62, 127
1, 40543, Note_off_c, 1, 60, 0
1, 40543, Note_off_c, 1, 57, 0
1, 40543, Note_off_c, 1, 62, 0
1, 40544, Note_on_c, 1, 53, 127
1, 41049, Note_off_c, 1, 53, 0
1, 41050, Note_on_c, 1, 58, 127
1, 41050, Note_on_c, 1, 46, 127
1, 41554, Note_off_c, 1, 72, 0
1, 41555, Note_off_c, 1, 58, 0
1, 41556, Note_on_c, 1, 70, 127
1, 41808, Note_off_c, 1, 70, 0
1, 42314, Note_on_c, 1, 68, 127
1, 42565, Note_off_c, 1, 46, 0
1, 42566, Note_off_c, 1, 68, 0
1, 42567, Note_on_c, 1, 67, 127
1, 42567, Note_on_c, 1, 58, 127
1, 42567, Note_on_c, 1, 51, 127
1, 42567, Note_on_c, 1, 63, 127
1, 43072, Note_off_c, 1, 67, 0
1, 43072, Note_off_c, 1, 58, 0
1, 43072, Note_off_c, 1, 51, 0
1, 43073, Note_on_c, 1, 68, 127
1, 43073, Note_on_c, 1, 60, 127
1, 43073, Note_on_c, 1, 48, 127
1, 43325, Note_off_c, 1, 68, 0
1, 43326, Note_on_c, 1, 70, 127
1, 43578, Note_off_c, 1, 60, 0
1, 43578, Note_off_c, 1, 70, 0
1, 44082, Note_off_c, 1, 63, 0
1, 44083, Note_off_c, 1, 48, 0
1, 44084, Note_on_c, 1, 56, 127
1, 44084, Note_on_c, 1, 48, 127
1, 44084, Note_on_c, 1, 65, 127
1, 44084, Note_on_c, 1, 62, 127
1, 44589, Note_off_c, 1, 56, 0
1, 44589, Note_off_c, 1, 48, 0
1, 44590, Note_on_c, 1, 47, 127
1, 44590, Note_on_c, 1, 55, 127
1, 44842, Note_off_c, 1, 65, 0
1, 44843, Note_on_c, 1, 64, 127
1, 45095, Note_off_c, 1, 47, 0
1, 45095, Note_off_c, 1, 64, 0
1, 45096, Note_on_c, 1, 43, 127
1, 45349, Note_on_c, 1, 67, 127
1, 45600, Note_off_c, 1, 62, 0
1, 45601, Note_off_c, 1, 55, 0
1, 45601, Note_off_c, 1, 43, 0
1, 45601, Note_off_c, 1, 67, 0
1, 45602, Note_on_c, 1, 64, 127
1, 45602, Note_on_c, 1, 60, 127
1, 45602, Note_on_c, 1, 55, 127
1, 45602, Note_on_c, 1, 48, 127
1, 45854, Note_off_c, 1, 64, 0
1, 45855, Note_on_c, 1, 65, 127
1, 46103, Note_off_c, 1, 60, 0
1, 46107, Note_off_c, 1, 65, 0
1, 46108, Note_on_c, 1, 67, 127
1, 46170, Note_off_c, 1, 67, 0
1, 46360, Note_on_c, 1, 69, 127
1, 46612, Note_off_c, 1, 55, 0
1, 46612, Note_off_c, 1, 48, 0
1, 46612, Note_off_c, 1, 69, 0
1, 46613, Note_on_c, 1, 70, 127
1, 46613, Note_on_c, 1, 60, 127
1, 46613, Note_on_c, 1, 55, 127
1, 46613, Note_on_c, 1, 52, 127
1, 46675, Note_off_c, 1, 70, 0
1, 46676, Note_on_c, 1, 69, 127
1, 46738, Note_off_c, 1, 69, 0
1, 46865, Note_on_c, 1, 72, 127
1, 47113, Note_off_c, 1, 60, 0
1, 47117, Note_off_c, 1, 55, 0
1, 47117, Note_off_c, 1, 52, 0
1, 47117, Note_off_c, 1, 72, 0
1, 47118, Note_on_c, 1, 70, 127
1, 47118, Note_on_c, 1, 53, 127
1, 47118, Note_on_c, 1, 60, 127
1, 47226, Note_on_c, 1, 69, 127
1, 47229, Note_off_c, 1, 70, 0
1, 47296, Note_off_c, 1, 69, 0
1, 47439, Note_on_c, 1, 67, 127
1, 47509, Note_off_c, 1, 67, 0
1, 47653, Note_off_c, 1, 53, 0
1, 47654, Note_on_c, 1, 72, 127
1, 47654, Note_on_c, 1, 45, 127
1, 47737, Note_off_c, 1, 72, 0
1, 48331, Note_off_c, 1, 45, 0
1, 48333, Note_on_c, 1, 48, 127
1, 48672, Note_on_c, 1, 52, 127
1, 48898, Note_on_c, 1, 65, 127
1, 48981, Note_off_c, 1, 65, 0
1, 49008, Note_off_c, 1, 60, 0
1, 49019, Note_off_c, 1, 52, 0
1, 49028, Note_on_c, 1, 41, 127
1, 49028, Note_on_c, 1, 57, 127
1, 49032, Note_off_c, 1, 48, 0
1, 51628, Note_off_c, 1, 41, 0
1, 51628, Note_off_c, 1, 57, 0
1, 51894, Note_on_c, 1, 53, 127
1, 51894, Note_on_c, 1, 57, 127
1, 51953, Note_off_c, 1, 53, 0
1, 51955, Note_on_c, 1, 52, 127
1, 51985, Note_on_c, 1, 60, 127
1, 52014, Note_off_c, 1, 52, 0
1, 52077, Note_on_c, 1, 48, 127
1, 52077, Note_on_c, 1, 65, 127
1, 52258, Note_off_c, 1, 48, 0
1, 52260, Note_on_c, 1, 45, 127
1, 52611, Note_off_c, 1, 65, 0
1, 52619, Note_off_c, 1, 57, 0
1, 52627, Note_on_c, 1, 41, 127
1, 52635, Note_off_c, 1, 60, 0
1, 53351, Note_off_c, 1, 41, 0
1, 53357, Note_off_c, 1, 45, 0
1, 53420, Note_on_c, 1, 58, 127
1, 53479, Note_off_c, 1, 58, 0
1, 53481, Note_on_c, 1, 60, 127
1, 53542, Note_on_c, 1, 53, 127
1, 53723, Note_off_c, 1, 53, 0
1, 53725, Note_on_c, 1, 48, 127
1, 54091, Note_on_c, 1, 45, 127
1, 54177, Note_off_c, 1, 60, 0
1, 54274, Note_on_c, 1, 65, 127
1, 54455, Note_off_c, 1, 65, 0
1, 54815, Note_off_c, 1, 45, 0
1, 54821, Note_off_c, 1, 48, 0
1, 54823, Note_on_c, 1, 62, 127
1, 54884, Note_on_c, 1, 64, 127
1, 54943, Note_off_c, 1, 64, 0
1, 55189, Note_on_c, 1, 50, 127
1, 55547, Note_off_c, 1, 62, 0
1, 55555, Note_on_c, 1, 46, 127
1, 55738, Note_on_c, 1, 74, 127
1, 55919, Note_off_c, 1, 74, 0
1, 56285, Note_off_c, 1, 50, 0
1, 56285, Note_off_c, 1, 46, 0
1, 56287, Note_on_c, 1, 67, 127
1, 56287, Note_on_c, 1, 47, 127
1, 56287, Note_on_c, 1, 55, 127
1, 56468, Note_off_c, 1, 67, 0
1, 56653, Note_on_c, 1, 71, 127
1, 56834, Note_off_c, 1, 71, 0
1, 57749, Note_off_c, 1, 47, 0
1, 57749, Note_off_c, 1, 55, 0
1, 57751, Note_on_c, 1, 64, 127
1, 57751, Note_on_c, 1, 55, 127
1, 57751, Note_on_c, 1, 48, 127
1, 57934, Note_on_c, 1, 72, 127
1, 58115, Note_off_c, 1, 72, 0
1, 58475, Note_off_c, 1, 64, 0
1, 58481, Note_off_c, 1, 55, 0
1, 58483, Note_on_c, 1, 69, 127
1, 58483, Note_on_c, 1, 65, 127
1, 58483, Note_on_c, 1, 57, 127
1, 58664, Note_off_c, 1, 69, 0
1, 58845, Note_off_c, 1, 65, 0
1, 59213, Note_off_c, 1, 57, 0
1, 59215, Note_on_c, 1, 60, 127
1, 59577, Note_off_c, 1, 60, 0
1, 59581, Note_off_c, 1, 48, 0
1, 59581, Note_on_c, 1, 67, 127
1, 59581, Note_on_c, 1, 58, 127
1, 59581, Note_on_c, 1, 62, 127
1, 59581, Note_on_c, 1, 46, 127
1, 59762, Note_off_c, 1, 67, 0
1, 59762, Note_off_c, 1, 58, 0
1, 59943, Note_off_c, 1, 62, 0
1, 59943, Note_off_c, 1, 46, 0
1, 59947, Note_on_c, 1, 65, 127
1, 59947, Note_on_c, 1, 55, 127
1, 59947, Note_on_c, 1, 60, 127
1, 59947, Note_on_c, 1, 48, 127
1, 60069, Note_off_c, 1, 65, 0
1, 60069, Note_on_c, 1, 64, 127
1, 60126, Note_off_c, 1, 64, 0
1, 60311, Note_off_c, 1, 55, 0
1, 60313, Note_on_c, 1, 58, 127
1, 60671, Note_off_c, 1, 60, 0
1, 60671, Note_off_c, 1, 48, 0
1, 60677, Note_off_c, 1, 58, 0
1, 60679, Note_on_c, 1, 65, 127
1, 60679, Note_on_c, 1, 53, 127
1, 60862, Note_on_c, 1, 60, 127
1, 61045, Note_on_c, 1, 57, 127
1, 61228, Note_on_c, 1, 48, 127
1, 61411, Note_on_c, 1, 41, 127
1, 61579, Note_off_c, 1, 57, 0
1, 61594, Note_off_c, 1, 65, 0
1, 61594, Note_on_c, 1, 69, 127
1, 61746, Note_off_c, 1, 53, 0
1, 61754, Note_off_c, 1, 41, 0
1, 61762, Note_off_c, 1, 48, 0
1, 61775, Note_off_c, 1, 69, 0
1, 61777, Note_off_c, 1, 60, 0
1, 61777, Note_on_c, 1, 67, 127
1, 61836, Note_off_c, 1, 67, 0
1, 61838, Note_on_c, 1, 69, 127
1, 61897, Note_off_c, 1, 69, 0
1, 61899, Note_on_c, 1, 67, 127
1, 61960, Note_on_c, 1, 65, 127
1, 61962, Note_off_c, 1, 67, 0
1, 62141, Note_off_c, 1, 65, 0
1, 62143, Note_on_c, 1, 67, 127
1, 62326, Note_on_c, 1, 55, 127
1, 62507, Note_off_c, 1, 55, 0
1, 62509, Note_on_c, 1, 50, 127
1, 62867, Note_off_c, 1, 67, 0
1, 62875, Note_on_c, 1, 46, 127
1, 63058, Note_on_c, 1, 74, 127
1, 63239, Note_off_c, 1, 74, 0
1, 63405, Note_off_c, 1, 50, 0
1, 63409, Note_off_c, 1, 46, 0
1, 63425, Note_on_c, 1, 74, 127
1, 63606, Note_off_c, 1, 74, 0
1, 63608, Note_on_c, 1, 76, 127
1, 63667, Note_off_c, 1, 76, 0
1, 63669, Note_on_c, 1, 74, 127
1, 63728, Note_off_c, 1, 74, 0
1, 63730, Note_on_c, 1, 76, 127
1, 63791, Note_on_c, 1, 60, 127
1, 63972, Note_off_c, 1, 60, 0
1, 63974, Note_on_c, 1, 55, 127
1, 64340, Note_on_c, 1, 48, 127
1, 64426, Note_off_c, 1, 76, 0
1, 64704, Note_off_c, 1, 48, 0
1, 64706, Note_on_c, 1, 77, 127
1, 64706, Note_on_c, 1, 50, 127
1, 64765, Note_off_c, 1, 77, 0
1, 64887, Note_off_c, 1, 50, 0
1, 64889, Note_on_c, 1, 79, 127
1, 64889, Note_on_c, 1, 52, 127
1, 65070, Note_off_c, 1, 55, 0
1, 65070, Note_off_c, 1, 79, 0
1, 65070, Note_off_c, 1, 52, 0
1, 65072, Note_on_c, 1, 53, 127
1, 65072, Note_on_c, 1, 81, 127
1, 65131, Note_off_c, 1, 53, 0
1, 65255, Note_on_c, 1, 69, 127
1, 65434, Note_off_c, 1, 81, 0
1, 65438, Note_on_c, 1, 41, 127
1, 65438, Note_on_c, 1, 72, 127
1, 65617, Note_off_c, 1, 69, 0
1, 65705, Note_off_c, 1, 41, 0
1, 65800, Note_off_c, 1, 72, 0
1, 65908, Note_on_c, 1, 74, 127
1, 65998, Note_off_c, 1, 74, 0
1, 66013, Note_on_c, 1, 76, 127
1, 66146, Note_off_c, 1, 76, 0
1, 66169, Note_on_c, 1, 77, 127
1, 66169, Note_on_c, 1, 62, 127
1, 66169, Note_on_c, 1, 53, 127
1, 66169, Note_on_c, 1, 57, 127
1, 66350, Note_off_c, 1, 77, 0
1, 66352, Note_on_c, 1, 74, 127
1, 66533, Note_off_c, 1, 62, 0
1, 66533, Note_off_c, 1, 53, 0
1, 66533, Note_off_c, 1, 57, 0
1, 66533, Note_off_c, 1, 74, 0
1, 66535, Note_on_c, 1, 79, 127
1, 66535, Note_on_c, 1, 62, 127
1, 66535, Note_on_c, 1, 55, 127
1, 66535, Note_on_c, 1, 53, 127
1, 66716, Note_off_c, 1, 79, 0
1, 66718, Note_on_c, 1, 67, 127
1, 66899, Note_off_c, 1, 67, 0
1, 66901, Note_on_c, 1, 71, 127
1, 67082, Note_off_c, 1, 71, 0
1, 67265, Note_off_c, 1, 62, 0
1, 67265, Note_off_c, 1, 55, 0
1, 67265, Note_off_c, 1, 53, 0
1, 67267, Note_on_c, 1, 72, 127
1, 67267, Note_on_c, 1, 52, 127
1, 67267, Note_on_c, 1, 55, 127
1, 67267, Note_on_c, 1, 60, 127
1, 67448, Note_off_c, 1, 72, 0
1, 67450, Note_on_c, 1, 64, 127
1, 67631, Note_off_c, 1, 64, 0
1, 67633, Note_on_c, 1, 67, 127
1, 67814, Note_off_c, 1, 67, 0
1, 67997, Note_off_c, 1, 52, 0
1, 67997, Note_off_c, 1, 55, 0
1, 67999, Note_on_c, 1, 69, 127
1, 67999, Note_on_c, 1, 53, 127
1, 68180, Note_off_c, 1, 69, 0
1, 68182, Note_on_c, 1, 59, 127
1, 68363, Note_off_c, 1, 60, 0
1, 68363, Note_off_c, 1, 53, 0
1, 68363, Note_off_c, 1, 59, 0
1, 68365, Note_on_c, 1, 60, 127
1, 68365, Note_on_c, 1, 52, 127
1, 68424, Note_off_c, 1, 60, 0
1, 68426, Note_on_c, 1, 59, 127
1, 68485, Note_off_c, 1, 59, 0
1, 68546, Note_off_c, 1, 52, 0
1, 68548, Note_on_c, 1, 62, 127
1, 68548, Note_on_c, 1, 53, 127
1, 68729, Note_off_c, 1, 62, 0
1, 68729, Note_off_c, 1, 53, 0
1, 68731, Note_on_c, 1, 64, 127
1, 68731, Note_on_c, 1, 55, 127
1, 68853, Note_on_c, 1, 62, 127
1, 68861, Note_off_c, 1, 64, 0
1, 68911, Note_off_c, 1, 62, 0
1, 69098, Note_on_c, 1, 43, 127
1, 69281, Note_on_c, 1, 60, 127
1, 69456, Note_off_c, 1, 55, 0
1, 69460, Note_off_c, 1, 43, 0
1, 69462, Note_off_c, 1, 60, 0
1, 69464, Note_on_c, 1, 60, 127
1, 69647, Note_on_c, 1, 48, 127
1, 69828, Note_off_c, 1, 48, 0
1, 69830, Note_on_c, 1, 43, 127
1, 70188, Note_off_c, 1, 60, 0
1, 70196, Note_on_c, 1, 40, 127
1, 70381, Note_on_c, 1, 67, 127
1, 70562, Note_off_c, 1, 67, 0
1, 70924, Note_off_c, 1, 40, 0
1, 70926, Note_off_c, 1, 43, 0
1, 70944, Note_on_c, 1, 68, 127
1, 70944, Note_on_c, 1, 41, 127
1, 71003, Note_off_c, 1, 68, 0
1, 71127, Note_on_c, 1, 70, 127
1, 71308, Note_off_c, 1, 70, 0
1, 71310, Note_on_c, 1, 52, 127
1, 71674, Note_off_c, 1, 52, 0
1, 71676, Note_on_c, 1, 53, 127
1, 72042, Note_on_c, 1, 50, 127
1, 72400, Note_off_c, 1, 53, 0
1, 72406, Note_off_c, 1, 41, 0
1, 72406, Note_off_c, 1, 50, 0
1, 72408, Note_on_c, 1, 67, 127
1, 72408, Note_on_c, 1, 52, 127
1, 72408, Note_on_c, 1, 48, 127
1, 72589, Note_off_c, 1, 67, 0
1, 72591, Note_on_c, 1, 72, 127
1, 72772, Note_off_c, 1, 72, 0
1, 73132, Note_off_c, 1, 52, 0
1, 73132, Note_off_c, 1, 48, 0
1, 73140, Note_on_c, 1, 72, 127
1, 73199, Note_off_c, 1, 72, 0
1, 73201, Note_on_c, 1, 71, 127
1, 73260, Note_off_c, 1, 71, 0
1, 73262, Note_on_c, 1, 72, 127
1, 73321, Note_off_c, 1, 72, 0
1, 73323, Note_on_c, 1, 60, 127
1, 73504, Note_off_c, 1, 60, 0
1, 73506, Note_on_c, 1, 67, 127
1, 73506, Note_on_c, 1, 43, 127
1, 73506, Note_on_c, 1, 50, 127
1, 73506, Note_on_c, 1, 47, 127
1, 73506, Note_on_c, 1, 53, 127
1, 73565, Note_off_c, 1, 67, 0
1, 73567, Note_on_c, 1, 65, 127
1, 73626, Note_off_c, 1, 65, 0
1, 73870, Note_off_c, 1, 43, 0
1, 73870, Note_off_c, 1, 50, 0
1, 73870, Note_off_c, 1, 47, 0
1, 73870, Note_off_c, 1, 53, 0
1, 73872, Note_on_c, 1, 48, 127
1, 73872, Note_on_c, 1, 67, 127
1, 73931, Note_off_c, 1, 48, 0
1, 73933, Note_on_c, 1, 47, 127
1, 73992, Note_off_c, 1, 47, 0
1, 74055, Note_on_c, 1, 64, 127
1, 74238, Note_on_c, 1, 60, 127
1, 74604, Note_on_c, 1, 36, 127
1, 74968, Note_off_c, 1, 67, 0
1, 74970, Note_off_c, 1, 64, 0
1, 75151, Note_off_c, 1, 60, 0
1, 75169, Note_on_c, 1, 76, 127
1, 75334, Note_off_c, 1, 36, 0
1, 75350, Note_off_c, 1, 76, 0
1, 75352, Note_on_c, 1, 67, 127
1, 75352, Note_on_c, 1, 60, 127
1, 75443, Note_on_c, 1, 72, 127
1, 75534, Note_on_c, 1, 55, 127
1, 75534, Note_on_c, 1, 76, 127
1, 75715, Note_off_c, 1, 55, 0
1, 75717, Note_on_c, 1, 52, 127
1, 76068, Note_off_c, 1, 76, 0
1, 76076, Note_off_c, 1, 67, 0
1, 76082, Note_off_c, 1, 72, 0
1, 76084, Note_on_c, 1, 48, 127
1, 76450, Note_on_c, 1, 74, 127
1, 76509, Note_off_c, 1, 74, 0
1, 76618, Note_off_c, 1, 48, 0
1, 76624, Note_off_c, 1, 52, 0
1, 76815, Note_off_c, 1, 60, 0
1, 76817, Note_on_c, 1, 77, 127
1, 76876, Note_off_c, 1, 77, 0
1, 76878, Note_on_c, 1, 76, 127
1, 76937, Note_off_c, 1, 76, 0
1, 76939, Note_on_c, 1, 77, 127
1, 77000, Note_on_c, 1, 57, 127
1, 77183, Note_on_c, 1, 53, 127
1, 77366, Note_on_c, 1, 48, 127
1, 77549, Note_on_c, 1, 45, 127
1, 77635, Note_off_c, 1, 77, 0
1, 77732, Note_on_c, 1, 72, 127
1, 77900, Note_off_c, 1, 48, 0
1, 77908, Note_off_c, 1, 53, 0
1, 77914, Note_off_c, 1, 72, 0
1, 77916, Note_off_c, 1, 57, 0
1, 77916, Note_on_c, 1, 74, 127
1, 77975, Note_off_c, 1, 74, 0
1, 78099, Note_on_c, 1, 75, 127
1, 78274, Note_off_c, 1, 45, 0
1, 78280, Note_off_c, 1, 75, 0
1, 78282, Note_on_c, 1, 46, 127
1, 78465, Note_on_c, 1, 65, 127
1, 78646, Note_off_c, 1, 46, 0
1, 78646, Note_off_c, 1, 65, 0
1, 78648, Note_on_c, 1, 65, 127
1, 78648, Note_on_c, 1, 50, 127
1, 78648, Note_on_c, 1, 58, 127
1, 78829, Note_off_c, 1, 65, 0
1, 79012, Note_off_c, 1, 50, 0
1, 79014, Note_on_c, 1, 67, 127
1, 79014, Note_on_c, 1, 51, 127
1, 79195, Note_off_c, 1, 67, 0
1, 79197, Note_on_c, 1, 70, 127
1, 79372, Note_off_c, 1, 58, 0
1, 79378, Note_off_c, 1, 70, 0
1, 79380, Note_on_c, 1, 69, 127
1, 79380, Note_on_c, 1, 60, 127
1, 79439, Note_off_c, 1, 69, 0
1, 79738, Note_off_c, 1, 51, 0
1, 79744, Note_off_c, 1, 60, 0
1, 79746, Note_on_c, 1, 74, 127
1, 79746, Note_on_c, 1, 57, 127
1, 79746, Note_on_c, 1, 54, 127
1, 79746, Note_on_c, 1, 50, 127
1, 79927, Note_off_c, 1, 74, 0
1, 79929, Note_on_c, 1, 66, 127
1, 80110, Note_off_c, 1, 66, 0
1, 80280, Note_off_c, 1, 57, 0
1, 80280, Note_off_c, 1, 54, 0
1, 80280, Note_off_c, 1, 50, 0
1, 80295, Note_on_c, 1, 66, 127
1, 80476, Note_off_c, 1, 66, 0
1, 80478, Note_on_c, 1, 69, 127
1, 80537, Note_off_c, 1, 69, 0
1, 80539, Note_on_c, 1, 67, 127
1, 80598, Note_off_c, 1, 67, 0
1, 80600, Note_on_c, 1, 69, 127
1, 80661, Note_on_c, 1, 52, 127
1, 80842, Note_off_c, 1, 69, 0
1, 80842, Note_off_c, 1, 52, 0
1, 80844, Note_on_c, 1, 50, 127
1, 80844, Note_on_c, 1, 62, 127
1, 80903, Note_off_c, 1, 50, 0
1, 80905, Note_on_c, 1, 52, 127
1, 80964, Note_off_c, 1, 52, 0
1, 81027, Note_on_c, 1, 48, 127
1, 81208, Note_off_c, 1, 48, 0
1, 81210, Note_on_c, 1, 47, 127
1, 81210, Note_on_c, 1, 55, 127
1, 81391, Note_off_c, 1, 62, 0
1, 81393, Note_on_c, 1, 71, 127
1, 81574, Note_off_c, 1, 71, 0
1, 81576, Note_on_c, 1, 74, 127
1, 81934, Note_off_c, 1, 47, 0
1, 81934, Note_off_c, 1, 55, 0
1, 81942, Note_on_c, 1, 67, 127
1, 82308, Note_on_c, 1, 57, 127
1, 82476, Note_off_c, 1, 67, 0
1, 82490, Note_off_c, 1, 57, 0
1, 82492, Note_off_c, 1, 74, 0
1, 82492, Note_on_c, 1, 59, 127
1, 82673, Note_off_c, 1, 59, 0
1, 82675, Note_on_c, 1, 60, 127
1, 82734, Note_off_c, 1, 60, 0
1, 82736, Note_on_c, 1, 59, 127
1, 82795, Note_off_c, 1, 59, 0
1, 82797, Note_on_c, 1, 60, 127
1, 82858, Note_on_c, 1, 67, 127
1, 83039, Note_off_c, 1, 67, 0
1, 83407, Note_on_c, 1, 72, 127
1, 83466, Note_off_c, 1, 72, 0
1, 83468, Note_on_c, 1, 71, 127
1, 83521, Note_off_c, 1, 60, 0
1, 83527, Note_off_c, 1, 71, 0
1, 83529, Note_on_c, 1, 72, 127
1, 83590, Note_on_c, 1, 50, 127
1, 83771, Note_off_c, 1, 50, 0
1, 83773, Note_on_c, 1, 48, 127
1, 83832, Note_off_c, 1, 48, 0
1, 83956, Note_on_c, 1, 46, 127
1, 84137, Note_off_c, 1, 46, 0
1, 84139, Note_on_c, 1, 53, 127
1, 84139, Note_on_c, 1, 45, 127
1, 84225, Note_off_c, 1, 72, 0
1, 84825, Note_off_c, 1, 53, 0
1, 84825, Note_off_c, 1, 45, 0
1, 84871, Note_on_c, 1, 77, 127
1, 84930, Note_off_c, 1, 77, 0
1, 84932, Note_on_c, 1, 76, 127
1, 84991, Note_off_c, 1, 76, 0
1, 84993, Note_on_c, 1, 77, 127
1, 85054, Note_on_c, 1, 57, 127
1, 85235, Note_off_c, 1, 57, 0
1, 85237, Note_on_c, 1, 55, 127
1, 85296, Note_off_c, 1, 55, 0
1, 85420, Note_on_c, 1, 53, 127
1, 85527, Note_off_c, 1, 77, 0
1, 85601, Note_off_c, 1, 53, 0
1, 85603, Note_on_c, 1, 58, 127
1, 85786, Note_on_c, 1, 65, 127
1, 85967, Note_off_c, 1, 65, 0
1, 85969, Note_on_c, 1, 67, 127
1, 86028, Note_off_c, 1, 67, 0
1, 86152, Note_on_c, 1, 69, 127
1, 86327, Note_off_c, 1, 58, 0
1, 86333, Note_off_c, 1, 69, 0
1, 86335, Note_on_c, 1, 70, 127
1, 86516, Note_off_c, 1, 70, 0
1, 86518, Note_on_c, 1, 72, 127
1, 86699, Note_off_c, 1, 72, 0
1, 86701, Note_on_c, 1, 70, 127
1, 86701, Note_on_c, 1, 46, 127
1, 86701, Note_on_c, 1, 50, 127
1, 86701, Note_on_c, 1, 53, 127
1, 86760, Note_off_c, 1, 70, 0
1, 86762, Note_on_c, 1, 72, 127
1, 86821, Note_off_c, 1, 72, 0
1, 86884, Note_on_c, 1, 69, 127
1, 87065, Note_off_c, 1, 46, 0
1, 87065, Note_off_c, 1, 50, 0
1, 87065, Note_off_c, 1, 53, 0
1, 87065, Note_off_c, 1, 69, 0
1, 87067, Note_on_c, 1, 67, 127
1, 87067, Note_on_c, 1, 55, 127
1, 87067, Note_on_c, 1, 50, 127
1, 87067, Note_on_c, 1, 47, 127
1, 87248, Note_off_c, 1, 67, 0
1, 87250, Note_on_c, 1, 74, 127
1, 87431, Note_off_c, 1, 74, 0
1, 87791, Note_off_c, 1, 55, 0
1, 87791, Note_off_c, 1, 50, 0
1, 87791, Note_off_c, 1, 47, 0
1, 87799, Note_on_c, 1, 79, 127
1, 87858, Note_off_c, 1, 79, 0
1, 87860, Note_on_c, 1, 77, 127
1, 87919, Note_off_c, 1, 77, 0
1, 87921, Note_on_c, 1, 79, 127
1, 87982, Note_on_c, 1, 55, 127
1, 88163, Note_off_c, 1, 55, 0
1, 88165, Note_on_c, 1, 57, 127
1, 88346, Note_off_c, 1, 57, 0
1, 88348, Note_on_c, 1, 59, 127
1, 88455, Note_off_c, 1, 79, 0
1, 88529, Note_off_c, 1, 59, 0
1, 88531, Note_on_c, 1, 60, 127
1, 88714, Note_on_c, 1, 67, 127
1, 88895, Note_off_c, 1, 60, 0
1, 88895, Note_off_c, 1, 67, 0
1, 88897, Note_on_c, 1, 64, 127
1, 88897, Note_on_c, 1, 48, 127
1, 89078, Note_off_c, 1, 64, 0
1, 89080, Note_on_c, 1, 67, 127
1, 89259, Note_off_c, 1, 48, 0
1, 89261, Note_off_c, 1, 67, 0
1, 89263, Note_on_c, 1, 60, 127
1, 89446, Note_on_c, 1, 58, 127
1, 89627, Note_off_c, 1, 58, 0
1, 89629, Note_on_c, 1, 57, 127
1, 89688, Note_off_c, 1, 57, 0
1, 89812, Note_on_c, 1, 55, 127
1, 89987, Note_off_c, 1, 60, 0
1, 89993, Note_off_c, 1, 55, 0
1, 89995, Note_on_c, 1, 54, 127
1, 90178, Note_on_c, 1, 69, 127
1, 90357, Note_off_c, 1, 54, 0
1, 90359, Note_off_c, 1, 69, 0
1, 90361, Note_on_c, 1, 69, 127
1, 90542, Note_off_c, 1, 69, 0
1, 90544, Note_on_c, 1, 69, 127
1, 90725, Note_off_c, 1, 69, 0
1, 90727, Note_on_c, 1, 74, 127
1, 90786, Note_off_c, 1, 74, 0
1, 90788, Note_on_c, 1, 72, 127
1, 90847, Note_off_c, 1, 72, 0
1, 90849, Note_on_c, 1, 74, 127
1, 90910, Note_on_c, 1, 50, 127
1, 91091, Note_off_c, 1, 50, 0
1, 91093, Note_on_c, 1, 52, 127
1, 91274, Note_off_c, 1, 52, 0
1, 91276, Note_on_c, 1, 54, 127
1, 91457, Note_off_c, 1, 54, 0
1, 91459, Note_on_c, 1, 55, 127
1, 91573, Note_off_c, 1, 74, 0
1, 91642, Note_on_c, 1, 66, 127
1, 91823, Note_off_c, 1, 66, 0
1, 91825, Note_on_c, 1, 67, 127
1, 91884, Note_off_c, 1, 67, 0
1, 92008, Note_on_c, 1, 69, 127
1, 92183, Note_off_c, 1, 55, 0
1, 92189, Note_off_c, 1, 69, 0
1, 92191, Note_on_c, 1, 70, 127
1, 92250, Note_off_c, 1, 70, 0
1, 92252, Note_on_c, 1, 69, 127
1, 92311, Note_off_c, 1, 69, 0
1, 92313, Note_on_c, 1, 70, 127
1, 92374, Note_on_c, 1, 57, 127
1, 92555, Note_off_c, 1, 57, 0
1, 92557, Note_on_c, 1, 55, 127
1, 92616, Note_off_c, 1, 55, 0
1, 92740, Note_on_c, 1, 53, 127
1, 92921, Note_off_c, 1, 53, 0
1, 92923, Note_on_c, 1, 52, 127
1, 93009, Note_off_c, 1, 70, 0
1, 93106, Note_on_c, 1, 67, 127
1, 93287, Note_off_c, 1, 67, 0
1, 93647, Note_off_c, 1, 52, 0
1, 93655, Note_on_c, 1, 72, 127
1, 93714, Note_off_c, 1, 72, 0
1, 93716, Note_on_c, 1, 70, 127
1, 93775, Note_off_c, 1, 70, 0
1, 93777, Note_on_c, 1, 72, 127
1, 93838, Note_on_c, 1, 48, 127
1, 94019, Note_off_c, 1, 48, 0
1, 94021, Note_on_c, 1, 50, 127
1, 94202, Note_off_c, 1, 50, 0
1, 94204, Note_on_c, 1, 52, 127
1, 94385, Note_off_c, 1, 52, 0
1, 94387, Note_on_c, 1, 53, 127
1, 94568, Note_off_c, 1, 72, 0
1, 94751, Note_off_c, 1, 53, 0
1, 94753, Note_on_c, 1, 74, 127
1, 94753, Note_on_c, 1, 51, 127
1, 94934, Note_off_c, 1, 74, 0
1, 94936, Note_on_c, 1, 75, 127
1, 95117, Note_off_c, 1, 51, 0
1, 95117, Note_off_c, 1, 75, 0
1, 95119, Note_on_c, 1, 50, 127
1, 95119, Note_on_c, 1, 77, 127
1, 95302, Note_on_c, 1, 65, 127
1, 95483, Note_off_c, 1, 50, 0
1, 95483, Note_off_c, 1, 65, 0
1, 95485, Note_on_c, 1, 48, 127
1, 95843, Note_off_c, 1, 77, 0
1, 95849, Note_off_c, 1, 48, 0
1, 95851, Note_on_c, 1, 46, 127
1, 95851, Note_on_c, 1, 74, 127
1, 96034, Note_on_c, 1, 65, 127
1, 96215, Note_off_c, 1, 46, 0
1, 96215, Note_off_c, 1, 65, 0
1, 96217, Note_on_c, 1, 58, 127
1, 96575, Note_off_c, 1, 74, 0
1, 96581, Note_off_c, 1, 58, 0
1, 96583, Note_on_c, 1, 57, 127
1, 96583, Note_on_c, 1, 72, 127
1, 96766, Note_on_c, 1, 65, 127
1, 96947, Note_off_c, 1, 57, 0
1, 96947, Note_off_c, 1, 65, 0
1, 96949, Note_on_c, 1, 53, 127
1, 97307, Note_off_c, 1, 72, 0
1, 97313, Note_off_c, 1, 53, 0
1, 97315, Note_on_c, 1, 74, 127
1, 97315, Note_on_c, 1, 58, 127
1, 97498, Note_on_c, 1, 65, 127
1, 97677, Note_off_c, 1, 74, 0
1, 97679, Note_off_c, 1, 58, 0
1, 97679, Note_off_c, 1, 65, 0
1, 97681, Note_on_c, 1, 76, 127
1, 97681, Note_on_c, 1, 46, 127
1, 97864, Note_on_c, 1, 67, 127
1, 98043, Note_off_c, 1, 76, 0
1, 98045, Note_off_c, 1, 46, 0
1, 98045, Note_off_c, 1, 67, 0
1, 98047, Note_on_c, 1, 77, 127
1, 98047, Note_on_c, 1, 45, 127
1, 98230, Note_on_c, 1, 69, 127
1, 98409, Note_off_c, 1, 77, 0
1, 98411, Note_off_c, 1, 45, 0
1, 98411, Note_off_c, 1, 69, 0
1, 98413, Note_on_c, 1, 79, 127
1, 98413, Note_on_c, 1, 43, 127
1, 98596, Note_on_c, 1, 71, 127
1, 98775, Note_off_c, 1, 79, 0
1, 98777, Note_off_c, 1, 43, 0
1, 98777, Note_off_c, 1, 71, 0
1, 98779, Note_on_c, 1, 48, 127
1, 98779, Note_on_c, 1, 76, 127
1, 98962, Note_on_c, 1, 67, 127
1, 99143, Note_off_c, 1, 67, 0
1, 99503, Note_off_c, 1, 48, 0
1, 99511, Note_on_c, 1, 72, 127
1, 99570, Note_off_c, 1, 72, 0
1, 99572, Note_on_c, 1, 70, 127
1, 99631, Note_off_c, 1, 70, 0
1, 99694, Note_on_c, 1, 60, 127
1, 99875, Note_off_c, 1, 60, 0
1, 100241, Note_off_c, 1, 76, 0
1, 100243, Note_on_c, 1, 57, 127
1, 100426, Note_on_c, 1, 77, 127
1, 100607, Note_off_c, 1, 77, 0
1, 100967, Note_off_c, 1, 57, 0
1, 100975, Note_on_c, 1, 72, 127
1, 101034, Note_off_c, 1, 72, 0
1, 101036, Note_on_c, 1, 70, 127
1, 101095, Note_off_c, 1, 70, 0
1, 101097, Note_on_c, 1, 72, 127
1, 101158, Note_on_c, 1, 57, 127
1, 101339, Note_off_c, 1, 57, 0
1, 101341, Note_on_c, 1, 55, 127
1, 101400, Note_off_c, 1, 55, 0
1, 101524, Note_on_c, 1, 53, 127
1, 101705, Note_off_c, 1, 53, 0
1, 101707, Note_on_c, 1, 60, 127
1, 101707, Note_on_c, 1, 52, 127
1, 101793, Note_off_c, 1, 72, 0
1, 102437, Note_off_c, 1, 60, 0
1, 102437, Note_off_c, 1, 52, 0
1, 102439, Note_on_c, 1, 69, 127
1, 102439, Note_on_c, 1, 53, 127
1, 102620, Note_off_c, 1, 69, 0
1, 102622, Note_on_c, 1, 72, 127
1, 102803, Note_off_c, 1, 72, 0
1, 102805, Note_on_c, 1, 45, 127
1, 103169, Note_off_c, 1, 45, 0
1, 103171, Note_on_c, 1, 74, 127
1, 103171, Note_on_c, 1, 46, 127
1, 103247, Note_off_c, 1, 74, 0
1, 103399, Note_on_c, 1, 76, 127
1, 103494, Note_off_c, 1, 76, 0
1, 103534, Note_off_c, 1, 46, 0
1, 103536, Note_on_c, 1, 77, 127
1, 103536, Note_on_c, 1, 50, 127
1, 103717, Note_off_c, 1, 77, 0
1, 103719, Note_on_c, 1, 70, 127
1, 103900, Note_off_c, 1, 50, 0
1, 103900, Note_off_c, 1, 70, 0
1, 103902, Note_on_c, 1, 48, 127
1, 104268, Note_off_c, 1, 53, 0
1, 104268, Note_on_c, 1, 67, 127
1, 104268, Note_on_c, 1, 52, 127
1, 104449, Note_off_c, 1, 67, 0
1, 104626, Note_off_c, 1, 48, 0
1, 104630, Note_off_c, 1, 52, 0
1, 104634, Note_on_c, 1, 65, 127
1, 104693, Note_off_c, 1, 65, 0
1, 104695, Note_on_c, 1, 64, 127
1, 104754, Note_off_c, 1, 64, 0
1, 104756, Note_on_c, 1, 65, 127
1, 104817, Note_on_c, 1, 53, 127
1, 104998, Note_off_c, 1, 53, 0
1, 105366, Note_on_c, 1, 41, 127
1, 105480, Note_off_c, 1, 65, 0
1, 105547, Note_off_c, 1, 41, 0
1, 105549, Note_on_c, 1, 45, 127
1, 105730, Note_off_c, 1, 45, 0
1, 105732, Note_on_c, 1, 48, 127
1, 105913, Note_off_c, 1, 48, 0
1, 106297, Note_on_c, 1, 69, 127
1, 106480, Note_on_c, 1, 60, 127
1, 106659, Note_off_c, 1, 69, 0
1, 106842, Note_off_c, 1, 60, 0
1, 106846, Note_on_c, 1, 62, 127
1, 107029, Note_on_c, 1, 70, 127
1, 107208, Note_off_c, 1, 62, 0
1, 107212, Note_on_c, 1, 64, 127
1, 107212, Note_on_c, 1, 46, 127
1, 107212, Note_on_c, 1, 52, 127
1, 107391, Note_off_c, 1, 70, 0
1, 107395, Note_on_c, 1, 72, 127
1, 107574, Note_off_c, 1, 64, 0
1, 107576, Note_off_c, 1, 46, 0
1, 107576, Note_off_c, 1, 52, 0
1, 107576, Note_off_c, 1, 72, 0
1, 107578, Note_on_c, 1, 69, 127
1, 107578, Note_on_c, 1, 65, 127
1, 107578, Note_on_c, 1, 41, 127
1, 107578, Note_on_c, 1, 45, 127
1, 107578, Note_on_c, 1, 48, 127
1, 107578, Note_on_c, 1, 53, 127
1, 107785, Note_off_c, 1, 69, 0
1, 107785, Note_off_c, 1, 65, 0
1, 107787, Note_on_c, 1, 77, 127
1, 107994, Note_off_c, 1, 77, 0
1, 108484, Note_on_c, 1, 76, 127
1, 108552, Note_off_c, 1, 76, 0
1, 108831, Note_off_c, 1, 41, 0
1, 108831, Note_off_c, 1, 45, 0
1, 108831, Note_off_c, 1, 48, 0
1, 108831, Note_off_c, 1, 53, 0
1, 108833, Note_on_c, 1, 70, 127
1, 108833, Note_on_c, 1, 67, 127
1, 108833, Note_on_c, 1, 64, 127
1, 108833, Note_on_c, 1, 72, 127
1, 109040, Note_off_c, 1, 70, 0
1, 109040, Note_off_c, 1, 67, 0
1, 109040, Note_off_c, 1, 64, 0
1, 109040, Note_off_c, 1, 72, 0
1, 109042, Note_on_c, 1, 64, 127
1, 109042, Note_on_c, 1, 67, 127
1, 109042, Note_on_c, 1, 70, 127
1, 109042, Note_on_c, 1, 72, 127
1, 109249, Note_off_c, 1, 64, 0
1, 109249, Note_off_c, 1, 67, 0
1, 109249, Note_off_c, 1, 70, 0
1, 109249, Note_off_c, 1, 72, 0
1, 109251, Note_on_c, 1, 65, 127
1, 109251, Note_on_c, 1, 69, 127
1, 109251, Note_on_c, 1, 72, 127
1, 109460, Note_on_c, 1, 60, 127
1, 109460, Note_on_c, 1, 41, 127
1, 109669, Note_on_c, 1, 45, 127
1, 109878, Note_on_c, 1, 48, 127
1, 110087, Note_on_c, 1, 53, 127
1, 111551, Note_off_c, 1, 48, 0
1, 111673, Note_off_c, 1, 60, 0
1, 111758, Note_off_c, 1, 65, 0
1, 111758, Note_off_c, 1, 69, 0
1, 111758, Note_off_c, 1, 72, 0
1, 111762, Note_off_c, 1, 45, 0
1, 111967, Note_off_c, 1, 41, 0
1, 112091, Note_off_c, 1, 53, 0
1, 113856, Note_on_c, 1, 77, 127
1, 114273, Note_off_c, 1, 77, 0
1, 114275, Note_on_c, 1, 77, 127
1, 114275, Note_on_c, 1, 72, 127
1, 114275, Note_on_c, 1, 69, 127
1, 114275, Note_on_c, 1, 53, 127
1, 114760, Note_on_c, 1, 57, 127
1, 115001, Note_off_c, 1, 77, 0
1, 115001, Note_off_c, 1, 72, 0
1, 115001, Note_off_c, 1, 69, 0
1, 115243, Note_off_c, 1, 57, 0
1, 115244, Note_on_c, 1, 60, 127
1, 115487, Note_on_c, 1, 65, 127
1, 115728, Note_off_c, 1, 60, 0
1, 115728, Note_off_c, 1, 65, 0
1, 115729, Note_on_c, 1, 74, 127
1, 115729, Note_on_c, 1, 58, 127
1, 115810, Note_off_c, 1, 74, 0
1, 115970, Note_off_c, 1, 58, 0
1, 116206, Note_off_c, 1, 53, 0
1, 116213, Note_on_c, 1, 72, 127
1, 116213, Note_on_c, 1, 55, 127
1, 116380, Note_on_c, 1, 70, 127
1, 116394, Note_off_c, 1, 72, 0
1, 116439, Note_off_c, 1, 70, 0
1, 116696, Note_on_c, 1, 52, 127
1, 116939, Note_on_c, 1, 69, 127
1, 117180, Note_off_c, 1, 55, 0
1, 117180, Note_off_c, 1, 52, 0
1, 117180, Note_off_c, 1, 69, 0
1, 117181, Note_on_c, 1, 53, 127
1, 117181, Note_on_c, 1, 70, 127
1, 117422, Note_off_c, 1, 53, 0
1, 117423, Note_on_c, 1, 55, 127
1, 117660, Note_off_c, 1, 70, 0
1, 117664, Note_off_c, 1, 55, 0
1, 117664, Note_on_c, 1, 69, 127
1, 117665, Note_on_c, 1, 57, 127
1, 117841, Note_off_c, 1, 69, 0
1, 117908, Note_on_c, 1, 72, 127
1, 118149, Note_off_c, 1, 57, 0
1, 118149, Note_off_c, 1, 72, 0
1, 118150, Note_on_c, 1, 70, 127
1, 118150, Note_on_c, 1, 53, 127
1, 118231, Note_on_c, 1, 72, 127
1, 118234, Note_off_c, 1, 70, 0
1, 118316, Note_off_c, 1, 72, 0
1, 118393, Note_on_c, 1, 69, 127
1, 118634, Note_off_c, 1, 53, 0
1, 118634, Note_off_c, 1, 69, 0
1, 118635, Note_on_c, 1, 74, 127
1, 118635, Note_on_c, 1, 58, 127
1, 118694, Note_off_c, 1, 74, 0
1, 118695, Note_on_c, 1, 72, 127
1, 118754, Note_off_c, 1, 72, 0
1, 118876, Note_on_c, 1, 75, 127
1, 119117, Note_off_c, 1, 75, 0
1, 119118, Note_on_c, 1, 46, 127
1, 119359, Note_off_c, 1, 58, 0
1, 119360, Note_on_c, 1, 57, 127
1, 119601, Note_off_c, 1, 57, 0
1, 119662, Note_on_c, 1, 55, 127
1, 119662, Note_on_c, 1, 70, 127
1, 119721, Note_off_c, 1, 55, 0
1, 119721, Note_off_c, 1, 70, 0
1, 119842, Note_on_c, 1, 53, 127
1, 119842, Note_on_c, 1, 69, 127
1, 120083, Note_off_c, 1, 46, 0
1, 120083, Note_off_c, 1, 53, 0
1, 120083, Note_off_c, 1, 69, 0
1, 120084, Note_on_c, 1, 69, 127
1, 120084, Note_on_c, 1, 52, 127
1, 120084, Note_on_c, 1, 46, 127
1, 120228, Note_on_c, 1, 67, 127
1, 120256, Note_off_c, 1, 69, 0
1, 120288, Note_off_c, 1, 67, 0
1, 120437, Note_on_c, 1, 65, 127
1, 120496, Note_off_c, 1, 65, 0
1, 120566, Note_off_c, 1, 52, 0
1, 120566, Note_off_c, 1, 46, 0
1, 120567, Note_on_c, 1, 45, 127
1, 120567, Note_on_c, 1, 53, 127
1, 120567, Note_on_c, 1, 69, 127
1, 121051, Note_off_c, 1, 45, 0
1, 121051, Note_off_c, 1, 53, 0
1, 121051, Note_off_c, 1, 69, 0
1, 121052, Note_on_c, 1, 72, 127
1, 121052, Note_on_c, 1, 43, 127
1, 121052, Note_on_c, 1, 52, 127
1, 121132, Note_off_c, 1, 72, 0
1, 121133, Note_on_c, 1, 70, 127
1, 121213, Note_off_c, 1, 70, 0
1, 121537, Note_off_c, 1, 43, 0
1, 121537, Note_off_c, 1, 52, 0
1, 121538, Note_on_c, 1, 69, 127
1, 121538, Note_on_c, 1, 41, 127
1, 121538, Note_on_c, 1, 53, 127
1, 121779, Note_off_c, 1, 69, 0
1, 121780, Note_on_c, 1, 70, 127
1, 121900, Note_off_c, 1, 70, 0
1, 121901, Note_on_c, 1, 72, 127
1, 122021, Note_off_c, 1, 41, 0
1, 122021, Note_off_c, 1, 72, 0
1, 122022, Note_on_c, 1, 48, 127
1, 122508, Note_off_c, 1, 53, 0
1, 122509, Note_on_c, 1, 52, 127
1, 122751, Note_on_c, 1, 67, 127
1, 122871, Note_off_c, 1, 67, 0
1, 122872, Note_on_c, 1, 65, 127
1, 122992, Note_off_c, 1, 48, 0
1, 122992, Note_off_c, 1, 52, 0
1, 122992, Note_off_c, 1, 65, 0
1, 122993, Note_on_c, 1, 65, 127
1, 122993, Note_on_c, 1, 53, 127
1, 123236, Note_on_c, 1, 60, 127
1, 123479, Note_on_c, 1, 57, 127
1, 123479, Note_on_c, 1, 41, 127
1, 123719, Note_off_c, 1, 57, 0
1, 123720, Note_off_c, 1, 65, 0
1, 123720, Note_off_c, 1, 60, 0
1, 123737, Note_on_c, 1, 69, 127
1, 123962, Note_off_c, 1, 53, 0
1, 123962, Note_off_c, 1, 41, 0
1, 123978, Note_off_c, 1, 69, 0
1, 123979, Note_on_c, 1, 69, 127
1, 123979, Note_on_c, 1, 53, 127
1, 124038, Note_off_c, 1, 69, 0
1, 124039, Note_on_c, 1, 67, 127
1, 124098, Note_off_c, 1, 67, 0
1, 124219, Note_on_c, 1, 65, 127
1, 124460, Note_off_c, 1, 53, 0
1, 124460, Note_off_c, 1, 65, 0
1, 124461, Note_on_c, 1, 67, 127
1, 124461, Note_on_c, 1, 52, 127
1, 124520, Note_off_c, 1, 67, 0
1, 124534, Note_on_c, 1, 65, 127
1, 124593, Note_off_c, 1, 65, 0
1, 124703, Note_on_c, 1, 55, 127
1, 124944, Note_off_c, 1, 55, 0
1, 124945, Note_on_c, 1, 60, 127
1, 125187, Note_on_c, 1, 74, 127
1, 125428, Note_off_c, 1, 52, 0
1, 125428, Note_off_c, 1, 60, 0
1, 125428, Note_off_c, 1, 74, 0
1, 125429, Note_on_c, 1, 74, 127
1, 125429, Note_on_c, 1, 59, 127
1, 125429, Note_on_c, 1, 50, 127
1, 125670, Note_off_c, 1, 74, 0
1, 125912, Note_off_c, 1, 59, 0
1, 125912, Note_off_c, 1, 50, 0
1, 125913, Note_on_c, 1, 76, 127
1, 125913, Note_on_c, 1, 60, 127
1, 125972, Note_off_c, 1, 76, 0
1, 125973, Note_on_c, 1, 74, 127
1, 126032, Note_off_c, 1, 74, 0
1, 126154, Note_on_c, 1, 67, 127
1, 126395, Note_off_c, 1, 67, 0
1, 126396, Note_on_c, 1, 69, 127
1, 126396, Note_on_c, 1, 48, 127
1, 126637, Note_off_c, 1, 69, 0
1, 126638, Note_on_c, 1, 71, 127
1, 126879, Note_off_c, 1, 48, 0
1, 126879, Note_off_c, 1, 71, 0
1, 126880, Note_on_c, 1, 72, 127
1, 126880, Note_on_c, 1, 52, 127
1, 127121, Note_off_c, 1, 72, 0
1, 127363, Note_off_c, 1, 52, 0
1, 127364, Note_on_c, 1, 53, 127
1, 127843, Note_off_c, 1, 60, 0
1, 127850, Note_on_c, 1, 57, 127
1, 128333, Note_off_c, 1, 57, 0
1, 128334, Note_on_c, 1, 77, 127
1, 128334, Note_on_c, 1, 62, 127
1, 128575, Note_off_c, 1, 77, 0
1, 128816, Note_off_c, 1, 53, 0
1, 128818, Note_on_c, 1, 55, 127
1, 129301, Note_off_c, 1, 62, 0
1, 129302, Note_on_c, 1, 59, 127
1, 129784, Note_off_c, 1, 59, 0
1, 129785, Note_on_c, 1, 79, 127
1, 129785, Note_on_c, 1, 65, 127
1, 130026, Note_off_c, 1, 79, 0
1, 130268, Note_off_c, 1, 65, 0
1, 130269, Note_on_c, 1, 64, 127
1, 130754, Note_off_c, 1, 64, 0
1, 131718, Note_off_c, 1, 55, 0
1, 131723, Note_on_c, 1, 72, 127
1, 131782, Note_off_c, 1, 72, 0
1, 131783, Note_on_c, 1, 71, 127
1, 131842, Note_off_c, 1, 71, 0
1, 131843, Note_on_c, 1, 72, 127
1, 131964, Note_on_c, 1, 48, 127
1, 132207, Note_on_c, 1, 52, 127
1, 132448, Note_off_c, 1, 72, 0
1, 132449, Note_on_c, 1, 67, 127
1, 132449, Note_on_c, 1, 55, 127
1, 132690, Note_off_c, 1, 67, 0
1, 132690, Note_off_c, 1, 55, 0
1, 132707, Note_on_c, 1, 60, 127
1, 133165, Note_off_c, 1, 52, 0
1, 133175, Note_off_c, 1, 48, 0
1, 133186, Note_off_c, 1, 60, 0
1, 133191, Note_on_c, 1, 68, 127
1, 133250, Note_off_c, 1, 68, 0
1, 133251, Note_on_c, 1, 67, 127
1, 133310, Note_off_c, 1, 67, 0
1, 133311, Note_on_c, 1, 68, 127
1, 133432, Note_on_c, 1, 65, 127
1, 133664, Note_off_c, 1, 68, 0
1, 133674, Note_on_c, 1, 72, 127
1, 133911, Note_off_c, 1, 65, 0
1, 134153, Note_off_c, 1, 72, 0
1, 134158, Note_on_c, 1, 65, 127
1, 134158, Note_on_c, 1, 53, 127
1, 134158, Note_on_c, 1, 50, 127
1, 134158, Note_on_c, 1, 59, 127
1, 134217, Note_off_c, 1, 65, 0
1, 134218, Note_on_c, 1, 64, 127
1, 134277, Note_off_c, 1, 64, 0
1, 134639, Note_off_c, 1, 53, 0
1, 134639, Note_off_c, 1, 50, 0
1, 134639, Note_off_c, 1, 59, 0
1, 134640, Note_on_c, 1, 53, 127
1, 134640, Note_on_c, 1, 68, 127
1, 134640, Note_on_c, 1, 60, 127
1, 134640, Note_on_c, 1, 48, 127
1, 134699, Note_off_c, 1, 53, 0
1, 134699, Note_off_c, 1, 68, 0
1, 134700, Note_on_c, 1, 52, 127
1, 134700, Note_on_c, 1, 67, 127
1, 134759, Note_off_c, 1, 52, 0
1, 134759, Note_off_c, 1, 67, 0
1, 134880, Note_on_c, 1, 50, 127
1, 135121, Note_off_c, 1, 50, 0
1, 135363, Note_off_c, 1, 60, 0
1, 135364, Note_on_c, 1, 55, 127
1, 135606, Note_off_c, 1, 48, 0
1, 135606, Note_off_c, 1, 55, 0
1, 135607, Note_on_c, 1, 43, 127
1, 135667, Note_on_c, 1, 59, 127
1, 135726, Note_off_c, 1, 59, 0
1, 136085, Note_off_c, 1, 43, 0
1, 136090, Note_on_c, 1, 48, 127
1, 136090, Note_on_c, 1, 55, 127
1, 136090, Note_on_c, 1, 52, 127
1, 136090, Note_on_c, 1, 60, 127
1, 137303, Note_on_c, 1, 67, 127
1, 137544, Note_off_c, 1, 48, 0
1, 137544, Note_off_c, 1, 55, 0
1, 137544, Note_off_c, 1, 52, 0
1, 137544, Note_off_c, 1, 60, 0
1, 137544, Note_off_c, 1, 67, 0
1, 137545, Note_on_c, 1, 60, 127
1, 137545, Note_on_c, 1, 67, 127
1, 137545, Note_on_c, 1, 64, 127
1, 137604, Note_off_c, 1, 60, 0
1, 137605, Note_on_c, 1, 59, 127
1, 137664, Note_off_c, 1, 59, 0
1, 138029, Note_on_c, 1, 48, 127
1, 138270, Note_off_c, 1, 67, 0
1, 138270, Note_off_c, 1, 64, 0
1, 138512, Note_off_c, 1, 48, 0
1, 138513, Note_on_c, 1, 69, 127
1, 138513, Note_on_c, 1, 46, 127
1, 138584, Note_off_c, 1, 69, 0
1, 138589, Note_on_c, 1, 67, 127
1, 138660, Note_off_c, 1, 67, 0
1, 138756, Note_on_c, 1, 70, 127
1, 138997, Note_off_c, 1, 46, 0
1, 138997, Note_off_c, 1, 70, 0
1, 138998, Note_on_c, 1, 72, 127
1, 138998, Note_on_c, 1, 45, 127
1, 139239, Note_off_c, 1, 72, 0
1, 139240, Note_on_c, 1, 65, 127
1, 139481, Note_off_c, 1, 65, 0
1, 139482, Note_on_c, 1, 67, 127
1, 139482, Note_on_c, 1, 48, 127
1, 139602, Note_off_c, 1, 67, 0
1, 139967, Note_off_c, 1, 48, 0
1, 139968, Note_on_c, 1, 53, 127
1, 140211, Note_on_c, 1, 63, 127
1, 140451, Note_off_c, 1, 45, 0
1, 140452, Note_off_c, 1, 63, 0
1, 140453, Note_on_c, 1, 46, 127
1, 140694, Note_off_c, 1, 53, 0
1, 140695, Note_on_c, 1, 50, 127
1, 140695, Note_on_c, 1, 62, 127
1, 140936, Note_off_c, 1, 50, 0
1, 140937, Note_on_c, 1, 55, 127
1, 141178, Note_off_c, 1, 62, 0
1, 141179, Note_on_c, 1, 70, 127
1, 141420, Note_off_c, 1, 46, 0
1, 141420, Note_off_c, 1, 55, 0
1, 141420, Note_off_c, 1, 70, 0
1, 141421, Note_on_c, 1, 70, 127
1, 141421, Note_on_c, 1, 60, 127
1, 141421, Note_on_c, 1, 48, 127
1, 141480, Note_off_c, 1, 70, 0
1, 141481, Note_on_c, 1, 69, 127
1, 141540, Note_off_c, 1, 69, 0
1, 141660, Note_off_c, 1, 60, 0
1, 141661, Note_on_c, 1, 58, 127
1, 141661, Note_on_c, 1, 67, 127
1, 141898, Note_off_c, 1, 48, 0
1, 141902, Note_off_c, 1, 58, 0
1, 141902, Note_off_c, 1, 67, 0
1, 141903, Note_on_c, 1, 67, 127
1, 141903, Note_on_c, 1, 57, 127
1, 141903, Note_on_c, 1, 50, 127
1, 141962, Note_off_c, 1, 67, 0
1, 141963, Note_on_c, 1, 66, 127
1, 142022, Note_off_c, 1, 66, 0
1, 142143, Note_on_c, 1, 62, 127
1, 142380, Note_off_c, 1, 57, 0
1, 142384, Note_off_c, 1, 62, 0
1, 142385, Note_on_c, 1, 74, 127
1, 142444, Note_off_c, 1, 74, 0
1, 142445, Note_on_c, 1, 72, 127
1, 142504, Note_off_c, 1, 72, 0
1, 142625, Note_off_c, 1, 50, 0
1, 142626, Note_on_c, 1, 51, 127
1, 142867, Note_off_c, 1, 51, 0
1, 143110, Note_on_c, 1, 48, 127
1, 143110, Note_on_c, 1, 74, 127
1, 143351, Note_off_c, 1, 48, 0
1, 143351, Note_off_c, 1, 74, 0
1, 143352, Note_on_c, 1, 74, 127
1, 143352, Note_on_c, 1, 46, 127
1, 143595, Note_on_c, 1, 50, 127
1, 143836, Note_off_c, 1, 50, 0
1, 143837, Note_on_c, 1, 55, 127
1, 144078, Note_off_c, 1, 74, 0
1, 144079, Note_on_c, 1, 75, 127
1, 144320, Note_off_c, 1, 46, 0
1, 144320, Note_off_c, 1, 55, 0
1, 144320, Note_off_c, 1, 75, 0
1, 144321, Note_on_c, 1, 75, 127
1, 144321, Note_on_c, 1, 45, 127
1, 144321, Note_on_c, 1, 54, 127
1, 144380, Note_off_c, 1, 75, 0
1, 144381, Note_on_c, 1, 74, 127
1, 144440, Note_off_c, 1, 74, 0
1, 144561, Note_on_c, 1, 72, 127
1, 144802, Note_off_c, 1, 45, 0
1, 144802, Note_off_c, 1, 54, 0
1, 144802, Note_off_c, 1, 72, 0
1, 144803, Note_on_c, 1, 55, 127
1, 144803, Note_on_c, 1, 43, 127
1, 144803, Note_on_c, 1, 71, 127
1, 145044, Note_off_c, 1, 55, 0
1, 145044, Note_off_c, 1, 43, 0
1, 145045, Note_on_c, 1, 56, 127
1, 145286, Note_off_c, 1, 56, 0
1, 145483, Note_off_c, 1, 71, 0
1, 145529, Note_on_c, 1, 53, 127
1, 145529, Note_on_c, 1, 74, 127
1, 145770, Note_off_c, 1, 53, 0
1, 145770, Note_off_c, 1, 74, 0
1, 145771, Note_on_c, 1, 51, 127
1, 145771, Note_on_c, 1, 74, 127
1, 146012, Note_off_c, 1, 51, 0
1, 146012, Note_off_c, 1, 74, 0
1, 146013, Note_on_c, 1, 50, 127
1, 146013, Note_on_c, 1, 74, 127
1, 146254, Note_off_c, 1, 50, 0
1, 146254, Note_off_c, 1, 74, 0
1, 146255, Note_on_c, 1, 75, 127
1, 146255, Note_on_c, 1, 48, 127
1, 146314, Note_off_c, 1, 75, 0
1, 146315, Note_on_c, 1, 74, 127
1, 146374, Note_off_c, 1, 74, 0
1, 146495, Note_off_c, 1, 48, 0
1, 146496, Note_on_c, 1, 47, 127
1, 146737, Note_off_c, 1, 47, 0
1, 146980, Note_on_c, 1, 50, 127
1, 146980, Note_on_c, 1, 74, 127
1, 147221, Note_off_c, 1, 50, 0
1, 147221, Note_off_c, 1, 74, 0
1, 147222, Note_on_c, 1, 51, 127
1, 147222, Note_on_c, 1, 72, 127
1, 147463, Note_off_c, 1, 51, 0
1, 147463, Note_off_c, 1, 72, 0
1, 147464, Note_on_c, 1, 53, 127
1, 147464, Note_on_c, 1, 74, 127
1, 147705, Note_off_c, 1, 53, 0
1, 147705, Note_off_c, 1, 74, 0
1, 147706, Note_on_c, 1, 71, 127
1, 147706, Note_on_c, 1, 55, 127
1, 147786, Note_off_c, 1, 71, 0
1, 147787, Note_on_c, 1, 69, 127
1, 147867, Note_off_c, 1, 69, 0
1, 147949, Note_on_c, 1, 48, 127
1, 147949, Note_on_c, 1, 72, 127
1, 148190, Note_off_c, 1, 48, 0
1, 148190, Note_off_c, 1, 72, 0
1, 148191, Note_on_c, 1, 70, 127
1, 148191, Note_on_c, 1, 50, 127
1, 148250, Note_off_c, 1, 70, 0
1, 148673, Note_off_c, 1, 55, 0
1, 148674, Note_on_c, 1, 54, 127
1, 148917, Note_on_c, 1, 67, 127
1, 149158, Note_off_c, 1, 50, 0
1, 149158, Note_off_c, 1, 54, 0
1, 149158, Note_off_c, 1, 67, 0
1, 149159, Note_on_c, 1, 67, 127
1, 149159, Note_on_c, 1, 55, 127
1, 149218, Note_off_c, 1, 67, 0
1, 149219, Note_on_c, 1, 65, 127
1, 149278, Note_off_c, 1, 65, 0
1, 149399, Note_off_c, 1, 55, 0
1, 149400, Note_on_c, 1, 54, 127
1, 149641, Note_off_c, 1, 54, 0
1, 149884, Note_on_c, 1, 57, 127
1, 149884, Note_on_c, 1, 71, 127
1, 150125, Note_off_c, 1, 57, 0
1, 150125, Note_off_c, 1, 71, 0
1, 150126, Note_on_c, 1, 57, 127
1, 150126, Note_on_c, 1, 71, 127
1, 150185, Note_off_c, 1, 57, 0
1, 150186, Note_on_c, 1, 55, 127
1, 150245, Note_off_c, 1, 55, 0
1, 150365, Note_off_c, 1, 71, 0
1, 150366, Note_on_c, 1, 53, 127
1, 150366, Note_on_c, 1, 71, 127
1, 150607, Note_off_c, 1, 53, 0
1, 150607, Note_off_c, 1, 71, 0
1, 150608, Note_on_c, 1, 72, 127
1, 150608, Note_on_c, 1, 52, 127
1, 150667, Note_off_c, 1, 72, 0
1, 150668, Note_on_c, 1, 71, 127
1, 150727, Note_off_c, 1, 71, 0
1, 150849, Note_on_c, 1, 67, 127
1, 151090, Note_off_c, 1, 67, 0
1, 151091, Note_on_c, 1, 79, 127
1, 151150, Note_off_c, 1, 79, 0
1, 151151, Note_on_c, 1, 77, 127
1, 151210, Note_off_c, 1, 77, 0
1, 151331, Note_off_c, 1, 52, 0
1, 151332, Note_on_c, 1, 50, 127
1, 151573, Note_off_c, 1, 50, 0
1, 151634, Note_on_c, 1, 48, 127
1, 151693, Note_off_c, 1, 48, 0
1, 151814, Note_on_c, 1, 47, 127
1, 151814, Note_on_c, 1, 79, 127
1, 152055, Note_off_c, 1, 47, 0
1, 152055, Note_off_c, 1, 79, 0
1, 152056, Note_on_c, 1, 48, 127
1, 152056, Note_on_c, 1, 76, 127
1, 152297, Note_off_c, 1, 48, 0
1, 152297, Note_off_c, 1, 76, 0
1, 152298, Note_on_c, 1, 47, 127
1, 152298, Note_on_c, 1, 77, 127
1, 152539, Note_off_c, 1, 47, 0
1, 152539, Note_off_c, 1, 77, 0
1, 152540, Note_on_c, 1, 48, 127
1, 152540, Note_on_c, 1, 76, 127
1, 152781, Note_off_c, 1, 48, 0
1, 152781, Note_off_c, 1, 76, 0
1, 152782, Note_on_c, 1, 50, 127
1, 152782, Note_on_c, 1, 74, 127
1, 153023, Note_off_c, 1, 50, 0
1, 153023, Note_off_c, 1, 74, 0
1, 153024, Note_on_c, 1, 74, 127
1, 153024, Note_on_c, 1, 52, 127
1, 153083, Note_off_c, 1, 74, 0
1, 153084, Note_on_c, 1, 72, 127
1, 153143, Note_off_c, 1, 72, 0
1, 153263, Note_off_c, 1, 52, 0
1, 153264, Note_on_c, 1, 48, 127
1, 153264, Note_on_c, 1, 70, 127
1, 153505, Note_off_c, 1, 48, 0
1, 153505, Note_off_c, 1, 70, 0
1, 153506, Note_on_c, 1, 69, 127
1, 153506, Note_on_c, 1, 53, 127
1, 153747, Note_off_c, 1, 69, 0
1, 153748, Note_on_c, 1, 65, 127
1, 153989, Note_off_c, 1, 65, 0
1, 153990, Note_on_c, 1, 79, 127
1, 154049, Note_off_c, 1, 79, 0
1, 154050, Note_on_c, 1, 77, 127
1, 154109, Note_off_c, 1, 77, 0
1, 154229, Note_off_c, 1, 53, 0
1, 154230, Note_on_c, 1, 50, 127
1, 154471, Note_off_c, 1, 50, 0
1, 154472, Note_on_c, 1, 52, 127
1, 154713, Note_off_c, 1, 52, 0
1, 154714, Note_on_c, 1, 53, 127
1, 154714, Note_on_c, 1, 74, 127
1, 154955, Note_off_c, 1, 53, 0
1, 154955, Note_off_c, 1, 74, 0
1, 154956, Note_on_c, 1, 72, 127
1, 154956, Note_on_c, 1, 55, 127
1, 155015, Note_off_c, 1, 72, 0
1, 155016, Note_on_c, 1, 70, 127
1, 155075, Note_off_c, 1, 70, 0
1, 155196, Note_on_c, 1, 67, 127
1, 155437, Note_off_c, 1, 67, 0
1, 155438, Note_on_c, 1, 79, 127
1, 155497, Note_off_c, 1, 79, 0
1, 155498, Note_on_c, 1, 77, 127
1, 155557, Note_off_c, 1, 77, 0
1, 155678, Note_off_c, 1, 55, 0
1, 155679, Note_on_c, 1, 52, 127
1, 155920, Note_off_c, 1, 52, 0
1, 155921, Note_on_c, 1, 53, 127
1, 156162, Note_off_c, 1, 53, 0
1, 156163, Note_on_c, 1, 55, 127
1, 156163, Note_on_c, 1, 76, 127
1, 156404, Note_off_c, 1, 55, 0
1, 156404, Note_off_c, 1, 76, 0
1, 156405, Note_on_c, 1, 74, 127
1, 156405, Note_on_c, 1, 57, 127
1, 156464, Note_off_c, 1, 74, 0
1, 156465, Note_on_c, 1, 72, 127
1, 156524, Note_off_c, 1, 72, 0
1, 156645, Note_on_c, 1, 69, 127
1, 156886, Note_off_c, 1, 69, 0
1, 156887, Note_on_c, 1, 77, 127
1, 157008, Note_off_c, 1, 77, 0
1, 157008, Note_on_c, 1, 76, 127
1, 157128, Note_off_c, 1, 57, 0
1, 157129, Note_off_c, 1, 76, 0
1, 157129, Note_on_c, 1, 55, 127
1, 157370, Note_off_c, 1, 55, 0
1, 157613, Note_on_c, 1, 53, 127
1, 157613, Note_on_c, 1, 75, 127
1, 157854, Note_off_c, 1, 53, 0
1, 157854, Note_off_c, 1, 75, 0
1, 157855, Note_on_c, 1, 74, 127
1, 157855, Note_on_c, 1, 58, 127
1, 158096, Note_off_c, 1, 74, 0
1, 158097, Note_on_c, 1, 75, 127
1, 158338, Note_off_c, 1, 58, 0
1, 158338, Note_off_c, 1, 75, 0
1, 158339, Note_on_c, 1, 74, 127
1, 158339, Note_on_c, 1, 46, 127
1, 158580, Note_off_c, 1, 74, 0
1, 158581, Note_on_c, 1, 72, 127
1, 158822, Note_off_c, 1, 72, 0
1, 158823, Note_on_c, 1, 70, 127
1, 158823, Note_on_c, 1, 53, 127
1, 158903, Note_off_c, 1, 70, 0
1, 159066, Note_on_c, 1, 69, 127
1, 159307, Note_off_c, 1, 46, 0
1, 159307, Note_off_c, 1, 53, 0
1, 159307, Note_off_c, 1, 69, 0
1, 159308, Note_on_c, 1, 67, 127
1, 159308, Note_on_c, 1, 47, 127
1, 159308, Note_on_c, 1, 50, 127
1, 159308, Note_on_c, 1, 55, 127
1, 159549, Note_off_c, 1, 67, 0
1, 159550, Note_on_c, 1, 69, 127
1, 159791, Note_off_c, 1, 69, 0
1, 159792, Note_on_c, 1, 62, 127
1, 160033, Note_off_c, 1, 62, 0
1, 160034, Note_on_c, 1, 64, 127
1, 160275, Note_off_c, 1, 64, 0
1, 160276, Note_on_c, 1, 65, 127
1, 160335, Note_off_c, 1, 65, 0
1, 160758, Note_off_c, 1, 47, 0
1, 160758, Note_off_c, 1, 50, 0
1, 160759, Note_on_c, 1, 48, 127
1, 160999, Note_off_c, 1, 48, 0
1, 161233, Note_off_c, 1, 55, 0
1, 161240, Note_on_c, 1, 52, 127
1, 161240, Note_on_c, 1, 64, 127
1, 161481, Note_off_c, 1, 52, 0
1, 161481, Note_off_c, 1, 64, 0
1, 161498, Note_on_c, 1, 67, 127
1, 161498, Note_on_c, 1, 50, 127
1, 161739, Note_off_c, 1, 67, 0
1, 161739, Note_off_c, 1, 50, 0
1, 161740, Note_on_c, 1, 70, 127
1, 161740, Note_on_c, 1, 48, 127
1, 161816, Note_off_c, 1, 70, 0
1, 161821, Note_on_c, 1, 69, 127
1, 161897, Note_off_c, 1, 69, 0
1, 161982, Note_off_c, 1, 48, 0
1, 161983, Note_on_c, 1, 46, 127
1, 162224, Note_off_c, 1, 46, 0
1, 162225, Note_on_c, 1, 72, 127
1, 162225, Note_on_c, 1, 45, 127
1, 162466, Note_off_c, 1, 72, 0
1, 162467, Note_on_c, 1, 74, 127
1, 162708, Note_off_c, 1, 74, 0
1, 162709, Note_on_c, 1, 75, 127
1, 162709, Note_on_c, 1, 48, 127
1, 162950, Note_off_c, 1, 75, 0
1, 163192, Note_off_c, 1, 48, 0
1, 163193, Note_on_c, 1, 77, 127
1, 163193, Note_on_c, 1, 53, 127
1, 163434, Note_off_c, 1, 77, 0
1, 163675, Note_off_c, 1, 45, 0
1, 163677, Note_on_c, 1, 46, 127
1, 163918, Note_off_c, 1, 53, 0
1, 163919, Note_on_c, 1, 51, 127
1, 164160, Note_off_c, 1, 51, 0
1, 164161, Note_on_c, 1, 50, 127
1, 164402, Note_off_c, 1, 50, 0
1, 165125, Note_off_c, 1, 46, 0
1, 165127, Note_on_c, 1, 79, 127
1, 165127, Note_on_c, 1, 46, 127
1, 165203, Note_off_c, 1, 79, 0
1, 165203, Note_on_c, 1, 77, 127
1, 165279, Note_off_c, 1, 77, 0
1, 165370, Note_on_c, 1, 81, 127
1, 165611, Note_off_c, 1, 81, 0
1, 165612, Note_on_c, 1, 82, 127
1, 165612, Note_on_c, 1, 50, 127
1, 165853, Note_off_c, 1, 82, 0
1, 165854, Note_on_c, 1, 74, 127
1, 166095, Note_off_c, 1, 50, 0
1, 166095, Note_off_c, 1, 74, 0
1, 166096, Note_on_c, 1, 76, 127
1, 166096, Note_on_c, 1, 55, 127
1, 166155, Note_off_c, 1, 76, 0
1, 166577, Note_off_c, 1, 46, 0
1, 166579, Note_on_c, 1, 48, 127
1, 167062, Note_off_c, 1, 48, 0
1, 167547, Note_on_c, 1, 72, 127
1, 167547, Note_on_c, 1, 52, 127
1, 167628, Note_off_c, 1, 72, 0
1, 167790, Note_on_c, 1, 70, 127
1, 168025, Note_off_c, 1, 55, 0
1, 168031, Note_off_c, 1, 52, 0
1, 168031, Note_off_c, 1, 70, 0
1, 168032, Note_on_c, 1, 69, 127
1, 168032, Note_on_c, 1, 53, 127
1, 168273, Note_off_c, 1, 69, 0
1, 168274, Note_on_c, 1, 70, 127
1, 168274, Note_on_c, 1, 46, 127
1, 168515, Note_off_c, 1, 70, 0
1, 168515, Note_off_c, 1, 46, 0
1, 168516, Note_on_c, 1, 48, 127
1, 168637, Note_on_c, 1, 67, 127
1, 168696, Note_off_c, 1, 67, 0
1, 168996, Note_off_c, 1, 53, 0
1, 168997, Note_on_c, 1, 52, 127
1, 169239, Note_on_c, 1, 65, 127
1, 169480, Note_off_c, 1, 48, 0
1, 169480, Note_off_c, 1, 52, 0
1, 169480, Note_off_c, 1, 65, 0
1, 169481, Note_on_c, 1, 65, 127
1, 169481, Note_on_c, 1, 53, 127
1, 169540, Note_off_c, 1, 65, 0
1, 169541, Note_on_c, 1, 64, 127
1, 169600, Note_off_c, 1, 64, 0
1, 169964, Note_off_c, 1, 53, 0
1, 169965, Note_on_c, 1, 41, 127
1, 170207, Note_on_c, 1, 72, 127
1, 170448, Note_off_c, 1, 72, 0
1, 170449, Note_on_c, 1, 69, 127
1, 170449, Note_on_c, 1, 48, 127
1, 170690, Note_off_c, 1, 69, 0
1, 170933, Note_on_c, 1, 70, 127
1, 170995, Note_off_c, 1, 70, 0
1, 173184, Note_off_c, 1, 41, 0
1, 173184, Note_off_c, 1, 48, 0
1, 174611, Note_on_c, 1, 81, 127
1, 174611, Note_on_c, 1, 60, 127
1, 174611, Note_on_c, 1, 53, 127
1, 174840, Note_off_c, 1, 81, 0
1, 174840, Note_off_c, 1, 60, 0
1, 174841, Note_on_c, 1, 79, 127
1, 174841, Note_on_c, 1, 58, 127
1, 175070, Note_off_c, 1, 79, 0
1, 175070, Note_off_c, 1, 58, 0
1, 175071, Note_on_c, 1, 77, 127
1, 175071, Note_on_c, 1, 57, 127
1, 175300, Note_off_c, 1, 77, 0
1, 175300, Note_off_c, 1, 57, 0
1, 175301, Note_on_c, 1, 76, 127
1, 175301, Note_on_c, 1, 55, 127
1, 175530, Note_off_c, 1, 76, 0
1, 175530, Note_off_c, 1, 55, 0
1, 175789, Note_on_c, 1, 72, 127
1, 175988, Note_off_c, 1, 72, 0
1, 176075, Note_on_c, 1, 70, 127
1, 176159, Note_off_c, 1, 70, 0
1, 176445, Note_off_c, 1, 53, 0
1, 176452, Note_on_c, 1, 52, 127
1, 176663, Note_on_c, 1, 69, 127
1, 176747, Note_off_c, 1, 69, 0
1, 176911, Note_off_c, 1, 52, 0
1, 176912, Note_on_c, 1, 41, 127
1, 177140, Note_on_c, 1, 65, 127
1, 177369, Note_off_c, 1, 41, 0
1, 177369, Note_off_c, 1, 65, 0
1, 177370, Note_on_c, 1, 81, 127
1, 177370, Note_on_c, 1, 65, 127
1, 177370, Note_on_c, 1, 53, 127
1, 177599, Note_off_c, 1, 81, 0
1, 177599, Note_off_c, 1, 65, 0
1, 177600, Note_on_c, 1, 79, 127
1, 177600, Note_on_c, 1, 64, 127
1, 177829, Note_off_c, 1, 79, 0
1, 177829, Note_off_c, 1, 64, 0
1, 177830, Note_on_c, 1, 77, 127
1, 177830, Note_on_c, 1, 62, 127
1, 178059, Note_off_c, 1, 77, 0
1, 178059, Note_off_c, 1, 62, 0
1, 178060, Note_on_c, 1, 76, 127
1, 178060, Note_on_c, 1, 60, 127
1, 178289, Note_off_c, 1, 76, 0
1, 178289, Note_off_c, 1, 60, 0
1, 178290, Note_on_c, 1, 74, 127
1, 178520, Note_on_c, 1, 72, 127
1, 178531, Note_off_c, 1, 74, 0
1, 178736, Note_off_c, 1, 72, 0
1, 178748, Note_off_c, 1, 53, 0
1, 178750, Note_on_c, 1, 72, 127
1, 178750, Note_on_c, 1, 55, 127
1, 178750, Note_on_c, 1, 62, 127
1, 178846, Note_on_c, 1, 71, 127
1, 178847, Note_off_c, 1, 72, 0
1, 178922, Note_off_c, 1, 71, 0
1, 179670, Note_off_c, 1, 55, 0
1, 179670, Note_off_c, 1, 62, 0
1, 179671, Note_on_c, 1, 72, 127
1, 179671, Note_on_c, 1, 60, 127
1, 179671, Note_on_c, 1, 48, 127
1, 180131, Note_off_c, 1, 72, 0
1, 180131, Note_off_c, 1, 60, 0
1, 180131, Note_off_c, 1, 48, 0
1, 180132, Note_on_c, 1, 79, 127
1, 180132, Note_on_c, 1, 64, 127
1, 180132, Note_on_c, 1, 60, 127
1, 180361, Note_off_c, 1, 79, 0
1, 180362, Note_on_c, 1, 77, 127
1, 180591, Note_off_c, 1, 77, 0
1, 180822, Note_on_c, 1, 82, 127
1, 181051, Note_off_c, 1, 64, 0
1, 181051, Note_off_c, 1, 60, 0
1, 181051, Note_off_c, 1, 82, 0
1, 181052, Note_on_c, 1, 81, 127
1, 181052, Note_on_c, 1, 65, 127
1, 181052, Note_on_c, 1, 53, 127
1, 181166, Note_off_c, 1, 81, 0
1, 181167, Note_on_c, 1, 79, 127
1, 181281, Note_off_c, 1, 79, 0
1, 181397, Note_on_c, 1, 82, 127
1, 181511, Note_off_c, 1, 65, 0
1, 181511, Note_off_c, 1, 53, 0
1, 181511, Note_off_c, 1, 82, 0
1, 181512, Note_on_c, 1, 79, 127
1, 181512, Note_on_c, 1, 60, 127
1, 181512, Note_on_c, 1, 64, 127
1, 181741, Note_off_c, 1, 79, 0
1, 181742, Note_on_c, 1, 77, 127
1, 181971, Note_off_c, 1, 77, 0
1, 181972, Note_on_c, 1, 76, 127
1, 182201, Note_off_c, 1, 76, 0
1, 182891, Note_off_c, 1, 60, 0
1, 182891, Note_off_c, 1, 64, 0
1, 182892, Note_on_c, 1, 81, 127
1, 182892, Note_on_c, 1, 64, 127
1, 182892, Note_on_c, 1, 61, 127
1, 183121, Note_off_c, 1, 81, 0
1, 183122, Note_on_c, 1, 79, 127
1, 183351, Note_off_c, 1, 64, 0
1, 183351, Note_off_c, 1, 61, 0
1, 183351, Note_off_c, 1, 79, 0
1, 183352, Note_on_c, 1, 77, 127
1, 183352, Note_on_c, 1, 62, 127
1, 183581, Note_off_c, 1, 77, 0
1, 183581, Note_off_c, 1, 62, 0
1, 183582, Note_on_c, 1, 76, 127
1, 183582, Note_on_c, 1, 60, 127
1, 183811, Note_off_c, 1, 76, 0
1, 183811, Note_off_c, 1, 60, 0
1, 183812, Note_on_c, 1, 74, 127
1, 183812, Note_on_c, 1, 58, 127
1, 184041, Note_off_c, 1, 74, 0
1, 184041, Note_off_c, 1, 58, 0
1, 184042, Note_on_c, 1, 76, 127
1, 184042, Note_on_c, 1, 57, 127
1, 184271, Note_off_c, 1, 76, 0
1, 184271, Note_off_c, 1, 57, 0
1, 184272, Note_on_c, 1, 74, 127
1, 184272, Note_on_c, 1, 57, 127
1, 184445, Note_off_c, 1, 74, 0
1, 184445, Note_on_c, 1, 73, 127
1, 184522, Note_off_c, 1, 73, 0
1, 184730, Note_off_c, 1, 57, 0
1, 184731, Note_on_c, 1, 45, 127
1, 185190, Note_off_c, 1, 45, 0
1, 185191, Note_on_c, 1, 74, 127
1, 185191, Note_on_c, 1, 50, 127
1, 185651, Note_off_c, 1, 74, 0
1, 185651, Note_off_c, 1, 50, 0
1, 185652, Note_on_c, 1, 77, 127
1, 185652, Note_on_c, 1, 57, 127
1, 185652, Note_on_c, 1, 50, 127
1, 185881, Note_off_c, 1, 77, 0
1, 185881, Note_off_c, 1, 57, 0
1, 185882, Note_on_c, 1, 76, 127
1, 185882, Note_on_c, 1, 55, 127
1, 186111, Note_off_c, 1, 76, 0
1, 186111, Note_off_c, 1, 55, 0
1, 186112, Note_on_c, 1, 74, 127
1, 186112, Note_on_c, 1, 53, 127
1, 186341, Note_off_c, 1, 74, 0
1, 186571, Note_off_c, 1, 50, 0
1, 186571, Note_off_c, 1, 53, 0
1, 186572, Note_on_c, 1, 72, 127
1, 186572, Note_on_c, 1, 52, 127
1, 186572, Note_on_c, 1, 55, 127
1, 186801, Note_off_c, 1, 72, 0
1, 186802, Note_on_c, 1, 70, 127
1, 187031, Note_off_c, 1, 52, 0
1, 187031, Note_off_c, 1, 55, 0
1, 187031, Note_off_c, 1, 70, 0
1, 187032, Note_on_c, 1, 69, 127
1, 187032, Note_on_c, 1, 53, 127
1, 187261, Note_off_c, 1, 69, 0
1, 187262, Note_on_c, 1, 70, 127
1, 187491, Note_off_c, 1, 70, 0
1, 187492, Note_on_c, 1, 41, 127
1, 187721, Note_off_c, 1, 53, 0
1, 187722, Note_on_c, 1, 67, 127
1, 187722, Note_on_c, 1, 52, 127
1, 187948, Note_off_c, 1, 41, 0
1, 187952, Note_off_c, 1, 67, 0
1, 187952, Note_off_c, 1, 52, 0
1, 187953, Note_on_c, 1, 50, 127
1, 187953, Note_on_c, 1, 65, 127
1, 188182, Note_off_c, 1, 50, 0
1, 188183, Note_on_c, 1, 48, 127
1, 188412, Note_off_c, 1, 65, 0
1, 188412, Note_off_c, 1, 48, 0
1, 188413, Note_on_c, 1, 67, 127
1, 188413, Note_on_c, 1, 46, 127
1, 188642, Note_off_c, 1, 67, 0
1, 188642, Note_off_c, 1, 46, 0
1, 188643, Note_on_c, 1, 69, 127
1, 188643, Note_on_c, 1, 45, 127
1, 188872, Note_off_c, 1, 69, 0
1, 188872, Note_off_c, 1, 45, 0
1, 188873, Note_on_c, 1, 70, 127
1, 188873, Note_on_c, 1, 50, 127
1, 188873, Note_on_c, 1, 43, 127
1, 189102, Note_off_c, 1, 70, 0
1, 189102, Note_off_c, 1, 50, 0
1, 189103, Note_on_c, 1, 72, 127
1, 189103, Note_on_c, 1, 52, 127
1, 189329, Note_off_c, 1, 43, 0
1, 189333, Note_off_c, 1, 72, 0
1, 189333, Note_off_c, 1, 52, 0
1, 189334, Note_on_c, 1, 69, 127
1, 189334, Note_on_c, 1, 41, 127
1, 189334, Note_on_c, 1, 53, 127
1, 189563, Note_off_c, 1, 69, 0
1, 189563, Note_off_c, 1, 41, 0
1, 189564, Note_on_c, 1, 70, 127
1, 189564, Note_on_c, 1, 46, 127
1, 189793, Note_off_c, 1, 70, 0
1, 189793, Note_off_c, 1, 46, 0
1, 189794, Note_on_c, 1, 48, 127
1, 189947, Note_on_c, 1, 67, 127
1, 190023, Note_off_c, 1, 67, 0
1, 190254, Note_off_c, 1, 53, 0
1, 190255, Note_on_c, 1, 52, 127
1, 190485, Note_on_c, 1, 65, 127
1, 190714, Note_off_c, 1, 48, 0
1, 190714, Note_off_c, 1, 52, 0
1, 190714, Note_off_c, 1, 65, 0
1, 190715, Note_on_c, 1, 65, 127
1, 190715, Note_on_c, 1, 53, 127
1, 190715, Note_on_c, 1, 41, 127
1, 191175, Note_off_c, 1, 65, 0
1, 191175, Note_off_c, 1, 53, 0
1, 191175, Note_off_c, 1, 41, 0
1, 191176, Note_on_c, 1, 81, 127
1, 191176, Note_on_c, 1, 65, 127
1, 191176, Note_on_c, 1, 53, 127
1, 191290, Note_off_c, 1, 81, 0
1, 191291, Note_on_c, 1, 82, 127
1, 191405, Note_off_c, 1, 65, 0
1, 191405, Note_off_c, 1, 82, 0
1, 191406, Note_on_c, 1, 64, 127
1, 191521, Note_on_c, 1, 79, 127
1, 191635, Note_off_c, 1, 64, 0
1, 191635, Note_off_c, 1, 79, 0
1, 191636, Note_on_c, 1, 77, 127
1, 191636, Note_on_c, 1, 62, 127
1, 191750, Note_off_c, 1, 77, 0
1, 191750, Note_off_c, 1, 62, 0
1, 191981, Note_on_c, 1, 76, 127
1, 191981, Note_on_c, 1, 60, 127
1, 192095, Note_off_c, 1, 53, 0
1, 192095, Note_off_c, 1, 76, 0
1, 192095, Note_off_c, 1, 60, 0
1, 192096, Note_on_c, 1, 74, 127
1, 192096, Note_on_c, 1, 58, 127
1, 192210, Note_off_c, 1, 74, 0
1, 192210, Note_off_c, 1, 58, 0
1, 192211, Note_on_c, 1, 76, 127
1, 192211, Note_on_c, 1, 60, 127
1, 192325, Note_off_c, 1, 76, 0
1, 192325, Note_off_c, 1, 60, 0
1, 192326, Note_on_c, 1, 74, 127
1, 192326, Note_on_c, 1, 58, 127
1, 192440, Note_off_c, 1, 74, 0
1, 192440, Note_off_c, 1, 58, 0
1, 192441, Note_on_c, 1, 72, 127
1, 192441, Note_on_c, 1, 57, 127
1, 192555, Note_off_c, 1, 72, 0
1, 192555, Note_off_c, 1, 57, 0
1, 192556, Note_on_c, 1, 70, 127
1, 192556, Note_on_c, 1, 55, 127
1, 192670, Note_off_c, 1, 70, 0
1, 192671, Note_on_c, 1, 69, 127
1, 192785, Note_off_c, 1, 55, 0
1, 192785, Note_off_c, 1, 69, 0
1, 192786, Note_on_c, 1, 70, 127
1, 192786, Note_on_c, 1, 53, 127
1, 192900, Note_off_c, 1, 70, 0
1, 192901, Note_on_c, 1, 72, 127
1, 193015, Note_off_c, 1, 53, 0
1, 193015, Note_off_c, 1, 72, 0
1, 193016, Note_on_c, 1, 70, 127
1, 193016, Note_on_c, 1, 52, 127
1, 193130, Note_off_c, 1, 70, 0
1, 193130, Note_off_c, 1, 52, 0
1, 193131, Note_on_c, 1, 74, 127
1, 193131, Note_on_c, 1, 48, 127
1, 193245, Note_off_c, 1, 74, 0
1, 193245, Note_off_c, 1, 48, 0
1, 193246, Note_on_c, 1, 72, 127
1, 193246, Note_on_c, 1, 50, 127
1, 193360, Note_off_c, 1, 72, 0
1, 193360, Note_off_c, 1, 50, 0
1, 193361, Note_on_c, 1, 70, 127
1, 193361, Note_on_c, 1, 52, 127
1, 193475, Note_off_c, 1, 70, 0
1, 193475, Note_off_c, 1, 52, 0
1, 193476, Note_on_c, 1, 69, 127
1, 193476, Note_on_c, 1, 53, 127
1, 193553, Note_off_c, 1, 69, 0
1, 193553, Note_on_c, 1, 70, 127
1, 193590, Note_off_c, 1, 53, 0
1, 193591, Note_on_c, 1, 48, 127
1, 193629, Note_off_c, 1, 70, 0
1, 193705, Note_off_c, 1, 48, 0
1, 193706, Note_on_c, 1, 45, 127
1, 193706, Note_on_c, 1, 65, 127
1, 193820, Note_off_c, 1, 45, 0
1, 193935, Note_off_c, 1, 65, 0
1, 193936, Note_on_c, 1, 81, 127
1, 193936, Note_on_c, 1, 41, 127
1, 194050, Note_off_c, 1, 81, 0
1, 194051, Note_on_c, 1, 82, 127
1, 194165, Note_off_c, 1, 82, 0
1, 194281, Note_on_c, 1, 79, 127
1, 194395, Note_off_c, 1, 41, 0
1, 194395, Note_off_c, 1, 79, 0
1, 194396, Note_on_c, 1, 77, 127
1, 194396, Note_on_c, 1, 62, 127
1, 194396, Note_on_c, 1, 53, 127
1, 194510, Note_off_c, 1, 77, 0
1, 194510, Note_off_c, 1, 62, 0
1, 194511, Note_on_c, 1, 79, 127
1, 194511, Note_on_c, 1, 64, 127
1, 194625, Note_off_c, 1, 79, 0
1, 194625, Note_off_c, 1, 64, 0
1, 194741, Note_on_c, 1, 76, 127
1, 194741, Note_on_c, 1, 60, 127
1, 194855, Note_off_c, 1, 76, 0
1, 194855, Note_off_c, 1, 60, 0
1, 194856, Note_on_c, 1, 74, 127
1, 194856, Note_on_c, 1, 59, 127
1, 194970, Note_off_c, 1, 74, 0
1, 194970, Note_off_c, 1, 59, 0
1, 195201, Note_on_c, 1, 72, 127
1, 195201, Note_on_c, 1, 57, 127
1, 195315, Note_off_c, 1, 53, 0
1, 195315, Note_off_c, 1, 72, 0
1, 195315, Note_off_c, 1, 57, 0
1, 195316, Note_on_c, 1, 71, 127
1, 195316, Note_on_c, 1, 55, 127
1, 195430, Note_off_c, 1, 71, 0
1, 195431, Note_on_c, 1, 74, 127
1, 195545, Note_off_c, 1, 55, 0
1, 195545, Note_off_c, 1, 74, 0
1, 195546, Note_on_c, 1, 76, 127
1, 195546, Note_on_c, 1, 53, 127
1, 195660, Note_off_c, 1, 76, 0
1, 195661, Note_on_c, 1, 77, 127
1, 195775, Note_off_c, 1, 53, 0
1, 195775, Note_off_c, 1, 77, 0
1, 195776, Note_on_c, 1, 79, 127
1, 195776, Note_on_c, 1, 52, 127
1, 195890, Note_off_c, 1, 79, 0
1, 195890, Note_off_c, 1, 52, 0
1, 195891, Note_on_c, 1, 81, 127
1, 195891, Note_on_c, 1, 53, 127
1, 196005, Note_off_c, 1, 81, 0
1, 196005, Note_off_c, 1, 53, 0
1, 196006, Note_on_c, 1, 79, 127
1, 196006, Note_on_c, 1, 52, 127
1, 196120, Note_off_c, 1, 79, 0
1, 196120, Note_off_c, 1, 52, 0
1, 196121, Note_on_c, 1, 77, 127
1, 196121, Note_on_c, 1, 50, 127
1, 196235, Note_off_c, 1, 77, 0
1, 196235, Note_off_c, 1, 50, 0
1, 196236, Note_on_c, 1, 77, 127
1, 196236, Note_on_c, 1, 48, 127
1, 196292, Note_off_c, 1, 77, 0
1, 196293, Note_on_c, 1, 76, 127
1, 196349, Note_off_c, 1, 48, 0
1, 196349, Note_off_c, 1, 76, 0
1, 196350, Note_on_c, 1, 77, 127
1, 196350, Note_on_c, 1, 50, 127
1, 196406, Note_off_c, 1, 77, 0
1, 196407, Note_on_c, 1, 76, 127
1, 196463, Note_off_c, 1, 50, 0
1, 196463, Note_off_c, 1, 76, 0
1, 196464, Note_on_c, 1, 52, 127
1, 196464, Note_on_c, 1, 72, 127
1, 196578, Note_off_c, 1, 52, 0
1, 196579, Note_on_c, 1, 48, 127
1, 196693, Note_off_c, 1, 72, 0
1, 196693, Note_off_c, 1, 48, 0
1, 196694, Note_on_c, 1, 79, 127
1, 196694, Note_on_c, 1, 60, 127
1, 196694, Note_on_c, 1, 64, 127
1, 196808, Note_off_c, 1, 79, 0
1, 196809, Note_on_c, 1, 77, 127
1, 196923, Note_off_c, 1, 60, 0
1, 196923, Note_off_c, 1, 77, 0
1, 196924, Note_on_c, 1, 76, 127
1, 196924, Note_on_c, 1, 59, 127
1, 197038, Note_off_c, 1, 76, 0
1, 197039, Note_on_c, 1, 74, 127
1, 197149, Note_off_c, 1, 64, 0
1, 197153, Note_off_c, 1, 59, 0
1, 197153, Note_off_c, 1, 74, 0
1, 197154, Note_on_c, 1, 72, 127
1, 197154, Note_on_c, 1, 57, 127
1, 197268, Note_off_c, 1, 72, 0
1, 197269, Note_on_c, 1, 79, 127
1, 197383, Note_off_c, 1, 57, 0
1, 197383, Note_off_c, 1, 79, 0
1, 197384, Note_on_c, 1, 81, 127
1, 197384, Note_on_c, 1, 55, 127
1, 197498, Note_off_c, 1, 81, 0
1, 197499, Note_on_c, 1, 82, 127
1, 197613, Note_off_c, 1, 55, 0
1, 197613, Note_off_c, 1, 82, 0
1, 197614, Note_on_c, 1, 81, 127
1, 197614, Note_on_c, 1, 53, 127
1, 197728, Note_off_c, 1, 81, 0
1, 197728, Note_off_c, 1, 53, 0
1, 197729, Note_on_c, 1, 79, 127
1, 197729, Note_on_c, 1, 55, 127
1, 197843, Note_off_c, 1, 79, 0
1, 197843, Note_off_c, 1, 55, 0
1, 197844, Note_on_c, 1, 77, 127
1, 197844, Note_on_c, 1, 57, 127
1, 197958, Note_off_c, 1, 77, 0
1, 197958, Note_off_c, 1, 57, 0
1, 197959, Note_on_c, 1, 79, 127
1, 197959, Note_on_c, 1, 53, 127
1, 198073, Note_off_c, 1, 79, 0
1, 198073, Note_off_c, 1, 53, 0
1, 198074, Note_on_c, 1, 76, 127
1, 198074, Note_on_c, 1, 55, 127
1, 198188, Note_off_c, 1, 76, 0
1, 198189, Note_on_c, 1, 67, 127
1, 198303, Note_off_c, 1, 55, 0
1, 198303, Note_off_c, 1, 67, 0
1, 198304, Note_on_c, 1, 69, 127
1, 198304, Note_on_c, 1, 53, 127
1, 198418, Note_off_c, 1, 69, 0
1, 198419, Note_on_c, 1, 71, 127
1, 198533, Note_off_c, 1, 53, 0
1, 198533, Note_off_c, 1, 71, 0
1, 198534, Note_on_c, 1, 72, 127
1, 198534, Note_on_c, 1, 52, 127
1, 198648, Note_off_c, 1, 72, 0
1, 198649, Note_on_c, 1, 74, 127
1, 198763, Note_off_c, 1, 52, 0
1, 198763, Note_off_c, 1, 74, 0
1, 198764, Note_on_c, 1, 76, 127
1, 198764, Note_on_c, 1, 50, 127
1, 198878, Note_off_c, 1, 76, 0
1, 198879, Note_on_c, 1, 77, 127
1, 198993, Note_off_c, 1, 50, 0
1, 198993, Note_off_c, 1, 77, 0
1, 198994, Note_on_c, 1, 48, 127
1, 198994, Note_on_c, 1, 79, 127
1, 199108, Note_off_c, 1, 48, 0
1, 199109, Note_on_c, 1, 50, 127
1, 199223, Note_off_c, 1, 79, 0
1, 199223, Note_off_c, 1, 50, 0
1, 199224, Note_on_c, 1, 52, 127
1, 199224, Note_on_c, 1, 72, 127
1, 199338, Note_off_c, 1, 52, 0
1, 199339, Note_on_c, 1, 50, 127
1, 199453, Note_off_c, 1, 72, 0
1, 199453, Note_off_c, 1, 50, 0
1, 199454, Note_on_c, 1, 81, 127
1, 199454, Note_on_c, 1, 52, 127
1, 199454, Note_on_c, 1, 49, 127
1, 199568, Note_off_c, 1, 81, 0
1, 199569, Note_on_c, 1, 76, 127
1, 199683, Note_off_c, 1, 76, 0
1, 199684, Note_on_c, 1, 69, 127
1, 199798, Note_off_c, 1, 69, 0
1, 199799, Note_on_c, 1, 79, 127
1, 199913, Note_off_c, 1, 52, 0
1, 199913, Note_off_c, 1, 49, 0
1, 199913, Note_off_c, 1, 79, 0
1, 199914, Note_on_c, 1, 77, 127
1, 199914, Note_on_c, 1, 50, 127
1, 200028, Note_off_c, 1, 77, 0
1, 200029, Note_on_c, 1, 69, 127
1, 200143, Note_off_c, 1, 50, 0
1, 200143, Note_off_c, 1, 69, 0
1, 200144, Note_on_c, 1, 74, 127
1, 200144, Note_on_c, 1, 53, 127
1, 200258, Note_off_c, 1, 74, 0
1, 200259, Note_on_c, 1, 72, 127
1, 200373, Note_off_c, 1, 53, 0
1, 200373, Note_off_c, 1, 72, 0
1, 200374, Note_on_c, 1, 71, 127
1, 200374, Note_on_c, 1, 55, 127
1, 200488, Note_off_c, 1, 71, 0
1, 200489, Note_on_c, 1, 74, 127
1, 200603, Note_off_c, 1, 55, 0
1, 200603, Note_off_c, 1, 74, 0
1, 200604, Note_on_c, 1, 79, 127
1, 200604, Note_on_c, 1, 52, 127
1, 200718, Note_off_c, 1, 79, 0
1, 200719, Note_on_c, 1, 71, 127
1, 200833, Note_off_c, 1, 52, 0
1, 200833, Note_off_c, 1, 71, 0
1, 200834, Note_on_c, 1, 73, 127
1, 200834, Note_on_c, 1, 57, 127
1, 200948, Note_off_c, 1, 73, 0
1, 200949, Note_on_c, 1, 69, 127
1, 201063, Note_off_c, 1, 57, 0
1, 201063, Note_off_c, 1, 69, 0
1, 201064, Note_on_c, 1, 74, 127
1, 201064, Note_on_c, 1, 53, 127
1, 201178, Note_off_c, 1, 74, 0
1, 201178, Note_off_c, 1, 53, 0
1, 201179, Note_on_c, 1, 76, 127
1, 201179, Note_on_c, 1, 55, 127
1, 201293, Note_off_c, 1, 76, 0
1, 201293, Note_off_c, 1, 55, 0
1, 201294, Note_on_c, 1, 73, 127
1, 201294, Note_on_c, 1, 57, 127
1, 201408, Note_off_c, 1, 73, 0
1, 201409, Note_on_c, 1, 76, 127
1, 201523, Note_off_c, 1, 57, 0
1, 201523, Note_off_c, 1, 76, 0
1, 201524, Note_on_c, 1, 81, 127
1, 201524, Note_on_c, 1, 45, 127
1, 201638, Note_off_c, 1, 81, 0
1, 201639, Note_on_c, 1, 79, 127
1, 201753, Note_off_c, 1, 45, 0
1, 201753, Note_off_c, 1, 79, 0
1, 201754, Note_on_c, 1, 50, 127
1, 201754, Note_on_c, 1, 77, 127
1, 201868, Note_off_c, 1, 50, 0
1, 201869, Note_on_c, 1, 52, 127
1, 201983, Note_off_c, 1, 77, 0
1, 201983, Note_off_c, 1, 52, 0
1, 201984, Note_on_c, 1, 48, 127
1, 201984, Note_on_c, 1, 74, 127
1, 202098, Note_off_c, 1, 48, 0
1, 202099, Note_on_c, 1, 46, 127
1, 202213, Note_off_c, 1, 74, 0
1, 202213, Note_off_c, 1, 46, 0
1, 202214, Note_on_c, 1, 77, 127
1, 202214, Note_on_c, 1, 53, 127
1, 202214, Note_on_c, 1, 48, 127
1, 202214, Note_on_c, 1, 45, 127
1, 202328, Note_off_c, 1, 77, 0
1, 202329, Note_on_c, 1, 79, 127
1, 202443, Note_off_c, 1, 79, 0
1, 202559, Note_on_c, 1, 75, 127
1, 202673, Note_off_c, 1, 53, 0
1, 202673, Note_off_c, 1, 48, 0
1, 202673, Note_off_c, 1, 45, 0
1, 202673, Note_off_c, 1, 75, 0
1, 202674, Note_on_c, 1, 74, 127
1, 202674, Note_on_c, 1, 46, 127
1, 202788, Note_off_c, 1, 74, 0
1, 202789, Note_on_c, 1, 72, 127
1, 202903, Note_off_c, 1, 46, 0
1, 202903, Note_off_c, 1, 72, 0
1, 202904, Note_on_c, 1, 74, 127
1, 202904, Note_on_c, 1, 58, 127
1, 203018, Note_off_c, 1, 74, 0
1, 203019, Note_on_c, 1, 75, 127
1, 203133, Note_off_c, 1, 58, 0
1, 203133, Note_off_c, 1, 75, 0
1, 203134, Note_on_c, 1, 72, 127
1, 203134, Note_on_c, 1, 52, 127
1, 203248, Note_off_c, 1, 72, 0
1, 203249, Note_on_c, 1, 74, 127
1, 203363, Note_off_c, 1, 52, 0
1, 203363, Note_off_c, 1, 74, 0
1, 203364, Note_on_c, 1, 72, 127
1, 203364, Note_on_c, 1, 48, 127
1, 203478, Note_off_c, 1, 72, 0
1, 203479, Note_on_c, 1, 70, 127
1, 203593, Note_off_c, 1, 48, 0
1, 203593, Note_off_c, 1, 70, 0
1, 203594, Note_on_c, 1, 69, 127
1, 203594, Note_on_c, 1, 53, 127
1, 203708, Note_off_c, 1, 69, 0
1, 203709, Note_on_c, 1, 67, 127
1, 203823, Note_off_c, 1, 53, 0
1, 203823, Note_off_c, 1, 67, 0
1, 203824, Note_on_c, 1, 69, 127
1, 203824, Note_on_c, 1, 55, 127
1, 203938, Note_off_c, 1, 69, 0
1, 203939, Note_on_c, 1, 70, 127
1, 204053, Note_off_c, 1, 55, 0
1, 204053, Note_off_c, 1, 70, 0
1, 204054, Note_on_c, 1, 72, 127
1, 204054, Note_on_c, 1, 57, 127
1, 204168, Note_off_c, 1, 72, 0
1, 204169, Note_on_c, 1, 74, 127
1, 204283, Note_off_c, 1, 57, 0
1, 204283, Note_off_c, 1, 74, 0
1, 204284, Note_on_c, 1, 67, 127
1, 204284, Note_on_c, 1, 52, 127
1, 204398, Note_off_c, 1, 67, 0
1, 204399, Note_on_c, 1, 70, 127
1, 204513, Note_off_c, 1, 52, 0
1, 204513, Note_off_c, 1, 70, 0
1, 204514, Note_on_c, 1, 70, 127
1, 204514, Note_on_c, 1, 53, 127
1, 204572, Note_on_c, 1, 69, 127
1, 204573, Note_off_c, 1, 70, 0
1, 204628, Note_off_c, 1, 53, 0
1, 204628, Note_off_c, 1, 69, 0
1, 204629, Note_on_c, 1, 70, 127
1, 204629, Note_on_c, 1, 55, 127
1, 204687, Note_off_c, 1, 70, 0
1, 204687, Note_on_c, 1, 69, 127
1, 204743, Note_off_c, 1, 55, 0
1, 204744, Note_off_c, 1, 69, 0
1, 204744, Note_on_c, 1, 57, 127
1, 204744, Note_on_c, 1, 65, 127
1, 204858, Note_off_c, 1, 57, 0
1, 204859, Note_on_c, 1, 53, 127
1, 204973, Note_off_c, 1, 65, 0
1, 204973, Note_off_c, 1, 53, 0
1, 204974, Note_on_c, 1, 67, 127
1, 204974, Note_on_c, 1, 58, 127
1, 205088, Note_off_c, 1, 67, 0
1, 205089, Note_on_c, 1, 69, 127
1, 205203, Note_off_c, 1, 58, 0
1, 205203, Note_off_c, 1, 69, 0
1, 205204, Note_on_c, 1, 70, 127
1, 205204, Note_on_c, 1, 54, 127
1, 205318, Note_off_c, 1, 70, 0
1, 205319, Note_on_c, 1, 72, 127
1, 205433, Note_off_c, 1, 54, 0
1, 205433, Note_off_c, 1, 72, 0
1, 205434, Note_on_c, 1, 70, 127
1, 205434, Note_on_c, 1, 55, 127
1, 205548, Note_off_c, 1, 70, 0
1, 205549, Note_on_c, 1, 74, 127
1, 205663, Note_off_c, 1, 55, 0
1, 205663, Note_off_c, 1, 74, 0
1, 205664, Note_on_c, 1, 72, 127
1, 205664, Note_on_c, 1, 52, 127
1, 205778, Note_off_c, 1, 72, 0
1, 205779, Note_on_c, 1, 70, 127
1, 205893, Note_off_c, 1, 52, 0
1, 205893, Note_off_c, 1, 70, 0
1, 205894, Note_on_c, 1, 69, 127
1, 205894, Note_on_c, 1, 53, 127
1, 206008, Note_off_c, 1, 69, 0
1, 206009, Note_on_c, 1, 77, 127
1, 206123, Note_off_c, 1, 53, 0
1, 206123, Note_off_c, 1, 77, 0
1, 206124, Note_on_c, 1, 76, 127
1, 206124, Note_on_c, 1, 46, 127
1, 206238, Note_off_c, 1, 76, 0
1, 206239, Note_on_c, 1, 74, 127
1, 206353, Note_off_c, 1, 46, 0
1, 206353, Note_off_c, 1, 74, 0
1, 206354, Note_on_c, 1, 72, 127
1, 206354, Note_on_c, 1, 48, 127
1, 206468, Note_off_c, 1, 72, 0
1, 206469, Note_on_c, 1, 77, 127
1, 206583, Note_off_c, 1, 77, 0
1, 206584, Note_on_c, 1, 69, 127
1, 206698, Note_off_c, 1, 69, 0
1, 206699, Note_on_c, 1, 70, 127
1, 206813, Note_off_c, 1, 48, 0
1, 206813, Note_off_c, 1, 70, 0
1, 206814, Note_on_c, 1, 72, 127
1, 206814, Note_on_c, 1, 36, 127
1, 206928, Note_off_c, 1, 72, 0
1, 206929, Note_on_c, 1, 70, 127
1, 207050, Note_off_c, 1, 70, 0
1, 207054, Note_on_c, 1, 69, 127
1, 207175, Note_off_c, 1, 69, 0
1, 207190, Note_on_c, 1, 67, 127
1, 207307, Note_off_c, 1, 36, 0
1, 207328, Note_on_c, 1, 41, 127
1, 207328, Note_on_c, 1, 65, 127
1, 207333, Note_off_c, 1, 67, 0
1, 207735, Note_on_c, 1, 48, 127
1, 207865, Note_off_c, 1, 48, 0
1, 208018, Note_off_c, 1, 41, 0
1, 208195, Note_on_c, 1, 53, 127
1, 208528, Note_off_c, 1, 65, 0
1, 208675, Note_off_c, 1, 53, 0
1, 208675, End_track
0, 0, End_of_file