0, 0, Header, 1, 1, 480
1, 0, Start_track
1, 0, Title_t, "Test"
1, 0, Tempo, 500000
1, 0, Instrument_name_t, "Church Organ"
1, 32, Note_on_c, 1, 50, 127
1, 230, Note_on_c, 1, 53, 127
1, 428, Note_on_c, 1, 57, 127
1, 626, Note_on_c, 1, 62, 127
1, 824, Note_on_c, 1, 65, 127
1, 1021, Note_on_c, 1, 69, 127
1, 1215, Note_off_c, 1, 65, 0
1, 1217, Note_off_c, 1, 69, 0
1, 1218, Note_off_c, 1, 53, 0
1, 1218, Note_off_c, 1, 57, 0
1, 1218, Note_off_c, 1, 62, 0
1, 1219, Note_on_c, 1, 52, 127
1, 1219, Note_on_c, 1, 55, 127
1, 1219, Note_on_c, 1, 61, 127
1, 1417, Note_on_c, 1, 67, 127
1, 1615, Note_on_c, 1, 70, 127
1, 1808, Note_off_c, 1, 67, 0
1, 1811, Note_off_c, 1, 52, 0
1, 1811, Note_off_c, 1, 55, 0
1, 1811, Note_off_c, 1, 61, 0
1, 1811, Note_off_c, 1, 70, 0
1, 2801, Note_on_c, 1, 74, 127
1, 2999, Note_on_c, 1, 58, 127
1, 2999, Note_on_c, 1, 64, 127
1, 3192, Note_off_c, 1, 74, 0
1, 3197, Note_on_c, 1, 76, 127
1, 3393, Note_off_c, 1, 76, 0
1, 3394, Note_on_c, 1, 73, 127
1, 3590, Note_off_c, 1, 73, 0
1, 3591, Note_off_c, 1, 58, 0
1, 3591, Note_off_c, 1, 64, 0
1, 3988, Note_on_c, 1, 72, 127
1, 4185, Note_on_c, 1, 66, 127
1, 4779, Note_on_c, 1, 60, 127
1, 4975, Note_off_c, 1, 60, 0
1, 5760, Note_off_c, 1, 66, 0
1, 5765, Note_off_c, 1, 72, 0
1, 8923, Note_off_c, 1, 50, 0
1, 8932, Note_on_c, 1, 65, 127
1, 8932, Note_on_c, 1, 62, 127
1, 8932, Note_on_c, 1, 57, 127
1, 8932, Note_on_c, 1, 50, 127
1, 9128, Note_off_c, 1, 65, 0
1, 9129, Note_on_c, 1, 64, 127
1, 9323, Note_off_c, 1, 62, 0
1, 9325, Note_off_c, 1, 64, 0
1, 9525, Note_on_c, 1, 77, 127
1, 9622, Note_off_c, 1, 77, 0
1, 9623, Note_off_c, 1, 57, 0
1, 9623, Note_off_c, 1, 50, 0
1, 9624, Note_on_c, 1, 52, 127
1, 9624, Note_on_c, 1, 76, 127
1, 9721, Note_off_c, 1, 52, 0
1, 9721, Note_off_c, 1, 76, 0
1, 9723, Note_on_c, 1, 53, 127
1, 9723, Note_on_c, 1, 77, 127
1, 9820, Note_off_c, 1, 53, 0
1, 9822, Note_on_c, 1, 55, 127
1, 9919, Note_off_c, 1, 55, 0
1, 9920, Note_on_c, 1, 57, 127
1, 10114, Note_off_c, 1, 77, 0
1, 10116, Note_off_c, 1, 57, 0
1, 10118, Note_on_c, 1, 48, 127
1, 10118, Note_on_c, 1, 77, 127
1, 10314, Note_off_c, 1, 48, 0
1, 10316, Note_on_c, 1, 52, 127
1, 10512, Note_off_c, 1, 52, 0
1, 10514, Note_on_c, 1, 57, 127
1, 10710, Note_off_c, 1, 77, 0
1, 10710, Note_off_c, 1, 57, 0
1, 10712, Note_on_c, 1, 79, 127
1, 10712, Note_on_c, 1, 47, 127
1, 10776, Note_off_c, 1, 79, 0
1, 10777, Note_on_c, 1, 77, 127
1, 10841, Note_off_c, 1, 77, 0
1, 10843, Note_on_c, 1, 76, 127
1, 10907, Note_off_c, 1, 76, 0
1, 10908, Note_off_c, 1, 47, 0
1, 10909, Note_on_c, 1, 77, 127
1, 10909, Note_on_c, 1, 50, 127
1, 10973, Note_off_c, 1, 77, 0
1, 10975, Note_on_c, 1, 79, 127
1, 11039, Note_off_c, 1, 79, 0
1, 11105, Note_off_c, 1, 50, 0
1, 11107, Note_on_c, 1, 79, 127
1, 11107, Note_on_c, 1, 53, 127
1, 11171, Note_off_c, 1, 79, 0
1, 11173, Note_on_c, 1, 77, 127
1, 11237, Note_off_c, 1, 77, 0
1, 11303, Note_off_c, 1, 53, 0
1, 11305, Note_on_c, 1, 77, 127
1, 11305, Note_on_c, 1, 57, 127
1, 11369, Note_off_c, 1, 77, 0
1, 11371, Note_on_c, 1, 79, 127
1, 11435, Note_off_c, 1, 79, 0
1, 11501, Note_off_c, 1, 57, 0
1, 11503, Note_on_c, 1, 79, 127
1, 11503, Note_on_c, 1, 59, 127
1, 11567, Note_off_c, 1, 79, 0
1, 11568, Note_on_c, 1, 77, 127
1, 11632, Note_off_c, 1, 77, 0
1, 11699, Note_off_c, 1, 59, 0
1, 11700, Note_on_c, 1, 77, 127
1, 11700, Note_on_c, 1, 60, 127
1, 11764, Note_off_c, 1, 77, 0
1, 11766, Note_on_c, 1, 79, 127
1, 11830, Note_off_c, 1, 79, 0
1, 11896, Note_off_c, 1, 60, 0
1, 11898, Note_on_c, 1, 79, 127
1, 11898, Note_on_c, 1, 59, 127
1, 11962, Note_off_c, 1, 79, 0
1, 11964, Note_on_c, 1, 77, 127
1, 12028, Note_off_c, 1, 77, 0
1, 12094, Note_off_c, 1, 59, 0
1, 12096, Note_on_c, 1, 77, 127
1, 12096, Note_on_c, 1, 56, 127
1, 12160, Note_off_c, 1, 77, 0
1, 12162, Note_on_c, 1, 79, 127
1, 12226, Note_off_c, 1, 79, 0
1, 12292, Note_off_c, 1, 56, 0
1, 12294, Note_on_c, 1, 79, 127
1, 12294, Note_on_c, 1, 57, 127
1, 12358, Note_off_c, 1, 79, 0
1, 12360, Note_on_c, 1, 77, 127
1, 12424, Note_off_c, 1, 77, 0
1, 12490, Note_off_c, 1, 57, 0
1, 12491, Note_on_c, 1, 77, 127
1, 12491, Note_on_c, 1, 56, 127
1, 12555, Note_off_c, 1, 77, 0
1, 12557, Note_on_c, 1, 79, 127
1, 12621, Note_off_c, 1, 79, 0
1, 12689, Note_on_c, 1, 59, 127
1, 12885, Note_off_c, 1, 59, 0
1, 12887, Note_on_c, 1, 62, 127
1, 13083, Note_off_c, 1, 62, 0
1, 13085, Note_on_c, 1, 65, 127
1, 13281, Note_off_c, 1, 65, 0
1, 13282, Note_on_c, 1, 64, 127
1, 13478, Note_off_c, 1, 64, 0
1, 13678, Note_on_c, 1, 60, 127
1, 13874, Note_off_c, 1, 60, 0
1, 14269, Note_off_c, 1, 56, 0
1, 14271, Note_on_c, 1, 57, 127
1, 14469, Note_on_c, 1, 76, 127
1, 14665, Note_off_c, 1, 76, 0
1, 14667, Note_on_c, 1, 74, 127
1, 14863, Note_off_c, 1, 74, 0
1, 15062, Note_on_c, 1, 81, 127
1, 15258, Note_off_c, 1, 81, 0
1, 15260, Note_on_c, 1, 80, 127
1, 15456, Note_off_c, 1, 80, 0
1, 15656, Note_on_c, 1, 83, 127
1, 15852, Note_off_c, 1, 83, 0
1, 15853, Note_on_c, 1, 84, 127
1, 16049, Note_off_c, 1, 84, 0
1, 16640, Note_off_c, 1, 57, 0
1, 17238, Note_on_c, 1, 72, 127
1, 17238, Note_on_c, 1, 56, 127
1, 17238, Note_on_c, 1, 52, 127
1, 17434, Note_off_c, 1, 72, 0
1, 17435, Note_on_c, 1, 74, 127
1, 17631, Note_off_c, 1, 74, 0
1, 17633, Note_on_c, 1, 71, 127
1, 17829, Note_off_c, 1, 71, 0
1, 17830, Note_off_c, 1, 56, 0
1, 17830, Note_off_c, 1, 52, 0
1, 17831, Note_on_c, 1, 57, 127
1, 17831, Note_on_c, 1, 72, 127
1, 18029, Note_on_c, 1, 69, 127
1, 18226, Note_on_c, 1, 64, 127
1, 18422, Note_off_c, 1, 64, 0
1, 18424, Note_on_c, 1, 60, 127
1, 18620, Note_off_c, 1, 60, 0
1, 18818, Note_off_c, 1, 57, 0
1, 18819, Note_off_c, 1, 69, 0
1, 19017, Note_on_c, 1, 55, 127
1, 19213, Note_off_c, 1, 55, 0
1, 19215, Note_on_c, 1, 53, 127
1, 19411, Note_off_c, 1, 53, 0
1, 19413, Note_on_c, 1, 52, 127
1, 19609, Note_off_c, 1, 52, 0
1, 20402, Note_on_c, 1, 62, 127
1, 20402, Note_on_c, 1, 71, 127
1, 20406, Note_off_c, 1, 72, 0
1, 20598, Note_off_c, 1, 62, 0
1, 20598, Note_off_c, 1, 71, 0
1, 20797, Note_on_c, 1, 59, 127
1, 20797, Note_on_c, 1, 74, 127
1, 20993, Note_off_c, 1, 59, 0
1, 20993, Note_off_c, 1, 74, 0
1, 20995, Note_on_c, 1, 76, 127
1, 21191, Note_off_c, 1, 76, 0
1, 21193, Note_on_c, 1, 77, 127
1, 21389, Note_off_c, 1, 77, 0
1, 21391, Note_on_c, 1, 68, 127
1, 21587, Note_off_c, 1, 68, 0
1, 21984, Note_on_c, 1, 65, 127
1, 22180, Note_off_c, 1, 65, 0
1, 25741, Note_on_c, 1, 57, 127
1, 25939, Note_on_c, 1, 60, 127
1, 26132, Note_off_c, 1, 57, 0
1, 26135, Note_off_c, 1, 60, 0
1, 26137, Note_on_c, 1, 64, 127
1, 26333, Note_off_c, 1, 64, 0
1, 26335, Note_on_c, 1, 69, 127
1, 26531, Note_off_c, 1, 69, 0
1, 26532, Note_on_c, 1, 72, 127
1, 26728, Note_off_c, 1, 72, 0
1, 26730, Note_on_c, 1, 76, 127
1, 26926, Note_off_c, 1, 76, 0
1, 26928, Note_on_c, 1, 69, 127
1, 27124, Note_off_c, 1, 69, 0
1, 27126, Note_on_c, 1, 72, 127
1, 27322, Note_off_c, 1, 72, 0
1, 27323, Note_on_c, 1, 76, 127
1, 27519, Note_off_c, 1, 76, 0
1, 27521, Note_on_c, 1, 81, 127
1, 27717, Note_off_c, 1, 81, 0
1, 27719, Note_on_c, 1, 76, 127
1, 27915, Note_off_c, 1, 76, 0
1, 27917, Note_on_c, 1, 72, 127
1, 28113, Note_off_c, 1, 72, 0
1, 28114, Note_on_c, 1, 76, 127
1, 28310, Note_off_c, 1, 76, 0
1, 28312, Note_on_c, 1, 72, 127
1, 28508, Note_off_c, 1, 72, 0
1, 28510, Note_on_c, 1, 69, 127
1, 28706, Note_off_c, 1, 69, 0
1, 28708, Note_on_c, 1, 72, 127
1, 28805, Note_off_c, 1, 72, 0
1, 28807, Note_on_c, 1, 71, 127
1, 28904, Note_off_c, 1, 71, 0
1, 28905, Note_on_c, 1, 69, 127
1, 29002, Note_off_c, 1, 69, 0
1, 29004, Note_on_c, 1, 68, 127
1, 29101, Note_off_c, 1, 68, 0
1, 29103, Note_on_c, 1, 69, 127
1, 29299, Note_off_c, 1, 69, 0
1, 29301, Note_on_c, 1, 72, 127
1, 29497, Note_off_c, 1, 72, 0
1, 29499, Note_on_c, 1, 69, 127
1, 29695, Note_off_c, 1, 69, 0
1, 29696, Note_on_c, 1, 64, 127
1, 29892, Note_off_c, 1, 64, 0
1, 29894, Note_on_c, 1, 69, 127
1, 30090, Note_off_c, 1, 69, 0
1, 30092, Note_on_c, 1, 64, 127
1, 30288, Note_off_c, 1, 64, 0
1, 30290, Note_on_c, 1, 60, 127
1, 30486, Note_off_c, 1, 60, 0
1, 30488, Note_on_c, 1, 64, 127
1, 30684, Note_off_c, 1, 64, 0
1, 30685, Note_on_c, 1, 60, 127
1, 30881, Note_off_c, 1, 60, 0
1, 30883, Note_on_c, 1, 57, 127
1, 31079, Note_off_c, 1, 57, 0
1, 31081, Note_on_c, 1, 60, 127
1, 31178, Note_off_c, 1, 60, 0
1, 31180, Note_on_c, 1, 59, 127
1, 31277, Note_off_c, 1, 59, 0
1, 31279, Note_on_c, 1, 57, 127
1, 31376, Note_off_c, 1, 57, 0
1, 31377, Note_on_c, 1, 56, 127
1, 31474, Note_off_c, 1, 56, 0
1, 31476, Note_on_c, 1, 57, 127
1, 31679, Note_on_c, 1, 52, 127
1, 31702, Note_off_c, 1, 57, 0
1, 31880, Note_off_c, 1, 52, 0
1, 31882, Note_on_c, 1, 48, 127
1, 32083, Note_off_c, 1, 48, 0
1, 32103, Note_on_c, 1, 45, 127
1, 32300, Note_on_c, 1, 48, 127
1, 32498, Note_on_c, 1, 52, 127
1, 32696, Note_on_c, 1, 57, 127
1, 32894, Note_on_c, 1, 60, 127
1, 33091, Note_on_c, 1, 64, 127
1, 33285, Note_off_c, 1, 60, 0
1, 33287, Note_off_c, 1, 64, 0
1, 33288, Note_off_c, 1, 48, 0
1, 33288, Note_off_c, 1, 52, 0
1, 33288, Note_off_c, 1, 57, 0
1, 33289, Note_on_c, 1, 47, 127
1, 33289, Note_on_c, 1, 50, 127
1, 33289, Note_on_c, 1, 56, 127
1, 33487, Note_on_c, 1, 62, 127
1, 33685, Note_on_c, 1, 65, 127
1, 33878, Note_off_c, 1, 62, 0
1, 33881, Note_off_c, 1, 47, 0
1, 33881, Note_off_c, 1, 50, 0
1, 33881, Note_off_c, 1, 56, 0
1, 33881, Note_off_c, 1, 65, 0
1, 34871, Note_on_c, 1, 69, 127
1, 35069, Note_on_c, 1, 53, 127
1, 35069, Note_on_c, 1, 59, 127
1, 35262, Note_off_c, 1, 69, 0
1, 35267, Note_on_c, 1, 71, 127
1, 35463, Note_off_c, 1, 71, 0
1, 35464, Note_on_c, 1, 68, 127
1, 35660, Note_off_c, 1, 68, 0
1, 35661, Note_off_c, 1, 53, 0
1, 35661, Note_off_c, 1, 59, 0
1, 36058, Note_on_c, 1, 67, 127
1, 36256, Note_on_c, 1, 61, 127
1, 36849, Note_on_c, 1, 55, 127
1, 37045, Note_off_c, 1, 55, 0
1, 37831, Note_off_c, 1, 61, 0
1, 37836, Note_off_c, 1, 67, 0
1, 39222, Note_on_c, 1, 58, 127
1, 39613, Note_off_c, 1, 58, 0
1, 40993, Note_off_c, 1, 45, 0
1, 41002, Note_on_c, 1, 60, 127
1, 41002, Note_on_c, 1, 57, 127
1, 41002, Note_on_c, 1, 52, 127
1, 41002, Note_on_c, 1, 45, 127
1, 41198, Note_off_c, 1, 60, 0
1, 41200, Note_on_c, 1, 59, 127
1, 41393, Note_off_c, 1, 57, 0
1, 41396, Note_off_c, 1, 59, 0
1, 41594, Note_off_c, 1, 52, 0
1, 41595, Note_on_c, 1, 72, 127
1, 41692, Note_off_c, 1, 72, 0
1, 41694, Note_on_c, 1, 71, 127
1, 41791, Note_off_c, 1, 71, 0
1, 41792, Note_off_c, 1, 45, 0
1, 41793, Note_on_c, 1, 45, 127
1, 41793, Note_on_c, 1, 72, 127
1, 41890, Note_off_c, 1, 45, 0
1, 41892, Note_on_c, 1, 46, 127
1, 41989, Note_off_c, 1, 46, 0
1, 41991, Note_on_c, 1, 48, 127
1, 42088, Note_off_c, 1, 48, 0
1, 42089, Note_on_c, 1, 50, 127
1, 42186, Note_off_c, 1, 50, 0
1, 42187, Note_off_c, 1, 72, 0
1, 42188, Note_on_c, 1, 51, 127
1, 42188, Note_on_c, 1, 72, 127
1, 42384, Note_off_c, 1, 51, 0
1, 42386, Note_on_c, 1, 48, 127
1, 42582, Note_off_c, 1, 48, 0
1, 42584, Note_on_c, 1, 45, 127
1, 42780, Note_off_c, 1, 72, 0
1, 42780, Note_off_c, 1, 45, 0
1, 42782, Note_on_c, 1, 74, 127
1, 42782, Note_on_c, 1, 42, 127
1, 42846, Note_off_c, 1, 74, 0
1, 42848, Note_on_c, 1, 72, 127
1, 42912, Note_off_c, 1, 72, 0
1, 42978, Note_off_c, 1, 42, 0
1, 42979, Note_on_c, 1, 72, 127
1, 42979, Note_on_c, 1, 45, 127
1, 43043, Note_off_c, 1, 72, 0
1, 43045, Note_on_c, 1, 74, 127
1, 43109, Note_off_c, 1, 74, 0
1, 43175, Note_off_c, 1, 45, 0
1, 43177, Note_on_c, 1, 74, 127
1, 43177, Note_on_c, 1, 50, 127
1, 43241, Note_off_c, 1, 74, 0
1, 43243, Note_on_c, 1, 72, 127
1, 43307, Note_off_c, 1, 72, 0
1, 43373, Note_off_c, 1, 50, 0
1, 43375, Note_on_c, 1, 72, 127
1, 43375, Note_on_c, 1, 54, 127
1, 43439, Note_off_c, 1, 72, 0
1, 43441, Note_on_c, 1, 74, 127
1, 43505, Note_off_c, 1, 74, 0
1, 43571, Note_off_c, 1, 54, 0
1, 43573, Note_on_c, 1, 74, 127
1, 43573, Note_on_c, 1, 57, 127
1, 43637, Note_off_c, 1, 74, 0
1, 43639, Note_on_c, 1, 72, 127
1, 43703, Note_off_c, 1, 72, 0
1, 43769, Note_off_c, 1, 57, 0
1, 43770, Note_on_c, 1, 72, 127
1, 43770, Note_on_c, 1, 60, 127
1, 43834, Note_off_c, 1, 72, 0
1, 43836, Note_on_c, 1, 74, 127
1, 43900, Note_off_c, 1, 74, 0
1, 43966, Note_off_c, 1, 60, 0
1, 43968, Note_on_c, 1, 74, 127
1, 43968, Note_on_c, 1, 63, 127
1, 44032, Note_off_c, 1, 74, 0
1, 44034, Note_on_c, 1, 72, 127
1, 44098, Note_off_c, 1, 72, 0
1, 44164, Note_off_c, 1, 63, 0
1, 44166, Note_on_c, 1, 72, 127
1, 44166, Note_on_c, 1, 62, 127
1, 44230, Note_off_c, 1, 72, 0
1, 44232, Note_on_c, 1, 74, 127
1, 44296, Note_off_c, 1, 74, 0
1, 44362, Note_off_c, 1, 62, 0
1, 44364, Note_on_c, 1, 60, 127
1, 44560, Note_off_c, 1, 60, 0
1, 44561, Note_on_c, 1, 58, 127
1, 44957, Note_on_c, 1, 66, 127
1, 45155, Note_on_c, 1, 69, 127
1, 45348, Note_off_c, 1, 66, 0
1, 45351, Note_off_c, 1, 58, 0
1, 45352, Note_on_c, 1, 57, 127
1, 45548, Note_off_c, 1, 57, 0
1, 45550, Note_on_c, 1, 55, 127
1, 45550, Note_on_c, 1, 75, 127
1, 45746, Note_off_c, 1, 55, 0
1, 45746, Note_off_c, 1, 75, 0
1, 45747, Note_off_c, 1, 69, 0
1, 45748, Note_on_c, 1, 57, 127
1, 45748, Note_on_c, 1, 78, 127
1, 45944, Note_off_c, 1, 57, 0
1, 45944, Note_off_c, 1, 78, 0
1, 45946, Note_on_c, 1, 55, 127
1, 45946, Note_on_c, 1, 81, 127
1, 46142, Note_off_c, 1, 55, 0
1, 46142, Note_off_c, 1, 81, 0
1, 46144, Note_on_c, 1, 54, 127
1, 46144, Note_on_c, 1, 72, 127
1, 46340, Note_off_c, 1, 54, 0
1, 46340, Note_off_c, 1, 72, 0
1, 46341, Note_on_c, 1, 70, 127
1, 46341, Note_on_c, 1, 55, 127
1, 46537, Note_off_c, 1, 70, 0
1, 46539, Note_on_c, 1, 69, 127
1, 46735, Note_off_c, 1, 69, 0
1, 46737, Note_on_c, 1, 67, 127
1, 46933, Note_off_c, 1, 67, 0
1, 46935, Note_on_c, 1, 82, 127
1, 47032, Note_off_c, 1, 55, 0
1, 47032, Note_off_c, 1, 82, 0
1, 47033, Note_on_c, 1, 55, 127
1, 47033, Note_on_c, 1, 81, 127
1, 47130, Note_off_c, 1, 55, 0
1, 47130, Note_off_c, 1, 81, 0
1, 47132, Note_on_c, 1, 57, 127
1, 47132, Note_on_c, 1, 82, 127
1, 47229, Note_off_c, 1, 57, 0
1, 47231, Note_on_c, 1, 58, 127
1, 47328, Note_off_c, 1, 58, 0
1, 47330, Note_on_c, 1, 60, 127
1, 47427, Note_off_c, 1, 60, 0
1, 47429, Note_on_c, 1, 62, 127
1, 47526, Note_off_c, 1, 82, 0
1, 47526, Note_off_c, 1, 62, 0
1, 47528, Note_on_c, 1, 64, 127
1, 47528, Note_on_c, 1, 82, 127
1, 47625, Note_off_c, 1, 64, 0
1, 47627, Note_on_c, 1, 65, 127
1, 47724, Note_off_c, 1, 65, 0
1, 47726, Note_on_c, 1, 67, 127
1, 47823, Note_off_c, 1, 67, 0
1, 48120, Note_off_c, 1, 82, 0
1, 48121, Note_on_c, 1, 84, 127
1, 48121, Note_on_c, 1, 61, 127
1, 48182, Note_on_c, 1, 82, 127
1, 48185, Note_off_c, 1, 84, 0
1, 48218, Note_off_c, 1, 61, 0
1, 48220, Note_on_c, 1, 62, 127
1, 48246, Note_off_c, 1, 82, 0
1, 48317, Note_off_c, 1, 62, 0
1, 48319, Note_on_c, 1, 64, 127
1, 48416, Note_off_c, 1, 64, 0
1, 48714, Note_on_c, 1, 55, 127
1, 48811, Note_off_c, 1, 55, 0
1, 48813, Note_on_c, 1, 57, 127
1, 48910, Note_off_c, 1, 57, 0
1, 48912, Note_on_c, 1, 58, 127
1, 49009, Note_off_c, 1, 58, 0
1, 49308, Note_on_c, 1, 52, 127
1, 49405, Note_off_c, 1, 52, 0
1, 49407, Note_on_c, 1, 53, 127
1, 49504, Note_off_c, 1, 53, 0
1, 49901, Note_on_c, 1, 45, 127
1, 50097, Note_off_c, 1, 45, 0
1, 50099, Note_on_c, 1, 47, 127
1, 50099, Note_on_c, 1, 81, 127
1, 50295, Note_off_c, 1, 47, 0
1, 50295, Note_off_c, 1, 81, 0
1, 50296, Note_on_c, 1, 49, 127
1, 50296, Note_on_c, 1, 79, 127
1, 50492, Note_off_c, 1, 49, 0
1, 50492, Note_off_c, 1, 79, 0
1, 50494, Note_on_c, 1, 50, 127
1, 50494, Note_on_c, 1, 77, 127
1, 50690, Note_off_c, 1, 50, 0
1, 50690, Note_off_c, 1, 77, 0
1, 50692, Note_on_c, 1, 52, 127
1, 50692, Note_on_c, 1, 76, 127
1, 50888, Note_off_c, 1, 52, 0
1, 50888, Note_off_c, 1, 76, 0
1, 50890, Note_on_c, 1, 53, 127
1, 50890, Note_on_c, 1, 74, 127
1, 51086, Note_off_c, 1, 53, 0
1, 51086, Note_off_c, 1, 74, 0
1, 51088, Note_on_c, 1, 55, 127
1, 51088, Note_on_c, 1, 73, 127
1, 51284, Note_off_c, 1, 55, 0
1, 51284, Note_off_c, 1, 73, 0
1, 51285, Note_on_c, 1, 57, 127
1, 51285, Note_on_c, 1, 81, 127
1, 51481, Note_off_c, 1, 57, 0
1, 51481, Note_off_c, 1, 81, 0
1, 51483, Note_on_c, 1, 45, 127
1, 51483, Note_on_c, 1, 79, 127
1, 51679, Note_off_c, 1, 45, 0
1, 51679, Note_off_c, 1, 79, 0
1, 51681, Note_on_c, 1, 77, 127
1, 51681, Note_on_c, 1, 50, 127
1, 51877, Note_off_c, 1, 77, 0
1, 51879, Note_on_c, 1, 76, 127
1, 52075, Note_off_c, 1, 76, 0
1, 52076, Note_on_c, 1, 74, 127
1, 52272, Note_off_c, 1, 74, 0
1, 52274, Note_on_c, 1, 72, 127
1, 52402, Note_off_c, 1, 50, 0
1, 52470, Note_off_c, 1, 72, 0
1, 52472, Note_on_c, 1, 62, 127
1, 52472, Note_on_c, 1, 70, 127
1, 52668, Note_off_c, 1, 62, 0
1, 52668, Note_off_c, 1, 70, 0
1, 52670, Note_on_c, 1, 60, 127
1, 52670, Note_on_c, 1, 69, 127
1, 52866, Note_off_c, 1, 60, 0
1, 52866, Note_off_c, 1, 69, 0
1, 52867, Note_on_c, 1, 58, 127
1, 52867, Note_on_c, 1, 67, 127
1, 53063, Note_off_c, 1, 58, 0
1, 53063, Note_off_c, 1, 67, 0
1, 53065, Note_on_c, 1, 57, 127
1, 53065, Note_on_c, 1, 79, 127
1, 53261, Note_off_c, 1, 57, 0
1, 53261, Note_off_c, 1, 79, 0
1, 53263, Note_on_c, 1, 58, 127
1, 53263, Note_on_c, 1, 77, 127
1, 53459, Note_off_c, 1, 58, 0
1, 53459, Note_off_c, 1, 77, 0
1, 53461, Note_on_c, 1, 76, 127
1, 53461, Note_on_c, 1, 48, 127
1, 53657, Note_off_c, 1, 76, 0
1, 53658, Note_on_c, 1, 74, 127
1, 53854, Note_off_c, 1, 74, 0
1, 53856, Note_on_c, 1, 72, 127
1, 54052, Note_off_c, 1, 72, 0
1, 54054, Note_on_c, 1, 70, 127
1, 54182, Note_off_c, 1, 48, 0
1, 54250, Note_off_c, 1, 70, 0
1, 54252, Note_on_c, 1, 60, 127
1, 54252, Note_on_c, 1, 69, 127
1, 54448, Note_off_c, 1, 60, 0
1, 54448, Note_off_c, 1, 69, 0
1, 54449, Note_on_c, 1, 58, 127
1, 54449, Note_on_c, 1, 67, 127
1, 54645, Note_off_c, 1, 58, 0
1, 54645, Note_off_c, 1, 67, 0
1, 54647, Note_on_c, 1, 57, 127
1, 54647, Note_on_c, 1, 65, 127
1, 54843, Note_off_c, 1, 57, 0
1, 54843, Note_off_c, 1, 65, 0
1, 54845, Note_on_c, 1, 55, 127
1, 54845, Note_on_c, 1, 77, 127
1, 55041, Note_off_c, 1, 55, 0
1, 55041, Note_off_c, 1, 77, 0
1, 55043, Note_on_c, 1, 57, 127
1, 55043, Note_on_c, 1, 76, 127
1, 55239, Note_off_c, 1, 57, 0
1, 55239, Note_off_c, 1, 76, 0
1, 55240, Note_on_c, 1, 74, 127
1, 55240, Note_on_c, 1, 46, 127
1, 55436, Note_off_c, 1, 74, 0
1, 55438, Note_on_c, 1, 82, 127
1, 55634, Note_off_c, 1, 82, 0
1, 55636, Note_on_c, 1, 81, 127
1, 55832, Note_off_c, 1, 46, 0
1, 55832, Note_off_c, 1, 81, 0
1, 55834, Note_on_c, 1, 80, 127
1, 56030, Note_off_c, 1, 80, 0
1, 56032, Note_on_c, 1, 81, 127
1, 56228, Note_off_c, 1, 81, 0
1, 56229, Note_on_c, 1, 76, 127
1, 56425, Note_off_c, 1, 76, 0
1, 56427, Note_on_c, 1, 77, 127
1, 56623, Note_off_c, 1, 77, 0
1, 56625, Note_on_c, 1, 73, 127
1, 56821, Note_off_c, 1, 73, 0
1, 56823, Note_on_c, 1, 74, 127
1, 57020, Note_on_c, 1, 68, 127
1, 57020, Note_on_c, 1, 47, 127
1, 57111, Note_off_c, 1, 74, 0
1, 57216, Note_off_c, 1, 68, 0
1, 57218, Note_on_c, 1, 71, 127
1, 57414, Note_off_c, 1, 71, 0
1, 57612, Note_off_c, 1, 47, 0
1, 57614, Note_on_c, 1, 77, 127
1, 57810, Note_off_c, 1, 77, 0
1, 57811, Note_on_c, 1, 76, 127
1, 58007, Note_off_c, 1, 76, 0
1, 58009, Note_on_c, 1, 74, 127
1, 58205, Note_off_c, 1, 74, 0
1, 58207, Note_on_c, 1, 73, 127
1, 58405, Note_on_c, 1, 74, 127
1, 58433, Note_off_c, 1, 73, 0
1, 58601, Note_off_c, 1, 74, 0
1, 58602, Note_on_c, 1, 71, 127
1, 58798, Note_off_c, 1, 71, 0
1, 58800, Note_on_c, 1, 45, 127
1, 58800, Note_on_c, 1, 73, 127
1, 58998, Note_on_c, 1, 70, 127
1, 59191, Note_off_c, 1, 45, 0
1, 59194, Note_off_c, 1, 70, 0
1, 59196, Note_on_c, 1, 69, 127
1, 59392, Note_off_c, 1, 69, 0
1, 59393, Note_on_c, 1, 68, 127
1, 59589, Note_off_c, 1, 68, 0
1, 59789, Note_on_c, 1, 64, 127
1, 59984, Note_off_c, 1, 73, 0
1, 59985, Note_off_c, 1, 64, 0
1, 59987, Note_on_c, 1, 65, 127
1, 59987, Note_on_c, 1, 74, 127
1, 60183, Note_off_c, 1, 65, 0
1, 60184, Note_on_c, 1, 61, 127
1, 60380, Note_off_c, 1, 61, 0
1, 60382, Note_on_c, 1, 62, 127
1, 60578, Note_off_c, 1, 62, 0
1, 60580, Note_on_c, 1, 56, 127
1, 60677, Note_off_c, 1, 74, 0
1, 60679, Note_on_c, 1, 77, 127
1, 60776, Note_off_c, 1, 56, 0
1, 60776, Note_off_c, 1, 77, 0
1, 60778, Note_on_c, 1, 76, 127
1, 60778, Note_on_c, 1, 59, 127
1, 60875, Note_off_c, 1, 76, 0
1, 60877, Note_on_c, 1, 74, 127
1, 60974, Note_off_c, 1, 59, 0
1, 60974, Note_off_c, 1, 74, 0
1, 60976, Note_on_c, 1, 72, 127
1, 60976, Note_on_c, 1, 62, 127
1, 61073, Note_off_c, 1, 72, 0
1, 61074, Note_on_c, 1, 71, 127
1, 61171, Note_off_c, 1, 71, 0
1, 61172, Note_off_c, 1, 62, 0
1, 61173, Note_on_c, 1, 81, 127
1, 61173, Note_on_c, 1, 65, 127
1, 61237, Note_off_c, 1, 81, 0
1, 61239, Note_on_c, 1, 80, 127
1, 61303, Note_off_c, 1, 80, 0
1, 61305, Note_on_c, 1, 78, 127
1, 61369, Note_off_c, 1, 65, 0
1, 61369, Note_off_c, 1, 78, 0
1, 61371, Note_on_c, 1, 80, 127
1, 61371, Note_on_c, 1, 64, 127
1, 61435, Note_off_c, 1, 80, 0
1, 61437, Note_on_c, 1, 81, 127
1, 61501, Note_off_c, 1, 81, 0
1, 61567, Note_off_c, 1, 64, 0
1, 61569, Note_on_c, 1, 81, 127
1, 61569, Note_on_c, 1, 62, 127
1, 61633, Note_off_c, 1, 81, 0
1, 61635, Note_on_c, 1, 80, 127
1, 61699, Note_off_c, 1, 80, 0
1, 61765, Note_off_c, 1, 62, 0
1, 61767, Note_on_c, 1, 80, 127
1, 61767, Note_on_c, 1, 61, 127
1, 61831, Note_off_c, 1, 80, 0
1, 61832, Note_on_c, 1, 81, 127
1, 61896, Note_off_c, 1, 81, 0
1, 61963, Note_off_c, 1, 61, 0
1, 61964, Note_on_c, 1, 81, 127
1, 61964, Note_on_c, 1, 62, 127
1, 62028, Note_off_c, 1, 81, 0
1, 62030, Note_on_c, 1, 80, 127
1, 62094, Note_off_c, 1, 80, 0
1, 62160, Note_off_c, 1, 62, 0
1, 62162, Note_on_c, 1, 80, 127
1, 62162, Note_on_c, 1, 59, 127
1, 62226, Note_off_c, 1, 80, 0
1, 62228, Note_on_c, 1, 78, 127
1, 62292, Note_off_c, 1, 78, 0
1, 62358, Note_off_c, 1, 59, 0
1, 62360, Note_on_c, 1, 61, 127
1, 62360, Note_on_c, 1, 81, 127
1, 62567, Note_off_c, 1, 61, 0
1, 62574, Note_on_c, 1, 58, 127
1, 62770, Note_off_c, 1, 58, 0
1, 62772, Note_on_c, 1, 57, 127
1, 62952, Note_off_c, 1, 81, 0
1, 62968, Note_off_c, 1, 57, 0
1, 62970, Note_on_c, 1, 56, 127
1, 63166, Note_off_c, 1, 56, 0
1, 63167, Note_on_c, 1, 57, 127
1, 63363, Note_off_c, 1, 57, 0
1, 63365, Note_on_c, 1, 52, 127
1, 63561, Note_off_c, 1, 52, 0
1, 63563, Note_on_c, 1, 53, 127
1, 63766, Note_off_c, 1, 53, 0
1, 63777, Note_on_c, 1, 49, 127
1, 63988, Note_off_c, 1, 49, 0
1, 64008, Note_on_c, 1, 50, 127
1, 64234, Note_off_c, 1, 50, 0
1, 64255, Note_on_c, 1, 44, 127
1, 64347, Note_on_c, 1, 65, 127
1, 64438, Note_on_c, 1, 71, 127
1, 64530, Note_on_c, 1, 74, 127
1, 64799, Note_off_c, 1, 71, 0
1, 64917, Note_on_c, 1, 76, 127
1, 64920, Note_off_c, 1, 74, 0
1, 64982, Note_off_c, 1, 76, 0
1, 65049, Note_on_c, 1, 73, 127
1, 65075, Note_off_c, 1, 65, 0
1, 65114, Note_off_c, 1, 73, 0
1, 65174, Note_off_c, 1, 44, 0
1, 65181, Note_on_c, 1, 76, 127
1, 65181, Note_on_c, 1, 71, 127
1, 65181, Note_on_c, 1, 44, 127
1, 65181, Note_on_c, 1, 53, 127
1, 65306, Note_off_c, 1, 76, 0
1, 65308, Note_on_c, 1, 74, 127
1, 65373, Note_off_c, 1, 74, 0
1, 66038, Note_on_c, 1, 73, 127
1, 66485, Note_off_c, 1, 73, 0
1, 66767, Note_on_c, 1, 52, 127
1, 66767, Note_on_c, 1, 45, 127
1, 66767, Note_on_c, 1, 69, 127
1, 66772, Note_off_c, 1, 71, 0
1, 66773, Note_off_c, 1, 44, 0
1, 66773, Note_off_c, 1, 53, 0
1, 66866, Note_off_c, 1, 52, 0
1, 66889, Note_on_c, 1, 57, 127
1, 66967, Note_off_c, 1, 45, 0
1, 66988, Note_off_c, 1, 57, 0
1, 66998, Note_on_c, 1, 59, 127
1, 67097, Note_off_c, 1, 59, 0
1, 67101, Note_on_c, 1, 61, 127
1, 67168, Note_off_c, 1, 69, 0
1, 67200, Note_off_c, 1, 61, 0
1, 67202, Note_on_c, 1, 62, 127
1, 67301, Note_off_c, 1, 62, 0
1, 67303, Note_on_c, 1, 64, 127
1, 67402, Note_off_c, 1, 64, 0
1, 67404, Note_on_c, 1, 65, 127
1, 67604, Note_off_c, 1, 65, 0
1, 67606, Note_on_c, 1, 64, 127
1, 67806, Note_off_c, 1, 64, 0
1, 67808, Note_on_c, 1, 62, 127
1, 68008, Note_off_c, 1, 62, 0
1, 68010, Note_on_c, 1, 64, 127
1, 68210, Note_off_c, 1, 64, 0
1, 68211, Note_on_c, 1, 62, 127
1, 68411, Note_off_c, 1, 62, 0
1, 68413, Note_on_c, 1, 61, 127
1, 68613, Note_off_c, 1, 61, 0
1, 68615, Note_on_c, 1, 62, 127
1, 68715, Note_on_c, 1, 50, 127
1, 68817, Note_off_c, 1, 50, 0
1, 68819, Note_on_c, 1, 52, 127
1, 68921, Note_off_c, 1, 52, 0
1, 68923, Note_on_c, 1, 54, 127
1, 69025, Note_off_c, 1, 54, 0
1, 69027, Note_on_c, 1, 55, 127
1, 69129, Note_off_c, 1, 55, 0
1, 69131, Note_on_c, 1, 57, 127
1, 69233, Note_off_c, 1, 57, 0
1, 69235, Note_on_c, 1, 58, 127
1, 69441, Note_off_c, 1, 58, 0
1, 69622, Note_off_c, 1, 62, 0
1, 69651, Note_on_c, 1, 70, 127
1, 69651, Note_on_c, 1, 55, 127
1, 69857, Note_off_c, 1, 70, 0
1, 69857, Note_off_c, 1, 55, 0
1, 69859, Note_on_c, 1, 57, 127
1, 69859, Note_on_c, 1, 60, 127
1, 70065, Note_off_c, 1, 57, 0
1, 70066, Note_on_c, 1, 55, 127
1, 70272, Note_off_c, 1, 55, 0
1, 70273, Note_off_c, 1, 60, 0
1, 70274, Note_on_c, 1, 69, 127
1, 70274, Note_on_c, 1, 54, 127
1, 70480, Note_off_c, 1, 69, 0
1, 70480, Note_off_c, 1, 54, 0
1, 70482, Note_on_c, 1, 58, 127
1, 70482, Note_on_c, 1, 55, 127
1, 70584, Note_off_c, 1, 58, 0
1, 70595, Note_on_c, 1, 62, 127
1, 70699, Note_off_c, 1, 62, 0
1, 70700, Note_on_c, 1, 64, 127
1, 70804, Note_off_c, 1, 64, 0
1, 70805, Note_on_c, 1, 65, 127
1, 70909, Note_off_c, 1, 65, 0
1, 71120, Note_on_c, 1, 67, 127
1, 71208, Note_off_c, 1, 55, 0
1, 71225, Note_on_c, 1, 52, 127
1, 71329, Note_off_c, 1, 52, 0
1, 71330, Note_on_c, 1, 50, 127
1, 71434, Note_off_c, 1, 50, 0
1, 71435, Note_on_c, 1, 49, 127
1, 71539, Note_off_c, 1, 49, 0
1, 71750, Note_on_c, 1, 53, 127
1, 71854, Note_off_c, 1, 67, 0
1, 71855, Note_on_c, 1, 57, 127
1, 71959, Note_off_c, 1, 57, 0
1, 71960, Note_on_c, 1, 59, 127
1, 72064, Note_off_c, 1, 59, 0
1, 72065, Note_on_c, 1, 61, 127
1, 72169, Note_off_c, 1, 61, 0
1, 72485, Note_on_c, 1, 69, 127
1, 72589, Note_off_c, 1, 69, 0
1, 72590, Note_on_c, 1, 71, 127
1, 72694, Note_off_c, 1, 71, 0
1, 72695, Note_on_c, 1, 73, 127
1, 72799, Note_off_c, 1, 73, 0
1, 72800, Note_on_c, 1, 74, 127
1, 72904, Note_off_c, 1, 74, 0
1, 72905, Note_on_c, 1, 76, 127
1, 73009, Note_off_c, 1, 76, 0
1, 73010, Note_on_c, 1, 77, 127
1, 73219, Note_off_c, 1, 77, 0
1, 73429, Note_off_c, 1, 53, 0
1, 73430, Note_on_c, 1, 58, 127
1, 73430, Note_on_c, 1, 65, 127
1, 73430, Note_on_c, 1, 74, 127
1, 73639, Note_off_c, 1, 58, 0
1, 73639, Note_off_c, 1, 65, 0
1, 73639, Note_off_c, 1, 74, 0
1, 73640, Note_on_c, 1, 67, 127
1, 73640, Note_on_c, 1, 76, 127
1, 73640, Note_on_c, 1, 55, 127
1, 73849, Note_off_c, 1, 67, 0
1, 73849, Note_off_c, 1, 76, 0
1, 73850, Note_on_c, 1, 65, 127
1, 73850, Note_on_c, 1, 74, 127
1, 74059, Note_off_c, 1, 55, 0
1, 74059, Note_off_c, 1, 65, 0
1, 74059, Note_off_c, 1, 74, 0
1, 74060, Note_on_c, 1, 57, 127
1, 74060, Note_on_c, 1, 64, 127
1, 74060, Note_on_c, 1, 73, 127
1, 74269, Note_off_c, 1, 57, 0
1, 74269, Note_off_c, 1, 64, 0
1, 74269, Note_off_c, 1, 73, 0
1, 74270, Note_on_c, 1, 74, 127
1, 74270, Note_on_c, 1, 62, 127
1, 74270, Note_on_c, 1, 58, 127
1, 74374, Note_off_c, 1, 74, 0
1, 74375, Note_on_c, 1, 72, 127
1, 74479, Note_off_c, 1, 72, 0
1, 74480, Note_on_c, 1, 70, 127
1, 74584, Note_off_c, 1, 70, 0
1, 74585, Note_on_c, 1, 69, 127
1, 74689, Note_off_c, 1, 69, 0
1, 74690, Note_on_c, 1, 67, 127
1, 74794, Note_off_c, 1, 67, 0
1, 74795, Note_on_c, 1, 65, 127
1, 74899, Note_off_c, 1, 62, 0
1, 74899, Note_off_c, 1, 65, 0
1, 74900, Note_on_c, 1, 64, 127
1, 74900, Note_on_c, 1, 60, 127
1, 75004, Note_off_c, 1, 64, 0
1, 75528, Note_off_c, 1, 58, 0
1, 75530, Note_on_c, 1, 57, 127
1, 76158, Note_off_c, 1, 60, 0
1, 76788, Note_off_c, 1, 57, 0
1, 76790, Note_on_c, 1, 55, 127
1, 77209, Note_off_c, 1, 55, 0
1, 77210, Note_on_c, 1, 53, 127
1, 77419, Note_off_c, 1, 53, 0
1, 77420, Note_on_c, 1, 52, 127
1, 78049, Note_off_c, 1, 52, 0
1, 79310, Note_on_c, 1, 50, 127
1, 79939, Note_off_c, 1, 50, 0
1, 79940, Note_on_c, 1, 48, 127
1, 80569, Note_off_c, 1, 48, 0
1, 80570, Note_on_c, 1, 60, 127
1, 80570, Note_on_c, 1, 46, 127
1, 80570, Note_on_c, 1, 55, 127
1, 80674, Note_off_c, 1, 60, 0
1, 80675, Note_on_c, 1, 64, 127
1, 80779, Note_off_c, 1, 64, 0
1, 80780, Note_on_c, 1, 65, 127
1, 80884, Note_off_c, 1, 65, 0
1, 80885, Note_on_c, 1, 69, 127
1, 80989, Note_off_c, 1, 69, 0
1, 81199, Note_off_c, 1, 46, 0
1, 81199, Note_off_c, 1, 55, 0
1, 81200, Note_on_c, 1, 60, 127
1, 81200, Note_on_c, 1, 45, 127
1, 81200, Note_on_c, 1, 53, 127
1, 81304, Note_off_c, 1, 60, 0
1, 81305, Note_on_c, 1, 64, 127
1, 81409, Note_off_c, 1, 64, 0
1, 81410, Note_on_c, 1, 65, 127
1, 81514, Note_off_c, 1, 65, 0
1, 81515, Note_on_c, 1, 69, 127
1, 81619, Note_off_c, 1, 69, 0
1, 81829, Note_off_c, 1, 45, 0
1, 81830, Note_on_c, 1, 62, 127
1, 81830, Note_on_c, 1, 46, 127
1, 81933, Note_off_c, 1, 53, 0
1, 82039, Note_off_c, 1, 62, 0
1, 82040, Note_on_c, 1, 55, 127
1, 82144, Note_off_c, 1, 55, 0
1, 82145, Note_on_c, 1, 57, 127
1, 82246, Note_off_c, 1, 46, 0
1, 82249, Note_off_c, 1, 57, 0
1, 82250, Note_on_c, 1, 58, 127
1, 82250, Note_on_c, 1, 67, 127
1, 82354, Note_off_c, 1, 58, 0
1, 82354, Note_off_c, 1, 67, 0
1, 82355, Note_on_c, 1, 60, 127
1, 82355, Note_on_c, 1, 69, 127
1, 82459, Note_off_c, 1, 60, 0
1, 82459, Note_off_c, 1, 69, 0
1, 82460, Note_on_c, 1, 62, 127
1, 82460, Note_on_c, 1, 70, 127
1, 82669, Note_off_c, 1, 62, 0
1, 82669, Note_off_c, 1, 70, 0
1, 82670, Note_on_c, 1, 60, 127
1, 82670, Note_on_c, 1, 69, 127
1, 82879, Note_off_c, 1, 60, 0
1, 82879, Note_off_c, 1, 69, 0
1, 82880, Note_on_c, 1, 58, 127
1, 82880, Note_on_c, 1, 67, 127
1, 83089, Note_off_c, 1, 58, 0
1, 83089, Note_off_c, 1, 67, 0
1, 83090, Note_on_c, 1, 60, 127
1, 83090, Note_on_c, 1, 69, 127
1, 83299, Note_off_c, 1, 60, 0
1, 83299, Note_off_c, 1, 69, 0
1, 83300, Note_on_c, 1, 58, 127
1, 83300, Note_on_c, 1, 67, 127
1, 83509, Note_off_c, 1, 58, 0
1, 83509, Note_off_c, 1, 67, 0
1, 83510, Note_on_c, 1, 57, 127
1, 83510, Note_on_c, 1, 65, 127
1, 83719, Note_off_c, 1, 57, 0
1, 83719, Note_off_c, 1, 65, 0
1, 83720, Note_on_c, 1, 55, 127
1, 83720, Note_on_c, 1, 64, 127
1, 83720, Note_on_c, 1, 72, 127
1, 83825, Note_on_c, 1, 46, 127
1, 83929, Note_off_c, 1, 46, 0
1, 83930, Note_on_c, 1, 48, 127
1, 84034, Note_off_c, 1, 48, 0
1, 84035, Note_on_c, 1, 50, 127
1, 84136, Note_off_c, 1, 55, 0
1, 84139, Note_off_c, 1, 64, 0
1, 84139, Note_off_c, 1, 72, 0
1, 84139, Note_off_c, 1, 50, 0
1, 84140, Note_on_c, 1, 48, 127
1, 84140, Note_on_c, 1, 55, 127
1, 84140, Note_on_c, 1, 60, 127
1, 84140, Note_on_c, 1, 64, 127
1, 84244, Note_off_c, 1, 48, 0
1, 84245, Note_on_c, 1, 46, 127
1, 84348, Note_off_c, 1, 55, 0
1, 84349, Note_off_c, 1, 60, 0
1, 84349, Note_off_c, 1, 64, 0
1, 84349, Note_off_c, 1, 46, 0
1, 84350, Note_on_c, 1, 45, 127
1, 84350, Note_on_c, 1, 65, 127
1, 84350, Note_on_c, 1, 60, 127
1, 84350, Note_on_c, 1, 53, 127
1, 84559, Note_off_c, 1, 45, 0
1, 84560, Note_on_c, 1, 48, 127
1, 84769, Note_off_c, 1, 65, 0
1, 84769, Note_off_c, 1, 60, 0
1, 84769, Note_off_c, 1, 48, 0
1, 84770, Note_on_c, 1, 46, 127
1, 84770, Note_on_c, 1, 62, 127
1, 84770, Note_on_c, 1, 67, 127
1, 84979, Note_off_c, 1, 46, 0
1, 84979, Note_off_c, 1, 62, 0
1, 84979, Note_off_c, 1, 67, 0
1, 84980, Note_on_c, 1, 69, 127
1, 85049, Note_off_c, 1, 69, 0
1, 85189, Note_off_c, 1, 53, 0
1, 85400, Note_on_c, 1, 52, 127
1, 85609, Note_off_c, 1, 52, 0
1, 85610, Note_on_c, 1, 53, 127
1, 85610, Note_on_c, 1, 41, 127
1, 85610, Note_on_c, 1, 60, 127
1, 85610, Note_on_c, 1, 57, 127
1, 85610, Note_on_c, 1, 65, 127
1, 85714, Note_off_c, 1, 53, 0
1, 85715, Note_on_c, 1, 48, 127
1, 85818, Note_off_c, 1, 41, 0
1, 85819, Note_off_c, 1, 48, 0
1, 85820, Note_on_c, 1, 50, 127
1, 85924, Note_off_c, 1, 50, 0
1, 85925, Note_on_c, 1, 52, 127
1, 86026, Note_off_c, 1, 60, 0
1, 86026, Note_off_c, 1, 57, 0
1, 86029, Note_off_c, 1, 52, 0
1, 86135, Note_on_c, 1, 55, 127
1, 86239, Note_off_c, 1, 55, 0
1, 86344, Note_off_c, 1, 65, 0
1, 86345, Note_on_c, 1, 62, 127
1, 86449, Note_off_c, 1, 62, 0
1, 86450, Note_on_c, 1, 64, 127
1, 86450, Note_on_c, 1, 55, 127
1, 86554, Note_off_c, 1, 64, 0
1, 86555, Note_on_c, 1, 65, 127
1, 86659, Note_off_c, 1, 55, 0
1, 86659, Note_off_c, 1, 65, 0
1, 86660, Note_on_c, 1, 67, 127
1, 86660, Note_on_c, 1, 53, 127
1, 86764, Note_off_c, 1, 67, 0
1, 86765, Note_on_c, 1, 69, 127
1, 86869, Note_off_c, 1, 53, 0
1, 86869, Note_off_c, 1, 69, 0
1, 86870, Note_on_c, 1, 58, 127
1, 86870, Note_on_c, 1, 55, 127
1, 86974, Note_off_c, 1, 58, 0
1, 86975, Note_on_c, 1, 60, 127
1, 87079, Note_off_c, 1, 55, 0
1, 87079, Note_off_c, 1, 60, 0
1, 87080, Note_on_c, 1, 62, 127
1, 87080, Note_on_c, 1, 53, 127
1, 87184, Note_off_c, 1, 62, 0
1, 87185, Note_on_c, 1, 64, 127
1, 87289, Note_off_c, 1, 53, 0
1, 87289, Note_off_c, 1, 64, 0
1, 87290, Note_on_c, 1, 65, 127
1, 87290, Note_on_c, 1, 52, 127
1, 87394, Note_off_c, 1, 65, 0
1, 87395, Note_on_c, 1, 67, 127
1, 87499, Note_off_c, 1, 52, 0
1, 87500, Note_on_c, 1, 53, 127
1, 87500, Note_on_c, 1, 57, 127
1, 87604, Note_off_c, 1, 67, 0
1, 87605, Note_on_c, 1, 77, 127
1, 87709, Note_off_c, 1, 77, 0
1, 87710, Note_on_c, 1, 76, 127
1, 87814, Note_off_c, 1, 76, 0
1, 87815, Note_on_c, 1, 74, 127
1, 87919, Note_off_c, 1, 74, 0
1, 87920, Note_on_c, 1, 72, 127
1, 88024, Note_off_c, 1, 72, 0
1, 88025, Note_on_c, 1, 70, 127
1, 88129, Note_off_c, 1, 70, 0
1, 88130, Note_on_c, 1, 69, 127
1, 88234, Note_off_c, 1, 53, 0
1, 88339, Note_off_c, 1, 69, 0
1, 88340, Note_on_c, 1, 71, 127
1, 88445, Note_on_c, 1, 55, 127
1, 88452, Note_off_c, 1, 57, 0
1, 88549, Note_off_c, 1, 71, 0
1, 88549, Note_off_c, 1, 55, 0
1, 88550, Note_on_c, 1, 72, 127
1, 88550, Note_on_c, 1, 53, 127
1, 88655, Note_on_c, 1, 52, 127
1, 88759, Note_off_c, 1, 72, 0
1, 88759, Note_off_c, 1, 52, 0
1, 88760, Note_on_c, 1, 50, 127
1, 88760, Note_on_c, 1, 71, 127
1, 88965, Note_off_c, 1, 53, 0
1, 88968, Note_off_c, 1, 50, 0
1, 88968, Note_off_c, 1, 71, 0
1, 88969, Note_on_c, 1, 52, 127
1, 88969, Note_on_c, 1, 55, 127
1, 88969, Note_on_c, 1, 72, 127
1, 89178, Note_off_c, 1, 52, 0
1, 89178, Note_off_c, 1, 55, 0
1, 89178, Note_off_c, 1, 72, 0
1, 89179, Note_on_c, 1, 53, 127
1, 89179, Note_on_c, 1, 57, 127
1, 89179, Note_on_c, 1, 74, 127
1, 89388, Note_off_c, 1, 53, 0
1, 89388, Note_off_c, 1, 57, 0
1, 89388, Note_off_c, 1, 74, 0
1, 89389, Note_on_c, 1, 55, 127
1, 89389, Note_on_c, 1, 52, 127
1, 89389, Note_on_c, 1, 72, 127
1, 89494, Note_on_c, 1, 69, 127
1, 89598, Note_off_c, 1, 69, 0
1, 89599, Note_on_c, 1, 67, 127
1, 89703, Note_off_c, 1, 67, 0
1, 89704, Note_on_c, 1, 65, 127
1, 89808, Note_off_c, 1, 65, 0
1, 89809, Note_on_c, 1, 64, 127
1, 89913, Note_off_c, 1, 64, 0
1, 89914, Note_on_c, 1, 62, 127
1, 90018, Note_off_c, 1, 55, 0
1, 90018, Note_off_c, 1, 62, 0
1, 90019, Note_on_c, 1, 60, 127
1, 90123, Note_off_c, 1, 52, 0
1, 90228, Note_off_c, 1, 60, 0
1, 90229, Note_on_c, 1, 53, 127
1, 90334, Note_on_c, 1, 57, 127
1, 90437, Note_off_c, 1, 53, 0
1, 90487, Note_off_c, 1, 57, 0
1, 90544, Note_on_c, 1, 58, 127
1, 90648, Note_off_c, 1, 58, 0
1, 92329, Note_on_c, 1, 63, 127
1, 92538, Note_off_c, 1, 63, 0
1, 92539, Note_on_c, 1, 54, 127
1, 92950, Note_off_c, 1, 72, 0
1, 93168, Note_off_c, 1, 54, 0
1, 93169, Note_on_c, 1, 71, 127
1, 93273, Note_off_c, 1, 71, 0
1, 93589, Note_on_c, 1, 74, 127
1, 93693, Note_off_c, 1, 74, 0
1, 93694, Note_on_c, 1, 76, 127
1, 93798, Note_off_c, 1, 76, 0
1, 93799, Note_on_c, 1, 77, 127
1, 93904, Note_on_c, 1, 59, 127
1, 94008, Note_off_c, 1, 77, 0
1, 94008, Note_off_c, 1, 59, 0
1, 94009, Note_on_c, 1, 60, 127
1, 94009, Note_on_c, 1, 76, 127
1, 94113, Note_off_c, 1, 60, 0
1, 94114, Note_on_c, 1, 62, 127
1, 94218, Note_off_c, 1, 76, 0
1, 94218, Note_off_c, 1, 62, 0
1, 94219, Note_on_c, 1, 64, 127
1, 94219, Note_on_c, 1, 74, 127
1, 94323, Note_off_c, 1, 64, 0
1, 94324, Note_on_c, 1, 65, 127
1, 94428, Note_off_c, 1, 74, 0
1, 94428, Note_off_c, 1, 65, 0
1, 94429, Note_on_c, 1, 76, 127
1, 94429, Note_on_c, 1, 67, 127
1, 94533, Note_off_c, 1, 76, 0
1, 94534, Note_on_c, 1, 72, 127
1, 94638, Note_off_c, 1, 67, 0
1, 94638, Note_off_c, 1, 72, 0
1, 94639, Note_on_c, 1, 74, 127
1, 94639, Note_on_c, 1, 65, 127
1, 94743, Note_off_c, 1, 74, 0
1, 94744, Note_on_c, 1, 76, 127
1, 94848, Note_off_c, 1, 65, 0
1, 94848, Note_off_c, 1, 76, 0
1, 94849, Note_on_c, 1, 77, 127
1, 94849, Note_on_c, 1, 64, 127
1, 94953, Note_off_c, 1, 77, 0
1, 94954, Note_on_c, 1, 79, 127
1, 95058, Note_off_c, 1, 64, 0
1, 95058, Note_off_c, 1, 79, 0
1, 95059, Note_on_c, 1, 81, 127
1, 95059, Note_on_c, 1, 65, 127
1, 95163, Note_off_c, 1, 81, 0
1, 95164, Note_on_c, 1, 77, 127
1, 95268, Note_off_c, 1, 77, 0
1, 95269, Note_on_c, 1, 76, 127
1, 95269, Note_on_c, 1, 55, 127
1, 95373, Note_off_c, 1, 76, 0
1, 95374, Note_on_c, 1, 74, 127
1, 95475, Note_off_c, 1, 65, 0
1, 95478, Note_off_c, 1, 74, 0
1, 95685, Note_off_c, 1, 55, 0
1, 95689, Note_on_c, 1, 79, 127
1, 95689, Note_on_c, 1, 64, 127
1, 95793, Note_off_c, 1, 79, 0
1, 95794, Note_on_c, 1, 76, 127
1, 95898, Note_off_c, 1, 76, 0
1, 95899, Note_on_c, 1, 74, 127
1, 95899, Note_on_c, 1, 55, 127
1, 96003, Note_off_c, 1, 74, 0
1, 96004, Note_on_c, 1, 72, 127
1, 96105, Note_off_c, 1, 64, 0
1, 96108, Note_off_c, 1, 72, 0
1, 96315, Note_off_c, 1, 55, 0
1, 96319, Note_on_c, 1, 77, 127
1, 96319, Note_on_c, 1, 62, 127
1, 96423, Note_off_c, 1, 77, 0
1, 96424, Note_on_c, 1, 74, 127
1, 96528, Note_off_c, 1, 74, 0
1, 96529, Note_on_c, 1, 72, 127
1, 96529, Note_on_c, 1, 55, 127
1, 96633, Note_off_c, 1, 72, 0
1, 96634, Note_on_c, 1, 71, 127
1, 96735, Note_off_c, 1, 62, 0
1, 96738, Note_off_c, 1, 71, 0
1, 96945, Note_off_c, 1, 55, 0
1, 96949, Note_on_c, 1, 76, 127
1, 96949, Note_on_c, 1, 60, 127
1, 97053, Note_off_c, 1, 76, 0
1, 97054, Note_on_c, 1, 71, 127
1, 97158, Note_off_c, 1, 71, 0
1, 97159, Note_on_c, 1, 72, 127
1, 97159, Note_on_c, 1, 48, 127
1, 97263, Note_off_c, 1, 72, 0
1, 97365, Note_off_c, 1, 60, 0
1, 97575, Note_off_c, 1, 48, 0
1, 97579, Note_on_c, 1, 65, 127
1, 97579, Note_on_c, 1, 60, 127
1, 97683, Note_off_c, 1, 65, 0
1, 97684, Note_on_c, 1, 71, 127
1, 97788, Note_off_c, 1, 71, 0
1, 97789, Note_on_c, 1, 72, 127
1, 97789, Note_on_c, 1, 50, 127
1, 97893, Note_off_c, 1, 72, 0
1, 97894, Note_on_c, 1, 76, 127
1, 97995, Note_off_c, 1, 60, 0
1, 97998, Note_off_c, 1, 76, 0
1, 98205, Note_off_c, 1, 50, 0
1, 98209, Note_on_c, 1, 67, 127
1, 98209, Note_on_c, 1, 60, 127
1, 98313, Note_off_c, 1, 67, 0
1, 98314, Note_on_c, 1, 71, 127
1, 98418, Note_off_c, 1, 71, 0
1, 98419, Note_on_c, 1, 72, 127
1, 98419, Note_on_c, 1, 52, 127
1, 98523, Note_off_c, 1, 72, 0
1, 98524, Note_on_c, 1, 76, 127
1, 98625, Note_off_c, 1, 60, 0
1, 98628, Note_off_c, 1, 76, 0
1, 98835, Note_off_c, 1, 52, 0
1, 98839, Note_on_c, 1, 69, 127
1, 98839, Note_on_c, 1, 60, 127
1, 98943, Note_off_c, 1, 69, 0
1, 98944, Note_on_c, 1, 71, 127
1, 99048, Note_off_c, 1, 71, 0
1, 99049, Note_on_c, 1, 72, 127
1, 99049, Note_on_c, 1, 53, 127
1, 99153, Note_off_c, 1, 72, 0
1, 99154, Note_on_c, 1, 76, 127
1, 99255, Note_off_c, 1, 60, 0
1, 99258, Note_off_c, 1, 76, 0
1, 99465, Note_off_c, 1, 53, 0
1, 99469, Note_on_c, 1, 67, 127
1, 99469, Note_on_c, 1, 60, 127
1, 99573, Note_off_c, 1, 67, 0
1, 99574, Note_on_c, 1, 71, 127
1, 99678, Note_off_c, 1, 71, 0
1, 99679, Note_on_c, 1, 72, 127
1, 99679, Note_on_c, 1, 55, 127
1, 99783, Note_off_c, 1, 72, 0
1, 99784, Note_on_c, 1, 76, 127
1, 99885, Note_off_c, 1, 60, 0
1, 99888, Note_off_c, 1, 76, 0
1, 100095, Note_off_c, 1, 55, 0
1, 100099, Note_on_c, 1, 66, 127
1, 100099, Note_on_c, 1, 60, 127
1, 100203, Note_off_c, 1, 66, 0
1, 100204, Note_on_c, 1, 71, 127
1, 100308, Note_off_c, 1, 71, 0
1, 100309, Note_on_c, 1, 72, 127
1, 100309, Note_on_c, 1, 57, 127
1, 100413, Note_off_c, 1, 72, 0
1, 100414, Note_on_c, 1, 76, 127
1, 100515, Note_off_c, 1, 60, 0
1, 100518, Note_off_c, 1, 76, 0
1, 100725, Note_off_c, 1, 57, 0
1, 100729, Note_on_c, 1, 65, 127
1, 100729, Note_on_c, 1, 59, 127
1, 100729, Note_on_c, 1, 62, 127
1, 100835, Note_off_c, 1, 65, 0
1, 100836, Note_on_c, 1, 69, 127
1, 100942, Note_off_c, 1, 59, 0
1, 100942, Note_off_c, 1, 69, 0
1, 100943, Note_on_c, 1, 71, 127
1, 100943, Note_on_c, 1, 57, 127
1, 101049, Note_off_c, 1, 71, 0
1, 101050, Note_on_c, 1, 74, 127
1, 101156, Note_off_c, 1, 57, 0
1, 101156, Note_off_c, 1, 74, 0
1, 101157, Note_on_c, 1, 55, 127
1, 101370, Note_off_c, 1, 62, 0
1, 101370, Note_off_c, 1, 55, 0
1, 101371, Note_on_c, 1, 63, 127
1, 101371, Note_on_c, 1, 60, 127
1, 101477, Note_off_c, 1, 63, 0
1, 101478, Note_on_c, 1, 67, 127
1, 101584, Note_off_c, 1, 67, 0
1, 101585, Note_on_c, 1, 69, 127
1, 101585, Note_on_c, 1, 54, 127
1, 101691, Note_off_c, 1, 69, 0
1, 101692, Note_on_c, 1, 72, 127
1, 101798, Note_off_c, 1, 54, 0
1, 101798, Note_off_c, 1, 72, 0
1, 101799, Note_on_c, 1, 66, 127
1, 101799, Note_on_c, 1, 57, 127
1, 101905, Note_off_c, 1, 66, 0
1, 102012, Note_off_c, 1, 60, 0
1, 102012, Note_off_c, 1, 57, 0
1, 102013, Note_on_c, 1, 62, 127
1, 102013, Note_on_c, 1, 55, 127
1, 102119, Note_off_c, 1, 62, 0
1, 102120, Note_on_c, 1, 65, 127
1, 102226, Note_off_c, 1, 65, 0
1, 102227, Note_on_c, 1, 67, 127
1, 102333, Note_off_c, 1, 67, 0
1, 102334, Note_on_c, 1, 71, 127
1, 102440, Note_off_c, 1, 71, 0
1, 102441, Note_on_c, 1, 43, 127
1, 102654, Note_off_c, 1, 55, 0
1, 102654, Note_off_c, 1, 43, 0
1, 102661, Note_on_c, 1, 48, 127
1, 102661, Note_on_c, 1, 72, 127
1, 102661, Note_on_c, 1, 64, 127
1, 102776, Note_on_c, 1, 60, 127
1, 102861, Note_off_c, 1, 48, 0
1, 102880, Note_off_c, 1, 60, 0
1, 102881, Note_on_c, 1, 58, 127
1, 102985, Note_off_c, 1, 58, 0
1, 102986, Note_on_c, 1, 57, 127
1, 103090, Note_off_c, 1, 57, 0
1, 103091, Note_on_c, 1, 55, 127
1, 103195, Note_off_c, 1, 55, 0
1, 103196, Note_on_c, 1, 53, 127
1, 103300, Note_off_c, 1, 53, 0
1, 103301, Note_on_c, 1, 52, 127
1, 103395, Note_off_c, 1, 72, 0
1, 103395, Note_off_c, 1, 64, 0
1, 103406, Note_on_c, 1, 67, 127
1, 103510, Note_off_c, 1, 52, 0
1, 103510, Note_off_c, 1, 67, 0
1, 103511, Note_on_c, 1, 69, 127
1, 103511, Note_on_c, 1, 54, 127
1, 103615, Note_off_c, 1, 69, 0
1, 103616, Note_on_c, 1, 71, 127
1, 103720, Note_off_c, 1, 54, 0
1, 103720, Note_off_c, 1, 71, 0
1, 103721, Note_on_c, 1, 72, 127
1, 103721, Note_on_c, 1, 55, 127
1, 103825, Note_off_c, 1, 72, 0
1, 103826, Note_on_c, 1, 74, 127
1, 103930, Note_off_c, 1, 55, 0
1, 103930, Note_off_c, 1, 74, 0
1, 103931, Note_on_c, 1, 75, 127
1, 103931, Note_on_c, 1, 54, 127
1, 104140, Note_off_c, 1, 75, 0
1, 104140, Note_off_c, 1, 54, 0
1, 104141, Note_on_c, 1, 74, 127
1, 104141, Note_on_c, 1, 55, 127
1, 104350, Note_off_c, 1, 74, 0
1, 104350, Note_off_c, 1, 55, 0
1, 104351, Note_on_c, 1, 72, 127
1, 104351, Note_on_c, 1, 57, 127
1, 104560, Note_off_c, 1, 72, 0
1, 104560, Note_off_c, 1, 57, 0
1, 104561, Note_on_c, 1, 55, 127
1, 104561, Note_on_c, 1, 70, 127
1, 104666, Note_on_c, 1, 67, 127
1, 104770, Note_off_c, 1, 67, 0
1, 104771, Note_on_c, 1, 66, 127
1, 104875, Note_off_c, 1, 66, 0
1, 104876, Note_on_c, 1, 64, 127
1, 104980, Note_off_c, 1, 64, 0
1, 104981, Note_on_c, 1, 62, 127
1, 105085, Note_off_c, 1, 55, 0
1, 105085, Note_off_c, 1, 62, 0
1, 105086, Note_on_c, 1, 60, 127
1, 105190, Note_off_c, 1, 60, 0
1, 105191, Note_on_c, 1, 58, 127
1, 105295, Note_off_c, 1, 58, 0
1, 105296, Note_on_c, 1, 57, 127
1, 105400, Note_off_c, 1, 57, 0
1, 105506, Note_on_c, 1, 53, 127
1, 105610, Note_off_c, 1, 53, 0
1, 105611, Note_on_c, 1, 52, 127
1, 105611, Note_on_c, 1, 65, 127
1, 105715, Note_off_c, 1, 52, 0
1, 105716, Note_on_c, 1, 50, 127
1, 105820, Note_off_c, 1, 70, 0
1, 105820, Note_off_c, 1, 65, 0
1, 105820, Note_off_c, 1, 50, 0
1, 105821, Note_on_c, 1, 74, 127
1, 105821, Note_on_c, 1, 70, 127
1, 105821, Note_on_c, 1, 64, 127
1, 105821, Note_on_c, 1, 48, 127
1, 106030, Note_off_c, 1, 74, 0
1, 106030, Note_off_c, 1, 70, 0
1, 106031, Note_on_c, 1, 69, 127
1, 106031, Note_on_c, 1, 72, 127
1, 106240, Note_off_c, 1, 69, 0
1, 106240, Note_off_c, 1, 72, 0
1, 106241, Note_on_c, 1, 67, 127
1, 106450, Note_off_c, 1, 64, 0
1, 106450, Note_off_c, 1, 48, 0
1, 106450, Note_off_c, 1, 67, 0
1, 106451, Note_on_c, 1, 53, 127
1, 106451, Note_on_c, 1, 69, 127
1, 106556, Note_on_c, 1, 65, 127
1, 106660, Note_off_c, 1, 65, 0
1, 106661, Note_on_c, 1, 64, 127
1, 106765, Note_off_c, 1, 64, 0
1, 106766, Note_on_c, 1, 62, 127
1, 106870, Note_off_c, 1, 62, 0
1, 106871, Note_on_c, 1, 60, 127
1, 106975, Note_off_c, 1, 53, 0
1, 106975, Note_off_c, 1, 60, 0
1, 106976, Note_on_c, 1, 58, 127
1, 107080, Note_off_c, 1, 58, 0
1, 107081, Note_on_c, 1, 57, 127
1, 107185, Note_off_c, 1, 57, 0
1, 107186, Note_on_c, 1, 55, 127
1, 107290, Note_off_c, 1, 55, 0
1, 107396, Note_on_c, 1, 52, 127
1, 107500, Note_off_c, 1, 52, 0
1, 107501, Note_on_c, 1, 50, 127
1, 107605, Note_off_c, 1, 50, 0
1, 107606, Note_on_c, 1, 48, 127
1, 107710, Note_off_c, 1, 48, 0
1, 107711, Note_on_c, 1, 74, 127
1, 107711, Note_on_c, 1, 47, 127
1, 107815, Note_off_c, 1, 74, 0
1, 107816, Note_on_c, 1, 76, 127
1, 107920, Note_off_c, 1, 76, 0
1, 108131, Note_on_c, 1, 77, 127
1, 108340, Note_off_c, 1, 69, 0
1, 108340, Note_off_c, 1, 47, 0
1, 108340, Note_off_c, 1, 77, 0
1, 108341, Note_on_c, 1, 67, 127
1, 108446, Note_on_c, 1, 52, 127
1, 108550, Note_off_c, 1, 52, 0
1, 108551, Note_on_c, 1, 53, 127
1, 108655, Note_off_c, 1, 53, 0
1, 108656, Note_on_c, 1, 55, 127
1, 108760, Note_off_c, 1, 55, 0
1, 108761, Note_on_c, 1, 57, 127
1, 108865, Note_off_c, 1, 57, 0
1, 108866, Note_on_c, 1, 59, 127
1, 108970, Note_off_c, 1, 67, 0
1, 108970, Note_off_c, 1, 59, 0
1, 108971, Note_on_c, 1, 61, 127
1, 109075, Note_off_c, 1, 61, 0
1, 109076, Note_on_c, 1, 62, 127
1, 109180, Note_off_c, 1, 62, 0
1, 109181, Note_on_c, 1, 64, 127
1, 109285, Note_off_c, 1, 64, 0
1, 109286, Note_on_c, 1, 65, 127
1, 109390, Note_off_c, 1, 65, 0
1, 109391, Note_on_c, 1, 52, 127
1, 109391, Note_on_c, 1, 67, 127
1, 109496, Note_on_c, 1, 69, 127
1, 109600, Note_off_c, 1, 52, 0
1, 109600, Note_off_c, 1, 69, 0
1, 109601, Note_on_c, 1, 70, 127
1, 109601, Note_on_c, 1, 57, 127
1, 109601, Note_on_c, 1, 61, 127
1, 109806, Note_off_c, 1, 67, 0
1, 109809, Note_off_c, 1, 70, 0
1, 109810, Note_on_c, 1, 65, 127
1, 110019, Note_off_c, 1, 57, 0
1, 110019, Note_off_c, 1, 65, 0
1, 110020, Note_on_c, 1, 64, 127
1, 110020, Note_on_c, 1, 45, 127
1, 110229, Note_off_c, 1, 61, 0
1, 110229, Note_off_c, 1, 64, 0
1, 110229, Note_off_c, 1, 45, 0
1, 110230, Note_on_c, 1, 65, 127
1, 110230, Note_on_c, 1, 50, 127
1, 110335, Note_on_c, 1, 62, 127
1, 110430, Note_off_c, 1, 65, 0
1, 110439, Note_off_c, 1, 50, 0
1, 110439, Note_off_c, 1, 62, 0
1, 110440, Note_on_c, 1, 61, 127
1, 110440, Note_on_c, 1, 53, 127
1, 110544, Note_off_c, 1, 61, 0
1, 110545, Note_on_c, 1, 59, 127
1, 110649, Note_off_c, 1, 53, 0
1, 110649, Note_off_c, 1, 59, 0
1, 110650, Note_on_c, 1, 61, 127
1, 110650, Note_on_c, 1, 45, 127
1, 110754, Note_off_c, 1, 61, 0
1, 110755, Note_on_c, 1, 62, 127
1, 110859, Note_off_c, 1, 45, 0
1, 110859, Note_off_c, 1, 62, 0
1, 110860, Note_on_c, 1, 67, 127
1, 110860, Note_on_c, 1, 52, 127
1, 110965, Note_on_c, 1, 64, 127
1, 111060, Note_off_c, 1, 67, 0
1, 111069, Note_off_c, 1, 52, 0
1, 111069, Note_off_c, 1, 64, 0
1, 111070, Note_on_c, 1, 62, 127
1, 111070, Note_on_c, 1, 55, 127
1, 111174, Note_off_c, 1, 62, 0
1, 111175, Note_on_c, 1, 61, 127
1, 111279, Note_off_c, 1, 55, 0
1, 111279, Note_off_c, 1, 61, 0
1, 111280, Note_on_c, 1, 62, 127
1, 111280, Note_on_c, 1, 45, 127
1, 111384, Note_off_c, 1, 62, 0
1, 111385, Note_on_c, 1, 64, 127
1, 111489, Note_off_c, 1, 45, 0
1, 111489, Note_off_c, 1, 64, 0
1, 111490, Note_on_c, 1, 69, 127
1, 111490, Note_on_c, 1, 53, 127
1, 111595, Note_on_c, 1, 65, 127
1, 111690, Note_off_c, 1, 69, 0
1, 111699, Note_off_c, 1, 53, 0
1, 111699, Note_off_c, 1, 65, 0
1, 111700, Note_on_c, 1, 64, 127
1, 111700, Note_on_c, 1, 57, 127
1, 111804, Note_off_c, 1, 64, 0
1, 111805, Note_on_c, 1, 62, 127
1, 111909, Note_off_c, 1, 57, 0
1, 111909, Note_off_c, 1, 62, 0
1, 111910, Note_on_c, 1, 64, 127
1, 111910, Note_on_c, 1, 50, 127
1, 112014, Note_off_c, 1, 64, 0
1, 112015, Note_on_c, 1, 65, 127
1, 112119, Note_off_c, 1, 50, 0
1, 112119, Note_off_c, 1, 65, 0
1, 112120, Note_on_c, 1, 71, 127
1, 112120, Note_on_c, 1, 55, 127
1, 112225, Note_on_c, 1, 67, 127
1, 112290, Note_off_c, 1, 71, 0
1, 112329, Note_off_c, 1, 55, 0
1, 112329, Note_off_c, 1, 67, 0
1, 112330, Note_on_c, 1, 65, 127
1, 112330, Note_on_c, 1, 43, 127
1, 112434, Note_off_c, 1, 65, 0
1, 112435, Note_on_c, 1, 64, 127
1, 112539, Note_off_c, 1, 43, 0
1, 112539, Note_off_c, 1, 64, 0
1, 112540, Note_on_c, 1, 65, 127
1, 112540, Note_on_c, 1, 55, 127
1, 112644, Note_off_c, 1, 65, 0
1, 112645, Note_on_c, 1, 67, 127
1, 112749, Note_off_c, 1, 55, 0
1, 112749, Note_off_c, 1, 67, 0
1, 112750, Note_on_c, 1, 73, 127
1, 112750, Note_on_c, 1, 55, 127
1, 112855, Note_on_c, 1, 69, 127
1, 112900, Note_off_c, 1, 73, 0
1, 112959, Note_off_c, 1, 55, 0
1, 112959, Note_off_c, 1, 69, 0
1, 112960, Note_on_c, 1, 67, 127
1, 112960, Note_on_c, 1, 45, 127
1, 113064, Note_off_c, 1, 67, 0
1, 113065, Note_on_c, 1, 65, 127
1, 113169, Note_off_c, 1, 45, 0
1, 113169, Note_off_c, 1, 65, 0
1, 113170, Note_on_c, 1, 67, 127
1, 113170, Note_on_c, 1, 55, 127
1, 113274, Note_off_c, 1, 67, 0
1, 113275, Note_on_c, 1, 69, 127
1, 113379, Note_off_c, 1, 55, 0
1, 113379, Note_off_c, 1, 69, 0
1, 113380, Note_on_c, 1, 74, 127
1, 113380, Note_on_c, 1, 55, 127
1, 113485, Note_on_c, 1, 70, 127
1, 113510, Note_off_c, 1, 74, 0
1, 113589, Note_off_c, 1, 55, 0
1, 113589, Note_off_c, 1, 70, 0
1, 113590, Note_on_c, 1, 69, 127
1, 113590, Note_on_c, 1, 46, 127
1, 113694, Note_off_c, 1, 69, 0
1, 113695, Note_on_c, 1, 67, 127
1, 113799, Note_off_c, 1, 46, 0
1, 113799, Note_off_c, 1, 67, 0
1, 113800, Note_on_c, 1, 69, 127
1, 113800, Note_on_c, 1, 55, 127
1, 113904, Note_off_c, 1, 69, 0
1, 113905, Note_on_c, 1, 70, 127
1, 114009, Note_off_c, 1, 55, 0
1, 114009, Note_off_c, 1, 70, 0
1, 114010, Note_on_c, 1, 76, 127
1, 114010, Note_on_c, 1, 49, 127
1, 114115, Note_on_c, 1, 70, 127
1, 114210, Note_off_c, 1, 76, 0
1, 114219, Note_off_c, 1, 49, 0
1, 114219, Note_off_c, 1, 70, 0
1, 114220, Note_on_c, 1, 69, 127
1, 114220, Note_on_c, 1, 52, 127
1, 114324, Note_off_c, 1, 69, 0
1, 114325, Note_on_c, 1, 67, 127
1, 114429, Note_off_c, 1, 52, 0
1, 114429, Note_off_c, 1, 67, 0
1, 114430, Note_on_c, 1, 65, 127
1, 114430, Note_on_c, 1, 57, 127
1, 114534, Note_off_c, 1, 65, 0
1, 114535, Note_on_c, 1, 64, 127
1, 114639, Note_off_c, 1, 57, 0
1, 114639, Note_off_c, 1, 64, 0
1, 114640, Note_on_c, 1, 65, 127
1, 114640, Note_on_c, 1, 50, 127
1, 114745, Note_on_c, 1, 69, 127
1, 114780, Note_off_c, 1, 65, 0
1, 114849, Note_off_c, 1, 50, 0
1, 114849, Note_off_c, 1, 69, 0
1, 114850, Note_on_c, 1, 70, 127
1, 114850, Note_on_c, 1, 53, 127
1, 114954, Note_off_c, 1, 70, 0
1, 114955, Note_on_c, 1, 72, 127
1, 115059, Note_off_c, 1, 53, 0
1, 115059, Note_off_c, 1, 72, 0
1, 115060, Note_on_c, 1, 70, 127
1, 115060, Note_on_c, 1, 57, 127
1, 115164, Note_off_c, 1, 70, 0
1, 115165, Note_on_c, 1, 69, 127
1, 115269, Note_off_c, 1, 57, 0
1, 115269, Note_off_c, 1, 69, 0
1, 115270, Note_on_c, 1, 67, 127
1, 115270, Note_on_c, 1, 46, 127
1, 115374, Note_off_c, 1, 67, 0
1, 115375, Note_on_c, 1, 74, 127
1, 115479, Note_off_c, 1, 46, 0
1, 115479, Note_off_c, 1, 74, 0
1, 115480, Note_on_c, 1, 76, 127
1, 115480, Note_on_c, 1, 50, 127
1, 115584, Note_off_c, 1, 76, 0
1, 115585, Note_on_c, 1, 77, 127
1, 115689, Note_off_c, 1, 50, 0
1, 115689, Note_off_c, 1, 77, 0
1, 115690, Note_on_c, 1, 76, 127
1, 115690, Note_on_c, 1, 55, 127
1, 115794, Note_off_c, 1, 76, 0
1, 115795, Note_on_c, 1, 74, 127
1, 115899, Note_off_c, 1, 55, 0
1, 115899, Note_off_c, 1, 74, 0
1, 115900, Note_on_c, 1, 57, 127
1, 115900, Note_on_c, 1, 73, 127
1, 116004, Note_off_c, 1, 57, 0
1, 116005, Note_on_c, 1, 45, 127
1, 116109, Note_off_c, 1, 45, 0
1, 116110, Note_on_c, 1, 47, 127
1, 116214, Note_off_c, 1, 47, 0
1, 116215, Note_on_c, 1, 49, 127
1, 116319, Note_off_c, 1, 49, 0
1, 116320, Note_on_c, 1, 50, 127
1, 116424, Note_off_c, 1, 50, 0
1, 116425, Note_off_c, 1, 73, 0
1, 116425, Note_on_c, 1, 52, 127
1, 116529, Note_off_c, 1, 52, 0
1, 116530, Note_on_c, 1, 53, 127
1, 116635, Note_on_c, 1, 71, 127
1, 116739, Note_off_c, 1, 53, 0
1, 116739, Note_off_c, 1, 71, 0
1, 116740, Note_on_c, 1, 73, 127
1, 116740, Note_on_c, 1, 52, 127
1, 116844, Note_off_c, 1, 73, 0
1, 116845, Note_on_c, 1, 74, 127
1, 116949, Note_off_c, 1, 52, 0
1, 116949, Note_off_c, 1, 74, 0
1, 116950, Note_on_c, 1, 76, 127
1, 116950, Note_on_c, 1, 50, 127
1, 117054, Note_off_c, 1, 76, 0
1, 117055, Note_on_c, 1, 77, 127
1, 117159, Note_off_c, 1, 50, 0
1, 117159, Note_off_c, 1, 77, 0
1, 117160, Note_on_c, 1, 79, 127
1, 117160, Note_on_c, 1, 52, 127
1, 117264, Note_off_c, 1, 79, 0
1, 117265, Note_on_c, 1, 77, 127
1, 117369, Note_off_c, 1, 52, 0
1, 117369, Note_off_c, 1, 77, 0
1, 117370, Note_on_c, 1, 76, 127
1, 117370, Note_on_c, 1, 50, 127
1, 117474, Note_off_c, 1, 76, 0
1, 117475, Note_on_c, 1, 77, 127
1, 117579, Note_off_c, 1, 50, 0
1, 117579, Note_off_c, 1, 77, 0
1, 117580, Note_on_c, 1, 79, 127
1, 117580, Note_on_c, 1, 49, 127
1, 117684, Note_off_c, 1, 79, 0
1, 117685, Note_on_c, 1, 76, 127
1, 117789, Note_off_c, 1, 49, 0
1, 117789, Note_off_c, 1, 76, 0
1, 117790, Note_on_c, 1, 77, 127
1, 117790, Note_on_c, 1, 50, 127
1, 117894, Note_off_c, 1, 77, 0
1, 117895, Note_on_c, 1, 74, 127
1, 117999, Note_off_c, 1, 74, 0
1, 118000, Note_on_c, 1, 76, 127
1, 118104, Note_off_c, 1, 76, 0
1, 118105, Note_on_c, 1, 78, 127
1, 118209, Note_off_c, 1, 78, 0
1, 118210, Note_on_c, 1, 79, 127
1, 118314, Note_off_c, 1, 79, 0
1, 118315, Note_on_c, 1, 81, 127
1, 118419, Note_off_c, 1, 81, 0
1, 118420, Note_on_c, 1, 82, 127
1, 118491, Note_off_c, 1, 50, 0
1, 118525, Note_on_c, 1, 52, 127
1, 118629, Note_off_c, 1, 82, 0
1, 118629, Note_off_c, 1, 52, 0
1, 118630, Note_on_c, 1, 54, 127
1, 118630, Note_on_c, 1, 81, 127
1, 118734, Note_off_c, 1, 54, 0
1, 118735, Note_on_c, 1, 55, 127
1, 118839, Note_off_c, 1, 81, 0
1, 118839, Note_off_c, 1, 55, 0
1, 118840, Note_on_c, 1, 57, 127
1, 118840, Note_on_c, 1, 79, 127
1, 118944, Note_off_c, 1, 57, 0
1, 118945, Note_on_c, 1, 58, 127
1, 119049, Note_off_c, 1, 79, 0
1, 119049, Note_off_c, 1, 58, 0
1, 119050, Note_on_c, 1, 60, 127
1, 119050, Note_on_c, 1, 81, 127
1, 119154, Note_off_c, 1, 60, 0
1, 119155, Note_on_c, 1, 58, 127
1, 119259, Note_off_c, 1, 81, 0
1, 119259, Note_off_c, 1, 58, 0
1, 119260, Note_on_c, 1, 57, 127
1, 119260, Note_on_c, 1, 79, 127
1, 119364, Note_off_c, 1, 57, 0
1, 119365, Note_on_c, 1, 58, 127
1, 119469, Note_off_c, 1, 79, 0
1, 119469, Note_off_c, 1, 58, 0
1, 119470, Note_on_c, 1, 60, 127
1, 119470, Note_on_c, 1, 78, 127
1, 119574, Note_off_c, 1, 60, 0
1, 119575, Note_on_c, 1, 57, 127
1, 119679, Note_off_c, 1, 78, 0
1, 119679, Note_off_c, 1, 57, 0
1, 119680, Note_on_c, 1, 59, 127
1, 119680, Note_on_c, 1, 79, 127
1, 119784, Note_off_c, 1, 59, 0
1, 119785, Note_on_c, 1, 55, 127
1, 119889, Note_off_c, 1, 55, 0
1, 119890, Note_on_c, 1, 57, 127
1, 119994, Note_off_c, 1, 57, 0
1, 120100, Note_on_c, 1, 60, 127
1, 120204, Note_off_c, 1, 60, 0
1, 120205, Note_on_c, 1, 62, 127
1, 120309, Note_off_c, 1, 62, 0
1, 120310, Note_on_c, 1, 64, 127
1, 120414, Note_off_c, 1, 79, 0
1, 120415, Note_on_c, 1, 69, 127
1, 120519, Note_off_c, 1, 64, 0
1, 120519, Note_off_c, 1, 69, 0
1, 120520, Note_on_c, 1, 71, 127
1, 120520, Note_on_c, 1, 62, 127
1, 120624, Note_off_c, 1, 71, 0
1, 120625, Note_on_c, 1, 72, 127
1, 120729, Note_off_c, 1, 62, 0
1, 120729, Note_off_c, 1, 72, 0
1, 120730, Note_on_c, 1, 74, 127
1, 120730, Note_on_c, 1, 60, 127
1, 120834, Note_off_c, 1, 74, 0
1, 120835, Note_on_c, 1, 76, 127
1, 120939, Note_off_c, 1, 60, 0
1, 120939, Note_off_c, 1, 76, 0
1, 120940, Note_on_c, 1, 77, 127
1, 120940, Note_on_c, 1, 62, 127
1, 121044, Note_off_c, 1, 77, 0
1, 121045, Note_on_c, 1, 76, 127
1, 121149, Note_off_c, 1, 62, 0
1, 121149, Note_off_c, 1, 76, 0
1, 121150, Note_on_c, 1, 74, 127
1, 121150, Note_on_c, 1, 60, 127
1, 121254, Note_off_c, 1, 74, 0
1, 121255, Note_on_c, 1, 76, 127
1, 121359, Note_off_c, 1, 60, 0
1, 121359, Note_off_c, 1, 76, 0
1, 121360, Note_on_c, 1, 77, 127
1, 121360, Note_on_c, 1, 59, 127
1, 121464, Note_off_c, 1, 77, 0
1, 121465, Note_on_c, 1, 74, 127
1, 121569, Note_off_c, 1, 59, 0
1, 121569, Note_off_c, 1, 74, 0
1, 121570, Note_on_c, 1, 76, 127
1, 121570, Note_on_c, 1, 60, 127
1, 121674, Note_off_c, 1, 76, 0
1, 121675, Note_on_c, 1, 72, 127
1, 121779, Note_off_c, 1, 72, 0
1, 121780, Note_on_c, 1, 74, 127
1, 121884, Note_off_c, 1, 74, 0
1, 121990, Note_on_c, 1, 77, 127
1, 122094, Note_off_c, 1, 77, 0
1, 122095, Note_on_c, 1, 79, 127
1, 122199, Note_off_c, 1, 79, 0
1, 122200, Note_on_c, 1, 81, 127
1, 122275, Note_off_c, 1, 60, 0
1, 122305, Note_on_c, 1, 62, 127
1, 122409, Note_off_c, 1, 81, 0
1, 122409, Note_off_c, 1, 62, 0
1, 122410, Note_on_c, 1, 64, 127
1, 122410, Note_on_c, 1, 79, 127
1, 122514, Note_off_c, 1, 64, 0
1, 122515, Note_on_c, 1, 65, 127
1, 122619, Note_off_c, 1, 79, 0
1, 122619, Note_off_c, 1, 65, 0
1, 122620, Note_on_c, 1, 67, 127
1, 122620, Note_on_c, 1, 77, 127
1, 122724, Note_off_c, 1, 67, 0
1, 122725, Note_on_c, 1, 69, 127
1, 122829, Note_off_c, 1, 77, 0
1, 122829, Note_off_c, 1, 69, 0
1, 122830, Note_on_c, 1, 70, 127
1, 122830, Note_on_c, 1, 79, 127
1, 122934, Note_off_c, 1, 70, 0
1, 122935, Note_on_c, 1, 69, 127
1, 123039, Note_off_c, 1, 79, 0
1, 123039, Note_off_c, 1, 69, 0
1, 123040, Note_on_c, 1, 67, 127
1, 123040, Note_on_c, 1, 77, 127
1, 123144, Note_off_c, 1, 67, 0
1, 123145, Note_on_c, 1, 69, 127
1, 123249, Note_off_c, 1, 77, 0
1, 123249, Note_off_c, 1, 69, 0
1, 123250, Note_on_c, 1, 70, 127
1, 123250, Note_on_c, 1, 76, 127
1, 123354, Note_off_c, 1, 70, 0
1, 123355, Note_on_c, 1, 67, 127
1, 123459, Note_off_c, 1, 76, 0
1, 123459, Note_off_c, 1, 67, 0
1, 123460, Note_on_c, 1, 69, 127
1, 123460, Note_on_c, 1, 77, 127
1, 123564, Note_off_c, 1, 69, 0
1, 123565, Note_on_c, 1, 65, 127
1, 123669, Note_off_c, 1, 65, 0
1, 123670, Note_on_c, 1, 64, 127
1, 123670, Note_on_c, 1, 82, 127
1, 123760, Note_off_c, 1, 77, 0
1, 123774, Note_off_c, 1, 64, 0
1, 123775, Note_on_c, 1, 62, 127
1, 123879, Note_off_c, 1, 82, 0
1, 123879, Note_off_c, 1, 62, 0
1, 123880, Note_on_c, 1, 64, 127
1, 123880, Note_on_c, 1, 74, 127
1, 123984, Note_off_c, 1, 64, 0
1, 123985, Note_on_c, 1, 65, 127
1, 124089, Note_off_c, 1, 74, 0
1, 124089, Note_off_c, 1, 65, 0
1, 124090, Note_on_c, 1, 67, 127
1, 124090, Note_on_c, 1, 76, 127
1, 124194, Note_off_c, 1, 67, 0
1, 124195, Note_on_c, 1, 64, 127
1, 124299, Note_off_c, 1, 64, 0
1, 124300, Note_on_c, 1, 62, 127
1, 124300, Note_on_c, 1, 81, 127
1, 124390, Note_off_c, 1, 76, 0
1, 124404, Note_off_c, 1, 62, 0
1, 124405, Note_on_c, 1, 60, 127
1, 124509, Note_off_c, 1, 81, 0
1, 124509, Note_off_c, 1, 60, 0
1, 124510, Note_on_c, 1, 62, 127
1, 124510, Note_on_c, 1, 72, 127
1, 124614, Note_off_c, 1, 62, 0
1, 124615, Note_on_c, 1, 64, 127
1, 124719, Note_off_c, 1, 72, 0
1, 124719, Note_off_c, 1, 64, 0
1, 124720, Note_on_c, 1, 65, 127
1, 124720, Note_on_c, 1, 74, 127
1, 124824, Note_off_c, 1, 65, 0
1, 124825, Note_on_c, 1, 62, 127
1, 124929, Note_off_c, 1, 62, 0
1, 124930, Note_on_c, 1, 60, 127
1, 124930, Note_on_c, 1, 79, 127
1, 125000, Note_off_c, 1, 74, 0
1, 125034, Note_off_c, 1, 60, 0
1, 125035, Note_on_c, 1, 58, 127
1, 125139, Note_off_c, 1, 79, 0
1, 125139, Note_off_c, 1, 58, 0
1, 125140, Note_on_c, 1, 60, 127
1, 125140, Note_on_c, 1, 70, 127
1, 125244, Note_off_c, 1, 60, 0
1, 125245, Note_on_c, 1, 62, 127
1, 125349, Note_off_c, 1, 70, 0
1, 125349, Note_off_c, 1, 62, 0
1, 125350, Note_on_c, 1, 64, 127
1, 125350, Note_on_c, 1, 72, 127
1, 125454, Note_off_c, 1, 64, 0
1, 125455, Note_on_c, 1, 60, 127
1, 125559, Note_off_c, 1, 60, 0
1, 125560, Note_on_c, 1, 58, 127
1, 125560, Note_on_c, 1, 77, 127
1, 125610, Note_off_c, 1, 72, 0
1, 125664, Note_off_c, 1, 58, 0
1, 125665, Note_on_c, 1, 57, 127
1, 125769, Note_off_c, 1, 77, 0
1, 125769, Note_off_c, 1, 57, 0
1, 125770, Note_on_c, 1, 58, 127
1, 125770, Note_on_c, 1, 69, 127
1, 125874, Note_off_c, 1, 58, 0
1, 125875, Note_on_c, 1, 60, 127
1, 125979, Note_off_c, 1, 69, 0
1, 125979, Note_off_c, 1, 60, 0
1, 125980, Note_on_c, 1, 62, 127
1, 125980, Note_on_c, 1, 70, 127
1, 126084, Note_off_c, 1, 62, 0
1, 126085, Note_on_c, 1, 58, 127
1, 126189, Note_off_c, 1, 58, 0
1, 126190, Note_on_c, 1, 57, 127
1, 126190, Note_on_c, 1, 76, 127
1, 126220, Note_off_c, 1, 70, 0
1, 126294, Note_off_c, 1, 57, 0
1, 126295, Note_on_c, 1, 55, 127
1, 126399, Note_off_c, 1, 76, 0
1, 126399, Note_off_c, 1, 55, 0
1, 126400, Note_on_c, 1, 57, 127
1, 126400, Note_on_c, 1, 67, 127
1, 126504, Note_off_c, 1, 57, 0
1, 126505, Note_on_c, 1, 58, 127
1, 126609, Note_off_c, 1, 67, 0
1, 126609, Note_off_c, 1, 58, 0
1, 126610, Note_on_c, 1, 60, 127
1, 126610, Note_on_c, 1, 69, 127
1, 126714, Note_off_c, 1, 60, 0
1, 126715, Note_on_c, 1, 57, 127
1, 126819, Note_off_c, 1, 57, 0
1, 126820, Note_on_c, 1, 55, 127
1, 126820, Note_on_c, 1, 74, 127
1, 126830, Note_off_c, 1, 69, 0
1, 126924, Note_off_c, 1, 55, 0
1, 126925, Note_on_c, 1, 53, 127
1, 127029, Note_off_c, 1, 74, 0
1, 127029, Note_off_c, 1, 53, 0
1, 127030, Note_on_c, 1, 55, 127
1, 127030, Note_on_c, 1, 65, 127
1, 127134, Note_off_c, 1, 55, 0
1, 127135, Note_on_c, 1, 57, 127
1, 127239, Note_off_c, 1, 65, 0
1, 127239, Note_off_c, 1, 57, 0
1, 127240, Note_on_c, 1, 67, 127
1, 127240, Note_on_c, 1, 58, 127
1, 127344, Note_off_c, 1, 67, 0
1, 127345, Note_on_c, 1, 69, 127
1, 127449, Note_off_c, 1, 69, 0
1, 127450, Note_on_c, 1, 70, 127
1, 127554, Note_off_c, 1, 70, 0
1, 127555, Note_on_c, 1, 74, 127
1, 127659, Note_off_c, 1, 74, 0
1, 127869, Note_off_c, 1, 58, 0
1, 127870, Note_on_c, 1, 67, 127
1, 127974, Note_off_c, 1, 67, 0
1, 127975, Note_on_c, 1, 69, 127
1, 128079, Note_off_c, 1, 69, 0
1, 128080, Note_on_c, 1, 70, 127
1, 128184, Note_off_c, 1, 70, 0
1, 128185, Note_on_c, 1, 74, 127
1, 128289, Note_off_c, 1, 74, 0
1, 128290, Note_on_c, 1, 69, 127
1, 128394, Note_off_c, 1, 69, 0
1, 128395, Note_on_c, 1, 67, 127
1, 128499, Note_off_c, 1, 67, 0
1, 128500, Note_on_c, 1, 65, 127
1, 128500, Note_on_c, 1, 57, 127
1, 128604, Note_off_c, 1, 65, 0
1, 128605, Note_on_c, 1, 67, 127
1, 128709, Note_off_c, 1, 67, 0
1, 128710, Note_on_c, 1, 69, 127
1, 128814, Note_off_c, 1, 69, 0
1, 128815, Note_on_c, 1, 74, 127
1, 128919, Note_off_c, 1, 74, 0
1, 129129, Note_off_c, 1, 57, 0
1, 129130, Note_on_c, 1, 64, 127
1, 129130, Note_on_c, 1, 55, 127
1, 129234, Note_off_c, 1, 64, 0
1, 129235, Note_on_c, 1, 65, 127
1, 129339, Note_off_c, 1, 65, 0
1, 129340, Note_on_c, 1, 67, 127
1, 129444, Note_off_c, 1, 67, 0
1, 129445, Note_on_c, 1, 70, 127
1, 129549, Note_off_c, 1, 70, 0
1, 129759, Note_off_c, 1, 55, 0
1, 129760, Note_on_c, 1, 64, 127
1, 129864, Note_off_c, 1, 64, 0
1, 129865, Note_on_c, 1, 65, 127
1, 129969, Note_off_c, 1, 65, 0
1, 129970, Note_on_c, 1, 67, 127
1, 130074, Note_off_c, 1, 67, 0
1, 130075, Note_on_c, 1, 70, 127
1, 130179, Note_off_c, 1, 70, 0
1, 130180, Note_on_c, 1, 65, 127
1, 130284, Note_off_c, 1, 65, 0
1, 130285, Note_on_c, 1, 64, 127
1, 130389, Note_off_c, 1, 64, 0
1, 130390, Note_on_c, 1, 62, 127
1, 130390, Note_on_c, 1, 56, 127
1, 130494, Note_off_c, 1, 62, 0
1, 130495, Note_on_c, 1, 64, 127
1, 130599, Note_off_c, 1, 64, 0
1, 130600, Note_on_c, 1, 65, 127
1, 130704, Note_off_c, 1, 65, 0
1, 130705, Note_on_c, 1, 71, 127
1, 130809, Note_off_c, 1, 71, 0
1, 131019, Note_off_c, 1, 56, 0
1, 131020, Note_on_c, 1, 57, 127
1, 131020, Note_on_c, 1, 61, 127
1, 131124, Note_off_c, 1, 57, 0
1, 131125, Note_on_c, 1, 45, 127
1, 131229, Note_off_c, 1, 61, 0
1, 131229, Note_off_c, 1, 45, 0
1, 131230, Note_on_c, 1, 62, 127
1, 131230, Note_on_c, 1, 47, 127
1, 131334, Note_off_c, 1, 62, 0
1, 131334, Note_off_c, 1, 47, 0
1, 131335, Note_on_c, 1, 64, 127
1, 131335, Note_on_c, 1, 49, 127
1, 131439, Note_off_c, 1, 64, 0
1, 131439, Note_off_c, 1, 49, 0
1, 131440, Note_on_c, 1, 65, 127
1, 131440, Note_on_c, 1, 50, 127
1, 131544, Note_off_c, 1, 65, 0
1, 131544, Note_off_c, 1, 50, 0
1, 131545, Note_on_c, 1, 67, 127
1, 131545, Note_on_c, 1, 52, 127
1, 131649, Note_off_c, 1, 67, 0
1, 131649, Note_off_c, 1, 52, 0
1, 131650, Note_on_c, 1, 69, 127
1, 131650, Note_on_c, 1, 53, 127
1, 131754, Note_off_c, 1, 69, 0
1, 131755, Note_on_c, 1, 71, 127
1, 131859, Note_off_c, 1, 53, 0
1, 131859, Note_off_c, 1, 71, 0
1, 131860, Note_on_c, 1, 73, 127
1, 131860, Note_on_c, 1, 52, 127
1, 131964, Note_off_c, 1, 73, 0
1, 131965, Note_on_c, 1, 74, 127
1, 132069, Note_off_c, 1, 52, 0
1, 132069, Note_off_c, 1, 74, 0
1, 132070, Note_on_c, 1, 76, 127
1, 132070, Note_on_c, 1, 50, 127
1, 132174, Note_off_c, 1, 76, 0
1, 132175, Note_on_c, 1, 77, 127
1, 132279, Note_off_c, 1, 50, 0
1, 132279, Note_off_c, 1, 77, 0
1, 132280, Note_on_c, 1, 79, 127
1, 132280, Note_on_c, 1, 52, 127
1, 132384, Note_off_c, 1, 79, 0
1, 132385, Note_on_c, 1, 77, 127
1, 132489, Note_off_c, 1, 52, 0
1, 132489, Note_off_c, 1, 77, 0
1, 132490, Note_on_c, 1, 76, 127
1, 132490, Note_on_c, 1, 50, 127
1, 132594, Note_off_c, 1, 76, 0
1, 132595, Note_on_c, 1, 77, 127
1, 132699, Note_off_c, 1, 50, 0
1, 132699, Note_off_c, 1, 77, 0
1, 132700, Note_on_c, 1, 79, 127
1, 132700, Note_on_c, 1, 49, 127
1, 132804, Note_off_c, 1, 79, 0
1, 132805, Note_on_c, 1, 76, 127
1, 132909, Note_off_c, 1, 49, 0
1, 132909, Note_off_c, 1, 76, 0
1, 132910, Note_on_c, 1, 77, 127
1, 132910, Note_on_c, 1, 50, 127
1, 133014, Note_off_c, 1, 77, 0
1, 133015, Note_on_c, 1, 74, 127
1, 133119, Note_off_c, 1, 50, 0
1, 133119, Note_off_c, 1, 74, 0
1, 133120, Note_on_c, 1, 72, 127
1, 133120, Note_on_c, 1, 55, 127
1, 133224, Note_off_c, 1, 72, 0
1, 133225, Note_on_c, 1, 70, 127
1, 133329, Note_off_c, 1, 55, 0
1, 133329, Note_off_c, 1, 70, 0
1, 133330, Note_on_c, 1, 72, 127
1, 133330, Note_on_c, 1, 46, 127
1, 133434, Note_off_c, 1, 72, 0
1, 133435, Note_on_c, 1, 74, 127
1, 133539, Note_off_c, 1, 46, 0
1, 133539, Note_off_c, 1, 74, 0
1, 133540, Note_on_c, 1, 76, 127
1, 133540, Note_on_c, 1, 48, 127
1, 133644, Note_off_c, 1, 76, 0
1, 133645, Note_on_c, 1, 72, 127
1, 133749, Note_off_c, 1, 48, 0
1, 133749, Note_off_c, 1, 72, 0
1, 133750, Note_on_c, 1, 70, 127
1, 133750, Note_on_c, 1, 53, 127
1, 133854, Note_off_c, 1, 70, 0
1, 133855, Note_on_c, 1, 69, 127
1, 133959, Note_off_c, 1, 53, 0
1, 133959, Note_off_c, 1, 69, 0
1, 133960, Note_on_c, 1, 70, 127
1, 133960, Note_on_c, 1, 45, 127
1, 134064, Note_off_c, 1, 70, 0
1, 134065, Note_on_c, 1, 72, 127
1, 134169, Note_off_c, 1, 45, 0
1, 134169, Note_off_c, 1, 72, 0
1, 134170, Note_on_c, 1, 74, 127
1, 134170, Note_on_c, 1, 46, 127
1, 134274, Note_off_c, 1, 74, 0
1, 134275, Note_on_c, 1, 70, 127
1, 134379, Note_off_c, 1, 46, 0
1, 134379, Note_off_c, 1, 70, 0
1, 134380, Note_on_c, 1, 69, 127
1, 134380, Note_on_c, 1, 52, 127
1, 134484, Note_off_c, 1, 69, 0
1, 134485, Note_on_c, 1, 67, 127
1, 134589, Note_off_c, 1, 52, 0
1, 134589, Note_off_c, 1, 67, 0
1, 134590, Note_on_c, 1, 69, 127
1, 134590, Note_on_c, 1, 43, 127
1, 134694, Note_off_c, 1, 69, 0
1, 134695, Note_on_c, 1, 70, 127
1, 134799, Note_off_c, 1, 43, 0
1, 134799, Note_off_c, 1, 70, 0
1, 134800, Note_on_c, 1, 72, 127
1, 134800, Note_on_c, 1, 45, 127
1, 134904, Note_off_c, 1, 72, 0
1, 134905, Note_on_c, 1, 69, 127
1, 135009, Note_off_c, 1, 45, 0
1, 135009, Note_off_c, 1, 69, 0
1, 135010, Note_on_c, 1, 67, 127
1, 135010, Note_on_c, 1, 50, 127
1, 135114, Note_off_c, 1, 67, 0
1, 135115, Note_on_c, 1, 65, 127
1, 135219, Note_off_c, 1, 50, 0
1, 135219, Note_off_c, 1, 65, 0
1, 135220, Note_on_c, 1, 67, 127
1, 135220, Note_on_c, 1, 41, 127
1, 135324, Note_off_c, 1, 67, 0
1, 135325, Note_on_c, 1, 69, 127
1, 135429, Note_off_c, 1, 41, 0
1, 135429, Note_off_c, 1, 69, 0
1, 135430, Note_on_c, 1, 70, 127
1, 135430, Note_on_c, 1, 43, 127
1, 135534, Note_off_c, 1, 70, 0
1, 135535, Note_on_c, 1, 67, 127
1, 135639, Note_off_c, 1, 43, 0
1, 135639, Note_off_c, 1, 67, 0
1, 135640, Note_on_c, 1, 65, 127
1, 135640, Note_on_c, 1, 48, 127
1, 135744, Note_off_c, 1, 65, 0
1, 135745, Note_on_c, 1, 64, 127
1, 135849, Note_off_c, 1, 48, 0
1, 135849, Note_off_c, 1, 64, 0
1, 135850, Note_on_c, 1, 65, 127
1, 135850, Note_on_c, 1, 40, 127
1, 135954, Note_off_c, 1, 65, 0
1, 135955, Note_on_c, 1, 67, 127
1, 136059, Note_off_c, 1, 40, 0
1, 136059, Note_off_c, 1, 67, 0
1, 136060, Note_on_c, 1, 69, 127
1, 136060, Note_on_c, 1, 41, 127
1, 136164, Note_off_c, 1, 69, 0
1, 136165, Note_on_c, 1, 65, 127
1, 136269, Note_off_c, 1, 41, 0
1, 136269, Note_off_c, 1, 65, 0
1, 136270, Note_on_c, 1, 64, 127
1, 136270, Note_on_c, 1, 46, 127
1, 136374, Note_off_c, 1, 64, 0
1, 136375, Note_on_c, 1, 62, 127
1, 136479, Note_off_c, 1, 46, 0
1, 136479, Note_off_c, 1, 62, 0
1, 136480, Note_on_c, 1, 64, 127
1, 136480, Note_on_c, 1, 38, 127
1, 136584, Note_off_c, 1, 64, 0
1, 136585, Note_on_c, 1, 65, 127
1, 136689, Note_off_c, 1, 38, 0
1, 136689, Note_off_c, 1, 65, 0
1, 136690, Note_on_c, 1, 40, 127
1, 136690, Note_on_c, 1, 67, 127
1, 136794, Note_off_c, 1, 40, 0
1, 136795, Note_on_c, 1, 45, 127
1, 136899, Note_off_c, 1, 45, 0
1, 136900, Note_on_c, 1, 43, 127
1, 137004, Note_off_c, 1, 43, 0
1, 137005, Note_on_c, 1, 41, 127
1, 137109, Note_off_c, 1, 41, 0
1, 137215, Note_on_c, 1, 38, 127
1, 137319, Note_off_c, 1, 67, 0
1, 137319, Note_off_c, 1, 38, 0
1, 137320, Note_on_c, 1, 37, 127
1, 137425, Note_on_c, 1, 70, 127
1, 137529, Note_off_c, 1, 37, 0
1, 137529, Note_off_c, 1, 70, 0
1, 137530, Note_on_c, 1, 69, 127
1, 137530, Note_on_c, 1, 38, 127
1, 137634, Note_off_c, 1, 69, 0
1, 137635, Note_on_c, 1, 67, 127
1, 137739, Note_off_c, 1, 38, 0
1, 137739, Note_off_c, 1, 67, 0
1, 137740, Note_on_c, 1, 65, 127
1, 137740, Note_on_c, 1, 40, 127
1, 137844, Note_off_c, 1, 65, 0
1, 137845, Note_on_c, 1, 64, 127
1, 137949, Note_off_c, 1, 40, 0
1, 137949, Note_off_c, 1, 64, 0
1, 137950, Note_on_c, 1, 65, 127
1, 137950, Note_on_c, 1, 38, 127
1, 138054, Note_off_c, 1, 65, 0
1, 138055, Note_on_c, 1, 69, 127
1, 138159, Note_off_c, 1, 38, 0
1, 138159, Note_off_c, 1, 69, 0
1, 138160, Note_on_c, 1, 67, 127
1, 138160, Note_on_c, 1, 40, 127
1, 138264, Note_off_c, 1, 67, 0
1, 138265, Note_on_c, 1, 65, 127
1, 138369, Note_off_c, 1, 40, 0
1, 138369, Note_off_c, 1, 65, 0
1, 138370, Note_on_c, 1, 64, 127
1, 138370, Note_on_c, 1, 41, 127
1, 138474, Note_off_c, 1, 64, 0
1, 138475, Note_on_c, 1, 62, 127
1, 138579, Note_off_c, 1, 41, 0
1, 138579, Note_off_c, 1, 62, 0
1, 138580, Note_on_c, 1, 61, 127
1, 138580, Note_on_c, 1, 40, 127
1, 138685, Note_on_c, 1, 62, 127
1, 138700, Note_off_c, 1, 61, 0
1, 138789, Note_off_c, 1, 40, 0
1, 138789, Note_off_c, 1, 62, 0
1, 138790, Note_on_c, 1, 64, 127
1, 138790, Note_on_c, 1, 41, 127
1, 138894, Note_off_c, 1, 64, 0
1, 138895, Note_on_c, 1, 69, 127
1, 138999, Note_off_c, 1, 41, 0
1, 138999, Note_off_c, 1, 69, 0
1, 139000, Note_on_c, 1, 61, 127
1, 139000, Note_on_c, 1, 43, 127
1, 139104, Note_off_c, 1, 61, 0
1, 139105, Note_on_c, 1, 64, 127
1, 139209, Note_off_c, 1, 43, 0
1, 139209, Note_off_c, 1, 64, 0
1, 139210, Note_on_c, 1, 62, 127
1, 139210, Note_on_c, 1, 41, 127
1, 139315, Note_on_c, 1, 64, 127
1, 139330, Note_off_c, 1, 62, 0
1, 139419, Note_off_c, 1, 41, 0
1, 139419, Note_off_c, 1, 64, 0
1, 139420, Note_on_c, 1, 65, 127
1, 139420, Note_on_c, 1, 43, 127
1, 139524, Note_off_c, 1, 65, 0
1, 139525, Note_on_c, 1, 70, 127
1, 139629, Note_off_c, 1, 43, 0
1, 139629, Note_off_c, 1, 70, 0
1, 139630, Note_on_c, 1, 62, 127
1, 139630, Note_on_c, 1, 45, 127
1, 139734, Note_off_c, 1, 62, 0
1, 139735, Note_on_c, 1, 65, 127
1, 139839, Note_off_c, 1, 45, 0
1, 139839, Note_off_c, 1, 65, 0
1, 139840, Note_on_c, 1, 64, 127
1, 139840, Note_on_c, 1, 43, 127
1, 139945, Note_on_c, 1, 65, 127
1, 139960, Note_off_c, 1, 64, 0
1, 140049, Note_off_c, 1, 43, 0
1, 140049, Note_off_c, 1, 65, 0
1, 140050, Note_on_c, 1, 67, 127
1, 140050, Note_on_c, 1, 45, 127
1, 140154, Note_off_c, 1, 67, 0
1, 140155, Note_on_c, 1, 72, 127
1, 140259, Note_off_c, 1, 45, 0
1, 140259, Note_off_c, 1, 72, 0
1, 140260, Note_on_c, 1, 64, 127
1, 140260, Note_on_c, 1, 46, 127
1, 140364, Note_off_c, 1, 64, 0
1, 140365, Note_on_c, 1, 67, 127
1, 140469, Note_off_c, 1, 46, 0
1, 140469, Note_off_c, 1, 67, 0
1, 140470, Note_on_c, 1, 65, 127
1, 140470, Note_on_c, 1, 45, 127
1, 140575, Note_on_c, 1, 67, 127
1, 140590, Note_off_c, 1, 65, 0
1, 140679, Note_off_c, 1, 45, 0
1, 140679, Note_off_c, 1, 67, 0
1, 140680, Note_on_c, 1, 69, 127
1, 140680, Note_on_c, 1, 47, 127
1, 140784, Note_off_c, 1, 69, 0
1, 140785, Note_on_c, 1, 74, 127
1, 140889, Note_off_c, 1, 47, 0
1, 140889, Note_off_c, 1, 74, 0
1, 140890, Note_on_c, 1, 66, 127
1, 140890, Note_on_c, 1, 48, 127
1, 140994, Note_off_c, 1, 66, 0
1, 140995, Note_on_c, 1, 69, 127
1, 141099, Note_off_c, 1, 48, 0
1, 141099, Note_off_c, 1, 69, 0
1, 141100, Note_on_c, 1, 67, 127
1, 141100, Note_on_c, 1, 47, 127
1, 141205, Note_on_c, 1, 69, 127
1, 141220, Note_off_c, 1, 67, 0
1, 141309, Note_off_c, 1, 47, 0
1, 141309, Note_off_c, 1, 69, 0
1, 141310, Note_on_c, 1, 71, 127
1, 141310, Note_on_c, 1, 49, 127
1, 141414, Note_off_c, 1, 71, 0
1, 141415, Note_on_c, 1, 76, 127
1, 141519, Note_off_c, 1, 49, 0
1, 141519, Note_off_c, 1, 76, 0
1, 141520, Note_on_c, 1, 68, 127
1, 141520, Note_on_c, 1, 50, 127
1, 141624, Note_off_c, 1, 68, 0
1, 141625, Note_on_c, 1, 71, 127
1, 141729, Note_off_c, 1, 50, 0
1, 141729, Note_off_c, 1, 71, 0
1, 141730, Note_on_c, 1, 69, 127
1, 141730, Note_on_c, 1, 49, 127
1, 141834, Note_off_c, 1, 69, 0
1, 141834, Note_off_c, 1, 49, 0
1, 141835, Note_on_c, 1, 71, 127
1, 141835, Note_on_c, 1, 53, 127
1, 141939, Note_off_c, 1, 71, 0
1, 141939, Note_off_c, 1, 53, 0
1, 141940, Note_on_c, 1, 73, 127
1, 141940, Note_on_c, 1, 52, 127
1, 142044, Note_off_c, 1, 73, 0
1, 142044, Note_off_c, 1, 52, 0
1, 142045, Note_on_c, 1, 74, 127
1, 142045, Note_on_c, 1, 50, 127
1, 142149, Note_off_c, 1, 74, 0
1, 142149, Note_off_c, 1, 50, 0
1, 142150, Note_on_c, 1, 76, 127
1, 142150, Note_on_c, 1, 49, 127
1, 142254, Note_off_c, 1, 76, 0
1, 142254, Note_off_c, 1, 49, 0
1, 142255, Note_on_c, 1, 77, 127
1, 142255, Note_on_c, 1, 47, 127
1, 142359, Note_off_c, 1, 77, 0
1, 142359, Note_off_c, 1, 47, 0
1, 142360, Note_on_c, 1, 45, 127
1, 142360, Note_on_c, 1, 79, 127
1, 142466, Note_on_c, 1, 76, 127
1, 142571, Note_off_c, 1, 45, 0
1, 142571, Note_off_c, 1, 76, 0
1, 142572, Note_on_c, 1, 73, 127
1, 142572, Note_on_c, 1, 57, 127
1, 142660, Note_off_c, 1, 79, 0
1, 142677, Note_off_c, 1, 73, 0
1, 142678, Note_on_c, 1, 69, 127
1, 142783, Note_off_c, 1, 57, 0
1, 142783, Note_off_c, 1, 69, 0
1, 142784, Note_on_c, 1, 73, 127
1, 142784, Note_on_c, 1, 45, 127
1, 142889, Note_off_c, 1, 73, 0
1, 142890, Note_on_c, 1, 76, 127
1, 142995, Note_off_c, 1, 45, 0
1, 142995, Note_off_c, 1, 76, 0
1, 142996, Note_on_c, 1, 45, 127
1, 142996, Note_on_c, 1, 77, 127
1, 143102, Note_on_c, 1, 74, 127
1, 143207, Note_off_c, 1, 45, 0
1, 143207, Note_off_c, 1, 74, 0
1, 143208, Note_on_c, 1, 71, 127
1, 143208, Note_on_c, 1, 57, 127
1, 143296, Note_off_c, 1, 77, 0
1, 143313, Note_off_c, 1, 71, 0
1, 143314, Note_on_c, 1, 68, 127
1, 143419, Note_off_c, 1, 57, 0
1, 143419, Note_off_c, 1, 68, 0
1, 143420, Note_on_c, 1, 71, 127
1, 143420, Note_on_c, 1, 45, 127
1, 143525, Note_off_c, 1, 71, 0
1, 143526, Note_on_c, 1, 74, 127
1, 143631, Note_off_c, 1, 45, 0
1, 143631, Note_off_c, 1, 74, 0
1, 143632, Note_on_c, 1, 76, 127
1, 143632, Note_on_c, 1, 45, 127
1, 143738, Note_on_c, 1, 73, 127
1, 143832, Note_off_c, 1, 76, 0
1, 143843, Note_off_c, 1, 45, 0
1, 143843, Note_off_c, 1, 73, 0
1, 143844, Note_on_c, 1, 70, 127
1, 143844, Note_on_c, 1, 57, 127
1, 143949, Note_off_c, 1, 70, 0
1, 143950, Note_on_c, 1, 67, 127
1, 144055, Note_off_c, 1, 57, 0
1, 144055, Note_off_c, 1, 67, 0
1, 144056, Note_on_c, 1, 70, 127
1, 144056, Note_on_c, 1, 45, 127
1, 144161, Note_off_c, 1, 70, 0
1, 144162, Note_on_c, 1, 73, 127
1, 144267, Note_off_c, 1, 45, 0
1, 144267, Note_off_c, 1, 73, 0
1, 144268, Note_on_c, 1, 74, 127
1, 144268, Note_on_c, 1, 45, 127
1, 144373, Note_off_c, 1, 74, 0
1, 144374, Note_on_c, 1, 71, 127
1, 144479, Note_off_c, 1, 45, 0
1, 144479, Note_off_c, 1, 71, 0
1, 144480, Note_on_c, 1, 68, 127
1, 144480, Note_on_c, 1, 57, 127
1, 144585, Note_off_c, 1, 68, 0
1, 144586, Note_on_c, 1, 65, 127
1, 144691, Note_off_c, 1, 57, 0
1, 144691, Note_off_c, 1, 65, 0
1, 144692, Note_on_c, 1, 68, 127
1, 144692, Note_on_c, 1, 45, 127
1, 144797, Note_off_c, 1, 68, 0
1, 144798, Note_on_c, 1, 71, 127
1, 144903, Note_off_c, 1, 45, 0
1, 144903, Note_off_c, 1, 71, 0
1, 144904, Note_on_c, 1, 73, 127
1, 144904, Note_on_c, 1, 45, 127
1, 145010, Note_on_c, 1, 70, 127
1, 145054, Note_off_c, 1, 73, 0
1, 145115, Note_off_c, 1, 45, 0
1, 145115, Note_off_c, 1, 70, 0
1, 145116, Note_on_c, 1, 67, 127
1, 145116, Note_on_c, 1, 57, 127
1, 145221, Note_off_c, 1, 67, 0
1, 145222, Note_on_c, 1, 64, 127
1, 145327, Note_off_c, 1, 57, 0
1, 145327, Note_off_c, 1, 64, 0
1, 145328, Note_on_c, 1, 67, 127
1, 145328, Note_on_c, 1, 45, 127
1, 145433, Note_off_c, 1, 67, 0
1, 145434, Note_on_c, 1, 70, 127
1, 145539, Note_off_c, 1, 45, 0
1, 145539, Note_off_c, 1, 70, 0
1, 145540, Note_on_c, 1, 73, 127
1, 145540, Note_on_c, 1, 43, 127
1, 145645, Note_off_c, 1, 73, 0
1, 145646, Note_on_c, 1, 76, 127
1, 145751, Note_off_c, 1, 43, 0
1, 145751, Note_off_c, 1, 76, 0
1, 145752, Note_on_c, 1, 74, 127
1, 145752, Note_on_c, 1, 55, 127
1, 145857, Note_off_c, 1, 74, 0
1, 145858, Note_on_c, 1, 73, 127
1, 145963, Note_off_c, 1, 55, 0
1, 145963, Note_off_c, 1, 73, 0
1, 145964, Note_on_c, 1, 71, 127
1, 145964, Note_on_c, 1, 43, 127
1, 146069, Note_off_c, 1, 71, 0
1, 146070, Note_on_c, 1, 69, 127
1, 146175, Note_off_c, 1, 43, 0
1, 146175, Note_off_c, 1, 69, 0
1, 146176, Note_on_c, 1, 41, 127
1, 146176, Note_on_c, 1, 74, 127
1, 146282, Note_off_c, 1, 41, 0
1, 146283, Note_on_c, 1, 49, 127
1, 146389, Note_off_c, 1, 49, 0
1, 146390, Note_on_c, 1, 50, 127
1, 146390, Note_on_c, 1, 69, 127
1, 146496, Note_off_c, 1, 50, 0
1, 146497, Note_on_c, 1, 53, 127
1, 146576, Note_off_c, 1, 74, 0
1, 146603, Note_off_c, 1, 69, 0
1, 146603, Note_off_c, 1, 53, 0
1, 146604, Note_on_c, 1, 49, 127
1, 146604, Note_on_c, 1, 65, 127
1, 146710, Note_off_c, 1, 49, 0
1, 146711, Note_on_c, 1, 50, 127
1, 146817, Note_off_c, 1, 65, 0
1, 146817, Note_off_c, 1, 50, 0
1, 146818, Note_on_c, 1, 43, 127
1, 146818, Note_on_c, 1, 62, 127
1, 146924, Note_off_c, 1, 43, 0
1, 146925, Note_on_c, 1, 49, 127
1, 147031, Note_off_c, 1, 49, 0
1, 147032, Note_on_c, 1, 50, 127
1, 147032, Note_on_c, 1, 69, 127
1, 147138, Note_off_c, 1, 50, 0
1, 147139, Note_on_c, 1, 53, 127
1, 147218, Note_off_c, 1, 62, 0
1, 147245, Note_off_c, 1, 69, 0
1, 147245, Note_off_c, 1, 53, 0
1, 147246, Note_on_c, 1, 49, 127
1, 147246, Note_on_c, 1, 65, 127
1, 147352, Note_off_c, 1, 49, 0
1, 147353, Note_on_c, 1, 50, 127
1, 147459, Note_off_c, 1, 65, 0
1, 147459, Note_off_c, 1, 50, 0
1, 147460, Note_on_c, 1, 45, 127
1, 147460, Note_on_c, 1, 62, 127
1, 147566, Note_off_c, 1, 45, 0
1, 147567, Note_on_c, 1, 49, 127
1, 147673, Note_off_c, 1, 49, 0
1, 147674, Note_on_c, 1, 50, 127
1, 147674, Note_on_c, 1, 69, 127
1, 147780, Note_off_c, 1, 50, 0
1, 147781, Note_on_c, 1, 53, 127
1, 147860, Note_off_c, 1, 62, 0
1, 147887, Note_off_c, 1, 69, 0
1, 147887, Note_off_c, 1, 53, 0
1, 147888, Note_on_c, 1, 49, 127
1, 147888, Note_on_c, 1, 65, 127
1, 147994, Note_off_c, 1, 49, 0
1, 147995, Note_on_c, 1, 50, 127
1, 148101, Note_off_c, 1, 65, 0
1, 148101, Note_off_c, 1, 50, 0
1, 148102, Note_on_c, 1, 46, 127
1, 148102, Note_on_c, 1, 62, 127
1, 148208, Note_off_c, 1, 46, 0
1, 148209, Note_on_c, 1, 49, 127
1, 148315, Note_off_c, 1, 49, 0
1, 148316, Note_on_c, 1, 50, 127
1, 148316, Note_on_c, 1, 69, 127
1, 148422, Note_off_c, 1, 50, 0
1, 148423, Note_on_c, 1, 53, 127
1, 148502, Note_off_c, 1, 62, 0
1, 148529, Note_off_c, 1, 69, 0
1, 148529, Note_off_c, 1, 53, 0
1, 148530, Note_on_c, 1, 49, 127
1, 148530, Note_on_c, 1, 65, 127
1, 148636, Note_off_c, 1, 49, 0
1, 148637, Note_on_c, 1, 50, 127
1, 148743, Note_off_c, 1, 65, 0
1, 148743, Note_off_c, 1, 50, 0
1, 148744, Note_on_c, 1, 47, 127
1, 148744, Note_on_c, 1, 62, 127
1, 148850, Note_off_c, 1, 47, 0
1, 148851, Note_on_c, 1, 49, 127
1, 148957, Note_off_c, 1, 49, 0
1, 148958, Note_on_c, 1, 50, 127
1, 148958, Note_on_c, 1, 68, 127
1, 149064, Note_off_c, 1, 50, 0
1, 149065, Note_on_c, 1, 53, 127
1, 149144, Note_off_c, 1, 62, 0
1, 149171, Note_off_c, 1, 68, 0
1, 149171, Note_off_c, 1, 53, 0
1, 149172, Note_on_c, 1, 49, 127
1, 149172, Note_on_c, 1, 65, 127
1, 149278, Note_off_c, 1, 49, 0
1, 149279, Note_on_c, 1, 50, 127
1, 149385, Note_off_c, 1, 65, 0
1, 149385, Note_off_c, 1, 50, 0
1, 149386, Note_on_c, 1, 45, 127
1, 149386, Note_on_c, 1, 62, 127
1, 149492, Note_off_c, 1, 45, 0
1, 149493, Note_on_c, 1, 49, 127
1, 149599, Note_off_c, 1, 62, 0
1, 149599, Note_off_c, 1, 49, 0
1, 149600, Note_on_c, 1, 50, 127
1, 149600, Note_on_c, 1, 69, 127
1, 149706, Note_off_c, 1, 50, 0
1, 149707, Note_on_c, 1, 53, 127
1, 149813, Note_off_c, 1, 69, 0
1, 149813, Note_off_c, 1, 53, 0
1, 149814, Note_on_c, 1, 49, 127
1, 149814, Note_on_c, 1, 65, 127
1, 149920, Note_off_c, 1, 49, 0
1, 149921, Note_on_c, 1, 50, 127
1, 150027, Note_off_c, 1, 65, 0
1, 150027, Note_off_c, 1, 50, 0
1, 150028, Note_on_c, 1, 62, 127
1, 150028, Note_on_c, 1, 44, 127
1, 150134, Note_off_c, 1, 62, 0
1, 150135, Note_on_c, 1, 64, 127
1, 150241, Note_off_c, 1, 64, 0
1, 150242, Note_on_c, 1, 65, 127
1, 150348, Note_off_c, 1, 65, 0
1, 150349, Note_on_c, 1, 71, 127
1, 150455, Note_off_c, 1, 71, 0
1, 150669, Note_off_c, 1, 44, 0
1, 150670, Note_on_c, 1, 62, 127
1, 150776, Note_off_c, 1, 62, 0
1, 150777, Note_on_c, 1, 64, 127
1, 150883, Note_off_c, 1, 64, 0
1, 150884, Note_on_c, 1, 65, 127
1, 150990, Note_off_c, 1, 65, 0
1, 150991, Note_on_c, 1, 71, 127
1, 151097, Note_off_c, 1, 71, 0
1, 151098, Note_on_c, 1, 64, 127
1, 151204, Note_off_c, 1, 64, 0
1, 151205, Note_on_c, 1, 62, 127
1, 151311, Note_off_c, 1, 62, 0
1, 151312, Note_on_c, 1, 61, 127
1, 151312, Note_on_c, 1, 43, 127
1, 151418, Note_off_c, 1, 61, 0
1, 151419, Note_on_c, 1, 64, 127
1, 151525, Note_off_c, 1, 64, 0
1, 151526, Note_on_c, 1, 67, 127
1, 151632, Note_off_c, 1, 67, 0
1, 151633, Note_on_c, 1, 70, 127
1, 151739, Note_off_c, 1, 70, 0
1, 151740, Note_on_c, 1, 69, 127
1, 151812, Note_off_c, 1, 43, 0
1, 151846, Note_off_c, 1, 69, 0
1, 151847, Note_on_c, 1, 67, 127
1, 151953, Note_off_c, 1, 67, 0
1, 151954, Note_on_c, 1, 69, 127
1, 151954, Note_on_c, 1, 41, 127
1, 152060, Note_off_c, 1, 69, 0
1, 152060, Note_off_c, 1, 41, 0
1, 152061, Note_on_c, 1, 67, 127
1, 152061, Note_on_c, 1, 45, 127
1, 152167, Note_off_c, 1, 67, 0
1, 152167, Note_off_c, 1, 45, 0
1, 152168, Note_on_c, 1, 65, 127
1, 152168, Note_on_c, 1, 47, 127
1, 152274, Note_off_c, 1, 65, 0
1, 152274, Note_off_c, 1, 47, 0
1, 152275, Note_on_c, 1, 64, 127
1, 152275, Note_on_c, 1, 49, 127
1, 152381, Note_off_c, 1, 64, 0
1, 152381, Note_off_c, 1, 49, 0
1, 152382, Note_on_c, 1, 62, 127
1, 152382, Note_on_c, 1, 50, 127
1, 152488, Note_off_c, 1, 62, 0
1, 152488, Note_off_c, 1, 50, 0
1, 152489, Note_on_c, 1, 60, 127
1, 152489, Note_on_c, 1, 52, 127
1, 152595, Note_off_c, 1, 60, 0
1, 152595, Note_off_c, 1, 52, 0
1, 152596, Note_on_c, 1, 59, 127
1, 152596, Note_on_c, 1, 53, 127
1, 152702, Note_off_c, 1, 59, 0
1, 152703, Note_on_c, 1, 57, 127
1, 152809, Note_off_c, 1, 53, 0
1, 152809, Note_off_c, 1, 57, 0
1, 152810, Note_on_c, 1, 59, 127
1, 152810, Note_on_c, 1, 52, 127
1, 152916, Note_off_c, 1, 59, 0
1, 152917, Note_on_c, 1, 61, 127
1, 153023, Note_off_c, 1, 52, 0
1, 153023, Note_off_c, 1, 61, 0
1, 153024, Note_on_c, 1, 62, 127
1, 153024, Note_on_c, 1, 50, 127
1, 153130, Note_off_c, 1, 62, 0
1, 153131, Note_on_c, 1, 64, 127
1, 153237, Note_off_c, 1, 50, 0
1, 153237, Note_off_c, 1, 64, 0
1, 153238, Note_on_c, 1, 61, 127
1, 153238, Note_on_c, 1, 52, 127
1, 153344, Note_off_c, 1, 61, 0
1, 153345, Note_on_c, 1, 59, 127
1, 153451, Note_off_c, 1, 52, 0
1, 153451, Note_off_c, 1, 59, 0
1, 153452, Note_on_c, 1, 61, 127
1, 153452, Note_on_c, 1, 50, 127
1, 153558, Note_off_c, 1, 61, 0
1, 153559, Note_on_c, 1, 62, 127
1, 153665, Note_off_c, 1, 50, 0
1, 153665, Note_off_c, 1, 62, 0
1, 153666, Note_on_c, 1, 64, 127
1, 153666, Note_on_c, 1, 49, 127
1, 153772, Note_off_c, 1, 64, 0
1, 153773, Note_on_c, 1, 55, 127
1, 153879, Note_off_c, 1, 49, 0
1, 153879, Note_off_c, 1, 55, 0
1, 153880, Note_on_c, 1, 53, 127
1, 153880, Note_on_c, 1, 50, 127
1, 153986, Note_on_c, 1, 69, 127
1, 154091, Note_off_c, 1, 69, 0
1, 154092, Note_on_c, 1, 71, 127
1, 154197, Note_off_c, 1, 71, 0
1, 154198, Note_on_c, 1, 73, 127
1, 154303, Note_off_c, 1, 53, 0
1, 154303, Note_off_c, 1, 50, 0
1, 154303, Note_off_c, 1, 73, 0
1, 154304, Note_on_c, 1, 74, 127
1, 154304, Note_on_c, 1, 52, 127
1, 154304, Note_on_c, 1, 48, 127
1, 154409, Note_off_c, 1, 74, 0
1, 154410, Note_on_c, 1, 76, 127
1, 154515, Note_off_c, 1, 52, 0
1, 154515, Note_off_c, 1, 48, 0
1, 154515, Note_off_c, 1, 76, 0
1, 154516, Note_on_c, 1, 77, 127
1, 154516, Note_on_c, 1, 50, 127
1, 154516, Note_on_c, 1, 46, 127
1, 154727, Note_off_c, 1, 77, 0
1, 154727, Note_off_c, 1, 50, 0
1, 154728, Note_on_c, 1, 76, 127
1, 154728, Note_on_c, 1, 52, 127
1, 154935, Note_off_c, 1, 46, 0
1, 154938, Note_off_c, 1, 76, 0
1, 154938, Note_off_c, 1, 52, 0
1, 154939, Note_on_c, 1, 74, 127
1, 154939, Note_on_c, 1, 45, 127
1, 154939, Note_on_c, 1, 53, 127
1, 155150, Note_off_c, 1, 74, 0
1, 155150, Note_off_c, 1, 45, 0
1, 155150, Note_off_c, 1, 53, 0
1, 155151, Note_on_c, 1, 76, 127
1, 155151, Note_on_c, 1, 55, 127
1, 155151, Note_on_c, 1, 43, 127
1, 155362, Note_off_c, 1, 76, 0
1, 155362, Note_off_c, 1, 55, 0
1, 155363, Note_on_c, 1, 77, 127
1, 155363, Note_on_c, 1, 53, 127
1, 155468, Note_off_c, 1, 77, 0
1, 155570, Note_off_c, 1, 43, 0
1, 155573, Note_off_c, 1, 53, 0
1, 155574, Note_on_c, 1, 74, 127
1, 155574, Note_on_c, 1, 45, 127
1, 155574, Note_on_c, 1, 52, 127
1, 155679, Note_off_c, 1, 74, 0
1, 155680, Note_on_c, 1, 73, 127
1, 155785, Note_off_c, 1, 45, 0
1, 155785, Note_off_c, 1, 52, 0
1, 155785, Note_off_c, 1, 73, 0
1, 155786, Note_on_c, 1, 81, 127
1, 155786, Note_on_c, 1, 50, 127
1, 155786, Note_on_c, 1, 41, 127
1, 155891, Note_off_c, 1, 81, 0
1, 155892, Note_on_c, 1, 79, 127
1, 155997, Note_off_c, 1, 79, 0
1, 155998, Note_on_c, 1, 77, 127
1, 156103, Note_off_c, 1, 77, 0
1, 156104, Note_on_c, 1, 76, 127
1, 156209, Note_off_c, 1, 76, 0
1, 156210, Note_on_c, 1, 74, 127
1, 156315, Note_off_c, 1, 74, 0
1, 156316, Note_on_c, 1, 73, 127
1, 156421, Note_off_c, 1, 50, 0
1, 156421, Note_off_c, 1, 41, 0
1, 156421, Note_off_c, 1, 73, 0
1, 156422, Note_on_c, 1, 74, 127
1, 156527, Note_off_c, 1, 74, 0
1, 156528, Note_on_c, 1, 76, 127
1, 156633, Note_off_c, 1, 76, 0
1, 156634, Note_on_c, 1, 74, 127
1, 156739, Note_off_c, 1, 74, 0
1, 156740, Note_on_c, 1, 76, 127
1, 156845, Note_off_c, 1, 76, 0
1, 156846, Note_on_c, 1, 50, 127
1, 156846, Note_on_c, 1, 43, 127
1, 156846, Note_on_c, 1, 70, 127
1, 156846, Note_on_c, 1, 77, 127
1, 156951, Note_off_c, 1, 50, 0
1, 156952, Note_on_c, 1, 52, 127
1, 157056, Note_off_c, 1, 43, 0
1, 157057, Note_off_c, 1, 70, 0
1, 157057, Note_off_c, 1, 77, 0
1, 157057, Note_off_c, 1, 52, 0
1, 157058, Note_on_c, 1, 69, 127
1, 157058, Note_on_c, 1, 45, 127
1, 157058, Note_on_c, 1, 53, 127
1, 157270, Note_on_c, 1, 74, 127
1, 157477, Note_off_c, 1, 69, 0
1, 157480, Note_off_c, 1, 45, 0
1, 157480, Note_off_c, 1, 53, 0
1, 157480, Note_off_c, 1, 74, 0
1, 157481, Note_on_c, 1, 73, 127
1, 157481, Note_on_c, 1, 67, 127
1, 157481, Note_on_c, 1, 45, 127
1, 157481, Note_on_c, 1, 52, 127
1, 157692, Note_off_c, 1, 73, 0
1, 157692, Note_off_c, 1, 67, 0
1, 157692, Note_off_c, 1, 45, 0
1, 157692, Note_off_c, 1, 52, 0
1, 157693, Note_on_c, 1, 74, 127
1, 157693, Note_on_c, 1, 65, 127
1, 157693, Note_on_c, 1, 50, 127
1, 157693, Note_on_c, 1, 38, 127
1, 157904, Note_off_c, 1, 74, 0
1, 157905, Note_on_c, 1, 69, 127
1, 158112, Note_off_c, 1, 65, 0
1, 158115, Note_off_c, 1, 69, 0
1, 158327, Note_off_c, 1, 50, 0
1, 158327, Note_off_c, 1, 38, 0
1, 158328, Note_on_c, 1, 69, 127
1, 158539, Note_off_c, 1, 69, 0
1, 158540, Note_on_c, 1, 69, 127
1, 158751, Note_off_c, 1, 69, 0
1, 158752, Note_on_c, 1, 69, 127
1, 158752, Note_on_c, 1, 65, 127
1, 158752, Note_on_c, 1, 62, 127
1, 158963, Note_off_c, 1, 69, 0
1, 158963, Note_off_c, 1, 65, 0
1, 158963, Note_off_c, 1, 62, 0
1, 158964, Note_on_c, 1, 70, 127
1, 158964, Note_on_c, 1, 58, 127
1, 158964, Note_on_c, 1, 67, 127
1, 159069, Note_off_c, 1, 70, 0
1, 159070, Note_on_c, 1, 72, 127
1, 159175, Note_off_c, 1, 58, 0
1, 159175, Note_off_c, 1, 72, 0
1, 159176, Note_on_c, 1, 74, 127
1, 159176, Note_on_c, 1, 57, 127
1, 159281, Note_off_c, 1, 74, 0
1, 159383, Note_off_c, 1, 67, 0
1, 159386, Note_off_c, 1, 57, 0
1, 159387, Note_on_c, 1, 72, 127
1, 159387, Note_on_c, 1, 65, 127
1, 159387, Note_on_c, 1, 55, 127
1, 159492, Note_off_c, 1, 72, 0
1, 159493, Note_on_c, 1, 74, 127
1, 159597, Note_off_c, 1, 65, 0
1, 159598, Note_off_c, 1, 55, 0
1, 159598, Note_off_c, 1, 74, 0
1, 159599, Note_on_c, 1, 67, 127
1, 159599, Note_on_c, 1, 64, 127
1, 159599, Note_on_c, 1, 60, 127
1, 159810, Note_off_c, 1, 67, 0
1, 160234, Note_off_c, 1, 64, 0
1, 160234, Note_off_c, 1, 60, 0
1, 160235, Note_on_c, 1, 67, 127
1, 160446, Note_off_c, 1, 67, 0
1, 160447, Note_on_c, 1, 67, 127
1, 160658, Note_off_c, 1, 67, 0
1, 160659, Note_on_c, 1, 64, 127
1, 160659, Note_on_c, 1, 67, 127
1, 160659, Note_on_c, 1, 58, 127
1, 160870, Note_off_c, 1, 64, 0
1, 160870, Note_off_c, 1, 67, 0
1, 160870, Note_off_c, 1, 58, 0
1, 160871, Note_on_c, 1, 69, 127
1, 160871, Note_on_c, 1, 57, 127
1, 160871, Note_on_c, 1, 65, 127
1, 160976, Note_off_c, 1, 69, 0
1, 160977, Note_on_c, 1, 70, 127
1, 161082, Note_off_c, 1, 57, 0
1, 161082, Note_off_c, 1, 70, 0
1, 161083, Note_on_c, 1, 72, 127
1, 161083, Note_on_c, 1, 55, 127
1, 161188, Note_off_c, 1, 72, 0
1, 161290, Note_off_c, 1, 65, 0
1, 161293, Note_off_c, 1, 55, 0
1, 161294, Note_on_c, 1, 70, 127
1, 161294, Note_on_c, 1, 64, 127
1, 161294, Note_on_c, 1, 53, 127
1, 161399, Note_off_c, 1, 70, 0
1, 161400, Note_on_c, 1, 72, 127
1, 161504, Note_off_c, 1, 64, 0
1, 161505, Note_off_c, 1, 53, 0
1, 161505, Note_off_c, 1, 72, 0
1, 161506, Note_on_c, 1, 65, 127
1, 161506, Note_on_c, 1, 58, 127
1, 161506, Note_on_c, 1, 62, 127
1, 161611, Note_off_c, 1, 65, 0
1, 161612, Note_on_c, 1, 67, 127
1, 161717, Note_off_c, 1, 67, 0
1, 161718, Note_on_c, 1, 69, 127
1, 161823, Note_off_c, 1, 69, 0
1, 161929, Note_off_c, 1, 58, 0
1, 161930, Note_on_c, 1, 57, 127
1, 162141, Note_off_c, 1, 57, 0
1, 162142, Note_on_c, 1, 70, 127
1, 162142, Note_on_c, 1, 55, 127
1, 162247, Note_off_c, 1, 70, 0
1, 162248, Note_on_c, 1, 72, 127
1, 162353, Note_off_c, 1, 72, 0
1, 162354, Note_on_c, 1, 74, 127
1, 162459, Note_off_c, 1, 74, 0
1, 162565, Note_off_c, 1, 55, 0
1, 162566, Note_off_c, 1, 62, 0
1, 162566, Note_on_c, 1, 60, 127
1, 162777, Note_off_c, 1, 60, 0
1, 162778, Note_on_c, 1, 76, 127
1, 162778, Note_on_c, 1, 55, 127
1, 162778, Note_on_c, 1, 58, 127
1, 162883, Note_off_c, 1, 76, 0
1, 162884, Note_on_c, 1, 77, 127
1, 162989, Note_off_c, 1, 77, 0
1, 162990, Note_on_c, 1, 79, 127
1, 163095, Note_off_c, 1, 79, 0
1, 163201, Note_off_c, 1, 55, 0
1, 163202, Note_on_c, 1, 53, 127
1, 163413, Note_off_c, 1, 53, 0
1, 163414, Note_on_c, 1, 52, 127
1, 163414, Note_on_c, 1, 72, 127
1, 163518, Note_off_c, 1, 58, 0
1, 163626, Note_on_c, 1, 57, 127
1, 163731, Note_off_c, 1, 57, 0
1, 164049, Note_off_c, 1, 52, 0
1, 164155, Note_off_c, 1, 72, 0
1, 164262, Note_on_c, 1, 74, 127
1, 164367, Note_off_c, 1, 74, 0
1, 164686, Note_on_c, 1, 71, 127
1, 164686, Note_on_c, 1, 50, 127
1, 164791, Note_off_c, 1, 71, 0
1, 165321, Note_off_c, 1, 50, 0
1, 165322, Note_on_c, 1, 55, 127
1, 165322, Note_on_c, 1, 48, 127
1, 165322, Note_on_c, 1, 72, 127
1, 165322, Note_on_c, 1, 76, 127
1, 165533, Note_off_c, 1, 55, 0
1, 165533, Note_off_c, 1, 48, 0
1, 165534, Note_on_c, 1, 60, 127
1, 165745, Note_off_c, 1, 60, 0
1, 165957, Note_off_c, 1, 72, 0
1, 165957, Note_off_c, 1, 76, 0
1, 165958, Note_on_c, 1, 60, 127
1, 166169, Note_off_c, 1, 60, 0
1, 166170, Note_on_c, 1, 60, 127
1, 166381, Note_off_c, 1, 60, 0
1, 166382, Note_on_c, 1, 78, 127
1, 166382, Note_on_c, 1, 69, 127
1, 166382, Note_on_c, 1, 60, 127
1, 166593, Note_off_c, 1, 78, 0
1, 166593, Note_off_c, 1, 69, 0
1, 166593, Note_off_c, 1, 60, 0
1, 166594, Note_on_c, 1, 58, 127
1, 166594, Note_on_c, 1, 70, 127
1, 166594, Note_on_c, 1, 79, 127
1, 166699, Note_off_c, 1, 58, 0
1, 166700, Note_on_c, 1, 57, 127
1, 166805, Note_off_c, 1, 70, 0
1, 166805, Note_off_c, 1, 79, 0
1, 166805, Note_off_c, 1, 57, 0
1, 166806, Note_on_c, 1, 55, 127
1, 166806, Note_on_c, 1, 81, 127
1, 166806, Note_on_c, 1, 72, 127
1, 166911, Note_off_c, 1, 55, 0
1, 166912, Note_on_c, 1, 58, 127
1, 167017, Note_off_c, 1, 81, 0
1, 167017, Note_off_c, 1, 72, 0
1, 167017, Note_off_c, 1, 58, 0
1, 167018, Note_on_c, 1, 57, 127
1, 167018, Note_on_c, 1, 74, 127
1, 167018, Note_on_c, 1, 82, 127
1, 167123, Note_off_c, 1, 57, 0
1, 167124, Note_on_c, 1, 55, 127
1, 167229, Note_off_c, 1, 74, 0
1, 167229, Note_off_c, 1, 82, 0
1, 167229, Note_off_c, 1, 55, 0
1, 167230, Note_on_c, 1, 62, 127
1, 167230, Note_on_c, 1, 78, 127
1, 167230, Note_on_c, 1, 69, 127
1, 167441, Note_off_c, 1, 62, 0
1, 167865, Note_off_c, 1, 78, 0
1, 167865, Note_off_c, 1, 69, 0
1, 167866, Note_on_c, 1, 62, 127
1, 168077, Note_off_c, 1, 62, 0
1, 168078, Note_on_c, 1, 62, 127
1, 168289, Note_off_c, 1, 62, 0
1, 168290, Note_on_c, 1, 80, 127
1, 168290, Note_on_c, 1, 71, 127
1, 168290, Note_on_c, 1, 62, 127
1, 168501, Note_off_c, 1, 80, 0
1, 168501, Note_off_c, 1, 71, 0
1, 168501, Note_off_c, 1, 62, 0
1, 168502, Note_on_c, 1, 60, 127
1, 168502, Note_on_c, 1, 81, 127
1, 168502, Note_on_c, 1, 72, 127
1, 168607, Note_off_c, 1, 60, 0
1, 168608, Note_on_c, 1, 59, 127
1, 168713, Note_off_c, 1, 81, 0
1, 168713, Note_off_c, 1, 72, 0
1, 168713, Note_off_c, 1, 59, 0
1, 168714, Note_on_c, 1, 57, 127
1, 168714, Note_on_c, 1, 83, 127
1, 168714, Note_on_c, 1, 74, 127
1, 168819, Note_off_c, 1, 57, 0
1, 168820, Note_on_c, 1, 60, 127
1, 168925, Note_off_c, 1, 83, 0
1, 168925, Note_off_c, 1, 74, 0
1, 168925, Note_off_c, 1, 60, 0
1, 168926, Note_on_c, 1, 59, 127
1, 168926, Note_on_c, 1, 76, 127
1, 168926, Note_on_c, 1, 84, 127
1, 169031, Note_off_c, 1, 59, 0
1, 169032, Note_on_c, 1, 57, 127
1, 169137, Note_off_c, 1, 76, 0
1, 169137, Note_off_c, 1, 84, 0
1, 169137, Note_off_c, 1, 57, 0
1, 169138, Note_on_c, 1, 80, 127
1, 169138, Note_on_c, 1, 64, 127
1, 169138, Note_on_c, 1, 71, 127
1, 169243, Note_off_c, 1, 80, 0
1, 169243, Note_off_c, 1, 64, 0
1, 169244, Note_on_c, 1, 83, 127
1, 169244, Note_on_c, 1, 62, 127
1, 169348, Note_off_c, 1, 71, 0
1, 169349, Note_off_c, 1, 83, 0
1, 169349, Note_off_c, 1, 62, 0
1, 169350, Note_on_c, 1, 81, 127
1, 169350, Note_on_c, 1, 60, 127
1, 169455, Note_off_c, 1, 81, 0
1, 169455, Note_off_c, 1, 60, 0
1, 169456, Note_on_c, 1, 79, 127
1, 169456, Note_on_c, 1, 64, 127
1, 169561, Note_off_c, 1, 79, 0
1, 169561, Note_off_c, 1, 64, 0
1, 169562, Note_on_c, 1, 77, 127
1, 169562, Note_on_c, 1, 62, 127
1, 169667, Note_off_c, 1, 77, 0
1, 169667, Note_off_c, 1, 62, 0
1, 169668, Note_on_c, 1, 76, 127
1, 169668, Note_on_c, 1, 60, 127
1, 169773, Note_off_c, 1, 76, 0
1, 169773, Note_off_c, 1, 60, 0
1, 169774, Note_on_c, 1, 74, 127
1, 169774, Note_on_c, 1, 59, 127
1, 169879, Note_off_c, 1, 74, 0
1, 169879, Note_off_c, 1, 59, 0
1, 169880, Note_on_c, 1, 77, 127
1, 169880, Note_on_c, 1, 57, 127
1, 169985, Note_off_c, 1, 77, 0
1, 169985, Note_off_c, 1, 57, 0
1, 169986, Note_on_c, 1, 76, 127
1, 169986, Note_on_c, 1, 56, 127
1, 170091, Note_off_c, 1, 76, 0
1, 170091, Note_off_c, 1, 56, 0
1, 170092, Note_on_c, 1, 74, 127
1, 170092, Note_on_c, 1, 59, 127
1, 170197, Note_off_c, 1, 74, 0
1, 170197, Note_off_c, 1, 59, 0
1, 170198, Note_on_c, 1, 72, 127
1, 170198, Note_on_c, 1, 57, 127
1, 170303, Note_off_c, 1, 72, 0
1, 170303, Note_off_c, 1, 57, 0
1, 170304, Note_on_c, 1, 71, 127
1, 170304, Note_on_c, 1, 55, 127
1, 170409, Note_off_c, 1, 71, 0
1, 170409, Note_off_c, 1, 55, 0
1, 170410, Note_on_c, 1, 69, 127
1, 170410, Note_on_c, 1, 53, 127
1, 170515, Note_off_c, 1, 69, 0
1, 170515, Note_off_c, 1, 53, 0
1, 170516, Note_on_c, 1, 72, 127
1, 170516, Note_on_c, 1, 52, 127
1, 170621, Note_off_c, 1, 72, 0
1, 170621, Note_off_c, 1, 52, 0
1, 170622, Note_on_c, 1, 71, 127
1, 170622, Note_on_c, 1, 50, 127
1, 170727, Note_off_c, 1, 71, 0
1, 170727, Note_off_c, 1, 50, 0
1, 170728, Note_on_c, 1, 69, 127
1, 170728, Note_on_c, 1, 53, 127
1, 170833, Note_off_c, 1, 69, 0
1, 170833, Note_off_c, 1, 53, 0
1, 170834, Note_on_c, 1, 68, 127
1, 170834, Note_on_c, 1, 52, 127
1, 170939, Note_off_c, 1, 68, 0
1, 170939, Note_off_c, 1, 52, 0
1, 170940, Note_on_c, 1, 69, 127
1, 170940, Note_on_c, 1, 50, 127
1, 171045, Note_off_c, 1, 69, 0
1, 171045, Note_off_c, 1, 50, 0
1, 171046, Note_on_c, 1, 52, 127
1, 171046, Note_on_c, 1, 68, 127
1, 171151, Note_off_c, 1, 52, 0
1, 171152, Note_on_c, 1, 40, 127
1, 171257, Note_off_c, 1, 40, 0
1, 171258, Note_on_c, 1, 42, 127
1, 171258, Note_on_c, 1, 64, 127
1, 171363, Note_off_c, 1, 42, 0
1, 171364, Note_on_c, 1, 44, 127
1, 171446, Note_off_c, 1, 68, 0
1, 171469, Note_off_c, 1, 64, 0
1, 171469, Note_off_c, 1, 44, 0
1, 171470, Note_on_c, 1, 45, 127
1, 171470, Note_on_c, 1, 64, 127
1, 171575, Note_off_c, 1, 45, 0
1, 171576, Note_on_c, 1, 47, 127
1, 171681, Note_off_c, 1, 64, 0
1, 171681, Note_off_c, 1, 47, 0
1, 171682, Note_on_c, 1, 69, 127
1, 171682, Note_on_c, 1, 48, 127
1, 171682, Note_on_c, 1, 64, 127
1, 171787, Note_off_c, 1, 69, 0
1, 171788, Note_on_c, 1, 71, 127
1, 171893, Note_off_c, 1, 48, 0
1, 171893, Note_off_c, 1, 71, 0
1, 171894, Note_on_c, 1, 72, 127
1, 171894, Note_on_c, 1, 47, 127
1, 171999, Note_off_c, 1, 72, 0
1, 172105, Note_off_c, 1, 47, 0
1, 172106, Note_on_c, 1, 45, 127
1, 172317, Note_off_c, 1, 45, 0
1, 172530, Note_on_c, 1, 74, 127
1, 172635, Note_off_c, 1, 74, 0
1, 172742, Note_on_c, 1, 44, 127
1, 172953, Note_off_c, 1, 44, 0
1, 173057, Note_off_c, 1, 64, 0
1, 173060, Note_on_c, 1, 66, 127
1, 173165, Note_off_c, 1, 66, 0
1, 173166, Note_on_c, 1, 67, 127
1, 173271, Note_off_c, 1, 67, 0
1, 173802, Note_on_c, 1, 76, 127
1, 173907, Note_off_c, 1, 76, 0
1, 175074, Note_on_c, 1, 77, 127
1, 175074, Note_on_c, 1, 50, 127
1, 175179, Note_off_c, 1, 77, 0
1, 175179, Note_off_c, 1, 50, 0
1, 175816, Note_on_c, 1, 68, 127
1, 175921, Note_off_c, 1, 68, 0
1, 176346, Note_on_c, 1, 79, 127
1, 176346, Note_on_c, 1, 52, 127
1, 176451, Note_off_c, 1, 79, 0
1, 176451, Note_off_c, 1, 52, 0
1, 176452, Note_on_c, 1, 49, 127
1, 176557, Note_off_c, 1, 49, 0
1, 176876, Note_on_c, 1, 70, 127
1, 176981, Note_off_c, 1, 70, 0
1, 177194, Note_on_c, 1, 53, 127
1, 177405, Note_off_c, 1, 53, 0
1, 177406, Note_on_c, 1, 58, 127
1, 177829, Note_off_c, 1, 58, 0
1, 177830, Note_on_c, 1, 60, 127
1, 178041, Note_off_c, 1, 60, 0
1, 178042, Note_on_c, 1, 62, 127
1, 178465, Note_off_c, 1, 62, 0
1, 178678, Note_on_c, 1, 59, 127
1, 179313, Note_off_c, 1, 59, 0
1, 179314, Note_on_c, 1, 57, 127
1, 179950, Note_on_c, 1, 75, 127
1, 179950, Note_on_c, 1, 54, 127
1, 180055, Note_off_c, 1, 75, 0
1, 180162, Note_on_c, 1, 78, 127
1, 180267, Note_off_c, 1, 78, 0
1, 180584, Note_off_c, 1, 57, 0
1, 180585, Note_off_c, 1, 54, 0
1, 180586, Note_on_c, 1, 59, 127
1, 180586, Note_on_c, 1, 64, 127
1, 180586, Note_on_c, 1, 68, 127
1, 180692, Note_on_c, 1, 52, 127
1, 180797, Note_off_c, 1, 52, 0
1, 180798, Note_on_c, 1, 54, 127
1, 180903, Note_off_c, 1, 54, 0
1, 180904, Note_on_c, 1, 56, 127
1, 181005, Note_off_c, 1, 59, 0
1, 181008, Note_off_c, 1, 56, 0
1, 181009, Note_on_c, 1, 57, 127
1, 181114, Note_off_c, 1, 57, 0
1, 181220, Note_off_c, 1, 64, 0
1, 181221, Note_on_c, 1, 60, 127
1, 181326, Note_off_c, 1, 68, 0
1, 181327, Note_on_c, 1, 66, 127
1, 181432, Note_off_c, 1, 60, 0
1, 181432, Note_off_c, 1, 66, 0
1, 181433, Note_on_c, 1, 68, 127
1, 181433, Note_on_c, 1, 59, 127
1, 181538, Note_off_c, 1, 68, 0
1, 181539, Note_on_c, 1, 69, 127
1, 181644, Note_off_c, 1, 59, 0
1, 181644, Note_off_c, 1, 69, 0
1, 181645, Note_on_c, 1, 71, 127
1, 181645, Note_on_c, 1, 57, 127
1, 181750, Note_off_c, 1, 71, 0
1, 181751, Note_on_c, 1, 72, 127
1, 181856, Note_off_c, 1, 57, 0
1, 181856, Note_off_c, 1, 72, 0
1, 181857, Note_on_c, 1, 74, 127
1, 181857, Note_on_c, 1, 59, 127
1, 181962, Note_off_c, 1, 74, 0
1, 181963, Note_on_c, 1, 72, 127
1, 182068, Note_off_c, 1, 59, 0
1, 182068, Note_off_c, 1, 72, 0
1, 182069, Note_on_c, 1, 76, 127
1, 182069, Note_on_c, 1, 57, 127
1, 182174, Note_off_c, 1, 76, 0
1, 182175, Note_on_c, 1, 74, 127
1, 182280, Note_off_c, 1, 57, 0
1, 182280, Note_off_c, 1, 74, 0
1, 182281, Note_on_c, 1, 72, 127
1, 182281, Note_on_c, 1, 56, 127
1, 182386, Note_off_c, 1, 72, 0
1, 182387, Note_on_c, 1, 71, 127
1, 182492, Note_off_c, 1, 56, 0
1, 182492, Note_off_c, 1, 71, 0
1, 182493, Note_on_c, 1, 72, 127
1, 182493, Note_on_c, 1, 57, 127
1, 182598, Note_off_c, 1, 72, 0
1, 182599, Note_on_c, 1, 69, 127
1, 182704, Note_off_c, 1, 69, 0
1, 182705, Note_on_c, 1, 71, 127
1, 182810, Note_off_c, 1, 71, 0
1, 182811, Note_on_c, 1, 73, 127
1, 182916, Note_off_c, 1, 73, 0
1, 182917, Note_on_c, 1, 74, 127
1, 183022, Note_off_c, 1, 74, 0
1, 183023, Note_on_c, 1, 76, 127
1, 183128, Note_off_c, 1, 76, 0
1, 183129, Note_on_c, 1, 77, 127
1, 183222, Note_off_c, 1, 57, 0
1, 183235, Note_on_c, 1, 59, 127
1, 183340, Note_off_c, 1, 77, 0
1, 183340, Note_off_c, 1, 59, 0
1, 183341, Note_on_c, 1, 61, 127
1, 183341, Note_on_c, 1, 76, 127
1, 183446, Note_off_c, 1, 61, 0
1, 183447, Note_on_c, 1, 62, 127
1, 183552, Note_off_c, 1, 76, 0
1, 183552, Note_off_c, 1, 62, 0
1, 183553, Note_on_c, 1, 64, 127
1, 183553, Note_on_c, 1, 74, 127
1, 183658, Note_off_c, 1, 64, 0
1, 183659, Note_on_c, 1, 65, 127
1, 183764, Note_off_c, 1, 74, 0
1, 183764, Note_off_c, 1, 65, 0
1, 183765, Note_on_c, 1, 67, 127
1, 183765, Note_on_c, 1, 76, 127
1, 183870, Note_off_c, 1, 67, 0
1, 183871, Note_on_c, 1, 65, 127
1, 183976, Note_off_c, 1, 76, 0
1, 183976, Note_off_c, 1, 65, 0
1, 183977, Note_on_c, 1, 69, 127
1, 183977, Note_on_c, 1, 74, 127
1, 184082, Note_off_c, 1, 69, 0
1, 184083, Note_on_c, 1, 67, 127
1, 184188, Note_off_c, 1, 74, 0
1, 184188, Note_off_c, 1, 67, 0
1, 184189, Note_on_c, 1, 65, 127
1, 184189, Note_on_c, 1, 73, 127
1, 184294, Note_off_c, 1, 65, 0
1, 184295, Note_on_c, 1, 64, 127
1, 184400, Note_off_c, 1, 73, 0
1, 184400, Note_off_c, 1, 64, 0
1, 184401, Note_on_c, 1, 65, 127
1, 184401, Note_on_c, 1, 74, 127
1, 184506, Note_off_c, 1, 65, 0
1, 184507, Note_on_c, 1, 57, 127
1, 184612, Note_off_c, 1, 57, 0
1, 184613, Note_on_c, 1, 59, 127
1, 184718, Note_off_c, 1, 59, 0
1, 184719, Note_on_c, 1, 60, 127
1, 184824, Note_off_c, 1, 60, 0
1, 185036, Note_off_c, 1, 74, 0
1, 185037, Note_on_c, 1, 62, 127
1, 185143, Note_on_c, 1, 71, 127
1, 185248, Note_off_c, 1, 71, 0
1, 185249, Note_on_c, 1, 69, 127
1, 185354, Note_off_c, 1, 69, 0
1, 185355, Note_on_c, 1, 68, 127
1, 185460, Note_off_c, 1, 68, 0
1, 185673, Note_on_c, 1, 64, 127
1, 185778, Note_off_c, 1, 62, 0
1, 185779, Note_on_c, 1, 56, 127
1, 185884, Note_off_c, 1, 56, 0
1, 185885, Note_on_c, 1, 57, 127
1, 185990, Note_off_c, 1, 57, 0
1, 185991, Note_on_c, 1, 59, 127
1, 186096, Note_off_c, 1, 59, 0
1, 186309, Note_on_c, 1, 60, 127
1, 186415, Note_on_c, 1, 40, 127
1, 186520, Note_off_c, 1, 40, 0
1, 186521, Note_on_c, 1, 42, 127
1, 186626, Note_off_c, 1, 42, 0
1, 186627, Note_on_c, 1, 44, 127
1, 186732, Note_off_c, 1, 44, 0
1, 186733, Note_on_c, 1, 45, 127
1, 186838, Note_off_c, 1, 45, 0
1, 186839, Note_on_c, 1, 47, 127
1, 186944, Note_off_c, 1, 60, 0
1, 186944, Note_off_c, 1, 47, 0
1, 186945, Note_on_c, 1, 48, 127
1, 187050, Note_off_c, 1, 64, 0
1, 187051, Note_on_c, 1, 66, 127
1, 187156, Note_off_c, 1, 48, 0
1, 187156, Note_off_c, 1, 66, 0
1, 187157, Note_on_c, 1, 68, 127
1, 187157, Note_on_c, 1, 47, 127
1, 187262, Note_off_c, 1, 68, 0
1, 187263, Note_on_c, 1, 69, 127
1, 187368, Note_off_c, 1, 47, 0
1, 187368, Note_off_c, 1, 69, 0
1, 187369, Note_on_c, 1, 71, 127
1, 187369, Note_on_c, 1, 45, 127
1, 187474, Note_off_c, 1, 71, 0
1, 187475, Note_on_c, 1, 72, 127
1, 187580, Note_off_c, 1, 45, 0
1, 187580, Note_off_c, 1, 72, 0
1, 187581, Note_on_c, 1, 47, 127
1, 187581, Note_on_c, 1, 62, 127
1, 187687, Note_on_c, 1, 64, 127
1, 187792, Note_off_c, 1, 47, 0
1, 187792, Note_off_c, 1, 64, 0
1, 187793, Note_on_c, 1, 66, 127
1, 187793, Note_on_c, 1, 45, 127
1, 187898, Note_off_c, 1, 66, 0
1, 187899, Note_on_c, 1, 68, 127
1, 188004, Note_off_c, 1, 45, 0
1, 188004, Note_off_c, 1, 68, 0
1, 188005, Note_on_c, 1, 69, 127
1, 188005, Note_on_c, 1, 44, 127
1, 188110, Note_off_c, 1, 69, 0
1, 188111, Note_on_c, 1, 71, 127
1, 188216, Note_off_c, 1, 62, 0
1, 188216, Note_off_c, 1, 44, 0
1, 188217, Note_on_c, 1, 60, 127
1, 188420, Note_off_c, 1, 71, 0
1, 188429, Note_on_c, 1, 48, 127
1, 188534, Note_off_c, 1, 48, 0
1, 188535, Note_on_c, 1, 50, 127
1, 188640, Note_off_c, 1, 50, 0
1, 188641, Note_on_c, 1, 52, 127
1, 188746, Note_off_c, 1, 52, 0
1, 188747, Note_on_c, 1, 53, 127
1, 188852, Note_off_c, 1, 60, 0
1, 188852, Note_off_c, 1, 53, 0
1, 188853, Note_on_c, 1, 55, 127
1, 188853, Note_on_c, 1, 59, 127
1, 188958, Note_off_c, 1, 55, 0
1, 189064, Note_on_c, 1, 67, 127
1, 189271, Note_off_c, 1, 59, 0
1, 189487, Note_on_c, 1, 41, 127
1, 189487, Note_on_c, 1, 57, 127
1, 189592, Note_off_c, 1, 41, 0
1, 189593, Note_on_c, 1, 43, 127
1, 189698, Note_off_c, 1, 67, 0
1, 189698, Note_off_c, 1, 43, 0
1, 189911, Note_on_c, 1, 65, 127
1, 190122, Note_off_c, 1, 57, 0
1, 190330, Note_off_c, 1, 65, 0
1, 190757, Note_on_c, 1, 38, 127
1, 190862, Note_off_c, 1, 38, 0
1, 190863, Note_on_c, 1, 40, 127
1, 190968, Note_off_c, 1, 40, 0
1, 191711, Note_on_c, 1, 42, 127
1, 191815, Note_off_c, 1, 42, 0
1, 192028, Note_on_c, 1, 54, 127
1, 192028, Note_on_c, 1, 39, 127
1, 192134, Note_off_c, 1, 54, 0
1, 192135, Note_on_c, 1, 56, 127
1, 192241, Note_off_c, 1, 56, 0
1, 192670, Note_on_c, 1, 51, 127
1, 192776, Note_off_c, 1, 51, 0
1, 193952, Note_off_c, 1, 39, 0
1, 193961, Note_on_c, 1, 40, 127
1, 194077, Note_on_c, 1, 52, 127
1, 194184, Note_off_c, 1, 52, 0
1, 194185, Note_on_c, 1, 54, 127
1, 194292, Note_off_c, 1, 54, 0
1, 194293, Note_on_c, 1, 56, 127
1, 194400, Note_off_c, 1, 56, 0
1, 194401, Note_on_c, 1, 57, 127
1, 194508, Note_off_c, 1, 57, 0
1, 194509, Note_on_c, 1, 59, 127
1, 194616, Note_off_c, 1, 59, 0
1, 194617, Note_on_c, 1, 60, 127
1, 194710, Note_off_c, 1, 40, 0
1, 194725, Note_on_c, 1, 42, 127
1, 194831, Note_off_c, 1, 60, 0
1, 194832, Note_off_c, 1, 42, 0
1, 194833, Note_on_c, 1, 44, 127
1, 194833, Note_on_c, 1, 59, 127
1, 194940, Note_off_c, 1, 44, 0
1, 194941, Note_on_c, 1, 45, 127
1, 195047, Note_off_c, 1, 59, 0
1, 195048, Note_off_c, 1, 45, 0
1, 195049, Note_on_c, 1, 47, 127
1, 195049, Note_on_c, 1, 57, 127
1, 195156, Note_off_c, 1, 47, 0
1, 195157, Note_on_c, 1, 48, 127
1, 195263, Note_off_c, 1, 57, 0
1, 195264, Note_off_c, 1, 48, 0
1, 195265, Note_on_c, 1, 50, 127
1, 195265, Note_on_c, 1, 59, 127
1, 195372, Note_off_c, 1, 50, 0
1, 195373, Note_on_c, 1, 48, 127
1, 195479, Note_off_c, 1, 59, 0
1, 195480, Note_off_c, 1, 48, 0
1, 195481, Note_on_c, 1, 52, 127
1, 195481, Note_on_c, 1, 57, 127
1, 195588, Note_off_c, 1, 52, 0
1, 195589, Note_on_c, 1, 50, 127
1, 195695, Note_off_c, 1, 57, 0
1, 195696, Note_off_c, 1, 50, 0
1, 195697, Note_on_c, 1, 48, 127
1, 195697, Note_on_c, 1, 56, 127
1, 195804, Note_off_c, 1, 48, 0
1, 195805, Note_on_c, 1, 47, 127
1, 195911, Note_off_c, 1, 56, 0
1, 195912, Note_off_c, 1, 47, 0
1, 195913, Note_on_c, 1, 48, 127
1, 195913, Note_on_c, 1, 57, 127
1, 196020, Note_off_c, 1, 48, 0
1, 196020, Note_off_c, 1, 57, 0
1, 196021, Note_on_c, 1, 47, 127
1, 196021, Note_on_c, 1, 59, 127
1, 196128, Note_off_c, 1, 47, 0
1, 196128, Note_off_c, 1, 59, 0
1, 196129, Note_on_c, 1, 45, 127
1, 196129, Note_on_c, 1, 60, 127
1, 196236, Note_off_c, 1, 45, 0
1, 196236, Note_off_c, 1, 60, 0
1, 196237, Note_on_c, 1, 47, 127
1, 196237, Note_on_c, 1, 62, 127
1, 196344, Note_off_c, 1, 47, 0
1, 196344, Note_off_c, 1, 62, 0
1, 196345, Note_on_c, 1, 48, 127
1, 196345, Note_on_c, 1, 64, 127
1, 196452, Note_off_c, 1, 48, 0
1, 196452, Note_off_c, 1, 64, 0
1, 196453, Note_on_c, 1, 50, 127
1, 196453, Note_on_c, 1, 65, 127
1, 196560, Note_off_c, 1, 50, 0
1, 196560, Note_off_c, 1, 65, 0
1, 196561, Note_on_c, 1, 52, 127
1, 196561, Note_on_c, 1, 67, 127
1, 196668, Note_off_c, 1, 52, 0
1, 196668, Note_off_c, 1, 67, 0
1, 196669, Note_on_c, 1, 50, 127
1, 196669, Note_on_c, 1, 65, 127
1, 196776, Note_off_c, 1, 50, 0
1, 196776, Note_off_c, 1, 65, 0
1, 196777, Note_on_c, 1, 49, 127
1, 196777, Note_on_c, 1, 64, 127
1, 196884, Note_off_c, 1, 49, 0
1, 196884, Note_off_c, 1, 64, 0
1, 196885, Note_on_c, 1, 50, 127
1, 196885, Note_on_c, 1, 65, 127
1, 196992, Note_off_c, 1, 50, 0
1, 196992, Note_off_c, 1, 65, 0
1, 196993, Note_on_c, 1, 52, 127
1, 196993, Note_on_c, 1, 67, 127
1, 197100, Note_off_c, 1, 52, 0
1, 197100, Note_off_c, 1, 67, 0
1, 197101, Note_on_c, 1, 53, 127
1, 197101, Note_on_c, 1, 69, 127
1, 197208, Note_off_c, 1, 53, 0
1, 197208, Note_off_c, 1, 69, 0
1, 197209, Note_on_c, 1, 55, 127
1, 197209, Note_on_c, 1, 64, 127
1, 197209, Note_on_c, 1, 61, 127
1, 197209, Note_on_c, 1, 70, 127
1, 197209, Note_on_c, 1, 67, 127
1, 197316, Note_off_c, 1, 55, 0
1, 197317, Note_on_c, 1, 53, 127
1, 197389, Note_off_c, 1, 64, 0
1, 197389, Note_off_c, 1, 61, 0
1, 197389, Note_off_c, 1, 70, 0
1, 197389, Note_off_c, 1, 67, 0
1, 197424, Note_off_c, 1, 53, 0
1, 197425, Note_on_c, 1, 52, 127
1, 197425, Note_on_c, 1, 65, 127
1, 197425, Note_on_c, 1, 69, 127
1, 197425, Note_on_c, 1, 62, 127
1, 197532, Note_off_c, 1, 52, 0
1, 197533, Note_on_c, 1, 53, 127
1, 197605, Note_off_c, 1, 65, 0
1, 197605, Note_off_c, 1, 69, 0
1, 197605, Note_off_c, 1, 62, 0
1, 197640, Note_off_c, 1, 53, 0
1, 197641, Note_on_c, 1, 55, 127
1, 197641, Note_on_c, 1, 64, 127
1, 197641, Note_on_c, 1, 61, 127
1, 197641, Note_on_c, 1, 67, 127
1, 197748, Note_off_c, 1, 55, 0
1, 197749, Note_on_c, 1, 57, 127
1, 197821, Note_off_c, 1, 64, 0
1, 197821, Note_off_c, 1, 61, 0
1, 197821, Note_off_c, 1, 67, 0
1, 197856, Note_off_c, 1, 57, 0
1, 197857, Note_on_c, 1, 50, 127
1, 197857, Note_on_c, 1, 65, 127
1, 197965, Note_on_c, 1, 62, 127
1, 198072, Note_off_c, 1, 62, 0
1, 198073, Note_on_c, 1, 60, 127
1, 198180, Note_off_c, 1, 60, 0
1, 198181, Note_on_c, 1, 58, 127
1, 198288, Note_off_c, 1, 58, 0
1, 198289, Note_on_c, 1, 57, 127
1, 198396, Note_off_c, 1, 57, 0
1, 198397, Note_on_c, 1, 55, 127
1, 198504, Note_off_c, 1, 50, 0
1, 198504, Note_off_c, 1, 55, 0
1, 198505, Note_on_c, 1, 53, 127
1, 198612, Note_off_c, 1, 53, 0
1, 198613, Note_on_c, 1, 52, 127
1, 198720, Note_off_c, 1, 52, 0
1, 198829, Note_on_c, 1, 48, 127
1, 198936, Note_off_c, 1, 65, 0
1, 198936, Note_off_c, 1, 48, 0
1, 198937, Note_on_c, 1, 47, 127
1, 198937, Note_on_c, 1, 65, 127
1, 198937, Note_on_c, 1, 62, 127
1, 198937, Note_on_c, 1, 60, 127
1, 199044, Note_off_c, 1, 47, 0
1, 199045, Note_on_c, 1, 45, 127
1, 199152, Note_off_c, 1, 65, 0
1, 199152, Note_off_c, 1, 62, 0
1, 199152, Note_off_c, 1, 60, 0
1, 199152, Note_off_c, 1, 45, 0
1, 199153, Note_on_c, 1, 69, 127
1, 199153, Note_on_c, 1, 65, 127
1, 199153, Note_on_c, 1, 43, 127
1, 199153, Note_on_c, 1, 59, 127
1, 199368, Note_off_c, 1, 69, 0
1, 199368, Note_off_c, 1, 65, 0
1, 199369, Note_on_c, 1, 64, 127
1, 199369, Note_on_c, 1, 67, 127
1, 199584, Note_off_c, 1, 64, 0
1, 199584, Note_off_c, 1, 67, 0
1, 199585, Note_on_c, 1, 62, 127
1, 199800, Note_off_c, 1, 43, 0
1, 199800, Note_off_c, 1, 59, 0
1, 199800, Note_off_c, 1, 62, 0
1, 199801, Note_on_c, 1, 48, 127
1, 199801, Note_on_c, 1, 64, 127
1, 199909, Note_on_c, 1, 60, 127
1, 200016, Note_off_c, 1, 60, 0
1, 200017, Note_on_c, 1, 59, 127
1, 200124, Note_off_c, 1, 59, 0
1, 200125, Note_on_c, 1, 57, 127
1, 200232, Note_off_c, 1, 57, 0
1, 200233, Note_on_c, 1, 55, 127
1, 200340, Note_off_c, 1, 55, 0
1, 200341, Note_on_c, 1, 53, 127
1, 200448, Note_off_c, 1, 48, 0
1, 200448, Note_off_c, 1, 53, 0
1, 200449, Note_on_c, 1, 52, 127
1, 200556, Note_off_c, 1, 52, 0
1, 200557, Note_on_c, 1, 50, 127
1, 200664, Note_off_c, 1, 50, 0
1, 200773, Note_on_c, 1, 47, 127
1, 200880, Note_off_c, 1, 64, 0
1, 200880, Note_off_c, 1, 47, 0
1, 200881, Note_on_c, 1, 45, 127
1, 200881, Note_on_c, 1, 64, 127
1, 200988, Note_off_c, 1, 45, 0
1, 200989, Note_on_c, 1, 43, 127
1, 201096, Note_off_c, 1, 43, 0
1, 201097, Note_on_c, 1, 69, 127
1, 201097, Note_on_c, 1, 42, 127
1, 201204, Note_off_c, 1, 69, 0
1, 201205, Note_on_c, 1, 71, 127
1, 201312, Note_off_c, 1, 71, 0
1, 201529, Note_on_c, 1, 72, 127
1, 201744, Note_off_c, 1, 64, 0
1, 201744, Note_off_c, 1, 42, 0
1, 201744, Note_off_c, 1, 72, 0
1, 201745, Note_on_c, 1, 62, 127
1, 201853, Note_on_c, 1, 47, 127
1, 201960, Note_off_c, 1, 47, 0
1, 201961, Note_on_c, 1, 48, 127
1, 202068, Note_off_c, 1, 48, 0
1, 202069, Note_on_c, 1, 50, 127
1, 202176, Note_off_c, 1, 50, 0
1, 202177, Note_on_c, 1, 52, 127
1, 202284, Note_off_c, 1, 52, 0
1, 202285, Note_on_c, 1, 54, 127
1, 202392, Note_off_c, 1, 54, 0
1, 202393, Note_on_c, 1, 56, 127
1, 202500, Note_off_c, 1, 56, 0
1, 202501, Note_on_c, 1, 57, 127
1, 202608, Note_off_c, 1, 62, 0
1, 202608, Note_off_c, 1, 57, 0
1, 202609, Note_on_c, 1, 59, 127
1, 202716, Note_off_c, 1, 59, 0
1, 202717, Note_on_c, 1, 60, 127
1, 202824, Note_off_c, 1, 60, 0
1, 202825, Note_on_c, 1, 62, 127
1, 202825, Note_on_c, 1, 57, 127
1, 202825, Note_on_c, 1, 47, 127
1, 202932, Note_off_c, 1, 62, 0
1, 202933, Note_on_c, 1, 64, 127
1, 203039, Note_off_c, 1, 57, 0
1, 203040, Note_off_c, 1, 47, 0
1, 203040, Note_off_c, 1, 64, 0
1, 203041, Note_on_c, 1, 62, 127
1, 203041, Note_on_c, 1, 65, 127
1, 203041, Note_on_c, 1, 52, 127
1, 203041, Note_on_c, 1, 56, 127
1, 203256, Note_off_c, 1, 62, 0
1, 203256, Note_off_c, 1, 65, 0
1, 203257, Note_on_c, 1, 64, 127
1, 203257, Note_on_c, 1, 60, 127
1, 203472, Note_off_c, 1, 52, 0
1, 203472, Note_off_c, 1, 64, 0
1, 203472, Note_off_c, 1, 60, 0
1, 203473, Note_on_c, 1, 40, 127
1, 203473, Note_on_c, 1, 59, 127
1, 203688, Note_off_c, 1, 56, 0
1, 203688, Note_off_c, 1, 40, 0
1, 203688, Note_off_c, 1, 59, 0
1, 203689, Note_on_c, 1, 60, 127
1, 203689, Note_on_c, 1, 57, 127
1, 203689, Note_on_c, 1, 45, 127
1, 203795, Note_off_c, 1, 60, 0
1, 203796, Note_on_c, 1, 62, 127
1, 203901, Note_off_c, 1, 57, 0
1, 203902, Note_off_c, 1, 62, 0
1, 203903, Note_on_c, 1, 64, 127
1, 204009, Note_off_c, 1, 45, 0
1, 204009, Note_off_c, 1, 64, 0
1, 204010, Note_on_c, 1, 45, 127
1, 204010, Note_on_c, 1, 60, 127
1, 204116, Note_off_c, 1, 45, 0
1, 204116, Note_off_c, 1, 60, 0
1, 204117, Note_on_c, 1, 47, 127
1, 204117, Note_on_c, 1, 62, 127
1, 204223, Note_off_c, 1, 47, 0
1, 204223, Note_off_c, 1, 62, 0
1, 204224, Note_on_c, 1, 48, 127
1, 204224, Note_on_c, 1, 64, 127
1, 204330, Note_off_c, 1, 48, 0
1, 204330, Note_off_c, 1, 64, 0
1, 204331, Note_on_c, 1, 50, 127
1, 204331, Note_on_c, 1, 65, 127
1, 204437, Note_off_c, 1, 50, 0
1, 204437, Note_off_c, 1, 65, 0
1, 204438, Note_on_c, 1, 52, 127
1, 204438, Note_on_c, 1, 67, 127
1, 204544, Note_off_c, 1, 52, 0
1, 204544, Note_off_c, 1, 67, 0
1, 204545, Note_on_c, 1, 53, 127
1, 204545, Note_on_c, 1, 69, 127
1, 204651, Note_off_c, 1, 53, 0
1, 204651, Note_off_c, 1, 69, 0
1, 204652, Note_on_c, 1, 50, 127
1, 204652, Note_on_c, 1, 65, 127
1, 204758, Note_off_c, 1, 50, 0
1, 204758, Note_off_c, 1, 65, 0
1, 204759, Note_on_c, 1, 52, 127
1, 204759, Note_on_c, 1, 67, 127
1, 204865, Note_off_c, 1, 52, 0
1, 204865, Note_off_c, 1, 67, 0
1, 204866, Note_on_c, 1, 53, 127
1, 204866, Note_on_c, 1, 69, 127
1, 204972, Note_off_c, 1, 53, 0
1, 204972, Note_off_c, 1, 69, 0
1, 204973, Note_on_c, 1, 50, 127
1, 204973, Note_on_c, 1, 71, 127
1, 205079, Note_off_c, 1, 50, 0
1, 205079, Note_off_c, 1, 71, 0
1, 205080, Note_on_c, 1, 52, 127
1, 205080, Note_on_c, 1, 72, 127
1, 205186, Note_off_c, 1, 52, 0
1, 205186, Note_off_c, 1, 72, 0
1, 205187, Note_on_c, 1, 53, 127
1, 205187, Note_on_c, 1, 74, 127
1, 205293, Note_off_c, 1, 53, 0
1, 205293, Note_off_c, 1, 74, 0
1, 205294, Note_on_c, 1, 50, 127
1, 205294, Note_on_c, 1, 71, 127
1, 205400, Note_off_c, 1, 50, 0
1, 205400, Note_off_c, 1, 71, 0
1, 205401, Note_on_c, 1, 52, 127
1, 205401, Note_on_c, 1, 72, 127
1, 205507, Note_off_c, 1, 52, 0
1, 205507, Note_off_c, 1, 72, 0
1, 205508, Note_on_c, 1, 53, 127
1, 205508, Note_on_c, 1, 74, 127
1, 205614, Note_off_c, 1, 53, 0
1, 205614, Note_off_c, 1, 74, 0
1, 205615, Note_on_c, 1, 44, 127
1, 205615, Note_on_c, 1, 64, 127
1, 205721, Note_off_c, 1, 44, 0
1, 205722, Note_on_c, 1, 53, 127
1, 205828, Note_off_c, 1, 64, 0
1, 205828, Note_off_c, 1, 53, 0
1, 205829, Note_on_c, 1, 52, 127
1, 205829, Note_on_c, 1, 66, 127
1, 205935, Note_off_c, 1, 52, 0
1, 205935, Note_off_c, 1, 66, 0
1, 205936, Note_on_c, 1, 50, 127
1, 205936, Note_on_c, 1, 68, 127
1, 206042, Note_off_c, 1, 50, 0
1, 206042, Note_off_c, 1, 68, 0
1, 206043, Note_on_c, 1, 48, 127
1, 206043, Note_on_c, 1, 69, 127
1, 206149, Note_off_c, 1, 48, 0
1, 206149, Note_off_c, 1, 69, 0
1, 206150, Note_on_c, 1, 47, 127
1, 206150, Note_on_c, 1, 71, 127
1, 206256, Note_off_c, 1, 47, 0
1, 206256, Note_off_c, 1, 71, 0
1, 206257, Note_on_c, 1, 45, 127
1, 206257, Note_on_c, 1, 72, 127
1, 206363, Note_off_c, 1, 45, 0
1, 206364, Note_on_c, 1, 47, 127
1, 206470, Note_off_c, 1, 72, 0
1, 206470, Note_off_c, 1, 47, 0
1, 206471, Note_on_c, 1, 45, 127
1, 206471, Note_on_c, 1, 71, 127
1, 206577, Note_off_c, 1, 45, 0
1, 206578, Note_on_c, 1, 43, 127
1, 206684, Note_off_c, 1, 71, 0
1, 206684, Note_off_c, 1, 43, 0
1, 206685, Note_on_c, 1, 41, 127
1, 206685, Note_on_c, 1, 69, 127
1, 206791, Note_off_c, 1, 41, 0
1, 206792, Note_on_c, 1, 40, 127
1, 206898, Note_off_c, 1, 69, 0
1, 206898, Note_off_c, 1, 40, 0
1, 206899, Note_on_c, 1, 38, 127
1, 206899, Note_on_c, 1, 71, 127
1, 207112, Note_off_c, 1, 38, 0
1, 207112, Note_off_c, 1, 71, 0
1, 207113, Note_on_c, 1, 72, 127
1, 207113, Note_on_c, 1, 50, 127
1, 207219, Note_off_c, 1, 72, 0
1, 207220, Note_on_c, 1, 71, 127
1, 207326, Note_off_c, 1, 50, 0
1, 207326, Note_off_c, 1, 71, 0
1, 207327, Note_on_c, 1, 69, 127
1, 207327, Note_on_c, 1, 52, 127
1, 207433, Note_off_c, 1, 69, 0
1, 207434, Note_on_c, 1, 68, 127
1, 207540, Note_off_c, 1, 52, 0
1, 207540, Note_off_c, 1, 68, 0
1, 207541, Note_on_c, 1, 76, 127
1, 207541, Note_on_c, 1, 48, 127
1, 207647, Note_off_c, 1, 76, 0
1, 207648, Note_on_c, 1, 74, 127
1, 207754, Note_off_c, 1, 74, 0
1, 207755, Note_on_c, 1, 72, 127
1, 207861, Note_off_c, 1, 48, 0
1, 207861, Note_off_c, 1, 72, 0
1, 207862, Note_on_c, 1, 48, 127
1, 207862, Note_on_c, 1, 71, 127
1, 207968, Note_off_c, 1, 48, 0
1, 207968, Note_off_c, 1, 71, 0
1, 207969, Note_on_c, 1, 50, 127
1, 207969, Note_on_c, 1, 69, 127
1, 208075, Note_off_c, 1, 50, 0
1, 208075, Note_off_c, 1, 69, 0
1, 208076, Note_on_c, 1, 52, 127
1, 208076, Note_on_c, 1, 68, 127
1, 208182, Note_off_c, 1, 52, 0
1, 208182, Note_off_c, 1, 68, 0
1, 208183, Note_on_c, 1, 69, 127
1, 208183, Note_on_c, 1, 53, 127
1, 208289, Note_off_c, 1, 69, 0
1, 208290, Note_on_c, 1, 71, 127
1, 208396, Note_off_c, 1, 53, 0
1, 208396, Note_off_c, 1, 71, 0
1, 208397, Note_on_c, 1, 69, 127
1, 208397, Note_on_c, 1, 52, 127
1, 208503, Note_off_c, 1, 69, 0
1, 208504, Note_on_c, 1, 71, 127
1, 208610, Note_off_c, 1, 52, 0
1, 208610, Note_off_c, 1, 71, 0
1, 208611, Note_on_c, 1, 50, 127
1, 208611, Note_on_c, 1, 65, 127
1, 208611, Note_on_c, 1, 72, 127
1, 208824, Note_off_c, 1, 50, 0
1, 208824, Note_off_c, 1, 65, 0
1, 208824, Note_off_c, 1, 72, 0
1, 208825, Note_on_c, 1, 64, 127
1, 208825, Note_on_c, 1, 52, 127
1, 209039, Note_on_c, 1, 69, 127
1, 209248, Note_off_c, 1, 64, 0
1, 209251, Note_off_c, 1, 69, 0
1, 209252, Note_on_c, 1, 40, 127
1, 209252, Note_on_c, 1, 68, 127
1, 209252, Note_on_c, 1, 62, 127
1, 209465, Note_off_c, 1, 52, 0
1, 209465, Note_off_c, 1, 40, 0
1, 209465, Note_off_c, 1, 68, 0
1, 209465, Note_off_c, 1, 62, 0
1, 209466, Note_on_c, 1, 61, 127
1, 209466, Note_on_c, 1, 69, 127
1, 209466, Note_on_c, 1, 45, 127
1, 209466, Note_on_c, 1, 52, 127
1, 209574, Note_off_c, 1, 61, 0
1, 209575, Note_on_c, 1, 57, 127
1, 209682, Note_off_c, 1, 69, 0
1, 209683, Note_off_c, 1, 45, 0
1, 209683, Note_off_c, 1, 52, 0
1, 209683, Note_off_c, 1, 57, 0
1, 209684, Note_on_c, 1, 59, 127
1, 209684, Note_on_c, 1, 45, 127
1, 209792, Note_off_c, 1, 59, 0
1, 209793, Note_on_c, 1, 61, 127
1, 209901, Note_off_c, 1, 45, 0
1, 209901, Note_off_c, 1, 61, 0
1, 209902, Note_on_c, 1, 62, 127
1, 209902, Note_on_c, 1, 45, 127
1, 210010, Note_off_c, 1, 62, 0
1, 210011, Note_on_c, 1, 64, 127
1, 210119, Note_off_c, 1, 45, 0
1, 210119, Note_off_c, 1, 64, 0
1, 210120, Note_on_c, 1, 45, 127
1, 210120, Note_on_c, 1, 65, 127
1, 210229, Note_on_c, 1, 57, 127
1, 210336, Note_off_c, 1, 45, 0
1, 210337, Note_off_c, 1, 65, 0
1, 210338, Note_on_c, 1, 64, 127
1, 210445, Note_off_c, 1, 57, 0
1, 210447, Note_on_c, 1, 55, 127
1, 210555, Note_off_c, 1, 64, 0
1, 210556, Note_on_c, 1, 62, 127
1, 210663, Note_off_c, 1, 55, 0
1, 210665, Note_on_c, 1, 53, 127
1, 210773, Note_off_c, 1, 62, 0
1, 210773, Note_off_c, 1, 53, 0
1, 210774, Note_on_c, 1, 45, 127
1, 210774, Note_on_c, 1, 64, 127
1, 210774, Note_on_c, 1, 58, 127
1, 210883, Note_on_c, 1, 55, 127
1, 210990, Note_off_c, 1, 45, 0
1, 210991, Note_off_c, 1, 64, 0
1, 210991, Note_off_c, 1, 58, 0
1, 210992, Note_on_c, 1, 62, 127
1, 210992, Note_on_c, 1, 57, 127
1, 211099, Note_off_c, 1, 55, 0
1, 211101, Note_on_c, 1, 53, 127
1, 211209, Note_off_c, 1, 62, 0
1, 211209, Note_off_c, 1, 57, 0
1, 211210, Note_on_c, 1, 61, 127
1, 211317, Note_off_c, 1, 53, 0
1, 211319, Note_on_c, 1, 52, 127
1, 211427, Note_off_c, 1, 61, 0
1, 211427, Note_off_c, 1, 52, 0
1, 211428, Note_on_c, 1, 53, 127
1, 211428, Note_on_c, 1, 57, 127
1, 211428, Note_on_c, 1, 62, 127
1, 211536, Note_off_c, 1, 53, 0
1, 211537, Note_on_c, 1, 45, 127
1, 211645, Note_off_c, 1, 57, 0
1, 211645, Note_off_c, 1, 62, 0
1, 211645, Note_off_c, 1, 45, 0
1, 211646, Note_on_c, 1, 47, 127
1, 211646, Note_on_c, 1, 57, 127
1, 211754, Note_off_c, 1, 47, 0
1, 211755, Note_on_c, 1, 49, 127
1, 211863, Note_off_c, 1, 57, 0
1, 211863, Note_off_c, 1, 49, 0
1, 211864, Note_on_c, 1, 50, 127
1, 211864, Note_on_c, 1, 57, 127
1, 211972, Note_off_c, 1, 50, 0
1, 211973, Note_on_c, 1, 52, 127
1, 212081, Note_off_c, 1, 57, 0
1, 212081, Note_off_c, 1, 52, 0
1, 212082, Note_on_c, 1, 57, 127
1, 212082, Note_on_c, 1, 53, 127
1, 212191, Note_on_c, 1, 69, 127
1, 212298, Note_off_c, 1, 57, 0
1, 212299, Note_off_c, 1, 53, 0
1, 212300, Note_on_c, 1, 52, 127
1, 212407, Note_off_c, 1, 69, 0
1, 212409, Note_on_c, 1, 67, 127
1, 212517, Note_off_c, 1, 52, 0
1, 212518, Note_on_c, 1, 50, 127
1, 212625, Note_off_c, 1, 67, 0
1, 212627, Note_on_c, 1, 65, 127
1, 212735, Note_off_c, 1, 50, 0
1, 212735, Note_off_c, 1, 65, 0
1, 212736, Note_on_c, 1, 57, 127
1, 212736, Note_on_c, 1, 52, 127
1, 212845, Note_on_c, 1, 67, 127
1, 212952, Note_off_c, 1, 57, 0
1, 212953, Note_off_c, 1, 52, 0
1, 212954, Note_on_c, 1, 50, 127
1, 213061, Note_off_c, 1, 67, 0
1, 213063, Note_on_c, 1, 65, 127
1, 213171, Note_off_c, 1, 50, 0
1, 213172, Note_on_c, 1, 49, 127
1, 213279, Note_off_c, 1, 65, 0
1, 213281, Note_on_c, 1, 64, 127
1, 213389, Note_off_c, 1, 49, 0
1, 213389, Note_off_c, 1, 64, 0
1, 213390, Note_on_c, 1, 65, 127
1, 213390, Note_on_c, 1, 57, 127
1, 213390, Note_on_c, 1, 50, 127
1, 213498, Note_off_c, 1, 65, 0
1, 213499, Note_on_c, 1, 62, 127
1, 213606, Note_off_c, 1, 57, 0
1, 213607, Note_off_c, 1, 50, 0
1, 213607, Note_off_c, 1, 62, 0
1, 213608, Note_on_c, 1, 64, 127
1, 213608, Note_on_c, 1, 50, 127
1, 213716, Note_off_c, 1, 64, 0
1, 213717, Note_on_c, 1, 66, 127
1, 213825, Note_off_c, 1, 50, 0
1, 213825, Note_off_c, 1, 66, 0
1, 213826, Note_on_c, 1, 67, 127
1, 213826, Note_on_c, 1, 50, 127
1, 213934, Note_off_c, 1, 67, 0
1, 213935, Note_on_c, 1, 69, 127
1, 214043, Note_off_c, 1, 50, 0
1, 214043, Note_off_c, 1, 69, 0
1, 214044, Note_on_c, 1, 50, 127
1, 214044, Note_on_c, 1, 70, 127
1, 214153, Note_on_c, 1, 62, 127
1, 214260, Note_off_c, 1, 50, 0
1, 214261, Note_off_c, 1, 70, 0
1, 214262, Note_on_c, 1, 69, 127
1, 214369, Note_off_c, 1, 62, 0
1, 214371, Note_on_c, 1, 60, 127
1, 214479, Note_off_c, 1, 69, 0
1, 214480, Note_on_c, 1, 67, 127
1, 214587, Note_off_c, 1, 60, 0
1, 214589, Note_on_c, 1, 58, 127
1, 214697, Note_off_c, 1, 67, 0
1, 214697, Note_off_c, 1, 58, 0
1, 214698, Note_on_c, 1, 50, 127
1, 214698, Note_on_c, 1, 69, 127
1, 214698, Note_on_c, 1, 63, 127
1, 214807, Note_on_c, 1, 60, 127
1, 214914, Note_off_c, 1, 50, 0
1, 214915, Note_off_c, 1, 69, 0
1, 214915, Note_off_c, 1, 63, 0
1, 214916, Note_on_c, 1, 62, 127
1, 214916, Note_on_c, 1, 67, 127
1, 215023, Note_off_c, 1, 60, 0
1, 215025, Note_on_c, 1, 58, 127
1, 215133, Note_off_c, 1, 62, 0
1, 215133, Note_off_c, 1, 67, 0
1, 215134, Note_on_c, 1, 66, 127
1, 215241, Note_off_c, 1, 58, 0
1, 215243, Note_on_c, 1, 57, 127
1, 215351, Note_off_c, 1, 66, 0
1, 215351, Note_off_c, 1, 57, 0
1, 215352, Note_on_c, 1, 58, 127
1, 215352, Note_on_c, 1, 67, 127
1, 215352, Note_on_c, 1, 62, 127
1, 215460, Note_off_c, 1, 58, 0
1, 215461, Note_on_c, 1, 50, 127
1, 215569, Note_off_c, 1, 67, 0
1, 215569, Note_off_c, 1, 62, 0
1, 215569, Note_off_c, 1, 50, 0
1, 215570, Note_on_c, 1, 52, 127
1, 215570, Note_on_c, 1, 62, 127
1, 215678, Note_off_c, 1, 52, 0
1, 215679, Note_on_c, 1, 54, 127
1, 215787, Note_off_c, 1, 62, 0
1, 215787, Note_off_c, 1, 54, 0
1, 215788, Note_on_c, 1, 55, 127
1, 215788, Note_on_c, 1, 62, 127
1, 215896, Note_off_c, 1, 55, 0
1, 215897, Note_on_c, 1, 57, 127
1, 216005, Note_off_c, 1, 62, 0
1, 216005, Note_off_c, 1, 57, 0
1, 216006, Note_on_c, 1, 62, 127
1, 216006, Note_on_c, 1, 58, 127
1, 216115, Note_on_c, 1, 74, 127
1, 216222, Note_off_c, 1, 62, 0
1, 216223, Note_off_c, 1, 58, 0
1, 216224, Note_on_c, 1, 57, 127
1, 216331, Note_off_c, 1, 74, 0
1, 216333, Note_on_c, 1, 72, 127
1, 216441, Note_off_c, 1, 57, 0
1, 216442, Note_on_c, 1, 55, 127
1, 216549, Note_off_c, 1, 72, 0
1, 216551, Note_on_c, 1, 70, 127
1, 216659, Note_off_c, 1, 55, 0
1, 216659, Note_off_c, 1, 70, 0
1, 216660, Note_on_c, 1, 62, 127
1, 216660, Note_on_c, 1, 57, 127
1, 216769, Note_on_c, 1, 72, 127
1, 216876, Note_off_c, 1, 62, 0
1, 216877, Note_off_c, 1, 57, 0
1, 216878, Note_on_c, 1, 55, 127
1, 216985, Note_off_c, 1, 72, 0
1, 216987, Note_on_c, 1, 70, 127
1, 217095, Note_off_c, 1, 55, 0
1, 217096, Note_on_c, 1, 54, 127
1, 217203, Note_off_c, 1, 70, 0
1, 217205, Note_on_c, 1, 69, 127
1, 217313, Note_off_c, 1, 54, 0
1, 217313, Note_off_c, 1, 69, 0
1, 217314, Note_on_c, 1, 55, 127
1, 217314, Note_on_c, 1, 70, 127
1, 217314, Note_on_c, 1, 62, 127
1, 217528, Note_off_c, 1, 55, 0
1, 217529, Note_off_c, 1, 70, 0
1, 217529, Note_off_c, 1, 62, 0
1, 217546, Note_on_c, 1, 74, 127
1, 217761, Note_off_c, 1, 74, 0
1, 217762, Note_on_c, 1, 74, 127
1, 217977, Note_off_c, 1, 74, 0
1, 217978, Note_on_c, 1, 74, 127
1, 218193, Note_off_c, 1, 74, 0
1, 218194, Note_on_c, 1, 74, 127
1, 218409, Note_off_c, 1, 74, 0
1, 218410, Note_on_c, 1, 70, 127
1, 218410, Note_on_c, 1, 74, 127
1, 218410, Note_on_c, 1, 67, 127
1, 218625, Note_off_c, 1, 70, 0
1, 218625, Note_off_c, 1, 74, 0
1, 218625, Note_off_c, 1, 67, 0
1, 218626, Note_on_c, 1, 75, 127
1, 218626, Note_on_c, 1, 63, 127
1, 218626, Note_on_c, 1, 72, 127
1, 218733, Note_off_c, 1, 75, 0
1, 218734, Note_on_c, 1, 77, 127
1, 218841, Note_off_c, 1, 63, 0
1, 218841, Note_off_c, 1, 77, 0
1, 218842, Note_on_c, 1, 79, 127
1, 218842, Note_on_c, 1, 62, 127
1, 218949, Note_off_c, 1, 79, 0
1, 219053, Note_off_c, 1, 72, 0
1, 219056, Note_off_c, 1, 62, 0
1, 219057, Note_on_c, 1, 77, 127
1, 219057, Note_on_c, 1, 70, 127
1, 219057, Note_on_c, 1, 60, 127
1, 219164, Note_off_c, 1, 77, 0
1, 219165, Note_on_c, 1, 79, 127
1, 219271, Note_off_c, 1, 70, 0
1, 219272, Note_off_c, 1, 60, 0
1, 219272, Note_off_c, 1, 79, 0
1, 219273, Note_on_c, 1, 72, 127
1, 219273, Note_on_c, 1, 69, 127
1, 219273, Note_on_c, 1, 65, 127
1, 219488, Note_off_c, 1, 72, 0
1, 219920, Note_off_c, 1, 69, 0
1, 219920, Note_off_c, 1, 65, 0
1, 219921, Note_on_c, 1, 72, 127
1, 220136, Note_off_c, 1, 72, 0
1, 220137, Note_on_c, 1, 72, 127
1, 220352, Note_off_c, 1, 72, 0
1, 220353, Note_on_c, 1, 69, 127
1, 220353, Note_on_c, 1, 72, 127
1, 220353, Note_on_c, 1, 63, 127
1, 220568, Note_off_c, 1, 69, 0
1, 220568, Note_off_c, 1, 72, 0
1, 220568, Note_off_c, 1, 63, 0
1, 220569, Note_on_c, 1, 74, 127
1, 220569, Note_on_c, 1, 62, 127
1, 220569, Note_on_c, 1, 70, 127
1, 220676, Note_off_c, 1, 74, 0
1, 220677, Note_on_c, 1, 75, 127
1, 220784, Note_off_c, 1, 62, 0
1, 220784, Note_off_c, 1, 75, 0
1, 220785, Note_on_c, 1, 77, 127
1, 220785, Note_on_c, 1, 60, 127
1, 220892, Note_off_c, 1, 77, 0
1, 220996, Note_off_c, 1, 70, 0
1, 220999, Note_off_c, 1, 60, 0
1, 221000, Note_on_c, 1, 75, 127
1, 221000, Note_on_c, 1, 68, 127
1, 221000, Note_on_c, 1, 58, 127
1, 221107, Note_off_c, 1, 75, 0
1, 221108, Note_on_c, 1, 77, 127
1, 221214, Note_off_c, 1, 68, 0
1, 221215, Note_off_c, 1, 58, 0
1, 221215, Note_off_c, 1, 77, 0
1, 221216, Note_on_c, 1, 70, 127
1, 221216, Note_on_c, 1, 63, 127
1, 221216, Note_on_c, 1, 67, 127
1, 221323, Note_off_c, 1, 70, 0
1, 221324, Note_on_c, 1, 72, 127
1, 221431, Note_off_c, 1, 72, 0
1, 221432, Note_on_c, 1, 74, 127
1, 221539, Note_off_c, 1, 74, 0
1, 221647, Note_off_c, 1, 63, 0
1, 221648, Note_on_c, 1, 62, 127
1, 221863, Note_off_c, 1, 62, 0
1, 221864, Note_on_c, 1, 75, 127
1, 221864, Note_on_c, 1, 60, 127
1, 221971, Note_off_c, 1, 75, 0
1, 221972, Note_on_c, 1, 77, 127
1, 222079, Note_off_c, 1, 77, 0
1, 222080, Note_on_c, 1, 79, 127
1, 222187, Note_off_c, 1, 79, 0
1, 222295, Note_off_c, 1, 60, 0
1, 222296, Note_off_c, 1, 67, 0
1, 222296, Note_on_c, 1, 65, 127
1, 222511, Note_off_c, 1, 65, 0
1, 222512, Note_on_c, 1, 81, 127
1, 222512, Note_on_c, 1, 63, 127
1, 222512, Note_on_c, 1, 60, 127
1, 222619, Note_off_c, 1, 81, 0
1, 222620, Note_on_c, 1, 82, 127
1, 222727, Note_off_c, 1, 63, 0
1, 222727, Note_off_c, 1, 60, 0
1, 222727, Note_off_c, 1, 82, 0
1, 222728, Note_on_c, 1, 84, 127
1, 222728, Note_on_c, 1, 58, 127
1, 222728, Note_on_c, 1, 62, 127
1, 222835, Note_off_c, 1, 84, 0
1, 222836, Note_on_c, 1, 81, 127
1, 222943, Note_off_c, 1, 58, 0
1, 222943, Note_off_c, 1, 62, 0
1, 222943, Note_off_c, 1, 81, 0
1, 222944, Note_on_c, 1, 82, 127
1, 222944, Note_on_c, 1, 60, 127
1, 222944, Note_on_c, 1, 57, 127
1, 223051, Note_off_c, 1, 82, 0
1, 223052, Note_on_c, 1, 84, 127
1, 223159, Note_off_c, 1, 60, 0
1, 223159, Note_off_c, 1, 57, 0
1, 223159, Note_off_c, 1, 84, 0
1, 223160, Note_on_c, 1, 78, 127
1, 223160, Note_on_c, 1, 62, 127
1, 223376, Note_on_c, 1, 69, 127
1, 223591, Note_off_c, 1, 69, 0
1, 223807, Note_off_c, 1, 78, 0
1, 223807, Note_off_c, 1, 62, 0
1, 223808, Note_on_c, 1, 69, 127
1, 223916, Note_on_c, 1, 63, 127
1, 224023, Note_off_c, 1, 69, 0
1, 224023, Note_off_c, 1, 63, 0
1, 224024, Note_on_c, 1, 62, 127
1, 224024, Note_on_c, 1, 69, 127
1, 224131, Note_off_c, 1, 62, 0
1, 224132, Note_on_c, 1, 60, 127
1, 224239, Note_off_c, 1, 69, 0
1, 224239, Note_off_c, 1, 60, 0
1, 224240, Note_on_c, 1, 58, 127
1, 224240, Note_on_c, 1, 69, 127
1, 224347, Note_off_c, 1, 58, 0
1, 224348, Note_on_c, 1, 57, 127
1, 224455, Note_off_c, 1, 69, 0
1, 224455, Note_off_c, 1, 57, 0
1, 224456, Note_on_c, 1, 71, 127
1, 224456, Note_on_c, 1, 55, 127
1, 224456, Note_on_c, 1, 77, 127
1, 224563, Note_off_c, 1, 71, 0
1, 224563, Note_off_c, 1, 55, 0
1, 224564, Note_on_c, 1, 72, 127
1, 224564, Note_on_c, 1, 57, 127
1, 224671, Note_off_c, 1, 72, 0
1, 224671, Note_off_c, 1, 57, 0
1, 224672, Note_on_c, 1, 74, 127
1, 224672, Note_on_c, 1, 59, 127
1, 224779, Note_off_c, 1, 74, 0
1, 224779, Note_off_c, 1, 59, 0
1, 225103, Note_off_c, 1, 77, 0
1, 225104, Note_on_c, 1, 67, 127
1, 225104, Note_on_c, 1, 76, 127
1, 225104, Note_on_c, 1, 60, 127
1, 225319, Note_off_c, 1, 67, 0
1, 225751, Note_off_c, 1, 76, 0
1, 225859, Note_off_c, 1, 60, 0
1, 225860, Note_on_c, 1, 62, 127
1, 225967, Note_off_c, 1, 62, 0
1, 225968, Note_on_c, 1, 60, 127
1, 225968, Note_on_c, 1, 67, 127
1, 226075, Note_off_c, 1, 60, 0
1, 226076, Note_on_c, 1, 58, 127
1, 226183, Note_off_c, 1, 67, 0
1, 226183, Note_off_c, 1, 58, 0
1, 226184, Note_on_c, 1, 57, 127
1, 226184, Note_on_c, 1, 67, 127
1, 226291, Note_off_c, 1, 57, 0
1, 226292, Note_on_c, 1, 55, 127
1, 226399, Note_off_c, 1, 67, 0
1, 226399, Note_off_c, 1, 55, 0
1, 226400, Note_on_c, 1, 69, 127
1, 226400, Note_on_c, 1, 53, 127
1, 226400, Note_on_c, 1, 75, 127
1, 226507, Note_off_c, 1, 69, 0
1, 226507, Note_off_c, 1, 53, 0
1, 226508, Note_on_c, 1, 70, 127
1, 226508, Note_on_c, 1, 55, 127
1, 226615, Note_off_c, 1, 70, 0
1, 226615, Note_off_c, 1, 55, 0
1, 226616, Note_on_c, 1, 72, 127
1, 226616, Note_on_c, 1, 57, 127
1, 226723, Note_off_c, 1, 72, 0
1, 226723, Note_off_c, 1, 57, 0
1, 227047, Note_off_c, 1, 75, 0
1, 227048, Note_on_c, 1, 58, 127
1, 227048, Note_on_c, 1, 74, 127
1, 227155, Note_off_c, 1, 58, 0
1, 227156, Note_on_c, 1, 57, 127
1, 227263, Note_off_c, 1, 57, 0
1, 227264, Note_on_c, 1, 77, 127
1, 227372, Note_on_c, 1, 62, 127
1, 227479, Note_off_c, 1, 77, 0
1, 227479, Note_off_c, 1, 62, 0
1, 227480, Note_on_c, 1, 82, 127
1, 227695, Note_off_c, 1, 74, 0
1, 227695, Note_off_c, 1, 82, 0
1, 227696, Note_on_c, 1, 55, 127
1, 227696, Note_on_c, 1, 75, 127
1, 227803, Note_off_c, 1, 55, 0
1, 227804, Note_on_c, 1, 57, 127
1, 227911, Note_off_c, 1, 57, 0
1, 227912, Note_on_c, 1, 58, 127
1, 227912, Note_on_c, 1, 79, 127
1, 228019, Note_off_c, 1, 58, 0
1, 228020, Note_on_c, 1, 62, 127
1, 228127, Note_off_c, 1, 79, 0
1, 228127, Note_off_c, 1, 62, 0
1, 228128, Note_on_c, 1, 82, 127
1, 228343, Note_off_c, 1, 75, 0
1, 228343, Note_off_c, 1, 82, 0
1, 228344, Note_on_c, 1, 53, 127
1, 228344, Note_on_c, 1, 74, 127
1, 228451, Note_off_c, 1, 53, 0
1, 228452, Note_on_c, 1, 57, 127
1, 228559, Note_off_c, 1, 57, 0
1, 228560, Note_on_c, 1, 58, 127
1, 228560, Note_on_c, 1, 77, 127
1, 228667, Note_off_c, 1, 58, 0
1, 228668, Note_on_c, 1, 62, 127
1, 228775, Note_off_c, 1, 77, 0
1, 228775, Note_off_c, 1, 62, 0
1, 228776, Note_on_c, 1, 82, 127
1, 228991, Note_off_c, 1, 74, 0
1, 228991, Note_off_c, 1, 82, 0
1, 228992, Note_on_c, 1, 51, 127
1, 228992, Note_on_c, 1, 72, 127
1, 229099, Note_off_c, 1, 51, 0
1, 229100, Note_on_c, 1, 57, 127
1, 229207, Note_off_c, 1, 57, 0
1, 229208, Note_on_c, 1, 58, 127
1, 229208, Note_on_c, 1, 79, 127
1, 229315, Note_off_c, 1, 58, 0
1, 229316, Note_on_c, 1, 62, 127
1, 229423, Note_off_c, 1, 79, 0
1, 229423, Note_off_c, 1, 62, 0
1, 229424, Note_on_c, 1, 82, 127
1, 229639, Note_off_c, 1, 72, 0
1, 229639, Note_off_c, 1, 82, 0
1, 229640, Note_on_c, 1, 50, 127
1, 229640, Note_on_c, 1, 70, 127
1, 229747, Note_off_c, 1, 50, 0
1, 229748, Note_on_c, 1, 57, 127
1, 229855, Note_off_c, 1, 57, 0
1, 229856, Note_on_c, 1, 58, 127
1, 229856, Note_on_c, 1, 77, 127
1, 229963, Note_off_c, 1, 58, 0
1, 229964, Note_on_c, 1, 62, 127
1, 230071, Note_off_c, 1, 77, 0
1, 230071, Note_off_c, 1, 62, 0
1, 230072, Note_on_c, 1, 82, 127
1, 230287, Note_off_c, 1, 70, 0
1, 230287, Note_off_c, 1, 82, 0
1, 230288, Note_on_c, 1, 51, 127
1, 230288, Note_on_c, 1, 70, 127
1, 230395, Note_off_c, 1, 51, 0
1, 230396, Note_on_c, 1, 57, 127
1, 230503, Note_off_c, 1, 57, 0
1, 230504, Note_on_c, 1, 58, 127
1, 230504, Note_on_c, 1, 75, 127
1, 230611, Note_off_c, 1, 58, 0
1, 230612, Note_on_c, 1, 62, 127
1, 230719, Note_off_c, 1, 75, 0
1, 230719, Note_off_c, 1, 62, 0
1, 230720, Note_on_c, 1, 79, 127
1, 230935, Note_off_c, 1, 70, 0
1, 230935, Note_off_c, 1, 79, 0
1, 230936, Note_on_c, 1, 72, 127
1, 230936, Note_on_c, 1, 45, 127
1, 231043, Note_off_c, 1, 72, 0
1, 231044, Note_on_c, 1, 74, 127
1, 231151, Note_off_c, 1, 74, 0
1, 231152, Note_on_c, 1, 75, 127
1, 231259, Note_off_c, 1, 75, 0
1, 231260, Note_on_c, 1, 79, 127
1, 231367, Note_off_c, 1, 79, 0
1, 231691, Note_off_c, 1, 45, 0
1, 231692, Note_on_c, 1, 74, 127
1, 231692, Note_on_c, 1, 46, 127
1, 231799, Note_off_c, 1, 74, 0
1, 231799, Note_off_c, 1, 46, 0
1, 231800, Note_on_c, 1, 75, 127
1, 231800, Note_on_c, 1, 48, 127
1, 231907, Note_off_c, 1, 75, 0
1, 231907, Note_off_c, 1, 48, 0
1, 231908, Note_on_c, 1, 77, 127
1, 231908, Note_on_c, 1, 45, 127
1, 232015, Note_off_c, 1, 77, 0
1, 232015, Note_off_c, 1, 45, 0
1, 232016, Note_on_c, 1, 79, 127
1, 232016, Note_on_c, 1, 46, 127
1, 232123, Note_off_c, 1, 79, 0
1, 232123, Note_off_c, 1, 46, 0
1, 232124, Note_on_c, 1, 81, 127
1, 232124, Note_on_c, 1, 48, 127
1, 232231, Note_off_c, 1, 81, 0
1, 232231, Note_off_c, 1, 48, 0
1, 232232, Note_on_c, 1, 82, 127
1, 232232, Note_on_c, 1, 41, 127
1, 232339, Note_off_c, 1, 82, 0
1, 232340, Note_on_c, 1, 81, 127
1, 232447, Note_off_c, 1, 41, 0
1, 232447, Note_off_c, 1, 81, 0
1, 232448, Note_on_c, 1, 84, 127
1, 232448, Note_on_c, 1, 53, 127
1, 232555, Note_off_c, 1, 84, 0
1, 232556, Note_on_c, 1, 82, 127
1, 232663, Note_off_c, 1, 53, 0
1, 232663, Note_off_c, 1, 82, 0
1, 232664, Note_on_c, 1, 81, 127
1, 232664, Note_on_c, 1, 51, 127
1, 232771, Note_off_c, 1, 81, 0
1, 232772, Note_on_c, 1, 79, 127
1, 232879, Note_off_c, 1, 51, 0
1, 232879, Note_off_c, 1, 79, 0
1, 232880, Note_on_c, 1, 77, 127
1, 232880, Note_on_c, 1, 50, 127
1, 232987, Note_off_c, 1, 77, 0
1, 232988, Note_on_c, 1, 82, 127
1, 233095, Note_off_c, 1, 82, 0
1, 233096, Note_on_c, 1, 81, 127
1, 233203, Note_off_c, 1, 81, 0
1, 233204, Note_on_c, 1, 79, 127
1, 233311, Note_off_c, 1, 50, 0
1, 233311, Note_off_c, 1, 79, 0
1, 233312, Note_on_c, 1, 77, 127
1, 233312, Note_on_c, 1, 48, 127
1, 233419, Note_off_c, 1, 77, 0
1, 233420, Note_on_c, 1, 75, 127
1, 233527, Note_off_c, 1, 48, 0
1, 233527, Note_off_c, 1, 75, 0
1, 233528, Note_on_c, 1, 74, 127
1, 233528, Note_on_c, 1, 46, 127
1, 233635, Note_off_c, 1, 74, 0
1, 233636, Note_on_c, 1, 75, 127
1, 233743, Note_off_c, 1, 46, 0
1, 233743, Note_off_c, 1, 75, 0
1, 233744, Note_on_c, 1, 77, 127
1, 233744, Note_on_c, 1, 58, 127
1, 233851, Note_off_c, 1, 77, 0
1, 233852, Note_on_c, 1, 72, 127
1, 233959, Note_off_c, 1, 58, 0
1, 233959, Note_off_c, 1, 72, 0
1, 233960, Note_on_c, 1, 74, 127
1, 233960, Note_on_c, 1, 56, 127
1, 234067, Note_off_c, 1, 74, 0
1, 234068, Note_on_c, 1, 70, 127
1, 234175, Note_off_c, 1, 56, 0
1, 234175, Note_off_c, 1, 70, 0
1, 234176, Note_on_c, 1, 75, 127
1, 234176, Note_on_c, 1, 55, 127
1, 234283, Note_off_c, 1, 75, 0
1, 234284, Note_on_c, 1, 77, 127
1, 234391, Note_off_c, 1, 55, 0
1, 234391, Note_off_c, 1, 77, 0
1, 234392, Note_on_c, 1, 79, 127
1, 234392, Note_on_c, 1, 53, 127
1, 234499, Note_off_c, 1, 79, 0
1, 234500, Note_on_c, 1, 74, 127
1, 234607, Note_off_c, 1, 53, 0
1, 234607, Note_off_c, 1, 74, 0
1, 234608, Note_on_c, 1, 75, 127
1, 234608, Note_on_c, 1, 51, 127
1, 234715, Note_off_c, 1, 75, 0
1, 234716, Note_on_c, 1, 72, 127
1, 234823, Note_off_c, 1, 51, 0
1, 234823, Note_off_c, 1, 72, 0
1, 234824, Note_on_c, 1, 77, 127
1, 234824, Note_on_c, 1, 63, 127
1, 234931, Note_off_c, 1, 77, 0
1, 234931, Note_off_c, 1, 63, 0
1, 234932, Note_on_c, 1, 79, 127
1, 234932, Note_on_c, 1, 62, 127
1, 235039, Note_off_c, 1, 79, 0
1, 235039, Note_off_c, 1, 62, 0
1, 235040, Note_on_c, 1, 81, 127
1, 235040, Note_on_c, 1, 60, 127
1, 235147, Note_off_c, 1, 81, 0
1, 235147, Note_off_c, 1, 60, 0
1, 235148, Note_on_c, 1, 74, 127
1, 235148, Note_on_c, 1, 58, 127
1, 235255, Note_off_c, 1, 74, 0
1, 235255, Note_off_c, 1, 58, 0
1, 235256, Note_on_c, 1, 75, 127
1, 235256, Note_on_c, 1, 60, 127
1, 235363, Note_off_c, 1, 75, 0
1, 235363, Note_off_c, 1, 60, 0
1, 235364, Note_on_c, 1, 72, 127
1, 235364, Note_on_c, 1, 57, 127
1, 235471, Note_off_c, 1, 72, 0
1, 235471, Note_off_c, 1, 57, 0
1, 235472, Note_on_c, 1, 74, 127
1, 235472, Note_on_c, 1, 58, 127
1, 235579, Note_off_c, 1, 74, 0
1, 235580, Note_on_c, 1, 81, 127
1, 235687, Note_off_c, 1, 58, 0
1, 235687, Note_off_c, 1, 81, 0
1, 235688, Note_on_c, 1, 82, 127
1, 235688, Note_on_c, 1, 50, 127
1, 235795, Note_off_c, 1, 82, 0
1, 235796, Note_on_c, 1, 77, 127
1, 235903, Note_off_c, 1, 50, 0
1, 235903, Note_off_c, 1, 77, 0
1, 235904, Note_on_c, 1, 79, 127
1, 235904, Note_on_c, 1, 51, 127
1, 236011, Note_off_c, 1, 79, 0
1, 236012, Note_on_c, 1, 75, 127
1, 236119, Note_off_c, 1, 51, 0
1, 236119, Note_off_c, 1, 75, 0
1, 236120, Note_on_c, 1, 74, 127
1, 236120, Note_on_c, 1, 53, 127
1, 236227, Note_off_c, 1, 74, 0
1, 236228, Note_on_c, 1, 72, 127
1, 236335, Note_off_c, 1, 53, 0
1, 236335, Note_off_c, 1, 72, 0
1, 236336, Note_on_c, 1, 75, 127
1, 236336, Note_on_c, 1, 51, 127
1, 236443, Note_off_c, 1, 75, 0
1, 236444, Note_on_c, 1, 74, 127
1, 236551, Note_off_c, 1, 51, 0
1, 236551, Note_off_c, 1, 74, 0
1, 236552, Note_on_c, 1, 72, 127
1, 236552, Note_on_c, 1, 53, 127
1, 236659, Note_off_c, 1, 72, 0
1, 236660, Note_on_c, 1, 74, 127
1, 236767, Note_off_c, 1, 53, 0
1, 236767, Note_off_c, 1, 74, 0
1, 236774, Note_on_c, 1, 70, 127
1, 236774, Note_on_c, 1, 46, 127
1, 236892, Note_on_c, 1, 74, 127
1, 236999, Note_off_c, 1, 74, 0
1, 237000, Note_on_c, 1, 77, 127
1, 237074, Note_off_c, 1, 70, 0
1, 237107, Note_off_c, 1, 77, 0
1, 237432, Note_on_c, 1, 82, 127
1, 237529, Note_off_c, 1, 46, 0
1, 237540, Note_on_c, 1, 50, 127
1, 237647, Note_off_c, 1, 82, 0
1, 237647, Note_off_c, 1, 50, 0
1, 237648, Note_on_c, 1, 53, 127
1, 237648, Note_on_c, 1, 82, 127
1, 237648, Note_on_c, 1, 74, 127
1, 237755, Note_off_c, 1, 53, 0
1, 237756, Note_on_c, 1, 46, 127
1, 237863, Note_off_c, 1, 82, 0
1, 237863, Note_off_c, 1, 74, 0
1, 237863, Note_off_c, 1, 46, 0
1, 237864, Note_on_c, 1, 50, 127
1, 237864, Note_on_c, 1, 82, 127
1, 237864, Note_on_c, 1, 74, 127
1, 237971, Note_off_c, 1, 50, 0
1, 237972, Note_on_c, 1, 53, 127
1, 238079, Note_off_c, 1, 82, 0
1, 238079, Note_off_c, 1, 74, 0
1, 238079, Note_off_c, 1, 53, 0
1, 238080, Note_on_c, 1, 58, 127
1, 238080, Note_on_c, 1, 74, 127
1, 238080, Note_on_c, 1, 82, 127
1, 238187, Note_off_c, 1, 58, 0
1, 238188, Note_on_c, 1, 62, 127
1, 238295, Note_off_c, 1, 74, 0
1, 238295, Note_off_c, 1, 82, 0
1, 238295, Note_off_c, 1, 62, 0
1, 238296, Note_on_c, 1, 65, 127
1, 238296, Note_on_c, 1, 82, 127
1, 238296, Note_on_c, 1, 74, 127
1, 238403, Note_off_c, 1, 65, 0
1, 238404, Note_on_c, 1, 58, 127
1, 238511, Note_off_c, 1, 82, 0
1, 238511, Note_off_c, 1, 74, 0
1, 238511, Note_off_c, 1, 58, 0
1, 238512, Note_on_c, 1, 62, 127
1, 238512, Note_on_c, 1, 74, 127
1, 238512, Note_on_c, 1, 82, 127
1, 238619, Note_off_c, 1, 62, 0
1, 238620, Note_on_c, 1, 65, 127
1, 238727, Note_off_c, 1, 74, 0
1, 238727, Note_off_c, 1, 82, 0
1, 238727, Note_off_c, 1, 65, 0
1, 238728, Note_on_c, 1, 72, 127
1, 238728, Note_on_c, 1, 82, 127
1, 238728, Note_on_c, 1, 51, 127
1, 238835, Note_off_c, 1, 72, 0
1, 238836, Note_on_c, 1, 79, 127
1, 238928, Note_off_c, 1, 82, 0
1, 238943, Note_off_c, 1, 79, 0
1, 238944, Note_on_c, 1, 75, 127
1, 239043, Note_off_c, 1, 51, 0
1, 239094, Note_off_c, 1, 75, 0
1, 239160, Note_on_c, 1, 75, 127
1, 239268, Note_on_c, 1, 72, 127
1, 239310, Note_off_c, 1, 75, 0
1, 239375, Note_off_c, 1, 72, 0
1, 239376, Note_on_c, 1, 41, 127
1, 239376, Note_on_c, 1, 81, 127
1, 239483, Note_off_c, 1, 41, 0
1, 239484, Note_on_c, 1, 45, 127
1, 239591, Note_off_c, 1, 81, 0
1, 239591, Note_off_c, 1, 45, 0
1, 239592, Note_on_c, 1, 48, 127
1, 239592, Note_on_c, 1, 81, 127
1, 239592, Note_on_c, 1, 72, 127
1, 239699, Note_off_c, 1, 48, 0
1, 239700, Note_on_c, 1, 41, 127
1, 239807, Note_off_c, 1, 81, 0
1, 239807, Note_off_c, 1, 72, 0
1, 239807, Note_off_c, 1, 41, 0
1, 239808, Note_on_c, 1, 45, 127
1, 239808, Note_on_c, 1, 81, 127
1, 239808, Note_on_c, 1, 72, 127
1, 239915, Note_off_c, 1, 45, 0
1, 239916, Note_on_c, 1, 48, 127
1, 240023, Note_off_c, 1, 81, 0
1, 240023, Note_off_c, 1, 72, 0
1, 240023, Note_off_c, 1, 48, 0
1, 240024, Note_on_c, 1, 53, 127
1, 240024, Note_on_c, 1, 72, 127
1, 240024, Note_on_c, 1, 81, 127
1, 240131, Note_off_c, 1, 53, 0
1, 240132, Note_on_c, 1, 57, 127
1, 240239, Note_off_c, 1, 72, 0
1, 240239, Note_off_c, 1, 81, 0
1, 240239, Note_off_c, 1, 57, 0
1, 240240, Note_on_c, 1, 60, 127
1, 240240, Note_on_c, 1, 81, 127
1, 240240, Note_on_c, 1, 72, 127
1, 240347, Note_off_c, 1, 60, 0
1, 240348, Note_on_c, 1, 53, 127
1, 240455, Note_off_c, 1, 81, 0
1, 240455, Note_off_c, 1, 72, 0
1, 240455, Note_off_c, 1, 53, 0
1, 240456, Note_on_c, 1, 57, 127
1, 240456, Note_on_c, 1, 81, 127
1, 240456, Note_on_c, 1, 72, 127
1, 240563, Note_off_c, 1, 57, 0
1, 240564, Note_on_c, 1, 60, 127
1, 240671, Note_off_c, 1, 81, 0
1, 240671, Note_off_c, 1, 72, 0
1, 240671, Note_off_c, 1, 60, 0
1, 240672, Note_on_c, 1, 70, 127
1, 240672, Note_on_c, 1, 80, 127
1, 240672, Note_on_c, 1, 50, 127
1, 240779, Note_off_c, 1, 70, 0
1, 240780, Note_on_c, 1, 77, 127
1, 240872, Note_off_c, 1, 80, 0
1, 240887, Note_off_c, 1, 77, 0
1, 240888, Note_on_c, 1, 74, 127
1, 240987, Note_off_c, 1, 50, 0
1, 241038, Note_off_c, 1, 74, 0
1, 241104, Note_on_c, 1, 74, 127
1, 241212, Note_on_c, 1, 70, 127
1, 241254, Note_off_c, 1, 74, 0
1, 241319, Note_off_c, 1, 70, 0
1, 241320, Note_on_c, 1, 39, 127
1, 241320, Note_on_c, 1, 79, 127
1, 241427, Note_off_c, 1, 39, 0
1, 241428, Note_on_c, 1, 43, 127
1, 241535, Note_off_c, 1, 79, 0
1, 241535, Note_off_c, 1, 43, 0
1, 241536, Note_on_c, 1, 46, 127
1, 241536, Note_on_c, 1, 79, 127
1, 241536, Note_on_c, 1, 70, 127
1, 241643, Note_off_c, 1, 46, 0
1, 241644, Note_on_c, 1, 39, 127
1, 241751, Note_off_c, 1, 79, 0
1, 241751, Note_off_c, 1, 70, 0
1, 241751, Note_off_c, 1, 39, 0
1, 241752, Note_on_c, 1, 43, 127
1, 241752, Note_on_c, 1, 79, 127
1, 241752, Note_on_c, 1, 70, 127
1, 241859, Note_off_c, 1, 43, 0
1, 241860, Note_on_c, 1, 46, 127
1, 241967, Note_off_c, 1, 79, 0
1, 241967, Note_off_c, 1, 70, 0
1, 241967, Note_off_c, 1, 46, 0
1, 241968, Note_on_c, 1, 51, 127
1, 241968, Note_on_c, 1, 70, 127
1, 241968, Note_on_c, 1, 79, 127
1, 242075, Note_off_c, 1, 51, 0
1, 242076, Note_on_c, 1, 55, 127
1, 242183, Note_off_c, 1, 70, 0
1, 242183, Note_off_c, 1, 79, 0
1, 242183, Note_off_c, 1, 55, 0
1, 242184, Note_on_c, 1, 58, 127
1, 242184, Note_on_c, 1, 79, 127
1, 242184, Note_on_c, 1, 70, 127
1, 242291, Note_off_c, 1, 58, 0
1, 242292, Note_on_c, 1, 51, 127
1, 242399, Note_off_c, 1, 79, 0
1, 242399, Note_off_c, 1, 70, 0
1, 242399, Note_off_c, 1, 51, 0
1, 242400, Note_on_c, 1, 55, 127
1, 242400, Note_on_c, 1, 70, 127
1, 242400, Note_on_c, 1, 79, 127
1, 242507, Note_off_c, 1, 55, 0
1, 242508, Note_on_c, 1, 58, 127
1, 242615, Note_off_c, 1, 70, 0
1, 242615, Note_off_c, 1, 79, 0
1, 242615, Note_off_c, 1, 58, 0
1, 242616, Note_on_c, 1, 48, 127
1, 242616, Note_on_c, 1, 75, 127
1, 242616, Note_on_c, 1, 79, 127
1, 242723, Note_off_c, 1, 48, 0
1, 242724, Note_on_c, 1, 51, 127
1, 242831, Note_off_c, 1, 75, 0
1, 242831, Note_off_c, 1, 51, 0
1, 242832, Note_on_c, 1, 55, 127
1, 242832, Note_on_c, 1, 74, 127
1, 242939, Note_off_c, 1, 55, 0
1, 243047, Note_off_c, 1, 74, 0
1, 243048, Note_on_c, 1, 72, 127
1, 243263, Note_off_c, 1, 79, 0
1, 243263, Note_off_c, 1, 72, 0
1, 243264, Note_on_c, 1, 45, 127
1, 243264, Note_on_c, 1, 84, 127
1, 243264, Note_on_c, 1, 72, 127
1, 243371, Note_off_c, 1, 45, 0
1, 243372, Note_on_c, 1, 48, 127
1, 243479, Note_off_c, 1, 84, 0
1, 243479, Note_off_c, 1, 48, 0
1, 243480, Note_on_c, 1, 51, 127
1, 243480, Note_on_c, 1, 82, 127
1, 243587, Note_off_c, 1, 51, 0
1, 243695, Note_off_c, 1, 82, 0
1, 243696, Note_on_c, 1, 81, 127
1, 243911, Note_off_c, 1, 81, 0
1, 243912, Note_on_c, 1, 42, 127
1, 244019, Note_off_c, 1, 42, 0
1, 244128, Note_on_c, 1, 79, 127
1, 244343, Note_off_c, 1, 79, 0
1, 244344, Note_on_c, 1, 78, 127
1, 244559, Note_off_c, 1, 78, 0
1, 244560, Note_on_c, 1, 38, 127
1, 244659, Note_off_c, 1, 72, 0
1, 244775, Note_off_c, 1, 38, 0
1, 244776, Note_on_c, 1, 74, 127
1, 244776, Note_on_c, 1, 50, 127
1, 244883, Note_off_c, 1, 74, 0
1, 244884, Note_on_c, 1, 78, 127
1, 244991, Note_off_c, 1, 78, 0
1, 244992, Note_on_c, 1, 72, 127
1, 244992, Note_on_c, 1, 38, 127
1, 245099, Note_off_c, 1, 72, 0
1, 245203, Note_off_c, 1, 50, 0
1, 245206, Note_off_c, 1, 38, 0
1, 245207, Note_on_c, 1, 38, 127
1, 245207, Note_on_c, 1, 70, 127
1, 245315, Note_on_c, 1, 74, 127
1, 245422, Note_off_c, 1, 38, 0
1, 245422, Note_off_c, 1, 74, 0
1, 245423, Note_on_c, 1, 75, 127
1, 245423, Note_on_c, 1, 50, 127
1, 245530, Note_off_c, 1, 75, 0
1, 245531, Note_on_c, 1, 79, 127
1, 245634, Note_off_c, 1, 70, 0
1, 245637, Note_off_c, 1, 50, 0
1, 245637, Note_off_c, 1, 79, 0
1, 245638, Note_on_c, 1, 74, 127
1, 245638, Note_on_c, 1, 38, 127
1, 245745, Note_off_c, 1, 74, 0
1, 245746, Note_on_c, 1, 75, 127
1, 245853, Note_off_c, 1, 38, 0
1, 245853, Note_off_c, 1, 75, 0
1, 245854, Note_on_c, 1, 38, 127
1, 245854, Note_on_c, 1, 72, 127
1, 245962, Note_on_c, 1, 76, 127
1, 246069, Note_off_c, 1, 38, 0
1, 246069, Note_off_c, 1, 76, 0
1, 246070, Note_on_c, 1, 78, 127
1, 246070, Note_on_c, 1, 50, 127
1, 246177, Note_off_c, 1, 78, 0
1, 246178, Note_on_c, 1, 81, 127
1, 246281, Note_off_c, 1, 72, 0
1, 246284, Note_off_c, 1, 50, 0
1, 246284, Note_off_c, 1, 81, 0
1, 246285, Note_on_c, 1, 76, 127
1, 246285, Note_on_c, 1, 38, 127
1, 246392, Note_off_c, 1, 76, 0
1, 246393, Note_on_c, 1, 78, 127
1, 246500, Note_off_c, 1, 38, 0
1, 246500, Note_off_c, 1, 78, 0
1, 246501, Note_on_c, 1, 38, 127
1, 246501, Note_on_c, 1, 74, 127
1, 246609, Note_on_c, 1, 78, 127
1, 246716, Note_off_c, 1, 38, 0
1, 246716, Note_off_c, 1, 78, 0
1, 246717, Note_on_c, 1, 79, 127
1, 246717, Note_on_c, 1, 50, 127
1, 246824, Note_off_c, 1, 79, 0
1, 246825, Note_on_c, 1, 82, 127
1, 246928, Note_off_c, 1, 74, 0
1, 246931, Note_off_c, 1, 50, 0
1, 246931, Note_off_c, 1, 82, 0
1, 246932, Note_on_c, 1, 78, 127
1, 246932, Note_on_c, 1, 38, 127
1, 247039, Note_off_c, 1, 78, 0
1, 247040, Note_on_c, 1, 79, 127
1, 247147, Note_off_c, 1, 38, 0
1, 247147, Note_off_c, 1, 79, 0
1, 247148, Note_on_c, 1, 38, 127
1, 247148, Note_on_c, 1, 76, 127
1, 247256, Note_on_c, 1, 79, 127
1, 247363, Note_off_c, 1, 38, 0
1, 247363, Note_off_c, 1, 79, 0
1, 247364, Note_on_c, 1, 81, 127
1, 247364, Note_on_c, 1, 50, 127
1, 247471, Note_off_c, 1, 81, 0
1, 247472, Note_on_c, 1, 84, 127
1, 247575, Note_off_c, 1, 76, 0
1, 247578, Note_off_c, 1, 50, 0
1, 247578, Note_off_c, 1, 84, 0
1, 247579, Note_on_c, 1, 79, 127
1, 247579, Note_on_c, 1, 38, 127
1, 247686, Note_off_c, 1, 79, 0
1, 247687, Note_on_c, 1, 81, 127
1, 247794, Note_off_c, 1, 38, 0
1, 247794, Note_off_c, 1, 81, 0
1, 247795, Note_on_c, 1, 38, 127
1, 247795, Note_on_c, 1, 78, 127
1, 247903, Note_on_c, 1, 79, 127
1, 248010, Note_off_c, 1, 38, 0
1, 248010, Note_off_c, 1, 79, 0
1, 248011, Note_on_c, 1, 81, 127
1, 248011, Note_on_c, 1, 50, 127
1, 248118, Note_off_c, 1, 81, 0
1, 248119, Note_on_c, 1, 84, 127
1, 248222, Note_off_c, 1, 78, 0
1, 248225, Note_off_c, 1, 50, 0
1, 248225, Note_off_c, 1, 84, 0
1, 248226, Note_on_c, 1, 78, 127
1, 248226, Note_on_c, 1, 38, 127
1, 248333, Note_off_c, 1, 78, 0
1, 248334, Note_on_c, 1, 81, 127
1, 248441, Note_off_c, 1, 38, 0
1, 248441, Note_off_c, 1, 81, 0
1, 248442, Note_on_c, 1, 43, 127
1, 248442, Note_on_c, 1, 82, 127
1, 248549, Note_off_c, 1, 43, 0
1, 248549, Note_off_c, 1, 82, 0
1, 248550, Note_on_c, 1, 45, 127
1, 248550, Note_on_c, 1, 81, 127
1, 248657, Note_off_c, 1, 45, 0
1, 248657, Note_off_c, 1, 81, 0
1, 248658, Note_on_c, 1, 46, 127
1, 248658, Note_on_c, 1, 79, 127
1, 248765, Note_off_c, 1, 46, 0
1, 248765, Note_off_c, 1, 79, 0
1, 248766, Note_on_c, 1, 43, 127
1, 248766, Note_on_c, 1, 77, 127
1, 248873, Note_off_c, 1, 43, 0
1, 248873, Note_off_c, 1, 77, 0
1, 248874, Note_on_c, 1, 45, 127
1, 248874, Note_on_c, 1, 75, 127
1, 248981, Note_off_c, 1, 45, 0
1, 248981, Note_off_c, 1, 75, 0
1, 248982, Note_on_c, 1, 46, 127
1, 248982, Note_on_c, 1, 74, 127
1, 249089, Note_off_c, 1, 46, 0
1, 249089, Note_off_c, 1, 74, 0
1, 249090, Note_on_c, 1, 75, 127
1, 249090, Note_on_c, 1, 48, 127
1, 249197, Note_off_c, 1, 75, 0
1, 249198, Note_on_c, 1, 72, 127
1, 249305, Note_off_c, 1, 48, 0
1, 249305, Note_off_c, 1, 72, 0
1, 249306, Note_on_c, 1, 81, 127
1, 249306, Note_on_c, 1, 46, 127
1, 249413, Note_off_c, 1, 81, 0
1, 249414, Note_on_c, 1, 74, 127
1, 249521, Note_off_c, 1, 46, 0
1, 249521, Note_off_c, 1, 74, 0
1, 249522, Note_on_c, 1, 75, 127
1, 249522, Note_on_c, 1, 45, 127
1, 249629, Note_off_c, 1, 75, 0
1, 249630, Note_on_c, 1, 72, 127
1, 249737, Note_off_c, 1, 45, 0
1, 249737, Note_off_c, 1, 72, 0
1, 249738, Note_on_c, 1, 74, 127
1, 249738, Note_on_c, 1, 46, 127
1, 249845, Note_off_c, 1, 74, 0
1, 249846, Note_on_c, 1, 70, 127
1, 249953, Note_off_c, 1, 46, 0
1, 249953, Note_off_c, 1, 70, 0
1, 249954, Note_on_c, 1, 79, 127
1, 249954, Note_on_c, 1, 45, 127
1, 250061, Note_off_c, 1, 79, 0
1, 250062, Note_on_c, 1, 72, 127
1, 250169, Note_off_c, 1, 45, 0
1, 250169, Note_off_c, 1, 72, 0
1, 250170, Note_on_c, 1, 74, 127
1, 250170, Note_on_c, 1, 43, 127
1, 250277, Note_off_c, 1, 74, 0
1, 250278, Note_on_c, 1, 70, 127
1, 250385, Note_off_c, 1, 43, 0
1, 250385, Note_off_c, 1, 70, 0
1, 250386, Note_on_c, 1, 50, 127
1, 250386, Note_on_c, 1, 72, 127
1, 250493, Note_off_c, 1, 50, 0
1, 250494, Note_on_c, 1, 62, 127
1, 250601, Note_off_c, 1, 62, 0
1, 250602, Note_on_c, 1, 60, 127
1, 250709, Note_off_c, 1, 60, 0
1, 250710, Note_on_c, 1, 58, 127
1, 250817, Note_off_c, 1, 58, 0
1, 250818, Note_on_c, 1, 57, 127
1, 250925, Note_off_c, 1, 57, 0
1, 250926, Note_on_c, 1, 55, 127
1, 251033, Note_off_c, 1, 55, 0
1, 251034, Note_on_c, 1, 54, 127
1, 251066, Note_off_c, 1, 72, 0
1, 251142, Note_on_c, 1, 75, 127
1, 251249, Note_off_c, 1, 54, 0
1, 251249, Note_off_c, 1, 75, 0
1, 251250, Note_on_c, 1, 74, 127
1, 251250, Note_on_c, 1, 55, 127
1, 251357, Note_off_c, 1, 74, 0
1, 251358, Note_on_c, 1, 72, 127
1, 251465, Note_off_c, 1, 55, 0
1, 251465, Note_off_c, 1, 72, 0
1, 251466, Note_on_c, 1, 70, 127
1, 251466, Note_on_c, 1, 57, 127
1, 251573, Note_off_c, 1, 70, 0
1, 251574, Note_on_c, 1, 69, 127
1, 251681, Note_off_c, 1, 57, 0
1, 251681, Note_off_c, 1, 69, 0
1, 251682, Note_on_c, 1, 70, 127
1, 251682, Note_on_c, 1, 55, 127
1, 251789, Note_off_c, 1, 70, 0
1, 251790, Note_on_c, 1, 74, 127
1, 251897, Note_off_c, 1, 55, 0
1, 251897, Note_off_c, 1, 74, 0
1, 251898, Note_on_c, 1, 72, 127
1, 251898, Note_on_c, 1, 57, 127
1, 252005, Note_off_c, 1, 72, 0
1, 252006, Note_on_c, 1, 70, 127
1, 252113, Note_off_c, 1, 57, 0
1, 252113, Note_off_c, 1, 70, 0
1, 252114, Note_on_c, 1, 69, 127
1, 252114, Note_on_c, 1, 58, 127
1, 252221, Note_off_c, 1, 69, 0
1, 252222, Note_on_c, 1, 67, 127
1, 252329, Note_off_c, 1, 58, 0
1, 252329, Note_off_c, 1, 67, 0
1, 252330, Note_on_c, 1, 60, 127
1, 252330, Note_on_c, 1, 66, 127
1, 252437, Note_off_c, 1, 60, 0
1, 252438, Note_on_c, 1, 57, 127
1, 252545, Note_off_c, 1, 57, 0
1, 252546, Note_on_c, 1, 54, 127
1, 252546, Note_on_c, 1, 62, 127
1, 252653, Note_off_c, 1, 54, 0
1, 252654, Note_on_c, 1, 50, 127
1, 252757, Note_off_c, 1, 66, 0
1, 252760, Note_off_c, 1, 50, 0
1, 252761, Note_on_c, 1, 74, 127
1, 252972, Note_off_c, 1, 62, 0
1, 252975, Note_off_c, 1, 74, 0
1, 252976, Note_on_c, 1, 58, 127
1, 252976, Note_on_c, 1, 74, 127
1, 253083, Note_off_c, 1, 58, 0
1, 253084, Note_on_c, 1, 55, 127
1, 253191, Note_off_c, 1, 55, 0
1, 253192, Note_on_c, 1, 52, 127
1, 253192, Note_on_c, 1, 64, 127
1, 253299, Note_off_c, 1, 52, 0
1, 253300, Note_on_c, 1, 49, 127
1, 253403, Note_off_c, 1, 74, 0
1, 253406, Note_off_c, 1, 49, 0
1, 253618, Note_off_c, 1, 64, 0
1, 253622, Note_on_c, 1, 57, 127
1, 253622, Note_on_c, 1, 74, 127
1, 253729, Note_off_c, 1, 57, 0
1, 253730, Note_on_c, 1, 54, 127
1, 253837, Note_off_c, 1, 54, 0
1, 253838, Note_on_c, 1, 51, 127
1, 253838, Note_on_c, 1, 66, 127
1, 253945, Note_off_c, 1, 51, 0
1, 253946, Note_on_c, 1, 48, 127
1, 254049, Note_off_c, 1, 74, 0
1, 254052, Note_off_c, 1, 48, 0
1, 254264, Note_off_c, 1, 66, 0
1, 254268, Note_on_c, 1, 55, 127
1, 254268, Note_on_c, 1, 74, 127
1, 254375, Note_off_c, 1, 55, 0
1, 254376, Note_on_c, 1, 52, 127
1, 254483, Note_off_c, 1, 52, 0
1, 254484, Note_on_c, 1, 49, 127
1, 254484, Note_on_c, 1, 67, 127
1, 254591, Note_off_c, 1, 49, 0
1, 254592, Note_on_c, 1, 46, 127
1, 254695, Note_off_c, 1, 74, 0
1, 254698, Note_off_c, 1, 46, 0
1, 254910, Note_off_c, 1, 67, 0
1, 254914, Note_on_c, 1, 54, 127
1, 254914, Note_on_c, 1, 74, 127
1, 255021, Note_off_c, 1, 54, 0
1, 255022, Note_on_c, 1, 51, 127
1, 255129, Note_off_c, 1, 51, 0
1, 255130, Note_on_c, 1, 48, 127
1, 255130, Note_on_c, 1, 69, 127
1, 255237, Note_off_c, 1, 48, 0
1, 255238, Note_on_c, 1, 45, 127
1, 255341, Note_off_c, 1, 74, 0
1, 255344, Note_off_c, 1, 69, 0
1, 255344, Note_off_c, 1, 45, 0
1, 255345, Note_on_c, 1, 48, 127
1, 255345, Note_on_c, 1, 70, 127
1, 255452, Note_off_c, 1, 48, 0
1, 255453, Note_on_c, 1, 51, 127
1, 255560, Note_off_c, 1, 70, 0
1, 255560, Note_off_c, 1, 51, 0
1, 255561, Note_on_c, 1, 54, 127
1, 255561, Note_on_c, 1, 72, 127
1, 255668, Note_off_c, 1, 54, 0
1, 255668, Note_off_c, 1, 72, 0
1, 255669, Note_on_c, 1, 50, 127
1, 255669, Note_on_c, 1, 70, 127
1, 255776, Note_off_c, 1, 50, 0
1, 255776, Note_off_c, 1, 70, 0
1, 255777, Note_on_c, 1, 54, 127
1, 255777, Note_on_c, 1, 74, 127
1, 255884, Note_off_c, 1, 54, 0
1, 255884, Note_off_c, 1, 74, 0
1, 255885, Note_on_c, 1, 57, 127
1, 255885, Note_on_c, 1, 72, 127
1, 255992, Note_off_c, 1, 57, 0
1, 255992, Note_off_c, 1, 72, 0
1, 255993, Note_on_c, 1, 55, 127
1, 255993, Note_on_c, 1, 70, 127
1, 256100, Note_off_c, 1, 55, 0
1, 256100, Note_off_c, 1, 70, 0
1, 256101, Note_on_c, 1, 54, 127
1, 256101, Note_on_c, 1, 69, 127
1, 256208, Note_off_c, 1, 54, 0
1, 256208, Note_off_c, 1, 69, 0
1, 256209, Note_on_c, 1, 55, 127
1, 256209, Note_on_c, 1, 70, 127
1, 256316, Note_off_c, 1, 55, 0
1, 256317, Note_on_c, 1, 54, 127
1, 256424, Note_off_c, 1, 54, 0
1, 256425, Note_on_c, 1, 74, 127
1, 256533, Note_on_c, 1, 58, 127
1, 256636, Note_off_c, 1, 70, 0
1, 256639, Note_off_c, 1, 58, 0
1, 256856, Note_on_c, 1, 46, 127
1, 256856, Note_on_c, 1, 67, 127
1, 256963, Note_off_c, 1, 46, 0
1, 257071, Note_off_c, 1, 74, 0
1, 257503, Note_off_c, 1, 67, 0
1, 257504, Note_on_c, 1, 48, 127
1, 257611, Note_off_c, 1, 48, 0
1, 258152, Note_on_c, 1, 50, 127
1, 258259, Note_off_c, 1, 50, 0
1, 258800, Note_on_c, 1, 51, 127
1, 258907, Note_off_c, 1, 51, 0
1, 259879, Note_on_c, 1, 54, 127
1, 259879, Note_on_c, 1, 70, 127
1, 259986, Note_off_c, 1, 54, 0
1, 259987, Note_on_c, 1, 55, 127
1, 260094, Note_off_c, 1, 70, 0
1, 260094, Note_off_c, 1, 55, 0
1, 260095, Note_on_c, 1, 67, 127
1, 260095, Note_on_c, 1, 49, 127
1, 260202, Note_off_c, 1, 67, 0
1, 260203, Note_on_c, 1, 69, 127
1, 260310, Note_off_c, 1, 69, 0
1, 260311, Note_on_c, 1, 70, 127
1, 260418, Note_off_c, 1, 70, 0
1, 260419, Note_on_c, 1, 76, 127
1, 260526, Note_off_c, 1, 76, 0
1, 260742, Note_off_c, 1, 49, 0
1, 260743, Note_on_c, 1, 67, 127
1, 260850, Note_off_c, 1, 67, 0
1, 260851, Note_on_c, 1, 69, 127
1, 260958, Note_off_c, 1, 69, 0
1, 260959, Note_on_c, 1, 70, 127
1, 261066, Note_off_c, 1, 70, 0
1, 261067, Note_on_c, 1, 76, 127
1, 261174, Note_off_c, 1, 76, 0
1, 261175, Note_on_c, 1, 69, 127
1, 261282, Note_off_c, 1, 69, 0
1, 261283, Note_on_c, 1, 67, 127
1, 261390, Note_off_c, 1, 67, 0
1, 261391, Note_on_c, 1, 66, 127
1, 261391, Note_on_c, 1, 48, 127
1, 261498, Note_off_c, 1, 66, 0
1, 261499, Note_on_c, 1, 69, 127
1, 261606, Note_off_c, 1, 69, 0
1, 261607, Note_on_c, 1, 72, 127
1, 261714, Note_off_c, 1, 72, 0
1, 261715, Note_on_c, 1, 75, 127
1, 261822, Note_off_c, 1, 75, 0
1, 261823, Note_on_c, 1, 74, 127
1, 261930, Note_off_c, 1, 74, 0
1, 262038, Note_off_c, 1, 48, 0
1, 262053, Note_on_c, 1, 74, 127
1, 262053, Note_on_c, 1, 46, 127
1, 262159, Note_off_c, 1, 74, 0
1, 262159, Note_off_c, 1, 46, 0
1, 262160, Note_on_c, 1, 72, 127
1, 262160, Note_on_c, 1, 50, 127
1, 262265, Note_off_c, 1, 72, 0
1, 262265, Note_off_c, 1, 50, 0
1, 262266, Note_on_c, 1, 70, 127
1, 262266, Note_on_c, 1, 52, 127
1, 262374, Note_off_c, 1, 70, 0
1, 262374, Note_off_c, 1, 52, 0
1, 262375, Note_on_c, 1, 69, 127
1, 262375, Note_on_c, 1, 54, 127
1, 262482, Note_off_c, 1, 69, 0
1, 262482, Note_off_c, 1, 54, 0
1, 262483, Note_on_c, 1, 67, 127
1, 262483, Note_on_c, 1, 55, 127
1, 262590, Note_off_c, 1, 67, 0
1, 262590, Note_off_c, 1, 55, 0
1, 262591, Note_on_c, 1, 65, 127
1, 262591, Note_on_c, 1, 57, 127
1, 262698, Note_off_c, 1, 65, 0
1, 262698, Note_off_c, 1, 57, 0
1, 262699, Note_on_c, 1, 64, 127
1, 262699, Note_on_c, 1, 58, 127
1, 262806, Note_off_c, 1, 64, 0
1, 262807, Note_on_c, 1, 62, 127
1, 262914, Note_off_c, 1, 58, 0
1, 262914, Note_off_c, 1, 62, 0
1, 262915, Note_on_c, 1, 64, 127
1, 262915, Note_on_c, 1, 57, 127
1, 263022, Note_off_c, 1, 64, 0
1, 263023, Note_on_c, 1, 66, 127
1, 263130, Note_off_c, 1, 57, 0
1, 263130, Note_off_c, 1, 66, 0
1, 263131, Note_on_c, 1, 67, 127
1, 263131, Note_on_c, 1, 55, 127
1, 263238, Note_off_c, 1, 67, 0
1, 263239, Note_on_c, 1, 69, 127
1, 263346, Note_off_c, 1, 55, 0
1, 263346, Note_off_c, 1, 69, 0
1, 263347, Note_on_c, 1, 66, 127
1, 263347, Note_on_c, 1, 57, 127
1, 263454, Note_off_c, 1, 66, 0
1, 263455, Note_on_c, 1, 64, 127
1, 263562, Note_off_c, 1, 57, 0
1, 263562, Note_off_c, 1, 64, 0
1, 263563, Note_on_c, 1, 66, 127
1, 263563, Note_on_c, 1, 55, 127
1, 263670, Note_off_c, 1, 66, 0
1, 263671, Note_on_c, 1, 67, 127
1, 263778, Note_off_c, 1, 55, 0
1, 263778, Note_off_c, 1, 67, 0
1, 263779, Note_on_c, 1, 69, 127
1, 263779, Note_on_c, 1, 54, 127
1, 263886, Note_off_c, 1, 69, 0
1, 263887, Note_on_c, 1, 60, 127
1, 263994, Note_off_c, 1, 54, 0
1, 263994, Note_off_c, 1, 60, 0
1, 263995, Note_on_c, 1, 58, 127
1, 263995, Note_on_c, 1, 55, 127
1, 264103, Note_on_c, 1, 74, 127
1, 264210, Note_off_c, 1, 74, 0
1, 264211, Note_on_c, 1, 76, 127
1, 264318, Note_off_c, 1, 76, 0
1, 264319, Note_on_c, 1, 78, 127
1, 264426, Note_off_c, 1, 58, 0
1, 264426, Note_off_c, 1, 55, 0
1, 264426, Note_off_c, 1, 78, 0
1, 264427, Note_on_c, 1, 79, 127
1, 264427, Note_on_c, 1, 53, 127
1, 264427, Note_on_c, 1, 57, 127
1, 264534, Note_off_c, 1, 79, 0
1, 264535, Note_on_c, 1, 81, 127
1, 264642, Note_off_c, 1, 53, 0
1, 264642, Note_off_c, 1, 57, 0
1, 264642, Note_off_c, 1, 81, 0
1, 264643, Note_on_c, 1, 82, 127
1, 264643, Note_on_c, 1, 55, 127
1, 264643, Note_on_c, 1, 51, 127
1, 264858, Note_off_c, 1, 82, 0
1, 264858, Note_off_c, 1, 55, 0
1, 264859, Note_on_c, 1, 81, 127
1, 264859, Note_on_c, 1, 57, 127
1, 265070, Note_off_c, 1, 51, 0
1, 265073, Note_off_c, 1, 81, 0
1, 265073, Note_off_c, 1, 57, 0
1, 265074, Note_on_c, 1, 79, 127
1, 265074, Note_on_c, 1, 58, 127
1, 265074, Note_on_c, 1, 50, 127
1, 265289, Note_off_c, 1, 79, 0
1, 265289, Note_off_c, 1, 58, 0
1, 265289, Note_off_c, 1, 50, 0
1, 265290, Note_on_c, 1, 81, 127
1, 265290, Note_on_c, 1, 60, 127
1, 265290, Note_on_c, 1, 48, 127
1, 265505, Note_off_c, 1, 81, 0
1, 265505, Note_off_c, 1, 60, 0
1, 265506, Note_on_c, 1, 82, 127
1, 265506, Note_on_c, 1, 58, 127
1, 265613, Note_off_c, 1, 82, 0
1, 265717, Note_off_c, 1, 48, 0
1, 265720, Note_off_c, 1, 58, 0
1, 265721, Note_on_c, 1, 79, 127
1, 265721, Note_on_c, 1, 50, 127
1, 265721, Note_on_c, 1, 57, 127
1, 265828, Note_off_c, 1, 79, 0
1, 265829, Note_on_c, 1, 78, 127
1, 265936, Note_off_c, 1, 50, 0
1, 265936, Note_off_c, 1, 57, 0
1, 265936, Note_off_c, 1, 78, 0
1, 265937, Note_on_c, 1, 79, 127
1, 265937, Note_on_c, 1, 51, 127
1, 265937, Note_on_c, 1, 55, 127
1, 266044, Note_off_c, 1, 79, 0
1, 266045, Note_on_c, 1, 77, 127
1, 266152, Note_off_c, 1, 77, 0
1, 266153, Note_on_c, 1, 75, 127
1, 266260, Note_off_c, 1, 75, 0
1, 266261, Note_on_c, 1, 74, 127
1, 266368, Note_off_c, 1, 74, 0
1, 266369, Note_on_c, 1, 72, 127
1, 266476, Note_off_c, 1, 72, 0
1, 266477, Note_on_c, 1, 71, 127
1, 266584, Note_off_c, 1, 71, 0
1, 266800, Note_off_c, 1, 51, 0
1, 266801, Note_on_c, 1, 50, 127
1, 267016, Note_off_c, 1, 50, 0
1, 267017, Note_on_c, 1, 48, 127
1, 267232, Note_off_c, 1, 48, 0
1, 267233, Note_on_c, 1, 70, 127
1, 267448, Note_off_c, 1, 70, 0
1, 267658, Note_off_c, 1, 55, 0
1, 267665, Note_on_c, 1, 69, 127
1, 267665, Note_on_c, 1, 50, 127
1, 267665, Note_on_c, 1, 54, 127
1, 267772, Note_off_c, 1, 69, 0
1, 267773, Note_on_c, 1, 70, 127
1, 267880, Note_off_c, 1, 50, 0
1, 267880, Note_off_c, 1, 54, 0
1, 267880, Note_off_c, 1, 70, 0
1, 267881, Note_on_c, 1, 67, 127
1, 267881, Note_on_c, 1, 55, 127
1, 267881, Note_on_c, 1, 43, 127
1, 268096, Note_off_c, 1, 67, 0
1, 268113, Note_on_c, 1, 70, 127
1, 268328, Note_off_c, 1, 70, 0
1, 268528, Note_off_c, 1, 55, 0
1, 268528, Note_off_c, 1, 43, 0
1, 268545, Note_on_c, 1, 70, 127
1, 268760, Note_off_c, 1, 70, 0
1, 268761, Note_on_c, 1, 70, 127
1, 268976, Note_off_c, 1, 70, 0
1, 268977, Note_on_c, 1, 55, 127
1, 268977, Note_on_c, 1, 62, 127
1, 268977, Note_on_c, 1, 70, 127
1, 269192, Note_off_c, 1, 55, 0
1, 269192, Note_off_c, 1, 62, 0
1, 269192, Note_off_c, 1, 70, 0
1, 269193, Note_on_c, 1, 76, 127
1, 269193, Note_on_c, 1, 60, 127
1, 269193, Note_on_c, 1, 58, 127
1, 269300, Note_off_c, 1, 76, 0
1, 269301, Note_on_c, 1, 77, 127
1, 269408, Note_off_c, 1, 60, 0
1, 269408, Note_off_c, 1, 58, 0
1, 269408, Note_off_c, 1, 77, 0
1, 269409, Note_on_c, 1, 79, 127
1, 269409, Note_on_c, 1, 57, 127
1, 269409, Note_on_c, 1, 62, 127
1, 269516, Note_off_c, 1, 79, 0
1, 269517, Note_on_c, 1, 76, 127
1, 269624, Note_off_c, 1, 57, 0
1, 269624, Note_off_c, 1, 62, 0
1, 269624, Note_off_c, 1, 76, 0
1, 269625, Note_on_c, 1, 77, 127
1, 269625, Note_on_c, 1, 58, 127
1, 269625, Note_on_c, 1, 64, 127
1, 269625, Note_on_c, 1, 55, 127
1, 269732, Note_off_c, 1, 77, 0
1, 269733, Note_on_c, 1, 79, 127
1, 269840, Note_off_c, 1, 58, 0
1, 269840, Note_off_c, 1, 64, 0
1, 269840, Note_off_c, 1, 55, 0
1, 269840, Note_off_c, 1, 79, 0
1, 269841, Note_on_c, 1, 69, 127
1, 269841, Note_on_c, 1, 53, 127
1, 269841, Note_on_c, 1, 65, 127
1, 269841, Note_on_c, 1, 60, 127
1, 270056, Note_off_c, 1, 69, 0
1, 270488, Note_off_c, 1, 53, 0
1, 270488, Note_off_c, 1, 65, 0
1, 270488, Note_off_c, 1, 60, 0
1, 270489, Note_on_c, 1, 69, 127
1, 270704, Note_off_c, 1, 69, 0
1, 270705, Note_on_c, 1, 69, 127
1, 270920, Note_off_c, 1, 69, 0
1, 270921, Note_on_c, 1, 61, 127
1, 270921, Note_on_c, 1, 64, 127
1, 270921, Note_on_c, 1, 57, 127
1, 270921, Note_on_c, 1, 67, 127
1, 270921, Note_on_c, 1, 69, 127
1, 271136, Note_off_c, 1, 61, 0
1, 271136, Note_off_c, 1, 64, 0
1, 271136, Note_off_c, 1, 57, 0
1, 271136, Note_off_c, 1, 67, 0
1, 271136, Note_off_c, 1, 69, 0
1, 271137, Note_on_c, 1, 74, 127
1, 271137, Note_on_c, 1, 65, 127
1, 271137, Note_on_c, 1, 58, 127
1, 271137, Note_on_c, 1, 62, 127
1, 271244, Note_off_c, 1, 74, 0
1, 271245, Note_on_c, 1, 76, 127
1, 271352, Note_off_c, 1, 76, 0
1, 271353, Note_on_c, 1, 77, 127
1, 271460, Note_off_c, 1, 77, 0
1, 271564, Note_off_c, 1, 65, 0
1, 271567, Note_off_c, 1, 58, 0
1, 271568, Note_on_c, 1, 60, 127
1, 271783, Note_off_c, 1, 60, 0
1, 271784, Note_on_c, 1, 79, 127
1, 271891, Note_off_c, 1, 79, 0
1, 271892, Note_on_c, 1, 81, 127
1, 271999, Note_off_c, 1, 81, 0
1, 272000, Note_on_c, 1, 82, 127
1, 272107, Note_off_c, 1, 82, 0
1, 272216, Note_off_c, 1, 62, 0
1, 272216, Note_on_c, 1, 57, 127
1, 272431, Note_off_c, 1, 57, 0
1, 272432, Note_on_c, 1, 76, 127
1, 272432, Note_on_c, 1, 55, 127
1, 272432, Note_on_c, 1, 58, 127
1, 272539, Note_off_c, 1, 76, 0
1, 272540, Note_on_c, 1, 77, 127
1, 272647, Note_off_c, 1, 77, 0
1, 272648, Note_on_c, 1, 79, 127
1, 272755, Note_off_c, 1, 79, 0
1, 272863, Note_off_c, 1, 55, 0
1, 272863, Note_off_c, 1, 58, 0
1, 272864, Note_on_c, 1, 77, 127
1, 272864, Note_on_c, 1, 57, 127
1, 272864, Note_on_c, 1, 53, 127
1, 272971, Note_off_c, 1, 77, 0
1, 272972, Note_on_c, 1, 79, 127
1, 273079, Note_off_c, 1, 57, 0
1, 273079, Note_off_c, 1, 53, 0
1, 273079, Note_off_c, 1, 79, 0
1, 273080, Note_on_c, 1, 73, 127
1, 273080, Note_on_c, 1, 52, 127
1, 273080, Note_on_c, 1, 55, 127
1, 273187, Note_off_c, 1, 73, 0
1, 273188, Note_on_c, 1, 74, 127
1, 273295, Note_off_c, 1, 74, 0
1, 273296, Note_on_c, 1, 76, 127
1, 273403, Note_off_c, 1, 76, 0
1, 273511, Note_off_c, 1, 52, 0
1, 273512, Note_on_c, 1, 50, 127
1, 273727, Note_off_c, 1, 50, 0
1, 273728, Note_on_c, 1, 49, 127
1, 273728, Note_on_c, 1, 69, 127
1, 273834, Note_off_c, 1, 55, 0
1, 273944, Note_on_c, 1, 53, 127
1, 274051, Note_off_c, 1, 53, 0
1, 274375, Note_off_c, 1, 49, 0
1, 274483, Note_off_c, 1, 69, 0
1, 274592, Note_on_c, 1, 71, 127
1, 274699, Note_off_c, 1, 71, 0
1, 274808, Note_on_c, 1, 48, 127
1, 275023, Note_off_c, 1, 48, 0
1, 275024, Note_on_c, 1, 77, 127
1, 275024, Note_on_c, 1, 46, 127
1, 275131, Note_off_c, 1, 77, 0
1, 275240, Note_on_c, 1, 79, 127
1, 275347, Note_off_c, 1, 79, 0
1, 275671, Note_off_c, 1, 46, 0
1, 275672, Note_on_c, 1, 45, 127
1, 275672, Note_on_c, 1, 73, 127
1, 275779, Note_on_c, 1, 57, 127
1, 275884, Note_off_c, 1, 45, 0
1, 275885, Note_off_c, 1, 57, 0
1, 275886, Note_on_c, 1, 59, 127
1, 275992, Note_off_c, 1, 59, 0
1, 275993, Note_on_c, 1, 61, 127
1, 276095, Note_off_c, 1, 73, 0
1, 276098, Note_off_c, 1, 61, 0
1, 276099, Note_on_c, 1, 62, 127
1, 276205, Note_off_c, 1, 62, 0
1, 276206, Note_on_c, 1, 64, 127
1, 276312, Note_off_c, 1, 64, 0
1, 276313, Note_on_c, 1, 65, 127
1, 276526, Note_off_c, 1, 65, 0
1, 276527, Note_on_c, 1, 64, 127
1, 276740, Note_off_c, 1, 64, 0
1, 276741, Note_on_c, 1, 62, 127
1, 276954, Note_off_c, 1, 62, 0
1, 276955, Note_on_c, 1, 64, 127
1, 277168, Note_off_c, 1, 64, 0
1, 277169, Note_on_c, 1, 62, 127
1, 277382, Note_off_c, 1, 62, 0
1, 277383, Note_on_c, 1, 61, 127
1, 277596, Note_off_c, 1, 61, 0
1, 277597, Note_on_c, 1, 62, 127
1, 277704, Note_on_c, 1, 50, 127
1, 277810, Note_off_c, 1, 50, 0
1, 277811, Note_on_c, 1, 52, 127
1, 277917, Note_off_c, 1, 52, 0
1, 277918, Note_on_c, 1, 54, 127
1, 278024, Note_off_c, 1, 54, 0
1, 278025, Note_on_c, 1, 55, 127
1, 278131, Note_off_c, 1, 55, 0
1, 278132, Note_on_c, 1, 57, 127
1, 278238, Note_off_c, 1, 57, 0
1, 278239, Note_on_c, 1, 58, 127
1, 278452, Note_off_c, 1, 58, 0
1, 278666, Note_off_c, 1, 62, 0
1, 278667, Note_on_c, 1, 55, 127
1, 278667, Note_on_c, 1, 70, 127
1, 278880, Note_off_c, 1, 55, 0
1, 278880, Note_off_c, 1, 70, 0
1, 278881, Note_on_c, 1, 57, 127
1, 278881, Note_on_c, 1, 60, 127
1, 279094, Note_off_c, 1, 57, 0
1, 279095, Note_on_c, 1, 55, 127
1, 279308, Note_off_c, 1, 60, 0
1, 279308, Note_off_c, 1, 55, 0
1, 279309, Note_on_c, 1, 54, 127
1, 279309, Note_on_c, 1, 69, 127
1, 279522, Note_off_c, 1, 54, 0
1, 279522, Note_off_c, 1, 69, 0
1, 279523, Note_on_c, 1, 58, 127
1, 279523, Note_on_c, 1, 55, 127
1, 279629, Note_off_c, 1, 58, 0
1, 279630, Note_on_c, 1, 62, 127
1, 279736, Note_off_c, 1, 62, 0
1, 279737, Note_on_c, 1, 64, 127
1, 279843, Note_off_c, 1, 64, 0
1, 279844, Note_on_c, 1, 65, 127
1, 279950, Note_off_c, 1, 65, 0
1, 280165, Note_on_c, 1, 67, 127
1, 280271, Note_off_c, 1, 55, 0
1, 280272, Note_on_c, 1, 52, 127
1, 280378, Note_off_c, 1, 52, 0
1, 280379, Note_on_c, 1, 50, 127
1, 280485, Note_off_c, 1, 50, 0
1, 280486, Note_on_c, 1, 49, 127
1, 280592, Note_off_c, 1, 49, 0
1, 280807, Note_on_c, 1, 53, 127
1, 280913, Note_off_c, 1, 67, 0
1, 280914, Note_on_c, 1, 57, 127
1, 281020, Note_off_c, 1, 57, 0
1, 281021, Note_on_c, 1, 59, 127
1, 281127, Note_off_c, 1, 59, 0
1, 281128, Note_on_c, 1, 61, 127
1, 281234, Note_off_c, 1, 61, 0
1, 281556, Note_on_c, 1, 69, 127
1, 281662, Note_off_c, 1, 69, 0
1, 281663, Note_on_c, 1, 71, 127
1, 281769, Note_off_c, 1, 71, 0
1, 281770, Note_on_c, 1, 73, 127
1, 281876, Note_off_c, 1, 73, 0
1, 281877, Note_on_c, 1, 74, 127
1, 281983, Note_off_c, 1, 74, 0
1, 281984, Note_on_c, 1, 76, 127
1, 282090, Note_off_c, 1, 76, 0
1, 282091, Note_on_c, 1, 77, 127
1, 282304, Note_off_c, 1, 77, 0
1, 282518, Note_off_c, 1, 53, 0
1, 282519, Note_on_c, 1, 58, 127
1, 282519, Note_on_c, 1, 65, 127
1, 282519, Note_on_c, 1, 74, 127
1, 282732, Note_off_c, 1, 58, 0
1, 282732, Note_off_c, 1, 65, 0
1, 282732, Note_off_c, 1, 74, 0
1, 282733, Note_on_c, 1, 67, 127
1, 282733, Note_on_c, 1, 76, 127
1, 282733, Note_on_c, 1, 55, 127
1, 282946, Note_off_c, 1, 67, 0
1, 282946, Note_off_c, 1, 76, 0
1, 282947, Note_on_c, 1, 65, 127
1, 282947, Note_on_c, 1, 74, 127
1, 283160, Note_off_c, 1, 55, 0
1, 283160, Note_off_c, 1, 65, 0
1, 283160, Note_off_c, 1, 74, 0
1, 283161, Note_on_c, 1, 57, 127
1, 283161, Note_on_c, 1, 64, 127
1, 283161, Note_on_c, 1, 73, 127
1, 283374, Note_off_c, 1, 57, 0
1, 283374, Note_off_c, 1, 64, 0
1, 283374, Note_off_c, 1, 73, 0
1, 283375, Note_on_c, 1, 74, 127
1, 283375, Note_on_c, 1, 62, 127
1, 283375, Note_on_c, 1, 58, 127
1, 283481, Note_off_c, 1, 74, 0
1, 283482, Note_on_c, 1, 72, 127
1, 283588, Note_off_c, 1, 72, 0
1, 283589, Note_on_c, 1, 70, 127
1, 283695, Note_off_c, 1, 70, 0
1, 283696, Note_on_c, 1, 69, 127
1, 283802, Note_off_c, 1, 69, 0
1, 283803, Note_on_c, 1, 67, 127
1, 283909, Note_off_c, 1, 67, 0
1, 283910, Note_on_c, 1, 65, 127
1, 284016, Note_off_c, 1, 62, 0
1, 284016, Note_off_c, 1, 65, 0
1, 284017, Note_on_c, 1, 64, 127
1, 284017, Note_on_c, 1, 60, 127
1, 284123, Note_off_c, 1, 64, 0
1, 284657, Note_off_c, 1, 58, 0
1, 284659, Note_on_c, 1, 57, 127
1, 285299, Note_off_c, 1, 60, 0
1, 285941, Note_off_c, 1, 57, 0
1, 285943, Note_on_c, 1, 55, 127
1, 286370, Note_off_c, 1, 55, 0
1, 286371, Note_on_c, 1, 53, 127
1, 286584, Note_off_c, 1, 53, 0
1, 286585, Note_on_c, 1, 52, 127
1, 287226, Note_off_c, 1, 52, 0
1, 288511, Note_on_c, 1, 50, 127
1, 289152, Note_off_c, 1, 50, 0
1, 289153, Note_on_c, 1, 48, 127
1, 289793, Note_off_c, 1, 48, 0
1, 289794, Note_on_c, 1, 60, 127
1, 289794, Note_on_c, 1, 55, 127
1, 289794, Note_on_c, 1, 46, 127
1, 289900, Note_off_c, 1, 60, 0
1, 289901, Note_on_c, 1, 64, 127
1, 290007, Note_off_c, 1, 64, 0
1, 290008, Note_on_c, 1, 65, 127
1, 290114, Note_off_c, 1, 65, 0
1, 290115, Note_on_c, 1, 69, 127
1, 290221, Note_off_c, 1, 69, 0
1, 290435, Note_off_c, 1, 55, 0
1, 290435, Note_off_c, 1, 46, 0
1, 290436, Note_on_c, 1, 60, 127
1, 290436, Note_on_c, 1, 45, 127
1, 290436, Note_on_c, 1, 53, 127
1, 290542, Note_off_c, 1, 60, 0
1, 290543, Note_on_c, 1, 64, 127
1, 290649, Note_off_c, 1, 64, 0
1, 290650, Note_on_c, 1, 65, 127
1, 290756, Note_off_c, 1, 65, 0
1, 290757, Note_on_c, 1, 69, 127
1, 290863, Note_off_c, 1, 69, 0
1, 291077, Note_off_c, 1, 45, 0
1, 291078, Note_on_c, 1, 62, 127
1, 291078, Note_on_c, 1, 46, 127
1, 291183, Note_off_c, 1, 53, 0
1, 291291, Note_off_c, 1, 62, 0
1, 291292, Note_on_c, 1, 55, 127
1, 291398, Note_off_c, 1, 55, 0
1, 291399, Note_on_c, 1, 57, 127
1, 291501, Note_off_c, 1, 46, 0
1, 291504, Note_off_c, 1, 57, 0
1, 291505, Note_on_c, 1, 58, 127
1, 291505, Note_on_c, 1, 67, 127
1, 291611, Note_off_c, 1, 58, 0
1, 291611, Note_off_c, 1, 67, 0
1, 291612, Note_on_c, 1, 60, 127
1, 291612, Note_on_c, 1, 69, 127
1, 291718, Note_off_c, 1, 60, 0
1, 291718, Note_off_c, 1, 69, 0
1, 291719, Note_on_c, 1, 62, 127
1, 291719, Note_on_c, 1, 70, 127
1, 291932, Note_off_c, 1, 62, 0
1, 291932, Note_off_c, 1, 70, 0
1, 291933, Note_on_c, 1, 60, 127
1, 291933, Note_on_c, 1, 69, 127
1, 292146, Note_off_c, 1, 60, 0
1, 292146, Note_off_c, 1, 69, 0
1, 292147, Note_on_c, 1, 58, 127
1, 292147, Note_on_c, 1, 67, 127
1, 292360, Note_off_c, 1, 58, 0
1, 292360, Note_off_c, 1, 67, 0
1, 292361, Note_on_c, 1, 60, 127
1, 292361, Note_on_c, 1, 69, 127
1, 292574, Note_off_c, 1, 60, 0
1, 292574, Note_off_c, 1, 69, 0
1, 292575, Note_on_c, 1, 58, 127
1, 292575, Note_on_c, 1, 67, 127
1, 292788, Note_off_c, 1, 58, 0
1, 292788, Note_off_c, 1, 67, 0
1, 292789, Note_on_c, 1, 57, 127
1, 292789, Note_on_c, 1, 65, 127
1, 293002, Note_off_c, 1, 57, 0
1, 293002, Note_off_c, 1, 65, 0
1, 293003, Note_on_c, 1, 55, 127
1, 293003, Note_on_c, 1, 72, 127
1, 293003, Note_on_c, 1, 64, 127
1, 293110, Note_on_c, 1, 46, 127
1, 293216, Note_off_c, 1, 46, 0
1, 293217, Note_on_c, 1, 48, 127
1, 293323, Note_off_c, 1, 48, 0
1, 293324, Note_on_c, 1, 50, 127
1, 293426, Note_off_c, 1, 55, 0
1, 293429, Note_off_c, 1, 72, 0
1, 293429, Note_off_c, 1, 64, 0
1, 293429, Note_off_c, 1, 50, 0
1, 293430, Note_on_c, 1, 48, 127
1, 293430, Note_on_c, 1, 55, 127
1, 293430, Note_on_c, 1, 64, 127
1, 293430, Note_on_c, 1, 60, 127
1, 293536, Note_off_c, 1, 48, 0
1, 293537, Note_on_c, 1, 46, 127
1, 293642, Note_off_c, 1, 55, 0
1, 293643, Note_off_c, 1, 64, 0
1, 293643, Note_off_c, 1, 60, 0
1, 293643, Note_off_c, 1, 46, 0
1, 293644, Note_on_c, 1, 45, 127
1, 293644, Note_on_c, 1, 60, 127
1, 293644, Note_on_c, 1, 65, 127
1, 293644, Note_on_c, 1, 53, 127
1, 293857, Note_off_c, 1, 45, 0
1, 293858, Note_on_c, 1, 48, 127
1, 294071, Note_off_c, 1, 60, 0
1, 294071, Note_off_c, 1, 65, 0
1, 294071, Note_off_c, 1, 48, 0
1, 294072, Note_on_c, 1, 46, 127
1, 294072, Note_on_c, 1, 62, 127
1, 294072, Note_on_c, 1, 67, 127
1, 294285, Note_off_c, 1, 46, 0
1, 294285, Note_off_c, 1, 62, 0
1, 294285, Note_off_c, 1, 67, 0
1, 294286, Note_on_c, 1, 69, 127
1, 294356, Note_off_c, 1, 69, 0
1, 294498, Note_off_c, 1, 53, 0
1, 294712, Note_on_c, 1, 52, 127
1, 294924, Note_off_c, 1, 52, 0
1, 294925, Note_on_c, 1, 53, 127
1, 294925, Note_on_c, 1, 41, 127
1, 294925, Note_on_c, 1, 65, 127
1, 294925, Note_on_c, 1, 60, 127
1, 294925, Note_on_c, 1, 57, 127
1, 295031, Note_off_c, 1, 53, 0
1, 295032, Note_on_c, 1, 48, 127
1, 295137, Note_off_c, 1, 41, 0
1, 295138, Note_off_c, 1, 48, 0
1, 295139, Note_on_c, 1, 50, 127
1, 295245, Note_off_c, 1, 50, 0
1, 295246, Note_on_c, 1, 52, 127
1, 295352, Note_off_c, 1, 52, 0
1, 295460, Note_on_c, 1, 55, 127
1, 295566, Note_off_c, 1, 65, 0
1, 295566, Note_off_c, 1, 60, 0
1, 295566, Note_off_c, 1, 57, 0
1, 295566, Note_off_c, 1, 55, 0
1, 295567, Note_on_c, 1, 57, 127
1, 295674, Note_on_c, 1, 62, 127
1, 295780, Note_off_c, 1, 57, 0
1, 295780, Note_off_c, 1, 62, 0
1, 295781, Note_on_c, 1, 64, 127
1, 295781, Note_on_c, 1, 55, 127
1, 295887, Note_off_c, 1, 64, 0
1, 295888, Note_on_c, 1, 65, 127
1, 295994, Note_off_c, 1, 55, 0
1, 295994, Note_off_c, 1, 65, 0
1, 295995, Note_on_c, 1, 67, 127
1, 295995, Note_on_c, 1, 53, 127
1, 296101, Note_off_c, 1, 67, 0
1, 296102, Note_on_c, 1, 69, 127
1, 296208, Note_off_c, 1, 53, 0
1, 296208, Note_off_c, 1, 69, 0
1, 296209, Note_on_c, 1, 58, 127
1, 296209, Note_on_c, 1, 55, 127
1, 296315, Note_off_c, 1, 58, 0
1, 296316, Note_on_c, 1, 60, 127
1, 296422, Note_off_c, 1, 55, 0
1, 296422, Note_off_c, 1, 60, 0
1, 296423, Note_on_c, 1, 62, 127
1, 296423, Note_on_c, 1, 53, 127
1, 296529, Note_off_c, 1, 62, 0
1, 296530, Note_on_c, 1, 64, 127
1, 296636, Note_off_c, 1, 53, 0
1, 296636, Note_off_c, 1, 64, 0
1, 296637, Note_on_c, 1, 65, 127
1, 296637, Note_on_c, 1, 52, 127
1, 296743, Note_off_c, 1, 65, 0
1, 296744, Note_on_c, 1, 67, 127
1, 296850, Note_off_c, 1, 52, 0
1, 296850, Note_off_c, 1, 67, 0
1, 296851, Note_on_c, 1, 53, 127
1, 296851, Note_on_c, 1, 57, 127
1, 296958, Note_on_c, 1, 77, 127
1, 297064, Note_off_c, 1, 77, 0
1, 297065, Note_on_c, 1, 76, 127
1, 297171, Note_off_c, 1, 76, 0
1, 297172, Note_on_c, 1, 74, 127
1, 297278, Note_off_c, 1, 74, 0
1, 297279, Note_on_c, 1, 72, 127
1, 297385, Note_off_c, 1, 72, 0
1, 297386, Note_on_c, 1, 70, 127
1, 297492, Note_off_c, 1, 70, 0
1, 297493, Note_on_c, 1, 69, 127
1, 297599, Note_off_c, 1, 53, 0
1, 297600, Note_on_c, 1, 52, 127
1, 297706, Note_off_c, 1, 69, 0
1, 297706, Note_off_c, 1, 52, 0
1, 297707, Note_on_c, 1, 71, 127
1, 297809, Note_off_c, 1, 57, 0
1, 297813, Note_on_c, 1, 55, 127
1, 297919, Note_off_c, 1, 71, 0
1, 297919, Note_off_c, 1, 55, 0
1, 297920, Note_on_c, 1, 72, 127
1, 297920, Note_on_c, 1, 53, 127
1, 298027, Note_on_c, 1, 52, 127
1, 298133, Note_off_c, 1, 72, 0
1, 298133, Note_off_c, 1, 52, 0
1, 298134, Note_on_c, 1, 50, 127
1, 298134, Note_on_c, 1, 71, 127
1, 298343, Note_off_c, 1, 53, 0
1, 298346, Note_off_c, 1, 50, 0
1, 298346, Note_off_c, 1, 71, 0
1, 298347, Note_on_c, 1, 52, 127
1, 298347, Note_on_c, 1, 55, 127
1, 298347, Note_on_c, 1, 72, 127
1, 298560, Note_off_c, 1, 52, 0
1, 298560, Note_off_c, 1, 55, 0
1, 298560, Note_off_c, 1, 72, 0
1, 298561, Note_on_c, 1, 57, 127
1, 298561, Note_on_c, 1, 53, 127
1, 298561, Note_on_c, 1, 74, 127
1, 298774, Note_off_c, 1, 57, 0
1, 298774, Note_off_c, 1, 53, 0
1, 298774, Note_off_c, 1, 74, 0
1, 298775, Note_on_c, 1, 55, 127
1, 298775, Note_on_c, 1, 52, 127
1, 298775, Note_on_c, 1, 72, 127
1, 298882, Note_on_c, 1, 69, 127
1, 298988, Note_off_c, 1, 69, 0
1, 298989, Note_on_c, 1, 67, 127
1, 299095, Note_off_c, 1, 67, 0
1, 299096, Note_on_c, 1, 65, 127
1, 299202, Note_off_c, 1, 65, 0
1, 299203, Note_on_c, 1, 64, 127
1, 299309, Note_off_c, 1, 64, 0
1, 299310, Note_on_c, 1, 62, 127
1, 299416, Note_off_c, 1, 55, 0
1, 299416, Note_off_c, 1, 62, 0
1, 299417, Note_on_c, 1, 60, 127
1, 299630, Note_off_c, 1, 52, 0
1, 299630, Note_off_c, 1, 60, 0
1, 299631, Note_on_c, 1, 53, 127
1, 299738, Note_on_c, 1, 57, 127
1, 299843, Note_off_c, 1, 53, 0
1, 299894, Note_off_c, 1, 57, 0
1, 299952, Note_on_c, 1, 58, 127
1, 300058, Note_off_c, 1, 58, 0
1, 301771, Note_on_c, 1, 63, 127
1, 301984, Note_off_c, 1, 63, 0
1, 301985, Note_on_c, 1, 54, 127
1, 302404, Note_off_c, 1, 72, 0
1, 302626, Note_off_c, 1, 54, 0
1, 302627, Note_on_c, 1, 71, 127
1, 302733, Note_off_c, 1, 71, 0
1, 303055, Note_on_c, 1, 74, 127
1, 303161, Note_off_c, 1, 74, 0
1, 303162, Note_on_c, 1, 76, 127
1, 303268, Note_off_c, 1, 76, 0
1, 303269, Note_on_c, 1, 77, 127
1, 303376, Note_on_c, 1, 59, 127
1, 303482, Note_off_c, 1, 77, 0
1, 303482, Note_off_c, 1, 59, 0
1, 303483, Note_on_c, 1, 60, 127
1, 303483, Note_on_c, 1, 76, 127
1, 303589, Note_off_c, 1, 60, 0
1, 303590, Note_on_c, 1, 62, 127
1, 303696, Note_off_c, 1, 76, 0
1, 303696, Note_off_c, 1, 62, 0
1, 303697, Note_on_c, 1, 64, 127
1, 303697, Note_on_c, 1, 74, 127
1, 303803, Note_off_c, 1, 64, 0
1, 303804, Note_on_c, 1, 65, 127
1, 303910, Note_off_c, 1, 74, 0
1, 303910, Note_off_c, 1, 65, 0
1, 303911, Note_on_c, 1, 76, 127
1, 303911, Note_on_c, 1, 67, 127
1, 304017, Note_off_c, 1, 76, 0
1, 304018, Note_on_c, 1, 72, 127
1, 304124, Note_off_c, 1, 67, 0
1, 304124, Note_off_c, 1, 72, 0
1, 304125, Note_on_c, 1, 74, 127
1, 304125, Note_on_c, 1, 65, 127
1, 304231, Note_off_c, 1, 74, 0
1, 304232, Note_on_c, 1, 76, 127
1, 304338, Note_off_c, 1, 65, 0
1, 304338, Note_off_c, 1, 76, 0
1, 304339, Note_on_c, 1, 77, 127
1, 304339, Note_on_c, 1, 64, 127
1, 304445, Note_off_c, 1, 77, 0
1, 304446, Note_on_c, 1, 79, 127
1, 304552, Note_off_c, 1, 64, 0
1, 304552, Note_off_c, 1, 79, 0
1, 304553, Note_on_c, 1, 81, 127
1, 304553, Note_on_c, 1, 65, 127
1, 304659, Note_off_c, 1, 81, 0
1, 304660, Note_on_c, 1, 77, 127
1, 304766, Note_off_c, 1, 77, 0
1, 304767, Note_on_c, 1, 76, 127
1, 304767, Note_on_c, 1, 55, 127
1, 304873, Note_off_c, 1, 76, 0
1, 304874, Note_on_c, 1, 74, 127
1, 304976, Note_off_c, 1, 65, 0
1, 304979, Note_off_c, 1, 74, 0
1, 305189, Note_off_c, 1, 55, 0
1, 305193, Note_on_c, 1, 79, 127
1, 305193, Note_on_c, 1, 64, 127
1, 305299, Note_off_c, 1, 79, 0
1, 305300, Note_on_c, 1, 76, 127
1, 305406, Note_off_c, 1, 76, 0
1, 305407, Note_on_c, 1, 74, 127
1, 305407, Note_on_c, 1, 55, 127
1, 305513, Note_off_c, 1, 74, 0
1, 305514, Note_on_c, 1, 72, 127
1, 305616, Note_off_c, 1, 64, 0
1, 305619, Note_off_c, 1, 72, 0
1, 305829, Note_off_c, 1, 55, 0
1, 305833, Note_on_c, 1, 77, 127
1, 305833, Note_on_c, 1, 62, 127
1, 305939, Note_off_c, 1, 77, 0
1, 305940, Note_on_c, 1, 74, 127
1, 306046, Note_off_c, 1, 74, 0
1, 306047, Note_on_c, 1, 72, 127
1, 306047, Note_on_c, 1, 55, 127
1, 306153, Note_off_c, 1, 72, 0
1, 306154, Note_on_c, 1, 71, 127
1, 306256, Note_off_c, 1, 62, 0
1, 306259, Note_off_c, 1, 71, 0
1, 306469, Note_off_c, 1, 55, 0
1, 306473, Note_on_c, 1, 76, 127
1, 306473, Note_on_c, 1, 60, 127
1, 306579, Note_off_c, 1, 76, 0
1, 306580, Note_on_c, 1, 71, 127
1, 306686, Note_off_c, 1, 71, 0
1, 306687, Note_on_c, 1, 72, 127
1, 306687, Note_on_c, 1, 48, 127
1, 306793, Note_off_c, 1, 72, 0
1, 306896, Note_off_c, 1, 60, 0
1, 307109, Note_off_c, 1, 48, 0
1, 307113, Note_on_c, 1, 65, 127
1, 307113, Note_on_c, 1, 60, 127
1, 307219, Note_off_c, 1, 65, 0
1, 307220, Note_on_c, 1, 71, 127
1, 307326, Note_off_c, 1, 71, 0
1, 307327, Note_on_c, 1, 72, 127
1, 307327, Note_on_c, 1, 50, 127
1, 307433, Note_off_c, 1, 72, 0
1, 307434, Note_on_c, 1, 76, 127
1, 307536, Note_off_c, 1, 60, 0
1, 307539, Note_off_c, 1, 76, 0
1, 307749, Note_off_c, 1, 50, 0
1, 307753, Note_on_c, 1, 67, 127
1, 307753, Note_on_c, 1, 60, 127
1, 307859, Note_off_c, 1, 67, 0
1, 307860, Note_on_c, 1, 71, 127
1, 307966, Note_off_c, 1, 71, 0
1, 307967, Note_on_c, 1, 72, 127
1, 307967, Note_on_c, 1, 52, 127
1, 308073, Note_off_c, 1, 72, 0
1, 308074, Note_on_c, 1, 76, 127
1, 308176, Note_off_c, 1, 60, 0
1, 308179, Note_off_c, 1, 76, 0
1, 308389, Note_off_c, 1, 52, 0
1, 308393, Note_on_c, 1, 69, 127
1, 308393, Note_on_c, 1, 60, 127
1, 308499, Note_off_c, 1, 69, 0
1, 308500, Note_on_c, 1, 71, 127
1, 308606, Note_off_c, 1, 71, 0
1, 308607, Note_on_c, 1, 72, 127
1, 308607, Note_on_c, 1, 53, 127
1, 308713, Note_off_c, 1, 72, 0
1, 308714, Note_on_c, 1, 76, 127
1, 308816, Note_off_c, 1, 60, 0
1, 308819, Note_off_c, 1, 76, 0
1, 309029, Note_off_c, 1, 53, 0
1, 309033, Note_on_c, 1, 67, 127
1, 309033, Note_on_c, 1, 60, 127
1, 309139, Note_off_c, 1, 67, 0
1, 309140, Note_on_c, 1, 71, 127
1, 309246, Note_off_c, 1, 71, 0
1, 309247, Note_on_c, 1, 72, 127
1, 309247, Note_on_c, 1, 55, 127
1, 309353, Note_off_c, 1, 72, 0
1, 309354, Note_on_c, 1, 76, 127
1, 309456, Note_off_c, 1, 60, 0
1, 309459, Note_off_c, 1, 76, 0
1, 309669, Note_off_c, 1, 55, 0
1, 309673, Note_on_c, 1, 66, 127
1, 309673, Note_on_c, 1, 60, 127
1, 309779, Note_off_c, 1, 66, 0
1, 309780, Note_on_c, 1, 71, 127
1, 309886, Note_off_c, 1, 71, 0
1, 309887, Note_on_c, 1, 72, 127
1, 309887, Note_on_c, 1, 57, 127
1, 309993, Note_off_c, 1, 72, 0
1, 309994, Note_on_c, 1, 76, 127
1, 310096, Note_off_c, 1, 60, 0
1, 310099, Note_off_c, 1, 76, 0
1, 310309, Note_off_c, 1, 57, 0
1, 310313, Note_on_c, 1, 65, 127
1, 310313, Note_on_c, 1, 59, 127
1, 310313, Note_on_c, 1, 62, 127
1, 310419, Note_off_c, 1, 65, 0
1, 310420, Note_on_c, 1, 69, 127
1, 310526, Note_off_c, 1, 59, 0
1, 310526, Note_off_c, 1, 69, 0
1, 310527, Note_on_c, 1, 71, 127
1, 310527, Note_on_c, 1, 57, 127
1, 310633, Note_off_c, 1, 71, 0
1, 310634, Note_on_c, 1, 74, 127
1, 310740, Note_off_c, 1, 57, 0
1, 310740, Note_off_c, 1, 74, 0
1, 310741, Note_on_c, 1, 55, 127
1, 310954, Note_off_c, 1, 62, 0
1, 310954, Note_off_c, 1, 55, 0
1, 310955, Note_on_c, 1, 63, 127
1, 310955, Note_on_c, 1, 60, 127
1, 311061, Note_off_c, 1, 63, 0
1, 311062, Note_on_c, 1, 67, 127
1, 311168, Note_off_c, 1, 67, 0
1, 311169, Note_on_c, 1, 69, 127
1, 311169, Note_on_c, 1, 54, 127
1, 311275, Note_off_c, 1, 69, 0
1, 311276, Note_on_c, 1, 72, 127
1, 311382, Note_off_c, 1, 54, 0
1, 311382, Note_off_c, 1, 72, 0
1, 311383, Note_on_c, 1, 66, 127
1, 311383, Note_on_c, 1, 57, 127
1, 311489, Note_off_c, 1, 66, 0
1, 311596, Note_off_c, 1, 60, 0
1, 311596, Note_off_c, 1, 57, 0
1, 311597, Note_on_c, 1, 62, 127
1, 311597, Note_on_c, 1, 55, 127
1, 311703, Note_off_c, 1, 62, 0
1, 311704, Note_on_c, 1, 65, 127
1, 311810, Note_off_c, 1, 65, 0
1, 311811, Note_on_c, 1, 67, 127
1, 311917, Note_off_c, 1, 67, 0
1, 311918, Note_on_c, 1, 71, 127
1, 312024, Note_off_c, 1, 71, 0
1, 312025, Note_on_c, 1, 43, 127
1, 312238, Note_off_c, 1, 55, 0
1, 312238, Note_off_c, 1, 43, 0
1, 312245, Note_on_c, 1, 48, 127
1, 312245, Note_on_c, 1, 64, 127
1, 312245, Note_on_c, 1, 72, 127
1, 312363, Note_on_c, 1, 60, 127
1, 312445, Note_off_c, 1, 48, 0
1, 312470, Note_off_c, 1, 60, 0
1, 312471, Note_on_c, 1, 58, 127
1, 312578, Note_off_c, 1, 58, 0
1, 312579, Note_on_c, 1, 57, 127
1, 312686, Note_off_c, 1, 57, 0
1, 312687, Note_on_c, 1, 55, 127
1, 312794, Note_off_c, 1, 55, 0
1, 312795, Note_on_c, 1, 53, 127
1, 312892, Note_off_c, 1, 64, 0
1, 312902, Note_off_c, 1, 53, 0
1, 312903, Note_on_c, 1, 52, 127
1, 313000, Note_off_c, 1, 72, 0
1, 313011, Note_on_c, 1, 67, 127
1, 313118, Note_off_c, 1, 52, 0
1, 313118, Note_off_c, 1, 67, 0
1, 313119, Note_on_c, 1, 69, 127
1, 313119, Note_on_c, 1, 54, 127
1, 313226, Note_off_c, 1, 69, 0
1, 313227, Note_on_c, 1, 71, 127
1, 313334, Note_off_c, 1, 54, 0
1, 313334, Note_off_c, 1, 71, 0
1, 313335, Note_on_c, 1, 72, 127
1, 313335, Note_on_c, 1, 55, 127
1, 313442, Note_off_c, 1, 72, 0
1, 313443, Note_on_c, 1, 74, 127
1, 313550, Note_off_c, 1, 55, 0
1, 313550, Note_off_c, 1, 74, 0
1, 313551, Note_on_c, 1, 75, 127
1, 313551, Note_on_c, 1, 54, 127
1, 313766, Note_off_c, 1, 75, 0
1, 313766, Note_off_c, 1, 54, 0
1, 313767, Note_on_c, 1, 74, 127
1, 313767, Note_on_c, 1, 55, 127
1, 313982, Note_off_c, 1, 74, 0
1, 313982, Note_off_c, 1, 55, 0
1, 313983, Note_on_c, 1, 72, 127
1, 313983, Note_on_c, 1, 57, 127
1, 314198, Note_off_c, 1, 72, 0
1, 314198, Note_off_c, 1, 57, 0
1, 314199, Note_on_c, 1, 55, 127
1, 314199, Note_on_c, 1, 70, 127
1, 314307, Note_on_c, 1, 67, 127
1, 314414, Note_off_c, 1, 67, 0
1, 314415, Note_on_c, 1, 66, 127
1, 314522, Note_off_c, 1, 66, 0
1, 314523, Note_on_c, 1, 64, 127
1, 314630, Note_off_c, 1, 64, 0
1, 314631, Note_on_c, 1, 62, 127
1, 314738, Note_off_c, 1, 55, 0
1, 314738, Note_off_c, 1, 62, 0
1, 314739, Note_on_c, 1, 60, 127
1, 314846, Note_off_c, 1, 60, 0
1, 314847, Note_on_c, 1, 58, 127
1, 314954, Note_off_c, 1, 58, 0
1, 314955, Note_on_c, 1, 57, 127
1, 315062, Note_off_c, 1, 57, 0
1, 315171, Note_on_c, 1, 53, 127
1, 315278, Note_off_c, 1, 53, 0
1, 315279, Note_on_c, 1, 52, 127
1, 315279, Note_on_c, 1, 65, 127
1, 315386, Note_off_c, 1, 52, 0
1, 315387, Note_on_c, 1, 50, 127
1, 315494, Note_off_c, 1, 70, 0
1, 315494, Note_off_c, 1, 65, 0
1, 315494, Note_off_c, 1, 50, 0
1, 315495, Note_on_c, 1, 70, 127
1, 315495, Note_on_c, 1, 74, 127
1, 315495, Note_on_c, 1, 64, 127
1, 315495, Note_on_c, 1, 48, 127
1, 315710, Note_off_c, 1, 70, 0
1, 315710, Note_off_c, 1, 74, 0
1, 315711, Note_on_c, 1, 69, 127
1, 315711, Note_on_c, 1, 72, 127
1, 315926, Note_off_c, 1, 69, 0
1, 315926, Note_off_c, 1, 72, 0
1, 315927, Note_on_c, 1, 67, 127
1, 316142, Note_off_c, 1, 64, 0
1, 316142, Note_off_c, 1, 48, 0
1, 316142, Note_off_c, 1, 67, 0
1, 316143, Note_on_c, 1, 53, 127
1, 316143, Note_on_c, 1, 69, 127
1, 316251, Note_on_c, 1, 65, 127
1, 316358, Note_off_c, 1, 65, 0
1, 316359, Note_on_c, 1, 64, 127
1, 316466, Note_off_c, 1, 64, 0
1, 316467, Note_on_c, 1, 62, 127
1, 316574, Note_off_c, 1, 62, 0
1, 316575, Note_on_c, 1, 60, 127
1, 316682, Note_off_c, 1, 53, 0
1, 316682, Note_off_c, 1, 60, 0
1, 316683, Note_on_c, 1, 58, 127
1, 316790, Note_off_c, 1, 58, 0
1, 316791, Note_on_c, 1, 57, 127
1, 316898, Note_off_c, 1, 57, 0
1, 316899, Note_on_c, 1, 55, 127
1, 317006, Note_off_c, 1, 55, 0
1, 317115, Note_on_c, 1, 52, 127
1, 317222, Note_off_c, 1, 52, 0
1, 317223, Note_on_c, 1, 50, 127
1, 317330, Note_off_c, 1, 50, 0
1, 317331, Note_on_c, 1, 48, 127
1, 317438, Note_off_c, 1, 48, 0
1, 317439, Note_on_c, 1, 74, 127
1, 317439, Note_on_c, 1, 47, 127
1, 317546, Note_off_c, 1, 74, 0
1, 317547, Note_on_c, 1, 76, 127
1, 317654, Note_off_c, 1, 76, 0
1, 317871, Note_on_c, 1, 77, 127
1, 318086, Note_off_c, 1, 69, 0
1, 318086, Note_off_c, 1, 47, 0
1, 318086, Note_off_c, 1, 77, 0
1, 318087, Note_on_c, 1, 67, 127
1, 318195, Note_on_c, 1, 52, 127
1, 318302, Note_off_c, 1, 52, 0
1, 318303, Note_on_c, 1, 53, 127
1, 318410, Note_off_c, 1, 53, 0
1, 318411, Note_on_c, 1, 55, 127
1, 318518, Note_off_c, 1, 55, 0
1, 318519, Note_on_c, 1, 57, 127
1, 318626, Note_off_c, 1, 57, 0
1, 318627, Note_on_c, 1, 59, 127
1, 318734, Note_off_c, 1, 67, 0
1, 318734, Note_off_c, 1, 59, 0
1, 318735, Note_on_c, 1, 61, 127
1, 318842, Note_off_c, 1, 61, 0
1, 318843, Note_on_c, 1, 62, 127
1, 318950, Note_off_c, 1, 62, 0
1, 318951, Note_on_c, 1, 64, 127
1, 319058, Note_off_c, 1, 64, 0
1, 319059, Note_on_c, 1, 65, 127
1, 319166, Note_off_c, 1, 65, 0
1, 319167, Note_on_c, 1, 52, 127
1, 319167, Note_on_c, 1, 67, 127
1, 319275, Note_on_c, 1, 69, 127
1, 319382, Note_off_c, 1, 52, 0
1, 319382, Note_off_c, 1, 69, 0
1, 319383, Note_on_c, 1, 70, 127
1, 319383, Note_on_c, 1, 57, 127
1, 319383, Note_on_c, 1, 61, 127
1, 319594, Note_off_c, 1, 67, 0
1, 319597, Note_off_c, 1, 70, 0
1, 319598, Note_on_c, 1, 65, 127
1, 319813, Note_off_c, 1, 57, 0
1, 319813, Note_off_c, 1, 65, 0
1, 319814, Note_on_c, 1, 64, 127
1, 319814, Note_on_c, 1, 45, 127
1, 320029, Note_off_c, 1, 61, 0
1, 320029, Note_off_c, 1, 64, 0
1, 320029, Note_off_c, 1, 45, 0
1, 320030, Note_on_c, 1, 50, 127
1, 320030, Note_on_c, 1, 65, 127
1, 320137, Note_on_c, 1, 62, 127
1, 320243, Note_off_c, 1, 50, 0
1, 320243, Note_off_c, 1, 62, 0
1, 320244, Note_on_c, 1, 61, 127
1, 320244, Note_on_c, 1, 53, 127
1, 320350, Note_off_c, 1, 61, 0
1, 320351, Note_on_c, 1, 59, 127
1, 320453, Note_off_c, 1, 65, 0
1, 320456, Note_off_c, 1, 53, 0
1, 320456, Note_off_c, 1, 59, 0
1, 320457, Note_on_c, 1, 61, 127
1, 320457, Note_on_c, 1, 45, 127
1, 320563, Note_off_c, 1, 61, 0
1, 320564, Note_on_c, 1, 62, 127
1, 320670, Note_off_c, 1, 45, 0
1, 320670, Note_off_c, 1, 62, 0
1, 320671, Note_on_c, 1, 52, 127
1, 320671, Note_on_c, 1, 67, 127
1, 320778, Note_on_c, 1, 64, 127
1, 320884, Note_off_c, 1, 52, 0
1, 320884, Note_off_c, 1, 64, 0
1, 320885, Note_on_c, 1, 62, 127
1, 320885, Note_on_c, 1, 55, 127
1, 320991, Note_off_c, 1, 62, 0
1, 320992, Note_on_c, 1, 61, 127
1, 321094, Note_off_c, 1, 67, 0
1, 321097, Note_off_c, 1, 55, 0
1, 321097, Note_off_c, 1, 61, 0
1, 321098, Note_on_c, 1, 62, 127
1, 321098, Note_on_c, 1, 45, 127
1, 321204, Note_off_c, 1, 62, 0
1, 321205, Note_on_c, 1, 64, 127
1, 321311, Note_off_c, 1, 45, 0
1, 321311, Note_off_c, 1, 64, 0
1, 321312, Note_on_c, 1, 53, 127
1, 321312, Note_on_c, 1, 69, 127
1, 321419, Note_on_c, 1, 65, 127
1, 321525, Note_off_c, 1, 53, 0
1, 321525, Note_off_c, 1, 65, 0
1, 321526, Note_on_c, 1, 64, 127
1, 321526, Note_on_c, 1, 57, 127
1, 321632, Note_off_c, 1, 64, 0
1, 321633, Note_on_c, 1, 62, 127
1, 321735, Note_off_c, 1, 69, 0
1, 321738, Note_off_c, 1, 57, 0
1, 321738, Note_off_c, 1, 62, 0
1, 321739, Note_on_c, 1, 64, 127
1, 321739, Note_on_c, 1, 50, 127
1, 321845, Note_off_c, 1, 64, 0
1, 321846, Note_on_c, 1, 65, 127
1, 321952, Note_off_c, 1, 50, 0
1, 321952, Note_off_c, 1, 65, 0
1, 321953, Note_on_c, 1, 55, 127
1, 321953, Note_on_c, 1, 71, 127
1, 322060, Note_on_c, 1, 67, 127
1, 322166, Note_off_c, 1, 55, 0
1, 322166, Note_off_c, 1, 67, 0
1, 322167, Note_on_c, 1, 65, 127
1, 322167, Note_on_c, 1, 43, 127
1, 322273, Note_off_c, 1, 65, 0
1, 322274, Note_on_c, 1, 64, 127
1, 322376, Note_off_c, 1, 71, 0
1, 322379, Note_off_c, 1, 43, 0
1, 322379, Note_off_c, 1, 64, 0
1, 322380, Note_on_c, 1, 65, 127
1, 322380, Note_on_c, 1, 55, 127
1, 322486, Note_off_c, 1, 65, 0
1, 322487, Note_on_c, 1, 67, 127
1, 322593, Note_off_c, 1, 55, 0
1, 322593, Note_off_c, 1, 67, 0
1, 322594, Note_on_c, 1, 55, 127
1, 322594, Note_on_c, 1, 73, 127
1, 322701, Note_on_c, 1, 69, 127
1, 322807, Note_off_c, 1, 55, 0
1, 322807, Note_off_c, 1, 69, 0
1, 322808, Note_on_c, 1, 67, 127
1, 322808, Note_on_c, 1, 45, 127
1, 322914, Note_off_c, 1, 67, 0
1, 322915, Note_on_c, 1, 65, 127
1, 323017, Note_off_c, 1, 73, 0
1, 323020, Note_off_c, 1, 45, 0
1, 323020, Note_off_c, 1, 65, 0
1, 323021, Note_on_c, 1, 67, 127
1, 323021, Note_on_c, 1, 55, 127
1, 323127, Note_off_c, 1, 67, 0
1, 323128, Note_on_c, 1, 69, 127
1, 323234, Note_off_c, 1, 55, 0
1, 323234, Note_off_c, 1, 69, 0
1, 323235, Note_on_c, 1, 55, 127
1, 323235, Note_on_c, 1, 74, 127
1, 323342, Note_on_c, 1, 70, 127
1, 323448, Note_off_c, 1, 55, 0
1, 323448, Note_off_c, 1, 70, 0
1, 323449, Note_on_c, 1, 69, 127
1, 323449, Note_on_c, 1, 46, 127
1, 323555, Note_off_c, 1, 69, 0
1, 323556, Note_on_c, 1, 67, 127
1, 323658, Note_off_c, 1, 74, 0
1, 323661, Note_off_c, 1, 46, 0
1, 323661, Note_off_c, 1, 67, 0
1, 323662, Note_on_c, 1, 69, 127
1, 323662, Note_on_c, 1, 55, 127
1, 323768, Note_off_c, 1, 69, 0
1, 323769, Note_on_c, 1, 70, 127
1, 323875, Note_off_c, 1, 55, 0
1, 323875, Note_off_c, 1, 70, 0
1, 323876, Note_on_c, 1, 49, 127
1, 323876, Note_on_c, 1, 76, 127
1, 323983, Note_on_c, 1, 70, 127
1, 324089, Note_off_c, 1, 49, 0
1, 324089, Note_off_c, 1, 70, 0
1, 324090, Note_on_c, 1, 69, 127
1, 324090, Note_on_c, 1, 52, 127
1, 324188, Note_off_c, 1, 76, 0
1, 324196, Note_off_c, 1, 69, 0
1, 324197, Note_on_c, 1, 67, 127
1, 324303, Note_off_c, 1, 52, 0
1, 324303, Note_off_c, 1, 67, 0
1, 324304, Note_on_c, 1, 65, 127
1, 324304, Note_on_c, 1, 57, 127
1, 324410, Note_off_c, 1, 65, 0
1, 324411, Note_on_c, 1, 64, 127
1, 324517, Note_off_c, 1, 57, 0
1, 324517, Note_off_c, 1, 64, 0
1, 324518, Note_on_c, 1, 65, 127
1, 324518, Note_on_c, 1, 50, 127
1, 324624, Note_off_c, 1, 65, 0
1, 324625, Note_on_c, 1, 69, 127
1, 324731, Note_off_c, 1, 50, 0
1, 324731, Note_off_c, 1, 69, 0
1, 324732, Note_on_c, 1, 70, 127
1, 324732, Note_on_c, 1, 53, 127
1, 324838, Note_off_c, 1, 70, 0
1, 324839, Note_on_c, 1, 72, 127
1, 324945, Note_off_c, 1, 53, 0
1, 324945, Note_off_c, 1, 72, 0
1, 324946, Note_on_c, 1, 70, 127
1, 324946, Note_on_c, 1, 57, 127
1, 325052, Note_off_c, 1, 70, 0
1, 325053, Note_on_c, 1, 69, 127
1, 325159, Note_off_c, 1, 57, 0
1, 325159, Note_off_c, 1, 69, 0
1, 325160, Note_on_c, 1, 67, 127
1, 325160, Note_on_c, 1, 46, 127
1, 325266, Note_off_c, 1, 67, 0
1, 325267, Note_on_c, 1, 74, 127
1, 325373, Note_off_c, 1, 46, 0
1, 325373, Note_off_c, 1, 74, 0
1, 325374, Note_on_c, 1, 76, 127
1, 325374, Note_on_c, 1, 50, 127
1, 325480, Note_off_c, 1, 76, 0
1, 325481, Note_on_c, 1, 77, 127
1, 325587, Note_off_c, 1, 50, 0
1, 325587, Note_off_c, 1, 77, 0
1, 325588, Note_on_c, 1, 76, 127
1, 325588, Note_on_c, 1, 55, 127
1, 325694, Note_off_c, 1, 76, 0
1, 325695, Note_on_c, 1, 74, 127
1, 325801, Note_off_c, 1, 55, 0
1, 325801, Note_off_c, 1, 74, 0
1, 325802, Note_on_c, 1, 57, 127
1, 325802, Note_on_c, 1, 73, 127
1, 325908, Note_off_c, 1, 57, 0
1, 325909, Note_on_c, 1, 45, 127
1, 326015, Note_off_c, 1, 45, 0
1, 326016, Note_on_c, 1, 47, 127
1, 326122, Note_off_c, 1, 47, 0
1, 326123, Note_on_c, 1, 49, 127
1, 326229, Note_off_c, 1, 49, 0
1, 326230, Note_on_c, 1, 50, 127
1, 326336, Note_off_c, 1, 50, 0
1, 326337, Note_on_c, 1, 52, 127
1, 326443, Note_off_c, 1, 73, 0
1, 326443, Note_off_c, 1, 52, 0
1, 326444, Note_on_c, 1, 53, 127
1, 326551, Note_on_c, 1, 71, 127
1, 326657, Note_off_c, 1, 53, 0
1, 326657, Note_off_c, 1, 71, 0
1, 326658, Note_on_c, 1, 73, 127
1, 326658, Note_on_c, 1, 52, 127
1, 326764, Note_off_c, 1, 73, 0
1, 326765, Note_on_c, 1, 74, 127
1, 326871, Note_off_c, 1, 52, 0
1, 326871, Note_off_c, 1, 74, 0
1, 326872, Note_on_c, 1, 76, 127
1, 326872, Note_on_c, 1, 50, 127
1, 326978, Note_off_c, 1, 76, 0
1, 326979, Note_on_c, 1, 77, 127
1, 327085, Note_off_c, 1, 50, 0
1, 327085, Note_off_c, 1, 77, 0
1, 327086, Note_on_c, 1, 79, 127
1, 327086, Note_on_c, 1, 52, 127
1, 327192, Note_off_c, 1, 79, 0
1, 327193, Note_on_c, 1, 77, 127
1, 327299, Note_off_c, 1, 52, 0
1, 327299, Note_off_c, 1, 77, 0
1, 327300, Note_on_c, 1, 76, 127
1, 327300, Note_on_c, 1, 50, 127
1, 327406, Note_off_c, 1, 76, 0
1, 327407, Note_on_c, 1, 77, 127
1, 327513, Note_off_c, 1, 50, 0
1, 327513, Note_off_c, 1, 77, 0
1, 327514, Note_on_c, 1, 79, 127
1, 327514, Note_on_c, 1, 49, 127
1, 327620, Note_off_c, 1, 79, 0
1, 327621, Note_on_c, 1, 76, 127
1, 327727, Note_off_c, 1, 49, 0
1, 327727, Note_off_c, 1, 76, 0
1, 327728, Note_on_c, 1, 77, 127
1, 327728, Note_on_c, 1, 50, 127
1, 327834, Note_off_c, 1, 77, 0
1, 327835, Note_on_c, 1, 74, 127
1, 327941, Note_off_c, 1, 74, 0
1, 327942, Note_on_c, 1, 76, 127
1, 328048, Note_off_c, 1, 76, 0
1, 328049, Note_on_c, 1, 78, 127
1, 328155, Note_off_c, 1, 78, 0
1, 328156, Note_on_c, 1, 79, 127
1, 328262, Note_off_c, 1, 79, 0
1, 328263, Note_on_c, 1, 81, 127
1, 328369, Note_off_c, 1, 81, 0
1, 328370, Note_on_c, 1, 82, 127
1, 328428, Note_off_c, 1, 50, 0
1, 328477, Note_on_c, 1, 52, 127
1, 328583, Note_off_c, 1, 82, 0
1, 328583, Note_off_c, 1, 52, 0
1, 328584, Note_on_c, 1, 54, 127
1, 328584, Note_on_c, 1, 81, 127
1, 328690, Note_off_c, 1, 54, 0
1, 328691, Note_on_c, 1, 55, 127
1, 328797, Note_off_c, 1, 81, 0
1, 328797, Note_off_c, 1, 55, 0
1, 328798, Note_on_c, 1, 57, 127
1, 328798, Note_on_c, 1, 79, 127
1, 328904, Note_off_c, 1, 57, 0
1, 328905, Note_on_c, 1, 58, 127
1, 329011, Note_off_c, 1, 79, 0
1, 329011, Note_off_c, 1, 58, 0
1, 329012, Note_on_c, 1, 60, 127
1, 329012, Note_on_c, 1, 81, 127
1, 329118, Note_off_c, 1, 60, 0
1, 329119, Note_on_c, 1, 58, 127
1, 329225, Note_off_c, 1, 81, 0
1, 329225, Note_off_c, 1, 58, 0
1, 329226, Note_on_c, 1, 57, 127
1, 329226, Note_on_c, 1, 79, 127
1, 329332, Note_off_c, 1, 57, 0
1, 329333, Note_on_c, 1, 58, 127
1, 329439, Note_off_c, 1, 79, 0
1, 329439, Note_off_c, 1, 58, 0
1, 329440, Note_on_c, 1, 60, 127
1, 329440, Note_on_c, 1, 78, 127
1, 329546, Note_off_c, 1, 60, 0
1, 329547, Note_on_c, 1, 57, 127
1, 329653, Note_off_c, 1, 78, 0
1, 329653, Note_off_c, 1, 57, 0
1, 329654, Note_on_c, 1, 59, 127
1, 329654, Note_on_c, 1, 79, 127
1, 329760, Note_off_c, 1, 59, 0
1, 329761, Note_on_c, 1, 55, 127
1, 329867, Note_off_c, 1, 55, 0
1, 329868, Note_on_c, 1, 57, 127
1, 329974, Note_off_c, 1, 57, 0
1, 330082, Note_on_c, 1, 60, 127
1, 330188, Note_off_c, 1, 60, 0
1, 330189, Note_on_c, 1, 62, 127
1, 330295, Note_off_c, 1, 79, 0
1, 330295, Note_off_c, 1, 62, 0
1, 330296, Note_on_c, 1, 64, 127
1, 330403, Note_on_c, 1, 69, 127
1, 330509, Note_off_c, 1, 64, 0
1, 330509, Note_off_c, 1, 69, 0
1, 330510, Note_on_c, 1, 71, 127
1, 330510, Note_on_c, 1, 62, 127
1, 330616, Note_off_c, 1, 71, 0
1, 330617, Note_on_c, 1, 72, 127
1, 330723, Note_off_c, 1, 62, 0
1, 330723, Note_off_c, 1, 72, 0
1, 330724, Note_on_c, 1, 74, 127
1, 330724, Note_on_c, 1, 60, 127
1, 330830, Note_off_c, 1, 74, 0
1, 330831, Note_on_c, 1, 76, 127
1, 330937, Note_off_c, 1, 60, 0
1, 330937, Note_off_c, 1, 76, 0
1, 330938, Note_on_c, 1, 77, 127
1, 330938, Note_on_c, 1, 62, 127
1, 331044, Note_off_c, 1, 77, 0
1, 331045, Note_on_c, 1, 76, 127
1, 331151, Note_off_c, 1, 62, 0
1, 331151, Note_off_c, 1, 76, 0
1, 331152, Note_on_c, 1, 74, 127
1, 331152, Note_on_c, 1, 60, 127
1, 331258, Note_off_c, 1, 74, 0
1, 331259, Note_on_c, 1, 76, 127
1, 331365, Note_off_c, 1, 60, 0
1, 331365, Note_off_c, 1, 76, 0
1, 331366, Note_on_c, 1, 77, 127
1, 331366, Note_on_c, 1, 59, 127
1, 331472, Note_off_c, 1, 77, 0
1, 331473, Note_on_c, 1, 74, 127
1, 331579, Note_off_c, 1, 59, 0
1, 331579, Note_off_c, 1, 74, 0
1, 331580, Note_on_c, 1, 76, 127
1, 331580, Note_on_c, 1, 60, 127
1, 331686, Note_off_c, 1, 76, 0
1, 331687, Note_on_c, 1, 72, 127
1, 331793, Note_off_c, 1, 72, 0
1, 331794, Note_on_c, 1, 74, 127
1, 331900, Note_off_c, 1, 74, 0
1, 332008, Note_on_c, 1, 77, 127
1, 332114, Note_off_c, 1, 77, 0
1, 332115, Note_on_c, 1, 79, 127
1, 332221, Note_off_c, 1, 79, 0
1, 332222, Note_on_c, 1, 81, 127
1, 332316, Note_off_c, 1, 60, 0
1, 332329, Note_on_c, 1, 62, 127
1, 332435, Note_off_c, 1, 81, 0
1, 332435, Note_off_c, 1, 62, 0
1, 332436, Note_on_c, 1, 64, 127
1, 332436, Note_on_c, 1, 79, 127
1, 332542, Note_off_c, 1, 64, 0
1, 332543, Note_on_c, 1, 65, 127
1, 332649, Note_off_c, 1, 79, 0
1, 332649, Note_off_c, 1, 65, 0
1, 332650, Note_on_c, 1, 67, 127
1, 332650, Note_on_c, 1, 77, 127
1, 332756, Note_off_c, 1, 67, 0
1, 332757, Note_on_c, 1, 69, 127
1, 332863, Note_off_c, 1, 77, 0
1, 332863, Note_off_c, 1, 69, 0
1, 332864, Note_on_c, 1, 70, 127
1, 332864, Note_on_c, 1, 79, 127
1, 332970, Note_off_c, 1, 70, 0
1, 332971, Note_on_c, 1, 69, 127
1, 333077, Note_off_c, 1, 79, 0
1, 333077, Note_off_c, 1, 69, 0
1, 333078, Note_on_c, 1, 67, 127
1, 333078, Note_on_c, 1, 77, 127
1, 333184, Note_off_c, 1, 67, 0
1, 333185, Note_on_c, 1, 69, 127
1, 333291, Note_off_c, 1, 77, 0
1, 333291, Note_off_c, 1, 69, 0
1, 333292, Note_on_c, 1, 70, 127
1, 333292, Note_on_c, 1, 76, 127
1, 333398, Note_off_c, 1, 70, 0
1, 333399, Note_on_c, 1, 67, 127
1, 333505, Note_off_c, 1, 76, 0
1, 333505, Note_off_c, 1, 67, 0
1, 333506, Note_on_c, 1, 69, 127
1, 333506, Note_on_c, 1, 77, 127
1, 333612, Note_off_c, 1, 69, 0
1, 333613, Note_on_c, 1, 65, 127
1, 333719, Note_off_c, 1, 65, 0
1, 333720, Note_on_c, 1, 64, 127
1, 333720, Note_on_c, 1, 82, 127
1, 333826, Note_off_c, 1, 64, 0
1, 333827, Note_on_c, 1, 62, 127
1, 333906, Note_off_c, 1, 77, 0
1, 333933, Note_off_c, 1, 82, 0
1, 333933, Note_off_c, 1, 62, 0
1, 333934, Note_on_c, 1, 64, 127
1, 333934, Note_on_c, 1, 74, 127
1, 334040, Note_off_c, 1, 64, 0
1, 334041, Note_on_c, 1, 65, 127
1, 334147, Note_off_c, 1, 74, 0
1, 334147, Note_off_c, 1, 65, 0
1, 334148, Note_on_c, 1, 67, 127
1, 334148, Note_on_c, 1, 76, 127
1, 334254, Note_off_c, 1, 67, 0
1, 334255, Note_on_c, 1, 64, 127
1, 334361, Note_off_c, 1, 64, 0
1, 334362, Note_on_c, 1, 62, 127
1, 334362, Note_on_c, 1, 81, 127
1, 334468, Note_off_c, 1, 62, 0
1, 334469, Note_on_c, 1, 60, 127
1, 334548, Note_off_c, 1, 76, 0
1, 334575, Note_off_c, 1, 81, 0
1, 334575, Note_off_c, 1, 60, 0
1, 334576, Note_on_c, 1, 62, 127
1, 334576, Note_on_c, 1, 72, 127
1, 334682, Note_off_c, 1, 62, 0
1, 334683, Note_on_c, 1, 64, 127
1, 334789, Note_off_c, 1, 72, 0
1, 334789, Note_off_c, 1, 64, 0
1, 334790, Note_on_c, 1, 65, 127
1, 334790, Note_on_c, 1, 74, 127
1, 334896, Note_off_c, 1, 65, 0
1, 334897, Note_on_c, 1, 62, 127
1, 335003, Note_off_c, 1, 62, 0
1, 335004, Note_on_c, 1, 60, 127
1, 335004, Note_on_c, 1, 79, 127
1, 335110, Note_off_c, 1, 60, 0
1, 335111, Note_on_c, 1, 58, 127
1, 335190, Note_off_c, 1, 74, 0
1, 335217, Note_off_c, 1, 79, 0
1, 335217, Note_off_c, 1, 58, 0
1, 335218, Note_on_c, 1, 60, 127
1, 335218, Note_on_c, 1, 70, 127
1, 335324, Note_off_c, 1, 60, 0
1, 335325, Note_on_c, 1, 62, 127
1, 335431, Note_off_c, 1, 70, 0
1, 335431, Note_off_c, 1, 62, 0
1, 335432, Note_on_c, 1, 64, 127
1, 335432, Note_on_c, 1, 72, 127
1, 335538, Note_off_c, 1, 64, 0
1, 335539, Note_on_c, 1, 60, 127
1, 335645, Note_off_c, 1, 60, 0
1, 335646, Note_on_c, 1, 58, 127
1, 335646, Note_on_c, 1, 77, 127
1, 335752, Note_off_c, 1, 58, 0
1, 335753, Note_on_c, 1, 57, 127
1, 335832, Note_off_c, 1, 72, 0
1, 335859, Note_off_c, 1, 77, 0
1, 335859, Note_off_c, 1, 57, 0
1, 335860, Note_on_c, 1, 58, 127
1, 335860, Note_on_c, 1, 69, 127
1, 335966, Note_off_c, 1, 58, 0
1, 335967, Note_on_c, 1, 60, 127
1, 336073, Note_off_c, 1, 69, 0
1, 336073, Note_off_c, 1, 60, 0
1, 336074, Note_on_c, 1, 62, 127
1, 336074, Note_on_c, 1, 70, 127
1, 336180, Note_off_c, 1, 62, 0
1, 336181, Note_on_c, 1, 58, 127
1, 336287, Note_off_c, 1, 58, 0
1, 336288, Note_on_c, 1, 57, 127
1, 336288, Note_on_c, 1, 76, 127
1, 336394, Note_off_c, 1, 57, 0
1, 336395, Note_on_c, 1, 55, 127
1, 336474, Note_off_c, 1, 70, 0
1, 336501, Note_off_c, 1, 76, 0
1, 336501, Note_off_c, 1, 55, 0
1, 336502, Note_on_c, 1, 57, 127
1, 336502, Note_on_c, 1, 67, 127
1, 336608, Note_off_c, 1, 57, 0
1, 336609, Note_on_c, 1, 58, 127
1, 336715, Note_off_c, 1, 67, 0
1, 336715, Note_off_c, 1, 58, 0
1, 336716, Note_on_c, 1, 60, 127
1, 336716, Note_on_c, 1, 69, 127
1, 336822, Note_off_c, 1, 60, 0
1, 336823, Note_on_c, 1, 57, 127
1, 336929, Note_off_c, 1, 69, 0
1, 336929, Note_off_c, 1, 57, 0
1, 336930, Note_on_c, 1, 55, 127
1, 336930, Note_on_c, 1, 74, 127
1, 337036, Note_off_c, 1, 55, 0
1, 337037, Note_on_c, 1, 53, 127
1, 337143, Note_off_c, 1, 74, 0
1, 337143, Note_off_c, 1, 53, 0
1, 337144, Note_on_c, 1, 55, 127
1, 337144, Note_on_c, 1, 65, 127
1, 337250, Note_off_c, 1, 55, 0
1, 337251, Note_on_c, 1, 57, 127
1, 337357, Note_off_c, 1, 65, 0
1, 337357, Note_off_c, 1, 57, 0
1, 337358, Note_on_c, 1, 67, 127
1, 337358, Note_on_c, 1, 58, 127
1, 337465, Note_on_c, 1, 69, 127
1, 337558, Note_off_c, 1, 67, 0
1, 337571, Note_off_c, 1, 69, 0
1, 337572, Note_on_c, 1, 70, 127
1, 337678, Note_off_c, 1, 70, 0
1, 337679, Note_on_c, 1, 74, 127
1, 337785, Note_off_c, 1, 74, 0
1, 337999, Note_off_c, 1, 58, 0
1, 338000, Note_on_c, 1, 67, 127
1, 338106, Note_off_c, 1, 67, 0
1, 338107, Note_on_c, 1, 69, 127
1, 338213, Note_off_c, 1, 69, 0
1, 338214, Note_on_c, 1, 70, 127
1, 338320, Note_off_c, 1, 70, 0
1, 338321, Note_on_c, 1, 74, 127
1, 338427, Note_off_c, 1, 74, 0
1, 338428, Note_on_c, 1, 69, 127
1, 338534, Note_off_c, 1, 69, 0
1, 338535, Note_on_c, 1, 67, 127
1, 338641, Note_off_c, 1, 67, 0
1, 338642, Note_on_c, 1, 65, 127
1, 338642, Note_on_c, 1, 57, 127
1, 338749, Note_on_c, 1, 67, 127
1, 338792, Note_off_c, 1, 65, 0
1, 338855, Note_off_c, 1, 67, 0
1, 338856, Note_on_c, 1, 69, 127
1, 338962, Note_off_c, 1, 69, 0
1, 338963, Note_on_c, 1, 74, 127
1, 339069, Note_off_c, 1, 74, 0
1, 339283, Note_off_c, 1, 57, 0
1, 339284, Note_on_c, 1, 64, 127
1, 339284, Note_on_c, 1, 55, 127
1, 339391, Note_on_c, 1, 65, 127
1, 339484, Note_off_c, 1, 64, 0
1, 339497, Note_off_c, 1, 65, 0
1, 339498, Note_on_c, 1, 67, 127
1, 339604, Note_off_c, 1, 67, 0
1, 339605, Note_on_c, 1, 70, 127
1, 339711, Note_off_c, 1, 70, 0
1, 339925, Note_off_c, 1, 55, 0
1, 339926, Note_on_c, 1, 64, 127
1, 340032, Note_off_c, 1, 64, 0
1, 340033, Note_on_c, 1, 65, 127
1, 340139, Note_off_c, 1, 65, 0
1, 340140, Note_on_c, 1, 67, 127
1, 340246, Note_off_c, 1, 67, 0
1, 340247, Note_on_c, 1, 70, 127
1, 340353, Note_off_c, 1, 70, 0
1, 340354, Note_on_c, 1, 65, 127
1, 340460, Note_off_c, 1, 65, 0
1, 340461, Note_on_c, 1, 64, 127
1, 340567, Note_off_c, 1, 64, 0
1, 340568, Note_on_c, 1, 62, 127
1, 340568, Note_on_c, 1, 56, 127
1, 340675, Note_on_c, 1, 64, 127
1, 340718, Note_off_c, 1, 62, 0
1, 340781, Note_off_c, 1, 64, 0
1, 340782, Note_on_c, 1, 65, 127
1, 340888, Note_off_c, 1, 65, 0
1, 340889, Note_on_c, 1, 71, 127
1, 340995, Note_off_c, 1, 71, 0
1, 341209, Note_off_c, 1, 56, 0
1, 341210, Note_on_c, 1, 57, 127
1, 341210, Note_on_c, 1, 61, 127
1, 341316, Note_off_c, 1, 57, 0
1, 341317, Note_on_c, 1, 45, 127
1, 341423, Note_off_c, 1, 61, 0
1, 341423, Note_off_c, 1, 45, 0
1, 341424, Note_on_c, 1, 62, 127
1, 341424, Note_on_c, 1, 47, 127
1, 341530, Note_off_c, 1, 62, 0
1, 341530, Note_off_c, 1, 47, 0
1, 341531, Note_on_c, 1, 64, 127
1, 341531, Note_on_c, 1, 49, 127
1, 341637, Note_off_c, 1, 64, 0
1, 341637, Note_off_c, 1, 49, 0
1, 341638, Note_on_c, 1, 65, 127
1, 341638, Note_on_c, 1, 50, 127
1, 341744, Note_off_c, 1, 65, 0
1, 341744, Note_off_c, 1, 50, 0
1, 341745, Note_on_c, 1, 67, 127
1, 341745, Note_on_c, 1, 52, 127
1, 341851, Note_off_c, 1, 67, 0
1, 341851, Note_off_c, 1, 52, 0
1, 341852, Note_on_c, 1, 69, 127
1, 341852, Note_on_c, 1, 53, 127
1, 341958, Note_off_c, 1, 69, 0
1, 341959, Note_on_c, 1, 71, 127
1, 342065, Note_off_c, 1, 53, 0
1, 342065, Note_off_c, 1, 71, 0
1, 342066, Note_on_c, 1, 73, 127
1, 342066, Note_on_c, 1, 52, 127
1, 342172, Note_off_c, 1, 73, 0
1, 342173, Note_on_c, 1, 74, 127
1, 342279, Note_off_c, 1, 52, 0
1, 342279, Note_off_c, 1, 74, 0
1, 342280, Note_on_c, 1, 76, 127
1, 342280, Note_on_c, 1, 50, 127
1, 342386, Note_off_c, 1, 76, 0
1, 342387, Note_on_c, 1, 77, 127
1, 342493, Note_off_c, 1, 50, 0
1, 342493, Note_off_c, 1, 77, 0
1, 342494, Note_on_c, 1, 79, 127
1, 342494, Note_on_c, 1, 52, 127
1, 342600, Note_off_c, 1, 79, 0
1, 342601, Note_on_c, 1, 77, 127
1, 342707, Note_off_c, 1, 52, 0
1, 342707, Note_off_c, 1, 77, 0
1, 342708, Note_on_c, 1, 76, 127
1, 342708, Note_on_c, 1, 50, 127
1, 342814, Note_off_c, 1, 76, 0
1, 342815, Note_on_c, 1, 77, 127
1, 342921, Note_off_c, 1, 50, 0
1, 342921, Note_off_c, 1, 77, 0
1, 342922, Note_on_c, 1, 79, 127
1, 342922, Note_on_c, 1, 49, 127
1, 343028, Note_off_c, 1, 79, 0
1, 343029, Note_on_c, 1, 76, 127
1, 343135, Note_off_c, 1, 49, 0
1, 343135, Note_off_c, 1, 76, 0
1, 343136, Note_on_c, 1, 77, 127
1, 343136, Note_on_c, 1, 50, 127
1, 343242, Note_off_c, 1, 77, 0
1, 343243, Note_on_c, 1, 74, 127
1, 343349, Note_off_c, 1, 50, 0
1, 343349, Note_off_c, 1, 74, 0
1, 343350, Note_on_c, 1, 72, 127
1, 343350, Note_on_c, 1, 55, 127
1, 343456, Note_off_c, 1, 72, 0
1, 343457, Note_on_c, 1, 70, 127
1, 343563, Note_off_c, 1, 55, 0
1, 343563, Note_off_c, 1, 70, 0
1, 343564, Note_on_c, 1, 72, 127
1, 343564, Note_on_c, 1, 46, 127
1, 343670, Note_off_c, 1, 72, 0
1, 343671, Note_on_c, 1, 74, 127
1, 343777, Note_off_c, 1, 46, 0
1, 343777, Note_off_c, 1, 74, 0
1, 343778, Note_on_c, 1, 76, 127
1, 343778, Note_on_c, 1, 48, 127
1, 343884, Note_off_c, 1, 76, 0
1, 343885, Note_on_c, 1, 72, 127
1, 343991, Note_off_c, 1, 48, 0
1, 343991, Note_off_c, 1, 72, 0
1, 343992, Note_on_c, 1, 70, 127
1, 343992, Note_on_c, 1, 53, 127
1, 344098, Note_off_c, 1, 70, 0
1, 344099, Note_on_c, 1, 69, 127
1, 344205, Note_off_c, 1, 53, 0
1, 344205, Note_off_c, 1, 69, 0
1, 344206, Note_on_c, 1, 70, 127
1, 344206, Note_on_c, 1, 45, 127
1, 344312, Note_off_c, 1, 70, 0
1, 344313, Note_on_c, 1, 72, 127
1, 344419, Note_off_c, 1, 45, 0
1, 344419, Note_off_c, 1, 72, 0
1, 344420, Note_on_c, 1, 74, 127
1, 344420, Note_on_c, 1, 46, 127
1, 344526, Note_off_c, 1, 74, 0
1, 344527, Note_on_c, 1, 70, 127
1, 344633, Note_off_c, 1, 46, 0
1, 344633, Note_off_c, 1, 70, 0
1, 344634, Note_on_c, 1, 69, 127
1, 344634, Note_on_c, 1, 52, 127
1, 344740, Note_off_c, 1, 69, 0
1, 344741, Note_on_c, 1, 67, 127
1, 344847, Note_off_c, 1, 52, 0
1, 344847, Note_off_c, 1, 67, 0
1, 344848, Note_on_c, 1, 69, 127
1, 344848, Note_on_c, 1, 43, 127
1, 344954, Note_off_c, 1, 69, 0
1, 344955, Note_on_c, 1, 70, 127
1, 345061, Note_off_c, 1, 43, 0
1, 345061, Note_off_c, 1, 70, 0
1, 345062, Note_on_c, 1, 72, 127
1, 345062, Note_on_c, 1, 45, 127
1, 345168, Note_off_c, 1, 72, 0
1, 345169, Note_on_c, 1, 69, 127
1, 345275, Note_off_c, 1, 45, 0
1, 345275, Note_off_c, 1, 69, 0
1, 345276, Note_on_c, 1, 67, 127
1, 345276, Note_on_c, 1, 50, 127
1, 345382, Note_off_c, 1, 67, 0
1, 345383, Note_on_c, 1, 65, 127
1, 345489, Note_off_c, 1, 50, 0
1, 345489, Note_off_c, 1, 65, 0
1, 345490, Note_on_c, 1, 67, 127
1, 345490, Note_on_c, 1, 41, 127
1, 345596, Note_off_c, 1, 67, 0
1, 345597, Note_on_c, 1, 69, 127
1, 345703, Note_off_c, 1, 41, 0
1, 345703, Note_off_c, 1, 69, 0
1, 345704, Note_on_c, 1, 70, 127
1, 345704, Note_on_c, 1, 43, 127
1, 345810, Note_off_c, 1, 70, 0
1, 345811, Note_on_c, 1, 67, 127
1, 345917, Note_off_c, 1, 43, 0
1, 345917, Note_off_c, 1, 67, 0
1, 345918, Note_on_c, 1, 65, 127
1, 345918, Note_on_c, 1, 48, 127
1, 346024, Note_off_c, 1, 65, 0
1, 346025, Note_on_c, 1, 64, 127
1, 346131, Note_off_c, 1, 48, 0
1, 346131, Note_off_c, 1, 64, 0
1, 346132, Note_on_c, 1, 65, 127
1, 346132, Note_on_c, 1, 40, 127
1, 346238, Note_off_c, 1, 65, 0
1, 346239, Note_on_c, 1, 67, 127
1, 346345, Note_off_c, 1, 40, 0
1, 346345, Note_off_c, 1, 67, 0
1, 346346, Note_on_c, 1, 69, 127
1, 346346, Note_on_c, 1, 41, 127
1, 346452, Note_off_c, 1, 69, 0
1, 346453, Note_on_c, 1, 65, 127
1, 346559, Note_off_c, 1, 41, 0
1, 346559, Note_off_c, 1, 65, 0
1, 346560, Note_on_c, 1, 64, 127
1, 346560, Note_on_c, 1, 46, 127
1, 346666, Note_off_c, 1, 64, 0
1, 346667, Note_on_c, 1, 62, 127
1, 346773, Note_off_c, 1, 46, 0
1, 346773, Note_off_c, 1, 62, 0
1, 346774, Note_on_c, 1, 64, 127
1, 346774, Note_on_c, 1, 38, 127
1, 346880, Note_off_c, 1, 64, 0
1, 346881, Note_on_c, 1, 65, 127
1, 346987, Note_off_c, 1, 38, 0
1, 346987, Note_off_c, 1, 65, 0
1, 346988, Note_on_c, 1, 40, 127
1, 346988, Note_on_c, 1, 67, 127
1, 347094, Note_off_c, 1, 40, 0
1, 347095, Note_on_c, 1, 45, 127
1, 347201, Note_off_c, 1, 45, 0
1, 347202, Note_on_c, 1, 43, 127
1, 347308, Note_off_c, 1, 43, 0
1, 347309, Note_on_c, 1, 41, 127
1, 347415, Note_off_c, 1, 41, 0
1, 347523, Note_on_c, 1, 38, 127
1, 347629, Note_off_c, 1, 67, 0
1, 347629, Note_off_c, 1, 38, 0
1, 347630, Note_on_c, 1, 37, 127
1, 347737, Note_on_c, 1, 70, 127
1, 347843, Note_off_c, 1, 37, 0
1, 347843, Note_off_c, 1, 70, 0
1, 347844, Note_on_c, 1, 69, 127
1, 347844, Note_on_c, 1, 38, 127
1, 347950, Note_off_c, 1, 69, 0
1, 347951, Note_on_c, 1, 67, 127
1, 348057, Note_off_c, 1, 38, 0
1, 348057, Note_off_c, 1, 67, 0
1, 348058, Note_on_c, 1, 65, 127
1, 348058, Note_on_c, 1, 40, 127
1, 348164, Note_off_c, 1, 65, 0
1, 348165, Note_on_c, 1, 64, 127
1, 348271, Note_off_c, 1, 40, 0
1, 348271, Note_off_c, 1, 64, 0
1, 348272, Note_on_c, 1, 65, 127
1, 348272, Note_on_c, 1, 38, 127
1, 348378, Note_off_c, 1, 65, 0
1, 348379, Note_on_c, 1, 69, 127
1, 348485, Note_off_c, 1, 38, 0
1, 348485, Note_off_c, 1, 69, 0
1, 348486, Note_on_c, 1, 67, 127
1, 348486, Note_on_c, 1, 40, 127
1, 348592, Note_off_c, 1, 67, 0
1, 348593, Note_on_c, 1, 65, 127
1, 348699, Note_off_c, 1, 40, 0
1, 348699, Note_off_c, 1, 65, 0
1, 348700, Note_on_c, 1, 64, 127
1, 348700, Note_on_c, 1, 41, 127
1, 348806, Note_off_c, 1, 64, 0
1, 348807, Note_on_c, 1, 62, 127
1, 348913, Note_off_c, 1, 41, 0
1, 348913, Note_off_c, 1, 62, 0
1, 348914, Note_on_c, 1, 61, 127
1, 348914, Note_on_c, 1, 40, 127
1, 349020, Note_off_c, 1, 61, 0
1, 349021, Note_on_c, 1, 62, 127
1, 349127, Note_off_c, 1, 40, 0
1, 349127, Note_off_c, 1, 62, 0
1, 349128, Note_on_c, 1, 64, 127
1, 349128, Note_on_c, 1, 41, 127
1, 349235, Note_on_c, 1, 69, 127
1, 349328, Note_off_c, 1, 64, 0
1, 349341, Note_off_c, 1, 41, 0
1, 349341, Note_off_c, 1, 69, 0
1, 349342, Note_on_c, 1, 61, 127
1, 349342, Note_on_c, 1, 43, 127
1, 349448, Note_off_c, 1, 61, 0
1, 349449, Note_on_c, 1, 64, 127
1, 349555, Note_off_c, 1, 43, 0
1, 349555, Note_off_c, 1, 64, 0
1, 349556, Note_on_c, 1, 62, 127
1, 349556, Note_on_c, 1, 41, 127
1, 349662, Note_off_c, 1, 62, 0
1, 349663, Note_on_c, 1, 64, 127
1, 349769, Note_off_c, 1, 41, 0
1, 349769, Note_off_c, 1, 64, 0
1, 349770, Note_on_c, 1, 65, 127
1, 349770, Note_on_c, 1, 43, 127
1, 349877, Note_on_c, 1, 70, 127
1, 349970, Note_off_c, 1, 65, 0
1, 349983, Note_off_c, 1, 43, 0
1, 349983, Note_off_c, 1, 70, 0
1, 349984, Note_on_c, 1, 62, 127
1, 349984, Note_on_c, 1, 45, 127
1, 350090, Note_off_c, 1, 62, 0
1, 350091, Note_on_c, 1, 65, 127
1, 350197, Note_off_c, 1, 45, 0
1, 350197, Note_off_c, 1, 65, 0
1, 350198, Note_on_c, 1, 64, 127
1, 350198, Note_on_c, 1, 43, 127
1, 350304, Note_off_c, 1, 64, 0
1, 350305, Note_on_c, 1, 65, 127
1, 350411, Note_off_c, 1, 43, 0
1, 350411, Note_off_c, 1, 65, 0
1, 350412, Note_on_c, 1, 67, 127
1, 350412, Note_on_c, 1, 45, 127
1, 350519, Note_on_c, 1, 72, 127
1, 350612, Note_off_c, 1, 67, 0
1, 350625, Note_off_c, 1, 45, 0
1, 350625, Note_off_c, 1, 72, 0
1, 350626, Note_on_c, 1, 64, 127
1, 350626, Note_on_c, 1, 46, 127
1, 350732, Note_off_c, 1, 64, 0
1, 350733, Note_on_c, 1, 67, 127
1, 350839, Note_off_c, 1, 46, 0
1, 350839, Note_off_c, 1, 67, 0
1, 350840, Note_on_c, 1, 65, 127
1, 350840, Note_on_c, 1, 45, 127
1, 350946, Note_off_c, 1, 65, 0
1, 350947, Note_on_c, 1, 67, 127
1, 351053, Note_off_c, 1, 45, 0
1, 351053, Note_off_c, 1, 67, 0
1, 351054, Note_on_c, 1, 69, 127
1, 351054, Note_on_c, 1, 47, 127
1, 351161, Note_on_c, 1, 74, 127
1, 351254, Note_off_c, 1, 69, 0
1, 351267, Note_off_c, 1, 47, 0
1, 351267, Note_off_c, 1, 74, 0
1, 351268, Note_on_c, 1, 66, 127
1, 351268, Note_on_c, 1, 48, 127
1, 351374, Note_off_c, 1, 66, 0
1, 351375, Note_on_c, 1, 69, 127
1, 351481, Note_off_c, 1, 48, 0
1, 351481, Note_off_c, 1, 69, 0
1, 351482, Note_on_c, 1, 67, 127
1, 351482, Note_on_c, 1, 47, 127
1, 351588, Note_off_c, 1, 67, 0
1, 351589, Note_on_c, 1, 69, 127
1, 351695, Note_off_c, 1, 47, 0
1, 351695, Note_off_c, 1, 69, 0
1, 351696, Note_on_c, 1, 71, 127
1, 351696, Note_on_c, 1, 49, 127
1, 351803, Note_on_c, 1, 76, 127
1, 351896, Note_off_c, 1, 71, 0
1, 351909, Note_off_c, 1, 49, 0
1, 351909, Note_off_c, 1, 76, 0
1, 351910, Note_on_c, 1, 68, 127
1, 351910, Note_on_c, 1, 50, 127
1, 352016, Note_off_c, 1, 68, 0
1, 352017, Note_on_c, 1, 71, 127
1, 352123, Note_off_c, 1, 50, 0
1, 352123, Note_off_c, 1, 71, 0
1, 352124, Note_on_c, 1, 69, 127
1, 352124, Note_on_c, 1, 49, 127
1, 352230, Note_off_c, 1, 69, 0
1, 352230, Note_off_c, 1, 49, 0
1, 352231, Note_on_c, 1, 71, 127
1, 352231, Note_on_c, 1, 53, 127
1, 352337, Note_off_c, 1, 71, 0
1, 352337, Note_off_c, 1, 53, 0
1, 352338, Note_on_c, 1, 73, 127
1, 352338, Note_on_c, 1, 52, 127
1, 352444, Note_off_c, 1, 73, 0
1, 352444, Note_off_c, 1, 52, 0
1, 352445, Note_on_c, 1, 74, 127
1, 352445, Note_on_c, 1, 50, 127
1, 352551, Note_off_c, 1, 74, 0
1, 352551, Note_off_c, 1, 50, 0
1, 352552, Note_on_c, 1, 76, 127
1, 352552, Note_on_c, 1, 49, 127
1, 352658, Note_off_c, 1, 76, 0
1, 352658, Note_off_c, 1, 49, 0
1, 352659, Note_on_c, 1, 77, 127
1, 352659, Note_on_c, 1, 47, 127
1, 352765, Note_off_c, 1, 77, 0
1, 352765, Note_off_c, 1, 47, 0
1, 352766, Note_on_c, 1, 79, 127
1, 352766, Note_on_c, 1, 45, 127
1, 352872, Note_off_c, 1, 79, 0
1, 352873, Note_on_c, 1, 76, 127
1, 352979, Note_off_c, 1, 45, 0
1, 352979, Note_off_c, 1, 76, 0
1, 352980, Note_on_c, 1, 73, 127
1, 352980, Note_on_c, 1, 57, 127
1, 353087, Note_on_c, 1, 69, 127
1, 353180, Note_off_c, 1, 73, 0
1, 353193, Note_off_c, 1, 69, 0
1, 353194, Note_on_c, 1, 45, 127
1, 353301, Note_on_c, 1, 76, 127
1, 353403, Note_off_c, 1, 57, 0
1, 353406, Note_off_c, 1, 45, 0
1, 353406, Note_off_c, 1, 76, 0
1, 353407, Note_on_c, 1, 77, 127
1, 353407, Note_on_c, 1, 45, 127
1, 353513, Note_off_c, 1, 77, 0
1, 353514, Note_on_c, 1, 74, 127
1, 353620, Note_off_c, 1, 45, 0
1, 353620, Note_off_c, 1, 74, 0
1, 353621, Note_on_c, 1, 71, 127
1, 353621, Note_on_c, 1, 57, 127
1, 353728, Note_on_c, 1, 68, 127
1, 353821, Note_off_c, 1, 71, 0
1, 353834, Note_off_c, 1, 68, 0
1, 353835, Note_on_c, 1, 45, 127
1, 353942, Note_on_c, 1, 74, 127
1, 354044, Note_off_c, 1, 57, 0
1, 354047, Note_off_c, 1, 45, 0
1, 354047, Note_off_c, 1, 74, 0
1, 354048, Note_on_c, 1, 76, 127
1, 354048, Note_on_c, 1, 45, 127
1, 354154, Note_off_c, 1, 76, 0
1, 354155, Note_on_c, 1, 73, 127
1, 354261, Note_off_c, 1, 45, 0
1, 354261, Note_off_c, 1, 73, 0
1, 354262, Note_on_c, 1, 70, 127
1, 354262, Note_on_c, 1, 57, 127
1, 354369, Note_on_c, 1, 67, 127
1, 354462, Note_off_c, 1, 70, 0
1, 354475, Note_off_c, 1, 67, 0
1, 354476, Note_on_c, 1, 45, 127
1, 354583, Note_on_c, 1, 73, 127
1, 354685, Note_off_c, 1, 57, 0
1, 354688, Note_off_c, 1, 45, 0
1, 354688, Note_off_c, 1, 73, 0
1, 354689, Note_on_c, 1, 74, 127
1, 354689, Note_on_c, 1, 45, 127
1, 354795, Note_off_c, 1, 74, 0
1, 354796, Note_on_c, 1, 71, 127
1, 354902, Note_off_c, 1, 45, 0
1, 354902, Note_off_c, 1, 71, 0
1, 354903, Note_on_c, 1, 68, 127
1, 354903, Note_on_c, 1, 57, 127
1, 355010, Note_on_c, 1, 65, 127
1, 355103, Note_off_c, 1, 68, 0
1, 355116, Note_off_c, 1, 65, 0
1, 355117, Note_on_c, 1, 45, 127
1, 355224, Note_on_c, 1, 71, 127
1, 355326, Note_off_c, 1, 57, 0
1, 355329, Note_off_c, 1, 45, 0
1, 355329, Note_off_c, 1, 71, 0
1, 355330, Note_on_c, 1, 45, 127
1, 355330, Note_on_c, 1, 73, 127
1, 355437, Note_on_c, 1, 70, 127
1, 355543, Note_off_c, 1, 45, 0
1, 355543, Note_off_c, 1, 70, 0
1, 355544, Note_on_c, 1, 67, 127
1, 355544, Note_on_c, 1, 57, 127
1, 355650, Note_off_c, 1, 67, 0
1, 355651, Note_on_c, 1, 64, 127
1, 355757, Note_off_c, 1, 57, 0
1, 355757, Note_off_c, 1, 64, 0
1, 355971, Note_off_c, 1, 73, 0
1, 355972, Note_on_c, 1, 73, 127
1, 355972, Note_on_c, 1, 43, 127
1, 356078, Note_off_c, 1, 73, 0
1, 356079, Note_on_c, 1, 76, 127
1, 356185, Note_off_c, 1, 43, 0
1, 356185, Note_off_c, 1, 76, 0
1, 356186, Note_on_c, 1, 74, 127
1, 356186, Note_on_c, 1, 55, 127
1, 356292, Note_off_c, 1, 74, 0
1, 356293, Note_on_c, 1, 73, 127
1, 356399, Note_off_c, 1, 73, 0
1, 356400, Note_on_c, 1, 71, 127
1, 356400, Note_on_c, 1, 43, 127
1, 356506, Note_off_c, 1, 71, 0
1, 356507, Note_on_c, 1, 69, 127
1, 356609, Note_off_c, 1, 55, 0
1, 356612, Note_off_c, 1, 43, 0
1, 356612, Note_off_c, 1, 69, 0
1, 356613, Note_on_c, 1, 41, 127
1, 356613, Note_on_c, 1, 74, 127
1, 356719, Note_off_c, 1, 41, 0
1, 356720, Note_on_c, 1, 49, 127
1, 356826, Note_off_c, 1, 74, 0
1, 356826, Note_off_c, 1, 49, 0
1, 356827, Note_on_c, 1, 50, 127
1, 356827, Note_on_c, 1, 69, 127
1, 356933, Note_off_c, 1, 50, 0
1, 356934, Note_on_c, 1, 53, 127
1, 357040, Note_off_c, 1, 69, 0
1, 357040, Note_off_c, 1, 53, 0
1, 357041, Note_on_c, 1, 49, 127
1, 357041, Note_on_c, 1, 65, 127
1, 357147, Note_off_c, 1, 49, 0
1, 357148, Note_on_c, 1, 50, 127
1, 357254, Note_off_c, 1, 65, 0
1, 357254, Note_off_c, 1, 50, 0
1, 357255, Note_on_c, 1, 43, 127
1, 357255, Note_on_c, 1, 62, 127
1, 357361, Note_off_c, 1, 43, 0
1, 357362, Note_on_c, 1, 49, 127
1, 357468, Note_off_c, 1, 62, 0
1, 357468, Note_off_c, 1, 49, 0
1, 357469, Note_on_c, 1, 50, 127
1, 357469, Note_on_c, 1, 69, 127
1, 357575, Note_off_c, 1, 50, 0
1, 357576, Note_on_c, 1, 53, 127
1, 357682, Note_off_c, 1, 69, 0
1, 357682, Note_off_c, 1, 53, 0
1, 357683, Note_on_c, 1, 49, 127
1, 357683, Note_on_c, 1, 65, 127
1, 357789, Note_off_c, 1, 49, 0
1, 357790, Note_on_c, 1, 50, 127
1, 357896, Note_off_c, 1, 65, 0
1, 357896, Note_off_c, 1, 50, 0
1, 357897, Note_on_c, 1, 45, 127
1, 357897, Note_on_c, 1, 62, 127
1, 358003, Note_off_c, 1, 45, 0
1, 358004, Note_on_c, 1, 49, 127
1, 358110, Note_off_c, 1, 62, 0
1, 358110, Note_off_c, 1, 49, 0
1, 358111, Note_on_c, 1, 50, 127
1, 358111, Note_on_c, 1, 69, 127
1, 358217, Note_off_c, 1, 50, 0
1, 358218, Note_on_c, 1, 53, 127
1, 358324, Note_off_c, 1, 69, 0
1, 358324, Note_off_c, 1, 53, 0
1, 358325, Note_on_c, 1, 49, 127
1, 358325, Note_on_c, 1, 65, 127
1, 358431, Note_off_c, 1, 49, 0
1, 358432, Note_on_c, 1, 50, 127
1, 358538, Note_off_c, 1, 65, 0
1, 358538, Note_off_c, 1, 50, 0
1, 358539, Note_on_c, 1, 46, 127
1, 358539, Note_on_c, 1, 62, 127
1, 358645, Note_off_c, 1, 46, 0
1, 358646, Note_on_c, 1, 49, 127
1, 358752, Note_off_c, 1, 62, 0
1, 358752, Note_off_c, 1, 49, 0
1, 358753, Note_on_c, 1, 50, 127
1, 358753, Note_on_c, 1, 69, 127
1, 358859, Note_off_c, 1, 50, 0
1, 358860, Note_on_c, 1, 53, 127
1, 358966, Note_off_c, 1, 69, 0
1, 358966, Note_off_c, 1, 53, 0
1, 358967, Note_on_c, 1, 49, 127
1, 358967, Note_on_c, 1, 65, 127
1, 359073, Note_off_c, 1, 49, 0
1, 359074, Note_on_c, 1, 50, 127
1, 359180, Note_off_c, 1, 65, 0
1, 359180, Note_off_c, 1, 50, 0
1, 359181, Note_on_c, 1, 47, 127
1, 359181, Note_on_c, 1, 62, 127
1, 359287, Note_off_c, 1, 47, 0
1, 359288, Note_on_c, 1, 49, 127
1, 359394, Note_off_c, 1, 62, 0
1, 359394, Note_off_c, 1, 49, 0
1, 359395, Note_on_c, 1, 50, 127
1, 359395, Note_on_c, 1, 68, 127
1, 359501, Note_off_c, 1, 50, 0
1, 359502, Note_on_c, 1, 53, 127
1, 359608, Note_off_c, 1, 68, 0
1, 359608, Note_off_c, 1, 53, 0
1, 359609, Note_on_c, 1, 49, 127
1, 359609, Note_on_c, 1, 65, 127
1, 359715, Note_off_c, 1, 49, 0
1, 359716, Note_on_c, 1, 50, 127
1, 359822, Note_off_c, 1, 65, 0
1, 359822, Note_off_c, 1, 50, 0
1, 359823, Note_on_c, 1, 45, 127
1, 359823, Note_on_c, 1, 62, 127
1, 359929, Note_off_c, 1, 45, 0
1, 359930, Note_on_c, 1, 49, 127
1, 360036, Note_off_c, 1, 62, 0
1, 360036, Note_off_c, 1, 49, 0
1, 360037, Note_on_c, 1, 50, 127
1, 360037, Note_on_c, 1, 69, 127
1, 360143, Note_off_c, 1, 50, 0
1, 360144, Note_on_c, 1, 53, 127
1, 360234, Note_off_c, 1, 69, 0
1, 360250, Note_off_c, 1, 53, 0
1, 360251, Note_on_c, 1, 49, 127
1, 360251, Note_on_c, 1, 65, 127
1, 360357, Note_off_c, 1, 49, 0
1, 360358, Note_on_c, 1, 50, 127
1, 360421, Note_off_c, 1, 65, 0
1, 360464, Note_off_c, 1, 50, 0
1, 360465, Note_on_c, 1, 62, 127
1, 360465, Note_on_c, 1, 44, 127
1, 360571, Note_off_c, 1, 62, 0
1, 360572, Note_on_c, 1, 64, 127
1, 360678, Note_off_c, 1, 64, 0
1, 360679, Note_on_c, 1, 65, 127
1, 360785, Note_off_c, 1, 65, 0
1, 360786, Note_on_c, 1, 71, 127
1, 360892, Note_off_c, 1, 71, 0
1, 361106, Note_off_c, 1, 44, 0
1, 361107, Note_on_c, 1, 62, 127
1, 361213, Note_off_c, 1, 62, 0
1, 361214, Note_on_c, 1, 64, 127
1, 361320, Note_off_c, 1, 64, 0
1, 361321, Note_on_c, 1, 65, 127
1, 361427, Note_off_c, 1, 65, 0
1, 361428, Note_on_c, 1, 71, 127
1, 361534, Note_off_c, 1, 71, 0
1, 361535, Note_on_c, 1, 64, 127
1, 361641, Note_off_c, 1, 64, 0
1, 361642, Note_on_c, 1, 62, 127
1, 361748, Note_off_c, 1, 62, 0
1, 361749, Note_on_c, 1, 61, 127
1, 361749, Note_on_c, 1, 43, 127
1, 361855, Note_off_c, 1, 61, 0
1, 361856, Note_on_c, 1, 64, 127
1, 361962, Note_off_c, 1, 64, 0
1, 361963, Note_on_c, 1, 67, 127
1, 362069, Note_off_c, 1, 67, 0
1, 362070, Note_on_c, 1, 70, 127
1, 362176, Note_off_c, 1, 70, 0
1, 362177, Note_on_c, 1, 69, 127
1, 362283, Note_off_c, 1, 69, 0
1, 362390, Note_off_c, 1, 43, 0
1, 362391, Note_on_c, 1, 69, 127
1, 362391, Note_on_c, 1, 41, 127
1, 362497, Note_off_c, 1, 69, 0
1, 362497, Note_off_c, 1, 41, 0
1, 362498, Note_on_c, 1, 67, 127
1, 362498, Note_on_c, 1, 45, 127
1, 362604, Note_off_c, 1, 67, 0
1, 362604, Note_off_c, 1, 45, 0
1, 362605, Note_on_c, 1, 65, 127
1, 362605, Note_on_c, 1, 47, 127
1, 362711, Note_off_c, 1, 65, 0
1, 362711, Note_off_c, 1, 47, 0
1, 362712, Note_on_c, 1, 64, 127
1, 362712, Note_on_c, 1, 49, 127
1, 362818, Note_off_c, 1, 64, 0
1, 362818, Note_off_c, 1, 49, 0
1, 362819, Note_on_c, 1, 62, 127
1, 362819, Note_on_c, 1, 50, 127
1, 362925, Note_off_c, 1, 62, 0
1, 362925, Note_off_c, 1, 50, 0
1, 362926, Note_on_c, 1, 60, 127
1, 362926, Note_on_c, 1, 52, 127
1, 363032, Note_off_c, 1, 60, 0
1, 363032, Note_off_c, 1, 52, 0
1, 363033, Note_on_c, 1, 59, 127
1, 363033, Note_on_c, 1, 53, 127
1, 363139, Note_off_c, 1, 59, 0
1, 363140, Note_on_c, 1, 57, 127
1, 363246, Note_off_c, 1, 53, 0
1, 363246, Note_off_c, 1, 57, 0
1, 363247, Note_on_c, 1, 59, 127
1, 363247, Note_on_c, 1, 52, 127
1, 363353, Note_off_c, 1, 59, 0
1, 363354, Note_on_c, 1, 61, 127
1, 363460, Note_off_c, 1, 52, 0
1, 363460, Note_off_c, 1, 61, 0
1, 363461, Note_on_c, 1, 62, 127
1, 363461, Note_on_c, 1, 50, 127
1, 363567, Note_off_c, 1, 62, 0
1, 363568, Note_on_c, 1, 64, 127
1, 363674, Note_off_c, 1, 50, 0
1, 363674, Note_off_c, 1, 64, 0
1, 363675, Note_on_c, 1, 61, 127
1, 363675, Note_on_c, 1, 52, 127
1, 363781, Note_off_c, 1, 61, 0
1, 363782, Note_on_c, 1, 59, 127
1, 363888, Note_off_c, 1, 52, 0
1, 363888, Note_off_c, 1, 59, 0
1, 363889, Note_on_c, 1, 61, 127
1, 363889, Note_on_c, 1, 50, 127
1, 363995, Note_off_c, 1, 61, 0
1, 363996, Note_on_c, 1, 62, 127
1, 364102, Note_off_c, 1, 50, 0
1, 364102, Note_off_c, 1, 62, 0
1, 364103, Note_on_c, 1, 64, 127
1, 364103, Note_on_c, 1, 49, 127
1, 364209, Note_off_c, 1, 64, 0
1, 364210, Note_on_c, 1, 55, 127
1, 364316, Note_off_c, 1, 49, 0
1, 364316, Note_off_c, 1, 55, 0
1, 364317, Note_on_c, 1, 53, 127
1, 364317, Note_on_c, 1, 50, 127
1, 364426, Note_on_c, 1, 69, 127
1, 364534, Note_off_c, 1, 69, 0
1, 364535, Note_on_c, 1, 71, 127
1, 364643, Note_off_c, 1, 71, 0
1, 364644, Note_on_c, 1, 73, 127
1, 364752, Note_off_c, 1, 53, 0
1, 364752, Note_off_c, 1, 50, 0
1, 364752, Note_off_c, 1, 73, 0
1, 364753, Note_on_c, 1, 74, 127
1, 364753, Note_on_c, 1, 52, 127
1, 364753, Note_on_c, 1, 48, 127
1, 364861, Note_off_c, 1, 74, 0
1, 364862, Note_on_c, 1, 76, 127
1, 364970, Note_off_c, 1, 52, 0
1, 364970, Note_off_c, 1, 48, 0
1, 364970, Note_off_c, 1, 76, 0
1, 364971, Note_on_c, 1, 77, 127
1, 364971, Note_on_c, 1, 50, 127
1, 364971, Note_on_c, 1, 46, 127
1, 365188, Note_off_c, 1, 77, 0
1, 365188, Note_off_c, 1, 50, 0
1, 365189, Note_on_c, 1, 76, 127
1, 365189, Note_on_c, 1, 52, 127
1, 365402, Note_off_c, 1, 46, 0
1, 365405, Note_off_c, 1, 76, 0
1, 365405, Note_off_c, 1, 52, 0
1, 365406, Note_on_c, 1, 74, 127
1, 365406, Note_on_c, 1, 53, 127
1, 365406, Note_on_c, 1, 45, 127
1, 365623, Note_off_c, 1, 74, 0
1, 365623, Note_off_c, 1, 53, 0
1, 365623, Note_off_c, 1, 45, 0
1, 365624, Note_on_c, 1, 76, 127
1, 365624, Note_on_c, 1, 55, 127
1, 365624, Note_on_c, 1, 43, 127
1, 365841, Note_off_c, 1, 76, 0
1, 365841, Note_off_c, 1, 55, 0
1, 365842, Note_on_c, 1, 77, 127
1, 365842, Note_on_c, 1, 53, 127
1, 365950, Note_off_c, 1, 77, 0
1, 366055, Note_off_c, 1, 43, 0
1, 366058, Note_off_c, 1, 53, 0
1, 366059, Note_on_c, 1, 74, 127
1, 366059, Note_on_c, 1, 45, 127
1, 366059, Note_on_c, 1, 52, 127
1, 366167, Note_off_c, 1, 74, 0
1, 366168, Note_on_c, 1, 73, 127
1, 366276, Note_off_c, 1, 45, 0
1, 366276, Note_off_c, 1, 52, 0
1, 366276, Note_off_c, 1, 73, 0
1, 366277, Note_on_c, 1, 81, 127
1, 366277, Note_on_c, 1, 41, 127
1, 366277, Note_on_c, 1, 50, 127
1, 366387, Note_off_c, 1, 81, 0
1, 366388, Note_on_c, 1, 79, 127
1, 366498, Note_off_c, 1, 79, 0
1, 366499, Note_on_c, 1, 77, 127
1, 366609, Note_off_c, 1, 77, 0
1, 366610, Note_on_c, 1, 76, 127
1, 366720, Note_off_c, 1, 76, 0
1, 366721, Note_on_c, 1, 74, 127
1, 366831, Note_off_c, 1, 74, 0
1, 366832, Note_on_c, 1, 73, 127
1, 366942, Note_off_c, 1, 41, 0
1, 366942, Note_off_c, 1, 50, 0
1, 366942, Note_off_c, 1, 73, 0
1, 366943, Note_on_c, 1, 74, 127
1, 367055, Note_off_c, 1, 74, 0
1, 367056, Note_on_c, 1, 76, 127
1, 367168, Note_off_c, 1, 76, 0
1, 367169, Note_on_c, 1, 74, 127
1, 367281, Note_off_c, 1, 74, 0
1, 367282, Note_on_c, 1, 76, 127
1, 367394, Note_off_c, 1, 76, 0
1, 367395, Note_on_c, 1, 50, 127
1, 367395, Note_on_c, 1, 43, 127
1, 367395, Note_on_c, 1, 77, 127
1, 367395, Note_on_c, 1, 70, 127
1, 367507, Note_off_c, 1, 50, 0
1, 367508, Note_on_c, 1, 52, 127
1, 367619, Note_off_c, 1, 43, 0
1, 367620, Note_off_c, 1, 77, 0
1, 367620, Note_off_c, 1, 70, 0
1, 367620, Note_off_c, 1, 52, 0
1, 367621, Note_on_c, 1, 69, 127
1, 367621, Note_on_c, 1, 53, 127
1, 367621, Note_on_c, 1, 45, 127
1, 367873, Note_on_c, 1, 74, 127
1, 368119, Note_off_c, 1, 69, 0
1, 368123, Note_off_c, 1, 53, 0
1, 368123, Note_off_c, 1, 45, 0
1, 368123, Note_off_c, 1, 74, 0
1, 368124, Note_on_c, 1, 67, 127
1, 368124, Note_on_c, 1, 73, 127
1, 368124, Note_on_c, 1, 52, 127
1, 368124, Note_on_c, 1, 45, 127
1, 368444, Note_off_c, 1, 67, 0
1, 368444, Note_off_c, 1, 73, 0
1, 368444, Note_off_c, 1, 52, 0
1, 368444, Note_off_c, 1, 45, 0
1, 368463, Note_on_c, 1, 38, 127
1, 368463, Note_on_c, 1, 50, 127
1, 368463, Note_on_c, 1, 65, 127
1, 368463, Note_on_c, 1, 74, 127
1, 371263, Note_off_c, 1, 38, 0
1, 371263, Note_off_c, 1, 50, 0
1, 371263, Note_off_c, 1, 65, 0
1, 371263, Note_off_c, 1, 74, 0
1, 372889, Note_on_c, 1, 74, 127
1, 373089, Note_off_c, 1, 74, 0
1, 373091, Note_on_c, 1, 69, 127
1, 373091, Note_on_c, 1, 65, 127
1, 373091, Note_on_c, 1, 62, 127
1, 373091, Note_on_c, 1, 74, 127
1, 373293, Note_on_c, 1, 57, 127
1, 373392, Note_off_c, 1, 57, 0
1, 373394, Note_on_c, 1, 55, 127
1, 373493, Note_off_c, 1, 55, 0
1, 373495, Note_on_c, 1, 53, 127
1, 373594, Note_off_c, 1, 53, 0
1, 373891, Note_off_c, 1, 69, 0
1, 373891, Note_off_c, 1, 65, 0
1, 373891, Note_off_c, 1, 62, 0
1, 373899, Note_on_c, 1, 50, 127
1, 374101, Note_off_c, 1, 74, 0
1, 374101, Note_on_c, 1, 77, 127
1, 374301, Note_off_c, 1, 77, 0
1, 374303, Note_on_c, 1, 76, 127
1, 374503, Note_off_c, 1, 76, 0
1, 374707, Note_on_c, 1, 73, 127
1, 374707, Note_on_c, 1, 52, 127
1, 374907, Note_off_c, 1, 73, 0
1, 374907, Note_off_c, 1, 52, 0
1, 375515, Note_on_c, 1, 72, 127
1, 375614, Note_off_c, 1, 72, 0
1, 375616, Note_on_c, 1, 71, 127
1, 375715, Note_off_c, 1, 71, 0
1, 375717, Note_on_c, 1, 58, 127
1, 375917, Note_off_c, 1, 58, 0
1, 376323, Note_on_c, 1, 54, 127
1, 376323, Note_on_c, 1, 81, 127
1, 376523, Note_off_c, 1, 54, 0
1, 376927, Note_off_c, 1, 81, 0
1, 376929, Note_on_c, 1, 75, 127
1, 377129, Note_off_c, 1, 75, 0
1, 377535, Note_on_c, 1, 70, 127
1, 377735, Note_off_c, 1, 70, 0
1, 377927, Note_off_c, 1, 50, 0
1, 377940, Note_on_c, 1, 72, 127
1, 377940, Note_on_c, 1, 55, 127
1, 378140, Note_off_c, 1, 72, 0
1, 378140, Note_off_c, 1, 55, 0
1, 378142, Note_on_c, 1, 70, 127
1, 378142, Note_on_c, 1, 57, 127
1, 378342, Note_off_c, 1, 70, 0
1, 378342, Note_off_c, 1, 57, 0
1, 378344, Note_on_c, 1, 69, 127
1, 378344, Note_on_c, 1, 58, 127
1, 378544, Note_off_c, 1, 69, 0
1, 378546, Note_on_c, 1, 67, 127
1, 378748, Note_on_c, 1, 70, 127
1, 378849, Note_on_c, 1, 74, 127
1, 378948, Note_off_c, 1, 58, 0
1, 378950, Note_on_c, 1, 57, 127
1, 378950, Note_on_c, 1, 79, 127
1, 379150, Note_off_c, 1, 57, 0
1, 379152, Note_on_c, 1, 55, 127
1, 379350, Note_off_c, 1, 79, 0
1, 379352, Note_off_c, 1, 55, 0
1, 379354, Note_on_c, 1, 53, 127
1, 379438, Note_off_c, 1, 74, 0
1, 379548, Note_off_c, 1, 70, 0
1, 379554, Note_off_c, 1, 53, 0
1, 379556, Note_on_c, 1, 52, 127
1, 379756, Note_off_c, 1, 52, 0
1, 379859, Note_on_c, 1, 73, 127
1, 379958, Note_off_c, 1, 73, 0
1, 380263, Note_on_c, 1, 76, 127
1, 380360, Note_off_c, 1, 67, 0
1, 380362, Note_off_c, 1, 76, 0
1, 380364, Note_on_c, 1, 67, 127
1, 380364, Note_on_c, 1, 61, 127
1, 380566, Note_on_c, 1, 70, 127
1, 380764, Note_off_c, 1, 67, 0
1, 380766, Note_off_c, 1, 70, 0
1, 380768, Note_on_c, 1, 69, 127
1, 380968, Note_off_c, 1, 61, 0
1, 380968, Note_off_c, 1, 69, 0
1, 380970, Note_on_c, 1, 67, 127
1, 380970, Note_on_c, 1, 61, 127
1, 381170, Note_off_c, 1, 67, 0
1, 381170, Note_off_c, 1, 61, 0
1, 381172, Note_on_c, 1, 65, 127
1, 381172, Note_on_c, 1, 62, 127
1, 381372, Note_off_c, 1, 65, 0
1, 381374, Note_on_c, 1, 69, 127
1, 381473, Note_off_c, 1, 69, 0
1, 381475, Note_on_c, 1, 67, 127
1, 381574, Note_off_c, 1, 67, 0
1, 381776, Note_off_c, 1, 62, 0
1, 381778, Note_on_c, 1, 69, 127
1, 381778, Note_on_c, 1, 60, 127
1, 381978, Note_off_c, 1, 69, 0
1, 381978, Note_off_c, 1, 60, 0
1, 381980, Note_on_c, 1, 58, 127
1, 381980, Note_on_c, 1, 62, 127
1, 382180, Note_off_c, 1, 58, 0
1, 382182, Note_on_c, 1, 57, 127
1, 382382, Note_off_c, 1, 57, 0
1, 382384, Note_on_c, 1, 55, 127
1, 382584, Note_off_c, 1, 55, 0
1, 382586, Note_on_c, 1, 70, 127
1, 382586, Note_on_c, 1, 53, 127
1, 382780, Note_off_c, 1, 62, 0
1, 382786, Note_off_c, 1, 70, 0
1, 382786, Note_off_c, 1, 53, 0
1, 382788, Note_on_c, 1, 52, 127
1, 382788, Note_on_c, 1, 60, 127
1, 382988, Note_off_c, 1, 52, 0
1, 382990, Note_on_c, 1, 55, 127
1, 382990, Note_on_c, 1, 64, 127
1, 383089, Note_off_c, 1, 55, 0
1, 383091, Note_on_c, 1, 53, 127
1, 383190, Note_off_c, 1, 64, 0
1, 383190, Note_off_c, 1, 53, 0
1, 383192, Note_on_c, 1, 67, 127
1, 383392, Note_off_c, 1, 67, 0
1, 383394, Note_on_c, 1, 70, 127
1, 383588, Note_off_c, 1, 60, 0
1, 383594, Note_off_c, 1, 70, 0
1, 383596, Note_on_c, 1, 48, 127
1, 383596, Note_on_c, 1, 64, 127
1, 383798, Note_on_c, 1, 70, 127
1, 383998, Note_off_c, 1, 48, 0
1, 383998, Note_off_c, 1, 70, 0
1, 384000, Note_on_c, 1, 69, 127
1, 384000, Note_on_c, 1, 60, 127
1, 384200, Note_off_c, 1, 69, 0
1, 384202, Note_on_c, 1, 67, 127
1, 384396, Note_off_c, 1, 64, 0
1, 384400, Note_off_c, 1, 60, 0
1, 384402, Note_off_c, 1, 67, 0
1, 384404, Note_on_c, 1, 69, 127
1, 384404, Note_on_c, 1, 53, 127
1, 384404, Note_on_c, 1, 65, 127
1, 384604, Note_off_c, 1, 69, 0
1, 384606, Note_on_c, 1, 72, 127
1, 384705, Note_off_c, 1, 72, 0
1, 384707, Note_on_c, 1, 70, 127
1, 384806, Note_off_c, 1, 70, 0
1, 385008, Note_off_c, 1, 53, 0
1, 385010, Note_on_c, 1, 52, 127
1, 385204, Note_off_c, 1, 65, 0
1, 385210, Note_off_c, 1, 52, 0
1, 385212, Note_on_c, 1, 50, 127
1, 385212, Note_on_c, 1, 65, 127
1, 385412, Note_off_c, 1, 50, 0
1, 385414, Note_on_c, 1, 48, 127
1, 385614, Note_off_c, 1, 48, 0
1, 385616, Note_on_c, 1, 46, 127
1, 385816, Note_off_c, 1, 46, 0
1, 385818, Note_on_c, 1, 77, 127
1, 385818, Note_on_c, 1, 45, 127
1, 386012, Note_off_c, 1, 65, 0
1, 386018, Note_off_c, 1, 77, 0
1, 386018, Note_off_c, 1, 45, 0
1, 386020, Note_on_c, 1, 46, 127
1, 386020, Note_on_c, 1, 67, 127
1, 386220, Note_off_c, 1, 46, 0
1, 386222, Note_on_c, 1, 50, 127
1, 386222, Note_on_c, 1, 70, 127
1, 386321, Note_off_c, 1, 50, 0
1, 386323, Note_on_c, 1, 48, 127
1, 386422, Note_off_c, 1, 70, 0
1, 386422, Note_off_c, 1, 48, 0
1, 386424, Note_on_c, 1, 74, 127
1, 386624, Note_off_c, 1, 74, 0
1, 386626, Note_on_c, 1, 77, 127
1, 386820, Note_off_c, 1, 67, 0
1, 386826, Note_off_c, 1, 77, 0
1, 386828, Note_on_c, 1, 43, 127
1, 386828, Note_on_c, 1, 70, 127
1, 387030, Note_on_c, 1, 77, 127
1, 387230, Note_off_c, 1, 43, 0
1, 387230, Note_off_c, 1, 77, 0
1, 387232, Note_on_c, 1, 76, 127
1, 387232, Note_on_c, 1, 55, 127
1, 387432, Note_off_c, 1, 76, 0
1, 387434, Note_on_c, 1, 74, 127
1, 387628, Note_off_c, 1, 70, 0
1, 387634, Note_off_c, 1, 55, 0
1, 387634, Note_off_c, 1, 74, 0
1, 387636, Note_on_c, 1, 73, 127
1, 387636, Note_on_c, 1, 57, 127
1, 387836, Note_off_c, 1, 73, 0
1, 387838, Note_on_c, 1, 71, 127
1, 388038, Note_off_c, 1, 71, 0
1, 388040, Note_on_c, 1, 69, 127
1, 388040, Note_on_c, 1, 61, 127
1, 388240, Note_off_c, 1, 69, 0
1, 388440, Note_off_c, 1, 61, 0
1, 388444, Note_on_c, 1, 72, 127
1, 388444, Note_on_c, 1, 65, 127
1, 388543, Note_off_c, 1, 72, 0
1, 388644, Note_off_c, 1, 57, 0
1, 388646, Note_on_c, 1, 60, 127
1, 388846, Note_off_c, 1, 60, 0
1, 388848, Note_on_c, 1, 59, 127
1, 389048, Note_off_c, 1, 59, 0
1, 389252, Note_on_c, 1, 56, 127
1, 389452, Note_off_c, 1, 56, 0
1, 389654, Note_off_c, 1, 65, 0
1, 389656, Note_on_c, 1, 74, 127
1, 389858, Note_on_c, 1, 52, 127
1, 390058, Note_off_c, 1, 52, 0
1, 390060, Note_on_c, 1, 55, 127
1, 390060, Note_on_c, 1, 64, 127
1, 390245, Note_off_c, 1, 74, 0
1, 390262, Note_on_c, 1, 77, 127
1, 390462, Note_off_c, 1, 77, 0
1, 390464, Note_on_c, 1, 76, 127
1, 390664, Note_off_c, 1, 55, 0
1, 390664, Note_off_c, 1, 76, 0
1, 390860, Note_off_c, 1, 64, 0
1, 390868, Note_on_c, 1, 73, 127
1, 390868, Note_on_c, 1, 69, 127
1, 390868, Note_on_c, 1, 67, 127
1, 390868, Note_on_c, 1, 64, 127
1, 391068, Note_off_c, 1, 73, 0
1, 391070, Note_on_c, 1, 74, 127
1, 391270, Note_off_c, 1, 74, 0
1, 391272, Note_on_c, 1, 76, 127
1, 391457, Note_off_c, 1, 69, 0
1, 391457, Note_off_c, 1, 67, 0
1, 391474, Note_on_c, 1, 58, 127
1, 391674, Note_off_c, 1, 58, 0
1, 391676, Note_on_c, 1, 57, 127
1, 391876, Note_off_c, 1, 76, 0
1, 391876, Note_off_c, 1, 57, 0
1, 391878, Note_off_c, 1, 64, 0
1, 391878, Note_on_c, 1, 55, 127
1, 392078, Note_off_c, 1, 55, 0
1, 392080, Note_on_c, 1, 74, 127
1, 392080, Note_on_c, 1, 53, 127
1, 392280, Note_off_c, 1, 74, 0
1, 392280, Note_off_c, 1, 53, 0
1, 392282, Note_on_c, 1, 73, 127
1, 392282, Note_on_c, 1, 52, 127
1, 392482, Note_off_c, 1, 73, 0
1, 392482, Note_off_c, 1, 52, 0
1, 392484, Note_on_c, 1, 74, 127
1, 392484, Note_on_c, 1, 53, 127
1, 392484, Note_on_c, 1, 69, 127
1, 392684, Note_off_c, 1, 74, 0
1, 392686, Note_on_c, 1, 76, 127
1, 392886, Note_off_c, 1, 53, 0
1, 392886, Note_off_c, 1, 76, 0
1, 392888, Note_on_c, 1, 52, 127
1, 392888, Note_on_c, 1, 77, 127
1, 393088, Note_off_c, 1, 52, 0
1, 393090, Note_on_c, 1, 50, 127
1, 393290, Note_off_c, 1, 50, 0
1, 393292, Note_on_c, 1, 62, 127
1, 393492, Note_off_c, 1, 77, 0
1, 393694, Note_off_c, 1, 69, 0
1, 393896, Note_off_c, 1, 62, 0
1, 393898, Note_on_c, 1, 62, 127
1, 393898, Note_on_c, 1, 74, 127
1, 394098, Note_off_c, 1, 62, 0
1, 394100, Note_on_c, 1, 83, 127
1, 394100, Note_on_c, 1, 59, 127
1, 394100, Note_on_c, 1, 56, 127
1, 394100, Note_on_c, 1, 64, 127
1, 394298, Note_off_c, 1, 74, 0
1, 394302, Note_on_c, 1, 76, 127
1, 394395, Note_off_c, 1, 83, 0
1, 394502, Note_off_c, 1, 76, 0
1, 394504, Note_on_c, 1, 77, 127
1, 394704, Note_off_c, 1, 59, 0
1, 394704, Note_off_c, 1, 56, 0
1, 394704, Note_off_c, 1, 77, 0
1, 394706, Note_on_c, 1, 57, 127
1, 394805, Note_off_c, 1, 57, 0
1, 394900, Note_off_c, 1, 64, 0
1, 394908, Note_on_c, 1, 74, 127
1, 394908, Note_on_c, 1, 50, 127
1, 394908, Note_on_c, 1, 69, 127
1, 395041, Note_off_c, 1, 74, 0
1, 395043, Note_on_c, 1, 72, 127
1, 395108, Note_off_c, 1, 50, 0
1, 395110, Note_on_c, 1, 53, 127
1, 395116, Note_off_c, 1, 72, 0
1, 395309, Note_off_c, 1, 53, 0
1, 395311, Note_on_c, 1, 52, 127
1, 395496, Note_off_c, 1, 69, 0
1, 395511, Note_off_c, 1, 52, 0
1, 395513, Note_on_c, 1, 68, 127
1, 395513, Note_on_c, 1, 71, 127
1, 395513, Note_on_c, 1, 50, 127
1, 395713, Note_off_c, 1, 68, 0
1, 395713, Note_off_c, 1, 71, 0
1, 395713, Note_off_c, 1, 50, 0
1, 395715, Note_on_c, 1, 49, 127
1, 395715, Note_on_c, 1, 69, 127
1, 395715, Note_on_c, 1, 76, 127
1, 395915, Note_off_c, 1, 49, 0
1, 395917, Note_on_c, 1, 50, 127
1, 396117, Note_off_c, 1, 50, 0
1, 396119, Note_on_c, 1, 52, 127
1, 396319, Note_off_c, 1, 69, 0
1, 396321, Note_on_c, 1, 70, 127
1, 396521, Note_off_c, 1, 70, 0
1, 396723, Note_off_c, 1, 52, 0
1, 396725, Note_on_c, 1, 67, 127
1, 396925, Note_off_c, 1, 67, 0
1, 396927, Note_on_c, 1, 65, 127
1, 397127, Note_off_c, 1, 65, 0
1, 397129, Note_on_c, 1, 64, 127
1, 397329, Note_off_c, 1, 76, 0
1, 397329, Note_off_c, 1, 64, 0
1, 397331, Note_on_c, 1, 50, 127
1, 397331, Note_on_c, 1, 65, 127
1, 397531, Note_off_c, 1, 50, 0
1, 397533, Note_on_c, 1, 52, 127
1, 397733, Note_off_c, 1, 65, 0
1, 397733, Note_off_c, 1, 52, 0
1, 397735, Note_on_c, 1, 64, 127
1, 397735, Note_on_c, 1, 53, 127
1, 397935, Note_off_c, 1, 64, 0
1, 397937, Note_on_c, 1, 62, 127
1, 398139, Note_on_c, 1, 65, 127
1, 398240, Note_on_c, 1, 69, 127
1, 398339, Note_off_c, 1, 53, 0
1, 398341, Note_on_c, 1, 74, 127
1, 398543, Note_on_c, 1, 52, 127
1, 398741, Note_off_c, 1, 74, 0
1, 398743, Note_off_c, 1, 52, 0
1, 398745, Note_on_c, 1, 50, 127
1, 398829, Note_off_c, 1, 69, 0
1, 398939, Note_off_c, 1, 65, 0
1, 398945, Note_off_c, 1, 50, 0
1, 398947, Note_on_c, 1, 59, 127
1, 399147, Note_off_c, 1, 59, 0
1, 399250, Note_on_c, 1, 68, 127
1, 399349, Note_off_c, 1, 68, 0
1, 399551, Note_off_c, 1, 62, 0
1, 399553, Note_on_c, 1, 69, 127
1, 399553, Note_on_c, 1, 50, 127
1, 399652, Note_off_c, 1, 69, 0
1, 399654, Note_on_c, 1, 71, 127
1, 399753, Note_off_c, 1, 50, 0
1, 399753, Note_off_c, 1, 71, 0
1, 399755, Note_on_c, 1, 62, 127
1, 399755, Note_on_c, 1, 56, 127
1, 399957, Note_on_c, 1, 65, 127
1, 400155, Note_off_c, 1, 62, 0
1, 400157, Note_off_c, 1, 65, 0
1, 400159, Note_on_c, 1, 64, 127
1, 400359, Note_off_c, 1, 56, 0
1, 400359, Note_off_c, 1, 64, 0
1, 400361, Note_on_c, 1, 62, 127
1, 400361, Note_on_c, 1, 56, 127
1, 400561, Note_off_c, 1, 62, 0
1, 400561, Note_off_c, 1, 56, 0
1, 400563, Note_on_c, 1, 62, 127
1, 400563, Note_on_c, 1, 57, 127
1, 400763, Note_off_c, 1, 62, 0
1, 400765, Note_on_c, 1, 59, 127
1, 400965, Note_off_c, 1, 59, 0
1, 400967, Note_on_c, 1, 60, 127
1, 401167, Note_off_c, 1, 57, 0
1, 401167, Note_off_c, 1, 60, 0
1, 401169, Note_on_c, 1, 64, 127
1, 401169, Note_on_c, 1, 55, 127
1, 401369, Note_off_c, 1, 64, 0
1, 401369, Note_off_c, 1, 55, 0
1, 401371, Note_on_c, 1, 53, 127
1, 401371, Note_on_c, 1, 61, 127
1, 401472, Note_on_c, 1, 64, 127
1, 401571, Note_off_c, 1, 53, 0
1, 401573, Note_on_c, 1, 52, 127
1, 401573, Note_on_c, 1, 67, 127
1, 401773, Note_off_c, 1, 52, 0
1, 401775, Note_on_c, 1, 50, 127
1, 401975, Note_off_c, 1, 67, 0
1, 401975, Note_off_c, 1, 50, 0
1, 401977, Note_on_c, 1, 49, 127
1, 402171, Note_off_c, 1, 61, 0
1, 402177, Note_off_c, 1, 49, 0
1, 402179, Note_on_c, 1, 62, 127
1, 402179, Note_on_c, 1, 57, 127
1, 402187, Note_off_c, 1, 64, 0
1, 402379, Note_off_c, 1, 62, 0
1, 402579, Note_off_c, 1, 57, 0
1, 402583, Note_on_c, 1, 65, 127
1, 402783, Note_off_c, 1, 65, 0
1, 402785, Note_on_c, 1, 69, 127
1, 402785, Note_on_c, 1, 52, 127
1, 402985, Note_off_c, 1, 69, 0
1, 402985, Note_off_c, 1, 52, 0
1, 402987, Note_on_c, 1, 71, 127
1, 402987, Note_on_c, 1, 50, 127
1, 403187, Note_off_c, 1, 71, 0
1, 403187, Note_off_c, 1, 50, 0
1, 403189, Note_on_c, 1, 72, 127
1, 403189, Note_on_c, 1, 48, 127
1, 403389, Note_off_c, 1, 72, 0
1, 403389, Note_off_c, 1, 48, 0
1, 403391, Note_on_c, 1, 74, 127
1, 403391, Note_on_c, 1, 47, 127
1, 403591, Note_off_c, 1, 74, 0
1, 403591, Note_off_c, 1, 47, 0
1, 403593, Note_on_c, 1, 74, 127
1, 403593, Note_on_c, 1, 45, 127
1, 403793, Note_off_c, 1, 74, 0
1, 403793, Note_off_c, 1, 45, 0
1, 403795, Note_on_c, 1, 74, 127
1, 403795, Note_on_c, 1, 44, 127
1, 403995, Note_off_c, 1, 74, 0
1, 403997, Note_on_c, 1, 71, 127
1, 403997, Note_on_c, 1, 47, 127
1, 404197, Note_off_c, 1, 71, 0
1, 404199, Note_on_c, 1, 68, 127
1, 404199, Note_on_c, 1, 52, 127
1, 404399, Note_off_c, 1, 68, 0
1, 404797, Note_off_c, 1, 47, 0
1, 404803, Note_off_c, 1, 44, 0
1, 404805, Note_on_c, 1, 76, 127
1, 404805, Note_on_c, 1, 45, 127
1, 404904, Note_off_c, 1, 76, 0
1, 404906, Note_on_c, 1, 77, 127
1, 404999, Note_off_c, 1, 52, 0
1, 405005, Note_off_c, 1, 45, 0
1, 405005, Note_off_c, 1, 77, 0
1, 405007, Note_on_c, 1, 47, 127
1, 405007, Note_on_c, 1, 76, 127
1, 405207, Note_off_c, 1, 47, 0
1, 405209, Note_on_c, 1, 48, 127
1, 405307, Note_off_c, 1, 76, 0
1, 405308, Note_on_c, 1, 74, 127
1, 405408, Note_off_c, 1, 74, 0
1, 405409, Note_off_c, 1, 48, 0
1, 405411, Note_on_c, 1, 81, 127
1, 405411, Note_on_c, 1, 50, 127
1, 405411, Note_on_c, 1, 76, 127
1, 405575, Note_on_c, 1, 80, 127
1, 405577, Note_off_c, 1, 81, 0
1, 405611, Note_off_c, 1, 50, 0
1, 405613, Note_on_c, 1, 52, 127
1, 405674, Note_off_c, 1, 80, 0
1, 405712, Note_off_c, 1, 52, 0
1, 405714, Note_on_c, 1, 53, 127
1, 405813, Note_off_c, 1, 53, 0
1, 406017, Note_on_c, 1, 78, 127
1, 406116, Note_off_c, 1, 78, 0
1, 406211, Note_off_c, 1, 76, 0
1, 406219, Note_on_c, 1, 81, 127
1, 406219, Note_on_c, 1, 48, 127
1, 406419, Note_off_c, 1, 81, 0
1, 406419, Note_off_c, 1, 48, 0
1, 406421, Note_on_c, 1, 83, 127
1, 406421, Note_on_c, 1, 47, 127
1, 406520, Note_off_c, 1, 83, 0
1, 406522, Note_on_c, 1, 84, 127
1, 406621, Note_off_c, 1, 47, 0
1, 406621, Note_off_c, 1, 84, 0
1, 406623, Note_on_c, 1, 83, 127
1, 406623, Note_on_c, 1, 45, 127
1, 406823, Note_off_c, 1, 83, 0
1, 406823, Note_off_c, 1, 45, 0
1, 406825, Note_on_c, 1, 74, 127
1, 406825, Note_on_c, 1, 44, 127
1, 406825, Note_on_c, 1, 71, 127
1, 407025, Note_off_c, 1, 74, 0
1, 407025, Note_off_c, 1, 44, 0
1, 407027, Note_on_c, 1, 45, 127
1, 407142, Note_on_c, 1, 72, 127
1, 407215, Note_off_c, 1, 72, 0
1, 407413, Note_off_c, 1, 71, 0
1, 407428, Note_off_c, 1, 45, 0
1, 407430, Note_on_c, 1, 50, 127
1, 407430, Note_on_c, 1, 69, 127
1, 407832, Note_off_c, 1, 50, 0
1, 407834, Note_on_c, 1, 52, 127
1, 408230, Note_off_c, 1, 69, 0
1, 408236, Note_off_c, 1, 52, 0
1, 408238, Note_on_c, 1, 72, 127
1, 408238, Note_on_c, 1, 68, 127
1, 408238, Note_on_c, 1, 40, 127
1, 408337, Note_off_c, 1, 72, 0
1, 408339, Note_on_c, 1, 71, 127
1, 408438, Note_off_c, 1, 68, 0
1, 408438, Note_off_c, 1, 71, 0
1, 408440, Note_on_c, 1, 69, 127
1, 408640, Note_off_c, 1, 40, 0
1, 408640, Note_off_c, 1, 69, 0
1, 408642, Note_on_c, 1, 69, 127
1, 408642, Note_on_c, 1, 45, 127
1, 408844, Note_on_c, 1, 52, 127
1, 408943, Note_off_c, 1, 52, 0
1, 408945, Note_on_c, 1, 50, 127
1, 409044, Note_off_c, 1, 50, 0
1, 409046, Note_on_c, 1, 49, 127
1, 409145, Note_off_c, 1, 49, 0
1, 409450, Note_on_c, 1, 53, 127
1, 409650, Note_off_c, 1, 69, 0
1, 409652, Note_on_c, 1, 59, 127
1, 409854, Note_on_c, 1, 62, 127
1, 410056, Note_on_c, 1, 68, 127
1, 410241, Note_off_c, 1, 59, 0
1, 410254, Note_off_c, 1, 62, 0
1, 410256, Note_off_c, 1, 53, 0
1, 410256, Note_off_c, 1, 68, 0
1, 410258, Note_on_c, 1, 64, 127
1, 410258, Note_on_c, 1, 61, 127
1, 411661, Note_off_c, 1, 45, 0
1, 411662, Note_on_c, 1, 57, 127
1, 411662, Note_on_c, 1, 76, 127
1, 411672, Note_off_c, 1, 64, 0
1, 411672, Note_off_c, 1, 61, 0
1, 411862, Note_off_c, 1, 57, 0
1, 411862, Note_off_c, 1, 76, 0
1, 411876, Note_on_c, 1, 69, 127
1, 411876, Note_on_c, 1, 73, 127
1, 411876, Note_on_c, 1, 76, 127
1, 411876, Note_on_c, 1, 57, 127
1, 412076, Note_off_c, 1, 69, 0
1, 412076, Note_off_c, 1, 73, 0
1, 412076, Note_off_c, 1, 76, 0
1, 412078, Note_on_c, 1, 79, 127
1, 412177, Note_off_c, 1, 79, 0
1, 412179, Note_on_c, 1, 77, 127
1, 412278, Note_off_c, 1, 77, 0
1, 412884, Note_off_c, 1, 57, 0
1, 412886, Note_on_c, 1, 76, 127
1, 412886, Note_on_c, 1, 56, 127
1, 412985, Note_off_c, 1, 76, 0
1, 412987, Note_on_c, 1, 74, 127
1, 413086, Note_off_c, 1, 56, 0
1, 413086, Note_off_c, 1, 74, 0
1, 413088, Note_on_c, 1, 73, 127
1, 413088, Note_on_c, 1, 57, 127
1, 413187, Note_off_c, 1, 73, 0
1, 413189, Note_on_c, 1, 74, 127
1, 413288, Note_off_c, 1, 57, 0
1, 413288, Note_off_c, 1, 74, 0
1, 413290, Note_on_c, 1, 76, 127
1, 413290, Note_on_c, 1, 59, 127
1, 413490, Note_off_c, 1, 76, 0
1, 413490, Note_off_c, 1, 59, 0
1, 413492, Note_on_c, 1, 61, 127
1, 413492, Note_on_c, 1, 69, 127
1, 413692, Note_off_c, 1, 61, 0
1, 413694, Note_on_c, 1, 59, 127
1, 413894, Note_off_c, 1, 59, 0
1, 413896, Note_on_c, 1, 57, 127
1, 414096, Note_off_c, 1, 69, 0
1, 414096, Note_off_c, 1, 57, 0
1, 414098, Note_on_c, 1, 64, 127
1, 414098, Note_on_c, 1, 71, 127
1, 414278, Note_off_c, 1, 64, 0
1, 414298, Note_off_c, 1, 71, 0
1, 414300, Note_on_c, 1, 73, 127
1, 414300, Note_on_c, 1, 58, 127
1, 414500, Note_off_c, 1, 73, 0
1, 414502, Note_on_c, 1, 74, 127
1, 414702, Note_off_c, 1, 74, 0
1, 414704, Note_on_c, 1, 76, 127
1, 414904, Note_off_c, 1, 58, 0
1, 414904, Note_off_c, 1, 76, 0
1, 414906, Note_on_c, 1, 77, 127
1, 414906, Note_on_c, 1, 58, 127
1, 415106, Note_off_c, 1, 77, 0
1, 415108, Note_on_c, 1, 79, 127
1, 415108, Note_on_c, 1, 49, 127
1, 415159, Note_off_c, 1, 58, 0
1, 415309, Note_off_c, 1, 79, 0
1, 415311, Note_on_c, 1, 81, 127
1, 415511, Note_off_c, 1, 81, 0
1, 415513, Note_on_c, 1, 82, 127
1, 415713, Note_off_c, 1, 49, 0
1, 415713, Note_off_c, 1, 82, 0
1, 415715, Note_on_c, 1, 79, 127
1, 415715, Note_on_c, 1, 57, 127
1, 415915, Note_off_c, 1, 79, 0
1, 415915, Note_off_c, 1, 57, 0
1, 415917, Note_on_c, 1, 79, 127
1, 415917, Note_on_c, 1, 59, 127
1, 416050, Note_off_c, 1, 79, 0
1, 416052, Note_on_c, 1, 77, 127
1, 416117, Note_off_c, 1, 59, 0
1, 416119, Note_on_c, 1, 61, 127
1, 416125, Note_off_c, 1, 77, 0
1, 416318, Note_off_c, 1, 61, 0
1, 416320, Note_on_c, 1, 62, 127
1, 416520, Note_off_c, 1, 62, 0
1, 416522, Note_on_c, 1, 76, 127
1, 416522, Note_on_c, 1, 64, 127
1, 416722, Note_off_c, 1, 76, 0
1, 416722, Note_off_c, 1, 64, 0
1, 416724, Note_on_c, 1, 81, 127
1, 416724, Note_on_c, 1, 65, 127
1, 416924, Note_off_c, 1, 81, 0
1, 416924, Note_off_c, 1, 65, 0
1, 416926, Note_on_c, 1, 79, 127
1, 416926, Note_on_c, 1, 70, 127
1, 417126, Note_off_c, 1, 79, 0
1, 417126, Note_off_c, 1, 70, 0
1, 417128, Note_on_c, 1, 77, 127
1, 417128, Note_on_c, 1, 69, 127
1, 417328, Note_off_c, 1, 77, 0
1, 417328, Note_off_c, 1, 69, 0
1, 417330, Note_on_c, 1, 79, 127
1, 417330, Note_on_c, 1, 67, 127
1, 417429, Note_off_c, 1, 79, 0
1, 417431, Note_on_c, 1, 81, 127
1, 417530, Note_off_c, 1, 67, 0
1, 417530, Note_off_c, 1, 81, 0
1, 417532, Note_on_c, 1, 74, 127
1, 417532, Note_on_c, 1, 65, 127
1, 417732, Note_off_c, 1, 74, 0
1, 417732, Note_off_c, 1, 65, 0
1, 417734, Note_on_c, 1, 76, 127
1, 417734, Note_on_c, 1, 64, 127
1, 417833, Note_off_c, 1, 76, 0
1, 417835, Note_on_c, 1, 77, 127
1, 417934, Note_off_c, 1, 64, 0
1, 417934, Note_off_c, 1, 77, 0
1, 417936, Note_on_c, 1, 76, 127
1, 417936, Note_on_c, 1, 62, 127
1, 418136, Note_off_c, 1, 76, 0
1, 418136, Note_off_c, 1, 62, 0
1, 418138, Note_on_c, 1, 77, 127
1, 418138, Note_on_c, 1, 61, 127
1, 418237, Note_off_c, 1, 77, 0
1, 418239, Note_on_c, 1, 79, 127
1, 418338, Note_off_c, 1, 61, 0
1, 418338, Note_off_c, 1, 79, 0
1, 418340, Note_on_c, 1, 77, 127
1, 418340, Note_on_c, 1, 62, 127
1, 418540, Note_off_c, 1, 77, 0
1, 418542, Note_on_c, 1, 76, 127
1, 418742, Note_off_c, 1, 62, 0
1, 418742, Note_off_c, 1, 76, 0
1, 418744, Note_on_c, 1, 74, 127
1, 418744, Note_on_c, 1, 50, 127
1, 418944, Note_off_c, 1, 74, 0
1, 418944, Note_off_c, 1, 50, 0
1, 418946, Note_on_c, 1, 81, 127
1, 418946, Note_on_c, 1, 52, 127
1, 419146, Note_off_c, 1, 81, 0
1, 419146, Note_off_c, 1, 52, 0
1, 419148, Note_on_c, 1, 75, 127
1, 419148, Note_on_c, 1, 54, 127
1, 419148, Note_on_c, 1, 72, 127
1, 419229, Note_on_c, 1, 74, 127
1, 419233, Note_off_c, 1, 75, 0
1, 419314, Note_off_c, 1, 74, 0
1, 419348, Note_off_c, 1, 54, 0
1, 419350, Note_on_c, 1, 55, 127
1, 419550, Note_off_c, 1, 55, 0
1, 419552, Note_on_c, 1, 57, 127
1, 419752, Note_off_c, 1, 57, 0
1, 419754, Note_on_c, 1, 58, 127
1, 419948, Note_off_c, 1, 72, 0
1, 419954, Note_off_c, 1, 58, 0
1, 419956, Note_on_c, 1, 67, 127
1, 419956, Note_on_c, 1, 60, 127
1, 420081, Note_on_c, 1, 66, 127
1, 420089, Note_off_c, 1, 67, 0
1, 420154, Note_off_c, 1, 66, 0
1, 420158, Note_on_c, 1, 57, 127
1, 420256, Note_off_c, 1, 57, 0
1, 420258, Note_on_c, 1, 55, 127
1, 420357, Note_off_c, 1, 55, 0
1, 420359, Note_on_c, 1, 54, 127
1, 420458, Note_off_c, 1, 54, 0
1, 420561, Note_on_c, 1, 62, 127
1, 420761, Note_off_c, 1, 62, 0
1, 420763, Note_on_c, 1, 64, 127
1, 420763, Note_on_c, 1, 50, 127
1, 420963, Note_off_c, 1, 64, 0
1, 421165, Note_off_c, 1, 60, 0
1, 421167, Note_on_c, 1, 58, 127
1, 421367, Note_off_c, 1, 58, 0
1, 421369, Note_on_c, 1, 69, 127
1, 421563, Note_off_c, 1, 50, 0
1, 421569, Note_off_c, 1, 69, 0
1, 421571, Note_on_c, 1, 70, 127
1, 421571, Note_on_c, 1, 55, 127
1, 421771, Note_off_c, 1, 70, 0
1, 421771, Note_off_c, 1, 55, 0
1, 421773, Note_on_c, 1, 67, 127
1, 421773, Note_on_c, 1, 53, 127
1, 421872, Note_off_c, 1, 67, 0
1, 421874, Note_on_c, 1, 69, 127
1, 421973, Note_off_c, 1, 53, 0
1, 421973, Note_off_c, 1, 69, 0
1, 421975, Note_on_c, 1, 70, 127
1, 421975, Note_on_c, 1, 51, 127
1, 422074, Note_off_c, 1, 70, 0
1, 422076, Note_on_c, 1, 69, 127
1, 422175, Note_off_c, 1, 51, 0
1, 422175, Note_off_c, 1, 69, 0
1, 422177, Note_on_c, 1, 67, 127
1, 422177, Note_on_c, 1, 50, 127
1, 422377, Note_off_c, 1, 67, 0
1, 422377, Note_off_c, 1, 50, 0
1, 422379, Note_on_c, 1, 48, 127
1, 422379, Note_on_c, 1, 75, 127
1, 422579, Note_off_c, 1, 48, 0
1, 422581, Note_on_c, 1, 67, 127
1, 422581, Note_on_c, 1, 46, 127
1, 422781, Note_off_c, 1, 67, 0
1, 422781, Note_off_c, 1, 46, 0
1, 422783, Note_on_c, 1, 72, 127
1, 422783, Note_on_c, 1, 45, 127
1, 422968, Note_off_c, 1, 75, 0
1, 422983, Note_off_c, 1, 72, 0
1, 422983, Note_off_c, 1, 45, 0
1, 422985, Note_on_c, 1, 75, 127
1, 422985, Note_on_c, 1, 70, 127
1, 422985, Note_on_c, 1, 43, 127
1, 423185, Note_off_c, 1, 75, 0
1, 423185, Note_off_c, 1, 70, 0
1, 423185, Note_off_c, 1, 43, 0
1, 423187, Note_on_c, 1, 69, 127
1, 423187, Note_on_c, 1, 75, 127
1, 423187, Note_on_c, 1, 41, 127
1, 423387, Note_off_c, 1, 69, 0
1, 423387, Note_off_c, 1, 75, 0
1, 423387, Note_off_c, 1, 41, 0
1, 423389, Note_on_c, 1, 65, 127
1, 423389, Note_on_c, 1, 51, 127
1, 423488, Note_off_c, 1, 65, 0
1, 423490, Note_on_c, 1, 67, 127
1, 423589, Note_off_c, 1, 51, 0
1, 423589, Note_off_c, 1, 67, 0
1, 423591, Note_on_c, 1, 69, 127
1, 423591, Note_on_c, 1, 50, 127
1, 423690, Note_off_c, 1, 69, 0
1, 423692, Note_on_c, 1, 67, 127
1, 423791, Note_off_c, 1, 50, 0
1, 423791, Note_off_c, 1, 67, 0
1, 423793, Note_on_c, 1, 65, 127
1, 423793, Note_on_c, 1, 48, 127
1, 423993, Note_off_c, 1, 65, 0
1, 423993, Note_off_c, 1, 48, 0
1, 423995, Note_on_c, 1, 46, 127
1, 423995, Note_on_c, 1, 74, 127
1, 424195, Note_off_c, 1, 46, 0
1, 424197, Note_on_c, 1, 65, 127
1, 424197, Note_on_c, 1, 45, 127
1, 424397, Note_off_c, 1, 65, 0
1, 424397, Note_off_c, 1, 45, 0
1, 424399, Note_on_c, 1, 70, 127
1, 424399, Note_on_c, 1, 43, 127
1, 424584, Note_off_c, 1, 74, 0
1, 424599, Note_off_c, 1, 70, 0
1, 424599, Note_off_c, 1, 43, 0
1, 424601, Note_on_c, 1, 74, 127
1, 424601, Note_on_c, 1, 69, 127
1, 424601, Note_on_c, 1, 41, 127
1, 424801, Note_off_c, 1, 74, 0
1, 424801, Note_off_c, 1, 69, 0
1, 424801, Note_off_c, 1, 41, 0
1, 424803, Note_on_c, 1, 74, 127
1, 424803, Note_on_c, 1, 67, 127
1, 424803, Note_on_c, 1, 39, 127
1, 425003, Note_off_c, 1, 74, 0
1, 425005, Note_on_c, 1, 79, 127
1, 425104, Note_off_c, 1, 79, 0
1, 425106, Note_on_c, 1, 77, 127
1, 425203, Note_off_c, 1, 67, 0
1, 425205, Note_off_c, 1, 77, 0
1, 425207, Note_on_c, 1, 75, 127
1, 425306, Note_off_c, 1, 75, 0
1, 425611, Note_on_c, 1, 72, 127
1, 425811, Note_off_c, 1, 39, 0
1, 425813, Note_on_c, 1, 51, 127
1, 425813, Note_on_c, 1, 78, 127
1, 425912, Note_off_c, 1, 51, 0
1, 425914, Note_on_c, 1, 50, 127
1, 426013, Note_off_c, 1, 78, 0
1, 426013, Note_off_c, 1, 50, 0
1, 426015, Note_on_c, 1, 48, 127
1, 426114, Note_off_c, 1, 48, 0
1, 426200, Note_off_c, 1, 72, 0
1, 426217, Note_on_c, 1, 81, 127
1, 426217, Note_on_c, 1, 51, 127
1, 426217, Note_on_c, 1, 72, 127
1, 426417, Note_off_c, 1, 81, 0
1, 426417, Note_off_c, 1, 51, 0
1, 426419, Note_on_c, 1, 42, 127
1, 426419, Note_on_c, 1, 74, 127
1, 426617, Note_off_c, 1, 72, 0
1, 426621, Note_on_c, 1, 70, 127
1, 426720, Note_off_c, 1, 70, 0
1, 426722, Note_on_c, 1, 69, 127
1, 426821, Note_off_c, 1, 42, 0
1, 426821, Note_off_c, 1, 69, 0
1, 426823, Note_on_c, 1, 43, 127
1, 427008, Note_off_c, 1, 74, 0
1, 427023, Note_off_c, 1, 43, 0
1, 427025, Note_on_c, 1, 67, 127
1, 427025, Note_on_c, 1, 75, 127
1, 427025, Note_on_c, 1, 48, 127
1, 427225, Note_off_c, 1, 67, 0
1, 427225, Note_off_c, 1, 75, 0
1, 427225, Note_off_c, 1, 48, 0
1, 427227, Note_on_c, 1, 70, 127
1, 427227, Note_on_c, 1, 50, 127
1, 427227, Note_on_c, 1, 66, 127
1, 427360, Note_off_c, 1, 70, 0
1, 427362, Note_on_c, 1, 69, 127
1, 427435, Note_off_c, 1, 69, 0
1, 427628, Note_off_c, 1, 50, 0
1, 427630, Note_on_c, 1, 48, 127
1, 427832, Note_on_c, 1, 67, 127
1, 428025, Note_off_c, 1, 67, 0
1, 428026, Note_off_c, 1, 66, 0
1, 428032, Note_off_c, 1, 48, 0
1, 428034, Note_on_c, 1, 67, 127
1, 428034, Note_on_c, 1, 47, 127
1, 428236, Note_on_c, 1, 50, 127
1, 428436, Note_off_c, 1, 50, 0
1, 428438, Note_on_c, 1, 52, 127
1, 428638, Note_off_c, 1, 52, 0
1, 428640, Note_on_c, 1, 54, 127
1, 428840, Note_off_c, 1, 54, 0
1, 428842, Note_on_c, 1, 55, 127
1, 428934, Note_off_c, 1, 67, 0
1, 429044, Note_off_c, 1, 47, 0
1, 429044, Note_on_c, 1, 66, 127
1, 429044, Note_on_c, 1, 48, 127
1, 429242, Note_off_c, 1, 55, 0
1, 429244, Note_off_c, 1, 66, 0
1, 429244, Note_off_c, 1, 48, 0
1, 429246, Note_on_c, 1, 67, 127
1, 429246, Note_on_c, 1, 47, 127
1, 429446, Note_off_c, 1, 67, 0
1, 429446, Note_off_c, 1, 47, 0
1, 429448, Note_on_c, 1, 69, 127
1, 429448, Note_on_c, 1, 45, 127
1, 429648, Note_off_c, 1, 69, 0
1, 429648, Note_off_c, 1, 45, 0
1, 429650, Note_on_c, 1, 71, 127
1, 429650, Note_on_c, 1, 43, 127
1, 429850, Note_off_c, 1, 71, 0
1, 429850, Note_off_c, 1, 43, 0
1, 429852, Note_on_c, 1, 69, 127
1, 429852, Note_on_c, 1, 45, 127
1, 430052, Note_off_c, 1, 69, 0
1, 430052, Note_off_c, 1, 45, 0
1, 430054, Note_on_c, 1, 67, 127
1, 430054, Note_on_c, 1, 47, 127
1, 430254, Note_off_c, 1, 67, 0
1, 430254, Note_off_c, 1, 47, 0
1, 430256, Note_on_c, 1, 74, 127
1, 430256, Note_on_c, 1, 48, 127
1, 430436, Note_off_c, 1, 74, 0
1, 430456, Note_off_c, 1, 48, 0
1, 430458, Note_on_c, 1, 65, 127
1, 430458, Note_on_c, 1, 50, 127
1, 430543, Note_off_c, 1, 65, 0
1, 430543, Note_on_c, 1, 64, 127
1, 430628, Note_off_c, 1, 64, 0
1, 430658, Note_off_c, 1, 50, 0
1, 430660, Note_on_c, 1, 52, 127
1, 430759, Note_off_c, 1, 52, 0
1, 430761, Note_on_c, 1, 53, 127
1, 430860, Note_off_c, 1, 53, 0
1, 431064, Note_on_c, 1, 65, 127
1, 431064, Note_on_c, 1, 50, 127
1, 431264, Note_off_c, 1, 65, 0
1, 431264, Note_off_c, 1, 50, 0
1, 431266, Note_on_c, 1, 55, 127
1, 431266, Note_on_c, 1, 59, 127
1, 431466, Note_off_c, 1, 55, 0
1, 431468, Note_on_c, 1, 57, 127
1, 431668, Note_off_c, 1, 57, 0
1, 431870, Note_off_c, 1, 59, 0
1, 431872, Note_on_c, 1, 67, 127
1, 431872, Note_on_c, 1, 53, 127
1, 432072, Note_off_c, 1, 67, 0
1, 432072, Note_off_c, 1, 53, 0
1, 432074, Note_on_c, 1, 69, 127
1, 432074, Note_on_c, 1, 52, 127
1, 432274, Note_off_c, 1, 69, 0
1, 432276, Note_on_c, 1, 71, 127
1, 432276, Note_on_c, 1, 55, 127
1, 432474, Note_off_c, 1, 52, 0
1, 432476, Note_off_c, 1, 71, 0
1, 432476, Note_off_c, 1, 55, 0
1, 432478, Note_on_c, 1, 72, 127
1, 432478, Note_on_c, 1, 57, 127
1, 432478, Note_on_c, 1, 50, 127
1, 432678, Note_off_c, 1, 72, 0
1, 432678, Note_off_c, 1, 57, 0
1, 432680, Note_on_c, 1, 74, 127
1, 432680, Note_on_c, 1, 59, 127
1, 432878, Note_off_c, 1, 50, 0
1, 432880, Note_off_c, 1, 74, 0
1, 432880, Note_off_c, 1, 59, 0
1, 432882, Note_on_c, 1, 76, 127
1, 432882, Note_on_c, 1, 60, 127
1, 432882, Note_on_c, 1, 48, 127
1, 433082, Note_off_c, 1, 76, 0
1, 433084, Note_on_c, 1, 72, 127
1, 433183, Note_off_c, 1, 72, 0
1, 433185, Note_on_c, 1, 74, 127
1, 433284, Note_off_c, 1, 60, 0
1, 433284, Note_off_c, 1, 74, 0
1, 433286, Note_on_c, 1, 55, 127
1, 433486, Note_off_c, 1, 55, 0
1, 433488, Note_on_c, 1, 57, 127
1, 433688, Note_off_c, 1, 57, 0
1, 433690, Note_on_c, 1, 79, 127
1, 433690, Note_on_c, 1, 58, 127
1, 433892, Note_off_c, 1, 48, 0
1, 433892, Note_on_c, 1, 53, 127
1, 434092, Note_off_c, 1, 53, 0
1, 434094, Note_on_c, 1, 52, 127
1, 434294, Note_off_c, 1, 79, 0
1, 434294, Note_off_c, 1, 52, 0
1, 434296, Note_on_c, 1, 50, 127
1, 434490, Note_off_c, 1, 58, 0
1, 434496, Note_off_c, 1, 50, 0
1, 434498, Note_on_c, 1, 79, 127
1, 434498, Note_on_c, 1, 49, 127
1, 434498, Note_on_c, 1, 57, 127
1, 434698, Note_off_c, 1, 79, 0
1, 434698, Note_off_c, 1, 49, 0
1, 434700, Note_on_c, 1, 76, 127
1, 434700, Note_on_c, 1, 47, 127
1, 434799, Note_off_c, 1, 76, 0
1, 434801, Note_on_c, 1, 74, 127
1, 434900, Note_off_c, 1, 47, 0
1, 434900, Note_off_c, 1, 74, 0
1, 434902, Note_on_c, 1, 73, 127
1, 434902, Note_on_c, 1, 45, 127
1, 435001, Note_off_c, 1, 73, 0
1, 435102, Note_off_c, 1, 45, 0
1, 435104, Note_on_c, 1, 52, 127
1, 435298, Note_off_c, 1, 57, 0
1, 435304, Note_off_c, 1, 52, 0
1, 435306, Note_on_c, 1, 67, 127
1, 435306, Note_on_c, 1, 46, 127
1, 435506, Note_off_c, 1, 67, 0
1, 435508, Note_on_c, 1, 70, 127
1, 435708, Note_off_c, 1, 70, 0
1, 435710, Note_on_c, 1, 69, 127
1, 435896, Note_off_c, 1, 46, 0
1, 435910, Note_off_c, 1, 69, 0
1, 435912, Note_on_c, 1, 67, 127
1, 435912, Note_on_c, 1, 46, 127
1, 436112, Note_off_c, 1, 67, 0
1, 436112, Note_off_c, 1, 46, 0
1, 436114, Note_on_c, 1, 37, 127
1, 436114, Note_on_c, 1, 76, 127
1, 436316, Note_on_c, 1, 70, 127
1, 436516, Note_off_c, 1, 70, 0
1, 436518, Note_on_c, 1, 69, 127
1, 436718, Note_off_c, 1, 37, 0
1, 436718, Note_off_c, 1, 69, 0
1, 436720, Note_on_c, 1, 67, 127
1, 436720, Note_on_c, 1, 45, 127
1, 436920, Note_off_c, 1, 67, 0
1, 436920, Note_off_c, 1, 45, 0
1, 436922, Note_on_c, 1, 47, 127
1, 437057, Note_on_c, 1, 65, 127
1, 437122, Note_off_c, 1, 47, 0
1, 437124, Note_on_c, 1, 49, 127
1, 437130, Note_off_c, 1, 65, 0
1, 437323, Note_off_c, 1, 49, 0
1, 437325, Note_on_c, 1, 50, 127
1, 437525, Note_off_c, 1, 50, 0
1, 437527, Note_on_c, 1, 64, 127
1, 437527, Note_on_c, 1, 52, 127
1, 437727, Note_off_c, 1, 64, 0
1, 437727, Note_off_c, 1, 52, 0
1, 437729, Note_on_c, 1, 53, 127
1, 437931, Note_on_c, 1, 57, 127
1, 438131, Note_off_c, 1, 57, 0
1, 438133, Note_on_c, 1, 59, 127
1, 438327, Note_off_c, 1, 76, 0
1, 438333, Note_off_c, 1, 59, 0
1, 438335, Note_on_c, 1, 79, 127
1, 438335, Note_on_c, 1, 61, 127
1, 438535, Note_off_c, 1, 79, 0
1, 438535, Note_off_c, 1, 61, 0
1, 438537, Note_on_c, 1, 77, 127
1, 438537, Note_on_c, 1, 62, 127
1, 438737, Note_off_c, 1, 77, 0
1, 438737, Note_off_c, 1, 62, 0
1, 438941, Note_on_c, 1, 74, 127
1, 439141, Note_off_c, 1, 74, 0
1, 439143, Note_on_c, 1, 72, 127
1, 439343, Note_off_c, 1, 53, 0
1, 439343, Note_off_c, 1, 72, 0
1, 439345, Note_on_c, 1, 55, 127
1, 439951, Note_on_c, 1, 81, 127
1, 440151, Note_off_c, 1, 81, 0
1, 440959, Note_off_c, 1, 55, 0
1, 440961, Note_on_c, 1, 73, 127
1, 441969, Note_off_c, 1, 73, 0
1, 442577, Note_on_c, 1, 74, 127
1, 442577, Note_on_c, 1, 65, 127
1, 442577, Note_on_c, 1, 58, 127
1, 442777, Note_off_c, 1, 74, 0
1, 442779, Note_on_c, 1, 72, 127
1, 442979, Note_off_c, 1, 72, 0
1, 442981, Note_on_c, 1, 70, 127
1, 443181, Note_off_c, 1, 70, 0
1, 443183, Note_on_c, 1, 69, 127
1, 443383, Note_off_c, 1, 69, 0
1, 443385, Note_on_c, 1, 67, 127
1, 443585, Note_off_c, 1, 65, 0
1, 443789, Note_on_c, 1, 64, 127
1, 443989, Note_off_c, 1, 67, 0
1, 443989, Note_off_c, 1, 64, 0
1, 443991, Note_on_c, 1, 62, 127
1, 444191, Note_off_c, 1, 58, 0
1, 444191, Note_off_c, 1, 62, 0
1, 444193, Note_on_c, 1, 61, 127
1, 444193, Note_on_c, 1, 76, 127
1, 444593, Note_off_c, 1, 61, 0
1, 444597, Note_on_c, 1, 57, 127
1, 444797, Note_off_c, 1, 76, 0
1, 444797, Note_off_c, 1, 57, 0
1, 444799, Note_on_c, 1, 70, 127
1, 444799, Note_on_c, 1, 55, 127
1, 444999, Note_off_c, 1, 70, 0
1, 444999, Note_off_c, 1, 55, 0
1, 445001, Note_on_c, 1, 69, 127
1, 445001, Note_on_c, 1, 53, 127
1, 445201, Note_off_c, 1, 69, 0
1, 445201, Note_off_c, 1, 53, 0
1, 445203, Note_on_c, 1, 67, 127
1, 445203, Note_on_c, 1, 52, 127
1, 445403, Note_off_c, 1, 67, 0
1, 445403, Note_off_c, 1, 52, 0
1, 445405, Note_on_c, 1, 65, 127
1, 445405, Note_on_c, 1, 50, 127
1, 445605, Note_off_c, 1, 65, 0
1, 445605, Note_off_c, 1, 50, 0
1, 445607, Note_on_c, 1, 64, 127
1, 445607, Note_on_c, 1, 49, 127
1, 445807, Note_off_c, 1, 64, 0
1, 445807, Note_off_c, 1, 49, 0
1, 445809, Note_on_c, 1, 50, 127
1, 445809, Note_on_c, 1, 65, 127
1, 446011, Note_on_c, 1, 69, 127
1, 446211, Note_off_c, 1, 50, 0
1, 446211, Note_off_c, 1, 69, 0
1, 446213, Note_on_c, 1, 73, 127
1, 446213, Note_on_c, 1, 70, 127
1, 446213, Note_on_c, 1, 55, 127
1, 446413, Note_off_c, 1, 73, 0
1, 446415, Note_on_c, 1, 74, 127
1, 446609, Note_off_c, 1, 65, 0
1, 446613, Note_off_c, 1, 70, 0
1, 446615, Note_off_c, 1, 55, 0
1, 446615, Note_off_c, 1, 74, 0
1, 446617, Note_on_c, 1, 65, 127
1, 446617, Note_on_c, 1, 57, 127
1, 446617, Note_on_c, 1, 61, 127
1, 446750, Note_off_c, 1, 65, 0
1, 446752, Note_on_c, 1, 64, 127
1, 446825, Note_off_c, 1, 64, 0
1, 447018, Note_off_c, 1, 57, 0
1, 447020, Note_on_c, 1, 45, 127
1, 447222, Note_on_c, 1, 62, 127
1, 447405, Note_off_c, 1, 61, 0
1, 447422, Note_off_c, 1, 45, 0
1, 447422, Note_off_c, 1, 62, 0
1, 447424, Note_on_c, 1, 62, 127
1, 447424, Note_on_c, 1, 50, 127
1, 447632, Note_off_c, 1, 62, 0
1, 447634, Note_on_c, 1, 66, 127
1, 447634, Note_on_c, 1, 57, 127
1, 447737, Note_off_c, 1, 66, 0
1, 447737, Note_off_c, 1, 57, 0
1, 447739, Note_on_c, 1, 67, 127
1, 447739, Note_on_c, 1, 58, 127
1, 447842, Note_off_c, 1, 67, 0
1, 447842, Note_off_c, 1, 58, 0
1, 447844, Note_on_c, 1, 69, 127
1, 447844, Note_on_c, 1, 60, 127
1, 447947, Note_off_c, 1, 69, 0
1, 447947, Note_off_c, 1, 60, 0
1, 448482, Note_on_c, 1, 55, 127
1, 448482, Note_on_c, 1, 64, 127
1, 448589, Note_off_c, 1, 55, 0
1, 448917, Note_on_c, 1, 73, 127
1, 449117, Note_off_c, 1, 64, 0
1, 449133, Note_off_c, 1, 73, 0
1, 449151, Note_on_c, 1, 74, 127
1, 450095, Note_on_c, 1, 38, 127
1, 450905, Note_off_c, 1, 50, 0
1, 451751, Note_off_c, 1, 74, 0
1, 451931, Note_off_c, 1, 38, 0
1, 452650, Note_on_c, 1, 74, 127
1, 452856, Note_off_c, 1, 74, 0
1, 452895, Note_on_c, 1, 62, 127
1, 452895, Note_on_c, 1, 69, 127
1, 452895, Note_on_c, 1, 65, 127
1, 452895, Note_on_c, 1, 74, 127
1, 453080, Note_on_c, 1, 50, 127
1, 453254, Note_off_c, 1, 62, 0
1, 453258, Note_off_c, 1, 50, 0
1, 453265, Note_on_c, 1, 52, 127
1, 453426, Note_off_c, 1, 69, 0
1, 453426, Note_off_c, 1, 65, 0
1, 453443, Note_off_c, 1, 52, 0
1, 453450, Note_on_c, 1, 53, 127
1, 453450, Note_on_c, 1, 72, 127
1, 453465, Note_off_c, 1, 74, 0
1, 453628, Note_off_c, 1, 53, 0
1, 453628, Note_off_c, 1, 72, 0
1, 453635, Note_on_c, 1, 55, 127
1, 453635, Note_on_c, 1, 70, 127
1, 453813, Note_off_c, 1, 55, 0
1, 453813, Note_off_c, 1, 70, 0
1, 453820, Note_on_c, 1, 54, 127
1, 453820, Note_on_c, 1, 69, 127
1, 453998, Note_off_c, 1, 54, 0
1, 453998, Note_off_c, 1, 69, 0
1, 454006, Note_on_c, 1, 55, 127
1, 454006, Note_on_c, 1, 70, 127
1, 454184, Note_off_c, 1, 55, 0
1, 454191, Note_on_c, 1, 57, 127
1, 454369, Note_off_c, 1, 70, 0
1, 454369, Note_off_c, 1, 57, 0
1, 454375, Note_on_c, 1, 69, 127
1, 454375, Note_on_c, 1, 58, 127
1, 454437, Note_on_c, 1, 67, 127
1, 454438, Note_off_c, 1, 69, 0
1, 454500, Note_off_c, 1, 67, 0
1, 454553, Note_off_c, 1, 58, 0
1, 454560, Note_on_c, 1, 55, 127
1, 454738, Note_off_c, 1, 55, 0
1, 454745, Note_on_c, 1, 57, 127
1, 454923, Note_off_c, 1, 57, 0
1, 454930, Note_on_c, 1, 67, 127
1, 454930, Note_on_c, 1, 58, 127
1, 455108, Note_off_c, 1, 67, 0
1, 455108, Note_off_c, 1, 58, 0
1, 455115, Note_on_c, 1, 49, 127
1, 455115, Note_on_c, 1, 76, 127
1, 455293, Note_off_c, 1, 49, 0
1, 455300, Note_on_c, 1, 57, 127
1, 455478, Note_off_c, 1, 57, 0
1, 455484, Note_on_c, 1, 53, 127
1, 455662, Note_off_c, 1, 53, 0
1, 455663, Note_off_c, 1, 76, 0
1, 455669, Note_on_c, 1, 77, 127
1, 455669, Note_on_c, 1, 50, 127
1, 455847, Note_off_c, 1, 77, 0
1, 455847, Note_off_c, 1, 50, 0
1, 455854, Note_on_c, 1, 77, 127
1, 455854, Note_on_c, 1, 55, 127
1, 456032, Note_off_c, 1, 77, 0
1, 456039, Note_on_c, 1, 76, 127
1, 456217, Note_off_c, 1, 55, 0
1, 456217, Note_off_c, 1, 76, 0
1, 456224, Note_on_c, 1, 74, 127
1, 456224, Note_on_c, 1, 43, 127
1, 456402, Note_off_c, 1, 74, 0
1, 456402, Note_off_c, 1, 43, 0
1, 456409, Note_on_c, 1, 73, 127
1, 456409, Note_on_c, 1, 45, 127
1, 456587, Note_off_c, 1, 73, 0
1, 456587, Note_off_c, 1, 45, 0
1, 456593, Note_on_c, 1, 74, 127
1, 456593, Note_on_c, 1, 46, 127
1, 456680, Note_off_c, 1, 74, 0
1, 456685, Note_on_c, 1, 73, 127
1, 456770, Note_off_c, 1, 46, 0
1, 456772, Note_off_c, 1, 73, 0
1, 456777, Note_on_c, 1, 45, 127
1, 456777, Note_on_c, 1, 74, 127
1, 456955, Note_off_c, 1, 45, 0
1, 456962, Note_on_c, 1, 46, 127
1, 457138, Note_off_c, 1, 74, 0
1, 457140, Note_off_c, 1, 46, 0
1, 457147, Note_on_c, 1, 76, 127
1, 457147, Note_on_c, 1, 43, 127
1, 457325, Note_off_c, 1, 76, 0
1, 457325, Note_off_c, 1, 43, 0
1, 457332, Note_on_c, 1, 74, 127
1, 457332, Note_on_c, 1, 45, 127
1, 457510, Note_off_c, 1, 74, 0
1, 457510, Note_off_c, 1, 45, 0
1, 457517, Note_on_c, 1, 73, 127
1, 457517, Note_on_c, 1, 57, 127
1, 457695, Note_off_c, 1, 73, 0
1, 457695, Note_off_c, 1, 57, 0
1, 457701, Note_on_c, 1, 71, 127
1, 457701, Note_on_c, 1, 55, 127
1, 457879, Note_off_c, 1, 71, 0
1, 457879, Note_off_c, 1, 55, 0
1, 457886, Note_on_c, 1, 69, 127
1, 457886, Note_on_c, 1, 52, 127
1, 458064, Note_off_c, 1, 69, 0
1, 458064, Note_off_c, 1, 52, 0
1, 458071, Note_on_c, 1, 71, 127
1, 458071, Note_on_c, 1, 53, 127
1, 458249, Note_off_c, 1, 71, 0
1, 458249, Note_off_c, 1, 53, 0
1, 458256, Note_on_c, 1, 73, 127
1, 458256, Note_on_c, 1, 52, 127
1, 458434, Note_off_c, 1, 73, 0
1, 458434, Note_off_c, 1, 52, 0
1, 458441, Note_on_c, 1, 74, 127
1, 458441, Note_on_c, 1, 53, 127
1, 458619, Note_off_c, 1, 74, 0
1, 458619, Note_off_c, 1, 53, 0
1, 458626, Note_on_c, 1, 76, 127
1, 458626, Note_on_c, 1, 50, 127
1, 458804, Note_off_c, 1, 76, 0
1, 458804, Note_off_c, 1, 50, 0
1, 458810, Note_on_c, 1, 77, 127
1, 458810, Note_on_c, 1, 49, 127
1, 458957, Note_off_c, 1, 77, 0
1, 458960, Note_on_c, 1, 76, 127
1, 458987, Note_off_c, 1, 49, 0
1, 458994, Note_on_c, 1, 52, 127
1, 459045, Note_off_c, 1, 76, 0
1, 459171, Note_off_c, 1, 52, 0
1, 459178, Note_on_c, 1, 45, 127
1, 459355, Note_off_c, 1, 45, 0
1, 459362, Note_on_c, 1, 74, 127
1, 459362, Note_on_c, 1, 49, 127
1, 459447, Note_off_c, 1, 74, 0
1, 459454, Note_on_c, 1, 76, 127
1, 459539, Note_off_c, 1, 49, 0
1, 459539, Note_off_c, 1, 76, 0
1, 459546, Note_on_c, 1, 50, 127
1, 459546, Note_on_c, 1, 77, 127
1, 459724, Note_off_c, 1, 50, 0
1, 459730, Note_on_c, 1, 49, 127
1, 459908, Note_off_c, 1, 49, 0
1, 460094, Note_off_c, 1, 77, 0
1, 460100, Note_on_c, 1, 76, 127
1, 460100, Note_on_c, 1, 52, 127
1, 460278, Note_off_c, 1, 76, 0
1, 460278, Note_off_c, 1, 52, 0
1, 460285, Note_on_c, 1, 53, 127
1, 460285, Note_on_c, 1, 74, 127
1, 460463, Note_off_c, 1, 53, 0
1, 460470, Note_on_c, 1, 55, 127
1, 460648, Note_off_c, 1, 74, 0
1, 460648, Note_off_c, 1, 55, 0
1, 460655, Note_on_c, 1, 52, 127
1, 460655, Note_on_c, 1, 72, 127
1, 460833, Note_off_c, 1, 52, 0
1, 460839, Note_on_c, 1, 55, 127
1, 461017, Note_off_c, 1, 55, 0
1, 461018, Note_off_c, 1, 72, 0
1, 461024, Note_on_c, 1, 72, 127
1, 461024, Note_on_c, 1, 54, 127
1, 461202, Note_off_c, 1, 72, 0
1, 461202, Note_off_c, 1, 54, 0
1, 461209, Note_on_c, 1, 70, 127
1, 461209, Note_on_c, 1, 50, 127
1, 461387, Note_off_c, 1, 70, 0
1, 461387, Note_off_c, 1, 50, 0
1, 461394, Note_on_c, 1, 72, 127
1, 461394, Note_on_c, 1, 52, 127
1, 461572, Note_off_c, 1, 72, 0
1, 461572, Note_off_c, 1, 52, 0
1, 461579, Note_on_c, 1, 69, 127
1, 461579, Note_on_c, 1, 54, 127
1, 461757, Note_off_c, 1, 69, 0
1, 461757, Note_off_c, 1, 54, 0
1, 461764, Note_on_c, 1, 70, 127
1, 461764, Note_on_c, 1, 55, 127
1, 461849, Note_off_c, 1, 70, 0
1, 461856, Note_on_c, 1, 69, 127
1, 461941, Note_off_c, 1, 55, 0
1, 461941, Note_off_c, 1, 69, 0
1, 461947, Note_on_c, 1, 54, 127
1, 461947, Note_on_c, 1, 70, 127
1, 462125, Note_off_c, 1, 54, 0
1, 462132, Note_on_c, 1, 55, 127
1, 462308, Note_off_c, 1, 70, 0
1, 462310, Note_off_c, 1, 55, 0
1, 462317, Note_on_c, 1, 69, 127
1, 462317, Note_on_c, 1, 57, 127
1, 462495, Note_off_c, 1, 69, 0
1, 462495, Note_off_c, 1, 57, 0
1, 462502, Note_on_c, 1, 58, 127
1, 462502, Note_on_c, 1, 67, 127
1, 462680, Note_off_c, 1, 58, 0
1, 462687, Note_on_c, 1, 60, 127
1, 462865, Note_off_c, 1, 67, 0
1, 462865, Note_off_c, 1, 60, 0
1, 462872, Note_on_c, 1, 65, 127
1, 462872, Note_on_c, 1, 62, 127
1, 463050, Note_off_c, 1, 65, 0
1, 463050, Note_off_c, 1, 62, 0
1, 463056, Note_on_c, 1, 64, 127
1, 463056, Note_on_c, 1, 60, 127
1, 463234, Note_off_c, 1, 64, 0
1, 463234, Note_off_c, 1, 60, 0
1, 463241, Note_on_c, 1, 65, 127
1, 463241, Note_on_c, 1, 59, 127
1, 463419, Note_off_c, 1, 65, 0
1, 463419, Note_off_c, 1, 59, 0
1, 463426, Note_on_c, 1, 69, 127
1, 463426, Note_on_c, 1, 57, 127
1, 463604, Note_off_c, 1, 69, 0
1, 463604, Note_off_c, 1, 57, 0
1, 463611, Note_on_c, 1, 67, 127
1, 463611, Note_on_c, 1, 59, 127
1, 463789, Note_off_c, 1, 67, 0
1, 463789, Note_off_c, 1, 59, 0
1, 463796, Note_on_c, 1, 65, 127
1, 463796, Note_on_c, 1, 55, 127
1, 463974, Note_off_c, 1, 65, 0
1, 463974, Note_off_c, 1, 55, 0
1, 463981, Note_on_c, 1, 60, 127
1, 463981, Note_on_c, 1, 64, 127
1, 464159, Note_off_c, 1, 60, 0
1, 464165, Note_on_c, 1, 62, 127
1, 464343, Note_off_c, 1, 62, 0
1, 464529, Note_off_c, 1, 64, 0
1, 464535, Note_on_c, 1, 62, 127
1, 464535, Note_on_c, 1, 58, 127
1, 464713, Note_off_c, 1, 62, 0
1, 464713, Note_off_c, 1, 58, 0
1, 464720, Note_on_c, 1, 57, 127
1, 464720, Note_on_c, 1, 60, 127
1, 464898, Note_off_c, 1, 57, 0
1, 464905, Note_on_c, 1, 55, 127
1, 465050, Note_off_c, 1, 60, 0
1, 465083, Note_off_c, 1, 55, 0
1, 465090, Note_on_c, 1, 53, 127
1, 465090, Note_on_c, 1, 72, 127
1, 465268, Note_off_c, 1, 53, 0
1, 465274, Note_on_c, 1, 52, 127
1, 465452, Note_off_c, 1, 52, 0
1, 465453, Note_off_c, 1, 72, 0
1, 465459, Note_on_c, 1, 70, 127
1, 465459, Note_on_c, 1, 53, 127
1, 465637, Note_off_c, 1, 70, 0
1, 465644, Note_on_c, 1, 69, 127
1, 465822, Note_off_c, 1, 53, 0
1, 465822, Note_off_c, 1, 69, 0
1, 465829, Note_on_c, 1, 67, 127
1, 465829, Note_on_c, 1, 55, 127
1, 466007, Note_off_c, 1, 67, 0
1, 466007, Note_off_c, 1, 55, 0
1, 466014, Note_on_c, 1, 65, 127
1, 466014, Note_on_c, 1, 57, 127
1, 466192, Note_off_c, 1, 65, 0
1, 466192, Note_off_c, 1, 57, 0
1, 466199, Note_on_c, 1, 74, 127
1, 466199, Note_on_c, 1, 58, 127
1, 466284, Note_off_c, 1, 74, 0
1, 466290, Note_on_c, 1, 72, 127
1, 466375, Note_off_c, 1, 72, 0
1, 466376, Note_off_c, 1, 58, 0
1, 466382, Note_on_c, 1, 53, 127
1, 466382, Note_on_c, 1, 74, 127
1, 466560, Note_off_c, 1, 53, 0
1, 466567, Note_on_c, 1, 50, 127
1, 466743, Note_off_c, 1, 74, 0
1, 466745, Note_off_c, 1, 50, 0
1, 466752, Note_on_c, 1, 75, 127
1, 466752, Note_on_c, 1, 53, 127
1, 466930, Note_off_c, 1, 75, 0
1, 466930, Note_off_c, 1, 53, 0
1, 466937, Note_on_c, 1, 46, 127
1, 466937, Note_on_c, 1, 74, 127
1, 467115, Note_off_c, 1, 46, 0
1, 467122, Note_on_c, 1, 48, 127
1, 467300, Note_off_c, 1, 74, 0
1, 467300, Note_off_c, 1, 48, 0
1, 467307, Note_on_c, 1, 72, 127
1, 467307, Note_on_c, 1, 50, 127
1, 467485, Note_off_c, 1, 72, 0
1, 467485, Note_off_c, 1, 50, 0
1, 467491, Note_on_c, 1, 70, 127
1, 467491, Note_on_c, 1, 52, 127
1, 467669, Note_off_c, 1, 70, 0
1, 467669, Note_off_c, 1, 52, 0
1, 467676, Note_on_c, 1, 69, 127
1, 467676, Note_on_c, 1, 53, 127
1, 467854, Note_off_c, 1, 69, 0
1, 467854, Note_off_c, 1, 53, 0
1, 467861, Note_on_c, 1, 67, 127
1, 467861, Note_on_c, 1, 55, 127
1, 468039, Note_off_c, 1, 67, 0
1, 468039, Note_off_c, 1, 55, 0
1, 468046, Note_on_c, 1, 57, 127
1, 468046, Note_on_c, 1, 77, 127
1, 468224, Note_off_c, 1, 57, 0
1, 468231, Note_on_c, 1, 58, 127
1, 468363, Note_off_c, 1, 77, 0
1, 468409, Note_off_c, 1, 58, 0
1, 468415, Note_on_c, 1, 77, 127
1, 468415, Note_on_c, 1, 60, 127
1, 468477, Note_on_c, 1, 76, 127
1, 468478, Note_off_c, 1, 77, 0
1, 468540, Note_off_c, 1, 76, 0
1, 468593, Note_off_c, 1, 60, 0
1, 468600, Note_on_c, 1, 55, 127
1, 468778, Note_off_c, 1, 55, 0
1, 468785, Note_on_c, 1, 48, 127
1, 468963, Note_off_c, 1, 48, 0
1, 468970, Note_on_c, 1, 74, 127
1, 468970, Note_on_c, 1, 50, 127
1, 469148, Note_off_c, 1, 74, 0
1, 469148, Note_off_c, 1, 50, 0
1, 469155, Note_on_c, 1, 72, 127
1, 469155, Note_on_c, 1, 52, 127
1, 469333, Note_off_c, 1, 72, 0
1, 469333, Note_off_c, 1, 52, 0
1, 469340, Note_on_c, 1, 70, 127
1, 469340, Note_on_c, 1, 55, 127
1, 469518, Note_off_c, 1, 70, 0
1, 469518, Note_off_c, 1, 55, 0
1, 469524, Note_on_c, 1, 53, 127
1, 469524, Note_on_c, 1, 69, 127
1, 469702, Note_off_c, 1, 53, 0
1, 469709, Note_on_c, 1, 51, 127
1, 469887, Note_off_c, 1, 69, 0
1, 469887, Note_off_c, 1, 51, 0
1, 469894, Note_on_c, 1, 70, 127
1, 469894, Note_on_c, 1, 50, 127
1, 469979, Note_off_c, 1, 70, 0
1, 469986, Note_on_c, 1, 69, 127
1, 470071, Note_off_c, 1, 50, 0
1, 470071, Note_off_c, 1, 69, 0
1, 470078, Note_on_c, 1, 48, 127
1, 470078, Note_on_c, 1, 70, 127
1, 470256, Note_off_c, 1, 48, 0
1, 470263, Note_on_c, 1, 46, 127
1, 470441, Note_off_c, 1, 70, 0
1, 470441, Note_off_c, 1, 46, 0
1, 470448, Note_on_c, 1, 72, 127
1, 470448, Note_on_c, 1, 45, 127
1, 470626, Note_off_c, 1, 72, 0
1, 470626, Note_off_c, 1, 45, 0
1, 470632, Note_on_c, 1, 65, 127
1, 470632, Note_on_c, 1, 43, 127
1, 470749, Note_off_c, 1, 65, 0
1, 470756, Note_on_c, 1, 64, 127
1, 470810, Note_off_c, 1, 43, 0
1, 470817, Note_on_c, 1, 41, 127
1, 470819, Note_off_c, 1, 64, 0
1, 470995, Note_off_c, 1, 41, 0
1, 471002, Note_on_c, 1, 40, 127
1, 471180, Note_off_c, 1, 40, 0
1, 471187, Note_on_c, 1, 65, 127
1, 471187, Note_on_c, 1, 38, 127
1, 471365, Note_off_c, 1, 65, 0
1, 471365, Note_off_c, 1, 38, 0
1, 471372, Note_on_c, 1, 67, 127
1, 471372, Note_on_c, 1, 36, 127
1, 471550, Note_off_c, 1, 67, 0
1, 471557, Note_on_c, 1, 70, 127
1, 471735, Note_off_c, 1, 36, 0
1, 471735, Note_off_c, 1, 70, 0
1, 471741, Note_on_c, 1, 69, 127
1, 471741, Note_on_c, 1, 41, 127
1, 471919, Note_off_c, 1, 69, 0
1, 471926, Note_on_c, 1, 67, 127
1, 472104, Note_off_c, 1, 41, 0
1, 472104, Note_off_c, 1, 67, 0
1, 472111, Note_on_c, 1, 69, 127
1, 472111, Note_on_c, 1, 48, 127
1, 472111, Note_on_c, 1, 64, 127
1, 472228, Note_off_c, 1, 69, 0
1, 472234, Note_on_c, 1, 67, 127
1, 472297, Note_off_c, 1, 67, 0
1, 472474, Note_off_c, 1, 48, 0
1, 472481, Note_on_c, 1, 36, 127
1, 472666, Note_on_c, 1, 65, 127
1, 472838, Note_off_c, 1, 64, 0
1, 472844, Note_off_c, 1, 36, 0
1, 472844, Note_off_c, 1, 65, 0
1, 472850, Note_on_c, 1, 57, 127
1, 472850, Note_on_c, 1, 41, 127
1, 472850, Note_on_c, 1, 60, 127
1, 472850, Note_on_c, 1, 65, 127
1, 473211, Note_off_c, 1, 57, 0
1, 473213, Note_off_c, 1, 41, 0
1, 473405, Note_on_c, 1, 55, 127
1, 473583, Note_off_c, 1, 55, 0
1, 473590, Note_on_c, 1, 53, 127
1, 473768, Note_off_c, 1, 53, 0
1, 473775, Note_on_c, 1, 52, 127
1, 473952, Note_off_c, 1, 60, 0
1, 473952, Note_off_c, 1, 65, 0
1, 473953, Note_off_c, 1, 52, 0
1, 473959, Note_on_c, 1, 50, 127
1, 473959, Note_on_c, 1, 77, 127
1, 474137, Note_off_c, 1, 50, 0
1, 474144, Note_on_c, 1, 62, 127
1, 474322, Note_off_c, 1, 77, 0
1, 474322, Note_off_c, 1, 62, 0
1, 474329, Note_on_c, 1, 77, 127
1, 474329, Note_on_c, 1, 55, 127
1, 474507, Note_off_c, 1, 77, 0
1, 474507, Note_off_c, 1, 55, 0
1, 474514, Note_on_c, 1, 76, 127
1, 474514, Note_on_c, 1, 57, 127
1, 474692, Note_off_c, 1, 76, 0
1, 474692, Note_off_c, 1, 57, 0
1, 474699, Note_on_c, 1, 74, 127
1, 474699, Note_on_c, 1, 58, 127
1, 474877, Note_off_c, 1, 74, 0
1, 474877, Note_off_c, 1, 58, 0
1, 474884, Note_on_c, 1, 73, 127
1, 474884, Note_on_c, 1, 57, 127
1, 475062, Note_off_c, 1, 73, 0
1, 475062, Note_off_c, 1, 57, 0
1, 475068, Note_on_c, 1, 74, 127
1, 475068, Note_on_c, 1, 55, 127
1, 475153, Note_off_c, 1, 74, 0
1, 475160, Note_on_c, 1, 73, 127
1, 475245, Note_off_c, 1, 55, 0
1, 475245, Note_off_c, 1, 73, 0
1, 475252, Note_on_c, 1, 54, 127
1, 475252, Note_on_c, 1, 74, 127
1, 475430, Note_off_c, 1, 54, 0
1, 475437, Note_on_c, 1, 52, 127
1, 475615, Note_off_c, 1, 74, 0
1, 475615, Note_off_c, 1, 52, 0
1, 475622, Note_on_c, 1, 76, 127
1, 475622, Note_on_c, 1, 50, 127
1, 475800, Note_off_c, 1, 76, 0
1, 475800, Note_off_c, 1, 50, 0
1, 475807, Note_on_c, 1, 48, 127
1, 475807, Note_on_c, 1, 74, 127
1, 475985, Note_off_c, 1, 48, 0
1, 475991, Note_on_c, 1, 47, 127
1, 476169, Note_off_c, 1, 47, 0
1, 476170, Note_off_c, 1, 74, 0
1, 476176, Note_on_c, 1, 72, 127
1, 476176, Note_on_c, 1, 45, 127
1, 476354, Note_off_c, 1, 72, 0
1, 476354, Note_off_c, 1, 45, 0
1, 476361, Note_on_c, 1, 71, 127
1, 476361, Note_on_c, 1, 43, 127
1, 476539, Note_off_c, 1, 71, 0
1, 476539, Note_off_c, 1, 43, 0
1, 476546, Note_on_c, 1, 72, 127
1, 476546, Note_on_c, 1, 45, 127
1, 476724, Note_off_c, 1, 72, 0
1, 476724, Note_off_c, 1, 45, 0
1, 476731, Note_on_c, 1, 76, 127
1, 476731, Note_on_c, 1, 48, 127
1, 476909, Note_off_c, 1, 76, 0
1, 476909, Note_off_c, 1, 48, 0
1, 476916, Note_on_c, 1, 47, 127
1, 476916, Note_on_c, 1, 74, 127
1, 477094, Note_off_c, 1, 47, 0
1, 477100, Note_on_c, 1, 50, 127
1, 477239, Note_off_c, 1, 74, 0
1, 477278, Note_off_c, 1, 50, 0
1, 477285, Note_on_c, 1, 76, 127
1, 477285, Note_on_c, 1, 48, 127
1, 477370, Note_off_c, 1, 76, 0
1, 477377, Note_on_c, 1, 74, 127
1, 477462, Note_off_c, 1, 48, 0
1, 477462, Note_off_c, 1, 74, 0
1, 477469, Note_on_c, 1, 52, 127
1, 477469, Note_on_c, 1, 76, 127
1, 477647, Note_off_c, 1, 52, 0
1, 477654, Note_on_c, 1, 50, 127
1, 477832, Note_off_c, 1, 76, 0
1, 477832, Note_off_c, 1, 50, 0
1, 477839, Note_on_c, 1, 64, 127
1, 477839, Note_on_c, 1, 48, 127
1, 478017, Note_off_c, 1, 64, 0
1, 478017, Note_off_c, 1, 48, 0
1, 478024, Note_on_c, 1, 67, 127
1, 478024, Note_on_c, 1, 47, 127
1, 478202, Note_off_c, 1, 67, 0
1, 478202, Note_off_c, 1, 47, 0
1, 478208, Note_on_c, 1, 66, 127
1, 478208, Note_on_c, 1, 45, 127
1, 478386, Note_off_c, 1, 66, 0
1, 478386, Note_off_c, 1, 45, 0
1, 478393, Note_on_c, 1, 47, 127
1, 478393, Note_on_c, 1, 69, 127
1, 478571, Note_off_c, 1, 47, 0
1, 478578, Note_on_c, 1, 48, 127
1, 478756, Note_off_c, 1, 69, 0
1, 478756, Note_off_c, 1, 48, 0
1, 478763, Note_on_c, 1, 69, 127
1, 478763, Note_on_c, 1, 50, 127
1, 478848, Note_off_c, 1, 69, 0
1, 478855, Note_on_c, 1, 68, 127
1, 478940, Note_off_c, 1, 50, 0
1, 478940, Note_off_c, 1, 68, 0
1, 478947, Note_on_c, 1, 69, 127
1, 478947, Note_on_c, 1, 52, 127
1, 479032, Note_off_c, 1, 69, 0
1, 479039, Note_on_c, 1, 68, 127
1, 479124, Note_off_c, 1, 52, 0
1, 479124, Note_off_c, 1, 68, 0
1, 479131, Note_on_c, 1, 69, 127
1, 479131, Note_on_c, 1, 53, 127
1, 479216, Note_off_c, 1, 69, 0
1, 479222, Note_on_c, 1, 68, 127
1, 479307, Note_off_c, 1, 68, 0
1, 479308, Note_off_c, 1, 53, 0
1, 479314, Note_on_c, 1, 69, 127
1, 479314, Note_on_c, 1, 52, 127
1, 479399, Note_off_c, 1, 69, 0
1, 479406, Note_on_c, 1, 71, 127
1, 479491, Note_off_c, 1, 52, 0
1, 479491, Note_off_c, 1, 71, 0
1, 479498, Note_on_c, 1, 72, 127
1, 479498, Note_on_c, 1, 50, 127
1, 479583, Note_off_c, 1, 72, 0
1, 479590, Note_on_c, 1, 71, 127
1, 479675, Note_off_c, 1, 50, 0
1, 479675, Note_off_c, 1, 71, 0
1, 479682, Note_on_c, 1, 72, 127
1, 479682, Note_on_c, 1, 48, 127
1, 479767, Note_off_c, 1, 72, 0
1, 479774, Note_on_c, 1, 71, 127
1, 479859, Note_off_c, 1, 48, 0
1, 479859, Note_off_c, 1, 71, 0
1, 479866, Note_on_c, 1, 72, 127
1, 479866, Note_on_c, 1, 50, 127
1, 479951, Note_off_c, 1, 72, 0
1, 479958, Note_on_c, 1, 71, 127
1, 480043, Note_off_c, 1, 50, 0
1, 480043, Note_off_c, 1, 71, 0
1, 480050, Note_on_c, 1, 69, 127
1, 480050, Note_on_c, 1, 52, 127
1, 480135, Note_off_c, 1, 69, 0
1, 480142, Note_on_c, 1, 71, 127
1, 480227, Note_off_c, 1, 52, 0
1, 480227, Note_off_c, 1, 71, 0
1, 480233, Note_on_c, 1, 72, 127
1, 480233, Note_on_c, 1, 45, 127
1, 480411, Note_off_c, 1, 72, 0
1, 480411, Note_off_c, 1, 45, 0
1, 480418, Note_on_c, 1, 71, 127
1, 480418, Note_on_c, 1, 52, 127
1, 480596, Note_off_c, 1, 71, 0
1, 480596, Note_off_c, 1, 52, 0
1, 480603, Note_on_c, 1, 53, 127
1, 480603, Note_on_c, 1, 74, 127
1, 480781, Note_off_c, 1, 53, 0
1, 480788, Note_on_c, 1, 55, 127
1, 480875, Note_off_c, 1, 74, 0
1, 480965, Note_off_c, 1, 55, 0
1, 480972, Note_on_c, 1, 74, 127
1, 480972, Note_on_c, 1, 57, 127
1, 481057, Note_off_c, 1, 74, 0
1, 481064, Note_on_c, 1, 73, 127
1, 481149, Note_off_c, 1, 57, 0
1, 481149, Note_off_c, 1, 73, 0
1, 481156, Note_on_c, 1, 74, 127
1, 481156, Note_on_c, 1, 55, 127
1, 481241, Note_off_c, 1, 74, 0
1, 481248, Note_on_c, 1, 73, 127
1, 481333, Note_off_c, 1, 55, 0
1, 481333, Note_off_c, 1, 73, 0
1, 481339, Note_on_c, 1, 74, 127
1, 481339, Note_on_c, 1, 58, 127
1, 481424, Note_off_c, 1, 74, 0
1, 481431, Note_on_c, 1, 73, 127
1, 481516, Note_off_c, 1, 58, 0
1, 481516, Note_off_c, 1, 73, 0
1, 481523, Note_on_c, 1, 74, 127
1, 481523, Note_on_c, 1, 57, 127
1, 481608, Note_off_c, 1, 74, 0
1, 481615, Note_on_c, 1, 76, 127
1, 481700, Note_off_c, 1, 57, 0
1, 481700, Note_off_c, 1, 76, 0
1, 481707, Note_on_c, 1, 77, 127
1, 481707, Note_on_c, 1, 55, 127
1, 481792, Note_off_c, 1, 77, 0
1, 481799, Note_on_c, 1, 76, 127
1, 481884, Note_off_c, 1, 55, 0
1, 481884, Note_off_c, 1, 76, 0
1, 481891, Note_on_c, 1, 77, 127
1, 481891, Note_on_c, 1, 53, 127
1, 481976, Note_off_c, 1, 77, 0
1, 481983, Note_on_c, 1, 76, 127
1, 482068, Note_off_c, 1, 53, 0
1, 482068, Note_off_c, 1, 76, 0
1, 482075, Note_on_c, 1, 77, 127
1, 482075, Note_on_c, 1, 55, 127
1, 482160, Note_off_c, 1, 77, 0
1, 482167, Note_on_c, 1, 76, 127
1, 482252, Note_off_c, 1, 55, 0
1, 482252, Note_off_c, 1, 76, 0
1, 482259, Note_on_c, 1, 74, 127
1, 482259, Note_on_c, 1, 57, 127
1, 482344, Note_off_c, 1, 74, 0
1, 482350, Note_on_c, 1, 76, 127
1, 482435, Note_off_c, 1, 76, 0
1, 482436, Note_off_c, 1, 57, 0
1, 482442, Note_on_c, 1, 77, 127
1, 482442, Note_on_c, 1, 50, 127
1, 482620, Note_off_c, 1, 77, 0
1, 482620, Note_off_c, 1, 50, 0
1, 482627, Note_on_c, 1, 76, 127
1, 482627, Note_on_c, 1, 57, 127
1, 482805, Note_off_c, 1, 76, 0
1, 482805, Note_off_c, 1, 57, 0
1, 482812, Note_on_c, 1, 59, 127
1, 482812, Note_on_c, 1, 79, 127
1, 482990, Note_off_c, 1, 59, 0
1, 482997, Note_on_c, 1, 60, 127
1, 483084, Note_off_c, 1, 79, 0
1, 483174, Note_off_c, 1, 60, 0
1, 483181, Note_on_c, 1, 79, 127
1, 483181, Note_on_c, 1, 62, 127
1, 483266, Note_off_c, 1, 79, 0
1, 483273, Note_on_c, 1, 78, 127
1, 483358, Note_off_c, 1, 62, 0
1, 483358, Note_off_c, 1, 78, 0
1, 483364, Note_on_c, 1, 79, 127
1, 483364, Note_on_c, 1, 64, 127
1, 483449, Note_off_c, 1, 79, 0
1, 483456, Note_on_c, 1, 78, 127
1, 483541, Note_off_c, 1, 64, 0
1, 483541, Note_off_c, 1, 78, 0
1, 483548, Note_on_c, 1, 79, 127
1, 483548, Note_on_c, 1, 60, 127
1, 483633, Note_off_c, 1, 79, 0
1, 483640, Note_on_c, 1, 78, 127
1, 483725, Note_off_c, 1, 60, 0
1, 483725, Note_off_c, 1, 78, 0
1, 483732, Note_on_c, 1, 80, 127
1, 483732, Note_on_c, 1, 64, 127
1, 483817, Note_off_c, 1, 80, 0
1, 483824, Note_on_c, 1, 81, 127
1, 483909, Note_off_c, 1, 64, 0
1, 483909, Note_off_c, 1, 81, 0
1, 483916, Note_on_c, 1, 81, 127
1, 483916, Note_on_c, 1, 62, 127
1, 484001, Note_off_c, 1, 81, 0
1, 484008, Note_on_c, 1, 80, 127
1, 484093, Note_off_c, 1, 62, 0
1, 484093, Note_off_c, 1, 80, 0
1, 484100, Note_on_c, 1, 81, 127
1, 484100, Note_on_c, 1, 65, 127
1, 484185, Note_off_c, 1, 81, 0
1, 484192, Note_on_c, 1, 80, 127
1, 484277, Note_off_c, 1, 65, 0
1, 484277, Note_off_c, 1, 80, 0
1, 484284, Note_on_c, 1, 81, 127
1, 484284, Note_on_c, 1, 64, 127
1, 484369, Note_off_c, 1, 81, 0
1, 484376, Note_on_c, 1, 80, 127
1, 484461, Note_off_c, 1, 64, 0
1, 484461, Note_off_c, 1, 80, 0
1, 484467, Note_on_c, 1, 78, 127
1, 484467, Note_on_c, 1, 62, 127
1, 484552, Note_off_c, 1, 78, 0
1, 484559, Note_on_c, 1, 80, 127
1, 484644, Note_off_c, 1, 62, 0
1, 484644, Note_off_c, 1, 80, 0
1, 484651, Note_on_c, 1, 81, 127
1, 484651, Note_on_c, 1, 60, 127
1, 484829, Note_off_c, 1, 81, 0
1, 484829, Note_off_c, 1, 60, 0
1, 484836, Note_on_c, 1, 74, 127
1, 484836, Note_on_c, 1, 59, 127
1, 485014, Note_off_c, 1, 74, 0
1, 485014, Note_off_c, 1, 59, 0
1, 485021, Note_on_c, 1, 76, 127
1, 485021, Note_on_c, 1, 60, 127
1, 485199, Note_off_c, 1, 76, 0
1, 485199, Note_off_c, 1, 60, 0
1, 485206, Note_on_c, 1, 77, 127
1, 485206, Note_on_c, 1, 62, 127
1, 485384, Note_off_c, 1, 77, 0
1, 485384, Note_off_c, 1, 62, 0
1, 485391, Note_on_c, 1, 72, 127
1, 485391, Note_on_c, 1, 64, 127
1, 485391, Note_on_c, 1, 68, 127
1, 485508, Note_off_c, 1, 72, 0
1, 485514, Note_on_c, 1, 71, 127
1, 485577, Note_off_c, 1, 71, 0
1, 485754, Note_off_c, 1, 64, 0
1, 485760, Note_on_c, 1, 52, 127
1, 485945, Note_on_c, 1, 69, 127
1, 486118, Note_off_c, 1, 68, 0
1, 486123, Note_off_c, 1, 52, 0
1, 486123, Note_off_c, 1, 69, 0
1, 486130, Note_on_c, 1, 57, 127
1, 486130, Note_on_c, 1, 69, 127
1, 486499, Note_on_c, 1, 45, 127
1, 486867, Note_on_c, 1, 52, 127
1, 487230, Note_off_c, 1, 57, 0
1, 487230, Note_off_c, 1, 52, 0
1, 487237, Note_on_c, 1, 64, 127
1, 487237, Note_on_c, 1, 61, 127
1, 487969, Note_off_c, 1, 45, 0
1, 487988, Note_on_c, 1, 76, 127
1, 488143, Note_off_c, 1, 69, 0
1, 488154, Note_off_c, 1, 64, 0
1, 488154, Note_off_c, 1, 61, 0
1, 488338, Note_off_c, 1, 76, 0
1, 488345, Note_on_c, 1, 45, 127
1, 488345, Note_on_c, 1, 69, 127
1, 488345, Note_on_c, 1, 73, 127
1, 488345, Note_on_c, 1, 76, 127
1, 488523, Note_off_c, 1, 45, 0
1, 488530, Note_on_c, 1, 57, 127
1, 488708, Note_off_c, 1, 57, 0
1, 488714, Note_on_c, 1, 55, 127
1, 488892, Note_off_c, 1, 55, 0
1, 488893, Note_off_c, 1, 69, 0
1, 488893, Note_off_c, 1, 73, 0
1, 488893, Note_off_c, 1, 76, 0
1, 488899, Note_on_c, 1, 77, 127
1, 488899, Note_on_c, 1, 53, 127
1, 489077, Note_off_c, 1, 77, 0
1, 489077, Note_off_c, 1, 53, 0
1, 489084, Note_on_c, 1, 52, 127
1, 489084, Note_on_c, 1, 79, 127
1, 489262, Note_off_c, 1, 52, 0
1, 489269, Note_on_c, 1, 49, 127
1, 489447, Note_off_c, 1, 79, 0
1, 489447, Note_off_c, 1, 49, 0
1, 489454, Note_on_c, 1, 77, 127
1, 489454, Note_on_c, 1, 50, 127
1, 489632, Note_off_c, 1, 77, 0
1, 489632, Note_off_c, 1, 50, 0
1, 489639, Note_on_c, 1, 76, 127
1, 489639, Note_on_c, 1, 52, 127
1, 489817, Note_off_c, 1, 76, 0
1, 489817, Note_off_c, 1, 52, 0
1, 489823, Note_on_c, 1, 74, 127
1, 489823, Note_on_c, 1, 45, 127
1, 490001, Note_off_c, 1, 74, 0
1, 490001, Note_off_c, 1, 45, 0
1, 490008, Note_on_c, 1, 73, 127
1, 490008, Note_on_c, 1, 55, 127
1, 490186, Note_off_c, 1, 73, 0
1, 490186, Note_off_c, 1, 55, 0
1, 490193, Note_on_c, 1, 74, 127
1, 490193, Note_on_c, 1, 53, 127
1, 490371, Note_off_c, 1, 74, 0
1, 490371, Note_off_c, 1, 53, 0
1, 490378, Note_on_c, 1, 76, 127
1, 490378, Note_on_c, 1, 52, 127
1, 490556, Note_off_c, 1, 76, 0
1, 490556, Note_off_c, 1, 52, 0
1, 490563, Note_on_c, 1, 77, 127
1, 490563, Note_on_c, 1, 50, 127
1, 490648, Note_off_c, 1, 77, 0
1, 490655, Note_on_c, 1, 76, 127
1, 490740, Note_off_c, 1, 50, 0
1, 490740, Note_off_c, 1, 76, 0
1, 490747, Note_on_c, 1, 57, 127
1, 490747, Note_on_c, 1, 77, 127
1, 490925, Note_off_c, 1, 57, 0
1, 490931, Note_on_c, 1, 62, 127
1, 491109, Note_off_c, 1, 62, 0
1, 491110, Note_off_c, 1, 77, 0
1, 491116, Note_on_c, 1, 76, 127
1, 491116, Note_on_c, 1, 60, 127
1, 491294, Note_off_c, 1, 76, 0
1, 491294, Note_off_c, 1, 60, 0
1, 491301, Note_on_c, 1, 58, 127
1, 491301, Note_on_c, 1, 74, 127
1, 491479, Note_off_c, 1, 58, 0
1, 491486, Note_on_c, 1, 57, 127
1, 491641, Note_off_c, 1, 74, 0
1, 491664, Note_off_c, 1, 57, 0
1, 491671, Note_on_c, 1, 55, 127
1, 491671, Note_on_c, 1, 82, 127
1, 491849, Note_off_c, 1, 55, 0
1, 491856, Note_on_c, 1, 58, 127
1, 492009, Note_off_c, 1, 82, 0
1, 492034, Note_off_c, 1, 58, 0
1, 492040, Note_on_c, 1, 82, 127
1, 492040, Note_on_c, 1, 60, 127
1, 492218, Note_off_c, 1, 82, 0
1, 492218, Note_off_c, 1, 60, 0
1, 492225, Note_on_c, 1, 81, 127
1, 492225, Note_on_c, 1, 58, 127
1, 492403, Note_off_c, 1, 81, 0
1, 492403, Note_off_c, 1, 58, 0
1, 492410, Note_on_c, 1, 79, 127
1, 492410, Note_on_c, 1, 60, 127
1, 492588, Note_off_c, 1, 79, 0
1, 492588, Note_off_c, 1, 60, 0
1, 492595, Note_on_c, 1, 78, 127
1, 492595, Note_on_c, 1, 62, 127
1, 492773, Note_off_c, 1, 78, 0
1, 492773, Note_off_c, 1, 62, 0
1, 492780, Note_on_c, 1, 79, 127
1, 492780, Note_on_c, 1, 63, 127
1, 492865, Note_off_c, 1, 79, 0
1, 492872, Note_on_c, 1, 78, 127
1, 492957, Note_off_c, 1, 63, 0
1, 492957, Note_off_c, 1, 78, 0
1, 492964, Note_on_c, 1, 62, 127
1, 492964, Note_on_c, 1, 79, 127
1, 493142, Note_off_c, 1, 62, 0
1, 493148, Note_on_c, 1, 64, 127
1, 493326, Note_off_c, 1, 64, 0
1, 493327, Note_off_c, 1, 79, 0
1, 493333, Note_on_c, 1, 81, 127
1, 493333, Note_on_c, 1, 66, 127
1, 493511, Note_off_c, 1, 81, 0
1, 493511, Note_off_c, 1, 66, 0
1, 493518, Note_on_c, 1, 82, 127
1, 493518, Note_on_c, 1, 67, 127
1, 493696, Note_off_c, 1, 82, 0
1, 493696, Note_off_c, 1, 67, 0
1, 493703, Note_on_c, 1, 81, 127
1, 493703, Note_on_c, 1, 66, 127
1, 493881, Note_off_c, 1, 81, 0
1, 493881, Note_off_c, 1, 66, 0
1, 493888, Note_on_c, 1, 67, 127
1, 493888, Note_on_c, 1, 84, 127
1, 494066, Note_off_c, 1, 67, 0
1, 494073, Note_on_c, 1, 69, 127
1, 494160, Note_off_c, 1, 84, 0
1, 494250, Note_off_c, 1, 69, 0
1, 494256, Note_on_c, 1, 82, 127
1, 494256, Note_on_c, 1, 67, 127
1, 494401, Note_on_c, 1, 81, 127
1, 494403, Note_off_c, 1, 82, 0
1, 494433, Note_off_c, 1, 67, 0
1, 494440, Note_on_c, 1, 66, 127
1, 494486, Note_off_c, 1, 81, 0
1, 494617, Note_off_c, 1, 66, 0
1, 494624, Note_on_c, 1, 64, 127
1, 494801, Note_off_c, 1, 64, 0
1, 494808, Note_on_c, 1, 79, 127
1, 494808, Note_on_c, 1, 62, 127
1, 494893, Note_off_c, 1, 79, 0
1, 494900, Note_on_c, 1, 81, 127
1, 494985, Note_off_c, 1, 62, 0
1, 494985, Note_off_c, 1, 81, 0
1, 494992, Note_on_c, 1, 82, 127
1, 494992, Note_on_c, 1, 67, 127
1, 495077, Note_off_c, 1, 82, 0
1, 495084, Note_on_c, 1, 81, 127
1, 495169, Note_off_c, 1, 67, 0
1, 495169, Note_off_c, 1, 81, 0
1, 495175, Note_on_c, 1, 55, 127
1, 495175, Note_on_c, 1, 82, 127
1, 495353, Note_off_c, 1, 55, 0
1, 495360, Note_on_c, 1, 57, 127
1, 495538, Note_off_c, 1, 82, 0
1, 495538, Note_off_c, 1, 57, 0
1, 495545, Note_on_c, 1, 81, 127
1, 495545, Note_on_c, 1, 58, 127
1, 495723, Note_off_c, 1, 81, 0
1, 495723, Note_off_c, 1, 58, 0
1, 495730, Note_on_c, 1, 79, 127
1, 495730, Note_on_c, 1, 60, 127
1, 495908, Note_off_c, 1, 79, 0
1, 495908, Note_off_c, 1, 60, 0
1, 495915, Note_on_c, 1, 78, 127
1, 495915, Note_on_c, 1, 62, 127
1, 496093, Note_off_c, 1, 78, 0
1, 496093, Note_off_c, 1, 62, 0
1, 496100, Note_on_c, 1, 79, 127
1, 496100, Note_on_c, 1, 63, 127
1, 496278, Note_off_c, 1, 79, 0
1, 496278, Note_off_c, 1, 63, 0
1, 496284, Note_on_c, 1, 81, 127
1, 496284, Note_on_c, 1, 60, 127
1, 496462, Note_off_c, 1, 81, 0
1, 496462, Note_off_c, 1, 60, 0
1, 496469, Note_on_c, 1, 82, 127
1, 496469, Note_on_c, 1, 62, 127
1, 496469, Note_on_c, 1, 78, 127
1, 496586, Note_off_c, 1, 82, 0
1, 496592, Note_on_c, 1, 81, 127
1, 496655, Note_off_c, 1, 81, 0
1, 496832, Note_off_c, 1, 62, 0
1, 496839, Note_on_c, 1, 50, 127
1, 497024, Note_on_c, 1, 79, 127
1, 497196, Note_off_c, 1, 78, 0
1, 497202, Note_off_c, 1, 50, 0
1, 497202, Note_off_c, 1, 79, 0
1, 497209, Note_on_c, 1, 55, 127
1, 497209, Note_on_c, 1, 79, 127
1, 497209, Note_on_c, 1, 70, 127
1, 497209, Note_on_c, 1, 74, 127
1, 497387, Note_off_c, 1, 55, 0
1, 497393, Note_on_c, 1, 57, 127
1, 497571, Note_off_c, 1, 57, 0
1, 497578, Note_on_c, 1, 58, 127
1, 497756, Note_off_c, 1, 58, 0
1, 498127, Note_off_c, 1, 79, 0
1, 498127, Note_off_c, 1, 70, 0
1, 498127, Note_off_c, 1, 74, 0
1, 498133, Note_on_c, 1, 81, 127
1, 498133, Note_on_c, 1, 53, 127
1, 498311, Note_off_c, 1, 81, 0
1, 498311, Note_off_c, 1, 53, 0
1, 498318, Note_on_c, 1, 82, 127
1, 498318, Note_on_c, 1, 52, 127
1, 498496, Note_off_c, 1, 82, 0
1, 498496, Note_off_c, 1, 52, 0
1, 498502, Note_on_c, 1, 81, 127
1, 498502, Note_on_c, 1, 53, 127
1, 498680, Note_off_c, 1, 81, 0
1, 498680, Note_off_c, 1, 53, 0
1, 498687, Note_on_c, 1, 79, 127
1, 498687, Note_on_c, 1, 46, 127
1, 498865, Note_off_c, 1, 79, 0
1, 498872, Note_on_c, 1, 77, 127
1, 499050, Note_off_c, 1, 46, 0
1, 499050, Note_off_c, 1, 77, 0
1, 499057, Note_on_c, 1, 76, 127
1, 499057, Note_on_c, 1, 50, 127
1, 499235, Note_off_c, 1, 76, 0
1, 499242, Note_on_c, 1, 77, 127
1, 499420, Note_off_c, 1, 50, 0
1, 499420, Note_off_c, 1, 77, 0
1, 499427, Note_on_c, 1, 77, 127
1, 499427, Note_on_c, 1, 48, 127
1, 499488, Note_on_c, 1, 76, 127
1, 499490, Note_off_c, 1, 77, 0
1, 499551, Note_off_c, 1, 76, 0
1, 499605, Note_off_c, 1, 48, 0
1, 499611, Note_on_c, 1, 55, 127
1, 499789, Note_off_c, 1, 55, 0
1, 499796, Note_on_c, 1, 60, 127
1, 499974, Note_off_c, 1, 60, 0
1, 499981, Note_on_c, 1, 74, 127
1, 499981, Note_on_c, 1, 58, 127
1, 500159, Note_off_c, 1, 74, 0
1, 500159, Note_off_c, 1, 58, 0
1, 500166, Note_on_c, 1, 57, 127
1, 500166, Note_on_c, 1, 72, 127
1, 500344, Note_off_c, 1, 57, 0
1, 500351, Note_on_c, 1, 60, 127
1, 500529, Note_off_c, 1, 72, 0
1, 500529, Note_off_c, 1, 60, 0
1, 500536, Note_on_c, 1, 58, 127
1, 500536, Note_on_c, 1, 84, 127
1, 500714, Note_off_c, 1, 58, 0
1, 500720, Note_on_c, 1, 57, 127
1, 500898, Note_off_c, 1, 57, 0
1, 500899, Note_off_c, 1, 84, 0
1, 500905, Note_on_c, 1, 82, 127
1, 500905, Note_on_c, 1, 55, 127
1, 501083, Note_off_c, 1, 82, 0
1, 501083, Note_off_c, 1, 55, 0
1, 501090, Note_on_c, 1, 81, 127
1, 501090, Note_on_c, 1, 53, 127
1, 501268, Note_off_c, 1, 81, 0
1, 501268, Note_off_c, 1, 53, 0
1, 501275, Note_on_c, 1, 79, 127
1, 501275, Note_on_c, 1, 55, 127
1, 501453, Note_off_c, 1, 79, 0
1, 501453, Note_off_c, 1, 55, 0
1, 501460, Note_on_c, 1, 77, 127
1, 501460, Note_on_c, 1, 57, 127
1, 501638, Note_off_c, 1, 77, 0
1, 501638, Note_off_c, 1, 57, 0
1, 501644, Note_on_c, 1, 75, 127
1, 501644, Note_on_c, 1, 58, 127
1, 501822, Note_off_c, 1, 75, 0
1, 501822, Note_off_c, 1, 58, 0
1, 501829, Note_on_c, 1, 53, 127
1, 501829, Note_on_c, 1, 74, 127
1, 502007, Note_off_c, 1, 53, 0
1, 502014, Note_on_c, 1, 46, 127
1, 502190, Note_off_c, 1, 74, 0
1, 502192, Note_off_c, 1, 46, 0
1, 502199, Note_on_c, 1, 75, 127
1, 502199, Note_on_c, 1, 48, 127
1, 502377, Note_off_c, 1, 75, 0
1, 502377, Note_off_c, 1, 48, 0
1, 502384, Note_on_c, 1, 77, 127
1, 502384, Note_on_c, 1, 50, 127
1, 502562, Note_off_c, 1, 77, 0
1, 502569, Note_on_c, 1, 75, 127
1, 502747, Note_off_c, 1, 50, 0
1, 502747, Note_off_c, 1, 75, 0
1, 502753, Note_on_c, 1, 79, 127
1, 502753, Note_on_c, 1, 51, 127
1, 502931, Note_off_c, 1, 79, 0
1, 502931, Note_off_c, 1, 51, 0
1, 502938, Note_on_c, 1, 77, 127
1, 502938, Note_on_c, 1, 53, 127
1, 503116, Note_off_c, 1, 77, 0
1, 503116, Note_off_c, 1, 53, 0
1, 503123, Note_on_c, 1, 75, 127
1, 503123, Note_on_c, 1, 55, 127
1, 503301, Note_off_c, 1, 75, 0
1, 503308, Note_on_c, 1, 74, 127
1, 503486, Note_off_c, 1, 55, 0
1, 503486, Note_off_c, 1, 74, 0
1, 503493, Note_on_c, 1, 72, 127
1, 503493, Note_on_c, 1, 51, 127
1, 503671, Note_off_c, 1, 72, 0
1, 503678, Note_on_c, 1, 70, 127
1, 503856, Note_off_c, 1, 51, 0
1, 503856, Note_off_c, 1, 70, 0
1, 503862, Note_on_c, 1, 70, 127
1, 503862, Note_on_c, 1, 53, 127
1, 504040, Note_off_c, 1, 70, 0
1, 504047, Note_on_c, 1, 69, 127
1, 504225, Note_off_c, 1, 69, 0
1, 504232, Note_on_c, 1, 67, 127
1, 504410, Note_off_c, 1, 67, 0
1, 504417, Note_on_c, 1, 65, 127
1, 504595, Note_off_c, 1, 65, 0
1, 504705, Note_off_c, 1, 53, 0
1, 504787, Note_on_c, 1, 69, 127
1, 504787, Note_on_c, 1, 51, 127
1, 504965, Note_off_c, 1, 69, 0
1, 504965, Note_off_c, 1, 51, 0
1, 504971, Note_on_c, 1, 70, 127
1, 504971, Note_on_c, 1, 50, 127
1, 505149, Note_off_c, 1, 70, 0
1, 505149, Note_off_c, 1, 50, 0
1, 505156, Note_on_c, 1, 72, 127
1, 505156, Note_on_c, 1, 48, 127
1, 505334, Note_off_c, 1, 72, 0
1, 505334, Note_off_c, 1, 48, 0
1, 505341, Note_on_c, 1, 74, 127
1, 505341, Note_on_c, 1, 46, 127
1, 505519, Note_off_c, 1, 74, 0
1, 505519, Note_off_c, 1, 46, 0
1, 505526, Note_on_c, 1, 75, 127
1, 505526, Note_on_c, 1, 44, 127
1, 505704, Note_off_c, 1, 75, 0
1, 505704, Note_off_c, 1, 44, 0
1, 505711, Note_on_c, 1, 77, 127
1, 505711, Note_on_c, 1, 43, 127
1, 505889, Note_off_c, 1, 77, 0
1, 505889, Note_off_c, 1, 43, 0
1, 505896, Note_on_c, 1, 74, 127
1, 505896, Note_on_c, 1, 41, 127
1, 506074, Note_off_c, 1, 74, 0
1, 506074, Note_off_c, 1, 41, 0
1, 506080, Note_on_c, 1, 79, 127
1, 506080, Note_on_c, 1, 39, 127
1, 506258, Note_off_c, 1, 79, 0
1, 506258, Note_off_c, 1, 39, 0
1, 506265, Note_on_c, 1, 77, 127
1, 506265, Note_on_c, 1, 51, 127
1, 506443, Note_off_c, 1, 77, 0
1, 506443, Note_off_c, 1, 51, 0
1, 506450, Note_on_c, 1, 50, 127
1, 506450, Note_on_c, 1, 82, 127
1, 506628, Note_off_c, 1, 50, 0
1, 506635, Note_on_c, 1, 48, 127
1, 506813, Note_off_c, 1, 82, 0
1, 506813, Note_off_c, 1, 48, 0
1, 506820, Note_on_c, 1, 75, 127
1, 506820, Note_on_c, 1, 46, 127
1, 506933, Note_on_c, 1, 74, 127
1, 506937, Note_off_c, 1, 75, 0
1, 506996, Note_off_c, 1, 74, 0
1, 506998, Note_off_c, 1, 46, 0
1, 507005, Note_on_c, 1, 75, 127
1, 507005, Note_on_c, 1, 50, 127
1, 507068, Note_off_c, 1, 75, 0
1, 507076, Note_on_c, 1, 74, 127
1, 507183, Note_off_c, 1, 50, 0
1, 507189, Note_on_c, 1, 55, 127
1, 507367, Note_off_c, 1, 55, 0
1, 507374, Note_on_c, 1, 72, 127
1, 507374, Note_on_c, 1, 51, 127
1, 507380, Note_off_c, 1, 74, 0
1, 507552, Note_off_c, 1, 72, 0
1, 507552, Note_off_c, 1, 51, 0
1, 507559, Note_on_c, 1, 74, 127
1, 507559, Note_on_c, 1, 53, 127
1, 507559, Note_on_c, 1, 69, 127
1, 507676, Note_off_c, 1, 74, 0
1, 507682, Note_on_c, 1, 72, 127
1, 507745, Note_off_c, 1, 72, 0
1, 507922, Note_off_c, 1, 53, 0
1, 507929, Note_on_c, 1, 41, 127
1, 508114, Note_on_c, 1, 70, 127
1, 508286, Note_off_c, 1, 69, 0
1, 508292, Note_off_c, 1, 41, 0
1, 508292, Note_off_c, 1, 70, 0
1, 508298, Note_on_c, 1, 46, 127
1, 508298, Note_on_c, 1, 62, 127
1, 508298, Note_on_c, 1, 65, 127
1, 508298, Note_on_c, 1, 70, 127
1, 508476, Note_off_c, 1, 46, 0
1, 508483, Note_on_c, 1, 50, 127
1, 508661, Note_off_c, 1, 50, 0
1, 508668, Note_on_c, 1, 48, 127
1, 508846, Note_off_c, 1, 48, 0
1, 509025, Note_off_c, 1, 62, 0
1, 509025, Note_off_c, 1, 65, 0
1, 509038, Note_on_c, 1, 45, 127
1, 509202, Note_off_c, 1, 70, 0
1, 509216, Note_off_c, 1, 45, 0
1, 509223, Note_on_c, 1, 43, 127
1, 509401, Note_off_c, 1, 43, 0
1, 509407, Note_on_c, 1, 42, 127
1, 509407, Note_on_c, 1, 74, 127
1, 509585, Note_off_c, 1, 42, 0
1, 509592, Note_on_c, 1, 40, 127
1, 509770, Note_off_c, 1, 74, 0
1, 509770, Note_off_c, 1, 40, 0
1, 509777, Note_on_c, 1, 72, 127
1, 509777, Note_on_c, 1, 42, 127
1, 509955, Note_off_c, 1, 72, 0
1, 509962, Note_on_c, 1, 70, 127
1, 510140, Note_off_c, 1, 42, 0
1, 510140, Note_off_c, 1, 70, 0
1, 510147, Note_on_c, 1, 69, 127
1, 510147, Note_on_c, 1, 50, 127
1, 510325, Note_off_c, 1, 69, 0
1, 510331, Note_on_c, 1, 70, 127
1, 510509, Note_off_c, 1, 70, 0
1, 510510, Note_off_c, 1, 50, 0
1, 510516, Note_on_c, 1, 72, 127
1, 510516, Note_on_c, 1, 55, 127
1, 510694, Note_off_c, 1, 72, 0
1, 510701, Note_on_c, 1, 70, 127
1, 510879, Note_off_c, 1, 70, 0
1, 510886, Note_on_c, 1, 69, 127
1, 511064, Note_off_c, 1, 55, 0
1, 511064, Note_off_c, 1, 69, 0
1, 511071, Note_on_c, 1, 67, 127
1, 511071, Note_on_c, 1, 57, 127
1, 511249, Note_off_c, 1, 67, 0
1, 511249, Note_off_c, 1, 57, 0
1, 511256, Note_on_c, 1, 79, 127
1, 511256, Note_on_c, 1, 58, 127
1, 511341, Note_off_c, 1, 79, 0
1, 511348, Note_on_c, 1, 77, 127
1, 511433, Note_off_c, 1, 58, 0
1, 511433, Note_off_c, 1, 77, 0
1, 511439, Note_on_c, 1, 60, 127
1, 511439, Note_on_c, 1, 79, 127
1, 511617, Note_off_c, 1, 60, 0
1, 511624, Note_on_c, 1, 58, 127
1, 511802, Note_off_c, 1, 79, 0
1, 511802, Note_off_c, 1, 58, 0
1, 511809, Note_on_c, 1, 77, 127
1, 511809, Note_on_c, 1, 57, 127
1, 511987, Note_off_c, 1, 77, 0
1, 511987, Note_off_c, 1, 57, 0
1, 511994, Note_on_c, 1, 76, 127
1, 511994, Note_on_c, 1, 55, 127
1, 512172, Note_off_c, 1, 76, 0
1, 512172, Note_off_c, 1, 55, 0
1, 512179, Note_on_c, 1, 74, 127
1, 512179, Note_on_c, 1, 53, 127
1, 512357, Note_off_c, 1, 74, 0
1, 512357, Note_off_c, 1, 53, 0
1, 512364, Note_on_c, 1, 73, 127
1, 512364, Note_on_c, 1, 55, 127
1, 512542, Note_off_c, 1, 73, 0
1, 512542, Note_off_c, 1, 55, 0
1, 512548, Note_on_c, 1, 74, 127
1, 512548, Note_on_c, 1, 52, 127
1, 512726, Note_off_c, 1, 74, 0
1, 512726, Note_off_c, 1, 52, 0
1, 512733, Note_on_c, 1, 73, 127
1, 512733, Note_on_c, 1, 57, 127
1, 512911, Note_off_c, 1, 73, 0
1, 512918, Note_on_c, 1, 76, 127
1, 513096, Note_off_c, 1, 76, 0
1, 513103, Note_on_c, 1, 69, 127
1, 513281, Note_off_c, 1, 57, 0
1, 513281, Note_off_c, 1, 69, 0
1, 513288, Note_on_c, 1, 71, 127
1, 513288, Note_on_c, 1, 55, 127
1, 513466, Note_off_c, 1, 71, 0
1, 513466, Note_off_c, 1, 55, 0
1, 513473, Note_on_c, 1, 72, 127
1, 513473, Note_on_c, 1, 54, 127
1, 513651, Note_off_c, 1, 72, 0
1, 513651, Note_off_c, 1, 54, 0
1, 513657, Note_on_c, 1, 71, 127
1, 513657, Note_on_c, 1, 50, 127
1, 513835, Note_off_c, 1, 71, 0
1, 513835, Note_off_c, 1, 50, 0
1, 513842, Note_on_c, 1, 52, 127
1, 513842, Note_on_c, 1, 74, 127
1, 514020, Note_off_c, 1, 52, 0
1, 514027, Note_on_c, 1, 53, 127
1, 514205, Note_off_c, 1, 74, 0
1, 514205, Note_off_c, 1, 53, 0
1, 514212, Note_on_c, 1, 74, 127
1, 514212, Note_on_c, 1, 55, 127
1, 514297, Note_off_c, 1, 74, 0
1, 514304, Note_on_c, 1, 73, 127
1, 514389, Note_off_c, 1, 55, 0
1, 514389, Note_off_c, 1, 73, 0
1, 514396, Note_on_c, 1, 74, 127
1, 514396, Note_on_c, 1, 57, 127
1, 514481, Note_off_c, 1, 74, 0
1, 514488, Note_on_c, 1, 73, 127
1, 514573, Note_off_c, 1, 57, 0
1, 514573, Note_off_c, 1, 73, 0
1, 514580, Note_on_c, 1, 74, 127
1, 514580, Note_on_c, 1, 58, 127
1, 514665, Note_off_c, 1, 74, 0
1, 514671, Note_on_c, 1, 73, 127
1, 514756, Note_off_c, 1, 73, 0
1, 514757, Note_off_c, 1, 58, 0
1, 514763, Note_on_c, 1, 74, 127
1, 514763, Note_on_c, 1, 57, 127
1, 514848, Note_off_c, 1, 74, 0
1, 514855, Note_on_c, 1, 76, 127
1, 514940, Note_off_c, 1, 57, 0
1, 514940, Note_off_c, 1, 76, 0
1, 514947, Note_on_c, 1, 77, 127
1, 514947, Note_on_c, 1, 55, 127
1, 515032, Note_off_c, 1, 77, 0
1, 515039, Note_on_c, 1, 76, 127
1, 515124, Note_off_c, 1, 55, 0
1, 515124, Note_off_c, 1, 76, 0
1, 515131, Note_on_c, 1, 77, 127
1, 515131, Note_on_c, 1, 53, 127
1, 515216, Note_off_c, 1, 77, 0
1, 515223, Note_on_c, 1, 76, 127
1, 515308, Note_off_c, 1, 53, 0
1, 515308, Note_off_c, 1, 76, 0
1, 515315, Note_on_c, 1, 77, 127
1, 515315, Note_on_c, 1, 55, 127
1, 515400, Note_off_c, 1, 77, 0
1, 515407, Note_on_c, 1, 76, 127
1, 515492, Note_off_c, 1, 55, 0
1, 515492, Note_off_c, 1, 76, 0
1, 515499, Note_on_c, 1, 74, 127
1, 515499, Note_on_c, 1, 57, 127
1, 515584, Note_off_c, 1, 74, 0
1, 515591, Note_on_c, 1, 76, 127
1, 515676, Note_off_c, 1, 57, 0
1, 515676, Note_off_c, 1, 76, 0
1, 515682, Note_on_c, 1, 77, 127
1, 515682, Note_on_c, 1, 50, 127
1, 515860, Note_off_c, 1, 77, 0
1, 515860, Note_off_c, 1, 50, 0
1, 515867, Note_on_c, 1, 76, 127
1, 515867, Note_on_c, 1, 57, 127
1, 516045, Note_off_c, 1, 76, 0
1, 516045, Note_off_c, 1, 57, 0
1, 516052, Note_on_c, 1, 58, 127
1, 516052, Note_on_c, 1, 79, 127
1, 516230, Note_off_c, 1, 58, 0
1, 516237, Note_on_c, 1, 60, 127
1, 516317, Note_off_c, 1, 79, 0
1, 516415, Note_off_c, 1, 60, 0
1, 516422, Note_on_c, 1, 79, 127
1, 516422, Note_on_c, 1, 62, 127
1, 516507, Note_off_c, 1, 79, 0
1, 516514, Note_on_c, 1, 78, 127
1, 516599, Note_off_c, 1, 62, 0
1, 516599, Note_off_c, 1, 78, 0
1, 516606, Note_on_c, 1, 79, 127
1, 516606, Note_on_c, 1, 60, 127
1, 516691, Note_off_c, 1, 79, 0
1, 516698, Note_on_c, 1, 78, 127
1, 516783, Note_off_c, 1, 60, 0
1, 516783, Note_off_c, 1, 78, 0
1, 516789, Note_on_c, 1, 79, 127
1, 516789, Note_on_c, 1, 63, 127
1, 516874, Note_off_c, 1, 79, 0
1, 516881, Note_on_c, 1, 78, 127
1, 516966, Note_off_c, 1, 63, 0
1, 516966, Note_off_c, 1, 78, 0
1, 516973, Note_on_c, 1, 79, 127
1, 516973, Note_on_c, 1, 62, 127
1, 517058, Note_off_c, 1, 79, 0
1, 517065, Note_on_c, 1, 81, 127
1, 517150, Note_off_c, 1, 62, 0
1, 517150, Note_off_c, 1, 81, 0
1, 517157, Note_on_c, 1, 82, 127
1, 517157, Note_on_c, 1, 60, 127
1, 517242, Note_off_c, 1, 82, 0
1, 517249, Note_on_c, 1, 81, 127
1, 517334, Note_off_c, 1, 60, 0
1, 517334, Note_off_c, 1, 81, 0
1, 517341, Note_on_c, 1, 82, 127
1, 517341, Note_on_c, 1, 58, 127
1, 517426, Note_off_c, 1, 82, 0
1, 517433, Note_on_c, 1, 81, 127
1, 517518, Note_off_c, 1, 58, 0
1, 517518, Note_off_c, 1, 81, 0
1, 517525, Note_on_c, 1, 82, 127
1, 517525, Note_on_c, 1, 60, 127
1, 517610, Note_off_c, 1, 82, 0
1, 517617, Note_on_c, 1, 81, 127
1, 517702, Note_off_c, 1, 60, 0
1, 517702, Note_off_c, 1, 81, 0
1, 517709, Note_on_c, 1, 79, 127
1, 517709, Note_on_c, 1, 62, 127
1, 517794, Note_off_c, 1, 79, 0
1, 517800, Note_on_c, 1, 81, 127
1, 517885, Note_off_c, 1, 81, 0
1, 517886, Note_off_c, 1, 62, 0
1, 517892, Note_on_c, 1, 82, 127
1, 517892, Note_on_c, 1, 55, 127
1, 518070, Note_off_c, 1, 82, 0
1, 518070, Note_off_c, 1, 55, 0
1, 518077, Note_on_c, 1, 81, 127
1, 518077, Note_on_c, 1, 57, 127
1, 518255, Note_off_c, 1, 81, 0
1, 518255, Note_off_c, 1, 57, 0
1, 518262, Note_on_c, 1, 79, 127
1, 518262, Note_on_c, 1, 58, 127
1, 518440, Note_off_c, 1, 79, 0
1, 518440, Note_off_c, 1, 58, 0
1, 518447, Note_on_c, 1, 77, 127
1, 518447, Note_on_c, 1, 57, 127
1, 518625, Note_off_c, 1, 77, 0
1, 518625, Note_off_c, 1, 57, 0
1, 518632, Note_on_c, 1, 76, 127
1, 518632, Note_on_c, 1, 55, 127
1, 518810, Note_off_c, 1, 76, 0
1, 518810, Note_off_c, 1, 55, 0
1, 518817, Note_on_c, 1, 74, 127
1, 518817, Note_on_c, 1, 53, 127
1, 518995, Note_off_c, 1, 74, 0
1, 518995, Note_off_c, 1, 53, 0
1, 519001, Note_on_c, 1, 73, 127
1, 519001, Note_on_c, 1, 52, 127
1, 519179, Note_off_c, 1, 73, 0
1, 519179, Note_off_c, 1, 52, 0
1, 519186, Note_on_c, 1, 74, 127
1, 519186, Note_on_c, 1, 50, 127
1, 519364, Note_off_c, 1, 74, 0
1, 519364, Note_off_c, 1, 50, 0
1, 519371, Note_on_c, 1, 67, 127
1, 519371, Note_on_c, 1, 49, 127
1, 519549, Note_off_c, 1, 67, 0
1, 519556, Note_on_c, 1, 70, 127
1, 519734, Note_off_c, 1, 49, 0
1, 519734, Note_off_c, 1, 70, 0
1, 519741, Note_on_c, 1, 69, 127
1, 519741, Note_on_c, 1, 50, 127
1, 519919, Note_off_c, 1, 69, 0
1, 519919, Note_off_c, 1, 50, 0
1, 519925, Note_on_c, 1, 73, 127
1, 519925, Note_on_c, 1, 52, 127
1, 520103, Note_off_c, 1, 73, 0
1, 520103, Note_off_c, 1, 52, 0
1, 520110, Note_on_c, 1, 53, 127
1, 520110, Note_on_c, 1, 74, 127
1, 520288, Note_off_c, 1, 53, 0
1, 520295, Note_on_c, 1, 52, 127
1, 520380, Note_off_c, 1, 74, 0
1, 520387, Note_on_c, 1, 76, 127
1, 520472, Note_off_c, 1, 52, 0
1, 520472, Note_off_c, 1, 76, 0
1, 520479, Note_on_c, 1, 74, 127
1, 520479, Note_on_c, 1, 53, 127
1, 520564, Note_off_c, 1, 74, 0
1, 520571, Note_on_c, 1, 73, 127
1, 520656, Note_off_c, 1, 53, 0
1, 520656, Note_off_c, 1, 73, 0
1, 520663, Note_on_c, 1, 74, 127
1, 520663, Note_on_c, 1, 55, 127
1, 520748, Note_off_c, 1, 74, 0
1, 520755, Note_on_c, 1, 76, 127
1, 520840, Note_off_c, 1, 55, 0
1, 520840, Note_off_c, 1, 76, 0
1, 520847, Note_on_c, 1, 77, 127
1, 520847, Note_on_c, 1, 57, 127
1, 520847, Note_on_c, 1, 73, 127
1, 520968, Note_off_c, 1, 77, 0
1, 520974, Note_on_c, 1, 76, 127
1, 521039, Note_off_c, 1, 76, 0
1, 521222, Note_off_c, 1, 57, 0
1, 521228, Note_on_c, 1, 45, 127
1, 521419, Note_on_c, 1, 74, 127
1, 521598, Note_off_c, 1, 73, 0
1, 521603, Note_off_c, 1, 45, 0
1, 521603, Note_off_c, 1, 74, 0
1, 521610, Note_on_c, 1, 50, 127
1, 521610, Note_on_c, 1, 74, 127
1, 522034, Note_on_c, 1, 38, 127
1, 522459, Note_on_c, 1, 45, 127
1, 522875, Note_off_c, 1, 50, 0
1, 522876, Note_off_c, 1, 45, 0
1, 522906, Note_on_c, 1, 69, 127
1, 522906, Note_on_c, 1, 66, 127
1, 524976, Note_off_c, 1, 74, 0
1, 524976, Note_off_c, 1, 38, 0
1, 524976, Note_off_c, 1, 69, 0
1, 524976, Note_off_c, 1, 66, 0
1, 526911, Note_on_c, 1, 50, 127
1, 526911, Note_on_c, 1, 62, 127
1, 526911, Note_on_c, 1, 74, 127
1, 526911, Note_on_c, 1, 69, 127
1, 526911, Note_on_c, 1, 77, 127
1, 527576, Note_off_c, 1, 50, 0
1, 527576, Note_off_c, 1, 62, 0
1, 527576, Note_off_c, 1, 74, 0
1, 527576, Note_off_c, 1, 69, 0
1, 527576, Note_off_c, 1, 77, 0
1, 527578, Note_on_c, 1, 77, 127
1, 527578, Note_on_c, 1, 62, 127
1, 527578, Note_on_c, 1, 70, 127
1, 527578, Note_on_c, 1, 67, 127
1, 527734, Note_off_c, 1, 77, 0
1, 527734, Note_on_c, 1, 76, 127
1, 527805, Note_off_c, 1, 76, 0
1, 528906, Note_off_c, 1, 62, 0
1, 528906, Note_off_c, 1, 70, 0
1, 528906, Note_off_c, 1, 67, 0
1, 528908, Note_on_c, 1, 79, 127
1, 528908, Note_on_c, 1, 69, 127
1, 528908, Note_on_c, 1, 61, 127
1, 528908, Note_on_c, 1, 64, 127
1, 529324, Note_off_c, 1, 79, 0
1, 529324, Note_on_c, 1, 77, 127
1, 529406, Note_off_c, 1, 77, 0
1, 529492, Note_on_c, 1, 81, 127
1, 529568, Note_off_c, 1, 69, 0
1, 529573, Note_off_c, 1, 61, 0
1, 529573, Note_off_c, 1, 64, 0
1, 529573, Note_off_c, 1, 81, 0
1, 529575, Note_on_c, 1, 79, 127
1, 529575, Note_on_c, 1, 62, 127
1, 529575, Note_on_c, 1, 60, 127
1, 529575, Note_on_c, 1, 69, 127
1, 529684, Note_off_c, 1, 79, 0
1, 529686, Note_on_c, 1, 78, 127
1, 529757, Note_off_c, 1, 78, 0
1, 530905, Note_off_c, 1, 62, 0
1, 530905, Note_off_c, 1, 60, 0
1, 530905, Note_off_c, 1, 69, 0
1, 530907, Note_on_c, 1, 58, 127
1, 530907, Note_on_c, 1, 62, 127
1, 530907, Note_on_c, 1, 74, 127
1, 530907, Note_on_c, 1, 67, 127
1, 530907, Note_on_c, 1, 79, 127
1, 531572, Note_off_c, 1, 58, 0
1, 531572, Note_off_c, 1, 62, 0
1, 531572, Note_off_c, 1, 74, 0
1, 531572, Note_off_c, 1, 67, 0
1, 531572, Note_off_c, 1, 79, 0
1, 531574, Note_on_c, 1, 55, 127
1, 531574, Note_on_c, 1, 76, 127
1, 531574, Note_on_c, 1, 70, 127
1, 531574, Note_on_c, 1, 67, 127
1, 532239, Note_off_c, 1, 55, 0
1, 532239, Note_off_c, 1, 76, 0
1, 532239, Note_off_c, 1, 70, 0
1, 532239, Note_off_c, 1, 67, 0
1, 532241, Note_on_c, 1, 74, 127
1, 532241, Note_on_c, 1, 71, 127
1, 532241, Note_on_c, 1, 65, 127
1, 532241, Note_on_c, 1, 56, 127
1, 532406, Note_off_c, 1, 74, 0
1, 532408, Note_on_c, 1, 73, 127
1, 532573, Note_off_c, 1, 73, 0
1, 532901, Note_off_c, 1, 71, 0
1, 532901, Note_off_c, 1, 65, 0
1, 532906, Note_off_c, 1, 56, 0
1, 532908, Note_on_c, 1, 64, 127
1, 532908, Note_on_c, 1, 73, 127
1, 532908, Note_on_c, 1, 57, 127
1, 532908, Note_on_c, 1, 69, 127
1, 533573, Note_off_c, 1, 64, 0
1, 533575, Note_on_c, 1, 62, 127
1, 533906, Note_off_c, 1, 73, 0
1, 533908, Note_on_c, 1, 71, 127
1, 534239, Note_off_c, 1, 57, 0
1, 534239, Note_off_c, 1, 69, 0
1, 534239, Note_off_c, 1, 62, 0
1, 534239, Note_off_c, 1, 71, 0
1, 534241, Note_on_c, 1, 61, 127
1, 534241, Note_on_c, 1, 69, 127
1, 534241, Note_on_c, 1, 64, 127
1, 534241, Note_on_c, 1, 55, 127
1, 534841, Note_off_c, 1, 61, 0
1, 534841, Note_off_c, 1, 69, 0
1, 534841, Note_off_c, 1, 64, 0
1, 534906, Note_off_c, 1, 55, 0
1, 534908, Note_on_c, 1, 54, 127
1, 534908, Note_on_c, 1, 62, 127
1, 534908, Note_on_c, 1, 69, 127
1, 534908, Note_on_c, 1, 72, 127
1, 535573, Note_off_c, 1, 54, 0
1, 535573, Note_off_c, 1, 62, 0
1, 535573, Note_off_c, 1, 69, 0
1, 535573, Note_off_c, 1, 72, 0
1, 535575, Note_on_c, 1, 72, 127
1, 535575, Note_on_c, 1, 62, 127
1, 535575, Note_on_c, 1, 53, 127
1, 535575, Note_on_c, 1, 67, 127
1, 535731, Note_off_c, 1, 72, 0
1, 535736, Note_on_c, 1, 71, 127
1, 535807, Note_off_c, 1, 71, 0
1, 536572, Note_on_c, 1, 73, 127
1, 536903, Note_off_c, 1, 62, 0
1, 536903, Note_off_c, 1, 53, 0
1, 536903, Note_off_c, 1, 67, 0
1, 536903, Note_off_c, 1, 73, 0
1, 536905, Note_on_c, 1, 74, 127
1, 536905, Note_on_c, 1, 68, 127
1, 536905, Note_on_c, 1, 52, 127
1, 536905, Note_on_c, 1, 64, 127
1, 537236, Note_off_c, 1, 74, 0
1, 537238, Note_on_c, 1, 76, 127
1, 537564, Note_off_c, 1, 68, 0
1, 537569, Note_off_c, 1, 52, 0
1, 537569, Note_off_c, 1, 76, 0
1, 537571, Note_on_c, 1, 55, 127
1, 537571, Note_on_c, 1, 69, 127
1, 537738, Note_on_c, 1, 73, 127
1, 537820, Note_off_c, 1, 73, 0
1, 538239, Note_off_c, 1, 64, 0
1, 538239, Note_off_c, 1, 55, 0
1, 538239, Note_off_c, 1, 69, 0
1, 538241, Note_on_c, 1, 67, 127
1, 538241, Note_on_c, 1, 58, 127
1, 538241, Note_on_c, 1, 62, 127
1, 538900, Note_off_c, 1, 67, 0
1, 538905, Note_off_c, 1, 58, 0
1, 538905, Note_off_c, 1, 62, 0
1, 538907, Note_on_c, 1, 76, 127
1, 538907, Note_on_c, 1, 70, 127
1, 538907, Note_on_c, 1, 49, 127
1, 538907, Note_on_c, 1, 55, 127
1, 539072, Note_off_c, 1, 76, 0
1, 539074, Note_on_c, 1, 77, 127
1, 539239, Note_off_c, 1, 77, 0
1, 539568, Note_off_c, 1, 70, 0
1, 539573, Note_off_c, 1, 49, 0
1, 539573, Note_off_c, 1, 55, 0
1, 539575, Note_on_c, 1, 79, 127
1, 539575, Note_on_c, 1, 62, 127
1, 539575, Note_on_c, 1, 69, 127
1, 539575, Note_on_c, 1, 50, 127
1, 539740, Note_off_c, 1, 79, 0
1, 539742, Note_on_c, 1, 77, 127
1, 539824, Note_off_c, 1, 77, 0
1, 540244, Note_off_c, 1, 62, 0
1, 540244, Note_off_c, 1, 69, 0
1, 540246, Note_on_c, 1, 59, 127
1, 540246, Note_on_c, 1, 68, 127
1, 540581, Note_on_c, 1, 76, 127
1, 540912, Note_off_c, 1, 50, 0
1, 540912, Note_off_c, 1, 76, 0
1, 540914, Note_on_c, 1, 57, 127
1, 541245, Note_off_c, 1, 59, 0
1, 541245, Note_off_c, 1, 68, 0
1, 541580, Note_on_c, 1, 61, 127
1, 542880, Note_off_c, 1, 61, 0
1, 542909, Note_off_c, 1, 57, 0
1, 542913, Note_on_c, 1, 57, 127
1, 542913, Note_on_c, 1, 61, 127
1, 542913, Note_on_c, 1, 69, 127
1, 542913, Note_on_c, 1, 76, 127
1, 543578, Note_off_c, 1, 57, 0
1, 543578, Note_off_c, 1, 61, 0
1, 543578, Note_off_c, 1, 69, 0
1, 543578, Note_off_c, 1, 76, 0
1, 543580, Note_on_c, 1, 57, 127
1, 543580, Note_on_c, 1, 70, 127
1, 543580, Note_on_c, 1, 61, 127
1, 543580, Note_on_c, 1, 76, 127
1, 543736, Note_off_c, 1, 57, 0
1, 543743, Note_on_c, 1, 55, 127
1, 543814, Note_off_c, 1, 55, 0
1, 544577, Note_off_c, 1, 70, 0
1, 544579, Note_on_c, 1, 69, 127
1, 544910, Note_off_c, 1, 69, 0
1, 544912, Note_on_c, 1, 58, 127
1, 544912, Note_on_c, 1, 67, 127
1, 545077, Note_off_c, 1, 58, 0
1, 545576, Note_off_c, 1, 61, 0
1, 545576, Note_off_c, 1, 76, 0
1, 545578, Note_off_c, 1, 67, 0
1, 545580, Note_on_c, 1, 58, 127
1, 545580, Note_on_c, 1, 60, 127
1, 545580, Note_on_c, 1, 75, 127
1, 545580, Note_on_c, 1, 65, 127
1, 545745, Note_off_c, 1, 58, 0
1, 545747, Note_on_c, 1, 57, 127
1, 545829, Note_off_c, 1, 57, 0
1, 546915, Note_off_c, 1, 60, 0
1, 546915, Note_off_c, 1, 75, 0
1, 546917, Note_on_c, 1, 74, 127
1, 547580, Note_off_c, 1, 65, 0
1, 547582, Note_off_c, 1, 74, 0
1, 547584, Note_on_c, 1, 58, 127
1, 547584, Note_on_c, 1, 55, 127
1, 547584, Note_on_c, 1, 67, 127
1, 547584, Note_on_c, 1, 76, 127
1, 548249, Note_off_c, 1, 58, 0
1, 548249, Note_off_c, 1, 55, 0
1, 548249, Note_off_c, 1, 67, 0
1, 548251, Note_on_c, 1, 69, 127
1, 548251, Note_on_c, 1, 53, 127
1, 548251, Note_on_c, 1, 60, 127
1, 548582, Note_off_c, 1, 76, 0
1, 548584, Note_on_c, 1, 77, 127
1, 548910, Note_off_c, 1, 69, 0
1, 548915, Note_off_c, 1, 53, 0
1, 548915, Note_off_c, 1, 60, 0
1, 548915, Note_off_c, 1, 77, 0
1, 548917, Note_on_c, 1, 77, 127
1, 548917, Note_on_c, 1, 60, 127
1, 548917, Note_on_c, 1, 67, 127
1, 549104, Note_off_c, 1, 77, 0
1, 549114, Note_on_c, 1, 76, 127
1, 549185, Note_off_c, 1, 76, 0
1, 549580, Note_on_c, 1, 62, 127
1, 549913, Note_on_c, 1, 74, 127
1, 550244, Note_off_c, 1, 60, 0
1, 550244, Note_off_c, 1, 67, 0
1, 550244, Note_off_c, 1, 62, 0
1, 550244, Note_off_c, 1, 74, 0
1, 550246, Note_on_c, 1, 64, 127
1, 550246, Note_on_c, 1, 72, 127
1, 550246, Note_on_c, 1, 67, 127
1, 550246, Note_on_c, 1, 58, 127
1, 550893, Note_off_c, 1, 64, 0
1, 550893, Note_off_c, 1, 72, 0
1, 550893, Note_off_c, 1, 67, 0
1, 550911, Note_off_c, 1, 58, 0
1, 550913, Note_on_c, 1, 57, 127
1, 550913, Note_on_c, 1, 77, 127
1, 550913, Note_on_c, 1, 72, 127
1, 550913, Note_on_c, 1, 65, 127
1, 551578, Note_off_c, 1, 57, 0
1, 551578, Note_off_c, 1, 77, 0
1, 551580, Note_on_c, 1, 55, 127
1, 551580, Note_on_c, 1, 79, 127
1, 552245, Note_off_c, 1, 55, 0
1, 552247, Note_on_c, 1, 53, 127
1, 552578, Note_off_c, 1, 79, 0
1, 552580, Note_on_c, 1, 81, 127
1, 552910, Note_off_c, 1, 72, 0
1, 552912, Note_off_c, 1, 53, 0
1, 552912, Note_off_c, 1, 81, 0
1, 552914, Note_on_c, 1, 74, 127
1, 552914, Note_on_c, 1, 58, 127
1, 553573, Note_off_c, 1, 74, 0
1, 553578, Note_off_c, 1, 58, 0
1, 554246, Note_off_c, 1, 65, 0
1, 554246, Note_on_c, 1, 70, 127
1, 554246, Note_on_c, 1, 67, 127
1, 554413, Note_on_c, 1, 82, 127
1, 554578, Note_off_c, 1, 82, 0
1, 554580, Note_on_c, 1, 76, 127
1, 554906, Note_off_c, 1, 70, 0
1, 554911, Note_off_c, 1, 67, 0
1, 554911, Note_off_c, 1, 76, 0
1, 554913, Note_on_c, 1, 60, 127
1, 554913, Note_on_c, 1, 57, 127
1, 554913, Note_on_c, 1, 77, 127
1, 554913, Note_on_c, 1, 69, 127
1, 555244, Note_off_c, 1, 60, 0
1, 555244, Note_off_c, 1, 57, 0
1, 555244, Note_off_c, 1, 77, 0
1, 555246, Note_on_c, 1, 58, 127
1, 555246, Note_on_c, 1, 74, 127
1, 555572, Note_off_c, 1, 69, 0
1, 555577, Note_off_c, 1, 58, 0
1, 555577, Note_off_c, 1, 74, 0
1, 555579, Note_on_c, 1, 74, 127
1, 555579, Note_on_c, 1, 67, 127
1, 555579, Note_on_c, 1, 60, 127
1, 555718, Note_off_c, 1, 74, 0
1, 555718, Note_on_c, 1, 76, 127
1, 555791, Note_on_c, 1, 77, 127
1, 555796, Note_off_c, 1, 76, 0
1, 555869, Note_off_c, 1, 77, 0
1, 555911, Note_off_c, 1, 67, 0
1, 555913, Note_on_c, 1, 69, 127
1, 556244, Note_off_c, 1, 69, 0
1, 556246, Note_on_c, 1, 48, 127
1, 556246, Note_on_c, 1, 70, 127
1, 556910, Note_off_c, 1, 48, 0
1, 556912, Note_on_c, 1, 53, 127
1, 557243, Note_off_c, 1, 70, 0
1, 557245, Note_off_c, 1, 60, 0
1, 557245, Note_on_c, 1, 58, 127
1, 557576, Note_off_c, 1, 58, 0
1, 558907, Note_off_c, 1, 53, 0
1, 558911, Note_on_c, 1, 54, 127
1, 558911, Note_on_c, 1, 81, 127
1, 558911, Note_on_c, 1, 74, 127
1, 558911, Note_on_c, 1, 62, 127
1, 559576, Note_off_c, 1, 54, 0
1, 559576, Note_off_c, 1, 81, 0
1, 559578, Note_on_c, 1, 79, 127
1, 559578, Note_on_c, 1, 52, 127
1, 559909, Note_off_c, 1, 79, 0
1, 559911, Note_on_c, 1, 78, 127
1, 560242, Note_off_c, 1, 74, 0
1, 560242, Note_off_c, 1, 52, 0
1, 560242, Note_off_c, 1, 78, 0
1, 560244, Note_on_c, 1, 76, 127
1, 560244, Note_on_c, 1, 72, 127
1, 560575, Note_off_c, 1, 76, 0
1, 560903, Note_off_c, 1, 72, 0
1, 560910, Note_on_c, 1, 82, 127
1, 560910, Note_on_c, 1, 55, 127
1, 560910, Note_on_c, 1, 70, 127
1, 561241, Note_off_c, 1, 82, 0
1, 561574, Note_off_c, 1, 55, 0
1, 561576, Note_on_c, 1, 57, 127
1, 561907, Note_off_c, 1, 70, 0
1, 561909, Note_on_c, 1, 69, 127
1, 562240, Note_off_c, 1, 57, 0
1, 562240, Note_off_c, 1, 69, 0
1, 562242, Note_on_c, 1, 67, 127
1, 562242, Note_on_c, 1, 58, 127
1, 562575, Note_on_c, 1, 77, 127
1, 562901, Note_off_c, 1, 62, 0
1, 562901, Note_off_c, 1, 67, 0
1, 562906, Note_off_c, 1, 58, 0
1, 562906, Note_off_c, 1, 77, 0
1, 562908, Note_on_c, 1, 79, 127
1, 562908, Note_on_c, 1, 69, 127
1, 562908, Note_on_c, 1, 61, 127
1, 562908, Note_on_c, 1, 57, 127
1, 563239, Note_off_c, 1, 79, 0
1, 563241, Note_on_c, 1, 76, 127
1, 563567, Note_off_c, 1, 69, 0
1, 563572, Note_off_c, 1, 61, 0
1, 563572, Note_off_c, 1, 57, 0
1, 563572, Note_off_c, 1, 76, 0
1, 563574, Note_on_c, 1, 74, 127
1, 563574, Note_on_c, 1, 55, 127
1, 563574, Note_on_c, 1, 64, 127
1, 563574, Note_on_c, 1, 69, 127
1, 563701, Note_off_c, 1, 74, 0
1, 563703, Note_on_c, 1, 73, 127
1, 563781, Note_off_c, 1, 73, 0
1, 563906, Note_off_c, 1, 55, 0
1, 563908, Note_on_c, 1, 53, 127
1, 564234, Note_off_c, 1, 64, 0
1, 564239, Note_off_c, 1, 69, 0
1, 564239, Note_off_c, 1, 53, 0
1, 564241, Note_on_c, 1, 52, 127
1, 564241, Note_on_c, 1, 65, 127
1, 564241, Note_on_c, 1, 57, 127
1, 564572, Note_off_c, 1, 52, 0
1, 564574, Note_on_c, 1, 50, 127
1, 564900, Note_off_c, 1, 65, 0
1, 564905, Note_off_c, 1, 50, 0
1, 564907, Note_on_c, 1, 76, 127
1, 564907, Note_on_c, 1, 49, 127
1, 565238, Note_off_c, 1, 76, 0
1, 565906, Note_off_c, 1, 57, 0
1, 565906, Note_on_c, 1, 58, 127
1, 566237, Note_off_c, 1, 58, 0
1, 566902, Note_off_c, 1, 49, 0
1, 566906, Note_on_c, 1, 54, 127
1, 566906, Note_on_c, 1, 48, 127
1, 566906, Note_on_c, 1, 62, 127
1, 567239, Note_on_c, 1, 71, 127
1, 567570, Note_off_c, 1, 71, 0
1, 567572, Note_on_c, 1, 72, 127
1, 567903, Note_off_c, 1, 72, 0
1, 568236, Note_off_c, 1, 54, 0
1, 568236, Note_off_c, 1, 48, 0
1, 568238, Note_on_c, 1, 47, 127
1, 568571, Note_off_c, 1, 62, 0
1, 568904, Note_on_c, 1, 56, 127
1, 569568, Note_off_c, 1, 47, 0
1, 569568, Note_off_c, 1, 56, 0
1, 569570, Note_on_c, 1, 64, 127
1, 569570, Note_on_c, 1, 73, 127
1, 569570, Note_on_c, 1, 46, 127
1, 569570, Note_on_c, 1, 55, 127
1, 569901, Note_off_c, 1, 64, 0
1, 569901, Note_off_c, 1, 73, 0
1, 569903, Note_on_c, 1, 74, 127
1, 569903, Note_on_c, 1, 65, 127
1, 570234, Note_off_c, 1, 74, 0
1, 570234, Note_off_c, 1, 65, 0
1, 570236, Note_on_c, 1, 67, 127
1, 570236, Note_on_c, 1, 76, 127
1, 570567, Note_off_c, 1, 67, 0
1, 570567, Note_off_c, 1, 76, 0
1, 570900, Note_off_c, 1, 46, 0
1, 570900, Note_off_c, 1, 55, 0
1, 570902, Note_on_c, 1, 57, 127
1, 570902, Note_on_c, 1, 45, 127
1, 570902, Note_on_c, 1, 65, 127
1, 570902, Note_on_c, 1, 74, 127
1, 571267, Note_on_c, 1, 43, 127
1, 571267, Note_on_c, 1, 50, 127
1, 571270, Note_off_c, 1, 57, 0
1, 571273, Note_off_c, 1, 45, 0
1, 571566, Note_off_c, 1, 65, 0
1, 571632, Note_off_c, 1, 43, 0
1, 571632, Note_on_c, 1, 70, 127
1, 571737, Note_off_c, 1, 74, 0
1, 571853, Note_on_c, 1, 76, 127
1, 571943, Note_off_c, 1, 76, 0
1, 572041, Note_on_c, 1, 73, 127
1, 572131, Note_off_c, 1, 73, 0
1, 572316, Note_off_c, 1, 50, 0
1, 572324, Note_off_c, 1, 70, 0
1, 572327, Note_on_c, 1, 77, 127
1, 572327, Note_on_c, 1, 47, 127
1, 572327, Note_on_c, 1, 69, 127
1, 572457, Note_off_c, 1, 77, 0
1, 572714, Note_on_c, 1, 49, 127
1, 572714, Note_on_c, 1, 67, 127
1, 572727, Note_off_c, 1, 47, 0
1, 572727, Note_off_c, 1, 69, 0
1, 573194, Note_off_c, 1, 49, 0
1, 573198, Note_on_c, 1, 38, 127
1, 573608, Note_off_c, 1, 67, 0
1, 573621, Note_on_c, 1, 64, 127
1, 574037, Note_off_c, 1, 64, 0
1, 575540, Note_off_c, 1, 38, 0
1, 575638, Note_on_c, 1, 69, 127
1, 575638, Note_on_c, 1, 77, 127
1, 575638, Note_on_c, 1, 62, 127
1, 575638, Note_on_c, 1, 50, 127
1, 575783, Note_on_c, 1, 73, 127
1, 575927, Note_off_c, 1, 73, 0
1, 575929, Note_on_c, 1, 74, 127
1, 576062, Note_off_c, 1, 69, 0
1, 576213, Note_off_c, 1, 77, 0
1, 576216, Note_off_c, 1, 74, 0
1, 576218, Note_off_c, 1, 62, 0
1, 576218, Note_off_c, 1, 50, 0
1, 576220, Note_on_c, 1, 62, 127
1, 576220, Note_on_c, 1, 76, 127
1, 576220, Note_on_c, 1, 70, 127
1, 576365, Note_on_c, 1, 65, 127
1, 576509, Note_off_c, 1, 65, 0
1, 576511, Note_on_c, 1, 67, 127
1, 576644, Note_off_c, 1, 62, 0
1, 576801, Note_on_c, 1, 64, 127
1, 576946, Note_off_c, 1, 76, 0
1, 576946, Note_on_c, 1, 79, 127
1, 577090, Note_off_c, 1, 79, 0
1, 577092, Note_on_c, 1, 77, 127
1, 577236, Note_off_c, 1, 77, 0
1, 577238, Note_on_c, 1, 81, 127
1, 577382, Note_off_c, 1, 70, 0
1, 577382, Note_off_c, 1, 67, 0
1, 577382, Note_off_c, 1, 64, 0
1, 577382, Note_off_c, 1, 81, 0
1, 577384, Note_on_c, 1, 69, 127
1, 577384, Note_on_c, 1, 61, 127
1, 577530, Note_on_c, 1, 82, 127
1, 577674, Note_off_c, 1, 82, 0
1, 577961, Note_off_c, 1, 69, 0
1, 577966, Note_off_c, 1, 61, 0
1, 577968, Note_on_c, 1, 78, 127
1, 577968, Note_on_c, 1, 60, 127
1, 578113, Note_on_c, 1, 62, 127
1, 578258, Note_on_c, 1, 66, 127
1, 578403, Note_on_c, 1, 67, 127
1, 578547, Note_off_c, 1, 78, 0
1, 578547, Note_off_c, 1, 67, 0
1, 578549, Note_on_c, 1, 69, 127
1, 578694, Note_on_c, 1, 72, 127
1, 578838, Note_off_c, 1, 72, 0
1, 578840, Note_on_c, 1, 74, 127
1, 579124, Note_off_c, 1, 69, 0
1, 579127, Note_off_c, 1, 74, 0
1, 579129, Note_off_c, 1, 60, 0
1, 579129, Note_off_c, 1, 66, 0
1, 579131, Note_on_c, 1, 79, 127
1, 579131, Note_on_c, 1, 58, 127
1, 579276, Note_on_c, 1, 73, 127
1, 579420, Note_off_c, 1, 73, 0
1, 579568, Note_off_c, 1, 62, 0
1, 579707, Note_off_c, 1, 79, 0
1, 579712, Note_off_c, 1, 58, 0
1, 579714, Note_on_c, 1, 55, 127
1, 579714, Note_on_c, 1, 70, 127
1, 579714, Note_on_c, 1, 76, 127
1, 579859, Note_on_c, 1, 66, 127
1, 580003, Note_off_c, 1, 66, 0
1, 580005, Note_on_c, 1, 67, 127
1, 580149, Note_off_c, 1, 67, 0
1, 580151, Note_on_c, 1, 62, 127
1, 580290, Note_off_c, 1, 55, 0
1, 580295, Note_off_c, 1, 70, 0
1, 580295, Note_off_c, 1, 62, 0
1, 580297, Note_on_c, 1, 71, 127
1, 580297, Note_on_c, 1, 64, 127
1, 580297, Note_on_c, 1, 56, 127
1, 580442, Note_off_c, 1, 76, 0
1, 580442, Note_on_c, 1, 74, 127
1, 580586, Note_off_c, 1, 74, 0
1, 580588, Note_on_c, 1, 73, 127
1, 580732, Note_off_c, 1, 73, 0
1, 580873, Note_off_c, 1, 71, 0
1, 580878, Note_off_c, 1, 64, 0
1, 580878, Note_off_c, 1, 56, 0
1, 580880, Note_on_c, 1, 73, 127
1, 580880, Note_on_c, 1, 69, 127
1, 580880, Note_on_c, 1, 64, 127
1, 580880, Note_on_c, 1, 57, 127
1, 581024, Note_off_c, 1, 73, 0
1, 581026, Note_on_c, 1, 76, 127
1, 581170, Note_off_c, 1, 76, 0
1, 581172, Note_on_c, 1, 74, 127
1, 581316, Note_off_c, 1, 74, 0
1, 581318, Note_on_c, 1, 71, 127
1, 581462, Note_off_c, 1, 71, 0
1, 581754, Note_off_c, 1, 69, 0
1, 581754, Note_off_c, 1, 64, 0
1, 581756, Note_on_c, 1, 68, 127
1, 581756, Note_on_c, 1, 62, 127
1, 581900, Note_off_c, 1, 68, 0
1, 582046, Note_off_c, 1, 57, 0
1, 582046, Note_off_c, 1, 62, 0
1, 582048, Note_on_c, 1, 69, 127
1, 582048, Note_on_c, 1, 64, 127
1, 582048, Note_on_c, 1, 55, 127
1, 582048, Note_on_c, 1, 61, 127
1, 582192, Note_off_c, 1, 69, 0
1, 582194, Note_on_c, 1, 73, 127
1, 582338, Note_off_c, 1, 73, 0
1, 582340, Note_on_c, 1, 71, 127
1, 582484, Note_off_c, 1, 71, 0
1, 582486, Note_on_c, 1, 74, 127
1, 582557, Note_off_c, 1, 74, 0
1, 582626, Note_off_c, 1, 64, 0
1, 582631, Note_off_c, 1, 55, 0
1, 582631, Note_off_c, 1, 61, 0
1, 582633, Note_on_c, 1, 72, 127
1, 582633, Note_on_c, 1, 62, 127
1, 582633, Note_on_c, 1, 54, 127
1, 582633, Note_on_c, 1, 57, 127
1, 582777, Note_off_c, 1, 72, 0
1, 582779, Note_on_c, 1, 75, 127
1, 582923, Note_off_c, 1, 75, 0
1, 582925, Note_on_c, 1, 74, 127
1, 583069, Note_off_c, 1, 74, 0
1, 583210, Note_off_c, 1, 62, 0
1, 583215, Note_off_c, 1, 54, 0
1, 583215, Note_off_c, 1, 57, 0
1, 583217, Note_on_c, 1, 71, 127
1, 583217, Note_on_c, 1, 53, 127
1, 583362, Note_on_c, 1, 55, 127
1, 583507, Note_on_c, 1, 59, 127
1, 583652, Note_on_c, 1, 62, 127
1, 583785, Note_off_c, 1, 55, 0
1, 583797, Note_on_c, 1, 67, 127
1, 583942, Note_off_c, 1, 71, 0
1, 583942, Note_on_c, 1, 69, 127
1, 584086, Note_off_c, 1, 69, 0
1, 584234, Note_on_c, 1, 73, 127
1, 584373, Note_off_c, 1, 67, 0
1, 584378, Note_off_c, 1, 53, 0
1, 584378, Note_off_c, 1, 59, 0
1, 584378, Note_off_c, 1, 62, 0
1, 584378, Note_off_c, 1, 73, 0
1, 584380, Note_on_c, 1, 74, 127
1, 584380, Note_on_c, 1, 68, 127
1, 584380, Note_on_c, 1, 64, 127
1, 584380, Note_on_c, 1, 59, 127
1, 584380, Note_on_c, 1, 52, 127
1, 584524, Note_off_c, 1, 74, 0
1, 584526, Note_on_c, 1, 77, 127
1, 584670, Note_off_c, 1, 77, 0
1, 584672, Note_on_c, 1, 76, 127
1, 584816, Note_off_c, 1, 76, 0
1, 584957, Note_off_c, 1, 68, 0
1, 584962, Note_off_c, 1, 64, 0
1, 584962, Note_off_c, 1, 59, 0
1, 584962, Note_off_c, 1, 52, 0
1, 584964, Note_on_c, 1, 55, 127
1, 584964, Note_on_c, 1, 73, 127
1, 585109, Note_on_c, 1, 70, 127
1, 585254, Note_on_c, 1, 67, 127
1, 585399, Note_on_c, 1, 64, 127
1, 585532, Note_off_c, 1, 70, 0
1, 585541, Note_off_c, 1, 67, 0
1, 585543, Note_off_c, 1, 55, 0
1, 585545, Note_on_c, 1, 61, 127
1, 585689, Note_off_c, 1, 64, 0
1, 585689, Note_off_c, 1, 61, 0
1, 585691, Note_off_c, 1, 73, 0
1, 585691, Note_on_c, 1, 74, 127
1, 585691, Note_on_c, 1, 58, 127
1, 585835, Note_off_c, 1, 74, 0
1, 585835, Note_off_c, 1, 58, 0
1, 585837, Note_on_c, 1, 73, 127
1, 585837, Note_on_c, 1, 55, 127
1, 585981, Note_off_c, 1, 73, 0
1, 585981, Note_off_c, 1, 55, 0
1, 585983, Note_on_c, 1, 74, 127
1, 585983, Note_on_c, 1, 52, 127
1, 586127, Note_off_c, 1, 74, 0
1, 586127, Note_off_c, 1, 52, 0
1, 586129, Note_on_c, 1, 76, 127
1, 586129, Note_on_c, 1, 49, 127
1, 586273, Note_off_c, 1, 76, 0
1, 586273, Note_off_c, 1, 49, 0
1, 586275, Note_on_c, 1, 77, 127
1, 586275, Note_on_c, 1, 52, 127
1, 586419, Note_off_c, 1, 77, 0
1, 586419, Note_off_c, 1, 52, 0
1, 586421, Note_on_c, 1, 76, 127
1, 586421, Note_on_c, 1, 49, 127
1, 586565, Note_off_c, 1, 76, 0
1, 586565, Note_off_c, 1, 49, 0
1, 586567, Note_on_c, 1, 77, 127
1, 586567, Note_on_c, 1, 45, 127
1, 586711, Note_off_c, 1, 77, 0
1, 586711, Note_off_c, 1, 45, 0
1, 586713, Note_on_c, 1, 79, 127
1, 586713, Note_on_c, 1, 50, 127
1, 586857, Note_off_c, 1, 79, 0
1, 586859, Note_on_c, 1, 77, 127
1, 586859, Note_on_c, 1, 53, 127
1, 586930, Note_off_c, 1, 77, 0
1, 587005, Note_on_c, 1, 57, 127
1, 587151, Note_on_c, 1, 62, 127
1, 587285, Note_off_c, 1, 53, 0
1, 587294, Note_off_c, 1, 57, 0
1, 587298, Note_on_c, 1, 65, 127
1, 587442, Note_off_c, 1, 65, 0
1, 587444, Note_on_c, 1, 69, 127
1, 587517, Note_on_c, 1, 76, 127
1, 587578, Note_off_c, 1, 62, 0
1, 587589, Note_off_c, 1, 69, 0
1, 587589, Note_off_c, 1, 76, 0
1, 587591, Note_on_c, 1, 74, 127
1, 587591, Note_on_c, 1, 59, 127
1, 587735, Note_off_c, 1, 74, 0
1, 587737, Note_on_c, 1, 68, 127
1, 587881, Note_off_c, 1, 50, 0
1, 587881, Note_off_c, 1, 59, 0
1, 587881, Note_off_c, 1, 68, 0
1, 587883, Note_on_c, 1, 76, 127
1, 587883, Note_on_c, 1, 57, 127
1, 588028, Note_on_c, 1, 68, 127
1, 588028, Note_on_c, 1, 59, 127
1, 588172, Note_off_c, 1, 68, 0
1, 588172, Note_off_c, 1, 59, 0
1, 588174, Note_on_c, 1, 69, 127
1, 588174, Note_on_c, 1, 61, 127
1, 588318, Note_off_c, 1, 69, 0
1, 588318, Note_off_c, 1, 61, 0
1, 588320, Note_on_c, 1, 71, 127
1, 588320, Note_on_c, 1, 62, 127
1, 588459, Note_off_c, 1, 76, 0
1, 588464, Note_off_c, 1, 71, 0
1, 588464, Note_off_c, 1, 62, 0
1, 588466, Note_on_c, 1, 73, 127
1, 588466, Note_on_c, 1, 64, 127
1, 588757, Note_on_c, 1, 81, 127
1, 588901, Note_off_c, 1, 81, 0
1, 588903, Note_on_c, 1, 80, 127
1, 589047, Note_off_c, 1, 80, 0
1, 589199, Note_off_c, 1, 73, 0
1, 589485, Note_on_c, 1, 74, 127
1, 589627, Note_off_c, 1, 57, 0
1, 589629, Note_off_c, 1, 64, 0
1, 589629, Note_off_c, 1, 74, 0
1, 589631, Note_on_c, 1, 76, 127
1, 589631, Note_on_c, 1, 57, 127
1, 589776, Note_on_c, 1, 62, 127
1, 589920, Note_off_c, 1, 62, 0
1, 589922, Note_on_c, 1, 61, 127
1, 590067, Note_on_c, 1, 65, 127
1, 590206, Note_off_c, 1, 76, 0
1, 590206, Note_off_c, 1, 57, 0
1, 590211, Note_off_c, 1, 65, 0
1, 590213, Note_on_c, 1, 64, 127
1, 590213, Note_on_c, 1, 55, 127
1, 590357, Note_off_c, 1, 64, 0
1, 590359, Note_on_c, 1, 69, 127
1, 590503, Note_off_c, 1, 69, 0
1, 590505, Note_on_c, 1, 67, 127
1, 590649, Note_off_c, 1, 67, 0
1, 590651, Note_on_c, 1, 70, 127
1, 590795, Note_off_c, 1, 70, 0
1, 590941, Note_off_c, 1, 55, 0
1, 590943, Note_on_c, 1, 58, 127
1, 591087, Note_off_c, 1, 58, 0
1, 591228, Note_off_c, 1, 61, 0
1, 591235, Note_on_c, 1, 60, 127
1, 591379, Note_off_c, 1, 60, 0
1, 591964, Note_on_c, 1, 60, 127
1, 591964, Note_on_c, 1, 75, 127
1, 591964, Note_on_c, 1, 57, 127
1, 592109, Note_on_c, 1, 72, 127
1, 592254, Note_on_c, 1, 69, 127
1, 592398, Note_off_c, 1, 69, 0
1, 592400, Note_on_c, 1, 67, 127
1, 592539, Note_off_c, 1, 60, 0
1, 592544, Note_off_c, 1, 67, 0
1, 592546, Note_on_c, 1, 65, 127
1, 592691, Note_on_c, 1, 63, 127
1, 592835, Note_off_c, 1, 63, 0
1, 592837, Note_on_c, 1, 62, 127
1, 592981, Note_off_c, 1, 62, 0
1, 593125, Note_off_c, 1, 72, 0
1, 593127, Note_off_c, 1, 75, 0
1, 593127, Note_off_c, 1, 57, 0
1, 593129, Note_on_c, 1, 58, 127
1, 593129, Note_on_c, 1, 74, 127
1, 593274, Note_off_c, 1, 65, 0
1, 593420, Note_on_c, 1, 70, 127
1, 593564, Note_off_c, 1, 70, 0
1, 593705, Note_off_c, 1, 58, 0
1, 593712, Note_on_c, 1, 55, 127
1, 593857, Note_off_c, 1, 74, 0
1, 594149, Note_on_c, 1, 76, 127
1, 594293, Note_off_c, 1, 55, 0
1, 594293, Note_off_c, 1, 76, 0
1, 594295, Note_on_c, 1, 77, 127
1, 594295, Note_on_c, 1, 69, 127
1, 594295, Note_on_c, 1, 53, 127
1, 594439, Note_off_c, 1, 77, 0
1, 594441, Note_on_c, 1, 76, 127
1, 594441, Note_on_c, 1, 60, 127
1, 594585, Note_off_c, 1, 76, 0
1, 594585, Note_off_c, 1, 60, 0
1, 594587, Note_on_c, 1, 62, 127
1, 594731, Note_off_c, 1, 62, 0
1, 594733, Note_on_c, 1, 74, 127
1, 594733, Note_on_c, 1, 59, 127
1, 594872, Note_off_c, 1, 69, 0
1, 594872, Note_off_c, 1, 53, 0
1, 594877, Note_off_c, 1, 74, 0
1, 594877, Note_off_c, 1, 59, 0
1, 594879, Note_on_c, 1, 76, 127
1, 594879, Note_on_c, 1, 67, 127
1, 594879, Note_on_c, 1, 60, 127
1, 595023, Note_off_c, 1, 76, 0
1, 595025, Note_on_c, 1, 79, 127
1, 595169, Note_off_c, 1, 79, 0
1, 595171, Note_on_c, 1, 77, 127
1, 595171, Note_on_c, 1, 55, 127
1, 595315, Note_off_c, 1, 77, 0
1, 595317, Note_on_c, 1, 74, 127
1, 595461, Note_off_c, 1, 55, 0
1, 595461, Note_off_c, 1, 74, 0
1, 595463, Note_on_c, 1, 48, 127
1, 595609, Note_on_c, 1, 72, 127
1, 595753, Note_off_c, 1, 67, 0
1, 595753, Note_off_c, 1, 48, 0
1, 595753, Note_off_c, 1, 72, 0
1, 595755, Note_on_c, 1, 71, 127
1, 595755, Note_on_c, 1, 65, 127
1, 595899, Note_off_c, 1, 71, 0
1, 596043, Note_off_c, 1, 65, 0
1, 596045, Note_off_c, 1, 60, 0
1, 596047, Note_on_c, 1, 72, 127
1, 596047, Note_on_c, 1, 64, 127
1, 596047, Note_on_c, 1, 60, 127
1, 596047, Note_on_c, 1, 58, 127
1, 596191, Note_off_c, 1, 72, 0
1, 596193, Note_on_c, 1, 76, 127
1, 596337, Note_off_c, 1, 76, 0
1, 596339, Note_on_c, 1, 74, 127
1, 596483, Note_off_c, 1, 74, 0
1, 596485, Note_on_c, 1, 77, 127
1, 596556, Note_off_c, 1, 77, 0
1, 596625, Note_off_c, 1, 64, 0
1, 596630, Note_off_c, 1, 60, 0
1, 596630, Note_off_c, 1, 58, 0
1, 596632, Note_on_c, 1, 77, 127
1, 596632, Note_on_c, 1, 57, 127
1, 596777, Note_on_c, 1, 60, 127
1, 596921, Note_off_c, 1, 60, 0
1, 596923, Note_on_c, 1, 65, 127
1, 597067, Note_off_c, 1, 65, 0
1, 597069, Note_on_c, 1, 67, 127
1, 597213, Note_off_c, 1, 77, 0
1, 597213, Note_off_c, 1, 67, 0
1, 597215, Note_on_c, 1, 69, 127
1, 597360, Note_on_c, 1, 72, 127
1, 597504, Note_off_c, 1, 57, 0
1, 597504, Note_off_c, 1, 72, 0
1, 597506, Note_on_c, 1, 55, 127
1, 597652, Note_on_c, 1, 79, 127
1, 597791, Note_off_c, 1, 69, 0
1, 597796, Note_off_c, 1, 55, 0
1, 597796, Note_off_c, 1, 79, 0
1, 597798, Note_on_c, 1, 53, 127
1, 597798, Note_on_c, 1, 81, 127
1, 597943, Note_on_c, 1, 76, 127
1, 598087, Note_off_c, 1, 53, 0
1, 598087, Note_off_c, 1, 76, 0
1, 598089, Note_on_c, 1, 77, 127
1, 598089, Note_on_c, 1, 57, 127
1, 598233, Note_off_c, 1, 77, 0
1, 598235, Note_on_c, 1, 72, 127
1, 598379, Note_off_c, 1, 57, 0
1, 598379, Note_off_c, 1, 72, 0
1, 598381, Note_on_c, 1, 74, 127
1, 598381, Note_on_c, 1, 58, 127
1, 598526, Note_on_c, 1, 62, 127
1, 598670, Note_off_c, 1, 81, 0
1, 598670, Note_off_c, 1, 62, 0
1, 598672, Note_on_c, 1, 67, 127
1, 598672, Note_on_c, 1, 79, 127
1, 598816, Note_off_c, 1, 67, 0
1, 598818, Note_on_c, 1, 69, 127
1, 598957, Note_off_c, 1, 74, 0
1, 598962, Note_off_c, 1, 79, 0
1, 598962, Note_off_c, 1, 69, 0
1, 598964, Note_on_c, 1, 70, 127
1, 599253, Note_off_c, 1, 58, 0
1, 599540, Note_off_c, 1, 70, 0
1, 599547, Note_on_c, 1, 82, 127
1, 599547, Note_on_c, 1, 55, 127
1, 599691, Note_off_c, 1, 82, 0
1, 599693, Note_on_c, 1, 77, 127
1, 599837, Note_off_c, 1, 55, 0
1, 599837, Note_off_c, 1, 77, 0
1, 599839, Note_on_c, 1, 79, 127
1, 599839, Note_on_c, 1, 67, 127
1, 599839, Note_on_c, 1, 58, 127
1, 599839, Note_on_c, 1, 60, 127
1, 599983, Note_off_c, 1, 79, 0
1, 599985, Note_on_c, 1, 76, 127
1, 600127, Note_off_c, 1, 67, 0
1, 600129, Note_off_c, 1, 58, 0
1, 600129, Note_off_c, 1, 76, 0
1, 600131, Note_on_c, 1, 57, 127
1, 600131, Note_on_c, 1, 77, 127
1, 600276, Note_on_c, 1, 72, 127
1, 600415, Note_off_c, 1, 60, 0
1, 600420, Note_off_c, 1, 57, 0
1, 600420, Note_off_c, 1, 72, 0
1, 600422, Note_on_c, 1, 74, 127
1, 600422, Note_on_c, 1, 65, 127
1, 600566, Note_off_c, 1, 74, 0
1, 600568, Note_on_c, 1, 70, 127
1, 600707, Note_off_c, 1, 77, 0
1, 600712, Note_off_c, 1, 70, 0
1, 600714, Note_on_c, 1, 69, 127
1, 600998, Note_off_c, 1, 65, 0
1, 601005, Note_on_c, 1, 64, 127
1, 601149, Note_off_c, 1, 64, 0
1, 601151, Note_on_c, 1, 62, 127
1, 601290, Note_off_c, 1, 69, 0
1, 601295, Note_off_c, 1, 62, 0
1, 601297, Note_on_c, 1, 79, 127
1, 601297, Note_on_c, 1, 60, 127
1, 601441, Note_off_c, 1, 79, 0
1, 601443, Note_on_c, 1, 74, 127
1, 601587, Note_off_c, 1, 74, 0
1, 601589, Note_on_c, 1, 76, 127
1, 601589, Note_on_c, 1, 48, 127
1, 601734, Note_on_c, 1, 70, 127
1, 601873, Note_off_c, 1, 60, 0
1, 601876, Note_off_c, 1, 76, 0
1, 601878, Note_off_c, 1, 48, 0
1, 601878, Note_off_c, 1, 70, 0
1, 601880, Note_on_c, 1, 69, 127
1, 601880, Note_on_c, 1, 53, 127
1, 602024, Note_off_c, 1, 69, 0
1, 602026, Note_on_c, 1, 67, 127
1, 602170, Note_off_c, 1, 67, 0
1, 602318, Note_on_c, 1, 72, 127
1, 602462, Note_off_c, 1, 72, 0
1, 602464, Note_on_c, 1, 77, 127
1, 602899, Note_on_c, 1, 65, 127
1, 603043, Note_off_c, 1, 53, 0
1, 603045, Note_on_c, 1, 60, 127
1, 603190, Note_on_c, 1, 58, 127
1, 603334, Note_off_c, 1, 58, 0
1, 603336, Note_on_c, 1, 57, 127
1, 603480, Note_off_c, 1, 57, 0
1, 603482, Note_on_c, 1, 55, 127
1, 603621, Note_off_c, 1, 60, 0
1, 603626, Note_off_c, 1, 77, 0
1, 603626, Note_off_c, 1, 55, 0
1, 603628, Note_off_c, 1, 65, 0
1, 603628, Note_on_c, 1, 54, 127
1, 603918, Note_on_c, 1, 62, 127
1, 604063, Note_on_c, 1, 66, 127
1, 604205, Note_off_c, 1, 62, 0
1, 604207, Note_off_c, 1, 66, 0
1, 604354, Note_off_c, 1, 54, 0
1, 604354, Note_on_c, 1, 74, 127
1, 604500, Note_on_c, 1, 78, 127
1, 604646, Note_on_c, 1, 79, 127
1, 604779, Note_off_c, 1, 74, 0
1, 604788, Note_off_c, 1, 78, 0
1, 604790, Note_off_c, 1, 79, 0
1, 604792, Note_on_c, 1, 81, 127
1, 604792, Note_on_c, 1, 60, 127
1, 604936, Note_off_c, 1, 81, 0
1, 604936, Note_off_c, 1, 60, 0
1, 604938, Note_on_c, 1, 82, 127
1, 604938, Note_on_c, 1, 62, 127
1, 605082, Note_off_c, 1, 82, 0
1, 605082, Note_off_c, 1, 62, 0
1, 605084, Note_on_c, 1, 84, 127
1, 605084, Note_on_c, 1, 64, 127
1, 605228, Note_off_c, 1, 84, 0
1, 605228, Note_off_c, 1, 64, 0
1, 605230, Note_on_c, 1, 81, 127
1, 605230, Note_on_c, 1, 66, 127
1, 605374, Note_off_c, 1, 81, 0
1, 605374, Note_off_c, 1, 66, 0
1, 605376, Note_on_c, 1, 82, 127
1, 605376, Note_on_c, 1, 67, 127
1, 605520, Note_off_c, 1, 82, 0
1, 605522, Note_on_c, 1, 79, 127
1, 605666, Note_off_c, 1, 79, 0
1, 605668, Note_on_c, 1, 76, 127
1, 605668, Note_on_c, 1, 55, 127
1, 605812, Note_off_c, 1, 76, 0
1, 605958, Note_off_c, 1, 55, 0
1, 605960, Note_on_c, 1, 73, 127
1, 605960, Note_on_c, 1, 57, 127
1, 606104, Note_off_c, 1, 73, 0
1, 606106, Note_on_c, 1, 77, 127
1, 606250, Note_off_c, 1, 67, 0
1, 606250, Note_off_c, 1, 77, 0
1, 606252, Note_on_c, 1, 61, 127
1, 606398, Note_on_c, 1, 81, 127
1, 606537, Note_off_c, 1, 57, 0
1, 606542, Note_off_c, 1, 61, 0
1, 606542, Note_off_c, 1, 81, 0
1, 606544, Note_on_c, 1, 79, 127
1, 606544, Note_on_c, 1, 58, 127
1, 606688, Note_off_c, 1, 79, 0
1, 606690, Note_on_c, 1, 77, 127
1, 606834, Note_off_c, 1, 77, 0
1, 606836, Note_on_c, 1, 76, 127
1, 606836, Note_on_c, 1, 62, 127
1, 606980, Note_off_c, 1, 76, 0
1, 607121, Note_off_c, 1, 58, 0
1, 607126, Note_off_c, 1, 62, 0
1, 607128, Note_on_c, 1, 79, 127
1, 607128, Note_on_c, 1, 52, 127
1, 607272, Note_off_c, 1, 79, 0
1, 607274, Note_on_c, 1, 76, 127
1, 607418, Note_off_c, 1, 76, 0
1, 607420, Note_on_c, 1, 73, 127
1, 607420, Note_on_c, 1, 55, 127
1, 607564, Note_off_c, 1, 73, 0
1, 607705, Note_off_c, 1, 52, 0
1, 607710, Note_off_c, 1, 55, 0
1, 607712, Note_on_c, 1, 69, 127
1, 607712, Note_on_c, 1, 53, 127
1, 607856, Note_off_c, 1, 69, 0
1, 607858, Note_on_c, 1, 74, 127
1, 608002, Note_off_c, 1, 74, 0
1, 608004, Note_on_c, 1, 73, 127
1, 608004, Note_on_c, 1, 57, 127
1, 608148, Note_off_c, 1, 73, 0
1, 608150, Note_on_c, 1, 77, 127
1, 608289, Note_off_c, 1, 53, 0
1, 608294, Note_off_c, 1, 57, 0
1, 608294, Note_off_c, 1, 77, 0
1, 608296, Note_on_c, 1, 76, 127
1, 608296, Note_on_c, 1, 55, 127
1, 608440, Note_off_c, 1, 76, 0
1, 608442, Note_on_c, 1, 74, 127
1, 608586, Note_off_c, 1, 74, 0
1, 608588, Note_on_c, 1, 73, 127
1, 608588, Note_on_c, 1, 58, 127
1, 608732, Note_off_c, 1, 73, 0
1, 608873, Note_off_c, 1, 55, 0
1, 608878, Note_off_c, 1, 58, 0
1, 608880, Note_on_c, 1, 76, 127
1, 608880, Note_on_c, 1, 49, 127
1, 609024, Note_off_c, 1, 76, 0
1, 609026, Note_on_c, 1, 73, 127
1, 609170, Note_off_c, 1, 73, 0
1, 609172, Note_on_c, 1, 69, 127
1, 609172, Note_on_c, 1, 52, 127
1, 609316, Note_off_c, 1, 69, 0
1, 609462, Note_off_c, 1, 52, 0
1, 609464, Note_on_c, 1, 64, 127
1, 609464, Note_on_c, 1, 57, 127
1, 609608, Note_off_c, 1, 64, 0
1, 609754, Note_off_c, 1, 57, 0
1, 609756, Note_on_c, 1, 67, 127
1, 609900, Note_off_c, 1, 67, 0
1, 609902, Note_on_c, 1, 70, 127
1, 610046, Note_off_c, 1, 49, 0
1, 610046, Note_off_c, 1, 70, 0
1, 610048, Note_on_c, 1, 69, 127
1, 610048, Note_on_c, 1, 49, 127
1, 610192, Note_off_c, 1, 69, 0
1, 610194, Note_on_c, 1, 67, 127
1, 610338, Note_off_c, 1, 49, 0
1, 610338, Note_off_c, 1, 67, 0
1, 610340, Note_on_c, 1, 66, 127
1, 610340, Note_on_c, 1, 45, 127
1, 610484, Note_off_c, 1, 66, 0
1, 610486, Note_on_c, 1, 67, 127
1, 610630, Note_off_c, 1, 45, 0
1, 610630, Note_off_c, 1, 67, 0
1, 610632, Note_on_c, 1, 69, 127
1, 610632, Note_on_c, 1, 48, 127
1, 610777, Note_on_c, 1, 50, 127
1, 610922, Note_on_c, 1, 54, 127
1, 611067, Note_on_c, 1, 57, 127
1, 611211, Note_off_c, 1, 69, 0
1, 611213, Note_on_c, 1, 62, 127
1, 611358, Note_on_c, 1, 66, 127
1, 611502, Note_off_c, 1, 66, 0
1, 611504, Note_on_c, 1, 67, 127
1, 611648, Note_off_c, 1, 67, 0
1, 611789, Note_off_c, 1, 62, 0
1, 611792, Note_off_c, 1, 50, 0
1, 611794, Note_off_c, 1, 48, 0
1, 611794, Note_off_c, 1, 54, 0
1, 611794, Note_off_c, 1, 57, 0
1, 611812, Note_on_c, 1, 47, 127
1, 611957, Note_on_c, 1, 50, 127
1, 612102, Note_on_c, 1, 55, 127
1, 612247, Note_on_c, 1, 59, 127
1, 612392, Note_on_c, 1, 62, 127
1, 612537, Note_on_c, 1, 67, 127
1, 612681, Note_off_c, 1, 67, 0
1, 612683, Note_on_c, 1, 69, 127
1, 612827, Note_off_c, 1, 69, 0
1, 612829, Note_on_c, 1, 71, 127
1, 612968, Note_off_c, 1, 62, 0
1, 612971, Note_off_c, 1, 50, 0
1, 612973, Note_off_c, 1, 47, 0
1, 612973, Note_off_c, 1, 55, 0
1, 612973, Note_off_c, 1, 59, 0
1, 612973, Note_off_c, 1, 71, 0
1, 612991, Note_on_c, 1, 46, 127
1, 613136, Note_on_c, 1, 52, 127
1, 613281, Note_on_c, 1, 55, 127
1, 613426, Note_on_c, 1, 61, 127
1, 613570, Note_off_c, 1, 61, 0
1, 613572, Note_on_c, 1, 64, 127
1, 613717, Note_on_c, 1, 67, 127
1, 613862, Note_on_c, 1, 70, 127
1, 614007, Note_on_c, 1, 73, 127
1, 614140, Note_off_c, 1, 67, 0
1, 614146, Note_off_c, 1, 64, 0
1, 614149, Note_off_c, 1, 52, 0
1, 614149, Note_off_c, 1, 70, 0
1, 614151, Note_off_c, 1, 46, 0
1, 614151, Note_off_c, 1, 55, 0
1, 614151, Note_off_c, 1, 73, 0
1, 614153, Note_on_c, 1, 45, 127
1, 614153, Note_on_c, 1, 53, 127
1, 614153, Note_on_c, 1, 74, 127
1, 614298, Note_on_c, 1, 69, 127
1, 614442, Note_off_c, 1, 45, 0
1, 614442, Note_off_c, 1, 53, 0
1, 614442, Note_off_c, 1, 69, 0
1, 614444, Note_on_c, 1, 70, 127
1, 614444, Note_on_c, 1, 43, 127
1, 614444, Note_on_c, 1, 52, 127
1, 614589, Note_on_c, 1, 64, 127
1, 614728, Note_off_c, 1, 74, 0
1, 614731, Note_off_c, 1, 70, 0
1, 614733, Note_off_c, 1, 43, 0
1, 614733, Note_off_c, 1, 52, 0
1, 614733, Note_off_c, 1, 64, 0
1, 614735, Note_on_c, 1, 45, 127
1, 614735, Note_on_c, 1, 74, 127
1, 614735, Note_on_c, 1, 65, 127
1, 614879, Note_off_c, 1, 45, 0
1, 614881, Note_on_c, 1, 61, 127
1, 615025, Note_off_c, 1, 61, 0
1, 615027, Note_on_c, 1, 62, 127
1, 615172, Note_on_c, 1, 56, 127
1, 615314, Note_off_c, 1, 62, 0
1, 615316, Note_off_c, 1, 56, 0
1, 615318, Note_on_c, 1, 57, 127
1, 615462, Note_off_c, 1, 74, 0
1, 615464, Note_off_c, 1, 65, 0
1, 615464, Note_on_c, 1, 64, 127
1, 615609, Note_on_c, 1, 67, 127
1, 615754, Note_on_c, 1, 73, 127
1, 615887, Note_off_c, 1, 64, 0
1, 615893, Note_off_c, 1, 57, 0
1, 615896, Note_off_c, 1, 67, 0
1, 615898, Note_off_c, 1, 73, 0
1, 615900, Note_on_c, 1, 74, 127
1, 615900, Note_on_c, 1, 50, 127
1, 616061, Note_on_c, 1, 58, 127
1, 616061, Note_on_c, 1, 67, 127
1, 616205, Note_off_c, 1, 58, 0
1, 616205, Note_off_c, 1, 67, 0
1, 616207, Note_on_c, 1, 57, 127
1, 616207, Note_on_c, 1, 66, 127
1, 616351, Note_off_c, 1, 57, 0
1, 616351, Note_off_c, 1, 66, 0
1, 616353, Note_on_c, 1, 55, 127
1, 616353, Note_on_c, 1, 64, 127
1, 616476, Note_off_c, 1, 74, 0
1, 616497, Note_off_c, 1, 55, 0
1, 616497, Note_off_c, 1, 64, 0
1, 616644, Note_on_c, 1, 69, 127
1, 616788, Note_off_c, 1, 69, 0
1, 616952, Note_on_c, 1, 73, 127
1, 617129, Note_off_c, 1, 73, 0
1, 619630, Note_off_c, 1, 50, 0
1, 621183, Note_on_c, 1, 50, 127
1, 621183, Note_on_c, 1, 77, 127
1, 621183, Note_on_c, 1, 81, 127
1, 621371, Note_off_c, 1, 50, 0
1, 621375, Note_on_c, 1, 62, 127
1, 621554, Note_off_c, 1, 77, 0
1, 621554, Note_off_c, 1, 81, 0
1, 621563, Note_off_c, 1, 62, 0
1, 621567, Note_on_c, 1, 61, 127
1, 621567, Note_on_c, 1, 76, 127
1, 621567, Note_on_c, 1, 81, 127
1, 621755, Note_off_c, 1, 61, 0
1, 621759, Note_on_c, 1, 57, 127
1, 621938, Note_off_c, 1, 76, 0
1, 621938, Note_off_c, 1, 81, 0
1, 621947, Note_off_c, 1, 57, 0
1, 621951, Note_on_c, 1, 82, 127
1, 621951, Note_on_c, 1, 62, 127
1, 621951, Note_on_c, 1, 77, 127
1, 622043, Note_off_c, 1, 82, 0
1, 622047, Note_on_c, 1, 81, 127
1, 622139, Note_off_c, 1, 62, 0
1, 622139, Note_off_c, 1, 81, 0
1, 622143, Note_on_c, 1, 57, 127
1, 622331, Note_off_c, 1, 57, 0
1, 622335, Note_on_c, 1, 50, 127
1, 622523, Note_off_c, 1, 50, 0
1, 622527, Note_on_c, 1, 79, 127
1, 622527, Note_on_c, 1, 60, 127
1, 622619, Note_off_c, 1, 79, 0
1, 622715, Note_off_c, 1, 77, 0
1, 622715, Note_off_c, 1, 60, 0
1, 622719, Note_on_c, 1, 58, 127
1, 622719, Note_on_c, 1, 79, 127
1, 622719, Note_on_c, 1, 82, 127
1, 622907, Note_off_c, 1, 58, 0
1, 622911, Note_on_c, 1, 57, 127
1, 623090, Note_off_c, 1, 79, 0
1, 623090, Note_off_c, 1, 82, 0
1, 623099, Note_off_c, 1, 57, 0
1, 623103, Note_on_c, 1, 58, 127
1, 623103, Note_on_c, 1, 77, 127
1, 623103, Note_on_c, 1, 81, 127
1, 623291, Note_off_c, 1, 58, 0
1, 623295, Note_on_c, 1, 55, 127
1, 623474, Note_off_c, 1, 77, 0
1, 623474, Note_off_c, 1, 81, 0
1, 623483, Note_off_c, 1, 55, 0
1, 623487, Note_on_c, 1, 60, 127
1, 623487, Note_on_c, 1, 79, 127
1, 623487, Note_on_c, 1, 76, 127
1, 623675, Note_off_c, 1, 60, 0
1, 623679, Note_on_c, 1, 55, 127
1, 623867, Note_off_c, 1, 55, 0
1, 623871, Note_on_c, 1, 48, 127
1, 624059, Note_off_c, 1, 48, 0
1, 624251, Note_off_c, 1, 79, 0
1, 624251, Note_off_c, 1, 76, 0
1, 624255, Note_on_c, 1, 60, 127
1, 624255, Note_on_c, 1, 79, 127
1, 624255, Note_on_c, 1, 76, 127
1, 624443, Note_off_c, 1, 60, 0
1, 624447, Note_on_c, 1, 62, 127
1, 624626, Note_off_c, 1, 79, 0
1, 624626, Note_off_c, 1, 76, 0
1, 624635, Note_off_c, 1, 62, 0
1, 624639, Note_on_c, 1, 64, 127
1, 624639, Note_on_c, 1, 79, 127
1, 624639, Note_on_c, 1, 76, 127
1, 624827, Note_off_c, 1, 64, 0
1, 624831, Note_on_c, 1, 62, 127
1, 625010, Note_off_c, 1, 79, 0
1, 625010, Note_off_c, 1, 76, 0
1, 625019, Note_off_c, 1, 62, 0
1, 625023, Note_on_c, 1, 79, 127
1, 625023, Note_on_c, 1, 61, 127
1, 625023, Note_on_c, 1, 76, 127
1, 625211, Note_off_c, 1, 79, 0
1, 625211, Note_off_c, 1, 61, 0
1, 625215, Note_on_c, 1, 77, 127
1, 625215, Note_on_c, 1, 57, 127
1, 625403, Note_off_c, 1, 77, 0
1, 625403, Note_off_c, 1, 57, 0
1, 625407, Note_on_c, 1, 59, 127
1, 625595, Note_off_c, 1, 59, 0
1, 625599, Note_on_c, 1, 81, 127
1, 625787, Note_off_c, 1, 76, 0
1, 625787, Note_off_c, 1, 81, 0
1, 625791, Note_on_c, 1, 77, 127
1, 625791, Note_on_c, 1, 62, 127
1, 625791, Note_on_c, 1, 74, 127
1, 625979, Note_off_c, 1, 77, 0
1, 625979, Note_off_c, 1, 62, 0
1, 625983, Note_on_c, 1, 76, 127
1, 625983, Note_on_c, 1, 61, 127
1, 626171, Note_off_c, 1, 76, 0
1, 626171, Note_off_c, 1, 61, 0
1, 626367, Note_on_c, 1, 79, 127
1, 626367, Note_on_c, 1, 55, 127
1, 626555, Note_off_c, 1, 74, 0
1, 626555, Note_off_c, 1, 79, 0
1, 626555, Note_off_c, 1, 55, 0
1, 626559, Note_on_c, 1, 77, 127
1, 626559, Note_on_c, 1, 57, 127
1, 626559, Note_on_c, 1, 73, 127
1, 626747, Note_off_c, 1, 77, 0
1, 626747, Note_off_c, 1, 57, 0
1, 626751, Note_on_c, 1, 76, 127
1, 626751, Note_on_c, 1, 45, 127
1, 626930, Note_off_c, 1, 73, 0
1, 626939, Note_off_c, 1, 76, 0
1, 626939, Note_off_c, 1, 45, 0
1, 626943, Note_on_c, 1, 74, 127
1, 626943, Note_on_c, 1, 50, 127
1, 627131, Note_off_c, 1, 74, 0
1, 627131, Note_off_c, 1, 50, 0
1, 627135, Note_on_c, 1, 73, 127
1, 627135, Note_on_c, 1, 52, 127
1, 627323, Note_off_c, 1, 73, 0
1, 627323, Note_off_c, 1, 52, 0
1, 627327, Note_on_c, 1, 74, 127
1, 627327, Note_on_c, 1, 53, 127
1, 627327, Note_on_c, 1, 81, 127
1, 627515, Note_off_c, 1, 74, 0
1, 627515, Note_off_c, 1, 53, 0
1, 627519, Note_on_c, 1, 77, 127
1, 627519, Note_on_c, 1, 50, 127
1, 627698, Note_off_c, 1, 81, 0
1, 627707, Note_off_c, 1, 77, 0
1, 627707, Note_off_c, 1, 50, 0
1, 627711, Note_on_c, 1, 76, 127
1, 627711, Note_on_c, 1, 49, 127
1, 627711, Note_on_c, 1, 81, 127
1, 627899, Note_off_c, 1, 76, 0
1, 627899, Note_off_c, 1, 49, 0
1, 627903, Note_on_c, 1, 79, 127
1, 627903, Note_on_c, 1, 45, 127
1, 628082, Note_off_c, 1, 81, 0
1, 628091, Note_off_c, 1, 79, 0
1, 628091, Note_off_c, 1, 45, 0
1, 628095, Note_on_c, 1, 82, 127
1, 628095, Note_on_c, 1, 50, 127
1, 628095, Note_on_c, 1, 77, 127
1, 628187, Note_off_c, 1, 82, 0
1, 628191, Note_on_c, 1, 81, 127
1, 628283, Note_off_c, 1, 50, 0
1, 628283, Note_off_c, 1, 81, 0
1, 628287, Note_on_c, 1, 45, 127
1, 628475, Note_off_c, 1, 45, 0
1, 628479, Note_on_c, 1, 38, 127
1, 628667, Note_off_c, 1, 38, 0
1, 628671, Note_on_c, 1, 79, 127
1, 628671, Note_on_c, 1, 48, 127
1, 628763, Note_off_c, 1, 79, 0
1, 628859, Note_off_c, 1, 77, 0
1, 628859, Note_off_c, 1, 48, 0
1, 628863, Note_on_c, 1, 46, 127
1, 628863, Note_on_c, 1, 79, 127
1, 628863, Note_on_c, 1, 82, 127
1, 629051, Note_off_c, 1, 46, 0
1, 629055, Note_on_c, 1, 45, 127
1, 629234, Note_off_c, 1, 79, 0
1, 629234, Note_off_c, 1, 82, 0
1, 629243, Note_off_c, 1, 45, 0
1, 629247, Note_on_c, 1, 46, 127
1, 629247, Note_on_c, 1, 77, 127
1, 629247, Note_on_c, 1, 81, 127
1, 629435, Note_off_c, 1, 46, 0
1, 629439, Note_on_c, 1, 43, 127
1, 629618, Note_off_c, 1, 77, 0
1, 629618, Note_off_c, 1, 81, 0
1, 629627, Note_off_c, 1, 43, 0
1, 629631, Note_on_c, 1, 48, 127
1, 629631, Note_on_c, 1, 81, 127
1, 629631, Note_on_c, 1, 76, 127
1, 629819, Note_off_c, 1, 48, 0
1, 629823, Note_on_c, 1, 43, 127
1, 630002, Note_off_c, 1, 81, 0
1, 630011, Note_off_c, 1, 43, 0
1, 630015, Note_on_c, 1, 79, 127
1, 630015, Note_on_c, 1, 36, 127
1, 630203, Note_off_c, 1, 79, 0
1, 630203, Note_off_c, 1, 36, 0
1, 630207, Note_on_c, 1, 46, 127
1, 630303, Note_on_c, 1, 82, 127
1, 630395, Note_off_c, 1, 76, 0
1, 630395, Note_off_c, 1, 46, 0
1, 630395, Note_off_c, 1, 82, 0
1, 630399, Note_on_c, 1, 84, 127
1, 630399, Note_on_c, 1, 45, 127
1, 630399, Note_on_c, 1, 76, 127
1, 630587, Note_off_c, 1, 84, 0
1, 630587, Note_off_c, 1, 45, 0
1, 630591, Note_on_c, 1, 82, 127
1, 630591, Note_on_c, 1, 46, 127
1, 630779, Note_off_c, 1, 82, 0
1, 630779, Note_off_c, 1, 46, 0
1, 630783, Note_on_c, 1, 81, 127
1, 630783, Note_on_c, 1, 48, 127
1, 630971, Note_off_c, 1, 81, 0
1, 630971, Note_off_c, 1, 48, 0
1, 630975, Note_on_c, 1, 79, 127
1, 631163, Note_off_c, 1, 76, 0
1, 631163, Note_off_c, 1, 79, 0
1, 631167, Note_on_c, 1, 77, 127
1, 631167, Note_on_c, 1, 50, 127
1, 631167, Note_on_c, 1, 74, 127
1, 631355, Note_off_c, 1, 77, 0
1, 631355, Note_off_c, 1, 50, 0
1, 631359, Note_on_c, 1, 76, 127
1, 631359, Note_on_c, 1, 52, 127
1, 631538, Note_off_c, 1, 74, 0
1, 631547, Note_off_c, 1, 76, 0
1, 631547, Note_off_c, 1, 52, 0
1, 631551, Note_on_c, 1, 53, 127
1, 631551, Note_on_c, 1, 74, 127
1, 631739, Note_off_c, 1, 53, 0
1, 631743, Note_on_c, 1, 82, 127
1, 631743, Note_on_c, 1, 50, 127
1, 631931, Note_off_c, 1, 82, 0
1, 631931, Note_off_c, 1, 50, 0
1, 631935, Note_on_c, 1, 81, 127
1, 631935, Note_on_c, 1, 58, 127
1, 632027, Note_off_c, 1, 81, 0
1, 632031, Note_on_c, 1, 79, 127
1, 632123, Note_off_c, 1, 58, 0
1, 632123, Note_off_c, 1, 79, 0
1, 632127, Note_on_c, 1, 57, 127
1, 632315, Note_off_c, 1, 57, 0
1, 632511, Note_on_c, 1, 77, 127
1, 632511, Note_on_c, 1, 46, 127
1, 632603, Note_off_c, 1, 77, 0
1, 632698, Note_off_c, 1, 74, 0
1, 632699, Note_off_c, 1, 46, 0
1, 632703, Note_on_c, 1, 45, 127
1, 632703, Note_on_c, 1, 81, 127
1, 632703, Note_on_c, 1, 73, 127
1, 632891, Note_off_c, 1, 45, 0
1, 632895, Note_on_c, 1, 52, 127
1, 633083, Note_off_c, 1, 52, 0
1, 633087, Note_on_c, 1, 53, 127
1, 633275, Note_off_c, 1, 53, 0
1, 633279, Note_on_c, 1, 55, 127
1, 633467, Note_off_c, 1, 81, 0
1, 633467, Note_off_c, 1, 73, 0
1, 633467, Note_off_c, 1, 55, 0
1, 633471, Note_on_c, 1, 57, 127
1, 633471, Note_on_c, 1, 76, 127
1, 633471, Note_on_c, 1, 72, 127
1, 633659, Note_off_c, 1, 57, 0
1, 633663, Note_on_c, 1, 45, 127
1, 633842, Note_off_c, 1, 76, 0
1, 633842, Note_off_c, 1, 72, 0
1, 633851, Note_off_c, 1, 45, 0
1, 633855, Note_on_c, 1, 56, 127
1, 633855, Note_on_c, 1, 76, 127
1, 633855, Note_on_c, 1, 71, 127
1, 634043, Note_off_c, 1, 56, 0
1, 634047, Note_on_c, 1, 52, 127
1, 634226, Note_off_c, 1, 76, 0
1, 634226, Note_off_c, 1, 71, 0
1, 634235, Note_off_c, 1, 52, 0
1, 634239, Note_on_c, 1, 77, 127
1, 634239, Note_on_c, 1, 57, 127
1, 634239, Note_on_c, 1, 72, 127
1, 634331, Note_off_c, 1, 77, 0
1, 634335, Note_on_c, 1, 76, 127
1, 634427, Note_off_c, 1, 57, 0
1, 634427, Note_off_c, 1, 76, 0
1, 634431, Note_on_c, 1, 52, 127
1, 634619, Note_off_c, 1, 52, 0
1, 634623, Note_on_c, 1, 45, 127
1, 634811, Note_off_c, 1, 45, 0
1, 634815, Note_on_c, 1, 74, 127
1, 634815, Note_on_c, 1, 55, 127
1, 634907, Note_off_c, 1, 74, 0
1, 635003, Note_off_c, 1, 72, 0
1, 635003, Note_off_c, 1, 55, 0
1, 635007, Note_on_c, 1, 53, 127
1, 635007, Note_on_c, 1, 77, 127
1, 635007, Note_on_c, 1, 74, 127
1, 635195, Note_off_c, 1, 53, 0
1, 635199, Note_on_c, 1, 52, 127
1, 635378, Note_off_c, 1, 77, 0
1, 635378, Note_off_c, 1, 74, 0
1, 635387, Note_off_c, 1, 52, 0
1, 635391, Note_on_c, 1, 53, 127
1, 635391, Note_on_c, 1, 76, 127
1, 635391, Note_on_c, 1, 72, 127
1, 635579, Note_off_c, 1, 53, 0
1, 635583, Note_on_c, 1, 50, 127
1, 635762, Note_off_c, 1, 76, 0
1, 635762, Note_off_c, 1, 72, 0
1, 635771, Note_off_c, 1, 50, 0
1, 635775, Note_on_c, 1, 55, 127
1, 635775, Note_on_c, 1, 74, 127
1, 635775, Note_on_c, 1, 71, 127
1, 635963, Note_off_c, 1, 55, 0
1, 635967, Note_on_c, 1, 50, 127
1, 636155, Note_off_c, 1, 50, 0
1, 636159, Note_on_c, 1, 43, 127
1, 636347, Note_off_c, 1, 43, 0
1, 636539, Note_off_c, 1, 74, 0
1, 636539, Note_off_c, 1, 71, 0
1, 636543, Note_on_c, 1, 55, 127
1, 636543, Note_on_c, 1, 74, 127
1, 636543, Note_on_c, 1, 71, 127
1, 636731, Note_off_c, 1, 55, 0
1, 636735, Note_on_c, 1, 53, 127
1, 636914, Note_off_c, 1, 74, 0
1, 636914, Note_off_c, 1, 71, 0
1, 636923, Note_off_c, 1, 53, 0
1, 636927, Note_on_c, 1, 55, 127
1, 636927, Note_on_c, 1, 79, 127
1, 636927, Note_on_c, 1, 71, 127
1, 637115, Note_off_c, 1, 55, 0
1, 637119, Note_on_c, 1, 52, 127
1, 637298, Note_off_c, 1, 79, 0
1, 637298, Note_off_c, 1, 71, 0
1, 637307, Note_off_c, 1, 52, 0
1, 637311, Note_on_c, 1, 77, 127
1, 637311, Note_on_c, 1, 57, 127
1, 637311, Note_on_c, 1, 72, 127
1, 637403, Note_off_c, 1, 77, 0
1, 637407, Note_on_c, 1, 76, 127
1, 637499, Note_off_c, 1, 57, 0
1, 637499, Note_off_c, 1, 76, 0
1, 637503, Note_on_c, 1, 55, 127
1, 637691, Note_off_c, 1, 55, 0
1, 637695, Note_on_c, 1, 53, 127
1, 637883, Note_off_c, 1, 53, 0
1, 637887, Note_on_c, 1, 74, 127
1, 637887, Note_on_c, 1, 52, 127
1, 637979, Note_off_c, 1, 74, 0
1, 638075, Note_off_c, 1, 72, 0
1, 638075, Note_off_c, 1, 52, 0
1, 638079, Note_on_c, 1, 77, 127
1, 638079, Note_on_c, 1, 50, 127
1, 638079, Note_on_c, 1, 74, 127
1, 638267, Note_off_c, 1, 77, 0
1, 638267, Note_off_c, 1, 50, 0
1, 638271, Note_on_c, 1, 79, 127
1, 638271, Note_on_c, 1, 59, 127
1, 638450, Note_off_c, 1, 74, 0
1, 638459, Note_off_c, 1, 79, 0
1, 638459, Note_off_c, 1, 59, 0
1, 638463, Note_on_c, 1, 76, 127
1, 638463, Note_on_c, 1, 60, 127
1, 638463, Note_on_c, 1, 72, 127
1, 638651, Note_off_c, 1, 76, 0
1, 638651, Note_off_c, 1, 60, 0
1, 638655, Note_on_c, 1, 77, 127
1, 638655, Note_on_c, 1, 53, 127
1, 638834, Note_off_c, 1, 72, 0
1, 638843, Note_off_c, 1, 77, 0
1, 638843, Note_off_c, 1, 53, 0
1, 638847, Note_on_c, 1, 76, 127
1, 638847, Note_on_c, 1, 55, 127
1, 638847, Note_on_c, 1, 71, 127
1, 639035, Note_off_c, 1, 76, 0
1, 639035, Note_off_c, 1, 55, 0
1, 639039, Note_on_c, 1, 74, 127
1, 639039, Note_on_c, 1, 43, 127
1, 639218, Note_off_c, 1, 71, 0
1, 639227, Note_off_c, 1, 74, 0
1, 639227, Note_off_c, 1, 43, 0
1, 639231, Note_on_c, 1, 48, 127
1, 639231, Note_on_c, 1, 72, 127
1, 639419, Note_off_c, 1, 48, 0
1, 639423, Note_on_c, 1, 46, 127
1, 639602, Note_off_c, 1, 72, 0
1, 639611, Note_off_c, 1, 46, 0
1, 639615, Note_on_c, 1, 45, 127
1, 639615, Note_on_c, 1, 72, 127
1, 639615, Note_on_c, 1, 76, 127
1, 639803, Note_off_c, 1, 45, 0
1, 639807, Note_on_c, 1, 46, 127
1, 639986, Note_off_c, 1, 72, 0
1, 639986, Note_off_c, 1, 76, 0
1, 639995, Note_off_c, 1, 46, 0
1, 639999, Note_on_c, 1, 78, 127
1, 639999, Note_on_c, 1, 48, 127
1, 639999, Note_on_c, 1, 72, 127
1, 640187, Note_off_c, 1, 78, 0
1, 640187, Note_off_c, 1, 48, 0
1, 640191, Note_on_c, 1, 79, 127
1, 640191, Note_on_c, 1, 45, 127
1, 640283, Note_off_c, 1, 79, 0
1, 640287, Note_on_c, 1, 81, 127
1, 640370, Note_off_c, 1, 72, 0
1, 640379, Note_off_c, 1, 45, 0
1, 640379, Note_off_c, 1, 81, 0
1, 640383, Note_on_c, 1, 79, 127
1, 640383, Note_on_c, 1, 50, 127
1, 640383, Note_on_c, 1, 69, 127
1, 640475, Note_off_c, 1, 79, 0
1, 640479, Note_on_c, 1, 78, 127
1, 640571, Note_off_c, 1, 50, 0
1, 640571, Note_off_c, 1, 78, 0
1, 640575, Note_on_c, 1, 45, 127
1, 640763, Note_off_c, 1, 45, 0
1, 640767, Note_on_c, 1, 38, 127
1, 640955, Note_off_c, 1, 38, 0
1, 640959, Note_on_c, 1, 76, 127
1, 640959, Note_on_c, 1, 48, 127
1, 641051, Note_off_c, 1, 76, 0
1, 641147, Note_off_c, 1, 69, 0
1, 641147, Note_off_c, 1, 48, 0
1, 641151, Note_on_c, 1, 46, 127
1, 641151, Note_on_c, 1, 74, 127
1, 641151, Note_on_c, 1, 79, 127
1, 641339, Note_off_c, 1, 46, 0
1, 641343, Note_on_c, 1, 45, 127
1, 641522, Note_off_c, 1, 74, 0
1, 641522, Note_off_c, 1, 79, 0
1, 641531, Note_off_c, 1, 45, 0
1, 641535, Note_on_c, 1, 43, 127
1, 641535, Note_on_c, 1, 81, 127
1, 641535, Note_on_c, 1, 74, 127
1, 641723, Note_off_c, 1, 43, 0
1, 641727, Note_on_c, 1, 42, 127
1, 641906, Note_off_c, 1, 81, 0
1, 641906, Note_off_c, 1, 74, 0
1, 641915, Note_off_c, 1, 42, 0
1, 641919, Note_on_c, 1, 43, 127
1, 641919, Note_on_c, 1, 82, 127
1, 641919, Note_on_c, 1, 74, 127
1, 642107, Note_off_c, 1, 43, 0
1, 642111, Note_on_c, 1, 46, 127
1, 642299, Note_off_c, 1, 46, 0
1, 642303, Note_on_c, 1, 50, 127
1, 642491, Note_off_c, 1, 82, 0
1, 642491, Note_off_c, 1, 50, 0
1, 642495, Note_on_c, 1, 81, 127
1, 642495, Note_on_c, 1, 55, 127
1, 642587, Note_off_c, 1, 81, 0
1, 642683, Note_off_c, 1, 55, 0
1, 642687, Note_on_c, 1, 84, 127
1, 642687, Note_on_c, 1, 54, 127
1, 642875, Note_off_c, 1, 84, 0
1, 643058, Note_off_c, 1, 54, 0
1, 644031, Note_on_c, 1, 79, 127
1, 644219, Note_off_c, 1, 79, 0
1, 644223, Note_on_c, 1, 48, 127
1, 644594, Note_off_c, 1, 48, 0
1, 644799, Note_on_c, 1, 78, 127
1, 644987, Note_off_c, 1, 78, 0
1, 644991, Note_on_c, 1, 47, 127
1, 645183, Note_off_c, 1, 74, 0
1, 645183, Note_on_c, 1, 75, 127
1, 645362, Note_off_c, 1, 47, 0
1, 645371, Note_off_c, 1, 75, 0
1, 645375, Note_on_c, 1, 77, 127
1, 645563, Note_off_c, 1, 77, 0
1, 645759, Note_on_c, 1, 57, 127
1, 646130, Note_off_c, 1, 57, 0
1, 646143, Note_on_c, 1, 59, 127
1, 646335, Note_on_c, 1, 72, 127
1, 646514, Note_off_c, 1, 59, 0
1, 646523, Note_off_c, 1, 72, 0
1, 646527, Note_on_c, 1, 60, 127
1, 646898, Note_off_c, 1, 60, 0
1, 646911, Note_on_c, 1, 62, 127
1, 647103, Note_on_c, 1, 71, 127
1, 647282, Note_off_c, 1, 62, 0
1, 647291, Note_off_c, 1, 71, 0
1, 647295, Note_on_c, 1, 63, 127
1, 647666, Note_off_c, 1, 63, 0
1, 648063, Note_on_c, 1, 67, 127
1, 648434, Note_off_c, 1, 67, 0
1, 648447, Note_on_c, 1, 69, 127
1, 648639, Note_on_c, 1, 70, 127
1, 648818, Note_off_c, 1, 69, 0
1, 648827, Note_off_c, 1, 70, 0
1, 651135, Note_on_c, 1, 55, 127
1, 651135, Note_on_c, 1, 70, 127
1, 651135, Note_on_c, 1, 79, 127
1, 651323, Note_off_c, 1, 55, 0
1, 651327, Note_on_c, 1, 50, 127
1, 651515, Note_off_c, 1, 50, 0
1, 651519, Note_on_c, 1, 46, 127
1, 651707, Note_off_c, 1, 46, 0
1, 651899, Note_off_c, 1, 70, 0
1, 651899, Note_off_c, 1, 79, 0
1, 651903, Note_on_c, 1, 43, 127
1, 651903, Note_on_c, 1, 70, 127
1, 651903, Note_on_c, 1, 74, 127
1, 652091, Note_off_c, 1, 43, 0
1, 652095, Note_on_c, 1, 50, 127
1, 652274, Note_off_c, 1, 70, 0
1, 652274, Note_off_c, 1, 74, 0
1, 652283, Note_off_c, 1, 50, 0
1, 652287, Note_on_c, 1, 55, 127
1, 652287, Note_on_c, 1, 69, 127
1, 652287, Note_on_c, 1, 74, 127
1, 652475, Note_off_c, 1, 55, 0
1, 652479, Note_on_c, 1, 53, 127
1, 652658, Note_off_c, 1, 69, 0
1, 652658, Note_off_c, 1, 74, 0
1, 652667, Note_off_c, 1, 53, 0
1, 652671, Note_on_c, 1, 52, 127
1, 652671, Note_on_c, 1, 67, 127
1, 652671, Note_on_c, 1, 74, 127
1, 652859, Note_off_c, 1, 52, 0
1, 652863, Note_on_c, 1, 53, 127
1, 653042, Note_off_c, 1, 67, 0
1, 653051, Note_off_c, 1, 53, 0
1, 653055, Note_on_c, 1, 70, 127
1, 653055, Note_on_c, 1, 55, 127
1, 653243, Note_off_c, 1, 74, 0
1, 653247, Note_on_c, 1, 76, 127
1, 653339, Note_off_c, 1, 76, 0
1, 653426, Note_off_c, 1, 70, 0
1, 653426, Note_off_c, 1, 55, 0
1, 653439, Note_on_c, 1, 73, 127
1, 653439, Note_on_c, 1, 57, 127
1, 653439, Note_on_c, 1, 69, 127
1, 653627, Note_off_c, 1, 73, 0
1, 653627, Note_off_c, 1, 57, 0
1, 653631, Note_on_c, 1, 74, 127
1, 653631, Note_on_c, 1, 59, 127
1, 653819, Note_off_c, 1, 74, 0
1, 653819, Note_off_c, 1, 59, 0
1, 653823, Note_on_c, 1, 76, 127
1, 654011, Note_off_c, 1, 76, 0
1, 654015, Note_on_c, 1, 55, 127
1, 654203, Note_off_c, 1, 55, 0
1, 654207, Note_on_c, 1, 53, 127
1, 654578, Note_off_c, 1, 53, 0
1, 654591, Note_on_c, 1, 77, 127
1, 654591, Note_on_c, 1, 50, 127
1, 654779, Note_off_c, 1, 77, 0
1, 654962, Note_off_c, 1, 50, 0
1, 654975, Note_on_c, 1, 49, 127
1, 655346, Note_off_c, 1, 49, 0
1, 655359, Note_on_c, 1, 79, 127
1, 655359, Note_on_c, 1, 45, 127
1, 655547, Note_off_c, 1, 79, 0
1, 655730, Note_off_c, 1, 45, 0
1, 656127, Note_on_c, 1, 48, 127
1, 656319, Note_on_c, 1, 81, 127
1, 656498, Note_off_c, 1, 48, 0
1, 656500, Note_off_c, 1, 69, 0
1, 656507, Note_off_c, 1, 81, 0
1, 656511, Note_on_c, 1, 79, 127
1, 656511, Note_on_c, 1, 46, 127
1, 656699, Note_off_c, 1, 79, 0
1, 656703, Note_on_c, 1, 77, 127
1, 656882, Note_off_c, 1, 46, 0
1, 656891, Note_off_c, 1, 77, 0
1, 656895, Note_on_c, 1, 76, 127
1, 656895, Note_on_c, 1, 43, 127
1, 657083, Note_off_c, 1, 76, 0
1, 657087, Note_on_c, 1, 74, 127
1, 657266, Note_off_c, 1, 43, 0
1, 657275, Note_off_c, 1, 74, 0
1, 657279, Note_on_c, 1, 73, 127
1, 657279, Note_on_c, 1, 45, 127
1, 657467, Note_off_c, 1, 73, 0
1, 657471, Note_on_c, 1, 69, 127
1, 657650, Note_off_c, 1, 45, 0
1, 657659, Note_off_c, 1, 69, 0
1, 657663, Note_on_c, 1, 71, 127
1, 657663, Note_on_c, 1, 57, 127
1, 657851, Note_off_c, 1, 71, 0
1, 657851, Note_off_c, 1, 57, 0
1, 657855, Note_on_c, 1, 73, 127
1, 657855, Note_on_c, 1, 55, 127
1, 658043, Note_off_c, 1, 73, 0
1, 658043, Note_off_c, 1, 55, 0
1, 658047, Note_on_c, 1, 74, 127
1, 658047, Note_on_c, 1, 53, 127
1, 658047, Note_on_c, 1, 69, 127
1, 658235, Note_off_c, 1, 74, 0
1, 658235, Note_off_c, 1, 53, 0
1, 658239, Note_on_c, 1, 76, 127
1, 658239, Note_on_c, 1, 52, 127
1, 658418, Note_off_c, 1, 69, 0
1, 658427, Note_off_c, 1, 76, 0
1, 658427, Note_off_c, 1, 52, 0
1, 658431, Note_on_c, 1, 50, 127
1, 658431, Note_on_c, 1, 69, 127
1, 658431, Note_on_c, 1, 77, 127
1, 658619, Note_off_c, 1, 50, 0
1, 658623, Note_on_c, 1, 48, 127
1, 658802, Note_off_c, 1, 69, 0
1, 658811, Note_off_c, 1, 48, 0
1, 658815, Note_on_c, 1, 70, 127
1, 658815, Note_on_c, 1, 46, 127
1, 658907, Note_off_c, 1, 70, 0
1, 659003, Note_off_c, 1, 46, 0
1, 659391, Note_on_c, 1, 67, 127
1, 659391, Note_on_c, 1, 45, 127
1, 659483, Note_off_c, 1, 67, 0
1, 659579, Note_off_c, 1, 45, 0
1, 659583, Note_on_c, 1, 43, 127
1, 659771, Note_off_c, 1, 43, 0
1, 660735, Note_on_c, 1, 36, 127
1, 660923, Note_off_c, 1, 36, 0
1, 661118, Note_off_c, 1, 77, 0
1, 661119, Note_on_c, 1, 48, 127
1, 661119, Note_on_c, 1, 67, 127
1, 661119, Note_on_c, 1, 76, 127
1, 661307, Note_off_c, 1, 48, 0
1, 661311, Note_on_c, 1, 50, 127
1, 661490, Note_off_c, 1, 67, 0
1, 661499, Note_off_c, 1, 50, 0
1, 661503, Note_on_c, 1, 52, 127
1, 661691, Note_off_c, 1, 52, 0
1, 661887, Note_on_c, 1, 49, 127
1, 662079, Note_on_c, 1, 70, 127
1, 662267, Note_off_c, 1, 70, 0
1, 662271, Note_on_c, 1, 69, 127
1, 662459, Note_off_c, 1, 49, 0
1, 662459, Note_off_c, 1, 69, 0
1, 662646, Note_off_c, 1, 76, 0
1, 662655, Note_on_c, 1, 65, 127
1, 662655, Note_on_c, 1, 50, 127
1, 662655, Note_on_c, 1, 74, 127
1, 662843, Note_off_c, 1, 65, 0
1, 662843, Note_off_c, 1, 50, 0
1, 662847, Note_on_c, 1, 69, 127
1, 662847, Note_on_c, 1, 48, 127
1, 663035, Note_off_c, 1, 69, 0
1, 663035, Note_off_c, 1, 48, 0
1, 663039, Note_on_c, 1, 67, 127
1, 663039, Note_on_c, 1, 46, 127
1, 663227, Note_off_c, 1, 67, 0
1, 663227, Note_off_c, 1, 46, 0
1, 663231, Note_on_c, 1, 43, 127
1, 663419, Note_off_c, 1, 74, 0
1, 663419, Note_off_c, 1, 43, 0
1, 663423, Note_on_c, 1, 73, 127
1, 663423, Note_on_c, 1, 64, 127
1, 663423, Note_on_c, 1, 45, 127
1, 663794, Note_off_c, 1, 73, 0
1, 663794, Note_off_c, 1, 64, 0
1, 663794, Note_off_c, 1, 45, 0
1, 663807, Note_on_c, 1, 74, 127
1, 663807, Note_on_c, 1, 62, 127
1, 663807, Note_on_c, 1, 38, 127
1, 663995, Note_off_c, 1, 74, 0
1, 663995, Note_off_c, 1, 62, 0
1, 663995, Note_off_c, 1, 38, 0
1, 663999, Note_on_c, 1, 76, 127
1, 663999, Note_on_c, 1, 45, 127
1, 664187, Note_off_c, 1, 76, 0
1, 664187, Note_off_c, 1, 45, 0
1, 664191, Note_on_c, 1, 77, 127
1, 664191, Note_on_c, 1, 50, 127
1, 664379, Note_off_c, 1, 77, 0
1, 664379, Note_off_c, 1, 50, 0
1, 664383, Note_on_c, 1, 79, 127
1, 664383, Note_on_c, 1, 52, 127
1, 664571, Note_off_c, 1, 79, 0
1, 664571, Note_off_c, 1, 52, 0
1, 664575, Note_on_c, 1, 74, 127
1, 664575, Note_on_c, 1, 53, 127
1, 664575, Note_on_c, 1, 81, 127
1, 664763, Note_off_c, 1, 74, 0
1, 664763, Note_off_c, 1, 53, 0
1, 664767, Note_on_c, 1, 76, 127
1, 664767, Note_on_c, 1, 49, 127
1, 664946, Note_off_c, 1, 81, 0
1, 664955, Note_off_c, 1, 76, 0
1, 664955, Note_off_c, 1, 49, 0
1, 664959, Note_on_c, 1, 82, 127
1, 664959, Note_on_c, 1, 50, 127
1, 664959, Note_on_c, 1, 77, 127
1, 665051, Note_off_c, 1, 82, 0
1, 665055, Note_on_c, 1, 81, 127
1, 665147, Note_off_c, 1, 50, 0
1, 665147, Note_off_c, 1, 81, 0
1, 665151, Note_on_c, 1, 45, 127
1, 665339, Note_off_c, 1, 45, 0
1, 665343, Note_on_c, 1, 38, 127
1, 665531, Note_off_c, 1, 38, 0
1, 665535, Note_on_c, 1, 79, 127
1, 665535, Note_on_c, 1, 48, 127
1, 665627, Note_off_c, 1, 79, 0
1, 665723, Note_off_c, 1, 77, 0
1, 665723, Note_off_c, 1, 48, 0
1, 665727, Note_on_c, 1, 46, 127
1, 665727, Note_on_c, 1, 79, 127
1, 665727, Note_on_c, 1, 82, 127
1, 665915, Note_off_c, 1, 46, 0
1, 665919, Note_on_c, 1, 45, 127
1, 666098, Note_off_c, 1, 79, 0
1, 666098, Note_off_c, 1, 82, 0
1, 666107, Note_off_c, 1, 45, 0
1, 666111, Note_on_c, 1, 46, 127
1, 666111, Note_on_c, 1, 77, 127
1, 666111, Note_on_c, 1, 81, 127
1, 666299, Note_off_c, 1, 46, 0
1, 666303, Note_on_c, 1, 43, 127
1, 666482, Note_off_c, 1, 77, 0
1, 666482, Note_off_c, 1, 81, 0
1, 666491, Note_off_c, 1, 43, 0
1, 666495, Note_on_c, 1, 79, 127
1, 666495, Note_on_c, 1, 48, 127
1, 666495, Note_on_c, 1, 76, 127
1, 666683, Note_off_c, 1, 79, 0
1, 666687, Note_on_c, 1, 82, 127
1, 666875, Note_off_c, 1, 82, 0
1, 666879, Note_on_c, 1, 81, 127
1, 667067, Note_off_c, 1, 48, 0
1, 667067, Note_off_c, 1, 81, 0
1, 667071, Note_on_c, 1, 49, 127
1, 667259, Note_off_c, 1, 76, 0
1, 667259, Note_off_c, 1, 49, 0
1, 667263, Note_on_c, 1, 77, 127
1, 667263, Note_on_c, 1, 50, 127
1, 667451, Note_off_c, 1, 77, 0
1, 667451, Note_off_c, 1, 50, 0
1, 667455, Note_on_c, 1, 76, 127
1, 667455, Note_on_c, 1, 52, 127
1, 667643, Note_off_c, 1, 76, 0
1, 667643, Note_off_c, 1, 52, 0
1, 667647, Note_on_c, 1, 74, 127
1, 667647, Note_on_c, 1, 53, 127
1, 667835, Note_off_c, 1, 74, 0
1, 667835, Note_off_c, 1, 53, 0
1, 667839, Note_on_c, 1, 73, 127
1, 667839, Note_on_c, 1, 55, 127
1, 668027, Note_off_c, 1, 73, 0
1, 668027, Note_off_c, 1, 55, 0
1, 668031, Note_on_c, 1, 81, 127
1, 668031, Note_on_c, 1, 74, 127
1, 668031, Note_on_c, 1, 41, 127
1, 668402, Note_off_c, 1, 81, 0
1, 668402, Note_off_c, 1, 74, 0
1, 668402, Note_off_c, 1, 41, 0
1, 668799, Note_on_c, 1, 76, 127
1, 668799, Note_on_c, 1, 73, 127
1, 668799, Note_on_c, 1, 45, 127
1, 669170, Note_off_c, 1, 76, 0
1, 669170, Note_off_c, 1, 73, 0
1, 669170, Note_off_c, 1, 45, 0
1, 669567, Note_on_c, 1, 38, 127
1, 669567, Note_on_c, 1, 74, 127
1, 670139, Note_off_c, 1, 38, 0
1, 670331, Note_off_c, 1, 74, 0
1, 670375, Note_on_c, 1, 69, 127
1, 670375, Note_on_c, 1, 78, 127
1, 670553, Note_off_c, 1, 69, 0
1, 670567, Note_on_c, 1, 62, 127
1, 670745, Note_off_c, 1, 62, 0
1, 670750, Note_off_c, 1, 78, 0
1, 670759, Note_on_c, 1, 66, 127
1, 670759, Note_on_c, 1, 78, 127
1, 670937, Note_off_c, 1, 66, 0
1, 670951, Note_on_c, 1, 69, 127
1, 671129, Note_off_c, 1, 69, 0
1, 671134, Note_off_c, 1, 78, 0
1, 671143, Note_on_c, 1, 79, 127
1, 671143, Note_on_c, 1, 74, 127
1, 671235, Note_off_c, 1, 79, 0
1, 671239, Note_on_c, 1, 78, 127
1, 671321, Note_off_c, 1, 74, 0
1, 671331, Note_off_c, 1, 78, 0
1, 671335, Note_on_c, 1, 79, 127
1, 671335, Note_on_c, 1, 62, 127
1, 671427, Note_off_c, 1, 79, 0
1, 671431, Note_on_c, 1, 78, 127
1, 671513, Note_off_c, 1, 62, 0
1, 671523, Note_off_c, 1, 78, 0
1, 671527, Note_on_c, 1, 79, 127
1, 671527, Note_on_c, 1, 72, 127
1, 671619, Note_off_c, 1, 79, 0
1, 671623, Note_on_c, 1, 78, 127
1, 671705, Note_off_c, 1, 72, 0
1, 671715, Note_off_c, 1, 78, 0
1, 671719, Note_on_c, 1, 76, 127
1, 671719, Note_on_c, 1, 62, 127
1, 671811, Note_off_c, 1, 76, 0
1, 671815, Note_on_c, 1, 78, 127
1, 671897, Note_off_c, 1, 62, 0
1, 671907, Note_off_c, 1, 78, 0
1, 671911, Note_on_c, 1, 71, 127
1, 671911, Note_on_c, 1, 79, 127
1, 672089, Note_off_c, 1, 71, 0
1, 672103, Note_on_c, 1, 62, 127
1, 672281, Note_off_c, 1, 62, 0
1, 672286, Note_off_c, 1, 79, 0
1, 672295, Note_on_c, 1, 69, 127
1, 672295, Note_on_c, 1, 78, 127
1, 672473, Note_off_c, 1, 69, 0
1, 672487, Note_on_c, 1, 62, 127
1, 672665, Note_off_c, 1, 62, 0
1, 672670, Note_off_c, 1, 78, 0
1, 672679, Note_on_c, 1, 67, 127
1, 672679, Note_on_c, 1, 76, 127
1, 672857, Note_off_c, 1, 67, 0
1, 672871, Note_on_c, 1, 62, 127
1, 673049, Note_off_c, 1, 62, 0
1, 673063, Note_on_c, 1, 66, 127
1, 673241, Note_off_c, 1, 66, 0
1, 673443, Note_off_c, 1, 76, 0
1, 673447, Note_on_c, 1, 67, 127
1, 673447, Note_on_c, 1, 76, 127
1, 673625, Note_off_c, 1, 67, 0
1, 673639, Note_on_c, 1, 62, 127
1, 673817, Note_off_c, 1, 62, 0
1, 673822, Note_off_c, 1, 76, 0
1, 673831, Note_on_c, 1, 64, 127
1, 673831, Note_on_c, 1, 76, 127
1, 674009, Note_off_c, 1, 64, 0
1, 674023, Note_on_c, 1, 67, 127
1, 674201, Note_off_c, 1, 67, 0
1, 674206, Note_off_c, 1, 76, 0
1, 674215, Note_on_c, 1, 78, 127
1, 674215, Note_on_c, 1, 73, 127
1, 674307, Note_off_c, 1, 78, 0
1, 674311, Note_on_c, 1, 76, 127
1, 674393, Note_off_c, 1, 73, 0
1, 674403, Note_off_c, 1, 76, 0
1, 674407, Note_on_c, 1, 78, 127
1, 674407, Note_on_c, 1, 62, 127
1, 674499, Note_off_c, 1, 78, 0
1, 674503, Note_on_c, 1, 76, 127
1, 674585, Note_off_c, 1, 62, 0
1, 674595, Note_off_c, 1, 76, 0
1, 674599, Note_on_c, 1, 78, 127
1, 674599, Note_on_c, 1, 71, 127
1, 674691, Note_off_c, 1, 78, 0
1, 674695, Note_on_c, 1, 76, 127
1, 674777, Note_off_c, 1, 71, 0
1, 674787, Note_off_c, 1, 76, 0
1, 674791, Note_on_c, 1, 74, 127
1, 674791, Note_on_c, 1, 62, 127
1, 674883, Note_off_c, 1, 74, 0
1, 674887, Note_on_c, 1, 76, 127
1, 674969, Note_off_c, 1, 62, 0
1, 674979, Note_off_c, 1, 76, 0
1, 674983, Note_on_c, 1, 78, 127
1, 674983, Note_on_c, 1, 69, 127
1, 675161, Note_off_c, 1, 78, 0
1, 675161, Note_off_c, 1, 69, 0
1, 675175, Note_on_c, 1, 74, 127
1, 675175, Note_on_c, 1, 62, 127
1, 675353, Note_off_c, 1, 74, 0
1, 675353, Note_off_c, 1, 62, 0
1, 675367, Note_on_c, 1, 76, 127
1, 675367, Note_on_c, 1, 67, 127
1, 675545, Note_off_c, 1, 76, 0
1, 675545, Note_off_c, 1, 67, 0
1, 675559, Note_on_c, 1, 73, 127
1, 675559, Note_on_c, 1, 62, 127
1, 675737, Note_off_c, 1, 73, 0
1, 675737, Note_off_c, 1, 62, 0
1, 675751, Note_on_c, 1, 66, 127
1, 675751, Note_on_c, 1, 74, 127
1, 675929, Note_off_c, 1, 66, 0
1, 675943, Note_on_c, 1, 62, 127
1, 676121, Note_off_c, 1, 62, 0
1, 676126, Note_off_c, 1, 74, 0
1, 676135, Note_on_c, 1, 66, 127
1, 676135, Note_on_c, 1, 69, 127
1, 676313, Note_off_c, 1, 66, 0
1, 676327, Note_on_c, 1, 67, 127
1, 676505, Note_off_c, 1, 67, 0
1, 676510, Note_off_c, 1, 69, 0
1, 676519, Note_on_c, 1, 69, 127
1, 676519, Note_on_c, 1, 78, 127
1, 676697, Note_off_c, 1, 69, 0
1, 676711, Note_on_c, 1, 62, 127
1, 676889, Note_off_c, 1, 62, 0
1, 676894, Note_off_c, 1, 78, 0
1, 676903, Note_on_c, 1, 66, 127
1, 676903, Note_on_c, 1, 78, 127
1, 677081, Note_off_c, 1, 66, 0
1, 677095, Note_on_c, 1, 69, 127
1, 677273, Note_off_c, 1, 69, 0
1, 677278, Note_off_c, 1, 78, 0
1, 677287, Note_on_c, 1, 79, 127
1, 677287, Note_on_c, 1, 74, 127
1, 677379, Note_off_c, 1, 79, 0
1, 677383, Note_on_c, 1, 78, 127
1, 677465, Note_off_c, 1, 74, 0
1, 677475, Note_off_c, 1, 78, 0
1, 677479, Note_on_c, 1, 79, 127
1, 677479, Note_on_c, 1, 62, 127
1, 677571, Note_off_c, 1, 79, 0
1, 677575, Note_on_c, 1, 78, 127
1, 677657, Note_off_c, 1, 62, 0
1, 677667, Note_off_c, 1, 78, 0
1, 677671, Note_on_c, 1, 79, 127
1, 677671, Note_on_c, 1, 72, 127
1, 677763, Note_off_c, 1, 79, 0
1, 677767, Note_on_c, 1, 78, 127
1, 677849, Note_off_c, 1, 72, 0
1, 677859, Note_off_c, 1, 78, 0
1, 677863, Note_on_c, 1, 76, 127
1, 677863, Note_on_c, 1, 62, 127
1, 677955, Note_off_c, 1, 76, 0
1, 677959, Note_on_c, 1, 78, 127
1, 678041, Note_off_c, 1, 62, 0
1, 678051, Note_off_c, 1, 78, 0
1, 678055, Note_on_c, 1, 71, 127
1, 678055, Note_on_c, 1, 79, 127
1, 678233, Note_off_c, 1, 71, 0
1, 678247, Note_on_c, 1, 62, 127
1, 678425, Note_off_c, 1, 62, 0
1, 678430, Note_off_c, 1, 79, 0
1, 678439, Note_on_c, 1, 69, 127
1, 678439, Note_on_c, 1, 78, 127
1, 678617, Note_off_c, 1, 69, 0
1, 678631, Note_on_c, 1, 62, 127
1, 678809, Note_off_c, 1, 62, 0
1, 678814, Note_off_c, 1, 78, 0
1, 678823, Note_on_c, 1, 67, 127
1, 678823, Note_on_c, 1, 76, 127
1, 679001, Note_off_c, 1, 67, 0
1, 679015, Note_on_c, 1, 62, 127
1, 679193, Note_off_c, 1, 62, 0
1, 679198, Note_off_c, 1, 76, 0
1, 679207, Note_on_c, 1, 83, 127
1, 679207, Note_on_c, 1, 66, 127
1, 679385, Note_off_c, 1, 83, 0
1, 679385, Note_off_c, 1, 66, 0
1, 679399, Note_on_c, 1, 81, 127
1, 679399, Note_on_c, 1, 62, 127
1, 679577, Note_off_c, 1, 81, 0
1, 679577, Note_off_c, 1, 62, 0
1, 679591, Note_on_c, 1, 79, 127
1, 679591, Note_on_c, 1, 64, 127
1, 679769, Note_off_c, 1, 79, 0
1, 679769, Note_off_c, 1, 64, 0
1, 679783, Note_on_c, 1, 78, 127
1, 679783, Note_on_c, 1, 62, 127
1, 679961, Note_off_c, 1, 78, 0
1, 679961, Note_off_c, 1, 62, 0
1, 679975, Note_on_c, 1, 76, 127
1, 679975, Note_on_c, 1, 66, 127
1, 680153, Note_off_c, 1, 76, 0
1, 680153, Note_off_c, 1, 66, 0
1, 680167, Note_on_c, 1, 74, 127
1, 680167, Note_on_c, 1, 62, 127
1, 680345, Note_off_c, 1, 74, 0
1, 680345, Note_off_c, 1, 62, 0
1, 680359, Note_on_c, 1, 73, 127
1, 680359, Note_on_c, 1, 67, 127
1, 680537, Note_off_c, 1, 73, 0
1, 680537, Note_off_c, 1, 67, 0
1, 680551, Note_on_c, 1, 71, 127
1, 680551, Note_on_c, 1, 62, 127
1, 680729, Note_off_c, 1, 71, 0
1, 680729, Note_off_c, 1, 62, 0
1, 680743, Note_on_c, 1, 69, 127
1, 680743, Note_on_c, 1, 66, 127
1, 680921, Note_off_c, 1, 69, 0
1, 680921, Note_off_c, 1, 66, 0
1, 680935, Note_on_c, 1, 71, 127
1, 680935, Note_on_c, 1, 62, 127
1, 681113, Note_off_c, 1, 71, 0
1, 681113, Note_off_c, 1, 62, 0
1, 681127, Note_on_c, 1, 73, 127
1, 681127, Note_on_c, 1, 64, 127
1, 681305, Note_off_c, 1, 73, 0
1, 681305, Note_off_c, 1, 64, 0
1, 681319, Note_on_c, 1, 74, 127
1, 681319, Note_on_c, 1, 62, 127
1, 681497, Note_off_c, 1, 74, 0
1, 681497, Note_off_c, 1, 62, 0
1, 681511, Note_on_c, 1, 76, 127
1, 681511, Note_on_c, 1, 67, 127
1, 681689, Note_off_c, 1, 76, 0
1, 681689, Note_off_c, 1, 67, 0
1, 681703, Note_on_c, 1, 73, 127
1, 681703, Note_on_c, 1, 62, 127
1, 681881, Note_off_c, 1, 73, 0
1, 681881, Note_off_c, 1, 62, 0
1, 681895, Note_on_c, 1, 66, 127
1, 681895, Note_on_c, 1, 74, 127
1, 682073, Note_off_c, 1, 66, 0
1, 682087, Note_on_c, 1, 62, 127
1, 682265, Note_off_c, 1, 62, 0
1, 682279, Note_on_c, 1, 64, 127
1, 682457, Note_off_c, 1, 64, 0
1, 682659, Note_off_c, 1, 74, 0
1, 682663, Note_on_c, 1, 66, 127
1, 682663, Note_on_c, 1, 81, 127
1, 682841, Note_off_c, 1, 66, 0
1, 682855, Note_on_c, 1, 62, 127
1, 683033, Note_off_c, 1, 62, 0
1, 683038, Note_off_c, 1, 81, 0
1, 683047, Note_on_c, 1, 66, 127
1, 683047, Note_on_c, 1, 81, 127
1, 683225, Note_off_c, 1, 66, 0
1, 683239, Note_on_c, 1, 69, 127
1, 683417, Note_off_c, 1, 69, 0
1, 683422, Note_off_c, 1, 81, 0
1, 683431, Note_on_c, 1, 83, 127
1, 683431, Note_on_c, 1, 74, 127
1, 683523, Note_off_c, 1, 83, 0
1, 683527, Note_on_c, 1, 81, 127
1, 683609, Note_off_c, 1, 74, 0
1, 683619, Note_off_c, 1, 81, 0
1, 683623, Note_on_c, 1, 83, 127
1, 683623, Note_on_c, 1, 69, 127
1, 683715, Note_off_c, 1, 83, 0
1, 683719, Note_on_c, 1, 81, 127
1, 683801, Note_off_c, 1, 69, 0
1, 683811, Note_off_c, 1, 81, 0
1, 683815, Note_on_c, 1, 83, 127
1, 683815, Note_on_c, 1, 66, 127
1, 683907, Note_off_c, 1, 83, 0
1, 683911, Note_on_c, 1, 81, 127
1, 683993, Note_off_c, 1, 66, 0
1, 684003, Note_off_c, 1, 81, 0
1, 684007, Note_on_c, 1, 79, 127
1, 684007, Note_on_c, 1, 62, 127
1, 684099, Note_off_c, 1, 79, 0
1, 684103, Note_on_c, 1, 81, 127
1, 684185, Note_off_c, 1, 62, 0
1, 684195, Note_off_c, 1, 81, 0
1, 684199, Note_on_c, 1, 83, 127
1, 684199, Note_on_c, 1, 67, 127
1, 684377, Note_off_c, 1, 83, 0
1, 684377, Note_off_c, 1, 67, 0
1, 684391, Note_on_c, 1, 81, 127
1, 684391, Note_on_c, 1, 62, 127
1, 684569, Note_off_c, 1, 81, 0
1, 684569, Note_off_c, 1, 62, 0
1, 684583, Note_on_c, 1, 79, 127
1, 684583, Note_on_c, 1, 69, 127
1, 684761, Note_off_c, 1, 79, 0
1, 684761, Note_off_c, 1, 69, 0
1, 684775, Note_on_c, 1, 78, 127
1, 684775, Note_on_c, 1, 62, 127
1, 684953, Note_off_c, 1, 78, 0
1, 684953, Note_off_c, 1, 62, 0
1, 684967, Note_on_c, 1, 71, 127
1, 684967, Note_on_c, 1, 79, 127
1, 685145, Note_off_c, 1, 71, 0
1, 685159, Note_on_c, 1, 62, 127
1, 685337, Note_off_c, 1, 62, 0
1, 685342, Note_off_c, 1, 79, 0
1, 685351, Note_on_c, 1, 72, 127
1, 685351, Note_on_c, 1, 74, 127
1, 685529, Note_off_c, 1, 72, 0
1, 685543, Note_on_c, 1, 62, 127
1, 685721, Note_off_c, 1, 62, 0
1, 685726, Note_off_c, 1, 74, 0
1, 685735, Note_on_c, 1, 71, 127
1, 685735, Note_on_c, 1, 79, 127
1, 685913, Note_off_c, 1, 71, 0
1, 685927, Note_on_c, 1, 62, 127
1, 686105, Note_off_c, 1, 62, 0
1, 686110, Note_off_c, 1, 79, 0
1, 686119, Note_on_c, 1, 69, 127
1, 686119, Note_on_c, 1, 81, 127
1, 686297, Note_off_c, 1, 69, 0
1, 686311, Note_on_c, 1, 62, 127
1, 686489, Note_off_c, 1, 62, 0
1, 686494, Note_off_c, 1, 81, 0
1, 686503, Note_on_c, 1, 83, 127
1, 686503, Note_on_c, 1, 67, 127
1, 686681, Note_off_c, 1, 83, 0
1, 686681, Note_off_c, 1, 67, 0
1, 686695, Note_on_c, 1, 84, 127
1, 686695, Note_on_c, 1, 62, 127
1, 686873, Note_off_c, 1, 84, 0
1, 686873, Note_off_c, 1, 62, 0
1, 686887, Note_on_c, 1, 83, 127
1, 686887, Note_on_c, 1, 69, 127
1, 687065, Note_off_c, 1, 83, 0
1, 687065, Note_off_c, 1, 69, 0
1, 687079, Note_on_c, 1, 81, 127
1, 687079, Note_on_c, 1, 62, 127
1, 687257, Note_off_c, 1, 81, 0
1, 687257, Note_off_c, 1, 62, 0
1, 687271, Note_on_c, 1, 79, 127
1, 687271, Note_on_c, 1, 71, 127
1, 687449, Note_off_c, 1, 79, 0
1, 687449, Note_off_c, 1, 71, 0
1, 687463, Note_on_c, 1, 78, 127
1, 687463, Note_on_c, 1, 62, 127
1, 687641, Note_off_c, 1, 78, 0
1, 687641, Note_off_c, 1, 62, 0
1, 687655, Note_on_c, 1, 76, 127
1, 687655, Note_on_c, 1, 72, 127
1, 687833, Note_off_c, 1, 76, 0
1, 687833, Note_off_c, 1, 72, 0
1, 687847, Note_on_c, 1, 74, 127
1, 687847, Note_on_c, 1, 62, 127
1, 688025, Note_off_c, 1, 74, 0
1, 688025, Note_off_c, 1, 62, 0
1, 688039, Note_on_c, 1, 71, 127
1, 688039, Note_on_c, 1, 79, 127
1, 688217, Note_off_c, 1, 71, 0
1, 688231, Note_on_c, 1, 62, 127
1, 688409, Note_off_c, 1, 62, 0
1, 688423, Note_on_c, 1, 69, 127
1, 688601, Note_off_c, 1, 69, 0
1, 688803, Note_off_c, 1, 79, 0
1, 688807, Note_on_c, 1, 67, 127
1, 688807, Note_on_c, 1, 76, 127
1, 688985, Note_off_c, 1, 67, 0
1, 688999, Note_on_c, 1, 62, 127
1, 689177, Note_off_c, 1, 62, 0
1, 689182, Note_off_c, 1, 76, 0
1, 689191, Note_on_c, 1, 66, 127
1, 689191, Note_on_c, 1, 76, 127
1, 689369, Note_off_c, 1, 66, 0
1, 689383, Note_on_c, 1, 62, 127
1, 689561, Note_off_c, 1, 62, 0
1, 689566, Note_off_c, 1, 76, 0
1, 689575, Note_on_c, 1, 76, 127
1, 689575, Note_on_c, 1, 67, 127
1, 689667, Note_off_c, 1, 76, 0
1, 689671, Note_on_c, 1, 74, 127
1, 689753, Note_off_c, 1, 67, 0
1, 689763, Note_off_c, 1, 74, 0
1, 689767, Note_on_c, 1, 62, 127
1, 689767, Note_on_c, 1, 76, 127
1, 689945, Note_off_c, 1, 62, 0
1, 689959, Note_on_c, 1, 69, 127
1, 690137, Note_off_c, 1, 69, 0
1, 690142, Note_off_c, 1, 76, 0
1, 690151, Note_on_c, 1, 78, 127
1, 690151, Note_on_c, 1, 62, 127
1, 690329, Note_off_c, 1, 78, 0
1, 690329, Note_off_c, 1, 62, 0
1, 690343, Note_on_c, 1, 79, 127
1, 690343, Note_on_c, 1, 71, 127
1, 690521, Note_off_c, 1, 79, 0
1, 690521, Note_off_c, 1, 71, 0
1, 690535, Note_on_c, 1, 81, 127
1, 690535, Note_on_c, 1, 62, 127
1, 690713, Note_off_c, 1, 81, 0
1, 690713, Note_off_c, 1, 62, 0
1, 690727, Note_on_c, 1, 79, 127
1, 690727, Note_on_c, 1, 69, 127
1, 690905, Note_off_c, 1, 79, 0
1, 690905, Note_off_c, 1, 69, 0
1, 690919, Note_on_c, 1, 78, 127
1, 690919, Note_on_c, 1, 62, 127
1, 691097, Note_off_c, 1, 78, 0
1, 691097, Note_off_c, 1, 62, 0
1, 691111, Note_on_c, 1, 76, 127
1, 691111, Note_on_c, 1, 67, 127
1, 691289, Note_off_c, 1, 76, 0
1, 691289, Note_off_c, 1, 67, 0
1, 691303, Note_on_c, 1, 74, 127
1, 691303, Note_on_c, 1, 62, 127
1, 691481, Note_off_c, 1, 74, 0
1, 691481, Note_off_c, 1, 62, 0
1, 691495, Note_on_c, 1, 73, 127
1, 691495, Note_on_c, 1, 71, 127
1, 691673, Note_off_c, 1, 73, 0
1, 691673, Note_off_c, 1, 71, 0
1, 691687, Note_on_c, 1, 74, 127
1, 691687, Note_on_c, 1, 62, 127
1, 691865, Note_off_c, 1, 74, 0
1, 691865, Note_off_c, 1, 62, 0
1, 691879, Note_on_c, 1, 76, 127
1, 691879, Note_on_c, 1, 69, 127
1, 692057, Note_off_c, 1, 76, 0
1, 692057, Note_off_c, 1, 69, 0
1, 692071, Note_on_c, 1, 78, 127
1, 692071, Note_on_c, 1, 62, 127
1, 692249, Note_off_c, 1, 78, 0
1, 692249, Note_off_c, 1, 62, 0
1, 692263, Note_on_c, 1, 79, 127
1, 692263, Note_on_c, 1, 67, 127
1, 692441, Note_off_c, 1, 79, 0
1, 692441, Note_off_c, 1, 67, 0
1, 692455, Note_on_c, 1, 83, 127
1, 692455, Note_on_c, 1, 62, 127
1, 692633, Note_off_c, 1, 83, 0
1, 692633, Note_off_c, 1, 62, 0
1, 692647, Note_on_c, 1, 81, 127
1, 692647, Note_on_c, 1, 66, 127
1, 692825, Note_off_c, 1, 81, 0
1, 692825, Note_off_c, 1, 66, 0
1, 692839, Note_on_c, 1, 79, 127
1, 692839, Note_on_c, 1, 62, 127
1, 693017, Note_off_c, 1, 79, 0
1, 693017, Note_off_c, 1, 62, 0
1, 693031, Note_on_c, 1, 78, 127
1, 693031, Note_on_c, 1, 67, 127
1, 693209, Note_off_c, 1, 78, 0
1, 693209, Note_off_c, 1, 67, 0
1, 693223, Note_on_c, 1, 76, 127
1, 693223, Note_on_c, 1, 62, 127
1, 693401, Note_off_c, 1, 76, 0
1, 693401, Note_off_c, 1, 62, 0
1, 693415, Note_on_c, 1, 78, 127
1, 693415, Note_on_c, 1, 69, 127
1, 693593, Note_off_c, 1, 78, 0
1, 693593, Note_off_c, 1, 69, 0
1, 693607, Note_on_c, 1, 81, 127
1, 693607, Note_on_c, 1, 62, 127
1, 693785, Note_off_c, 1, 81, 0
1, 693785, Note_off_c, 1, 62, 0
1, 693799, Note_on_c, 1, 78, 127
1, 693799, Note_on_c, 1, 71, 127
1, 693977, Note_off_c, 1, 78, 0
1, 693977, Note_off_c, 1, 71, 0
1, 693991, Note_on_c, 1, 81, 127
1, 693991, Note_on_c, 1, 62, 127
1, 694169, Note_off_c, 1, 81, 0
1, 694169, Note_off_c, 1, 62, 0
1, 694183, Note_on_c, 1, 73, 127
1, 694183, Note_on_c, 1, 76, 127
1, 694361, Note_off_c, 1, 73, 0
1, 694375, Note_on_c, 1, 62, 127
1, 694553, Note_off_c, 1, 62, 0
1, 694567, Note_on_c, 1, 67, 127
1, 694745, Note_off_c, 1, 67, 0
1, 694947, Note_off_c, 1, 76, 0
1, 694951, Note_on_c, 1, 74, 127
1, 694951, Note_on_c, 1, 78, 127
1, 695129, Note_off_c, 1, 74, 0
1, 695143, Note_on_c, 1, 69, 127
1, 695321, Note_off_c, 1, 69, 0
1, 695326, Note_off_c, 1, 78, 0
1, 695335, Note_on_c, 1, 62, 127
1, 695335, Note_on_c, 1, 78, 127
1, 695513, Note_off_c, 1, 62, 0
1, 695527, Note_on_c, 1, 69, 127
1, 695705, Note_off_c, 1, 69, 0
1, 695710, Note_off_c, 1, 78, 0
1, 695719, Note_on_c, 1, 79, 127
1, 695719, Note_on_c, 1, 74, 127
1, 695811, Note_off_c, 1, 79, 0
1, 695815, Note_on_c, 1, 78, 127
1, 695897, Note_off_c, 1, 74, 0
1, 695907, Note_off_c, 1, 78, 0
1, 695911, Note_on_c, 1, 79, 127
1, 695911, Note_on_c, 1, 62, 127
1, 696003, Note_off_c, 1, 79, 0
1, 696007, Note_on_c, 1, 78, 127
1, 696089, Note_off_c, 1, 62, 0
1, 696099, Note_off_c, 1, 78, 0
1, 696103, Note_on_c, 1, 79, 127
1, 696103, Note_on_c, 1, 72, 127
1, 696195, Note_off_c, 1, 79, 0
1, 696199, Note_on_c, 1, 78, 127
1, 696281, Note_off_c, 1, 72, 0
1, 696291, Note_off_c, 1, 78, 0
1, 696295, Note_on_c, 1, 76, 127
1, 696295, Note_on_c, 1, 62, 127
1, 696387, Note_off_c, 1, 76, 0
1, 696391, Note_on_c, 1, 78, 127
1, 696473, Note_off_c, 1, 62, 0
1, 696483, Note_off_c, 1, 78, 0
1, 696487, Note_on_c, 1, 71, 127
1, 696487, Note_on_c, 1, 79, 127
1, 696665, Note_off_c, 1, 71, 0
1, 696679, Note_on_c, 1, 62, 127
1, 696857, Note_off_c, 1, 62, 0
1, 696862, Note_off_c, 1, 79, 0
1, 696871, Note_on_c, 1, 69, 127
1, 696871, Note_on_c, 1, 78, 127
1, 697049, Note_off_c, 1, 69, 0
1, 697063, Note_on_c, 1, 62, 127
1, 697241, Note_off_c, 1, 62, 0
1, 697246, Note_off_c, 1, 78, 0
1, 697255, Note_on_c, 1, 67, 127
1, 697255, Note_on_c, 1, 76, 127
1, 697433, Note_off_c, 1, 67, 0
1, 697447, Note_on_c, 1, 62, 127
1, 697625, Note_off_c, 1, 62, 0
1, 697639, Note_on_c, 1, 66, 127
1, 697817, Note_off_c, 1, 66, 0
1, 698019, Note_off_c, 1, 76, 0
1, 698023, Note_on_c, 1, 67, 127
1, 698023, Note_on_c, 1, 76, 127
1, 698201, Note_off_c, 1, 67, 0
1, 698215, Note_on_c, 1, 62, 127
1, 698393, Note_off_c, 1, 62, 0
1, 698398, Note_off_c, 1, 76, 0
1, 698407, Note_on_c, 1, 64, 127
1, 698407, Note_on_c, 1, 76, 127
1, 698585, Note_off_c, 1, 64, 0
1, 698599, Note_on_c, 1, 67, 127
1, 698777, Note_off_c, 1, 67, 0
1, 698782, Note_off_c, 1, 76, 0
1, 698791, Note_on_c, 1, 78, 127
1, 698791, Note_on_c, 1, 73, 127
1, 698883, Note_off_c, 1, 78, 0
1, 698887, Note_on_c, 1, 76, 127
1, 698969, Note_off_c, 1, 73, 0
1, 698979, Note_off_c, 1, 76, 0
1, 698983, Note_on_c, 1, 78, 127
1, 698983, Note_on_c, 1, 62, 127
1, 699075, Note_off_c, 1, 78, 0
1, 699079, Note_on_c, 1, 76, 127
1, 699161, Note_off_c, 1, 62, 0
1, 699171, Note_off_c, 1, 76, 0
1, 699175, Note_on_c, 1, 78, 127
1, 699175, Note_on_c, 1, 71, 127
1, 699267, Note_off_c, 1, 78, 0
1, 699271, Note_on_c, 1, 76, 127
1, 699353, Note_off_c, 1, 71, 0
1, 699363, Note_off_c, 1, 76, 0
1, 699367, Note_on_c, 1, 74, 127
1, 699367, Note_on_c, 1, 62, 127
1, 699459, Note_off_c, 1, 74, 0
1, 699463, Note_on_c, 1, 76, 127
1, 699545, Note_off_c, 1, 62, 0
1, 699555, Note_off_c, 1, 76, 0
1, 699559, Note_on_c, 1, 78, 127
1, 699559, Note_on_c, 1, 69, 127
1, 699737, Note_off_c, 1, 78, 0
1, 699737, Note_off_c, 1, 69, 0
1, 699751, Note_on_c, 1, 74, 127
1, 699751, Note_on_c, 1, 62, 127
1, 699929, Note_off_c, 1, 74, 0
1, 699929, Note_off_c, 1, 62, 0
1, 699943, Note_on_c, 1, 76, 127
1, 699943, Note_on_c, 1, 67, 127
1, 700121, Note_off_c, 1, 76, 0
1, 700121, Note_off_c, 1, 67, 0
1, 700135, Note_on_c, 1, 73, 127
1, 700135, Note_on_c, 1, 62, 127
1, 700313, Note_off_c, 1, 73, 0
1, 700313, Note_off_c, 1, 62, 0
1, 700327, Note_on_c, 1, 74, 127
1, 700327, Note_on_c, 1, 66, 127
1, 700505, Note_off_c, 1, 74, 0
1, 700505, Note_off_c, 1, 66, 0
1, 700519, Note_on_c, 1, 69, 127
1, 700519, Note_on_c, 1, 62, 127
1, 700697, Note_off_c, 1, 69, 0
1, 700697, Note_off_c, 1, 62, 0
1, 700711, Note_on_c, 1, 74, 127
1, 700711, Note_on_c, 1, 66, 127
1, 700889, Note_off_c, 1, 74, 0
1, 700889, Note_off_c, 1, 66, 0
1, 700903, Note_on_c, 1, 76, 127
1, 700903, Note_on_c, 1, 67, 127
1, 701081, Note_off_c, 1, 76, 0
1, 701081, Note_off_c, 1, 67, 0
1, 701095, Note_on_c, 1, 69, 127
1, 701095, Note_on_c, 1, 78, 127
1, 701273, Note_off_c, 1, 69, 0
1, 701287, Note_on_c, 1, 62, 127
1, 701465, Note_off_c, 1, 62, 0
1, 701470, Note_off_c, 1, 78, 0
1, 701479, Note_on_c, 1, 66, 127
1, 701479, Note_on_c, 1, 78, 127
1, 701657, Note_off_c, 1, 66, 0
1, 701671, Note_on_c, 1, 69, 127
1, 701849, Note_off_c, 1, 69, 0
1, 701854, Note_off_c, 1, 78, 0
1, 701863, Note_on_c, 1, 79, 127
1, 701863, Note_on_c, 1, 74, 127
1, 701955, Note_off_c, 1, 79, 0
1, 701959, Note_on_c, 1, 78, 127
1, 702041, Note_off_c, 1, 74, 0
1, 702051, Note_off_c, 1, 78, 0
1, 702055, Note_on_c, 1, 79, 127
1, 702055, Note_on_c, 1, 62, 127
1, 702147, Note_off_c, 1, 79, 0
1, 702151, Note_on_c, 1, 78, 127
1, 702233, Note_off_c, 1, 62, 0
1, 702243, Note_off_c, 1, 78, 0
1, 702247, Note_on_c, 1, 79, 127
1, 702247, Note_on_c, 1, 69, 127
1, 702339, Note_off_c, 1, 79, 0
1, 702343, Note_on_c, 1, 78, 127
1, 702425, Note_off_c, 1, 69, 0
1, 702435, Note_off_c, 1, 78, 0
1, 702439, Note_on_c, 1, 76, 127
1, 702439, Note_on_c, 1, 62, 127
1, 702531, Note_off_c, 1, 76, 0
1, 702535, Note_on_c, 1, 78, 127
1, 702617, Note_off_c, 1, 62, 0
1, 702627, Note_off_c, 1, 78, 0
1, 702631, Note_on_c, 1, 79, 127
1, 702631, Note_on_c, 1, 71, 127
1, 702809, Note_off_c, 1, 79, 0
1, 702809, Note_off_c, 1, 71, 0
1, 702823, Note_on_c, 1, 78, 127
1, 702823, Note_on_c, 1, 62, 127
1, 703001, Note_off_c, 1, 78, 0
1, 703001, Note_off_c, 1, 62, 0
1, 703015, Note_on_c, 1, 76, 127
1, 703015, Note_on_c, 1, 66, 127
1, 703193, Note_off_c, 1, 76, 0
1, 703193, Note_off_c, 1, 66, 0
1, 703207, Note_on_c, 1, 74, 127
1, 703207, Note_on_c, 1, 62, 127
1, 703385, Note_off_c, 1, 74, 0
1, 703385, Note_off_c, 1, 62, 0
1, 703399, Note_on_c, 1, 83, 127
1, 703399, Note_on_c, 1, 68, 127
1, 703577, Note_off_c, 1, 83, 0
1, 703577, Note_off_c, 1, 68, 0
1, 703591, Note_on_c, 1, 81, 127
1, 703591, Note_on_c, 1, 62, 127
1, 703769, Note_off_c, 1, 81, 0
1, 703769, Note_off_c, 1, 62, 0
1, 703783, Note_on_c, 1, 80, 127
1, 703783, Note_on_c, 1, 69, 127
1, 703961, Note_off_c, 1, 80, 0
1, 703961, Note_off_c, 1, 69, 0
1, 703975, Note_on_c, 1, 78, 127
1, 703975, Note_on_c, 1, 62, 127
1, 704153, Note_off_c, 1, 78, 0
1, 704153, Note_off_c, 1, 62, 0
1, 704167, Note_on_c, 1, 80, 127
1, 704167, Note_on_c, 1, 71, 127
1, 704345, Note_off_c, 1, 80, 0
1, 704345, Note_off_c, 1, 71, 0
1, 704359, Note_on_c, 1, 81, 127
1, 704359, Note_on_c, 1, 62, 127
1, 704537, Note_off_c, 1, 81, 0
1, 704537, Note_off_c, 1, 62, 0
1, 704551, Note_on_c, 1, 83, 127
1, 704551, Note_on_c, 1, 74, 127
1, 704729, Note_off_c, 1, 83, 0
1, 704729, Note_off_c, 1, 74, 0
1, 704743, Note_on_c, 1, 80, 127
1, 704743, Note_on_c, 1, 62, 127
1, 704921, Note_off_c, 1, 80, 0
1, 704921, Note_off_c, 1, 62, 0
1, 704935, Note_on_c, 1, 81, 127
1, 704935, Note_on_c, 1, 73, 127
1, 705126, Note_off_c, 1, 81, 0
1, 705126, Note_off_c, 1, 73, 0
1, 705130, Note_on_c, 1, 78, 127
1, 705130, Note_on_c, 1, 62, 127
1, 705321, Note_off_c, 1, 78, 0
1, 705321, Note_off_c, 1, 62, 0
1, 705325, Note_on_c, 1, 76, 127
1, 705325, Note_on_c, 1, 71, 127
1, 705516, Note_off_c, 1, 76, 0
1, 705516, Note_off_c, 1, 71, 0
1, 705520, Note_on_c, 1, 74, 127
1, 705520, Note_on_c, 1, 62, 127
1, 705711, Note_off_c, 1, 74, 0
1, 705711, Note_off_c, 1, 62, 0
1, 705715, Note_on_c, 1, 73, 127
1, 705715, Note_on_c, 1, 69, 127
1, 705917, Note_off_c, 1, 73, 0
1, 705917, Note_off_c, 1, 69, 0
1, 705921, Note_on_c, 1, 71, 127
1, 705921, Note_on_c, 1, 62, 127
1, 706123, Note_off_c, 1, 71, 0
1, 706123, Note_off_c, 1, 62, 0
1, 706127, Note_on_c, 1, 73, 127
1, 706127, Note_on_c, 1, 67, 127
1, 706344, Note_off_c, 1, 73, 0
1, 706344, Note_off_c, 1, 67, 0
1, 706365, Note_on_c, 1, 69, 127
1, 706365, Note_on_c, 1, 62, 127
1, 706590, Note_off_c, 1, 69, 0
1, 706590, Note_off_c, 1, 62, 0
1, 706627, Note_on_c, 1, 66, 127
1, 706627, Note_on_c, 1, 62, 127
1, 706627, Note_on_c, 1, 74, 127
1, 708724, Note_off_c, 1, 66, 0
1, 708724, Note_off_c, 1, 62, 0
1, 708724, Note_off_c, 1, 74, 0
1, 710579, Note_on_c, 1, 62, 127
1, 710715, Note_off_c, 1, 62, 0
1, 710716, Note_on_c, 1, 61, 127
1, 710852, Note_off_c, 1, 61, 0
1, 710853, Note_on_c, 1, 62, 127
1, 710989, Note_off_c, 1, 62, 0
1, 710990, Note_on_c, 1, 64, 127
1, 711126, Note_off_c, 1, 64, 0
1, 711127, Note_on_c, 1, 61, 127
1, 711263, Note_off_c, 1, 61, 0
1, 711264, Note_on_c, 1, 62, 127
1, 711400, Note_off_c, 1, 62, 0
1, 711401, Note_on_c, 1, 65, 127
1, 711537, Note_off_c, 1, 65, 0
1, 711538, Note_on_c, 1, 61, 127
1, 711674, Note_off_c, 1, 61, 0
1, 711675, Note_on_c, 1, 62, 127
1, 711811, Note_off_c, 1, 62, 0
1, 711812, Note_on_c, 1, 67, 127
1, 711948, Note_off_c, 1, 67, 0
1, 711949, Note_on_c, 1, 61, 127
1, 712085, Note_off_c, 1, 61, 0
1, 712086, Note_on_c, 1, 62, 127
1, 712222, Note_off_c, 1, 62, 0
1, 712223, Note_on_c, 1, 69, 127
1, 712359, Note_off_c, 1, 69, 0
1, 712360, Note_on_c, 1, 61, 127
1, 712496, Note_off_c, 1, 61, 0
1, 712497, Note_on_c, 1, 62, 127
1, 712633, Note_off_c, 1, 62, 0
1, 712634, Note_on_c, 1, 70, 127
1, 712770, Note_off_c, 1, 70, 0
1, 712771, Note_on_c, 1, 69, 127
1, 712907, Note_off_c, 1, 69, 0
1, 712908, Note_on_c, 1, 67, 127
1, 713044, Note_off_c, 1, 67, 0
1, 713045, Note_on_c, 1, 65, 127
1, 713181, Note_off_c, 1, 65, 0
1, 713182, Note_on_c, 1, 64, 127
1, 713318, Note_off_c, 1, 64, 0
1, 713319, Note_on_c, 1, 62, 127
1, 713455, Note_off_c, 1, 62, 0
1, 713456, Note_on_c, 1, 68, 127
1, 713592, Note_off_c, 1, 68, 0
1, 713593, Note_on_c, 1, 69, 127
1, 713729, Note_off_c, 1, 69, 0
1, 713730, Note_on_c, 1, 71, 127
1, 713866, Note_off_c, 1, 71, 0
1, 713867, Note_on_c, 1, 57, 127
1, 713867, Note_on_c, 1, 72, 127
1, 714003, Note_off_c, 1, 57, 0
1, 714004, Note_on_c, 1, 56, 127
1, 714140, Note_off_c, 1, 56, 0
1, 714231, Note_off_c, 1, 72, 0
1, 714278, Note_on_c, 1, 59, 127
1, 714278, Note_on_c, 1, 68, 127
1, 714414, Note_off_c, 1, 59, 0
1, 714415, Note_on_c, 1, 56, 127
1, 714551, Note_off_c, 1, 56, 0
1, 714552, Note_on_c, 1, 57, 127
1, 714642, Note_off_c, 1, 68, 0
1, 714688, Note_off_c, 1, 57, 0
1, 714689, Note_on_c, 1, 60, 127
1, 714689, Note_on_c, 1, 69, 127
1, 714825, Note_off_c, 1, 60, 0
1, 714826, Note_on_c, 1, 56, 127
1, 714962, Note_off_c, 1, 56, 0
1, 714963, Note_on_c, 1, 57, 127
1, 715053, Note_off_c, 1, 69, 0
1, 715099, Note_off_c, 1, 57, 0
1, 715100, Note_on_c, 1, 62, 127
1, 715100, Note_on_c, 1, 71, 127
1, 715236, Note_off_c, 1, 62, 0
1, 715237, Note_on_c, 1, 56, 127
1, 715373, Note_off_c, 1, 56, 0
1, 715374, Note_on_c, 1, 57, 127
1, 715464, Note_off_c, 1, 71, 0
1, 715510, Note_off_c, 1, 57, 0
1, 715511, Note_on_c, 1, 64, 127
1, 715511, Note_on_c, 1, 72, 127
1, 715647, Note_off_c, 1, 64, 0
1, 715648, Note_on_c, 1, 56, 127
1, 715784, Note_off_c, 1, 56, 0
1, 715785, Note_on_c, 1, 57, 127
1, 715875, Note_off_c, 1, 72, 0
1, 715921, Note_off_c, 1, 57, 0
1, 715922, Note_on_c, 1, 65, 127
1, 715922, Note_on_c, 1, 74, 127
1, 716058, Note_off_c, 1, 65, 0
1, 716058, Note_off_c, 1, 74, 0
1, 716059, Note_on_c, 1, 64, 127
1, 716059, Note_on_c, 1, 76, 127
1, 716195, Note_off_c, 1, 64, 0
1, 716195, Note_off_c, 1, 76, 0
1, 716196, Note_on_c, 1, 62, 127
1, 716196, Note_on_c, 1, 77, 127
1, 716332, Note_off_c, 1, 62, 0
1, 716332, Note_off_c, 1, 77, 0
1, 716333, Note_on_c, 1, 60, 127
1, 716333, Note_on_c, 1, 76, 127
1, 716469, Note_off_c, 1, 60, 0
1, 716469, Note_off_c, 1, 76, 0
1, 716470, Note_on_c, 1, 59, 127
1, 716470, Note_on_c, 1, 74, 127
1, 716606, Note_off_c, 1, 59, 0
1, 716606, Note_off_c, 1, 74, 0
1, 716607, Note_on_c, 1, 57, 127
1, 716607, Note_on_c, 1, 72, 127
1, 716743, Note_off_c, 1, 57, 0
1, 716743, Note_off_c, 1, 72, 0
1, 716744, Note_on_c, 1, 63, 127
1, 716744, Note_on_c, 1, 72, 127
1, 716880, Note_off_c, 1, 63, 0
1, 716880, Note_off_c, 1, 72, 0
1, 716881, Note_on_c, 1, 64, 127
1, 716881, Note_on_c, 1, 71, 127
1, 717017, Note_off_c, 1, 64, 0
1, 717017, Note_off_c, 1, 71, 0
1, 717018, Note_on_c, 1, 66, 127
1, 717018, Note_on_c, 1, 69, 127
1, 717154, Note_off_c, 1, 66, 0
1, 717154, Note_off_c, 1, 69, 0
1, 717155, Note_on_c, 1, 69, 127
1, 717155, Note_on_c, 1, 64, 127
1, 717291, Note_off_c, 1, 69, 0
1, 717292, Note_on_c, 1, 67, 127
1, 717428, Note_off_c, 1, 67, 0
1, 717429, Note_on_c, 1, 66, 127
1, 717519, Note_off_c, 1, 64, 0
1, 717565, Note_off_c, 1, 66, 0
1, 717566, Note_on_c, 1, 67, 127
1, 717566, Note_on_c, 1, 63, 127
1, 717634, Note_off_c, 1, 67, 0
1, 717635, Note_on_c, 1, 66, 127
1, 717703, Note_off_c, 1, 63, 0
1, 717703, Note_off_c, 1, 66, 0
1, 717704, Note_on_c, 1, 67, 127
1, 717704, Note_on_c, 1, 62, 127
1, 717772, Note_off_c, 1, 67, 0
1, 717773, Note_on_c, 1, 66, 127
1, 717841, Note_off_c, 1, 62, 0
1, 717841, Note_off_c, 1, 66, 0
1, 717842, Note_on_c, 1, 64, 127
1, 717842, Note_on_c, 1, 60, 127
1, 717910, Note_off_c, 1, 64, 0
1, 717911, Note_on_c, 1, 66, 127
1, 717979, Note_off_c, 1, 60, 0
1, 717979, Note_off_c, 1, 66, 0
1, 717980, Note_on_c, 1, 58, 127
1, 717980, Note_on_c, 1, 67, 127
1, 718116, Note_off_c, 1, 58, 0
1, 718116, Note_off_c, 1, 67, 0
1, 718117, Note_on_c, 1, 57, 127
1, 718117, Note_on_c, 1, 69, 127
1, 718253, Note_off_c, 1, 57, 0
1, 718253, Note_off_c, 1, 69, 0
1, 718254, Note_on_c, 1, 55, 127
1, 718254, Note_on_c, 1, 70, 127
1, 718390, Note_off_c, 1, 55, 0
1, 718390, Note_off_c, 1, 70, 0
1, 718391, Note_on_c, 1, 61, 127
1, 718391, Note_on_c, 1, 70, 127
1, 718527, Note_off_c, 1, 61, 0
1, 718527, Note_off_c, 1, 70, 0
1, 718528, Note_on_c, 1, 62, 127
1, 718528, Note_on_c, 1, 69, 127
1, 718664, Note_off_c, 1, 62, 0
1, 718664, Note_off_c, 1, 69, 0
1, 718665, Note_on_c, 1, 64, 127
1, 718665, Note_on_c, 1, 67, 127
1, 718801, Note_off_c, 1, 64, 0
1, 718801, Note_off_c, 1, 67, 0
1, 718802, Note_on_c, 1, 50, 127
1, 718802, Note_on_c, 1, 65, 127
1, 718802, Note_on_c, 1, 69, 127
1, 718938, Note_off_c, 1, 50, 0
1, 718939, Note_on_c, 1, 49, 127
1, 719075, Note_off_c, 1, 49, 0
1, 719166, Note_off_c, 1, 65, 0
1, 719213, Note_on_c, 1, 52, 127
1, 719213, Note_on_c, 1, 61, 127
1, 719349, Note_off_c, 1, 52, 0
1, 719577, Note_off_c, 1, 61, 0
1, 719624, Note_on_c, 1, 53, 127
1, 719624, Note_on_c, 1, 62, 127
1, 719760, Note_off_c, 1, 53, 0
1, 719988, Note_off_c, 1, 62, 0
1, 720035, Note_on_c, 1, 55, 127
1, 720035, Note_on_c, 1, 64, 127
1, 720171, Note_off_c, 1, 55, 0
1, 720399, Note_off_c, 1, 64, 0
1, 720446, Note_on_c, 1, 57, 127
1, 720582, Note_off_c, 1, 57, 0
1, 720856, Note_off_c, 1, 69, 0
1, 720857, Note_on_c, 1, 58, 127
1, 720857, Note_on_c, 1, 67, 127
1, 720993, Note_off_c, 1, 58, 0
1, 720993, Note_off_c, 1, 67, 0
1, 720994, Note_on_c, 1, 57, 127
1, 720994, Note_on_c, 1, 69, 127
1, 721130, Note_off_c, 1, 57, 0
1, 721130, Note_off_c, 1, 69, 0
1, 721131, Note_on_c, 1, 55, 127
1, 721131, Note_on_c, 1, 70, 127
1, 721267, Note_off_c, 1, 55, 0
1, 721267, Note_off_c, 1, 70, 0
1, 721268, Note_on_c, 1, 53, 127
1, 721268, Note_on_c, 1, 69, 127
1, 721404, Note_off_c, 1, 53, 0
1, 721404, Note_off_c, 1, 69, 0
1, 721405, Note_on_c, 1, 52, 127
1, 721405, Note_on_c, 1, 67, 127
1, 721541, Note_off_c, 1, 52, 0
1, 721541, Note_off_c, 1, 67, 0
1, 721542, Note_on_c, 1, 50, 127
1, 721542, Note_on_c, 1, 65, 127
1, 721678, Note_off_c, 1, 50, 0
1, 721678, Note_off_c, 1, 65, 0
1, 721679, Note_on_c, 1, 56, 127
1, 721679, Note_on_c, 1, 65, 127
1, 721815, Note_off_c, 1, 56, 0
1, 721815, Note_off_c, 1, 65, 0
1, 721816, Note_on_c, 1, 57, 127
1, 721816, Note_on_c, 1, 64, 127
1, 721952, Note_off_c, 1, 57, 0
1, 721952, Note_off_c, 1, 64, 0
1, 721953, Note_on_c, 1, 59, 127
1, 721953, Note_on_c, 1, 62, 127
1, 722089, Note_off_c, 1, 59, 0
1, 722089, Note_off_c, 1, 62, 0
1, 722090, Note_on_c, 1, 69, 127
1, 722090, Note_on_c, 1, 60, 127
1, 722090, Note_on_c, 1, 64, 127
1, 722226, Note_off_c, 1, 69, 0
1, 722227, Note_on_c, 1, 68, 127
1, 722363, Note_off_c, 1, 68, 0
1, 722454, Note_off_c, 1, 60, 0
1, 722501, Note_on_c, 1, 71, 127
1, 722501, Note_on_c, 1, 56, 127
1, 722637, Note_off_c, 1, 71, 0
1, 722865, Note_off_c, 1, 56, 0
1, 722912, Note_on_c, 1, 72, 127
1, 722912, Note_on_c, 1, 57, 127
1, 723048, Note_off_c, 1, 72, 0
1, 723276, Note_off_c, 1, 57, 0
1, 723323, Note_on_c, 1, 74, 127
1, 723323, Note_on_c, 1, 59, 127
1, 723459, Note_off_c, 1, 74, 0
1, 723687, Note_off_c, 1, 59, 0
1, 723734, Note_on_c, 1, 76, 127
1, 723870, Note_off_c, 1, 76, 0
1, 724144, Note_off_c, 1, 64, 0
1, 724145, Note_on_c, 1, 77, 127
1, 724145, Note_on_c, 1, 59, 127
1, 724145, Note_on_c, 1, 68, 127
1, 724281, Note_off_c, 1, 77, 0
1, 724282, Note_on_c, 1, 76, 127
1, 724418, Note_off_c, 1, 76, 0
1, 724419, Note_on_c, 1, 74, 127
1, 724509, Note_off_c, 1, 59, 0
1, 724509, Note_off_c, 1, 68, 0
1, 724555, Note_off_c, 1, 74, 0
1, 724556, Note_on_c, 1, 73, 127
1, 724556, Note_on_c, 1, 57, 127
1, 724556, Note_on_c, 1, 67, 127
1, 724692, Note_off_c, 1, 73, 0
1, 724693, Note_on_c, 1, 71, 127
1, 724829, Note_off_c, 1, 71, 0
1, 724830, Note_on_c, 1, 69, 127
1, 724920, Note_off_c, 1, 57, 0
1, 724920, Note_off_c, 1, 67, 0
1, 724966, Note_off_c, 1, 69, 0
1, 724967, Note_on_c, 1, 75, 127
1, 724967, Note_on_c, 1, 60, 127
1, 724967, Note_on_c, 1, 66, 127
1, 725103, Note_off_c, 1, 75, 0
1, 725104, Note_on_c, 1, 76, 127
1, 725240, Note_off_c, 1, 76, 0
1, 725241, Note_on_c, 1, 78, 127
1, 725331, Note_off_c, 1, 60, 0
1, 725331, Note_off_c, 1, 66, 0
1, 725377, Note_off_c, 1, 78, 0
1, 725378, Note_on_c, 1, 79, 127
1, 725378, Note_on_c, 1, 58, 127
1, 725378, Note_on_c, 1, 64, 127
1, 725514, Note_off_c, 1, 79, 0
1, 725515, Note_on_c, 1, 81, 127
1, 725651, Note_off_c, 1, 81, 0
1, 725652, Note_on_c, 1, 82, 127
1, 725742, Note_off_c, 1, 58, 0
1, 725742, Note_off_c, 1, 64, 0
1, 725788, Note_off_c, 1, 82, 0
1, 725789, Note_on_c, 1, 75, 127
1, 725789, Note_on_c, 1, 57, 127
1, 725789, Note_on_c, 1, 66, 127
1, 725925, Note_off_c, 1, 75, 0
1, 725926, Note_on_c, 1, 74, 127
1, 726062, Note_off_c, 1, 74, 0
1, 726063, Note_on_c, 1, 72, 127
1, 726153, Note_off_c, 1, 57, 0
1, 726153, Note_off_c, 1, 66, 0
1, 726199, Note_off_c, 1, 72, 0
1, 726200, Note_on_c, 1, 71, 127
1, 726200, Note_on_c, 1, 55, 127
1, 726200, Note_on_c, 1, 65, 127
1, 726336, Note_off_c, 1, 71, 0
1, 726337, Note_on_c, 1, 69, 127
1, 726473, Note_off_c, 1, 69, 0
1, 726474, Note_on_c, 1, 67, 127
1, 726564, Note_off_c, 1, 55, 0
1, 726564, Note_off_c, 1, 65, 0
1, 726610, Note_off_c, 1, 67, 0
1, 726611, Note_on_c, 1, 73, 127
1, 726611, Note_on_c, 1, 57, 127
1, 726611, Note_on_c, 1, 64, 127
1, 726747, Note_off_c, 1, 73, 0
1, 726748, Note_on_c, 1, 74, 127
1, 726884, Note_off_c, 1, 74, 0
1, 726885, Note_on_c, 1, 76, 127
1, 726975, Note_off_c, 1, 57, 0
1, 726975, Note_off_c, 1, 64, 0
1, 727021, Note_off_c, 1, 76, 0
1, 727022, Note_on_c, 1, 77, 127
1, 727022, Note_on_c, 1, 62, 127
1, 727022, Note_on_c, 1, 50, 127
1, 727158, Note_off_c, 1, 77, 0
1, 727159, Note_on_c, 1, 79, 127
1, 727295, Note_off_c, 1, 79, 0
1, 727296, Note_on_c, 1, 81, 127
1, 727386, Note_off_c, 1, 62, 0
1, 727433, Note_on_c, 1, 70, 127
1, 727548, Note_off_c, 1, 81, 0
1, 727571, Note_on_c, 1, 78, 127
1, 727707, Note_off_c, 1, 78, 0
1, 727798, Note_off_c, 1, 70, 0
1, 727845, Note_on_c, 1, 69, 127
1, 727983, Note_on_c, 1, 76, 127
1, 728119, Note_off_c, 1, 76, 0
1, 728210, Note_off_c, 1, 69, 0
1, 728257, Note_on_c, 1, 67, 127
1, 728395, Note_on_c, 1, 74, 127
1, 728531, Note_off_c, 1, 74, 0
1, 728622, Note_off_c, 1, 67, 0
1, 728669, Note_on_c, 1, 65, 127
1, 728807, Note_on_c, 1, 73, 127
1, 728943, Note_off_c, 1, 73, 0
1, 729034, Note_off_c, 1, 65, 0
1, 729081, Note_on_c, 1, 66, 127
1, 729219, Note_on_c, 1, 71, 127
1, 729355, Note_off_c, 1, 71, 0
1, 729356, Note_on_c, 1, 72, 127
1, 729446, Note_off_c, 1, 66, 0
1, 729608, Note_off_c, 1, 72, 0
1, 729905, Note_on_c, 1, 61, 127
1, 730270, Note_off_c, 1, 61, 0
1, 730316, Note_off_c, 1, 50, 0
1, 730317, Note_on_c, 1, 38, 127
1, 730317, Note_on_c, 1, 65, 127
1, 730317, Note_on_c, 1, 57, 127
1, 730453, Note_off_c, 1, 38, 0
1, 730454, Note_on_c, 1, 37, 127
1, 730590, Note_off_c, 1, 37, 0
1, 730681, Note_off_c, 1, 65, 0
1, 730728, Note_on_c, 1, 40, 127
1, 730728, Note_on_c, 1, 61, 127
1, 730864, Note_off_c, 1, 40, 0
1, 731092, Note_off_c, 1, 61, 0
1, 731139, Note_on_c, 1, 41, 127
1, 731139, Note_on_c, 1, 62, 127
1, 731275, Note_off_c, 1, 41, 0
1, 731503, Note_off_c, 1, 62, 0
1, 731550, Note_on_c, 1, 43, 127
1, 731550, Note_on_c, 1, 64, 127
1, 731686, Note_off_c, 1, 43, 0
1, 731914, Note_off_c, 1, 64, 0
1, 731961, Note_on_c, 1, 45, 127
1, 732097, Note_off_c, 1, 45, 0
1, 732371, Note_off_c, 1, 57, 0
1, 732372, Note_on_c, 1, 46, 127
1, 732372, Note_on_c, 1, 64, 127
1, 732372, Note_on_c, 1, 73, 127
1, 732508, Note_off_c, 1, 46, 0
1, 732509, Note_on_c, 1, 45, 127
1, 732645, Note_off_c, 1, 45, 0
1, 732646, Note_on_c, 1, 43, 127
1, 732736, Note_off_c, 1, 64, 0
1, 732736, Note_off_c, 1, 73, 0
1, 732782, Note_off_c, 1, 43, 0
1, 732783, Note_on_c, 1, 42, 127
1, 732783, Note_on_c, 1, 62, 127
1, 732783, Note_on_c, 1, 72, 127
1, 732919, Note_off_c, 1, 42, 0
1, 732920, Note_on_c, 1, 40, 127
1, 733056, Note_off_c, 1, 40, 0
1, 733057, Note_on_c, 1, 38, 127
1, 733147, Note_off_c, 1, 62, 0
1, 733147, Note_off_c, 1, 72, 0
1, 733193, Note_off_c, 1, 38, 0
1, 733194, Note_on_c, 1, 44, 127
1, 733194, Note_on_c, 1, 65, 127
1, 733194, Note_on_c, 1, 71, 127
1, 733330, Note_off_c, 1, 44, 0
1, 733331, Note_on_c, 1, 45, 127
1, 733467, Note_off_c, 1, 45, 0
1, 733468, Note_on_c, 1, 47, 127
1, 733558, Note_off_c, 1, 65, 0
1, 733558, Note_off_c, 1, 71, 0
1, 733604, Note_off_c, 1, 47, 0
1, 733605, Note_on_c, 1, 48, 127
1, 733605, Note_on_c, 1, 63, 127
1, 733605, Note_on_c, 1, 69, 127
1, 733741, Note_off_c, 1, 48, 0
1, 733742, Note_on_c, 1, 50, 127
1, 733878, Note_off_c, 1, 50, 0
1, 733879, Note_on_c, 1, 51, 127
1, 733969, Note_off_c, 1, 63, 0
1, 733969, Note_off_c, 1, 69, 0
1, 734015, Note_off_c, 1, 51, 0
1, 734016, Note_on_c, 1, 44, 127
1, 734016, Note_on_c, 1, 62, 127
1, 734016, Note_on_c, 1, 71, 127
1, 734152, Note_off_c, 1, 44, 0
1, 734153, Note_on_c, 1, 43, 127
1, 734289, Note_off_c, 1, 43, 0
1, 734290, Note_on_c, 1, 41, 127
1, 734380, Note_off_c, 1, 62, 0
1, 734380, Note_off_c, 1, 71, 0
1, 734426, Note_off_c, 1, 41, 0
1, 734427, Note_on_c, 1, 40, 127
1, 734427, Note_on_c, 1, 60, 127
1, 734427, Note_on_c, 1, 70, 127
1, 734563, Note_off_c, 1, 40, 0
1, 734564, Note_on_c, 1, 38, 127
1, 734700, Note_off_c, 1, 38, 0
1, 734701, Note_on_c, 1, 36, 127
1, 734791, Note_off_c, 1, 60, 0
1, 734791, Note_off_c, 1, 70, 0
1, 734837, Note_off_c, 1, 36, 0
1, 734838, Note_on_c, 1, 42, 127
1, 734838, Note_on_c, 1, 63, 127
1, 734838, Note_on_c, 1, 69, 127
1, 734974, Note_off_c, 1, 42, 0
1, 734975, Note_on_c, 1, 43, 127
1, 735111, Note_off_c, 1, 43, 0
1, 735112, Note_on_c, 1, 45, 127
1, 735202, Note_off_c, 1, 63, 0
1, 735202, Note_off_c, 1, 69, 0
1, 735248, Note_off_c, 1, 45, 0
1, 735249, Note_on_c, 1, 46, 127
1, 735249, Note_on_c, 1, 67, 127
1, 735249, Note_on_c, 1, 62, 127
1, 735385, Note_off_c, 1, 46, 0
1, 735386, Note_on_c, 1, 45, 127
1, 735522, Note_off_c, 1, 45, 0
1, 735523, Note_on_c, 1, 43, 127
1, 735613, Note_off_c, 1, 67, 0
1, 735659, Note_off_c, 1, 43, 0
1, 735660, Note_on_c, 1, 49, 127
1, 735660, Note_on_c, 1, 69, 127
1, 735796, Note_off_c, 1, 49, 0
1, 735796, Note_off_c, 1, 69, 0
1, 735797, Note_on_c, 1, 50, 127
1, 735797, Note_on_c, 1, 71, 127
1, 735933, Note_off_c, 1, 50, 0
1, 735933, Note_off_c, 1, 71, 0
1, 735934, Note_on_c, 1, 52, 127
1, 735934, Note_on_c, 1, 73, 127
1, 736070, Note_off_c, 1, 52, 0
1, 736070, Note_off_c, 1, 73, 0
1, 736071, Note_on_c, 1, 53, 127
1, 736071, Note_on_c, 1, 74, 127
1, 736207, Note_off_c, 1, 53, 0
1, 736207, Note_off_c, 1, 74, 0
1, 736208, Note_on_c, 1, 76, 127
1, 736344, Note_off_c, 1, 76, 0
1, 736345, Note_on_c, 1, 77, 127
1, 736481, Note_off_c, 1, 77, 0
1, 736482, Note_on_c, 1, 56, 127
1, 736618, Note_off_c, 1, 56, 0
1, 736619, Note_on_c, 1, 57, 127
1, 736755, Note_off_c, 1, 57, 0
1, 736756, Note_on_c, 1, 59, 127
1, 736892, Note_off_c, 1, 59, 0
1, 736893, Note_on_c, 1, 60, 127
1, 737030, Note_on_c, 1, 75, 127
1, 737166, Note_off_c, 1, 75, 0
1, 737303, Note_off_c, 1, 62, 0
1, 737304, Note_on_c, 1, 78, 127
1, 737440, Note_off_c, 1, 78, 0
1, 737714, Note_off_c, 1, 60, 0
1, 737715, Note_on_c, 1, 80, 127
1, 737715, Note_on_c, 1, 59, 127
1, 737715, Note_on_c, 1, 62, 127
1, 737851, Note_off_c, 1, 80, 0
1, 737852, Note_on_c, 1, 75, 127
1, 737988, Note_off_c, 1, 75, 0
1, 737989, Note_on_c, 1, 76, 127
1, 738079, Note_off_c, 1, 59, 0
1, 738079, Note_off_c, 1, 62, 0
1, 738125, Note_off_c, 1, 76, 0
1, 738126, Note_on_c, 1, 81, 127
1, 738126, Note_on_c, 1, 57, 127
1, 738126, Note_on_c, 1, 60, 127
1, 738262, Note_off_c, 1, 81, 0
1, 738263, Note_on_c, 1, 75, 127
1, 738399, Note_off_c, 1, 75, 0
1, 738400, Note_on_c, 1, 76, 127
1, 738490, Note_off_c, 1, 57, 0
1, 738490, Note_off_c, 1, 60, 0
1, 738536, Note_off_c, 1, 76, 0
1, 738537, Note_on_c, 1, 83, 127
1, 738537, Note_on_c, 1, 56, 127
1, 738537, Note_on_c, 1, 59, 127
1, 738673, Note_off_c, 1, 83, 0
1, 738674, Note_on_c, 1, 75, 127
1, 738810, Note_off_c, 1, 75, 0
1, 738811, Note_on_c, 1, 76, 127
1, 738901, Note_off_c, 1, 56, 0
1, 738901, Note_off_c, 1, 59, 0
1, 738947, Note_off_c, 1, 76, 0
1, 738948, Note_on_c, 1, 84, 127
1, 738948, Note_on_c, 1, 54, 127
1, 738948, Note_on_c, 1, 63, 127
1, 739084, Note_off_c, 1, 84, 0
1, 739085, Note_on_c, 1, 83, 127
1, 739221, Note_off_c, 1, 83, 0
1, 739222, Note_on_c, 1, 81, 127
1, 739312, Note_off_c, 1, 54, 0
1, 739312, Note_off_c, 1, 63, 0
1, 739358, Note_off_c, 1, 81, 0
1, 739359, Note_on_c, 1, 80, 127
1, 739359, Note_on_c, 1, 52, 127
1, 739359, Note_on_c, 1, 62, 127
1, 739495, Note_off_c, 1, 80, 0
1, 739496, Note_on_c, 1, 78, 127
1, 739632, Note_off_c, 1, 78, 0
1, 739633, Note_on_c, 1, 76, 127
1, 739723, Note_off_c, 1, 52, 0
1, 739723, Note_off_c, 1, 62, 0
1, 739769, Note_off_c, 1, 76, 0
1, 739770, Note_on_c, 1, 82, 127
1, 739770, Note_on_c, 1, 57, 127
1, 739770, Note_on_c, 1, 61, 127
1, 739906, Note_off_c, 1, 82, 0
1, 739907, Note_on_c, 1, 81, 127
1, 740043, Note_off_c, 1, 81, 0
1, 740044, Note_on_c, 1, 79, 127
1, 740134, Note_off_c, 1, 57, 0
1, 740134, Note_off_c, 1, 61, 0
1, 740180, Note_off_c, 1, 79, 0
1, 740181, Note_on_c, 1, 78, 127
1, 740181, Note_on_c, 1, 50, 127
1, 740181, Note_on_c, 1, 60, 127
1, 740317, Note_off_c, 1, 78, 0
1, 740318, Note_on_c, 1, 76, 127
1, 740454, Note_off_c, 1, 76, 0
1, 740455, Note_on_c, 1, 74, 127
1, 740545, Note_off_c, 1, 50, 0
1, 740545, Note_off_c, 1, 60, 0
1, 740591, Note_off_c, 1, 74, 0
1, 740592, Note_on_c, 1, 77, 127
1, 740592, Note_on_c, 1, 56, 127
1, 740592, Note_on_c, 1, 59, 127
1, 740728, Note_off_c, 1, 77, 0
1, 740729, Note_on_c, 1, 76, 127
1, 740865, Note_off_c, 1, 76, 0
1, 740866, Note_on_c, 1, 74, 127
1, 740956, Note_off_c, 1, 56, 0
1, 740999, Note_off_c, 1, 59, 0
1, 741002, Note_off_c, 1, 74, 0
1, 741003, Note_on_c, 1, 72, 127
1, 741003, Note_on_c, 1, 57, 127
1, 741139, Note_off_c, 1, 72, 0
1, 741140, Note_on_c, 1, 71, 127
1, 741276, Note_off_c, 1, 71, 0
1, 741277, Note_on_c, 1, 69, 127
1, 741367, Note_off_c, 1, 57, 0
1, 741414, Note_on_c, 1, 75, 127
1, 741414, Note_on_c, 1, 54, 127
1, 741550, Note_off_c, 1, 75, 0
1, 741551, Note_on_c, 1, 76, 127
1, 741687, Note_off_c, 1, 76, 0
1, 741688, Note_on_c, 1, 78, 127
1, 741778, Note_off_c, 1, 54, 0
1, 741824, Note_off_c, 1, 69, 0
1, 741825, Note_on_c, 1, 68, 127
1, 741825, Note_on_c, 1, 52, 127
1, 741940, Note_off_c, 1, 78, 0
1, 742100, Note_on_c, 1, 77, 127
1, 742190, Note_off_c, 1, 68, 0
1, 742237, Note_on_c, 1, 67, 127
1, 742352, Note_off_c, 1, 77, 0
1, 742602, Note_off_c, 1, 67, 0
1, 742649, Note_on_c, 1, 66, 127
1, 743014, Note_off_c, 1, 66, 0
1, 743061, Note_on_c, 1, 65, 127
1, 743199, Note_on_c, 1, 73, 127
1, 743335, Note_off_c, 1, 73, 0
1, 743336, Note_on_c, 1, 74, 127
1, 743426, Note_off_c, 1, 65, 0
1, 743473, Note_on_c, 1, 64, 127
1, 743588, Note_off_c, 1, 74, 0
1, 743838, Note_off_c, 1, 64, 0
1, 744297, Note_on_c, 1, 63, 127
1, 744662, Note_off_c, 1, 63, 0
1, 744709, Note_on_c, 1, 62, 127
1, 744984, Note_on_c, 1, 70, 127
1, 745074, Note_off_c, 1, 62, 0
1, 745121, Note_on_c, 1, 61, 127
1, 745236, Note_off_c, 1, 70, 0
1, 745486, Note_off_c, 1, 61, 0
1, 745533, Note_on_c, 1, 60, 127
1, 745898, Note_off_c, 1, 60, 0
1, 745945, Note_on_c, 1, 59, 127
1, 746310, Note_off_c, 1, 59, 0
1, 746768, Note_off_c, 1, 52, 0
1, 746769, Note_on_c, 1, 61, 127
1, 746769, Note_on_c, 1, 69, 127
1, 746769, Note_on_c, 1, 57, 127
1, 746905, Note_off_c, 1, 61, 0
1, 746905, Note_off_c, 1, 69, 0
1, 746906, Note_on_c, 1, 59, 127
1, 746906, Note_on_c, 1, 68, 127
1, 747042, Note_off_c, 1, 59, 0
1, 747042, Note_off_c, 1, 68, 0
1, 747180, Note_on_c, 1, 62, 127
1, 747180, Note_on_c, 1, 71, 127
1, 747316, Note_off_c, 1, 62, 0
1, 747316, Note_off_c, 1, 71, 0
1, 747591, Note_on_c, 1, 64, 127
1, 747591, Note_on_c, 1, 73, 127
1, 747727, Note_off_c, 1, 64, 0
1, 747727, Note_off_c, 1, 73, 0
1, 748002, Note_on_c, 1, 65, 127
1, 748002, Note_on_c, 1, 74, 127
1, 748138, Note_off_c, 1, 65, 0
1, 748138, Note_off_c, 1, 74, 0
1, 748413, Note_on_c, 1, 76, 127
1, 748549, Note_off_c, 1, 76, 0
1, 748824, Note_on_c, 1, 77, 127
1, 748960, Note_off_c, 1, 77, 0
1, 749509, Note_on_c, 1, 80, 127
1, 749645, Note_off_c, 1, 80, 0
1, 749646, Note_on_c, 1, 81, 127
1, 750054, Note_off_c, 1, 81, 0
1, 750057, Note_off_c, 1, 57, 0
1, 750058, Note_on_c, 1, 64, 127
1, 750194, Note_off_c, 1, 64, 0
1, 750195, Note_on_c, 1, 65, 127
1, 750331, Note_off_c, 1, 65, 0
1, 750332, Note_on_c, 1, 64, 127
1, 750468, Note_off_c, 1, 64, 0
1, 750469, Note_on_c, 1, 62, 127
1, 750605, Note_off_c, 1, 62, 0
1, 750606, Note_on_c, 1, 65, 127
1, 750742, Note_off_c, 1, 65, 0
1, 750743, Note_on_c, 1, 64, 127
1, 750879, Note_off_c, 1, 64, 0
1, 750880, Note_on_c, 1, 60, 127
1, 751016, Note_off_c, 1, 60, 0
1, 751017, Note_on_c, 1, 65, 127
1, 751153, Note_off_c, 1, 65, 0
1, 751154, Note_on_c, 1, 64, 127
1, 751290, Note_off_c, 1, 64, 0
1, 751291, Note_on_c, 1, 59, 127
1, 751427, Note_off_c, 1, 59, 0
1, 751428, Note_on_c, 1, 65, 127
1, 751564, Note_off_c, 1, 65, 0
1, 751565, Note_on_c, 1, 64, 127
1, 751701, Note_off_c, 1, 64, 0
1, 751702, Note_on_c, 1, 57, 127
1, 751838, Note_off_c, 1, 57, 0
1, 751839, Note_on_c, 1, 65, 127
1, 751975, Note_off_c, 1, 65, 0
1, 751976, Note_on_c, 1, 64, 127
1, 752112, Note_off_c, 1, 64, 0
1, 752113, Note_on_c, 1, 56, 127
1, 752249, Note_off_c, 1, 56, 0
1, 752250, Note_on_c, 1, 57, 127
1, 752386, Note_off_c, 1, 57, 0
1, 752387, Note_on_c, 1, 59, 127
1, 752523, Note_off_c, 1, 59, 0
1, 752524, Note_on_c, 1, 61, 127
1, 752660, Note_off_c, 1, 61, 0
1, 752661, Note_on_c, 1, 62, 127
1, 752797, Note_off_c, 1, 62, 0
1, 752798, Note_on_c, 1, 64, 127
1, 752934, Note_off_c, 1, 64, 0
1, 752935, Note_on_c, 1, 58, 127
1, 753071, Note_off_c, 1, 58, 0
1, 753072, Note_on_c, 1, 57, 127
1, 753208, Note_off_c, 1, 57, 0
1, 753209, Note_on_c, 1, 55, 127
1, 753345, Note_off_c, 1, 55, 0
1, 753346, Note_on_c, 1, 69, 127
1, 753346, Note_on_c, 1, 53, 127
1, 753482, Note_off_c, 1, 69, 0
1, 753483, Note_on_c, 1, 70, 127
1, 753619, Note_off_c, 1, 70, 0
1, 753710, Note_off_c, 1, 53, 0
1, 753757, Note_on_c, 1, 67, 127
1, 753757, Note_on_c, 1, 58, 127
1, 753893, Note_off_c, 1, 67, 0
1, 753894, Note_on_c, 1, 70, 127
1, 754030, Note_off_c, 1, 70, 0
1, 754031, Note_on_c, 1, 69, 127
1, 754121, Note_off_c, 1, 58, 0
1, 754167, Note_off_c, 1, 69, 0
1, 754168, Note_on_c, 1, 65, 127
1, 754168, Note_on_c, 1, 57, 127
1, 754304, Note_off_c, 1, 65, 0
1, 754305, Note_on_c, 1, 70, 127
1, 754441, Note_off_c, 1, 70, 0
1, 754442, Note_on_c, 1, 69, 127
1, 754532, Note_off_c, 1, 57, 0
1, 754578, Note_off_c, 1, 69, 0
1, 754579, Note_on_c, 1, 64, 127
1, 754579, Note_on_c, 1, 55, 127
1, 754715, Note_off_c, 1, 64, 0
1, 754716, Note_on_c, 1, 70, 127
1, 754852, Note_off_c, 1, 70, 0
1, 754853, Note_on_c, 1, 69, 127
1, 754943, Note_off_c, 1, 55, 0
1, 754989, Note_off_c, 1, 69, 0
1, 754990, Note_on_c, 1, 62, 127
1, 754990, Note_on_c, 1, 53, 127
1, 755126, Note_off_c, 1, 62, 0
1, 755127, Note_on_c, 1, 70, 127
1, 755263, Note_off_c, 1, 70, 0
1, 755264, Note_on_c, 1, 69, 127
1, 755354, Note_off_c, 1, 53, 0
1, 755400, Note_off_c, 1, 69, 0
1, 755401, Note_on_c, 1, 52, 127
1, 755401, Note_on_c, 1, 61, 127
1, 755537, Note_off_c, 1, 52, 0
1, 755537, Note_off_c, 1, 61, 0
1, 755538, Note_on_c, 1, 50, 127
1, 755538, Note_on_c, 1, 62, 127
1, 755674, Note_off_c, 1, 50, 0
1, 755674, Note_off_c, 1, 62, 0
1, 755675, Note_on_c, 1, 49, 127
1, 755675, Note_on_c, 1, 64, 127
1, 755811, Note_off_c, 1, 49, 0
1, 755811, Note_off_c, 1, 64, 0
1, 755812, Note_on_c, 1, 50, 127
1, 755812, Note_on_c, 1, 66, 127
1, 755948, Note_off_c, 1, 50, 0
1, 755948, Note_off_c, 1, 66, 0
1, 755949, Note_on_c, 1, 52, 127
1, 755949, Note_on_c, 1, 67, 127
1, 756085, Note_off_c, 1, 52, 0
1, 756085, Note_off_c, 1, 67, 0
1, 756086, Note_on_c, 1, 54, 127
1, 756086, Note_on_c, 1, 69, 127
1, 756222, Note_off_c, 1, 54, 0
1, 756222, Note_off_c, 1, 69, 0
1, 756223, Note_on_c, 1, 54, 127
1, 756223, Note_on_c, 1, 63, 127
1, 756359, Note_off_c, 1, 54, 0
1, 756359, Note_off_c, 1, 63, 0
1, 756360, Note_on_c, 1, 55, 127
1, 756360, Note_on_c, 1, 62, 127
1, 756496, Note_off_c, 1, 55, 0
1, 756496, Note_off_c, 1, 62, 0
1, 756497, Note_on_c, 1, 57, 127
1, 756497, Note_on_c, 1, 60, 127
1, 756633, Note_off_c, 1, 57, 0
1, 756633, Note_off_c, 1, 60, 0
1, 756634, Note_on_c, 1, 57, 127
1, 756634, Note_on_c, 1, 62, 127
1, 756770, Note_off_c, 1, 57, 0
1, 756771, Note_on_c, 1, 59, 127
1, 756907, Note_off_c, 1, 59, 0
1, 756908, Note_on_c, 1, 60, 127
1, 756998, Note_off_c, 1, 62, 0
1, 757044, Note_off_c, 1, 60, 0
1, 757045, Note_on_c, 1, 63, 127
1, 757045, Note_on_c, 1, 60, 127
1, 757181, Note_off_c, 1, 63, 0
1, 757182, Note_on_c, 1, 64, 127
1, 757318, Note_off_c, 1, 64, 0
1, 757319, Note_on_c, 1, 66, 127
1, 757409, Note_off_c, 1, 60, 0
1, 757455, Note_off_c, 1, 66, 0
1, 757456, Note_on_c, 1, 59, 127
1, 757456, Note_on_c, 1, 68, 127
1, 757592, Note_off_c, 1, 59, 0
1, 757592, Note_off_c, 1, 68, 0
1, 757593, Note_on_c, 1, 57, 127
1, 757593, Note_on_c, 1, 69, 127
1, 757729, Note_off_c, 1, 57, 0
1, 757729, Note_off_c, 1, 69, 0
1, 757730, Note_on_c, 1, 56, 127
1, 757730, Note_on_c, 1, 71, 127
1, 757866, Note_off_c, 1, 56, 0
1, 757866, Note_off_c, 1, 71, 0
1, 757867, Note_on_c, 1, 56, 127
1, 757867, Note_on_c, 1, 65, 127
1, 758003, Note_off_c, 1, 56, 0
1, 758003, Note_off_c, 1, 65, 0
1, 758004, Note_on_c, 1, 57, 127
1, 758004, Note_on_c, 1, 64, 127
1, 758140, Note_off_c, 1, 57, 0
1, 758140, Note_off_c, 1, 64, 0
1, 758141, Note_on_c, 1, 59, 127
1, 758141, Note_on_c, 1, 62, 127
1, 758277, Note_off_c, 1, 59, 0
1, 758277, Note_off_c, 1, 62, 0
1, 758278, Note_on_c, 1, 76, 127
1, 758278, Note_on_c, 1, 60, 127
1, 758278, Note_on_c, 1, 57, 127
1, 758414, Note_off_c, 1, 76, 0
1, 758415, Note_on_c, 1, 77, 127
1, 758551, Note_off_c, 1, 77, 0
1, 758642, Note_off_c, 1, 60, 0
1, 758689, Note_on_c, 1, 74, 127
1, 758689, Note_on_c, 1, 65, 127
1, 758825, Note_off_c, 1, 74, 0
1, 759053, Note_off_c, 1, 65, 0
1, 759100, Note_on_c, 1, 72, 127
1, 759100, Note_on_c, 1, 64, 127
1, 759236, Note_off_c, 1, 72, 0
1, 759464, Note_off_c, 1, 64, 0
1, 759511, Note_on_c, 1, 71, 127
1, 759511, Note_on_c, 1, 62, 127
1, 759647, Note_off_c, 1, 71, 0
1, 759875, Note_off_c, 1, 62, 0
1, 759922, Note_on_c, 1, 69, 127
1, 760058, Note_off_c, 1, 69, 0
1, 760332, Note_off_c, 1, 57, 0
1, 760333, Note_on_c, 1, 59, 127
1, 760333, Note_on_c, 1, 68, 127
1, 760469, Note_off_c, 1, 59, 0
1, 760469, Note_off_c, 1, 68, 0
1, 760470, Note_on_c, 1, 57, 127
1, 760470, Note_on_c, 1, 69, 127
1, 760606, Note_off_c, 1, 57, 0
1, 760606, Note_off_c, 1, 69, 0
1, 760607, Note_on_c, 1, 56, 127
1, 760607, Note_on_c, 1, 71, 127
1, 760743, Note_off_c, 1, 56, 0
1, 760743, Note_off_c, 1, 71, 0
1, 760744, Note_on_c, 1, 57, 127
1, 760744, Note_on_c, 1, 73, 127
1, 760880, Note_off_c, 1, 57, 0
1, 760880, Note_off_c, 1, 73, 0
1, 760881, Note_on_c, 1, 59, 127
1, 760881, Note_on_c, 1, 74, 127
1, 761017, Note_off_c, 1, 59, 0
1, 761017, Note_off_c, 1, 74, 0
1, 761018, Note_on_c, 1, 61, 127
1, 761018, Note_on_c, 1, 76, 127
1, 761154, Note_off_c, 1, 61, 0
1, 761154, Note_off_c, 1, 76, 0
1, 761155, Note_on_c, 1, 61, 127
1, 761155, Note_on_c, 1, 70, 127
1, 761291, Note_off_c, 1, 61, 0
1, 761291, Note_off_c, 1, 70, 0
1, 761292, Note_on_c, 1, 62, 127
1, 761292, Note_on_c, 1, 69, 127
1, 761428, Note_off_c, 1, 62, 0
1, 761428, Note_off_c, 1, 69, 0
1, 761429, Note_on_c, 1, 64, 127
1, 761429, Note_on_c, 1, 67, 127
1, 761565, Note_off_c, 1, 64, 0
1, 761565, Note_off_c, 1, 67, 0
1, 761566, Note_on_c, 1, 50, 127
1, 761566, Note_on_c, 1, 65, 127
1, 761566, Note_on_c, 1, 62, 127
1, 761702, Note_off_c, 1, 50, 0
1, 761703, Note_on_c, 1, 51, 127
1, 761839, Note_off_c, 1, 51, 0
1, 761930, Note_off_c, 1, 65, 0
1, 761977, Note_on_c, 1, 48, 127
1, 761977, Note_on_c, 1, 66, 127
1, 762113, Note_off_c, 1, 48, 0
1, 762341, Note_off_c, 1, 66, 0
1, 762388, Note_on_c, 1, 46, 127
1, 762388, Note_on_c, 1, 67, 127
1, 762524, Note_off_c, 1, 46, 0
1, 762752, Note_off_c, 1, 67, 0
1, 762799, Note_on_c, 1, 45, 127
1, 762799, Note_on_c, 1, 69, 127
1, 762935, Note_off_c, 1, 45, 0
1, 763163, Note_off_c, 1, 69, 0
1, 763210, Note_on_c, 1, 43, 127
1, 763210, Note_on_c, 1, 70, 127
1, 763346, Note_off_c, 1, 43, 0
1, 763574, Note_off_c, 1, 70, 0
1, 763620, Note_off_c, 1, 62, 0
1, 763621, Note_on_c, 1, 42, 127
1, 763621, Note_on_c, 1, 63, 127
1, 763621, Note_on_c, 1, 72, 127
1, 763757, Note_off_c, 1, 42, 0
1, 763758, Note_on_c, 1, 43, 127
1, 763894, Note_off_c, 1, 43, 0
1, 763895, Note_on_c, 1, 45, 127
1, 763985, Note_off_c, 1, 63, 0
1, 763985, Note_off_c, 1, 72, 0
1, 764031, Note_off_c, 1, 45, 0
1, 764032, Note_on_c, 1, 47, 127
1, 764032, Note_on_c, 1, 65, 127
1, 764032, Note_on_c, 1, 74, 127
1, 764168, Note_off_c, 1, 47, 0
1, 764169, Note_on_c, 1, 48, 127
1, 764305, Note_off_c, 1, 48, 0
1, 764306, Note_on_c, 1, 50, 127
1, 764396, Note_off_c, 1, 65, 0
1, 764396, Note_off_c, 1, 74, 0
1, 764442, Note_off_c, 1, 50, 0
1, 764443, Note_on_c, 1, 44, 127
1, 764443, Note_on_c, 1, 62, 127
1, 764443, Note_on_c, 1, 71, 127
1, 764579, Note_off_c, 1, 44, 0
1, 764580, Note_on_c, 1, 43, 127
1, 764716, Note_off_c, 1, 43, 0
1, 764717, Note_on_c, 1, 41, 127
1, 764807, Note_off_c, 1, 62, 0
1, 764807, Note_off_c, 1, 71, 0
1, 764853, Note_off_c, 1, 41, 0
1, 764854, Note_on_c, 1, 40, 127
1, 764854, Note_on_c, 1, 67, 127
1, 764854, Note_on_c, 1, 73, 127
1, 764990, Note_off_c, 1, 40, 0
1, 764991, Note_on_c, 1, 38, 127
1, 765127, Note_off_c, 1, 38, 0
1, 765128, Note_on_c, 1, 37, 127
1, 765218, Note_off_c, 1, 67, 0
1, 765218, Note_off_c, 1, 73, 0
1, 765264, Note_off_c, 1, 37, 0
1, 765265, Note_on_c, 1, 44, 127
1, 765265, Note_on_c, 1, 65, 127
1, 765265, Note_on_c, 1, 74, 127
1, 765401, Note_off_c, 1, 44, 0
1, 765402, Note_on_c, 1, 45, 127
1, 765538, Note_off_c, 1, 45, 0
1, 765539, Note_on_c, 1, 47, 127
1, 765629, Note_off_c, 1, 65, 0
1, 765629, Note_off_c, 1, 74, 0
1, 765675, Note_off_c, 1, 47, 0
1, 765676, Note_on_c, 1, 49, 127
1, 765676, Note_on_c, 1, 67, 127
1, 765676, Note_on_c, 1, 76, 127
1, 765812, Note_off_c, 1, 49, 0
1, 765813, Note_on_c, 1, 50, 127
1, 765949, Note_off_c, 1, 50, 0
1, 765950, Note_on_c, 1, 52, 127
1, 766040, Note_off_c, 1, 67, 0
1, 766040, Note_off_c, 1, 76, 0
1, 766086, Note_off_c, 1, 52, 0
1, 766087, Note_on_c, 1, 46, 127
1, 766087, Note_on_c, 1, 64, 127
1, 766087, Note_on_c, 1, 73, 127
1, 766223, Note_off_c, 1, 46, 0
1, 766224, Note_on_c, 1, 45, 127
1, 766360, Note_off_c, 1, 45, 0
1, 766361, Note_on_c, 1, 43, 127
1, 766451, Note_off_c, 1, 64, 0
1, 766451, Note_off_c, 1, 73, 0
1, 766497, Note_off_c, 1, 43, 0
1, 766498, Note_on_c, 1, 42, 127
1, 766498, Note_on_c, 1, 69, 127
1, 766498, Note_on_c, 1, 74, 127
1, 766634, Note_off_c, 1, 42, 0
1, 766635, Note_on_c, 1, 40, 127
1, 766771, Note_off_c, 1, 40, 0
1, 766772, Note_on_c, 1, 38, 127
1, 766862, Note_off_c, 1, 69, 0
1, 766909, Note_on_c, 1, 48, 127
1, 767024, Note_off_c, 1, 38, 0
1, 767274, Note_off_c, 1, 48, 0
1, 767321, Note_on_c, 1, 50, 127
1, 767459, Note_on_c, 1, 43, 127
1, 767595, Note_off_c, 1, 43, 0
1, 767686, Note_off_c, 1, 50, 0
1, 767733, Note_on_c, 1, 52, 127
1, 767871, Note_on_c, 1, 45, 127
1, 768007, Note_off_c, 1, 45, 0
1, 768098, Note_off_c, 1, 52, 0
1, 768145, Note_on_c, 1, 54, 127
1, 768283, Note_on_c, 1, 46, 127
1, 768419, Note_off_c, 1, 46, 0
1, 768510, Note_off_c, 1, 54, 0
1, 768557, Note_on_c, 1, 53, 127
1, 768832, Note_on_c, 1, 47, 127
1, 768922, Note_off_c, 1, 53, 0
1, 769084, Note_off_c, 1, 47, 0
1, 769244, Note_on_c, 1, 49, 127
1, 769381, Note_on_c, 1, 58, 127
1, 769496, Note_off_c, 1, 49, 0
1, 769746, Note_off_c, 1, 58, 0
1, 769792, Note_off_c, 1, 74, 0
1, 769793, Note_on_c, 1, 81, 127
1, 769793, Note_on_c, 1, 53, 127
1, 769793, Note_on_c, 1, 57, 127
1, 769929, Note_off_c, 1, 81, 0
1, 769930, Note_on_c, 1, 82, 127
1, 770066, Note_off_c, 1, 82, 0
1, 770157, Note_off_c, 1, 53, 0
1, 770157, Note_off_c, 1, 57, 0
1, 770204, Note_on_c, 1, 79, 127
1, 770204, Note_on_c, 1, 58, 127
1, 770204, Note_on_c, 1, 62, 127
1, 770340, Note_off_c, 1, 79, 0
1, 770341, Note_on_c, 1, 82, 127
1, 770477, Note_off_c, 1, 82, 0
1, 770478, Note_on_c, 1, 81, 127
1, 770568, Note_off_c, 1, 58, 0
1, 770614, Note_off_c, 1, 81, 0
1, 770615, Note_on_c, 1, 77, 127
1, 770615, Note_on_c, 1, 57, 127
1, 770751, Note_off_c, 1, 77, 0
1, 770979, Note_off_c, 1, 57, 0
1, 771026, Note_on_c, 1, 76, 127
1, 771026, Note_on_c, 1, 55, 127
1, 771162, Note_off_c, 1, 76, 0
1, 771390, Note_off_c, 1, 55, 0
1, 771437, Note_on_c, 1, 74, 127
1, 771437, Note_on_c, 1, 53, 127
1, 771573, Note_off_c, 1, 74, 0
1, 771801, Note_off_c, 1, 53, 0
1, 771847, Note_off_c, 1, 62, 0
1, 771848, Note_on_c, 1, 73, 127
1, 771848, Note_on_c, 1, 55, 127
1, 771848, Note_on_c, 1, 58, 127
1, 771984, Note_off_c, 1, 73, 0
1, 771985, Note_on_c, 1, 74, 127
1, 772121, Note_off_c, 1, 74, 0
1, 772122, Note_on_c, 1, 76, 127
1, 772212, Note_off_c, 1, 55, 0
1, 772212, Note_off_c, 1, 58, 0
1, 772258, Note_off_c, 1, 76, 0
1, 772259, Note_on_c, 1, 78, 127
1, 772259, Note_on_c, 1, 57, 127
1, 772259, Note_on_c, 1, 60, 127
1, 772395, Note_off_c, 1, 78, 0
1, 772396, Note_on_c, 1, 79, 127
1, 772532, Note_off_c, 1, 79, 0
1, 772533, Note_on_c, 1, 81, 127
1, 772623, Note_off_c, 1, 57, 0
1, 772623, Note_off_c, 1, 60, 0
1, 772669, Note_off_c, 1, 81, 0
1, 772670, Note_on_c, 1, 75, 127
1, 772670, Note_on_c, 1, 54, 127
1, 772670, Note_on_c, 1, 57, 127
1, 772806, Note_off_c, 1, 75, 0
1, 772807, Note_on_c, 1, 74, 127
1, 772943, Note_off_c, 1, 74, 0
1, 772944, Note_on_c, 1, 72, 127
1, 773034, Note_off_c, 1, 54, 0
1, 773034, Note_off_c, 1, 57, 0
1, 773080, Note_off_c, 1, 72, 0
1, 773081, Note_on_c, 1, 71, 127
1, 773081, Note_on_c, 1, 56, 127
1, 773081, Note_on_c, 1, 62, 127
1, 773217, Note_off_c, 1, 71, 0
1, 773218, Note_on_c, 1, 69, 127
1, 773354, Note_off_c, 1, 69, 0
1, 773355, Note_on_c, 1, 68, 127
1, 773445, Note_off_c, 1, 56, 0
1, 773445, Note_off_c, 1, 62, 0
1, 773491, Note_off_c, 1, 68, 0
1, 773492, Note_on_c, 1, 75, 127
1, 773492, Note_on_c, 1, 57, 127
1, 773492, Note_on_c, 1, 60, 127
1, 773628, Note_off_c, 1, 75, 0
1, 773629, Note_on_c, 1, 76, 127
1, 773765, Note_off_c, 1, 76, 0
1, 773766, Note_on_c, 1, 78, 127
1, 773856, Note_off_c, 1, 57, 0
1, 773856, Note_off_c, 1, 60, 0
1, 773902, Note_off_c, 1, 78, 0
1, 773903, Note_on_c, 1, 80, 127
1, 773903, Note_on_c, 1, 59, 127
1, 773903, Note_on_c, 1, 62, 127
1, 774039, Note_off_c, 1, 80, 0
1, 774040, Note_on_c, 1, 81, 127
1, 774176, Note_off_c, 1, 81, 0
1, 774177, Note_on_c, 1, 83, 127
1, 774267, Note_off_c, 1, 59, 0
1, 774267, Note_off_c, 1, 62, 0
1, 774313, Note_off_c, 1, 83, 0
1, 774314, Note_on_c, 1, 77, 127
1, 774314, Note_on_c, 1, 56, 127
1, 774314, Note_on_c, 1, 59, 127
1, 774450, Note_off_c, 1, 77, 0
1, 774451, Note_on_c, 1, 76, 127
1, 774587, Note_off_c, 1, 76, 0
1, 774588, Note_on_c, 1, 74, 127
1, 774678, Note_off_c, 1, 56, 0
1, 774678, Note_off_c, 1, 59, 0
1, 774724, Note_off_c, 1, 74, 0
1, 774725, Note_on_c, 1, 73, 127
1, 774725, Note_on_c, 1, 57, 127
1, 774725, Note_on_c, 1, 64, 127
1, 774861, Note_off_c, 1, 73, 0
1, 774862, Note_on_c, 1, 74, 127
1, 774998, Note_off_c, 1, 74, 0
1, 774999, Note_on_c, 1, 76, 127
1, 775089, Note_off_c, 1, 57, 0
1, 775089, Note_off_c, 1, 64, 0
1, 775135, Note_off_c, 1, 76, 0
1, 775136, Note_on_c, 1, 45, 127
1, 775136, Note_on_c, 1, 70, 127
1, 775272, Note_off_c, 1, 45, 0
1, 775272, Note_off_c, 1, 70, 0
1, 775273, Note_on_c, 1, 47, 127
1, 775273, Note_on_c, 1, 69, 127
1, 775409, Note_off_c, 1, 47, 0
1, 775409, Note_off_c, 1, 69, 0
1, 775410, Note_on_c, 1, 49, 127
1, 775410, Note_on_c, 1, 67, 127
1, 775546, Note_off_c, 1, 49, 0
1, 775546, Note_off_c, 1, 67, 0
1, 775547, Note_on_c, 1, 50, 127
1, 775547, Note_on_c, 1, 66, 127
1, 775683, Note_off_c, 1, 50, 0
1, 775683, Note_off_c, 1, 66, 0
1, 775684, Note_on_c, 1, 52, 127
1, 775684, Note_on_c, 1, 67, 127
1, 775820, Note_off_c, 1, 52, 0
1, 775820, Note_off_c, 1, 67, 0
1, 775821, Note_on_c, 1, 54, 127
1, 775821, Note_on_c, 1, 69, 127
1, 775957, Note_off_c, 1, 54, 0
1, 775957, Note_off_c, 1, 69, 0
1, 775958, Note_on_c, 1, 56, 127
1, 775958, Note_on_c, 1, 65, 127
1, 776094, Note_off_c, 1, 56, 0
1, 776094, Note_off_c, 1, 65, 0
1, 776095, Note_on_c, 1, 57, 127
1, 776095, Note_on_c, 1, 64, 127
1, 776231, Note_off_c, 1, 57, 0
1, 776231, Note_off_c, 1, 64, 0
1, 776232, Note_on_c, 1, 59, 127
1, 776232, Note_on_c, 1, 62, 127
1, 776368, Note_off_c, 1, 59, 0
1, 776368, Note_off_c, 1, 62, 0
1, 776369, Note_on_c, 1, 45, 127
1, 776369, Note_on_c, 1, 61, 127
1, 776369, Note_on_c, 1, 57, 127
1, 776505, Note_off_c, 1, 45, 0
1, 776506, Note_on_c, 1, 46, 127
1, 776642, Note_off_c, 1, 46, 0
1, 776780, Note_on_c, 1, 43, 127
1, 776916, Note_off_c, 1, 43, 0
1, 777190, Note_off_c, 1, 61, 0
1, 777191, Note_on_c, 1, 41, 127
1, 777191, Note_on_c, 1, 62, 127
1, 777327, Note_off_c, 1, 41, 0
1, 777555, Note_off_c, 1, 62, 0
1, 777602, Note_on_c, 1, 40, 127
1, 777602, Note_on_c, 1, 64, 127
1, 777738, Note_off_c, 1, 40, 0
1, 777966, Note_off_c, 1, 64, 0
1, 778013, Note_on_c, 1, 38, 127
1, 778013, Note_on_c, 1, 65, 127
1, 778149, Note_off_c, 1, 38, 0
1, 778377, Note_off_c, 1, 65, 0
1, 778423, Note_off_c, 1, 57, 0
1, 778424, Note_on_c, 1, 37, 127
1, 778424, Note_on_c, 1, 67, 127
1, 778424, Note_on_c, 1, 70, 127
1, 778560, Note_off_c, 1, 37, 0
1, 778561, Note_on_c, 1, 38, 127
1, 778697, Note_off_c, 1, 38, 0
1, 778698, Note_on_c, 1, 40, 127
1, 778788, Note_off_c, 1, 67, 0
1, 778788, Note_off_c, 1, 70, 0
1, 778834, Note_off_c, 1, 40, 0
1, 778835, Note_on_c, 1, 42, 127
1, 778835, Note_on_c, 1, 62, 127
1, 778835, Note_on_c, 1, 69, 127
1, 778971, Note_off_c, 1, 42, 0
1, 778972, Note_on_c, 1, 43, 127
1, 779108, Note_off_c, 1, 43, 0
1, 779109, Note_on_c, 1, 45, 127
1, 779199, Note_off_c, 1, 62, 0
1, 779199, Note_off_c, 1, 69, 0
1, 779245, Note_off_c, 1, 45, 0
1, 779246, Note_on_c, 1, 39, 127
1, 779246, Note_on_c, 1, 69, 127
1, 779246, Note_on_c, 1, 72, 127
1, 779382, Note_off_c, 1, 39, 0
1, 779383, Note_on_c, 1, 40, 127
1, 779519, Note_off_c, 1, 40, 0
1, 779520, Note_on_c, 1, 42, 127
1, 779610, Note_off_c, 1, 69, 0
1, 779610, Note_off_c, 1, 72, 0
1, 779656, Note_off_c, 1, 42, 0
1, 779657, Note_on_c, 1, 43, 127
1, 779657, Note_on_c, 1, 64, 127
1, 779657, Note_on_c, 1, 71, 127
1, 779793, Note_off_c, 1, 43, 0
1, 779794, Note_on_c, 1, 45, 127
1, 779930, Note_off_c, 1, 45, 0
1, 779931, Note_on_c, 1, 47, 127
1, 780021, Note_off_c, 1, 64, 0
1, 780021, Note_off_c, 1, 71, 0
1, 780067, Note_off_c, 1, 47, 0
1, 780068, Note_on_c, 1, 44, 127
1, 780068, Note_on_c, 1, 77, 127
1, 780068, Note_on_c, 1, 74, 127
1, 780204, Note_off_c, 1, 44, 0
1, 780204, Note_off_c, 1, 77, 0
1, 780205, Note_on_c, 1, 45, 127
1, 780205, Note_on_c, 1, 76, 127
1, 780307, Note_off_c, 1, 74, 0
1, 780341, Note_off_c, 1, 45, 0
1, 780341, Note_off_c, 1, 76, 0
1, 780342, Note_on_c, 1, 47, 127
1, 780342, Note_on_c, 1, 74, 127
1, 780478, Note_off_c, 1, 47, 0
1, 780478, Note_off_c, 1, 74, 0
1, 780479, Note_on_c, 1, 49, 127
1, 780479, Note_on_c, 1, 76, 127
1, 780479, Note_on_c, 1, 69, 127
1, 780615, Note_off_c, 1, 49, 0
1, 780615, Note_off_c, 1, 76, 0
1, 780616, Note_on_c, 1, 50, 127
1, 780616, Note_on_c, 1, 77, 127
1, 780752, Note_off_c, 1, 50, 0
1, 780752, Note_off_c, 1, 77, 0
1, 780753, Note_on_c, 1, 52, 127
1, 780753, Note_on_c, 1, 79, 127
1, 780843, Note_off_c, 1, 69, 0
1, 780889, Note_off_c, 1, 52, 0
1, 780889, Note_off_c, 1, 79, 0
1, 780890, Note_on_c, 1, 46, 127
1, 780890, Note_on_c, 1, 79, 127
1, 780890, Note_on_c, 1, 73, 127
1, 781026, Note_off_c, 1, 46, 0
1, 781026, Note_off_c, 1, 79, 0
1, 781027, Note_on_c, 1, 45, 127
1, 781027, Note_on_c, 1, 81, 127
1, 781163, Note_off_c, 1, 45, 0
1, 781163, Note_off_c, 1, 81, 0
1, 781164, Note_on_c, 1, 43, 127
1, 781164, Note_on_c, 1, 82, 127
1, 781254, Note_off_c, 1, 73, 0
1, 781300, Note_off_c, 1, 43, 0
1, 781300, Note_off_c, 1, 82, 0
1, 781301, Note_on_c, 1, 53, 127
1, 781301, Note_on_c, 1, 74, 127
1, 781301, Note_on_c, 1, 81, 127
1, 781438, Note_on_c, 1, 45, 127
1, 781574, Note_off_c, 1, 45, 0
1, 781575, Note_on_c, 1, 44, 127
1, 781665, Note_off_c, 1, 53, 0
1, 781665, Note_off_c, 1, 74, 0
1, 781712, Note_on_c, 1, 54, 127
1, 781827, Note_off_c, 1, 44, 0
1, 781850, Note_on_c, 1, 46, 127
1, 781986, Note_off_c, 1, 46, 0
1, 782077, Note_off_c, 1, 54, 0
1, 782124, Note_on_c, 1, 55, 127
1, 782489, Note_off_c, 1, 55, 0
1, 782536, Note_on_c, 1, 56, 127
1, 782674, Note_on_c, 1, 48, 127
1, 782810, Note_off_c, 1, 48, 0
1, 782811, Note_on_c, 1, 47, 127
1, 782901, Note_off_c, 1, 56, 0
1, 782948, Note_on_c, 1, 57, 127
1, 783063, Note_off_c, 1, 47, 0
1, 783313, Note_off_c, 1, 57, 0
1, 783360, Note_on_c, 1, 52, 127
1, 783498, Note_on_c, 1, 50, 127
1, 783634, Note_off_c, 1, 50, 0
1, 783635, Note_on_c, 1, 49, 127
1, 783725, Note_off_c, 1, 52, 0
1, 783772, Note_on_c, 1, 58, 127
1, 783887, Note_off_c, 1, 49, 0
1, 784137, Note_off_c, 1, 58, 0
1, 784184, Note_on_c, 1, 59, 127
1, 784459, Note_on_c, 1, 51, 127
1, 784549, Note_off_c, 1, 59, 0
1, 784596, Note_on_c, 1, 60, 127
1, 784711, Note_off_c, 1, 51, 0
1, 784961, Note_off_c, 1, 60, 0
1, 785008, Note_on_c, 1, 61, 127
1, 785373, Note_off_c, 1, 61, 0
1, 785420, Note_on_c, 1, 62, 127
1, 785785, Note_off_c, 1, 62, 0
1, 786380, Note_off_c, 1, 81, 0
1, 786381, Note_on_c, 1, 82, 127
1, 786517, Note_off_c, 1, 82, 0
1, 786655, Note_on_c, 1, 79, 127
1, 786791, Note_off_c, 1, 79, 0
1, 787066, Note_on_c, 1, 77, 127
1, 787202, Note_off_c, 1, 77, 0
1, 787477, Note_on_c, 1, 76, 127
1, 787613, Note_off_c, 1, 76, 0
1, 787888, Note_on_c, 1, 53, 127
1, 787888, Note_on_c, 1, 74, 127
1, 788024, Note_off_c, 1, 53, 0
1, 788024, Note_off_c, 1, 74, 0
1, 788025, Note_on_c, 1, 61, 127
1, 788025, Note_on_c, 1, 82, 127
1, 788161, Note_off_c, 1, 61, 0
1, 788161, Note_off_c, 1, 82, 0
1, 788162, Note_on_c, 1, 62, 127
1, 788162, Note_on_c, 1, 81, 127
1, 788298, Note_off_c, 1, 62, 0
1, 788298, Note_off_c, 1, 81, 0
1, 788299, Note_on_c, 1, 58, 127
1, 788299, Note_on_c, 1, 73, 127
1, 788435, Note_off_c, 1, 58, 0
1, 788435, Note_off_c, 1, 73, 0
1, 788436, Note_on_c, 1, 57, 127
1, 788436, Note_on_c, 1, 74, 127
1, 788572, Note_off_c, 1, 57, 0
1, 788572, Note_off_c, 1, 74, 0
1, 788573, Note_on_c, 1, 55, 127
1, 788573, Note_on_c, 1, 76, 127
1, 788709, Note_off_c, 1, 55, 0
1, 788709, Note_off_c, 1, 76, 0
1, 788710, Note_on_c, 1, 53, 127
1, 788710, Note_on_c, 1, 77, 127
1, 788846, Note_off_c, 1, 53, 0
1, 788846, Note_off_c, 1, 77, 0
1, 788847, Note_on_c, 1, 52, 127
1, 788847, Note_on_c, 1, 79, 127
1, 788983, Note_off_c, 1, 52, 0
1, 788983, Note_off_c, 1, 79, 0
1, 788984, Note_on_c, 1, 50, 127
1, 788984, Note_on_c, 1, 81, 127
1, 789120, Note_off_c, 1, 50, 0
1, 789120, Note_off_c, 1, 81, 0
1, 789121, Note_on_c, 1, 55, 127
1, 789121, Note_on_c, 1, 75, 127
1, 789257, Note_off_c, 1, 55, 0
1, 789257, Note_off_c, 1, 75, 0
1, 789258, Note_on_c, 1, 57, 127
1, 789258, Note_on_c, 1, 74, 127
1, 789394, Note_off_c, 1, 57, 0
1, 789394, Note_off_c, 1, 74, 0
1, 789395, Note_on_c, 1, 58, 127
1, 789395, Note_on_c, 1, 73, 127
1, 789531, Note_off_c, 1, 58, 0
1, 789531, Note_off_c, 1, 73, 0
1, 789532, Note_on_c, 1, 57, 127
1, 789532, Note_on_c, 1, 74, 127
1, 789668, Note_off_c, 1, 57, 0
1, 789668, Note_off_c, 1, 74, 0
1, 789669, Note_on_c, 1, 58, 127
1, 789669, Note_on_c, 1, 73, 127
1, 789805, Note_off_c, 1, 58, 0
1, 789805, Note_off_c, 1, 73, 0
1, 789806, Note_on_c, 1, 57, 127
1, 789806, Note_on_c, 1, 74, 127
1, 789942, Note_off_c, 1, 57, 0
1, 789942, Note_off_c, 1, 74, 0
1, 789943, Note_on_c, 1, 55, 127
1, 789943, Note_on_c, 1, 64, 127
1, 790079, Note_off_c, 1, 55, 0
1, 790079, Note_off_c, 1, 64, 0
1, 790080, Note_on_c, 1, 58, 127
1, 790080, Note_on_c, 1, 73, 127
1, 790216, Note_off_c, 1, 58, 0
1, 790216, Note_off_c, 1, 73, 0
1, 790217, Note_on_c, 1, 57, 127
1, 790217, Note_on_c, 1, 74, 127
1, 790353, Note_off_c, 1, 57, 0
1, 790353, Note_off_c, 1, 74, 0
1, 790354, Note_on_c, 1, 53, 127
1, 790354, Note_on_c, 1, 65, 127
1, 790490, Note_off_c, 1, 53, 0
1, 790490, Note_off_c, 1, 65, 0
1, 790491, Note_on_c, 1, 58, 127
1, 790491, Note_on_c, 1, 73, 127
1, 790627, Note_off_c, 1, 58, 0
1, 790627, Note_off_c, 1, 73, 0
1, 790628, Note_on_c, 1, 57, 127
1, 790628, Note_on_c, 1, 74, 127
1, 790764, Note_off_c, 1, 57, 0
1, 790764, Note_off_c, 1, 74, 0
1, 790765, Note_on_c, 1, 52, 127
1, 790765, Note_on_c, 1, 67, 127
1, 790901, Note_off_c, 1, 52, 0
1, 790901, Note_off_c, 1, 67, 0
1, 790902, Note_on_c, 1, 58, 127
1, 790902, Note_on_c, 1, 73, 127
1, 791038, Note_off_c, 1, 58, 0
1, 791038, Note_off_c, 1, 73, 0
1, 791039, Note_on_c, 1, 57, 127
1, 791039, Note_on_c, 1, 74, 127
1, 791175, Note_off_c, 1, 57, 0
1, 791175, Note_off_c, 1, 74, 0
1, 791176, Note_on_c, 1, 50, 127
1, 791176, Note_on_c, 1, 69, 127
1, 791312, Note_off_c, 1, 50, 0
1, 791312, Note_off_c, 1, 69, 0
1, 791313, Note_on_c, 1, 58, 127
1, 791313, Note_on_c, 1, 73, 127
1, 791449, Note_off_c, 1, 58, 0
1, 791449, Note_off_c, 1, 73, 0
1, 791450, Note_on_c, 1, 57, 127
1, 791450, Note_on_c, 1, 74, 127
1, 791586, Note_off_c, 1, 57, 0
1, 791586, Note_off_c, 1, 74, 0
1, 791587, Note_on_c, 1, 49, 127
1, 791587, Note_on_c, 1, 70, 127
1, 791723, Note_off_c, 1, 49, 0
1, 791723, Note_off_c, 1, 70, 0
1, 791724, Note_on_c, 1, 50, 127
1, 791724, Note_on_c, 1, 69, 127
1, 791860, Note_off_c, 1, 50, 0
1, 791860, Note_off_c, 1, 69, 0
1, 791861, Note_on_c, 1, 52, 127
1, 791861, Note_on_c, 1, 67, 127
1, 791997, Note_off_c, 1, 52, 0
1, 791997, Note_off_c, 1, 67, 0
1, 791998, Note_on_c, 1, 53, 127
1, 791998, Note_on_c, 1, 65, 127
1, 792134, Note_off_c, 1, 53, 0
1, 792134, Note_off_c, 1, 65, 0
1, 792135, Note_on_c, 1, 55, 127
1, 792135, Note_on_c, 1, 64, 127
1, 792271, Note_off_c, 1, 55, 0
1, 792271, Note_off_c, 1, 64, 0
1, 792272, Note_on_c, 1, 57, 127
1, 792272, Note_on_c, 1, 62, 127
1, 792408, Note_off_c, 1, 57, 0
1, 792408, Note_off_c, 1, 62, 0
1, 792409, Note_on_c, 1, 59, 127
1, 792409, Note_on_c, 1, 77, 127
1, 792545, Note_off_c, 1, 59, 0
1, 792545, Note_off_c, 1, 77, 0
1, 792546, Note_on_c, 1, 61, 127
1, 792546, Note_on_c, 1, 76, 127
1, 792682, Note_off_c, 1, 61, 0
1, 792682, Note_off_c, 1, 76, 0
1, 792683, Note_on_c, 1, 62, 127
1, 792683, Note_on_c, 1, 74, 127
1, 792819, Note_off_c, 1, 62, 0
1, 792819, Note_off_c, 1, 74, 0
1, 792820, Note_on_c, 1, 64, 127
1, 792820, Note_on_c, 1, 73, 127
1, 792956, Note_off_c, 1, 64, 0
1, 792956, Note_off_c, 1, 73, 0
1, 792957, Note_on_c, 1, 65, 127
1, 792957, Note_on_c, 1, 71, 127
1, 793093, Note_off_c, 1, 65, 0
1, 793093, Note_off_c, 1, 71, 0
1, 793094, Note_on_c, 1, 67, 127
1, 793094, Note_on_c, 1, 69, 127
1, 793230, Note_off_c, 1, 67, 0
1, 793230, Note_off_c, 1, 69, 0
1, 793231, Note_on_c, 1, 69, 127
1, 793231, Note_on_c, 1, 82, 127
1, 793367, Note_off_c, 1, 69, 0
1, 793367, Note_off_c, 1, 82, 0
1, 793368, Note_on_c, 1, 71, 127
1, 793368, Note_on_c, 1, 81, 127
1, 793504, Note_off_c, 1, 71, 0
1, 793504, Note_off_c, 1, 81, 0
1, 793505, Note_on_c, 1, 73, 127
1, 793505, Note_on_c, 1, 79, 127
1, 793641, Note_off_c, 1, 73, 0
1, 793641, Note_off_c, 1, 79, 0
1, 793642, Note_on_c, 1, 77, 127
1, 793642, Note_on_c, 1, 74, 127
1, 793778, Note_off_c, 1, 77, 0
1, 793779, Note_on_c, 1, 76, 127
1, 793894, Note_off_c, 1, 74, 0
1, 793915, Note_off_c, 1, 76, 0
1, 793916, Note_on_c, 1, 72, 127
1, 793916, Note_on_c, 1, 74, 127
1, 794052, Note_off_c, 1, 72, 0
1, 794052, Note_off_c, 1, 74, 0
1, 794053, Note_on_c, 1, 70, 127
1, 794053, Note_on_c, 1, 79, 127
1, 794189, Note_off_c, 1, 70, 0
1, 794189, Note_off_c, 1, 79, 0
1, 794190, Note_on_c, 1, 69, 127
1, 794190, Note_on_c, 1, 81, 127
1, 794326, Note_off_c, 1, 69, 0
1, 794326, Note_off_c, 1, 81, 0
1, 794327, Note_on_c, 1, 67, 127
1, 794327, Note_on_c, 1, 82, 127
1, 794463, Note_off_c, 1, 67, 0
1, 794464, Note_on_c, 1, 73, 127
1, 794464, Note_on_c, 1, 69, 127
1, 794579, Note_off_c, 1, 82, 0
1, 794602, Note_on_c, 1, 81, 127
1, 794738, Note_off_c, 1, 81, 0
1, 794829, Note_off_c, 1, 73, 0
1, 794876, Note_on_c, 1, 72, 127
1, 795014, Note_on_c, 1, 80, 127
1, 795150, Note_off_c, 1, 80, 0
1, 795241, Note_off_c, 1, 72, 0
1, 795287, Note_off_c, 1, 69, 0
1, 795288, Note_on_c, 1, 71, 127
1, 795288, Note_on_c, 1, 57, 127
1, 795653, Note_off_c, 1, 71, 0
1, 795700, Note_on_c, 1, 70, 127
1, 795838, Note_on_c, 1, 78, 127
1, 795974, Note_off_c, 1, 78, 0
1, 795975, Note_on_c, 1, 79, 127
1, 796065, Note_off_c, 1, 70, 0
1, 796111, Note_off_c, 1, 57, 0
1, 796112, Note_on_c, 1, 45, 127
1, 796227, Note_off_c, 1, 79, 0
1, 796524, Note_on_c, 1, 74, 127
1, 796662, Note_on_c, 1, 76, 127
1, 796798, Note_off_c, 1, 76, 0
1, 796799, Note_on_c, 1, 77, 127
1, 796889, Note_off_c, 1, 74, 0
1, 796936, Note_on_c, 1, 68, 127
1, 797051, Note_off_c, 1, 77, 0
1, 797301, Note_off_c, 1, 68, 0
1, 797623, Note_on_c, 1, 75, 127
1, 797760, Note_on_c, 1, 66, 127
1, 797875, Note_off_c, 1, 75, 0
1, 798125, Note_off_c, 1, 66, 0
1, 798172, Note_on_c, 1, 65, 127
1, 798537, Note_off_c, 1, 65, 0
1, 798584, Note_on_c, 1, 64, 127
1, 798949, Note_off_c, 1, 64, 0
1, 799407, Note_off_c, 1, 45, 0
1, 799408, Note_on_c, 1, 50, 127
1, 799548, Note_off_c, 1, 50, 0
1, 799549, Note_on_c, 1, 51, 127
1, 799689, Note_off_c, 1, 51, 0
1, 799831, Note_on_c, 1, 48, 127
1, 799971, Note_off_c, 1, 48, 0
1, 800254, Note_on_c, 1, 46, 127
1, 800394, Note_off_c, 1, 46, 0
1, 801100, Note_on_c, 1, 43, 127
1, 801100, Note_on_c, 1, 74, 127
1, 801244, Note_off_c, 1, 43, 0
1, 801244, Note_off_c, 1, 74, 0
1, 801245, Note_on_c, 1, 51, 127
1, 801245, Note_on_c, 1, 69, 127
1, 801389, Note_off_c, 1, 51, 0
1, 801389, Note_off_c, 1, 69, 0
1, 801390, Note_on_c, 1, 50, 127
1, 801390, Note_on_c, 1, 70, 127
1, 801534, Note_off_c, 1, 50, 0
1, 801534, Note_off_c, 1, 70, 0
1, 801535, Note_on_c, 1, 42, 127
1, 801535, Note_on_c, 1, 72, 127
1, 801679, Note_off_c, 1, 42, 0
1, 801679, Note_off_c, 1, 72, 0
1, 801680, Note_on_c, 1, 43, 127
1, 801680, Note_on_c, 1, 70, 127
1, 801824, Note_off_c, 1, 43, 0
1, 801824, Note_off_c, 1, 70, 0
1, 801825, Note_on_c, 1, 45, 127
1, 801825, Note_on_c, 1, 69, 127
1, 801969, Note_off_c, 1, 45, 0
1, 801969, Note_off_c, 1, 69, 0
1, 801970, Note_on_c, 1, 46, 127
1, 801970, Note_on_c, 1, 67, 127
1, 802137, Note_off_c, 1, 46, 0
1, 802137, Note_off_c, 1, 67, 0
1, 802154, Note_on_c, 1, 70, 127
1, 802154, Note_on_c, 1, 43, 127
1, 802321, Note_off_c, 1, 70, 0
1, 802321, Note_off_c, 1, 43, 0
1, 802351, Note_on_c, 1, 49, 127
1, 802351, Note_on_c, 1, 64, 127
1, 802542, Note_off_c, 1, 49, 0
1, 802543, Note_off_c, 1, 64, 0
1, 802617, Note_on_c, 1, 62, 127
1, 802617, Note_on_c, 1, 66, 127
1, 802617, Note_on_c, 1, 38, 127
1, 804817, Note_off_c, 1, 62, 0
1, 804817, Note_off_c, 1, 66, 0
1, 804817, Note_off_c, 1, 38, 0
1, 804817, End_track
0, 0, End_of_file