0, 0, Header, 1, 1, 480
1, 0, Start_track
1, 0, Title_t, "Test"
1, 0, Tempo, 500000
1, 0, Instrument_name_t, "Church Organ"
1, 48, Note_on_c, 1, 58, 127
1, 48, Note_on_c, 1, 70, 127
1, 430, Note_off_c, 1, 58, 0
1, 432, Note_on_c, 1, 62, 127
1, 814, Note_off_c, 1, 62, 0
1, 816, Note_on_c, 1, 60, 127
1, 1006, Note_off_c, 1, 70, 0
1, 1198, Note_off_c, 1, 60, 0
1, 1200, Note_on_c, 1, 69, 127
1, 1200, Note_on_c, 1, 58, 127
1, 1390, Note_off_c, 1, 69, 0
1, 1392, Note_on_c, 1, 67, 127
1, 1582, Note_off_c, 1, 58, 0
1, 1582, Note_off_c, 1, 67, 0
1, 1584, Note_on_c, 1, 65, 127
1, 1584, Note_on_c, 1, 57, 127
1, 1966, Note_off_c, 1, 65, 0
1, 1966, Note_off_c, 1, 57, 0
1, 1968, Note_on_c, 1, 67, 127
1, 1968, Note_on_c, 1, 55, 127
1, 2350, Note_off_c, 1, 67, 0
1, 2350, Note_off_c, 1, 55, 0
1, 2352, Note_on_c, 1, 62, 127
1, 2352, Note_on_c, 1, 53, 127
1, 2542, Note_off_c, 1, 62, 0
1, 2544, Note_on_c, 1, 63, 127
1, 2734, Note_off_c, 1, 53, 0
1, 2734, Note_off_c, 1, 63, 0
1, 2736, Note_on_c, 1, 65, 127
1, 2736, Note_on_c, 1, 51, 127
1, 3118, Note_off_c, 1, 65, 0
1, 3118, Note_off_c, 1, 51, 0
1, 3120, Note_on_c, 1, 58, 127
1, 3120, Note_on_c, 1, 50, 127
1, 3310, Note_off_c, 1, 58, 0
1, 3312, Note_on_c, 1, 53, 127
1, 3502, Note_off_c, 1, 53, 0
1, 3504, Note_on_c, 1, 77, 127
1, 3696, Note_on_c, 1, 62, 127
1, 3886, Note_off_c, 1, 50, 0
1, 3886, Note_off_c, 1, 62, 0
1, 3888, Note_on_c, 1, 60, 127
1, 4078, Note_off_c, 1, 77, 0
1, 4080, Note_on_c, 1, 75, 127
1, 4270, Note_off_c, 1, 60, 0
1, 4270, Note_off_c, 1, 75, 0
1, 4272, Note_on_c, 1, 74, 127
1, 4272, Note_on_c, 1, 63, 127
1, 4462, Note_off_c, 1, 74, 0
1, 4464, Note_on_c, 1, 72, 127
1, 4654, Note_off_c, 1, 72, 0
1, 4656, Note_on_c, 1, 70, 127
1, 4656, Note_on_c, 1, 55, 127
1, 5038, Note_off_c, 1, 63, 0
1, 5038, Note_off_c, 1, 70, 0
1, 5232, Note_on_c, 1, 64, 127
1, 5422, Note_off_c, 1, 55, 0
1, 5422, Note_off_c, 1, 64, 0
1, 5424, Note_on_c, 1, 69, 127
1, 5424, Note_on_c, 1, 65, 127
1, 5424, Note_on_c, 1, 60, 127
1, 5614, Note_off_c, 1, 69, 0
1, 5616, Note_on_c, 1, 70, 127
1, 5696, Note_off_c, 1, 65, 0
1, 5698, Note_on_c, 1, 64, 127
1, 5806, Note_off_c, 1, 70, 0
1, 5806, Note_off_c, 1, 64, 0
1, 5808, Note_on_c, 1, 72, 127
1, 6000, Note_on_c, 1, 62, 127
1, 6094, Note_off_c, 1, 62, 0
1, 6188, Note_off_c, 1, 72, 0
1, 6190, Note_off_c, 1, 60, 0
1, 6192, Note_on_c, 1, 65, 127
1, 6192, Note_on_c, 1, 62, 127
1, 6384, Note_on_c, 1, 77, 127
1, 6574, Note_off_c, 1, 77, 0
1, 6576, Note_on_c, 1, 74, 127
1, 6766, Note_off_c, 1, 74, 0
1, 6768, Note_on_c, 1, 70, 127
1, 6958, Note_off_c, 1, 65, 0
1, 6958, Note_off_c, 1, 70, 0
1, 6960, Note_on_c, 1, 75, 127
1, 6960, Note_on_c, 1, 67, 127
1, 7150, Note_off_c, 1, 62, 0
1, 7342, Note_off_c, 1, 75, 0
1, 7342, Note_off_c, 1, 67, 0
1, 7344, Note_on_c, 1, 58, 127
1, 7344, Note_on_c, 1, 70, 127
1, 7344, Note_on_c, 1, 79, 127
1, 7534, Note_off_c, 1, 58, 0
1, 7536, Note_on_c, 1, 55, 127
1, 7726, Note_off_c, 1, 70, 0
1, 7726, Note_off_c, 1, 55, 0
1, 7728, Note_on_c, 1, 63, 127
1, 7728, Note_on_c, 1, 60, 127
1, 7918, Note_off_c, 1, 79, 0
1, 7920, Note_on_c, 1, 75, 127
1, 8110, Note_off_c, 1, 63, 0
1, 8110, Note_off_c, 1, 60, 0
1, 8110, Note_off_c, 1, 75, 0
1, 8112, Note_on_c, 1, 72, 127
1, 8112, Note_on_c, 1, 67, 127
1, 8112, Note_on_c, 1, 63, 127
1, 8302, Note_off_c, 1, 72, 0
1, 8304, Note_on_c, 1, 69, 127
1, 8494, Note_off_c, 1, 67, 0
1, 8686, Note_off_c, 1, 63, 0
1, 8688, Note_on_c, 1, 60, 127
1, 8864, Note_off_c, 1, 69, 0
1, 8878, Note_off_c, 1, 60, 0
1, 8880, Note_on_c, 1, 57, 127
1, 8880, Note_on_c, 1, 77, 127
1, 8880, Note_on_c, 1, 72, 127
1, 9070, Note_off_c, 1, 57, 0
1, 9072, Note_on_c, 1, 53, 127
1, 9262, Note_off_c, 1, 77, 0
1, 9262, Note_off_c, 1, 53, 0
1, 9264, Note_on_c, 1, 74, 127
1, 9264, Note_on_c, 1, 58, 127
1, 9454, Note_off_c, 1, 72, 0
1, 9456, Note_on_c, 1, 65, 127
1, 9646, Note_off_c, 1, 65, 0
1, 9648, Note_on_c, 1, 70, 127
1, 9824, Note_off_c, 1, 74, 0
1, 9838, Note_off_c, 1, 70, 0
1, 10032, Note_on_c, 1, 67, 127
1, 10032, Note_on_c, 1, 76, 127
1, 10222, Note_off_c, 1, 58, 0
1, 10414, Note_off_c, 1, 67, 0
1, 10608, Note_on_c, 1, 55, 127
1, 10798, Note_off_c, 1, 76, 0
1, 10798, Note_off_c, 1, 55, 0
1, 10800, Note_on_c, 1, 77, 127
1, 10800, Note_on_c, 1, 69, 127
1, 10800, Note_on_c, 1, 53, 127
1, 11182, Note_off_c, 1, 77, 0
1, 11182, Note_off_c, 1, 69, 0
1, 11182, Note_off_c, 1, 53, 0
1, 11184, Note_on_c, 1, 62, 127
1, 11184, Note_on_c, 1, 55, 127
1, 11184, Note_on_c, 1, 70, 127
1, 11374, Note_off_c, 1, 62, 0
1, 11376, Note_on_c, 1, 63, 127
1, 11566, Note_off_c, 1, 55, 0
1, 11566, Note_off_c, 1, 63, 0
1, 11568, Note_on_c, 1, 65, 127
1, 11568, Note_on_c, 1, 50, 127
1, 11758, Note_off_c, 1, 65, 0
1, 11758, Note_off_c, 1, 50, 0
1, 11760, Note_on_c, 1, 67, 127
1, 11760, Note_on_c, 1, 51, 127
1, 11950, Note_off_c, 1, 70, 0
1, 11950, Note_off_c, 1, 67, 0
1, 11950, Note_off_c, 1, 51, 0
1, 11952, Note_on_c, 1, 63, 127
1, 11952, Note_on_c, 1, 53, 127
1, 11952, Note_on_c, 1, 69, 127
1, 12142, Note_off_c, 1, 63, 0
1, 12144, Note_on_c, 1, 65, 127
1, 12334, Note_off_c, 1, 53, 0
1, 12334, Note_off_c, 1, 65, 0
1, 12336, Note_on_c, 1, 62, 127
1, 12336, Note_on_c, 1, 46, 127
1, 12526, Note_off_c, 1, 62, 0
1, 12718, Note_off_c, 1, 69, 0
1, 12718, Note_off_c, 1, 46, 0
1, 12720, Note_on_c, 1, 58, 127
1, 12720, Note_on_c, 1, 51, 127
1, 12720, Note_on_c, 1, 67, 127
1, 12910, Note_off_c, 1, 58, 0
1, 12912, Note_on_c, 1, 60, 127
1, 13102, Note_off_c, 1, 51, 0
1, 13102, Note_off_c, 1, 60, 0
1, 13104, Note_on_c, 1, 62, 127
1, 13104, Note_on_c, 1, 46, 127
1, 13294, Note_off_c, 1, 62, 0
1, 13294, Note_off_c, 1, 46, 0
1, 13296, Note_on_c, 1, 63, 127
1, 13296, Note_on_c, 1, 48, 127
1, 13486, Note_off_c, 1, 67, 0
1, 13486, Note_off_c, 1, 63, 0
1, 13486, Note_off_c, 1, 48, 0
1, 13488, Note_on_c, 1, 60, 127
1, 13488, Note_on_c, 1, 50, 127
1, 13488, Note_on_c, 1, 65, 127
1, 13678, Note_off_c, 1, 60, 0
1, 13680, Note_on_c, 1, 62, 127
1, 13870, Note_off_c, 1, 50, 0
1, 13870, Note_off_c, 1, 62, 0
1, 13872, Note_on_c, 1, 58, 127
1, 13872, Note_on_c, 1, 43, 127
1, 14062, Note_off_c, 1, 58, 0
1, 14254, Note_off_c, 1, 65, 0
1, 14254, Note_off_c, 1, 43, 0
1, 14256, Note_on_c, 1, 55, 127
1, 14256, Note_on_c, 1, 48, 127
1, 14256, Note_on_c, 1, 63, 127
1, 14446, Note_off_c, 1, 55, 0
1, 14448, Note_on_c, 1, 57, 127
1, 14638, Note_off_c, 1, 48, 0
1, 14638, Note_off_c, 1, 57, 0
1, 14640, Note_on_c, 1, 58, 127
1, 14640, Note_on_c, 1, 43, 127
1, 14830, Note_off_c, 1, 58, 0
1, 14830, Note_off_c, 1, 43, 0
1, 14832, Note_on_c, 1, 60, 127
1, 14832, Note_on_c, 1, 45, 127
1, 15022, Note_off_c, 1, 63, 0
1, 15022, Note_off_c, 1, 60, 0
1, 15022, Note_off_c, 1, 45, 0
1, 15024, Note_on_c, 1, 56, 127
1, 15024, Note_on_c, 1, 46, 127
1, 15024, Note_on_c, 1, 62, 127
1, 15214, Note_off_c, 1, 56, 0
1, 15216, Note_on_c, 1, 58, 127
1, 15406, Note_off_c, 1, 46, 0
1, 15406, Note_off_c, 1, 58, 0
1, 15408, Note_on_c, 1, 39, 127
1, 15408, Note_on_c, 1, 55, 127
1, 15598, Note_off_c, 1, 62, 0
1, 15600, Note_on_c, 1, 67, 127
1, 15790, Note_off_c, 1, 39, 0
1, 15790, Note_off_c, 1, 67, 0
1, 15792, Note_on_c, 1, 63, 127
1, 15792, Note_on_c, 1, 51, 127
1, 15982, Note_off_c, 1, 63, 0
1, 15984, Note_on_c, 1, 60, 127
1, 16174, Note_off_c, 1, 55, 0
1, 16174, Note_off_c, 1, 60, 0
1, 16176, Note_on_c, 1, 53, 127
1, 16176, Note_on_c, 1, 69, 127
1, 16366, Note_off_c, 1, 51, 0
1, 16556, Note_off_c, 1, 53, 0
1, 16558, Note_off_c, 1, 69, 0
1, 16560, Note_on_c, 1, 57, 127
1, 16560, Note_on_c, 1, 72, 127
1, 16750, Note_off_c, 1, 57, 0
1, 16752, Note_on_c, 1, 53, 127
1, 16942, Note_off_c, 1, 53, 0
1, 16944, Note_on_c, 1, 50, 127
1, 17134, Note_off_c, 1, 72, 0
1, 17136, Note_on_c, 1, 65, 127
1, 17326, Note_off_c, 1, 50, 0
1, 17326, Note_off_c, 1, 65, 0
1, 17328, Note_on_c, 1, 70, 127
1, 17328, Note_on_c, 1, 55, 127
1, 17518, Note_off_c, 1, 70, 0
1, 17520, Note_on_c, 1, 74, 127
1, 17710, Note_off_c, 1, 55, 0
1, 17710, Note_off_c, 1, 74, 0
1, 17712, Note_on_c, 1, 51, 127
1, 17712, Note_on_c, 1, 72, 127
1, 17902, Note_off_c, 1, 51, 0
1, 17904, Note_on_c, 1, 48, 127
1, 18094, Note_off_c, 1, 72, 0
1, 18094, Note_off_c, 1, 48, 0
1, 18096, Note_on_c, 1, 53, 127
1, 18096, Note_on_c, 1, 75, 127
1, 18286, Note_off_c, 1, 53, 0
1, 18288, Note_on_c, 1, 57, 127
1, 18478, Note_off_c, 1, 57, 0
1, 18480, Note_on_c, 1, 46, 127
1, 18480, Note_on_c, 1, 70, 127
1, 18670, Note_off_c, 1, 46, 0
1, 18672, Note_on_c, 1, 58, 127
1, 18862, Note_off_c, 1, 75, 0
1, 18862, Note_off_c, 1, 58, 0
1, 18864, Note_on_c, 1, 55, 127
1, 18864, Note_on_c, 1, 74, 127
1, 19054, Note_off_c, 1, 55, 0
1, 19056, Note_on_c, 1, 50, 127
1, 19246, Note_off_c, 1, 50, 0
1, 19376, Note_on_c, 1, 51, 127
1, 19438, Note_off_c, 1, 70, 0
1, 19446, Note_off_c, 1, 51, 0
1, 19630, Note_off_c, 1, 74, 0
1, 19632, Note_on_c, 1, 69, 127
1, 19632, Note_on_c, 1, 72, 127
1, 19822, Note_off_c, 1, 69, 0
1, 19824, Note_on_c, 1, 67, 127
1, 20014, Note_off_c, 1, 72, 0
1, 20014, Note_off_c, 1, 67, 0
1, 20016, Note_on_c, 1, 50, 127
1, 20016, Note_on_c, 1, 74, 127
1, 20016, Note_on_c, 1, 66, 127
1, 20206, Note_off_c, 1, 50, 0
1, 20208, Note_on_c, 1, 60, 127
1, 20396, Note_off_c, 1, 74, 0
1, 20398, Note_off_c, 1, 66, 0
1, 20398, Note_off_c, 1, 60, 0
1, 20400, Note_on_c, 1, 58, 127
1, 20400, Note_on_c, 1, 67, 127
1, 20590, Note_off_c, 1, 58, 0
1, 20592, Note_on_c, 1, 57, 127
1, 20782, Note_off_c, 1, 67, 0
1, 20782, Note_off_c, 1, 57, 0
1, 20784, Note_on_c, 1, 62, 127
1, 20784, Note_on_c, 1, 55, 127
1, 20974, Note_off_c, 1, 62, 0
1, 20974, Note_off_c, 1, 55, 0
1, 20976, Note_on_c, 1, 64, 127
1, 20976, Note_on_c, 1, 58, 127
1, 21166, Note_off_c, 1, 64, 0
1, 21166, Note_off_c, 1, 58, 0
1, 21168, Note_on_c, 1, 56, 127
1, 21168, Note_on_c, 1, 65, 127
1, 21358, Note_off_c, 1, 56, 0
1, 21360, Note_on_c, 1, 55, 127
1, 21550, Note_off_c, 1, 65, 0
1, 21550, Note_off_c, 1, 55, 0
1, 21552, Note_on_c, 1, 53, 127
1, 21552, Note_on_c, 1, 59, 127
1, 21742, Note_off_c, 1, 53, 0
1, 21744, Note_on_c, 1, 56, 127
1, 21934, Note_off_c, 1, 56, 0
1, 21936, Note_on_c, 1, 55, 127
1, 21936, Note_on_c, 1, 79, 127
1, 22126, Note_off_c, 1, 55, 0
1, 22318, Note_off_c, 1, 59, 0
1, 22320, Note_on_c, 1, 51, 127
1, 22320, Note_on_c, 1, 60, 127
1, 22510, Note_off_c, 1, 79, 0
1, 22702, Note_off_c, 1, 51, 0
1, 22704, Note_on_c, 1, 77, 127
1, 22704, Note_on_c, 1, 48, 127
1, 22894, Note_off_c, 1, 77, 0
1, 22896, Note_on_c, 1, 75, 127
1, 23086, Note_off_c, 1, 48, 0
1, 23086, Note_off_c, 1, 75, 0
1, 23088, Note_on_c, 1, 74, 127
1, 23470, Note_off_c, 1, 60, 0
1, 23470, Note_off_c, 1, 74, 0
1, 23472, Note_on_c, 1, 53, 127
1, 23472, Note_on_c, 1, 77, 127
1, 23472, Note_on_c, 1, 68, 127
1, 23662, Note_off_c, 1, 53, 0
1, 23664, Note_on_c, 1, 55, 127
1, 23854, Note_off_c, 1, 77, 0
1, 23854, Note_off_c, 1, 68, 0
1, 23854, Note_off_c, 1, 55, 0
1, 23856, Note_on_c, 1, 71, 127
1, 23856, Note_on_c, 1, 62, 127
1, 23856, Note_on_c, 1, 56, 127
1, 24046, Note_off_c, 1, 71, 0
1, 24046, Note_off_c, 1, 62, 0
1, 24046, Note_off_c, 1, 56, 0
1, 24048, Note_on_c, 1, 72, 127
1, 24048, Note_on_c, 1, 63, 127
1, 24048, Note_on_c, 1, 55, 127
1, 24238, Note_off_c, 1, 72, 0
1, 24238, Note_off_c, 1, 63, 0
1, 24238, Note_off_c, 1, 55, 0
1, 24240, Note_on_c, 1, 53, 127
1, 24240, Note_on_c, 1, 74, 127
1, 24240, Note_on_c, 1, 65, 127
1, 24430, Note_off_c, 1, 53, 0
1, 24432, Note_on_c, 1, 51, 127
1, 24622, Note_off_c, 1, 74, 0
1, 24622, Note_off_c, 1, 65, 0
1, 24622, Note_off_c, 1, 51, 0
1, 24624, Note_on_c, 1, 53, 127
1, 24624, Note_on_c, 1, 67, 127
1, 24624, Note_on_c, 1, 59, 127
1, 24814, Note_off_c, 1, 53, 0
1, 24816, Note_on_c, 1, 56, 127
1, 25006, Note_off_c, 1, 67, 0
1, 25006, Note_off_c, 1, 59, 0
1, 25006, Note_off_c, 1, 56, 0
1, 25008, Note_on_c, 1, 55, 127
1, 25008, Note_on_c, 1, 71, 127
1, 25008, Note_on_c, 1, 62, 127
1, 25198, Note_off_c, 1, 55, 0
1, 25200, Note_on_c, 1, 53, 127
1, 25390, Note_off_c, 1, 71, 0
1, 25390, Note_off_c, 1, 62, 0
1, 25390, Note_off_c, 1, 53, 0
1, 25392, Note_on_c, 1, 67, 127
1, 25392, Note_on_c, 1, 51, 127
1, 25392, Note_on_c, 1, 72, 127
1, 25582, Note_off_c, 1, 67, 0
1, 25582, Note_off_c, 1, 51, 0
1, 25584, Note_on_c, 1, 70, 127
1, 25584, Note_on_c, 1, 50, 127
1, 25774, Note_off_c, 1, 70, 0
1, 25774, Note_off_c, 1, 50, 0
1, 25776, Note_on_c, 1, 68, 127
1, 25776, Note_on_c, 1, 48, 127
1, 25966, Note_off_c, 1, 68, 0
1, 25966, Note_off_c, 1, 48, 0
1, 25968, Note_on_c, 1, 46, 127
1, 26158, Note_off_c, 1, 46, 0
1, 26160, Note_on_c, 1, 44, 127
1, 26160, Note_on_c, 1, 65, 127
1, 26350, Note_off_c, 1, 44, 0
1, 26542, Note_off_c, 1, 65, 0
1, 26544, Note_on_c, 1, 53, 127
1, 26734, Note_off_c, 1, 53, 0
1, 26736, Note_on_c, 1, 56, 127
1, 26926, Note_off_c, 1, 72, 0
1, 26926, Note_off_c, 1, 56, 0
1, 26928, Note_on_c, 1, 62, 127
1, 26928, Note_on_c, 1, 55, 127
1, 26928, Note_on_c, 1, 71, 127
1, 27118, Note_off_c, 1, 62, 0
1, 27120, Note_on_c, 1, 63, 127
1, 27310, Note_off_c, 1, 55, 0
1, 27310, Note_off_c, 1, 63, 0
1, 27312, Note_on_c, 1, 43, 127
1, 27312, Note_on_c, 1, 65, 127
1, 27694, Note_off_c, 1, 71, 0
1, 27694, Note_off_c, 1, 43, 0
1, 27696, Note_on_c, 1, 48, 127
1, 27696, Note_on_c, 1, 72, 127
1, 27886, Note_off_c, 1, 65, 0
1, 28078, Note_off_c, 1, 48, 0
1, 28080, Note_on_c, 1, 64, 127
1, 28080, Note_on_c, 1, 60, 127
1, 28270, Note_off_c, 1, 64, 0
1, 28654, Note_off_c, 1, 60, 0
1, 28656, Note_on_c, 1, 58, 127
1, 28846, Note_off_c, 1, 72, 0
1, 28846, Note_off_c, 1, 58, 0
1, 28848, Note_on_c, 1, 57, 127
1, 28848, Note_on_c, 1, 70, 127
1, 29038, Note_off_c, 1, 57, 0
1, 29040, Note_on_c, 1, 55, 127
1, 29230, Note_off_c, 1, 55, 0
1, 29232, Note_on_c, 1, 53, 127
1, 29422, Note_off_c, 1, 70, 0
1, 29424, Note_on_c, 1, 69, 127
1, 29614, Note_off_c, 1, 53, 0
1, 29614, Note_off_c, 1, 69, 0
1, 29616, Note_on_c, 1, 67, 127
1, 29616, Note_on_c, 1, 57, 127
1, 29806, Note_off_c, 1, 67, 0
1, 29808, Note_on_c, 1, 65, 127
1, 29998, Note_off_c, 1, 57, 0
1, 29998, Note_off_c, 1, 65, 0
1, 30000, Note_on_c, 1, 67, 127
1, 30000, Note_on_c, 1, 52, 127
1, 30190, Note_off_c, 1, 67, 0
1, 30190, Note_off_c, 1, 52, 0
1, 30192, Note_on_c, 1, 69, 127
1, 30192, Note_on_c, 1, 53, 127
1, 30382, Note_off_c, 1, 69, 0
1, 30382, Note_off_c, 1, 53, 0
1, 30384, Note_on_c, 1, 70, 127
1, 30384, Note_on_c, 1, 55, 127
1, 30574, Note_off_c, 1, 70, 0
1, 30576, Note_on_c, 1, 67, 127
1, 30766, Note_off_c, 1, 55, 0
1, 30766, Note_off_c, 1, 67, 0
1, 30768, Note_on_c, 1, 64, 127
1, 30768, Note_on_c, 1, 45, 127
1, 30958, Note_off_c, 1, 64, 0
1, 30960, Note_on_c, 1, 67, 127
1, 31150, Note_off_c, 1, 67, 0
1, 31344, Note_on_c, 1, 60, 127
1, 31534, Note_off_c, 1, 60, 0
1, 31536, Note_on_c, 1, 65, 127
1, 31726, Note_off_c, 1, 45, 0
1, 31728, Note_on_c, 1, 57, 127
1, 31918, Note_off_c, 1, 65, 0
1, 31918, Note_off_c, 1, 57, 0
1, 31920, Note_on_c, 1, 53, 127
1, 31920, Note_on_c, 1, 69, 127
1, 31920, Note_on_c, 1, 77, 127
1, 32110, Note_off_c, 1, 53, 0
1, 32112, Note_on_c, 1, 50, 127
1, 32302, Note_off_c, 1, 69, 0
1, 32302, Note_off_c, 1, 50, 0
1, 32304, Note_on_c, 1, 46, 127
1, 32304, Note_on_c, 1, 67, 127
1, 32494, Note_off_c, 1, 77, 0
1, 32494, Note_off_c, 1, 46, 0
1, 32496, Note_on_c, 1, 76, 127
1, 32686, Note_off_c, 1, 76, 0
1, 32688, Note_on_c, 1, 74, 127
1, 32878, Note_off_c, 1, 74, 0
1, 32880, Note_on_c, 1, 43, 127
1, 33070, Note_off_c, 1, 43, 0
1, 33072, Note_on_c, 1, 48, 127
1, 33454, Note_off_c, 1, 48, 0
1, 33456, Note_on_c, 1, 36, 127
1, 33838, Note_off_c, 1, 67, 0
1, 33838, Note_off_c, 1, 36, 0
1, 33840, Note_on_c, 1, 41, 127
1, 33840, Note_on_c, 1, 77, 127
1, 33840, Note_on_c, 1, 69, 127
1, 34030, Note_off_c, 1, 41, 0
1, 34032, Note_on_c, 1, 55, 127
1, 34222, Note_off_c, 1, 77, 0
1, 34222, Note_off_c, 1, 55, 0
1, 34224, Note_on_c, 1, 53, 127
1, 34224, Note_on_c, 1, 81, 127
1, 34414, Note_off_c, 1, 53, 0
1, 34416, Note_on_c, 1, 52, 127
1, 34606, Note_off_c, 1, 69, 0
1, 34606, Note_off_c, 1, 52, 0
1, 34608, Note_on_c, 1, 50, 127
1, 34608, Note_on_c, 1, 70, 127
1, 34798, Note_off_c, 1, 81, 0
1, 34990, Note_off_c, 1, 50, 0
1, 34992, Note_on_c, 1, 79, 127
1, 35182, Note_off_c, 1, 79, 0
1, 35376, Note_on_c, 1, 76, 127
1, 35566, Note_off_c, 1, 70, 0
1, 35758, Note_off_c, 1, 76, 0
1, 35760, Note_on_c, 1, 67, 127
1, 35950, Note_off_c, 1, 67, 0
1, 35952, Note_on_c, 1, 65, 127
1, 36142, Note_off_c, 1, 65, 0
1, 36144, Note_on_c, 1, 73, 127
1, 36144, Note_on_c, 1, 64, 127
1, 36334, Note_off_c, 1, 73, 0
1, 36336, Note_on_c, 1, 74, 127
1, 36526, Note_off_c, 1, 64, 0
1, 36526, Note_off_c, 1, 74, 0
1, 36912, Note_on_c, 1, 61, 127
1, 37102, Note_off_c, 1, 61, 0
1, 37104, Note_on_c, 1, 62, 127
1, 37104, Note_on_c, 1, 58, 127
1, 37294, Note_off_c, 1, 62, 0
1, 37294, Note_off_c, 1, 58, 0
1, 37296, Note_on_c, 1, 57, 127
1, 37486, Note_off_c, 1, 57, 0
1, 37488, Note_on_c, 1, 71, 127
1, 37678, Note_off_c, 1, 71, 0
1, 37680, Note_on_c, 1, 72, 127
1, 37680, Note_on_c, 1, 54, 127
1, 37680, Note_on_c, 1, 57, 127
1, 37870, Note_off_c, 1, 72, 0
1, 37870, Note_off_c, 1, 54, 0
1, 37872, Note_on_c, 1, 71, 127
1, 37872, Note_on_c, 1, 50, 127
1, 38062, Note_off_c, 1, 57, 0
1, 38062, Note_off_c, 1, 71, 0
1, 38062, Note_off_c, 1, 50, 0
1, 38064, Note_on_c, 1, 72, 127
1, 38064, Note_on_c, 1, 52, 127
1, 38064, Note_on_c, 1, 69, 127
1, 38254, Note_off_c, 1, 72, 0
1, 38254, Note_off_c, 1, 52, 0
1, 38256, Note_on_c, 1, 74, 127
1, 38256, Note_on_c, 1, 53, 127
1, 38446, Note_off_c, 1, 74, 0
1, 38446, Note_off_c, 1, 53, 0
1, 38448, Note_on_c, 1, 55, 127
1, 38448, Note_on_c, 1, 71, 127
1, 38604, Note_off_c, 1, 69, 0
1, 38638, Note_off_c, 1, 55, 0
1, 38640, Note_on_c, 1, 54, 127
1, 38728, Note_off_c, 1, 71, 0
1, 38830, Note_off_c, 1, 54, 0
1, 38832, Note_on_c, 1, 71, 127
1, 38832, Note_on_c, 1, 55, 127
1, 38832, Note_on_c, 1, 67, 127
1, 39022, Note_off_c, 1, 71, 0
1, 39022, Note_off_c, 1, 55, 0
1, 39024, Note_on_c, 1, 73, 127
1, 39024, Note_on_c, 1, 57, 127
1, 39214, Note_off_c, 1, 73, 0
1, 39214, Note_off_c, 1, 57, 0
1, 39216, Note_on_c, 1, 58, 127
1, 39216, Note_on_c, 1, 74, 127
1, 39406, Note_off_c, 1, 67, 0
1, 39408, Note_on_c, 1, 65, 127
1, 39598, Note_off_c, 1, 58, 0
1, 39598, Note_off_c, 1, 65, 0
1, 39792, Note_on_c, 1, 69, 127
1, 39982, Note_off_c, 1, 69, 0
1, 39984, Note_on_c, 1, 70, 127
1, 40174, Note_off_c, 1, 70, 0
1, 40176, Note_on_c, 1, 52, 127
1, 40366, Note_off_c, 1, 52, 0
1, 40368, Note_on_c, 1, 53, 127
1, 40558, Note_off_c, 1, 53, 0
1, 40750, Note_off_c, 1, 74, 0
1, 40752, Note_on_c, 1, 64, 127
1, 40752, Note_on_c, 1, 57, 127
1, 40752, Note_on_c, 1, 73, 127
1, 40942, Note_off_c, 1, 64, 0
1, 40944, Note_on_c, 1, 70, 127
1, 41134, Note_off_c, 1, 57, 0
1, 41134, Note_off_c, 1, 70, 0
1, 41136, Note_on_c, 1, 69, 127
1, 41136, Note_on_c, 1, 45, 127
1, 41326, Note_off_c, 1, 69, 0
1, 41328, Note_on_c, 1, 67, 127
1, 41518, Note_off_c, 1, 73, 0
1, 41518, Note_off_c, 1, 45, 0
1, 41518, Note_off_c, 1, 67, 0
1, 41520, Note_on_c, 1, 50, 127
1, 41520, Note_on_c, 1, 74, 127
1, 41520, Note_on_c, 1, 65, 127
1, 41710, Note_off_c, 1, 50, 0
1, 41712, Note_on_c, 1, 57, 127
1, 41902, Note_off_c, 1, 74, 0
1, 41902, Note_off_c, 1, 57, 0
1, 41904, Note_on_c, 1, 53, 127
1, 41904, Note_on_c, 1, 77, 127
1, 42094, Note_off_c, 1, 53, 0
1, 42280, Note_off_c, 1, 65, 0
1, 42288, Note_on_c, 1, 62, 127
1, 42478, Note_off_c, 1, 77, 0
1, 42480, Note_on_c, 1, 75, 127
1, 42670, Note_off_c, 1, 62, 0
1, 42670, Note_off_c, 1, 75, 0
1, 42672, Note_on_c, 1, 74, 127
1, 42672, Note_on_c, 1, 65, 127
1, 42862, Note_off_c, 1, 74, 0
1, 42864, Note_on_c, 1, 72, 127
1, 43054, Note_off_c, 1, 72, 0
1, 43056, Note_on_c, 1, 71, 127
1, 43246, Note_off_c, 1, 65, 0
1, 43248, Note_on_c, 1, 63, 127
1, 43438, Note_off_c, 1, 71, 0
1, 43438, Note_off_c, 1, 63, 0
1, 43440, Note_on_c, 1, 62, 127
1, 43440, Note_on_c, 1, 74, 127
1, 43630, Note_off_c, 1, 62, 0
1, 43632, Note_on_c, 1, 60, 127
1, 43822, Note_off_c, 1, 74, 0
1, 43822, Note_off_c, 1, 60, 0
1, 43824, Note_on_c, 1, 67, 127
1, 43824, Note_on_c, 1, 59, 127
1, 44014, Note_off_c, 1, 67, 0
1, 44016, Note_on_c, 1, 69, 127
1, 44206, Note_off_c, 1, 59, 0
1, 44206, Note_off_c, 1, 69, 0
1, 44208, Note_on_c, 1, 71, 127
1, 44208, Note_on_c, 1, 55, 127
1, 44302, Note_off_c, 1, 71, 0
1, 44304, Note_on_c, 1, 69, 127
1, 44398, Note_off_c, 1, 69, 0
1, 44590, Note_off_c, 1, 55, 0
1, 44592, Note_on_c, 1, 60, 127
1, 44592, Note_on_c, 1, 63, 127
1, 44782, Note_off_c, 1, 60, 0
1, 44784, Note_on_c, 1, 55, 127
1, 44974, Note_off_c, 1, 55, 0
1, 44976, Note_on_c, 1, 51, 127
1, 44976, Note_on_c, 1, 72, 127
1, 45166, Note_off_c, 1, 51, 0
1, 45168, Note_on_c, 1, 48, 127
1, 45352, Note_off_c, 1, 63, 0
1, 45358, Note_off_c, 1, 72, 0
1, 45358, Note_off_c, 1, 48, 0
1, 45360, Note_on_c, 1, 58, 127
1, 45360, Note_on_c, 1, 75, 127
1, 45550, Note_off_c, 1, 58, 0
1, 45552, Note_on_c, 1, 70, 127
1, 45552, Note_on_c, 1, 62, 127
1, 45742, Note_off_c, 1, 70, 0
1, 45742, Note_off_c, 1, 62, 0
1, 45744, Note_on_c, 1, 69, 127
1, 45744, Note_on_c, 1, 60, 127
1, 45934, Note_off_c, 1, 69, 0
1, 45934, Note_off_c, 1, 60, 0
1, 45936, Note_on_c, 1, 67, 127
1, 46126, Note_off_c, 1, 67, 0
1, 46128, Note_on_c, 1, 57, 127
1, 46128, Note_on_c, 1, 65, 127
1, 46318, Note_off_c, 1, 57, 0
1, 46320, Note_on_c, 1, 55, 127
1, 46510, Note_off_c, 1, 75, 0
1, 46510, Note_off_c, 1, 65, 0
1, 46510, Note_off_c, 1, 55, 0
1, 46512, Note_on_c, 1, 74, 127
1, 46512, Note_on_c, 1, 53, 127
1, 46512, Note_on_c, 1, 69, 127
1, 46702, Note_off_c, 1, 74, 0
1, 46702, Note_off_c, 1, 53, 0
1, 46704, Note_on_c, 1, 72, 127
1, 46704, Note_on_c, 1, 51, 127
1, 46894, Note_off_c, 1, 69, 0
1, 46894, Note_off_c, 1, 72, 0
1, 46894, Note_off_c, 1, 51, 0
1, 46896, Note_on_c, 1, 62, 127
1, 46896, Note_on_c, 1, 70, 127
1, 46896, Note_on_c, 1, 53, 127
1, 47086, Note_off_c, 1, 62, 0
1, 47088, Note_on_c, 1, 63, 127
1, 47278, Note_off_c, 1, 70, 0
1, 47278, Note_off_c, 1, 63, 0
1, 47280, Note_on_c, 1, 69, 127
1, 47280, Note_on_c, 1, 65, 127
1, 47470, Note_off_c, 1, 53, 0
1, 47472, Note_on_c, 1, 55, 127
1, 47662, Note_off_c, 1, 69, 0
1, 47662, Note_off_c, 1, 65, 0
1, 47662, Note_off_c, 1, 55, 0
1, 47664, Note_on_c, 1, 58, 127
1, 47664, Note_on_c, 1, 56, 127
1, 47664, Note_on_c, 1, 74, 127
1, 47839, Note_off_c, 1, 58, 0
1, 47866, Note_off_c, 1, 56, 0
1, 48048, Note_on_c, 1, 65, 127
1, 48238, Note_off_c, 1, 74, 0
1, 48240, Note_on_c, 1, 75, 127
1, 48240, Note_on_c, 1, 55, 127
1, 48430, Note_off_c, 1, 75, 0
1, 48430, Note_off_c, 1, 55, 0
1, 48432, Note_on_c, 1, 53, 127
1, 48622, Note_off_c, 1, 53, 0
1, 48624, Note_on_c, 1, 72, 127
1, 48624, Note_on_c, 1, 51, 127
1, 48814, Note_off_c, 1, 72, 0
1, 48814, Note_off_c, 1, 51, 0
1, 48816, Note_on_c, 1, 70, 127
1, 48816, Note_on_c, 1, 50, 127
1, 49006, Note_off_c, 1, 70, 0
1, 49006, Note_off_c, 1, 50, 0
1, 49008, Note_on_c, 1, 68, 127
1, 49008, Note_on_c, 1, 48, 127
1, 49198, Note_off_c, 1, 68, 0
1, 49198, Note_off_c, 1, 48, 0
1, 49200, Note_on_c, 1, 46, 127
1, 49200, Note_on_c, 1, 67, 127
1, 49390, Note_off_c, 1, 65, 0
1, 49392, Note_on_c, 1, 62, 127
1, 49582, Note_off_c, 1, 46, 0
1, 49582, Note_off_c, 1, 62, 0
1, 49584, Note_on_c, 1, 63, 127
1, 49774, Note_off_c, 1, 67, 0
1, 49968, Note_on_c, 1, 43, 127
1, 50158, Note_off_c, 1, 43, 0
1, 50160, Note_on_c, 1, 44, 127
1, 50350, Note_off_c, 1, 63, 0
1, 50350, Note_off_c, 1, 44, 0
1, 50352, Note_on_c, 1, 65, 127
1, 50352, Note_on_c, 1, 62, 127
1, 50352, Note_on_c, 1, 46, 127
1, 50734, Note_off_c, 1, 65, 0
1, 50734, Note_off_c, 1, 62, 0
1, 50734, Note_off_c, 1, 46, 0
1, 50736, Note_on_c, 1, 63, 127
1, 50736, Note_on_c, 1, 67, 127
1, 50736, Note_on_c, 1, 39, 127
1, 51116, Note_off_c, 1, 63, 0
1, 51118, Note_off_c, 1, 67, 0
1, 51120, Note_on_c, 1, 79, 127
1, 51496, Note_off_c, 1, 39, 0
1, 51504, Note_on_c, 1, 72, 127
1, 51694, Note_off_c, 1, 79, 0
1, 51696, Note_on_c, 1, 77, 127
1, 51886, Note_off_c, 1, 77, 0
1, 51888, Note_on_c, 1, 75, 127
1, 52078, Note_off_c, 1, 72, 0
1, 52078, Note_off_c, 1, 75, 0
1, 52080, Note_on_c, 1, 74, 127
1, 52080, Note_on_c, 1, 70, 127
1, 52270, Note_off_c, 1, 74, 0
1, 52270, Note_off_c, 1, 70, 0
1, 52272, Note_on_c, 1, 69, 127
1, 52462, Note_off_c, 1, 69, 0
1, 52656, Note_on_c, 1, 77, 127
1, 52656, Note_on_c, 1, 65, 127
1, 52656, Note_on_c, 1, 62, 127
1, 53038, Note_off_c, 1, 77, 0
1, 53038, Note_off_c, 1, 65, 0
1, 53040, Note_on_c, 1, 70, 127
1, 53040, Note_on_c, 1, 67, 127
1, 53230, Note_off_c, 1, 62, 0
1, 53230, Note_off_c, 1, 70, 0
1, 53232, Note_on_c, 1, 72, 127
1, 53422, Note_off_c, 1, 67, 0
1, 53422, Note_off_c, 1, 72, 0
1, 53424, Note_on_c, 1, 60, 127
1, 53424, Note_on_c, 1, 74, 127
1, 53424, Note_on_c, 1, 70, 127
1, 53614, Note_off_c, 1, 60, 0
1, 53616, Note_on_c, 1, 58, 127
1, 53806, Note_off_c, 1, 74, 0
1, 53806, Note_off_c, 1, 70, 0
1, 53806, Note_off_c, 1, 58, 0
1, 53808, Note_on_c, 1, 63, 127
1, 53808, Note_on_c, 1, 60, 127
1, 53808, Note_on_c, 1, 67, 127
1, 53998, Note_off_c, 1, 63, 0
1, 53998, Note_off_c, 1, 60, 0
1, 54000, Note_on_c, 1, 65, 127
1, 54000, Note_on_c, 1, 62, 127
1, 54190, Note_off_c, 1, 67, 0
1, 54190, Note_off_c, 1, 65, 0
1, 54190, Note_off_c, 1, 62, 0
1, 54192, Note_on_c, 1, 60, 127
1, 54192, Note_on_c, 1, 67, 127
1, 54192, Note_on_c, 1, 75, 127
1, 54382, Note_off_c, 1, 60, 0
1, 54384, Note_on_c, 1, 58, 127
1, 54574, Note_off_c, 1, 67, 0
1, 54574, Note_off_c, 1, 58, 0
1, 54576, Note_on_c, 1, 57, 127
1, 54766, Note_off_c, 1, 75, 0
1, 54766, Note_off_c, 1, 57, 0
1, 54768, Note_on_c, 1, 74, 127
1, 54958, Note_off_c, 1, 74, 0
1, 54960, Note_on_c, 1, 72, 127
1, 54960, Note_on_c, 1, 57, 127
1, 54960, Note_on_c, 1, 65, 127
1, 55150, Note_off_c, 1, 72, 0
1, 55150, Note_off_c, 1, 57, 0
1, 55152, Note_on_c, 1, 70, 127
1, 55152, Note_on_c, 1, 55, 127
1, 55342, Note_off_c, 1, 70, 0
1, 55342, Note_off_c, 1, 55, 0
1, 55344, Note_on_c, 1, 69, 127
1, 55344, Note_on_c, 1, 53, 127
1, 55534, Note_off_c, 1, 65, 0
1, 55536, Note_on_c, 1, 63, 127
1, 55726, Note_off_c, 1, 69, 0
1, 55726, Note_off_c, 1, 53, 0
1, 55726, Note_off_c, 1, 63, 0
1, 55728, Note_on_c, 1, 62, 127
1, 55728, Note_on_c, 1, 74, 127
1, 55728, Note_on_c, 1, 46, 127
1, 55918, Note_off_c, 1, 62, 0
1, 55920, Note_on_c, 1, 60, 127
1, 56110, Note_off_c, 1, 74, 0
1, 56110, Note_off_c, 1, 46, 0
1, 56110, Note_off_c, 1, 60, 0
1, 56112, Note_on_c, 1, 67, 127
1, 56112, Note_on_c, 1, 51, 127
1, 56112, Note_on_c, 1, 58, 127
1, 56302, Note_off_c, 1, 67, 0
1, 56302, Note_off_c, 1, 51, 0
1, 56304, Note_on_c, 1, 69, 127
1, 56304, Note_on_c, 1, 50, 127
1, 56494, Note_off_c, 1, 58, 0
1, 56494, Note_off_c, 1, 69, 0
1, 56494, Note_off_c, 1, 50, 0
1, 56496, Note_on_c, 1, 48, 127
1, 56496, Note_on_c, 1, 70, 127
1, 56496, Note_on_c, 1, 62, 127
1, 56686, Note_off_c, 1, 48, 0
1, 56688, Note_on_c, 1, 46, 127
1, 56878, Note_off_c, 1, 70, 0
1, 56878, Note_off_c, 1, 62, 0
1, 56878, Note_off_c, 1, 46, 0
1, 56880, Note_on_c, 1, 57, 127
1, 56880, Note_on_c, 1, 48, 127
1, 56880, Note_on_c, 1, 63, 127
1, 57070, Note_off_c, 1, 57, 0
1, 57070, Note_off_c, 1, 48, 0
1, 57072, Note_on_c, 1, 58, 127
1, 57072, Note_on_c, 1, 46, 127
1, 57262, Note_off_c, 1, 63, 0
1, 57262, Note_off_c, 1, 58, 0
1, 57262, Note_off_c, 1, 46, 0
1, 57264, Note_on_c, 1, 45, 127
1, 57264, Note_on_c, 1, 60, 127
1, 57264, Note_on_c, 1, 72, 127
1, 57454, Note_off_c, 1, 45, 0
1, 57456, Note_on_c, 1, 43, 127
1, 57646, Note_off_c, 1, 60, 0
1, 57646, Note_off_c, 1, 43, 0
1, 57648, Note_on_c, 1, 53, 127
1, 57838, Note_off_c, 1, 72, 0
1, 57840, Note_on_c, 1, 70, 127
1, 58030, Note_off_c, 1, 70, 0
1, 58032, Note_on_c, 1, 69, 127
1, 58032, Note_on_c, 1, 41, 127
1, 58222, Note_off_c, 1, 69, 0
1, 58222, Note_off_c, 1, 41, 0
1, 58224, Note_on_c, 1, 67, 127
1, 58224, Note_on_c, 1, 39, 127
1, 58414, Note_off_c, 1, 67, 0
1, 58414, Note_off_c, 1, 39, 0
1, 58416, Note_on_c, 1, 38, 127
1, 58416, Note_on_c, 1, 65, 127
1, 58606, Note_off_c, 1, 38, 0
1, 58608, Note_off_c, 1, 53, 0
1, 58608, Note_on_c, 1, 51, 127
1, 58798, Note_off_c, 1, 51, 0
1, 58800, Note_on_c, 1, 50, 127
1, 58990, Note_off_c, 1, 50, 0
1, 58992, Note_on_c, 1, 48, 127
1, 59176, Note_off_c, 1, 65, 0
1, 59182, Note_off_c, 1, 48, 0
1, 59184, Note_on_c, 1, 46, 127
1, 59374, Note_off_c, 1, 46, 0
1, 59376, Note_on_c, 1, 70, 127
1, 59376, Note_on_c, 1, 55, 127
1, 59566, Note_off_c, 1, 70, 0
1, 59566, Note_off_c, 1, 55, 0
1, 59568, Note_on_c, 1, 69, 127
1, 59568, Note_on_c, 1, 53, 127
1, 59758, Note_off_c, 1, 69, 0
1, 59758, Note_off_c, 1, 53, 0
1, 59760, Note_on_c, 1, 67, 127
1, 59760, Note_on_c, 1, 51, 127
1, 59950, Note_off_c, 1, 67, 0
1, 59950, Note_off_c, 1, 51, 0
1, 59952, Note_on_c, 1, 50, 127
1, 59952, Note_on_c, 1, 65, 127
1, 60142, Note_off_c, 1, 50, 0
1, 60144, Note_on_c, 1, 63, 127
1, 60334, Note_off_c, 1, 65, 0
1, 60334, Note_off_c, 1, 63, 0
1, 60336, Note_on_c, 1, 62, 127
1, 60336, Note_on_c, 1, 69, 127
1, 60336, Note_on_c, 1, 77, 127
1, 60526, Note_off_c, 1, 62, 0
1, 60528, Note_on_c, 1, 60, 127
1, 60718, Note_off_c, 1, 69, 0
1, 60718, Note_off_c, 1, 60, 0
1, 60720, Note_on_c, 1, 58, 127
1, 60910, Note_off_c, 1, 77, 0
1, 60912, Note_on_c, 1, 75, 127
1, 60912, Note_on_c, 1, 63, 127
1, 61102, Note_off_c, 1, 75, 0
1, 61102, Note_off_c, 1, 63, 0
1, 61104, Note_on_c, 1, 74, 127
1, 61104, Note_on_c, 1, 65, 127
1, 61294, Note_off_c, 1, 58, 0
1, 61294, Note_off_c, 1, 74, 0
1, 61296, Note_on_c, 1, 72, 127
1, 61296, Note_on_c, 1, 57, 127
1, 61486, Note_off_c, 1, 65, 0
1, 61486, Note_off_c, 1, 72, 0
1, 61486, Note_off_c, 1, 57, 0
1, 61488, Note_on_c, 1, 58, 127
1, 61488, Note_on_c, 1, 70, 127
1, 61488, Note_on_c, 1, 55, 127
1, 61678, Note_off_c, 1, 58, 0
1, 61680, Note_on_c, 1, 57, 127
1, 61870, Note_off_c, 1, 70, 0
1, 61870, Note_off_c, 1, 55, 0
1, 61870, Note_off_c, 1, 57, 0
1, 61872, Note_on_c, 1, 58, 127
1, 61872, Note_on_c, 1, 74, 127
1, 61872, Note_on_c, 1, 53, 127
1, 62062, Note_off_c, 1, 58, 0
1, 62064, Note_on_c, 1, 62, 127
1, 62254, Note_off_c, 1, 74, 0
1, 62254, Note_off_c, 1, 62, 0
1, 62256, Note_on_c, 1, 69, 127
1, 62256, Note_on_c, 1, 60, 127
1, 62446, Note_off_c, 1, 53, 0
1, 62446, Note_off_c, 1, 69, 0
1, 62448, Note_on_c, 1, 70, 127
1, 62448, Note_on_c, 1, 51, 127
1, 62638, Note_off_c, 1, 60, 0
1, 62638, Note_off_c, 1, 70, 0
1, 62638, Note_off_c, 1, 51, 0
1, 62640, Note_on_c, 1, 50, 127
1, 62640, Note_on_c, 1, 72, 127
1, 62640, Note_on_c, 1, 63, 127
1, 62830, Note_off_c, 1, 50, 0
1, 62832, Note_on_c, 1, 48, 127
1, 63022, Note_off_c, 1, 48, 0
1, 63024, Note_on_c, 1, 46, 127
1, 63214, Note_off_c, 1, 72, 0
1, 63216, Note_on_c, 1, 65, 127
1, 63406, Note_off_c, 1, 63, 0
1, 63406, Note_off_c, 1, 46, 0
1, 63406, Note_off_c, 1, 65, 0
1, 63408, Note_on_c, 1, 70, 127
1, 63408, Note_on_c, 1, 62, 127
1, 63408, Note_on_c, 1, 50, 127
1, 63598, Note_off_c, 1, 70, 0
1, 63600, Note_on_c, 1, 74, 127
1, 63768, Note_off_c, 1, 62, 0
1, 63790, Note_off_c, 1, 50, 0
1, 63790, Note_off_c, 1, 74, 0
1, 63792, Note_on_c, 1, 45, 127
1, 63792, Note_on_c, 1, 72, 127
1, 63982, Note_off_c, 1, 45, 0
1, 63984, Note_on_c, 1, 70, 127
1, 63984, Note_on_c, 1, 46, 127
1, 64174, Note_off_c, 1, 72, 0
1, 64174, Note_off_c, 1, 70, 0
1, 64174, Note_off_c, 1, 46, 0
1, 64176, Note_on_c, 1, 69, 127
1, 64176, Note_on_c, 1, 48, 127
1, 64176, Note_on_c, 1, 75, 127
1, 64366, Note_off_c, 1, 69, 0
1, 64368, Note_on_c, 1, 67, 127
1, 64558, Note_off_c, 1, 48, 0
1, 64558, Note_off_c, 1, 67, 0
1, 64560, Note_on_c, 1, 38, 127
1, 64560, Note_on_c, 1, 65, 127
1, 64750, Note_off_c, 1, 75, 0
1, 64942, Note_off_c, 1, 38, 0
1, 64944, Note_on_c, 1, 70, 127
1, 64944, Note_on_c, 1, 50, 127
1, 65134, Note_off_c, 1, 70, 0
1, 65136, Note_on_c, 1, 74, 127
1, 65300, Note_off_c, 1, 65, 0
1, 65326, Note_off_c, 1, 50, 0
1, 65326, Note_off_c, 1, 74, 0
1, 65328, Note_on_c, 1, 46, 127
1, 65328, Note_on_c, 1, 77, 127
1, 65520, Note_on_c, 1, 74, 127
1, 65710, Note_off_c, 1, 46, 0
1, 65710, Note_off_c, 1, 74, 0
1, 65712, Note_on_c, 1, 70, 127
1, 65712, Note_on_c, 1, 50, 127
1, 65902, Note_off_c, 1, 70, 0
1, 65904, Note_on_c, 1, 68, 127
1, 66094, Note_off_c, 1, 50, 0
1, 66094, Note_off_c, 1, 68, 0
1, 66096, Note_on_c, 1, 39, 127
1, 66096, Note_on_c, 1, 67, 127
1, 66286, Note_off_c, 1, 77, 0
1, 66478, Note_off_c, 1, 39, 0
1, 66480, Note_on_c, 1, 72, 127
1, 66480, Note_on_c, 1, 51, 127
1, 66670, Note_off_c, 1, 72, 0
1, 66672, Note_on_c, 1, 75, 127
1, 66836, Note_off_c, 1, 67, 0
1, 66862, Note_off_c, 1, 51, 0
1, 66862, Note_off_c, 1, 75, 0
1, 66864, Note_on_c, 1, 48, 127
1, 66864, Note_on_c, 1, 79, 127
1, 67056, Note_on_c, 1, 75, 127
1, 67246, Note_off_c, 1, 48, 0
1, 67246, Note_off_c, 1, 75, 0
1, 67248, Note_on_c, 1, 72, 127
1, 67248, Note_on_c, 1, 51, 127
1, 67438, Note_off_c, 1, 72, 0
1, 67440, Note_on_c, 1, 70, 127
1, 67630, Note_off_c, 1, 79, 0
1, 67630, Note_off_c, 1, 70, 0
1, 67632, Note_on_c, 1, 82, 127
1, 67632, Note_on_c, 1, 77, 127
1, 67832, Note_off_c, 1, 82, 0
1, 67834, Note_on_c, 1, 81, 127
1, 68034, Note_off_c, 1, 51, 0
1, 68034, Note_off_c, 1, 81, 0
1, 68036, Note_on_c, 1, 63, 127
1, 68200, Note_off_c, 1, 77, 0
1, 68438, Note_off_c, 1, 63, 0
1, 68440, Note_on_c, 1, 82, 127
1, 68440, Note_on_c, 1, 62, 127
1, 68640, Note_off_c, 1, 82, 0
1, 68642, Note_on_c, 1, 81, 127
1, 68741, Note_off_c, 1, 81, 0
1, 68743, Note_on_c, 1, 79, 127
1, 68842, Note_off_c, 1, 62, 0
1, 68842, Note_off_c, 1, 79, 0
1, 68844, Note_on_c, 1, 77, 127
1, 68844, Note_on_c, 1, 58, 127
1, 68943, Note_off_c, 1, 77, 0
1, 68945, Note_on_c, 1, 75, 127
1, 69044, Note_off_c, 1, 75, 0
1, 69046, Note_on_c, 1, 74, 127
1, 69145, Note_off_c, 1, 74, 0
1, 69147, Note_on_c, 1, 72, 127
1, 69246, Note_off_c, 1, 58, 0
1, 69246, Note_off_c, 1, 72, 0
1, 69248, Note_on_c, 1, 55, 127
1, 69248, Note_on_c, 1, 70, 127
1, 69349, Note_on_c, 1, 69, 127
1, 69448, Note_off_c, 1, 69, 0
1, 69450, Note_on_c, 1, 67, 127
1, 69549, Note_off_c, 1, 67, 0
1, 69551, Note_on_c, 1, 65, 127
1, 69650, Note_off_c, 1, 55, 0
1, 69650, Note_off_c, 1, 65, 0
1, 69652, Note_on_c, 1, 51, 127
1, 69854, Note_on_c, 1, 63, 127
1, 70054, Note_off_c, 1, 51, 0
1, 70054, Note_off_c, 1, 63, 0
1, 70056, Note_on_c, 1, 62, 127
1, 70056, Note_on_c, 1, 53, 127
1, 70280, Note_off_c, 1, 70, 0
1, 70506, Note_off_c, 1, 62, 0
1, 70506, Note_off_c, 1, 53, 0
1, 70508, Note_on_c, 1, 60, 127
1, 70508, Note_on_c, 1, 41, 127
1, 71029, Note_off_c, 1, 60, 0
1, 71029, Note_off_c, 1, 41, 0
1, 71059, Note_on_c, 1, 70, 127
1, 71059, Note_on_c, 1, 62, 127
1, 71059, Note_on_c, 1, 46, 127
1, 73481, Note_off_c, 1, 70, 0
1, 73481, Note_off_c, 1, 62, 0
1, 73481, Note_off_c, 1, 46, 0
1, 73481, End_track
0, 0, End_of_file