0, 0, Header, 1, 1, 480
1, 0, Start_track
1, 0, Title_t, "Test"
1, 0, Tempo, 500000
1, 0, Instrument_name_t, "Church Organ"
1, 0, Note_on_c, 1, 81, 127
1, 96, Note_off_c, 1, 81, 0
1, 120, Note_on_c, 1, 73, 127
1, 120, Note_on_c, 1, 57, 127
1, 150, Note_on_c, 1, 76, 127
1, 180, Note_on_c, 1, 81, 127
1, 240, Note_on_c, 1, 45, 127
1, 336, Note_off_c, 1, 45, 0
1, 360, Note_on_c, 1, 47, 127
1, 408, Note_off_c, 1, 73, 0
1, 432, Note_off_c, 1, 76, 0
1, 432, Note_off_c, 1, 81, 0
1, 456, Note_off_c, 1, 47, 0
1, 480, Note_on_c, 1, 80, 127
1, 480, Note_on_c, 1, 49, 127
1, 576, Note_off_c, 1, 80, 0
1, 576, Note_off_c, 1, 49, 0
1, 600, Note_on_c, 1, 78, 127
1, 600, Note_on_c, 1, 50, 127
1, 696, Note_off_c, 1, 57, 0
1, 696, Note_off_c, 1, 78, 0
1, 792, Note_off_c, 1, 50, 0
1, 840, Note_on_c, 1, 74, 127
1, 840, Note_on_c, 1, 52, 127
1, 870, Note_on_c, 1, 56, 127
1, 936, Note_off_c, 1, 74, 0
1, 960, Note_on_c, 1, 73, 127
1, 1032, Note_off_c, 1, 52, 0
1, 1038, Note_off_c, 1, 56, 0
1, 1056, Note_off_c, 1, 73, 0
1, 1080, Note_on_c, 1, 74, 127
1, 1080, Note_on_c, 1, 54, 127
1, 1104, Note_off_c, 1, 74, 0
1, 1110, Note_on_c, 1, 73, 127
1, 1110, Note_on_c, 1, 57, 127
1, 1134, Note_off_c, 1, 73, 0
1, 1272, Note_off_c, 1, 54, 0
1, 1278, Note_off_c, 1, 57, 0
1, 1320, Note_on_c, 1, 56, 127
1, 1365, Note_on_c, 1, 59, 127
1, 1440, Note_on_c, 1, 76, 127
1, 1512, Note_off_c, 1, 56, 0
1, 1533, Note_off_c, 1, 59, 0
1, 1536, Note_off_c, 1, 76, 0
1, 1560, Note_on_c, 1, 73, 127
1, 1560, Note_on_c, 1, 57, 127
1, 1584, Note_off_c, 1, 73, 0
1, 1590, Note_on_c, 1, 74, 127
1, 1614, Note_off_c, 1, 74, 0
1, 1680, Note_on_c, 1, 61, 127
1, 1800, Note_on_c, 1, 64, 127
1, 1848, Note_off_c, 1, 57, 0
1, 1920, Note_on_c, 1, 71, 127
1, 1920, Note_on_c, 1, 56, 127
1, 1968, Note_off_c, 1, 61, 0
1, 1992, Note_off_c, 1, 64, 0
1, 2016, Note_off_c, 1, 71, 0
1, 2016, Note_off_c, 1, 56, 0
1, 2040, Note_on_c, 1, 69, 127
1, 2040, Note_on_c, 1, 54, 127
1, 2136, Note_off_c, 1, 69, 0
1, 2136, Note_off_c, 1, 54, 0
1, 2160, Note_on_c, 1, 68, 127
1, 2160, Note_on_c, 1, 52, 127
1, 2256, Note_off_c, 1, 68, 0
1, 2256, Note_off_c, 1, 52, 0
1, 2280, Note_on_c, 1, 66, 127
1, 2280, Note_on_c, 1, 50, 127
1, 2376, Note_off_c, 1, 66, 0
1, 2376, Note_off_c, 1, 50, 0
1, 2400, Note_on_c, 1, 74, 127
1, 2400, Note_on_c, 1, 49, 127
1, 2496, Note_off_c, 1, 74, 0
1, 2496, Note_off_c, 1, 49, 0
1, 2520, Note_on_c, 1, 71, 127
1, 2520, Note_on_c, 1, 50, 127
1, 2544, Note_off_c, 1, 71, 0
1, 2550, Note_on_c, 1, 73, 127
1, 2574, Note_off_c, 1, 73, 0
1, 2640, Note_on_c, 1, 54, 127
1, 2712, Note_off_c, 1, 50, 0
1, 2760, Note_on_c, 1, 47, 127
1, 2832, Note_off_c, 1, 54, 0
1, 2880, Note_on_c, 1, 69, 127
1, 2952, Note_off_c, 1, 47, 0
1, 2976, Note_off_c, 1, 69, 0
1, 3000, Note_on_c, 1, 68, 127
1, 3000, Note_on_c, 1, 52, 127
1, 3120, Note_on_c, 1, 56, 127
1, 3240, Note_on_c, 1, 59, 127
1, 3288, Note_off_c, 1, 68, 0
1, 3360, Note_on_c, 1, 66, 127
1, 3384, Note_off_c, 1, 52, 0
1, 3456, Note_off_c, 1, 66, 0
1, 3480, Note_on_c, 1, 64, 127
1, 3480, Note_on_c, 1, 50, 127
1, 3576, Note_off_c, 1, 64, 0
1, 3672, Note_off_c, 1, 56, 0
1, 3672, Note_off_c, 1, 59, 0
1, 3672, Note_off_c, 1, 50, 0
1, 3720, Note_on_c, 1, 68, 127
1, 3720, Note_on_c, 1, 57, 127
1, 3720, Note_on_c, 1, 52, 127
1, 3720, Note_on_c, 1, 49, 127
1, 3816, Note_off_c, 1, 68, 0
1, 3840, Note_on_c, 1, 69, 127
1, 3912, Note_off_c, 1, 57, 0
1, 3912, Note_off_c, 1, 52, 0
1, 3912, Note_off_c, 1, 49, 0
1, 3936, Note_off_c, 1, 69, 0
1, 3960, Note_on_c, 1, 71, 127
1, 3960, Note_on_c, 1, 50, 127
1, 3960, Note_on_c, 1, 47, 127
1, 3984, Note_off_c, 1, 71, 0
1, 3990, Note_on_c, 1, 69, 127
1, 4014, Note_off_c, 1, 69, 0
1, 4080, Note_on_c, 1, 56, 127
1, 4152, Note_off_c, 1, 50, 0
1, 4152, Note_off_c, 1, 47, 0
1, 4176, Note_off_c, 1, 56, 0
1, 4200, Note_on_c, 1, 52, 127
1, 4200, Note_on_c, 1, 45, 127
1, 4320, Note_on_c, 1, 73, 127
1, 4320, Note_on_c, 1, 57, 127
1, 4392, Note_off_c, 1, 52, 0
1, 4392, Note_off_c, 1, 45, 0
1, 4416, Note_off_c, 1, 73, 0
1, 4416, Note_off_c, 1, 57, 0
1, 4440, Note_on_c, 1, 74, 127
1, 4440, Note_on_c, 1, 44, 127
1, 4560, Note_on_c, 1, 71, 127
1, 4560, Note_on_c, 1, 47, 127
1, 4656, Note_off_c, 1, 71, 0
1, 4656, Note_off_c, 1, 47, 0
1, 4680, Note_on_c, 1, 68, 127
1, 4680, Note_on_c, 1, 52, 127
1, 4728, Note_off_c, 1, 74, 0
1, 4728, Note_off_c, 1, 44, 0
1, 4800, Note_on_c, 1, 76, 127
1, 4800, Note_on_c, 1, 40, 127
1, 4872, Note_off_c, 1, 68, 0
1, 4896, Note_off_c, 1, 76, 0
1, 4896, Note_off_c, 1, 40, 0
1, 4920, Note_on_c, 1, 73, 127
1, 4920, Note_on_c, 1, 69, 127
1, 4920, Note_on_c, 1, 45, 127
1, 4944, Note_off_c, 1, 73, 0
1, 5064, Note_off_c, 1, 52, 0
1, 5112, Note_off_c, 1, 45, 0
1, 5160, Note_on_c, 1, 54, 127
1, 5160, Note_on_c, 1, 50, 127
1, 5304, Note_off_c, 1, 69, 0
1, 5352, Note_off_c, 1, 54, 0
1, 5352, Note_off_c, 1, 50, 0
1, 5400, Note_on_c, 1, 71, 127
1, 5400, Note_on_c, 1, 68, 127
1, 5400, Note_on_c, 1, 52, 127
1, 5424, Note_off_c, 1, 71, 0
1, 5430, Note_on_c, 1, 73, 127
1, 5454, Note_off_c, 1, 73, 0
1, 5640, Note_on_c, 1, 40, 127
1, 5760, Note_on_c, 1, 69, 127
1, 5784, Note_off_c, 1, 68, 0
1, 5784, Note_off_c, 1, 52, 0
1, 5832, Note_off_c, 1, 40, 0
1, 5856, Note_off_c, 1, 69, 0
1, 5880, Note_on_c, 1, 61, 127
1, 5880, Note_on_c, 1, 45, 127
1, 5910, Note_on_c, 1, 64, 127
1, 5940, Note_on_c, 1, 69, 127
1, 6000, Note_on_c, 1, 52, 127
1, 6096, Note_off_c, 1, 52, 0
1, 6120, Note_on_c, 1, 54, 127
1, 6216, Note_off_c, 1, 54, 0
1, 6228, Note_off_c, 1, 64, 0
1, 6240, Note_on_c, 1, 56, 127
1, 6264, Note_off_c, 1, 61, 0
1, 6264, Note_off_c, 1, 45, 0
1, 6336, Note_off_c, 1, 56, 0
1, 6360, Note_on_c, 1, 57, 127
1, 6456, Note_off_c, 1, 69, 0
1, 6480, Note_on_c, 1, 73, 127
1, 6552, Note_off_c, 1, 57, 0
1, 6576, Note_off_c, 1, 73, 0
1, 6600, Note_on_c, 1, 71, 127
1, 6600, Note_on_c, 1, 56, 127
1, 6696, Note_off_c, 1, 71, 0
1, 6696, Note_off_c, 1, 56, 0
1, 6720, Note_on_c, 1, 69, 127
1, 6720, Note_on_c, 1, 54, 127
1, 6816, Note_off_c, 1, 69, 0
1, 6816, Note_off_c, 1, 54, 0
1, 6840, Note_on_c, 1, 68, 127
1, 6840, Note_on_c, 1, 53, 127
1, 6864, Note_off_c, 1, 68, 0
1, 6870, Note_on_c, 1, 69, 127
1, 6894, Note_off_c, 1, 69, 0
1, 6960, Note_on_c, 1, 56, 127
1, 7032, Note_off_c, 1, 53, 0
1, 7080, Note_on_c, 1, 49, 127
1, 7272, Note_off_c, 1, 49, 0
1, 7320, Note_off_c, 1, 56, 0
1, 7320, Note_on_c, 1, 71, 127
1, 7320, Note_on_c, 1, 54, 127
1, 7416, Note_off_c, 1, 71, 0
1, 7608, Note_off_c, 1, 54, 0
1, 7680, Note_on_c, 1, 66, 127
1, 7680, Note_on_c, 1, 56, 127
1, 7776, Note_off_c, 1, 66, 0
1, 7776, Note_off_c, 1, 56, 0
1, 7800, Note_on_c, 1, 78, 127
1, 7800, Note_on_c, 1, 57, 127
1, 7824, Note_off_c, 1, 78, 0
1, 7830, Note_on_c, 1, 76, 127
1, 7854, Note_off_c, 1, 76, 0
1, 7896, Note_off_c, 1, 57, 0
1, 7920, Note_on_c, 1, 61, 127
1, 8016, Note_off_c, 1, 61, 0
1, 8040, Note_on_c, 1, 59, 127
1, 8136, Note_off_c, 1, 59, 0
1, 8160, Note_on_c, 1, 75, 127
1, 8160, Note_on_c, 1, 57, 127
1, 8256, Note_off_c, 1, 75, 0
1, 8256, Note_off_c, 1, 57, 0
1, 8280, Note_on_c, 1, 76, 127
1, 8280, Note_on_c, 1, 56, 127
1, 8304, Note_off_c, 1, 76, 0
1, 8310, Note_on_c, 1, 75, 127
1, 8310, Note_on_c, 1, 59, 127
1, 8334, Note_off_c, 1, 75, 0
1, 8472, Note_off_c, 1, 56, 0
1, 8478, Note_off_c, 1, 59, 0
1, 8520, Note_on_c, 1, 58, 127
1, 8550, Note_on_c, 1, 61, 127
1, 8640, Note_on_c, 1, 78, 127
1, 8712, Note_off_c, 1, 58, 0
1, 8718, Note_off_c, 1, 61, 0
1, 8736, Note_off_c, 1, 78, 0
1, 8760, Note_on_c, 1, 75, 127
1, 8760, Note_on_c, 1, 59, 127
1, 8880, Note_on_c, 1, 63, 127
1, 9000, Note_on_c, 1, 66, 127
1, 9048, Note_off_c, 1, 75, 0
1, 9120, Note_on_c, 1, 73, 127
1, 9144, Note_off_c, 1, 59, 0
1, 9216, Note_off_c, 1, 73, 0
1, 9240, Note_on_c, 1, 71, 127
1, 9240, Note_on_c, 1, 57, 127
1, 9336, Note_off_c, 1, 71, 0
1, 9432, Note_off_c, 1, 63, 0
1, 9432, Note_off_c, 1, 66, 0
1, 9432, Note_off_c, 1, 57, 0
1, 9480, Note_on_c, 1, 75, 127
1, 9480, Note_on_c, 1, 64, 127
1, 9480, Note_on_c, 1, 59, 127
1, 9480, Note_on_c, 1, 56, 127
1, 9576, Note_off_c, 1, 75, 0
1, 9600, Note_on_c, 1, 76, 127
1, 9672, Note_off_c, 1, 64, 0
1, 9672, Note_off_c, 1, 59, 0
1, 9672, Note_off_c, 1, 56, 0
1, 9696, Note_off_c, 1, 76, 0
1, 9720, Note_on_c, 1, 78, 127
1, 9720, Note_on_c, 1, 57, 127
1, 9720, Note_on_c, 1, 54, 127
1, 9744, Note_off_c, 1, 78, 0
1, 9750, Note_on_c, 1, 76, 127
1, 9774, Note_off_c, 1, 76, 0
1, 9840, Note_on_c, 1, 63, 127
1, 9912, Note_off_c, 1, 57, 0
1, 9912, Note_off_c, 1, 54, 0
1, 9936, Note_off_c, 1, 63, 0
1, 9960, Note_on_c, 1, 59, 127
1, 9960, Note_on_c, 1, 52, 127
1, 10080, Note_on_c, 1, 80, 127
1, 10080, Note_on_c, 1, 64, 127
1, 10152, Note_off_c, 1, 59, 0
1, 10152, Note_off_c, 1, 52, 0
1, 10176, Note_off_c, 1, 80, 0
1, 10176, Note_off_c, 1, 64, 0
1, 10200, Note_on_c, 1, 81, 127
1, 10200, Note_on_c, 1, 51, 127
1, 10320, Note_on_c, 1, 78, 127
1, 10320, Note_on_c, 1, 54, 127
1, 10416, Note_off_c, 1, 78, 0
1, 10416, Note_off_c, 1, 54, 0
1, 10440, Note_on_c, 1, 75, 127
1, 10440, Note_on_c, 1, 59, 127
1, 10488, Note_off_c, 1, 81, 0
1, 10488, Note_off_c, 1, 51, 0
1, 10560, Note_on_c, 1, 83, 127
1, 10560, Note_on_c, 1, 47, 127
1, 10632, Note_off_c, 1, 75, 0
1, 10656, Note_off_c, 1, 83, 0
1, 10656, Note_off_c, 1, 47, 0
1, 10680, Note_on_c, 1, 80, 127
1, 10680, Note_on_c, 1, 76, 127
1, 10680, Note_on_c, 1, 52, 127
1, 10704, Note_off_c, 1, 80, 0
1, 10824, Note_off_c, 1, 59, 0
1, 10872, Note_off_c, 1, 52, 0
1, 10920, Note_on_c, 1, 57, 127
1, 10920, Note_on_c, 1, 61, 127
1, 11064, Note_off_c, 1, 76, 0
1, 11112, Note_off_c, 1, 57, 0
1, 11112, Note_off_c, 1, 61, 0
1, 11160, Note_on_c, 1, 78, 127
1, 11160, Note_on_c, 1, 75, 127
1, 11160, Note_on_c, 1, 59, 127
1, 11184, Note_off_c, 1, 78, 0
1, 11190, Note_on_c, 1, 80, 127
1, 11214, Note_off_c, 1, 80, 0
1, 11400, Note_on_c, 1, 56, 127
1, 11520, Note_on_c, 1, 76, 127
1, 11544, Note_off_c, 1, 75, 0
1, 11544, Note_off_c, 1, 59, 0
1, 11592, Note_off_c, 1, 56, 0
1, 11616, Note_off_c, 1, 76, 0
1, 11640, Note_on_c, 1, 76, 127
1, 11640, Note_on_c, 1, 61, 127
1, 11736, Note_off_c, 1, 61, 0
1, 11760, Note_on_c, 1, 63, 127
1, 11856, Note_off_c, 1, 63, 0
1, 12000, Note_on_c, 1, 75, 127
1, 12000, Note_on_c, 1, 59, 127
1, 12096, Note_off_c, 1, 75, 0
1, 12096, Note_off_c, 1, 59, 0
1, 12120, Note_on_c, 1, 73, 127
1, 12120, Note_on_c, 1, 57, 127
1, 12216, Note_off_c, 1, 73, 0
1, 12216, Note_off_c, 1, 57, 0
1, 12240, Note_on_c, 1, 71, 127
1, 12240, Note_on_c, 1, 56, 127
1, 12336, Note_off_c, 1, 71, 0
1, 12336, Note_off_c, 1, 56, 0
1, 12360, Note_on_c, 1, 69, 127
1, 12360, Note_on_c, 1, 54, 127
1, 12456, Note_off_c, 1, 69, 0
1, 12456, Note_off_c, 1, 54, 0
1, 12480, Note_on_c, 1, 68, 127
1, 12480, Note_on_c, 1, 52, 127
1, 12576, Note_off_c, 1, 68, 0
1, 12576, Note_off_c, 1, 52, 0
1, 12600, Note_on_c, 1, 66, 127
1, 12744, Note_off_c, 1, 76, 0
1, 12840, Note_on_c, 1, 47, 127
1, 12984, Note_off_c, 1, 66, 0
1, 13032, Note_off_c, 1, 47, 0
1, 13080, Note_on_c, 1, 76, 127
1, 13080, Note_on_c, 1, 52, 127
1, 13320, Note_on_c, 1, 40, 127
1, 13440, Note_on_c, 1, 71, 127
1, 13464, Note_off_c, 1, 52, 0
1, 13536, Note_off_c, 1, 71, 0
1, 13560, Note_on_c, 1, 73, 127
1, 13560, Note_on_c, 1, 47, 127
1, 13656, Note_off_c, 1, 76, 0
1, 13656, Note_off_c, 1, 73, 0
1, 13680, Note_on_c, 1, 69, 127
1, 13752, Note_off_c, 1, 47, 0
1, 13776, Note_off_c, 1, 69, 0
1, 13800, Note_on_c, 1, 68, 127
1, 14184, Note_off_c, 1, 40, 0
1, 14184, Note_off_c, 1, 68, 0
1, 14520, Note_on_c, 1, 81, 127
1, 14616, Note_off_c, 1, 81, 0
1, 14640, Note_on_c, 1, 73, 127
1, 14640, Note_on_c, 1, 57, 127
1, 14670, Note_on_c, 1, 76, 127
1, 14700, Note_on_c, 1, 81, 127
1, 14760, Note_on_c, 1, 45, 127
1, 14856, Note_off_c, 1, 45, 0
1, 14880, Note_on_c, 1, 47, 127
1, 14928, Note_off_c, 1, 73, 0
1, 14952, Note_off_c, 1, 76, 0
1, 14952, Note_off_c, 1, 81, 0
1, 14976, Note_off_c, 1, 47, 0
1, 15000, Note_on_c, 1, 80, 127
1, 15000, Note_on_c, 1, 49, 127
1, 15096, Note_off_c, 1, 80, 0
1, 15096, Note_off_c, 1, 49, 0
1, 15120, Note_on_c, 1, 78, 127
1, 15120, Note_on_c, 1, 50, 127
1, 15216, Note_off_c, 1, 57, 0
1, 15216, Note_off_c, 1, 78, 0
1, 15312, Note_off_c, 1, 50, 0
1, 15360, Note_on_c, 1, 74, 127
1, 15360, Note_on_c, 1, 52, 127
1, 15390, Note_on_c, 1, 56, 127
1, 15456, Note_off_c, 1, 74, 0
1, 15480, Note_on_c, 1, 73, 127
1, 15552, Note_off_c, 1, 52, 0
1, 15558, Note_off_c, 1, 56, 0
1, 15576, Note_off_c, 1, 73, 0
1, 15600, Note_on_c, 1, 74, 127
1, 15600, Note_on_c, 1, 54, 127
1, 15624, Note_off_c, 1, 74, 0
1, 15630, Note_on_c, 1, 73, 127
1, 15630, Note_on_c, 1, 57, 127
1, 15654, Note_off_c, 1, 73, 0
1, 15792, Note_off_c, 1, 54, 0
1, 15798, Note_off_c, 1, 57, 0
1, 15840, Note_on_c, 1, 56, 127
1, 15885, Note_on_c, 1, 59, 127
1, 15960, Note_on_c, 1, 76, 127
1, 16032, Note_off_c, 1, 56, 0
1, 16053, Note_off_c, 1, 59, 0
1, 16056, Note_off_c, 1, 76, 0
1, 16080, Note_on_c, 1, 73, 127
1, 16080, Note_on_c, 1, 57, 127
1, 16104, Note_off_c, 1, 73, 0
1, 16110, Note_on_c, 1, 74, 127
1, 16134, Note_off_c, 1, 74, 0
1, 16200, Note_on_c, 1, 61, 127
1, 16320, Note_on_c, 1, 64, 127
1, 16368, Note_off_c, 1, 57, 0
1, 16440, Note_on_c, 1, 71, 127
1, 16440, Note_on_c, 1, 56, 127
1, 16488, Note_off_c, 1, 61, 0
1, 16512, Note_off_c, 1, 64, 0
1, 16536, Note_off_c, 1, 71, 0
1, 16536, Note_off_c, 1, 56, 0
1, 16560, Note_on_c, 1, 69, 127
1, 16560, Note_on_c, 1, 54, 127
1, 16656, Note_off_c, 1, 69, 0
1, 16656, Note_off_c, 1, 54, 0
1, 16680, Note_on_c, 1, 68, 127
1, 16680, Note_on_c, 1, 52, 127
1, 16776, Note_off_c, 1, 68, 0
1, 16776, Note_off_c, 1, 52, 0
1, 16800, Note_on_c, 1, 66, 127
1, 16800, Note_on_c, 1, 50, 127
1, 16896, Note_off_c, 1, 66, 0
1, 16896, Note_off_c, 1, 50, 0
1, 16920, Note_on_c, 1, 74, 127
1, 16920, Note_on_c, 1, 49, 127
1, 17016, Note_off_c, 1, 74, 0
1, 17016, Note_off_c, 1, 49, 0
1, 17040, Note_on_c, 1, 71, 127
1, 17040, Note_on_c, 1, 50, 127
1, 17064, Note_off_c, 1, 71, 0
1, 17070, Note_on_c, 1, 73, 127
1, 17094, Note_off_c, 1, 73, 0
1, 17160, Note_on_c, 1, 54, 127
1, 17232, Note_off_c, 1, 50, 0
1, 17280, Note_on_c, 1, 47, 127
1, 17352, Note_off_c, 1, 54, 0
1, 17400, Note_on_c, 1, 69, 127
1, 17472, Note_off_c, 1, 47, 0
1, 17496, Note_off_c, 1, 69, 0
1, 17520, Note_on_c, 1, 68, 127
1, 17520, Note_on_c, 1, 52, 127
1, 17640, Note_on_c, 1, 56, 127
1, 17760, Note_on_c, 1, 59, 127
1, 17808, Note_off_c, 1, 68, 0
1, 17880, Note_on_c, 1, 66, 127
1, 17904, Note_off_c, 1, 52, 0
1, 17976, Note_off_c, 1, 66, 0
1, 18000, Note_on_c, 1, 64, 127
1, 18000, Note_on_c, 1, 50, 127
1, 18096, Note_off_c, 1, 64, 0
1, 18192, Note_off_c, 1, 56, 0
1, 18192, Note_off_c, 1, 59, 0
1, 18192, Note_off_c, 1, 50, 0
1, 18240, Note_on_c, 1, 68, 127
1, 18240, Note_on_c, 1, 57, 127
1, 18240, Note_on_c, 1, 52, 127
1, 18240, Note_on_c, 1, 49, 127
1, 18336, Note_off_c, 1, 68, 0
1, 18360, Note_on_c, 1, 69, 127
1, 18432, Note_off_c, 1, 57, 0
1, 18432, Note_off_c, 1, 52, 0
1, 18432, Note_off_c, 1, 49, 0
1, 18456, Note_off_c, 1, 69, 0
1, 18480, Note_on_c, 1, 71, 127
1, 18480, Note_on_c, 1, 50, 127
1, 18480, Note_on_c, 1, 47, 127
1, 18504, Note_off_c, 1, 71, 0
1, 18510, Note_on_c, 1, 69, 127
1, 18534, Note_off_c, 1, 69, 0
1, 18600, Note_on_c, 1, 56, 127
1, 18672, Note_off_c, 1, 50, 0
1, 18672, Note_off_c, 1, 47, 0
1, 18696, Note_off_c, 1, 56, 0
1, 18720, Note_on_c, 1, 52, 127
1, 18720, Note_on_c, 1, 45, 127
1, 18840, Note_on_c, 1, 73, 127
1, 18840, Note_on_c, 1, 57, 127
1, 18912, Note_off_c, 1, 52, 0
1, 18912, Note_off_c, 1, 45, 0
1, 18936, Note_off_c, 1, 73, 0
1, 18936, Note_off_c, 1, 57, 0
1, 18960, Note_on_c, 1, 74, 127
1, 18960, Note_on_c, 1, 44, 127
1, 19080, Note_on_c, 1, 71, 127
1, 19080, Note_on_c, 1, 47, 127
1, 19176, Note_off_c, 1, 71, 0
1, 19176, Note_off_c, 1, 47, 0
1, 19200, Note_on_c, 1, 68, 127
1, 19200, Note_on_c, 1, 52, 127
1, 19248, Note_off_c, 1, 74, 0
1, 19248, Note_off_c, 1, 44, 0
1, 19320, Note_on_c, 1, 76, 127
1, 19320, Note_on_c, 1, 40, 127
1, 19392, Note_off_c, 1, 68, 0
1, 19416, Note_off_c, 1, 76, 0
1, 19416, Note_off_c, 1, 40, 0
1, 19440, Note_on_c, 1, 73, 127
1, 19440, Note_on_c, 1, 69, 127
1, 19440, Note_on_c, 1, 45, 127
1, 19464, Note_off_c, 1, 73, 0
1, 19584, Note_off_c, 1, 52, 0
1, 19632, Note_off_c, 1, 45, 0
1, 19680, Note_on_c, 1, 54, 127
1, 19680, Note_on_c, 1, 50, 127
1, 19824, Note_off_c, 1, 69, 0
1, 19872, Note_off_c, 1, 54, 0
1, 19872, Note_off_c, 1, 50, 0
1, 19920, Note_on_c, 1, 71, 127
1, 19920, Note_on_c, 1, 68, 127
1, 19920, Note_on_c, 1, 52, 127
1, 19944, Note_off_c, 1, 71, 0
1, 19950, Note_on_c, 1, 73, 127
1, 19974, Note_off_c, 1, 73, 0
1, 20160, Note_on_c, 1, 40, 127
1, 20280, Note_on_c, 1, 69, 127
1, 20304, Note_off_c, 1, 68, 0
1, 20304, Note_off_c, 1, 52, 0
1, 20352, Note_off_c, 1, 40, 0
1, 20376, Note_off_c, 1, 69, 0
1, 20400, Note_on_c, 1, 61, 127
1, 20400, Note_on_c, 1, 45, 127
1, 20430, Note_on_c, 1, 64, 127
1, 20460, Note_on_c, 1, 69, 127
1, 20520, Note_on_c, 1, 52, 127
1, 20616, Note_off_c, 1, 52, 0
1, 20640, Note_on_c, 1, 54, 127
1, 20736, Note_off_c, 1, 54, 0
1, 20748, Note_off_c, 1, 64, 0
1, 20760, Note_on_c, 1, 56, 127
1, 20784, Note_off_c, 1, 61, 0
1, 20784, Note_off_c, 1, 45, 0
1, 20856, Note_off_c, 1, 56, 0
1, 20880, Note_on_c, 1, 57, 127
1, 20976, Note_off_c, 1, 69, 0
1, 21000, Note_on_c, 1, 73, 127
1, 21072, Note_off_c, 1, 57, 0
1, 21096, Note_off_c, 1, 73, 0
1, 21120, Note_on_c, 1, 71, 127
1, 21120, Note_on_c, 1, 56, 127
1, 21216, Note_off_c, 1, 71, 0
1, 21216, Note_off_c, 1, 56, 0
1, 21240, Note_on_c, 1, 69, 127
1, 21240, Note_on_c, 1, 54, 127
1, 21336, Note_off_c, 1, 69, 0
1, 21336, Note_off_c, 1, 54, 0
1, 21360, Note_on_c, 1, 68, 127
1, 21360, Note_on_c, 1, 53, 127
1, 21384, Note_off_c, 1, 68, 0
1, 21390, Note_on_c, 1, 69, 127
1, 21414, Note_off_c, 1, 69, 0
1, 21480, Note_on_c, 1, 56, 127
1, 21552, Note_off_c, 1, 53, 0
1, 21600, Note_on_c, 1, 49, 127
1, 21792, Note_off_c, 1, 49, 0
1, 21840, Note_off_c, 1, 56, 0
1, 21840, Note_on_c, 1, 71, 127
1, 21840, Note_on_c, 1, 54, 127
1, 21936, Note_off_c, 1, 71, 0
1, 22128, Note_off_c, 1, 54, 0
1, 22200, Note_on_c, 1, 66, 127
1, 22200, Note_on_c, 1, 56, 127
1, 22296, Note_off_c, 1, 66, 0
1, 22296, Note_off_c, 1, 56, 0
1, 22320, Note_on_c, 1, 78, 127
1, 22320, Note_on_c, 1, 57, 127
1, 22344, Note_off_c, 1, 78, 0
1, 22350, Note_on_c, 1, 76, 127
1, 22374, Note_off_c, 1, 76, 0
1, 22416, Note_off_c, 1, 57, 0
1, 22440, Note_on_c, 1, 61, 127
1, 22536, Note_off_c, 1, 61, 0
1, 22560, Note_on_c, 1, 59, 127
1, 22656, Note_off_c, 1, 59, 0
1, 22680, Note_on_c, 1, 75, 127
1, 22680, Note_on_c, 1, 57, 127
1, 22776, Note_off_c, 1, 75, 0
1, 22776, Note_off_c, 1, 57, 0
1, 22800, Note_on_c, 1, 76, 127
1, 22800, Note_on_c, 1, 56, 127
1, 22824, Note_off_c, 1, 76, 0
1, 22830, Note_on_c, 1, 75, 127
1, 22830, Note_on_c, 1, 59, 127
1, 22854, Note_off_c, 1, 75, 0
1, 22992, Note_off_c, 1, 56, 0
1, 22998, Note_off_c, 1, 59, 0
1, 23040, Note_on_c, 1, 58, 127
1, 23070, Note_on_c, 1, 61, 127
1, 23160, Note_on_c, 1, 78, 127
1, 23232, Note_off_c, 1, 58, 0
1, 23238, Note_off_c, 1, 61, 0
1, 23256, Note_off_c, 1, 78, 0
1, 23280, Note_on_c, 1, 75, 127
1, 23280, Note_on_c, 1, 59, 127
1, 23400, Note_on_c, 1, 63, 127
1, 23520, Note_on_c, 1, 66, 127
1, 23568, Note_off_c, 1, 75, 0
1, 23640, Note_on_c, 1, 73, 127
1, 23664, Note_off_c, 1, 59, 0
1, 23736, Note_off_c, 1, 73, 0
1, 23760, Note_on_c, 1, 71, 127
1, 23760, Note_on_c, 1, 57, 127
1, 23856, Note_off_c, 1, 71, 0
1, 23952, Note_off_c, 1, 63, 0
1, 23952, Note_off_c, 1, 66, 0
1, 23952, Note_off_c, 1, 57, 0
1, 24000, Note_on_c, 1, 75, 127
1, 24000, Note_on_c, 1, 64, 127
1, 24000, Note_on_c, 1, 59, 127
1, 24000, Note_on_c, 1, 56, 127
1, 24096, Note_off_c, 1, 75, 0
1, 24120, Note_on_c, 1, 76, 127
1, 24192, Note_off_c, 1, 64, 0
1, 24192, Note_off_c, 1, 59, 0
1, 24192, Note_off_c, 1, 56, 0
1, 24216, Note_off_c, 1, 76, 0
1, 24240, Note_on_c, 1, 78, 127
1, 24240, Note_on_c, 1, 57, 127
1, 24240, Note_on_c, 1, 54, 127
1, 24264, Note_off_c, 1, 78, 0
1, 24270, Note_on_c, 1, 76, 127
1, 24294, Note_off_c, 1, 76, 0
1, 24360, Note_on_c, 1, 63, 127
1, 24432, Note_off_c, 1, 57, 0
1, 24432, Note_off_c, 1, 54, 0
1, 24456, Note_off_c, 1, 63, 0
1, 24480, Note_on_c, 1, 59, 127
1, 24480, Note_on_c, 1, 52, 127
1, 24600, Note_on_c, 1, 80, 127
1, 24600, Note_on_c, 1, 64, 127
1, 24672, Note_off_c, 1, 59, 0
1, 24672, Note_off_c, 1, 52, 0
1, 24696, Note_off_c, 1, 80, 0
1, 24696, Note_off_c, 1, 64, 0
1, 24720, Note_on_c, 1, 81, 127
1, 24720, Note_on_c, 1, 51, 127
1, 24840, Note_on_c, 1, 78, 127
1, 24840, Note_on_c, 1, 54, 127
1, 24936, Note_off_c, 1, 78, 0
1, 24936, Note_off_c, 1, 54, 0
1, 24960, Note_on_c, 1, 75, 127
1, 24960, Note_on_c, 1, 59, 127
1, 25008, Note_off_c, 1, 81, 0
1, 25008, Note_off_c, 1, 51, 0
1, 25080, Note_on_c, 1, 83, 127
1, 25080, Note_on_c, 1, 47, 127
1, 25152, Note_off_c, 1, 75, 0
1, 25176, Note_off_c, 1, 83, 0
1, 25176, Note_off_c, 1, 47, 0
1, 25200, Note_on_c, 1, 80, 127
1, 25200, Note_on_c, 1, 76, 127
1, 25200, Note_on_c, 1, 52, 127
1, 25224, Note_off_c, 1, 80, 0
1, 25344, Note_off_c, 1, 59, 0
1, 25392, Note_off_c, 1, 52, 0
1, 25440, Note_on_c, 1, 57, 127
1, 25440, Note_on_c, 1, 61, 127
1, 25584, Note_off_c, 1, 76, 0
1, 25632, Note_off_c, 1, 57, 0
1, 25632, Note_off_c, 1, 61, 0
1, 25680, Note_on_c, 1, 78, 127
1, 25680, Note_on_c, 1, 75, 127
1, 25680, Note_on_c, 1, 59, 127
1, 25704, Note_off_c, 1, 78, 0
1, 25710, Note_on_c, 1, 80, 127
1, 25734, Note_off_c, 1, 80, 0
1, 25920, Note_on_c, 1, 56, 127
1, 26040, Note_on_c, 1, 76, 127
1, 26064, Note_off_c, 1, 75, 0
1, 26064, Note_off_c, 1, 59, 0
1, 26112, Note_off_c, 1, 56, 0
1, 26136, Note_off_c, 1, 76, 0
1, 26160, Note_on_c, 1, 76, 127
1, 26160, Note_on_c, 1, 61, 127
1, 26256, Note_off_c, 1, 61, 0
1, 26280, Note_on_c, 1, 63, 127
1, 26376, Note_off_c, 1, 63, 0
1, 26520, Note_on_c, 1, 75, 127
1, 26520, Note_on_c, 1, 59, 127
1, 26616, Note_off_c, 1, 75, 0
1, 26616, Note_off_c, 1, 59, 0
1, 26640, Note_on_c, 1, 73, 127
1, 26640, Note_on_c, 1, 57, 127
1, 26736, Note_off_c, 1, 73, 0
1, 26736, Note_off_c, 1, 57, 0
1, 26760, Note_on_c, 1, 71, 127
1, 26760, Note_on_c, 1, 56, 127
1, 26856, Note_off_c, 1, 71, 0
1, 26856, Note_off_c, 1, 56, 0
1, 26880, Note_on_c, 1, 69, 127
1, 26880, Note_on_c, 1, 54, 127
1, 26976, Note_off_c, 1, 69, 0
1, 26976, Note_off_c, 1, 54, 0
1, 27000, Note_on_c, 1, 68, 127
1, 27000, Note_on_c, 1, 52, 127
1, 27096, Note_off_c, 1, 68, 0
1, 27096, Note_off_c, 1, 52, 0
1, 27120, Note_on_c, 1, 66, 127
1, 27264, Note_off_c, 1, 76, 0
1, 27360, Note_on_c, 1, 47, 127
1, 27504, Note_off_c, 1, 66, 0
1, 27552, Note_off_c, 1, 47, 0
1, 27600, Note_on_c, 1, 76, 127
1, 27600, Note_on_c, 1, 52, 127
1, 27840, Note_on_c, 1, 40, 127
1, 27960, Note_on_c, 1, 71, 127
1, 27984, Note_off_c, 1, 52, 0
1, 28056, Note_off_c, 1, 71, 0
1, 28080, Note_on_c, 1, 73, 127
1, 28080, Note_on_c, 1, 47, 127
1, 28176, Note_off_c, 1, 76, 0
1, 28176, Note_off_c, 1, 73, 0
1, 28200, Note_on_c, 1, 69, 127
1, 28272, Note_off_c, 1, 47, 0
1, 28296, Note_off_c, 1, 69, 0
1, 28320, Note_on_c, 1, 68, 127
1, 28704, Note_off_c, 1, 40, 0
1, 28704, Note_off_c, 1, 68, 0
1, 29040, Note_on_c, 1, 71, 127
1, 29136, Note_off_c, 1, 71, 0
1, 29160, Note_on_c, 1, 64, 127
1, 29160, Note_on_c, 1, 40, 127
1, 29190, Note_on_c, 1, 68, 127
1, 29220, Note_on_c, 1, 71, 127
1, 29280, Note_on_c, 1, 47, 127
1, 29376, Note_off_c, 1, 47, 0
1, 29400, Note_on_c, 1, 49, 127
1, 29448, Note_off_c, 1, 64, 0
1, 29472, Note_off_c, 1, 68, 0
1, 29472, Note_off_c, 1, 71, 0
1, 29496, Note_off_c, 1, 49, 0
1, 29520, Note_on_c, 1, 69, 127
1, 29520, Note_on_c, 1, 51, 127
1, 29544, Note_off_c, 1, 40, 0
1, 29616, Note_off_c, 1, 69, 0
1, 29616, Note_off_c, 1, 51, 0
1, 29640, Note_on_c, 1, 68, 127
1, 29640, Note_on_c, 1, 52, 127
1, 29736, Note_off_c, 1, 68, 0
1, 29760, Note_on_c, 1, 69, 127
1, 29760, Note_on_c, 1, 54, 127
1, 29856, Note_off_c, 1, 69, 0
1, 29856, Note_off_c, 1, 54, 0
1, 29880, Note_on_c, 1, 71, 127
1, 29880, Note_on_c, 1, 56, 127
1, 29976, Note_off_c, 1, 71, 0
1, 30000, Note_on_c, 1, 73, 127
1, 30024, Note_off_c, 1, 52, 0
1, 30072, Note_off_c, 1, 56, 0
1, 30096, Note_off_c, 1, 73, 0
1, 30120, Note_on_c, 1, 74, 127
1, 30120, Note_on_c, 1, 54, 127
1, 30144, Note_off_c, 1, 74, 0
1, 30150, Note_on_c, 1, 73, 127
1, 30150, Note_on_c, 1, 57, 127
1, 30174, Note_off_c, 1, 73, 0
1, 30312, Note_off_c, 1, 54, 0
1, 30318, Note_off_c, 1, 57, 0
1, 30360, Note_on_c, 1, 56, 127
1, 30390, Note_on_c, 1, 59, 127
1, 30480, Note_on_c, 1, 76, 127
1, 30552, Note_off_c, 1, 56, 0
1, 30558, Note_off_c, 1, 59, 0
1, 30576, Note_off_c, 1, 76, 0
1, 30600, Note_on_c, 1, 73, 127
1, 30600, Note_on_c, 1, 57, 127
1, 30624, Note_off_c, 1, 73, 0
1, 30630, Note_on_c, 1, 74, 127
1, 30654, Note_off_c, 1, 74, 0
1, 30720, Note_on_c, 1, 61, 127
1, 30816, Note_off_c, 1, 61, 0
1, 30840, Note_on_c, 1, 64, 127
1, 30888, Note_off_c, 1, 57, 0
1, 30960, Note_on_c, 1, 71, 127
1, 30960, Note_on_c, 1, 59, 127
1, 31056, Note_off_c, 1, 71, 0
1, 31056, Note_off_c, 1, 59, 0
1, 31080, Note_on_c, 1, 69, 127
1, 31176, Note_off_c, 1, 69, 0
1, 31200, Note_on_c, 1, 81, 127
1, 31224, Note_off_c, 1, 64, 0
1, 31296, Note_off_c, 1, 81, 0
1, 31320, Note_on_c, 1, 80, 127
1, 31320, Note_on_c, 1, 57, 127
1, 31320, Note_on_c, 1, 61, 127
1, 31416, Note_off_c, 1, 80, 0
1, 31440, Note_on_c, 1, 78, 127
1, 31512, Note_off_c, 1, 57, 0
1, 31512, Note_off_c, 1, 61, 0
1, 31536, Note_off_c, 1, 78, 0
1, 31560, Note_on_c, 1, 83, 127
1, 31560, Note_on_c, 1, 62, 127
1, 31560, Note_on_c, 1, 66, 127
1, 31656, Note_off_c, 1, 83, 0
1, 31680, Note_on_c, 1, 80, 127
1, 31752, Note_off_c, 1, 62, 0
1, 31752, Note_off_c, 1, 66, 0
1, 31776, Note_off_c, 1, 80, 0
1, 31800, Note_on_c, 1, 81, 127
1, 31800, Note_on_c, 1, 59, 127
1, 31800, Note_on_c, 1, 62, 127
1, 31896, Note_off_c, 1, 81, 0
1, 31920, Note_on_c, 1, 78, 127
1, 31992, Note_off_c, 1, 59, 0
1, 31992, Note_off_c, 1, 62, 0
1, 32016, Note_off_c, 1, 78, 0
1, 32040, Note_on_c, 1, 77, 127
1, 32040, Note_on_c, 1, 61, 127
1, 32160, Note_on_c, 1, 73, 127
1, 32280, Note_on_c, 1, 68, 127
1, 32328, Note_off_c, 1, 61, 0
1, 32400, Note_on_c, 1, 59, 127
1, 32496, Note_off_c, 1, 59, 0
1, 32520, Note_on_c, 1, 57, 127
1, 32616, Note_off_c, 1, 77, 0
1, 32616, Note_off_c, 1, 57, 0
1, 32640, Note_on_c, 1, 56, 127
1, 32664, Note_off_c, 1, 68, 0
1, 32736, Note_off_c, 1, 56, 0
1, 32760, Note_off_c, 1, 73, 0
1, 32760, Note_on_c, 1, 69, 127
1, 32760, Note_on_c, 1, 54, 127
1, 32820, Note_on_c, 1, 78, 127
1, 32856, Note_off_c, 1, 54, 0
1, 32880, Note_on_c, 1, 53, 127
1, 32933, Note_off_c, 1, 78, 0
1, 32952, Note_off_c, 1, 69, 0
1, 32976, Note_off_c, 1, 53, 0
1, 33000, Note_on_c, 1, 74, 127
1, 33000, Note_on_c, 1, 54, 127
1, 33024, Note_off_c, 1, 74, 0
1, 33030, Note_on_c, 1, 73, 127
1, 33030, Note_on_c, 1, 57, 127
1, 33054, Note_off_c, 1, 73, 0
1, 33192, Note_off_c, 1, 54, 0
1, 33198, Note_off_c, 1, 57, 0
1, 33240, Note_on_c, 1, 56, 127
1, 33270, Note_on_c, 1, 59, 127
1, 33360, Note_on_c, 1, 76, 127
1, 33432, Note_off_c, 1, 56, 0
1, 33438, Note_off_c, 1, 59, 0
1, 33456, Note_off_c, 1, 76, 0
1, 33480, Note_on_c, 1, 73, 127
1, 33480, Note_on_c, 1, 57, 127
1, 33600, Note_on_c, 1, 61, 127
1, 33696, Note_off_c, 1, 61, 0
1, 33720, Note_on_c, 1, 66, 127
1, 33768, Note_off_c, 1, 73, 0
1, 33768, Note_off_c, 1, 57, 0
1, 33840, Note_on_c, 1, 74, 127
1, 33840, Note_on_c, 1, 59, 127
1, 33912, Note_off_c, 1, 66, 0
1, 33936, Note_off_c, 1, 74, 0
1, 33936, Note_off_c, 1, 59, 0
1, 33960, Note_on_c, 1, 71, 127
1, 33960, Note_on_c, 1, 65, 127
1, 33960, Note_on_c, 1, 56, 127
1, 33984, Note_off_c, 1, 71, 0
1, 33990, Note_on_c, 1, 73, 127
1, 34014, Note_off_c, 1, 73, 0
1, 34152, Note_off_c, 1, 65, 0
1, 34152, Note_off_c, 1, 56, 0
1, 34200, Note_on_c, 1, 66, 127
1, 34200, Note_on_c, 1, 54, 127
1, 34320, Note_on_c, 1, 69, 127
1, 34392, Note_off_c, 1, 66, 0
1, 34392, Note_off_c, 1, 54, 0
1, 34416, Note_off_c, 1, 69, 0
1, 34440, Note_on_c, 1, 68, 127
1, 34440, Note_on_c, 1, 65, 127
1, 34440, Note_on_c, 1, 61, 127
1, 34464, Note_off_c, 1, 68, 0
1, 34470, Note_on_c, 1, 69, 127
1, 34494, Note_off_c, 1, 69, 0
1, 34632, Note_off_c, 1, 61, 0
1, 34680, Note_on_c, 1, 49, 127
1, 34800, Note_on_c, 1, 66, 127
1, 34824, Note_off_c, 1, 65, 0
1, 34872, Note_off_c, 1, 49, 0
1, 34896, Note_off_c, 1, 66, 0
1, 34920, Note_on_c, 1, 57, 127
1, 34920, Note_on_c, 1, 42, 127
1, 34950, Note_on_c, 1, 61, 127
1, 34980, Note_on_c, 1, 66, 127
1, 35040, Note_on_c, 1, 49, 127
1, 35136, Note_off_c, 1, 49, 0
1, 35160, Note_on_c, 1, 50, 127
1, 35256, Note_off_c, 1, 50, 0
1, 35280, Note_on_c, 1, 52, 127
1, 35304, Note_off_c, 1, 57, 0
1, 35304, Note_off_c, 1, 42, 0
1, 35328, Note_off_c, 1, 61, 0
1, 35376, Note_off_c, 1, 52, 0
1, 35400, Note_on_c, 1, 54, 127
1, 35496, Note_off_c, 1, 66, 0
1, 35520, Note_on_c, 1, 78, 127
1, 35592, Note_off_c, 1, 54, 0
1, 35616, Note_off_c, 1, 78, 0
1, 35640, Note_on_c, 1, 76, 127
1, 35640, Note_on_c, 1, 56, 127
1, 35736, Note_off_c, 1, 76, 0
1, 35760, Note_on_c, 1, 74, 127
1, 35760, Note_on_c, 1, 59, 127
1, 35832, Note_off_c, 1, 56, 0
1, 35856, Note_off_c, 1, 74, 0
1, 35856, Note_off_c, 1, 59, 0
1, 35880, Note_on_c, 1, 73, 127
1, 35880, Note_on_c, 1, 58, 127
1, 35904, Note_off_c, 1, 73, 0
1, 35910, Note_on_c, 1, 74, 127
1, 35934, Note_off_c, 1, 74, 0
1, 36000, Note_on_c, 1, 61, 127
1, 36072, Note_off_c, 1, 58, 0
1, 36120, Note_on_c, 1, 54, 127
1, 36288, Note_off_c, 1, 61, 0
1, 36312, Note_off_c, 1, 54, 0
1, 36360, Note_on_c, 1, 76, 127
1, 36360, Note_on_c, 1, 59, 127
1, 36456, Note_off_c, 1, 76, 0
1, 36480, Note_on_c, 1, 74, 127
1, 36576, Note_off_c, 1, 74, 0
1, 36600, Note_on_c, 1, 73, 127
1, 36648, Note_off_c, 1, 59, 0
1, 36696, Note_off_c, 1, 73, 0
1, 36720, Note_on_c, 1, 71, 127
1, 36720, Note_on_c, 1, 61, 127
1, 36816, Note_off_c, 1, 71, 0
1, 36816, Note_off_c, 1, 61, 0
1, 36840, Note_on_c, 1, 83, 127
1, 36840, Note_on_c, 1, 62, 127
1, 36869, Note_off_c, 1, 83, 0
1, 36870, Note_on_c, 1, 81, 127
1, 36894, Note_off_c, 1, 81, 0
1, 36936, Note_off_c, 1, 62, 0
1, 36960, Note_on_c, 1, 66, 127
1, 37056, Note_off_c, 1, 66, 0
1, 37080, Note_on_c, 1, 64, 127
1, 37176, Note_off_c, 1, 64, 0
1, 37200, Note_on_c, 1, 80, 127
1, 37200, Note_on_c, 1, 62, 127
1, 37296, Note_off_c, 1, 80, 0
1, 37296, Note_off_c, 1, 62, 0
1, 37320, Note_on_c, 1, 81, 127
1, 37320, Note_on_c, 1, 61, 127
1, 37344, Note_off_c, 1, 81, 0
1, 37350, Note_on_c, 1, 80, 127
1, 37350, Note_on_c, 1, 64, 127
1, 37374, Note_off_c, 1, 80, 0
1, 37512, Note_off_c, 1, 61, 0
1, 37518, Note_off_c, 1, 64, 0
1, 37560, Note_on_c, 1, 63, 127
1, 37590, Note_on_c, 1, 66, 127
1, 37680, Note_on_c, 1, 83, 127
1, 37752, Note_off_c, 1, 63, 0
1, 37758, Note_off_c, 1, 66, 0
1, 37776, Note_off_c, 1, 83, 0
1, 37800, Note_on_c, 1, 80, 127
1, 37800, Note_on_c, 1, 64, 127
1, 37824, Note_off_c, 1, 80, 0
1, 37830, Note_on_c, 1, 81, 127
1, 37854, Note_off_c, 1, 81, 0
1, 37920, Note_on_c, 1, 68, 127
1, 38088, Note_off_c, 1, 64, 0
1, 38160, Note_on_c, 1, 78, 127
1, 38160, Note_on_c, 1, 62, 127
1, 38208, Note_off_c, 1, 68, 0
1, 38256, Note_off_c, 1, 78, 0
1, 38256, Note_off_c, 1, 62, 0
1, 38280, Note_on_c, 1, 76, 127
1, 38280, Note_on_c, 1, 71, 127
1, 38280, Note_on_c, 1, 61, 127
1, 38376, Note_off_c, 1, 76, 0
1, 38376, Note_off_c, 1, 61, 0
1, 38400, Note_on_c, 1, 74, 127
1, 38400, Note_on_c, 1, 59, 127
1, 38472, Note_off_c, 1, 71, 0
1, 38496, Note_off_c, 1, 74, 0
1, 38496, Note_off_c, 1, 59, 0
1, 38520, Note_on_c, 1, 73, 127
1, 38520, Note_on_c, 1, 57, 127
1, 38616, Note_off_c, 1, 73, 0
1, 38616, Note_off_c, 1, 57, 0
1, 38640, Note_on_c, 1, 71, 127
1, 38640, Note_on_c, 1, 56, 127
1, 38736, Note_off_c, 1, 71, 0
1, 38736, Note_off_c, 1, 56, 0
1, 38760, Note_on_c, 1, 69, 127
1, 38760, Note_on_c, 1, 54, 127
1, 38856, Note_off_c, 1, 69, 0
1, 38856, Note_off_c, 1, 54, 0
1, 38880, Note_on_c, 1, 68, 127
1, 38880, Note_on_c, 1, 52, 127
1, 38976, Note_off_c, 1, 68, 0
1, 38976, Note_off_c, 1, 52, 0
1, 39000, Note_on_c, 1, 69, 127
1, 39000, Note_on_c, 1, 50, 127
1, 39096, Note_off_c, 1, 69, 0
1, 39096, Note_off_c, 1, 50, 0
1, 39120, Note_on_c, 1, 66, 127
1, 39120, Note_on_c, 1, 49, 127
1, 39216, Note_off_c, 1, 66, 0
1, 39216, Note_off_c, 1, 49, 0
1, 39240, Note_on_c, 1, 74, 127
1, 39240, Note_on_c, 1, 47, 127
1, 39264, Note_off_c, 1, 74, 0
1, 39270, Note_on_c, 1, 73, 127
1, 39294, Note_off_c, 1, 73, 0
1, 39336, Note_off_c, 1, 47, 0
1, 39360, Note_on_c, 1, 45, 127
1, 39456, Note_off_c, 1, 45, 0
1, 39600, Note_on_c, 1, 76, 127
1, 39600, Note_on_c, 1, 44, 127
1, 39696, Note_off_c, 1, 76, 0
1, 39696, Note_off_c, 1, 44, 0
1, 39720, Note_on_c, 1, 73, 127
1, 39720, Note_on_c, 1, 45, 127
1, 39744, Note_off_c, 1, 73, 0
1, 39750, Note_on_c, 1, 74, 127
1, 39774, Note_off_c, 1, 74, 0
1, 39840, Note_on_c, 1, 71, 127
1, 39912, Note_off_c, 1, 45, 0
1, 39936, Note_off_c, 1, 71, 0
1, 39960, Note_on_c, 1, 69, 127
1, 39960, Note_on_c, 1, 50, 127
1, 40152, Note_off_c, 1, 69, 0
1, 40152, Note_off_c, 1, 50, 0
1, 40200, Note_on_c, 1, 71, 127
1, 40200, Note_on_c, 1, 68, 127
1, 40200, Note_on_c, 1, 52, 127
1, 40224, Note_off_c, 1, 71, 0
1, 40230, Note_on_c, 1, 73, 127
1, 40254, Note_off_c, 1, 73, 0
1, 40440, Note_on_c, 1, 49, 127
1, 40560, Note_on_c, 1, 69, 127
1, 40584, Note_off_c, 1, 68, 0
1, 40584, Note_off_c, 1, 52, 0
1, 40632, Note_off_c, 1, 49, 0
1, 40656, Note_off_c, 1, 69, 0
1, 40680, Note_on_c, 1, 69, 127
1, 40680, Note_on_c, 1, 54, 127
1, 40776, Note_off_c, 1, 54, 0
1, 40800, Note_on_c, 1, 56, 127
1, 40896, Note_off_c, 1, 56, 0
1, 41040, Note_on_c, 1, 68, 127
1, 41040, Note_on_c, 1, 52, 127
1, 41136, Note_off_c, 1, 68, 0
1, 41136, Note_off_c, 1, 52, 0
1, 41160, Note_on_c, 1, 66, 127
1, 41160, Note_on_c, 1, 50, 127
1, 41256, Note_off_c, 1, 66, 0
1, 41256, Note_off_c, 1, 50, 0
1, 41280, Note_on_c, 1, 64, 127
1, 41280, Note_on_c, 1, 49, 127
1, 41376, Note_off_c, 1, 64, 0
1, 41376, Note_off_c, 1, 49, 0
1, 41400, Note_on_c, 1, 62, 127
1, 41400, Note_on_c, 1, 47, 127
1, 41496, Note_off_c, 1, 62, 0
1, 41496, Note_off_c, 1, 47, 0
1, 41520, Note_on_c, 1, 61, 127
1, 41520, Note_on_c, 1, 45, 127
1, 41616, Note_off_c, 1, 61, 0
1, 41616, Note_off_c, 1, 45, 0
1, 41640, Note_on_c, 1, 59, 127
1, 41784, Note_off_c, 1, 69, 0
1, 41880, Note_on_c, 1, 40, 127
1, 42024, Note_off_c, 1, 59, 0
1, 42072, Note_off_c, 1, 40, 0
1, 42360, Note_on_c, 1, 33, 127
1, 43224, Note_off_c, 1, 33, 0
1, 43560, Note_on_c, 1, 71, 127
1, 43656, Note_off_c, 1, 71, 0
1, 43680, Note_on_c, 1, 64, 127
1, 43680, Note_on_c, 1, 40, 127
1, 43710, Note_on_c, 1, 68, 127
1, 43740, Note_on_c, 1, 71, 127
1, 43800, Note_on_c, 1, 47, 127
1, 43896, Note_off_c, 1, 47, 0
1, 43920, Note_on_c, 1, 49, 127
1, 43968, Note_off_c, 1, 64, 0
1, 43992, Note_off_c, 1, 68, 0
1, 43992, Note_off_c, 1, 71, 0
1, 44016, Note_off_c, 1, 49, 0
1, 44040, Note_on_c, 1, 69, 127
1, 44040, Note_on_c, 1, 51, 127
1, 44064, Note_off_c, 1, 40, 0
1, 44136, Note_off_c, 1, 69, 0
1, 44136, Note_off_c, 1, 51, 0
1, 44160, Note_on_c, 1, 68, 127
1, 44160, Note_on_c, 1, 52, 127
1, 44256, Note_off_c, 1, 68, 0
1, 44280, Note_on_c, 1, 69, 127
1, 44280, Note_on_c, 1, 54, 127
1, 44376, Note_off_c, 1, 69, 0
1, 44376, Note_off_c, 1, 54, 0
1, 44400, Note_on_c, 1, 71, 127
1, 44400, Note_on_c, 1, 56, 127
1, 44496, Note_off_c, 1, 71, 0
1, 44520, Note_on_c, 1, 73, 127
1, 44544, Note_off_c, 1, 52, 0
1, 44592, Note_off_c, 1, 56, 0
1, 44616, Note_off_c, 1, 73, 0
1, 44640, Note_on_c, 1, 74, 127
1, 44640, Note_on_c, 1, 54, 127
1, 44664, Note_off_c, 1, 74, 0
1, 44670, Note_on_c, 1, 73, 127
1, 44670, Note_on_c, 1, 57, 127
1, 44694, Note_off_c, 1, 73, 0
1, 44832, Note_off_c, 1, 54, 0
1, 44838, Note_off_c, 1, 57, 0
1, 44880, Note_on_c, 1, 56, 127
1, 44910, Note_on_c, 1, 59, 127
1, 45000, Note_on_c, 1, 76, 127
1, 45072, Note_off_c, 1, 56, 0
1, 45078, Note_off_c, 1, 59, 0
1, 45096, Note_off_c, 1, 76, 0
1, 45120, Note_on_c, 1, 73, 127
1, 45120, Note_on_c, 1, 57, 127
1, 45144, Note_off_c, 1, 73, 0
1, 45150, Note_on_c, 1, 74, 127
1, 45174, Note_off_c, 1, 74, 0
1, 45240, Note_on_c, 1, 61, 127
1, 45336, Note_off_c, 1, 61, 0
1, 45360, Note_on_c, 1, 64, 127
1, 45408, Note_off_c, 1, 57, 0
1, 45480, Note_on_c, 1, 71, 127
1, 45480, Note_on_c, 1, 59, 127
1, 45576, Note_off_c, 1, 71, 0
1, 45576, Note_off_c, 1, 59, 0
1, 45600, Note_on_c, 1, 69, 127
1, 45696, Note_off_c, 1, 69, 0
1, 45720, Note_on_c, 1, 81, 127
1, 45744, Note_off_c, 1, 64, 0
1, 45816, Note_off_c, 1, 81, 0
1, 45840, Note_on_c, 1, 80, 127
1, 45840, Note_on_c, 1, 57, 127
1, 45840, Note_on_c, 1, 61, 127
1, 45936, Note_off_c, 1, 80, 0
1, 45960, Note_on_c, 1, 78, 127
1, 46032, Note_off_c, 1, 57, 0
1, 46032, Note_off_c, 1, 61, 0
1, 46056, Note_off_c, 1, 78, 0
1, 46080, Note_on_c, 1, 83, 127
1, 46080, Note_on_c, 1, 62, 127
1, 46080, Note_on_c, 1, 66, 127
1, 46176, Note_off_c, 1, 83, 0
1, 46200, Note_on_c, 1, 80, 127
1, 46272, Note_off_c, 1, 62, 0
1, 46272, Note_off_c, 1, 66, 0
1, 46296, Note_off_c, 1, 80, 0
1, 46320, Note_on_c, 1, 81, 127
1, 46320, Note_on_c, 1, 59, 127
1, 46320, Note_on_c, 1, 62, 127
1, 46416, Note_off_c, 1, 81, 0
1, 46440, Note_on_c, 1, 78, 127
1, 46512, Note_off_c, 1, 59, 0
1, 46512, Note_off_c, 1, 62, 0
1, 46536, Note_off_c, 1, 78, 0
1, 46560, Note_on_c, 1, 77, 127
1, 46560, Note_on_c, 1, 61, 127
1, 46680, Note_on_c, 1, 73, 127
1, 46800, Note_on_c, 1, 68, 127
1, 46848, Note_off_c, 1, 61, 0
1, 46920, Note_on_c, 1, 59, 127
1, 47016, Note_off_c, 1, 59, 0
1, 47040, Note_on_c, 1, 57, 127
1, 47136, Note_off_c, 1, 77, 0
1, 47136, Note_off_c, 1, 57, 0
1, 47160, Note_on_c, 1, 56, 127
1, 47184, Note_off_c, 1, 68, 0
1, 47256, Note_off_c, 1, 56, 0
1, 47280, Note_off_c, 1, 73, 0
1, 47280, Note_on_c, 1, 69, 127
1, 47280, Note_on_c, 1, 54, 127
1, 47340, Note_on_c, 1, 78, 127
1, 47376, Note_off_c, 1, 54, 0
1, 47400, Note_on_c, 1, 53, 127
1, 47453, Note_off_c, 1, 78, 0
1, 47472, Note_off_c, 1, 69, 0
1, 47496, Note_off_c, 1, 53, 0
1, 47520, Note_on_c, 1, 74, 127
1, 47520, Note_on_c, 1, 54, 127
1, 47544, Note_off_c, 1, 74, 0
1, 47550, Note_on_c, 1, 73, 127
1, 47550, Note_on_c, 1, 57, 127
1, 47574, Note_off_c, 1, 73, 0
1, 47712, Note_off_c, 1, 54, 0
1, 47718, Note_off_c, 1, 57, 0
1, 47760, Note_on_c, 1, 56, 127
1, 47790, Note_on_c, 1, 59, 127
1, 47880, Note_on_c, 1, 76, 127
1, 47952, Note_off_c, 1, 56, 0
1, 47958, Note_off_c, 1, 59, 0
1, 47976, Note_off_c, 1, 76, 0
1, 48000, Note_on_c, 1, 73, 127
1, 48000, Note_on_c, 1, 57, 127
1, 48120, Note_on_c, 1, 61, 127
1, 48216, Note_off_c, 1, 61, 0
1, 48240, Note_on_c, 1, 66, 127
1, 48288, Note_off_c, 1, 73, 0
1, 48288, Note_off_c, 1, 57, 0
1, 48360, Note_on_c, 1, 74, 127
1, 48360, Note_on_c, 1, 59, 127
1, 48432, Note_off_c, 1, 66, 0
1, 48456, Note_off_c, 1, 74, 0
1, 48456, Note_off_c, 1, 59, 0
1, 48480, Note_on_c, 1, 71, 127
1, 48480, Note_on_c, 1, 65, 127
1, 48480, Note_on_c, 1, 56, 127
1, 48504, Note_off_c, 1, 71, 0
1, 48510, Note_on_c, 1, 73, 127
1, 48534, Note_off_c, 1, 73, 0
1, 48672, Note_off_c, 1, 65, 0
1, 48672, Note_off_c, 1, 56, 0
1, 48720, Note_on_c, 1, 66, 127
1, 48720, Note_on_c, 1, 54, 127
1, 48840, Note_on_c, 1, 69, 127
1, 48912, Note_off_c, 1, 66, 0
1, 48912, Note_off_c, 1, 54, 0
1, 48936, Note_off_c, 1, 69, 0
1, 48960, Note_on_c, 1, 68, 127
1, 48960, Note_on_c, 1, 65, 127
1, 48960, Note_on_c, 1, 61, 127
1, 48984, Note_off_c, 1, 68, 0
1, 48990, Note_on_c, 1, 69, 127
1, 49014, Note_off_c, 1, 69, 0
1, 49152, Note_off_c, 1, 61, 0
1, 49200, Note_on_c, 1, 49, 127
1, 49320, Note_on_c, 1, 66, 127
1, 49344, Note_off_c, 1, 65, 0
1, 49392, Note_off_c, 1, 49, 0
1, 49416, Note_off_c, 1, 66, 0
1, 49440, Note_on_c, 1, 57, 127
1, 49440, Note_on_c, 1, 42, 127
1, 49470, Note_on_c, 1, 61, 127
1, 49500, Note_on_c, 1, 66, 127
1, 49560, Note_on_c, 1, 49, 127
1, 49656, Note_off_c, 1, 49, 0
1, 49680, Note_on_c, 1, 50, 127
1, 49776, Note_off_c, 1, 50, 0
1, 49800, Note_on_c, 1, 52, 127
1, 49824, Note_off_c, 1, 57, 0
1, 49824, Note_off_c, 1, 42, 0
1, 49848, Note_off_c, 1, 61, 0
1, 49896, Note_off_c, 1, 52, 0
1, 49920, Note_on_c, 1, 54, 127
1, 50016, Note_off_c, 1, 66, 0
1, 50040, Note_on_c, 1, 78, 127
1, 50112, Note_off_c, 1, 54, 0
1, 50136, Note_off_c, 1, 78, 0
1, 50160, Note_on_c, 1, 76, 127
1, 50160, Note_on_c, 1, 56, 127
1, 50256, Note_off_c, 1, 76, 0
1, 50280, Note_on_c, 1, 74, 127
1, 50280, Note_on_c, 1, 59, 127
1, 50352, Note_off_c, 1, 56, 0
1, 50376, Note_off_c, 1, 74, 0
1, 50376, Note_off_c, 1, 59, 0
1, 50400, Note_on_c, 1, 73, 127
1, 50400, Note_on_c, 1, 58, 127
1, 50424, Note_off_c, 1, 73, 0
1, 50430, Note_on_c, 1, 74, 127
1, 50454, Note_off_c, 1, 74, 0
1, 50520, Note_on_c, 1, 61, 127
1, 50592, Note_off_c, 1, 58, 0
1, 50640, Note_on_c, 1, 54, 127
1, 50808, Note_off_c, 1, 61, 0
1, 50832, Note_off_c, 1, 54, 0
1, 50880, Note_on_c, 1, 76, 127
1, 50880, Note_on_c, 1, 59, 127
1, 50976, Note_off_c, 1, 76, 0
1, 51000, Note_on_c, 1, 74, 127
1, 51096, Note_off_c, 1, 74, 0
1, 51120, Note_on_c, 1, 73, 127
1, 51168, Note_off_c, 1, 59, 0
1, 51216, Note_off_c, 1, 73, 0
1, 51240, Note_on_c, 1, 71, 127
1, 51240, Note_on_c, 1, 61, 127
1, 51336, Note_off_c, 1, 71, 0
1, 51336, Note_off_c, 1, 61, 0
1, 51360, Note_on_c, 1, 83, 127
1, 51360, Note_on_c, 1, 62, 127
1, 51389, Note_off_c, 1, 83, 0
1, 51390, Note_on_c, 1, 81, 127
1, 51414, Note_off_c, 1, 81, 0
1, 51456, Note_off_c, 1, 62, 0
1, 51480, Note_on_c, 1, 66, 127
1, 51576, Note_off_c, 1, 66, 0
1, 51600, Note_on_c, 1, 64, 127
1, 51696, Note_off_c, 1, 64, 0
1, 51720, Note_on_c, 1, 80, 127
1, 51720, Note_on_c, 1, 62, 127
1, 51816, Note_off_c, 1, 80, 0
1, 51816, Note_off_c, 1, 62, 0
1, 51840, Note_on_c, 1, 81, 127
1, 51840, Note_on_c, 1, 61, 127
1, 51864, Note_off_c, 1, 81, 0
1, 51870, Note_on_c, 1, 80, 127
1, 51870, Note_on_c, 1, 64, 127
1, 51894, Note_off_c, 1, 80, 0
1, 52032, Note_off_c, 1, 61, 0
1, 52038, Note_off_c, 1, 64, 0
1, 52080, Note_on_c, 1, 63, 127
1, 52110, Note_on_c, 1, 66, 127
1, 52200, Note_on_c, 1, 83, 127
1, 52272, Note_off_c, 1, 63, 0
1, 52278, Note_off_c, 1, 66, 0
1, 52296, Note_off_c, 1, 83, 0
1, 52320, Note_on_c, 1, 80, 127
1, 52320, Note_on_c, 1, 64, 127
1, 52344, Note_off_c, 1, 80, 0
1, 52350, Note_on_c, 1, 81, 127
1, 52374, Note_off_c, 1, 81, 0
1, 52440, Note_on_c, 1, 68, 127
1, 52608, Note_off_c, 1, 64, 0
1, 52680, Note_on_c, 1, 78, 127
1, 52680, Note_on_c, 1, 62, 127
1, 52728, Note_off_c, 1, 68, 0
1, 52776, Note_off_c, 1, 78, 0
1, 52776, Note_off_c, 1, 62, 0
1, 52800, Note_on_c, 1, 76, 127
1, 52800, Note_on_c, 1, 71, 127
1, 52800, Note_on_c, 1, 61, 127
1, 52896, Note_off_c, 1, 76, 0
1, 52896, Note_off_c, 1, 61, 0
1, 52920, Note_on_c, 1, 74, 127
1, 52920, Note_on_c, 1, 59, 127
1, 52992, Note_off_c, 1, 71, 0
1, 53016, Note_off_c, 1, 74, 0
1, 53016, Note_off_c, 1, 59, 0
1, 53040, Note_on_c, 1, 73, 127
1, 53040, Note_on_c, 1, 57, 127
1, 53136, Note_off_c, 1, 73, 0
1, 53136, Note_off_c, 1, 57, 0
1, 53160, Note_on_c, 1, 71, 127
1, 53160, Note_on_c, 1, 56, 127
1, 53256, Note_off_c, 1, 71, 0
1, 53256, Note_off_c, 1, 56, 0
1, 53280, Note_on_c, 1, 69, 127
1, 53280, Note_on_c, 1, 54, 127
1, 53376, Note_off_c, 1, 69, 0
1, 53376, Note_off_c, 1, 54, 0
1, 53400, Note_on_c, 1, 68, 127
1, 53400, Note_on_c, 1, 52, 127
1, 53496, Note_off_c, 1, 68, 0
1, 53496, Note_off_c, 1, 52, 0
1, 53520, Note_on_c, 1, 69, 127
1, 53520, Note_on_c, 1, 50, 127
1, 53616, Note_off_c, 1, 69, 0
1, 53616, Note_off_c, 1, 50, 0
1, 53640, Note_on_c, 1, 66, 127
1, 53640, Note_on_c, 1, 49, 127
1, 53736, Note_off_c, 1, 66, 0
1, 53736, Note_off_c, 1, 49, 0
1, 53760, Note_on_c, 1, 74, 127
1, 53760, Note_on_c, 1, 47, 127
1, 53784, Note_off_c, 1, 74, 0
1, 53790, Note_on_c, 1, 73, 127
1, 53814, Note_off_c, 1, 73, 0
1, 53856, Note_off_c, 1, 47, 0
1, 53880, Note_on_c, 1, 45, 127
1, 53976, Note_off_c, 1, 45, 0
1, 54120, Note_on_c, 1, 76, 127
1, 54120, Note_on_c, 1, 44, 127
1, 54216, Note_off_c, 1, 76, 0
1, 54216, Note_off_c, 1, 44, 0
1, 54240, Note_on_c, 1, 73, 127
1, 54240, Note_on_c, 1, 45, 127
1, 54264, Note_off_c, 1, 73, 0
1, 54270, Note_on_c, 1, 74, 127
1, 54294, Note_off_c, 1, 74, 0
1, 54360, Note_on_c, 1, 71, 127
1, 54432, Note_off_c, 1, 45, 0
1, 54456, Note_off_c, 1, 71, 0
1, 54480, Note_on_c, 1, 69, 127
1, 54480, Note_on_c, 1, 50, 127
1, 54672, Note_off_c, 1, 69, 0
1, 54672, Note_off_c, 1, 50, 0
1, 54720, Note_on_c, 1, 71, 127
1, 54720, Note_on_c, 1, 68, 127
1, 54720, Note_on_c, 1, 52, 127
1, 54744, Note_off_c, 1, 71, 0
1, 54750, Note_on_c, 1, 73, 127
1, 54774, Note_off_c, 1, 73, 0
1, 54960, Note_on_c, 1, 49, 127
1, 55080, Note_on_c, 1, 69, 127
1, 55104, Note_off_c, 1, 68, 0
1, 55104, Note_off_c, 1, 52, 0
1, 55152, Note_off_c, 1, 49, 0
1, 55176, Note_off_c, 1, 69, 0
1, 55200, Note_on_c, 1, 69, 127
1, 55200, Note_on_c, 1, 54, 127
1, 55296, Note_off_c, 1, 54, 0
1, 55320, Note_on_c, 1, 56, 127
1, 55416, Note_off_c, 1, 56, 0
1, 55560, Note_on_c, 1, 68, 127
1, 55560, Note_on_c, 1, 52, 127
1, 55656, Note_off_c, 1, 68, 0
1, 55656, Note_off_c, 1, 52, 0
1, 55680, Note_on_c, 1, 66, 127
1, 55680, Note_on_c, 1, 50, 127
1, 55776, Note_off_c, 1, 66, 0
1, 55776, Note_off_c, 1, 50, 0
1, 55800, Note_on_c, 1, 64, 127
1, 55800, Note_on_c, 1, 49, 127
1, 55896, Note_off_c, 1, 64, 0
1, 55896, Note_off_c, 1, 49, 0
1, 55920, Note_on_c, 1, 62, 127
1, 55920, Note_on_c, 1, 47, 127
1, 56016, Note_off_c, 1, 62, 0
1, 56016, Note_off_c, 1, 47, 0
1, 56040, Note_on_c, 1, 61, 127
1, 56040, Note_on_c, 1, 45, 127
1, 56136, Note_off_c, 1, 61, 0
1, 56136, Note_off_c, 1, 45, 0
1, 56160, Note_on_c, 1, 59, 127
1, 56304, Note_off_c, 1, 69, 0
1, 56400, Note_on_c, 1, 40, 127
1, 56544, Note_off_c, 1, 59, 0
1, 56592, Note_off_c, 1, 40, 0
1, 56880, Note_on_c, 1, 33, 127
1, 57744, Note_off_c, 1, 33, 0
1, 57744, End_track
0, 0, End_of_file