0, 0, Header, 1, 1, 480
1, 0, Start_track
1, 0, Title_t, "Test"
1, 0, Tempo, 500000
1, 0, Instrument_name_t, "Church Organ"
1, 0, Note_on_c, 1, 71, 127
1, 96, Note_off_c, 1, 71, 0
1, 120, Note_on_c, 1, 67, 127
1, 120, Note_on_c, 1, 71, 127
1, 120, Note_on_c, 1, 64, 127
1, 120, Note_on_c, 1, 52, 127
1, 360, Note_off_c, 1, 52, 0
1, 360, Note_on_c, 1, 40, 127
1, 408, Note_off_c, 1, 67, 0
1, 408, Note_off_c, 1, 71, 0
1, 408, Note_off_c, 1, 64, 0
1, 480, Note_on_c, 1, 72, 127
1, 576, Note_off_c, 1, 72, 0
1, 600, Note_off_c, 1, 40, 0
1, 720, Note_on_c, 1, 69, 127
1, 816, Note_off_c, 1, 69, 0
1, 840, Note_on_c, 1, 67, 127
1, 936, Note_off_c, 1, 67, 0
1, 960, Note_on_c, 1, 66, 127
1, 1056, Note_off_c, 1, 66, 0
1, 1080, Note_on_c, 1, 64, 127
1, 1176, Note_off_c, 1, 64, 0
1, 1200, Note_on_c, 1, 63, 127
1, 1320, Note_on_c, 1, 69, 127
1, 1320, Note_on_c, 1, 72, 127
1, 1512, Note_off_c, 1, 63, 0
1, 1512, Note_off_c, 1, 69, 0
1, 1512, Note_off_c, 1, 72, 0
1, 1560, Note_on_c, 1, 64, 127
1, 1590, Note_on_c, 1, 67, 127
1, 1620, Note_on_c, 1, 76, 127
1, 1680, Note_on_c, 1, 52, 127
1, 1776, Note_off_c, 1, 52, 0
1, 1800, Note_on_c, 1, 54, 127
1, 1848, Note_off_c, 1, 64, 0
1, 1872, Note_off_c, 1, 67, 0
1, 1872, Note_off_c, 1, 76, 0
1, 1896, Note_off_c, 1, 54, 0
1, 1920, Note_on_c, 1, 79, 127
1, 1920, Note_on_c, 1, 55, 127
1, 2016, Note_off_c, 1, 79, 0
1, 2016, Note_off_c, 1, 55, 0
1, 2040, Note_on_c, 1, 78, 127
1, 2040, Note_on_c, 1, 57, 127
1, 2136, Note_off_c, 1, 78, 0
1, 2136, Note_off_c, 1, 57, 0
1, 2160, Note_on_c, 1, 76, 127
1, 2160, Note_on_c, 1, 59, 127
1, 2256, Note_off_c, 1, 76, 0
1, 2256, Note_off_c, 1, 59, 0
1, 2280, Note_on_c, 1, 75, 127
1, 2280, Note_on_c, 1, 60, 127
1, 2376, Note_off_c, 1, 75, 0
1, 2376, Note_off_c, 1, 60, 0
1, 2400, Note_on_c, 1, 76, 127
1, 2400, Note_on_c, 1, 59, 127
1, 2496, Note_off_c, 1, 76, 0
1, 2496, Note_off_c, 1, 59, 0
1, 2520, Note_on_c, 1, 78, 127
1, 2520, Note_on_c, 1, 57, 127
1, 2544, Note_off_c, 1, 78, 0
1, 2550, Note_on_c, 1, 76, 127
1, 2574, Note_off_c, 1, 76, 0
1, 2616, Note_off_c, 1, 57, 0
1, 2640, Note_on_c, 1, 78, 127
1, 2640, Note_on_c, 1, 55, 127
1, 2664, Note_off_c, 1, 78, 0
1, 2670, Note_on_c, 1, 76, 127
1, 2694, Note_off_c, 1, 76, 0
1, 2736, Note_off_c, 1, 55, 0
1, 2760, Note_on_c, 1, 78, 127
1, 2760, Note_on_c, 1, 54, 127
1, 2784, Note_off_c, 1, 78, 0
1, 2790, Note_on_c, 1, 76, 127
1, 2814, Note_off_c, 1, 76, 0
1, 2856, Note_off_c, 1, 54, 0
1, 2880, Note_on_c, 1, 75, 127
1, 2880, Note_on_c, 1, 52, 127
1, 2928, Note_off_c, 1, 75, 0
1, 2940, Note_on_c, 1, 76, 127
1, 2976, Note_off_c, 1, 52, 0
1, 2988, Note_off_c, 1, 76, 0
1, 3000, Note_on_c, 1, 78, 127
1, 3000, Note_on_c, 1, 59, 127
1, 3192, Note_off_c, 1, 78, 0
1, 3240, Note_on_c, 1, 71, 127
1, 3288, Note_off_c, 1, 59, 0
1, 3360, Note_on_c, 1, 60, 127
1, 3432, Note_off_c, 1, 71, 0
1, 3456, Note_off_c, 1, 60, 0
1, 3480, Note_on_c, 1, 67, 127
1, 3480, Note_on_c, 1, 59, 127
1, 3510, Note_on_c, 1, 71, 127
1, 3540, Note_on_c, 1, 76, 127
1, 3576, Note_off_c, 1, 59, 0
1, 3600, Note_on_c, 1, 57, 127
1, 3696, Note_off_c, 1, 57, 0
1, 3720, Note_on_c, 1, 55, 127
1, 3768, Note_off_c, 1, 67, 0
1, 3792, Note_off_c, 1, 71, 0
1, 3792, Note_off_c, 1, 76, 0
1, 3816, Note_off_c, 1, 55, 0
1, 3840, Note_on_c, 1, 78, 127
1, 3840, Note_on_c, 1, 54, 127
1, 3936, Note_off_c, 1, 78, 0
1, 3936, Note_off_c, 1, 54, 0
1, 3960, Note_on_c, 1, 79, 127
1, 3960, Note_on_c, 1, 52, 127
1, 3984, Note_off_c, 1, 79, 0
1, 3990, Note_on_c, 1, 78, 127
1, 4014, Note_off_c, 1, 78, 0
1, 4056, Note_off_c, 1, 52, 0
1, 4080, Note_on_c, 1, 79, 127
1, 4080, Note_on_c, 1, 51, 127
1, 4104, Note_off_c, 1, 79, 0
1, 4110, Note_on_c, 1, 78, 127
1, 4134, Note_off_c, 1, 78, 0
1, 4200, Note_on_c, 1, 60, 127
1, 4320, Note_on_c, 1, 76, 127
1, 4368, Note_off_c, 1, 76, 0
1, 4392, Note_off_c, 1, 51, 0
1, 4392, Note_off_c, 1, 60, 0
1, 4440, Note_on_c, 1, 79, 127
1, 4440, Note_on_c, 1, 59, 127
1, 4440, Note_on_c, 1, 52, 127
1, 4632, Note_off_c, 1, 79, 0
1, 4680, Note_on_c, 1, 71, 127
1, 4728, Note_off_c, 1, 59, 0
1, 4728, Note_off_c, 1, 52, 0
1, 4800, Note_on_c, 1, 53, 127
1, 4872, Note_off_c, 1, 71, 0
1, 4896, Note_off_c, 1, 53, 0
1, 4920, Note_on_c, 1, 64, 127
1, 4920, Note_on_c, 1, 52, 127
1, 4950, Note_on_c, 1, 68, 127
1, 4965, Note_on_c, 1, 76, 127
1, 4980, Note_on_c, 1, 71, 127
1, 5016, Note_off_c, 1, 52, 0
1, 5040, Note_on_c, 1, 50, 127
1, 5136, Note_off_c, 1, 50, 0
1, 5160, Note_on_c, 1, 48, 127
1, 5208, Note_off_c, 1, 64, 0
1, 5217, Note_off_c, 1, 76, 0
1, 5232, Note_off_c, 1, 68, 0
1, 5232, Note_off_c, 1, 71, 0
1, 5256, Note_off_c, 1, 48, 0
1, 5265, Note_on_c, 1, 74, 127
1, 5280, Note_on_c, 1, 47, 127
1, 5361, Note_off_c, 1, 74, 0
1, 5376, Note_off_c, 1, 47, 0
1, 5385, Note_on_c, 1, 74, 127
1, 5400, Note_on_c, 1, 45, 127
1, 5409, Note_off_c, 1, 74, 0
1, 5415, Note_on_c, 1, 72, 127
1, 5439, Note_off_c, 1, 72, 0
1, 5496, Note_off_c, 1, 45, 0
1, 5505, Note_on_c, 1, 74, 127
1, 5520, Note_on_c, 1, 44, 127
1, 5529, Note_off_c, 1, 74, 0
1, 5535, Note_on_c, 1, 72, 127
1, 5559, Note_off_c, 1, 72, 0
1, 5640, Note_on_c, 1, 53, 127
1, 5745, Note_on_c, 1, 71, 127
1, 5832, Note_off_c, 1, 44, 0
1, 5832, Note_off_c, 1, 53, 0
1, 5841, Note_off_c, 1, 71, 0
1, 5880, Note_on_c, 1, 72, 127
1, 5880, Note_on_c, 1, 45, 127
1, 6000, Note_on_c, 1, 52, 127
1, 6072, Note_off_c, 1, 45, 0
1, 6096, Note_off_c, 1, 52, 0
1, 6120, Note_on_c, 1, 57, 127
1, 6168, Note_off_c, 1, 72, 0
1, 6216, Note_off_c, 1, 57, 0
1, 6240, Note_on_c, 1, 71, 127
1, 6240, Note_on_c, 1, 59, 127
1, 6336, Note_off_c, 1, 71, 0
1, 6336, Note_off_c, 1, 59, 0
1, 6360, Note_on_c, 1, 69, 127
1, 6360, Note_on_c, 1, 60, 127
1, 6456, Note_off_c, 1, 69, 0
1, 6456, Note_off_c, 1, 60, 0
1, 6480, Note_on_c, 1, 67, 127
1, 6480, Note_on_c, 1, 62, 127
1, 6576, Note_off_c, 1, 67, 0
1, 6576, Note_off_c, 1, 62, 0
1, 6600, Note_on_c, 1, 66, 127
1, 6600, Note_on_c, 1, 64, 127
1, 6696, Note_off_c, 1, 66, 0
1, 6696, Note_off_c, 1, 64, 0
1, 6720, Note_on_c, 1, 67, 127
1, 6720, Note_on_c, 1, 62, 127
1, 6816, Note_off_c, 1, 67, 0
1, 6816, Note_off_c, 1, 62, 0
1, 6840, Note_on_c, 1, 69, 127
1, 6840, Note_on_c, 1, 60, 127
1, 6864, Note_off_c, 1, 69, 0
1, 6870, Note_on_c, 1, 67, 127
1, 6894, Note_off_c, 1, 67, 0
1, 6936, Note_off_c, 1, 60, 0
1, 6960, Note_on_c, 1, 69, 127
1, 6960, Note_on_c, 1, 59, 127
1, 6984, Note_off_c, 1, 69, 0
1, 6990, Note_on_c, 1, 67, 127
1, 7014, Note_off_c, 1, 67, 0
1, 7056, Note_off_c, 1, 59, 0
1, 7080, Note_on_c, 1, 69, 127
1, 7080, Note_on_c, 1, 57, 127
1, 7104, Note_off_c, 1, 69, 0
1, 7110, Note_on_c, 1, 67, 127
1, 7134, Note_off_c, 1, 67, 0
1, 7176, Note_off_c, 1, 57, 0
1, 7200, Note_on_c, 1, 66, 127
1, 7200, Note_on_c, 1, 55, 127
1, 7248, Note_off_c, 1, 66, 0
1, 7260, Note_on_c, 1, 67, 127
1, 7296, Note_off_c, 1, 55, 0
1, 7308, Note_off_c, 1, 67, 0
1, 7320, Note_on_c, 1, 69, 127
1, 7320, Note_on_c, 1, 66, 127
1, 7320, Note_on_c, 1, 62, 127
1, 7512, Note_off_c, 1, 62, 0
1, 7560, Note_on_c, 1, 50, 127
1, 7608, Note_off_c, 1, 69, 0
1, 7608, Note_off_c, 1, 66, 0
1, 7680, Note_on_c, 1, 81, 127
1, 7752, Note_off_c, 1, 50, 0
1, 7776, Note_off_c, 1, 81, 0
1, 7800, Note_on_c, 1, 79, 127
1, 7896, Note_off_c, 1, 79, 0
1, 7920, Note_on_c, 1, 78, 127
1, 8016, Note_off_c, 1, 78, 0
1, 8040, Note_on_c, 1, 76, 127
1, 8136, Note_off_c, 1, 76, 0
1, 8160, Note_on_c, 1, 74, 127
1, 8256, Note_off_c, 1, 74, 0
1, 8280, Note_on_c, 1, 72, 127
1, 8376, Note_off_c, 1, 72, 0
1, 8400, Note_on_c, 1, 71, 127
1, 8496, Note_off_c, 1, 71, 0
1, 8520, Note_on_c, 1, 72, 127
1, 8520, Note_on_c, 1, 81, 127
1, 8520, Note_on_c, 1, 62, 127
1, 8520, Note_on_c, 1, 66, 127
1, 8520, Note_on_c, 1, 69, 127
1, 8712, Note_off_c, 1, 72, 0
1, 8712, Note_off_c, 1, 81, 0
1, 8712, Note_off_c, 1, 62, 0
1, 8712, Note_off_c, 1, 66, 0
1, 8712, Note_off_c, 1, 69, 0
1, 8760, Note_on_c, 1, 72, 127
1, 8760, Note_on_c, 1, 67, 127
1, 8760, Note_on_c, 1, 62, 127
1, 8820, Note_off_c, 1, 72, 0
1, 8940, Note_on_c, 1, 71, 127
1, 8952, Note_off_c, 1, 62, 0
1, 9000, Note_on_c, 1, 50, 127
1, 9053, Note_off_c, 1, 71, 0
1, 9120, Note_on_c, 1, 79, 127
1, 9144, Note_off_c, 1, 67, 0
1, 9192, Note_off_c, 1, 50, 0
1, 9216, Note_off_c, 1, 79, 0
1, 9240, Note_on_c, 1, 78, 127
1, 9336, Note_off_c, 1, 78, 0
1, 9360, Note_on_c, 1, 76, 127
1, 9456, Note_off_c, 1, 76, 0
1, 9480, Note_on_c, 1, 74, 127
1, 9576, Note_off_c, 1, 74, 0
1, 9600, Note_on_c, 1, 72, 127
1, 9696, Note_off_c, 1, 72, 0
1, 9720, Note_on_c, 1, 71, 127
1, 9816, Note_off_c, 1, 71, 0
1, 9840, Note_on_c, 1, 69, 127
1, 9936, Note_off_c, 1, 69, 0
1, 9960, Note_on_c, 1, 79, 127
1, 9960, Note_on_c, 1, 71, 127
1, 9960, Note_on_c, 1, 67, 127
1, 9960, Note_on_c, 1, 62, 127
1, 10152, Note_off_c, 1, 79, 0
1, 10152, Note_off_c, 1, 71, 0
1, 10152, Note_off_c, 1, 67, 0
1, 10152, Note_off_c, 1, 62, 0
1, 10200, Note_on_c, 1, 71, 127
1, 10200, Note_on_c, 1, 66, 127
1, 10200, Note_on_c, 1, 62, 127
1, 10296, Note_off_c, 1, 71, 0
1, 10380, Note_on_c, 1, 69, 127
1, 10392, Note_off_c, 1, 62, 0
1, 10440, Note_on_c, 1, 50, 127
1, 10488, Note_off_c, 1, 66, 0
1, 10493, Note_off_c, 1, 69, 0
1, 10560, Note_on_c, 1, 72, 127
1, 10632, Note_off_c, 1, 50, 0
1, 10656, Note_off_c, 1, 72, 0
1, 10680, Note_on_c, 1, 71, 127
1, 10776, Note_off_c, 1, 71, 0
1, 10800, Note_on_c, 1, 69, 127
1, 10896, Note_off_c, 1, 69, 0
1, 10920, Note_on_c, 1, 67, 127
1, 11016, Note_off_c, 1, 67, 0
1, 11040, Note_on_c, 1, 66, 127
1, 11136, Note_off_c, 1, 66, 0
1, 11160, Note_on_c, 1, 64, 127
1, 11256, Note_off_c, 1, 64, 0
1, 11280, Note_on_c, 1, 62, 127
1, 11280, Note_on_c, 1, 50, 127
1, 11376, Note_off_c, 1, 62, 0
1, 11376, Note_off_c, 1, 50, 0
1, 11400, Note_on_c, 1, 72, 127
1, 11400, Note_on_c, 1, 52, 127
1, 11496, Note_off_c, 1, 52, 0
1, 11520, Note_on_c, 1, 54, 127
1, 11592, Note_off_c, 1, 72, 0
1, 11616, Note_off_c, 1, 54, 0
1, 11640, Note_on_c, 1, 72, 127
1, 11640, Note_on_c, 1, 55, 127
1, 11664, Note_off_c, 1, 72, 0
1, 11670, Note_on_c, 1, 71, 127
1, 11694, Note_off_c, 1, 71, 0
1, 11736, Note_off_c, 1, 55, 0
1, 11760, Note_on_c, 1, 72, 127
1, 11760, Note_on_c, 1, 57, 127
1, 11784, Note_off_c, 1, 72, 0
1, 11790, Note_on_c, 1, 71, 127
1, 11814, Note_off_c, 1, 71, 0
1, 11856, Note_off_c, 1, 57, 0
1, 11880, Note_on_c, 1, 72, 127
1, 11880, Note_on_c, 1, 55, 127
1, 11904, Note_off_c, 1, 72, 0
1, 11910, Note_on_c, 1, 71, 127
1, 11934, Note_off_c, 1, 71, 0
1, 11976, Note_off_c, 1, 55, 0
1, 12000, Note_on_c, 1, 69, 127
1, 12000, Note_on_c, 1, 54, 127
1, 12096, Note_off_c, 1, 69, 0
1, 12096, Note_off_c, 1, 54, 0
1, 12120, Note_on_c, 1, 67, 127
1, 12120, Note_on_c, 1, 52, 127
1, 12216, Note_off_c, 1, 67, 0
1, 12216, Note_off_c, 1, 52, 0
1, 12240, Note_on_c, 1, 66, 127
1, 12240, Note_on_c, 1, 50, 127
1, 12336, Note_off_c, 1, 66, 0
1, 12336, Note_off_c, 1, 50, 0
1, 12360, Note_on_c, 1, 67, 127
1, 12360, Note_on_c, 1, 52, 127
1, 12456, Note_off_c, 1, 67, 0
1, 12456, Note_off_c, 1, 52, 0
1, 12480, Note_on_c, 1, 69, 127
1, 12480, Note_on_c, 1, 48, 127
1, 12576, Note_off_c, 1, 69, 0
1, 12576, Note_off_c, 1, 48, 0
1, 12600, Note_on_c, 1, 71, 127
1, 12600, Note_on_c, 1, 66, 127
1, 12600, Note_on_c, 1, 50, 127
1, 12624, Note_off_c, 1, 71, 0
1, 12630, Note_on_c, 1, 69, 127
1, 12654, Note_off_c, 1, 69, 0
1, 12792, Note_off_c, 1, 50, 0
1, 12840, Note_on_c, 1, 38, 127
1, 12960, Note_on_c, 1, 67, 127
1, 12984, Note_off_c, 1, 66, 0
1, 13008, Note_off_c, 1, 67, 0
1, 13032, Note_off_c, 1, 38, 0
1, 13080, Note_on_c, 1, 67, 127
1, 13080, Note_on_c, 1, 43, 127
1, 13272, Note_off_c, 1, 67, 0
1, 13272, Note_off_c, 1, 43, 0
1, 13320, Note_on_c, 1, 71, 127
1, 13320, Note_on_c, 1, 55, 127
1, 13416, Note_off_c, 1, 55, 0
1, 13440, Note_on_c, 1, 57, 127
1, 13512, Note_off_c, 1, 71, 0
1, 13536, Note_off_c, 1, 57, 0
1, 13560, Note_on_c, 1, 76, 127
1, 13560, Note_on_c, 1, 55, 127
1, 13584, Note_off_c, 1, 76, 0
1, 13590, Note_on_c, 1, 75, 127
1, 13614, Note_off_c, 1, 75, 0
1, 13656, Note_off_c, 1, 55, 0
1, 13680, Note_on_c, 1, 54, 127
1, 13776, Note_off_c, 1, 54, 0
1, 13800, Note_on_c, 1, 52, 127
1, 13896, Note_off_c, 1, 52, 0
1, 13920, Note_on_c, 1, 78, 127
1, 13920, Note_on_c, 1, 50, 127
1, 14016, Note_off_c, 1, 78, 0
1, 14016, Note_off_c, 1, 50, 0
1, 14040, Note_on_c, 1, 79, 127
1, 14040, Note_on_c, 1, 49, 127
1, 14136, Note_off_c, 1, 79, 0
1, 14136, Note_off_c, 1, 49, 0
1, 14160, Note_on_c, 1, 76, 127
1, 14160, Note_on_c, 1, 47, 127
1, 14256, Note_off_c, 1, 76, 0
1, 14280, Note_on_c, 1, 73, 127
1, 14280, Note_on_c, 1, 55, 127
1, 14376, Note_off_c, 1, 73, 0
1, 14400, Note_on_c, 1, 74, 127
1, 14472, Note_off_c, 1, 47, 0
1, 14472, Note_off_c, 1, 55, 0
1, 14496, Note_off_c, 1, 74, 0
1, 14520, Note_on_c, 1, 76, 127
1, 14520, Note_on_c, 1, 46, 127
1, 14520, Note_on_c, 1, 54, 127
1, 14616, Note_off_c, 1, 76, 0
1, 14640, Note_on_c, 1, 79, 127
1, 14712, Note_off_c, 1, 46, 0
1, 14736, Note_off_c, 1, 79, 0
1, 14760, Note_on_c, 1, 78, 127
1, 14760, Note_on_c, 1, 42, 127
1, 14856, Note_off_c, 1, 78, 0
1, 14952, Note_off_c, 1, 42, 0
1, 15000, Note_on_c, 1, 74, 127
1, 15000, Note_on_c, 1, 47, 127
1, 15096, Note_off_c, 1, 54, 0
1, 15096, Note_off_c, 1, 74, 0
1, 15120, Note_on_c, 1, 73, 127
1, 15192, Note_off_c, 1, 47, 0
1, 15240, Note_on_c, 1, 83, 127
1, 15240, Note_on_c, 1, 52, 127
1, 15240, Note_on_c, 1, 55, 127
1, 15432, Note_off_c, 1, 73, 0
1, 15432, Note_off_c, 1, 83, 0
1, 15432, Note_off_c, 1, 52, 0
1, 15432, Note_off_c, 1, 55, 0
1, 15480, Note_on_c, 1, 73, 127
1, 15480, Note_on_c, 1, 70, 127
1, 15480, Note_on_c, 1, 54, 127
1, 15504, Note_off_c, 1, 73, 0
1, 15510, Note_on_c, 1, 71, 127
1, 15534, Note_off_c, 1, 71, 0
1, 15720, Note_on_c, 1, 42, 127
1, 15864, Note_off_c, 1, 70, 0
1, 15864, Note_off_c, 1, 54, 0
1, 15912, Note_off_c, 1, 42, 0
1, 15960, Note_on_c, 1, 71, 127
1, 15960, Note_on_c, 1, 47, 127
1, 16200, Note_on_c, 1, 51, 127
1, 16392, Note_off_c, 1, 51, 0
1, 16440, Note_on_c, 1, 54, 127
1, 16536, Note_off_c, 1, 47, 0
1, 16632, Note_off_c, 1, 54, 0
1, 16680, Note_on_c, 1, 63, 127
1, 16680, Note_on_c, 1, 66, 127
1, 16680, Note_on_c, 1, 59, 127
1, 17064, Note_off_c, 1, 71, 0
1, 17064, Note_off_c, 1, 63, 0
1, 17064, Note_off_c, 1, 66, 0
1, 17064, Note_off_c, 1, 59, 0
1, 17280, Note_on_c, 1, 71, 127
1, 17376, Note_off_c, 1, 71, 0
1, 17400, Note_on_c, 1, 67, 127
1, 17400, Note_on_c, 1, 71, 127
1, 17400, Note_on_c, 1, 64, 127
1, 17400, Note_on_c, 1, 52, 127
1, 17640, Note_off_c, 1, 52, 0
1, 17640, Note_on_c, 1, 40, 127
1, 17688, Note_off_c, 1, 67, 0
1, 17688, Note_off_c, 1, 71, 0
1, 17688, Note_off_c, 1, 64, 0
1, 17760, Note_on_c, 1, 72, 127
1, 17856, Note_off_c, 1, 72, 0
1, 17880, Note_off_c, 1, 40, 0
1, 18000, Note_on_c, 1, 69, 127
1, 18096, Note_off_c, 1, 69, 0
1, 18120, Note_on_c, 1, 67, 127
1, 18216, Note_off_c, 1, 67, 0
1, 18240, Note_on_c, 1, 66, 127
1, 18336, Note_off_c, 1, 66, 0
1, 18360, Note_on_c, 1, 64, 127
1, 18456, Note_off_c, 1, 64, 0
1, 18480, Note_on_c, 1, 63, 127
1, 18600, Note_on_c, 1, 69, 127
1, 18600, Note_on_c, 1, 72, 127
1, 18792, Note_off_c, 1, 63, 0
1, 18792, Note_off_c, 1, 69, 0
1, 18792, Note_off_c, 1, 72, 0
1, 18840, Note_on_c, 1, 64, 127
1, 18870, Note_on_c, 1, 67, 127
1, 18900, Note_on_c, 1, 76, 127
1, 18960, Note_on_c, 1, 52, 127
1, 19056, Note_off_c, 1, 52, 0
1, 19080, Note_on_c, 1, 54, 127
1, 19128, Note_off_c, 1, 64, 0
1, 19152, Note_off_c, 1, 67, 0
1, 19152, Note_off_c, 1, 76, 0
1, 19176, Note_off_c, 1, 54, 0
1, 19200, Note_on_c, 1, 79, 127
1, 19200, Note_on_c, 1, 55, 127
1, 19296, Note_off_c, 1, 79, 0
1, 19296, Note_off_c, 1, 55, 0
1, 19320, Note_on_c, 1, 78, 127
1, 19320, Note_on_c, 1, 57, 127
1, 19416, Note_off_c, 1, 78, 0
1, 19416, Note_off_c, 1, 57, 0
1, 19440, Note_on_c, 1, 76, 127
1, 19440, Note_on_c, 1, 59, 127
1, 19536, Note_off_c, 1, 76, 0
1, 19536, Note_off_c, 1, 59, 0
1, 19560, Note_on_c, 1, 75, 127
1, 19560, Note_on_c, 1, 60, 127
1, 19656, Note_off_c, 1, 75, 0
1, 19656, Note_off_c, 1, 60, 0
1, 19680, Note_on_c, 1, 76, 127
1, 19680, Note_on_c, 1, 59, 127
1, 19776, Note_off_c, 1, 76, 0
1, 19776, Note_off_c, 1, 59, 0
1, 19800, Note_on_c, 1, 78, 127
1, 19800, Note_on_c, 1, 57, 127
1, 19824, Note_off_c, 1, 78, 0
1, 19830, Note_on_c, 1, 76, 127
1, 19854, Note_off_c, 1, 76, 0
1, 19896, Note_off_c, 1, 57, 0
1, 19920, Note_on_c, 1, 78, 127
1, 19920, Note_on_c, 1, 55, 127
1, 19944, Note_off_c, 1, 78, 0
1, 19950, Note_on_c, 1, 76, 127
1, 19974, Note_off_c, 1, 76, 0
1, 20016, Note_off_c, 1, 55, 0
1, 20040, Note_on_c, 1, 78, 127
1, 20040, Note_on_c, 1, 54, 127
1, 20064, Note_off_c, 1, 78, 0
1, 20070, Note_on_c, 1, 76, 127
1, 20094, Note_off_c, 1, 76, 0
1, 20136, Note_off_c, 1, 54, 0
1, 20160, Note_on_c, 1, 75, 127
1, 20160, Note_on_c, 1, 52, 127
1, 20208, Note_off_c, 1, 75, 0
1, 20220, Note_on_c, 1, 76, 127
1, 20256, Note_off_c, 1, 52, 0
1, 20268, Note_off_c, 1, 76, 0
1, 20280, Note_on_c, 1, 78, 127
1, 20280, Note_on_c, 1, 59, 127
1, 20472, Note_off_c, 1, 78, 0
1, 20520, Note_on_c, 1, 71, 127
1, 20568, Note_off_c, 1, 59, 0
1, 20640, Note_on_c, 1, 60, 127
1, 20712, Note_off_c, 1, 71, 0
1, 20736, Note_off_c, 1, 60, 0
1, 20760, Note_on_c, 1, 67, 127
1, 20760, Note_on_c, 1, 59, 127
1, 20790, Note_on_c, 1, 71, 127
1, 20820, Note_on_c, 1, 76, 127
1, 20856, Note_off_c, 1, 59, 0
1, 20880, Note_on_c, 1, 57, 127
1, 20976, Note_off_c, 1, 57, 0
1, 21000, Note_on_c, 1, 55, 127
1, 21048, Note_off_c, 1, 67, 0
1, 21072, Note_off_c, 1, 71, 0
1, 21072, Note_off_c, 1, 76, 0
1, 21096, Note_off_c, 1, 55, 0
1, 21120, Note_on_c, 1, 78, 127
1, 21120, Note_on_c, 1, 54, 127
1, 21216, Note_off_c, 1, 78, 0
1, 21216, Note_off_c, 1, 54, 0
1, 21240, Note_on_c, 1, 79, 127
1, 21240, Note_on_c, 1, 52, 127
1, 21264, Note_off_c, 1, 79, 0
1, 21270, Note_on_c, 1, 78, 127
1, 21294, Note_off_c, 1, 78, 0
1, 21336, Note_off_c, 1, 52, 0
1, 21360, Note_on_c, 1, 79, 127
1, 21360, Note_on_c, 1, 51, 127
1, 21384, Note_off_c, 1, 79, 0
1, 21390, Note_on_c, 1, 78, 127
1, 21414, Note_off_c, 1, 78, 0
1, 21480, Note_on_c, 1, 60, 127
1, 21600, Note_on_c, 1, 76, 127
1, 21648, Note_off_c, 1, 76, 0
1, 21672, Note_off_c, 1, 51, 0
1, 21672, Note_off_c, 1, 60, 0
1, 21720, Note_on_c, 1, 79, 127
1, 21720, Note_on_c, 1, 59, 127
1, 21720, Note_on_c, 1, 52, 127
1, 21912, Note_off_c, 1, 79, 0
1, 21960, Note_on_c, 1, 71, 127
1, 22008, Note_off_c, 1, 59, 0
1, 22008, Note_off_c, 1, 52, 0
1, 22080, Note_on_c, 1, 53, 127
1, 22152, Note_off_c, 1, 71, 0
1, 22176, Note_off_c, 1, 53, 0
1, 22200, Note_on_c, 1, 64, 127
1, 22200, Note_on_c, 1, 52, 127
1, 22230, Note_on_c, 1, 68, 127
1, 22245, Note_on_c, 1, 76, 127
1, 22260, Note_on_c, 1, 71, 127
1, 22296, Note_off_c, 1, 52, 0
1, 22320, Note_on_c, 1, 50, 127
1, 22416, Note_off_c, 1, 50, 0
1, 22440, Note_on_c, 1, 48, 127
1, 22488, Note_off_c, 1, 64, 0
1, 22497, Note_off_c, 1, 76, 0
1, 22512, Note_off_c, 1, 68, 0
1, 22512, Note_off_c, 1, 71, 0
1, 22536, Note_off_c, 1, 48, 0
1, 22545, Note_on_c, 1, 74, 127
1, 22560, Note_on_c, 1, 47, 127
1, 22641, Note_off_c, 1, 74, 0
1, 22656, Note_off_c, 1, 47, 0
1, 22665, Note_on_c, 1, 74, 127
1, 22680, Note_on_c, 1, 45, 127
1, 22689, Note_off_c, 1, 74, 0
1, 22695, Note_on_c, 1, 72, 127
1, 22719, Note_off_c, 1, 72, 0
1, 22776, Note_off_c, 1, 45, 0
1, 22785, Note_on_c, 1, 74, 127
1, 22800, Note_on_c, 1, 44, 127
1, 22809, Note_off_c, 1, 74, 0
1, 22815, Note_on_c, 1, 72, 127
1, 22839, Note_off_c, 1, 72, 0
1, 22920, Note_on_c, 1, 53, 127
1, 23025, Note_on_c, 1, 71, 127
1, 23112, Note_off_c, 1, 44, 0
1, 23112, Note_off_c, 1, 53, 0
1, 23121, Note_off_c, 1, 71, 0
1, 23160, Note_on_c, 1, 72, 127
1, 23160, Note_on_c, 1, 45, 127
1, 23280, Note_on_c, 1, 52, 127
1, 23352, Note_off_c, 1, 45, 0
1, 23376, Note_off_c, 1, 52, 0
1, 23400, Note_on_c, 1, 57, 127
1, 23448, Note_off_c, 1, 72, 0
1, 23496, Note_off_c, 1, 57, 0
1, 23520, Note_on_c, 1, 71, 127
1, 23520, Note_on_c, 1, 59, 127
1, 23616, Note_off_c, 1, 71, 0
1, 23616, Note_off_c, 1, 59, 0
1, 23640, Note_on_c, 1, 69, 127
1, 23640, Note_on_c, 1, 60, 127
1, 23736, Note_off_c, 1, 69, 0
1, 23736, Note_off_c, 1, 60, 0
1, 23760, Note_on_c, 1, 67, 127
1, 23760, Note_on_c, 1, 62, 127
1, 23856, Note_off_c, 1, 67, 0
1, 23856, Note_off_c, 1, 62, 0
1, 23880, Note_on_c, 1, 66, 127
1, 23880, Note_on_c, 1, 64, 127
1, 23976, Note_off_c, 1, 66, 0
1, 23976, Note_off_c, 1, 64, 0
1, 24000, Note_on_c, 1, 67, 127
1, 24000, Note_on_c, 1, 62, 127
1, 24096, Note_off_c, 1, 67, 0
1, 24096, Note_off_c, 1, 62, 0
1, 24120, Note_on_c, 1, 69, 127
1, 24120, Note_on_c, 1, 60, 127
1, 24144, Note_off_c, 1, 69, 0
1, 24150, Note_on_c, 1, 67, 127
1, 24174, Note_off_c, 1, 67, 0
1, 24216, Note_off_c, 1, 60, 0
1, 24240, Note_on_c, 1, 69, 127
1, 24240, Note_on_c, 1, 59, 127
1, 24264, Note_off_c, 1, 69, 0
1, 24270, Note_on_c, 1, 67, 127
1, 24294, Note_off_c, 1, 67, 0
1, 24336, Note_off_c, 1, 59, 0
1, 24360, Note_on_c, 1, 69, 127
1, 24360, Note_on_c, 1, 57, 127
1, 24384, Note_off_c, 1, 69, 0
1, 24390, Note_on_c, 1, 67, 127
1, 24414, Note_off_c, 1, 67, 0
1, 24456, Note_off_c, 1, 57, 0
1, 24480, Note_on_c, 1, 66, 127
1, 24480, Note_on_c, 1, 55, 127
1, 24528, Note_off_c, 1, 66, 0
1, 24540, Note_on_c, 1, 67, 127
1, 24576, Note_off_c, 1, 55, 0
1, 24588, Note_off_c, 1, 67, 0
1, 24600, Note_on_c, 1, 69, 127
1, 24600, Note_on_c, 1, 66, 127
1, 24600, Note_on_c, 1, 62, 127
1, 24792, Note_off_c, 1, 62, 0
1, 24840, Note_on_c, 1, 50, 127
1, 24888, Note_off_c, 1, 69, 0
1, 24888, Note_off_c, 1, 66, 0
1, 24960, Note_on_c, 1, 81, 127
1, 25032, Note_off_c, 1, 50, 0
1, 25056, Note_off_c, 1, 81, 0
1, 25080, Note_on_c, 1, 79, 127
1, 25176, Note_off_c, 1, 79, 0
1, 25200, Note_on_c, 1, 78, 127
1, 25296, Note_off_c, 1, 78, 0
1, 25320, Note_on_c, 1, 76, 127
1, 25416, Note_off_c, 1, 76, 0
1, 25440, Note_on_c, 1, 74, 127
1, 25536, Note_off_c, 1, 74, 0
1, 25560, Note_on_c, 1, 72, 127
1, 25656, Note_off_c, 1, 72, 0
1, 25680, Note_on_c, 1, 71, 127
1, 25776, Note_off_c, 1, 71, 0
1, 25800, Note_on_c, 1, 72, 127
1, 25800, Note_on_c, 1, 81, 127
1, 25800, Note_on_c, 1, 62, 127
1, 25800, Note_on_c, 1, 66, 127
1, 25800, Note_on_c, 1, 69, 127
1, 25992, Note_off_c, 1, 72, 0
1, 25992, Note_off_c, 1, 81, 0
1, 25992, Note_off_c, 1, 62, 0
1, 25992, Note_off_c, 1, 66, 0
1, 25992, Note_off_c, 1, 69, 0
1, 26040, Note_on_c, 1, 72, 127
1, 26040, Note_on_c, 1, 67, 127
1, 26040, Note_on_c, 1, 62, 127
1, 26100, Note_off_c, 1, 72, 0
1, 26220, Note_on_c, 1, 71, 127
1, 26232, Note_off_c, 1, 62, 0
1, 26280, Note_on_c, 1, 50, 127
1, 26333, Note_off_c, 1, 71, 0
1, 26400, Note_on_c, 1, 79, 127
1, 26424, Note_off_c, 1, 67, 0
1, 26472, Note_off_c, 1, 50, 0
1, 26496, Note_off_c, 1, 79, 0
1, 26520, Note_on_c, 1, 78, 127
1, 26616, Note_off_c, 1, 78, 0
1, 26640, Note_on_c, 1, 76, 127
1, 26736, Note_off_c, 1, 76, 0
1, 26760, Note_on_c, 1, 74, 127
1, 26856, Note_off_c, 1, 74, 0
1, 26880, Note_on_c, 1, 72, 127
1, 26976, Note_off_c, 1, 72, 0
1, 27000, Note_on_c, 1, 71, 127
1, 27096, Note_off_c, 1, 71, 0
1, 27120, Note_on_c, 1, 69, 127
1, 27216, Note_off_c, 1, 69, 0
1, 27240, Note_on_c, 1, 79, 127
1, 27240, Note_on_c, 1, 71, 127
1, 27240, Note_on_c, 1, 67, 127
1, 27240, Note_on_c, 1, 62, 127
1, 27432, Note_off_c, 1, 79, 0
1, 27432, Note_off_c, 1, 71, 0
1, 27432, Note_off_c, 1, 67, 0
1, 27432, Note_off_c, 1, 62, 0
1, 27480, Note_on_c, 1, 71, 127
1, 27480, Note_on_c, 1, 66, 127
1, 27480, Note_on_c, 1, 62, 127
1, 27576, Note_off_c, 1, 71, 0
1, 27660, Note_on_c, 1, 69, 127
1, 27672, Note_off_c, 1, 62, 0
1, 27720, Note_on_c, 1, 50, 127
1, 27768, Note_off_c, 1, 66, 0
1, 27773, Note_off_c, 1, 69, 0
1, 27840, Note_on_c, 1, 72, 127
1, 27912, Note_off_c, 1, 50, 0
1, 27936, Note_off_c, 1, 72, 0
1, 27960, Note_on_c, 1, 71, 127
1, 28056, Note_off_c, 1, 71, 0
1, 28080, Note_on_c, 1, 69, 127
1, 28176, Note_off_c, 1, 69, 0
1, 28200, Note_on_c, 1, 67, 127
1, 28296, Note_off_c, 1, 67, 0
1, 28320, Note_on_c, 1, 66, 127
1, 28416, Note_off_c, 1, 66, 0
1, 28440, Note_on_c, 1, 64, 127
1, 28536, Note_off_c, 1, 64, 0
1, 28560, Note_on_c, 1, 62, 127
1, 28560, Note_on_c, 1, 50, 127
1, 28656, Note_off_c, 1, 62, 0
1, 28656, Note_off_c, 1, 50, 0
1, 28680, Note_on_c, 1, 72, 127
1, 28680, Note_on_c, 1, 52, 127
1, 28776, Note_off_c, 1, 52, 0
1, 28800, Note_on_c, 1, 54, 127
1, 28872, Note_off_c, 1, 72, 0
1, 28896, Note_off_c, 1, 54, 0
1, 28920, Note_on_c, 1, 72, 127
1, 28920, Note_on_c, 1, 55, 127
1, 28944, Note_off_c, 1, 72, 0
1, 28950, Note_on_c, 1, 71, 127
1, 28974, Note_off_c, 1, 71, 0
1, 29016, Note_off_c, 1, 55, 0
1, 29040, Note_on_c, 1, 72, 127
1, 29040, Note_on_c, 1, 57, 127
1, 29064, Note_off_c, 1, 72, 0
1, 29070, Note_on_c, 1, 71, 127
1, 29094, Note_off_c, 1, 71, 0
1, 29136, Note_off_c, 1, 57, 0
1, 29160, Note_on_c, 1, 72, 127
1, 29160, Note_on_c, 1, 55, 127
1, 29184, Note_off_c, 1, 72, 0
1, 29190, Note_on_c, 1, 71, 127
1, 29214, Note_off_c, 1, 71, 0
1, 29256, Note_off_c, 1, 55, 0
1, 29280, Note_on_c, 1, 69, 127
1, 29280, Note_on_c, 1, 54, 127
1, 29376, Note_off_c, 1, 69, 0
1, 29376, Note_off_c, 1, 54, 0
1, 29400, Note_on_c, 1, 67, 127
1, 29400, Note_on_c, 1, 52, 127
1, 29496, Note_off_c, 1, 67, 0
1, 29496, Note_off_c, 1, 52, 0
1, 29520, Note_on_c, 1, 66, 127
1, 29520, Note_on_c, 1, 50, 127
1, 29616, Note_off_c, 1, 66, 0
1, 29616, Note_off_c, 1, 50, 0
1, 29640, Note_on_c, 1, 67, 127
1, 29640, Note_on_c, 1, 52, 127
1, 29736, Note_off_c, 1, 67, 0
1, 29736, Note_off_c, 1, 52, 0
1, 29760, Note_on_c, 1, 69, 127
1, 29760, Note_on_c, 1, 48, 127
1, 29856, Note_off_c, 1, 69, 0
1, 29856, Note_off_c, 1, 48, 0
1, 29880, Note_on_c, 1, 71, 127
1, 29880, Note_on_c, 1, 66, 127
1, 29880, Note_on_c, 1, 50, 127
1, 29904, Note_off_c, 1, 71, 0
1, 29910, Note_on_c, 1, 69, 127
1, 29934, Note_off_c, 1, 69, 0
1, 30072, Note_off_c, 1, 50, 0
1, 30120, Note_on_c, 1, 38, 127
1, 30240, Note_on_c, 1, 67, 127
1, 30264, Note_off_c, 1, 66, 0
1, 30288, Note_off_c, 1, 67, 0
1, 30312, Note_off_c, 1, 38, 0
1, 30360, Note_on_c, 1, 67, 127
1, 30360, Note_on_c, 1, 43, 127
1, 30552, Note_off_c, 1, 67, 0
1, 30552, Note_off_c, 1, 43, 0
1, 30600, Note_on_c, 1, 71, 127
1, 30600, Note_on_c, 1, 55, 127
1, 30696, Note_off_c, 1, 55, 0
1, 30720, Note_on_c, 1, 57, 127
1, 30792, Note_off_c, 1, 71, 0
1, 30816, Note_off_c, 1, 57, 0
1, 30840, Note_on_c, 1, 76, 127
1, 30840, Note_on_c, 1, 55, 127
1, 30864, Note_off_c, 1, 76, 0
1, 30870, Note_on_c, 1, 75, 127
1, 30894, Note_off_c, 1, 75, 0
1, 30936, Note_off_c, 1, 55, 0
1, 30960, Note_on_c, 1, 54, 127
1, 31056, Note_off_c, 1, 54, 0
1, 31080, Note_on_c, 1, 52, 127
1, 31176, Note_off_c, 1, 52, 0
1, 31200, Note_on_c, 1, 78, 127
1, 31200, Note_on_c, 1, 50, 127
1, 31296, Note_off_c, 1, 78, 0
1, 31296, Note_off_c, 1, 50, 0
1, 31320, Note_on_c, 1, 79, 127
1, 31320, Note_on_c, 1, 49, 127
1, 31416, Note_off_c, 1, 79, 0
1, 31416, Note_off_c, 1, 49, 0
1, 31440, Note_on_c, 1, 76, 127
1, 31440, Note_on_c, 1, 47, 127
1, 31536, Note_off_c, 1, 76, 0
1, 31560, Note_on_c, 1, 73, 127
1, 31560, Note_on_c, 1, 55, 127
1, 31656, Note_off_c, 1, 73, 0
1, 31680, Note_on_c, 1, 74, 127
1, 31752, Note_off_c, 1, 47, 0
1, 31752, Note_off_c, 1, 55, 0
1, 31776, Note_off_c, 1, 74, 0
1, 31800, Note_on_c, 1, 76, 127
1, 31800, Note_on_c, 1, 46, 127
1, 31800, Note_on_c, 1, 54, 127
1, 31896, Note_off_c, 1, 76, 0
1, 31920, Note_on_c, 1, 79, 127
1, 31992, Note_off_c, 1, 46, 0
1, 32016, Note_off_c, 1, 79, 0
1, 32040, Note_on_c, 1, 78, 127
1, 32040, Note_on_c, 1, 42, 127
1, 32136, Note_off_c, 1, 78, 0
1, 32232, Note_off_c, 1, 42, 0
1, 32280, Note_on_c, 1, 74, 127
1, 32280, Note_on_c, 1, 47, 127
1, 32376, Note_off_c, 1, 54, 0
1, 32376, Note_off_c, 1, 74, 0
1, 32400, Note_on_c, 1, 73, 127
1, 32472, Note_off_c, 1, 47, 0
1, 32520, Note_on_c, 1, 83, 127
1, 32520, Note_on_c, 1, 52, 127
1, 32520, Note_on_c, 1, 55, 127
1, 32712, Note_off_c, 1, 73, 0
1, 32712, Note_off_c, 1, 83, 0
1, 32712, Note_off_c, 1, 52, 0
1, 32712, Note_off_c, 1, 55, 0
1, 32760, Note_on_c, 1, 73, 127
1, 32760, Note_on_c, 1, 70, 127
1, 32760, Note_on_c, 1, 54, 127
1, 32784, Note_off_c, 1, 73, 0
1, 32790, Note_on_c, 1, 71, 127
1, 32814, Note_off_c, 1, 71, 0
1, 33000, Note_on_c, 1, 42, 127
1, 33144, Note_off_c, 1, 70, 0
1, 33144, Note_off_c, 1, 54, 0
1, 33192, Note_off_c, 1, 42, 0
1, 33240, Note_on_c, 1, 71, 127
1, 33240, Note_on_c, 1, 47, 127
1, 33480, Note_on_c, 1, 51, 127
1, 33672, Note_off_c, 1, 51, 0
1, 33720, Note_on_c, 1, 54, 127
1, 33816, Note_off_c, 1, 47, 0
1, 33912, Note_off_c, 1, 54, 0
1, 33960, Note_on_c, 1, 63, 127
1, 33960, Note_on_c, 1, 66, 127
1, 33960, Note_on_c, 1, 59, 127
1, 34344, Note_off_c, 1, 71, 0
1, 34344, Note_off_c, 1, 63, 0
1, 34344, Note_off_c, 1, 66, 0
1, 34344, Note_off_c, 1, 59, 0
1, 34560, Note_on_c, 1, 78, 127
1, 34656, Note_off_c, 1, 78, 0
1, 34680, Note_on_c, 1, 75, 127
1, 34680, Note_on_c, 1, 78, 127
1, 34680, Note_on_c, 1, 71, 127
1, 34680, Note_on_c, 1, 59, 127
1, 34872, Note_off_c, 1, 75, 0
1, 34872, Note_off_c, 1, 78, 0
1, 34872, Note_off_c, 1, 71, 0
1, 34920, Note_on_c, 1, 76, 127
1, 34968, Note_off_c, 1, 59, 0
1, 35016, Note_off_c, 1, 76, 0
1, 35040, Note_on_c, 1, 75, 127
1, 35040, Note_on_c, 1, 47, 127
1, 35136, Note_off_c, 1, 75, 0
1, 35136, Note_off_c, 1, 47, 0
1, 35160, Note_on_c, 1, 73, 127
1, 35160, Note_on_c, 1, 49, 127
1, 35256, Note_off_c, 1, 73, 0
1, 35256, Note_off_c, 1, 49, 0
1, 35280, Note_on_c, 1, 71, 127
1, 35280, Note_on_c, 1, 51, 127
1, 35376, Note_off_c, 1, 71, 0
1, 35376, Note_off_c, 1, 51, 0
1, 35400, Note_on_c, 1, 73, 127
1, 35400, Note_on_c, 1, 52, 127
1, 35496, Note_off_c, 1, 73, 0
1, 35496, Note_off_c, 1, 52, 0
1, 35520, Note_on_c, 1, 75, 127
1, 35520, Note_on_c, 1, 54, 127
1, 35616, Note_off_c, 1, 75, 0
1, 35616, Note_off_c, 1, 54, 0
1, 35640, Note_on_c, 1, 76, 127
1, 35640, Note_on_c, 1, 55, 127
1, 35736, Note_off_c, 1, 76, 0
1, 35736, Note_off_c, 1, 55, 0
1, 35760, Note_on_c, 1, 78, 127
1, 35760, Note_on_c, 1, 57, 127
1, 35856, Note_off_c, 1, 78, 0
1, 35880, Note_on_c, 1, 79, 127
1, 35880, Note_on_c, 1, 51, 127
1, 35904, Note_off_c, 1, 79, 0
1, 36060, Note_on_c, 1, 76, 127
1, 36072, Note_off_c, 1, 57, 0
1, 36072, Note_off_c, 1, 51, 0
1, 36084, Note_off_c, 1, 76, 0
1, 36090, Note_on_c, 1, 78, 127
1, 36114, Note_off_c, 1, 78, 0
1, 36120, Note_on_c, 1, 71, 127
1, 36120, Note_on_c, 1, 52, 127
1, 36150, Note_on_c, 1, 76, 127
1, 36180, Note_on_c, 1, 79, 127
1, 36216, Note_off_c, 1, 52, 0
1, 36240, Note_on_c, 1, 54, 127
1, 36336, Note_off_c, 1, 54, 0
1, 36432, Note_off_c, 1, 76, 0
1, 36432, Note_off_c, 1, 79, 0
1, 36480, Note_on_c, 1, 64, 127
1, 36480, Note_on_c, 1, 50, 127
1, 36570, Note_off_c, 1, 71, 0
1, 36576, Note_off_c, 1, 64, 0
1, 36576, Note_off_c, 1, 50, 0
1, 36600, Note_on_c, 1, 66, 127
1, 36600, Note_on_c, 1, 48, 127
1, 36696, Note_off_c, 1, 66, 0
1, 36696, Note_off_c, 1, 48, 0
1, 36720, Note_on_c, 1, 68, 127
1, 36720, Note_on_c, 1, 47, 127
1, 36816, Note_off_c, 1, 68, 0
1, 36816, Note_off_c, 1, 47, 0
1, 36840, Note_on_c, 1, 69, 127
1, 36840, Note_on_c, 1, 45, 127
1, 36936, Note_off_c, 1, 69, 0
1, 36936, Note_off_c, 1, 45, 0
1, 36960, Note_on_c, 1, 71, 127
1, 36960, Note_on_c, 1, 44, 127
1, 37056, Note_off_c, 1, 71, 0
1, 37056, Note_off_c, 1, 44, 0
1, 37080, Note_on_c, 1, 72, 127
1, 37080, Note_on_c, 1, 42, 127
1, 37176, Note_off_c, 1, 72, 0
1, 37176, Note_off_c, 1, 42, 0
1, 37200, Note_on_c, 1, 74, 127
1, 37200, Note_on_c, 1, 40, 127
1, 37320, Note_on_c, 1, 68, 127
1, 37320, Note_on_c, 1, 52, 127
1, 37416, Note_off_c, 1, 74, 0
1, 37512, Note_off_c, 1, 40, 0
1, 37512, Note_off_c, 1, 68, 0
1, 37560, Note_on_c, 1, 72, 127
1, 37560, Note_on_c, 1, 69, 127
1, 37560, Note_on_c, 1, 45, 127
1, 37656, Note_off_c, 1, 52, 0
1, 37680, Note_on_c, 1, 56, 127
1, 37776, Note_off_c, 1, 56, 0
1, 37800, Note_on_c, 1, 57, 127
1, 37848, Note_off_c, 1, 72, 0
1, 37848, Note_off_c, 1, 45, 0
1, 37920, Note_on_c, 1, 47, 127
1, 37992, Note_off_c, 1, 57, 0
1, 38016, Note_off_c, 1, 47, 0
1, 38040, Note_on_c, 1, 76, 127
1, 38040, Note_on_c, 1, 48, 127
1, 38136, Note_off_c, 1, 76, 0
1, 38232, Note_off_c, 1, 48, 0
1, 38280, Note_on_c, 1, 50, 127
1, 38328, Note_off_c, 1, 69, 0
1, 38400, Note_on_c, 1, 77, 127
1, 38472, Note_off_c, 1, 50, 0
1, 38496, Note_off_c, 1, 77, 0
1, 38520, Note_on_c, 1, 72, 127
1, 38520, Note_on_c, 1, 68, 127
1, 38520, Note_on_c, 1, 52, 127
1, 38544, Note_off_c, 1, 72, 0
1, 38550, Note_on_c, 1, 71, 127
1, 38574, Note_off_c, 1, 71, 0
1, 38760, Note_on_c, 1, 40, 127
1, 38880, Note_on_c, 1, 69, 127
1, 38904, Note_off_c, 1, 68, 0
1, 38904, Note_off_c, 1, 52, 0
1, 38952, Note_off_c, 1, 40, 0
1, 38976, Note_off_c, 1, 69, 0
1, 39000, Note_on_c, 1, 69, 127
1, 39000, Note_on_c, 1, 60, 127
1, 39000, Note_on_c, 1, 64, 127
1, 39000, Note_on_c, 1, 45, 127
1, 39192, Note_off_c, 1, 45, 0
1, 39240, Note_on_c, 1, 57, 127
1, 39288, Note_off_c, 1, 69, 0
1, 39288, Note_off_c, 1, 60, 0
1, 39288, Note_off_c, 1, 64, 0
1, 39360, Note_on_c, 1, 71, 127
1, 39432, Note_off_c, 1, 57, 0
1, 39456, Note_off_c, 1, 71, 0
1, 39480, Note_on_c, 1, 73, 127
1, 39480, Note_on_c, 1, 55, 127
1, 39576, Note_off_c, 1, 73, 0
1, 39600, Note_on_c, 1, 74, 127
1, 39672, Note_off_c, 1, 55, 0
1, 39696, Note_off_c, 1, 74, 0
1, 39720, Note_on_c, 1, 76, 127
1, 39720, Note_on_c, 1, 54, 127
1, 39816, Note_off_c, 1, 76, 0
1, 39840, Note_on_c, 1, 78, 127
1, 39912, Note_off_c, 1, 54, 0
1, 39936, Note_off_c, 1, 78, 0
1, 39960, Note_on_c, 1, 79, 127
1, 39960, Note_on_c, 1, 52, 127
1, 40056, Note_off_c, 1, 79, 0
1, 40080, Note_on_c, 1, 81, 127
1, 40152, Note_off_c, 1, 52, 0
1, 40200, Note_on_c, 1, 74, 127
1, 40200, Note_on_c, 1, 72, 127
1, 40200, Note_on_c, 1, 54, 127
1, 40296, Note_off_c, 1, 81, 0
1, 40392, Note_off_c, 1, 74, 0
1, 40392, Note_off_c, 1, 72, 0
1, 40392, Note_off_c, 1, 54, 0
1, 40440, Note_on_c, 1, 83, 127
1, 40440, Note_on_c, 1, 55, 127
1, 40536, Note_off_c, 1, 83, 0
1, 40560, Note_on_c, 1, 84, 127
1, 40656, Note_off_c, 1, 84, 0
1, 40728, Note_off_c, 1, 55, 0
1, 40800, Note_on_c, 1, 81, 127
1, 40800, Note_on_c, 1, 57, 127
1, 40896, Note_off_c, 1, 81, 0
1, 40896, Note_off_c, 1, 57, 0
1, 40920, Note_on_c, 1, 79, 127
1, 40920, Note_on_c, 1, 59, 127
1, 41016, Note_off_c, 1, 79, 0
1, 41016, Note_off_c, 1, 59, 0
1, 41040, Note_on_c, 1, 78, 127
1, 41040, Note_on_c, 1, 57, 127
1, 41136, Note_off_c, 1, 78, 0
1, 41136, Note_off_c, 1, 57, 0
1, 41160, Note_on_c, 1, 76, 127
1, 41160, Note_on_c, 1, 55, 127
1, 41256, Note_off_c, 1, 76, 0
1, 41256, Note_off_c, 1, 55, 0
1, 41280, Note_on_c, 1, 74, 127
1, 41280, Note_on_c, 1, 54, 127
1, 41376, Note_off_c, 1, 74, 0
1, 41376, Note_off_c, 1, 54, 0
1, 41400, Note_on_c, 1, 73, 127
1, 41400, Note_on_c, 1, 52, 127
1, 41496, Note_off_c, 1, 73, 0
1, 41496, Note_off_c, 1, 52, 0
1, 41520, Note_on_c, 1, 74, 127
1, 41520, Note_on_c, 1, 54, 127
1, 41616, Note_off_c, 1, 74, 0
1, 41616, Note_off_c, 1, 54, 0
1, 41640, Note_on_c, 1, 76, 127
1, 41640, Note_on_c, 1, 52, 127
1, 41664, Note_off_c, 1, 76, 0
1, 41670, Note_on_c, 1, 74, 127
1, 41694, Note_off_c, 1, 74, 0
1, 41736, Note_off_c, 1, 52, 0
1, 41760, Note_on_c, 1, 76, 127
1, 41760, Note_on_c, 1, 50, 127
1, 41784, Note_off_c, 1, 76, 0
1, 41790, Note_on_c, 1, 74, 127
1, 41814, Note_off_c, 1, 74, 0
1, 41820, Note_on_c, 1, 73, 127
1, 41844, Note_off_c, 1, 73, 0
1, 41856, Note_off_c, 1, 50, 0
1, 41880, Note_on_c, 1, 76, 127
1, 41880, Note_on_c, 1, 57, 127
1, 42072, Note_off_c, 1, 76, 0
1, 42120, Note_on_c, 1, 69, 127
1, 42168, Note_off_c, 1, 57, 0
1, 42240, Note_on_c, 1, 71, 127
1, 42240, Note_on_c, 1, 45, 127
1, 42288, Note_off_c, 1, 71, 0
1, 42300, Note_on_c, 1, 73, 127
1, 42336, Note_off_c, 1, 45, 0
1, 42348, Note_off_c, 1, 73, 0
1, 42360, Note_on_c, 1, 74, 127
1, 42360, Note_on_c, 1, 47, 127
1, 42384, Note_off_c, 1, 74, 0
1, 42456, Note_off_c, 1, 47, 0
1, 42480, Note_on_c, 1, 49, 127
1, 42576, Note_off_c, 1, 49, 0
1, 42600, Note_on_c, 1, 50, 127
1, 42696, Note_off_c, 1, 50, 0
1, 42720, Note_on_c, 1, 52, 127
1, 42816, Note_off_c, 1, 52, 0
1, 42840, Note_on_c, 1, 54, 127
1, 42936, Note_off_c, 1, 54, 0
1, 42960, Note_on_c, 1, 55, 127
1, 43128, Note_off_c, 1, 69, 0
1, 43272, Note_off_c, 1, 55, 0
1, 45120, Note_on_c, 1, 78, 127
1, 45216, Note_off_c, 1, 78, 0
1, 45480, Note_on_c, 1, 43, 127
1, 45672, Note_off_c, 1, 43, 0
1, 45720, Note_on_c, 1, 74, 127
1, 45720, Note_on_c, 1, 67, 127
1, 45720, Note_on_c, 1, 54, 127
1, 45720, Note_on_c, 1, 45, 127
1, 45744, Note_off_c, 1, 74, 0
1, 45744, Note_off_c, 1, 54, 0
1, 45750, Note_on_c, 1, 73, 127
1, 45750, Note_on_c, 1, 52, 127
1, 45774, Note_off_c, 1, 73, 0
1, 45774, Note_off_c, 1, 52, 0
1, 46080, Note_on_c, 1, 50, 127
1, 46104, Note_off_c, 1, 67, 0
1, 46104, Note_off_c, 1, 45, 0
1, 46176, Note_off_c, 1, 50, 0
1, 46200, Note_on_c, 1, 66, 127
1, 46200, Note_on_c, 1, 69, 127
1, 46200, Note_on_c, 1, 74, 127
1, 46200, Note_on_c, 1, 38, 127
1, 46200, Note_on_c, 1, 50, 127
1, 46380, Note_off_c, 1, 66, 0
1, 46392, Note_off_c, 1, 69, 0
1, 46392, Note_off_c, 1, 74, 0
1, 46440, Note_on_c, 1, 78, 127
1, 46488, Note_off_c, 1, 38, 0
1, 46488, Note_off_c, 1, 50, 0
1, 46560, Note_on_c, 1, 62, 127
1, 46620, Note_off_c, 1, 78, 0
1, 46656, Note_off_c, 1, 62, 0
1, 46680, Note_on_c, 1, 81, 127
1, 46680, Note_on_c, 1, 60, 127
1, 46776, Note_off_c, 1, 60, 0
1, 46800, Note_on_c, 1, 59, 127
1, 46896, Note_off_c, 1, 59, 0
1, 46920, Note_on_c, 1, 57, 127
1, 46968, Note_off_c, 1, 81, 0
1, 47016, Note_off_c, 1, 57, 0
1, 47040, Note_on_c, 1, 83, 127
1, 47040, Note_on_c, 1, 55, 127
1, 47136, Note_off_c, 1, 83, 0
1, 47136, Note_off_c, 1, 55, 0
1, 47160, Note_on_c, 1, 81, 127
1, 47160, Note_on_c, 1, 54, 127
1, 47256, Note_off_c, 1, 81, 0
1, 47256, Note_off_c, 1, 54, 0
1, 47280, Note_on_c, 1, 79, 127
1, 47280, Note_on_c, 1, 55, 127
1, 47376, Note_off_c, 1, 79, 0
1, 47376, Note_off_c, 1, 55, 0
1, 47400, Note_on_c, 1, 78, 127
1, 47400, Note_on_c, 1, 57, 127
1, 47496, Note_off_c, 1, 78, 0
1, 47496, Note_off_c, 1, 57, 0
1, 47520, Note_on_c, 1, 76, 127
1, 47520, Note_on_c, 1, 54, 127
1, 47616, Note_off_c, 1, 76, 0
1, 47616, Note_off_c, 1, 54, 0
1, 47640, Note_on_c, 1, 75, 127
1, 47640, Note_on_c, 1, 59, 127
1, 47736, Note_off_c, 1, 75, 0
1, 47760, Note_on_c, 1, 71, 127
1, 47856, Note_off_c, 1, 71, 0
1, 47880, Note_on_c, 1, 73, 127
1, 47928, Note_off_c, 1, 59, 0
1, 47976, Note_off_c, 1, 73, 0
1, 48000, Note_on_c, 1, 75, 127
1, 48000, Note_on_c, 1, 57, 127
1, 48096, Note_off_c, 1, 75, 0
1, 48096, Note_off_c, 1, 57, 0
1, 48120, Note_on_c, 1, 76, 127
1, 48120, Note_on_c, 1, 55, 127
1, 48216, Note_off_c, 1, 76, 0
1, 48216, Note_off_c, 1, 55, 0
1, 48240, Note_on_c, 1, 78, 127
1, 48240, Note_on_c, 1, 54, 127
1, 48336, Note_off_c, 1, 78, 0
1, 48336, Note_off_c, 1, 54, 0
1, 48360, Note_on_c, 1, 79, 127
1, 48360, Note_on_c, 1, 52, 127
1, 48456, Note_off_c, 1, 79, 0
1, 48456, Note_off_c, 1, 52, 0
1, 48480, Note_on_c, 1, 81, 127
1, 48480, Note_on_c, 1, 51, 127
1, 48576, Note_off_c, 1, 81, 0
1, 48576, Note_off_c, 1, 51, 0
1, 48600, Note_on_c, 1, 79, 127
1, 48600, Note_on_c, 1, 52, 127
1, 48696, Note_off_c, 1, 79, 0
1, 48696, Note_off_c, 1, 52, 0
1, 48720, Note_on_c, 1, 78, 127
1, 48720, Note_on_c, 1, 54, 127
1, 48816, Note_off_c, 1, 78, 0
1, 48816, Note_off_c, 1, 54, 0
1, 48840, Note_on_c, 1, 76, 127
1, 48840, Note_on_c, 1, 55, 127
1, 48936, Note_off_c, 1, 76, 0
1, 48936, Note_off_c, 1, 55, 0
1, 48960, Note_on_c, 1, 74, 127
1, 48960, Note_on_c, 1, 52, 127
1, 49056, Note_off_c, 1, 74, 0
1, 49056, Note_off_c, 1, 52, 0
1, 49080, Note_on_c, 1, 72, 127
1, 49080, Note_on_c, 1, 57, 127
1, 49176, Note_off_c, 1, 57, 0
1, 49200, Note_on_c, 1, 59, 127
1, 49296, Note_off_c, 1, 59, 0
1, 49368, Note_off_c, 1, 72, 0
1, 49440, Note_on_c, 1, 71, 127
1, 49440, Note_on_c, 1, 55, 127
1, 49536, Note_off_c, 1, 71, 0
1, 49536, Note_off_c, 1, 55, 0
1, 49560, Note_on_c, 1, 69, 127
1, 49560, Note_on_c, 1, 54, 127
1, 49656, Note_off_c, 1, 69, 0
1, 49656, Note_off_c, 1, 54, 0
1, 49680, Note_on_c, 1, 72, 127
1, 49680, Note_on_c, 1, 64, 127
1, 49776, Note_off_c, 1, 72, 0
1, 49776, Note_off_c, 1, 64, 0
1, 49800, Note_on_c, 1, 71, 127
1, 49800, Note_on_c, 1, 63, 127
1, 49896, Note_off_c, 1, 71, 0
1, 49896, Note_off_c, 1, 63, 0
1, 49920, Note_on_c, 1, 69, 127
1, 49920, Note_on_c, 1, 59, 127
1, 50016, Note_off_c, 1, 69, 0
1, 50016, Note_off_c, 1, 59, 0
1, 50040, Note_on_c, 1, 67, 127
1, 50040, Note_on_c, 1, 64, 127
1, 50160, Note_on_c, 1, 59, 127
1, 50256, Note_off_c, 1, 59, 0
1, 50280, Note_on_c, 1, 61, 127
1, 50328, Note_off_c, 1, 67, 0
1, 50376, Note_off_c, 1, 61, 0
1, 50400, Note_on_c, 1, 66, 127
1, 50400, Note_on_c, 1, 57, 127
1, 50424, Note_off_c, 1, 64, 0
1, 50496, Note_off_c, 1, 66, 0
1, 50496, Note_off_c, 1, 57, 0
1, 50520, Note_on_c, 1, 63, 127
1, 50520, Note_on_c, 1, 66, 127
1, 50520, Note_on_c, 1, 59, 127
1, 50700, Note_off_c, 1, 59, 0
1, 50760, Note_on_c, 1, 47, 127
1, 50808, Note_off_c, 1, 63, 0
1, 50808, Note_off_c, 1, 66, 0
1, 50880, Note_on_c, 1, 81, 127
1, 50940, Note_off_c, 1, 47, 0
1, 50976, Note_off_c, 1, 81, 0
1, 51000, Note_on_c, 1, 79, 127
1, 51096, Note_off_c, 1, 79, 0
1, 51120, Note_on_c, 1, 78, 127
1, 51216, Note_off_c, 1, 78, 0
1, 51240, Note_on_c, 1, 76, 127
1, 51336, Note_off_c, 1, 76, 0
1, 51360, Note_on_c, 1, 75, 127
1, 51456, Note_off_c, 1, 75, 0
1, 51480, Note_on_c, 1, 73, 127
1, 51576, Note_off_c, 1, 73, 0
1, 51600, Note_on_c, 1, 71, 127
1, 51720, Note_on_c, 1, 79, 127
1, 51720, Note_on_c, 1, 64, 127
1, 51720, Note_on_c, 1, 59, 127
1, 51900, Note_off_c, 1, 64, 0
1, 51912, Note_off_c, 1, 71, 0
1, 51912, Note_off_c, 1, 79, 0
1, 51912, Note_off_c, 1, 59, 0
1, 51960, Note_on_c, 1, 71, 127
1, 51960, Note_on_c, 1, 63, 127
1, 51960, Note_on_c, 1, 66, 127
1, 51960, Note_on_c, 1, 59, 127
1, 51984, Note_off_c, 1, 71, 0
1, 51990, Note_on_c, 1, 69, 127
1, 52014, Note_off_c, 1, 69, 0
1, 52140, Note_off_c, 1, 59, 0
1, 52200, Note_on_c, 1, 47, 127
1, 52248, Note_off_c, 1, 63, 0
1, 52248, Note_off_c, 1, 66, 0
1, 52320, Note_on_c, 1, 79, 127
1, 52380, Note_off_c, 1, 47, 0
1, 52416, Note_off_c, 1, 79, 0
1, 52440, Note_on_c, 1, 78, 127
1, 52536, Note_off_c, 1, 78, 0
1, 52560, Note_on_c, 1, 76, 127
1, 52656, Note_off_c, 1, 76, 0
1, 52680, Note_on_c, 1, 75, 127
1, 52776, Note_off_c, 1, 75, 0
1, 52800, Note_on_c, 1, 73, 127
1, 52896, Note_off_c, 1, 73, 0
1, 52920, Note_on_c, 1, 71, 127
1, 53016, Note_off_c, 1, 71, 0
1, 53040, Note_on_c, 1, 69, 127
1, 53160, Note_on_c, 1, 78, 127
1, 53160, Note_on_c, 1, 66, 127
1, 53160, Note_on_c, 1, 63, 127
1, 53160, Note_on_c, 1, 59, 127
1, 53340, Note_off_c, 1, 66, 0
1, 53352, Note_off_c, 1, 69, 0
1, 53352, Note_off_c, 1, 78, 0
1, 53352, Note_off_c, 1, 63, 0
1, 53352, Note_off_c, 1, 59, 0
1, 53400, Note_on_c, 1, 67, 127
1, 53400, Note_on_c, 1, 64, 127
1, 53400, Note_on_c, 1, 59, 127
1, 53580, Note_off_c, 1, 59, 0
1, 53640, Note_on_c, 1, 47, 127
1, 53688, Note_off_c, 1, 67, 0
1, 53760, Note_on_c, 1, 71, 127
1, 53784, Note_off_c, 1, 64, 0
1, 53856, Note_off_c, 1, 71, 0
1, 53880, Note_on_c, 1, 73, 127
1, 53976, Note_off_c, 1, 47, 0
1, 53976, Note_off_c, 1, 73, 0
1, 54000, Note_on_c, 1, 75, 127
1, 54000, Note_on_c, 1, 47, 127
1, 54096, Note_off_c, 1, 75, 0
1, 54096, Note_off_c, 1, 47, 0
1, 54120, Note_on_c, 1, 76, 127
1, 54120, Note_on_c, 1, 49, 127
1, 54216, Note_off_c, 1, 76, 0
1, 54216, Note_off_c, 1, 49, 0
1, 54240, Note_on_c, 1, 78, 127
1, 54240, Note_on_c, 1, 51, 127
1, 54336, Note_off_c, 1, 78, 0
1, 54336, Note_off_c, 1, 51, 0
1, 54360, Note_on_c, 1, 79, 127
1, 54360, Note_on_c, 1, 52, 127
1, 54456, Note_off_c, 1, 79, 0
1, 54456, Note_off_c, 1, 52, 0
1, 54480, Note_on_c, 1, 81, 127
1, 54480, Note_on_c, 1, 54, 127
1, 54576, Note_off_c, 1, 54, 0
1, 54600, Note_on_c, 1, 73, 127
1, 54600, Note_on_c, 1, 55, 127
1, 54696, Note_off_c, 1, 55, 0
1, 54720, Note_on_c, 1, 57, 127
1, 54792, Note_off_c, 1, 73, 0
1, 54816, Note_off_c, 1, 57, 0
1, 54840, Note_on_c, 1, 59, 127
1, 54936, Note_off_c, 1, 59, 0
1, 54960, Note_on_c, 1, 75, 127
1, 54960, Note_on_c, 1, 61, 127
1, 55056, Note_off_c, 1, 61, 0
1, 55080, Note_on_c, 1, 63, 127
1, 55128, Note_off_c, 1, 81, 0
1, 55176, Note_off_c, 1, 63, 0
1, 55185, Note_off_c, 1, 75, 0
1, 55200, Note_on_c, 1, 83, 127
1, 55200, Note_on_c, 1, 59, 127
1, 55296, Note_off_c, 1, 83, 0
1, 55296, Note_off_c, 1, 59, 0
1, 55320, Note_on_c, 1, 79, 127
1, 55320, Note_on_c, 1, 76, 127
1, 55320, Note_on_c, 1, 64, 127
1, 55500, Note_off_c, 1, 64, 0
1, 55560, Note_on_c, 1, 57, 127
1, 55608, Note_off_c, 1, 79, 0
1, 55680, Note_on_c, 1, 78, 127
1, 55704, Note_off_c, 1, 76, 0
1, 55740, Note_off_c, 1, 57, 0
1, 55776, Note_off_c, 1, 78, 0
1, 55800, Note_on_c, 1, 79, 127
1, 55800, Note_on_c, 1, 75, 127
1, 55800, Note_on_c, 1, 59, 127
1, 55824, Note_off_c, 1, 79, 0
1, 55830, Note_on_c, 1, 78, 127
1, 55854, Note_off_c, 1, 78, 0
1, 55980, Note_off_c, 1, 59, 0
1, 56040, Note_on_c, 1, 47, 127
1, 56160, Note_on_c, 1, 76, 127
1, 56184, Note_off_c, 1, 75, 0
1, 56220, Note_off_c, 1, 47, 0
1, 56256, Note_off_c, 1, 76, 0
1, 56280, Note_on_c, 1, 76, 127
1, 56280, Note_on_c, 1, 52, 127
1, 56520, Note_on_c, 1, 40, 127
1, 56760, Note_on_c, 1, 47, 127
1, 56856, Note_off_c, 1, 52, 0
1, 56952, Note_off_c, 1, 47, 0
1, 57000, Note_on_c, 1, 67, 127
1, 57000, Note_on_c, 1, 71, 127
1, 57384, Note_off_c, 1, 76, 0
1, 57384, Note_off_c, 1, 40, 0
1, 57384, Note_off_c, 1, 67, 0
1, 57384, Note_off_c, 1, 71, 0
1, 57600, Note_on_c, 1, 78, 127
1, 57696, Note_off_c, 1, 78, 0
1, 57720, Note_on_c, 1, 75, 127
1, 57720, Note_on_c, 1, 78, 127
1, 57720, Note_on_c, 1, 71, 127
1, 57720, Note_on_c, 1, 59, 127
1, 57912, Note_off_c, 1, 75, 0
1, 57912, Note_off_c, 1, 78, 0
1, 57912, Note_off_c, 1, 71, 0
1, 57960, Note_on_c, 1, 76, 127
1, 58008, Note_off_c, 1, 59, 0
1, 58056, Note_off_c, 1, 76, 0
1, 58080, Note_on_c, 1, 75, 127
1, 58080, Note_on_c, 1, 47, 127
1, 58176, Note_off_c, 1, 75, 0
1, 58176, Note_off_c, 1, 47, 0
1, 58200, Note_on_c, 1, 73, 127
1, 58200, Note_on_c, 1, 49, 127
1, 58296, Note_off_c, 1, 73, 0
1, 58296, Note_off_c, 1, 49, 0
1, 58320, Note_on_c, 1, 71, 127
1, 58320, Note_on_c, 1, 51, 127
1, 58416, Note_off_c, 1, 71, 0
1, 58416, Note_off_c, 1, 51, 0
1, 58440, Note_on_c, 1, 73, 127
1, 58440, Note_on_c, 1, 52, 127
1, 58536, Note_off_c, 1, 73, 0
1, 58536, Note_off_c, 1, 52, 0
1, 58560, Note_on_c, 1, 75, 127
1, 58560, Note_on_c, 1, 54, 127
1, 58656, Note_off_c, 1, 75, 0
1, 58656, Note_off_c, 1, 54, 0
1, 58680, Note_on_c, 1, 76, 127
1, 58680, Note_on_c, 1, 55, 127
1, 58776, Note_off_c, 1, 76, 0
1, 58776, Note_off_c, 1, 55, 0
1, 58800, Note_on_c, 1, 78, 127
1, 58800, Note_on_c, 1, 57, 127
1, 58896, Note_off_c, 1, 78, 0
1, 58920, Note_on_c, 1, 79, 127
1, 58920, Note_on_c, 1, 51, 127
1, 58944, Note_off_c, 1, 79, 0
1, 59100, Note_on_c, 1, 76, 127
1, 59112, Note_off_c, 1, 57, 0
1, 59112, Note_off_c, 1, 51, 0
1, 59124, Note_off_c, 1, 76, 0
1, 59130, Note_on_c, 1, 78, 127
1, 59154, Note_off_c, 1, 78, 0
1, 59160, Note_on_c, 1, 71, 127
1, 59160, Note_on_c, 1, 52, 127
1, 59190, Note_on_c, 1, 76, 127
1, 59220, Note_on_c, 1, 79, 127
1, 59256, Note_off_c, 1, 52, 0
1, 59280, Note_on_c, 1, 54, 127
1, 59376, Note_off_c, 1, 54, 0
1, 59472, Note_off_c, 1, 76, 0
1, 59472, Note_off_c, 1, 79, 0
1, 59520, Note_on_c, 1, 64, 127
1, 59520, Note_on_c, 1, 50, 127
1, 59610, Note_off_c, 1, 71, 0
1, 59616, Note_off_c, 1, 64, 0
1, 59616, Note_off_c, 1, 50, 0
1, 59640, Note_on_c, 1, 66, 127
1, 59640, Note_on_c, 1, 48, 127
1, 59736, Note_off_c, 1, 66, 0
1, 59736, Note_off_c, 1, 48, 0
1, 59760, Note_on_c, 1, 68, 127
1, 59760, Note_on_c, 1, 47, 127
1, 59856, Note_off_c, 1, 68, 0
1, 59856, Note_off_c, 1, 47, 0
1, 59880, Note_on_c, 1, 69, 127
1, 59880, Note_on_c, 1, 45, 127
1, 59976, Note_off_c, 1, 69, 0
1, 59976, Note_off_c, 1, 45, 0
1, 60000, Note_on_c, 1, 71, 127
1, 60000, Note_on_c, 1, 44, 127
1, 60096, Note_off_c, 1, 71, 0
1, 60096, Note_off_c, 1, 44, 0
1, 60120, Note_on_c, 1, 72, 127
1, 60120, Note_on_c, 1, 42, 127
1, 60216, Note_off_c, 1, 72, 0
1, 60216, Note_off_c, 1, 42, 0
1, 60240, Note_on_c, 1, 74, 127
1, 60240, Note_on_c, 1, 40, 127
1, 60360, Note_on_c, 1, 68, 127
1, 60360, Note_on_c, 1, 52, 127
1, 60456, Note_off_c, 1, 74, 0
1, 60552, Note_off_c, 1, 40, 0
1, 60552, Note_off_c, 1, 68, 0
1, 60600, Note_on_c, 1, 72, 127
1, 60600, Note_on_c, 1, 69, 127
1, 60600, Note_on_c, 1, 45, 127
1, 60696, Note_off_c, 1, 52, 0
1, 60720, Note_on_c, 1, 56, 127
1, 60816, Note_off_c, 1, 56, 0
1, 60840, Note_on_c, 1, 57, 127
1, 60888, Note_off_c, 1, 72, 0
1, 60888, Note_off_c, 1, 45, 0
1, 60960, Note_on_c, 1, 47, 127
1, 61032, Note_off_c, 1, 57, 0
1, 61056, Note_off_c, 1, 47, 0
1, 61080, Note_on_c, 1, 76, 127
1, 61080, Note_on_c, 1, 48, 127
1, 61176, Note_off_c, 1, 76, 0
1, 61272, Note_off_c, 1, 48, 0
1, 61320, Note_on_c, 1, 50, 127
1, 61368, Note_off_c, 1, 69, 0
1, 61440, Note_on_c, 1, 77, 127
1, 61512, Note_off_c, 1, 50, 0
1, 61536, Note_off_c, 1, 77, 0
1, 61560, Note_on_c, 1, 72, 127
1, 61560, Note_on_c, 1, 68, 127
1, 61560, Note_on_c, 1, 52, 127
1, 61584, Note_off_c, 1, 72, 0
1, 61590, Note_on_c, 1, 71, 127
1, 61614, Note_off_c, 1, 71, 0
1, 61800, Note_on_c, 1, 40, 127
1, 61920, Note_on_c, 1, 69, 127
1, 61944, Note_off_c, 1, 68, 0
1, 61944, Note_off_c, 1, 52, 0
1, 61992, Note_off_c, 1, 40, 0
1, 62016, Note_off_c, 1, 69, 0
1, 62040, Note_on_c, 1, 69, 127
1, 62040, Note_on_c, 1, 60, 127
1, 62040, Note_on_c, 1, 64, 127
1, 62040, Note_on_c, 1, 45, 127
1, 62232, Note_off_c, 1, 45, 0
1, 62280, Note_on_c, 1, 57, 127
1, 62328, Note_off_c, 1, 69, 0
1, 62328, Note_off_c, 1, 60, 0
1, 62328, Note_off_c, 1, 64, 0
1, 62400, Note_on_c, 1, 71, 127
1, 62472, Note_off_c, 1, 57, 0
1, 62496, Note_off_c, 1, 71, 0
1, 62520, Note_on_c, 1, 73, 127
1, 62520, Note_on_c, 1, 55, 127
1, 62616, Note_off_c, 1, 73, 0
1, 62640, Note_on_c, 1, 74, 127
1, 62712, Note_off_c, 1, 55, 0
1, 62736, Note_off_c, 1, 74, 0
1, 62760, Note_on_c, 1, 76, 127
1, 62760, Note_on_c, 1, 54, 127
1, 62856, Note_off_c, 1, 76, 0
1, 62880, Note_on_c, 1, 78, 127
1, 62952, Note_off_c, 1, 54, 0
1, 62976, Note_off_c, 1, 78, 0
1, 63000, Note_on_c, 1, 79, 127
1, 63000, Note_on_c, 1, 52, 127
1, 63096, Note_off_c, 1, 79, 0
1, 63120, Note_on_c, 1, 81, 127
1, 63192, Note_off_c, 1, 52, 0
1, 63240, Note_on_c, 1, 74, 127
1, 63240, Note_on_c, 1, 72, 127
1, 63240, Note_on_c, 1, 54, 127
1, 63336, Note_off_c, 1, 81, 0
1, 63432, Note_off_c, 1, 74, 0
1, 63432, Note_off_c, 1, 72, 0
1, 63432, Note_off_c, 1, 54, 0
1, 63480, Note_on_c, 1, 83, 127
1, 63480, Note_on_c, 1, 55, 127
1, 63576, Note_off_c, 1, 83, 0
1, 63600, Note_on_c, 1, 84, 127
1, 63696, Note_off_c, 1, 84, 0
1, 63768, Note_off_c, 1, 55, 0
1, 63840, Note_on_c, 1, 81, 127
1, 63840, Note_on_c, 1, 57, 127
1, 63936, Note_off_c, 1, 81, 0
1, 63936, Note_off_c, 1, 57, 0
1, 63960, Note_on_c, 1, 79, 127
1, 63960, Note_on_c, 1, 59, 127
1, 64056, Note_off_c, 1, 79, 0
1, 64056, Note_off_c, 1, 59, 0
1, 64080, Note_on_c, 1, 78, 127
1, 64080, Note_on_c, 1, 57, 127
1, 64176, Note_off_c, 1, 78, 0
1, 64176, Note_off_c, 1, 57, 0
1, 64200, Note_on_c, 1, 76, 127
1, 64200, Note_on_c, 1, 55, 127
1, 64296, Note_off_c, 1, 76, 0
1, 64296, Note_off_c, 1, 55, 0
1, 64320, Note_on_c, 1, 74, 127
1, 64320, Note_on_c, 1, 54, 127
1, 64416, Note_off_c, 1, 74, 0
1, 64416, Note_off_c, 1, 54, 0
1, 64440, Note_on_c, 1, 73, 127
1, 64440, Note_on_c, 1, 52, 127
1, 64536, Note_off_c, 1, 73, 0
1, 64536, Note_off_c, 1, 52, 0
1, 64560, Note_on_c, 1, 74, 127
1, 64560, Note_on_c, 1, 54, 127
1, 64656, Note_off_c, 1, 74, 0
1, 64656, Note_off_c, 1, 54, 0
1, 64680, Note_on_c, 1, 76, 127
1, 64680, Note_on_c, 1, 52, 127
1, 64704, Note_off_c, 1, 76, 0
1, 64710, Note_on_c, 1, 74, 127
1, 64734, Note_off_c, 1, 74, 0
1, 64776, Note_off_c, 1, 52, 0
1, 64800, Note_on_c, 1, 76, 127
1, 64800, Note_on_c, 1, 50, 127
1, 64824, Note_off_c, 1, 76, 0
1, 64830, Note_on_c, 1, 74, 127
1, 64854, Note_off_c, 1, 74, 0
1, 64860, Note_on_c, 1, 73, 127
1, 64884, Note_off_c, 1, 73, 0
1, 64896, Note_off_c, 1, 50, 0
1, 64920, Note_on_c, 1, 76, 127
1, 64920, Note_on_c, 1, 57, 127
1, 65112, Note_off_c, 1, 76, 0
1, 65160, Note_on_c, 1, 69, 127
1, 65208, Note_off_c, 1, 57, 0
1, 65280, Note_on_c, 1, 71, 127
1, 65280, Note_on_c, 1, 45, 127
1, 65328, Note_off_c, 1, 71, 0
1, 65340, Note_on_c, 1, 73, 127
1, 65376, Note_off_c, 1, 45, 0
1, 65388, Note_off_c, 1, 73, 0
1, 65400, Note_on_c, 1, 74, 127
1, 65400, Note_on_c, 1, 47, 127
1, 65424, Note_off_c, 1, 74, 0
1, 65496, Note_off_c, 1, 47, 0
1, 65520, Note_on_c, 1, 49, 127
1, 65616, Note_off_c, 1, 49, 0
1, 65640, Note_on_c, 1, 50, 127
1, 65736, Note_off_c, 1, 50, 0
1, 65760, Note_on_c, 1, 52, 127
1, 65856, Note_off_c, 1, 52, 0
1, 65880, Note_on_c, 1, 54, 127
1, 65976, Note_off_c, 1, 54, 0
1, 66000, Note_on_c, 1, 55, 127
1, 66168, Note_off_c, 1, 69, 0
1, 66312, Note_off_c, 1, 55, 0
1, 68160, Note_on_c, 1, 78, 127
1, 68256, Note_off_c, 1, 78, 0
1, 68520, Note_on_c, 1, 43, 127
1, 68712, Note_off_c, 1, 43, 0
1, 68760, Note_on_c, 1, 74, 127
1, 68760, Note_on_c, 1, 67, 127
1, 68760, Note_on_c, 1, 54, 127
1, 68760, Note_on_c, 1, 45, 127
1, 68784, Note_off_c, 1, 74, 0
1, 68784, Note_off_c, 1, 54, 0
1, 68790, Note_on_c, 1, 73, 127
1, 68790, Note_on_c, 1, 52, 127
1, 68814, Note_off_c, 1, 73, 0
1, 68814, Note_off_c, 1, 52, 0
1, 69120, Note_on_c, 1, 50, 127
1, 69144, Note_off_c, 1, 67, 0
1, 69144, Note_off_c, 1, 45, 0
1, 69216, Note_off_c, 1, 50, 0
1, 69240, Note_on_c, 1, 66, 127
1, 69240, Note_on_c, 1, 69, 127
1, 69240, Note_on_c, 1, 74, 127
1, 69240, Note_on_c, 1, 38, 127
1, 69240, Note_on_c, 1, 50, 127
1, 69420, Note_off_c, 1, 66, 0
1, 69432, Note_off_c, 1, 69, 0
1, 69432, Note_off_c, 1, 74, 0
1, 69480, Note_on_c, 1, 78, 127
1, 69528, Note_off_c, 1, 38, 0
1, 69528, Note_off_c, 1, 50, 0
1, 69600, Note_on_c, 1, 62, 127
1, 69660, Note_off_c, 1, 78, 0
1, 69696, Note_off_c, 1, 62, 0
1, 69720, Note_on_c, 1, 81, 127
1, 69720, Note_on_c, 1, 60, 127
1, 69816, Note_off_c, 1, 60, 0
1, 69840, Note_on_c, 1, 59, 127
1, 69936, Note_off_c, 1, 59, 0
1, 69960, Note_on_c, 1, 57, 127
1, 70008, Note_off_c, 1, 81, 0
1, 70056, Note_off_c, 1, 57, 0
1, 70080, Note_on_c, 1, 83, 127
1, 70080, Note_on_c, 1, 55, 127
1, 70176, Note_off_c, 1, 83, 0
1, 70176, Note_off_c, 1, 55, 0
1, 70200, Note_on_c, 1, 81, 127
1, 70200, Note_on_c, 1, 54, 127
1, 70296, Note_off_c, 1, 81, 0
1, 70296, Note_off_c, 1, 54, 0
1, 70320, Note_on_c, 1, 79, 127
1, 70320, Note_on_c, 1, 55, 127
1, 70416, Note_off_c, 1, 79, 0
1, 70416, Note_off_c, 1, 55, 0
1, 70440, Note_on_c, 1, 78, 127
1, 70440, Note_on_c, 1, 57, 127
1, 70536, Note_off_c, 1, 78, 0
1, 70536, Note_off_c, 1, 57, 0
1, 70560, Note_on_c, 1, 76, 127
1, 70560, Note_on_c, 1, 54, 127
1, 70656, Note_off_c, 1, 76, 0
1, 70656, Note_off_c, 1, 54, 0
1, 70680, Note_on_c, 1, 75, 127
1, 70680, Note_on_c, 1, 59, 127
1, 70776, Note_off_c, 1, 75, 0
1, 70800, Note_on_c, 1, 71, 127
1, 70896, Note_off_c, 1, 71, 0
1, 70920, Note_on_c, 1, 73, 127
1, 70968, Note_off_c, 1, 59, 0
1, 71016, Note_off_c, 1, 73, 0
1, 71040, Note_on_c, 1, 75, 127
1, 71040, Note_on_c, 1, 57, 127
1, 71136, Note_off_c, 1, 75, 0
1, 71136, Note_off_c, 1, 57, 0
1, 71160, Note_on_c, 1, 76, 127
1, 71160, Note_on_c, 1, 55, 127
1, 71256, Note_off_c, 1, 76, 0
1, 71256, Note_off_c, 1, 55, 0
1, 71280, Note_on_c, 1, 78, 127
1, 71280, Note_on_c, 1, 54, 127
1, 71376, Note_off_c, 1, 78, 0
1, 71376, Note_off_c, 1, 54, 0
1, 71400, Note_on_c, 1, 79, 127
1, 71400, Note_on_c, 1, 52, 127
1, 71496, Note_off_c, 1, 79, 0
1, 71496, Note_off_c, 1, 52, 0
1, 71520, Note_on_c, 1, 81, 127
1, 71520, Note_on_c, 1, 51, 127
1, 71616, Note_off_c, 1, 81, 0
1, 71616, Note_off_c, 1, 51, 0
1, 71640, Note_on_c, 1, 79, 127
1, 71640, Note_on_c, 1, 52, 127
1, 71736, Note_off_c, 1, 79, 0
1, 71736, Note_off_c, 1, 52, 0
1, 71760, Note_on_c, 1, 78, 127
1, 71760, Note_on_c, 1, 54, 127
1, 71856, Note_off_c, 1, 78, 0
1, 71856, Note_off_c, 1, 54, 0
1, 71880, Note_on_c, 1, 76, 127
1, 71880, Note_on_c, 1, 55, 127
1, 71976, Note_off_c, 1, 76, 0
1, 71976, Note_off_c, 1, 55, 0
1, 72000, Note_on_c, 1, 74, 127
1, 72000, Note_on_c, 1, 52, 127
1, 72096, Note_off_c, 1, 74, 0
1, 72096, Note_off_c, 1, 52, 0
1, 72120, Note_on_c, 1, 72, 127
1, 72120, Note_on_c, 1, 57, 127
1, 72216, Note_off_c, 1, 57, 0
1, 72240, Note_on_c, 1, 59, 127
1, 72336, Note_off_c, 1, 59, 0
1, 72408, Note_off_c, 1, 72, 0
1, 72480, Note_on_c, 1, 71, 127
1, 72480, Note_on_c, 1, 55, 127
1, 72576, Note_off_c, 1, 71, 0
1, 72576, Note_off_c, 1, 55, 0
1, 72600, Note_on_c, 1, 69, 127
1, 72600, Note_on_c, 1, 54, 127
1, 72696, Note_off_c, 1, 69, 0
1, 72696, Note_off_c, 1, 54, 0
1, 72720, Note_on_c, 1, 72, 127
1, 72720, Note_on_c, 1, 64, 127
1, 72816, Note_off_c, 1, 72, 0
1, 72816, Note_off_c, 1, 64, 0
1, 72840, Note_on_c, 1, 71, 127
1, 72840, Note_on_c, 1, 63, 127
1, 72936, Note_off_c, 1, 71, 0
1, 72936, Note_off_c, 1, 63, 0
1, 72960, Note_on_c, 1, 69, 127
1, 72960, Note_on_c, 1, 59, 127
1, 73056, Note_off_c, 1, 69, 0
1, 73056, Note_off_c, 1, 59, 0
1, 73080, Note_on_c, 1, 67, 127
1, 73080, Note_on_c, 1, 64, 127
1, 73200, Note_on_c, 1, 59, 127
1, 73296, Note_off_c, 1, 59, 0
1, 73320, Note_on_c, 1, 61, 127
1, 73368, Note_off_c, 1, 67, 0
1, 73416, Note_off_c, 1, 61, 0
1, 73440, Note_on_c, 1, 66, 127
1, 73440, Note_on_c, 1, 57, 127
1, 73464, Note_off_c, 1, 64, 0
1, 73536, Note_off_c, 1, 66, 0
1, 73536, Note_off_c, 1, 57, 0
1, 73560, Note_on_c, 1, 63, 127
1, 73560, Note_on_c, 1, 66, 127
1, 73560, Note_on_c, 1, 59, 127
1, 73740, Note_off_c, 1, 59, 0
1, 73800, Note_on_c, 1, 47, 127
1, 73848, Note_off_c, 1, 63, 0
1, 73848, Note_off_c, 1, 66, 0
1, 73920, Note_on_c, 1, 81, 127
1, 73980, Note_off_c, 1, 47, 0
1, 74016, Note_off_c, 1, 81, 0
1, 74040, Note_on_c, 1, 79, 127
1, 74136, Note_off_c, 1, 79, 0
1, 74160, Note_on_c, 1, 78, 127
1, 74256, Note_off_c, 1, 78, 0
1, 74280, Note_on_c, 1, 76, 127
1, 74376, Note_off_c, 1, 76, 0
1, 74400, Note_on_c, 1, 75, 127
1, 74496, Note_off_c, 1, 75, 0
1, 74520, Note_on_c, 1, 73, 127
1, 74616, Note_off_c, 1, 73, 0
1, 74640, Note_on_c, 1, 71, 127
1, 74760, Note_on_c, 1, 79, 127
1, 74760, Note_on_c, 1, 64, 127
1, 74760, Note_on_c, 1, 59, 127
1, 74940, Note_off_c, 1, 64, 0
1, 74952, Note_off_c, 1, 71, 0
1, 74952, Note_off_c, 1, 79, 0
1, 74952, Note_off_c, 1, 59, 0
1, 75000, Note_on_c, 1, 71, 127
1, 75000, Note_on_c, 1, 63, 127
1, 75000, Note_on_c, 1, 66, 127
1, 75000, Note_on_c, 1, 59, 127
1, 75024, Note_off_c, 1, 71, 0
1, 75030, Note_on_c, 1, 69, 127
1, 75054, Note_off_c, 1, 69, 0
1, 75180, Note_off_c, 1, 59, 0
1, 75240, Note_on_c, 1, 47, 127
1, 75288, Note_off_c, 1, 63, 0
1, 75288, Note_off_c, 1, 66, 0
1, 75360, Note_on_c, 1, 79, 127
1, 75420, Note_off_c, 1, 47, 0
1, 75456, Note_off_c, 1, 79, 0
1, 75480, Note_on_c, 1, 78, 127
1, 75576, Note_off_c, 1, 78, 0
1, 75600, Note_on_c, 1, 76, 127
1, 75696, Note_off_c, 1, 76, 0
1, 75720, Note_on_c, 1, 75, 127
1, 75816, Note_off_c, 1, 75, 0
1, 75840, Note_on_c, 1, 73, 127
1, 75936, Note_off_c, 1, 73, 0
1, 75960, Note_on_c, 1, 71, 127
1, 76056, Note_off_c, 1, 71, 0
1, 76080, Note_on_c, 1, 69, 127
1, 76200, Note_on_c, 1, 78, 127
1, 76200, Note_on_c, 1, 66, 127
1, 76200, Note_on_c, 1, 63, 127
1, 76200, Note_on_c, 1, 59, 127
1, 76380, Note_off_c, 1, 66, 0
1, 76392, Note_off_c, 1, 69, 0
1, 76392, Note_off_c, 1, 78, 0
1, 76392, Note_off_c, 1, 63, 0
1, 76392, Note_off_c, 1, 59, 0
1, 76440, Note_on_c, 1, 67, 127
1, 76440, Note_on_c, 1, 64, 127
1, 76440, Note_on_c, 1, 59, 127
1, 76620, Note_off_c, 1, 59, 0
1, 76680, Note_on_c, 1, 47, 127
1, 76728, Note_off_c, 1, 67, 0
1, 76800, Note_on_c, 1, 71, 127
1, 76824, Note_off_c, 1, 64, 0
1, 76896, Note_off_c, 1, 71, 0
1, 76920, Note_on_c, 1, 73, 127
1, 77016, Note_off_c, 1, 47, 0
1, 77016, Note_off_c, 1, 73, 0
1, 77040, Note_on_c, 1, 75, 127
1, 77040, Note_on_c, 1, 47, 127
1, 77136, Note_off_c, 1, 75, 0
1, 77136, Note_off_c, 1, 47, 0
1, 77160, Note_on_c, 1, 76, 127
1, 77160, Note_on_c, 1, 49, 127
1, 77256, Note_off_c, 1, 76, 0
1, 77256, Note_off_c, 1, 49, 0
1, 77280, Note_on_c, 1, 78, 127
1, 77280, Note_on_c, 1, 51, 127
1, 77376, Note_off_c, 1, 78, 0
1, 77376, Note_off_c, 1, 51, 0
1, 77400, Note_on_c, 1, 79, 127
1, 77400, Note_on_c, 1, 52, 127
1, 77496, Note_off_c, 1, 79, 0
1, 77496, Note_off_c, 1, 52, 0
1, 77520, Note_on_c, 1, 81, 127
1, 77520, Note_on_c, 1, 54, 127
1, 77616, Note_off_c, 1, 54, 0
1, 77640, Note_on_c, 1, 73, 127
1, 77640, Note_on_c, 1, 55, 127
1, 77736, Note_off_c, 1, 55, 0
1, 77760, Note_on_c, 1, 57, 127
1, 77832, Note_off_c, 1, 73, 0
1, 77856, Note_off_c, 1, 57, 0
1, 77880, Note_on_c, 1, 59, 127
1, 77976, Note_off_c, 1, 59, 0
1, 78000, Note_on_c, 1, 75, 127
1, 78000, Note_on_c, 1, 61, 127
1, 78096, Note_off_c, 1, 61, 0
1, 78120, Note_on_c, 1, 63, 127
1, 78168, Note_off_c, 1, 81, 0
1, 78216, Note_off_c, 1, 63, 0
1, 78225, Note_off_c, 1, 75, 0
1, 78240, Note_on_c, 1, 83, 127
1, 78240, Note_on_c, 1, 59, 127
1, 78336, Note_off_c, 1, 83, 0
1, 78336, Note_off_c, 1, 59, 0
1, 78360, Note_on_c, 1, 79, 127
1, 78360, Note_on_c, 1, 76, 127
1, 78360, Note_on_c, 1, 64, 127
1, 78540, Note_off_c, 1, 64, 0
1, 78600, Note_on_c, 1, 57, 127
1, 78648, Note_off_c, 1, 79, 0
1, 78720, Note_on_c, 1, 78, 127
1, 78744, Note_off_c, 1, 76, 0
1, 78780, Note_off_c, 1, 57, 0
1, 78816, Note_off_c, 1, 78, 0
1, 78840, Note_on_c, 1, 79, 127
1, 78840, Note_on_c, 1, 75, 127
1, 78840, Note_on_c, 1, 59, 127
1, 78864, Note_off_c, 1, 79, 0
1, 78870, Note_on_c, 1, 78, 127
1, 78894, Note_off_c, 1, 78, 0
1, 79020, Note_off_c, 1, 59, 0
1, 79080, Note_on_c, 1, 47, 127
1, 79200, Note_on_c, 1, 76, 127
1, 79224, Note_off_c, 1, 75, 0
1, 79260, Note_off_c, 1, 47, 0
1, 79296, Note_off_c, 1, 76, 0
1, 79320, Note_on_c, 1, 76, 127
1, 79320, Note_on_c, 1, 52, 127
1, 79560, Note_on_c, 1, 40, 127
1, 79800, Note_on_c, 1, 47, 127
1, 79896, Note_off_c, 1, 52, 0
1, 79992, Note_off_c, 1, 47, 0
1, 80040, Note_on_c, 1, 67, 127
1, 80040, Note_on_c, 1, 71, 127
1, 80424, Note_off_c, 1, 76, 0
1, 80424, Note_off_c, 1, 40, 0
1, 80424, Note_off_c, 1, 67, 0
1, 80424, Note_off_c, 1, 71, 0
1, 80424, End_track
0, 0, End_of_file