0, 0, Header, 1, 1, 480
1, 0, Start_track
1, 0, Title_t, "Test"
1, 0, Tempo, 500000
1, 0, Instrument_name_t, "Church Organ"
1, 0, Note_on_c, 1, 64, 127
1, 0, Note_on_c, 1, 72, 127
1, 0, Note_on_c, 1, 69, 127
1, 0, Note_on_c, 1, 57, 127
1, 192, Note_off_c, 1, 64, 0
1, 192, Note_off_c, 1, 72, 0
1, 192, Note_off_c, 1, 69, 0
1, 192, Note_off_c, 1, 57, 0
1, 240, Note_on_c, 1, 64, 127
1, 240, Note_on_c, 1, 72, 127
1, 240, Note_on_c, 1, 65, 127
1, 240, Note_on_c, 1, 50, 127
1, 336, Note_off_c, 1, 64, 0
1, 336, Note_off_c, 1, 72, 0
1, 360, Note_on_c, 1, 71, 127
1, 360, Note_on_c, 1, 62, 127
1, 432, Note_off_c, 1, 65, 0
1, 432, Note_off_c, 1, 50, 0
1, 456, Note_off_c, 1, 71, 0
1, 456, Note_off_c, 1, 62, 0
1, 480, Note_on_c, 1, 69, 127
1, 480, Note_on_c, 1, 60, 127
1, 480, Note_on_c, 1, 64, 127
1, 480, Note_on_c, 1, 52, 127
1, 576, Note_off_c, 1, 69, 0
1, 576, Note_off_c, 1, 60, 0
1, 600, Note_on_c, 1, 68, 127
1, 600, Note_on_c, 1, 59, 127
1, 615, Note_off_c, 1, 68, 0
1, 672, Note_off_c, 1, 52, 0
1, 696, Note_off_c, 1, 59, 0
1, 705, Note_off_c, 1, 64, 0
1, 720, Note_on_c, 1, 69, 127
1, 720, Note_on_c, 1, 60, 127
1, 720, Note_on_c, 1, 57, 127
1, 720, Note_on_c, 1, 53, 127
1, 777, Note_off_c, 1, 69, 0
1, 780, Note_on_c, 1, 68, 127
1, 828, Note_off_c, 1, 68, 0
1, 840, Note_on_c, 1, 71, 127
1, 888, Note_off_c, 1, 71, 0
1, 912, Note_off_c, 1, 60, 0
1, 912, Note_off_c, 1, 57, 0
1, 912, Note_off_c, 1, 53, 0
1, 960, Note_on_c, 1, 60, 127
1, 960, Note_on_c, 1, 69, 127
1, 960, Note_on_c, 1, 52, 127
1, 960, Note_on_c, 1, 57, 127
1, 1056, Note_off_c, 1, 52, 0
1, 1080, Note_on_c, 1, 50, 127
1, 1176, Note_off_c, 1, 50, 0
1, 1200, Note_on_c, 1, 48, 127
1, 1296, Note_off_c, 1, 48, 0
1, 1320, Note_on_c, 1, 47, 127
1, 1344, Note_off_c, 1, 60, 0
1, 1344, Note_off_c, 1, 57, 0
1, 1410, Note_off_c, 1, 69, 0
1, 1416, Note_off_c, 1, 47, 0
1, 1440, Note_on_c, 1, 48, 127
1, 1455, Note_on_c, 1, 52, 127
1, 1470, Note_on_c, 1, 57, 127
1, 1485, Note_on_c, 1, 64, 127
1, 1500, Note_on_c, 1, 69, 127
1, 1515, Note_on_c, 1, 72, 127
1, 1530, Note_on_c, 1, 76, 127
1, 1613, Note_off_c, 1, 64, 0
1, 1613, Note_off_c, 1, 69, 0
1, 1626, Note_off_c, 1, 72, 0
1, 1644, Note_off_c, 1, 52, 0
1, 1644, Note_off_c, 1, 57, 0
1, 1665, Note_off_c, 1, 48, 0
1, 1673, Note_off_c, 1, 76, 0
1, 1680, Note_on_c, 1, 76, 127
1, 1680, Note_on_c, 1, 72, 127
1, 1680, Note_on_c, 1, 65, 127
1, 1680, Note_on_c, 1, 57, 127
1, 1680, Note_on_c, 1, 50, 127
1, 1776, Note_off_c, 1, 76, 0
1, 1776, Note_off_c, 1, 72, 0
1, 1800, Note_on_c, 1, 74, 127
1, 1800, Note_on_c, 1, 71, 127
1, 1872, Note_off_c, 1, 57, 0
1, 1872, Note_off_c, 1, 50, 0
1, 1896, Note_off_c, 1, 65, 0
1, 1896, Note_off_c, 1, 74, 0
1, 1896, Note_off_c, 1, 71, 0
1, 1920, Note_on_c, 1, 69, 127
1, 1920, Note_on_c, 1, 72, 127
1, 1920, Note_on_c, 1, 64, 127
1, 1920, Note_on_c, 1, 52, 127
1, 2016, Note_off_c, 1, 69, 0
1, 2016, Note_off_c, 1, 72, 0
1, 2040, Note_on_c, 1, 68, 127
1, 2040, Note_on_c, 1, 71, 127
1, 2112, Note_off_c, 1, 52, 0
1, 2136, Note_off_c, 1, 64, 0
1, 2136, Note_off_c, 1, 68, 0
1, 2136, Note_off_c, 1, 71, 0
1, 2160, Note_on_c, 1, 68, 127
1, 2160, Note_on_c, 1, 71, 127
1, 2160, Note_on_c, 1, 64, 127
1, 2160, Note_on_c, 1, 45, 127
1, 2352, Note_off_c, 1, 68, 0
1, 2352, Note_off_c, 1, 71, 0
1, 2352, Note_off_c, 1, 45, 0
1, 2400, Note_on_c, 1, 72, 127
1, 2400, Note_on_c, 1, 69, 127
1, 2400, Note_on_c, 1, 48, 127
1, 2415, Note_off_c, 1, 72, 0
1, 2448, Note_off_c, 1, 64, 0
1, 2520, Note_on_c, 1, 62, 127
1, 2592, Note_off_c, 1, 69, 0
1, 2592, Note_off_c, 1, 48, 0
1, 2616, Note_off_c, 1, 62, 0
1, 2640, Note_on_c, 1, 60, 127
1, 2640, Note_on_c, 1, 69, 127
1, 2640, Note_on_c, 1, 64, 127
1, 2640, Note_on_c, 1, 52, 127
1, 2736, Note_off_c, 1, 60, 0
1, 2760, Note_on_c, 1, 59, 127
1, 2832, Note_off_c, 1, 69, 0
1, 2832, Note_off_c, 1, 64, 0
1, 2856, Note_off_c, 1, 59, 0
1, 2880, Note_off_c, 1, 52, 0
1, 2880, Note_on_c, 1, 72, 127
1, 2880, Note_on_c, 1, 57, 127
1, 2976, Note_off_c, 1, 72, 0
1, 3000, Note_on_c, 1, 70, 127
1, 3048, Note_off_c, 1, 70, 0
1, 3072, Note_off_c, 1, 57, 0
1, 3120, Note_on_c, 1, 67, 127
1, 3120, Note_on_c, 1, 45, 127
1, 3168, Note_off_c, 1, 67, 0
1, 3180, Note_on_c, 1, 65, 127
1, 3276, Note_off_c, 1, 65, 0
1, 3312, Note_off_c, 1, 45, 0
1, 3330, Note_on_c, 1, 64, 127
1, 3354, Note_off_c, 1, 64, 0
1, 3360, Note_on_c, 1, 65, 127
1, 3408, Note_off_c, 1, 65, 0
1, 3420, Note_on_c, 1, 69, 127
1, 3468, Note_off_c, 1, 69, 0
1, 3480, Note_on_c, 1, 71, 127
1, 3528, Note_off_c, 1, 71, 0
1, 3540, Note_on_c, 1, 74, 127
1, 3564, Note_off_c, 1, 74, 0
1, 3570, Note_on_c, 1, 72, 127
1, 3594, Note_off_c, 1, 72, 0
1, 3600, Note_on_c, 1, 74, 127
1, 3600, Note_on_c, 1, 59, 127
1, 3696, Note_off_c, 1, 74, 0
1, 3720, Note_on_c, 1, 72, 127
1, 3768, Note_off_c, 1, 72, 0
1, 3780, Note_on_c, 1, 71, 127
1, 3792, Note_off_c, 1, 59, 0
1, 3828, Note_off_c, 1, 71, 0
1, 3840, Note_on_c, 1, 69, 127
1, 3840, Note_on_c, 1, 47, 127
1, 3888, Note_off_c, 1, 69, 0
1, 3900, Note_on_c, 1, 67, 127
1, 3948, Note_off_c, 1, 67, 0
1, 3960, Note_on_c, 1, 65, 127
1, 4008, Note_off_c, 1, 65, 0
1, 4032, Note_off_c, 1, 47, 0
1, 4050, Note_on_c, 1, 64, 127
1, 4074, Note_off_c, 1, 64, 0
1, 4080, Note_on_c, 1, 65, 127
1, 4152, Note_off_c, 1, 65, 0
1, 4170, Note_on_c, 1, 67, 127
1, 4194, Note_off_c, 1, 67, 0
1, 4200, Note_on_c, 1, 69, 127
1, 4224, Note_off_c, 1, 69, 0
1, 4230, Note_on_c, 1, 71, 127
1, 4254, Note_off_c, 1, 71, 0
1, 4260, Note_on_c, 1, 72, 127
1, 4284, Note_off_c, 1, 72, 0
1, 4290, Note_on_c, 1, 74, 127
1, 4314, Note_off_c, 1, 74, 0
1, 4320, Note_on_c, 1, 76, 127
1, 4320, Note_on_c, 1, 67, 127
1, 4320, Note_on_c, 1, 72, 127
1, 4320, Note_on_c, 1, 60, 127
1, 4416, Note_off_c, 1, 76, 0
1, 4416, Note_off_c, 1, 60, 0
1, 4440, Note_on_c, 1, 74, 127
1, 4440, Note_on_c, 1, 59, 127
1, 4512, Note_off_c, 1, 67, 0
1, 4512, Note_off_c, 1, 72, 0
1, 4536, Note_off_c, 1, 74, 0
1, 4536, Note_off_c, 1, 59, 0
1, 4560, Note_on_c, 1, 74, 127
1, 4560, Note_on_c, 1, 60, 127
1, 4560, Note_on_c, 1, 72, 127
1, 4560, Note_on_c, 1, 57, 127
1, 4584, Note_off_c, 1, 74, 0
1, 4590, Note_on_c, 1, 76, 127
1, 4614, Note_off_c, 1, 76, 0
1, 4620, Note_on_c, 1, 77, 127
1, 4656, Note_off_c, 1, 57, 0
1, 4668, Note_off_c, 1, 77, 0
1, 4680, Note_on_c, 1, 55, 127
1, 4752, Note_off_c, 1, 60, 0
1, 4752, Note_off_c, 1, 72, 0
1, 4776, Note_off_c, 1, 55, 0
1, 4800, Note_on_c, 1, 74, 127
1, 4800, Note_on_c, 1, 65, 127
1, 4800, Note_on_c, 1, 69, 127
1, 4800, Note_on_c, 1, 53, 127
1, 4848, Note_off_c, 1, 74, 0
1, 4860, Note_on_c, 1, 77, 127
1, 4884, Note_off_c, 1, 77, 0
1, 4890, Note_on_c, 1, 76, 127
1, 4896, Note_off_c, 1, 65, 0
1, 4913, Note_off_c, 1, 53, 0
1, 4914, Note_off_c, 1, 76, 0
1, 4920, Note_on_c, 1, 64, 127
1, 4992, Note_off_c, 1, 69, 0
1, 5010, Note_on_c, 1, 72, 127
1, 5016, Note_off_c, 1, 64, 0
1, 5034, Note_off_c, 1, 72, 0
1, 5040, Note_on_c, 1, 72, 127
1, 5040, Note_on_c, 1, 71, 127
1, 5040, Note_on_c, 1, 62, 127
1, 5040, Note_on_c, 1, 53, 127
1, 5088, Note_off_c, 1, 72, 0
1, 5100, Note_on_c, 1, 79, 127
1, 5136, Note_off_c, 1, 53, 0
1, 5160, Note_on_c, 1, 52, 127
1, 5232, Note_off_c, 1, 71, 0
1, 5244, Note_off_c, 1, 79, 0
1, 5256, Note_off_c, 1, 52, 0
1, 5265, Note_off_c, 1, 62, 0
1, 5280, Note_on_c, 1, 79, 127
1, 5280, Note_on_c, 1, 71, 127
1, 5280, Note_on_c, 1, 62, 127
1, 5280, Note_on_c, 1, 55, 127
1, 5376, Note_off_c, 1, 55, 0
1, 5400, Note_on_c, 1, 53, 127
1, 5496, Note_off_c, 1, 53, 0
1, 5520, Note_on_c, 1, 52, 127
1, 5616, Note_off_c, 1, 52, 0
1, 5640, Note_on_c, 1, 50, 127
1, 5664, Note_off_c, 1, 79, 0
1, 5664, Note_off_c, 1, 71, 0
1, 5730, Note_off_c, 1, 62, 0
1, 5736, Note_off_c, 1, 50, 0
1, 5760, Note_on_c, 1, 70, 127
1, 5760, Note_on_c, 1, 52, 127
1, 5808, Note_off_c, 1, 70, 0
1, 5820, Note_on_c, 1, 69, 127
1, 5868, Note_off_c, 1, 69, 0
1, 5940, Note_on_c, 1, 79, 127
1, 5988, Note_off_c, 1, 79, 0
1, 6000, Note_on_c, 1, 76, 127
1, 6048, Note_off_c, 1, 76, 0
1, 6060, Note_on_c, 1, 72, 127
1, 6108, Note_off_c, 1, 72, 0
1, 6144, Note_off_c, 1, 52, 0
1, 6180, Note_on_c, 1, 69, 127
1, 6228, Note_off_c, 1, 69, 0
1, 6240, Note_on_c, 1, 70, 127
1, 6288, Note_off_c, 1, 70, 0
1, 6300, Note_on_c, 1, 69, 127
1, 6348, Note_off_c, 1, 69, 0
1, 6360, Note_on_c, 1, 70, 127
1, 6408, Note_off_c, 1, 70, 0
1, 6420, Note_on_c, 1, 79, 127
1, 6468, Note_off_c, 1, 79, 0
1, 6480, Note_on_c, 1, 69, 127
1, 6480, Note_on_c, 1, 53, 127
1, 6528, Note_off_c, 1, 69, 0
1, 6540, Note_on_c, 1, 67, 127
1, 6588, Note_off_c, 1, 67, 0
1, 6660, Note_on_c, 1, 72, 127
1, 6708, Note_off_c, 1, 72, 0
1, 6720, Note_on_c, 1, 74, 127
1, 6768, Note_off_c, 1, 74, 0
1, 6780, Note_on_c, 1, 76, 127
1, 6828, Note_off_c, 1, 76, 0
1, 6840, Note_on_c, 1, 77, 127
1, 6864, Note_off_c, 1, 53, 0
1, 6888, Note_off_c, 1, 77, 0
1, 6900, Note_on_c, 1, 79, 127
1, 6948, Note_off_c, 1, 79, 0
1, 6960, Note_on_c, 1, 81, 127
1, 6960, Note_on_c, 1, 54, 127
1, 7008, Note_off_c, 1, 81, 0
1, 7020, Note_on_c, 1, 75, 127
1, 7068, Note_off_c, 1, 75, 0
1, 7080, Note_on_c, 1, 74, 127
1, 7128, Note_off_c, 1, 74, 0
1, 7140, Note_on_c, 1, 72, 127
1, 7152, Note_off_c, 1, 54, 0
1, 7188, Note_off_c, 1, 72, 0
1, 7200, Note_on_c, 1, 83, 127
1, 7215, Note_off_c, 1, 83, 0
1, 7215, Note_on_c, 1, 81, 127
1, 7227, Note_off_c, 1, 81, 0
1, 7230, Note_on_c, 1, 79, 127
1, 7242, Note_off_c, 1, 79, 0
1, 7245, Note_on_c, 1, 81, 127
1, 7257, Note_off_c, 1, 81, 0
1, 7260, Note_on_c, 1, 83, 127
1, 7308, Note_off_c, 1, 83, 0
1, 7320, Note_on_c, 1, 84, 127
1, 7416, Note_off_c, 1, 84, 0
1, 7440, Note_on_c, 1, 77, 127
1, 7440, Note_on_c, 1, 67, 127
1, 7440, Note_on_c, 1, 72, 127
1, 7440, Note_on_c, 1, 55, 127
1, 7536, Note_off_c, 1, 77, 0
1, 7560, Note_on_c, 1, 76, 127
1, 7632, Note_off_c, 1, 67, 0
1, 7632, Note_off_c, 1, 72, 0
1, 7632, Note_off_c, 1, 55, 0
1, 7656, Note_off_c, 1, 76, 0
1, 7680, Note_on_c, 1, 74, 127
1, 7680, Note_on_c, 1, 71, 127
1, 7680, Note_on_c, 1, 65, 127
1, 7680, Note_on_c, 1, 43, 127
1, 7776, Note_off_c, 1, 74, 0
1, 7800, Note_on_c, 1, 72, 127
1, 7872, Note_off_c, 1, 71, 0
1, 7872, Note_off_c, 1, 65, 0
1, 7872, Note_off_c, 1, 43, 0
1, 7896, Note_off_c, 1, 72, 0
1, 7920, Note_on_c, 1, 65, 127
1, 7920, Note_on_c, 1, 67, 127
1, 7920, Note_on_c, 1, 72, 127
1, 7920, Note_on_c, 1, 48, 127
1, 8016, Note_off_c, 1, 65, 0
1, 8040, Note_on_c, 1, 62, 127
1, 8112, Note_off_c, 1, 67, 0
1, 8112, Note_off_c, 1, 72, 0
1, 8112, Note_off_c, 1, 48, 0
1, 8136, Note_off_c, 1, 62, 0
1, 8160, Note_on_c, 1, 64, 127
1, 8160, Note_on_c, 1, 72, 127
1, 8160, Note_on_c, 1, 67, 127
1, 8160, Note_on_c, 1, 36, 127
1, 8544, Note_off_c, 1, 64, 0
1, 8544, Note_off_c, 1, 72, 0
1, 8544, Note_off_c, 1, 67, 0
1, 8544, Note_off_c, 1, 36, 0
1, 8640, Note_on_c, 1, 64, 127
1, 8640, Note_on_c, 1, 72, 127
1, 8640, Note_on_c, 1, 69, 127
1, 8640, Note_on_c, 1, 57, 127
1, 8832, Note_off_c, 1, 64, 0
1, 8832, Note_off_c, 1, 72, 0
1, 8832, Note_off_c, 1, 69, 0
1, 8832, Note_off_c, 1, 57, 0
1, 8880, Note_on_c, 1, 64, 127
1, 8880, Note_on_c, 1, 72, 127
1, 8880, Note_on_c, 1, 65, 127
1, 8880, Note_on_c, 1, 50, 127
1, 8976, Note_off_c, 1, 64, 0
1, 8976, Note_off_c, 1, 72, 0
1, 9000, Note_on_c, 1, 71, 127
1, 9000, Note_on_c, 1, 62, 127
1, 9072, Note_off_c, 1, 65, 0
1, 9072, Note_off_c, 1, 50, 0
1, 9096, Note_off_c, 1, 71, 0
1, 9096, Note_off_c, 1, 62, 0
1, 9120, Note_on_c, 1, 69, 127
1, 9120, Note_on_c, 1, 60, 127
1, 9120, Note_on_c, 1, 64, 127
1, 9120, Note_on_c, 1, 52, 127
1, 9216, Note_off_c, 1, 69, 0
1, 9216, Note_off_c, 1, 60, 0
1, 9240, Note_on_c, 1, 68, 127
1, 9240, Note_on_c, 1, 59, 127
1, 9255, Note_off_c, 1, 68, 0
1, 9312, Note_off_c, 1, 52, 0
1, 9336, Note_off_c, 1, 59, 0
1, 9345, Note_off_c, 1, 64, 0
1, 9360, Note_on_c, 1, 69, 127
1, 9360, Note_on_c, 1, 60, 127
1, 9360, Note_on_c, 1, 57, 127
1, 9360, Note_on_c, 1, 53, 127
1, 9417, Note_off_c, 1, 69, 0
1, 9420, Note_on_c, 1, 68, 127
1, 9468, Note_off_c, 1, 68, 0
1, 9480, Note_on_c, 1, 71, 127
1, 9528, Note_off_c, 1, 71, 0
1, 9552, Note_off_c, 1, 60, 0
1, 9552, Note_off_c, 1, 57, 0
1, 9552, Note_off_c, 1, 53, 0
1, 9600, Note_on_c, 1, 60, 127
1, 9600, Note_on_c, 1, 69, 127
1, 9600, Note_on_c, 1, 52, 127
1, 9600, Note_on_c, 1, 57, 127
1, 9696, Note_off_c, 1, 52, 0
1, 9720, Note_on_c, 1, 50, 127
1, 9816, Note_off_c, 1, 50, 0
1, 9840, Note_on_c, 1, 48, 127
1, 9936, Note_off_c, 1, 48, 0
1, 9960, Note_on_c, 1, 47, 127
1, 9984, Note_off_c, 1, 60, 0
1, 9984, Note_off_c, 1, 57, 0
1, 10050, Note_off_c, 1, 69, 0
1, 10056, Note_off_c, 1, 47, 0
1, 10080, Note_on_c, 1, 48, 127
1, 10095, Note_on_c, 1, 52, 127
1, 10110, Note_on_c, 1, 57, 127
1, 10125, Note_on_c, 1, 64, 127
1, 10140, Note_on_c, 1, 69, 127
1, 10155, Note_on_c, 1, 72, 127
1, 10170, Note_on_c, 1, 76, 127
1, 10253, Note_off_c, 1, 64, 0
1, 10253, Note_off_c, 1, 69, 0
1, 10266, Note_off_c, 1, 72, 0
1, 10284, Note_off_c, 1, 52, 0
1, 10284, Note_off_c, 1, 57, 0
1, 10305, Note_off_c, 1, 48, 0
1, 10313, Note_off_c, 1, 76, 0
1, 10320, Note_on_c, 1, 76, 127
1, 10320, Note_on_c, 1, 72, 127
1, 10320, Note_on_c, 1, 65, 127
1, 10320, Note_on_c, 1, 57, 127
1, 10320, Note_on_c, 1, 50, 127
1, 10416, Note_off_c, 1, 76, 0
1, 10416, Note_off_c, 1, 72, 0
1, 10440, Note_on_c, 1, 74, 127
1, 10440, Note_on_c, 1, 71, 127
1, 10512, Note_off_c, 1, 57, 0
1, 10512, Note_off_c, 1, 50, 0
1, 10536, Note_off_c, 1, 65, 0
1, 10536, Note_off_c, 1, 74, 0
1, 10536, Note_off_c, 1, 71, 0
1, 10560, Note_on_c, 1, 69, 127
1, 10560, Note_on_c, 1, 72, 127
1, 10560, Note_on_c, 1, 64, 127
1, 10560, Note_on_c, 1, 52, 127
1, 10656, Note_off_c, 1, 69, 0
1, 10656, Note_off_c, 1, 72, 0
1, 10680, Note_on_c, 1, 68, 127
1, 10680, Note_on_c, 1, 71, 127
1, 10752, Note_off_c, 1, 52, 0
1, 10776, Note_off_c, 1, 64, 0
1, 10776, Note_off_c, 1, 68, 0
1, 10776, Note_off_c, 1, 71, 0
1, 10800, Note_on_c, 1, 68, 127
1, 10800, Note_on_c, 1, 71, 127
1, 10800, Note_on_c, 1, 64, 127
1, 10800, Note_on_c, 1, 45, 127
1, 10992, Note_off_c, 1, 68, 0
1, 10992, Note_off_c, 1, 71, 0
1, 10992, Note_off_c, 1, 45, 0
1, 11040, Note_on_c, 1, 72, 127
1, 11040, Note_on_c, 1, 69, 127
1, 11040, Note_on_c, 1, 48, 127
1, 11055, Note_off_c, 1, 72, 0
1, 11088, Note_off_c, 1, 64, 0
1, 11160, Note_on_c, 1, 62, 127
1, 11232, Note_off_c, 1, 69, 0
1, 11232, Note_off_c, 1, 48, 0
1, 11256, Note_off_c, 1, 62, 0
1, 11280, Note_on_c, 1, 60, 127
1, 11280, Note_on_c, 1, 69, 127
1, 11280, Note_on_c, 1, 64, 127
1, 11280, Note_on_c, 1, 52, 127
1, 11376, Note_off_c, 1, 60, 0
1, 11400, Note_on_c, 1, 59, 127
1, 11472, Note_off_c, 1, 69, 0
1, 11472, Note_off_c, 1, 64, 0
1, 11496, Note_off_c, 1, 59, 0
1, 11520, Note_off_c, 1, 52, 0
1, 11520, Note_on_c, 1, 72, 127
1, 11520, Note_on_c, 1, 57, 127
1, 11616, Note_off_c, 1, 72, 0
1, 11640, Note_on_c, 1, 70, 127
1, 11688, Note_off_c, 1, 70, 0
1, 11712, Note_off_c, 1, 57, 0
1, 11760, Note_on_c, 1, 67, 127
1, 11760, Note_on_c, 1, 45, 127
1, 11808, Note_off_c, 1, 67, 0
1, 11820, Note_on_c, 1, 65, 127
1, 11916, Note_off_c, 1, 65, 0
1, 11952, Note_off_c, 1, 45, 0
1, 11970, Note_on_c, 1, 64, 127
1, 11994, Note_off_c, 1, 64, 0
1, 12000, Note_on_c, 1, 65, 127
1, 12048, Note_off_c, 1, 65, 0
1, 12060, Note_on_c, 1, 69, 127
1, 12108, Note_off_c, 1, 69, 0
1, 12120, Note_on_c, 1, 71, 127
1, 12168, Note_off_c, 1, 71, 0
1, 12180, Note_on_c, 1, 74, 127
1, 12204, Note_off_c, 1, 74, 0
1, 12210, Note_on_c, 1, 72, 127
1, 12234, Note_off_c, 1, 72, 0
1, 12240, Note_on_c, 1, 74, 127
1, 12240, Note_on_c, 1, 59, 127
1, 12336, Note_off_c, 1, 74, 0
1, 12360, Note_on_c, 1, 72, 127
1, 12408, Note_off_c, 1, 72, 0
1, 12420, Note_on_c, 1, 71, 127
1, 12432, Note_off_c, 1, 59, 0
1, 12468, Note_off_c, 1, 71, 0
1, 12480, Note_on_c, 1, 69, 127
1, 12480, Note_on_c, 1, 47, 127
1, 12528, Note_off_c, 1, 69, 0
1, 12540, Note_on_c, 1, 67, 127
1, 12588, Note_off_c, 1, 67, 0
1, 12600, Note_on_c, 1, 65, 127
1, 12648, Note_off_c, 1, 65, 0
1, 12672, Note_off_c, 1, 47, 0
1, 12690, Note_on_c, 1, 64, 127
1, 12714, Note_off_c, 1, 64, 0
1, 12720, Note_on_c, 1, 65, 127
1, 12792, Note_off_c, 1, 65, 0
1, 12810, Note_on_c, 1, 67, 127
1, 12834, Note_off_c, 1, 67, 0
1, 12840, Note_on_c, 1, 69, 127
1, 12864, Note_off_c, 1, 69, 0
1, 12870, Note_on_c, 1, 71, 127
1, 12894, Note_off_c, 1, 71, 0
1, 12900, Note_on_c, 1, 72, 127
1, 12924, Note_off_c, 1, 72, 0
1, 12930, Note_on_c, 1, 74, 127
1, 12954, Note_off_c, 1, 74, 0
1, 12960, Note_on_c, 1, 76, 127
1, 12960, Note_on_c, 1, 67, 127
1, 12960, Note_on_c, 1, 72, 127
1, 12960, Note_on_c, 1, 60, 127
1, 13056, Note_off_c, 1, 76, 0
1, 13056, Note_off_c, 1, 60, 0
1, 13080, Note_on_c, 1, 74, 127
1, 13080, Note_on_c, 1, 59, 127
1, 13152, Note_off_c, 1, 67, 0
1, 13152, Note_off_c, 1, 72, 0
1, 13176, Note_off_c, 1, 74, 0
1, 13176, Note_off_c, 1, 59, 0
1, 13200, Note_on_c, 1, 74, 127
1, 13200, Note_on_c, 1, 60, 127
1, 13200, Note_on_c, 1, 72, 127
1, 13200, Note_on_c, 1, 57, 127
1, 13224, Note_off_c, 1, 74, 0
1, 13230, Note_on_c, 1, 76, 127
1, 13254, Note_off_c, 1, 76, 0
1, 13260, Note_on_c, 1, 77, 127
1, 13296, Note_off_c, 1, 57, 0
1, 13308, Note_off_c, 1, 77, 0
1, 13320, Note_on_c, 1, 55, 127
1, 13392, Note_off_c, 1, 60, 0
1, 13392, Note_off_c, 1, 72, 0
1, 13416, Note_off_c, 1, 55, 0
1, 13440, Note_on_c, 1, 74, 127
1, 13440, Note_on_c, 1, 65, 127
1, 13440, Note_on_c, 1, 69, 127
1, 13440, Note_on_c, 1, 53, 127
1, 13488, Note_off_c, 1, 74, 0
1, 13500, Note_on_c, 1, 77, 127
1, 13524, Note_off_c, 1, 77, 0
1, 13530, Note_on_c, 1, 76, 127
1, 13536, Note_off_c, 1, 65, 0
1, 13553, Note_off_c, 1, 53, 0
1, 13554, Note_off_c, 1, 76, 0
1, 13560, Note_on_c, 1, 64, 127
1, 13632, Note_off_c, 1, 69, 0
1, 13650, Note_on_c, 1, 72, 127
1, 13656, Note_off_c, 1, 64, 0
1, 13674, Note_off_c, 1, 72, 0
1, 13680, Note_on_c, 1, 72, 127
1, 13680, Note_on_c, 1, 71, 127
1, 13680, Note_on_c, 1, 62, 127
1, 13680, Note_on_c, 1, 53, 127
1, 13728, Note_off_c, 1, 72, 0
1, 13740, Note_on_c, 1, 79, 127
1, 13776, Note_off_c, 1, 53, 0
1, 13800, Note_on_c, 1, 52, 127
1, 13872, Note_off_c, 1, 71, 0
1, 13884, Note_off_c, 1, 79, 0
1, 13896, Note_off_c, 1, 52, 0
1, 13905, Note_off_c, 1, 62, 0
1, 13920, Note_on_c, 1, 79, 127
1, 13920, Note_on_c, 1, 71, 127
1, 13920, Note_on_c, 1, 62, 127
1, 13920, Note_on_c, 1, 55, 127
1, 14016, Note_off_c, 1, 55, 0
1, 14040, Note_on_c, 1, 53, 127
1, 14136, Note_off_c, 1, 53, 0
1, 14160, Note_on_c, 1, 52, 127
1, 14256, Note_off_c, 1, 52, 0
1, 14280, Note_on_c, 1, 50, 127
1, 14304, Note_off_c, 1, 79, 0
1, 14304, Note_off_c, 1, 71, 0
1, 14370, Note_off_c, 1, 62, 0
1, 14376, Note_off_c, 1, 50, 0
1, 14400, Note_on_c, 1, 70, 127
1, 14400, Note_on_c, 1, 52, 127
1, 14448, Note_off_c, 1, 70, 0
1, 14460, Note_on_c, 1, 69, 127
1, 14508, Note_off_c, 1, 69, 0
1, 14580, Note_on_c, 1, 79, 127
1, 14628, Note_off_c, 1, 79, 0
1, 14640, Note_on_c, 1, 76, 127
1, 14688, Note_off_c, 1, 76, 0
1, 14700, Note_on_c, 1, 72, 127
1, 14748, Note_off_c, 1, 72, 0
1, 14784, Note_off_c, 1, 52, 0
1, 14820, Note_on_c, 1, 69, 127
1, 14868, Note_off_c, 1, 69, 0
1, 14880, Note_on_c, 1, 70, 127
1, 14928, Note_off_c, 1, 70, 0
1, 14940, Note_on_c, 1, 69, 127
1, 14988, Note_off_c, 1, 69, 0
1, 15000, Note_on_c, 1, 70, 127
1, 15048, Note_off_c, 1, 70, 0
1, 15060, Note_on_c, 1, 79, 127
1, 15108, Note_off_c, 1, 79, 0
1, 15120, Note_on_c, 1, 69, 127
1, 15120, Note_on_c, 1, 53, 127
1, 15168, Note_off_c, 1, 69, 0
1, 15180, Note_on_c, 1, 67, 127
1, 15228, Note_off_c, 1, 67, 0
1, 15300, Note_on_c, 1, 72, 127
1, 15348, Note_off_c, 1, 72, 0
1, 15360, Note_on_c, 1, 74, 127
1, 15408, Note_off_c, 1, 74, 0
1, 15420, Note_on_c, 1, 76, 127
1, 15468, Note_off_c, 1, 76, 0
1, 15480, Note_on_c, 1, 77, 127
1, 15504, Note_off_c, 1, 53, 0
1, 15528, Note_off_c, 1, 77, 0
1, 15540, Note_on_c, 1, 79, 127
1, 15588, Note_off_c, 1, 79, 0
1, 15600, Note_on_c, 1, 81, 127
1, 15600, Note_on_c, 1, 54, 127
1, 15648, Note_off_c, 1, 81, 0
1, 15660, Note_on_c, 1, 75, 127
1, 15708, Note_off_c, 1, 75, 0
1, 15720, Note_on_c, 1, 74, 127
1, 15768, Note_off_c, 1, 74, 0
1, 15780, Note_on_c, 1, 72, 127
1, 15792, Note_off_c, 1, 54, 0
1, 15828, Note_off_c, 1, 72, 0
1, 15840, Note_on_c, 1, 83, 127
1, 15855, Note_off_c, 1, 83, 0
1, 15855, Note_on_c, 1, 81, 127
1, 15867, Note_off_c, 1, 81, 0
1, 15870, Note_on_c, 1, 79, 127
1, 15882, Note_off_c, 1, 79, 0
1, 15885, Note_on_c, 1, 81, 127
1, 15897, Note_off_c, 1, 81, 0
1, 15900, Note_on_c, 1, 83, 127
1, 15948, Note_off_c, 1, 83, 0
1, 15960, Note_on_c, 1, 84, 127
1, 16056, Note_off_c, 1, 84, 0
1, 16080, Note_on_c, 1, 77, 127
1, 16080, Note_on_c, 1, 67, 127
1, 16080, Note_on_c, 1, 72, 127
1, 16080, Note_on_c, 1, 55, 127
1, 16176, Note_off_c, 1, 77, 0
1, 16200, Note_on_c, 1, 76, 127
1, 16272, Note_off_c, 1, 67, 0
1, 16272, Note_off_c, 1, 72, 0
1, 16272, Note_off_c, 1, 55, 0
1, 16296, Note_off_c, 1, 76, 0
1, 16320, Note_on_c, 1, 74, 127
1, 16320, Note_on_c, 1, 71, 127
1, 16320, Note_on_c, 1, 65, 127
1, 16320, Note_on_c, 1, 43, 127
1, 16416, Note_off_c, 1, 74, 0
1, 16440, Note_on_c, 1, 72, 127
1, 16512, Note_off_c, 1, 71, 0
1, 16512, Note_off_c, 1, 65, 0
1, 16512, Note_off_c, 1, 43, 0
1, 16536, Note_off_c, 1, 72, 0
1, 16560, Note_on_c, 1, 65, 127
1, 16560, Note_on_c, 1, 67, 127
1, 16560, Note_on_c, 1, 72, 127
1, 16560, Note_on_c, 1, 48, 127
1, 16656, Note_off_c, 1, 65, 0
1, 16680, Note_on_c, 1, 62, 127
1, 16752, Note_off_c, 1, 67, 0
1, 16752, Note_off_c, 1, 72, 0
1, 16752, Note_off_c, 1, 48, 0
1, 16776, Note_off_c, 1, 62, 0
1, 16800, Note_on_c, 1, 64, 127
1, 16800, Note_on_c, 1, 72, 127
1, 16800, Note_on_c, 1, 67, 127
1, 16800, Note_on_c, 1, 36, 127
1, 17184, Note_off_c, 1, 64, 0
1, 17184, Note_off_c, 1, 72, 0
1, 17184, Note_off_c, 1, 67, 0
1, 17184, Note_off_c, 1, 36, 0
1, 17280, Note_on_c, 1, 67, 127
1, 17280, Note_on_c, 1, 64, 127
1, 17280, Note_on_c, 1, 48, 127
1, 17280, Note_on_c, 1, 60, 127
1, 17376, Note_off_c, 1, 48, 0
1, 17400, Note_on_c, 1, 52, 127
1, 17472, Note_off_c, 1, 67, 0
1, 17472, Note_off_c, 1, 64, 0
1, 17472, Note_off_c, 1, 60, 0
1, 17496, Note_off_c, 1, 52, 0
1, 17520, Note_on_c, 1, 64, 127
1, 17520, Note_on_c, 1, 67, 127
1, 17520, Note_on_c, 1, 60, 127
1, 17520, Note_on_c, 1, 55, 127
1, 17616, Note_off_c, 1, 64, 0
1, 17616, Note_off_c, 1, 67, 0
1, 17640, Note_on_c, 1, 65, 127
1, 17640, Note_on_c, 1, 62, 127
1, 17712, Note_off_c, 1, 60, 0
1, 17712, Note_off_c, 1, 55, 0
1, 17736, Note_off_c, 1, 65, 0
1, 17736, Note_off_c, 1, 62, 0
1, 17760, Note_on_c, 1, 60, 127
1, 17760, Note_on_c, 1, 64, 127
1, 17760, Note_on_c, 1, 43, 127
1, 17760, Note_on_c, 1, 55, 127
1, 17856, Note_off_c, 1, 60, 0
1, 17856, Note_off_c, 1, 64, 0
1, 17880, Note_on_c, 1, 59, 127
1, 17880, Note_on_c, 1, 62, 127
1, 17952, Note_off_c, 1, 43, 0
1, 17952, Note_off_c, 1, 55, 0
1, 17976, Note_off_c, 1, 59, 0
1, 17976, Note_off_c, 1, 62, 0
1, 18000, Note_on_c, 1, 62, 127
1, 18000, Note_on_c, 1, 60, 127
1, 18000, Note_on_c, 1, 48, 127
1, 18000, Note_on_c, 1, 55, 127
1, 18113, Note_off_c, 1, 62, 0
1, 18180, Note_on_c, 1, 64, 127
1, 18192, Note_off_c, 1, 60, 0
1, 18192, Note_off_c, 1, 48, 0
1, 18192, Note_off_c, 1, 55, 0
1, 18204, Note_off_c, 1, 64, 0
1, 18210, Note_on_c, 1, 65, 127
1, 18234, Note_off_c, 1, 65, 0
1, 18240, Note_on_c, 1, 64, 127
1, 18240, Note_on_c, 1, 60, 127
1, 18240, Note_on_c, 1, 48, 127
1, 18240, Note_on_c, 1, 55, 127
1, 18336, Note_off_c, 1, 48, 0
1, 18360, Note_on_c, 1, 47, 127
1, 18456, Note_off_c, 1, 47, 0
1, 18480, Note_on_c, 1, 45, 127
1, 18576, Note_off_c, 1, 45, 0
1, 18600, Note_on_c, 1, 43, 127
1, 18624, Note_off_c, 1, 64, 0
1, 18624, Note_off_c, 1, 60, 0
1, 18624, Note_off_c, 1, 55, 0
1, 18696, Note_off_c, 1, 43, 0
1, 18720, Note_on_c, 1, 63, 127
1, 18720, Note_on_c, 1, 42, 127
1, 18768, Note_off_c, 1, 63, 0
1, 18780, Note_on_c, 1, 66, 127
1, 18828, Note_off_c, 1, 66, 0
1, 18840, Note_on_c, 1, 69, 127
1, 18888, Note_off_c, 1, 69, 0
1, 18900, Note_on_c, 1, 72, 127
1, 18912, Note_off_c, 1, 42, 0
1, 18948, Note_off_c, 1, 72, 0
1, 18960, Note_on_c, 1, 71, 127
1, 18960, Note_on_c, 1, 43, 127
1, 19008, Note_off_c, 1, 71, 0
1, 19020, Note_on_c, 1, 66, 127
1, 19068, Note_off_c, 1, 66, 0
1, 19080, Note_on_c, 1, 67, 127
1, 19128, Note_off_c, 1, 67, 0
1, 19140, Note_on_c, 1, 63, 127
1, 19152, Note_off_c, 1, 43, 0
1, 19188, Note_off_c, 1, 63, 0
1, 19200, Note_on_c, 1, 64, 127
1, 19200, Note_on_c, 1, 52, 127
1, 19260, Note_on_c, 1, 67, 127
1, 19308, Note_off_c, 1, 67, 0
1, 19320, Note_on_c, 1, 70, 127
1, 19368, Note_off_c, 1, 70, 0
1, 19380, Note_on_c, 1, 73, 127
1, 19392, Note_off_c, 1, 64, 0
1, 19392, Note_off_c, 1, 52, 0
1, 19428, Note_off_c, 1, 73, 0
1, 19440, Note_on_c, 1, 76, 127
1, 19440, Note_on_c, 1, 66, 127
1, 19440, Note_on_c, 1, 59, 127
1, 19440, Note_on_c, 1, 47, 127
1, 19488, Note_off_c, 1, 76, 0
1, 19500, Note_on_c, 1, 75, 127
1, 19536, Note_off_c, 1, 59, 0
1, 19548, Note_off_c, 1, 75, 0
1, 19560, Note_on_c, 1, 78, 127
1, 19560, Note_on_c, 1, 61, 127
1, 19608, Note_off_c, 1, 78, 0
1, 19632, Note_off_c, 1, 66, 0
1, 19632, Note_off_c, 1, 47, 0
1, 19656, Note_off_c, 1, 61, 0
1, 19680, Note_on_c, 1, 78, 127
1, 19680, Note_on_c, 1, 71, 127
1, 19680, Note_on_c, 1, 59, 127
1, 19680, Note_on_c, 1, 63, 127
1, 19728, Note_off_c, 1, 78, 0
1, 19740, Note_on_c, 1, 76, 127
1, 19776, Note_off_c, 1, 59, 0
1, 19788, Note_off_c, 1, 76, 0
1, 19800, Note_on_c, 1, 75, 127
1, 19800, Note_on_c, 1, 57, 127
1, 19848, Note_off_c, 1, 75, 0
1, 19860, Note_on_c, 1, 73, 127
1, 19872, Note_off_c, 1, 71, 0
1, 19872, Note_off_c, 1, 63, 0
1, 19896, Note_off_c, 1, 57, 0
1, 19908, Note_off_c, 1, 73, 0
1, 19920, Note_on_c, 1, 71, 127
1, 19920, Note_on_c, 1, 55, 127
1, 20016, Note_off_c, 1, 55, 0
1, 20040, Note_on_c, 1, 54, 127
1, 20112, Note_off_c, 1, 71, 0
1, 20136, Note_off_c, 1, 54, 0
1, 20160, Note_on_c, 1, 79, 127
1, 20160, Note_on_c, 1, 52, 127
1, 20208, Note_off_c, 1, 79, 0
1, 20220, Note_on_c, 1, 78, 127
1, 20268, Note_off_c, 1, 78, 0
1, 20280, Note_on_c, 1, 76, 127
1, 20328, Note_off_c, 1, 76, 0
1, 20340, Note_on_c, 1, 74, 127
1, 20352, Note_off_c, 1, 52, 0
1, 20388, Note_off_c, 1, 74, 0
1, 20400, Note_on_c, 1, 72, 127
1, 20400, Note_on_c, 1, 64, 127
1, 20448, Note_off_c, 1, 72, 0
1, 20460, Note_on_c, 1, 71, 127
1, 20508, Note_off_c, 1, 71, 0
1, 20520, Note_on_c, 1, 70, 127
1, 20568, Note_off_c, 1, 70, 0
1, 20592, Note_off_c, 1, 64, 0
1, 20640, Note_on_c, 1, 70, 127
1, 20688, Note_off_c, 1, 70, 0
1, 20700, Note_on_c, 1, 73, 127
1, 20748, Note_off_c, 1, 73, 0
1, 20760, Note_on_c, 1, 76, 127
1, 20760, Note_on_c, 1, 52, 127
1, 20808, Note_off_c, 1, 76, 0
1, 20820, Note_on_c, 1, 79, 127
1, 20856, Note_off_c, 1, 52, 0
1, 20868, Note_off_c, 1, 79, 0
1, 20880, Note_on_c, 1, 78, 127
1, 20880, Note_on_c, 1, 51, 127
1, 20928, Note_off_c, 1, 78, 0
1, 20940, Note_on_c, 1, 76, 127
1, 20988, Note_off_c, 1, 76, 0
1, 21000, Note_on_c, 1, 75, 127
1, 21048, Note_off_c, 1, 75, 0
1, 21060, Note_on_c, 1, 73, 127
1, 21072, Note_off_c, 1, 51, 0
1, 21108, Note_off_c, 1, 73, 0
1, 21120, Note_on_c, 1, 71, 127
1, 21120, Note_on_c, 1, 63, 127
1, 21168, Note_off_c, 1, 71, 0
1, 21180, Note_on_c, 1, 69, 127
1, 21228, Note_off_c, 1, 69, 0
1, 21240, Note_on_c, 1, 68, 127
1, 21288, Note_off_c, 1, 68, 0
1, 21312, Note_off_c, 1, 63, 0
1, 21360, Note_on_c, 1, 68, 127
1, 21408, Note_off_c, 1, 68, 0
1, 21420, Note_on_c, 1, 71, 127
1, 21468, Note_off_c, 1, 71, 0
1, 21480, Note_on_c, 1, 74, 127
1, 21480, Note_on_c, 1, 50, 127
1, 21528, Note_off_c, 1, 74, 0
1, 21540, Note_on_c, 1, 77, 127
1, 21576, Note_off_c, 1, 50, 0
1, 21588, Note_off_c, 1, 77, 0
1, 21600, Note_on_c, 1, 76, 127
1, 21600, Note_on_c, 1, 48, 127
1, 21648, Note_off_c, 1, 76, 0
1, 21660, Note_on_c, 1, 81, 127
1, 21708, Note_off_c, 1, 81, 0
1, 21720, Note_on_c, 1, 83, 127
1, 21768, Note_off_c, 1, 83, 0
1, 21780, Note_on_c, 1, 84, 127
1, 21792, Note_off_c, 1, 48, 0
1, 21828, Note_off_c, 1, 84, 0
1, 21840, Note_on_c, 1, 83, 127
1, 21840, Note_on_c, 1, 43, 127
1, 21888, Note_off_c, 1, 83, 0
1, 21900, Note_on_c, 1, 81, 127
1, 21948, Note_off_c, 1, 81, 0
1, 21960, Note_on_c, 1, 84, 127
1, 22008, Note_off_c, 1, 84, 0
1, 22032, Note_off_c, 1, 43, 0
1, 22080, Note_on_c, 1, 81, 127
1, 22080, Note_on_c, 1, 47, 127
1, 22128, Note_off_c, 1, 81, 0
1, 22140, Note_on_c, 1, 79, 127
1, 22188, Note_off_c, 1, 79, 0
1, 22200, Note_on_c, 1, 71, 127
1, 22200, Note_on_c, 1, 75, 127
1, 22260, Note_on_c, 1, 78, 127
1, 22272, Note_off_c, 1, 47, 0
1, 22296, Note_off_c, 1, 71, 0
1, 22296, Note_off_c, 1, 75, 0
1, 22308, Note_off_c, 1, 78, 0
1, 22320, Note_on_c, 1, 78, 127
1, 22320, Note_on_c, 1, 75, 127
1, 22320, Note_on_c, 1, 71, 127
1, 22320, Note_on_c, 1, 40, 127
1, 22380, Note_off_c, 1, 78, 0
1, 22380, Note_off_c, 1, 75, 0
1, 22440, Note_on_c, 1, 76, 127
1, 22440, Note_on_c, 1, 79, 127
1, 22512, Note_off_c, 1, 71, 0
1, 22512, Note_off_c, 1, 40, 0
1, 22553, Note_off_c, 1, 76, 0
1, 22553, Note_off_c, 1, 79, 0
1, 22560, Note_on_c, 1, 78, 127
1, 22560, Note_on_c, 1, 67, 127
1, 22560, Note_on_c, 1, 71, 127
1, 22560, Note_on_c, 1, 43, 127
1, 22617, Note_off_c, 1, 78, 0
1, 22620, Note_on_c, 1, 76, 127
1, 22752, Note_off_c, 1, 43, 0
1, 22800, Note_on_c, 1, 47, 127
1, 22944, Note_off_c, 1, 67, 0
1, 22956, Note_off_c, 1, 76, 0
1, 22992, Note_off_c, 1, 47, 0
1, 23010, Note_off_c, 1, 71, 0
1, 23040, Note_on_c, 1, 79, 127
1, 23040, Note_on_c, 1, 52, 127
1, 23136, Note_off_c, 1, 79, 0
1, 23220, Note_on_c, 1, 81, 127
1, 23232, Note_off_c, 1, 52, 0
1, 23249, Note_off_c, 1, 81, 0
1, 23250, Note_on_c, 1, 82, 127
1, 23274, Note_off_c, 1, 82, 0
1, 23280, Note_on_c, 1, 81, 127
1, 23280, Note_on_c, 1, 53, 127
1, 23328, Note_off_c, 1, 81, 0
1, 23340, Note_on_c, 1, 79, 127
1, 23400, Note_on_c, 1, 77, 127
1, 23472, Note_off_c, 1, 53, 0
1, 23496, Note_off_c, 1, 77, 0
1, 23520, Note_on_c, 1, 76, 127
1, 23520, Note_on_c, 1, 55, 127
1, 23616, Note_off_c, 1, 76, 0
1, 23640, Note_on_c, 1, 74, 127
1, 23676, Note_off_c, 1, 79, 0
1, 23712, Note_off_c, 1, 55, 0
1, 23736, Note_off_c, 1, 74, 0
1, 23760, Note_on_c, 1, 79, 127
1, 23760, Note_on_c, 1, 73, 127
1, 23760, Note_on_c, 1, 57, 127
1, 23808, Note_off_c, 1, 79, 0
1, 23820, Note_on_c, 1, 76, 127
1, 23868, Note_off_c, 1, 76, 0
1, 23880, Note_on_c, 1, 70, 127
1, 23940, Note_on_c, 1, 77, 127
1, 23952, Note_off_c, 1, 73, 0
1, 23952, Note_off_c, 1, 57, 0
1, 23976, Note_off_c, 1, 70, 0
1, 23988, Note_off_c, 1, 77, 0
1, 24000, Note_on_c, 1, 77, 127
1, 24000, Note_on_c, 1, 69, 127
1, 24000, Note_on_c, 1, 73, 127
1, 24048, Note_off_c, 1, 77, 0
1, 24060, Note_on_c, 1, 79, 127
1, 24096, Note_off_c, 1, 69, 0
1, 24120, Note_on_c, 1, 67, 127
1, 24216, Note_off_c, 1, 67, 0
1, 24240, Note_on_c, 1, 65, 127
1, 24336, Note_off_c, 1, 65, 0
1, 24360, Note_on_c, 1, 64, 127
1, 24384, Note_off_c, 1, 73, 0
1, 24396, Note_off_c, 1, 79, 0
1, 24456, Note_off_c, 1, 64, 0
1, 24480, Note_on_c, 1, 77, 127
1, 24480, Note_on_c, 1, 62, 127
1, 24480, Note_on_c, 1, 50, 127
1, 24576, Note_off_c, 1, 77, 0
1, 24660, Note_on_c, 1, 79, 127
1, 24672, Note_off_c, 1, 62, 0
1, 24672, Note_off_c, 1, 50, 0
1, 24689, Note_off_c, 1, 79, 0
1, 24690, Note_on_c, 1, 81, 127
1, 24714, Note_off_c, 1, 81, 0
1, 24720, Note_on_c, 1, 79, 127
1, 24720, Note_on_c, 1, 52, 127
1, 24735, Note_off_c, 1, 79, 0
1, 24780, Note_on_c, 1, 77, 127
1, 24840, Note_on_c, 1, 76, 127
1, 24912, Note_off_c, 1, 52, 0
1, 24936, Note_off_c, 1, 76, 0
1, 24960, Note_on_c, 1, 74, 127
1, 24960, Note_on_c, 1, 53, 127
1, 25056, Note_off_c, 1, 74, 0
1, 25080, Note_on_c, 1, 72, 127
1, 25116, Note_off_c, 1, 77, 0
1, 25152, Note_off_c, 1, 53, 0
1, 25176, Note_off_c, 1, 72, 0
1, 25200, Note_on_c, 1, 77, 127
1, 25200, Note_on_c, 1, 71, 127
1, 25200, Note_on_c, 1, 55, 127
1, 25248, Note_off_c, 1, 77, 0
1, 25260, Note_on_c, 1, 76, 127
1, 25308, Note_off_c, 1, 76, 0
1, 25320, Note_on_c, 1, 74, 127
1, 25320, Note_on_c, 1, 69, 127
1, 25368, Note_off_c, 1, 74, 0
1, 25392, Note_off_c, 1, 71, 0
1, 25392, Note_off_c, 1, 55, 0
1, 25416, Note_off_c, 1, 69, 0
1, 25440, Note_on_c, 1, 76, 127
1, 25440, Note_on_c, 1, 67, 127
1, 25440, Note_on_c, 1, 71, 127
1, 25488, Note_off_c, 1, 76, 0
1, 25500, Note_on_c, 1, 77, 127
1, 25536, Note_off_c, 1, 67, 0
1, 25560, Note_on_c, 1, 65, 127
1, 25656, Note_off_c, 1, 65, 0
1, 25680, Note_on_c, 1, 64, 127
1, 25776, Note_off_c, 1, 64, 0
1, 25800, Note_on_c, 1, 62, 127
1, 25824, Note_off_c, 1, 71, 0
1, 25836, Note_off_c, 1, 77, 0
1, 25896, Note_off_c, 1, 62, 0
1, 25920, Note_on_c, 1, 76, 127
1, 25920, Note_on_c, 1, 60, 127
1, 25968, Note_off_c, 1, 76, 0
1, 25980, Note_on_c, 1, 74, 127
1, 26016, Note_off_c, 1, 60, 0
1, 26028, Note_off_c, 1, 74, 0
1, 26040, Note_on_c, 1, 74, 127
1, 26040, Note_on_c, 1, 59, 127
1, 26088, Note_off_c, 1, 74, 0
1, 26100, Note_on_c, 1, 72, 127
1, 26136, Note_off_c, 1, 59, 0
1, 26148, Note_off_c, 1, 72, 0
1, 26160, Note_on_c, 1, 72, 127
1, 26160, Note_on_c, 1, 57, 127
1, 26208, Note_off_c, 1, 72, 0
1, 26220, Note_on_c, 1, 77, 127
1, 26256, Note_off_c, 1, 57, 0
1, 26268, Note_off_c, 1, 77, 0
1, 26280, Note_on_c, 1, 77, 127
1, 26280, Note_on_c, 1, 55, 127
1, 26328, Note_off_c, 1, 77, 0
1, 26340, Note_on_c, 1, 76, 127
1, 26376, Note_off_c, 1, 55, 0
1, 26388, Note_off_c, 1, 76, 0
1, 26400, Note_on_c, 1, 76, 127
1, 26400, Note_on_c, 1, 53, 127
1, 26448, Note_off_c, 1, 76, 0
1, 26460, Note_on_c, 1, 81, 127
1, 26496, Note_off_c, 1, 53, 0
1, 26508, Note_off_c, 1, 81, 0
1, 26520, Note_on_c, 1, 81, 127
1, 26520, Note_on_c, 1, 72, 127
1, 26520, Note_on_c, 1, 52, 127
1, 26568, Note_off_c, 1, 81, 0
1, 26580, Note_on_c, 1, 79, 127
1, 26616, Note_off_c, 1, 72, 0
1, 26616, Note_off_c, 1, 52, 0
1, 26628, Note_off_c, 1, 79, 0
1, 26640, Note_on_c, 1, 79, 127
1, 26640, Note_on_c, 1, 77, 127
1, 26640, Note_on_c, 1, 50, 127
1, 26688, Note_off_c, 1, 79, 0
1, 26700, Note_on_c, 1, 82, 127
1, 26736, Note_off_c, 1, 77, 0
1, 26736, Note_off_c, 1, 50, 0
1, 26748, Note_off_c, 1, 82, 0
1, 26760, Note_on_c, 1, 82, 127
1, 26760, Note_on_c, 1, 76, 127
1, 26760, Note_on_c, 1, 48, 127
1, 26808, Note_off_c, 1, 82, 0
1, 26820, Note_on_c, 1, 81, 127
1, 26856, Note_off_c, 1, 76, 0
1, 26856, Note_off_c, 1, 48, 0
1, 26868, Note_off_c, 1, 81, 0
1, 26880, Note_on_c, 1, 81, 127
1, 26880, Note_on_c, 1, 74, 127
1, 26880, Note_on_c, 1, 47, 127
1, 26928, Note_off_c, 1, 81, 0
1, 26940, Note_on_c, 1, 80, 127
1, 26976, Note_off_c, 1, 74, 0
1, 26976, Note_off_c, 1, 47, 0
1, 26988, Note_off_c, 1, 80, 0
1, 27000, Note_on_c, 1, 80, 127
1, 27000, Note_on_c, 1, 72, 127
1, 27000, Note_on_c, 1, 45, 127
1, 27048, Note_off_c, 1, 80, 0
1, 27060, Note_on_c, 1, 81, 127
1, 27096, Note_off_c, 1, 72, 0
1, 27096, Note_off_c, 1, 45, 0
1, 27108, Note_off_c, 1, 81, 0
1, 27120, Note_on_c, 1, 81, 127
1, 27120, Note_on_c, 1, 71, 127
1, 27120, Note_on_c, 1, 44, 127
1, 27168, Note_off_c, 1, 81, 0
1, 27180, Note_on_c, 1, 77, 127
1, 27216, Note_off_c, 1, 71, 0
1, 27216, Note_off_c, 1, 44, 0
1, 27228, Note_off_c, 1, 77, 0
1, 27240, Note_on_c, 1, 77, 127
1, 27240, Note_on_c, 1, 72, 127
1, 27240, Note_on_c, 1, 45, 127
1, 27288, Note_off_c, 1, 77, 0
1, 27300, Note_on_c, 1, 76, 127
1, 27336, Note_off_c, 1, 72, 0
1, 27336, Note_off_c, 1, 45, 0
1, 27348, Note_off_c, 1, 76, 0
1, 27360, Note_on_c, 1, 76, 127
1, 27360, Note_on_c, 1, 69, 127
1, 27360, Note_on_c, 1, 42, 127
1, 27408, Note_off_c, 1, 76, 0
1, 27420, Note_on_c, 1, 75, 127
1, 27468, Note_off_c, 1, 75, 0
1, 27552, Note_off_c, 1, 69, 0
1, 27552, Note_off_c, 1, 42, 0
1, 27600, Note_on_c, 1, 76, 127
1, 27600, Note_on_c, 1, 40, 127
1, 27624, Note_off_c, 1, 76, 0
1, 27630, Note_on_c, 1, 74, 127
1, 27702, Note_off_c, 1, 74, 0
1, 27720, Note_on_c, 1, 72, 127
1, 27792, Note_off_c, 1, 40, 0
1, 27816, Note_off_c, 1, 72, 0
1, 27840, Note_on_c, 1, 71, 127
1, 27840, Note_on_c, 1, 68, 127
1, 27840, Note_on_c, 1, 62, 127
1, 27840, Note_on_c, 1, 52, 127
1, 27852, Note_off_c, 1, 71, 0
1, 27855, Note_on_c, 1, 72, 127
1, 27867, Note_off_c, 1, 72, 0
1, 27960, Note_on_c, 1, 69, 127
1, 28032, Note_off_c, 1, 68, 0
1, 28032, Note_off_c, 1, 62, 0
1, 28032, Note_off_c, 1, 52, 0
1, 28056, Note_off_c, 1, 69, 0
1, 28080, Note_on_c, 1, 60, 127
1, 28080, Note_on_c, 1, 64, 127
1, 28080, Note_on_c, 1, 69, 127
1, 28080, Note_on_c, 1, 45, 127
1, 28176, Note_off_c, 1, 45, 0
1, 28200, Note_on_c, 1, 48, 127
1, 28248, Note_off_c, 1, 48, 0
1, 28260, Note_on_c, 1, 52, 127
1, 28272, Note_off_c, 1, 60, 0
1, 28272, Note_off_c, 1, 64, 0
1, 28272, Note_off_c, 1, 69, 0
1, 28308, Note_off_c, 1, 52, 0
1, 28320, Note_on_c, 1, 69, 127
1, 28320, Note_on_c, 1, 64, 127
1, 28320, Note_on_c, 1, 60, 127
1, 28320, Note_on_c, 1, 57, 127
1, 28704, Note_off_c, 1, 69, 0
1, 28704, Note_off_c, 1, 64, 0
1, 28704, Note_off_c, 1, 60, 0
1, 28704, Note_off_c, 1, 57, 0
1, 28800, Note_on_c, 1, 67, 127
1, 28800, Note_on_c, 1, 64, 127
1, 28800, Note_on_c, 1, 48, 127
1, 28800, Note_on_c, 1, 60, 127
1, 28896, Note_off_c, 1, 48, 0
1, 28920, Note_on_c, 1, 52, 127
1, 28992, Note_off_c, 1, 67, 0
1, 28992, Note_off_c, 1, 64, 0
1, 28992, Note_off_c, 1, 60, 0
1, 29016, Note_off_c, 1, 52, 0
1, 29040, Note_on_c, 1, 64, 127
1, 29040, Note_on_c, 1, 67, 127
1, 29040, Note_on_c, 1, 60, 127
1, 29040, Note_on_c, 1, 55, 127
1, 29136, Note_off_c, 1, 64, 0
1, 29136, Note_off_c, 1, 67, 0
1, 29160, Note_on_c, 1, 65, 127
1, 29160, Note_on_c, 1, 62, 127
1, 29232, Note_off_c, 1, 60, 0
1, 29232, Note_off_c, 1, 55, 0
1, 29256, Note_off_c, 1, 65, 0
1, 29256, Note_off_c, 1, 62, 0
1, 29280, Note_on_c, 1, 60, 127
1, 29280, Note_on_c, 1, 64, 127
1, 29280, Note_on_c, 1, 43, 127
1, 29280, Note_on_c, 1, 55, 127
1, 29376, Note_off_c, 1, 60, 0
1, 29376, Note_off_c, 1, 64, 0
1, 29400, Note_on_c, 1, 59, 127
1, 29400, Note_on_c, 1, 62, 127
1, 29472, Note_off_c, 1, 43, 0
1, 29472, Note_off_c, 1, 55, 0
1, 29496, Note_off_c, 1, 59, 0
1, 29496, Note_off_c, 1, 62, 0
1, 29520, Note_on_c, 1, 62, 127
1, 29520, Note_on_c, 1, 60, 127
1, 29520, Note_on_c, 1, 48, 127
1, 29520, Note_on_c, 1, 55, 127
1, 29633, Note_off_c, 1, 62, 0
1, 29700, Note_on_c, 1, 64, 127
1, 29712, Note_off_c, 1, 60, 0
1, 29712, Note_off_c, 1, 48, 0
1, 29712, Note_off_c, 1, 55, 0
1, 29724, Note_off_c, 1, 64, 0
1, 29730, Note_on_c, 1, 65, 127
1, 29754, Note_off_c, 1, 65, 0
1, 29760, Note_on_c, 1, 64, 127
1, 29760, Note_on_c, 1, 60, 127
1, 29760, Note_on_c, 1, 48, 127
1, 29760, Note_on_c, 1, 55, 127
1, 29856, Note_off_c, 1, 48, 0
1, 29880, Note_on_c, 1, 47, 127
1, 29976, Note_off_c, 1, 47, 0
1, 30000, Note_on_c, 1, 45, 127
1, 30096, Note_off_c, 1, 45, 0
1, 30120, Note_on_c, 1, 43, 127
1, 30144, Note_off_c, 1, 64, 0
1, 30144, Note_off_c, 1, 60, 0
1, 30144, Note_off_c, 1, 55, 0
1, 30216, Note_off_c, 1, 43, 0
1, 30240, Note_on_c, 1, 63, 127
1, 30240, Note_on_c, 1, 42, 127
1, 30288, Note_off_c, 1, 63, 0
1, 30300, Note_on_c, 1, 66, 127
1, 30348, Note_off_c, 1, 66, 0
1, 30360, Note_on_c, 1, 69, 127
1, 30408, Note_off_c, 1, 69, 0
1, 30420, Note_on_c, 1, 72, 127
1, 30432, Note_off_c, 1, 42, 0
1, 30468, Note_off_c, 1, 72, 0
1, 30480, Note_on_c, 1, 71, 127
1, 30480, Note_on_c, 1, 43, 127
1, 30528, Note_off_c, 1, 71, 0
1, 30540, Note_on_c, 1, 66, 127
1, 30588, Note_off_c, 1, 66, 0
1, 30600, Note_on_c, 1, 67, 127
1, 30648, Note_off_c, 1, 67, 0
1, 30660, Note_on_c, 1, 63, 127
1, 30672, Note_off_c, 1, 43, 0
1, 30708, Note_off_c, 1, 63, 0
1, 30720, Note_on_c, 1, 64, 127
1, 30720, Note_on_c, 1, 52, 127
1, 30780, Note_on_c, 1, 67, 127
1, 30828, Note_off_c, 1, 67, 0
1, 30840, Note_on_c, 1, 70, 127
1, 30888, Note_off_c, 1, 70, 0
1, 30900, Note_on_c, 1, 73, 127
1, 30912, Note_off_c, 1, 64, 0
1, 30912, Note_off_c, 1, 52, 0
1, 30948, Note_off_c, 1, 73, 0
1, 30960, Note_on_c, 1, 76, 127
1, 30960, Note_on_c, 1, 66, 127
1, 30960, Note_on_c, 1, 59, 127
1, 30960, Note_on_c, 1, 47, 127
1, 31008, Note_off_c, 1, 76, 0
1, 31020, Note_on_c, 1, 75, 127
1, 31056, Note_off_c, 1, 59, 0
1, 31068, Note_off_c, 1, 75, 0
1, 31080, Note_on_c, 1, 78, 127
1, 31080, Note_on_c, 1, 61, 127
1, 31128, Note_off_c, 1, 78, 0
1, 31152, Note_off_c, 1, 66, 0
1, 31152, Note_off_c, 1, 47, 0
1, 31176, Note_off_c, 1, 61, 0
1, 31200, Note_on_c, 1, 78, 127
1, 31200, Note_on_c, 1, 71, 127
1, 31200, Note_on_c, 1, 59, 127
1, 31200, Note_on_c, 1, 63, 127
1, 31248, Note_off_c, 1, 78, 0
1, 31260, Note_on_c, 1, 76, 127
1, 31296, Note_off_c, 1, 59, 0
1, 31308, Note_off_c, 1, 76, 0
1, 31320, Note_on_c, 1, 75, 127
1, 31320, Note_on_c, 1, 57, 127
1, 31368, Note_off_c, 1, 75, 0
1, 31380, Note_on_c, 1, 73, 127
1, 31392, Note_off_c, 1, 71, 0
1, 31392, Note_off_c, 1, 63, 0
1, 31416, Note_off_c, 1, 57, 0
1, 31428, Note_off_c, 1, 73, 0
1, 31440, Note_on_c, 1, 71, 127
1, 31440, Note_on_c, 1, 55, 127
1, 31536, Note_off_c, 1, 55, 0
1, 31560, Note_on_c, 1, 54, 127
1, 31632, Note_off_c, 1, 71, 0
1, 31656, Note_off_c, 1, 54, 0
1, 31680, Note_on_c, 1, 79, 127
1, 31680, Note_on_c, 1, 52, 127
1, 31728, Note_off_c, 1, 79, 0
1, 31740, Note_on_c, 1, 78, 127
1, 31788, Note_off_c, 1, 78, 0
1, 31800, Note_on_c, 1, 76, 127
1, 31848, Note_off_c, 1, 76, 0
1, 31860, Note_on_c, 1, 74, 127
1, 31872, Note_off_c, 1, 52, 0
1, 31908, Note_off_c, 1, 74, 0
1, 31920, Note_on_c, 1, 72, 127
1, 31920, Note_on_c, 1, 64, 127
1, 31968, Note_off_c, 1, 72, 0
1, 31980, Note_on_c, 1, 71, 127
1, 32028, Note_off_c, 1, 71, 0
1, 32040, Note_on_c, 1, 70, 127
1, 32088, Note_off_c, 1, 70, 0
1, 32112, Note_off_c, 1, 64, 0
1, 32160, Note_on_c, 1, 70, 127
1, 32208, Note_off_c, 1, 70, 0
1, 32220, Note_on_c, 1, 73, 127
1, 32268, Note_off_c, 1, 73, 0
1, 32280, Note_on_c, 1, 76, 127
1, 32280, Note_on_c, 1, 52, 127
1, 32328, Note_off_c, 1, 76, 0
1, 32340, Note_on_c, 1, 79, 127
1, 32376, Note_off_c, 1, 52, 0
1, 32388, Note_off_c, 1, 79, 0
1, 32400, Note_on_c, 1, 78, 127
1, 32400, Note_on_c, 1, 51, 127
1, 32448, Note_off_c, 1, 78, 0
1, 32460, Note_on_c, 1, 76, 127
1, 32508, Note_off_c, 1, 76, 0
1, 32520, Note_on_c, 1, 75, 127
1, 32568, Note_off_c, 1, 75, 0
1, 32580, Note_on_c, 1, 73, 127
1, 32592, Note_off_c, 1, 51, 0
1, 32628, Note_off_c, 1, 73, 0
1, 32640, Note_on_c, 1, 71, 127
1, 32640, Note_on_c, 1, 63, 127
1, 32688, Note_off_c, 1, 71, 0
1, 32700, Note_on_c, 1, 69, 127
1, 32748, Note_off_c, 1, 69, 0
1, 32760, Note_on_c, 1, 68, 127
1, 32808, Note_off_c, 1, 68, 0
1, 32832, Note_off_c, 1, 63, 0
1, 32880, Note_on_c, 1, 68, 127
1, 32928, Note_off_c, 1, 68, 0
1, 32940, Note_on_c, 1, 71, 127
1, 32988, Note_off_c, 1, 71, 0
1, 33000, Note_on_c, 1, 74, 127
1, 33000, Note_on_c, 1, 50, 127
1, 33048, Note_off_c, 1, 74, 0
1, 33060, Note_on_c, 1, 77, 127
1, 33096, Note_off_c, 1, 50, 0
1, 33108, Note_off_c, 1, 77, 0
1, 33120, Note_on_c, 1, 76, 127
1, 33120, Note_on_c, 1, 48, 127
1, 33168, Note_off_c, 1, 76, 0
1, 33180, Note_on_c, 1, 81, 127
1, 33228, Note_off_c, 1, 81, 0
1, 33240, Note_on_c, 1, 83, 127
1, 33288, Note_off_c, 1, 83, 0
1, 33300, Note_on_c, 1, 84, 127
1, 33312, Note_off_c, 1, 48, 0
1, 33348, Note_off_c, 1, 84, 0
1, 33360, Note_on_c, 1, 83, 127
1, 33360, Note_on_c, 1, 43, 127
1, 33408, Note_off_c, 1, 83, 0
1, 33420, Note_on_c, 1, 81, 127
1, 33468, Note_off_c, 1, 81, 0
1, 33480, Note_on_c, 1, 84, 127
1, 33528, Note_off_c, 1, 84, 0
1, 33552, Note_off_c, 1, 43, 0
1, 33600, Note_on_c, 1, 81, 127
1, 33600, Note_on_c, 1, 47, 127
1, 33648, Note_off_c, 1, 81, 0
1, 33660, Note_on_c, 1, 79, 127
1, 33708, Note_off_c, 1, 79, 0
1, 33720, Note_on_c, 1, 71, 127
1, 33720, Note_on_c, 1, 75, 127
1, 33780, Note_on_c, 1, 78, 127
1, 33792, Note_off_c, 1, 47, 0
1, 33816, Note_off_c, 1, 71, 0
1, 33816, Note_off_c, 1, 75, 0
1, 33828, Note_off_c, 1, 78, 0
1, 33840, Note_on_c, 1, 78, 127
1, 33840, Note_on_c, 1, 75, 127
1, 33840, Note_on_c, 1, 71, 127
1, 33840, Note_on_c, 1, 40, 127
1, 33900, Note_off_c, 1, 78, 0
1, 33900, Note_off_c, 1, 75, 0
1, 33960, Note_on_c, 1, 76, 127
1, 33960, Note_on_c, 1, 79, 127
1, 34032, Note_off_c, 1, 71, 0
1, 34032, Note_off_c, 1, 40, 0
1, 34073, Note_off_c, 1, 76, 0
1, 34073, Note_off_c, 1, 79, 0
1, 34080, Note_on_c, 1, 78, 127
1, 34080, Note_on_c, 1, 67, 127
1, 34080, Note_on_c, 1, 71, 127
1, 34080, Note_on_c, 1, 43, 127
1, 34137, Note_off_c, 1, 78, 0
1, 34140, Note_on_c, 1, 76, 127
1, 34272, Note_off_c, 1, 43, 0
1, 34320, Note_on_c, 1, 47, 127
1, 34464, Note_off_c, 1, 67, 0
1, 34476, Note_off_c, 1, 76, 0
1, 34512, Note_off_c, 1, 47, 0
1, 34530, Note_off_c, 1, 71, 0
1, 34560, Note_on_c, 1, 79, 127
1, 34560, Note_on_c, 1, 52, 127
1, 34656, Note_off_c, 1, 79, 0
1, 34740, Note_on_c, 1, 81, 127
1, 34752, Note_off_c, 1, 52, 0
1, 34769, Note_off_c, 1, 81, 0
1, 34770, Note_on_c, 1, 82, 127
1, 34794, Note_off_c, 1, 82, 0
1, 34800, Note_on_c, 1, 81, 127
1, 34800, Note_on_c, 1, 53, 127
1, 34848, Note_off_c, 1, 81, 0
1, 34860, Note_on_c, 1, 79, 127
1, 34920, Note_on_c, 1, 77, 127
1, 34992, Note_off_c, 1, 53, 0
1, 35016, Note_off_c, 1, 77, 0
1, 35040, Note_on_c, 1, 76, 127
1, 35040, Note_on_c, 1, 55, 127
1, 35136, Note_off_c, 1, 76, 0
1, 35160, Note_on_c, 1, 74, 127
1, 35196, Note_off_c, 1, 79, 0
1, 35232, Note_off_c, 1, 55, 0
1, 35256, Note_off_c, 1, 74, 0
1, 35280, Note_on_c, 1, 79, 127
1, 35280, Note_on_c, 1, 73, 127
1, 35280, Note_on_c, 1, 57, 127
1, 35328, Note_off_c, 1, 79, 0
1, 35340, Note_on_c, 1, 76, 127
1, 35388, Note_off_c, 1, 76, 0
1, 35400, Note_on_c, 1, 70, 127
1, 35460, Note_on_c, 1, 77, 127
1, 35472, Note_off_c, 1, 73, 0
1, 35472, Note_off_c, 1, 57, 0
1, 35496, Note_off_c, 1, 70, 0
1, 35508, Note_off_c, 1, 77, 0
1, 35520, Note_on_c, 1, 77, 127
1, 35520, Note_on_c, 1, 69, 127
1, 35520, Note_on_c, 1, 73, 127
1, 35568, Note_off_c, 1, 77, 0
1, 35580, Note_on_c, 1, 79, 127
1, 35616, Note_off_c, 1, 69, 0
1, 35640, Note_on_c, 1, 67, 127
1, 35736, Note_off_c, 1, 67, 0
1, 35760, Note_on_c, 1, 65, 127
1, 35856, Note_off_c, 1, 65, 0
1, 35880, Note_on_c, 1, 64, 127
1, 35904, Note_off_c, 1, 73, 0
1, 35916, Note_off_c, 1, 79, 0
1, 35976, Note_off_c, 1, 64, 0
1, 36000, Note_on_c, 1, 77, 127
1, 36000, Note_on_c, 1, 62, 127
1, 36000, Note_on_c, 1, 50, 127
1, 36096, Note_off_c, 1, 77, 0
1, 36180, Note_on_c, 1, 79, 127
1, 36192, Note_off_c, 1, 62, 0
1, 36192, Note_off_c, 1, 50, 0
1, 36209, Note_off_c, 1, 79, 0
1, 36210, Note_on_c, 1, 81, 127
1, 36234, Note_off_c, 1, 81, 0
1, 36240, Note_on_c, 1, 79, 127
1, 36240, Note_on_c, 1, 52, 127
1, 36255, Note_off_c, 1, 79, 0
1, 36300, Note_on_c, 1, 77, 127
1, 36360, Note_on_c, 1, 76, 127
1, 36432, Note_off_c, 1, 52, 0
1, 36456, Note_off_c, 1, 76, 0
1, 36480, Note_on_c, 1, 74, 127
1, 36480, Note_on_c, 1, 53, 127
1, 36576, Note_off_c, 1, 74, 0
1, 36600, Note_on_c, 1, 72, 127
1, 36636, Note_off_c, 1, 77, 0
1, 36672, Note_off_c, 1, 53, 0
1, 36696, Note_off_c, 1, 72, 0
1, 36720, Note_on_c, 1, 77, 127
1, 36720, Note_on_c, 1, 71, 127
1, 36720, Note_on_c, 1, 55, 127
1, 36768, Note_off_c, 1, 77, 0
1, 36780, Note_on_c, 1, 76, 127
1, 36828, Note_off_c, 1, 76, 0
1, 36840, Note_on_c, 1, 74, 127
1, 36840, Note_on_c, 1, 69, 127
1, 36888, Note_off_c, 1, 74, 0
1, 36912, Note_off_c, 1, 71, 0
1, 36912, Note_off_c, 1, 55, 0
1, 36936, Note_off_c, 1, 69, 0
1, 36960, Note_on_c, 1, 76, 127
1, 36960, Note_on_c, 1, 67, 127
1, 36960, Note_on_c, 1, 71, 127
1, 37008, Note_off_c, 1, 76, 0
1, 37020, Note_on_c, 1, 77, 127
1, 37056, Note_off_c, 1, 67, 0
1, 37080, Note_on_c, 1, 65, 127
1, 37176, Note_off_c, 1, 65, 0
1, 37200, Note_on_c, 1, 64, 127
1, 37296, Note_off_c, 1, 64, 0
1, 37320, Note_on_c, 1, 62, 127
1, 37344, Note_off_c, 1, 71, 0
1, 37356, Note_off_c, 1, 77, 0
1, 37416, Note_off_c, 1, 62, 0
1, 37440, Note_on_c, 1, 76, 127
1, 37440, Note_on_c, 1, 60, 127
1, 37488, Note_off_c, 1, 76, 0
1, 37500, Note_on_c, 1, 74, 127
1, 37536, Note_off_c, 1, 60, 0
1, 37548, Note_off_c, 1, 74, 0
1, 37560, Note_on_c, 1, 74, 127
1, 37560, Note_on_c, 1, 59, 127
1, 37608, Note_off_c, 1, 74, 0
1, 37620, Note_on_c, 1, 72, 127
1, 37656, Note_off_c, 1, 59, 0
1, 37668, Note_off_c, 1, 72, 0
1, 37680, Note_on_c, 1, 72, 127
1, 37680, Note_on_c, 1, 57, 127
1, 37728, Note_off_c, 1, 72, 0
1, 37740, Note_on_c, 1, 77, 127
1, 37776, Note_off_c, 1, 57, 0
1, 37788, Note_off_c, 1, 77, 0
1, 37800, Note_on_c, 1, 77, 127
1, 37800, Note_on_c, 1, 55, 127
1, 37848, Note_off_c, 1, 77, 0
1, 37860, Note_on_c, 1, 76, 127
1, 37896, Note_off_c, 1, 55, 0
1, 37908, Note_off_c, 1, 76, 0
1, 37920, Note_on_c, 1, 76, 127
1, 37920, Note_on_c, 1, 53, 127
1, 37968, Note_off_c, 1, 76, 0
1, 37980, Note_on_c, 1, 81, 127
1, 38016, Note_off_c, 1, 53, 0
1, 38028, Note_off_c, 1, 81, 0
1, 38040, Note_on_c, 1, 81, 127
1, 38040, Note_on_c, 1, 72, 127
1, 38040, Note_on_c, 1, 52, 127
1, 38088, Note_off_c, 1, 81, 0
1, 38100, Note_on_c, 1, 79, 127
1, 38136, Note_off_c, 1, 72, 0
1, 38136, Note_off_c, 1, 52, 0
1, 38148, Note_off_c, 1, 79, 0
1, 38160, Note_on_c, 1, 79, 127
1, 38160, Note_on_c, 1, 77, 127
1, 38160, Note_on_c, 1, 50, 127
1, 38208, Note_off_c, 1, 79, 0
1, 38220, Note_on_c, 1, 82, 127
1, 38256, Note_off_c, 1, 77, 0
1, 38256, Note_off_c, 1, 50, 0
1, 38268, Note_off_c, 1, 82, 0
1, 38280, Note_on_c, 1, 82, 127
1, 38280, Note_on_c, 1, 76, 127
1, 38280, Note_on_c, 1, 48, 127
1, 38328, Note_off_c, 1, 82, 0
1, 38340, Note_on_c, 1, 81, 127
1, 38376, Note_off_c, 1, 76, 0
1, 38376, Note_off_c, 1, 48, 0
1, 38388, Note_off_c, 1, 81, 0
1, 38400, Note_on_c, 1, 81, 127
1, 38400, Note_on_c, 1, 74, 127
1, 38400, Note_on_c, 1, 47, 127
1, 38448, Note_off_c, 1, 81, 0
1, 38460, Note_on_c, 1, 80, 127
1, 38496, Note_off_c, 1, 74, 0
1, 38496, Note_off_c, 1, 47, 0
1, 38508, Note_off_c, 1, 80, 0
1, 38520, Note_on_c, 1, 80, 127
1, 38520, Note_on_c, 1, 72, 127
1, 38520, Note_on_c, 1, 45, 127
1, 38568, Note_off_c, 1, 80, 0
1, 38580, Note_on_c, 1, 81, 127
1, 38616, Note_off_c, 1, 72, 0
1, 38616, Note_off_c, 1, 45, 0
1, 38628, Note_off_c, 1, 81, 0
1, 38640, Note_on_c, 1, 81, 127
1, 38640, Note_on_c, 1, 71, 127
1, 38640, Note_on_c, 1, 44, 127
1, 38688, Note_off_c, 1, 81, 0
1, 38700, Note_on_c, 1, 77, 127
1, 38736, Note_off_c, 1, 71, 0
1, 38736, Note_off_c, 1, 44, 0
1, 38748, Note_off_c, 1, 77, 0
1, 38760, Note_on_c, 1, 77, 127
1, 38760, Note_on_c, 1, 72, 127
1, 38760, Note_on_c, 1, 45, 127
1, 38808, Note_off_c, 1, 77, 0
1, 38820, Note_on_c, 1, 76, 127
1, 38856, Note_off_c, 1, 72, 0
1, 38856, Note_off_c, 1, 45, 0
1, 38868, Note_off_c, 1, 76, 0
1, 38880, Note_on_c, 1, 76, 127
1, 38880, Note_on_c, 1, 69, 127
1, 38880, Note_on_c, 1, 42, 127
1, 38928, Note_off_c, 1, 76, 0
1, 38940, Note_on_c, 1, 75, 127
1, 38988, Note_off_c, 1, 75, 0
1, 39072, Note_off_c, 1, 69, 0
1, 39072, Note_off_c, 1, 42, 0
1, 39120, Note_on_c, 1, 76, 127
1, 39120, Note_on_c, 1, 40, 127
1, 39144, Note_off_c, 1, 76, 0
1, 39150, Note_on_c, 1, 74, 127
1, 39222, Note_off_c, 1, 74, 0
1, 39240, Note_on_c, 1, 72, 127
1, 39312, Note_off_c, 1, 40, 0
1, 39336, Note_off_c, 1, 72, 0
1, 39360, Note_on_c, 1, 71, 127
1, 39360, Note_on_c, 1, 68, 127
1, 39360, Note_on_c, 1, 62, 127
1, 39360, Note_on_c, 1, 52, 127
1, 39372, Note_off_c, 1, 71, 0
1, 39375, Note_on_c, 1, 72, 127
1, 39387, Note_off_c, 1, 72, 0
1, 39480, Note_on_c, 1, 69, 127
1, 39552, Note_off_c, 1, 68, 0
1, 39552, Note_off_c, 1, 62, 0
1, 39552, Note_off_c, 1, 52, 0
1, 39576, Note_off_c, 1, 69, 0
1, 39600, Note_on_c, 1, 60, 127
1, 39600, Note_on_c, 1, 64, 127
1, 39600, Note_on_c, 1, 69, 127
1, 39600, Note_on_c, 1, 45, 127
1, 39696, Note_off_c, 1, 45, 0
1, 39720, Note_on_c, 1, 48, 127
1, 39768, Note_off_c, 1, 48, 0
1, 39780, Note_on_c, 1, 52, 127
1, 39792, Note_off_c, 1, 60, 0
1, 39792, Note_off_c, 1, 64, 0
1, 39792, Note_off_c, 1, 69, 0
1, 39828, Note_off_c, 1, 52, 0
1, 39840, Note_on_c, 1, 69, 127
1, 39840, Note_on_c, 1, 64, 127
1, 39840, Note_on_c, 1, 60, 127
1, 39840, Note_on_c, 1, 57, 127
1, 40224, Note_off_c, 1, 69, 0
1, 40224, Note_off_c, 1, 64, 0
1, 40224, Note_off_c, 1, 60, 0
1, 40224, Note_off_c, 1, 57, 0
1, 40224, End_track
0, 0, End_of_file