0, 0, Header, 1, 1, 480
1, 0, Start_track
1, 0, Title_t, "Test"
1, 0, Tempo, 500000
1, 0, Instrument_name_t, "Church Organ"
1, 32, Note_on_c, 1, 49, 127
1, 347, Note_off_c, 1, 49, 0
1, 348, Note_on_c, 1, 52, 127
1, 663, Note_off_c, 1, 52, 0
1, 665, Note_on_c, 1, 56, 127
1, 980, Note_off_c, 1, 56, 0
1, 982, Note_on_c, 1, 61, 127
1, 1138, Note_off_c, 1, 61, 0
1, 1140, Note_on_c, 1, 60, 127
1, 1296, Note_off_c, 1, 60, 0
1, 1299, Note_on_c, 1, 61, 127
1, 1616, Note_on_c, 1, 68, 127
1, 1931, Note_off_c, 1, 68, 0
1, 1932, Note_on_c, 1, 73, 127
1, 1932, Note_on_c, 1, 64, 127
1, 2088, Note_off_c, 1, 73, 0
1, 2091, Note_on_c, 1, 72, 127
1, 2247, Note_off_c, 1, 72, 0
1, 2566, Note_on_c, 1, 76, 127
1, 2880, Note_off_c, 1, 64, 0
1, 2881, Note_off_c, 1, 76, 0
1, 2883, Note_on_c, 1, 66, 127
1, 3163, Note_off_c, 1, 61, 0
1, 3200, Note_on_c, 1, 59, 127
1, 3515, Note_off_c, 1, 59, 0
1, 3516, Note_on_c, 1, 57, 127
1, 3516, Note_on_c, 1, 75, 127
1, 3831, Note_off_c, 1, 66, 0
1, 3831, Note_off_c, 1, 57, 0
1, 4464, Note_off_c, 1, 75, 0
1, 4625, Note_on_c, 1, 78, 127
1, 4781, Note_off_c, 1, 78, 0
1, 4784, Note_on_c, 1, 80, 127
1, 4784, Note_on_c, 1, 63, 127
1, 4940, Note_off_c, 1, 80, 0
1, 5259, Note_on_c, 1, 52, 127
1, 5415, Note_off_c, 1, 52, 0
1, 5417, Note_on_c, 1, 54, 127
1, 5573, Note_off_c, 1, 54, 0
1, 5576, Note_on_c, 1, 56, 127
1, 5732, Note_off_c, 1, 63, 0
1, 5732, Note_off_c, 1, 56, 0
1, 5734, Note_on_c, 1, 56, 127
1, 5734, Note_on_c, 1, 80, 127
1, 5734, Note_on_c, 1, 61, 127
1, 6049, Note_off_c, 1, 56, 0
1, 6051, Note_on_c, 1, 57, 127
1, 6365, Note_off_c, 1, 80, 0
1, 6368, Note_on_c, 1, 73, 127
1, 6683, Note_off_c, 1, 73, 0
1, 6684, Note_on_c, 1, 78, 127
1, 6839, Note_on_c, 1, 77, 127
1, 6840, Note_off_c, 1, 78, 0
1, 6995, Note_off_c, 1, 77, 0
1, 7153, Note_off_c, 1, 61, 0
1, 7158, Note_off_c, 1, 57, 0
1, 7160, Note_on_c, 1, 76, 127
1, 7316, Note_off_c, 1, 76, 0
1, 7318, Note_on_c, 1, 54, 127
1, 7318, Note_on_c, 1, 75, 127
1, 7474, Note_off_c, 1, 54, 0
1, 7474, Note_off_c, 1, 75, 0
1, 7476, Note_on_c, 1, 52, 127
1, 7632, Note_off_c, 1, 52, 0
1, 7635, Note_on_c, 1, 51, 127
1, 7952, Note_on_c, 1, 72, 127
1, 8266, Note_off_c, 1, 51, 0
1, 8267, Note_off_c, 1, 72, 0
1, 8268, Note_on_c, 1, 54, 127
1, 8268, Note_on_c, 1, 75, 127
1, 8268, Note_on_c, 1, 78, 127
1, 8583, Note_off_c, 1, 54, 0
1, 8583, Note_off_c, 1, 75, 0
1, 8583, Note_off_c, 1, 78, 0
1, 8585, Note_on_c, 1, 69, 127
1, 8585, Note_on_c, 1, 78, 127
1, 8585, Note_on_c, 1, 48, 127
1, 8900, Note_off_c, 1, 69, 0
1, 8902, Note_on_c, 1, 68, 127
1, 9212, Note_off_c, 1, 78, 0
1, 9216, Note_off_c, 1, 48, 0
1, 9217, Note_off_c, 1, 68, 0
1, 9219, Note_on_c, 1, 44, 127
1, 9219, Note_on_c, 1, 72, 127
1, 9219, Note_on_c, 1, 80, 127
1, 9534, Note_off_c, 1, 44, 0
1, 9534, Note_off_c, 1, 72, 0
1, 9534, Note_off_c, 1, 80, 0
1, 9536, Note_on_c, 1, 78, 127
1, 9536, Note_on_c, 1, 49, 127
1, 9536, Note_on_c, 1, 73, 127
1, 9818, Note_on_c, 1, 76, 127
1, 9831, Note_off_c, 1, 78, 0
1, 9925, Note_off_c, 1, 76, 0
1, 10484, Note_off_c, 1, 49, 0
1, 10486, Note_on_c, 1, 37, 127
1, 10801, Note_off_c, 1, 73, 0
1, 10803, Note_on_c, 1, 72, 127
1, 10803, Note_on_c, 1, 75, 127
1, 11118, Note_off_c, 1, 72, 0
1, 11118, Note_off_c, 1, 75, 0
1, 11434, Note_off_c, 1, 37, 0
1, 11436, Note_on_c, 1, 44, 127
1, 11436, Note_on_c, 1, 76, 127
1, 11436, Note_on_c, 1, 72, 127
1, 11751, Note_off_c, 1, 44, 0
1, 11753, Note_on_c, 1, 48, 127
1, 12067, Note_off_c, 1, 76, 0
1, 12068, Note_off_c, 1, 48, 0
1, 12070, Note_on_c, 1, 51, 127
1, 12070, Note_on_c, 1, 75, 127
1, 12384, Note_off_c, 1, 72, 0
1, 12385, Note_off_c, 1, 51, 0
1, 12387, Note_on_c, 1, 56, 127
1, 12697, Note_off_c, 1, 75, 0
1, 12860, Note_off_c, 1, 56, 0
1, 12862, Note_on_c, 1, 57, 127
1, 13018, Note_off_c, 1, 57, 0
1, 13020, Note_on_c, 1, 56, 127
1, 13020, Note_on_c, 1, 75, 127
1, 13176, Note_off_c, 1, 56, 0
1, 13179, Note_on_c, 1, 54, 127
1, 13335, Note_off_c, 1, 75, 0
1, 13335, Note_off_c, 1, 54, 0
1, 13337, Note_on_c, 1, 56, 127
1, 13337, Note_on_c, 1, 75, 127
1, 13493, Note_off_c, 1, 56, 0
1, 13496, Note_on_c, 1, 54, 127
1, 13652, Note_off_c, 1, 75, 0
1, 13652, Note_off_c, 1, 54, 0
1, 13654, Note_on_c, 1, 56, 127
1, 13654, Note_on_c, 1, 76, 127
1, 13969, Note_off_c, 1, 56, 0
1, 13969, Note_off_c, 1, 76, 0
1, 13971, Note_on_c, 1, 56, 127
1, 13971, Note_on_c, 1, 72, 127
1, 13971, Note_on_c, 1, 68, 127
1, 14286, Note_off_c, 1, 56, 0
1, 14286, Note_off_c, 1, 72, 0
1, 14286, Note_off_c, 1, 68, 0
1, 14288, Note_on_c, 1, 72, 127
1, 14288, Note_on_c, 1, 56, 127
1, 14288, Note_on_c, 1, 69, 127
1, 14603, Note_off_c, 1, 72, 0
1, 14604, Note_on_c, 1, 73, 127
1, 14761, Note_off_c, 1, 56, 0
1, 14763, Note_on_c, 1, 49, 127
1, 14919, Note_off_c, 1, 49, 0
1, 14921, Note_on_c, 1, 51, 127
1, 15077, Note_off_c, 1, 51, 0
1, 15080, Note_on_c, 1, 53, 127
1, 15236, Note_off_c, 1, 69, 0
1, 15236, Note_off_c, 1, 53, 0
1, 15238, Note_on_c, 1, 54, 127
1, 15394, Note_off_c, 1, 54, 0
1, 15711, Note_off_c, 1, 73, 0
1, 15713, Note_on_c, 1, 56, 127
1, 15713, Note_on_c, 1, 76, 127
1, 15869, Note_off_c, 1, 56, 0
1, 15869, Note_off_c, 1, 76, 0
1, 15872, Note_on_c, 1, 54, 127
1, 15872, Note_on_c, 1, 75, 127
1, 16028, Note_off_c, 1, 54, 0
1, 16028, Note_off_c, 1, 75, 0
1, 16030, Note_on_c, 1, 52, 127
1, 16030, Note_on_c, 1, 73, 127
1, 16186, Note_off_c, 1, 52, 0
1, 16186, Note_off_c, 1, 73, 0
1, 16188, Note_on_c, 1, 73, 127
1, 16188, Note_on_c, 1, 54, 127
1, 16503, Note_off_c, 1, 73, 0
1, 16505, Note_on_c, 1, 81, 127
1, 16819, Note_off_c, 1, 54, 0
1, 16820, Note_off_c, 1, 81, 0
1, 16822, Note_on_c, 1, 54, 127
1, 16822, Note_on_c, 1, 69, 127
1, 16822, Note_on_c, 1, 73, 127
1, 17137, Note_off_c, 1, 54, 0
1, 17137, Note_off_c, 1, 69, 0
1, 17137, Note_off_c, 1, 73, 0
1, 17139, Note_on_c, 1, 54, 127
1, 17139, Note_on_c, 1, 73, 127
1, 17139, Note_on_c, 1, 68, 127
1, 17454, Note_off_c, 1, 54, 0
1, 17454, Note_off_c, 1, 73, 0
1, 17456, Note_on_c, 1, 56, 127
1, 17456, Note_on_c, 1, 72, 127
1, 17612, Note_off_c, 1, 56, 0
1, 17766, Note_off_c, 1, 68, 0
1, 17771, Note_off_c, 1, 72, 0
1, 17772, Note_on_c, 1, 52, 127
1, 17772, Note_on_c, 1, 68, 127
1, 17928, Note_off_c, 1, 52, 0
1, 17931, Note_on_c, 1, 51, 127
1, 18087, Note_off_c, 1, 51, 0
1, 18089, Note_on_c, 1, 73, 127
1, 18245, Note_off_c, 1, 73, 0
1, 18248, Note_on_c, 1, 72, 127
1, 18404, Note_off_c, 1, 72, 0
1, 18552, Note_off_c, 1, 68, 0
1, 18723, Note_on_c, 1, 56, 127
1, 19038, Note_off_c, 1, 56, 0
1, 19040, Note_on_c, 1, 61, 127
1, 19667, Note_off_c, 1, 61, 0
1, 19673, Note_on_c, 1, 49, 127
1, 19673, Note_on_c, 1, 64, 127
1, 19988, Note_off_c, 1, 49, 0
1, 19988, Note_off_c, 1, 64, 0
1, 19990, Note_on_c, 1, 54, 127
1, 19990, Note_on_c, 1, 63, 127
1, 20305, Note_off_c, 1, 54, 0
1, 20624, Note_on_c, 1, 75, 127
1, 20939, Note_off_c, 1, 75, 0
1, 21257, Note_on_c, 1, 71, 127
1, 21409, Note_off_c, 1, 63, 0
1, 21574, Note_on_c, 1, 65, 127
1, 21730, Note_off_c, 1, 65, 0
1, 21732, Note_on_c, 1, 66, 127
1, 21888, Note_off_c, 1, 66, 0
1, 22208, Note_on_c, 1, 53, 127
1, 22500, Note_off_c, 1, 53, 0
1, 22841, Note_on_c, 1, 57, 127
1, 23156, Note_off_c, 1, 57, 0
1, 23158, Note_on_c, 1, 59, 127
1, 23473, Note_off_c, 1, 59, 0
1, 23781, Note_off_c, 1, 71, 0
1, 23792, Note_on_c, 1, 71, 127
1, 23792, Note_on_c, 1, 54, 127
1, 23792, Note_on_c, 1, 66, 127
1, 23895, Note_off_c, 1, 71, 0
1, 23899, Note_on_c, 1, 69, 127
1, 24002, Note_off_c, 1, 69, 0
1, 24107, Note_off_c, 1, 54, 0
1, 24108, Note_on_c, 1, 56, 127
1, 24423, Note_off_c, 1, 56, 0
1, 24425, Note_on_c, 1, 52, 127
1, 24425, Note_on_c, 1, 68, 127
1, 24740, Note_off_c, 1, 52, 0
1, 24740, Note_off_c, 1, 68, 0
1, 24742, Note_on_c, 1, 51, 127
1, 25057, Note_off_c, 1, 51, 0
1, 25376, Note_on_c, 1, 49, 127
1, 25691, Note_off_c, 1, 66, 0
1, 25691, Note_off_c, 1, 49, 0
1, 25692, Note_on_c, 1, 48, 127
1, 25692, Note_on_c, 1, 69, 127
1, 25692, Note_on_c, 1, 66, 127
1, 26007, Note_off_c, 1, 48, 0
1, 26007, Note_off_c, 1, 69, 0
1, 26009, Note_on_c, 1, 46, 127
1, 26009, Note_on_c, 1, 68, 127
1, 26319, Note_off_c, 1, 66, 0
1, 26324, Note_off_c, 1, 46, 0
1, 26326, Note_on_c, 1, 44, 127
1, 26641, Note_off_c, 1, 44, 0
1, 26643, Note_on_c, 1, 64, 127
1, 26643, Note_on_c, 1, 49, 127
1, 26649, Note_off_c, 1, 68, 0
1, 26799, Note_off_c, 1, 64, 0
1, 26801, Note_on_c, 1, 63, 127
1, 26957, Note_off_c, 1, 63, 0
1, 26958, Note_off_c, 1, 49, 0
1, 26960, Note_on_c, 1, 51, 127
1, 26960, Note_on_c, 1, 64, 127
1, 27275, Note_off_c, 1, 51, 0
1, 27276, Note_on_c, 1, 47, 127
1, 27276, Note_on_c, 1, 68, 127
1, 27591, Note_off_c, 1, 47, 0
1, 27591, Note_off_c, 1, 68, 0
1, 27593, Note_on_c, 1, 45, 127
1, 27593, Note_on_c, 1, 73, 127
1, 27908, Note_off_c, 1, 64, 0
1, 27908, Note_off_c, 1, 45, 0
1, 27910, Note_on_c, 1, 63, 127
1, 28225, Note_off_c, 1, 63, 0
1, 28227, Note_on_c, 1, 44, 127
1, 28542, Note_off_c, 1, 44, 0
1, 28544, Note_on_c, 1, 43, 127
1, 28859, Note_off_c, 1, 43, 0
1, 28860, Note_on_c, 1, 41, 127
1, 29175, Note_off_c, 1, 41, 0
1, 29177, Note_off_c, 1, 73, 0
1, 29177, Note_on_c, 1, 39, 127
1, 29177, Note_on_c, 1, 75, 127
1, 29492, Note_off_c, 1, 39, 0
1, 29492, Note_off_c, 1, 75, 0
1, 30128, Note_on_c, 1, 46, 127
1, 30128, Note_on_c, 1, 71, 127
1, 30443, Note_off_c, 1, 46, 0
1, 30590, Note_off_c, 1, 71, 0
1, 30761, Note_on_c, 1, 49, 127
1, 30761, Note_on_c, 1, 70, 127
1, 31076, Note_off_c, 1, 49, 0
1, 31076, Note_off_c, 1, 70, 0
1, 31395, Note_on_c, 1, 52, 127
1, 31710, Note_off_c, 1, 52, 0
1, 31712, Note_on_c, 1, 54, 127
1, 32027, Note_off_c, 1, 54, 0
1, 32345, Note_on_c, 1, 67, 127
1, 32976, Note_off_c, 1, 67, 0
1, 32979, Note_on_c, 1, 47, 127
1, 32979, Note_on_c, 1, 68, 127
1, 32979, Note_on_c, 1, 71, 127
1, 33294, Note_off_c, 1, 47, 0
1, 33294, Note_off_c, 1, 68, 0
1, 33294, Note_off_c, 1, 71, 0
1, 33296, Note_on_c, 1, 46, 127
1, 33296, Note_on_c, 1, 73, 127
1, 33296, Note_on_c, 1, 70, 127
1, 33452, Note_off_c, 1, 46, 0
1, 33454, Note_on_c, 1, 47, 127
1, 33610, Note_off_c, 1, 47, 0
1, 33612, Note_on_c, 1, 49, 127
1, 33927, Note_off_c, 1, 49, 0
1, 34246, Note_on_c, 1, 39, 127
1, 34561, Note_off_c, 1, 73, 0
1, 34563, Note_on_c, 1, 76, 127
1, 34878, Note_off_c, 1, 76, 0
1, 34880, Note_off_c, 1, 70, 0
1, 34880, Note_on_c, 1, 71, 127
1, 34880, Note_on_c, 1, 75, 127
1, 35195, Note_off_c, 1, 71, 0
1, 35195, Note_off_c, 1, 75, 0
1, 35698, Note_off_c, 1, 39, 0
1, 35830, Note_on_c, 1, 55, 127
1, 36145, Note_off_c, 1, 55, 0
1, 36464, Note_on_c, 1, 56, 127
1, 37412, Note_off_c, 1, 56, 0
1, 37414, Note_on_c, 1, 54, 127
1, 37729, Note_off_c, 1, 54, 0
1, 37731, Note_on_c, 1, 52, 127
1, 38046, Note_off_c, 1, 52, 0
1, 38048, Note_on_c, 1, 78, 127
1, 38048, Note_on_c, 1, 51, 127
1, 38048, Note_on_c, 1, 72, 127
1, 38363, Note_off_c, 1, 78, 0
1, 38364, Note_on_c, 1, 76, 127
1, 38679, Note_off_c, 1, 51, 0
1, 38679, Note_off_c, 1, 76, 0
1, 38681, Note_on_c, 1, 56, 127
1, 38681, Note_on_c, 1, 75, 127
1, 38996, Note_off_c, 1, 72, 0
1, 38996, Note_off_c, 1, 56, 0
1, 38996, Note_off_c, 1, 75, 0
1, 38998, Note_on_c, 1, 51, 127
1, 38998, Note_on_c, 1, 77, 127
1, 38998, Note_on_c, 1, 73, 127
1, 39117, Note_on_c, 1, 49, 127
1, 39121, Note_off_c, 1, 51, 0
1, 39240, Note_off_c, 1, 49, 0
1, 39313, Note_off_c, 1, 77, 0
1, 39315, Note_on_c, 1, 80, 127
1, 39630, Note_off_c, 1, 80, 0
1, 39632, Note_on_c, 1, 79, 127
1, 39711, Note_on_c, 1, 48, 127
1, 39834, Note_off_c, 1, 48, 0
1, 39946, Note_off_c, 1, 73, 0
1, 39947, Note_off_c, 1, 79, 0
1, 39948, Note_on_c, 1, 71, 127
1, 40067, Note_on_c, 1, 50, 127
1, 40190, Note_off_c, 1, 50, 0
1, 40896, Note_off_c, 1, 71, 0
1, 40899, Note_on_c, 1, 70, 127
1, 40899, Note_on_c, 1, 79, 127
1, 40899, Note_on_c, 1, 51, 127
1, 41214, Note_off_c, 1, 70, 0
1, 41216, Note_on_c, 1, 73, 127
1, 41526, Note_off_c, 1, 79, 0
1, 41531, Note_off_c, 1, 73, 0
1, 41532, Note_on_c, 1, 71, 127
1, 41532, Note_on_c, 1, 80, 127
1, 41847, Note_off_c, 1, 71, 0
1, 41847, Note_off_c, 1, 80, 0
1, 41849, Note_on_c, 1, 82, 127
1, 42004, Note_off_c, 1, 51, 0
1, 42008, Note_on_c, 1, 75, 127
1, 42164, Note_off_c, 1, 75, 0
1, 42166, Note_on_c, 1, 76, 127
1, 42476, Note_off_c, 1, 82, 0
1, 42481, Note_off_c, 1, 76, 0
1, 42483, Note_on_c, 1, 63, 127
1, 42483, Note_on_c, 1, 79, 127
1, 42483, Note_on_c, 1, 75, 127
1, 42798, Note_off_c, 1, 63, 0
1, 42798, Note_off_c, 1, 79, 0
1, 42798, Note_off_c, 1, 75, 0
1, 42800, Note_on_c, 1, 64, 127
1, 42800, Note_on_c, 1, 73, 127
1, 42800, Note_on_c, 1, 80, 127
1, 43115, Note_off_c, 1, 64, 0
1, 43115, Note_off_c, 1, 73, 0
1, 43116, Note_on_c, 1, 63, 127
1, 43116, Note_on_c, 1, 71, 127
1, 43427, Note_off_c, 1, 80, 0
1, 43431, Note_off_c, 1, 63, 0
1, 43431, Note_off_c, 1, 71, 0
1, 43433, Note_on_c, 1, 61, 127
1, 43433, Note_on_c, 1, 82, 127
1, 43433, Note_on_c, 1, 73, 127
1, 43748, Note_off_c, 1, 61, 0
1, 43748, Note_off_c, 1, 82, 0
1, 43748, Note_off_c, 1, 73, 0
1, 43750, Note_on_c, 1, 63, 127
1, 43750, Note_on_c, 1, 80, 127
1, 43750, Note_on_c, 1, 70, 127
1, 44698, Note_off_c, 1, 63, 0
1, 44700, Note_on_c, 1, 51, 127
1, 44836, Note_on_c, 1, 79, 127
1, 44840, Note_off_c, 1, 80, 0
1, 44949, Note_off_c, 1, 79, 0
1, 45334, Note_off_c, 1, 70, 0
1, 45334, Note_on_c, 1, 71, 127
1, 45648, Note_off_c, 1, 51, 0
1, 45649, Note_off_c, 1, 71, 0
1, 45651, Note_on_c, 1, 44, 127
1, 45651, Note_on_c, 1, 80, 127
1, 45651, Note_on_c, 1, 71, 127
1, 45966, Note_off_c, 1, 44, 0
1, 45968, Note_on_c, 1, 47, 127
1, 46283, Note_off_c, 1, 47, 0
1, 46284, Note_on_c, 1, 51, 127
1, 46599, Note_off_c, 1, 80, 0
1, 46599, Note_off_c, 1, 51, 0
1, 46601, Note_on_c, 1, 56, 127
1, 47233, Note_off_c, 1, 71, 0
1, 47235, Note_on_c, 1, 75, 127
1, 47550, Note_off_c, 1, 75, 0
1, 47866, Note_off_c, 1, 56, 0
1, 47868, Note_on_c, 1, 76, 127
1, 48183, Note_off_c, 1, 76, 0
1, 48185, Note_on_c, 1, 73, 127
1, 48500, Note_off_c, 1, 73, 0
1, 48502, Note_on_c, 1, 71, 127
1, 48817, Note_off_c, 1, 71, 0
1, 48819, Note_on_c, 1, 70, 127
1, 48977, Note_on_c, 1, 49, 127
1, 49133, Note_off_c, 1, 49, 0
1, 49136, Note_on_c, 1, 51, 127
1, 49292, Note_off_c, 1, 51, 0
1, 49294, Note_on_c, 1, 52, 127
1, 49450, Note_off_c, 1, 52, 0
1, 49452, Note_on_c, 1, 54, 127
1, 49926, Note_off_c, 1, 70, 0
1, 49928, Note_on_c, 1, 73, 127
1, 50083, Note_off_c, 1, 54, 0
1, 50084, Note_off_c, 1, 73, 0
1, 50086, Note_on_c, 1, 71, 127
1, 50086, Note_on_c, 1, 42, 127
1, 50242, Note_off_c, 1, 71, 0
1, 50244, Note_on_c, 1, 70, 127
1, 50400, Note_off_c, 1, 70, 0
1, 50401, Note_off_c, 1, 42, 0
1, 50403, Note_on_c, 1, 54, 127
1, 50403, Note_on_c, 1, 75, 127
1, 50559, Note_off_c, 1, 54, 0
1, 50561, Note_on_c, 1, 52, 127
1, 50717, Note_off_c, 1, 52, 0
1, 50718, Note_off_c, 1, 75, 0
1, 50720, Note_on_c, 1, 78, 127
1, 50720, Note_on_c, 1, 54, 127
1, 50876, Note_off_c, 1, 78, 0
1, 50878, Note_on_c, 1, 76, 127
1, 51034, Note_off_c, 1, 76, 0
1, 51351, Note_off_c, 1, 54, 0
1, 51353, Note_on_c, 1, 73, 127
1, 51353, Note_on_c, 1, 54, 127
1, 51468, Note_on_c, 1, 72, 127
1, 51473, Note_off_c, 1, 73, 0
1, 51588, Note_off_c, 1, 72, 0
1, 51822, Note_on_c, 1, 70, 127
1, 51970, Note_off_c, 1, 70, 0
1, 51987, Note_on_c, 1, 68, 127
1, 52301, Note_off_c, 1, 54, 0
1, 52302, Note_off_c, 1, 68, 0
1, 52304, Note_on_c, 1, 54, 127
1, 52304, Note_on_c, 1, 73, 127
1, 52421, Note_off_c, 1, 54, 0
1, 52422, Note_on_c, 1, 52, 127
1, 52539, Note_off_c, 1, 52, 0
1, 52937, Note_on_c, 1, 80, 127
1, 53016, Note_on_c, 1, 51, 127
1, 53133, Note_off_c, 1, 51, 0
1, 53252, Note_off_c, 1, 80, 0
1, 53254, Note_on_c, 1, 56, 127
1, 53371, Note_off_c, 1, 56, 0
1, 53571, Note_on_c, 1, 81, 127
1, 53886, Note_off_c, 1, 81, 0
1, 53888, Note_on_c, 1, 78, 127
1, 54203, Note_off_c, 1, 78, 0
1, 54204, Note_on_c, 1, 76, 127
1, 54519, Note_off_c, 1, 76, 0
1, 54521, Note_on_c, 1, 75, 127
1, 54828, Note_off_c, 1, 73, 0
1, 54838, Note_on_c, 1, 57, 127
1, 55152, Note_off_c, 1, 75, 0
1, 55153, Note_off_c, 1, 57, 0
1, 55155, Note_on_c, 1, 56, 127
1, 55155, Note_on_c, 1, 71, 127
1, 55630, Note_on_c, 1, 78, 127
1, 55786, Note_off_c, 1, 56, 0
1, 55786, Note_off_c, 1, 78, 0
1, 55788, Note_on_c, 1, 77, 127
1, 55788, Note_on_c, 1, 54, 127
1, 55944, Note_off_c, 1, 77, 0
1, 55947, Note_on_c, 1, 75, 127
1, 56103, Note_off_c, 1, 54, 0
1, 56103, Note_off_c, 1, 75, 0
1, 56105, Note_on_c, 1, 53, 127
1, 56105, Note_on_c, 1, 80, 127
1, 56420, Note_off_c, 1, 53, 0
1, 56420, Note_off_c, 1, 80, 0
1, 56422, Note_on_c, 1, 83, 127
1, 56578, Note_off_c, 1, 83, 0
1, 56580, Note_on_c, 1, 81, 127
1, 56736, Note_off_c, 1, 81, 0
1, 57056, Note_on_c, 1, 49, 127
1, 57679, Note_off_c, 1, 71, 0
1, 57689, Note_on_c, 1, 73, 127
1, 58004, Note_off_c, 1, 73, 0
1, 58006, Note_on_c, 1, 69, 127
1, 58321, Note_off_c, 1, 49, 0
1, 58321, Note_off_c, 1, 69, 0
1, 58640, Note_on_c, 1, 61, 127
1, 58955, Note_off_c, 1, 61, 0
1, 59273, Note_on_c, 1, 62, 127
1, 59273, Note_on_c, 1, 68, 127
1, 59588, Note_off_c, 1, 62, 0
1, 59588, Note_off_c, 1, 68, 0
1, 59590, Note_on_c, 1, 59, 127
1, 59905, Note_off_c, 1, 59, 0
1, 59907, Note_on_c, 1, 57, 127
1, 60224, Note_on_c, 1, 76, 127
1, 60538, Note_off_c, 1, 57, 0
1, 60539, Note_off_c, 1, 76, 0
1, 61491, Note_on_c, 1, 58, 127
1, 61647, Note_off_c, 1, 58, 0
1, 62124, Note_on_c, 1, 64, 127
1, 62124, Note_on_c, 1, 70, 127
1, 62280, Note_off_c, 1, 64, 0
1, 62283, Note_on_c, 1, 63, 127
1, 62439, Note_off_c, 1, 70, 0
1, 62439, Note_off_c, 1, 63, 0
1, 63708, Note_on_c, 1, 66, 127
1, 64342, Note_on_c, 1, 47, 127
1, 64657, Note_off_c, 1, 47, 0
1, 65292, Note_off_c, 1, 66, 0
1, 67193, Note_on_c, 1, 45, 127
1, 67508, Note_off_c, 1, 45, 0
1, 67510, Note_on_c, 1, 57, 127
1, 67510, Note_on_c, 1, 68, 127
1, 67510, Note_on_c, 1, 76, 127
1, 67666, Note_off_c, 1, 57, 0
1, 67668, Note_on_c, 1, 56, 127
1, 67824, Note_off_c, 1, 56, 0
1, 67825, Note_off_c, 1, 68, 0
1, 67825, Note_off_c, 1, 76, 0
1, 67827, Note_on_c, 1, 66, 127
1, 67827, Note_on_c, 1, 75, 127
1, 67827, Note_on_c, 1, 57, 127
1, 68142, Note_off_c, 1, 66, 0
1, 68142, Note_off_c, 1, 75, 0
1, 68144, Note_on_c, 1, 73, 127
1, 68144, Note_on_c, 1, 64, 127
1, 68459, Note_off_c, 1, 73, 0
1, 68459, Note_off_c, 1, 64, 0
1, 68460, Note_on_c, 1, 63, 127
1, 68460, Note_on_c, 1, 71, 127
1, 68775, Note_off_c, 1, 57, 0
1, 68775, Note_off_c, 1, 63, 0
1, 68777, Note_on_c, 1, 59, 127
1, 68777, Note_on_c, 1, 61, 127
1, 68933, Note_off_c, 1, 59, 0
1, 69092, Note_off_c, 1, 61, 0
1, 69094, Note_on_c, 1, 56, 127
1, 69250, Note_off_c, 1, 56, 0
1, 69252, Note_on_c, 1, 54, 127
1, 69408, Note_off_c, 1, 54, 0
1, 69725, Note_off_c, 1, 71, 0
1, 69728, Note_on_c, 1, 69, 127
1, 70043, Note_off_c, 1, 69, 0
1, 70044, Note_on_c, 1, 68, 127
1, 70359, Note_off_c, 1, 68, 0
1, 70995, Note_on_c, 1, 76, 127
1, 71310, Note_off_c, 1, 76, 0
1, 73212, Note_on_c, 1, 68, 127
1, 73212, Note_on_c, 1, 47, 127
1, 73212, Note_on_c, 1, 63, 127
1, 73401, Note_off_c, 1, 68, 0
1, 73404, Note_on_c, 1, 66, 127
1, 73507, Note_off_c, 1, 66, 0
1, 73948, Note_on_c, 1, 64, 127
1, 74051, Note_off_c, 1, 64, 0
1, 74160, Note_off_c, 1, 47, 0
1, 74160, Note_off_c, 1, 63, 0
1, 74163, Note_on_c, 1, 64, 127
1, 74163, Note_on_c, 1, 52, 127
1, 74480, Note_on_c, 1, 68, 127
1, 74790, Note_off_c, 1, 64, 0
1, 74795, Note_off_c, 1, 68, 0
1, 74796, Note_on_c, 1, 71, 127
1, 75111, Note_off_c, 1, 71, 0
1, 75113, Note_on_c, 1, 76, 127
1, 75269, Note_off_c, 1, 76, 0
1, 75272, Note_on_c, 1, 75, 127
1, 75428, Note_off_c, 1, 52, 0
1, 75428, Note_off_c, 1, 75, 0
1, 75430, Note_on_c, 1, 56, 127
1, 75430, Note_on_c, 1, 76, 127
1, 75586, Note_off_c, 1, 56, 0
1, 75588, Note_on_c, 1, 54, 127
1, 75744, Note_off_c, 1, 54, 0
1, 75745, Note_off_c, 1, 76, 0
1, 75747, Note_on_c, 1, 52, 127
1, 75747, Note_on_c, 1, 76, 127
1, 75903, Note_off_c, 1, 52, 0
1, 75905, Note_on_c, 1, 51, 127
1, 76061, Note_off_c, 1, 51, 0
1, 76062, Note_off_c, 1, 76, 0
1, 76064, Note_on_c, 1, 76, 127
1, 76064, Note_on_c, 1, 49, 127
1, 76220, Note_off_c, 1, 76, 0
1, 76222, Note_on_c, 1, 75, 127
1, 76378, Note_off_c, 1, 75, 0
1, 76379, Note_off_c, 1, 49, 0
1, 76380, Note_on_c, 1, 59, 127
1, 76380, Note_on_c, 1, 76, 127
1, 76695, Note_off_c, 1, 59, 0
1, 76695, Note_off_c, 1, 76, 0
1, 76697, Note_on_c, 1, 58, 127
1, 76697, Note_on_c, 1, 76, 127
1, 77012, Note_off_c, 1, 58, 0
1, 77012, Note_off_c, 1, 76, 0
1, 77014, Note_on_c, 1, 76, 127
1, 77014, Note_on_c, 1, 59, 127
1, 77329, Note_off_c, 1, 76, 0
1, 77331, Note_on_c, 1, 78, 127
1, 77331, Note_on_c, 1, 63, 127
1, 77487, Note_off_c, 1, 78, 0
1, 77646, Note_off_c, 1, 63, 0
1, 77648, Note_on_c, 1, 75, 127
1, 77648, Note_on_c, 1, 66, 127
1, 77804, Note_off_c, 1, 75, 0
1, 77806, Note_on_c, 1, 73, 127
1, 77962, Note_off_c, 1, 73, 0
1, 77963, Note_off_c, 1, 66, 0
1, 77964, Note_on_c, 1, 71, 127
1, 78120, Note_off_c, 1, 71, 0
1, 78123, Note_on_c, 1, 69, 127
1, 78279, Note_off_c, 1, 69, 0
1, 78433, Note_off_c, 1, 59, 0
1, 78440, Note_on_c, 1, 57, 127
1, 78596, Note_off_c, 1, 57, 0
1, 78598, Note_on_c, 1, 56, 127
1, 78598, Note_on_c, 1, 77, 127
1, 78598, Note_on_c, 1, 71, 127
1, 78754, Note_off_c, 1, 56, 0
1, 78756, Note_on_c, 1, 54, 127
1, 78912, Note_off_c, 1, 54, 0
1, 78913, Note_off_c, 1, 77, 0
1, 78913, Note_off_c, 1, 71, 0
1, 78915, Note_on_c, 1, 71, 127
1, 78915, Note_on_c, 1, 78, 127
1, 78915, Note_on_c, 1, 56, 127
1, 79071, Note_off_c, 1, 71, 0
1, 79073, Note_on_c, 1, 69, 127
1, 79228, Note_off_c, 1, 78, 0
1, 79229, Note_off_c, 1, 69, 0
1, 79232, Note_on_c, 1, 77, 127
1, 79546, Note_off_c, 1, 56, 0
1, 79547, Note_off_c, 1, 77, 0
1, 79548, Note_on_c, 1, 61, 127
1, 79548, Note_on_c, 1, 71, 127
1, 79548, Note_on_c, 1, 78, 127
1, 79863, Note_off_c, 1, 61, 0
1, 79863, Note_off_c, 1, 71, 0
1, 79863, Note_off_c, 1, 78, 0
1, 79865, Note_on_c, 1, 54, 127
1, 79865, Note_on_c, 1, 71, 127
1, 79865, Note_on_c, 1, 78, 127
1, 80180, Note_off_c, 1, 54, 0
1, 80180, Note_off_c, 1, 71, 0
1, 80182, Note_on_c, 1, 73, 127
1, 80182, Note_on_c, 1, 57, 127
1, 80338, Note_off_c, 1, 73, 0
1, 80497, Note_off_c, 1, 57, 0
1, 80499, Note_on_c, 1, 69, 127
1, 80499, Note_on_c, 1, 61, 127
1, 80655, Note_off_c, 1, 69, 0
1, 80657, Note_on_c, 1, 68, 127
1, 80813, Note_off_c, 1, 68, 0
1, 80814, Note_off_c, 1, 61, 0
1, 80816, Note_on_c, 1, 66, 127
1, 80972, Note_off_c, 1, 66, 0
1, 80974, Note_on_c, 1, 65, 127
1, 81130, Note_off_c, 1, 78, 0
1, 81130, Note_off_c, 1, 65, 0
1, 81132, Note_on_c, 1, 81, 127
1, 81288, Note_off_c, 1, 81, 0
1, 81291, Note_on_c, 1, 80, 127
1, 81447, Note_off_c, 1, 80, 0
1, 81608, Note_on_c, 1, 76, 127
1, 81764, Note_off_c, 1, 76, 0
1, 81766, Note_on_c, 1, 74, 127
1, 82081, Note_off_c, 1, 74, 0
1, 82716, Note_on_c, 1, 68, 127
1, 82716, Note_on_c, 1, 66, 127
1, 82716, Note_on_c, 1, 73, 127
1, 83029, Note_off_c, 1, 68, 0
1, 83031, Note_off_c, 1, 66, 0
1, 83031, Note_off_c, 1, 73, 0
1, 83033, Note_on_c, 1, 72, 127
1, 83033, Note_on_c, 1, 68, 127
1, 83192, Note_on_c, 1, 66, 127
1, 83348, Note_off_c, 1, 72, 0
1, 83348, Note_off_c, 1, 66, 0
1, 83350, Note_on_c, 1, 64, 127
1, 83350, Note_on_c, 1, 75, 127
1, 83506, Note_off_c, 1, 64, 0
1, 83508, Note_on_c, 1, 63, 127
1, 83660, Note_off_c, 1, 68, 0
1, 83664, Note_off_c, 1, 63, 0
1, 83665, Note_off_c, 1, 75, 0
1, 83667, Note_on_c, 1, 64, 127
1, 83667, Note_on_c, 1, 80, 127
1, 83823, Note_off_c, 1, 64, 0
1, 83825, Note_on_c, 1, 63, 127
1, 83981, Note_off_c, 1, 63, 0
1, 84300, Note_on_c, 1, 68, 127
1, 84615, Note_off_c, 1, 68, 0
1, 84617, Note_on_c, 1, 73, 127
1, 85086, Note_off_c, 1, 80, 0
1, 85251, Note_on_c, 1, 82, 127
1, 85407, Note_off_c, 1, 82, 0
1, 85409, Note_on_c, 1, 83, 127
1, 85565, Note_off_c, 1, 83, 0
1, 85884, Note_on_c, 1, 66, 127
1, 86040, Note_off_c, 1, 66, 0
1, 86201, Note_on_c, 1, 62, 127
1, 86357, Note_off_c, 1, 62, 0
1, 86360, Note_on_c, 1, 61, 127
1, 86514, Note_off_c, 1, 73, 0
1, 86516, Note_off_c, 1, 61, 0
1, 86518, Note_on_c, 1, 62, 127
1, 86518, Note_on_c, 1, 83, 127
1, 86674, Note_off_c, 1, 62, 0
1, 86676, Note_on_c, 1, 61, 127
1, 86832, Note_off_c, 1, 61, 0
1, 86991, Note_off_c, 1, 83, 0
1, 86993, Note_on_c, 1, 81, 127
1, 87149, Note_off_c, 1, 81, 0
1, 87152, Note_on_c, 1, 80, 127
1, 87152, Note_on_c, 1, 66, 127
1, 87152, Note_on_c, 1, 62, 127
1, 87308, Note_off_c, 1, 80, 0
1, 87310, Note_on_c, 1, 78, 127
1, 87465, Note_off_c, 1, 66, 0
1, 87466, Note_off_c, 1, 78, 0
1, 87467, Note_off_c, 1, 62, 0
1, 87468, Note_on_c, 1, 62, 127
1, 87468, Note_on_c, 1, 78, 127
1, 87468, Note_on_c, 1, 71, 127
1, 87624, Note_off_c, 1, 62, 0
1, 87627, Note_on_c, 1, 61, 127
1, 87783, Note_off_c, 1, 78, 0
1, 87783, Note_off_c, 1, 61, 0
1, 87785, Note_on_c, 1, 80, 127
1, 88095, Note_off_c, 1, 71, 0
1, 88100, Note_off_c, 1, 80, 0
1, 88102, Note_on_c, 1, 62, 127
1, 88102, Note_on_c, 1, 77, 127
1, 88102, Note_on_c, 1, 68, 127
1, 88417, Note_off_c, 1, 62, 0
1, 88417, Note_off_c, 1, 77, 0
1, 88417, Note_off_c, 1, 68, 0
1, 88419, Note_on_c, 1, 77, 127
1, 88419, Note_on_c, 1, 69, 127
1, 88419, Note_on_c, 1, 61, 127
1, 88734, Note_off_c, 1, 77, 0
1, 88736, Note_on_c, 1, 78, 127
1, 89046, Note_off_c, 1, 69, 0
1, 89050, Note_off_c, 1, 61, 0
1, 89051, Note_off_c, 1, 78, 0
1, 89052, Note_on_c, 1, 59, 127
1, 89052, Note_on_c, 1, 80, 127
1, 89052, Note_on_c, 1, 71, 127
1, 89367, Note_off_c, 1, 59, 0
1, 89367, Note_off_c, 1, 80, 0
1, 89367, Note_off_c, 1, 71, 0
1, 89369, Note_on_c, 1, 68, 127
1, 89369, Note_on_c, 1, 78, 127
1, 89369, Note_on_c, 1, 61, 127
1, 89831, Note_off_c, 1, 68, 0
1, 89844, Note_on_c, 1, 71, 127
1, 89996, Note_off_c, 1, 78, 0
1, 90000, Note_off_c, 1, 71, 0
1, 90003, Note_on_c, 1, 73, 127
1, 90003, Note_on_c, 1, 77, 127
1, 90159, Note_off_c, 1, 73, 0
1, 90161, Note_on_c, 1, 74, 127
1, 90317, Note_off_c, 1, 61, 0
1, 90317, Note_off_c, 1, 74, 0
1, 90320, Note_on_c, 1, 49, 127
1, 90951, Note_off_c, 1, 77, 0
1, 91268, Note_off_c, 1, 49, 0
1, 91270, Note_on_c, 1, 42, 127
1, 91270, Note_on_c, 1, 69, 127
1, 91270, Note_on_c, 1, 78, 127
1, 91585, Note_off_c, 1, 42, 0
1, 91587, Note_on_c, 1, 45, 127
1, 91902, Note_off_c, 1, 45, 0
1, 91904, Note_on_c, 1, 49, 127
1, 92218, Note_off_c, 1, 69, 0
1, 92219, Note_off_c, 1, 49, 0
1, 92220, Note_on_c, 1, 54, 127
1, 92693, Note_off_c, 1, 78, 0
1, 92854, Note_on_c, 1, 80, 127
1, 92854, Note_on_c, 1, 61, 127
1, 93010, Note_off_c, 1, 80, 0
1, 93012, Note_on_c, 1, 81, 127
1, 93167, Note_off_c, 1, 61, 0
1, 93168, Note_off_c, 1, 81, 0
1, 93171, Note_on_c, 1, 76, 127
1, 93171, Note_on_c, 1, 66, 127
1, 93486, Note_off_c, 1, 76, 0
1, 93488, Note_on_c, 1, 74, 127
1, 93798, Note_off_c, 1, 66, 0
1, 93803, Note_off_c, 1, 74, 0
1, 93804, Note_on_c, 1, 73, 127
1, 94119, Note_off_c, 1, 73, 0
1, 94121, Note_on_c, 1, 68, 127
1, 94435, Note_off_c, 1, 54, 0
1, 94438, Note_on_c, 1, 71, 127
1, 94438, Note_on_c, 1, 52, 127
1, 94594, Note_off_c, 1, 71, 0
1, 94753, Note_off_c, 1, 52, 0
1, 94755, Note_on_c, 1, 50, 127
1, 95070, Note_off_c, 1, 50, 0
1, 95540, Note_off_c, 1, 68, 0
1, 96656, Note_on_c, 1, 47, 127
1, 96812, Note_off_c, 1, 47, 0
1, 96972, Note_on_c, 1, 80, 127
1, 96972, Note_on_c, 1, 73, 127
1, 96972, Note_on_c, 1, 50, 127
1, 97287, Note_off_c, 1, 80, 0
1, 97289, Note_on_c, 1, 78, 127
1, 97599, Note_off_c, 1, 73, 0
1, 97606, Note_on_c, 1, 66, 127
1, 97921, Note_off_c, 1, 66, 0
1, 97923, Note_on_c, 1, 71, 127
1, 98395, Note_off_c, 1, 50, 0
1, 98398, Note_on_c, 1, 49, 127
1, 98398, Note_on_c, 1, 81, 127
1, 98401, Note_off_c, 1, 78, 0
1, 98554, Note_off_c, 1, 49, 0
1, 98554, Note_off_c, 1, 81, 0
1, 98556, Note_on_c, 1, 47, 127
1, 98712, Note_off_c, 1, 47, 0
1, 98715, Note_on_c, 1, 45, 127
1, 98871, Note_off_c, 1, 45, 0
1, 98873, Note_on_c, 1, 44, 127
1, 99190, Note_on_c, 1, 77, 127
1, 99504, Note_off_c, 1, 44, 0
1, 99505, Note_off_c, 1, 77, 0
1, 99822, Note_off_c, 1, 71, 0
1, 99824, Note_on_c, 1, 74, 127
1, 99824, Note_on_c, 1, 71, 127
1, 99824, Note_on_c, 1, 41, 127
1, 100139, Note_off_c, 1, 74, 0
1, 100140, Note_on_c, 1, 73, 127
1, 100451, Note_off_c, 1, 71, 0
1, 100455, Note_off_c, 1, 41, 0
1, 100455, Note_off_c, 1, 73, 0
1, 100457, Note_on_c, 1, 37, 127
1, 100457, Note_on_c, 1, 77, 127
1, 100457, Note_on_c, 1, 71, 127
1, 100772, Note_off_c, 1, 37, 0
1, 100772, Note_off_c, 1, 77, 0
1, 100772, Note_off_c, 1, 71, 0
1, 100774, Note_on_c, 1, 71, 127
1, 100774, Note_on_c, 1, 42, 127
1, 100774, Note_on_c, 1, 78, 127
1, 101089, Note_off_c, 1, 71, 0
1, 101091, Note_on_c, 1, 69, 127
1, 101247, Note_off_c, 1, 42, 0
1, 101249, Note_on_c, 1, 49, 127
1, 101401, Note_off_c, 1, 78, 0
1, 101405, Note_off_c, 1, 49, 0
1, 101408, Note_on_c, 1, 51, 127
1, 101408, Note_on_c, 1, 81, 127
1, 101564, Note_off_c, 1, 51, 0
1, 101566, Note_on_c, 1, 52, 127
1, 101722, Note_off_c, 1, 52, 0
1, 101723, Note_off_c, 1, 81, 0
1, 101724, Note_on_c, 1, 75, 127
1, 101724, Note_on_c, 1, 54, 127
1, 102039, Note_off_c, 1, 69, 0
1, 102039, Note_off_c, 1, 75, 0
1, 102041, Note_on_c, 1, 68, 127
1, 102041, Note_on_c, 1, 76, 127
1, 102355, Note_off_c, 1, 54, 0
1, 102356, Note_off_c, 1, 68, 0
1, 102356, Note_off_c, 1, 76, 0
1, 102358, Note_on_c, 1, 54, 127
1, 102358, Note_on_c, 1, 78, 127
1, 102358, Note_on_c, 1, 69, 127
1, 102673, Note_off_c, 1, 54, 0
1, 102673, Note_off_c, 1, 78, 0
1, 102673, Note_off_c, 1, 69, 0
1, 102675, Note_on_c, 1, 54, 127
1, 102675, Note_on_c, 1, 73, 127
1, 102675, Note_on_c, 1, 68, 127
1, 102990, Note_off_c, 1, 54, 0
1, 102990, Note_off_c, 1, 73, 0
1, 102992, Note_on_c, 1, 56, 127
1, 102992, Note_on_c, 1, 72, 127
1, 103148, Note_off_c, 1, 56, 0
1, 103302, Note_off_c, 1, 68, 0
1, 103308, Note_on_c, 1, 52, 127
1, 103464, Note_off_c, 1, 52, 0
1, 103467, Note_on_c, 1, 51, 127
1, 103619, Note_off_c, 1, 72, 0
1, 103623, Note_off_c, 1, 51, 0
1, 103625, Note_on_c, 1, 52, 127
1, 103625, Note_on_c, 1, 73, 127
1, 103940, Note_off_c, 1, 52, 0
1, 103942, Note_on_c, 1, 54, 127
1, 104098, Note_off_c, 1, 54, 0
1, 104259, Note_on_c, 1, 51, 127
1, 104259, Note_on_c, 1, 68, 127
1, 104415, Note_off_c, 1, 51, 0
1, 104417, Note_on_c, 1, 49, 127
1, 104573, Note_off_c, 1, 49, 0
1, 104574, Note_off_c, 1, 68, 0
1, 104576, Note_on_c, 1, 69, 127
1, 104732, Note_off_c, 1, 69, 0
1, 104892, Note_on_c, 1, 57, 127
1, 105048, Note_off_c, 1, 57, 0
1, 105051, Note_on_c, 1, 56, 127
1, 105207, Note_off_c, 1, 56, 0
1, 105209, Note_on_c, 1, 64, 127
1, 105524, Note_off_c, 1, 64, 0
1, 105526, Note_on_c, 1, 66, 127
1, 105996, Note_off_c, 1, 73, 0
1, 106001, Note_on_c, 1, 76, 127
1, 106157, Note_off_c, 1, 76, 0
1, 106160, Note_on_c, 1, 75, 127
1, 106316, Note_off_c, 1, 75, 0
1, 106793, Note_on_c, 1, 72, 127
1, 106945, Note_off_c, 1, 66, 0
1, 107427, Note_on_c, 1, 48, 127
1, 107741, Note_off_c, 1, 72, 0
1, 108058, Note_off_c, 1, 48, 0
1, 108060, Note_on_c, 1, 44, 127
1, 108060, Note_on_c, 1, 66, 127
1, 108375, Note_off_c, 1, 44, 0
1, 108375, Note_off_c, 1, 66, 0
1, 108377, Note_on_c, 1, 49, 127
1, 108377, Note_on_c, 1, 66, 127
1, 108850, Note_off_c, 1, 49, 0
1, 108852, Note_on_c, 1, 56, 127
1, 109008, Note_off_c, 1, 56, 0
1, 109011, Note_on_c, 1, 58, 127
1, 109167, Note_off_c, 1, 58, 0
1, 109169, Note_on_c, 1, 60, 127
1, 109325, Note_off_c, 1, 66, 0
1, 109325, Note_off_c, 1, 60, 0
1, 109328, Note_on_c, 1, 61, 127
1, 109328, Note_on_c, 1, 64, 127
1, 109643, Note_off_c, 1, 61, 0
1, 109644, Note_on_c, 1, 63, 127
1, 109959, Note_off_c, 1, 63, 0
1, 109961, Note_on_c, 1, 59, 127
1, 109961, Note_on_c, 1, 68, 127
1, 110276, Note_off_c, 1, 59, 0
1, 110276, Note_off_c, 1, 68, 0
1, 110278, Note_on_c, 1, 73, 127
1, 110278, Note_on_c, 1, 57, 127
1, 110434, Note_off_c, 1, 73, 0
1, 110436, Note_on_c, 1, 72, 127
1, 110592, Note_off_c, 1, 72, 0
1, 110593, Note_off_c, 1, 57, 0
1, 110910, Note_off_c, 1, 64, 0
1, 110912, Note_on_c, 1, 56, 127
1, 110912, Note_on_c, 1, 76, 127
1, 110912, Note_on_c, 1, 73, 127
1, 111227, Note_off_c, 1, 56, 0
1, 111227, Note_off_c, 1, 76, 0
1, 111227, Note_off_c, 1, 73, 0
1, 111228, Note_on_c, 1, 76, 127
1, 111228, Note_on_c, 1, 54, 127
1, 111228, Note_on_c, 1, 73, 127
1, 111543, Note_off_c, 1, 76, 0
1, 111545, Note_on_c, 1, 75, 127
1, 111701, Note_off_c, 1, 54, 0
1, 111704, Note_on_c, 1, 51, 127
1, 111860, Note_off_c, 1, 51, 0
1, 111862, Note_on_c, 1, 52, 127
1, 112018, Note_off_c, 1, 52, 0
1, 112176, Note_off_c, 1, 73, 0
1, 112179, Note_on_c, 1, 56, 127
1, 112179, Note_on_c, 1, 72, 127
1, 112494, Note_off_c, 1, 56, 0
1, 112496, Note_on_c, 1, 57, 127
1, 112640, Note_off_c, 1, 75, 0
1, 112811, Note_off_c, 1, 57, 0
1, 112971, Note_on_c, 1, 78, 127
1, 113127, Note_off_c, 1, 72, 0
1, 113127, Note_off_c, 1, 78, 0
1, 113129, Note_on_c, 1, 54, 127
1, 113129, Note_on_c, 1, 80, 127
1, 113246, Note_off_c, 1, 54, 0
1, 113248, Note_on_c, 1, 53, 127
1, 113365, Note_off_c, 1, 53, 0
1, 113446, Note_on_c, 1, 71, 127
1, 113602, Note_off_c, 1, 71, 0
1, 113604, Note_on_c, 1, 70, 127
1, 113756, Note_off_c, 1, 80, 0
1, 113760, Note_off_c, 1, 70, 0
1, 113842, Note_on_c, 1, 51, 127
1, 113959, Note_off_c, 1, 51, 0
1, 114080, Note_on_c, 1, 81, 127
1, 114080, Note_on_c, 1, 71, 127
1, 114080, Note_on_c, 1, 54, 127
1, 114236, Note_off_c, 1, 81, 0
1, 114238, Note_on_c, 1, 80, 127
1, 114315, Note_off_c, 1, 80, 0
1, 114713, Note_on_c, 1, 73, 127
1, 115028, Note_off_c, 1, 71, 0
1, 115028, Note_off_c, 1, 73, 0
1, 115030, Note_on_c, 1, 70, 127
1, 115030, Note_on_c, 1, 78, 127
1, 115503, Note_off_c, 1, 70, 0
1, 115662, Note_off_c, 1, 54, 0
1, 115664, Note_on_c, 1, 52, 127
1, 115822, Note_on_c, 1, 68, 127
1, 115978, Note_off_c, 1, 68, 0
1, 115979, Note_off_c, 1, 52, 0
1, 115980, Note_on_c, 1, 51, 127
1, 115980, Note_on_c, 1, 69, 127
1, 116295, Note_off_c, 1, 51, 0
1, 116611, Note_off_c, 1, 69, 0
1, 116614, Note_on_c, 1, 49, 127
1, 116929, Note_off_c, 1, 78, 0
1, 116929, Note_off_c, 1, 49, 0
1, 116931, Note_on_c, 1, 69, 127
1, 116931, Note_on_c, 1, 78, 127
1, 116931, Note_on_c, 1, 48, 127
1, 117246, Note_off_c, 1, 69, 0
1, 117248, Note_on_c, 1, 68, 127
1, 117558, Note_off_c, 1, 78, 0
1, 117562, Note_off_c, 1, 48, 0
1, 117563, Note_off_c, 1, 68, 0
1, 117564, Note_on_c, 1, 44, 127
1, 117564, Note_on_c, 1, 80, 127
1, 117564, Note_on_c, 1, 72, 127
1, 117879, Note_off_c, 1, 44, 0
1, 117879, Note_off_c, 1, 80, 0
1, 117879, Note_off_c, 1, 72, 0
1, 117881, Note_on_c, 1, 78, 127
1, 117881, Note_on_c, 1, 49, 127
1, 117881, Note_on_c, 1, 73, 127
1, 118163, Note_off_c, 1, 78, 0
1, 118163, Note_on_c, 1, 76, 127
1, 118275, Note_off_c, 1, 76, 0
1, 118829, Note_off_c, 1, 49, 0
1, 118832, Note_on_c, 1, 37, 127
1, 119146, Note_off_c, 1, 73, 0
1, 119148, Note_on_c, 1, 72, 127
1, 119148, Note_on_c, 1, 75, 127
1, 119463, Note_off_c, 1, 72, 0
1, 119463, Note_off_c, 1, 75, 0
1, 119780, Note_off_c, 1, 37, 0
1, 119782, Note_on_c, 1, 44, 127
1, 119782, Note_on_c, 1, 76, 127
1, 119782, Note_on_c, 1, 72, 127
1, 120097, Note_off_c, 1, 44, 0
1, 120099, Note_on_c, 1, 48, 127
1, 120413, Note_off_c, 1, 76, 0
1, 120414, Note_off_c, 1, 48, 0
1, 120416, Note_on_c, 1, 51, 127
1, 120416, Note_on_c, 1, 75, 127
1, 120730, Note_off_c, 1, 72, 0
1, 120731, Note_off_c, 1, 51, 0
1, 120732, Note_on_c, 1, 56, 127
1, 121043, Note_off_c, 1, 75, 0
1, 121205, Note_off_c, 1, 56, 0
1, 121208, Note_on_c, 1, 57, 127
1, 121364, Note_off_c, 1, 57, 0
1, 121366, Note_on_c, 1, 56, 127
1, 121366, Note_on_c, 1, 75, 127
1, 121522, Note_off_c, 1, 56, 0
1, 121524, Note_on_c, 1, 54, 127
1, 121680, Note_off_c, 1, 54, 0
1, 121681, Note_off_c, 1, 75, 0
1, 121683, Note_on_c, 1, 56, 127
1, 121683, Note_on_c, 1, 75, 127
1, 121839, Note_off_c, 1, 56, 0
1, 121841, Note_on_c, 1, 54, 127
1, 121997, Note_off_c, 1, 54, 0
1, 121998, Note_off_c, 1, 75, 0
1, 122000, Note_on_c, 1, 56, 127
1, 122000, Note_on_c, 1, 76, 127
1, 122315, Note_off_c, 1, 56, 0
1, 122315, Note_off_c, 1, 76, 0
1, 122316, Note_on_c, 1, 56, 127
1, 122316, Note_on_c, 1, 72, 127
1, 122316, Note_on_c, 1, 68, 127
1, 122631, Note_off_c, 1, 56, 0
1, 122631, Note_off_c, 1, 72, 0
1, 122631, Note_off_c, 1, 68, 0
1, 122633, Note_on_c, 1, 72, 127
1, 122633, Note_on_c, 1, 56, 127
1, 122633, Note_on_c, 1, 69, 127
1, 122948, Note_off_c, 1, 72, 0
1, 122950, Note_on_c, 1, 73, 127
1, 123106, Note_off_c, 1, 56, 0
1, 123108, Note_on_c, 1, 49, 127
1, 123264, Note_off_c, 1, 49, 0
1, 123267, Note_on_c, 1, 51, 127
1, 123423, Note_off_c, 1, 51, 0
1, 123425, Note_on_c, 1, 53, 127
1, 123581, Note_off_c, 1, 69, 0
1, 123581, Note_off_c, 1, 53, 0
1, 123584, Note_on_c, 1, 54, 127
1, 123740, Note_off_c, 1, 54, 0
1, 124057, Note_off_c, 1, 73, 0
1, 124059, Note_on_c, 1, 56, 127
1, 124059, Note_on_c, 1, 76, 127
1, 124215, Note_off_c, 1, 56, 0
1, 124215, Note_off_c, 1, 76, 0
1, 124217, Note_on_c, 1, 54, 127
1, 124217, Note_on_c, 1, 75, 127
1, 124373, Note_off_c, 1, 54, 0
1, 124373, Note_off_c, 1, 75, 0
1, 124376, Note_on_c, 1, 52, 127
1, 124376, Note_on_c, 1, 73, 127
1, 124532, Note_off_c, 1, 52, 0
1, 124532, Note_off_c, 1, 73, 0
1, 124534, Note_on_c, 1, 54, 127
1, 124534, Note_on_c, 1, 73, 127
1, 124690, Note_off_c, 1, 54, 0
1, 124692, Note_on_c, 1, 52, 127
1, 124848, Note_off_c, 1, 52, 0
1, 124849, Note_off_c, 1, 73, 0
1, 124851, Note_on_c, 1, 54, 127
1, 124851, Note_on_c, 1, 81, 127
1, 125166, Note_off_c, 1, 54, 0
1, 125166, Note_off_c, 1, 81, 0
1, 125168, Note_on_c, 1, 54, 127
1, 125168, Note_on_c, 1, 69, 127
1, 125168, Note_on_c, 1, 73, 127
1, 125483, Note_off_c, 1, 54, 0
1, 125483, Note_off_c, 1, 69, 0
1, 125483, Note_off_c, 1, 73, 0
1, 125484, Note_on_c, 1, 73, 127
1, 125484, Note_on_c, 1, 54, 127
1, 125484, Note_on_c, 1, 68, 127
1, 125799, Note_off_c, 1, 73, 0
1, 125801, Note_on_c, 1, 72, 127
1, 125957, Note_off_c, 1, 54, 0
1, 125960, Note_on_c, 1, 48, 127
1, 126111, Note_off_c, 1, 68, 0
1, 126116, Note_off_c, 1, 72, 0
1, 126116, Note_off_c, 1, 48, 0
1, 126118, Note_on_c, 1, 49, 127
1, 126118, Note_on_c, 1, 68, 127
1, 126274, Note_off_c, 1, 49, 0
1, 126276, Note_on_c, 1, 51, 127
1, 126432, Note_off_c, 1, 51, 0
1, 126433, Note_off_c, 1, 68, 0
1, 126435, Note_on_c, 1, 52, 127
1, 126435, Note_on_c, 1, 80, 127
1, 126908, Note_off_c, 1, 52, 0
1, 126910, Note_on_c, 1, 54, 127
1, 127066, Note_off_c, 1, 54, 0
1, 127068, Note_on_c, 1, 68, 127
1, 127227, Note_on_c, 1, 51, 127
1, 127383, Note_off_c, 1, 68, 0
1, 127383, Note_off_c, 1, 51, 0
1, 127385, Note_on_c, 1, 73, 127
1, 127541, Note_off_c, 1, 73, 0
1, 127544, Note_on_c, 1, 75, 127
1, 127700, Note_off_c, 1, 75, 0
1, 127702, Note_on_c, 1, 76, 127
1, 128017, Note_off_c, 1, 76, 0
1, 128334, Note_off_c, 1, 80, 0
1, 128336, Note_on_c, 1, 71, 127
1, 128336, Note_on_c, 1, 52, 127
1, 128336, Note_on_c, 1, 80, 127
1, 128651, Note_off_c, 1, 71, 0
1, 128652, Note_on_c, 1, 70, 127
1, 128809, Note_off_c, 1, 52, 0
1, 128811, Note_on_c, 1, 46, 127
1, 128967, Note_off_c, 1, 46, 0
1, 128969, Note_on_c, 1, 48, 127
1, 129125, Note_off_c, 1, 48, 0
1, 129128, Note_on_c, 1, 49, 127
1, 129284, Note_off_c, 1, 80, 0
1, 129284, Note_off_c, 1, 49, 0
1, 129286, Note_on_c, 1, 51, 127
1, 129286, Note_on_c, 1, 79, 127
1, 129754, Note_off_c, 1, 70, 0
1, 129759, Note_off_c, 1, 51, 0
1, 129761, Note_on_c, 1, 73, 127
1, 129917, Note_off_c, 1, 73, 0
1, 130236, Note_on_c, 1, 72, 127
1, 130551, Note_off_c, 1, 79, 0
1, 130551, Note_off_c, 1, 72, 0
1, 130870, Note_on_c, 1, 51, 127
1, 130870, Note_on_c, 1, 75, 127
1, 130870, Note_on_c, 1, 78, 127
1, 131185, Note_off_c, 1, 51, 0
1, 131185, Note_off_c, 1, 75, 0
1, 131185, Note_off_c, 1, 78, 0
1, 131187, Note_on_c, 1, 78, 127
1, 131187, Note_on_c, 1, 51, 127
1, 131187, Note_on_c, 1, 68, 127
1, 131500, Note_off_c, 1, 78, 0
1, 131504, Note_on_c, 1, 77, 127
1, 131660, Note_off_c, 1, 51, 0
1, 131660, Note_off_c, 1, 77, 0
1, 131662, Note_on_c, 1, 44, 127
1, 131662, Note_on_c, 1, 75, 127
1, 131818, Note_off_c, 1, 44, 0
1, 131818, Note_off_c, 1, 75, 0
1, 131820, Note_on_c, 1, 46, 127
1, 131820, Note_on_c, 1, 73, 127
1, 131976, Note_off_c, 1, 46, 0
1, 131976, Note_off_c, 1, 73, 0
1, 131979, Note_on_c, 1, 48, 127
1, 132135, Note_off_c, 1, 48, 0
1, 132137, Note_on_c, 1, 49, 127
1, 132454, Note_on_c, 1, 76, 127
1, 132606, Note_off_c, 1, 68, 0
1, 132610, Note_off_c, 1, 49, 0
1, 132612, Note_on_c, 1, 64, 127
1, 132768, Note_off_c, 1, 64, 0
1, 132771, Note_on_c, 1, 66, 127
1, 132927, Note_off_c, 1, 66, 0
1, 133088, Note_on_c, 1, 69, 127
1, 133403, Note_off_c, 1, 69, 0
1, 133563, Note_on_c, 1, 72, 127
1, 133719, Note_off_c, 1, 72, 0
1, 133721, Note_on_c, 1, 52, 127
1, 134036, Note_off_c, 1, 52, 0
1, 134038, Note_on_c, 1, 45, 127
1, 134351, Note_off_c, 1, 76, 0
1, 134669, Note_off_c, 1, 45, 0
1, 134672, Note_on_c, 1, 57, 127
1, 134987, Note_off_c, 1, 57, 0
1, 135147, Note_on_c, 1, 56, 127
1, 135303, Note_off_c, 1, 56, 0
1, 135780, Note_on_c, 1, 54, 127
1, 135936, Note_off_c, 1, 54, 0
1, 135939, Note_on_c, 1, 66, 127
1, 135939, Note_on_c, 1, 56, 127
1, 135939, Note_on_c, 1, 71, 127
1, 136254, Note_off_c, 1, 66, 0
1, 136256, Note_on_c, 1, 65, 127
1, 136570, Note_off_c, 1, 56, 0
1, 136571, Note_off_c, 1, 65, 0
1, 136572, Note_on_c, 1, 63, 127
1, 136887, Note_off_c, 1, 63, 0
1, 137523, Note_off_c, 1, 71, 0
1, 137523, Note_on_c, 1, 49, 127
1, 137523, Note_on_c, 1, 73, 127
1, 137838, Note_off_c, 1, 49, 0
1, 137838, Note_off_c, 1, 73, 0
1, 137840, Note_on_c, 1, 54, 127
1, 137840, Note_on_c, 1, 71, 127
1, 137840, Note_on_c, 1, 66, 127
1, 137996, Note_off_c, 1, 54, 0
1, 137998, Note_on_c, 1, 53, 127
1, 138154, Note_off_c, 1, 53, 0
1, 138155, Note_off_c, 1, 71, 0
1, 138156, Note_on_c, 1, 69, 127
1, 138467, Note_off_c, 1, 66, 0
1, 138471, Note_off_c, 1, 69, 0
1, 138473, Note_on_c, 1, 54, 127
1, 138473, Note_on_c, 1, 68, 127
1, 138473, Note_on_c, 1, 64, 127
1, 138788, Note_off_c, 1, 54, 0
1, 138788, Note_off_c, 1, 68, 0
1, 138788, Note_off_c, 1, 64, 0
1, 138790, Note_on_c, 1, 54, 127
1, 138790, Note_on_c, 1, 64, 127
1, 138790, Note_on_c, 1, 68, 127
1, 138946, Note_off_c, 1, 54, 0
1, 138948, Note_on_c, 1, 53, 127
1, 139104, Note_off_c, 1, 53, 0
1, 139105, Note_off_c, 1, 64, 0
1, 139105, Note_off_c, 1, 68, 0
1, 139107, Note_on_c, 1, 54, 127
1, 139107, Note_on_c, 1, 66, 127
1, 139107, Note_on_c, 1, 63, 127
1, 139422, Note_off_c, 1, 54, 0
1, 139422, Note_off_c, 1, 66, 0
1, 139422, Note_off_c, 1, 63, 0
1, 139424, Note_on_c, 1, 54, 127
1, 139424, Note_on_c, 1, 61, 127
1, 139424, Note_on_c, 1, 64, 127
1, 139739, Note_off_c, 1, 54, 0
1, 139739, Note_off_c, 1, 61, 0
1, 139739, Note_off_c, 1, 64, 0
1, 139740, Note_on_c, 1, 54, 127
1, 139740, Note_on_c, 1, 64, 127
1, 139740, Note_on_c, 1, 60, 127
1, 140055, Note_off_c, 1, 54, 0
1, 140055, Note_off_c, 1, 64, 0
1, 140055, Note_off_c, 1, 60, 0
1, 140057, Note_on_c, 1, 56, 127
1, 140057, Note_on_c, 1, 63, 127
1, 140213, Note_off_c, 1, 56, 0
1, 140213, Note_off_c, 1, 63, 0
1, 140216, Note_on_c, 1, 54, 127
1, 140216, Note_on_c, 1, 68, 127
1, 140372, Note_off_c, 1, 54, 0
1, 140372, Note_off_c, 1, 68, 0
1, 140374, Note_on_c, 1, 52, 127
1, 140374, Note_on_c, 1, 72, 127
1, 140530, Note_off_c, 1, 52, 0
1, 140530, Note_off_c, 1, 72, 0
1, 140532, Note_on_c, 1, 51, 127
1, 140532, Note_on_c, 1, 75, 127
1, 140688, Note_off_c, 1, 51, 0
1, 140688, Note_off_c, 1, 75, 0
1, 140691, Note_on_c, 1, 54, 127
1, 140691, Note_on_c, 1, 80, 127
1, 140810, Note_on_c, 1, 52, 127
1, 140823, Note_off_c, 1, 54, 0
1, 140847, Note_off_c, 1, 80, 0
1, 140849, Note_on_c, 1, 78, 127
1, 140942, Note_off_c, 1, 52, 0
1, 141005, Note_off_c, 1, 78, 0
1, 142354, Note_on_c, 1, 51, 127
1, 142471, Note_off_c, 1, 51, 0
1, 142592, Note_on_c, 1, 80, 127
1, 142592, Note_on_c, 1, 51, 127
1, 142907, Note_off_c, 1, 80, 0
1, 142908, Note_on_c, 1, 81, 127
1, 143064, Note_off_c, 1, 81, 0
1, 143065, Note_off_c, 1, 51, 0
1, 143067, Note_on_c, 1, 63, 127
1, 143067, Note_on_c, 1, 80, 127
1, 143223, Note_off_c, 1, 63, 0
1, 143223, Note_off_c, 1, 80, 0
1, 143225, Note_on_c, 1, 66, 127
1, 143225, Note_on_c, 1, 78, 127
1, 143381, Note_off_c, 1, 66, 0
1, 143381, Note_off_c, 1, 78, 0
1, 143384, Note_on_c, 1, 70, 127
1, 143384, Note_on_c, 1, 76, 127
1, 143540, Note_off_c, 1, 70, 0
1, 143540, Note_off_c, 1, 76, 0
1, 143542, Note_on_c, 1, 75, 127
1, 143542, Note_on_c, 1, 78, 127
1, 143698, Note_off_c, 1, 75, 0
1, 143700, Note_on_c, 1, 73, 127
1, 143856, Note_off_c, 1, 73, 0
1, 144017, Note_on_c, 1, 52, 127
1, 144173, Note_off_c, 1, 78, 0
1, 144173, Note_off_c, 1, 52, 0
1, 144176, Note_on_c, 1, 51, 127
1, 144176, Note_on_c, 1, 78, 127
1, 144176, Note_on_c, 1, 75, 127
1, 144332, Note_off_c, 1, 51, 0
1, 144334, Note_on_c, 1, 49, 127
1, 144490, Note_off_c, 1, 49, 0
1, 144491, Note_off_c, 1, 78, 0
1, 144491, Note_off_c, 1, 75, 0
1, 144492, Note_on_c, 1, 48, 127
1, 144492, Note_on_c, 1, 75, 127
1, 144492, Note_on_c, 1, 78, 127
1, 144648, Note_off_c, 1, 48, 0
1, 144651, Note_on_c, 1, 49, 127
1, 144807, Note_off_c, 1, 49, 0
1, 144809, Note_on_c, 1, 51, 127
1, 145123, Note_off_c, 1, 75, 0
1, 145123, Note_off_c, 1, 78, 0
1, 145124, Note_off_c, 1, 51, 0
1, 145126, Note_on_c, 1, 44, 127
1, 145126, Note_on_c, 1, 78, 127
1, 145126, Note_on_c, 1, 75, 127
1, 145441, Note_off_c, 1, 44, 0
1, 145441, Note_off_c, 1, 78, 0
1, 145441, Note_off_c, 1, 75, 0
1, 145443, Note_on_c, 1, 78, 127
1, 145443, Note_on_c, 1, 75, 127
1, 145443, Note_on_c, 1, 49, 127
1, 145758, Note_off_c, 1, 78, 0
1, 145758, Note_off_c, 1, 75, 0
1, 145760, Note_on_c, 1, 76, 127
1, 145916, Note_off_c, 1, 49, 0
1, 145916, Note_off_c, 1, 76, 0
1, 145918, Note_on_c, 1, 51, 127
1, 145918, Note_on_c, 1, 75, 127
1, 146074, Note_off_c, 1, 51, 0
1, 146074, Note_off_c, 1, 75, 0
1, 146076, Note_on_c, 1, 52, 127
1, 146076, Note_on_c, 1, 73, 127
1, 146232, Note_off_c, 1, 52, 0
1, 146232, Note_off_c, 1, 73, 0
1, 146235, Note_on_c, 1, 56, 127
1, 146235, Note_on_c, 1, 72, 127
1, 146391, Note_off_c, 1, 56, 0
1, 146391, Note_off_c, 1, 72, 0
1, 146393, Note_on_c, 1, 61, 127
1, 146393, Note_on_c, 1, 73, 127
1, 146393, Note_on_c, 1, 76, 127
1, 146549, Note_off_c, 1, 61, 0
1, 146552, Note_on_c, 1, 60, 127
1, 146708, Note_off_c, 1, 73, 0
1, 146708, Note_off_c, 1, 76, 0
1, 146708, Note_off_c, 1, 60, 0
1, 146710, Note_on_c, 1, 61, 127
1, 146710, Note_on_c, 1, 78, 127
1, 146710, Note_on_c, 1, 75, 127
1, 147025, Note_off_c, 1, 61, 0
1, 147025, Note_off_c, 1, 78, 0
1, 147025, Note_off_c, 1, 75, 0
1, 147027, Note_on_c, 1, 61, 127
1, 147027, Note_on_c, 1, 80, 127
1, 147027, Note_on_c, 1, 76, 127
1, 147342, Note_off_c, 1, 61, 0
1, 147342, Note_off_c, 1, 80, 0
1, 147342, Note_off_c, 1, 76, 0
1, 147344, Note_on_c, 1, 70, 127
1, 147344, Note_on_c, 1, 73, 127
1, 147344, Note_on_c, 1, 61, 127
1, 147659, Note_off_c, 1, 70, 0
1, 147659, Note_off_c, 1, 73, 0
1, 147660, Note_on_c, 1, 71, 127
1, 147660, Note_on_c, 1, 75, 127
1, 147975, Note_off_c, 1, 61, 0
1, 147975, Note_off_c, 1, 71, 0
1, 147975, Note_off_c, 1, 75, 0
1, 147977, Note_on_c, 1, 61, 127
1, 147977, Note_on_c, 1, 76, 127
1, 147977, Note_on_c, 1, 73, 127
1, 148292, Note_off_c, 1, 61, 0
1, 148292, Note_off_c, 1, 76, 0
1, 148292, Note_off_c, 1, 73, 0
1, 148294, Note_on_c, 1, 61, 127
1, 148294, Note_on_c, 1, 71, 127
1, 148294, Note_on_c, 1, 67, 127
1, 148609, Note_off_c, 1, 61, 0
1, 148609, Note_off_c, 1, 71, 0
1, 148611, Note_on_c, 1, 63, 127
1, 148611, Note_on_c, 1, 70, 127
1, 148767, Note_off_c, 1, 63, 0
1, 148921, Note_off_c, 1, 67, 0
1, 148928, Note_on_c, 1, 59, 127
1, 149084, Note_off_c, 1, 59, 0
1, 149086, Note_on_c, 1, 58, 127
1, 149238, Note_off_c, 1, 70, 0
1, 149242, Note_off_c, 1, 58, 0
1, 149244, Note_on_c, 1, 75, 127
1, 149244, Note_on_c, 1, 59, 127
1, 149400, Note_off_c, 1, 75, 0
1, 149403, Note_on_c, 1, 73, 127
1, 149559, Note_off_c, 1, 59, 0
1, 149559, Note_off_c, 1, 73, 0
1, 149561, Note_on_c, 1, 59, 127
1, 149561, Note_on_c, 1, 75, 127
1, 149717, Note_off_c, 1, 59, 0
1, 149720, Note_on_c, 1, 58, 127
1, 149876, Note_off_c, 1, 58, 0
1, 149878, Note_on_c, 1, 63, 127
1, 150193, Note_off_c, 1, 63, 0
1, 150195, Note_on_c, 1, 68, 127
1, 150666, Note_off_c, 1, 75, 0
1, 150828, Note_on_c, 1, 77, 127
1, 150984, Note_off_c, 1, 77, 0
1, 150987, Note_on_c, 1, 78, 127
1, 151143, Note_off_c, 1, 78, 0
1, 151462, Note_on_c, 1, 61, 127
1, 151618, Note_off_c, 1, 61, 0
1, 151779, Note_on_c, 1, 57, 127
1, 151935, Note_off_c, 1, 57, 0
1, 151937, Note_on_c, 1, 56, 127
1, 152092, Note_off_c, 1, 68, 0
1, 152093, Note_off_c, 1, 56, 0
1, 152096, Note_on_c, 1, 57, 127
1, 152096, Note_on_c, 1, 61, 127
1, 152096, Note_on_c, 1, 78, 127
1, 152252, Note_off_c, 1, 57, 0
1, 152254, Note_on_c, 1, 54, 127
1, 152409, Note_off_c, 1, 61, 0
1, 152410, Note_off_c, 1, 54, 0
1, 152412, Note_on_c, 1, 56, 127
1, 152568, Note_off_c, 1, 56, 0
1, 152569, Note_off_c, 1, 78, 0
1, 152571, Note_on_c, 1, 57, 127
1, 152571, Note_on_c, 1, 76, 127
1, 152727, Note_off_c, 1, 57, 0
1, 152727, Note_off_c, 1, 76, 0
1, 152729, Note_on_c, 1, 59, 127
1, 152729, Note_on_c, 1, 74, 127
1, 152885, Note_off_c, 1, 59, 0
1, 152885, Note_off_c, 1, 74, 0
1, 152888, Note_on_c, 1, 61, 127
1, 152888, Note_on_c, 1, 73, 127
1, 153044, Note_off_c, 1, 61, 0
1, 153044, Note_off_c, 1, 73, 0
1, 153046, Note_on_c, 1, 62, 127
1, 153046, Note_on_c, 1, 71, 127
1, 153202, Note_off_c, 1, 62, 0
1, 153204, Note_on_c, 1, 61, 127
1, 153360, Note_off_c, 1, 61, 0
1, 153521, Note_on_c, 1, 69, 127
1, 153677, Note_off_c, 1, 69, 0
1, 153680, Note_on_c, 1, 68, 127
1, 153680, Note_on_c, 1, 59, 127
1, 153836, Note_off_c, 1, 68, 0
1, 153838, Note_on_c, 1, 66, 127
1, 153994, Note_off_c, 1, 66, 0
1, 153995, Note_off_c, 1, 59, 0
1, 153996, Note_on_c, 1, 54, 127
1, 154311, Note_off_c, 1, 54, 0
1, 154313, Note_on_c, 1, 53, 127
1, 154469, Note_off_c, 1, 53, 0
1, 154472, Note_on_c, 1, 49, 127
1, 154628, Note_off_c, 1, 49, 0
1, 154630, Note_off_c, 1, 71, 0
1, 154630, Note_on_c, 1, 51, 127
1, 154630, Note_on_c, 1, 73, 127
1, 154786, Note_off_c, 1, 51, 0
1, 154945, Note_off_c, 1, 73, 0
1, 155264, Note_on_c, 1, 57, 127
1, 155420, Note_off_c, 1, 57, 0
1, 155422, Note_on_c, 1, 56, 127
1, 155578, Note_off_c, 1, 56, 0
1, 155739, Note_on_c, 1, 52, 127
1, 155895, Note_off_c, 1, 52, 0
1, 155897, Note_on_c, 1, 71, 127
1, 155897, Note_on_c, 1, 51, 127
1, 155897, Note_on_c, 1, 66, 127
1, 156014, Note_off_c, 1, 71, 0
1, 156016, Note_on_c, 1, 69, 127
1, 156133, Note_off_c, 1, 69, 0
1, 156212, Note_off_c, 1, 51, 0
1, 156214, Note_on_c, 1, 52, 127
1, 156529, Note_off_c, 1, 52, 0
1, 156531, Note_on_c, 1, 49, 127
1, 156610, Note_on_c, 1, 68, 127
1, 156727, Note_off_c, 1, 68, 0
1, 156846, Note_off_c, 1, 49, 0
1, 156848, Note_on_c, 1, 48, 127
1, 157004, Note_off_c, 1, 48, 0
1, 157162, Note_off_c, 1, 66, 0
1, 157481, Note_on_c, 1, 44, 127
1, 157796, Note_off_c, 1, 44, 0
1, 157798, Note_on_c, 1, 64, 127
1, 157954, Note_off_c, 1, 64, 0
1, 157956, Note_on_c, 1, 63, 127
1, 158112, Note_off_c, 1, 63, 0
1, 158748, Note_on_c, 1, 73, 127
1, 159065, Note_on_c, 1, 54, 127
1, 159380, Note_off_c, 1, 54, 0
1, 159382, Note_on_c, 1, 56, 127
1, 159697, Note_off_c, 1, 56, 0
1, 159699, Note_on_c, 1, 57, 127
1, 160014, Note_off_c, 1, 57, 0
1, 160016, Note_on_c, 1, 59, 127
1, 160331, Note_off_c, 1, 59, 0
1, 160645, Note_off_c, 1, 73, 0
1, 160649, Note_on_c, 1, 54, 127
1, 160649, Note_on_c, 1, 63, 127
1, 160649, Note_on_c, 1, 72, 127
1, 160964, Note_off_c, 1, 54, 0
1, 160966, Note_on_c, 1, 56, 127
1, 161280, Note_off_c, 1, 63, 0
1, 161280, Note_off_c, 1, 72, 0
1, 161281, Note_off_c, 1, 56, 0
1, 161283, Note_on_c, 1, 52, 127
1, 161283, Note_on_c, 1, 64, 127
1, 161283, Note_on_c, 1, 73, 127
1, 161598, Note_off_c, 1, 52, 0
1, 161598, Note_off_c, 1, 64, 0
1, 161598, Note_off_c, 1, 73, 0
1, 161600, Note_on_c, 1, 51, 127
1, 161600, Note_on_c, 1, 66, 127
1, 161600, Note_on_c, 1, 75, 127
1, 161756, Note_off_c, 1, 51, 0
1, 161758, Note_on_c, 1, 52, 127
1, 161914, Note_off_c, 1, 52, 0
1, 161916, Note_on_c, 1, 54, 127
1, 162231, Note_off_c, 1, 54, 0
1, 162550, Note_on_c, 1, 44, 127
1, 162865, Note_off_c, 1, 66, 0
1, 162867, Note_on_c, 1, 69, 127
1, 163182, Note_off_c, 1, 69, 0
1, 163184, Note_off_c, 1, 75, 0
1, 163184, Note_on_c, 1, 76, 127
1, 163184, Note_on_c, 1, 68, 127
1, 163499, Note_off_c, 1, 76, 0
1, 163499, Note_off_c, 1, 68, 0
1, 163817, Note_on_c, 1, 78, 127
1, 163969, Note_off_c, 1, 44, 0
1, 164134, Note_on_c, 1, 60, 127
1, 164449, Note_off_c, 1, 60, 0
1, 164768, Note_on_c, 1, 61, 127
1, 165082, Note_off_c, 1, 78, 0
1, 165716, Note_off_c, 1, 61, 0
1, 165718, Note_on_c, 1, 59, 127
1, 166033, Note_off_c, 1, 59, 0
1, 166035, Note_on_c, 1, 57, 127
1, 166350, Note_off_c, 1, 57, 0
1, 166352, Note_on_c, 1, 71, 127
1, 166352, Note_on_c, 1, 56, 127
1, 166352, Note_on_c, 1, 77, 127
1, 166667, Note_off_c, 1, 71, 0
1, 166668, Note_on_c, 1, 69, 127
1, 166983, Note_off_c, 1, 56, 0
1, 166983, Note_off_c, 1, 69, 0
1, 166985, Note_on_c, 1, 61, 127
1, 166985, Note_on_c, 1, 68, 127
1, 167300, Note_off_c, 1, 77, 0
1, 167300, Note_off_c, 1, 61, 0
1, 167300, Note_off_c, 1, 68, 0
1, 167302, Note_on_c, 1, 56, 127
1, 167302, Note_on_c, 1, 70, 127
1, 167302, Note_on_c, 1, 78, 127
1, 167419, Note_off_c, 1, 56, 0
1, 167421, Note_on_c, 1, 54, 127
1, 167538, Note_off_c, 1, 54, 0
1, 167617, Note_off_c, 1, 70, 0
1, 167619, Note_on_c, 1, 73, 127
1, 167934, Note_off_c, 1, 73, 0
1, 167936, Note_on_c, 1, 72, 127
1, 168015, Note_on_c, 1, 53, 127
1, 168132, Note_off_c, 1, 53, 0
1, 168250, Note_off_c, 1, 78, 0
1, 168251, Note_off_c, 1, 72, 0
1, 168252, Note_on_c, 1, 56, 127
1, 168252, Note_on_c, 1, 73, 127
1, 168252, Note_on_c, 1, 76, 127
1, 168369, Note_off_c, 1, 56, 0
1, 168371, Note_on_c, 1, 55, 127
1, 168488, Note_off_c, 1, 55, 0
1, 168567, Note_off_c, 1, 73, 0
1, 168569, Note_on_c, 1, 72, 127
1, 168884, Note_off_c, 1, 72, 0
1, 168886, Note_on_c, 1, 70, 127
1, 168965, Note_on_c, 1, 53, 127
1, 169082, Note_off_c, 1, 53, 0
1, 169200, Note_off_c, 1, 76, 0
1, 169201, Note_off_c, 1, 70, 0
1, 169203, Note_on_c, 1, 75, 127
1, 169203, Note_on_c, 1, 72, 127
1, 169203, Note_on_c, 1, 56, 127
1, 169518, Note_off_c, 1, 75, 0
1, 169520, Note_on_c, 1, 78, 127
1, 169830, Note_off_c, 1, 72, 0
1, 169835, Note_off_c, 1, 78, 0
1, 169836, Note_on_c, 1, 73, 127
1, 169836, Note_on_c, 1, 76, 127
1, 170151, Note_off_c, 1, 73, 0
1, 170151, Note_off_c, 1, 76, 0
1, 170312, Note_on_c, 1, 80, 127
1, 170468, Note_off_c, 1, 80, 0
1, 170470, Note_on_c, 1, 81, 127
1, 170622, Note_off_c, 1, 56, 0
1, 170785, Note_off_c, 1, 81, 0
1, 170787, Note_on_c, 1, 44, 127
1, 170787, Note_on_c, 1, 72, 127
1, 170787, Note_on_c, 1, 80, 127
1, 171102, Note_off_c, 1, 44, 0
1, 171102, Note_off_c, 1, 72, 0
1, 171102, Note_off_c, 1, 80, 0
1, 171104, Note_on_c, 1, 45, 127
1, 171104, Note_on_c, 1, 78, 127
1, 171104, Note_on_c, 1, 73, 127
1, 171424, Note_off_c, 1, 45, 0
1, 171424, Note_off_c, 1, 78, 0
1, 171425, Note_on_c, 1, 44, 127
1, 171425, Note_on_c, 1, 76, 127
1, 171740, Note_off_c, 1, 73, 0
1, 171745, Note_off_c, 1, 44, 0
1, 171745, Note_off_c, 1, 76, 0
1, 171747, Note_on_c, 1, 42, 127
1, 171747, Note_on_c, 1, 75, 127
1, 171747, Note_on_c, 1, 69, 127
1, 172067, Note_off_c, 1, 42, 0
1, 172067, Note_off_c, 1, 75, 0
1, 172067, Note_off_c, 1, 69, 0
1, 172069, Note_on_c, 1, 44, 127
1, 172069, Note_on_c, 1, 73, 127
1, 172069, Note_on_c, 1, 64, 127
1, 172729, Note_off_c, 1, 44, 0
1, 172730, Note_on_c, 1, 55, 127
1, 173058, Note_off_c, 1, 55, 0
1, 173059, Note_off_c, 1, 73, 0
1, 173059, Note_off_c, 1, 64, 0
1, 173060, Note_on_c, 1, 73, 127
1, 173060, Note_on_c, 1, 56, 127
1, 173060, Note_on_c, 1, 63, 127
1, 173173, Note_off_c, 1, 73, 0
1, 173174, Note_on_c, 1, 72, 127
1, 173287, Note_off_c, 1, 72, 0
1, 173739, Note_off_c, 1, 56, 0
1, 173739, Note_off_c, 1, 63, 0
1, 173742, Note_on_c, 1, 44, 127
1, 173742, Note_on_c, 1, 73, 127
1, 173742, Note_on_c, 1, 64, 127
1, 174080, Note_off_c, 1, 44, 0
1, 174080, Note_off_c, 1, 73, 0
1, 174080, Note_off_c, 1, 64, 0
1, 174097, Note_on_c, 1, 37, 127
1, 174097, Note_on_c, 1, 61, 127
1, 174098, Note_on_c, 1, 64, 127
1, 174099, Note_on_c, 1, 68, 127
1, 174100, Note_on_c, 1, 73, 127
1, 177157, Note_off_c, 1, 37, 0
1, 177157, Note_off_c, 1, 61, 0
1, 177158, Note_off_c, 1, 64, 0
1, 177159, Note_off_c, 1, 68, 0
1, 177160, Note_off_c, 1, 73, 0
1, 177210, Note_on_c, 1, 49, 127
1, 177368, Note_off_c, 1, 49, 0
1, 177370, Note_on_c, 1, 48, 127
1, 177528, Note_off_c, 1, 48, 0
1, 177530, Note_on_c, 1, 49, 127
1, 177688, Note_off_c, 1, 49, 0
1, 177690, Note_on_c, 1, 51, 127
1, 177848, Note_off_c, 1, 51, 0
1, 177850, Note_on_c, 1, 49, 127
1, 178008, Note_off_c, 1, 49, 0
1, 178010, Note_on_c, 1, 51, 127
1, 178168, Note_off_c, 1, 51, 0
1, 178170, Note_on_c, 1, 44, 127
1, 178328, Note_off_c, 1, 44, 0
1, 178330, Note_on_c, 1, 46, 127
1, 178488, Note_off_c, 1, 46, 0
1, 178490, Note_on_c, 1, 48, 127
1, 178648, Note_off_c, 1, 48, 0
1, 178650, Note_on_c, 1, 49, 127
1, 178808, Note_off_c, 1, 49, 0
1, 178810, Note_on_c, 1, 51, 127
1, 178968, Note_off_c, 1, 51, 0
1, 178970, Note_on_c, 1, 52, 127
1, 179128, Note_off_c, 1, 52, 0
1, 179130, Note_on_c, 1, 54, 127
1, 179288, Note_off_c, 1, 54, 0
1, 179290, Note_on_c, 1, 52, 127
1, 179448, Note_off_c, 1, 52, 0
1, 179451, Note_on_c, 1, 54, 127
1, 179609, Note_off_c, 1, 54, 0
1, 179611, Note_on_c, 1, 51, 127
1, 179769, Note_off_c, 1, 51, 0
1, 179771, Note_on_c, 1, 56, 127
1, 179929, Note_off_c, 1, 56, 0
1, 179931, Note_on_c, 1, 54, 127
1, 180089, Note_off_c, 1, 54, 0
1, 180091, Note_on_c, 1, 68, 127
1, 180091, Note_on_c, 1, 52, 127
1, 180249, Note_off_c, 1, 68, 0
1, 180249, Note_off_c, 1, 52, 0
1, 180251, Note_on_c, 1, 67, 127
1, 180251, Note_on_c, 1, 51, 127
1, 180409, Note_off_c, 1, 67, 0
1, 180409, Note_off_c, 1, 51, 0
1, 180411, Note_on_c, 1, 68, 127
1, 180411, Note_on_c, 1, 52, 127
1, 180569, Note_off_c, 1, 68, 0
1, 180569, Note_off_c, 1, 52, 0
1, 180571, Note_on_c, 1, 70, 127
1, 180571, Note_on_c, 1, 49, 127
1, 180729, Note_off_c, 1, 70, 0
1, 180731, Note_on_c, 1, 68, 127
1, 180889, Note_off_c, 1, 68, 0
1, 181051, Note_on_c, 1, 63, 127
1, 181209, Note_off_c, 1, 63, 0
1, 181211, Note_on_c, 1, 65, 127
1, 181369, Note_off_c, 1, 65, 0
1, 181371, Note_on_c, 1, 67, 127
1, 181529, Note_off_c, 1, 49, 0
1, 181529, Note_off_c, 1, 67, 0
1, 181531, Note_on_c, 1, 68, 127
1, 181531, Note_on_c, 1, 47, 127
1, 181689, Note_off_c, 1, 68, 0
1, 181691, Note_on_c, 1, 70, 127
1, 181849, Note_off_c, 1, 70, 0
1, 181851, Note_on_c, 1, 71, 127
1, 182009, Note_off_c, 1, 47, 0
1, 182009, Note_off_c, 1, 71, 0
1, 182011, Note_on_c, 1, 73, 127
1, 182011, Note_on_c, 1, 46, 127
1, 182169, Note_off_c, 1, 73, 0
1, 182171, Note_on_c, 1, 71, 127
1, 182329, Note_off_c, 1, 71, 0
1, 182489, Note_off_c, 1, 46, 0
1, 182491, Note_on_c, 1, 70, 127
1, 182491, Note_on_c, 1, 55, 127
1, 182649, Note_off_c, 1, 70, 0
1, 182652, Note_on_c, 1, 75, 127
1, 182810, Note_off_c, 1, 75, 0
1, 182812, Note_on_c, 1, 73, 127
1, 182969, Note_off_c, 1, 55, 0
1, 182970, Note_off_c, 1, 73, 0
1, 182972, Note_on_c, 1, 71, 127
1, 182972, Note_on_c, 1, 44, 127
1, 183130, Note_off_c, 1, 71, 0
1, 183132, Note_on_c, 1, 70, 127
1, 183290, Note_off_c, 1, 70, 0
1, 183450, Note_off_c, 1, 44, 0
1, 183452, Note_on_c, 1, 68, 127
1, 183452, Note_on_c, 1, 52, 127
1, 183610, Note_off_c, 1, 68, 0
1, 183612, Note_on_c, 1, 73, 127
1, 183770, Note_off_c, 1, 73, 0
1, 183772, Note_on_c, 1, 71, 127
1, 183930, Note_off_c, 1, 71, 0
1, 183932, Note_on_c, 1, 69, 127
1, 184090, Note_off_c, 1, 69, 0
1, 184410, Note_off_c, 1, 52, 0
1, 184412, Note_on_c, 1, 66, 127
1, 184412, Note_on_c, 1, 51, 127
1, 184570, Note_off_c, 1, 66, 0
1, 184572, Note_on_c, 1, 71, 127
1, 184730, Note_off_c, 1, 71, 0
1, 184732, Note_on_c, 1, 69, 127
1, 184890, Note_off_c, 1, 51, 0
1, 184890, Note_off_c, 1, 69, 0
1, 184892, Note_on_c, 1, 61, 127
1, 184892, Note_on_c, 1, 68, 127
1, 184892, Note_on_c, 1, 52, 127
1, 185050, Note_off_c, 1, 61, 0
1, 185052, Note_on_c, 1, 60, 127
1, 185210, Note_off_c, 1, 60, 0
1, 185370, Note_off_c, 1, 68, 0
1, 185370, Note_off_c, 1, 52, 0
1, 185372, Note_on_c, 1, 63, 127
1, 185372, Note_on_c, 1, 48, 127
1, 185372, Note_on_c, 1, 66, 127
1, 185530, Note_off_c, 1, 63, 0
1, 185532, Note_on_c, 1, 61, 127
1, 185690, Note_off_c, 1, 61, 0
1, 185850, Note_off_c, 1, 48, 0
1, 185853, Note_on_c, 1, 56, 127
1, 185853, Note_on_c, 1, 49, 127
1, 186011, Note_off_c, 1, 56, 0
1, 186013, Note_on_c, 1, 58, 127
1, 186171, Note_off_c, 1, 58, 0
1, 186173, Note_on_c, 1, 60, 127
1, 186330, Note_off_c, 1, 66, 0
1, 186331, Note_off_c, 1, 49, 0
1, 186331, Note_off_c, 1, 60, 0
1, 186333, Note_on_c, 1, 64, 127
1, 186333, Note_on_c, 1, 61, 127
1, 186493, Note_on_c, 1, 63, 127
1, 186651, Note_off_c, 1, 64, 0
1, 186651, Note_off_c, 1, 63, 0
1, 186813, Note_on_c, 1, 66, 127
1, 186971, Note_off_c, 1, 66, 0
1, 187291, Note_off_c, 1, 61, 0
1, 187293, Note_on_c, 1, 63, 127
1, 187293, Note_on_c, 1, 75, 127
1, 187293, Note_on_c, 1, 60, 127
1, 187451, Note_off_c, 1, 63, 0
1, 187453, Note_on_c, 1, 68, 127
1, 187611, Note_off_c, 1, 68, 0
1, 187613, Note_on_c, 1, 66, 127
1, 187771, Note_off_c, 1, 75, 0
1, 187771, Note_off_c, 1, 60, 0
1, 187771, Note_off_c, 1, 66, 0
1, 187773, Note_on_c, 1, 64, 127
1, 187773, Note_on_c, 1, 68, 127
1, 187773, Note_on_c, 1, 61, 127
1, 187931, Note_off_c, 1, 64, 0
1, 187933, Note_on_c, 1, 63, 127
1, 188091, Note_off_c, 1, 63, 0
1, 188251, Note_off_c, 1, 68, 0
1, 188251, Note_off_c, 1, 61, 0
1, 188253, Note_on_c, 1, 61, 127
1, 188253, Note_on_c, 1, 54, 127
1, 188253, Note_on_c, 1, 69, 127
1, 188411, Note_off_c, 1, 61, 0
1, 188413, Note_on_c, 1, 66, 127
1, 188571, Note_off_c, 1, 66, 0
1, 188573, Note_on_c, 1, 64, 127
1, 188731, Note_off_c, 1, 54, 0
1, 188731, Note_off_c, 1, 64, 0
1, 188733, Note_on_c, 1, 63, 127
1, 188733, Note_on_c, 1, 59, 127
1, 188891, Note_off_c, 1, 63, 0
1, 189211, Note_off_c, 1, 69, 0
1, 189211, Note_off_c, 1, 59, 0
1, 189214, Note_on_c, 1, 59, 127
1, 189214, Note_on_c, 1, 52, 127
1, 189214, Note_on_c, 1, 68, 127
1, 189374, Note_on_c, 1, 64, 127
1, 189532, Note_off_c, 1, 64, 0
1, 189534, Note_on_c, 1, 63, 127
1, 189692, Note_off_c, 1, 59, 0
1, 189692, Note_off_c, 1, 52, 0
1, 189692, Note_off_c, 1, 63, 0
1, 189694, Note_on_c, 1, 61, 127
1, 189694, Note_on_c, 1, 57, 127
1, 189852, Note_off_c, 1, 61, 0
1, 190172, Note_off_c, 1, 68, 0
1, 190174, Note_on_c, 1, 66, 127
1, 190652, Note_off_c, 1, 57, 0
1, 190654, Note_on_c, 1, 56, 127
1, 190654, Note_on_c, 1, 60, 127
1, 190812, Note_off_c, 1, 66, 0
1, 190974, Note_on_c, 1, 69, 127
1, 191132, Note_off_c, 1, 69, 0
1, 191772, Note_off_c, 1, 56, 0
1, 191774, Note_on_c, 1, 54, 127
1, 191932, Note_off_c, 1, 54, 0
1, 192092, Note_off_c, 1, 60, 0
1, 193055, Note_on_c, 1, 51, 127
1, 193213, Note_off_c, 1, 51, 0
1, 193535, Note_on_c, 1, 68, 127
1, 193535, Note_on_c, 1, 52, 127
1, 193535, Note_on_c, 1, 61, 127
1, 193693, Note_off_c, 1, 68, 0
1, 193693, Note_off_c, 1, 52, 0
1, 193695, Note_on_c, 1, 66, 127
1, 193695, Note_on_c, 1, 51, 127
1, 193853, Note_off_c, 1, 66, 0
1, 193853, Note_off_c, 1, 51, 0
1, 194015, Note_on_c, 1, 64, 127
1, 194015, Note_on_c, 1, 49, 127
1, 194173, Note_off_c, 1, 64, 0
1, 194173, Note_off_c, 1, 49, 0
1, 194175, Note_on_c, 1, 69, 127
1, 194175, Note_on_c, 1, 54, 127
1, 194333, Note_off_c, 1, 69, 0
1, 194333, Note_off_c, 1, 54, 0
1, 194973, Note_off_c, 1, 61, 0
1, 194975, Note_on_c, 1, 63, 127
1, 194975, Note_on_c, 1, 56, 127
1, 194975, Note_on_c, 1, 59, 127
1, 195133, Note_off_c, 1, 63, 0
1, 195135, Note_on_c, 1, 68, 127
1, 195293, Note_off_c, 1, 68, 0
1, 195295, Note_on_c, 1, 66, 127
1, 195453, Note_off_c, 1, 56, 0
1, 195453, Note_off_c, 1, 66, 0
1, 195456, Note_on_c, 1, 65, 127
1, 195456, Note_on_c, 1, 49, 127
1, 195614, Note_off_c, 1, 65, 0
1, 195776, Note_on_c, 1, 61, 127
1, 195933, Note_off_c, 1, 59, 0
1, 195934, Note_off_c, 1, 61, 0
1, 195936, Note_on_c, 1, 57, 127
1, 196094, Note_off_c, 1, 57, 0
1, 196256, Note_on_c, 1, 54, 127
1, 196414, Note_off_c, 1, 54, 0
1, 196574, Note_off_c, 1, 49, 0
1, 196576, Note_on_c, 1, 47, 127
1, 196734, Note_off_c, 1, 47, 0
1, 196896, Note_on_c, 1, 44, 127
1, 196896, Note_on_c, 1, 64, 127
1, 197054, Note_off_c, 1, 44, 0
1, 197376, Note_on_c, 1, 46, 127
1, 197534, Note_off_c, 1, 46, 0
1, 197696, Note_on_c, 1, 42, 127
1, 197854, Note_off_c, 1, 64, 0
1, 197854, Note_off_c, 1, 42, 0
1, 198336, Note_on_c, 1, 52, 127
1, 198494, Note_off_c, 1, 52, 0
1, 198496, Note_on_c, 1, 51, 127
1, 198654, Note_off_c, 1, 51, 0
1, 198817, Note_on_c, 1, 45, 127
1, 199775, Note_off_c, 1, 45, 0
1, 200097, Note_on_c, 1, 40, 127
1, 200255, Note_off_c, 1, 40, 0
1, 200737, Note_on_c, 1, 54, 127
1, 200737, Note_on_c, 1, 51, 127
1, 200737, Note_on_c, 1, 47, 127
1, 200895, Note_off_c, 1, 54, 0
1, 200897, Note_on_c, 1, 59, 127
1, 201055, Note_off_c, 1, 59, 0
1, 201057, Note_on_c, 1, 57, 127
1, 201215, Note_off_c, 1, 51, 0
1, 201215, Note_off_c, 1, 47, 0
1, 201215, Note_off_c, 1, 57, 0
1, 201217, Note_on_c, 1, 56, 127
1, 201217, Note_on_c, 1, 40, 127
1, 201217, Note_on_c, 1, 52, 127
1, 201375, Note_off_c, 1, 56, 0
1, 201377, Note_on_c, 1, 59, 127
1, 201535, Note_off_c, 1, 59, 0
1, 201537, Note_on_c, 1, 64, 127
1, 201667, Note_off_c, 1, 40, 0
1, 201697, Note_on_c, 1, 54, 127
1, 201726, Note_off_c, 1, 52, 0
1, 201855, Note_off_c, 1, 64, 0
1, 201858, Note_on_c, 1, 63, 127
1, 202016, Note_off_c, 1, 63, 0
1, 202018, Note_on_c, 1, 61, 127
1, 202175, Note_off_c, 1, 54, 0
1, 202176, Note_off_c, 1, 61, 0
1, 202178, Note_on_c, 1, 59, 127
1, 202178, Note_on_c, 1, 56, 127
1, 202336, Note_off_c, 1, 59, 0
1, 202338, Note_on_c, 1, 64, 127
1, 202496, Note_off_c, 1, 64, 0
1, 202498, Note_on_c, 1, 68, 127
1, 202656, Note_off_c, 1, 56, 0
1, 202658, Note_on_c, 1, 58, 127
1, 202816, Note_off_c, 1, 68, 0
1, 202818, Note_on_c, 1, 66, 127
1, 202976, Note_off_c, 1, 66, 0
1, 203136, Note_off_c, 1, 58, 0
1, 203138, Note_on_c, 1, 47, 127
1, 203138, Note_on_c, 1, 63, 127
1, 203138, Note_on_c, 1, 59, 127
1, 203296, Note_off_c, 1, 47, 0
1, 203298, Note_on_c, 1, 45, 127
1, 203456, Note_off_c, 1, 45, 0
1, 203616, Note_off_c, 1, 63, 0
1, 203618, Note_on_c, 1, 49, 127
1, 203618, Note_on_c, 1, 65, 127
1, 203776, Note_off_c, 1, 49, 0
1, 204096, Note_off_c, 1, 65, 0
1, 204098, Note_on_c, 1, 42, 127
1, 204098, Note_on_c, 1, 66, 127
1, 204256, Note_off_c, 1, 59, 0
1, 204258, Note_on_c, 1, 57, 127
1, 204416, Note_off_c, 1, 57, 0
1, 204576, Note_off_c, 1, 42, 0
1, 204578, Note_on_c, 1, 61, 127
1, 204578, Note_on_c, 1, 40, 127
1, 204736, Note_off_c, 1, 61, 0
1, 204898, Note_on_c, 1, 64, 127
1, 205056, Note_off_c, 1, 66, 0
1, 205056, Note_off_c, 1, 40, 0
1, 205056, Note_off_c, 1, 64, 0
1, 205059, Note_on_c, 1, 66, 127
1, 205059, Note_on_c, 1, 70, 127
1, 205059, Note_on_c, 1, 39, 127
1, 205217, Note_off_c, 1, 66, 0
1, 205219, Note_on_c, 1, 64, 127
1, 205377, Note_off_c, 1, 64, 0
1, 205537, Note_off_c, 1, 70, 0
1, 205537, Note_off_c, 1, 39, 0
1, 205539, Note_on_c, 1, 63, 127
1, 205539, Note_on_c, 1, 72, 127
1, 205539, Note_on_c, 1, 44, 127
1, 205697, Note_off_c, 1, 63, 0
1, 205699, Note_on_c, 1, 68, 127
1, 205857, Note_off_c, 1, 68, 0
1, 205859, Note_on_c, 1, 66, 127
1, 206017, Note_off_c, 1, 72, 0
1, 206017, Note_off_c, 1, 44, 0
1, 206017, Note_off_c, 1, 66, 0
1, 206019, Note_on_c, 1, 73, 127
1, 206019, Note_on_c, 1, 49, 127
1, 206019, Note_on_c, 1, 64, 127
1, 206177, Note_off_c, 1, 73, 0
1, 206177, Note_off_c, 1, 49, 0
1, 206179, Note_on_c, 1, 72, 127
1, 206179, Note_on_c, 1, 51, 127
1, 206337, Note_off_c, 1, 72, 0
1, 206337, Note_off_c, 1, 51, 0
1, 206339, Note_on_c, 1, 52, 127
1, 206494, Note_off_c, 1, 64, 0
1, 206497, Note_off_c, 1, 52, 0
1, 206499, Note_on_c, 1, 75, 127
1, 206499, Note_on_c, 1, 54, 127
1, 206657, Note_off_c, 1, 75, 0
1, 206659, Note_on_c, 1, 73, 127
1, 206817, Note_off_c, 1, 73, 0
1, 206979, Note_on_c, 1, 68, 127
1, 207137, Note_off_c, 1, 54, 0
1, 207137, Note_off_c, 1, 68, 0
1, 207139, Note_on_c, 1, 70, 127
1, 207139, Note_on_c, 1, 52, 127
1, 207297, Note_off_c, 1, 70, 0
1, 207297, Note_off_c, 1, 52, 0
1, 207299, Note_on_c, 1, 72, 127
1, 207299, Note_on_c, 1, 51, 127
1, 207457, Note_off_c, 1, 72, 0
1, 207457, Note_off_c, 1, 51, 0
1, 207459, Note_on_c, 1, 73, 127
1, 207459, Note_on_c, 1, 52, 127
1, 207617, Note_off_c, 1, 73, 0
1, 207617, Note_off_c, 1, 52, 0
1, 207619, Note_on_c, 1, 75, 127
1, 207619, Note_on_c, 1, 54, 127
1, 207777, Note_off_c, 1, 75, 0
1, 207777, Note_off_c, 1, 54, 0
1, 207779, Note_on_c, 1, 76, 127
1, 207779, Note_on_c, 1, 56, 127
1, 207937, Note_off_c, 1, 76, 0
1, 207937, Note_off_c, 1, 56, 0
1, 207939, Note_on_c, 1, 78, 127
1, 207939, Note_on_c, 1, 57, 127
1, 208097, Note_off_c, 1, 78, 0
1, 208097, Note_off_c, 1, 57, 0
1, 208099, Note_on_c, 1, 76, 127
1, 208099, Note_on_c, 1, 56, 127
1, 208257, Note_off_c, 1, 76, 0
1, 208257, Note_off_c, 1, 56, 0
1, 208260, Note_on_c, 1, 78, 127
1, 208260, Note_on_c, 1, 54, 127
1, 208418, Note_off_c, 1, 78, 0
1, 208418, Note_off_c, 1, 54, 0
1, 208420, Note_on_c, 1, 75, 127
1, 208420, Note_on_c, 1, 56, 127
1, 208578, Note_off_c, 1, 75, 0
1, 208578, Note_off_c, 1, 56, 0
1, 208580, Note_on_c, 1, 80, 127
1, 208580, Note_on_c, 1, 58, 127
1, 208738, Note_off_c, 1, 80, 0
1, 208738, Note_off_c, 1, 58, 0
1, 208740, Note_on_c, 1, 78, 127
1, 208740, Note_on_c, 1, 60, 127
1, 208898, Note_off_c, 1, 78, 0
1, 208898, Note_off_c, 1, 60, 0
1, 208900, Note_on_c, 1, 76, 127
1, 208900, Note_on_c, 1, 68, 127
1, 208900, Note_on_c, 1, 61, 127
1, 209058, Note_off_c, 1, 76, 0
1, 209058, Note_off_c, 1, 68, 0
1, 209060, Note_on_c, 1, 75, 127
1, 209060, Note_on_c, 1, 67, 127
1, 209218, Note_off_c, 1, 75, 0
1, 209218, Note_off_c, 1, 67, 0
1, 209380, Note_on_c, 1, 73, 127
1, 209380, Note_on_c, 1, 70, 127
1, 209538, Note_off_c, 1, 73, 0
1, 209538, Note_off_c, 1, 70, 0
1, 209540, Note_on_c, 1, 71, 127
1, 209698, Note_off_c, 1, 71, 0
1, 209860, Note_on_c, 1, 63, 127
1, 209860, Note_on_c, 1, 82, 127
1, 210018, Note_off_c, 1, 63, 0
1, 210020, Note_on_c, 1, 65, 127
1, 210178, Note_off_c, 1, 65, 0
1, 210338, Note_off_c, 1, 61, 0
1, 210338, Note_off_c, 1, 82, 0
1, 210340, Note_on_c, 1, 68, 127
1, 210340, Note_on_c, 1, 75, 127
1, 210340, Note_on_c, 1, 59, 127
1, 210498, Note_off_c, 1, 68, 0
1, 210500, Note_on_c, 1, 70, 127
1, 210658, Note_off_c, 1, 70, 0
1, 210660, Note_on_c, 1, 71, 127
1, 210818, Note_off_c, 1, 75, 0
1, 210818, Note_off_c, 1, 59, 0
1, 210818, Note_off_c, 1, 71, 0
1, 210820, Note_on_c, 1, 73, 127
1, 210820, Note_on_c, 1, 77, 127
1, 210820, Note_on_c, 1, 58, 127
1, 210978, Note_off_c, 1, 73, 0
1, 210980, Note_on_c, 1, 71, 127
1, 211138, Note_off_c, 1, 71, 0
1, 211298, Note_off_c, 1, 77, 0
1, 211298, Note_off_c, 1, 58, 0
1, 211300, Note_on_c, 1, 70, 127
1, 211300, Note_on_c, 1, 79, 127
1, 211300, Note_on_c, 1, 63, 127
1, 211458, Note_off_c, 1, 70, 0
1, 211461, Note_on_c, 1, 75, 127
1, 211619, Note_off_c, 1, 75, 0
1, 211621, Note_on_c, 1, 73, 127
1, 211778, Note_off_c, 1, 79, 0
1, 211778, Note_off_c, 1, 63, 0
1, 211779, Note_off_c, 1, 73, 0
1, 211781, Note_on_c, 1, 71, 127
1, 211781, Note_on_c, 1, 80, 127
1, 211781, Note_on_c, 1, 56, 127
1, 211939, Note_off_c, 1, 71, 0
1, 211941, Note_on_c, 1, 70, 127
1, 212099, Note_off_c, 1, 70, 0
1, 212259, Note_off_c, 1, 80, 0
1, 212259, Note_off_c, 1, 56, 0
1, 212261, Note_on_c, 1, 68, 127
1, 212261, Note_on_c, 1, 61, 127
1, 212261, Note_on_c, 1, 76, 127
1, 212419, Note_off_c, 1, 68, 0
1, 212421, Note_on_c, 1, 73, 127
1, 212579, Note_off_c, 1, 73, 0
1, 212581, Note_on_c, 1, 71, 127
1, 212739, Note_off_c, 1, 61, 0
1, 212739, Note_off_c, 1, 71, 0
1, 212741, Note_on_c, 1, 69, 127
1, 212741, Note_on_c, 1, 54, 127
1, 212899, Note_off_c, 1, 69, 0
1, 213219, Note_off_c, 1, 76, 0
1, 213219, Note_off_c, 1, 54, 0
1, 213221, Note_on_c, 1, 66, 127
1, 213221, Note_on_c, 1, 75, 127
1, 213221, Note_on_c, 1, 59, 127
1, 213379, Note_off_c, 1, 66, 0
1, 213381, Note_on_c, 1, 71, 127
1, 213539, Note_off_c, 1, 71, 0
1, 213541, Note_on_c, 1, 69, 127
1, 213699, Note_off_c, 1, 75, 0
1, 213699, Note_off_c, 1, 59, 0
1, 213699, Note_off_c, 1, 69, 0
1, 213701, Note_on_c, 1, 68, 127
1, 213701, Note_on_c, 1, 52, 127
1, 213701, Note_on_c, 1, 76, 127
1, 213859, Note_off_c, 1, 68, 0
1, 213859, Note_off_c, 1, 52, 0
1, 213861, Note_on_c, 1, 66, 127
1, 213861, Note_on_c, 1, 51, 127
1, 214019, Note_off_c, 1, 66, 0
1, 214019, Note_off_c, 1, 51, 0
1, 214181, Note_on_c, 1, 70, 127
1, 214181, Note_on_c, 1, 54, 127
1, 214339, Note_off_c, 1, 70, 0
1, 214339, Note_off_c, 1, 54, 0
1, 214659, Note_off_c, 1, 76, 0
1, 214662, Note_on_c, 1, 47, 127
1, 214662, Note_on_c, 1, 75, 127
1, 214662, Note_on_c, 1, 71, 127
1, 214820, Note_off_c, 1, 47, 0
1, 214822, Note_on_c, 1, 49, 127
1, 214980, Note_off_c, 1, 49, 0
1, 214982, Note_on_c, 1, 51, 127
1, 215140, Note_off_c, 1, 75, 0
1, 215140, Note_off_c, 1, 51, 0
1, 215142, Note_on_c, 1, 52, 127
1, 215142, Note_on_c, 1, 74, 127
1, 215300, Note_off_c, 1, 52, 0
1, 215302, Note_on_c, 1, 54, 127
1, 215460, Note_off_c, 1, 54, 0
1, 215462, Note_on_c, 1, 56, 127
1, 215620, Note_off_c, 1, 74, 0
1, 215620, Note_off_c, 1, 56, 0
1, 215622, Note_on_c, 1, 57, 127
1, 215622, Note_on_c, 1, 73, 127
1, 215780, Note_off_c, 1, 57, 0
1, 216100, Note_off_c, 1, 71, 0
1, 216100, Note_off_c, 1, 73, 0
1, 216102, Note_on_c, 1, 75, 127
1, 216102, Note_on_c, 1, 54, 127
1, 216102, Note_on_c, 1, 69, 127
1, 216260, Note_off_c, 1, 75, 0
1, 216260, Note_off_c, 1, 54, 0
1, 216262, Note_on_c, 1, 76, 127
1, 216262, Note_on_c, 1, 59, 127
1, 216420, Note_off_c, 1, 76, 0
1, 216420, Note_off_c, 1, 59, 0
1, 216422, Note_on_c, 1, 78, 127
1, 216422, Note_on_c, 1, 57, 127
1, 216580, Note_off_c, 1, 78, 0
1, 216580, Note_off_c, 1, 57, 0
1, 216582, Note_on_c, 1, 56, 127
1, 216582, Note_on_c, 1, 71, 127
1, 216740, Note_off_c, 1, 56, 0
1, 217060, Note_off_c, 1, 69, 0
1, 217060, Note_off_c, 1, 71, 0
1, 217062, Note_on_c, 1, 73, 127
1, 217062, Note_on_c, 1, 52, 127
1, 217062, Note_on_c, 1, 68, 127
1, 217220, Note_off_c, 1, 73, 0
1, 217220, Note_off_c, 1, 52, 0
1, 217222, Note_on_c, 1, 75, 127
1, 217222, Note_on_c, 1, 57, 127
1, 217380, Note_off_c, 1, 75, 0
1, 217380, Note_off_c, 1, 57, 0
1, 217382, Note_on_c, 1, 76, 127
1, 217382, Note_on_c, 1, 56, 127
1, 217540, Note_off_c, 1, 76, 0
1, 217540, Note_off_c, 1, 56, 0
1, 217542, Note_on_c, 1, 54, 127
1, 217542, Note_on_c, 1, 69, 127
1, 217700, Note_off_c, 1, 54, 0
1, 218020, Note_off_c, 1, 68, 0
1, 218020, Note_off_c, 1, 69, 0
1, 218023, Note_on_c, 1, 71, 127
1, 218023, Note_on_c, 1, 51, 127
1, 218023, Note_on_c, 1, 66, 127
1, 218181, Note_off_c, 1, 71, 0
1, 218181, Note_off_c, 1, 51, 0
1, 218183, Note_on_c, 1, 73, 127
1, 218183, Note_on_c, 1, 56, 127
1, 218341, Note_off_c, 1, 73, 0
1, 218341, Note_off_c, 1, 56, 0
1, 218343, Note_on_c, 1, 75, 127
1, 218343, Note_on_c, 1, 54, 127
1, 218501, Note_off_c, 1, 75, 0
1, 218501, Note_off_c, 1, 54, 0
1, 218503, Note_on_c, 1, 52, 127
1, 218503, Note_on_c, 1, 68, 127
1, 218661, Note_off_c, 1, 52, 0
1, 218981, Note_off_c, 1, 66, 0
1, 218983, Note_on_c, 1, 49, 127
1, 218983, Note_on_c, 1, 64, 127
1, 219141, Note_off_c, 1, 68, 0
1, 219303, Note_on_c, 1, 70, 127
1, 219332, Note_off_c, 1, 49, 0
1, 219461, Note_off_c, 1, 64, 0
1, 219461, Note_off_c, 1, 70, 0
1, 219463, Note_on_c, 1, 56, 127
1, 219463, Note_on_c, 1, 63, 127
1, 219463, Note_on_c, 1, 71, 127
1, 219621, Note_off_c, 1, 56, 0
1, 219623, Note_on_c, 1, 54, 127
1, 219781, Note_off_c, 1, 54, 0
1, 219941, Note_off_c, 1, 63, 0
1, 219943, Note_on_c, 1, 52, 127
1, 219943, Note_on_c, 1, 68, 127
1, 220101, Note_off_c, 1, 71, 0
1, 220103, Note_on_c, 1, 75, 127
1, 220261, Note_off_c, 1, 75, 0
1, 220263, Note_on_c, 1, 73, 127
1, 220292, Note_off_c, 1, 52, 0
1, 220421, Note_off_c, 1, 68, 0
1, 220421, Note_off_c, 1, 73, 0
1, 220423, Note_on_c, 1, 59, 127
1, 220423, Note_on_c, 1, 66, 127
1, 220423, Note_on_c, 1, 75, 127
1, 220581, Note_off_c, 1, 59, 0
1, 220583, Note_on_c, 1, 58, 127
1, 220741, Note_off_c, 1, 58, 0
1, 220901, Note_off_c, 1, 66, 0
1, 220903, Note_on_c, 1, 56, 127
1, 220903, Note_on_c, 1, 71, 127
1, 221061, Note_off_c, 1, 75, 0
1, 221064, Note_on_c, 1, 78, 127
1, 221222, Note_off_c, 1, 78, 0
1, 221224, Note_on_c, 1, 76, 127
1, 221252, Note_off_c, 1, 56, 0
1, 221382, Note_off_c, 1, 76, 0
1, 221384, Note_on_c, 1, 63, 127
1, 221544, Note_on_c, 1, 80, 127
1, 221701, Note_off_c, 1, 71, 0
1, 221702, Note_off_c, 1, 80, 0
1, 221704, Note_on_c, 1, 69, 127
1, 221862, Note_off_c, 1, 63, 0
1, 221864, Note_on_c, 1, 64, 127
1, 222182, Note_off_c, 1, 69, 0
1, 222184, Note_on_c, 1, 68, 127
1, 222342, Note_off_c, 1, 68, 0
1, 222344, Note_on_c, 1, 83, 127
1, 222502, Note_off_c, 1, 83, 0
1, 222504, Note_on_c, 1, 82, 127
1, 222662, Note_off_c, 1, 82, 0
1, 222822, Note_off_c, 1, 64, 0
1, 222824, Note_on_c, 1, 78, 127
1, 222824, Note_on_c, 1, 63, 127
1, 222824, Note_on_c, 1, 71, 127
1, 222982, Note_off_c, 1, 78, 0
1, 222982, Note_off_c, 1, 63, 0
1, 222984, Note_on_c, 1, 76, 127
1, 222984, Note_on_c, 1, 61, 127
1, 223142, Note_off_c, 1, 76, 0
1, 223142, Note_off_c, 1, 61, 0
1, 223144, Note_on_c, 1, 75, 127
1, 223144, Note_on_c, 1, 59, 127
1, 223302, Note_off_c, 1, 75, 0
1, 223302, Note_off_c, 1, 59, 0
1, 223304, Note_on_c, 1, 73, 127
1, 223304, Note_on_c, 1, 66, 127
1, 223462, Note_off_c, 1, 73, 0
1, 223622, Note_off_c, 1, 71, 0
1, 223622, Note_off_c, 1, 66, 0
1, 223624, Note_on_c, 1, 73, 127
1, 223624, Note_on_c, 1, 70, 127
1, 223624, Note_on_c, 1, 54, 127
1, 223782, Note_off_c, 1, 73, 0
1, 223782, Note_off_c, 1, 70, 0
1, 223782, Note_off_c, 1, 54, 0
1, 223784, Note_on_c, 1, 76, 127
1, 223784, Note_on_c, 1, 68, 127
1, 223784, Note_on_c, 1, 56, 127
1, 223942, Note_off_c, 1, 76, 0
1, 223944, Note_on_c, 1, 71, 127
1, 224102, Note_off_c, 1, 68, 0
1, 224102, Note_off_c, 1, 56, 0
1, 224102, Note_off_c, 1, 71, 0
1, 224104, Note_on_c, 1, 73, 127
1, 224104, Note_on_c, 1, 67, 127
1, 224104, Note_on_c, 1, 58, 127
1, 224262, Note_off_c, 1, 73, 0
1, 224262, Note_off_c, 1, 67, 0
1, 224262, Note_off_c, 1, 58, 0
1, 224265, Note_on_c, 1, 75, 127
1, 224265, Note_on_c, 1, 66, 127
1, 224265, Note_on_c, 1, 59, 127
1, 224423, Note_off_c, 1, 75, 0
1, 224425, Note_on_c, 1, 76, 127
1, 224583, Note_off_c, 1, 66, 0
1, 224583, Note_off_c, 1, 59, 0
1, 224583, Note_off_c, 1, 76, 0
1, 224585, Note_on_c, 1, 75, 127
1, 224585, Note_on_c, 1, 60, 127
1, 224585, Note_on_c, 1, 56, 127
1, 224743, Note_off_c, 1, 75, 0
1, 224743, Note_off_c, 1, 60, 0
1, 224743, Note_off_c, 1, 56, 0
1, 224745, Note_on_c, 1, 78, 127
1, 224745, Note_on_c, 1, 61, 127
1, 224745, Note_on_c, 1, 58, 127
1, 224903, Note_off_c, 1, 78, 0
1, 224905, Note_on_c, 1, 73, 127
1, 225063, Note_off_c, 1, 61, 0
1, 225063, Note_off_c, 1, 58, 0
1, 225063, Note_off_c, 1, 73, 0
1, 225065, Note_on_c, 1, 75, 127
1, 225065, Note_on_c, 1, 63, 127
1, 225065, Note_on_c, 1, 60, 127
1, 225223, Note_off_c, 1, 75, 0
1, 225223, Note_off_c, 1, 63, 0
1, 225223, Note_off_c, 1, 60, 0
1, 225225, Note_on_c, 1, 73, 127
1, 225225, Note_on_c, 1, 61, 127
1, 225225, Note_on_c, 1, 76, 127
1, 225383, Note_off_c, 1, 73, 0
1, 225383, Note_off_c, 1, 61, 0
1, 225385, Note_on_c, 1, 75, 127
1, 225385, Note_on_c, 1, 59, 127
1, 225543, Note_off_c, 1, 75, 0
1, 225543, Note_off_c, 1, 59, 0
1, 225545, Note_on_c, 1, 57, 127
1, 225703, Note_off_c, 1, 76, 0
1, 225703, Note_off_c, 1, 57, 0
1, 225705, Note_on_c, 1, 57, 127
1, 225705, Note_on_c, 1, 71, 127
1, 225705, Note_on_c, 1, 77, 127
1, 225784, Note_off_c, 1, 57, 0
1, 225786, Note_on_c, 1, 56, 127
1, 225865, Note_off_c, 1, 71, 0
1, 225865, Note_off_c, 1, 56, 0
1, 225867, Note_on_c, 1, 73, 127
1, 226027, Note_off_c, 1, 73, 0
1, 226188, Note_off_c, 1, 77, 0
1, 226190, Note_on_c, 1, 69, 127
1, 226190, Note_on_c, 1, 54, 127
1, 226190, Note_on_c, 1, 78, 127
1, 226348, Note_off_c, 1, 69, 0
1, 226350, Note_on_c, 1, 76, 127
1, 226508, Note_off_c, 1, 76, 0
1, 226510, Note_on_c, 1, 74, 127
1, 226665, Note_off_c, 1, 54, 0
1, 226668, Note_off_c, 1, 74, 0
1, 226670, Note_on_c, 1, 73, 127
1, 226828, Note_off_c, 1, 73, 0
1, 226830, Note_on_c, 1, 71, 127
1, 226988, Note_off_c, 1, 78, 0
1, 226988, Note_off_c, 1, 71, 0
1, 226990, Note_on_c, 1, 78, 127
1, 226990, Note_on_c, 1, 69, 127
1, 227148, Note_off_c, 1, 78, 0
1, 227148, Note_off_c, 1, 69, 0
1, 227150, Note_on_c, 1, 68, 127
1, 227150, Note_on_c, 1, 77, 127
1, 227308, Note_off_c, 1, 68, 0
1, 227310, Note_on_c, 1, 69, 127
1, 227468, Note_off_c, 1, 77, 0
1, 227468, Note_off_c, 1, 69, 0
1, 227470, Note_on_c, 1, 76, 127
1, 227470, Note_on_c, 1, 68, 127
1, 227628, Note_off_c, 1, 76, 0
1, 227628, Note_off_c, 1, 68, 0
1, 227631, Note_on_c, 1, 71, 127
1, 227631, Note_on_c, 1, 75, 127
1, 227789, Note_off_c, 1, 71, 0
1, 227791, Note_on_c, 1, 66, 127
1, 227949, Note_off_c, 1, 75, 0
1, 227949, Note_off_c, 1, 66, 0
1, 227951, Note_on_c, 1, 74, 127
1, 227951, Note_on_c, 1, 68, 127
1, 228109, Note_off_c, 1, 74, 0
1, 228109, Note_off_c, 1, 68, 0
1, 228111, Note_on_c, 1, 69, 127
1, 228111, Note_on_c, 1, 73, 127
1, 228269, Note_off_c, 1, 69, 0
1, 228271, Note_on_c, 1, 71, 127
1, 228429, Note_off_c, 1, 73, 0
1, 228429, Note_off_c, 1, 71, 0
1, 228431, Note_on_c, 1, 78, 127
1, 228431, Note_on_c, 1, 69, 127
1, 228589, Note_off_c, 1, 78, 0
1, 228589, Note_off_c, 1, 69, 0
1, 228591, Note_on_c, 1, 73, 127
1, 228591, Note_on_c, 1, 77, 127
1, 228749, Note_off_c, 1, 73, 0
1, 228751, Note_on_c, 1, 68, 127
1, 228909, Note_off_c, 1, 77, 0
1, 228909, Note_off_c, 1, 68, 0
1, 228911, Note_on_c, 1, 76, 127
1, 228911, Note_on_c, 1, 70, 127
1, 229069, Note_off_c, 1, 76, 0
1, 229069, Note_off_c, 1, 70, 0
1, 229071, Note_on_c, 1, 56, 127
1, 229071, Note_on_c, 1, 75, 127
1, 229071, Note_on_c, 1, 71, 127
1, 229229, Note_off_c, 1, 56, 0
1, 229231, Note_on_c, 1, 57, 127
1, 229389, Note_off_c, 1, 75, 0
1, 229389, Note_off_c, 1, 57, 0
1, 229391, Note_on_c, 1, 77, 127
1, 229549, Note_off_c, 1, 77, 0
1, 229551, Note_on_c, 1, 54, 127
1, 229551, Note_on_c, 1, 78, 127
1, 229709, Note_off_c, 1, 54, 0
1, 229869, Note_off_c, 1, 71, 0
1, 229871, Note_on_c, 1, 69, 127
1, 230029, Note_off_c, 1, 69, 0
1, 230031, Note_on_c, 1, 61, 127
1, 230031, Note_on_c, 1, 68, 127
1, 230189, Note_off_c, 1, 61, 0
1, 230191, Note_on_c, 1, 59, 127
1, 230349, Note_off_c, 1, 68, 0
1, 230349, Note_off_c, 1, 59, 0
1, 230351, Note_on_c, 1, 72, 127
1, 230509, Note_off_c, 1, 78, 0
1, 230509, Note_off_c, 1, 72, 0
1, 230511, Note_on_c, 1, 56, 127
1, 230511, Note_on_c, 1, 73, 127
1, 230511, Note_on_c, 1, 76, 127
1, 230669, Note_off_c, 1, 56, 0
1, 230671, Note_on_c, 1, 54, 127
1, 230829, Note_off_c, 1, 54, 0
1, 230832, Note_on_c, 1, 52, 127
1, 230989, Note_off_c, 1, 73, 0
1, 230990, Note_off_c, 1, 52, 0
1, 230992, Note_on_c, 1, 51, 127
1, 230992, Note_on_c, 1, 66, 127
1, 231150, Note_off_c, 1, 51, 0
1, 231469, Note_off_c, 1, 76, 0
1, 231472, Note_on_c, 1, 75, 127
1, 231630, Note_off_c, 1, 66, 0
1, 231632, Note_on_c, 1, 64, 127
1, 231632, Note_on_c, 1, 49, 127
1, 231790, Note_off_c, 1, 64, 0
1, 231790, Note_off_c, 1, 49, 0
1, 231952, Note_on_c, 1, 68, 127
1, 232270, Note_off_c, 1, 75, 0
1, 232432, Note_on_c, 1, 72, 127
1, 232590, Note_off_c, 1, 68, 0
1, 232750, Note_off_c, 1, 72, 0
1, 232752, Note_on_c, 1, 71, 127
1, 232752, Note_on_c, 1, 68, 127
1, 232752, Note_on_c, 1, 53, 127
1, 232910, Note_off_c, 1, 71, 0
1, 232910, Note_off_c, 1, 68, 0
1, 232910, Note_off_c, 1, 53, 0
1, 232912, Note_on_c, 1, 61, 127
1, 232912, Note_on_c, 1, 70, 127
1, 232912, Note_on_c, 1, 54, 127
1, 233070, Note_off_c, 1, 61, 0
1, 233072, Note_on_c, 1, 60, 127
1, 233230, Note_off_c, 1, 70, 0
1, 233230, Note_off_c, 1, 60, 0
1, 233232, Note_on_c, 1, 69, 127
1, 233390, Note_off_c, 1, 69, 0
1, 233392, Note_on_c, 1, 78, 127
1, 233392, Note_on_c, 1, 63, 127
1, 233550, Note_off_c, 1, 78, 0
1, 233550, Note_off_c, 1, 63, 0
1, 233552, Note_on_c, 1, 76, 127
1, 233710, Note_off_c, 1, 76, 0
1, 233872, Note_on_c, 1, 72, 127
1, 233872, Note_on_c, 1, 56, 127
1, 234030, Note_off_c, 1, 72, 0
1, 234030, Note_off_c, 1, 56, 0
1, 234033, Note_on_c, 1, 73, 127
1, 234033, Note_on_c, 1, 58, 127
1, 234191, Note_off_c, 1, 73, 0
1, 234191, Note_off_c, 1, 58, 0
1, 234193, Note_on_c, 1, 75, 127
1, 234350, Note_off_c, 1, 54, 0
1, 234351, Note_off_c, 1, 75, 0
1, 234353, Note_on_c, 1, 61, 127
1, 234353, Note_on_c, 1, 68, 127
1, 234353, Note_on_c, 1, 52, 127
1, 234511, Note_off_c, 1, 61, 0
1, 234513, Note_on_c, 1, 63, 127
1, 234671, Note_off_c, 1, 63, 0
1, 234673, Note_on_c, 1, 64, 127
1, 234831, Note_off_c, 1, 68, 0
1, 234831, Note_off_c, 1, 52, 0
1, 234831, Note_off_c, 1, 64, 0
1, 234833, Note_on_c, 1, 66, 127
1, 234833, Note_on_c, 1, 70, 127
1, 234833, Note_on_c, 1, 51, 127
1, 234991, Note_off_c, 1, 66, 0
1, 234993, Note_on_c, 1, 64, 127
1, 235151, Note_off_c, 1, 64, 0
1, 235311, Note_off_c, 1, 70, 0
1, 235311, Note_off_c, 1, 51, 0
1, 235313, Note_on_c, 1, 63, 127
1, 235313, Note_on_c, 1, 72, 127
1, 235313, Note_on_c, 1, 56, 127
1, 235471, Note_off_c, 1, 63, 0
1, 235473, Note_on_c, 1, 68, 127
1, 235631, Note_off_c, 1, 68, 0
1, 235633, Note_on_c, 1, 66, 127
1, 235791, Note_off_c, 1, 72, 0
1, 235791, Note_off_c, 1, 56, 0
1, 235791, Note_off_c, 1, 66, 0
1, 235793, Note_on_c, 1, 64, 127
1, 235793, Note_on_c, 1, 73, 127
1, 235793, Note_on_c, 1, 49, 127
1, 235951, Note_off_c, 1, 64, 0
1, 235953, Note_on_c, 1, 63, 127
1, 236111, Note_off_c, 1, 63, 0
1, 236271, Note_off_c, 1, 73, 0
1, 236271, Note_off_c, 1, 49, 0
1, 236273, Note_on_c, 1, 61, 127
1, 236273, Note_on_c, 1, 54, 127
1, 236273, Note_on_c, 1, 69, 127
1, 236431, Note_off_c, 1, 61, 0
1, 236433, Note_on_c, 1, 66, 127
1, 236591, Note_off_c, 1, 66, 0
1, 236593, Note_on_c, 1, 64, 127
1, 236751, Note_off_c, 1, 54, 0
1, 236751, Note_off_c, 1, 64, 0
1, 236753, Note_on_c, 1, 63, 127
1, 236753, Note_on_c, 1, 47, 127
1, 236911, Note_off_c, 1, 63, 0
1, 237231, Note_off_c, 1, 69, 0
1, 237231, Note_off_c, 1, 47, 0
1, 237234, Note_on_c, 1, 59, 127
1, 237234, Note_on_c, 1, 52, 127
1, 237234, Note_on_c, 1, 68, 127
1, 237392, Note_off_c, 1, 59, 0
1, 237394, Note_on_c, 1, 64, 127
1, 237552, Note_off_c, 1, 64, 0
1, 237554, Note_on_c, 1, 63, 127
1, 237712, Note_off_c, 1, 52, 0
1, 237712, Note_off_c, 1, 63, 0
1, 237714, Note_on_c, 1, 47, 127
1, 237714, Note_on_c, 1, 61, 127
1, 237793, Note_off_c, 1, 47, 0
1, 237795, Note_on_c, 1, 45, 127
1, 237874, Note_off_c, 1, 61, 0
1, 237874, Note_off_c, 1, 45, 0
1, 238197, Note_off_c, 1, 68, 0
1, 238199, Note_on_c, 1, 66, 127
1, 238677, Note_off_c, 1, 66, 0
1, 238679, Note_on_c, 1, 68, 127
1, 238679, Note_on_c, 1, 60, 127
1, 238679, Note_on_c, 1, 44, 127
1, 238837, Note_off_c, 1, 68, 0
1, 238839, Note_on_c, 1, 63, 127
1, 238997, Note_off_c, 1, 63, 0
1, 239157, Note_off_c, 1, 60, 0
1, 239157, Note_off_c, 1, 44, 0
1, 239159, Note_on_c, 1, 61, 127
1, 239159, Note_on_c, 1, 46, 127
1, 239319, Note_on_c, 1, 66, 127
1, 239477, Note_off_c, 1, 66, 0
1, 239479, Note_on_c, 1, 64, 127
1, 239637, Note_off_c, 1, 61, 0
1, 239637, Note_off_c, 1, 46, 0
1, 239637, Note_off_c, 1, 64, 0
1, 239639, Note_on_c, 1, 63, 127
1, 239639, Note_on_c, 1, 48, 127
1, 239799, Note_on_c, 1, 66, 127
1, 239957, Note_off_c, 1, 66, 0
1, 239959, Note_on_c, 1, 69, 127
1, 240117, Note_off_c, 1, 63, 0
1, 240117, Note_off_c, 1, 48, 0
1, 240119, Note_on_c, 1, 60, 127
1, 240119, Note_on_c, 1, 44, 127
1, 240277, Note_off_c, 1, 69, 0
1, 240279, Note_on_c, 1, 68, 127
1, 240437, Note_off_c, 1, 68, 0
1, 240597, Note_off_c, 1, 60, 0
1, 240597, Note_off_c, 1, 44, 0
1, 240600, Note_on_c, 1, 61, 127
1, 240600, Note_on_c, 1, 64, 127
1, 240600, Note_on_c, 1, 49, 127
1, 240758, Note_off_c, 1, 61, 0
1, 240760, Note_on_c, 1, 56, 127
1, 240918, Note_off_c, 1, 56, 0
1, 241078, Note_off_c, 1, 64, 0
1, 241078, Note_off_c, 1, 49, 0
1, 241080, Note_on_c, 1, 66, 127
1, 241080, Note_on_c, 1, 51, 127
1, 241240, Note_on_c, 1, 59, 127
1, 241398, Note_off_c, 1, 59, 0
1, 241400, Note_on_c, 1, 57, 127
1, 241558, Note_off_c, 1, 66, 0
1, 241558, Note_off_c, 1, 51, 0
1, 241558, Note_off_c, 1, 57, 0
1, 241560, Note_on_c, 1, 56, 127
1, 241560, Note_on_c, 1, 52, 127
1, 241560, Note_on_c, 1, 68, 127
1, 241718, Note_off_c, 1, 56, 0
1, 241720, Note_on_c, 1, 59, 127
1, 241878, Note_off_c, 1, 59, 0
1, 241880, Note_on_c, 1, 62, 127
1, 242038, Note_off_c, 1, 52, 0
1, 242040, Note_on_c, 1, 53, 127
1, 242198, Note_off_c, 1, 62, 0
1, 242200, Note_on_c, 1, 61, 127
1, 242358, Note_off_c, 1, 61, 0
1, 242518, Note_off_c, 1, 68, 0
1, 242518, Note_off_c, 1, 53, 0
1, 242520, Note_on_c, 1, 57, 127
1, 242520, Note_on_c, 1, 54, 127
1, 242520, Note_on_c, 1, 78, 127
1, 242678, Note_off_c, 1, 57, 0
1, 242680, Note_on_c, 1, 59, 127
1, 242838, Note_off_c, 1, 59, 0
1, 242840, Note_on_c, 1, 61, 127
1, 242998, Note_off_c, 1, 54, 0
1, 243000, Note_on_c, 1, 50, 127
1, 243158, Note_off_c, 1, 61, 0
1, 243478, Note_off_c, 1, 78, 0
1, 243478, Note_off_c, 1, 50, 0
1, 243480, Note_on_c, 1, 77, 127
1, 243480, Note_on_c, 1, 49, 127
1, 243640, Note_on_c, 1, 58, 127
1, 243798, Note_off_c, 1, 58, 0
1, 243801, Note_on_c, 1, 56, 127
1, 243958, Note_off_c, 1, 77, 0
1, 243958, Note_off_c, 1, 49, 0
1, 243959, Note_off_c, 1, 56, 0
1, 243961, Note_on_c, 1, 54, 127
1, 243961, Note_on_c, 1, 76, 127
1, 243961, Note_on_c, 1, 58, 127
1, 244119, Note_off_c, 1, 54, 0
1, 244121, Note_on_c, 1, 52, 127
1, 244279, Note_off_c, 1, 52, 0
1, 244439, Note_off_c, 1, 76, 0
1, 244439, Note_off_c, 1, 58, 0
1, 244441, Note_on_c, 1, 47, 127
1, 244441, Note_on_c, 1, 75, 127
1, 244441, Note_on_c, 1, 59, 127
1, 244599, Note_off_c, 1, 47, 0
1, 244601, Note_on_c, 1, 56, 127
1, 244759, Note_off_c, 1, 56, 0
1, 244761, Note_on_c, 1, 54, 127
1, 244919, Note_off_c, 1, 75, 0
1, 244919, Note_off_c, 1, 59, 0
1, 244919, Note_off_c, 1, 54, 0
1, 244921, Note_on_c, 1, 53, 127
1, 244921, Note_on_c, 1, 80, 127
1, 244921, Note_on_c, 1, 71, 127
1, 245079, Note_off_c, 1, 53, 0
1, 245081, Note_on_c, 1, 51, 127
1, 245239, Note_off_c, 1, 51, 0
1, 245399, Note_off_c, 1, 80, 0
1, 245399, Note_off_c, 1, 71, 0
1, 245401, Note_on_c, 1, 54, 127
1, 245401, Note_on_c, 1, 73, 127
1, 245401, Note_on_c, 1, 70, 127
1, 245559, Note_off_c, 1, 54, 0
1, 245561, Note_on_c, 1, 56, 127
1, 245719, Note_off_c, 1, 56, 0
1, 245721, Note_on_c, 1, 52, 127
1, 245879, Note_off_c, 1, 73, 0
1, 245879, Note_off_c, 1, 70, 0
1, 245879, Note_off_c, 1, 52, 0
1, 245881, Note_on_c, 1, 51, 127
1, 245881, Note_on_c, 1, 69, 127
1, 245881, Note_on_c, 1, 78, 127
1, 246039, Note_off_c, 1, 51, 0
1, 246041, Note_on_c, 1, 52, 127
1, 246199, Note_off_c, 1, 52, 0
1, 246201, Note_on_c, 1, 49, 127
1, 246359, Note_off_c, 1, 69, 0
1, 246359, Note_off_c, 1, 49, 0
1, 246361, Note_on_c, 1, 48, 127
1, 246361, Note_on_c, 1, 68, 127
1, 246519, Note_off_c, 1, 48, 0
1, 246839, Note_off_c, 1, 78, 0
1, 246839, Note_off_c, 1, 68, 0
1, 246841, Note_on_c, 1, 52, 127
1, 246841, Note_on_c, 1, 76, 127
1, 246841, Note_on_c, 1, 73, 127
1, 246999, Note_off_c, 1, 52, 0
1, 247002, Note_on_c, 1, 51, 127
1, 247160, Note_off_c, 1, 51, 0
1, 247162, Note_on_c, 1, 49, 127
1, 247319, Note_off_c, 1, 76, 0
1, 247320, Note_off_c, 1, 49, 0
1, 247322, Note_on_c, 1, 56, 127
1, 247322, Note_on_c, 1, 75, 127
1, 247479, Note_off_c, 1, 73, 0
1, 247482, Note_on_c, 1, 71, 127
1, 247640, Note_off_c, 1, 56, 0
1, 247640, Note_off_c, 1, 71, 0
1, 247642, Note_on_c, 1, 70, 127
1, 247800, Note_off_c, 1, 75, 0
1, 247800, Note_off_c, 1, 70, 0
1, 247802, Note_on_c, 1, 71, 127
1, 247802, Note_on_c, 1, 56, 127
1, 247802, Note_on_c, 1, 76, 127
1, 247960, Note_off_c, 1, 71, 0
1, 247962, Note_on_c, 1, 73, 127
1, 248120, Note_off_c, 1, 73, 0
1, 248280, Note_off_c, 1, 56, 0
1, 248282, Note_on_c, 1, 70, 127
1, 248282, Note_on_c, 1, 55, 127
1, 248440, Note_off_c, 1, 70, 0
1, 248760, Note_off_c, 1, 76, 0
1, 248760, Note_off_c, 1, 55, 0
1, 248762, Note_on_c, 1, 71, 127
1, 248762, Note_on_c, 1, 54, 127
1, 248762, Note_on_c, 1, 75, 127
1, 248920, Note_off_c, 1, 71, 0
1, 248922, Note_on_c, 1, 73, 127
1, 249080, Note_off_c, 1, 73, 0
1, 249082, Note_on_c, 1, 70, 127
1, 249240, Note_off_c, 1, 54, 0
1, 249240, Note_off_c, 1, 70, 0
1, 249242, Note_on_c, 1, 53, 127
1, 249242, Note_on_c, 1, 68, 127
1, 249400, Note_off_c, 1, 75, 0
1, 249562, Note_on_c, 1, 72, 127
1, 249720, Note_off_c, 1, 53, 0
1, 249720, Note_off_c, 1, 72, 0
1, 249722, Note_on_c, 1, 58, 127
1, 250042, Note_on_c, 1, 76, 127
1, 250200, Note_off_c, 1, 68, 0
1, 250200, Note_off_c, 1, 58, 0
1, 250203, Note_on_c, 1, 67, 127
1, 250203, Note_on_c, 1, 51, 127
1, 250360, Note_off_c, 1, 76, 0
1, 250681, Note_off_c, 1, 67, 0
1, 250841, Note_off_c, 1, 51, 0
1, 250843, Note_on_c, 1, 52, 127
1, 251001, Note_off_c, 1, 52, 0
1, 251163, Note_on_c, 1, 49, 127
1, 251321, Note_off_c, 1, 49, 0
1, 251323, Note_on_c, 1, 47, 127
1, 251481, Note_off_c, 1, 47, 0
1, 251643, Note_on_c, 1, 46, 127
1, 251801, Note_off_c, 1, 46, 0
1, 252123, Note_on_c, 1, 75, 127
1, 252123, Note_on_c, 1, 47, 127
1, 252123, Note_on_c, 1, 68, 127
1, 252281, Note_off_c, 1, 75, 0
1, 252281, Note_off_c, 1, 47, 0
1, 252283, Note_on_c, 1, 73, 127
1, 252283, Note_on_c, 1, 46, 127
1, 252441, Note_off_c, 1, 73, 0
1, 252441, Note_off_c, 1, 46, 0
1, 252603, Note_on_c, 1, 71, 127
1, 252603, Note_on_c, 1, 44, 127
1, 252761, Note_off_c, 1, 71, 0
1, 252761, Note_off_c, 1, 44, 0
1, 252763, Note_on_c, 1, 76, 127
1, 252763, Note_on_c, 1, 49, 127
1, 252921, Note_off_c, 1, 76, 0
1, 252921, Note_off_c, 1, 49, 0
1, 253561, Note_off_c, 1, 68, 0
1, 253564, Note_on_c, 1, 70, 127
1, 253564, Note_on_c, 1, 51, 127
1, 253564, Note_on_c, 1, 66, 127
1, 253722, Note_off_c, 1, 70, 0
1, 253724, Note_on_c, 1, 75, 127
1, 253882, Note_off_c, 1, 75, 0
1, 253884, Note_on_c, 1, 73, 127
1, 254042, Note_off_c, 1, 51, 0
1, 254042, Note_off_c, 1, 73, 0
1, 254044, Note_on_c, 1, 72, 127
1, 254044, Note_on_c, 1, 44, 127
1, 254202, Note_off_c, 1, 72, 0
1, 254364, Note_on_c, 1, 68, 127
1, 254522, Note_off_c, 1, 66, 0
1, 254522, Note_off_c, 1, 68, 0
1, 254524, Note_on_c, 1, 64, 127
1, 254682, Note_off_c, 1, 64, 0
1, 254684, Note_on_c, 1, 63, 127
1, 254842, Note_off_c, 1, 63, 0
1, 254844, Note_on_c, 1, 61, 127
1, 255002, Note_off_c, 1, 44, 0
1, 255002, Note_off_c, 1, 61, 0
1, 255004, Note_on_c, 1, 56, 127
1, 255162, Note_off_c, 1, 56, 0
1, 255164, Note_on_c, 1, 54, 127
1, 255322, Note_off_c, 1, 54, 0
1, 255484, Note_on_c, 1, 71, 127
1, 255964, Note_on_c, 1, 53, 127
1, 256122, Note_off_c, 1, 53, 0
1, 256284, Note_on_c, 1, 49, 127
1, 256442, Note_off_c, 1, 71, 0
1, 256442, Note_off_c, 1, 49, 0
1, 256444, Note_on_c, 1, 69, 127
1, 256602, Note_off_c, 1, 69, 0
1, 256925, Note_on_c, 1, 59, 127
1, 257083, Note_off_c, 1, 59, 0
1, 257085, Note_on_c, 1, 57, 127
1, 257243, Note_off_c, 1, 57, 0
1, 257405, Note_on_c, 1, 52, 127
1, 257885, Note_on_c, 1, 58, 127
1, 258043, Note_off_c, 1, 58, 0
1, 258363, Note_off_c, 1, 52, 0
1, 258685, Note_on_c, 1, 47, 127
1, 258843, Note_off_c, 1, 47, 0
1, 259325, Note_on_c, 1, 61, 127
1, 259325, Note_on_c, 1, 58, 127
1, 259325, Note_on_c, 1, 54, 127
1, 259483, Note_off_c, 1, 61, 0
1, 259485, Note_on_c, 1, 66, 127
1, 259643, Note_off_c, 1, 66, 0
1, 259645, Note_on_c, 1, 64, 127
1, 259803, Note_off_c, 1, 58, 0
1, 259803, Note_off_c, 1, 54, 0
1, 259803, Note_off_c, 1, 64, 0
1, 259806, Note_on_c, 1, 63, 127
1, 259806, Note_on_c, 1, 47, 127
1, 259806, Note_on_c, 1, 59, 127
1, 259964, Note_off_c, 1, 63, 0
1, 259966, Note_on_c, 1, 66, 127
1, 260124, Note_off_c, 1, 66, 0
1, 260126, Note_on_c, 1, 71, 127
1, 260281, Note_off_c, 1, 47, 0
1, 260284, Note_off_c, 1, 59, 0
1, 260286, Note_on_c, 1, 61, 127
1, 260444, Note_off_c, 1, 71, 0
1, 260446, Note_on_c, 1, 69, 127
1, 260604, Note_off_c, 1, 69, 0
1, 260606, Note_on_c, 1, 68, 127
1, 260764, Note_off_c, 1, 61, 0
1, 260764, Note_off_c, 1, 68, 0
1, 260766, Note_on_c, 1, 66, 127
1, 260766, Note_on_c, 1, 63, 127
1, 260766, Note_on_c, 1, 57, 127
1, 260924, Note_off_c, 1, 66, 0
1, 260926, Note_on_c, 1, 77, 127
1, 261084, Note_off_c, 1, 77, 0
1, 261086, Note_on_c, 1, 78, 127
1, 261244, Note_off_c, 1, 63, 0
1, 261244, Note_off_c, 1, 57, 0
1, 261244, Note_off_c, 1, 78, 0
1, 261246, Note_on_c, 1, 80, 127
1, 261246, Note_on_c, 1, 65, 127
1, 261246, Note_on_c, 1, 56, 127
1, 261404, Note_off_c, 1, 80, 0
1, 261406, Note_on_c, 1, 73, 127
1, 261564, Note_off_c, 1, 73, 0
1, 261566, Note_on_c, 1, 71, 127
1, 261724, Note_off_c, 1, 65, 0
1, 261724, Note_off_c, 1, 56, 0
1, 261724, Note_off_c, 1, 71, 0
1, 261726, Note_on_c, 1, 66, 127
1, 261726, Note_on_c, 1, 54, 127
1, 261726, Note_on_c, 1, 69, 127
1, 261884, Note_off_c, 1, 66, 0
1, 261886, Note_on_c, 1, 61, 127
1, 262044, Note_off_c, 1, 61, 0
1, 262204, Note_off_c, 1, 54, 0
1, 262206, Note_on_c, 1, 56, 127
1, 262366, Note_on_c, 1, 64, 127
1, 262445, Note_off_c, 1, 69, 0
1, 262526, Note_off_c, 1, 64, 0
1, 262528, Note_on_c, 1, 78, 127
1, 262528, Note_on_c, 1, 62, 127
1, 262686, Note_off_c, 1, 56, 0
1, 262686, Note_off_c, 1, 78, 0
1, 262686, Note_off_c, 1, 62, 0
1, 262688, Note_on_c, 1, 61, 127
1, 262688, Note_on_c, 1, 76, 127
1, 262688, Note_on_c, 1, 58, 127
1, 262846, Note_off_c, 1, 61, 0
1, 262848, Note_on_c, 1, 72, 127
1, 263006, Note_off_c, 1, 72, 0
1, 263008, Note_on_c, 1, 73, 127
1, 263166, Note_off_c, 1, 76, 0
1, 263166, Note_off_c, 1, 58, 0
1, 263166, Note_off_c, 1, 73, 0
1, 263168, Note_on_c, 1, 60, 127
1, 263168, Note_on_c, 1, 75, 127
1, 263328, Note_on_c, 1, 68, 127
1, 263486, Note_off_c, 1, 68, 0
1, 263488, Note_on_c, 1, 66, 127
1, 263646, Note_off_c, 1, 60, 0
1, 263646, Note_off_c, 1, 66, 0
1, 263648, Note_on_c, 1, 64, 127
1, 263648, Note_on_c, 1, 61, 127
1, 263806, Note_off_c, 1, 75, 0
1, 263808, Note_on_c, 1, 73, 127
1, 263966, Note_off_c, 1, 64, 0
1, 263966, Note_off_c, 1, 73, 0
1, 263968, Note_on_c, 1, 56, 127
1, 264123, Note_off_c, 1, 61, 0
1, 264126, Note_off_c, 1, 56, 0
1, 264129, Note_on_c, 1, 76, 127
1, 264129, Note_on_c, 1, 61, 127
1, 264289, Note_on_c, 1, 69, 127
1, 264447, Note_off_c, 1, 69, 0
1, 264449, Note_on_c, 1, 68, 127
1, 264449, Note_on_c, 1, 49, 127
1, 264604, Note_off_c, 1, 76, 0
1, 264607, Note_off_c, 1, 68, 0
1, 264607, Note_off_c, 1, 49, 0
1, 264609, Note_on_c, 1, 66, 127
1, 264609, Note_on_c, 1, 51, 127
1, 264767, Note_off_c, 1, 61, 0
1, 264767, Note_off_c, 1, 66, 0
1, 264769, Note_on_c, 1, 75, 127
1, 264769, Note_on_c, 1, 59, 127
1, 264927, Note_off_c, 1, 51, 0
1, 264927, Note_off_c, 1, 75, 0
1, 264927, Note_off_c, 1, 59, 0
1, 264929, Note_on_c, 1, 76, 127
1, 264929, Note_on_c, 1, 61, 127
1, 265087, Note_off_c, 1, 76, 0
1, 265087, Note_off_c, 1, 61, 0
1, 265089, Note_on_c, 1, 63, 127
1, 265089, Note_on_c, 1, 78, 127
1, 265247, Note_off_c, 1, 63, 0
1, 265249, Note_on_c, 1, 71, 127
1, 265249, Note_on_c, 1, 64, 127
1, 265407, Note_off_c, 1, 78, 0
1, 265407, Note_off_c, 1, 71, 0
1, 265407, Note_off_c, 1, 64, 0
1, 265409, Note_on_c, 1, 69, 127
1, 265409, Note_on_c, 1, 66, 127
1, 265409, Note_on_c, 1, 63, 127
1, 265567, Note_off_c, 1, 69, 0
1, 265567, Note_off_c, 1, 66, 0
1, 265567, Note_off_c, 1, 63, 0
1, 265569, Note_on_c, 1, 68, 127
1, 265569, Note_on_c, 1, 64, 127
1, 265727, Note_off_c, 1, 68, 0
1, 265729, Note_on_c, 1, 80, 127
1, 265729, Note_on_c, 1, 52, 127
1, 265887, Note_off_c, 1, 64, 0
1, 265887, Note_off_c, 1, 80, 0
1, 265887, Note_off_c, 1, 52, 0
1, 265889, Note_on_c, 1, 81, 127
1, 265889, Note_on_c, 1, 54, 127
1, 266047, Note_off_c, 1, 81, 0
1, 266047, Note_off_c, 1, 54, 0
1, 266049, Note_on_c, 1, 83, 127
1, 266049, Note_on_c, 1, 56, 127
1, 266207, Note_off_c, 1, 83, 0
1, 266207, Note_off_c, 1, 56, 0
1, 266209, Note_on_c, 1, 76, 127
1, 266209, Note_on_c, 1, 54, 127
1, 266367, Note_off_c, 1, 76, 0
1, 266367, Note_off_c, 1, 54, 0
1, 266369, Note_on_c, 1, 74, 127
1, 266369, Note_on_c, 1, 56, 127
1, 266527, Note_off_c, 1, 74, 0
1, 266527, Note_off_c, 1, 56, 0
1, 266529, Note_on_c, 1, 57, 127
1, 266529, Note_on_c, 1, 73, 127
1, 266687, Note_off_c, 1, 57, 0
1, 266689, Note_on_c, 1, 65, 127
1, 266689, Note_on_c, 1, 56, 127
1, 266847, Note_off_c, 1, 65, 0
1, 266847, Note_off_c, 1, 56, 0
1, 266849, Note_on_c, 1, 66, 127
1, 266849, Note_on_c, 1, 54, 127
1, 267007, Note_off_c, 1, 66, 0
1, 267007, Note_off_c, 1, 54, 0
1, 267009, Note_on_c, 1, 68, 127
1, 267009, Note_on_c, 1, 53, 127
1, 267167, Note_off_c, 1, 68, 0
1, 267167, Note_off_c, 1, 53, 0
1, 267169, Note_on_c, 1, 61, 127
1, 267169, Note_on_c, 1, 51, 127
1, 267327, Note_off_c, 1, 61, 0
1, 267327, Note_off_c, 1, 51, 0
1, 267330, Note_on_c, 1, 59, 127
1, 267488, Note_off_c, 1, 59, 0
1, 267647, Note_off_c, 1, 73, 0
1, 267650, Note_on_c, 1, 72, 127
1, 267808, Note_off_c, 1, 72, 0
1, 267970, Note_on_c, 1, 75, 127
1, 267970, Note_on_c, 1, 60, 127
1, 268128, Note_off_c, 1, 75, 0
1, 268448, Note_off_c, 1, 60, 0
1, 268450, Note_on_c, 1, 68, 127
1, 268450, Note_on_c, 1, 53, 127
1, 268450, Note_on_c, 1, 61, 127
1, 268608, Note_off_c, 1, 68, 0
1, 268610, Note_on_c, 1, 70, 127
1, 268768, Note_off_c, 1, 70, 0
1, 268770, Note_on_c, 1, 72, 127
1, 268928, Note_off_c, 1, 53, 0
1, 268928, Note_off_c, 1, 72, 0
1, 268930, Note_on_c, 1, 73, 127
1, 268930, Note_on_c, 1, 52, 127
1, 269088, Note_off_c, 1, 73, 0
1, 269090, Note_on_c, 1, 75, 127
1, 269248, Note_off_c, 1, 75, 0
1, 269250, Note_on_c, 1, 76, 127
1, 269408, Note_off_c, 1, 52, 0
1, 269408, Note_off_c, 1, 76, 0
1, 269410, Note_on_c, 1, 78, 127
1, 269410, Note_on_c, 1, 51, 127
1, 269568, Note_off_c, 1, 78, 0
1, 269888, Note_off_c, 1, 61, 0
1, 269888, Note_off_c, 1, 51, 0
1, 269890, Note_on_c, 1, 75, 127
1, 269890, Note_on_c, 1, 60, 127
1, 269890, Note_on_c, 1, 56, 127
1, 270048, Note_off_c, 1, 75, 0
1, 270050, Note_on_c, 1, 80, 127
1, 270208, Note_off_c, 1, 80, 0
1, 270210, Note_on_c, 1, 78, 127
1, 270368, Note_off_c, 1, 60, 0
1, 270368, Note_off_c, 1, 56, 0
1, 270368, Note_off_c, 1, 78, 0
1, 270370, Note_on_c, 1, 61, 127
1, 270370, Note_on_c, 1, 76, 127
1, 270370, Note_on_c, 1, 49, 127
1, 270528, Note_off_c, 1, 61, 0
1, 270531, Note_on_c, 1, 64, 127
1, 270689, Note_off_c, 1, 64, 0
1, 270691, Note_on_c, 1, 69, 127
1, 270848, Note_off_c, 1, 76, 0
1, 270848, Note_off_c, 1, 49, 0
1, 270851, Note_on_c, 1, 75, 127
1, 270851, Note_on_c, 1, 47, 127
1, 271009, Note_off_c, 1, 69, 0
1, 271011, Note_on_c, 1, 67, 127
1, 271169, Note_off_c, 1, 67, 0
1, 271171, Note_on_c, 1, 68, 127
1, 271329, Note_off_c, 1, 75, 0
1, 271329, Note_off_c, 1, 47, 0
1, 271331, Note_on_c, 1, 73, 127
1, 271331, Note_on_c, 1, 45, 127
1, 271489, Note_off_c, 1, 68, 0
1, 271491, Note_on_c, 1, 66, 127
1, 271649, Note_off_c, 1, 66, 0
1, 271651, Note_on_c, 1, 65, 127
1, 271809, Note_off_c, 1, 65, 0
1, 271969, Note_off_c, 1, 73, 0
1, 272050, Note_off_c, 1, 45, 0
1, 272133, Note_on_c, 1, 46, 127
1, 272291, Note_off_c, 1, 46, 0
1, 272453, Note_on_c, 1, 63, 127
1, 272611, Note_off_c, 1, 63, 0
1, 273253, Note_on_c, 1, 71, 127
1, 273253, Note_on_c, 1, 44, 127
1, 273891, Note_off_c, 1, 71, 0
1, 273972, Note_off_c, 1, 44, 0
1, 274055, Note_on_c, 1, 74, 127
1, 274055, Note_on_c, 1, 56, 127
1, 274213, Note_off_c, 1, 74, 0
1, 274213, Note_off_c, 1, 56, 0
1, 274215, Note_on_c, 1, 57, 127
1, 274373, Note_off_c, 1, 57, 0
1, 274695, Note_on_c, 1, 66, 127
1, 274695, Note_on_c, 1, 59, 127
1, 274695, Note_on_c, 1, 63, 127
1, 274853, Note_off_c, 1, 66, 0
1, 274853, Note_off_c, 1, 59, 0
1, 274855, Note_on_c, 1, 71, 127
1, 274855, Note_on_c, 1, 57, 127
1, 275013, Note_off_c, 1, 71, 0
1, 275013, Note_off_c, 1, 57, 0
1, 275015, Note_on_c, 1, 69, 127
1, 275173, Note_off_c, 1, 63, 0
1, 275173, Note_off_c, 1, 69, 0
1, 275175, Note_on_c, 1, 68, 127
1, 275175, Note_on_c, 1, 62, 127
1, 275175, Note_on_c, 1, 52, 127
1, 275333, Note_off_c, 1, 68, 0
1, 275335, Note_on_c, 1, 66, 127
1, 275493, Note_off_c, 1, 66, 0
1, 275653, Note_off_c, 1, 62, 0
1, 275653, Note_off_c, 1, 52, 0
1, 275655, Note_on_c, 1, 64, 127
1, 275655, Note_on_c, 1, 61, 127
1, 275655, Note_on_c, 1, 57, 127
1, 275813, Note_off_c, 1, 64, 0
1, 275815, Note_on_c, 1, 69, 127
1, 275973, Note_off_c, 1, 69, 0
1, 275976, Note_on_c, 1, 68, 127
1, 276133, Note_off_c, 1, 61, 0
1, 276133, Note_off_c, 1, 57, 0
1, 276134, Note_off_c, 1, 68, 0
1, 276136, Note_on_c, 1, 66, 127
1, 276136, Note_on_c, 1, 60, 127
1, 276136, Note_on_c, 1, 51, 127
1, 276294, Note_off_c, 1, 66, 0
1, 276296, Note_on_c, 1, 64, 127
1, 276454, Note_off_c, 1, 64, 0
1, 276614, Note_off_c, 1, 60, 0
1, 276614, Note_off_c, 1, 51, 0
1, 276616, Note_on_c, 1, 68, 127
1, 276616, Note_on_c, 1, 59, 127
1, 276616, Note_on_c, 1, 52, 127
1, 276774, Note_off_c, 1, 68, 0
1, 276776, Note_on_c, 1, 66, 127
1, 276934, Note_off_c, 1, 66, 0
1, 277094, Note_off_c, 1, 59, 0
1, 277094, Note_off_c, 1, 52, 0
1, 277096, Note_on_c, 1, 61, 127
1, 277096, Note_on_c, 1, 45, 127
1, 277096, Note_on_c, 1, 69, 127
1, 277254, Note_off_c, 1, 61, 0
1, 277254, Note_off_c, 1, 45, 0
1, 277256, Note_on_c, 1, 62, 127
1, 277256, Note_on_c, 1, 47, 127
1, 277414, Note_off_c, 1, 62, 0
1, 277414, Note_off_c, 1, 47, 0
1, 277416, Note_on_c, 1, 49, 127
1, 277574, Note_off_c, 1, 49, 0
1, 277576, Note_on_c, 1, 59, 127
1, 277576, Note_on_c, 1, 50, 127
1, 277734, Note_off_c, 1, 59, 0
1, 277734, Note_off_c, 1, 50, 0
1, 277736, Note_on_c, 1, 52, 127
1, 277894, Note_off_c, 1, 52, 0
1, 278056, Note_on_c, 1, 64, 127
1, 278214, Note_off_c, 1, 64, 0
1, 278534, Note_off_c, 1, 69, 0
1, 278536, Note_on_c, 1, 59, 127
1, 278536, Note_on_c, 1, 68, 127
1, 278536, Note_on_c, 1, 52, 127
1, 278694, Note_off_c, 1, 59, 0
1, 278696, Note_on_c, 1, 57, 127
1, 278854, Note_off_c, 1, 57, 0
1, 278856, Note_on_c, 1, 56, 127
1, 279014, Note_off_c, 1, 68, 0
1, 279014, Note_off_c, 1, 56, 0
1, 279016, Note_on_c, 1, 69, 127
1, 279016, Note_on_c, 1, 54, 127
1, 279174, Note_off_c, 1, 69, 0
1, 279174, Note_off_c, 1, 54, 0
1, 279177, Note_on_c, 1, 73, 127
1, 279335, Note_off_c, 1, 73, 0
1, 279337, Note_on_c, 1, 71, 127
1, 279494, Note_off_c, 1, 52, 0
1, 279495, Note_off_c, 1, 71, 0
1, 279497, Note_on_c, 1, 73, 127
1, 279497, Note_on_c, 1, 57, 127
1, 279497, Note_on_c, 1, 51, 127
1, 279655, Note_off_c, 1, 73, 0
1, 279655, Note_off_c, 1, 57, 0
1, 279657, Note_on_c, 1, 71, 127
1, 279657, Note_on_c, 1, 52, 127
1, 279815, Note_off_c, 1, 71, 0
1, 279815, Note_off_c, 1, 52, 0
1, 279817, Note_on_c, 1, 69, 127
1, 279817, Note_on_c, 1, 54, 127
1, 279975, Note_off_c, 1, 51, 0
1, 279975, Note_off_c, 1, 69, 0
1, 279975, Note_off_c, 1, 54, 0
1, 279977, Note_on_c, 1, 71, 127
1, 279977, Note_on_c, 1, 56, 127
1, 279977, Note_on_c, 1, 50, 127
1, 280135, Note_off_c, 1, 71, 0
1, 280135, Note_off_c, 1, 56, 0
1, 280137, Note_on_c, 1, 65, 127
1, 280137, Note_on_c, 1, 57, 127
1, 280295, Note_off_c, 1, 65, 0
1, 280295, Note_off_c, 1, 57, 0
1, 280297, Note_on_c, 1, 66, 127
1, 280455, Note_off_c, 1, 50, 0
1, 280455, Note_off_c, 1, 66, 0
1, 280457, Note_on_c, 1, 65, 127
1, 280457, Note_on_c, 1, 59, 127
1, 280457, Note_on_c, 1, 49, 127
1, 280615, Note_off_c, 1, 65, 0
1, 280615, Note_off_c, 1, 59, 0
1, 280617, Note_on_c, 1, 54, 127
1, 280775, Note_off_c, 1, 54, 0
1, 280777, Note_on_c, 1, 56, 127
1, 280935, Note_off_c, 1, 56, 0
1, 280937, Note_on_c, 1, 57, 127
1, 280937, Note_on_c, 1, 73, 127
1, 281095, Note_off_c, 1, 49, 0
1, 281097, Note_on_c, 1, 48, 127
1, 281255, Note_off_c, 1, 48, 0
1, 281415, Note_off_c, 1, 57, 0
1, 281417, Note_on_c, 1, 51, 127
1, 281417, Note_on_c, 1, 69, 127
1, 281575, Note_off_c, 1, 51, 0
1, 281895, Note_off_c, 1, 73, 0
1, 281897, Note_on_c, 1, 44, 127
1, 281897, Note_on_c, 1, 72, 127
1, 282055, Note_off_c, 1, 69, 0
1, 282055, Note_off_c, 1, 44, 0
1, 282057, Note_on_c, 1, 68, 127
1, 282057, Note_on_c, 1, 46, 127
1, 282215, Note_off_c, 1, 68, 0
1, 282215, Note_off_c, 1, 46, 0
1, 282217, Note_on_c, 1, 66, 127
1, 282375, Note_off_c, 1, 72, 0
1, 282375, Note_off_c, 1, 66, 0
1, 282378, Note_on_c, 1, 65, 127
1, 282378, Note_on_c, 1, 49, 127
1, 282378, Note_on_c, 1, 71, 127
1, 282536, Note_off_c, 1, 65, 0
1, 282536, Note_off_c, 1, 49, 0
1, 282538, Note_on_c, 1, 66, 127
1, 282538, Note_on_c, 1, 51, 127
1, 282696, Note_off_c, 1, 66, 0
1, 282696, Note_off_c, 1, 51, 0
1, 282698, Note_on_c, 1, 68, 127
1, 282698, Note_on_c, 1, 53, 127
1, 282856, Note_off_c, 1, 71, 0
1, 282856, Note_off_c, 1, 68, 0
1, 282856, Note_off_c, 1, 53, 0
1, 282858, Note_on_c, 1, 54, 127
1, 282858, Note_on_c, 1, 70, 127
1, 282858, Note_on_c, 1, 61, 127
1, 283016, Note_off_c, 1, 54, 0
1, 283018, Note_on_c, 1, 52, 127
1, 283176, Note_off_c, 1, 52, 0
1, 283336, Note_off_c, 1, 70, 0
1, 283336, Note_off_c, 1, 61, 0
1, 283338, Note_on_c, 1, 51, 127
1, 283338, Note_on_c, 1, 75, 127
1, 283338, Note_on_c, 1, 60, 127
1, 283496, Note_off_c, 1, 51, 0
1, 283498, Note_on_c, 1, 56, 127
1, 283656, Note_off_c, 1, 56, 0
1, 283658, Note_on_c, 1, 54, 127
1, 283816, Note_off_c, 1, 75, 0
1, 283816, Note_off_c, 1, 60, 0
1, 283816, Note_off_c, 1, 54, 0
1, 283818, Note_on_c, 1, 52, 127
1, 283818, Note_on_c, 1, 68, 127
1, 283976, Note_off_c, 1, 52, 0
1, 283978, Note_on_c, 1, 66, 127
1, 283978, Note_on_c, 1, 51, 127
1, 284136, Note_off_c, 1, 68, 0
1, 284136, Note_off_c, 1, 66, 0
1, 284136, Note_off_c, 1, 51, 0
1, 284138, Note_on_c, 1, 68, 127
1, 284138, Note_on_c, 1, 52, 127
1, 284296, Note_off_c, 1, 68, 0
1, 284296, Note_off_c, 1, 52, 0
1, 284298, Note_on_c, 1, 64, 127
1, 284298, Note_on_c, 1, 49, 127
1, 284298, Note_on_c, 1, 73, 127
1, 284456, Note_off_c, 1, 64, 0
1, 284456, Note_off_c, 1, 49, 0
1, 284458, Note_on_c, 1, 69, 127
1, 284458, Note_on_c, 1, 54, 127
1, 284616, Note_off_c, 1, 69, 0
1, 284616, Note_off_c, 1, 54, 0
1, 284618, Note_on_c, 1, 68, 127
1, 284618, Note_on_c, 1, 52, 127
1, 284776, Note_off_c, 1, 68, 0
1, 284776, Note_off_c, 1, 52, 0
1, 284778, Note_on_c, 1, 66, 127
1, 284778, Note_on_c, 1, 51, 127
1, 284936, Note_off_c, 1, 66, 0
1, 285256, Note_off_c, 1, 73, 0
1, 285256, Note_off_c, 1, 51, 0
1, 285258, Note_on_c, 1, 63, 127
1, 285258, Note_on_c, 1, 72, 127
1, 285258, Note_on_c, 1, 56, 127
1, 285416, Note_off_c, 1, 63, 0
1, 285418, Note_on_c, 1, 68, 127
1, 285576, Note_off_c, 1, 68, 0
1, 285579, Note_on_c, 1, 66, 127
1, 285736, Note_off_c, 1, 72, 0
1, 285736, Note_off_c, 1, 56, 0
1, 285737, Note_off_c, 1, 66, 0
1, 285739, Note_on_c, 1, 64, 127
1, 285739, Note_on_c, 1, 73, 127
1, 285739, Note_on_c, 1, 49, 127
1, 285897, Note_off_c, 1, 64, 0
1, 285899, Note_on_c, 1, 63, 127
1, 286057, Note_off_c, 1, 63, 0
1, 286217, Note_off_c, 1, 73, 0
1, 286217, Note_off_c, 1, 49, 0
1, 286219, Note_on_c, 1, 69, 127
1, 286219, Note_on_c, 1, 61, 127
1, 286219, Note_on_c, 1, 54, 127
1, 286377, Note_off_c, 1, 69, 0
1, 286377, Note_off_c, 1, 61, 0
1, 286379, Note_on_c, 1, 68, 127
1, 286379, Note_on_c, 1, 66, 127
1, 286537, Note_off_c, 1, 68, 0
1, 286537, Note_off_c, 1, 66, 0
1, 286539, Note_on_c, 1, 64, 127
1, 286697, Note_off_c, 1, 54, 0
1, 286697, Note_off_c, 1, 64, 0
1, 286699, Note_on_c, 1, 66, 127
1, 286699, Note_on_c, 1, 63, 127
1, 286699, Note_on_c, 1, 59, 127
1, 286857, Note_off_c, 1, 66, 0
1, 286857, Note_off_c, 1, 63, 0
1, 286859, Note_on_c, 1, 71, 127
1, 286859, Note_on_c, 1, 61, 127
1, 287017, Note_off_c, 1, 71, 0
1, 287017, Note_off_c, 1, 61, 0
1, 287019, Note_on_c, 1, 69, 127
1, 287177, Note_off_c, 1, 59, 0
1, 287177, Note_off_c, 1, 69, 0
1, 287179, Note_on_c, 1, 68, 127
1, 287179, Note_on_c, 1, 59, 127
1, 287179, Note_on_c, 1, 52, 127
1, 287337, Note_off_c, 1, 68, 0
1, 287337, Note_off_c, 1, 59, 0
1, 287339, Note_on_c, 1, 66, 127
1, 287339, Note_on_c, 1, 64, 127
1, 287497, Note_off_c, 1, 66, 0
1, 287497, Note_off_c, 1, 64, 0
1, 287499, Note_on_c, 1, 62, 127
1, 287657, Note_off_c, 1, 52, 0
1, 287657, Note_off_c, 1, 62, 0
1, 287659, Note_on_c, 1, 64, 127
1, 287659, Note_on_c, 1, 57, 127
1, 287659, Note_on_c, 1, 61, 127
1, 287817, Note_off_c, 1, 64, 0
1, 287819, Note_on_c, 1, 69, 127
1, 287977, Note_off_c, 1, 69, 0
1, 287979, Note_on_c, 1, 68, 127
1, 288137, Note_off_c, 1, 57, 0
1, 288137, Note_off_c, 1, 68, 0
1, 288139, Note_on_c, 1, 51, 127
1, 288139, Note_on_c, 1, 66, 127
1, 288297, Note_off_c, 1, 61, 0
1, 288299, Note_on_c, 1, 60, 127
1, 288457, Note_off_c, 1, 60, 0
1, 288459, Note_on_c, 1, 58, 127
1, 288617, Note_off_c, 1, 51, 0
1, 288617, Note_off_c, 1, 58, 0
1, 288619, Note_on_c, 1, 56, 127
1, 288777, Note_off_c, 1, 66, 0
1, 288940, Note_on_c, 1, 63, 127
1, 289098, Note_off_c, 1, 63, 0
1, 289420, Note_on_c, 1, 73, 127
1, 289738, Note_off_c, 1, 73, 0
1, 289740, Note_on_c, 1, 72, 127
1, 289898, Note_off_c, 1, 72, 0
1, 289900, Note_on_c, 1, 70, 127
1, 290058, Note_off_c, 1, 70, 0
1, 290220, Note_on_c, 1, 75, 127
1, 290378, Note_off_c, 1, 75, 0
1, 290380, Note_on_c, 1, 80, 127
1, 290698, Note_off_c, 1, 80, 0
1, 290700, Note_on_c, 1, 78, 127
1, 290858, Note_off_c, 1, 78, 0
1, 290860, Note_on_c, 1, 76, 127
1, 291018, Note_off_c, 1, 76, 0
1, 291020, Note_on_c, 1, 67, 127
1, 291498, Note_off_c, 1, 67, 0
1, 291818, Note_off_c, 1, 56, 0
1, 291820, Note_on_c, 1, 54, 127
1, 291978, Note_off_c, 1, 54, 0
1, 291981, Note_on_c, 1, 68, 127
1, 291981, Note_on_c, 1, 52, 127
1, 292141, Note_on_c, 1, 80, 127
1, 292299, Note_off_c, 1, 68, 0
1, 292299, Note_off_c, 1, 52, 0
1, 292299, Note_off_c, 1, 80, 0
1, 292301, Note_on_c, 1, 78, 127
1, 292301, Note_on_c, 1, 51, 127
1, 292459, Note_off_c, 1, 78, 0
1, 292459, Note_off_c, 1, 51, 0
1, 292461, Note_on_c, 1, 76, 127
1, 292461, Note_on_c, 1, 56, 127
1, 292461, Note_on_c, 1, 49, 127
1, 292619, Note_off_c, 1, 76, 0
1, 292619, Note_off_c, 1, 56, 0
1, 292621, Note_on_c, 1, 75, 127
1, 292621, Note_on_c, 1, 55, 127
1, 292779, Note_off_c, 1, 75, 0
1, 292779, Note_off_c, 1, 55, 0
1, 292941, Note_on_c, 1, 68, 127
1, 292941, Note_on_c, 1, 58, 127
1, 293020, Note_off_c, 1, 68, 0
1, 293022, Note_on_c, 1, 67, 127
1, 293101, Note_off_c, 1, 58, 0
1, 293101, Note_off_c, 1, 67, 0
1, 293264, Note_on_c, 1, 65, 127
1, 293343, Note_off_c, 1, 65, 0
1, 293424, Note_off_c, 1, 49, 0
1, 293426, Note_on_c, 1, 51, 127
1, 293426, Note_on_c, 1, 48, 127
1, 293426, Note_on_c, 1, 68, 127
1, 293584, Note_off_c, 1, 51, 0
1, 293586, Note_on_c, 1, 53, 127
1, 293744, Note_off_c, 1, 53, 0
1, 293746, Note_on_c, 1, 55, 127
1, 293904, Note_off_c, 1, 48, 0
1, 293904, Note_off_c, 1, 55, 0
1, 293906, Note_on_c, 1, 56, 127
1, 293906, Note_on_c, 1, 47, 127
1, 294064, Note_off_c, 1, 56, 0
1, 294066, Note_on_c, 1, 58, 127
1, 294224, Note_off_c, 1, 58, 0
1, 294226, Note_on_c, 1, 59, 127
1, 294384, Note_off_c, 1, 47, 0
1, 294384, Note_off_c, 1, 59, 0
1, 294386, Note_on_c, 1, 61, 127
1, 294386, Note_on_c, 1, 46, 127
1, 294544, Note_off_c, 1, 61, 0
1, 294864, Note_off_c, 1, 68, 0
1, 294864, Note_off_c, 1, 46, 0
1, 294866, Note_on_c, 1, 58, 127
1, 294866, Note_on_c, 1, 51, 127
1, 294866, Note_on_c, 1, 66, 127
1, 295024, Note_off_c, 1, 58, 0
1, 295026, Note_on_c, 1, 63, 127
1, 295184, Note_off_c, 1, 63, 0
1, 295186, Note_on_c, 1, 61, 127
1, 295344, Note_off_c, 1, 51, 0
1, 295344, Note_off_c, 1, 61, 0
1, 295347, Note_on_c, 1, 44, 127
1, 295347, Note_on_c, 1, 60, 127
1, 295504, Note_off_c, 1, 66, 0
1, 295507, Note_on_c, 1, 64, 127
1, 295665, Note_off_c, 1, 64, 0
1, 295696, Note_off_c, 1, 44, 0
1, 295825, Note_off_c, 1, 60, 0
1, 295827, Note_on_c, 1, 63, 127
1, 295827, Note_on_c, 1, 56, 127
1, 295827, Note_on_c, 1, 59, 127
1, 295985, Note_off_c, 1, 63, 0
1, 295985, Note_off_c, 1, 56, 0
1, 295987, Note_on_c, 1, 68, 127
1, 295987, Note_on_c, 1, 54, 127
1, 296145, Note_off_c, 1, 68, 0
1, 296145, Note_off_c, 1, 54, 0
1, 296147, Note_on_c, 1, 66, 127
1, 296305, Note_off_c, 1, 66, 0
1, 296307, Note_on_c, 1, 49, 127
1, 296307, Note_on_c, 1, 65, 127
1, 296465, Note_off_c, 1, 59, 0
1, 296467, Note_on_c, 1, 58, 127
1, 296625, Note_off_c, 1, 58, 0
1, 296656, Note_off_c, 1, 49, 0
1, 296785, Note_off_c, 1, 65, 0
1, 296787, Note_on_c, 1, 56, 127
1, 296787, Note_on_c, 1, 49, 127
1, 296787, Note_on_c, 1, 64, 127
1, 296945, Note_off_c, 1, 56, 0
1, 296945, Note_off_c, 1, 49, 0
1, 296947, Note_on_c, 1, 61, 127
1, 296947, Note_on_c, 1, 47, 127
1, 297105, Note_off_c, 1, 61, 0
1, 297105, Note_off_c, 1, 47, 0
1, 297107, Note_on_c, 1, 59, 127
1, 297265, Note_off_c, 1, 59, 0
1, 297267, Note_on_c, 1, 42, 127
1, 297267, Note_on_c, 1, 58, 127
1, 297425, Note_off_c, 1, 64, 0
1, 297427, Note_on_c, 1, 63, 127
1, 297585, Note_off_c, 1, 63, 0
1, 297616, Note_off_c, 1, 42, 0
1, 297745, Note_off_c, 1, 58, 0
1, 297747, Note_on_c, 1, 61, 127
1, 297747, Note_on_c, 1, 54, 127
1, 297747, Note_on_c, 1, 57, 127
1, 297905, Note_off_c, 1, 61, 0
1, 297905, Note_off_c, 1, 54, 0
1, 297907, Note_on_c, 1, 66, 127
1, 297907, Note_on_c, 1, 52, 127
1, 298065, Note_off_c, 1, 66, 0
1, 298065, Note_off_c, 1, 52, 0
1, 298067, Note_on_c, 1, 64, 127
1, 298225, Note_off_c, 1, 64, 0
1, 298227, Note_on_c, 1, 63, 127
1, 298227, Note_on_c, 1, 47, 127
1, 298385, Note_off_c, 1, 63, 0
1, 298548, Note_on_c, 1, 59, 127
1, 298705, Note_off_c, 1, 57, 0
1, 298706, Note_off_c, 1, 59, 0
1, 298708, Note_on_c, 1, 56, 127
1, 298866, Note_off_c, 1, 56, 0
1, 299508, Note_on_c, 1, 58, 127
1, 299666, Note_off_c, 1, 58, 0
1, 299825, Note_off_c, 1, 47, 0
1, 299828, Note_on_c, 1, 65, 127
1, 299828, Note_on_c, 1, 49, 127
1, 299986, Note_off_c, 1, 65, 0
1, 299986, Note_off_c, 1, 49, 0
1, 299988, Note_on_c, 1, 50, 127
1, 300146, Note_off_c, 1, 50, 0
1, 300148, Note_on_c, 1, 41, 127
1, 300148, Note_on_c, 1, 68, 127
1, 300468, Note_on_c, 1, 62, 127
1, 300626, Note_off_c, 1, 41, 0
1, 300626, Note_off_c, 1, 62, 0
1, 300628, Note_on_c, 1, 53, 127
1, 301106, Note_off_c, 1, 53, 0
1, 301266, Note_off_c, 1, 68, 0
1, 301588, Note_on_c, 1, 66, 127
1, 301588, Note_on_c, 1, 57, 127
1, 301746, Note_off_c, 1, 66, 0
1, 301749, Note_on_c, 1, 69, 127
1, 301907, Note_off_c, 1, 69, 0
1, 301909, Note_on_c, 1, 73, 127
1, 302067, Note_off_c, 1, 73, 0
1, 302069, Note_on_c, 1, 61, 127
1, 302069, Note_on_c, 1, 78, 127
1, 302227, Note_off_c, 1, 61, 0
1, 302229, Note_on_c, 1, 60, 127
1, 302386, Note_off_c, 1, 57, 0
1, 302387, Note_off_c, 1, 60, 0
1, 302389, Note_on_c, 1, 56, 127
1, 302547, Note_off_c, 1, 56, 0
1, 302549, Note_on_c, 1, 63, 127
1, 302549, Note_on_c, 1, 54, 127
1, 302707, Note_off_c, 1, 63, 0
1, 303027, Note_off_c, 1, 78, 0
1, 303027, Note_off_c, 1, 54, 0
1, 303029, Note_on_c, 1, 77, 127
1, 303029, Note_on_c, 1, 56, 127
1, 303189, Note_on_c, 1, 58, 127
1, 303347, Note_off_c, 1, 58, 0
1, 303349, Note_on_c, 1, 60, 127
1, 303507, Note_off_c, 1, 77, 0
1, 303507, Note_off_c, 1, 60, 0
1, 303509, Note_on_c, 1, 61, 127
1, 303509, Note_on_c, 1, 76, 127
1, 303667, Note_off_c, 1, 61, 0
1, 303669, Note_on_c, 1, 63, 127
1, 303827, Note_off_c, 1, 63, 0
1, 303829, Note_on_c, 1, 64, 127
1, 303987, Note_off_c, 1, 76, 0
1, 303987, Note_off_c, 1, 64, 0
1, 303989, Note_on_c, 1, 66, 127
1, 303989, Note_on_c, 1, 75, 127
1, 304147, Note_off_c, 1, 66, 0
1, 304467, Note_off_c, 1, 75, 0
1, 304469, Note_on_c, 1, 80, 127
1, 304629, Note_on_c, 1, 68, 127
1, 304787, Note_off_c, 1, 68, 0
1, 304947, Note_off_c, 1, 80, 0
1, 304950, Note_on_c, 1, 73, 127
1, 305108, Note_off_c, 1, 56, 0
1, 305110, Note_on_c, 1, 54, 127
1, 305268, Note_off_c, 1, 54, 0
1, 305430, Note_on_c, 1, 57, 127
1, 305588, Note_off_c, 1, 57, 0
1, 305910, Note_on_c, 1, 51, 127
1, 306068, Note_off_c, 1, 73, 0
1, 306068, Note_off_c, 1, 51, 0
1, 306070, Note_on_c, 1, 72, 127
1, 306070, Note_on_c, 1, 52, 127
1, 306228, Note_off_c, 1, 72, 0
1, 306228, Note_off_c, 1, 52, 0
1, 306230, Note_on_c, 1, 70, 127
1, 306388, Note_off_c, 1, 70, 0
1, 306870, Note_on_c, 1, 61, 127
1, 306870, Note_on_c, 1, 80, 127
1, 306870, Note_on_c, 1, 65, 127
1, 307030, Note_off_c, 1, 61, 0
1, 307032, Note_on_c, 1, 60, 127
1, 307192, Note_off_c, 1, 60, 0
1, 307353, Note_off_c, 1, 80, 0
1, 307353, Note_off_c, 1, 65, 0
1, 307355, Note_on_c, 1, 58, 127
1, 307355, Note_on_c, 1, 79, 127
1, 307355, Note_on_c, 1, 64, 127
1, 307515, Note_off_c, 1, 58, 0
1, 307517, Note_on_c, 1, 63, 127
1, 307677, Note_off_c, 1, 63, 0
1, 307679, Note_on_c, 1, 61, 127
1, 307838, Note_off_c, 1, 79, 0
1, 307838, Note_off_c, 1, 64, 0
1, 307839, Note_off_c, 1, 61, 0
1, 307840, Note_on_c, 1, 60, 127
1, 307840, Note_on_c, 1, 78, 127
1, 307840, Note_on_c, 1, 63, 127
1, 308000, Note_off_c, 1, 60, 0
1, 308002, Note_on_c, 1, 58, 127
1, 308162, Note_off_c, 1, 58, 0
1, 308323, Note_off_c, 1, 78, 0
1, 308323, Note_off_c, 1, 63, 0
1, 308325, Note_on_c, 1, 56, 127
1, 308325, Note_on_c, 1, 77, 127
1, 308325, Note_on_c, 1, 68, 127
1, 308485, Note_off_c, 1, 56, 0
1, 308487, Note_on_c, 1, 61, 127
1, 308647, Note_off_c, 1, 61, 0
1, 308649, Note_on_c, 1, 59, 127
1, 308808, Note_off_c, 1, 77, 0
1, 308808, Note_off_c, 1, 68, 0
1, 308809, Note_off_c, 1, 59, 0
1, 308811, Note_on_c, 1, 57, 127
1, 308811, Note_on_c, 1, 76, 127
1, 308811, Note_on_c, 1, 61, 127
1, 308972, Note_off_c, 1, 57, 0
1, 308974, Note_on_c, 1, 56, 127
1, 309135, Note_off_c, 1, 56, 0
1, 309299, Note_off_c, 1, 76, 0
1, 309299, Note_off_c, 1, 61, 0
1, 309301, Note_on_c, 1, 48, 127
1, 309301, Note_on_c, 1, 75, 127
1, 309301, Note_on_c, 1, 66, 127
1, 309462, Note_off_c, 1, 48, 0
1, 309464, Note_on_c, 1, 49, 127
1, 309625, Note_off_c, 1, 49, 0
1, 309626, Note_off_c, 1, 75, 0
1, 309627, Note_on_c, 1, 73, 127
1, 309627, Note_on_c, 1, 51, 127
1, 309788, Note_off_c, 1, 73, 0
1, 309788, Note_off_c, 1, 51, 0
1, 309791, Note_on_c, 1, 52, 127
1, 309791, Note_on_c, 1, 72, 127
1, 309960, Note_off_c, 1, 52, 0
1, 310132, Note_off_c, 1, 72, 0
1, 310134, Note_on_c, 1, 68, 127
1, 310303, Note_off_c, 1, 68, 0
1, 310304, Note_off_c, 1, 66, 0
1, 310305, Note_on_c, 1, 43, 127
1, 310305, Note_on_c, 1, 64, 127
1, 310305, Note_on_c, 1, 73, 127
1, 310474, Note_off_c, 1, 43, 0
1, 310477, Note_on_c, 1, 44, 127
1, 310654, Note_off_c, 1, 64, 0
1, 310655, Note_off_c, 1, 44, 0
1, 310657, Note_on_c, 1, 63, 127
1, 310657, Note_on_c, 1, 45, 127
1, 310835, Note_off_c, 1, 63, 0
1, 310835, Note_off_c, 1, 45, 0
1, 311026, Note_on_c, 1, 69, 127
1, 311214, Note_off_c, 1, 69, 0
1, 311216, Note_on_c, 1, 68, 127
1, 311403, Note_off_c, 1, 73, 0
1, 311404, Note_off_c, 1, 68, 0
1, 311406, Note_on_c, 1, 66, 127
1, 311406, Note_on_c, 1, 72, 127
1, 311622, Note_off_c, 1, 66, 0
1, 312057, Note_off_c, 1, 72, 0
1, 312075, Note_on_c, 1, 37, 127
1, 312075, Note_on_c, 1, 65, 127
1, 312075, Note_on_c, 1, 73, 127
1, 314678, Note_off_c, 1, 37, 0
1, 314678, Note_off_c, 1, 65, 0
1, 314678, Note_off_c, 1, 73, 0
1, 314678, End_track
0, 0, End_of_file