0, 0, Header, 1, 1, 480
1, 0, Start_track
1, 0, Title_t, "Test"
1, 0, Tempo, 500000
1, 0, Instrument_name_t, "Church Organ"
1, 64, Note_on_c, 1, 68, 127
1, 64, Note_on_c, 1, 59, 127
1, 64, Note_on_c, 1, 56, 127
1, 315, Note_off_c, 1, 68, 0
1, 318, Note_on_c, 1, 70, 127
1, 569, Note_off_c, 1, 70, 0
1, 570, Note_off_c, 1, 59, 0
1, 572, Note_on_c, 1, 71, 127
1, 572, Note_on_c, 1, 63, 127
1, 823, Note_off_c, 1, 71, 0
1, 1078, Note_off_c, 1, 63, 0
1, 1081, Note_on_c, 1, 61, 127
1, 1336, Note_on_c, 1, 73, 127
1, 1587, Note_off_c, 1, 56, 0
1, 1587, Note_off_c, 1, 73, 0
1, 1590, Note_on_c, 1, 76, 127
1, 1590, Note_on_c, 1, 55, 127
1, 2088, Note_off_c, 1, 61, 0
1, 2096, Note_off_c, 1, 76, 0
1, 2099, Note_on_c, 1, 75, 127
1, 2605, Note_off_c, 1, 75, 0
1, 2608, Note_on_c, 1, 58, 127
1, 3113, Note_off_c, 1, 55, 0
1, 3114, Note_off_c, 1, 58, 0
1, 3116, Note_on_c, 1, 56, 127
1, 3116, Note_on_c, 1, 71, 127
1, 3367, Note_off_c, 1, 56, 0
1, 3371, Note_on_c, 1, 58, 127
1, 3622, Note_off_c, 1, 58, 0
1, 3625, Note_on_c, 1, 59, 127
1, 3625, Note_on_c, 1, 75, 127
1, 3625, Note_on_c, 1, 80, 127
1, 3876, Note_off_c, 1, 59, 0
1, 4123, Note_off_c, 1, 71, 0
1, 4131, Note_off_c, 1, 75, 0
1, 4134, Note_on_c, 1, 73, 127
1, 4134, Note_on_c, 1, 70, 127
1, 4388, Note_on_c, 1, 61, 127
1, 4632, Note_off_c, 1, 80, 0
1, 4639, Note_off_c, 1, 61, 0
1, 4643, Note_on_c, 1, 64, 127
1, 4643, Note_on_c, 1, 79, 127
1, 5141, Note_off_c, 1, 73, 0
1, 5141, Note_off_c, 1, 70, 0
1, 5149, Note_off_c, 1, 64, 0
1, 5152, Note_on_c, 1, 63, 127
1, 6166, Note_off_c, 1, 79, 0
1, 6424, Note_on_c, 1, 82, 127
1, 6675, Note_off_c, 1, 63, 0
1, 6675, Note_off_c, 1, 82, 0
1, 6678, Note_on_c, 1, 83, 127
1, 6678, Note_on_c, 1, 68, 127
1, 6929, Note_off_c, 1, 83, 0
1, 7184, Note_off_c, 1, 68, 0
1, 7187, Note_on_c, 1, 76, 127
1, 7438, Note_off_c, 1, 76, 0
1, 7696, Note_on_c, 1, 78, 127
1, 7947, Note_off_c, 1, 78, 0
1, 8204, Note_on_c, 1, 66, 127
1, 8710, Note_off_c, 1, 66, 0
1, 10240, Note_on_c, 1, 52, 127
1, 10746, Note_off_c, 1, 52, 0
1, 10748, Note_on_c, 1, 54, 127
1, 11254, Note_off_c, 1, 54, 0
1, 11257, Note_on_c, 1, 73, 127
1, 11257, Note_on_c, 1, 56, 127
1, 11257, Note_on_c, 1, 63, 127
1, 11508, Note_off_c, 1, 73, 0
1, 11512, Note_on_c, 1, 66, 127
1, 11763, Note_off_c, 1, 56, 0
1, 11763, Note_off_c, 1, 63, 0
1, 11763, Note_off_c, 1, 66, 0
1, 11766, Note_on_c, 1, 73, 127
1, 11766, Note_on_c, 1, 61, 127
1, 11766, Note_on_c, 1, 58, 127
1, 12017, Note_off_c, 1, 73, 0
1, 12020, Note_on_c, 1, 76, 127
1, 12271, Note_off_c, 1, 76, 0
1, 12272, Note_off_c, 1, 61, 0
1, 12272, Note_off_c, 1, 58, 0
1, 12275, Note_on_c, 1, 59, 127
1, 12275, Note_on_c, 1, 75, 127
1, 12526, Note_off_c, 1, 59, 0
1, 12526, Note_off_c, 1, 75, 0
1, 12529, Note_on_c, 1, 61, 127
1, 12529, Note_on_c, 1, 76, 127
1, 12780, Note_off_c, 1, 61, 0
1, 12780, Note_off_c, 1, 76, 0
1, 12784, Note_on_c, 1, 63, 127
1, 12784, Note_on_c, 1, 78, 127
1, 13035, Note_off_c, 1, 63, 0
1, 13035, Note_off_c, 1, 78, 0
1, 13038, Note_on_c, 1, 59, 127
1, 13038, Note_on_c, 1, 75, 127
1, 13289, Note_off_c, 1, 59, 0
1, 13289, Note_off_c, 1, 75, 0
1, 13292, Note_on_c, 1, 61, 127
1, 13292, Note_on_c, 1, 76, 127
1, 13543, Note_off_c, 1, 61, 0
1, 13543, Note_off_c, 1, 76, 0
1, 13547, Note_on_c, 1, 64, 127
1, 13547, Note_on_c, 1, 80, 127
1, 13798, Note_off_c, 1, 64, 0
1, 13798, Note_off_c, 1, 80, 0
1, 13801, Note_on_c, 1, 71, 127
1, 13801, Note_on_c, 1, 68, 127
1, 14052, Note_off_c, 1, 71, 0
1, 14056, Note_on_c, 1, 70, 127
1, 14307, Note_off_c, 1, 68, 0
1, 14307, Note_off_c, 1, 70, 0
1, 14310, Note_on_c, 1, 71, 127
1, 14310, Note_on_c, 1, 66, 127
1, 14561, Note_off_c, 1, 71, 0
1, 14564, Note_on_c, 1, 70, 127
1, 14815, Note_off_c, 1, 70, 0
1, 14816, Note_off_c, 1, 66, 0
1, 14819, Note_on_c, 1, 71, 127
1, 14819, Note_on_c, 1, 64, 127
1, 15070, Note_off_c, 1, 71, 0
1, 15073, Note_on_c, 1, 73, 127
1, 15325, Note_off_c, 1, 64, 0
1, 15328, Note_on_c, 1, 47, 127
1, 15328, Note_on_c, 1, 63, 127
1, 15579, Note_off_c, 1, 47, 0
1, 15579, Note_off_c, 1, 63, 0
1, 15582, Note_on_c, 1, 49, 127
1, 15815, Note_off_c, 1, 73, 0
1, 15833, Note_off_c, 1, 49, 0
1, 15836, Note_on_c, 1, 51, 127
1, 15836, Note_on_c, 1, 66, 127
1, 15836, Note_on_c, 1, 71, 127
1, 16087, Note_off_c, 1, 51, 0
1, 16087, Note_off_c, 1, 66, 0
1, 16091, Note_on_c, 1, 47, 127
1, 16091, Note_on_c, 1, 63, 127
1, 16342, Note_off_c, 1, 47, 0
1, 16342, Note_off_c, 1, 63, 0
1, 16345, Note_on_c, 1, 49, 127
1, 16345, Note_on_c, 1, 64, 127
1, 16596, Note_off_c, 1, 49, 0
1, 16596, Note_off_c, 1, 64, 0
1, 16600, Note_on_c, 1, 52, 127
1, 16600, Note_on_c, 1, 68, 127
1, 16851, Note_off_c, 1, 52, 0
1, 16851, Note_off_c, 1, 68, 0
1, 16854, Note_on_c, 1, 56, 127
1, 16854, Note_on_c, 1, 61, 127
1, 17097, Note_off_c, 1, 71, 0
1, 17360, Note_off_c, 1, 56, 0
1, 17363, Note_on_c, 1, 70, 127
1, 17363, Note_on_c, 1, 54, 127
1, 17614, Note_off_c, 1, 70, 0
1, 17869, Note_off_c, 1, 54, 0
1, 17872, Note_on_c, 1, 73, 127
1, 18123, Note_off_c, 1, 73, 0
1, 18886, Note_off_c, 1, 61, 0
1, 18889, Note_on_c, 1, 59, 127
1, 19140, Note_off_c, 1, 59, 0
1, 19144, Note_on_c, 1, 57, 127
1, 19395, Note_off_c, 1, 57, 0
1, 19398, Note_on_c, 1, 53, 127
1, 19649, Note_off_c, 1, 53, 0
1, 19907, Note_on_c, 1, 62, 127
1, 20161, Note_on_c, 1, 65, 127
1, 20410, Note_off_c, 1, 62, 0
1, 20412, Note_off_c, 1, 65, 0
1, 20416, Note_on_c, 1, 66, 127
1, 20416, Note_on_c, 1, 61, 127
1, 20416, Note_on_c, 1, 57, 127
1, 20667, Note_off_c, 1, 66, 0
1, 20670, Note_on_c, 1, 65, 127
1, 20919, Note_off_c, 1, 61, 0
1, 20921, Note_off_c, 1, 65, 0
1, 20922, Note_off_c, 1, 57, 0
1, 20924, Note_on_c, 1, 66, 127
1, 20924, Note_on_c, 1, 56, 127
1, 20924, Note_on_c, 1, 59, 127
1, 21175, Note_off_c, 1, 66, 0
1, 21179, Note_on_c, 1, 68, 127
1, 21430, Note_off_c, 1, 56, 0
1, 21430, Note_off_c, 1, 68, 0
1, 21441, Note_on_c, 1, 61, 127
1, 21441, Note_on_c, 1, 54, 127
1, 21692, Note_off_c, 1, 61, 0
1, 21696, Note_on_c, 1, 63, 127
1, 21931, Note_off_c, 1, 59, 0
1, 21947, Note_off_c, 1, 63, 0
1, 21950, Note_on_c, 1, 57, 127
1, 21950, Note_on_c, 1, 64, 127
1, 22201, Note_off_c, 1, 57, 0
1, 22201, Note_off_c, 1, 64, 0
1, 22694, Note_off_c, 1, 54, 0
1, 22713, Note_on_c, 1, 66, 127
1, 22713, Note_on_c, 1, 54, 127
1, 22964, Note_off_c, 1, 66, 0
1, 22968, Note_on_c, 1, 69, 127
1, 22968, Note_on_c, 1, 60, 127
1, 23219, Note_off_c, 1, 54, 0
1, 23474, Note_off_c, 1, 69, 0
1, 23474, Note_off_c, 1, 60, 0
1, 23476, Note_on_c, 1, 52, 127
1, 23476, Note_on_c, 1, 68, 127
1, 23476, Note_on_c, 1, 61, 127
1, 23727, Note_off_c, 1, 52, 0
1, 23731, Note_on_c, 1, 51, 127
1, 23982, Note_off_c, 1, 68, 0
1, 23982, Note_off_c, 1, 61, 0
1, 23982, Note_off_c, 1, 51, 0
1, 23985, Note_on_c, 1, 49, 127
1, 23985, Note_on_c, 1, 66, 127
1, 23985, Note_on_c, 1, 63, 127
1, 24236, Note_off_c, 1, 49, 0
1, 24240, Note_on_c, 1, 48, 127
1, 24491, Note_off_c, 1, 66, 0
1, 24491, Note_off_c, 1, 63, 0
1, 24491, Note_off_c, 1, 48, 0
1, 24494, Note_on_c, 1, 56, 127
1, 24494, Note_on_c, 1, 64, 127
1, 24494, Note_on_c, 1, 49, 127
1, 24745, Note_off_c, 1, 56, 0
1, 24748, Note_on_c, 1, 58, 127
1, 24999, Note_off_c, 1, 58, 0
1, 25003, Note_on_c, 1, 59, 127
1, 25254, Note_off_c, 1, 59, 0
1, 25508, Note_off_c, 1, 64, 0
1, 25512, Note_on_c, 1, 73, 127
1, 25766, Note_on_c, 1, 61, 127
1, 26017, Note_off_c, 1, 49, 0
1, 26018, Note_off_c, 1, 73, 0
1, 26020, Note_on_c, 1, 43, 127
1, 26020, Note_on_c, 1, 70, 127
1, 26269, Note_off_c, 1, 61, 0
1, 26271, Note_off_c, 1, 43, 0
1, 26529, Note_on_c, 1, 63, 127
1, 27035, Note_off_c, 1, 63, 0
1, 27292, Note_on_c, 1, 55, 127
1, 27543, Note_off_c, 1, 55, 0
1, 27795, Note_off_c, 1, 70, 0
1, 27801, Note_on_c, 1, 68, 127
1, 28052, Note_off_c, 1, 68, 0
1, 28056, Note_on_c, 1, 67, 127
1, 28307, Note_off_c, 1, 67, 0
1, 28819, Note_on_c, 1, 65, 127
1, 29070, Note_off_c, 1, 65, 0
1, 29073, Note_on_c, 1, 62, 127
1, 29579, Note_off_c, 1, 62, 0
1, 29582, Note_on_c, 1, 54, 127
1, 29833, Note_off_c, 1, 54, 0
1, 29836, Note_on_c, 1, 53, 127
1, 30087, Note_off_c, 1, 53, 0
1, 30091, Note_on_c, 1, 51, 127
1, 30342, Note_off_c, 1, 51, 0
1, 30345, Note_on_c, 1, 50, 127
1, 30596, Note_off_c, 1, 50, 0
1, 30600, Note_on_c, 1, 66, 127
1, 31363, Note_on_c, 1, 46, 127
1, 31614, Note_off_c, 1, 46, 0
1, 31617, Note_on_c, 1, 48, 127
1, 31868, Note_off_c, 1, 48, 0
1, 32123, Note_off_c, 1, 66, 0
1, 32889, Note_on_c, 1, 44, 127
1, 33140, Note_off_c, 1, 44, 0
1, 33652, Note_on_c, 1, 47, 127
1, 33903, Note_off_c, 1, 47, 0
1, 34416, Note_on_c, 1, 42, 127
1, 34667, Note_off_c, 1, 42, 0
1, 35179, Note_on_c, 1, 38, 127
1, 35685, Note_off_c, 1, 38, 0
1, 37977, Note_on_c, 1, 71, 127
1, 38228, Note_off_c, 1, 71, 0
1, 38232, Note_on_c, 1, 66, 127
1, 38232, Note_on_c, 1, 59, 127
1, 38232, Note_on_c, 1, 62, 127
1, 38483, Note_off_c, 1, 66, 0
1, 38486, Note_on_c, 1, 65, 127
1, 38737, Note_off_c, 1, 65, 0
1, 38738, Note_off_c, 1, 59, 0
1, 38740, Note_on_c, 1, 58, 127
1, 39246, Note_off_c, 1, 58, 0
1, 39249, Note_on_c, 1, 56, 127
1, 39764, Note_off_c, 1, 56, 0
1, 39769, Note_off_c, 1, 62, 0
1, 39774, Note_on_c, 1, 63, 127
1, 39774, Note_on_c, 1, 54, 127
1, 40025, Note_off_c, 1, 63, 0
1, 40025, Note_off_c, 1, 54, 0
1, 40028, Note_on_c, 1, 65, 127
1, 40028, Note_on_c, 1, 56, 127
1, 40279, Note_off_c, 1, 65, 0
1, 40279, Note_off_c, 1, 56, 0
1, 40283, Note_on_c, 1, 66, 127
1, 40283, Note_on_c, 1, 58, 127
1, 40534, Note_off_c, 1, 66, 0
1, 40534, Note_off_c, 1, 58, 0
1, 40537, Note_on_c, 1, 63, 127
1, 40537, Note_on_c, 1, 54, 127
1, 40788, Note_off_c, 1, 63, 0
1, 40788, Note_off_c, 1, 54, 0
1, 40792, Note_on_c, 1, 65, 127
1, 40792, Note_on_c, 1, 56, 127
1, 41043, Note_off_c, 1, 65, 0
1, 41043, Note_off_c, 1, 56, 0
1, 41046, Note_on_c, 1, 68, 127
1, 41046, Note_on_c, 1, 59, 127
1, 41297, Note_off_c, 1, 68, 0
1, 41297, Note_off_c, 1, 59, 0
1, 41300, Note_on_c, 1, 50, 127
1, 41300, Note_on_c, 1, 71, 127
1, 41551, Note_off_c, 1, 50, 0
1, 41555, Note_on_c, 1, 51, 127
1, 41806, Note_off_c, 1, 71, 0
1, 41806, Note_off_c, 1, 51, 0
1, 41809, Note_on_c, 1, 53, 127
1, 41809, Note_on_c, 1, 70, 127
1, 42060, Note_off_c, 1, 53, 0
1, 42064, Note_on_c, 1, 46, 127
1, 42315, Note_off_c, 1, 70, 0
1, 42315, Note_off_c, 1, 46, 0
1, 42318, Note_on_c, 1, 50, 127
1, 42318, Note_on_c, 1, 68, 127
1, 42569, Note_off_c, 1, 50, 0
1, 42572, Note_on_c, 1, 53, 127
1, 42823, Note_off_c, 1, 53, 0
1, 42824, Note_off_c, 1, 68, 0
1, 42827, Note_on_c, 1, 63, 127
1, 42827, Note_on_c, 1, 67, 127
1, 42827, Note_on_c, 1, 51, 127
1, 43078, Note_off_c, 1, 63, 0
1, 43081, Note_on_c, 1, 61, 127
1, 43332, Note_off_c, 1, 61, 0
1, 43336, Note_on_c, 1, 59, 127
1, 43587, Note_off_c, 1, 59, 0
1, 44096, Note_off_c, 1, 67, 0
1, 44099, Note_on_c, 1, 68, 127
1, 44099, Note_on_c, 1, 58, 127
1, 44350, Note_off_c, 1, 51, 0
1, 44350, Note_off_c, 1, 68, 0
1, 44350, Note_off_c, 1, 58, 0
1, 44353, Note_on_c, 1, 70, 127
1, 44353, Note_on_c, 1, 55, 127
1, 44353, Note_on_c, 1, 49, 127
1, 44604, Note_off_c, 1, 70, 0
1, 44608, Note_on_c, 1, 71, 127
1, 44859, Note_off_c, 1, 55, 0
1, 44859, Note_off_c, 1, 71, 0
1, 44862, Note_on_c, 1, 73, 127
1, 44862, Note_on_c, 1, 56, 127
1, 45113, Note_off_c, 1, 73, 0
1, 45368, Note_off_c, 1, 56, 0
1, 45371, Note_on_c, 1, 58, 127
1, 45876, Note_off_c, 1, 49, 0
1, 45880, Note_on_c, 1, 75, 127
1, 45880, Note_on_c, 1, 47, 127
1, 46131, Note_off_c, 1, 75, 0
1, 46378, Note_off_c, 1, 58, 0
1, 46897, Note_on_c, 1, 64, 127
1, 47403, Note_off_c, 1, 47, 0
1, 47406, Note_on_c, 1, 46, 127
1, 47406, Note_on_c, 1, 67, 127
1, 47657, Note_off_c, 1, 46, 0
1, 47904, Note_off_c, 1, 64, 0
1, 47912, Note_off_c, 1, 67, 0
1, 47915, Note_on_c, 1, 47, 127
1, 47915, Note_on_c, 1, 68, 127
1, 47915, Note_on_c, 1, 63, 127
1, 48166, Note_off_c, 1, 47, 0
1, 48169, Note_on_c, 1, 46, 127
1, 48420, Note_off_c, 1, 46, 0
1, 48421, Note_off_c, 1, 68, 0
1, 48421, Note_off_c, 1, 63, 0
1, 48424, Note_on_c, 1, 44, 127
1, 48424, Note_on_c, 1, 70, 127
1, 48424, Note_on_c, 1, 61, 127
1, 48675, Note_off_c, 1, 44, 0
1, 48678, Note_on_c, 1, 43, 127
1, 48929, Note_off_c, 1, 43, 0
1, 48930, Note_off_c, 1, 70, 0
1, 48930, Note_off_c, 1, 61, 0
1, 48932, Note_on_c, 1, 59, 127
1, 48932, Note_on_c, 1, 44, 127
1, 48932, Note_on_c, 1, 71, 127
1, 49183, Note_off_c, 1, 59, 0
1, 49183, Note_off_c, 1, 44, 0
1, 49187, Note_on_c, 1, 63, 127
1, 49187, Note_on_c, 1, 42, 127
1, 49438, Note_off_c, 1, 63, 0
1, 49438, Note_off_c, 1, 42, 0
1, 49441, Note_on_c, 1, 40, 127
1, 49441, Note_on_c, 1, 68, 127
1, 49674, Note_off_c, 1, 71, 0
1, 49692, Note_off_c, 1, 40, 0
1, 49696, Note_on_c, 1, 70, 127
1, 49947, Note_off_c, 1, 70, 0
1, 49950, Note_on_c, 1, 72, 127
1, 50201, Note_off_c, 1, 72, 0
1, 50204, Note_on_c, 1, 73, 127
1, 50204, Note_on_c, 1, 39, 127
1, 50448, Note_off_c, 1, 68, 0
1, 50455, Note_off_c, 1, 73, 0
1, 50455, Note_off_c, 1, 39, 0
1, 50459, Note_on_c, 1, 66, 127
1, 50459, Note_on_c, 1, 36, 127
1, 50459, Note_on_c, 1, 75, 127
1, 50710, Note_off_c, 1, 66, 0
1, 50713, Note_on_c, 1, 68, 127
1, 50964, Note_off_c, 1, 68, 0
1, 50965, Note_off_c, 1, 36, 0
1, 50968, Note_on_c, 1, 69, 127
1, 50968, Note_on_c, 1, 37, 127
1, 51219, Note_off_c, 1, 69, 0
1, 51466, Note_off_c, 1, 75, 0
1, 51474, Note_off_c, 1, 37, 0
1, 51476, Note_on_c, 1, 73, 127
1, 51476, Note_on_c, 1, 39, 127
1, 51727, Note_off_c, 1, 73, 0
1, 51731, Note_on_c, 1, 72, 127
1, 51966, Note_off_c, 1, 72, 0
1, 51977, Note_off_c, 1, 39, 0
1, 51985, Note_on_c, 1, 40, 127
1, 51985, Note_on_c, 1, 73, 127
1, 52236, Note_off_c, 1, 40, 0
1, 52240, Note_on_c, 1, 75, 127
1, 52240, Note_on_c, 1, 42, 127
1, 52491, Note_off_c, 1, 75, 0
1, 52491, Note_off_c, 1, 42, 0
1, 52494, Note_on_c, 1, 76, 127
1, 52494, Note_on_c, 1, 44, 127
1, 52727, Note_off_c, 1, 73, 0
1, 52745, Note_off_c, 1, 76, 0
1, 52745, Note_off_c, 1, 44, 0
1, 52748, Note_on_c, 1, 73, 127
1, 52748, Note_on_c, 1, 40, 127
1, 52999, Note_off_c, 1, 73, 0
1, 52999, Note_off_c, 1, 40, 0
1, 53003, Note_on_c, 1, 75, 127
1, 53003, Note_on_c, 1, 42, 127
1, 53254, Note_off_c, 1, 75, 0
1, 53254, Note_off_c, 1, 42, 0
1, 53257, Note_on_c, 1, 78, 127
1, 53257, Note_on_c, 1, 45, 127
1, 53508, Note_off_c, 1, 78, 0
1, 53508, Note_off_c, 1, 45, 0
1, 53512, Note_on_c, 1, 39, 127
1, 53512, Note_on_c, 1, 72, 127
1, 53512, Note_on_c, 1, 81, 127
1, 53763, Note_off_c, 1, 39, 0
1, 53766, Note_on_c, 1, 40, 127
1, 54017, Note_off_c, 1, 40, 0
1, 54018, Note_off_c, 1, 72, 0
1, 54018, Note_off_c, 1, 81, 0
1, 54020, Note_on_c, 1, 42, 127
1, 54020, Note_on_c, 1, 73, 127
1, 54020, Note_on_c, 1, 80, 127
1, 54271, Note_off_c, 1, 42, 0
1, 54275, Note_on_c, 1, 44, 127
1, 54526, Note_off_c, 1, 73, 0
1, 54526, Note_off_c, 1, 80, 0
1, 54526, Note_off_c, 1, 44, 0
1, 54529, Note_on_c, 1, 46, 127
1, 54529, Note_on_c, 1, 78, 127
1, 54529, Note_on_c, 1, 75, 127
1, 54780, Note_off_c, 1, 46, 0
1, 54784, Note_on_c, 1, 48, 127
1, 55035, Note_off_c, 1, 78, 0
1, 55035, Note_off_c, 1, 48, 0
1, 55038, Note_on_c, 1, 49, 127
1, 55038, Note_on_c, 1, 76, 127
1, 55289, Note_off_c, 1, 49, 0
1, 55292, Note_on_c, 1, 51, 127
1, 55536, Note_off_c, 1, 75, 0
1, 55543, Note_off_c, 1, 51, 0
1, 55547, Note_on_c, 1, 52, 127
1, 55547, Note_on_c, 1, 73, 127
1, 55798, Note_off_c, 1, 52, 0
1, 56053, Note_off_c, 1, 73, 0
1, 56056, Note_on_c, 1, 71, 127
1, 56310, Note_on_c, 1, 56, 127
1, 56561, Note_off_c, 1, 56, 0
1, 56562, Note_off_c, 1, 71, 0
1, 56564, Note_on_c, 1, 54, 127
1, 56564, Note_on_c, 1, 70, 127
1, 56815, Note_off_c, 1, 54, 0
1, 57070, Note_off_c, 1, 76, 0
1, 57073, Note_on_c, 1, 58, 127
1, 57324, Note_off_c, 1, 58, 0
1, 57836, Note_on_c, 1, 61, 127
1, 58087, Note_off_c, 1, 61, 0
1, 58091, Note_on_c, 1, 47, 127
1, 58342, Note_off_c, 1, 47, 0
1, 58596, Note_off_c, 1, 70, 0
1, 59617, Note_on_c, 1, 68, 127
1, 60889, Note_on_c, 1, 59, 127
1, 61140, Note_off_c, 1, 59, 0
1, 61649, Note_off_c, 1, 68, 0
1, 62670, Note_on_c, 1, 67, 127
1, 62924, Note_on_c, 1, 53, 127
1, 63175, Note_off_c, 1, 53, 0
1, 63179, Note_on_c, 1, 55, 127
1, 63430, Note_off_c, 1, 55, 0
1, 64193, Note_off_c, 1, 67, 0
1, 64204, Note_on_c, 1, 71, 127
1, 64204, Note_on_c, 1, 56, 127
1, 64204, Note_on_c, 1, 68, 127
1, 64455, Note_off_c, 1, 71, 0
1, 64455, Note_off_c, 1, 56, 0
1, 64459, Note_on_c, 1, 70, 127
1, 64459, Note_on_c, 1, 58, 127
1, 64522, Note_off_c, 1, 68, 0
1, 64710, Note_off_c, 1, 70, 0
1, 64710, Note_off_c, 1, 58, 0
1, 64713, Note_on_c, 1, 68, 127
1, 64713, Note_on_c, 1, 59, 127
1, 64964, Note_off_c, 1, 68, 0
1, 64964, Note_off_c, 1, 59, 0
1, 64968, Note_on_c, 1, 71, 127
1, 64968, Note_on_c, 1, 51, 127
1, 65219, Note_off_c, 1, 71, 0
1, 65219, Note_off_c, 1, 51, 0
1, 65222, Note_on_c, 1, 73, 127
1, 65222, Note_on_c, 1, 52, 127
1, 65473, Note_off_c, 1, 73, 0
1, 65473, Note_off_c, 1, 52, 0
1, 65476, Note_on_c, 1, 76, 127
1, 65476, Note_on_c, 1, 56, 127
1, 65727, Note_off_c, 1, 76, 0
1, 65727, Note_off_c, 1, 56, 0
1, 65731, Note_on_c, 1, 70, 127
1, 65731, Note_on_c, 1, 54, 127
1, 65982, Note_off_c, 1, 70, 0
1, 65982, Note_off_c, 1, 54, 0
1, 65985, Note_on_c, 1, 68, 127
1, 65985, Note_on_c, 1, 56, 127
1, 66236, Note_off_c, 1, 68, 0
1, 66236, Note_off_c, 1, 56, 0
1, 66240, Note_on_c, 1, 66, 127
1, 66240, Note_on_c, 1, 58, 127
1, 66491, Note_off_c, 1, 66, 0
1, 66491, Note_off_c, 1, 58, 0
1, 66494, Note_on_c, 1, 70, 127
1, 66494, Note_on_c, 1, 49, 127
1, 66745, Note_off_c, 1, 70, 0
1, 66745, Note_off_c, 1, 49, 0
1, 66748, Note_on_c, 1, 71, 127
1, 66748, Note_on_c, 1, 51, 127
1, 66999, Note_off_c, 1, 71, 0
1, 66999, Note_off_c, 1, 51, 0
1, 67003, Note_on_c, 1, 75, 127
1, 67003, Note_on_c, 1, 54, 127
1, 67254, Note_off_c, 1, 75, 0
1, 67254, Note_off_c, 1, 54, 0
1, 67257, Note_on_c, 1, 68, 127
1, 67257, Note_on_c, 1, 52, 127
1, 67508, Note_off_c, 1, 68, 0
1, 67508, Note_off_c, 1, 52, 0
1, 67512, Note_on_c, 1, 75, 127
1, 67512, Note_on_c, 1, 54, 127
1, 67763, Note_off_c, 1, 75, 0
1, 67763, Note_off_c, 1, 54, 0
1, 67766, Note_on_c, 1, 73, 127
1, 67766, Note_on_c, 1, 56, 127
1, 68017, Note_off_c, 1, 73, 0
1, 68017, Note_off_c, 1, 56, 0
1, 68020, Note_on_c, 1, 71, 127
1, 68020, Note_on_c, 1, 47, 127
1, 68271, Note_off_c, 1, 71, 0
1, 68271, Note_off_c, 1, 47, 0
1, 68275, Note_on_c, 1, 70, 127
1, 68275, Note_on_c, 1, 49, 127
1, 68526, Note_off_c, 1, 70, 0
1, 68526, Note_off_c, 1, 49, 0
1, 68529, Note_on_c, 1, 68, 127
1, 68529, Note_on_c, 1, 52, 127
1, 68780, Note_off_c, 1, 68, 0
1, 68780, Note_off_c, 1, 52, 0
1, 68784, Note_on_c, 1, 51, 127
1, 68784, Note_on_c, 1, 67, 127
1, 69035, Note_off_c, 1, 51, 0
1, 69038, Note_on_c, 1, 68, 127
1, 69038, Note_on_c, 1, 53, 127
1, 69102, Note_off_c, 1, 67, 0
1, 69289, Note_off_c, 1, 68, 0
1, 69289, Note_off_c, 1, 53, 0
1, 69292, Note_on_c, 1, 70, 127
1, 69292, Note_on_c, 1, 55, 127
1, 69543, Note_off_c, 1, 70, 0
1, 69543, Note_off_c, 1, 55, 0
1, 69547, Note_on_c, 1, 67, 127
1, 69547, Note_on_c, 1, 46, 127
1, 69798, Note_off_c, 1, 67, 0
1, 69798, Note_off_c, 1, 46, 0
1, 69801, Note_on_c, 1, 47, 127
1, 69801, Note_on_c, 1, 68, 127
1, 70052, Note_off_c, 1, 47, 0
1, 70056, Note_on_c, 1, 71, 127
1, 70056, Note_on_c, 1, 51, 127
1, 70307, Note_off_c, 1, 71, 0
1, 70307, Note_off_c, 1, 51, 0
1, 70310, Note_on_c, 1, 49, 127
1, 70310, Note_on_c, 1, 76, 127
1, 70561, Note_off_c, 1, 49, 0
1, 70808, Note_off_c, 1, 68, 0
1, 70816, Note_off_c, 1, 76, 0
1, 70819, Note_on_c, 1, 52, 127
1, 70819, Note_on_c, 1, 76, 127
1, 70819, Note_on_c, 1, 68, 127
1, 71070, Note_off_c, 1, 52, 0
1, 71073, Note_on_c, 1, 47, 127
1, 71324, Note_off_c, 1, 47, 0
1, 71325, Note_off_c, 1, 76, 0
1, 71325, Note_off_c, 1, 68, 0
1, 71328, Note_on_c, 1, 49, 127
1, 71328, Note_on_c, 1, 76, 127
1, 71328, Note_on_c, 1, 68, 127
1, 71579, Note_off_c, 1, 49, 0
1, 71582, Note_on_c, 1, 52, 127
1, 71833, Note_off_c, 1, 52, 0
1, 71834, Note_off_c, 1, 76, 0
1, 71834, Note_off_c, 1, 68, 0
1, 71836, Note_on_c, 1, 45, 127
1, 71836, Note_on_c, 1, 73, 127
1, 71836, Note_on_c, 1, 76, 127
1, 72087, Note_off_c, 1, 45, 0
1, 72091, Note_on_c, 1, 49, 127
1, 72342, Note_off_c, 1, 73, 0
1, 72342, Note_off_c, 1, 76, 0
1, 72342, Note_off_c, 1, 49, 0
1, 72345, Note_on_c, 1, 52, 127
1, 72345, Note_on_c, 1, 73, 127
1, 72345, Note_on_c, 1, 76, 127
1, 72596, Note_off_c, 1, 52, 0
1, 72600, Note_on_c, 1, 44, 127
1, 72851, Note_off_c, 1, 73, 0
1, 72851, Note_off_c, 1, 76, 0
1, 72851, Note_off_c, 1, 44, 0
1, 72854, Note_on_c, 1, 49, 127
1, 72854, Note_on_c, 1, 73, 127
1, 72854, Note_on_c, 1, 76, 127
1, 73105, Note_off_c, 1, 49, 0
1, 73108, Note_on_c, 1, 52, 127
1, 73359, Note_off_c, 1, 52, 0
1, 73360, Note_off_c, 1, 73, 0
1, 73360, Note_off_c, 1, 76, 0
1, 73366, Note_on_c, 1, 73, 127
1, 73366, Note_on_c, 1, 76, 127
1, 73366, Note_on_c, 1, 43, 127
1, 73617, Note_off_c, 1, 73, 0
1, 73625, Note_on_c, 1, 71, 127
1, 73876, Note_off_c, 1, 71, 0
1, 73880, Note_on_c, 1, 70, 127
1, 74131, Note_off_c, 1, 70, 0
1, 74643, Note_on_c, 1, 68, 127
1, 74894, Note_off_c, 1, 68, 0
1, 75141, Note_off_c, 1, 76, 0
1, 75152, Note_on_c, 1, 75, 127
1, 75403, Note_off_c, 1, 75, 0
1, 75652, Note_off_c, 1, 43, 0
1, 75660, Note_on_c, 1, 82, 127
1, 75660, Note_on_c, 1, 55, 127
1, 75911, Note_off_c, 1, 82, 0
1, 75911, Note_off_c, 1, 55, 0
1, 75915, Note_on_c, 1, 56, 127
1, 76166, Note_off_c, 1, 56, 0
1, 76169, Note_on_c, 1, 58, 127
1, 76420, Note_off_c, 1, 58, 0
1, 76424, Note_on_c, 1, 47, 127
1, 77438, Note_off_c, 1, 47, 0
1, 77441, Note_on_c, 1, 52, 127
1, 77947, Note_off_c, 1, 52, 0
1, 77950, Note_on_c, 1, 49, 127
1, 78456, Note_off_c, 1, 49, 0
1, 78459, Note_on_c, 1, 68, 127
1, 78459, Note_on_c, 1, 51, 127
1, 78713, Note_on_c, 1, 71, 127
1, 78962, Note_off_c, 1, 68, 0
1, 78964, Note_off_c, 1, 71, 0
1, 78968, Note_on_c, 1, 70, 127
1, 78968, Note_on_c, 1, 39, 127
1, 79222, Note_on_c, 1, 67, 127
1, 79466, Note_off_c, 1, 51, 0
1, 79471, Note_off_c, 1, 70, 0
1, 79473, Note_off_c, 1, 67, 0
1, 79474, Note_off_c, 1, 39, 0
1, 79476, Note_on_c, 1, 44, 127
1, 79476, Note_on_c, 1, 68, 127
1, 79731, Note_on_c, 1, 46, 127
1, 79982, Note_off_c, 1, 46, 0
1, 79985, Note_on_c, 1, 48, 127
1, 79985, Note_on_c, 1, 66, 127
1, 80228, Note_off_c, 1, 44, 0
1, 80236, Note_off_c, 1, 48, 0
1, 80491, Note_off_c, 1, 66, 0
1, 80494, Note_on_c, 1, 63, 127
1, 80748, Note_on_c, 1, 51, 127
1, 80999, Note_off_c, 1, 51, 0
1, 81000, Note_off_c, 1, 63, 0
1, 81003, Note_on_c, 1, 61, 127
1, 81003, Note_on_c, 1, 54, 127
1, 81254, Note_off_c, 1, 61, 0
1, 81257, Note_on_c, 1, 60, 127
1, 81508, Note_off_c, 1, 60, 0
1, 81509, Note_off_c, 1, 54, 0
1, 81512, Note_on_c, 1, 52, 127
1, 82018, Note_off_c, 1, 52, 0
1, 82020, Note_on_c, 1, 64, 127
1, 82271, Note_off_c, 1, 64, 0
1, 82523, Note_off_c, 1, 68, 0
1, 82545, Note_on_c, 1, 49, 127
1, 83855, Note_on_c, 1, 58, 127
1, 84113, Note_off_c, 1, 58, 0
1, 84117, Note_on_c, 1, 55, 127
1, 84676, Note_off_c, 1, 55, 0
1, 84677, Note_on_c, 1, 56, 127
1, 85218, Note_off_c, 1, 56, 0
1, 85825, Note_off_c, 1, 49, 0
1, 90001, Note_on_c, 1, 56, 127
1, 90761, Note_off_c, 1, 56, 0
1, 90764, Note_on_c, 1, 55, 127
1, 91142, Note_off_c, 1, 55, 0
1, 91146, Note_on_c, 1, 56, 127
1, 91334, Note_off_c, 1, 56, 0
1, 91337, Note_on_c, 1, 58, 127
1, 91525, Note_off_c, 1, 58, 0
1, 91528, Note_on_c, 1, 59, 127
1, 91906, Note_off_c, 1, 59, 0
1, 91909, Note_on_c, 1, 58, 127
1, 92287, Note_off_c, 1, 58, 0
1, 92291, Note_on_c, 1, 56, 127
1, 92669, Note_off_c, 1, 56, 0
1, 92672, Note_on_c, 1, 62, 127
1, 93029, Note_off_c, 1, 62, 0
1, 93054, Note_on_c, 1, 63, 127
1, 93432, Note_off_c, 1, 63, 0
1, 93436, Note_on_c, 1, 54, 127
1, 93793, Note_off_c, 1, 54, 0
1, 93817, Note_on_c, 1, 56, 127
1, 94195, Note_off_c, 1, 56, 0
1, 94199, Note_on_c, 1, 56, 127
1, 94577, Note_off_c, 1, 56, 0
1, 94580, Note_on_c, 1, 58, 127
1, 94958, Note_off_c, 1, 58, 0
1, 94962, Note_on_c, 1, 58, 127
1, 95330, Note_off_c, 1, 58, 0
1, 95344, Note_on_c, 1, 51, 127
1, 95722, Note_off_c, 1, 51, 0
1, 95725, Note_on_c, 1, 53, 127
1, 96103, Note_off_c, 1, 53, 0
1, 96107, Note_on_c, 1, 63, 127
1, 96107, Note_on_c, 1, 54, 127
1, 96867, Note_off_c, 1, 63, 0
1, 96870, Note_on_c, 1, 60, 127
1, 97248, Note_off_c, 1, 60, 0
1, 97249, Note_off_c, 1, 54, 0
1, 97252, Note_on_c, 1, 52, 127
1, 97252, Note_on_c, 1, 61, 127
1, 97440, Note_off_c, 1, 52, 0
1, 97440, Note_off_c, 1, 61, 0
1, 97442, Note_on_c, 1, 54, 127
1, 97442, Note_on_c, 1, 63, 127
1, 97630, Note_off_c, 1, 54, 0
1, 97630, Note_off_c, 1, 63, 0
1, 97633, Note_on_c, 1, 56, 127
1, 97633, Note_on_c, 1, 64, 127
1, 98011, Note_off_c, 1, 56, 0
1, 98011, Note_off_c, 1, 64, 0
1, 98015, Note_on_c, 1, 55, 127
1, 98015, Note_on_c, 1, 63, 127
1, 98203, Note_off_c, 1, 55, 0
1, 98206, Note_on_c, 1, 56, 127
1, 98393, Note_off_c, 1, 63, 0
1, 98394, Note_off_c, 1, 56, 0
1, 98396, Note_on_c, 1, 58, 127
1, 98396, Note_on_c, 1, 61, 127
1, 98774, Note_off_c, 1, 58, 0
1, 98774, Note_off_c, 1, 61, 0
1, 98778, Note_on_c, 1, 56, 127
1, 98778, Note_on_c, 1, 67, 127
1, 98966, Note_off_c, 1, 56, 0
1, 98969, Note_on_c, 1, 58, 127
1, 99135, Note_off_c, 1, 67, 0
1, 99157, Note_off_c, 1, 58, 0
1, 99160, Note_on_c, 1, 59, 127
1, 99160, Note_on_c, 1, 68, 127
1, 99538, Note_off_c, 1, 59, 0
1, 99538, Note_off_c, 1, 68, 0
1, 99541, Note_on_c, 1, 59, 127
1, 99541, Note_on_c, 1, 56, 127
1, 99898, Note_off_c, 1, 59, 0
1, 99919, Note_off_c, 1, 56, 0
1, 99923, Note_on_c, 1, 61, 127
1, 99923, Note_on_c, 1, 58, 127
1, 100301, Note_off_c, 1, 61, 0
1, 100683, Note_off_c, 1, 58, 0
1, 100686, Note_on_c, 1, 63, 127
1, 100686, Note_on_c, 1, 55, 127
1, 101064, Note_off_c, 1, 63, 0
1, 101441, Note_off_c, 1, 55, 0
1, 101449, Note_on_c, 1, 56, 127
1, 101831, Note_on_c, 1, 54, 127
1, 102209, Note_off_c, 1, 54, 0
1, 102212, Note_on_c, 1, 52, 127
1, 102212, Note_on_c, 1, 68, 127
1, 102212, Note_on_c, 1, 61, 127
1, 102940, Note_off_c, 1, 56, 0
1, 102975, Note_off_c, 1, 52, 0
1, 102975, Note_off_c, 1, 68, 0
1, 102978, Note_on_c, 1, 51, 127
1, 102978, Note_on_c, 1, 67, 127
1, 103356, Note_off_c, 1, 61, 0
1, 103356, Note_off_c, 1, 51, 0
1, 103356, Note_off_c, 1, 67, 0
1, 103360, Note_on_c, 1, 59, 127
1, 103360, Note_on_c, 1, 68, 127
1, 103360, Note_on_c, 1, 56, 127
1, 103548, Note_off_c, 1, 59, 0
1, 103548, Note_off_c, 1, 68, 0
1, 103551, Note_on_c, 1, 61, 127
1, 103551, Note_on_c, 1, 70, 127
1, 103739, Note_off_c, 1, 61, 0
1, 103739, Note_off_c, 1, 70, 0
1, 103742, Note_on_c, 1, 63, 127
1, 103742, Note_on_c, 1, 71, 127
1, 104120, Note_off_c, 1, 56, 0
1, 104120, Note_off_c, 1, 63, 0
1, 104120, Note_off_c, 1, 71, 0
1, 104123, Note_on_c, 1, 62, 127
1, 104123, Note_on_c, 1, 58, 127
1, 104123, Note_on_c, 1, 70, 127
1, 104311, Note_off_c, 1, 62, 0
1, 104314, Note_on_c, 1, 63, 127
1, 104501, Note_off_c, 1, 58, 0
1, 104501, Note_off_c, 1, 70, 0
1, 104502, Note_off_c, 1, 63, 0
1, 104505, Note_on_c, 1, 65, 127
1, 104505, Note_on_c, 1, 68, 127
1, 104505, Note_on_c, 1, 59, 127
1, 104883, Note_off_c, 1, 65, 0
1, 104883, Note_off_c, 1, 68, 0
1, 104886, Note_on_c, 1, 63, 127
1, 104886, Note_on_c, 1, 74, 127
1, 105074, Note_off_c, 1, 63, 0
1, 105185, Note_off_c, 1, 74, 0
1, 105268, Note_off_c, 1, 59, 0
1, 105271, Note_on_c, 1, 66, 127
1, 105271, Note_on_c, 1, 75, 127
1, 105271, Note_on_c, 1, 58, 127
1, 105649, Note_off_c, 1, 66, 0
1, 105649, Note_off_c, 1, 75, 0
1, 105652, Note_on_c, 1, 63, 127
1, 106030, Note_off_c, 1, 63, 0
1, 106031, Note_off_c, 1, 58, 0
1, 106034, Note_on_c, 1, 68, 127
1, 106034, Note_on_c, 1, 65, 127
1, 106034, Note_on_c, 1, 56, 127
1, 106412, Note_off_c, 1, 68, 0
1, 106794, Note_off_c, 1, 65, 0
1, 106797, Note_on_c, 1, 70, 127
1, 106797, Note_on_c, 1, 62, 127
1, 107175, Note_off_c, 1, 70, 0
1, 107552, Note_off_c, 1, 62, 0
1, 107560, Note_on_c, 1, 63, 127
1, 107939, Note_off_c, 1, 56, 0
1, 107942, Note_on_c, 1, 54, 127
1, 108130, Note_off_c, 1, 54, 0
1, 108315, Note_off_c, 1, 63, 0
1, 108323, Note_on_c, 1, 58, 127
1, 108323, Note_on_c, 1, 51, 127
1, 108323, Note_on_c, 1, 66, 127
1, 108701, Note_off_c, 1, 58, 0
1, 108705, Note_on_c, 1, 54, 127
1, 109083, Note_off_c, 1, 51, 0
1, 109083, Note_off_c, 1, 54, 0
1, 109087, Note_on_c, 1, 48, 127
1, 109087, Note_on_c, 1, 56, 127
1, 109465, Note_off_c, 1, 66, 0
1, 109465, Note_off_c, 1, 48, 0
1, 109468, Note_on_c, 1, 49, 127
1, 109468, Note_on_c, 1, 64, 127
1, 109468, Note_on_c, 1, 52, 127
1, 109656, Note_off_c, 1, 49, 0
1, 109656, Note_off_c, 1, 64, 0
1, 109842, Note_off_c, 1, 56, 0
1, 109846, Note_off_c, 1, 52, 0
1, 109852, Note_on_c, 1, 52, 127
1, 109852, Note_on_c, 1, 68, 127
1, 110230, Note_off_c, 1, 52, 0
1, 110230, Note_off_c, 1, 68, 0
1, 110234, Note_on_c, 1, 67, 127
1, 110234, Note_on_c, 1, 51, 127
1, 110234, Note_on_c, 1, 59, 127
1, 110234, Note_on_c, 1, 63, 127
1, 110422, Note_off_c, 1, 67, 0
1, 110425, Note_on_c, 1, 68, 127
1, 110612, Note_off_c, 1, 51, 0
1, 110612, Note_off_c, 1, 59, 0
1, 110612, Note_off_c, 1, 63, 0
1, 110613, Note_off_c, 1, 68, 0
1, 110616, Note_on_c, 1, 49, 127
1, 110616, Note_on_c, 1, 64, 127
1, 110616, Note_on_c, 1, 70, 127
1, 110616, Note_on_c, 1, 61, 127
1, 110984, Note_off_c, 1, 49, 0
1, 110997, Note_off_c, 1, 64, 0
1, 110997, Note_off_c, 1, 70, 0
1, 111000, Note_on_c, 1, 68, 127
1, 111000, Note_on_c, 1, 55, 127
1, 111000, Note_on_c, 1, 63, 127
1, 111188, Note_off_c, 1, 68, 0
1, 111368, Note_off_c, 1, 55, 0
1, 111373, Note_off_c, 1, 61, 0
1, 111381, Note_on_c, 1, 71, 127
1, 111381, Note_on_c, 1, 56, 127
1, 111759, Note_off_c, 1, 71, 0
1, 111760, Note_off_c, 1, 63, 0
1, 111763, Note_on_c, 1, 47, 127
1, 112131, Note_off_c, 1, 47, 0
1, 112136, Note_off_c, 1, 56, 0
1, 112145, Note_on_c, 1, 49, 127
1, 112145, Note_on_c, 1, 61, 127
1, 112145, Note_on_c, 1, 64, 127
1, 112145, Note_on_c, 1, 70, 127
1, 112523, Note_off_c, 1, 49, 0
1, 112905, Note_off_c, 1, 61, 0
1, 112905, Note_off_c, 1, 64, 0
1, 112905, Note_off_c, 1, 70, 0
1, 112908, Note_on_c, 1, 51, 127
1, 112908, Note_on_c, 1, 58, 127
1, 112908, Note_on_c, 1, 63, 127
1, 112908, Note_on_c, 1, 67, 127
1, 113286, Note_off_c, 1, 51, 0
1, 113668, Note_off_c, 1, 58, 0
1, 113668, Note_off_c, 1, 63, 0
1, 113668, Note_off_c, 1, 67, 0
1, 113671, Note_on_c, 1, 68, 127
1, 113671, Note_on_c, 1, 44, 127
1, 113671, Note_on_c, 1, 59, 127
1, 113671, Note_on_c, 1, 63, 127
1, 114049, Note_off_c, 1, 68, 0
1, 114053, Note_on_c, 1, 70, 127
1, 114431, Note_off_c, 1, 70, 0
1, 114434, Note_on_c, 1, 71, 127
1, 114625, Note_off_c, 1, 44, 0
1, 114813, Note_off_c, 1, 59, 0
1, 114813, Note_off_c, 1, 63, 0
1, 114816, Note_on_c, 1, 51, 127
1, 114816, Note_on_c, 1, 66, 127
1, 115194, Note_off_c, 1, 71, 0
1, 115194, Note_off_c, 1, 51, 0
1, 115194, Note_off_c, 1, 66, 0
1, 115197, Note_on_c, 1, 52, 127
1, 115197, Note_on_c, 1, 64, 127
1, 115197, Note_on_c, 1, 68, 127
1, 115197, Note_on_c, 1, 73, 127
1, 115575, Note_off_c, 1, 52, 0
1, 115957, Note_off_c, 1, 64, 0
1, 115957, Note_off_c, 1, 68, 0
1, 115957, Note_off_c, 1, 73, 0
1, 115961, Note_on_c, 1, 54, 127
1, 115961, Note_on_c, 1, 61, 127
1, 115961, Note_on_c, 1, 66, 127
1, 115961, Note_on_c, 1, 70, 127
1, 116339, Note_off_c, 1, 54, 0
1, 116721, Note_off_c, 1, 61, 0
1, 116721, Note_off_c, 1, 66, 0
1, 116721, Note_off_c, 1, 70, 0
1, 116724, Note_on_c, 1, 71, 127
1, 116724, Note_on_c, 1, 47, 127
1, 116724, Note_on_c, 1, 63, 127
1, 116724, Note_on_c, 1, 66, 127
1, 117102, Note_off_c, 1, 71, 0
1, 117105, Note_on_c, 1, 75, 127
1, 117293, Note_off_c, 1, 75, 0
1, 117296, Note_on_c, 1, 74, 127
1, 117484, Note_off_c, 1, 74, 0
1, 117678, Note_off_c, 1, 47, 0
1, 117866, Note_off_c, 1, 63, 0
1, 117866, Note_off_c, 1, 66, 0
1, 117869, Note_on_c, 1, 54, 127
1, 117869, Note_on_c, 1, 70, 127
1, 118247, Note_off_c, 1, 54, 0
1, 118247, Note_off_c, 1, 70, 0
1, 118250, Note_on_c, 1, 56, 127
1, 118250, Note_on_c, 1, 68, 127
1, 118250, Note_on_c, 1, 71, 127
1, 118250, Note_on_c, 1, 77, 127
1, 118628, Note_off_c, 1, 56, 0
1, 119010, Note_off_c, 1, 68, 0
1, 119010, Note_off_c, 1, 71, 0
1, 119010, Note_off_c, 1, 77, 0
1, 119013, Note_on_c, 1, 58, 127
1, 119013, Note_on_c, 1, 65, 127
1, 119013, Note_on_c, 1, 70, 127
1, 119013, Note_on_c, 1, 74, 127
1, 119391, Note_off_c, 1, 58, 0
1, 119773, Note_off_c, 1, 65, 0
1, 119773, Note_off_c, 1, 70, 0
1, 119773, Note_off_c, 1, 74, 0
1, 119777, Note_on_c, 1, 66, 127
1, 119777, Note_on_c, 1, 75, 127
1, 119777, Note_on_c, 1, 51, 127
1, 119777, Note_on_c, 1, 63, 127
1, 120155, Note_off_c, 1, 66, 0
1, 120155, Note_off_c, 1, 75, 0
1, 120158, Note_on_c, 1, 68, 127
1, 120158, Note_on_c, 1, 77, 127
1, 120532, Note_off_c, 1, 51, 0
1, 120536, Note_off_c, 1, 68, 0
1, 120536, Note_off_c, 1, 77, 0
1, 120537, Note_off_c, 1, 63, 0
1, 120540, Note_on_c, 1, 70, 127
1, 120540, Note_on_c, 1, 63, 127
1, 120540, Note_on_c, 1, 78, 127
1, 120918, Note_off_c, 1, 70, 0
1, 120921, Note_on_c, 1, 71, 127
1, 121109, Note_off_c, 1, 71, 0
1, 121300, Note_off_c, 1, 63, 0
1, 121303, Note_on_c, 1, 60, 127
1, 121303, Note_on_c, 1, 68, 127
1, 121681, Note_off_c, 1, 60, 0
1, 121681, Note_off_c, 1, 68, 0
1, 121682, Note_off_c, 1, 78, 0
1, 121685, Note_on_c, 1, 61, 127
1, 121685, Note_on_c, 1, 76, 127
1, 121685, Note_on_c, 1, 73, 127
1, 121873, Note_off_c, 1, 61, 0
1, 121873, Note_off_c, 1, 76, 0
1, 121875, Note_on_c, 1, 63, 127
1, 121875, Note_on_c, 1, 78, 127
1, 122063, Note_off_c, 1, 63, 0
1, 122063, Note_off_c, 1, 78, 0
1, 122066, Note_on_c, 1, 64, 127
1, 122066, Note_on_c, 1, 80, 127
1, 122444, Note_off_c, 1, 64, 0
1, 122444, Note_off_c, 1, 80, 0
1, 122445, Note_off_c, 1, 73, 0
1, 122448, Note_on_c, 1, 79, 127
1, 122448, Note_on_c, 1, 63, 127
1, 122448, Note_on_c, 1, 75, 127
1, 122636, Note_off_c, 1, 79, 0
1, 122639, Note_on_c, 1, 80, 127
1, 122826, Note_off_c, 1, 63, 0
1, 122826, Note_off_c, 1, 75, 0
1, 122827, Note_off_c, 1, 80, 0
1, 122829, Note_on_c, 1, 61, 127
1, 122829, Note_on_c, 1, 82, 127
1, 122829, Note_on_c, 1, 76, 127
1, 123207, Note_off_c, 1, 61, 0
1, 123207, Note_off_c, 1, 82, 0
1, 123211, Note_on_c, 1, 80, 127
1, 123211, Note_on_c, 1, 67, 127
1, 123399, Note_off_c, 1, 80, 0
1, 123568, Note_off_c, 1, 67, 0
1, 123589, Note_off_c, 1, 76, 0
1, 123593, Note_on_c, 1, 68, 127
1, 123593, Note_on_c, 1, 83, 127
1, 123593, Note_on_c, 1, 75, 127
1, 123971, Note_off_c, 1, 68, 0
1, 123971, Note_off_c, 1, 83, 0
1, 123974, Note_on_c, 1, 59, 127
1, 123974, Note_on_c, 1, 80, 127
1, 124331, Note_off_c, 1, 59, 0
1, 124352, Note_off_c, 1, 80, 0
1, 124353, Note_off_c, 1, 75, 0
1, 124356, Note_on_c, 1, 61, 127
1, 124356, Note_on_c, 1, 82, 127
1, 124356, Note_on_c, 1, 73, 127
1, 124734, Note_off_c, 1, 61, 0
1, 125116, Note_off_c, 1, 82, 0
1, 125119, Note_on_c, 1, 80, 127
1, 125119, Note_on_c, 1, 63, 127
1, 125209, Note_on_c, 1, 79, 127
1, 125221, Note_off_c, 1, 80, 0
1, 125311, Note_off_c, 1, 79, 0
1, 125497, Note_off_c, 1, 63, 0
1, 125882, Note_on_c, 1, 56, 127
1, 126264, Note_on_c, 1, 78, 127
1, 126452, Note_off_c, 1, 78, 0
1, 126455, Note_on_c, 1, 76, 127
1, 126642, Note_off_c, 1, 73, 0
1, 126643, Note_off_c, 1, 76, 0
1, 126645, Note_on_c, 1, 75, 127
1, 126645, Note_on_c, 1, 71, 127
1, 126955, Note_off_c, 1, 56, 0
1, 127023, Note_off_c, 1, 75, 0
1, 127405, Note_off_c, 1, 71, 0
1, 127409, Note_on_c, 1, 57, 127
1, 127409, Note_on_c, 1, 78, 127
1, 127409, Note_on_c, 1, 69, 127
1, 127787, Note_off_c, 1, 57, 0
1, 128169, Note_off_c, 1, 78, 0
1, 128172, Note_on_c, 1, 76, 127
1, 128172, Note_on_c, 1, 59, 127
1, 128252, Note_on_c, 1, 75, 127
1, 128272, Note_off_c, 1, 76, 0
1, 128352, Note_off_c, 1, 75, 0
1, 128550, Note_off_c, 1, 59, 0
1, 128935, Note_on_c, 1, 52, 127
1, 129507, Note_on_c, 1, 73, 127
1, 129695, Note_off_c, 1, 69, 0
1, 129695, Note_off_c, 1, 73, 0
1, 129698, Note_on_c, 1, 72, 127
1, 129698, Note_on_c, 1, 68, 127
1, 130048, Note_off_c, 1, 52, 0
1, 130076, Note_off_c, 1, 72, 0
1, 130458, Note_off_c, 1, 68, 0
1, 130461, Note_on_c, 1, 54, 127
1, 130461, Note_on_c, 1, 75, 127
1, 130461, Note_on_c, 1, 66, 127
1, 130839, Note_off_c, 1, 54, 0
1, 131221, Note_off_c, 1, 75, 0
1, 131225, Note_on_c, 1, 73, 127
1, 131225, Note_on_c, 1, 56, 127
1, 131325, Note_off_c, 1, 73, 0
1, 131325, Note_on_c, 1, 72, 127
1, 131425, Note_off_c, 1, 72, 0
1, 131425, Note_on_c, 1, 70, 127
1, 131603, Note_off_c, 1, 56, 0
1, 131615, Note_off_c, 1, 70, 0
1, 131988, Note_on_c, 1, 49, 127
1, 132366, Note_off_c, 1, 66, 0
1, 132366, Note_off_c, 1, 49, 0
1, 132369, Note_on_c, 1, 64, 127
1, 132369, Note_on_c, 1, 51, 127
1, 132557, Note_off_c, 1, 64, 0
1, 132747, Note_off_c, 1, 51, 0
1, 132751, Note_on_c, 1, 52, 127
1, 132751, Note_on_c, 1, 68, 127
1, 132751, Note_on_c, 1, 49, 127
1, 133129, Note_off_c, 1, 52, 0
1, 133129, Note_off_c, 1, 68, 0
1, 133133, Note_on_c, 1, 66, 127
1, 133133, Note_on_c, 1, 54, 127
1, 133321, Note_off_c, 1, 66, 0
1, 133323, Note_on_c, 1, 64, 127
1, 133511, Note_off_c, 1, 49, 0
1, 133511, Note_off_c, 1, 54, 0
1, 133511, Note_off_c, 1, 64, 0
1, 133514, Note_on_c, 1, 48, 127
1, 133514, Note_on_c, 1, 63, 127
1, 133514, Note_on_c, 1, 56, 127
1, 133892, Note_off_c, 1, 48, 0
1, 133892, Note_off_c, 1, 63, 0
1, 133896, Note_on_c, 1, 49, 127
1, 133896, Note_on_c, 1, 64, 127
1, 133896, Note_on_c, 1, 73, 127
1, 134084, Note_off_c, 1, 49, 0
1, 134084, Note_off_c, 1, 64, 0
1, 134087, Note_on_c, 1, 51, 127
1, 134087, Note_on_c, 1, 66, 127
1, 134275, Note_off_c, 1, 51, 0
1, 134275, Note_off_c, 1, 66, 0
1, 134277, Note_on_c, 1, 52, 127
1, 134277, Note_on_c, 1, 68, 127
1, 134655, Note_off_c, 1, 52, 0
1, 134655, Note_off_c, 1, 68, 0
1, 134656, Note_off_c, 1, 56, 0
1, 134656, Note_off_c, 1, 73, 0
1, 134659, Note_on_c, 1, 67, 127
1, 134659, Note_on_c, 1, 51, 127
1, 134659, Note_on_c, 1, 59, 127
1, 134659, Note_on_c, 1, 75, 127
1, 134847, Note_off_c, 1, 67, 0
1, 134850, Note_on_c, 1, 68, 127
1, 135037, Note_off_c, 1, 51, 0
1, 135037, Note_off_c, 1, 59, 0
1, 135037, Note_off_c, 1, 75, 0
1, 135038, Note_off_c, 1, 68, 0
1, 135041, Note_on_c, 1, 49, 127
1, 135041, Note_on_c, 1, 70, 127
1, 135041, Note_on_c, 1, 61, 127
1, 135041, Note_on_c, 1, 76, 127
1, 135419, Note_off_c, 1, 49, 0
1, 135419, Note_off_c, 1, 70, 0
1, 135422, Note_on_c, 1, 68, 127
1, 135422, Note_on_c, 1, 55, 127
1, 135610, Note_off_c, 1, 68, 0
1, 135800, Note_off_c, 1, 55, 0
1, 135801, Note_off_c, 1, 61, 0
1, 135801, Note_off_c, 1, 76, 0
1, 135804, Note_on_c, 1, 56, 127
1, 135804, Note_on_c, 1, 59, 127
1, 135804, Note_on_c, 1, 71, 127
1, 135804, Note_on_c, 1, 75, 127
1, 136182, Note_off_c, 1, 56, 0
1, 136182, Note_off_c, 1, 59, 0
1, 136182, Note_off_c, 1, 71, 0
1, 136185, Note_on_c, 1, 47, 127
1, 136185, Note_on_c, 1, 63, 127
1, 136185, Note_on_c, 1, 68, 127
1, 136563, Note_off_c, 1, 47, 0
1, 136563, Note_off_c, 1, 63, 0
1, 136563, Note_off_c, 1, 68, 0
1, 136564, Note_off_c, 1, 75, 0
1, 136567, Note_on_c, 1, 49, 127
1, 136567, Note_on_c, 1, 64, 127
1, 136567, Note_on_c, 1, 70, 127
1, 136567, Note_on_c, 1, 73, 127
1, 136945, Note_off_c, 1, 49, 0
1, 137327, Note_off_c, 1, 64, 0
1, 137327, Note_off_c, 1, 70, 0
1, 137330, Note_on_c, 1, 51, 127
1, 137330, Note_on_c, 1, 63, 127
1, 137330, Note_on_c, 1, 67, 127
1, 137708, Note_off_c, 1, 51, 0
1, 138090, Note_off_c, 1, 63, 0
1, 138090, Note_off_c, 1, 67, 0
1, 138093, Note_on_c, 1, 44, 127
1, 138093, Note_on_c, 1, 68, 127
1, 138472, Note_off_c, 1, 73, 0
1, 138491, Note_off_c, 1, 44, 0
1, 138499, Note_on_c, 1, 79, 127
1, 138499, Note_on_c, 1, 46, 127
1, 138863, Note_off_c, 1, 68, 0
1, 138877, Note_off_c, 1, 79, 0
1, 138877, Note_off_c, 1, 46, 0
1, 138881, Note_on_c, 1, 80, 127
1, 138881, Note_on_c, 1, 47, 127
1, 138881, Note_on_c, 1, 56, 127
1, 139259, Note_off_c, 1, 80, 0
1, 139259, Note_off_c, 1, 47, 0
1, 139262, Note_on_c, 1, 71, 127
1, 139262, Note_on_c, 1, 49, 127
1, 139640, Note_off_c, 1, 71, 0
1, 139640, Note_off_c, 1, 49, 0
1, 139641, Note_off_c, 1, 56, 0
1, 139644, Note_on_c, 1, 70, 127
1, 139644, Note_on_c, 1, 55, 127
1, 139644, Note_on_c, 1, 51, 127
1, 140022, Note_off_c, 1, 70, 0
1, 140022, Note_off_c, 1, 55, 0
1, 140025, Note_on_c, 1, 56, 127
1, 140025, Note_on_c, 1, 79, 127
1, 140213, Note_off_c, 1, 56, 0
1, 140216, Note_on_c, 1, 58, 127
1, 140403, Note_off_c, 1, 79, 0
1, 140404, Note_off_c, 1, 58, 0
1, 140407, Note_on_c, 1, 80, 127
1, 140407, Note_on_c, 1, 59, 127
1, 140785, Note_off_c, 1, 80, 0
1, 140785, Note_off_c, 1, 59, 0
1, 140786, Note_off_c, 1, 51, 0
1, 140789, Note_on_c, 1, 73, 127
1, 140789, Note_on_c, 1, 67, 127
1, 140789, Note_on_c, 1, 58, 127
1, 140789, Note_on_c, 1, 51, 127
1, 141167, Note_off_c, 1, 73, 0
1, 141167, Note_off_c, 1, 67, 0
1, 141167, Note_off_c, 1, 58, 0
1, 141167, Note_off_c, 1, 51, 0
1, 141170, Note_on_c, 1, 71, 127
1, 141170, Note_on_c, 1, 56, 127
1, 141170, Note_on_c, 1, 53, 127
1, 141548, Note_off_c, 1, 71, 0
1, 141548, Note_off_c, 1, 56, 0
1, 141552, Note_on_c, 1, 80, 127
1, 141552, Note_on_c, 1, 62, 127
1, 141930, Note_off_c, 1, 53, 0
1, 141930, Note_off_c, 1, 80, 0
1, 141930, Note_off_c, 1, 62, 0
1, 141933, Note_on_c, 1, 78, 127
1, 141933, Note_on_c, 1, 63, 127
1, 141933, Note_on_c, 1, 51, 127
1, 142311, Note_off_c, 1, 78, 0
1, 142311, Note_off_c, 1, 63, 0
1, 142315, Note_on_c, 1, 70, 127
1, 142315, Note_on_c, 1, 66, 127
1, 142315, Note_on_c, 1, 54, 127
1, 142693, Note_off_c, 1, 70, 0
1, 142693, Note_off_c, 1, 66, 0
1, 142693, Note_off_c, 1, 54, 0
1, 142697, Note_on_c, 1, 68, 127
1, 142697, Note_on_c, 1, 56, 127
1, 142697, Note_on_c, 1, 65, 127
1, 143075, Note_off_c, 1, 68, 0
1, 143075, Note_off_c, 1, 56, 0
1, 143456, Note_off_c, 1, 51, 0
1, 143460, Note_on_c, 1, 77, 127
1, 143460, Note_on_c, 1, 58, 127
1, 143460, Note_on_c, 1, 50, 127
1, 143838, Note_off_c, 1, 77, 0
1, 143838, Note_off_c, 1, 58, 0
1, 143839, Note_off_c, 1, 65, 0
1, 144220, Note_off_c, 1, 50, 0
1, 144605, Note_on_c, 1, 53, 127
1, 144795, Note_on_c, 1, 62, 127
1, 144983, Note_off_c, 1, 53, 0
1, 144983, Note_off_c, 1, 62, 0
1, 145177, Note_on_c, 1, 39, 127
1, 145365, Note_off_c, 1, 39, 0
1, 145368, Note_on_c, 1, 40, 127
1, 145556, Note_off_c, 1, 40, 0
1, 145559, Note_on_c, 1, 42, 127
1, 145747, Note_off_c, 1, 42, 0
1, 145749, Note_on_c, 1, 60, 127
1, 145749, Note_on_c, 1, 44, 127
1, 146127, Note_off_c, 1, 60, 0
1, 146127, Note_off_c, 1, 44, 0
1, 146131, Note_on_c, 1, 61, 127
1, 146131, Note_on_c, 1, 52, 127
1, 146131, Note_on_c, 1, 49, 127
1, 146319, Note_off_c, 1, 61, 0
1, 146319, Note_off_c, 1, 52, 0
1, 146322, Note_on_c, 1, 63, 127
1, 146322, Note_on_c, 1, 54, 127
1, 146510, Note_off_c, 1, 63, 0
1, 146510, Note_off_c, 1, 54, 0
1, 146513, Note_on_c, 1, 64, 127
1, 146513, Note_on_c, 1, 56, 127
1, 146891, Note_off_c, 1, 49, 0
1, 146891, Note_off_c, 1, 64, 0
1, 146891, Note_off_c, 1, 56, 0
1, 146894, Note_on_c, 1, 55, 127
1, 146894, Note_on_c, 1, 63, 127
1, 146894, Note_on_c, 1, 51, 127
1, 147082, Note_off_c, 1, 55, 0
1, 147085, Note_on_c, 1, 56, 127
1, 147272, Note_off_c, 1, 63, 0
1, 147272, Note_off_c, 1, 51, 0
1, 147273, Note_off_c, 1, 56, 0
1, 147276, Note_on_c, 1, 61, 127
1, 147276, Note_on_c, 1, 58, 127
1, 147276, Note_on_c, 1, 52, 127
1, 147654, Note_off_c, 1, 61, 0
1, 147654, Note_off_c, 1, 58, 0
1, 147657, Note_on_c, 1, 56, 127
1, 147657, Note_on_c, 1, 67, 127
1, 147845, Note_off_c, 1, 56, 0
1, 148035, Note_off_c, 1, 67, 0
1, 148036, Note_off_c, 1, 52, 0
1, 148039, Note_on_c, 1, 68, 127
1, 148039, Note_on_c, 1, 59, 127
1, 148039, Note_on_c, 1, 51, 127
1, 148417, Note_off_c, 1, 68, 0
1, 148417, Note_off_c, 1, 59, 0
1, 148421, Note_on_c, 1, 56, 127
1, 148799, Note_off_c, 1, 51, 0
1, 148799, Note_off_c, 1, 56, 0
1, 148802, Note_on_c, 1, 61, 127
1, 148802, Note_on_c, 1, 58, 127
1, 148802, Note_on_c, 1, 49, 127
1, 149180, Note_off_c, 1, 61, 0
1, 149562, Note_off_c, 1, 58, 0
1, 149565, Note_on_c, 1, 63, 127
1, 149565, Note_on_c, 1, 55, 127
1, 149943, Note_off_c, 1, 63, 0
1, 150320, Note_off_c, 1, 55, 0
1, 150331, Note_on_c, 1, 56, 127
1, 150710, Note_off_c, 1, 49, 0
1, 150713, Note_on_c, 1, 47, 127
1, 150713, Note_on_c, 1, 67, 127
1, 150901, Note_off_c, 1, 47, 0
1, 150904, Note_on_c, 1, 46, 127
1, 150999, Note_off_c, 1, 67, 0
1, 151092, Note_off_c, 1, 46, 0
1, 151095, Note_on_c, 1, 68, 127
1, 151285, Note_on_c, 1, 44, 127
1, 151473, Note_off_c, 1, 56, 0
1, 151473, Note_off_c, 1, 44, 0
1, 151476, Note_on_c, 1, 59, 127
1, 151476, Note_on_c, 1, 50, 127
1, 151854, Note_off_c, 1, 59, 0
1, 151854, Note_off_c, 1, 50, 0
1, 151858, Note_on_c, 1, 51, 127
1, 152237, Note_off_c, 1, 68, 0
1, 152239, Note_on_c, 1, 66, 127
1, 152427, Note_off_c, 1, 66, 0
1, 152430, Note_on_c, 1, 65, 127
1, 152618, Note_off_c, 1, 65, 0
1, 153003, Note_on_c, 1, 69, 127
1, 153003, Note_on_c, 1, 60, 127
1, 153321, Note_off_c, 1, 69, 0
1, 153381, Note_off_c, 1, 60, 0
1, 153384, Note_on_c, 1, 53, 127
1, 153384, Note_on_c, 1, 70, 127
1, 153762, Note_off_c, 1, 53, 0
1, 153763, Note_off_c, 1, 51, 0
1, 153957, Note_on_c, 1, 48, 127
1, 154145, Note_off_c, 1, 48, 0
1, 154529, Note_on_c, 1, 52, 127
1, 154907, Note_off_c, 1, 52, 0
1, 155289, Note_off_c, 1, 70, 0
1, 156440, Note_on_c, 1, 72, 127
1, 157966, Note_on_c, 1, 54, 127
1, 158345, Note_off_c, 1, 72, 0
1, 159111, Note_on_c, 1, 73, 127
1, 159298, Note_off_c, 1, 54, 0
1, 159866, Note_off_c, 1, 73, 0
1, 160256, Note_on_c, 1, 69, 127
1, 160256, Note_on_c, 1, 60, 127
1, 160256, Note_on_c, 1, 75, 127
1, 160256, Note_on_c, 1, 53, 127
1, 160444, Note_off_c, 1, 69, 0
1, 160444, Note_off_c, 1, 60, 0
1, 160446, Note_on_c, 1, 70, 127
1, 160446, Note_on_c, 1, 58, 127
1, 160634, Note_off_c, 1, 70, 0
1, 160634, Note_off_c, 1, 58, 0
1, 160637, Note_on_c, 1, 67, 127
1, 160825, Note_off_c, 1, 67, 0
1, 161016, Note_off_c, 1, 75, 0
1, 161016, Note_off_c, 1, 53, 0
1, 161019, Note_on_c, 1, 46, 127
1, 161019, Note_on_c, 1, 74, 127
1, 161019, Note_on_c, 1, 58, 127
1, 161019, Note_on_c, 1, 70, 127
1, 161397, Note_off_c, 1, 46, 0
1, 161400, Note_off_c, 1, 74, 0
1, 161400, Note_off_c, 1, 58, 0
1, 161403, Note_on_c, 1, 75, 127
1, 161403, Note_on_c, 1, 60, 127
1, 161591, Note_off_c, 1, 75, 0
1, 161591, Note_off_c, 1, 60, 0
1, 161594, Note_on_c, 1, 77, 127
1, 161594, Note_on_c, 1, 62, 127
1, 161782, Note_off_c, 1, 77, 0
1, 161782, Note_off_c, 1, 62, 0
1, 161785, Note_on_c, 1, 78, 127
1, 161785, Note_on_c, 1, 63, 127
1, 162163, Note_off_c, 1, 78, 0
1, 162163, Note_off_c, 1, 63, 0
1, 162166, Note_on_c, 1, 65, 127
1, 162544, Note_off_c, 1, 65, 0
1, 162548, Note_on_c, 1, 66, 127
1, 162927, Note_off_c, 1, 70, 0
1, 162929, Note_on_c, 1, 81, 127
1, 162929, Note_on_c, 1, 72, 127
1, 163307, Note_off_c, 1, 81, 0
1, 163307, Note_off_c, 1, 72, 0
1, 163311, Note_on_c, 1, 82, 127
1, 163311, Note_on_c, 1, 73, 127
1, 163499, Note_off_c, 1, 66, 0
1, 163502, Note_on_c, 1, 68, 127
1, 163689, Note_off_c, 1, 82, 0
1, 163689, Note_off_c, 1, 73, 0
1, 163690, Note_off_c, 1, 68, 0
1, 163693, Note_on_c, 1, 66, 127
1, 163693, Note_on_c, 1, 73, 127
1, 163693, Note_on_c, 1, 70, 127
1, 163881, Note_off_c, 1, 66, 0
1, 163883, Note_on_c, 1, 65, 127
1, 164071, Note_off_c, 1, 73, 0
1, 164071, Note_off_c, 1, 70, 0
1, 164071, Note_off_c, 1, 65, 0
1, 164074, Note_on_c, 1, 63, 127
1, 164074, Note_on_c, 1, 75, 127
1, 164074, Note_on_c, 1, 71, 127
1, 164262, Note_off_c, 1, 63, 0
1, 164265, Note_on_c, 1, 61, 127
1, 164452, Note_off_c, 1, 75, 0
1, 164453, Note_off_c, 1, 61, 0
1, 164456, Note_on_c, 1, 59, 127
1, 164644, Note_off_c, 1, 59, 0
1, 164647, Note_on_c, 1, 58, 127
1, 164835, Note_off_c, 1, 58, 0
1, 164837, Note_on_c, 1, 77, 127
1, 164837, Note_on_c, 1, 56, 127
1, 165028, Note_off_c, 1, 71, 0
1, 165215, Note_off_c, 1, 77, 0
1, 165597, Note_off_c, 1, 56, 0
1, 165601, Note_on_c, 1, 70, 127
1, 165601, Note_on_c, 1, 54, 127
1, 165601, Note_on_c, 1, 63, 127
1, 165979, Note_off_c, 1, 70, 0
1, 165979, Note_off_c, 1, 54, 0
1, 165982, Note_on_c, 1, 77, 127
1, 165982, Note_on_c, 1, 56, 127
1, 166360, Note_off_c, 1, 77, 0
1, 166360, Note_off_c, 1, 56, 0
1, 166361, Note_off_c, 1, 63, 0
1, 166364, Note_on_c, 1, 61, 127
1, 166364, Note_on_c, 1, 58, 127
1, 166364, Note_on_c, 1, 54, 127
1, 166364, Note_on_c, 1, 78, 127
1, 166742, Note_off_c, 1, 61, 0
1, 166742, Note_off_c, 1, 58, 0
1, 166745, Note_on_c, 1, 70, 127
1, 167123, Note_off_c, 1, 70, 0
1, 167124, Note_off_c, 1, 54, 0
1, 167127, Note_on_c, 1, 51, 127
1, 167127, Note_on_c, 1, 71, 127
1, 167127, Note_on_c, 1, 63, 127
1, 167505, Note_off_c, 1, 51, 0
1, 167506, Note_off_c, 1, 78, 0
1, 167509, Note_on_c, 1, 52, 127
1, 167509, Note_on_c, 1, 82, 127
1, 167697, Note_off_c, 1, 52, 0
1, 167887, Note_off_c, 1, 82, 0
1, 167890, Note_on_c, 1, 56, 127
1, 167890, Note_on_c, 1, 83, 127
1, 168078, Note_off_c, 1, 71, 0
1, 168081, Note_on_c, 1, 75, 127
1, 168268, Note_off_c, 1, 56, 0
1, 168269, Note_off_c, 1, 75, 0
1, 168272, Note_on_c, 1, 76, 127
1, 168460, Note_off_c, 1, 76, 0
1, 168650, Note_off_c, 1, 63, 0
1, 168653, Note_on_c, 1, 80, 127
1, 169031, Note_off_c, 1, 80, 0
1, 169034, Note_off_c, 1, 83, 0
1, 169419, Note_on_c, 1, 59, 127
1, 169419, Note_on_c, 1, 75, 127
1, 169797, Note_off_c, 1, 59, 0
1, 169801, Note_on_c, 1, 66, 127
1, 169801, Note_on_c, 1, 51, 127
1, 170179, Note_off_c, 1, 75, 0
1, 170179, Note_off_c, 1, 66, 0
1, 170179, Note_off_c, 1, 51, 0
1, 170182, Note_on_c, 1, 68, 127
1, 170182, Note_on_c, 1, 52, 127
1, 170182, Note_on_c, 1, 59, 127
1, 170182, Note_on_c, 1, 73, 127
1, 170560, Note_off_c, 1, 68, 0
1, 170560, Note_off_c, 1, 52, 0
1, 170564, Note_on_c, 1, 70, 127
1, 170752, Note_off_c, 1, 70, 0
1, 170755, Note_on_c, 1, 71, 127
1, 170942, Note_off_c, 1, 59, 0
1, 170943, Note_off_c, 1, 71, 0
1, 170946, Note_on_c, 1, 54, 127
1, 170946, Note_on_c, 1, 58, 127
1, 170946, Note_on_c, 1, 64, 127
1, 171324, Note_off_c, 1, 54, 0
1, 171706, Note_off_c, 1, 58, 0
1, 171709, Note_on_c, 1, 47, 127
1, 172087, Note_off_c, 1, 47, 0
1, 172088, Note_off_c, 1, 64, 0
1, 172090, Note_on_c, 1, 63, 127
1, 172090, Note_on_c, 1, 46, 127
1, 172278, Note_off_c, 1, 63, 0
1, 172281, Note_on_c, 1, 61, 127
1, 172468, Note_off_c, 1, 73, 0
1, 172468, Note_off_c, 1, 46, 0
1, 172469, Note_off_c, 1, 61, 0
1, 172472, Note_on_c, 1, 63, 127
1, 172472, Note_on_c, 1, 44, 127
1, 172472, Note_on_c, 1, 71, 127
1, 172660, Note_off_c, 1, 63, 0
1, 172663, Note_on_c, 1, 59, 127
1, 172850, Note_off_c, 1, 44, 0
1, 172851, Note_off_c, 1, 59, 0
1, 172854, Note_on_c, 1, 49, 127
1, 172854, Note_on_c, 1, 65, 127
1, 173222, Note_off_c, 1, 49, 0
1, 173235, Note_off_c, 1, 65, 0
1, 173238, Note_on_c, 1, 42, 127
1, 173238, Note_on_c, 1, 66, 127
1, 173616, Note_off_c, 1, 71, 0
1, 173616, Note_off_c, 1, 42, 0
1, 173620, Note_on_c, 1, 70, 127
1, 173620, Note_on_c, 1, 40, 127
1, 173808, Note_off_c, 1, 70, 0
1, 173810, Note_on_c, 1, 68, 127
1, 173998, Note_off_c, 1, 40, 0
1, 173998, Note_off_c, 1, 68, 0
1, 174001, Note_on_c, 1, 39, 127
1, 174379, Note_off_c, 1, 39, 0
1, 174383, Note_on_c, 1, 72, 127
1, 174764, Note_off_c, 1, 72, 0
1, 174767, Note_on_c, 1, 73, 127
1, 175148, Note_off_c, 1, 66, 0
1, 175149, Note_on_c, 1, 64, 127
1, 175149, Note_on_c, 1, 47, 127
1, 175337, Note_off_c, 1, 64, 0
1, 175527, Note_off_c, 1, 47, 0
1, 175530, Note_on_c, 1, 46, 127
1, 175721, Note_on_c, 1, 61, 127
1, 175908, Note_off_c, 1, 46, 0
1, 175909, Note_off_c, 1, 61, 0
1, 175912, Note_on_c, 1, 51, 127
1, 175912, Note_on_c, 1, 67, 127
1, 176280, Note_off_c, 1, 51, 0
1, 176293, Note_off_c, 1, 67, 0
1, 176675, Note_off_c, 1, 73, 0
1, 177059, Note_on_c, 1, 41, 127
1, 177437, Note_off_c, 1, 41, 0
1, 177441, Note_on_c, 1, 74, 127
1, 177822, Note_off_c, 1, 74, 0
1, 177825, Note_on_c, 1, 75, 127
1, 178203, Note_off_c, 1, 75, 0
1, 179351, Note_on_c, 1, 52, 127
1, 179351, Note_on_c, 1, 73, 127
1, 179351, Note_on_c, 1, 64, 127
1, 179729, Note_off_c, 1, 52, 0
1, 180111, Note_off_c, 1, 73, 0
1, 180115, Note_on_c, 1, 71, 127
1, 180115, Note_on_c, 1, 54, 127
1, 180205, Note_on_c, 1, 70, 127
1, 180215, Note_off_c, 1, 71, 0
1, 180305, Note_off_c, 1, 70, 0
1, 180493, Note_off_c, 1, 54, 0
1, 180878, Note_on_c, 1, 47, 127
1, 181450, Note_on_c, 1, 68, 127
1, 181637, Note_off_c, 1, 64, 0
1, 181638, Note_off_c, 1, 68, 0
1, 181641, Note_on_c, 1, 67, 127
1, 181641, Note_on_c, 1, 63, 127
1, 181951, Note_off_c, 1, 47, 0
1, 182019, Note_off_c, 1, 67, 0
1, 182401, Note_off_c, 1, 63, 0
1, 182404, Note_on_c, 1, 49, 127
1, 182404, Note_on_c, 1, 70, 127
1, 182404, Note_on_c, 1, 61, 127
1, 182782, Note_off_c, 1, 49, 0
1, 183164, Note_off_c, 1, 70, 0
1, 183167, Note_on_c, 1, 68, 127
1, 183167, Note_on_c, 1, 51, 127
1, 183277, Note_on_c, 1, 67, 127
1, 183287, Note_off_c, 1, 68, 0
1, 183387, Note_on_c, 1, 65, 127
1, 183397, Note_off_c, 1, 67, 0
1, 183507, Note_off_c, 1, 65, 0
1, 183545, Note_off_c, 1, 51, 0
1, 183931, Note_on_c, 1, 44, 127
1, 184317, Note_off_c, 1, 61, 0
1, 184317, Note_off_c, 1, 44, 0
1, 184320, Note_on_c, 1, 59, 127
1, 184320, Note_on_c, 1, 46, 127
1, 184510, Note_off_c, 1, 59, 0
1, 184704, Note_off_c, 1, 46, 0
1, 184707, Note_on_c, 1, 63, 127
1, 184707, Note_on_c, 1, 47, 127
1, 184707, Note_on_c, 1, 56, 127
1, 185093, Note_off_c, 1, 63, 0
1, 185093, Note_off_c, 1, 47, 0
1, 185097, Note_on_c, 1, 61, 127
1, 185097, Note_on_c, 1, 49, 127
1, 185287, Note_off_c, 1, 61, 0
1, 185290, Note_on_c, 1, 59, 127
1, 185480, Note_off_c, 1, 56, 0
1, 185480, Note_off_c, 1, 59, 0
1, 185481, Note_off_c, 1, 49, 0
1, 185484, Note_on_c, 1, 58, 127
1, 185484, Note_on_c, 1, 55, 127
1, 185484, Note_on_c, 1, 51, 127
1, 185870, Note_off_c, 1, 58, 0
1, 185870, Note_off_c, 1, 55, 0
1, 185870, Note_off_c, 1, 51, 0
1, 185873, Note_on_c, 1, 60, 127
1, 185873, Note_on_c, 1, 56, 127
1, 185873, Note_on_c, 1, 54, 127
1, 185873, Note_on_c, 1, 68, 127
1, 186063, Note_off_c, 1, 60, 0
1, 186063, Note_off_c, 1, 56, 0
1, 186067, Note_on_c, 1, 61, 127
1, 186067, Note_on_c, 1, 58, 127
1, 186257, Note_off_c, 1, 61, 0
1, 186257, Note_off_c, 1, 58, 0
1, 186260, Note_on_c, 1, 63, 127
1, 186450, Note_off_c, 1, 54, 0
1, 186644, Note_off_c, 1, 68, 0
1, 186644, Note_off_c, 1, 63, 0
1, 186647, Note_on_c, 1, 62, 127
1, 186647, Note_on_c, 1, 54, 127
1, 186647, Note_on_c, 1, 70, 127
1, 186647, Note_on_c, 1, 58, 127
1, 186837, Note_off_c, 1, 62, 0
1, 186837, Note_off_c, 1, 54, 0
1, 186840, Note_on_c, 1, 63, 127
1, 186840, Note_on_c, 1, 53, 127
1, 187030, Note_off_c, 1, 63, 0
1, 187030, Note_off_c, 1, 53, 0
1, 187031, Note_off_c, 1, 70, 0
1, 187031, Note_off_c, 1, 58, 0
1, 187034, Note_on_c, 1, 51, 127
1, 187034, Note_on_c, 1, 65, 127
1, 187034, Note_on_c, 1, 56, 127
1, 187034, Note_on_c, 1, 71, 127
1, 187224, Note_off_c, 1, 51, 0
1, 187227, Note_on_c, 1, 50, 127
1, 187417, Note_off_c, 1, 50, 0
1, 187418, Note_off_c, 1, 65, 0
1, 187418, Note_off_c, 1, 56, 0
1, 187421, Note_on_c, 1, 63, 127
1, 187421, Note_on_c, 1, 48, 127
1, 187421, Note_on_c, 1, 62, 127
1, 187611, Note_off_c, 1, 63, 0
1, 187611, Note_off_c, 1, 48, 0
1, 187614, Note_on_c, 1, 46, 127
1, 187804, Note_off_c, 1, 46, 0
1, 187805, Note_off_c, 1, 71, 0
1, 187805, Note_off_c, 1, 62, 0
1, 187808, Note_on_c, 1, 44, 127
1, 187808, Note_on_c, 1, 66, 127
1, 187808, Note_on_c, 1, 63, 127
1, 187808, Note_on_c, 1, 70, 127
1, 187998, Note_off_c, 1, 44, 0
1, 188001, Note_on_c, 1, 42, 127
1, 188191, Note_off_c, 1, 42, 0
1, 188192, Note_off_c, 1, 66, 0
1, 188192, Note_off_c, 1, 63, 0
1, 188195, Note_on_c, 1, 54, 127
1, 188388, Note_on_c, 1, 46, 127
1, 188578, Note_off_c, 1, 46, 0
1, 188579, Note_off_c, 1, 70, 0
1, 188579, Note_off_c, 1, 54, 0
1, 188581, Note_on_c, 1, 56, 127
1, 188581, Note_on_c, 1, 65, 127
1, 188581, Note_on_c, 1, 47, 127
1, 188581, Note_on_c, 1, 68, 127
1, 188967, Note_off_c, 1, 56, 0
1, 189357, Note_off_c, 1, 65, 0
1, 189357, Note_off_c, 1, 47, 0
1, 189361, Note_on_c, 1, 58, 127
1, 189361, Note_on_c, 1, 46, 127
1, 189361, Note_on_c, 1, 62, 127
1, 189747, Note_off_c, 1, 58, 0
1, 189747, Note_off_c, 1, 46, 0
1, 189750, Note_on_c, 1, 44, 127
1, 190136, Note_off_c, 1, 44, 0
1, 190137, Note_off_c, 1, 62, 0
1, 190140, Note_on_c, 1, 63, 127
1, 190140, Note_on_c, 1, 42, 127
1, 190140, Note_on_c, 1, 51, 127
1, 190526, Note_off_c, 1, 63, 0
1, 190526, Note_off_c, 1, 42, 0
1, 190529, Note_on_c, 1, 61, 127
1, 190719, Note_off_c, 1, 61, 0
1, 190723, Note_on_c, 1, 59, 127
1, 190913, Note_off_c, 1, 68, 0
1, 190913, Note_off_c, 1, 59, 0
1, 190916, Note_on_c, 1, 39, 127
1, 190916, Note_on_c, 1, 66, 127
1, 191303, Note_off_c, 1, 51, 0
1, 191499, Note_off_c, 1, 39, 0
1, 191689, Note_off_c, 1, 66, 0
1, 191693, Note_on_c, 1, 52, 127
1, 191693, Note_on_c, 1, 61, 127
1, 191693, Note_on_c, 1, 64, 127
1, 192079, Note_off_c, 1, 52, 0
1, 192469, Note_off_c, 1, 61, 0
1, 192472, Note_on_c, 1, 54, 127
1, 192472, Note_on_c, 1, 58, 127
1, 192858, Note_off_c, 1, 54, 0
1, 193248, Note_off_c, 1, 58, 0
1, 193251, Note_on_c, 1, 47, 127
1, 193251, Note_on_c, 1, 59, 127
1, 193441, Note_off_c, 1, 47, 0
1, 193444, Note_on_c, 1, 51, 127
1, 193634, Note_off_c, 1, 51, 0
1, 193635, Note_off_c, 1, 64, 0
1, 193638, Note_on_c, 1, 63, 127
1, 194022, Note_off_c, 1, 63, 0
1, 194025, Note_on_c, 1, 71, 127
1, 194025, Note_on_c, 1, 56, 127
1, 194411, Note_off_c, 1, 59, 0
1, 194414, Note_on_c, 1, 44, 127
1, 194800, Note_off_c, 1, 44, 0
1, 194804, Note_on_c, 1, 45, 127
1, 195190, Note_off_c, 1, 45, 0
1, 195580, Note_off_c, 1, 71, 0
1, 195580, Note_off_c, 1, 56, 0
1, 195583, Note_on_c, 1, 63, 127
1, 195583, Note_on_c, 1, 47, 127
1, 195583, Note_on_c, 1, 54, 127
1, 195583, Note_on_c, 1, 69, 127
1, 195969, Note_off_c, 1, 63, 0
1, 195969, Note_off_c, 1, 47, 0
1, 196359, Note_off_c, 1, 54, 0
1, 196362, Note_on_c, 1, 64, 127
1, 196362, Note_on_c, 1, 52, 127
1, 196362, Note_on_c, 1, 40, 127
1, 196552, Note_off_c, 1, 64, 0
1, 196555, Note_on_c, 1, 59, 127
1, 196745, Note_off_c, 1, 59, 0
1, 196749, Note_on_c, 1, 61, 127
1, 196939, Note_off_c, 1, 61, 0
1, 197127, Note_off_c, 1, 52, 0
1, 197133, Note_off_c, 1, 69, 0
1, 197133, Note_off_c, 1, 40, 0
1, 197136, Note_on_c, 1, 64, 127
1, 197136, Note_on_c, 1, 52, 127
1, 197523, Note_on_c, 1, 68, 127
1, 197523, Note_on_c, 1, 59, 127
1, 197909, Note_off_c, 1, 64, 0
1, 197909, Note_off_c, 1, 68, 0
1, 197909, Note_off_c, 1, 59, 0
1, 197912, Note_on_c, 1, 70, 127
1, 197912, Note_on_c, 1, 61, 127
1, 197912, Note_on_c, 1, 66, 127
1, 198298, Note_off_c, 1, 70, 0
1, 198298, Note_off_c, 1, 61, 0
1, 198688, Note_off_c, 1, 52, 0
1, 198691, Note_on_c, 1, 72, 127
1, 198691, Note_on_c, 1, 63, 127
1, 198691, Note_on_c, 1, 51, 127
1, 199077, Note_off_c, 1, 72, 0
1, 199077, Note_off_c, 1, 63, 0
1, 199467, Note_off_c, 1, 51, 0
1, 199470, Note_on_c, 1, 49, 127
1, 199470, Note_on_c, 1, 73, 127
1, 199470, Note_on_c, 1, 56, 127
1, 199666, Note_off_c, 1, 66, 0
1, 199864, Note_off_c, 1, 49, 0
1, 200657, Note_off_c, 1, 73, 0
1, 200660, Note_on_c, 1, 54, 127
1, 201054, Note_off_c, 1, 56, 0
1, 201054, Note_off_c, 1, 54, 0
1, 201058, Note_on_c, 1, 72, 127
1, 201058, Note_on_c, 1, 63, 127
1, 201058, Note_on_c, 1, 56, 127
1, 201450, Note_off_c, 1, 72, 0
1, 201450, Note_off_c, 1, 63, 0
1, 201452, Note_on_c, 1, 73, 127
1, 201452, Note_on_c, 1, 58, 127
1, 201452, Note_on_c, 1, 68, 127
1, 201648, Note_off_c, 1, 73, 0
1, 201648, Note_off_c, 1, 58, 0
1, 201651, Note_on_c, 1, 75, 127
1, 201651, Note_on_c, 1, 60, 127
1, 201847, Note_off_c, 1, 75, 0
1, 201847, Note_off_c, 1, 60, 0
1, 201850, Note_on_c, 1, 76, 127
1, 201850, Note_on_c, 1, 61, 127
1, 202241, Note_off_c, 1, 68, 0
1, 202242, Note_off_c, 1, 76, 0
1, 202242, Note_off_c, 1, 61, 0
1, 202245, Note_on_c, 1, 67, 127
1, 202441, Note_off_c, 1, 67, 0
1, 202642, Note_on_c, 1, 70, 127
1, 202642, Note_on_c, 1, 64, 127
1, 203034, Note_off_c, 1, 70, 0
1, 203037, Note_on_c, 1, 79, 127
1, 203431, Note_off_c, 1, 64, 0
1, 203431, Note_off_c, 1, 79, 0
1, 203435, Note_on_c, 1, 80, 127
1, 203435, Note_on_c, 1, 71, 127
1, 203827, Note_off_c, 1, 80, 0
1, 203827, Note_off_c, 1, 71, 0
1, 204224, Note_on_c, 1, 69, 127
1, 205011, Note_off_c, 1, 56, 0
1, 205011, Note_off_c, 1, 69, 0
1, 205014, Note_on_c, 1, 75, 127
1, 205014, Note_on_c, 1, 69, 127
1, 205014, Note_on_c, 1, 66, 127
1, 205014, Note_on_c, 1, 54, 127
1, 205406, Note_off_c, 1, 75, 0
1, 205801, Note_off_c, 1, 69, 0
1, 205801, Note_off_c, 1, 66, 0
1, 205804, Note_on_c, 1, 68, 127
1, 205804, Note_on_c, 1, 63, 127
1, 205804, Note_on_c, 1, 60, 127
1, 206196, Note_off_c, 1, 68, 0
1, 206199, Note_on_c, 1, 72, 127
1, 206585, Note_off_c, 1, 63, 0
1, 206585, Note_off_c, 1, 60, 0
1, 206590, Note_off_c, 1, 54, 0
1, 206591, Note_off_c, 1, 72, 0
1, 206593, Note_on_c, 1, 73, 127
1, 207018, Note_on_c, 1, 52, 127
1, 207018, Note_on_c, 1, 64, 127
1, 207018, Note_on_c, 1, 68, 127
1, 207423, Note_off_c, 1, 52, 0
1, 207423, Note_off_c, 1, 64, 0
1, 207423, Note_off_c, 1, 68, 0
1, 207426, Note_on_c, 1, 43, 127
1, 207426, Note_on_c, 1, 63, 127
1, 207426, Note_on_c, 1, 70, 127
1, 207831, Note_off_c, 1, 43, 0
1, 208222, Note_off_c, 1, 73, 0
1, 208239, Note_off_c, 1, 63, 0
1, 208239, Note_off_c, 1, 70, 0
1, 208242, Note_on_c, 1, 44, 127
1, 208242, Note_on_c, 1, 68, 127
1, 208242, Note_on_c, 1, 63, 127
1, 208242, Note_on_c, 1, 71, 127
1, 208647, Note_off_c, 1, 44, 0
1, 208647, Note_off_c, 1, 68, 0
1, 208650, Note_on_c, 1, 66, 127
1, 209055, Note_off_c, 1, 63, 0
1, 209055, Note_off_c, 1, 66, 0
1, 209058, Note_on_c, 1, 37, 127
1, 209058, Note_on_c, 1, 64, 127
1, 209058, Note_on_c, 1, 61, 127
1, 209471, Note_off_c, 1, 37, 0
1, 209471, Note_off_c, 1, 64, 0
1, 209474, Note_on_c, 1, 39, 127
1, 209882, Note_off_c, 1, 61, 0
1, 209887, Note_off_c, 1, 71, 0
1, 209887, Note_off_c, 1, 39, 0
1, 209890, Note_on_c, 1, 70, 127
1, 209890, Note_on_c, 1, 40, 127
1, 209890, Note_on_c, 1, 61, 127
1, 210303, Note_off_c, 1, 70, 0
1, 210306, Note_on_c, 1, 49, 127
1, 210306, Note_on_c, 1, 68, 127
1, 210719, Note_off_c, 1, 40, 0
1, 210719, Note_off_c, 1, 49, 0
1, 210719, Note_off_c, 1, 68, 0
1, 210722, Note_on_c, 1, 67, 127
1, 210722, Note_on_c, 1, 39, 127
1, 210722, Note_on_c, 1, 51, 127
1, 211177, Note_off_c, 1, 61, 0
1, 211177, Note_off_c, 1, 67, 0
1, 211181, Note_on_c, 1, 59, 127
1, 211636, Note_off_c, 1, 59, 0
1, 211639, Note_on_c, 1, 58, 127
1, 212632, Note_off_c, 1, 39, 0
1, 212632, Note_off_c, 1, 51, 0
1, 212632, Note_off_c, 1, 58, 0
1, 212636, Note_on_c, 1, 44, 127
1, 212636, Note_on_c, 1, 51, 127
1, 212636, Note_on_c, 1, 59, 127
1, 212636, Note_on_c, 1, 68, 127
1, 216613, Note_off_c, 1, 44, 0
1, 216613, Note_off_c, 1, 51, 0
1, 216613, Note_off_c, 1, 59, 0
1, 216613, Note_off_c, 1, 68, 0
1, 216613, End_track
0, 0, End_of_file