0, 0, Header, 1, 1, 480
1, 0, Start_track
1, 0, Title_t, "Test"
1, 0, Tempo, 500000
1, 0, Instrument_name_t, "Church Organ"
1, 65, Note_on_c, 1, 74, 127
1, 215, Note_off_c, 1, 74, 0
1, 247, Note_on_c, 1, 74, 127
1, 247, Note_on_c, 1, 50, 127
1, 429, Note_on_c, 1, 69, 127
1, 608, Note_off_c, 1, 69, 0
1, 612, Note_on_c, 1, 70, 127
1, 791, Note_off_c, 1, 70, 0
1, 793, Note_on_c, 1, 67, 127
1, 972, Note_off_c, 1, 67, 0
1, 1005, Note_off_c, 1, 74, 0
1, 1157, Note_on_c, 1, 65, 127
1, 1336, Note_off_c, 1, 65, 0
1, 1340, Note_on_c, 1, 64, 127
1, 1519, Note_off_c, 1, 64, 0
1, 1522, Note_on_c, 1, 62, 127
1, 1701, Note_off_c, 1, 62, 0
1, 1704, Note_on_c, 1, 61, 127
1, 2068, Note_on_c, 1, 76, 127
1, 2247, Note_off_c, 1, 76, 0
1, 2251, Note_on_c, 1, 79, 127
1, 2611, Note_off_c, 1, 79, 0
1, 2796, Note_on_c, 1, 77, 127
1, 2975, Note_off_c, 1, 77, 0
1, 3158, Note_off_c, 1, 61, 0
1, 3377, Note_off_c, 1, 50, 0
1, 3526, Note_on_c, 1, 57, 127
1, 3876, Note_off_c, 1, 57, 0
1, 3890, Note_on_c, 1, 62, 127
1, 3890, Note_on_c, 1, 77, 127
1, 3978, Note_off_c, 1, 62, 0
1, 3981, Note_on_c, 1, 60, 127
1, 4069, Note_off_c, 1, 60, 0
1, 4071, Note_on_c, 1, 69, 127
1, 4250, Note_off_c, 1, 69, 0
1, 4254, Note_on_c, 1, 70, 127
1, 4433, Note_off_c, 1, 70, 0
1, 4437, Note_on_c, 1, 65, 127
1, 4610, Note_off_c, 1, 77, 0
1, 4616, Note_off_c, 1, 65, 0
1, 4618, Note_on_c, 1, 67, 127
1, 4801, Note_on_c, 1, 76, 127
1, 5163, Note_off_c, 1, 76, 0
1, 5165, Note_on_c, 1, 58, 127
1, 5277, Note_off_c, 1, 67, 0
1, 5344, Note_off_c, 1, 58, 0
1, 5346, Note_on_c, 1, 81, 127
1, 5346, Note_on_c, 1, 60, 127
1, 5346, Note_on_c, 1, 64, 127
1, 5525, Note_off_c, 1, 81, 0
1, 5529, Note_on_c, 1, 76, 127
1, 5708, Note_off_c, 1, 60, 0
1, 5708, Note_off_c, 1, 64, 0
1, 5708, Note_off_c, 1, 76, 0
1, 5710, Note_on_c, 1, 77, 127
1, 5710, Note_on_c, 1, 57, 127
1, 5710, Note_on_c, 1, 69, 127
1, 5889, Note_off_c, 1, 77, 0
1, 5893, Note_on_c, 1, 73, 127
1, 6072, Note_off_c, 1, 57, 0
1, 6072, Note_off_c, 1, 73, 0
1, 6076, Note_on_c, 1, 58, 127
1, 6076, Note_on_c, 1, 74, 127
1, 6202, Note_off_c, 1, 69, 0
1, 6438, Note_off_c, 1, 58, 0
1, 6440, Note_on_c, 1, 70, 127
1, 6619, Note_off_c, 1, 70, 0
1, 6621, Note_on_c, 1, 65, 127
1, 6800, Note_off_c, 1, 65, 0
1, 6804, Note_on_c, 1, 67, 127
1, 6967, Note_off_c, 1, 74, 0
1, 7168, Note_on_c, 1, 76, 127
1, 7168, Note_on_c, 1, 55, 127
1, 7347, Note_off_c, 1, 76, 0
1, 7350, Note_on_c, 1, 79, 127
1, 7529, Note_off_c, 1, 79, 0
1, 7530, Note_off_c, 1, 55, 0
1, 7896, Note_on_c, 1, 71, 127
1, 8075, Note_off_c, 1, 71, 0
1, 8207, Note_off_c, 1, 67, 0
1, 8260, Note_on_c, 1, 54, 127
1, 8260, Note_on_c, 1, 72, 127
1, 8443, Note_on_c, 1, 67, 127
1, 8622, Note_off_c, 1, 54, 0
1, 8622, Note_off_c, 1, 67, 0
1, 8625, Note_on_c, 1, 69, 127
1, 8625, Note_on_c, 1, 50, 127
1, 8804, Note_off_c, 1, 69, 0
1, 8807, Note_on_c, 1, 66, 127
1, 8986, Note_off_c, 1, 66, 0
1, 8987, Note_off_c, 1, 50, 0
1, 8990, Note_on_c, 1, 55, 127
1, 9169, Note_off_c, 1, 72, 0
1, 9171, Note_on_c, 1, 70, 127
1, 9352, Note_off_c, 1, 55, 0
1, 9354, Note_on_c, 1, 62, 127
1, 9354, Note_on_c, 1, 43, 127
1, 9533, Note_off_c, 1, 62, 0
1, 9535, Note_on_c, 1, 65, 127
1, 9685, Note_off_c, 1, 43, 0
1, 9714, Note_off_c, 1, 65, 0
1, 9718, Note_on_c, 1, 63, 127
1, 9897, Note_off_c, 1, 63, 0
1, 10082, Note_on_c, 1, 61, 127
1, 10261, Note_off_c, 1, 61, 0
1, 10574, Note_off_c, 1, 70, 0
1, 10629, Note_on_c, 1, 64, 127
1, 10808, Note_off_c, 1, 64, 0
1, 10993, Note_on_c, 1, 53, 127
1, 11083, Note_off_c, 1, 53, 0
1, 11084, Note_on_c, 1, 52, 127
1, 11174, Note_off_c, 1, 52, 0
1, 11357, Note_on_c, 1, 57, 127
1, 11536, Note_off_c, 1, 57, 0
1, 12450, Note_on_c, 1, 59, 127
1, 12629, Note_off_c, 1, 59, 0
1, 13360, Note_on_c, 1, 67, 127
1, 13360, Note_on_c, 1, 50, 127
1, 13539, Note_off_c, 1, 67, 0
1, 13543, Note_on_c, 1, 65, 127
1, 13713, Note_off_c, 1, 65, 0
1, 13725, Note_on_c, 1, 64, 127
1, 13904, Note_off_c, 1, 64, 0
1, 13907, Note_on_c, 1, 62, 127
1, 14057, Note_off_c, 1, 62, 0
1, 14080, Note_off_c, 1, 50, 0
1, 14089, Note_on_c, 1, 70, 127
1, 14177, Note_off_c, 1, 70, 0
1, 14180, Note_on_c, 1, 69, 127
1, 14268, Note_off_c, 1, 69, 0
1, 14271, Note_on_c, 1, 62, 127
1, 14271, Note_on_c, 1, 70, 127
1, 14450, Note_off_c, 1, 62, 0
1, 14453, Note_on_c, 1, 60, 127
1, 14632, Note_off_c, 1, 60, 0
1, 14633, Note_off_c, 1, 70, 0
1, 14635, Note_on_c, 1, 70, 127
1, 14635, Note_on_c, 1, 58, 127
1, 14814, Note_off_c, 1, 70, 0
1, 14814, Note_off_c, 1, 58, 0
1, 14817, Note_on_c, 1, 70, 127
1, 14817, Note_on_c, 1, 60, 127
1, 15000, Note_on_c, 1, 67, 127
1, 15004, Note_off_c, 1, 70, 0
1, 15179, Note_off_c, 1, 60, 0
1, 15179, Note_off_c, 1, 67, 0
1, 15182, Note_on_c, 1, 69, 127
1, 15182, Note_on_c, 1, 58, 127
1, 15361, Note_off_c, 1, 69, 0
1, 15364, Note_on_c, 1, 72, 127
1, 15543, Note_off_c, 1, 72, 0
1, 15544, Note_off_c, 1, 58, 0
1, 15546, Note_on_c, 1, 57, 127
1, 15546, Note_on_c, 1, 75, 127
1, 15728, Note_on_c, 1, 72, 127
1, 15908, Note_off_c, 1, 57, 0
1, 15910, Note_on_c, 1, 69, 127
1, 15910, Note_on_c, 1, 53, 127
1, 16092, Note_on_c, 1, 65, 127
1, 16258, Note_off_c, 1, 72, 0
1, 16270, Note_off_c, 1, 69, 0
1, 16272, Note_off_c, 1, 53, 0
1, 16275, Note_on_c, 1, 58, 127
1, 16637, Note_off_c, 1, 58, 0
1, 16639, Note_on_c, 1, 46, 127
1, 16639, Note_on_c, 1, 70, 127
1, 16808, Note_off_c, 1, 75, 0
1, 16821, Note_on_c, 1, 74, 127
1, 16970, Note_off_c, 1, 46, 0
1, 16971, Note_off_c, 1, 74, 0
1, 16979, Note_off_c, 1, 70, 0
1, 16983, Note_off_c, 1, 65, 0
1, 17003, Note_on_c, 1, 58, 127
1, 17003, Note_on_c, 1, 67, 127
1, 17091, Note_off_c, 1, 58, 0
1, 17094, Note_on_c, 1, 57, 127
1, 17182, Note_off_c, 1, 57, 0
1, 17185, Note_on_c, 1, 70, 127
1, 17364, Note_off_c, 1, 70, 0
1, 17367, Note_on_c, 1, 74, 127
1, 17546, Note_off_c, 1, 74, 0
1, 17550, Note_on_c, 1, 79, 127
1, 17723, Note_off_c, 1, 67, 0
1, 17729, Note_off_c, 1, 79, 0
1, 17731, Note_on_c, 1, 58, 127
1, 17731, Note_on_c, 1, 72, 127
1, 17914, Note_on_c, 1, 67, 127
1, 18093, Note_off_c, 1, 67, 0
1, 18096, Note_on_c, 1, 69, 127
1, 18261, Note_off_c, 1, 58, 0
1, 18275, Note_off_c, 1, 69, 0
1, 18278, Note_on_c, 1, 60, 127
1, 18278, Note_on_c, 1, 64, 127
1, 18366, Note_off_c, 1, 60, 0
1, 18457, Note_off_c, 1, 64, 0
1, 18460, Note_on_c, 1, 57, 127
1, 18460, Note_on_c, 1, 66, 127
1, 18639, Note_off_c, 1, 57, 0
1, 18640, Note_off_c, 1, 72, 0
1, 18642, Note_on_c, 1, 70, 127
1, 18642, Note_on_c, 1, 62, 127
1, 18821, Note_off_c, 1, 70, 0
1, 18821, Note_off_c, 1, 62, 0
1, 19180, Note_off_c, 1, 66, 0
1, 19189, Note_on_c, 1, 72, 127
1, 19189, Note_on_c, 1, 55, 127
1, 19368, Note_off_c, 1, 72, 0
1, 19370, Note_on_c, 1, 69, 127
1, 19540, Note_off_c, 1, 69, 0
1, 19553, Note_on_c, 1, 70, 127
1, 19732, Note_off_c, 1, 70, 0
1, 19735, Note_on_c, 1, 67, 127
1, 19896, Note_off_c, 1, 67, 0
1, 19899, Note_off_c, 1, 55, 0
1, 19917, Note_on_c, 1, 76, 127
1, 20005, Note_off_c, 1, 76, 0
1, 20008, Note_on_c, 1, 74, 127
1, 20096, Note_off_c, 1, 74, 0
1, 20100, Note_on_c, 1, 61, 127
1, 20100, Note_on_c, 1, 76, 127
1, 20279, Note_off_c, 1, 61, 0
1, 20281, Note_on_c, 1, 62, 127
1, 20460, Note_off_c, 1, 62, 0
1, 20462, Note_off_c, 1, 76, 0
1, 20464, Note_on_c, 1, 76, 127
1, 20464, Note_on_c, 1, 64, 127
1, 20641, Note_off_c, 1, 76, 0
1, 20643, Note_off_c, 1, 64, 0
1, 20645, Note_on_c, 1, 76, 127
1, 20645, Note_on_c, 1, 53, 127
1, 20822, Note_off_c, 1, 76, 0
1, 20828, Note_on_c, 1, 81, 127
1, 21007, Note_off_c, 1, 53, 0
1, 21007, Note_off_c, 1, 81, 0
1, 21009, Note_on_c, 1, 77, 127
1, 21009, Note_on_c, 1, 65, 127
1, 21188, Note_off_c, 1, 77, 0
1, 21192, Note_on_c, 1, 73, 127
1, 21371, Note_off_c, 1, 73, 0
1, 21375, Note_on_c, 1, 74, 127
1, 21463, Note_off_c, 1, 74, 0
1, 21552, Note_off_c, 1, 65, 0
1, 21556, Note_on_c, 1, 65, 127
1, 21556, Note_on_c, 1, 74, 127
1, 21735, Note_off_c, 1, 65, 0
1, 21739, Note_on_c, 1, 64, 127
1, 21918, Note_off_c, 1, 74, 0
1, 21918, Note_off_c, 1, 64, 0
1, 21920, Note_on_c, 1, 74, 127
1, 21920, Note_on_c, 1, 62, 127
1, 22099, Note_off_c, 1, 74, 0
1, 22099, Note_off_c, 1, 62, 0
1, 22103, Note_on_c, 1, 64, 127
1, 22103, Note_on_c, 1, 79, 127
1, 22284, Note_on_c, 1, 74, 127
1, 22463, Note_off_c, 1, 74, 0
1, 22465, Note_off_c, 1, 64, 0
1, 22467, Note_on_c, 1, 76, 127
1, 22467, Note_on_c, 1, 55, 127
1, 22646, Note_off_c, 1, 76, 0
1, 22650, Note_on_c, 1, 71, 127
1, 22829, Note_off_c, 1, 55, 0
1, 22829, Note_off_c, 1, 71, 0
1, 22831, Note_on_c, 1, 57, 127
1, 22831, Note_on_c, 1, 73, 127
1, 23012, Note_off_c, 1, 79, 0
1, 23193, Note_off_c, 1, 57, 0
1, 23195, Note_on_c, 1, 45, 127
1, 23286, Note_on_c, 1, 77, 127
1, 23374, Note_off_c, 1, 77, 0
1, 23551, Note_off_c, 1, 73, 0
1, 23557, Note_off_c, 1, 45, 0
1, 23559, Note_on_c, 1, 77, 127
1, 23559, Note_on_c, 1, 50, 127
1, 23738, Note_off_c, 1, 77, 0
1, 23742, Note_on_c, 1, 73, 127
1, 23921, Note_off_c, 1, 73, 0
1, 23924, Note_on_c, 1, 74, 127
1, 24103, Note_off_c, 1, 74, 0
1, 24289, Note_on_c, 1, 82, 127
1, 24377, Note_off_c, 1, 82, 0
1, 24380, Note_on_c, 1, 81, 127
1, 24412, Note_off_c, 1, 50, 0
1, 24468, Note_off_c, 1, 81, 0
1, 24470, Note_on_c, 1, 52, 127
1, 24470, Note_on_c, 1, 82, 127
1, 24649, Note_off_c, 1, 52, 0
1, 24653, Note_on_c, 1, 53, 127
1, 24810, Note_off_c, 1, 82, 0
1, 24832, Note_off_c, 1, 53, 0
1, 24834, Note_on_c, 1, 82, 127
1, 24834, Note_on_c, 1, 55, 127
1, 25013, Note_off_c, 1, 82, 0
1, 25013, Note_off_c, 1, 55, 0
1, 25017, Note_on_c, 1, 82, 127
1, 25017, Note_on_c, 1, 48, 127
1, 25196, Note_off_c, 1, 82, 0
1, 25199, Note_on_c, 1, 81, 127
1, 25287, Note_off_c, 1, 81, 0
1, 25290, Note_on_c, 1, 79, 127
1, 25378, Note_off_c, 1, 79, 0
1, 25381, Note_on_c, 1, 77, 127
1, 25469, Note_off_c, 1, 77, 0
1, 25563, Note_on_c, 1, 76, 127
1, 25742, Note_off_c, 1, 76, 0
1, 25898, Note_off_c, 1, 48, 0
1, 25928, Note_on_c, 1, 50, 127
1, 26107, Note_off_c, 1, 50, 0
1, 26109, Note_on_c, 1, 52, 127
1, 26288, Note_off_c, 1, 52, 0
1, 26292, Note_on_c, 1, 53, 127
1, 26471, Note_off_c, 1, 53, 0
1, 26474, Note_on_c, 1, 46, 127
1, 26474, Note_on_c, 1, 74, 127
1, 27165, Note_off_c, 1, 46, 0
1, 27203, Note_on_c, 1, 58, 127
1, 27564, Note_off_c, 1, 74, 0
1, 28011, Note_on_c, 1, 73, 127
1, 28088, Note_off_c, 1, 73, 0
1, 28110, Note_off_c, 1, 58, 0
1, 28113, Note_on_c, 1, 57, 127
1, 28292, Note_off_c, 1, 57, 0
1, 28477, Note_on_c, 1, 74, 127
1, 28477, Note_on_c, 1, 57, 127
1, 28656, Note_off_c, 1, 74, 0
1, 28656, Note_off_c, 1, 57, 0
1, 28659, Note_on_c, 1, 76, 127
1, 28659, Note_on_c, 1, 55, 127
1, 28838, Note_off_c, 1, 76, 0
1, 28838, Note_off_c, 1, 55, 0
1, 28842, Note_on_c, 1, 77, 127
1, 28842, Note_on_c, 1, 53, 127
1, 29021, Note_off_c, 1, 77, 0
1, 29021, Note_off_c, 1, 53, 0
1, 29024, Note_on_c, 1, 52, 127
1, 29024, Note_on_c, 1, 79, 127
1, 29203, Note_off_c, 1, 52, 0
1, 29206, Note_on_c, 1, 70, 127
1, 29206, Note_on_c, 1, 50, 127
1, 29385, Note_off_c, 1, 70, 0
1, 29385, Note_off_c, 1, 50, 0
1, 29388, Note_on_c, 1, 49, 127
1, 29388, Note_on_c, 1, 69, 127
1, 29554, Note_off_c, 1, 79, 0
1, 29570, Note_on_c, 1, 77, 127
1, 29749, Note_off_c, 1, 77, 0
1, 29752, Note_on_c, 1, 76, 127
1, 29752, Note_on_c, 1, 57, 127
1, 29931, Note_off_c, 1, 76, 0
1, 30108, Note_off_c, 1, 49, 0
1, 30472, Note_off_c, 1, 57, 0
1, 30478, Note_off_c, 1, 69, 0
1, 30481, Note_on_c, 1, 56, 127
1, 30481, Note_on_c, 1, 74, 127
1, 30821, Note_off_c, 1, 56, 0
1, 30841, Note_off_c, 1, 74, 0
1, 30845, Note_on_c, 1, 76, 127
1, 30845, Note_on_c, 1, 57, 127
1, 30845, Note_on_c, 1, 45, 127
1, 31027, Note_on_c, 1, 71, 127
1, 31206, Note_off_c, 1, 71, 0
1, 31209, Note_on_c, 1, 73, 127
1, 31388, Note_off_c, 1, 73, 0
1, 31391, Note_on_c, 1, 69, 127
1, 31570, Note_off_c, 1, 69, 0
1, 31574, Note_on_c, 1, 70, 127
1, 31756, Note_on_c, 1, 67, 127
1, 31934, Note_off_c, 1, 70, 0
1, 31935, Note_off_c, 1, 67, 0
1, 31938, Note_on_c, 1, 65, 127
1, 32117, Note_off_c, 1, 65, 0
1, 32120, Note_on_c, 1, 64, 127
1, 32299, Note_off_c, 1, 76, 0
1, 32299, Note_off_c, 1, 64, 0
1, 32666, Note_on_c, 1, 74, 127
1, 32845, Note_off_c, 1, 74, 0
1, 32849, Note_on_c, 1, 77, 127
1, 33030, Note_on_c, 1, 68, 127
1, 33209, Note_off_c, 1, 77, 0
1, 33750, Note_off_c, 1, 68, 0
1, 34033, Note_on_c, 1, 81, 127
1, 35019, Note_off_c, 1, 81, 0
1, 35213, Note_off_c, 1, 57, 0
1, 35213, Note_off_c, 1, 45, 0
1, 35216, Note_on_c, 1, 76, 127
1, 35216, Note_on_c, 1, 57, 127
1, 35395, Note_off_c, 1, 76, 0
1, 35399, Note_on_c, 1, 81, 127
1, 35578, Note_off_c, 1, 81, 0
1, 35580, Note_on_c, 1, 79, 127
1, 35580, Note_on_c, 1, 61, 127
1, 35759, Note_off_c, 1, 79, 0
1, 35942, Note_off_c, 1, 61, 0
1, 35944, Note_on_c, 1, 77, 127
1, 35944, Note_on_c, 1, 62, 127
1, 36123, Note_off_c, 1, 77, 0
1, 36127, Note_on_c, 1, 74, 127
1, 36297, Note_off_c, 1, 74, 0
1, 36306, Note_off_c, 1, 62, 0
1, 36309, Note_on_c, 1, 65, 127
1, 36400, Note_on_c, 1, 73, 127
1, 36488, Note_off_c, 1, 73, 0
1, 36491, Note_on_c, 1, 71, 127
1, 36670, Note_off_c, 1, 71, 0
1, 36671, Note_off_c, 1, 65, 0
1, 36674, Note_on_c, 1, 64, 127
1, 36855, Note_on_c, 1, 69, 127
1, 37034, Note_off_c, 1, 69, 0
1, 37038, Note_on_c, 1, 70, 127
1, 37219, Note_on_c, 1, 67, 127
1, 37394, Note_off_c, 1, 64, 0
1, 37492, Note_off_c, 1, 57, 0
1, 37583, Note_on_c, 1, 58, 127
1, 37762, Note_off_c, 1, 58, 0
1, 37949, Note_on_c, 1, 55, 127
1, 38128, Note_off_c, 1, 70, 0
1, 38128, Note_off_c, 1, 67, 0
1, 38128, Note_off_c, 1, 55, 0
1, 38130, Note_on_c, 1, 53, 127
1, 38858, Note_on_c, 1, 59, 127
1, 39220, Note_off_c, 1, 53, 0
1, 39220, Note_off_c, 1, 59, 0
1, 39223, Note_on_c, 1, 69, 127
1, 39223, Note_on_c, 1, 52, 127
1, 39223, Note_on_c, 1, 61, 127
1, 39402, Note_off_c, 1, 69, 0
1, 39405, Note_on_c, 1, 67, 127
1, 39584, Note_off_c, 1, 67, 0
1, 39585, Note_off_c, 1, 52, 0
1, 39585, Note_off_c, 1, 61, 0
1, 39588, Note_on_c, 1, 65, 127
1, 39588, Note_on_c, 1, 50, 127
1, 39767, Note_off_c, 1, 65, 0
1, 39769, Note_on_c, 1, 61, 127
1, 39948, Note_off_c, 1, 61, 0
1, 39952, Note_on_c, 1, 53, 127
1, 39952, Note_on_c, 1, 62, 127
1, 40316, Note_on_c, 1, 70, 127
1, 40495, Note_off_c, 1, 53, 0
1, 40497, Note_off_c, 1, 50, 0
1, 40498, Note_on_c, 1, 55, 127
1, 40677, Note_off_c, 1, 55, 0
1, 40680, Note_on_c, 1, 57, 127
1, 40859, Note_off_c, 1, 70, 0
1, 40859, Note_off_c, 1, 57, 0
1, 40863, Note_on_c, 1, 58, 127
1, 41042, Note_off_c, 1, 62, 0
1, 41042, Note_off_c, 1, 58, 0
1, 41044, Note_on_c, 1, 70, 127
1, 41044, Note_on_c, 1, 60, 127
1, 41044, Note_on_c, 1, 63, 127
1, 41223, Note_off_c, 1, 70, 0
1, 41227, Note_on_c, 1, 67, 127
1, 41406, Note_off_c, 1, 60, 0
1, 41406, Note_off_c, 1, 67, 0
1, 41408, Note_on_c, 1, 69, 127
1, 41408, Note_on_c, 1, 58, 127
1, 41574, Note_off_c, 1, 63, 0
1, 41587, Note_off_c, 1, 69, 0
1, 41591, Note_on_c, 1, 72, 127
1, 41770, Note_off_c, 1, 58, 0
1, 41770, Note_off_c, 1, 72, 0
1, 41773, Note_on_c, 1, 57, 127
1, 41773, Note_on_c, 1, 75, 127
1, 41955, Note_on_c, 1, 72, 127
1, 42134, Note_off_c, 1, 72, 0
1, 42135, Note_off_c, 1, 57, 0
1, 42137, Note_on_c, 1, 69, 127
1, 42137, Note_on_c, 1, 53, 127
1, 42316, Note_off_c, 1, 69, 0
1, 42319, Note_on_c, 1, 65, 127
1, 42499, Note_off_c, 1, 53, 0
1, 42502, Note_on_c, 1, 58, 127
1, 42621, Note_off_c, 1, 65, 0
1, 42682, Note_off_c, 1, 75, 0
1, 42866, Note_on_c, 1, 74, 127
1, 43045, Note_off_c, 1, 74, 0
1, 43048, Note_on_c, 1, 78, 127
1, 43048, Note_on_c, 1, 60, 127
1, 43227, Note_off_c, 1, 78, 0
1, 43227, Note_off_c, 1, 60, 0
1, 43230, Note_on_c, 1, 79, 127
1, 43230, Note_on_c, 1, 62, 127
1, 43411, Note_off_c, 1, 58, 0
1, 43412, Note_on_c, 1, 55, 127
1, 43591, Note_off_c, 1, 55, 0
1, 43740, Note_off_c, 1, 79, 0
1, 43950, Note_off_c, 1, 62, 0
1, 43958, Note_on_c, 1, 79, 127
1, 43958, Note_on_c, 1, 51, 127
1, 44137, Note_off_c, 1, 79, 0
1, 44141, Note_on_c, 1, 74, 127
1, 44320, Note_off_c, 1, 74, 0
1, 44323, Note_on_c, 1, 75, 127
1, 44323, Note_on_c, 1, 55, 127
1, 44502, Note_off_c, 1, 75, 0
1, 44505, Note_on_c, 1, 71, 127
1, 44684, Note_off_c, 1, 71, 0
1, 44685, Note_off_c, 1, 55, 0
1, 44687, Note_on_c, 1, 57, 127
1, 44687, Note_on_c, 1, 72, 127
1, 44867, Note_off_c, 1, 51, 0
1, 44869, Note_on_c, 1, 69, 127
1, 44869, Note_on_c, 1, 48, 127
1, 45048, Note_off_c, 1, 69, 0
1, 45048, Note_off_c, 1, 48, 0
1, 45051, Note_on_c, 1, 70, 127
1, 45051, Note_on_c, 1, 50, 127
1, 45230, Note_off_c, 1, 70, 0
1, 45230, Note_off_c, 1, 50, 0
1, 45233, Note_on_c, 1, 67, 127
1, 45407, Note_off_c, 1, 57, 0
1, 45412, Note_off_c, 1, 67, 0
1, 45416, Note_on_c, 1, 66, 127
1, 45598, Note_on_c, 1, 60, 127
1, 45777, Note_off_c, 1, 60, 0
1, 45780, Note_on_c, 1, 62, 127
1, 45959, Note_off_c, 1, 62, 0
1, 46136, Note_off_c, 1, 66, 0
1, 46141, Note_off_c, 1, 72, 0
1, 46144, Note_on_c, 1, 58, 127
1, 47234, Note_off_c, 1, 58, 0
1, 49058, Note_on_c, 1, 70, 127
1, 49058, Note_on_c, 1, 55, 127
1, 49146, Note_off_c, 1, 70, 0
1, 49149, Note_on_c, 1, 69, 127
1, 49237, Note_off_c, 1, 55, 0
1, 49237, Note_off_c, 1, 69, 0
1, 49240, Note_on_c, 1, 53, 127
1, 49240, Note_on_c, 1, 70, 127
1, 49419, Note_off_c, 1, 53, 0
1, 49423, Note_on_c, 1, 52, 127
1, 49562, Note_off_c, 1, 70, 0
1, 49602, Note_off_c, 1, 52, 0
1, 49604, Note_on_c, 1, 70, 127
1, 49604, Note_on_c, 1, 50, 127
1, 49783, Note_off_c, 1, 70, 0
1, 49783, Note_off_c, 1, 50, 0
1, 49787, Note_on_c, 1, 70, 127
1, 49787, Note_on_c, 1, 48, 127
1, 49966, Note_off_c, 1, 70, 0
1, 49969, Note_on_c, 1, 79, 127
1, 50148, Note_off_c, 1, 79, 0
1, 50149, Note_off_c, 1, 48, 0
1, 50151, Note_on_c, 1, 76, 127
1, 50151, Note_on_c, 1, 50, 127
1, 50330, Note_off_c, 1, 76, 0
1, 50333, Note_on_c, 1, 72, 127
1, 50512, Note_off_c, 1, 72, 0
1, 50513, Note_off_c, 1, 50, 0
1, 50515, Note_on_c, 1, 72, 127
1, 50515, Note_on_c, 1, 52, 127
1, 50515, Note_on_c, 1, 60, 127
1, 50603, Note_off_c, 1, 72, 0
1, 50606, Note_on_c, 1, 70, 127
1, 50694, Note_off_c, 1, 70, 0
1, 50877, Note_off_c, 1, 52, 0
1, 50879, Note_on_c, 1, 48, 127
1, 51062, Note_on_c, 1, 69, 127
1, 51150, Note_off_c, 1, 69, 0
1, 51241, Note_off_c, 1, 48, 0
1, 51243, Note_on_c, 1, 53, 127
1, 51424, Note_off_c, 1, 60, 0
1, 51608, Note_on_c, 1, 59, 127
1, 51773, Note_off_c, 1, 53, 0
1, 51787, Note_off_c, 1, 59, 0
1, 51790, Note_on_c, 1, 71, 127
1, 51790, Note_on_c, 1, 57, 127
1, 51969, Note_off_c, 1, 71, 0
1, 51969, Note_off_c, 1, 57, 0
1, 51973, Note_on_c, 1, 73, 127
1, 51973, Note_on_c, 1, 55, 127
1, 52152, Note_off_c, 1, 73, 0
1, 52152, Note_off_c, 1, 55, 0
1, 52154, Note_on_c, 1, 74, 127
1, 52154, Note_on_c, 1, 53, 127
1, 52333, Note_off_c, 1, 74, 0
1, 52333, Note_off_c, 1, 53, 0
1, 52337, Note_on_c, 1, 76, 127
1, 52337, Note_on_c, 1, 52, 127
1, 52516, Note_off_c, 1, 76, 0
1, 52516, Note_off_c, 1, 52, 0
1, 52518, Note_on_c, 1, 77, 127
1, 52518, Note_on_c, 1, 50, 127
1, 52697, Note_off_c, 1, 77, 0
1, 52697, Note_off_c, 1, 50, 0
1, 52701, Note_on_c, 1, 79, 127
1, 52701, Note_on_c, 1, 49, 127
1, 52880, Note_off_c, 1, 79, 0
1, 52882, Note_on_c, 1, 81, 127
1, 52970, Note_off_c, 1, 81, 0
1, 52974, Note_on_c, 1, 82, 127
1, 53062, Note_off_c, 1, 82, 0
1, 53063, Note_off_c, 1, 49, 0
1, 53065, Note_on_c, 1, 81, 127
1, 53065, Note_on_c, 1, 45, 127
1, 53153, Note_off_c, 1, 81, 0
1, 53156, Note_on_c, 1, 82, 127
1, 53244, Note_off_c, 1, 82, 0
1, 53248, Note_on_c, 1, 79, 127
1, 53427, Note_off_c, 1, 45, 0
1, 53427, Note_off_c, 1, 79, 0
1, 53429, Note_on_c, 1, 77, 127
1, 53429, Note_on_c, 1, 50, 127
1, 53608, Note_off_c, 1, 77, 0
1, 53612, Note_on_c, 1, 79, 127
1, 53700, Note_off_c, 1, 79, 0
1, 53791, Note_off_c, 1, 50, 0
1, 53793, Note_on_c, 1, 76, 127
1, 53793, Note_on_c, 1, 43, 127
1, 53881, Note_off_c, 1, 76, 0
1, 53885, Note_on_c, 1, 77, 127
1, 53973, Note_off_c, 1, 77, 0
1, 53976, Note_on_c, 1, 74, 127
1, 54155, Note_off_c, 1, 43, 0
1, 54155, Note_off_c, 1, 74, 0
1, 54157, Note_on_c, 1, 74, 127
1, 54157, Note_on_c, 1, 45, 127
1, 54336, Note_off_c, 1, 74, 0
1, 54340, Note_on_c, 1, 73, 127
1, 54497, Note_off_c, 1, 45, 0
1, 54519, Note_off_c, 1, 73, 0
1, 54523, Note_on_c, 1, 71, 127
1, 54523, Note_on_c, 1, 57, 127
1, 54702, Note_off_c, 1, 71, 0
1, 54704, Note_on_c, 1, 69, 127
1, 54874, Note_off_c, 1, 69, 0
1, 54887, Note_on_c, 1, 76, 127
1, 54975, Note_off_c, 1, 76, 0
1, 54978, Note_on_c, 1, 74, 127
1, 55066, Note_off_c, 1, 57, 0
1, 55066, Note_off_c, 1, 74, 0
1, 55068, Note_on_c, 1, 55, 127
1, 55068, Note_on_c, 1, 76, 127
1, 55247, Note_off_c, 1, 55, 0
1, 55251, Note_on_c, 1, 53, 127
1, 55390, Note_off_c, 1, 76, 0
1, 55430, Note_off_c, 1, 53, 0
1, 55432, Note_on_c, 1, 76, 127
1, 55432, Note_on_c, 1, 52, 127
1, 55611, Note_off_c, 1, 76, 0
1, 55611, Note_off_c, 1, 52, 0
1, 55615, Note_on_c, 1, 76, 127
1, 55615, Note_on_c, 1, 53, 127
1, 55794, Note_off_c, 1, 76, 0
1, 55797, Note_on_c, 1, 73, 127
1, 55976, Note_off_c, 1, 73, 0
1, 55979, Note_on_c, 1, 74, 127
1, 55979, Note_on_c, 1, 57, 127
1, 56158, Note_off_c, 1, 74, 0
1, 56162, Note_on_c, 1, 77, 127
1, 56341, Note_off_c, 1, 57, 0
1, 56341, Note_off_c, 1, 77, 0
1, 56343, Note_on_c, 1, 59, 127
1, 56343, Note_on_c, 1, 79, 127
1, 56526, Note_on_c, 1, 69, 127
1, 56705, Note_off_c, 1, 53, 0
1, 56705, Note_off_c, 1, 59, 0
1, 56705, Note_off_c, 1, 69, 0
1, 56707, Note_on_c, 1, 70, 127
1, 56707, Note_on_c, 1, 52, 127
1, 56707, Note_on_c, 1, 61, 127
1, 56886, Note_off_c, 1, 70, 0
1, 56890, Note_on_c, 1, 67, 127
1, 57069, Note_off_c, 1, 52, 0
1, 57069, Note_off_c, 1, 61, 0
1, 57072, Note_on_c, 1, 50, 127
1, 57072, Note_on_c, 1, 62, 127
1, 57155, Note_off_c, 1, 67, 0
1, 57613, Note_off_c, 1, 79, 0
1, 58350, Note_off_c, 1, 50, 0
1, 58890, Note_off_c, 1, 62, 0
1, 58893, Note_on_c, 1, 60, 127
1, 58893, Note_on_c, 1, 75, 127
1, 59072, Note_off_c, 1, 60, 0
1, 59076, Note_on_c, 1, 58, 127
1, 59255, Note_off_c, 1, 58, 0
1, 59423, Note_off_c, 1, 75, 0
1, 59440, Note_on_c, 1, 72, 127
1, 59619, Note_off_c, 1, 72, 0
1, 60715, Note_on_c, 1, 64, 127
1, 61624, Note_off_c, 1, 64, 0
1, 61625, Note_on_c, 1, 55, 127
1, 61804, Note_off_c, 1, 55, 0
1, 61807, Note_on_c, 1, 54, 127
1, 61986, Note_off_c, 1, 54, 0
1, 62172, Note_on_c, 1, 66, 127
1, 62354, Note_on_c, 1, 48, 127
1, 62533, Note_off_c, 1, 48, 0
1, 62536, Note_on_c, 1, 46, 127
1, 62702, Note_off_c, 1, 66, 0
1, 62715, Note_off_c, 1, 46, 0
1, 62718, Note_on_c, 1, 72, 127
1, 62718, Note_on_c, 1, 45, 127
1, 62897, Note_off_c, 1, 72, 0
1, 62897, Note_off_c, 1, 45, 0
1, 62900, Note_on_c, 1, 43, 127
1, 62900, Note_on_c, 1, 70, 127
1, 63082, Note_on_c, 1, 66, 127
1, 63261, Note_off_c, 1, 66, 0
1, 63264, Note_on_c, 1, 67, 127
1, 63443, Note_off_c, 1, 67, 0
1, 63447, Note_on_c, 1, 62, 127
1, 63582, Note_off_c, 1, 43, 0
1, 63620, Note_off_c, 1, 70, 0
1, 63626, Note_off_c, 1, 62, 0
1, 63629, Note_on_c, 1, 63, 127
1, 63629, Note_on_c, 1, 55, 127
1, 63811, Note_on_c, 1, 67, 127
1, 63990, Note_off_c, 1, 67, 0
1, 63993, Note_on_c, 1, 69, 127
1, 64172, Note_off_c, 1, 69, 0
1, 64175, Note_on_c, 1, 70, 127
1, 64349, Note_off_c, 1, 63, 0
1, 64354, Note_off_c, 1, 70, 0
1, 64357, Note_on_c, 1, 61, 127
1, 64536, Note_off_c, 1, 55, 0
1, 64539, Note_on_c, 1, 64, 127
1, 64539, Note_on_c, 1, 53, 127
1, 64718, Note_off_c, 1, 64, 0
1, 64718, Note_off_c, 1, 53, 0
1, 64722, Note_on_c, 1, 52, 127
1, 64901, Note_off_c, 1, 52, 0
1, 64903, Note_on_c, 1, 50, 127
1, 65077, Note_off_c, 1, 61, 0
1, 65082, Note_off_c, 1, 50, 0
1, 65086, Note_on_c, 1, 49, 127
1, 65265, Note_off_c, 1, 49, 0
1, 65268, Note_on_c, 1, 71, 127
1, 65268, Note_on_c, 1, 47, 127
1, 65447, Note_off_c, 1, 71, 0
1, 65447, Note_off_c, 1, 47, 0
1, 65450, Note_on_c, 1, 45, 127
1, 65450, Note_on_c, 1, 73, 127
1, 65633, Note_off_c, 1, 45, 0
1, 65633, Note_off_c, 1, 73, 0
1, 65635, Note_on_c, 1, 43, 127
1, 65635, Note_on_c, 1, 74, 127
1, 65818, Note_off_c, 1, 43, 0
1, 65818, Note_off_c, 1, 74, 0
1, 65824, Note_on_c, 1, 76, 127
1, 65824, Note_on_c, 1, 41, 127
1, 66007, Note_off_c, 1, 76, 0
1, 66012, Note_on_c, 1, 77, 127
1, 66012, Note_on_c, 1, 45, 127
1, 66102, Note_off_c, 1, 77, 0
1, 66107, Note_on_c, 1, 79, 127
1, 66195, Note_off_c, 1, 45, 0
1, 66197, Note_off_c, 1, 79, 0
1, 66200, Note_on_c, 1, 50, 127
1, 66369, Note_off_c, 1, 41, 0
1, 66391, Note_on_c, 1, 43, 127
1, 66578, Note_off_c, 1, 43, 0
1, 66961, Note_off_c, 1, 50, 0
1, 66972, Note_on_c, 1, 49, 127
1, 67161, Note_on_c, 1, 74, 127
1, 67351, Note_off_c, 1, 74, 0
1, 67364, Note_off_c, 1, 49, 0
1, 67368, Note_on_c, 1, 74, 127
1, 67368, Note_on_c, 1, 38, 127
1, 67368, Note_on_c, 1, 50, 127
1, 67567, Note_on_c, 1, 70, 127
1, 67757, Note_off_c, 1, 70, 0
1, 67766, Note_on_c, 1, 72, 127
1, 67962, Note_off_c, 1, 72, 0
1, 67969, Note_on_c, 1, 69, 127
1, 68165, Note_off_c, 1, 69, 0
1, 68381, Note_on_c, 1, 66, 127
1, 68577, Note_off_c, 1, 66, 0
1, 68586, Note_on_c, 1, 67, 127
1, 68754, Note_off_c, 1, 74, 0
1, 68794, Note_on_c, 1, 73, 127
1, 68996, Note_off_c, 1, 73, 0
1, 69195, Note_off_c, 1, 67, 0
1, 69218, Note_on_c, 1, 64, 127
1, 69420, Note_off_c, 1, 64, 0
1, 70009, Note_on_c, 1, 62, 127
1, 72070, Note_off_c, 1, 62, 0
1, 72264, Note_off_c, 1, 38, 0
1, 72621, Note_off_c, 1, 50, 0
1, 72698, Note_on_c, 1, 69, 127
1, 72848, Note_off_c, 1, 69, 0
1, 72880, Note_on_c, 1, 69, 127
1, 72880, Note_on_c, 1, 50, 127
1, 73244, Note_on_c, 1, 53, 127
1, 73423, Note_off_c, 1, 69, 0
1, 73427, Note_on_c, 1, 67, 127
1, 73606, Note_off_c, 1, 53, 0
1, 73606, Note_off_c, 1, 67, 0
1, 73608, Note_on_c, 1, 65, 127
1, 73608, Note_on_c, 1, 57, 127
1, 73787, Note_off_c, 1, 65, 0
1, 73791, Note_on_c, 1, 64, 127
1, 73970, Note_off_c, 1, 64, 0
1, 74155, Note_on_c, 1, 62, 127
1, 74334, Note_off_c, 1, 62, 0
1, 74337, Note_on_c, 1, 70, 127
1, 74698, Note_off_c, 1, 57, 0
1, 74702, Note_on_c, 1, 55, 127
1, 74867, Note_off_c, 1, 70, 0
1, 74883, Note_on_c, 1, 61, 127
1, 75062, Note_off_c, 1, 61, 0
1, 75064, Note_off_c, 1, 55, 0
1, 75785, Note_off_c, 1, 50, 0
1, 75977, Note_on_c, 1, 52, 127
1, 76156, Note_off_c, 1, 52, 0
1, 76158, Note_on_c, 1, 53, 127
1, 76158, Note_on_c, 1, 62, 127
1, 76158, Note_on_c, 1, 65, 127
1, 76158, Note_on_c, 1, 69, 127
1, 76337, Note_off_c, 1, 53, 0
1, 76341, Note_on_c, 1, 50, 127
1, 76520, Note_off_c, 1, 62, 0
1, 76520, Note_off_c, 1, 65, 0
1, 76520, Note_off_c, 1, 69, 0
1, 76520, Note_off_c, 1, 50, 0
1, 76522, Note_on_c, 1, 58, 127
1, 76522, Note_on_c, 1, 74, 127
1, 76522, Note_on_c, 1, 62, 127
1, 76522, Note_on_c, 1, 67, 127
1, 76610, Note_off_c, 1, 58, 0
1, 76614, Note_on_c, 1, 57, 127
1, 76701, Note_off_c, 1, 74, 0
1, 76702, Note_off_c, 1, 57, 0
1, 76705, Note_on_c, 1, 73, 127
1, 76884, Note_off_c, 1, 73, 0
1, 77069, Note_on_c, 1, 76, 127
1, 77242, Note_off_c, 1, 62, 0
1, 77242, Note_off_c, 1, 67, 0
1, 77248, Note_off_c, 1, 76, 0
1, 77252, Note_on_c, 1, 74, 127
1, 77252, Note_on_c, 1, 64, 127
1, 77252, Note_on_c, 1, 69, 127
1, 77252, Note_on_c, 1, 57, 127
1, 77431, Note_off_c, 1, 74, 0
1, 77433, Note_on_c, 1, 73, 127
1, 77612, Note_off_c, 1, 64, 0
1, 77612, Note_off_c, 1, 73, 0
1, 77616, Note_on_c, 1, 71, 127
1, 77616, Note_on_c, 1, 62, 127
1, 77782, Note_off_c, 1, 69, 0
1, 77795, Note_off_c, 1, 71, 0
1, 77980, Note_on_c, 1, 79, 127
1, 77980, Note_on_c, 1, 76, 127
1, 78159, Note_off_c, 1, 79, 0
1, 78161, Note_on_c, 1, 77, 127
1, 78336, Note_off_c, 1, 62, 0
1, 78340, Note_off_c, 1, 77, 0
1, 78342, Note_off_c, 1, 57, 0
1, 78344, Note_on_c, 1, 61, 127
1, 78526, Note_on_c, 1, 81, 127
1, 78700, Note_off_c, 1, 76, 0
1, 78704, Note_off_c, 1, 61, 0
1, 78705, Note_off_c, 1, 81, 0
1, 78708, Note_on_c, 1, 79, 127
1, 78708, Note_on_c, 1, 74, 127
1, 78708, Note_on_c, 1, 62, 127
1, 78796, Note_off_c, 1, 79, 0
1, 78799, Note_on_c, 1, 77, 127
1, 78887, Note_off_c, 1, 77, 0
1, 78891, Note_on_c, 1, 61, 127
1, 79068, Note_off_c, 1, 74, 0
1, 79068, Note_off_c, 1, 62, 0
1, 79070, Note_off_c, 1, 61, 0
1, 79072, Note_on_c, 1, 79, 127
1, 79072, Note_on_c, 1, 62, 127
1, 79072, Note_on_c, 1, 68, 127
1, 79160, Note_off_c, 1, 79, 0
1, 79163, Note_on_c, 1, 77, 127
1, 79251, Note_off_c, 1, 62, 0
1, 79251, Note_off_c, 1, 77, 0
1, 79255, Note_on_c, 1, 76, 127
1, 79255, Note_on_c, 1, 64, 127
1, 79432, Note_off_c, 1, 68, 0
1, 79434, Note_off_c, 1, 76, 0
1, 79434, Note_off_c, 1, 64, 0
1, 79436, Note_on_c, 1, 62, 127
1, 79436, Note_on_c, 1, 69, 127
1, 79436, Note_on_c, 1, 76, 127
1, 79615, Note_off_c, 1, 62, 0
1, 79619, Note_on_c, 1, 61, 127
1, 79798, Note_off_c, 1, 61, 0
1, 79801, Note_on_c, 1, 59, 127
1, 79980, Note_off_c, 1, 59, 0
1, 79983, Note_on_c, 1, 57, 127
1, 80162, Note_off_c, 1, 57, 0
1, 80165, Note_on_c, 1, 55, 127
1, 80344, Note_off_c, 1, 55, 0
1, 80347, Note_on_c, 1, 54, 127
1, 80384, Note_off_c, 1, 69, 0
1, 80384, Note_off_c, 1, 76, 0
1, 80526, Note_off_c, 1, 54, 0
1, 80530, Note_on_c, 1, 55, 127
1, 80530, Note_on_c, 1, 69, 127
1, 80530, Note_on_c, 1, 73, 127
1, 80530, Note_on_c, 1, 76, 127
1, 80709, Note_off_c, 1, 55, 0
1, 80711, Note_on_c, 1, 57, 127
1, 80890, Note_off_c, 1, 57, 0
1, 80892, Note_off_c, 1, 69, 0
1, 80892, Note_off_c, 1, 73, 0
1, 80892, Note_off_c, 1, 76, 0
1, 80894, Note_on_c, 1, 81, 127
1, 80894, Note_on_c, 1, 74, 127
1, 80894, Note_on_c, 1, 69, 127
1, 80894, Note_on_c, 1, 54, 127
1, 81073, Note_off_c, 1, 81, 0
1, 81073, Note_off_c, 1, 74, 0
1, 81076, Note_on_c, 1, 72, 127
1, 81255, Note_off_c, 1, 72, 0
1, 81348, Note_off_c, 1, 69, 0
1, 81437, Note_off_c, 1, 54, 0
1, 81440, Note_on_c, 1, 69, 127
1, 81440, Note_on_c, 1, 55, 127
1, 81619, Note_off_c, 1, 69, 0
1, 81619, Note_off_c, 1, 55, 0
1, 81622, Note_on_c, 1, 72, 127
1, 81622, Note_on_c, 1, 55, 127
1, 81801, Note_off_c, 1, 72, 0
1, 81805, Note_on_c, 1, 70, 127
1, 81984, Note_off_c, 1, 70, 0
1, 81986, Note_on_c, 1, 69, 127
1, 82165, Note_off_c, 1, 55, 0
1, 82165, Note_off_c, 1, 69, 0
1, 82169, Note_on_c, 1, 67, 127
1, 82169, Note_on_c, 1, 53, 127
1, 82348, Note_off_c, 1, 67, 0
1, 82348, Note_off_c, 1, 53, 0
1, 82351, Note_on_c, 1, 52, 127
1, 82351, Note_on_c, 1, 70, 127
1, 82351, Note_on_c, 1, 67, 127
1, 82530, Note_off_c, 1, 52, 0
1, 82533, Note_on_c, 1, 50, 127
1, 82712, Note_off_c, 1, 50, 0
1, 82894, Note_off_c, 1, 70, 0
1, 82897, Note_on_c, 1, 72, 127
1, 82897, Note_on_c, 1, 48, 127
1, 83076, Note_off_c, 1, 72, 0
1, 83076, Note_off_c, 1, 48, 0
1, 83079, Note_on_c, 1, 53, 127
1, 83079, Note_on_c, 1, 69, 127
1, 83258, Note_off_c, 1, 53, 0
1, 83260, Note_off_c, 1, 67, 0
1, 83444, Note_on_c, 1, 65, 127
1, 83609, Note_off_c, 1, 69, 0
1, 83626, Note_on_c, 1, 46, 127
1, 83805, Note_off_c, 1, 46, 0
1, 83808, Note_on_c, 1, 45, 127
1, 84534, Note_off_c, 1, 65, 0
1, 84898, Note_off_c, 1, 45, 0
1, 84901, Note_on_c, 1, 43, 127
1, 85263, Note_off_c, 1, 43, 0
1, 85265, Note_on_c, 1, 75, 127
1, 85629, Note_on_c, 1, 41, 127
1, 85795, Note_off_c, 1, 75, 0
1, 85811, Note_on_c, 1, 77, 127
1, 85990, Note_off_c, 1, 77, 0
1, 85991, Note_off_c, 1, 41, 0
1, 85993, Note_on_c, 1, 74, 127
1, 86540, Note_on_c, 1, 51, 127
1, 86719, Note_off_c, 1, 51, 0
1, 87022, Note_off_c, 1, 74, 0
1, 87086, Note_on_c, 1, 50, 127
1, 87086, Note_on_c, 1, 70, 127
1, 87086, Note_on_c, 1, 74, 127
1, 87086, Note_on_c, 1, 65, 127
1, 87265, Note_off_c, 1, 50, 0
1, 87268, Note_on_c, 1, 46, 127
1, 87447, Note_off_c, 1, 46, 0
1, 87448, Note_off_c, 1, 70, 0
1, 87448, Note_off_c, 1, 74, 0
1, 87448, Note_off_c, 1, 65, 0
1, 87451, Note_on_c, 1, 76, 127
1, 87451, Note_on_c, 1, 67, 127
1, 87451, Note_on_c, 1, 72, 127
1, 87451, Note_on_c, 1, 58, 127
1, 87630, Note_off_c, 1, 76, 0
1, 87632, Note_on_c, 1, 74, 127
1, 87811, Note_off_c, 1, 74, 0
1, 87981, Note_off_c, 1, 67, 0
1, 87981, Note_off_c, 1, 72, 0
1, 87994, Note_off_c, 1, 58, 0
1, 87997, Note_on_c, 1, 77, 127
1, 87997, Note_on_c, 1, 57, 127
1, 87997, Note_on_c, 1, 69, 127
1, 88176, Note_off_c, 1, 77, 0
1, 88176, Note_off_c, 1, 57, 0
1, 88179, Note_on_c, 1, 55, 127
1, 88179, Note_on_c, 1, 70, 127
1, 88358, Note_off_c, 1, 55, 0
1, 88361, Note_on_c, 1, 50, 127
1, 88527, Note_off_c, 1, 69, 0
1, 88540, Note_off_c, 1, 50, 0
1, 88543, Note_on_c, 1, 52, 127
1, 88543, Note_on_c, 1, 67, 127
1, 88709, Note_off_c, 1, 70, 0
1, 88722, Note_off_c, 1, 52, 0
1, 88726, Note_on_c, 1, 72, 127
1, 88726, Note_on_c, 1, 48, 127
1, 88905, Note_off_c, 1, 72, 0
1, 88905, Note_off_c, 1, 48, 0
1, 88907, Note_on_c, 1, 53, 127
1, 89086, Note_off_c, 1, 53, 0
1, 89263, Note_off_c, 1, 67, 0
1, 89271, Note_on_c, 1, 65, 127
1, 89454, Note_on_c, 1, 47, 127
1, 89633, Note_off_c, 1, 47, 0
1, 89818, Note_on_c, 1, 49, 127
1, 89991, Note_off_c, 1, 65, 0
1, 89997, Note_off_c, 1, 49, 0
1, 90001, Note_on_c, 1, 64, 127
1, 90182, Note_on_c, 1, 45, 127
1, 90361, Note_off_c, 1, 45, 0
1, 90683, Note_off_c, 1, 64, 0
1, 90729, Note_on_c, 1, 62, 127
1, 90908, Note_off_c, 1, 62, 0
1, 90911, Note_on_c, 1, 61, 127
1, 91090, Note_off_c, 1, 61, 0
1, 91821, Note_on_c, 1, 58, 127
1, 91821, Note_on_c, 1, 46, 127
1, 92547, Note_off_c, 1, 58, 0
1, 92547, Note_off_c, 1, 46, 0
1, 93096, Note_on_c, 1, 59, 127
1, 93275, Note_off_c, 1, 59, 0
1, 94735, Note_on_c, 1, 61, 127
1, 94735, Note_on_c, 1, 64, 127
1, 94735, Note_on_c, 1, 69, 127
1, 94735, Note_on_c, 1, 45, 127
1, 94918, Note_on_c, 1, 52, 127
1, 95097, Note_off_c, 1, 52, 0
1, 95100, Note_on_c, 1, 53, 127
1, 95278, Note_off_c, 1, 61, 0
1, 95278, Note_off_c, 1, 64, 0
1, 95278, Note_off_c, 1, 69, 0
1, 95279, Note_off_c, 1, 53, 0
1, 95282, Note_on_c, 1, 71, 127
1, 95282, Note_on_c, 1, 55, 127
1, 95461, Note_off_c, 1, 71, 0
1, 95461, Note_off_c, 1, 55, 0
1, 95465, Note_on_c, 1, 73, 127
1, 95465, Note_on_c, 1, 57, 127
1, 95644, Note_off_c, 1, 73, 0
1, 95646, Note_on_c, 1, 74, 127
1, 95825, Note_off_c, 1, 45, 0
1, 95825, Note_off_c, 1, 74, 0
1, 95829, Note_on_c, 1, 47, 127
1, 96010, Note_on_c, 1, 76, 127
1, 96189, Note_off_c, 1, 76, 0
1, 96191, Note_off_c, 1, 47, 0
1, 96193, Note_on_c, 1, 49, 127
1, 96282, Note_on_c, 1, 67, 127
1, 96370, Note_off_c, 1, 67, 0
1, 96553, Note_off_c, 1, 49, 0
1, 96921, Note_on_c, 1, 62, 127
1, 96921, Note_on_c, 1, 50, 127
1, 97104, Note_on_c, 1, 65, 127
1, 97283, Note_off_c, 1, 65, 0
1, 97451, Note_off_c, 1, 62, 0
1, 97464, Note_off_c, 1, 50, 0
1, 97646, Note_off_c, 1, 57, 0
1, 97650, Note_on_c, 1, 69, 127
1, 97650, Note_on_c, 1, 53, 127
1, 97738, Note_off_c, 1, 69, 0
1, 97741, Note_on_c, 1, 67, 127
1, 97829, Note_off_c, 1, 53, 0
1, 97829, Note_off_c, 1, 67, 0
1, 97832, Note_on_c, 1, 55, 127
1, 97832, Note_on_c, 1, 69, 127
1, 98011, Note_off_c, 1, 55, 0
1, 98014, Note_on_c, 1, 53, 127
1, 98193, Note_off_c, 1, 53, 0
1, 98194, Note_off_c, 1, 69, 0
1, 98196, Note_on_c, 1, 70, 127
1, 98196, Note_on_c, 1, 57, 127
1, 98284, Note_off_c, 1, 70, 0
1, 98287, Note_on_c, 1, 72, 127
1, 98375, Note_off_c, 1, 57, 0
1, 98375, Note_off_c, 1, 72, 0
1, 98378, Note_on_c, 1, 67, 127
1, 98378, Note_on_c, 1, 48, 127
1, 98378, Note_on_c, 1, 62, 127
1, 98461, Note_on_c, 1, 66, 127
1, 98466, Note_off_c, 1, 67, 0
1, 98549, Note_off_c, 1, 66, 0
1, 98560, Note_on_c, 1, 57, 127
1, 98739, Note_off_c, 1, 57, 0
1, 98743, Note_on_c, 1, 50, 127
1, 98908, Note_off_c, 1, 48, 0
1, 99103, Note_off_c, 1, 50, 0
1, 99107, Note_on_c, 1, 46, 127
1, 99468, Note_off_c, 1, 62, 0
1, 99471, Note_on_c, 1, 52, 127
1, 99650, Note_off_c, 1, 52, 0
1, 99653, Note_on_c, 1, 69, 127
1, 99653, Note_on_c, 1, 54, 127
1, 99827, Note_off_c, 1, 46, 0
1, 99832, Note_off_c, 1, 69, 0
1, 99832, Note_off_c, 1, 54, 0
1, 99835, Note_on_c, 1, 70, 127
1, 99835, Note_on_c, 1, 55, 127
1, 100014, Note_off_c, 1, 70, 0
1, 100014, Note_off_c, 1, 55, 0
1, 100018, Note_on_c, 1, 72, 127
1, 100018, Note_on_c, 1, 51, 127
1, 100197, Note_off_c, 1, 72, 0
1, 100197, Note_off_c, 1, 51, 0
1, 100200, Note_on_c, 1, 74, 127
1, 100200, Note_on_c, 1, 53, 127
1, 100379, Note_off_c, 1, 74, 0
1, 100379, Note_off_c, 1, 53, 0
1, 100382, Note_on_c, 1, 75, 127
1, 100382, Note_on_c, 1, 50, 127
1, 100561, Note_off_c, 1, 75, 0
1, 100561, Note_off_c, 1, 50, 0
1, 100564, Note_on_c, 1, 48, 127
1, 100564, Note_on_c, 1, 74, 127
1, 100654, Note_on_c, 1, 75, 127
1, 100742, Note_off_c, 1, 75, 0
1, 100743, Note_off_c, 1, 48, 0
1, 100746, Note_on_c, 1, 47, 127
1, 100746, Note_on_c, 1, 77, 127
1, 100925, Note_off_c, 1, 47, 0
1, 100928, Note_on_c, 1, 45, 127
1, 101106, Note_off_c, 1, 77, 0
1, 101107, Note_off_c, 1, 45, 0
1, 101110, Note_on_c, 1, 79, 127
1, 101110, Note_on_c, 1, 43, 127
1, 101284, Note_off_c, 1, 74, 0
1, 101289, Note_off_c, 1, 79, 0
1, 101289, Note_off_c, 1, 43, 0
1, 101292, Note_on_c, 1, 77, 127
1, 101292, Note_on_c, 1, 72, 127
1, 101292, Note_on_c, 1, 48, 127
1, 101471, Note_off_c, 1, 77, 0
1, 101475, Note_on_c, 1, 75, 127
1, 101654, Note_off_c, 1, 75, 0
1, 101657, Note_on_c, 1, 74, 127
1, 101822, Note_off_c, 1, 72, 0
1, 101836, Note_off_c, 1, 74, 0
1, 102021, Note_on_c, 1, 66, 127
1, 102112, Note_on_c, 1, 69, 127
1, 102199, Note_off_c, 1, 48, 0
1, 102203, Note_on_c, 1, 45, 127
1, 102382, Note_off_c, 1, 45, 0
1, 102385, Note_on_c, 1, 46, 127
1, 102551, Note_off_c, 1, 66, 0
1, 102553, Note_off_c, 1, 69, 0
1, 102564, Note_off_c, 1, 46, 0
1, 102567, Note_on_c, 1, 67, 127
1, 102567, Note_on_c, 1, 50, 127
1, 102746, Note_off_c, 1, 67, 0
1, 102746, Note_off_c, 1, 50, 0
1, 102750, Note_on_c, 1, 67, 127
1, 102750, Note_on_c, 1, 51, 127
1, 102838, Note_off_c, 1, 67, 0
1, 102840, Note_on_c, 1, 66, 127
1, 102928, Note_off_c, 1, 66, 0
1, 102929, Note_off_c, 1, 51, 0
1, 102931, Note_on_c, 1, 67, 127
1, 102931, Note_on_c, 1, 48, 127
1, 103019, Note_off_c, 1, 67, 0
1, 103023, Note_on_c, 1, 66, 127
1, 103110, Note_off_c, 1, 48, 0
1, 103114, Note_on_c, 1, 57, 127
1, 103293, Note_off_c, 1, 66, 0
1, 103293, Note_off_c, 1, 57, 0
1, 103296, Note_on_c, 1, 67, 127
1, 103296, Note_on_c, 1, 58, 127
1, 103475, Note_off_c, 1, 67, 0
1, 103475, Note_off_c, 1, 58, 0
1, 103478, Note_on_c, 1, 54, 127
1, 103478, Note_on_c, 1, 62, 127
1, 103660, Note_on_c, 1, 66, 127
1, 103839, Note_off_c, 1, 66, 0
1, 103840, Note_off_c, 1, 54, 0
1, 103842, Note_on_c, 1, 69, 127
1, 103842, Note_on_c, 1, 50, 127
1, 104021, Note_off_c, 1, 69, 0
1, 104025, Note_on_c, 1, 72, 127
1, 104204, Note_off_c, 1, 50, 0
1, 104204, Note_off_c, 1, 72, 0
1, 104206, Note_on_c, 1, 55, 127
1, 104206, Note_on_c, 1, 70, 127
1, 104206, Note_on_c, 1, 67, 127
1, 104568, Note_off_c, 1, 62, 0
1, 104568, Note_off_c, 1, 55, 0
1, 104571, Note_on_c, 1, 63, 127
1, 104571, Note_on_c, 1, 48, 127
1, 104736, Note_off_c, 1, 70, 0
1, 104926, Note_off_c, 1, 67, 0
1, 104931, Note_off_c, 1, 63, 0
1, 104933, Note_off_c, 1, 48, 0
1, 104935, Note_on_c, 1, 70, 127
1, 104935, Note_on_c, 1, 50, 127
1, 104935, Note_on_c, 1, 66, 127
1, 105023, Note_off_c, 1, 70, 0
1, 105026, Note_on_c, 1, 69, 127
1, 105114, Note_off_c, 1, 69, 0
1, 105297, Note_off_c, 1, 50, 0
1, 105300, Note_on_c, 1, 38, 127
1, 105465, Note_off_c, 1, 66, 0
1, 105481, Note_on_c, 1, 67, 127
1, 105660, Note_off_c, 1, 67, 0
1, 105662, Note_off_c, 1, 38, 0
1, 105664, Note_on_c, 1, 43, 127
1, 105664, Note_on_c, 1, 67, 127
1, 105845, Note_on_c, 1, 63, 127
1, 106024, Note_off_c, 1, 63, 0
1, 106028, Note_on_c, 1, 62, 127
1, 106207, Note_off_c, 1, 62, 0
1, 106210, Note_on_c, 1, 60, 127
1, 106389, Note_off_c, 1, 60, 0
1, 106390, Note_off_c, 1, 43, 0
1, 106392, Note_on_c, 1, 58, 127
1, 106571, Note_off_c, 1, 58, 0
1, 106575, Note_on_c, 1, 57, 127
1, 106688, Note_off_c, 1, 67, 0
1, 106754, Note_off_c, 1, 57, 0
1, 106756, Note_on_c, 1, 67, 127
1, 106756, Note_on_c, 1, 58, 127
1, 106935, Note_off_c, 1, 67, 0
1, 106935, Note_off_c, 1, 58, 0
1, 106939, Note_on_c, 1, 69, 127
1, 106939, Note_on_c, 1, 55, 127
1, 107027, Note_off_c, 1, 69, 0
1, 107029, Note_on_c, 1, 70, 127
1, 107117, Note_off_c, 1, 70, 0
1, 107118, Note_off_c, 1, 55, 0
1, 107120, Note_on_c, 1, 65, 127
1, 107120, Note_on_c, 1, 70, 127
1, 107299, Note_off_c, 1, 65, 0
1, 107303, Note_on_c, 1, 64, 127
1, 107303, Note_on_c, 1, 43, 127
1, 107482, Note_off_c, 1, 64, 0
1, 107482, Note_off_c, 1, 43, 0
1, 107484, Note_on_c, 1, 45, 127
1, 107650, Note_off_c, 1, 70, 0
1, 107663, Note_off_c, 1, 45, 0
1, 107667, Note_on_c, 1, 67, 127
1, 107667, Note_on_c, 1, 70, 127
1, 107667, Note_on_c, 1, 46, 127
1, 107846, Note_off_c, 1, 67, 0
1, 107846, Note_off_c, 1, 70, 0
1, 107846, Note_off_c, 1, 46, 0
1, 107850, Note_on_c, 1, 65, 127
1, 107850, Note_on_c, 1, 48, 127
1, 107850, Note_on_c, 1, 70, 127
1, 108031, Note_on_c, 1, 55, 127
1, 108210, Note_off_c, 1, 55, 0
1, 108212, Note_off_c, 1, 65, 0
1, 108214, Note_on_c, 1, 57, 127
1, 108214, Note_on_c, 1, 64, 127
1, 108393, Note_off_c, 1, 57, 0
1, 108395, Note_on_c, 1, 58, 127
1, 108570, Note_off_c, 1, 48, 0
1, 108574, Note_off_c, 1, 58, 0
1, 108578, Note_on_c, 1, 60, 127
1, 108757, Note_off_c, 1, 60, 0
1, 108759, Note_on_c, 1, 62, 127
1, 108836, Note_off_c, 1, 70, 0
1, 108896, Note_off_c, 1, 64, 0
1, 108938, Note_off_c, 1, 62, 0
1, 108942, Note_on_c, 1, 69, 127
1, 108942, Note_on_c, 1, 60, 127
1, 109121, Note_off_c, 1, 69, 0
1, 109121, Note_off_c, 1, 60, 0
1, 109125, Note_on_c, 1, 71, 127
1, 109125, Note_on_c, 1, 63, 127
1, 109213, Note_off_c, 1, 71, 0
1, 109215, Note_on_c, 1, 72, 127
1, 109303, Note_off_c, 1, 72, 0
1, 109304, Note_off_c, 1, 63, 0
1, 109306, Note_on_c, 1, 72, 127
1, 109306, Note_on_c, 1, 55, 127
1, 109306, Note_on_c, 1, 69, 127
1, 109396, Note_off_c, 1, 72, 0
1, 109397, Note_on_c, 1, 71, 127
1, 109485, Note_off_c, 1, 55, 0
1, 109487, Note_off_c, 1, 71, 0
1, 109489, Note_on_c, 1, 54, 127
1, 109668, Note_off_c, 1, 54, 0
1, 109670, Note_on_c, 1, 52, 127
1, 109849, Note_off_c, 1, 52, 0
1, 109853, Note_on_c, 1, 50, 127
1, 110026, Note_off_c, 1, 69, 0
1, 110032, Note_off_c, 1, 50, 0
1, 110034, Note_on_c, 1, 69, 127
1, 110034, Note_on_c, 1, 72, 127
1, 110034, Note_on_c, 1, 55, 127
1, 110396, Note_off_c, 1, 69, 0
1, 110396, Note_off_c, 1, 72, 0
1, 110398, Note_on_c, 1, 67, 127
1, 110398, Note_on_c, 1, 71, 127
1, 110577, Note_off_c, 1, 55, 0
1, 110581, Note_on_c, 1, 57, 127
1, 110760, Note_off_c, 1, 57, 0
1, 110890, Note_off_c, 1, 67, 0
1, 110890, Note_off_c, 1, 71, 0
1, 110945, Note_on_c, 1, 71, 127
1, 110945, Note_on_c, 1, 53, 127
1, 111124, Note_off_c, 1, 71, 0
1, 111124, Note_off_c, 1, 53, 0
1, 111128, Note_on_c, 1, 73, 127
1, 111128, Note_on_c, 1, 55, 127
1, 111307, Note_off_c, 1, 73, 0
1, 111307, Note_off_c, 1, 55, 0
1, 111309, Note_on_c, 1, 74, 127
1, 111309, Note_on_c, 1, 52, 127
1, 111488, Note_off_c, 1, 74, 0
1, 111488, Note_off_c, 1, 52, 0
1, 111492, Note_on_c, 1, 76, 127
1, 111492, Note_on_c, 1, 58, 127
1, 111671, Note_off_c, 1, 76, 0
1, 111673, Note_on_c, 1, 77, 127
1, 111852, Note_off_c, 1, 77, 0
1, 112035, Note_off_c, 1, 58, 0
1, 112038, Note_on_c, 1, 79, 127
1, 112038, Note_on_c, 1, 58, 127
1, 112217, Note_off_c, 1, 79, 0
1, 112217, Note_off_c, 1, 58, 0
1, 112220, Note_on_c, 1, 70, 127
1, 112220, Note_on_c, 1, 49, 127
1, 112399, Note_off_c, 1, 70, 0
1, 112403, Note_on_c, 1, 67, 127
1, 112582, Note_off_c, 1, 67, 0
1, 112584, Note_on_c, 1, 69, 127
1, 112584, Note_on_c, 1, 52, 127
1, 112763, Note_off_c, 1, 69, 0
1, 112767, Note_on_c, 1, 79, 127
1, 112940, Note_off_c, 1, 49, 0
1, 112946, Note_off_c, 1, 52, 0
1, 112946, Note_off_c, 1, 79, 0
1, 112948, Note_on_c, 1, 77, 127
1, 112948, Note_on_c, 1, 50, 127
1, 113127, Note_off_c, 1, 77, 0
1, 113131, Note_on_c, 1, 73, 127
1, 113310, Note_off_c, 1, 73, 0
1, 113313, Note_on_c, 1, 74, 127
1, 113313, Note_on_c, 1, 53, 127
1, 113492, Note_off_c, 1, 74, 0
1, 113495, Note_on_c, 1, 82, 127
1, 113668, Note_off_c, 1, 50, 0
1, 113674, Note_off_c, 1, 82, 0
1, 113675, Note_off_c, 1, 53, 0
1, 113678, Note_on_c, 1, 81, 127
1, 113678, Note_on_c, 1, 46, 127
1, 113857, Note_off_c, 1, 81, 0
1, 113859, Note_on_c, 1, 79, 127
1, 114038, Note_off_c, 1, 79, 0
1, 114042, Note_on_c, 1, 77, 127
1, 114042, Note_on_c, 1, 55, 127
1, 114221, Note_off_c, 1, 77, 0
1, 114223, Note_on_c, 1, 76, 127
1, 114398, Note_off_c, 1, 46, 0
1, 114402, Note_off_c, 1, 76, 0
1, 114404, Note_off_c, 1, 55, 0
1, 114406, Note_on_c, 1, 74, 127
1, 114406, Note_on_c, 1, 45, 127
1, 114406, Note_on_c, 1, 57, 127
1, 114585, Note_off_c, 1, 74, 0
1, 114588, Note_on_c, 1, 73, 127
1, 114767, Note_off_c, 1, 73, 0
1, 114770, Note_on_c, 1, 71, 127
1, 114918, Note_off_c, 1, 45, 0
1, 114949, Note_off_c, 1, 57, 0
1, 114949, Note_off_c, 1, 71, 0
1, 114952, Note_on_c, 1, 69, 127
1, 114952, Note_on_c, 1, 55, 127
1, 115102, Note_off_c, 1, 69, 0
1, 115131, Note_off_c, 1, 55, 0
1, 115134, Note_on_c, 1, 54, 127
1, 115134, Note_on_c, 1, 81, 127
1, 115313, Note_off_c, 1, 54, 0
1, 115317, Note_on_c, 1, 52, 127
1, 115496, Note_off_c, 1, 52, 0
1, 115677, Note_off_c, 1, 81, 0
1, 115681, Note_on_c, 1, 72, 127
1, 115681, Note_on_c, 1, 50, 127
1, 115860, Note_off_c, 1, 72, 0
1, 115860, Note_off_c, 1, 50, 0
1, 115863, Note_on_c, 1, 72, 127
1, 115863, Note_on_c, 1, 62, 127
1, 116042, Note_off_c, 1, 72, 0
1, 116045, Note_on_c, 1, 70, 127
1, 116224, Note_off_c, 1, 70, 0
1, 116227, Note_on_c, 1, 54, 127
1, 116409, Note_on_c, 1, 69, 127
1, 116588, Note_off_c, 1, 69, 0
1, 116589, Note_off_c, 1, 54, 0
1, 116591, Note_on_c, 1, 55, 127
1, 117085, Note_off_c, 1, 62, 0
1, 117134, Note_off_c, 1, 55, 0
1, 117138, Note_on_c, 1, 67, 127
1, 117138, Note_on_c, 1, 53, 127
1, 117270, Note_off_c, 1, 67, 0
1, 117317, Note_off_c, 1, 53, 0
1, 117320, Note_on_c, 1, 52, 127
1, 117320, Note_on_c, 1, 79, 127
1, 117499, Note_off_c, 1, 52, 0
1, 117502, Note_on_c, 1, 50, 127
1, 117681, Note_off_c, 1, 50, 0
1, 117684, Note_on_c, 1, 49, 127
1, 117863, Note_off_c, 1, 79, 0
1, 117863, Note_off_c, 1, 49, 0
1, 117866, Note_on_c, 1, 77, 127
1, 117866, Note_on_c, 1, 50, 127
1, 118045, Note_off_c, 1, 77, 0
1, 118045, Note_off_c, 1, 50, 0
1, 118048, Note_on_c, 1, 76, 127
1, 118048, Note_on_c, 1, 43, 127
1, 118227, Note_off_c, 1, 76, 0
1, 118231, Note_on_c, 1, 74, 127
1, 118410, Note_off_c, 1, 43, 0
1, 118410, Note_off_c, 1, 74, 0
1, 118413, Note_on_c, 1, 73, 127
1, 118413, Note_on_c, 1, 46, 127
1, 118592, Note_off_c, 1, 73, 0
1, 118595, Note_on_c, 1, 74, 127
1, 118774, Note_off_c, 1, 74, 0
1, 118775, Note_off_c, 1, 46, 0
1, 118777, Note_on_c, 1, 74, 127
1, 118777, Note_on_c, 1, 45, 127
1, 118956, Note_off_c, 1, 74, 0
1, 118959, Note_on_c, 1, 73, 127
1, 119138, Note_off_c, 1, 73, 0
1, 119141, Note_on_c, 1, 71, 127
1, 119320, Note_off_c, 1, 45, 0
1, 119320, Note_off_c, 1, 71, 0
1, 119323, Note_on_c, 1, 69, 127
1, 119323, Note_on_c, 1, 46, 127
1, 119487, Note_off_c, 1, 69, 0
1, 119506, Note_off_c, 1, 46, 0
1, 119509, Note_on_c, 1, 45, 127
1, 119509, Note_on_c, 1, 62, 127
1, 119604, Note_on_c, 1, 65, 127
1, 119692, Note_off_c, 1, 45, 0
1, 119697, Note_on_c, 1, 43, 127
1, 119697, Note_on_c, 1, 70, 127
1, 119880, Note_off_c, 1, 43, 0
1, 120068, Note_off_c, 1, 70, 0
1, 120073, Note_on_c, 1, 41, 127
1, 120073, Note_on_c, 1, 72, 127
1, 120147, Note_off_c, 1, 62, 0
1, 120149, Note_off_c, 1, 65, 0
1, 120256, Note_off_c, 1, 41, 0
1, 120256, Note_off_c, 1, 72, 0
1, 120261, Note_on_c, 1, 70, 127
1, 120261, Note_on_c, 1, 63, 127
1, 120261, Note_on_c, 1, 43, 127
1, 120444, Note_off_c, 1, 70, 0
1, 120449, Note_on_c, 1, 69, 127
1, 120630, Note_off_c, 1, 63, 0
1, 120632, Note_off_c, 1, 43, 0
1, 120632, Note_off_c, 1, 69, 0
1, 120636, Note_on_c, 1, 70, 127
1, 120636, Note_on_c, 1, 55, 127
1, 120819, Note_off_c, 1, 70, 0
1, 120824, Note_on_c, 1, 67, 127
1, 121007, Note_off_c, 1, 67, 0
1, 121010, Note_on_c, 1, 69, 127
1, 121194, Note_off_c, 1, 55, 0
1, 121198, Note_on_c, 1, 52, 127
1, 121198, Note_on_c, 1, 73, 127
1, 121381, Note_off_c, 1, 52, 0
1, 121381, Note_off_c, 1, 73, 0
1, 121386, Note_on_c, 1, 49, 127
1, 121386, Note_on_c, 1, 76, 127
1, 121569, Note_off_c, 1, 49, 0
1, 121569, Note_off_c, 1, 76, 0
1, 121574, Note_on_c, 1, 79, 127
1, 121574, Note_on_c, 1, 45, 127
1, 121761, Note_off_c, 1, 79, 0
1, 121761, Note_off_c, 1, 45, 0
1, 121765, Note_on_c, 1, 50, 127
1, 121765, Note_on_c, 1, 77, 127
1, 121765, Note_on_c, 1, 74, 127
1, 122133, Note_off_c, 1, 69, 0
1, 122145, Note_off_c, 1, 50, 0
1, 122326, Note_off_c, 1, 77, 0
1, 122526, Note_off_c, 1, 74, 0
1, 122543, Note_on_c, 1, 77, 127
1, 122543, Note_on_c, 1, 69, 127
1, 122543, Note_on_c, 1, 57, 127
1, 122543, Note_on_c, 1, 73, 127
1, 122637, Note_off_c, 1, 77, 0
1, 122642, Note_on_c, 1, 76, 127
1, 122736, Note_off_c, 1, 76, 0
1, 122933, Note_off_c, 1, 69, 0
1, 122941, Note_on_c, 1, 45, 127
1, 122941, Note_on_c, 1, 67, 127
1, 123140, Note_on_c, 1, 74, 127
1, 123325, Note_off_c, 1, 57, 0
1, 123328, Note_off_c, 1, 73, 0
1, 123333, Note_off_c, 1, 45, 0
1, 123336, Note_off_c, 1, 74, 0
1, 123343, Note_on_c, 1, 50, 127
1, 123517, Note_off_c, 1, 67, 0
1, 123755, Note_on_c, 1, 54, 127
1, 123960, Note_on_c, 1, 64, 127
1, 124158, Note_off_c, 1, 54, 0
1, 124162, Note_off_c, 1, 64, 0
1, 124168, Note_on_c, 1, 66, 127
1, 124795, Note_on_c, 1, 38, 127
1, 127636, Note_off_c, 1, 66, 0
1, 127657, Note_off_c, 1, 50, 0
1, 128400, Note_off_c, 1, 38, 0
1, 128511, Note_on_c, 1, 69, 127
1, 128511, Note_on_c, 1, 65, 127
1, 128511, Note_on_c, 1, 62, 127
1, 128511, Note_on_c, 1, 50, 127
1, 129284, Note_off_c, 1, 69, 0
1, 129284, Note_off_c, 1, 65, 0
1, 129284, Note_off_c, 1, 62, 0
1, 129284, Note_off_c, 1, 50, 0
1, 129287, Note_on_c, 1, 70, 127
1, 129287, Note_on_c, 1, 67, 127
1, 129287, Note_on_c, 1, 62, 127
1, 129287, Note_on_c, 1, 50, 127
1, 129673, Note_off_c, 1, 70, 0
1, 129675, Note_on_c, 1, 69, 127
1, 130055, Note_off_c, 1, 67, 0
1, 130059, Note_off_c, 1, 69, 0
1, 130060, Note_off_c, 1, 62, 0
1, 130060, Note_off_c, 1, 50, 0
1, 130063, Note_on_c, 1, 73, 127
1, 130063, Note_on_c, 1, 65, 127
1, 130063, Note_on_c, 1, 62, 127
1, 130063, Note_on_c, 1, 50, 127
1, 130449, Note_off_c, 1, 73, 0
1, 130452, Note_on_c, 1, 74, 127
1, 130831, Note_off_c, 1, 65, 0
1, 130836, Note_off_c, 1, 62, 0
1, 130836, Note_off_c, 1, 50, 0
1, 130836, Note_off_c, 1, 74, 0
1, 130838, Note_on_c, 1, 67, 127
1, 130838, Note_on_c, 1, 58, 127
1, 130838, Note_on_c, 1, 64, 127
1, 130838, Note_on_c, 1, 50, 127
1, 131224, Note_off_c, 1, 67, 0
1, 131224, Note_off_c, 1, 58, 0
1, 131228, Note_on_c, 1, 69, 127
1, 131228, Note_on_c, 1, 57, 127
1, 131606, Note_off_c, 1, 64, 0
1, 131612, Note_off_c, 1, 69, 0
1, 131612, Note_off_c, 1, 57, 0
1, 131614, Note_on_c, 1, 70, 127
1, 131614, Note_on_c, 1, 55, 127
1, 132000, Note_off_c, 1, 50, 0
1, 132003, Note_on_c, 1, 53, 127
1, 132389, Note_off_c, 1, 53, 0
1, 132393, Note_on_c, 1, 52, 127
1, 132779, Note_off_c, 1, 52, 0
1, 133170, Note_on_c, 1, 49, 127
1, 133334, Note_off_c, 1, 70, 0
1, 133556, Note_off_c, 1, 55, 0
1, 133936, Note_off_c, 1, 49, 0
1, 133944, Note_on_c, 1, 67, 127
1, 133944, Note_on_c, 1, 64, 127
1, 133944, Note_on_c, 1, 57, 127
1, 133944, Note_on_c, 1, 49, 127
1, 134330, Note_off_c, 1, 67, 0
1, 134334, Note_on_c, 1, 76, 127
1, 134712, Note_off_c, 1, 64, 0
1, 134717, Note_off_c, 1, 57, 0
1, 134717, Note_off_c, 1, 49, 0
1, 134718, Note_off_c, 1, 76, 0
1, 134720, Note_on_c, 1, 69, 127
1, 134720, Note_on_c, 1, 64, 127
1, 134720, Note_on_c, 1, 57, 127
1, 134720, Note_on_c, 1, 49, 127
1, 135106, Note_off_c, 1, 69, 0
1, 135109, Note_on_c, 1, 67, 127
1, 135488, Note_off_c, 1, 64, 0
1, 135493, Note_off_c, 1, 57, 0
1, 135493, Note_off_c, 1, 49, 0
1, 135493, Note_off_c, 1, 67, 0
1, 135497, Note_on_c, 1, 66, 127
1, 135497, Note_on_c, 1, 57, 127
1, 135497, Note_on_c, 1, 62, 127
1, 135497, Note_on_c, 1, 48, 127
1, 135883, Note_off_c, 1, 66, 0
1, 135883, Note_off_c, 1, 57, 0
1, 135885, Note_on_c, 1, 67, 127
1, 135885, Note_on_c, 1, 55, 127
1, 136265, Note_off_c, 1, 62, 0
1, 136269, Note_off_c, 1, 67, 0
1, 136269, Note_off_c, 1, 55, 0
1, 136272, Note_on_c, 1, 69, 127
1, 136272, Note_on_c, 1, 54, 127
1, 136659, Note_off_c, 1, 48, 0
1, 136661, Note_on_c, 1, 51, 127
1, 137047, Note_off_c, 1, 51, 0
1, 137050, Note_on_c, 1, 50, 127
1, 137436, Note_off_c, 1, 50, 0
1, 137825, Note_off_c, 1, 69, 0
1, 137828, Note_on_c, 1, 46, 127
1, 138217, Note_on_c, 1, 74, 127
1, 138398, Note_off_c, 1, 54, 0
1, 138603, Note_off_c, 1, 46, 0
1, 138603, Note_off_c, 1, 74, 0
1, 138606, Note_on_c, 1, 70, 127
1, 138606, Note_on_c, 1, 62, 127
1, 138606, Note_on_c, 1, 55, 127
1, 138606, Note_on_c, 1, 46, 127
1, 138992, Note_off_c, 1, 70, 0
1, 138995, Note_on_c, 1, 69, 127
1, 139374, Note_off_c, 1, 62, 0
1, 139379, Note_off_c, 1, 55, 0
1, 139379, Note_off_c, 1, 46, 0
1, 139379, Note_off_c, 1, 69, 0
1, 139382, Note_on_c, 1, 67, 127
1, 139382, Note_on_c, 1, 62, 127
1, 139382, Note_on_c, 1, 46, 127
1, 139382, Note_on_c, 1, 55, 127
1, 139768, Note_off_c, 1, 67, 0
1, 139770, Note_on_c, 1, 66, 127
1, 140150, Note_off_c, 1, 62, 0
1, 140154, Note_off_c, 1, 66, 0
1, 140155, Note_off_c, 1, 46, 0
1, 140155, Note_off_c, 1, 55, 0
1, 140158, Note_on_c, 1, 67, 127
1, 140158, Note_on_c, 1, 61, 127
1, 140158, Note_on_c, 1, 57, 127
1, 140158, Note_on_c, 1, 45, 127
1, 140544, Note_off_c, 1, 67, 0
1, 140547, Note_on_c, 1, 70, 127
1, 140926, Note_off_c, 1, 61, 0
1, 140931, Note_off_c, 1, 57, 0
1, 140931, Note_off_c, 1, 45, 0
1, 140931, Note_off_c, 1, 70, 0
1, 140934, Note_on_c, 1, 69, 127
1, 140934, Note_on_c, 1, 61, 127
1, 140934, Note_on_c, 1, 45, 127
1, 140934, Note_on_c, 1, 52, 127
1, 141320, Note_off_c, 1, 69, 0
1, 141323, Note_on_c, 1, 67, 127
1, 141702, Note_off_c, 1, 61, 0
1, 141707, Note_off_c, 1, 45, 0
1, 141707, Note_off_c, 1, 52, 0
1, 141707, Note_off_c, 1, 67, 0
1, 141709, Note_on_c, 1, 65, 127
1, 141709, Note_on_c, 1, 57, 127
1, 141709, Note_on_c, 1, 61, 127
1, 141709, Note_on_c, 1, 45, 127
1, 142095, Note_off_c, 1, 65, 0
1, 142095, Note_off_c, 1, 57, 0
1, 142099, Note_on_c, 1, 64, 127
1, 142099, Note_on_c, 1, 55, 127
1, 142477, Note_off_c, 1, 61, 0
1, 142477, Note_off_c, 1, 45, 0
1, 142483, Note_off_c, 1, 64, 0
1, 142483, Note_off_c, 1, 55, 0
1, 142486, Note_on_c, 1, 62, 127
1, 142486, Note_on_c, 1, 53, 127
1, 142486, Note_on_c, 1, 45, 127
1, 142874, Note_on_c, 1, 65, 127
1, 143254, Note_off_c, 1, 62, 0
1, 143258, Note_off_c, 1, 65, 0
1, 143259, Note_off_c, 1, 53, 0
1, 143259, Note_off_c, 1, 45, 0
1, 143262, Note_on_c, 1, 70, 127
1, 143262, Note_on_c, 1, 55, 127
1, 143262, Note_on_c, 1, 43, 127
1, 143650, Note_on_c, 1, 67, 127
1, 143829, Note_off_c, 1, 70, 0
1, 144036, Note_off_c, 1, 67, 0
1, 144037, Note_off_c, 1, 55, 0
1, 144037, Note_off_c, 1, 43, 0
1, 144039, Note_on_c, 1, 75, 127
1, 144039, Note_on_c, 1, 55, 127
1, 144039, Note_on_c, 1, 67, 127
1, 144039, Note_on_c, 1, 46, 127
1, 144425, Note_off_c, 1, 75, 0
1, 144425, Note_off_c, 1, 55, 0
1, 144429, Note_on_c, 1, 73, 127
1, 144429, Note_on_c, 1, 52, 127
1, 144807, Note_off_c, 1, 67, 0
1, 144807, Note_off_c, 1, 46, 0
1, 144813, Note_off_c, 1, 73, 0
1, 144813, Note_off_c, 1, 52, 0
1, 144815, Note_on_c, 1, 80, 127
1, 144815, Note_on_c, 1, 53, 127
1, 144815, Note_on_c, 1, 69, 127
1, 144815, Note_on_c, 1, 74, 127
1, 144815, Note_on_c, 1, 45, 127
1, 145201, Note_off_c, 1, 80, 0
1, 145201, Note_off_c, 1, 53, 0
1, 145204, Note_on_c, 1, 81, 127
1, 145204, Note_on_c, 1, 50, 127
1, 145583, Note_off_c, 1, 69, 0
1, 145583, Note_off_c, 1, 74, 0
1, 145583, Note_off_c, 1, 45, 0
1, 145588, Note_off_c, 1, 81, 0
1, 145588, Note_off_c, 1, 50, 0
1, 145592, Note_on_c, 1, 73, 127
1, 145592, Note_on_c, 1, 69, 127
1, 145592, Note_on_c, 1, 52, 127
1, 145592, Note_on_c, 1, 45, 127
1, 146754, Note_off_c, 1, 73, 0
1, 146754, Note_off_c, 1, 69, 0
1, 146754, Note_off_c, 1, 52, 0
1, 146966, Note_off_c, 1, 45, 0
1, 147145, Note_on_c, 1, 76, 127
1, 147145, Note_on_c, 1, 73, 127
1, 147145, Note_on_c, 1, 69, 127
1, 147145, Note_on_c, 1, 45, 127
1, 147918, Note_off_c, 1, 76, 0
1, 147918, Note_off_c, 1, 73, 0
1, 147918, Note_off_c, 1, 69, 0
1, 147918, Note_off_c, 1, 45, 0
1, 147921, Note_on_c, 1, 46, 127
1, 147921, Note_on_c, 1, 67, 127
1, 147921, Note_on_c, 1, 76, 127
1, 147921, Note_on_c, 1, 73, 127
1, 148307, Note_off_c, 1, 46, 0
1, 148310, Note_on_c, 1, 45, 127
1, 148696, Note_off_c, 1, 67, 0
1, 148696, Note_off_c, 1, 76, 0
1, 148696, Note_off_c, 1, 73, 0
1, 148696, Note_off_c, 1, 45, 0
1, 148698, Note_on_c, 1, 49, 127
1, 148698, Note_on_c, 1, 74, 127
1, 148698, Note_on_c, 1, 77, 127
1, 148698, Note_on_c, 1, 69, 127
1, 148698, Note_on_c, 1, 65, 127
1, 149084, Note_off_c, 1, 49, 0
1, 149088, Note_on_c, 1, 50, 127
1, 149473, Note_off_c, 1, 74, 0
1, 149473, Note_off_c, 1, 77, 0
1, 149473, Note_off_c, 1, 69, 0
1, 149473, Note_off_c, 1, 65, 0
1, 149474, Note_off_c, 1, 50, 0
1, 149477, Note_on_c, 1, 43, 127
1, 149477, Note_on_c, 1, 69, 127
1, 149477, Note_on_c, 1, 73, 127
1, 149477, Note_on_c, 1, 64, 127
1, 149863, Note_off_c, 1, 43, 0
1, 149865, Note_on_c, 1, 45, 127
1, 150251, Note_off_c, 1, 45, 0
1, 150252, Note_off_c, 1, 69, 0
1, 150252, Note_off_c, 1, 73, 0
1, 150252, Note_off_c, 1, 64, 0
1, 150255, Note_on_c, 1, 67, 127
1, 150255, Note_on_c, 1, 64, 127
1, 150255, Note_on_c, 1, 73, 127
1, 150255, Note_on_c, 1, 46, 127
1, 150641, Note_off_c, 1, 67, 0
1, 150641, Note_off_c, 1, 64, 0
1, 150644, Note_on_c, 1, 70, 127
1, 151030, Note_off_c, 1, 70, 0
1, 151032, Note_on_c, 1, 69, 127
1, 151032, Note_on_c, 1, 65, 127
1, 151418, Note_off_c, 1, 69, 0
1, 151418, Note_off_c, 1, 65, 0
1, 151570, Note_off_c, 1, 73, 0
1, 151826, Note_on_c, 1, 66, 127
1, 151826, Note_on_c, 1, 72, 127
1, 151826, Note_on_c, 1, 63, 127
1, 152193, Note_off_c, 1, 46, 0
1, 152214, Note_on_c, 1, 45, 127
1, 152600, Note_off_c, 1, 45, 0
1, 152601, Note_off_c, 1, 66, 0
1, 152601, Note_off_c, 1, 72, 0
1, 152601, Note_off_c, 1, 63, 0
1, 152603, Note_on_c, 1, 63, 127
1, 152603, Note_on_c, 1, 72, 127
1, 152603, Note_on_c, 1, 43, 127
1, 152603, Note_on_c, 1, 67, 127
1, 152989, Note_off_c, 1, 63, 0
1, 152989, Note_off_c, 1, 72, 0
1, 152989, Note_off_c, 1, 43, 0
1, 152993, Note_on_c, 1, 70, 127
1, 152993, Note_on_c, 1, 51, 127
1, 153371, Note_off_c, 1, 67, 0
1, 153377, Note_off_c, 1, 70, 0
1, 153377, Note_off_c, 1, 51, 0
1, 153379, Note_on_c, 1, 66, 127
1, 153379, Note_on_c, 1, 45, 127
1, 153379, Note_on_c, 1, 72, 127
1, 153379, Note_on_c, 1, 75, 127
1, 153765, Note_off_c, 1, 66, 0
1, 153765, Note_off_c, 1, 45, 0
1, 153768, Note_on_c, 1, 67, 127
1, 153768, Note_on_c, 1, 43, 127
1, 154147, Note_off_c, 1, 72, 0
1, 154152, Note_off_c, 1, 67, 0
1, 154152, Note_off_c, 1, 43, 0
1, 154155, Note_on_c, 1, 42, 127
1, 154155, Note_on_c, 1, 69, 127
1, 154541, Note_off_c, 1, 75, 0
1, 154541, Note_off_c, 1, 42, 0
1, 154544, Note_on_c, 1, 74, 127
1, 154923, Note_off_c, 1, 69, 0
1, 154928, Note_off_c, 1, 74, 0
1, 154932, Note_on_c, 1, 72, 127
1, 154932, Note_on_c, 1, 51, 127
1, 154932, Note_on_c, 1, 54, 127
1, 154932, Note_on_c, 1, 45, 127
1, 155254, Note_off_c, 1, 72, 0
1, 155367, Note_on_c, 1, 78, 127
1, 155700, Note_off_c, 1, 51, 0
1, 155753, Note_off_c, 1, 78, 0
1, 155757, Note_on_c, 1, 79, 127
1, 155821, Note_off_c, 1, 54, 0
1, 155821, Note_off_c, 1, 45, 0
1, 156141, Note_off_c, 1, 79, 0
1, 156143, Note_on_c, 1, 81, 127
1, 156529, Note_off_c, 1, 81, 0
1, 156532, Note_on_c, 1, 78, 127
1, 156532, Note_on_c, 1, 74, 127
1, 156532, Note_on_c, 1, 82, 127
1, 156922, Note_on_c, 1, 50, 127
1, 157307, Note_off_c, 1, 78, 0
1, 157307, Note_off_c, 1, 74, 0
1, 157307, Note_off_c, 1, 82, 0
1, 157308, Note_off_c, 1, 50, 0
1, 157310, Note_on_c, 1, 46, 127
1, 157310, Note_on_c, 1, 74, 127
1, 157310, Note_on_c, 1, 82, 127
1, 157310, Note_on_c, 1, 79, 127
1, 157696, Note_off_c, 1, 46, 0
1, 157699, Note_on_c, 1, 45, 127
1, 158085, Note_off_c, 1, 74, 0
1, 158085, Note_off_c, 1, 82, 0
1, 158085, Note_off_c, 1, 79, 0
1, 158085, Note_off_c, 1, 45, 0
1, 158089, Note_on_c, 1, 43, 127
1, 158089, Note_on_c, 1, 79, 127
1, 158089, Note_on_c, 1, 74, 127
1, 158089, Note_on_c, 1, 82, 127
1, 158475, Note_off_c, 1, 43, 0
1, 158477, Note_on_c, 1, 41, 127
1, 158837, Note_off_c, 1, 79, 0
1, 158837, Note_off_c, 1, 74, 0
1, 158837, Note_off_c, 1, 82, 0
1, 158863, Note_off_c, 1, 41, 0
1, 158866, Note_on_c, 1, 82, 127
1, 158866, Note_on_c, 1, 79, 127
1, 158866, Note_on_c, 1, 74, 127
1, 158866, Note_on_c, 1, 39, 127
1, 159252, Note_off_c, 1, 82, 0
1, 159252, Note_off_c, 1, 79, 0
1, 159252, Note_off_c, 1, 74, 0
1, 159255, Note_on_c, 1, 72, 127
1, 159255, Note_on_c, 1, 81, 127
1, 159634, Note_off_c, 1, 39, 0
1, 159639, Note_off_c, 1, 72, 0
1, 159639, Note_off_c, 1, 81, 0
1, 159642, Note_on_c, 1, 75, 127
1, 159642, Note_on_c, 1, 84, 127
1, 160028, Note_off_c, 1, 75, 0
1, 160028, Note_off_c, 1, 84, 0
1, 160031, Note_on_c, 1, 46, 127
1, 160031, Note_on_c, 1, 82, 127
1, 160031, Note_on_c, 1, 74, 127
1, 160417, Note_off_c, 1, 46, 0
1, 160417, Note_off_c, 1, 82, 0
1, 160417, Note_off_c, 1, 74, 0
1, 160420, Note_on_c, 1, 48, 127
1, 160420, Note_on_c, 1, 72, 127
1, 160420, Note_on_c, 1, 81, 127
1, 160806, Note_off_c, 1, 48, 0
1, 160806, Note_off_c, 1, 72, 0
1, 160806, Note_off_c, 1, 81, 0
1, 160809, Note_on_c, 1, 50, 127
1, 160809, Note_on_c, 1, 79, 127
1, 160809, Note_on_c, 1, 70, 127
1, 161195, Note_off_c, 1, 50, 0
1, 161195, Note_off_c, 1, 79, 0
1, 161195, Note_off_c, 1, 70, 0
1, 161198, Note_on_c, 1, 78, 127
1, 161198, Note_on_c, 1, 69, 127
1, 161198, Note_on_c, 1, 51, 127
1, 161584, Note_off_c, 1, 78, 0
1, 161584, Note_off_c, 1, 69, 0
1, 161586, Note_on_c, 1, 70, 127
1, 161586, Note_on_c, 1, 79, 127
1, 161972, Note_off_c, 1, 70, 0
1, 161972, Note_off_c, 1, 79, 0
1, 161973, Note_off_c, 1, 51, 0
1, 161976, Note_on_c, 1, 82, 127
1, 161976, Note_on_c, 1, 74, 127
1, 161976, Note_on_c, 1, 54, 127
1, 161976, Note_on_c, 1, 50, 127
1, 162362, Note_off_c, 1, 82, 0
1, 162362, Note_off_c, 1, 74, 0
1, 162364, Note_on_c, 1, 81, 127
1, 162364, Note_on_c, 1, 72, 127
1, 162750, Note_off_c, 1, 81, 0
1, 162750, Note_off_c, 1, 72, 0
1, 162751, Note_off_c, 1, 54, 0
1, 162753, Note_on_c, 1, 70, 127
1, 162753, Note_on_c, 1, 79, 127
1, 162753, Note_on_c, 1, 38, 127
1, 163049, Note_off_c, 1, 50, 0
1, 163139, Note_off_c, 1, 70, 0
1, 163139, Note_off_c, 1, 79, 0
1, 163143, Note_on_c, 1, 78, 127
1, 163143, Note_on_c, 1, 69, 127
1, 163528, Note_off_c, 1, 38, 0
1, 163529, Note_off_c, 1, 78, 0
1, 163529, Note_off_c, 1, 69, 0
1, 163531, Note_on_c, 1, 43, 127
1, 163531, Note_on_c, 1, 70, 127
1, 163531, Note_on_c, 1, 79, 127
1, 163917, Note_off_c, 1, 43, 0
1, 163920, Note_on_c, 1, 50, 127
1, 164306, Note_off_c, 1, 70, 0
1, 164306, Note_off_c, 1, 79, 0
1, 164306, Note_off_c, 1, 50, 0
1, 164310, Note_on_c, 1, 51, 127
1, 164310, Note_on_c, 1, 70, 127
1, 164310, Note_on_c, 1, 74, 127
1, 164310, Note_on_c, 1, 79, 127
1, 164696, Note_off_c, 1, 51, 0
1, 164698, Note_on_c, 1, 50, 127
1, 165084, Note_off_c, 1, 50, 0
1, 165087, Note_on_c, 1, 54, 127
1, 165473, Note_off_c, 1, 54, 0
1, 165474, Note_off_c, 1, 70, 0
1, 165474, Note_off_c, 1, 74, 0
1, 165474, Note_off_c, 1, 79, 0
1, 165475, Note_on_c, 1, 55, 127
1, 165878, Note_off_c, 1, 55, 0
1, 165912, Note_on_c, 1, 72, 127
1, 165912, Note_on_c, 1, 76, 127
1, 165912, Note_on_c, 1, 67, 127
1, 165912, Note_on_c, 1, 46, 127
1, 166685, Note_off_c, 1, 72, 0
1, 166685, Note_off_c, 1, 76, 0
1, 166685, Note_off_c, 1, 67, 0
1, 166685, Note_off_c, 1, 46, 0
1, 166688, Note_on_c, 1, 77, 127
1, 166688, Note_on_c, 1, 74, 127
1, 166688, Note_on_c, 1, 67, 127
1, 166688, Note_on_c, 1, 58, 127
1, 167074, Note_off_c, 1, 77, 0
1, 167074, Note_off_c, 1, 74, 0
1, 167077, Note_on_c, 1, 72, 127
1, 167077, Note_on_c, 1, 76, 127
1, 167463, Note_off_c, 1, 67, 0
1, 167463, Note_off_c, 1, 58, 0
1, 167463, Note_off_c, 1, 72, 0
1, 167463, Note_off_c, 1, 76, 0
1, 167466, Note_on_c, 1, 79, 127
1, 167466, Note_on_c, 1, 76, 127
1, 167466, Note_on_c, 1, 58, 127
1, 167466, Note_on_c, 1, 67, 127
1, 167852, Note_off_c, 1, 79, 0
1, 167852, Note_off_c, 1, 76, 0
1, 167855, Note_on_c, 1, 81, 127
1, 167855, Note_on_c, 1, 77, 127
1, 168241, Note_off_c, 1, 58, 0
1, 168241, Note_off_c, 1, 81, 0
1, 168241, Note_off_c, 1, 77, 0
1, 168244, Note_on_c, 1, 70, 127
1, 168244, Note_on_c, 1, 57, 127
1, 168630, Note_off_c, 1, 67, 0
1, 168630, Note_off_c, 1, 70, 0
1, 168633, Note_on_c, 1, 72, 127
1, 168633, Note_on_c, 1, 65, 127
1, 169019, Note_off_c, 1, 72, 0
1, 169019, Note_off_c, 1, 65, 0
1, 169022, Note_on_c, 1, 69, 127
1, 169408, Note_off_c, 1, 57, 0
1, 169411, Note_on_c, 1, 60, 127
1, 169797, Note_off_c, 1, 60, 0
1, 170186, Note_off_c, 1, 69, 0
1, 170577, Note_on_c, 1, 62, 127
1, 170577, Note_on_c, 1, 71, 127
1, 170577, Note_on_c, 1, 56, 127
1, 170963, Note_off_c, 1, 62, 0
1, 170966, Note_on_c, 1, 59, 127
1, 171345, Note_off_c, 1, 71, 0
1, 171345, Note_off_c, 1, 56, 0
1, 171350, Note_off_c, 1, 59, 0
1, 171354, Note_on_c, 1, 74, 127
1, 171354, Note_on_c, 1, 71, 127
1, 171354, Note_on_c, 1, 56, 127
1, 171354, Note_on_c, 1, 64, 127
1, 171740, Note_off_c, 1, 74, 0
1, 171742, Note_on_c, 1, 83, 127
1, 172122, Note_off_c, 1, 71, 0
1, 172126, Note_off_c, 1, 83, 0
1, 172127, Note_off_c, 1, 56, 0
1, 172127, Note_off_c, 1, 64, 0
1, 172129, Note_on_c, 1, 76, 127
1, 172129, Note_on_c, 1, 71, 127
1, 172129, Note_on_c, 1, 56, 127
1, 172129, Note_on_c, 1, 64, 127
1, 172515, Note_off_c, 1, 76, 0
1, 172519, Note_on_c, 1, 74, 127
1, 172897, Note_off_c, 1, 71, 0
1, 172902, Note_off_c, 1, 56, 0
1, 172903, Note_off_c, 1, 74, 0
1, 172905, Note_on_c, 1, 73, 127
1, 172905, Note_on_c, 1, 69, 127
1, 172905, Note_on_c, 1, 55, 127
1, 173291, Note_off_c, 1, 64, 0
1, 173291, Note_off_c, 1, 73, 0
1, 173295, Note_on_c, 1, 62, 127
1, 173673, Note_off_c, 1, 69, 0
1, 173679, Note_off_c, 1, 62, 0
1, 173681, Note_on_c, 1, 61, 127
1, 174067, Note_off_c, 1, 55, 0
1, 174070, Note_on_c, 1, 58, 127
1, 174456, Note_off_c, 1, 58, 0
1, 174460, Note_on_c, 1, 57, 127
1, 174845, Note_off_c, 1, 61, 0
1, 174846, Note_off_c, 1, 57, 0
1, 175237, Note_on_c, 1, 53, 127
1, 175237, Note_on_c, 1, 65, 127
1, 175625, Note_on_c, 1, 81, 127
1, 176009, Note_off_c, 1, 81, 0
1, 176010, Note_off_c, 1, 53, 0
1, 176010, Note_off_c, 1, 65, 0
1, 176013, Note_on_c, 1, 77, 127
1, 176013, Note_on_c, 1, 69, 127
1, 176013, Note_on_c, 1, 62, 127
1, 176013, Note_on_c, 1, 53, 127
1, 176399, Note_off_c, 1, 77, 0
1, 176402, Note_on_c, 1, 76, 127
1, 176781, Note_off_c, 1, 69, 0
1, 176786, Note_off_c, 1, 62, 0
1, 176786, Note_off_c, 1, 53, 0
1, 176786, Note_off_c, 1, 76, 0
1, 176789, Note_on_c, 1, 74, 127
1, 176789, Note_on_c, 1, 69, 127
1, 176789, Note_on_c, 1, 62, 127
1, 176789, Note_on_c, 1, 53, 127
1, 177175, Note_off_c, 1, 74, 0
1, 177178, Note_on_c, 1, 72, 127
1, 177557, Note_off_c, 1, 69, 0
1, 177562, Note_off_c, 1, 62, 0
1, 177562, Note_off_c, 1, 53, 0
1, 177562, Note_off_c, 1, 72, 0
1, 177564, Note_on_c, 1, 70, 127
1, 177564, Note_on_c, 1, 67, 127
1, 177564, Note_on_c, 1, 53, 127
1, 177564, Note_on_c, 1, 62, 127
1, 177959, Note_off_c, 1, 70, 0
1, 177963, Note_on_c, 1, 79, 127
1, 178354, Note_off_c, 1, 67, 0
1, 178358, Note_off_c, 1, 79, 0
1, 178360, Note_off_c, 1, 53, 0
1, 178360, Note_off_c, 1, 62, 0
1, 178363, Note_on_c, 1, 52, 127
1, 178363, Note_on_c, 1, 73, 127
1, 178363, Note_on_c, 1, 64, 127
1, 178363, Note_on_c, 1, 67, 127
1, 178758, Note_off_c, 1, 52, 0
1, 178758, Note_off_c, 1, 73, 0
1, 178764, Note_on_c, 1, 50, 127
1, 178764, Note_on_c, 1, 70, 127
1, 179153, Note_off_c, 1, 64, 0
1, 179153, Note_off_c, 1, 67, 0
1, 179159, Note_off_c, 1, 50, 0
1, 179159, Note_off_c, 1, 70, 0
1, 179164, Note_on_c, 1, 69, 127
1, 179164, Note_on_c, 1, 64, 127
1, 179164, Note_on_c, 1, 49, 127
1, 179164, Note_on_c, 1, 57, 127
1, 179559, Note_off_c, 1, 69, 0
1, 179563, Note_on_c, 1, 67, 127
1, 179936, Note_off_c, 1, 67, 0
1, 179954, Note_off_c, 1, 64, 0
1, 179960, Note_off_c, 1, 49, 0
1, 179960, Note_off_c, 1, 57, 0
1, 179962, Note_on_c, 1, 62, 127
1, 179962, Note_on_c, 1, 65, 127
1, 179962, Note_on_c, 1, 57, 127
1, 179962, Note_on_c, 1, 50, 127
1, 180367, Note_off_c, 1, 62, 0
1, 180367, Note_off_c, 1, 65, 0
1, 180367, Note_off_c, 1, 57, 0
1, 180367, Note_off_c, 1, 50, 0
1, 180373, Note_on_c, 1, 70, 127
1, 180373, Note_on_c, 1, 61, 127
1, 180373, Note_on_c, 1, 52, 127
1, 180373, Note_on_c, 1, 55, 127
1, 180778, Note_off_c, 1, 70, 0
1, 180778, Note_off_c, 1, 61, 0
1, 180778, Note_off_c, 1, 52, 0
1, 180778, Note_off_c, 1, 55, 0
1, 180785, Note_on_c, 1, 68, 127
1, 180785, Note_on_c, 1, 53, 127
1, 180785, Note_on_c, 1, 62, 127
1, 181190, Note_off_c, 1, 68, 0
1, 181190, Note_off_c, 1, 53, 0
1, 181196, Note_on_c, 1, 69, 127
1, 181196, Note_on_c, 1, 50, 127
1, 181589, Note_off_c, 1, 69, 0
1, 181596, Note_off_c, 1, 62, 0
1, 181615, Note_off_c, 1, 50, 0
1, 181619, Note_on_c, 1, 61, 127
1, 181619, Note_on_c, 1, 77, 127
1, 181619, Note_on_c, 1, 69, 127
1, 181619, Note_on_c, 1, 57, 127
1, 182038, Note_off_c, 1, 61, 0
1, 182038, Note_off_c, 1, 77, 0
1, 182038, Note_off_c, 1, 69, 0
1, 182044, Note_on_c, 1, 76, 127
1, 182044, Note_on_c, 1, 64, 127
1, 182044, Note_on_c, 1, 67, 127
1, 182437, Note_off_c, 1, 76, 0
1, 182457, Note_off_c, 1, 57, 0
1, 182463, Note_off_c, 1, 64, 0
1, 182463, Note_off_c, 1, 67, 0
1, 182469, Note_on_c, 1, 73, 127
1, 182469, Note_on_c, 1, 64, 127
1, 182469, Note_on_c, 1, 58, 127
1, 182469, Note_on_c, 1, 50, 127
1, 182469, Note_on_c, 1, 67, 127
1, 182899, Note_off_c, 1, 73, 0
1, 182899, Note_off_c, 1, 64, 0
1, 182919, Note_on_c, 1, 62, 127
1, 182919, Note_on_c, 1, 74, 127
1, 183389, Note_off_c, 1, 62, 0
1, 183393, Note_off_c, 1, 58, 0
1, 183394, Note_off_c, 1, 50, 0
1, 183396, Note_off_c, 1, 74, 0
1, 183401, Note_off_c, 1, 67, 0
1, 183417, Note_on_c, 1, 74, 127
1, 183417, Note_on_c, 1, 66, 127
1, 183417, Note_on_c, 1, 62, 127
1, 183417, Note_on_c, 1, 57, 127
1, 183417, Note_on_c, 1, 50, 127
1, 185253, Note_off_c, 1, 74, 0
1, 185304, Note_off_c, 1, 66, 0
1, 185355, Note_off_c, 1, 62, 0
1, 185406, Note_off_c, 1, 57, 0
1, 185457, Note_off_c, 1, 50, 0
1, 185845, Note_on_c, 1, 74, 127
1, 185845, Note_on_c, 1, 65, 127
1, 185845, Note_on_c, 1, 62, 127
1, 186022, Note_off_c, 1, 74, 0
1, 186026, Note_on_c, 1, 77, 127
1, 186203, Note_off_c, 1, 65, 0
1, 186203, Note_off_c, 1, 77, 0
1, 186205, Note_on_c, 1, 82, 127
1, 186205, Note_on_c, 1, 67, 127
1, 186382, Note_off_c, 1, 82, 0
1, 186386, Note_on_c, 1, 76, 127
1, 186563, Note_off_c, 1, 67, 0
1, 186563, Note_off_c, 1, 76, 0
1, 186566, Note_on_c, 1, 69, 127
1, 186747, Note_on_c, 1, 81, 127
1, 186924, Note_off_c, 1, 69, 0
1, 186924, Note_off_c, 1, 81, 0
1, 186927, Note_on_c, 1, 70, 127
1, 187104, Note_off_c, 1, 70, 0
1, 187288, Note_on_c, 1, 79, 127
1, 187465, Note_off_c, 1, 79, 0
1, 187467, Note_on_c, 1, 64, 127
1, 187467, Note_on_c, 1, 73, 127
1, 187644, Note_off_c, 1, 64, 0
1, 187644, Note_off_c, 1, 73, 0
1, 188005, Note_off_c, 1, 62, 0
1, 188008, Note_on_c, 1, 58, 127
1, 188547, Note_on_c, 1, 61, 127
1, 188722, Note_off_c, 1, 61, 0
1, 189079, Note_off_c, 1, 58, 0
1, 189082, Note_on_c, 1, 62, 127
1, 189082, Note_on_c, 1, 57, 127
1, 189082, Note_on_c, 1, 69, 127
1, 189259, Note_off_c, 1, 62, 0
1, 189262, Note_on_c, 1, 61, 127
1, 189439, Note_off_c, 1, 61, 0
1, 189443, Note_on_c, 1, 59, 127
1, 189620, Note_off_c, 1, 59, 0
1, 189794, Note_off_c, 1, 57, 0
1, 189983, Note_on_c, 1, 55, 127
1, 190160, Note_off_c, 1, 55, 0
1, 190163, Note_on_c, 1, 53, 127
1, 190341, Note_off_c, 1, 69, 0
1, 190344, Note_on_c, 1, 77, 127
1, 190521, Note_off_c, 1, 77, 0
1, 190524, Note_on_c, 1, 60, 127
1, 190524, Note_on_c, 1, 76, 127
1, 190701, Note_off_c, 1, 60, 0
1, 190701, Note_off_c, 1, 76, 0
1, 190704, Note_on_c, 1, 74, 127
1, 190881, Note_off_c, 1, 74, 0
1, 191065, Note_on_c, 1, 81, 127
1, 191242, Note_off_c, 1, 81, 0
1, 191245, Note_on_c, 1, 56, 127
1, 191602, Note_off_c, 1, 53, 0
1, 191603, Note_off_c, 1, 56, 0
1, 191605, Note_on_c, 1, 59, 127
1, 191605, Note_on_c, 1, 80, 127
1, 191605, Note_on_c, 1, 52, 127
1, 191691, Note_off_c, 1, 59, 0
1, 191694, Note_on_c, 1, 57, 127
1, 191780, Note_off_c, 1, 80, 0
1, 191780, Note_off_c, 1, 57, 0
1, 191784, Note_on_c, 1, 56, 127
1, 191784, Note_on_c, 1, 78, 127
1, 191870, Note_off_c, 1, 56, 0
1, 191958, Note_off_c, 1, 52, 0
1, 191959, Note_off_c, 1, 78, 0
1, 191962, Note_on_c, 1, 80, 127
1, 191962, Note_on_c, 1, 50, 127
1, 191962, Note_on_c, 1, 59, 127
1, 192139, Note_off_c, 1, 80, 0
1, 192142, Note_on_c, 1, 83, 127
1, 192319, Note_off_c, 1, 83, 0
1, 192320, Note_off_c, 1, 50, 0
1, 192320, Note_off_c, 1, 59, 0
1, 192322, Note_on_c, 1, 81, 127
1, 192322, Note_on_c, 1, 48, 127
1, 192322, Note_on_c, 1, 52, 127
1, 192499, Note_off_c, 1, 81, 0
1, 192503, Note_on_c, 1, 76, 127
1, 192680, Note_off_c, 1, 48, 0
1, 192680, Note_off_c, 1, 52, 0
1, 192680, Note_off_c, 1, 76, 0
1, 192682, Note_on_c, 1, 74, 127
1, 192682, Note_on_c, 1, 50, 127
1, 192682, Note_on_c, 1, 57, 127
1, 192859, Note_off_c, 1, 74, 0
1, 192863, Note_on_c, 1, 72, 127
1, 193040, Note_off_c, 1, 50, 0
1, 193040, Note_off_c, 1, 57, 0
1, 193040, Note_off_c, 1, 72, 0
1, 193043, Note_on_c, 1, 71, 127
1, 193043, Note_on_c, 1, 52, 127
1, 193043, Note_on_c, 1, 56, 127
1, 193220, Note_off_c, 1, 71, 0
1, 193224, Note_on_c, 1, 72, 127
1, 193401, Note_off_c, 1, 52, 0
1, 193401, Note_off_c, 1, 56, 0
1, 193401, Note_off_c, 1, 72, 0
1, 193404, Note_on_c, 1, 71, 127
1, 193404, Note_on_c, 1, 45, 127
1, 193404, Note_on_c, 1, 57, 127
1, 193747, Note_on_c, 1, 69, 127
1, 193759, Note_off_c, 1, 71, 0
1, 194300, Note_off_c, 1, 45, 0
1, 194300, Note_off_c, 1, 57, 0
1, 194453, Note_off_c, 1, 69, 0
1, 194482, Note_on_c, 1, 53, 127
1, 194482, Note_on_c, 1, 69, 127
1, 194482, Note_on_c, 1, 65, 127
1, 194661, Note_on_c, 1, 57, 127
1, 194837, Note_off_c, 1, 53, 0
1, 194838, Note_off_c, 1, 57, 0
1, 194840, Note_off_c, 1, 69, 0
1, 194842, Note_on_c, 1, 72, 127
1, 194842, Note_on_c, 1, 62, 127
1, 194928, Note_off_c, 1, 72, 0
1, 194931, Note_on_c, 1, 70, 127
1, 195017, Note_off_c, 1, 62, 0
1, 195017, Note_off_c, 1, 70, 0
1, 195020, Note_on_c, 1, 55, 127
1, 195195, Note_off_c, 1, 55, 0
1, 195379, Note_on_c, 1, 60, 127
1, 195556, Note_off_c, 1, 60, 0
1, 195559, Note_on_c, 1, 50, 127
1, 195914, Note_off_c, 1, 50, 0
1, 195920, Note_on_c, 1, 58, 127
1, 196097, Note_off_c, 1, 58, 0
1, 196099, Note_on_c, 1, 52, 127
1, 196099, Note_on_c, 1, 67, 127
1, 196276, Note_off_c, 1, 52, 0
1, 196276, Note_off_c, 1, 67, 0
1, 196638, Note_off_c, 1, 65, 0
1, 196640, Note_on_c, 1, 46, 127
1, 196995, Note_off_c, 1, 46, 0
1, 196999, Note_on_c, 1, 48, 127
1, 197085, Note_off_c, 1, 48, 0
1, 197088, Note_on_c, 1, 47, 127
1, 197174, Note_off_c, 1, 47, 0
1, 197178, Note_on_c, 1, 64, 127
1, 197353, Note_off_c, 1, 64, 0
1, 197533, Note_on_c, 1, 45, 127
1, 197619, Note_off_c, 1, 45, 0
1, 197712, Note_on_c, 1, 65, 127
1, 197712, Note_on_c, 1, 48, 127
1, 197712, Note_on_c, 1, 60, 127
1, 197889, Note_off_c, 1, 65, 0
1, 197893, Note_on_c, 1, 64, 127
1, 198070, Note_off_c, 1, 48, 0
1, 198070, Note_off_c, 1, 64, 0
1, 198073, Note_on_c, 1, 62, 127
1, 198073, Note_on_c, 1, 50, 127
1, 198250, Note_off_c, 1, 62, 0
1, 198424, Note_off_c, 1, 60, 0
1, 198431, Note_off_c, 1, 50, 0
1, 198433, Note_on_c, 1, 60, 127
1, 198433, Note_on_c, 1, 52, 127
1, 198614, Note_on_c, 1, 58, 127
1, 198731, Note_off_c, 1, 60, 0
1, 198791, Note_off_c, 1, 52, 0
1, 198791, Note_off_c, 1, 58, 0
1, 198794, Note_on_c, 1, 57, 127
1, 198794, Note_on_c, 1, 51, 127
1, 198794, Note_on_c, 1, 65, 127
1, 198971, Note_off_c, 1, 57, 0
1, 198974, Note_on_c, 1, 60, 127
1, 199151, Note_off_c, 1, 60, 0
1, 199152, Note_off_c, 1, 51, 0
1, 199154, Note_on_c, 1, 53, 127
1, 199154, Note_on_c, 1, 62, 127
1, 199331, Note_off_c, 1, 53, 0
1, 199331, Note_off_c, 1, 62, 0
1, 199335, Note_on_c, 1, 55, 127
1, 199512, Note_off_c, 1, 55, 0
1, 199514, Note_on_c, 1, 50, 127
1, 199691, Note_off_c, 1, 50, 0
1, 199695, Note_on_c, 1, 48, 127
1, 199872, Note_off_c, 1, 48, 0
1, 200235, Note_on_c, 1, 58, 127
1, 200412, Note_off_c, 1, 58, 0
1, 200416, Note_on_c, 1, 46, 127
1, 200416, Note_on_c, 1, 52, 127
1, 200593, Note_off_c, 1, 46, 0
1, 200593, Note_off_c, 1, 52, 0
1, 200597, Note_on_c, 1, 45, 127
1, 200774, Note_off_c, 1, 45, 0
1, 200776, Note_on_c, 1, 43, 127
1, 200953, Note_off_c, 1, 43, 0
1, 201313, Note_off_c, 1, 65, 0
1, 201315, Note_on_c, 1, 58, 127
1, 201315, Note_on_c, 1, 67, 127
1, 201315, Note_on_c, 1, 46, 127
1, 201492, Note_off_c, 1, 58, 0
1, 201495, Note_on_c, 1, 57, 127
1, 201613, Note_off_c, 1, 67, 0
1, 201672, Note_off_c, 1, 57, 0
1, 201673, Note_off_c, 1, 46, 0
1, 201676, Note_on_c, 1, 55, 127
1, 201676, Note_on_c, 1, 64, 127
1, 201676, Note_on_c, 1, 48, 127
1, 201853, Note_off_c, 1, 55, 0
1, 201856, Note_on_c, 1, 57, 127
1, 201974, Note_off_c, 1, 64, 0
1, 202033, Note_off_c, 1, 57, 0
1, 202034, Note_off_c, 1, 48, 0
1, 202036, Note_on_c, 1, 65, 127
1, 202036, Note_on_c, 1, 53, 127
1, 202213, Note_off_c, 1, 65, 0
1, 202216, Note_on_c, 1, 64, 127
1, 202393, Note_off_c, 1, 64, 0
1, 202397, Note_on_c, 1, 41, 127
1, 202576, Note_on_c, 1, 67, 127
1, 202748, Note_off_c, 1, 53, 0
1, 202753, Note_off_c, 1, 67, 0
1, 202755, Note_off_c, 1, 41, 0
1, 202757, Note_on_c, 1, 69, 127
1, 202757, Note_on_c, 1, 43, 127
1, 202934, Note_off_c, 1, 69, 0
1, 202937, Note_on_c, 1, 70, 127
1, 203114, Note_off_c, 1, 70, 0
1, 203115, Note_off_c, 1, 43, 0
1, 203117, Note_on_c, 1, 72, 127
1, 203117, Note_on_c, 1, 45, 127
1, 203294, Note_off_c, 1, 72, 0
1, 203298, Note_on_c, 1, 75, 127
1, 203475, Note_off_c, 1, 45, 0
1, 203475, Note_off_c, 1, 75, 0
1, 203478, Note_on_c, 1, 53, 127
1, 203478, Note_on_c, 1, 74, 127
1, 203478, Note_on_c, 1, 46, 127
1, 203655, Note_off_c, 1, 53, 0
1, 203655, Note_off_c, 1, 74, 0
1, 203659, Note_on_c, 1, 52, 127
1, 203659, Note_on_c, 1, 72, 127
1, 203836, Note_off_c, 1, 52, 0
1, 203836, Note_off_c, 1, 72, 0
1, 204016, Note_off_c, 1, 46, 0
1, 204019, Note_on_c, 1, 43, 127
1, 204019, Note_on_c, 1, 70, 127
1, 204196, Note_off_c, 1, 43, 0
1, 204196, Note_off_c, 1, 70, 0
1, 204199, Note_on_c, 1, 48, 127
1, 204199, Note_on_c, 1, 67, 127
1, 204376, Note_off_c, 1, 48, 0
1, 204376, Note_off_c, 1, 67, 0
1, 204379, Note_on_c, 1, 47, 127
1, 204379, Note_on_c, 1, 77, 127
1, 204556, Note_off_c, 1, 47, 0
1, 204556, Note_off_c, 1, 77, 0
1, 204559, Note_on_c, 1, 55, 127
1, 204559, Note_on_c, 1, 76, 127
1, 204559, Note_on_c, 1, 48, 127
1, 204736, Note_off_c, 1, 55, 0
1, 204736, Note_off_c, 1, 76, 0
1, 204740, Note_on_c, 1, 53, 127
1, 204740, Note_on_c, 1, 74, 127
1, 204917, Note_off_c, 1, 53, 0
1, 204917, Note_off_c, 1, 74, 0
1, 205097, Note_off_c, 1, 48, 0
1, 205100, Note_on_c, 1, 45, 127
1, 205100, Note_on_c, 1, 72, 127
1, 205277, Note_off_c, 1, 45, 0
1, 205277, Note_off_c, 1, 72, 0
1, 205280, Note_on_c, 1, 50, 127
1, 205280, Note_on_c, 1, 69, 127
1, 205457, Note_off_c, 1, 50, 0
1, 205457, Note_off_c, 1, 69, 0
1, 205461, Note_on_c, 1, 49, 127
1, 205461, Note_on_c, 1, 79, 127
1, 205638, Note_off_c, 1, 49, 0
1, 205638, Note_off_c, 1, 79, 0
1, 205640, Note_on_c, 1, 77, 127
1, 205640, Note_on_c, 1, 50, 127
1, 205640, Note_on_c, 1, 57, 127
1, 205817, Note_off_c, 1, 77, 0
1, 205821, Note_on_c, 1, 76, 127
1, 205998, Note_off_c, 1, 50, 0
1, 205998, Note_off_c, 1, 57, 0
1, 205998, Note_off_c, 1, 76, 0
1, 206002, Note_on_c, 1, 77, 127
1, 206002, Note_on_c, 1, 62, 127
1, 206002, Note_on_c, 1, 58, 127
1, 206179, Note_off_c, 1, 77, 0
1, 206181, Note_on_c, 1, 74, 127
1, 206358, Note_off_c, 1, 74, 0
1, 206360, Note_off_c, 1, 62, 0
1, 206362, Note_on_c, 1, 61, 127
1, 206362, Note_on_c, 1, 76, 127
1, 206539, Note_off_c, 1, 61, 0
1, 206539, Note_off_c, 1, 76, 0
1, 206638, Note_off_c, 1, 58, 0
1, 206721, Note_on_c, 1, 57, 127
1, 206721, Note_on_c, 1, 73, 127
1, 206721, Note_on_c, 1, 64, 127
1, 206898, Note_off_c, 1, 57, 0
1, 206898, Note_off_c, 1, 73, 0
1, 206900, Note_on_c, 1, 55, 127
1, 206900, Note_on_c, 1, 71, 127
1, 207077, Note_off_c, 1, 55, 0
1, 207077, Note_off_c, 1, 71, 0
1, 207079, Note_off_c, 1, 64, 0
1, 207081, Note_on_c, 1, 53, 127
1, 207081, Note_on_c, 1, 73, 127
1, 207081, Note_on_c, 1, 57, 127
1, 207258, Note_off_c, 1, 53, 0
1, 207258, Note_off_c, 1, 73, 0
1, 207261, Note_on_c, 1, 52, 127
1, 207261, Note_on_c, 1, 69, 127
1, 207438, Note_off_c, 1, 52, 0
1, 207438, Note_off_c, 1, 69, 0
1, 207439, Note_off_c, 1, 57, 0
1, 207441, Note_on_c, 1, 54, 127
1, 207441, Note_on_c, 1, 69, 127
1, 207441, Note_on_c, 1, 74, 127
1, 207621, Note_on_c, 1, 57, 127
1, 207796, Note_off_c, 1, 54, 0
1, 207798, Note_off_c, 1, 57, 0
1, 207799, Note_off_c, 1, 69, 0
1, 207802, Note_on_c, 1, 72, 127
1, 207802, Note_on_c, 1, 62, 127
1, 207888, Note_off_c, 1, 72, 0
1, 207891, Note_on_c, 1, 70, 127
1, 207977, Note_off_c, 1, 62, 0
1, 207977, Note_off_c, 1, 70, 0
1, 207980, Note_on_c, 1, 55, 127
1, 208155, Note_off_c, 1, 55, 0
1, 208338, Note_on_c, 1, 60, 127
1, 208515, Note_off_c, 1, 60, 0
1, 208519, Note_on_c, 1, 50, 127
1, 208874, Note_off_c, 1, 50, 0
1, 208879, Note_on_c, 1, 58, 127
1, 209056, Note_off_c, 1, 58, 0
1, 209059, Note_on_c, 1, 52, 127
1, 209059, Note_on_c, 1, 67, 127
1, 209236, Note_off_c, 1, 52, 0
1, 209236, Note_off_c, 1, 67, 0
1, 209240, Note_on_c, 1, 53, 127
1, 209417, Note_off_c, 1, 53, 0
1, 209600, Note_on_c, 1, 65, 127
1, 209600, Note_on_c, 1, 46, 127
1, 209876, Note_off_c, 1, 74, 0
1, 209937, Note_off_c, 1, 65, 0
1, 209958, Note_off_c, 1, 46, 0
1, 209960, Note_on_c, 1, 77, 127
1, 209960, Note_on_c, 1, 43, 127
1, 209960, Note_on_c, 1, 67, 127
1, 210137, Note_off_c, 1, 77, 0
1, 210141, Note_on_c, 1, 76, 127
1, 210318, Note_off_c, 1, 43, 0
1, 210318, Note_off_c, 1, 67, 0
1, 210318, Note_off_c, 1, 76, 0
1, 210321, Note_on_c, 1, 74, 127
1, 210321, Note_on_c, 1, 45, 127
1, 210321, Note_on_c, 1, 64, 127
1, 210498, Note_off_c, 1, 74, 0
1, 210502, Note_on_c, 1, 73, 127
1, 210679, Note_off_c, 1, 45, 0
1, 210679, Note_off_c, 1, 64, 0
1, 210679, Note_off_c, 1, 73, 0
1, 210681, Note_on_c, 1, 38, 127
1, 210681, Note_on_c, 1, 62, 127
1, 210681, Note_on_c, 1, 50, 127
1, 210681, Note_on_c, 1, 74, 127
1, 211577, Note_off_c, 1, 38, 0
1, 211577, Note_off_c, 1, 62, 0
1, 211689, Note_off_c, 1, 50, 0
1, 211746, Note_off_c, 1, 74, 0
1, 211759, Note_on_c, 1, 69, 127
1, 211759, Note_on_c, 1, 50, 127
1, 211759, Note_on_c, 1, 65, 127
1, 212057, Note_off_c, 1, 69, 0
1, 212117, Note_off_c, 1, 50, 0
1, 212117, Note_off_c, 1, 65, 0
1, 212119, Note_on_c, 1, 70, 127
1, 212119, Note_on_c, 1, 62, 127
1, 212119, Note_on_c, 1, 65, 127
1, 212205, Note_off_c, 1, 70, 0
1, 212209, Note_on_c, 1, 69, 127
1, 212295, Note_off_c, 1, 69, 0
1, 212472, Note_off_c, 1, 62, 0
1, 212476, Note_on_c, 1, 60, 127
1, 212655, Note_on_c, 1, 67, 127
1, 212741, Note_off_c, 1, 67, 0
1, 212829, Note_off_c, 1, 65, 0
1, 212829, Note_off_c, 1, 60, 0
1, 212833, Note_on_c, 1, 70, 127
1, 212833, Note_on_c, 1, 58, 127
1, 212833, Note_on_c, 1, 67, 127
1, 213010, Note_off_c, 1, 70, 0
1, 213013, Note_on_c, 1, 72, 127
1, 213190, Note_off_c, 1, 72, 0
1, 213191, Note_off_c, 1, 58, 0
1, 213194, Note_on_c, 1, 57, 127
1, 213194, Note_on_c, 1, 74, 127
1, 213371, Note_off_c, 1, 57, 0
1, 213371, Note_off_c, 1, 74, 0
1, 213374, Note_on_c, 1, 55, 127
1, 213551, Note_off_c, 1, 55, 0
1, 213731, Note_off_c, 1, 67, 0
1, 213734, Note_on_c, 1, 58, 127
1, 213734, Note_on_c, 1, 65, 127
1, 213734, Note_on_c, 1, 69, 127
1, 213911, Note_off_c, 1, 58, 0
1, 213911, Note_off_c, 1, 65, 0
1, 213911, Note_off_c, 1, 69, 0
1, 213915, Note_on_c, 1, 64, 127
1, 213915, Note_on_c, 1, 67, 127
1, 213915, Note_on_c, 1, 60, 127
1, 214250, Note_off_c, 1, 64, 0
1, 214250, Note_off_c, 1, 67, 0
1, 214270, Note_off_c, 1, 60, 0
1, 214273, Note_on_c, 1, 69, 127
1, 214273, Note_on_c, 1, 48, 127
1, 214273, Note_on_c, 1, 64, 127
1, 214359, Note_off_c, 1, 69, 0
1, 214362, Note_on_c, 1, 70, 127
1, 214448, Note_off_c, 1, 48, 0
1, 214448, Note_off_c, 1, 70, 0
1, 214451, Note_on_c, 1, 46, 127
1, 214451, Note_on_c, 1, 72, 127
1, 214628, Note_off_c, 1, 46, 0
1, 214632, Note_on_c, 1, 45, 127
1, 214809, Note_off_c, 1, 72, 0
1, 214809, Note_off_c, 1, 45, 0
1, 214811, Note_on_c, 1, 43, 127
1, 214988, Note_off_c, 1, 43, 0
1, 214990, Note_off_c, 1, 64, 0
1, 214992, Note_on_c, 1, 69, 127
1, 214992, Note_on_c, 1, 41, 127
1, 214992, Note_on_c, 1, 65, 127
1, 215169, Note_off_c, 1, 69, 0
1, 215172, Note_on_c, 1, 67, 127
1, 215349, Note_off_c, 1, 67, 0
1, 215350, Note_off_c, 1, 41, 0
1, 215353, Note_on_c, 1, 70, 127
1, 215353, Note_on_c, 1, 43, 127
1, 215530, Note_off_c, 1, 70, 0
1, 215704, Note_off_c, 1, 65, 0
1, 215711, Note_off_c, 1, 43, 0
1, 215713, Note_on_c, 1, 67, 127
1, 215713, Note_on_c, 1, 45, 127
1, 215890, Note_off_c, 1, 67, 0
1, 215893, Note_on_c, 1, 65, 127
1, 216070, Note_off_c, 1, 65, 0
1, 216071, Note_off_c, 1, 45, 0
1, 216073, Note_on_c, 1, 46, 127
1, 216073, Note_on_c, 1, 65, 127
1, 216073, Note_on_c, 1, 74, 127
1, 216250, Note_off_c, 1, 46, 0
1, 216254, Note_on_c, 1, 53, 127
1, 216371, Note_off_c, 1, 65, 0
1, 216431, Note_off_c, 1, 53, 0
1, 216434, Note_on_c, 1, 67, 127
1, 216434, Note_on_c, 1, 58, 127
1, 216520, Note_off_c, 1, 67, 0
1, 216609, Note_off_c, 1, 58, 0
1, 216613, Note_on_c, 1, 57, 127
1, 216788, Note_off_c, 1, 57, 0
1, 216790, Note_on_c, 1, 55, 127
1, 216965, Note_off_c, 1, 55, 0
1, 216969, Note_on_c, 1, 64, 127
1, 217055, Note_off_c, 1, 64, 0
1, 217147, Note_on_c, 1, 52, 127
1, 217324, Note_off_c, 1, 52, 0
1, 217328, Note_on_c, 1, 49, 127
1, 217328, Note_on_c, 1, 69, 127
1, 217505, Note_off_c, 1, 49, 0
1, 217505, Note_off_c, 1, 69, 0
1, 217508, Note_on_c, 1, 50, 127
1, 217508, Note_on_c, 1, 70, 127
1, 217685, Note_off_c, 1, 50, 0
1, 217685, Note_off_c, 1, 70, 0
1, 218317, Note_off_c, 1, 74, 0
1, 218587, Note_on_c, 1, 73, 127
1, 218587, Note_on_c, 1, 45, 127
1, 218764, Note_off_c, 1, 73, 0
1, 218768, Note_on_c, 1, 71, 127
1, 218945, Note_off_c, 1, 45, 0
1, 218945, Note_off_c, 1, 71, 0
1, 219308, Note_on_c, 1, 65, 127
1, 219308, Note_on_c, 1, 50, 127
1, 219308, Note_on_c, 1, 62, 127
1, 219485, Note_off_c, 1, 65, 0
1, 219488, Note_on_c, 1, 64, 127
1, 219665, Note_off_c, 1, 64, 0
1, 219666, Note_off_c, 1, 50, 0
1, 219669, Note_on_c, 1, 67, 127
1, 219669, Note_on_c, 1, 41, 127
1, 219846, Note_off_c, 1, 67, 0
1, 220020, Note_off_c, 1, 62, 0
1, 220027, Note_off_c, 1, 41, 0
1, 220029, Note_on_c, 1, 64, 127
1, 220029, Note_on_c, 1, 45, 127
1, 220206, Note_off_c, 1, 64, 0
1, 220209, Note_on_c, 1, 62, 127
1, 220368, Note_off_c, 1, 62, 0
1, 220377, Note_off_c, 1, 45, 0
1, 220390, Note_on_c, 1, 38, 127
1, 220390, Note_on_c, 1, 65, 127
1, 220390, Note_on_c, 1, 69, 127
1, 220567, Note_off_c, 1, 38, 0
1, 220570, Note_on_c, 1, 45, 127
1, 220708, Note_off_c, 1, 65, 0
1, 220708, Note_off_c, 1, 69, 0
1, 220747, Note_off_c, 1, 45, 0
1, 220750, Note_on_c, 1, 70, 127
1, 220750, Note_on_c, 1, 50, 127
1, 220750, Note_on_c, 1, 65, 127
1, 220836, Note_off_c, 1, 70, 0
1, 220839, Note_on_c, 1, 69, 127
1, 220925, Note_off_c, 1, 50, 0
1, 220925, Note_off_c, 1, 69, 0
1, 220928, Note_on_c, 1, 48, 127
1, 221103, Note_off_c, 1, 48, 0
1, 221107, Note_on_c, 1, 46, 127
1, 221282, Note_off_c, 1, 46, 0
1, 221285, Note_on_c, 1, 67, 127
1, 221285, Note_on_c, 1, 45, 127
1, 221371, Note_off_c, 1, 67, 0
1, 221460, Note_off_c, 1, 45, 0
1, 221464, Note_on_c, 1, 43, 127
1, 221641, Note_off_c, 1, 43, 0
1, 221643, Note_on_c, 1, 72, 127
1, 221820, Note_off_c, 1, 72, 0
1, 221824, Note_on_c, 1, 74, 127
1, 222001, Note_off_c, 1, 74, 0
1, 222725, Note_on_c, 1, 55, 127
1, 222863, Note_off_c, 1, 65, 0
1, 222902, Note_off_c, 1, 55, 0
1, 222905, Note_on_c, 1, 69, 127
1, 222905, Note_on_c, 1, 60, 127
1, 222905, Note_on_c, 1, 64, 127
1, 222991, Note_off_c, 1, 69, 0
1, 222995, Note_on_c, 1, 67, 127
1, 223080, Note_off_c, 1, 60, 0
1, 223081, Note_off_c, 1, 67, 0
1, 223083, Note_on_c, 1, 58, 127
1, 223258, Note_off_c, 1, 58, 0
1, 223262, Note_on_c, 1, 57, 127
1, 223437, Note_off_c, 1, 57, 0
1, 223440, Note_on_c, 1, 65, 127
1, 223440, Note_on_c, 1, 55, 127
1, 223526, Note_off_c, 1, 65, 0
1, 223615, Note_off_c, 1, 55, 0
1, 223619, Note_on_c, 1, 53, 127
1, 223796, Note_off_c, 1, 53, 0
1, 223798, Note_on_c, 1, 70, 127
1, 223975, Note_off_c, 1, 70, 0
1, 223979, Note_on_c, 1, 72, 127
1, 224156, Note_off_c, 1, 72, 0
1, 224961, Note_off_c, 1, 64, 0
1, 225060, Note_on_c, 1, 67, 127
1, 225060, Note_on_c, 1, 58, 127
1, 225060, Note_on_c, 1, 62, 127
1, 225146, Note_off_c, 1, 67, 0
1, 225150, Note_on_c, 1, 65, 127
1, 225235, Note_off_c, 1, 58, 0
1, 225236, Note_off_c, 1, 65, 0
1, 225239, Note_on_c, 1, 57, 127
1, 225414, Note_off_c, 1, 57, 0
1, 225417, Note_on_c, 1, 55, 127
1, 225592, Note_off_c, 1, 55, 0
1, 225596, Note_on_c, 1, 64, 127
1, 225596, Note_on_c, 1, 53, 127
1, 225682, Note_off_c, 1, 64, 0
1, 225771, Note_off_c, 1, 53, 0
1, 225774, Note_on_c, 1, 52, 127
1, 225951, Note_off_c, 1, 52, 0
1, 225954, Note_on_c, 1, 69, 127
1, 226131, Note_off_c, 1, 62, 0
1, 226131, Note_off_c, 1, 69, 0
1, 226134, Note_on_c, 1, 55, 127
1, 226134, Note_on_c, 1, 70, 127
1, 226134, Note_on_c, 1, 61, 127
1, 226311, Note_off_c, 1, 55, 0
1, 226311, Note_off_c, 1, 70, 0
1, 226315, Note_on_c, 1, 53, 127
1, 226315, Note_on_c, 1, 69, 127
1, 226492, Note_off_c, 1, 53, 0
1, 226492, Note_off_c, 1, 69, 0
1, 226675, Note_on_c, 1, 67, 127
1, 226675, Note_on_c, 1, 52, 127
1, 226837, Note_off_c, 1, 67, 0
1, 226852, Note_off_c, 1, 61, 0
1, 226852, Note_off_c, 1, 52, 0
1, 226855, Note_on_c, 1, 53, 127
1, 226855, Note_on_c, 1, 69, 127
1, 226855, Note_on_c, 1, 62, 127
1, 227210, Note_off_c, 1, 53, 0
1, 227210, Note_off_c, 1, 69, 0
1, 227213, Note_on_c, 1, 67, 127
1, 227213, Note_on_c, 1, 55, 127
1, 227390, Note_off_c, 1, 67, 0
1, 227394, Note_on_c, 1, 65, 127
1, 227571, Note_off_c, 1, 55, 0
1, 227571, Note_off_c, 1, 65, 0
1, 227572, Note_off_c, 1, 62, 0
1, 227575, Note_on_c, 1, 64, 127
1, 227575, Note_on_c, 1, 57, 127
1, 227575, Note_on_c, 1, 61, 127
1, 227752, Note_off_c, 1, 64, 0
1, 227754, Note_on_c, 1, 65, 127
1, 227931, Note_off_c, 1, 65, 0
1, 227933, Note_off_c, 1, 57, 0
1, 227933, Note_off_c, 1, 61, 0
1, 227935, Note_on_c, 1, 50, 127
1, 227935, Note_on_c, 1, 62, 127
1, 228290, Note_off_c, 1, 50, 0
1, 228294, Note_on_c, 1, 45, 127
1, 228649, Note_off_c, 1, 45, 0
1, 228652, Note_on_c, 1, 38, 127
1, 228831, Note_off_c, 1, 62, 0
1, 229010, Note_off_c, 1, 38, 0
1, 229058, Note_on_c, 1, 69, 127
1, 229058, Note_on_c, 1, 50, 127
1, 229235, Note_off_c, 1, 69, 0
1, 229238, Note_on_c, 1, 67, 127
1, 229415, Note_off_c, 1, 67, 0
1, 229416, Note_off_c, 1, 50, 0
1, 229419, Note_on_c, 1, 52, 127
1, 229419, Note_on_c, 1, 65, 127
1, 229505, Note_off_c, 1, 52, 0
1, 229507, Note_on_c, 1, 50, 127
1, 229593, Note_off_c, 1, 50, 0
1, 229594, Note_off_c, 1, 65, 0
1, 229596, Note_on_c, 1, 52, 127
1, 229596, Note_on_c, 1, 67, 127
1, 229682, Note_off_c, 1, 52, 0
1, 229686, Note_on_c, 1, 50, 127
1, 229771, Note_off_c, 1, 67, 0
1, 229772, Note_off_c, 1, 50, 0
1, 229775, Note_on_c, 1, 52, 127
1, 229775, Note_on_c, 1, 69, 127
1, 229861, Note_off_c, 1, 52, 0
1, 229864, Note_on_c, 1, 50, 127
1, 229950, Note_off_c, 1, 69, 0
1, 229950, Note_off_c, 1, 50, 0
1, 229953, Note_on_c, 1, 48, 127
1, 229953, Note_on_c, 1, 70, 127
1, 230039, Note_off_c, 1, 48, 0
1, 230043, Note_on_c, 1, 50, 127
1, 230128, Note_off_c, 1, 70, 0
1, 230129, Note_off_c, 1, 50, 0
1, 230132, Note_on_c, 1, 72, 127
1, 230132, Note_on_c, 1, 55, 127
1, 230132, Note_on_c, 1, 52, 127
1, 230309, Note_off_c, 1, 72, 0
1, 230312, Note_on_c, 1, 67, 127
1, 230489, Note_off_c, 1, 67, 0
1, 230490, Note_off_c, 1, 55, 0
1, 230492, Note_on_c, 1, 57, 127
1, 230492, Note_on_c, 1, 69, 127
1, 230578, Note_off_c, 1, 57, 0
1, 230667, Note_off_c, 1, 69, 0
1, 230670, Note_on_c, 1, 70, 127
1, 230845, Note_off_c, 1, 70, 0
1, 231027, Note_on_c, 1, 54, 127
1, 231113, Note_off_c, 1, 54, 0
1, 231203, Note_off_c, 1, 52, 0
1, 231206, Note_on_c, 1, 72, 127
1, 231206, Note_on_c, 1, 54, 127
1, 231206, Note_on_c, 1, 57, 127
1, 231383, Note_off_c, 1, 72, 0
1, 231385, Note_on_c, 1, 75, 127
1, 231562, Note_off_c, 1, 75, 0
1, 231564, Note_off_c, 1, 54, 0
1, 231566, Note_on_c, 1, 55, 127
1, 231566, Note_on_c, 1, 74, 127
1, 231652, Note_off_c, 1, 55, 0
1, 231741, Note_off_c, 1, 74, 0
1, 231923, Note_on_c, 1, 70, 127
1, 232098, Note_off_c, 1, 70, 0
1, 232101, Note_on_c, 1, 52, 127
1, 232101, Note_on_c, 1, 69, 127
1, 232187, Note_off_c, 1, 52, 0
1, 232276, Note_off_c, 1, 69, 0
1, 232277, Note_off_c, 1, 57, 0
1, 232280, Note_on_c, 1, 70, 127
1, 232280, Note_on_c, 1, 55, 127
1, 232457, Note_off_c, 1, 70, 0
1, 232459, Note_on_c, 1, 69, 127
1, 232636, Note_off_c, 1, 69, 0
1, 232640, Note_on_c, 1, 72, 127
1, 232640, Note_on_c, 1, 50, 127
1, 232817, Note_off_c, 1, 72, 0
1, 232998, Note_off_c, 1, 50, 0
1, 233000, Note_on_c, 1, 43, 127
1, 233180, Note_on_c, 1, 67, 127
1, 233328, Note_off_c, 1, 67, 0
1, 233337, Note_off_c, 1, 43, 0
1, 233359, Note_off_c, 1, 55, 0
1, 233361, Note_on_c, 1, 55, 127
1, 233361, Note_on_c, 1, 73, 127
1, 233361, Note_on_c, 1, 64, 127
1, 233538, Note_off_c, 1, 55, 0
1, 233541, Note_on_c, 1, 53, 127
1, 233718, Note_off_c, 1, 53, 0
1, 233719, Note_off_c, 1, 73, 0
1, 233719, Note_off_c, 1, 64, 0
1, 233721, Note_on_c, 1, 74, 127
1, 233721, Note_on_c, 1, 55, 127
1, 233721, Note_on_c, 1, 64, 127
1, 233807, Note_off_c, 1, 74, 0
1, 233811, Note_on_c, 1, 73, 127
1, 233896, Note_off_c, 1, 55, 0
1, 233897, Note_off_c, 1, 73, 0
1, 233900, Note_on_c, 1, 58, 127
1, 234075, Note_off_c, 1, 58, 0
1, 234078, Note_on_c, 1, 57, 127
1, 234253, Note_off_c, 1, 57, 0
1, 234257, Note_on_c, 1, 71, 127
1, 234343, Note_off_c, 1, 71, 0
1, 234431, Note_off_c, 1, 64, 0
1, 234434, Note_on_c, 1, 53, 127
1, 234434, Note_on_c, 1, 74, 127
1, 234434, Note_on_c, 1, 69, 127
1, 234611, Note_off_c, 1, 53, 0
1, 234615, Note_on_c, 1, 57, 127
1, 234752, Note_off_c, 1, 74, 0
1, 234792, Note_off_c, 1, 69, 0
1, 234792, Note_off_c, 1, 57, 0
1, 234795, Note_on_c, 1, 76, 127
1, 234795, Note_on_c, 1, 55, 127
1, 234795, Note_on_c, 1, 69, 127
1, 234881, Note_off_c, 1, 76, 0
1, 234884, Note_on_c, 1, 74, 127
1, 234970, Note_off_c, 1, 55, 0
1, 234970, Note_off_c, 1, 74, 0
1, 234974, Note_on_c, 1, 53, 127
1, 235149, Note_off_c, 1, 53, 0
1, 235152, Note_on_c, 1, 52, 127
1, 235327, Note_off_c, 1, 52, 0
1, 235330, Note_on_c, 1, 73, 127
1, 235330, Note_on_c, 1, 50, 127
1, 235416, Note_off_c, 1, 73, 0
1, 235505, Note_off_c, 1, 50, 0
1, 235508, Note_on_c, 1, 49, 127
1, 235689, Note_on_c, 1, 77, 127
1, 235866, Note_off_c, 1, 69, 0
1, 235866, Note_off_c, 1, 49, 0
1, 235866, Note_off_c, 1, 77, 0
1, 235869, Note_on_c, 1, 79, 127
1, 235869, Note_on_c, 1, 73, 127
1, 235869, Note_on_c, 1, 45, 127
1, 236046, Note_off_c, 1, 79, 0
1, 236049, Note_on_c, 1, 76, 127
1, 236226, Note_off_c, 1, 76, 0
1, 236227, Note_off_c, 1, 73, 0
1, 236227, Note_off_c, 1, 45, 0
1, 236229, Note_on_c, 1, 74, 127
1, 236229, Note_on_c, 1, 77, 127
1, 236229, Note_on_c, 1, 50, 127
1, 236397, Note_off_c, 1, 74, 0
1, 236406, Note_off_c, 1, 77, 0
1, 236587, Note_off_c, 1, 50, 0
1, 236589, Note_on_c, 1, 77, 127
1, 236589, Note_on_c, 1, 73, 127
1, 236589, Note_on_c, 1, 45, 127
1, 236766, Note_off_c, 1, 77, 0
1, 236770, Note_on_c, 1, 76, 127
1, 236944, Note_off_c, 1, 73, 0
1, 236947, Note_off_c, 1, 45, 0
1, 236947, Note_off_c, 1, 76, 0
1, 236950, Note_on_c, 1, 74, 127
1, 236950, Note_on_c, 1, 47, 127
1, 237127, Note_off_c, 1, 74, 0
1, 237131, Note_on_c, 1, 73, 127
1, 237308, Note_off_c, 1, 47, 0
1, 237308, Note_off_c, 1, 73, 0
1, 237310, Note_on_c, 1, 71, 127
1, 237310, Note_on_c, 1, 49, 127
1, 237487, Note_off_c, 1, 71, 0
1, 237491, Note_on_c, 1, 69, 127
1, 237668, Note_off_c, 1, 49, 0
1, 237670, Note_off_c, 1, 69, 0
1, 237687, Note_on_c, 1, 69, 127
1, 237687, Note_on_c, 1, 65, 127
1, 237687, Note_on_c, 1, 50, 127
1, 237967, Note_off_c, 1, 69, 0
1, 238042, Note_off_c, 1, 65, 0
1, 238042, Note_off_c, 1, 50, 0
1, 238045, Note_on_c, 1, 70, 127
1, 238045, Note_on_c, 1, 62, 127
1, 238045, Note_on_c, 1, 65, 127
1, 238131, Note_off_c, 1, 70, 0
1, 238134, Note_on_c, 1, 69, 127
1, 238220, Note_off_c, 1, 69, 0
1, 238398, Note_off_c, 1, 62, 0
1, 238402, Note_on_c, 1, 60, 127
1, 238580, Note_on_c, 1, 67, 127
1, 238666, Note_off_c, 1, 67, 0
1, 238755, Note_off_c, 1, 65, 0
1, 238755, Note_off_c, 1, 60, 0
1, 238758, Note_on_c, 1, 70, 127
1, 238758, Note_on_c, 1, 58, 127
1, 238758, Note_on_c, 1, 67, 127
1, 238935, Note_off_c, 1, 70, 0
1, 238938, Note_on_c, 1, 72, 127
1, 239115, Note_off_c, 1, 72, 0
1, 239116, Note_off_c, 1, 58, 0
1, 239119, Note_on_c, 1, 74, 127
1, 239119, Note_on_c, 1, 57, 127
1, 239296, Note_off_c, 1, 74, 0
1, 239296, Note_off_c, 1, 57, 0
1, 239299, Note_on_c, 1, 55, 127
1, 239476, Note_off_c, 1, 55, 0
1, 239656, Note_off_c, 1, 67, 0
1, 239659, Note_on_c, 1, 69, 127
1, 239659, Note_on_c, 1, 65, 127
1, 239659, Note_on_c, 1, 58, 127
1, 239836, Note_off_c, 1, 69, 0
1, 239836, Note_off_c, 1, 65, 0
1, 239836, Note_off_c, 1, 58, 0
1, 239840, Note_on_c, 1, 67, 127
1, 239840, Note_on_c, 1, 64, 127
1, 239840, Note_on_c, 1, 60, 127
1, 240120, Note_off_c, 1, 67, 0
1, 240195, Note_off_c, 1, 64, 0
1, 240195, Note_off_c, 1, 60, 0
1, 240198, Note_on_c, 1, 69, 127
1, 240198, Note_on_c, 1, 48, 127
1, 240198, Note_on_c, 1, 64, 127
1, 240284, Note_off_c, 1, 69, 0
1, 240288, Note_on_c, 1, 70, 127
1, 240373, Note_off_c, 1, 48, 0
1, 240374, Note_off_c, 1, 70, 0
1, 240377, Note_on_c, 1, 46, 127
1, 240377, Note_on_c, 1, 72, 127
1, 240554, Note_off_c, 1, 46, 0
1, 240557, Note_on_c, 1, 45, 127
1, 240734, Note_off_c, 1, 45, 0
1, 240735, Note_off_c, 1, 72, 0
1, 240737, Note_on_c, 1, 43, 127
1, 240914, Note_off_c, 1, 43, 0
1, 240915, Note_off_c, 1, 64, 0
1, 240917, Note_on_c, 1, 69, 127
1, 240917, Note_on_c, 1, 41, 127
1, 240917, Note_on_c, 1, 65, 127
1, 241094, Note_off_c, 1, 69, 0
1, 241098, Note_on_c, 1, 67, 127
1, 241275, Note_off_c, 1, 41, 0
1, 241275, Note_off_c, 1, 67, 0
1, 241277, Note_on_c, 1, 70, 127
1, 241277, Note_on_c, 1, 43, 127
1, 241454, Note_off_c, 1, 70, 0
1, 241629, Note_off_c, 1, 65, 0
1, 241635, Note_off_c, 1, 43, 0
1, 241638, Note_on_c, 1, 67, 127
1, 241638, Note_on_c, 1, 45, 127
1, 241815, Note_off_c, 1, 67, 0
1, 241819, Note_on_c, 1, 65, 127
1, 241996, Note_off_c, 1, 45, 0
1, 241996, Note_off_c, 1, 65, 0
1, 241998, Note_on_c, 1, 46, 127
1, 241998, Note_on_c, 1, 65, 127
1, 241998, Note_on_c, 1, 74, 127
1, 242175, Note_off_c, 1, 46, 0
1, 242179, Note_on_c, 1, 53, 127
1, 242259, Note_off_c, 1, 65, 0
1, 242354, Note_off_c, 1, 53, 0
1, 242357, Note_on_c, 1, 67, 127
1, 242357, Note_on_c, 1, 58, 127
1, 242443, Note_off_c, 1, 67, 0
1, 242532, Note_off_c, 1, 58, 0
1, 242536, Note_on_c, 1, 57, 127
1, 242711, Note_off_c, 1, 57, 0
1, 242714, Note_on_c, 1, 55, 127
1, 242889, Note_off_c, 1, 55, 0
1, 242892, Note_on_c, 1, 64, 127
1, 242978, Note_off_c, 1, 64, 0
1, 243070, Note_on_c, 1, 52, 127
1, 243247, Note_off_c, 1, 52, 0
1, 243251, Note_on_c, 1, 69, 127
1, 243251, Note_on_c, 1, 49, 127
1, 243428, Note_off_c, 1, 69, 0
1, 243428, Note_off_c, 1, 49, 0
1, 243431, Note_on_c, 1, 70, 127
1, 243431, Note_on_c, 1, 50, 127
1, 243608, Note_off_c, 1, 70, 0
1, 243608, Note_off_c, 1, 50, 0
1, 244239, Note_off_c, 1, 74, 0
1, 244511, Note_on_c, 1, 73, 127
1, 244511, Note_on_c, 1, 45, 127
1, 244688, Note_off_c, 1, 73, 0
1, 244691, Note_on_c, 1, 71, 127
1, 244868, Note_off_c, 1, 71, 0
1, 244869, Note_off_c, 1, 45, 0
1, 245232, Note_on_c, 1, 65, 127
1, 245232, Note_on_c, 1, 50, 127
1, 245232, Note_on_c, 1, 62, 127
1, 245409, Note_off_c, 1, 65, 0
1, 245411, Note_on_c, 1, 64, 127
1, 245588, Note_off_c, 1, 64, 0
1, 245590, Note_off_c, 1, 50, 0
1, 245592, Note_on_c, 1, 67, 127
1, 245592, Note_on_c, 1, 41, 127
1, 245769, Note_off_c, 1, 67, 0
1, 245944, Note_off_c, 1, 62, 0
1, 245950, Note_off_c, 1, 41, 0
1, 245953, Note_on_c, 1, 64, 127
1, 245953, Note_on_c, 1, 45, 127
1, 246130, Note_off_c, 1, 64, 0
1, 246132, Note_on_c, 1, 62, 127
1, 246291, Note_off_c, 1, 62, 0
1, 246311, Note_off_c, 1, 45, 0
1, 246343, Note_on_c, 1, 38, 127
1, 246343, Note_on_c, 1, 69, 127
1, 246343, Note_on_c, 1, 65, 127
1, 246524, Note_off_c, 1, 38, 0
1, 246526, Note_on_c, 1, 45, 127
1, 246630, Note_off_c, 1, 69, 0
1, 246705, Note_off_c, 1, 45, 0
1, 246708, Note_off_c, 1, 65, 0
1, 246710, Note_on_c, 1, 70, 127
1, 246710, Note_on_c, 1, 50, 127
1, 246710, Note_on_c, 1, 65, 127
1, 246798, Note_off_c, 1, 70, 0
1, 246804, Note_on_c, 1, 69, 127
1, 246889, Note_off_c, 1, 50, 0
1, 246892, Note_off_c, 1, 69, 0
1, 246894, Note_on_c, 1, 48, 127
1, 247073, Note_off_c, 1, 48, 0
1, 247078, Note_on_c, 1, 46, 127
1, 247257, Note_off_c, 1, 46, 0
1, 247263, Note_on_c, 1, 67, 127
1, 247263, Note_on_c, 1, 45, 127
1, 247351, Note_off_c, 1, 67, 0
1, 247442, Note_off_c, 1, 45, 0
1, 247446, Note_on_c, 1, 43, 127
1, 247627, Note_off_c, 1, 43, 0
1, 247632, Note_on_c, 1, 72, 127
1, 247813, Note_off_c, 1, 72, 0
1, 247818, Note_on_c, 1, 74, 127
1, 247999, Note_off_c, 1, 74, 0
1, 248750, Note_on_c, 1, 55, 127
1, 248925, Note_off_c, 1, 65, 0
1, 248933, Note_off_c, 1, 55, 0
1, 248939, Note_on_c, 1, 69, 127
1, 248939, Note_on_c, 1, 60, 127
1, 248939, Note_on_c, 1, 64, 127
1, 249029, Note_off_c, 1, 69, 0
1, 249034, Note_on_c, 1, 67, 127
1, 249122, Note_off_c, 1, 60, 0
1, 249124, Note_off_c, 1, 67, 0
1, 249129, Note_on_c, 1, 58, 127
1, 249312, Note_off_c, 1, 58, 0
1, 249319, Note_on_c, 1, 57, 127
1, 249502, Note_off_c, 1, 57, 0
1, 249509, Note_on_c, 1, 65, 127
1, 249509, Note_on_c, 1, 55, 127
1, 249599, Note_off_c, 1, 65, 0
1, 249692, Note_off_c, 1, 55, 0
1, 249698, Note_on_c, 1, 53, 127
1, 249883, Note_off_c, 1, 53, 0
1, 249890, Note_on_c, 1, 70, 127
1, 250075, Note_off_c, 1, 70, 0
1, 250082, Note_on_c, 1, 72, 127
1, 250267, Note_off_c, 1, 72, 0
1, 251218, Note_off_c, 1, 64, 0
1, 251235, Note_on_c, 1, 67, 127
1, 251235, Note_on_c, 1, 58, 127
1, 251235, Note_on_c, 1, 62, 127
1, 251327, Note_off_c, 1, 67, 0
1, 251331, Note_on_c, 1, 65, 127
1, 251422, Note_off_c, 1, 58, 0
1, 251423, Note_off_c, 1, 65, 0
1, 251430, Note_on_c, 1, 57, 127
1, 251617, Note_off_c, 1, 57, 0
1, 251626, Note_on_c, 1, 55, 127
1, 251813, Note_off_c, 1, 55, 0
1, 251821, Note_on_c, 1, 64, 127
1, 251821, Note_on_c, 1, 53, 127
1, 251913, Note_off_c, 1, 64, 0
1, 252008, Note_off_c, 1, 53, 0
1, 252017, Note_on_c, 1, 52, 127
1, 252204, Note_off_c, 1, 52, 0
1, 252212, Note_on_c, 1, 69, 127
1, 252399, Note_off_c, 1, 69, 0
1, 252400, Note_off_c, 1, 62, 0
1, 252407, Note_on_c, 1, 55, 127
1, 252407, Note_on_c, 1, 70, 127
1, 252407, Note_on_c, 1, 61, 127
1, 252594, Note_off_c, 1, 55, 0
1, 252594, Note_off_c, 1, 70, 0
1, 252601, Note_on_c, 1, 53, 127
1, 252601, Note_on_c, 1, 69, 127
1, 252788, Note_off_c, 1, 53, 0
1, 252788, Note_off_c, 1, 69, 0
1, 252992, Note_on_c, 1, 52, 127
1, 252992, Note_on_c, 1, 67, 127
1, 253179, Note_off_c, 1, 52, 0
1, 253179, Note_off_c, 1, 67, 0
1, 253182, Note_off_c, 1, 61, 0
1, 253187, Note_on_c, 1, 69, 127
1, 253187, Note_on_c, 1, 53, 127
1, 253187, Note_on_c, 1, 62, 127
1, 253584, Note_off_c, 1, 69, 0
1, 253584, Note_off_c, 1, 53, 0
1, 253592, Note_on_c, 1, 67, 127
1, 253592, Note_on_c, 1, 55, 127
1, 253784, Note_off_c, 1, 67, 0
1, 253793, Note_on_c, 1, 65, 127
1, 253985, Note_off_c, 1, 65, 0
1, 253986, Note_off_c, 1, 62, 0
1, 253987, Note_off_c, 1, 55, 0
1, 254003, Note_on_c, 1, 64, 127
1, 254003, Note_on_c, 1, 57, 127
1, 254003, Note_on_c, 1, 61, 127
1, 254213, Note_off_c, 1, 64, 0
1, 254223, Note_on_c, 1, 65, 127
1, 254433, Note_off_c, 1, 57, 0
1, 254433, Note_off_c, 1, 61, 0
1, 254433, Note_off_c, 1, 65, 0
1, 254441, Note_on_c, 1, 50, 127
1, 254441, Note_on_c, 1, 62, 127
1, 254929, Note_off_c, 1, 50, 0
1, 254947, Note_on_c, 1, 45, 127
1, 255490, Note_off_c, 1, 45, 0
1, 255502, Note_on_c, 1, 38, 127
1, 258113, Note_off_c, 1, 62, 0
1, 258562, Note_off_c, 1, 38, 0
1, 258829, Note_on_c, 1, 69, 127
1, 258976, Note_off_c, 1, 69, 0
1, 258986, Note_on_c, 1, 74, 127
1, 259458, Note_off_c, 1, 74, 0
1, 259461, Note_on_c, 1, 69, 127
1, 259608, Note_off_c, 1, 69, 0
1, 259619, Note_on_c, 1, 70, 127
1, 260011, Note_off_c, 1, 70, 0
1, 260014, Note_on_c, 1, 69, 127
1, 260091, Note_off_c, 1, 69, 0
1, 260093, Note_on_c, 1, 67, 127
1, 260170, Note_off_c, 1, 67, 0
1, 260173, Note_on_c, 1, 65, 127
1, 260250, Note_off_c, 1, 65, 0
1, 260252, Note_on_c, 1, 64, 127
1, 260724, Note_off_c, 1, 64, 0
1, 260727, Note_on_c, 1, 67, 127
1, 260874, Note_off_c, 1, 67, 0
1, 260884, Note_on_c, 1, 65, 127
1, 261356, Note_off_c, 1, 65, 0
1, 261358, Note_on_c, 1, 64, 127
1, 261358, Note_on_c, 1, 74, 127
1, 261435, Note_off_c, 1, 64, 0
1, 261439, Note_on_c, 1, 62, 127
1, 261515, Note_off_c, 1, 74, 0
1, 261516, Note_off_c, 1, 62, 0
1, 261518, Note_on_c, 1, 62, 127
1, 261518, Note_on_c, 1, 81, 127
1, 261595, Note_off_c, 1, 62, 0
1, 261598, Note_on_c, 1, 61, 127
1, 261675, Note_off_c, 1, 61, 0
1, 261993, Note_off_c, 1, 81, 0
1, 261995, Note_on_c, 1, 62, 127
1, 261995, Note_on_c, 1, 76, 127
1, 262072, Note_off_c, 1, 62, 0
1, 262076, Note_on_c, 1, 61, 127
1, 262152, Note_off_c, 1, 76, 0
1, 262153, Note_off_c, 1, 61, 0
1, 262156, Note_on_c, 1, 77, 127
1, 262156, Note_on_c, 1, 62, 127
1, 262548, Note_off_c, 1, 77, 0
1, 262550, Note_on_c, 1, 76, 127
1, 262627, Note_off_c, 1, 76, 0
1, 262630, Note_on_c, 1, 74, 127
1, 262707, Note_off_c, 1, 74, 0
1, 262709, Note_on_c, 1, 72, 127
1, 262786, Note_off_c, 1, 72, 0
1, 262787, Note_off_c, 1, 62, 0
1, 262789, Note_on_c, 1, 71, 127
1, 262789, Note_on_c, 1, 67, 127
1, 263261, Note_off_c, 1, 71, 0
1, 263263, Note_on_c, 1, 74, 127
1, 263418, Note_off_c, 1, 74, 0
1, 263420, Note_on_c, 1, 73, 127
1, 263892, Note_off_c, 1, 67, 0
1, 263892, Note_off_c, 1, 73, 0
1, 263895, Note_on_c, 1, 74, 127
1, 263895, Note_on_c, 1, 61, 127
1, 263895, Note_on_c, 1, 57, 127
1, 263972, Note_off_c, 1, 74, 0
1, 263974, Note_on_c, 1, 76, 127
1, 264051, Note_off_c, 1, 76, 0
1, 264052, Note_off_c, 1, 61, 0
1, 264052, Note_off_c, 1, 57, 0
1, 264055, Note_on_c, 1, 77, 127
1, 264055, Note_on_c, 1, 62, 127
1, 264527, Note_off_c, 1, 77, 0
1, 264527, Note_off_c, 1, 62, 0
1, 264529, Note_on_c, 1, 79, 127
1, 264529, Note_on_c, 1, 73, 127
1, 264529, Note_on_c, 1, 57, 127
1, 264684, Note_off_c, 1, 79, 0
1, 264684, Note_off_c, 1, 73, 0
1, 264684, Note_off_c, 1, 57, 0
1, 264686, Note_on_c, 1, 58, 127
1, 264686, Note_on_c, 1, 74, 127
1, 264686, Note_on_c, 1, 76, 127
1, 265078, Note_off_c, 1, 58, 0
1, 265081, Note_on_c, 1, 57, 127
1, 265158, Note_off_c, 1, 57, 0
1, 265161, Note_on_c, 1, 55, 127
1, 265238, Note_off_c, 1, 55, 0
1, 265240, Note_on_c, 1, 53, 127
1, 265317, Note_off_c, 1, 74, 0
1, 265317, Note_off_c, 1, 53, 0
1, 265320, Note_on_c, 1, 73, 127
1, 265320, Note_on_c, 1, 52, 127
1, 265792, Note_off_c, 1, 73, 0
1, 265792, Note_off_c, 1, 52, 0
1, 265838, Note_off_c, 1, 76, 0
1, 265952, Note_on_c, 1, 69, 127
1, 265952, Note_on_c, 1, 53, 127
1, 266412, Note_off_c, 1, 69, 0
1, 266583, Note_on_c, 1, 74, 127
1, 266898, Note_off_c, 1, 53, 0
1, 267057, Note_off_c, 1, 74, 0
1, 267060, Note_on_c, 1, 69, 127
1, 267060, Note_on_c, 1, 62, 127
1, 267060, Note_on_c, 1, 54, 127
1, 267215, Note_off_c, 1, 69, 0
1, 267215, Note_off_c, 1, 62, 0
1, 267215, Note_off_c, 1, 54, 0
1, 267217, Note_on_c, 1, 70, 127
1, 267217, Note_on_c, 1, 55, 127
1, 267217, Note_on_c, 1, 62, 127
1, 267609, Note_off_c, 1, 70, 0
1, 267612, Note_on_c, 1, 69, 127
1, 267689, Note_off_c, 1, 55, 0
1, 267689, Note_off_c, 1, 69, 0
1, 267691, Note_on_c, 1, 67, 127
1, 267691, Note_on_c, 1, 52, 127
1, 267768, Note_off_c, 1, 67, 0
1, 267771, Note_on_c, 1, 65, 127
1, 267848, Note_off_c, 1, 62, 0
1, 267848, Note_off_c, 1, 52, 0
1, 267848, Note_off_c, 1, 65, 0
1, 267850, Note_on_c, 1, 64, 127
1, 267850, Note_on_c, 1, 57, 127
1, 267850, Note_on_c, 1, 61, 127
1, 268322, Note_off_c, 1, 64, 0
1, 268322, Note_off_c, 1, 57, 0
1, 268325, Note_on_c, 1, 67, 127
1, 268325, Note_on_c, 1, 45, 127
1, 268479, Note_off_c, 1, 61, 0
1, 268480, Note_off_c, 1, 67, 0
1, 268480, Note_off_c, 1, 45, 0
1, 268483, Note_on_c, 1, 65, 127
1, 268483, Note_on_c, 1, 62, 127
1, 268483, Note_on_c, 1, 50, 127
1, 268955, Note_off_c, 1, 65, 0
1, 268955, Note_off_c, 1, 62, 0
1, 268955, Note_off_c, 1, 50, 0
1, 268957, Note_on_c, 1, 64, 127
1, 268957, Note_on_c, 1, 48, 127
1, 269034, Note_off_c, 1, 64, 0
1, 269037, Note_on_c, 1, 62, 127
1, 269114, Note_off_c, 1, 48, 0
1, 269114, Note_off_c, 1, 62, 0
1, 269116, Note_on_c, 1, 67, 127
1, 269116, Note_on_c, 1, 46, 127
1, 269116, Note_on_c, 1, 70, 127
1, 269588, Note_off_c, 1, 67, 0
1, 269588, Note_off_c, 1, 46, 0
1, 269590, Note_on_c, 1, 45, 127
1, 269590, Note_on_c, 1, 62, 127
1, 269667, Note_off_c, 1, 45, 0
1, 269670, Note_on_c, 1, 43, 127
1, 269747, Note_off_c, 1, 62, 0
1, 269747, Note_off_c, 1, 43, 0
1, 269749, Note_on_c, 1, 64, 127
1, 269749, Note_on_c, 1, 48, 127
1, 270221, Note_off_c, 1, 70, 0
1, 270224, Note_on_c, 1, 69, 127
1, 270301, Note_off_c, 1, 69, 0
1, 270380, Note_off_c, 1, 64, 0
1, 270383, Note_on_c, 1, 65, 127
1, 271395, Note_off_c, 1, 48, 0
1, 271486, Note_off_c, 1, 65, 0
1, 271490, Note_on_c, 1, 48, 127
1, 271490, Note_on_c, 1, 67, 127
1, 271490, Note_on_c, 1, 64, 127
1, 271567, Note_off_c, 1, 48, 0
1, 271569, Note_on_c, 1, 46, 127
1, 271646, Note_off_c, 1, 46, 0
1, 271647, Note_off_c, 1, 67, 0
1, 271647, Note_off_c, 1, 64, 0
1, 271649, Note_on_c, 1, 69, 127
1, 271649, Note_on_c, 1, 45, 127
1, 271649, Note_on_c, 1, 72, 127
1, 272121, Note_off_c, 1, 69, 0
1, 272121, Note_off_c, 1, 45, 0
1, 272123, Note_on_c, 1, 46, 127
1, 272123, Note_on_c, 1, 64, 127
1, 272200, Note_off_c, 1, 46, 0
1, 272203, Note_on_c, 1, 48, 127
1, 272280, Note_off_c, 1, 64, 0
1, 272280, Note_off_c, 1, 48, 0
1, 272282, Note_on_c, 1, 66, 127
1, 272282, Note_on_c, 1, 38, 127
1, 272754, Note_off_c, 1, 72, 0
1, 272756, Note_on_c, 1, 70, 127
1, 272833, Note_off_c, 1, 70, 0
1, 272913, Note_off_c, 1, 66, 0
1, 272917, Note_on_c, 1, 67, 127
1, 273928, Note_off_c, 1, 38, 0
1, 274020, Note_off_c, 1, 67, 0
1, 274022, Note_on_c, 1, 50, 127
1, 274022, Note_on_c, 1, 69, 127
1, 274022, Note_on_c, 1, 66, 127
1, 274099, Note_off_c, 1, 50, 0
1, 274102, Note_on_c, 1, 52, 127
1, 274179, Note_off_c, 1, 69, 0
1, 274179, Note_off_c, 1, 66, 0
1, 274179, Note_off_c, 1, 52, 0
1, 274181, Note_on_c, 1, 71, 127
1, 274181, Note_on_c, 1, 53, 127
1, 274181, Note_on_c, 1, 74, 127
1, 274653, Note_off_c, 1, 71, 0
1, 274653, Note_off_c, 1, 53, 0
1, 274656, Note_on_c, 1, 52, 127
1, 274656, Note_on_c, 1, 69, 127
1, 274733, Note_off_c, 1, 52, 0
1, 274735, Note_on_c, 1, 50, 127
1, 274812, Note_off_c, 1, 50, 0
1, 274813, Note_off_c, 1, 69, 0
1, 274815, Note_on_c, 1, 68, 127
1, 275286, Note_off_c, 1, 74, 0
1, 275289, Note_on_c, 1, 72, 127
1, 275366, Note_off_c, 1, 72, 0
1, 275446, Note_off_c, 1, 68, 0
1, 276081, Note_on_c, 1, 76, 127
1, 276555, Note_on_c, 1, 59, 127
1, 276710, Note_off_c, 1, 59, 0
1, 276712, Note_on_c, 1, 64, 127
1, 277184, Note_off_c, 1, 64, 0
1, 277346, Note_on_c, 1, 60, 127
1, 277738, Note_off_c, 1, 60, 0
1, 277818, Note_off_c, 1, 76, 0
1, 277821, Note_on_c, 1, 57, 127
1, 277821, Note_on_c, 1, 69, 127
1, 277898, Note_off_c, 1, 57, 0
1, 277900, Note_on_c, 1, 55, 127
1, 277977, Note_off_c, 1, 55, 0
1, 277978, Note_off_c, 1, 69, 0
1, 277980, Note_on_c, 1, 74, 127
1, 277980, Note_on_c, 1, 54, 127
1, 278452, Note_off_c, 1, 74, 0
1, 278452, Note_off_c, 1, 54, 0
1, 278454, Note_on_c, 1, 74, 127
1, 278454, Note_on_c, 1, 57, 127
1, 278609, Note_off_c, 1, 74, 0
1, 278609, Note_off_c, 1, 57, 0
1, 278611, Note_on_c, 1, 74, 127
1, 278611, Note_on_c, 1, 56, 127
1, 279003, Note_off_c, 1, 74, 0
1, 279006, Note_on_c, 1, 72, 127
1, 279083, Note_off_c, 1, 72, 0
1, 279086, Note_on_c, 1, 71, 127
1, 279086, Note_on_c, 1, 64, 127
1, 279163, Note_off_c, 1, 71, 0
1, 279242, Note_off_c, 1, 56, 0
1, 279243, Note_off_c, 1, 64, 0
1, 279246, Note_on_c, 1, 74, 127
1, 279246, Note_on_c, 1, 69, 127
1, 279246, Note_on_c, 1, 57, 127
1, 279323, Note_off_c, 1, 74, 0
1, 279325, Note_on_c, 1, 72, 127
1, 279402, Note_off_c, 1, 72, 0
1, 279721, Note_off_c, 1, 69, 0
1, 279723, Note_on_c, 1, 71, 127
1, 279723, Note_on_c, 1, 64, 127
1, 279878, Note_off_c, 1, 71, 0
1, 279878, Note_off_c, 1, 64, 0
1, 279881, Note_on_c, 1, 65, 127
1, 280273, Note_off_c, 1, 65, 0
1, 280355, Note_on_c, 1, 62, 127
1, 280432, Note_off_c, 1, 62, 0
1, 280435, Note_on_c, 1, 60, 127
1, 280484, Note_off_c, 1, 57, 0
1, 280512, Note_off_c, 1, 60, 0
1, 280515, Note_on_c, 1, 59, 127
1, 280515, Note_on_c, 1, 56, 127
1, 280987, Note_off_c, 1, 59, 0
1, 280987, Note_off_c, 1, 56, 0
1, 281148, Note_on_c, 1, 52, 127
1, 281622, Note_on_c, 1, 76, 127
1, 281777, Note_off_c, 1, 76, 0
1, 281780, Note_on_c, 1, 81, 127
1, 282094, Note_off_c, 1, 52, 0
1, 282252, Note_off_c, 1, 81, 0
1, 282255, Note_on_c, 1, 48, 127
1, 282410, Note_off_c, 1, 48, 0
1, 282412, Note_on_c, 1, 77, 127
1, 282412, Note_on_c, 1, 50, 127
1, 282804, Note_off_c, 1, 77, 0
1, 283678, Note_on_c, 1, 68, 127
1, 283832, Note_off_c, 1, 50, 0
1, 284148, Note_off_c, 1, 68, 0
1, 284150, Note_on_c, 1, 66, 127
1, 284150, Note_on_c, 1, 47, 127
1, 284227, Note_off_c, 1, 66, 0
1, 284307, Note_off_c, 1, 47, 0
1, 284309, Note_on_c, 1, 45, 127
1, 284309, Note_on_c, 1, 72, 127
1, 284309, Note_on_c, 1, 69, 127
1, 284464, Note_off_c, 1, 45, 0
1, 284466, Note_on_c, 1, 43, 127
1, 284621, Note_off_c, 1, 43, 0
1, 284624, Note_on_c, 1, 41, 127
1, 284779, Note_off_c, 1, 72, 0
1, 284779, Note_off_c, 1, 41, 0
1, 284781, Note_on_c, 1, 40, 127
1, 284936, Note_off_c, 1, 69, 0
1, 284936, Note_off_c, 1, 40, 0
1, 284938, Note_on_c, 1, 72, 127
1, 284938, Note_on_c, 1, 38, 127
1, 284938, Note_on_c, 1, 69, 127
1, 285330, Note_off_c, 1, 72, 0
1, 285333, Note_on_c, 1, 74, 127
1, 285410, Note_off_c, 1, 38, 0
1, 285410, Note_off_c, 1, 74, 0
1, 285413, Note_on_c, 1, 50, 127
1, 285493, Note_on_c, 1, 71, 127
1, 285569, Note_off_c, 1, 69, 0
1, 285570, Note_off_c, 1, 50, 0
1, 285570, Note_off_c, 1, 71, 0
1, 285573, Note_on_c, 1, 72, 127
1, 285573, Note_on_c, 1, 52, 127
1, 285573, Note_on_c, 1, 68, 127
1, 285650, Note_off_c, 1, 72, 0
1, 285652, Note_on_c, 1, 71, 127
1, 285729, Note_off_c, 1, 71, 0
1, 286048, Note_off_c, 1, 52, 0
1, 286050, Note_on_c, 1, 69, 127
1, 286050, Note_on_c, 1, 40, 127
1, 286202, Note_off_c, 1, 68, 0
1, 286207, Note_off_c, 1, 69, 0
1, 286207, Note_off_c, 1, 40, 0
1, 286210, Note_on_c, 1, 69, 127
1, 286210, Note_on_c, 1, 45, 127
1, 286604, Note_on_c, 1, 67, 127
1, 286681, Note_off_c, 1, 67, 0
1, 286685, Note_on_c, 1, 65, 127
1, 286685, Note_on_c, 1, 49, 127
1, 286762, Note_off_c, 1, 65, 0
1, 286764, Note_on_c, 1, 64, 127
1, 286841, Note_off_c, 1, 64, 0
1, 286842, Note_off_c, 1, 49, 0
1, 286844, Note_on_c, 1, 50, 127
1, 287316, Note_off_c, 1, 50, 0
1, 287318, Note_on_c, 1, 53, 127
1, 287318, Note_on_c, 1, 62, 127
1, 287473, Note_off_c, 1, 53, 0
1, 287475, Note_on_c, 1, 52, 127
1, 287867, Note_off_c, 1, 62, 0
1, 287949, Note_on_c, 1, 61, 127
1, 288026, Note_off_c, 1, 61, 0
1, 288029, Note_on_c, 1, 59, 127
1, 288106, Note_off_c, 1, 59, 0
1, 288559, Note_off_c, 1, 52, 0
1, 288566, Note_off_c, 1, 69, 0
1, 288658, Note_off_c, 1, 45, 0
1, 288779, Note_on_c, 1, 57, 127
1, 289253, Note_on_c, 1, 62, 127
1, 289350, Note_off_c, 1, 57, 0
1, 289408, Note_off_c, 1, 62, 0
1, 289410, Note_on_c, 1, 61, 127
1, 289802, Note_off_c, 1, 61, 0
1, 289805, Note_on_c, 1, 62, 127
1, 289882, Note_off_c, 1, 62, 0
1, 289884, Note_on_c, 1, 64, 127
1, 289961, Note_off_c, 1, 64, 0
1, 289965, Note_on_c, 1, 65, 127
1, 290042, Note_off_c, 1, 65, 0
1, 290044, Note_on_c, 1, 67, 127
1, 290516, Note_off_c, 1, 67, 0
1, 290519, Note_on_c, 1, 64, 127
1, 290674, Note_off_c, 1, 64, 0
1, 290676, Note_on_c, 1, 65, 127
1, 291150, Note_on_c, 1, 57, 127
1, 291305, Note_off_c, 1, 57, 0
1, 291307, Note_on_c, 1, 50, 127
1, 291700, Note_off_c, 1, 65, 0
1, 291702, Note_on_c, 1, 64, 127
1, 291779, Note_off_c, 1, 50, 0
1, 291779, Note_off_c, 1, 64, 0
1, 291781, Note_on_c, 1, 65, 127
1, 291781, Note_on_c, 1, 55, 127
1, 291858, Note_off_c, 1, 65, 0
1, 291862, Note_on_c, 1, 67, 127
1, 291938, Note_off_c, 1, 55, 0
1, 291939, Note_off_c, 1, 67, 0
1, 291942, Note_on_c, 1, 54, 127
1, 291942, Note_on_c, 1, 69, 127
1, 292334, Note_off_c, 1, 54, 0
1, 292336, Note_on_c, 1, 55, 127
1, 292413, Note_off_c, 1, 55, 0
1, 292416, Note_on_c, 1, 57, 127
1, 292493, Note_off_c, 1, 57, 0
1, 292495, Note_on_c, 1, 58, 127
1, 292572, Note_off_c, 1, 58, 0
1, 292575, Note_on_c, 1, 60, 127
1, 292968, Note_off_c, 1, 69, 0
1, 292970, Note_on_c, 1, 66, 127
1, 293047, Note_off_c, 1, 60, 0
1, 293047, Note_off_c, 1, 66, 0
1, 293049, Note_on_c, 1, 67, 127
1, 293049, Note_on_c, 1, 57, 127
1, 293126, Note_off_c, 1, 67, 0
1, 293129, Note_on_c, 1, 69, 127
1, 293206, Note_off_c, 1, 57, 0
1, 293206, Note_off_c, 1, 69, 0
1, 293208, Note_on_c, 1, 62, 127
1, 293208, Note_on_c, 1, 58, 127
1, 293683, Note_on_c, 1, 74, 127
1, 293837, Note_off_c, 1, 62, 0
1, 293838, Note_off_c, 1, 74, 0
1, 293841, Note_on_c, 1, 67, 127
1, 293841, Note_on_c, 1, 64, 127
1, 294194, Note_off_c, 1, 58, 0
1, 294313, Note_off_c, 1, 67, 0
1, 294315, Note_on_c, 1, 57, 127
1, 294392, Note_off_c, 1, 57, 0
1, 294395, Note_on_c, 1, 55, 127
1, 294472, Note_off_c, 1, 55, 0
1, 294474, Note_on_c, 1, 73, 127
1, 294866, Note_off_c, 1, 73, 0
1, 294867, Note_off_c, 1, 64, 0
1, 294869, Note_on_c, 1, 65, 127
1, 294946, Note_off_c, 1, 65, 0
1, 294949, Note_on_c, 1, 76, 127
1, 295026, Note_off_c, 1, 76, 0
1, 295028, Note_on_c, 1, 77, 127
1, 295105, Note_off_c, 1, 77, 0
1, 295108, Note_on_c, 1, 79, 127
1, 295187, Note_on_c, 1, 61, 127
1, 295264, Note_off_c, 1, 61, 0
1, 295583, Note_off_c, 1, 79, 0
1, 295586, Note_on_c, 1, 59, 127
1, 295663, Note_off_c, 1, 59, 0
1, 295745, Note_on_c, 1, 62, 127
1, 295745, Note_on_c, 1, 50, 127
1, 295745, Note_on_c, 1, 77, 127
1, 296205, Note_off_c, 1, 62, 0
1, 296217, Note_off_c, 1, 50, 0
1, 296220, Note_on_c, 1, 69, 127
1, 296299, Note_on_c, 1, 60, 127
1, 296367, Note_off_c, 1, 69, 0
1, 296374, Note_off_c, 1, 60, 0
1, 296377, Note_on_c, 1, 59, 127
1, 296849, Note_off_c, 1, 59, 0
1, 297007, Note_off_c, 1, 77, 0
1, 297011, Note_on_c, 1, 50, 127
1, 297011, Note_on_c, 1, 68, 127
1, 297011, Note_on_c, 1, 76, 127
1, 297403, Note_off_c, 1, 50, 0
1, 297403, Note_off_c, 1, 68, 0
1, 297405, Note_on_c, 1, 53, 127
1, 297405, Note_on_c, 1, 69, 127
1, 297482, Note_off_c, 1, 53, 0
1, 297482, Note_off_c, 1, 69, 0
1, 297485, Note_on_c, 1, 52, 127
1, 297485, Note_on_c, 1, 71, 127
1, 297562, Note_off_c, 1, 52, 0
1, 297562, Note_off_c, 1, 71, 0
1, 297565, Note_on_c, 1, 72, 127
1, 297642, Note_off_c, 1, 72, 0
1, 297644, Note_on_c, 1, 57, 127
1, 297644, Note_on_c, 1, 74, 127
1, 297721, Note_off_c, 1, 57, 0
1, 297724, Note_on_c, 1, 56, 127
1, 297801, Note_off_c, 1, 56, 0
1, 298119, Note_off_c, 1, 74, 0
1, 298123, Note_on_c, 1, 54, 127
1, 298200, Note_off_c, 1, 54, 0
1, 298754, Note_off_c, 1, 76, 0
1, 298756, Note_on_c, 1, 45, 127
1, 298833, Note_off_c, 1, 45, 0
1, 298836, Note_on_c, 1, 47, 127
1, 298913, Note_off_c, 1, 47, 0
1, 298915, Note_on_c, 1, 48, 127
1, 299387, Note_off_c, 1, 48, 0
1, 299549, Note_on_c, 1, 77, 127
1, 300654, Note_off_c, 1, 77, 0
1, 301287, Note_on_c, 1, 43, 127
1, 301364, Note_off_c, 1, 43, 0
1, 301446, Note_on_c, 1, 67, 127
1, 301918, Note_off_c, 1, 67, 0
1, 303188, Note_on_c, 1, 50, 127
1, 303188, Note_on_c, 1, 71, 127
1, 303188, Note_on_c, 1, 74, 127
1, 303265, Note_off_c, 1, 50, 0
1, 303268, Note_on_c, 1, 52, 127
1, 303345, Note_off_c, 1, 71, 0
1, 303345, Note_off_c, 1, 74, 0
1, 303345, Note_off_c, 1, 52, 0
1, 303347, Note_on_c, 1, 72, 127
1, 303347, Note_on_c, 1, 53, 127
1, 303347, Note_on_c, 1, 69, 127
1, 303739, Note_off_c, 1, 72, 0
1, 303819, Note_off_c, 1, 53, 0
1, 303822, Note_on_c, 1, 74, 127
1, 303822, Note_on_c, 1, 57, 127
1, 303899, Note_off_c, 1, 74, 0
1, 303901, Note_on_c, 1, 76, 127
1, 303972, Note_off_c, 1, 69, 0
1, 303978, Note_off_c, 1, 76, 0
1, 303979, Note_off_c, 1, 57, 0
1, 303981, Note_on_c, 1, 77, 127
1, 303981, Note_on_c, 1, 50, 127
1, 304373, Note_off_c, 1, 77, 0
1, 304375, Note_on_c, 1, 76, 127
1, 304452, Note_off_c, 1, 76, 0
1, 304453, Note_off_c, 1, 50, 0
1, 304455, Note_on_c, 1, 77, 127
1, 304455, Note_on_c, 1, 57, 127
1, 304532, Note_off_c, 1, 77, 0
1, 304535, Note_on_c, 1, 74, 127
1, 304612, Note_off_c, 1, 57, 0
1, 304612, Note_off_c, 1, 74, 0
1, 304614, Note_on_c, 1, 56, 127
1, 304614, Note_on_c, 1, 83, 127
1, 305006, Note_off_c, 1, 56, 0
1, 305009, Note_on_c, 1, 57, 127
1, 305086, Note_off_c, 1, 57, 0
1, 305088, Note_on_c, 1, 59, 127
1, 305088, Note_on_c, 1, 81, 127
1, 305165, Note_off_c, 1, 59, 0
1, 305169, Note_on_c, 1, 60, 127
1, 305245, Note_off_c, 1, 81, 0
1, 305246, Note_off_c, 1, 60, 0
1, 305249, Note_on_c, 1, 62, 127
1, 305249, Note_on_c, 1, 80, 127
1, 305721, Note_off_c, 1, 62, 0
1, 305721, Note_off_c, 1, 80, 0
1, 305734, Note_off_c, 1, 83, 0
1, 305882, Note_on_c, 1, 76, 127
1, 306906, Note_off_c, 1, 76, 0
1, 306908, Note_on_c, 1, 74, 127
1, 306985, Note_off_c, 1, 74, 0
1, 307067, Note_on_c, 1, 77, 127
1, 307144, Note_off_c, 1, 77, 0
1, 307148, Note_on_c, 1, 64, 127
1, 307148, Note_on_c, 1, 71, 127
1, 307620, Note_off_c, 1, 64, 0
1, 307622, Note_on_c, 1, 79, 127
1, 307622, Note_on_c, 1, 65, 127
1, 307699, Note_off_c, 1, 79, 0
1, 307702, Note_on_c, 1, 78, 127
1, 307779, Note_off_c, 1, 65, 0
1, 307779, Note_off_c, 1, 78, 0
1, 308174, Note_off_c, 1, 71, 0
1, 308256, Note_on_c, 1, 73, 127
1, 308333, Note_off_c, 1, 73, 0
1, 308415, Note_on_c, 1, 61, 127
1, 308807, Note_off_c, 1, 61, 0
1, 309443, Note_on_c, 1, 50, 127
1, 309520, Note_off_c, 1, 50, 0
1, 309522, Note_on_c, 1, 52, 127
1, 309599, Note_off_c, 1, 52, 0
1, 309602, Note_on_c, 1, 53, 127
1, 309679, Note_off_c, 1, 53, 0
1, 309682, Note_on_c, 1, 48, 127
1, 309682, Note_on_c, 1, 67, 127
1, 309771, Note_on_c, 1, 46, 127
1, 309772, Note_off_c, 1, 48, 0
1, 309861, Note_off_c, 1, 46, 0
1, 310953, Note_on_c, 1, 45, 127
1, 311334, Note_off_c, 1, 67, 0
1, 311413, Note_off_c, 1, 45, 0
1, 311585, Note_on_c, 1, 69, 127
1, 312057, Note_off_c, 1, 69, 0
1, 312216, Note_on_c, 1, 65, 127
1, 312608, Note_off_c, 1, 65, 0
1, 312611, Note_on_c, 1, 64, 127
1, 312688, Note_off_c, 1, 64, 0
1, 312690, Note_on_c, 1, 62, 127
1, 312690, Note_on_c, 1, 69, 127
1, 312767, Note_off_c, 1, 62, 0
1, 312771, Note_on_c, 1, 60, 127
1, 312847, Note_off_c, 1, 69, 0
1, 312848, Note_off_c, 1, 60, 0
1, 312851, Note_on_c, 1, 59, 127
1, 312851, Note_on_c, 1, 74, 127
1, 313323, Note_off_c, 1, 59, 0
1, 313323, Note_off_c, 1, 74, 0
1, 313325, Note_on_c, 1, 62, 127
1, 313325, Note_on_c, 1, 69, 127
1, 313480, Note_off_c, 1, 62, 0
1, 313480, Note_off_c, 1, 69, 0
1, 313482, Note_on_c, 1, 70, 127
1, 313482, Note_on_c, 1, 61, 127
1, 313874, Note_off_c, 1, 70, 0
1, 313877, Note_on_c, 1, 69, 127
1, 313954, Note_off_c, 1, 69, 0
1, 313956, Note_on_c, 1, 67, 127
1, 313956, Note_on_c, 1, 52, 127
1, 314033, Note_off_c, 1, 67, 0
1, 314036, Note_on_c, 1, 65, 127
1, 314113, Note_off_c, 1, 52, 0
1, 314113, Note_off_c, 1, 65, 0
1, 314115, Note_on_c, 1, 57, 127
1, 314115, Note_on_c, 1, 64, 127
1, 314587, Note_off_c, 1, 57, 0
1, 314587, Note_off_c, 1, 64, 0
1, 314744, Note_off_c, 1, 61, 0
1, 314748, Note_on_c, 1, 53, 127
1, 314748, Note_on_c, 1, 65, 127
1, 314748, Note_on_c, 1, 62, 127
1, 315140, Note_off_c, 1, 53, 0
1, 315143, Note_on_c, 1, 52, 127
1, 315220, Note_off_c, 1, 65, 0
1, 315220, Note_off_c, 1, 52, 0
1, 315222, Note_on_c, 1, 50, 127
1, 315222, Note_on_c, 1, 74, 127
1, 315299, Note_off_c, 1, 50, 0
1, 315302, Note_on_c, 1, 48, 127
1, 315379, Note_off_c, 1, 74, 0
1, 315379, Note_off_c, 1, 48, 0
1, 315381, Note_on_c, 1, 46, 127
1, 315381, Note_on_c, 1, 67, 127
1, 315853, Note_off_c, 1, 46, 0
1, 315853, Note_off_c, 1, 67, 0
1, 316010, Note_off_c, 1, 62, 0
1, 316013, Note_on_c, 1, 43, 127
1, 316013, Note_on_c, 1, 73, 127
1, 316013, Note_on_c, 1, 64, 127
1, 316405, Note_off_c, 1, 43, 0
1, 316405, Note_off_c, 1, 73, 0
1, 316407, Note_on_c, 1, 53, 127
1, 316407, Note_on_c, 1, 74, 127
1, 316484, Note_off_c, 1, 53, 0
1, 316484, Note_off_c, 1, 74, 0
1, 316487, Note_on_c, 1, 52, 127
1, 316487, Note_on_c, 1, 76, 127
1, 316564, Note_off_c, 1, 52, 0
1, 316564, Note_off_c, 1, 76, 0
1, 316566, Note_on_c, 1, 50, 127
1, 316566, Note_on_c, 1, 77, 127
1, 316638, Note_off_c, 1, 64, 0
1, 316643, Note_off_c, 1, 50, 0
1, 316643, Note_off_c, 1, 77, 0
1, 316647, Note_on_c, 1, 50, 127
1, 316647, Note_on_c, 1, 79, 127
1, 316724, Note_off_c, 1, 50, 0
1, 316727, Note_on_c, 1, 49, 127
1, 316804, Note_off_c, 1, 49, 0
1, 317122, Note_off_c, 1, 79, 0
1, 317124, Note_on_c, 1, 47, 127
1, 317124, Note_on_c, 1, 76, 127
1, 317201, Note_off_c, 1, 47, 0
1, 317204, Note_on_c, 1, 49, 127
1, 317281, Note_off_c, 1, 76, 0
1, 317281, Note_off_c, 1, 49, 0
1, 317285, Note_on_c, 1, 50, 127
1, 317285, Note_on_c, 1, 78, 127
1, 317677, Note_off_c, 1, 50, 0
1, 317677, Note_off_c, 1, 78, 0
1, 317678, Note_on_c, 1, 58, 127
1, 317678, Note_on_c, 1, 79, 127
1, 317755, Note_off_c, 1, 58, 0
1, 317755, Note_off_c, 1, 79, 0
1, 317759, Note_on_c, 1, 57, 127
1, 317759, Note_on_c, 1, 81, 127
1, 317836, Note_off_c, 1, 57, 0
1, 317836, Note_off_c, 1, 81, 0
1, 317838, Note_on_c, 1, 55, 127
1, 317838, Note_on_c, 1, 82, 127
1, 317915, Note_off_c, 1, 55, 0
1, 317915, Note_off_c, 1, 82, 0
1, 317918, Note_on_c, 1, 55, 127
1, 317918, Note_on_c, 1, 84, 127
1, 317995, Note_off_c, 1, 55, 0
1, 317998, Note_on_c, 1, 54, 127
1, 318075, Note_off_c, 1, 54, 0
1, 318393, Note_off_c, 1, 84, 0
1, 318396, Note_on_c, 1, 52, 127
1, 318396, Note_on_c, 1, 81, 127
1, 318473, Note_off_c, 1, 52, 0
1, 318476, Note_on_c, 1, 54, 127
1, 318553, Note_off_c, 1, 81, 0
1, 318553, Note_off_c, 1, 54, 0
1, 318555, Note_on_c, 1, 55, 127
1, 318555, Note_on_c, 1, 82, 127
1, 318947, Note_off_c, 1, 55, 0
1, 318950, Note_on_c, 1, 57, 127
1, 319027, Note_off_c, 1, 57, 0
1, 319030, Note_on_c, 1, 74, 127
1, 319109, Note_on_c, 1, 53, 127
1, 319186, Note_off_c, 1, 53, 0
1, 319187, Note_off_c, 1, 74, 0
1, 319189, Note_on_c, 1, 52, 127
1, 319189, Note_on_c, 1, 79, 127
1, 319581, Note_off_c, 1, 52, 0
1, 319660, Note_off_c, 1, 82, 0
1, 319661, Note_off_c, 1, 79, 0
1, 319663, Note_on_c, 1, 52, 127
1, 319663, Note_on_c, 1, 74, 127
1, 319663, Note_on_c, 1, 81, 127
1, 319740, Note_off_c, 1, 52, 0
1, 319743, Note_on_c, 1, 50, 127
1, 319820, Note_off_c, 1, 74, 0
1, 319820, Note_off_c, 1, 81, 0
1, 319820, Note_off_c, 1, 50, 0
1, 319822, Note_on_c, 1, 76, 127
1, 319822, Note_on_c, 1, 49, 127
1, 319822, Note_on_c, 1, 79, 127
1, 320214, Note_off_c, 1, 76, 0
1, 320217, Note_on_c, 1, 74, 127
1, 320294, Note_off_c, 1, 49, 0
1, 320294, Note_off_c, 1, 74, 0
1, 320297, Note_on_c, 1, 73, 127
1, 320297, Note_on_c, 1, 45, 127
1, 320374, Note_off_c, 1, 73, 0
1, 320376, Note_on_c, 1, 71, 127
1, 320453, Note_off_c, 1, 79, 0
1, 320453, Note_off_c, 1, 71, 0
1, 320454, Note_off_c, 1, 45, 0
1, 320456, Note_on_c, 1, 50, 127
1, 320456, Note_on_c, 1, 69, 127
1, 320456, Note_on_c, 1, 77, 127
1, 320928, Note_off_c, 1, 50, 0
1, 320928, Note_off_c, 1, 69, 0
1, 320930, Note_on_c, 1, 38, 127
1, 320930, Note_on_c, 1, 72, 127
1, 321092, Note_off_c, 1, 38, 0
1, 321092, Note_off_c, 1, 72, 0
1, 321095, Note_on_c, 1, 70, 127
1, 321095, Note_on_c, 1, 43, 127
1, 321244, Note_off_c, 1, 77, 0
1, 321265, Note_on_c, 1, 76, 127
1, 321427, Note_off_c, 1, 76, 0
1, 321433, Note_on_c, 1, 74, 127
1, 321595, Note_off_c, 1, 70, 0
1, 321595, Note_off_c, 1, 74, 0
1, 321602, Note_on_c, 1, 67, 127
1, 321602, Note_on_c, 1, 73, 127
1, 321764, Note_off_c, 1, 67, 0
1, 321764, Note_off_c, 1, 73, 0
1, 321771, Note_on_c, 1, 62, 127
1, 322271, Note_off_c, 1, 62, 0
1, 322277, Note_on_c, 1, 79, 127
1, 322277, Note_on_c, 1, 65, 127
1, 322356, Note_off_c, 1, 79, 0
1, 322361, Note_on_c, 1, 81, 127
1, 322390, Note_off_c, 1, 43, 0
1, 322438, Note_off_c, 1, 65, 0
1, 322440, Note_off_c, 1, 81, 0
1, 322443, Note_on_c, 1, 64, 127
1, 322443, Note_on_c, 1, 82, 127
1, 322443, Note_on_c, 1, 55, 127
1, 322858, Note_off_c, 1, 64, 0
1, 322858, Note_off_c, 1, 82, 0
1, 322864, Note_on_c, 1, 65, 127
1, 322864, Note_on_c, 1, 81, 127
1, 322943, Note_off_c, 1, 65, 0
1, 322943, Note_off_c, 1, 81, 0
1, 322946, Note_on_c, 1, 67, 127
1, 322946, Note_on_c, 1, 79, 127
1, 323025, Note_off_c, 1, 67, 0
1, 323025, Note_off_c, 1, 79, 0
1, 323030, Note_on_c, 1, 69, 127
1, 323030, Note_on_c, 1, 77, 127
1, 323109, Note_off_c, 1, 69, 0
1, 323109, Note_off_c, 1, 77, 0
1, 323112, Note_on_c, 1, 76, 127
1, 323112, Note_on_c, 1, 70, 127
1, 323274, Note_off_c, 1, 76, 0
1, 323612, Note_off_c, 1, 70, 0
1, 323791, Note_on_c, 1, 74, 127
1, 323871, Note_off_c, 1, 74, 0
1, 323879, Note_on_c, 1, 73, 127
1, 323959, Note_off_c, 1, 73, 0
1, 324163, Note_off_c, 1, 55, 0
1, 324305, Note_on_c, 1, 71, 127
1, 324305, Note_on_c, 1, 53, 127
1, 324385, Note_off_c, 1, 71, 0
1, 324385, Note_off_c, 1, 53, 0
1, 324393, Note_on_c, 1, 69, 127
1, 324393, Note_on_c, 1, 52, 127
1, 324473, Note_off_c, 1, 69, 0
1, 324473, Note_off_c, 1, 52, 0
1, 324479, Note_on_c, 1, 50, 127
1, 324479, Note_on_c, 1, 77, 127
1, 324479, Note_on_c, 1, 74, 127
1, 324905, Note_off_c, 1, 50, 0
1, 324911, Note_on_c, 1, 48, 127
1, 324991, Note_off_c, 1, 77, 0
1, 324991, Note_off_c, 1, 48, 0
1, 324996, Note_on_c, 1, 46, 127
1, 325078, Note_off_c, 1, 46, 0
1, 325086, Note_on_c, 1, 45, 127
1, 325165, Note_off_c, 1, 74, 0
1, 325170, Note_off_c, 1, 45, 0
1, 325172, Note_on_c, 1, 77, 127
1, 325172, Note_on_c, 1, 43, 127
1, 325172, Note_on_c, 1, 74, 127
1, 325609, Note_off_c, 1, 77, 0
1, 325619, Note_on_c, 1, 79, 127
1, 325697, Note_off_c, 1, 43, 0
1, 325701, Note_off_c, 1, 79, 0
1, 325706, Note_on_c, 1, 55, 127
1, 325795, Note_on_c, 1, 76, 127
1, 325873, Note_off_c, 1, 74, 0
1, 325874, Note_off_c, 1, 55, 0
1, 325877, Note_off_c, 1, 76, 0
1, 325884, Note_on_c, 1, 77, 127
1, 325884, Note_on_c, 1, 57, 127
1, 325884, Note_on_c, 1, 73, 127
1, 325966, Note_off_c, 1, 77, 0
1, 325973, Note_on_c, 1, 76, 127
1, 326055, Note_off_c, 1, 76, 0
1, 326412, Note_off_c, 1, 57, 0
1, 326419, Note_on_c, 1, 74, 127
1, 326419, Note_on_c, 1, 45, 127
1, 326585, Note_off_c, 1, 73, 0
1, 326594, Note_off_c, 1, 74, 0
1, 326594, Note_off_c, 1, 45, 0
1, 326599, Note_on_c, 1, 74, 127
1, 326599, Note_on_c, 1, 50, 127
1, 327060, Note_on_c, 1, 72, 127
1, 327144, Note_off_c, 1, 72, 0
1, 327148, Note_on_c, 1, 70, 127
1, 327148, Note_on_c, 1, 54, 127
1, 327232, Note_off_c, 1, 70, 0
1, 327241, Note_on_c, 1, 69, 127
1, 327322, Note_off_c, 1, 54, 0
1, 327325, Note_off_c, 1, 69, 0
1, 327332, Note_on_c, 1, 55, 127
1, 327873, Note_off_c, 1, 55, 0
1, 327880, Note_on_c, 1, 58, 127
1, 327880, Note_on_c, 1, 67, 127
1, 328065, Note_off_c, 1, 58, 0
1, 328072, Note_on_c, 1, 57, 127
1, 328551, Note_off_c, 1, 67, 0
1, 328721, Note_on_c, 1, 66, 127
1, 328829, Note_off_c, 1, 66, 0
1, 328840, Note_on_c, 1, 64, 127
1, 328962, Note_off_c, 1, 64, 0
1, 331495, Note_off_c, 1, 74, 0
1, 331846, Note_off_c, 1, 57, 0
1, 332719, Note_off_c, 1, 50, 0
1, 332719, End_track
0, 0, End_of_file