0, 0, Header, 1, 1, 480
1, 0, Start_track
1, 0, Title_t, "Test"
1, 0, Tempo, 500000
1, 0, Instrument_name_t, "Church Organ"
1, 0, Note_on_c, 1, 76, 127
1, 48, Note_off_c, 1, 76, 0
1, 60, Note_on_c, 1, 76, 127
1, 60, Note_on_c, 1, 52, 127
1, 156, Note_off_c, 1, 52, 0
1, 180, Note_on_c, 1, 40, 127
1, 204, Note_off_c, 1, 76, 0
1, 240, Note_on_c, 1, 74, 127
1, 276, Note_off_c, 1, 40, 0
1, 288, Note_off_c, 1, 74, 0
1, 300, Note_on_c, 1, 72, 127
1, 348, Note_off_c, 1, 72, 0
1, 360, Note_on_c, 1, 71, 127
1, 360, Note_on_c, 1, 52, 127
1, 408, Note_off_c, 1, 71, 0
1, 408, Note_off_c, 1, 52, 0
1, 420, Note_on_c, 1, 69, 127
1, 420, Note_on_c, 1, 54, 127
1, 468, Note_off_c, 1, 69, 0
1, 468, Note_off_c, 1, 54, 0
1, 480, Note_on_c, 1, 67, 127
1, 480, Note_on_c, 1, 55, 127
1, 528, Note_off_c, 1, 67, 0
1, 528, Note_off_c, 1, 55, 0
1, 540, Note_on_c, 1, 66, 127
1, 540, Note_on_c, 1, 57, 127
1, 588, Note_off_c, 1, 66, 0
1, 600, Note_on_c, 1, 76, 127
1, 636, Note_off_c, 1, 57, 0
1, 648, Note_off_c, 1, 76, 0
1, 660, Note_on_c, 1, 75, 127
1, 660, Note_on_c, 1, 54, 127
1, 708, Note_off_c, 1, 75, 0
1, 720, Note_on_c, 1, 81, 127
1, 756, Note_off_c, 1, 54, 0
1, 768, Note_off_c, 1, 81, 0
1, 780, Note_on_c, 1, 81, 127
1, 780, Note_on_c, 1, 59, 127
1, 828, Note_off_c, 1, 81, 0
1, 840, Note_on_c, 1, 79, 127
1, 876, Note_off_c, 1, 59, 0
1, 888, Note_off_c, 1, 79, 0
1, 900, Note_on_c, 1, 81, 127
1, 900, Note_on_c, 1, 47, 127
1, 948, Note_off_c, 1, 81, 0
1, 960, Note_on_c, 1, 78, 127
1, 996, Note_off_c, 1, 47, 0
1, 1008, Note_off_c, 1, 78, 0
1, 1020, Note_on_c, 1, 79, 127
1, 1020, Note_on_c, 1, 59, 127
1, 1020, Note_on_c, 1, 55, 127
1, 1020, Note_on_c, 1, 64, 127
1, 1020, Note_on_c, 1, 52, 127
1, 1068, Note_off_c, 1, 79, 0
1, 1080, Note_on_c, 1, 78, 127
1, 1128, Note_off_c, 1, 78, 0
1, 1140, Note_on_c, 1, 76, 127
1, 1164, Note_off_c, 1, 59, 0
1, 1164, Note_off_c, 1, 55, 0
1, 1164, Note_off_c, 1, 64, 0
1, 1164, Note_off_c, 1, 52, 0
1, 1200, Note_on_c, 1, 62, 127
1, 1236, Note_off_c, 1, 76, 0
1, 1248, Note_off_c, 1, 62, 0
1, 1260, Note_on_c, 1, 60, 127
1, 1308, Note_off_c, 1, 60, 0
1, 1320, Note_on_c, 1, 76, 127
1, 1320, Note_on_c, 1, 59, 127
1, 1368, Note_off_c, 1, 76, 0
1, 1368, Note_off_c, 1, 59, 0
1, 1380, Note_on_c, 1, 78, 127
1, 1380, Note_on_c, 1, 57, 127
1, 1428, Note_off_c, 1, 78, 0
1, 1428, Note_off_c, 1, 57, 0
1, 1440, Note_on_c, 1, 79, 127
1, 1440, Note_on_c, 1, 55, 127
1, 1488, Note_off_c, 1, 79, 0
1, 1488, Note_off_c, 1, 55, 0
1, 1500, Note_on_c, 1, 81, 127
1, 1500, Note_on_c, 1, 54, 127
1, 1548, Note_off_c, 1, 81, 0
1, 1548, Note_off_c, 1, 54, 0
1, 1560, Note_on_c, 1, 83, 127
1, 1560, Note_on_c, 1, 64, 127
1, 1584, Note_off_c, 1, 83, 0
1, 1590, Note_on_c, 1, 84, 127
1, 1608, Note_off_c, 1, 64, 0
1, 1614, Note_off_c, 1, 84, 0
1, 1620, Note_on_c, 1, 83, 127
1, 1620, Note_on_c, 1, 63, 127
1, 1668, Note_off_c, 1, 83, 0
1, 1668, Note_off_c, 1, 63, 0
1, 1680, Note_on_c, 1, 76, 127
1, 1680, Note_on_c, 1, 69, 127
1, 1728, Note_off_c, 1, 76, 0
1, 1728, Note_off_c, 1, 69, 0
1, 1740, Note_on_c, 1, 75, 127
1, 1740, Note_on_c, 1, 69, 127
1, 1788, Note_off_c, 1, 69, 0
1, 1800, Note_on_c, 1, 67, 127
1, 1848, Note_off_c, 1, 67, 0
1, 1884, Note_off_c, 1, 75, 0
1, 1920, Note_on_c, 1, 76, 127
1, 1920, Note_on_c, 1, 66, 127
1, 1968, Note_off_c, 1, 76, 0
1, 1968, Note_off_c, 1, 66, 0
1, 1980, Note_on_c, 1, 76, 127
1, 1980, Note_on_c, 1, 67, 127
1, 2028, Note_off_c, 1, 67, 0
1, 2040, Note_on_c, 1, 66, 127
1, 2088, Note_off_c, 1, 66, 0
1, 2100, Note_on_c, 1, 64, 127
1, 2124, Note_off_c, 1, 76, 0
1, 2160, Note_on_c, 1, 84, 127
1, 2196, Note_off_c, 1, 64, 0
1, 2208, Note_off_c, 1, 84, 0
1, 2220, Note_on_c, 1, 74, 127
1, 2220, Note_on_c, 1, 66, 127
1, 2268, Note_off_c, 1, 74, 0
1, 2280, Note_on_c, 1, 84, 127
1, 2316, Note_off_c, 1, 66, 0
1, 2328, Note_off_c, 1, 84, 0
1, 2340, Note_on_c, 1, 74, 127
1, 2340, Note_on_c, 1, 68, 127
1, 2388, Note_off_c, 1, 74, 0
1, 2400, Note_on_c, 1, 83, 127
1, 2436, Note_off_c, 1, 68, 0
1, 2448, Note_off_c, 1, 83, 0
1, 2460, Note_on_c, 1, 74, 127
1, 2460, Note_on_c, 1, 69, 127
1, 2472, Note_off_c, 1, 74, 0
1, 2475, Note_on_c, 1, 72, 127
1, 2487, Note_off_c, 1, 72, 0
1, 2508, Note_off_c, 1, 69, 0
1, 2520, Note_on_c, 1, 71, 127
1, 2520, Note_on_c, 1, 67, 127
1, 2568, Note_off_c, 1, 71, 0
1, 2568, Note_off_c, 1, 67, 0
1, 2580, Note_on_c, 1, 72, 127
1, 2580, Note_on_c, 1, 66, 127
1, 2628, Note_off_c, 1, 72, 0
1, 2628, Note_off_c, 1, 66, 0
1, 2640, Note_on_c, 1, 81, 127
1, 2640, Note_on_c, 1, 64, 127
1, 2688, Note_off_c, 1, 81, 0
1, 2688, Note_off_c, 1, 64, 0
1, 2700, Note_on_c, 1, 71, 127
1, 2700, Note_on_c, 1, 63, 127
1, 2748, Note_off_c, 1, 71, 0
1, 2760, Note_on_c, 1, 81, 127
1, 2796, Note_off_c, 1, 63, 0
1, 2808, Note_off_c, 1, 81, 0
1, 2820, Note_on_c, 1, 71, 127
1, 2820, Note_on_c, 1, 64, 127
1, 2868, Note_off_c, 1, 71, 0
1, 2880, Note_on_c, 1, 79, 127
1, 2928, Note_off_c, 1, 79, 0
1, 2955, Note_on_c, 1, 69, 127
1, 2967, Note_off_c, 1, 69, 0
1, 3000, Note_on_c, 1, 67, 127
1, 3036, Note_off_c, 1, 64, 0
1, 3048, Note_off_c, 1, 67, 0
1, 3060, Note_on_c, 1, 69, 127
1, 3060, Note_on_c, 1, 63, 127
1, 3108, Note_off_c, 1, 69, 0
1, 3120, Note_on_c, 1, 78, 127
1, 3156, Note_off_c, 1, 63, 0
1, 3168, Note_off_c, 1, 78, 0
1, 3180, Note_on_c, 1, 67, 127
1, 3180, Note_on_c, 1, 64, 127
1, 3228, Note_off_c, 1, 67, 0
1, 3240, Note_on_c, 1, 78, 127
1, 3276, Note_off_c, 1, 64, 0
1, 3288, Note_off_c, 1, 78, 0
1, 3300, Note_on_c, 1, 67, 127
1, 3300, Note_on_c, 1, 52, 127
1, 3348, Note_off_c, 1, 67, 0
1, 3360, Note_on_c, 1, 76, 127
1, 3396, Note_off_c, 1, 52, 0
1, 3408, Note_off_c, 1, 76, 0
1, 3420, Note_on_c, 1, 66, 127
1, 3420, Note_on_c, 1, 59, 127
1, 3480, Note_on_c, 1, 76, 127
1, 3528, Note_off_c, 1, 76, 0
1, 3540, Note_on_c, 1, 75, 127
1, 3564, Note_off_c, 1, 59, 0
1, 3600, Note_on_c, 1, 57, 127
1, 3636, Note_off_c, 1, 75, 0
1, 3648, Note_off_c, 1, 57, 0
1, 3660, Note_off_c, 1, 66, 0
1, 3660, Note_on_c, 1, 55, 127
1, 3708, Note_off_c, 1, 55, 0
1, 3720, Note_on_c, 1, 74, 127
1, 3720, Note_on_c, 1, 54, 127
1, 3768, Note_off_c, 1, 74, 0
1, 3768, Note_off_c, 1, 54, 0
1, 3780, Note_on_c, 1, 73, 127
1, 3780, Note_on_c, 1, 52, 127
1, 3828, Note_off_c, 1, 73, 0
1, 3828, Note_off_c, 1, 52, 0
1, 3840, Note_on_c, 1, 71, 127
1, 3840, Note_on_c, 1, 50, 127
1, 3888, Note_off_c, 1, 71, 0
1, 3888, Note_off_c, 1, 50, 0
1, 3900, Note_on_c, 1, 70, 127
1, 3900, Note_on_c, 1, 49, 127
1, 3948, Note_off_c, 1, 49, 0
1, 3960, Note_on_c, 1, 79, 127
1, 4008, Note_off_c, 1, 79, 0
1, 4020, Note_on_c, 1, 78, 127
1, 4020, Note_on_c, 1, 58, 127
1, 4044, Note_off_c, 1, 70, 0
1, 4068, Note_off_c, 1, 78, 0
1, 4068, Note_off_c, 1, 58, 0
1, 4080, Note_on_c, 1, 76, 127
1, 4080, Note_on_c, 1, 73, 127
1, 4080, Note_on_c, 1, 64, 127
1, 4128, Note_off_c, 1, 76, 0
1, 4128, Note_off_c, 1, 73, 0
1, 4128, Note_off_c, 1, 64, 0
1, 4140, Note_on_c, 1, 74, 127
1, 4140, Note_on_c, 1, 71, 127
1, 4140, Note_on_c, 1, 64, 127
1, 4188, Note_off_c, 1, 64, 0
1, 4200, Note_on_c, 1, 62, 127
1, 4236, Note_off_c, 1, 74, 0
1, 4236, Note_off_c, 1, 71, 0
1, 4248, Note_off_c, 1, 62, 0
1, 4260, Note_on_c, 1, 73, 127
1, 4260, Note_on_c, 1, 70, 127
1, 4260, Note_on_c, 1, 64, 127
1, 4308, Note_off_c, 1, 73, 0
1, 4308, Note_off_c, 1, 64, 0
1, 4320, Note_on_c, 1, 71, 127
1, 4320, Note_on_c, 1, 61, 127
1, 4356, Note_off_c, 1, 70, 0
1, 4368, Note_off_c, 1, 71, 0
1, 4368, Note_off_c, 1, 61, 0
1, 4380, Note_on_c, 1, 71, 127
1, 4380, Note_on_c, 1, 62, 127
1, 4428, Note_off_c, 1, 62, 0
1, 4440, Note_on_c, 1, 59, 127
1, 4488, Note_off_c, 1, 59, 0
1, 4500, Note_on_c, 1, 61, 127
1, 4524, Note_off_c, 1, 71, 0
1, 4548, Note_off_c, 1, 61, 0
1, 4560, Note_on_c, 1, 69, 127
1, 4560, Note_on_c, 1, 62, 127
1, 4608, Note_off_c, 1, 69, 0
1, 4608, Note_off_c, 1, 62, 0
1, 4620, Note_on_c, 1, 67, 127
1, 4620, Note_on_c, 1, 64, 127
1, 4668, Note_off_c, 1, 67, 0
1, 4680, Note_on_c, 1, 66, 127
1, 4728, Note_off_c, 1, 66, 0
1, 4800, Note_on_c, 1, 62, 127
1, 4848, Note_off_c, 1, 62, 0
1, 4860, Note_on_c, 1, 61, 127
1, 4908, Note_off_c, 1, 64, 0
1, 4908, Note_off_c, 1, 61, 0
1, 4920, Note_on_c, 1, 71, 127
1, 4920, Note_on_c, 1, 62, 127
1, 4968, Note_off_c, 1, 71, 0
1, 4968, Note_off_c, 1, 62, 0
1, 4980, Note_on_c, 1, 70, 127
1, 4980, Note_on_c, 1, 61, 127
1, 5028, Note_off_c, 1, 70, 0
1, 5028, Note_off_c, 1, 61, 0
1, 5040, Note_on_c, 1, 76, 127
1, 5040, Note_on_c, 1, 59, 127
1, 5088, Note_off_c, 1, 76, 0
1, 5088, Note_off_c, 1, 59, 0
1, 5100, Note_on_c, 1, 76, 127
1, 5100, Note_on_c, 1, 59, 127
1, 5112, Note_off_c, 1, 59, 0
1, 5115, Note_on_c, 1, 58, 127
1, 5127, Note_off_c, 1, 58, 0
1, 5148, Note_off_c, 1, 76, 0
1, 5160, Note_on_c, 1, 74, 127
1, 5208, Note_off_c, 1, 74, 0
1, 5280, Note_on_c, 1, 73, 127
1, 5280, Note_on_c, 1, 58, 127
1, 5328, Note_off_c, 1, 73, 0
1, 5328, Note_off_c, 1, 58, 0
1, 5340, Note_on_c, 1, 74, 127
1, 5340, Note_on_c, 1, 59, 127
1, 5388, Note_off_c, 1, 74, 0
1, 5400, Note_on_c, 1, 73, 127
1, 5448, Note_off_c, 1, 73, 0
1, 5460, Note_on_c, 1, 71, 127
1, 5484, Note_off_c, 1, 59, 0
1, 5520, Note_on_c, 1, 67, 127
1, 5556, Note_off_c, 1, 71, 0
1, 5568, Note_off_c, 1, 67, 0
1, 5580, Note_on_c, 1, 73, 127
1, 5580, Note_on_c, 1, 57, 127
1, 5604, Note_off_c, 1, 73, 0
1, 5610, Note_on_c, 1, 74, 127
1, 5628, Note_off_c, 1, 57, 0
1, 5634, Note_off_c, 1, 74, 0
1, 5640, Note_on_c, 1, 73, 127
1, 5640, Note_on_c, 1, 67, 127
1, 5664, Note_off_c, 1, 73, 0
1, 5670, Note_on_c, 1, 74, 127
1, 5688, Note_off_c, 1, 67, 0
1, 5694, Note_off_c, 1, 74, 0
1, 5700, Note_on_c, 1, 76, 127
1, 5700, Note_on_c, 1, 57, 127
1, 5712, Note_off_c, 1, 76, 0
1, 5715, Note_on_c, 1, 75, 127
1, 5727, Note_off_c, 1, 75, 0
1, 5748, Note_off_c, 1, 57, 0
1, 5760, Note_on_c, 1, 73, 127
1, 5760, Note_on_c, 1, 66, 127
1, 5784, Note_off_c, 1, 73, 0
1, 5790, Note_on_c, 1, 75, 127
1, 5808, Note_off_c, 1, 66, 0
1, 5814, Note_off_c, 1, 75, 0
1, 5820, Note_on_c, 1, 76, 127
1, 5820, Note_on_c, 1, 55, 127
1, 5868, Note_off_c, 1, 76, 0
1, 5868, Note_off_c, 1, 55, 0
1, 5880, Note_on_c, 1, 74, 127
1, 5880, Note_on_c, 1, 54, 127
1, 5928, Note_off_c, 1, 74, 0
1, 5928, Note_off_c, 1, 54, 0
1, 5940, Note_on_c, 1, 73, 127
1, 5940, Note_on_c, 1, 55, 127
1, 5988, Note_off_c, 1, 73, 0
1, 5988, Note_off_c, 1, 55, 0
1, 6000, Note_on_c, 1, 71, 127
1, 6000, Note_on_c, 1, 64, 127
1, 6048, Note_off_c, 1, 71, 0
1, 6048, Note_off_c, 1, 64, 0
1, 6060, Note_on_c, 1, 71, 127
1, 6060, Note_on_c, 1, 54, 127
1, 6072, Note_off_c, 1, 71, 0
1, 6075, Note_on_c, 1, 70, 127
1, 6087, Note_off_c, 1, 70, 0
1, 6108, Note_off_c, 1, 54, 0
1, 6120, Note_on_c, 1, 64, 127
1, 6168, Note_off_c, 1, 64, 0
1, 6180, Note_on_c, 1, 71, 127
1, 6180, Note_on_c, 1, 54, 127
1, 6228, Note_off_c, 1, 54, 0
1, 6240, Note_on_c, 1, 62, 127
1, 6276, Note_off_c, 1, 71, 0
1, 6288, Note_off_c, 1, 62, 0
1, 6300, Note_on_c, 1, 79, 127
1, 6300, Note_on_c, 1, 52, 127
1, 6324, Note_off_c, 1, 79, 0
1, 6330, Note_on_c, 1, 78, 127
1, 6348, Note_off_c, 1, 52, 0
1, 6354, Note_off_c, 1, 78, 0
1, 6360, Note_on_c, 1, 79, 127
1, 6360, Note_on_c, 1, 50, 127
1, 6408, Note_off_c, 1, 50, 0
1, 6420, Note_on_c, 1, 52, 127
1, 6456, Note_off_c, 1, 79, 0
1, 6468, Note_off_c, 1, 52, 0
1, 6480, Note_on_c, 1, 81, 127
1, 6480, Note_on_c, 1, 61, 127
1, 6528, Note_off_c, 1, 81, 0
1, 6528, Note_off_c, 1, 61, 0
1, 6540, Note_on_c, 1, 78, 127
1, 6540, Note_on_c, 1, 50, 127
1, 6588, Note_off_c, 1, 78, 0
1, 6588, Note_off_c, 1, 50, 0
1, 6600, Note_on_c, 1, 82, 127
1, 6600, Note_on_c, 1, 61, 127
1, 6648, Note_off_c, 1, 82, 0
1, 6648, Note_off_c, 1, 61, 0
1, 6660, Note_on_c, 1, 83, 127
1, 6660, Note_on_c, 1, 50, 127
1, 6708, Note_off_c, 1, 83, 0
1, 6708, Note_off_c, 1, 50, 0
1, 6720, Note_on_c, 1, 79, 127
1, 6720, Note_on_c, 1, 59, 127
1, 6768, Note_off_c, 1, 79, 0
1, 6768, Note_off_c, 1, 59, 0
1, 6780, Note_on_c, 1, 78, 127
1, 6780, Note_on_c, 1, 49, 127
1, 6792, Note_off_c, 1, 78, 0
1, 6795, Note_on_c, 1, 76, 127
1, 6807, Note_off_c, 1, 76, 0
1, 6828, Note_off_c, 1, 49, 0
1, 6840, Note_on_c, 1, 47, 127
1, 6888, Note_off_c, 1, 47, 0
1, 6960, Note_on_c, 1, 79, 127
1, 6960, Note_on_c, 1, 59, 127
1, 7008, Note_off_c, 1, 79, 0
1, 7008, Note_off_c, 1, 59, 0
1, 7020, Note_on_c, 1, 78, 127
1, 7020, Note_on_c, 1, 58, 127
1, 7068, Note_off_c, 1, 78, 0
1, 7068, Note_off_c, 1, 58, 0
1, 7080, Note_on_c, 1, 76, 127
1, 7080, Note_on_c, 1, 56, 127
1, 7128, Note_off_c, 1, 76, 0
1, 7128, Note_off_c, 1, 56, 0
1, 7140, Note_on_c, 1, 78, 127
1, 7140, Note_on_c, 1, 58, 127
1, 7188, Note_off_c, 1, 78, 0
1, 7188, Note_off_c, 1, 58, 0
1, 7200, Note_on_c, 1, 79, 127
1, 7200, Note_on_c, 1, 61, 127
1, 7248, Note_off_c, 1, 79, 0
1, 7248, Note_off_c, 1, 61, 0
1, 7260, Note_on_c, 1, 74, 127
1, 7260, Note_on_c, 1, 52, 127
1, 7272, Note_off_c, 1, 74, 0
1, 7275, Note_on_c, 1, 73, 127
1, 7287, Note_off_c, 1, 73, 0
1, 7308, Note_off_c, 1, 52, 0
1, 7320, Note_on_c, 1, 50, 127
1, 7368, Note_off_c, 1, 50, 0
1, 7440, Note_on_c, 1, 74, 127
1, 7440, Note_on_c, 1, 59, 127
1, 7488, Note_off_c, 1, 74, 0
1, 7488, Note_off_c, 1, 59, 0
1, 7500, Note_on_c, 1, 73, 127
1, 7500, Note_on_c, 1, 58, 127
1, 7548, Note_off_c, 1, 73, 0
1, 7548, Note_off_c, 1, 58, 0
1, 7560, Note_on_c, 1, 71, 127
1, 7560, Note_on_c, 1, 56, 127
1, 7608, Note_off_c, 1, 71, 0
1, 7608, Note_off_c, 1, 56, 0
1, 7620, Note_on_c, 1, 73, 127
1, 7620, Note_on_c, 1, 58, 127
1, 7668, Note_off_c, 1, 73, 0
1, 7668, Note_off_c, 1, 58, 0
1, 7680, Note_on_c, 1, 76, 127
1, 7680, Note_on_c, 1, 61, 127
1, 7728, Note_off_c, 1, 76, 0
1, 7728, Note_off_c, 1, 61, 0
1, 7740, Note_on_c, 1, 71, 127
1, 7740, Note_on_c, 1, 55, 127
1, 7752, Note_off_c, 1, 71, 0
1, 7755, Note_on_c, 1, 70, 127
1, 7767, Note_off_c, 1, 70, 0
1, 7788, Note_off_c, 1, 55, 0
1, 7800, Note_on_c, 1, 54, 127
1, 7848, Note_off_c, 1, 54, 0
1, 7920, Note_on_c, 1, 71, 127
1, 7920, Note_on_c, 1, 59, 127
1, 7968, Note_off_c, 1, 71, 0
1, 7968, Note_off_c, 1, 59, 0
1, 7980, Note_on_c, 1, 73, 127
1, 7980, Note_on_c, 1, 58, 127
1, 8028, Note_off_c, 1, 73, 0
1, 8028, Note_off_c, 1, 58, 0
1, 8040, Note_on_c, 1, 74, 127
1, 8040, Note_on_c, 1, 56, 127
1, 8088, Note_off_c, 1, 74, 0
1, 8088, Note_off_c, 1, 56, 0
1, 8100, Note_on_c, 1, 73, 127
1, 8100, Note_on_c, 1, 58, 127
1, 8148, Note_off_c, 1, 73, 0
1, 8148, Note_off_c, 1, 58, 0
1, 8160, Note_on_c, 1, 74, 127
1, 8160, Note_on_c, 1, 61, 127
1, 8208, Note_off_c, 1, 74, 0
1, 8208, Note_off_c, 1, 61, 0
1, 8220, Note_on_c, 1, 76, 127
1, 8220, Note_on_c, 1, 54, 127
1, 8268, Note_off_c, 1, 76, 0
1, 8280, Note_on_c, 1, 79, 127
1, 8328, Note_off_c, 1, 79, 0
1, 8340, Note_on_c, 1, 78, 127
1, 8340, Note_on_c, 1, 58, 127
1, 8388, Note_off_c, 1, 78, 0
1, 8436, Note_off_c, 1, 58, 0
1, 8460, Note_on_c, 1, 74, 127
1, 8460, Note_on_c, 1, 59, 127
1, 8508, Note_off_c, 1, 74, 0
1, 8520, Note_on_c, 1, 73, 127
1, 8556, Note_off_c, 1, 59, 0
1, 8568, Note_off_c, 1, 73, 0
1, 8580, Note_on_c, 1, 71, 127
1, 8580, Note_on_c, 1, 62, 127
1, 8628, Note_off_c, 1, 71, 0
1, 8640, Note_on_c, 1, 69, 127
1, 8676, Note_off_c, 1, 62, 0
1, 8688, Note_off_c, 1, 69, 0
1, 8700, Note_on_c, 1, 68, 127
1, 8748, Note_off_c, 1, 68, 0
1, 8820, Note_on_c, 1, 77, 127
1, 8820, Note_on_c, 1, 56, 127
1, 8868, Note_off_c, 1, 77, 0
1, 8880, Note_on_c, 1, 83, 127
1, 8916, Note_off_c, 1, 56, 0
1, 8928, Note_off_c, 1, 83, 0
1, 8940, Note_on_c, 1, 66, 127
1, 9000, Note_on_c, 1, 82, 127
1, 9036, Note_off_c, 1, 66, 0
1, 9048, Note_off_c, 1, 82, 0
1, 9060, Note_on_c, 1, 65, 127
1, 9120, Note_on_c, 1, 80, 127
1, 9156, Note_off_c, 1, 65, 0
1, 9168, Note_off_c, 1, 80, 0
1, 9324, Note_off_c, 1, 54, 0
1, 9360, Note_on_c, 1, 78, 127
1, 9360, Note_on_c, 1, 52, 127
1, 9408, Note_off_c, 1, 78, 0
1, 9408, Note_off_c, 1, 52, 0
1, 9420, Note_on_c, 1, 83, 127
1, 9420, Note_on_c, 1, 50, 127
1, 9468, Note_off_c, 1, 83, 0
1, 9468, Note_off_c, 1, 50, 0
1, 9480, Note_on_c, 1, 81, 127
1, 9480, Note_on_c, 1, 49, 127
1, 9528, Note_off_c, 1, 81, 0
1, 9528, Note_off_c, 1, 49, 0
1, 9540, Note_on_c, 1, 79, 127
1, 9540, Note_on_c, 1, 47, 127
1, 9588, Note_off_c, 1, 79, 0
1, 9588, Note_off_c, 1, 47, 0
1, 9600, Note_on_c, 1, 78, 127
1, 9600, Note_on_c, 1, 45, 127
1, 9648, Note_off_c, 1, 78, 0
1, 9648, Note_off_c, 1, 45, 0
1, 9660, Note_on_c, 1, 76, 127
1, 9660, Note_on_c, 1, 43, 127
1, 9708, Note_off_c, 1, 76, 0
1, 9708, Note_off_c, 1, 43, 0
1, 9720, Note_on_c, 1, 74, 127
1, 9720, Note_on_c, 1, 54, 127
1, 9768, Note_off_c, 1, 74, 0
1, 9768, Note_off_c, 1, 54, 0
1, 9780, Note_on_c, 1, 73, 127
1, 9780, Note_on_c, 1, 52, 127
1, 9828, Note_off_c, 1, 52, 0
1, 9840, Note_on_c, 1, 74, 127
1, 9840, Note_on_c, 1, 59, 127
1, 9888, Note_off_c, 1, 74, 0
1, 9888, Note_off_c, 1, 59, 0
1, 9900, Note_on_c, 1, 76, 127
1, 9924, Note_off_c, 1, 76, 0
1, 9930, Note_on_c, 1, 75, 127
1, 9954, Note_off_c, 1, 75, 0
1, 9960, Note_on_c, 1, 58, 127
1, 10008, Note_off_c, 1, 58, 0
1, 10044, Note_off_c, 1, 73, 0
1, 10080, Note_on_c, 1, 76, 127
1, 10080, Note_on_c, 1, 73, 127
1, 10080, Note_on_c, 1, 56, 127
1, 10128, Note_off_c, 1, 76, 0
1, 10128, Note_off_c, 1, 73, 0
1, 10128, Note_off_c, 1, 56, 0
1, 10140, Note_on_c, 1, 76, 127
1, 10140, Note_on_c, 1, 73, 127
1, 10140, Note_on_c, 1, 58, 127
1, 10188, Note_off_c, 1, 76, 0
1, 10200, Note_on_c, 1, 78, 127
1, 10224, Note_off_c, 1, 78, 0
1, 10236, Note_off_c, 1, 73, 0
1, 10236, Note_off_c, 1, 58, 0
1, 10260, Note_on_c, 1, 74, 127
1, 10260, Note_on_c, 1, 71, 127
1, 10260, Note_on_c, 1, 59, 127
1, 10284, Note_off_c, 1, 74, 0
1, 10290, Note_on_c, 1, 76, 127
1, 10308, Note_off_c, 1, 59, 0
1, 10314, Note_off_c, 1, 76, 0
1, 10320, Note_on_c, 1, 78, 127
1, 10320, Note_on_c, 1, 52, 127
1, 10356, Note_off_c, 1, 71, 0
1, 10368, Note_off_c, 1, 78, 0
1, 10368, Note_off_c, 1, 52, 0
1, 10380, Note_on_c, 1, 74, 127
1, 10380, Note_on_c, 1, 70, 127
1, 10380, Note_on_c, 1, 54, 127
1, 10392, Note_off_c, 1, 74, 0
1, 10395, Note_on_c, 1, 73, 127
1, 10407, Note_off_c, 1, 73, 0
1, 10476, Note_off_c, 1, 54, 0
1, 10500, Note_on_c, 1, 42, 127
1, 10560, Note_on_c, 1, 71, 127
1, 10572, Note_off_c, 1, 70, 0
1, 10596, Note_off_c, 1, 42, 0
1, 10608, Note_off_c, 1, 71, 0
1, 10620, Note_on_c, 1, 71, 127
1, 10620, Note_on_c, 1, 47, 127
1, 10680, Note_on_c, 1, 49, 127
1, 10728, Note_off_c, 1, 49, 0
1, 10740, Note_on_c, 1, 51, 127
1, 10800, Note_on_c, 1, 69, 127
1, 10836, Note_off_c, 1, 51, 0
1, 10848, Note_off_c, 1, 69, 0
1, 10860, Note_on_c, 1, 67, 127
1, 10860, Note_on_c, 1, 52, 127
1, 10908, Note_off_c, 1, 67, 0
1, 10920, Note_on_c, 1, 66, 127
1, 10956, Note_off_c, 1, 52, 0
1, 10968, Note_off_c, 1, 66, 0
1, 10980, Note_on_c, 1, 64, 127
1, 10980, Note_on_c, 1, 54, 127
1, 11004, Note_off_c, 1, 71, 0
1, 11028, Note_off_c, 1, 64, 0
1, 11040, Note_on_c, 1, 62, 127
1, 11076, Note_off_c, 1, 54, 0
1, 11088, Note_off_c, 1, 62, 0
1, 11100, Note_on_c, 1, 61, 127
1, 11100, Note_on_c, 1, 55, 127
1, 11196, Note_off_c, 1, 55, 0
1, 11280, Note_on_c, 1, 70, 127
1, 11292, Note_off_c, 1, 61, 0
1, 11328, Note_off_c, 1, 70, 0
1, 11340, Note_on_c, 1, 63, 127
1, 11400, Note_on_c, 1, 57, 127
1, 11448, Note_off_c, 1, 57, 0
1, 11484, Note_off_c, 1, 47, 0
1, 11484, Note_off_c, 1, 63, 0
1, 11520, Note_on_c, 1, 76, 127
1, 11520, Note_on_c, 1, 54, 127
1, 11568, Note_off_c, 1, 76, 0
1, 11568, Note_off_c, 1, 54, 0
1, 11580, Note_on_c, 1, 76, 127
1, 11580, Note_on_c, 1, 52, 127
1, 11676, Note_off_c, 1, 52, 0
1, 11700, Note_on_c, 1, 40, 127
1, 11724, Note_off_c, 1, 76, 0
1, 11760, Note_on_c, 1, 74, 127
1, 11796, Note_off_c, 1, 40, 0
1, 11808, Note_off_c, 1, 74, 0
1, 11820, Note_on_c, 1, 72, 127
1, 11868, Note_off_c, 1, 72, 0
1, 11880, Note_on_c, 1, 71, 127
1, 11880, Note_on_c, 1, 52, 127
1, 11928, Note_off_c, 1, 71, 0
1, 11928, Note_off_c, 1, 52, 0
1, 11940, Note_on_c, 1, 69, 127
1, 11940, Note_on_c, 1, 54, 127
1, 11988, Note_off_c, 1, 69, 0
1, 11988, Note_off_c, 1, 54, 0
1, 12000, Note_on_c, 1, 67, 127
1, 12000, Note_on_c, 1, 55, 127
1, 12048, Note_off_c, 1, 67, 0
1, 12048, Note_off_c, 1, 55, 0
1, 12060, Note_on_c, 1, 66, 127
1, 12060, Note_on_c, 1, 57, 127
1, 12108, Note_off_c, 1, 66, 0
1, 12120, Note_on_c, 1, 76, 127
1, 12156, Note_off_c, 1, 57, 0
1, 12168, Note_off_c, 1, 76, 0
1, 12180, Note_on_c, 1, 75, 127
1, 12180, Note_on_c, 1, 54, 127
1, 12228, Note_off_c, 1, 75, 0
1, 12240, Note_on_c, 1, 81, 127
1, 12276, Note_off_c, 1, 54, 0
1, 12288, Note_off_c, 1, 81, 0
1, 12300, Note_on_c, 1, 81, 127
1, 12300, Note_on_c, 1, 59, 127
1, 12348, Note_off_c, 1, 81, 0
1, 12360, Note_on_c, 1, 79, 127
1, 12396, Note_off_c, 1, 59, 0
1, 12408, Note_off_c, 1, 79, 0
1, 12420, Note_on_c, 1, 81, 127
1, 12420, Note_on_c, 1, 47, 127
1, 12468, Note_off_c, 1, 81, 0
1, 12480, Note_on_c, 1, 78, 127
1, 12516, Note_off_c, 1, 47, 0
1, 12528, Note_off_c, 1, 78, 0
1, 12540, Note_on_c, 1, 79, 127
1, 12540, Note_on_c, 1, 59, 127
1, 12540, Note_on_c, 1, 55, 127
1, 12540, Note_on_c, 1, 64, 127
1, 12540, Note_on_c, 1, 52, 127
1, 12588, Note_off_c, 1, 79, 0
1, 12600, Note_on_c, 1, 78, 127
1, 12648, Note_off_c, 1, 78, 0
1, 12660, Note_on_c, 1, 76, 127
1, 12684, Note_off_c, 1, 59, 0
1, 12684, Note_off_c, 1, 55, 0
1, 12684, Note_off_c, 1, 64, 0
1, 12684, Note_off_c, 1, 52, 0
1, 12720, Note_on_c, 1, 62, 127
1, 12756, Note_off_c, 1, 76, 0
1, 12768, Note_off_c, 1, 62, 0
1, 12780, Note_on_c, 1, 60, 127
1, 12828, Note_off_c, 1, 60, 0
1, 12840, Note_on_c, 1, 76, 127
1, 12840, Note_on_c, 1, 59, 127
1, 12888, Note_off_c, 1, 76, 0
1, 12888, Note_off_c, 1, 59, 0
1, 12900, Note_on_c, 1, 78, 127
1, 12900, Note_on_c, 1, 57, 127
1, 12948, Note_off_c, 1, 78, 0
1, 12948, Note_off_c, 1, 57, 0
1, 12960, Note_on_c, 1, 79, 127
1, 12960, Note_on_c, 1, 55, 127
1, 13008, Note_off_c, 1, 79, 0
1, 13008, Note_off_c, 1, 55, 0
1, 13020, Note_on_c, 1, 81, 127
1, 13020, Note_on_c, 1, 54, 127
1, 13068, Note_off_c, 1, 81, 0
1, 13068, Note_off_c, 1, 54, 0
1, 13080, Note_on_c, 1, 83, 127
1, 13080, Note_on_c, 1, 64, 127
1, 13104, Note_off_c, 1, 83, 0
1, 13110, Note_on_c, 1, 84, 127
1, 13128, Note_off_c, 1, 64, 0
1, 13134, Note_off_c, 1, 84, 0
1, 13140, Note_on_c, 1, 83, 127
1, 13140, Note_on_c, 1, 63, 127
1, 13188, Note_off_c, 1, 83, 0
1, 13188, Note_off_c, 1, 63, 0
1, 13200, Note_on_c, 1, 76, 127
1, 13200, Note_on_c, 1, 69, 127
1, 13248, Note_off_c, 1, 76, 0
1, 13248, Note_off_c, 1, 69, 0
1, 13260, Note_on_c, 1, 75, 127
1, 13260, Note_on_c, 1, 69, 127
1, 13308, Note_off_c, 1, 69, 0
1, 13320, Note_on_c, 1, 67, 127
1, 13368, Note_off_c, 1, 67, 0
1, 13404, Note_off_c, 1, 75, 0
1, 13440, Note_on_c, 1, 76, 127
1, 13440, Note_on_c, 1, 66, 127
1, 13488, Note_off_c, 1, 76, 0
1, 13488, Note_off_c, 1, 66, 0
1, 13500, Note_on_c, 1, 76, 127
1, 13500, Note_on_c, 1, 67, 127
1, 13548, Note_off_c, 1, 67, 0
1, 13560, Note_on_c, 1, 66, 127
1, 13608, Note_off_c, 1, 66, 0
1, 13620, Note_on_c, 1, 64, 127
1, 13644, Note_off_c, 1, 76, 0
1, 13680, Note_on_c, 1, 84, 127
1, 13716, Note_off_c, 1, 64, 0
1, 13728, Note_off_c, 1, 84, 0
1, 13740, Note_on_c, 1, 74, 127
1, 13740, Note_on_c, 1, 66, 127
1, 13788, Note_off_c, 1, 74, 0
1, 13800, Note_on_c, 1, 84, 127
1, 13836, Note_off_c, 1, 66, 0
1, 13848, Note_off_c, 1, 84, 0
1, 13860, Note_on_c, 1, 74, 127
1, 13860, Note_on_c, 1, 68, 127
1, 13908, Note_off_c, 1, 74, 0
1, 13920, Note_on_c, 1, 83, 127
1, 13956, Note_off_c, 1, 68, 0
1, 13968, Note_off_c, 1, 83, 0
1, 13980, Note_on_c, 1, 74, 127
1, 13980, Note_on_c, 1, 69, 127
1, 13992, Note_off_c, 1, 74, 0
1, 13995, Note_on_c, 1, 72, 127
1, 14007, Note_off_c, 1, 72, 0
1, 14028, Note_off_c, 1, 69, 0
1, 14040, Note_on_c, 1, 71, 127
1, 14040, Note_on_c, 1, 67, 127
1, 14088, Note_off_c, 1, 71, 0
1, 14088, Note_off_c, 1, 67, 0
1, 14100, Note_on_c, 1, 72, 127
1, 14100, Note_on_c, 1, 66, 127
1, 14148, Note_off_c, 1, 72, 0
1, 14148, Note_off_c, 1, 66, 0
1, 14160, Note_on_c, 1, 81, 127
1, 14160, Note_on_c, 1, 64, 127
1, 14208, Note_off_c, 1, 81, 0
1, 14208, Note_off_c, 1, 64, 0
1, 14220, Note_on_c, 1, 71, 127
1, 14220, Note_on_c, 1, 63, 127
1, 14268, Note_off_c, 1, 71, 0
1, 14280, Note_on_c, 1, 81, 127
1, 14316, Note_off_c, 1, 63, 0
1, 14328, Note_off_c, 1, 81, 0
1, 14340, Note_on_c, 1, 71, 127
1, 14340, Note_on_c, 1, 64, 127
1, 14388, Note_off_c, 1, 71, 0
1, 14400, Note_on_c, 1, 79, 127
1, 14448, Note_off_c, 1, 79, 0
1, 14475, Note_on_c, 1, 69, 127
1, 14487, Note_off_c, 1, 69, 0
1, 14520, Note_on_c, 1, 67, 127
1, 14556, Note_off_c, 1, 64, 0
1, 14568, Note_off_c, 1, 67, 0
1, 14580, Note_on_c, 1, 69, 127
1, 14580, Note_on_c, 1, 63, 127
1, 14628, Note_off_c, 1, 69, 0
1, 14640, Note_on_c, 1, 78, 127
1, 14676, Note_off_c, 1, 63, 0
1, 14688, Note_off_c, 1, 78, 0
1, 14700, Note_on_c, 1, 67, 127
1, 14700, Note_on_c, 1, 64, 127
1, 14748, Note_off_c, 1, 67, 0
1, 14760, Note_on_c, 1, 78, 127
1, 14796, Note_off_c, 1, 64, 0
1, 14808, Note_off_c, 1, 78, 0
1, 14820, Note_on_c, 1, 67, 127
1, 14820, Note_on_c, 1, 52, 127
1, 14868, Note_off_c, 1, 67, 0
1, 14880, Note_on_c, 1, 76, 127
1, 14916, Note_off_c, 1, 52, 0
1, 14928, Note_off_c, 1, 76, 0
1, 14940, Note_on_c, 1, 66, 127
1, 14940, Note_on_c, 1, 59, 127
1, 15000, Note_on_c, 1, 76, 127
1, 15048, Note_off_c, 1, 76, 0
1, 15060, Note_on_c, 1, 75, 127
1, 15084, Note_off_c, 1, 59, 0
1, 15120, Note_on_c, 1, 57, 127
1, 15156, Note_off_c, 1, 75, 0
1, 15168, Note_off_c, 1, 57, 0
1, 15180, Note_off_c, 1, 66, 0
1, 15180, Note_on_c, 1, 55, 127
1, 15228, Note_off_c, 1, 55, 0
1, 15240, Note_on_c, 1, 74, 127
1, 15240, Note_on_c, 1, 54, 127
1, 15288, Note_off_c, 1, 74, 0
1, 15288, Note_off_c, 1, 54, 0
1, 15300, Note_on_c, 1, 73, 127
1, 15300, Note_on_c, 1, 52, 127
1, 15348, Note_off_c, 1, 73, 0
1, 15348, Note_off_c, 1, 52, 0
1, 15360, Note_on_c, 1, 71, 127
1, 15360, Note_on_c, 1, 50, 127
1, 15408, Note_off_c, 1, 71, 0
1, 15408, Note_off_c, 1, 50, 0
1, 15420, Note_on_c, 1, 70, 127
1, 15420, Note_on_c, 1, 49, 127
1, 15468, Note_off_c, 1, 49, 0
1, 15480, Note_on_c, 1, 79, 127
1, 15528, Note_off_c, 1, 79, 0
1, 15540, Note_on_c, 1, 78, 127
1, 15540, Note_on_c, 1, 58, 127
1, 15564, Note_off_c, 1, 70, 0
1, 15588, Note_off_c, 1, 78, 0
1, 15588, Note_off_c, 1, 58, 0
1, 15600, Note_on_c, 1, 76, 127
1, 15600, Note_on_c, 1, 73, 127
1, 15600, Note_on_c, 1, 64, 127
1, 15648, Note_off_c, 1, 76, 0
1, 15648, Note_off_c, 1, 73, 0
1, 15648, Note_off_c, 1, 64, 0
1, 15660, Note_on_c, 1, 74, 127
1, 15660, Note_on_c, 1, 71, 127
1, 15660, Note_on_c, 1, 64, 127
1, 15708, Note_off_c, 1, 64, 0
1, 15720, Note_on_c, 1, 62, 127
1, 15756, Note_off_c, 1, 74, 0
1, 15756, Note_off_c, 1, 71, 0
1, 15768, Note_off_c, 1, 62, 0
1, 15780, Note_on_c, 1, 73, 127
1, 15780, Note_on_c, 1, 70, 127
1, 15780, Note_on_c, 1, 64, 127
1, 15828, Note_off_c, 1, 73, 0
1, 15828, Note_off_c, 1, 64, 0
1, 15840, Note_on_c, 1, 71, 127
1, 15840, Note_on_c, 1, 61, 127
1, 15876, Note_off_c, 1, 70, 0
1, 15888, Note_off_c, 1, 71, 0
1, 15888, Note_off_c, 1, 61, 0
1, 15900, Note_on_c, 1, 71, 127
1, 15900, Note_on_c, 1, 62, 127
1, 15948, Note_off_c, 1, 62, 0
1, 15960, Note_on_c, 1, 59, 127
1, 16008, Note_off_c, 1, 59, 0
1, 16020, Note_on_c, 1, 61, 127
1, 16044, Note_off_c, 1, 71, 0
1, 16068, Note_off_c, 1, 61, 0
1, 16080, Note_on_c, 1, 69, 127
1, 16080, Note_on_c, 1, 62, 127
1, 16128, Note_off_c, 1, 69, 0
1, 16128, Note_off_c, 1, 62, 0
1, 16140, Note_on_c, 1, 67, 127
1, 16140, Note_on_c, 1, 64, 127
1, 16188, Note_off_c, 1, 67, 0
1, 16200, Note_on_c, 1, 66, 127
1, 16248, Note_off_c, 1, 66, 0
1, 16320, Note_on_c, 1, 62, 127
1, 16368, Note_off_c, 1, 62, 0
1, 16380, Note_on_c, 1, 61, 127
1, 16428, Note_off_c, 1, 64, 0
1, 16428, Note_off_c, 1, 61, 0
1, 16440, Note_on_c, 1, 71, 127
1, 16440, Note_on_c, 1, 62, 127
1, 16488, Note_off_c, 1, 71, 0
1, 16488, Note_off_c, 1, 62, 0
1, 16500, Note_on_c, 1, 70, 127
1, 16500, Note_on_c, 1, 61, 127
1, 16548, Note_off_c, 1, 70, 0
1, 16548, Note_off_c, 1, 61, 0
1, 16560, Note_on_c, 1, 76, 127
1, 16560, Note_on_c, 1, 59, 127
1, 16608, Note_off_c, 1, 76, 0
1, 16608, Note_off_c, 1, 59, 0
1, 16620, Note_on_c, 1, 76, 127
1, 16620, Note_on_c, 1, 59, 127
1, 16632, Note_off_c, 1, 59, 0
1, 16635, Note_on_c, 1, 58, 127
1, 16647, Note_off_c, 1, 58, 0
1, 16668, Note_off_c, 1, 76, 0
1, 16680, Note_on_c, 1, 74, 127
1, 16728, Note_off_c, 1, 74, 0
1, 16800, Note_on_c, 1, 73, 127
1, 16800, Note_on_c, 1, 58, 127
1, 16848, Note_off_c, 1, 73, 0
1, 16848, Note_off_c, 1, 58, 0
1, 16860, Note_on_c, 1, 74, 127
1, 16860, Note_on_c, 1, 59, 127
1, 16908, Note_off_c, 1, 74, 0
1, 16920, Note_on_c, 1, 73, 127
1, 16968, Note_off_c, 1, 73, 0
1, 16980, Note_on_c, 1, 71, 127
1, 17004, Note_off_c, 1, 59, 0
1, 17040, Note_on_c, 1, 67, 127
1, 17076, Note_off_c, 1, 71, 0
1, 17088, Note_off_c, 1, 67, 0
1, 17100, Note_on_c, 1, 73, 127
1, 17100, Note_on_c, 1, 57, 127
1, 17124, Note_off_c, 1, 73, 0
1, 17130, Note_on_c, 1, 74, 127
1, 17148, Note_off_c, 1, 57, 0
1, 17154, Note_off_c, 1, 74, 0
1, 17160, Note_on_c, 1, 73, 127
1, 17160, Note_on_c, 1, 67, 127
1, 17184, Note_off_c, 1, 73, 0
1, 17190, Note_on_c, 1, 74, 127
1, 17208, Note_off_c, 1, 67, 0
1, 17214, Note_off_c, 1, 74, 0
1, 17220, Note_on_c, 1, 76, 127
1, 17220, Note_on_c, 1, 57, 127
1, 17232, Note_off_c, 1, 76, 0
1, 17235, Note_on_c, 1, 75, 127
1, 17247, Note_off_c, 1, 75, 0
1, 17268, Note_off_c, 1, 57, 0
1, 17280, Note_on_c, 1, 73, 127
1, 17280, Note_on_c, 1, 66, 127
1, 17304, Note_off_c, 1, 73, 0
1, 17310, Note_on_c, 1, 75, 127
1, 17328, Note_off_c, 1, 66, 0
1, 17334, Note_off_c, 1, 75, 0
1, 17340, Note_on_c, 1, 76, 127
1, 17340, Note_on_c, 1, 55, 127
1, 17388, Note_off_c, 1, 76, 0
1, 17388, Note_off_c, 1, 55, 0
1, 17400, Note_on_c, 1, 74, 127
1, 17400, Note_on_c, 1, 54, 127
1, 17448, Note_off_c, 1, 74, 0
1, 17448, Note_off_c, 1, 54, 0
1, 17460, Note_on_c, 1, 73, 127
1, 17460, Note_on_c, 1, 55, 127
1, 17508, Note_off_c, 1, 73, 0
1, 17508, Note_off_c, 1, 55, 0
1, 17520, Note_on_c, 1, 71, 127
1, 17520, Note_on_c, 1, 64, 127
1, 17568, Note_off_c, 1, 71, 0
1, 17568, Note_off_c, 1, 64, 0
1, 17580, Note_on_c, 1, 71, 127
1, 17580, Note_on_c, 1, 54, 127
1, 17592, Note_off_c, 1, 71, 0
1, 17595, Note_on_c, 1, 70, 127
1, 17607, Note_off_c, 1, 70, 0
1, 17628, Note_off_c, 1, 54, 0
1, 17640, Note_on_c, 1, 64, 127
1, 17688, Note_off_c, 1, 64, 0
1, 17700, Note_on_c, 1, 71, 127
1, 17700, Note_on_c, 1, 54, 127
1, 17748, Note_off_c, 1, 54, 0
1, 17760, Note_on_c, 1, 62, 127
1, 17796, Note_off_c, 1, 71, 0
1, 17808, Note_off_c, 1, 62, 0
1, 17820, Note_on_c, 1, 79, 127
1, 17820, Note_on_c, 1, 52, 127
1, 17844, Note_off_c, 1, 79, 0
1, 17850, Note_on_c, 1, 78, 127
1, 17868, Note_off_c, 1, 52, 0
1, 17874, Note_off_c, 1, 78, 0
1, 17880, Note_on_c, 1, 79, 127
1, 17880, Note_on_c, 1, 50, 127
1, 17928, Note_off_c, 1, 50, 0
1, 17940, Note_on_c, 1, 52, 127
1, 17976, Note_off_c, 1, 79, 0
1, 17988, Note_off_c, 1, 52, 0
1, 18000, Note_on_c, 1, 81, 127
1, 18000, Note_on_c, 1, 61, 127
1, 18048, Note_off_c, 1, 81, 0
1, 18048, Note_off_c, 1, 61, 0
1, 18060, Note_on_c, 1, 78, 127
1, 18060, Note_on_c, 1, 50, 127
1, 18108, Note_off_c, 1, 78, 0
1, 18108, Note_off_c, 1, 50, 0
1, 18120, Note_on_c, 1, 82, 127
1, 18120, Note_on_c, 1, 61, 127
1, 18168, Note_off_c, 1, 82, 0
1, 18168, Note_off_c, 1, 61, 0
1, 18180, Note_on_c, 1, 83, 127
1, 18180, Note_on_c, 1, 50, 127
1, 18228, Note_off_c, 1, 83, 0
1, 18228, Note_off_c, 1, 50, 0
1, 18240, Note_on_c, 1, 79, 127
1, 18240, Note_on_c, 1, 59, 127
1, 18288, Note_off_c, 1, 79, 0
1, 18288, Note_off_c, 1, 59, 0
1, 18300, Note_on_c, 1, 78, 127
1, 18300, Note_on_c, 1, 49, 127
1, 18312, Note_off_c, 1, 78, 0
1, 18315, Note_on_c, 1, 76, 127
1, 18327, Note_off_c, 1, 76, 0
1, 18348, Note_off_c, 1, 49, 0
1, 18360, Note_on_c, 1, 47, 127
1, 18408, Note_off_c, 1, 47, 0
1, 18480, Note_on_c, 1, 79, 127
1, 18480, Note_on_c, 1, 59, 127
1, 18528, Note_off_c, 1, 79, 0
1, 18528, Note_off_c, 1, 59, 0
1, 18540, Note_on_c, 1, 78, 127
1, 18540, Note_on_c, 1, 58, 127
1, 18588, Note_off_c, 1, 78, 0
1, 18588, Note_off_c, 1, 58, 0
1, 18600, Note_on_c, 1, 76, 127
1, 18600, Note_on_c, 1, 56, 127
1, 18648, Note_off_c, 1, 76, 0
1, 18648, Note_off_c, 1, 56, 0
1, 18660, Note_on_c, 1, 78, 127
1, 18660, Note_on_c, 1, 58, 127
1, 18708, Note_off_c, 1, 78, 0
1, 18708, Note_off_c, 1, 58, 0
1, 18720, Note_on_c, 1, 79, 127
1, 18720, Note_on_c, 1, 61, 127
1, 18768, Note_off_c, 1, 79, 0
1, 18768, Note_off_c, 1, 61, 0
1, 18780, Note_on_c, 1, 74, 127
1, 18780, Note_on_c, 1, 52, 127
1, 18792, Note_off_c, 1, 74, 0
1, 18795, Note_on_c, 1, 73, 127
1, 18807, Note_off_c, 1, 73, 0
1, 18828, Note_off_c, 1, 52, 0
1, 18840, Note_on_c, 1, 50, 127
1, 18888, Note_off_c, 1, 50, 0
1, 18960, Note_on_c, 1, 74, 127
1, 18960, Note_on_c, 1, 59, 127
1, 19008, Note_off_c, 1, 74, 0
1, 19008, Note_off_c, 1, 59, 0
1, 19020, Note_on_c, 1, 73, 127
1, 19020, Note_on_c, 1, 58, 127
1, 19068, Note_off_c, 1, 73, 0
1, 19068, Note_off_c, 1, 58, 0
1, 19080, Note_on_c, 1, 71, 127
1, 19080, Note_on_c, 1, 56, 127
1, 19128, Note_off_c, 1, 71, 0
1, 19128, Note_off_c, 1, 56, 0
1, 19140, Note_on_c, 1, 73, 127
1, 19140, Note_on_c, 1, 58, 127
1, 19188, Note_off_c, 1, 73, 0
1, 19188, Note_off_c, 1, 58, 0
1, 19200, Note_on_c, 1, 76, 127
1, 19200, Note_on_c, 1, 61, 127
1, 19248, Note_off_c, 1, 76, 0
1, 19248, Note_off_c, 1, 61, 0
1, 19260, Note_on_c, 1, 71, 127
1, 19260, Note_on_c, 1, 55, 127
1, 19272, Note_off_c, 1, 71, 0
1, 19275, Note_on_c, 1, 70, 127
1, 19287, Note_off_c, 1, 70, 0
1, 19308, Note_off_c, 1, 55, 0
1, 19320, Note_on_c, 1, 54, 127
1, 19368, Note_off_c, 1, 54, 0
1, 19440, Note_on_c, 1, 71, 127
1, 19440, Note_on_c, 1, 59, 127
1, 19488, Note_off_c, 1, 71, 0
1, 19488, Note_off_c, 1, 59, 0
1, 19500, Note_on_c, 1, 73, 127
1, 19500, Note_on_c, 1, 58, 127
1, 19548, Note_off_c, 1, 73, 0
1, 19548, Note_off_c, 1, 58, 0
1, 19560, Note_on_c, 1, 74, 127
1, 19560, Note_on_c, 1, 56, 127
1, 19608, Note_off_c, 1, 74, 0
1, 19608, Note_off_c, 1, 56, 0
1, 19620, Note_on_c, 1, 73, 127
1, 19620, Note_on_c, 1, 58, 127
1, 19668, Note_off_c, 1, 73, 0
1, 19668, Note_off_c, 1, 58, 0
1, 19680, Note_on_c, 1, 74, 127
1, 19680, Note_on_c, 1, 61, 127
1, 19728, Note_off_c, 1, 74, 0
1, 19728, Note_off_c, 1, 61, 0
1, 19740, Note_on_c, 1, 76, 127
1, 19740, Note_on_c, 1, 54, 127
1, 19788, Note_off_c, 1, 76, 0
1, 19800, Note_on_c, 1, 79, 127
1, 19848, Note_off_c, 1, 79, 0
1, 19860, Note_on_c, 1, 78, 127
1, 19860, Note_on_c, 1, 58, 127
1, 19908, Note_off_c, 1, 78, 0
1, 19956, Note_off_c, 1, 58, 0
1, 19980, Note_on_c, 1, 74, 127
1, 19980, Note_on_c, 1, 59, 127
1, 20028, Note_off_c, 1, 74, 0
1, 20040, Note_on_c, 1, 73, 127
1, 20076, Note_off_c, 1, 59, 0
1, 20088, Note_off_c, 1, 73, 0
1, 20100, Note_on_c, 1, 71, 127
1, 20100, Note_on_c, 1, 62, 127
1, 20148, Note_off_c, 1, 71, 0
1, 20160, Note_on_c, 1, 69, 127
1, 20196, Note_off_c, 1, 62, 0
1, 20208, Note_off_c, 1, 69, 0
1, 20220, Note_on_c, 1, 68, 127
1, 20268, Note_off_c, 1, 68, 0
1, 20340, Note_on_c, 1, 77, 127
1, 20340, Note_on_c, 1, 56, 127
1, 20388, Note_off_c, 1, 77, 0
1, 20400, Note_on_c, 1, 83, 127
1, 20436, Note_off_c, 1, 56, 0
1, 20448, Note_off_c, 1, 83, 0
1, 20460, Note_on_c, 1, 66, 127
1, 20520, Note_on_c, 1, 82, 127
1, 20556, Note_off_c, 1, 66, 0
1, 20568, Note_off_c, 1, 82, 0
1, 20580, Note_on_c, 1, 65, 127
1, 20640, Note_on_c, 1, 80, 127
1, 20676, Note_off_c, 1, 65, 0
1, 20688, Note_off_c, 1, 80, 0
1, 20844, Note_off_c, 1, 54, 0
1, 20880, Note_on_c, 1, 78, 127
1, 20880, Note_on_c, 1, 52, 127
1, 20928, Note_off_c, 1, 78, 0
1, 20928, Note_off_c, 1, 52, 0
1, 20940, Note_on_c, 1, 83, 127
1, 20940, Note_on_c, 1, 50, 127
1, 20988, Note_off_c, 1, 83, 0
1, 20988, Note_off_c, 1, 50, 0
1, 21000, Note_on_c, 1, 81, 127
1, 21000, Note_on_c, 1, 49, 127
1, 21048, Note_off_c, 1, 81, 0
1, 21048, Note_off_c, 1, 49, 0
1, 21060, Note_on_c, 1, 79, 127
1, 21060, Note_on_c, 1, 47, 127
1, 21108, Note_off_c, 1, 79, 0
1, 21108, Note_off_c, 1, 47, 0
1, 21120, Note_on_c, 1, 78, 127
1, 21120, Note_on_c, 1, 45, 127
1, 21168, Note_off_c, 1, 78, 0
1, 21168, Note_off_c, 1, 45, 0
1, 21180, Note_on_c, 1, 76, 127
1, 21180, Note_on_c, 1, 43, 127
1, 21228, Note_off_c, 1, 76, 0
1, 21228, Note_off_c, 1, 43, 0
1, 21240, Note_on_c, 1, 74, 127
1, 21240, Note_on_c, 1, 54, 127
1, 21288, Note_off_c, 1, 74, 0
1, 21288, Note_off_c, 1, 54, 0
1, 21300, Note_on_c, 1, 73, 127
1, 21300, Note_on_c, 1, 52, 127
1, 21348, Note_off_c, 1, 52, 0
1, 21360, Note_on_c, 1, 74, 127
1, 21360, Note_on_c, 1, 59, 127
1, 21408, Note_off_c, 1, 74, 0
1, 21408, Note_off_c, 1, 59, 0
1, 21420, Note_on_c, 1, 76, 127
1, 21444, Note_off_c, 1, 76, 0
1, 21450, Note_on_c, 1, 75, 127
1, 21474, Note_off_c, 1, 75, 0
1, 21480, Note_on_c, 1, 58, 127
1, 21528, Note_off_c, 1, 58, 0
1, 21564, Note_off_c, 1, 73, 0
1, 21600, Note_on_c, 1, 76, 127
1, 21600, Note_on_c, 1, 73, 127
1, 21600, Note_on_c, 1, 56, 127
1, 21648, Note_off_c, 1, 76, 0
1, 21648, Note_off_c, 1, 73, 0
1, 21648, Note_off_c, 1, 56, 0
1, 21660, Note_on_c, 1, 76, 127
1, 21660, Note_on_c, 1, 73, 127
1, 21660, Note_on_c, 1, 58, 127
1, 21708, Note_off_c, 1, 76, 0
1, 21720, Note_on_c, 1, 78, 127
1, 21744, Note_off_c, 1, 78, 0
1, 21756, Note_off_c, 1, 73, 0
1, 21756, Note_off_c, 1, 58, 0
1, 21780, Note_on_c, 1, 74, 127
1, 21780, Note_on_c, 1, 71, 127
1, 21780, Note_on_c, 1, 59, 127
1, 21804, Note_off_c, 1, 74, 0
1, 21810, Note_on_c, 1, 76, 127
1, 21828, Note_off_c, 1, 59, 0
1, 21834, Note_off_c, 1, 76, 0
1, 21840, Note_on_c, 1, 78, 127
1, 21840, Note_on_c, 1, 52, 127
1, 21876, Note_off_c, 1, 71, 0
1, 21888, Note_off_c, 1, 78, 0
1, 21888, Note_off_c, 1, 52, 0
1, 21900, Note_on_c, 1, 74, 127
1, 21900, Note_on_c, 1, 70, 127
1, 21900, Note_on_c, 1, 54, 127
1, 21912, Note_off_c, 1, 74, 0
1, 21915, Note_on_c, 1, 73, 127
1, 21927, Note_off_c, 1, 73, 0
1, 21996, Note_off_c, 1, 54, 0
1, 22020, Note_on_c, 1, 42, 127
1, 22080, Note_on_c, 1, 71, 127
1, 22092, Note_off_c, 1, 70, 0
1, 22116, Note_off_c, 1, 42, 0
1, 22128, Note_off_c, 1, 71, 0
1, 22140, Note_on_c, 1, 71, 127
1, 22140, Note_on_c, 1, 47, 127
1, 22200, Note_on_c, 1, 49, 127
1, 22248, Note_off_c, 1, 49, 0
1, 22260, Note_on_c, 1, 51, 127
1, 22320, Note_on_c, 1, 69, 127
1, 22356, Note_off_c, 1, 51, 0
1, 22368, Note_off_c, 1, 69, 0
1, 22380, Note_on_c, 1, 67, 127
1, 22380, Note_on_c, 1, 52, 127
1, 22428, Note_off_c, 1, 67, 0
1, 22440, Note_on_c, 1, 66, 127
1, 22476, Note_off_c, 1, 52, 0
1, 22488, Note_off_c, 1, 66, 0
1, 22500, Note_on_c, 1, 64, 127
1, 22500, Note_on_c, 1, 54, 127
1, 22524, Note_off_c, 1, 71, 0
1, 22548, Note_off_c, 1, 64, 0
1, 22560, Note_on_c, 1, 62, 127
1, 22596, Note_off_c, 1, 54, 0
1, 22608, Note_off_c, 1, 62, 0
1, 22620, Note_on_c, 1, 61, 127
1, 22620, Note_on_c, 1, 55, 127
1, 22716, Note_off_c, 1, 55, 0
1, 22800, Note_on_c, 1, 70, 127
1, 22812, Note_off_c, 1, 61, 0
1, 22848, Note_off_c, 1, 70, 0
1, 22860, Note_on_c, 1, 63, 127
1, 23004, Note_off_c, 1, 47, 0
1, 23004, Note_off_c, 1, 63, 0
1, 23040, Note_on_c, 1, 78, 127
1, 23088, Note_off_c, 1, 78, 0
1, 23100, Note_on_c, 1, 78, 127
1, 23100, Note_on_c, 1, 47, 127
1, 23160, Note_on_c, 1, 75, 127
1, 23220, Note_on_c, 1, 71, 127
1, 23244, Note_off_c, 1, 47, 0
1, 23256, Note_off_c, 1, 75, 0
1, 23280, Note_on_c, 1, 49, 127
1, 23292, Note_off_c, 1, 78, 0
1, 23316, Note_off_c, 1, 71, 0
1, 23328, Note_off_c, 1, 49, 0
1, 23340, Note_on_c, 1, 51, 127
1, 23388, Note_off_c, 1, 51, 0
1, 23400, Note_on_c, 1, 79, 127
1, 23400, Note_on_c, 1, 52, 127
1, 23448, Note_off_c, 1, 79, 0
1, 23448, Note_off_c, 1, 52, 0
1, 23460, Note_on_c, 1, 78, 127
1, 23460, Note_on_c, 1, 54, 127
1, 23508, Note_off_c, 1, 78, 0
1, 23508, Note_off_c, 1, 54, 0
1, 23520, Note_on_c, 1, 76, 127
1, 23520, Note_on_c, 1, 55, 127
1, 23568, Note_off_c, 1, 76, 0
1, 23568, Note_off_c, 1, 55, 0
1, 23580, Note_on_c, 1, 75, 127
1, 23580, Note_on_c, 1, 57, 127
1, 23628, Note_off_c, 1, 57, 0
1, 23640, Note_on_c, 1, 51, 127
1, 23688, Note_off_c, 1, 51, 0
1, 23700, Note_on_c, 1, 54, 127
1, 23724, Note_off_c, 1, 75, 0
1, 23748, Note_off_c, 1, 54, 0
1, 23760, Note_on_c, 1, 76, 127
1, 23760, Note_on_c, 1, 57, 127
1, 23808, Note_off_c, 1, 76, 0
1, 23808, Note_off_c, 1, 57, 0
1, 23820, Note_on_c, 1, 78, 127
1, 23820, Note_on_c, 1, 60, 127
1, 23868, Note_off_c, 1, 78, 0
1, 23868, Note_off_c, 1, 60, 0
1, 23880, Note_on_c, 1, 79, 127
1, 23880, Note_on_c, 1, 59, 127
1, 23904, Note_off_c, 1, 79, 0
1, 23910, Note_on_c, 1, 81, 127
1, 23928, Note_off_c, 1, 59, 0
1, 23934, Note_off_c, 1, 81, 0
1, 23940, Note_on_c, 1, 79, 127
1, 23940, Note_on_c, 1, 64, 127
1, 23988, Note_off_c, 1, 79, 0
1, 23988, Note_off_c, 1, 64, 0
1, 24000, Note_on_c, 1, 78, 127
1, 24000, Note_on_c, 1, 63, 127
1, 24048, Note_off_c, 1, 78, 0
1, 24048, Note_off_c, 1, 63, 0
1, 24060, Note_on_c, 1, 79, 127
1, 24060, Note_on_c, 1, 64, 127
1, 24108, Note_off_c, 1, 79, 0
1, 24120, Note_on_c, 1, 78, 127
1, 24168, Note_off_c, 1, 78, 0
1, 24180, Note_on_c, 1, 76, 127
1, 24240, Note_on_c, 1, 66, 127
1, 24288, Note_off_c, 1, 66, 0
1, 24300, Note_on_c, 1, 67, 127
1, 24348, Note_off_c, 1, 76, 0
1, 24348, Note_off_c, 1, 67, 0
1, 24360, Note_on_c, 1, 84, 127
1, 24360, Note_on_c, 1, 69, 127
1, 24408, Note_off_c, 1, 84, 0
1, 24408, Note_off_c, 1, 69, 0
1, 24420, Note_on_c, 1, 83, 127
1, 24420, Note_on_c, 1, 71, 127
1, 24468, Note_off_c, 1, 83, 0
1, 24468, Note_off_c, 1, 71, 0
1, 24480, Note_on_c, 1, 72, 127
1, 24480, Note_on_c, 1, 81, 127
1, 24528, Note_off_c, 1, 72, 0
1, 24528, Note_off_c, 1, 81, 0
1, 24540, Note_on_c, 1, 74, 127
1, 24540, Note_on_c, 1, 80, 127
1, 24588, Note_off_c, 1, 74, 0
1, 24588, Note_off_c, 1, 80, 0
1, 24684, Note_off_c, 1, 64, 0
1, 24720, Note_on_c, 1, 76, 127
1, 24720, Note_on_c, 1, 64, 127
1, 24768, Note_off_c, 1, 76, 0
1, 24768, Note_off_c, 1, 64, 0
1, 24780, Note_on_c, 1, 77, 127
1, 24780, Note_on_c, 1, 59, 127
1, 24828, Note_off_c, 1, 77, 0
1, 24828, Note_off_c, 1, 59, 0
1, 24840, Note_on_c, 1, 76, 127
1, 24840, Note_on_c, 1, 60, 127
1, 24864, Note_off_c, 1, 60, 0
1, 24870, Note_on_c, 1, 62, 127
1, 24888, Note_off_c, 1, 76, 0
1, 24894, Note_off_c, 1, 62, 0
1, 24900, Note_on_c, 1, 81, 127
1, 24900, Note_on_c, 1, 60, 127
1, 24948, Note_off_c, 1, 81, 0
1, 24948, Note_off_c, 1, 60, 0
1, 24960, Note_on_c, 1, 80, 127
1, 24960, Note_on_c, 1, 59, 127
1, 25008, Note_off_c, 1, 80, 0
1, 25008, Note_off_c, 1, 59, 0
1, 25020, Note_on_c, 1, 81, 127
1, 25020, Note_on_c, 1, 60, 127
1, 25068, Note_off_c, 1, 60, 0
1, 25080, Note_on_c, 1, 59, 127
1, 25128, Note_off_c, 1, 59, 0
1, 25140, Note_on_c, 1, 57, 127
1, 25164, Note_off_c, 1, 81, 0
1, 25188, Note_off_c, 1, 57, 0
1, 25200, Note_on_c, 1, 79, 127
1, 25200, Note_on_c, 1, 45, 127
1, 25248, Note_off_c, 1, 79, 0
1, 25248, Note_off_c, 1, 45, 0
1, 25260, Note_on_c, 1, 77, 127
1, 25260, Note_on_c, 1, 57, 127
1, 25308, Note_off_c, 1, 77, 0
1, 25308, Note_off_c, 1, 57, 0
1, 25320, Note_on_c, 1, 76, 127
1, 25320, Note_on_c, 1, 47, 127
1, 25368, Note_off_c, 1, 76, 0
1, 25368, Note_off_c, 1, 47, 0
1, 25380, Note_on_c, 1, 79, 127
1, 25380, Note_on_c, 1, 57, 127
1, 25428, Note_off_c, 1, 79, 0
1, 25428, Note_off_c, 1, 57, 0
1, 25440, Note_on_c, 1, 77, 127
1, 25440, Note_on_c, 1, 49, 127
1, 25488, Note_off_c, 1, 77, 0
1, 25488, Note_off_c, 1, 49, 0
1, 25500, Note_on_c, 1, 77, 127
1, 25500, Note_on_c, 1, 58, 127
1, 25548, Note_off_c, 1, 58, 0
1, 25560, Note_on_c, 1, 60, 127
1, 25608, Note_off_c, 1, 60, 0
1, 25644, Note_off_c, 1, 77, 0
1, 25680, Note_on_c, 1, 76, 127
1, 25680, Note_on_c, 1, 49, 127
1, 25728, Note_off_c, 1, 76, 0
1, 25728, Note_off_c, 1, 49, 0
1, 25740, Note_on_c, 1, 74, 127
1, 25740, Note_on_c, 1, 58, 127
1, 25788, Note_off_c, 1, 74, 0
1, 25788, Note_off_c, 1, 58, 0
1, 25800, Note_on_c, 1, 72, 127
1, 25800, Note_on_c, 1, 50, 127
1, 25848, Note_off_c, 1, 72, 0
1, 25848, Note_off_c, 1, 50, 0
1, 25860, Note_on_c, 1, 70, 127
1, 25860, Note_on_c, 1, 61, 127
1, 25908, Note_off_c, 1, 70, 0
1, 25908, Note_off_c, 1, 61, 0
1, 25920, Note_on_c, 1, 69, 127
1, 25920, Note_on_c, 1, 52, 127
1, 25968, Note_off_c, 1, 69, 0
1, 25968, Note_off_c, 1, 52, 0
1, 25980, Note_on_c, 1, 68, 127
1, 25980, Note_on_c, 1, 62, 127
1, 26028, Note_off_c, 1, 62, 0
1, 26040, Note_on_c, 1, 64, 127
1, 26088, Note_off_c, 1, 64, 0
1, 26124, Note_off_c, 1, 68, 0
1, 26160, Note_on_c, 1, 69, 127
1, 26160, Note_on_c, 1, 52, 127
1, 26184, Note_off_c, 1, 69, 0
1, 26190, Note_on_c, 1, 71, 127
1, 26208, Note_off_c, 1, 52, 0
1, 26214, Note_off_c, 1, 71, 0
1, 26220, Note_on_c, 1, 69, 127
1, 26220, Note_on_c, 1, 62, 127
1, 26268, Note_off_c, 1, 69, 0
1, 26268, Note_off_c, 1, 62, 0
1, 26280, Note_on_c, 1, 71, 127
1, 26280, Note_on_c, 1, 54, 127
1, 26304, Note_off_c, 1, 71, 0
1, 26310, Note_on_c, 1, 72, 127
1, 26328, Note_off_c, 1, 54, 0
1, 26334, Note_off_c, 1, 72, 0
1, 26340, Note_on_c, 1, 71, 127
1, 26340, Note_on_c, 1, 62, 127
1, 26388, Note_off_c, 1, 71, 0
1, 26388, Note_off_c, 1, 62, 0
1, 26400, Note_on_c, 1, 72, 127
1, 26400, Note_on_c, 1, 56, 127
1, 26424, Note_off_c, 1, 72, 0
1, 26430, Note_on_c, 1, 74, 127
1, 26448, Note_off_c, 1, 56, 0
1, 26454, Note_off_c, 1, 74, 0
1, 26460, Note_on_c, 1, 72, 127
1, 26460, Note_on_c, 1, 57, 127
1, 26508, Note_off_c, 1, 72, 0
1, 26520, Note_on_c, 1, 71, 127
1, 26544, Note_off_c, 1, 71, 0
1, 26550, Note_on_c, 1, 69, 127
1, 26556, Note_off_c, 1, 57, 0
1, 26574, Note_off_c, 1, 69, 0
1, 26580, Note_on_c, 1, 77, 127
1, 26580, Note_on_c, 1, 50, 127
1, 26628, Note_off_c, 1, 77, 0
1, 26640, Note_on_c, 1, 76, 127
1, 26676, Note_off_c, 1, 50, 0
1, 26688, Note_off_c, 1, 76, 0
1, 26700, Note_on_c, 1, 74, 127
1, 26700, Note_on_c, 1, 52, 127
1, 26748, Note_off_c, 1, 74, 0
1, 26760, Note_on_c, 1, 72, 127
1, 26796, Note_off_c, 1, 52, 0
1, 26808, Note_off_c, 1, 72, 0
1, 26820, Note_on_c, 1, 71, 127
1, 26820, Note_on_c, 1, 40, 127
1, 26868, Note_off_c, 1, 71, 0
1, 26880, Note_on_c, 1, 69, 127
1, 26916, Note_off_c, 1, 40, 0
1, 26928, Note_off_c, 1, 69, 0
1, 26940, Note_on_c, 1, 64, 127
1, 26940, Note_on_c, 1, 69, 127
1, 26940, Note_on_c, 1, 60, 127
1, 26940, Note_on_c, 1, 45, 127
1, 26988, Note_off_c, 1, 45, 0
1, 27000, Note_on_c, 1, 52, 127
1, 27036, Note_off_c, 1, 64, 0
1, 27036, Note_off_c, 1, 69, 0
1, 27048, Note_off_c, 1, 52, 0
1, 27060, Note_on_c, 1, 57, 127
1, 27084, Note_off_c, 1, 60, 0
1, 27120, Note_on_c, 1, 59, 127
1, 27168, Note_off_c, 1, 59, 0
1, 27180, Note_on_c, 1, 61, 127
1, 27228, Note_off_c, 1, 57, 0
1, 27228, Note_off_c, 1, 61, 0
1, 27240, Note_on_c, 1, 62, 127
1, 27240, Note_on_c, 1, 57, 127
1, 27288, Note_off_c, 1, 62, 0
1, 27288, Note_off_c, 1, 57, 0
1, 27300, Note_on_c, 1, 64, 127
1, 27300, Note_on_c, 1, 55, 127
1, 27348, Note_off_c, 1, 64, 0
1, 27348, Note_off_c, 1, 55, 0
1, 27360, Note_on_c, 1, 66, 127
1, 27360, Note_on_c, 1, 54, 127
1, 27408, Note_off_c, 1, 66, 0
1, 27408, Note_off_c, 1, 54, 0
1, 27420, Note_on_c, 1, 67, 127
1, 27420, Note_on_c, 1, 52, 127
1, 27468, Note_off_c, 1, 67, 0
1, 27468, Note_off_c, 1, 52, 0
1, 27480, Note_on_c, 1, 64, 127
1, 27480, Note_on_c, 1, 55, 127
1, 27528, Note_off_c, 1, 64, 0
1, 27528, Note_off_c, 1, 55, 0
1, 27540, Note_on_c, 1, 67, 127
1, 27540, Note_on_c, 1, 52, 127
1, 27588, Note_off_c, 1, 67, 0
1, 27588, Note_off_c, 1, 52, 0
1, 27600, Note_on_c, 1, 69, 127
1, 27600, Note_on_c, 1, 49, 127
1, 27648, Note_off_c, 1, 69, 0
1, 27648, Note_off_c, 1, 49, 0
1, 27660, Note_on_c, 1, 73, 127
1, 27660, Note_on_c, 1, 45, 127
1, 27708, Note_off_c, 1, 73, 0
1, 27708, Note_off_c, 1, 45, 0
1, 27720, Note_on_c, 1, 76, 127
1, 27720, Note_on_c, 1, 49, 127
1, 27768, Note_off_c, 1, 76, 0
1, 27768, Note_off_c, 1, 49, 0
1, 27780, Note_on_c, 1, 79, 127
1, 27780, Note_on_c, 1, 47, 127
1, 27828, Note_off_c, 1, 79, 0
1, 27828, Note_off_c, 1, 47, 0
1, 27840, Note_on_c, 1, 78, 127
1, 27840, Note_on_c, 1, 45, 127
1, 27888, Note_off_c, 1, 78, 0
1, 27888, Note_off_c, 1, 45, 0
1, 27900, Note_on_c, 1, 78, 127
1, 27900, Note_on_c, 1, 50, 127
1, 27948, Note_off_c, 1, 78, 0
1, 27960, Note_on_c, 1, 76, 127
1, 28008, Note_off_c, 1, 76, 0
1, 28020, Note_on_c, 1, 74, 127
1, 28044, Note_off_c, 1, 50, 0
1, 28080, Note_on_c, 1, 52, 127
1, 28128, Note_off_c, 1, 52, 0
1, 28140, Note_on_c, 1, 54, 127
1, 28188, Note_off_c, 1, 74, 0
1, 28188, Note_off_c, 1, 54, 0
1, 28200, Note_on_c, 1, 76, 127
1, 28200, Note_on_c, 1, 55, 127
1, 28248, Note_off_c, 1, 76, 0
1, 28248, Note_off_c, 1, 55, 0
1, 28260, Note_on_c, 1, 78, 127
1, 28260, Note_on_c, 1, 57, 127
1, 28308, Note_off_c, 1, 78, 0
1, 28308, Note_off_c, 1, 57, 0
1, 28320, Note_on_c, 1, 79, 127
1, 28320, Note_on_c, 1, 59, 127
1, 28368, Note_off_c, 1, 79, 0
1, 28368, Note_off_c, 1, 59, 0
1, 28380, Note_on_c, 1, 81, 127
1, 28380, Note_on_c, 1, 60, 127
1, 28428, Note_off_c, 1, 81, 0
1, 28428, Note_off_c, 1, 60, 0
1, 28440, Note_on_c, 1, 83, 127
1, 28440, Note_on_c, 1, 54, 127
1, 28464, Note_off_c, 1, 83, 0
1, 28470, Note_on_c, 1, 84, 127
1, 28488, Note_off_c, 1, 54, 0
1, 28494, Note_off_c, 1, 84, 0
1, 28500, Note_on_c, 1, 78, 127
1, 28500, Note_on_c, 1, 57, 127
1, 28548, Note_off_c, 1, 78, 0
1, 28548, Note_off_c, 1, 57, 0
1, 28560, Note_on_c, 1, 79, 127
1, 28560, Note_on_c, 1, 60, 127
1, 28584, Note_off_c, 1, 79, 0
1, 28590, Note_on_c, 1, 81, 127
1, 28608, Note_off_c, 1, 60, 0
1, 28614, Note_off_c, 1, 81, 0
1, 28620, Note_on_c, 1, 74, 127
1, 28620, Note_on_c, 1, 64, 127
1, 28668, Note_off_c, 1, 64, 0
1, 28680, Note_on_c, 1, 62, 127
1, 28716, Note_off_c, 1, 74, 0
1, 28728, Note_off_c, 1, 62, 0
1, 28740, Note_on_c, 1, 74, 127
1, 28740, Note_on_c, 1, 67, 127
1, 28752, Note_off_c, 1, 74, 0
1, 28755, Note_on_c, 1, 72, 127
1, 28767, Note_off_c, 1, 72, 0
1, 28788, Note_off_c, 1, 67, 0
1, 28800, Note_on_c, 1, 71, 127
1, 28800, Note_on_c, 1, 66, 127
1, 28824, Note_off_c, 1, 71, 0
1, 28830, Note_on_c, 1, 72, 127
1, 28848, Note_off_c, 1, 66, 0
1, 28854, Note_off_c, 1, 72, 0
1, 28860, Note_on_c, 1, 71, 127
1, 28860, Note_on_c, 1, 67, 127
1, 28908, Note_off_c, 1, 71, 0
1, 28920, Note_on_c, 1, 74, 127
1, 28968, Note_off_c, 1, 74, 0
1, 28980, Note_on_c, 1, 76, 127
1, 29004, Note_off_c, 1, 67, 0
1, 29028, Note_off_c, 1, 76, 0
1, 29040, Note_on_c, 1, 78, 127
1, 29040, Note_on_c, 1, 66, 127
1, 29088, Note_off_c, 1, 78, 0
1, 29088, Note_off_c, 1, 66, 0
1, 29100, Note_on_c, 1, 79, 127
1, 29100, Note_on_c, 1, 64, 127
1, 29148, Note_off_c, 1, 64, 0
1, 29160, Note_on_c, 1, 62, 127
1, 29208, Note_off_c, 1, 62, 0
1, 29220, Note_on_c, 1, 60, 127
1, 29244, Note_off_c, 1, 79, 0
1, 29268, Note_off_c, 1, 60, 0
1, 29280, Note_on_c, 1, 79, 127
1, 29280, Note_on_c, 1, 59, 127
1, 29328, Note_off_c, 1, 79, 0
1, 29328, Note_off_c, 1, 59, 0
1, 29340, Note_on_c, 1, 79, 127
1, 29340, Note_on_c, 1, 57, 127
1, 29388, Note_off_c, 1, 79, 0
1, 29388, Note_off_c, 1, 57, 0
1, 29400, Note_on_c, 1, 78, 127
1, 29400, Note_on_c, 1, 59, 127
1, 29448, Note_off_c, 1, 78, 0
1, 29448, Note_off_c, 1, 59, 0
1, 29460, Note_on_c, 1, 81, 127
1, 29460, Note_on_c, 1, 60, 127
1, 29508, Note_off_c, 1, 81, 0
1, 29508, Note_off_c, 1, 60, 0
1, 29520, Note_on_c, 1, 79, 127
1, 29520, Note_on_c, 1, 59, 127
1, 29568, Note_off_c, 1, 79, 0
1, 29568, Note_off_c, 1, 59, 0
1, 29580, Note_on_c, 1, 78, 127
1, 29580, Note_on_c, 1, 57, 127
1, 29628, Note_off_c, 1, 78, 0
1, 29628, Note_off_c, 1, 57, 0
1, 29640, Note_on_c, 1, 76, 127
1, 29640, Note_on_c, 1, 55, 127
1, 29688, Note_off_c, 1, 76, 0
1, 29688, Note_off_c, 1, 55, 0
1, 29700, Note_on_c, 1, 75, 127
1, 29700, Note_on_c, 1, 54, 127
1, 29748, Note_off_c, 1, 75, 0
1, 29748, Note_off_c, 1, 54, 0
1, 29760, Note_on_c, 1, 76, 127
1, 29760, Note_on_c, 1, 52, 127
1, 29808, Note_off_c, 1, 76, 0
1, 29808, Note_off_c, 1, 52, 0
1, 29820, Note_on_c, 1, 67, 127
1, 29820, Note_on_c, 1, 59, 127
1, 29832, Note_off_c, 1, 67, 0
1, 29835, Note_on_c, 1, 66, 127
1, 29847, Note_off_c, 1, 66, 0
1, 29880, Note_on_c, 1, 64, 127
1, 29928, Note_off_c, 1, 64, 0
1, 29964, Note_off_c, 1, 59, 0
1, 30000, Note_on_c, 1, 76, 127
1, 30000, Note_on_c, 1, 60, 127
1, 30048, Note_off_c, 1, 76, 0
1, 30048, Note_off_c, 1, 60, 0
1, 30060, Note_on_c, 1, 75, 127
1, 30060, Note_on_c, 1, 59, 127
1, 30108, Note_off_c, 1, 75, 0
1, 30108, Note_off_c, 1, 59, 0
1, 30120, Note_on_c, 1, 73, 127
1, 30120, Note_on_c, 1, 57, 127
1, 30168, Note_off_c, 1, 73, 0
1, 30168, Note_off_c, 1, 57, 0
1, 30180, Note_on_c, 1, 75, 127
1, 30180, Note_on_c, 1, 59, 127
1, 30228, Note_off_c, 1, 75, 0
1, 30228, Note_off_c, 1, 59, 0
1, 30240, Note_on_c, 1, 78, 127
1, 30240, Note_on_c, 1, 60, 127
1, 30288, Note_off_c, 1, 78, 0
1, 30288, Note_off_c, 1, 60, 0
1, 30300, Note_on_c, 1, 71, 127
1, 30300, Note_on_c, 1, 54, 127
1, 30312, Note_off_c, 1, 71, 0
1, 30315, Note_on_c, 1, 69, 127
1, 30327, Note_off_c, 1, 69, 0
1, 30360, Note_on_c, 1, 67, 127
1, 30408, Note_off_c, 1, 67, 0
1, 30444, Note_off_c, 1, 54, 0
1, 30480, Note_on_c, 1, 76, 127
1, 30480, Note_on_c, 1, 55, 127
1, 30528, Note_off_c, 1, 76, 0
1, 30528, Note_off_c, 1, 55, 0
1, 30540, Note_on_c, 1, 75, 127
1, 30540, Note_on_c, 1, 54, 127
1, 30588, Note_off_c, 1, 75, 0
1, 30588, Note_off_c, 1, 54, 0
1, 30600, Note_on_c, 1, 73, 127
1, 30600, Note_on_c, 1, 52, 127
1, 30648, Note_off_c, 1, 73, 0
1, 30648, Note_off_c, 1, 52, 0
1, 30660, Note_on_c, 1, 75, 127
1, 30660, Note_on_c, 1, 54, 127
1, 30708, Note_off_c, 1, 75, 0
1, 30708, Note_off_c, 1, 54, 0
1, 30720, Note_on_c, 1, 78, 127
1, 30720, Note_on_c, 1, 57, 127
1, 30768, Note_off_c, 1, 78, 0
1, 30777, Note_off_c, 1, 57, 0
1, 30780, Note_on_c, 1, 74, 127
1, 30780, Note_on_c, 1, 51, 127
1, 30792, Note_off_c, 1, 74, 0
1, 30795, Note_on_c, 1, 72, 127
1, 30807, Note_off_c, 1, 72, 0
1, 30840, Note_on_c, 1, 71, 127
1, 30888, Note_off_c, 1, 71, 0
1, 30924, Note_off_c, 1, 51, 0
1, 30960, Note_on_c, 1, 76, 127
1, 30960, Note_on_c, 1, 52, 127
1, 31008, Note_off_c, 1, 76, 0
1, 31008, Note_off_c, 1, 52, 0
1, 31020, Note_on_c, 1, 75, 127
1, 31020, Note_on_c, 1, 54, 127
1, 31068, Note_off_c, 1, 75, 0
1, 31068, Note_off_c, 1, 54, 0
1, 31080, Note_on_c, 1, 73, 127
1, 31080, Note_on_c, 1, 55, 127
1, 31128, Note_off_c, 1, 73, 0
1, 31128, Note_off_c, 1, 55, 0
1, 31140, Note_on_c, 1, 75, 127
1, 31140, Note_on_c, 1, 54, 127
1, 31188, Note_off_c, 1, 75, 0
1, 31188, Note_off_c, 1, 54, 0
1, 31200, Note_on_c, 1, 78, 127
1, 31200, Note_on_c, 1, 55, 127
1, 31248, Note_off_c, 1, 78, 0
1, 31248, Note_off_c, 1, 55, 0
1, 31260, Note_on_c, 1, 71, 127
1, 31260, Note_on_c, 1, 57, 127
1, 31308, Note_off_c, 1, 57, 0
1, 31320, Note_on_c, 1, 60, 127
1, 31368, Note_off_c, 1, 60, 0
1, 31380, Note_on_c, 1, 59, 127
1, 31428, Note_off_c, 1, 59, 0
1, 31440, Note_on_c, 1, 75, 127
1, 31488, Note_off_c, 1, 75, 0
1, 31500, Note_on_c, 1, 76, 127
1, 31500, Note_on_c, 1, 55, 127
1, 31548, Note_off_c, 1, 76, 0
1, 31548, Note_off_c, 1, 55, 0
1, 31560, Note_on_c, 1, 78, 127
1, 31560, Note_on_c, 1, 54, 127
1, 31608, Note_off_c, 1, 78, 0
1, 31608, Note_off_c, 1, 54, 0
1, 31620, Note_on_c, 1, 79, 127
1, 31620, Note_on_c, 1, 52, 127
1, 31644, Note_off_c, 1, 71, 0
1, 31668, Note_off_c, 1, 52, 0
1, 31680, Note_on_c, 1, 50, 127
1, 31728, Note_off_c, 1, 50, 0
1, 31740, Note_on_c, 1, 49, 127
1, 31788, Note_off_c, 1, 79, 0
1, 31788, Note_off_c, 1, 49, 0
1, 31860, Note_on_c, 1, 58, 127
1, 31908, Note_off_c, 1, 58, 0
1, 31920, Note_on_c, 1, 76, 127
1, 31920, Note_on_c, 1, 74, 127
1, 31920, Note_on_c, 1, 64, 127
1, 31968, Note_off_c, 1, 76, 0
1, 31968, Note_off_c, 1, 74, 0
1, 31968, Note_off_c, 1, 64, 0
1, 31980, Note_on_c, 1, 72, 127
1, 31980, Note_on_c, 1, 81, 127
1, 31980, Note_on_c, 1, 78, 127
1, 31980, Note_on_c, 1, 64, 127
1, 32028, Note_off_c, 1, 64, 0
1, 32040, Note_on_c, 1, 63, 127
1, 32088, Note_off_c, 1, 63, 0
1, 32124, Note_off_c, 1, 72, 0
1, 32124, Note_off_c, 1, 81, 0
1, 32124, Note_off_c, 1, 78, 0
1, 32160, Note_on_c, 1, 81, 127
1, 32160, Note_on_c, 1, 61, 127
1, 32208, Note_off_c, 1, 81, 0
1, 32208, Note_off_c, 1, 61, 0
1, 32220, Note_on_c, 1, 78, 127
1, 32220, Note_on_c, 1, 81, 127
1, 32220, Note_on_c, 1, 71, 127
1, 32220, Note_on_c, 1, 63, 127
1, 32268, Note_off_c, 1, 78, 0
1, 32268, Note_off_c, 1, 81, 0
1, 32268, Note_off_c, 1, 71, 0
1, 32280, Note_on_c, 1, 84, 127
1, 32316, Note_off_c, 1, 63, 0
1, 32328, Note_off_c, 1, 84, 0
1, 32340, Note_on_c, 1, 83, 127
1, 32340, Note_on_c, 1, 59, 127
1, 32388, Note_off_c, 1, 83, 0
1, 32400, Note_on_c, 1, 81, 127
1, 32436, Note_off_c, 1, 59, 0
1, 32448, Note_off_c, 1, 81, 0
1, 32460, Note_on_c, 1, 79, 127
1, 32508, Note_off_c, 1, 79, 0
1, 32520, Note_on_c, 1, 78, 127
1, 32520, Note_on_c, 1, 64, 127
1, 32568, Note_off_c, 1, 78, 0
1, 32568, Note_off_c, 1, 64, 0
1, 32580, Note_on_c, 1, 76, 127
1, 32580, Note_on_c, 1, 66, 127
1, 32628, Note_off_c, 1, 76, 0
1, 32628, Note_off_c, 1, 66, 0
1, 32640, Note_on_c, 1, 74, 127
1, 32640, Note_on_c, 1, 67, 127
1, 32688, Note_off_c, 1, 74, 0
1, 32688, Note_off_c, 1, 67, 0
1, 32700, Note_on_c, 1, 72, 127
1, 32700, Note_on_c, 1, 69, 127
1, 32748, Note_off_c, 1, 72, 0
1, 32760, Note_on_c, 1, 83, 127
1, 32808, Note_off_c, 1, 83, 0
1, 32820, Note_on_c, 1, 81, 127
1, 32844, Note_off_c, 1, 69, 0
1, 32868, Note_off_c, 1, 81, 0
1, 32880, Note_on_c, 1, 84, 127
1, 32880, Note_on_c, 1, 67, 127
1, 32928, Note_off_c, 1, 84, 0
1, 32928, Note_off_c, 1, 67, 0
1, 32940, Note_on_c, 1, 76, 127
1, 32940, Note_on_c, 1, 66, 127
1, 32988, Note_off_c, 1, 76, 0
1, 32988, Note_off_c, 1, 66, 0
1, 33000, Note_on_c, 1, 75, 127
1, 33000, Note_on_c, 1, 59, 127
1, 33048, Note_off_c, 1, 75, 0
1, 33048, Note_off_c, 1, 59, 0
1, 33060, Note_on_c, 1, 73, 127
1, 33060, Note_on_c, 1, 61, 127
1, 33108, Note_off_c, 1, 73, 0
1, 33108, Note_off_c, 1, 61, 0
1, 33120, Note_on_c, 1, 71, 127
1, 33120, Note_on_c, 1, 63, 127
1, 33168, Note_off_c, 1, 71, 0
1, 33168, Note_off_c, 1, 63, 0
1, 33180, Note_on_c, 1, 71, 127
1, 33180, Note_on_c, 1, 76, 127
1, 33180, Note_on_c, 1, 79, 127
1, 33180, Note_on_c, 1, 64, 127
1, 33276, Note_off_c, 1, 71, 0
1, 33276, Note_off_c, 1, 76, 0
1, 33300, Note_on_c, 1, 57, 127
1, 33324, Note_off_c, 1, 79, 0
1, 33360, Note_on_c, 1, 81, 127
1, 33372, Note_off_c, 1, 64, 0
1, 33396, Note_off_c, 1, 57, 0
1, 33417, Note_off_c, 1, 81, 0
1, 33420, Note_on_c, 1, 79, 127
1, 33420, Note_on_c, 1, 75, 127
1, 33420, Note_on_c, 1, 59, 127
1, 33432, Note_off_c, 1, 79, 0
1, 33435, Note_on_c, 1, 78, 127
1, 33447, Note_off_c, 1, 78, 0
1, 33540, Note_on_c, 1, 47, 127
1, 33600, Note_on_c, 1, 76, 127
1, 33612, Note_off_c, 1, 75, 0
1, 33612, Note_off_c, 1, 59, 0
1, 33636, Note_off_c, 1, 47, 0
1, 33648, Note_off_c, 1, 76, 0
1, 33660, Note_on_c, 1, 76, 127
1, 33660, Note_on_c, 1, 52, 127
1, 33720, Note_on_c, 1, 54, 127
1, 33768, Note_off_c, 1, 54, 0
1, 33780, Note_on_c, 1, 56, 127
1, 33840, Note_on_c, 1, 74, 127
1, 33876, Note_off_c, 1, 56, 0
1, 33888, Note_off_c, 1, 74, 0
1, 33900, Note_on_c, 1, 72, 127
1, 33900, Note_on_c, 1, 57, 127
1, 33948, Note_off_c, 1, 72, 0
1, 33960, Note_on_c, 1, 71, 127
1, 33996, Note_off_c, 1, 57, 0
1, 34008, Note_off_c, 1, 71, 0
1, 34020, Note_on_c, 1, 69, 127
1, 34020, Note_on_c, 1, 59, 127
1, 34044, Note_off_c, 1, 76, 0
1, 34068, Note_off_c, 1, 69, 0
1, 34080, Note_on_c, 1, 67, 127
1, 34116, Note_off_c, 1, 59, 0
1, 34128, Note_off_c, 1, 67, 0
1, 34140, Note_on_c, 1, 66, 127
1, 34140, Note_on_c, 1, 60, 127
1, 34236, Note_off_c, 1, 60, 0
1, 34320, Note_on_c, 1, 75, 127
1, 34332, Note_off_c, 1, 66, 0
1, 34368, Note_off_c, 1, 75, 0
1, 34380, Note_on_c, 1, 68, 127
1, 34524, Note_off_c, 1, 52, 0
1, 34524, Note_off_c, 1, 68, 0
1, 34560, Note_on_c, 1, 78, 127
1, 34608, Note_off_c, 1, 78, 0
1, 34620, Note_on_c, 1, 78, 127
1, 34620, Note_on_c, 1, 47, 127
1, 34680, Note_on_c, 1, 75, 127
1, 34740, Note_on_c, 1, 71, 127
1, 34764, Note_off_c, 1, 47, 0
1, 34776, Note_off_c, 1, 75, 0
1, 34800, Note_on_c, 1, 49, 127
1, 34812, Note_off_c, 1, 78, 0
1, 34836, Note_off_c, 1, 71, 0
1, 34848, Note_off_c, 1, 49, 0
1, 34860, Note_on_c, 1, 51, 127
1, 34908, Note_off_c, 1, 51, 0
1, 34920, Note_on_c, 1, 79, 127
1, 34920, Note_on_c, 1, 52, 127
1, 34968, Note_off_c, 1, 79, 0
1, 34968, Note_off_c, 1, 52, 0
1, 34980, Note_on_c, 1, 78, 127
1, 34980, Note_on_c, 1, 54, 127
1, 35028, Note_off_c, 1, 78, 0
1, 35028, Note_off_c, 1, 54, 0
1, 35040, Note_on_c, 1, 76, 127
1, 35040, Note_on_c, 1, 55, 127
1, 35088, Note_off_c, 1, 76, 0
1, 35088, Note_off_c, 1, 55, 0
1, 35100, Note_on_c, 1, 75, 127
1, 35100, Note_on_c, 1, 57, 127
1, 35148, Note_off_c, 1, 57, 0
1, 35160, Note_on_c, 1, 51, 127
1, 35208, Note_off_c, 1, 51, 0
1, 35220, Note_on_c, 1, 54, 127
1, 35244, Note_off_c, 1, 75, 0
1, 35268, Note_off_c, 1, 54, 0
1, 35280, Note_on_c, 1, 76, 127
1, 35280, Note_on_c, 1, 57, 127
1, 35328, Note_off_c, 1, 76, 0
1, 35328, Note_off_c, 1, 57, 0
1, 35340, Note_on_c, 1, 78, 127
1, 35340, Note_on_c, 1, 60, 127
1, 35388, Note_off_c, 1, 78, 0
1, 35388, Note_off_c, 1, 60, 0
1, 35400, Note_on_c, 1, 79, 127
1, 35400, Note_on_c, 1, 59, 127
1, 35424, Note_off_c, 1, 79, 0
1, 35430, Note_on_c, 1, 81, 127
1, 35448, Note_off_c, 1, 59, 0
1, 35454, Note_off_c, 1, 81, 0
1, 35460, Note_on_c, 1, 79, 127
1, 35460, Note_on_c, 1, 64, 127
1, 35508, Note_off_c, 1, 79, 0
1, 35508, Note_off_c, 1, 64, 0
1, 35520, Note_on_c, 1, 78, 127
1, 35520, Note_on_c, 1, 63, 127
1, 35568, Note_off_c, 1, 78, 0
1, 35568, Note_off_c, 1, 63, 0
1, 35580, Note_on_c, 1, 79, 127
1, 35580, Note_on_c, 1, 64, 127
1, 35628, Note_off_c, 1, 79, 0
1, 35640, Note_on_c, 1, 78, 127
1, 35688, Note_off_c, 1, 78, 0
1, 35700, Note_on_c, 1, 76, 127
1, 35760, Note_on_c, 1, 66, 127
1, 35808, Note_off_c, 1, 66, 0
1, 35820, Note_on_c, 1, 67, 127
1, 35868, Note_off_c, 1, 76, 0
1, 35868, Note_off_c, 1, 67, 0
1, 35880, Note_on_c, 1, 84, 127
1, 35880, Note_on_c, 1, 69, 127
1, 35928, Note_off_c, 1, 84, 0
1, 35928, Note_off_c, 1, 69, 0
1, 35940, Note_on_c, 1, 83, 127
1, 35940, Note_on_c, 1, 71, 127
1, 35988, Note_off_c, 1, 83, 0
1, 35988, Note_off_c, 1, 71, 0
1, 36000, Note_on_c, 1, 72, 127
1, 36000, Note_on_c, 1, 81, 127
1, 36048, Note_off_c, 1, 72, 0
1, 36048, Note_off_c, 1, 81, 0
1, 36060, Note_on_c, 1, 74, 127
1, 36060, Note_on_c, 1, 80, 127
1, 36108, Note_off_c, 1, 74, 0
1, 36108, Note_off_c, 1, 80, 0
1, 36204, Note_off_c, 1, 64, 0
1, 36240, Note_on_c, 1, 76, 127
1, 36240, Note_on_c, 1, 64, 127
1, 36288, Note_off_c, 1, 76, 0
1, 36288, Note_off_c, 1, 64, 0
1, 36300, Note_on_c, 1, 77, 127
1, 36300, Note_on_c, 1, 59, 127
1, 36348, Note_off_c, 1, 77, 0
1, 36348, Note_off_c, 1, 59, 0
1, 36360, Note_on_c, 1, 76, 127
1, 36360, Note_on_c, 1, 60, 127
1, 36384, Note_off_c, 1, 60, 0
1, 36390, Note_on_c, 1, 62, 127
1, 36408, Note_off_c, 1, 76, 0
1, 36414, Note_off_c, 1, 62, 0
1, 36420, Note_on_c, 1, 81, 127
1, 36420, Note_on_c, 1, 60, 127
1, 36468, Note_off_c, 1, 81, 0
1, 36468, Note_off_c, 1, 60, 0
1, 36480, Note_on_c, 1, 80, 127
1, 36480, Note_on_c, 1, 59, 127
1, 36528, Note_off_c, 1, 80, 0
1, 36528, Note_off_c, 1, 59, 0
1, 36540, Note_on_c, 1, 81, 127
1, 36540, Note_on_c, 1, 60, 127
1, 36588, Note_off_c, 1, 60, 0
1, 36600, Note_on_c, 1, 59, 127
1, 36648, Note_off_c, 1, 59, 0
1, 36660, Note_on_c, 1, 57, 127
1, 36684, Note_off_c, 1, 81, 0
1, 36708, Note_off_c, 1, 57, 0
1, 36720, Note_on_c, 1, 79, 127
1, 36720, Note_on_c, 1, 45, 127
1, 36768, Note_off_c, 1, 79, 0
1, 36768, Note_off_c, 1, 45, 0
1, 36780, Note_on_c, 1, 77, 127
1, 36780, Note_on_c, 1, 57, 127
1, 36828, Note_off_c, 1, 77, 0
1, 36828, Note_off_c, 1, 57, 0
1, 36840, Note_on_c, 1, 76, 127
1, 36840, Note_on_c, 1, 47, 127
1, 36888, Note_off_c, 1, 76, 0
1, 36888, Note_off_c, 1, 47, 0
1, 36900, Note_on_c, 1, 79, 127
1, 36900, Note_on_c, 1, 57, 127
1, 36948, Note_off_c, 1, 79, 0
1, 36948, Note_off_c, 1, 57, 0
1, 36960, Note_on_c, 1, 77, 127
1, 36960, Note_on_c, 1, 49, 127
1, 37008, Note_off_c, 1, 77, 0
1, 37008, Note_off_c, 1, 49, 0
1, 37020, Note_on_c, 1, 77, 127
1, 37020, Note_on_c, 1, 58, 127
1, 37068, Note_off_c, 1, 58, 0
1, 37080, Note_on_c, 1, 60, 127
1, 37128, Note_off_c, 1, 60, 0
1, 37164, Note_off_c, 1, 77, 0
1, 37200, Note_on_c, 1, 76, 127
1, 37200, Note_on_c, 1, 49, 127
1, 37248, Note_off_c, 1, 76, 0
1, 37248, Note_off_c, 1, 49, 0
1, 37260, Note_on_c, 1, 74, 127
1, 37260, Note_on_c, 1, 58, 127
1, 37308, Note_off_c, 1, 74, 0
1, 37308, Note_off_c, 1, 58, 0
1, 37320, Note_on_c, 1, 72, 127
1, 37320, Note_on_c, 1, 50, 127
1, 37368, Note_off_c, 1, 72, 0
1, 37368, Note_off_c, 1, 50, 0
1, 37380, Note_on_c, 1, 70, 127
1, 37380, Note_on_c, 1, 61, 127
1, 37428, Note_off_c, 1, 70, 0
1, 37428, Note_off_c, 1, 61, 0
1, 37440, Note_on_c, 1, 69, 127
1, 37440, Note_on_c, 1, 52, 127
1, 37488, Note_off_c, 1, 69, 0
1, 37488, Note_off_c, 1, 52, 0
1, 37500, Note_on_c, 1, 68, 127
1, 37500, Note_on_c, 1, 62, 127
1, 37548, Note_off_c, 1, 62, 0
1, 37560, Note_on_c, 1, 64, 127
1, 37608, Note_off_c, 1, 64, 0
1, 37644, Note_off_c, 1, 68, 0
1, 37680, Note_on_c, 1, 69, 127
1, 37680, Note_on_c, 1, 52, 127
1, 37704, Note_off_c, 1, 69, 0
1, 37710, Note_on_c, 1, 71, 127
1, 37728, Note_off_c, 1, 52, 0
1, 37734, Note_off_c, 1, 71, 0
1, 37740, Note_on_c, 1, 69, 127
1, 37740, Note_on_c, 1, 62, 127
1, 37788, Note_off_c, 1, 69, 0
1, 37788, Note_off_c, 1, 62, 0
1, 37800, Note_on_c, 1, 71, 127
1, 37800, Note_on_c, 1, 54, 127
1, 37824, Note_off_c, 1, 71, 0
1, 37830, Note_on_c, 1, 72, 127
1, 37848, Note_off_c, 1, 54, 0
1, 37854, Note_off_c, 1, 72, 0
1, 37860, Note_on_c, 1, 71, 127
1, 37860, Note_on_c, 1, 62, 127
1, 37908, Note_off_c, 1, 71, 0
1, 37908, Note_off_c, 1, 62, 0
1, 37920, Note_on_c, 1, 72, 127
1, 37920, Note_on_c, 1, 56, 127
1, 37944, Note_off_c, 1, 72, 0
1, 37950, Note_on_c, 1, 74, 127
1, 37968, Note_off_c, 1, 56, 0
1, 37974, Note_off_c, 1, 74, 0
1, 37980, Note_on_c, 1, 72, 127
1, 37980, Note_on_c, 1, 57, 127
1, 38028, Note_off_c, 1, 72, 0
1, 38040, Note_on_c, 1, 71, 127
1, 38064, Note_off_c, 1, 71, 0
1, 38070, Note_on_c, 1, 69, 127
1, 38076, Note_off_c, 1, 57, 0
1, 38094, Note_off_c, 1, 69, 0
1, 38100, Note_on_c, 1, 77, 127
1, 38100, Note_on_c, 1, 50, 127
1, 38148, Note_off_c, 1, 77, 0
1, 38160, Note_on_c, 1, 76, 127
1, 38196, Note_off_c, 1, 50, 0
1, 38208, Note_off_c, 1, 76, 0
1, 38220, Note_on_c, 1, 74, 127
1, 38220, Note_on_c, 1, 52, 127
1, 38268, Note_off_c, 1, 74, 0
1, 38280, Note_on_c, 1, 72, 127
1, 38316, Note_off_c, 1, 52, 0
1, 38328, Note_off_c, 1, 72, 0
1, 38340, Note_on_c, 1, 71, 127
1, 38340, Note_on_c, 1, 40, 127
1, 38388, Note_off_c, 1, 71, 0
1, 38400, Note_on_c, 1, 69, 127
1, 38436, Note_off_c, 1, 40, 0
1, 38448, Note_off_c, 1, 69, 0
1, 38460, Note_on_c, 1, 64, 127
1, 38460, Note_on_c, 1, 69, 127
1, 38460, Note_on_c, 1, 60, 127
1, 38460, Note_on_c, 1, 45, 127
1, 38508, Note_off_c, 1, 45, 0
1, 38520, Note_on_c, 1, 52, 127
1, 38556, Note_off_c, 1, 64, 0
1, 38556, Note_off_c, 1, 69, 0
1, 38568, Note_off_c, 1, 52, 0
1, 38580, Note_on_c, 1, 57, 127
1, 38604, Note_off_c, 1, 60, 0
1, 38640, Note_on_c, 1, 59, 127
1, 38688, Note_off_c, 1, 59, 0
1, 38700, Note_on_c, 1, 61, 127
1, 38748, Note_off_c, 1, 57, 0
1, 38748, Note_off_c, 1, 61, 0
1, 38760, Note_on_c, 1, 62, 127
1, 38760, Note_on_c, 1, 57, 127
1, 38808, Note_off_c, 1, 62, 0
1, 38808, Note_off_c, 1, 57, 0
1, 38820, Note_on_c, 1, 64, 127
1, 38820, Note_on_c, 1, 55, 127
1, 38868, Note_off_c, 1, 64, 0
1, 38868, Note_off_c, 1, 55, 0
1, 38880, Note_on_c, 1, 66, 127
1, 38880, Note_on_c, 1, 54, 127
1, 38928, Note_off_c, 1, 66, 0
1, 38928, Note_off_c, 1, 54, 0
1, 38940, Note_on_c, 1, 67, 127
1, 38940, Note_on_c, 1, 52, 127
1, 38988, Note_off_c, 1, 67, 0
1, 38988, Note_off_c, 1, 52, 0
1, 39000, Note_on_c, 1, 64, 127
1, 39000, Note_on_c, 1, 55, 127
1, 39048, Note_off_c, 1, 64, 0
1, 39048, Note_off_c, 1, 55, 0
1, 39060, Note_on_c, 1, 67, 127
1, 39060, Note_on_c, 1, 52, 127
1, 39108, Note_off_c, 1, 67, 0
1, 39108, Note_off_c, 1, 52, 0
1, 39120, Note_on_c, 1, 69, 127
1, 39120, Note_on_c, 1, 49, 127
1, 39168, Note_off_c, 1, 69, 0
1, 39168, Note_off_c, 1, 49, 0
1, 39180, Note_on_c, 1, 73, 127
1, 39180, Note_on_c, 1, 45, 127
1, 39228, Note_off_c, 1, 73, 0
1, 39228, Note_off_c, 1, 45, 0
1, 39240, Note_on_c, 1, 76, 127
1, 39240, Note_on_c, 1, 49, 127
1, 39288, Note_off_c, 1, 76, 0
1, 39288, Note_off_c, 1, 49, 0
1, 39300, Note_on_c, 1, 79, 127
1, 39300, Note_on_c, 1, 47, 127
1, 39348, Note_off_c, 1, 79, 0
1, 39348, Note_off_c, 1, 47, 0
1, 39360, Note_on_c, 1, 78, 127
1, 39360, Note_on_c, 1, 45, 127
1, 39408, Note_off_c, 1, 78, 0
1, 39408, Note_off_c, 1, 45, 0
1, 39420, Note_on_c, 1, 78, 127
1, 39420, Note_on_c, 1, 50, 127
1, 39468, Note_off_c, 1, 78, 0
1, 39480, Note_on_c, 1, 76, 127
1, 39528, Note_off_c, 1, 76, 0
1, 39540, Note_on_c, 1, 74, 127
1, 39564, Note_off_c, 1, 50, 0
1, 39600, Note_on_c, 1, 52, 127
1, 39648, Note_off_c, 1, 52, 0
1, 39660, Note_on_c, 1, 54, 127
1, 39708, Note_off_c, 1, 74, 0
1, 39708, Note_off_c, 1, 54, 0
1, 39720, Note_on_c, 1, 76, 127
1, 39720, Note_on_c, 1, 55, 127
1, 39768, Note_off_c, 1, 76, 0
1, 39768, Note_off_c, 1, 55, 0
1, 39780, Note_on_c, 1, 78, 127
1, 39780, Note_on_c, 1, 57, 127
1, 39828, Note_off_c, 1, 78, 0
1, 39828, Note_off_c, 1, 57, 0
1, 39840, Note_on_c, 1, 79, 127
1, 39840, Note_on_c, 1, 59, 127
1, 39888, Note_off_c, 1, 79, 0
1, 39888, Note_off_c, 1, 59, 0
1, 39900, Note_on_c, 1, 81, 127
1, 39900, Note_on_c, 1, 60, 127
1, 39948, Note_off_c, 1, 81, 0
1, 39948, Note_off_c, 1, 60, 0
1, 39960, Note_on_c, 1, 83, 127
1, 39960, Note_on_c, 1, 54, 127
1, 39984, Note_off_c, 1, 83, 0
1, 39990, Note_on_c, 1, 84, 127
1, 40008, Note_off_c, 1, 54, 0
1, 40014, Note_off_c, 1, 84, 0
1, 40020, Note_on_c, 1, 78, 127
1, 40020, Note_on_c, 1, 57, 127
1, 40068, Note_off_c, 1, 78, 0
1, 40068, Note_off_c, 1, 57, 0
1, 40080, Note_on_c, 1, 79, 127
1, 40080, Note_on_c, 1, 60, 127
1, 40104, Note_off_c, 1, 79, 0
1, 40110, Note_on_c, 1, 81, 127
1, 40128, Note_off_c, 1, 60, 0
1, 40134, Note_off_c, 1, 81, 0
1, 40140, Note_on_c, 1, 74, 127
1, 40140, Note_on_c, 1, 64, 127
1, 40188, Note_off_c, 1, 64, 0
1, 40200, Note_on_c, 1, 62, 127
1, 40236, Note_off_c, 1, 74, 0
1, 40248, Note_off_c, 1, 62, 0
1, 40260, Note_on_c, 1, 74, 127
1, 40260, Note_on_c, 1, 67, 127
1, 40272, Note_off_c, 1, 74, 0
1, 40275, Note_on_c, 1, 72, 127
1, 40287, Note_off_c, 1, 72, 0
1, 40308, Note_off_c, 1, 67, 0
1, 40320, Note_on_c, 1, 71, 127
1, 40320, Note_on_c, 1, 66, 127
1, 40344, Note_off_c, 1, 71, 0
1, 40350, Note_on_c, 1, 72, 127
1, 40368, Note_off_c, 1, 66, 0
1, 40374, Note_off_c, 1, 72, 0
1, 40380, Note_on_c, 1, 71, 127
1, 40380, Note_on_c, 1, 67, 127
1, 40428, Note_off_c, 1, 71, 0
1, 40440, Note_on_c, 1, 74, 127
1, 40488, Note_off_c, 1, 74, 0
1, 40500, Note_on_c, 1, 76, 127
1, 40524, Note_off_c, 1, 67, 0
1, 40548, Note_off_c, 1, 76, 0
1, 40560, Note_on_c, 1, 78, 127
1, 40560, Note_on_c, 1, 66, 127
1, 40608, Note_off_c, 1, 78, 0
1, 40608, Note_off_c, 1, 66, 0
1, 40620, Note_on_c, 1, 79, 127
1, 40620, Note_on_c, 1, 64, 127
1, 40668, Note_off_c, 1, 64, 0
1, 40680, Note_on_c, 1, 62, 127
1, 40728, Note_off_c, 1, 62, 0
1, 40740, Note_on_c, 1, 60, 127
1, 40764, Note_off_c, 1, 79, 0
1, 40788, Note_off_c, 1, 60, 0
1, 40800, Note_on_c, 1, 79, 127
1, 40800, Note_on_c, 1, 59, 127
1, 40848, Note_off_c, 1, 79, 0
1, 40848, Note_off_c, 1, 59, 0
1, 40860, Note_on_c, 1, 79, 127
1, 40860, Note_on_c, 1, 57, 127
1, 40908, Note_off_c, 1, 79, 0
1, 40908, Note_off_c, 1, 57, 0
1, 40920, Note_on_c, 1, 78, 127
1, 40920, Note_on_c, 1, 59, 127
1, 40968, Note_off_c, 1, 78, 0
1, 40968, Note_off_c, 1, 59, 0
1, 40980, Note_on_c, 1, 81, 127
1, 40980, Note_on_c, 1, 60, 127
1, 41028, Note_off_c, 1, 81, 0
1, 41028, Note_off_c, 1, 60, 0
1, 41040, Note_on_c, 1, 79, 127
1, 41040, Note_on_c, 1, 59, 127
1, 41088, Note_off_c, 1, 79, 0
1, 41088, Note_off_c, 1, 59, 0
1, 41100, Note_on_c, 1, 78, 127
1, 41100, Note_on_c, 1, 57, 127
1, 41148, Note_off_c, 1, 78, 0
1, 41148, Note_off_c, 1, 57, 0
1, 41160, Note_on_c, 1, 76, 127
1, 41160, Note_on_c, 1, 55, 127
1, 41208, Note_off_c, 1, 76, 0
1, 41208, Note_off_c, 1, 55, 0
1, 41220, Note_on_c, 1, 75, 127
1, 41220, Note_on_c, 1, 54, 127
1, 41268, Note_off_c, 1, 75, 0
1, 41268, Note_off_c, 1, 54, 0
1, 41280, Note_on_c, 1, 76, 127
1, 41280, Note_on_c, 1, 52, 127
1, 41328, Note_off_c, 1, 76, 0
1, 41328, Note_off_c, 1, 52, 0
1, 41340, Note_on_c, 1, 67, 127
1, 41340, Note_on_c, 1, 59, 127
1, 41352, Note_off_c, 1, 67, 0
1, 41355, Note_on_c, 1, 66, 127
1, 41367, Note_off_c, 1, 66, 0
1, 41400, Note_on_c, 1, 64, 127
1, 41448, Note_off_c, 1, 64, 0
1, 41484, Note_off_c, 1, 59, 0
1, 41520, Note_on_c, 1, 76, 127
1, 41520, Note_on_c, 1, 60, 127
1, 41568, Note_off_c, 1, 76, 0
1, 41568, Note_off_c, 1, 60, 0
1, 41580, Note_on_c, 1, 75, 127
1, 41580, Note_on_c, 1, 59, 127
1, 41628, Note_off_c, 1, 75, 0
1, 41628, Note_off_c, 1, 59, 0
1, 41640, Note_on_c, 1, 73, 127
1, 41640, Note_on_c, 1, 57, 127
1, 41688, Note_off_c, 1, 73, 0
1, 41688, Note_off_c, 1, 57, 0
1, 41700, Note_on_c, 1, 75, 127
1, 41700, Note_on_c, 1, 59, 127
1, 41748, Note_off_c, 1, 75, 0
1, 41748, Note_off_c, 1, 59, 0
1, 41760, Note_on_c, 1, 78, 127
1, 41760, Note_on_c, 1, 60, 127
1, 41808, Note_off_c, 1, 78, 0
1, 41808, Note_off_c, 1, 60, 0
1, 41820, Note_on_c, 1, 71, 127
1, 41820, Note_on_c, 1, 54, 127
1, 41832, Note_off_c, 1, 71, 0
1, 41835, Note_on_c, 1, 69, 127
1, 41847, Note_off_c, 1, 69, 0
1, 41880, Note_on_c, 1, 67, 127
1, 41928, Note_off_c, 1, 67, 0
1, 41964, Note_off_c, 1, 54, 0
1, 42000, Note_on_c, 1, 76, 127
1, 42000, Note_on_c, 1, 55, 127
1, 42048, Note_off_c, 1, 76, 0
1, 42048, Note_off_c, 1, 55, 0
1, 42060, Note_on_c, 1, 75, 127
1, 42060, Note_on_c, 1, 54, 127
1, 42108, Note_off_c, 1, 75, 0
1, 42108, Note_off_c, 1, 54, 0
1, 42120, Note_on_c, 1, 73, 127
1, 42120, Note_on_c, 1, 52, 127
1, 42168, Note_off_c, 1, 73, 0
1, 42168, Note_off_c, 1, 52, 0
1, 42180, Note_on_c, 1, 75, 127
1, 42180, Note_on_c, 1, 54, 127
1, 42228, Note_off_c, 1, 75, 0
1, 42228, Note_off_c, 1, 54, 0
1, 42240, Note_on_c, 1, 78, 127
1, 42240, Note_on_c, 1, 57, 127
1, 42288, Note_off_c, 1, 78, 0
1, 42297, Note_off_c, 1, 57, 0
1, 42300, Note_on_c, 1, 74, 127
1, 42300, Note_on_c, 1, 51, 127
1, 42312, Note_off_c, 1, 74, 0
1, 42315, Note_on_c, 1, 72, 127
1, 42327, Note_off_c, 1, 72, 0
1, 42360, Note_on_c, 1, 71, 127
1, 42408, Note_off_c, 1, 71, 0
1, 42444, Note_off_c, 1, 51, 0
1, 42480, Note_on_c, 1, 76, 127
1, 42480, Note_on_c, 1, 52, 127
1, 42528, Note_off_c, 1, 76, 0
1, 42528, Note_off_c, 1, 52, 0
1, 42540, Note_on_c, 1, 75, 127
1, 42540, Note_on_c, 1, 54, 127
1, 42588, Note_off_c, 1, 75, 0
1, 42588, Note_off_c, 1, 54, 0
1, 42600, Note_on_c, 1, 73, 127
1, 42600, Note_on_c, 1, 55, 127
1, 42648, Note_off_c, 1, 73, 0
1, 42648, Note_off_c, 1, 55, 0
1, 42660, Note_on_c, 1, 75, 127
1, 42660, Note_on_c, 1, 54, 127
1, 42708, Note_off_c, 1, 75, 0
1, 42708, Note_off_c, 1, 54, 0
1, 42720, Note_on_c, 1, 78, 127
1, 42720, Note_on_c, 1, 55, 127
1, 42768, Note_off_c, 1, 78, 0
1, 42768, Note_off_c, 1, 55, 0
1, 42780, Note_on_c, 1, 71, 127
1, 42780, Note_on_c, 1, 57, 127
1, 42828, Note_off_c, 1, 57, 0
1, 42840, Note_on_c, 1, 60, 127
1, 42888, Note_off_c, 1, 60, 0
1, 42900, Note_on_c, 1, 59, 127
1, 42948, Note_off_c, 1, 59, 0
1, 42960, Note_on_c, 1, 75, 127
1, 43008, Note_off_c, 1, 75, 0
1, 43020, Note_on_c, 1, 76, 127
1, 43020, Note_on_c, 1, 55, 127
1, 43068, Note_off_c, 1, 76, 0
1, 43068, Note_off_c, 1, 55, 0
1, 43080, Note_on_c, 1, 78, 127
1, 43080, Note_on_c, 1, 54, 127
1, 43128, Note_off_c, 1, 78, 0
1, 43128, Note_off_c, 1, 54, 0
1, 43140, Note_on_c, 1, 79, 127
1, 43140, Note_on_c, 1, 52, 127
1, 43164, Note_off_c, 1, 71, 0
1, 43188, Note_off_c, 1, 52, 0
1, 43200, Note_on_c, 1, 50, 127
1, 43248, Note_off_c, 1, 50, 0
1, 43260, Note_on_c, 1, 49, 127
1, 43308, Note_off_c, 1, 79, 0
1, 43308, Note_off_c, 1, 49, 0
1, 43380, Note_on_c, 1, 58, 127
1, 43428, Note_off_c, 1, 58, 0
1, 43440, Note_on_c, 1, 76, 127
1, 43440, Note_on_c, 1, 74, 127
1, 43440, Note_on_c, 1, 64, 127
1, 43488, Note_off_c, 1, 76, 0
1, 43488, Note_off_c, 1, 74, 0
1, 43488, Note_off_c, 1, 64, 0
1, 43500, Note_on_c, 1, 72, 127
1, 43500, Note_on_c, 1, 81, 127
1, 43500, Note_on_c, 1, 78, 127
1, 43500, Note_on_c, 1, 64, 127
1, 43548, Note_off_c, 1, 64, 0
1, 43560, Note_on_c, 1, 63, 127
1, 43608, Note_off_c, 1, 63, 0
1, 43644, Note_off_c, 1, 72, 0
1, 43644, Note_off_c, 1, 81, 0
1, 43644, Note_off_c, 1, 78, 0
1, 43680, Note_on_c, 1, 81, 127
1, 43680, Note_on_c, 1, 61, 127
1, 43728, Note_off_c, 1, 81, 0
1, 43728, Note_off_c, 1, 61, 0
1, 43740, Note_on_c, 1, 78, 127
1, 43740, Note_on_c, 1, 81, 127
1, 43740, Note_on_c, 1, 71, 127
1, 43740, Note_on_c, 1, 63, 127
1, 43788, Note_off_c, 1, 78, 0
1, 43788, Note_off_c, 1, 81, 0
1, 43788, Note_off_c, 1, 71, 0
1, 43800, Note_on_c, 1, 84, 127
1, 43836, Note_off_c, 1, 63, 0
1, 43848, Note_off_c, 1, 84, 0
1, 43860, Note_on_c, 1, 83, 127
1, 43860, Note_on_c, 1, 59, 127
1, 43908, Note_off_c, 1, 83, 0
1, 43920, Note_on_c, 1, 81, 127
1, 43956, Note_off_c, 1, 59, 0
1, 43968, Note_off_c, 1, 81, 0
1, 43980, Note_on_c, 1, 79, 127
1, 44028, Note_off_c, 1, 79, 0
1, 44040, Note_on_c, 1, 78, 127
1, 44040, Note_on_c, 1, 64, 127
1, 44088, Note_off_c, 1, 78, 0
1, 44088, Note_off_c, 1, 64, 0
1, 44100, Note_on_c, 1, 76, 127
1, 44100, Note_on_c, 1, 66, 127
1, 44148, Note_off_c, 1, 76, 0
1, 44148, Note_off_c, 1, 66, 0
1, 44160, Note_on_c, 1, 74, 127
1, 44160, Note_on_c, 1, 67, 127
1, 44208, Note_off_c, 1, 74, 0
1, 44208, Note_off_c, 1, 67, 0
1, 44220, Note_on_c, 1, 72, 127
1, 44220, Note_on_c, 1, 69, 127
1, 44268, Note_off_c, 1, 72, 0
1, 44280, Note_on_c, 1, 83, 127
1, 44328, Note_off_c, 1, 83, 0
1, 44340, Note_on_c, 1, 81, 127
1, 44364, Note_off_c, 1, 69, 0
1, 44388, Note_off_c, 1, 81, 0
1, 44400, Note_on_c, 1, 84, 127
1, 44400, Note_on_c, 1, 67, 127
1, 44448, Note_off_c, 1, 84, 0
1, 44448, Note_off_c, 1, 67, 0
1, 44460, Note_on_c, 1, 76, 127
1, 44460, Note_on_c, 1, 66, 127
1, 44508, Note_off_c, 1, 76, 0
1, 44508, Note_off_c, 1, 66, 0
1, 44520, Note_on_c, 1, 75, 127
1, 44520, Note_on_c, 1, 59, 127
1, 44568, Note_off_c, 1, 75, 0
1, 44568, Note_off_c, 1, 59, 0
1, 44580, Note_on_c, 1, 73, 127
1, 44580, Note_on_c, 1, 61, 127
1, 44628, Note_off_c, 1, 73, 0
1, 44628, Note_off_c, 1, 61, 0
1, 44640, Note_on_c, 1, 71, 127
1, 44640, Note_on_c, 1, 63, 127
1, 44688, Note_off_c, 1, 71, 0
1, 44688, Note_off_c, 1, 63, 0
1, 44700, Note_on_c, 1, 71, 127
1, 44700, Note_on_c, 1, 76, 127
1, 44700, Note_on_c, 1, 79, 127
1, 44700, Note_on_c, 1, 64, 127
1, 44796, Note_off_c, 1, 71, 0
1, 44796, Note_off_c, 1, 76, 0
1, 44820, Note_on_c, 1, 57, 127
1, 44844, Note_off_c, 1, 79, 0
1, 44880, Note_on_c, 1, 81, 127
1, 44892, Note_off_c, 1, 64, 0
1, 44916, Note_off_c, 1, 57, 0
1, 44937, Note_off_c, 1, 81, 0
1, 44940, Note_on_c, 1, 79, 127
1, 44940, Note_on_c, 1, 75, 127
1, 44940, Note_on_c, 1, 59, 127
1, 44952, Note_off_c, 1, 79, 0
1, 44955, Note_on_c, 1, 78, 127
1, 44967, Note_off_c, 1, 78, 0
1, 45060, Note_on_c, 1, 47, 127
1, 45120, Note_on_c, 1, 76, 127
1, 45132, Note_off_c, 1, 75, 0
1, 45132, Note_off_c, 1, 59, 0
1, 45156, Note_off_c, 1, 47, 0
1, 45168, Note_off_c, 1, 76, 0
1, 45180, Note_on_c, 1, 76, 127
1, 45180, Note_on_c, 1, 52, 127
1, 45240, Note_on_c, 1, 54, 127
1, 45288, Note_off_c, 1, 54, 0
1, 45300, Note_on_c, 1, 56, 127
1, 45360, Note_on_c, 1, 74, 127
1, 45396, Note_off_c, 1, 56, 0
1, 45408, Note_off_c, 1, 74, 0
1, 45420, Note_on_c, 1, 72, 127
1, 45420, Note_on_c, 1, 57, 127
1, 45468, Note_off_c, 1, 72, 0
1, 45480, Note_on_c, 1, 71, 127
1, 45516, Note_off_c, 1, 57, 0
1, 45528, Note_off_c, 1, 71, 0
1, 45540, Note_on_c, 1, 69, 127
1, 45540, Note_on_c, 1, 59, 127
1, 45564, Note_off_c, 1, 76, 0
1, 45588, Note_off_c, 1, 69, 0
1, 45600, Note_on_c, 1, 67, 127
1, 45636, Note_off_c, 1, 59, 0
1, 45648, Note_off_c, 1, 67, 0
1, 45660, Note_on_c, 1, 66, 127
1, 45660, Note_on_c, 1, 60, 127
1, 45756, Note_off_c, 1, 60, 0
1, 45840, Note_on_c, 1, 75, 127
1, 45852, Note_off_c, 1, 66, 0
1, 45888, Note_off_c, 1, 75, 0
1, 45900, Note_on_c, 1, 68, 127
1, 46044, Note_off_c, 1, 52, 0
1, 46044, Note_off_c, 1, 68, 0
1, 46044, End_track
0, 0, End_of_file