0, 0, Header, 1, 1, 480
1, 0, Start_track
1, 0, Title_t, "Test"
1, 0, Tempo, 500000
1, 0, Instrument_name_t, "Church Organ"
1, 64, Note_on_c, 1, 71, 127
1, 197, Note_off_c, 1, 71, 0
1, 224, Note_on_c, 1, 71, 127
1, 224, Note_on_c, 1, 55, 127
1, 384, Note_on_c, 1, 59, 127
1, 542, Note_off_c, 1, 59, 0
1, 545, Note_on_c, 1, 62, 127
1, 703, Note_off_c, 1, 71, 0
1, 703, Note_off_c, 1, 62, 0
1, 705, Note_on_c, 1, 72, 127
1, 705, Note_on_c, 1, 67, 127
1, 858, Note_off_c, 1, 55, 0
1, 863, Note_off_c, 1, 72, 0
1, 865, Note_on_c, 1, 74, 127
1, 865, Note_on_c, 1, 57, 127
1, 943, Note_off_c, 1, 74, 0
1, 1022, Note_off_c, 1, 67, 0
1, 1186, Note_on_c, 1, 66, 127
1, 1344, Note_off_c, 1, 66, 0
1, 1346, Note_on_c, 1, 64, 127
1, 1499, Note_off_c, 1, 57, 0
1, 1504, Note_off_c, 1, 64, 0
1, 1507, Note_on_c, 1, 74, 127
1, 1507, Note_on_c, 1, 59, 127
1, 1667, Note_on_c, 1, 62, 127
1, 1825, Note_off_c, 1, 62, 0
1, 1827, Note_on_c, 1, 66, 127
1, 1985, Note_off_c, 1, 66, 0
1, 1988, Note_on_c, 1, 67, 127
1, 2148, Note_on_c, 1, 71, 127
1, 2291, Note_off_c, 1, 74, 0
1, 2467, Note_off_c, 1, 59, 0
1, 2469, Note_on_c, 1, 78, 127
1, 2627, Note_off_c, 1, 78, 0
1, 2629, Note_on_c, 1, 79, 127
1, 2782, Note_off_c, 1, 71, 0
1, 2787, Note_off_c, 1, 79, 0
1, 2789, Note_on_c, 1, 76, 127
1, 2789, Note_on_c, 1, 60, 127
1, 2947, Note_off_c, 1, 76, 0
1, 3107, Note_off_c, 1, 60, 0
1, 3431, Note_on_c, 1, 72, 127
1, 3431, Note_on_c, 1, 57, 127
1, 3589, Note_off_c, 1, 72, 0
1, 3741, Note_off_c, 1, 67, 0
1, 3912, Note_on_c, 1, 81, 127
1, 4065, Note_off_c, 1, 57, 0
1, 4070, Note_off_c, 1, 81, 0
1, 4072, Note_on_c, 1, 72, 127
1, 4072, Note_on_c, 1, 55, 127
1, 4230, Note_off_c, 1, 72, 0
1, 4232, Note_on_c, 1, 71, 127
1, 4390, Note_off_c, 1, 71, 0
1, 4392, Note_on_c, 1, 69, 127
1, 4392, Note_on_c, 1, 59, 127
1, 4550, Note_off_c, 1, 69, 0
1, 4553, Note_on_c, 1, 67, 127
1, 4710, Note_off_c, 1, 59, 0
1, 4711, Note_off_c, 1, 67, 0
1, 4713, Note_on_c, 1, 62, 127
1, 4873, Note_off_c, 1, 55, 0
1, 4873, Note_on_c, 1, 54, 127
1, 5030, Note_off_c, 1, 62, 0
1, 5031, Note_off_c, 1, 54, 0
1, 5034, Note_on_c, 1, 52, 127
1, 5192, Note_off_c, 1, 52, 0
1, 5194, Note_on_c, 1, 50, 127
1, 5352, Note_off_c, 1, 50, 0
1, 5354, Note_on_c, 1, 64, 127
1, 5354, Note_on_c, 1, 49, 127
1, 5515, Note_on_c, 1, 76, 127
1, 5673, Note_off_c, 1, 76, 0
1, 5988, Note_off_c, 1, 64, 0
1, 5996, Note_on_c, 1, 57, 127
1, 6156, Note_on_c, 1, 66, 127
1, 6314, Note_off_c, 1, 49, 0
1, 6314, Note_off_c, 1, 66, 0
1, 6630, Note_off_c, 1, 57, 0
1, 6637, Note_on_c, 1, 67, 127
1, 6637, Note_on_c, 1, 50, 127
1, 6795, Note_off_c, 1, 67, 0
1, 6797, Note_on_c, 1, 66, 127
1, 6955, Note_off_c, 1, 66, 0
1, 6958, Note_on_c, 1, 64, 127
1, 6958, Note_on_c, 1, 54, 127
1, 7116, Note_off_c, 1, 64, 0
1, 7118, Note_on_c, 1, 62, 127
1, 7276, Note_off_c, 1, 54, 0
1, 7276, Note_off_c, 1, 62, 0
1, 7278, Note_on_c, 1, 57, 127
1, 7597, Note_off_c, 1, 50, 0
1, 7599, Note_on_c, 1, 48, 127
1, 7912, Note_off_c, 1, 57, 0
1, 7917, Note_off_c, 1, 48, 0
1, 7920, Note_on_c, 1, 67, 127
1, 7920, Note_on_c, 1, 50, 127
1, 7920, Note_on_c, 1, 47, 127
1, 8078, Note_off_c, 1, 67, 0
1, 8080, Note_on_c, 1, 69, 127
1, 8238, Note_off_c, 1, 50, 0
1, 8238, Note_off_c, 1, 69, 0
1, 8240, Note_on_c, 1, 55, 127
1, 8554, Note_off_c, 1, 47, 0
1, 8561, Note_on_c, 1, 71, 127
1, 8561, Note_on_c, 1, 45, 127
1, 8639, Note_off_c, 1, 71, 0
1, 8874, Note_off_c, 1, 55, 0
1, 8881, Note_on_c, 1, 54, 127
1, 9195, Note_off_c, 1, 45, 0
1, 9199, Note_off_c, 1, 54, 0
1, 9202, Note_on_c, 1, 55, 127
1, 9202, Note_on_c, 1, 71, 127
1, 9362, Note_on_c, 1, 43, 127
1, 9520, Note_off_c, 1, 43, 0
1, 9523, Note_on_c, 1, 47, 127
1, 9681, Note_off_c, 1, 47, 0
1, 9683, Note_on_c, 1, 50, 127
1, 9769, Note_off_c, 1, 55, 0
1, 9769, Note_off_c, 1, 71, 0
1, 9841, Note_off_c, 1, 50, 0
1, 9843, Note_on_c, 1, 55, 127
1, 10004, Note_on_c, 1, 71, 127
1, 10161, Note_off_c, 1, 55, 0
1, 10162, Note_off_c, 1, 71, 0
1, 10164, Note_on_c, 1, 57, 127
1, 10164, Note_on_c, 1, 76, 127
1, 10322, Note_off_c, 1, 57, 0
1, 10322, Note_off_c, 1, 76, 0
1, 10324, Note_on_c, 1, 59, 127
1, 10324, Note_on_c, 1, 75, 127
1, 10482, Note_off_c, 1, 59, 0
1, 10482, Note_off_c, 1, 75, 0
1, 10485, Note_on_c, 1, 76, 127
1, 10485, Note_on_c, 1, 60, 127
1, 10643, Note_off_c, 1, 76, 0
1, 10645, Note_on_c, 1, 78, 127
1, 10803, Note_off_c, 1, 60, 0
1, 10803, Note_off_c, 1, 78, 0
1, 10805, Note_on_c, 1, 76, 127
1, 10805, Note_on_c, 1, 55, 127
1, 10805, Note_on_c, 1, 64, 127
1, 10963, Note_off_c, 1, 76, 0
1, 10966, Note_on_c, 1, 78, 127
1, 11123, Note_off_c, 1, 55, 0
1, 11124, Note_off_c, 1, 78, 0
1, 11126, Note_on_c, 1, 79, 127
1, 11126, Note_on_c, 1, 57, 127
1, 11204, Note_off_c, 1, 79, 0
1, 11439, Note_off_c, 1, 64, 0
1, 11444, Note_off_c, 1, 57, 0
1, 11447, Note_on_c, 1, 79, 127
1, 11447, Note_on_c, 1, 63, 127
1, 11447, Note_on_c, 1, 59, 127
1, 11525, Note_off_c, 1, 79, 0
1, 11527, Note_on_c, 1, 78, 127
1, 11605, Note_off_c, 1, 78, 0
1, 11607, Note_on_c, 1, 76, 127
1, 11685, Note_off_c, 1, 76, 0
1, 11765, Note_off_c, 1, 63, 0
1, 11765, Note_off_c, 1, 59, 0
1, 11767, Note_on_c, 1, 64, 127
1, 11767, Note_on_c, 1, 79, 127
1, 11928, Note_on_c, 1, 59, 127
1, 12086, Note_off_c, 1, 59, 0
1, 12088, Note_on_c, 1, 55, 127
1, 12246, Note_off_c, 1, 55, 0
1, 12401, Note_off_c, 1, 64, 0
1, 12408, Note_on_c, 1, 52, 127
1, 12566, Note_off_c, 1, 79, 0
1, 12569, Note_on_c, 1, 78, 127
1, 12726, Note_off_c, 1, 52, 0
1, 12727, Note_off_c, 1, 78, 0
1, 12729, Note_on_c, 1, 76, 127
1, 12729, Note_on_c, 1, 55, 127
1, 12887, Note_off_c, 1, 76, 0
1, 12889, Note_on_c, 1, 74, 127
1, 13047, Note_off_c, 1, 55, 0
1, 13047, Note_off_c, 1, 74, 0
1, 13050, Note_on_c, 1, 73, 127
1, 13050, Note_on_c, 1, 57, 127
1, 13210, Note_on_c, 1, 76, 127
1, 13250, Note_off_c, 1, 73, 0
1, 13368, Note_off_c, 1, 76, 0
1, 13370, Note_on_c, 1, 71, 127
1, 13370, Note_on_c, 1, 59, 127
1, 13570, Note_off_c, 1, 71, 0
1, 13688, Note_off_c, 1, 59, 0
1, 13691, Note_on_c, 1, 69, 127
1, 13691, Note_on_c, 1, 61, 127
1, 13849, Note_off_c, 1, 69, 0
1, 13851, Note_on_c, 1, 79, 127
1, 14009, Note_off_c, 1, 79, 0
1, 14010, Note_off_c, 1, 57, 0
1, 14012, Note_on_c, 1, 78, 127
1, 14170, Note_off_c, 1, 78, 0
1, 14325, Note_off_c, 1, 61, 0
1, 14332, Note_on_c, 1, 78, 127
1, 14332, Note_on_c, 1, 50, 127
1, 14332, Note_on_c, 1, 62, 127
1, 14493, Note_on_c, 1, 81, 127
1, 14532, Note_off_c, 1, 78, 0
1, 14650, Note_off_c, 1, 50, 0
1, 14651, Note_off_c, 1, 81, 0
1, 14653, Note_on_c, 1, 76, 127
1, 14653, Note_on_c, 1, 52, 127
1, 14853, Note_off_c, 1, 76, 0
1, 14971, Note_off_c, 1, 52, 0
1, 14974, Note_on_c, 1, 74, 127
1, 14974, Note_on_c, 1, 54, 127
1, 15132, Note_off_c, 1, 74, 0
1, 15134, Note_on_c, 1, 72, 127
1, 15292, Note_off_c, 1, 54, 0
1, 15292, Note_off_c, 1, 72, 0
1, 15294, Note_on_c, 1, 71, 127
1, 15452, Note_off_c, 1, 71, 0
1, 15455, Note_on_c, 1, 69, 127
1, 15613, Note_off_c, 1, 69, 0
1, 15615, Note_on_c, 1, 55, 127
1, 15935, Note_off_c, 1, 62, 0
1, 15936, Note_on_c, 1, 60, 127
1, 16254, Note_off_c, 1, 60, 0
1, 16256, Note_on_c, 1, 67, 127
1, 16256, Note_on_c, 1, 59, 127
1, 16456, Note_off_c, 1, 67, 0
1, 16574, Note_off_c, 1, 59, 0
1, 16577, Note_on_c, 1, 66, 127
1, 16577, Note_on_c, 1, 57, 127
1, 16777, Note_off_c, 1, 66, 0
1, 16895, Note_off_c, 1, 55, 0
1, 16895, Note_off_c, 1, 57, 0
1, 16897, Note_on_c, 1, 64, 127
1, 16897, Note_on_c, 1, 55, 127
1, 17055, Note_off_c, 1, 64, 0
1, 17058, Note_on_c, 1, 74, 127
1, 17216, Note_off_c, 1, 74, 0
1, 17218, Note_on_c, 1, 73, 127
1, 17218, Note_on_c, 1, 52, 127
1, 17376, Note_off_c, 1, 73, 0
1, 17378, Note_on_c, 1, 71, 127
1, 17536, Note_off_c, 1, 52, 0
1, 17536, Note_off_c, 1, 71, 0
1, 17539, Note_on_c, 1, 45, 127
1, 17699, Note_on_c, 1, 76, 127
1, 17857, Note_off_c, 1, 55, 0
1, 17857, Note_off_c, 1, 45, 0
1, 17857, Note_off_c, 1, 76, 0
1, 17859, Note_on_c, 1, 69, 127
1, 17859, Note_on_c, 1, 49, 127
1, 17859, Note_on_c, 1, 52, 127
1, 18017, Note_off_c, 1, 69, 0
1, 18020, Note_on_c, 1, 79, 127
1, 18177, Note_off_c, 1, 49, 0
1, 18177, Note_off_c, 1, 52, 0
1, 18178, Note_off_c, 1, 79, 0
1, 18180, Note_on_c, 1, 78, 127
1, 18180, Note_on_c, 1, 50, 127
1, 18338, Note_off_c, 1, 78, 0
1, 18340, Note_on_c, 1, 76, 127
1, 18498, Note_off_c, 1, 76, 0
1, 18501, Note_on_c, 1, 43, 127
1, 18647, Note_off_c, 1, 50, 0
1, 18661, Note_on_c, 1, 74, 127
1, 18661, Note_on_c, 1, 52, 127
1, 18801, Note_off_c, 1, 74, 0
1, 18818, Note_off_c, 1, 43, 0
1, 18819, Note_off_c, 1, 52, 0
1, 18821, Note_on_c, 1, 74, 127
1, 18821, Note_on_c, 1, 54, 127
1, 18821, Note_on_c, 1, 45, 127
1, 18899, Note_off_c, 1, 74, 0
1, 18901, Note_on_c, 1, 73, 127
1, 18979, Note_off_c, 1, 73, 0
1, 19139, Note_off_c, 1, 54, 0
1, 19142, Note_on_c, 1, 55, 127
1, 19455, Note_off_c, 1, 45, 0
1, 19460, Note_off_c, 1, 55, 0
1, 19463, Note_on_c, 1, 54, 127
1, 19463, Note_on_c, 1, 50, 127
1, 19463, Note_on_c, 1, 74, 127
1, 19621, Note_off_c, 1, 54, 0
1, 19623, Note_on_c, 1, 62, 127
1, 19696, Note_off_c, 1, 50, 0
1, 19781, Note_off_c, 1, 62, 0
1, 19783, Note_on_c, 1, 55, 127
1, 19783, Note_on_c, 1, 52, 127
1, 19941, Note_off_c, 1, 55, 0
1, 20016, Note_off_c, 1, 52, 0
1, 20104, Note_on_c, 1, 57, 127
1, 20262, Note_off_c, 1, 74, 0
1, 20262, Note_off_c, 1, 57, 0
1, 20264, Note_on_c, 1, 78, 127
1, 20422, Note_off_c, 1, 78, 0
1, 20424, Note_on_c, 1, 54, 127
1, 20424, Note_on_c, 1, 50, 127
1, 20424, Note_on_c, 1, 81, 127
1, 20582, Note_off_c, 1, 54, 0
1, 20582, Note_off_c, 1, 50, 0
1, 20582, Note_off_c, 1, 81, 0
1, 20585, Note_on_c, 1, 62, 127
1, 20585, Note_on_c, 1, 84, 127
1, 20743, Note_off_c, 1, 62, 0
1, 20743, Note_off_c, 1, 84, 0
1, 20745, Note_on_c, 1, 55, 127
1, 20745, Note_on_c, 1, 83, 127
1, 20905, Note_on_c, 1, 62, 127
1, 20978, Note_off_c, 1, 55, 0
1, 21063, Note_off_c, 1, 62, 0
1, 21066, Note_on_c, 1, 57, 127
1, 21224, Note_off_c, 1, 83, 0
1, 21226, Note_on_c, 1, 81, 127
1, 21299, Note_off_c, 1, 57, 0
1, 21384, Note_off_c, 1, 81, 0
1, 21386, Note_on_c, 1, 79, 127
1, 21386, Note_on_c, 1, 59, 127
1, 21544, Note_off_c, 1, 79, 0
1, 21547, Note_on_c, 1, 62, 127
1, 21547, Note_on_c, 1, 78, 127
1, 21619, Note_off_c, 1, 59, 0
1, 21705, Note_off_c, 1, 62, 0
1, 21705, Note_off_c, 1, 78, 0
1, 21707, Note_on_c, 1, 55, 127
1, 21707, Note_on_c, 1, 76, 127
1, 21865, Note_off_c, 1, 55, 0
1, 21865, Note_off_c, 1, 76, 0
1, 21867, Note_on_c, 1, 62, 127
1, 21867, Note_on_c, 1, 74, 127
1, 22025, Note_off_c, 1, 62, 0
1, 22025, Note_off_c, 1, 74, 0
1, 22028, Note_on_c, 1, 52, 127
1, 22028, Note_on_c, 1, 79, 127
1, 22188, Note_on_c, 1, 62, 127
1, 22261, Note_off_c, 1, 52, 0
1, 22346, Note_off_c, 1, 62, 0
1, 22348, Note_on_c, 1, 54, 127
1, 22507, Note_off_c, 1, 79, 0
1, 22509, Note_on_c, 1, 78, 127
1, 22581, Note_off_c, 1, 54, 0
1, 22667, Note_off_c, 1, 78, 0
1, 22669, Note_on_c, 1, 76, 127
1, 22669, Note_on_c, 1, 55, 127
1, 22827, Note_off_c, 1, 76, 0
1, 22829, Note_on_c, 1, 62, 127
1, 22829, Note_on_c, 1, 74, 127
1, 22902, Note_off_c, 1, 55, 0
1, 22987, Note_off_c, 1, 62, 0
1, 22987, Note_off_c, 1, 74, 0
1, 22990, Note_on_c, 1, 52, 127
1, 22990, Note_on_c, 1, 73, 127
1, 23148, Note_off_c, 1, 52, 0
1, 23148, Note_off_c, 1, 73, 0
1, 23150, Note_on_c, 1, 62, 127
1, 23150, Note_on_c, 1, 71, 127
1, 23308, Note_off_c, 1, 62, 0
1, 23308, Note_off_c, 1, 71, 0
1, 23310, Note_on_c, 1, 57, 127
1, 23310, Note_on_c, 1, 73, 127
1, 23468, Note_off_c, 1, 57, 0
1, 23468, Note_off_c, 1, 73, 0
1, 23471, Note_on_c, 1, 61, 127
1, 23471, Note_on_c, 1, 69, 127
1, 23629, Note_off_c, 1, 61, 0
1, 23629, Note_off_c, 1, 69, 0
1, 23631, Note_on_c, 1, 59, 127
1, 23631, Note_on_c, 1, 74, 127
1, 23789, Note_off_c, 1, 59, 0
1, 23789, Note_off_c, 1, 74, 0
1, 23791, Note_on_c, 1, 62, 127
1, 23791, Note_on_c, 1, 69, 127
1, 23949, Note_off_c, 1, 62, 0
1, 23949, Note_off_c, 1, 69, 0
1, 23952, Note_on_c, 1, 61, 127
1, 23952, Note_on_c, 1, 76, 127
1, 24110, Note_off_c, 1, 61, 0
1, 24110, Note_off_c, 1, 76, 0
1, 24112, Note_on_c, 1, 64, 127
1, 24112, Note_on_c, 1, 69, 127
1, 24270, Note_off_c, 1, 64, 0
1, 24270, Note_off_c, 1, 69, 0
1, 24272, Note_on_c, 1, 57, 127
1, 24272, Note_on_c, 1, 79, 127
1, 24430, Note_off_c, 1, 57, 0
1, 24430, Note_off_c, 1, 79, 0
1, 24432, Note_on_c, 1, 61, 127
1, 24432, Note_on_c, 1, 76, 127
1, 24590, Note_off_c, 1, 61, 0
1, 24590, Note_off_c, 1, 76, 0
1, 24593, Note_on_c, 1, 77, 127
1, 24593, Note_on_c, 1, 62, 127
1, 24751, Note_off_c, 1, 77, 0
1, 24753, Note_on_c, 1, 69, 127
1, 24911, Note_off_c, 1, 62, 0
1, 24911, Note_off_c, 1, 69, 0
1, 24913, Note_on_c, 1, 74, 127
1, 24913, Note_on_c, 1, 60, 127
1, 25071, Note_off_c, 1, 74, 0
1, 25074, Note_on_c, 1, 76, 127
1, 25231, Note_off_c, 1, 60, 0
1, 25232, Note_off_c, 1, 76, 0
1, 25234, Note_on_c, 1, 77, 127
1, 25234, Note_on_c, 1, 58, 127
1, 25392, Note_off_c, 1, 77, 0
1, 25394, Note_on_c, 1, 74, 127
1, 25552, Note_off_c, 1, 58, 0
1, 25552, Note_off_c, 1, 74, 0
1, 25555, Note_on_c, 1, 78, 127
1, 25555, Note_on_c, 1, 57, 127
1, 25713, Note_off_c, 1, 78, 0
1, 25715, Note_on_c, 1, 74, 127
1, 25873, Note_off_c, 1, 57, 0
1, 25873, Note_off_c, 1, 74, 0
1, 25875, Note_on_c, 1, 79, 127
1, 25875, Note_on_c, 1, 58, 127
1, 26036, Note_on_c, 1, 74, 127
1, 26108, Note_off_c, 1, 79, 0
1, 26193, Note_off_c, 1, 58, 0
1, 26196, Note_on_c, 1, 82, 127
1, 26196, Note_on_c, 1, 55, 127
1, 26354, Note_off_c, 1, 82, 0
1, 26356, Note_on_c, 1, 81, 127
1, 26503, Note_off_c, 1, 74, 0
1, 26514, Note_off_c, 1, 55, 0
1, 26514, Note_off_c, 1, 81, 0
1, 26517, Note_on_c, 1, 52, 127
1, 26517, Note_on_c, 1, 80, 127
1, 26677, Note_on_c, 1, 74, 127
1, 26835, Note_off_c, 1, 52, 0
1, 26835, Note_off_c, 1, 74, 0
1, 26837, Note_on_c, 1, 73, 127
1, 26837, Note_on_c, 1, 57, 127
1, 26917, Note_off_c, 1, 80, 0
1, 26995, Note_off_c, 1, 73, 0
1, 26998, Note_on_c, 1, 79, 127
1, 27155, Note_off_c, 1, 57, 0
1, 27156, Note_off_c, 1, 79, 0
1, 27158, Note_on_c, 1, 62, 127
1, 27158, Note_on_c, 1, 78, 127
1, 27318, Note_on_c, 1, 72, 127
1, 27476, Note_off_c, 1, 62, 0
1, 27476, Note_off_c, 1, 72, 0
1, 27479, Note_on_c, 1, 71, 127
1, 27479, Note_on_c, 1, 55, 127
1, 27625, Note_off_c, 1, 78, 0
1, 27637, Note_off_c, 1, 71, 0
1, 27639, Note_on_c, 1, 76, 127
1, 27797, Note_off_c, 1, 55, 0
1, 27799, Note_on_c, 1, 69, 127
1, 27799, Note_on_c, 1, 66, 127
1, 27799, Note_on_c, 1, 57, 127
1, 27956, Note_off_c, 1, 76, 0
1, 27957, Note_off_c, 1, 69, 0
1, 27960, Note_on_c, 1, 74, 127
1, 28032, Note_off_c, 1, 66, 0
1, 28120, Note_on_c, 1, 67, 127
1, 28120, Note_on_c, 1, 64, 127
1, 28277, Note_off_c, 1, 74, 0
1, 28278, Note_off_c, 1, 67, 0
1, 28280, Note_on_c, 1, 73, 127
1, 28353, Note_off_c, 1, 64, 0
1, 28438, Note_off_c, 1, 57, 0
1, 28438, Note_off_c, 1, 73, 0
1, 28440, Note_on_c, 1, 62, 127
1, 28440, Note_on_c, 1, 74, 127
1, 28601, Note_on_c, 1, 67, 127
1, 28759, Note_off_c, 1, 67, 0
1, 28761, Note_on_c, 1, 69, 127
1, 28921, Note_on_c, 1, 64, 127
1, 29079, Note_off_c, 1, 64, 0
1, 29082, Note_on_c, 1, 66, 127
1, 29239, Note_off_c, 1, 62, 0
1, 29242, Note_on_c, 1, 61, 127
1, 29400, Note_off_c, 1, 61, 0
1, 29563, Note_on_c, 1, 57, 127
1, 29721, Note_off_c, 1, 57, 0
1, 29723, Note_on_c, 1, 50, 127
1, 30581, Note_on_c, 1, 78, 127
1, 30790, Note_off_c, 1, 74, 0
1, 30821, Note_off_c, 1, 69, 0
1, 30822, Note_off_c, 1, 66, 0
1, 30885, Note_off_c, 1, 78, 0
1, 30893, Note_off_c, 1, 50, 0
1, 30910, Note_on_c, 1, 50, 127
1, 30910, Note_on_c, 1, 69, 127
1, 30910, Note_on_c, 1, 74, 127
1, 30910, Note_on_c, 1, 78, 127
1, 31068, Note_off_c, 1, 50, 0
1, 31070, Note_on_c, 1, 54, 127
1, 31228, Note_off_c, 1, 54, 0
1, 31230, Note_on_c, 1, 57, 127
1, 31388, Note_off_c, 1, 57, 0
1, 31389, Note_off_c, 1, 69, 0
1, 31389, Note_off_c, 1, 74, 0
1, 31389, Note_off_c, 1, 78, 0
1, 31391, Note_on_c, 1, 79, 127
1, 31391, Note_on_c, 1, 60, 127
1, 31549, Note_off_c, 1, 79, 0
1, 31549, Note_off_c, 1, 60, 0
1, 31551, Note_on_c, 1, 81, 127
1, 31551, Note_on_c, 1, 59, 127
1, 31629, Note_off_c, 1, 81, 0
1, 31631, Note_on_c, 1, 79, 127
1, 31709, Note_off_c, 1, 59, 0
1, 31709, Note_off_c, 1, 79, 0
1, 31711, Note_on_c, 1, 81, 127
1, 31711, Note_on_c, 1, 57, 127
1, 31789, Note_off_c, 1, 81, 0
1, 31791, Note_on_c, 1, 79, 127
1, 31869, Note_off_c, 1, 57, 0
1, 31869, Note_off_c, 1, 79, 0
1, 31872, Note_on_c, 1, 81, 127
1, 31872, Note_on_c, 1, 59, 127
1, 31950, Note_off_c, 1, 81, 0
1, 31952, Note_on_c, 1, 79, 127
1, 32030, Note_off_c, 1, 59, 0
1, 32030, Note_off_c, 1, 79, 0
1, 32032, Note_on_c, 1, 78, 127
1, 32032, Note_on_c, 1, 55, 127
1, 32110, Note_off_c, 1, 78, 0
1, 32112, Note_on_c, 1, 79, 127
1, 32190, Note_off_c, 1, 55, 0
1, 32190, Note_off_c, 1, 79, 0
1, 32192, Note_on_c, 1, 81, 127
1, 32192, Note_on_c, 1, 54, 127
1, 32352, Note_on_c, 1, 57, 127
1, 32510, Note_off_c, 1, 57, 0
1, 32513, Note_on_c, 1, 60, 127
1, 32671, Note_off_c, 1, 60, 0
1, 32673, Note_on_c, 1, 64, 127
1, 32831, Note_off_c, 1, 64, 0
1, 32833, Note_on_c, 1, 62, 127
1, 32926, Note_off_c, 1, 81, 0
1, 32994, Note_on_c, 1, 72, 127
1, 33151, Note_off_c, 1, 62, 0
1, 33152, Note_off_c, 1, 54, 0
1, 33152, Note_off_c, 1, 72, 0
1, 33154, Note_on_c, 1, 74, 127
1, 33154, Note_on_c, 1, 54, 127
1, 33154, Note_on_c, 1, 57, 127
1, 33312, Note_off_c, 1, 74, 0
1, 33314, Note_on_c, 1, 69, 127
1, 33472, Note_off_c, 1, 54, 0
1, 33472, Note_off_c, 1, 57, 0
1, 33472, Note_off_c, 1, 69, 0
1, 33475, Note_on_c, 1, 71, 127
1, 33475, Note_on_c, 1, 55, 127
1, 33633, Note_off_c, 1, 71, 0
1, 33635, Note_on_c, 1, 75, 127
1, 33793, Note_off_c, 1, 55, 0
1, 33793, Note_off_c, 1, 75, 0
1, 33795, Note_on_c, 1, 76, 127
1, 33795, Note_on_c, 1, 48, 127
1, 33795, Note_on_c, 1, 52, 127
1, 33953, Note_off_c, 1, 76, 0
1, 33956, Note_on_c, 1, 79, 127
1, 34113, Note_off_c, 1, 48, 0
1, 34114, Note_off_c, 1, 79, 0
1, 34116, Note_on_c, 1, 78, 127
1, 34116, Note_on_c, 1, 45, 127
1, 34276, Note_on_c, 1, 72, 127
1, 34429, Note_off_c, 1, 52, 0
1, 34433, Note_off_c, 1, 78, 0
1, 34434, Note_off_c, 1, 45, 0
1, 34434, Note_off_c, 1, 72, 0
1, 34437, Note_on_c, 1, 71, 127
1, 34437, Note_on_c, 1, 47, 127
1, 34437, Note_on_c, 1, 51, 127
1, 34595, Note_off_c, 1, 71, 0
1, 34597, Note_on_c, 1, 81, 127
1, 34755, Note_off_c, 1, 47, 0
1, 34755, Note_off_c, 1, 51, 0
1, 34755, Note_off_c, 1, 81, 0
1, 34757, Note_on_c, 1, 79, 127
1, 34757, Note_on_c, 1, 52, 127
1, 34757, Note_on_c, 1, 40, 127
1, 34918, Note_on_c, 1, 75, 127
1, 34957, Note_off_c, 1, 79, 0
1, 35076, Note_off_c, 1, 75, 0
1, 35078, Note_on_c, 1, 76, 127
1, 35236, Note_off_c, 1, 76, 0
1, 35391, Note_off_c, 1, 52, 0
1, 35391, Note_off_c, 1, 40, 0
1, 35399, Note_on_c, 1, 72, 127
1, 35477, Note_off_c, 1, 72, 0
1, 35479, Note_on_c, 1, 71, 127
1, 35557, Note_off_c, 1, 71, 0
1, 35559, Note_on_c, 1, 52, 127
1, 35559, Note_on_c, 1, 72, 127
1, 35717, Note_off_c, 1, 52, 0
1, 35719, Note_on_c, 1, 54, 127
1, 35877, Note_off_c, 1, 72, 0
1, 35877, Note_off_c, 1, 54, 0
1, 35880, Note_on_c, 1, 72, 127
1, 35880, Note_on_c, 1, 50, 127
1, 36038, Note_off_c, 1, 72, 0
1, 36038, Note_off_c, 1, 50, 0
1, 36040, Note_on_c, 1, 72, 127
1, 36040, Note_on_c, 1, 55, 127
1, 36198, Note_off_c, 1, 72, 0
1, 36200, Note_on_c, 1, 69, 127
1, 36358, Note_off_c, 1, 55, 0
1, 36358, Note_off_c, 1, 69, 0
1, 36360, Note_on_c, 1, 71, 127
1, 36360, Note_on_c, 1, 43, 127
1, 36518, Note_off_c, 1, 71, 0
1, 36521, Note_on_c, 1, 76, 127
1, 36677, Note_off_c, 1, 43, 0
1, 36679, Note_off_c, 1, 76, 0
1, 36681, Note_on_c, 1, 69, 127
1, 36759, Note_off_c, 1, 69, 0
1, 36761, Note_on_c, 1, 68, 127
1, 36839, Note_off_c, 1, 68, 0
1, 36841, Note_on_c, 1, 49, 127
1, 36841, Note_on_c, 1, 69, 127
1, 36999, Note_off_c, 1, 49, 0
1, 37002, Note_on_c, 1, 51, 127
1, 37159, Note_off_c, 1, 69, 0
1, 37160, Note_off_c, 1, 51, 0
1, 37162, Note_on_c, 1, 69, 127
1, 37162, Note_on_c, 1, 47, 127
1, 37320, Note_off_c, 1, 69, 0
1, 37320, Note_off_c, 1, 47, 0
1, 37322, Note_on_c, 1, 69, 127
1, 37322, Note_on_c, 1, 52, 127
1, 37480, Note_off_c, 1, 69, 0
1, 37483, Note_on_c, 1, 66, 127
1, 37640, Note_off_c, 1, 52, 0
1, 37641, Note_off_c, 1, 66, 0
1, 37643, Note_on_c, 1, 67, 127
1, 37643, Note_on_c, 1, 40, 127
1, 37801, Note_off_c, 1, 67, 0
1, 37803, Note_on_c, 1, 72, 127
1, 37960, Note_off_c, 1, 40, 0
1, 37961, Note_off_c, 1, 72, 0
1, 37964, Note_on_c, 1, 65, 127
1, 38042, Note_off_c, 1, 65, 0
1, 38044, Note_on_c, 1, 64, 127
1, 38122, Note_off_c, 1, 64, 0
1, 38124, Note_on_c, 1, 45, 127
1, 38124, Note_on_c, 1, 65, 127
1, 38282, Note_off_c, 1, 45, 0
1, 38284, Note_on_c, 1, 47, 127
1, 38442, Note_off_c, 1, 65, 0
1, 38442, Note_off_c, 1, 47, 0
1, 38445, Note_on_c, 1, 65, 127
1, 38445, Note_on_c, 1, 43, 127
1, 38603, Note_off_c, 1, 65, 0
1, 38603, Note_off_c, 1, 43, 0
1, 38605, Note_on_c, 1, 65, 127
1, 38605, Note_on_c, 1, 48, 127
1, 38765, Note_on_c, 1, 63, 127
1, 38805, Note_off_c, 1, 65, 0
1, 38923, Note_off_c, 1, 48, 0
1, 38923, Note_off_c, 1, 63, 0
1, 38926, Note_on_c, 1, 64, 127
1, 38926, Note_on_c, 1, 49, 127
1, 39084, Note_off_c, 1, 64, 0
1, 39086, Note_on_c, 1, 69, 127
1, 39244, Note_off_c, 1, 49, 0
1, 39244, Note_off_c, 1, 69, 0
1, 39246, Note_on_c, 1, 67, 127
1, 39246, Note_on_c, 1, 50, 127
1, 39407, Note_on_c, 1, 64, 127
1, 39446, Note_off_c, 1, 67, 0
1, 39564, Note_off_c, 1, 50, 0
1, 39565, Note_off_c, 1, 64, 0
1, 39567, Note_on_c, 1, 66, 127
1, 39567, Note_on_c, 1, 51, 127
1, 39725, Note_off_c, 1, 66, 0
1, 39727, Note_on_c, 1, 71, 127
1, 39885, Note_off_c, 1, 51, 0
1, 39885, Note_off_c, 1, 71, 0
1, 39888, Note_on_c, 1, 69, 127
1, 39888, Note_on_c, 1, 52, 127
1, 40048, Note_on_c, 1, 66, 127
1, 40088, Note_off_c, 1, 69, 0
1, 40206, Note_off_c, 1, 52, 0
1, 40206, Note_off_c, 1, 66, 0
1, 40208, Note_on_c, 1, 67, 127
1, 40208, Note_on_c, 1, 40, 127
1, 40366, Note_off_c, 1, 67, 0
1, 40368, Note_on_c, 1, 72, 127
1, 40526, Note_off_c, 1, 40, 0
1, 40526, Note_off_c, 1, 72, 0
1, 40529, Note_on_c, 1, 71, 127
1, 40529, Note_on_c, 1, 42, 127
1, 40689, Note_on_c, 1, 67, 127
1, 40729, Note_off_c, 1, 71, 0
1, 40847, Note_off_c, 1, 42, 0
1, 40847, Note_off_c, 1, 67, 0
1, 40849, Note_on_c, 1, 69, 127
1, 40849, Note_on_c, 1, 54, 127
1, 41007, Note_off_c, 1, 69, 0
1, 41010, Note_on_c, 1, 74, 127
1, 41167, Note_off_c, 1, 54, 0
1, 41168, Note_off_c, 1, 74, 0
1, 41170, Note_on_c, 1, 72, 127
1, 41170, Note_on_c, 1, 55, 127
1, 41328, Note_off_c, 1, 72, 0
1, 41330, Note_on_c, 1, 69, 127
1, 41488, Note_off_c, 1, 55, 0
1, 41488, Note_off_c, 1, 69, 0
1, 41491, Note_on_c, 1, 71, 127
1, 41491, Note_on_c, 1, 43, 127
1, 41649, Note_off_c, 1, 71, 0
1, 41651, Note_on_c, 1, 74, 127
1, 41808, Note_off_c, 1, 43, 0
1, 41809, Note_off_c, 1, 74, 0
1, 41811, Note_on_c, 1, 79, 127
1, 41889, Note_off_c, 1, 79, 0
1, 41892, Note_on_c, 1, 78, 127
1, 41970, Note_off_c, 1, 78, 0
1, 41972, Note_on_c, 1, 79, 127
1, 41972, Note_on_c, 1, 52, 127
1, 42132, Note_on_c, 1, 55, 127
1, 42290, Note_off_c, 1, 79, 0
1, 42290, Note_off_c, 1, 55, 0
1, 42292, Note_on_c, 1, 59, 127
1, 42439, Note_off_c, 1, 52, 0
1, 42450, Note_off_c, 1, 59, 0
1, 42453, Note_on_c, 1, 79, 127
1, 42453, Note_on_c, 1, 48, 127
1, 42611, Note_off_c, 1, 79, 0
1, 42613, Note_on_c, 1, 71, 127
1, 42771, Note_off_c, 1, 71, 0
1, 42773, Note_on_c, 1, 72, 127
1, 42773, Note_on_c, 1, 55, 127
1, 42931, Note_off_c, 1, 72, 0
1, 42934, Note_on_c, 1, 76, 127
1, 43087, Note_off_c, 1, 48, 0
1, 43091, Note_off_c, 1, 55, 0
1, 43092, Note_off_c, 1, 76, 0
1, 43094, Note_on_c, 1, 60, 127
1, 43094, Note_on_c, 1, 69, 127
1, 43254, Note_on_c, 1, 79, 127
1, 43412, Note_off_c, 1, 79, 0
1, 43415, Note_on_c, 1, 78, 127
1, 43415, Note_on_c, 1, 57, 127
1, 43573, Note_off_c, 1, 78, 0
1, 43575, Note_on_c, 1, 81, 127
1, 43728, Note_off_c, 1, 60, 0
1, 43733, Note_off_c, 1, 57, 0
1, 43733, Note_off_c, 1, 81, 0
1, 43735, Note_on_c, 1, 75, 127
1, 43735, Note_on_c, 1, 59, 127
1, 43895, Note_off_c, 1, 69, 0
1, 44056, Note_on_c, 1, 67, 127
1, 44056, Note_on_c, 1, 52, 127
1, 44169, Note_off_c, 1, 75, 0
1, 44216, Note_on_c, 1, 76, 127
1, 44369, Note_off_c, 1, 59, 0
1, 44373, Note_off_c, 1, 67, 0
1, 44374, Note_off_c, 1, 52, 0
1, 44376, Note_on_c, 1, 66, 127
1, 44683, Note_off_c, 1, 76, 0
1, 44697, Note_on_c, 1, 47, 127
1, 45010, Note_off_c, 1, 66, 0
1, 45015, Note_off_c, 1, 47, 0
1, 45178, Note_on_c, 1, 71, 127
1, 45659, Note_on_c, 1, 64, 127
1, 45817, Note_off_c, 1, 64, 0
1, 45819, Note_on_c, 1, 61, 127
1, 45977, Note_off_c, 1, 61, 0
1, 45980, Note_on_c, 1, 62, 127
1, 46138, Note_off_c, 1, 71, 0
1, 46138, Note_off_c, 1, 62, 0
1, 46300, Note_on_c, 1, 61, 127
1, 46461, Note_on_c, 1, 69, 127
1, 46619, Note_off_c, 1, 69, 0
1, 46621, Note_on_c, 1, 71, 127
1, 46779, Note_off_c, 1, 71, 0
1, 46781, Note_on_c, 1, 67, 127
1, 46934, Note_off_c, 1, 61, 0
1, 46939, Note_off_c, 1, 67, 0
1, 46942, Note_on_c, 1, 69, 127
1, 47100, Note_off_c, 1, 69, 0
1, 47102, Note_on_c, 1, 66, 127
1, 47102, Note_on_c, 1, 57, 127
1, 47260, Note_off_c, 1, 66, 0
1, 47260, Note_off_c, 1, 57, 0
1, 47262, Note_on_c, 1, 67, 127
1, 47262, Note_on_c, 1, 59, 127
1, 47420, Note_off_c, 1, 67, 0
1, 47420, Note_off_c, 1, 59, 0
1, 47423, Note_on_c, 1, 76, 127
1, 47423, Note_on_c, 1, 61, 127
1, 47581, Note_off_c, 1, 76, 0
1, 47581, Note_off_c, 1, 61, 0
1, 47583, Note_on_c, 1, 67, 127
1, 47583, Note_on_c, 1, 62, 127
1, 47741, Note_off_c, 1, 67, 0
1, 47743, Note_on_c, 1, 64, 127
1, 47901, Note_off_c, 1, 64, 0
1, 47904, Note_on_c, 1, 66, 127
1, 48064, Note_on_c, 1, 69, 127
1, 48224, Note_on_c, 1, 72, 127
1, 48382, Note_off_c, 1, 62, 0
1, 48384, Note_on_c, 1, 57, 127
1, 48542, Note_off_c, 1, 57, 0
1, 48545, Note_on_c, 1, 54, 127
1, 48698, Note_off_c, 1, 69, 0
1, 48703, Note_off_c, 1, 54, 0
1, 48705, Note_off_c, 1, 66, 0
1, 48705, Note_on_c, 1, 50, 127
1, 48863, Note_off_c, 1, 50, 0
1, 48865, Note_on_c, 1, 55, 127
1, 48958, Note_off_c, 1, 72, 0
1, 49186, Note_on_c, 1, 71, 127
1, 49344, Note_off_c, 1, 71, 0
1, 49346, Note_on_c, 1, 74, 127
1, 49504, Note_off_c, 1, 74, 0
1, 49507, Note_on_c, 1, 77, 127
1, 49664, Note_off_c, 1, 55, 0
1, 49827, Note_on_c, 1, 59, 127
1, 49985, Note_off_c, 1, 59, 0
1, 50148, Note_on_c, 1, 60, 127
1, 50308, Note_off_c, 1, 77, 0
1, 50629, Note_on_c, 1, 76, 127
1, 50787, Note_off_c, 1, 76, 0
1, 50789, Note_on_c, 1, 78, 127
1, 50947, Note_off_c, 1, 60, 0
1, 51106, Note_off_c, 1, 78, 0
1, 51110, Note_on_c, 1, 79, 127
1, 51427, Note_off_c, 1, 79, 0
1, 51431, Note_on_c, 1, 81, 127
1, 51748, Note_off_c, 1, 81, 0
1, 51751, Note_on_c, 1, 83, 127
1, 52068, Note_off_c, 1, 83, 0
1, 52072, Note_on_c, 1, 48, 127
1, 52072, Note_on_c, 1, 76, 127
1, 52230, Note_off_c, 1, 48, 0
1, 52232, Note_on_c, 1, 71, 127
1, 52232, Note_on_c, 1, 52, 127
1, 52390, Note_off_c, 1, 71, 0
1, 52390, Note_off_c, 1, 52, 0
1, 52392, Note_on_c, 1, 45, 127
1, 52392, Note_on_c, 1, 72, 127
1, 52539, Note_off_c, 1, 76, 0
1, 52550, Note_off_c, 1, 45, 0
1, 52553, Note_on_c, 1, 81, 127
1, 52711, Note_off_c, 1, 81, 0
1, 52713, Note_on_c, 1, 79, 127
1, 52713, Note_on_c, 1, 50, 127
1, 52871, Note_off_c, 1, 79, 0
1, 53034, Note_on_c, 1, 78, 127
1, 53034, Note_on_c, 1, 38, 127
1, 53193, Note_off_c, 1, 72, 0
1, 53194, Note_on_c, 1, 69, 127
1, 53351, Note_off_c, 1, 78, 0
1, 53352, Note_off_c, 1, 69, 0
1, 53515, Note_on_c, 1, 67, 127
1, 53832, Note_off_c, 1, 67, 0
1, 53994, Note_off_c, 1, 38, 0
1, 53996, Note_on_c, 1, 66, 127
1, 54149, Note_off_c, 1, 50, 0
1, 54154, Note_off_c, 1, 66, 0
1, 54156, Note_on_c, 1, 62, 127
1, 54156, Note_on_c, 1, 54, 127
1, 54314, Note_off_c, 1, 62, 0
1, 54314, Note_off_c, 1, 54, 0
1, 54316, Note_on_c, 1, 67, 127
1, 54316, Note_on_c, 1, 52, 127
1, 54474, Note_off_c, 1, 67, 0
1, 54474, Note_off_c, 1, 52, 0
1, 54477, Note_on_c, 1, 62, 127
1, 54477, Note_on_c, 1, 55, 127
1, 54635, Note_off_c, 1, 62, 0
1, 54635, Note_off_c, 1, 55, 0
1, 54637, Note_on_c, 1, 69, 127
1, 54637, Note_on_c, 1, 54, 127
1, 54795, Note_off_c, 1, 69, 0
1, 54795, Note_off_c, 1, 54, 0
1, 54797, Note_on_c, 1, 62, 127
1, 54797, Note_on_c, 1, 57, 127
1, 54955, Note_off_c, 1, 62, 0
1, 54955, Note_off_c, 1, 57, 0
1, 54958, Note_on_c, 1, 72, 127
1, 54958, Note_on_c, 1, 50, 127
1, 55116, Note_off_c, 1, 72, 0
1, 55116, Note_off_c, 1, 50, 0
1, 55118, Note_on_c, 1, 69, 127
1, 55118, Note_on_c, 1, 54, 127
1, 55276, Note_off_c, 1, 69, 0
1, 55276, Note_off_c, 1, 54, 0
1, 55278, Note_on_c, 1, 70, 127
1, 55278, Note_on_c, 1, 55, 127
1, 55439, Note_on_c, 1, 62, 127
1, 55595, Note_off_c, 1, 70, 0
1, 55596, Note_off_c, 1, 55, 0
1, 55597, Note_off_c, 1, 62, 0
1, 55599, Note_on_c, 1, 67, 127
1, 55599, Note_on_c, 1, 53, 127
1, 55757, Note_off_c, 1, 67, 0
1, 55759, Note_on_c, 1, 69, 127
1, 55917, Note_off_c, 1, 53, 0
1, 55917, Note_off_c, 1, 69, 0
1, 55920, Note_on_c, 1, 70, 127
1, 55920, Note_on_c, 1, 51, 127
1, 56078, Note_off_c, 1, 70, 0
1, 56080, Note_on_c, 1, 67, 127
1, 56238, Note_off_c, 1, 51, 0
1, 56238, Note_off_c, 1, 67, 0
1, 56240, Note_on_c, 1, 71, 127
1, 56240, Note_on_c, 1, 50, 127
1, 56398, Note_off_c, 1, 71, 0
1, 56400, Note_on_c, 1, 67, 127
1, 56558, Note_off_c, 1, 50, 0
1, 56558, Note_off_c, 1, 67, 0
1, 56561, Note_on_c, 1, 72, 127
1, 56561, Note_on_c, 1, 51, 127
1, 56721, Note_on_c, 1, 67, 127
1, 56794, Note_off_c, 1, 72, 0
1, 56879, Note_off_c, 1, 51, 0
1, 56879, Note_off_c, 1, 67, 0
1, 56881, Note_on_c, 1, 75, 127
1, 56881, Note_on_c, 1, 48, 127
1, 57039, Note_off_c, 1, 75, 0
1, 57042, Note_on_c, 1, 74, 127
1, 57199, Note_off_c, 1, 48, 0
1, 57200, Note_off_c, 1, 74, 0
1, 57202, Note_on_c, 1, 45, 127
1, 57202, Note_on_c, 1, 73, 127
1, 57362, Note_on_c, 1, 67, 127
1, 57520, Note_off_c, 1, 45, 0
1, 57520, Note_off_c, 1, 67, 0
1, 57523, Note_on_c, 1, 66, 127
1, 57523, Note_on_c, 1, 50, 127
1, 57602, Note_off_c, 1, 73, 0
1, 57681, Note_off_c, 1, 66, 0
1, 57683, Note_on_c, 1, 72, 127
1, 57841, Note_off_c, 1, 50, 0
1, 57841, Note_off_c, 1, 72, 0
1, 57843, Note_on_c, 1, 55, 127
1, 57843, Note_on_c, 1, 71, 127
1, 58004, Note_on_c, 1, 65, 127
1, 58161, Note_off_c, 1, 55, 0
1, 58162, Note_off_c, 1, 65, 0
1, 58164, Note_on_c, 1, 64, 127
1, 58164, Note_on_c, 1, 48, 127
1, 58310, Note_off_c, 1, 71, 0
1, 58324, Note_on_c, 1, 60, 127
1, 58324, Note_on_c, 1, 69, 127
1, 58481, Note_off_c, 1, 64, 0
1, 58481, Note_off_c, 1, 48, 0
1, 58482, Note_off_c, 1, 60, 0
1, 58485, Note_on_c, 1, 62, 127
1, 58485, Note_on_c, 1, 59, 127
1, 58485, Note_on_c, 1, 50, 127
1, 58641, Note_off_c, 1, 69, 0
1, 58645, Note_on_c, 1, 67, 127
1, 58802, Note_off_c, 1, 62, 0
1, 58803, Note_off_c, 1, 59, 0
1, 58805, Note_on_c, 1, 57, 127
1, 58962, Note_off_c, 1, 67, 0
1, 58966, Note_on_c, 1, 66, 127
1, 59119, Note_off_c, 1, 50, 0
1, 59123, Note_off_c, 1, 57, 0
1, 59124, Note_off_c, 1, 66, 0
1, 59126, Note_on_c, 1, 55, 127
1, 59126, Note_on_c, 1, 67, 127
1, 59286, Note_on_c, 1, 60, 127
1, 59444, Note_off_c, 1, 60, 0
1, 59447, Note_on_c, 1, 62, 127
1, 59607, Note_on_c, 1, 57, 127
1, 59765, Note_off_c, 1, 57, 0
1, 59767, Note_on_c, 1, 59, 127
1, 59925, Note_off_c, 1, 55, 0
1, 59928, Note_on_c, 1, 54, 127
1, 60086, Note_off_c, 1, 54, 0
1, 60277, Note_on_c, 1, 50, 127
1, 60435, Note_off_c, 1, 50, 0
1, 60485, Note_on_c, 1, 43, 127
1, 60883, Note_off_c, 1, 62, 0
1, 60887, Note_off_c, 1, 59, 0
1, 61046, Note_off_c, 1, 67, 0
1, 61335, Note_off_c, 1, 43, 0
1, 61636, Note_on_c, 1, 79, 127
1, 61807, Note_off_c, 1, 79, 0
1, 61871, Note_on_c, 1, 74, 127
1, 61871, Note_on_c, 1, 79, 127
1, 61871, Note_on_c, 1, 71, 127
1, 61871, Note_on_c, 1, 55, 127
1, 62089, Note_off_c, 1, 74, 0
1, 62089, Note_off_c, 1, 79, 0
1, 62102, Note_on_c, 1, 78, 127
1, 62206, Note_off_c, 1, 71, 0
1, 62215, Note_off_c, 1, 78, 0
1, 62217, Note_on_c, 1, 76, 127
1, 62326, Note_off_c, 1, 55, 0
1, 62330, Note_off_c, 1, 76, 0
1, 62332, Note_on_c, 1, 74, 127
1, 62445, Note_off_c, 1, 74, 0
1, 62447, Note_on_c, 1, 72, 127
1, 62560, Note_off_c, 1, 72, 0
1, 62563, Note_on_c, 1, 71, 127
1, 62563, Note_on_c, 1, 62, 127
1, 62676, Note_off_c, 1, 71, 0
1, 62678, Note_on_c, 1, 69, 127
1, 62781, Note_off_c, 1, 62, 0
1, 62791, Note_off_c, 1, 69, 0
1, 62793, Note_on_c, 1, 71, 127
1, 62793, Note_on_c, 1, 67, 127
1, 62906, Note_off_c, 1, 71, 0
1, 62908, Note_on_c, 1, 74, 127
1, 63011, Note_off_c, 1, 67, 0
1, 63021, Note_off_c, 1, 74, 0
1, 63024, Note_on_c, 1, 69, 127
1, 63024, Note_on_c, 1, 66, 127
1, 63137, Note_off_c, 1, 69, 0
1, 63139, Note_on_c, 1, 72, 127
1, 63242, Note_off_c, 1, 66, 0
1, 63252, Note_off_c, 1, 72, 0
1, 63254, Note_on_c, 1, 71, 127
1, 63254, Note_on_c, 1, 67, 127
1, 63472, Note_off_c, 1, 71, 0
1, 63472, Note_off_c, 1, 67, 0
1, 63485, Note_on_c, 1, 66, 127
1, 63485, Note_on_c, 1, 67, 127
1, 63598, Note_off_c, 1, 66, 0
1, 63600, Note_on_c, 1, 64, 127
1, 63703, Note_off_c, 1, 67, 0
1, 63713, Note_off_c, 1, 64, 0
1, 63715, Note_on_c, 1, 62, 127
1, 63715, Note_on_c, 1, 71, 127
1, 63828, Note_off_c, 1, 62, 0
1, 63830, Note_on_c, 1, 60, 127
1, 63933, Note_off_c, 1, 71, 0
1, 63943, Note_off_c, 1, 60, 0
1, 63945, Note_on_c, 1, 59, 127
1, 63945, Note_on_c, 1, 74, 127
1, 64058, Note_off_c, 1, 59, 0
1, 64061, Note_on_c, 1, 57, 127
1, 64163, Note_off_c, 1, 74, 0
1, 64174, Note_off_c, 1, 57, 0
1, 64176, Note_on_c, 1, 59, 127
1, 64176, Note_on_c, 1, 79, 127
1, 64289, Note_off_c, 1, 59, 0
1, 64291, Note_on_c, 1, 62, 127
1, 64394, Note_off_c, 1, 79, 0
1, 64404, Note_off_c, 1, 62, 0
1, 64406, Note_on_c, 1, 57, 127
1, 64406, Note_on_c, 1, 78, 127
1, 64519, Note_off_c, 1, 57, 0
1, 64522, Note_on_c, 1, 60, 127
1, 64624, Note_off_c, 1, 78, 0
1, 64635, Note_off_c, 1, 60, 0
1, 64637, Note_on_c, 1, 79, 127
1, 64637, Note_on_c, 1, 59, 127
1, 64750, Note_off_c, 1, 79, 0
1, 64752, Note_on_c, 1, 81, 127
1, 64855, Note_off_c, 1, 59, 0
1, 64865, Note_off_c, 1, 81, 0
1, 64867, Note_on_c, 1, 83, 127
1, 64867, Note_on_c, 1, 55, 127
1, 64980, Note_off_c, 1, 83, 0
1, 64982, Note_on_c, 1, 79, 127
1, 65085, Note_off_c, 1, 55, 0
1, 65095, Note_off_c, 1, 79, 0
1, 65098, Note_on_c, 1, 74, 127
1, 65098, Note_on_c, 1, 59, 127
1, 65211, Note_off_c, 1, 74, 0
1, 65213, Note_on_c, 1, 77, 127
1, 65316, Note_off_c, 1, 59, 0
1, 65326, Note_off_c, 1, 77, 0
1, 65328, Note_on_c, 1, 76, 127
1, 65328, Note_on_c, 1, 55, 127
1, 65441, Note_off_c, 1, 76, 0
1, 65443, Note_on_c, 1, 74, 127
1, 65546, Note_off_c, 1, 55, 0
1, 65556, Note_off_c, 1, 74, 0
1, 65559, Note_on_c, 1, 76, 127
1, 65559, Note_on_c, 1, 60, 127
1, 65672, Note_off_c, 1, 76, 0
1, 65674, Note_on_c, 1, 81, 127
1, 65777, Note_off_c, 1, 60, 0
1, 65787, Note_off_c, 1, 81, 0
1, 65789, Note_on_c, 1, 83, 127
1, 65789, Note_on_c, 1, 57, 127
1, 65902, Note_off_c, 1, 83, 0
1, 65904, Note_on_c, 1, 84, 127
1, 66007, Note_off_c, 1, 57, 0
1, 66017, Note_off_c, 1, 84, 0
1, 66020, Note_on_c, 1, 78, 127
1, 66020, Note_on_c, 1, 62, 127
1, 66238, Note_off_c, 1, 78, 0
1, 66238, Note_off_c, 1, 62, 0
1, 66250, Note_on_c, 1, 60, 127
1, 66250, Note_on_c, 1, 74, 127
1, 66363, Note_off_c, 1, 60, 0
1, 66365, Note_on_c, 1, 59, 127
1, 66478, Note_off_c, 1, 74, 0
1, 66480, Note_off_c, 1, 59, 0
1, 66482, Note_on_c, 1, 57, 127
1, 66595, Note_off_c, 1, 57, 0
1, 66597, Note_on_c, 1, 76, 127
1, 66597, Note_on_c, 1, 55, 127
1, 66710, Note_off_c, 1, 76, 0
1, 66710, Note_off_c, 1, 55, 0
1, 66713, Note_on_c, 1, 74, 127
1, 66713, Note_on_c, 1, 54, 127
1, 66826, Note_off_c, 1, 74, 0
1, 66826, Note_off_c, 1, 54, 0
1, 66828, Note_on_c, 1, 72, 127
1, 66828, Note_on_c, 1, 52, 127
1, 66941, Note_off_c, 1, 72, 0
1, 66941, Note_off_c, 1, 52, 0
1, 66943, Note_on_c, 1, 50, 127
1, 66943, Note_on_c, 1, 71, 127
1, 67056, Note_off_c, 1, 50, 0
1, 67058, Note_on_c, 1, 74, 127
1, 67058, Note_on_c, 1, 54, 127
1, 67111, Note_off_c, 1, 71, 0
1, 67173, Note_off_c, 1, 74, 0
1, 67173, Note_off_c, 1, 54, 0
1, 67175, Note_on_c, 1, 48, 127
1, 67175, Note_on_c, 1, 69, 127
1, 67288, Note_off_c, 1, 48, 0
1, 67290, Note_on_c, 1, 74, 127
1, 67290, Note_on_c, 1, 54, 127
1, 67343, Note_off_c, 1, 69, 0
1, 67405, Note_off_c, 1, 74, 0
1, 67405, Note_off_c, 1, 54, 0
1, 67407, Note_on_c, 1, 67, 127
1, 67407, Note_on_c, 1, 47, 127
1, 67523, Note_on_c, 1, 74, 127
1, 67575, Note_off_c, 1, 67, 0
1, 67625, Note_off_c, 1, 47, 0
1, 67636, Note_off_c, 1, 74, 0
1, 67638, Note_on_c, 1, 66, 127
1, 67638, Note_on_c, 1, 45, 127
1, 67753, Note_on_c, 1, 74, 127
1, 67806, Note_off_c, 1, 66, 0
1, 67856, Note_off_c, 1, 45, 0
1, 67866, Note_off_c, 1, 74, 0
1, 67868, Note_on_c, 1, 67, 127
1, 67868, Note_on_c, 1, 47, 127
1, 67981, Note_off_c, 1, 67, 0
1, 67983, Note_on_c, 1, 74, 127
1, 68086, Note_off_c, 1, 47, 0
1, 68096, Note_off_c, 1, 74, 0
1, 68099, Note_on_c, 1, 72, 127
1, 68099, Note_on_c, 1, 43, 127
1, 68212, Note_off_c, 1, 72, 0
1, 68214, Note_on_c, 1, 71, 127
1, 68317, Note_off_c, 1, 43, 0
1, 68327, Note_off_c, 1, 71, 0
1, 68329, Note_on_c, 1, 69, 127
1, 68329, Note_on_c, 1, 45, 127
1, 68442, Note_off_c, 1, 69, 0
1, 68444, Note_on_c, 1, 67, 127
1, 68547, Note_off_c, 1, 45, 0
1, 68557, Note_off_c, 1, 67, 0
1, 68560, Note_on_c, 1, 65, 127
1, 68560, Note_on_c, 1, 47, 127
1, 68675, Note_on_c, 1, 74, 127
1, 68728, Note_off_c, 1, 65, 0
1, 68778, Note_off_c, 1, 47, 0
1, 68788, Note_off_c, 1, 74, 0
1, 68790, Note_on_c, 1, 64, 127
1, 68790, Note_on_c, 1, 48, 127
1, 68905, Note_on_c, 1, 74, 127
1, 68958, Note_off_c, 1, 64, 0
1, 69008, Note_off_c, 1, 48, 0
1, 69018, Note_off_c, 1, 74, 0
1, 69021, Note_on_c, 1, 62, 127
1, 69021, Note_on_c, 1, 47, 127
1, 69136, Note_on_c, 1, 74, 127
1, 69189, Note_off_c, 1, 62, 0
1, 69239, Note_off_c, 1, 47, 0
1, 69249, Note_off_c, 1, 74, 0
1, 69251, Note_on_c, 1, 64, 127
1, 69251, Note_on_c, 1, 48, 127
1, 69364, Note_off_c, 1, 64, 0
1, 69366, Note_on_c, 1, 74, 127
1, 69469, Note_off_c, 1, 48, 0
1, 69479, Note_off_c, 1, 74, 0
1, 69481, Note_on_c, 1, 72, 127
1, 69481, Note_on_c, 1, 45, 127
1, 69594, Note_off_c, 1, 72, 0
1, 69597, Note_on_c, 1, 71, 127
1, 69699, Note_off_c, 1, 45, 0
1, 69710, Note_off_c, 1, 71, 0
1, 69712, Note_on_c, 1, 69, 127
1, 69712, Note_on_c, 1, 47, 127
1, 69825, Note_off_c, 1, 69, 0
1, 69827, Note_on_c, 1, 67, 127
1, 69930, Note_off_c, 1, 47, 0
1, 69940, Note_off_c, 1, 67, 0
1, 69942, Note_on_c, 1, 69, 127
1, 69942, Note_on_c, 1, 48, 127
1, 70055, Note_off_c, 1, 69, 0
1, 70058, Note_on_c, 1, 72, 127
1, 70160, Note_off_c, 1, 48, 0
1, 70171, Note_off_c, 1, 72, 0
1, 70173, Note_on_c, 1, 66, 127
1, 70173, Note_on_c, 1, 50, 127
1, 70286, Note_off_c, 1, 66, 0
1, 70288, Note_on_c, 1, 64, 127
1, 70391, Note_off_c, 1, 50, 0
1, 70401, Note_off_c, 1, 64, 0
1, 70403, Note_on_c, 1, 62, 127
1, 70403, Note_on_c, 1, 48, 127
1, 70516, Note_off_c, 1, 62, 0
1, 70516, Note_off_c, 1, 48, 0
1, 70519, Note_on_c, 1, 64, 127
1, 70519, Note_on_c, 1, 47, 127
1, 70632, Note_off_c, 1, 64, 0
1, 70632, Note_off_c, 1, 47, 0
1, 70634, Note_on_c, 1, 66, 127
1, 70634, Note_on_c, 1, 45, 127
1, 70747, Note_off_c, 1, 66, 0
1, 70747, Note_off_c, 1, 45, 0
1, 70749, Note_on_c, 1, 67, 127
1, 70749, Note_on_c, 1, 43, 127
1, 70862, Note_off_c, 1, 67, 0
1, 70862, Note_off_c, 1, 43, 0
1, 70864, Note_on_c, 1, 69, 127
1, 70864, Note_on_c, 1, 42, 127
1, 70977, Note_off_c, 1, 69, 0
1, 70977, Note_off_c, 1, 42, 0
1, 70979, Note_on_c, 1, 71, 127
1, 70979, Note_on_c, 1, 40, 127
1, 71092, Note_off_c, 1, 71, 0
1, 71092, Note_off_c, 1, 40, 0
1, 71095, Note_on_c, 1, 72, 127
1, 71095, Note_on_c, 1, 38, 127
1, 71208, Note_off_c, 1, 72, 0
1, 71208, Note_off_c, 1, 38, 0
1, 71210, Note_on_c, 1, 69, 127
1, 71210, Note_on_c, 1, 42, 127
1, 71323, Note_off_c, 1, 69, 0
1, 71323, Note_off_c, 1, 42, 0
1, 71325, Note_on_c, 1, 74, 127
1, 71325, Note_on_c, 1, 45, 127
1, 71438, Note_off_c, 1, 74, 0
1, 71438, Note_off_c, 1, 45, 0
1, 71440, Note_on_c, 1, 69, 127
1, 71440, Note_on_c, 1, 50, 127
1, 71553, Note_off_c, 1, 69, 0
1, 71553, Note_off_c, 1, 50, 0
1, 71556, Note_on_c, 1, 71, 127
1, 71556, Note_on_c, 1, 43, 127
1, 71671, Note_on_c, 1, 67, 127
1, 71784, Note_off_c, 1, 67, 0
1, 71786, Note_on_c, 1, 66, 127
1, 71899, Note_off_c, 1, 66, 0
1, 71901, Note_on_c, 1, 64, 127
1, 72014, Note_off_c, 1, 64, 0
1, 72017, Note_on_c, 1, 62, 127
1, 72130, Note_off_c, 1, 62, 0
1, 72132, Note_on_c, 1, 60, 127
1, 72245, Note_off_c, 1, 60, 0
1, 72247, Note_on_c, 1, 59, 127
1, 72360, Note_off_c, 1, 59, 0
1, 72362, Note_on_c, 1, 57, 127
1, 72475, Note_off_c, 1, 57, 0
1, 72476, Note_off_c, 1, 71, 0
1, 72476, Note_off_c, 1, 43, 0
1, 72477, Note_on_c, 1, 55, 127
1, 72590, Note_off_c, 1, 55, 0
1, 72593, Note_on_c, 1, 59, 127
1, 72706, Note_off_c, 1, 59, 0
1, 72708, Note_on_c, 1, 54, 127
1, 72708, Note_on_c, 1, 71, 127
1, 72821, Note_off_c, 1, 54, 0
1, 72823, Note_on_c, 1, 57, 127
1, 72923, Note_off_c, 1, 71, 0
1, 72938, Note_off_c, 1, 57, 0
1, 72940, Note_on_c, 1, 76, 127
1, 72940, Note_on_c, 1, 55, 127
1, 73053, Note_off_c, 1, 76, 0
1, 73055, Note_on_c, 1, 78, 127
1, 73158, Note_off_c, 1, 55, 0
1, 73168, Note_off_c, 1, 78, 0
1, 73171, Note_on_c, 1, 79, 127
1, 73171, Note_on_c, 1, 52, 127
1, 73284, Note_off_c, 1, 79, 0
1, 73286, Note_on_c, 1, 76, 127
1, 73389, Note_off_c, 1, 52, 0
1, 73399, Note_off_c, 1, 76, 0
1, 73401, Note_on_c, 1, 71, 127
1, 73401, Note_on_c, 1, 55, 127
1, 73516, Note_on_c, 1, 76, 127
1, 73544, Note_off_c, 1, 71, 0
1, 73619, Note_off_c, 1, 55, 0
1, 73629, Note_off_c, 1, 76, 0
1, 73631, Note_on_c, 1, 78, 127
1, 73631, Note_on_c, 1, 52, 127
1, 73744, Note_off_c, 1, 78, 0
1, 73747, Note_on_c, 1, 79, 127
1, 73849, Note_off_c, 1, 52, 0
1, 73860, Note_off_c, 1, 79, 0
1, 73862, Note_on_c, 1, 75, 127
1, 73862, Note_on_c, 1, 59, 127
1, 73977, Note_on_c, 1, 81, 127
1, 74005, Note_off_c, 1, 75, 0
1, 74080, Note_off_c, 1, 59, 0
1, 74090, Note_off_c, 1, 81, 0
1, 74092, Note_on_c, 1, 79, 127
1, 74092, Note_on_c, 1, 47, 127
1, 74205, Note_off_c, 1, 79, 0
1, 74208, Note_on_c, 1, 78, 127
1, 74310, Note_off_c, 1, 47, 0
1, 74321, Note_off_c, 1, 78, 0
1, 74323, Note_on_c, 1, 52, 127
1, 74323, Note_on_c, 1, 79, 127
1, 74436, Note_off_c, 1, 52, 0
1, 74438, Note_on_c, 1, 54, 127
1, 74541, Note_off_c, 1, 79, 0
1, 74551, Note_off_c, 1, 54, 0
1, 74553, Note_on_c, 1, 55, 127
1, 74553, Note_on_c, 1, 76, 127
1, 74666, Note_off_c, 1, 55, 0
1, 74668, Note_on_c, 1, 52, 127
1, 74771, Note_off_c, 1, 76, 0
1, 74781, Note_off_c, 1, 52, 0
1, 74784, Note_on_c, 1, 49, 127
1, 74784, Note_on_c, 1, 79, 127
1, 74897, Note_off_c, 1, 49, 0
1, 74899, Note_on_c, 1, 55, 127
1, 75002, Note_off_c, 1, 79, 0
1, 75012, Note_off_c, 1, 55, 0
1, 75014, Note_on_c, 1, 47, 127
1, 75014, Note_on_c, 1, 74, 127
1, 75127, Note_off_c, 1, 47, 0
1, 75129, Note_on_c, 1, 55, 127
1, 75232, Note_off_c, 1, 74, 0
1, 75242, Note_off_c, 1, 55, 0
1, 75245, Note_on_c, 1, 45, 127
1, 75245, Note_on_c, 1, 73, 127
1, 75358, Note_off_c, 1, 45, 0
1, 75360, Note_on_c, 1, 55, 127
1, 75463, Note_off_c, 1, 73, 0
1, 75473, Note_off_c, 1, 55, 0
1, 75475, Note_on_c, 1, 54, 127
1, 75475, Note_on_c, 1, 81, 127
1, 75588, Note_off_c, 1, 54, 0
1, 75590, Note_on_c, 1, 52, 127
1, 75693, Note_off_c, 1, 81, 0
1, 75703, Note_off_c, 1, 52, 0
1, 75706, Note_on_c, 1, 74, 127
1, 75706, Note_on_c, 1, 54, 127
1, 75819, Note_off_c, 1, 74, 0
1, 75821, Note_on_c, 1, 76, 127
1, 75924, Note_off_c, 1, 54, 0
1, 75934, Note_off_c, 1, 76, 0
1, 75936, Note_on_c, 1, 78, 127
1, 75936, Note_on_c, 1, 50, 127
1, 76049, Note_off_c, 1, 78, 0
1, 76051, Note_on_c, 1, 74, 127
1, 76154, Note_off_c, 1, 50, 0
1, 76164, Note_off_c, 1, 74, 0
1, 76166, Note_on_c, 1, 69, 127
1, 76166, Note_on_c, 1, 54, 127
1, 76279, Note_off_c, 1, 69, 0
1, 76282, Note_on_c, 1, 72, 127
1, 76384, Note_off_c, 1, 54, 0
1, 76395, Note_off_c, 1, 72, 0
1, 76397, Note_on_c, 1, 71, 127
1, 76397, Note_on_c, 1, 50, 127
1, 76510, Note_off_c, 1, 71, 0
1, 76512, Note_on_c, 1, 69, 127
1, 76615, Note_off_c, 1, 50, 0
1, 76625, Note_off_c, 1, 69, 0
1, 76627, Note_on_c, 1, 71, 127
1, 76627, Note_on_c, 1, 55, 127
1, 76740, Note_off_c, 1, 71, 0
1, 76743, Note_on_c, 1, 76, 127
1, 76845, Note_off_c, 1, 55, 0
1, 76856, Note_off_c, 1, 76, 0
1, 76858, Note_on_c, 1, 78, 127
1, 76858, Note_on_c, 1, 52, 127
1, 76971, Note_off_c, 1, 78, 0
1, 76973, Note_on_c, 1, 79, 127
1, 77076, Note_off_c, 1, 52, 0
1, 77086, Note_off_c, 1, 79, 0
1, 77088, Note_on_c, 1, 73, 127
1, 77088, Note_on_c, 1, 57, 127
1, 77306, Note_off_c, 1, 73, 0
1, 77306, Note_off_c, 1, 57, 0
1, 77319, Note_on_c, 1, 55, 127
1, 77319, Note_on_c, 1, 69, 127
1, 77432, Note_off_c, 1, 55, 0
1, 77434, Note_on_c, 1, 54, 127
1, 77547, Note_off_c, 1, 69, 0
1, 77549, Note_off_c, 1, 54, 0
1, 77551, Note_on_c, 1, 52, 127
1, 77664, Note_off_c, 1, 52, 0
1, 77666, Note_on_c, 1, 50, 127
1, 77779, Note_off_c, 1, 50, 0
1, 77781, Note_on_c, 1, 69, 127
1, 77781, Note_on_c, 1, 49, 127
1, 77894, Note_off_c, 1, 69, 0
1, 77894, Note_off_c, 1, 49, 0
1, 77897, Note_on_c, 1, 71, 127
1, 77897, Note_on_c, 1, 47, 127
1, 78010, Note_off_c, 1, 71, 0
1, 78010, Note_off_c, 1, 47, 0
1, 78012, Note_on_c, 1, 73, 127
1, 78012, Note_on_c, 1, 45, 127
1, 78125, Note_off_c, 1, 73, 0
1, 78125, Note_off_c, 1, 45, 0
1, 78127, Note_on_c, 1, 74, 127
1, 78127, Note_on_c, 1, 52, 127
1, 78240, Note_off_c, 1, 74, 0
1, 78240, Note_off_c, 1, 52, 0
1, 78242, Note_on_c, 1, 76, 127
1, 78242, Note_on_c, 1, 43, 127
1, 78355, Note_off_c, 1, 76, 0
1, 78355, Note_off_c, 1, 43, 0
1, 78358, Note_on_c, 1, 73, 127
1, 78358, Note_on_c, 1, 52, 127
1, 78471, Note_off_c, 1, 73, 0
1, 78471, Note_off_c, 1, 52, 0
1, 78473, Note_on_c, 1, 74, 127
1, 78473, Note_on_c, 1, 42, 127
1, 78586, Note_off_c, 1, 74, 0
1, 78588, Note_on_c, 1, 76, 127
1, 78691, Note_off_c, 1, 42, 0
1, 78701, Note_off_c, 1, 76, 0
1, 78703, Note_on_c, 1, 69, 127
1, 78703, Note_on_c, 1, 40, 127
1, 78816, Note_off_c, 1, 69, 0
1, 78818, Note_on_c, 1, 73, 127
1, 78921, Note_off_c, 1, 40, 0
1, 78931, Note_off_c, 1, 73, 0
1, 78934, Note_on_c, 1, 74, 127
1, 78934, Note_on_c, 1, 42, 127
1, 79047, Note_off_c, 1, 74, 0
1, 79049, Note_on_c, 1, 76, 127
1, 79152, Note_off_c, 1, 42, 0
1, 79162, Note_off_c, 1, 76, 0
1, 79164, Note_on_c, 1, 69, 127
1, 79164, Note_on_c, 1, 45, 127
1, 79279, Note_on_c, 1, 74, 127
1, 79332, Note_off_c, 1, 69, 0
1, 79382, Note_off_c, 1, 45, 0
1, 79392, Note_off_c, 1, 74, 0
1, 79395, Note_on_c, 1, 66, 127
1, 79395, Note_on_c, 1, 50, 127
1, 79510, Note_on_c, 1, 74, 127
1, 79563, Note_off_c, 1, 66, 0
1, 79613, Note_off_c, 1, 50, 0
1, 79623, Note_off_c, 1, 74, 0
1, 79625, Note_on_c, 1, 69, 127
1, 79625, Note_on_c, 1, 42, 127
1, 79740, Note_on_c, 1, 76, 127
1, 79793, Note_off_c, 1, 69, 0
1, 79843, Note_off_c, 1, 42, 0
1, 79853, Note_off_c, 1, 76, 0
1, 79856, Note_on_c, 1, 74, 127
1, 79856, Note_on_c, 1, 43, 127
1, 79969, Note_off_c, 1, 74, 0
1, 79971, Note_on_c, 1, 76, 127
1, 80074, Note_off_c, 1, 43, 0
1, 80084, Note_off_c, 1, 76, 0
1, 80086, Note_on_c, 1, 71, 127
1, 80086, Note_on_c, 1, 45, 127
1, 80199, Note_off_c, 1, 71, 0
1, 80201, Note_on_c, 1, 73, 127
1, 80304, Note_off_c, 1, 45, 0
1, 80314, Note_off_c, 1, 73, 0
1, 80316, Note_on_c, 1, 74, 127
1, 80316, Note_on_c, 1, 47, 127
1, 80429, Note_off_c, 1, 74, 0
1, 80432, Note_on_c, 1, 76, 127
1, 80534, Note_off_c, 1, 47, 0
1, 80545, Note_off_c, 1, 76, 0
1, 80547, Note_on_c, 1, 71, 127
1, 80547, Note_on_c, 1, 43, 127
1, 80662, Note_on_c, 1, 74, 127
1, 80715, Note_off_c, 1, 71, 0
1, 80765, Note_off_c, 1, 43, 0
1, 80775, Note_off_c, 1, 74, 0
1, 80777, Note_on_c, 1, 67, 127
1, 80777, Note_on_c, 1, 40, 127
1, 80893, Note_on_c, 1, 74, 127
1, 80945, Note_off_c, 1, 67, 0
1, 80995, Note_off_c, 1, 40, 0
1, 81006, Note_off_c, 1, 74, 0
1, 81008, Note_on_c, 1, 71, 127
1, 81008, Note_on_c, 1, 43, 127
1, 81123, Note_on_c, 1, 74, 127
1, 81176, Note_off_c, 1, 71, 0
1, 81226, Note_off_c, 1, 43, 0
1, 81236, Note_off_c, 1, 74, 0
1, 81238, Note_on_c, 1, 73, 127
1, 81238, Note_on_c, 1, 45, 127
1, 81351, Note_off_c, 1, 73, 0
1, 81354, Note_on_c, 1, 74, 127
1, 81456, Note_off_c, 1, 45, 0
1, 81467, Note_off_c, 1, 74, 0
1, 81469, Note_on_c, 1, 76, 127
1, 81469, Note_on_c, 1, 47, 127
1, 81582, Note_off_c, 1, 76, 0
1, 81584, Note_on_c, 1, 73, 127
1, 81687, Note_off_c, 1, 47, 0
1, 81697, Note_off_c, 1, 73, 0
1, 81699, Note_on_c, 1, 67, 127
1, 81699, Note_on_c, 1, 49, 127
1, 81812, Note_off_c, 1, 67, 0
1, 81814, Note_on_c, 1, 71, 127
1, 81917, Note_off_c, 1, 49, 0
1, 81927, Note_off_c, 1, 71, 0
1, 81930, Note_on_c, 1, 69, 127
1, 81930, Note_on_c, 1, 50, 127
1, 82043, Note_off_c, 1, 69, 0
1, 82045, Note_on_c, 1, 67, 127
1, 82148, Note_off_c, 1, 50, 0
1, 82158, Note_off_c, 1, 67, 0
1, 82160, Note_on_c, 1, 66, 127
1, 82160, Note_on_c, 1, 45, 127
1, 82275, Note_on_c, 1, 74, 127
1, 82303, Note_off_c, 1, 66, 0
1, 82378, Note_off_c, 1, 45, 0
1, 82391, Note_on_c, 1, 64, 127
1, 82391, Note_on_c, 1, 55, 127
1, 82418, Note_off_c, 1, 74, 0
1, 82506, Note_on_c, 1, 73, 127
1, 82534, Note_off_c, 1, 64, 0
1, 82609, Note_off_c, 1, 55, 0
1, 82619, Note_off_c, 1, 73, 0
1, 82621, Note_on_c, 1, 74, 127
1, 82621, Note_on_c, 1, 54, 127
1, 82839, Note_off_c, 1, 74, 0
1, 82851, Note_on_c, 1, 73, 127
1, 82851, Note_on_c, 1, 50, 127
1, 82964, Note_off_c, 1, 73, 0
1, 82967, Note_on_c, 1, 71, 127
1, 83076, Note_off_c, 1, 54, 0
1, 83080, Note_off_c, 1, 71, 0
1, 83082, Note_on_c, 1, 69, 127
1, 83195, Note_off_c, 1, 69, 0
1, 83197, Note_on_c, 1, 67, 127
1, 83310, Note_off_c, 1, 67, 0
1, 83312, Note_on_c, 1, 66, 127
1, 83312, Note_on_c, 1, 57, 127
1, 83425, Note_off_c, 1, 66, 0
1, 83428, Note_on_c, 1, 64, 127
1, 83540, Note_off_c, 1, 57, 0
1, 83543, Note_off_c, 1, 64, 0
1, 83545, Note_on_c, 1, 62, 127
1, 83890, Note_off_c, 1, 62, 0
1, 83892, Note_on_c, 1, 78, 127
1, 84005, Note_off_c, 1, 78, 0
1, 84006, Note_off_c, 1, 50, 0
1, 84007, Note_on_c, 1, 62, 127
1, 84007, Note_on_c, 1, 69, 127
1, 84007, Note_on_c, 1, 74, 127
1, 84007, Note_on_c, 1, 78, 127
1, 84225, Note_off_c, 1, 62, 0
1, 84238, Note_on_c, 1, 60, 127
1, 84351, Note_off_c, 1, 60, 0
1, 84353, Note_on_c, 1, 59, 127
1, 84466, Note_off_c, 1, 59, 0
1, 84468, Note_on_c, 1, 57, 127
1, 84581, Note_off_c, 1, 57, 0
1, 84583, Note_on_c, 1, 55, 127
1, 84696, Note_off_c, 1, 69, 0
1, 84696, Note_off_c, 1, 74, 0
1, 84696, Note_off_c, 1, 78, 0
1, 84696, Note_off_c, 1, 55, 0
1, 84699, Note_on_c, 1, 74, 127
1, 84699, Note_on_c, 1, 54, 127
1, 84812, Note_off_c, 1, 74, 0
1, 84812, Note_off_c, 1, 54, 0
1, 84814, Note_on_c, 1, 76, 127
1, 84814, Note_on_c, 1, 52, 127
1, 84927, Note_off_c, 1, 76, 0
1, 84927, Note_off_c, 1, 52, 0
1, 84929, Note_on_c, 1, 78, 127
1, 84929, Note_on_c, 1, 50, 127
1, 85042, Note_off_c, 1, 78, 0
1, 85042, Note_off_c, 1, 50, 0
1, 85044, Note_on_c, 1, 79, 127
1, 85044, Note_on_c, 1, 57, 127
1, 85157, Note_off_c, 1, 79, 0
1, 85157, Note_off_c, 1, 57, 0
1, 85159, Note_on_c, 1, 81, 127
1, 85159, Note_on_c, 1, 48, 127
1, 85272, Note_off_c, 1, 81, 0
1, 85272, Note_off_c, 1, 48, 0
1, 85275, Note_on_c, 1, 78, 127
1, 85275, Note_on_c, 1, 57, 127
1, 85388, Note_off_c, 1, 78, 0
1, 85388, Note_off_c, 1, 57, 0
1, 85390, Note_on_c, 1, 79, 127
1, 85390, Note_on_c, 1, 47, 127
1, 85608, Note_off_c, 1, 79, 0
1, 85608, Note_off_c, 1, 47, 0
1, 85620, Note_on_c, 1, 78, 127
1, 85620, Note_on_c, 1, 50, 127
1, 85733, Note_off_c, 1, 78, 0
1, 85736, Note_on_c, 1, 76, 127
1, 85838, Note_off_c, 1, 50, 0
1, 85849, Note_off_c, 1, 76, 0
1, 85851, Note_on_c, 1, 74, 127
1, 85851, Note_on_c, 1, 55, 127
1, 85964, Note_off_c, 1, 74, 0
1, 85966, Note_on_c, 1, 72, 127
1, 86069, Note_off_c, 1, 55, 0
1, 86079, Note_off_c, 1, 72, 0
1, 86081, Note_on_c, 1, 71, 127
1, 86081, Note_on_c, 1, 57, 127
1, 86194, Note_off_c, 1, 71, 0
1, 86197, Note_on_c, 1, 69, 127
1, 86299, Note_off_c, 1, 57, 0
1, 86310, Note_off_c, 1, 69, 0
1, 86312, Note_on_c, 1, 67, 127
1, 86312, Note_on_c, 1, 59, 127
1, 86425, Note_off_c, 1, 67, 0
1, 86427, Note_on_c, 1, 71, 127
1, 86530, Note_off_c, 1, 59, 0
1, 86540, Note_off_c, 1, 71, 0
1, 86542, Note_on_c, 1, 74, 127
1, 86542, Note_on_c, 1, 55, 127
1, 86655, Note_off_c, 1, 74, 0
1, 86657, Note_on_c, 1, 77, 127
1, 86760, Note_off_c, 1, 55, 0
1, 86770, Note_off_c, 1, 77, 0
1, 86773, Note_on_c, 1, 76, 127
1, 86773, Note_on_c, 1, 60, 127
1, 86886, Note_off_c, 1, 76, 0
1, 86888, Note_on_c, 1, 74, 127
1, 86991, Note_off_c, 1, 60, 0
1, 87001, Note_off_c, 1, 74, 0
1, 87003, Note_on_c, 1, 72, 127
1, 87003, Note_on_c, 1, 64, 127
1, 87116, Note_off_c, 1, 72, 0
1, 87118, Note_on_c, 1, 71, 127
1, 87221, Note_off_c, 1, 64, 0
1, 87231, Note_off_c, 1, 71, 0
1, 87234, Note_on_c, 1, 69, 127
1, 87234, Note_on_c, 1, 60, 127
1, 87347, Note_off_c, 1, 69, 0
1, 87349, Note_on_c, 1, 78, 127
1, 87452, Note_off_c, 1, 60, 0
1, 87462, Note_off_c, 1, 78, 0
1, 87464, Note_on_c, 1, 79, 127
1, 87464, Note_on_c, 1, 59, 127
1, 87577, Note_off_c, 1, 79, 0
1, 87579, Note_on_c, 1, 81, 127
1, 87682, Note_off_c, 1, 59, 0
1, 87692, Note_off_c, 1, 81, 0
1, 87694, Note_on_c, 1, 79, 127
1, 87694, Note_on_c, 1, 60, 127
1, 87807, Note_off_c, 1, 79, 0
1, 87810, Note_on_c, 1, 78, 127
1, 87912, Note_off_c, 1, 60, 0
1, 87923, Note_off_c, 1, 78, 0
1, 87925, Note_on_c, 1, 79, 127
1, 87925, Note_on_c, 1, 57, 127
1, 88038, Note_off_c, 1, 79, 0
1, 88040, Note_on_c, 1, 76, 127
1, 88143, Note_off_c, 1, 57, 0
1, 88153, Note_off_c, 1, 76, 0
1, 88155, Note_on_c, 1, 75, 127
1, 88155, Note_on_c, 1, 59, 127
1, 88373, Note_off_c, 1, 75, 0
1, 88373, Note_off_c, 1, 59, 0
1, 88386, Note_on_c, 1, 57, 127
1, 88386, Note_on_c, 1, 71, 127
1, 88499, Note_off_c, 1, 57, 0
1, 88501, Note_on_c, 1, 55, 127
1, 88614, Note_off_c, 1, 71, 0
1, 88616, Note_off_c, 1, 55, 0
1, 88618, Note_on_c, 1, 54, 127
1, 88731, Note_off_c, 1, 54, 0
1, 88733, Note_on_c, 1, 52, 127
1, 88846, Note_off_c, 1, 52, 0
1, 88848, Note_on_c, 1, 83, 127
1, 88848, Note_on_c, 1, 51, 127
1, 88961, Note_off_c, 1, 83, 0
1, 88961, Note_off_c, 1, 51, 0
1, 88964, Note_on_c, 1, 81, 127
1, 88964, Note_on_c, 1, 49, 127
1, 89077, Note_off_c, 1, 81, 0
1, 89077, Note_off_c, 1, 49, 0
1, 89079, Note_on_c, 1, 79, 127
1, 89079, Note_on_c, 1, 47, 127
1, 89192, Note_off_c, 1, 79, 0
1, 89192, Note_off_c, 1, 47, 0
1, 89194, Note_on_c, 1, 78, 127
1, 89194, Note_on_c, 1, 54, 127
1, 89307, Note_off_c, 1, 78, 0
1, 89307, Note_off_c, 1, 54, 0
1, 89309, Note_on_c, 1, 76, 127
1, 89309, Note_on_c, 1, 45, 127
1, 89422, Note_off_c, 1, 76, 0
1, 89422, Note_off_c, 1, 45, 0
1, 89425, Note_on_c, 1, 75, 127
1, 89425, Note_on_c, 1, 54, 127
1, 89538, Note_off_c, 1, 75, 0
1, 89538, Note_off_c, 1, 54, 0
1, 89540, Note_on_c, 1, 43, 127
1, 89540, Note_on_c, 1, 76, 127
1, 89653, Note_off_c, 1, 43, 0
1, 89655, Note_on_c, 1, 45, 127
1, 89758, Note_off_c, 1, 76, 0
1, 89768, Note_off_c, 1, 45, 0
1, 89770, Note_on_c, 1, 78, 127
1, 89770, Note_on_c, 1, 42, 127
1, 89883, Note_off_c, 1, 78, 0
1, 89883, Note_off_c, 1, 42, 0
1, 89886, Note_on_c, 1, 75, 127
1, 89886, Note_on_c, 1, 45, 127
1, 89999, Note_off_c, 1, 75, 0
1, 89999, Note_off_c, 1, 45, 0
1, 90001, Note_on_c, 1, 43, 127
1, 90001, Note_on_c, 1, 76, 127
1, 90114, Note_off_c, 1, 43, 0
1, 90116, Note_on_c, 1, 45, 127
1, 90219, Note_off_c, 1, 76, 0
1, 90229, Note_off_c, 1, 45, 0
1, 90231, Note_on_c, 1, 78, 127
1, 90231, Note_on_c, 1, 42, 127
1, 90344, Note_off_c, 1, 78, 0
1, 90344, Note_off_c, 1, 42, 0
1, 90346, Note_on_c, 1, 75, 127
1, 90346, Note_on_c, 1, 45, 127
1, 90459, Note_off_c, 1, 75, 0
1, 90459, Note_off_c, 1, 45, 0
1, 90462, Note_on_c, 1, 43, 127
1, 90462, Note_on_c, 1, 76, 127
1, 90575, Note_off_c, 1, 43, 0
1, 90577, Note_on_c, 1, 47, 127
1, 90690, Note_off_c, 1, 47, 0
1, 90692, Note_on_c, 1, 40, 127
1, 90692, Note_on_c, 1, 71, 127
1, 90805, Note_off_c, 1, 40, 0
1, 90910, Note_off_c, 1, 71, 0
1, 90923, Note_on_c, 1, 45, 127
1, 90923, Note_on_c, 1, 72, 127
1, 91036, Note_off_c, 1, 45, 0
1, 91141, Note_off_c, 1, 72, 0
1, 91153, Note_on_c, 1, 74, 127
1, 91266, Note_off_c, 1, 74, 0
1, 91960, Note_on_c, 1, 48, 127
1, 92073, Note_off_c, 1, 48, 0
1, 92075, Note_on_c, 1, 42, 127
1, 92075, Note_on_c, 1, 81, 127
1, 92081, Note_off_c, 1, 76, 0
1, 92188, Note_off_c, 1, 42, 0
1, 92293, Note_off_c, 1, 81, 0
1, 92305, Note_on_c, 1, 71, 127
1, 92305, Note_on_c, 1, 79, 127
1, 92305, Note_on_c, 1, 47, 127
1, 92523, Note_off_c, 1, 71, 0
1, 92523, Note_off_c, 1, 79, 0
1, 92523, Note_off_c, 1, 47, 0
1, 92536, Note_on_c, 1, 49, 127
1, 92536, Note_on_c, 1, 69, 127
1, 92536, Note_on_c, 1, 78, 127
1, 92649, Note_off_c, 1, 49, 0
1, 92651, Note_on_c, 1, 51, 127
1, 92754, Note_off_c, 1, 69, 0
1, 92764, Note_off_c, 1, 51, 0
1, 92766, Note_on_c, 1, 52, 127
1, 92766, Note_on_c, 1, 67, 127
1, 92879, Note_off_c, 1, 52, 0
1, 92882, Note_on_c, 1, 54, 127
1, 92991, Note_off_c, 1, 78, 0
1, 92995, Note_off_c, 1, 54, 0
1, 92997, Note_on_c, 1, 55, 127
1, 92997, Note_on_c, 1, 76, 127
1, 93110, Note_off_c, 1, 55, 0
1, 93112, Note_on_c, 1, 57, 127
1, 93221, Note_off_c, 1, 67, 0
1, 93225, Note_off_c, 1, 57, 0
1, 93227, Note_on_c, 1, 59, 127
1, 93227, Note_on_c, 1, 66, 127
1, 93332, Note_off_c, 1, 76, 0
1, 93445, Note_off_c, 1, 59, 0
1, 93458, Note_on_c, 1, 47, 127
1, 93573, Note_on_c, 1, 75, 127
1, 93676, Note_off_c, 1, 47, 0
1, 93682, Note_off_c, 1, 66, 0
1, 93686, Note_off_c, 1, 75, 0
1, 93688, Note_on_c, 1, 52, 127
1, 93688, Note_on_c, 1, 76, 127
1, 93906, Note_off_c, 1, 52, 0
1, 93919, Note_on_c, 1, 54, 127
1, 93919, Note_on_c, 1, 72, 127
1, 94032, Note_off_c, 1, 54, 0
1, 94034, Note_on_c, 1, 55, 127
1, 94137, Note_off_c, 1, 72, 0
1, 94147, Note_off_c, 1, 55, 0
1, 94149, Note_on_c, 1, 57, 127
1, 94149, Note_on_c, 1, 71, 127
1, 94262, Note_off_c, 1, 57, 0
1, 94264, Note_on_c, 1, 59, 127
1, 94367, Note_off_c, 1, 71, 0
1, 94377, Note_off_c, 1, 59, 0
1, 94380, Note_on_c, 1, 61, 127
1, 94380, Note_on_c, 1, 69, 127
1, 94493, Note_off_c, 1, 61, 0
1, 94495, Note_on_c, 1, 63, 127
1, 94598, Note_off_c, 1, 69, 0
1, 94608, Note_off_c, 1, 63, 0
1, 94610, Note_on_c, 1, 64, 127
1, 94610, Note_on_c, 1, 67, 127
1, 94723, Note_off_c, 1, 64, 0
1, 94828, Note_off_c, 1, 67, 0
1, 94840, Note_on_c, 1, 62, 127
1, 94953, Note_off_c, 1, 62, 0
1, 95058, Note_off_c, 1, 76, 0
1, 95071, Note_on_c, 1, 61, 127
1, 95071, Note_on_c, 1, 69, 127
1, 95184, Note_off_c, 1, 61, 0
1, 95186, Note_on_c, 1, 62, 127
1, 95289, Note_off_c, 1, 69, 0
1, 95299, Note_off_c, 1, 62, 0
1, 95301, Note_on_c, 1, 71, 127
1, 95301, Note_on_c, 1, 61, 127
1, 95414, Note_off_c, 1, 71, 0
1, 95414, Note_off_c, 1, 61, 0
1, 95417, Note_on_c, 1, 73, 127
1, 95417, Note_on_c, 1, 59, 127
1, 95530, Note_off_c, 1, 73, 0
1, 95530, Note_off_c, 1, 59, 0
1, 95532, Note_on_c, 1, 74, 127
1, 95532, Note_on_c, 1, 57, 127
1, 95645, Note_off_c, 1, 74, 0
1, 95645, Note_off_c, 1, 57, 0
1, 95647, Note_on_c, 1, 76, 127
1, 95647, Note_on_c, 1, 55, 127
1, 95760, Note_off_c, 1, 76, 0
1, 95760, Note_off_c, 1, 55, 0
1, 95762, Note_on_c, 1, 78, 127
1, 95762, Note_on_c, 1, 54, 127
1, 95875, Note_off_c, 1, 78, 0
1, 95875, Note_off_c, 1, 54, 0
1, 95877, Note_on_c, 1, 79, 127
1, 95877, Note_on_c, 1, 52, 127
1, 95990, Note_off_c, 1, 79, 0
1, 95990, Note_off_c, 1, 52, 0
1, 95993, Note_on_c, 1, 81, 127
1, 95993, Note_on_c, 1, 54, 127
1, 96106, Note_off_c, 1, 81, 0
1, 96106, Note_off_c, 1, 54, 0
1, 96108, Note_on_c, 1, 78, 127
1, 96108, Note_on_c, 1, 62, 127
1, 96221, Note_off_c, 1, 78, 0
1, 96221, Note_off_c, 1, 62, 0
1, 96223, Note_on_c, 1, 79, 127
1, 96223, Note_on_c, 1, 52, 127
1, 96336, Note_off_c, 1, 79, 0
1, 96336, Note_off_c, 1, 52, 0
1, 96338, Note_on_c, 1, 76, 127
1, 96338, Note_on_c, 1, 61, 127
1, 96451, Note_off_c, 1, 76, 0
1, 96451, Note_off_c, 1, 61, 0
1, 96454, Note_on_c, 1, 78, 127
1, 96454, Note_on_c, 1, 62, 127
1, 96567, Note_off_c, 1, 78, 0
1, 96569, Note_on_c, 1, 79, 127
1, 96672, Note_off_c, 1, 62, 0
1, 96682, Note_off_c, 1, 79, 0
1, 96684, Note_on_c, 1, 78, 127
1, 96684, Note_on_c, 1, 50, 127
1, 96797, Note_off_c, 1, 78, 0
1, 96797, Note_off_c, 1, 50, 0
1, 96799, Note_on_c, 1, 76, 127
1, 96799, Note_on_c, 1, 52, 127
1, 96912, Note_off_c, 1, 76, 0
1, 96912, Note_off_c, 1, 52, 0
1, 96915, Note_on_c, 1, 74, 127
1, 96915, Note_on_c, 1, 54, 127
1, 97028, Note_off_c, 1, 74, 0
1, 97028, Note_off_c, 1, 54, 0
1, 97030, Note_on_c, 1, 76, 127
1, 97030, Note_on_c, 1, 55, 127
1, 97143, Note_off_c, 1, 76, 0
1, 97143, Note_off_c, 1, 55, 0
1, 97145, Note_on_c, 1, 78, 127
1, 97145, Note_on_c, 1, 57, 127
1, 97258, Note_off_c, 1, 78, 0
1, 97258, Note_off_c, 1, 57, 0
1, 97260, Note_on_c, 1, 79, 127
1, 97260, Note_on_c, 1, 59, 127
1, 97373, Note_off_c, 1, 79, 0
1, 97373, Note_off_c, 1, 59, 0
1, 97375, Note_on_c, 1, 81, 127
1, 97375, Note_on_c, 1, 60, 127
1, 97488, Note_off_c, 1, 81, 0
1, 97488, Note_off_c, 1, 60, 0
1, 97491, Note_on_c, 1, 83, 127
1, 97491, Note_on_c, 1, 62, 127
1, 97604, Note_off_c, 1, 83, 0
1, 97604, Note_off_c, 1, 62, 0
1, 97606, Note_on_c, 1, 84, 127
1, 97606, Note_on_c, 1, 64, 127
1, 97719, Note_off_c, 1, 84, 0
1, 97719, Note_off_c, 1, 64, 0
1, 97721, Note_on_c, 1, 81, 127
1, 97721, Note_on_c, 1, 66, 127
1, 97834, Note_off_c, 1, 81, 0
1, 97834, Note_off_c, 1, 66, 0
1, 97836, Note_on_c, 1, 83, 127
1, 97836, Note_on_c, 1, 67, 127
1, 97949, Note_off_c, 1, 83, 0
1, 97952, Note_on_c, 1, 78, 127
1, 98054, Note_off_c, 1, 67, 0
1, 98065, Note_off_c, 1, 78, 0
1, 98067, Note_on_c, 1, 79, 127
1, 98067, Note_on_c, 1, 59, 127
1, 98180, Note_off_c, 1, 79, 0
1, 98182, Note_on_c, 1, 74, 127
1, 98285, Note_off_c, 1, 59, 0
1, 98295, Note_off_c, 1, 74, 0
1, 98297, Note_on_c, 1, 76, 127
1, 98297, Note_on_c, 1, 60, 127
1, 98410, Note_off_c, 1, 76, 0
1, 98413, Note_on_c, 1, 71, 127
1, 98515, Note_off_c, 1, 60, 0
1, 98526, Note_off_c, 1, 71, 0
1, 98528, Note_on_c, 1, 72, 127
1, 98528, Note_on_c, 1, 64, 127
1, 98641, Note_off_c, 1, 72, 0
1, 98643, Note_on_c, 1, 67, 127
1, 98746, Note_off_c, 1, 64, 0
1, 98756, Note_off_c, 1, 67, 0
1, 98758, Note_on_c, 1, 69, 127
1, 98758, Note_on_c, 1, 60, 127
1, 98871, Note_off_c, 1, 69, 0
1, 98873, Note_on_c, 1, 72, 127
1, 98976, Note_off_c, 1, 60, 0
1, 98986, Note_off_c, 1, 72, 0
1, 98989, Note_on_c, 1, 64, 127
1, 98989, Note_on_c, 1, 57, 127
1, 99102, Note_off_c, 1, 64, 0
1, 99104, Note_on_c, 1, 67, 127
1, 99207, Note_off_c, 1, 57, 0
1, 99217, Note_off_c, 1, 67, 0
1, 99219, Note_on_c, 1, 66, 127
1, 99219, Note_on_c, 1, 62, 127
1, 99332, Note_off_c, 1, 66, 0
1, 99334, Note_on_c, 1, 69, 127
1, 99437, Note_off_c, 1, 62, 0
1, 99447, Note_off_c, 1, 69, 0
1, 99450, Note_on_c, 1, 62, 127
1, 99450, Note_on_c, 1, 60, 127
1, 99563, Note_off_c, 1, 62, 0
1, 99563, Note_off_c, 1, 60, 0
1, 99565, Note_on_c, 1, 64, 127
1, 99565, Note_on_c, 1, 59, 127
1, 99678, Note_off_c, 1, 64, 0
1, 99678, Note_off_c, 1, 59, 0
1, 99680, Note_on_c, 1, 66, 127
1, 99680, Note_on_c, 1, 57, 127
1, 99793, Note_off_c, 1, 66, 0
1, 99793, Note_off_c, 1, 57, 0
1, 99795, Note_on_c, 1, 67, 127
1, 99795, Note_on_c, 1, 55, 127
1, 99908, Note_off_c, 1, 67, 0
1, 99908, Note_off_c, 1, 55, 0
1, 99911, Note_on_c, 1, 69, 127
1, 99911, Note_on_c, 1, 54, 127
1, 100024, Note_off_c, 1, 69, 0
1, 100024, Note_off_c, 1, 54, 0
1, 100026, Note_on_c, 1, 71, 127
1, 100026, Note_on_c, 1, 52, 127
1, 100139, Note_off_c, 1, 71, 0
1, 100139, Note_off_c, 1, 52, 0
1, 100141, Note_on_c, 1, 72, 127
1, 100141, Note_on_c, 1, 50, 127
1, 100254, Note_off_c, 1, 72, 0
1, 100254, Note_off_c, 1, 50, 0
1, 100256, Note_on_c, 1, 74, 127
1, 100256, Note_on_c, 1, 57, 127
1, 100369, Note_off_c, 1, 74, 0
1, 100369, Note_off_c, 1, 57, 0
1, 100371, Note_on_c, 1, 76, 127
1, 100371, Note_on_c, 1, 48, 127
1, 100484, Note_off_c, 1, 76, 0
1, 100484, Note_off_c, 1, 48, 0
1, 100487, Note_on_c, 1, 78, 127
1, 100487, Note_on_c, 1, 57, 127
1, 100600, Note_off_c, 1, 78, 0
1, 100600, Note_off_c, 1, 57, 0
1, 100602, Note_on_c, 1, 79, 127
1, 100602, Note_on_c, 1, 47, 127
1, 100715, Note_off_c, 1, 79, 0
1, 100717, Note_on_c, 1, 81, 127
1, 100820, Note_off_c, 1, 47, 0
1, 100830, Note_off_c, 1, 81, 0
1, 100832, Note_on_c, 1, 74, 127
1, 100832, Note_on_c, 1, 45, 127
1, 100945, Note_off_c, 1, 74, 0
1, 100948, Note_on_c, 1, 78, 127
1, 101050, Note_off_c, 1, 45, 0
1, 101061, Note_off_c, 1, 78, 0
1, 101063, Note_on_c, 1, 79, 127
1, 101063, Note_on_c, 1, 47, 127
1, 101176, Note_off_c, 1, 79, 0
1, 101178, Note_on_c, 1, 81, 127
1, 101281, Note_off_c, 1, 47, 0
1, 101291, Note_off_c, 1, 81, 0
1, 101293, Note_on_c, 1, 74, 127
1, 101293, Note_on_c, 1, 50, 127
1, 101409, Note_on_c, 1, 79, 127
1, 101461, Note_off_c, 1, 74, 0
1, 101511, Note_off_c, 1, 50, 0
1, 101522, Note_off_c, 1, 79, 0
1, 101524, Note_on_c, 1, 71, 127
1, 101524, Note_on_c, 1, 55, 127
1, 101639, Note_on_c, 1, 79, 127
1, 101692, Note_off_c, 1, 71, 0
1, 101742, Note_off_c, 1, 55, 0
1, 101752, Note_off_c, 1, 79, 0
1, 101754, Note_on_c, 1, 74, 127
1, 101754, Note_on_c, 1, 47, 127
1, 101869, Note_on_c, 1, 81, 127
1, 101922, Note_off_c, 1, 74, 0
1, 101972, Note_off_c, 1, 47, 0
1, 101982, Note_off_c, 1, 81, 0
1, 101985, Note_on_c, 1, 79, 127
1, 101985, Note_on_c, 1, 48, 127
1, 102098, Note_off_c, 1, 79, 0
1, 102100, Note_on_c, 1, 81, 127
1, 102203, Note_off_c, 1, 48, 0
1, 102213, Note_off_c, 1, 81, 0
1, 102215, Note_on_c, 1, 76, 127
1, 102215, Note_on_c, 1, 50, 127
1, 102328, Note_off_c, 1, 76, 0
1, 102330, Note_on_c, 1, 78, 127
1, 102433, Note_off_c, 1, 50, 0
1, 102443, Note_off_c, 1, 78, 0
1, 102446, Note_on_c, 1, 79, 127
1, 102446, Note_on_c, 1, 52, 127
1, 102559, Note_off_c, 1, 79, 0
1, 102561, Note_on_c, 1, 81, 127
1, 102664, Note_off_c, 1, 52, 0
1, 102674, Note_off_c, 1, 81, 0
1, 102676, Note_on_c, 1, 76, 127
1, 102676, Note_on_c, 1, 48, 127
1, 102791, Note_on_c, 1, 79, 127
1, 102844, Note_off_c, 1, 76, 0
1, 102894, Note_off_c, 1, 48, 0
1, 102904, Note_off_c, 1, 79, 0
1, 102907, Note_on_c, 1, 72, 127
1, 102907, Note_on_c, 1, 45, 127
1, 103022, Note_on_c, 1, 79, 127
1, 103075, Note_off_c, 1, 72, 0
1, 103125, Note_off_c, 1, 45, 0
1, 103135, Note_off_c, 1, 79, 0
1, 103137, Note_on_c, 1, 76, 127
1, 103137, Note_on_c, 1, 48, 127
1, 103252, Note_on_c, 1, 79, 127
1, 103305, Note_off_c, 1, 76, 0
1, 103355, Note_off_c, 1, 48, 0
1, 103368, Note_off_c, 1, 79, 0
1, 103371, Note_on_c, 1, 78, 127
1, 103371, Note_on_c, 1, 50, 127
1, 103487, Note_off_c, 1, 78, 0
1, 103489, Note_on_c, 1, 79, 127
1, 103594, Note_off_c, 1, 50, 0
1, 103604, Note_off_c, 1, 79, 0
1, 103606, Note_on_c, 1, 81, 127
1, 103606, Note_on_c, 1, 52, 127
1, 103722, Note_off_c, 1, 81, 0
1, 103725, Note_on_c, 1, 78, 127
1, 103829, Note_off_c, 1, 52, 0
1, 103840, Note_off_c, 1, 78, 0
1, 103842, Note_on_c, 1, 72, 127
1, 103842, Note_on_c, 1, 54, 127
1, 103958, Note_off_c, 1, 72, 0
1, 103960, Note_on_c, 1, 76, 127
1, 104065, Note_off_c, 1, 54, 0
1, 104075, Note_off_c, 1, 76, 0
1, 104077, Note_on_c, 1, 74, 127
1, 104077, Note_on_c, 1, 55, 127
1, 104193, Note_off_c, 1, 74, 0
1, 104196, Note_on_c, 1, 72, 127
1, 104300, Note_off_c, 1, 55, 0
1, 104316, Note_off_c, 1, 72, 0
1, 104318, Note_on_c, 1, 71, 127
1, 104318, Note_on_c, 1, 50, 127
1, 104445, Note_on_c, 1, 79, 127
1, 104473, Note_off_c, 1, 71, 0
1, 104570, Note_on_c, 1, 69, 127
1, 104570, Note_on_c, 1, 60, 127
1, 104598, Note_off_c, 1, 79, 0
1, 104695, Note_on_c, 1, 78, 127
1, 104723, Note_off_c, 1, 69, 0
1, 104805, Note_off_c, 1, 60, 0
1, 104813, Note_off_c, 1, 50, 0
1, 104823, Note_off_c, 1, 78, 0
1, 104825, Note_on_c, 1, 79, 127
1, 104825, Note_on_c, 1, 59, 127
1, 105075, Note_off_c, 1, 79, 0
1, 105094, Note_on_c, 1, 78, 127
1, 105094, Note_on_c, 1, 55, 127
1, 105222, Note_off_c, 1, 78, 0
1, 105229, Note_on_c, 1, 76, 127
1, 105352, Note_off_c, 1, 59, 0
1, 105364, Note_off_c, 1, 76, 0
1, 105366, Note_on_c, 1, 74, 127
1, 105501, Note_off_c, 1, 74, 0
1, 105512, Note_on_c, 1, 72, 127
1, 105647, Note_off_c, 1, 72, 0
1, 105652, Note_on_c, 1, 71, 127
1, 105652, Note_on_c, 1, 62, 127
1, 105787, Note_off_c, 1, 71, 0
1, 105792, Note_on_c, 1, 69, 127
1, 105927, Note_off_c, 1, 62, 0
1, 105955, Note_off_c, 1, 69, 0
1, 105968, Note_on_c, 1, 67, 127
1, 106424, Note_off_c, 1, 55, 0
1, 107768, Note_off_c, 1, 67, 0
1, 109515, Note_on_c, 1, 71, 127
1, 109515, Note_on_c, 1, 43, 127
1, 109671, Note_off_c, 1, 71, 0
1, 109673, Note_on_c, 1, 69, 127
1, 109829, Note_off_c, 1, 69, 0
1, 110148, Note_on_c, 1, 55, 127
1, 110463, Note_on_c, 1, 72, 127
1, 110776, Note_off_c, 1, 72, 0
1, 110777, Note_off_c, 1, 43, 0
1, 110779, Note_on_c, 1, 52, 127
1, 111253, Note_on_c, 1, 67, 127
1, 111409, Note_off_c, 1, 67, 0
1, 111410, Note_off_c, 1, 52, 0
1, 111412, Note_on_c, 1, 74, 127
1, 111412, Note_on_c, 1, 47, 127
1, 112021, Note_off_c, 1, 74, 0
1, 112043, Note_off_c, 1, 47, 0
1, 112045, Note_on_c, 1, 48, 127
1, 112354, Note_off_c, 1, 55, 0
1, 112360, Note_on_c, 1, 76, 127
1, 112516, Note_off_c, 1, 76, 0
1, 112678, Note_on_c, 1, 57, 127
1, 112991, Note_off_c, 1, 57, 0
1, 112993, Note_on_c, 1, 59, 127
1, 113308, Note_off_c, 1, 59, 0
1, 113309, Note_off_c, 1, 48, 0
1, 113311, Note_on_c, 1, 67, 127
1, 113311, Note_on_c, 1, 57, 127
1, 113311, Note_on_c, 1, 60, 127
1, 113624, Note_off_c, 1, 67, 0
1, 113626, Note_on_c, 1, 66, 127
1, 113940, Note_off_c, 1, 57, 0
1, 113940, Note_off_c, 1, 60, 0
1, 113942, Note_on_c, 1, 54, 127
1, 114255, Note_off_c, 1, 66, 0
1, 114258, Note_on_c, 1, 72, 127
1, 114571, Note_off_c, 1, 54, 0
1, 114571, Note_off_c, 1, 72, 0
1, 114573, Note_on_c, 1, 72, 127
1, 114573, Note_on_c, 1, 55, 127
1, 114676, Note_off_c, 1, 72, 0
1, 114678, Note_on_c, 1, 71, 127
1, 114781, Note_off_c, 1, 71, 0
1, 115047, Note_on_c, 1, 69, 127
1, 115203, Note_off_c, 1, 69, 0
1, 115206, Note_on_c, 1, 50, 127
1, 115519, Note_off_c, 1, 55, 0
1, 115522, Note_on_c, 1, 52, 127
1, 115835, Note_off_c, 1, 52, 0
1, 115837, Note_on_c, 1, 54, 127
1, 116150, Note_off_c, 1, 54, 0
1, 116153, Note_on_c, 1, 57, 127
1, 116466, Note_off_c, 1, 50, 0
1, 116466, Note_off_c, 1, 57, 0
1, 116469, Note_on_c, 1, 62, 127
1, 116784, Note_on_c, 1, 50, 127
1, 117093, Note_off_c, 1, 62, 0
1, 117097, Note_off_c, 1, 50, 0
1, 117110, Note_on_c, 1, 78, 127
1, 117110, Note_on_c, 1, 48, 127
1, 117266, Note_off_c, 1, 78, 0
1, 117269, Note_on_c, 1, 76, 127
1, 117425, Note_off_c, 1, 76, 0
1, 117743, Note_on_c, 1, 57, 127
1, 118058, Note_on_c, 1, 79, 127
1, 118371, Note_off_c, 1, 79, 0
1, 118372, Note_off_c, 1, 48, 0
1, 118848, Note_on_c, 1, 74, 127
1, 119004, Note_off_c, 1, 74, 0
1, 119005, Note_off_c, 1, 57, 0
1, 119007, Note_on_c, 1, 79, 127
1, 119007, Note_on_c, 1, 47, 127
1, 119323, Note_on_c, 1, 50, 127
1, 119623, Note_off_c, 1, 79, 0
1, 119631, Note_off_c, 1, 47, 0
1, 119636, Note_off_c, 1, 50, 0
1, 119638, Note_on_c, 1, 72, 127
1, 119638, Note_on_c, 1, 52, 127
1, 119638, Note_on_c, 1, 55, 127
1, 119794, Note_off_c, 1, 72, 0
1, 119797, Note_on_c, 1, 71, 127
1, 119953, Note_off_c, 1, 71, 0
1, 120269, Note_off_c, 1, 52, 0
1, 120271, Note_on_c, 1, 48, 127
1, 120587, Note_on_c, 1, 74, 127
1, 120743, Note_off_c, 1, 74, 0
1, 120745, Note_on_c, 1, 76, 127
1, 120901, Note_off_c, 1, 76, 0
1, 120902, Note_off_c, 1, 48, 0
1, 120904, Note_on_c, 1, 69, 127
1, 120904, Note_on_c, 1, 50, 127
1, 121533, Note_off_c, 1, 55, 0
1, 121535, Note_off_c, 1, 69, 0
1, 121537, Note_on_c, 1, 54, 127
1, 121850, Note_off_c, 1, 54, 0
1, 122799, Note_off_c, 1, 50, 0
1, 122803, Note_on_c, 1, 72, 127
1, 122803, Note_on_c, 1, 55, 127
1, 122928, Note_off_c, 1, 72, 0
1, 122928, Note_on_c, 1, 71, 127
1, 123053, Note_off_c, 1, 71, 0
1, 123436, Note_on_c, 1, 50, 127
1, 123751, Note_on_c, 1, 69, 127
1, 124064, Note_off_c, 1, 69, 0
1, 124065, Note_off_c, 1, 50, 0
1, 124067, Note_on_c, 1, 67, 127
1, 124067, Note_on_c, 1, 43, 127
1, 124527, Note_off_c, 1, 67, 0
1, 124696, Note_off_c, 1, 55, 0
1, 124698, Note_off_c, 1, 43, 0
1, 124720, Note_on_c, 1, 83, 127
1, 124720, Note_on_c, 1, 55, 127
1, 125036, Note_on_c, 1, 59, 127
1, 125349, Note_off_c, 1, 59, 0
1, 125351, Note_on_c, 1, 64, 127
1, 125608, Note_off_c, 1, 83, 0
1, 125669, Note_on_c, 1, 79, 127
1, 125982, Note_off_c, 1, 64, 0
1, 125982, Note_off_c, 1, 79, 0
1, 125984, Note_on_c, 1, 62, 127
1, 126089, Note_on_c, 1, 78, 127
1, 126192, Note_off_c, 1, 78, 0
1, 126459, Note_on_c, 1, 76, 127
1, 126615, Note_off_c, 1, 62, 0
1, 126615, Note_off_c, 1, 76, 0
1, 126617, Note_on_c, 1, 61, 127
1, 126617, Note_on_c, 1, 81, 127
1, 126926, Note_off_c, 1, 55, 0
1, 127241, Note_off_c, 1, 61, 0
1, 127246, Note_off_c, 1, 81, 0
1, 127248, Note_on_c, 1, 74, 127
1, 127248, Note_on_c, 1, 54, 127
1, 127564, Note_on_c, 1, 57, 127
1, 127877, Note_off_c, 1, 57, 0
1, 127880, Note_on_c, 1, 62, 127
1, 128037, Note_off_c, 1, 74, 0
1, 128197, Note_on_c, 1, 78, 127
1, 128510, Note_off_c, 1, 54, 0
1, 128510, Note_off_c, 1, 78, 0
1, 128511, Note_off_c, 1, 62, 0
1, 128513, Note_on_c, 1, 71, 127
1, 128513, Note_on_c, 1, 55, 127
1, 128828, Note_on_c, 1, 54, 127
1, 129141, Note_off_c, 1, 54, 0
1, 129144, Note_on_c, 1, 52, 127
1, 129301, Note_off_c, 1, 71, 0
1, 129303, Note_on_c, 1, 74, 127
1, 129459, Note_off_c, 1, 52, 0
1, 129459, Note_off_c, 1, 74, 0
1, 129461, Note_on_c, 1, 73, 127
1, 129461, Note_on_c, 1, 50, 127
1, 129617, Note_off_c, 1, 73, 0
1, 129776, Note_off_c, 1, 50, 0
1, 129778, Note_on_c, 1, 76, 127
1, 129778, Note_on_c, 1, 49, 127
1, 129934, Note_off_c, 1, 76, 0
1, 129937, Note_on_c, 1, 79, 127
1, 130093, Note_off_c, 1, 49, 0
1, 130093, Note_off_c, 1, 79, 0
1, 130096, Note_on_c, 1, 78, 127
1, 130096, Note_on_c, 1, 47, 127
1, 130252, Note_off_c, 1, 78, 0
1, 130411, Note_off_c, 1, 47, 0
1, 130413, Note_on_c, 1, 45, 127
1, 130722, Note_off_c, 1, 55, 0
1, 131044, Note_on_c, 1, 57, 127
1, 131357, Note_off_c, 1, 57, 0
1, 131673, Note_off_c, 1, 45, 0
1, 131676, Note_on_c, 1, 69, 127
1, 131676, Note_on_c, 1, 54, 127
1, 131991, Note_on_c, 1, 50, 127
1, 132136, Note_off_c, 1, 69, 0
1, 132302, Note_off_c, 1, 54, 0
1, 132319, Note_on_c, 1, 52, 127
1, 132477, Note_on_c, 1, 67, 127
1, 132618, Note_off_c, 1, 50, 0
1, 132633, Note_off_c, 1, 67, 0
1, 132636, Note_on_c, 1, 66, 127
1, 132949, Note_off_c, 1, 66, 0
1, 132951, Note_on_c, 1, 49, 127
1, 133265, Note_off_c, 1, 52, 0
1, 133267, Note_on_c, 1, 76, 127
1, 133583, Note_on_c, 1, 57, 127
1, 133896, Note_off_c, 1, 49, 0
1, 133896, Note_off_c, 1, 76, 0
1, 133898, Note_on_c, 1, 74, 127
1, 133898, Note_on_c, 1, 47, 127
1, 134054, Note_off_c, 1, 74, 0
1, 134057, Note_on_c, 1, 73, 127
1, 134213, Note_off_c, 1, 47, 0
1, 134213, Note_off_c, 1, 73, 0
1, 134216, Note_on_c, 1, 79, 127
1, 134216, Note_on_c, 1, 45, 127
1, 134529, Note_off_c, 1, 57, 0
1, 134529, Note_off_c, 1, 79, 0
1, 134531, Note_on_c, 1, 78, 127
1, 134687, Note_off_c, 1, 78, 0
1, 134849, Note_on_c, 1, 81, 127
1, 135162, Note_off_c, 1, 45, 0
1, 135164, Note_on_c, 1, 43, 127
1, 135321, Note_off_c, 1, 81, 0
1, 135479, Note_off_c, 1, 43, 0
1, 135482, Note_on_c, 1, 50, 127
1, 135482, Note_on_c, 1, 76, 127
1, 135482, Note_on_c, 1, 42, 127
1, 135795, Note_off_c, 1, 50, 0
1, 135795, Note_off_c, 1, 76, 0
1, 135797, Note_on_c, 1, 52, 127
1, 135797, Note_on_c, 1, 74, 127
1, 136110, Note_off_c, 1, 52, 0
1, 136113, Note_on_c, 1, 54, 127
1, 136421, Note_off_c, 1, 74, 0
1, 136427, Note_off_c, 1, 42, 0
1, 136428, Note_on_c, 1, 43, 127
1, 136587, Note_on_c, 1, 71, 127
1, 136739, Note_off_c, 1, 54, 0
1, 136743, Note_off_c, 1, 43, 0
1, 136743, Note_off_c, 1, 71, 0
1, 136746, Note_on_c, 1, 74, 127
1, 136746, Note_on_c, 1, 52, 127
1, 136746, Note_on_c, 1, 45, 127
1, 136954, Note_off_c, 1, 74, 0
1, 136956, Note_on_c, 1, 73, 127
1, 137059, Note_off_c, 1, 52, 0
1, 137059, Note_off_c, 1, 73, 0
1, 137061, Note_on_c, 1, 54, 127
1, 137374, Note_off_c, 1, 54, 0
1, 137377, Note_on_c, 1, 55, 127
1, 138008, Note_off_c, 1, 45, 0
1, 138010, Note_on_c, 1, 50, 127
1, 138323, Note_off_c, 1, 55, 0
1, 138956, Note_off_c, 1, 50, 0
1, 139274, Note_on_c, 1, 38, 127
1, 139905, Note_off_c, 1, 38, 0
1, 139937, Note_on_c, 1, 78, 127
1, 139937, Note_on_c, 1, 50, 127
1, 140570, Note_on_c, 1, 62, 127
1, 140870, Note_off_c, 1, 78, 0
1, 140887, Note_on_c, 1, 79, 127
1, 141200, Note_off_c, 1, 79, 0
1, 141201, Note_off_c, 1, 50, 0
1, 141203, Note_on_c, 1, 81, 127
1, 141203, Note_on_c, 1, 60, 127
1, 141675, Note_off_c, 1, 81, 0
1, 141834, Note_off_c, 1, 60, 0
1, 141836, Note_on_c, 1, 74, 127
1, 141836, Note_on_c, 1, 59, 127
1, 142151, Note_off_c, 1, 62, 0
1, 142465, Note_off_c, 1, 74, 0
1, 142781, Note_off_c, 1, 59, 0
1, 143098, Note_on_c, 1, 57, 127
1, 143413, Note_off_c, 1, 57, 0
1, 143416, Note_on_c, 1, 55, 127
1, 143574, Note_on_c, 1, 83, 127
1, 143730, Note_off_c, 1, 83, 0
1, 143731, Note_off_c, 1, 55, 0
1, 143733, Note_on_c, 1, 76, 127
1, 143733, Note_on_c, 1, 60, 127
1, 144049, Note_on_c, 1, 48, 127
1, 144362, Note_off_c, 1, 48, 0
1, 144364, Note_on_c, 1, 50, 127
1, 144658, Note_off_c, 1, 76, 0
1, 144679, Note_off_c, 1, 60, 0
1, 144682, Note_on_c, 1, 74, 127
1, 144682, Note_on_c, 1, 59, 127
1, 144990, Note_off_c, 1, 50, 0
1, 144995, Note_off_c, 1, 74, 0
1, 144995, Note_off_c, 1, 59, 0
1, 144997, Note_on_c, 1, 57, 127
1, 144997, Note_on_c, 1, 72, 127
1, 144997, Note_on_c, 1, 52, 127
1, 145310, Note_off_c, 1, 57, 0
1, 145313, Note_on_c, 1, 56, 127
1, 145469, Note_off_c, 1, 72, 0
1, 145471, Note_on_c, 1, 71, 127
1, 145623, Note_off_c, 1, 52, 0
1, 145627, Note_off_c, 1, 71, 0
1, 145628, Note_off_c, 1, 56, 0
1, 145630, Note_on_c, 1, 72, 127
1, 145630, Note_on_c, 1, 57, 127
1, 145786, Note_off_c, 1, 72, 0
1, 145789, Note_on_c, 1, 71, 127
1, 145945, Note_off_c, 1, 71, 0
1, 145947, Note_on_c, 1, 52, 127
1, 146256, Note_off_c, 1, 57, 0
1, 146260, Note_off_c, 1, 52, 0
1, 146263, Note_on_c, 1, 45, 127
1, 146576, Note_off_c, 1, 45, 0
1, 146579, Note_on_c, 1, 71, 127
1, 146579, Note_on_c, 1, 47, 127
1, 146892, Note_off_c, 1, 71, 0
1, 146892, Note_off_c, 1, 47, 0
1, 146894, Note_on_c, 1, 48, 127
1, 146894, Note_on_c, 1, 69, 127
1, 147207, Note_off_c, 1, 48, 0
1, 147210, Note_on_c, 1, 52, 127
1, 147354, Note_off_c, 1, 69, 0
1, 147525, Note_off_c, 1, 52, 0
1, 147537, Note_on_c, 1, 57, 127
1, 147537, Note_on_c, 1, 84, 127
1, 147853, Note_on_c, 1, 60, 127
1, 148166, Note_off_c, 1, 60, 0
1, 148169, Note_on_c, 1, 66, 127
1, 148482, Note_off_c, 1, 57, 0
1, 148482, Note_off_c, 1, 84, 0
1, 148484, Note_on_c, 1, 83, 127
1, 148640, Note_off_c, 1, 83, 0
1, 148643, Note_on_c, 1, 81, 127
1, 148795, Note_off_c, 1, 66, 0
1, 148799, Note_off_c, 1, 81, 0
1, 148801, Note_on_c, 1, 83, 127
1, 148801, Note_on_c, 1, 55, 127
1, 149117, Note_on_c, 1, 59, 127
1, 149273, Note_off_c, 1, 83, 0
1, 149276, Note_on_c, 1, 76, 127
1, 149427, Note_off_c, 1, 55, 0
1, 149432, Note_off_c, 1, 59, 0
1, 149432, Note_off_c, 1, 76, 0
1, 149434, Note_on_c, 1, 76, 127
1, 149434, Note_on_c, 1, 54, 127
1, 149642, Note_off_c, 1, 76, 0
1, 149645, Note_on_c, 1, 75, 127
1, 149748, Note_off_c, 1, 75, 0
1, 149750, Note_on_c, 1, 57, 127
1, 150063, Note_off_c, 1, 57, 0
1, 150066, Note_on_c, 1, 60, 127
1, 150379, Note_off_c, 1, 54, 0
1, 150381, Note_on_c, 1, 52, 127
1, 150540, Note_on_c, 1, 78, 127
1, 150692, Note_off_c, 1, 60, 0
1, 150696, Note_off_c, 1, 52, 0
1, 150696, Note_off_c, 1, 78, 0
1, 150699, Note_on_c, 1, 71, 127
1, 150699, Note_on_c, 1, 51, 127
1, 150699, Note_on_c, 1, 54, 127
1, 151133, Note_off_c, 1, 71, 0
1, 151173, Note_on_c, 1, 81, 127
1, 151329, Note_off_c, 1, 81, 0
1, 151330, Note_off_c, 1, 51, 0
1, 151330, Note_off_c, 1, 54, 0
1, 151332, Note_on_c, 1, 52, 127
1, 151332, Note_on_c, 1, 79, 127
1, 151645, Note_off_c, 1, 52, 0
1, 151647, Note_on_c, 1, 45, 127
1, 151647, Note_on_c, 1, 54, 127
1, 151804, Note_off_c, 1, 79, 0
1, 151806, Note_on_c, 1, 78, 127
1, 151962, Note_off_c, 1, 45, 0
1, 151962, Note_off_c, 1, 78, 0
1, 151964, Note_on_c, 1, 76, 127
1, 151964, Note_on_c, 1, 47, 127
1, 152172, Note_off_c, 1, 76, 0
1, 152175, Note_on_c, 1, 75, 127
1, 152273, Note_off_c, 1, 54, 0
1, 152278, Note_off_c, 1, 75, 0
1, 152280, Note_on_c, 1, 55, 127
1, 152593, Note_off_c, 1, 55, 0
1, 152596, Note_on_c, 1, 57, 127
1, 153224, Note_off_c, 1, 47, 0
1, 153542, Note_off_c, 1, 57, 0
1, 154493, Note_on_c, 1, 40, 127
1, 155124, Note_off_c, 1, 40, 0
1, 155146, Note_on_c, 1, 71, 127
1, 155146, Note_on_c, 1, 52, 127
1, 155146, Note_on_c, 1, 55, 127
1, 155302, Note_off_c, 1, 71, 0
1, 155304, Note_on_c, 1, 69, 127
1, 155460, Note_off_c, 1, 69, 0
1, 155777, Note_off_c, 1, 52, 0
1, 155779, Note_on_c, 1, 50, 127
1, 156094, Note_on_c, 1, 72, 127
1, 156407, Note_off_c, 1, 72, 0
1, 156408, Note_off_c, 1, 50, 0
1, 156410, Note_on_c, 1, 48, 127
1, 156884, Note_on_c, 1, 67, 127
1, 157040, Note_off_c, 1, 67, 0
1, 157041, Note_off_c, 1, 48, 0
1, 157043, Note_on_c, 1, 77, 127
1, 157043, Note_on_c, 1, 47, 127
1, 157199, Note_off_c, 1, 77, 0
1, 157202, Note_on_c, 1, 76, 127
1, 157358, Note_off_c, 1, 76, 0
1, 157669, Note_off_c, 1, 55, 0
1, 157674, Note_off_c, 1, 47, 0
1, 158307, Note_on_c, 1, 53, 127
1, 158620, Note_off_c, 1, 53, 0
1, 158940, Note_on_c, 1, 57, 127
1, 158940, Note_on_c, 1, 74, 127
1, 158940, Note_on_c, 1, 53, 127
1, 159253, Note_off_c, 1, 57, 0
1, 159253, Note_off_c, 1, 74, 0
1, 159256, Note_on_c, 1, 72, 127
1, 159256, Note_on_c, 1, 59, 127
1, 159412, Note_off_c, 1, 72, 0
1, 159414, Note_on_c, 1, 71, 127
1, 159570, Note_off_c, 1, 71, 0
1, 159571, Note_off_c, 1, 59, 0
1, 159573, Note_on_c, 1, 81, 127
1, 159573, Note_on_c, 1, 60, 127
1, 159886, Note_off_c, 1, 53, 0
1, 159889, Note_on_c, 1, 55, 127
1, 160045, Note_off_c, 1, 81, 0
1, 160047, Note_on_c, 1, 79, 127
1, 160203, Note_off_c, 1, 79, 0
1, 160204, Note_off_c, 1, 55, 0
1, 160206, Note_on_c, 1, 77, 127
1, 160362, Note_off_c, 1, 77, 0
1, 160365, Note_on_c, 1, 76, 127
1, 160521, Note_off_c, 1, 76, 0
1, 161470, Note_off_c, 1, 60, 0
1, 162105, Note_on_c, 1, 72, 127
1, 162105, Note_on_c, 1, 60, 127
1, 162105, Note_on_c, 1, 48, 127
1, 162565, Note_off_c, 1, 72, 0
1, 162736, Note_off_c, 1, 60, 0
1, 162748, Note_on_c, 1, 71, 127
1, 162748, Note_on_c, 1, 54, 127
1, 163051, Note_off_c, 1, 48, 0
1, 163061, Note_off_c, 1, 71, 0
1, 163063, Note_on_c, 1, 52, 127
1, 163063, Note_on_c, 1, 69, 127
1, 163376, Note_off_c, 1, 52, 0
1, 163379, Note_on_c, 1, 50, 127
1, 163692, Note_off_c, 1, 69, 0
1, 163692, Note_off_c, 1, 50, 0
1, 164008, Note_off_c, 1, 54, 0
1, 164010, Note_on_c, 1, 69, 127
1, 164010, Note_on_c, 1, 47, 127
1, 164113, Note_off_c, 1, 69, 0
1, 164115, Note_on_c, 1, 67, 127
1, 164218, Note_off_c, 1, 67, 0
1, 164323, Note_off_c, 1, 47, 0
1, 164326, Note_on_c, 1, 67, 127
1, 164326, Note_on_c, 1, 45, 127
1, 164482, Note_off_c, 1, 67, 0
1, 164484, Note_on_c, 1, 66, 127
1, 164640, Note_off_c, 1, 66, 0
1, 164641, Note_off_c, 1, 45, 0
1, 164643, Note_on_c, 1, 47, 127
1, 164643, Note_on_c, 1, 74, 127
1, 164643, Note_on_c, 1, 55, 127
1, 164956, Note_off_c, 1, 47, 0
1, 164959, Note_on_c, 1, 50, 127
1, 165272, Note_off_c, 1, 74, 0
1, 165272, Note_off_c, 1, 50, 0
1, 165274, Note_on_c, 1, 48, 127
1, 165587, Note_off_c, 1, 48, 0
1, 165590, Note_on_c, 1, 76, 127
1, 165746, Note_off_c, 1, 76, 0
1, 165905, Note_off_c, 1, 55, 0
1, 165907, Note_on_c, 1, 45, 127
1, 165907, Note_on_c, 1, 76, 127
1, 166220, Note_off_c, 1, 45, 0
1, 166223, Note_on_c, 1, 43, 127
1, 166367, Note_off_c, 1, 76, 0
1, 166538, Note_off_c, 1, 43, 0
1, 166540, Note_on_c, 1, 62, 127
1, 166540, Note_on_c, 1, 42, 127
1, 166696, Note_off_c, 1, 62, 0
1, 166699, Note_on_c, 1, 64, 127
1, 166855, Note_off_c, 1, 64, 0
1, 166858, Note_on_c, 1, 66, 127
1, 166858, Note_on_c, 1, 45, 127
1, 167014, Note_off_c, 1, 66, 0
1, 167016, Note_on_c, 1, 67, 127
1, 167172, Note_off_c, 1, 67, 0
1, 167173, Note_off_c, 1, 45, 0
1, 167175, Note_on_c, 1, 69, 127
1, 167175, Note_on_c, 1, 50, 127
1, 167331, Note_off_c, 1, 69, 0
1, 167333, Note_on_c, 1, 71, 127
1, 167489, Note_off_c, 1, 71, 0
1, 167490, Note_off_c, 1, 42, 0
1, 167492, Note_on_c, 1, 72, 127
1, 167648, Note_off_c, 1, 72, 0
1, 167809, Note_on_c, 1, 43, 127
1, 168122, Note_off_c, 1, 43, 0
1, 168123, Note_off_c, 1, 50, 0
1, 168125, Note_on_c, 1, 69, 127
1, 168125, Note_on_c, 1, 52, 127
1, 168125, Note_on_c, 1, 48, 127
1, 168228, Note_off_c, 1, 69, 0
1, 168230, Note_on_c, 1, 67, 127
1, 168333, Note_off_c, 1, 67, 0
1, 168335, Note_on_c, 1, 66, 127
1, 168438, Note_off_c, 1, 52, 0
1, 168438, Note_off_c, 1, 48, 0
1, 168438, Note_off_c, 1, 66, 0
1, 168441, Note_on_c, 1, 67, 127
1, 168441, Note_on_c, 1, 50, 127
1, 168756, Note_on_c, 1, 59, 127
1, 169069, Note_off_c, 1, 59, 0
1, 169070, Note_off_c, 1, 67, 0
1, 169072, Note_on_c, 1, 57, 127
1, 169177, Note_on_c, 1, 66, 127
1, 169280, Note_off_c, 1, 66, 0
1, 169385, Note_off_c, 1, 57, 0
1, 169388, Note_on_c, 1, 55, 127
1, 169546, Note_on_c, 1, 64, 127
1, 169702, Note_off_c, 1, 64, 0
1, 169703, Note_off_c, 1, 55, 0
1, 169705, Note_on_c, 1, 62, 127
1, 169705, Note_on_c, 1, 54, 127
1, 169857, Note_off_c, 1, 50, 0
1, 170022, Note_on_c, 1, 48, 127
1, 170167, Note_off_c, 1, 62, 0
1, 170332, Note_off_c, 1, 54, 0
1, 170337, Note_off_c, 1, 48, 0
1, 170370, Note_on_c, 1, 74, 127
1, 170370, Note_on_c, 1, 47, 127
1, 170526, Note_off_c, 1, 74, 0
1, 170528, Note_on_c, 1, 72, 127
1, 170684, Note_off_c, 1, 72, 0
1, 170687, Note_on_c, 1, 50, 127
1, 171000, Note_off_c, 1, 50, 0
1, 171002, Note_on_c, 1, 55, 127
1, 171316, Note_off_c, 1, 47, 0
1, 171318, Note_on_c, 1, 76, 127
1, 171631, Note_off_c, 1, 76, 0
1, 171634, Note_on_c, 1, 45, 127
1, 171947, Note_off_c, 1, 45, 0
1, 171949, Note_on_c, 1, 43, 127
1, 172108, Note_on_c, 1, 71, 127
1, 172264, Note_off_c, 1, 43, 0
1, 172264, Note_off_c, 1, 71, 0
1, 172267, Note_on_c, 1, 48, 127
1, 172581, Note_off_c, 1, 55, 0
1, 172582, Note_on_c, 1, 52, 127
1, 172895, Note_off_c, 1, 52, 0
1, 172898, Note_on_c, 1, 57, 127
1, 173003, Note_on_c, 1, 78, 127
1, 173106, Note_off_c, 1, 78, 0
1, 173108, Note_on_c, 1, 79, 127
1, 173211, Note_off_c, 1, 79, 0
1, 173212, Note_off_c, 1, 48, 0
1, 174158, Note_off_c, 1, 57, 0
1, 174160, Note_on_c, 1, 47, 127
1, 174160, Note_on_c, 1, 79, 127
1, 174476, Note_on_c, 1, 50, 127
1, 174784, Note_off_c, 1, 47, 0
1, 174789, Note_off_c, 1, 50, 0
1, 174792, Note_on_c, 1, 49, 127
1, 175071, Note_off_c, 1, 79, 0
1, 175109, Note_on_c, 1, 81, 127
1, 175109, Note_on_c, 1, 52, 127
1, 175265, Note_off_c, 1, 81, 0
1, 175268, Note_on_c, 1, 83, 127
1, 175424, Note_off_c, 1, 52, 0
1, 175424, Note_off_c, 1, 83, 0
1, 175426, Note_on_c, 1, 57, 127
1, 175585, Note_on_c, 1, 78, 127
1, 175741, Note_off_c, 1, 78, 0
1, 175742, Note_off_c, 1, 49, 0
1, 175744, Note_on_c, 1, 45, 127
1, 176057, Note_off_c, 1, 45, 0
1, 176372, Note_off_c, 1, 57, 0
1, 176690, Note_on_c, 1, 62, 127
1, 177003, Note_off_c, 1, 62, 0
1, 177006, Note_on_c, 1, 60, 127
1, 177006, Note_on_c, 1, 76, 127
1, 177319, Note_off_c, 1, 60, 0
1, 177319, Note_off_c, 1, 76, 0
1, 177322, Note_on_c, 1, 59, 127
1, 177322, Note_on_c, 1, 74, 127
1, 177635, Note_off_c, 1, 59, 0
1, 177782, Note_off_c, 1, 74, 0
1, 177963, Note_on_c, 1, 74, 127
1, 177963, Note_on_c, 1, 52, 127
1, 177963, Note_on_c, 1, 55, 127
1, 178119, Note_off_c, 1, 74, 0
1, 178122, Note_on_c, 1, 72, 127
1, 178278, Note_off_c, 1, 52, 0
1, 178278, Note_off_c, 1, 72, 0
1, 178280, Note_on_c, 1, 71, 127
1, 178280, Note_on_c, 1, 50, 127
1, 178436, Note_off_c, 1, 71, 0
1, 178590, Note_off_c, 1, 55, 0
1, 178595, Note_off_c, 1, 50, 0
1, 178598, Note_on_c, 1, 48, 127
1, 178598, Note_on_c, 1, 57, 127
1, 178598, Note_on_c, 1, 66, 127
1, 178911, Note_off_c, 1, 48, 0
1, 178913, Note_on_c, 1, 47, 127
1, 179222, Note_off_c, 1, 57, 0
1, 179226, Note_off_c, 1, 47, 0
1, 179229, Note_on_c, 1, 45, 127
1, 179514, Note_off_c, 1, 66, 0
1, 179544, Note_off_c, 1, 45, 0
1, 179546, Note_on_c, 1, 67, 127
1, 179546, Note_on_c, 1, 43, 127
1, 179702, Note_off_c, 1, 67, 0
1, 179705, Note_on_c, 1, 69, 127
1, 179861, Note_off_c, 1, 43, 0
1, 179861, Note_off_c, 1, 69, 0
1, 179863, Note_on_c, 1, 62, 127
1, 179863, Note_on_c, 1, 42, 127
1, 180176, Note_off_c, 1, 62, 0
1, 180176, Note_off_c, 1, 42, 0
1, 180179, Note_on_c, 1, 64, 127
1, 180179, Note_on_c, 1, 48, 127
1, 180335, Note_off_c, 1, 64, 0
1, 180338, Note_on_c, 1, 66, 127
1, 180494, Note_off_c, 1, 48, 0
1, 180494, Note_off_c, 1, 66, 0
1, 180496, Note_on_c, 1, 67, 127
1, 180496, Note_on_c, 1, 47, 127
1, 180652, Note_off_c, 1, 67, 0
1, 180655, Note_on_c, 1, 69, 127
1, 180811, Note_off_c, 1, 47, 0
1, 180811, Note_off_c, 1, 69, 0
1, 180814, Note_on_c, 1, 71, 127
1, 180814, Note_on_c, 1, 48, 127
1, 180814, Note_on_c, 1, 45, 127
1, 180970, Note_off_c, 1, 71, 0
1, 180972, Note_on_c, 1, 72, 127
1, 181128, Note_off_c, 1, 72, 0
1, 181129, Note_off_c, 1, 48, 0
1, 181129, Note_off_c, 1, 45, 0
1, 181131, Note_on_c, 1, 74, 127
1, 181131, Note_on_c, 1, 47, 127
1, 181131, Note_on_c, 1, 43, 127
1, 181287, Note_off_c, 1, 74, 0
1, 181290, Note_on_c, 1, 79, 127
1, 181446, Note_off_c, 1, 47, 0
1, 181446, Note_off_c, 1, 43, 0
1, 181446, Note_off_c, 1, 79, 0
1, 181448, Note_on_c, 1, 78, 127
1, 181448, Note_on_c, 1, 45, 127
1, 181448, Note_on_c, 1, 48, 127
1, 181604, Note_off_c, 1, 78, 0
1, 181607, Note_on_c, 1, 76, 127
1, 181763, Note_off_c, 1, 45, 0
1, 181763, Note_off_c, 1, 48, 0
1, 181763, Note_off_c, 1, 76, 0
1, 181766, Note_on_c, 1, 74, 127
1, 181766, Note_on_c, 1, 50, 127
1, 181766, Note_on_c, 1, 47, 127
1, 181872, Note_off_c, 1, 74, 0
1, 181874, Note_on_c, 1, 72, 127
1, 181980, Note_off_c, 1, 72, 0
1, 181986, Note_on_c, 1, 71, 127
1, 182092, Note_off_c, 1, 71, 0
1, 182096, Note_off_c, 1, 50, 0
1, 182096, Note_off_c, 1, 47, 0
1, 182098, Note_on_c, 1, 76, 127
1, 182098, Note_on_c, 1, 48, 127
1, 182098, Note_on_c, 1, 55, 127
1, 182204, Note_off_c, 1, 76, 0
1, 182210, Note_on_c, 1, 74, 127
1, 182316, Note_off_c, 1, 74, 0
1, 182322, Note_on_c, 1, 72, 127
1, 182428, Note_off_c, 1, 48, 0
1, 182428, Note_off_c, 1, 72, 0
1, 182434, Note_on_c, 1, 71, 127
1, 182434, Note_on_c, 1, 50, 127
1, 182759, Note_off_c, 1, 55, 0
1, 182778, Note_on_c, 1, 52, 127
1, 183118, Note_off_c, 1, 52, 0
1, 183120, Note_off_c, 1, 71, 0
1, 183125, Note_on_c, 1, 54, 127
1, 183242, Note_on_c, 1, 69, 127
1, 183352, Note_off_c, 1, 69, 0
1, 183475, Note_off_c, 1, 54, 0
1, 183479, Note_on_c, 1, 60, 127
1, 183658, Note_on_c, 1, 67, 127
1, 183813, Note_off_c, 1, 50, 0
1, 183830, Note_off_c, 1, 67, 0
1, 184182, Note_off_c, 1, 60, 0
1, 184202, Note_on_c, 1, 59, 127
1, 184379, Note_off_c, 1, 59, 0
1, 184387, Note_on_c, 1, 57, 127
1, 184564, Note_off_c, 1, 57, 0
1, 185400, Note_on_c, 1, 43, 127
1, 187600, Note_off_c, 1, 43, 0
1, 188828, Note_on_c, 1, 74, 127
1, 188828, Note_on_c, 1, 83, 127
1, 188828, Note_on_c, 1, 55, 127
1, 189138, Note_off_c, 1, 74, 0
1, 189138, Note_off_c, 1, 83, 0
1, 189138, Note_off_c, 1, 55, 0
1, 189140, Note_on_c, 1, 71, 127
1, 189140, Note_on_c, 1, 79, 127
1, 189140, Note_on_c, 1, 67, 127
1, 189450, Note_off_c, 1, 71, 0
1, 189450, Note_off_c, 1, 79, 0
1, 189450, Note_off_c, 1, 67, 0
1, 189453, Note_on_c, 1, 74, 127
1, 189453, Note_on_c, 1, 66, 127
1, 189453, Note_on_c, 1, 69, 127
1, 189763, Note_off_c, 1, 74, 0
1, 189763, Note_off_c, 1, 66, 0
1, 189765, Note_on_c, 1, 76, 127
1, 189765, Note_on_c, 1, 54, 127
1, 189918, Note_off_c, 1, 76, 0
1, 189920, Note_on_c, 1, 78, 127
1, 190070, Note_off_c, 1, 69, 0
1, 190075, Note_off_c, 1, 54, 0
1, 190075, Note_off_c, 1, 78, 0
1, 190077, Note_on_c, 1, 71, 127
1, 190077, Note_on_c, 1, 79, 127
1, 190077, Note_on_c, 1, 52, 127
1, 190387, Note_off_c, 1, 71, 0
1, 190387, Note_off_c, 1, 79, 0
1, 190387, Note_off_c, 1, 52, 0
1, 190390, Note_on_c, 1, 67, 127
1, 190390, Note_on_c, 1, 76, 127
1, 190390, Note_on_c, 1, 64, 127
1, 190700, Note_off_c, 1, 67, 0
1, 190700, Note_off_c, 1, 76, 0
1, 190700, Note_off_c, 1, 64, 0
1, 190702, Note_on_c, 1, 62, 127
1, 190702, Note_on_c, 1, 71, 127
1, 190702, Note_on_c, 1, 66, 127
1, 191012, Note_off_c, 1, 62, 0
1, 191014, Note_on_c, 1, 50, 127
1, 191157, Note_off_c, 1, 71, 0
1, 191324, Note_off_c, 1, 66, 0
1, 191324, Note_off_c, 1, 50, 0
1, 191326, Note_on_c, 1, 67, 127
1, 191326, Note_on_c, 1, 76, 127
1, 191326, Note_on_c, 1, 48, 127
1, 191636, Note_off_c, 1, 67, 0
1, 191636, Note_off_c, 1, 76, 0
1, 191636, Note_off_c, 1, 48, 0
1, 191639, Note_on_c, 1, 69, 127
1, 191639, Note_on_c, 1, 72, 127
1, 191639, Note_on_c, 1, 60, 127
1, 191949, Note_off_c, 1, 69, 0
1, 191949, Note_off_c, 1, 72, 0
1, 191949, Note_off_c, 1, 60, 0
1, 191951, Note_on_c, 1, 66, 127
1, 191951, Note_on_c, 1, 69, 127
1, 191951, Note_on_c, 1, 62, 127
1, 192261, Note_off_c, 1, 66, 0
1, 192261, Note_off_c, 1, 69, 0
1, 192261, Note_off_c, 1, 62, 0
1, 192263, Note_on_c, 1, 71, 127
1, 192263, Note_on_c, 1, 57, 127
1, 192416, Note_off_c, 1, 71, 0
1, 192419, Note_on_c, 1, 72, 127
1, 192571, Note_off_c, 1, 57, 0
1, 192572, Note_off_c, 1, 72, 0
1, 192574, Note_on_c, 1, 74, 127
1, 192574, Note_on_c, 1, 69, 127
1, 192574, Note_on_c, 1, 54, 127
1, 192727, Note_off_c, 1, 74, 0
1, 192729, Note_on_c, 1, 71, 127
1, 192881, Note_off_c, 1, 69, 0
1, 192882, Note_off_c, 1, 54, 0
1, 192882, Note_off_c, 1, 71, 0
1, 192885, Note_on_c, 1, 72, 127
1, 192885, Note_on_c, 1, 50, 127
1, 193038, Note_off_c, 1, 72, 0
1, 193040, Note_on_c, 1, 69, 127
1, 193193, Note_off_c, 1, 50, 0
1, 193193, Note_off_c, 1, 69, 0
1, 193195, Note_on_c, 1, 72, 127
1, 193195, Note_on_c, 1, 67, 127
1, 193195, Note_on_c, 1, 55, 127
1, 193348, Note_off_c, 1, 72, 0
1, 193350, Note_on_c, 1, 71, 127
1, 193502, Note_off_c, 1, 67, 0
1, 193503, Note_off_c, 1, 55, 0
1, 193503, Note_off_c, 1, 71, 0
1, 193506, Note_on_c, 1, 69, 127
1, 193506, Note_on_c, 1, 50, 127
1, 193659, Note_off_c, 1, 69, 0
1, 193661, Note_on_c, 1, 67, 127
1, 193814, Note_off_c, 1, 50, 0
1, 193814, Note_off_c, 1, 67, 0
1, 193816, Note_on_c, 1, 43, 127
1, 193816, Note_on_c, 1, 74, 127
1, 193816, Note_on_c, 1, 83, 127
1, 193969, Note_off_c, 1, 43, 0
1, 193972, Note_on_c, 1, 50, 127
1, 194124, Note_off_c, 1, 74, 0
1, 194124, Note_off_c, 1, 83, 0
1, 194125, Note_off_c, 1, 50, 0
1, 194127, Note_on_c, 1, 52, 127
1, 194127, Note_on_c, 1, 71, 127
1, 194127, Note_on_c, 1, 79, 127
1, 194280, Note_off_c, 1, 52, 0
1, 194282, Note_on_c, 1, 54, 127
1, 194435, Note_off_c, 1, 71, 0
1, 194435, Note_off_c, 1, 79, 0
1, 194435, Note_off_c, 1, 54, 0
1, 194438, Note_on_c, 1, 55, 127
1, 194438, Note_on_c, 1, 76, 127
1, 194438, Note_on_c, 1, 73, 127
1, 194591, Note_off_c, 1, 55, 0
1, 194593, Note_on_c, 1, 57, 127
1, 194746, Note_off_c, 1, 76, 0
1, 194746, Note_off_c, 1, 73, 0
1, 194746, Note_off_c, 1, 57, 0
1, 194748, Note_on_c, 1, 73, 127
1, 194748, Note_on_c, 1, 76, 127
1, 194748, Note_on_c, 1, 55, 127
1, 194901, Note_off_c, 1, 73, 0
1, 194901, Note_off_c, 1, 76, 0
1, 194901, Note_off_c, 1, 55, 0
1, 194904, Note_on_c, 1, 78, 127
1, 194904, Note_on_c, 1, 74, 127
1, 194904, Note_on_c, 1, 54, 127
1, 195057, Note_off_c, 1, 78, 0
1, 195057, Note_off_c, 1, 74, 0
1, 195057, Note_off_c, 1, 54, 0
1, 195059, Note_on_c, 1, 52, 127
1, 195059, Note_on_c, 1, 76, 127
1, 195059, Note_on_c, 1, 79, 127
1, 195212, Note_off_c, 1, 52, 0
1, 195214, Note_on_c, 1, 50, 127
1, 195367, Note_off_c, 1, 76, 0
1, 195367, Note_off_c, 1, 79, 0
1, 195367, Note_off_c, 1, 50, 0
1, 195370, Note_on_c, 1, 52, 127
1, 195370, Note_on_c, 1, 73, 127
1, 195370, Note_on_c, 1, 76, 127
1, 195523, Note_off_c, 1, 52, 0
1, 195525, Note_on_c, 1, 54, 127
1, 195678, Note_off_c, 1, 73, 0
1, 195678, Note_off_c, 1, 76, 0
1, 195678, Note_off_c, 1, 54, 0
1, 195680, Note_on_c, 1, 55, 127
1, 195680, Note_on_c, 1, 73, 127
1, 195680, Note_on_c, 1, 69, 127
1, 195833, Note_off_c, 1, 55, 0
1, 195835, Note_on_c, 1, 57, 127
1, 195988, Note_off_c, 1, 73, 0
1, 195988, Note_off_c, 1, 57, 0
1, 195991, Note_on_c, 1, 74, 127
1, 195991, Note_on_c, 1, 59, 127
1, 196144, Note_off_c, 1, 74, 0
1, 196144, Note_off_c, 1, 59, 0
1, 196146, Note_on_c, 1, 76, 127
1, 196146, Note_on_c, 1, 61, 127
1, 196299, Note_off_c, 1, 76, 0
1, 196299, Note_off_c, 1, 61, 0
1, 196301, Note_on_c, 1, 78, 127
1, 196301, Note_on_c, 1, 62, 127
1, 196454, Note_off_c, 1, 78, 0
1, 196609, Note_off_c, 1, 62, 0
1, 196612, Note_on_c, 1, 79, 127
1, 196765, Note_off_c, 1, 79, 0
1, 197233, Note_off_c, 1, 69, 0
1, 197233, Note_on_c, 1, 54, 127
1, 197233, Note_on_c, 1, 81, 127
1, 197386, Note_off_c, 1, 54, 0
1, 197541, Note_off_c, 1, 81, 0
1, 197856, Note_on_c, 1, 76, 127
1, 197856, Note_on_c, 1, 73, 127
1, 197856, Note_on_c, 1, 45, 127
1, 198009, Note_off_c, 1, 76, 0
1, 198011, Note_on_c, 1, 78, 127
1, 198163, Note_off_c, 1, 73, 0
1, 198164, Note_off_c, 1, 45, 0
1, 198164, Note_off_c, 1, 78, 0
1, 198167, Note_on_c, 1, 74, 127
1, 198167, Note_on_c, 1, 50, 127
1, 198621, Note_off_c, 1, 74, 0
1, 198788, Note_off_c, 1, 50, 0
1, 198790, Note_on_c, 1, 66, 127
1, 198790, Note_on_c, 1, 69, 127
1, 198790, Note_on_c, 1, 62, 127
1, 199100, Note_off_c, 1, 66, 0
1, 199100, Note_off_c, 1, 69, 0
1, 199100, Note_off_c, 1, 62, 0
1, 199102, Note_on_c, 1, 74, 127
1, 199102, Note_on_c, 1, 66, 127
1, 199102, Note_on_c, 1, 69, 127
1, 199102, Note_on_c, 1, 57, 127
1, 199412, Note_off_c, 1, 74, 0
1, 199412, Note_off_c, 1, 66, 0
1, 199412, Note_off_c, 1, 69, 0
1, 199412, Note_off_c, 1, 57, 0
1, 199414, Note_on_c, 1, 55, 127
1, 199414, Note_on_c, 1, 74, 127
1, 199414, Note_on_c, 1, 78, 127
1, 199414, Note_on_c, 1, 69, 127
1, 199567, Note_off_c, 1, 55, 0
1, 199570, Note_on_c, 1, 54, 127
1, 199723, Note_off_c, 1, 54, 0
1, 199725, Note_on_c, 1, 52, 127
1, 199878, Note_off_c, 1, 52, 0
1, 199880, Note_on_c, 1, 50, 127
1, 200033, Note_off_c, 1, 74, 0
1, 200033, Note_off_c, 1, 78, 0
1, 200033, Note_off_c, 1, 69, 0
1, 200033, Note_off_c, 1, 50, 0
1, 200035, Note_on_c, 1, 79, 127
1, 200035, Note_on_c, 1, 57, 127
1, 200188, Note_off_c, 1, 79, 0
1, 200191, Note_on_c, 1, 78, 127
1, 200343, Note_off_c, 1, 57, 0
1, 200344, Note_off_c, 1, 78, 0
1, 200346, Note_on_c, 1, 76, 127
1, 200346, Note_on_c, 1, 60, 127
1, 200499, Note_off_c, 1, 76, 0
1, 200501, Note_on_c, 1, 74, 127
1, 200654, Note_off_c, 1, 60, 0
1, 200654, Note_off_c, 1, 74, 0
1, 200657, Note_on_c, 1, 59, 127
1, 200657, Note_on_c, 1, 74, 127
1, 200657, Note_on_c, 1, 79, 127
1, 200657, Note_on_c, 1, 67, 127
1, 200810, Note_off_c, 1, 59, 0
1, 200812, Note_on_c, 1, 60, 127
1, 200965, Note_off_c, 1, 74, 0
1, 200965, Note_off_c, 1, 79, 0
1, 200965, Note_off_c, 1, 67, 0
1, 200965, Note_off_c, 1, 60, 0
1, 200967, Note_on_c, 1, 59, 127
1, 200967, Note_on_c, 1, 74, 127
1, 201120, Note_off_c, 1, 59, 0
1, 201123, Note_on_c, 1, 57, 127
1, 201275, Note_off_c, 1, 74, 0
1, 201276, Note_off_c, 1, 57, 0
1, 201278, Note_on_c, 1, 55, 127
1, 201278, Note_on_c, 1, 83, 127
1, 201278, Note_on_c, 1, 74, 127
1, 201278, Note_on_c, 1, 79, 127
1, 201431, Note_off_c, 1, 55, 0
1, 201433, Note_on_c, 1, 57, 127
1, 201586, Note_off_c, 1, 83, 0
1, 201586, Note_off_c, 1, 74, 0
1, 201586, Note_off_c, 1, 79, 0
1, 201586, Note_off_c, 1, 57, 0
1, 201589, Note_on_c, 1, 59, 127
1, 201589, Note_on_c, 1, 79, 127
1, 201589, Note_on_c, 1, 71, 127
1, 201742, Note_off_c, 1, 59, 0
1, 201744, Note_on_c, 1, 55, 127
1, 201897, Note_off_c, 1, 79, 0
1, 201897, Note_off_c, 1, 71, 0
1, 201897, Note_off_c, 1, 55, 0
1, 201899, Note_on_c, 1, 60, 127
1, 201899, Note_on_c, 1, 67, 127
1, 201899, Note_on_c, 1, 76, 127
1, 202052, Note_off_c, 1, 60, 0
1, 202055, Note_on_c, 1, 62, 127
1, 202207, Note_off_c, 1, 67, 0
1, 202207, Note_off_c, 1, 76, 0
1, 202208, Note_off_c, 1, 62, 0
1, 202210, Note_on_c, 1, 78, 127
1, 202210, Note_on_c, 1, 69, 127
1, 202210, Note_on_c, 1, 60, 127
1, 202363, Note_off_c, 1, 78, 0
1, 202363, Note_off_c, 1, 69, 0
1, 202363, Note_off_c, 1, 60, 0
1, 202365, Note_on_c, 1, 79, 127
1, 202365, Note_on_c, 1, 71, 127
1, 202365, Note_on_c, 1, 59, 127
1, 202518, Note_off_c, 1, 79, 0
1, 202518, Note_off_c, 1, 71, 0
1, 202518, Note_off_c, 1, 59, 0
1, 202520, Note_on_c, 1, 57, 127
1, 202520, Note_on_c, 1, 72, 127
1, 202520, Note_on_c, 1, 81, 127
1, 202673, Note_off_c, 1, 57, 0
1, 202676, Note_on_c, 1, 59, 127
1, 202828, Note_off_c, 1, 72, 0
1, 202828, Note_off_c, 1, 81, 0
1, 202829, Note_off_c, 1, 59, 0
1, 202831, Note_on_c, 1, 60, 127
1, 202831, Note_on_c, 1, 78, 127
1, 202831, Note_on_c, 1, 69, 127
1, 202984, Note_off_c, 1, 60, 0
1, 202986, Note_on_c, 1, 57, 127
1, 203139, Note_off_c, 1, 78, 0
1, 203139, Note_off_c, 1, 69, 0
1, 203139, Note_off_c, 1, 57, 0
1, 203142, Note_on_c, 1, 59, 127
1, 203142, Note_on_c, 1, 75, 127
1, 203142, Note_on_c, 1, 66, 127
1, 203452, Note_off_c, 1, 59, 0
1, 203454, Note_on_c, 1, 47, 127
1, 203597, Note_off_c, 1, 75, 0
1, 203762, Note_off_c, 1, 47, 0
1, 203764, Note_off_c, 1, 66, 0
1, 203766, Note_on_c, 1, 71, 127
1, 203922, Note_on_c, 1, 73, 127
1, 204073, Note_off_c, 1, 71, 0
1, 204075, Note_off_c, 1, 73, 0
1, 204077, Note_on_c, 1, 75, 127
1, 204077, Note_on_c, 1, 66, 127
1, 204230, Note_off_c, 1, 75, 0
1, 204232, Note_on_c, 1, 76, 127
1, 204385, Note_off_c, 1, 66, 0
1, 204385, Note_off_c, 1, 76, 0
1, 204388, Note_on_c, 1, 78, 127
1, 204388, Note_on_c, 1, 63, 127
1, 204541, Note_off_c, 1, 78, 0
1, 204543, Note_on_c, 1, 79, 127
1, 204696, Note_off_c, 1, 63, 0
1, 204696, Note_off_c, 1, 79, 0
1, 204698, Note_on_c, 1, 78, 127
1, 204698, Note_on_c, 1, 63, 127
1, 204851, Note_off_c, 1, 78, 0
1, 204851, Note_off_c, 1, 63, 0
1, 204853, Note_on_c, 1, 76, 127
1, 204853, Note_on_c, 1, 64, 127
1, 205006, Note_off_c, 1, 76, 0
1, 205006, Note_off_c, 1, 64, 0
1, 205009, Note_on_c, 1, 75, 127
1, 205009, Note_on_c, 1, 66, 127
1, 205162, Note_off_c, 1, 75, 0
1, 205164, Note_on_c, 1, 76, 127
1, 205317, Note_off_c, 1, 66, 0
1, 205317, Note_off_c, 1, 76, 0
1, 205319, Note_on_c, 1, 78, 127
1, 205319, Note_on_c, 1, 63, 127
1, 205472, Note_off_c, 1, 78, 0
1, 205475, Note_on_c, 1, 79, 127
1, 205627, Note_off_c, 1, 63, 0
1, 205628, Note_off_c, 1, 79, 0
1, 205630, Note_on_c, 1, 81, 127
1, 205630, Note_on_c, 1, 59, 127
1, 205783, Note_off_c, 1, 81, 0
1, 205785, Note_on_c, 1, 83, 127
1, 205938, Note_off_c, 1, 59, 0
1, 205938, Note_off_c, 1, 83, 0
1, 205941, Note_on_c, 1, 81, 127
1, 205941, Note_on_c, 1, 59, 127
1, 206094, Note_off_c, 1, 81, 0
1, 206094, Note_off_c, 1, 59, 0
1, 206096, Note_on_c, 1, 79, 127
1, 206096, Note_on_c, 1, 61, 127
1, 206249, Note_off_c, 1, 79, 0
1, 206249, Note_off_c, 1, 61, 0
1, 206251, Note_on_c, 1, 78, 127
1, 206251, Note_on_c, 1, 63, 127
1, 206404, Note_off_c, 1, 78, 0
1, 206407, Note_on_c, 1, 79, 127
1, 206559, Note_off_c, 1, 63, 0
1, 206560, Note_off_c, 1, 79, 0
1, 206562, Note_on_c, 1, 81, 127
1, 206562, Note_on_c, 1, 59, 127
1, 206715, Note_off_c, 1, 81, 0
1, 206717, Note_on_c, 1, 83, 127
1, 206870, Note_off_c, 1, 59, 0
1, 206870, Note_off_c, 1, 83, 0
1, 206872, Note_on_c, 1, 84, 127
1, 206872, Note_on_c, 1, 55, 127
1, 207025, Note_off_c, 1, 84, 0
1, 207025, Note_off_c, 1, 55, 0
1, 207028, Note_on_c, 1, 81, 127
1, 207028, Note_on_c, 1, 54, 127
1, 207181, Note_off_c, 1, 81, 0
1, 207181, Note_off_c, 1, 54, 0
1, 207183, Note_on_c, 1, 55, 127
1, 207183, Note_on_c, 1, 83, 127
1, 207336, Note_off_c, 1, 55, 0
1, 207338, Note_on_c, 1, 57, 127
1, 207491, Note_off_c, 1, 83, 0
1, 207491, Note_off_c, 1, 57, 0
1, 207494, Note_on_c, 1, 76, 127
1, 207494, Note_on_c, 1, 67, 127
1, 207494, Note_on_c, 1, 59, 127
1, 207804, Note_off_c, 1, 76, 0
1, 207804, Note_off_c, 1, 67, 0
1, 207804, Note_off_c, 1, 59, 0
1, 207806, Note_on_c, 1, 78, 127
1, 207806, Note_on_c, 1, 69, 127
1, 207806, Note_on_c, 1, 47, 127
1, 207959, Note_off_c, 1, 78, 0
1, 207961, Note_on_c, 1, 75, 127
1, 208113, Note_off_c, 1, 69, 0
1, 208114, Note_off_c, 1, 47, 0
1, 208114, Note_off_c, 1, 75, 0
1, 208117, Note_on_c, 1, 52, 127
1, 208117, Note_on_c, 1, 76, 127
1, 208117, Note_on_c, 1, 67, 127
1, 208427, Note_off_c, 1, 52, 0
1, 208429, Note_on_c, 1, 47, 127
1, 208507, Note_off_c, 1, 76, 0
1, 208739, Note_off_c, 1, 67, 0
1, 208739, Note_off_c, 1, 47, 0
1, 208741, Note_on_c, 1, 40, 127
1, 208741, Note_on_c, 1, 67, 127
1, 208741, Note_on_c, 1, 71, 127
1, 208894, Note_off_c, 1, 40, 0
1, 208897, Note_on_c, 1, 42, 127
1, 209049, Note_off_c, 1, 67, 0
1, 209049, Note_off_c, 1, 71, 0
1, 209050, Note_off_c, 1, 42, 0
1, 209052, Note_on_c, 1, 43, 127
1, 209052, Note_on_c, 1, 71, 127
1, 209052, Note_on_c, 1, 76, 127
1, 209205, Note_off_c, 1, 43, 0
1, 209207, Note_on_c, 1, 45, 127
1, 209360, Note_off_c, 1, 71, 0
1, 209360, Note_off_c, 1, 76, 0
1, 209360, Note_off_c, 1, 45, 0
1, 209362, Note_on_c, 1, 47, 127
1, 209362, Note_on_c, 1, 79, 127
1, 209362, Note_on_c, 1, 74, 127
1, 209515, Note_off_c, 1, 47, 0
1, 209518, Note_on_c, 1, 48, 127
1, 209671, Note_off_c, 1, 48, 0
1, 209673, Note_on_c, 1, 50, 127
1, 209816, Note_off_c, 1, 79, 0
1, 209828, Note_off_c, 1, 50, 0
1, 209830, Note_on_c, 1, 52, 127
1, 209983, Note_off_c, 1, 74, 0
1, 209983, Note_off_c, 1, 52, 0
1, 209985, Note_on_c, 1, 72, 127
1, 209985, Note_on_c, 1, 53, 127
1, 210138, Note_off_c, 1, 72, 0
1, 210138, Note_off_c, 1, 53, 0
1, 210141, Note_on_c, 1, 71, 127
1, 210141, Note_on_c, 1, 55, 127
1, 210294, Note_off_c, 1, 71, 0
1, 210294, Note_off_c, 1, 55, 0
1, 210296, Note_on_c, 1, 69, 127
1, 210296, Note_on_c, 1, 57, 127
1, 210449, Note_off_c, 1, 69, 0
1, 210449, Note_off_c, 1, 57, 0
1, 210451, Note_on_c, 1, 67, 127
1, 210451, Note_on_c, 1, 59, 127
1, 210604, Note_off_c, 1, 67, 0
1, 210604, Note_off_c, 1, 59, 0
1, 210607, Note_on_c, 1, 77, 127
1, 210607, Note_on_c, 1, 60, 127
1, 210760, Note_off_c, 1, 77, 0
1, 210760, Note_off_c, 1, 60, 0
1, 210762, Note_on_c, 1, 74, 127
1, 210762, Note_on_c, 1, 62, 127
1, 210915, Note_off_c, 1, 74, 0
1, 210915, Note_off_c, 1, 62, 0
1, 210917, Note_on_c, 1, 60, 127
1, 210917, Note_on_c, 1, 76, 127
1, 211070, Note_off_c, 1, 60, 0
1, 211073, Note_on_c, 1, 59, 127
1, 211175, Note_off_c, 1, 76, 0
1, 211226, Note_off_c, 1, 59, 0
1, 211228, Note_on_c, 1, 66, 127
1, 211228, Note_on_c, 1, 57, 127
1, 211381, Note_off_c, 1, 66, 0
1, 211381, Note_off_c, 1, 57, 0
1, 211383, Note_on_c, 1, 67, 127
1, 211383, Note_on_c, 1, 55, 127
1, 211536, Note_off_c, 1, 67, 0
1, 211536, Note_off_c, 1, 55, 0
1, 211538, Note_on_c, 1, 69, 127
1, 211538, Note_on_c, 1, 54, 127
1, 211691, Note_off_c, 1, 69, 0
1, 211691, Note_off_c, 1, 54, 0
1, 211694, Note_on_c, 1, 71, 127
1, 211694, Note_on_c, 1, 52, 127
1, 211847, Note_off_c, 1, 71, 0
1, 211847, Note_off_c, 1, 52, 0
1, 211849, Note_on_c, 1, 72, 127
1, 211849, Note_on_c, 1, 50, 127
1, 212002, Note_off_c, 1, 72, 0
1, 212002, Note_off_c, 1, 50, 0
1, 212004, Note_on_c, 1, 69, 127
1, 212004, Note_on_c, 1, 48, 127
1, 212157, Note_off_c, 1, 69, 0
1, 212157, Note_off_c, 1, 48, 0
1, 212160, Note_on_c, 1, 71, 127
1, 212160, Note_on_c, 1, 47, 127
1, 212313, Note_off_c, 1, 71, 0
1, 212313, Note_off_c, 1, 47, 0
1, 212315, Note_on_c, 1, 72, 127
1, 212315, Note_on_c, 1, 45, 127
1, 212468, Note_off_c, 1, 72, 0
1, 212468, Note_off_c, 1, 45, 0
1, 212470, Note_on_c, 1, 74, 127
1, 212470, Note_on_c, 1, 43, 127
1, 212623, Note_off_c, 1, 74, 0
1, 212623, Note_off_c, 1, 43, 0
1, 212626, Note_on_c, 1, 72, 127
1, 212626, Note_on_c, 1, 45, 127
1, 212779, Note_off_c, 1, 72, 0
1, 212779, Note_off_c, 1, 45, 0
1, 212781, Note_on_c, 1, 74, 127
1, 212781, Note_on_c, 1, 47, 127
1, 212934, Note_off_c, 1, 74, 0
1, 212934, Note_off_c, 1, 47, 0
1, 212936, Note_on_c, 1, 76, 127
1, 212936, Note_on_c, 1, 48, 127
1, 213089, Note_off_c, 1, 76, 0
1, 213089, Note_off_c, 1, 48, 0
1, 213092, Note_on_c, 1, 50, 127
1, 213092, Note_on_c, 1, 69, 127
1, 213092, Note_on_c, 1, 66, 127
1, 213245, Note_off_c, 1, 50, 0
1, 213247, Note_on_c, 1, 45, 127
1, 213400, Note_off_c, 1, 45, 0
1, 213402, Note_on_c, 1, 42, 127
1, 213546, Note_off_c, 1, 69, 0
1, 213557, Note_off_c, 1, 42, 0
1, 213713, Note_off_c, 1, 66, 0
1, 213714, Note_on_c, 1, 38, 127
1, 213714, Note_on_c, 1, 84, 127
1, 213714, Note_on_c, 1, 81, 127
1, 213867, Note_off_c, 1, 38, 0
1, 213870, Note_on_c, 1, 40, 127
1, 214022, Note_off_c, 1, 84, 0
1, 214022, Note_off_c, 1, 81, 0
1, 214023, Note_off_c, 1, 40, 0
1, 214025, Note_on_c, 1, 42, 127
1, 214025, Note_on_c, 1, 74, 127
1, 214025, Note_on_c, 1, 81, 127
1, 214178, Note_off_c, 1, 42, 0
1, 214180, Note_on_c, 1, 43, 127
1, 214333, Note_off_c, 1, 74, 0
1, 214333, Note_off_c, 1, 81, 0
1, 214333, Note_off_c, 1, 43, 0
1, 214336, Note_on_c, 1, 45, 127
1, 214336, Note_on_c, 1, 78, 127
1, 214336, Note_on_c, 1, 72, 127
1, 214489, Note_off_c, 1, 45, 0
1, 214491, Note_on_c, 1, 47, 127
1, 214644, Note_off_c, 1, 78, 0
1, 214644, Note_off_c, 1, 47, 0
1, 214802, Note_on_c, 1, 79, 127
1, 214802, Note_on_c, 1, 43, 127
1, 214952, Note_off_c, 1, 72, 0
1, 214957, Note_off_c, 1, 79, 0
1, 214957, Note_off_c, 1, 43, 0
1, 214959, Note_on_c, 1, 42, 127
1, 214959, Note_on_c, 1, 81, 127
1, 214959, Note_on_c, 1, 72, 127
1, 215115, Note_off_c, 1, 42, 0
1, 215117, Note_on_c, 1, 43, 127
1, 215273, Note_off_c, 1, 43, 0
1, 215276, Note_off_c, 1, 81, 0
1, 215276, Note_off_c, 1, 72, 0
1, 215278, Note_on_c, 1, 45, 127
1, 215278, Note_on_c, 1, 78, 127
1, 215278, Note_on_c, 1, 69, 127
1, 215434, Note_off_c, 1, 45, 0
1, 215438, Note_on_c, 1, 47, 127
1, 215594, Note_off_c, 1, 47, 0
1, 215595, Note_off_c, 1, 78, 0
1, 215595, Note_off_c, 1, 69, 0
1, 215598, Note_on_c, 1, 48, 127
1, 215598, Note_on_c, 1, 74, 127
1, 215598, Note_on_c, 1, 66, 127
1, 215754, Note_off_c, 1, 48, 0
1, 215759, Note_on_c, 1, 50, 127
1, 215915, Note_off_c, 1, 74, 0
1, 215915, Note_off_c, 1, 50, 0
1, 216079, Note_on_c, 1, 47, 127
1, 216079, Note_on_c, 1, 76, 127
1, 216230, Note_off_c, 1, 66, 0
1, 216235, Note_off_c, 1, 47, 0
1, 216235, Note_off_c, 1, 76, 0
1, 216240, Note_on_c, 1, 45, 127
1, 216240, Note_on_c, 1, 78, 127
1, 216240, Note_on_c, 1, 72, 127
1, 216403, Note_off_c, 1, 45, 0
1, 216403, Note_off_c, 1, 78, 0
1, 216407, Note_on_c, 1, 47, 127
1, 216407, Note_on_c, 1, 79, 127
1, 216570, Note_off_c, 1, 47, 0
1, 216570, Note_off_c, 1, 79, 0
1, 216577, Note_on_c, 1, 48, 127
1, 216577, Note_on_c, 1, 81, 127
1, 216740, Note_off_c, 1, 48, 0
1, 216740, Note_off_c, 1, 81, 0
1, 216747, Note_on_c, 1, 50, 127
1, 216910, Note_off_c, 1, 50, 0
1, 216911, Note_off_c, 1, 72, 0
1, 216918, Note_on_c, 1, 79, 127
1, 216918, Note_on_c, 1, 71, 127
1, 216918, Note_on_c, 1, 52, 127
1, 217091, Note_off_c, 1, 79, 0
1, 217095, Note_on_c, 1, 76, 127
1, 217268, Note_off_c, 1, 76, 0
1, 217272, Note_off_c, 1, 71, 0
1, 217273, Note_off_c, 1, 52, 0
1, 217277, Note_on_c, 1, 48, 127
1, 217277, Note_on_c, 1, 81, 127
1, 217277, Note_on_c, 1, 72, 127
1, 217632, Note_off_c, 1, 48, 0
1, 217632, Note_off_c, 1, 81, 0
1, 217632, Note_off_c, 1, 72, 0
1, 217639, Note_on_c, 1, 79, 127
1, 217639, Note_on_c, 1, 50, 127
1, 217639, Note_on_c, 1, 69, 127
1, 217727, Note_off_c, 1, 79, 0
1, 217736, Note_on_c, 1, 78, 127
1, 217824, Note_off_c, 1, 78, 0
1, 218018, Note_off_c, 1, 50, 0
1, 218026, Note_on_c, 1, 38, 127
1, 218397, Note_off_c, 1, 69, 0
1, 218401, Note_off_c, 1, 38, 0
1, 218414, Note_on_c, 1, 43, 127
1, 218414, Note_on_c, 1, 71, 127
1, 218414, Note_on_c, 1, 79, 127
1, 220514, Note_off_c, 1, 43, 0
1, 220514, Note_off_c, 1, 71, 0
1, 220514, Note_off_c, 1, 79, 0
1, 221114, Note_on_c, 1, 71, 127
1, 221270, Note_off_c, 1, 71, 0
1, 221308, Note_on_c, 1, 74, 127
1, 221464, Note_off_c, 1, 74, 0
1, 221485, Note_on_c, 1, 79, 127
1, 221561, Note_off_c, 1, 79, 0
1, 221563, Note_on_c, 1, 78, 127
1, 221639, Note_off_c, 1, 78, 0
1, 221642, Note_on_c, 1, 62, 127
1, 221642, Note_on_c, 1, 79, 127
1, 221798, Note_off_c, 1, 62, 0
1, 221800, Note_on_c, 1, 59, 127
1, 221956, Note_off_c, 1, 59, 0
1, 221957, Note_off_c, 1, 79, 0
1, 221959, Note_on_c, 1, 81, 127
1, 221959, Note_on_c, 1, 55, 127
1, 222115, Note_off_c, 1, 81, 0
1, 222115, Note_off_c, 1, 55, 0
1, 222118, Note_on_c, 1, 83, 127
1, 222118, Note_on_c, 1, 54, 127
1, 222194, Note_off_c, 1, 83, 0
1, 222196, Note_on_c, 1, 81, 127
1, 222272, Note_off_c, 1, 81, 0
1, 222273, Note_off_c, 1, 54, 0
1, 222275, Note_on_c, 1, 83, 127
1, 222275, Note_on_c, 1, 60, 127
1, 222351, Note_off_c, 1, 83, 0
1, 222353, Note_on_c, 1, 81, 127
1, 222429, Note_off_c, 1, 81, 0
1, 222430, Note_off_c, 1, 60, 0
1, 222432, Note_on_c, 1, 83, 127
1, 222432, Note_on_c, 1, 57, 127
1, 222508, Note_off_c, 1, 83, 0
1, 222510, Note_on_c, 1, 81, 127
1, 222586, Note_off_c, 1, 81, 0
1, 222587, Note_off_c, 1, 57, 0
1, 222589, Note_on_c, 1, 79, 127
1, 222589, Note_on_c, 1, 54, 127
1, 222665, Note_off_c, 1, 79, 0
1, 222667, Note_on_c, 1, 81, 127
1, 222743, Note_off_c, 1, 81, 0
1, 222744, Note_off_c, 1, 54, 0
1, 222746, Note_on_c, 1, 55, 127
1, 222746, Note_on_c, 1, 83, 127
1, 222902, Note_off_c, 1, 55, 0
1, 222904, Note_on_c, 1, 59, 127
1, 223060, Note_off_c, 1, 59, 0
1, 223061, Note_off_c, 1, 83, 0
1, 223063, Note_on_c, 1, 81, 127
1, 223063, Note_on_c, 1, 55, 127
1, 223219, Note_off_c, 1, 81, 0
1, 223219, Note_off_c, 1, 55, 0
1, 223222, Note_on_c, 1, 83, 127
1, 223222, Note_on_c, 1, 50, 127
1, 223378, Note_off_c, 1, 83, 0
1, 223378, Note_off_c, 1, 50, 0
1, 223380, Note_on_c, 1, 47, 127
1, 223380, Note_on_c, 1, 79, 127
1, 223536, Note_off_c, 1, 47, 0
1, 223539, Note_on_c, 1, 50, 127
1, 223695, Note_off_c, 1, 79, 0
1, 223695, Note_off_c, 1, 50, 0
1, 223697, Note_on_c, 1, 74, 127
1, 223697, Note_on_c, 1, 47, 127
1, 223853, Note_off_c, 1, 74, 0
1, 223853, Note_off_c, 1, 47, 0
1, 223856, Note_on_c, 1, 71, 127
1, 223856, Note_on_c, 1, 43, 127
1, 224012, Note_off_c, 1, 71, 0
1, 224012, Note_off_c, 1, 43, 0
1, 224015, Note_on_c, 1, 48, 127
1, 224015, Note_on_c, 1, 76, 127
1, 224171, Note_off_c, 1, 48, 0
1, 224173, Note_on_c, 1, 43, 127
1, 224312, Note_off_c, 1, 76, 0
1, 224329, Note_off_c, 1, 43, 0
1, 224332, Note_on_c, 1, 72, 127
1, 224332, Note_on_c, 1, 52, 127
1, 224488, Note_off_c, 1, 72, 0
1, 224488, Note_off_c, 1, 52, 0
1, 224491, Note_on_c, 1, 69, 127
1, 224491, Note_on_c, 1, 48, 127
1, 224647, Note_off_c, 1, 69, 0
1, 224647, Note_off_c, 1, 48, 0
1, 224649, Note_on_c, 1, 50, 127
1, 224649, Note_on_c, 1, 66, 127
1, 224805, Note_off_c, 1, 50, 0
1, 224808, Note_on_c, 1, 45, 127
1, 224946, Note_off_c, 1, 66, 0
1, 224964, Note_off_c, 1, 45, 0
1, 224967, Note_on_c, 1, 74, 127
1, 224967, Note_on_c, 1, 54, 127
1, 225123, Note_off_c, 1, 74, 0
1, 225123, Note_off_c, 1, 54, 0
1, 225125, Note_on_c, 1, 69, 127
1, 225125, Note_on_c, 1, 50, 127
1, 225281, Note_off_c, 1, 69, 0
1, 225281, Note_off_c, 1, 50, 0
1, 225284, Note_on_c, 1, 72, 127
1, 225284, Note_on_c, 1, 55, 127
1, 225440, Note_off_c, 1, 72, 0
1, 225443, Note_on_c, 1, 71, 127
1, 225599, Note_off_c, 1, 55, 0
1, 225599, Note_off_c, 1, 71, 0
1, 225601, Note_on_c, 1, 69, 127
1, 225601, Note_on_c, 1, 50, 127
1, 225757, Note_off_c, 1, 69, 0
1, 225760, Note_on_c, 1, 71, 127
1, 225916, Note_off_c, 1, 50, 0
1, 225916, Note_off_c, 1, 71, 0
1, 225919, Note_on_c, 1, 67, 127
1, 225919, Note_on_c, 1, 47, 127
1, 226075, Note_off_c, 1, 67, 0
1, 226077, Note_on_c, 1, 69, 127
1, 226233, Note_off_c, 1, 69, 0
1, 226234, Note_off_c, 1, 47, 0
1, 226236, Note_on_c, 1, 71, 127
1, 226236, Note_on_c, 1, 50, 127
1, 226392, Note_off_c, 1, 71, 0
1, 226395, Note_on_c, 1, 74, 127
1, 226551, Note_off_c, 1, 50, 0
1, 226551, Note_off_c, 1, 74, 0
1, 226553, Note_on_c, 1, 79, 127
1, 226553, Note_on_c, 1, 43, 127
1, 226629, Note_off_c, 1, 79, 0
1, 226632, Note_on_c, 1, 78, 127
1, 226708, Note_off_c, 1, 43, 0
1, 226708, Note_off_c, 1, 78, 0
1, 226710, Note_on_c, 1, 62, 127
1, 226710, Note_on_c, 1, 79, 127
1, 226866, Note_off_c, 1, 62, 0
1, 226869, Note_on_c, 1, 59, 127
1, 227025, Note_off_c, 1, 79, 0
1, 227025, Note_off_c, 1, 59, 0
1, 227027, Note_on_c, 1, 81, 127
1, 227027, Note_on_c, 1, 55, 127
1, 227183, Note_off_c, 1, 81, 0
1, 227183, Note_off_c, 1, 55, 0
1, 227186, Note_on_c, 1, 83, 127
1, 227186, Note_on_c, 1, 54, 127
1, 227262, Note_off_c, 1, 83, 0
1, 227265, Note_on_c, 1, 81, 127
1, 227341, Note_off_c, 1, 54, 0
1, 227341, Note_off_c, 1, 81, 0
1, 227343, Note_on_c, 1, 83, 127
1, 227343, Note_on_c, 1, 60, 127
1, 227419, Note_off_c, 1, 83, 0
1, 227422, Note_on_c, 1, 81, 127
1, 227498, Note_off_c, 1, 60, 0
1, 227498, Note_off_c, 1, 81, 0
1, 227500, Note_on_c, 1, 83, 127
1, 227500, Note_on_c, 1, 57, 127
1, 227576, Note_off_c, 1, 83, 0
1, 227579, Note_on_c, 1, 81, 127
1, 227655, Note_off_c, 1, 57, 0
1, 227655, Note_off_c, 1, 81, 0
1, 227657, Note_on_c, 1, 79, 127
1, 227657, Note_on_c, 1, 54, 127
1, 227733, Note_off_c, 1, 79, 0
1, 227736, Note_on_c, 1, 81, 127
1, 227812, Note_off_c, 1, 54, 0
1, 227812, Note_off_c, 1, 81, 0
1, 227814, Note_on_c, 1, 55, 127
1, 227814, Note_on_c, 1, 83, 127
1, 227970, Note_off_c, 1, 55, 0
1, 227973, Note_on_c, 1, 59, 127
1, 228129, Note_off_c, 1, 83, 0
1, 228129, Note_off_c, 1, 59, 0
1, 228131, Note_on_c, 1, 81, 127
1, 228131, Note_on_c, 1, 55, 127
1, 228287, Note_off_c, 1, 81, 0
1, 228287, Note_off_c, 1, 55, 0
1, 228290, Note_on_c, 1, 83, 127
1, 228290, Note_on_c, 1, 50, 127
1, 228446, Note_off_c, 1, 83, 0
1, 228446, Note_off_c, 1, 50, 0
1, 228449, Note_on_c, 1, 47, 127
1, 228449, Note_on_c, 1, 79, 127
1, 228605, Note_off_c, 1, 47, 0
1, 228607, Note_on_c, 1, 55, 127
1, 228763, Note_off_c, 1, 55, 0
1, 228764, Note_off_c, 1, 79, 0
1, 228766, Note_on_c, 1, 81, 127
1, 228766, Note_on_c, 1, 50, 127
1, 228922, Note_off_c, 1, 81, 0
1, 228922, Note_off_c, 1, 50, 0
1, 228925, Note_on_c, 1, 84, 127
1, 228925, Note_on_c, 1, 47, 127
1, 229081, Note_off_c, 1, 84, 0
1, 229081, Note_off_c, 1, 47, 0
1, 229083, Note_on_c, 1, 43, 127
1, 229083, Note_on_c, 1, 83, 127
1, 229239, Note_off_c, 1, 43, 0
1, 229242, Note_on_c, 1, 47, 127
1, 229380, Note_off_c, 1, 83, 0
1, 229398, Note_off_c, 1, 47, 0
1, 229401, Note_on_c, 1, 76, 127
1, 229401, Note_on_c, 1, 49, 127
1, 229557, Note_off_c, 1, 76, 0
1, 229557, Note_off_c, 1, 49, 0
1, 229559, Note_on_c, 1, 79, 127
1, 229559, Note_on_c, 1, 52, 127
1, 229715, Note_off_c, 1, 79, 0
1, 229715, Note_off_c, 1, 52, 0
1, 229718, Note_on_c, 1, 42, 127
1, 229718, Note_on_c, 1, 81, 127
1, 229874, Note_off_c, 1, 42, 0
1, 229876, Note_on_c, 1, 45, 127
1, 230015, Note_off_c, 1, 81, 0
1, 230032, Note_off_c, 1, 45, 0
1, 230035, Note_on_c, 1, 71, 127
1, 230035, Note_on_c, 1, 50, 127
1, 230191, Note_off_c, 1, 71, 0
1, 230194, Note_on_c, 1, 74, 127
1, 230350, Note_off_c, 1, 50, 0
1, 230350, Note_off_c, 1, 74, 0
1, 230352, Note_on_c, 1, 40, 127
1, 230352, Note_on_c, 1, 79, 127
1, 230508, Note_off_c, 1, 40, 0
1, 230511, Note_on_c, 1, 43, 127
1, 230649, Note_off_c, 1, 79, 0
1, 230667, Note_off_c, 1, 43, 0
1, 230670, Note_on_c, 1, 73, 127
1, 230670, Note_on_c, 1, 45, 127
1, 230826, Note_off_c, 1, 73, 0
1, 230826, Note_off_c, 1, 45, 0
1, 230828, Note_on_c, 1, 76, 127
1, 230828, Note_on_c, 1, 49, 127
1, 230984, Note_off_c, 1, 76, 0
1, 230984, Note_off_c, 1, 49, 0
1, 230987, Note_on_c, 1, 50, 127
1, 230987, Note_on_c, 1, 78, 127
1, 231143, Note_off_c, 1, 50, 0
1, 231146, Note_on_c, 1, 52, 127
1, 231284, Note_off_c, 1, 78, 0
1, 231302, Note_off_c, 1, 52, 0
1, 231304, Note_on_c, 1, 74, 127
1, 231304, Note_on_c, 1, 54, 127
1, 231460, Note_off_c, 1, 74, 0
1, 231460, Note_off_c, 1, 54, 0
1, 231463, Note_on_c, 1, 78, 127
1, 231463, Note_on_c, 1, 50, 127
1, 231619, Note_off_c, 1, 78, 0
1, 231619, Note_off_c, 1, 50, 0
1, 231622, Note_on_c, 1, 55, 127
1, 231622, Note_on_c, 1, 83, 127
1, 231778, Note_off_c, 1, 55, 0
1, 231780, Note_on_c, 1, 52, 127
1, 231936, Note_off_c, 1, 52, 0
1, 231937, Note_off_c, 1, 83, 0
1, 231939, Note_on_c, 1, 54, 127
1, 231939, Note_on_c, 1, 81, 127
1, 232095, Note_off_c, 1, 54, 0
1, 232098, Note_on_c, 1, 50, 127
1, 232254, Note_off_c, 1, 81, 0
1, 232254, Note_off_c, 1, 50, 0
1, 232256, Note_on_c, 1, 79, 127
1, 232256, Note_on_c, 1, 57, 127
1, 232412, Note_off_c, 1, 79, 0
1, 232415, Note_on_c, 1, 78, 127
1, 232571, Note_off_c, 1, 57, 0
1, 232571, Note_off_c, 1, 78, 0
1, 232574, Note_on_c, 1, 79, 127
1, 232574, Note_on_c, 1, 45, 127
1, 232730, Note_off_c, 1, 79, 0
1, 232732, Note_on_c, 1, 76, 127
1, 232888, Note_off_c, 1, 76, 0
1, 232889, Note_off_c, 1, 45, 0
1, 232891, Note_on_c, 1, 50, 127
1, 232891, Note_on_c, 1, 74, 127
1, 233047, Note_off_c, 1, 50, 0
1, 233049, Note_on_c, 1, 45, 127
1, 233205, Note_off_c, 1, 45, 0
1, 233208, Note_on_c, 1, 42, 127
1, 233364, Note_off_c, 1, 42, 0
1, 233518, Note_off_c, 1, 74, 0
1, 233525, Note_on_c, 1, 38, 127
1, 233837, Note_off_c, 1, 38, 0
1, 233841, Note_on_c, 1, 81, 127
1, 233997, Note_off_c, 1, 81, 0
1, 234000, Note_on_c, 1, 78, 127
1, 234156, Note_off_c, 1, 78, 0
1, 234158, Note_on_c, 1, 74, 127
1, 234317, Note_on_c, 1, 62, 127
1, 234473, Note_off_c, 1, 62, 0
1, 234476, Note_on_c, 1, 57, 127
1, 234632, Note_off_c, 1, 74, 0
1, 234632, Note_off_c, 1, 57, 0
1, 234634, Note_on_c, 1, 76, 127
1, 234634, Note_on_c, 1, 54, 127
1, 234710, Note_off_c, 1, 76, 0
1, 234713, Note_on_c, 1, 78, 127
1, 234789, Note_off_c, 1, 54, 0
1, 234789, Note_off_c, 1, 78, 0
1, 234791, Note_on_c, 1, 79, 127
1, 234791, Note_on_c, 1, 50, 127
1, 234867, Note_off_c, 1, 79, 0
1, 234870, Note_on_c, 1, 78, 127
1, 234946, Note_off_c, 1, 50, 0
1, 234946, Note_off_c, 1, 78, 0
1, 234948, Note_on_c, 1, 79, 127
1, 234948, Note_on_c, 1, 57, 127
1, 235024, Note_off_c, 1, 79, 0
1, 235027, Note_on_c, 1, 78, 127
1, 235103, Note_off_c, 1, 57, 0
1, 235103, Note_off_c, 1, 78, 0
1, 235105, Note_on_c, 1, 79, 127
1, 235105, Note_on_c, 1, 54, 127
1, 235181, Note_off_c, 1, 79, 0
1, 235184, Note_on_c, 1, 78, 127
1, 235260, Note_off_c, 1, 54, 0
1, 235260, Note_off_c, 1, 78, 0
1, 235262, Note_on_c, 1, 76, 127
1, 235262, Note_on_c, 1, 50, 127
1, 235338, Note_off_c, 1, 76, 0
1, 235341, Note_on_c, 1, 78, 127
1, 235417, Note_off_c, 1, 50, 0
1, 235417, Note_off_c, 1, 78, 0
1, 235419, Note_on_c, 1, 47, 127
1, 235419, Note_on_c, 1, 79, 127
1, 235575, Note_off_c, 1, 47, 0
1, 235578, Note_on_c, 1, 59, 127
1, 235734, Note_off_c, 1, 59, 0
1, 235736, Note_on_c, 1, 55, 127
1, 235892, Note_off_c, 1, 55, 0
1, 235895, Note_on_c, 1, 50, 127
1, 236051, Note_off_c, 1, 50, 0
1, 236310, Note_off_c, 1, 79, 0
1, 236371, Note_on_c, 1, 74, 127
1, 236371, Note_on_c, 1, 47, 127
1, 236527, Note_off_c, 1, 74, 0
1, 236527, Note_off_c, 1, 47, 0
1, 236530, Note_on_c, 1, 79, 127
1, 236530, Note_on_c, 1, 43, 127
1, 236686, Note_off_c, 1, 79, 0
1, 236686, Note_off_c, 1, 43, 0
1, 236688, Note_on_c, 1, 45, 127
1, 236688, Note_on_c, 1, 84, 127
1, 236844, Note_off_c, 1, 45, 0
1, 236847, Note_on_c, 1, 48, 127
1, 236985, Note_off_c, 1, 84, 0
1, 237003, Note_off_c, 1, 48, 0
1, 237006, Note_on_c, 1, 75, 127
1, 237006, Note_on_c, 1, 45, 127
1, 237162, Note_off_c, 1, 75, 0
1, 237162, Note_off_c, 1, 45, 0
1, 237164, Note_on_c, 1, 78, 127
1, 237164, Note_on_c, 1, 42, 127
1, 237320, Note_off_c, 1, 78, 0
1, 237320, Note_off_c, 1, 42, 0
1, 237323, Note_on_c, 1, 43, 127
1, 237323, Note_on_c, 1, 83, 127
1, 237479, Note_off_c, 1, 43, 0
1, 237482, Note_on_c, 1, 47, 127
1, 237620, Note_off_c, 1, 83, 0
1, 237638, Note_off_c, 1, 47, 0
1, 237640, Note_on_c, 1, 76, 127
1, 237640, Note_on_c, 1, 43, 127
1, 237796, Note_off_c, 1, 76, 0
1, 237796, Note_off_c, 1, 43, 0
1, 237799, Note_on_c, 1, 79, 127
1, 237799, Note_on_c, 1, 40, 127
1, 237955, Note_off_c, 1, 79, 0
1, 237955, Note_off_c, 1, 40, 0
1, 237958, Note_on_c, 1, 78, 127
1, 237958, Note_on_c, 1, 47, 127
1, 238114, Note_off_c, 1, 78, 0
1, 238116, Note_on_c, 1, 76, 127
1, 238272, Note_off_c, 1, 76, 0
1, 238273, Note_off_c, 1, 47, 0
1, 238275, Note_on_c, 1, 75, 127
1, 238275, Note_on_c, 1, 49, 127
1, 238431, Note_off_c, 1, 75, 0
1, 238434, Note_on_c, 1, 73, 127
1, 238590, Note_off_c, 1, 49, 0
1, 238590, Note_off_c, 1, 73, 0
1, 238592, Note_on_c, 1, 51, 127
1, 238592, Note_on_c, 1, 71, 127
1, 238748, Note_off_c, 1, 51, 0
1, 238751, Note_on_c, 1, 54, 127
1, 238907, Note_off_c, 1, 71, 0
1, 238907, Note_off_c, 1, 54, 0
1, 238909, Note_on_c, 1, 81, 127
1, 238909, Note_on_c, 1, 59, 127
1, 239065, Note_off_c, 1, 81, 0
1, 239065, Note_off_c, 1, 59, 0
1, 239068, Note_on_c, 1, 78, 127
1, 239068, Note_on_c, 1, 51, 127
1, 239224, Note_off_c, 1, 78, 0
1, 239224, Note_off_c, 1, 51, 0
1, 239227, Note_on_c, 1, 52, 127
1, 239227, Note_on_c, 1, 71, 127
1, 239383, Note_off_c, 1, 52, 0
1, 239385, Note_on_c, 1, 55, 127
1, 239524, Note_off_c, 1, 71, 0
1, 239541, Note_off_c, 1, 55, 0
1, 239544, Note_on_c, 1, 79, 127
1, 239544, Note_on_c, 1, 59, 127
1, 239700, Note_off_c, 1, 79, 0
1, 239700, Note_off_c, 1, 59, 0
1, 239703, Note_on_c, 1, 76, 127
1, 239703, Note_on_c, 1, 50, 127
1, 239859, Note_off_c, 1, 76, 0
1, 239859, Note_off_c, 1, 50, 0
1, 239861, Note_on_c, 1, 49, 127
1, 239861, Note_on_c, 1, 70, 127
1, 240017, Note_off_c, 1, 49, 0
1, 240020, Note_on_c, 1, 52, 127
1, 240158, Note_off_c, 1, 70, 0
1, 240176, Note_off_c, 1, 52, 0
1, 240179, Note_on_c, 1, 79, 127
1, 240179, Note_on_c, 1, 59, 127
1, 240335, Note_off_c, 1, 79, 0
1, 240335, Note_off_c, 1, 59, 0
1, 240337, Note_on_c, 1, 76, 127
1, 240337, Note_on_c, 1, 49, 127
1, 240493, Note_off_c, 1, 76, 0
1, 240493, Note_off_c, 1, 49, 0
1, 240496, Note_on_c, 1, 51, 127
1, 240496, Note_on_c, 1, 69, 127
1, 240652, Note_off_c, 1, 51, 0
1, 240655, Note_on_c, 1, 54, 127
1, 240793, Note_off_c, 1, 69, 0
1, 240811, Note_off_c, 1, 54, 0
1, 240813, Note_on_c, 1, 78, 127
1, 240813, Note_on_c, 1, 57, 127
1, 240969, Note_off_c, 1, 78, 0
1, 240969, Note_off_c, 1, 57, 0
1, 240972, Note_on_c, 1, 75, 127
1, 240972, Note_on_c, 1, 60, 127
1, 241128, Note_off_c, 1, 75, 0
1, 241128, Note_off_c, 1, 60, 0
1, 241131, Note_on_c, 1, 59, 127
1, 241131, Note_on_c, 1, 68, 127
1, 241287, Note_off_c, 1, 59, 0
1, 241289, Note_on_c, 1, 52, 127
1, 241428, Note_off_c, 1, 68, 0
1, 241445, Note_off_c, 1, 52, 0
1, 241448, Note_on_c, 1, 77, 127
1, 241448, Note_on_c, 1, 56, 127
1, 241604, Note_off_c, 1, 77, 0
1, 241604, Note_off_c, 1, 56, 0
1, 241607, Note_on_c, 1, 75, 127
1, 241607, Note_on_c, 1, 59, 127
1, 241752, Note_off_c, 1, 75, 0
1, 241763, Note_off_c, 1, 59, 0
1, 241765, Note_on_c, 1, 60, 127
1, 241765, Note_on_c, 1, 76, 127
1, 241921, Note_off_c, 1, 60, 0
1, 241924, Note_on_c, 1, 64, 127
1, 242080, Note_off_c, 1, 76, 0
1, 242080, Note_off_c, 1, 64, 0
1, 242082, Note_on_c, 1, 60, 127
1, 242082, Note_on_c, 1, 78, 127
1, 242238, Note_off_c, 1, 60, 0
1, 242241, Note_on_c, 1, 57, 127
1, 242379, Note_off_c, 1, 78, 0
1, 242397, Note_off_c, 1, 57, 0
1, 242400, Note_on_c, 1, 71, 127
1, 242400, Note_on_c, 1, 59, 127
1, 242713, Note_off_c, 1, 71, 0
1, 242713, Note_off_c, 1, 59, 0
1, 242715, Note_on_c, 1, 75, 127
1, 242715, Note_on_c, 1, 47, 127
1, 243012, Note_off_c, 1, 75, 0
1, 243030, Note_off_c, 1, 47, 0
1, 243033, Note_on_c, 1, 52, 127
1, 243033, Note_on_c, 1, 76, 127
1, 243189, Note_off_c, 1, 52, 0
1, 243191, Note_on_c, 1, 47, 127
1, 243347, Note_off_c, 1, 47, 0
1, 243350, Note_on_c, 1, 43, 127
1, 243506, Note_off_c, 1, 43, 0
1, 243660, Note_off_c, 1, 76, 0
1, 243667, Note_on_c, 1, 40, 127
1, 243979, Note_off_c, 1, 40, 0
1, 243983, Note_on_c, 1, 79, 127
1, 244131, Note_off_c, 1, 79, 0
1, 244142, Note_on_c, 1, 76, 127
1, 244290, Note_off_c, 1, 76, 0
1, 244300, Note_on_c, 1, 71, 127
1, 244459, Note_on_c, 1, 64, 127
1, 244615, Note_off_c, 1, 64, 0
1, 244618, Note_on_c, 1, 59, 127
1, 244774, Note_off_c, 1, 71, 0
1, 244774, Note_off_c, 1, 59, 0
1, 244776, Note_on_c, 1, 72, 127
1, 244776, Note_on_c, 1, 55, 127
1, 244932, Note_off_c, 1, 72, 0
1, 244932, Note_off_c, 1, 55, 0
1, 244935, Note_on_c, 1, 74, 127
1, 244935, Note_on_c, 1, 52, 127
1, 245011, Note_off_c, 1, 74, 0
1, 245013, Note_on_c, 1, 72, 127
1, 245089, Note_off_c, 1, 72, 0
1, 245090, Note_off_c, 1, 52, 0
1, 245092, Note_on_c, 1, 74, 127
1, 245092, Note_on_c, 1, 55, 127
1, 245168, Note_off_c, 1, 74, 0
1, 245170, Note_on_c, 1, 72, 127
1, 245246, Note_off_c, 1, 72, 0
1, 245247, Note_off_c, 1, 55, 0
1, 245249, Note_on_c, 1, 74, 127
1, 245249, Note_on_c, 1, 48, 127
1, 245325, Note_off_c, 1, 74, 0
1, 245327, Note_on_c, 1, 72, 127
1, 245403, Note_off_c, 1, 72, 0
1, 245404, Note_off_c, 1, 48, 0
1, 245406, Note_on_c, 1, 71, 127
1, 245406, Note_on_c, 1, 52, 127
1, 245482, Note_off_c, 1, 71, 0
1, 245484, Note_on_c, 1, 72, 127
1, 245560, Note_off_c, 1, 72, 0
1, 245561, Note_off_c, 1, 52, 0
1, 245563, Note_on_c, 1, 47, 127
1, 245563, Note_on_c, 1, 74, 127
1, 245719, Note_off_c, 1, 47, 0
1, 245721, Note_on_c, 1, 59, 127
1, 245877, Note_off_c, 1, 59, 0
1, 245878, Note_off_c, 1, 74, 0
1, 245880, Note_on_c, 1, 71, 127
1, 245880, Note_on_c, 1, 55, 127
1, 246036, Note_off_c, 1, 71, 0
1, 246036, Note_off_c, 1, 55, 0
1, 246039, Note_on_c, 1, 74, 127
1, 246039, Note_on_c, 1, 50, 127
1, 246195, Note_off_c, 1, 74, 0
1, 246195, Note_off_c, 1, 50, 0
1, 246197, Note_on_c, 1, 47, 127
1, 246197, Note_on_c, 1, 79, 127
1, 246353, Note_off_c, 1, 47, 0
1, 246356, Note_on_c, 1, 50, 127
1, 246512, Note_off_c, 1, 79, 0
1, 246512, Note_off_c, 1, 50, 0
1, 246515, Note_on_c, 1, 83, 127
1, 246515, Note_on_c, 1, 43, 127
1, 246671, Note_off_c, 1, 83, 0
1, 246671, Note_off_c, 1, 43, 0
1, 246673, Note_on_c, 1, 79, 127
1, 246673, Note_on_c, 1, 47, 127
1, 246829, Note_off_c, 1, 79, 0
1, 246829, Note_off_c, 1, 47, 0
1, 246832, Note_on_c, 1, 48, 127
1, 246832, Note_on_c, 1, 76, 127
1, 246988, Note_off_c, 1, 48, 0
1, 246991, Note_on_c, 1, 52, 127
1, 247129, Note_off_c, 1, 76, 0
1, 247147, Note_off_c, 1, 52, 0
1, 247149, Note_on_c, 1, 69, 127
1, 247149, Note_on_c, 1, 53, 127
1, 247305, Note_off_c, 1, 69, 0
1, 247308, Note_on_c, 1, 72, 127
1, 247464, Note_off_c, 1, 53, 0
1, 247464, Note_off_c, 1, 72, 0
1, 247467, Note_on_c, 1, 47, 127
1, 247467, Note_on_c, 1, 74, 127
1, 247623, Note_off_c, 1, 47, 0
1, 247625, Note_on_c, 1, 50, 127
1, 247764, Note_off_c, 1, 74, 0
1, 247781, Note_off_c, 1, 50, 0
1, 247784, Note_on_c, 1, 68, 127
1, 247784, Note_on_c, 1, 52, 127
1, 247940, Note_off_c, 1, 68, 0
1, 247943, Note_on_c, 1, 71, 127
1, 248099, Note_off_c, 1, 52, 0
1, 248099, Note_off_c, 1, 71, 0
1, 248101, Note_on_c, 1, 45, 127
1, 248101, Note_on_c, 1, 72, 127
1, 248257, Note_off_c, 1, 45, 0
1, 248260, Note_on_c, 1, 48, 127
1, 248416, Note_off_c, 1, 72, 0
1, 248416, Note_off_c, 1, 48, 0
1, 248418, Note_on_c, 1, 71, 127
1, 248418, Note_on_c, 1, 52, 127
1, 248574, Note_off_c, 1, 71, 0
1, 248574, Note_off_c, 1, 52, 0
1, 248577, Note_on_c, 1, 72, 127
1, 248577, Note_on_c, 1, 55, 127
1, 248733, Note_off_c, 1, 72, 0
1, 248733, Note_off_c, 1, 55, 0
1, 248736, Note_on_c, 1, 54, 127
1, 248736, Note_on_c, 1, 69, 127
1, 248892, Note_off_c, 1, 54, 0
1, 248894, Note_on_c, 1, 57, 127
1, 248999, Note_off_c, 1, 69, 0
1, 249050, Note_off_c, 1, 57, 0
1, 249053, Note_on_c, 1, 74, 127
1, 249053, Note_on_c, 1, 54, 127
1, 249209, Note_off_c, 1, 74, 0
1, 249209, Note_off_c, 1, 54, 0
1, 249212, Note_on_c, 1, 69, 127
1, 249212, Note_on_c, 1, 50, 127
1, 249368, Note_off_c, 1, 69, 0
1, 249368, Note_off_c, 1, 50, 0
1, 249370, Note_on_c, 1, 55, 127
1, 249370, Note_on_c, 1, 71, 127
1, 249526, Note_off_c, 1, 55, 0
1, 249529, Note_on_c, 1, 50, 127
1, 249667, Note_off_c, 1, 71, 0
1, 249685, Note_off_c, 1, 50, 0
1, 249688, Note_on_c, 1, 67, 127
1, 249688, Note_on_c, 1, 47, 127
1, 249844, Note_off_c, 1, 67, 0
1, 249844, Note_off_c, 1, 47, 0
1, 249846, Note_on_c, 1, 71, 127
1, 249846, Note_on_c, 1, 50, 127
1, 250002, Note_off_c, 1, 71, 0
1, 250002, Note_off_c, 1, 50, 0
1, 250005, Note_on_c, 1, 43, 127
1, 250005, Note_on_c, 1, 76, 127
1, 250161, Note_off_c, 1, 43, 0
1, 250164, Note_on_c, 1, 47, 127
1, 250302, Note_off_c, 1, 76, 0
1, 250320, Note_off_c, 1, 47, 0
1, 250322, Note_on_c, 1, 79, 127
1, 250322, Note_on_c, 1, 52, 127
1, 250478, Note_off_c, 1, 79, 0
1, 250478, Note_off_c, 1, 52, 0
1, 250481, Note_on_c, 1, 71, 127
1, 250481, Note_on_c, 1, 55, 127
1, 250637, Note_off_c, 1, 71, 0
1, 250637, Note_off_c, 1, 55, 0
1, 250640, Note_on_c, 1, 57, 127
1, 250640, Note_on_c, 1, 72, 127
1, 250796, Note_off_c, 1, 57, 0
1, 250798, Note_on_c, 1, 52, 127
1, 250937, Note_off_c, 1, 72, 0
1, 250954, Note_off_c, 1, 52, 0
1, 250957, Note_on_c, 1, 69, 127
1, 250957, Note_on_c, 1, 48, 127
1, 251113, Note_off_c, 1, 69, 0
1, 251113, Note_off_c, 1, 48, 0
1, 251116, Note_on_c, 1, 72, 127
1, 251116, Note_on_c, 1, 52, 127
1, 251272, Note_off_c, 1, 72, 0
1, 251272, Note_off_c, 1, 52, 0
1, 251274, Note_on_c, 1, 45, 127
1, 251274, Note_on_c, 1, 78, 127
1, 251430, Note_off_c, 1, 45, 0
1, 251433, Note_on_c, 1, 48, 127
1, 251571, Note_off_c, 1, 78, 0
1, 251589, Note_off_c, 1, 48, 0
1, 251591, Note_on_c, 1, 81, 127
1, 251591, Note_on_c, 1, 54, 127
1, 251747, Note_off_c, 1, 81, 0
1, 251747, Note_off_c, 1, 54, 0
1, 251750, Note_on_c, 1, 72, 127
1, 251750, Note_on_c, 1, 57, 127
1, 251906, Note_off_c, 1, 72, 0
1, 251906, Note_off_c, 1, 57, 0
1, 251909, Note_on_c, 1, 59, 127
1, 251909, Note_on_c, 1, 74, 127
1, 252065, Note_off_c, 1, 59, 0
1, 252067, Note_on_c, 1, 55, 127
1, 252206, Note_off_c, 1, 74, 0
1, 252223, Note_off_c, 1, 55, 0
1, 252226, Note_on_c, 1, 71, 127
1, 252226, Note_on_c, 1, 50, 127
1, 252382, Note_off_c, 1, 71, 0
1, 252382, Note_off_c, 1, 50, 0
1, 252385, Note_on_c, 1, 74, 127
1, 252385, Note_on_c, 1, 55, 127
1, 252541, Note_off_c, 1, 74, 0
1, 252541, Note_off_c, 1, 55, 0
1, 252543, Note_on_c, 1, 47, 127
1, 252543, Note_on_c, 1, 79, 127
1, 252699, Note_off_c, 1, 47, 0
1, 252702, Note_on_c, 1, 50, 127
1, 252840, Note_off_c, 1, 79, 0
1, 252858, Note_off_c, 1, 50, 0
1, 252861, Note_on_c, 1, 83, 127
1, 252861, Note_on_c, 1, 55, 127
1, 253017, Note_off_c, 1, 83, 0
1, 253017, Note_off_c, 1, 55, 0
1, 253019, Note_on_c, 1, 79, 127
1, 253019, Note_on_c, 1, 59, 127
1, 253175, Note_off_c, 1, 79, 0
1, 253175, Note_off_c, 1, 59, 0
1, 253178, Note_on_c, 1, 81, 127
1, 253178, Note_on_c, 1, 62, 127
1, 253334, Note_off_c, 1, 81, 0
1, 253334, Note_off_c, 1, 62, 0
1, 253337, Note_on_c, 1, 79, 127
1, 253337, Note_on_c, 1, 64, 127
1, 253493, Note_off_c, 1, 79, 0
1, 253493, Note_off_c, 1, 64, 0
1, 253495, Note_on_c, 1, 78, 127
1, 253495, Note_on_c, 1, 62, 127
1, 253651, Note_off_c, 1, 78, 0
1, 253651, Note_off_c, 1, 62, 0
1, 253654, Note_on_c, 1, 76, 127
1, 253654, Note_on_c, 1, 60, 127
1, 253810, Note_off_c, 1, 76, 0
1, 253810, Note_off_c, 1, 60, 0
1, 253813, Note_on_c, 1, 59, 127
1, 253813, Note_on_c, 1, 74, 127
1, 253969, Note_off_c, 1, 59, 0
1, 253971, Note_on_c, 1, 62, 127
1, 254127, Note_off_c, 1, 62, 0
1, 254128, Note_off_c, 1, 74, 0
1, 254130, Note_on_c, 1, 79, 127
1, 254130, Note_on_c, 1, 59, 127
1, 254286, Note_off_c, 1, 79, 0
1, 254286, Note_off_c, 1, 59, 0
1, 254289, Note_on_c, 1, 74, 127
1, 254289, Note_on_c, 1, 55, 127
1, 254445, Note_off_c, 1, 74, 0
1, 254445, Note_off_c, 1, 55, 0
1, 254447, Note_on_c, 1, 48, 127
1, 254447, Note_on_c, 1, 76, 127
1, 254603, Note_off_c, 1, 48, 0
1, 254606, Note_on_c, 1, 52, 127
1, 254744, Note_off_c, 1, 76, 0
1, 254762, Note_off_c, 1, 52, 0
1, 254764, Note_on_c, 1, 69, 127
1, 254764, Note_on_c, 1, 54, 127
1, 254920, Note_off_c, 1, 69, 0
1, 254920, Note_off_c, 1, 54, 0
1, 254923, Note_on_c, 1, 72, 127
1, 254923, Note_on_c, 1, 57, 127
1, 255079, Note_off_c, 1, 72, 0
1, 255079, Note_off_c, 1, 57, 0
1, 255082, Note_on_c, 1, 47, 127
1, 255082, Note_on_c, 1, 74, 127
1, 255238, Note_off_c, 1, 47, 0
1, 255240, Note_on_c, 1, 50, 127
1, 255379, Note_off_c, 1, 74, 0
1, 255396, Note_off_c, 1, 50, 0
1, 255399, Note_on_c, 1, 64, 127
1, 255399, Note_on_c, 1, 55, 127
1, 255555, Note_off_c, 1, 64, 0
1, 255558, Note_on_c, 1, 67, 127
1, 255714, Note_off_c, 1, 55, 0
1, 255714, Note_off_c, 1, 67, 0
1, 255716, Note_on_c, 1, 45, 127
1, 255716, Note_on_c, 1, 72, 127
1, 255872, Note_off_c, 1, 45, 0
1, 255875, Note_on_c, 1, 48, 127
1, 256013, Note_off_c, 1, 72, 0
1, 256031, Note_off_c, 1, 48, 0
1, 256034, Note_on_c, 1, 66, 127
1, 256034, Note_on_c, 1, 50, 127
1, 256190, Note_off_c, 1, 66, 0
1, 256190, Note_off_c, 1, 50, 0
1, 256192, Note_on_c, 1, 69, 127
1, 256192, Note_on_c, 1, 54, 127
1, 256348, Note_off_c, 1, 69, 0
1, 256348, Note_off_c, 1, 54, 0
1, 256351, Note_on_c, 1, 55, 127
1, 256351, Note_on_c, 1, 71, 127
1, 256511, Note_off_c, 1, 55, 0
1, 256513, Note_on_c, 1, 50, 127
1, 256656, Note_off_c, 1, 71, 0
1, 256673, Note_off_c, 1, 50, 0
1, 256677, Note_on_c, 1, 67, 127
1, 256677, Note_on_c, 1, 47, 127
1, 256840, Note_off_c, 1, 67, 0
1, 256840, Note_off_c, 1, 47, 0
1, 256844, Note_on_c, 1, 71, 127
1, 256844, Note_on_c, 1, 50, 127
1, 257007, Note_off_c, 1, 71, 0
1, 257007, Note_off_c, 1, 50, 0
1, 257012, Note_on_c, 1, 55, 127
1, 257012, Note_on_c, 1, 74, 127
1, 257179, Note_off_c, 1, 55, 0
1, 257179, Note_off_c, 1, 74, 0
1, 257184, Note_on_c, 1, 50, 127
1, 257184, Note_on_c, 1, 71, 127
1, 257351, Note_off_c, 1, 50, 0
1, 257351, Note_off_c, 1, 71, 0
1, 257358, Note_on_c, 1, 47, 127
1, 257358, Note_on_c, 1, 79, 127
1, 257530, Note_off_c, 1, 47, 0
1, 257535, Note_on_c, 1, 43, 127
1, 257707, Note_off_c, 1, 43, 0
1, 257710, Note_off_c, 1, 79, 0
1, 257715, Note_on_c, 1, 72, 127
1, 257715, Note_on_c, 1, 50, 127
1, 257892, Note_off_c, 1, 72, 0
1, 257897, Note_on_c, 1, 71, 127
1, 258074, Note_off_c, 1, 71, 0
1, 258077, Note_off_c, 1, 50, 0
1, 258083, Note_on_c, 1, 69, 127
1, 258083, Note_on_c, 1, 38, 127
1, 258268, Note_off_c, 1, 69, 0
1, 258271, Note_on_c, 1, 67, 127
1, 258456, Note_off_c, 1, 67, 0
1, 258462, Note_off_c, 1, 38, 0
1, 258477, Note_on_c, 1, 67, 127
1, 258477, Note_on_c, 1, 43, 127
1, 260677, Note_off_c, 1, 67, 0
1, 260677, Note_off_c, 1, 43, 0
1, 262167, Note_on_c, 1, 74, 127
1, 262320, Note_off_c, 1, 74, 0
1, 262320, Note_on_c, 1, 71, 127
1, 262701, Note_on_c, 1, 69, 127
1, 262704, Note_off_c, 1, 71, 0
1, 262854, Note_off_c, 1, 69, 0
1, 262864, Note_on_c, 1, 67, 127
1, 263557, Note_on_c, 1, 62, 127
1, 263710, Note_off_c, 1, 62, 0
1, 263711, Note_on_c, 1, 59, 127
1, 264095, Note_off_c, 1, 59, 0
1, 264095, Note_on_c, 1, 57, 127
1, 264248, Note_off_c, 1, 57, 0
1, 264249, Note_on_c, 1, 55, 127
1, 264707, Note_off_c, 1, 67, 0
1, 264922, Note_off_c, 1, 55, 0
1, 264942, Note_on_c, 1, 69, 127
1, 264942, Note_on_c, 1, 54, 127
1, 265170, Note_off_c, 1, 69, 0
1, 265170, Note_off_c, 1, 54, 0
1, 265172, Note_on_c, 1, 55, 127
1, 265172, Note_on_c, 1, 71, 127
1, 265285, Note_off_c, 1, 55, 0
1, 265288, Note_on_c, 1, 59, 127
1, 265401, Note_off_c, 1, 59, 0
1, 265403, Note_on_c, 1, 62, 127
1, 265516, Note_off_c, 1, 62, 0
1, 265518, Note_on_c, 1, 67, 127
1, 265631, Note_off_c, 1, 71, 0
1, 265631, Note_off_c, 1, 67, 0
1, 265633, Note_on_c, 1, 69, 127
1, 265633, Note_on_c, 1, 66, 127
1, 266326, Note_on_c, 1, 45, 127
1, 266479, Note_off_c, 1, 45, 0
1, 266480, Note_on_c, 1, 42, 127
1, 266849, Note_off_c, 1, 42, 0
1, 266864, Note_on_c, 1, 40, 127
1, 267017, Note_off_c, 1, 40, 0
1, 267018, Note_on_c, 1, 38, 127
1, 267691, Note_off_c, 1, 38, 0
1, 267707, Note_off_c, 1, 69, 0
1, 267707, Note_off_c, 1, 66, 0
1, 267709, Note_on_c, 1, 71, 127
1, 267709, Note_on_c, 1, 67, 127
1, 267709, Note_on_c, 1, 50, 127
1, 267937, Note_off_c, 1, 71, 0
1, 267937, Note_off_c, 1, 67, 0
1, 267937, Note_off_c, 1, 50, 0
1, 267940, Note_on_c, 1, 72, 127
1, 267940, Note_on_c, 1, 69, 127
1, 267940, Note_on_c, 1, 48, 127
1, 268399, Note_off_c, 1, 72, 0
1, 268399, Note_off_c, 1, 69, 0
1, 268399, Note_off_c, 1, 48, 0
1, 268400, Note_on_c, 1, 47, 127
1, 268400, Note_on_c, 1, 74, 127
1, 268859, Note_off_c, 1, 47, 0
1, 268861, Note_on_c, 1, 52, 127
1, 268861, Note_on_c, 1, 67, 127
1, 269073, Note_off_c, 1, 74, 0
1, 269094, Note_on_c, 1, 79, 127
1, 269321, Note_off_c, 1, 52, 0
1, 269322, Note_off_c, 1, 79, 0
1, 269324, Note_on_c, 1, 76, 127
1, 269324, Note_on_c, 1, 48, 127
1, 269783, Note_off_c, 1, 76, 0
1, 269783, Note_off_c, 1, 48, 0
1, 269785, Note_on_c, 1, 45, 127
1, 269900, Note_on_c, 1, 72, 127
1, 270013, Note_off_c, 1, 45, 0
1, 270013, Note_off_c, 1, 72, 0
1, 270243, Note_off_c, 1, 67, 0
1, 270246, Note_on_c, 1, 66, 127
1, 270475, Note_on_c, 1, 71, 127
1, 270703, Note_off_c, 1, 71, 0
1, 270705, Note_on_c, 1, 50, 127
1, 270933, Note_off_c, 1, 50, 0
1, 270936, Note_on_c, 1, 69, 127
1, 270936, Note_on_c, 1, 38, 127
1, 271156, Note_off_c, 1, 66, 0
1, 271163, Note_off_c, 1, 69, 0
1, 271163, Note_off_c, 1, 38, 0
1, 271164, Note_on_c, 1, 72, 127
1, 271164, Note_on_c, 1, 43, 127
1, 271164, Note_on_c, 1, 67, 127
1, 271277, Note_off_c, 1, 72, 0
1, 271280, Note_on_c, 1, 71, 127
1, 271393, Note_off_c, 1, 71, 0
1, 271623, Note_off_c, 1, 43, 0
1, 271625, Note_on_c, 1, 47, 127
1, 271856, Note_on_c, 1, 69, 127
1, 272075, Note_off_c, 1, 67, 0
1, 272082, Note_off_c, 1, 47, 0
1, 272083, Note_off_c, 1, 69, 0
1, 272084, Note_on_c, 1, 67, 127
1, 272084, Note_on_c, 1, 50, 127
1, 272543, Note_off_c, 1, 67, 0
1, 272543, Note_off_c, 1, 50, 0
1, 272545, Note_on_c, 1, 59, 127
1, 272545, Note_on_c, 1, 62, 127
1, 272545, Note_on_c, 1, 67, 127
1, 272545, Note_on_c, 1, 55, 127
1, 273004, Note_off_c, 1, 59, 0
1, 273004, Note_off_c, 1, 62, 0
1, 273218, Note_off_c, 1, 67, 0
1, 273238, Note_on_c, 1, 71, 127
1, 273458, Note_off_c, 1, 55, 0
1, 273465, Note_off_c, 1, 71, 0
1, 273467, Note_on_c, 1, 74, 127
1, 273926, Note_off_c, 1, 74, 0
1, 273928, Note_on_c, 1, 79, 127
1, 274041, Note_off_c, 1, 79, 0
1, 274043, Note_on_c, 1, 78, 127
1, 274043, Note_on_c, 1, 43, 127
1, 274156, Note_off_c, 1, 78, 0
1, 274156, Note_off_c, 1, 43, 0
1, 274159, Note_on_c, 1, 45, 127
1, 274159, Note_on_c, 1, 79, 127
1, 274272, Note_off_c, 1, 45, 0
1, 274274, Note_on_c, 1, 47, 127
1, 274387, Note_off_c, 1, 47, 0
1, 274389, Note_on_c, 1, 48, 127
1, 274502, Note_off_c, 1, 48, 0
1, 274504, Note_on_c, 1, 50, 127
1, 274617, Note_off_c, 1, 50, 0
1, 274618, Note_off_c, 1, 79, 0
1, 274620, Note_on_c, 1, 52, 127
1, 274620, Note_on_c, 1, 81, 127
1, 274733, Note_off_c, 1, 52, 0
1, 274735, Note_on_c, 1, 54, 127
1, 274848, Note_off_c, 1, 81, 0
1, 274848, Note_off_c, 1, 54, 0
1, 274850, Note_on_c, 1, 55, 127
1, 274850, Note_on_c, 1, 83, 127
1, 274963, Note_off_c, 1, 55, 0
1, 274965, Note_on_c, 1, 59, 127
1, 275078, Note_off_c, 1, 59, 0
1, 275080, Note_on_c, 1, 57, 127
1, 275193, Note_off_c, 1, 57, 0
1, 275309, Note_off_c, 1, 83, 0
1, 275311, Note_on_c, 1, 74, 127
1, 275311, Note_on_c, 1, 55, 127
1, 275311, Note_on_c, 1, 64, 127
1, 275311, Note_on_c, 1, 69, 127
1, 275539, Note_off_c, 1, 74, 0
1, 275541, Note_on_c, 1, 73, 127
1, 275885, Note_off_c, 1, 55, 0
1, 275887, Note_on_c, 1, 59, 127
1, 276000, Note_off_c, 1, 73, 0
1, 276000, Note_off_c, 1, 59, 0
1, 276002, Note_on_c, 1, 57, 127
1, 276002, Note_on_c, 1, 76, 127
1, 276115, Note_off_c, 1, 57, 0
1, 276222, Note_off_c, 1, 64, 0
1, 276222, Note_off_c, 1, 69, 0
1, 276229, Note_off_c, 1, 76, 0
1, 276231, Note_on_c, 1, 54, 127
1, 276231, Note_on_c, 1, 81, 127
1, 276344, Note_off_c, 1, 54, 0
1, 276346, Note_on_c, 1, 55, 127
1, 276459, Note_off_c, 1, 55, 0
1, 276462, Note_on_c, 1, 52, 127
1, 276690, Note_off_c, 1, 81, 0
1, 276690, Note_off_c, 1, 52, 0
1, 276692, Note_on_c, 1, 75, 127
1, 276692, Note_on_c, 1, 54, 127
1, 276805, Note_off_c, 1, 75, 0
1, 276807, Note_on_c, 1, 76, 127
1, 276920, Note_off_c, 1, 76, 0
1, 276922, Note_on_c, 1, 78, 127
1, 277035, Note_off_c, 1, 78, 0
1, 277038, Note_on_c, 1, 79, 127
1, 277151, Note_off_c, 1, 54, 0
1, 277151, Note_off_c, 1, 79, 0
1, 277153, Note_on_c, 1, 81, 127
1, 277153, Note_on_c, 1, 51, 127
1, 277266, Note_off_c, 1, 81, 0
1, 277268, Note_on_c, 1, 84, 127
1, 277381, Note_off_c, 1, 84, 0
1, 277383, Note_on_c, 1, 83, 127
1, 277496, Note_off_c, 1, 83, 0
1, 277612, Note_off_c, 1, 51, 0
1, 277614, Note_on_c, 1, 79, 127
1, 277614, Note_on_c, 1, 47, 127
1, 277727, Note_off_c, 1, 79, 0
1, 277729, Note_on_c, 1, 81, 127
1, 277842, Note_off_c, 1, 81, 0
1, 277844, Note_on_c, 1, 78, 127
1, 278072, Note_off_c, 1, 78, 0
1, 278094, Note_off_c, 1, 47, 0
1, 278192, Note_on_c, 1, 52, 127
1, 278305, Note_off_c, 1, 52, 0
1, 278307, Note_on_c, 1, 55, 127
1, 278420, Note_off_c, 1, 55, 0
1, 278422, Note_on_c, 1, 54, 127
1, 278535, Note_off_c, 1, 54, 0
1, 278653, Note_on_c, 1, 50, 127
1, 278766, Note_off_c, 1, 50, 0
1, 278768, Note_on_c, 1, 49, 127
1, 278768, Note_on_c, 1, 76, 127
1, 278881, Note_off_c, 1, 49, 0
1, 278996, Note_off_c, 1, 76, 0
1, 278998, Note_on_c, 1, 73, 127
1, 279457, Note_off_c, 1, 73, 0
1, 279459, Note_on_c, 1, 71, 127
1, 279459, Note_on_c, 1, 42, 127
1, 279687, Note_off_c, 1, 71, 0
1, 279690, Note_on_c, 1, 69, 127
1, 280033, Note_off_c, 1, 42, 0
1, 280840, Note_on_c, 1, 67, 127
1, 281177, Note_off_c, 1, 69, 0
1, 281177, Note_off_c, 1, 67, 0
1, 281301, Note_on_c, 1, 71, 127
1, 281301, Note_on_c, 1, 66, 127
1, 281301, Note_on_c, 1, 43, 127
1, 281638, Note_off_c, 1, 71, 0
1, 281638, Note_off_c, 1, 66, 0
1, 281760, Note_off_c, 1, 43, 0
1, 281762, Note_on_c, 1, 64, 127
1, 281762, Note_on_c, 1, 73, 127
1, 281762, Note_on_c, 1, 45, 127
1, 282099, Note_off_c, 1, 64, 0
1, 282099, Note_off_c, 1, 73, 0
1, 282221, Note_off_c, 1, 45, 0
1, 282223, Note_on_c, 1, 50, 127
1, 282223, Note_on_c, 1, 69, 127
1, 282223, Note_on_c, 1, 74, 127
1, 282223, Note_on_c, 1, 66, 127
1, 282847, Note_off_c, 1, 50, 0
1, 282914, Note_on_c, 1, 45, 127
1, 283106, Note_off_c, 1, 45, 0
1, 283106, Note_on_c, 1, 42, 127
1, 283607, Note_on_c, 1, 38, 127
1, 283612, Note_off_c, 1, 42, 0
1, 284066, Note_off_c, 1, 69, 0
1, 284066, Note_off_c, 1, 74, 0
1, 284066, Note_off_c, 1, 66, 0
1, 284301, Note_on_c, 1, 81, 127
1, 284454, Note_off_c, 1, 81, 0
1, 284454, Note_on_c, 1, 78, 127
1, 284520, Note_off_c, 1, 38, 0
1, 284913, Note_off_c, 1, 78, 0
1, 284915, Note_on_c, 1, 76, 127
1, 285134, Note_on_c, 1, 74, 127
1, 285143, Note_off_c, 1, 76, 0
1, 285685, Note_on_c, 1, 69, 127
1, 285865, Note_on_c, 1, 66, 127
1, 285888, Note_off_c, 1, 69, 0
1, 286350, Note_on_c, 1, 60, 127
1, 286977, Note_off_c, 1, 74, 0
1, 287017, Note_off_c, 1, 66, 0
1, 287068, Note_on_c, 1, 67, 127
1, 287260, Note_off_c, 1, 67, 0
1, 287265, Note_on_c, 1, 78, 127
1, 287731, Note_off_c, 1, 60, 0
1, 287745, Note_off_c, 1, 78, 0
1, 287761, Note_on_c, 1, 59, 127
1, 287761, Note_on_c, 1, 62, 127
1, 287761, Note_on_c, 1, 79, 127
1, 287991, Note_on_c, 1, 74, 127
1, 288222, Note_on_c, 1, 71, 127
1, 288450, Note_off_c, 1, 59, 0
1, 288450, Note_off_c, 1, 62, 0
1, 288452, Note_on_c, 1, 67, 127
1, 289144, Note_on_c, 1, 53, 127
1, 289826, Note_off_c, 1, 79, 0
1, 289833, Note_off_c, 1, 74, 0
1, 289833, Note_off_c, 1, 71, 0
1, 289833, Note_off_c, 1, 67, 0
1, 289835, Note_on_c, 1, 81, 127
1, 289835, Note_on_c, 1, 60, 127
1, 290063, Note_off_c, 1, 81, 0
1, 290063, Note_off_c, 1, 60, 0
1, 290065, Note_on_c, 1, 83, 127
1, 290524, Note_off_c, 1, 83, 0
1, 290525, Note_off_c, 1, 53, 0
1, 290526, Note_on_c, 1, 84, 127
1, 290526, Note_on_c, 1, 52, 127
1, 290639, Note_off_c, 1, 84, 0
1, 290642, Note_on_c, 1, 83, 127
1, 290755, Note_off_c, 1, 83, 0
1, 290757, Note_on_c, 1, 81, 127
1, 290870, Note_off_c, 1, 81, 0
1, 290872, Note_on_c, 1, 80, 127
1, 290985, Note_off_c, 1, 52, 0
1, 290985, Note_off_c, 1, 80, 0
1, 290987, Note_on_c, 1, 81, 127
1, 290987, Note_on_c, 1, 53, 127
1, 290987, Note_on_c, 1, 60, 127
1, 291331, Note_off_c, 1, 81, 0
1, 291333, Note_on_c, 1, 76, 127
1, 291446, Note_off_c, 1, 53, 0
1, 291446, Note_off_c, 1, 60, 0
1, 291446, Note_off_c, 1, 76, 0
1, 291448, Note_on_c, 1, 77, 127
1, 291448, Note_on_c, 1, 50, 127
1, 291448, Note_on_c, 1, 59, 127
1, 291448, Note_on_c, 1, 69, 127
1, 291907, Note_off_c, 1, 77, 0
1, 291907, Note_off_c, 1, 50, 0
1, 291909, Note_on_c, 1, 72, 127
1, 291909, Note_on_c, 1, 52, 127
1, 292137, Note_off_c, 1, 72, 0
1, 292140, Note_on_c, 1, 71, 127
1, 292359, Note_off_c, 1, 59, 0
1, 292599, Note_off_c, 1, 71, 0
1, 292829, Note_off_c, 1, 69, 0
1, 292831, Note_on_c, 1, 68, 127
1, 292831, Note_on_c, 1, 76, 127
1, 292831, Note_on_c, 1, 64, 127
1, 293290, Note_off_c, 1, 52, 0
1, 293290, Note_off_c, 1, 68, 0
1, 293290, Note_off_c, 1, 76, 0
1, 293290, Note_off_c, 1, 64, 0
1, 293292, Note_on_c, 1, 74, 127
1, 293292, Note_on_c, 1, 69, 127
1, 293292, Note_on_c, 1, 57, 127
1, 293405, Note_off_c, 1, 74, 0
1, 293407, Note_on_c, 1, 72, 127
1, 293520, Note_off_c, 1, 72, 0
1, 293753, Note_on_c, 1, 52, 127
1, 293983, Note_on_c, 1, 71, 127
1, 294203, Note_off_c, 1, 69, 0
1, 294210, Note_off_c, 1, 52, 0
1, 294210, Note_off_c, 1, 71, 0
1, 294212, Note_on_c, 1, 48, 127
1, 294671, Note_off_c, 1, 57, 0
1, 294671, Note_off_c, 1, 48, 0
1, 294673, Note_on_c, 1, 45, 127
1, 294673, Note_on_c, 1, 69, 127
1, 295132, Note_off_c, 1, 45, 0
1, 295133, Note_off_c, 1, 69, 0
1, 295134, Note_on_c, 1, 47, 127
1, 295249, Note_on_c, 1, 72, 127
1, 295362, Note_off_c, 1, 72, 0
1, 295364, Note_on_c, 1, 71, 127
1, 295477, Note_off_c, 1, 71, 0
1, 295480, Note_on_c, 1, 69, 127
1, 295593, Note_off_c, 1, 47, 0
1, 295593, Note_off_c, 1, 69, 0
1, 295595, Note_on_c, 1, 76, 127
1, 295595, Note_on_c, 1, 48, 127
1, 296054, Note_off_c, 1, 76, 0
1, 296054, Note_off_c, 1, 48, 0
1, 296056, Note_on_c, 1, 38, 127
1, 296056, Note_on_c, 1, 66, 127
1, 296284, Note_off_c, 1, 38, 0
1, 296286, Note_on_c, 1, 45, 127
1, 296514, Note_off_c, 1, 45, 0
1, 296517, Note_on_c, 1, 50, 127
1, 296745, Note_off_c, 1, 66, 0
1, 296745, Note_off_c, 1, 50, 0
1, 296747, Note_on_c, 1, 52, 127
1, 296747, Note_on_c, 1, 69, 127
1, 296860, Note_off_c, 1, 52, 0
1, 296862, Note_on_c, 1, 54, 127
1, 296975, Note_off_c, 1, 69, 0
1, 296975, Note_off_c, 1, 54, 0
1, 296978, Note_on_c, 1, 52, 127
1, 296978, Note_on_c, 1, 72, 127
1, 297208, Note_on_c, 1, 54, 127
1, 297321, Note_off_c, 1, 54, 0
1, 297323, Note_on_c, 1, 55, 127
1, 297433, Note_off_c, 1, 52, 0
1, 297434, Note_off_c, 1, 55, 0
1, 297437, Note_on_c, 1, 62, 127
1, 297782, Note_on_c, 1, 57, 127
1, 297895, Note_off_c, 1, 57, 0
1, 297898, Note_on_c, 1, 47, 127
1, 298011, Note_off_c, 1, 62, 0
1, 298013, Note_on_c, 1, 66, 127
1, 298126, Note_off_c, 1, 47, 0
1, 298126, Note_off_c, 1, 66, 0
1, 298128, Note_on_c, 1, 64, 127
1, 298128, Note_on_c, 1, 50, 127
1, 298241, Note_off_c, 1, 64, 0
1, 298356, Note_off_c, 1, 50, 0
1, 298357, Note_off_c, 1, 72, 0
1, 298359, Note_on_c, 1, 71, 127
1, 298359, Note_on_c, 1, 55, 127
1, 298589, Note_on_c, 1, 59, 127
1, 298817, Note_off_c, 1, 59, 0
1, 298818, Note_off_c, 1, 71, 0
1, 298820, Note_on_c, 1, 60, 127
1, 298820, Note_on_c, 1, 69, 127
1, 299032, Note_off_c, 1, 55, 0
1, 299277, Note_off_c, 1, 60, 0
1, 299280, Note_on_c, 1, 54, 127
1, 299508, Note_off_c, 1, 54, 0
1, 299509, Note_off_c, 1, 69, 0
1, 299511, Note_on_c, 1, 76, 127
1, 299511, Note_on_c, 1, 52, 127
1, 299739, Note_off_c, 1, 76, 0
1, 299739, Note_off_c, 1, 52, 0
1, 299741, Note_on_c, 1, 51, 127
1, 299741, Note_on_c, 1, 81, 127
1, 299969, Note_off_c, 1, 51, 0
1, 299972, Note_on_c, 1, 52, 127
1, 300200, Note_off_c, 1, 52, 0
1, 300202, Note_on_c, 1, 71, 127
1, 300548, Note_on_c, 1, 54, 127
1, 300661, Note_off_c, 1, 54, 0
1, 300663, Note_on_c, 1, 47, 127
1, 300759, Note_off_c, 1, 81, 0
1, 300893, Note_off_c, 1, 47, 0
1, 300895, Note_on_c, 1, 79, 127
1, 301008, Note_off_c, 1, 79, 0
1, 301011, Note_on_c, 1, 78, 127
1, 301124, Note_off_c, 1, 78, 0
1, 301471, Note_on_c, 1, 55, 127
1, 301584, Note_off_c, 1, 71, 0
1, 301584, Note_off_c, 1, 55, 0
1, 301587, Note_on_c, 1, 72, 127
1, 301587, Note_on_c, 1, 57, 127
1, 301700, Note_off_c, 1, 72, 0
1, 301702, Note_on_c, 1, 71, 127
1, 301815, Note_off_c, 1, 71, 0
1, 301817, Note_on_c, 1, 69, 127
1, 301930, Note_off_c, 1, 69, 0
1, 301932, Note_on_c, 1, 67, 127
1, 302045, Note_off_c, 1, 67, 0
1, 302048, Note_on_c, 1, 66, 127
1, 302161, Note_off_c, 1, 66, 0
1, 302163, Note_on_c, 1, 76, 127
1, 302276, Note_off_c, 1, 76, 0
1, 302278, Note_on_c, 1, 74, 127
1, 302278, Note_on_c, 1, 54, 127
1, 302391, Note_off_c, 1, 74, 0
1, 302506, Note_off_c, 1, 54, 0
1, 302509, Note_on_c, 1, 48, 127
1, 302968, Note_off_c, 1, 48, 0
1, 302969, Note_on_c, 1, 62, 127
1, 302969, Note_on_c, 1, 60, 127
1, 302969, Note_on_c, 1, 47, 127
1, 303306, Note_off_c, 1, 62, 0
1, 303306, Note_off_c, 1, 60, 0
1, 303428, Note_off_c, 1, 47, 0
1, 303429, Note_off_c, 1, 57, 0
1, 303430, Note_on_c, 1, 64, 127
1, 303430, Note_on_c, 1, 59, 127
1, 303430, Note_on_c, 1, 55, 127
1, 303430, Note_on_c, 1, 48, 127
1, 303767, Note_off_c, 1, 64, 0
1, 303767, Note_off_c, 1, 59, 0
1, 303889, Note_off_c, 1, 55, 0
1, 303889, Note_off_c, 1, 48, 0
1, 303891, Note_on_c, 1, 66, 127
1, 303891, Note_on_c, 1, 57, 127
1, 303891, Note_on_c, 1, 50, 127
1, 304228, Note_off_c, 1, 66, 0
1, 304228, Note_off_c, 1, 57, 0
1, 304350, Note_off_c, 1, 50, 0
1, 304352, Note_on_c, 1, 43, 127
1, 304352, Note_on_c, 1, 62, 127
1, 304352, Note_on_c, 1, 67, 127
1, 304352, Note_on_c, 1, 59, 127
1, 305041, Note_off_c, 1, 43, 0
1, 305044, Note_on_c, 1, 47, 127
1, 305272, Note_off_c, 1, 47, 0
1, 305274, Note_on_c, 1, 50, 127
1, 305733, Note_off_c, 1, 50, 0
1, 305735, Note_on_c, 1, 55, 127
1, 307115, Note_off_c, 1, 62, 0
1, 307115, Note_off_c, 1, 67, 0
1, 307115, Note_off_c, 1, 59, 0
1, 308135, Note_off_c, 1, 55, 0
1, 309182, Note_on_c, 1, 74, 127
1, 309312, Note_off_c, 1, 74, 0
1, 309314, Note_on_c, 1, 79, 127
1, 309444, Note_off_c, 1, 79, 0
1, 309446, Note_on_c, 1, 83, 127
1, 309576, Note_off_c, 1, 83, 0
1, 309578, Note_on_c, 1, 78, 127
1, 309708, Note_off_c, 1, 78, 0
1, 309712, Note_on_c, 1, 79, 127
1, 309842, Note_off_c, 1, 79, 0
1, 309844, Note_on_c, 1, 83, 127
1, 309974, Note_off_c, 1, 83, 0
1, 309976, Note_on_c, 1, 74, 127
1, 310106, Note_off_c, 1, 74, 0
1, 310109, Note_on_c, 1, 79, 127
1, 310239, Note_off_c, 1, 79, 0
1, 310241, Note_on_c, 1, 83, 127
1, 310371, Note_off_c, 1, 83, 0
1, 310373, Note_on_c, 1, 78, 127
1, 310503, Note_off_c, 1, 78, 0
1, 310505, Note_on_c, 1, 79, 127
1, 310635, Note_off_c, 1, 79, 0
1, 310638, Note_on_c, 1, 83, 127
1, 310768, Note_off_c, 1, 83, 0
1, 310770, Note_on_c, 1, 74, 127
1, 310900, Note_off_c, 1, 74, 0
1, 310902, Note_on_c, 1, 76, 127
1, 311032, Note_off_c, 1, 76, 0
1, 311034, Note_on_c, 1, 72, 127
1, 311164, Note_off_c, 1, 72, 0
1, 311167, Note_on_c, 1, 67, 127
1, 311297, Note_off_c, 1, 67, 0
1, 311299, Note_on_c, 1, 79, 127
1, 311494, Note_off_c, 1, 79, 0
1, 311562, Note_on_c, 1, 72, 127
1, 311692, Note_off_c, 1, 72, 0
1, 311695, Note_on_c, 1, 74, 127
1, 311825, Note_off_c, 1, 74, 0
1, 311828, Note_on_c, 1, 71, 127
1, 311958, Note_off_c, 1, 71, 0
1, 311960, Note_on_c, 1, 67, 127
1, 312090, Note_off_c, 1, 67, 0
1, 312092, Note_on_c, 1, 79, 127
1, 312287, Note_off_c, 1, 79, 0
1, 312355, Note_on_c, 1, 71, 127
1, 312485, Note_off_c, 1, 71, 0
1, 312487, Note_on_c, 1, 72, 127
1, 312617, Note_off_c, 1, 72, 0
1, 312620, Note_on_c, 1, 74, 127
1, 312750, Note_off_c, 1, 74, 0
1, 312752, Note_on_c, 1, 76, 127
1, 312882, Note_off_c, 1, 76, 0
1, 312884, Note_on_c, 1, 74, 127
1, 313014, Note_off_c, 1, 74, 0
1, 313016, Note_on_c, 1, 76, 127
1, 313146, Note_off_c, 1, 76, 0
1, 313149, Note_on_c, 1, 72, 127
1, 313279, Note_off_c, 1, 72, 0
1, 313281, Note_on_c, 1, 71, 127
1, 313411, Note_off_c, 1, 71, 0
1, 313413, Note_on_c, 1, 74, 127
1, 313543, Note_off_c, 1, 74, 0
1, 313545, Note_on_c, 1, 79, 127
1, 313675, Note_off_c, 1, 79, 0
1, 313678, Note_on_c, 1, 83, 127
1, 313808, Note_off_c, 1, 83, 0
1, 313811, Note_on_c, 1, 81, 127
1, 313941, Note_off_c, 1, 81, 0
1, 313943, Note_on_c, 1, 79, 127
1, 313943, Note_on_c, 1, 67, 127
1, 314073, Note_off_c, 1, 79, 0
1, 314073, Note_off_c, 1, 67, 0
1, 314076, Note_on_c, 1, 74, 127
1, 314076, Note_on_c, 1, 81, 127
1, 314206, Note_off_c, 1, 74, 0
1, 314208, Note_on_c, 1, 78, 127
1, 314338, Note_off_c, 1, 81, 0
1, 314338, Note_off_c, 1, 78, 0
1, 314340, Note_on_c, 1, 73, 127
1, 314340, Note_on_c, 1, 81, 127
1, 314470, Note_off_c, 1, 73, 0
1, 314470, Note_off_c, 1, 81, 0
1, 314472, Note_on_c, 1, 74, 127
1, 314472, Note_on_c, 1, 81, 127
1, 314602, Note_off_c, 1, 74, 0
1, 314605, Note_on_c, 1, 78, 127
1, 314734, Note_off_c, 1, 81, 0
1, 314735, Note_off_c, 1, 78, 0
1, 314737, Note_on_c, 1, 69, 127
1, 314737, Note_on_c, 1, 81, 127
1, 314867, Note_off_c, 1, 69, 0
1, 314867, Note_off_c, 1, 81, 0
1, 314869, Note_on_c, 1, 74, 127
1, 314869, Note_on_c, 1, 81, 127
1, 314999, Note_off_c, 1, 74, 0
1, 315002, Note_on_c, 1, 78, 127
1, 315131, Note_off_c, 1, 81, 0
1, 315132, Note_off_c, 1, 78, 0
1, 315134, Note_on_c, 1, 73, 127
1, 315134, Note_on_c, 1, 81, 127
1, 315264, Note_off_c, 1, 73, 0
1, 315264, Note_off_c, 1, 81, 0
1, 315266, Note_on_c, 1, 74, 127
1, 315266, Note_on_c, 1, 81, 127
1, 315396, Note_off_c, 1, 74, 0
1, 315398, Note_on_c, 1, 78, 127
1, 315528, Note_off_c, 1, 81, 0
1, 315528, Note_off_c, 1, 78, 0
1, 315531, Note_on_c, 1, 69, 127
1, 315531, Note_on_c, 1, 81, 127
1, 315661, Note_off_c, 1, 69, 0
1, 315661, Note_off_c, 1, 81, 0
1, 315663, Note_on_c, 1, 71, 127
1, 315663, Note_on_c, 1, 74, 127
1, 315793, Note_off_c, 1, 71, 0
1, 315793, Note_off_c, 1, 74, 0
1, 315795, Note_on_c, 1, 79, 127
1, 315795, Note_on_c, 1, 67, 127
1, 315925, Note_off_c, 1, 79, 0
1, 315925, Note_off_c, 1, 67, 0
1, 315928, Note_on_c, 1, 83, 127
1, 315928, Note_on_c, 1, 62, 127
1, 316058, Note_off_c, 1, 83, 0
1, 316058, Note_off_c, 1, 62, 0
1, 316061, Note_on_c, 1, 83, 127
1, 316061, Note_on_c, 1, 74, 127
1, 316191, Note_off_c, 1, 83, 0
1, 316193, Note_on_c, 1, 79, 127
1, 316257, Note_off_c, 1, 74, 0
1, 316325, Note_off_c, 1, 79, 0
1, 316327, Note_on_c, 1, 74, 127
1, 316327, Note_on_c, 1, 67, 127
1, 316457, Note_off_c, 1, 74, 0
1, 316457, Note_off_c, 1, 67, 0
1, 316459, Note_on_c, 1, 74, 127
1, 316459, Note_on_c, 1, 69, 127
1, 316589, Note_off_c, 1, 74, 0
1, 316589, Note_off_c, 1, 69, 0
1, 316592, Note_on_c, 1, 66, 127
1, 316592, Note_on_c, 1, 78, 127
1, 316722, Note_off_c, 1, 66, 0
1, 316722, Note_off_c, 1, 78, 0
1, 316724, Note_on_c, 1, 81, 127
1, 316724, Note_on_c, 1, 62, 127
1, 316854, Note_off_c, 1, 81, 0
1, 316854, Note_off_c, 1, 62, 0
1, 316856, Note_on_c, 1, 81, 127
1, 316856, Note_on_c, 1, 74, 127
1, 316986, Note_off_c, 1, 81, 0
1, 316988, Note_on_c, 1, 78, 127
1, 317052, Note_off_c, 1, 74, 0
1, 317120, Note_off_c, 1, 78, 0
1, 317122, Note_on_c, 1, 74, 127
1, 317122, Note_on_c, 1, 66, 127
1, 317252, Note_off_c, 1, 74, 0
1, 317252, Note_off_c, 1, 66, 0
1, 317255, Note_on_c, 1, 67, 127
1, 317255, Note_on_c, 1, 74, 127
1, 317385, Note_off_c, 1, 67, 0
1, 317387, Note_on_c, 1, 69, 127
1, 317517, Note_off_c, 1, 69, 0
1, 317519, Note_on_c, 1, 71, 127
1, 317646, Note_off_c, 1, 74, 0
1, 317649, Note_off_c, 1, 71, 0
1, 317651, Note_on_c, 1, 69, 127
1, 317651, Note_on_c, 1, 73, 127
1, 317781, Note_off_c, 1, 69, 0
1, 317784, Note_on_c, 1, 71, 127
1, 317914, Note_off_c, 1, 71, 0
1, 317916, Note_on_c, 1, 67, 127
1, 318042, Note_off_c, 1, 73, 0
1, 318046, Note_off_c, 1, 67, 0
1, 318048, Note_on_c, 1, 66, 127
1, 318048, Note_on_c, 1, 74, 127
1, 318178, Note_off_c, 1, 66, 0
1, 318181, Note_on_c, 1, 69, 127
1, 318311, Note_off_c, 1, 69, 0
1, 318313, Note_on_c, 1, 72, 127
1, 318439, Note_off_c, 1, 74, 0
1, 318443, Note_off_c, 1, 72, 0
1, 318445, Note_on_c, 1, 76, 127
1, 318445, Note_on_c, 1, 78, 127
1, 318575, Note_off_c, 1, 76, 0
1, 318578, Note_on_c, 1, 74, 127
1, 318708, Note_off_c, 1, 74, 0
1, 318711, Note_on_c, 1, 72, 127
1, 318711, Note_on_c, 1, 62, 127
1, 318836, Note_off_c, 1, 78, 0
1, 318841, Note_off_c, 1, 72, 0
1, 318841, Note_off_c, 1, 62, 0
1, 318843, Note_on_c, 1, 71, 127
1, 318843, Note_on_c, 1, 67, 127
1, 318843, Note_on_c, 1, 79, 127
1, 318973, Note_off_c, 1, 71, 0
1, 318973, Note_off_c, 1, 67, 0
1, 319105, Note_off_c, 1, 79, 0
1, 319108, Note_on_c, 1, 74, 127
1, 319108, Note_on_c, 1, 81, 127
1, 319108, Note_on_c, 1, 66, 127
1, 319238, Note_off_c, 1, 74, 0
1, 319238, Note_off_c, 1, 81, 0
1, 319238, Note_off_c, 1, 66, 0
1, 319240, Note_on_c, 1, 67, 127
1, 319240, Note_on_c, 1, 83, 127
1, 319240, Note_on_c, 1, 74, 127
1, 319370, Note_off_c, 1, 67, 0
1, 319372, Note_on_c, 1, 71, 127
1, 319502, Note_off_c, 1, 83, 0
1, 319502, Note_off_c, 1, 74, 0
1, 319502, Note_off_c, 1, 71, 0
1, 319504, Note_on_c, 1, 84, 127
1, 319504, Note_on_c, 1, 74, 127
1, 319504, Note_on_c, 1, 62, 127
1, 319634, Note_off_c, 1, 84, 0
1, 319634, Note_off_c, 1, 74, 0
1, 319634, Note_off_c, 1, 62, 0
1, 319637, Note_on_c, 1, 67, 127
1, 319637, Note_on_c, 1, 83, 127
1, 319637, Note_on_c, 1, 74, 127
1, 319767, Note_off_c, 1, 67, 0
1, 319769, Note_on_c, 1, 71, 127
1, 319899, Note_off_c, 1, 83, 0
1, 319899, Note_off_c, 1, 74, 0
1, 319899, Note_off_c, 1, 71, 0
1, 319901, Note_on_c, 1, 74, 127
1, 319901, Note_on_c, 1, 81, 127
1, 319901, Note_on_c, 1, 66, 127
1, 320031, Note_off_c, 1, 74, 0
1, 320031, Note_off_c, 1, 81, 0
1, 320031, Note_off_c, 1, 66, 0
1, 320034, Note_on_c, 1, 67, 127
1, 320034, Note_on_c, 1, 74, 127
1, 320034, Note_on_c, 1, 79, 127
1, 320164, Note_off_c, 1, 67, 0
1, 320166, Note_on_c, 1, 71, 127
1, 320296, Note_off_c, 1, 74, 0
1, 320296, Note_off_c, 1, 71, 0
1, 320298, Note_on_c, 1, 62, 127
1, 320428, Note_off_c, 1, 62, 0
1, 320430, Note_on_c, 1, 64, 127
1, 320560, Note_off_c, 1, 64, 0
1, 320563, Note_on_c, 1, 72, 127
1, 320563, Note_on_c, 1, 60, 127
1, 320693, Note_off_c, 1, 72, 0
1, 320693, Note_off_c, 1, 60, 0
1, 320695, Note_on_c, 1, 76, 127
1, 320695, Note_on_c, 1, 55, 127
1, 320825, Note_off_c, 1, 76, 0
1, 320825, Note_off_c, 1, 55, 0
1, 321359, Note_on_c, 1, 59, 127
1, 321489, Note_off_c, 1, 59, 0
1, 322022, Note_on_c, 1, 69, 127
1, 322023, Note_off_c, 1, 79, 0
1, 322419, Note_on_c, 1, 78, 127
1, 322814, Note_off_c, 1, 69, 0
1, 322814, Note_off_c, 1, 78, 0
1, 322816, Note_on_c, 1, 59, 127
1, 322816, Note_on_c, 1, 79, 127
1, 322816, Note_on_c, 1, 67, 127
1, 322946, Note_off_c, 1, 59, 0
1, 322948, Note_on_c, 1, 62, 127
1, 323078, Note_off_c, 1, 79, 0
1, 323078, Note_off_c, 1, 67, 0
1, 323078, Note_off_c, 1, 62, 0
1, 323080, Note_on_c, 1, 57, 127
1, 323210, Note_off_c, 1, 57, 0
1, 323213, Note_on_c, 1, 59, 127
1, 323343, Note_off_c, 1, 59, 0
1, 323345, Note_on_c, 1, 62, 127
1, 323475, Note_off_c, 1, 62, 0
1, 323478, Note_on_c, 1, 74, 127
1, 323478, Note_on_c, 1, 55, 127
1, 323608, Note_off_c, 1, 74, 0
1, 323608, Note_off_c, 1, 55, 0
1, 323610, Note_on_c, 1, 76, 127
1, 323610, Note_on_c, 1, 60, 127
1, 323740, Note_off_c, 1, 76, 0
1, 323743, Note_on_c, 1, 79, 127
1, 323872, Note_off_c, 1, 60, 0
1, 323873, Note_off_c, 1, 79, 0
1, 323875, Note_on_c, 1, 74, 127
1, 323875, Note_on_c, 1, 59, 127
1, 324005, Note_off_c, 1, 74, 0
1, 324005, Note_off_c, 1, 59, 0
1, 324007, Note_on_c, 1, 76, 127
1, 324007, Note_on_c, 1, 60, 127
1, 324137, Note_off_c, 1, 76, 0
1, 324140, Note_on_c, 1, 79, 127
1, 324269, Note_off_c, 1, 60, 0
1, 324270, Note_off_c, 1, 79, 0
1, 324272, Note_on_c, 1, 71, 127
1, 324272, Note_on_c, 1, 55, 127
1, 324402, Note_off_c, 1, 71, 0
1, 324402, Note_off_c, 1, 55, 0
1, 324404, Note_on_c, 1, 57, 127
1, 324404, Note_on_c, 1, 72, 127
1, 324534, Note_off_c, 1, 57, 0
1, 324536, Note_on_c, 1, 60, 127
1, 324666, Note_off_c, 1, 72, 0
1, 324666, Note_off_c, 1, 60, 0
1, 324669, Note_on_c, 1, 55, 127
1, 324799, Note_off_c, 1, 55, 0
1, 324801, Note_on_c, 1, 57, 127
1, 324931, Note_off_c, 1, 57, 0
1, 324933, Note_on_c, 1, 60, 127
1, 325063, Note_off_c, 1, 60, 0
1, 325066, Note_on_c, 1, 79, 127
1, 325066, Note_on_c, 1, 52, 127
1, 325196, Note_off_c, 1, 79, 0
1, 325196, Note_off_c, 1, 52, 0
1, 325198, Note_on_c, 1, 81, 127
1, 325198, Note_on_c, 1, 54, 127
1, 325328, Note_off_c, 1, 81, 0
1, 325330, Note_on_c, 1, 84, 127
1, 325460, Note_off_c, 1, 54, 0
1, 325460, Note_off_c, 1, 84, 0
1, 325462, Note_on_c, 1, 79, 127
1, 325462, Note_on_c, 1, 52, 127
1, 325592, Note_off_c, 1, 79, 0
1, 325592, Note_off_c, 1, 52, 0
1, 325595, Note_on_c, 1, 81, 127
1, 325595, Note_on_c, 1, 54, 127
1, 325725, Note_off_c, 1, 81, 0
1, 325728, Note_on_c, 1, 84, 127
1, 325857, Note_off_c, 1, 54, 0
1, 325858, Note_off_c, 1, 84, 0
1, 325860, Note_on_c, 1, 76, 127
1, 325860, Note_on_c, 1, 57, 127
1, 325990, Note_off_c, 1, 76, 0
1, 325990, Note_off_c, 1, 57, 0
1, 325992, Note_on_c, 1, 78, 127
1, 325992, Note_on_c, 1, 62, 127
1, 326122, Note_off_c, 1, 78, 0
1, 326122, Note_off_c, 1, 62, 0
1, 326125, Note_on_c, 1, 81, 127
1, 326125, Note_on_c, 1, 66, 127
1, 326255, Note_off_c, 1, 81, 0
1, 326255, Note_off_c, 1, 66, 0
1, 326257, Note_on_c, 1, 76, 127
1, 326257, Note_on_c, 1, 61, 127
1, 326387, Note_off_c, 1, 76, 0
1, 326387, Note_off_c, 1, 61, 0
1, 326389, Note_on_c, 1, 78, 127
1, 326389, Note_on_c, 1, 62, 127
1, 326519, Note_off_c, 1, 78, 0
1, 326519, Note_off_c, 1, 62, 0
1, 326522, Note_on_c, 1, 81, 127
1, 326522, Note_on_c, 1, 66, 127
1, 326652, Note_off_c, 1, 81, 0
1, 326652, Note_off_c, 1, 66, 0
1, 326654, Note_on_c, 1, 73, 127
1, 326654, Note_on_c, 1, 57, 127
1, 326784, Note_off_c, 1, 73, 0
1, 326784, Note_off_c, 1, 57, 0
1, 326786, Note_on_c, 1, 74, 127
1, 326786, Note_on_c, 1, 59, 127
1, 326916, Note_off_c, 1, 74, 0
1, 326916, Note_off_c, 1, 59, 0
1, 326918, Note_on_c, 1, 78, 127
1, 326918, Note_on_c, 1, 62, 127
1, 327048, Note_off_c, 1, 78, 0
1, 327048, Note_off_c, 1, 62, 0
1, 327051, Note_on_c, 1, 73, 127
1, 327051, Note_on_c, 1, 57, 127
1, 327181, Note_off_c, 1, 73, 0
1, 327181, Note_off_c, 1, 57, 0
1, 327183, Note_on_c, 1, 74, 127
1, 327183, Note_on_c, 1, 59, 127
1, 327313, Note_off_c, 1, 74, 0
1, 327313, Note_off_c, 1, 59, 0
1, 327315, Note_on_c, 1, 78, 127
1, 327315, Note_on_c, 1, 62, 127
1, 327445, Note_off_c, 1, 78, 0
1, 327445, Note_off_c, 1, 62, 0
1, 327448, Note_on_c, 1, 69, 127
1, 327448, Note_on_c, 1, 54, 127
1, 327578, Note_off_c, 1, 69, 0
1, 327578, Note_off_c, 1, 54, 0
1, 327580, Note_on_c, 1, 71, 127
1, 327580, Note_on_c, 1, 55, 127
1, 327710, Note_off_c, 1, 71, 0
1, 327712, Note_on_c, 1, 74, 127
1, 327842, Note_off_c, 1, 55, 0
1, 327842, Note_off_c, 1, 74, 0
1, 327845, Note_on_c, 1, 73, 127
1, 327845, Note_on_c, 1, 52, 127
1, 327975, Note_off_c, 1, 73, 0
1, 327975, Note_off_c, 1, 52, 0
1, 327978, Note_on_c, 1, 74, 127
1, 327978, Note_on_c, 1, 54, 127
1, 328108, Note_off_c, 1, 74, 0
1, 328110, Note_on_c, 1, 76, 127
1, 328240, Note_off_c, 1, 54, 0
1, 328240, Note_off_c, 1, 76, 0
1, 328242, Note_on_c, 1, 71, 127
1, 328242, Note_on_c, 1, 55, 127
1, 328372, Note_off_c, 1, 71, 0
1, 328372, Note_off_c, 1, 55, 0
1, 328375, Note_on_c, 1, 73, 127
1, 328375, Note_on_c, 1, 57, 127
1, 328505, Note_off_c, 1, 73, 0
1, 328507, Note_on_c, 1, 76, 127
1, 328637, Note_off_c, 1, 57, 0
1, 328637, Note_off_c, 1, 76, 0
1, 328639, Note_on_c, 1, 74, 127
1, 328639, Note_on_c, 1, 54, 127
1, 328769, Note_off_c, 1, 74, 0
1, 328769, Note_off_c, 1, 54, 0
1, 328771, Note_on_c, 1, 76, 127
1, 328771, Note_on_c, 1, 55, 127
1, 328901, Note_off_c, 1, 76, 0
1, 328904, Note_on_c, 1, 78, 127
1, 329033, Note_off_c, 1, 55, 0
1, 329034, Note_off_c, 1, 78, 0
1, 329036, Note_on_c, 1, 73, 127
1, 329036, Note_on_c, 1, 57, 127
1, 329166, Note_off_c, 1, 73, 0
1, 329166, Note_off_c, 1, 57, 0
1, 329168, Note_on_c, 1, 74, 127
1, 329168, Note_on_c, 1, 59, 127
1, 329298, Note_off_c, 1, 74, 0
1, 329300, Note_on_c, 1, 78, 127
1, 329430, Note_off_c, 1, 59, 0
1, 329430, Note_off_c, 1, 78, 0
1, 329433, Note_on_c, 1, 76, 127
1, 329433, Note_on_c, 1, 61, 127
1, 329563, Note_off_c, 1, 76, 0
1, 329563, Note_off_c, 1, 61, 0
1, 329565, Note_on_c, 1, 78, 127
1, 329565, Note_on_c, 1, 62, 127
1, 329695, Note_off_c, 1, 78, 0
1, 329697, Note_on_c, 1, 81, 127
1, 329827, Note_off_c, 1, 62, 0
1, 329827, Note_off_c, 1, 81, 0
1, 329830, Note_on_c, 1, 79, 127
1, 329830, Note_on_c, 1, 59, 127
1, 329960, Note_off_c, 1, 79, 0
1, 329960, Note_off_c, 1, 59, 0
1, 329962, Note_on_c, 1, 81, 127
1, 329962, Note_on_c, 1, 61, 127
1, 330092, Note_off_c, 1, 81, 0
1, 330092, Note_off_c, 1, 61, 0
1, 330095, Note_on_c, 1, 64, 127
1, 330225, Note_off_c, 1, 64, 0
1, 330227, Note_on_c, 1, 69, 127
1, 330357, Note_off_c, 1, 69, 0
1, 330360, Note_on_c, 1, 73, 127
1, 330490, Note_off_c, 1, 73, 0
1, 330492, Note_on_c, 1, 76, 127
1, 330622, Note_off_c, 1, 76, 0
1, 330624, Note_on_c, 1, 79, 127
1, 330624, Note_on_c, 1, 45, 127
1, 330754, Note_off_c, 1, 79, 0
1, 330754, Note_off_c, 1, 45, 0
1, 330757, Note_on_c, 1, 50, 127
1, 330757, Note_on_c, 1, 78, 127
1, 330887, Note_off_c, 1, 50, 0
1, 330889, Note_on_c, 1, 54, 127
1, 331019, Note_off_c, 1, 78, 0
1, 331019, Note_off_c, 1, 54, 0
1, 331021, Note_on_c, 1, 69, 127
1, 331021, Note_on_c, 1, 76, 127
1, 331021, Note_on_c, 1, 49, 127
1, 331151, Note_off_c, 1, 69, 0
1, 331151, Note_off_c, 1, 76, 0
1, 331151, Note_off_c, 1, 49, 0
1, 331153, Note_on_c, 1, 50, 127
1, 331153, Note_on_c, 1, 69, 127
1, 331153, Note_on_c, 1, 78, 127
1, 331283, Note_off_c, 1, 50, 0
1, 331286, Note_on_c, 1, 54, 127
1, 331415, Note_off_c, 1, 69, 0
1, 331415, Note_off_c, 1, 78, 0
1, 331416, Note_off_c, 1, 54, 0
1, 331418, Note_on_c, 1, 69, 127
1, 331418, Note_on_c, 1, 79, 127
1, 331418, Note_on_c, 1, 45, 127
1, 331548, Note_off_c, 1, 69, 0
1, 331548, Note_off_c, 1, 79, 0
1, 331548, Note_off_c, 1, 45, 0
1, 331550, Note_on_c, 1, 50, 127
1, 331550, Note_on_c, 1, 78, 127
1, 331550, Note_on_c, 1, 69, 127
1, 331680, Note_off_c, 1, 50, 0
1, 331683, Note_on_c, 1, 54, 127
1, 331812, Note_off_c, 1, 78, 0
1, 331812, Note_off_c, 1, 69, 0
1, 331813, Note_off_c, 1, 54, 0
1, 331815, Note_on_c, 1, 76, 127
1, 331815, Note_on_c, 1, 69, 127
1, 331815, Note_on_c, 1, 49, 127
1, 331945, Note_off_c, 1, 76, 0
1, 331945, Note_off_c, 1, 69, 0
1, 331945, Note_off_c, 1, 49, 0
1, 331947, Note_on_c, 1, 50, 127
1, 331947, Note_on_c, 1, 69, 127
1, 331947, Note_on_c, 1, 74, 127
1, 332077, Note_off_c, 1, 50, 0
1, 332079, Note_on_c, 1, 54, 127
1, 332209, Note_off_c, 1, 69, 0
1, 332209, Note_off_c, 1, 54, 0
1, 332212, Note_on_c, 1, 66, 127
1, 332212, Note_on_c, 1, 45, 127
1, 332342, Note_off_c, 1, 66, 0
1, 332342, Note_off_c, 1, 45, 0
1, 332345, Note_on_c, 1, 62, 127
1, 332345, Note_on_c, 1, 47, 127
1, 332475, Note_off_c, 1, 62, 0
1, 332475, Note_off_c, 1, 47, 0
1, 332477, Note_on_c, 1, 67, 127
1, 332477, Note_on_c, 1, 43, 127
1, 332607, Note_off_c, 1, 67, 0
1, 332607, Note_off_c, 1, 43, 0
1, 332609, Note_on_c, 1, 71, 127
1, 332609, Note_on_c, 1, 38, 127
1, 332739, Note_off_c, 1, 71, 0
1, 332739, Note_off_c, 1, 38, 0
1, 333273, Note_on_c, 1, 42, 127
1, 333403, Note_off_c, 1, 42, 0
1, 333934, Note_off_c, 1, 74, 0
1, 333936, Note_on_c, 1, 43, 127
1, 333936, Note_on_c, 1, 64, 127
1, 334066, Note_off_c, 1, 43, 0
1, 334068, Note_on_c, 1, 45, 127
1, 334198, Note_off_c, 1, 45, 0
1, 334200, Note_on_c, 1, 74, 127
1, 334200, Note_on_c, 1, 47, 127
1, 334330, Note_off_c, 1, 74, 0
1, 334330, Note_off_c, 1, 47, 0
1, 334332, Note_on_c, 1, 73, 127
1, 334594, Note_off_c, 1, 73, 0
1, 334597, Note_on_c, 1, 71, 127
1, 334727, Note_off_c, 1, 71, 0
1, 334729, Note_on_c, 1, 42, 127
1, 334729, Note_on_c, 1, 69, 127
1, 334859, Note_off_c, 1, 42, 0
1, 334987, Note_off_c, 1, 64, 0
1, 334995, Note_on_c, 1, 62, 127
1, 335120, Note_off_c, 1, 69, 0
1, 335524, Note_on_c, 1, 40, 127
1, 335524, Note_on_c, 1, 67, 127
1, 335654, Note_off_c, 1, 40, 0
1, 335787, Note_off_c, 1, 62, 0
1, 335789, Note_on_c, 1, 61, 127
1, 335915, Note_off_c, 1, 67, 0
1, 336316, Note_off_c, 1, 61, 0
1, 336319, Note_on_c, 1, 66, 127
1, 336319, Note_on_c, 1, 38, 127
1, 336452, Note_on_c, 1, 62, 127
1, 336581, Note_off_c, 1, 66, 0
1, 336581, Note_off_c, 1, 38, 0
1, 336584, Note_on_c, 1, 67, 127
1, 336584, Note_on_c, 1, 40, 127
1, 336714, Note_off_c, 1, 67, 0
1, 336714, Note_off_c, 1, 40, 0
1, 336716, Note_on_c, 1, 69, 127
1, 336716, Note_on_c, 1, 42, 127
1, 336843, Note_off_c, 1, 62, 0
1, 336978, Note_off_c, 1, 69, 0
1, 336978, Note_off_c, 1, 42, 0
1, 336981, Note_on_c, 1, 71, 127
1, 336981, Note_on_c, 1, 43, 127
1, 337094, Note_off_c, 1, 71, 0
1, 337111, Note_off_c, 1, 43, 0
1, 337113, Note_on_c, 1, 61, 127
1, 337113, Note_on_c, 1, 45, 127
1, 337245, Note_on_c, 1, 57, 127
1, 337375, Note_off_c, 1, 61, 0
1, 337375, Note_off_c, 1, 45, 0
1, 337378, Note_on_c, 1, 62, 127
1, 337378, Note_on_c, 1, 47, 127
1, 337508, Note_off_c, 1, 62, 0
1, 337508, Note_off_c, 1, 47, 0
1, 337511, Note_on_c, 1, 64, 127
1, 337511, Note_on_c, 1, 49, 127
1, 337636, Note_off_c, 1, 57, 0
1, 337773, Note_off_c, 1, 64, 0
1, 337773, Note_off_c, 1, 49, 0
1, 337775, Note_on_c, 1, 66, 127
1, 337775, Note_on_c, 1, 50, 127
1, 337888, Note_off_c, 1, 66, 0
1, 337905, Note_off_c, 1, 50, 0
1, 337908, Note_on_c, 1, 67, 127
1, 337908, Note_on_c, 1, 40, 127
1, 338040, Note_on_c, 1, 64, 127
1, 338170, Note_off_c, 1, 67, 0
1, 338170, Note_off_c, 1, 40, 0
1, 338172, Note_on_c, 1, 69, 127
1, 338172, Note_on_c, 1, 42, 127
1, 338302, Note_off_c, 1, 69, 0
1, 338302, Note_off_c, 1, 42, 0
1, 338305, Note_on_c, 1, 71, 127
1, 338305, Note_on_c, 1, 43, 127
1, 338431, Note_off_c, 1, 64, 0
1, 338567, Note_off_c, 1, 71, 0
1, 338567, Note_off_c, 1, 43, 0
1, 338569, Note_on_c, 1, 73, 127
1, 338569, Note_on_c, 1, 45, 127
1, 338682, Note_off_c, 1, 73, 0
1, 338699, Note_off_c, 1, 45, 0
1, 338701, Note_on_c, 1, 62, 127
1, 338701, Note_on_c, 1, 47, 127
1, 338834, Note_on_c, 1, 59, 127
1, 338963, Note_off_c, 1, 62, 0
1, 338963, Note_off_c, 1, 47, 0
1, 338966, Note_on_c, 1, 64, 127
1, 338966, Note_on_c, 1, 49, 127
1, 339096, Note_off_c, 1, 64, 0
1, 339096, Note_off_c, 1, 49, 0
1, 339098, Note_on_c, 1, 66, 127
1, 339098, Note_on_c, 1, 50, 127
1, 339225, Note_off_c, 1, 59, 0
1, 339360, Note_off_c, 1, 66, 0
1, 339360, Note_off_c, 1, 50, 0
1, 339363, Note_on_c, 1, 67, 127
1, 339363, Note_on_c, 1, 52, 127
1, 339486, Note_off_c, 1, 67, 0
1, 339495, Note_off_c, 1, 52, 0
1, 339497, Note_on_c, 1, 54, 127
1, 339497, Note_on_c, 1, 69, 127
1, 339629, Note_on_c, 1, 66, 127
1, 339759, Note_off_c, 1, 54, 0
1, 339759, Note_off_c, 1, 66, 0
1, 339762, Note_on_c, 1, 61, 127
1, 339762, Note_on_c, 1, 55, 127
1, 339892, Note_off_c, 1, 61, 0
1, 339892, Note_off_c, 1, 55, 0
1, 339895, Note_on_c, 1, 62, 127
1, 340025, Note_off_c, 1, 62, 0
1, 340159, Note_on_c, 1, 57, 127
1, 340159, Note_on_c, 1, 52, 127
1, 340289, Note_off_c, 1, 57, 0
1, 340289, Note_off_c, 1, 52, 0
1, 341078, Note_off_c, 1, 69, 0
1, 341085, Note_on_c, 1, 59, 127
1, 341085, Note_on_c, 1, 50, 127
1, 341215, Note_off_c, 1, 59, 0
1, 341215, Note_off_c, 1, 50, 0
1, 341217, Note_on_c, 1, 67, 127
1, 341217, Note_on_c, 1, 55, 127
1, 341347, Note_off_c, 1, 67, 0
1, 341347, Note_off_c, 1, 55, 0
1, 341350, Note_on_c, 1, 62, 127
1, 341350, Note_on_c, 1, 59, 127
1, 341480, Note_off_c, 1, 62, 0
1, 341480, Note_off_c, 1, 59, 0
1, 341482, Note_on_c, 1, 59, 127
1, 341482, Note_on_c, 1, 74, 127
1, 341612, Note_off_c, 1, 59, 0
1, 341614, Note_on_c, 1, 55, 127
1, 341678, Note_off_c, 1, 74, 0
1, 341746, Note_off_c, 1, 55, 0
1, 341748, Note_on_c, 1, 67, 127
1, 341748, Note_on_c, 1, 50, 127
1, 341878, Note_off_c, 1, 67, 0
1, 341878, Note_off_c, 1, 50, 0
1, 341880, Note_on_c, 1, 69, 127
1, 341880, Note_on_c, 1, 50, 127
1, 342010, Note_off_c, 1, 69, 0
1, 342010, Note_off_c, 1, 50, 0
1, 342013, Note_on_c, 1, 66, 127
1, 342013, Note_on_c, 1, 54, 127
1, 342143, Note_off_c, 1, 66, 0
1, 342143, Note_off_c, 1, 54, 0
1, 342145, Note_on_c, 1, 62, 127
1, 342145, Note_on_c, 1, 57, 127
1, 342275, Note_off_c, 1, 62, 0
1, 342275, Note_off_c, 1, 57, 0
1, 342278, Note_on_c, 1, 57, 127
1, 342278, Note_on_c, 1, 74, 127
1, 342408, Note_off_c, 1, 57, 0
1, 342411, Note_on_c, 1, 54, 127
1, 342474, Note_off_c, 1, 74, 0
1, 342543, Note_off_c, 1, 54, 0
1, 342544, Note_on_c, 1, 66, 127
1, 342544, Note_on_c, 1, 50, 127
1, 342674, Note_off_c, 1, 66, 0
1, 342674, Note_off_c, 1, 50, 0
1, 342677, Note_on_c, 1, 67, 127
1, 342677, Note_on_c, 1, 52, 127
1, 342677, Note_on_c, 1, 50, 127
1, 342807, Note_off_c, 1, 67, 0
1, 342809, Note_on_c, 1, 69, 127
1, 342939, Note_off_c, 1, 69, 0
1, 342941, Note_on_c, 1, 71, 127
1, 343071, Note_off_c, 1, 71, 0
1, 343072, Note_off_c, 1, 52, 0
1, 343072, Note_off_c, 1, 50, 0
1, 343074, Note_on_c, 1, 69, 127
1, 343074, Note_on_c, 1, 52, 127
1, 343074, Note_on_c, 1, 49, 127
1, 343204, Note_off_c, 1, 69, 0
1, 343206, Note_on_c, 1, 71, 127
1, 343336, Note_off_c, 1, 71, 0
1, 343338, Note_on_c, 1, 67, 127
1, 343468, Note_off_c, 1, 67, 0
1, 343469, Note_off_c, 1, 52, 0
1, 343469, Note_off_c, 1, 49, 0
1, 343470, Note_on_c, 1, 66, 127
1, 343470, Note_on_c, 1, 50, 127
1, 343600, Note_off_c, 1, 66, 0
1, 343603, Note_on_c, 1, 69, 127
1, 343732, Note_off_c, 1, 50, 0
1, 343733, Note_off_c, 1, 69, 0
1, 343735, Note_on_c, 1, 67, 127
1, 343735, Note_on_c, 1, 52, 127
1, 343865, Note_off_c, 1, 67, 0
1, 343865, Note_off_c, 1, 52, 0
1, 343867, Note_on_c, 1, 69, 127
1, 343867, Note_on_c, 1, 54, 127
1, 343997, Note_off_c, 1, 69, 0
1, 344000, Note_on_c, 1, 73, 127
1, 344129, Note_off_c, 1, 54, 0
1, 344130, Note_off_c, 1, 73, 0
1, 344132, Note_on_c, 1, 71, 127
1, 344132, Note_on_c, 1, 55, 127
1, 344262, Note_off_c, 1, 71, 0
1, 344262, Note_off_c, 1, 55, 0
1, 344264, Note_on_c, 1, 73, 127
1, 344264, Note_on_c, 1, 57, 127
1, 344394, Note_off_c, 1, 73, 0
1, 344394, Note_off_c, 1, 57, 0
1, 344396, Note_on_c, 1, 76, 127
1, 344396, Note_on_c, 1, 61, 127
1, 344526, Note_off_c, 1, 76, 0
1, 344526, Note_off_c, 1, 61, 0
1, 344529, Note_on_c, 1, 79, 127
1, 344529, Note_on_c, 1, 57, 127
1, 344659, Note_off_c, 1, 79, 0
1, 344659, Note_off_c, 1, 57, 0
1, 344662, Note_on_c, 1, 79, 127
1, 344662, Note_on_c, 1, 52, 127
1, 344792, Note_off_c, 1, 79, 0
1, 344792, Note_off_c, 1, 52, 0
1, 344794, Note_on_c, 1, 76, 127
1, 344794, Note_on_c, 1, 57, 127
1, 344924, Note_off_c, 1, 76, 0
1, 344924, Note_off_c, 1, 57, 0
1, 344927, Note_on_c, 1, 73, 127
1, 344927, Note_on_c, 1, 52, 127
1, 345057, Note_off_c, 1, 73, 0
1, 345057, Note_off_c, 1, 52, 0
1, 345059, Note_on_c, 1, 69, 127
1, 345059, Note_on_c, 1, 49, 127
1, 345189, Note_off_c, 1, 69, 0
1, 345189, Note_off_c, 1, 49, 0
1, 345191, Note_on_c, 1, 73, 127
1, 345191, Note_on_c, 1, 52, 127
1, 345321, Note_off_c, 1, 73, 0
1, 345321, Note_off_c, 1, 52, 0
1, 345323, Note_on_c, 1, 76, 127
1, 345323, Note_on_c, 1, 49, 127
1, 345453, Note_off_c, 1, 76, 0
1, 345453, Note_off_c, 1, 49, 0
1, 345456, Note_on_c, 1, 79, 127
1, 345456, Note_on_c, 1, 45, 127
1, 345586, Note_off_c, 1, 79, 0
1, 345586, Note_off_c, 1, 45, 0
1, 345588, Note_on_c, 1, 78, 127
1, 345588, Note_on_c, 1, 47, 127
1, 345718, Note_off_c, 1, 78, 0
1, 345718, Note_off_c, 1, 47, 0
1, 345720, Note_on_c, 1, 76, 127
1, 345720, Note_on_c, 1, 49, 127
1, 345850, Note_off_c, 1, 76, 0
1, 345850, Note_off_c, 1, 49, 0
1, 345852, Note_on_c, 1, 78, 127
1, 345852, Note_on_c, 1, 50, 127
1, 345982, Note_off_c, 1, 78, 0
1, 345985, Note_on_c, 1, 76, 127
1, 346114, Note_off_c, 1, 50, 0
1, 346115, Note_off_c, 1, 76, 0
1, 346117, Note_on_c, 1, 71, 127
1, 346117, Note_on_c, 1, 55, 127
1, 346117, Note_on_c, 1, 74, 127
1, 346247, Note_off_c, 1, 71, 0
1, 346247, Note_off_c, 1, 55, 0
1, 346249, Note_on_c, 1, 69, 127
1, 346249, Note_on_c, 1, 57, 127
1, 346379, Note_off_c, 1, 74, 0
1, 346382, Note_on_c, 1, 76, 127
1, 346511, Note_off_c, 1, 69, 0
1, 346511, Note_off_c, 1, 57, 0
1, 346512, Note_off_c, 1, 76, 0
1, 346514, Note_on_c, 1, 73, 127
1, 346514, Note_on_c, 1, 45, 127
1, 346514, Note_on_c, 1, 67, 127
1, 346644, Note_off_c, 1, 73, 0
1, 346644, Note_off_c, 1, 45, 0
1, 346646, Note_on_c, 1, 38, 127
1, 346646, Note_on_c, 1, 74, 127
1, 346776, Note_off_c, 1, 67, 0
1, 346778, Note_on_c, 1, 42, 127
1, 346778, Note_on_c, 1, 69, 127
1, 346908, Note_off_c, 1, 42, 0
1, 346912, Note_on_c, 1, 66, 127
1, 347044, Note_on_c, 1, 62, 127
1, 347044, Note_on_c, 1, 50, 127
1, 347169, Note_off_c, 1, 69, 0
1, 347173, Note_off_c, 1, 38, 0
1, 347174, Note_off_c, 1, 66, 0
1, 347174, Note_off_c, 1, 62, 0
1, 347255, Note_off_c, 1, 74, 0
1, 347275, Note_off_c, 1, 50, 0
1, 347307, Note_on_c, 1, 57, 127
1, 347437, Note_off_c, 1, 57, 0
1, 347439, Note_on_c, 1, 54, 127
1, 347569, Note_off_c, 1, 54, 0
1, 347571, Note_on_c, 1, 50, 127
1, 347701, Note_off_c, 1, 50, 0
1, 347704, Note_on_c, 1, 55, 127
1, 347834, Note_off_c, 1, 55, 0
1, 347836, Note_on_c, 1, 54, 127
1, 347966, Note_off_c, 1, 54, 0
1, 347968, Note_on_c, 1, 50, 127
1, 348098, Note_off_c, 1, 50, 0
1, 348101, Note_on_c, 1, 57, 127
1, 348231, Note_off_c, 1, 57, 0
1, 348233, Note_on_c, 1, 54, 127
1, 348363, Note_off_c, 1, 54, 0
1, 348365, Note_on_c, 1, 50, 127
1, 348495, Note_off_c, 1, 50, 0
1, 348497, Note_on_c, 1, 55, 127
1, 348627, Note_off_c, 1, 55, 0
1, 348630, Note_on_c, 1, 54, 127
1, 348760, Note_off_c, 1, 54, 0
1, 348762, Note_on_c, 1, 50, 127
1, 348892, Note_off_c, 1, 50, 0
1, 348895, Note_on_c, 1, 57, 127
1, 349025, Note_off_c, 1, 57, 0
1, 349028, Note_on_c, 1, 54, 127
1, 349158, Note_off_c, 1, 54, 0
1, 349160, Note_on_c, 1, 57, 127
1, 349290, Note_off_c, 1, 57, 0
1, 349292, Note_on_c, 1, 60, 127
1, 349422, Note_off_c, 1, 60, 0
1, 349424, Note_on_c, 1, 50, 127
1, 349619, Note_off_c, 1, 50, 0
1, 349687, Note_on_c, 1, 59, 127
1, 349817, Note_off_c, 1, 59, 0
1, 349820, Note_on_c, 1, 55, 127
1, 349950, Note_off_c, 1, 55, 0
1, 349952, Note_on_c, 1, 59, 127
1, 350082, Note_off_c, 1, 59, 0
1, 350084, Note_on_c, 1, 62, 127
1, 350214, Note_off_c, 1, 62, 0
1, 350216, Note_on_c, 1, 52, 127
1, 350411, Note_off_c, 1, 52, 0
1, 350479, Note_on_c, 1, 60, 127
1, 350609, Note_off_c, 1, 60, 0
1, 350612, Note_on_c, 1, 57, 127
1, 350742, Note_off_c, 1, 57, 0
1, 350745, Note_on_c, 1, 60, 127
1, 350875, Note_off_c, 1, 60, 0
1, 350877, Note_on_c, 1, 64, 127
1, 351007, Note_off_c, 1, 64, 0
1, 351009, Note_on_c, 1, 54, 127
1, 351139, Note_off_c, 1, 54, 0
1, 351142, Note_on_c, 1, 62, 127
1, 351272, Note_off_c, 1, 62, 0
1, 351274, Note_on_c, 1, 60, 127
1, 351404, Note_off_c, 1, 60, 0
1, 351406, Note_on_c, 1, 59, 127
1, 351536, Note_off_c, 1, 59, 0
1, 351539, Note_on_c, 1, 55, 127
1, 351669, Note_off_c, 1, 55, 0
1, 351671, Note_on_c, 1, 50, 127
1, 351801, Note_off_c, 1, 50, 0
1, 351803, Note_on_c, 1, 55, 127
1, 351933, Note_off_c, 1, 55, 0
1, 351935, Note_on_c, 1, 50, 127
1, 352065, Note_off_c, 1, 50, 0
1, 352068, Note_on_c, 1, 62, 127
1, 352068, Note_on_c, 1, 47, 127
1, 352198, Note_off_c, 1, 62, 0
1, 352198, Note_off_c, 1, 47, 0
1, 352200, Note_on_c, 1, 59, 127
1, 352200, Note_on_c, 1, 43, 127
1, 352330, Note_off_c, 1, 59, 0
1, 352332, Note_on_c, 1, 55, 127
1, 352462, Note_off_c, 1, 43, 0
1, 352462, Note_off_c, 1, 55, 0
1, 352464, Note_on_c, 1, 60, 127
1, 352464, Note_on_c, 1, 52, 127
1, 352594, Note_off_c, 1, 60, 0
1, 352594, Note_off_c, 1, 52, 0
1, 352597, Note_on_c, 1, 59, 127
1, 352597, Note_on_c, 1, 50, 127
1, 352727, Note_off_c, 1, 59, 0
1, 352729, Note_on_c, 1, 55, 127
1, 352859, Note_off_c, 1, 50, 0
1, 352859, Note_off_c, 1, 55, 0
1, 352862, Note_on_c, 1, 62, 127
1, 352862, Note_on_c, 1, 42, 127
1, 352992, Note_off_c, 1, 62, 0
1, 352992, Note_off_c, 1, 42, 0
1, 352995, Note_on_c, 1, 59, 127
1, 352995, Note_on_c, 1, 43, 127
1, 353125, Note_off_c, 1, 59, 0
1, 353127, Note_on_c, 1, 55, 127
1, 353257, Note_off_c, 1, 43, 0
1, 353257, Note_off_c, 1, 55, 0
1, 353259, Note_on_c, 1, 60, 127
1, 353259, Note_on_c, 1, 52, 127
1, 353389, Note_off_c, 1, 60, 0
1, 353389, Note_off_c, 1, 52, 0
1, 353391, Note_on_c, 1, 59, 127
1, 353391, Note_on_c, 1, 50, 127
1, 353521, Note_off_c, 1, 59, 0
1, 353524, Note_on_c, 1, 55, 127
1, 353653, Note_off_c, 1, 50, 0
1, 353654, Note_off_c, 1, 55, 0
1, 353656, Note_on_c, 1, 62, 127
1, 353656, Note_on_c, 1, 42, 127
1, 353786, Note_off_c, 1, 62, 0
1, 353786, Note_off_c, 1, 42, 0
1, 353788, Note_on_c, 1, 59, 127
1, 353788, Note_on_c, 1, 43, 127
1, 353918, Note_off_c, 1, 59, 0
1, 353918, Note_off_c, 1, 43, 0
1, 353921, Note_on_c, 1, 62, 127
1, 353921, Note_on_c, 1, 47, 127
1, 354051, Note_off_c, 1, 62, 0
1, 354051, Note_off_c, 1, 47, 0
1, 354053, Note_on_c, 1, 65, 127
1, 354053, Note_on_c, 1, 50, 127
1, 354183, Note_off_c, 1, 65, 0
1, 354183, Note_off_c, 1, 50, 0
1, 354185, Note_on_c, 1, 47, 127
1, 354185, Note_on_c, 1, 55, 127
1, 354315, Note_off_c, 1, 47, 0
1, 354317, Note_on_c, 1, 43, 127
1, 354381, Note_off_c, 1, 55, 0
1, 354449, Note_off_c, 1, 43, 0
1, 354451, Note_on_c, 1, 64, 127
1, 354451, Note_on_c, 1, 48, 127
1, 354581, Note_off_c, 1, 64, 0
1, 354581, Note_off_c, 1, 48, 0
1, 354584, Note_on_c, 1, 60, 127
1, 354584, Note_on_c, 1, 45, 127
1, 354714, Note_off_c, 1, 60, 0
1, 354714, Note_off_c, 1, 45, 0
1, 354716, Note_on_c, 1, 64, 127
1, 354716, Note_on_c, 1, 48, 127
1, 354846, Note_off_c, 1, 64, 0
1, 354846, Note_off_c, 1, 48, 0
1, 354848, Note_on_c, 1, 67, 127
1, 354848, Note_on_c, 1, 52, 127
1, 354978, Note_off_c, 1, 67, 0
1, 354978, Note_off_c, 1, 52, 0
1, 354980, Note_on_c, 1, 48, 127
1, 354980, Note_on_c, 1, 57, 127
1, 355110, Note_off_c, 1, 48, 0
1, 355113, Note_on_c, 1, 45, 127
1, 355176, Note_off_c, 1, 57, 0
1, 355245, Note_off_c, 1, 45, 0
1, 355247, Note_on_c, 1, 65, 127
1, 355247, Note_on_c, 1, 50, 127
1, 355377, Note_off_c, 1, 65, 0
1, 355377, Note_off_c, 1, 50, 0
1, 355379, Note_on_c, 1, 62, 127
1, 355379, Note_on_c, 1, 47, 127
1, 355509, Note_off_c, 1, 62, 0
1, 355509, Note_off_c, 1, 47, 0
1, 355512, Note_on_c, 1, 65, 127
1, 355512, Note_on_c, 1, 50, 127
1, 355642, Note_off_c, 1, 65, 0
1, 355642, Note_off_c, 1, 50, 0
1, 355645, Note_on_c, 1, 69, 127
1, 355645, Note_on_c, 1, 53, 127
1, 355775, Note_off_c, 1, 69, 0
1, 355775, Note_off_c, 1, 53, 0
1, 355777, Note_on_c, 1, 59, 127
1, 355777, Note_on_c, 1, 50, 127
1, 355907, Note_off_c, 1, 59, 0
1, 355907, Note_off_c, 1, 50, 0
1, 355909, Note_on_c, 1, 67, 127
1, 355909, Note_on_c, 1, 47, 127
1, 356039, Note_off_c, 1, 67, 0
1, 356039, Note_off_c, 1, 47, 0
1, 356041, Note_on_c, 1, 65, 127
1, 356041, Note_on_c, 1, 50, 127
1, 356171, Note_off_c, 1, 65, 0
1, 356171, Note_off_c, 1, 50, 0
1, 356174, Note_on_c, 1, 48, 127
1, 356174, Note_on_c, 1, 64, 127
1, 356304, Note_off_c, 1, 48, 0
1, 356306, Note_on_c, 1, 52, 127
1, 356436, Note_off_c, 1, 64, 0
1, 356436, Note_off_c, 1, 52, 0
1, 356438, Note_on_c, 1, 55, 127
1, 356568, Note_off_c, 1, 55, 0
1, 356571, Note_on_c, 1, 52, 127
1, 356701, Note_off_c, 1, 52, 0
1, 356703, Note_on_c, 1, 48, 127
1, 356833, Note_off_c, 1, 48, 0
1, 356835, Note_on_c, 1, 60, 127
1, 356835, Note_on_c, 1, 52, 127
1, 356965, Note_off_c, 1, 60, 0
1, 356965, Note_off_c, 1, 52, 0
1, 356967, Note_on_c, 1, 57, 127
1, 356967, Note_on_c, 1, 42, 127
1, 357097, Note_off_c, 1, 57, 0
1, 357100, Note_on_c, 1, 60, 127
1, 357229, Note_off_c, 1, 42, 0
1, 357230, Note_off_c, 1, 60, 0
1, 357232, Note_on_c, 1, 64, 127
1, 357362, Note_off_c, 1, 64, 0
1, 357364, Note_on_c, 1, 60, 127
1, 357494, Note_off_c, 1, 60, 0
1, 357496, Note_on_c, 1, 57, 127
1, 357626, Note_off_c, 1, 57, 0
1, 357629, Note_on_c, 1, 60, 127
1, 357629, Note_on_c, 1, 45, 127
1, 357759, Note_off_c, 1, 60, 0
1, 357759, Note_off_c, 1, 45, 0
1, 357762, Note_on_c, 1, 47, 127
1, 357762, Note_on_c, 1, 54, 127
1, 357892, Note_off_c, 1, 47, 0
1, 357894, Note_on_c, 1, 50, 127
1, 358024, Note_off_c, 1, 54, 0
1, 358024, Note_off_c, 1, 50, 0
1, 358027, Note_on_c, 1, 62, 127
1, 358027, Note_on_c, 1, 54, 127
1, 358157, Note_off_c, 1, 62, 0
1, 358157, Note_off_c, 1, 54, 0
1, 358159, Note_on_c, 1, 50, 127
1, 358159, Note_on_c, 1, 59, 127
1, 358289, Note_off_c, 1, 50, 0
1, 358291, Note_on_c, 1, 47, 127
1, 358421, Note_off_c, 1, 59, 0
1, 358421, Note_off_c, 1, 47, 0
1, 358423, Note_on_c, 1, 57, 127
1, 358423, Note_on_c, 1, 50, 127
1, 358553, Note_off_c, 1, 57, 0
1, 358553, Note_off_c, 1, 50, 0
1, 358556, Note_on_c, 1, 55, 127
1, 358556, Note_on_c, 1, 40, 127
1, 358686, Note_off_c, 1, 55, 0
1, 358688, Note_on_c, 1, 59, 127
1, 358818, Note_off_c, 1, 40, 0
1, 358818, Note_off_c, 1, 59, 0
1, 358820, Note_on_c, 1, 62, 127
1, 358950, Note_off_c, 1, 62, 0
1, 358953, Note_on_c, 1, 59, 127
1, 359083, Note_off_c, 1, 59, 0
1, 359085, Note_on_c, 1, 55, 127
1, 359215, Note_off_c, 1, 55, 0
1, 359217, Note_on_c, 1, 59, 127
1, 359217, Note_on_c, 1, 43, 127
1, 359347, Note_off_c, 1, 59, 0
1, 359347, Note_off_c, 1, 43, 0
1, 359349, Note_on_c, 1, 45, 127
1, 359349, Note_on_c, 1, 52, 127
1, 359479, Note_off_c, 1, 45, 0
1, 359482, Note_on_c, 1, 48, 127
1, 359611, Note_off_c, 1, 52, 0
1, 359612, Note_off_c, 1, 48, 0
1, 359614, Note_on_c, 1, 60, 127
1, 359614, Note_on_c, 1, 52, 127
1, 359744, Note_off_c, 1, 60, 0
1, 359744, Note_off_c, 1, 52, 0
1, 359746, Note_on_c, 1, 48, 127
1, 359746, Note_on_c, 1, 57, 127
1, 359876, Note_off_c, 1, 48, 0
1, 359879, Note_on_c, 1, 45, 127
1, 360008, Note_off_c, 1, 57, 0
1, 360009, Note_off_c, 1, 45, 0
1, 360012, Note_on_c, 1, 67, 127
1, 360012, Note_on_c, 1, 48, 127
1, 360142, Note_off_c, 1, 67, 0
1, 360142, Note_off_c, 1, 48, 0
1, 360144, Note_on_c, 1, 66, 127
1, 360144, Note_on_c, 1, 50, 127
1, 360274, Note_off_c, 1, 66, 0
1, 360276, Note_on_c, 1, 62, 127
1, 360406, Note_off_c, 1, 62, 0
1, 360409, Note_on_c, 1, 67, 127
1, 360409, Note_on_c, 1, 59, 127
1, 360539, Note_off_c, 1, 67, 0
1, 360539, Note_off_c, 1, 59, 0
1, 360541, Note_on_c, 1, 57, 127
1, 360803, Note_off_c, 1, 50, 0
1, 360805, Note_on_c, 1, 69, 127
1, 360805, Note_on_c, 1, 49, 127
1, 360935, Note_off_c, 1, 69, 0
1, 360935, Note_off_c, 1, 49, 0
1, 361200, Note_off_c, 1, 57, 0
1, 361731, Note_on_c, 1, 66, 127
1, 361731, Note_on_c, 1, 50, 127
1, 361861, Note_off_c, 1, 66, 0
1, 361861, Note_off_c, 1, 50, 0
1, 361864, Note_on_c, 1, 69, 127
1, 361864, Note_on_c, 1, 54, 127
1, 361994, Note_off_c, 1, 69, 0
1, 361994, Note_off_c, 1, 54, 0
1, 361996, Note_on_c, 1, 72, 127
1, 361996, Note_on_c, 1, 57, 127
1, 362126, Note_off_c, 1, 72, 0
1, 362126, Note_off_c, 1, 57, 0
1, 362128, Note_on_c, 1, 54, 127
1, 362128, Note_on_c, 1, 62, 127
1, 362258, Note_off_c, 1, 54, 0
1, 362262, Note_on_c, 1, 50, 127
1, 362324, Note_off_c, 1, 62, 0
1, 362394, Note_off_c, 1, 50, 0
1, 362395, Note_on_c, 1, 71, 127
1, 362395, Note_on_c, 1, 55, 127
1, 362525, Note_off_c, 1, 71, 0
1, 362525, Note_off_c, 1, 55, 0
1, 362528, Note_on_c, 1, 67, 127
1, 362528, Note_on_c, 1, 52, 127
1, 362658, Note_off_c, 1, 67, 0
1, 362658, Note_off_c, 1, 52, 0
1, 362660, Note_on_c, 1, 71, 127
1, 362660, Note_on_c, 1, 55, 127
1, 362790, Note_off_c, 1, 71, 0
1, 362790, Note_off_c, 1, 55, 0
1, 362792, Note_on_c, 1, 74, 127
1, 362792, Note_on_c, 1, 59, 127
1, 362922, Note_off_c, 1, 74, 0
1, 362922, Note_off_c, 1, 59, 0
1, 362925, Note_on_c, 1, 55, 127
1, 362925, Note_on_c, 1, 64, 127
1, 363055, Note_off_c, 1, 55, 0
1, 363057, Note_on_c, 1, 52, 127
1, 363121, Note_off_c, 1, 64, 0
1, 363189, Note_off_c, 1, 52, 0
1, 363191, Note_on_c, 1, 72, 127
1, 363191, Note_on_c, 1, 57, 127
1, 363321, Note_off_c, 1, 72, 0
1, 363321, Note_off_c, 1, 57, 0
1, 363323, Note_on_c, 1, 69, 127
1, 363323, Note_on_c, 1, 54, 127
1, 363453, Note_off_c, 1, 69, 0
1, 363453, Note_off_c, 1, 54, 0
1, 363455, Note_on_c, 1, 72, 127
1, 363455, Note_on_c, 1, 57, 127
1, 363585, Note_off_c, 1, 72, 0
1, 363585, Note_off_c, 1, 57, 0
1, 363588, Note_on_c, 1, 76, 127
1, 363588, Note_on_c, 1, 60, 127
1, 363718, Note_off_c, 1, 76, 0
1, 363718, Note_off_c, 1, 60, 0
1, 363720, Note_on_c, 1, 66, 127
1, 363720, Note_on_c, 1, 57, 127
1, 363850, Note_off_c, 1, 66, 0
1, 363850, Note_off_c, 1, 57, 0
1, 363852, Note_on_c, 1, 74, 127
1, 363852, Note_on_c, 1, 54, 127
1, 363982, Note_off_c, 1, 74, 0
1, 363982, Note_off_c, 1, 54, 0
1, 363985, Note_on_c, 1, 72, 127
1, 363985, Note_on_c, 1, 57, 127
1, 364115, Note_off_c, 1, 72, 0
1, 364115, Note_off_c, 1, 57, 0
1, 364117, Note_on_c, 1, 71, 127
1, 364117, Note_on_c, 1, 55, 127
1, 364247, Note_off_c, 1, 71, 0
1, 364247, Note_off_c, 1, 55, 0
1, 364249, Note_on_c, 1, 74, 127
1, 364249, Note_on_c, 1, 59, 127
1, 364379, Note_off_c, 1, 74, 0
1, 364379, Note_off_c, 1, 59, 0
1, 364381, Note_on_c, 1, 79, 127
1, 364381, Note_on_c, 1, 62, 127
1, 364511, Note_off_c, 1, 79, 0
1, 364511, Note_off_c, 1, 62, 0
1, 364514, Note_on_c, 1, 74, 127
1, 364514, Note_on_c, 1, 59, 127
1, 364644, Note_off_c, 1, 74, 0
1, 364644, Note_off_c, 1, 59, 0
1, 364646, Note_on_c, 1, 79, 127
1, 364646, Note_on_c, 1, 62, 127
1, 364776, Note_off_c, 1, 79, 0
1, 364776, Note_off_c, 1, 62, 0
1, 364778, Note_on_c, 1, 83, 127
1, 364778, Note_on_c, 1, 67, 127
1, 364908, Note_off_c, 1, 83, 0
1, 364908, Note_off_c, 1, 67, 0
1, 364911, Note_on_c, 1, 76, 127
1, 364911, Note_on_c, 1, 60, 127
1, 365041, Note_off_c, 1, 76, 0
1, 365041, Note_off_c, 1, 60, 0
1, 365044, Note_on_c, 1, 79, 127
1, 365044, Note_on_c, 1, 64, 127
1, 365174, Note_off_c, 1, 79, 0
1, 365174, Note_off_c, 1, 64, 0
1, 365176, Note_on_c, 1, 71, 127
1, 365176, Note_on_c, 1, 67, 127
1, 365306, Note_off_c, 1, 71, 0
1, 365306, Note_off_c, 1, 67, 0
1, 365308, Note_on_c, 1, 72, 127
1, 365308, Note_on_c, 1, 64, 127
1, 365438, Note_off_c, 1, 72, 0
1, 365438, Note_off_c, 1, 64, 0
1, 365441, Note_on_c, 1, 76, 127
1, 365441, Note_on_c, 1, 60, 127
1, 365571, Note_off_c, 1, 76, 0
1, 365571, Note_off_c, 1, 60, 0
1, 365573, Note_on_c, 1, 67, 127
1, 365573, Note_on_c, 1, 64, 127
1, 365703, Note_off_c, 1, 67, 0
1, 365703, Note_off_c, 1, 64, 0
1, 365705, Note_on_c, 1, 69, 127
1, 365705, Note_on_c, 1, 54, 127
1, 365835, Note_off_c, 1, 69, 0
1, 365835, Note_off_c, 1, 54, 0
1, 365837, Note_on_c, 1, 72, 127
1, 365837, Note_on_c, 1, 57, 127
1, 365967, Note_off_c, 1, 72, 0
1, 365967, Note_off_c, 1, 57, 0
1, 365970, Note_on_c, 1, 78, 127
1, 365970, Note_on_c, 1, 60, 127
1, 366100, Note_off_c, 1, 78, 0
1, 366100, Note_off_c, 1, 60, 0
1, 366102, Note_on_c, 1, 72, 127
1, 366102, Note_on_c, 1, 57, 127
1, 366232, Note_off_c, 1, 72, 0
1, 366232, Note_off_c, 1, 57, 0
1, 366234, Note_on_c, 1, 78, 127
1, 366234, Note_on_c, 1, 60, 127
1, 366364, Note_off_c, 1, 78, 0
1, 366364, Note_off_c, 1, 60, 0
1, 366367, Note_on_c, 1, 81, 127
1, 366367, Note_on_c, 1, 66, 127
1, 366497, Note_off_c, 1, 81, 0
1, 366497, Note_off_c, 1, 66, 0
1, 366499, Note_on_c, 1, 75, 127
1, 366499, Note_on_c, 1, 59, 127
1, 366629, Note_off_c, 1, 75, 0
1, 366629, Note_off_c, 1, 59, 0
1, 366631, Note_on_c, 1, 78, 127
1, 366631, Note_on_c, 1, 63, 127
1, 366761, Note_off_c, 1, 78, 0
1, 366761, Note_off_c, 1, 63, 0
1, 366763, Note_on_c, 1, 69, 127
1, 366763, Note_on_c, 1, 66, 127
1, 366893, Note_off_c, 1, 69, 0
1, 366893, Note_off_c, 1, 66, 0
1, 366896, Note_on_c, 1, 71, 127
1, 366896, Note_on_c, 1, 63, 127
1, 367026, Note_off_c, 1, 71, 0
1, 367026, Note_off_c, 1, 63, 0
1, 367028, Note_on_c, 1, 75, 127
1, 367028, Note_on_c, 1, 59, 127
1, 367158, Note_off_c, 1, 75, 0
1, 367158, Note_off_c, 1, 59, 0
1, 367161, Note_on_c, 1, 66, 127
1, 367161, Note_on_c, 1, 63, 127
1, 367291, Note_off_c, 1, 66, 0
1, 367291, Note_off_c, 1, 63, 0
1, 367294, Note_on_c, 1, 67, 127
1, 367294, Note_on_c, 1, 52, 127
1, 367424, Note_off_c, 1, 67, 0
1, 367424, Note_off_c, 1, 52, 0
1, 367426, Note_on_c, 1, 71, 127
1, 367426, Note_on_c, 1, 55, 127
1, 367556, Note_off_c, 1, 71, 0
1, 367556, Note_off_c, 1, 55, 0
1, 367558, Note_on_c, 1, 76, 127
1, 367558, Note_on_c, 1, 59, 127
1, 367688, Note_off_c, 1, 76, 0
1, 367688, Note_off_c, 1, 59, 0
1, 367690, Note_on_c, 1, 71, 127
1, 367690, Note_on_c, 1, 55, 127
1, 367820, Note_off_c, 1, 71, 0
1, 367820, Note_off_c, 1, 55, 0
1, 367823, Note_on_c, 1, 76, 127
1, 367823, Note_on_c, 1, 59, 127
1, 367953, Note_off_c, 1, 76, 0
1, 367953, Note_off_c, 1, 59, 0
1, 367955, Note_on_c, 1, 79, 127
1, 367955, Note_on_c, 1, 64, 127
1, 368085, Note_off_c, 1, 79, 0
1, 368085, Note_off_c, 1, 64, 0
1, 368087, Note_on_c, 1, 72, 127
1, 368087, Note_on_c, 1, 57, 127
1, 368217, Note_off_c, 1, 72, 0
1, 368217, Note_off_c, 1, 57, 0
1, 368219, Note_on_c, 1, 76, 127
1, 368219, Note_on_c, 1, 60, 127
1, 368349, Note_off_c, 1, 76, 0
1, 368349, Note_off_c, 1, 60, 0
1, 368352, Note_on_c, 1, 68, 127
1, 368352, Note_on_c, 1, 64, 127
1, 368482, Note_off_c, 1, 68, 0
1, 368482, Note_off_c, 1, 64, 0
1, 368484, Note_on_c, 1, 69, 127
1, 368484, Note_on_c, 1, 60, 127
1, 368614, Note_off_c, 1, 69, 0
1, 368614, Note_off_c, 1, 60, 0
1, 368616, Note_on_c, 1, 72, 127
1, 368616, Note_on_c, 1, 57, 127
1, 368746, Note_off_c, 1, 72, 0
1, 368746, Note_off_c, 1, 57, 0
1, 368749, Note_on_c, 1, 76, 127
1, 368749, Note_on_c, 1, 60, 127
1, 368879, Note_off_c, 1, 76, 0
1, 368879, Note_off_c, 1, 60, 0
1, 368881, Note_on_c, 1, 64, 127
1, 368881, Note_on_c, 1, 81, 127
1, 369011, Note_off_c, 1, 64, 0
1, 369013, Note_on_c, 1, 69, 127
1, 369143, Note_off_c, 1, 69, 0
1, 369145, Note_on_c, 1, 72, 127
1, 369272, Note_off_c, 1, 81, 0
1, 369275, Note_off_c, 1, 72, 0
1, 369278, Note_on_c, 1, 69, 127
1, 369408, Note_off_c, 1, 69, 0
1, 369411, Note_on_c, 1, 66, 127
1, 369541, Note_off_c, 1, 66, 0
1, 369543, Note_on_c, 1, 52, 127
1, 369543, Note_on_c, 1, 69, 127
1, 369673, Note_off_c, 1, 52, 0
1, 369673, Note_off_c, 1, 69, 0
1, 369676, Note_on_c, 1, 51, 127
1, 369676, Note_on_c, 1, 71, 127
1, 369806, Note_off_c, 1, 51, 0
1, 369808, Note_on_c, 1, 47, 127
1, 369938, Note_off_c, 1, 47, 0
1, 369940, Note_on_c, 1, 79, 127
1, 369940, Note_on_c, 1, 52, 127
1, 370070, Note_off_c, 1, 79, 0
1, 370070, Note_off_c, 1, 52, 0
1, 370072, Note_on_c, 1, 78, 127
1, 370335, Note_off_c, 1, 71, 0
1, 370337, Note_on_c, 1, 69, 127
1, 370337, Note_on_c, 1, 54, 127
1, 370467, Note_off_c, 1, 69, 0
1, 370467, Note_off_c, 1, 54, 0
1, 370731, Note_off_c, 1, 78, 0
1, 371395, Note_on_c, 1, 75, 127
1, 371395, Note_on_c, 1, 54, 127
1, 371525, Note_off_c, 1, 75, 0
1, 371525, Note_off_c, 1, 54, 0
1, 371528, Note_on_c, 1, 78, 127
1, 371528, Note_on_c, 1, 57, 127
1, 371658, Note_off_c, 1, 78, 0
1, 371658, Note_off_c, 1, 57, 0
1, 371661, Note_on_c, 1, 75, 127
1, 371661, Note_on_c, 1, 47, 127
1, 371661, Note_on_c, 1, 79, 127
1, 371791, Note_off_c, 1, 75, 0
1, 371793, Note_on_c, 1, 71, 127
1, 371857, Note_off_c, 1, 47, 0
1, 371925, Note_off_c, 1, 71, 0
1, 371927, Note_on_c, 1, 76, 127
1, 371927, Note_on_c, 1, 55, 127
1, 372057, Note_off_c, 1, 76, 0
1, 372057, Note_off_c, 1, 55, 0
1, 372059, Note_on_c, 1, 73, 127
1, 372059, Note_on_c, 1, 52, 127
1, 372189, Note_off_c, 1, 73, 0
1, 372189, Note_off_c, 1, 52, 0
1, 372322, Note_off_c, 1, 79, 0
1, 372324, Note_on_c, 1, 79, 127
1, 372324, Note_on_c, 1, 59, 127
1, 372454, Note_off_c, 1, 79, 0
1, 372454, Note_off_c, 1, 59, 0
1, 372456, Note_on_c, 1, 76, 127
1, 372456, Note_on_c, 1, 49, 127
1, 372456, Note_on_c, 1, 81, 127
1, 372586, Note_off_c, 1, 76, 0
1, 372588, Note_on_c, 1, 73, 127
1, 372652, Note_off_c, 1, 49, 0
1, 372720, Note_off_c, 1, 73, 0
1, 372722, Note_on_c, 1, 78, 127
1, 372722, Note_on_c, 1, 57, 127
1, 372852, Note_off_c, 1, 78, 0
1, 372852, Note_off_c, 1, 57, 0
1, 372855, Note_on_c, 1, 75, 127
1, 372855, Note_on_c, 1, 54, 127
1, 372985, Note_off_c, 1, 75, 0
1, 372985, Note_off_c, 1, 54, 0
1, 373117, Note_off_c, 1, 81, 0
1, 373119, Note_on_c, 1, 81, 127
1, 373119, Note_on_c, 1, 60, 127
1, 373249, Note_off_c, 1, 81, 0
1, 373249, Note_off_c, 1, 60, 0
1, 373251, Note_on_c, 1, 78, 127
1, 373251, Note_on_c, 1, 51, 127
1, 373251, Note_on_c, 1, 83, 127
1, 373381, Note_off_c, 1, 78, 0
1, 373381, Note_off_c, 1, 51, 0
1, 373384, Note_on_c, 1, 75, 127
1, 373384, Note_on_c, 1, 59, 127
1, 373514, Note_off_c, 1, 75, 0
1, 373514, Note_off_c, 1, 59, 0
1, 373516, Note_on_c, 1, 57, 127
1, 373646, Note_off_c, 1, 57, 0
1, 373648, Note_on_c, 1, 76, 127
1, 373648, Note_on_c, 1, 55, 127
1, 373778, Note_off_c, 1, 76, 0
1, 373778, Note_off_c, 1, 55, 0
1, 373781, Note_on_c, 1, 79, 127
1, 373781, Note_on_c, 1, 52, 127
1, 373911, Note_off_c, 1, 79, 0
1, 373911, Note_off_c, 1, 52, 0
1, 373913, Note_on_c, 1, 47, 127
1, 374043, Note_off_c, 1, 47, 0
1, 374311, Note_on_c, 1, 43, 127
1, 374438, Note_off_c, 1, 83, 0
1, 374441, Note_off_c, 1, 43, 0
1, 374443, Note_on_c, 1, 76, 127
1, 374443, Note_on_c, 1, 48, 127
1, 374573, Note_off_c, 1, 76, 0
1, 374575, Note_on_c, 1, 80, 127
1, 374705, Note_off_c, 1, 80, 0
1, 374708, Note_on_c, 1, 81, 127
1, 374838, Note_off_c, 1, 81, 0
1, 374840, Note_on_c, 1, 77, 127
1, 374927, Note_off_c, 1, 48, 0
1, 374970, Note_off_c, 1, 77, 0
1, 374972, Note_on_c, 1, 75, 127
1, 374972, Note_on_c, 1, 47, 127
1, 375102, Note_off_c, 1, 75, 0
1, 375102, Note_off_c, 1, 47, 0
1, 375104, Note_on_c, 1, 76, 127
1, 375104, Note_on_c, 1, 48, 127
1, 375234, Note_off_c, 1, 76, 0
1, 375234, Note_off_c, 1, 48, 0
1, 375237, Note_on_c, 1, 72, 127
1, 375237, Note_on_c, 1, 45, 127
1, 375367, Note_off_c, 1, 72, 0
1, 375367, Note_off_c, 1, 45, 0
1, 375369, Note_on_c, 1, 68, 127
1, 375369, Note_on_c, 1, 47, 127
1, 375499, Note_off_c, 1, 68, 0
1, 375499, Note_off_c, 1, 47, 0
1, 375501, Note_on_c, 1, 69, 127
1, 375501, Note_on_c, 1, 48, 127
1, 375631, Note_off_c, 1, 69, 0
1, 375631, Note_off_c, 1, 48, 0
1, 375634, Note_on_c, 1, 65, 127
1, 375634, Note_on_c, 1, 45, 127
1, 375764, Note_off_c, 1, 65, 0
1, 375764, Note_off_c, 1, 45, 0
1, 375766, Note_on_c, 1, 63, 127
1, 375766, Note_on_c, 1, 47, 127
1, 375896, Note_off_c, 1, 63, 0
1, 375896, Note_off_c, 1, 47, 0
1, 375898, Note_on_c, 1, 64, 127
1, 375898, Note_on_c, 1, 48, 127
1, 376028, Note_off_c, 1, 64, 0
1, 376028, Note_off_c, 1, 48, 0
1, 376030, Note_on_c, 1, 63, 127
1, 376030, Note_on_c, 1, 42, 127
1, 376160, Note_off_c, 1, 63, 0
1, 376160, Note_off_c, 1, 42, 0
1, 376163, Note_on_c, 1, 66, 127
1, 376163, Note_on_c, 1, 45, 127
1, 376293, Note_off_c, 1, 66, 0
1, 376293, Note_off_c, 1, 45, 0
1, 376295, Note_on_c, 1, 69, 127
1, 376295, Note_on_c, 1, 48, 127
1, 376425, Note_off_c, 1, 69, 0
1, 376425, Note_off_c, 1, 48, 0
1, 376428, Note_on_c, 1, 72, 127
1, 376428, Note_on_c, 1, 51, 127
1, 376558, Note_off_c, 1, 72, 0
1, 376558, Note_off_c, 1, 51, 0
1, 376560, Note_on_c, 1, 71, 127
1, 376560, Note_on_c, 1, 54, 127
1, 376690, Note_off_c, 1, 71, 0
1, 376690, Note_off_c, 1, 54, 0
1, 376693, Note_on_c, 1, 75, 127
1, 376693, Note_on_c, 1, 57, 127
1, 376823, Note_off_c, 1, 75, 0
1, 376823, Note_off_c, 1, 57, 0
1, 376825, Note_on_c, 1, 76, 127
1, 376825, Note_on_c, 1, 55, 127
1, 376955, Note_off_c, 1, 76, 0
1, 376955, Note_off_c, 1, 55, 0
1, 376957, Note_on_c, 1, 78, 127
1, 376957, Note_on_c, 1, 54, 127
1, 377087, Note_off_c, 1, 78, 0
1, 377087, Note_off_c, 1, 54, 0
1, 377090, Note_on_c, 1, 79, 127
1, 377090, Note_on_c, 1, 52, 127
1, 377220, Note_off_c, 1, 79, 0
1, 377220, Note_off_c, 1, 52, 0
1, 377222, Note_on_c, 1, 71, 127
1, 377222, Note_on_c, 1, 59, 127
1, 377352, Note_off_c, 1, 71, 0
1, 377354, Note_on_c, 1, 76, 127
1, 377484, Note_off_c, 1, 59, 0
1, 377484, Note_off_c, 1, 76, 0
1, 377486, Note_on_c, 1, 69, 127
1, 377486, Note_on_c, 1, 75, 127
1, 377486, Note_on_c, 1, 47, 127
1, 377616, Note_off_c, 1, 69, 0
1, 377616, Note_off_c, 1, 75, 0
1, 377616, Note_off_c, 1, 47, 0
1, 377619, Note_on_c, 1, 67, 127
1, 377619, Note_on_c, 1, 52, 127
1, 377619, Note_on_c, 1, 76, 127
1, 377749, Note_off_c, 1, 67, 0
1, 377751, Note_on_c, 1, 64, 127
1, 377881, Note_off_c, 1, 52, 0
1, 377881, Note_off_c, 1, 64, 0
1, 377883, Note_on_c, 1, 69, 127
1, 377883, Note_on_c, 1, 60, 127
1, 378013, Note_off_c, 1, 69, 0
1, 378013, Note_off_c, 1, 60, 0
1, 378016, Note_on_c, 1, 59, 127
1, 378278, Note_off_c, 1, 59, 0
1, 378280, Note_on_c, 1, 71, 127
1, 378280, Note_on_c, 1, 51, 127
1, 378410, Note_off_c, 1, 71, 0
1, 378410, Note_off_c, 1, 51, 0
1, 379200, Note_off_c, 1, 76, 0
1, 379207, Note_on_c, 1, 68, 127
1, 379207, Note_on_c, 1, 52, 127
1, 379337, Note_off_c, 1, 68, 0
1, 379337, Note_off_c, 1, 52, 0
1, 379339, Note_on_c, 1, 71, 127
1, 379339, Note_on_c, 1, 56, 127
1, 379469, Note_off_c, 1, 71, 0
1, 379469, Note_off_c, 1, 56, 0
1, 379472, Note_on_c, 1, 74, 127
1, 379472, Note_on_c, 1, 59, 127
1, 379602, Note_off_c, 1, 74, 0
1, 379602, Note_off_c, 1, 59, 0
1, 379604, Note_on_c, 1, 56, 127
1, 379604, Note_on_c, 1, 64, 127
1, 379734, Note_off_c, 1, 56, 0
1, 379736, Note_on_c, 1, 52, 127
1, 379800, Note_off_c, 1, 64, 0
1, 379868, Note_off_c, 1, 52, 0
1, 379870, Note_on_c, 1, 72, 127
1, 379870, Note_on_c, 1, 57, 127
1, 380000, Note_off_c, 1, 72, 0
1, 380000, Note_off_c, 1, 57, 0
1, 380002, Note_on_c, 1, 69, 127
1, 380002, Note_on_c, 1, 54, 127
1, 380132, Note_off_c, 1, 69, 0
1, 380132, Note_off_c, 1, 54, 0
1, 380135, Note_on_c, 1, 72, 127
1, 380135, Note_on_c, 1, 57, 127
1, 380265, Note_off_c, 1, 72, 0
1, 380265, Note_off_c, 1, 57, 0
1, 380267, Note_on_c, 1, 76, 127
1, 380267, Note_on_c, 1, 60, 127
1, 380397, Note_off_c, 1, 76, 0
1, 380397, Note_off_c, 1, 60, 0
1, 380399, Note_on_c, 1, 57, 127
1, 380399, Note_on_c, 1, 66, 127
1, 380529, Note_off_c, 1, 57, 0
1, 380532, Note_on_c, 1, 54, 127
1, 380595, Note_off_c, 1, 66, 0
1, 380664, Note_off_c, 1, 54, 0
1, 380665, Note_on_c, 1, 74, 127
1, 380665, Note_on_c, 1, 59, 127
1, 380795, Note_off_c, 1, 74, 0
1, 380795, Note_off_c, 1, 59, 0
1, 380798, Note_on_c, 1, 71, 127
1, 380798, Note_on_c, 1, 56, 127
1, 380928, Note_off_c, 1, 71, 0
1, 380928, Note_off_c, 1, 56, 0
1, 380930, Note_on_c, 1, 74, 127
1, 380930, Note_on_c, 1, 59, 127
1, 381060, Note_off_c, 1, 74, 0
1, 381060, Note_off_c, 1, 59, 0
1, 381062, Note_on_c, 1, 62, 127
1, 381062, Note_on_c, 1, 77, 127
1, 381192, Note_off_c, 1, 62, 0
1, 381195, Note_on_c, 1, 59, 127
1, 381195, Note_on_c, 1, 68, 127
1, 381324, Note_off_c, 1, 77, 0
1, 381325, Note_off_c, 1, 59, 0
1, 381328, Note_on_c, 1, 76, 127
1, 381328, Note_on_c, 1, 56, 127
1, 381458, Note_off_c, 1, 76, 0
1, 381458, Note_off_c, 1, 56, 0
1, 381460, Note_on_c, 1, 74, 127
1, 381586, Note_off_c, 1, 68, 0
1, 381590, Note_off_c, 1, 74, 0
1, 381592, Note_on_c, 1, 72, 127
1, 381592, Note_on_c, 1, 57, 127
1, 381722, Note_off_c, 1, 72, 0
1, 381725, Note_on_c, 1, 69, 127
1, 381855, Note_off_c, 1, 69, 0
1, 381857, Note_on_c, 1, 74, 127
1, 381857, Note_on_c, 1, 65, 127
1, 381987, Note_off_c, 1, 74, 0
1, 381987, Note_off_c, 1, 65, 0
1, 381989, Note_on_c, 1, 64, 127
1, 382251, Note_off_c, 1, 57, 0
1, 382254, Note_on_c, 1, 76, 127
1, 382254, Note_on_c, 1, 56, 127
1, 382384, Note_off_c, 1, 76, 0
1, 382384, Note_off_c, 1, 56, 0
1, 382648, Note_off_c, 1, 64, 0
1, 383180, Note_on_c, 1, 73, 127
1, 383310, Note_off_c, 1, 73, 0
1, 383312, Note_on_c, 1, 61, 127
1, 383442, Note_off_c, 1, 61, 0
1, 383445, Note_on_c, 1, 79, 127
1, 383445, Note_on_c, 1, 64, 127
1, 383575, Note_off_c, 1, 79, 0
1, 383575, Note_off_c, 1, 64, 0
1, 383578, Note_on_c, 1, 61, 127
1, 383578, Note_on_c, 1, 69, 127
1, 383708, Note_off_c, 1, 61, 0
1, 383710, Note_on_c, 1, 57, 127
1, 383840, Note_off_c, 1, 69, 0
1, 383840, Note_off_c, 1, 57, 0
1, 383842, Note_on_c, 1, 78, 127
1, 383842, Note_on_c, 1, 62, 127
1, 383972, Note_off_c, 1, 78, 0
1, 383972, Note_off_c, 1, 62, 0
1, 383974, Note_on_c, 1, 74, 127
1, 383974, Note_on_c, 1, 59, 127
1, 384104, Note_off_c, 1, 74, 0
1, 384104, Note_off_c, 1, 59, 0
1, 384107, Note_on_c, 1, 78, 127
1, 384107, Note_on_c, 1, 62, 127
1, 384237, Note_off_c, 1, 78, 0
1, 384237, Note_off_c, 1, 62, 0
1, 384239, Note_on_c, 1, 81, 127
1, 384239, Note_on_c, 1, 66, 127
1, 384369, Note_off_c, 1, 81, 0
1, 384369, Note_off_c, 1, 66, 0
1, 384371, Note_on_c, 1, 62, 127
1, 384371, Note_on_c, 1, 71, 127
1, 384501, Note_off_c, 1, 62, 0
1, 384504, Note_on_c, 1, 59, 127
1, 384633, Note_off_c, 1, 71, 0
1, 384634, Note_off_c, 1, 59, 0
1, 384636, Note_on_c, 1, 79, 127
1, 384636, Note_on_c, 1, 64, 127
1, 384766, Note_off_c, 1, 79, 0
1, 384766, Note_off_c, 1, 64, 0
1, 384768, Note_on_c, 1, 76, 127
1, 384768, Note_on_c, 1, 61, 127
1, 384898, Note_off_c, 1, 76, 0
1, 384898, Note_off_c, 1, 61, 0
1, 384900, Note_on_c, 1, 79, 127
1, 384900, Note_on_c, 1, 64, 127
1, 385030, Note_off_c, 1, 79, 0
1, 385030, Note_off_c, 1, 64, 0
1, 385033, Note_on_c, 1, 67, 127
1, 385033, Note_on_c, 1, 83, 127
1, 385163, Note_off_c, 1, 67, 0
1, 385165, Note_on_c, 1, 73, 127
1, 385165, Note_on_c, 1, 64, 127
1, 385295, Note_off_c, 1, 83, 0
1, 385295, Note_off_c, 1, 73, 0
1, 385295, Note_off_c, 1, 64, 0
1, 385297, Note_on_c, 1, 81, 127
1, 385297, Note_on_c, 1, 61, 127
1, 385427, Note_off_c, 1, 81, 0
1, 385427, Note_off_c, 1, 61, 0
1, 385430, Note_on_c, 1, 79, 127
1, 385430, Note_on_c, 1, 64, 127
1, 385560, Note_off_c, 1, 79, 0
1, 385560, Note_off_c, 1, 64, 0
1, 385562, Note_on_c, 1, 78, 127
1, 385562, Note_on_c, 1, 62, 127
1, 385692, Note_off_c, 1, 78, 0
1, 385695, Note_on_c, 1, 74, 127
1, 385824, Note_off_c, 1, 62, 0
1, 385825, Note_off_c, 1, 74, 0
1, 385827, Note_on_c, 1, 79, 127
1, 385827, Note_on_c, 1, 71, 127
1, 385957, Note_off_c, 1, 79, 0
1, 385957, Note_off_c, 1, 71, 0
1, 385960, Note_on_c, 1, 78, 127
1, 385960, Note_on_c, 1, 69, 127
1, 386090, Note_off_c, 1, 78, 0
1, 386092, Note_on_c, 1, 74, 127
1, 386222, Note_off_c, 1, 69, 0
1, 386222, Note_off_c, 1, 74, 0
1, 386224, Note_on_c, 1, 81, 127
1, 386224, Note_on_c, 1, 61, 127
1, 386354, Note_off_c, 1, 81, 0
1, 386354, Note_off_c, 1, 61, 0
1, 386357, Note_on_c, 1, 78, 127
1, 386357, Note_on_c, 1, 62, 127
1, 386487, Note_off_c, 1, 78, 0
1, 386489, Note_on_c, 1, 74, 127
1, 386619, Note_off_c, 1, 62, 0
1, 386619, Note_off_c, 1, 74, 0
1, 386621, Note_on_c, 1, 79, 127
1, 386621, Note_on_c, 1, 71, 127
1, 386751, Note_off_c, 1, 79, 0
1, 386751, Note_off_c, 1, 71, 0
1, 386753, Note_on_c, 1, 78, 127
1, 386753, Note_on_c, 1, 69, 127
1, 386883, Note_off_c, 1, 78, 0
1, 386886, Note_on_c, 1, 74, 127
1, 387015, Note_off_c, 1, 69, 0
1, 387016, Note_off_c, 1, 74, 0
1, 387018, Note_on_c, 1, 81, 127
1, 387018, Note_on_c, 1, 61, 127
1, 387148, Note_off_c, 1, 81, 0
1, 387148, Note_off_c, 1, 61, 0
1, 387150, Note_on_c, 1, 78, 127
1, 387150, Note_on_c, 1, 62, 127
1, 387280, Note_off_c, 1, 78, 0
1, 387280, Note_off_c, 1, 62, 0
1, 387282, Note_on_c, 1, 81, 127
1, 387282, Note_on_c, 1, 66, 127
1, 387412, Note_off_c, 1, 81, 0
1, 387412, Note_off_c, 1, 66, 0
1, 387415, Note_on_c, 1, 84, 127
1, 387415, Note_on_c, 1, 69, 127
1, 387545, Note_off_c, 1, 84, 0
1, 387545, Note_off_c, 1, 69, 0
1, 387547, Note_on_c, 1, 66, 127
1, 387547, Note_on_c, 1, 74, 127
1, 387677, Note_off_c, 1, 66, 0
1, 387679, Note_on_c, 1, 62, 127
1, 387743, Note_off_c, 1, 74, 0
1, 387811, Note_off_c, 1, 62, 0
1, 387813, Note_on_c, 1, 83, 127
1, 387813, Note_on_c, 1, 67, 127
1, 387943, Note_off_c, 1, 83, 0
1, 387943, Note_off_c, 1, 67, 0
1, 387946, Note_on_c, 1, 76, 127
1, 387946, Note_on_c, 1, 60, 127
1, 388076, Note_off_c, 1, 76, 0
1, 388076, Note_off_c, 1, 60, 0
1, 388078, Note_on_c, 1, 79, 127
1, 388078, Note_on_c, 1, 64, 127
1, 388208, Note_off_c, 1, 79, 0
1, 388208, Note_off_c, 1, 64, 0
1, 388211, Note_on_c, 1, 83, 127
1, 388211, Note_on_c, 1, 67, 127
1, 388341, Note_off_c, 1, 83, 0
1, 388341, Note_off_c, 1, 67, 0
1, 388343, Note_on_c, 1, 64, 127
1, 388343, Note_on_c, 1, 72, 127
1, 388473, Note_off_c, 1, 64, 0
1, 388476, Note_on_c, 1, 60, 127
1, 388539, Note_off_c, 1, 72, 0
1, 388608, Note_off_c, 1, 60, 0
1, 388610, Note_on_c, 1, 81, 127
1, 388610, Note_on_c, 1, 66, 127
1, 388740, Note_off_c, 1, 81, 0
1, 388740, Note_off_c, 1, 66, 0
1, 388742, Note_on_c, 1, 74, 127
1, 388742, Note_on_c, 1, 59, 127
1, 388872, Note_off_c, 1, 74, 0
1, 388872, Note_off_c, 1, 59, 0
1, 388874, Note_on_c, 1, 78, 127
1, 388874, Note_on_c, 1, 62, 127
1, 389004, Note_off_c, 1, 78, 0
1, 389004, Note_off_c, 1, 62, 0
1, 389006, Note_on_c, 1, 81, 127
1, 389006, Note_on_c, 1, 66, 127
1, 389136, Note_off_c, 1, 81, 0
1, 389136, Note_off_c, 1, 66, 0
1, 389139, Note_on_c, 1, 62, 127
1, 389139, Note_on_c, 1, 71, 127
1, 389269, Note_off_c, 1, 62, 0
1, 389271, Note_on_c, 1, 59, 127
1, 389335, Note_off_c, 1, 71, 0
1, 389403, Note_off_c, 1, 59, 0
1, 389405, Note_on_c, 1, 79, 127
1, 389405, Note_on_c, 1, 64, 127
1, 389535, Note_off_c, 1, 79, 0
1, 389535, Note_off_c, 1, 64, 0
1, 389537, Note_on_c, 1, 72, 127
1, 389537, Note_on_c, 1, 57, 127
1, 389667, Note_off_c, 1, 72, 0
1, 389667, Note_off_c, 1, 57, 0
1, 389670, Note_on_c, 1, 76, 127
1, 389670, Note_on_c, 1, 60, 127
1, 389800, Note_off_c, 1, 76, 0
1, 389800, Note_off_c, 1, 60, 0
1, 389802, Note_on_c, 1, 79, 127
1, 389802, Note_on_c, 1, 64, 127
1, 389932, Note_off_c, 1, 79, 0
1, 389932, Note_off_c, 1, 64, 0
1, 389934, Note_on_c, 1, 69, 127
1, 389934, Note_on_c, 1, 60, 127
1, 390064, Note_off_c, 1, 69, 0
1, 390064, Note_off_c, 1, 60, 0
1, 390066, Note_on_c, 1, 72, 127
1, 390066, Note_on_c, 1, 57, 127
1, 390196, Note_off_c, 1, 72, 0
1, 390196, Note_off_c, 1, 57, 0
1, 390199, Note_on_c, 1, 76, 127
1, 390199, Note_on_c, 1, 60, 127
1, 390329, Note_off_c, 1, 76, 0
1, 390329, Note_off_c, 1, 60, 0
1, 390331, Note_on_c, 1, 66, 127
1, 390331, Note_on_c, 1, 62, 127
1, 390461, Note_off_c, 1, 66, 0
1, 390461, Note_off_c, 1, 62, 0
1, 390463, Note_on_c, 1, 69, 127
1, 390463, Note_on_c, 1, 57, 127
1, 390593, Note_off_c, 1, 69, 0
1, 390593, Note_off_c, 1, 57, 0
1, 390595, Note_on_c, 1, 72, 127
1, 390595, Note_on_c, 1, 54, 127
1, 390725, Note_off_c, 1, 72, 0
1, 390725, Note_off_c, 1, 54, 0
1, 390728, Note_on_c, 1, 62, 127
1, 390728, Note_on_c, 1, 50, 127
1, 390858, Note_off_c, 1, 62, 0
1, 390861, Note_on_c, 1, 66, 127
1, 390990, Note_off_c, 1, 50, 0
1, 390991, Note_off_c, 1, 66, 0
1, 390993, Note_on_c, 1, 69, 127
1, 390993, Note_on_c, 1, 45, 127
1, 391123, Note_off_c, 1, 69, 0
1, 391123, Note_off_c, 1, 45, 0
1, 391126, Note_on_c, 1, 42, 127
1, 391126, Note_on_c, 1, 72, 127
1, 391256, Note_off_c, 1, 42, 0
1, 391258, Note_on_c, 1, 38, 127
1, 391388, Note_off_c, 1, 38, 0
1, 391390, Note_on_c, 1, 71, 127
1, 391390, Note_on_c, 1, 43, 127
1, 391520, Note_off_c, 1, 71, 0
1, 391520, Note_off_c, 1, 43, 0
1, 391522, Note_on_c, 1, 69, 127
1, 391785, Note_off_c, 1, 72, 0
1, 391787, Note_on_c, 1, 45, 127
1, 391913, Note_off_c, 1, 69, 0
1, 391917, Note_off_c, 1, 45, 0
1, 391919, Note_on_c, 1, 62, 127
1, 392181, Note_off_c, 1, 62, 0
1, 392845, Note_on_c, 1, 66, 127
1, 392975, Note_off_c, 1, 66, 0
1, 392978, Note_on_c, 1, 48, 127
1, 393108, Note_off_c, 1, 48, 0
1, 393377, Note_on_c, 1, 47, 127
1, 393377, Note_on_c, 1, 74, 127
1, 393507, Note_off_c, 1, 47, 0
1, 393509, Note_on_c, 1, 64, 127
1, 393639, Note_off_c, 1, 64, 0
1, 393642, Note_on_c, 1, 67, 127
1, 393772, Note_off_c, 1, 67, 0
1, 393774, Note_on_c, 1, 50, 127
1, 393904, Note_off_c, 1, 50, 0
1, 393906, Note_on_c, 1, 40, 127
1, 394036, Note_off_c, 1, 74, 0
1, 394102, Note_off_c, 1, 40, 0
1, 394172, Note_on_c, 1, 76, 127
1, 394569, Note_on_c, 1, 52, 127
1, 394699, Note_off_c, 1, 52, 0
1, 394831, Note_off_c, 1, 76, 0
1, 394966, Note_on_c, 1, 78, 127
1, 395098, Note_off_c, 1, 78, 0
1, 395100, Note_on_c, 1, 47, 127
1, 395100, Note_on_c, 1, 79, 127
1, 395232, Note_off_c, 1, 47, 0
1, 395236, Note_on_c, 1, 50, 127
1, 395236, Note_on_c, 1, 74, 127
1, 395368, Note_off_c, 1, 50, 0
1, 395368, Note_off_c, 1, 74, 0
1, 395371, Note_on_c, 1, 55, 127
1, 395371, Note_on_c, 1, 71, 127
1, 395503, Note_off_c, 1, 55, 0
1, 395503, Note_off_c, 1, 71, 0
1, 395507, Note_on_c, 1, 59, 127
1, 395507, Note_on_c, 1, 67, 127
1, 395638, Note_off_c, 1, 79, 0
1, 395639, Note_off_c, 1, 59, 0
1, 395643, Note_on_c, 1, 77, 127
1, 395775, Note_off_c, 1, 77, 0
1, 395907, Note_off_c, 1, 67, 0
1, 395914, Note_on_c, 1, 60, 127
1, 395914, Note_on_c, 1, 76, 127
1, 396048, Note_off_c, 1, 60, 0
1, 396055, Note_on_c, 1, 72, 127
1, 396055, Note_on_c, 1, 57, 127
1, 396189, Note_off_c, 1, 76, 0
1, 396189, Note_off_c, 1, 72, 0
1, 396189, Note_off_c, 1, 57, 0
1, 396195, Note_on_c, 1, 69, 127
1, 396195, Note_on_c, 1, 54, 127
1, 396329, Note_off_c, 1, 69, 0
1, 396329, Note_off_c, 1, 54, 0
1, 396335, Note_on_c, 1, 50, 127
1, 396335, Note_on_c, 1, 66, 127
1, 396469, Note_off_c, 1, 50, 0
1, 396476, Note_on_c, 1, 69, 127
1, 396476, Note_on_c, 1, 54, 127
1, 396610, Note_off_c, 1, 66, 0
1, 396610, Note_off_c, 1, 69, 0
1, 396610, Note_off_c, 1, 54, 0
1, 396616, Note_on_c, 1, 57, 127
1, 396616, Note_on_c, 1, 72, 127
1, 396753, Note_off_c, 1, 57, 0
1, 396753, Note_off_c, 1, 72, 0
1, 396758, Note_on_c, 1, 71, 127
1, 396758, Note_on_c, 1, 55, 127
1, 396895, Note_off_c, 1, 71, 0
1, 396901, Note_on_c, 1, 69, 127
1, 397038, Note_off_c, 1, 69, 0
1, 397041, Note_off_c, 1, 55, 0
1, 397045, Note_on_c, 1, 64, 127
1, 397045, Note_on_c, 1, 67, 127
1, 397045, Note_on_c, 1, 48, 127
1, 397187, Note_off_c, 1, 64, 0
1, 397187, Note_off_c, 1, 67, 0
1, 397187, Note_off_c, 1, 48, 0
1, 397194, Note_on_c, 1, 67, 127
1, 397194, Note_on_c, 1, 62, 127
1, 397194, Note_on_c, 1, 50, 127
1, 397336, Note_off_c, 1, 67, 0
1, 397345, Note_on_c, 1, 69, 127
1, 397486, Note_off_c, 1, 62, 0
1, 397486, Note_off_c, 1, 50, 0
1, 397491, Note_off_c, 1, 69, 0
1, 397496, Note_on_c, 1, 66, 127
1, 397496, Note_on_c, 1, 38, 127
1, 397496, Note_on_c, 1, 60, 127
1, 397646, Note_off_c, 1, 66, 0
1, 397646, Note_off_c, 1, 38, 0
1, 397652, Note_on_c, 1, 67, 127
1, 397652, Note_on_c, 1, 43, 127
1, 397804, Note_off_c, 1, 60, 0
1, 397819, Note_on_c, 1, 47, 127
1, 397819, Note_on_c, 1, 62, 127
1, 397990, Note_off_c, 1, 47, 0
1, 398004, Note_on_c, 1, 50, 127
1, 398004, Note_on_c, 1, 59, 127
1, 398175, Note_off_c, 1, 50, 0
1, 398272, Note_on_c, 1, 55, 127
1, 398535, Note_off_c, 1, 62, 0
1, 398593, Note_off_c, 1, 67, 0
1, 398593, Note_off_c, 1, 43, 0
1, 398719, Note_off_c, 1, 59, 0
1, 399672, Note_off_c, 1, 55, 0
1, 399672, End_track
0, 0, End_of_file