0, 0, Header, 1, 1, 480
1, 0, Start_track
1, 0, Title_t, "Test"
1, 0, Tempo, 500000
1, 0, Instrument_name_t, "Church Organ"
1, 96, Note_on_c, 1, 69, 127
1, 167, Note_on_c, 1, 68, 127
1, 226, Note_off_c, 1, 69, 0
1, 251, Note_on_c, 1, 57, 127
1, 270, Note_off_c, 1, 68, 0
1, 403, Note_off_c, 1, 57, 0
1, 406, Note_on_c, 1, 56, 127
1, 558, Note_off_c, 1, 56, 0
1, 561, Note_on_c, 1, 54, 127
1, 713, Note_off_c, 1, 54, 0
1, 716, Note_on_c, 1, 52, 127
1, 868, Note_off_c, 1, 52, 0
1, 871, Note_on_c, 1, 50, 127
1, 1023, Note_off_c, 1, 50, 0
1, 1026, Note_on_c, 1, 49, 127
1, 1178, Note_off_c, 1, 49, 0
1, 1181, Note_on_c, 1, 47, 127
1, 1333, Note_off_c, 1, 47, 0
1, 1336, Note_on_c, 1, 45, 127
1, 1491, Note_on_c, 1, 81, 127
1, 1643, Note_off_c, 1, 45, 0
1, 1643, Note_off_c, 1, 81, 0
1, 1646, Note_on_c, 1, 80, 127
1, 1646, Note_on_c, 1, 47, 127
1, 1646, Note_on_c, 1, 50, 127
1, 1798, Note_off_c, 1, 80, 0
1, 1801, Note_on_c, 1, 78, 127
1, 1953, Note_off_c, 1, 47, 0
1, 1953, Note_off_c, 1, 50, 0
1, 1953, Note_off_c, 1, 78, 0
1, 1956, Note_on_c, 1, 76, 127
1, 1956, Note_on_c, 1, 52, 127
1, 1956, Note_on_c, 1, 49, 127
1, 2108, Note_off_c, 1, 76, 0
1, 2111, Note_on_c, 1, 78, 127
1, 2263, Note_off_c, 1, 52, 0
1, 2263, Note_off_c, 1, 78, 0
1, 2266, Note_on_c, 1, 74, 127
1, 2266, Note_on_c, 1, 57, 127
1, 2418, Note_off_c, 1, 74, 0
1, 2570, Note_off_c, 1, 49, 0
1, 2576, Note_on_c, 1, 50, 127
1, 2719, Note_off_c, 1, 57, 0
1, 2732, Note_on_c, 1, 55, 127
1, 2884, Note_off_c, 1, 55, 0
1, 2887, Note_on_c, 1, 54, 127
1, 2965, Note_off_c, 1, 50, 0
1, 3040, Note_off_c, 1, 54, 0
1, 3508, Note_on_c, 1, 47, 127
1, 3660, Note_off_c, 1, 47, 0
1, 3663, Note_on_c, 1, 45, 127
1, 3815, Note_off_c, 1, 45, 0
1, 3818, Note_on_c, 1, 44, 127
1, 3974, Note_on_c, 1, 71, 127
1, 4126, Note_off_c, 1, 71, 0
1, 4129, Note_on_c, 1, 73, 127
1, 4129, Note_on_c, 1, 52, 127
1, 4281, Note_off_c, 1, 73, 0
1, 4284, Note_on_c, 1, 74, 127
1, 4436, Note_off_c, 1, 74, 0
1, 4439, Note_on_c, 1, 76, 127
1, 4439, Note_on_c, 1, 47, 127
1, 4591, Note_off_c, 1, 76, 0
1, 4594, Note_on_c, 1, 78, 127
1, 4746, Note_off_c, 1, 78, 0
1, 5053, Note_off_c, 1, 47, 0
1, 5058, Note_off_c, 1, 44, 0
1, 5058, Note_off_c, 1, 52, 0
1, 5060, Note_on_c, 1, 45, 127
1, 5060, Note_on_c, 1, 57, 127
1, 5060, Note_on_c, 1, 73, 127
1, 5216, Note_on_c, 1, 71, 127
1, 5368, Note_off_c, 1, 71, 0
1, 5371, Note_on_c, 1, 69, 127
1, 5523, Note_off_c, 1, 69, 0
1, 5526, Note_on_c, 1, 68, 127
1, 5678, Note_off_c, 1, 68, 0
1, 5833, Note_off_c, 1, 45, 0
1, 5833, Note_off_c, 1, 57, 0
1, 5837, Note_on_c, 1, 56, 127
1, 5989, Note_off_c, 1, 56, 0
1, 5992, Note_on_c, 1, 54, 127
1, 6144, Note_off_c, 1, 54, 0
1, 6147, Note_on_c, 1, 52, 127
1, 6299, Note_off_c, 1, 52, 0
1, 6451, Note_off_c, 1, 73, 0
1, 6612, Note_on_c, 1, 74, 127
1, 6612, Note_on_c, 1, 49, 127
1, 6764, Note_off_c, 1, 74, 0
1, 6767, Note_on_c, 1, 76, 127
1, 6919, Note_off_c, 1, 49, 0
1, 6919, Note_off_c, 1, 76, 0
1, 6922, Note_on_c, 1, 50, 127
1, 7231, Note_off_c, 1, 50, 0
1, 7235, Note_on_c, 1, 71, 127
1, 7235, Note_on_c, 1, 56, 127
1, 7235, Note_on_c, 1, 52, 127
1, 7389, Note_off_c, 1, 71, 0
1, 7391, Note_on_c, 1, 69, 127
1, 7543, Note_off_c, 1, 56, 0
1, 7543, Note_off_c, 1, 52, 0
1, 7545, Note_off_c, 1, 69, 0
1, 7551, Note_on_c, 1, 57, 127
1, 7552, Note_on_c, 1, 69, 127
1, 7552, Note_on_c, 1, 45, 127
1, 7734, Note_on_c, 1, 64, 127
1, 7772, Note_off_c, 1, 69, 0
1, 7886, Note_off_c, 1, 64, 0
1, 7889, Note_on_c, 1, 66, 127
1, 8041, Note_off_c, 1, 66, 0
1, 8044, Note_on_c, 1, 68, 127
1, 8166, Note_off_c, 1, 45, 0
1, 8196, Note_off_c, 1, 68, 0
1, 8323, Note_off_c, 1, 57, 0
1, 8370, Note_on_c, 1, 61, 127
1, 8522, Note_off_c, 1, 61, 0
1, 8525, Note_on_c, 1, 59, 127
1, 8677, Note_off_c, 1, 59, 0
1, 8680, Note_on_c, 1, 57, 127
1, 8832, Note_off_c, 1, 57, 0
1, 8835, Note_on_c, 1, 56, 127
1, 8991, Note_on_c, 1, 71, 127
1, 9143, Note_off_c, 1, 71, 0
1, 9146, Note_on_c, 1, 73, 127
1, 9298, Note_off_c, 1, 73, 0
1, 9301, Note_on_c, 1, 75, 127
1, 9450, Note_off_c, 1, 56, 0
1, 9453, Note_off_c, 1, 75, 0
1, 9456, Note_on_c, 1, 76, 127
1, 9612, Note_on_c, 1, 56, 127
1, 9764, Note_off_c, 1, 56, 0
1, 9767, Note_on_c, 1, 54, 127
1, 9786, Note_off_c, 1, 76, 0
1, 9919, Note_off_c, 1, 54, 0
1, 9922, Note_on_c, 1, 52, 127
1, 10074, Note_off_c, 1, 52, 0
1, 10077, Note_on_c, 1, 51, 127
1, 10233, Note_on_c, 1, 83, 127
1, 10385, Note_off_c, 1, 83, 0
1, 10388, Note_on_c, 1, 81, 127
1, 10388, Note_on_c, 1, 54, 127
1, 10540, Note_off_c, 1, 81, 0
1, 10543, Note_on_c, 1, 80, 127
1, 10695, Note_off_c, 1, 54, 0
1, 10695, Note_off_c, 1, 80, 0
1, 10698, Note_on_c, 1, 78, 127
1, 10698, Note_on_c, 1, 59, 127
1, 10850, Note_off_c, 1, 78, 0
1, 10853, Note_on_c, 1, 76, 127
1, 11005, Note_off_c, 1, 76, 0
1, 11008, Note_on_c, 1, 75, 127
1, 11160, Note_off_c, 1, 75, 0
1, 11163, Note_on_c, 1, 73, 127
1, 11312, Note_off_c, 1, 59, 0
1, 11315, Note_off_c, 1, 73, 0
1, 11317, Note_off_c, 1, 51, 0
1, 11319, Note_on_c, 1, 71, 127
1, 11319, Note_on_c, 1, 56, 127
1, 11319, Note_on_c, 1, 52, 127
1, 11471, Note_off_c, 1, 71, 0
1, 11474, Note_on_c, 1, 69, 127
1, 11626, Note_off_c, 1, 56, 0
1, 11626, Note_off_c, 1, 52, 0
1, 11626, Note_off_c, 1, 69, 0
1, 11629, Note_on_c, 1, 68, 127
1, 11629, Note_on_c, 1, 54, 127
1, 11629, Note_on_c, 1, 57, 127
1, 11781, Note_off_c, 1, 68, 0
1, 11784, Note_on_c, 1, 66, 127
1, 11936, Note_off_c, 1, 54, 0
1, 11936, Note_off_c, 1, 57, 0
1, 11936, Note_off_c, 1, 66, 0
1, 11939, Note_on_c, 1, 64, 127
1, 11939, Note_on_c, 1, 56, 127
1, 11939, Note_on_c, 1, 59, 127
1, 12091, Note_off_c, 1, 64, 0
1, 12094, Note_on_c, 1, 71, 127
1, 12246, Note_off_c, 1, 56, 0
1, 12246, Note_off_c, 1, 71, 0
1, 12249, Note_on_c, 1, 73, 127
1, 12249, Note_on_c, 1, 52, 127
1, 12401, Note_off_c, 1, 73, 0
1, 12404, Note_on_c, 1, 74, 127
1, 12553, Note_off_c, 1, 59, 0
1, 12556, Note_off_c, 1, 52, 0
1, 12556, Note_off_c, 1, 74, 0
1, 12559, Note_on_c, 1, 57, 127
1, 12559, Note_on_c, 1, 73, 127
1, 12711, Note_off_c, 1, 57, 0
1, 12714, Note_on_c, 1, 59, 127
1, 12866, Note_off_c, 1, 59, 0
1, 13024, Note_on_c, 1, 56, 127
1, 13176, Note_off_c, 1, 56, 0
1, 13179, Note_on_c, 1, 54, 127
1, 13331, Note_off_c, 1, 73, 0
1, 13489, Note_on_c, 1, 78, 127
1, 13489, Note_on_c, 1, 58, 127
1, 13641, Note_off_c, 1, 78, 0
1, 13793, Note_off_c, 1, 54, 0
1, 13796, Note_off_c, 1, 58, 0
1, 13799, Note_on_c, 1, 75, 127
1, 13799, Note_on_c, 1, 59, 127
1, 13951, Note_off_c, 1, 75, 0
1, 14106, Note_off_c, 1, 59, 0
1, 14109, Note_on_c, 1, 80, 127
1, 14109, Note_on_c, 1, 47, 127
1, 14261, Note_off_c, 1, 80, 0
1, 14264, Note_on_c, 1, 75, 127
1, 14416, Note_off_c, 1, 47, 0
1, 14416, Note_off_c, 1, 75, 0
1, 14419, Note_on_c, 1, 76, 127
1, 14419, Note_on_c, 1, 49, 127
1, 14571, Note_off_c, 1, 76, 0
1, 14726, Note_off_c, 1, 49, 0
1, 14729, Note_on_c, 1, 81, 127
1, 14729, Note_on_c, 1, 61, 127
1, 14881, Note_off_c, 1, 81, 0
1, 14884, Note_on_c, 1, 76, 127
1, 15036, Note_off_c, 1, 61, 0
1, 15036, Note_off_c, 1, 76, 0
1, 15039, Note_on_c, 1, 78, 127
1, 15039, Note_on_c, 1, 63, 127
1, 15191, Note_off_c, 1, 78, 0
1, 15346, Note_off_c, 1, 63, 0
1, 15349, Note_on_c, 1, 83, 127
1, 15349, Note_on_c, 1, 51, 127
1, 15501, Note_off_c, 1, 83, 0
1, 15504, Note_on_c, 1, 78, 127
1, 15656, Note_off_c, 1, 51, 0
1, 15656, Note_off_c, 1, 78, 0
1, 15659, Note_on_c, 1, 80, 127
1, 15659, Note_on_c, 1, 52, 127
1, 15811, Note_off_c, 1, 80, 0
1, 15814, Note_on_c, 1, 71, 127
1, 15966, Note_off_c, 1, 71, 0
1, 15969, Note_on_c, 1, 76, 127
1, 15969, Note_on_c, 1, 56, 127
1, 16121, Note_off_c, 1, 76, 0
1, 16273, Note_off_c, 1, 52, 0
1, 16276, Note_off_c, 1, 56, 0
1, 16279, Note_on_c, 1, 57, 127
1, 16279, Note_on_c, 1, 73, 127
1, 16431, Note_off_c, 1, 57, 0
1, 16431, Note_off_c, 1, 73, 0
1, 16434, Note_on_c, 1, 56, 127
1, 16434, Note_on_c, 1, 75, 127
1, 16586, Note_off_c, 1, 56, 0
1, 16586, Note_off_c, 1, 75, 0
1, 16589, Note_on_c, 1, 76, 127
1, 16589, Note_on_c, 1, 54, 127
1, 16741, Note_off_c, 1, 76, 0
1, 16744, Note_on_c, 1, 78, 127
1, 16896, Note_off_c, 1, 54, 0
1, 16896, Note_off_c, 1, 78, 0
1, 16899, Note_on_c, 1, 80, 127
1, 16899, Note_on_c, 1, 59, 127
1, 16899, Note_on_c, 1, 76, 127
1, 17053, Note_off_c, 1, 80, 0
1, 17055, Note_on_c, 1, 78, 127
1, 17130, Note_off_c, 1, 78, 0
1, 17208, Note_off_c, 1, 59, 0
1, 17211, Note_on_c, 1, 47, 127
1, 17354, Note_off_c, 1, 76, 0
1, 17520, Note_off_c, 1, 47, 0
1, 17523, Note_on_c, 1, 76, 127
1, 17523, Note_on_c, 1, 52, 127
1, 17588, Note_on_c, 1, 75, 127
1, 17598, Note_off_c, 1, 76, 0
1, 17663, Note_off_c, 1, 75, 0
1, 17676, Note_off_c, 1, 52, 0
1, 17679, Note_on_c, 1, 40, 127
1, 17835, Note_on_c, 1, 44, 127
1, 17987, Note_off_c, 1, 44, 0
1, 17990, Note_on_c, 1, 47, 127
1, 18142, Note_off_c, 1, 47, 0
1, 18316, Note_on_c, 1, 73, 127
1, 18468, Note_off_c, 1, 73, 0
1, 18471, Note_on_c, 1, 71, 127
1, 18609, Note_off_c, 1, 40, 0
1, 18623, Note_off_c, 1, 71, 0
1, 18627, Note_on_c, 1, 69, 127
1, 18779, Note_off_c, 1, 69, 0
1, 18782, Note_on_c, 1, 68, 127
1, 18934, Note_off_c, 1, 68, 0
1, 18937, Note_on_c, 1, 66, 127
1, 19089, Note_off_c, 1, 66, 0
1, 19092, Note_on_c, 1, 64, 127
1, 19092, Note_on_c, 1, 54, 127
1, 19244, Note_off_c, 1, 64, 0
1, 19247, Note_on_c, 1, 63, 127
1, 19399, Note_off_c, 1, 54, 0
1, 19399, Note_off_c, 1, 63, 0
1, 19402, Note_on_c, 1, 56, 127
1, 19402, Note_on_c, 1, 52, 127
1, 19402, Note_on_c, 1, 59, 127
1, 19402, Note_on_c, 1, 64, 127
1, 19563, Note_on_c, 1, 47, 127
1, 19715, Note_off_c, 1, 47, 0
1, 19723, Note_on_c, 1, 40, 127
1, 19856, Note_off_c, 1, 56, 0
1, 19856, Note_off_c, 1, 52, 0
1, 19866, Note_off_c, 1, 59, 0
1, 19866, Note_off_c, 1, 64, 0
1, 19885, Note_on_c, 1, 71, 127
1, 20031, Note_off_c, 1, 40, 0
1, 20037, Note_off_c, 1, 71, 0
1, 20040, Note_on_c, 1, 71, 127
1, 20196, Note_on_c, 1, 40, 127
1, 20352, Note_on_c, 1, 44, 127
1, 20504, Note_off_c, 1, 44, 0
1, 20507, Note_on_c, 1, 47, 127
1, 20659, Note_off_c, 1, 47, 0
1, 20662, Note_on_c, 1, 52, 127
1, 20814, Note_off_c, 1, 71, 0
1, 20817, Note_on_c, 1, 69, 127
1, 20969, Note_off_c, 1, 69, 0
1, 20972, Note_off_c, 1, 40, 0
1, 20972, Note_on_c, 1, 68, 127
1, 20972, Note_on_c, 1, 42, 127
1, 21124, Note_off_c, 1, 68, 0
1, 21127, Note_on_c, 1, 66, 127
1, 21279, Note_off_c, 1, 42, 0
1, 21279, Note_off_c, 1, 66, 0
1, 21282, Note_on_c, 1, 64, 127
1, 21434, Note_off_c, 1, 64, 0
1, 21592, Note_on_c, 1, 73, 127
1, 21744, Note_off_c, 1, 73, 0
1, 21747, Note_on_c, 1, 74, 127
1, 21899, Note_off_c, 1, 74, 0
1, 21902, Note_on_c, 1, 76, 127
1, 22054, Note_off_c, 1, 76, 0
1, 22057, Note_on_c, 1, 78, 127
1, 22209, Note_off_c, 1, 78, 0
1, 22519, Note_off_c, 1, 52, 0
1, 22522, Note_on_c, 1, 69, 127
1, 22522, Note_on_c, 1, 73, 127
1, 22678, Note_on_c, 1, 45, 127
1, 22834, Note_on_c, 1, 49, 127
1, 22986, Note_off_c, 1, 49, 0
1, 22989, Note_on_c, 1, 52, 127
1, 23141, Note_off_c, 1, 52, 0
1, 23144, Note_on_c, 1, 57, 127
1, 23296, Note_off_c, 1, 69, 0
1, 23296, Note_off_c, 1, 73, 0
1, 23299, Note_on_c, 1, 71, 127
1, 23451, Note_off_c, 1, 71, 0
1, 23454, Note_off_c, 1, 45, 0
1, 23609, Note_on_c, 1, 68, 127
1, 23761, Note_off_c, 1, 68, 0
1, 23764, Note_on_c, 1, 66, 127
1, 23916, Note_off_c, 1, 66, 0
1, 24024, Note_off_c, 1, 57, 0
1, 24074, Note_on_c, 1, 74, 127
1, 24074, Note_on_c, 1, 44, 127
1, 24226, Note_off_c, 1, 74, 0
1, 24229, Note_on_c, 1, 76, 127
1, 24381, Note_off_c, 1, 44, 0
1, 24381, Note_off_c, 1, 76, 0
1, 24384, Note_on_c, 1, 78, 127
1, 24384, Note_on_c, 1, 46, 127
1, 24384, Note_on_c, 1, 49, 127
1, 24536, Note_off_c, 1, 78, 0
1, 24539, Note_on_c, 1, 76, 127
1, 24691, Note_off_c, 1, 46, 0
1, 24691, Note_off_c, 1, 76, 0
1, 24694, Note_on_c, 1, 42, 127
1, 24849, Note_on_c, 1, 73, 127
1, 24998, Note_off_c, 1, 49, 0
1, 25001, Note_off_c, 1, 42, 0
1, 25001, Note_off_c, 1, 73, 0
1, 25004, Note_on_c, 1, 75, 127
1, 25004, Note_on_c, 1, 71, 127
1, 25160, Note_on_c, 1, 47, 127
1, 25316, Note_on_c, 1, 51, 127
1, 25468, Note_off_c, 1, 51, 0
1, 25471, Note_on_c, 1, 54, 127
1, 25623, Note_off_c, 1, 54, 0
1, 25626, Note_on_c, 1, 59, 127
1, 25778, Note_off_c, 1, 75, 0
1, 25778, Note_off_c, 1, 71, 0
1, 25781, Note_on_c, 1, 73, 127
1, 25933, Note_off_c, 1, 73, 0
1, 26091, Note_on_c, 1, 69, 127
1, 26243, Note_off_c, 1, 69, 0
1, 26246, Note_on_c, 1, 68, 127
1, 26398, Note_off_c, 1, 68, 0
1, 26550, Note_off_c, 1, 47, 0
1, 26553, Note_off_c, 1, 59, 0
1, 26556, Note_on_c, 1, 76, 127
1, 26556, Note_on_c, 1, 46, 127
1, 26708, Note_off_c, 1, 76, 0
1, 26711, Note_on_c, 1, 78, 127
1, 26863, Note_off_c, 1, 46, 0
1, 26863, Note_off_c, 1, 78, 0
1, 26866, Note_on_c, 1, 80, 127
1, 26866, Note_on_c, 1, 48, 127
1, 26866, Note_on_c, 1, 51, 127
1, 27018, Note_off_c, 1, 80, 0
1, 27021, Note_on_c, 1, 81, 127
1, 27173, Note_off_c, 1, 48, 0
1, 27173, Note_off_c, 1, 81, 0
1, 27176, Note_on_c, 1, 44, 127
1, 27331, Note_on_c, 1, 78, 127
1, 27480, Note_off_c, 1, 51, 0
1, 27483, Note_off_c, 1, 44, 0
1, 27483, Note_off_c, 1, 78, 0
1, 27486, Note_on_c, 1, 49, 127
1, 27486, Note_on_c, 1, 76, 127
1, 27642, Note_on_c, 1, 56, 127
1, 27794, Note_off_c, 1, 56, 0
1, 27797, Note_on_c, 1, 57, 127
1, 27949, Note_off_c, 1, 57, 0
1, 27952, Note_on_c, 1, 59, 127
1, 28101, Note_off_c, 1, 49, 0
1, 28104, Note_off_c, 1, 59, 0
1, 28107, Note_on_c, 1, 61, 127
1, 28259, Note_off_c, 1, 76, 0
1, 28417, Note_on_c, 1, 78, 127
1, 28417, Note_on_c, 1, 53, 127
1, 28569, Note_off_c, 1, 78, 0
1, 28572, Note_on_c, 1, 80, 127
1, 28724, Note_off_c, 1, 53, 0
1, 28724, Note_off_c, 1, 80, 0
1, 28727, Note_on_c, 1, 81, 127
1, 28727, Note_on_c, 1, 54, 127
1, 28879, Note_off_c, 1, 81, 0
1, 28882, Note_on_c, 1, 72, 127
1, 29034, Note_off_c, 1, 72, 0
1, 29037, Note_on_c, 1, 73, 127
1, 29189, Note_off_c, 1, 73, 0
1, 29341, Note_off_c, 1, 54, 0
1, 29659, Note_off_c, 1, 61, 0
1, 29659, Note_on_c, 1, 60, 127
1, 29815, Note_on_c, 1, 75, 127
1, 29891, Note_off_c, 1, 75, 0
1, 29967, Note_off_c, 1, 60, 0
1, 29971, Note_on_c, 1, 61, 127
1, 29971, Note_on_c, 1, 73, 127
1, 30127, Note_on_c, 1, 56, 127
1, 30279, Note_off_c, 1, 56, 0
1, 30282, Note_on_c, 1, 53, 127
1, 30587, Note_off_c, 1, 61, 0
1, 30593, Note_on_c, 1, 49, 127
1, 30745, Note_off_c, 1, 73, 0
1, 30897, Note_off_c, 1, 53, 0
1, 30900, Note_off_c, 1, 49, 0
1, 30903, Note_on_c, 1, 75, 127
1, 30903, Note_on_c, 1, 47, 127
1, 31055, Note_off_c, 1, 75, 0
1, 31058, Note_on_c, 1, 77, 127
1, 31210, Note_off_c, 1, 47, 0
1, 31210, Note_off_c, 1, 77, 0
1, 31213, Note_on_c, 1, 78, 127
1, 31213, Note_on_c, 1, 46, 127
1, 31213, Note_on_c, 1, 54, 127
1, 31213, Note_on_c, 1, 49, 127
1, 31365, Note_off_c, 1, 78, 0
1, 31368, Note_on_c, 1, 73, 127
1, 31520, Note_off_c, 1, 73, 0
1, 31523, Note_on_c, 1, 70, 127
1, 31675, Note_off_c, 1, 70, 0
1, 31833, Note_on_c, 1, 66, 127
1, 31985, Note_off_c, 1, 66, 0
1, 32140, Note_off_c, 1, 46, 0
1, 32140, Note_off_c, 1, 54, 0
1, 32140, Note_off_c, 1, 49, 0
1, 32143, Note_on_c, 1, 73, 127
1, 32143, Note_on_c, 1, 54, 127
1, 32295, Note_off_c, 1, 73, 0
1, 32298, Note_on_c, 1, 76, 127
1, 32450, Note_off_c, 1, 54, 0
1, 32450, Note_off_c, 1, 76, 0
1, 32453, Note_on_c, 1, 75, 127
1, 32453, Note_on_c, 1, 59, 127
1, 32609, Note_on_c, 1, 54, 127
1, 32761, Note_off_c, 1, 54, 0
1, 32764, Note_on_c, 1, 51, 127
1, 33069, Note_off_c, 1, 75, 0
1, 33075, Note_on_c, 1, 47, 127
1, 33231, Note_on_c, 1, 71, 127
1, 33380, Note_off_c, 1, 51, 0
1, 33383, Note_off_c, 1, 47, 0
1, 33383, Note_off_c, 1, 71, 0
1, 33385, Note_off_c, 1, 59, 0
1, 33387, Note_on_c, 1, 73, 127
1, 33387, Note_on_c, 1, 45, 127
1, 33387, Note_on_c, 1, 54, 127
1, 33539, Note_off_c, 1, 73, 0
1, 33542, Note_on_c, 1, 75, 127
1, 33694, Note_off_c, 1, 45, 0
1, 33694, Note_off_c, 1, 54, 0
1, 33694, Note_off_c, 1, 75, 0
1, 33697, Note_on_c, 1, 76, 127
1, 33697, Note_on_c, 1, 47, 127
1, 33697, Note_on_c, 1, 44, 127
1, 33697, Note_on_c, 1, 52, 127
1, 33849, Note_off_c, 1, 76, 0
1, 33852, Note_on_c, 1, 71, 127
1, 34004, Note_off_c, 1, 71, 0
1, 34007, Note_on_c, 1, 68, 127
1, 34159, Note_off_c, 1, 68, 0
1, 34317, Note_on_c, 1, 64, 127
1, 34469, Note_off_c, 1, 64, 0
1, 34624, Note_off_c, 1, 47, 0
1, 34624, Note_off_c, 1, 44, 0
1, 34624, Note_off_c, 1, 52, 0
1, 34627, Note_on_c, 1, 71, 127
1, 34627, Note_on_c, 1, 52, 127
1, 34779, Note_off_c, 1, 71, 0
1, 34782, Note_on_c, 1, 74, 127
1, 34934, Note_off_c, 1, 52, 0
1, 34934, Note_off_c, 1, 74, 0
1, 34937, Note_on_c, 1, 45, 127
1, 34937, Note_on_c, 1, 73, 127
1, 35093, Note_on_c, 1, 52, 127
1, 35245, Note_off_c, 1, 52, 0
1, 35552, Note_off_c, 1, 45, 0
1, 35552, Note_off_c, 1, 73, 0
1, 35558, Note_on_c, 1, 57, 127
1, 35710, Note_off_c, 1, 57, 0
1, 35713, Note_on_c, 1, 55, 127
1, 35713, Note_on_c, 1, 64, 127
1, 35865, Note_off_c, 1, 55, 0
1, 35865, Note_off_c, 1, 64, 0
1, 35868, Note_on_c, 1, 54, 127
1, 35868, Note_on_c, 1, 64, 127
1, 36020, Note_off_c, 1, 54, 0
1, 36020, Note_off_c, 1, 64, 0
1, 36023, Note_on_c, 1, 52, 127
1, 36023, Note_on_c, 1, 64, 127
1, 36175, Note_off_c, 1, 52, 0
1, 36175, Note_off_c, 1, 64, 0
1, 36178, Note_on_c, 1, 50, 127
1, 36178, Note_on_c, 1, 66, 127
1, 36330, Note_off_c, 1, 50, 0
1, 36333, Note_on_c, 1, 54, 127
1, 36333, Note_on_c, 1, 71, 127
1, 36438, Note_off_c, 1, 66, 0
1, 36485, Note_off_c, 1, 54, 0
1, 36485, Note_off_c, 1, 71, 0
1, 36488, Note_on_c, 1, 59, 127
1, 36488, Note_on_c, 1, 74, 127
1, 36640, Note_off_c, 1, 59, 0
1, 36640, Note_off_c, 1, 74, 0
1, 36643, Note_on_c, 1, 50, 127
1, 36643, Note_on_c, 1, 66, 127
1, 36795, Note_off_c, 1, 50, 0
1, 36795, Note_off_c, 1, 66, 0
1, 36798, Note_on_c, 1, 52, 127
1, 36798, Note_on_c, 1, 68, 127
1, 36950, Note_off_c, 1, 52, 0
1, 36953, Note_on_c, 1, 56, 127
1, 36953, Note_on_c, 1, 73, 127
1, 37098, Note_off_c, 1, 68, 0
1, 37105, Note_off_c, 1, 56, 0
1, 37105, Note_off_c, 1, 73, 0
1, 37108, Note_on_c, 1, 61, 127
1, 37108, Note_on_c, 1, 76, 127
1, 37260, Note_off_c, 1, 61, 0
1, 37260, Note_off_c, 1, 76, 0
1, 37263, Note_on_c, 1, 52, 127
1, 37263, Note_on_c, 1, 68, 127
1, 37415, Note_off_c, 1, 52, 0
1, 37415, Note_off_c, 1, 68, 0
1, 37418, Note_on_c, 1, 54, 127
1, 37418, Note_on_c, 1, 69, 127
1, 37570, Note_off_c, 1, 54, 0
1, 37573, Note_on_c, 1, 57, 127
1, 37573, Note_on_c, 1, 74, 127
1, 37725, Note_off_c, 1, 57, 0
1, 37725, Note_off_c, 1, 74, 0
1, 37728, Note_on_c, 1, 62, 127
1, 37728, Note_on_c, 1, 78, 127
1, 37748, Note_off_c, 1, 69, 0
1, 37880, Note_off_c, 1, 62, 0
1, 37880, Note_off_c, 1, 78, 0
1, 37883, Note_on_c, 1, 54, 127
1, 37883, Note_on_c, 1, 69, 127
1, 38035, Note_off_c, 1, 54, 0
1, 38035, Note_off_c, 1, 69, 0
1, 38038, Note_on_c, 1, 56, 127
1, 38038, Note_on_c, 1, 71, 127
1, 38190, Note_off_c, 1, 56, 0
1, 38193, Note_on_c, 1, 59, 127
1, 38193, Note_on_c, 1, 76, 127
1, 38345, Note_off_c, 1, 59, 0
1, 38345, Note_off_c, 1, 76, 0
1, 38348, Note_on_c, 1, 64, 127
1, 38348, Note_on_c, 1, 80, 127
1, 38398, Note_off_c, 1, 71, 0
1, 38500, Note_off_c, 1, 64, 0
1, 38500, Note_off_c, 1, 80, 0
1, 38503, Note_on_c, 1, 56, 127
1, 38503, Note_on_c, 1, 71, 127
1, 38655, Note_off_c, 1, 56, 0
1, 38655, Note_off_c, 1, 71, 0
1, 38658, Note_on_c, 1, 57, 127
1, 38658, Note_on_c, 1, 73, 127
1, 38810, Note_off_c, 1, 57, 0
1, 38813, Note_on_c, 1, 61, 127
1, 38813, Note_on_c, 1, 78, 127
1, 38965, Note_off_c, 1, 61, 0
1, 38965, Note_off_c, 1, 78, 0
1, 38968, Note_on_c, 1, 66, 127
1, 38968, Note_on_c, 1, 81, 127
1, 39058, Note_off_c, 1, 73, 0
1, 39120, Note_off_c, 1, 66, 0
1, 39120, Note_off_c, 1, 81, 0
1, 39123, Note_on_c, 1, 57, 127
1, 39123, Note_on_c, 1, 73, 127
1, 39275, Note_off_c, 1, 57, 0
1, 39275, Note_off_c, 1, 73, 0
1, 39278, Note_on_c, 1, 59, 127
1, 39278, Note_on_c, 1, 74, 127
1, 39430, Note_off_c, 1, 59, 0
1, 39433, Note_on_c, 1, 62, 127
1, 39433, Note_on_c, 1, 80, 127
1, 39585, Note_off_c, 1, 62, 0
1, 39585, Note_off_c, 1, 80, 0
1, 39588, Note_on_c, 1, 68, 127
1, 39588, Note_on_c, 1, 83, 127
1, 39738, Note_off_c, 1, 74, 0
1, 39740, Note_off_c, 1, 68, 0
1, 39740, Note_off_c, 1, 83, 0
1, 39743, Note_on_c, 1, 59, 127
1, 39743, Note_on_c, 1, 74, 127
1, 39895, Note_off_c, 1, 59, 0
1, 39895, Note_off_c, 1, 74, 0
1, 39898, Note_on_c, 1, 61, 127
1, 39898, Note_on_c, 1, 76, 127
1, 40050, Note_off_c, 1, 61, 0
1, 40053, Note_on_c, 1, 64, 127
1, 40205, Note_off_c, 1, 64, 0
1, 40208, Note_on_c, 1, 62, 127
1, 40328, Note_off_c, 1, 76, 0
1, 40360, Note_off_c, 1, 62, 0
1, 40363, Note_on_c, 1, 61, 127
1, 40363, Note_on_c, 1, 76, 127
1, 40515, Note_off_c, 1, 61, 0
1, 40515, Note_off_c, 1, 76, 0
1, 40518, Note_on_c, 1, 59, 127
1, 40518, Note_on_c, 1, 74, 127
1, 40670, Note_off_c, 1, 59, 0
1, 40670, Note_off_c, 1, 74, 0
1, 40673, Note_on_c, 1, 57, 127
1, 40673, Note_on_c, 1, 73, 127
1, 40825, Note_off_c, 1, 57, 0
1, 40825, Note_off_c, 1, 73, 0
1, 40828, Note_on_c, 1, 56, 127
1, 40828, Note_on_c, 1, 71, 127
1, 40980, Note_off_c, 1, 56, 0
1, 40980, Note_off_c, 1, 71, 0
1, 40983, Note_on_c, 1, 54, 127
1, 40983, Note_on_c, 1, 69, 127
1, 41135, Note_off_c, 1, 54, 0
1, 41135, Note_off_c, 1, 69, 0
1, 41138, Note_on_c, 1, 52, 127
1, 41138, Note_on_c, 1, 68, 127
1, 41294, Note_on_c, 1, 74, 127
1, 41446, Note_off_c, 1, 52, 0
1, 41446, Note_off_c, 1, 68, 0
1, 41446, Note_off_c, 1, 74, 0
1, 41449, Note_on_c, 1, 54, 127
1, 41449, Note_on_c, 1, 73, 127
1, 41449, Note_on_c, 1, 69, 127
1, 41601, Note_off_c, 1, 54, 0
1, 41601, Note_off_c, 1, 73, 0
1, 41604, Note_on_c, 1, 50, 127
1, 41604, Note_on_c, 1, 71, 127
1, 41756, Note_off_c, 1, 69, 0
1, 41756, Note_off_c, 1, 50, 0
1, 41756, Note_off_c, 1, 71, 0
1, 41759, Note_on_c, 1, 73, 127
1, 41759, Note_on_c, 1, 52, 127
1, 41759, Note_on_c, 1, 69, 127
1, 41913, Note_off_c, 1, 73, 0
1, 41915, Note_on_c, 1, 71, 127
1, 41973, Note_off_c, 1, 71, 0
1, 42066, Note_off_c, 1, 52, 0
1, 42069, Note_on_c, 1, 40, 127
1, 42211, Note_off_c, 1, 69, 0
1, 42376, Note_off_c, 1, 40, 0
1, 42379, Note_on_c, 1, 69, 127
1, 42535, Note_on_c, 1, 45, 127
1, 42691, Note_on_c, 1, 49, 127
1, 42847, Note_on_c, 1, 52, 127
1, 43003, Note_on_c, 1, 57, 127
1, 43155, Note_off_c, 1, 69, 0
1, 43158, Note_on_c, 1, 81, 127
1, 43310, Note_off_c, 1, 81, 0
1, 43313, Note_on_c, 1, 80, 127
1, 43465, Note_off_c, 1, 80, 0
1, 43468, Note_on_c, 1, 78, 127
1, 43620, Note_off_c, 1, 78, 0
1, 43623, Note_on_c, 1, 76, 127
1, 43775, Note_off_c, 1, 76, 0
1, 43778, Note_on_c, 1, 74, 127
1, 43930, Note_off_c, 1, 74, 0
1, 43933, Note_on_c, 1, 73, 127
1, 44085, Note_off_c, 1, 73, 0
1, 44088, Note_on_c, 1, 71, 127
1, 44240, Note_off_c, 1, 71, 0
1, 44565, Note_on_c, 1, 64, 127
1, 44865, Note_off_c, 1, 64, 0
1, 44928, Note_on_c, 1, 61, 127
1, 46172, Note_off_c, 1, 61, 0
1, 46253, Note_off_c, 1, 49, 0
1, 46259, Note_off_c, 1, 45, 0
1, 46259, Note_off_c, 1, 52, 0
1, 46264, Note_off_c, 1, 57, 0
1, 48123, Note_on_c, 1, 76, 127
1, 48123, Note_on_c, 1, 73, 127
1, 48123, Note_on_c, 1, 57, 127
1, 48176, Note_off_c, 1, 76, 0
1, 48180, Note_on_c, 1, 74, 127
1, 48233, Note_off_c, 1, 74, 0
1, 48795, Note_off_c, 1, 73, 0
1, 48803, Note_on_c, 1, 69, 127
1, 49296, Note_off_c, 1, 69, 0
1, 49311, Note_on_c, 1, 71, 127
1, 49394, Note_off_c, 1, 71, 0
1, 49477, Note_off_c, 1, 57, 0
1, 49481, Note_on_c, 1, 49, 127
1, 49481, Note_on_c, 1, 52, 127
1, 49481, Note_on_c, 1, 45, 127
1, 49537, Note_on_c, 1, 57, 127
1, 49593, Note_on_c, 1, 61, 127
1, 49649, Note_on_c, 1, 64, 127
1, 49705, Note_on_c, 1, 69, 127
1, 50473, Note_off_c, 1, 69, 0
1, 50475, Note_off_c, 1, 61, 0
1, 50479, Note_off_c, 1, 64, 0
1, 50490, Note_off_c, 1, 57, 0
1, 50495, Note_off_c, 1, 49, 0
1, 50495, Note_off_c, 1, 52, 0
1, 50495, Note_off_c, 1, 45, 0
1, 50666, Note_on_c, 1, 76, 127
1, 50832, Note_off_c, 1, 76, 0
1, 50836, Note_on_c, 1, 78, 127
1, 50836, Note_on_c, 1, 57, 127
1, 50836, Note_on_c, 1, 50, 127
1, 50945, Note_off_c, 1, 78, 0
1, 50949, Note_on_c, 1, 79, 127
1, 51058, Note_off_c, 1, 79, 0
1, 51175, Note_on_c, 1, 74, 127
1, 51330, Note_off_c, 1, 57, 0
1, 51330, Note_off_c, 1, 50, 0
1, 51341, Note_off_c, 1, 74, 0
1, 51345, Note_on_c, 1, 78, 127
1, 51511, Note_off_c, 1, 78, 0
1, 51515, Note_on_c, 1, 76, 127
1, 51515, Note_on_c, 1, 57, 127
1, 51515, Note_on_c, 1, 49, 127
1, 51681, Note_off_c, 1, 76, 0
1, 51685, Note_on_c, 1, 73, 127
1, 51851, Note_off_c, 1, 73, 0
1, 51855, Note_on_c, 1, 69, 127
1, 52010, Note_off_c, 1, 57, 0
1, 52010, Note_off_c, 1, 49, 0
1, 52021, Note_off_c, 1, 69, 0
1, 52025, Note_on_c, 1, 76, 127
1, 52191, Note_off_c, 1, 76, 0
1, 52195, Note_on_c, 1, 74, 127
1, 52195, Note_on_c, 1, 57, 127
1, 52195, Note_on_c, 1, 47, 127
1, 52304, Note_off_c, 1, 74, 0
1, 52308, Note_on_c, 1, 76, 127
1, 52417, Note_off_c, 1, 76, 0
1, 52530, Note_off_c, 1, 57, 0
1, 52534, Note_on_c, 1, 71, 127
1, 52534, Note_on_c, 1, 56, 127
1, 52689, Note_off_c, 1, 47, 0
1, 52700, Note_off_c, 1, 71, 0
1, 52870, Note_off_c, 1, 56, 0
1, 52874, Note_on_c, 1, 73, 127
1, 52874, Note_on_c, 1, 57, 127
1, 52874, Note_on_c, 1, 45, 127
1, 53040, Note_off_c, 1, 73, 0
1, 53044, Note_on_c, 1, 69, 127
1, 53210, Note_off_c, 1, 69, 0
1, 53214, Note_on_c, 1, 64, 127
1, 53369, Note_off_c, 1, 57, 0
1, 53369, Note_off_c, 1, 45, 0
1, 53380, Note_off_c, 1, 64, 0
1, 53384, Note_on_c, 1, 73, 127
1, 53550, Note_off_c, 1, 73, 0
1, 53554, Note_on_c, 1, 71, 127
1, 53554, Note_on_c, 1, 52, 127
1, 53554, Note_on_c, 1, 56, 127
1, 53720, Note_off_c, 1, 71, 0
1, 53724, Note_on_c, 1, 76, 127
1, 53890, Note_off_c, 1, 76, 0
1, 53894, Note_on_c, 1, 80, 127
1, 54003, Note_off_c, 1, 80, 0
1, 54007, Note_on_c, 1, 81, 127
1, 54049, Note_off_c, 1, 52, 0
1, 54049, Note_off_c, 1, 56, 0
1, 54116, Note_off_c, 1, 81, 0
1, 54120, Note_on_c, 1, 80, 127
1, 54229, Note_off_c, 1, 80, 0
1, 54233, Note_on_c, 1, 76, 127
1, 54399, Note_off_c, 1, 76, 0
1, 54403, Note_on_c, 1, 80, 127
1, 54569, Note_off_c, 1, 80, 0
1, 54573, Note_on_c, 1, 83, 127
1, 54573, Note_on_c, 1, 61, 127
1, 54573, Note_on_c, 1, 56, 127
1, 54573, Note_on_c, 1, 52, 127
1, 54739, Note_off_c, 1, 83, 0
1, 54743, Note_on_c, 1, 80, 127
1, 54909, Note_off_c, 1, 61, 0
1, 54909, Note_off_c, 1, 56, 0
1, 54909, Note_off_c, 1, 52, 0
1, 54909, Note_off_c, 1, 80, 0
1, 54913, Note_on_c, 1, 81, 127
1, 54913, Note_on_c, 1, 54, 127
1, 54913, Note_on_c, 1, 57, 127
1, 54913, Note_on_c, 1, 61, 127
1, 55079, Note_off_c, 1, 81, 0
1, 55083, Note_on_c, 1, 78, 127
1, 55249, Note_off_c, 1, 78, 0
1, 55366, Note_on_c, 1, 83, 127
1, 55408, Note_off_c, 1, 54, 0
1, 55408, Note_off_c, 1, 57, 0
1, 55408, Note_off_c, 1, 61, 0
1, 55475, Note_off_c, 1, 83, 0
1, 55479, Note_on_c, 1, 81, 127
1, 55588, Note_off_c, 1, 81, 0
1, 55592, Note_on_c, 1, 78, 127
1, 55758, Note_off_c, 1, 78, 0
1, 55762, Note_on_c, 1, 81, 127
1, 55928, Note_off_c, 1, 81, 0
1, 55932, Note_on_c, 1, 83, 127
1, 55932, Note_on_c, 1, 59, 127
1, 55932, Note_on_c, 1, 54, 127
1, 55932, Note_on_c, 1, 51, 127
1, 56098, Note_off_c, 1, 83, 0
1, 56102, Note_on_c, 1, 78, 127
1, 56268, Note_off_c, 1, 59, 0
1, 56268, Note_off_c, 1, 54, 0
1, 56268, Note_off_c, 1, 51, 0
1, 56268, Note_off_c, 1, 78, 0
1, 56272, Note_on_c, 1, 80, 127
1, 56272, Note_on_c, 1, 59, 127
1, 56272, Note_on_c, 1, 52, 127
1, 56438, Note_off_c, 1, 80, 0
1, 56442, Note_on_c, 1, 76, 127
1, 56608, Note_off_c, 1, 76, 0
1, 56612, Note_on_c, 1, 78, 127
1, 56767, Note_off_c, 1, 59, 0
1, 56767, Note_off_c, 1, 52, 0
1, 56778, Note_off_c, 1, 78, 0
1, 56782, Note_on_c, 1, 81, 127
1, 56863, Note_off_c, 1, 81, 0
1, 56867, Note_on_c, 1, 80, 127
1, 56948, Note_off_c, 1, 80, 0
1, 56952, Note_on_c, 1, 81, 127
1, 56952, Note_on_c, 1, 54, 127
1, 56952, Note_on_c, 1, 45, 127
1, 57118, Note_off_c, 1, 81, 0
1, 57122, Note_on_c, 1, 73, 127
1, 57288, Note_off_c, 1, 73, 0
1, 57292, Note_on_c, 1, 75, 127
1, 57363, Note_off_c, 1, 75, 0
1, 57448, Note_off_c, 1, 54, 0
1, 57448, Note_off_c, 1, 45, 0
1, 57504, Note_on_c, 1, 76, 127
1, 57610, Note_off_c, 1, 76, 0
1, 57631, Note_on_c, 1, 75, 127
1, 57631, Note_on_c, 1, 54, 127
1, 57631, Note_on_c, 1, 47, 127
1, 57797, Note_off_c, 1, 75, 0
1, 57801, Note_on_c, 1, 76, 127
1, 57967, Note_off_c, 1, 54, 0
1, 57967, Note_off_c, 1, 76, 0
1, 57971, Note_on_c, 1, 78, 127
1, 57971, Note_on_c, 1, 52, 127
1, 58024, Note_off_c, 1, 78, 0
1, 58309, Note_off_c, 1, 52, 0
1, 58313, Note_on_c, 1, 51, 127
1, 58426, Note_on_c, 1, 80, 127
1, 58535, Note_off_c, 1, 80, 0
1, 58648, Note_off_c, 1, 51, 0
1, 58650, Note_off_c, 1, 47, 0
1, 58652, Note_on_c, 1, 71, 127
1, 58652, Note_on_c, 1, 44, 127
1, 58652, Note_on_c, 1, 52, 127
1, 58818, Note_off_c, 1, 71, 0
1, 58822, Note_on_c, 1, 80, 127
1, 58988, Note_off_c, 1, 44, 0
1, 58988, Note_off_c, 1, 80, 0
1, 58992, Note_on_c, 1, 81, 127
1, 58992, Note_on_c, 1, 42, 127
1, 59101, Note_off_c, 1, 81, 0
1, 59105, Note_on_c, 1, 83, 127
1, 59214, Note_off_c, 1, 83, 0
1, 59324, Note_off_c, 1, 52, 0
1, 59328, Note_off_c, 1, 42, 0
1, 59332, Note_on_c, 1, 71, 127
1, 59332, Note_on_c, 1, 51, 127
1, 59332, Note_on_c, 1, 47, 127
1, 59498, Note_off_c, 1, 71, 0
1, 59502, Note_on_c, 1, 81, 127
1, 59668, Note_off_c, 1, 51, 0
1, 59668, Note_off_c, 1, 47, 0
1, 59668, Note_off_c, 1, 81, 0
1, 59672, Note_on_c, 1, 80, 127
1, 59672, Note_on_c, 1, 40, 127
1, 59672, Note_on_c, 1, 52, 127
1, 59781, Note_off_c, 1, 80, 0
1, 59785, Note_on_c, 1, 81, 127
1, 59894, Note_off_c, 1, 81, 0
1, 60007, Note_off_c, 1, 40, 0
1, 60007, Note_off_c, 1, 52, 0
1, 60011, Note_on_c, 1, 69, 127
1, 60011, Note_on_c, 1, 49, 127
1, 60177, Note_off_c, 1, 69, 0
1, 60181, Note_on_c, 1, 80, 127
1, 60347, Note_off_c, 1, 49, 0
1, 60347, Note_off_c, 1, 80, 0
1, 60351, Note_on_c, 1, 78, 127
1, 60351, Note_on_c, 1, 51, 127
1, 60460, Note_off_c, 1, 78, 0
1, 60464, Note_on_c, 1, 80, 127
1, 60573, Note_off_c, 1, 80, 0
1, 60686, Note_off_c, 1, 51, 0
1, 60690, Note_on_c, 1, 68, 127
1, 60690, Note_on_c, 1, 47, 127
1, 60856, Note_off_c, 1, 68, 0
1, 60860, Note_on_c, 1, 78, 127
1, 61026, Note_off_c, 1, 47, 0
1, 61026, Note_off_c, 1, 78, 0
1, 61030, Note_on_c, 1, 76, 127
1, 61030, Note_on_c, 1, 49, 127
1, 61139, Note_off_c, 1, 76, 0
1, 61143, Note_on_c, 1, 78, 127
1, 61252, Note_off_c, 1, 78, 0
1, 61365, Note_off_c, 1, 49, 0
1, 61369, Note_on_c, 1, 66, 127
1, 61369, Note_on_c, 1, 45, 127
1, 61535, Note_off_c, 1, 66, 0
1, 61539, Note_on_c, 1, 76, 127
1, 61705, Note_off_c, 1, 45, 0
1, 61705, Note_off_c, 1, 76, 0
1, 61709, Note_on_c, 1, 75, 127
1, 61709, Note_on_c, 1, 47, 127
1, 61875, Note_off_c, 1, 75, 0
1, 61879, Note_on_c, 1, 81, 127
1, 62045, Note_off_c, 1, 47, 0
1, 62045, Note_off_c, 1, 81, 0
1, 62049, Note_on_c, 1, 76, 127
1, 62049, Note_on_c, 1, 49, 127
1, 62215, Note_off_c, 1, 76, 0
1, 62219, Note_on_c, 1, 80, 127
1, 62385, Note_off_c, 1, 49, 0
1, 62385, Note_off_c, 1, 80, 0
1, 62389, Note_on_c, 1, 78, 127
1, 62389, Note_on_c, 1, 45, 127
1, 62498, Note_off_c, 1, 78, 0
1, 62502, Note_on_c, 1, 80, 127
1, 62611, Note_off_c, 1, 80, 0
1, 62724, Note_off_c, 1, 45, 0
1, 62728, Note_on_c, 1, 71, 127
1, 62728, Note_on_c, 1, 47, 127
1, 62894, Note_off_c, 1, 71, 0
1, 62898, Note_on_c, 1, 75, 127
1, 63064, Note_off_c, 1, 47, 0
1, 63064, Note_off_c, 1, 75, 0
1, 63068, Note_on_c, 1, 76, 127
1, 63068, Note_on_c, 1, 49, 127
1, 63121, Note_off_c, 1, 76, 0
1, 63125, Note_on_c, 1, 75, 127
1, 63178, Note_off_c, 1, 75, 0
1, 63238, Note_on_c, 1, 56, 127
1, 63404, Note_off_c, 1, 56, 0
1, 63408, Note_on_c, 1, 59, 127
1, 63573, Note_off_c, 1, 59, 0
1, 63743, Note_off_c, 1, 49, 0
1, 63747, Note_on_c, 1, 57, 127
1, 63856, Note_off_c, 1, 57, 0
1, 64086, Note_on_c, 1, 54, 127
1, 64086, Note_on_c, 1, 51, 127
1, 64255, Note_on_c, 1, 57, 127
1, 64421, Note_off_c, 1, 54, 0
1, 64421, Note_off_c, 1, 51, 0
1, 64421, Note_off_c, 1, 57, 0
1, 64425, Note_on_c, 1, 56, 127
1, 64425, Note_on_c, 1, 47, 127
1, 64534, Note_off_c, 1, 56, 0
1, 64538, Note_on_c, 1, 57, 127
1, 64647, Note_off_c, 1, 57, 0
1, 64760, Note_off_c, 1, 47, 0
1, 64764, Note_on_c, 1, 52, 127
1, 64764, Note_on_c, 1, 49, 127
1, 64933, Note_on_c, 1, 56, 127
1, 65099, Note_off_c, 1, 52, 0
1, 65099, Note_off_c, 1, 49, 0
1, 65099, Note_off_c, 1, 56, 0
1, 65103, Note_on_c, 1, 54, 127
1, 65103, Note_on_c, 1, 45, 127
1, 65269, Note_off_c, 1, 54, 0
1, 65273, Note_on_c, 1, 57, 127
1, 65439, Note_off_c, 1, 57, 0
1, 65443, Note_on_c, 1, 61, 127
1, 65609, Note_off_c, 1, 61, 0
1, 65779, Note_off_c, 1, 45, 0
1, 65783, Note_on_c, 1, 51, 127
1, 65783, Note_on_c, 1, 47, 127
1, 65953, Note_on_c, 1, 59, 127
1, 66119, Note_off_c, 1, 51, 0
1, 66119, Note_off_c, 1, 59, 0
1, 66123, Note_on_c, 1, 56, 127
1, 66123, Note_on_c, 1, 52, 127
1, 66232, Note_off_c, 1, 56, 0
1, 66797, Note_off_c, 1, 52, 0
1, 67139, Note_off_c, 1, 47, 0
1, 67141, Note_on_c, 1, 52, 127
1, 67141, Note_on_c, 1, 40, 127
1, 67310, Note_on_c, 1, 64, 127
1, 67476, Note_off_c, 1, 64, 0
1, 67480, Note_on_c, 1, 68, 127
1, 67589, Note_off_c, 1, 68, 0
1, 67593, Note_on_c, 1, 69, 127
1, 67702, Note_off_c, 1, 69, 0
1, 67706, Note_on_c, 1, 71, 127
1, 67815, Note_off_c, 1, 71, 0
1, 68159, Note_on_c, 1, 76, 127
1, 68325, Note_off_c, 1, 76, 0
1, 68495, Note_off_c, 1, 52, 0
1, 68495, Note_off_c, 1, 40, 0
1, 68499, Note_on_c, 1, 68, 127
1, 68499, Note_on_c, 1, 52, 127
1, 68499, Note_on_c, 1, 40, 127
1, 68665, Note_off_c, 1, 68, 0
1, 68669, Note_on_c, 1, 71, 127
1, 68835, Note_off_c, 1, 71, 0
1, 68839, Note_on_c, 1, 76, 127
1, 68948, Note_off_c, 1, 76, 0
1, 68952, Note_on_c, 1, 78, 127
1, 69061, Note_off_c, 1, 78, 0
1, 69065, Note_on_c, 1, 80, 127
1, 69174, Note_off_c, 1, 80, 0
1, 69854, Note_off_c, 1, 52, 0
1, 69854, Note_off_c, 1, 40, 0
1, 69858, Note_on_c, 1, 71, 127
1, 69858, Note_on_c, 1, 52, 127
1, 69858, Note_on_c, 1, 40, 127
1, 70024, Note_off_c, 1, 71, 0
1, 70028, Note_on_c, 1, 76, 127
1, 70194, Note_off_c, 1, 76, 0
1, 70198, Note_on_c, 1, 80, 127
1, 70307, Note_off_c, 1, 80, 0
1, 70311, Note_on_c, 1, 81, 127
1, 70420, Note_off_c, 1, 81, 0
1, 70424, Note_on_c, 1, 83, 127
1, 70533, Note_off_c, 1, 83, 0
1, 71213, Note_off_c, 1, 52, 0
1, 71213, Note_off_c, 1, 40, 0
1, 71217, Note_on_c, 1, 76, 127
1, 71217, Note_on_c, 1, 47, 127
1, 71217, Note_on_c, 1, 52, 127
1, 71217, Note_on_c, 1, 40, 127
1, 71217, Note_on_c, 1, 44, 127
1, 71270, Note_off_c, 1, 76, 0
1, 71274, Note_on_c, 1, 75, 127
1, 71327, Note_off_c, 1, 75, 0
1, 72570, Note_off_c, 1, 47, 0
1, 72570, Note_off_c, 1, 52, 0
1, 72570, Note_off_c, 1, 40, 0
1, 72570, Note_off_c, 1, 44, 0
1, 72574, Note_on_c, 1, 81, 127
1, 72574, Note_on_c, 1, 76, 127
1, 72574, Note_on_c, 1, 52, 127
1, 72645, Note_on_c, 1, 80, 127
1, 72656, Note_off_c, 1, 81, 0
1, 72727, Note_off_c, 1, 80, 0
1, 73246, Note_off_c, 1, 76, 0
1, 73253, Note_on_c, 1, 71, 127
1, 73310, Note_on_c, 1, 75, 127
1, 73363, Note_off_c, 1, 75, 0
1, 73748, Note_off_c, 1, 71, 0
1, 73929, Note_off_c, 1, 52, 0
1, 73933, Note_on_c, 1, 47, 127
1, 73933, Note_on_c, 1, 40, 127
1, 73933, Note_on_c, 1, 44, 127
1, 73933, Note_on_c, 1, 68, 127
1, 73933, Note_on_c, 1, 71, 127
1, 73933, Note_on_c, 1, 52, 127
1, 74948, Note_off_c, 1, 47, 0
1, 74948, Note_off_c, 1, 40, 0
1, 74948, Note_off_c, 1, 44, 0
1, 75116, Note_off_c, 1, 68, 0
1, 75116, Note_off_c, 1, 71, 0
1, 75286, Note_off_c, 1, 52, 0
1, 75290, Note_on_c, 1, 71, 127
1, 75290, Note_on_c, 1, 52, 127
1, 75290, Note_on_c, 1, 44, 127
1, 75399, Note_off_c, 1, 71, 0
1, 75403, Note_on_c, 1, 73, 127
1, 75512, Note_off_c, 1, 73, 0
1, 75629, Note_on_c, 1, 64, 127
1, 75784, Note_off_c, 1, 52, 0
1, 75784, Note_off_c, 1, 44, 0
1, 75795, Note_off_c, 1, 64, 0
1, 75799, Note_on_c, 1, 71, 127
1, 75965, Note_off_c, 1, 71, 0
1, 75969, Note_on_c, 1, 71, 127
1, 76138, Note_on_c, 1, 52, 127
1, 76304, Note_off_c, 1, 52, 0
1, 76308, Note_on_c, 1, 56, 127
1, 76474, Note_off_c, 1, 71, 0
1, 76474, Note_off_c, 1, 56, 0
1, 76478, Note_on_c, 1, 71, 127
1, 76478, Note_on_c, 1, 52, 127
1, 76644, Note_off_c, 1, 71, 0
1, 76644, Note_off_c, 1, 52, 0
1, 76648, Note_on_c, 1, 73, 127
1, 76648, Note_on_c, 1, 57, 127
1, 76757, Note_off_c, 1, 73, 0
1, 76761, Note_on_c, 1, 74, 127
1, 76870, Note_off_c, 1, 74, 0
1, 76987, Note_on_c, 1, 69, 127
1, 76987, Note_on_c, 1, 45, 127
1, 77153, Note_off_c, 1, 69, 0
1, 77319, Note_off_c, 1, 57, 0
1, 77327, Note_on_c, 1, 76, 127
1, 77493, Note_off_c, 1, 76, 0
1, 77659, Note_off_c, 1, 45, 0
1, 77667, Note_on_c, 1, 69, 127
1, 77833, Note_off_c, 1, 69, 0
1, 77837, Note_on_c, 1, 73, 127
1, 78003, Note_off_c, 1, 73, 0
1, 78007, Note_on_c, 1, 73, 127
1, 78007, Note_on_c, 1, 46, 127
1, 78007, Note_on_c, 1, 54, 127
1, 78116, Note_off_c, 1, 73, 0
1, 78120, Note_on_c, 1, 75, 127
1, 78229, Note_off_c, 1, 75, 0
1, 78346, Note_on_c, 1, 66, 127
1, 78501, Note_off_c, 1, 46, 0
1, 78501, Note_off_c, 1, 54, 0
1, 78512, Note_off_c, 1, 66, 0
1, 78516, Note_on_c, 1, 73, 127
1, 78682, Note_off_c, 1, 73, 0
1, 78686, Note_on_c, 1, 73, 127
1, 78855, Note_on_c, 1, 54, 127
1, 79021, Note_off_c, 1, 54, 0
1, 79025, Note_on_c, 1, 58, 127
1, 79191, Note_off_c, 1, 73, 0
1, 79191, Note_off_c, 1, 58, 0
1, 79195, Note_on_c, 1, 73, 127
1, 79195, Note_on_c, 1, 54, 127
1, 79361, Note_off_c, 1, 73, 0
1, 79361, Note_off_c, 1, 54, 0
1, 79365, Note_on_c, 1, 75, 127
1, 79365, Note_on_c, 1, 59, 127
1, 79474, Note_off_c, 1, 75, 0
1, 79478, Note_on_c, 1, 76, 127
1, 79587, Note_off_c, 1, 76, 0
1, 79704, Note_on_c, 1, 71, 127
1, 79704, Note_on_c, 1, 47, 127
1, 79870, Note_off_c, 1, 71, 0
1, 80040, Note_off_c, 1, 59, 0
1, 80044, Note_on_c, 1, 78, 127
1, 80210, Note_off_c, 1, 78, 0
1, 80380, Note_off_c, 1, 47, 0
1, 80384, Note_on_c, 1, 71, 127
1, 80550, Note_off_c, 1, 71, 0
1, 80554, Note_on_c, 1, 75, 127
1, 80720, Note_off_c, 1, 75, 0
1, 80724, Note_on_c, 1, 78, 127
1, 80724, Note_on_c, 1, 56, 127
1, 80833, Note_off_c, 1, 78, 0
1, 80837, Note_on_c, 1, 80, 127
1, 80946, Note_off_c, 1, 80, 0
1, 81063, Note_on_c, 1, 75, 127
1, 81218, Note_off_c, 1, 56, 0
1, 81229, Note_off_c, 1, 75, 0
1, 81233, Note_on_c, 1, 78, 127
1, 81399, Note_off_c, 1, 78, 0
1, 81403, Note_on_c, 1, 71, 127
1, 81569, Note_off_c, 1, 71, 0
1, 81573, Note_on_c, 1, 77, 127
1, 81739, Note_off_c, 1, 77, 0
1, 81743, Note_on_c, 1, 78, 127
1, 81743, Note_on_c, 1, 56, 127
1, 81743, Note_on_c, 1, 47, 127
1, 81909, Note_off_c, 1, 78, 0
1, 81913, Note_on_c, 1, 80, 127
1, 82079, Note_off_c, 1, 56, 0
1, 82079, Note_off_c, 1, 47, 0
1, 82079, Note_off_c, 1, 80, 0
1, 82083, Note_on_c, 1, 77, 127
1, 82083, Note_on_c, 1, 56, 127
1, 82083, Note_on_c, 1, 49, 127
1, 82192, Note_off_c, 1, 77, 0
1, 82196, Note_on_c, 1, 78, 127
1, 82305, Note_off_c, 1, 78, 0
1, 82309, Note_on_c, 1, 80, 127
1, 82418, Note_off_c, 1, 80, 0
1, 82422, Note_on_c, 1, 73, 127
1, 82577, Note_off_c, 1, 56, 0
1, 82577, Note_off_c, 1, 49, 0
1, 82588, Note_off_c, 1, 73, 0
1, 82592, Note_on_c, 1, 80, 127
1, 82758, Note_off_c, 1, 80, 0
1, 82762, Note_on_c, 1, 80, 127
1, 82931, Note_on_c, 1, 49, 127
1, 83097, Note_off_c, 1, 49, 0
1, 83101, Note_on_c, 1, 53, 127
1, 83267, Note_off_c, 1, 80, 0
1, 83267, Note_off_c, 1, 53, 0
1, 83271, Note_on_c, 1, 80, 127
1, 83271, Note_on_c, 1, 49, 127
1, 83437, Note_off_c, 1, 80, 0
1, 83437, Note_off_c, 1, 49, 0
1, 83441, Note_on_c, 1, 81, 127
1, 83441, Note_on_c, 1, 54, 127
1, 83550, Note_off_c, 1, 81, 0
1, 83554, Note_on_c, 1, 83, 127
1, 83663, Note_off_c, 1, 83, 0
1, 83780, Note_on_c, 1, 80, 127
1, 83780, Note_on_c, 1, 49, 127
1, 83946, Note_off_c, 1, 80, 0
1, 83950, Note_on_c, 1, 78, 127
1, 84112, Note_off_c, 1, 54, 0
1, 84116, Note_off_c, 1, 49, 0
1, 84116, Note_off_c, 1, 78, 0
1, 84120, Note_on_c, 1, 80, 127
1, 84120, Note_on_c, 1, 59, 127
1, 84229, Note_off_c, 1, 80, 0
1, 84233, Note_on_c, 1, 81, 127
1, 84342, Note_off_c, 1, 81, 0
1, 84459, Note_on_c, 1, 78, 127
1, 84459, Note_on_c, 1, 49, 127
1, 84625, Note_off_c, 1, 78, 0
1, 84629, Note_on_c, 1, 77, 127
1, 84791, Note_off_c, 1, 59, 0
1, 84795, Note_off_c, 1, 49, 0
1, 84795, Note_off_c, 1, 77, 0
1, 84799, Note_on_c, 1, 78, 127
1, 84799, Note_on_c, 1, 57, 127
1, 84908, Note_off_c, 1, 78, 0
1, 84912, Note_on_c, 1, 80, 127
1, 84968, Note_on_c, 1, 49, 127
1, 85021, Note_off_c, 1, 80, 0
1, 85025, Note_on_c, 1, 81, 127
1, 85134, Note_off_c, 1, 57, 0
1, 85134, Note_off_c, 1, 49, 0
1, 85134, Note_off_c, 1, 81, 0
1, 85138, Note_on_c, 1, 73, 127
1, 85138, Note_on_c, 1, 56, 127
1, 85247, Note_off_c, 1, 73, 0
1, 85251, Note_on_c, 1, 75, 127
1, 85307, Note_on_c, 1, 49, 127
1, 85360, Note_off_c, 1, 75, 0
1, 85364, Note_on_c, 1, 77, 127
1, 85473, Note_off_c, 1, 56, 0
1, 85473, Note_off_c, 1, 77, 0
1, 85475, Note_off_c, 1, 49, 0
1, 85477, Note_on_c, 1, 78, 127
1, 85477, Note_on_c, 1, 54, 127
1, 85646, Note_on_c, 1, 49, 127
1, 85812, Note_off_c, 1, 49, 0
1, 85816, Note_on_c, 1, 42, 127
1, 85982, Note_off_c, 1, 78, 0
1, 86095, Note_off_c, 1, 42, 0
1, 86148, Note_off_c, 1, 54, 0
1, 86172, Note_on_c, 1, 79, 127
1, 86172, Note_on_c, 1, 47, 127
1, 86172, Note_on_c, 1, 55, 127
1, 86172, Note_on_c, 1, 50, 127
1, 86281, Note_off_c, 1, 79, 0
1, 86285, Note_on_c, 1, 81, 127
1, 86394, Note_off_c, 1, 81, 0
1, 86511, Note_on_c, 1, 74, 127
1, 86666, Note_off_c, 1, 47, 0
1, 86666, Note_off_c, 1, 55, 0
1, 86666, Note_off_c, 1, 50, 0
1, 86677, Note_off_c, 1, 74, 0
1, 86681, Note_on_c, 1, 79, 127
1, 86847, Note_off_c, 1, 79, 0
1, 86851, Note_on_c, 1, 83, 127
1, 87017, Note_off_c, 1, 83, 0
1, 87021, Note_on_c, 1, 79, 127
1, 87187, Note_off_c, 1, 79, 0
1, 87191, Note_on_c, 1, 74, 127
1, 87191, Note_on_c, 1, 47, 127
1, 87191, Note_on_c, 1, 50, 127
1, 87191, Note_on_c, 1, 55, 127
1, 87357, Note_off_c, 1, 74, 0
1, 87361, Note_on_c, 1, 83, 127
1, 87527, Note_off_c, 1, 47, 0
1, 87527, Note_off_c, 1, 50, 0
1, 87527, Note_off_c, 1, 55, 0
1, 87527, Note_off_c, 1, 83, 0
1, 87531, Note_on_c, 1, 81, 127
1, 87531, Note_on_c, 1, 52, 127
1, 87531, Note_on_c, 1, 49, 127
1, 87640, Note_off_c, 1, 81, 0
1, 87644, Note_on_c, 1, 83, 127
1, 87753, Note_off_c, 1, 83, 0
1, 87866, Note_off_c, 1, 52, 0
1, 87870, Note_on_c, 1, 76, 127
1, 87870, Note_on_c, 1, 57, 127
1, 88036, Note_off_c, 1, 76, 0
1, 88202, Note_off_c, 1, 49, 0
1, 88210, Note_on_c, 1, 78, 127
1, 88210, Note_on_c, 1, 50, 127
1, 88376, Note_off_c, 1, 78, 0
1, 88380, Note_on_c, 1, 74, 127
1, 88542, Note_off_c, 1, 57, 0
1, 88546, Note_off_c, 1, 74, 0
1, 88550, Note_on_c, 1, 69, 127
1, 88550, Note_on_c, 1, 54, 127
1, 88716, Note_off_c, 1, 69, 0
1, 88882, Note_off_c, 1, 50, 0
1, 88886, Note_off_c, 1, 54, 0
1, 88890, Note_on_c, 1, 78, 127
1, 88890, Note_on_c, 1, 50, 127
1, 88890, Note_on_c, 1, 54, 127
1, 88890, Note_on_c, 1, 47, 127
1, 88999, Note_off_c, 1, 78, 0
1, 89003, Note_on_c, 1, 79, 127
1, 89112, Note_off_c, 1, 79, 0
1, 89229, Note_on_c, 1, 74, 127
1, 89384, Note_off_c, 1, 50, 0
1, 89384, Note_off_c, 1, 54, 0
1, 89384, Note_off_c, 1, 47, 0
1, 89395, Note_off_c, 1, 74, 0
1, 89399, Note_on_c, 1, 78, 127
1, 89565, Note_off_c, 1, 78, 0
1, 89569, Note_on_c, 1, 78, 127
1, 89738, Note_on_c, 1, 47, 127
1, 89904, Note_off_c, 1, 47, 0
1, 89908, Note_on_c, 1, 50, 127
1, 90074, Note_off_c, 1, 78, 0
1, 90074, Note_off_c, 1, 50, 0
1, 90078, Note_on_c, 1, 47, 127
1, 90078, Note_on_c, 1, 78, 127
1, 90244, Note_off_c, 1, 47, 0
1, 90244, Note_off_c, 1, 78, 0
1, 90248, Note_on_c, 1, 76, 127
1, 90248, Note_on_c, 1, 44, 127
1, 90357, Note_off_c, 1, 76, 0
1, 90361, Note_on_c, 1, 78, 127
1, 90417, Note_on_c, 1, 47, 127
1, 90470, Note_off_c, 1, 78, 0
1, 90583, Note_off_c, 1, 47, 0
1, 90587, Note_on_c, 1, 74, 127
1, 90587, Note_on_c, 1, 52, 127
1, 90696, Note_off_c, 1, 74, 0
1, 90919, Note_off_c, 1, 44, 0
1, 90927, Note_on_c, 1, 73, 127
1, 90927, Note_on_c, 1, 45, 127
1, 91093, Note_off_c, 1, 73, 0
1, 91259, Note_off_c, 1, 52, 0
1, 91263, Note_off_c, 1, 45, 0
1, 91267, Note_on_c, 1, 69, 127
1, 91267, Note_on_c, 1, 49, 127
1, 91433, Note_off_c, 1, 69, 0
1, 91437, Note_on_c, 1, 52, 127
1, 91437, Note_on_c, 1, 73, 127
1, 91603, Note_off_c, 1, 49, 0
1, 91603, Note_off_c, 1, 52, 0
1, 91603, Note_off_c, 1, 73, 0
1, 91607, Note_on_c, 1, 73, 127
1, 91607, Note_on_c, 1, 45, 127
1, 91607, Note_on_c, 1, 57, 127
1, 91716, Note_off_c, 1, 73, 0
1, 91720, Note_on_c, 1, 74, 127
1, 91829, Note_off_c, 1, 74, 0
1, 91942, Note_off_c, 1, 45, 0
1, 91946, Note_on_c, 1, 76, 127
1, 91946, Note_on_c, 1, 47, 127
1, 92055, Note_off_c, 1, 76, 0
1, 92059, Note_on_c, 1, 78, 127
1, 92168, Note_off_c, 1, 78, 0
1, 92281, Note_off_c, 1, 47, 0
1, 92285, Note_on_c, 1, 69, 127
1, 92285, Note_on_c, 1, 49, 127
1, 92451, Note_off_c, 1, 69, 0
1, 92455, Note_on_c, 1, 64, 127
1, 92621, Note_off_c, 1, 64, 0
1, 92623, Note_off_c, 1, 57, 0
1, 92625, Note_on_c, 1, 52, 127
1, 92738, Note_on_c, 1, 71, 127
1, 92847, Note_off_c, 1, 71, 0
1, 92957, Note_off_c, 1, 49, 0
1, 92961, Note_off_c, 1, 52, 0
1, 92965, Note_on_c, 1, 71, 127
1, 92965, Note_on_c, 1, 50, 127
1, 92965, Note_on_c, 1, 54, 127
1, 93074, Note_off_c, 1, 71, 0
1, 93078, Note_on_c, 1, 73, 127
1, 93187, Note_off_c, 1, 73, 0
1, 93300, Note_off_c, 1, 50, 0
1, 93304, Note_on_c, 1, 66, 127
1, 93304, Note_on_c, 1, 51, 127
1, 93470, Note_off_c, 1, 66, 0
1, 93474, Note_on_c, 1, 69, 127
1, 93636, Note_off_c, 1, 54, 0
1, 93640, Note_off_c, 1, 51, 0
1, 93640, Note_off_c, 1, 69, 0
1, 93644, Note_on_c, 1, 68, 127
1, 93644, Note_on_c, 1, 52, 127
1, 93753, Note_off_c, 1, 68, 0
1, 93757, Note_on_c, 1, 69, 127
1, 93866, Note_off_c, 1, 69, 0
1, 93870, Note_on_c, 1, 71, 127
1, 93979, Note_off_c, 1, 52, 0
1, 93979, Note_off_c, 1, 71, 0
1, 93983, Note_on_c, 1, 40, 127
1, 93983, Note_on_c, 1, 64, 127
1, 94149, Note_off_c, 1, 40, 0
1, 94149, Note_off_c, 1, 64, 0
1, 94162, Note_on_c, 1, 64, 127
1, 94162, Note_on_c, 1, 52, 127
1, 94328, Note_off_c, 1, 64, 0
1, 94328, Note_off_c, 1, 52, 0
1, 94355, Note_on_c, 1, 49, 127
1, 94355, Note_on_c, 1, 69, 127
1, 94464, Note_off_c, 1, 49, 0
1, 94468, Note_on_c, 1, 50, 127
1, 94577, Note_off_c, 1, 50, 0
1, 94581, Note_on_c, 1, 52, 127
1, 94690, Note_off_c, 1, 52, 0
1, 94694, Note_on_c, 1, 45, 127
1, 94860, Note_off_c, 1, 69, 0
1, 94860, Note_off_c, 1, 45, 0
1, 94864, Note_on_c, 1, 52, 127
1, 94864, Note_on_c, 1, 69, 127
1, 95030, Note_off_c, 1, 52, 0
1, 95030, Note_off_c, 1, 69, 0
1, 95034, Note_on_c, 1, 50, 127
1, 95034, Note_on_c, 1, 69, 127
1, 95143, Note_off_c, 1, 50, 0
1, 95147, Note_on_c, 1, 52, 127
1, 95256, Note_off_c, 1, 52, 0
1, 95260, Note_on_c, 1, 54, 127
1, 95369, Note_off_c, 1, 54, 0
1, 95373, Note_on_c, 1, 45, 127
1, 95539, Note_off_c, 1, 69, 0
1, 95539, Note_off_c, 1, 45, 0
1, 95543, Note_on_c, 1, 50, 127
1, 95543, Note_on_c, 1, 69, 127
1, 95709, Note_off_c, 1, 50, 0
1, 95709, Note_off_c, 1, 69, 0
1, 95713, Note_on_c, 1, 73, 127
1, 95713, Note_on_c, 1, 52, 127
1, 95713, Note_on_c, 1, 49, 127
1, 95713, Note_on_c, 1, 57, 127
1, 95822, Note_off_c, 1, 73, 0
1, 95826, Note_on_c, 1, 74, 127
1, 95935, Note_off_c, 1, 74, 0
1, 95939, Note_on_c, 1, 76, 127
1, 96048, Note_off_c, 1, 76, 0
1, 96165, Note_on_c, 1, 78, 127
1, 96207, Note_off_c, 1, 52, 0
1, 96207, Note_off_c, 1, 49, 0
1, 96207, Note_off_c, 1, 57, 0
1, 96274, Note_off_c, 1, 78, 0
1, 96278, Note_on_c, 1, 80, 127
1, 96387, Note_off_c, 1, 80, 0
1, 96391, Note_on_c, 1, 81, 127
1, 96500, Note_off_c, 1, 81, 0
1, 96504, Note_on_c, 1, 83, 127
1, 96613, Note_off_c, 1, 83, 0
1, 96617, Note_on_c, 1, 81, 127
1, 96726, Note_off_c, 1, 81, 0
1, 96730, Note_on_c, 1, 69, 127
1, 96730, Note_on_c, 1, 52, 127
1, 96730, Note_on_c, 1, 49, 127
1, 96730, Note_on_c, 1, 57, 127
1, 96896, Note_off_c, 1, 69, 0
1, 96900, Note_on_c, 1, 81, 127
1, 97066, Note_off_c, 1, 52, 0
1, 97066, Note_off_c, 1, 49, 0
1, 97066, Note_off_c, 1, 57, 0
1, 97066, Note_off_c, 1, 81, 0
1, 97070, Note_on_c, 1, 81, 127
1, 97070, Note_on_c, 1, 54, 127
1, 97070, Note_on_c, 1, 50, 127
1, 97070, Note_on_c, 1, 57, 127
1, 97179, Note_off_c, 1, 81, 0
1, 97183, Note_on_c, 1, 83, 127
1, 97292, Note_off_c, 1, 83, 0
1, 97409, Note_on_c, 1, 78, 127
1, 97518, Note_off_c, 1, 78, 0
1, 97522, Note_on_c, 1, 80, 127
1, 97564, Note_off_c, 1, 54, 0
1, 97564, Note_off_c, 1, 50, 0
1, 97564, Note_off_c, 1, 57, 0
1, 97631, Note_off_c, 1, 80, 0
1, 97635, Note_on_c, 1, 78, 127
1, 97744, Note_off_c, 1, 78, 0
1, 97748, Note_on_c, 1, 74, 127
1, 97857, Note_off_c, 1, 74, 0
1, 97861, Note_on_c, 1, 76, 127
1, 97970, Note_off_c, 1, 76, 0
1, 97974, Note_on_c, 1, 74, 127
1, 98083, Note_off_c, 1, 74, 0
1, 98087, Note_on_c, 1, 69, 127
1, 98087, Note_on_c, 1, 50, 127
1, 98087, Note_on_c, 1, 54, 127
1, 98087, Note_on_c, 1, 57, 127
1, 98253, Note_off_c, 1, 69, 0
1, 98257, Note_on_c, 1, 81, 127
1, 98423, Note_off_c, 1, 50, 0
1, 98423, Note_off_c, 1, 54, 0
1, 98423, Note_off_c, 1, 57, 0
1, 98423, Note_off_c, 1, 81, 0
1, 98427, Note_on_c, 1, 78, 127
1, 98427, Note_on_c, 1, 51, 127
1, 98427, Note_on_c, 1, 54, 127
1, 98427, Note_on_c, 1, 59, 127
1, 98536, Note_off_c, 1, 78, 0
1, 98540, Note_on_c, 1, 80, 127
1, 98649, Note_off_c, 1, 80, 0
1, 98653, Note_on_c, 1, 81, 127
1, 98762, Note_off_c, 1, 81, 0
1, 98766, Note_on_c, 1, 71, 127
1, 98921, Note_off_c, 1, 51, 0
1, 98921, Note_off_c, 1, 54, 0
1, 98921, Note_off_c, 1, 59, 0
1, 98932, Note_off_c, 1, 71, 0
1, 98936, Note_on_c, 1, 81, 127
1, 99102, Note_off_c, 1, 81, 0
1, 99106, Note_on_c, 1, 80, 127
1, 99106, Note_on_c, 1, 52, 127
1, 99106, Note_on_c, 1, 59, 127
1, 99328, Note_off_c, 1, 80, 0
1, 99332, Note_on_c, 1, 78, 127
1, 99441, Note_off_c, 1, 78, 0
1, 99445, Note_on_c, 1, 76, 127
1, 99656, Note_off_c, 1, 52, 0
1, 99656, Note_off_c, 1, 59, 0
1, 99798, Note_off_c, 1, 76, 0
1, 99816, Note_on_c, 1, 76, 127
1, 99816, Note_on_c, 1, 57, 127
1, 99816, Note_on_c, 1, 61, 127
1, 99873, Note_on_c, 1, 74, 127
1, 99879, Note_off_c, 1, 76, 0
1, 99926, Note_off_c, 1, 74, 0
1, 100152, Note_off_c, 1, 57, 0
1, 100152, Note_off_c, 1, 61, 0
1, 100156, Note_on_c, 1, 76, 127
1, 100156, Note_on_c, 1, 59, 127
1, 100156, Note_on_c, 1, 56, 127
1, 100265, Note_off_c, 1, 76, 0
1, 100269, Note_on_c, 1, 78, 127
1, 100378, Note_off_c, 1, 78, 0
1, 100491, Note_off_c, 1, 59, 0
1, 100491, Note_off_c, 1, 56, 0
1, 100495, Note_on_c, 1, 73, 127
1, 100495, Note_on_c, 1, 57, 127
1, 100717, Note_off_c, 1, 73, 0
1, 100721, Note_on_c, 1, 71, 127
1, 100830, Note_off_c, 1, 57, 0
1, 100830, Note_off_c, 1, 71, 0
1, 100834, Note_on_c, 1, 54, 127
1, 100834, Note_on_c, 1, 69, 127
1, 101000, Note_off_c, 1, 54, 0
1, 101000, Note_off_c, 1, 69, 0
1, 101004, Note_on_c, 1, 51, 127
1, 101004, Note_on_c, 1, 71, 127
1, 101170, Note_off_c, 1, 51, 0
1, 101170, Note_off_c, 1, 71, 0
1, 101174, Note_on_c, 1, 68, 127
1, 101174, Note_on_c, 1, 52, 127
1, 101283, Note_off_c, 1, 68, 0
1, 101287, Note_on_c, 1, 69, 127
1, 101396, Note_off_c, 1, 69, 0
1, 101400, Note_on_c, 1, 71, 127
1, 101509, Note_off_c, 1, 52, 0
1, 101509, Note_off_c, 1, 71, 0
1, 101513, Note_on_c, 1, 64, 127
1, 101513, Note_on_c, 1, 40, 127
1, 101622, Note_off_c, 1, 64, 0
1, 101626, Note_on_c, 1, 66, 127
1, 101735, Note_off_c, 1, 66, 0
1, 101739, Note_on_c, 1, 68, 127
1, 101848, Note_off_c, 1, 40, 0
1, 101848, Note_off_c, 1, 68, 0
1, 101870, Note_on_c, 1, 69, 127
1, 102037, Note_on_c, 1, 45, 127
1, 102203, Note_off_c, 1, 45, 0
1, 102207, Note_on_c, 1, 49, 127
1, 102373, Note_off_c, 1, 49, 0
1, 102377, Note_on_c, 1, 52, 127
1, 102543, Note_off_c, 1, 52, 0
1, 102545, Note_off_c, 1, 69, 0
1, 102563, Note_on_c, 1, 57, 127
1, 102563, Note_on_c, 1, 76, 127
1, 102729, Note_off_c, 1, 57, 0
1, 102733, Note_on_c, 1, 45, 127
1, 102899, Note_off_c, 1, 45, 0
1, 102903, Note_on_c, 1, 44, 127
1, 103069, Note_off_c, 1, 76, 0
1, 103069, Note_off_c, 1, 44, 0
1, 103073, Note_on_c, 1, 56, 127
1, 103073, Note_on_c, 1, 76, 127
1, 103239, Note_off_c, 1, 56, 0
1, 103239, Note_off_c, 1, 76, 0
1, 103243, Note_on_c, 1, 57, 127
1, 103243, Note_on_c, 1, 76, 127
1, 103409, Note_off_c, 1, 57, 0
1, 103413, Note_on_c, 1, 45, 127
1, 103579, Note_off_c, 1, 45, 0
1, 103583, Note_on_c, 1, 44, 127
1, 103749, Note_off_c, 1, 76, 0
1, 103749, Note_off_c, 1, 44, 0
1, 103753, Note_on_c, 1, 56, 127
1, 103753, Note_on_c, 1, 76, 127
1, 103919, Note_off_c, 1, 56, 0
1, 103919, Note_off_c, 1, 76, 0
1, 103923, Note_on_c, 1, 57, 127
1, 103923, Note_on_c, 1, 76, 127
1, 104089, Note_off_c, 1, 57, 0
1, 104093, Note_on_c, 1, 45, 127
1, 104259, Note_off_c, 1, 45, 0
1, 104263, Note_on_c, 1, 44, 127
1, 104263, Note_on_c, 1, 64, 127
1, 104373, Note_off_c, 1, 76, 0
1, 104429, Note_off_c, 1, 44, 0
1, 104429, Note_off_c, 1, 64, 0
1, 104433, Note_on_c, 1, 56, 127
1, 104433, Note_on_c, 1, 76, 127
1, 104599, Note_off_c, 1, 56, 0
1, 104599, Note_off_c, 1, 76, 0
1, 104603, Note_on_c, 1, 57, 127
1, 104603, Note_on_c, 1, 76, 127
1, 104769, Note_off_c, 1, 57, 0
1, 104773, Note_on_c, 1, 45, 127
1, 104773, Note_on_c, 1, 64, 127
1, 104939, Note_off_c, 1, 45, 0
1, 104939, Note_off_c, 1, 64, 0
1, 104943, Note_on_c, 1, 44, 127
1, 105109, Note_off_c, 1, 44, 0
1, 105113, Note_on_c, 1, 56, 127
1, 105269, Note_off_c, 1, 76, 0
1, 105279, Note_off_c, 1, 56, 0
1, 105283, Note_on_c, 1, 57, 127
1, 105283, Note_on_c, 1, 61, 127
1, 105283, Note_on_c, 1, 76, 127
1, 105618, Note_off_c, 1, 57, 0
1, 105618, Note_off_c, 1, 61, 0
1, 105618, Note_off_c, 1, 76, 0
1, 105622, Note_on_c, 1, 76, 127
1, 105622, Note_on_c, 1, 59, 127
1, 105622, Note_on_c, 1, 56, 127
1, 105731, Note_off_c, 1, 76, 0
1, 105735, Note_on_c, 1, 78, 127
1, 105844, Note_off_c, 1, 78, 0
1, 105957, Note_off_c, 1, 59, 0
1, 105957, Note_off_c, 1, 56, 0
1, 105961, Note_on_c, 1, 73, 127
1, 105961, Note_on_c, 1, 57, 127
1, 106130, Note_on_c, 1, 56, 127
1, 106183, Note_off_c, 1, 73, 0
1, 106187, Note_on_c, 1, 71, 127
1, 106296, Note_off_c, 1, 56, 0
1, 106296, Note_off_c, 1, 71, 0
1, 106300, Note_on_c, 1, 54, 127
1, 106300, Note_on_c, 1, 69, 127
1, 106466, Note_off_c, 1, 54, 0
1, 106466, Note_off_c, 1, 69, 0
1, 106470, Note_on_c, 1, 50, 127
1, 106632, Note_off_c, 1, 57, 0
1, 106636, Note_off_c, 1, 50, 0
1, 106640, Note_on_c, 1, 68, 127
1, 106640, Note_on_c, 1, 52, 127
1, 106749, Note_off_c, 1, 68, 0
1, 106753, Note_on_c, 1, 69, 127
1, 106862, Note_off_c, 1, 69, 0
1, 106866, Note_on_c, 1, 71, 127
1, 106975, Note_off_c, 1, 71, 0
1, 106979, Note_on_c, 1, 64, 127
1, 106979, Note_on_c, 1, 40, 127
1, 107088, Note_off_c, 1, 64, 0
1, 107092, Note_on_c, 1, 66, 127
1, 107201, Note_off_c, 1, 66, 0
1, 107311, Note_off_c, 1, 52, 0
1, 107315, Note_off_c, 1, 40, 0
1, 107319, Note_on_c, 1, 45, 127
1, 107319, Note_on_c, 1, 69, 127
1, 107485, Note_off_c, 1, 45, 0
1, 107499, Note_on_c, 1, 47, 127
1, 107665, Note_off_c, 1, 47, 0
1, 107675, Note_on_c, 1, 49, 127
1, 107825, Note_off_c, 1, 69, 0
1, 107841, Note_off_c, 1, 49, 0
1, 107845, Note_on_c, 1, 57, 127
1, 107845, Note_on_c, 1, 45, 127
1, 108011, Note_off_c, 1, 57, 0
1, 108011, Note_off_c, 1, 45, 0
1, 108015, Note_on_c, 1, 57, 127
1, 108015, Note_on_c, 1, 54, 127
1, 108015, Note_on_c, 1, 50, 127
1, 108124, Note_off_c, 1, 57, 0
1, 108128, Note_on_c, 1, 59, 127
1, 108237, Note_off_c, 1, 59, 0
1, 108520, Note_off_c, 1, 54, 0
1, 108520, Note_off_c, 1, 50, 0
1, 108524, Note_on_c, 1, 57, 127
1, 108524, Note_on_c, 1, 50, 127
1, 108690, Note_off_c, 1, 57, 0
1, 108690, Note_off_c, 1, 50, 0
1, 108694, Note_on_c, 1, 49, 127
1, 108694, Note_on_c, 1, 57, 127
1, 108803, Note_off_c, 1, 49, 0
1, 108807, Note_on_c, 1, 50, 127
1, 108916, Note_off_c, 1, 50, 0
1, 108920, Note_on_c, 1, 52, 127
1, 109029, Note_off_c, 1, 52, 0
1, 109199, Note_off_c, 1, 57, 0
1, 109203, Note_on_c, 1, 57, 127
1, 109203, Note_on_c, 1, 52, 127
1, 109369, Note_off_c, 1, 57, 0
1, 109369, Note_off_c, 1, 52, 0
1, 109373, Note_on_c, 1, 50, 127
1, 109373, Note_on_c, 1, 57, 127
1, 109482, Note_off_c, 1, 50, 0
1, 109486, Note_on_c, 1, 52, 127
1, 109595, Note_off_c, 1, 52, 0
1, 109599, Note_on_c, 1, 54, 127
1, 109708, Note_off_c, 1, 54, 0
1, 109712, Note_on_c, 1, 45, 127
1, 109878, Note_off_c, 1, 57, 0
1, 109878, Note_off_c, 1, 45, 0
1, 109882, Note_on_c, 1, 57, 127
1, 109882, Note_on_c, 1, 50, 127
1, 110048, Note_off_c, 1, 57, 0
1, 110048, Note_off_c, 1, 50, 0
1, 110052, Note_on_c, 1, 49, 127
1, 110052, Note_on_c, 1, 57, 127
1, 110161, Note_off_c, 1, 49, 0
1, 110165, Note_on_c, 1, 50, 127
1, 110274, Note_off_c, 1, 50, 0
1, 110278, Note_on_c, 1, 52, 127
1, 110387, Note_off_c, 1, 52, 0
1, 110391, Note_on_c, 1, 45, 127
1, 110557, Note_off_c, 1, 57, 0
1, 110557, Note_off_c, 1, 45, 0
1, 110561, Note_on_c, 1, 81, 127
1, 110561, Note_on_c, 1, 49, 127
1, 110727, Note_off_c, 1, 81, 0
1, 110727, Note_off_c, 1, 49, 0
1, 110731, Note_on_c, 1, 78, 127
1, 110731, Note_on_c, 1, 50, 127
1, 110840, Note_off_c, 1, 78, 0
1, 110844, Note_on_c, 1, 80, 127
1, 110953, Note_off_c, 1, 80, 0
1, 110957, Note_on_c, 1, 81, 127
1, 111066, Note_off_c, 1, 81, 0
1, 111070, Note_on_c, 1, 74, 127
1, 111236, Note_off_c, 1, 50, 0
1, 111236, Note_off_c, 1, 74, 0
1, 111240, Note_on_c, 1, 78, 127
1, 111240, Note_on_c, 1, 50, 127
1, 111406, Note_off_c, 1, 78, 0
1, 111406, Note_off_c, 1, 50, 0
1, 111410, Note_on_c, 1, 76, 127
1, 111410, Note_on_c, 1, 52, 127
1, 111410, Note_on_c, 1, 47, 127
1, 111410, Note_on_c, 1, 44, 127
1, 111519, Note_off_c, 1, 76, 0
1, 111523, Note_on_c, 1, 78, 127
1, 111632, Note_off_c, 1, 78, 0
1, 111636, Note_on_c, 1, 80, 127
1, 111745, Note_off_c, 1, 80, 0
1, 111749, Note_on_c, 1, 71, 127
1, 111915, Note_off_c, 1, 52, 0
1, 111915, Note_off_c, 1, 47, 0
1, 111915, Note_off_c, 1, 44, 0
1, 111915, Note_off_c, 1, 71, 0
1, 111919, Note_on_c, 1, 74, 127
1, 111919, Note_on_c, 1, 44, 127
1, 111919, Note_on_c, 1, 52, 127
1, 112085, Note_off_c, 1, 74, 0
1, 112085, Note_off_c, 1, 44, 0
1, 112085, Note_off_c, 1, 52, 0
1, 112089, Note_on_c, 1, 73, 127
1, 112089, Note_on_c, 1, 52, 127
1, 112089, Note_on_c, 1, 45, 127
1, 112198, Note_off_c, 1, 73, 0
1, 112202, Note_on_c, 1, 74, 127
1, 112311, Note_off_c, 1, 74, 0
1, 112315, Note_on_c, 1, 76, 127
1, 112424, Note_off_c, 1, 52, 0
1, 112424, Note_off_c, 1, 45, 0
1, 112424, Note_off_c, 1, 76, 0
1, 112428, Note_on_c, 1, 71, 127
1, 112428, Note_on_c, 1, 54, 127
1, 112428, Note_on_c, 1, 50, 127
1, 112650, Note_off_c, 1, 71, 0
1, 112654, Note_on_c, 1, 69, 127
1, 112763, Note_off_c, 1, 54, 0
1, 112763, Note_off_c, 1, 50, 0
1, 112763, Note_off_c, 1, 69, 0
1, 112767, Note_on_c, 1, 68, 127
1, 112767, Note_on_c, 1, 52, 127
1, 112876, Note_off_c, 1, 68, 0
1, 112880, Note_on_c, 1, 69, 127
1, 112989, Note_off_c, 1, 69, 0
1, 112993, Note_on_c, 1, 71, 127
1, 113102, Note_off_c, 1, 52, 0
1, 113102, Note_off_c, 1, 71, 0
1, 113106, Note_on_c, 1, 40, 127
1, 113106, Note_on_c, 1, 64, 127
1, 113272, Note_off_c, 1, 40, 0
1, 113276, Note_on_c, 1, 50, 127
1, 113442, Note_off_c, 1, 50, 0
1, 113462, Note_on_c, 1, 76, 127
1, 113462, Note_on_c, 1, 49, 127
1, 113462, Note_on_c, 1, 52, 127
1, 113462, Note_on_c, 1, 57, 127
1, 113546, Note_off_c, 1, 64, 0
1, 113797, Note_off_c, 1, 76, 0
1, 113801, Note_on_c, 1, 73, 127
1, 113910, Note_off_c, 1, 73, 0
1, 113914, Note_on_c, 1, 71, 127
1, 113956, Note_off_c, 1, 49, 0
1, 113956, Note_off_c, 1, 52, 0
1, 113956, Note_off_c, 1, 57, 0
1, 114023, Note_off_c, 1, 71, 0
1, 114027, Note_on_c, 1, 69, 127
1, 114136, Note_off_c, 1, 69, 0
1, 114140, Note_on_c, 1, 78, 127
1, 114140, Note_on_c, 1, 50, 127
1, 114140, Note_on_c, 1, 57, 127
1, 114306, Note_off_c, 1, 78, 0
1, 114310, Note_on_c, 1, 68, 127
1, 114476, Note_off_c, 1, 68, 0
1, 114480, Note_on_c, 1, 69, 127
1, 114635, Note_off_c, 1, 50, 0
1, 114635, Note_off_c, 1, 57, 0
1, 114646, Note_off_c, 1, 69, 0
1, 114650, Note_on_c, 1, 71, 127
1, 114816, Note_off_c, 1, 71, 0
1, 114820, Note_on_c, 1, 68, 127
1, 114820, Note_on_c, 1, 52, 127
1, 114929, Note_off_c, 1, 68, 0
1, 114933, Note_on_c, 1, 69, 127
1, 115042, Note_off_c, 1, 69, 0
1, 115046, Note_on_c, 1, 71, 127
1, 115155, Note_off_c, 1, 71, 0
1, 115159, Note_on_c, 1, 64, 127
1, 115159, Note_on_c, 1, 40, 127
1, 115268, Note_off_c, 1, 64, 0
1, 115272, Note_on_c, 1, 66, 127
1, 115381, Note_off_c, 1, 66, 0
1, 115491, Note_off_c, 1, 52, 0
1, 115495, Note_off_c, 1, 40, 0
1, 115499, Note_on_c, 1, 45, 127
1, 115499, Note_on_c, 1, 69, 127
1, 115753, Note_on_c, 1, 52, 127
1, 115919, Note_off_c, 1, 52, 0
1, 116092, Note_on_c, 1, 57, 127
1, 117449, Note_off_c, 1, 45, 0
1, 117499, Note_off_c, 1, 69, 0
1, 117592, Note_off_c, 1, 57, 0
1, 119636, Note_on_c, 1, 59, 127
1, 119655, Note_on_c, 1, 64, 127
1, 119692, Note_off_c, 1, 59, 0
1, 119696, Note_on_c, 1, 57, 127
1, 119711, Note_on_c, 1, 69, 127
1, 119752, Note_off_c, 1, 57, 0
1, 119767, Note_on_c, 1, 73, 127
1, 119824, Note_on_c, 1, 76, 127
1, 120185, Note_off_c, 1, 76, 0
1, 120368, Note_off_c, 1, 64, 0
1, 120368, Note_off_c, 1, 69, 0
1, 120368, Note_off_c, 1, 73, 0
1, 120376, Note_on_c, 1, 45, 127
1, 121094, Note_off_c, 1, 45, 0
1, 121096, Note_on_c, 1, 47, 127
1, 121096, Note_on_c, 1, 50, 127
1, 121096, Note_on_c, 1, 56, 127
1, 121456, Note_on_c, 1, 68, 127
1, 121456, Note_on_c, 1, 71, 127
1, 121456, Note_on_c, 1, 74, 127
1, 121814, Note_off_c, 1, 47, 0
1, 121814, Note_off_c, 1, 50, 0
1, 121814, Note_off_c, 1, 56, 0
1, 121814, Note_off_c, 1, 68, 0
1, 121814, Note_off_c, 1, 71, 0
1, 121814, Note_off_c, 1, 74, 0
1, 121816, Note_on_c, 1, 76, 127
1, 121816, Note_on_c, 1, 73, 127
1, 121816, Note_on_c, 1, 64, 127
1, 121816, Note_on_c, 1, 69, 127
1, 121816, Note_on_c, 1, 49, 127
1, 122354, Note_off_c, 1, 76, 0
1, 122528, Note_off_c, 1, 73, 0
1, 122528, Note_off_c, 1, 64, 0
1, 122528, Note_off_c, 1, 69, 0
1, 122536, Note_on_c, 1, 57, 127
1, 123254, Note_off_c, 1, 49, 0
1, 123256, Note_on_c, 1, 59, 127
1, 123256, Note_on_c, 1, 50, 127
1, 123616, Note_on_c, 1, 66, 127
1, 123616, Note_on_c, 1, 71, 127
1, 123974, Note_off_c, 1, 57, 0
1, 123974, Note_off_c, 1, 59, 0
1, 123974, Note_off_c, 1, 50, 0
1, 123974, Note_off_c, 1, 66, 0
1, 123974, Note_off_c, 1, 71, 0
1, 123976, Note_on_c, 1, 54, 127
1, 123976, Note_on_c, 1, 66, 127
1, 124036, Note_on_c, 1, 69, 127
1, 124096, Note_off_c, 1, 54, 0
1, 124096, Note_on_c, 1, 52, 127
1, 124096, Note_on_c, 1, 71, 127
1, 124156, Note_on_c, 1, 75, 127
1, 124184, Note_off_c, 1, 52, 0
1, 124512, Note_off_c, 1, 75, 0
1, 124677, Note_off_c, 1, 71, 0
1, 124688, Note_off_c, 1, 66, 0
1, 124688, Note_off_c, 1, 69, 0
1, 124696, Note_on_c, 1, 40, 127
1, 125414, Note_off_c, 1, 40, 0
1, 125416, Note_on_c, 1, 44, 127
1, 125416, Note_on_c, 1, 47, 127
1, 125776, Note_on_c, 1, 64, 127
1, 125776, Note_on_c, 1, 76, 127
1, 125776, Note_on_c, 1, 68, 127
1, 126134, Note_off_c, 1, 44, 0
1, 126134, Note_off_c, 1, 47, 0
1, 126134, Note_off_c, 1, 64, 0
1, 126134, Note_off_c, 1, 76, 0
1, 126134, Note_off_c, 1, 68, 0
1, 126136, Note_on_c, 1, 64, 127
1, 126136, Note_on_c, 1, 45, 127
1, 126226, Note_on_c, 1, 69, 127
1, 126316, Note_on_c, 1, 73, 127
1, 126672, Note_off_c, 1, 73, 0
1, 126676, Note_on_c, 1, 71, 127
1, 126847, Note_off_c, 1, 69, 0
1, 126849, Note_off_c, 1, 64, 0
1, 126855, Note_off_c, 1, 71, 0
1, 126857, Note_on_c, 1, 61, 127
1, 127382, Note_off_c, 1, 61, 0
1, 127575, Note_off_c, 1, 45, 0
1, 127577, Note_on_c, 1, 56, 127
1, 127577, Note_on_c, 1, 52, 127
1, 127937, Note_on_c, 1, 68, 127
1, 128295, Note_off_c, 1, 56, 0
1, 128295, Note_off_c, 1, 52, 0
1, 128295, Note_off_c, 1, 68, 0
1, 128297, Note_on_c, 1, 73, 127
1, 128297, Note_on_c, 1, 64, 127
1, 128297, Note_on_c, 1, 66, 127
1, 128297, Note_on_c, 1, 69, 127
1, 128297, Note_on_c, 1, 54, 127
1, 128297, Note_on_c, 1, 49, 127
1, 128297, Note_on_c, 1, 45, 127
1, 128835, Note_off_c, 1, 73, 0
1, 129009, Note_off_c, 1, 64, 0
1, 129009, Note_off_c, 1, 66, 0
1, 129009, Note_off_c, 1, 69, 0
1, 129009, Note_off_c, 1, 54, 0
1, 129015, Note_off_c, 1, 49, 0
1, 129015, Note_off_c, 1, 45, 0
1, 129017, Note_on_c, 1, 47, 127
1, 129017, Note_on_c, 1, 59, 127
1, 129017, Note_on_c, 1, 66, 127
1, 129017, Note_on_c, 1, 63, 127
1, 129735, Note_off_c, 1, 47, 0
1, 129737, Note_on_c, 1, 54, 127
1, 129737, Note_on_c, 1, 45, 127
1, 129737, Note_on_c, 1, 51, 127
1, 130095, Note_off_c, 1, 59, 0
1, 130095, Note_off_c, 1, 66, 0
1, 130095, Note_off_c, 1, 63, 0
1, 130455, Note_off_c, 1, 54, 0
1, 130455, Note_off_c, 1, 45, 0
1, 130455, Note_off_c, 1, 51, 0
1, 130457, Note_on_c, 1, 71, 127
1, 130457, Note_on_c, 1, 64, 127
1, 130457, Note_on_c, 1, 59, 127
1, 130457, Note_on_c, 1, 68, 127
1, 130457, Note_on_c, 1, 52, 127
1, 130457, Note_on_c, 1, 44, 127
1, 130457, Note_on_c, 1, 47, 127
1, 130995, Note_off_c, 1, 71, 0
1, 131169, Note_off_c, 1, 64, 0
1, 131169, Note_off_c, 1, 59, 0
1, 131169, Note_off_c, 1, 68, 0
1, 131169, Note_off_c, 1, 52, 0
1, 131175, Note_off_c, 1, 44, 0
1, 131175, Note_off_c, 1, 47, 0
1, 131177, Note_on_c, 1, 45, 127
1, 131177, Note_on_c, 1, 49, 127
1, 131177, Note_on_c, 1, 61, 127
1, 131177, Note_on_c, 1, 64, 127
1, 131177, Note_on_c, 1, 57, 127
1, 131895, Note_off_c, 1, 45, 0
1, 131895, Note_off_c, 1, 49, 0
1, 131897, Note_on_c, 1, 44, 127
1, 131897, Note_on_c, 1, 47, 127
1, 132255, Note_off_c, 1, 61, 0
1, 132255, Note_off_c, 1, 64, 0
1, 132255, Note_off_c, 1, 57, 0
1, 132257, Note_on_c, 1, 59, 127
1, 132615, Note_off_c, 1, 44, 0
1, 132615, Note_off_c, 1, 47, 0
1, 132615, Note_off_c, 1, 59, 0
1, 132617, Note_on_c, 1, 42, 127
1, 132617, Note_on_c, 1, 69, 127
1, 132617, Note_on_c, 1, 64, 127
1, 133157, Note_on_c, 1, 73, 127
1, 133335, Note_off_c, 1, 42, 0
1, 133335, Note_off_c, 1, 73, 0
1, 133337, Note_on_c, 1, 75, 127
1, 133337, Note_on_c, 1, 47, 127
1, 133875, Note_off_c, 1, 75, 0
1, 133877, Note_on_c, 1, 76, 127
1, 134055, Note_off_c, 1, 69, 0
1, 134055, Note_off_c, 1, 64, 0
1, 134055, Note_off_c, 1, 47, 0
1, 134055, Note_off_c, 1, 76, 0
1, 134057, Note_on_c, 1, 71, 127
1, 134057, Note_on_c, 1, 63, 127
1, 134057, Note_on_c, 1, 47, 127
1, 134595, Note_off_c, 1, 71, 0
1, 134597, Note_on_c, 1, 69, 127
1, 134769, Note_off_c, 1, 63, 0
1, 134775, Note_off_c, 1, 47, 0
1, 134775, Note_off_c, 1, 69, 0
1, 134777, Note_on_c, 1, 69, 127
1, 134777, Note_on_c, 1, 59, 127
1, 134777, Note_on_c, 1, 64, 127
1, 134777, Note_on_c, 1, 52, 127
1, 134852, Note_on_c, 1, 68, 127
1, 134865, Note_off_c, 1, 69, 0
1, 134936, Note_off_c, 1, 68, 0
1, 135316, Note_on_c, 1, 66, 127
1, 135488, Note_off_c, 1, 59, 0
1, 135488, Note_off_c, 1, 64, 0
1, 135494, Note_off_c, 1, 66, 0
1, 135496, Note_on_c, 1, 56, 127
1, 135496, Note_on_c, 1, 40, 127
1, 136214, Note_off_c, 1, 52, 0
1, 136934, Note_off_c, 1, 56, 0
1, 136934, Note_off_c, 1, 40, 0
1, 136952, Note_on_c, 1, 68, 127
1, 136952, Note_on_c, 1, 64, 127
1, 136952, Note_on_c, 1, 61, 127
1, 136952, Note_on_c, 1, 49, 127
1, 137490, Note_off_c, 1, 68, 0
1, 137664, Note_off_c, 1, 64, 0
1, 137664, Note_off_c, 1, 61, 0
1, 137672, Note_on_c, 1, 56, 127
1, 138390, Note_off_c, 1, 49, 0
1, 138392, Note_on_c, 1, 48, 127
1, 138392, Note_on_c, 1, 51, 127
1, 138752, Note_on_c, 1, 60, 127
1, 138752, Note_on_c, 1, 66, 127
1, 138752, Note_on_c, 1, 63, 127
1, 139110, Note_off_c, 1, 56, 0
1, 139110, Note_off_c, 1, 48, 0
1, 139110, Note_off_c, 1, 51, 0
1, 139110, Note_off_c, 1, 60, 0
1, 139110, Note_off_c, 1, 66, 0
1, 139110, Note_off_c, 1, 63, 0
1, 139112, Note_on_c, 1, 68, 127
1, 139112, Note_on_c, 1, 61, 127
1, 139112, Note_on_c, 1, 64, 127
1, 139112, Note_on_c, 1, 49, 127
1, 139112, Note_on_c, 1, 52, 127
1, 139650, Note_off_c, 1, 68, 0
1, 139824, Note_off_c, 1, 61, 0
1, 139824, Note_off_c, 1, 64, 0
1, 139832, Note_on_c, 1, 56, 127
1, 140550, Note_off_c, 1, 49, 0
1, 140550, Note_off_c, 1, 52, 0
1, 140552, Note_on_c, 1, 51, 127
1, 140552, Note_on_c, 1, 47, 127
1, 140912, Note_on_c, 1, 75, 127
1, 141270, Note_off_c, 1, 51, 0
1, 141270, Note_off_c, 1, 47, 0
1, 141270, Note_off_c, 1, 75, 0
1, 141272, Note_on_c, 1, 76, 127
1, 141272, Note_on_c, 1, 46, 127
1, 141632, Note_off_c, 1, 56, 0
1, 141632, Note_on_c, 1, 55, 127
1, 141810, Note_off_c, 1, 76, 0
1, 141812, Note_on_c, 1, 73, 127
1, 141990, Note_off_c, 1, 55, 0
1, 141990, Note_off_c, 1, 73, 0
1, 141992, Note_on_c, 1, 78, 127
1, 141992, Note_on_c, 1, 54, 127
1, 142530, Note_off_c, 1, 78, 0
1, 142532, Note_on_c, 1, 74, 127
1, 142710, Note_off_c, 1, 46, 0
1, 142710, Note_off_c, 1, 74, 0
1, 142712, Note_on_c, 1, 50, 127
1, 143252, Note_on_c, 1, 71, 127
1, 143430, Note_off_c, 1, 50, 0
1, 143430, Note_off_c, 1, 71, 0
1, 143432, Note_on_c, 1, 42, 127
1, 143972, Note_on_c, 1, 70, 127
1, 144150, Note_off_c, 1, 42, 0
1, 144150, Note_off_c, 1, 70, 0
1, 144152, Note_on_c, 1, 66, 127
1, 144152, Note_on_c, 1, 62, 127
1, 144861, Note_off_c, 1, 54, 0
1, 144872, Note_on_c, 1, 45, 127
1, 145230, Note_off_c, 1, 66, 0
1, 145230, Note_off_c, 1, 62, 0
1, 145590, Note_off_c, 1, 45, 0
1, 145592, Note_on_c, 1, 74, 127
1, 145592, Note_on_c, 1, 71, 127
1, 145592, Note_on_c, 1, 68, 127
1, 145592, Note_on_c, 1, 64, 127
1, 145592, Note_on_c, 1, 44, 127
1, 145592, Note_on_c, 1, 47, 127
1, 145592, Note_on_c, 1, 52, 127
1, 146130, Note_off_c, 1, 74, 0
1, 146304, Note_off_c, 1, 71, 0
1, 146304, Note_off_c, 1, 68, 0
1, 146304, Note_off_c, 1, 64, 0
1, 146310, Note_off_c, 1, 44, 0
1, 146312, Note_on_c, 1, 40, 127
1, 147030, Note_off_c, 1, 47, 0
1, 147030, Note_off_c, 1, 52, 0
1, 147030, Note_off_c, 1, 40, 0
1, 147032, Note_on_c, 1, 45, 127
1, 147392, Note_on_c, 1, 72, 127
1, 147392, Note_on_c, 1, 69, 127
1, 147750, Note_off_c, 1, 45, 0
1, 147750, Note_off_c, 1, 72, 0
1, 147750, Note_off_c, 1, 69, 0
1, 147752, Note_on_c, 1, 72, 127
1, 147752, Note_on_c, 1, 69, 127
1, 147752, Note_on_c, 1, 65, 127
1, 147752, Note_on_c, 1, 50, 127
1, 148290, Note_off_c, 1, 72, 0
1, 148464, Note_off_c, 1, 69, 0
1, 148464, Note_off_c, 1, 65, 0
1, 148472, Note_on_c, 1, 38, 127
1, 148472, Note_on_c, 1, 62, 127
1, 149190, Note_off_c, 1, 50, 0
1, 149190, Note_off_c, 1, 38, 0
1, 149192, Note_on_c, 1, 53, 127
1, 149550, Note_off_c, 1, 62, 0
1, 149552, Note_on_c, 1, 70, 127
1, 149910, Note_off_c, 1, 53, 0
1, 149910, Note_off_c, 1, 70, 0
1, 149912, Note_on_c, 1, 68, 127
1, 149912, Note_on_c, 1, 54, 127
1, 149912, Note_on_c, 1, 51, 127
1, 149912, Note_on_c, 1, 59, 127
1, 150450, Note_off_c, 1, 68, 0
1, 150452, Note_on_c, 1, 69, 127
1, 150630, Note_off_c, 1, 54, 0
1, 150630, Note_off_c, 1, 51, 0
1, 150630, Note_off_c, 1, 59, 0
1, 150632, Note_on_c, 1, 52, 127
1, 150752, Note_on_c, 1, 64, 127
1, 150808, Note_off_c, 1, 69, 0
1, 151352, Note_on_c, 1, 40, 127
1, 151690, Note_off_c, 1, 64, 0
1, 151713, Note_on_c, 1, 62, 127
1, 152071, Note_off_c, 1, 40, 0
1, 152071, Note_off_c, 1, 62, 0
1, 152073, Note_on_c, 1, 61, 127
1, 152073, Note_on_c, 1, 45, 127
1, 152785, Note_off_c, 1, 61, 0
1, 152793, Note_on_c, 1, 57, 127
1, 153502, Note_off_c, 1, 52, 0
1, 154229, Note_off_c, 1, 45, 0
1, 154231, Note_off_c, 1, 57, 0
1, 154361, Note_on_c, 1, 73, 127
1, 154701, Note_off_c, 1, 73, 0
1, 154702, Note_on_c, 1, 71, 127
1, 154702, Note_on_c, 1, 57, 127
1, 154872, Note_off_c, 1, 71, 0
1, 154873, Note_on_c, 1, 69, 127
1, 155043, Note_off_c, 1, 57, 0
1, 155043, Note_off_c, 1, 69, 0
1, 155044, Note_on_c, 1, 61, 127
1, 155044, Note_on_c, 1, 76, 127
1, 155384, Note_off_c, 1, 61, 0
1, 155384, Note_off_c, 1, 76, 0
1, 155385, Note_on_c, 1, 59, 127
1, 155385, Note_on_c, 1, 81, 127
1, 155555, Note_off_c, 1, 59, 0
1, 155556, Note_on_c, 1, 57, 127
1, 155652, Note_off_c, 1, 81, 0
1, 155726, Note_off_c, 1, 57, 0
1, 155727, Note_on_c, 1, 64, 127
1, 155727, Note_on_c, 1, 80, 127
1, 156067, Note_off_c, 1, 64, 0
1, 156067, Note_off_c, 1, 80, 0
1, 156068, Note_on_c, 1, 78, 127
1, 156068, Note_on_c, 1, 62, 127
1, 156238, Note_off_c, 1, 78, 0
1, 156239, Note_on_c, 1, 76, 127
1, 156409, Note_off_c, 1, 62, 0
1, 156409, Note_off_c, 1, 76, 0
1, 156410, Note_on_c, 1, 61, 127
1, 156410, Note_on_c, 1, 81, 127
1, 156750, Note_off_c, 1, 61, 0
1, 156750, Note_off_c, 1, 81, 0
1, 156751, Note_on_c, 1, 59, 127
1, 156751, Note_on_c, 1, 76, 127
1, 156921, Note_off_c, 1, 59, 0
1, 156922, Note_on_c, 1, 57, 127
1, 157018, Note_off_c, 1, 76, 0
1, 157092, Note_off_c, 1, 57, 0
1, 157093, Note_on_c, 1, 62, 127
1, 157093, Note_on_c, 1, 78, 127
1, 157433, Note_off_c, 1, 62, 0
1, 157433, Note_off_c, 1, 78, 0
1, 157434, Note_on_c, 1, 61, 127
1, 157434, Note_on_c, 1, 83, 127
1, 157604, Note_off_c, 1, 61, 0
1, 157605, Note_on_c, 1, 59, 127
1, 157775, Note_off_c, 1, 83, 0
1, 157775, Note_off_c, 1, 59, 0
1, 157776, Note_on_c, 1, 61, 127
1, 157776, Note_on_c, 1, 76, 127
1, 158116, Note_off_c, 1, 61, 0
1, 158116, Note_off_c, 1, 76, 0
1, 158117, Note_on_c, 1, 59, 127
1, 158117, Note_on_c, 1, 81, 127
1, 158287, Note_off_c, 1, 59, 0
1, 158288, Note_on_c, 1, 57, 127
1, 158384, Note_off_c, 1, 81, 0
1, 158458, Note_off_c, 1, 57, 0
1, 158459, Note_on_c, 1, 59, 127
1, 158459, Note_on_c, 1, 74, 127
1, 158799, Note_off_c, 1, 59, 0
1, 158799, Note_off_c, 1, 74, 0
1, 158800, Note_on_c, 1, 57, 127
1, 158800, Note_on_c, 1, 76, 127
1, 158970, Note_off_c, 1, 57, 0
1, 158971, Note_on_c, 1, 56, 127
1, 159141, Note_off_c, 1, 76, 0
1, 159141, Note_off_c, 1, 56, 0
1, 159142, Note_on_c, 1, 73, 127
1, 159142, Note_on_c, 1, 57, 127
1, 159462, Note_off_c, 1, 73, 0
1, 159482, Note_off_c, 1, 57, 0
1, 159483, Note_on_c, 1, 71, 127
1, 159483, Note_on_c, 1, 50, 127
1, 159653, Note_off_c, 1, 71, 0
1, 159654, Note_on_c, 1, 69, 127
1, 159824, Note_off_c, 1, 50, 0
1, 159824, Note_off_c, 1, 69, 0
1, 159825, Note_on_c, 1, 52, 127
1, 159825, Note_on_c, 1, 68, 127
1, 160165, Note_off_c, 1, 52, 0
1, 160165, Note_off_c, 1, 68, 0
1, 160166, Note_on_c, 1, 66, 127
1, 160166, Note_on_c, 1, 54, 127
1, 160336, Note_off_c, 1, 66, 0
1, 160337, Note_on_c, 1, 64, 127
1, 160507, Note_off_c, 1, 54, 0
1, 160507, Note_off_c, 1, 64, 0
1, 160508, Note_on_c, 1, 56, 127
1, 160508, Note_on_c, 1, 71, 127
1, 160848, Note_off_c, 1, 56, 0
1, 160848, Note_off_c, 1, 71, 0
1, 160849, Note_on_c, 1, 54, 127
1, 160849, Note_on_c, 1, 76, 127
1, 161019, Note_off_c, 1, 54, 0
1, 161020, Note_on_c, 1, 52, 127
1, 161116, Note_off_c, 1, 76, 0
1, 161190, Note_off_c, 1, 52, 0
1, 161191, Note_on_c, 1, 57, 127
1, 161191, Note_on_c, 1, 73, 127
1, 161531, Note_off_c, 1, 57, 0
1, 161531, Note_off_c, 1, 73, 0
1, 161532, Note_on_c, 1, 71, 127
1, 161532, Note_on_c, 1, 61, 127
1, 161702, Note_off_c, 1, 71, 0
1, 161703, Note_on_c, 1, 69, 127
1, 161873, Note_off_c, 1, 61, 0
1, 161873, Note_off_c, 1, 69, 0
1, 161874, Note_on_c, 1, 57, 127
1, 161874, Note_on_c, 1, 73, 127
1, 162214, Note_off_c, 1, 57, 0
1, 162214, Note_off_c, 1, 73, 0
1, 162215, Note_on_c, 1, 56, 127
1, 162215, Note_on_c, 1, 78, 127
1, 162385, Note_off_c, 1, 56, 0
1, 162386, Note_on_c, 1, 54, 127
1, 162482, Note_off_c, 1, 78, 0
1, 162556, Note_off_c, 1, 54, 0
1, 162557, Note_on_c, 1, 59, 127
1, 162557, Note_on_c, 1, 75, 127
1, 162897, Note_off_c, 1, 59, 0
1, 162897, Note_off_c, 1, 75, 0
1, 162898, Note_on_c, 1, 73, 127
1, 162898, Note_on_c, 1, 61, 127
1, 163068, Note_off_c, 1, 73, 0
1, 163069, Note_on_c, 1, 71, 127
1, 163239, Note_off_c, 1, 61, 0
1, 163239, Note_off_c, 1, 71, 0
1, 163240, Note_on_c, 1, 63, 127
1, 163240, Note_on_c, 1, 78, 127
1, 163580, Note_off_c, 1, 63, 0
1, 163580, Note_off_c, 1, 78, 0
1, 163581, Note_on_c, 1, 61, 127
1, 163581, Note_on_c, 1, 83, 127
1, 163751, Note_off_c, 1, 61, 0
1, 163752, Note_on_c, 1, 59, 127
1, 163848, Note_off_c, 1, 83, 0
1, 163922, Note_off_c, 1, 59, 0
1, 163923, Note_on_c, 1, 64, 127
1, 163923, Note_on_c, 1, 80, 127
1, 164263, Note_off_c, 1, 64, 0
1, 164263, Note_off_c, 1, 80, 0
1, 164264, Note_on_c, 1, 78, 127
1, 164264, Note_on_c, 1, 62, 127
1, 164434, Note_off_c, 1, 78, 0
1, 164435, Note_on_c, 1, 76, 127
1, 164605, Note_off_c, 1, 62, 0
1, 164605, Note_off_c, 1, 76, 0
1, 164606, Note_on_c, 1, 81, 127
1, 164606, Note_on_c, 1, 61, 127
1, 164926, Note_off_c, 1, 81, 0
1, 164946, Note_off_c, 1, 61, 0
1, 164947, Note_on_c, 1, 59, 127
1, 164947, Note_on_c, 1, 80, 127
1, 165117, Note_off_c, 1, 59, 0
1, 165117, Note_off_c, 1, 80, 0
1, 165118, Note_on_c, 1, 57, 127
1, 165118, Note_on_c, 1, 78, 127
1, 165288, Note_off_c, 1, 57, 0
1, 165288, Note_off_c, 1, 78, 0
1, 165289, Note_on_c, 1, 56, 127
1, 165289, Note_on_c, 1, 83, 127
1, 165629, Note_off_c, 1, 56, 0
1, 165629, Note_off_c, 1, 83, 0
1, 165630, Note_on_c, 1, 76, 127
1, 165630, Note_on_c, 1, 57, 127
1, 165800, Note_off_c, 1, 76, 0
1, 165801, Note_on_c, 1, 78, 127
1, 165971, Note_off_c, 1, 57, 0
1, 165971, Note_off_c, 1, 78, 0
1, 165972, Note_on_c, 1, 76, 127
1, 165972, Note_on_c, 1, 59, 127
1, 166052, Note_on_c, 1, 75, 127
1, 166056, Note_off_c, 1, 76, 0
1, 166136, Note_off_c, 1, 75, 0
1, 166313, Note_on_c, 1, 47, 127
1, 166483, Note_off_c, 1, 59, 0
1, 166651, Note_off_c, 1, 47, 0
1, 166655, Note_on_c, 1, 76, 127
1, 166655, Note_on_c, 1, 52, 127
1, 167337, Note_off_c, 1, 76, 0
1, 167678, Note_off_c, 1, 52, 0
1, 167679, Note_on_c, 1, 71, 127
1, 167679, Note_on_c, 1, 51, 127
1, 167972, Note_off_c, 1, 71, 0
1, 168016, Note_off_c, 1, 51, 0
1, 168020, Note_on_c, 1, 52, 127
1, 168020, Note_on_c, 1, 68, 127
1, 168360, Note_off_c, 1, 52, 0
1, 168360, Note_off_c, 1, 68, 0
1, 168361, Note_on_c, 1, 66, 127
1, 168361, Note_on_c, 1, 54, 127
1, 168531, Note_off_c, 1, 66, 0
1, 168532, Note_on_c, 1, 64, 127
1, 168702, Note_off_c, 1, 54, 0
1, 168702, Note_off_c, 1, 64, 0
1, 168703, Note_on_c, 1, 56, 127
1, 168703, Note_on_c, 1, 71, 127
1, 169043, Note_off_c, 1, 56, 0
1, 169043, Note_off_c, 1, 71, 0
1, 169044, Note_on_c, 1, 54, 127
1, 169044, Note_on_c, 1, 76, 127
1, 169214, Note_off_c, 1, 54, 0
1, 169215, Note_on_c, 1, 52, 127
1, 169311, Note_off_c, 1, 76, 0
1, 169385, Note_off_c, 1, 52, 0
1, 169386, Note_on_c, 1, 57, 127
1, 169386, Note_on_c, 1, 73, 127
1, 169726, Note_off_c, 1, 57, 0
1, 169726, Note_off_c, 1, 73, 0
1, 169727, Note_on_c, 1, 71, 127
1, 169727, Note_on_c, 1, 59, 127
1, 169897, Note_off_c, 1, 71, 0
1, 169898, Note_on_c, 1, 69, 127
1, 170068, Note_off_c, 1, 59, 0
1, 170068, Note_off_c, 1, 69, 0
1, 170069, Note_on_c, 1, 61, 127
1, 170069, Note_on_c, 1, 76, 127
1, 170409, Note_off_c, 1, 61, 0
1, 170409, Note_off_c, 1, 76, 0
1, 170410, Note_on_c, 1, 59, 127
1, 170410, Note_on_c, 1, 81, 127
1, 170580, Note_off_c, 1, 59, 0
1, 170581, Note_on_c, 1, 57, 127
1, 170677, Note_off_c, 1, 81, 0
1, 170751, Note_off_c, 1, 57, 0
1, 170752, Note_on_c, 1, 62, 127
1, 170752, Note_on_c, 1, 78, 127
1, 171092, Note_off_c, 1, 62, 0
1, 171092, Note_off_c, 1, 78, 0
1, 171093, Note_on_c, 1, 62, 127
1, 171093, Note_on_c, 1, 83, 127
1, 171263, Note_off_c, 1, 62, 0
1, 171264, Note_on_c, 1, 61, 127
1, 171434, Note_off_c, 1, 83, 0
1, 171434, Note_off_c, 1, 61, 0
1, 171435, Note_on_c, 1, 81, 127
1, 171435, Note_on_c, 1, 59, 127
1, 171604, Note_off_c, 1, 81, 0
1, 171606, Note_on_c, 1, 80, 127
1, 171690, Note_off_c, 1, 80, 0
1, 171775, Note_off_c, 1, 59, 0
1, 171776, Note_on_c, 1, 80, 127
1, 171776, Note_on_c, 1, 56, 127
1, 171945, Note_off_c, 1, 80, 0
1, 171947, Note_on_c, 1, 78, 127
1, 172114, Note_off_c, 1, 56, 0
1, 172117, Note_off_c, 1, 78, 0
1, 172118, Note_on_c, 1, 61, 127
1, 172118, Note_on_c, 1, 77, 127
1, 172458, Note_off_c, 1, 61, 0
1, 172458, Note_off_c, 1, 77, 0
1, 172459, Note_on_c, 1, 75, 127
1, 172459, Note_on_c, 1, 59, 127
1, 172629, Note_off_c, 1, 75, 0
1, 172630, Note_on_c, 1, 73, 127
1, 172800, Note_off_c, 1, 59, 0
1, 172800, Note_off_c, 1, 73, 0
1, 172801, Note_on_c, 1, 57, 127
1, 172801, Note_on_c, 1, 78, 127
1, 173141, Note_off_c, 1, 57, 0
1, 173141, Note_off_c, 1, 78, 0
1, 173142, Note_on_c, 1, 56, 127
1, 173142, Note_on_c, 1, 73, 127
1, 173312, Note_off_c, 1, 56, 0
1, 173313, Note_on_c, 1, 54, 127
1, 173445, Note_off_c, 1, 73, 0
1, 173483, Note_off_c, 1, 54, 0
1, 173484, Note_on_c, 1, 59, 127
1, 173484, Note_on_c, 1, 74, 127
1, 173824, Note_off_c, 1, 59, 0
1, 173824, Note_off_c, 1, 74, 0
1, 173825, Note_on_c, 1, 57, 127
1, 173825, Note_on_c, 1, 71, 127
1, 173995, Note_off_c, 1, 57, 0
1, 173996, Note_on_c, 1, 56, 127
1, 174166, Note_off_c, 1, 71, 0
1, 174166, Note_off_c, 1, 56, 0
1, 174167, Note_on_c, 1, 68, 127
1, 174167, Note_on_c, 1, 61, 127
1, 174508, Note_on_c, 1, 73, 127
1, 174508, Note_on_c, 1, 49, 127
1, 174593, Note_off_c, 1, 68, 0
1, 174677, Note_off_c, 1, 61, 0
1, 174801, Note_off_c, 1, 73, 0
1, 174845, Note_off_c, 1, 49, 0
1, 174849, Note_on_c, 1, 54, 127
1, 174849, Note_on_c, 1, 69, 127
1, 175189, Note_off_c, 1, 54, 0
1, 175189, Note_off_c, 1, 69, 0
1, 175190, Note_on_c, 1, 68, 127
1, 175190, Note_on_c, 1, 56, 127
1, 175360, Note_off_c, 1, 68, 0
1, 175361, Note_on_c, 1, 66, 127
1, 175531, Note_off_c, 1, 56, 0
1, 175531, Note_off_c, 1, 66, 0
1, 175532, Note_on_c, 1, 57, 127
1, 175532, Note_on_c, 1, 73, 127
1, 175872, Note_off_c, 1, 57, 0
1, 175872, Note_off_c, 1, 73, 0
1, 175873, Note_on_c, 1, 56, 127
1, 175873, Note_on_c, 1, 78, 127
1, 176043, Note_off_c, 1, 56, 0
1, 176044, Note_on_c, 1, 54, 127
1, 176140, Note_off_c, 1, 78, 0
1, 176214, Note_off_c, 1, 54, 0
1, 176215, Note_on_c, 1, 59, 127
1, 176215, Note_on_c, 1, 74, 127
1, 176555, Note_off_c, 1, 59, 0
1, 176555, Note_off_c, 1, 74, 0
1, 176556, Note_on_c, 1, 47, 127
1, 176556, Note_on_c, 1, 71, 127
1, 176726, Note_off_c, 1, 47, 0
1, 176727, Note_on_c, 1, 49, 127
1, 176897, Note_off_c, 1, 71, 0
1, 176897, Note_off_c, 1, 49, 0
1, 176898, Note_on_c, 1, 50, 127
1, 176898, Note_on_c, 1, 66, 127
1, 177238, Note_off_c, 1, 50, 0
1, 177238, Note_off_c, 1, 66, 0
1, 177239, Note_on_c, 1, 49, 127
1, 177239, Note_on_c, 1, 71, 127
1, 177409, Note_off_c, 1, 49, 0
1, 177410, Note_on_c, 1, 47, 127
1, 177524, Note_off_c, 1, 71, 0
1, 177580, Note_off_c, 1, 47, 0
1, 177581, Note_on_c, 1, 52, 127
1, 177581, Note_on_c, 1, 68, 127
1, 177921, Note_off_c, 1, 52, 0
1, 177921, Note_off_c, 1, 68, 0
1, 177922, Note_on_c, 1, 66, 127
1, 177922, Note_on_c, 1, 54, 127
1, 178092, Note_off_c, 1, 66, 0
1, 178093, Note_on_c, 1, 64, 127
1, 178263, Note_off_c, 1, 54, 0
1, 178263, Note_off_c, 1, 64, 0
1, 178264, Note_on_c, 1, 56, 127
1, 178264, Note_on_c, 1, 71, 127
1, 178604, Note_off_c, 1, 56, 0
1, 178604, Note_off_c, 1, 71, 0
1, 178605, Note_on_c, 1, 54, 127
1, 178605, Note_on_c, 1, 76, 127
1, 178775, Note_off_c, 1, 54, 0
1, 178776, Note_on_c, 1, 52, 127
1, 178872, Note_off_c, 1, 76, 0
1, 178946, Note_off_c, 1, 52, 0
1, 178947, Note_on_c, 1, 57, 127
1, 178947, Note_on_c, 1, 73, 127
1, 179287, Note_off_c, 1, 57, 0
1, 179287, Note_off_c, 1, 73, 0
1, 179288, Note_on_c, 1, 71, 127
1, 179288, Note_on_c, 1, 59, 127
1, 179458, Note_off_c, 1, 71, 0
1, 179459, Note_on_c, 1, 69, 127
1, 179629, Note_off_c, 1, 59, 0
1, 179629, Note_off_c, 1, 69, 0
1, 179630, Note_on_c, 1, 61, 127
1, 179630, Note_on_c, 1, 76, 127
1, 179970, Note_off_c, 1, 61, 0
1, 179970, Note_off_c, 1, 76, 0
1, 179971, Note_on_c, 1, 59, 127
1, 179971, Note_on_c, 1, 81, 127
1, 180141, Note_off_c, 1, 59, 0
1, 180142, Note_on_c, 1, 57, 127
1, 180238, Note_off_c, 1, 81, 0
1, 180312, Note_off_c, 1, 57, 0
1, 180313, Note_on_c, 1, 62, 127
1, 180313, Note_on_c, 1, 78, 127
1, 180653, Note_off_c, 1, 62, 0
1, 180653, Note_off_c, 1, 78, 0
1, 180654, Note_on_c, 1, 76, 127
1, 180654, Note_on_c, 1, 66, 127
1, 180824, Note_off_c, 1, 76, 0
1, 180825, Note_on_c, 1, 74, 127
1, 180995, Note_off_c, 1, 66, 0
1, 180995, Note_off_c, 1, 74, 0
1, 180996, Note_on_c, 1, 63, 127
1, 180996, Note_on_c, 1, 78, 127
1, 181336, Note_off_c, 1, 63, 0
1, 181336, Note_off_c, 1, 78, 0
1, 181337, Note_on_c, 1, 61, 127
1, 181337, Note_on_c, 1, 83, 127
1, 181507, Note_off_c, 1, 61, 0
1, 181508, Note_on_c, 1, 59, 127
1, 181604, Note_off_c, 1, 83, 0
1, 181678, Note_off_c, 1, 59, 0
1, 181679, Note_on_c, 1, 64, 127
1, 181679, Note_on_c, 1, 80, 127
1, 182019, Note_off_c, 1, 64, 0
1, 182019, Note_off_c, 1, 80, 0
1, 182020, Note_on_c, 1, 78, 127
1, 182020, Note_on_c, 1, 62, 127
1, 182190, Note_off_c, 1, 78, 0
1, 182191, Note_on_c, 1, 76, 127
1, 182361, Note_off_c, 1, 62, 0
1, 182361, Note_off_c, 1, 76, 0
1, 182362, Note_on_c, 1, 61, 127
1, 182362, Note_on_c, 1, 81, 127
1, 182702, Note_off_c, 1, 61, 0
1, 182702, Note_off_c, 1, 81, 0
1, 182703, Note_on_c, 1, 59, 127
1, 182703, Note_on_c, 1, 76, 127
1, 182873, Note_off_c, 1, 59, 0
1, 182874, Note_on_c, 1, 57, 127
1, 182970, Note_off_c, 1, 76, 0
1, 183044, Note_off_c, 1, 57, 0
1, 183045, Note_on_c, 1, 56, 127
1, 183045, Note_on_c, 1, 74, 127
1, 183385, Note_off_c, 1, 56, 0
1, 183385, Note_off_c, 1, 74, 0
1, 183386, Note_on_c, 1, 73, 127
1, 183386, Note_on_c, 1, 57, 127
1, 183556, Note_off_c, 1, 73, 0
1, 183557, Note_on_c, 1, 74, 127
1, 183727, Note_off_c, 1, 57, 0
1, 183727, Note_off_c, 1, 74, 0
1, 183728, Note_on_c, 1, 73, 127
1, 183728, Note_on_c, 1, 52, 127
1, 183897, Note_off_c, 1, 73, 0
1, 183899, Note_on_c, 1, 71, 127
1, 183983, Note_off_c, 1, 71, 0
1, 184069, Note_on_c, 1, 40, 127
1, 184238, Note_off_c, 1, 52, 0
1, 184359, Note_on_c, 1, 69, 127
1, 184429, Note_off_c, 1, 40, 0
1, 184437, Note_off_c, 1, 69, 0
1, 184450, Note_on_c, 1, 69, 127
1, 184450, Note_on_c, 1, 45, 127
1, 185750, Note_off_c, 1, 69, 0
1, 185750, Note_off_c, 1, 45, 0
1, 185772, Note_on_c, 1, 57, 127
1, 185772, Note_on_c, 1, 69, 127
1, 186152, Note_off_c, 1, 57, 0
1, 186152, Note_off_c, 1, 69, 0
1, 186172, Note_on_c, 1, 45, 127
1, 186172, Note_on_c, 1, 73, 127
1, 186342, Note_off_c, 1, 45, 0
1, 186343, Note_on_c, 1, 52, 127
1, 186513, Note_off_c, 1, 73, 0
1, 186513, Note_off_c, 1, 52, 0
1, 186514, Note_on_c, 1, 69, 127
1, 186514, Note_on_c, 1, 57, 127
1, 186684, Note_off_c, 1, 69, 0
1, 186684, Note_off_c, 1, 57, 0
1, 186685, Note_on_c, 1, 47, 127
1, 186685, Note_on_c, 1, 74, 127
1, 186855, Note_off_c, 1, 47, 0
1, 186856, Note_on_c, 1, 50, 127
1, 187026, Note_off_c, 1, 74, 0
1, 187026, Note_off_c, 1, 50, 0
1, 187027, Note_on_c, 1, 71, 127
1, 187027, Note_on_c, 1, 56, 127
1, 187197, Note_off_c, 1, 71, 0
1, 187197, Note_off_c, 1, 56, 0
1, 187198, Note_on_c, 1, 49, 127
1, 187198, Note_on_c, 1, 76, 127
1, 187368, Note_off_c, 1, 49, 0
1, 187369, Note_on_c, 1, 52, 127
1, 187539, Note_off_c, 1, 76, 0
1, 187539, Note_off_c, 1, 52, 0
1, 187540, Note_on_c, 1, 73, 127
1, 187540, Note_on_c, 1, 57, 127
1, 187710, Note_off_c, 1, 73, 0
1, 187710, Note_off_c, 1, 57, 0
1, 187711, Note_on_c, 1, 50, 127
1, 187711, Note_on_c, 1, 78, 127
1, 187881, Note_off_c, 1, 50, 0
1, 187882, Note_on_c, 1, 54, 127
1, 188052, Note_off_c, 1, 78, 0
1, 188052, Note_off_c, 1, 54, 0
1, 188053, Note_on_c, 1, 74, 127
1, 188053, Note_on_c, 1, 59, 127
1, 188223, Note_off_c, 1, 74, 0
1, 188223, Note_off_c, 1, 59, 0
1, 188224, Note_on_c, 1, 47, 127
1, 188224, Note_on_c, 1, 80, 127
1, 188394, Note_off_c, 1, 47, 0
1, 188395, Note_on_c, 1, 50, 127
1, 188565, Note_off_c, 1, 80, 0
1, 188565, Note_off_c, 1, 50, 0
1, 188566, Note_on_c, 1, 74, 127
1, 188566, Note_on_c, 1, 56, 127
1, 188736, Note_off_c, 1, 74, 0
1, 188736, Note_off_c, 1, 56, 0
1, 188737, Note_on_c, 1, 73, 127
1, 188737, Note_on_c, 1, 57, 127
1, 188907, Note_off_c, 1, 73, 0
1, 188908, Note_on_c, 1, 76, 127
1, 189078, Note_off_c, 1, 57, 0
1, 189078, Note_off_c, 1, 76, 0
1, 189079, Note_on_c, 1, 81, 127
1, 189079, Note_on_c, 1, 45, 127
1, 189249, Note_off_c, 1, 81, 0
1, 189249, Note_off_c, 1, 45, 0
1, 189250, Note_on_c, 1, 80, 127
1, 189250, Note_on_c, 1, 52, 127
1, 189420, Note_off_c, 1, 80, 0
1, 189421, Note_on_c, 1, 81, 127
1, 189591, Note_off_c, 1, 52, 0
1, 189591, Note_off_c, 1, 81, 0
1, 189592, Note_on_c, 1, 83, 127
1, 189592, Note_on_c, 1, 54, 127
1, 189762, Note_off_c, 1, 83, 0
1, 189762, Note_off_c, 1, 54, 0
1, 189763, Note_on_c, 1, 76, 127
1, 189763, Note_on_c, 1, 56, 127
1, 189933, Note_off_c, 1, 76, 0
1, 189934, Note_on_c, 1, 78, 127
1, 190104, Note_off_c, 1, 56, 0
1, 190104, Note_off_c, 1, 78, 0
1, 190105, Note_on_c, 1, 74, 127
1, 190105, Note_on_c, 1, 52, 127
1, 190275, Note_off_c, 1, 74, 0
1, 190275, Note_off_c, 1, 52, 0
1, 190276, Note_on_c, 1, 73, 127
1, 190276, Note_on_c, 1, 57, 127
1, 190446, Note_off_c, 1, 73, 0
1, 190446, Note_off_c, 1, 57, 0
1, 190447, Note_on_c, 1, 74, 127
1, 190447, Note_on_c, 1, 45, 127
1, 190617, Note_off_c, 1, 74, 0
1, 190617, Note_off_c, 1, 45, 0
1, 190618, Note_on_c, 1, 71, 127
1, 190618, Note_on_c, 1, 56, 127
1, 190788, Note_off_c, 1, 71, 0
1, 190788, Note_off_c, 1, 56, 0
1, 190789, Note_on_c, 1, 69, 127
1, 190789, Note_on_c, 1, 54, 127
1, 190959, Note_off_c, 1, 69, 0
1, 190959, Note_off_c, 1, 54, 0
1, 190960, Note_on_c, 1, 71, 127
1, 190960, Note_on_c, 1, 42, 127
1, 191130, Note_off_c, 1, 71, 0
1, 191130, Note_off_c, 1, 42, 0
1, 191131, Note_on_c, 1, 68, 127
1, 191131, Note_on_c, 1, 52, 127
1, 191301, Note_off_c, 1, 68, 0
1, 191301, Note_off_c, 1, 52, 0
1, 191302, Note_on_c, 1, 66, 127
1, 191302, Note_on_c, 1, 51, 127
1, 191472, Note_off_c, 1, 66, 0
1, 191472, Note_off_c, 1, 51, 0
1, 191473, Note_on_c, 1, 68, 127
1, 191473, Note_on_c, 1, 39, 127
1, 191643, Note_off_c, 1, 68, 0
1, 191643, Note_off_c, 1, 39, 0
1, 191644, Note_on_c, 1, 64, 127
1, 191644, Note_on_c, 1, 49, 127
1, 191814, Note_off_c, 1, 64, 0
1, 191814, Note_off_c, 1, 49, 0
1, 191815, Note_on_c, 1, 63, 127
1, 191815, Note_on_c, 1, 47, 127
1, 191985, Note_off_c, 1, 63, 0
1, 191986, Note_on_c, 1, 66, 127
1, 192156, Note_off_c, 1, 47, 0
1, 192156, Note_off_c, 1, 66, 0
1, 192157, Note_on_c, 1, 71, 127
1, 192157, Note_on_c, 1, 51, 127
1, 192327, Note_off_c, 1, 71, 0
1, 192327, Note_off_c, 1, 51, 0
1, 192328, Note_on_c, 1, 68, 127
1, 192328, Note_on_c, 1, 52, 127
1, 192498, Note_off_c, 1, 68, 0
1, 192499, Note_on_c, 1, 71, 127
1, 192669, Note_off_c, 1, 52, 0
1, 192669, Note_off_c, 1, 71, 0
1, 192670, Note_on_c, 1, 76, 127
1, 192670, Note_on_c, 1, 56, 127
1, 192840, Note_off_c, 1, 76, 0
1, 192840, Note_off_c, 1, 56, 0
1, 192841, Note_on_c, 1, 69, 127
1, 192841, Note_on_c, 1, 59, 127
1, 192925, Note_off_c, 1, 69, 0
1, 192926, Note_on_c, 1, 68, 127
1, 193010, Note_off_c, 1, 68, 0
1, 193011, Note_on_c, 1, 66, 127
1, 193181, Note_off_c, 1, 59, 0
1, 193181, Note_off_c, 1, 66, 0
1, 193182, Note_on_c, 1, 64, 127
1, 193182, Note_on_c, 1, 47, 127
1, 193352, Note_off_c, 1, 64, 0
1, 193352, Note_off_c, 1, 47, 0
1, 193353, Note_on_c, 1, 52, 127
1, 193353, Note_on_c, 1, 64, 127
1, 193523, Note_off_c, 1, 52, 0
1, 193524, Note_on_c, 1, 47, 127
1, 193694, Note_off_c, 1, 47, 0
1, 193695, Note_on_c, 1, 44, 127
1, 193865, Note_off_c, 1, 44, 0
1, 193866, Note_on_c, 1, 40, 127
1, 194036, Note_off_c, 1, 64, 0
1, 194207, Note_off_c, 1, 40, 0
1, 194208, Note_on_c, 1, 68, 127
1, 194208, Note_on_c, 1, 52, 127
1, 194378, Note_off_c, 1, 68, 0
1, 194378, Note_off_c, 1, 52, 0
1, 194395, Note_on_c, 1, 64, 127
1, 194395, Note_on_c, 1, 56, 127
1, 194565, Note_off_c, 1, 64, 0
1, 194566, Note_on_c, 1, 71, 127
1, 194736, Note_off_c, 1, 56, 0
1, 194736, Note_off_c, 1, 71, 0
1, 194737, Note_on_c, 1, 52, 127
1, 194737, Note_on_c, 1, 76, 127
1, 194907, Note_off_c, 1, 52, 0
1, 194907, Note_off_c, 1, 76, 0
1, 194908, Note_on_c, 1, 66, 127
1, 194908, Note_on_c, 1, 57, 127
1, 195078, Note_off_c, 1, 66, 0
1, 195079, Note_on_c, 1, 69, 127
1, 195249, Note_off_c, 1, 57, 0
1, 195249, Note_off_c, 1, 69, 0
1, 195250, Note_on_c, 1, 54, 127
1, 195250, Note_on_c, 1, 75, 127
1, 195420, Note_off_c, 1, 54, 0
1, 195420, Note_off_c, 1, 75, 0
1, 195421, Note_on_c, 1, 68, 127
1, 195421, Note_on_c, 1, 59, 127
1, 195591, Note_off_c, 1, 68, 0
1, 195592, Note_on_c, 1, 71, 127
1, 195762, Note_off_c, 1, 59, 0
1, 195762, Note_off_c, 1, 71, 0
1, 195763, Note_on_c, 1, 56, 127
1, 195763, Note_on_c, 1, 76, 127
1, 195933, Note_off_c, 1, 56, 0
1, 195933, Note_off_c, 1, 76, 0
1, 195934, Note_on_c, 1, 69, 127
1, 195934, Note_on_c, 1, 61, 127
1, 196104, Note_off_c, 1, 69, 0
1, 196105, Note_on_c, 1, 73, 127
1, 196275, Note_off_c, 1, 61, 0
1, 196275, Note_off_c, 1, 73, 0
1, 196276, Note_on_c, 1, 57, 127
1, 196276, Note_on_c, 1, 78, 127
1, 196446, Note_off_c, 1, 57, 0
1, 196446, Note_off_c, 1, 78, 0
1, 196447, Note_on_c, 1, 59, 127
1, 196447, Note_on_c, 1, 75, 127
1, 196617, Note_off_c, 1, 59, 0
1, 196618, Note_on_c, 1, 61, 127
1, 196788, Note_off_c, 1, 75, 0
1, 196788, Note_off_c, 1, 61, 0
1, 196789, Note_on_c, 1, 57, 127
1, 196789, Note_on_c, 1, 71, 127
1, 196959, Note_off_c, 1, 57, 0
1, 196959, Note_off_c, 1, 71, 0
1, 196960, Note_on_c, 1, 56, 127
1, 196960, Note_on_c, 1, 76, 127
1, 197130, Note_off_c, 1, 56, 0
1, 197130, Note_off_c, 1, 76, 0
1, 197131, Note_on_c, 1, 54, 127
1, 197131, Note_on_c, 1, 78, 127
1, 197301, Note_off_c, 1, 54, 0
1, 197301, Note_off_c, 1, 78, 0
1, 197302, Note_on_c, 1, 52, 127
1, 197302, Note_on_c, 1, 80, 127
1, 197472, Note_off_c, 1, 52, 0
1, 197472, Note_off_c, 1, 80, 0
1, 197473, Note_on_c, 1, 51, 127
1, 197473, Note_on_c, 1, 78, 127
1, 197643, Note_off_c, 1, 51, 0
1, 197644, Note_on_c, 1, 52, 127
1, 197814, Note_off_c, 1, 78, 0
1, 197814, Note_off_c, 1, 52, 0
1, 197815, Note_on_c, 1, 49, 127
1, 197815, Note_on_c, 1, 71, 127
1, 197985, Note_off_c, 1, 49, 0
1, 197985, Note_off_c, 1, 71, 0
1, 197986, Note_on_c, 1, 47, 127
1, 197986, Note_on_c, 1, 71, 127
1, 198156, Note_off_c, 1, 47, 0
1, 198157, Note_on_c, 1, 49, 127
1, 198327, Note_off_c, 1, 71, 0
1, 198327, Note_off_c, 1, 49, 0
1, 198328, Note_on_c, 1, 45, 127
1, 198328, Note_on_c, 1, 83, 127
1, 198498, Note_off_c, 1, 45, 0
1, 198498, Note_off_c, 1, 83, 0
1, 198499, Note_on_c, 1, 76, 127
1, 198499, Note_on_c, 1, 44, 127
1, 198669, Note_off_c, 1, 76, 0
1, 198670, Note_on_c, 1, 80, 127
1, 198840, Note_off_c, 1, 44, 0
1, 198840, Note_off_c, 1, 80, 0
1, 198841, Note_on_c, 1, 52, 127
1, 198841, Note_on_c, 1, 83, 127
1, 199011, Note_off_c, 1, 52, 0
1, 199011, Note_off_c, 1, 83, 0
1, 199012, Note_on_c, 1, 74, 127
1, 199012, Note_on_c, 1, 42, 127
1, 199182, Note_off_c, 1, 74, 0
1, 199183, Note_on_c, 1, 80, 127
1, 199353, Note_off_c, 1, 42, 0
1, 199353, Note_off_c, 1, 80, 0
1, 199354, Note_on_c, 1, 50, 127
1, 199354, Note_on_c, 1, 83, 127
1, 199524, Note_off_c, 1, 50, 0
1, 199524, Note_off_c, 1, 83, 0
1, 199525, Note_on_c, 1, 73, 127
1, 199525, Note_on_c, 1, 41, 127
1, 199695, Note_off_c, 1, 73, 0
1, 199696, Note_on_c, 1, 80, 127
1, 199866, Note_off_c, 1, 41, 0
1, 199866, Note_off_c, 1, 80, 0
1, 199867, Note_on_c, 1, 49, 127
1, 199867, Note_on_c, 1, 83, 127
1, 200037, Note_off_c, 1, 49, 0
1, 200037, Note_off_c, 1, 83, 0
1, 200038, Note_on_c, 1, 73, 127
1, 200038, Note_on_c, 1, 42, 127
1, 200208, Note_off_c, 1, 73, 0
1, 200209, Note_on_c, 1, 78, 127
1, 200379, Note_off_c, 1, 42, 0
1, 200379, Note_off_c, 1, 78, 0
1, 200380, Note_on_c, 1, 54, 127
1, 200380, Note_on_c, 1, 81, 127
1, 200550, Note_off_c, 1, 54, 0
1, 200550, Note_off_c, 1, 81, 0
1, 200551, Note_on_c, 1, 74, 127
1, 200551, Note_on_c, 1, 47, 127
1, 200721, Note_off_c, 1, 74, 0
1, 200722, Note_on_c, 1, 78, 127
1, 200892, Note_off_c, 1, 47, 0
1, 200892, Note_off_c, 1, 78, 0
1, 200893, Note_on_c, 1, 54, 127
1, 200893, Note_on_c, 1, 81, 127
1, 201063, Note_off_c, 1, 54, 0
1, 201063, Note_off_c, 1, 81, 0
1, 201064, Note_on_c, 1, 59, 127
1, 201064, Note_on_c, 1, 80, 127
1, 201234, Note_off_c, 1, 59, 0
1, 201234, Note_off_c, 1, 80, 0
1, 201235, Note_on_c, 1, 57, 127
1, 201235, Note_on_c, 1, 81, 127
1, 201405, Note_off_c, 1, 57, 0
1, 201405, Note_off_c, 1, 81, 0
1, 201406, Note_on_c, 1, 56, 127
1, 201406, Note_on_c, 1, 83, 127
1, 201576, Note_off_c, 1, 56, 0
1, 201576, Note_off_c, 1, 83, 0
1, 201577, Note_on_c, 1, 78, 127
1, 201577, Note_on_c, 1, 61, 127
1, 201746, Note_off_c, 1, 78, 0
1, 201747, Note_off_c, 1, 61, 0
1, 201748, Note_on_c, 1, 77, 127
1, 201748, Note_on_c, 1, 56, 127
1, 201814, Note_off_c, 1, 77, 0
1, 201815, Note_on_c, 1, 78, 127
1, 201881, Note_off_c, 1, 78, 0
1, 201918, Note_off_c, 1, 56, 0
1, 201919, Note_on_c, 1, 53, 127
1, 202089, Note_off_c, 1, 53, 0
1, 202090, Note_on_c, 1, 49, 127
1, 202260, Note_off_c, 1, 49, 0
1, 202261, Note_on_c, 1, 61, 127
1, 202431, Note_off_c, 1, 61, 0
1, 202432, Note_on_c, 1, 59, 127
1, 202432, Note_on_c, 1, 73, 127
1, 202602, Note_off_c, 1, 59, 0
1, 202602, Note_off_c, 1, 73, 0
1, 202603, Note_on_c, 1, 57, 127
1, 202603, Note_on_c, 1, 73, 127
1, 202773, Note_off_c, 1, 57, 0
1, 202774, Note_on_c, 1, 61, 127
1, 202944, Note_off_c, 1, 61, 0
1, 202945, Note_on_c, 1, 66, 127
1, 203115, Note_off_c, 1, 66, 0
1, 203116, Note_on_c, 1, 56, 127
1, 203286, Note_off_c, 1, 56, 0
1, 203287, Note_on_c, 1, 59, 127
1, 203457, Note_off_c, 1, 59, 0
1, 203458, Note_on_c, 1, 65, 127
1, 203628, Note_off_c, 1, 65, 0
1, 203629, Note_on_c, 1, 54, 127
1, 203799, Note_off_c, 1, 54, 0
1, 203971, Note_on_c, 1, 62, 127
1, 204141, Note_off_c, 1, 62, 0
1, 204142, Note_on_c, 1, 53, 127
1, 204312, Note_off_c, 1, 53, 0
1, 204483, Note_off_c, 1, 73, 0
1, 204484, Note_on_c, 1, 61, 127
1, 204484, Note_on_c, 1, 73, 127
1, 204654, Note_off_c, 1, 61, 0
1, 204654, Note_off_c, 1, 73, 0
1, 204655, Note_on_c, 1, 54, 127
1, 204655, Note_on_c, 1, 69, 127
1, 204825, Note_off_c, 1, 54, 0
1, 204825, Note_off_c, 1, 69, 0
1, 204826, Note_on_c, 1, 57, 127
1, 204826, Note_on_c, 1, 74, 127
1, 204996, Note_off_c, 1, 57, 0
1, 204996, Note_off_c, 1, 74, 0
1, 204997, Note_on_c, 1, 61, 127
1, 204997, Note_on_c, 1, 66, 127
1, 205167, Note_off_c, 1, 61, 0
1, 205167, Note_off_c, 1, 66, 0
1, 205168, Note_on_c, 1, 52, 127
1, 205168, Note_on_c, 1, 68, 127
1, 205338, Note_off_c, 1, 52, 0
1, 205338, Note_off_c, 1, 68, 0
1, 205339, Note_on_c, 1, 56, 127
1, 205339, Note_on_c, 1, 73, 127
1, 205509, Note_off_c, 1, 56, 0
1, 205509, Note_off_c, 1, 73, 0
1, 205510, Note_on_c, 1, 61, 127
1, 205510, Note_on_c, 1, 64, 127
1, 205680, Note_off_c, 1, 61, 0
1, 205680, Note_off_c, 1, 64, 0
1, 205681, Note_on_c, 1, 50, 127
1, 205681, Note_on_c, 1, 66, 127
1, 205851, Note_off_c, 1, 50, 0
1, 205851, Note_off_c, 1, 66, 0
1, 205852, Note_on_c, 1, 54, 127
1, 205852, Note_on_c, 1, 71, 127
1, 206022, Note_off_c, 1, 54, 0
1, 206022, Note_off_c, 1, 71, 0
1, 206023, Note_on_c, 1, 59, 127
1, 206023, Note_on_c, 1, 68, 127
1, 206193, Note_off_c, 1, 59, 0
1, 206193, Note_off_c, 1, 68, 0
1, 206194, Note_on_c, 1, 66, 127
1, 206194, Note_on_c, 1, 47, 127
1, 206244, Note_off_c, 1, 66, 0
1, 206246, Note_on_c, 1, 65, 127
1, 206296, Note_off_c, 1, 65, 0
1, 206365, Note_off_c, 1, 47, 0
1, 206366, Note_on_c, 1, 56, 127
1, 206536, Note_off_c, 1, 56, 0
1, 206537, Note_on_c, 1, 59, 127
1, 206537, Note_on_c, 1, 74, 127
1, 206707, Note_off_c, 1, 59, 0
1, 206707, Note_off_c, 1, 74, 0
1, 206708, Note_on_c, 1, 73, 127
1, 206708, Note_on_c, 1, 57, 127
1, 206878, Note_off_c, 1, 73, 0
1, 206879, Note_on_c, 1, 78, 127
1, 207049, Note_off_c, 1, 57, 0
1, 207049, Note_off_c, 1, 78, 0
1, 207050, Note_on_c, 1, 59, 127
1, 207050, Note_on_c, 1, 68, 127
1, 207220, Note_off_c, 1, 59, 0
1, 207220, Note_off_c, 1, 68, 0
1, 207221, Note_on_c, 1, 69, 127
1, 207221, Note_on_c, 1, 61, 127
1, 207272, Note_off_c, 1, 69, 0
1, 207275, Note_on_c, 1, 68, 127
1, 207326, Note_off_c, 1, 68, 0
1, 207563, Note_off_c, 1, 61, 0
1, 207564, Note_on_c, 1, 49, 127
1, 207564, Note_on_c, 1, 66, 127
1, 207733, Note_off_c, 1, 49, 0
1, 207733, Note_off_c, 1, 66, 0
1, 207734, Note_on_c, 1, 54, 127
1, 207734, Note_on_c, 1, 66, 127
1, 207904, Note_off_c, 1, 54, 0
1, 207905, Note_on_c, 1, 49, 127
1, 208075, Note_off_c, 1, 49, 0
1, 208076, Note_on_c, 1, 45, 127
1, 208246, Note_off_c, 1, 45, 0
1, 208247, Note_on_c, 1, 42, 127
1, 208417, Note_off_c, 1, 66, 0
1, 208588, Note_off_c, 1, 42, 0
1, 208589, Note_on_c, 1, 57, 127
1, 208589, Note_on_c, 1, 78, 127
1, 208759, Note_off_c, 1, 57, 0
1, 208759, Note_off_c, 1, 78, 0
1, 208760, Note_on_c, 1, 75, 127
1, 208760, Note_on_c, 1, 59, 127
1, 208930, Note_off_c, 1, 75, 0
1, 208931, Note_on_c, 1, 78, 127
1, 209101, Note_off_c, 1, 59, 0
1, 209101, Note_off_c, 1, 78, 0
1, 209102, Note_on_c, 1, 51, 127
1, 209102, Note_on_c, 1, 83, 127
1, 209272, Note_off_c, 1, 51, 0
1, 209272, Note_off_c, 1, 83, 0
1, 209273, Note_on_c, 1, 81, 127
1, 209273, Note_on_c, 1, 59, 127
1, 209443, Note_off_c, 1, 81, 0
1, 209444, Note_on_c, 1, 83, 127
1, 209614, Note_off_c, 1, 59, 0
1, 209614, Note_off_c, 1, 83, 0
1, 209615, Note_on_c, 1, 51, 127
1, 209615, Note_on_c, 1, 78, 127
1, 209785, Note_off_c, 1, 51, 0
1, 209785, Note_off_c, 1, 78, 0
1, 209786, Note_on_c, 1, 52, 127
1, 209786, Note_on_c, 1, 80, 127
1, 209956, Note_off_c, 1, 52, 0
1, 209956, Note_off_c, 1, 80, 0
1, 209957, Note_on_c, 1, 40, 127
1, 209957, Note_on_c, 1, 81, 127
1, 210127, Note_off_c, 1, 40, 0
1, 210127, Note_off_c, 1, 81, 0
1, 210128, Note_on_c, 1, 54, 127
1, 210128, Note_on_c, 1, 78, 127
1, 210298, Note_off_c, 1, 54, 0
1, 210298, Note_off_c, 1, 78, 0
1, 210299, Note_on_c, 1, 56, 127
1, 210299, Note_on_c, 1, 76, 127
1, 210469, Note_off_c, 1, 56, 0
1, 210469, Note_off_c, 1, 76, 0
1, 210470, Note_on_c, 1, 54, 127
1, 210470, Note_on_c, 1, 78, 127
1, 210640, Note_off_c, 1, 54, 0
1, 210640, Note_off_c, 1, 78, 0
1, 210641, Note_on_c, 1, 52, 127
1, 210641, Note_on_c, 1, 74, 127
1, 210811, Note_off_c, 1, 52, 0
1, 210811, Note_off_c, 1, 74, 0
1, 210812, Note_on_c, 1, 73, 127
1, 210812, Note_on_c, 1, 57, 127
1, 210982, Note_off_c, 1, 73, 0
1, 210983, Note_on_c, 1, 76, 127
1, 211153, Note_off_c, 1, 57, 0
1, 211153, Note_off_c, 1, 76, 0
1, 211154, Note_on_c, 1, 49, 127
1, 211154, Note_on_c, 1, 81, 127
1, 211324, Note_off_c, 1, 49, 0
1, 211324, Note_off_c, 1, 81, 0
1, 211325, Note_on_c, 1, 79, 127
1, 211325, Note_on_c, 1, 57, 127
1, 211495, Note_off_c, 1, 79, 0
1, 211496, Note_on_c, 1, 81, 127
1, 211666, Note_off_c, 1, 57, 0
1, 211666, Note_off_c, 1, 81, 0
1, 211667, Note_on_c, 1, 49, 127
1, 211667, Note_on_c, 1, 76, 127
1, 211837, Note_off_c, 1, 49, 0
1, 211837, Note_off_c, 1, 76, 0
1, 211838, Note_on_c, 1, 78, 127
1, 211838, Note_on_c, 1, 50, 127
1, 212008, Note_off_c, 1, 78, 0
1, 212009, Note_on_c, 1, 79, 127
1, 212179, Note_off_c, 1, 50, 0
1, 212179, Note_off_c, 1, 79, 0
1, 212180, Note_on_c, 1, 59, 127
1, 212180, Note_on_c, 1, 74, 127
1, 212350, Note_off_c, 1, 59, 0
1, 212350, Note_off_c, 1, 74, 0
1, 212351, Note_on_c, 1, 76, 127
1, 212351, Note_on_c, 1, 49, 127
1, 212521, Note_off_c, 1, 76, 0
1, 212522, Note_on_c, 1, 78, 127
1, 212692, Note_off_c, 1, 49, 0
1, 212692, Note_off_c, 1, 78, 0
1, 212693, Note_on_c, 1, 57, 127
1, 212693, Note_on_c, 1, 73, 127
1, 212863, Note_off_c, 1, 57, 0
1, 212863, Note_off_c, 1, 73, 0
1, 212864, Note_on_c, 1, 74, 127
1, 212864, Note_on_c, 1, 47, 127
1, 213034, Note_off_c, 1, 74, 0
1, 213035, Note_on_c, 1, 76, 127
1, 213205, Note_off_c, 1, 47, 0
1, 213205, Note_off_c, 1, 76, 0
1, 213206, Note_on_c, 1, 56, 127
1, 213206, Note_on_c, 1, 71, 127
1, 213376, Note_off_c, 1, 56, 0
1, 213376, Note_off_c, 1, 71, 0
1, 213377, Note_on_c, 1, 57, 127
1, 213377, Note_on_c, 1, 73, 127
1, 213547, Note_off_c, 1, 57, 0
1, 213547, Note_off_c, 1, 73, 0
1, 213548, Note_on_c, 1, 56, 127
1, 213548, Note_on_c, 1, 71, 127
1, 213718, Note_off_c, 1, 56, 0
1, 213718, Note_off_c, 1, 71, 0
1, 213719, Note_on_c, 1, 54, 127
1, 213719, Note_on_c, 1, 69, 127
1, 213889, Note_off_c, 1, 54, 0
1, 213889, Note_off_c, 1, 69, 0
1, 213890, Note_on_c, 1, 56, 127
1, 213890, Note_on_c, 1, 71, 127
1, 214060, Note_off_c, 1, 56, 0
1, 214061, Note_on_c, 1, 57, 127
1, 214231, Note_off_c, 1, 71, 0
1, 214231, Note_off_c, 1, 57, 0
1, 214232, Note_on_c, 1, 54, 127
1, 214232, Note_on_c, 1, 64, 127
1, 214402, Note_off_c, 1, 54, 0
1, 214402, Note_off_c, 1, 64, 0
1, 214403, Note_on_c, 1, 52, 127
1, 214403, Note_on_c, 1, 64, 127
1, 214573, Note_off_c, 1, 52, 0
1, 214574, Note_on_c, 1, 54, 127
1, 214744, Note_off_c, 1, 64, 0
1, 214744, Note_off_c, 1, 54, 0
1, 214745, Note_on_c, 1, 50, 127
1, 214745, Note_on_c, 1, 76, 127
1, 214915, Note_off_c, 1, 50, 0
1, 214915, Note_off_c, 1, 76, 0
1, 214916, Note_on_c, 1, 78, 127
1, 214916, Note_on_c, 1, 49, 127
1, 215030, Note_off_c, 1, 78, 0
1, 215030, Note_on_c, 1, 76, 127
1, 215086, Note_off_c, 1, 49, 0
1, 215087, Note_off_c, 1, 76, 0
1, 215087, Note_on_c, 1, 52, 127
1, 215257, Note_off_c, 1, 52, 0
1, 215258, Note_on_c, 1, 57, 127
1, 215428, Note_off_c, 1, 57, 0
1, 215429, Note_on_c, 1, 47, 127
1, 215599, Note_off_c, 1, 47, 0
1, 215600, Note_on_c, 1, 50, 127
1, 215770, Note_off_c, 1, 50, 0
1, 215771, Note_on_c, 1, 56, 127
1, 215941, Note_off_c, 1, 56, 0
1, 215942, Note_on_c, 1, 45, 127
1, 216112, Note_off_c, 1, 45, 0
1, 216284, Note_on_c, 1, 54, 127
1, 216454, Note_off_c, 1, 54, 0
1, 216455, Note_on_c, 1, 44, 127
1, 216625, Note_off_c, 1, 44, 0
1, 216797, Note_on_c, 1, 76, 127
1, 216797, Note_on_c, 1, 52, 127
1, 216966, Note_off_c, 1, 76, 0
1, 216967, Note_off_c, 1, 52, 0
1, 216968, Note_on_c, 1, 45, 127
1, 216968, Note_on_c, 1, 73, 127
1, 217138, Note_off_c, 1, 45, 0
1, 217138, Note_off_c, 1, 73, 0
1, 217139, Note_on_c, 1, 49, 127
1, 217139, Note_on_c, 1, 78, 127
1, 217309, Note_off_c, 1, 49, 0
1, 217309, Note_off_c, 1, 78, 0
1, 217310, Note_on_c, 1, 54, 127
1, 217310, Note_on_c, 1, 69, 127
1, 217480, Note_off_c, 1, 54, 0
1, 217480, Note_off_c, 1, 69, 0
1, 217481, Note_on_c, 1, 44, 127
1, 217481, Note_on_c, 1, 71, 127
1, 217651, Note_off_c, 1, 44, 0
1, 217651, Note_off_c, 1, 71, 0
1, 217652, Note_on_c, 1, 47, 127
1, 217652, Note_on_c, 1, 76, 127
1, 217822, Note_off_c, 1, 47, 0
1, 217822, Note_off_c, 1, 76, 0
1, 217823, Note_on_c, 1, 52, 127
1, 217823, Note_on_c, 1, 68, 127
1, 217993, Note_off_c, 1, 52, 0
1, 217993, Note_off_c, 1, 68, 0
1, 217994, Note_on_c, 1, 42, 127
1, 217994, Note_on_c, 1, 69, 127
1, 218164, Note_off_c, 1, 42, 0
1, 218164, Note_off_c, 1, 69, 0
1, 218165, Note_on_c, 1, 45, 127
1, 218165, Note_on_c, 1, 74, 127
1, 218335, Note_off_c, 1, 45, 0
1, 218335, Note_off_c, 1, 74, 0
1, 218336, Note_on_c, 1, 50, 127
1, 218336, Note_on_c, 1, 66, 127
1, 218506, Note_off_c, 1, 50, 0
1, 218506, Note_off_c, 1, 66, 0
1, 218507, Note_on_c, 1, 40, 127
1, 218507, Note_on_c, 1, 71, 127
1, 218677, Note_off_c, 1, 40, 0
1, 218677, Note_off_c, 1, 71, 0
1, 218678, Note_on_c, 1, 47, 127
1, 218678, Note_on_c, 1, 74, 127
1, 218848, Note_off_c, 1, 47, 0
1, 218848, Note_off_c, 1, 74, 0
1, 218849, Note_on_c, 1, 50, 127
1, 218849, Note_on_c, 1, 66, 127
1, 219019, Note_off_c, 1, 50, 0
1, 219019, Note_off_c, 1, 66, 0
1, 219020, Note_on_c, 1, 68, 127
1, 219020, Note_on_c, 1, 52, 127
1, 219203, Note_off_c, 1, 68, 0
1, 219204, Note_on_c, 1, 64, 127
1, 219387, Note_off_c, 1, 52, 0
1, 219387, Note_off_c, 1, 64, 0
1, 219388, Note_on_c, 1, 49, 127
1, 219388, Note_on_c, 1, 76, 127
1, 219571, Note_off_c, 1, 49, 0
1, 219571, Note_off_c, 1, 76, 0
1, 219572, Note_on_c, 1, 74, 127
1, 219572, Note_on_c, 1, 52, 127
1, 219632, Note_off_c, 1, 74, 0
1, 219633, Note_on_c, 1, 73, 127
1, 219693, Note_off_c, 1, 73, 0
1, 219847, Note_on_c, 1, 71, 127
1, 219938, Note_off_c, 1, 52, 0
1, 219938, Note_off_c, 1, 71, 0
1, 219939, Note_on_c, 1, 40, 127
1, 219939, Note_on_c, 1, 69, 127
1, 220122, Note_off_c, 1, 40, 0
1, 220122, Note_off_c, 1, 69, 0
1, 220123, Note_on_c, 1, 45, 127
1, 220123, Note_on_c, 1, 69, 127
1, 220364, Note_off_c, 1, 45, 0
1, 220376, Note_on_c, 1, 49, 127
1, 220617, Note_off_c, 1, 49, 0
1, 220640, Note_on_c, 1, 52, 127
1, 220894, Note_off_c, 1, 52, 0
1, 220944, Note_on_c, 1, 57, 127
1, 221923, Note_off_c, 1, 69, 0
1, 222344, Note_off_c, 1, 57, 0
1, 222344, End_track
0, 0, End_of_file