0, 0, Header, 1, 1, 480
1, 0, Start_track
1, 0, Title_t, "Test"
1, 0, Tempo, 500000
1, 0, Instrument_name_t, "Church Organ"
1, 64, Note_on_c, 1, 57, 127
1, 64, Note_on_c, 1, 54, 127
1, 457, Note_on_c, 1, 73, 127
1, 846, Note_off_c, 1, 73, 0
1, 847, Note_off_c, 1, 57, 0
1, 851, Note_on_c, 1, 74, 127
1, 851, Note_on_c, 1, 59, 127
1, 1116, Note_off_c, 1, 74, 0
1, 1245, Note_on_c, 1, 71, 127
1, 1437, Note_off_c, 1, 71, 0
1, 1634, Note_off_c, 1, 59, 0
1, 2032, Note_on_c, 1, 69, 127
1, 2224, Note_off_c, 1, 69, 0
1, 2426, Note_on_c, 1, 56, 127
1, 2819, Note_on_c, 1, 68, 127
1, 3011, Note_off_c, 1, 68, 0
1, 3200, Note_off_c, 1, 54, 0
1, 3209, Note_off_c, 1, 56, 0
1, 3213, Note_on_c, 1, 69, 127
1, 3213, Note_on_c, 1, 54, 127
1, 3213, Note_on_c, 1, 42, 127
1, 3410, Note_on_c, 1, 68, 127
1, 3478, Note_off_c, 1, 69, 0
1, 3602, Note_off_c, 1, 54, 0
1, 3602, Note_off_c, 1, 68, 0
1, 3607, Note_on_c, 1, 66, 127
1, 3785, Note_off_c, 1, 42, 0
1, 3799, Note_off_c, 1, 66, 0
1, 4001, Note_on_c, 1, 57, 127
1, 4001, Note_on_c, 1, 73, 127
1, 4193, Note_off_c, 1, 57, 0
1, 4198, Note_on_c, 1, 56, 127
1, 4390, Note_off_c, 1, 56, 0
1, 4395, Note_on_c, 1, 54, 127
1, 4395, Note_on_c, 1, 81, 127
1, 4587, Note_off_c, 1, 54, 0
1, 4778, Note_off_c, 1, 73, 0
1, 4788, Note_on_c, 1, 72, 127
1, 4905, Note_off_c, 1, 81, 0
1, 5181, Note_on_c, 1, 52, 127
1, 5181, Note_on_c, 1, 80, 127
1, 5373, Note_off_c, 1, 52, 0
1, 5565, Note_off_c, 1, 72, 0
1, 5575, Note_on_c, 1, 68, 127
1, 5691, Note_off_c, 1, 80, 0
1, 5969, Note_on_c, 1, 51, 127
1, 5969, Note_on_c, 1, 78, 127
1, 6161, Note_off_c, 1, 51, 0
1, 6352, Note_off_c, 1, 68, 0
1, 6358, Note_off_c, 1, 78, 0
1, 6363, Note_on_c, 1, 52, 127
1, 6363, Note_on_c, 1, 73, 127
1, 6555, Note_off_c, 1, 52, 0
1, 6559, Note_on_c, 1, 51, 127
1, 6751, Note_off_c, 1, 51, 0
1, 6756, Note_on_c, 1, 49, 127
1, 6756, Note_on_c, 1, 76, 127
1, 6935, Note_off_c, 1, 73, 0
1, 6948, Note_off_c, 1, 49, 0
1, 7135, Note_off_c, 1, 76, 0
1, 7150, Note_on_c, 1, 69, 127
1, 7150, Note_on_c, 1, 54, 127
1, 7342, Note_off_c, 1, 69, 0
1, 7347, Note_on_c, 1, 68, 127
1, 7539, Note_off_c, 1, 54, 0
1, 7539, Note_off_c, 1, 68, 0
1, 7543, Note_on_c, 1, 66, 127
1, 7543, Note_on_c, 1, 57, 127
1, 7735, Note_off_c, 1, 66, 0
1, 7740, Note_on_c, 1, 69, 127
1, 7932, Note_off_c, 1, 57, 0
1, 7932, Note_off_c, 1, 69, 0
1, 7937, Note_on_c, 1, 50, 127
1, 7937, Note_on_c, 1, 71, 127
1, 8129, Note_off_c, 1, 50, 0
1, 8134, Note_on_c, 1, 49, 127
1, 8326, Note_off_c, 1, 49, 0
1, 8331, Note_on_c, 1, 47, 127
1, 8331, Note_on_c, 1, 74, 127
1, 8523, Note_off_c, 1, 47, 0
1, 8674, Note_off_c, 1, 71, 0
1, 8720, Note_off_c, 1, 74, 0
1, 8725, Note_on_c, 1, 68, 127
1, 8725, Note_on_c, 1, 52, 127
1, 8917, Note_off_c, 1, 68, 0
1, 8922, Note_on_c, 1, 66, 127
1, 9114, Note_off_c, 1, 52, 0
1, 9114, Note_off_c, 1, 66, 0
1, 9119, Note_on_c, 1, 64, 127
1, 9119, Note_on_c, 1, 56, 127
1, 9311, Note_off_c, 1, 64, 0
1, 9316, Note_on_c, 1, 68, 127
1, 9508, Note_off_c, 1, 56, 0
1, 9508, Note_off_c, 1, 68, 0
1, 9513, Note_on_c, 1, 49, 127
1, 9513, Note_on_c, 1, 69, 127
1, 9705, Note_off_c, 1, 49, 0
1, 9710, Note_on_c, 1, 47, 127
1, 9902, Note_off_c, 1, 47, 0
1, 9907, Note_on_c, 1, 45, 127
1, 9907, Note_on_c, 1, 73, 127
1, 10099, Note_off_c, 1, 45, 0
1, 10168, Note_off_c, 1, 69, 0
1, 10296, Note_off_c, 1, 73, 0
1, 10298, Note_on_c, 1, 50, 127
1, 10298, Note_on_c, 1, 71, 127
1, 10490, Note_off_c, 1, 50, 0
1, 10495, Note_on_c, 1, 73, 127
1, 10495, Note_on_c, 1, 49, 127
1, 10677, Note_off_c, 1, 73, 0
1, 10687, Note_off_c, 1, 49, 0
1, 10692, Note_on_c, 1, 47, 127
1, 10692, Note_on_c, 1, 74, 127
1, 10706, Note_off_c, 1, 71, 0
1, 10884, Note_off_c, 1, 47, 0
1, 10889, Note_on_c, 1, 78, 127
1, 10936, Note_off_c, 1, 74, 0
1, 11081, Note_off_c, 1, 78, 0
1, 11086, Note_on_c, 1, 49, 127
1, 11086, Note_on_c, 1, 69, 127
1, 11278, Note_off_c, 1, 49, 0
1, 11283, Note_on_c, 1, 47, 127
1, 11283, Note_on_c, 1, 71, 127
1, 11393, Note_off_c, 1, 69, 0
1, 11475, Note_off_c, 1, 47, 0
1, 11475, Note_off_c, 1, 71, 0
1, 11480, Note_on_c, 1, 45, 127
1, 11480, Note_on_c, 1, 73, 127
1, 11672, Note_off_c, 1, 45, 0
1, 11677, Note_on_c, 1, 49, 127
1, 11677, Note_on_c, 1, 78, 127
1, 11704, Note_off_c, 1, 73, 0
1, 11869, Note_off_c, 1, 49, 0
1, 11869, Note_off_c, 1, 78, 0
1, 11874, Note_on_c, 1, 47, 127
1, 11874, Note_on_c, 1, 68, 127
1, 12066, Note_off_c, 1, 47, 0
1, 12071, Note_on_c, 1, 45, 127
1, 12071, Note_on_c, 1, 69, 127
1, 12181, Note_off_c, 1, 68, 0
1, 12263, Note_off_c, 1, 45, 0
1, 12263, Note_off_c, 1, 69, 0
1, 12268, Note_on_c, 1, 44, 127
1, 12268, Note_on_c, 1, 71, 127
1, 12460, Note_off_c, 1, 44, 0
1, 12465, Note_on_c, 1, 47, 127
1, 12465, Note_on_c, 1, 77, 127
1, 12512, Note_off_c, 1, 71, 0
1, 12657, Note_off_c, 1, 47, 0
1, 12657, Note_off_c, 1, 77, 0
1, 12662, Note_on_c, 1, 45, 127
1, 12662, Note_on_c, 1, 66, 127
1, 12854, Note_off_c, 1, 45, 0
1, 12859, Note_on_c, 1, 44, 127
1, 13051, Note_off_c, 1, 44, 0
1, 13055, Note_on_c, 1, 42, 127
1, 13055, Note_on_c, 1, 69, 127
1, 13247, Note_off_c, 1, 42, 0
1, 13399, Note_off_c, 1, 66, 0
1, 13444, Note_off_c, 1, 69, 0
1, 13449, Note_on_c, 1, 71, 127
1, 13449, Note_on_c, 1, 50, 127
1, 13641, Note_off_c, 1, 71, 0
1, 13646, Note_on_c, 1, 73, 127
1, 13838, Note_off_c, 1, 50, 0
1, 13838, Note_off_c, 1, 73, 0
1, 13843, Note_on_c, 1, 74, 127
1, 13843, Note_on_c, 1, 54, 127
1, 14035, Note_off_c, 1, 74, 0
1, 14040, Note_on_c, 1, 71, 127
1, 14232, Note_off_c, 1, 54, 0
1, 14232, Note_off_c, 1, 71, 0
1, 14236, Note_on_c, 1, 47, 127
1, 14236, Note_on_c, 1, 68, 127
1, 14428, Note_off_c, 1, 47, 0
1, 14433, Note_on_c, 1, 45, 127
1, 14625, Note_off_c, 1, 45, 0
1, 14630, Note_on_c, 1, 44, 127
1, 14630, Note_on_c, 1, 71, 127
1, 14822, Note_off_c, 1, 44, 0
1, 14973, Note_off_c, 1, 68, 0
1, 15019, Note_off_c, 1, 71, 0
1, 15023, Note_on_c, 1, 73, 127
1, 15023, Note_on_c, 1, 52, 127
1, 15215, Note_off_c, 1, 73, 0
1, 15220, Note_on_c, 1, 74, 127
1, 15412, Note_off_c, 1, 52, 0
1, 15412, Note_off_c, 1, 74, 0
1, 15417, Note_on_c, 1, 76, 127
1, 15417, Note_on_c, 1, 56, 127
1, 15609, Note_off_c, 1, 76, 0
1, 15614, Note_on_c, 1, 73, 127
1, 15806, Note_off_c, 1, 56, 0
1, 15806, Note_off_c, 1, 73, 0
1, 15811, Note_on_c, 1, 49, 127
1, 15811, Note_on_c, 1, 69, 127
1, 16003, Note_off_c, 1, 49, 0
1, 16007, Note_on_c, 1, 47, 127
1, 16199, Note_off_c, 1, 47, 0
1, 16204, Note_on_c, 1, 45, 127
1, 16204, Note_on_c, 1, 73, 127
1, 16396, Note_off_c, 1, 45, 0
1, 16588, Note_off_c, 1, 69, 0
1, 16593, Note_off_c, 1, 73, 0
1, 16598, Note_on_c, 1, 50, 127
1, 16598, Note_on_c, 1, 78, 127
1, 16790, Note_off_c, 1, 50, 0
1, 16795, Note_on_c, 1, 76, 127
1, 16795, Note_on_c, 1, 52, 127
1, 16863, Note_off_c, 1, 78, 0
1, 16977, Note_off_c, 1, 76, 0
1, 16987, Note_off_c, 1, 52, 0
1, 16992, Note_on_c, 1, 54, 127
1, 16992, Note_on_c, 1, 74, 127
1, 17184, Note_off_c, 1, 54, 0
1, 17189, Note_on_c, 1, 57, 127
1, 17189, Note_on_c, 1, 78, 127
1, 17359, Note_off_c, 1, 74, 0
1, 17381, Note_off_c, 1, 57, 0
1, 17381, Note_off_c, 1, 78, 0
1, 17386, Note_on_c, 1, 49, 127
1, 17386, Note_on_c, 1, 76, 127
1, 17578, Note_off_c, 1, 49, 0
1, 17583, Note_on_c, 1, 74, 127
1, 17583, Note_on_c, 1, 50, 127
1, 17651, Note_off_c, 1, 76, 0
1, 17765, Note_off_c, 1, 74, 0
1, 17775, Note_off_c, 1, 50, 0
1, 17780, Note_on_c, 1, 52, 127
1, 17780, Note_on_c, 1, 73, 127
1, 17972, Note_off_c, 1, 52, 0
1, 17976, Note_on_c, 1, 57, 127
1, 17976, Note_on_c, 1, 76, 127
1, 18147, Note_off_c, 1, 73, 0
1, 18168, Note_off_c, 1, 57, 0
1, 18168, Note_off_c, 1, 76, 0
1, 18173, Note_on_c, 1, 47, 127
1, 18173, Note_on_c, 1, 74, 127
1, 18365, Note_off_c, 1, 47, 0
1, 18370, Note_on_c, 1, 73, 127
1, 18370, Note_on_c, 1, 49, 127
1, 18438, Note_off_c, 1, 74, 0
1, 18552, Note_off_c, 1, 73, 0
1, 18562, Note_off_c, 1, 49, 0
1, 18567, Note_on_c, 1, 50, 127
1, 18567, Note_on_c, 1, 71, 127
1, 18759, Note_off_c, 1, 50, 0
1, 18763, Note_on_c, 1, 56, 127
1, 18763, Note_on_c, 1, 74, 127
1, 18851, Note_off_c, 1, 71, 0
1, 18955, Note_off_c, 1, 56, 0
1, 18955, Note_off_c, 1, 74, 0
1, 18960, Note_on_c, 1, 73, 127
1, 18960, Note_on_c, 1, 45, 127
1, 19157, Note_on_c, 1, 71, 127
1, 19185, Note_off_c, 1, 73, 0
1, 19349, Note_off_c, 1, 45, 0
1, 19349, Note_off_c, 1, 71, 0
1, 19354, Note_on_c, 1, 57, 127
1, 19354, Note_on_c, 1, 69, 127
1, 19546, Note_off_c, 1, 57, 0
1, 19546, Note_off_c, 1, 69, 0
1, 19551, Note_on_c, 1, 59, 127
1, 19551, Note_on_c, 1, 68, 127
1, 19743, Note_off_c, 1, 59, 0
1, 19743, Note_off_c, 1, 68, 0
1, 19748, Note_on_c, 1, 61, 127
1, 19748, Note_on_c, 1, 69, 127
1, 19940, Note_off_c, 1, 61, 0
1, 19944, Note_on_c, 1, 59, 127
1, 19944, Note_on_c, 1, 71, 127
1, 20136, Note_off_c, 1, 59, 0
1, 20136, Note_off_c, 1, 71, 0
1, 20141, Note_on_c, 1, 57, 127
1, 20141, Note_on_c, 1, 73, 127
1, 20333, Note_off_c, 1, 57, 0
1, 20333, Note_off_c, 1, 73, 0
1, 20338, Note_on_c, 1, 76, 127
1, 20485, Note_off_c, 1, 69, 0
1, 20530, Note_off_c, 1, 76, 0
1, 20535, Note_on_c, 1, 59, 127
1, 20535, Note_on_c, 1, 68, 127
1, 20727, Note_off_c, 1, 59, 0
1, 20732, Note_on_c, 1, 57, 127
1, 20732, Note_on_c, 1, 69, 127
1, 20924, Note_off_c, 1, 57, 0
1, 20924, Note_off_c, 1, 69, 0
1, 20929, Note_on_c, 1, 56, 127
1, 20929, Note_on_c, 1, 71, 127
1, 21121, Note_off_c, 1, 56, 0
1, 21121, Note_off_c, 1, 71, 0
1, 21126, Note_on_c, 1, 76, 127
1, 21272, Note_off_c, 1, 68, 0
1, 21318, Note_off_c, 1, 76, 0
1, 21323, Note_on_c, 1, 57, 127
1, 21323, Note_on_c, 1, 66, 127
1, 21515, Note_off_c, 1, 57, 0
1, 21519, Note_on_c, 1, 56, 127
1, 21519, Note_on_c, 1, 68, 127
1, 21711, Note_off_c, 1, 56, 0
1, 21711, Note_off_c, 1, 68, 0
1, 21716, Note_on_c, 1, 54, 127
1, 21716, Note_on_c, 1, 69, 127
1, 21908, Note_off_c, 1, 54, 0
1, 21908, Note_off_c, 1, 69, 0
1, 21912, Note_on_c, 1, 75, 127
1, 22018, Note_off_c, 1, 66, 0
1, 22104, Note_off_c, 1, 75, 0
1, 22109, Note_on_c, 1, 56, 127
1, 22109, Note_on_c, 1, 64, 127
1, 22301, Note_off_c, 1, 56, 0
1, 22306, Note_on_c, 1, 54, 127
1, 22488, Note_off_c, 1, 64, 0
1, 22498, Note_off_c, 1, 54, 0
1, 22503, Note_on_c, 1, 52, 127
1, 22503, Note_on_c, 1, 80, 127
1, 22695, Note_off_c, 1, 52, 0
1, 22700, Note_on_c, 1, 56, 127
1, 22892, Note_off_c, 1, 56, 0
1, 22897, Note_on_c, 1, 61, 127
1, 23089, Note_off_c, 1, 80, 0
1, 23094, Note_on_c, 1, 76, 127
1, 23286, Note_off_c, 1, 61, 0
1, 23286, Note_off_c, 1, 76, 0
1, 23291, Note_on_c, 1, 73, 127
1, 23291, Note_on_c, 1, 64, 127
1, 23483, Note_off_c, 1, 73, 0
1, 23488, Note_on_c, 1, 72, 127
1, 23680, Note_off_c, 1, 64, 0
1, 23680, Note_off_c, 1, 72, 0
1, 23685, Note_on_c, 1, 57, 127
1, 23685, Note_on_c, 1, 73, 127
1, 23877, Note_off_c, 1, 57, 0
1, 23882, Note_on_c, 1, 56, 127
1, 24061, Note_off_c, 1, 73, 0
1, 24074, Note_off_c, 1, 56, 0
1, 24079, Note_on_c, 1, 54, 127
1, 24079, Note_on_c, 1, 81, 127
1, 24271, Note_off_c, 1, 54, 0
1, 24275, Note_on_c, 1, 57, 127
1, 24467, Note_off_c, 1, 57, 0
1, 24472, Note_on_c, 1, 63, 127
1, 24665, Note_off_c, 1, 81, 0
1, 24669, Note_on_c, 1, 78, 127
1, 24861, Note_off_c, 1, 63, 0
1, 24861, Note_off_c, 1, 78, 0
1, 24865, Note_on_c, 1, 75, 127
1, 24865, Note_on_c, 1, 66, 127
1, 25057, Note_off_c, 1, 75, 0
1, 25062, Note_on_c, 1, 73, 127
1, 25241, Note_off_c, 1, 66, 0
1, 25254, Note_off_c, 1, 73, 0
1, 25259, Note_on_c, 1, 72, 127
1, 25259, Note_on_c, 1, 56, 127
1, 25456, Note_on_c, 1, 75, 127
1, 25645, Note_off_c, 1, 72, 0
1, 25648, Note_off_c, 1, 75, 0
1, 25652, Note_on_c, 1, 80, 127
1, 25652, Note_on_c, 1, 64, 127
1, 25849, Note_on_c, 1, 73, 127
1, 26016, Note_off_c, 1, 56, 0
1, 26038, Note_off_c, 1, 80, 0
1, 26041, Note_off_c, 1, 73, 0
1, 26046, Note_on_c, 1, 81, 127
1, 26046, Note_on_c, 1, 54, 127
1, 26238, Note_off_c, 1, 81, 0
1, 26429, Note_off_c, 1, 64, 0
1, 26440, Note_on_c, 1, 78, 127
1, 26440, Note_on_c, 1, 63, 127
1, 26632, Note_off_c, 1, 78, 0
1, 26803, Note_off_c, 1, 54, 0
1, 26834, Note_on_c, 1, 52, 127
1, 27217, Note_off_c, 1, 63, 0
1, 27227, Note_on_c, 1, 76, 127
1, 27227, Note_on_c, 1, 61, 127
1, 27419, Note_off_c, 1, 76, 0
1, 27591, Note_off_c, 1, 52, 0
1, 27621, Note_on_c, 1, 51, 127
1, 28004, Note_off_c, 1, 61, 0
1, 28015, Note_on_c, 1, 60, 127
1, 28358, Note_off_c, 1, 51, 0
1, 28382, Note_off_c, 1, 60, 0
1, 28409, Note_on_c, 1, 76, 127
1, 28409, Note_on_c, 1, 49, 127
1, 28601, Note_off_c, 1, 76, 0
1, 28606, Note_on_c, 1, 75, 127
1, 28798, Note_off_c, 1, 75, 0
1, 28803, Note_on_c, 1, 73, 127
1, 28803, Note_on_c, 1, 61, 127
1, 28995, Note_off_c, 1, 73, 0
1, 29000, Note_on_c, 1, 77, 127
1, 29186, Note_off_c, 1, 49, 0
1, 29192, Note_off_c, 1, 61, 0
1, 29192, Note_off_c, 1, 77, 0
1, 29197, Note_on_c, 1, 53, 127
1, 29197, Note_on_c, 1, 80, 127
1, 29389, Note_off_c, 1, 53, 0
1, 29394, Note_on_c, 1, 54, 127
1, 29586, Note_off_c, 1, 54, 0
1, 29590, Note_on_c, 1, 56, 127
1, 29590, Note_on_c, 1, 71, 127
1, 29782, Note_off_c, 1, 56, 0
1, 29966, Note_off_c, 1, 71, 0
1, 29974, Note_off_c, 1, 80, 0
1, 29982, Note_on_c, 1, 54, 127
1, 29982, Note_on_c, 1, 69, 127
1, 30174, Note_off_c, 1, 54, 0
1, 30174, Note_off_c, 1, 69, 0
1, 30179, Note_on_c, 1, 56, 127
1, 30179, Note_on_c, 1, 68, 127
1, 30371, Note_off_c, 1, 56, 0
1, 30371, Note_off_c, 1, 68, 0
1, 30376, Note_on_c, 1, 57, 127
1, 30376, Note_on_c, 1, 66, 127
1, 30568, Note_off_c, 1, 57, 0
1, 30568, Note_off_c, 1, 66, 0
1, 30573, Note_on_c, 1, 54, 127
1, 30573, Note_on_c, 1, 73, 127
1, 30765, Note_off_c, 1, 54, 0
1, 30765, Note_off_c, 1, 73, 0
1, 30770, Note_on_c, 1, 51, 127
1, 30770, Note_on_c, 1, 78, 127
1, 30962, Note_off_c, 1, 51, 0
1, 30967, Note_on_c, 1, 52, 127
1, 31159, Note_off_c, 1, 52, 0
1, 31164, Note_on_c, 1, 54, 127
1, 31164, Note_on_c, 1, 75, 127
1, 31356, Note_off_c, 1, 54, 0
1, 31540, Note_off_c, 1, 75, 0
1, 31558, Note_on_c, 1, 72, 127
1, 31558, Note_on_c, 1, 56, 127
1, 31688, Note_off_c, 1, 78, 0
1, 31750, Note_off_c, 1, 72, 0
1, 31755, Note_on_c, 1, 70, 127
1, 31947, Note_off_c, 1, 56, 0
1, 31947, Note_off_c, 1, 70, 0
1, 31952, Note_on_c, 1, 68, 127
1, 31952, Note_on_c, 1, 49, 127
1, 32149, Note_on_c, 1, 76, 127
1, 32339, Note_off_c, 1, 68, 0
1, 32341, Note_off_c, 1, 49, 0
1, 32346, Note_on_c, 1, 69, 127
1, 32346, Note_on_c, 1, 54, 127
1, 32538, Note_off_c, 1, 69, 0
1, 32557, Note_off_c, 1, 76, 0
1, 32735, Note_off_c, 1, 54, 0
1, 32739, Note_on_c, 1, 66, 127
1, 32739, Note_on_c, 1, 48, 127
1, 32936, Note_on_c, 1, 75, 127
1, 33126, Note_off_c, 1, 66, 0
1, 33128, Note_off_c, 1, 48, 0
1, 33133, Note_on_c, 1, 68, 127
1, 33133, Note_on_c, 1, 52, 127
1, 33325, Note_off_c, 1, 68, 0
1, 33344, Note_off_c, 1, 75, 0
1, 33522, Note_off_c, 1, 52, 0
1, 33526, Note_on_c, 1, 64, 127
1, 33526, Note_on_c, 1, 49, 127
1, 33723, Note_on_c, 1, 73, 127
1, 33913, Note_off_c, 1, 64, 0
1, 33915, Note_off_c, 1, 49, 0
1, 33920, Note_on_c, 1, 66, 127
1, 33920, Note_on_c, 1, 51, 127
1, 34049, Note_off_c, 1, 73, 0
1, 34112, Note_off_c, 1, 66, 0
1, 34309, Note_off_c, 1, 51, 0
1, 34314, Note_on_c, 1, 63, 127
1, 34314, Note_on_c, 1, 44, 127
1, 34511, Note_on_c, 1, 72, 127
1, 34559, Note_off_c, 1, 63, 0
1, 34703, Note_off_c, 1, 44, 0
1, 34703, Note_off_c, 1, 72, 0
1, 34707, Note_on_c, 1, 73, 127
1, 34707, Note_on_c, 1, 45, 127
1, 34899, Note_off_c, 1, 73, 0
1, 34904, Note_on_c, 1, 72, 127
1, 35096, Note_off_c, 1, 45, 0
1, 35096, Note_off_c, 1, 72, 0
1, 35101, Note_on_c, 1, 73, 127
1, 35101, Note_on_c, 1, 42, 127
1, 35293, Note_off_c, 1, 73, 0
1, 35298, Note_on_c, 1, 78, 127
1, 35490, Note_off_c, 1, 42, 0
1, 35490, Note_off_c, 1, 78, 0
1, 35494, Note_on_c, 1, 44, 127
1, 35494, Note_on_c, 1, 76, 127
1, 35686, Note_off_c, 1, 44, 0
1, 35691, Note_on_c, 1, 42, 127
1, 35729, Note_off_c, 1, 76, 0
1, 35732, Note_on_c, 1, 75, 127
1, 35830, Note_off_c, 1, 75, 0
1, 35883, Note_off_c, 1, 42, 0
1, 36085, Note_on_c, 1, 73, 127
1, 36277, Note_off_c, 1, 73, 0
1, 36282, Note_on_c, 1, 37, 127
1, 36282, Note_on_c, 1, 73, 127
1, 36686, Note_on_c, 1, 68, 127
1, 37065, Note_off_c, 1, 37, 0
1, 37065, Note_off_c, 1, 68, 0
1, 37070, Note_on_c, 1, 69, 127
1, 37070, Note_on_c, 1, 54, 127
1, 37262, Note_off_c, 1, 69, 0
1, 37463, Note_on_c, 1, 66, 127
1, 37655, Note_off_c, 1, 66, 0
1, 37853, Note_off_c, 1, 54, 0
1, 37857, Note_on_c, 1, 52, 127
1, 38250, Note_on_c, 1, 64, 127
1, 38442, Note_off_c, 1, 64, 0
1, 38640, Note_off_c, 1, 52, 0
1, 38644, Note_on_c, 1, 51, 127
1, 39038, Note_on_c, 1, 63, 127
1, 39230, Note_off_c, 1, 63, 0
1, 39418, Note_off_c, 1, 73, 0
1, 39427, Note_off_c, 1, 51, 0
1, 39432, Note_on_c, 1, 49, 127
1, 39432, Note_on_c, 1, 64, 127
1, 39624, Note_off_c, 1, 49, 0
1, 39628, Note_on_c, 1, 52, 127
1, 39820, Note_off_c, 1, 52, 0
1, 39825, Note_on_c, 1, 54, 127
1, 40017, Note_off_c, 1, 54, 0
1, 40022, Note_on_c, 1, 56, 127
1, 40214, Note_off_c, 1, 56, 0
1, 40215, Note_off_c, 1, 64, 0
1, 40219, Note_on_c, 1, 57, 127
1, 40219, Note_on_c, 1, 66, 127
1, 40411, Note_off_c, 1, 57, 0
1, 40416, Note_on_c, 1, 56, 127
1, 40416, Note_on_c, 1, 68, 127
1, 40504, Note_off_c, 1, 66, 0
1, 40608, Note_off_c, 1, 56, 0
1, 40608, Note_off_c, 1, 68, 0
1, 40613, Note_on_c, 1, 54, 127
1, 40613, Note_on_c, 1, 69, 127
1, 40805, Note_off_c, 1, 54, 0
1, 40805, Note_off_c, 1, 69, 0
1, 40810, Note_on_c, 1, 57, 127
1, 40810, Note_on_c, 1, 73, 127
1, 41002, Note_off_c, 1, 57, 0
1, 41006, Note_on_c, 1, 56, 127
1, 41006, Note_on_c, 1, 64, 127
1, 41095, Note_off_c, 1, 73, 0
1, 41198, Note_off_c, 1, 56, 0
1, 41202, Note_on_c, 1, 54, 127
1, 41202, Note_on_c, 1, 66, 127
1, 41291, Note_off_c, 1, 64, 0
1, 41394, Note_off_c, 1, 54, 0
1, 41394, Note_off_c, 1, 66, 0
1, 41399, Note_on_c, 1, 52, 127
1, 41399, Note_on_c, 1, 68, 127
1, 41591, Note_off_c, 1, 52, 0
1, 41591, Note_off_c, 1, 68, 0
1, 41596, Note_on_c, 1, 56, 127
1, 41596, Note_on_c, 1, 73, 127
1, 41788, Note_off_c, 1, 56, 0
1, 41793, Note_on_c, 1, 54, 127
1, 41793, Note_on_c, 1, 63, 127
1, 41881, Note_off_c, 1, 73, 0
1, 41985, Note_off_c, 1, 54, 0
1, 41990, Note_on_c, 1, 52, 127
1, 41990, Note_on_c, 1, 64, 127
1, 42078, Note_off_c, 1, 63, 0
1, 42182, Note_off_c, 1, 52, 0
1, 42182, Note_off_c, 1, 64, 0
1, 42187, Note_on_c, 1, 51, 127
1, 42187, Note_on_c, 1, 66, 127
1, 42379, Note_off_c, 1, 51, 0
1, 42379, Note_off_c, 1, 66, 0
1, 42384, Note_on_c, 1, 54, 127
1, 42384, Note_on_c, 1, 72, 127
1, 42576, Note_off_c, 1, 54, 0
1, 42576, Note_off_c, 1, 72, 0
1, 42581, Note_on_c, 1, 52, 127
1, 42581, Note_on_c, 1, 73, 127
1, 42773, Note_off_c, 1, 52, 0
1, 42778, Note_on_c, 1, 51, 127
1, 42970, Note_off_c, 1, 51, 0
1, 42975, Note_on_c, 1, 49, 127
1, 42975, Note_on_c, 1, 61, 127
1, 43167, Note_off_c, 1, 49, 0
1, 43172, Note_on_c, 1, 47, 127
1, 43358, Note_off_c, 1, 73, 0
1, 43364, Note_off_c, 1, 61, 0
1, 43364, Note_off_c, 1, 47, 0
1, 43369, Note_on_c, 1, 46, 127
1, 43369, Note_on_c, 1, 64, 127
1, 43430, Note_on_c, 1, 66, 127
1, 43491, Note_on_c, 1, 73, 127
1, 43561, Note_off_c, 1, 46, 0
1, 43566, Note_on_c, 1, 47, 127
1, 43758, Note_off_c, 1, 47, 0
1, 43763, Note_on_c, 1, 49, 127
1, 43955, Note_off_c, 1, 49, 0
1, 44073, Note_off_c, 1, 73, 0
1, 44095, Note_off_c, 1, 66, 0
1, 44116, Note_off_c, 1, 64, 0
1, 44156, Note_on_c, 1, 47, 127
1, 44156, Note_on_c, 1, 62, 127
1, 44238, Note_on_c, 1, 66, 127
1, 44319, Note_on_c, 1, 74, 127
1, 44348, Note_off_c, 1, 47, 0
1, 44353, Note_on_c, 1, 49, 127
1, 44545, Note_off_c, 1, 49, 0
1, 44549, Note_on_c, 1, 50, 127
1, 44741, Note_off_c, 1, 50, 0
1, 44881, Note_off_c, 1, 74, 0
1, 44893, Note_off_c, 1, 66, 0
1, 44903, Note_off_c, 1, 62, 0
1, 44942, Note_on_c, 1, 49, 127
1, 44942, Note_on_c, 1, 61, 127
1, 45046, Note_on_c, 1, 64, 127
1, 45134, Note_off_c, 1, 49, 0
1, 45139, Note_on_c, 1, 50, 127
1, 45148, Note_on_c, 1, 70, 127
1, 45331, Note_off_c, 1, 50, 0
1, 45336, Note_on_c, 1, 52, 127
1, 45528, Note_off_c, 1, 52, 0
1, 45689, Note_off_c, 1, 61, 0
1, 45690, Note_off_c, 1, 70, 0
1, 45691, Note_off_c, 1, 64, 0
1, 45730, Note_on_c, 1, 59, 127
1, 45730, Note_on_c, 1, 50, 127
1, 45732, Note_on_c, 1, 66, 127
1, 45734, Note_on_c, 1, 71, 127
1, 45922, Note_off_c, 1, 59, 0
1, 45926, Note_off_c, 1, 71, 0
1, 45927, Note_on_c, 1, 69, 127
1, 46119, Note_off_c, 1, 66, 0
1, 46119, Note_off_c, 1, 69, 0
1, 46124, Note_on_c, 1, 68, 127
1, 46316, Note_off_c, 1, 68, 0
1, 46513, Note_off_c, 1, 50, 0
1, 46518, Note_on_c, 1, 68, 127
1, 46518, Note_on_c, 1, 62, 127
1, 46518, Note_on_c, 1, 64, 127
1, 46710, Note_off_c, 1, 68, 0
1, 46714, Note_on_c, 1, 69, 127
1, 46906, Note_off_c, 1, 69, 0
1, 46911, Note_on_c, 1, 71, 127
1, 47103, Note_off_c, 1, 71, 0
1, 47213, Note_off_c, 1, 62, 0
1, 47213, Note_off_c, 1, 64, 0
1, 47305, Note_on_c, 1, 69, 127
1, 47305, Note_on_c, 1, 61, 127
1, 47305, Note_on_c, 1, 66, 127
1, 47497, Note_off_c, 1, 69, 0
1, 47502, Note_on_c, 1, 71, 127
1, 47694, Note_off_c, 1, 71, 0
1, 47699, Note_on_c, 1, 73, 127
1, 47891, Note_off_c, 1, 73, 0
1, 48000, Note_off_c, 1, 61, 0
1, 48000, Note_off_c, 1, 66, 0
1, 48093, Note_on_c, 1, 71, 127
1, 48093, Note_on_c, 1, 59, 127
1, 48093, Note_on_c, 1, 68, 127
1, 48285, Note_off_c, 1, 71, 0
1, 48290, Note_on_c, 1, 73, 127
1, 48482, Note_off_c, 1, 73, 0
1, 48487, Note_on_c, 1, 74, 127
1, 48679, Note_off_c, 1, 74, 0
1, 48788, Note_off_c, 1, 59, 0
1, 48788, Note_off_c, 1, 68, 0
1, 48880, Note_on_c, 1, 57, 127
1, 48880, Note_on_c, 1, 73, 127
1, 48880, Note_on_c, 1, 69, 127
1, 49072, Note_off_c, 1, 57, 0
1, 49072, Note_off_c, 1, 73, 0
1, 49077, Note_on_c, 1, 59, 127
1, 49077, Note_on_c, 1, 71, 127
1, 49267, Note_off_c, 1, 69, 0
1, 49269, Note_off_c, 1, 59, 0
1, 49269, Note_off_c, 1, 71, 0
1, 49274, Note_on_c, 1, 61, 127
1, 49274, Note_on_c, 1, 69, 127
1, 49466, Note_off_c, 1, 61, 0
1, 49466, Note_off_c, 1, 69, 0
1, 49469, Note_on_c, 1, 57, 127
1, 49469, Note_on_c, 1, 68, 127
1, 49661, Note_off_c, 1, 57, 0
1, 49661, Note_off_c, 1, 68, 0
1, 49666, Note_on_c, 1, 66, 127
1, 49666, Note_on_c, 1, 62, 127
1, 49863, Note_on_c, 1, 76, 127
1, 50053, Note_off_c, 1, 66, 0
1, 50055, Note_off_c, 1, 62, 0
1, 50055, Note_off_c, 1, 76, 0
1, 50060, Note_on_c, 1, 74, 127
1, 50060, Note_on_c, 1, 54, 127
1, 50252, Note_off_c, 1, 74, 0
1, 50257, Note_on_c, 1, 73, 127
1, 50427, Note_off_c, 1, 54, 0
1, 50449, Note_off_c, 1, 73, 0
1, 50454, Note_on_c, 1, 56, 127
1, 50454, Note_on_c, 1, 71, 127
1, 50646, Note_off_c, 1, 56, 0
1, 50646, Note_off_c, 1, 71, 0
1, 50651, Note_on_c, 1, 57, 127
1, 50651, Note_on_c, 1, 69, 127
1, 50843, Note_off_c, 1, 57, 0
1, 50843, Note_off_c, 1, 69, 0
1, 50848, Note_on_c, 1, 59, 127
1, 50848, Note_on_c, 1, 68, 127
1, 51040, Note_off_c, 1, 59, 0
1, 51040, Note_off_c, 1, 68, 0
1, 51045, Note_on_c, 1, 56, 127
1, 51045, Note_on_c, 1, 66, 127
1, 51237, Note_off_c, 1, 56, 0
1, 51237, Note_off_c, 1, 66, 0
1, 51242, Note_on_c, 1, 65, 127
1, 51242, Note_on_c, 1, 61, 127
1, 51439, Note_on_c, 1, 74, 127
1, 51629, Note_off_c, 1, 65, 0
1, 51631, Note_off_c, 1, 61, 0
1, 51631, Note_off_c, 1, 74, 0
1, 51636, Note_on_c, 1, 73, 127
1, 51636, Note_on_c, 1, 53, 127
1, 51828, Note_off_c, 1, 73, 0
1, 51833, Note_on_c, 1, 71, 127
1, 51999, Note_off_c, 1, 53, 0
1, 52025, Note_off_c, 1, 71, 0
1, 52030, Note_on_c, 1, 54, 127
1, 52030, Note_on_c, 1, 69, 127
1, 52222, Note_off_c, 1, 54, 0
1, 52222, Note_off_c, 1, 69, 0
1, 52226, Note_on_c, 1, 42, 127
1, 52226, Note_on_c, 1, 68, 127
1, 52418, Note_off_c, 1, 42, 0
1, 52418, Note_off_c, 1, 68, 0
1, 52423, Note_on_c, 1, 44, 127
1, 52423, Note_on_c, 1, 66, 127
1, 52615, Note_off_c, 1, 44, 0
1, 52615, Note_off_c, 1, 66, 0
1, 52619, Note_on_c, 1, 45, 127
1, 52619, Note_on_c, 1, 64, 127
1, 52811, Note_off_c, 1, 45, 0
1, 52811, Note_off_c, 1, 64, 0
1, 52816, Note_on_c, 1, 47, 127
1, 52816, Note_on_c, 1, 62, 127
1, 53008, Note_off_c, 1, 47, 0
1, 53013, Note_on_c, 1, 49, 127
1, 53013, Note_on_c, 1, 69, 127
1, 53205, Note_off_c, 1, 49, 0
1, 53205, Note_off_c, 1, 69, 0
1, 53210, Note_on_c, 1, 50, 127
1, 53210, Note_on_c, 1, 68, 127
1, 53402, Note_off_c, 1, 50, 0
1, 53402, Note_off_c, 1, 68, 0
1, 53407, Note_on_c, 1, 66, 127
1, 53593, Note_off_c, 1, 62, 0
1, 53599, Note_off_c, 1, 66, 0
1, 53604, Note_on_c, 1, 65, 127
1, 53604, Note_on_c, 1, 49, 127
1, 53801, Note_on_c, 1, 63, 127
1, 53993, Note_off_c, 1, 63, 0
1, 53998, Note_on_c, 1, 61, 127
1, 54176, Note_off_c, 1, 65, 0
1, 54190, Note_off_c, 1, 49, 0
1, 54195, Note_on_c, 1, 59, 127
1, 54387, Note_off_c, 1, 59, 0
1, 54391, Note_on_c, 1, 57, 127
1, 54583, Note_off_c, 1, 57, 0
1, 54584, Note_off_c, 1, 61, 0
1, 54588, Note_on_c, 1, 56, 127
1, 54588, Note_on_c, 1, 71, 127
1, 54780, Note_off_c, 1, 56, 0
1, 54780, Note_off_c, 1, 71, 0
1, 54785, Note_on_c, 1, 54, 127
1, 54785, Note_on_c, 1, 69, 127
1, 54977, Note_off_c, 1, 54, 0
1, 54977, Note_off_c, 1, 69, 0
1, 54981, Note_on_c, 1, 53, 127
1, 54981, Note_on_c, 1, 68, 127
1, 55173, Note_off_c, 1, 53, 0
1, 55173, Note_off_c, 1, 68, 0
1, 55178, Note_on_c, 1, 54, 127
1, 55178, Note_on_c, 1, 69, 127
1, 55370, Note_off_c, 1, 54, 0
1, 55370, Note_off_c, 1, 69, 0
1, 55375, Note_on_c, 1, 56, 127
1, 55375, Note_on_c, 1, 71, 127
1, 55567, Note_off_c, 1, 56, 0
1, 55567, Note_off_c, 1, 71, 0
1, 55572, Note_on_c, 1, 57, 127
1, 55572, Note_on_c, 1, 73, 127
1, 55764, Note_off_c, 1, 57, 0
1, 55764, Note_off_c, 1, 73, 0
1, 55769, Note_on_c, 1, 54, 127
1, 55769, Note_on_c, 1, 74, 127
1, 55961, Note_off_c, 1, 54, 0
1, 55961, Note_off_c, 1, 74, 0
1, 55966, Note_on_c, 1, 73, 127
1, 55966, Note_on_c, 1, 62, 127
1, 55966, Note_on_c, 1, 66, 127
1, 56183, Note_on_c, 1, 71, 127
1, 56189, Note_off_c, 1, 73, 0
1, 56277, Note_off_c, 1, 71, 0
1, 56355, Note_off_c, 1, 62, 0
1, 56360, Note_on_c, 1, 50, 127
1, 56743, Note_off_c, 1, 66, 0
1, 56749, Note_off_c, 1, 50, 0
1, 56753, Note_on_c, 1, 49, 127
1, 56753, Note_on_c, 1, 65, 127
1, 56753, Note_on_c, 1, 73, 127
1, 57142, Note_off_c, 1, 49, 0
1, 57147, Note_on_c, 1, 61, 127
1, 57536, Note_off_c, 1, 65, 0
1, 57536, Note_off_c, 1, 73, 0
1, 57536, Note_off_c, 1, 61, 0
1, 57541, Note_on_c, 1, 62, 127
1, 57541, Note_on_c, 1, 68, 127
1, 57622, Note_on_c, 1, 71, 127
1, 57705, Note_on_c, 1, 77, 127
1, 57733, Note_off_c, 1, 62, 0
1, 57738, Note_on_c, 1, 61, 127
1, 57930, Note_off_c, 1, 61, 0
1, 57934, Note_on_c, 1, 59, 127
1, 58126, Note_off_c, 1, 59, 0
1, 58255, Note_off_c, 1, 77, 0
1, 58271, Note_off_c, 1, 71, 0
1, 58288, Note_off_c, 1, 68, 0
1, 58328, Note_on_c, 1, 61, 127
1, 58328, Note_on_c, 1, 69, 127
1, 58426, Note_on_c, 1, 73, 127
1, 58520, Note_off_c, 1, 61, 0
1, 58525, Note_on_c, 1, 59, 127
1, 58525, Note_on_c, 1, 78, 127
1, 58717, Note_off_c, 1, 59, 0
1, 58722, Note_on_c, 1, 57, 127
1, 58914, Note_off_c, 1, 57, 0
1, 59065, Note_off_c, 1, 73, 0
1, 59073, Note_off_c, 1, 78, 0
1, 59075, Note_off_c, 1, 69, 0
1, 59116, Note_on_c, 1, 59, 127
1, 59116, Note_on_c, 1, 65, 127
1, 59246, Note_on_c, 1, 73, 127
1, 59308, Note_off_c, 1, 59, 0
1, 59312, Note_on_c, 1, 57, 127
1, 59378, Note_on_c, 1, 80, 127
1, 59503, Note_off_c, 1, 65, 0
1, 59504, Note_off_c, 1, 57, 0
1, 59509, Note_on_c, 1, 56, 127
1, 59701, Note_off_c, 1, 56, 0
1, 59828, Note_off_c, 1, 80, 0
1, 60074, Note_off_c, 1, 73, 0
1, 60100, Note_on_c, 1, 56, 127
1, 60100, Note_on_c, 1, 73, 127
1, 60292, Note_off_c, 1, 56, 0
1, 60292, Note_off_c, 1, 73, 0
1, 60297, Note_on_c, 1, 54, 127
1, 60297, Note_on_c, 1, 78, 127
1, 60489, Note_off_c, 1, 54, 0
1, 60489, Note_off_c, 1, 78, 0
1, 60493, Note_on_c, 1, 57, 127
1, 60493, Note_on_c, 1, 76, 127
1, 60685, Note_off_c, 1, 57, 0
1, 60685, Note_off_c, 1, 76, 0
1, 60689, Note_on_c, 1, 59, 127
1, 60689, Note_on_c, 1, 74, 127
1, 60881, Note_off_c, 1, 59, 0
1, 60881, Note_off_c, 1, 74, 0
1, 60886, Note_on_c, 1, 57, 127
1, 60886, Note_on_c, 1, 73, 127
1, 61078, Note_off_c, 1, 57, 0
1, 61078, Note_off_c, 1, 73, 0
1, 61083, Note_on_c, 1, 56, 127
1, 61083, Note_on_c, 1, 71, 127
1, 61275, Note_off_c, 1, 56, 0
1, 61275, Note_off_c, 1, 71, 0
1, 61280, Note_on_c, 1, 59, 127
1, 61280, Note_on_c, 1, 74, 127
1, 61472, Note_off_c, 1, 59, 0
1, 61472, Note_off_c, 1, 74, 0
1, 61477, Note_on_c, 1, 57, 127
1, 61477, Note_on_c, 1, 73, 127
1, 61669, Note_off_c, 1, 57, 0
1, 61669, Note_off_c, 1, 73, 0
1, 61674, Note_on_c, 1, 56, 127
1, 61674, Note_on_c, 1, 71, 127
1, 61866, Note_off_c, 1, 56, 0
1, 61866, Note_off_c, 1, 71, 0
1, 61871, Note_on_c, 1, 54, 127
1, 61871, Note_on_c, 1, 69, 127
1, 62063, Note_off_c, 1, 54, 0
1, 62063, Note_off_c, 1, 69, 0
1, 62068, Note_on_c, 1, 57, 127
1, 62068, Note_on_c, 1, 73, 127
1, 62260, Note_off_c, 1, 57, 0
1, 62260, Note_off_c, 1, 73, 0
1, 62265, Note_on_c, 1, 56, 127
1, 62265, Note_on_c, 1, 71, 127
1, 62457, Note_off_c, 1, 56, 0
1, 62457, Note_off_c, 1, 71, 0
1, 62462, Note_on_c, 1, 54, 127
1, 62462, Note_on_c, 1, 69, 127
1, 62654, Note_off_c, 1, 54, 0
1, 62654, Note_off_c, 1, 69, 0
1, 62659, Note_on_c, 1, 53, 127
1, 62659, Note_on_c, 1, 68, 127
1, 62851, Note_off_c, 1, 53, 0
1, 62851, Note_off_c, 1, 68, 0
1, 62856, Note_on_c, 1, 56, 127
1, 62856, Note_on_c, 1, 71, 127
1, 63048, Note_off_c, 1, 56, 0
1, 63048, Note_off_c, 1, 71, 0
1, 63053, Note_on_c, 1, 69, 127
1, 63053, Note_on_c, 1, 54, 127
1, 63245, Note_off_c, 1, 69, 0
1, 63250, Note_on_c, 1, 71, 127
1, 63442, Note_off_c, 1, 54, 0
1, 63442, Note_off_c, 1, 71, 0
1, 63446, Note_on_c, 1, 45, 127
1, 63446, Note_on_c, 1, 73, 127
1, 63638, Note_off_c, 1, 45, 0
1, 63638, Note_off_c, 1, 73, 0
1, 63643, Note_on_c, 1, 47, 127
1, 63643, Note_on_c, 1, 74, 127
1, 63835, Note_off_c, 1, 47, 0
1, 63840, Note_on_c, 1, 49, 127
1, 63840, Note_on_c, 1, 65, 127
1, 64030, Note_off_c, 1, 74, 0
1, 64032, Note_off_c, 1, 49, 0
1, 64032, Note_off_c, 1, 65, 0
1, 64037, Note_on_c, 1, 47, 127
1, 64037, Note_on_c, 1, 74, 127
1, 64229, Note_off_c, 1, 47, 0
1, 64229, Note_off_c, 1, 74, 0
1, 64232, Note_on_c, 1, 45, 127
1, 64232, Note_on_c, 1, 73, 127
1, 64424, Note_off_c, 1, 45, 0
1, 64424, Note_off_c, 1, 73, 0
1, 64429, Note_on_c, 1, 44, 127
1, 64429, Note_on_c, 1, 71, 127
1, 64621, Note_off_c, 1, 44, 0
1, 64621, Note_off_c, 1, 71, 0
1, 64626, Note_on_c, 1, 69, 127
1, 64626, Note_on_c, 1, 42, 127
1, 64818, Note_off_c, 1, 69, 0
1, 64823, Note_on_c, 1, 68, 127
1, 65015, Note_off_c, 1, 42, 0
1, 65015, Note_off_c, 1, 68, 0
1, 65020, Note_on_c, 1, 69, 127
1, 65020, Note_on_c, 1, 47, 127
1, 65212, Note_off_c, 1, 69, 0
1, 65217, Note_on_c, 1, 66, 127
1, 65409, Note_off_c, 1, 47, 0
1, 65409, Note_off_c, 1, 66, 0
1, 65414, Note_on_c, 1, 66, 127
1, 65414, Note_on_c, 1, 49, 127
1, 65595, Note_on_c, 1, 65, 127
1, 65598, Note_off_c, 1, 66, 0
1, 65689, Note_off_c, 1, 65, 0
1, 65808, Note_on_c, 1, 37, 127
1, 65986, Note_off_c, 1, 49, 0
1, 66197, Note_off_c, 1, 37, 0
1, 66201, Note_on_c, 1, 42, 127
1, 66201, Note_on_c, 1, 66, 127
1, 66402, Note_on_c, 1, 57, 127
1, 66598, Note_off_c, 1, 57, 0
1, 66603, Note_on_c, 1, 59, 127
1, 66799, Note_off_c, 1, 59, 0
1, 66804, Note_on_c, 1, 61, 127
1, 67000, Note_off_c, 1, 42, 0
1, 67000, Note_off_c, 1, 61, 0
1, 67005, Note_on_c, 1, 62, 127
1, 67005, Note_on_c, 1, 47, 127
1, 67201, Note_off_c, 1, 62, 0
1, 67804, Note_off_c, 1, 47, 0
1, 67809, Note_on_c, 1, 45, 127
1, 68608, Note_off_c, 1, 45, 0
1, 68613, Note_on_c, 1, 44, 127
1, 69015, Note_on_c, 1, 56, 127
1, 69211, Note_off_c, 1, 56, 0
1, 69402, Note_off_c, 1, 66, 0
1, 69412, Note_off_c, 1, 44, 0
1, 69417, Note_on_c, 1, 42, 127
1, 69417, Note_on_c, 1, 57, 127
1, 69615, Note_off_c, 1, 42, 0
1, 69620, Note_on_c, 1, 45, 127
1, 69818, Note_off_c, 1, 45, 0
1, 69823, Note_on_c, 1, 47, 127
1, 70021, Note_off_c, 1, 47, 0
1, 70026, Note_on_c, 1, 49, 127
1, 70224, Note_off_c, 1, 49, 0
1, 70225, Note_off_c, 1, 57, 0
1, 70229, Note_on_c, 1, 50, 127
1, 70229, Note_on_c, 1, 59, 127
1, 70427, Note_off_c, 1, 50, 0
1, 70432, Note_on_c, 1, 49, 127
1, 70432, Note_on_c, 1, 61, 127
1, 70630, Note_off_c, 1, 49, 0
1, 70630, Note_off_c, 1, 61, 0
1, 70635, Note_on_c, 1, 47, 127
1, 70635, Note_on_c, 1, 62, 127
1, 70833, Note_off_c, 1, 47, 0
1, 70833, Note_off_c, 1, 62, 0
1, 70838, Note_on_c, 1, 66, 127
1, 71030, Note_off_c, 1, 59, 0
1, 71041, Note_on_c, 1, 57, 127
1, 71237, Note_off_c, 1, 66, 0
1, 71447, Note_on_c, 1, 45, 127
1, 71645, Note_off_c, 1, 45, 0
1, 71842, Note_off_c, 1, 57, 0
1, 71853, Note_on_c, 1, 56, 127
1, 72275, Note_on_c, 1, 44, 127
1, 72468, Note_off_c, 1, 56, 0
1, 72482, Note_off_c, 1, 44, 0
1, 72484, Note_on_c, 1, 47, 127
1, 72484, Note_on_c, 1, 65, 127
1, 72693, Note_off_c, 1, 47, 0
1, 72693, Note_off_c, 1, 65, 0
1, 72695, Note_on_c, 1, 45, 127
1, 72695, Note_on_c, 1, 66, 127
1, 72923, Note_on_c, 1, 62, 127
1, 73147, Note_off_c, 1, 45, 0
1, 73148, Note_off_c, 1, 62, 0
1, 73151, Note_on_c, 1, 61, 127
1, 73151, Note_on_c, 1, 47, 127
1, 73376, Note_off_c, 1, 61, 0
1, 73378, Note_on_c, 1, 59, 127
1, 73603, Note_off_c, 1, 47, 0
1, 73603, Note_off_c, 1, 59, 0
1, 73605, Note_on_c, 1, 57, 127
1, 73605, Note_on_c, 1, 49, 127
1, 73850, Note_off_c, 1, 66, 0
1, 74123, Note_off_c, 1, 57, 0
1, 74130, Note_on_c, 1, 56, 127
1, 74130, Note_on_c, 1, 37, 127
1, 74393, Note_on_c, 1, 65, 127
1, 74644, Note_off_c, 1, 49, 0
1, 74650, Note_off_c, 1, 56, 0
1, 74652, Note_off_c, 1, 37, 0
1, 74652, Note_off_c, 1, 65, 0
1, 74655, Note_on_c, 1, 42, 127
1, 74655, Note_on_c, 1, 57, 127
1, 74829, Note_on_c, 1, 61, 127
1, 75004, Note_on_c, 1, 66, 127
1, 77791, Note_off_c, 1, 66, 0
1, 77793, Note_off_c, 1, 61, 0
1, 77795, Note_off_c, 1, 42, 0
1, 77795, Note_off_c, 1, 57, 0
1, 79913, Note_on_c, 1, 54, 127
1, 80429, Note_off_c, 1, 54, 0
1, 80432, Note_on_c, 1, 56, 127
1, 80948, Note_off_c, 1, 56, 0
1, 80951, Note_on_c, 1, 57, 127
1, 83026, Note_off_c, 1, 57, 0
1, 83031, Note_on_c, 1, 56, 127
1, 83288, Note_off_c, 1, 56, 0
1, 83291, Note_on_c, 1, 58, 127
1, 83548, Note_off_c, 1, 58, 0
1, 83552, Note_on_c, 1, 59, 127
1, 84587, Note_off_c, 1, 59, 0
1, 84591, Note_on_c, 1, 58, 127
1, 84848, Note_off_c, 1, 58, 0
1, 84851, Note_on_c, 1, 56, 127
1, 85108, Note_off_c, 1, 56, 0
1, 85112, Note_on_c, 1, 58, 127
1, 85369, Note_off_c, 1, 58, 0
1, 85372, Note_on_c, 1, 60, 127
1, 85629, Note_off_c, 1, 60, 0
1, 85632, Note_on_c, 1, 61, 127
1, 86408, Note_off_c, 1, 61, 0
1, 86413, Note_on_c, 1, 59, 127
1, 86670, Note_off_c, 1, 59, 0
1, 86674, Note_on_c, 1, 57, 127
1, 86931, Note_off_c, 1, 57, 0
1, 86934, Note_on_c, 1, 61, 127
1, 87191, Note_off_c, 1, 61, 0
1, 87194, Note_on_c, 1, 59, 127
1, 87451, Note_off_c, 1, 59, 0
1, 87455, Note_on_c, 1, 57, 127
1, 87712, Note_off_c, 1, 57, 0
1, 87715, Note_on_c, 1, 57, 127
1, 87846, Note_on_c, 1, 56, 127
1, 87847, Note_off_c, 1, 57, 0
1, 87978, Note_off_c, 1, 56, 0
1, 88498, Note_on_c, 1, 54, 127
1, 88621, Note_off_c, 1, 54, 0
1, 88628, Note_on_c, 1, 56, 127
1, 88751, Note_off_c, 1, 56, 0
1, 88759, Note_on_c, 1, 54, 127
1, 89277, Note_on_c, 1, 61, 127
1, 89793, Note_off_c, 1, 61, 0
1, 89797, Note_on_c, 1, 63, 127
1, 90301, Note_off_c, 1, 54, 0
1, 90315, Note_off_c, 1, 63, 0
1, 90319, Note_on_c, 1, 64, 127
1, 90586, Note_on_c, 1, 61, 127
1, 90852, Note_off_c, 1, 61, 0
1, 91127, Note_on_c, 1, 59, 127
1, 91393, Note_off_c, 1, 59, 0
1, 91667, Note_on_c, 1, 58, 127
1, 91933, Note_off_c, 1, 58, 0
1, 92475, Note_off_c, 1, 64, 0
1, 92478, Note_on_c, 1, 63, 127
1, 92478, Note_on_c, 1, 59, 127
1, 92744, Note_off_c, 1, 63, 0
1, 92744, Note_off_c, 1, 59, 0
1, 92748, Note_on_c, 1, 65, 127
1, 92748, Note_on_c, 1, 57, 127
1, 93014, Note_off_c, 1, 65, 0
1, 93014, Note_off_c, 1, 57, 0
1, 93017, Note_on_c, 1, 57, 127
1, 93017, Note_on_c, 1, 66, 127
1, 93283, Note_off_c, 1, 57, 0
1, 93288, Note_on_c, 1, 56, 127
1, 93554, Note_off_c, 1, 56, 0
1, 94092, Note_off_c, 1, 66, 0
1, 94096, Note_on_c, 1, 65, 127
1, 94362, Note_off_c, 1, 65, 0
1, 94368, Note_on_c, 1, 63, 127
1, 94634, Note_off_c, 1, 63, 0
1, 94908, Note_on_c, 1, 67, 127
1, 94908, Note_on_c, 1, 58, 127
1, 95174, Note_off_c, 1, 67, 0
1, 95174, Note_off_c, 1, 58, 0
1, 95178, Note_on_c, 1, 60, 127
1, 95178, Note_on_c, 1, 68, 127
1, 95444, Note_off_c, 1, 60, 0
1, 95449, Note_on_c, 1, 61, 127
1, 95715, Note_off_c, 1, 61, 0
1, 95718, Note_on_c, 1, 63, 127
1, 95984, Note_off_c, 1, 68, 0
1, 95988, Note_on_c, 1, 66, 127
1, 96254, Note_off_c, 1, 66, 0
1, 96255, Note_off_c, 1, 63, 0
1, 96259, Note_on_c, 1, 64, 127
1, 96259, Note_on_c, 1, 56, 127
1, 96525, Note_off_c, 1, 64, 0
1, 96529, Note_on_c, 1, 68, 127
1, 96795, Note_off_c, 1, 68, 0
1, 96796, Note_off_c, 1, 56, 0
1, 96799, Note_on_c, 1, 66, 127
1, 96799, Note_on_c, 1, 61, 127
1, 97065, Note_off_c, 1, 66, 0
1, 97069, Note_on_c, 1, 64, 127
1, 97335, Note_off_c, 1, 64, 0
1, 97474, Note_on_c, 1, 63, 127
1, 97606, Note_off_c, 1, 63, 0
1, 97876, Note_on_c, 1, 60, 127
1, 97879, Note_off_c, 1, 61, 0
1, 98411, Note_off_c, 1, 60, 0
1, 99234, Note_on_c, 1, 68, 127
1, 99234, Note_on_c, 1, 59, 127
1, 99500, Note_off_c, 1, 68, 0
1, 99500, Note_off_c, 1, 59, 0
1, 99505, Note_on_c, 1, 61, 127
1, 99505, Note_on_c, 1, 69, 127
1, 99771, Note_off_c, 1, 61, 0
1, 99775, Note_on_c, 1, 63, 127
1, 100041, Note_off_c, 1, 63, 0
1, 100045, Note_on_c, 1, 64, 127
1, 100311, Note_off_c, 1, 69, 0
1, 100316, Note_on_c, 1, 66, 127
1, 100582, Note_off_c, 1, 66, 0
1, 100585, Note_on_c, 1, 68, 127
1, 100851, Note_off_c, 1, 64, 0
1, 100851, Note_off_c, 1, 68, 0
1, 100856, Note_on_c, 1, 70, 127
1, 100856, Note_on_c, 1, 61, 127
1, 101122, Note_off_c, 1, 70, 0
1, 101122, Note_off_c, 1, 61, 0
1, 101126, Note_on_c, 1, 63, 127
1, 101126, Note_on_c, 1, 71, 127
1, 101392, Note_off_c, 1, 63, 0
1, 101397, Note_on_c, 1, 65, 127
1, 101663, Note_off_c, 1, 65, 0
1, 101666, Note_on_c, 1, 66, 127
1, 101932, Note_off_c, 1, 71, 0
1, 102203, Note_off_c, 1, 66, 0
1, 102206, Note_on_c, 1, 71, 127
1, 102206, Note_on_c, 1, 61, 127
1, 102206, Note_on_c, 1, 42, 127
1, 102478, Note_off_c, 1, 71, 0
1, 102482, Note_on_c, 1, 69, 127
1, 102754, Note_off_c, 1, 61, 0
1, 102754, Note_off_c, 1, 42, 0
1, 102754, Note_off_c, 1, 69, 0
1, 102759, Note_on_c, 1, 69, 127
1, 102759, Note_on_c, 1, 59, 127
1, 102759, Note_on_c, 1, 44, 127
1, 103031, Note_off_c, 1, 69, 0
1, 103035, Note_on_c, 1, 68, 127
1, 103307, Note_off_c, 1, 59, 0
1, 103307, Note_off_c, 1, 44, 0
1, 103307, Note_off_c, 1, 68, 0
1, 103310, Note_on_c, 1, 68, 127
1, 103310, Note_on_c, 1, 61, 127
1, 103310, Note_on_c, 1, 45, 127
1, 103582, Note_off_c, 1, 68, 0
1, 103586, Note_on_c, 1, 66, 127
1, 103858, Note_off_c, 1, 61, 0
1, 103858, Note_off_c, 1, 66, 0
1, 103862, Note_on_c, 1, 57, 127
1, 104138, Note_on_c, 1, 64, 127
1, 104410, Note_off_c, 1, 57, 0
1, 104410, Note_off_c, 1, 64, 0
1, 104413, Note_on_c, 1, 54, 127
1, 104690, Note_on_c, 1, 63, 127
1, 104961, Note_off_c, 1, 54, 0
1, 104962, Note_off_c, 1, 63, 0
1, 104966, Note_on_c, 1, 59, 127
1, 105513, Note_off_c, 1, 45, 0
1, 105518, Note_on_c, 1, 44, 127
1, 105790, Note_off_c, 1, 44, 0
1, 105795, Note_on_c, 1, 62, 127
1, 105795, Note_on_c, 1, 46, 127
1, 106067, Note_off_c, 1, 62, 0
1, 106067, Note_off_c, 1, 46, 0
1, 106070, Note_on_c, 1, 47, 127
1, 106616, Note_off_c, 1, 59, 0
1, 106622, Note_on_c, 1, 53, 127
1, 106894, Note_off_c, 1, 53, 0
1, 106897, Note_on_c, 1, 49, 127
1, 107169, Note_off_c, 1, 47, 0
1, 107169, Note_off_c, 1, 49, 0
1, 108001, Note_on_c, 1, 48, 127
1, 108273, Note_off_c, 1, 48, 0
1, 108277, Note_on_c, 1, 65, 127
1, 108549, Note_off_c, 1, 65, 0
1, 109381, Note_on_c, 1, 61, 127
1, 109381, Note_on_c, 1, 45, 127
1, 109381, Note_on_c, 1, 66, 127
1, 109653, Note_off_c, 1, 61, 0
1, 109653, Note_off_c, 1, 45, 0
1, 109657, Note_on_c, 1, 64, 127
1, 109657, Note_on_c, 1, 49, 127
1, 109929, Note_off_c, 1, 66, 0
1, 109929, Note_off_c, 1, 64, 0
1, 109929, Note_off_c, 1, 49, 0
1, 109933, Note_on_c, 1, 62, 127
1, 109933, Note_on_c, 1, 47, 127
1, 109933, Note_on_c, 1, 66, 127
1, 110205, Note_off_c, 1, 62, 0
1, 110205, Note_off_c, 1, 47, 0
1, 110210, Note_on_c, 1, 61, 127
1, 110210, Note_on_c, 1, 45, 127
1, 110482, Note_off_c, 1, 61, 0
1, 110482, Note_off_c, 1, 45, 0
1, 110485, Note_on_c, 1, 59, 127
1, 110623, Note_on_c, 1, 44, 127
1, 110757, Note_off_c, 1, 44, 0
1, 111032, Note_off_c, 1, 66, 0
1, 111037, Note_on_c, 1, 65, 127
1, 111313, Note_on_c, 1, 42, 127
1, 111447, Note_off_c, 1, 42, 0
1, 111585, Note_off_c, 1, 65, 0
1, 111861, Note_off_c, 1, 59, 0
1, 111864, Note_on_c, 1, 57, 127
1, 112136, Note_off_c, 1, 57, 0
1, 112417, Note_on_c, 1, 40, 127
1, 112689, Note_off_c, 1, 40, 0
1, 113245, Note_on_c, 1, 64, 127
1, 113793, Note_off_c, 1, 64, 0
1, 113796, Note_on_c, 1, 63, 127
1, 114068, Note_off_c, 1, 63, 0
1, 114073, Note_on_c, 1, 68, 127
1, 114345, Note_off_c, 1, 68, 0
1, 114348, Note_on_c, 1, 69, 127
1, 114896, Note_off_c, 1, 69, 0
1, 114900, Note_on_c, 1, 49, 127
1, 115172, Note_off_c, 1, 49, 0
1, 115176, Note_on_c, 1, 48, 127
1, 115448, Note_off_c, 1, 48, 0
1, 115727, Note_on_c, 1, 51, 127
1, 115999, Note_off_c, 1, 51, 0
1, 116004, Note_on_c, 1, 52, 127
1, 116556, Note_on_c, 1, 58, 127
1, 116829, Note_off_c, 1, 52, 0
1, 116831, Note_on_c, 1, 54, 127
1, 117103, Note_off_c, 1, 54, 0
1, 117104, Note_off_c, 1, 58, 0
1, 117108, Note_on_c, 1, 60, 127
1, 117380, Note_off_c, 1, 60, 0
1, 119315, Note_on_c, 1, 50, 127
1, 119315, Note_on_c, 1, 59, 127
1, 119315, Note_on_c, 1, 67, 127
1, 119587, Note_off_c, 1, 50, 0
1, 119592, Note_on_c, 1, 52, 127
1, 119863, Note_off_c, 1, 59, 0
1, 119864, Note_off_c, 1, 52, 0
1, 119867, Note_on_c, 1, 58, 127
1, 119867, Note_on_c, 1, 54, 127
1, 120139, Note_off_c, 1, 58, 0
1, 120414, Note_off_c, 1, 67, 0
1, 120419, Note_on_c, 1, 66, 127
1, 120419, Note_on_c, 1, 61, 127
1, 120691, Note_off_c, 1, 66, 0
1, 120692, Note_off_c, 1, 54, 0
1, 120695, Note_on_c, 1, 64, 127
1, 120695, Note_on_c, 1, 42, 127
1, 120967, Note_off_c, 1, 64, 0
1, 120967, Note_off_c, 1, 42, 0
1, 120970, Note_on_c, 1, 62, 127
1, 120970, Note_on_c, 1, 44, 127
1, 121242, Note_off_c, 1, 62, 0
1, 121242, Note_off_c, 1, 44, 0
1, 121244, Note_off_c, 1, 61, 0
1, 121246, Note_on_c, 1, 46, 127
1, 121246, Note_on_c, 1, 61, 127
1, 121518, Note_off_c, 1, 46, 0
1, 121523, Note_on_c, 1, 62, 127
1, 121523, Note_on_c, 1, 47, 127
1, 121790, Note_off_c, 1, 61, 0
1, 122074, Note_on_c, 1, 59, 127
1, 122348, Note_off_c, 1, 62, 0
1, 122348, Note_off_c, 1, 47, 0
1, 122351, Note_on_c, 1, 64, 127
1, 122622, Note_off_c, 1, 59, 0
1, 122623, Note_off_c, 1, 64, 0
1, 122627, Note_on_c, 1, 49, 127
1, 122627, Note_on_c, 1, 57, 127
1, 122627, Note_on_c, 1, 66, 127
1, 122899, Note_off_c, 1, 49, 0
1, 122902, Note_on_c, 1, 50, 127
1, 123174, Note_off_c, 1, 50, 0
1, 123175, Note_off_c, 1, 57, 0
1, 123178, Note_on_c, 1, 56, 127
1, 123178, Note_on_c, 1, 52, 127
1, 123450, Note_off_c, 1, 56, 0
1, 123726, Note_off_c, 1, 66, 0
1, 123730, Note_on_c, 1, 64, 127
1, 123730, Note_on_c, 1, 59, 127
1, 124002, Note_off_c, 1, 64, 0
1, 124003, Note_off_c, 1, 52, 0
1, 124006, Note_on_c, 1, 62, 127
1, 124006, Note_on_c, 1, 40, 127
1, 124278, Note_off_c, 1, 62, 0
1, 124278, Note_off_c, 1, 40, 0
1, 124282, Note_on_c, 1, 61, 127
1, 124282, Note_on_c, 1, 42, 127
1, 124554, Note_off_c, 1, 61, 0
1, 124554, Note_off_c, 1, 42, 0
1, 124555, Note_off_c, 1, 59, 0
1, 124558, Note_on_c, 1, 44, 127
1, 124558, Note_on_c, 1, 59, 127
1, 124830, Note_off_c, 1, 44, 0
1, 124833, Note_on_c, 1, 45, 127
1, 124833, Note_on_c, 1, 61, 127
1, 125102, Note_off_c, 1, 59, 0
1, 125105, Note_off_c, 1, 45, 0
1, 125109, Note_on_c, 1, 62, 127
1, 125109, Note_on_c, 1, 47, 127
1, 125381, Note_off_c, 1, 61, 0
1, 125381, Note_off_c, 1, 62, 0
1, 125381, Note_off_c, 1, 47, 0
1, 125386, Note_on_c, 1, 61, 127
1, 125386, Note_on_c, 1, 45, 127
1, 125386, Note_on_c, 1, 66, 127
1, 125386, Note_on_c, 1, 63, 127
1, 125661, Note_off_c, 1, 61, 0
1, 125661, Note_off_c, 1, 45, 0
1, 125665, Note_on_c, 1, 59, 127
1, 125665, Note_on_c, 1, 44, 127
1, 125940, Note_off_c, 1, 59, 0
1, 125940, Note_off_c, 1, 44, 0
1, 125941, Note_off_c, 1, 66, 0
1, 125941, Note_off_c, 1, 63, 0
1, 125945, Note_on_c, 1, 59, 127
1, 125945, Note_on_c, 1, 44, 127
1, 125945, Note_on_c, 1, 68, 127
1, 125945, Note_on_c, 1, 65, 127
1, 126220, Note_off_c, 1, 59, 0
1, 126220, Note_off_c, 1, 44, 0
1, 126225, Note_on_c, 1, 57, 127
1, 126225, Note_on_c, 1, 42, 127
1, 126500, Note_off_c, 1, 68, 0
1, 126500, Note_off_c, 1, 65, 0
1, 126500, Note_off_c, 1, 57, 0
1, 126500, Note_off_c, 1, 42, 0
1, 126506, Note_on_c, 1, 57, 127
1, 126506, Note_on_c, 1, 42, 127
1, 126506, Note_on_c, 1, 69, 127
1, 126506, Note_on_c, 1, 66, 127
1, 126781, Note_off_c, 1, 57, 0
1, 126781, Note_off_c, 1, 42, 0
1, 126784, Note_on_c, 1, 59, 127
1, 126784, Note_on_c, 1, 54, 127
1, 127059, Note_off_c, 1, 59, 0
1, 127059, Note_off_c, 1, 54, 0
1, 127065, Note_on_c, 1, 61, 127
1, 127344, Note_on_c, 1, 52, 127
1, 127619, Note_off_c, 1, 52, 0
1, 127904, Note_on_c, 1, 51, 127
1, 128179, Note_off_c, 1, 51, 0
1, 128180, Note_off_c, 1, 61, 0
1, 128740, Note_off_c, 1, 69, 0
1, 128743, Note_on_c, 1, 68, 127
1, 129018, Note_off_c, 1, 68, 0
1, 129023, Note_on_c, 1, 70, 127
1, 129023, Note_on_c, 1, 50, 127
1, 129298, Note_off_c, 1, 70, 0
1, 129298, Note_off_c, 1, 50, 0
1, 129300, Note_off_c, 1, 66, 0
1, 129303, Note_on_c, 1, 71, 127
1, 129583, Note_on_c, 1, 49, 127
1, 129858, Note_off_c, 1, 49, 0
1, 129862, Note_on_c, 1, 65, 127
1, 130417, Note_off_c, 1, 65, 0
1, 130418, Note_off_c, 1, 71, 0
1, 131260, Note_on_c, 1, 72, 127
1, 131535, Note_off_c, 1, 72, 0
1, 131541, Note_on_c, 1, 53, 127
1, 131541, Note_on_c, 1, 73, 127
1, 131816, Note_off_c, 1, 53, 0
1, 131821, Note_on_c, 1, 63, 127
1, 132096, Note_off_c, 1, 63, 0
1, 132100, Note_on_c, 1, 56, 127
1, 132377, Note_off_c, 1, 73, 0
1, 132655, Note_off_c, 1, 56, 0
1, 132660, Note_on_c, 1, 69, 127
1, 132660, Note_on_c, 1, 49, 127
1, 132660, Note_on_c, 1, 66, 127
1, 132935, Note_off_c, 1, 69, 0
1, 132940, Note_on_c, 1, 73, 127
1, 132940, Note_on_c, 1, 64, 127
1, 133215, Note_off_c, 1, 49, 0
1, 133215, Note_off_c, 1, 73, 0
1, 133215, Note_off_c, 1, 64, 0
1, 133220, Note_on_c, 1, 62, 127
1, 133220, Note_on_c, 1, 71, 127
1, 133220, Note_on_c, 1, 54, 127
1, 133495, Note_off_c, 1, 62, 0
1, 133499, Note_on_c, 1, 61, 127
1, 133629, Note_off_c, 1, 71, 0
1, 133774, Note_off_c, 1, 61, 0
1, 133775, Note_off_c, 1, 66, 0
1, 133779, Note_on_c, 1, 59, 127
1, 134054, Note_off_c, 1, 59, 0
1, 134059, Note_on_c, 1, 57, 127
1, 134241, Note_on_c, 1, 68, 127
1, 134334, Note_off_c, 1, 57, 0
1, 134335, Note_off_c, 1, 54, 0
1, 134338, Note_on_c, 1, 56, 127
1, 134338, Note_on_c, 1, 53, 127
1, 134355, Note_off_c, 1, 68, 0
1, 134613, Note_off_c, 1, 56, 0
1, 134893, Note_off_c, 1, 53, 0
1, 136032, Note_on_c, 1, 54, 127
1, 136032, Note_on_c, 1, 69, 127
1, 136032, Note_on_c, 1, 74, 127
1, 136307, Note_off_c, 1, 54, 0
1, 136307, Note_off_c, 1, 69, 0
1, 136313, Note_on_c, 1, 56, 127
1, 136313, Note_on_c, 1, 71, 127
1, 136588, Note_off_c, 1, 56, 0
1, 136588, Note_off_c, 1, 71, 0
1, 136592, Note_on_c, 1, 57, 127
1, 136592, Note_on_c, 1, 64, 127
1, 136841, Note_off_c, 1, 74, 0
1, 137151, Note_on_c, 1, 73, 127
1, 137426, Note_off_c, 1, 73, 0
1, 137428, Note_off_c, 1, 57, 0
1, 137428, Note_off_c, 1, 64, 0
1, 137432, Note_on_c, 1, 54, 127
1, 137432, Note_on_c, 1, 69, 127
1, 137432, Note_on_c, 1, 75, 127
1, 137707, Note_off_c, 1, 54, 0
1, 137707, Note_off_c, 1, 69, 0
1, 137707, Note_off_c, 1, 75, 0
1, 137711, Note_on_c, 1, 56, 127
1, 137711, Note_on_c, 1, 71, 127
1, 137711, Note_on_c, 1, 76, 127
1, 137986, Note_off_c, 1, 56, 0
1, 137986, Note_off_c, 1, 71, 0
1, 137990, Note_on_c, 1, 58, 127
1, 137990, Note_on_c, 1, 73, 127
1, 138265, Note_off_c, 1, 58, 0
1, 138265, Note_off_c, 1, 73, 0
1, 138271, Note_on_c, 1, 59, 127
1, 138271, Note_on_c, 1, 66, 127
1, 138546, Note_off_c, 1, 59, 0
1, 138547, Note_off_c, 1, 76, 0
1, 138550, Note_on_c, 1, 47, 127
1, 138550, Note_on_c, 1, 74, 127
1, 138825, Note_off_c, 1, 47, 0
1, 138825, Note_off_c, 1, 74, 0
1, 139110, Note_on_c, 1, 45, 127
1, 139385, Note_off_c, 1, 45, 0
1, 139669, Note_on_c, 1, 44, 127
1, 139669, Note_on_c, 1, 72, 127
1, 139944, Note_off_c, 1, 44, 0
1, 139944, Note_off_c, 1, 72, 0
1, 140226, Note_off_c, 1, 66, 0
1, 140229, Note_on_c, 1, 57, 127
1, 140504, Note_off_c, 1, 57, 0
1, 140510, Note_on_c, 1, 57, 127
1, 140510, Note_on_c, 1, 66, 127
1, 140510, Note_on_c, 1, 73, 127
1, 140785, Note_off_c, 1, 57, 0
1, 140785, Note_off_c, 1, 66, 0
1, 140788, Note_on_c, 1, 56, 127
1, 140788, Note_on_c, 1, 64, 127
1, 141063, Note_off_c, 1, 56, 0
1, 141063, Note_off_c, 1, 64, 0
1, 141348, Note_on_c, 1, 54, 127
1, 141348, Note_on_c, 1, 63, 127
1, 141623, Note_off_c, 1, 54, 0
1, 141623, Note_off_c, 1, 63, 0
1, 141909, Note_on_c, 1, 68, 127
1, 142184, Note_off_c, 1, 73, 0
1, 142184, Note_off_c, 1, 68, 0
1, 142186, Note_on_c, 1, 68, 127
1, 142186, Note_on_c, 1, 56, 127
1, 142186, Note_on_c, 1, 72, 127
1, 142461, Note_off_c, 1, 68, 0
1, 142467, Note_on_c, 1, 66, 127
1, 142741, Note_off_c, 1, 56, 0
1, 142742, Note_off_c, 1, 66, 0
1, 142747, Note_on_c, 1, 44, 127
1, 143028, Note_on_c, 1, 64, 127
1, 143301, Note_off_c, 1, 72, 0
1, 143302, Note_off_c, 1, 44, 0
1, 143303, Note_off_c, 1, 64, 0
1, 143306, Note_on_c, 1, 73, 127
1, 143306, Note_on_c, 1, 64, 127
1, 143306, Note_on_c, 1, 49, 127
1, 143581, Note_off_c, 1, 73, 0
1, 143586, Note_on_c, 1, 75, 127
1, 143861, Note_off_c, 1, 64, 0
1, 143861, Note_off_c, 1, 75, 0
1, 143866, Note_on_c, 1, 76, 127
1, 144141, Note_off_c, 1, 76, 0
1, 144142, Note_off_c, 1, 49, 0
1, 144147, Note_on_c, 1, 78, 127
1, 144422, Note_off_c, 1, 78, 0
1, 144425, Note_on_c, 1, 50, 127
1, 144425, Note_on_c, 1, 71, 127
1, 144425, Note_on_c, 1, 79, 127
1, 144700, Note_off_c, 1, 50, 0
1, 144706, Note_on_c, 1, 52, 127
1, 144980, Note_off_c, 1, 71, 0
1, 144981, Note_off_c, 1, 52, 0
1, 144985, Note_on_c, 1, 54, 127
1, 144985, Note_on_c, 1, 70, 127
1, 145260, Note_off_c, 1, 54, 0
1, 145265, Note_on_c, 1, 55, 127
1, 145540, Note_off_c, 1, 79, 0
1, 145540, Note_off_c, 1, 55, 0
1, 145545, Note_on_c, 1, 73, 127
1, 146100, Note_off_c, 1, 73, 0
1, 146105, Note_on_c, 1, 78, 127
1, 146380, Note_off_c, 1, 78, 0
1, 146384, Note_on_c, 1, 49, 127
1, 146384, Note_on_c, 1, 76, 127
1, 146659, Note_off_c, 1, 49, 0
1, 146659, Note_off_c, 1, 76, 0
1, 146664, Note_on_c, 1, 47, 127
1, 146664, Note_on_c, 1, 74, 127
1, 146939, Note_off_c, 1, 47, 0
1, 146939, Note_off_c, 1, 74, 0
1, 147219, Note_off_c, 1, 70, 0
1, 147224, Note_on_c, 1, 44, 127
1, 147224, Note_on_c, 1, 71, 127
1, 147224, Note_on_c, 1, 74, 127
1, 147499, Note_off_c, 1, 44, 0
1, 147499, Note_off_c, 1, 71, 0
1, 147503, Note_on_c, 1, 42, 127
1, 147503, Note_on_c, 1, 69, 127
1, 147778, Note_off_c, 1, 42, 0
1, 147778, Note_off_c, 1, 69, 0
1, 147783, Note_on_c, 1, 68, 127
1, 148062, Note_on_c, 1, 41, 127
1, 148337, Note_off_c, 1, 41, 0
1, 148339, Note_off_c, 1, 74, 0
1, 148342, Note_on_c, 1, 73, 127
1, 148622, Note_on_c, 1, 53, 127
1, 148897, Note_off_c, 1, 73, 0
1, 148897, Note_off_c, 1, 53, 0
1, 148898, Note_off_c, 1, 68, 0
1, 148902, Note_on_c, 1, 54, 127
1, 148902, Note_on_c, 1, 69, 127
1, 148902, Note_on_c, 1, 75, 127
1, 149177, Note_off_c, 1, 54, 0
1, 149177, Note_off_c, 1, 69, 0
1, 149182, Note_on_c, 1, 56, 127
1, 149182, Note_on_c, 1, 71, 127
1, 149457, Note_off_c, 1, 75, 0
1, 149457, Note_off_c, 1, 56, 0
1, 149457, Note_off_c, 1, 71, 0
1, 149461, Note_on_c, 1, 56, 127
1, 149461, Note_on_c, 1, 69, 127
1, 149461, Note_on_c, 1, 77, 127
1, 149736, Note_off_c, 1, 56, 0
1, 149736, Note_off_c, 1, 69, 0
1, 149741, Note_on_c, 1, 57, 127
1, 149741, Note_on_c, 1, 68, 127
1, 150016, Note_off_c, 1, 77, 0
1, 150016, Note_off_c, 1, 57, 0
1, 150016, Note_off_c, 1, 68, 0
1, 150021, Note_on_c, 1, 57, 127
1, 150021, Note_on_c, 1, 66, 127
1, 150021, Note_on_c, 1, 78, 127
1, 150296, Note_off_c, 1, 57, 0
1, 150302, Note_on_c, 1, 62, 127
1, 150577, Note_off_c, 1, 62, 0
1, 150857, Note_off_c, 1, 66, 0
1, 150860, Note_on_c, 1, 61, 127
1, 150860, Note_on_c, 1, 68, 127
1, 151135, Note_off_c, 1, 61, 0
1, 151135, Note_off_c, 1, 68, 0
1, 151140, Note_on_c, 1, 69, 127
1, 151415, Note_off_c, 1, 69, 0
1, 151421, Note_on_c, 1, 59, 127
1, 151696, Note_off_c, 1, 59, 0
1, 152259, Note_on_c, 1, 71, 127
1, 152259, Note_on_c, 1, 56, 127
1, 152395, Note_off_c, 1, 71, 0
1, 152534, Note_off_c, 1, 56, 0
1, 152815, Note_off_c, 1, 78, 0
1, 152820, Note_on_c, 1, 76, 127
1, 153378, Note_on_c, 1, 58, 127
1, 153378, Note_on_c, 1, 73, 127
1, 153653, Note_off_c, 1, 58, 0
1, 153935, Note_off_c, 1, 76, 0
1, 153939, Note_on_c, 1, 74, 127
1, 154493, Note_off_c, 1, 73, 0
1, 155336, Note_on_c, 1, 54, 127
1, 155611, Note_off_c, 1, 54, 0
1, 155613, Note_off_c, 1, 74, 0
1, 155616, Note_on_c, 1, 52, 127
1, 155891, Note_off_c, 1, 52, 0
1, 155897, Note_on_c, 1, 64, 127
1, 156172, Note_off_c, 1, 64, 0
1, 158135, Note_on_c, 1, 53, 127
1, 158410, Note_off_c, 1, 53, 0
1, 159533, Note_on_c, 1, 78, 127
1, 159533, Note_on_c, 1, 42, 127
1, 159533, Note_on_c, 1, 69, 127
1, 159808, Note_off_c, 1, 78, 0
1, 159813, Note_on_c, 1, 75, 127
1, 160088, Note_off_c, 1, 42, 0
1, 160088, Note_off_c, 1, 69, 0
1, 160088, Note_off_c, 1, 75, 0
1, 160094, Note_on_c, 1, 49, 127
1, 160094, Note_on_c, 1, 68, 127
1, 160094, Note_on_c, 1, 76, 127
1, 160369, Note_off_c, 1, 49, 0
1, 160369, Note_off_c, 1, 68, 0
1, 160373, Note_on_c, 1, 51, 127
1, 160373, Note_on_c, 1, 73, 127
1, 160648, Note_off_c, 1, 51, 0
1, 160648, Note_off_c, 1, 73, 0
1, 160652, Note_on_c, 1, 52, 127
1, 160927, Note_off_c, 1, 52, 0
1, 160932, Note_on_c, 1, 54, 127
1, 160932, Note_on_c, 1, 71, 127
1, 161207, Note_off_c, 1, 54, 0
1, 161207, Note_off_c, 1, 71, 0
1, 161213, Note_on_c, 1, 55, 127
1, 161488, Note_off_c, 1, 55, 0
1, 161492, Note_on_c, 1, 70, 127
1, 161767, Note_off_c, 1, 70, 0
1, 162051, Note_on_c, 1, 42, 127
1, 162326, Note_off_c, 1, 42, 0
1, 162328, Note_off_c, 1, 76, 0
1, 162331, Note_on_c, 1, 47, 127
1, 162331, Note_on_c, 1, 71, 127
1, 162331, Note_on_c, 1, 75, 127
1, 162606, Note_off_c, 1, 47, 0
1, 162606, Note_off_c, 1, 71, 0
1, 162606, Note_off_c, 1, 75, 0
1, 162612, Note_on_c, 1, 49, 127
1, 162612, Note_on_c, 1, 69, 127
1, 162612, Note_on_c, 1, 77, 127
1, 162887, Note_off_c, 1, 49, 0
1, 162887, Note_off_c, 1, 69, 0
1, 162887, Note_off_c, 1, 77, 0
1, 162890, Note_on_c, 1, 50, 127
1, 162890, Note_on_c, 1, 69, 127
1, 162890, Note_on_c, 1, 78, 127
1, 163165, Note_off_c, 1, 50, 0
1, 163165, Note_off_c, 1, 69, 0
1, 163171, Note_on_c, 1, 47, 127
1, 163171, Note_on_c, 1, 68, 127
1, 163446, Note_off_c, 1, 47, 0
1, 163446, Note_off_c, 1, 68, 0
1, 163450, Note_on_c, 1, 49, 127
1, 163725, Note_off_c, 1, 49, 0
1, 163731, Note_on_c, 1, 37, 127
1, 164005, Note_off_c, 1, 78, 0
1, 164006, Note_off_c, 1, 37, 0
1, 164009, Note_on_c, 1, 77, 127
1, 164284, Note_off_c, 1, 77, 0
1, 164290, Note_on_c, 1, 48, 127
1, 164290, Note_on_c, 1, 75, 127
1, 164565, Note_off_c, 1, 48, 0
1, 164565, Note_off_c, 1, 75, 0
1, 164850, Note_on_c, 1, 52, 127
1, 164850, Note_on_c, 1, 70, 127
1, 164850, Note_on_c, 1, 79, 127
1, 165125, Note_off_c, 1, 52, 0
1, 165125, Note_off_c, 1, 70, 0
1, 165125, Note_off_c, 1, 79, 0
1, 165128, Note_on_c, 1, 51, 127
1, 165128, Note_on_c, 1, 72, 127
1, 165128, Note_on_c, 1, 80, 127
1, 165403, Note_off_c, 1, 51, 0
1, 165403, Note_off_c, 1, 72, 0
1, 165409, Note_on_c, 1, 49, 127
1, 165409, Note_on_c, 1, 73, 127
1, 165684, Note_off_c, 1, 49, 0
1, 165684, Note_off_c, 1, 73, 0
1, 165689, Note_on_c, 1, 48, 127
1, 165689, Note_on_c, 1, 75, 127
1, 165964, Note_off_c, 1, 80, 0
1, 165964, Note_off_c, 1, 48, 0
1, 165968, Note_on_c, 1, 44, 127
1, 165968, Note_on_c, 1, 78, 127
1, 166243, Note_off_c, 1, 44, 0
1, 166243, Note_off_c, 1, 78, 0
1, 166244, Note_off_c, 1, 75, 0
1, 166248, Note_on_c, 1, 49, 127
1, 166248, Note_on_c, 1, 76, 127
1, 166248, Note_on_c, 1, 68, 127
1, 166523, Note_off_c, 1, 49, 0
1, 166523, Note_off_c, 1, 76, 0
1, 166527, Note_on_c, 1, 52, 127
1, 166527, Note_on_c, 1, 80, 127
1, 166802, Note_off_c, 1, 52, 0
1, 166802, Note_off_c, 1, 80, 0
1, 166803, Note_off_c, 1, 68, 0
1, 166808, Note_on_c, 1, 57, 127
1, 166808, Note_on_c, 1, 78, 127
1, 166808, Note_on_c, 1, 73, 127
1, 167083, Note_off_c, 1, 57, 0
1, 167087, Note_on_c, 1, 54, 127
1, 167214, Note_on_c, 1, 76, 127
1, 167236, Note_off_c, 1, 78, 0
1, 167359, Note_off_c, 1, 76, 0
1, 167362, Note_off_c, 1, 54, 0
1, 167368, Note_on_c, 1, 56, 127
1, 167570, Note_on_c, 1, 75, 127
1, 167643, Note_off_c, 1, 56, 0
1, 167674, Note_off_c, 1, 75, 0
1, 167923, Note_off_c, 1, 73, 0
1, 167927, Note_on_c, 1, 72, 127
1, 168206, Note_on_c, 1, 44, 127
1, 168419, Note_off_c, 1, 72, 0
1, 168481, Note_off_c, 1, 44, 0
1, 168487, Note_on_c, 1, 49, 127
1, 168951, Note_off_c, 1, 49, 0
1, 169341, Note_on_c, 1, 80, 127
1, 169341, Note_on_c, 1, 71, 127
1, 169616, Note_off_c, 1, 80, 0
1, 169616, Note_off_c, 1, 71, 0
1, 169620, Note_on_c, 1, 73, 127
1, 169620, Note_on_c, 1, 81, 127
1, 169895, Note_off_c, 1, 73, 0
1, 169901, Note_on_c, 1, 75, 127
1, 170176, Note_off_c, 1, 75, 0
1, 170180, Note_on_c, 1, 76, 127
1, 170456, Note_off_c, 1, 81, 0
1, 170460, Note_on_c, 1, 78, 127
1, 170735, Note_off_c, 1, 78, 0
1, 170739, Note_on_c, 1, 80, 127
1, 171014, Note_off_c, 1, 80, 0
1, 171016, Note_off_c, 1, 76, 0
1, 171020, Note_on_c, 1, 82, 127
1, 171020, Note_on_c, 1, 73, 127
1, 171295, Note_off_c, 1, 82, 0
1, 171295, Note_off_c, 1, 73, 0
1, 171300, Note_on_c, 1, 75, 127
1, 171300, Note_on_c, 1, 83, 127
1, 171575, Note_off_c, 1, 75, 0
1, 171580, Note_on_c, 1, 77, 127
1, 171855, Note_off_c, 1, 77, 0
1, 171858, Note_on_c, 1, 78, 127
1, 172136, Note_off_c, 1, 83, 0
1, 172139, Note_on_c, 1, 81, 127
1, 172413, Note_off_c, 1, 78, 0
1, 172414, Note_off_c, 1, 81, 0
1, 172419, Note_on_c, 1, 81, 127
1, 172419, Note_on_c, 1, 66, 127
1, 172419, Note_on_c, 1, 54, 127
1, 172694, Note_off_c, 1, 81, 0
1, 172698, Note_on_c, 1, 80, 127
1, 172973, Note_off_c, 1, 80, 0
1, 172974, Note_off_c, 1, 66, 0
1, 172974, Note_off_c, 1, 54, 0
1, 172978, Note_on_c, 1, 80, 127
1, 172978, Note_on_c, 1, 65, 127
1, 172978, Note_on_c, 1, 56, 127
1, 173253, Note_off_c, 1, 80, 0
1, 173257, Note_on_c, 1, 78, 127
1, 173532, Note_off_c, 1, 78, 0
1, 173533, Note_off_c, 1, 65, 0
1, 173533, Note_off_c, 1, 56, 0
1, 173538, Note_on_c, 1, 78, 127
1, 173538, Note_on_c, 1, 66, 127
1, 173538, Note_on_c, 1, 57, 127
1, 173813, Note_off_c, 1, 78, 0
1, 173813, Note_off_c, 1, 66, 0
1, 173816, Note_on_c, 1, 81, 127
1, 173816, Note_on_c, 1, 61, 127
1, 173952, Note_off_c, 1, 81, 0
1, 173957, Note_on_c, 1, 80, 127
1, 174091, Note_off_c, 1, 61, 0
1, 174093, Note_off_c, 1, 80, 0
1, 174377, Note_on_c, 1, 76, 127
1, 174377, Note_on_c, 1, 68, 127
1, 174652, Note_off_c, 1, 76, 0
1, 174652, Note_off_c, 1, 68, 0
1, 174657, Note_on_c, 1, 69, 127
1, 174932, Note_off_c, 1, 69, 0
1, 174936, Note_on_c, 1, 75, 127
1, 175211, Note_off_c, 1, 75, 0
1, 175216, Note_on_c, 1, 71, 127
1, 175772, Note_off_c, 1, 57, 0
1, 175777, Note_on_c, 1, 56, 127
1, 176052, Note_off_c, 1, 71, 0
1, 176052, Note_off_c, 1, 56, 0
1, 176055, Note_on_c, 1, 74, 127
1, 176055, Note_on_c, 1, 66, 127
1, 176055, Note_on_c, 1, 58, 127
1, 176330, Note_off_c, 1, 74, 0
1, 176330, Note_off_c, 1, 66, 0
1, 176330, Note_off_c, 1, 58, 0
1, 176334, Note_on_c, 1, 74, 127
1, 176334, Note_on_c, 1, 68, 127
1, 176334, Note_on_c, 1, 59, 127
1, 176609, Note_off_c, 1, 74, 0
1, 176609, Note_off_c, 1, 68, 0
1, 176615, Note_on_c, 1, 73, 127
1, 176615, Note_on_c, 1, 69, 127
1, 176890, Note_off_c, 1, 73, 0
1, 176890, Note_off_c, 1, 69, 0
1, 176895, Note_on_c, 1, 65, 127
1, 177170, Note_off_c, 1, 65, 0
1, 177175, Note_on_c, 1, 61, 127
1, 177449, Note_off_c, 1, 59, 0
1, 177450, Note_off_c, 1, 61, 0
1, 177453, Note_on_c, 1, 58, 127
1, 177453, Note_on_c, 1, 66, 127
1, 177728, Note_off_c, 1, 58, 0
1, 177734, Note_on_c, 1, 56, 127
1, 178008, Note_off_c, 1, 66, 0
1, 178009, Note_off_c, 1, 56, 0
1, 178294, Note_on_c, 1, 75, 127
1, 178294, Note_on_c, 1, 60, 127
1, 178569, Note_off_c, 1, 75, 0
1, 178569, Note_off_c, 1, 60, 0
1, 178574, Note_on_c, 1, 77, 127
1, 178574, Note_on_c, 1, 61, 127
1, 178849, Note_off_c, 1, 77, 0
1, 178853, Note_on_c, 1, 78, 127
1, 178853, Note_on_c, 1, 63, 127
1, 179128, Note_off_c, 1, 78, 0
1, 179128, Note_off_c, 1, 63, 0
1, 179133, Note_on_c, 1, 80, 127
1, 179133, Note_on_c, 1, 65, 127
1, 179410, Note_off_c, 1, 61, 0
1, 179413, Note_on_c, 1, 59, 127
1, 179688, Note_off_c, 1, 80, 0
1, 179688, Note_off_c, 1, 65, 0
1, 179688, Note_off_c, 1, 59, 0
1, 179693, Note_on_c, 1, 66, 127
1, 179693, Note_on_c, 1, 57, 127
1, 179693, Note_on_c, 1, 73, 127
1, 179968, Note_off_c, 1, 66, 0
1, 179968, Note_off_c, 1, 57, 0
1, 179972, Note_on_c, 1, 64, 127
1, 179972, Note_on_c, 1, 61, 127
1, 180247, Note_off_c, 1, 64, 0
1, 180247, Note_off_c, 1, 61, 0
1, 180248, Note_off_c, 1, 73, 0
1, 180252, Note_on_c, 1, 62, 127
1, 180252, Note_on_c, 1, 59, 127
1, 180252, Note_on_c, 1, 78, 127
1, 180527, Note_off_c, 1, 62, 0
1, 180527, Note_off_c, 1, 59, 0
1, 180531, Note_on_c, 1, 61, 127
1, 180531, Note_on_c, 1, 57, 127
1, 180806, Note_off_c, 1, 61, 0
1, 180806, Note_off_c, 1, 57, 0
1, 180951, Note_on_c, 1, 56, 127
1, 181087, Note_off_c, 1, 56, 0
1, 181367, Note_off_c, 1, 78, 0
1, 181371, Note_on_c, 1, 77, 127
1, 181650, Note_on_c, 1, 54, 127
1, 181786, Note_off_c, 1, 54, 0
1, 181926, Note_off_c, 1, 77, 0
1, 181931, Note_on_c, 1, 57, 127
1, 181931, Note_on_c, 1, 78, 127
1, 181931, Note_on_c, 1, 54, 127
1, 182223, Note_off_c, 1, 57, 0
1, 182225, Note_off_c, 1, 78, 0
1, 182226, Note_on_c, 1, 61, 127
1, 182226, Note_on_c, 1, 76, 127
1, 182486, Note_off_c, 1, 54, 0
1, 182501, Note_off_c, 1, 61, 0
1, 182501, Note_off_c, 1, 76, 0
1, 182507, Note_on_c, 1, 74, 127
1, 182507, Note_on_c, 1, 54, 127
1, 182507, Note_on_c, 1, 57, 127
1, 182507, Note_on_c, 1, 66, 127
1, 182786, Note_off_c, 1, 74, 0
1, 182788, Note_on_c, 1, 73, 127
1, 183067, Note_off_c, 1, 73, 0
1, 183070, Note_off_c, 1, 54, 0
1, 183073, Note_on_c, 1, 52, 127
1, 183356, Note_on_c, 1, 71, 127
1, 183635, Note_off_c, 1, 71, 0
1, 183636, Note_off_c, 1, 52, 0
1, 183641, Note_on_c, 1, 51, 127
1, 183924, Note_on_c, 1, 78, 127
1, 184203, Note_off_c, 1, 78, 0
1, 184204, Note_off_c, 1, 57, 0
1, 184491, Note_on_c, 1, 69, 127
1, 184770, Note_off_c, 1, 69, 0
1, 184774, Note_on_c, 1, 59, 127
1, 185059, Note_on_c, 1, 68, 127
1, 185338, Note_off_c, 1, 68, 0
1, 185623, Note_off_c, 1, 66, 0
1, 185906, Note_off_c, 1, 51, 0
1, 185908, Note_on_c, 1, 64, 127
1, 186193, Note_on_c, 1, 50, 127
1, 186471, Note_off_c, 1, 59, 0
1, 186472, Note_off_c, 1, 50, 0
1, 186476, Note_on_c, 1, 61, 127
1, 186476, Note_on_c, 1, 49, 127
1, 186755, Note_off_c, 1, 61, 0
1, 187039, Note_off_c, 1, 64, 0
1, 187042, Note_on_c, 1, 62, 127
1, 187327, Note_on_c, 1, 65, 127
1, 187606, Note_off_c, 1, 65, 0
1, 187607, Note_off_c, 1, 49, 0
1, 187889, Note_off_c, 1, 62, 0
1, 187894, Note_on_c, 1, 52, 127
1, 187894, Note_on_c, 1, 66, 127
1, 187894, Note_on_c, 1, 69, 127
1, 188173, Note_off_c, 1, 52, 0
1, 188173, Note_off_c, 1, 66, 0
1, 188173, Note_off_c, 1, 69, 0
1, 188178, Note_on_c, 1, 50, 127
1, 188178, Note_on_c, 1, 68, 127
1, 188178, Note_on_c, 1, 71, 127
1, 188457, Note_off_c, 1, 50, 0
1, 188457, Note_off_c, 1, 68, 0
1, 188457, Note_off_c, 1, 71, 0
1, 188461, Note_on_c, 1, 49, 127
1, 188461, Note_on_c, 1, 70, 127
1, 188461, Note_on_c, 1, 73, 127
1, 188740, Note_off_c, 1, 49, 0
1, 188740, Note_off_c, 1, 70, 0
1, 188740, Note_off_c, 1, 73, 0
1, 188745, Note_on_c, 1, 71, 127
1, 188745, Note_on_c, 1, 47, 127
1, 188745, Note_on_c, 1, 74, 127
1, 189024, Note_off_c, 1, 71, 0
1, 189029, Note_on_c, 1, 54, 127
1, 189029, Note_on_c, 1, 69, 127
1, 189308, Note_off_c, 1, 54, 0
1, 189308, Note_off_c, 1, 69, 0
1, 189312, Note_on_c, 1, 68, 127
1, 189312, Note_on_c, 1, 59, 127
1, 189591, Note_off_c, 1, 68, 0
1, 189592, Note_off_c, 1, 47, 0
1, 189596, Note_on_c, 1, 49, 127
1, 189596, Note_on_c, 1, 66, 127
1, 189875, Note_off_c, 1, 49, 0
1, 189875, Note_off_c, 1, 66, 0
1, 189880, Note_on_c, 1, 50, 127
1, 189880, Note_on_c, 1, 65, 127
1, 190159, Note_off_c, 1, 59, 0
1, 190159, Note_off_c, 1, 50, 0
1, 190159, Note_off_c, 1, 65, 0
1, 190163, Note_on_c, 1, 57, 127
1, 190442, Note_off_c, 1, 57, 0
1, 190446, Note_on_c, 1, 56, 127
1, 190726, Note_off_c, 1, 74, 0
1, 190730, Note_on_c, 1, 51, 127
1, 191009, Note_off_c, 1, 51, 0
1, 191014, Note_on_c, 1, 73, 127
1, 191155, Note_on_c, 1, 53, 127
1, 191293, Note_off_c, 1, 56, 0
1, 191293, Note_off_c, 1, 73, 0
1, 191293, Note_off_c, 1, 53, 0
1, 191581, Note_on_c, 1, 61, 127
1, 192428, Note_off_c, 1, 61, 0
1, 192447, Note_on_c, 1, 64, 127
1, 192726, Note_off_c, 1, 64, 0
1, 192731, Note_on_c, 1, 63, 127
1, 193010, Note_off_c, 1, 63, 0
1, 195283, Note_on_c, 1, 52, 127
1, 195562, Note_off_c, 1, 52, 0
1, 195866, Note_on_c, 1, 62, 127
1, 196145, Note_off_c, 1, 62, 0
1, 198134, Note_on_c, 1, 67, 127
1, 198413, Note_off_c, 1, 67, 0
1, 200687, Note_on_c, 1, 53, 127
1, 200687, Note_on_c, 1, 69, 127
1, 200687, Note_on_c, 1, 49, 127
1, 200966, Note_off_c, 1, 53, 0
1, 200971, Note_on_c, 1, 59, 127
1, 200971, Note_on_c, 1, 68, 127
1, 201250, Note_off_c, 1, 59, 0
1, 201250, Note_off_c, 1, 68, 0
1, 201253, Note_on_c, 1, 57, 127
1, 201253, Note_on_c, 1, 66, 127
1, 201532, Note_off_c, 1, 57, 0
1, 201532, Note_off_c, 1, 66, 0
1, 201538, Note_on_c, 1, 56, 127
1, 201538, Note_on_c, 1, 64, 127
1, 201817, Note_off_c, 1, 56, 0
1, 201817, Note_off_c, 1, 64, 0
1, 202106, Note_on_c, 1, 54, 127
1, 202106, Note_on_c, 1, 63, 127
1, 202385, Note_off_c, 1, 54, 0
1, 202385, Note_off_c, 1, 63, 0
1, 202952, Note_off_c, 1, 69, 0
1, 203240, Note_on_c, 1, 62, 127
1, 203240, Note_on_c, 1, 70, 127
1, 203519, Note_off_c, 1, 62, 0
1, 203519, Note_off_c, 1, 70, 0
1, 203524, Note_on_c, 1, 71, 127
1, 203806, Note_on_c, 1, 61, 127
1, 204085, Note_off_c, 1, 61, 0
1, 204655, Note_off_c, 1, 71, 0
1, 205507, Note_on_c, 1, 72, 127
1, 205786, Note_off_c, 1, 72, 0
1, 205792, Note_on_c, 1, 65, 127
1, 205792, Note_on_c, 1, 73, 127
1, 206076, Note_off_c, 1, 49, 0
1, 206079, Note_on_c, 1, 47, 127
1, 206362, Note_off_c, 1, 65, 0
1, 206362, Note_off_c, 1, 47, 0
1, 206367, Note_on_c, 1, 45, 127
1, 206657, Note_off_c, 1, 45, 0
1, 206658, Note_off_c, 1, 73, 0
1, 206678, Note_on_c, 1, 44, 127
1, 206968, Note_off_c, 1, 44, 0
1, 206972, Note_on_c, 1, 42, 127
1, 207270, Note_off_c, 1, 42, 0
1, 207577, Note_on_c, 1, 50, 127
1, 207890, Note_off_c, 1, 50, 0
1, 208211, Note_on_c, 1, 69, 127
1, 208211, Note_on_c, 1, 61, 127
1, 208211, Note_on_c, 1, 49, 127
1, 208379, Note_off_c, 1, 69, 0
1, 208382, Note_on_c, 1, 68, 127
1, 208550, Note_off_c, 1, 68, 0
1, 208552, Note_off_c, 1, 61, 0
1, 208554, Note_on_c, 1, 59, 127
1, 208893, Note_off_c, 1, 59, 0
1, 208896, Note_off_c, 1, 49, 0
1, 208900, Note_on_c, 1, 65, 127
1, 208900, Note_on_c, 1, 37, 127
1, 209300, Note_on_c, 1, 58, 127
1, 209696, Note_off_c, 1, 58, 0
1, 209697, Note_off_c, 1, 65, 0
1, 209697, Note_off_c, 1, 37, 0
1, 209701, Note_on_c, 1, 66, 127
1, 209701, Note_on_c, 1, 58, 127
1, 209701, Note_on_c, 1, 42, 127
1, 213131, Note_off_c, 1, 66, 0
1, 213131, Note_off_c, 1, 58, 0
1, 213131, Note_off_c, 1, 42, 0
1, 213131, End_track
0, 0, End_of_file