0, 0, Header, 1, 1, 480
1, 0, Start_track
1, 0, Title_t, "Test"
1, 0, Tempo, 500000
1, 0, Instrument_name_t, "Church Organ"
1, 311, Note_on_c, 1, 71, 127
1, 775, Note_off_c, 1, 71, 0
1, 777, Note_on_c, 1, 71, 127
1, 930, Note_off_c, 1, 71, 0
1, 933, Note_on_c, 1, 64, 127
1, 1242, Note_off_c, 1, 64, 0
1, 1244, Note_on_c, 1, 72, 127
1, 1397, Note_off_c, 1, 72, 0
1, 1399, Note_on_c, 1, 71, 127
1, 1552, Note_off_c, 1, 71, 0
1, 1555, Note_on_c, 1, 72, 127
1, 1708, Note_off_c, 1, 72, 0
1, 1710, Note_on_c, 1, 69, 127
1, 1863, Note_off_c, 1, 69, 0
1, 1866, Note_on_c, 1, 63, 127
1, 2175, Note_off_c, 1, 63, 0
1, 2177, Note_on_c, 1, 66, 127
1, 2641, Note_off_c, 1, 66, 0
1, 2643, Note_on_c, 1, 66, 127
1, 2796, Note_off_c, 1, 66, 0
1, 2799, Note_on_c, 1, 59, 127
1, 3108, Note_off_c, 1, 59, 0
1, 3110, Note_on_c, 1, 71, 127
1, 3263, Note_off_c, 1, 71, 0
1, 3265, Note_on_c, 1, 69, 127
1, 3418, Note_off_c, 1, 69, 0
1, 3421, Note_on_c, 1, 71, 127
1, 3574, Note_off_c, 1, 71, 0
1, 3576, Note_on_c, 1, 66, 127
1, 3729, Note_off_c, 1, 66, 0
1, 3732, Note_on_c, 1, 67, 127
1, 3885, Note_off_c, 1, 67, 0
1, 3888, Note_on_c, 1, 66, 127
1, 4041, Note_off_c, 1, 66, 0
1, 4043, Note_on_c, 1, 67, 127
1, 4043, Note_on_c, 1, 76, 127
1, 4196, Note_off_c, 1, 67, 0
1, 4199, Note_on_c, 1, 69, 127
1, 4352, Note_off_c, 1, 69, 0
1, 4507, Note_off_c, 1, 76, 0
1, 4510, Note_on_c, 1, 76, 127
1, 4510, Note_on_c, 1, 66, 127
1, 4663, Note_off_c, 1, 76, 0
1, 4663, Note_off_c, 1, 66, 0
1, 4665, Note_on_c, 1, 64, 127
1, 4665, Note_on_c, 1, 71, 127
1, 4818, Note_off_c, 1, 64, 0
1, 4821, Note_on_c, 1, 62, 127
1, 4974, Note_off_c, 1, 71, 0
1, 4974, Note_off_c, 1, 62, 0
1, 4976, Note_on_c, 1, 79, 127
1, 4976, Note_on_c, 1, 64, 127
1, 5129, Note_off_c, 1, 79, 0
1, 5129, Note_off_c, 1, 64, 0
1, 5132, Note_on_c, 1, 78, 127
1, 5132, Note_on_c, 1, 66, 127
1, 5285, Note_off_c, 1, 78, 0
1, 5285, Note_off_c, 1, 66, 0
1, 5287, Note_on_c, 1, 79, 127
1, 5287, Note_on_c, 1, 64, 127
1, 5440, Note_off_c, 1, 79, 0
1, 5440, Note_off_c, 1, 64, 0
1, 5443, Note_on_c, 1, 76, 127
1, 5443, Note_on_c, 1, 62, 127
1, 5596, Note_off_c, 1, 76, 0
1, 5596, Note_off_c, 1, 62, 0
1, 5598, Note_on_c, 1, 61, 127
1, 5598, Note_on_c, 1, 70, 127
1, 5751, Note_off_c, 1, 61, 0
1, 5754, Note_on_c, 1, 59, 127
1, 5907, Note_off_c, 1, 70, 0
1, 5907, Note_off_c, 1, 59, 0
1, 5909, Note_on_c, 1, 61, 127
1, 5909, Note_on_c, 1, 73, 127
1, 6062, Note_off_c, 1, 61, 0
1, 6065, Note_on_c, 1, 62, 127
1, 6218, Note_off_c, 1, 62, 0
1, 6373, Note_off_c, 1, 73, 0
1, 6376, Note_on_c, 1, 73, 127
1, 6376, Note_on_c, 1, 59, 127
1, 6529, Note_off_c, 1, 73, 0
1, 6529, Note_off_c, 1, 59, 0
1, 6531, Note_on_c, 1, 58, 127
1, 6531, Note_on_c, 1, 66, 127
1, 6684, Note_off_c, 1, 58, 0
1, 6687, Note_on_c, 1, 56, 127
1, 6840, Note_off_c, 1, 66, 0
1, 6840, Note_off_c, 1, 56, 0
1, 6842, Note_on_c, 1, 78, 127
1, 6842, Note_on_c, 1, 58, 127
1, 6995, Note_off_c, 1, 78, 0
1, 6995, Note_off_c, 1, 58, 0
1, 6998, Note_on_c, 1, 76, 127
1, 6998, Note_on_c, 1, 59, 127
1, 7151, Note_off_c, 1, 76, 0
1, 7151, Note_off_c, 1, 59, 0
1, 7153, Note_on_c, 1, 78, 127
1, 7153, Note_on_c, 1, 56, 127
1, 7306, Note_off_c, 1, 78, 0
1, 7306, Note_off_c, 1, 56, 0
1, 7309, Note_on_c, 1, 73, 127
1, 7309, Note_on_c, 1, 58, 127
1, 7462, Note_off_c, 1, 73, 0
1, 7462, Note_off_c, 1, 58, 0
1, 7464, Note_on_c, 1, 74, 127
1, 7464, Note_on_c, 1, 59, 127
1, 7617, Note_off_c, 1, 74, 0
1, 7620, Note_on_c, 1, 73, 127
1, 7773, Note_off_c, 1, 59, 0
1, 7773, Note_off_c, 1, 73, 0
1, 7776, Note_on_c, 1, 74, 127
1, 7776, Note_on_c, 1, 71, 127
1, 7929, Note_off_c, 1, 74, 0
1, 7931, Note_on_c, 1, 76, 127
1, 8084, Note_off_c, 1, 76, 0
1, 8240, Note_off_c, 1, 71, 0
1, 8242, Note_on_c, 1, 72, 127
1, 8242, Note_on_c, 1, 69, 127
1, 8395, Note_off_c, 1, 72, 0
1, 8395, Note_off_c, 1, 69, 0
1, 8398, Note_on_c, 1, 67, 127
1, 8398, Note_on_c, 1, 71, 127
1, 8551, Note_off_c, 1, 67, 0
1, 8553, Note_on_c, 1, 66, 127
1, 8706, Note_off_c, 1, 66, 0
1, 8707, Note_off_c, 1, 71, 0
1, 8709, Note_on_c, 1, 67, 127
1, 8709, Note_on_c, 1, 76, 127
1, 8862, Note_off_c, 1, 67, 0
1, 8864, Note_on_c, 1, 69, 127
1, 9017, Note_off_c, 1, 69, 0
1, 9173, Note_off_c, 1, 76, 0
1, 9175, Note_on_c, 1, 74, 127
1, 9175, Note_on_c, 1, 66, 127
1, 9328, Note_off_c, 1, 74, 0
1, 9328, Note_off_c, 1, 66, 0
1, 9331, Note_on_c, 1, 72, 127
1, 9331, Note_on_c, 1, 64, 127
1, 9484, Note_off_c, 1, 72, 0
1, 9486, Note_on_c, 1, 71, 127
1, 9639, Note_off_c, 1, 71, 0
1, 9640, Note_off_c, 1, 64, 0
1, 9642, Note_on_c, 1, 72, 127
1, 9642, Note_on_c, 1, 69, 127
1, 9795, Note_off_c, 1, 72, 0
1, 9797, Note_on_c, 1, 74, 127
1, 9950, Note_off_c, 1, 74, 0
1, 10106, Note_off_c, 1, 69, 0
1, 10108, Note_on_c, 1, 71, 127
1, 10108, Note_on_c, 1, 67, 127
1, 10261, Note_off_c, 1, 71, 0
1, 10261, Note_off_c, 1, 67, 0
1, 10264, Note_on_c, 1, 66, 127
1, 10264, Note_on_c, 1, 69, 127
1, 10417, Note_off_c, 1, 66, 0
1, 10419, Note_on_c, 1, 64, 127
1, 10572, Note_off_c, 1, 64, 0
1, 10573, Note_off_c, 1, 69, 0
1, 10575, Note_on_c, 1, 66, 127
1, 10575, Note_on_c, 1, 81, 127
1, 10728, Note_off_c, 1, 66, 0
1, 10730, Note_on_c, 1, 67, 127
1, 10883, Note_off_c, 1, 67, 0
1, 11039, Note_off_c, 1, 81, 0
1, 11041, Note_on_c, 1, 81, 127
1, 11041, Note_on_c, 1, 64, 127
1, 11194, Note_off_c, 1, 81, 0
1, 11194, Note_off_c, 1, 64, 0
1, 11197, Note_on_c, 1, 81, 127
1, 11197, Note_on_c, 1, 63, 127
1, 11350, Note_off_c, 1, 81, 0
1, 11352, Note_on_c, 1, 79, 127
1, 11505, Note_off_c, 1, 79, 0
1, 11506, Note_off_c, 1, 63, 0
1, 11508, Note_on_c, 1, 81, 127
1, 11508, Note_on_c, 1, 63, 127
1, 11508, Note_on_c, 1, 59, 127
1, 11661, Note_off_c, 1, 81, 0
1, 11664, Note_on_c, 1, 84, 127
1, 11817, Note_off_c, 1, 84, 0
1, 11819, Note_on_c, 1, 83, 127
1, 11972, Note_off_c, 1, 63, 0
1, 11972, Note_off_c, 1, 59, 0
1, 11972, Note_off_c, 1, 83, 0
1, 11975, Note_on_c, 1, 81, 127
1, 11975, Note_on_c, 1, 63, 127
1, 11975, Note_on_c, 1, 59, 127
1, 12128, Note_off_c, 1, 81, 0
1, 12128, Note_off_c, 1, 63, 0
1, 12128, Note_off_c, 1, 59, 0
1, 12130, Note_on_c, 1, 79, 127
1, 12130, Note_on_c, 1, 52, 127
1, 12130, Note_on_c, 1, 64, 127
1, 12283, Note_off_c, 1, 79, 0
1, 12286, Note_on_c, 1, 78, 127
1, 12439, Note_off_c, 1, 52, 0
1, 12439, Note_off_c, 1, 78, 0
1, 12441, Note_on_c, 1, 60, 127
1, 12594, Note_off_c, 1, 60, 0
1, 12597, Note_on_c, 1, 83, 127
1, 12597, Note_on_c, 1, 59, 127
1, 12745, Note_off_c, 1, 64, 0
1, 12750, Note_off_c, 1, 83, 0
1, 12750, Note_off_c, 1, 59, 0
1, 12752, Note_on_c, 1, 81, 127
1, 12752, Note_on_c, 1, 60, 127
1, 12905, Note_off_c, 1, 81, 0
1, 12905, Note_off_c, 1, 60, 0
1, 12908, Note_on_c, 1, 79, 127
1, 12908, Note_on_c, 1, 57, 127
1, 13061, Note_off_c, 1, 79, 0
1, 13061, Note_off_c, 1, 57, 0
1, 13063, Note_on_c, 1, 78, 127
1, 13063, Note_on_c, 1, 51, 127
1, 13216, Note_off_c, 1, 78, 0
1, 13219, Note_on_c, 1, 76, 127
1, 13372, Note_off_c, 1, 51, 0
1, 13372, Note_off_c, 1, 76, 0
1, 13374, Note_on_c, 1, 78, 127
1, 13374, Note_on_c, 1, 57, 127
1, 13374, Note_on_c, 1, 54, 127
1, 13527, Note_off_c, 1, 78, 0
1, 13530, Note_on_c, 1, 79, 127
1, 13683, Note_off_c, 1, 79, 0
1, 13838, Note_off_c, 1, 57, 0
1, 13838, Note_off_c, 1, 54, 0
1, 13841, Note_on_c, 1, 76, 127
1, 13841, Note_on_c, 1, 57, 127
1, 13841, Note_on_c, 1, 54, 127
1, 13994, Note_off_c, 1, 76, 0
1, 13994, Note_off_c, 1, 57, 0
1, 13994, Note_off_c, 1, 54, 0
1, 13996, Note_on_c, 1, 75, 127
1, 13996, Note_on_c, 1, 57, 127
1, 13996, Note_on_c, 1, 47, 127
1, 14149, Note_off_c, 1, 75, 0
1, 14152, Note_on_c, 1, 73, 127
1, 14303, Note_off_c, 1, 57, 0
1, 14305, Note_off_c, 1, 47, 0
1, 14305, Note_off_c, 1, 73, 0
1, 14307, Note_on_c, 1, 75, 127
1, 14307, Note_on_c, 1, 59, 127
1, 14460, Note_off_c, 1, 75, 0
1, 14460, Note_off_c, 1, 59, 0
1, 14463, Note_on_c, 1, 76, 127
1, 14463, Note_on_c, 1, 57, 127
1, 14616, Note_off_c, 1, 76, 0
1, 14616, Note_off_c, 1, 57, 0
1, 14618, Note_on_c, 1, 73, 127
1, 14618, Note_on_c, 1, 59, 127
1, 14771, Note_off_c, 1, 73, 0
1, 14771, Note_off_c, 1, 59, 0
1, 14774, Note_on_c, 1, 75, 127
1, 14774, Note_on_c, 1, 54, 127
1, 14927, Note_off_c, 1, 75, 0
1, 14927, Note_off_c, 1, 54, 0
1, 14929, Note_on_c, 1, 76, 127
1, 14929, Note_on_c, 1, 55, 127
1, 15082, Note_off_c, 1, 76, 0
1, 15082, Note_off_c, 1, 55, 0
1, 15085, Note_on_c, 1, 75, 127
1, 15085, Note_on_c, 1, 57, 127
1, 15238, Note_off_c, 1, 75, 0
1, 15238, Note_off_c, 1, 57, 0
1, 15240, Note_on_c, 1, 76, 127
1, 15240, Note_on_c, 1, 55, 127
1, 15393, Note_off_c, 1, 76, 0
1, 15393, Note_off_c, 1, 55, 0
1, 15396, Note_on_c, 1, 78, 127
1, 15396, Note_on_c, 1, 54, 127
1, 15549, Note_off_c, 1, 78, 0
1, 15549, Note_off_c, 1, 54, 0
1, 15552, Note_on_c, 1, 79, 127
1, 15552, Note_on_c, 1, 52, 127
1, 15705, Note_off_c, 1, 79, 0
1, 15705, Note_off_c, 1, 52, 0
1, 15707, Note_on_c, 1, 76, 127
1, 15707, Note_on_c, 1, 55, 127
1, 15860, Note_off_c, 1, 76, 0
1, 15860, Note_off_c, 1, 55, 0
1, 15863, Note_on_c, 1, 73, 127
1, 15863, Note_on_c, 1, 57, 127
1, 16016, Note_off_c, 1, 73, 0
1, 16016, Note_off_c, 1, 57, 0
1, 16018, Note_on_c, 1, 74, 127
1, 16018, Note_on_c, 1, 56, 127
1, 16171, Note_off_c, 1, 74, 0
1, 16171, Note_off_c, 1, 56, 0
1, 16174, Note_on_c, 1, 73, 127
1, 16174, Note_on_c, 1, 57, 127
1, 16327, Note_off_c, 1, 73, 0
1, 16327, Note_off_c, 1, 57, 0
1, 16329, Note_on_c, 1, 71, 127
1, 16329, Note_on_c, 1, 59, 127
1, 16482, Note_off_c, 1, 71, 0
1, 16482, Note_off_c, 1, 59, 0
1, 16485, Note_on_c, 1, 69, 127
1, 16485, Note_on_c, 1, 61, 127
1, 16638, Note_off_c, 1, 69, 0
1, 16638, Note_off_c, 1, 61, 0
1, 16640, Note_on_c, 1, 73, 127
1, 16640, Note_on_c, 1, 57, 127
1, 16793, Note_off_c, 1, 73, 0
1, 16793, Note_off_c, 1, 57, 0
1, 16796, Note_on_c, 1, 74, 127
1, 16796, Note_on_c, 1, 54, 127
1, 16949, Note_off_c, 1, 74, 0
1, 16949, Note_off_c, 1, 54, 0
1, 16951, Note_on_c, 1, 73, 127
1, 16951, Note_on_c, 1, 55, 127
1, 17104, Note_off_c, 1, 73, 0
1, 17104, Note_off_c, 1, 55, 0
1, 17107, Note_on_c, 1, 74, 127
1, 17107, Note_on_c, 1, 54, 127
1, 17260, Note_off_c, 1, 74, 0
1, 17260, Note_off_c, 1, 54, 0
1, 17262, Note_on_c, 1, 76, 127
1, 17262, Note_on_c, 1, 52, 127
1, 17415, Note_off_c, 1, 76, 0
1, 17415, Note_off_c, 1, 52, 0
1, 17418, Note_on_c, 1, 78, 127
1, 17418, Note_on_c, 1, 50, 127
1, 17571, Note_off_c, 1, 78, 0
1, 17571, Note_off_c, 1, 50, 0
1, 17573, Note_on_c, 1, 74, 127
1, 17573, Note_on_c, 1, 54, 127
1, 17726, Note_off_c, 1, 74, 0
1, 17726, Note_off_c, 1, 54, 0
1, 17729, Note_on_c, 1, 71, 127
1, 17729, Note_on_c, 1, 55, 127
1, 17882, Note_off_c, 1, 71, 0
1, 17882, Note_off_c, 1, 55, 0
1, 17884, Note_on_c, 1, 72, 127
1, 17884, Note_on_c, 1, 54, 127
1, 18037, Note_off_c, 1, 72, 0
1, 18037, Note_off_c, 1, 54, 0
1, 18040, Note_on_c, 1, 71, 127
1, 18040, Note_on_c, 1, 55, 127
1, 18193, Note_off_c, 1, 71, 0
1, 18193, Note_off_c, 1, 55, 0
1, 18195, Note_on_c, 1, 69, 127
1, 18195, Note_on_c, 1, 57, 127
1, 18348, Note_off_c, 1, 69, 0
1, 18348, Note_off_c, 1, 57, 0
1, 18351, Note_on_c, 1, 67, 127
1, 18351, Note_on_c, 1, 59, 127
1, 18504, Note_off_c, 1, 67, 0
1, 18504, Note_off_c, 1, 59, 0
1, 18506, Note_on_c, 1, 71, 127
1, 18506, Note_on_c, 1, 55, 127
1, 18659, Note_off_c, 1, 71, 0
1, 18659, Note_off_c, 1, 55, 0
1, 18662, Note_on_c, 1, 73, 127
1, 18662, Note_on_c, 1, 52, 127
1, 18815, Note_off_c, 1, 73, 0
1, 18815, Note_off_c, 1, 52, 0
1, 18817, Note_on_c, 1, 71, 127
1, 18817, Note_on_c, 1, 54, 127
1, 18970, Note_off_c, 1, 71, 0
1, 18970, Note_off_c, 1, 54, 0
1, 18973, Note_on_c, 1, 73, 127
1, 18973, Note_on_c, 1, 52, 127
1, 19126, Note_off_c, 1, 73, 0
1, 19126, Note_off_c, 1, 52, 0
1, 19128, Note_on_c, 1, 74, 127
1, 19128, Note_on_c, 1, 50, 127
1, 19281, Note_off_c, 1, 74, 0
1, 19281, Note_off_c, 1, 50, 0
1, 19284, Note_on_c, 1, 76, 127
1, 19284, Note_on_c, 1, 49, 127
1, 19437, Note_off_c, 1, 76, 0
1, 19437, Note_off_c, 1, 49, 0
1, 19440, Note_on_c, 1, 73, 127
1, 19440, Note_on_c, 1, 52, 127
1, 19593, Note_off_c, 1, 73, 0
1, 19593, Note_off_c, 1, 52, 0
1, 19595, Note_on_c, 1, 70, 127
1, 19595, Note_on_c, 1, 54, 127
1, 19748, Note_off_c, 1, 70, 0
1, 19748, Note_off_c, 1, 54, 0
1, 19751, Note_on_c, 1, 71, 127
1, 19751, Note_on_c, 1, 55, 127
1, 19904, Note_off_c, 1, 71, 0
1, 19904, Note_off_c, 1, 55, 0
1, 19906, Note_on_c, 1, 70, 127
1, 19906, Note_on_c, 1, 54, 127
1, 20059, Note_off_c, 1, 70, 0
1, 20059, Note_off_c, 1, 54, 0
1, 20062, Note_on_c, 1, 68, 127
1, 20062, Note_on_c, 1, 52, 127
1, 20215, Note_off_c, 1, 68, 0
1, 20215, Note_off_c, 1, 52, 0
1, 20217, Note_on_c, 1, 66, 127
1, 20217, Note_on_c, 1, 50, 127
1, 20370, Note_off_c, 1, 66, 0
1, 20370, Note_off_c, 1, 50, 0
1, 20373, Note_on_c, 1, 70, 127
1, 20373, Note_on_c, 1, 49, 127
1, 20526, Note_off_c, 1, 70, 0
1, 20526, Note_off_c, 1, 49, 0
1, 20528, Note_on_c, 1, 71, 127
1, 20528, Note_on_c, 1, 50, 127
1, 20681, Note_off_c, 1, 71, 0
1, 20681, Note_off_c, 1, 50, 0
1, 20684, Note_on_c, 1, 70, 127
1, 20684, Note_on_c, 1, 52, 127
1, 20837, Note_off_c, 1, 70, 0
1, 20837, Note_off_c, 1, 52, 0
1, 20839, Note_on_c, 1, 71, 127
1, 20839, Note_on_c, 1, 50, 127
1, 20839, Note_on_c, 1, 66, 127
1, 20992, Note_off_c, 1, 71, 0
1, 20992, Note_off_c, 1, 50, 0
1, 20995, Note_on_c, 1, 73, 127
1, 20995, Note_on_c, 1, 49, 127
1, 21148, Note_off_c, 1, 73, 0
1, 21148, Note_off_c, 1, 49, 0
1, 21150, Note_on_c, 1, 74, 127
1, 21150, Note_on_c, 1, 47, 127
1, 21303, Note_off_c, 1, 66, 0
1, 21303, Note_off_c, 1, 74, 0
1, 21303, Note_off_c, 1, 47, 0
1, 21306, Note_on_c, 1, 71, 127
1, 21306, Note_on_c, 1, 66, 127
1, 21306, Note_on_c, 1, 50, 127
1, 21459, Note_off_c, 1, 71, 0
1, 21459, Note_off_c, 1, 66, 0
1, 21459, Note_off_c, 1, 50, 0
1, 21461, Note_on_c, 1, 52, 127
1, 21461, Note_on_c, 1, 67, 127
1, 21461, Note_on_c, 1, 59, 127
1, 21614, Note_off_c, 1, 52, 0
1, 21617, Note_on_c, 1, 50, 127
1, 21768, Note_off_c, 1, 67, 0
1, 21770, Note_off_c, 1, 59, 0
1, 21770, Note_off_c, 1, 50, 0
1, 21772, Note_on_c, 1, 67, 127
1, 21772, Note_on_c, 1, 52, 127
1, 21925, Note_off_c, 1, 67, 0
1, 21925, Note_off_c, 1, 52, 0
1, 21928, Note_on_c, 1, 66, 127
1, 21928, Note_on_c, 1, 54, 127
1, 22081, Note_off_c, 1, 66, 0
1, 22081, Note_off_c, 1, 54, 0
1, 22083, Note_on_c, 1, 52, 127
1, 22083, Note_on_c, 1, 67, 127
1, 22236, Note_off_c, 1, 52, 0
1, 22239, Note_on_c, 1, 64, 127
1, 22239, Note_on_c, 1, 50, 127
1, 22392, Note_off_c, 1, 64, 0
1, 22392, Note_off_c, 1, 50, 0
1, 22394, Note_on_c, 1, 49, 127
1, 22394, Note_on_c, 1, 58, 127
1, 22536, Note_off_c, 1, 67, 0
1, 22547, Note_off_c, 1, 49, 0
1, 22550, Note_on_c, 1, 47, 127
1, 22703, Note_off_c, 1, 58, 0
1, 22703, Note_off_c, 1, 47, 0
1, 22705, Note_on_c, 1, 49, 127
1, 22705, Note_on_c, 1, 64, 127
1, 22705, Note_on_c, 1, 61, 127
1, 22858, Note_off_c, 1, 49, 0
1, 22861, Note_on_c, 1, 50, 127
1, 23014, Note_off_c, 1, 50, 0
1, 23169, Note_off_c, 1, 64, 0
1, 23169, Note_off_c, 1, 61, 0
1, 23172, Note_on_c, 1, 64, 127
1, 23172, Note_on_c, 1, 61, 127
1, 23172, Note_on_c, 1, 47, 127
1, 23325, Note_off_c, 1, 64, 0
1, 23325, Note_off_c, 1, 61, 0
1, 23325, Note_off_c, 1, 47, 0
1, 23328, Note_on_c, 1, 46, 127
1, 23328, Note_on_c, 1, 64, 127
1, 23328, Note_on_c, 1, 54, 127
1, 23481, Note_off_c, 1, 46, 0
1, 23483, Note_on_c, 1, 44, 127
1, 23635, Note_off_c, 1, 64, 0
1, 23636, Note_off_c, 1, 44, 0
1, 23639, Note_on_c, 1, 66, 127
1, 23792, Note_off_c, 1, 66, 0
1, 23794, Note_on_c, 1, 47, 127
1, 23947, Note_off_c, 1, 47, 0
1, 24105, Note_on_c, 1, 61, 127
1, 24258, Note_off_c, 1, 61, 0
1, 24259, Note_off_c, 1, 54, 0
1, 24261, Note_on_c, 1, 47, 127
1, 24261, Note_on_c, 1, 62, 127
1, 24416, Note_on_c, 1, 66, 127
1, 24569, Note_off_c, 1, 66, 0
1, 24570, Note_off_c, 1, 47, 0
1, 24572, Note_on_c, 1, 59, 127
1, 24572, Note_on_c, 1, 71, 127
1, 24725, Note_off_c, 1, 62, 0
1, 24881, Note_off_c, 1, 59, 0
1, 24883, Note_on_c, 1, 64, 127
1, 25036, Note_off_c, 1, 64, 0
1, 25347, Note_off_c, 1, 71, 0
1, 25349, Note_on_c, 1, 70, 127
1, 25425, Note_off_c, 1, 70, 0
1, 25505, Note_on_c, 1, 73, 127
1, 25660, Note_on_c, 1, 67, 127
1, 25813, Note_off_c, 1, 67, 0
1, 26280, Note_off_c, 1, 73, 0
1, 26438, Note_on_c, 1, 74, 127
1, 26593, Note_on_c, 1, 69, 127
1, 26746, Note_off_c, 1, 69, 0
1, 27213, Note_off_c, 1, 74, 0
1, 27371, Note_on_c, 1, 76, 127
1, 28146, Note_off_c, 1, 76, 0
1, 28460, Note_on_c, 1, 79, 127
1, 28613, Note_off_c, 1, 79, 0
1, 28615, Note_on_c, 1, 78, 127
1, 28615, Note_on_c, 1, 47, 127
1, 28768, Note_off_c, 1, 78, 0
1, 28771, Note_on_c, 1, 76, 127
1, 28924, Note_off_c, 1, 47, 0
1, 28924, Note_off_c, 1, 76, 0
1, 28926, Note_on_c, 1, 59, 127
1, 28926, Note_on_c, 1, 74, 127
1, 29079, Note_off_c, 1, 59, 0
1, 29082, Note_on_c, 1, 73, 127
1, 29082, Note_on_c, 1, 58, 127
1, 29235, Note_off_c, 1, 73, 0
1, 29235, Note_off_c, 1, 58, 0
1, 29237, Note_on_c, 1, 71, 127
1, 29390, Note_off_c, 1, 71, 0
1, 29393, Note_on_c, 1, 70, 127
1, 29393, Note_on_c, 1, 61, 127
1, 29546, Note_off_c, 1, 70, 0
1, 29546, Note_off_c, 1, 61, 0
1, 29548, Note_on_c, 1, 62, 127
1, 29701, Note_off_c, 1, 62, 0
1, 29704, Note_on_c, 1, 66, 127
1, 29857, Note_off_c, 1, 66, 0
1, 29859, Note_on_c, 1, 64, 127
1, 29859, Note_on_c, 1, 68, 127
1, 30012, Note_off_c, 1, 64, 0
1, 30013, Note_off_c, 1, 74, 0
1, 30015, Note_on_c, 1, 65, 127
1, 30168, Note_off_c, 1, 65, 0
1, 30326, Note_on_c, 1, 77, 127
1, 30474, Note_off_c, 1, 68, 0
1, 30479, Note_off_c, 1, 77, 0
1, 30481, Note_on_c, 1, 76, 127
1, 30481, Note_on_c, 1, 60, 127
1, 30634, Note_off_c, 1, 76, 0
1, 30634, Note_off_c, 1, 60, 0
1, 30637, Note_on_c, 1, 74, 127
1, 30637, Note_on_c, 1, 59, 127
1, 30790, Note_off_c, 1, 74, 0
1, 30790, Note_off_c, 1, 59, 0
1, 30792, Note_on_c, 1, 57, 127
1, 30792, Note_on_c, 1, 72, 127
1, 30945, Note_off_c, 1, 57, 0
1, 30948, Note_on_c, 1, 71, 127
1, 30948, Note_on_c, 1, 56, 127
1, 31101, Note_off_c, 1, 71, 0
1, 31101, Note_off_c, 1, 56, 0
1, 31104, Note_on_c, 1, 69, 127
1, 31257, Note_off_c, 1, 69, 0
1, 31259, Note_on_c, 1, 68, 127
1, 31259, Note_on_c, 1, 59, 127
1, 31412, Note_off_c, 1, 68, 0
1, 31412, Note_off_c, 1, 59, 0
1, 31415, Note_on_c, 1, 60, 127
1, 31568, Note_off_c, 1, 60, 0
1, 31570, Note_on_c, 1, 64, 127
1, 31723, Note_off_c, 1, 64, 0
1, 31726, Note_on_c, 1, 62, 127
1, 31726, Note_on_c, 1, 66, 127
1, 31879, Note_off_c, 1, 72, 0
1, 31879, Note_off_c, 1, 62, 0
1, 32192, Note_on_c, 1, 76, 127
1, 32341, Note_off_c, 1, 66, 0
1, 32345, Note_off_c, 1, 76, 0
1, 32348, Note_on_c, 1, 74, 127
1, 32348, Note_on_c, 1, 59, 127
1, 32501, Note_off_c, 1, 74, 0
1, 32501, Note_off_c, 1, 59, 0
1, 32503, Note_on_c, 1, 72, 127
1, 32503, Note_on_c, 1, 57, 127
1, 32656, Note_off_c, 1, 72, 0
1, 32656, Note_off_c, 1, 57, 0
1, 32659, Note_on_c, 1, 55, 127
1, 32659, Note_on_c, 1, 71, 127
1, 32812, Note_off_c, 1, 55, 0
1, 32814, Note_on_c, 1, 69, 127
1, 32814, Note_on_c, 1, 54, 127
1, 32967, Note_off_c, 1, 69, 0
1, 32967, Note_off_c, 1, 54, 0
1, 32970, Note_on_c, 1, 67, 127
1, 33123, Note_off_c, 1, 67, 0
1, 33125, Note_on_c, 1, 66, 127
1, 33125, Note_on_c, 1, 57, 127
1, 33278, Note_off_c, 1, 66, 0
1, 33278, Note_off_c, 1, 57, 0
1, 33281, Note_on_c, 1, 59, 127
1, 33434, Note_off_c, 1, 59, 0
1, 33436, Note_on_c, 1, 63, 127
1, 33589, Note_off_c, 1, 63, 0
1, 33592, Note_on_c, 1, 60, 127
1, 33592, Note_on_c, 1, 64, 127
1, 33745, Note_off_c, 1, 60, 0
1, 33746, Note_off_c, 1, 71, 0
1, 33747, Note_on_c, 1, 62, 127
1, 33900, Note_off_c, 1, 62, 0
1, 34058, Note_on_c, 1, 74, 127
1, 34207, Note_off_c, 1, 64, 0
1, 34211, Note_off_c, 1, 74, 0
1, 34214, Note_on_c, 1, 72, 127
1, 34214, Note_on_c, 1, 57, 127
1, 34367, Note_off_c, 1, 72, 0
1, 34367, Note_off_c, 1, 57, 0
1, 34369, Note_on_c, 1, 71, 127
1, 34369, Note_on_c, 1, 55, 127
1, 34522, Note_off_c, 1, 71, 0
1, 34522, Note_off_c, 1, 55, 0
1, 34525, Note_on_c, 1, 54, 127
1, 34525, Note_on_c, 1, 69, 127
1, 34678, Note_off_c, 1, 54, 0
1, 34680, Note_on_c, 1, 67, 127
1, 34680, Note_on_c, 1, 52, 127
1, 34833, Note_off_c, 1, 67, 0
1, 34833, Note_off_c, 1, 52, 0
1, 34836, Note_on_c, 1, 66, 127
1, 34989, Note_off_c, 1, 66, 0
1, 34992, Note_on_c, 1, 64, 127
1, 34992, Note_on_c, 1, 55, 127
1, 35145, Note_off_c, 1, 64, 0
1, 35145, Note_off_c, 1, 55, 0
1, 35147, Note_on_c, 1, 57, 127
1, 35300, Note_off_c, 1, 57, 0
1, 35303, Note_on_c, 1, 61, 127
1, 35456, Note_off_c, 1, 61, 0
1, 35458, Note_on_c, 1, 59, 127
1, 35458, Note_on_c, 1, 63, 127
1, 35611, Note_off_c, 1, 59, 0
1, 35767, Note_off_c, 1, 69, 0
1, 35767, Note_off_c, 1, 63, 0
1, 35769, Note_on_c, 1, 57, 127
1, 35769, Note_on_c, 1, 83, 127
1, 35769, Note_on_c, 1, 78, 127
1, 35769, Note_on_c, 1, 75, 127
1, 35922, Note_off_c, 1, 57, 0
1, 35925, Note_on_c, 1, 60, 127
1, 36078, Note_off_c, 1, 60, 0
1, 36080, Note_on_c, 1, 59, 127
1, 36233, Note_off_c, 1, 83, 0
1, 36233, Note_off_c, 1, 78, 0
1, 36233, Note_off_c, 1, 75, 0
1, 36233, Note_off_c, 1, 59, 0
1, 36236, Note_on_c, 1, 83, 127
1, 36236, Note_on_c, 1, 78, 127
1, 36236, Note_on_c, 1, 75, 127
1, 36236, Note_on_c, 1, 57, 127
1, 36389, Note_off_c, 1, 83, 0
1, 36389, Note_off_c, 1, 78, 0
1, 36389, Note_off_c, 1, 75, 0
1, 36389, Note_off_c, 1, 57, 0
1, 36391, Note_on_c, 1, 55, 127
1, 36391, Note_on_c, 1, 76, 127
1, 36391, Note_on_c, 1, 71, 127
1, 36544, Note_off_c, 1, 55, 0
1, 36547, Note_on_c, 1, 54, 127
1, 36700, Note_off_c, 1, 76, 0
1, 36700, Note_off_c, 1, 71, 0
1, 36700, Note_off_c, 1, 54, 0
1, 36702, Note_on_c, 1, 84, 127
1, 36702, Note_on_c, 1, 55, 127
1, 36702, Note_on_c, 1, 81, 127
1, 36702, Note_on_c, 1, 76, 127
1, 36855, Note_off_c, 1, 84, 0
1, 36855, Note_off_c, 1, 55, 0
1, 36858, Note_on_c, 1, 83, 127
1, 36858, Note_on_c, 1, 59, 127
1, 37011, Note_off_c, 1, 83, 0
1, 37011, Note_off_c, 1, 59, 0
1, 37013, Note_on_c, 1, 57, 127
1, 37155, Note_off_c, 1, 81, 0
1, 37166, Note_off_c, 1, 57, 0
1, 37317, Note_off_c, 1, 76, 0
1, 37324, Note_on_c, 1, 54, 127
1, 37324, Note_on_c, 1, 75, 127
1, 37477, Note_off_c, 1, 54, 0
1, 37480, Note_on_c, 1, 52, 127
1, 37633, Note_off_c, 1, 75, 0
1, 37633, Note_off_c, 1, 52, 0
1, 37635, Note_on_c, 1, 54, 127
1, 37635, Note_on_c, 1, 78, 127
1, 37635, Note_on_c, 1, 69, 127
1, 37635, Note_on_c, 1, 72, 127
1, 37788, Note_off_c, 1, 54, 0
1, 37791, Note_on_c, 1, 55, 127
1, 37944, Note_off_c, 1, 55, 0
1, 38099, Note_off_c, 1, 78, 0
1, 38102, Note_on_c, 1, 52, 127
1, 38250, Note_off_c, 1, 69, 0
1, 38250, Note_off_c, 1, 72, 0
1, 38255, Note_off_c, 1, 52, 0
1, 38257, Note_on_c, 1, 51, 127
1, 38257, Note_on_c, 1, 71, 127
1, 38410, Note_off_c, 1, 51, 0
1, 38413, Note_on_c, 1, 49, 127
1, 38566, Note_off_c, 1, 71, 0
1, 38566, Note_off_c, 1, 49, 0
1, 38568, Note_on_c, 1, 83, 127
1, 38568, Note_on_c, 1, 51, 127
1, 38568, Note_on_c, 1, 78, 127
1, 38568, Note_on_c, 1, 71, 127
1, 38721, Note_off_c, 1, 83, 0
1, 38721, Note_off_c, 1, 51, 0
1, 38724, Note_on_c, 1, 81, 127
1, 38724, Note_on_c, 1, 52, 127
1, 38877, Note_off_c, 1, 81, 0
1, 38877, Note_off_c, 1, 52, 0
1, 38880, Note_on_c, 1, 49, 127
1, 39021, Note_off_c, 1, 78, 0
1, 39033, Note_off_c, 1, 49, 0
1, 39183, Note_off_c, 1, 71, 0
1, 39191, Note_on_c, 1, 79, 127
1, 39191, Note_on_c, 1, 52, 127
1, 39344, Note_off_c, 1, 79, 0
1, 39344, Note_off_c, 1, 52, 0
1, 39346, Note_on_c, 1, 81, 127
1, 39346, Note_on_c, 1, 47, 127
1, 39499, Note_off_c, 1, 81, 0
1, 39499, Note_off_c, 1, 47, 0
1, 39502, Note_on_c, 1, 79, 127
1, 39502, Note_on_c, 1, 52, 127
1, 39655, Note_off_c, 1, 79, 0
1, 39655, Note_off_c, 1, 52, 0
1, 39657, Note_on_c, 1, 78, 127
1, 39657, Note_on_c, 1, 54, 127
1, 39810, Note_off_c, 1, 78, 0
1, 39810, Note_off_c, 1, 54, 0
1, 39813, Note_on_c, 1, 76, 127
1, 39813, Note_on_c, 1, 55, 127
1, 39966, Note_off_c, 1, 76, 0
1, 39966, Note_off_c, 1, 55, 0
1, 39968, Note_on_c, 1, 79, 127
1, 39968, Note_on_c, 1, 52, 127
1, 40121, Note_off_c, 1, 79, 0
1, 40121, Note_off_c, 1, 52, 0
1, 40124, Note_on_c, 1, 81, 127
1, 40124, Note_on_c, 1, 48, 127
1, 40277, Note_off_c, 1, 81, 0
1, 40277, Note_off_c, 1, 48, 0
1, 40279, Note_on_c, 1, 79, 127
1, 40279, Note_on_c, 1, 50, 127
1, 40432, Note_off_c, 1, 79, 0
1, 40432, Note_off_c, 1, 50, 0
1, 40435, Note_on_c, 1, 81, 127
1, 40435, Note_on_c, 1, 48, 127
1, 40588, Note_off_c, 1, 81, 0
1, 40588, Note_off_c, 1, 48, 0
1, 40590, Note_on_c, 1, 83, 127
1, 40590, Note_on_c, 1, 47, 127
1, 40743, Note_off_c, 1, 83, 0
1, 40743, Note_off_c, 1, 47, 0
1, 40746, Note_on_c, 1, 84, 127
1, 40746, Note_on_c, 1, 45, 127
1, 40899, Note_off_c, 1, 84, 0
1, 40899, Note_off_c, 1, 45, 0
1, 40901, Note_on_c, 1, 81, 127
1, 40901, Note_on_c, 1, 48, 127
1, 41054, Note_off_c, 1, 81, 0
1, 41054, Note_off_c, 1, 48, 0
1, 41057, Note_on_c, 1, 78, 127
1, 41057, Note_on_c, 1, 50, 127
1, 41210, Note_off_c, 1, 78, 0
1, 41210, Note_off_c, 1, 50, 0
1, 41212, Note_on_c, 1, 79, 127
1, 41212, Note_on_c, 1, 45, 127
1, 41365, Note_off_c, 1, 79, 0
1, 41365, Note_off_c, 1, 45, 0
1, 41368, Note_on_c, 1, 78, 127
1, 41368, Note_on_c, 1, 50, 127
1, 41521, Note_off_c, 1, 78, 0
1, 41521, Note_off_c, 1, 50, 0
1, 41523, Note_on_c, 1, 76, 127
1, 41523, Note_on_c, 1, 52, 127
1, 41676, Note_off_c, 1, 76, 0
1, 41676, Note_off_c, 1, 52, 0
1, 41679, Note_on_c, 1, 74, 127
1, 41679, Note_on_c, 1, 54, 127
1, 41832, Note_off_c, 1, 74, 0
1, 41832, Note_off_c, 1, 54, 0
1, 41834, Note_on_c, 1, 78, 127
1, 41834, Note_on_c, 1, 50, 127
1, 41987, Note_off_c, 1, 78, 0
1, 41987, Note_off_c, 1, 50, 0
1, 41990, Note_on_c, 1, 79, 127
1, 41990, Note_on_c, 1, 47, 127
1, 42143, Note_off_c, 1, 79, 0
1, 42143, Note_off_c, 1, 47, 0
1, 42145, Note_on_c, 1, 78, 127
1, 42145, Note_on_c, 1, 48, 127
1, 42298, Note_off_c, 1, 78, 0
1, 42298, Note_off_c, 1, 48, 0
1, 42301, Note_on_c, 1, 79, 127
1, 42301, Note_on_c, 1, 47, 127
1, 42454, Note_off_c, 1, 79, 0
1, 42454, Note_off_c, 1, 47, 0
1, 42456, Note_on_c, 1, 81, 127
1, 42456, Note_on_c, 1, 45, 127
1, 42609, Note_off_c, 1, 81, 0
1, 42609, Note_off_c, 1, 45, 0
1, 42612, Note_on_c, 1, 83, 127
1, 42612, Note_on_c, 1, 43, 127
1, 42765, Note_off_c, 1, 83, 0
1, 42765, Note_off_c, 1, 43, 0
1, 42768, Note_on_c, 1, 79, 127
1, 42768, Note_on_c, 1, 47, 127
1, 42921, Note_off_c, 1, 79, 0
1, 42921, Note_off_c, 1, 47, 0
1, 42923, Note_on_c, 1, 76, 127
1, 42923, Note_on_c, 1, 48, 127
1, 43076, Note_off_c, 1, 76, 0
1, 43076, Note_off_c, 1, 48, 0
1, 43079, Note_on_c, 1, 78, 127
1, 43079, Note_on_c, 1, 43, 127
1, 43232, Note_off_c, 1, 78, 0
1, 43232, Note_off_c, 1, 43, 0
1, 43234, Note_on_c, 1, 76, 127
1, 43234, Note_on_c, 1, 48, 127
1, 43387, Note_off_c, 1, 76, 0
1, 43387, Note_off_c, 1, 48, 0
1, 43390, Note_on_c, 1, 74, 127
1, 43390, Note_on_c, 1, 50, 127
1, 43543, Note_off_c, 1, 74, 0
1, 43543, Note_off_c, 1, 50, 0
1, 43545, Note_on_c, 1, 72, 127
1, 43545, Note_on_c, 1, 52, 127
1, 43698, Note_off_c, 1, 72, 0
1, 43698, Note_off_c, 1, 52, 0
1, 43701, Note_on_c, 1, 76, 127
1, 43701, Note_on_c, 1, 48, 127
1, 43854, Note_off_c, 1, 76, 0
1, 43854, Note_off_c, 1, 48, 0
1, 43856, Note_on_c, 1, 78, 127
1, 43856, Note_on_c, 1, 45, 127
1, 44009, Note_off_c, 1, 78, 0
1, 44009, Note_off_c, 1, 45, 0
1, 44012, Note_on_c, 1, 76, 127
1, 44012, Note_on_c, 1, 47, 127
1, 44165, Note_off_c, 1, 76, 0
1, 44165, Note_off_c, 1, 47, 0
1, 44167, Note_on_c, 1, 78, 127
1, 44167, Note_on_c, 1, 45, 127
1, 44320, Note_off_c, 1, 78, 0
1, 44320, Note_off_c, 1, 45, 0
1, 44323, Note_on_c, 1, 79, 127
1, 44323, Note_on_c, 1, 43, 127
1, 44476, Note_off_c, 1, 79, 0
1, 44476, Note_off_c, 1, 43, 0
1, 44478, Note_on_c, 1, 81, 127
1, 44478, Note_on_c, 1, 42, 127
1, 44631, Note_off_c, 1, 81, 0
1, 44631, Note_off_c, 1, 42, 0
1, 44634, Note_on_c, 1, 78, 127
1, 44634, Note_on_c, 1, 45, 127
1, 44787, Note_off_c, 1, 78, 0
1, 44787, Note_off_c, 1, 45, 0
1, 44789, Note_on_c, 1, 47, 127
1, 44789, Note_on_c, 1, 75, 127
1, 44942, Note_off_c, 1, 47, 0
1, 44945, Note_on_c, 1, 42, 127
1, 45098, Note_off_c, 1, 75, 0
1, 45098, Note_off_c, 1, 42, 0
1, 45100, Note_on_c, 1, 45, 127
1, 45100, Note_on_c, 1, 75, 127
1, 45100, Note_on_c, 1, 71, 127
1, 45253, Note_off_c, 1, 45, 0
1, 45256, Note_on_c, 1, 48, 127
1, 45409, Note_off_c, 1, 48, 0
1, 45411, Note_on_c, 1, 47, 127
1, 45564, Note_off_c, 1, 75, 0
1, 45564, Note_off_c, 1, 71, 0
1, 45564, Note_off_c, 1, 47, 0
1, 45567, Note_on_c, 1, 75, 127
1, 45567, Note_on_c, 1, 71, 127
1, 45567, Note_on_c, 1, 45, 127
1, 45720, Note_off_c, 1, 75, 0
1, 45720, Note_off_c, 1, 71, 0
1, 45720, Note_off_c, 1, 45, 0
1, 45722, Note_on_c, 1, 43, 127
1, 45722, Note_on_c, 1, 64, 127
1, 45722, Note_on_c, 1, 76, 127
1, 45875, Note_off_c, 1, 43, 0
1, 45878, Note_on_c, 1, 42, 127
1, 46031, Note_off_c, 1, 64, 0
1, 46031, Note_off_c, 1, 42, 0
1, 46033, Note_on_c, 1, 72, 127
1, 46186, Note_off_c, 1, 72, 0
1, 46189, Note_on_c, 1, 71, 127
1, 46189, Note_on_c, 1, 47, 127
1, 46342, Note_off_c, 1, 71, 0
1, 46342, Note_off_c, 1, 47, 0
1, 46344, Note_on_c, 1, 45, 127
1, 46497, Note_off_c, 1, 45, 0
1, 46499, Note_off_c, 1, 76, 0
1, 46500, Note_on_c, 1, 69, 127
1, 46500, Note_on_c, 1, 43, 127
1, 46653, Note_off_c, 1, 69, 0
1, 46653, Note_off_c, 1, 43, 0
1, 46656, Note_on_c, 1, 42, 127
1, 46656, Note_on_c, 1, 63, 127
1, 46809, Note_off_c, 1, 42, 0
1, 46811, Note_on_c, 1, 40, 127
1, 46964, Note_off_c, 1, 40, 0
1, 46965, Note_off_c, 1, 63, 0
1, 46967, Note_on_c, 1, 42, 127
1, 46967, Note_on_c, 1, 69, 127
1, 46967, Note_on_c, 1, 66, 127
1, 47120, Note_off_c, 1, 42, 0
1, 47122, Note_on_c, 1, 43, 127
1, 47275, Note_off_c, 1, 43, 0
1, 47431, Note_off_c, 1, 69, 0
1, 47431, Note_off_c, 1, 66, 0
1, 47433, Note_on_c, 1, 69, 127
1, 47433, Note_on_c, 1, 66, 127
1, 47433, Note_on_c, 1, 40, 127
1, 47586, Note_off_c, 1, 69, 0
1, 47586, Note_off_c, 1, 66, 0
1, 47586, Note_off_c, 1, 40, 0
1, 47589, Note_on_c, 1, 39, 127
1, 47589, Note_on_c, 1, 69, 127
1, 47589, Note_on_c, 1, 59, 127
1, 47589, Note_on_c, 1, 66, 127
1, 47742, Note_off_c, 1, 39, 0
1, 47744, Note_on_c, 1, 37, 127
1, 47896, Note_off_c, 1, 69, 0
1, 47897, Note_off_c, 1, 37, 0
1, 47898, Note_off_c, 1, 59, 0
1, 47900, Note_on_c, 1, 71, 127
1, 48053, Note_off_c, 1, 71, 0
1, 48055, Note_on_c, 1, 40, 127
1, 48208, Note_off_c, 1, 40, 0
1, 48353, Note_off_c, 1, 66, 0
1, 48366, Note_on_c, 1, 66, 127
1, 48366, Note_on_c, 1, 39, 127
1, 48519, Note_off_c, 1, 66, 0
1, 48519, Note_off_c, 1, 39, 0
1, 48522, Note_on_c, 1, 40, 127
1, 48522, Note_on_c, 1, 67, 127
1, 48677, Note_on_c, 1, 71, 127
1, 48830, Note_off_c, 1, 71, 0
1, 48831, Note_off_c, 1, 40, 0
1, 48833, Note_on_c, 1, 52, 127
1, 48833, Note_on_c, 1, 76, 127
1, 48986, Note_off_c, 1, 67, 0
1, 49142, Note_off_c, 1, 52, 0
1, 49144, Note_on_c, 1, 69, 127
1, 49297, Note_off_c, 1, 69, 0
1, 49608, Note_off_c, 1, 76, 0
1, 49610, Note_on_c, 1, 75, 127
1, 49686, Note_off_c, 1, 75, 0
1, 49766, Note_on_c, 1, 78, 127
1, 49921, Note_on_c, 1, 72, 127
1, 50074, Note_off_c, 1, 72, 0
1, 50541, Note_off_c, 1, 78, 0
1, 50699, Note_on_c, 1, 79, 127
1, 50855, Note_on_c, 1, 74, 127
1, 51008, Note_off_c, 1, 74, 0
1, 51474, Note_off_c, 1, 79, 0
1, 51632, Note_on_c, 1, 81, 127
1, 52407, Note_off_c, 1, 81, 0
1, 52721, Note_on_c, 1, 84, 127
1, 52874, Note_off_c, 1, 84, 0
1, 52876, Note_on_c, 1, 83, 127
1, 52876, Note_on_c, 1, 40, 127
1, 53029, Note_off_c, 1, 83, 0
1, 53032, Note_on_c, 1, 81, 127
1, 53185, Note_off_c, 1, 40, 0
1, 53185, Note_off_c, 1, 81, 0
1, 53187, Note_on_c, 1, 79, 127
1, 53187, Note_on_c, 1, 52, 127
1, 53340, Note_off_c, 1, 79, 0
1, 53340, Note_off_c, 1, 52, 0
1, 53343, Note_on_c, 1, 78, 127
1, 53343, Note_on_c, 1, 51, 127
1, 53496, Note_off_c, 1, 78, 0
1, 53496, Note_off_c, 1, 51, 0
1, 53498, Note_on_c, 1, 76, 127
1, 53498, Note_on_c, 1, 52, 127
1, 53651, Note_off_c, 1, 76, 0
1, 53651, Note_off_c, 1, 52, 0
1, 53654, Note_on_c, 1, 75, 127
1, 53654, Note_on_c, 1, 54, 127
1, 53807, Note_off_c, 1, 75, 0
1, 53807, Note_off_c, 1, 54, 0
1, 53809, Note_on_c, 1, 76, 127
1, 53809, Note_on_c, 1, 55, 127
1, 53962, Note_off_c, 1, 76, 0
1, 53962, Note_off_c, 1, 55, 0
1, 53965, Note_on_c, 1, 71, 127
1, 53965, Note_on_c, 1, 52, 127
1, 54118, Note_off_c, 1, 71, 0
1, 54118, Note_off_c, 1, 52, 0
1, 54120, Note_on_c, 1, 57, 127
1, 54120, Note_on_c, 1, 72, 127
1, 54273, Note_off_c, 1, 57, 0
1, 54276, Note_on_c, 1, 64, 127
1, 54276, Note_on_c, 1, 59, 127
1, 54429, Note_off_c, 1, 64, 0
1, 54429, Note_off_c, 1, 59, 0
1, 54432, Note_on_c, 1, 67, 127
1, 54585, Note_off_c, 1, 67, 0
1, 54587, Note_on_c, 1, 71, 127
1, 54587, Note_on_c, 1, 55, 127
1, 54740, Note_off_c, 1, 71, 0
1, 54740, Note_off_c, 1, 55, 0
1, 54743, Note_on_c, 1, 69, 127
1, 54743, Note_on_c, 1, 54, 127
1, 54896, Note_off_c, 1, 69, 0
1, 54896, Note_off_c, 1, 54, 0
1, 54898, Note_on_c, 1, 52, 127
1, 55051, Note_off_c, 1, 52, 0
1, 55054, Note_on_c, 1, 50, 127
1, 55054, Note_on_c, 1, 66, 127
1, 55207, Note_off_c, 1, 72, 0
1, 55207, Note_off_c, 1, 50, 0
1, 55209, Note_on_c, 1, 76, 127
1, 55209, Note_on_c, 1, 48, 127
1, 55362, Note_off_c, 1, 76, 0
1, 55362, Note_off_c, 1, 48, 0
1, 55365, Note_on_c, 1, 74, 127
1, 55518, Note_off_c, 1, 74, 0
1, 56141, Note_off_c, 1, 66, 0
1, 56142, Note_on_c, 1, 62, 127
1, 56295, Note_off_c, 1, 62, 0
1, 56298, Note_on_c, 1, 65, 127
1, 56451, Note_off_c, 1, 65, 0
1, 56453, Note_on_c, 1, 53, 127
1, 56606, Note_off_c, 1, 53, 0
1, 57075, Note_on_c, 1, 47, 127
1, 57228, Note_off_c, 1, 47, 0
1, 58008, Note_on_c, 1, 63, 127
1, 58161, Note_off_c, 1, 63, 0
1, 58475, Note_on_c, 1, 51, 127
1, 58628, Note_off_c, 1, 51, 0
1, 58631, Note_on_c, 1, 49, 127
1, 58784, Note_off_c, 1, 49, 0
1, 60497, Note_on_c, 1, 61, 127
1, 60650, Note_off_c, 1, 61, 0
1, 60652, Note_on_c, 1, 58, 127
1, 60959, Note_off_c, 1, 58, 0
1, 61585, Note_on_c, 1, 63, 127
1, 61585, Note_on_c, 1, 47, 127
1, 61741, Note_on_c, 1, 60, 127
1, 61894, Note_off_c, 1, 60, 0
1, 61896, Note_on_c, 1, 59, 127
1, 62049, Note_off_c, 1, 59, 0
1, 62052, Note_on_c, 1, 57, 127
1, 62205, Note_off_c, 1, 57, 0
1, 62365, Note_on_c, 1, 54, 127
1, 62520, Note_off_c, 1, 54, 0
1, 62522, Note_on_c, 1, 55, 127
1, 62676, Note_off_c, 1, 63, 0
1, 62836, Note_on_c, 1, 64, 127
1, 62994, Note_off_c, 1, 64, 0
1, 62996, Note_on_c, 1, 66, 127
1, 63154, Note_off_c, 1, 66, 0
1, 63157, Note_on_c, 1, 67, 127
1, 63317, Note_on_c, 1, 61, 127
1, 63475, Note_off_c, 1, 61, 0
1, 63640, Note_on_c, 1, 58, 127
1, 63962, Note_off_c, 1, 55, 0
1, 63964, Note_on_c, 1, 52, 127
1, 64124, Note_off_c, 1, 52, 0
1, 64289, Note_on_c, 1, 49, 127
1, 64451, Note_off_c, 1, 49, 0
1, 65110, Note_off_c, 1, 67, 0
1, 65281, Note_on_c, 1, 70, 127
1, 65438, Note_off_c, 1, 58, 0
1, 65440, Note_off_c, 1, 47, 0
1, 65446, Note_off_c, 1, 70, 0
1, 65448, Note_on_c, 1, 63, 127
1, 65448, Note_on_c, 1, 66, 127
1, 65448, Note_on_c, 1, 71, 127
1, 65448, Note_on_c, 1, 54, 127
1, 65608, Note_off_c, 1, 63, 0
1, 65610, Note_on_c, 1, 59, 127
1, 65768, Note_off_c, 1, 66, 0
1, 65768, Note_off_c, 1, 71, 0
1, 65770, Note_off_c, 1, 54, 0
1, 65770, Note_off_c, 1, 59, 0
1, 65772, Note_on_c, 1, 61, 127
1, 65772, Note_on_c, 1, 59, 127
1, 65932, Note_off_c, 1, 61, 0
1, 65934, Note_on_c, 1, 63, 127
1, 66094, Note_off_c, 1, 63, 0
1, 66096, Note_on_c, 1, 64, 127
1, 66251, Note_off_c, 1, 59, 0
1, 66251, Note_off_c, 1, 64, 0
1, 66253, Note_on_c, 1, 66, 127
1, 66253, Note_on_c, 1, 59, 127
1, 66408, Note_off_c, 1, 66, 0
1, 66408, Note_off_c, 1, 59, 0
1, 66410, Note_on_c, 1, 67, 127
1, 66410, Note_on_c, 1, 52, 127
1, 66565, Note_off_c, 1, 67, 0
1, 66567, Note_on_c, 1, 64, 127
1, 66722, Note_off_c, 1, 52, 0
1, 66722, Note_off_c, 1, 64, 0
1, 66724, Note_on_c, 1, 66, 127
1, 66724, Note_on_c, 1, 60, 127
1, 66879, Note_off_c, 1, 66, 0
1, 66879, Note_off_c, 1, 60, 0
1, 66881, Note_on_c, 1, 67, 127
1, 66881, Note_on_c, 1, 59, 127
1, 67036, Note_off_c, 1, 67, 0
1, 67036, Note_off_c, 1, 59, 0
1, 67038, Note_on_c, 1, 69, 127
1, 67038, Note_on_c, 1, 60, 127
1, 67193, Note_off_c, 1, 69, 0
1, 67193, Note_off_c, 1, 60, 0
1, 67195, Note_on_c, 1, 71, 127
1, 67195, Note_on_c, 1, 57, 127
1, 67350, Note_off_c, 1, 71, 0
1, 67350, Note_off_c, 1, 57, 0
1, 67353, Note_on_c, 1, 51, 127
1, 67353, Note_on_c, 1, 72, 127
1, 67510, Note_on_c, 1, 71, 127
1, 67665, Note_off_c, 1, 51, 0
1, 67665, Note_off_c, 1, 71, 0
1, 67667, Note_on_c, 1, 69, 127
1, 67667, Note_on_c, 1, 54, 127
1, 67822, Note_off_c, 1, 69, 0
1, 67824, Note_on_c, 1, 67, 127
1, 67979, Note_off_c, 1, 67, 0
1, 67981, Note_on_c, 1, 66, 127
1, 68136, Note_off_c, 1, 54, 0
1, 68136, Note_off_c, 1, 66, 0
1, 68138, Note_on_c, 1, 64, 127
1, 68293, Note_off_c, 1, 64, 0
1, 68295, Note_on_c, 1, 47, 127
1, 68295, Note_on_c, 1, 63, 127
1, 68451, Note_off_c, 1, 72, 0
1, 68607, Note_off_c, 1, 47, 0
1, 68610, Note_on_c, 1, 59, 127
1, 68765, Note_off_c, 1, 59, 0
1, 68767, Note_on_c, 1, 57, 127
1, 68917, Note_off_c, 1, 63, 0
1, 68922, Note_off_c, 1, 57, 0
1, 68924, Note_on_c, 1, 59, 127
1, 68924, Note_on_c, 1, 63, 127
1, 69079, Note_off_c, 1, 59, 0
1, 69081, Note_on_c, 1, 66, 127
1, 69081, Note_on_c, 1, 54, 127
1, 69235, Note_off_c, 1, 63, 0
1, 69236, Note_off_c, 1, 66, 0
1, 69236, Note_off_c, 1, 54, 0
1, 69238, Note_on_c, 1, 55, 127
1, 69238, Note_on_c, 1, 64, 127
1, 69395, Note_on_c, 1, 67, 127
1, 69550, Note_off_c, 1, 55, 0
1, 69550, Note_off_c, 1, 67, 0
1, 69553, Note_on_c, 1, 57, 127
1, 69553, Note_on_c, 1, 71, 127
1, 69630, Note_off_c, 1, 57, 0
1, 69632, Note_on_c, 1, 56, 127
1, 69698, Note_off_c, 1, 64, 0
1, 69709, Note_off_c, 1, 56, 0
1, 69710, Note_off_c, 1, 71, 0
1, 69711, Note_on_c, 1, 57, 127
1, 69711, Note_on_c, 1, 76, 127
1, 69788, Note_off_c, 1, 57, 0
1, 69791, Note_on_c, 1, 56, 127
1, 69870, Note_on_c, 1, 64, 127
1, 70023, Note_off_c, 1, 76, 0
1, 70025, Note_off_c, 1, 56, 0
1, 70025, Note_off_c, 1, 64, 0
1, 70027, Note_on_c, 1, 74, 127
1, 70027, Note_on_c, 1, 56, 127
1, 70182, Note_off_c, 1, 74, 0
1, 70182, Note_off_c, 1, 56, 0
1, 70184, Note_on_c, 1, 57, 127
1, 70184, Note_on_c, 1, 72, 127
1, 70342, Note_on_c, 1, 76, 127
1, 70496, Note_off_c, 1, 57, 0
1, 70497, Note_off_c, 1, 76, 0
1, 70499, Note_on_c, 1, 81, 127
1, 70499, Note_on_c, 1, 60, 127
1, 70654, Note_off_c, 1, 81, 0
1, 70656, Note_on_c, 1, 84, 127
1, 70806, Note_off_c, 1, 72, 0
1, 70811, Note_off_c, 1, 84, 0
1, 70813, Note_on_c, 1, 78, 127
1, 70968, Note_off_c, 1, 60, 0
1, 70968, Note_off_c, 1, 78, 0
1, 70970, Note_on_c, 1, 81, 127
1, 70970, Note_on_c, 1, 60, 127
1, 71125, Note_off_c, 1, 81, 0
1, 71125, Note_off_c, 1, 60, 0
1, 71127, Note_on_c, 1, 75, 127
1, 71127, Note_on_c, 1, 59, 127
1, 71282, Note_off_c, 1, 75, 0
1, 71282, Note_off_c, 1, 59, 0
1, 71284, Note_on_c, 1, 78, 127
1, 71284, Note_on_c, 1, 60, 127
1, 71439, Note_off_c, 1, 78, 0
1, 71439, Note_off_c, 1, 60, 0
1, 71442, Note_on_c, 1, 71, 127
1, 71442, Note_on_c, 1, 59, 127
1, 71597, Note_off_c, 1, 71, 0
1, 71597, Note_off_c, 1, 59, 0
1, 71599, Note_on_c, 1, 75, 127
1, 71599, Note_on_c, 1, 57, 127
1, 71754, Note_off_c, 1, 75, 0
1, 71754, Note_off_c, 1, 57, 0
1, 71756, Note_on_c, 1, 55, 127
1, 71756, Note_on_c, 1, 76, 127
1, 71911, Note_off_c, 1, 55, 0
1, 71913, Note_on_c, 1, 69, 127
1, 71913, Note_on_c, 1, 54, 127
1, 72068, Note_off_c, 1, 69, 0
1, 72068, Note_off_c, 1, 54, 0
1, 72070, Note_on_c, 1, 67, 127
1, 72070, Note_on_c, 1, 52, 127
1, 72225, Note_off_c, 1, 76, 0
1, 72225, Note_off_c, 1, 67, 0
1, 72225, Note_off_c, 1, 52, 0
1, 72227, Note_on_c, 1, 78, 127
1, 72227, Note_on_c, 1, 76, 127
1, 72227, Note_on_c, 1, 57, 127
1, 72382, Note_off_c, 1, 78, 0
1, 72382, Note_off_c, 1, 76, 0
1, 72382, Note_off_c, 1, 57, 0
1, 72384, Note_on_c, 1, 79, 127
1, 72384, Note_on_c, 1, 59, 127
1, 72384, Note_on_c, 1, 75, 127
1, 72487, Note_off_c, 1, 79, 0
1, 72490, Note_on_c, 1, 78, 127
1, 72540, Note_off_c, 1, 78, 0
1, 72695, Note_off_c, 1, 59, 0
1, 72697, Note_on_c, 1, 47, 127
1, 72854, Note_on_c, 1, 76, 127
1, 73004, Note_off_c, 1, 75, 0
1, 73009, Note_off_c, 1, 47, 0
1, 73009, Note_off_c, 1, 76, 0
1, 73011, Note_on_c, 1, 76, 127
1, 73011, Note_on_c, 1, 40, 127
1, 73164, Note_off_c, 1, 76, 0
1, 73167, Note_on_c, 1, 75, 127
1, 73320, Note_off_c, 1, 75, 0
1, 73478, Note_on_c, 1, 79, 127
1, 73631, Note_off_c, 1, 79, 0
1, 73633, Note_on_c, 1, 83, 127
1, 73786, Note_off_c, 1, 83, 0
1, 73942, Note_off_c, 1, 40, 0
1, 73944, Note_on_c, 1, 76, 127
1, 74097, Note_off_c, 1, 76, 0
1, 74100, Note_on_c, 1, 83, 127
1, 74253, Note_off_c, 1, 83, 0
1, 74255, Note_on_c, 1, 79, 127
1, 74255, Note_on_c, 1, 55, 127
1, 74255, Note_on_c, 1, 52, 127
1, 74408, Note_off_c, 1, 79, 0
1, 74411, Note_on_c, 1, 76, 127
1, 74564, Note_off_c, 1, 55, 0
1, 74564, Note_off_c, 1, 52, 0
1, 74564, Note_off_c, 1, 76, 0
1, 74566, Note_on_c, 1, 71, 127
1, 74566, Note_on_c, 1, 57, 127
1, 74566, Note_on_c, 1, 54, 127
1, 74719, Note_off_c, 1, 71, 0
1, 74722, Note_on_c, 1, 72, 127
1, 74875, Note_off_c, 1, 57, 0
1, 74875, Note_off_c, 1, 54, 0
1, 74875, Note_off_c, 1, 72, 0
1, 74878, Note_on_c, 1, 74, 127
1, 74878, Note_on_c, 1, 56, 127
1, 74878, Note_on_c, 1, 59, 127
1, 75031, Note_off_c, 1, 74, 0
1, 75033, Note_on_c, 1, 72, 127
1, 75186, Note_off_c, 1, 72, 0
1, 75344, Note_on_c, 1, 77, 127
1, 75493, Note_off_c, 1, 56, 0
1, 75493, Note_off_c, 1, 59, 0
1, 75497, Note_off_c, 1, 77, 0
1, 75500, Note_on_c, 1, 83, 127
1, 75653, Note_off_c, 1, 83, 0
1, 75655, Note_on_c, 1, 77, 127
1, 75808, Note_off_c, 1, 77, 0
1, 75811, Note_on_c, 1, 74, 127
1, 75964, Note_off_c, 1, 74, 0
1, 75966, Note_on_c, 1, 83, 127
1, 76119, Note_off_c, 1, 83, 0
1, 76122, Note_on_c, 1, 77, 127
1, 76122, Note_on_c, 1, 59, 127
1, 76122, Note_on_c, 1, 56, 127
1, 76275, Note_off_c, 1, 77, 0
1, 76277, Note_on_c, 1, 74, 127
1, 76430, Note_off_c, 1, 74, 0
1, 76431, Note_off_c, 1, 59, 0
1, 76431, Note_off_c, 1, 56, 0
1, 76433, Note_on_c, 1, 71, 127
1, 76433, Note_on_c, 1, 56, 127
1, 76433, Note_on_c, 1, 52, 127
1, 76586, Note_off_c, 1, 71, 0
1, 76588, Note_on_c, 1, 74, 127
1, 76741, Note_off_c, 1, 74, 0
1, 76742, Note_off_c, 1, 56, 0
1, 76742, Note_off_c, 1, 52, 0
1, 76744, Note_on_c, 1, 57, 127
1, 76744, Note_on_c, 1, 69, 127
1, 76744, Note_on_c, 1, 72, 127
1, 76897, Note_off_c, 1, 57, 0
1, 76899, Note_on_c, 1, 56, 127
1, 77052, Note_off_c, 1, 56, 0
1, 77210, Note_on_c, 1, 60, 127
1, 77363, Note_off_c, 1, 60, 0
1, 77366, Note_on_c, 1, 64, 127
1, 77519, Note_off_c, 1, 64, 0
1, 77675, Note_off_c, 1, 69, 0
1, 77675, Note_off_c, 1, 72, 0
1, 77677, Note_on_c, 1, 57, 127
1, 77830, Note_off_c, 1, 57, 0
1, 77832, Note_on_c, 1, 64, 127
1, 77985, Note_off_c, 1, 64, 0
1, 77988, Note_on_c, 1, 60, 127
1, 77988, Note_on_c, 1, 64, 127
1, 77988, Note_on_c, 1, 69, 127
1, 78141, Note_off_c, 1, 60, 0
1, 78143, Note_on_c, 1, 57, 127
1, 78296, Note_off_c, 1, 57, 0
1, 78297, Note_off_c, 1, 64, 0
1, 78297, Note_off_c, 1, 69, 0
1, 78299, Note_on_c, 1, 52, 127
1, 78299, Note_on_c, 1, 71, 127
1, 78299, Note_on_c, 1, 64, 127
1, 78299, Note_on_c, 1, 68, 127
1, 78452, Note_off_c, 1, 52, 0
1, 78454, Note_on_c, 1, 54, 127
1, 78607, Note_off_c, 1, 54, 0
1, 78608, Note_off_c, 1, 71, 0
1, 78608, Note_off_c, 1, 64, 0
1, 78608, Note_off_c, 1, 68, 0
1, 78610, Note_on_c, 1, 55, 127
1, 78610, Note_on_c, 1, 64, 127
1, 78610, Note_on_c, 1, 69, 127
1, 78610, Note_on_c, 1, 73, 127
1, 78763, Note_off_c, 1, 55, 0
1, 78766, Note_on_c, 1, 54, 127
1, 78919, Note_off_c, 1, 54, 0
1, 79077, Note_on_c, 1, 58, 127
1, 79225, Note_off_c, 1, 64, 0
1, 79230, Note_off_c, 1, 58, 0
1, 79541, Note_off_c, 1, 69, 0
1, 79541, Note_off_c, 1, 73, 0
1, 79543, Note_on_c, 1, 55, 127
1, 79696, Note_off_c, 1, 55, 0
1, 79699, Note_on_c, 1, 64, 127
1, 79852, Note_off_c, 1, 64, 0
1, 79854, Note_on_c, 1, 58, 127
1, 79854, Note_on_c, 1, 76, 127
1, 79854, Note_on_c, 1, 67, 127
1, 79854, Note_on_c, 1, 73, 127
1, 79854, Note_on_c, 1, 64, 127
1, 80007, Note_off_c, 1, 58, 0
1, 80010, Note_on_c, 1, 55, 127
1, 80163, Note_off_c, 1, 76, 0
1, 80163, Note_off_c, 1, 67, 0
1, 80163, Note_off_c, 1, 73, 0
1, 80163, Note_off_c, 1, 64, 0
1, 80163, Note_off_c, 1, 55, 0
1, 80165, Note_on_c, 1, 52, 127
1, 80165, Note_on_c, 1, 73, 127
1, 80165, Note_on_c, 1, 67, 127
1, 80165, Note_on_c, 1, 69, 127
1, 80165, Note_on_c, 1, 64, 127
1, 80318, Note_off_c, 1, 52, 0
1, 80321, Note_on_c, 1, 55, 127
1, 80474, Note_off_c, 1, 73, 0
1, 80474, Note_off_c, 1, 67, 0
1, 80474, Note_off_c, 1, 69, 0
1, 80474, Note_off_c, 1, 64, 0
1, 80474, Note_off_c, 1, 55, 0
1, 80476, Note_on_c, 1, 74, 127
1, 80476, Note_on_c, 1, 57, 127
1, 80476, Note_on_c, 1, 62, 127
1, 80476, Note_on_c, 1, 54, 127
1, 80629, Note_off_c, 1, 74, 0
1, 80632, Note_on_c, 1, 73, 127
1, 80785, Note_off_c, 1, 73, 0
1, 80943, Note_on_c, 1, 78, 127
1, 81091, Note_off_c, 1, 57, 0
1, 81091, Note_off_c, 1, 62, 0
1, 81091, Note_off_c, 1, 54, 0
1, 81096, Note_off_c, 1, 78, 0
1, 81098, Note_on_c, 1, 81, 127
1, 81251, Note_off_c, 1, 81, 0
1, 81254, Note_on_c, 1, 78, 127
1, 81407, Note_off_c, 1, 78, 0
1, 81409, Note_on_c, 1, 74, 127
1, 81562, Note_off_c, 1, 74, 0
1, 81565, Note_on_c, 1, 81, 127
1, 81718, Note_off_c, 1, 81, 0
1, 81720, Note_on_c, 1, 78, 127
1, 81720, Note_on_c, 1, 54, 127
1, 81720, Note_on_c, 1, 50, 127
1, 81873, Note_off_c, 1, 78, 0
1, 81876, Note_on_c, 1, 74, 127
1, 82029, Note_off_c, 1, 54, 0
1, 82029, Note_off_c, 1, 50, 0
1, 82029, Note_off_c, 1, 74, 0
1, 82031, Note_on_c, 1, 69, 127
1, 82031, Note_on_c, 1, 55, 127
1, 82031, Note_on_c, 1, 52, 127
1, 82184, Note_off_c, 1, 69, 0
1, 82187, Note_on_c, 1, 71, 127
1, 82340, Note_off_c, 1, 55, 0
1, 82340, Note_off_c, 1, 52, 0
1, 82340, Note_off_c, 1, 71, 0
1, 82342, Note_on_c, 1, 72, 127
1, 82342, Note_on_c, 1, 54, 127
1, 82342, Note_on_c, 1, 57, 127
1, 82495, Note_off_c, 1, 72, 0
1, 82498, Note_on_c, 1, 71, 127
1, 82651, Note_off_c, 1, 71, 0
1, 82809, Note_on_c, 1, 75, 127
1, 82957, Note_off_c, 1, 54, 0
1, 82957, Note_off_c, 1, 57, 0
1, 82962, Note_off_c, 1, 75, 0
1, 82965, Note_on_c, 1, 81, 127
1, 83118, Note_off_c, 1, 81, 0
1, 83120, Note_on_c, 1, 75, 127
1, 83273, Note_off_c, 1, 75, 0
1, 83276, Note_on_c, 1, 72, 127
1, 83429, Note_off_c, 1, 72, 0
1, 83431, Note_on_c, 1, 81, 127
1, 83584, Note_off_c, 1, 81, 0
1, 83587, Note_on_c, 1, 75, 127
1, 83587, Note_on_c, 1, 57, 127
1, 83587, Note_on_c, 1, 54, 127
1, 83740, Note_off_c, 1, 75, 0
1, 83742, Note_on_c, 1, 72, 127
1, 83895, Note_off_c, 1, 72, 0
1, 83896, Note_off_c, 1, 57, 0
1, 83896, Note_off_c, 1, 54, 0
1, 83898, Note_on_c, 1, 69, 127
1, 83898, Note_on_c, 1, 50, 127
1, 83898, Note_on_c, 1, 54, 127
1, 84051, Note_off_c, 1, 69, 0
1, 84053, Note_on_c, 1, 72, 127
1, 84206, Note_off_c, 1, 72, 0
1, 84207, Note_off_c, 1, 50, 0
1, 84207, Note_off_c, 1, 54, 0
1, 84209, Note_on_c, 1, 55, 127
1, 84209, Note_on_c, 1, 71, 127
1, 84209, Note_on_c, 1, 67, 127
1, 84362, Note_off_c, 1, 55, 0
1, 84364, Note_on_c, 1, 54, 127
1, 84517, Note_off_c, 1, 54, 0
1, 84675, Note_on_c, 1, 59, 127
1, 84828, Note_off_c, 1, 59, 0
1, 84831, Note_on_c, 1, 62, 127
1, 84984, Note_off_c, 1, 62, 0
1, 85140, Note_off_c, 1, 71, 0
1, 85451, Note_off_c, 1, 67, 0
1, 85453, Note_on_c, 1, 59, 127
1, 85453, Note_on_c, 1, 62, 127
1, 85453, Note_on_c, 1, 67, 127
1, 85606, Note_off_c, 1, 59, 0
1, 85608, Note_on_c, 1, 55, 127
1, 85761, Note_off_c, 1, 55, 0
1, 85762, Note_off_c, 1, 62, 0
1, 85762, Note_off_c, 1, 67, 0
1, 85764, Note_on_c, 1, 50, 127
1, 85764, Note_on_c, 1, 62, 127
1, 85764, Note_on_c, 1, 69, 127
1, 85764, Note_on_c, 1, 66, 127
1, 85917, Note_off_c, 1, 50, 0
1, 85919, Note_on_c, 1, 52, 127
1, 86072, Note_off_c, 1, 52, 0
1, 86073, Note_off_c, 1, 62, 0
1, 86073, Note_off_c, 1, 69, 0
1, 86073, Note_off_c, 1, 66, 0
1, 86075, Note_on_c, 1, 53, 127
1, 86075, Note_on_c, 1, 62, 127
1, 86075, Note_on_c, 1, 67, 127
1, 86075, Note_on_c, 1, 71, 127
1, 86228, Note_off_c, 1, 53, 0
1, 86230, Note_on_c, 1, 52, 127
1, 86383, Note_off_c, 1, 52, 0
1, 86542, Note_on_c, 1, 56, 127
1, 86690, Note_off_c, 1, 62, 0
1, 86695, Note_off_c, 1, 56, 0
1, 87006, Note_off_c, 1, 67, 0
1, 87317, Note_off_c, 1, 71, 0
1, 87319, Note_on_c, 1, 56, 127
1, 87319, Note_on_c, 1, 71, 127
1, 87319, Note_on_c, 1, 74, 127
1, 87319, Note_on_c, 1, 62, 127
1, 87319, Note_on_c, 1, 65, 127
1, 87472, Note_off_c, 1, 56, 0
1, 87475, Note_on_c, 1, 53, 127
1, 87628, Note_off_c, 1, 71, 0
1, 87628, Note_off_c, 1, 74, 0
1, 87628, Note_off_c, 1, 62, 0
1, 87628, Note_off_c, 1, 65, 0
1, 87628, Note_off_c, 1, 53, 0
1, 87630, Note_on_c, 1, 50, 127
1, 87630, Note_on_c, 1, 67, 127
1, 87630, Note_on_c, 1, 71, 127
1, 87630, Note_on_c, 1, 62, 127
1, 87630, Note_on_c, 1, 65, 127
1, 87783, Note_off_c, 1, 50, 0
1, 87786, Note_on_c, 1, 53, 127
1, 87939, Note_off_c, 1, 67, 0
1, 87939, Note_off_c, 1, 71, 0
1, 87939, Note_off_c, 1, 62, 0
1, 87939, Note_off_c, 1, 65, 0
1, 87939, Note_off_c, 1, 53, 0
1, 87941, Note_on_c, 1, 72, 127
1, 87941, Note_on_c, 1, 67, 127
1, 87941, Note_on_c, 1, 60, 127
1, 87941, Note_on_c, 1, 55, 127
1, 87941, Note_on_c, 1, 52, 127
1, 88094, Note_off_c, 1, 72, 0
1, 88097, Note_on_c, 1, 76, 127
1, 88248, Note_off_c, 1, 67, 0
1, 88250, Note_off_c, 1, 76, 0
1, 88408, Note_on_c, 1, 71, 127
1, 88556, Note_off_c, 1, 60, 0
1, 88561, Note_off_c, 1, 71, 0
1, 88718, Note_off_c, 1, 55, 0
1, 88718, Note_off_c, 1, 52, 0
1, 88719, Note_on_c, 1, 76, 127
1, 88872, Note_off_c, 1, 76, 0
1, 88874, Note_on_c, 1, 72, 127
1, 89027, Note_off_c, 1, 72, 0
1, 89030, Note_on_c, 1, 76, 127
1, 89183, Note_off_c, 1, 76, 0
1, 89185, Note_on_c, 1, 67, 127
1, 89185, Note_on_c, 1, 60, 127
1, 89185, Note_on_c, 1, 52, 127
1, 89185, Note_on_c, 1, 55, 127
1, 89338, Note_off_c, 1, 67, 0
1, 89341, Note_on_c, 1, 71, 127
1, 89494, Note_off_c, 1, 60, 0
1, 89494, Note_off_c, 1, 52, 0
1, 89494, Note_off_c, 1, 55, 0
1, 89494, Note_off_c, 1, 71, 0
1, 89496, Note_on_c, 1, 72, 127
1, 89496, Note_on_c, 1, 60, 127
1, 89496, Note_on_c, 1, 52, 127
1, 89496, Note_on_c, 1, 55, 127
1, 89649, Note_off_c, 1, 72, 0
1, 89652, Note_on_c, 1, 76, 127
1, 89805, Note_off_c, 1, 60, 0
1, 89805, Note_off_c, 1, 52, 0
1, 89805, Note_off_c, 1, 55, 0
1, 89805, Note_off_c, 1, 76, 0
1, 89807, Note_on_c, 1, 72, 127
1, 89807, Note_on_c, 1, 60, 127
1, 89807, Note_on_c, 1, 57, 127
1, 89807, Note_on_c, 1, 51, 127
1, 89960, Note_off_c, 1, 72, 0
1, 89963, Note_on_c, 1, 78, 127
1, 90116, Note_off_c, 1, 78, 0
1, 90118, Note_on_c, 1, 69, 127
1, 90271, Note_off_c, 1, 69, 0
1, 90274, Note_on_c, 1, 71, 127
1, 90427, Note_off_c, 1, 71, 0
1, 90487, Note_off_c, 1, 60, 0
1, 90738, Note_off_c, 1, 57, 0
1, 90738, Note_off_c, 1, 51, 0
1, 90741, Note_on_c, 1, 72, 127
1, 90894, Note_off_c, 1, 72, 0
1, 90896, Note_on_c, 1, 78, 127
1, 91049, Note_off_c, 1, 78, 0
1, 91052, Note_on_c, 1, 69, 127
1, 91052, Note_on_c, 1, 60, 127
1, 91052, Note_on_c, 1, 57, 127
1, 91052, Note_on_c, 1, 51, 127
1, 91205, Note_off_c, 1, 69, 0
1, 91207, Note_on_c, 1, 71, 127
1, 91360, Note_off_c, 1, 71, 0
1, 91361, Note_off_c, 1, 60, 0
1, 91361, Note_off_c, 1, 57, 0
1, 91361, Note_off_c, 1, 51, 0
1, 91363, Note_on_c, 1, 72, 127
1, 91363, Note_on_c, 1, 60, 127
1, 91363, Note_on_c, 1, 57, 127
1, 91363, Note_on_c, 1, 51, 127
1, 91516, Note_off_c, 1, 72, 0
1, 91518, Note_on_c, 1, 78, 127
1, 91671, Note_off_c, 1, 78, 0
1, 91672, Note_off_c, 1, 60, 0
1, 91672, Note_off_c, 1, 57, 0
1, 91672, Note_off_c, 1, 51, 0
1, 91674, Note_on_c, 1, 74, 127
1, 91674, Note_on_c, 1, 55, 127
1, 91674, Note_on_c, 1, 59, 127
1, 91674, Note_on_c, 1, 50, 127
1, 91827, Note_off_c, 1, 74, 0
1, 91829, Note_on_c, 1, 79, 127
1, 91982, Note_off_c, 1, 79, 0
1, 91985, Note_on_c, 1, 71, 127
1, 92138, Note_off_c, 1, 71, 0
1, 92140, Note_on_c, 1, 72, 127
1, 92293, Note_off_c, 1, 72, 0
1, 92759, Note_off_c, 1, 55, 0
1, 92759, Note_off_c, 1, 59, 0
1, 92759, Note_off_c, 1, 50, 0
1, 92762, Note_on_c, 1, 79, 127
1, 92915, Note_off_c, 1, 79, 0
1, 92918, Note_on_c, 1, 71, 127
1, 92918, Note_on_c, 1, 59, 127
1, 92918, Note_on_c, 1, 50, 127
1, 92918, Note_on_c, 1, 55, 127
1, 93071, Note_off_c, 1, 71, 0
1, 93073, Note_on_c, 1, 72, 127
1, 93226, Note_off_c, 1, 72, 0
1, 93227, Note_off_c, 1, 59, 0
1, 93227, Note_off_c, 1, 50, 0
1, 93227, Note_off_c, 1, 55, 0
1, 93229, Note_on_c, 1, 74, 127
1, 93229, Note_on_c, 1, 59, 127
1, 93229, Note_on_c, 1, 50, 127
1, 93229, Note_on_c, 1, 55, 127
1, 93382, Note_off_c, 1, 74, 0
1, 93384, Note_on_c, 1, 79, 127
1, 93537, Note_off_c, 1, 79, 0
1, 93538, Note_off_c, 1, 59, 0
1, 93538, Note_off_c, 1, 50, 0
1, 93538, Note_off_c, 1, 55, 0
1, 93540, Note_on_c, 1, 76, 127
1, 93540, Note_on_c, 1, 49, 127
1, 93540, Note_on_c, 1, 55, 127
1, 93540, Note_on_c, 1, 58, 127
1, 93693, Note_off_c, 1, 76, 0
1, 93695, Note_on_c, 1, 79, 127
1, 93848, Note_off_c, 1, 79, 0
1, 93851, Note_on_c, 1, 73, 127
1, 94004, Note_off_c, 1, 73, 0
1, 94006, Note_on_c, 1, 74, 127
1, 94159, Note_off_c, 1, 74, 0
1, 94782, Note_off_c, 1, 49, 0
1, 94782, Note_off_c, 1, 55, 0
1, 94782, Note_off_c, 1, 58, 0
1, 94784, Note_on_c, 1, 73, 127
1, 94784, Note_on_c, 1, 52, 127
1, 94784, Note_on_c, 1, 57, 127
1, 94784, Note_on_c, 1, 49, 127
1, 94937, Note_off_c, 1, 73, 0
1, 94940, Note_on_c, 1, 74, 127
1, 95093, Note_off_c, 1, 52, 0
1, 95093, Note_off_c, 1, 57, 0
1, 95093, Note_off_c, 1, 49, 0
1, 95093, Note_off_c, 1, 74, 0
1, 95095, Note_on_c, 1, 76, 127
1, 95095, Note_on_c, 1, 57, 127
1, 95095, Note_on_c, 1, 49, 127
1, 95095, Note_on_c, 1, 52, 127
1, 95095, Note_on_c, 1, 45, 127
1, 95248, Note_off_c, 1, 76, 0
1, 95251, Note_on_c, 1, 79, 127
1, 95404, Note_off_c, 1, 57, 0
1, 95404, Note_off_c, 1, 49, 0
1, 95404, Note_off_c, 1, 52, 0
1, 95404, Note_off_c, 1, 45, 0
1, 95404, Note_off_c, 1, 79, 0
1, 95406, Note_on_c, 1, 50, 127
1, 95406, Note_on_c, 1, 57, 127
1, 95406, Note_on_c, 1, 74, 127
1, 95406, Note_on_c, 1, 78, 127
1, 95559, Note_off_c, 1, 50, 0
1, 95559, Note_off_c, 1, 57, 0
1, 95562, Note_on_c, 1, 49, 127
1, 95715, Note_off_c, 1, 74, 0
1, 95715, Note_off_c, 1, 78, 0
1, 95715, Note_off_c, 1, 49, 0
1, 95717, Note_on_c, 1, 50, 127
1, 95717, Note_on_c, 1, 74, 127
1, 95717, Note_on_c, 1, 66, 127
1, 95717, Note_on_c, 1, 69, 127
1, 95870, Note_off_c, 1, 50, 0
1, 95873, Note_on_c, 1, 52, 127
1, 96026, Note_off_c, 1, 52, 0
1, 96181, Note_off_c, 1, 74, 0
1, 96181, Note_off_c, 1, 66, 0
1, 96181, Note_off_c, 1, 69, 0
1, 96184, Note_on_c, 1, 74, 127
1, 96184, Note_on_c, 1, 69, 127
1, 96184, Note_on_c, 1, 66, 127
1, 96184, Note_on_c, 1, 48, 127
1, 96337, Note_off_c, 1, 74, 0
1, 96337, Note_off_c, 1, 69, 0
1, 96337, Note_off_c, 1, 66, 0
1, 96337, Note_off_c, 1, 48, 0
1, 96339, Note_on_c, 1, 47, 127
1, 96339, Note_on_c, 1, 67, 127
1, 96339, Note_on_c, 1, 62, 127
1, 96492, Note_off_c, 1, 47, 0
1, 96495, Note_on_c, 1, 45, 127
1, 96648, Note_off_c, 1, 67, 0
1, 96648, Note_off_c, 1, 62, 0
1, 96648, Note_off_c, 1, 45, 0
1, 96650, Note_on_c, 1, 76, 127
1, 96650, Note_on_c, 1, 72, 127
1, 96650, Note_on_c, 1, 47, 127
1, 96650, Note_on_c, 1, 67, 127
1, 96803, Note_off_c, 1, 76, 0
1, 96803, Note_off_c, 1, 72, 0
1, 96803, Note_off_c, 1, 47, 0
1, 96806, Note_on_c, 1, 74, 127
1, 96806, Note_on_c, 1, 50, 127
1, 96959, Note_off_c, 1, 74, 0
1, 96959, Note_off_c, 1, 50, 0
1, 96961, Note_on_c, 1, 48, 127
1, 97114, Note_off_c, 1, 48, 0
1, 97265, Note_off_c, 1, 67, 0
1, 97272, Note_on_c, 1, 45, 127
1, 97272, Note_on_c, 1, 66, 127
1, 97425, Note_off_c, 1, 45, 0
1, 97428, Note_on_c, 1, 43, 127
1, 97581, Note_off_c, 1, 66, 0
1, 97581, Note_off_c, 1, 43, 0
1, 97583, Note_on_c, 1, 45, 127
1, 97583, Note_on_c, 1, 69, 127
1, 97583, Note_on_c, 1, 60, 127
1, 97583, Note_on_c, 1, 66, 127
1, 97736, Note_off_c, 1, 45, 0
1, 97739, Note_on_c, 1, 47, 127
1, 97892, Note_off_c, 1, 47, 0
1, 98047, Note_off_c, 1, 69, 0
1, 98047, Note_off_c, 1, 60, 0
1, 98047, Note_off_c, 1, 66, 0
1, 98050, Note_on_c, 1, 69, 127
1, 98050, Note_on_c, 1, 60, 127
1, 98050, Note_on_c, 1, 66, 127
1, 98050, Note_on_c, 1, 43, 127
1, 98203, Note_off_c, 1, 69, 0
1, 98203, Note_off_c, 1, 60, 0
1, 98203, Note_off_c, 1, 66, 0
1, 98203, Note_off_c, 1, 43, 0
1, 98206, Note_on_c, 1, 42, 127
1, 98206, Note_on_c, 1, 60, 127
1, 98206, Note_on_c, 1, 62, 127
1, 98359, Note_off_c, 1, 42, 0
1, 98361, Note_on_c, 1, 40, 127
1, 98514, Note_off_c, 1, 40, 0
1, 98515, Note_off_c, 1, 60, 0
1, 98517, Note_on_c, 1, 74, 127
1, 98670, Note_off_c, 1, 74, 0
1, 98672, Note_on_c, 1, 72, 127
1, 98672, Note_on_c, 1, 43, 127
1, 98825, Note_off_c, 1, 72, 0
1, 98825, Note_off_c, 1, 43, 0
1, 98983, Note_on_c, 1, 69, 127
1, 99136, Note_off_c, 1, 69, 0
1, 99137, Note_off_c, 1, 62, 0
1, 99139, Note_on_c, 1, 71, 127
1, 99139, Note_on_c, 1, 43, 127
1, 99292, Note_off_c, 1, 71, 0
1, 99294, Note_on_c, 1, 69, 127
1, 99447, Note_off_c, 1, 69, 0
1, 99448, Note_off_c, 1, 43, 0
1, 99450, Note_on_c, 1, 67, 127
1, 99450, Note_on_c, 1, 55, 127
1, 99603, Note_off_c, 1, 67, 0
1, 99605, Note_on_c, 1, 69, 127
1, 99758, Note_off_c, 1, 69, 0
1, 99761, Note_on_c, 1, 71, 127
1, 99914, Note_off_c, 1, 55, 0
1, 99914, Note_off_c, 1, 71, 0
1, 99916, Note_on_c, 1, 73, 127
1, 99916, Note_on_c, 1, 55, 127
1, 100069, Note_off_c, 1, 73, 0
1, 100069, Note_off_c, 1, 55, 0
1, 100072, Note_on_c, 1, 74, 127
1, 100072, Note_on_c, 1, 50, 127
1, 100225, Note_off_c, 1, 74, 0
1, 100227, Note_on_c, 1, 76, 127
1, 100380, Note_off_c, 1, 76, 0
1, 100381, Note_off_c, 1, 50, 0
1, 100383, Note_on_c, 1, 78, 127
1, 100383, Note_on_c, 1, 59, 127
1, 100536, Note_off_c, 1, 78, 0
1, 100536, Note_off_c, 1, 59, 0
1, 100538, Note_on_c, 1, 81, 127
1, 100538, Note_on_c, 1, 57, 127
1, 100691, Note_off_c, 1, 81, 0
1, 100691, Note_off_c, 1, 57, 0
1, 100694, Note_on_c, 1, 79, 127
1, 100694, Note_on_c, 1, 59, 127
1, 100847, Note_off_c, 1, 79, 0
1, 100847, Note_off_c, 1, 59, 0
1, 100849, Note_on_c, 1, 78, 127
1, 100849, Note_on_c, 1, 55, 127
1, 101002, Note_off_c, 1, 78, 0
1, 101002, Note_off_c, 1, 55, 0
1, 101005, Note_on_c, 1, 76, 127
1, 101005, Note_on_c, 1, 49, 127
1, 101158, Note_off_c, 1, 76, 0
1, 101160, Note_on_c, 1, 74, 127
1, 101313, Note_off_c, 1, 74, 0
1, 101314, Note_off_c, 1, 49, 0
1, 101316, Note_on_c, 1, 73, 127
1, 101316, Note_on_c, 1, 52, 127
1, 101469, Note_off_c, 1, 73, 0
1, 101471, Note_on_c, 1, 71, 127
1, 101624, Note_off_c, 1, 71, 0
1, 101627, Note_on_c, 1, 69, 127
1, 101780, Note_off_c, 1, 52, 0
1, 101780, Note_off_c, 1, 69, 0
1, 101782, Note_on_c, 1, 71, 127
1, 101782, Note_on_c, 1, 52, 127
1, 101935, Note_off_c, 1, 71, 0
1, 101935, Note_off_c, 1, 52, 0
1, 101938, Note_on_c, 1, 73, 127
1, 101938, Note_on_c, 1, 45, 127
1, 102091, Note_off_c, 1, 73, 0
1, 102094, Note_on_c, 1, 74, 127
1, 102247, Note_off_c, 1, 45, 0
1, 102247, Note_off_c, 1, 74, 0
1, 102249, Note_on_c, 1, 76, 127
1, 102249, Note_on_c, 1, 57, 127
1, 102402, Note_off_c, 1, 76, 0
1, 102402, Note_off_c, 1, 57, 0
1, 102405, Note_on_c, 1, 79, 127
1, 102405, Note_on_c, 1, 55, 127
1, 102558, Note_off_c, 1, 79, 0
1, 102558, Note_off_c, 1, 55, 0
1, 102560, Note_on_c, 1, 78, 127
1, 102560, Note_on_c, 1, 57, 127
1, 102713, Note_off_c, 1, 78, 0
1, 102713, Note_off_c, 1, 57, 0
1, 102716, Note_on_c, 1, 76, 127
1, 102716, Note_on_c, 1, 52, 127
1, 102869, Note_off_c, 1, 76, 0
1, 102869, Note_off_c, 1, 52, 0
1, 102871, Note_on_c, 1, 81, 127
1, 102871, Note_on_c, 1, 54, 127
1, 103024, Note_off_c, 1, 81, 0
1, 103027, Note_on_c, 1, 78, 127
1, 103178, Note_off_c, 1, 54, 0
1, 103180, Note_off_c, 1, 78, 0
1, 103182, Note_on_c, 1, 74, 127
1, 103335, Note_off_c, 1, 74, 0
1, 103338, Note_on_c, 1, 69, 127
1, 103338, Note_on_c, 1, 50, 127
1, 103491, Note_off_c, 1, 69, 0
1, 103491, Note_off_c, 1, 50, 0
1, 103493, Note_on_c, 1, 52, 127
1, 103493, Note_on_c, 1, 72, 127
1, 103646, Note_off_c, 1, 52, 0
1, 103649, Note_on_c, 1, 54, 127
1, 103802, Note_off_c, 1, 54, 0
1, 103804, Note_on_c, 1, 55, 127
1, 103881, Note_off_c, 1, 72, 0
1, 103957, Note_off_c, 1, 55, 0
1, 103960, Note_on_c, 1, 76, 127
1, 103960, Note_on_c, 1, 54, 127
1, 104113, Note_off_c, 1, 76, 0
1, 104113, Note_off_c, 1, 54, 0
1, 104115, Note_on_c, 1, 74, 127
1, 104115, Note_on_c, 1, 55, 127
1, 104268, Note_off_c, 1, 74, 0
1, 104268, Note_off_c, 1, 55, 0
1, 104271, Note_on_c, 1, 72, 127
1, 104271, Note_on_c, 1, 57, 127
1, 104424, Note_off_c, 1, 72, 0
1, 104424, Note_off_c, 1, 57, 0
1, 104426, Note_on_c, 1, 71, 127
1, 104426, Note_on_c, 1, 59, 127
1, 104579, Note_off_c, 1, 71, 0
1, 104579, Note_off_c, 1, 59, 0
1, 104582, Note_on_c, 1, 69, 127
1, 104582, Note_on_c, 1, 60, 127
1, 104735, Note_off_c, 1, 69, 0
1, 104735, Note_off_c, 1, 60, 0
1, 104737, Note_on_c, 1, 62, 127
1, 104737, Note_on_c, 1, 71, 127
1, 104890, Note_off_c, 1, 62, 0
1, 104893, Note_on_c, 1, 59, 127
1, 105044, Note_off_c, 1, 71, 0
1, 105046, Note_off_c, 1, 59, 0
1, 105048, Note_on_c, 1, 55, 127
1, 105201, Note_off_c, 1, 55, 0
1, 105204, Note_on_c, 1, 67, 127
1, 105204, Note_on_c, 1, 50, 127
1, 105357, Note_off_c, 1, 67, 0
1, 105357, Note_off_c, 1, 50, 0
1, 105359, Note_on_c, 1, 69, 127
1, 105359, Note_on_c, 1, 53, 127
1, 105512, Note_off_c, 1, 69, 0
1, 105515, Note_on_c, 1, 71, 127
1, 105668, Note_off_c, 1, 71, 0
1, 105670, Note_on_c, 1, 72, 127
1, 105780, Note_off_c, 1, 53, 0
1, 105823, Note_off_c, 1, 72, 0
1, 105826, Note_on_c, 1, 71, 127
1, 105826, Note_on_c, 1, 57, 127
1, 105979, Note_off_c, 1, 71, 0
1, 105979, Note_off_c, 1, 57, 0
1, 105982, Note_on_c, 1, 72, 127
1, 105982, Note_on_c, 1, 55, 127
1, 106135, Note_off_c, 1, 72, 0
1, 106135, Note_off_c, 1, 55, 0
1, 106137, Note_on_c, 1, 74, 127
1, 106137, Note_on_c, 1, 53, 127
1, 106290, Note_off_c, 1, 74, 0
1, 106290, Note_off_c, 1, 53, 0
1, 106293, Note_on_c, 1, 76, 127
1, 106293, Note_on_c, 1, 52, 127
1, 106446, Note_off_c, 1, 76, 0
1, 106446, Note_off_c, 1, 52, 0
1, 106448, Note_on_c, 1, 77, 127
1, 106448, Note_on_c, 1, 50, 127
1, 106601, Note_off_c, 1, 77, 0
1, 106601, Note_off_c, 1, 50, 0
1, 106604, Note_on_c, 1, 79, 127
1, 106604, Note_on_c, 1, 52, 127
1, 106757, Note_off_c, 1, 79, 0
1, 106759, Note_on_c, 1, 76, 127
1, 106912, Note_off_c, 1, 76, 0
1, 106915, Note_on_c, 1, 72, 127
1, 107067, Note_off_c, 1, 52, 0
1, 107068, Note_off_c, 1, 72, 0
1, 107070, Note_on_c, 1, 67, 127
1, 107070, Note_on_c, 1, 53, 127
1, 107223, Note_off_c, 1, 67, 0
1, 107223, Note_off_c, 1, 53, 0
1, 107226, Note_on_c, 1, 52, 127
1, 107226, Note_on_c, 1, 70, 127
1, 107379, Note_off_c, 1, 52, 0
1, 107381, Note_on_c, 1, 50, 127
1, 107534, Note_off_c, 1, 50, 0
1, 107537, Note_on_c, 1, 49, 127
1, 107655, Note_off_c, 1, 70, 0
1, 107690, Note_off_c, 1, 49, 0
1, 107692, Note_on_c, 1, 69, 127
1, 107692, Note_on_c, 1, 50, 127
1, 107845, Note_off_c, 1, 69, 0
1, 107845, Note_off_c, 1, 50, 0
1, 107848, Note_on_c, 1, 67, 127
1, 107848, Note_on_c, 1, 52, 127
1, 108001, Note_off_c, 1, 67, 0
1, 108001, Note_off_c, 1, 52, 0
1, 108003, Note_on_c, 1, 70, 127
1, 108003, Note_on_c, 1, 54, 127
1, 108156, Note_off_c, 1, 70, 0
1, 108156, Note_off_c, 1, 54, 0
1, 108159, Note_on_c, 1, 69, 127
1, 108159, Note_on_c, 1, 55, 127
1, 108312, Note_off_c, 1, 69, 0
1, 108312, Note_off_c, 1, 55, 0
1, 108314, Note_on_c, 1, 67, 127
1, 108314, Note_on_c, 1, 57, 127
1, 108467, Note_off_c, 1, 67, 0
1, 108467, Note_off_c, 1, 57, 0
1, 108470, Note_on_c, 1, 66, 127
1, 108470, Note_on_c, 1, 50, 127
1, 108623, Note_off_c, 1, 66, 0
1, 108623, Note_off_c, 1, 50, 0
1, 108625, Note_on_c, 1, 64, 127
1, 108625, Note_on_c, 1, 57, 127
1, 108778, Note_off_c, 1, 64, 0
1, 108778, Note_off_c, 1, 57, 0
1, 108781, Note_on_c, 1, 62, 127
1, 108781, Note_on_c, 1, 54, 127
1, 108934, Note_off_c, 1, 62, 0
1, 108934, Note_off_c, 1, 54, 0
1, 108936, Note_on_c, 1, 64, 127
1, 108936, Note_on_c, 1, 50, 127
1, 109089, Note_off_c, 1, 64, 0
1, 109089, Note_off_c, 1, 50, 0
1, 109092, Note_on_c, 1, 66, 127
1, 109092, Note_on_c, 1, 60, 127
1, 109245, Note_off_c, 1, 66, 0
1, 109247, Note_on_c, 1, 67, 127
1, 109400, Note_off_c, 1, 67, 0
1, 109403, Note_on_c, 1, 69, 127
1, 109556, Note_off_c, 1, 60, 0
1, 109556, Note_off_c, 1, 69, 0
1, 109558, Note_on_c, 1, 71, 127
1, 109558, Note_on_c, 1, 64, 127
1, 109711, Note_off_c, 1, 71, 0
1, 109711, Note_off_c, 1, 64, 0
1, 109714, Note_on_c, 1, 72, 127
1, 109714, Note_on_c, 1, 62, 127
1, 109867, Note_off_c, 1, 72, 0
1, 109867, Note_off_c, 1, 62, 0
1, 109870, Note_on_c, 1, 74, 127
1, 109870, Note_on_c, 1, 60, 127
1, 110023, Note_off_c, 1, 74, 0
1, 110023, Note_off_c, 1, 60, 0
1, 110025, Note_on_c, 1, 76, 127
1, 110025, Note_on_c, 1, 59, 127
1, 110178, Note_off_c, 1, 76, 0
1, 110178, Note_off_c, 1, 59, 0
1, 110181, Note_on_c, 1, 78, 127
1, 110181, Note_on_c, 1, 57, 127
1, 110334, Note_off_c, 1, 78, 0
1, 110334, Note_off_c, 1, 57, 0
1, 110336, Note_on_c, 1, 59, 127
1, 110336, Note_on_c, 1, 79, 127
1, 110489, Note_off_c, 1, 59, 0
1, 110492, Note_on_c, 1, 62, 127
1, 110645, Note_off_c, 1, 62, 0
1, 110647, Note_on_c, 1, 67, 127
1, 110647, Note_on_c, 1, 71, 127
1, 110800, Note_off_c, 1, 67, 0
1, 110951, Note_off_c, 1, 79, 0
1, 110958, Note_on_c, 1, 60, 127
1, 111111, Note_off_c, 1, 60, 0
1, 111262, Note_off_c, 1, 71, 0
1, 111269, Note_on_c, 1, 60, 127
1, 111269, Note_on_c, 1, 79, 127
1, 111422, Note_off_c, 1, 60, 0
1, 111425, Note_on_c, 1, 64, 127
1, 111578, Note_off_c, 1, 64, 0
1, 111580, Note_on_c, 1, 69, 127
1, 111580, Note_on_c, 1, 72, 127
1, 111733, Note_off_c, 1, 69, 0
1, 111884, Note_off_c, 1, 79, 0
1, 111891, Note_on_c, 1, 62, 127
1, 112033, Note_off_c, 1, 72, 0
1, 112044, Note_off_c, 1, 62, 0
1, 112202, Note_on_c, 1, 62, 127
1, 112202, Note_on_c, 1, 79, 127
1, 112355, Note_off_c, 1, 62, 0
1, 112358, Note_on_c, 1, 65, 127
1, 112511, Note_off_c, 1, 65, 0
1, 112513, Note_on_c, 1, 71, 127
1, 112513, Note_on_c, 1, 74, 127
1, 112666, Note_off_c, 1, 71, 0
1, 112817, Note_off_c, 1, 79, 0
1, 112824, Note_on_c, 1, 64, 127
1, 112966, Note_off_c, 1, 74, 0
1, 112977, Note_off_c, 1, 64, 0
1, 113135, Note_on_c, 1, 64, 127
1, 113135, Note_on_c, 1, 79, 127
1, 113288, Note_off_c, 1, 64, 0
1, 113291, Note_on_c, 1, 67, 127
1, 113444, Note_off_c, 1, 67, 0
1, 113446, Note_on_c, 1, 72, 127
1, 113446, Note_on_c, 1, 76, 127
1, 113588, Note_off_c, 1, 79, 0
1, 113599, Note_off_c, 1, 72, 0
1, 113602, Note_on_c, 1, 71, 127
1, 113755, Note_off_c, 1, 76, 0
1, 113755, Note_off_c, 1, 71, 0
1, 113758, Note_on_c, 1, 69, 127
1, 113758, Note_on_c, 1, 79, 127
1, 113911, Note_off_c, 1, 69, 0
1, 113913, Note_on_c, 1, 67, 127
1, 114066, Note_off_c, 1, 67, 0
1, 114067, Note_off_c, 1, 79, 0
1, 114069, Note_on_c, 1, 66, 127
1, 114069, Note_on_c, 1, 81, 127
1, 114222, Note_off_c, 1, 66, 0
1, 114224, Note_on_c, 1, 84, 127
1, 114224, Note_on_c, 1, 69, 127
1, 114376, Note_off_c, 1, 81, 0
1, 114377, Note_off_c, 1, 84, 0
1, 114377, Note_off_c, 1, 69, 0
1, 114380, Note_on_c, 1, 81, 127
1, 114380, Note_on_c, 1, 72, 127
1, 114533, Note_off_c, 1, 81, 0
1, 114533, Note_off_c, 1, 72, 0
1, 114535, Note_on_c, 1, 79, 127
1, 114535, Note_on_c, 1, 76, 127
1, 114688, Note_off_c, 1, 79, 0
1, 114688, Note_off_c, 1, 76, 0
1, 114691, Note_on_c, 1, 78, 127
1, 114691, Note_on_c, 1, 74, 127
1, 114844, Note_off_c, 1, 78, 0
1, 114844, Note_off_c, 1, 74, 0
1, 114846, Note_on_c, 1, 76, 127
1, 114846, Note_on_c, 1, 72, 127
1, 114999, Note_off_c, 1, 76, 0
1, 114999, Note_off_c, 1, 72, 0
1, 115002, Note_on_c, 1, 71, 127
1, 115002, Note_on_c, 1, 74, 127
1, 115155, Note_off_c, 1, 71, 0
1, 115157, Note_on_c, 1, 72, 127
1, 115310, Note_off_c, 1, 72, 0
1, 115313, Note_on_c, 1, 79, 127
1, 115468, Note_on_c, 1, 69, 127
1, 115621, Note_off_c, 1, 69, 0
1, 115622, Note_off_c, 1, 79, 0
1, 115624, Note_on_c, 1, 67, 127
1, 115624, Note_on_c, 1, 83, 127
1, 115777, Note_off_c, 1, 67, 0
1, 115779, Note_on_c, 1, 66, 127
1, 115932, Note_off_c, 1, 66, 0
1, 115933, Note_off_c, 1, 74, 0
1, 115933, Note_off_c, 1, 83, 0
1, 115935, Note_on_c, 1, 64, 127
1, 115935, Note_on_c, 1, 72, 127
1, 116088, Note_off_c, 1, 64, 0
1, 116090, Note_on_c, 1, 67, 127
1, 116243, Note_off_c, 1, 67, 0
1, 116244, Note_off_c, 1, 72, 0
1, 116246, Note_on_c, 1, 71, 127
1, 116246, Note_on_c, 1, 79, 127
1, 116399, Note_off_c, 1, 71, 0
1, 116401, Note_on_c, 1, 74, 127
1, 116554, Note_off_c, 1, 74, 0
1, 116555, Note_off_c, 1, 79, 0
1, 116557, Note_on_c, 1, 72, 127
1, 116557, Note_on_c, 1, 83, 127
1, 116710, Note_off_c, 1, 72, 0
1, 116712, Note_on_c, 1, 71, 127
1, 116865, Note_off_c, 1, 71, 0
1, 116866, Note_off_c, 1, 83, 0
1, 116868, Note_on_c, 1, 69, 127
1, 116868, Note_on_c, 1, 72, 127
1, 117021, Note_off_c, 1, 69, 0
1, 117023, Note_on_c, 1, 71, 127
1, 117176, Note_off_c, 1, 71, 0
1, 117179, Note_on_c, 1, 78, 127
1, 117334, Note_on_c, 1, 67, 127
1, 117483, Note_off_c, 1, 72, 0
1, 117487, Note_off_c, 1, 67, 0
1, 117488, Note_off_c, 1, 78, 0
1, 117490, Note_on_c, 1, 66, 127
1, 117490, Note_on_c, 1, 81, 127
1, 117643, Note_off_c, 1, 66, 0
1, 117646, Note_on_c, 1, 64, 127
1, 117799, Note_off_c, 1, 81, 0
1, 117799, Note_off_c, 1, 64, 0
1, 117801, Note_on_c, 1, 62, 127
1, 117801, Note_on_c, 1, 71, 127
1, 117954, Note_off_c, 1, 62, 0
1, 117957, Note_on_c, 1, 66, 127
1, 118110, Note_off_c, 1, 71, 0
1, 118110, Note_off_c, 1, 66, 0
1, 118112, Note_on_c, 1, 69, 127
1, 118112, Note_on_c, 1, 78, 127
1, 118265, Note_off_c, 1, 69, 0
1, 118268, Note_on_c, 1, 72, 127
1, 118421, Note_off_c, 1, 78, 0
1, 118421, Note_off_c, 1, 72, 0
1, 118423, Note_on_c, 1, 71, 127
1, 118423, Note_on_c, 1, 81, 127
1, 118576, Note_off_c, 1, 71, 0
1, 118579, Note_on_c, 1, 69, 127
1, 118732, Note_off_c, 1, 81, 0
1, 118732, Note_off_c, 1, 69, 0
1, 118734, Note_on_c, 1, 67, 127
1, 118734, Note_on_c, 1, 71, 127
1, 118887, Note_off_c, 1, 67, 0
1, 118890, Note_on_c, 1, 69, 127
1, 119043, Note_off_c, 1, 69, 0
1, 119045, Note_on_c, 1, 76, 127
1, 119201, Note_on_c, 1, 66, 127
1, 119349, Note_off_c, 1, 71, 0
1, 119354, Note_off_c, 1, 76, 0
1, 119354, Note_off_c, 1, 66, 0
1, 119356, Note_on_c, 1, 64, 127
1, 119356, Note_on_c, 1, 79, 127
1, 119509, Note_off_c, 1, 64, 0
1, 119512, Note_on_c, 1, 62, 127
1, 119665, Note_off_c, 1, 79, 0
1, 119665, Note_off_c, 1, 62, 0
1, 119667, Note_on_c, 1, 60, 127
1, 119667, Note_on_c, 1, 69, 127
1, 119820, Note_off_c, 1, 60, 0
1, 119823, Note_on_c, 1, 64, 127
1, 119976, Note_off_c, 1, 69, 0
1, 119976, Note_off_c, 1, 64, 0
1, 119978, Note_on_c, 1, 67, 127
1, 119978, Note_on_c, 1, 76, 127
1, 120131, Note_off_c, 1, 67, 0
1, 120134, Note_on_c, 1, 71, 127
1, 120287, Note_off_c, 1, 76, 0
1, 120287, Note_off_c, 1, 71, 0
1, 120289, Note_on_c, 1, 69, 127
1, 120289, Note_on_c, 1, 79, 127
1, 120442, Note_off_c, 1, 69, 0
1, 120445, Note_on_c, 1, 67, 127
1, 120598, Note_off_c, 1, 79, 0
1, 120598, Note_off_c, 1, 67, 0
1, 120600, Note_on_c, 1, 66, 127
1, 120600, Note_on_c, 1, 69, 127
1, 120753, Note_off_c, 1, 66, 0
1, 120756, Note_on_c, 1, 67, 127
1, 120909, Note_off_c, 1, 67, 0
1, 120911, Note_on_c, 1, 74, 127
1, 121067, Note_on_c, 1, 64, 127
1, 121215, Note_off_c, 1, 69, 0
1, 121220, Note_off_c, 1, 74, 0
1, 121220, Note_off_c, 1, 64, 0
1, 121222, Note_on_c, 1, 62, 127
1, 121222, Note_on_c, 1, 78, 127
1, 121375, Note_off_c, 1, 62, 0
1, 121378, Note_on_c, 1, 60, 127
1, 121531, Note_off_c, 1, 78, 0
1, 121531, Note_off_c, 1, 60, 0
1, 121534, Note_on_c, 1, 59, 127
1, 121534, Note_on_c, 1, 79, 127
1, 121687, Note_off_c, 1, 59, 0
1, 121689, Note_on_c, 1, 71, 127
1, 121689, Note_on_c, 1, 60, 127
1, 121842, Note_off_c, 1, 71, 0
1, 121842, Note_off_c, 1, 60, 0
1, 121845, Note_on_c, 1, 69, 127
1, 121845, Note_on_c, 1, 62, 127
1, 121998, Note_off_c, 1, 79, 0
1, 122000, Note_on_c, 1, 78, 127
1, 122153, Note_off_c, 1, 78, 0
1, 122298, Note_off_c, 1, 69, 0
1, 122309, Note_off_c, 1, 62, 0
1, 122311, Note_on_c, 1, 81, 127
1, 122311, Note_on_c, 1, 62, 127
1, 122464, Note_off_c, 1, 81, 0
1, 122464, Note_off_c, 1, 62, 0
1, 122467, Note_on_c, 1, 55, 127
1, 122467, Note_on_c, 1, 83, 127
1, 122622, Note_on_c, 1, 81, 127
1, 122775, Note_off_c, 1, 81, 0
1, 122776, Note_off_c, 1, 55, 0
1, 122778, Note_on_c, 1, 79, 127
1, 122778, Note_on_c, 1, 64, 127
1, 122931, Note_off_c, 1, 79, 0
1, 122931, Note_off_c, 1, 64, 0
1, 122933, Note_on_c, 1, 78, 127
1, 122933, Note_on_c, 1, 62, 127
1, 123086, Note_off_c, 1, 78, 0
1, 123086, Note_off_c, 1, 62, 0
1, 123244, Note_on_c, 1, 60, 127
1, 123244, Note_on_c, 1, 76, 127
1, 123397, Note_off_c, 1, 60, 0
1, 123398, Note_off_c, 1, 83, 0
1, 123400, Note_on_c, 1, 54, 127
1, 123709, Note_off_c, 1, 54, 0
1, 123711, Note_on_c, 1, 59, 127
1, 123787, Note_off_c, 1, 59, 0
1, 123789, Note_on_c, 1, 57, 127
1, 123864, Note_off_c, 1, 76, 0
1, 123865, Note_off_c, 1, 57, 0
1, 124022, Note_on_c, 1, 74, 127
1, 124333, Note_on_c, 1, 52, 127
1, 124486, Note_off_c, 1, 74, 0
1, 124642, Note_off_c, 1, 52, 0
1, 125110, Note_on_c, 1, 72, 127
1, 125266, Note_on_c, 1, 50, 127
1, 125575, Note_off_c, 1, 50, 0
1, 125730, Note_off_c, 1, 72, 0
1, 125888, Note_on_c, 1, 71, 127
1, 126044, Note_on_c, 1, 77, 127
1, 126197, Note_off_c, 1, 77, 0
1, 126199, Note_on_c, 1, 48, 127
1, 126352, Note_off_c, 1, 71, 0
1, 126508, Note_off_c, 1, 48, 0
1, 126977, Note_on_c, 1, 69, 127
1, 127132, Note_on_c, 1, 47, 127
1, 127441, Note_off_c, 1, 47, 0
1, 127597, Note_off_c, 1, 69, 0
1, 127754, Note_on_c, 1, 67, 127
1, 128065, Note_on_c, 1, 45, 127
1, 128218, Note_off_c, 1, 67, 0
1, 128374, Note_off_c, 1, 45, 0
1, 128843, Note_on_c, 1, 66, 127
1, 128996, Note_off_c, 1, 66, 0
1, 128998, Note_on_c, 1, 43, 127
1, 129467, Note_off_c, 1, 43, 0
1, 130256, Note_on_c, 1, 71, 127
1, 130256, Note_on_c, 1, 50, 127
1, 130256, Note_on_c, 1, 66, 127
1, 130333, Note_off_c, 1, 71, 0
1, 130335, Note_on_c, 1, 69, 127
1, 130412, Note_off_c, 1, 69, 0
1, 130413, Note_off_c, 1, 50, 0
1, 130414, Note_on_c, 1, 48, 127
1, 130571, Note_off_c, 1, 48, 0
1, 130732, Note_on_c, 1, 67, 127
1, 130732, Note_on_c, 1, 38, 127
1, 130809, Note_off_c, 1, 67, 0
1, 130884, Note_off_c, 1, 66, 0
1, 130889, Note_off_c, 1, 38, 0
1, 130891, Note_on_c, 1, 43, 127
1, 130891, Note_on_c, 1, 71, 127
1, 131051, Note_on_c, 1, 66, 127
1, 131209, Note_off_c, 1, 66, 0
1, 131210, Note_off_c, 1, 43, 0
1, 131211, Note_on_c, 1, 67, 127
1, 131211, Note_on_c, 1, 55, 127
1, 131369, Note_off_c, 1, 67, 0
1, 131372, Note_on_c, 1, 63, 127
1, 131530, Note_off_c, 1, 63, 0
1, 131532, Note_on_c, 1, 64, 127
1, 131690, Note_off_c, 1, 55, 0
1, 131691, Note_off_c, 1, 71, 0
1, 131693, Note_on_c, 1, 70, 127
1, 131693, Note_on_c, 1, 54, 127
1, 131851, Note_off_c, 1, 70, 0
1, 131851, Note_off_c, 1, 54, 0
1, 132013, Note_on_c, 1, 73, 127
1, 132013, Note_on_c, 1, 52, 127
1, 132171, Note_off_c, 1, 64, 0
1, 132171, Note_off_c, 1, 73, 0
1, 132171, Note_off_c, 1, 52, 0
1, 132174, Note_on_c, 1, 74, 127
1, 132174, Note_on_c, 1, 54, 127
1, 132174, Note_on_c, 1, 70, 127
1, 132251, Note_off_c, 1, 74, 0
1, 132253, Note_on_c, 1, 73, 127
1, 132330, Note_off_c, 1, 73, 0
1, 132331, Note_off_c, 1, 54, 0
1, 132332, Note_on_c, 1, 52, 127
1, 132489, Note_off_c, 1, 52, 0
1, 132650, Note_on_c, 1, 71, 127
1, 132650, Note_on_c, 1, 42, 127
1, 132727, Note_off_c, 1, 71, 0
1, 132802, Note_off_c, 1, 70, 0
1, 132807, Note_off_c, 1, 42, 0
1, 132809, Note_on_c, 1, 47, 127
1, 132809, Note_on_c, 1, 74, 127
1, 132969, Note_on_c, 1, 70, 127
1, 133127, Note_off_c, 1, 70, 0
1, 133128, Note_off_c, 1, 47, 0
1, 133129, Note_on_c, 1, 71, 127
1, 133129, Note_on_c, 1, 59, 127
1, 133287, Note_off_c, 1, 71, 0
1, 133290, Note_on_c, 1, 66, 127
1, 133448, Note_off_c, 1, 66, 0
1, 133450, Note_on_c, 1, 67, 127
1, 133608, Note_off_c, 1, 59, 0
1, 133609, Note_off_c, 1, 74, 0
1, 133611, Note_on_c, 1, 73, 127
1, 133611, Note_on_c, 1, 57, 127
1, 133769, Note_off_c, 1, 73, 0
1, 133769, Note_off_c, 1, 57, 0
1, 133931, Note_on_c, 1, 76, 127
1, 133931, Note_on_c, 1, 55, 127
1, 134089, Note_off_c, 1, 67, 0
1, 134089, Note_off_c, 1, 76, 0
1, 134089, Note_off_c, 1, 55, 0
1, 134092, Note_on_c, 1, 78, 127
1, 134092, Note_on_c, 1, 57, 127
1, 134092, Note_on_c, 1, 73, 127
1, 134169, Note_off_c, 1, 78, 0
1, 134171, Note_on_c, 1, 76, 127
1, 134248, Note_off_c, 1, 76, 0
1, 134249, Note_off_c, 1, 57, 0
1, 134251, Note_on_c, 1, 55, 127
1, 134408, Note_off_c, 1, 55, 0
1, 134568, Note_on_c, 1, 74, 127
1, 134568, Note_on_c, 1, 45, 127
1, 134645, Note_off_c, 1, 74, 0
1, 134720, Note_off_c, 1, 73, 0
1, 134725, Note_off_c, 1, 45, 0
1, 134727, Note_on_c, 1, 50, 127
1, 134727, Note_on_c, 1, 78, 127
1, 134887, Note_on_c, 1, 73, 127
1, 135045, Note_off_c, 1, 73, 0
1, 135046, Note_off_c, 1, 50, 0
1, 135048, Note_on_c, 1, 74, 127
1, 135048, Note_on_c, 1, 62, 127
1, 135206, Note_off_c, 1, 74, 0
1, 135208, Note_on_c, 1, 70, 127
1, 135366, Note_off_c, 1, 70, 0
1, 135368, Note_on_c, 1, 71, 127
1, 135527, Note_off_c, 1, 78, 0
1, 135527, Note_off_c, 1, 62, 0
1, 135529, Note_on_c, 1, 59, 127
1, 135687, Note_off_c, 1, 59, 0
1, 135689, Note_on_c, 1, 64, 127
1, 135766, Note_off_c, 1, 64, 0
1, 136008, Note_on_c, 1, 76, 127
1, 136166, Note_off_c, 1, 71, 0
1, 136169, Note_on_c, 1, 67, 127
1, 136327, Note_off_c, 1, 67, 0
1, 136489, Note_on_c, 1, 61, 127
1, 136647, Note_off_c, 1, 61, 0
1, 136650, Note_on_c, 1, 66, 127
1, 136809, Note_off_c, 1, 76, 0
1, 136974, Note_on_c, 1, 54, 127
1, 137291, Note_off_c, 1, 66, 0
1, 137296, Note_off_c, 1, 54, 0
1, 138918, Note_on_c, 1, 82, 127
1, 139726, Note_off_c, 1, 82, 0
1, 139890, Note_on_c, 1, 83, 127
1, 140052, Note_on_c, 1, 81, 127
1, 140212, Note_off_c, 1, 81, 0
1, 140214, Note_on_c, 1, 80, 127
1, 140374, Note_off_c, 1, 80, 0
1, 140531, Note_off_c, 1, 83, 0
1, 140538, Note_on_c, 1, 77, 127
1, 140538, Note_on_c, 1, 66, 127
1, 140698, Note_off_c, 1, 77, 0
1, 140700, Note_on_c, 1, 80, 127
1, 140860, Note_off_c, 1, 80, 0
1, 140862, Note_on_c, 1, 71, 127
1, 140862, Note_on_c, 1, 54, 127
1, 141011, Note_off_c, 1, 66, 0
1, 141022, Note_off_c, 1, 71, 0
1, 141024, Note_on_c, 1, 74, 127
1, 141184, Note_off_c, 1, 54, 0
1, 141184, Note_off_c, 1, 74, 0
1, 141186, Note_on_c, 1, 73, 127
1, 141186, Note_on_c, 1, 66, 127
1, 141346, Note_off_c, 1, 73, 0
1, 141348, Note_on_c, 1, 71, 127
1, 141508, Note_off_c, 1, 66, 0
1, 141508, Note_off_c, 1, 71, 0
1, 141510, Note_on_c, 1, 70, 127
1, 141510, Note_on_c, 1, 66, 127
1, 141670, Note_off_c, 1, 70, 0
1, 141670, Note_off_c, 1, 66, 0
1, 141672, Note_on_c, 1, 73, 127
1, 141672, Note_on_c, 1, 67, 127
1, 141832, Note_off_c, 1, 73, 0
1, 141832, Note_off_c, 1, 67, 0
1, 141834, Note_on_c, 1, 76, 127
1, 141834, Note_on_c, 1, 66, 127
1, 141994, Note_off_c, 1, 76, 0
1, 141994, Note_off_c, 1, 66, 0
1, 141996, Note_on_c, 1, 79, 127
1, 141996, Note_on_c, 1, 64, 127
1, 142156, Note_off_c, 1, 79, 0
1, 142156, Note_off_c, 1, 64, 0
1, 142158, Note_on_c, 1, 78, 127
1, 142158, Note_on_c, 1, 62, 127
1, 142318, Note_off_c, 1, 78, 0
1, 142318, Note_off_c, 1, 62, 0
1, 142320, Note_on_c, 1, 76, 127
1, 142320, Note_on_c, 1, 61, 127
1, 142480, Note_off_c, 1, 76, 0
1, 142480, Note_off_c, 1, 61, 0
1, 142482, Note_on_c, 1, 59, 127
1, 142482, Note_on_c, 1, 74, 127
1, 142642, Note_off_c, 1, 59, 0
1, 142644, Note_on_c, 1, 78, 127
1, 142644, Note_on_c, 1, 61, 127
1, 142804, Note_off_c, 1, 78, 0
1, 142804, Note_off_c, 1, 61, 0
1, 142806, Note_on_c, 1, 81, 127
1, 142966, Note_off_c, 1, 81, 0
1, 142968, Note_on_c, 1, 84, 127
1, 142968, Note_on_c, 1, 57, 127
1, 143128, Note_off_c, 1, 84, 0
1, 143128, Note_off_c, 1, 57, 0
1, 143130, Note_on_c, 1, 83, 127
1, 143130, Note_on_c, 1, 55, 127
1, 143290, Note_off_c, 1, 83, 0
1, 143290, Note_off_c, 1, 55, 0
1, 143292, Note_on_c, 1, 54, 127
1, 143452, Note_off_c, 1, 54, 0
1, 143454, Note_on_c, 1, 52, 127
1, 143454, Note_on_c, 1, 79, 127
1, 143614, Note_off_c, 1, 74, 0
1, 143614, Note_off_c, 1, 52, 0
1, 143616, Note_on_c, 1, 50, 127
1, 143776, Note_off_c, 1, 50, 0
1, 143778, Note_on_c, 1, 76, 127
1, 143938, Note_off_c, 1, 76, 0
1, 144264, Note_on_c, 1, 71, 127
1, 144424, Note_off_c, 1, 71, 0
1, 144426, Note_on_c, 1, 73, 127
1, 144586, Note_off_c, 1, 79, 0
1, 145558, Note_off_c, 1, 73, 0
1, 145560, Note_on_c, 1, 49, 127
1, 145720, Note_off_c, 1, 49, 0
1, 146208, Note_on_c, 1, 70, 127
1, 146368, Note_off_c, 1, 70, 0
1, 147504, Note_on_c, 1, 47, 127
1, 147664, Note_off_c, 1, 47, 0
1, 148638, Note_on_c, 1, 54, 127
1, 148638, Note_on_c, 1, 76, 127
1, 148638, Note_on_c, 1, 79, 127
1, 148798, Note_off_c, 1, 54, 0
1, 148800, Note_on_c, 1, 58, 127
1, 148960, Note_off_c, 1, 76, 0
1, 148960, Note_off_c, 1, 79, 0
1, 148960, Note_off_c, 1, 58, 0
1, 148962, Note_on_c, 1, 61, 127
1, 148962, Note_on_c, 1, 73, 127
1, 148962, Note_on_c, 1, 76, 127
1, 149122, Note_off_c, 1, 61, 0
1, 149124, Note_on_c, 1, 58, 127
1, 149284, Note_off_c, 1, 73, 0
1, 149284, Note_off_c, 1, 76, 0
1, 149284, Note_off_c, 1, 58, 0
1, 149286, Note_on_c, 1, 54, 127
1, 149286, Note_on_c, 1, 70, 127
1, 149286, Note_on_c, 1, 73, 127
1, 149446, Note_off_c, 1, 54, 0
1, 149448, Note_on_c, 1, 61, 127
1, 149608, Note_off_c, 1, 70, 0
1, 149608, Note_off_c, 1, 73, 0
1, 149608, Note_off_c, 1, 61, 0
1, 149610, Note_on_c, 1, 58, 127
1, 149610, Note_on_c, 1, 73, 127
1, 149610, Note_on_c, 1, 76, 127
1, 149770, Note_off_c, 1, 58, 0
1, 149772, Note_on_c, 1, 54, 127
1, 149932, Note_off_c, 1, 73, 0
1, 149932, Note_off_c, 1, 76, 0
1, 149932, Note_off_c, 1, 54, 0
1, 149934, Note_on_c, 1, 49, 127
1, 149934, Note_on_c, 1, 70, 127
1, 149934, Note_on_c, 1, 73, 127
1, 150094, Note_off_c, 1, 49, 0
1, 150096, Note_on_c, 1, 50, 127
1, 150256, Note_off_c, 1, 70, 0
1, 150256, Note_off_c, 1, 73, 0
1, 150256, Note_off_c, 1, 50, 0
1, 150258, Note_on_c, 1, 52, 127
1, 150258, Note_on_c, 1, 66, 127
1, 150258, Note_on_c, 1, 70, 127
1, 150418, Note_off_c, 1, 52, 0
1, 150420, Note_on_c, 1, 50, 127
1, 150580, Note_off_c, 1, 50, 0
1, 150744, Note_on_c, 1, 55, 127
1, 150899, Note_off_c, 1, 66, 0
1, 150899, Note_off_c, 1, 70, 0
1, 150904, Note_off_c, 1, 55, 0
1, 150906, Note_on_c, 1, 61, 127
1, 151066, Note_off_c, 1, 61, 0
1, 151068, Note_on_c, 1, 55, 127
1, 151228, Note_off_c, 1, 55, 0
1, 151230, Note_on_c, 1, 52, 127
1, 151390, Note_off_c, 1, 52, 0
1, 151392, Note_on_c, 1, 61, 127
1, 151552, Note_off_c, 1, 61, 0
1, 151554, Note_on_c, 1, 55, 127
1, 151554, Note_on_c, 1, 67, 127
1, 151554, Note_on_c, 1, 64, 127
1, 151554, Note_on_c, 1, 61, 127
1, 151554, Note_on_c, 1, 73, 127
1, 151714, Note_off_c, 1, 55, 0
1, 151716, Note_on_c, 1, 52, 127
1, 151876, Note_off_c, 1, 67, 0
1, 151876, Note_off_c, 1, 64, 0
1, 151876, Note_off_c, 1, 61, 0
1, 151876, Note_off_c, 1, 73, 0
1, 151876, Note_off_c, 1, 52, 0
1, 151878, Note_on_c, 1, 49, 127
1, 151878, Note_on_c, 1, 64, 127
1, 151878, Note_on_c, 1, 61, 127
1, 151878, Note_on_c, 1, 66, 127
1, 151878, Note_on_c, 1, 70, 127
1, 152038, Note_off_c, 1, 49, 0
1, 152040, Note_on_c, 1, 52, 127
1, 152200, Note_off_c, 1, 64, 0
1, 152200, Note_off_c, 1, 61, 0
1, 152200, Note_off_c, 1, 66, 0
1, 152200, Note_off_c, 1, 70, 0
1, 152200, Note_off_c, 1, 52, 0
1, 152202, Note_on_c, 1, 71, 127
1, 152202, Note_on_c, 1, 59, 127
1, 152202, Note_on_c, 1, 50, 127
1, 152202, Note_on_c, 1, 54, 127
1, 152362, Note_off_c, 1, 71, 0
1, 152364, Note_on_c, 1, 70, 127
1, 152524, Note_off_c, 1, 70, 0
1, 152688, Note_on_c, 1, 74, 127
1, 152843, Note_off_c, 1, 59, 0
1, 152843, Note_off_c, 1, 50, 0
1, 152843, Note_off_c, 1, 54, 0
1, 152848, Note_off_c, 1, 74, 0
1, 152850, Note_on_c, 1, 78, 127
1, 153010, Note_off_c, 1, 78, 0
1, 153012, Note_on_c, 1, 74, 127
1, 153172, Note_off_c, 1, 74, 0
1, 153174, Note_on_c, 1, 71, 127
1, 153334, Note_off_c, 1, 71, 0
1, 153336, Note_on_c, 1, 78, 127
1, 153496, Note_off_c, 1, 78, 0
1, 153498, Note_on_c, 1, 74, 127
1, 153498, Note_on_c, 1, 50, 127
1, 153498, Note_on_c, 1, 47, 127
1, 153658, Note_off_c, 1, 74, 0
1, 153660, Note_on_c, 1, 71, 127
1, 153820, Note_off_c, 1, 50, 0
1, 153820, Note_off_c, 1, 47, 0
1, 153820, Note_off_c, 1, 71, 0
1, 153822, Note_on_c, 1, 66, 127
1, 153822, Note_on_c, 1, 49, 127
1, 153822, Note_on_c, 1, 52, 127
1, 153982, Note_off_c, 1, 66, 0
1, 153984, Note_on_c, 1, 67, 127
1, 154144, Note_off_c, 1, 49, 0
1, 154144, Note_off_c, 1, 52, 0
1, 154144, Note_off_c, 1, 67, 0
1, 154146, Note_on_c, 1, 69, 127
1, 154146, Note_on_c, 1, 51, 127
1, 154146, Note_on_c, 1, 54, 127
1, 154306, Note_off_c, 1, 69, 0
1, 154308, Note_on_c, 1, 67, 127
1, 154468, Note_off_c, 1, 67, 0
1, 154632, Note_on_c, 1, 72, 127
1, 154787, Note_off_c, 1, 51, 0
1, 154787, Note_off_c, 1, 54, 0
1, 154792, Note_off_c, 1, 72, 0
1, 154794, Note_on_c, 1, 78, 127
1, 154954, Note_off_c, 1, 78, 0
1, 154956, Note_on_c, 1, 72, 127
1, 155116, Note_off_c, 1, 72, 0
1, 155118, Note_on_c, 1, 69, 127
1, 155278, Note_off_c, 1, 69, 0
1, 155280, Note_on_c, 1, 78, 127
1, 155440, Note_off_c, 1, 78, 0
1, 155442, Note_on_c, 1, 72, 127
1, 155442, Note_on_c, 1, 54, 127
1, 155442, Note_on_c, 1, 51, 127
1, 155602, Note_off_c, 1, 72, 0
1, 155604, Note_on_c, 1, 69, 127
1, 155764, Note_off_c, 1, 54, 0
1, 155764, Note_off_c, 1, 51, 0
1, 155764, Note_off_c, 1, 69, 0
1, 155766, Note_on_c, 1, 66, 127
1, 155766, Note_on_c, 1, 47, 127
1, 155766, Note_on_c, 1, 51, 127
1, 155926, Note_off_c, 1, 66, 0
1, 155928, Note_on_c, 1, 69, 127
1, 156088, Note_off_c, 1, 47, 0
1, 156088, Note_off_c, 1, 51, 0
1, 156088, Note_off_c, 1, 69, 0
1, 156090, Note_on_c, 1, 52, 127
1, 156090, Note_on_c, 1, 64, 127
1, 156090, Note_on_c, 1, 67, 127
1, 156250, Note_off_c, 1, 52, 0
1, 156252, Note_on_c, 1, 51, 127
1, 156412, Note_off_c, 1, 51, 0
1, 156576, Note_on_c, 1, 55, 127
1, 156736, Note_off_c, 1, 55, 0
1, 156738, Note_on_c, 1, 59, 127
1, 156898, Note_off_c, 1, 59, 0
1, 157060, Note_off_c, 1, 64, 0
1, 157060, Note_off_c, 1, 67, 0
1, 157062, Note_on_c, 1, 52, 127
1, 157222, Note_off_c, 1, 52, 0
1, 157224, Note_on_c, 1, 59, 127
1, 157384, Note_off_c, 1, 59, 0
1, 157386, Note_on_c, 1, 55, 127
1, 157386, Note_on_c, 1, 64, 127
1, 157386, Note_on_c, 1, 59, 127
1, 157546, Note_off_c, 1, 55, 0
1, 157548, Note_on_c, 1, 52, 127
1, 157708, Note_off_c, 1, 64, 0
1, 157708, Note_off_c, 1, 59, 0
1, 157708, Note_off_c, 1, 52, 0
1, 157710, Note_on_c, 1, 47, 127
1, 157710, Note_on_c, 1, 63, 127
1, 157710, Note_on_c, 1, 66, 127
1, 157710, Note_on_c, 1, 59, 127
1, 157870, Note_off_c, 1, 47, 0
1, 157872, Note_on_c, 1, 48, 127
1, 158032, Note_off_c, 1, 63, 0
1, 158032, Note_off_c, 1, 66, 0
1, 158032, Note_off_c, 1, 59, 0
1, 158032, Note_off_c, 1, 48, 0
1, 158034, Note_on_c, 1, 50, 127
1, 158034, Note_on_c, 1, 59, 127
1, 158034, Note_on_c, 1, 64, 127
1, 158034, Note_on_c, 1, 68, 127
1, 158194, Note_off_c, 1, 50, 0
1, 158196, Note_on_c, 1, 49, 127
1, 158356, Note_off_c, 1, 49, 0
1, 158520, Note_on_c, 1, 53, 127
1, 158675, Note_off_c, 1, 59, 0
1, 158680, Note_off_c, 1, 53, 0
1, 159004, Note_off_c, 1, 64, 0
1, 159004, Note_off_c, 1, 68, 0
1, 159006, Note_on_c, 1, 50, 127
1, 159166, Note_off_c, 1, 50, 0
1, 159168, Note_on_c, 1, 59, 127
1, 159328, Note_off_c, 1, 59, 0
1, 159330, Note_on_c, 1, 53, 127
1, 159330, Note_on_c, 1, 71, 127
1, 159330, Note_on_c, 1, 59, 127
1, 159330, Note_on_c, 1, 62, 127
1, 159330, Note_on_c, 1, 65, 127
1, 159490, Note_off_c, 1, 53, 0
1, 159492, Note_on_c, 1, 50, 127
1, 159652, Note_off_c, 1, 71, 0
1, 159652, Note_off_c, 1, 59, 0
1, 159652, Note_off_c, 1, 62, 0
1, 159652, Note_off_c, 1, 65, 0
1, 159652, Note_off_c, 1, 50, 0
1, 159654, Note_on_c, 1, 47, 127
1, 159654, Note_on_c, 1, 64, 127
1, 159654, Note_on_c, 1, 68, 127
1, 159654, Note_on_c, 1, 59, 127
1, 159654, Note_on_c, 1, 62, 127
1, 159814, Note_off_c, 1, 47, 0
1, 159816, Note_on_c, 1, 50, 127
1, 159976, Note_off_c, 1, 64, 0
1, 159976, Note_off_c, 1, 68, 0
1, 159976, Note_off_c, 1, 59, 0
1, 159976, Note_off_c, 1, 62, 0
1, 159976, Note_off_c, 1, 50, 0
1, 159978, Note_on_c, 1, 69, 127
1, 159978, Note_on_c, 1, 57, 127
1, 159978, Note_on_c, 1, 52, 127
1, 159978, Note_on_c, 1, 49, 127
1, 160138, Note_off_c, 1, 69, 0
1, 160140, Note_on_c, 1, 68, 127
1, 160300, Note_off_c, 1, 68, 0
1, 160464, Note_on_c, 1, 73, 127
1, 160619, Note_off_c, 1, 57, 0
1, 160619, Note_off_c, 1, 52, 0
1, 160619, Note_off_c, 1, 49, 0
1, 160624, Note_off_c, 1, 73, 0
1, 160626, Note_on_c, 1, 76, 127
1, 160786, Note_off_c, 1, 76, 0
1, 160788, Note_on_c, 1, 73, 127
1, 160948, Note_off_c, 1, 73, 0
1, 160950, Note_on_c, 1, 69, 127
1, 161110, Note_off_c, 1, 69, 0
1, 161112, Note_on_c, 1, 76, 127
1, 161272, Note_off_c, 1, 76, 0
1, 161274, Note_on_c, 1, 73, 127
1, 161274, Note_on_c, 1, 45, 127
1, 161274, Note_on_c, 1, 49, 127
1, 161434, Note_off_c, 1, 73, 0
1, 161436, Note_on_c, 1, 69, 127
1, 161596, Note_off_c, 1, 45, 0
1, 161596, Note_off_c, 1, 49, 0
1, 161596, Note_off_c, 1, 69, 0
1, 161598, Note_on_c, 1, 64, 127
1, 161598, Note_on_c, 1, 47, 127
1, 161598, Note_on_c, 1, 50, 127
1, 161758, Note_off_c, 1, 64, 0
1, 161760, Note_on_c, 1, 66, 127
1, 161920, Note_off_c, 1, 47, 0
1, 161920, Note_off_c, 1, 50, 0
1, 161920, Note_off_c, 1, 66, 0
1, 161922, Note_on_c, 1, 67, 127
1, 161922, Note_on_c, 1, 52, 127
1, 161922, Note_on_c, 1, 49, 127
1, 162082, Note_off_c, 1, 67, 0
1, 162084, Note_on_c, 1, 66, 127
1, 162244, Note_off_c, 1, 66, 0
1, 162408, Note_on_c, 1, 70, 127
1, 162563, Note_off_c, 1, 52, 0
1, 162563, Note_off_c, 1, 49, 0
1, 162568, Note_off_c, 1, 70, 0
1, 162570, Note_on_c, 1, 76, 127
1, 162730, Note_off_c, 1, 76, 0
1, 162732, Note_on_c, 1, 70, 127
1, 162892, Note_off_c, 1, 70, 0
1, 162894, Note_on_c, 1, 67, 127
1, 163054, Note_off_c, 1, 67, 0
1, 163056, Note_on_c, 1, 76, 127
1, 163216, Note_off_c, 1, 76, 0
1, 163218, Note_on_c, 1, 70, 127
1, 163218, Note_on_c, 1, 49, 127
1, 163218, Note_on_c, 1, 52, 127
1, 163378, Note_off_c, 1, 70, 0
1, 163380, Note_on_c, 1, 67, 127
1, 163540, Note_off_c, 1, 49, 0
1, 163540, Note_off_c, 1, 52, 0
1, 163540, Note_off_c, 1, 67, 0
1, 163542, Note_on_c, 1, 64, 127
1, 163542, Note_on_c, 1, 45, 127
1, 163542, Note_on_c, 1, 49, 127
1, 163702, Note_off_c, 1, 64, 0
1, 163704, Note_on_c, 1, 67, 127
1, 163864, Note_off_c, 1, 45, 0
1, 163864, Note_off_c, 1, 49, 0
1, 163864, Note_off_c, 1, 67, 0
1, 163866, Note_on_c, 1, 50, 127
1, 163866, Note_on_c, 1, 66, 127
1, 164024, Note_off_c, 1, 50, 0
1, 164026, Note_on_c, 1, 69, 127
1, 164026, Note_on_c, 1, 54, 127
1, 164183, Note_off_c, 1, 66, 0
1, 164184, Note_off_c, 1, 69, 0
1, 164184, Note_off_c, 1, 54, 0
1, 164187, Note_on_c, 1, 62, 127
1, 164187, Note_on_c, 1, 45, 127
1, 164345, Note_off_c, 1, 62, 0
1, 164345, Note_off_c, 1, 45, 0
1, 164347, Note_on_c, 1, 64, 127
1, 164347, Note_on_c, 1, 49, 127
1, 164505, Note_off_c, 1, 64, 0
1, 164505, Note_off_c, 1, 49, 0
1, 164507, Note_on_c, 1, 66, 127
1, 164507, Note_on_c, 1, 50, 127
1, 164665, Note_off_c, 1, 66, 0
1, 164665, Note_off_c, 1, 50, 0
1, 164668, Note_on_c, 1, 69, 127
1, 164668, Note_on_c, 1, 54, 127
1, 164826, Note_off_c, 1, 69, 0
1, 164826, Note_off_c, 1, 54, 0
1, 164828, Note_on_c, 1, 50, 127
1, 164828, Note_on_c, 1, 66, 127
1, 164986, Note_off_c, 1, 50, 0
1, 164988, Note_on_c, 1, 69, 127
1, 164988, Note_on_c, 1, 54, 127
1, 165145, Note_off_c, 1, 66, 0
1, 165146, Note_off_c, 1, 69, 0
1, 165146, Note_off_c, 1, 54, 0
1, 165149, Note_on_c, 1, 62, 127
1, 165149, Note_on_c, 1, 45, 127
1, 165307, Note_off_c, 1, 62, 0
1, 165307, Note_off_c, 1, 45, 0
1, 165309, Note_on_c, 1, 64, 127
1, 165309, Note_on_c, 1, 49, 127
1, 165467, Note_off_c, 1, 64, 0
1, 165467, Note_off_c, 1, 49, 0
1, 165470, Note_on_c, 1, 66, 127
1, 165470, Note_on_c, 1, 50, 127
1, 165628, Note_off_c, 1, 66, 0
1, 165628, Note_off_c, 1, 50, 0
1, 165630, Note_on_c, 1, 69, 127
1, 165630, Note_on_c, 1, 54, 127
1, 165788, Note_off_c, 1, 69, 0
1, 165788, Note_off_c, 1, 54, 0
1, 165790, Note_on_c, 1, 51, 127
1, 165790, Note_on_c, 1, 66, 127
1, 165948, Note_off_c, 1, 51, 0
1, 165951, Note_on_c, 1, 69, 127
1, 165951, Note_on_c, 1, 54, 127
1, 166107, Note_off_c, 1, 66, 0
1, 166109, Note_off_c, 1, 69, 0
1, 166109, Note_off_c, 1, 54, 0
1, 166111, Note_on_c, 1, 63, 127
1, 166111, Note_on_c, 1, 47, 127
1, 166269, Note_off_c, 1, 63, 0
1, 166269, Note_off_c, 1, 47, 0
1, 166271, Note_on_c, 1, 64, 127
1, 166271, Note_on_c, 1, 49, 127
1, 166429, Note_off_c, 1, 64, 0
1, 166429, Note_off_c, 1, 49, 0
1, 166432, Note_on_c, 1, 66, 127
1, 166432, Note_on_c, 1, 51, 127
1, 166590, Note_off_c, 1, 66, 0
1, 166590, Note_off_c, 1, 51, 0
1, 166592, Note_on_c, 1, 69, 127
1, 166592, Note_on_c, 1, 54, 127
1, 166750, Note_off_c, 1, 69, 0
1, 166750, Note_off_c, 1, 54, 0
1, 166753, Note_on_c, 1, 51, 127
1, 166753, Note_on_c, 1, 66, 127
1, 166911, Note_off_c, 1, 51, 0
1, 166913, Note_on_c, 1, 69, 127
1, 166913, Note_on_c, 1, 54, 127
1, 167070, Note_off_c, 1, 66, 0
1, 167071, Note_off_c, 1, 69, 0
1, 167071, Note_off_c, 1, 54, 0
1, 167073, Note_on_c, 1, 63, 127
1, 167073, Note_on_c, 1, 47, 127
1, 167231, Note_off_c, 1, 63, 0
1, 167231, Note_off_c, 1, 47, 0
1, 167234, Note_on_c, 1, 64, 127
1, 167234, Note_on_c, 1, 49, 127
1, 167392, Note_off_c, 1, 64, 0
1, 167392, Note_off_c, 1, 49, 0
1, 167394, Note_on_c, 1, 66, 127
1, 167394, Note_on_c, 1, 51, 127
1, 167552, Note_off_c, 1, 66, 0
1, 167552, Note_off_c, 1, 51, 0
1, 167554, Note_on_c, 1, 69, 127
1, 167554, Note_on_c, 1, 54, 127
1, 167712, Note_off_c, 1, 69, 0
1, 167712, Note_off_c, 1, 54, 0
1, 167715, Note_on_c, 1, 52, 127
1, 167715, Note_on_c, 1, 67, 127
1, 167870, Note_off_c, 1, 52, 0
1, 167872, Note_on_c, 1, 71, 127
1, 167872, Note_on_c, 1, 55, 127
1, 168026, Note_off_c, 1, 67, 0
1, 168027, Note_off_c, 1, 71, 0
1, 168027, Note_off_c, 1, 55, 0
1, 168029, Note_on_c, 1, 64, 127
1, 168029, Note_on_c, 1, 47, 127
1, 168184, Note_off_c, 1, 64, 0
1, 168184, Note_off_c, 1, 47, 0
1, 168186, Note_on_c, 1, 66, 127
1, 168186, Note_on_c, 1, 51, 127
1, 168341, Note_off_c, 1, 66, 0
1, 168341, Note_off_c, 1, 51, 0
1, 168343, Note_on_c, 1, 67, 127
1, 168343, Note_on_c, 1, 52, 127
1, 168498, Note_off_c, 1, 67, 0
1, 168498, Note_off_c, 1, 52, 0
1, 168501, Note_on_c, 1, 71, 127
1, 168501, Note_on_c, 1, 55, 127
1, 168656, Note_off_c, 1, 71, 0
1, 168656, Note_off_c, 1, 55, 0
1, 168658, Note_on_c, 1, 52, 127
1, 168658, Note_on_c, 1, 67, 127
1, 168813, Note_off_c, 1, 52, 0
1, 168815, Note_on_c, 1, 71, 127
1, 168815, Note_on_c, 1, 55, 127
1, 168969, Note_off_c, 1, 67, 0
1, 168970, Note_off_c, 1, 71, 0
1, 168970, Note_off_c, 1, 55, 0
1, 168972, Note_on_c, 1, 64, 127
1, 168972, Note_on_c, 1, 47, 127
1, 169127, Note_off_c, 1, 64, 0
1, 169127, Note_off_c, 1, 47, 0
1, 169129, Note_on_c, 1, 66, 127
1, 169129, Note_on_c, 1, 51, 127
1, 169284, Note_off_c, 1, 66, 0
1, 169284, Note_off_c, 1, 51, 0
1, 169286, Note_on_c, 1, 67, 127
1, 169286, Note_on_c, 1, 52, 127
1, 169441, Note_off_c, 1, 67, 0
1, 169441, Note_off_c, 1, 52, 0
1, 169443, Note_on_c, 1, 71, 127
1, 169443, Note_on_c, 1, 55, 127
1, 169598, Note_off_c, 1, 71, 0
1, 169598, Note_off_c, 1, 55, 0
1, 169601, Note_on_c, 1, 50, 127
1, 169601, Note_on_c, 1, 68, 127
1, 169756, Note_off_c, 1, 50, 0
1, 169758, Note_on_c, 1, 71, 127
1, 169758, Note_on_c, 1, 53, 127
1, 169912, Note_off_c, 1, 68, 0
1, 169913, Note_off_c, 1, 71, 0
1, 169913, Note_off_c, 1, 53, 0
1, 169915, Note_on_c, 1, 64, 127
1, 169915, Note_on_c, 1, 44, 127
1, 170070, Note_off_c, 1, 64, 0
1, 170070, Note_off_c, 1, 44, 0
1, 170072, Note_on_c, 1, 66, 127
1, 170072, Note_on_c, 1, 45, 127
1, 170227, Note_off_c, 1, 66, 0
1, 170227, Note_off_c, 1, 45, 0
1, 170229, Note_on_c, 1, 68, 127
1, 170229, Note_on_c, 1, 47, 127
1, 170384, Note_off_c, 1, 68, 0
1, 170384, Note_off_c, 1, 47, 0
1, 170386, Note_on_c, 1, 71, 127
1, 170386, Note_on_c, 1, 50, 127
1, 170541, Note_off_c, 1, 71, 0
1, 170541, Note_off_c, 1, 50, 0
1, 170543, Note_on_c, 1, 47, 127
1, 170543, Note_on_c, 1, 68, 127
1, 170698, Note_off_c, 1, 47, 0
1, 170701, Note_on_c, 1, 71, 127
1, 170701, Note_on_c, 1, 50, 127
1, 170854, Note_off_c, 1, 68, 0
1, 170856, Note_off_c, 1, 71, 0
1, 170856, Note_off_c, 1, 50, 0
1, 170858, Note_on_c, 1, 64, 127
1, 170858, Note_on_c, 1, 44, 127
1, 171013, Note_off_c, 1, 64, 0
1, 171013, Note_off_c, 1, 44, 0
1, 171015, Note_on_c, 1, 66, 127
1, 171015, Note_on_c, 1, 45, 127
1, 171170, Note_off_c, 1, 66, 0
1, 171170, Note_off_c, 1, 45, 0
1, 171172, Note_on_c, 1, 68, 127
1, 171172, Note_on_c, 1, 47, 127
1, 171327, Note_off_c, 1, 68, 0
1, 171327, Note_off_c, 1, 47, 0
1, 171329, Note_on_c, 1, 71, 127
1, 171329, Note_on_c, 1, 50, 127
1, 171484, Note_off_c, 1, 71, 0
1, 171484, Note_off_c, 1, 50, 0
1, 171486, Note_on_c, 1, 48, 127
1, 171486, Note_on_c, 1, 69, 127
1, 171641, Note_off_c, 1, 48, 0
1, 171643, Note_on_c, 1, 52, 127
1, 171798, Note_off_c, 1, 69, 0
1, 171798, Note_off_c, 1, 52, 0
1, 171801, Note_on_c, 1, 45, 127
1, 171801, Note_on_c, 1, 76, 127
1, 171801, Note_on_c, 1, 69, 127
1, 171801, Note_on_c, 1, 72, 127
1, 171801, Note_on_c, 1, 64, 127
1, 171956, Note_off_c, 1, 45, 0
1, 171958, Note_on_c, 1, 47, 127
1, 172113, Note_off_c, 1, 47, 0
1, 172115, Note_on_c, 1, 48, 127
1, 172270, Note_off_c, 1, 76, 0
1, 172270, Note_off_c, 1, 69, 0
1, 172270, Note_off_c, 1, 72, 0
1, 172270, Note_off_c, 1, 64, 0
1, 172270, Note_off_c, 1, 48, 0
1, 172272, Note_on_c, 1, 76, 127
1, 172272, Note_on_c, 1, 52, 127
1, 172427, Note_off_c, 1, 76, 0
1, 172427, Note_off_c, 1, 52, 0
1, 172429, Note_on_c, 1, 48, 127
1, 172429, Note_on_c, 1, 69, 127
1, 172584, Note_off_c, 1, 48, 0
1, 172586, Note_on_c, 1, 53, 127
1, 172741, Note_off_c, 1, 69, 0
1, 172741, Note_off_c, 1, 53, 0
1, 172743, Note_on_c, 1, 77, 127
1, 172743, Note_on_c, 1, 45, 127
1, 172898, Note_off_c, 1, 77, 0
1, 172898, Note_off_c, 1, 45, 0
1, 172900, Note_on_c, 1, 76, 127
1, 172900, Note_on_c, 1, 47, 127
1, 173055, Note_off_c, 1, 76, 0
1, 173055, Note_off_c, 1, 47, 0
1, 173058, Note_on_c, 1, 77, 127
1, 173058, Note_on_c, 1, 48, 127
1, 173213, Note_off_c, 1, 77, 0
1, 173213, Note_off_c, 1, 48, 0
1, 173215, Note_on_c, 1, 74, 127
1, 173215, Note_on_c, 1, 53, 127
1, 173370, Note_off_c, 1, 74, 0
1, 173370, Note_off_c, 1, 53, 0
1, 173372, Note_on_c, 1, 50, 127
1, 173372, Note_on_c, 1, 68, 127
1, 173527, Note_off_c, 1, 50, 0
1, 173529, Note_on_c, 1, 53, 127
1, 173684, Note_off_c, 1, 68, 0
1, 173684, Note_off_c, 1, 53, 0
1, 173686, Note_on_c, 1, 47, 127
1, 173686, Note_on_c, 1, 71, 127
1, 173841, Note_off_c, 1, 47, 0
1, 173843, Note_on_c, 1, 48, 127
1, 173998, Note_off_c, 1, 48, 0
1, 174000, Note_on_c, 1, 50, 127
1, 174155, Note_off_c, 1, 71, 0
1, 174155, Note_off_c, 1, 50, 0
1, 174158, Note_on_c, 1, 71, 127
1, 174158, Note_on_c, 1, 53, 127
1, 174313, Note_off_c, 1, 71, 0
1, 174313, Note_off_c, 1, 53, 0
1, 174315, Note_on_c, 1, 56, 127
1, 174315, Note_on_c, 1, 64, 127
1, 174470, Note_off_c, 1, 56, 0
1, 174472, Note_on_c, 1, 59, 127
1, 174627, Note_off_c, 1, 64, 0
1, 174627, Note_off_c, 1, 59, 0
1, 174629, Note_on_c, 1, 76, 127
1, 174629, Note_on_c, 1, 52, 127
1, 174784, Note_off_c, 1, 76, 0
1, 174784, Note_off_c, 1, 52, 0
1, 174786, Note_on_c, 1, 74, 127
1, 174786, Note_on_c, 1, 54, 127
1, 174941, Note_off_c, 1, 74, 0
1, 174941, Note_off_c, 1, 54, 0
1, 174943, Note_on_c, 1, 76, 127
1, 174943, Note_on_c, 1, 56, 127
1, 175098, Note_off_c, 1, 76, 0
1, 175098, Note_off_c, 1, 56, 0
1, 175100, Note_on_c, 1, 71, 127
1, 175100, Note_on_c, 1, 52, 127
1, 175255, Note_off_c, 1, 71, 0
1, 175255, Note_off_c, 1, 52, 0
1, 175258, Note_on_c, 1, 72, 127
1, 175258, Note_on_c, 1, 57, 127
1, 175413, Note_off_c, 1, 72, 0
1, 175415, Note_on_c, 1, 76, 127
1, 175570, Note_off_c, 1, 57, 0
1, 175570, Note_off_c, 1, 76, 0
1, 175572, Note_on_c, 1, 57, 127
1, 175572, Note_on_c, 1, 69, 127
1, 175649, Note_off_c, 1, 57, 0
1, 175651, Note_on_c, 1, 56, 127
1, 175728, Note_off_c, 1, 56, 0
1, 175729, Note_off_c, 1, 69, 0
1, 175731, Note_on_c, 1, 71, 127
1, 175731, Note_on_c, 1, 57, 127
1, 175886, Note_off_c, 1, 71, 0
1, 175888, Note_on_c, 1, 72, 127
1, 176043, Note_off_c, 1, 57, 0
1, 176043, Note_off_c, 1, 72, 0
1, 176045, Note_on_c, 1, 76, 127
1, 176045, Note_on_c, 1, 57, 127
1, 176200, Note_off_c, 1, 76, 0
1, 176200, Note_off_c, 1, 57, 0
1, 176202, Note_on_c, 1, 72, 127
1, 176202, Note_on_c, 1, 52, 127
1, 176357, Note_off_c, 1, 72, 0
1, 176359, Note_on_c, 1, 76, 127
1, 176514, Note_off_c, 1, 52, 0
1, 176514, Note_off_c, 1, 76, 0
1, 176516, Note_on_c, 1, 66, 127
1, 176516, Note_on_c, 1, 60, 127
1, 176671, Note_off_c, 1, 66, 0
1, 176671, Note_off_c, 1, 60, 0
1, 176673, Note_on_c, 1, 67, 127
1, 176673, Note_on_c, 1, 59, 127
1, 176828, Note_off_c, 1, 67, 0
1, 176828, Note_off_c, 1, 59, 0
1, 176831, Note_on_c, 1, 69, 127
1, 176831, Note_on_c, 1, 60, 127
1, 176986, Note_off_c, 1, 69, 0
1, 176986, Note_off_c, 1, 60, 0
1, 176988, Note_on_c, 1, 72, 127
1, 176988, Note_on_c, 1, 57, 127
1, 177143, Note_off_c, 1, 72, 0
1, 177143, Note_off_c, 1, 57, 0
1, 177145, Note_on_c, 1, 69, 127
1, 177145, Note_on_c, 1, 51, 127
1, 177300, Note_off_c, 1, 69, 0
1, 177302, Note_on_c, 1, 72, 127
1, 177457, Note_off_c, 1, 51, 0
1, 177457, Note_off_c, 1, 72, 0
1, 177459, Note_on_c, 1, 54, 127
1, 177459, Note_on_c, 1, 63, 127
1, 177536, Note_off_c, 1, 54, 0
1, 177539, Note_on_c, 1, 52, 127
1, 177616, Note_off_c, 1, 63, 0
1, 177616, Note_off_c, 1, 52, 0
1, 177618, Note_on_c, 1, 64, 127
1, 177618, Note_on_c, 1, 54, 127
1, 177773, Note_off_c, 1, 64, 0
1, 177775, Note_on_c, 1, 66, 127
1, 177930, Note_off_c, 1, 54, 0
1, 177930, Note_off_c, 1, 66, 0
1, 177932, Note_on_c, 1, 69, 127
1, 177932, Note_on_c, 1, 54, 127
1, 178087, Note_off_c, 1, 69, 0
1, 178087, Note_off_c, 1, 54, 0
1, 178089, Note_on_c, 1, 66, 127
1, 178089, Note_on_c, 1, 47, 127
1, 178244, Note_off_c, 1, 66, 0
1, 178246, Note_on_c, 1, 69, 127
1, 178401, Note_off_c, 1, 47, 0
1, 178401, Note_off_c, 1, 69, 0
1, 178404, Note_on_c, 1, 63, 127
1, 178404, Note_on_c, 1, 59, 127
1, 178559, Note_off_c, 1, 63, 0
1, 178559, Note_off_c, 1, 59, 0
1, 178561, Note_on_c, 1, 66, 127
1, 178561, Note_on_c, 1, 57, 127
1, 178716, Note_off_c, 1, 66, 0
1, 178716, Note_off_c, 1, 57, 0
1, 178718, Note_on_c, 1, 67, 127
1, 178718, Note_on_c, 1, 59, 127
1, 178873, Note_off_c, 1, 67, 0
1, 178873, Note_off_c, 1, 59, 0
1, 178875, Note_on_c, 1, 69, 127
1, 178875, Note_on_c, 1, 54, 127
1, 179030, Note_off_c, 1, 69, 0
1, 179030, Note_off_c, 1, 54, 0
1, 179032, Note_on_c, 1, 71, 127
1, 179032, Note_on_c, 1, 56, 127
1, 179187, Note_off_c, 1, 71, 0
1, 179189, Note_on_c, 1, 68, 127
1, 179343, Note_off_c, 1, 56, 0
1, 179344, Note_off_c, 1, 68, 0
1, 179346, Note_on_c, 1, 64, 127
1, 179501, Note_off_c, 1, 64, 0
1, 179504, Note_on_c, 1, 59, 127
1, 179504, Note_on_c, 1, 57, 127
1, 179659, Note_off_c, 1, 59, 0
1, 179659, Note_off_c, 1, 57, 0
1, 179661, Note_on_c, 1, 56, 127
1, 179661, Note_on_c, 1, 62, 127
1, 179816, Note_off_c, 1, 56, 0
1, 179818, Note_on_c, 1, 54, 127
1, 179973, Note_off_c, 1, 54, 0
1, 179975, Note_on_c, 1, 52, 127
1, 180087, Note_off_c, 1, 62, 0
1, 180130, Note_off_c, 1, 52, 0
1, 180132, Note_on_c, 1, 65, 127
1, 180132, Note_on_c, 1, 50, 127
1, 180287, Note_off_c, 1, 65, 0
1, 180287, Note_off_c, 1, 50, 0
1, 180289, Note_on_c, 1, 64, 127
1, 180289, Note_on_c, 1, 48, 127
1, 180444, Note_off_c, 1, 64, 0
1, 180444, Note_off_c, 1, 48, 0
1, 180446, Note_on_c, 1, 62, 127
1, 180446, Note_on_c, 1, 47, 127
1, 180601, Note_off_c, 1, 62, 0
1, 180601, Note_off_c, 1, 47, 0
1, 180604, Note_on_c, 1, 60, 127
1, 180604, Note_on_c, 1, 45, 127
1, 180759, Note_off_c, 1, 60, 0
1, 180759, Note_off_c, 1, 45, 0
1, 180761, Note_on_c, 1, 59, 127
1, 180761, Note_on_c, 1, 44, 127
1, 180916, Note_off_c, 1, 59, 0
1, 180916, Note_off_c, 1, 44, 0
1, 180918, Note_on_c, 1, 45, 127
1, 180918, Note_on_c, 1, 60, 127
1, 181073, Note_off_c, 1, 45, 0
1, 181075, Note_on_c, 1, 48, 127
1, 181230, Note_off_c, 1, 48, 0
1, 181232, Note_on_c, 1, 52, 127
1, 181311, Note_off_c, 1, 60, 0
1, 181389, Note_off_c, 1, 52, 0
1, 181391, Note_on_c, 1, 60, 127
1, 181391, Note_on_c, 1, 57, 127
1, 181546, Note_off_c, 1, 60, 0
1, 181546, Note_off_c, 1, 57, 0
1, 181548, Note_on_c, 1, 59, 127
1, 181548, Note_on_c, 1, 51, 127
1, 181703, Note_off_c, 1, 59, 0
1, 181705, Note_on_c, 1, 57, 127
1, 181860, Note_off_c, 1, 57, 0
1, 181862, Note_on_c, 1, 66, 127
1, 182017, Note_off_c, 1, 51, 0
1, 182019, Note_on_c, 1, 47, 127
1, 182174, Note_off_c, 1, 47, 0
1, 182177, Note_on_c, 1, 49, 127
1, 182255, Note_off_c, 1, 66, 0
1, 182334, Note_off_c, 1, 49, 0
1, 182335, Note_on_c, 1, 66, 127
1, 182335, Note_on_c, 1, 51, 127
1, 182490, Note_off_c, 1, 66, 0
1, 182490, Note_off_c, 1, 51, 0
1, 182493, Note_on_c, 1, 64, 127
1, 182493, Note_on_c, 1, 52, 127
1, 182648, Note_off_c, 1, 64, 0
1, 182648, Note_off_c, 1, 52, 0
1, 182650, Note_on_c, 1, 63, 127
1, 182650, Note_on_c, 1, 54, 127
1, 182805, Note_off_c, 1, 63, 0
1, 182805, Note_off_c, 1, 54, 0
1, 182807, Note_on_c, 1, 55, 127
1, 182807, Note_on_c, 1, 71, 127
1, 182962, Note_off_c, 1, 55, 0
1, 182964, Note_on_c, 1, 52, 127
1, 183119, Note_off_c, 1, 52, 0
1, 183121, Note_on_c, 1, 54, 127
1, 183200, Note_off_c, 1, 71, 0
1, 183278, Note_off_c, 1, 54, 0
1, 183280, Note_on_c, 1, 69, 127
1, 183280, Note_on_c, 1, 55, 127
1, 183435, Note_off_c, 1, 69, 0
1, 183435, Note_off_c, 1, 55, 0
1, 183437, Note_on_c, 1, 67, 127
1, 183437, Note_on_c, 1, 57, 127
1, 183592, Note_off_c, 1, 67, 0
1, 183592, Note_off_c, 1, 57, 0
1, 183594, Note_on_c, 1, 66, 127
1, 183594, Note_on_c, 1, 59, 127
1, 183749, Note_off_c, 1, 66, 0
1, 183749, Note_off_c, 1, 59, 0
1, 183751, Note_on_c, 1, 64, 127
1, 183751, Note_on_c, 1, 60, 127
1, 183906, Note_off_c, 1, 64, 0
1, 183908, Note_on_c, 1, 67, 127
1, 184063, Note_off_c, 1, 67, 0
1, 184066, Note_on_c, 1, 71, 127
1, 184209, Note_off_c, 1, 60, 0
1, 184221, Note_off_c, 1, 71, 0
1, 184223, Note_on_c, 1, 76, 127
1, 184223, Note_on_c, 1, 61, 127
1, 184378, Note_off_c, 1, 76, 0
1, 184378, Note_off_c, 1, 61, 0
1, 184380, Note_on_c, 1, 62, 127
1, 184380, Note_on_c, 1, 70, 127
1, 184535, Note_off_c, 1, 62, 0
1, 184537, Note_on_c, 1, 64, 127
1, 184692, Note_off_c, 1, 64, 0
1, 184694, Note_on_c, 1, 54, 127
1, 184849, Note_off_c, 1, 70, 0
1, 184851, Note_on_c, 1, 66, 127
1, 185006, Note_off_c, 1, 66, 0
1, 185008, Note_on_c, 1, 68, 127
1, 185163, Note_off_c, 1, 54, 0
1, 185163, Note_off_c, 1, 68, 0
1, 185166, Note_on_c, 1, 70, 127
1, 185166, Note_on_c, 1, 54, 127
1, 185321, Note_off_c, 1, 70, 0
1, 185321, Note_off_c, 1, 54, 0
1, 185323, Note_on_c, 1, 71, 127
1, 185323, Note_on_c, 1, 56, 127
1, 185478, Note_off_c, 1, 71, 0
1, 185478, Note_off_c, 1, 56, 0
1, 185480, Note_on_c, 1, 73, 127
1, 185480, Note_on_c, 1, 58, 127
1, 185635, Note_off_c, 1, 73, 0
1, 185635, Note_off_c, 1, 58, 0
1, 185637, Note_on_c, 1, 75, 127
1, 185637, Note_on_c, 1, 47, 127
1, 185792, Note_off_c, 1, 75, 0
1, 185794, Note_on_c, 1, 71, 127
1, 185949, Note_off_c, 1, 71, 0
1, 185951, Note_on_c, 1, 73, 127
1, 186106, Note_off_c, 1, 47, 0
1, 186106, Note_off_c, 1, 73, 0
1, 186108, Note_on_c, 1, 75, 127
1, 186108, Note_on_c, 1, 47, 127
1, 186263, Note_off_c, 1, 75, 0
1, 186263, Note_off_c, 1, 47, 0
1, 186265, Note_on_c, 1, 76, 127
1, 186265, Note_on_c, 1, 49, 127
1, 186420, Note_off_c, 1, 76, 0
1, 186420, Note_off_c, 1, 49, 0
1, 186423, Note_on_c, 1, 78, 127
1, 186423, Note_on_c, 1, 51, 127
1, 186578, Note_off_c, 1, 78, 0
1, 186578, Note_off_c, 1, 51, 0
1, 186580, Note_on_c, 1, 79, 127
1, 186580, Note_on_c, 1, 40, 127
1, 186735, Note_off_c, 1, 79, 0
1, 186737, Note_on_c, 1, 76, 127
1, 186892, Note_off_c, 1, 40, 0
1, 186892, Note_off_c, 1, 76, 0
1, 186894, Note_on_c, 1, 64, 127
1, 186894, Note_on_c, 1, 78, 127
1, 186971, Note_off_c, 1, 64, 0
1, 186973, Note_on_c, 1, 62, 127
1, 187050, Note_off_c, 1, 62, 0
1, 187051, Note_off_c, 1, 78, 0
1, 187053, Note_on_c, 1, 79, 127
1, 187053, Note_on_c, 1, 64, 127
1, 187208, Note_off_c, 1, 79, 0
1, 187210, Note_on_c, 1, 81, 127
1, 187365, Note_off_c, 1, 64, 0
1, 187365, Note_off_c, 1, 81, 0
1, 187367, Note_on_c, 1, 83, 127
1, 187367, Note_on_c, 1, 64, 127
1, 187522, Note_off_c, 1, 83, 0
1, 187522, Note_off_c, 1, 64, 0
1, 187524, Note_on_c, 1, 57, 127
1, 187524, Note_on_c, 1, 84, 127
1, 187681, Note_on_c, 1, 83, 127
1, 187836, Note_off_c, 1, 57, 0
1, 187836, Note_off_c, 1, 83, 0
1, 187839, Note_on_c, 1, 81, 127
1, 187839, Note_on_c, 1, 66, 127
1, 187994, Note_off_c, 1, 81, 0
1, 187994, Note_off_c, 1, 66, 0
1, 187996, Note_on_c, 1, 79, 127
1, 187996, Note_on_c, 1, 64, 127
1, 188151, Note_off_c, 1, 79, 0
1, 188151, Note_off_c, 1, 64, 0
1, 188310, Note_on_c, 1, 62, 127
1, 188310, Note_on_c, 1, 78, 127
1, 188465, Note_off_c, 1, 84, 0
1, 188465, Note_off_c, 1, 62, 0
1, 188467, Note_on_c, 1, 55, 127
1, 188779, Note_off_c, 1, 55, 0
1, 188781, Note_on_c, 1, 60, 127
1, 188858, Note_off_c, 1, 60, 0
1, 188861, Note_on_c, 1, 59, 127
1, 188933, Note_off_c, 1, 78, 0
1, 188938, Note_off_c, 1, 59, 0
1, 189097, Note_on_c, 1, 76, 127
1, 189412, Note_on_c, 1, 54, 127
1, 189555, Note_off_c, 1, 76, 0
1, 189724, Note_off_c, 1, 54, 0
1, 190197, Note_on_c, 1, 74, 127
1, 190354, Note_on_c, 1, 52, 127
1, 190666, Note_off_c, 1, 52, 0
1, 190820, Note_off_c, 1, 74, 0
1, 190985, Note_on_c, 1, 72, 127
1, 191299, Note_on_c, 1, 50, 127
1, 191443, Note_off_c, 1, 72, 0
1, 191611, Note_off_c, 1, 50, 0
1, 192085, Note_on_c, 1, 71, 127
1, 192242, Note_on_c, 1, 49, 127
1, 192554, Note_off_c, 1, 49, 0
1, 192556, Note_on_c, 1, 73, 127
1, 192708, Note_off_c, 1, 71, 0
1, 192872, Note_on_c, 1, 69, 127
1, 193016, Note_off_c, 1, 73, 0
1, 193186, Note_on_c, 1, 75, 127
1, 193186, Note_on_c, 1, 47, 127
1, 193330, Note_off_c, 1, 69, 0
1, 193497, Note_off_c, 1, 75, 0
1, 193498, Note_off_c, 1, 47, 0
1, 193500, Note_on_c, 1, 71, 127
1, 193500, Note_on_c, 1, 56, 127
1, 193500, Note_on_c, 1, 74, 127
1, 193655, Note_off_c, 1, 71, 0
1, 193655, Note_off_c, 1, 56, 0
1, 193658, Note_on_c, 1, 69, 127
1, 193658, Note_on_c, 1, 54, 127
1, 193813, Note_off_c, 1, 69, 0
1, 193813, Note_off_c, 1, 54, 0
1, 193972, Note_on_c, 1, 68, 127
1, 193972, Note_on_c, 1, 52, 127
1, 194127, Note_off_c, 1, 68, 0
1, 194127, Note_off_c, 1, 52, 0
1, 194129, Note_on_c, 1, 45, 127
1, 194129, Note_on_c, 1, 64, 127
1, 194285, Note_off_c, 1, 74, 0
1, 194443, Note_on_c, 1, 72, 127
1, 194598, Note_off_c, 1, 45, 0
1, 194598, Note_off_c, 1, 72, 0
1, 194600, Note_on_c, 1, 47, 127
1, 194755, Note_off_c, 1, 47, 0
1, 194758, Note_on_c, 1, 48, 127
1, 195227, Note_off_c, 1, 48, 0
1, 195229, Note_on_c, 1, 50, 127
1, 195384, Note_off_c, 1, 64, 0
1, 195384, Note_off_c, 1, 50, 0
1, 195386, Note_on_c, 1, 72, 127
1, 195386, Note_on_c, 1, 52, 127
1, 195386, Note_on_c, 1, 68, 127
1, 195463, Note_off_c, 1, 72, 0
1, 195465, Note_on_c, 1, 71, 127
1, 195542, Note_off_c, 1, 71, 0
1, 195543, Note_off_c, 1, 52, 0
1, 195545, Note_on_c, 1, 50, 127
1, 195702, Note_off_c, 1, 50, 0
1, 195849, Note_off_c, 1, 68, 0
1, 195862, Note_on_c, 1, 69, 127
1, 195862, Note_on_c, 1, 40, 127
1, 195939, Note_off_c, 1, 69, 0
1, 195942, Note_on_c, 1, 71, 127
1, 196019, Note_off_c, 1, 40, 0
1, 196019, Note_off_c, 1, 71, 0
1, 196021, Note_on_c, 1, 45, 127
1, 196021, Note_on_c, 1, 72, 127
1, 196178, Note_on_c, 1, 68, 127
1, 196333, Note_off_c, 1, 45, 0
1, 196333, Note_off_c, 1, 68, 0
1, 196335, Note_on_c, 1, 69, 127
1, 196335, Note_on_c, 1, 57, 127
1, 196490, Note_off_c, 1, 69, 0
1, 196493, Note_on_c, 1, 64, 127
1, 196643, Note_off_c, 1, 72, 0
1, 196648, Note_off_c, 1, 64, 0
1, 196650, Note_on_c, 1, 67, 127
1, 196804, Note_off_c, 1, 57, 0
1, 196807, Note_on_c, 1, 73, 127
1, 196807, Note_on_c, 1, 55, 127
1, 196961, Note_off_c, 1, 67, 0
1, 196962, Note_off_c, 1, 73, 0
1, 196962, Note_off_c, 1, 55, 0
1, 196964, Note_on_c, 1, 74, 127
1, 196964, Note_on_c, 1, 54, 127
1, 197119, Note_off_c, 1, 74, 0
1, 197119, Note_off_c, 1, 54, 0
1, 197121, Note_on_c, 1, 76, 127
1, 197121, Note_on_c, 1, 55, 127
1, 197276, Note_off_c, 1, 76, 0
1, 197276, Note_off_c, 1, 55, 0
1, 197278, Note_on_c, 1, 78, 127
1, 197278, Note_on_c, 1, 57, 127
1, 197278, Note_on_c, 1, 73, 127
1, 197355, Note_off_c, 1, 78, 0
1, 197358, Note_on_c, 1, 76, 127
1, 197435, Note_off_c, 1, 57, 0
1, 197435, Note_off_c, 1, 76, 0
1, 197437, Note_on_c, 1, 55, 127
1, 197594, Note_off_c, 1, 55, 0
1, 197755, Note_on_c, 1, 74, 127
1, 197755, Note_on_c, 1, 45, 127
1, 197832, Note_off_c, 1, 74, 0
1, 197906, Note_off_c, 1, 73, 0
1, 197912, Note_off_c, 1, 45, 0
1, 197913, Note_on_c, 1, 50, 127
1, 197913, Note_on_c, 1, 78, 127
1, 198070, Note_on_c, 1, 73, 127
1, 198225, Note_off_c, 1, 50, 0
1, 198225, Note_off_c, 1, 73, 0
1, 198228, Note_on_c, 1, 74, 127
1, 198228, Note_on_c, 1, 62, 127
1, 198383, Note_off_c, 1, 74, 0
1, 198385, Note_on_c, 1, 69, 127
1, 198535, Note_off_c, 1, 78, 0
1, 198540, Note_off_c, 1, 69, 0
1, 198542, Note_on_c, 1, 72, 127
1, 198697, Note_off_c, 1, 62, 0
1, 198699, Note_on_c, 1, 60, 127
1, 198853, Note_off_c, 1, 72, 0
1, 198854, Note_off_c, 1, 60, 0
1, 198856, Note_on_c, 1, 79, 127
1, 198856, Note_on_c, 1, 59, 127
1, 199011, Note_off_c, 1, 79, 0
1, 199011, Note_off_c, 1, 59, 0
1, 199013, Note_on_c, 1, 81, 127
1, 199013, Note_on_c, 1, 60, 127
1, 199168, Note_off_c, 1, 81, 0
1, 199168, Note_off_c, 1, 60, 0
1, 199170, Note_on_c, 1, 83, 127
1, 199170, Note_on_c, 1, 62, 127
1, 199170, Note_on_c, 1, 78, 127
1, 199247, Note_off_c, 1, 83, 0
1, 199250, Note_on_c, 1, 81, 127
1, 199327, Note_off_c, 1, 62, 0
1, 199327, Note_off_c, 1, 81, 0
1, 199329, Note_on_c, 1, 60, 127
1, 199486, Note_off_c, 1, 60, 0
1, 199647, Note_on_c, 1, 79, 127
1, 199647, Note_on_c, 1, 50, 127
1, 199724, Note_off_c, 1, 79, 0
1, 199798, Note_off_c, 1, 78, 0
1, 199804, Note_off_c, 1, 50, 0
1, 199805, Note_on_c, 1, 55, 127
1, 199805, Note_on_c, 1, 83, 127
1, 199960, Note_off_c, 1, 55, 0
1, 199963, Note_on_c, 1, 78, 127
1, 199963, Note_on_c, 1, 57, 127
1, 200116, Note_off_c, 1, 83, 0
1, 200118, Note_off_c, 1, 78, 0
1, 200118, Note_off_c, 1, 57, 0
1, 200120, Note_on_c, 1, 59, 127
1, 200120, Note_on_c, 1, 79, 127
1, 200275, Note_off_c, 1, 59, 0
1, 200277, Note_on_c, 1, 75, 127
1, 200277, Note_on_c, 1, 54, 127
1, 200432, Note_off_c, 1, 75, 0
1, 200432, Note_off_c, 1, 54, 0
1, 200434, Note_on_c, 1, 76, 127
1, 200434, Note_on_c, 1, 55, 127
1, 200578, Note_off_c, 1, 79, 0
1, 200589, Note_off_c, 1, 76, 0
1, 200589, Note_off_c, 1, 55, 0
1, 200591, Note_on_c, 1, 79, 127
1, 200591, Note_on_c, 1, 52, 127
1, 200746, Note_off_c, 1, 79, 0
1, 200746, Note_off_c, 1, 52, 0
1, 200748, Note_on_c, 1, 69, 127
1, 200748, Note_on_c, 1, 60, 127
1, 200905, Note_on_c, 1, 72, 127
1, 201060, Note_off_c, 1, 72, 0
1, 201063, Note_on_c, 1, 75, 127
1, 201206, Note_off_c, 1, 69, 0
1, 201217, Note_off_c, 1, 60, 0
1, 201218, Note_off_c, 1, 75, 0
1, 201220, Note_on_c, 1, 76, 127
1, 201220, Note_on_c, 1, 60, 127
1, 201375, Note_off_c, 1, 76, 0
1, 201375, Note_off_c, 1, 60, 0
1, 201377, Note_on_c, 1, 78, 127
1, 201377, Note_on_c, 1, 57, 127
1, 201532, Note_off_c, 1, 78, 0
1, 201532, Note_off_c, 1, 57, 0
1, 201534, Note_on_c, 1, 79, 127
1, 201534, Note_on_c, 1, 54, 127
1, 201689, Note_off_c, 1, 79, 0
1, 201689, Note_off_c, 1, 54, 0
1, 201691, Note_on_c, 1, 51, 127
1, 201691, Note_on_c, 1, 81, 127
1, 201846, Note_off_c, 1, 51, 0
1, 201848, Note_on_c, 1, 54, 127
1, 202003, Note_off_c, 1, 54, 0
1, 202005, Note_on_c, 1, 59, 127
1, 202005, Note_on_c, 1, 71, 127
1, 202160, Note_off_c, 1, 59, 0
1, 202313, Note_off_c, 1, 81, 0
1, 202320, Note_on_c, 1, 52, 127
1, 202475, Note_off_c, 1, 52, 0
1, 202627, Note_off_c, 1, 71, 0
1, 202634, Note_on_c, 1, 52, 127
1, 202634, Note_on_c, 1, 79, 127
1, 202789, Note_off_c, 1, 52, 0
1, 202791, Note_on_c, 1, 55, 127
1, 202946, Note_off_c, 1, 55, 0
1, 202948, Note_on_c, 1, 61, 127
1, 202948, Note_on_c, 1, 71, 127
1, 203103, Note_off_c, 1, 61, 0
1, 203256, Note_off_c, 1, 79, 0
1, 203263, Note_on_c, 1, 54, 127
1, 203418, Note_off_c, 1, 54, 0
1, 203570, Note_off_c, 1, 71, 0
1, 203577, Note_on_c, 1, 54, 127
1, 203577, Note_on_c, 1, 78, 127
1, 203732, Note_off_c, 1, 54, 0
1, 203734, Note_on_c, 1, 57, 127
1, 203889, Note_off_c, 1, 57, 0
1, 203891, Note_on_c, 1, 63, 127
1, 203891, Note_on_c, 1, 69, 127
1, 204046, Note_off_c, 1, 63, 0
1, 204199, Note_off_c, 1, 78, 0
1, 204205, Note_on_c, 1, 55, 127
1, 204349, Note_off_c, 1, 69, 0
1, 204360, Note_off_c, 1, 55, 0
1, 204520, Note_on_c, 1, 55, 127
1, 204520, Note_on_c, 1, 76, 127
1, 204675, Note_off_c, 1, 55, 0
1, 204677, Note_on_c, 1, 59, 127
1, 204832, Note_off_c, 1, 59, 0
1, 204834, Note_on_c, 1, 64, 127
1, 204834, Note_on_c, 1, 67, 127
1, 204978, Note_off_c, 1, 76, 0
1, 204989, Note_off_c, 1, 64, 0
1, 204991, Note_on_c, 1, 62, 127
1, 205146, Note_off_c, 1, 67, 0
1, 205146, Note_off_c, 1, 62, 0
1, 205148, Note_on_c, 1, 61, 127
1, 205148, Note_on_c, 1, 76, 127
1, 205303, Note_off_c, 1, 61, 0
1, 205305, Note_on_c, 1, 59, 127
1, 205460, Note_off_c, 1, 76, 0
1, 205460, Note_off_c, 1, 59, 0
1, 205462, Note_on_c, 1, 66, 127
1, 205462, Note_on_c, 1, 58, 127
1, 205617, Note_off_c, 1, 66, 0
1, 205617, Note_off_c, 1, 58, 0
1, 205620, Note_on_c, 1, 70, 127
1, 205620, Note_on_c, 1, 61, 127
1, 205775, Note_off_c, 1, 70, 0
1, 205775, Note_off_c, 1, 61, 0
1, 205777, Note_on_c, 1, 73, 127
1, 205777, Note_on_c, 1, 64, 127
1, 205932, Note_off_c, 1, 73, 0
1, 205932, Note_off_c, 1, 64, 0
1, 205934, Note_on_c, 1, 76, 127
1, 205934, Note_on_c, 1, 67, 127
1, 206089, Note_off_c, 1, 76, 0
1, 206089, Note_off_c, 1, 67, 0
1, 206091, Note_on_c, 1, 75, 127
1, 206091, Note_on_c, 1, 66, 127
1, 206246, Note_off_c, 1, 75, 0
1, 206246, Note_off_c, 1, 66, 0
1, 206248, Note_on_c, 1, 73, 127
1, 206248, Note_on_c, 1, 64, 127
1, 206403, Note_off_c, 1, 73, 0
1, 206403, Note_off_c, 1, 64, 0
1, 206405, Note_on_c, 1, 71, 127
1, 206405, Note_on_c, 1, 63, 127
1, 206560, Note_off_c, 1, 71, 0
1, 206560, Note_off_c, 1, 63, 0
1, 206562, Note_on_c, 1, 75, 127
1, 206562, Note_on_c, 1, 66, 127
1, 206717, Note_off_c, 1, 75, 0
1, 206717, Note_off_c, 1, 66, 0
1, 206720, Note_on_c, 1, 78, 127
1, 206720, Note_on_c, 1, 69, 127
1, 206875, Note_off_c, 1, 78, 0
1, 206875, Note_off_c, 1, 69, 0
1, 206877, Note_on_c, 1, 81, 127
1, 206877, Note_on_c, 1, 72, 127
1, 207032, Note_off_c, 1, 81, 0
1, 207032, Note_off_c, 1, 72, 0
1, 207034, Note_on_c, 1, 79, 127
1, 207034, Note_on_c, 1, 71, 127
1, 207189, Note_off_c, 1, 79, 0
1, 207189, Note_off_c, 1, 71, 0
1, 207191, Note_on_c, 1, 78, 127
1, 207191, Note_on_c, 1, 69, 127
1, 207346, Note_off_c, 1, 78, 0
1, 207346, Note_off_c, 1, 69, 0
1, 207348, Note_on_c, 1, 83, 127
1, 207348, Note_on_c, 1, 67, 127
1, 207503, Note_off_c, 1, 83, 0
1, 207503, Note_off_c, 1, 67, 0
1, 207505, Note_on_c, 1, 81, 127
1, 207505, Note_on_c, 1, 66, 127
1, 207660, Note_off_c, 1, 81, 0
1, 207660, Note_off_c, 1, 66, 0
1, 207662, Note_on_c, 1, 79, 127
1, 207662, Note_on_c, 1, 64, 127
1, 207817, Note_off_c, 1, 79, 0
1, 207817, Note_off_c, 1, 64, 0
1, 207820, Note_on_c, 1, 78, 127
1, 207820, Note_on_c, 1, 62, 127
1, 207975, Note_off_c, 1, 78, 0
1, 207975, Note_off_c, 1, 62, 0
1, 207977, Note_on_c, 1, 76, 127
1, 207977, Note_on_c, 1, 60, 127
1, 208132, Note_off_c, 1, 76, 0
1, 208132, Note_off_c, 1, 60, 0
1, 208134, Note_on_c, 1, 74, 127
1, 208134, Note_on_c, 1, 59, 127
1, 208289, Note_off_c, 1, 74, 0
1, 208289, Note_off_c, 1, 59, 0
1, 208291, Note_on_c, 1, 72, 127
1, 208291, Note_on_c, 1, 57, 127
1, 208446, Note_off_c, 1, 72, 0
1, 208446, Note_off_c, 1, 57, 0
1, 208448, Note_on_c, 1, 71, 127
1, 208448, Note_on_c, 1, 55, 127
1, 208603, Note_off_c, 1, 71, 0
1, 208603, Note_off_c, 1, 55, 0
1, 208605, Note_on_c, 1, 69, 127
1, 208605, Note_on_c, 1, 54, 127
1, 208760, Note_off_c, 1, 69, 0
1, 208760, Note_off_c, 1, 54, 0
1, 208762, Note_on_c, 1, 67, 127
1, 208762, Note_on_c, 1, 52, 127
1, 208917, Note_off_c, 1, 67, 0
1, 208917, Note_off_c, 1, 52, 0
1, 208920, Note_on_c, 1, 66, 127
1, 208920, Note_on_c, 1, 51, 127
1, 209075, Note_off_c, 1, 66, 0
1, 209075, Note_off_c, 1, 51, 0
1, 209077, Note_on_c, 1, 64, 127
1, 209077, Note_on_c, 1, 49, 127
1, 209232, Note_off_c, 1, 64, 0
1, 209232, Note_off_c, 1, 49, 0
1, 209234, Note_on_c, 1, 63, 127
1, 209234, Note_on_c, 1, 47, 127
1, 209391, Note_on_c, 1, 66, 127
1, 209545, Note_off_c, 1, 63, 0
1, 209546, Note_off_c, 1, 47, 0
1, 209546, Note_off_c, 1, 66, 0
1, 209548, Note_on_c, 1, 59, 127
1, 209548, Note_on_c, 1, 51, 127
1, 209703, Note_off_c, 1, 59, 0
1, 209705, Note_on_c, 1, 61, 127
1, 209860, Note_off_c, 1, 51, 0
1, 209860, Note_off_c, 1, 61, 0
1, 209862, Note_on_c, 1, 63, 127
1, 209862, Note_on_c, 1, 54, 127
1, 210017, Note_off_c, 1, 63, 0
1, 210020, Note_on_c, 1, 66, 127
1, 210174, Note_off_c, 1, 54, 0
1, 210175, Note_off_c, 1, 66, 0
1, 210177, Note_on_c, 1, 63, 127
1, 210177, Note_on_c, 1, 57, 127
1, 210334, Note_on_c, 1, 66, 127
1, 210488, Note_off_c, 1, 63, 0
1, 210489, Note_off_c, 1, 57, 0
1, 210489, Note_off_c, 1, 66, 0
1, 210491, Note_on_c, 1, 59, 127
1, 210491, Note_on_c, 1, 54, 127
1, 210646, Note_off_c, 1, 59, 0
1, 210648, Note_on_c, 1, 61, 127
1, 210803, Note_off_c, 1, 54, 0
1, 210803, Note_off_c, 1, 61, 0
1, 210805, Note_on_c, 1, 63, 127
1, 210805, Note_on_c, 1, 51, 127
1, 210960, Note_off_c, 1, 63, 0
1, 210962, Note_on_c, 1, 66, 127
1, 211117, Note_off_c, 1, 51, 0
1, 211117, Note_off_c, 1, 66, 0
1, 211120, Note_on_c, 1, 64, 127
1, 211120, Note_on_c, 1, 47, 127
1, 211277, Note_on_c, 1, 67, 127
1, 211431, Note_off_c, 1, 64, 0
1, 211432, Note_off_c, 1, 47, 0
1, 211432, Note_off_c, 1, 67, 0
1, 211434, Note_on_c, 1, 59, 127
1, 211434, Note_on_c, 1, 52, 127
1, 211589, Note_off_c, 1, 59, 0
1, 211591, Note_on_c, 1, 63, 127
1, 211746, Note_off_c, 1, 52, 0
1, 211746, Note_off_c, 1, 63, 0
1, 211748, Note_on_c, 1, 64, 127
1, 211748, Note_on_c, 1, 55, 127
1, 211903, Note_off_c, 1, 64, 0
1, 211905, Note_on_c, 1, 67, 127
1, 212060, Note_off_c, 1, 55, 0
1, 212060, Note_off_c, 1, 67, 0
1, 212062, Note_on_c, 1, 64, 127
1, 212062, Note_on_c, 1, 59, 127
1, 212220, Note_on_c, 1, 67, 127
1, 212373, Note_off_c, 1, 64, 0
1, 212374, Note_off_c, 1, 59, 0
1, 212375, Note_off_c, 1, 67, 0
1, 212377, Note_on_c, 1, 59, 127
1, 212377, Note_on_c, 1, 55, 127
1, 212532, Note_off_c, 1, 59, 0
1, 212534, Note_on_c, 1, 63, 127
1, 212689, Note_off_c, 1, 55, 0
1, 212689, Note_off_c, 1, 63, 0
1, 212691, Note_on_c, 1, 64, 127
1, 212691, Note_on_c, 1, 52, 127
1, 212846, Note_off_c, 1, 64, 0
1, 212848, Note_on_c, 1, 67, 127
1, 213003, Note_off_c, 1, 52, 0
1, 213003, Note_off_c, 1, 67, 0
1, 213005, Note_on_c, 1, 66, 127
1, 213005, Note_on_c, 1, 57, 127
1, 213162, Note_on_c, 1, 69, 127
1, 213316, Note_off_c, 1, 66, 0
1, 213317, Note_off_c, 1, 57, 0
1, 213317, Note_off_c, 1, 69, 0
1, 213319, Note_on_c, 1, 63, 127
1, 213319, Note_on_c, 1, 54, 127
1, 213474, Note_off_c, 1, 63, 0
1, 213477, Note_on_c, 1, 64, 127
1, 213631, Note_off_c, 1, 54, 0
1, 213632, Note_off_c, 1, 64, 0
1, 213634, Note_on_c, 1, 66, 127
1, 213634, Note_on_c, 1, 51, 127
1, 213789, Note_off_c, 1, 66, 0
1, 213791, Note_on_c, 1, 69, 127
1, 213946, Note_off_c, 1, 51, 0
1, 213946, Note_off_c, 1, 69, 0
1, 213948, Note_on_c, 1, 66, 127
1, 213948, Note_on_c, 1, 47, 127
1, 214105, Note_on_c, 1, 69, 127
1, 214259, Note_off_c, 1, 66, 0
1, 214260, Note_off_c, 1, 47, 0
1, 214260, Note_off_c, 1, 69, 0
1, 214262, Note_on_c, 1, 63, 127
1, 214262, Note_on_c, 1, 57, 127
1, 214417, Note_off_c, 1, 63, 0
1, 214419, Note_on_c, 1, 64, 127
1, 214574, Note_off_c, 1, 57, 0
1, 214574, Note_off_c, 1, 64, 0
1, 214577, Note_on_c, 1, 66, 127
1, 214577, Note_on_c, 1, 54, 127
1, 214732, Note_off_c, 1, 66, 0
1, 214734, Note_on_c, 1, 69, 127
1, 214889, Note_off_c, 1, 54, 0
1, 214889, Note_off_c, 1, 69, 0
1, 214891, Note_on_c, 1, 67, 127
1, 214891, Note_on_c, 1, 59, 127
1, 215048, Note_on_c, 1, 71, 127
1, 215202, Note_off_c, 1, 67, 0
1, 215203, Note_off_c, 1, 59, 0
1, 215203, Note_off_c, 1, 71, 0
1, 215205, Note_on_c, 1, 64, 127
1, 215205, Note_on_c, 1, 55, 127
1, 215360, Note_off_c, 1, 64, 0
1, 215362, Note_on_c, 1, 66, 127
1, 215517, Note_off_c, 1, 55, 0
1, 215517, Note_off_c, 1, 66, 0
1, 215519, Note_on_c, 1, 67, 127
1, 215519, Note_on_c, 1, 52, 127
1, 215674, Note_off_c, 1, 67, 0
1, 215677, Note_on_c, 1, 71, 127
1, 215831, Note_off_c, 1, 52, 0
1, 215832, Note_off_c, 1, 71, 0
1, 215834, Note_on_c, 1, 67, 127
1, 215834, Note_on_c, 1, 47, 127
1, 215991, Note_on_c, 1, 71, 127
1, 216145, Note_off_c, 1, 67, 0
1, 216146, Note_off_c, 1, 47, 0
1, 216146, Note_off_c, 1, 71, 0
1, 216148, Note_on_c, 1, 64, 127
1, 216148, Note_on_c, 1, 55, 127
1, 216303, Note_off_c, 1, 64, 0
1, 216305, Note_on_c, 1, 66, 127
1, 216460, Note_off_c, 1, 55, 0
1, 216460, Note_off_c, 1, 66, 0
1, 216462, Note_on_c, 1, 67, 127
1, 216462, Note_on_c, 1, 52, 127
1, 216617, Note_off_c, 1, 67, 0
1, 216619, Note_on_c, 1, 71, 127
1, 216774, Note_off_c, 1, 52, 0
1, 216774, Note_off_c, 1, 71, 0
1, 216777, Note_on_c, 1, 67, 127
1, 216777, Note_on_c, 1, 58, 127
1, 216932, Note_off_c, 1, 67, 0
1, 216932, Note_off_c, 1, 58, 0
1, 216934, Note_on_c, 1, 70, 127
1, 216934, Note_on_c, 1, 52, 127
1, 217089, Note_off_c, 1, 70, 0
1, 217089, Note_off_c, 1, 52, 0
1, 217091, Note_on_c, 1, 64, 127
1, 217091, Note_on_c, 1, 55, 127
1, 217246, Note_off_c, 1, 64, 0
1, 217246, Note_off_c, 1, 55, 0
1, 217248, Note_on_c, 1, 66, 127
1, 217248, Note_on_c, 1, 54, 127
1, 217403, Note_off_c, 1, 66, 0
1, 217403, Note_off_c, 1, 54, 0
1, 217405, Note_on_c, 1, 67, 127
1, 217405, Note_on_c, 1, 52, 127
1, 217560, Note_off_c, 1, 67, 0
1, 217560, Note_off_c, 1, 52, 0
1, 217562, Note_on_c, 1, 70, 127
1, 217562, Note_on_c, 1, 50, 127
1, 217717, Note_off_c, 1, 70, 0
1, 217717, Note_off_c, 1, 50, 0
1, 217719, Note_on_c, 1, 67, 127
1, 217719, Note_on_c, 1, 49, 127
1, 217874, Note_off_c, 1, 67, 0
1, 217874, Note_off_c, 1, 49, 0
1, 217877, Note_on_c, 1, 70, 127
1, 217877, Note_on_c, 1, 55, 127
1, 218032, Note_off_c, 1, 70, 0
1, 218032, Note_off_c, 1, 55, 0
1, 218034, Note_on_c, 1, 64, 127
1, 218034, Note_on_c, 1, 54, 127
1, 218189, Note_off_c, 1, 64, 0
1, 218189, Note_off_c, 1, 54, 0
1, 218191, Note_on_c, 1, 66, 127
1, 218191, Note_on_c, 1, 52, 127
1, 218346, Note_off_c, 1, 66, 0
1, 218346, Note_off_c, 1, 52, 0
1, 218348, Note_on_c, 1, 67, 127
1, 218348, Note_on_c, 1, 51, 127
1, 218503, Note_off_c, 1, 67, 0
1, 218503, Note_off_c, 1, 51, 0
1, 218505, Note_on_c, 1, 70, 127
1, 218505, Note_on_c, 1, 49, 127
1, 218660, Note_off_c, 1, 70, 0
1, 218660, Note_off_c, 1, 49, 0
1, 218662, Note_on_c, 1, 51, 127
1, 218662, Note_on_c, 1, 71, 127
1, 218817, Note_off_c, 1, 51, 0
1, 218819, Note_on_c, 1, 54, 127
1, 218974, Note_off_c, 1, 71, 0
1, 218974, Note_off_c, 1, 54, 0
1, 218977, Note_on_c, 1, 57, 127
1, 218977, Note_on_c, 1, 71, 127
1, 218977, Note_on_c, 1, 63, 127
1, 218977, Note_on_c, 1, 66, 127
1, 219132, Note_off_c, 1, 57, 0
1, 219134, Note_on_c, 1, 60, 127
1, 219289, Note_off_c, 1, 60, 0
1, 219291, Note_on_c, 1, 59, 127
1, 219446, Note_off_c, 1, 71, 0
1, 219446, Note_off_c, 1, 63, 0
1, 219446, Note_off_c, 1, 66, 0
1, 219446, Note_off_c, 1, 59, 0
1, 219448, Note_on_c, 1, 71, 127
1, 219448, Note_on_c, 1, 63, 127
1, 219448, Note_on_c, 1, 66, 127
1, 219448, Note_on_c, 1, 57, 127
1, 219603, Note_off_c, 1, 71, 0
1, 219603, Note_off_c, 1, 63, 0
1, 219603, Note_off_c, 1, 66, 0
1, 219603, Note_off_c, 1, 57, 0
1, 219605, Note_on_c, 1, 55, 127
1, 219605, Note_on_c, 1, 64, 127
1, 219760, Note_off_c, 1, 55, 0
1, 219762, Note_on_c, 1, 59, 127
1, 219917, Note_off_c, 1, 64, 0
1, 219917, Note_off_c, 1, 59, 0
1, 219919, Note_on_c, 1, 72, 127
1, 219919, Note_on_c, 1, 57, 127
1, 220074, Note_off_c, 1, 72, 0
1, 220074, Note_off_c, 1, 57, 0
1, 220077, Note_on_c, 1, 71, 127
1, 220077, Note_on_c, 1, 55, 127
1, 220232, Note_off_c, 1, 71, 0
1, 220232, Note_off_c, 1, 55, 0
1, 220234, Note_on_c, 1, 72, 127
1, 220234, Note_on_c, 1, 54, 127
1, 220389, Note_off_c, 1, 72, 0
1, 220389, Note_off_c, 1, 54, 0
1, 220391, Note_on_c, 1, 69, 127
1, 220391, Note_on_c, 1, 52, 127
1, 220546, Note_off_c, 1, 69, 0
1, 220546, Note_off_c, 1, 52, 0
1, 220548, Note_on_c, 1, 60, 127
1, 220548, Note_on_c, 1, 63, 127
1, 220703, Note_off_c, 1, 60, 0
1, 220705, Note_on_c, 1, 59, 127
1, 220860, Note_off_c, 1, 63, 0
1, 220860, Note_off_c, 1, 59, 0
1, 220862, Note_on_c, 1, 57, 127
1, 220862, Note_on_c, 1, 66, 127
1, 221017, Note_off_c, 1, 57, 0
1, 221019, Note_on_c, 1, 55, 127
1, 221174, Note_off_c, 1, 55, 0
1, 221176, Note_on_c, 1, 54, 127
1, 221331, Note_off_c, 1, 66, 0
1, 221331, Note_off_c, 1, 54, 0
1, 221334, Note_on_c, 1, 66, 127
1, 221334, Note_on_c, 1, 52, 127
1, 221489, Note_off_c, 1, 66, 0
1, 221489, Note_off_c, 1, 52, 0
1, 221491, Note_on_c, 1, 51, 127
1, 221491, Note_on_c, 1, 59, 127
1, 221646, Note_off_c, 1, 51, 0
1, 221648, Note_on_c, 1, 49, 127
1, 221803, Note_off_c, 1, 59, 0
1, 221803, Note_off_c, 1, 49, 0
1, 221805, Note_on_c, 1, 71, 127
1, 221805, Note_on_c, 1, 47, 127
1, 221960, Note_off_c, 1, 71, 0
1, 221962, Note_on_c, 1, 69, 127
1, 222117, Note_off_c, 1, 69, 0
1, 222263, Note_off_c, 1, 47, 0
1, 222276, Note_on_c, 1, 66, 127
1, 222431, Note_off_c, 1, 66, 0
1, 222434, Note_on_c, 1, 67, 127
1, 222589, Note_off_c, 1, 67, 0
1, 222591, Note_on_c, 1, 66, 127
1, 222746, Note_off_c, 1, 66, 0
1, 222748, Note_on_c, 1, 67, 127
1, 222748, Note_on_c, 1, 76, 127
1, 222903, Note_off_c, 1, 67, 0
1, 222905, Note_on_c, 1, 69, 127
1, 223060, Note_off_c, 1, 69, 0
1, 223217, Note_off_c, 1, 76, 0
1, 223219, Note_on_c, 1, 76, 127
1, 223219, Note_on_c, 1, 66, 127
1, 223374, Note_off_c, 1, 76, 0
1, 223374, Note_off_c, 1, 66, 0
1, 223376, Note_on_c, 1, 64, 127
1, 223376, Note_on_c, 1, 71, 127
1, 223531, Note_off_c, 1, 64, 0
1, 223534, Note_on_c, 1, 62, 127
1, 223688, Note_off_c, 1, 71, 0
1, 223689, Note_off_c, 1, 62, 0
1, 223691, Note_on_c, 1, 79, 127
1, 223691, Note_on_c, 1, 64, 127
1, 223846, Note_off_c, 1, 79, 0
1, 223846, Note_off_c, 1, 64, 0
1, 223848, Note_on_c, 1, 78, 127
1, 223848, Note_on_c, 1, 66, 127
1, 224003, Note_off_c, 1, 78, 0
1, 224003, Note_off_c, 1, 66, 0
1, 224005, Note_on_c, 1, 79, 127
1, 224005, Note_on_c, 1, 64, 127
1, 224160, Note_off_c, 1, 79, 0
1, 224160, Note_off_c, 1, 64, 0
1, 224162, Note_on_c, 1, 76, 127
1, 224162, Note_on_c, 1, 62, 127
1, 224317, Note_off_c, 1, 76, 0
1, 224317, Note_off_c, 1, 62, 0
1, 224319, Note_on_c, 1, 61, 127
1, 224319, Note_on_c, 1, 70, 127
1, 224474, Note_off_c, 1, 61, 0
1, 224476, Note_on_c, 1, 59, 127
1, 224631, Note_off_c, 1, 70, 0
1, 224631, Note_off_c, 1, 59, 0
1, 224634, Note_on_c, 1, 61, 127
1, 224634, Note_on_c, 1, 73, 127
1, 224789, Note_off_c, 1, 61, 0
1, 224791, Note_on_c, 1, 62, 127
1, 224946, Note_off_c, 1, 62, 0
1, 225103, Note_off_c, 1, 73, 0
1, 225105, Note_on_c, 1, 73, 127
1, 225105, Note_on_c, 1, 59, 127
1, 225260, Note_off_c, 1, 73, 0
1, 225260, Note_off_c, 1, 59, 0
1, 225262, Note_on_c, 1, 58, 127
1, 225262, Note_on_c, 1, 66, 127
1, 225417, Note_off_c, 1, 58, 0
1, 225419, Note_on_c, 1, 56, 127
1, 225574, Note_off_c, 1, 66, 0
1, 225574, Note_off_c, 1, 56, 0
1, 225576, Note_on_c, 1, 78, 127
1, 225576, Note_on_c, 1, 58, 127
1, 225731, Note_off_c, 1, 78, 0
1, 225731, Note_off_c, 1, 58, 0
1, 225734, Note_on_c, 1, 76, 127
1, 225734, Note_on_c, 1, 59, 127
1, 225889, Note_off_c, 1, 76, 0
1, 225889, Note_off_c, 1, 59, 0
1, 225891, Note_on_c, 1, 78, 127
1, 225891, Note_on_c, 1, 56, 127
1, 226046, Note_off_c, 1, 78, 0
1, 226046, Note_off_c, 1, 56, 0
1, 226048, Note_on_c, 1, 73, 127
1, 226048, Note_on_c, 1, 58, 127
1, 226203, Note_off_c, 1, 73, 0
1, 226203, Note_off_c, 1, 58, 0
1, 226205, Note_on_c, 1, 74, 127
1, 226205, Note_on_c, 1, 59, 127
1, 226360, Note_off_c, 1, 74, 0
1, 226362, Note_on_c, 1, 73, 127
1, 226517, Note_off_c, 1, 59, 0
1, 226517, Note_off_c, 1, 73, 0
1, 226519, Note_on_c, 1, 74, 127
1, 226519, Note_on_c, 1, 71, 127
1, 226674, Note_off_c, 1, 74, 0
1, 226676, Note_on_c, 1, 76, 127
1, 226831, Note_off_c, 1, 76, 0
1, 226988, Note_off_c, 1, 71, 0
1, 226991, Note_on_c, 1, 72, 127
1, 226991, Note_on_c, 1, 69, 127
1, 227146, Note_off_c, 1, 72, 0
1, 227146, Note_off_c, 1, 69, 0
1, 227148, Note_on_c, 1, 67, 127
1, 227148, Note_on_c, 1, 71, 127
1, 227303, Note_off_c, 1, 67, 0
1, 227305, Note_on_c, 1, 66, 127
1, 227460, Note_off_c, 1, 71, 0
1, 227460, Note_off_c, 1, 66, 0
1, 227462, Note_on_c, 1, 67, 127
1, 227462, Note_on_c, 1, 76, 127
1, 227617, Note_off_c, 1, 67, 0
1, 227619, Note_on_c, 1, 69, 127
1, 227774, Note_off_c, 1, 69, 0
1, 227931, Note_off_c, 1, 76, 0
1, 227934, Note_on_c, 1, 74, 127
1, 227934, Note_on_c, 1, 66, 127
1, 228089, Note_off_c, 1, 74, 0
1, 228089, Note_off_c, 1, 66, 0
1, 228091, Note_on_c, 1, 72, 127
1, 228091, Note_on_c, 1, 64, 127
1, 228246, Note_off_c, 1, 72, 0
1, 228248, Note_on_c, 1, 71, 127
1, 228403, Note_off_c, 1, 64, 0
1, 228403, Note_off_c, 1, 71, 0
1, 228405, Note_on_c, 1, 72, 127
1, 228405, Note_on_c, 1, 69, 127
1, 228560, Note_off_c, 1, 72, 0
1, 228562, Note_on_c, 1, 74, 127
1, 228717, Note_off_c, 1, 74, 0
1, 228874, Note_off_c, 1, 69, 0
1, 228876, Note_on_c, 1, 71, 127
1, 228876, Note_on_c, 1, 67, 127
1, 229031, Note_off_c, 1, 71, 0
1, 229031, Note_off_c, 1, 67, 0
1, 229033, Note_on_c, 1, 66, 127
1, 229033, Note_on_c, 1, 69, 127
1, 229188, Note_off_c, 1, 66, 0
1, 229191, Note_on_c, 1, 64, 127
1, 229345, Note_off_c, 1, 69, 0
1, 229346, Note_off_c, 1, 64, 0
1, 229348, Note_on_c, 1, 66, 127
1, 229348, Note_on_c, 1, 81, 127
1, 229503, Note_off_c, 1, 66, 0
1, 229505, Note_on_c, 1, 67, 127
1, 229660, Note_off_c, 1, 67, 0
1, 229817, Note_off_c, 1, 81, 0
1, 229819, Note_on_c, 1, 81, 127
1, 229819, Note_on_c, 1, 64, 127
1, 229974, Note_off_c, 1, 81, 0
1, 229974, Note_off_c, 1, 64, 0
1, 229976, Note_on_c, 1, 81, 127
1, 229976, Note_on_c, 1, 63, 127
1, 230131, Note_off_c, 1, 81, 0
1, 230133, Note_on_c, 1, 79, 127
1, 230288, Note_off_c, 1, 63, 0
1, 230288, Note_off_c, 1, 79, 0
1, 230291, Note_on_c, 1, 81, 127
1, 230291, Note_on_c, 1, 59, 127
1, 230291, Note_on_c, 1, 63, 127
1, 230446, Note_off_c, 1, 81, 0
1, 230448, Note_on_c, 1, 84, 127
1, 230603, Note_off_c, 1, 84, 0
1, 230605, Note_on_c, 1, 83, 127
1, 230760, Note_off_c, 1, 59, 0
1, 230760, Note_off_c, 1, 63, 0
1, 230760, Note_off_c, 1, 83, 0
1, 230762, Note_on_c, 1, 81, 127
1, 230762, Note_on_c, 1, 63, 127
1, 230762, Note_on_c, 1, 59, 127
1, 230917, Note_off_c, 1, 81, 0
1, 230917, Note_off_c, 1, 63, 0
1, 230917, Note_off_c, 1, 59, 0
1, 230919, Note_on_c, 1, 79, 127
1, 230919, Note_on_c, 1, 52, 127
1, 230919, Note_on_c, 1, 64, 127
1, 231074, Note_off_c, 1, 79, 0
1, 231076, Note_on_c, 1, 78, 127
1, 231231, Note_off_c, 1, 52, 0
1, 231231, Note_off_c, 1, 78, 0
1, 231233, Note_on_c, 1, 60, 127
1, 231388, Note_off_c, 1, 60, 0
1, 231391, Note_on_c, 1, 83, 127
1, 231391, Note_on_c, 1, 59, 127
1, 231541, Note_off_c, 1, 64, 0
1, 231546, Note_off_c, 1, 83, 0
1, 231546, Note_off_c, 1, 59, 0
1, 231548, Note_on_c, 1, 81, 127
1, 231548, Note_on_c, 1, 60, 127
1, 231703, Note_off_c, 1, 81, 0
1, 231703, Note_off_c, 1, 60, 0
1, 231705, Note_on_c, 1, 79, 127
1, 231705, Note_on_c, 1, 57, 127
1, 231860, Note_off_c, 1, 79, 0
1, 231860, Note_off_c, 1, 57, 0
1, 231862, Note_on_c, 1, 78, 127
1, 231862, Note_on_c, 1, 51, 127
1, 232017, Note_off_c, 1, 78, 0
1, 232019, Note_on_c, 1, 76, 127
1, 232174, Note_off_c, 1, 51, 0
1, 232174, Note_off_c, 1, 76, 0
1, 232176, Note_on_c, 1, 78, 127
1, 232176, Note_on_c, 1, 54, 127
1, 232176, Note_on_c, 1, 57, 127
1, 232331, Note_off_c, 1, 78, 0
1, 232333, Note_on_c, 1, 79, 127
1, 232488, Note_off_c, 1, 79, 0
1, 232645, Note_off_c, 1, 54, 0
1, 232645, Note_off_c, 1, 57, 0
1, 232648, Note_on_c, 1, 76, 127
1, 232648, Note_on_c, 1, 57, 127
1, 232648, Note_on_c, 1, 54, 127
1, 232803, Note_off_c, 1, 76, 0
1, 232803, Note_off_c, 1, 57, 0
1, 232803, Note_off_c, 1, 54, 0
1, 232805, Note_on_c, 1, 75, 127
1, 232805, Note_on_c, 1, 54, 127
1, 232805, Note_on_c, 1, 57, 127
1, 232805, Note_on_c, 1, 47, 127
1, 232960, Note_off_c, 1, 75, 0
1, 232962, Note_on_c, 1, 73, 127
1, 233117, Note_off_c, 1, 54, 0
1, 233117, Note_off_c, 1, 57, 0
1, 233117, Note_off_c, 1, 47, 0
1, 233117, Note_off_c, 1, 73, 0
1, 233119, Note_on_c, 1, 75, 127
1, 233119, Note_on_c, 1, 59, 127
1, 233274, Note_off_c, 1, 75, 0
1, 233274, Note_off_c, 1, 59, 0
1, 233276, Note_on_c, 1, 76, 127
1, 233276, Note_on_c, 1, 57, 127
1, 233431, Note_off_c, 1, 76, 0
1, 233431, Note_off_c, 1, 57, 0
1, 233433, Note_on_c, 1, 73, 127
1, 233433, Note_on_c, 1, 59, 127
1, 233588, Note_off_c, 1, 73, 0
1, 233588, Note_off_c, 1, 59, 0
1, 233591, Note_on_c, 1, 75, 127
1, 233591, Note_on_c, 1, 54, 127
1, 233746, Note_off_c, 1, 75, 0
1, 233746, Note_off_c, 1, 54, 0
1, 233748, Note_on_c, 1, 76, 127
1, 233748, Note_on_c, 1, 55, 127
1, 233903, Note_off_c, 1, 76, 0
1, 233903, Note_off_c, 1, 55, 0
1, 233905, Note_on_c, 1, 75, 127
1, 233905, Note_on_c, 1, 57, 127
1, 234060, Note_off_c, 1, 75, 0
1, 234060, Note_off_c, 1, 57, 0
1, 234062, Note_on_c, 1, 76, 127
1, 234062, Note_on_c, 1, 55, 127
1, 234217, Note_off_c, 1, 76, 0
1, 234217, Note_off_c, 1, 55, 0
1, 234219, Note_on_c, 1, 78, 127
1, 234219, Note_on_c, 1, 54, 127
1, 234374, Note_off_c, 1, 78, 0
1, 234374, Note_off_c, 1, 54, 0
1, 234376, Note_on_c, 1, 79, 127
1, 234376, Note_on_c, 1, 52, 127
1, 234531, Note_off_c, 1, 79, 0
1, 234531, Note_off_c, 1, 52, 0
1, 234533, Note_on_c, 1, 76, 127
1, 234533, Note_on_c, 1, 55, 127
1, 234688, Note_off_c, 1, 76, 0
1, 234688, Note_off_c, 1, 55, 0
1, 234691, Note_on_c, 1, 73, 127
1, 234691, Note_on_c, 1, 57, 127
1, 234846, Note_off_c, 1, 73, 0
1, 234846, Note_off_c, 1, 57, 0
1, 234848, Note_on_c, 1, 74, 127
1, 234848, Note_on_c, 1, 56, 127
1, 235003, Note_off_c, 1, 74, 0
1, 235003, Note_off_c, 1, 56, 0
1, 235005, Note_on_c, 1, 73, 127
1, 235005, Note_on_c, 1, 57, 127
1, 235160, Note_off_c, 1, 73, 0
1, 235160, Note_off_c, 1, 57, 0
1, 235162, Note_on_c, 1, 71, 127
1, 235162, Note_on_c, 1, 59, 127
1, 235317, Note_off_c, 1, 71, 0
1, 235317, Note_off_c, 1, 59, 0
1, 235319, Note_on_c, 1, 69, 127
1, 235319, Note_on_c, 1, 61, 127
1, 235474, Note_off_c, 1, 69, 0
1, 235474, Note_off_c, 1, 61, 0
1, 235476, Note_on_c, 1, 73, 127
1, 235476, Note_on_c, 1, 57, 127
1, 235631, Note_off_c, 1, 73, 0
1, 235631, Note_off_c, 1, 57, 0
1, 235633, Note_on_c, 1, 74, 127
1, 235633, Note_on_c, 1, 54, 127
1, 235788, Note_off_c, 1, 74, 0
1, 235788, Note_off_c, 1, 54, 0
1, 235791, Note_on_c, 1, 73, 127
1, 235791, Note_on_c, 1, 55, 127
1, 235946, Note_off_c, 1, 73, 0
1, 235946, Note_off_c, 1, 55, 0
1, 235948, Note_on_c, 1, 74, 127
1, 235948, Note_on_c, 1, 54, 127
1, 236103, Note_off_c, 1, 74, 0
1, 236103, Note_off_c, 1, 54, 0
1, 236105, Note_on_c, 1, 76, 127
1, 236105, Note_on_c, 1, 52, 127
1, 236260, Note_off_c, 1, 76, 0
1, 236260, Note_off_c, 1, 52, 0
1, 236262, Note_on_c, 1, 78, 127
1, 236262, Note_on_c, 1, 50, 127
1, 236417, Note_off_c, 1, 78, 0
1, 236417, Note_off_c, 1, 50, 0
1, 236419, Note_on_c, 1, 74, 127
1, 236419, Note_on_c, 1, 54, 127
1, 236574, Note_off_c, 1, 74, 0
1, 236574, Note_off_c, 1, 54, 0
1, 236576, Note_on_c, 1, 71, 127
1, 236576, Note_on_c, 1, 55, 127
1, 236731, Note_off_c, 1, 71, 0
1, 236731, Note_off_c, 1, 55, 0
1, 236733, Note_on_c, 1, 72, 127
1, 236733, Note_on_c, 1, 54, 127
1, 236888, Note_off_c, 1, 72, 0
1, 236888, Note_off_c, 1, 54, 0
1, 236890, Note_on_c, 1, 71, 127
1, 236890, Note_on_c, 1, 55, 127
1, 237045, Note_off_c, 1, 71, 0
1, 237045, Note_off_c, 1, 55, 0
1, 237048, Note_on_c, 1, 69, 127
1, 237048, Note_on_c, 1, 57, 127
1, 237203, Note_off_c, 1, 69, 0
1, 237203, Note_off_c, 1, 57, 0
1, 237205, Note_on_c, 1, 67, 127
1, 237205, Note_on_c, 1, 59, 127
1, 237360, Note_off_c, 1, 67, 0
1, 237360, Note_off_c, 1, 59, 0
1, 237362, Note_on_c, 1, 71, 127
1, 237362, Note_on_c, 1, 55, 127
1, 237517, Note_off_c, 1, 71, 0
1, 237517, Note_off_c, 1, 55, 0
1, 237519, Note_on_c, 1, 73, 127
1, 237519, Note_on_c, 1, 52, 127
1, 237674, Note_off_c, 1, 73, 0
1, 237674, Note_off_c, 1, 52, 0
1, 237676, Note_on_c, 1, 71, 127
1, 237676, Note_on_c, 1, 54, 127
1, 237831, Note_off_c, 1, 71, 0
1, 237831, Note_off_c, 1, 54, 0
1, 237833, Note_on_c, 1, 73, 127
1, 237833, Note_on_c, 1, 52, 127
1, 237988, Note_off_c, 1, 73, 0
1, 237988, Note_off_c, 1, 52, 0
1, 237990, Note_on_c, 1, 74, 127
1, 237990, Note_on_c, 1, 50, 127
1, 238145, Note_off_c, 1, 74, 0
1, 238145, Note_off_c, 1, 50, 0
1, 238148, Note_on_c, 1, 76, 127
1, 238148, Note_on_c, 1, 49, 127
1, 238303, Note_off_c, 1, 76, 0
1, 238303, Note_off_c, 1, 49, 0
1, 238305, Note_on_c, 1, 73, 127
1, 238305, Note_on_c, 1, 52, 127
1, 238460, Note_off_c, 1, 73, 0
1, 238460, Note_off_c, 1, 52, 0
1, 238462, Note_on_c, 1, 70, 127
1, 238462, Note_on_c, 1, 54, 127
1, 238617, Note_off_c, 1, 70, 0
1, 238617, Note_off_c, 1, 54, 0
1, 238619, Note_on_c, 1, 71, 127
1, 238619, Note_on_c, 1, 55, 127
1, 238774, Note_off_c, 1, 71, 0
1, 238774, Note_off_c, 1, 55, 0
1, 238776, Note_on_c, 1, 70, 127
1, 238776, Note_on_c, 1, 54, 127
1, 238931, Note_off_c, 1, 70, 0
1, 238931, Note_off_c, 1, 54, 0
1, 238933, Note_on_c, 1, 68, 127
1, 238933, Note_on_c, 1, 52, 127
1, 239088, Note_off_c, 1, 68, 0
1, 239088, Note_off_c, 1, 52, 0
1, 239090, Note_on_c, 1, 66, 127
1, 239090, Note_on_c, 1, 50, 127
1, 239245, Note_off_c, 1, 66, 0
1, 239245, Note_off_c, 1, 50, 0
1, 239248, Note_on_c, 1, 70, 127
1, 239248, Note_on_c, 1, 49, 127
1, 239403, Note_off_c, 1, 70, 0
1, 239403, Note_off_c, 1, 49, 0
1, 239405, Note_on_c, 1, 71, 127
1, 239405, Note_on_c, 1, 50, 127
1, 239560, Note_off_c, 1, 71, 0
1, 239560, Note_off_c, 1, 50, 0
1, 239562, Note_on_c, 1, 70, 127
1, 239562, Note_on_c, 1, 52, 127
1, 239717, Note_off_c, 1, 70, 0
1, 239717, Note_off_c, 1, 52, 0
1, 239719, Note_on_c, 1, 71, 127
1, 239719, Note_on_c, 1, 50, 127
1, 239719, Note_on_c, 1, 66, 127
1, 239874, Note_off_c, 1, 71, 0
1, 239874, Note_off_c, 1, 50, 0
1, 239876, Note_on_c, 1, 73, 127
1, 239876, Note_on_c, 1, 49, 127
1, 240031, Note_off_c, 1, 73, 0
1, 240031, Note_off_c, 1, 49, 0
1, 240033, Note_on_c, 1, 74, 127
1, 240033, Note_on_c, 1, 47, 127
1, 240177, Note_off_c, 1, 66, 0
1, 240188, Note_off_c, 1, 74, 0
1, 240188, Note_off_c, 1, 47, 0
1, 240190, Note_on_c, 1, 66, 127
1, 240190, Note_on_c, 1, 71, 127
1, 240190, Note_on_c, 1, 50, 127
1, 240345, Note_off_c, 1, 66, 0
1, 240345, Note_off_c, 1, 71, 0
1, 240345, Note_off_c, 1, 50, 0
1, 240348, Note_on_c, 1, 52, 127
1, 240348, Note_on_c, 1, 67, 127
1, 240348, Note_on_c, 1, 59, 127
1, 240503, Note_off_c, 1, 52, 0
1, 240505, Note_on_c, 1, 50, 127
1, 240660, Note_off_c, 1, 67, 0
1, 240660, Note_off_c, 1, 50, 0
1, 240819, Note_on_c, 1, 66, 127
1, 240819, Note_on_c, 1, 54, 127
1, 240970, Note_off_c, 1, 59, 0
1, 240974, Note_off_c, 1, 66, 0
1, 240974, Note_off_c, 1, 54, 0
1, 240976, Note_on_c, 1, 67, 127
1, 240976, Note_on_c, 1, 52, 127
1, 241131, Note_off_c, 1, 67, 0
1, 241131, Note_off_c, 1, 52, 0
1, 241133, Note_on_c, 1, 64, 127
1, 241133, Note_on_c, 1, 50, 127
1, 241288, Note_off_c, 1, 64, 0
1, 241288, Note_off_c, 1, 50, 0
1, 241290, Note_on_c, 1, 49, 127
1, 241290, Note_on_c, 1, 58, 127
1, 241445, Note_off_c, 1, 49, 0
1, 241448, Note_on_c, 1, 47, 127
1, 241602, Note_off_c, 1, 58, 0
1, 241603, Note_off_c, 1, 47, 0
1, 241605, Note_on_c, 1, 49, 127
1, 241605, Note_on_c, 1, 61, 127
1, 241605, Note_on_c, 1, 64, 127
1, 241760, Note_off_c, 1, 49, 0
1, 241762, Note_on_c, 1, 50, 127
1, 241917, Note_off_c, 1, 50, 0
1, 242074, Note_off_c, 1, 61, 0
1, 242074, Note_off_c, 1, 64, 0
1, 242076, Note_on_c, 1, 64, 127
1, 242076, Note_on_c, 1, 61, 127
1, 242076, Note_on_c, 1, 47, 127
1, 242231, Note_off_c, 1, 64, 0
1, 242231, Note_off_c, 1, 61, 0
1, 242231, Note_off_c, 1, 47, 0
1, 242233, Note_on_c, 1, 46, 127
1, 242233, Note_on_c, 1, 64, 127
1, 242233, Note_on_c, 1, 61, 127
1, 242233, Note_on_c, 1, 54, 127
1, 242388, Note_off_c, 1, 46, 0
1, 242390, Note_on_c, 1, 44, 127
1, 242545, Note_off_c, 1, 64, 0
1, 242545, Note_off_c, 1, 61, 0
1, 242545, Note_off_c, 1, 44, 0
1, 242548, Note_on_c, 1, 66, 127
1, 242703, Note_off_c, 1, 66, 0
1, 242705, Note_on_c, 1, 47, 127
1, 242860, Note_off_c, 1, 47, 0
1, 243018, Note_off_c, 1, 54, 0
1, 243019, Note_on_c, 1, 61, 127
1, 243019, Note_on_c, 1, 46, 127
1, 243174, Note_off_c, 1, 61, 0
1, 243174, Note_off_c, 1, 46, 0
1, 243176, Note_on_c, 1, 47, 127
1, 243176, Note_on_c, 1, 62, 127
1, 243333, Note_on_c, 1, 66, 127
1, 243488, Note_off_c, 1, 47, 0
1, 243488, Note_off_c, 1, 66, 0
1, 243490, Note_on_c, 1, 59, 127
1, 243490, Note_on_c, 1, 71, 127
1, 243634, Note_off_c, 1, 62, 0
1, 243802, Note_off_c, 1, 59, 0
1, 243805, Note_on_c, 1, 64, 127
1, 243948, Note_off_c, 1, 71, 0
1, 243960, Note_off_c, 1, 64, 0
1, 244119, Note_on_c, 1, 47, 127
1, 244119, Note_on_c, 1, 64, 127
1, 244276, Note_on_c, 1, 70, 127
1, 244353, Note_off_c, 1, 70, 0
1, 244355, Note_on_c, 1, 71, 127
1, 244432, Note_off_c, 1, 71, 0
1, 244433, Note_off_c, 1, 47, 0
1, 244435, Note_on_c, 1, 59, 127
1, 244435, Note_on_c, 1, 73, 127
1, 244579, Note_off_c, 1, 64, 0
1, 244592, Note_on_c, 1, 67, 127
1, 244747, Note_off_c, 1, 59, 0
1, 244747, Note_off_c, 1, 67, 0
1, 244749, Note_on_c, 1, 66, 127
1, 244893, Note_off_c, 1, 73, 0
1, 244904, Note_off_c, 1, 66, 0
1, 245063, Note_on_c, 1, 47, 127
1, 245063, Note_on_c, 1, 66, 127
1, 245221, Note_on_c, 1, 71, 127
1, 245298, Note_off_c, 1, 71, 0
1, 245300, Note_on_c, 1, 73, 127
1, 245377, Note_off_c, 1, 47, 0
1, 245377, Note_off_c, 1, 73, 0
1, 245379, Note_on_c, 1, 59, 127
1, 245379, Note_on_c, 1, 74, 127
1, 245523, Note_off_c, 1, 66, 0
1, 245536, Note_on_c, 1, 69, 127
1, 245691, Note_off_c, 1, 59, 0
1, 245691, Note_off_c, 1, 69, 0
1, 245694, Note_on_c, 1, 67, 127
1, 245837, Note_off_c, 1, 74, 0
1, 245849, Note_off_c, 1, 67, 0
1, 246008, Note_on_c, 1, 47, 127
1, 246008, Note_on_c, 1, 67, 127
1, 246165, Note_on_c, 1, 73, 127
1, 246242, Note_off_c, 1, 73, 0
1, 246244, Note_on_c, 1, 74, 127
1, 246321, Note_off_c, 1, 74, 0
1, 246322, Note_off_c, 1, 47, 0
1, 246324, Note_on_c, 1, 59, 127
1, 246324, Note_on_c, 1, 76, 127
1, 246468, Note_off_c, 1, 67, 0
1, 246636, Note_off_c, 1, 59, 0
1, 246782, Note_off_c, 1, 76, 0
1, 246795, Note_on_c, 1, 71, 127
1, 246950, Note_off_c, 1, 71, 0
1, 246952, Note_on_c, 1, 47, 127
1, 246952, Note_on_c, 1, 70, 127
1, 247109, Note_on_c, 1, 73, 127
1, 247264, Note_off_c, 1, 47, 0
1, 247264, Note_off_c, 1, 73, 0
1, 247267, Note_on_c, 1, 76, 127
1, 247267, Note_on_c, 1, 59, 127
1, 247422, Note_off_c, 1, 76, 0
1, 247424, Note_on_c, 1, 79, 127
1, 247574, Note_off_c, 1, 70, 0
1, 247579, Note_off_c, 1, 59, 0
1, 247579, Note_off_c, 1, 79, 0
1, 247581, Note_on_c, 1, 78, 127
1, 247581, Note_on_c, 1, 47, 127
1, 247736, Note_off_c, 1, 78, 0
1, 247738, Note_on_c, 1, 76, 127
1, 247893, Note_off_c, 1, 47, 0
1, 247893, Note_off_c, 1, 76, 0
1, 247895, Note_on_c, 1, 59, 127
1, 247895, Note_on_c, 1, 74, 127
1, 248050, Note_off_c, 1, 59, 0
1, 248052, Note_on_c, 1, 73, 127
1, 248052, Note_on_c, 1, 58, 127
1, 248207, Note_off_c, 1, 73, 0
1, 248207, Note_off_c, 1, 58, 0
1, 248209, Note_on_c, 1, 71, 127
1, 248364, Note_off_c, 1, 71, 0
1, 248367, Note_on_c, 1, 70, 127
1, 248367, Note_on_c, 1, 61, 127
1, 248522, Note_off_c, 1, 70, 0
1, 248522, Note_off_c, 1, 61, 0
1, 248524, Note_on_c, 1, 62, 127
1, 248679, Note_off_c, 1, 62, 0
1, 248681, Note_on_c, 1, 66, 127
1, 248836, Note_off_c, 1, 74, 0
1, 248836, Note_off_c, 1, 66, 0
1, 248838, Note_on_c, 1, 64, 127
1, 248838, Note_on_c, 1, 68, 127
1, 248993, Note_off_c, 1, 64, 0
1, 248995, Note_on_c, 1, 71, 127
1, 248995, Note_on_c, 1, 65, 127
1, 249150, Note_off_c, 1, 71, 0
1, 249150, Note_off_c, 1, 65, 0
1, 249152, Note_on_c, 1, 74, 127
1, 249307, Note_off_c, 1, 74, 0
1, 249309, Note_on_c, 1, 77, 127
1, 249309, Note_on_c, 1, 62, 127
1, 249460, Note_off_c, 1, 68, 0
1, 249464, Note_off_c, 1, 77, 0
1, 249464, Note_off_c, 1, 62, 0
1, 249467, Note_on_c, 1, 76, 127
1, 249467, Note_on_c, 1, 60, 127
1, 249622, Note_off_c, 1, 76, 0
1, 249622, Note_off_c, 1, 60, 0
1, 249624, Note_on_c, 1, 74, 127
1, 249624, Note_on_c, 1, 59, 127
1, 249779, Note_off_c, 1, 74, 0
1, 249779, Note_off_c, 1, 59, 0
1, 249781, Note_on_c, 1, 57, 127
1, 249781, Note_on_c, 1, 72, 127
1, 249936, Note_off_c, 1, 57, 0
1, 249938, Note_on_c, 1, 71, 127
1, 249938, Note_on_c, 1, 56, 127
1, 250093, Note_off_c, 1, 71, 0
1, 250093, Note_off_c, 1, 56, 0
1, 250095, Note_on_c, 1, 69, 127
1, 250250, Note_off_c, 1, 69, 0
1, 250252, Note_on_c, 1, 68, 127
1, 250252, Note_on_c, 1, 59, 127
1, 250407, Note_off_c, 1, 68, 0
1, 250407, Note_off_c, 1, 59, 0
1, 250409, Note_on_c, 1, 60, 127
1, 250564, Note_off_c, 1, 60, 0
1, 250567, Note_on_c, 1, 64, 127
1, 250722, Note_off_c, 1, 72, 0
1, 250722, Note_off_c, 1, 64, 0
1, 250724, Note_on_c, 1, 62, 127
1, 250724, Note_on_c, 1, 66, 127
1, 250879, Note_off_c, 1, 62, 0
1, 250881, Note_on_c, 1, 69, 127
1, 250881, Note_on_c, 1, 64, 127
1, 251036, Note_off_c, 1, 69, 0
1, 251036, Note_off_c, 1, 64, 0
1, 251038, Note_on_c, 1, 72, 127
1, 251193, Note_off_c, 1, 72, 0
1, 251195, Note_on_c, 1, 76, 127
1, 251195, Note_on_c, 1, 60, 127
1, 251346, Note_off_c, 1, 66, 0
1, 251350, Note_off_c, 1, 76, 0
1, 251350, Note_off_c, 1, 60, 0
1, 251352, Note_on_c, 1, 74, 127
1, 251352, Note_on_c, 1, 59, 127
1, 251507, Note_off_c, 1, 74, 0
1, 251507, Note_off_c, 1, 59, 0
1, 251509, Note_on_c, 1, 72, 127
1, 251509, Note_on_c, 1, 57, 127
1, 251664, Note_off_c, 1, 72, 0
1, 251664, Note_off_c, 1, 57, 0
1, 251667, Note_on_c, 1, 55, 127
1, 251667, Note_on_c, 1, 71, 127
1, 251822, Note_off_c, 1, 55, 0
1, 251824, Note_on_c, 1, 69, 127
1, 251824, Note_on_c, 1, 54, 127
1, 251979, Note_off_c, 1, 69, 0
1, 251979, Note_off_c, 1, 54, 0
1, 251981, Note_on_c, 1, 67, 127
1, 252136, Note_off_c, 1, 67, 0
1, 252138, Note_on_c, 1, 66, 127
1, 252138, Note_on_c, 1, 57, 127
1, 252293, Note_off_c, 1, 66, 0
1, 252293, Note_off_c, 1, 57, 0
1, 252295, Note_on_c, 1, 59, 127
1, 252450, Note_off_c, 1, 59, 0
1, 252452, Note_on_c, 1, 63, 127
1, 252607, Note_off_c, 1, 63, 0
1, 252608, Note_off_c, 1, 71, 0
1, 252609, Note_on_c, 1, 60, 127
1, 252609, Note_on_c, 1, 64, 127
1, 252764, Note_off_c, 1, 60, 0
1, 252766, Note_on_c, 1, 67, 127
1, 252766, Note_on_c, 1, 62, 127
1, 252921, Note_off_c, 1, 67, 0
1, 252921, Note_off_c, 1, 62, 0
1, 252924, Note_on_c, 1, 71, 127
1, 253079, Note_off_c, 1, 71, 0
1, 253081, Note_on_c, 1, 74, 127
1, 253081, Note_on_c, 1, 59, 127
1, 253231, Note_off_c, 1, 64, 0
1, 253236, Note_off_c, 1, 74, 0
1, 253236, Note_off_c, 1, 59, 0
1, 253238, Note_on_c, 1, 72, 127
1, 253238, Note_on_c, 1, 57, 127
1, 253393, Note_off_c, 1, 72, 0
1, 253393, Note_off_c, 1, 57, 0
1, 253395, Note_on_c, 1, 71, 127
1, 253395, Note_on_c, 1, 55, 127
1, 253550, Note_off_c, 1, 71, 0
1, 253550, Note_off_c, 1, 55, 0
1, 253552, Note_on_c, 1, 54, 127
1, 253552, Note_on_c, 1, 69, 127
1, 253707, Note_off_c, 1, 54, 0
1, 253709, Note_on_c, 1, 67, 127
1, 253709, Note_on_c, 1, 52, 127
1, 253864, Note_off_c, 1, 67, 0
1, 253864, Note_off_c, 1, 52, 0
1, 253866, Note_on_c, 1, 66, 127
1, 254021, Note_off_c, 1, 66, 0
1, 254024, Note_on_c, 1, 64, 127
1, 254024, Note_on_c, 1, 55, 127
1, 254174, Note_off_c, 1, 69, 0
1, 254179, Note_off_c, 1, 64, 0
1, 254179, Note_off_c, 1, 55, 0
1, 254181, Note_on_c, 1, 66, 127
1, 254181, Note_on_c, 1, 57, 127
1, 254336, Note_off_c, 1, 66, 0
1, 254336, Note_off_c, 1, 57, 0
1, 254338, Note_on_c, 1, 61, 127
1, 254338, Note_on_c, 1, 54, 127
1, 254493, Note_off_c, 1, 61, 0
1, 254493, Note_off_c, 1, 54, 0
1, 254495, Note_on_c, 1, 59, 127
1, 254495, Note_on_c, 1, 63, 127
1, 254650, Note_off_c, 1, 59, 0
1, 254652, Note_on_c, 1, 54, 127
1, 254807, Note_off_c, 1, 63, 0
1, 254807, Note_off_c, 1, 54, 0
1, 254809, Note_on_c, 1, 57, 127
1, 254809, Note_on_c, 1, 83, 127
1, 254809, Note_on_c, 1, 78, 127
1, 254809, Note_on_c, 1, 75, 127
1, 254964, Note_off_c, 1, 57, 0
1, 254966, Note_on_c, 1, 60, 127
1, 255121, Note_off_c, 1, 60, 0
1, 255124, Note_on_c, 1, 59, 127
1, 255278, Note_off_c, 1, 83, 0
1, 255279, Note_off_c, 1, 59, 0
1, 255431, Note_off_c, 1, 78, 0
1, 255431, Note_off_c, 1, 75, 0
1, 255438, Note_on_c, 1, 55, 127
1, 255438, Note_on_c, 1, 76, 127
1, 255438, Note_on_c, 1, 71, 127
1, 255593, Note_off_c, 1, 55, 0
1, 255595, Note_on_c, 1, 54, 127
1, 255750, Note_off_c, 1, 76, 0
1, 255750, Note_off_c, 1, 71, 0
1, 255750, Note_off_c, 1, 54, 0
1, 255752, Note_on_c, 1, 81, 127
1, 255752, Note_on_c, 1, 84, 127
1, 255752, Note_on_c, 1, 55, 127
1, 255752, Note_on_c, 1, 76, 127
1, 255907, Note_off_c, 1, 81, 0
1, 255907, Note_off_c, 1, 84, 0
1, 255907, Note_off_c, 1, 55, 0
1, 255909, Note_on_c, 1, 83, 127
1, 255909, Note_on_c, 1, 59, 127
1, 256064, Note_off_c, 1, 83, 0
1, 256064, Note_off_c, 1, 59, 0
1, 256066, Note_on_c, 1, 57, 127
1, 256221, Note_off_c, 1, 57, 0
1, 256374, Note_off_c, 1, 76, 0
1, 256381, Note_on_c, 1, 54, 127
1, 256381, Note_on_c, 1, 75, 127
1, 256536, Note_off_c, 1, 54, 0
1, 256538, Note_on_c, 1, 52, 127
1, 256693, Note_off_c, 1, 75, 0
1, 256693, Note_off_c, 1, 52, 0
1, 256695, Note_on_c, 1, 54, 127
1, 256695, Note_on_c, 1, 78, 127
1, 256695, Note_on_c, 1, 72, 127
1, 256695, Note_on_c, 1, 69, 127
1, 256850, Note_off_c, 1, 54, 0
1, 256852, Note_on_c, 1, 55, 127
1, 257007, Note_off_c, 1, 55, 0
1, 257164, Note_off_c, 1, 78, 0
1, 257166, Note_on_c, 1, 52, 127
1, 257317, Note_off_c, 1, 72, 0
1, 257317, Note_off_c, 1, 69, 0
1, 257321, Note_off_c, 1, 52, 0
1, 257324, Note_on_c, 1, 51, 127
1, 257324, Note_on_c, 1, 71, 127
1, 257479, Note_off_c, 1, 51, 0
1, 257481, Note_on_c, 1, 49, 127
1, 257636, Note_off_c, 1, 71, 0
1, 257636, Note_off_c, 1, 49, 0
1, 257638, Note_on_c, 1, 83, 127
1, 257638, Note_on_c, 1, 78, 127
1, 257638, Note_on_c, 1, 51, 127
1, 257638, Note_on_c, 1, 71, 127
1, 257793, Note_off_c, 1, 83, 0
1, 257793, Note_off_c, 1, 78, 0
1, 257793, Note_off_c, 1, 51, 0
1, 257795, Note_on_c, 1, 81, 127
1, 257795, Note_on_c, 1, 52, 127
1, 257950, Note_off_c, 1, 81, 0
1, 257950, Note_off_c, 1, 52, 0
1, 257952, Note_on_c, 1, 49, 127
1, 258107, Note_off_c, 1, 49, 0
1, 258260, Note_off_c, 1, 71, 0
1, 258266, Note_on_c, 1, 79, 127
1, 258266, Note_on_c, 1, 52, 127
1, 258421, Note_off_c, 1, 79, 0
1, 258421, Note_off_c, 1, 52, 0
1, 258424, Note_on_c, 1, 81, 127
1, 258424, Note_on_c, 1, 47, 127
1, 258579, Note_off_c, 1, 81, 0
1, 258579, Note_off_c, 1, 47, 0
1, 258581, Note_on_c, 1, 79, 127
1, 258581, Note_on_c, 1, 52, 127
1, 258736, Note_off_c, 1, 79, 0
1, 258736, Note_off_c, 1, 52, 0
1, 258738, Note_on_c, 1, 78, 127
1, 258738, Note_on_c, 1, 54, 127
1, 258893, Note_off_c, 1, 78, 0
1, 258893, Note_off_c, 1, 54, 0
1, 258895, Note_on_c, 1, 76, 127
1, 258895, Note_on_c, 1, 55, 127
1, 259050, Note_off_c, 1, 76, 0
1, 259050, Note_off_c, 1, 55, 0
1, 259052, Note_on_c, 1, 79, 127
1, 259052, Note_on_c, 1, 52, 127
1, 259207, Note_off_c, 1, 79, 0
1, 259207, Note_off_c, 1, 52, 0
1, 259209, Note_on_c, 1, 81, 127
1, 259209, Note_on_c, 1, 48, 127
1, 259364, Note_off_c, 1, 81, 0
1, 259364, Note_off_c, 1, 48, 0
1, 259366, Note_on_c, 1, 79, 127
1, 259366, Note_on_c, 1, 50, 127
1, 259521, Note_off_c, 1, 79, 0
1, 259521, Note_off_c, 1, 50, 0
1, 259524, Note_on_c, 1, 81, 127
1, 259524, Note_on_c, 1, 48, 127
1, 259679, Note_off_c, 1, 81, 0
1, 259679, Note_off_c, 1, 48, 0
1, 259681, Note_on_c, 1, 83, 127
1, 259681, Note_on_c, 1, 47, 127
1, 259836, Note_off_c, 1, 83, 0
1, 259836, Note_off_c, 1, 47, 0
1, 259838, Note_on_c, 1, 84, 127
1, 259838, Note_on_c, 1, 45, 127
1, 259993, Note_off_c, 1, 84, 0
1, 259993, Note_off_c, 1, 45, 0
1, 259995, Note_on_c, 1, 81, 127
1, 259995, Note_on_c, 1, 48, 127
1, 260150, Note_off_c, 1, 81, 0
1, 260150, Note_off_c, 1, 48, 0
1, 260152, Note_on_c, 1, 78, 127
1, 260152, Note_on_c, 1, 50, 127
1, 260307, Note_off_c, 1, 78, 0
1, 260307, Note_off_c, 1, 50, 0
1, 260309, Note_on_c, 1, 79, 127
1, 260309, Note_on_c, 1, 45, 127
1, 260464, Note_off_c, 1, 79, 0
1, 260464, Note_off_c, 1, 45, 0
1, 260466, Note_on_c, 1, 78, 127
1, 260466, Note_on_c, 1, 50, 127
1, 260621, Note_off_c, 1, 78, 0
1, 260621, Note_off_c, 1, 50, 0
1, 260623, Note_on_c, 1, 76, 127
1, 260623, Note_on_c, 1, 52, 127
1, 260778, Note_off_c, 1, 76, 0
1, 260778, Note_off_c, 1, 52, 0
1, 260781, Note_on_c, 1, 74, 127
1, 260781, Note_on_c, 1, 54, 127
1, 260936, Note_off_c, 1, 74, 0
1, 260936, Note_off_c, 1, 54, 0
1, 260938, Note_on_c, 1, 78, 127
1, 260938, Note_on_c, 1, 50, 127
1, 261093, Note_off_c, 1, 78, 0
1, 261093, Note_off_c, 1, 50, 0
1, 261095, Note_on_c, 1, 79, 127
1, 261095, Note_on_c, 1, 47, 127
1, 261250, Note_off_c, 1, 79, 0
1, 261250, Note_off_c, 1, 47, 0
1, 261252, Note_on_c, 1, 78, 127
1, 261252, Note_on_c, 1, 48, 127
1, 261407, Note_off_c, 1, 78, 0
1, 261407, Note_off_c, 1, 48, 0
1, 261409, Note_on_c, 1, 79, 127
1, 261409, Note_on_c, 1, 47, 127
1, 261564, Note_off_c, 1, 79, 0
1, 261564, Note_off_c, 1, 47, 0
1, 261566, Note_on_c, 1, 81, 127
1, 261566, Note_on_c, 1, 45, 127
1, 261721, Note_off_c, 1, 81, 0
1, 261721, Note_off_c, 1, 45, 0
1, 261723, Note_on_c, 1, 83, 127
1, 261723, Note_on_c, 1, 43, 127
1, 261878, Note_off_c, 1, 83, 0
1, 261878, Note_off_c, 1, 43, 0
1, 261881, Note_on_c, 1, 79, 127
1, 261881, Note_on_c, 1, 47, 127
1, 262036, Note_off_c, 1, 79, 0
1, 262036, Note_off_c, 1, 47, 0
1, 262038, Note_on_c, 1, 76, 127
1, 262038, Note_on_c, 1, 48, 127
1, 262193, Note_off_c, 1, 76, 0
1, 262193, Note_off_c, 1, 48, 0
1, 262195, Note_on_c, 1, 78, 127
1, 262195, Note_on_c, 1, 43, 127
1, 262350, Note_off_c, 1, 78, 0
1, 262350, Note_off_c, 1, 43, 0
1, 262352, Note_on_c, 1, 76, 127
1, 262352, Note_on_c, 1, 48, 127
1, 262507, Note_off_c, 1, 76, 0
1, 262507, Note_off_c, 1, 48, 0
1, 262509, Note_on_c, 1, 74, 127
1, 262509, Note_on_c, 1, 50, 127
1, 262664, Note_off_c, 1, 74, 0
1, 262664, Note_off_c, 1, 50, 0
1, 262666, Note_on_c, 1, 72, 127
1, 262666, Note_on_c, 1, 52, 127
1, 262821, Note_off_c, 1, 72, 0
1, 262821, Note_off_c, 1, 52, 0
1, 262823, Note_on_c, 1, 76, 127
1, 262823, Note_on_c, 1, 48, 127
1, 262978, Note_off_c, 1, 76, 0
1, 262978, Note_off_c, 1, 48, 0
1, 262981, Note_on_c, 1, 78, 127
1, 262981, Note_on_c, 1, 45, 127
1, 263136, Note_off_c, 1, 78, 0
1, 263136, Note_off_c, 1, 45, 0
1, 263138, Note_on_c, 1, 76, 127
1, 263138, Note_on_c, 1, 47, 127
1, 263293, Note_off_c, 1, 76, 0
1, 263293, Note_off_c, 1, 47, 0
1, 263295, Note_on_c, 1, 78, 127
1, 263295, Note_on_c, 1, 45, 127
1, 263450, Note_off_c, 1, 78, 0
1, 263450, Note_off_c, 1, 45, 0
1, 263452, Note_on_c, 1, 79, 127
1, 263452, Note_on_c, 1, 43, 127
1, 263607, Note_off_c, 1, 79, 0
1, 263607, Note_off_c, 1, 43, 0
1, 263609, Note_on_c, 1, 81, 127
1, 263609, Note_on_c, 1, 42, 127
1, 263764, Note_off_c, 1, 81, 0
1, 263764, Note_off_c, 1, 42, 0
1, 263766, Note_on_c, 1, 78, 127
1, 263766, Note_on_c, 1, 45, 127
1, 263921, Note_off_c, 1, 78, 0
1, 263921, Note_off_c, 1, 45, 0
1, 263923, Note_on_c, 1, 47, 127
1, 263923, Note_on_c, 1, 75, 127
1, 264078, Note_off_c, 1, 47, 0
1, 264081, Note_on_c, 1, 42, 127
1, 264235, Note_off_c, 1, 75, 0
1, 264236, Note_off_c, 1, 42, 0
1, 264238, Note_on_c, 1, 45, 127
1, 264238, Note_on_c, 1, 71, 127
1, 264238, Note_on_c, 1, 75, 127
1, 264393, Note_off_c, 1, 45, 0
1, 264395, Note_on_c, 1, 48, 127
1, 264550, Note_off_c, 1, 48, 0
1, 264552, Note_on_c, 1, 47, 127
1, 264707, Note_off_c, 1, 71, 0
1, 264707, Note_off_c, 1, 75, 0
1, 264707, Note_off_c, 1, 47, 0
1, 264709, Note_on_c, 1, 75, 127
1, 264709, Note_on_c, 1, 71, 127
1, 264709, Note_on_c, 1, 45, 127
1, 264864, Note_off_c, 1, 75, 0
1, 264864, Note_off_c, 1, 71, 0
1, 264864, Note_off_c, 1, 45, 0
1, 264866, Note_on_c, 1, 43, 127
1, 264866, Note_on_c, 1, 71, 127
1, 264866, Note_on_c, 1, 76, 127
1, 264866, Note_on_c, 1, 64, 127
1, 265021, Note_off_c, 1, 43, 0
1, 265023, Note_on_c, 1, 42, 127
1, 265178, Note_off_c, 1, 71, 0
1, 265178, Note_off_c, 1, 76, 0
1, 265178, Note_off_c, 1, 42, 0
1, 265181, Note_on_c, 1, 72, 127
1, 265336, Note_off_c, 1, 72, 0
1, 265338, Note_on_c, 1, 47, 127
1, 265493, Note_off_c, 1, 47, 0
1, 265495, Note_on_c, 1, 45, 127
1, 265650, Note_off_c, 1, 45, 0
1, 265651, Note_off_c, 1, 64, 0
1, 265652, Note_on_c, 1, 69, 127
1, 265652, Note_on_c, 1, 43, 127
1, 265807, Note_off_c, 1, 69, 0
1, 265807, Note_off_c, 1, 43, 0
1, 265809, Note_on_c, 1, 42, 127
1, 265809, Note_on_c, 1, 63, 127
1, 265964, Note_off_c, 1, 42, 0
1, 265966, Note_on_c, 1, 40, 127
1, 266121, Note_off_c, 1, 63, 0
1, 266121, Note_off_c, 1, 40, 0
1, 266123, Note_on_c, 1, 42, 127
1, 266123, Note_on_c, 1, 69, 127
1, 266123, Note_on_c, 1, 66, 127
1, 266278, Note_off_c, 1, 42, 0
1, 266281, Note_on_c, 1, 43, 127
1, 266436, Note_off_c, 1, 43, 0
1, 266592, Note_off_c, 1, 69, 0
1, 266592, Note_off_c, 1, 66, 0
1, 266595, Note_on_c, 1, 69, 127
1, 266595, Note_on_c, 1, 66, 127
1, 266595, Note_on_c, 1, 40, 127
1, 266750, Note_off_c, 1, 69, 0
1, 266750, Note_off_c, 1, 66, 0
1, 266750, Note_off_c, 1, 40, 0
1, 266752, Note_on_c, 1, 39, 127
1, 266752, Note_on_c, 1, 69, 127
1, 266752, Note_on_c, 1, 59, 127
1, 266752, Note_on_c, 1, 66, 127
1, 266907, Note_off_c, 1, 39, 0
1, 266909, Note_on_c, 1, 37, 127
1, 267064, Note_off_c, 1, 69, 0
1, 267064, Note_off_c, 1, 59, 0
1, 267064, Note_off_c, 1, 37, 0
1, 267066, Note_on_c, 1, 71, 127
1, 267221, Note_off_c, 1, 71, 0
1, 267223, Note_on_c, 1, 40, 127
1, 267374, Note_off_c, 1, 66, 0
1, 267378, Note_off_c, 1, 40, 0
1, 267381, Note_on_c, 1, 71, 127
1, 267381, Note_on_c, 1, 37, 127
1, 267536, Note_off_c, 1, 71, 0
1, 267536, Note_off_c, 1, 37, 0
1, 267538, Note_on_c, 1, 66, 127
1, 267538, Note_on_c, 1, 39, 127
1, 267693, Note_off_c, 1, 66, 0
1, 267693, Note_off_c, 1, 39, 0
1, 267695, Note_on_c, 1, 40, 127
1, 267695, Note_on_c, 1, 67, 127
1, 267852, Note_on_c, 1, 71, 127
1, 268007, Note_off_c, 1, 40, 0
1, 268007, Note_off_c, 1, 71, 0
1, 268009, Note_on_c, 1, 52, 127
1, 268009, Note_on_c, 1, 76, 127
1, 268153, Note_off_c, 1, 67, 0
1, 268321, Note_off_c, 1, 52, 0
1, 268323, Note_on_c, 1, 69, 127
1, 268478, Note_off_c, 1, 69, 0
1, 268794, Note_off_c, 1, 76, 0
1, 268795, Note_on_c, 1, 75, 127
1, 268872, Note_off_c, 1, 75, 0
1, 268954, Note_on_c, 1, 78, 127
1, 269111, Note_on_c, 1, 72, 127
1, 269266, Note_off_c, 1, 72, 0
1, 269739, Note_off_c, 1, 78, 0
1, 269898, Note_on_c, 1, 79, 127
1, 270055, Note_on_c, 1, 74, 127
1, 270210, Note_off_c, 1, 74, 0
1, 270683, Note_off_c, 1, 79, 0
1, 270842, Note_on_c, 1, 81, 127
1, 271783, Note_off_c, 1, 81, 0
1, 271942, Note_on_c, 1, 84, 127
1, 272097, Note_off_c, 1, 84, 0
1, 272100, Note_on_c, 1, 83, 127
1, 272100, Note_on_c, 1, 40, 127
1, 272255, Note_off_c, 1, 83, 0
1, 272257, Note_on_c, 1, 81, 127
1, 272412, Note_off_c, 1, 40, 0
1, 272412, Note_off_c, 1, 81, 0
1, 272414, Note_on_c, 1, 52, 127
1, 272414, Note_on_c, 1, 79, 127
1, 272569, Note_off_c, 1, 52, 0
1, 272571, Note_on_c, 1, 78, 127
1, 272571, Note_on_c, 1, 51, 127
1, 272726, Note_off_c, 1, 78, 0
1, 272726, Note_off_c, 1, 51, 0
1, 272728, Note_on_c, 1, 76, 127
1, 272883, Note_off_c, 1, 76, 0
1, 272885, Note_on_c, 1, 75, 127
1, 272885, Note_on_c, 1, 54, 127
1, 273040, Note_off_c, 1, 75, 0
1, 273040, Note_off_c, 1, 54, 0
1, 273042, Note_on_c, 1, 55, 127
1, 273197, Note_off_c, 1, 55, 0
1, 273200, Note_on_c, 1, 71, 127
1, 273355, Note_off_c, 1, 79, 0
1, 273355, Note_off_c, 1, 71, 0
1, 273357, Note_on_c, 1, 57, 127
1, 273357, Note_on_c, 1, 72, 127
1, 273512, Note_off_c, 1, 57, 0
1, 273514, Note_on_c, 1, 64, 127
1, 273514, Note_on_c, 1, 59, 127
1, 273669, Note_off_c, 1, 64, 0
1, 273669, Note_off_c, 1, 59, 0
1, 273671, Note_on_c, 1, 67, 127
1, 273826, Note_off_c, 1, 67, 0
1, 273828, Note_on_c, 1, 71, 127
1, 273828, Note_on_c, 1, 55, 127
1, 273983, Note_off_c, 1, 71, 0
1, 273983, Note_off_c, 1, 55, 0
1, 273985, Note_on_c, 1, 69, 127
1, 273985, Note_on_c, 1, 54, 127
1, 274140, Note_off_c, 1, 69, 0
1, 274140, Note_off_c, 1, 54, 0
1, 274142, Note_on_c, 1, 52, 127
1, 274297, Note_off_c, 1, 52, 0
1, 274298, Note_off_c, 1, 72, 0
1, 274300, Note_on_c, 1, 50, 127
1, 274300, Note_on_c, 1, 66, 127
1, 274455, Note_off_c, 1, 50, 0
1, 274457, Note_on_c, 1, 76, 127
1, 274457, Note_on_c, 1, 48, 127
1, 274612, Note_off_c, 1, 76, 0
1, 274612, Note_off_c, 1, 48, 0
1, 274614, Note_on_c, 1, 74, 127
1, 274769, Note_off_c, 1, 74, 0
1, 274771, Note_on_c, 1, 72, 127
1, 274771, Note_on_c, 1, 52, 127
1, 274926, Note_off_c, 1, 72, 0
1, 274926, Note_off_c, 1, 52, 0
1, 274928, Note_on_c, 1, 54, 127
1, 275083, Note_off_c, 1, 54, 0
1, 275085, Note_on_c, 1, 69, 127
1, 275240, Note_off_c, 1, 69, 0
1, 275241, Note_off_c, 1, 66, 0
1, 275242, Note_on_c, 1, 55, 127
1, 275242, Note_on_c, 1, 71, 127
1, 275397, Note_off_c, 1, 55, 0
1, 275400, Note_on_c, 1, 62, 127
1, 275400, Note_on_c, 1, 57, 127
1, 275555, Note_off_c, 1, 62, 0
1, 275555, Note_off_c, 1, 57, 0
1, 275557, Note_on_c, 1, 65, 127
1, 275712, Note_off_c, 1, 65, 0
1, 275714, Note_on_c, 1, 69, 127
1, 275714, Note_on_c, 1, 53, 127
1, 275869, Note_off_c, 1, 69, 0
1, 275869, Note_off_c, 1, 53, 0
1, 275871, Note_on_c, 1, 67, 127
1, 275871, Note_on_c, 1, 52, 127
1, 276026, Note_off_c, 1, 67, 0
1, 276026, Note_off_c, 1, 52, 0
1, 276028, Note_on_c, 1, 50, 127
1, 276183, Note_off_c, 1, 71, 0
1, 276183, Note_off_c, 1, 50, 0
1, 276185, Note_on_c, 1, 48, 127
1, 276185, Note_on_c, 1, 64, 127
1, 276340, Note_off_c, 1, 48, 0
1, 276342, Note_on_c, 1, 74, 127
1, 276342, Note_on_c, 1, 47, 127
1, 276497, Note_off_c, 1, 74, 0
1, 276497, Note_off_c, 1, 47, 0
1, 276499, Note_on_c, 1, 72, 127
1, 276654, Note_off_c, 1, 72, 0
1, 276657, Note_on_c, 1, 71, 127
1, 276657, Note_on_c, 1, 50, 127
1, 276812, Note_off_c, 1, 71, 0
1, 276812, Note_off_c, 1, 50, 0
1, 276814, Note_on_c, 1, 52, 127
1, 276969, Note_off_c, 1, 52, 0
1, 276971, Note_on_c, 1, 67, 127
1, 277126, Note_off_c, 1, 64, 0
1, 277126, Note_off_c, 1, 67, 0
1, 277128, Note_on_c, 1, 54, 127
1, 277128, Note_on_c, 1, 69, 127
1, 277283, Note_off_c, 1, 54, 0
1, 277285, Note_on_c, 1, 63, 127
1, 277285, Note_on_c, 1, 55, 127
1, 277440, Note_off_c, 1, 63, 0
1, 277440, Note_off_c, 1, 55, 0
1, 277442, Note_on_c, 1, 64, 127
1, 277597, Note_off_c, 1, 64, 0
1, 277599, Note_on_c, 1, 67, 127
1, 277599, Note_on_c, 1, 52, 127
1, 277754, Note_off_c, 1, 67, 0
1, 277754, Note_off_c, 1, 52, 0
1, 277757, Note_on_c, 1, 66, 127
1, 277757, Note_on_c, 1, 51, 127
1, 277912, Note_off_c, 1, 66, 0
1, 277912, Note_off_c, 1, 51, 0
1, 277914, Note_on_c, 1, 49, 127
1, 278069, Note_off_c, 1, 69, 0
1, 278069, Note_off_c, 1, 49, 0
1, 278071, Note_on_c, 1, 47, 127
1, 278071, Note_on_c, 1, 63, 127
1, 278231, Note_on_c, 1, 72, 127
1, 278389, Note_off_c, 1, 72, 0
1, 278390, Note_off_c, 1, 47, 0
1, 278392, Note_on_c, 1, 71, 127
1, 278392, Note_on_c, 1, 59, 127
1, 278550, Note_off_c, 1, 71, 0
1, 278552, Note_on_c, 1, 69, 127
1, 278710, Note_off_c, 1, 69, 0
1, 278711, Note_off_c, 1, 59, 0
1, 278873, Note_on_c, 1, 66, 127
1, 279031, Note_off_c, 1, 63, 0
1, 279031, Note_off_c, 1, 66, 0
1, 279033, Note_on_c, 1, 47, 127
1, 279033, Note_on_c, 1, 67, 127
1, 279194, Note_on_c, 1, 66, 127
1, 279352, Note_off_c, 1, 47, 0
1, 279352, Note_off_c, 1, 66, 0
1, 279354, Note_on_c, 1, 64, 127
1, 279354, Note_on_c, 1, 59, 127
1, 279512, Note_off_c, 1, 64, 0
1, 279514, Note_on_c, 1, 63, 127
1, 279672, Note_off_c, 1, 63, 0
1, 279673, Note_off_c, 1, 59, 0
1, 279835, Note_on_c, 1, 61, 127
1, 279993, Note_off_c, 1, 61, 0
1, 279995, Note_on_c, 1, 58, 127
1, 280152, Note_off_c, 1, 67, 0
1, 280312, Note_off_c, 1, 58, 0
1, 280958, Note_on_c, 1, 63, 127
1, 280958, Note_on_c, 1, 47, 127
1, 281120, Note_on_c, 1, 60, 127
1, 281280, Note_off_c, 1, 60, 0
1, 281282, Note_on_c, 1, 59, 127
1, 281442, Note_off_c, 1, 59, 0
1, 281444, Note_on_c, 1, 57, 127
1, 281604, Note_off_c, 1, 57, 0
1, 281768, Note_on_c, 1, 54, 127
1, 281928, Note_off_c, 1, 63, 0
1, 281928, Note_off_c, 1, 54, 0
1, 281930, Note_on_c, 1, 55, 127
1, 282257, Note_on_c, 1, 64, 127
1, 282419, Note_off_c, 1, 64, 0
1, 282421, Note_on_c, 1, 66, 127
1, 282583, Note_off_c, 1, 66, 0
1, 282584, Note_on_c, 1, 67, 127
1, 282748, Note_on_c, 1, 61, 127
1, 282910, Note_off_c, 1, 61, 0
1, 283078, Note_on_c, 1, 58, 127
1, 283243, Note_off_c, 1, 58, 0
1, 283412, Note_on_c, 1, 52, 127
1, 283577, Note_off_c, 1, 52, 0
1, 283744, Note_off_c, 1, 55, 0
1, 283746, Note_on_c, 1, 49, 127
1, 283911, Note_off_c, 1, 49, 0
1, 284576, Note_off_c, 1, 67, 0
1, 284745, Note_on_c, 1, 70, 127
1, 284910, Note_off_c, 1, 47, 0
1, 284910, Note_off_c, 1, 70, 0
1, 284912, Note_on_c, 1, 66, 127
1, 284912, Note_on_c, 1, 63, 127
1, 284912, Note_on_c, 1, 71, 127
1, 284912, Note_on_c, 1, 47, 127
1, 285074, Note_off_c, 1, 66, 0
1, 285074, Note_off_c, 1, 63, 0
1, 285076, Note_on_c, 1, 59, 127
1, 285236, Note_off_c, 1, 71, 0
1, 285237, Note_off_c, 1, 47, 0
1, 285238, Note_off_c, 1, 59, 0
1, 285239, Note_on_c, 1, 61, 127
1, 285239, Note_on_c, 1, 59, 127
1, 285401, Note_off_c, 1, 61, 0
1, 285403, Note_on_c, 1, 63, 127
1, 285565, Note_off_c, 1, 63, 0
1, 285567, Note_on_c, 1, 64, 127
1, 285725, Note_off_c, 1, 59, 0
1, 285725, Note_off_c, 1, 64, 0
1, 285727, Note_on_c, 1, 66, 127
1, 285727, Note_on_c, 1, 59, 127
1, 285885, Note_off_c, 1, 66, 0
1, 285885, Note_off_c, 1, 59, 0
1, 285887, Note_on_c, 1, 67, 127
1, 285887, Note_on_c, 1, 52, 127
1, 286045, Note_off_c, 1, 67, 0
1, 286048, Note_on_c, 1, 64, 127
1, 286206, Note_off_c, 1, 52, 0
1, 286206, Note_off_c, 1, 64, 0
1, 286208, Note_on_c, 1, 66, 127
1, 286208, Note_on_c, 1, 60, 127
1, 286366, Note_off_c, 1, 66, 0
1, 286366, Note_off_c, 1, 60, 0
1, 286369, Note_on_c, 1, 67, 127
1, 286369, Note_on_c, 1, 59, 127
1, 286527, Note_off_c, 1, 67, 0
1, 286527, Note_off_c, 1, 59, 0
1, 286529, Note_on_c, 1, 69, 127
1, 286529, Note_on_c, 1, 60, 127
1, 286687, Note_off_c, 1, 69, 0
1, 286687, Note_off_c, 1, 60, 0
1, 286689, Note_on_c, 1, 71, 127
1, 286689, Note_on_c, 1, 57, 127
1, 286847, Note_off_c, 1, 71, 0
1, 286847, Note_off_c, 1, 57, 0
1, 286850, Note_on_c, 1, 51, 127
1, 286850, Note_on_c, 1, 72, 127
1, 287010, Note_on_c, 1, 71, 127
1, 287168, Note_off_c, 1, 71, 0
1, 287169, Note_off_c, 1, 51, 0
1, 287170, Note_on_c, 1, 69, 127
1, 287170, Note_on_c, 1, 54, 127
1, 287328, Note_off_c, 1, 69, 0
1, 287331, Note_on_c, 1, 67, 127
1, 287489, Note_off_c, 1, 67, 0
1, 287491, Note_on_c, 1, 66, 127
1, 287649, Note_off_c, 1, 54, 0
1, 287649, Note_off_c, 1, 66, 0
1, 287652, Note_on_c, 1, 64, 127
1, 287810, Note_off_c, 1, 64, 0
1, 287812, Note_on_c, 1, 47, 127
1, 287812, Note_on_c, 1, 63, 127
1, 287972, Note_off_c, 1, 72, 0
1, 288131, Note_off_c, 1, 47, 0
1, 288133, Note_on_c, 1, 59, 127
1, 288291, Note_off_c, 1, 59, 0
1, 288293, Note_on_c, 1, 57, 127
1, 288447, Note_off_c, 1, 63, 0
1, 288451, Note_off_c, 1, 57, 0
1, 288453, Note_on_c, 1, 59, 127
1, 288453, Note_on_c, 1, 63, 127
1, 288611, Note_off_c, 1, 59, 0
1, 288614, Note_on_c, 1, 66, 127
1, 288614, Note_on_c, 1, 54, 127
1, 288770, Note_off_c, 1, 63, 0
1, 288772, Note_off_c, 1, 66, 0
1, 288772, Note_off_c, 1, 54, 0
1, 288774, Note_on_c, 1, 55, 127
1, 288774, Note_on_c, 1, 64, 127
1, 288935, Note_on_c, 1, 67, 127
1, 289093, Note_off_c, 1, 55, 0
1, 289093, Note_off_c, 1, 67, 0
1, 289095, Note_on_c, 1, 57, 127
1, 289095, Note_on_c, 1, 71, 127
1, 289172, Note_off_c, 1, 57, 0
1, 289174, Note_on_c, 1, 56, 127
1, 289251, Note_off_c, 1, 56, 0
1, 289252, Note_off_c, 1, 71, 0
1, 289254, Note_on_c, 1, 76, 127
1, 289405, Note_off_c, 1, 64, 0
1, 289411, Note_off_c, 1, 76, 0
1, 289573, Note_on_c, 1, 74, 127
1, 289731, Note_off_c, 1, 74, 0
1, 289733, Note_on_c, 1, 57, 127
1, 289733, Note_on_c, 1, 72, 127
1, 289894, Note_on_c, 1, 76, 127
1, 290052, Note_off_c, 1, 57, 0
1, 290052, Note_off_c, 1, 76, 0
1, 290054, Note_on_c, 1, 60, 127
1, 290054, Note_on_c, 1, 81, 127
1, 290131, Note_off_c, 1, 60, 0
1, 290133, Note_on_c, 1, 59, 127
1, 290210, Note_off_c, 1, 59, 0
1, 290211, Note_off_c, 1, 81, 0
1, 290213, Note_on_c, 1, 84, 127
1, 290366, Note_off_c, 1, 72, 0
1, 290371, Note_off_c, 1, 84, 0
1, 290373, Note_on_c, 1, 77, 127
1, 290531, Note_off_c, 1, 77, 0
1, 290534, Note_on_c, 1, 81, 127
1, 290534, Note_on_c, 1, 60, 127
1, 290692, Note_off_c, 1, 81, 0
1, 290692, Note_off_c, 1, 60, 0
1, 290694, Note_on_c, 1, 59, 127
1, 290694, Note_on_c, 1, 75, 127
1, 290860, Note_off_c, 1, 59, 0
1, 290862, Note_on_c, 1, 78, 127
1, 290862, Note_on_c, 1, 60, 127
1, 291028, Note_off_c, 1, 78, 0
1, 291028, Note_off_c, 1, 60, 0
1, 291031, Note_on_c, 1, 71, 127
1, 291186, Note_off_c, 1, 75, 0
1, 291201, Note_on_c, 1, 57, 127
1, 291367, Note_off_c, 1, 57, 0
1, 291369, Note_on_c, 1, 55, 127
1, 291369, Note_on_c, 1, 76, 127
1, 291536, Note_off_c, 1, 71, 0
1, 291548, Note_off_c, 1, 55, 0
1, 291551, Note_on_c, 1, 69, 127
1, 291551, Note_on_c, 1, 54, 127
1, 291732, Note_off_c, 1, 69, 0
1, 291732, Note_off_c, 1, 54, 0
1, 291734, Note_on_c, 1, 67, 127
1, 291734, Note_on_c, 1, 52, 127
1, 291900, Note_off_c, 1, 76, 0
1, 291913, Note_off_c, 1, 67, 0
1, 291913, Note_off_c, 1, 52, 0
1, 291915, Note_on_c, 1, 76, 127
1, 291915, Note_on_c, 1, 78, 127
1, 291915, Note_on_c, 1, 57, 127
1, 292096, Note_off_c, 1, 76, 0
1, 292096, Note_off_c, 1, 78, 0
1, 292096, Note_off_c, 1, 57, 0
1, 292098, Note_on_c, 1, 79, 127
1, 292098, Note_on_c, 1, 59, 127
1, 292098, Note_on_c, 1, 75, 127
1, 292198, Note_off_c, 1, 79, 0
1, 292201, Note_on_c, 1, 78, 127
1, 292301, Note_off_c, 1, 78, 0
1, 292504, Note_off_c, 1, 59, 0
1, 292507, Note_on_c, 1, 47, 127
1, 292694, Note_off_c, 1, 75, 0
1, 292711, Note_on_c, 1, 76, 127
1, 292915, Note_off_c, 1, 47, 0
1, 292915, Note_off_c, 1, 76, 0
1, 292917, Note_on_c, 1, 76, 127
1, 292917, Note_on_c, 1, 40, 127
1, 295617, Note_off_c, 1, 76, 0
1, 295617, Note_off_c, 1, 40, 0
1, 296677, Note_on_c, 1, 76, 127
1, 296853, Note_off_c, 1, 76, 0
1, 296857, Note_on_c, 1, 52, 127
1, 296857, Note_on_c, 1, 71, 127
1, 296857, Note_on_c, 1, 67, 127
1, 296857, Note_on_c, 1, 76, 127
1, 297208, Note_off_c, 1, 52, 0
1, 297210, Note_on_c, 1, 40, 127
1, 297384, Note_off_c, 1, 71, 0
1, 297384, Note_off_c, 1, 67, 0
1, 297384, Note_off_c, 1, 76, 0
1, 297387, Note_on_c, 1, 74, 127
1, 297560, Note_off_c, 1, 74, 0
1, 297563, Note_on_c, 1, 72, 127
1, 297740, Note_off_c, 1, 40, 0
1, 297742, Note_off_c, 1, 72, 0
1, 297744, Note_on_c, 1, 71, 127
1, 297744, Note_on_c, 1, 52, 127
1, 297918, Note_on_c, 1, 69, 127
1, 297918, Note_on_c, 1, 54, 127
1, 297920, Note_off_c, 1, 71, 0
1, 297920, Note_off_c, 1, 52, 0
1, 298096, Note_off_c, 1, 69, 0
1, 298096, Note_off_c, 1, 54, 0
1, 298098, Note_on_c, 1, 67, 127
1, 298098, Note_on_c, 1, 55, 127
1, 298276, Note_off_c, 1, 67, 0
1, 298276, Note_off_c, 1, 55, 0
1, 298278, Note_on_c, 1, 66, 127
1, 298278, Note_on_c, 1, 57, 127
1, 298456, Note_off_c, 1, 66, 0
1, 298458, Note_on_c, 1, 76, 127
1, 298636, Note_off_c, 1, 57, 0
1, 298636, Note_off_c, 1, 76, 0
1, 298637, Note_on_c, 1, 75, 127
1, 298637, Note_on_c, 1, 54, 127
1, 298815, Note_off_c, 1, 75, 0
1, 298817, Note_on_c, 1, 81, 127
1, 298995, Note_off_c, 1, 54, 0
1, 298995, Note_off_c, 1, 81, 0
1, 298997, Note_on_c, 1, 81, 127
1, 298997, Note_on_c, 1, 59, 127
1, 299175, Note_off_c, 1, 81, 0
1, 299177, Note_on_c, 1, 79, 127
1, 299355, Note_off_c, 1, 59, 0
1, 299355, Note_off_c, 1, 79, 0
1, 299357, Note_on_c, 1, 81, 127
1, 299357, Note_on_c, 1, 47, 127
1, 299535, Note_off_c, 1, 81, 0
1, 299536, Note_on_c, 1, 78, 127
1, 299714, Note_off_c, 1, 78, 0
1, 299715, Note_off_c, 1, 47, 0
1, 299716, Note_on_c, 1, 79, 127
1, 299716, Note_on_c, 1, 59, 127
1, 299716, Note_on_c, 1, 64, 127
1, 299716, Note_on_c, 1, 52, 127
1, 299716, Note_on_c, 1, 55, 127
1, 299894, Note_off_c, 1, 79, 0
1, 299896, Note_on_c, 1, 78, 127
1, 300074, Note_off_c, 1, 78, 0
1, 300076, Note_on_c, 1, 76, 127
1, 300253, Note_off_c, 1, 59, 0
1, 300253, Note_off_c, 1, 64, 0
1, 300253, Note_off_c, 1, 52, 0
1, 300253, Note_off_c, 1, 55, 0
1, 300256, Note_on_c, 1, 62, 127
1, 300434, Note_off_c, 1, 62, 0
1, 300436, Note_on_c, 1, 60, 127
1, 300613, Note_off_c, 1, 76, 0
1, 300614, Note_off_c, 1, 60, 0
1, 300615, Note_on_c, 1, 76, 127
1, 300615, Note_on_c, 1, 59, 127
1, 300793, Note_off_c, 1, 76, 0
1, 300793, Note_off_c, 1, 59, 0
1, 300795, Note_on_c, 1, 78, 127
1, 300795, Note_on_c, 1, 57, 127
1, 300973, Note_off_c, 1, 78, 0
1, 300973, Note_off_c, 1, 57, 0
1, 300975, Note_on_c, 1, 79, 127
1, 300975, Note_on_c, 1, 55, 127
1, 301153, Note_off_c, 1, 79, 0
1, 301153, Note_off_c, 1, 55, 0
1, 301155, Note_on_c, 1, 81, 127
1, 301155, Note_on_c, 1, 54, 127
1, 301333, Note_off_c, 1, 81, 0
1, 301333, Note_off_c, 1, 54, 0
1, 301335, Note_on_c, 1, 83, 127
1, 301335, Note_on_c, 1, 64, 127
1, 301422, Note_off_c, 1, 83, 0
1, 301424, Note_on_c, 1, 84, 127
1, 301511, Note_off_c, 1, 64, 0
1, 301511, Note_off_c, 1, 84, 0
1, 301513, Note_on_c, 1, 83, 127
1, 301513, Note_on_c, 1, 63, 127
1, 301691, Note_off_c, 1, 83, 0
1, 301691, Note_off_c, 1, 63, 0
1, 301693, Note_on_c, 1, 76, 127
1, 301693, Note_on_c, 1, 69, 127
1, 301871, Note_off_c, 1, 76, 0
1, 301871, Note_off_c, 1, 69, 0
1, 301873, Note_on_c, 1, 76, 127
1, 301873, Note_on_c, 1, 69, 127
1, 301991, Note_off_c, 1, 76, 0
1, 301992, Note_on_c, 1, 75, 127
1, 302051, Note_off_c, 1, 69, 0
1, 302052, Note_on_c, 1, 67, 127
1, 302056, Note_off_c, 1, 75, 0
1, 302226, Note_off_c, 1, 67, 0
1, 302407, Note_on_c, 1, 66, 127
1, 302585, Note_off_c, 1, 66, 0
1, 302587, Note_on_c, 1, 67, 127
1, 302587, Note_on_c, 1, 76, 127
1, 302765, Note_off_c, 1, 67, 0
1, 302767, Note_on_c, 1, 66, 127
1, 302945, Note_off_c, 1, 66, 0
1, 302947, Note_on_c, 1, 64, 127
1, 303124, Note_off_c, 1, 76, 0
1, 303126, Note_on_c, 1, 84, 127
1, 303304, Note_off_c, 1, 84, 0
1, 303305, Note_off_c, 1, 64, 0
1, 303306, Note_on_c, 1, 74, 127
1, 303306, Note_on_c, 1, 66, 127
1, 303484, Note_off_c, 1, 74, 0
1, 303486, Note_on_c, 1, 84, 127
1, 303664, Note_off_c, 1, 66, 0
1, 303664, Note_off_c, 1, 84, 0
1, 303666, Note_on_c, 1, 74, 127
1, 303666, Note_on_c, 1, 68, 127
1, 303844, Note_off_c, 1, 74, 0
1, 303846, Note_on_c, 1, 83, 127
1, 304024, Note_off_c, 1, 68, 0
1, 304024, Note_off_c, 1, 83, 0
1, 304026, Note_on_c, 1, 74, 127
1, 304026, Note_on_c, 1, 69, 127
1, 304113, Note_off_c, 1, 74, 0
1, 304115, Note_on_c, 1, 72, 127
1, 304202, Note_off_c, 1, 69, 0
1, 304202, Note_off_c, 1, 72, 0
1, 304204, Note_on_c, 1, 71, 127
1, 304204, Note_on_c, 1, 67, 127
1, 304382, Note_off_c, 1, 71, 0
1, 304382, Note_off_c, 1, 67, 0
1, 304384, Note_on_c, 1, 72, 127
1, 304384, Note_on_c, 1, 66, 127
1, 304562, Note_off_c, 1, 72, 0
1, 304562, Note_off_c, 1, 66, 0
1, 304563, Note_on_c, 1, 81, 127
1, 304563, Note_on_c, 1, 64, 127
1, 304741, Note_off_c, 1, 81, 0
1, 304741, Note_off_c, 1, 64, 0
1, 304743, Note_on_c, 1, 71, 127
1, 304743, Note_on_c, 1, 63, 127
1, 304921, Note_off_c, 1, 71, 0
1, 304923, Note_on_c, 1, 81, 127
1, 305101, Note_off_c, 1, 63, 0
1, 305101, Note_off_c, 1, 81, 0
1, 305103, Note_on_c, 1, 71, 127
1, 305103, Note_on_c, 1, 64, 127
1, 305281, Note_off_c, 1, 71, 0
1, 305283, Note_on_c, 1, 79, 127
1, 305461, Note_off_c, 1, 79, 0
1, 305552, Note_on_c, 1, 69, 127
1, 305639, Note_off_c, 1, 69, 0
1, 305641, Note_on_c, 1, 67, 127
1, 305819, Note_off_c, 1, 64, 0
1, 305819, Note_off_c, 1, 67, 0
1, 305820, Note_on_c, 1, 69, 127
1, 305820, Note_on_c, 1, 63, 127
1, 305998, Note_off_c, 1, 69, 0
1, 306000, Note_on_c, 1, 78, 127
1, 306178, Note_off_c, 1, 63, 0
1, 306178, Note_off_c, 1, 78, 0
1, 306180, Note_on_c, 1, 67, 127
1, 306180, Note_on_c, 1, 64, 127
1, 306358, Note_off_c, 1, 67, 0
1, 306360, Note_on_c, 1, 78, 127
1, 306538, Note_off_c, 1, 64, 0
1, 306538, Note_off_c, 1, 78, 0
1, 306540, Note_on_c, 1, 67, 127
1, 306540, Note_on_c, 1, 52, 127
1, 306718, Note_off_c, 1, 67, 0
1, 306720, Note_on_c, 1, 76, 127
1, 306898, Note_off_c, 1, 52, 0
1, 306898, Note_off_c, 1, 76, 0
1, 306899, Note_on_c, 1, 66, 127
1, 306899, Note_on_c, 1, 59, 127
1, 307077, Note_off_c, 1, 66, 0
1, 307079, Note_on_c, 1, 76, 127
1, 307257, Note_off_c, 1, 76, 0
1, 307259, Note_on_c, 1, 75, 127
1, 307436, Note_off_c, 1, 59, 0
1, 307439, Note_on_c, 1, 57, 127
1, 307617, Note_off_c, 1, 75, 0
1, 307617, Note_off_c, 1, 57, 0
1, 307619, Note_on_c, 1, 55, 127
1, 307619, Note_on_c, 1, 76, 127
1, 307797, Note_off_c, 1, 55, 0
1, 307798, Note_on_c, 1, 74, 127
1, 307798, Note_on_c, 1, 54, 127
1, 307976, Note_off_c, 1, 74, 0
1, 307976, Note_off_c, 1, 54, 0
1, 307978, Note_on_c, 1, 73, 127
1, 307978, Note_on_c, 1, 52, 127
1, 308156, Note_off_c, 1, 73, 0
1, 308156, Note_off_c, 1, 52, 0
1, 308158, Note_on_c, 1, 71, 127
1, 308158, Note_on_c, 1, 50, 127
1, 308336, Note_off_c, 1, 71, 0
1, 308336, Note_off_c, 1, 50, 0
1, 308338, Note_on_c, 1, 49, 127
1, 308338, Note_on_c, 1, 70, 127
1, 308516, Note_off_c, 1, 49, 0
1, 308518, Note_off_c, 1, 76, 0
1, 308518, Note_on_c, 1, 79, 127
1, 308518, Note_on_c, 1, 59, 127
1, 308696, Note_off_c, 1, 79, 0
1, 308696, Note_off_c, 1, 59, 0
1, 308698, Note_on_c, 1, 78, 127
1, 308698, Note_on_c, 1, 58, 127
1, 308862, Note_off_c, 1, 70, 0
1, 308876, Note_off_c, 1, 78, 0
1, 308876, Note_off_c, 1, 58, 0
1, 308877, Note_on_c, 1, 73, 127
1, 308877, Note_on_c, 1, 76, 127
1, 308877, Note_on_c, 1, 64, 127
1, 309055, Note_off_c, 1, 73, 0
1, 309055, Note_off_c, 1, 76, 0
1, 309055, Note_off_c, 1, 64, 0
1, 309057, Note_on_c, 1, 64, 127
1, 309057, Note_on_c, 1, 71, 127
1, 309057, Note_on_c, 1, 74, 127
1, 309235, Note_off_c, 1, 64, 0
1, 309237, Note_on_c, 1, 62, 127
1, 309415, Note_off_c, 1, 71, 0
1, 309415, Note_off_c, 1, 74, 0
1, 309415, Note_off_c, 1, 62, 0
1, 309417, Note_on_c, 1, 70, 127
1, 309417, Note_on_c, 1, 64, 127
1, 309417, Note_on_c, 1, 73, 127
1, 309595, Note_off_c, 1, 70, 0
1, 309595, Note_off_c, 1, 64, 0
1, 309597, Note_on_c, 1, 61, 127
1, 309655, Note_off_c, 1, 73, 0
1, 309657, Note_on_c, 1, 71, 127
1, 309775, Note_off_c, 1, 61, 0
1, 309775, Note_off_c, 1, 71, 0
1, 309777, Note_on_c, 1, 62, 127
1, 309777, Note_on_c, 1, 71, 127
1, 309955, Note_off_c, 1, 62, 0
1, 309956, Note_on_c, 1, 59, 127
1, 310134, Note_off_c, 1, 59, 0
1, 310136, Note_on_c, 1, 61, 127
1, 310314, Note_off_c, 1, 71, 0
1, 310314, Note_off_c, 1, 61, 0
1, 310316, Note_on_c, 1, 69, 127
1, 310316, Note_on_c, 1, 62, 127
1, 310494, Note_off_c, 1, 69, 0
1, 310494, Note_off_c, 1, 62, 0
1, 310496, Note_on_c, 1, 67, 127
1, 310496, Note_on_c, 1, 64, 127
1, 310674, Note_off_c, 1, 67, 0
1, 310676, Note_on_c, 1, 66, 127
1, 310852, Note_off_c, 1, 64, 0
1, 310854, Note_off_c, 1, 66, 0
1, 310855, Note_on_c, 1, 64, 127
1, 311035, Note_on_c, 1, 62, 127
1, 311213, Note_off_c, 1, 62, 0
1, 311215, Note_on_c, 1, 61, 127
1, 311379, Note_off_c, 1, 64, 0
1, 311393, Note_off_c, 1, 61, 0
1, 311395, Note_on_c, 1, 71, 127
1, 311395, Note_on_c, 1, 62, 127
1, 311573, Note_off_c, 1, 71, 0
1, 311573, Note_off_c, 1, 62, 0
1, 311575, Note_on_c, 1, 70, 127
1, 311575, Note_on_c, 1, 61, 127
1, 311753, Note_off_c, 1, 70, 0
1, 311753, Note_off_c, 1, 61, 0
1, 311755, Note_on_c, 1, 76, 127
1, 311755, Note_on_c, 1, 59, 127
1, 311933, Note_off_c, 1, 76, 0
1, 311933, Note_off_c, 1, 59, 0
1, 311934, Note_on_c, 1, 59, 127
1, 311934, Note_on_c, 1, 76, 127
1, 312053, Note_off_c, 1, 59, 0
1, 312053, Note_on_c, 1, 58, 127
1, 312112, Note_off_c, 1, 76, 0
1, 312114, Note_on_c, 1, 74, 127
1, 312142, Note_off_c, 1, 58, 0
1, 312293, Note_off_c, 1, 74, 0
1, 312477, Note_on_c, 1, 73, 127
1, 312477, Note_on_c, 1, 58, 127
1, 312655, Note_off_c, 1, 73, 0
1, 312655, Note_off_c, 1, 58, 0
1, 312657, Note_on_c, 1, 74, 127
1, 312657, Note_on_c, 1, 59, 127
1, 312835, Note_off_c, 1, 74, 0
1, 312837, Note_on_c, 1, 73, 127
1, 313015, Note_off_c, 1, 73, 0
1, 313017, Note_on_c, 1, 71, 127
1, 313194, Note_off_c, 1, 59, 0
1, 313196, Note_on_c, 1, 67, 127
1, 313374, Note_off_c, 1, 67, 0
1, 313375, Note_off_c, 1, 71, 0
1, 313376, Note_on_c, 1, 73, 127
1, 313376, Note_on_c, 1, 57, 127
1, 313463, Note_off_c, 1, 73, 0
1, 313465, Note_on_c, 1, 75, 127
1, 313552, Note_off_c, 1, 57, 0
1, 313552, Note_off_c, 1, 75, 0
1, 313554, Note_on_c, 1, 73, 127
1, 313554, Note_on_c, 1, 67, 127
1, 313641, Note_off_c, 1, 73, 0
1, 313643, Note_on_c, 1, 75, 127
1, 313730, Note_off_c, 1, 67, 0
1, 313730, Note_off_c, 1, 75, 0
1, 313733, Note_on_c, 1, 76, 127
1, 313733, Note_on_c, 1, 57, 127
1, 313820, Note_off_c, 1, 76, 0
1, 313822, Note_on_c, 1, 75, 127
1, 313909, Note_off_c, 1, 57, 0
1, 313909, Note_off_c, 1, 75, 0
1, 313911, Note_on_c, 1, 73, 127
1, 313911, Note_on_c, 1, 66, 127
1, 313998, Note_off_c, 1, 73, 0
1, 314000, Note_on_c, 1, 75, 127
1, 314087, Note_off_c, 1, 66, 0
1, 314087, Note_off_c, 1, 75, 0
1, 314089, Note_on_c, 1, 76, 127
1, 314089, Note_on_c, 1, 55, 127
1, 314267, Note_off_c, 1, 76, 0
1, 314267, Note_off_c, 1, 55, 0
1, 314269, Note_on_c, 1, 74, 127
1, 314269, Note_on_c, 1, 54, 127
1, 314447, Note_off_c, 1, 74, 0
1, 314447, Note_off_c, 1, 54, 0
1, 314449, Note_on_c, 1, 73, 127
1, 314449, Note_on_c, 1, 55, 127
1, 314627, Note_off_c, 1, 73, 0
1, 314627, Note_off_c, 1, 55, 0
1, 314628, Note_on_c, 1, 71, 127
1, 314628, Note_on_c, 1, 64, 127
1, 314806, Note_off_c, 1, 71, 0
1, 314806, Note_off_c, 1, 64, 0
1, 314808, Note_on_c, 1, 54, 127
1, 314808, Note_on_c, 1, 70, 127
1, 314986, Note_off_c, 1, 54, 0
1, 314988, Note_on_c, 1, 64, 127
1, 315166, Note_off_c, 1, 70, 0
1, 315166, Note_off_c, 1, 64, 0
1, 315168, Note_on_c, 1, 54, 127
1, 315168, Note_on_c, 1, 71, 127
1, 315346, Note_off_c, 1, 54, 0
1, 315348, Note_on_c, 1, 62, 127
1, 315526, Note_off_c, 1, 71, 0
1, 315526, Note_off_c, 1, 62, 0
1, 315528, Note_on_c, 1, 79, 127
1, 315528, Note_on_c, 1, 52, 127
1, 315615, Note_off_c, 1, 79, 0
1, 315617, Note_on_c, 1, 78, 127
1, 315704, Note_off_c, 1, 52, 0
1, 315704, Note_off_c, 1, 78, 0
1, 315706, Note_on_c, 1, 50, 127
1, 315706, Note_on_c, 1, 79, 127
1, 315884, Note_off_c, 1, 50, 0
1, 315886, Note_on_c, 1, 52, 127
1, 316062, Note_off_c, 1, 79, 0
1, 316064, Note_off_c, 1, 52, 0
1, 316065, Note_on_c, 1, 81, 127
1, 316065, Note_on_c, 1, 61, 127
1, 316243, Note_off_c, 1, 81, 0
1, 316243, Note_off_c, 1, 61, 0
1, 316245, Note_on_c, 1, 78, 127
1, 316245, Note_on_c, 1, 50, 127
1, 316423, Note_off_c, 1, 78, 0
1, 316423, Note_off_c, 1, 50, 0
1, 316425, Note_on_c, 1, 82, 127
1, 316425, Note_on_c, 1, 61, 127
1, 316603, Note_off_c, 1, 82, 0
1, 316603, Note_off_c, 1, 61, 0
1, 316605, Note_on_c, 1, 83, 127
1, 316605, Note_on_c, 1, 50, 127
1, 316783, Note_off_c, 1, 83, 0
1, 316783, Note_off_c, 1, 50, 0
1, 316785, Note_on_c, 1, 79, 127
1, 316785, Note_on_c, 1, 59, 127
1, 316963, Note_off_c, 1, 79, 0
1, 316963, Note_off_c, 1, 59, 0
1, 316964, Note_on_c, 1, 78, 127
1, 316964, Note_on_c, 1, 49, 127
1, 317036, Note_off_c, 1, 78, 0
1, 317039, Note_on_c, 1, 76, 127
1, 317111, Note_off_c, 1, 76, 0
1, 317140, Note_off_c, 1, 49, 0
1, 317143, Note_on_c, 1, 47, 127
1, 317321, Note_off_c, 1, 47, 0
1, 317502, Note_on_c, 1, 79, 127
1, 317502, Note_on_c, 1, 59, 127
1, 317680, Note_off_c, 1, 79, 0
1, 317680, Note_off_c, 1, 59, 0
1, 317682, Note_on_c, 1, 78, 127
1, 317682, Note_on_c, 1, 58, 127
1, 317860, Note_off_c, 1, 78, 0
1, 317860, Note_off_c, 1, 58, 0
1, 317862, Note_on_c, 1, 76, 127
1, 317862, Note_on_c, 1, 56, 127
1, 318040, Note_off_c, 1, 76, 0
1, 318040, Note_off_c, 1, 56, 0
1, 318042, Note_on_c, 1, 78, 127
1, 318042, Note_on_c, 1, 58, 127
1, 318220, Note_off_c, 1, 78, 0
1, 318220, Note_off_c, 1, 58, 0
1, 318222, Note_on_c, 1, 79, 127
1, 318222, Note_on_c, 1, 61, 127
1, 318400, Note_off_c, 1, 79, 0
1, 318400, Note_off_c, 1, 61, 0
1, 318401, Note_on_c, 1, 74, 127
1, 318401, Note_on_c, 1, 52, 127
1, 318476, Note_on_c, 1, 73, 127
1, 318488, Note_off_c, 1, 74, 0
1, 318563, Note_off_c, 1, 73, 0
1, 318577, Note_off_c, 1, 52, 0
1, 318580, Note_on_c, 1, 50, 127
1, 318758, Note_off_c, 1, 50, 0
1, 318939, Note_on_c, 1, 74, 127
1, 318939, Note_on_c, 1, 59, 127
1, 319117, Note_off_c, 1, 74, 0
1, 319117, Note_off_c, 1, 59, 0
1, 319119, Note_on_c, 1, 73, 127
1, 319119, Note_on_c, 1, 58, 127
1, 319297, Note_off_c, 1, 73, 0
1, 319297, Note_off_c, 1, 58, 0
1, 319299, Note_on_c, 1, 71, 127
1, 319299, Note_on_c, 1, 56, 127
1, 319477, Note_off_c, 1, 71, 0
1, 319477, Note_off_c, 1, 56, 0
1, 319479, Note_on_c, 1, 73, 127
1, 319479, Note_on_c, 1, 58, 127
1, 319657, Note_off_c, 1, 73, 0
1, 319657, Note_off_c, 1, 58, 0
1, 319659, Note_on_c, 1, 76, 127
1, 319659, Note_on_c, 1, 61, 127
1, 319837, Note_off_c, 1, 76, 0
1, 319837, Note_off_c, 1, 61, 0
1, 319838, Note_on_c, 1, 71, 127
1, 319838, Note_on_c, 1, 55, 127
1, 319910, Note_on_c, 1, 70, 127
1, 319925, Note_off_c, 1, 71, 0
1, 319997, Note_off_c, 1, 70, 0
1, 320016, Note_off_c, 1, 55, 0
1, 320018, Note_on_c, 1, 54, 127
1, 320196, Note_off_c, 1, 54, 0
1, 320376, Note_on_c, 1, 71, 127
1, 320376, Note_on_c, 1, 59, 127
1, 320554, Note_off_c, 1, 71, 0
1, 320554, Note_off_c, 1, 59, 0
1, 320556, Note_on_c, 1, 73, 127
1, 320556, Note_on_c, 1, 58, 127
1, 320734, Note_off_c, 1, 73, 0
1, 320734, Note_off_c, 1, 58, 0
1, 320736, Note_on_c, 1, 74, 127
1, 320736, Note_on_c, 1, 56, 127
1, 320914, Note_off_c, 1, 74, 0
1, 320914, Note_off_c, 1, 56, 0
1, 320916, Note_on_c, 1, 73, 127
1, 320916, Note_on_c, 1, 58, 127
1, 321094, Note_off_c, 1, 73, 0
1, 321094, Note_off_c, 1, 58, 0
1, 321095, Note_on_c, 1, 74, 127
1, 321095, Note_on_c, 1, 61, 127
1, 321273, Note_off_c, 1, 74, 0
1, 321273, Note_off_c, 1, 61, 0
1, 321275, Note_on_c, 1, 76, 127
1, 321275, Note_on_c, 1, 54, 127
1, 321453, Note_off_c, 1, 76, 0
1, 321455, Note_on_c, 1, 79, 127
1, 321633, Note_off_c, 1, 79, 0
1, 321635, Note_on_c, 1, 78, 127
1, 321635, Note_on_c, 1, 58, 127
1, 321813, Note_off_c, 1, 78, 0
1, 321993, Note_off_c, 1, 58, 0
1, 321995, Note_on_c, 1, 74, 127
1, 321995, Note_on_c, 1, 59, 127
1, 322173, Note_off_c, 1, 74, 0
1, 322174, Note_on_c, 1, 73, 127
1, 322352, Note_off_c, 1, 73, 0
1, 322353, Note_off_c, 1, 59, 0
1, 322354, Note_on_c, 1, 71, 127
1, 322354, Note_on_c, 1, 62, 127
1, 322532, Note_off_c, 1, 71, 0
1, 322534, Note_on_c, 1, 69, 127
1, 322712, Note_off_c, 1, 62, 0
1, 322712, Note_off_c, 1, 69, 0
1, 322714, Note_on_c, 1, 68, 127
1, 322892, Note_off_c, 1, 68, 0
1, 323073, Note_on_c, 1, 77, 127
1, 323073, Note_on_c, 1, 56, 127
1, 323251, Note_off_c, 1, 77, 0
1, 323253, Note_on_c, 1, 83, 127
1, 323431, Note_off_c, 1, 56, 0
1, 323431, Note_off_c, 1, 83, 0
1, 323433, Note_on_c, 1, 66, 127
1, 323613, Note_on_c, 1, 82, 127
1, 323791, Note_off_c, 1, 66, 0
1, 323791, Note_off_c, 1, 82, 0
1, 323793, Note_on_c, 1, 65, 127
1, 323973, Note_on_c, 1, 80, 127
1, 324140, Note_off_c, 1, 54, 0
1, 324151, Note_off_c, 1, 65, 0
1, 324151, Note_off_c, 1, 80, 0
1, 324152, Note_on_c, 1, 83, 127
1, 324152, Note_on_c, 1, 66, 127
1, 324330, Note_off_c, 1, 83, 0
1, 324332, Note_on_c, 1, 82, 127
1, 324510, Note_off_c, 1, 82, 0
1, 324512, Note_on_c, 1, 80, 127
1, 324689, Note_off_c, 1, 66, 0
1, 324690, Note_off_c, 1, 80, 0
1, 324692, Note_on_c, 1, 78, 127
1, 324692, Note_on_c, 1, 52, 127
1, 324870, Note_off_c, 1, 78, 0
1, 324870, Note_off_c, 1, 52, 0
1, 324872, Note_on_c, 1, 83, 127
1, 324872, Note_on_c, 1, 50, 127
1, 325050, Note_off_c, 1, 83, 0
1, 325050, Note_off_c, 1, 50, 0
1, 325051, Note_on_c, 1, 81, 127
1, 325051, Note_on_c, 1, 49, 127
1, 325229, Note_off_c, 1, 81, 0
1, 325229, Note_off_c, 1, 49, 0
1, 325231, Note_on_c, 1, 79, 127
1, 325231, Note_on_c, 1, 47, 127
1, 325409, Note_off_c, 1, 79, 0
1, 325409, Note_off_c, 1, 47, 0
1, 325411, Note_on_c, 1, 78, 127
1, 325411, Note_on_c, 1, 45, 127
1, 325589, Note_off_c, 1, 78, 0
1, 325589, Note_off_c, 1, 45, 0
1, 325591, Note_on_c, 1, 76, 127
1, 325591, Note_on_c, 1, 43, 127
1, 325769, Note_off_c, 1, 76, 0
1, 325769, Note_off_c, 1, 43, 0
1, 325771, Note_on_c, 1, 74, 127
1, 325771, Note_on_c, 1, 54, 127
1, 325949, Note_off_c, 1, 74, 0
1, 325949, Note_off_c, 1, 54, 0
1, 325951, Note_on_c, 1, 52, 127
1, 325951, Note_on_c, 1, 73, 127
1, 326129, Note_off_c, 1, 52, 0
1, 326130, Note_on_c, 1, 74, 127
1, 326130, Note_on_c, 1, 59, 127
1, 326308, Note_off_c, 1, 74, 0
1, 326308, Note_off_c, 1, 59, 0
1, 326310, Note_on_c, 1, 76, 127
1, 326397, Note_off_c, 1, 76, 0
1, 326399, Note_off_c, 1, 73, 0
1, 326488, Note_on_c, 1, 58, 127
1, 326488, Note_on_c, 1, 76, 127
1, 326666, Note_off_c, 1, 58, 0
1, 326668, Note_on_c, 1, 59, 127
1, 326846, Note_off_c, 1, 76, 0
1, 326846, Note_off_c, 1, 59, 0
1, 326848, Note_on_c, 1, 76, 127
1, 326848, Note_on_c, 1, 56, 127
1, 327026, Note_off_c, 1, 76, 0
1, 327026, Note_off_c, 1, 56, 0
1, 327028, Note_on_c, 1, 76, 127
1, 327028, Note_on_c, 1, 73, 127
1, 327028, Note_on_c, 1, 58, 127
1, 327206, Note_off_c, 1, 76, 0
1, 327208, Note_on_c, 1, 78, 127
1, 327295, Note_off_c, 1, 78, 0
1, 327382, Note_off_c, 1, 73, 0
1, 327384, Note_off_c, 1, 58, 0
1, 327386, Note_on_c, 1, 74, 127
1, 327386, Note_on_c, 1, 59, 127
1, 327386, Note_on_c, 1, 71, 127
1, 327473, Note_off_c, 1, 74, 0
1, 327475, Note_on_c, 1, 76, 127
1, 327562, Note_off_c, 1, 59, 0
1, 327562, Note_off_c, 1, 76, 0
1, 327564, Note_on_c, 1, 78, 127
1, 327564, Note_on_c, 1, 52, 127
1, 327740, Note_off_c, 1, 71, 0
1, 327742, Note_off_c, 1, 78, 0
1, 327742, Note_off_c, 1, 52, 0
1, 327744, Note_on_c, 1, 74, 127
1, 327744, Note_on_c, 1, 54, 127
1, 327744, Note_on_c, 1, 70, 127
1, 327862, Note_off_c, 1, 74, 0
1, 327864, Note_on_c, 1, 73, 127
1, 327951, Note_off_c, 1, 73, 0
1, 328102, Note_off_c, 1, 54, 0
1, 328104, Note_on_c, 1, 42, 127
1, 328267, Note_off_c, 1, 70, 0
1, 328282, Note_on_c, 1, 71, 127
1, 328460, Note_off_c, 1, 42, 0
1, 328460, Note_off_c, 1, 71, 0
1, 328462, Note_on_c, 1, 71, 127
1, 328462, Note_on_c, 1, 47, 127
1, 328641, Note_on_c, 1, 49, 127
1, 328819, Note_off_c, 1, 49, 0
1, 328821, Note_on_c, 1, 51, 127
1, 329001, Note_on_c, 1, 69, 127
1, 329179, Note_off_c, 1, 51, 0
1, 329179, Note_off_c, 1, 69, 0
1, 329181, Note_on_c, 1, 67, 127
1, 329181, Note_on_c, 1, 52, 127
1, 329359, Note_off_c, 1, 67, 0
1, 329361, Note_on_c, 1, 66, 127
1, 329539, Note_off_c, 1, 52, 0
1, 329539, Note_off_c, 1, 66, 0
1, 329541, Note_on_c, 1, 64, 127
1, 329541, Note_on_c, 1, 54, 127
1, 329719, Note_off_c, 1, 64, 0
1, 329720, Note_on_c, 1, 62, 127
1, 329898, Note_off_c, 1, 62, 0
1, 329899, Note_off_c, 1, 54, 0
1, 329900, Note_on_c, 1, 55, 127
1, 329900, Note_on_c, 1, 61, 127
1, 330258, Note_off_c, 1, 55, 0
1, 330438, Note_off_c, 1, 71, 0
1, 330440, Note_on_c, 1, 70, 127
1, 330611, Note_off_c, 1, 61, 0
1, 330616, Note_off_c, 1, 70, 0
1, 330618, Note_on_c, 1, 63, 127
1, 331144, Note_off_c, 1, 63, 0
1, 331159, Note_on_c, 1, 78, 127
1, 331327, Note_off_c, 1, 47, 0
1, 331337, Note_off_c, 1, 78, 0
1, 331339, Note_on_c, 1, 47, 127
1, 331339, Note_on_c, 1, 78, 127
1, 331519, Note_on_c, 1, 75, 127
1, 331698, Note_on_c, 1, 71, 127
1, 331876, Note_off_c, 1, 47, 0
1, 331878, Note_on_c, 1, 49, 127
1, 332043, Note_off_c, 1, 75, 0
1, 332051, Note_off_c, 1, 78, 0
1, 332056, Note_off_c, 1, 49, 0
1, 332058, Note_on_c, 1, 51, 127
1, 332235, Note_off_c, 1, 71, 0
1, 332236, Note_off_c, 1, 51, 0
1, 332238, Note_on_c, 1, 79, 127
1, 332238, Note_on_c, 1, 52, 127
1, 332416, Note_off_c, 1, 79, 0
1, 332416, Note_off_c, 1, 52, 0
1, 332418, Note_on_c, 1, 78, 127
1, 332418, Note_on_c, 1, 54, 127
1, 332596, Note_off_c, 1, 78, 0
1, 332596, Note_off_c, 1, 54, 0
1, 332597, Note_on_c, 1, 76, 127
1, 332597, Note_on_c, 1, 55, 127
1, 332775, Note_off_c, 1, 76, 0
1, 332775, Note_off_c, 1, 55, 0
1, 332777, Note_on_c, 1, 57, 127
1, 332777, Note_on_c, 1, 75, 127
1, 332955, Note_off_c, 1, 57, 0
1, 332957, Note_on_c, 1, 51, 127
1, 333135, Note_off_c, 1, 51, 0
1, 333137, Note_on_c, 1, 54, 127
1, 333314, Note_off_c, 1, 75, 0
1, 333315, Note_off_c, 1, 54, 0
1, 333317, Note_on_c, 1, 76, 127
1, 333317, Note_on_c, 1, 57, 127
1, 333495, Note_off_c, 1, 76, 0
1, 333495, Note_off_c, 1, 57, 0
1, 333497, Note_on_c, 1, 78, 127
1, 333497, Note_on_c, 1, 60, 127
1, 333675, Note_off_c, 1, 78, 0
1, 333675, Note_off_c, 1, 60, 0
1, 333676, Note_on_c, 1, 79, 127
1, 333676, Note_on_c, 1, 59, 127
1, 333763, Note_off_c, 1, 79, 0
1, 333765, Note_on_c, 1, 81, 127
1, 333852, Note_off_c, 1, 59, 0
1, 333852, Note_off_c, 1, 81, 0
1, 333855, Note_on_c, 1, 79, 127
1, 333855, Note_on_c, 1, 64, 127
1, 334033, Note_off_c, 1, 79, 0
1, 334033, Note_off_c, 1, 64, 0
1, 334034, Note_on_c, 1, 78, 127
1, 334034, Note_on_c, 1, 63, 127
1, 334212, Note_off_c, 1, 78, 0
1, 334212, Note_off_c, 1, 63, 0
1, 334214, Note_on_c, 1, 79, 127
1, 334214, Note_on_c, 1, 64, 127
1, 334392, Note_off_c, 1, 79, 0
1, 334394, Note_on_c, 1, 78, 127
1, 334572, Note_off_c, 1, 78, 0
1, 334574, Note_on_c, 1, 76, 127
1, 334752, Note_off_c, 1, 76, 0
1, 334754, Note_on_c, 1, 66, 127
1, 334932, Note_off_c, 1, 66, 0
1, 334933, Note_on_c, 1, 67, 127
1, 335111, Note_off_c, 1, 67, 0
1, 335113, Note_on_c, 1, 69, 127
1, 335113, Note_on_c, 1, 84, 127
1, 335291, Note_off_c, 1, 69, 0
1, 335291, Note_off_c, 1, 84, 0
1, 335293, Note_on_c, 1, 83, 127
1, 335293, Note_on_c, 1, 71, 127
1, 335471, Note_off_c, 1, 83, 0
1, 335471, Note_off_c, 1, 71, 0
1, 335473, Note_on_c, 1, 72, 127
1, 335473, Note_on_c, 1, 81, 127
1, 335651, Note_off_c, 1, 72, 0
1, 335651, Note_off_c, 1, 81, 0
1, 335653, Note_on_c, 1, 80, 127
1, 335653, Note_on_c, 1, 74, 127
1, 335831, Note_off_c, 1, 80, 0
1, 336177, Note_off_c, 1, 74, 0
1, 336190, Note_off_c, 1, 64, 0
1, 336192, Note_on_c, 1, 76, 127
1, 336192, Note_on_c, 1, 64, 127
1, 336370, Note_off_c, 1, 76, 0
1, 336370, Note_off_c, 1, 64, 0
1, 336372, Note_on_c, 1, 77, 127
1, 336372, Note_on_c, 1, 59, 127
1, 336550, Note_off_c, 1, 77, 0
1, 336550, Note_off_c, 1, 59, 0
1, 336552, Note_on_c, 1, 60, 127
1, 336552, Note_on_c, 1, 76, 127
1, 336639, Note_off_c, 1, 60, 0
1, 336641, Note_on_c, 1, 62, 127
1, 336728, Note_off_c, 1, 76, 0
1, 336728, Note_off_c, 1, 62, 0
1, 336730, Note_on_c, 1, 81, 127
1, 336730, Note_on_c, 1, 60, 127
1, 336908, Note_off_c, 1, 81, 0
1, 336908, Note_off_c, 1, 60, 0
1, 336910, Note_on_c, 1, 80, 127
1, 336910, Note_on_c, 1, 59, 127
1, 337088, Note_off_c, 1, 80, 0
1, 337088, Note_off_c, 1, 59, 0
1, 337090, Note_on_c, 1, 60, 127
1, 337090, Note_on_c, 1, 81, 127
1, 337268, Note_off_c, 1, 60, 0
1, 337270, Note_on_c, 1, 59, 127
1, 337448, Note_off_c, 1, 59, 0
1, 337449, Note_on_c, 1, 57, 127
1, 337627, Note_off_c, 1, 81, 0
1, 337627, Note_off_c, 1, 57, 0
1, 337629, Note_on_c, 1, 79, 127
1, 337629, Note_on_c, 1, 45, 127
1, 337807, Note_off_c, 1, 79, 0
1, 337807, Note_off_c, 1, 45, 0
1, 337809, Note_on_c, 1, 77, 127
1, 337809, Note_on_c, 1, 57, 127
1, 337987, Note_off_c, 1, 77, 0
1, 337987, Note_off_c, 1, 57, 0
1, 337989, Note_on_c, 1, 76, 127
1, 337989, Note_on_c, 1, 47, 127
1, 338167, Note_off_c, 1, 76, 0
1, 338167, Note_off_c, 1, 47, 0
1, 338169, Note_on_c, 1, 79, 127
1, 338169, Note_on_c, 1, 57, 127
1, 338347, Note_off_c, 1, 79, 0
1, 338347, Note_off_c, 1, 57, 0
1, 338348, Note_on_c, 1, 77, 127
1, 338348, Note_on_c, 1, 49, 127
1, 338526, Note_off_c, 1, 77, 0
1, 338526, Note_off_c, 1, 49, 0
1, 338528, Note_on_c, 1, 77, 127
1, 338528, Note_on_c, 1, 58, 127
1, 338619, Note_on_c, 1, 76, 127
1, 338626, Note_off_c, 1, 77, 0
1, 338707, Note_off_c, 1, 58, 0
1, 338708, Note_off_c, 1, 76, 0
1, 338710, Note_on_c, 1, 60, 127
1, 338710, Note_on_c, 1, 77, 127
1, 338888, Note_off_c, 1, 60, 0
1, 338890, Note_on_c, 1, 58, 127
1, 339068, Note_off_c, 1, 77, 0
1, 339068, Note_off_c, 1, 58, 0
1, 339069, Note_on_c, 1, 76, 127
1, 339069, Note_on_c, 1, 49, 127
1, 339247, Note_off_c, 1, 76, 0
1, 339247, Note_off_c, 1, 49, 0
1, 339249, Note_on_c, 1, 74, 127
1, 339249, Note_on_c, 1, 58, 127
1, 339427, Note_off_c, 1, 74, 0
1, 339427, Note_off_c, 1, 58, 0
1, 339429, Note_on_c, 1, 72, 127
1, 339429, Note_on_c, 1, 50, 127
1, 339607, Note_off_c, 1, 72, 0
1, 339607, Note_off_c, 1, 50, 0
1, 339609, Note_on_c, 1, 70, 127
1, 339609, Note_on_c, 1, 61, 127
1, 339787, Note_off_c, 1, 70, 0
1, 339787, Note_off_c, 1, 61, 0
1, 339789, Note_on_c, 1, 69, 127
1, 339789, Note_on_c, 1, 52, 127
1, 339967, Note_off_c, 1, 69, 0
1, 339967, Note_off_c, 1, 52, 0
1, 339968, Note_on_c, 1, 62, 127
1, 339968, Note_on_c, 1, 68, 127
1, 340146, Note_off_c, 1, 62, 0
1, 340148, Note_on_c, 1, 64, 127
1, 340326, Note_off_c, 1, 64, 0
1, 340505, Note_off_c, 1, 68, 0
1, 340508, Note_on_c, 1, 69, 127
1, 340508, Note_on_c, 1, 52, 127
1, 340595, Note_off_c, 1, 69, 0
1, 340597, Note_on_c, 1, 71, 127
1, 340684, Note_off_c, 1, 52, 0
1, 340684, Note_off_c, 1, 71, 0
1, 340686, Note_on_c, 1, 69, 127
1, 340686, Note_on_c, 1, 62, 127
1, 340864, Note_off_c, 1, 69, 0
1, 340864, Note_off_c, 1, 62, 0
1, 340866, Note_on_c, 1, 71, 127
1, 340866, Note_on_c, 1, 54, 127
1, 340953, Note_off_c, 1, 71, 0
1, 340955, Note_on_c, 1, 72, 127
1, 341042, Note_off_c, 1, 54, 0
1, 341042, Note_off_c, 1, 72, 0
1, 341044, Note_on_c, 1, 71, 127
1, 341044, Note_on_c, 1, 62, 127
1, 341222, Note_off_c, 1, 71, 0
1, 341222, Note_off_c, 1, 62, 0
1, 341224, Note_on_c, 1, 72, 127
1, 341224, Note_on_c, 1, 56, 127
1, 341311, Note_off_c, 1, 72, 0
1, 341313, Note_on_c, 1, 74, 127
1, 341400, Note_off_c, 1, 56, 0
1, 341400, Note_off_c, 1, 74, 0
1, 341402, Note_on_c, 1, 72, 127
1, 341402, Note_on_c, 1, 57, 127
1, 341580, Note_off_c, 1, 72, 0
1, 341582, Note_on_c, 1, 71, 127
1, 341673, Note_on_c, 1, 69, 127
1, 341680, Note_off_c, 1, 71, 0
1, 341761, Note_off_c, 1, 57, 0
1, 341762, Note_off_c, 1, 69, 0
1, 341763, Note_on_c, 1, 77, 127
1, 341763, Note_on_c, 1, 50, 127
1, 341941, Note_off_c, 1, 77, 0
1, 341943, Note_on_c, 1, 76, 127
1, 342121, Note_off_c, 1, 50, 0
1, 342121, Note_off_c, 1, 76, 0
1, 342123, Note_on_c, 1, 74, 127
1, 342123, Note_on_c, 1, 52, 127
1, 342301, Note_off_c, 1, 74, 0
1, 342303, Note_on_c, 1, 72, 127
1, 342481, Note_off_c, 1, 52, 0
1, 342481, Note_off_c, 1, 72, 0
1, 342483, Note_on_c, 1, 71, 127
1, 342483, Note_on_c, 1, 40, 127
1, 342661, Note_off_c, 1, 71, 0
1, 342663, Note_on_c, 1, 69, 127
1, 342841, Note_off_c, 1, 40, 0
1, 342841, Note_off_c, 1, 69, 0
1, 342842, Note_on_c, 1, 45, 127
1, 342842, Note_on_c, 1, 60, 127
1, 342933, Note_on_c, 1, 64, 127
1, 343020, Note_off_c, 1, 45, 0
1, 343022, Note_on_c, 1, 52, 127
1, 343022, Note_on_c, 1, 69, 127
1, 343200, Note_off_c, 1, 52, 0
1, 343202, Note_on_c, 1, 57, 127
1, 343366, Note_off_c, 1, 60, 0
1, 343380, Note_off_c, 1, 69, 0
1, 343381, Note_off_c, 1, 64, 0
1, 343382, Note_on_c, 1, 59, 127
1, 343560, Note_off_c, 1, 59, 0
1, 343562, Note_on_c, 1, 61, 127
1, 343739, Note_off_c, 1, 57, 0
1, 343740, Note_off_c, 1, 61, 0
1, 343741, Note_on_c, 1, 62, 127
1, 343741, Note_on_c, 1, 57, 127
1, 343919, Note_off_c, 1, 62, 0
1, 343919, Note_off_c, 1, 57, 0
1, 343921, Note_on_c, 1, 64, 127
1, 343921, Note_on_c, 1, 55, 127
1, 344099, Note_off_c, 1, 64, 0
1, 344099, Note_off_c, 1, 55, 0
1, 344101, Note_on_c, 1, 66, 127
1, 344101, Note_on_c, 1, 54, 127
1, 344279, Note_off_c, 1, 66, 0
1, 344279, Note_off_c, 1, 54, 0
1, 344281, Note_on_c, 1, 67, 127
1, 344281, Note_on_c, 1, 52, 127
1, 344459, Note_off_c, 1, 67, 0
1, 344459, Note_off_c, 1, 52, 0
1, 344461, Note_on_c, 1, 64, 127
1, 344461, Note_on_c, 1, 55, 127
1, 344639, Note_off_c, 1, 64, 0
1, 344639, Note_off_c, 1, 55, 0
1, 344641, Note_on_c, 1, 67, 127
1, 344641, Note_on_c, 1, 52, 127
1, 344819, Note_off_c, 1, 67, 0
1, 344819, Note_off_c, 1, 52, 0
1, 344820, Note_on_c, 1, 69, 127
1, 344820, Note_on_c, 1, 49, 127
1, 344998, Note_off_c, 1, 69, 0
1, 344998, Note_off_c, 1, 49, 0
1, 345000, Note_on_c, 1, 73, 127
1, 345000, Note_on_c, 1, 45, 127
1, 345178, Note_off_c, 1, 73, 0
1, 345178, Note_off_c, 1, 45, 0
1, 345180, Note_on_c, 1, 76, 127
1, 345180, Note_on_c, 1, 49, 127
1, 345358, Note_off_c, 1, 76, 0
1, 345358, Note_off_c, 1, 49, 0
1, 345360, Note_on_c, 1, 79, 127
1, 345360, Note_on_c, 1, 47, 127
1, 345538, Note_off_c, 1, 79, 0
1, 345538, Note_off_c, 1, 47, 0
1, 345540, Note_on_c, 1, 78, 127
1, 345540, Note_on_c, 1, 45, 127
1, 345718, Note_off_c, 1, 78, 0
1, 345718, Note_off_c, 1, 45, 0
1, 345719, Note_on_c, 1, 78, 127
1, 345719, Note_on_c, 1, 50, 127
1, 345897, Note_off_c, 1, 78, 0
1, 345899, Note_on_c, 1, 76, 127
1, 346077, Note_off_c, 1, 76, 0
1, 346079, Note_on_c, 1, 74, 127
1, 346256, Note_off_c, 1, 50, 0
1, 346259, Note_on_c, 1, 52, 127
1, 346437, Note_off_c, 1, 52, 0
1, 346439, Note_on_c, 1, 54, 127
1, 346616, Note_off_c, 1, 74, 0
1, 346617, Note_off_c, 1, 54, 0
1, 346619, Note_on_c, 1, 76, 127
1, 346619, Note_on_c, 1, 55, 127
1, 346797, Note_off_c, 1, 76, 0
1, 346797, Note_off_c, 1, 55, 0
1, 346798, Note_on_c, 1, 78, 127
1, 346798, Note_on_c, 1, 57, 127
1, 346976, Note_off_c, 1, 78, 0
1, 346976, Note_off_c, 1, 57, 0
1, 346978, Note_on_c, 1, 79, 127
1, 346978, Note_on_c, 1, 59, 127
1, 347156, Note_off_c, 1, 79, 0
1, 347156, Note_off_c, 1, 59, 0
1, 347158, Note_on_c, 1, 81, 127
1, 347158, Note_on_c, 1, 60, 127
1, 347336, Note_off_c, 1, 81, 0
1, 347336, Note_off_c, 1, 60, 0
1, 347338, Note_on_c, 1, 83, 127
1, 347338, Note_on_c, 1, 54, 127
1, 347425, Note_off_c, 1, 83, 0
1, 347427, Note_on_c, 1, 84, 127
1, 347514, Note_off_c, 1, 54, 0
1, 347514, Note_off_c, 1, 84, 0
1, 347516, Note_on_c, 1, 78, 127
1, 347516, Note_on_c, 1, 57, 127
1, 347694, Note_off_c, 1, 78, 0
1, 347694, Note_off_c, 1, 57, 0
1, 347696, Note_on_c, 1, 79, 127
1, 347696, Note_on_c, 1, 60, 127
1, 347783, Note_off_c, 1, 79, 0
1, 347785, Note_on_c, 1, 81, 127
1, 347872, Note_off_c, 1, 60, 0
1, 347872, Note_off_c, 1, 81, 0
1, 347874, Note_on_c, 1, 64, 127
1, 347874, Note_on_c, 1, 74, 127
1, 348052, Note_off_c, 1, 64, 0
1, 348054, Note_on_c, 1, 62, 127
1, 348232, Note_off_c, 1, 74, 0
1, 348232, Note_off_c, 1, 62, 0
1, 348234, Note_on_c, 1, 74, 127
1, 348234, Note_on_c, 1, 67, 127
1, 348321, Note_off_c, 1, 74, 0
1, 348323, Note_on_c, 1, 72, 127
1, 348410, Note_off_c, 1, 67, 0
1, 348410, Note_off_c, 1, 72, 0
1, 348412, Note_on_c, 1, 71, 127
1, 348412, Note_on_c, 1, 66, 127
1, 348499, Note_off_c, 1, 71, 0
1, 348501, Note_on_c, 1, 72, 127
1, 348588, Note_off_c, 1, 66, 0
1, 348588, Note_off_c, 1, 72, 0
1, 348590, Note_on_c, 1, 71, 127
1, 348590, Note_on_c, 1, 67, 127
1, 348768, Note_off_c, 1, 71, 0
1, 348770, Note_on_c, 1, 74, 127
1, 348948, Note_off_c, 1, 74, 0
1, 348950, Note_on_c, 1, 76, 127
1, 349127, Note_off_c, 1, 67, 0
1, 349128, Note_off_c, 1, 76, 0
1, 349130, Note_on_c, 1, 78, 127
1, 349130, Note_on_c, 1, 66, 127
1, 349308, Note_off_c, 1, 78, 0
1, 349308, Note_off_c, 1, 66, 0
1, 349309, Note_on_c, 1, 79, 127
1, 349309, Note_on_c, 1, 64, 127
1, 349396, Note_off_c, 1, 79, 0
1, 349398, Note_on_c, 1, 78, 127
1, 349485, Note_off_c, 1, 64, 0
1, 349485, Note_off_c, 1, 78, 0
1, 349488, Note_on_c, 1, 62, 127
1, 349488, Note_on_c, 1, 79, 127
1, 349666, Note_off_c, 1, 62, 0
1, 349667, Note_on_c, 1, 60, 127
1, 349845, Note_off_c, 1, 60, 0
1, 349846, Note_off_c, 1, 79, 0
1, 349847, Note_on_c, 1, 79, 127
1, 349847, Note_on_c, 1, 59, 127
1, 350025, Note_off_c, 1, 79, 0
1, 350025, Note_off_c, 1, 59, 0
1, 350027, Note_on_c, 1, 79, 127
1, 350027, Note_on_c, 1, 57, 127
1, 350205, Note_off_c, 1, 79, 0
1, 350205, Note_off_c, 1, 57, 0
1, 350207, Note_on_c, 1, 78, 127
1, 350207, Note_on_c, 1, 59, 127
1, 350385, Note_off_c, 1, 78, 0
1, 350385, Note_off_c, 1, 59, 0
1, 350387, Note_on_c, 1, 81, 127
1, 350387, Note_on_c, 1, 60, 127
1, 350565, Note_off_c, 1, 81, 0
1, 350565, Note_off_c, 1, 60, 0
1, 350566, Note_on_c, 1, 79, 127
1, 350566, Note_on_c, 1, 59, 127
1, 350744, Note_off_c, 1, 79, 0
1, 350744, Note_off_c, 1, 59, 0
1, 350746, Note_on_c, 1, 78, 127
1, 350746, Note_on_c, 1, 57, 127
1, 350924, Note_off_c, 1, 78, 0
1, 350924, Note_off_c, 1, 57, 0
1, 350926, Note_on_c, 1, 76, 127
1, 350926, Note_on_c, 1, 55, 127
1, 351104, Note_off_c, 1, 76, 0
1, 351104, Note_off_c, 1, 55, 0
1, 351106, Note_on_c, 1, 75, 127
1, 351106, Note_on_c, 1, 54, 127
1, 351284, Note_off_c, 1, 75, 0
1, 351284, Note_off_c, 1, 54, 0
1, 351286, Note_on_c, 1, 76, 127
1, 351286, Note_on_c, 1, 52, 127
1, 351464, Note_off_c, 1, 76, 0
1, 351464, Note_off_c, 1, 52, 0
1, 351466, Note_on_c, 1, 67, 127
1, 351466, Note_on_c, 1, 59, 127
1, 351553, Note_off_c, 1, 67, 0
1, 351555, Note_on_c, 1, 66, 127
1, 351642, Note_off_c, 1, 66, 0
1, 351644, Note_on_c, 1, 64, 127
1, 351822, Note_off_c, 1, 64, 0
1, 352002, Note_off_c, 1, 59, 0
1, 352003, Note_on_c, 1, 76, 127
1, 352003, Note_on_c, 1, 60, 127
1, 352181, Note_off_c, 1, 76, 0
1, 352181, Note_off_c, 1, 60, 0
1, 352183, Note_on_c, 1, 75, 127
1, 352183, Note_on_c, 1, 59, 127
1, 352361, Note_off_c, 1, 75, 0
1, 352361, Note_off_c, 1, 59, 0
1, 352363, Note_on_c, 1, 73, 127
1, 352363, Note_on_c, 1, 57, 127
1, 352541, Note_off_c, 1, 73, 0
1, 352541, Note_off_c, 1, 57, 0
1, 352543, Note_on_c, 1, 75, 127
1, 352543, Note_on_c, 1, 59, 127
1, 352721, Note_off_c, 1, 75, 0
1, 352721, Note_off_c, 1, 59, 0
1, 352723, Note_on_c, 1, 78, 127
1, 352723, Note_on_c, 1, 60, 127
1, 352901, Note_off_c, 1, 78, 0
1, 352901, Note_off_c, 1, 60, 0
1, 352903, Note_on_c, 1, 71, 127
1, 352903, Note_on_c, 1, 54, 127
1, 352990, Note_off_c, 1, 71, 0
1, 352992, Note_on_c, 1, 69, 127
1, 353079, Note_off_c, 1, 69, 0
1, 353081, Note_on_c, 1, 67, 127
1, 353259, Note_off_c, 1, 67, 0
1, 353439, Note_off_c, 1, 54, 0
1, 353440, Note_on_c, 1, 76, 127
1, 353440, Note_on_c, 1, 55, 127
1, 353618, Note_off_c, 1, 76, 0
1, 353618, Note_off_c, 1, 55, 0
1, 353620, Note_on_c, 1, 75, 127
1, 353620, Note_on_c, 1, 54, 127
1, 353798, Note_off_c, 1, 75, 0
1, 353798, Note_off_c, 1, 54, 0
1, 353800, Note_on_c, 1, 73, 127
1, 353800, Note_on_c, 1, 52, 127
1, 353978, Note_off_c, 1, 73, 0
1, 353978, Note_off_c, 1, 52, 0
1, 353980, Note_on_c, 1, 75, 127
1, 353980, Note_on_c, 1, 54, 127
1, 354158, Note_off_c, 1, 75, 0
1, 354158, Note_off_c, 1, 54, 0
1, 354160, Note_on_c, 1, 78, 127
1, 354160, Note_on_c, 1, 57, 127
1, 354338, Note_off_c, 1, 78, 0
1, 354338, Note_off_c, 1, 57, 0
1, 354339, Note_on_c, 1, 74, 127
1, 354339, Note_on_c, 1, 51, 127
1, 354426, Note_off_c, 1, 74, 0
1, 354429, Note_on_c, 1, 72, 127
1, 354516, Note_off_c, 1, 72, 0
1, 354518, Note_on_c, 1, 71, 127
1, 354696, Note_off_c, 1, 71, 0
1, 354875, Note_off_c, 1, 51, 0
1, 354877, Note_on_c, 1, 76, 127
1, 354877, Note_on_c, 1, 52, 127
1, 355055, Note_off_c, 1, 76, 0
1, 355055, Note_off_c, 1, 52, 0
1, 355057, Note_on_c, 1, 75, 127
1, 355057, Note_on_c, 1, 54, 127
1, 355235, Note_off_c, 1, 75, 0
1, 355235, Note_off_c, 1, 54, 0
1, 355237, Note_on_c, 1, 73, 127
1, 355237, Note_on_c, 1, 55, 127
1, 355415, Note_off_c, 1, 73, 0
1, 355415, Note_off_c, 1, 55, 0
1, 355417, Note_on_c, 1, 75, 127
1, 355417, Note_on_c, 1, 54, 127
1, 355595, Note_off_c, 1, 75, 0
1, 355595, Note_off_c, 1, 54, 0
1, 355597, Note_on_c, 1, 78, 127
1, 355597, Note_on_c, 1, 55, 127
1, 355775, Note_off_c, 1, 78, 0
1, 355775, Note_off_c, 1, 55, 0
1, 355776, Note_on_c, 1, 57, 127
1, 355776, Note_on_c, 1, 71, 127
1, 355954, Note_off_c, 1, 57, 0
1, 355956, Note_on_c, 1, 60, 127
1, 356134, Note_off_c, 1, 60, 0
1, 356136, Note_on_c, 1, 59, 127
1, 356314, Note_off_c, 1, 59, 0
1, 356316, Note_on_c, 1, 75, 127
1, 356494, Note_off_c, 1, 75, 0
1, 356496, Note_on_c, 1, 76, 127
1, 356496, Note_on_c, 1, 55, 127
1, 356674, Note_off_c, 1, 76, 0
1, 356674, Note_off_c, 1, 55, 0
1, 356676, Note_on_c, 1, 78, 127
1, 356676, Note_on_c, 1, 54, 127
1, 356853, Note_off_c, 1, 71, 0
1, 356854, Note_off_c, 1, 78, 0
1, 356854, Note_off_c, 1, 54, 0
1, 356855, Note_on_c, 1, 52, 127
1, 356855, Note_on_c, 1, 79, 127
1, 357033, Note_off_c, 1, 52, 0
1, 357035, Note_on_c, 1, 71, 127
1, 357035, Note_on_c, 1, 50, 127
1, 357213, Note_off_c, 1, 71, 0
1, 357213, Note_off_c, 1, 50, 0
1, 357215, Note_on_c, 1, 49, 127
1, 357215, Note_on_c, 1, 76, 127
1, 357379, Note_off_c, 1, 79, 0
1, 357393, Note_off_c, 1, 49, 0
1, 357395, Note_on_c, 1, 78, 127
1, 357395, Note_on_c, 1, 59, 127
1, 357573, Note_off_c, 1, 78, 0
1, 357573, Note_off_c, 1, 59, 0
1, 357575, Note_on_c, 1, 58, 127
1, 357739, Note_off_c, 1, 76, 0
1, 357753, Note_off_c, 1, 58, 0
1, 357754, Note_on_c, 1, 74, 127
1, 357754, Note_on_c, 1, 76, 127
1, 357754, Note_on_c, 1, 64, 127
1, 357932, Note_off_c, 1, 74, 0
1, 357932, Note_off_c, 1, 76, 0
1, 357932, Note_off_c, 1, 64, 0
1, 357934, Note_on_c, 1, 64, 127
1, 357934, Note_on_c, 1, 72, 127
1, 358025, Note_on_c, 1, 78, 127
1, 358112, Note_off_c, 1, 64, 0
1, 358114, Note_on_c, 1, 63, 127
1, 358114, Note_on_c, 1, 81, 127
1, 358292, Note_off_c, 1, 63, 0
1, 358472, Note_off_c, 1, 81, 0
1, 358474, Note_on_c, 1, 61, 127
1, 358548, Note_off_c, 1, 78, 0
1, 358645, Note_off_c, 1, 72, 0
1, 358650, Note_off_c, 1, 61, 0
1, 358652, Note_on_c, 1, 81, 127
1, 358652, Note_on_c, 1, 71, 127
1, 358652, Note_on_c, 1, 78, 127
1, 358652, Note_on_c, 1, 63, 127
1, 358830, Note_off_c, 1, 81, 0
1, 358830, Note_off_c, 1, 71, 0
1, 358830, Note_off_c, 1, 78, 0
1, 358832, Note_on_c, 1, 84, 127
1, 359010, Note_off_c, 1, 63, 0
1, 359010, Note_off_c, 1, 84, 0
1, 359012, Note_on_c, 1, 83, 127
1, 359012, Note_on_c, 1, 59, 127
1, 359190, Note_off_c, 1, 83, 0
1, 359191, Note_on_c, 1, 81, 127
1, 359369, Note_off_c, 1, 81, 0
1, 359371, Note_on_c, 1, 79, 127
1, 359462, Note_off_c, 1, 59, 0
1, 359549, Note_off_c, 1, 79, 0
1, 359551, Note_on_c, 1, 78, 127
1, 359551, Note_on_c, 1, 64, 127
1, 359729, Note_off_c, 1, 78, 0
1, 359729, Note_off_c, 1, 64, 0
1, 359731, Note_on_c, 1, 76, 127
1, 359731, Note_on_c, 1, 66, 127
1, 359909, Note_off_c, 1, 76, 0
1, 359909, Note_off_c, 1, 66, 0
1, 359911, Note_on_c, 1, 74, 127
1, 359911, Note_on_c, 1, 67, 127
1, 360089, Note_off_c, 1, 74, 0
1, 360089, Note_off_c, 1, 67, 0
1, 360090, Note_on_c, 1, 72, 127
1, 360090, Note_on_c, 1, 69, 127
1, 360268, Note_off_c, 1, 72, 0
1, 360270, Note_on_c, 1, 83, 127
1, 360448, Note_off_c, 1, 83, 0
1, 360450, Note_on_c, 1, 81, 127
1, 360627, Note_off_c, 1, 69, 0
1, 360628, Note_off_c, 1, 81, 0
1, 360630, Note_on_c, 1, 84, 127
1, 360630, Note_on_c, 1, 67, 127
1, 360808, Note_off_c, 1, 84, 0
1, 360808, Note_off_c, 1, 67, 0
1, 360810, Note_on_c, 1, 66, 127
1, 360810, Note_on_c, 1, 76, 127
1, 360988, Note_off_c, 1, 66, 0
1, 360990, Note_on_c, 1, 75, 127
1, 360990, Note_on_c, 1, 59, 127
1, 361168, Note_off_c, 1, 75, 0
1, 361168, Note_off_c, 1, 59, 0
1, 361169, Note_on_c, 1, 73, 127
1, 361169, Note_on_c, 1, 61, 127
1, 361347, Note_off_c, 1, 73, 0
1, 361347, Note_off_c, 1, 61, 0
1, 361349, Note_on_c, 1, 71, 127
1, 361349, Note_on_c, 1, 63, 127
1, 361521, Note_off_c, 1, 76, 0
1, 361525, Note_off_c, 1, 71, 0
1, 361525, Note_off_c, 1, 63, 0
1, 361527, Note_on_c, 1, 64, 127
1, 361527, Note_on_c, 1, 71, 127
1, 361618, Note_on_c, 1, 76, 127
1, 361709, Note_on_c, 1, 79, 127
1, 361889, Note_off_c, 1, 64, 0
1, 361892, Note_on_c, 1, 57, 127
1, 362073, Note_off_c, 1, 79, 0
1, 362075, Note_on_c, 1, 81, 127
1, 362150, Note_off_c, 1, 76, 0
1, 362249, Note_off_c, 1, 71, 0
1, 362256, Note_off_c, 1, 57, 0
1, 362256, Note_off_c, 1, 81, 0
1, 362258, Note_on_c, 1, 79, 127
1, 362258, Note_on_c, 1, 59, 127
1, 362258, Note_on_c, 1, 75, 127
1, 362379, Note_off_c, 1, 79, 0
1, 362381, Note_on_c, 1, 78, 127
1, 362471, Note_off_c, 1, 78, 0
1, 362625, Note_off_c, 1, 59, 0
1, 362627, Note_on_c, 1, 47, 127
1, 362812, Note_on_c, 1, 76, 127
1, 362990, Note_off_c, 1, 75, 0
1, 362996, Note_off_c, 1, 47, 0
1, 362996, Note_off_c, 1, 76, 0
1, 362998, Note_on_c, 1, 76, 127
1, 362998, Note_on_c, 1, 52, 127
1, 363186, Note_on_c, 1, 54, 127
1, 363372, Note_off_c, 1, 54, 0
1, 363374, Note_on_c, 1, 56, 127
1, 363562, Note_on_c, 1, 74, 127
1, 363748, Note_off_c, 1, 56, 0
1, 363748, Note_off_c, 1, 74, 0
1, 363750, Note_on_c, 1, 72, 127
1, 363750, Note_on_c, 1, 57, 127
1, 363936, Note_off_c, 1, 72, 0
1, 363938, Note_on_c, 1, 71, 127
1, 364123, Note_off_c, 1, 76, 0
1, 364124, Note_off_c, 1, 57, 0
1, 364124, Note_off_c, 1, 71, 0
1, 364126, Note_on_c, 1, 69, 127
1, 364126, Note_on_c, 1, 59, 127
1, 364312, Note_off_c, 1, 69, 0
1, 364314, Note_on_c, 1, 67, 127
1, 364500, Note_off_c, 1, 59, 0
1, 364500, Note_off_c, 1, 67, 0
1, 364502, Note_on_c, 1, 60, 127
1, 364502, Note_on_c, 1, 66, 127
1, 364903, Note_off_c, 1, 60, 0
1, 365106, Note_on_c, 1, 75, 127
1, 365299, Note_off_c, 1, 66, 0
1, 365305, Note_off_c, 1, 75, 0
1, 365307, Note_on_c, 1, 68, 127
1, 367720, Note_off_c, 1, 52, 0
1, 368483, Note_off_c, 1, 68, 0
1, 369070, Note_on_c, 1, 71, 127
1, 369259, Note_off_c, 1, 71, 0
1, 369261, Note_on_c, 1, 52, 127
1, 369261, Note_on_c, 1, 71, 127
1, 369261, Note_on_c, 1, 67, 127
1, 369261, Note_on_c, 1, 64, 127
1, 369643, Note_off_c, 1, 52, 0
1, 369645, Note_on_c, 1, 40, 127
1, 369834, Note_off_c, 1, 71, 0
1, 369834, Note_off_c, 1, 67, 0
1, 369834, Note_off_c, 1, 64, 0
1, 369836, Note_on_c, 1, 72, 127
1, 370025, Note_off_c, 1, 72, 0
1, 370203, Note_off_c, 1, 40, 0
1, 370220, Note_on_c, 1, 69, 127
1, 370409, Note_off_c, 1, 69, 0
1, 370411, Note_on_c, 1, 67, 127
1, 370600, Note_off_c, 1, 67, 0
1, 370603, Note_on_c, 1, 66, 127
1, 370792, Note_off_c, 1, 66, 0
1, 370794, Note_on_c, 1, 64, 127
1, 370983, Note_off_c, 1, 64, 0
1, 370985, Note_on_c, 1, 63, 127
1, 371176, Note_on_c, 1, 72, 127
1, 371176, Note_on_c, 1, 69, 127
1, 371543, Note_off_c, 1, 63, 0
1, 371558, Note_off_c, 1, 72, 0
1, 371558, Note_off_c, 1, 69, 0
1, 371560, Note_on_c, 1, 64, 127
1, 371656, Note_on_c, 1, 67, 127
1, 371751, Note_on_c, 1, 52, 127
1, 371751, Note_on_c, 1, 71, 127
1, 371940, Note_off_c, 1, 52, 0
1, 371942, Note_on_c, 1, 54, 127
1, 372118, Note_off_c, 1, 64, 0
1, 372133, Note_off_c, 1, 71, 0
1, 372133, Note_off_c, 1, 54, 0
1, 372135, Note_off_c, 1, 67, 0
1, 372135, Note_on_c, 1, 79, 127
1, 372135, Note_on_c, 1, 55, 127
1, 372324, Note_off_c, 1, 79, 0
1, 372324, Note_off_c, 1, 55, 0
1, 372326, Note_on_c, 1, 78, 127
1, 372326, Note_on_c, 1, 57, 127
1, 372515, Note_off_c, 1, 78, 0
1, 372515, Note_off_c, 1, 57, 0
1, 372517, Note_on_c, 1, 76, 127
1, 372517, Note_on_c, 1, 59, 127
1, 372706, Note_off_c, 1, 76, 0
1, 372706, Note_off_c, 1, 59, 0
1, 372709, Note_on_c, 1, 75, 127
1, 372709, Note_on_c, 1, 60, 127
1, 372898, Note_off_c, 1, 75, 0
1, 372898, Note_off_c, 1, 60, 0
1, 372900, Note_on_c, 1, 76, 127
1, 372900, Note_on_c, 1, 59, 127
1, 373089, Note_off_c, 1, 76, 0
1, 373089, Note_off_c, 1, 59, 0
1, 373091, Note_on_c, 1, 78, 127
1, 373091, Note_on_c, 1, 57, 127
1, 373235, Note_on_c, 1, 76, 127
1, 373241, Note_off_c, 1, 78, 0
1, 373282, Note_off_c, 1, 57, 0
1, 373284, Note_on_c, 1, 55, 127
1, 373330, Note_off_c, 1, 76, 0
1, 373475, Note_off_c, 1, 55, 0
1, 373477, Note_on_c, 1, 54, 127
1, 373666, Note_off_c, 1, 54, 0
1, 373668, Note_on_c, 1, 75, 127
1, 373668, Note_on_c, 1, 52, 127
1, 373761, Note_off_c, 1, 75, 0
1, 373763, Note_on_c, 1, 76, 127
1, 373856, Note_off_c, 1, 76, 0
1, 373857, Note_off_c, 1, 52, 0
1, 373859, Note_on_c, 1, 78, 127
1, 373859, Note_on_c, 1, 59, 127
1, 374241, Note_off_c, 1, 78, 0
1, 374243, Note_on_c, 1, 71, 127
1, 374432, Note_off_c, 1, 59, 0
1, 374434, Note_on_c, 1, 60, 127
1, 374623, Note_off_c, 1, 71, 0
1, 374623, Note_off_c, 1, 60, 0
1, 374625, Note_on_c, 1, 59, 127
1, 374625, Note_on_c, 1, 67, 127
1, 374721, Note_on_c, 1, 71, 127
1, 374814, Note_off_c, 1, 59, 0
1, 374816, Note_on_c, 1, 57, 127
1, 374816, Note_on_c, 1, 76, 127
1, 375005, Note_off_c, 1, 57, 0
1, 375007, Note_on_c, 1, 55, 127
1, 375183, Note_off_c, 1, 67, 0
1, 375198, Note_off_c, 1, 76, 0
1, 375198, Note_off_c, 1, 55, 0
1, 375200, Note_off_c, 1, 71, 0
1, 375200, Note_on_c, 1, 78, 127
1, 375200, Note_on_c, 1, 54, 127
1, 375389, Note_off_c, 1, 78, 0
1, 375389, Note_off_c, 1, 54, 0
1, 375391, Note_on_c, 1, 79, 127
1, 375391, Note_on_c, 1, 52, 127
1, 375518, Note_off_c, 1, 79, 0
1, 375518, Note_on_c, 1, 78, 127
1, 375580, Note_off_c, 1, 52, 0
1, 375583, Note_on_c, 1, 51, 127
1, 375610, Note_off_c, 1, 78, 0
1, 375774, Note_on_c, 1, 60, 127
1, 375965, Note_on_c, 1, 76, 127
1, 376058, Note_off_c, 1, 76, 0
1, 376140, Note_off_c, 1, 51, 0
1, 376154, Note_off_c, 1, 60, 0
1, 376156, Note_on_c, 1, 79, 127
1, 376156, Note_on_c, 1, 59, 127
1, 376156, Note_on_c, 1, 52, 127
1, 376538, Note_off_c, 1, 79, 0
1, 376540, Note_on_c, 1, 71, 127
1, 376729, Note_off_c, 1, 59, 0
1, 376729, Note_off_c, 1, 52, 0
1, 376731, Note_on_c, 1, 53, 127
1, 376920, Note_off_c, 1, 71, 0
1, 376920, Note_off_c, 1, 53, 0
1, 376922, Note_on_c, 1, 52, 127
1, 376922, Note_on_c, 1, 64, 127
1, 377018, Note_on_c, 1, 68, 127
1, 377111, Note_off_c, 1, 52, 0
1, 377113, Note_on_c, 1, 50, 127
1, 377113, Note_on_c, 1, 71, 127
1, 377209, Note_on_c, 1, 76, 127
1, 377302, Note_off_c, 1, 50, 0
1, 377305, Note_on_c, 1, 48, 127
1, 377480, Note_off_c, 1, 64, 0
1, 377492, Note_off_c, 1, 71, 0
1, 377494, Note_off_c, 1, 76, 0
1, 377494, Note_off_c, 1, 48, 0
1, 377495, Note_off_c, 1, 68, 0
1, 377496, Note_on_c, 1, 74, 127
1, 377496, Note_on_c, 1, 47, 127
1, 377685, Note_off_c, 1, 74, 0
1, 377685, Note_off_c, 1, 47, 0
1, 377687, Note_on_c, 1, 74, 127
1, 377687, Note_on_c, 1, 45, 127
1, 377832, Note_off_c, 1, 74, 0
1, 377833, Note_on_c, 1, 72, 127
1, 377876, Note_off_c, 1, 45, 0
1, 377878, Note_on_c, 1, 44, 127
1, 377926, Note_off_c, 1, 72, 0
1, 378071, Note_on_c, 1, 53, 127
1, 378262, Note_on_c, 1, 71, 127
1, 378438, Note_off_c, 1, 44, 0
1, 378453, Note_off_c, 1, 53, 0
1, 378453, Note_off_c, 1, 71, 0
1, 378455, Note_on_c, 1, 45, 127
1, 378455, Note_on_c, 1, 72, 127
1, 378646, Note_on_c, 1, 52, 127
1, 378834, Note_off_c, 1, 45, 0
1, 378835, Note_off_c, 1, 52, 0
1, 378837, Note_on_c, 1, 57, 127
1, 379026, Note_off_c, 1, 72, 0
1, 379026, Note_off_c, 1, 57, 0
1, 379028, Note_on_c, 1, 71, 127
1, 379028, Note_on_c, 1, 59, 127
1, 379217, Note_off_c, 1, 71, 0
1, 379217, Note_off_c, 1, 59, 0
1, 379219, Note_on_c, 1, 69, 127
1, 379219, Note_on_c, 1, 60, 127
1, 379408, Note_off_c, 1, 69, 0
1, 379408, Note_off_c, 1, 60, 0
1, 379411, Note_on_c, 1, 67, 127
1, 379411, Note_on_c, 1, 62, 127
1, 379600, Note_off_c, 1, 67, 0
1, 379600, Note_off_c, 1, 62, 0
1, 379602, Note_on_c, 1, 66, 127
1, 379602, Note_on_c, 1, 64, 127
1, 379791, Note_off_c, 1, 66, 0
1, 379791, Note_off_c, 1, 64, 0
1, 379793, Note_on_c, 1, 67, 127
1, 379793, Note_on_c, 1, 62, 127
1, 379982, Note_off_c, 1, 67, 0
1, 379982, Note_off_c, 1, 62, 0
1, 379984, Note_on_c, 1, 69, 127
1, 379984, Note_on_c, 1, 60, 127
1, 380115, Note_off_c, 1, 69, 0
1, 380115, Note_on_c, 1, 67, 127
1, 380173, Note_off_c, 1, 60, 0
1, 380175, Note_on_c, 1, 59, 127
1, 380208, Note_off_c, 1, 67, 0
1, 380364, Note_off_c, 1, 59, 0
1, 380366, Note_on_c, 1, 57, 127
1, 380555, Note_off_c, 1, 57, 0
1, 380558, Note_on_c, 1, 66, 127
1, 380558, Note_on_c, 1, 55, 127
1, 380651, Note_off_c, 1, 66, 0
1, 380653, Note_on_c, 1, 67, 127
1, 380746, Note_off_c, 1, 67, 0
1, 380747, Note_off_c, 1, 55, 0
1, 380749, Note_on_c, 1, 62, 127
1, 380749, Note_on_c, 1, 69, 127
1, 380749, Note_on_c, 1, 66, 127
1, 381131, Note_off_c, 1, 62, 0
1, 381133, Note_on_c, 1, 50, 127
1, 381322, Note_off_c, 1, 69, 0
1, 381322, Note_off_c, 1, 66, 0
1, 381324, Note_on_c, 1, 81, 127
1, 381513, Note_off_c, 1, 81, 0
1, 381515, Note_on_c, 1, 79, 127
1, 381704, Note_off_c, 1, 79, 0
1, 381706, Note_on_c, 1, 78, 127
1, 381889, Note_off_c, 1, 50, 0
1, 381895, Note_off_c, 1, 78, 0
1, 381897, Note_on_c, 1, 76, 127
1, 382086, Note_off_c, 1, 76, 0
1, 382088, Note_on_c, 1, 74, 127
1, 382277, Note_off_c, 1, 74, 0
1, 382280, Note_on_c, 1, 72, 127
1, 382469, Note_off_c, 1, 72, 0
1, 382471, Note_on_c, 1, 71, 127
1, 382662, Note_on_c, 1, 66, 127
1, 382662, Note_on_c, 1, 62, 127
1, 382749, Note_off_c, 1, 71, 0
1, 382758, Note_on_c, 1, 69, 127
1, 382853, Note_on_c, 1, 72, 127
1, 382949, Note_on_c, 1, 81, 127
1, 383041, Note_off_c, 1, 66, 0
1, 383042, Note_off_c, 1, 62, 0
1, 383042, Note_off_c, 1, 72, 0
1, 383042, Note_off_c, 1, 81, 0
1, 383044, Note_on_c, 1, 67, 127
1, 383056, Note_off_c, 1, 69, 0
1, 383423, Note_off_c, 1, 67, 0
1, 383427, Note_on_c, 1, 50, 127
1, 383618, Note_on_c, 1, 79, 127
1, 383807, Note_off_c, 1, 79, 0
1, 383809, Note_on_c, 1, 78, 127
1, 383998, Note_off_c, 1, 78, 0
1, 384000, Note_on_c, 1, 76, 127
1, 384189, Note_off_c, 1, 76, 0
1, 384191, Note_on_c, 1, 74, 127
1, 384380, Note_off_c, 1, 74, 0
1, 384572, Note_off_c, 1, 50, 0
1, 384574, Note_on_c, 1, 71, 127
1, 384763, Note_off_c, 1, 71, 0
1, 384765, Note_on_c, 1, 69, 127
1, 384954, Note_off_c, 1, 69, 0
1, 384956, Note_on_c, 1, 67, 127
1, 384956, Note_on_c, 1, 62, 127
1, 385051, Note_on_c, 1, 71, 127
1, 385147, Note_on_c, 1, 79, 127
1, 385334, Note_off_c, 1, 71, 0
1, 385335, Note_off_c, 1, 67, 0
1, 385336, Note_off_c, 1, 62, 0
1, 385336, Note_off_c, 1, 79, 0
1, 385338, Note_on_c, 1, 71, 127
1, 385338, Note_on_c, 1, 66, 127
1, 385338, Note_on_c, 1, 62, 127
1, 385527, Note_off_c, 1, 71, 0
1, 385529, Note_on_c, 1, 69, 127
1, 385717, Note_off_c, 1, 66, 0
1, 385718, Note_off_c, 1, 62, 0
1, 385720, Note_on_c, 1, 50, 127
1, 385909, Note_off_c, 1, 69, 0
1, 385912, Note_on_c, 1, 72, 127
1, 386101, Note_off_c, 1, 72, 0
1, 386485, Note_on_c, 1, 67, 127
1, 386674, Note_off_c, 1, 67, 0
1, 386865, Note_off_c, 1, 50, 0
1, 386867, Note_on_c, 1, 64, 127
1, 387056, Note_off_c, 1, 64, 0
1, 387059, Note_on_c, 1, 62, 127
1, 387059, Note_on_c, 1, 50, 127
1, 387248, Note_off_c, 1, 62, 0
1, 387248, Note_off_c, 1, 50, 0
1, 387250, Note_on_c, 1, 52, 127
1, 387250, Note_on_c, 1, 72, 127
1, 387439, Note_off_c, 1, 52, 0
1, 387441, Note_on_c, 1, 54, 127
1, 387630, Note_off_c, 1, 72, 0
1, 387630, Note_off_c, 1, 54, 0
1, 387632, Note_on_c, 1, 55, 127
1, 387632, Note_on_c, 1, 72, 127
1, 387821, Note_off_c, 1, 55, 0
1, 387823, Note_on_c, 1, 57, 127
1, 387839, Note_off_c, 1, 72, 0
1, 387843, Note_on_c, 1, 71, 127
1, 387936, Note_off_c, 1, 71, 0
1, 388012, Note_off_c, 1, 57, 0
1, 388206, Note_on_c, 1, 69, 127
1, 388206, Note_on_c, 1, 54, 127
1, 388395, Note_off_c, 1, 69, 0
1, 388395, Note_off_c, 1, 54, 0
1, 388397, Note_on_c, 1, 67, 127
1, 388397, Note_on_c, 1, 52, 127
1, 388586, Note_off_c, 1, 67, 0
1, 388586, Note_off_c, 1, 52, 0
1, 388588, Note_on_c, 1, 66, 127
1, 388588, Note_on_c, 1, 50, 127
1, 388777, Note_off_c, 1, 66, 0
1, 388777, Note_off_c, 1, 50, 0
1, 388779, Note_on_c, 1, 67, 127
1, 388779, Note_on_c, 1, 52, 127
1, 388968, Note_off_c, 1, 67, 0
1, 388968, Note_off_c, 1, 52, 0
1, 388970, Note_on_c, 1, 69, 127
1, 388970, Note_on_c, 1, 48, 127
1, 389159, Note_off_c, 1, 69, 0
1, 389159, Note_off_c, 1, 48, 0
1, 389161, Note_on_c, 1, 71, 127
1, 389161, Note_on_c, 1, 50, 127
1, 389161, Note_on_c, 1, 66, 127
1, 389441, Note_off_c, 1, 71, 0
1, 389450, Note_on_c, 1, 69, 127
1, 389543, Note_off_c, 1, 50, 0
1, 389543, Note_off_c, 1, 69, 0
1, 389545, Note_on_c, 1, 38, 127
1, 389736, Note_on_c, 1, 67, 127
1, 389829, Note_off_c, 1, 67, 0
1, 389919, Note_off_c, 1, 66, 0
1, 389925, Note_off_c, 1, 38, 0
1, 389928, Note_on_c, 1, 67, 127
1, 389928, Note_on_c, 1, 43, 127
1, 390310, Note_off_c, 1, 67, 0
1, 390310, Note_off_c, 1, 43, 0
1, 390312, Note_on_c, 1, 55, 127
1, 390312, Note_on_c, 1, 71, 127
1, 390501, Note_off_c, 1, 55, 0
1, 390503, Note_on_c, 1, 57, 127
1, 390692, Note_off_c, 1, 71, 0
1, 390692, Note_off_c, 1, 57, 0
1, 390694, Note_on_c, 1, 76, 127
1, 390694, Note_on_c, 1, 55, 127
1, 390787, Note_off_c, 1, 76, 0
1, 390789, Note_on_c, 1, 74, 127
1, 390882, Note_off_c, 1, 74, 0
1, 390883, Note_off_c, 1, 55, 0
1, 390885, Note_on_c, 1, 54, 127
1, 390885, Note_on_c, 1, 76, 127
1, 391074, Note_off_c, 1, 54, 0
1, 391076, Note_on_c, 1, 52, 127
1, 391265, Note_off_c, 1, 76, 0
1, 391265, Note_off_c, 1, 52, 0
1, 391267, Note_on_c, 1, 78, 127
1, 391267, Note_on_c, 1, 50, 127
1, 391456, Note_off_c, 1, 78, 0
1, 391456, Note_off_c, 1, 50, 0
1, 391459, Note_on_c, 1, 79, 127
1, 391459, Note_on_c, 1, 49, 127
1, 391648, Note_off_c, 1, 79, 0
1, 391648, Note_off_c, 1, 49, 0
1, 391650, Note_on_c, 1, 76, 127
1, 391650, Note_on_c, 1, 47, 127
1, 391839, Note_off_c, 1, 76, 0
1, 391841, Note_on_c, 1, 73, 127
1, 391841, Note_on_c, 1, 55, 127
1, 392030, Note_off_c, 1, 73, 0
1, 392032, Note_on_c, 1, 74, 127
1, 392208, Note_off_c, 1, 47, 0
1, 392223, Note_off_c, 1, 55, 0
1, 392223, Note_off_c, 1, 74, 0
1, 392225, Note_on_c, 1, 76, 127
1, 392225, Note_on_c, 1, 46, 127
1, 392225, Note_on_c, 1, 54, 127
1, 392414, Note_off_c, 1, 76, 0
1, 392416, Note_on_c, 1, 79, 127
1, 392605, Note_off_c, 1, 46, 0
1, 392605, Note_off_c, 1, 79, 0
1, 392607, Note_on_c, 1, 78, 127
1, 392607, Note_on_c, 1, 42, 127
1, 392796, Note_off_c, 1, 78, 0
1, 392987, Note_off_c, 1, 42, 0
1, 392989, Note_on_c, 1, 74, 127
1, 392989, Note_on_c, 1, 47, 127
1, 393178, Note_off_c, 1, 74, 0
1, 393181, Note_on_c, 1, 73, 127
1, 393369, Note_off_c, 1, 47, 0
1, 393370, Note_off_c, 1, 54, 0
1, 393372, Note_on_c, 1, 83, 127
1, 393372, Note_on_c, 1, 55, 127
1, 393372, Note_on_c, 1, 52, 127
1, 393739, Note_off_c, 1, 73, 0
1, 393754, Note_off_c, 1, 83, 0
1, 393754, Note_off_c, 1, 55, 0
1, 393754, Note_off_c, 1, 52, 0
1, 393756, Note_on_c, 1, 74, 127
1, 393756, Note_on_c, 1, 54, 127
1, 393756, Note_on_c, 1, 70, 127
1, 393882, Note_off_c, 1, 74, 0
1, 393884, Note_on_c, 1, 73, 127
1, 393977, Note_off_c, 1, 73, 0
1, 394139, Note_off_c, 1, 54, 0
1, 394141, Note_on_c, 1, 42, 127
1, 394318, Note_off_c, 1, 70, 0
1, 394334, Note_on_c, 1, 71, 127
1, 394523, Note_off_c, 1, 42, 0
1, 394523, Note_off_c, 1, 71, 0
1, 394525, Note_on_c, 1, 71, 127
1, 394525, Note_on_c, 1, 47, 127
1, 394909, Note_on_c, 1, 51, 127
1, 395291, Note_off_c, 1, 51, 0
1, 395293, Note_on_c, 1, 54, 127
1, 395675, Note_off_c, 1, 54, 0
1, 395677, Note_on_c, 1, 63, 127
1, 395677, Note_on_c, 1, 66, 127
1, 395677, Note_on_c, 1, 59, 127
1, 396059, Note_off_c, 1, 71, 0
1, 396059, Note_off_c, 1, 47, 0
1, 396445, Note_on_c, 1, 78, 127
1, 396477, Note_off_c, 1, 63, 0
1, 396477, Note_off_c, 1, 66, 0
1, 396820, Note_off_c, 1, 78, 0
1, 396825, Note_off_c, 1, 59, 0
1, 396827, Note_on_c, 1, 78, 127
1, 396827, Note_on_c, 1, 71, 127
1, 396827, Note_on_c, 1, 75, 127
1, 396827, Note_on_c, 1, 59, 127
1, 397209, Note_off_c, 1, 78, 0
1, 397209, Note_off_c, 1, 71, 0
1, 397209, Note_off_c, 1, 75, 0
1, 397211, Note_on_c, 1, 76, 127
1, 397400, Note_off_c, 1, 59, 0
1, 397400, Note_off_c, 1, 76, 0
1, 397402, Note_on_c, 1, 75, 127
1, 397402, Note_on_c, 1, 47, 127
1, 397591, Note_off_c, 1, 75, 0
1, 397591, Note_off_c, 1, 47, 0
1, 397593, Note_on_c, 1, 73, 127
1, 397593, Note_on_c, 1, 49, 127
1, 397782, Note_off_c, 1, 73, 0
1, 397782, Note_off_c, 1, 49, 0
1, 397785, Note_on_c, 1, 71, 127
1, 397785, Note_on_c, 1, 51, 127
1, 397974, Note_off_c, 1, 71, 0
1, 397974, Note_off_c, 1, 51, 0
1, 397976, Note_on_c, 1, 73, 127
1, 397976, Note_on_c, 1, 52, 127
1, 398165, Note_off_c, 1, 73, 0
1, 398165, Note_off_c, 1, 52, 0
1, 398167, Note_on_c, 1, 75, 127
1, 398167, Note_on_c, 1, 54, 127
1, 398356, Note_off_c, 1, 75, 0
1, 398356, Note_off_c, 1, 54, 0
1, 398358, Note_on_c, 1, 76, 127
1, 398358, Note_on_c, 1, 55, 127
1, 398547, Note_off_c, 1, 76, 0
1, 398547, Note_off_c, 1, 55, 0
1, 398549, Note_on_c, 1, 78, 127
1, 398549, Note_on_c, 1, 57, 127
1, 398738, Note_off_c, 1, 78, 0
1, 398740, Note_on_c, 1, 79, 127
1, 398740, Note_on_c, 1, 51, 127
1, 398833, Note_off_c, 1, 79, 0
1, 398932, Note_on_c, 1, 76, 127
1, 399025, Note_off_c, 1, 76, 0
1, 399106, Note_off_c, 1, 57, 0
1, 399120, Note_off_c, 1, 51, 0
1, 399123, Note_on_c, 1, 52, 127
1, 399123, Note_on_c, 1, 71, 127
1, 399218, Note_on_c, 1, 76, 127
1, 399312, Note_off_c, 1, 52, 0
1, 399314, Note_on_c, 1, 54, 127
1, 399314, Note_on_c, 1, 79, 127
1, 399503, Note_off_c, 1, 54, 0
1, 399681, Note_off_c, 1, 71, 0
1, 399696, Note_off_c, 1, 79, 0
1, 399697, Note_off_c, 1, 76, 0
1, 399698, Note_on_c, 1, 64, 127
1, 399698, Note_on_c, 1, 50, 127
1, 399887, Note_off_c, 1, 64, 0
1, 399887, Note_off_c, 1, 50, 0
1, 399889, Note_on_c, 1, 66, 127
1, 399889, Note_on_c, 1, 48, 127
1, 400078, Note_off_c, 1, 66, 0
1, 400078, Note_off_c, 1, 48, 0
1, 400080, Note_on_c, 1, 68, 127
1, 400080, Note_on_c, 1, 47, 127
1, 400269, Note_off_c, 1, 68, 0
1, 400269, Note_off_c, 1, 47, 0
1, 400271, Note_on_c, 1, 69, 127
1, 400271, Note_on_c, 1, 45, 127
1, 400460, Note_off_c, 1, 69, 0
1, 400460, Note_off_c, 1, 45, 0
1, 400462, Note_on_c, 1, 71, 127
1, 400462, Note_on_c, 1, 44, 127
1, 400651, Note_off_c, 1, 71, 0
1, 400651, Note_off_c, 1, 44, 0
1, 400654, Note_on_c, 1, 72, 127
1, 400654, Note_on_c, 1, 42, 127
1, 400843, Note_off_c, 1, 72, 0
1, 400843, Note_off_c, 1, 42, 0
1, 400845, Note_on_c, 1, 74, 127
1, 400845, Note_on_c, 1, 40, 127
1, 401036, Note_on_c, 1, 68, 127
1, 401036, Note_on_c, 1, 52, 127
1, 401224, Note_off_c, 1, 74, 0
1, 401403, Note_off_c, 1, 40, 0
1, 401415, Note_off_c, 1, 68, 0
1, 401418, Note_on_c, 1, 45, 127
1, 401418, Note_on_c, 1, 69, 127
1, 401594, Note_off_c, 1, 52, 0
1, 401611, Note_on_c, 1, 56, 127
1, 401611, Note_on_c, 1, 72, 127
1, 401800, Note_off_c, 1, 56, 0
1, 401802, Note_on_c, 1, 57, 127
1, 401978, Note_off_c, 1, 45, 0
1, 401993, Note_off_c, 1, 72, 0
1, 401995, Note_on_c, 1, 47, 127
1, 402177, Note_off_c, 1, 69, 0
1, 402184, Note_off_c, 1, 47, 0
1, 402186, Note_on_c, 1, 76, 127
1, 402186, Note_on_c, 1, 48, 127
1, 402375, Note_off_c, 1, 76, 0
1, 402566, Note_off_c, 1, 48, 0
1, 402568, Note_on_c, 1, 50, 127
1, 402760, Note_on_c, 1, 77, 127
1, 402948, Note_off_c, 1, 57, 0
1, 402948, Note_off_c, 1, 50, 0
1, 402949, Note_off_c, 1, 77, 0
1, 402951, Note_on_c, 1, 72, 127
1, 402951, Note_on_c, 1, 68, 127
1, 402951, Note_on_c, 1, 52, 127
1, 403072, Note_off_c, 1, 72, 0
1, 403076, Note_on_c, 1, 71, 127
1, 403169, Note_off_c, 1, 71, 0
1, 403333, Note_on_c, 1, 40, 127
1, 403509, Note_off_c, 1, 68, 0
1, 403526, Note_on_c, 1, 69, 127
1, 403709, Note_off_c, 1, 52, 0
1, 403715, Note_off_c, 1, 40, 0
1, 403715, Note_off_c, 1, 69, 0
1, 403717, Note_on_c, 1, 45, 127
1, 403717, Note_on_c, 1, 60, 127
1, 403813, Note_on_c, 1, 64, 127
1, 403908, Note_on_c, 1, 69, 127
1, 404097, Note_off_c, 1, 45, 0
1, 404099, Note_on_c, 1, 57, 127
1, 404275, Note_off_c, 1, 60, 0
1, 404290, Note_off_c, 1, 69, 0
1, 404292, Note_off_c, 1, 64, 0
1, 404292, Note_on_c, 1, 71, 127
1, 404481, Note_off_c, 1, 57, 0
1, 404481, Note_off_c, 1, 71, 0
1, 404483, Note_on_c, 1, 73, 127
1, 404483, Note_on_c, 1, 55, 127
1, 404672, Note_off_c, 1, 73, 0
1, 404674, Note_on_c, 1, 74, 127
1, 404863, Note_off_c, 1, 55, 0
1, 404863, Note_off_c, 1, 74, 0
1, 404866, Note_on_c, 1, 76, 127
1, 404866, Note_on_c, 1, 54, 127
1, 405055, Note_off_c, 1, 76, 0
1, 405057, Note_on_c, 1, 78, 127
1, 405246, Note_off_c, 1, 54, 0
1, 405246, Note_off_c, 1, 78, 0
1, 405248, Note_on_c, 1, 79, 127
1, 405248, Note_on_c, 1, 52, 127
1, 405437, Note_off_c, 1, 79, 0
1, 405439, Note_on_c, 1, 81, 127
1, 405628, Note_off_c, 1, 52, 0
1, 405630, Note_on_c, 1, 74, 127
1, 405630, Note_on_c, 1, 72, 127
1, 405630, Note_on_c, 1, 54, 127
1, 405818, Note_off_c, 1, 81, 0
1, 406009, Note_off_c, 1, 74, 0
1, 406009, Note_off_c, 1, 72, 0
1, 406010, Note_off_c, 1, 54, 0
1, 406013, Note_on_c, 1, 83, 127
1, 406013, Note_on_c, 1, 55, 127
1, 406202, Note_off_c, 1, 83, 0
1, 406204, Note_on_c, 1, 84, 127
1, 406393, Note_off_c, 1, 84, 0
1, 406584, Note_off_c, 1, 55, 0
1, 406586, Note_on_c, 1, 81, 127
1, 406586, Note_on_c, 1, 57, 127
1, 406775, Note_off_c, 1, 81, 0
1, 406775, Note_off_c, 1, 57, 0
1, 406777, Note_on_c, 1, 79, 127
1, 406777, Note_on_c, 1, 59, 127
1, 406966, Note_off_c, 1, 79, 0
1, 406966, Note_off_c, 1, 59, 0
1, 406968, Note_on_c, 1, 78, 127
1, 406968, Note_on_c, 1, 57, 127
1, 407157, Note_off_c, 1, 78, 0
1, 407157, Note_off_c, 1, 57, 0
1, 407160, Note_on_c, 1, 76, 127
1, 407160, Note_on_c, 1, 55, 127
1, 407349, Note_off_c, 1, 76, 0
1, 407349, Note_off_c, 1, 55, 0
1, 407351, Note_on_c, 1, 74, 127
1, 407351, Note_on_c, 1, 54, 127
1, 407540, Note_off_c, 1, 74, 0
1, 407540, Note_off_c, 1, 54, 0
1, 407542, Note_on_c, 1, 73, 127
1, 407542, Note_on_c, 1, 52, 127
1, 407731, Note_off_c, 1, 73, 0
1, 407731, Note_off_c, 1, 52, 0
1, 407733, Note_on_c, 1, 74, 127
1, 407733, Note_on_c, 1, 54, 127
1, 407922, Note_off_c, 1, 74, 0
1, 407922, Note_off_c, 1, 54, 0
1, 407924, Note_on_c, 1, 76, 127
1, 407924, Note_on_c, 1, 52, 127
1, 408017, Note_off_c, 1, 76, 0
1, 408020, Note_on_c, 1, 74, 127
1, 408113, Note_off_c, 1, 52, 0
1, 408113, Note_off_c, 1, 74, 0
1, 408115, Note_on_c, 1, 73, 127
1, 408115, Note_on_c, 1, 50, 127
1, 408208, Note_off_c, 1, 73, 0
1, 408211, Note_on_c, 1, 74, 127
1, 408304, Note_off_c, 1, 50, 0
1, 408304, Note_off_c, 1, 74, 0
1, 408307, Note_on_c, 1, 76, 127
1, 408307, Note_on_c, 1, 57, 127
1, 408689, Note_off_c, 1, 76, 0
1, 408690, Note_on_c, 1, 69, 127
1, 408880, Note_off_c, 1, 57, 0
1, 408882, Note_on_c, 1, 45, 127
1, 408951, Note_on_c, 1, 71, 127
1, 409034, Note_on_c, 1, 73, 127
1, 409044, Note_off_c, 1, 71, 0
1, 409071, Note_off_c, 1, 45, 0
1, 409073, Note_on_c, 1, 47, 127
1, 409127, Note_off_c, 1, 73, 0
1, 409138, Note_on_c, 1, 74, 127
1, 409249, Note_off_c, 1, 74, 0
1, 409262, Note_off_c, 1, 47, 0
1, 409264, Note_on_c, 1, 49, 127
1, 409453, Note_off_c, 1, 49, 0
1, 409455, Note_on_c, 1, 50, 127
1, 409644, Note_off_c, 1, 50, 0
1, 409646, Note_on_c, 1, 52, 127
1, 409835, Note_off_c, 1, 52, 0
1, 409837, Note_on_c, 1, 54, 127
1, 410028, Note_off_c, 1, 54, 0
1, 410030, Note_on_c, 1, 55, 127
1, 410587, Note_off_c, 1, 55, 0
1, 413471, Note_on_c, 1, 78, 127
1, 413660, Note_off_c, 1, 78, 0
1, 414045, Note_on_c, 1, 43, 127
1, 414423, Note_off_c, 1, 69, 0
1, 414425, Note_off_c, 1, 43, 0
1, 414429, Note_on_c, 1, 74, 127
1, 414429, Note_on_c, 1, 52, 127
1, 414429, Note_on_c, 1, 67, 127
1, 414429, Note_on_c, 1, 45, 127
1, 414636, Note_off_c, 1, 74, 0
1, 414639, Note_on_c, 1, 73, 127
1, 414732, Note_off_c, 1, 73, 0
1, 415000, Note_off_c, 1, 52, 0
1, 415002, Note_on_c, 1, 50, 127
1, 415185, Note_off_c, 1, 67, 0
1, 415185, Note_off_c, 1, 45, 0
1, 415191, Note_off_c, 1, 50, 0
1, 415193, Note_on_c, 1, 74, 127
1, 415193, Note_on_c, 1, 66, 127
1, 415193, Note_on_c, 1, 69, 127
1, 415193, Note_on_c, 1, 38, 127
1, 415193, Note_on_c, 1, 50, 127
1, 415553, Note_off_c, 1, 74, 0
1, 415575, Note_off_c, 1, 66, 0
1, 415575, Note_off_c, 1, 69, 0
1, 415577, Note_on_c, 1, 78, 127
1, 415766, Note_off_c, 1, 38, 0
1, 415766, Note_off_c, 1, 50, 0
1, 415768, Note_on_c, 1, 62, 127
1, 415936, Note_off_c, 1, 78, 0
1, 415957, Note_off_c, 1, 62, 0
1, 415959, Note_on_c, 1, 60, 127
1, 415959, Note_on_c, 1, 81, 127
1, 416148, Note_off_c, 1, 60, 0
1, 416151, Note_on_c, 1, 59, 127
1, 416340, Note_off_c, 1, 59, 0
1, 416342, Note_on_c, 1, 57, 127
1, 416530, Note_off_c, 1, 81, 0
1, 416531, Note_off_c, 1, 57, 0
1, 416533, Note_on_c, 1, 83, 127
1, 416533, Note_on_c, 1, 55, 127
1, 416722, Note_off_c, 1, 83, 0
1, 416722, Note_off_c, 1, 55, 0
1, 416724, Note_on_c, 1, 81, 127
1, 416724, Note_on_c, 1, 54, 127
1, 416913, Note_off_c, 1, 81, 0
1, 416913, Note_off_c, 1, 54, 0
1, 416915, Note_on_c, 1, 79, 127
1, 416915, Note_on_c, 1, 55, 127
1, 417104, Note_off_c, 1, 79, 0
1, 417104, Note_off_c, 1, 55, 0
1, 417106, Note_on_c, 1, 78, 127
1, 417106, Note_on_c, 1, 57, 127
1, 417295, Note_off_c, 1, 78, 0
1, 417295, Note_off_c, 1, 57, 0
1, 417298, Note_on_c, 1, 76, 127
1, 417298, Note_on_c, 1, 54, 127
1, 417487, Note_off_c, 1, 76, 0
1, 417487, Note_off_c, 1, 54, 0
1, 417489, Note_on_c, 1, 75, 127
1, 417489, Note_on_c, 1, 59, 127
1, 417678, Note_off_c, 1, 75, 0
1, 417680, Note_on_c, 1, 71, 127
1, 417869, Note_off_c, 1, 71, 0
1, 417871, Note_on_c, 1, 73, 127
1, 418060, Note_off_c, 1, 59, 0
1, 418060, Note_off_c, 1, 73, 0
1, 418062, Note_on_c, 1, 75, 127
1, 418062, Note_on_c, 1, 57, 127
1, 418251, Note_off_c, 1, 75, 0
1, 418251, Note_off_c, 1, 57, 0
1, 418253, Note_on_c, 1, 76, 127
1, 418253, Note_on_c, 1, 55, 127
1, 418442, Note_off_c, 1, 76, 0
1, 418442, Note_off_c, 1, 55, 0
1, 418444, Note_on_c, 1, 78, 127
1, 418444, Note_on_c, 1, 54, 127
1, 418633, Note_off_c, 1, 78, 0
1, 418633, Note_off_c, 1, 54, 0
1, 418636, Note_on_c, 1, 79, 127
1, 418636, Note_on_c, 1, 52, 127
1, 418825, Note_off_c, 1, 79, 0
1, 418825, Note_off_c, 1, 52, 0
1, 418827, Note_on_c, 1, 81, 127
1, 418827, Note_on_c, 1, 51, 127
1, 419016, Note_off_c, 1, 81, 0
1, 419016, Note_off_c, 1, 51, 0
1, 419018, Note_on_c, 1, 79, 127
1, 419018, Note_on_c, 1, 52, 127
1, 419207, Note_off_c, 1, 79, 0
1, 419207, Note_off_c, 1, 52, 0
1, 419209, Note_on_c, 1, 78, 127
1, 419209, Note_on_c, 1, 54, 127
1, 419398, Note_off_c, 1, 78, 0
1, 419398, Note_off_c, 1, 54, 0
1, 419400, Note_on_c, 1, 76, 127
1, 419400, Note_on_c, 1, 55, 127
1, 419589, Note_off_c, 1, 76, 0
1, 419589, Note_off_c, 1, 55, 0
1, 419591, Note_on_c, 1, 74, 127
1, 419591, Note_on_c, 1, 52, 127
1, 419780, Note_off_c, 1, 74, 0
1, 419780, Note_off_c, 1, 52, 0
1, 419783, Note_on_c, 1, 57, 127
1, 419783, Note_on_c, 1, 72, 127
1, 419972, Note_off_c, 1, 57, 0
1, 419974, Note_on_c, 1, 59, 127
1, 420163, Note_off_c, 1, 59, 0
1, 420354, Note_off_c, 1, 72, 0
1, 420356, Note_on_c, 1, 71, 127
1, 420356, Note_on_c, 1, 55, 127
1, 420545, Note_off_c, 1, 71, 0
1, 420545, Note_off_c, 1, 55, 0
1, 420547, Note_on_c, 1, 69, 127
1, 420547, Note_on_c, 1, 54, 127
1, 420736, Note_off_c, 1, 69, 0
1, 420736, Note_off_c, 1, 54, 0
1, 420738, Note_on_c, 1, 72, 127
1, 420738, Note_on_c, 1, 64, 127
1, 420927, Note_off_c, 1, 72, 0
1, 420927, Note_off_c, 1, 64, 0
1, 420930, Note_on_c, 1, 71, 127
1, 420930, Note_on_c, 1, 63, 127
1, 421119, Note_off_c, 1, 71, 0
1, 421119, Note_off_c, 1, 63, 0
1, 421121, Note_on_c, 1, 69, 127
1, 421121, Note_on_c, 1, 59, 127
1, 421310, Note_off_c, 1, 69, 0
1, 421310, Note_off_c, 1, 59, 0
1, 421312, Note_on_c, 1, 69, 127
1, 421312, Note_on_c, 1, 64, 127
1, 421438, Note_off_c, 1, 69, 0
1, 421440, Note_on_c, 1, 67, 127
1, 421501, Note_off_c, 1, 64, 0
1, 421503, Note_on_c, 1, 59, 127
1, 421533, Note_off_c, 1, 67, 0
1, 421695, Note_off_c, 1, 59, 0
1, 421697, Note_on_c, 1, 61, 127
1, 421888, Note_off_c, 1, 61, 0
1, 421890, Note_on_c, 1, 66, 127
1, 421890, Note_on_c, 1, 58, 127
1, 422079, Note_off_c, 1, 66, 0
1, 422079, Note_off_c, 1, 58, 0
1, 422081, Note_on_c, 1, 59, 127
1, 422081, Note_on_c, 1, 63, 127
1, 422081, Note_on_c, 1, 66, 127
1, 422463, Note_off_c, 1, 59, 0
1, 422465, Note_on_c, 1, 47, 127
1, 422654, Note_off_c, 1, 63, 0
1, 422654, Note_off_c, 1, 66, 0
1, 422656, Note_on_c, 1, 81, 127
1, 422845, Note_off_c, 1, 81, 0
1, 422848, Note_on_c, 1, 79, 127
1, 423037, Note_off_c, 1, 79, 0
1, 423039, Note_on_c, 1, 78, 127
1, 423221, Note_off_c, 1, 47, 0
1, 423228, Note_off_c, 1, 78, 0
1, 423230, Note_on_c, 1, 76, 127
1, 423419, Note_off_c, 1, 76, 0
1, 423421, Note_on_c, 1, 75, 127
1, 423610, Note_off_c, 1, 75, 0
1, 423612, Note_on_c, 1, 73, 127
1, 423801, Note_off_c, 1, 73, 0
1, 423803, Note_on_c, 1, 71, 127
1, 423995, Note_on_c, 1, 64, 127
1, 423995, Note_on_c, 1, 79, 127
1, 423995, Note_on_c, 1, 59, 127
1, 424361, Note_off_c, 1, 71, 0
1, 424377, Note_off_c, 1, 64, 0
1, 424377, Note_off_c, 1, 79, 0
1, 424377, Note_off_c, 1, 59, 0
1, 424379, Note_on_c, 1, 59, 127
1, 424379, Note_on_c, 1, 63, 127
1, 424474, Note_on_c, 1, 66, 127
1, 424570, Note_on_c, 1, 69, 127
1, 424759, Note_off_c, 1, 59, 0
1, 424761, Note_on_c, 1, 47, 127
1, 424950, Note_off_c, 1, 63, 0
1, 424952, Note_on_c, 1, 79, 127
1, 425045, Note_off_c, 1, 66, 0
1, 425141, Note_off_c, 1, 69, 0
1, 425141, Note_off_c, 1, 79, 0
1, 425143, Note_on_c, 1, 78, 127
1, 425332, Note_off_c, 1, 78, 0
1, 425334, Note_on_c, 1, 76, 127
1, 425523, Note_off_c, 1, 76, 0
1, 425526, Note_on_c, 1, 75, 127
1, 425715, Note_off_c, 1, 75, 0
1, 425716, Note_off_c, 1, 47, 0
1, 425717, Note_on_c, 1, 73, 127
1, 425906, Note_off_c, 1, 73, 0
1, 425908, Note_on_c, 1, 71, 127
1, 426097, Note_off_c, 1, 71, 0
1, 426099, Note_on_c, 1, 69, 127
1, 426290, Note_on_c, 1, 78, 127
1, 426290, Note_on_c, 1, 66, 127
1, 426290, Note_on_c, 1, 63, 127
1, 426290, Note_on_c, 1, 59, 127
1, 426657, Note_off_c, 1, 69, 0
1, 426672, Note_off_c, 1, 78, 0
1, 426672, Note_off_c, 1, 66, 0
1, 426672, Note_off_c, 1, 63, 0
1, 426672, Note_off_c, 1, 59, 0
1, 426674, Note_on_c, 1, 59, 127
1, 426674, Note_on_c, 1, 67, 127
1, 426674, Note_on_c, 1, 64, 127
1, 427056, Note_off_c, 1, 59, 0
1, 427058, Note_on_c, 1, 47, 127
1, 427247, Note_off_c, 1, 67, 0
1, 427249, Note_on_c, 1, 71, 127
1, 427432, Note_off_c, 1, 64, 0
1, 427438, Note_off_c, 1, 71, 0
1, 427440, Note_on_c, 1, 73, 127
1, 427629, Note_off_c, 1, 47, 0
1, 427629, Note_off_c, 1, 73, 0
1, 427632, Note_on_c, 1, 75, 127
1, 427632, Note_on_c, 1, 47, 127
1, 427821, Note_off_c, 1, 75, 0
1, 427821, Note_off_c, 1, 47, 0
1, 427823, Note_on_c, 1, 76, 127
1, 427823, Note_on_c, 1, 49, 127
1, 428012, Note_off_c, 1, 76, 0
1, 428012, Note_off_c, 1, 49, 0
1, 428014, Note_on_c, 1, 78, 127
1, 428014, Note_on_c, 1, 51, 127
1, 428203, Note_off_c, 1, 78, 0
1, 428203, Note_off_c, 1, 51, 0
1, 428205, Note_on_c, 1, 79, 127
1, 428205, Note_on_c, 1, 52, 127
1, 428394, Note_off_c, 1, 79, 0
1, 428394, Note_off_c, 1, 52, 0
1, 428396, Note_on_c, 1, 54, 127
1, 428396, Note_on_c, 1, 81, 127
1, 428585, Note_off_c, 1, 54, 0
1, 428587, Note_on_c, 1, 55, 127
1, 428587, Note_on_c, 1, 73, 127
1, 428776, Note_off_c, 1, 55, 0
1, 428778, Note_on_c, 1, 57, 127
1, 428967, Note_off_c, 1, 73, 0
1, 428967, Note_off_c, 1, 57, 0
1, 428970, Note_on_c, 1, 59, 127
1, 428970, Note_on_c, 1, 76, 127
1, 429159, Note_off_c, 1, 59, 0
1, 429161, Note_on_c, 1, 61, 127
1, 429255, Note_off_c, 1, 76, 0
1, 429256, Note_on_c, 1, 75, 127
1, 429350, Note_off_c, 1, 61, 0
1, 429352, Note_on_c, 1, 63, 127
1, 429541, Note_off_c, 1, 81, 0
1, 429541, Note_off_c, 1, 63, 0
1, 429543, Note_on_c, 1, 83, 127
1, 429635, Note_off_c, 1, 75, 0
1, 429732, Note_off_c, 1, 83, 0
1, 429734, Note_on_c, 1, 64, 127
1, 429734, Note_on_c, 1, 76, 127
1, 429830, Note_on_c, 1, 78, 127
1, 429925, Note_on_c, 1, 79, 127
1, 430019, Note_off_c, 1, 78, 0
1, 430114, Note_off_c, 1, 64, 0
1, 430117, Note_on_c, 1, 57, 127
1, 430292, Note_off_c, 1, 76, 0
1, 430304, Note_off_c, 1, 79, 0
1, 430497, Note_off_c, 1, 57, 0
1, 430499, Note_on_c, 1, 79, 127
1, 430499, Note_on_c, 1, 59, 127
1, 430499, Note_on_c, 1, 75, 127
1, 430592, Note_off_c, 1, 79, 0
1, 430594, Note_on_c, 1, 78, 127
1, 430687, Note_off_c, 1, 78, 0
1, 430879, Note_off_c, 1, 59, 0
1, 430881, Note_on_c, 1, 47, 127
1, 431056, Note_off_c, 1, 75, 0
1, 431072, Note_on_c, 1, 76, 127
1, 431261, Note_off_c, 1, 47, 0
1, 431261, Note_off_c, 1, 76, 0
1, 431264, Note_on_c, 1, 52, 127
1, 431264, Note_on_c, 1, 76, 127
1, 431647, Note_on_c, 1, 40, 127
1, 432031, Note_on_c, 1, 47, 127
1, 432413, Note_off_c, 1, 47, 0
1, 432414, Note_off_c, 1, 52, 0
1, 432415, Note_on_c, 1, 67, 127
1, 432415, Note_on_c, 1, 71, 127
1, 434322, Note_off_c, 1, 76, 0
1, 434705, Note_off_c, 1, 40, 0
1, 435867, Note_off_c, 1, 67, 0
1, 435867, Note_off_c, 1, 71, 0
1, 435869, Note_on_c, 1, 71, 127
1, 435869, Note_on_c, 1, 67, 127
1, 435869, Note_on_c, 1, 64, 127
1, 436251, Note_off_c, 1, 71, 0
1, 436253, Note_on_c, 1, 69, 127
1, 436442, Note_off_c, 1, 69, 0
1, 436627, Note_off_c, 1, 67, 0
1, 436633, Note_off_c, 1, 64, 0
1, 436635, Note_on_c, 1, 69, 127
1, 436635, Note_on_c, 1, 72, 127
1, 436635, Note_on_c, 1, 52, 127
1, 437017, Note_off_c, 1, 69, 0
1, 437017, Note_off_c, 1, 72, 0
1, 437019, Note_on_c, 1, 67, 127
1, 437019, Note_on_c, 1, 71, 127
1, 437401, Note_off_c, 1, 52, 0
1, 437401, Note_off_c, 1, 67, 0
1, 437401, Note_off_c, 1, 71, 0
1, 437403, Note_on_c, 1, 69, 127
1, 437403, Note_on_c, 1, 66, 127
1, 437403, Note_on_c, 1, 57, 127
1, 437785, Note_off_c, 1, 69, 0
1, 437785, Note_off_c, 1, 66, 0
1, 437787, Note_on_c, 1, 67, 127
1, 437787, Note_on_c, 1, 64, 127
1, 438169, Note_off_c, 1, 57, 0
1, 438169, Note_off_c, 1, 67, 0
1, 438169, Note_off_c, 1, 64, 0
1, 438171, Note_on_c, 1, 66, 127
1, 438171, Note_on_c, 1, 59, 127
1, 438171, Note_on_c, 1, 63, 127
1, 438360, Note_off_c, 1, 66, 0
1, 438362, Note_on_c, 1, 69, 127
1, 438551, Note_off_c, 1, 59, 0
1, 438551, Note_off_c, 1, 69, 0
1, 438554, Note_on_c, 1, 67, 127
1, 438554, Note_on_c, 1, 47, 127
1, 438743, Note_off_c, 1, 67, 0
1, 438927, Note_off_c, 1, 63, 0
1, 438934, Note_off_c, 1, 47, 0
1, 438936, Note_on_c, 1, 52, 127
1, 438936, Note_on_c, 1, 64, 127
1, 438936, Note_on_c, 1, 67, 127
1, 439318, Note_off_c, 1, 52, 0
1, 439320, Note_on_c, 1, 54, 127
1, 439702, Note_off_c, 1, 64, 0
1, 439702, Note_off_c, 1, 67, 0
1, 439702, Note_off_c, 1, 54, 0
1, 439704, Note_on_c, 1, 59, 127
1, 439704, Note_on_c, 1, 55, 127
1, 439704, Note_on_c, 1, 64, 127
1, 440083, Note_off_c, 1, 59, 0
1, 440084, Note_off_c, 1, 55, 0
1, 440086, Note_on_c, 1, 57, 127
1, 440468, Note_off_c, 1, 64, 0
1, 440468, Note_off_c, 1, 57, 0
1, 440470, Note_on_c, 1, 74, 127
1, 440470, Note_on_c, 1, 67, 127
1, 440470, Note_on_c, 1, 59, 127
1, 440852, Note_off_c, 1, 74, 0
1, 440854, Note_on_c, 1, 72, 127
1, 441043, Note_off_c, 1, 72, 0
1, 441228, Note_off_c, 1, 67, 0
1, 441234, Note_off_c, 1, 59, 0
1, 441236, Note_on_c, 1, 76, 127
1, 441236, Note_on_c, 1, 67, 127
1, 441236, Note_on_c, 1, 60, 127
1, 441618, Note_off_c, 1, 76, 0
1, 441618, Note_off_c, 1, 67, 0
1, 441620, Note_on_c, 1, 71, 127
1, 441620, Note_on_c, 1, 74, 127
1, 442002, Note_off_c, 1, 60, 0
1, 442002, Note_off_c, 1, 71, 0
1, 442002, Note_off_c, 1, 74, 0
1, 442004, Note_on_c, 1, 72, 127
1, 442004, Note_on_c, 1, 69, 127
1, 442004, Note_on_c, 1, 48, 127
1, 442386, Note_off_c, 1, 72, 0
1, 442386, Note_off_c, 1, 69, 0
1, 442388, Note_on_c, 1, 67, 127
1, 442388, Note_on_c, 1, 71, 127
1, 442770, Note_off_c, 1, 48, 0
1, 442770, Note_off_c, 1, 67, 0
1, 442770, Note_off_c, 1, 71, 0
1, 442772, Note_on_c, 1, 69, 127
1, 442772, Note_on_c, 1, 50, 127
1, 442772, Note_on_c, 1, 66, 127
1, 442961, Note_off_c, 1, 69, 0
1, 442963, Note_on_c, 1, 72, 127
1, 443152, Note_off_c, 1, 50, 0
1, 443152, Note_off_c, 1, 72, 0
1, 443154, Note_on_c, 1, 71, 127
1, 443154, Note_on_c, 1, 38, 127
1, 443343, Note_off_c, 1, 71, 0
1, 443528, Note_off_c, 1, 66, 0
1, 443534, Note_off_c, 1, 38, 0
1, 443537, Note_on_c, 1, 67, 127
1, 443537, Note_on_c, 1, 43, 127
1, 444112, Note_on_c, 1, 71, 127
1, 444301, Note_off_c, 1, 71, 0
1, 444303, Note_on_c, 1, 76, 127
1, 444685, Note_off_c, 1, 67, 0
1, 444685, Note_off_c, 1, 43, 0
1, 444880, Note_on_c, 1, 55, 127
1, 445069, Note_off_c, 1, 55, 0
1, 445071, Note_on_c, 1, 54, 127
1, 445071, Note_on_c, 1, 69, 127
1, 445453, Note_off_c, 1, 76, 0
1, 445453, Note_off_c, 1, 54, 0
1, 445455, Note_on_c, 1, 74, 127
1, 445644, Note_off_c, 1, 74, 0
1, 445646, Note_on_c, 1, 73, 127
1, 445835, Note_off_c, 1, 73, 0
1, 446219, Note_off_c, 1, 69, 0
1, 446221, Note_on_c, 1, 71, 127
1, 446221, Note_on_c, 1, 76, 127
1, 446221, Note_on_c, 1, 52, 127
1, 446410, Note_off_c, 1, 71, 0
1, 446412, Note_on_c, 1, 73, 127
1, 446600, Note_off_c, 1, 76, 0
1, 446601, Note_off_c, 1, 52, 0
1, 446601, Note_off_c, 1, 73, 0
1, 446603, Note_on_c, 1, 74, 127
1, 446603, Note_on_c, 1, 50, 127
1, 446603, Note_on_c, 1, 78, 127
1, 446985, Note_off_c, 1, 74, 0
1, 446985, Note_off_c, 1, 50, 0
1, 446987, Note_on_c, 1, 52, 127
1, 446987, Note_on_c, 1, 73, 127
1, 447176, Note_off_c, 1, 52, 0
1, 447178, Note_on_c, 1, 54, 127
1, 447367, Note_off_c, 1, 73, 0
1, 447367, Note_off_c, 1, 54, 0
1, 447370, Note_on_c, 1, 55, 127
1, 447370, Note_on_c, 1, 71, 127
1, 447751, Note_off_c, 1, 78, 0
1, 447752, Note_off_c, 1, 55, 0
1, 447754, Note_on_c, 1, 76, 127
1, 447754, Note_on_c, 1, 57, 127
1, 447943, Note_off_c, 1, 76, 0
1, 447945, Note_on_c, 1, 75, 127
1, 448134, Note_off_c, 1, 57, 0
1, 448134, Note_off_c, 1, 75, 0
1, 448518, Note_off_c, 1, 71, 0
1, 448520, Note_on_c, 1, 73, 127
1, 448520, Note_on_c, 1, 78, 127
1, 448520, Note_on_c, 1, 54, 127
1, 448709, Note_off_c, 1, 73, 0
1, 448711, Note_on_c, 1, 75, 127
1, 448899, Note_off_c, 1, 78, 0
1, 448900, Note_off_c, 1, 54, 0
1, 448900, Note_off_c, 1, 75, 0
1, 448902, Note_on_c, 1, 79, 127
1, 448902, Note_on_c, 1, 76, 127
1, 448902, Note_on_c, 1, 52, 127
1, 449091, Note_off_c, 1, 79, 0
1, 449093, Note_on_c, 1, 78, 127
1, 449281, Note_off_c, 1, 76, 0
1, 449282, Note_off_c, 1, 52, 0
1, 449282, Note_off_c, 1, 78, 0
1, 449284, Note_on_c, 1, 76, 127
1, 449284, Note_on_c, 1, 73, 127
1, 449284, Note_on_c, 1, 57, 127
1, 449473, Note_off_c, 1, 76, 0
1, 449476, Note_on_c, 1, 79, 127
1, 449663, Note_off_c, 1, 73, 0
1, 449664, Note_off_c, 1, 57, 0
1, 449665, Note_off_c, 1, 79, 0
1, 449667, Note_on_c, 1, 78, 127
1, 449667, Note_on_c, 1, 50, 127
1, 449667, Note_on_c, 1, 74, 127
1, 449856, Note_off_c, 1, 78, 0
1, 449858, Note_on_c, 1, 79, 127
1, 450047, Note_off_c, 1, 50, 0
1, 450047, Note_off_c, 1, 79, 0
1, 450049, Note_on_c, 1, 76, 127
1, 450049, Note_on_c, 1, 47, 127
1, 450238, Note_off_c, 1, 76, 0
1, 450423, Note_off_c, 1, 74, 0
1, 450429, Note_off_c, 1, 47, 0
1, 450431, Note_on_c, 1, 76, 127
1, 450431, Note_on_c, 1, 79, 127
1, 450431, Note_on_c, 1, 52, 127
1, 450813, Note_off_c, 1, 76, 0
1, 450813, Note_off_c, 1, 79, 0
1, 450815, Note_on_c, 1, 74, 127
1, 450815, Note_on_c, 1, 78, 127
1, 451197, Note_off_c, 1, 52, 0
1, 451197, Note_off_c, 1, 74, 0
1, 451197, Note_off_c, 1, 78, 0
1, 451199, Note_on_c, 1, 73, 127
1, 451199, Note_on_c, 1, 76, 127
1, 451199, Note_on_c, 1, 40, 127
1, 451581, Note_off_c, 1, 73, 0
1, 451581, Note_off_c, 1, 76, 0
1, 451583, Note_on_c, 1, 71, 127
1, 451583, Note_on_c, 1, 74, 127
1, 451965, Note_off_c, 1, 40, 0
1, 451965, Note_off_c, 1, 71, 0
1, 451965, Note_off_c, 1, 74, 0
1, 451967, Note_on_c, 1, 73, 127
1, 451967, Note_on_c, 1, 70, 127
1, 451967, Note_on_c, 1, 42, 127
1, 452156, Note_off_c, 1, 73, 0
1, 452158, Note_on_c, 1, 71, 127
1, 452347, Note_off_c, 1, 71, 0
1, 452541, Note_on_c, 1, 74, 127
1, 452723, Note_off_c, 1, 70, 0
1, 452730, Note_off_c, 1, 42, 0
1, 452730, Note_off_c, 1, 74, 0
1, 452732, Note_on_c, 1, 71, 127
1, 452732, Note_on_c, 1, 47, 127
1, 453116, Note_on_c, 1, 66, 127
1, 453498, Note_off_c, 1, 66, 0
1, 453500, Note_on_c, 1, 63, 127
1, 453500, Note_on_c, 1, 54, 127
1, 453689, Note_off_c, 1, 63, 0
1, 453691, Note_on_c, 1, 61, 127
1, 453880, Note_off_c, 1, 61, 0
1, 454264, Note_off_c, 1, 71, 0
1, 454264, Note_off_c, 1, 47, 0
1, 454264, Note_off_c, 1, 54, 0
1, 454266, Note_on_c, 1, 78, 127
1, 454266, Note_on_c, 1, 59, 127
1, 454266, Note_on_c, 1, 75, 127
1, 454455, Note_off_c, 1, 78, 0
1, 454457, Note_on_c, 1, 79, 127
1, 454646, Note_off_c, 1, 59, 0
1, 454646, Note_off_c, 1, 79, 0
1, 454648, Note_on_c, 1, 81, 127
1, 454648, Note_on_c, 1, 47, 127
1, 454837, Note_off_c, 1, 81, 0
1, 455022, Note_off_c, 1, 75, 0
1, 455412, Note_off_c, 1, 47, 0
1, 455415, Note_on_c, 1, 71, 127
1, 455415, Note_on_c, 1, 75, 127
1, 455415, Note_on_c, 1, 69, 127
1, 455797, Note_off_c, 1, 71, 0
1, 455797, Note_off_c, 1, 75, 0
1, 455797, Note_off_c, 1, 69, 0
1, 455798, Note_on_c, 1, 73, 127
1, 455798, Note_on_c, 1, 76, 127
1, 455798, Note_on_c, 1, 67, 127
1, 456180, Note_off_c, 1, 73, 0
1, 456180, Note_off_c, 1, 76, 0
1, 456180, Note_off_c, 1, 67, 0
1, 456182, Note_on_c, 1, 75, 127
1, 456182, Note_on_c, 1, 78, 127
1, 456182, Note_on_c, 1, 66, 127
1, 456564, Note_off_c, 1, 75, 0
1, 456564, Note_off_c, 1, 78, 0
1, 456564, Note_off_c, 1, 66, 0
1, 456566, Note_on_c, 1, 79, 127
1, 456566, Note_on_c, 1, 64, 127
1, 456566, Note_on_c, 1, 76, 127
1, 456755, Note_off_c, 1, 79, 0
1, 456755, Note_off_c, 1, 64, 0
1, 456757, Note_on_c, 1, 81, 127
1, 456757, Note_on_c, 1, 66, 127
1, 456946, Note_off_c, 1, 81, 0
1, 456946, Note_off_c, 1, 66, 0
1, 456949, Note_on_c, 1, 83, 127
1, 456949, Note_on_c, 1, 67, 127
1, 457138, Note_off_c, 1, 83, 0
1, 457138, Note_off_c, 1, 67, 0
1, 457322, Note_off_c, 1, 76, 0
1, 457331, Note_on_c, 1, 64, 127
1, 457331, Note_on_c, 1, 76, 127
1, 457331, Note_on_c, 1, 79, 127
1, 457713, Note_off_c, 1, 64, 0
1, 457715, Note_on_c, 1, 62, 127
1, 458097, Note_off_c, 1, 62, 0
1, 458099, Note_on_c, 1, 61, 127
1, 458481, Note_off_c, 1, 61, 0
1, 458483, Note_on_c, 1, 59, 127
1, 458865, Note_off_c, 1, 76, 0
1, 458865, Note_off_c, 1, 79, 0
1, 458865, Note_off_c, 1, 59, 0
1, 458867, Note_on_c, 1, 57, 127
1, 458867, Note_on_c, 1, 73, 127
1, 459056, Note_off_c, 1, 57, 0
1, 459058, Note_on_c, 1, 78, 127
1, 459058, Note_on_c, 1, 59, 127
1, 459247, Note_off_c, 1, 78, 0
1, 459247, Note_off_c, 1, 59, 0
1, 459249, Note_on_c, 1, 76, 127
1, 459249, Note_on_c, 1, 61, 127
1, 459438, Note_off_c, 1, 76, 0
1, 459438, Note_off_c, 1, 61, 0
1, 459623, Note_off_c, 1, 73, 0
1, 459631, Note_on_c, 1, 79, 127
1, 459631, Note_on_c, 1, 57, 127
1, 460013, Note_off_c, 1, 79, 0
1, 460013, Note_off_c, 1, 57, 0
1, 460015, Note_on_c, 1, 73, 127
1, 460015, Note_on_c, 1, 83, 127
1, 460015, Note_on_c, 1, 55, 127
1, 460015, Note_on_c, 1, 57, 127
1, 460397, Note_off_c, 1, 73, 0
1, 460397, Note_off_c, 1, 83, 0
1, 460397, Note_off_c, 1, 55, 0
1, 460397, Note_off_c, 1, 57, 0
1, 460399, Note_on_c, 1, 74, 127
1, 460399, Note_on_c, 1, 81, 127
1, 460399, Note_on_c, 1, 59, 127
1, 460399, Note_on_c, 1, 54, 127
1, 460781, Note_off_c, 1, 74, 0
1, 460781, Note_off_c, 1, 81, 0
1, 460781, Note_off_c, 1, 59, 0
1, 460781, Note_off_c, 1, 54, 0
1, 460783, Note_on_c, 1, 76, 127
1, 460783, Note_on_c, 1, 79, 127
1, 460783, Note_on_c, 1, 61, 127
1, 460783, Note_on_c, 1, 52, 127
1, 461165, Note_off_c, 1, 76, 0
1, 461165, Note_off_c, 1, 79, 0
1, 461165, Note_off_c, 1, 61, 0
1, 461165, Note_off_c, 1, 52, 0
1, 461167, Note_on_c, 1, 78, 127
1, 461167, Note_on_c, 1, 50, 127
1, 461167, Note_on_c, 1, 69, 127
1, 461167, Note_on_c, 1, 62, 127
1, 461356, Note_off_c, 1, 78, 0
1, 461356, Note_off_c, 1, 50, 0
1, 461358, Note_on_c, 1, 76, 127
1, 461358, Note_on_c, 1, 52, 127
1, 461547, Note_off_c, 1, 76, 0
1, 461547, Note_off_c, 1, 52, 0
1, 461549, Note_on_c, 1, 74, 127
1, 461549, Note_on_c, 1, 54, 127
1, 461738, Note_off_c, 1, 74, 0
1, 461738, Note_off_c, 1, 54, 0
1, 461923, Note_off_c, 1, 69, 0
1, 461923, Note_off_c, 1, 62, 0
1, 461932, Note_on_c, 1, 50, 127
1, 461932, Note_on_c, 1, 69, 127
1, 461932, Note_on_c, 1, 78, 127
1, 462314, Note_off_c, 1, 50, 0
1, 462316, Note_on_c, 1, 48, 127
1, 462698, Note_off_c, 1, 48, 0
1, 462700, Note_on_c, 1, 47, 127
1, 463082, Note_off_c, 1, 47, 0
1, 463084, Note_on_c, 1, 45, 127
1, 463466, Note_off_c, 1, 69, 0
1, 463466, Note_off_c, 1, 45, 0
1, 463468, Note_on_c, 1, 44, 127
1, 463468, Note_on_c, 1, 71, 127
1, 463850, Note_off_c, 1, 44, 0
1, 463851, Note_off_c, 1, 78, 0
1, 463851, Note_on_c, 1, 77, 127
1, 464040, Note_off_c, 1, 77, 0
1, 464043, Note_on_c, 1, 76, 127
1, 464226, Note_off_c, 1, 71, 0
1, 464232, Note_off_c, 1, 76, 0
1, 464234, Note_on_c, 1, 77, 127
1, 464234, Note_on_c, 1, 50, 127
1, 464234, Note_on_c, 1, 44, 127
1, 464616, Note_off_c, 1, 77, 0
1, 464616, Note_off_c, 1, 50, 0
1, 464616, Note_off_c, 1, 44, 0
1, 464618, Note_on_c, 1, 83, 127
1, 464618, Note_on_c, 1, 44, 127
1, 464618, Note_on_c, 1, 50, 127
1, 465000, Note_off_c, 1, 83, 0
1, 465000, Note_off_c, 1, 44, 0
1, 465000, Note_off_c, 1, 50, 0
1, 465002, Note_on_c, 1, 81, 127
1, 465002, Note_on_c, 1, 44, 127
1, 465002, Note_on_c, 1, 50, 127
1, 465191, Note_off_c, 1, 81, 0
1, 465193, Note_on_c, 1, 80, 127
1, 465382, Note_off_c, 1, 44, 0
1, 465382, Note_off_c, 1, 50, 0
1, 465382, Note_off_c, 1, 80, 0
1, 465384, Note_on_c, 1, 78, 127
1, 465384, Note_on_c, 1, 44, 127
1, 465384, Note_on_c, 1, 52, 127
1, 465573, Note_off_c, 1, 78, 0
1, 465575, Note_on_c, 1, 76, 127
1, 465764, Note_off_c, 1, 44, 0
1, 465764, Note_off_c, 1, 52, 0
1, 465764, Note_off_c, 1, 76, 0
1, 465766, Note_on_c, 1, 74, 127
1, 465766, Note_on_c, 1, 53, 127
1, 465766, Note_on_c, 1, 44, 127
1, 465766, Note_on_c, 1, 71, 127
1, 465955, Note_off_c, 1, 74, 0
1, 465957, Note_on_c, 1, 77, 127
1, 466146, Note_off_c, 1, 53, 0
1, 466146, Note_off_c, 1, 44, 0
1, 466146, Note_off_c, 1, 77, 0
1, 466149, Note_on_c, 1, 76, 127
1, 466149, Note_on_c, 1, 49, 127
1, 466524, Note_off_c, 1, 71, 0
1, 466531, Note_off_c, 1, 76, 0
1, 466531, Note_off_c, 1, 49, 0
1, 466533, Note_on_c, 1, 77, 127
1, 466533, Note_on_c, 1, 44, 127
1, 466533, Note_on_c, 1, 50, 127
1, 466915, Note_off_c, 1, 77, 0
1, 466915, Note_off_c, 1, 44, 0
1, 466915, Note_off_c, 1, 50, 0
1, 466917, Note_on_c, 1, 74, 127
1, 466917, Note_on_c, 1, 52, 127
1, 466917, Note_on_c, 1, 44, 127
1, 467106, Note_off_c, 1, 74, 0
1, 467108, Note_on_c, 1, 73, 127
1, 467297, Note_off_c, 1, 52, 0
1, 467297, Note_off_c, 1, 44, 0
1, 467297, Note_off_c, 1, 73, 0
1, 467299, Note_on_c, 1, 74, 127
1, 467299, Note_on_c, 1, 53, 127
1, 467299, Note_on_c, 1, 44, 127
1, 467681, Note_off_c, 1, 74, 0
1, 467681, Note_off_c, 1, 53, 0
1, 467681, Note_off_c, 1, 44, 0
1, 467683, Note_on_c, 1, 74, 127
1, 467683, Note_on_c, 1, 71, 127
1, 467683, Note_on_c, 1, 44, 127
1, 467776, Note_off_c, 1, 74, 0
1, 467778, Note_on_c, 1, 76, 127
1, 467871, Note_off_c, 1, 76, 0
1, 467874, Note_on_c, 1, 77, 127
1, 468062, Note_off_c, 1, 71, 0
1, 468063, Note_off_c, 1, 44, 0
1, 468063, Note_off_c, 1, 77, 0
1, 468065, Note_on_c, 1, 76, 127
1, 468065, Note_on_c, 1, 45, 127
1, 468065, Note_on_c, 1, 72, 127
1, 468447, Note_off_c, 1, 76, 0
1, 468447, Note_off_c, 1, 45, 0
1, 468449, Note_on_c, 1, 74, 127
1, 468449, Note_on_c, 1, 57, 127
1, 468638, Note_off_c, 1, 74, 0
1, 468823, Note_off_c, 1, 72, 0
1, 468829, Note_off_c, 1, 57, 0
1, 468831, Note_on_c, 1, 74, 127
1, 468831, Note_on_c, 1, 77, 127
1, 468831, Note_on_c, 1, 50, 127
1, 469213, Note_off_c, 1, 74, 0
1, 469213, Note_off_c, 1, 77, 0
1, 469213, Note_off_c, 1, 50, 0
1, 469215, Note_on_c, 1, 72, 127
1, 469215, Note_on_c, 1, 76, 127
1, 469215, Note_on_c, 1, 52, 127
1, 469597, Note_off_c, 1, 72, 0
1, 469597, Note_off_c, 1, 76, 0
1, 469597, Note_off_c, 1, 52, 0
1, 469599, Note_on_c, 1, 71, 127
1, 469599, Note_on_c, 1, 74, 127
1, 469599, Note_on_c, 1, 53, 127
1, 469981, Note_off_c, 1, 71, 0
1, 469981, Note_off_c, 1, 74, 0
1, 469981, Note_off_c, 1, 53, 0
1, 469983, Note_on_c, 1, 72, 127
1, 469983, Note_on_c, 1, 69, 127
1, 469983, Note_on_c, 1, 50, 127
1, 470365, Note_off_c, 1, 72, 0
1, 470365, Note_off_c, 1, 69, 0
1, 470365, Note_off_c, 1, 50, 0
1, 470367, Note_on_c, 1, 71, 127
1, 470367, Note_on_c, 1, 52, 127
1, 470367, Note_on_c, 1, 68, 127
1, 470556, Note_off_c, 1, 71, 0
1, 470558, Note_on_c, 1, 74, 127
1, 470747, Note_off_c, 1, 52, 0
1, 470747, Note_off_c, 1, 74, 0
1, 470749, Note_on_c, 1, 72, 127
1, 470749, Note_on_c, 1, 40, 127
1, 470938, Note_off_c, 1, 72, 0
1, 471123, Note_off_c, 1, 68, 0
1, 471129, Note_off_c, 1, 40, 0
1, 471132, Note_on_c, 1, 45, 127
1, 471132, Note_on_c, 1, 69, 127
1, 471514, Note_off_c, 1, 45, 0
1, 471516, Note_on_c, 1, 43, 127
1, 471898, Note_off_c, 1, 43, 0
1, 471900, Note_on_c, 1, 42, 127
1, 472282, Note_off_c, 1, 42, 0
1, 472284, Note_on_c, 1, 40, 127
1, 472666, Note_off_c, 1, 69, 0
1, 472666, Note_off_c, 1, 40, 0
1, 472668, Note_on_c, 1, 69, 127
1, 472668, Note_on_c, 1, 66, 127
1, 472668, Note_on_c, 1, 38, 127
1, 472857, Note_off_c, 1, 69, 0
1, 472859, Note_on_c, 1, 67, 127
1, 472946, Note_off_c, 1, 66, 0
1, 473048, Note_off_c, 1, 67, 0
1, 473623, Note_on_c, 1, 71, 127
1, 473812, Note_off_c, 1, 71, 0
1, 473813, Note_off_c, 1, 38, 0
1, 473814, Note_on_c, 1, 66, 127
1, 473814, Note_on_c, 1, 72, 127
1, 473814, Note_on_c, 1, 50, 127
1, 474196, Note_off_c, 1, 66, 0
1, 474196, Note_off_c, 1, 72, 0
1, 474196, Note_off_c, 1, 50, 0
1, 474198, Note_on_c, 1, 67, 127
1, 474198, Note_on_c, 1, 52, 127
1, 474198, Note_on_c, 1, 72, 127
1, 474580, Note_off_c, 1, 67, 0
1, 474580, Note_off_c, 1, 52, 0
1, 474582, Note_on_c, 1, 69, 127
1, 474582, Note_on_c, 1, 54, 127
1, 474964, Note_off_c, 1, 69, 0
1, 474964, Note_off_c, 1, 54, 0
1, 474966, Note_on_c, 1, 55, 127
1, 474966, Note_on_c, 1, 62, 127
1, 475348, Note_off_c, 1, 72, 0
1, 475348, Note_off_c, 1, 55, 0
1, 475350, Note_on_c, 1, 71, 127
1, 475350, Note_on_c, 1, 57, 127
1, 475539, Note_off_c, 1, 71, 0
1, 475724, Note_off_c, 1, 62, 0
1, 475730, Note_off_c, 1, 57, 0
1, 475733, Note_on_c, 1, 71, 127
1, 475733, Note_on_c, 1, 55, 127
1, 475922, Note_off_c, 1, 71, 0
1, 475924, Note_on_c, 1, 73, 127
1, 476113, Note_off_c, 1, 55, 0
1, 476113, Note_off_c, 1, 73, 0
1, 476115, Note_on_c, 1, 69, 127
1, 476115, Note_on_c, 1, 74, 127
1, 476115, Note_on_c, 1, 54, 127
1, 476497, Note_off_c, 1, 69, 0
1, 476497, Note_off_c, 1, 74, 0
1, 476497, Note_off_c, 1, 54, 0
1, 476499, Note_on_c, 1, 68, 127
1, 476499, Note_on_c, 1, 52, 127
1, 476499, Note_on_c, 1, 74, 127
1, 476881, Note_off_c, 1, 68, 0
1, 476881, Note_off_c, 1, 52, 0
1, 476883, Note_on_c, 1, 69, 127
1, 476883, Note_on_c, 1, 54, 127
1, 477072, Note_off_c, 1, 69, 0
1, 477072, Note_off_c, 1, 54, 0
1, 477074, Note_on_c, 1, 71, 127
1, 477074, Note_on_c, 1, 56, 127
1, 477257, Note_off_c, 1, 74, 0
1, 477263, Note_off_c, 1, 71, 0
1, 477263, Note_off_c, 1, 56, 0
1, 477265, Note_on_c, 1, 73, 127
1, 477265, Note_on_c, 1, 57, 127
1, 477265, Note_on_c, 1, 64, 127
1, 477454, Note_off_c, 1, 73, 0
1, 477456, Note_on_c, 1, 71, 127
1, 477645, Note_off_c, 1, 57, 0
1, 477645, Note_off_c, 1, 71, 0
1, 477647, Note_on_c, 1, 69, 127
1, 477647, Note_on_c, 1, 59, 127
1, 477836, Note_off_c, 1, 69, 0
1, 478021, Note_off_c, 1, 64, 0
1, 478027, Note_off_c, 1, 59, 0
1, 478030, Note_on_c, 1, 73, 127
1, 478030, Note_on_c, 1, 57, 127
1, 478219, Note_off_c, 1, 73, 0
1, 478221, Note_on_c, 1, 75, 127
1, 478410, Note_off_c, 1, 57, 0
1, 478410, Note_off_c, 1, 75, 0
1, 478412, Note_on_c, 1, 76, 127
1, 478412, Note_on_c, 1, 71, 127
1, 478412, Note_on_c, 1, 55, 127
1, 478794, Note_off_c, 1, 76, 0
1, 478794, Note_off_c, 1, 71, 0
1, 478794, Note_off_c, 1, 55, 0
1, 478796, Note_on_c, 1, 70, 127
1, 478796, Note_on_c, 1, 54, 127
1, 478796, Note_on_c, 1, 76, 127
1, 479178, Note_off_c, 1, 70, 0
1, 479178, Note_off_c, 1, 54, 0
1, 479180, Note_on_c, 1, 71, 127
1, 479180, Note_on_c, 1, 56, 127
1, 479369, Note_off_c, 1, 71, 0
1, 479369, Note_off_c, 1, 56, 0
1, 479371, Note_on_c, 1, 73, 127
1, 479371, Note_on_c, 1, 58, 127
1, 479560, Note_off_c, 1, 73, 0
1, 479560, Note_off_c, 1, 58, 0
1, 479562, Note_on_c, 1, 59, 127
1, 479562, Note_on_c, 1, 66, 127
1, 479944, Note_off_c, 1, 76, 0
1, 479944, Note_off_c, 1, 59, 0
1, 479946, Note_on_c, 1, 75, 127
1, 479946, Note_on_c, 1, 47, 127
1, 480135, Note_off_c, 1, 75, 0
1, 480320, Note_off_c, 1, 66, 0
1, 480326, Note_off_c, 1, 47, 0
1, 480328, Note_on_c, 1, 75, 127
1, 480328, Note_on_c, 1, 59, 127
1, 480517, Note_off_c, 1, 75, 0
1, 480520, Note_on_c, 1, 76, 127
1, 480708, Note_off_c, 1, 59, 0
1, 480709, Note_off_c, 1, 76, 0
1, 480711, Note_on_c, 1, 78, 127
1, 480711, Note_on_c, 1, 72, 127
1, 480711, Note_on_c, 1, 57, 127
1, 481093, Note_off_c, 1, 78, 0
1, 481093, Note_off_c, 1, 72, 0
1, 481093, Note_off_c, 1, 57, 0
1, 481095, Note_on_c, 1, 71, 127
1, 481095, Note_on_c, 1, 55, 127
1, 481095, Note_on_c, 1, 78, 127
1, 481477, Note_off_c, 1, 71, 0
1, 481477, Note_off_c, 1, 55, 0
1, 481479, Note_on_c, 1, 57, 127
1, 481479, Note_on_c, 1, 69, 127
1, 481668, Note_off_c, 1, 57, 0
1, 481670, Note_on_c, 1, 59, 127
1, 481859, Note_off_c, 1, 69, 0
1, 481859, Note_off_c, 1, 59, 0
1, 481861, Note_on_c, 1, 67, 127
1, 481861, Note_on_c, 1, 60, 127
1, 482052, Note_off_c, 1, 78, 0
1, 482052, Note_on_c, 1, 76, 127
1, 482240, Note_off_c, 1, 67, 0
1, 482241, Note_off_c, 1, 60, 0
1, 482241, Note_off_c, 1, 76, 0
1, 482243, Note_on_c, 1, 78, 127
1, 482243, Note_on_c, 1, 69, 127
1, 482243, Note_on_c, 1, 59, 127
1, 482432, Note_off_c, 1, 78, 0
1, 482432, Note_off_c, 1, 69, 0
1, 482434, Note_on_c, 1, 71, 127
1, 482434, Note_on_c, 1, 79, 127
1, 482623, Note_off_c, 1, 59, 0
1, 482623, Note_off_c, 1, 71, 0
1, 482623, Note_off_c, 1, 79, 0
1, 482626, Note_on_c, 1, 72, 127
1, 482626, Note_on_c, 1, 81, 127
1, 482626, Note_on_c, 1, 57, 127
1, 483008, Note_off_c, 1, 72, 0
1, 483008, Note_off_c, 1, 81, 0
1, 483008, Note_off_c, 1, 57, 0
1, 483010, Note_on_c, 1, 71, 127
1, 483010, Note_on_c, 1, 79, 127
1, 483010, Note_on_c, 1, 59, 127
1, 483392, Note_off_c, 1, 71, 0
1, 483392, Note_off_c, 1, 79, 0
1, 483392, Note_off_c, 1, 59, 0
1, 483394, Note_on_c, 1, 69, 127
1, 483394, Note_on_c, 1, 78, 127
1, 483394, Note_on_c, 1, 60, 127
1, 483776, Note_off_c, 1, 69, 0
1, 483776, Note_off_c, 1, 78, 0
1, 483776, Note_off_c, 1, 60, 0
1, 483777, Note_on_c, 1, 76, 127
1, 483777, Note_on_c, 1, 67, 127
1, 483777, Note_on_c, 1, 57, 127
1, 484159, Note_off_c, 1, 76, 0
1, 484159, Note_off_c, 1, 67, 0
1, 484159, Note_off_c, 1, 57, 0
1, 484161, Note_on_c, 1, 75, 127
1, 484161, Note_on_c, 1, 66, 127
1, 484161, Note_on_c, 1, 59, 127
1, 484350, Note_off_c, 1, 75, 0
1, 484353, Note_on_c, 1, 71, 127
1, 484540, Note_off_c, 1, 66, 0
1, 484542, Note_off_c, 1, 71, 0
1, 484544, Note_on_c, 1, 64, 127
1, 484544, Note_on_c, 1, 72, 127
1, 484925, Note_off_c, 1, 59, 0
1, 484926, Note_off_c, 1, 64, 0
1, 484928, Note_on_c, 1, 47, 127
1, 484928, Note_on_c, 1, 63, 127
1, 485303, Note_off_c, 1, 72, 0
1, 485310, Note_off_c, 1, 47, 0
1, 485312, Note_on_c, 1, 48, 127
1, 485503, Note_on_c, 1, 69, 127
1, 485686, Note_off_c, 1, 63, 0
1, 485692, Note_off_c, 1, 48, 0
1, 485692, Note_off_c, 1, 69, 0
1, 485694, Note_on_c, 1, 67, 127
1, 485694, Note_on_c, 1, 47, 127
1, 486076, Note_off_c, 1, 67, 0
1, 486076, Note_off_c, 1, 47, 0
1, 486078, Note_on_c, 1, 66, 127
1, 486078, Note_on_c, 1, 45, 127
1, 486460, Note_off_c, 1, 66, 0
1, 486460, Note_off_c, 1, 45, 0
1, 486462, Note_on_c, 1, 71, 127
1, 486462, Note_on_c, 1, 64, 127
1, 486462, Note_on_c, 1, 67, 127
1, 486462, Note_on_c, 1, 43, 127
1, 486844, Note_off_c, 1, 71, 0
1, 486844, Note_off_c, 1, 64, 0
1, 486844, Note_off_c, 1, 67, 0
1, 486844, Note_off_c, 1, 43, 0
1, 486846, Note_on_c, 1, 69, 127
1, 486846, Note_on_c, 1, 66, 127
1, 486846, Note_on_c, 1, 40, 127
1, 487035, Note_off_c, 1, 69, 0
1, 487035, Note_off_c, 1, 66, 0
1, 487037, Note_on_c, 1, 67, 127
1, 487037, Note_on_c, 1, 71, 127
1, 487226, Note_off_c, 1, 40, 0
1, 487226, Note_off_c, 1, 67, 0
1, 487226, Note_off_c, 1, 71, 0
1, 487228, Note_on_c, 1, 72, 127
1, 487228, Note_on_c, 1, 69, 127
1, 487228, Note_on_c, 1, 45, 127
1, 487610, Note_off_c, 1, 72, 0
1, 487610, Note_off_c, 1, 69, 0
1, 487610, Note_off_c, 1, 45, 0
1, 487612, Note_on_c, 1, 67, 127
1, 487612, Note_on_c, 1, 71, 127
1, 487612, Note_on_c, 1, 47, 127
1, 487994, Note_off_c, 1, 67, 0
1, 487994, Note_off_c, 1, 71, 0
1, 487994, Note_off_c, 1, 47, 0
1, 487996, Note_on_c, 1, 69, 127
1, 487996, Note_on_c, 1, 66, 127
1, 487996, Note_on_c, 1, 48, 127
1, 488378, Note_off_c, 1, 69, 0
1, 488378, Note_off_c, 1, 66, 0
1, 488378, Note_off_c, 1, 48, 0
1, 488380, Note_on_c, 1, 64, 127
1, 488380, Note_on_c, 1, 67, 127
1, 488380, Note_on_c, 1, 45, 127
1, 488762, Note_off_c, 1, 64, 0
1, 488762, Note_off_c, 1, 67, 0
1, 488762, Note_off_c, 1, 45, 0
1, 488764, Note_on_c, 1, 66, 127
1, 488764, Note_on_c, 1, 63, 127
1, 488764, Note_on_c, 1, 47, 127
1, 488953, Note_off_c, 1, 66, 0
1, 488955, Note_on_c, 1, 64, 127
1, 489144, Note_off_c, 1, 64, 0
1, 489337, Note_on_c, 1, 67, 127
1, 489520, Note_off_c, 1, 63, 0
1, 489526, Note_off_c, 1, 67, 0
1, 489527, Note_off_c, 1, 47, 0
1, 489528, Note_on_c, 1, 64, 127
1, 489528, Note_on_c, 1, 40, 127
1, 489912, Note_on_c, 1, 59, 127
1, 490294, Note_off_c, 1, 59, 0
1, 490296, Note_on_c, 1, 55, 127
1, 490296, Note_on_c, 1, 47, 127
1, 492584, Note_off_c, 1, 64, 0
1, 492584, Note_off_c, 1, 40, 0
1, 492978, Note_off_c, 1, 55, 0
1, 492978, Note_off_c, 1, 47, 0
1, 492981, Note_on_c, 1, 71, 127
1, 492981, Note_on_c, 1, 64, 127
1, 493363, Note_off_c, 1, 71, 0
1, 493363, Note_off_c, 1, 64, 0
1, 493365, Note_on_c, 1, 76, 127
1, 493365, Note_on_c, 1, 55, 127
1, 493531, Note_off_c, 1, 76, 0
1, 493533, Note_on_c, 1, 78, 127
1, 493699, Note_off_c, 1, 78, 0
1, 493700, Note_off_c, 1, 55, 0
1, 493702, Note_on_c, 1, 79, 127
1, 493702, Note_on_c, 1, 57, 127
1, 494038, Note_off_c, 1, 79, 0
1, 494038, Note_off_c, 1, 57, 0
1, 494040, Note_on_c, 1, 78, 127
1, 494040, Note_on_c, 1, 59, 127
1, 494376, Note_off_c, 1, 78, 0
1, 494376, Note_off_c, 1, 59, 0
1, 494379, Note_on_c, 1, 79, 127
1, 494379, Note_on_c, 1, 52, 127
1, 494715, Note_off_c, 1, 79, 0
1, 494715, Note_off_c, 1, 52, 0
1, 494717, Note_on_c, 1, 76, 127
1, 494717, Note_on_c, 1, 55, 127
1, 494883, Note_off_c, 1, 76, 0
1, 494886, Note_on_c, 1, 75, 127
1, 495052, Note_off_c, 1, 55, 0
1, 495052, Note_off_c, 1, 75, 0
1, 495054, Note_on_c, 1, 76, 127
1, 495054, Note_on_c, 1, 59, 127
1, 495220, Note_off_c, 1, 76, 0
1, 495223, Note_on_c, 1, 78, 127
1, 495389, Note_off_c, 1, 59, 0
1, 495389, Note_off_c, 1, 78, 0
1, 495391, Note_on_c, 1, 79, 127
1, 495391, Note_on_c, 1, 64, 127
1, 495557, Note_off_c, 1, 79, 0
1, 495557, Note_off_c, 1, 64, 0
1, 495560, Note_on_c, 1, 81, 127
1, 495560, Note_on_c, 1, 66, 127
1, 495726, Note_off_c, 1, 81, 0
1, 495726, Note_off_c, 1, 66, 0
1, 495728, Note_on_c, 1, 83, 127
1, 495728, Note_on_c, 1, 67, 127
1, 495894, Note_off_c, 1, 83, 0
1, 495897, Note_on_c, 1, 84, 127
1, 496063, Note_off_c, 1, 67, 0
1, 496063, Note_off_c, 1, 84, 0
1, 496065, Note_on_c, 1, 83, 127
1, 496065, Note_on_c, 1, 66, 127
1, 496231, Note_off_c, 1, 83, 0
1, 496234, Note_on_c, 1, 81, 127
1, 496400, Note_off_c, 1, 66, 0
1, 496400, Note_off_c, 1, 81, 0
1, 496402, Note_on_c, 1, 83, 127
1, 496402, Note_on_c, 1, 67, 127
1, 496568, Note_off_c, 1, 83, 0
1, 496571, Note_on_c, 1, 76, 127
1, 496737, Note_off_c, 1, 67, 0
1, 496737, Note_off_c, 1, 76, 0
1, 496739, Note_on_c, 1, 78, 127
1, 496739, Note_on_c, 1, 66, 127
1, 496905, Note_off_c, 1, 78, 0
1, 496905, Note_off_c, 1, 66, 0
1, 496908, Note_on_c, 1, 79, 127
1, 496908, Note_on_c, 1, 64, 127
1, 497074, Note_off_c, 1, 79, 0
1, 497074, Note_off_c, 1, 64, 0
1, 497076, Note_on_c, 1, 81, 127
1, 497076, Note_on_c, 1, 66, 127
1, 497242, Note_off_c, 1, 81, 0
1, 497242, Note_off_c, 1, 66, 0
1, 497245, Note_on_c, 1, 83, 127
1, 497245, Note_on_c, 1, 67, 127
1, 497411, Note_off_c, 1, 83, 0
1, 497411, Note_off_c, 1, 67, 0
1, 497413, Note_on_c, 1, 84, 127
1, 497413, Note_on_c, 1, 69, 127
1, 497749, Note_off_c, 1, 84, 0
1, 497749, Note_off_c, 1, 69, 0
1, 497752, Note_on_c, 1, 83, 127
1, 497752, Note_on_c, 1, 66, 127
1, 497918, Note_off_c, 1, 83, 0
1, 497920, Note_on_c, 1, 81, 127
1, 498086, Note_off_c, 1, 81, 0
1, 498087, Note_off_c, 1, 66, 0
1, 498089, Note_on_c, 1, 79, 127
1, 498089, Note_on_c, 1, 62, 127
1, 498255, Note_off_c, 1, 79, 0
1, 498257, Note_on_c, 1, 78, 127
1, 498423, Note_off_c, 1, 78, 0
1, 498424, Note_off_c, 1, 62, 0
1, 498426, Note_on_c, 1, 83, 127
1, 498426, Note_on_c, 1, 67, 127
1, 498762, Note_off_c, 1, 83, 0
1, 498762, Note_off_c, 1, 67, 0
1, 498764, Note_on_c, 1, 81, 127
1, 498764, Note_on_c, 1, 64, 127
1, 498930, Note_off_c, 1, 81, 0
1, 498933, Note_on_c, 1, 79, 127
1, 499099, Note_off_c, 1, 64, 0
1, 499099, Note_off_c, 1, 79, 0
1, 499101, Note_on_c, 1, 78, 127
1, 499101, Note_on_c, 1, 60, 127
1, 499267, Note_off_c, 1, 78, 0
1, 499270, Note_on_c, 1, 76, 127
1, 499436, Note_off_c, 1, 60, 0
1, 499436, Note_off_c, 1, 76, 0
1, 499438, Note_on_c, 1, 81, 127
1, 499438, Note_on_c, 1, 54, 127
1, 499604, Note_off_c, 1, 81, 0
1, 499606, Note_on_c, 1, 79, 127
1, 499772, Note_off_c, 1, 79, 0
1, 499773, Note_off_c, 1, 54, 0
1, 499775, Note_on_c, 1, 78, 127
1, 499775, Note_on_c, 1, 64, 127
1, 499941, Note_off_c, 1, 78, 0
1, 499943, Note_on_c, 1, 79, 127
1, 500109, Note_off_c, 1, 79, 0
1, 500110, Note_off_c, 1, 64, 0
1, 500112, Note_on_c, 1, 81, 127
1, 500112, Note_on_c, 1, 63, 127
1, 500278, Note_off_c, 1, 81, 0
1, 500280, Note_on_c, 1, 78, 127
1, 500446, Note_off_c, 1, 78, 0
1, 500447, Note_off_c, 1, 63, 0
1, 500449, Note_on_c, 1, 79, 127
1, 500449, Note_on_c, 1, 64, 127
1, 500615, Note_off_c, 1, 79, 0
1, 500617, Note_on_c, 1, 71, 127
1, 500783, Note_off_c, 1, 71, 0
1, 500784, Note_off_c, 1, 64, 0
1, 500786, Note_on_c, 1, 73, 127
1, 500786, Note_on_c, 1, 52, 127
1, 500952, Note_off_c, 1, 73, 0
1, 500954, Note_on_c, 1, 75, 127
1, 501120, Note_off_c, 1, 75, 0
1, 501121, Note_off_c, 1, 52, 0
1, 501123, Note_on_c, 1, 76, 127
1, 501123, Note_on_c, 1, 54, 127
1, 501289, Note_off_c, 1, 76, 0
1, 501291, Note_on_c, 1, 75, 127
1, 501457, Note_off_c, 1, 75, 0
1, 501458, Note_off_c, 1, 54, 0
1, 501460, Note_on_c, 1, 76, 127
1, 501460, Note_on_c, 1, 55, 127
1, 501626, Note_off_c, 1, 76, 0
1, 501628, Note_on_c, 1, 78, 127
1, 501794, Note_off_c, 1, 78, 0
1, 501795, Note_off_c, 1, 55, 0
1, 501797, Note_on_c, 1, 79, 127
1, 501797, Note_on_c, 1, 57, 127
1, 501963, Note_off_c, 1, 79, 0
1, 501965, Note_on_c, 1, 81, 127
1, 502131, Note_off_c, 1, 81, 0
1, 502132, Note_off_c, 1, 57, 0
1, 502134, Note_on_c, 1, 79, 127
1, 502134, Note_on_c, 1, 59, 127
1, 502300, Note_off_c, 1, 79, 0
1, 502302, Note_on_c, 1, 78, 127
1, 502468, Note_off_c, 1, 78, 0
1, 502469, Note_off_c, 1, 59, 0
1, 502471, Note_on_c, 1, 79, 127
1, 502471, Note_on_c, 1, 52, 127
1, 502637, Note_off_c, 1, 79, 0
1, 502639, Note_on_c, 1, 78, 127
1, 502805, Note_off_c, 1, 78, 0
1, 502806, Note_off_c, 1, 52, 0
1, 502808, Note_on_c, 1, 76, 127
1, 502808, Note_on_c, 1, 55, 127
1, 502974, Note_off_c, 1, 76, 0
1, 502976, Note_on_c, 1, 75, 127
1, 503142, Note_off_c, 1, 75, 0
1, 503143, Note_off_c, 1, 55, 0
1, 503145, Note_on_c, 1, 76, 127
1, 503145, Note_on_c, 1, 59, 127
1, 503311, Note_off_c, 1, 76, 0
1, 503313, Note_on_c, 1, 78, 127
1, 503479, Note_off_c, 1, 78, 0
1, 503480, Note_off_c, 1, 59, 0
1, 503482, Note_on_c, 1, 79, 127
1, 503482, Note_on_c, 1, 64, 127
1, 503648, Note_off_c, 1, 79, 0
1, 503648, Note_off_c, 1, 64, 0
1, 503650, Note_on_c, 1, 81, 127
1, 503650, Note_on_c, 1, 66, 127
1, 503816, Note_off_c, 1, 81, 0
1, 503816, Note_off_c, 1, 66, 0
1, 503818, Note_on_c, 1, 83, 127
1, 503818, Note_on_c, 1, 67, 127
1, 503984, Note_off_c, 1, 83, 0
1, 503987, Note_on_c, 1, 84, 127
1, 504153, Note_off_c, 1, 67, 0
1, 504153, Note_off_c, 1, 84, 0
1, 504155, Note_on_c, 1, 83, 127
1, 504155, Note_on_c, 1, 66, 127
1, 504321, Note_off_c, 1, 83, 0
1, 504324, Note_on_c, 1, 81, 127
1, 504490, Note_off_c, 1, 66, 0
1, 504490, Note_off_c, 1, 81, 0
1, 504492, Note_on_c, 1, 83, 127
1, 504492, Note_on_c, 1, 67, 127
1, 504658, Note_off_c, 1, 83, 0
1, 504661, Note_on_c, 1, 76, 127
1, 504827, Note_off_c, 1, 67, 0
1, 504827, Note_off_c, 1, 76, 0
1, 504829, Note_on_c, 1, 78, 127
1, 504829, Note_on_c, 1, 66, 127
1, 504995, Note_off_c, 1, 78, 0
1, 504995, Note_off_c, 1, 66, 0
1, 504998, Note_on_c, 1, 79, 127
1, 504998, Note_on_c, 1, 64, 127
1, 505164, Note_off_c, 1, 79, 0
1, 505164, Note_off_c, 1, 64, 0
1, 505166, Note_on_c, 1, 81, 127
1, 505166, Note_on_c, 1, 66, 127
1, 505332, Note_off_c, 1, 81, 0
1, 505332, Note_off_c, 1, 66, 0
1, 505335, Note_on_c, 1, 83, 127
1, 505335, Note_on_c, 1, 67, 127
1, 505501, Note_off_c, 1, 83, 0
1, 505501, Note_off_c, 1, 67, 0
1, 505503, Note_on_c, 1, 84, 127
1, 505503, Note_on_c, 1, 69, 127
1, 505669, Note_off_c, 1, 84, 0
1, 505672, Note_on_c, 1, 74, 127
1, 505838, Note_off_c, 1, 69, 0
1, 505838, Note_off_c, 1, 74, 0
1, 505840, Note_on_c, 1, 76, 127
1, 505840, Note_on_c, 1, 66, 127
1, 506006, Note_off_c, 1, 76, 0
1, 506009, Note_on_c, 1, 78, 127
1, 506175, Note_off_c, 1, 66, 0
1, 506175, Note_off_c, 1, 78, 0
1, 506177, Note_on_c, 1, 79, 127
1, 506177, Note_on_c, 1, 62, 127
1, 506343, Note_off_c, 1, 79, 0
1, 506346, Note_on_c, 1, 81, 127
1, 506512, Note_off_c, 1, 62, 0
1, 506512, Note_off_c, 1, 81, 0
1, 506514, Note_on_c, 1, 67, 127
1, 506514, Note_on_c, 1, 83, 127
1, 506680, Note_off_c, 1, 67, 0
1, 506683, Note_on_c, 1, 66, 127
1, 506849, Note_off_c, 1, 83, 0
1, 506849, Note_off_c, 1, 66, 0
1, 506851, Note_on_c, 1, 64, 127
1, 506851, Note_on_c, 1, 71, 127
1, 507017, Note_off_c, 1, 64, 0
1, 507020, Note_on_c, 1, 62, 127
1, 507186, Note_off_c, 1, 71, 0
1, 507186, Note_off_c, 1, 62, 0
1, 507188, Note_on_c, 1, 76, 127
1, 507188, Note_on_c, 1, 60, 127
1, 507270, Note_off_c, 1, 76, 0
1, 507272, Note_on_c, 1, 74, 127
1, 507354, Note_off_c, 1, 60, 0
1, 507354, Note_off_c, 1, 74, 0
1, 507357, Note_on_c, 1, 59, 127
1, 507357, Note_on_c, 1, 76, 127
1, 507523, Note_off_c, 1, 59, 0
1, 507525, Note_on_c, 1, 60, 127
1, 507691, Note_off_c, 1, 60, 0
1, 507692, Note_off_c, 1, 76, 0
1, 507694, Note_on_c, 1, 78, 127
1, 507694, Note_on_c, 1, 57, 127
1, 507860, Note_off_c, 1, 78, 0
1, 507860, Note_off_c, 1, 57, 0
1, 507862, Note_on_c, 1, 79, 127
1, 507862, Note_on_c, 1, 59, 127
1, 507973, Note_off_c, 1, 79, 0
1, 507975, Note_on_c, 1, 78, 127
1, 508057, Note_off_c, 1, 78, 0
1, 508195, Note_off_c, 1, 59, 0
1, 508197, Note_on_c, 1, 47, 127
1, 508366, Note_on_c, 1, 76, 127
1, 508532, Note_off_c, 1, 47, 0
1, 508532, Note_off_c, 1, 76, 0
1, 508534, Note_on_c, 1, 52, 127
1, 508534, Note_on_c, 1, 76, 127
1, 508870, Note_off_c, 1, 52, 0
1, 508873, Note_on_c, 1, 40, 127
1, 509209, Note_off_c, 1, 76, 0
1, 509209, Note_off_c, 1, 40, 0
1, 509211, Note_on_c, 1, 52, 127
1, 509211, Note_on_c, 1, 79, 127
1, 509377, Note_off_c, 1, 52, 0
1, 509380, Note_on_c, 1, 54, 127
1, 509546, Note_off_c, 1, 79, 0
1, 509546, Note_off_c, 1, 54, 0
1, 509548, Note_on_c, 1, 71, 127
1, 509548, Note_on_c, 1, 55, 127
1, 509714, Note_off_c, 1, 71, 0
1, 509714, Note_off_c, 1, 55, 0
1, 509717, Note_on_c, 1, 72, 127
1, 509717, Note_on_c, 1, 57, 127
1, 509883, Note_off_c, 1, 72, 0
1, 509883, Note_off_c, 1, 57, 0
1, 509885, Note_on_c, 1, 59, 127
1, 509885, Note_on_c, 1, 74, 127
1, 510051, Note_off_c, 1, 59, 0
1, 510054, Note_on_c, 1, 60, 127
1, 510220, Note_off_c, 1, 74, 0
1, 510220, Note_off_c, 1, 60, 0
1, 510222, Note_on_c, 1, 59, 127
1, 510222, Note_on_c, 1, 76, 127
1, 510388, Note_off_c, 1, 59, 0
1, 510391, Note_on_c, 1, 57, 127
1, 510557, Note_off_c, 1, 76, 0
1, 510557, Note_off_c, 1, 57, 0
1, 510559, Note_on_c, 1, 59, 127
1, 510559, Note_on_c, 1, 74, 127
1, 510725, Note_off_c, 1, 59, 0
1, 510728, Note_on_c, 1, 57, 127
1, 510894, Note_off_c, 1, 74, 0
1, 510894, Note_off_c, 1, 57, 0
1, 510896, Note_on_c, 1, 72, 127
1, 510896, Note_on_c, 1, 55, 127
1, 511062, Note_off_c, 1, 72, 0
1, 511062, Note_off_c, 1, 55, 0
1, 511065, Note_on_c, 1, 71, 127
1, 511065, Note_on_c, 1, 57, 127
1, 511231, Note_off_c, 1, 71, 0
1, 511231, Note_off_c, 1, 57, 0
1, 511233, Note_on_c, 1, 69, 127
1, 511233, Note_on_c, 1, 59, 127
1, 511399, Note_off_c, 1, 69, 0
1, 511399, Note_off_c, 1, 59, 0
1, 511402, Note_on_c, 1, 67, 127
1, 511402, Note_on_c, 1, 60, 127
1, 511568, Note_off_c, 1, 67, 0
1, 511568, Note_off_c, 1, 60, 0
1, 511570, Note_on_c, 1, 59, 127
1, 511570, Note_on_c, 1, 79, 127
1, 511736, Note_off_c, 1, 59, 0
1, 511739, Note_on_c, 1, 57, 127
1, 511905, Note_off_c, 1, 79, 0
1, 511905, Note_off_c, 1, 57, 0
1, 511907, Note_on_c, 1, 71, 127
1, 511907, Note_on_c, 1, 55, 127
1, 512073, Note_off_c, 1, 71, 0
1, 512073, Note_off_c, 1, 55, 0
1, 512076, Note_on_c, 1, 72, 127
1, 512076, Note_on_c, 1, 57, 127
1, 512242, Note_off_c, 1, 72, 0
1, 512242, Note_off_c, 1, 57, 0
1, 512244, Note_on_c, 1, 74, 127
1, 512244, Note_on_c, 1, 59, 127
1, 512410, Note_off_c, 1, 74, 0
1, 512410, Note_off_c, 1, 59, 0
1, 512413, Note_on_c, 1, 76, 127
1, 512413, Note_on_c, 1, 60, 127
1, 512579, Note_off_c, 1, 76, 0
1, 512579, Note_off_c, 1, 60, 0
1, 512581, Note_on_c, 1, 59, 127
1, 512581, Note_on_c, 1, 74, 127
1, 512747, Note_off_c, 1, 59, 0
1, 512750, Note_on_c, 1, 57, 127
1, 512916, Note_off_c, 1, 74, 0
1, 512916, Note_off_c, 1, 57, 0
1, 512918, Note_on_c, 1, 55, 127
1, 512918, Note_on_c, 1, 79, 127
1, 513084, Note_off_c, 1, 55, 0
1, 513087, Note_on_c, 1, 54, 127
1, 513253, Note_off_c, 1, 54, 0
1, 513255, Note_on_c, 1, 52, 127
1, 513421, Note_off_c, 1, 52, 0
1, 513423, Note_on_c, 1, 50, 127
1, 513589, Note_off_c, 1, 50, 0
1, 513592, Note_on_c, 1, 49, 127
1, 513758, Note_off_c, 1, 49, 0
1, 513927, Note_off_c, 1, 79, 0
1, 513929, Note_on_c, 1, 57, 127
1, 513929, Note_on_c, 1, 76, 127
1, 514095, Note_off_c, 1, 57, 0
1, 514097, Note_on_c, 1, 55, 127
1, 514263, Note_off_c, 1, 55, 0
1, 514264, Note_off_c, 1, 76, 0
1, 514266, Note_on_c, 1, 54, 127
1, 514266, Note_on_c, 1, 81, 127
1, 514432, Note_off_c, 1, 54, 0
1, 514434, Note_on_c, 1, 52, 127
1, 514600, Note_off_c, 1, 52, 0
1, 514601, Note_off_c, 1, 81, 0
1, 514603, Note_on_c, 1, 50, 127
1, 514603, Note_on_c, 1, 78, 127
1, 514769, Note_off_c, 1, 50, 0
1, 514771, Note_on_c, 1, 52, 127
1, 514937, Note_off_c, 1, 52, 0
1, 514938, Note_off_c, 1, 78, 0
1, 514940, Note_on_c, 1, 50, 127
1, 514940, Note_on_c, 1, 83, 127
1, 515106, Note_off_c, 1, 50, 0
1, 515108, Note_on_c, 1, 49, 127
1, 515274, Note_off_c, 1, 49, 0
1, 515277, Note_on_c, 1, 47, 127
1, 515443, Note_off_c, 1, 47, 0
1, 515445, Note_on_c, 1, 45, 127
1, 515611, Note_off_c, 1, 45, 0
1, 515614, Note_on_c, 1, 43, 127
1, 515780, Note_off_c, 1, 43, 0
1, 515782, Note_on_c, 1, 52, 127
1, 515948, Note_off_c, 1, 52, 0
1, 515949, Note_off_c, 1, 83, 0
1, 515951, Note_on_c, 1, 81, 127
1, 515951, Note_on_c, 1, 57, 127
1, 516117, Note_off_c, 1, 81, 0
1, 516119, Note_on_c, 1, 79, 127
1, 516285, Note_off_c, 1, 79, 0
1, 516286, Note_off_c, 1, 57, 0
1, 516288, Note_on_c, 1, 78, 127
1, 516288, Note_on_c, 1, 45, 127
1, 516454, Note_off_c, 1, 78, 0
1, 516456, Note_on_c, 1, 76, 127
1, 516622, Note_off_c, 1, 76, 0
1, 516623, Note_off_c, 1, 45, 0
1, 516625, Note_on_c, 1, 79, 127
1, 516625, Note_on_c, 1, 50, 127
1, 516791, Note_off_c, 1, 79, 0
1, 516793, Note_on_c, 1, 78, 127
1, 516959, Note_off_c, 1, 78, 0
1, 516962, Note_on_c, 1, 76, 127
1, 517128, Note_off_c, 1, 50, 0
1, 517128, Note_off_c, 1, 76, 0
1, 517130, Note_on_c, 1, 74, 127
1, 517130, Note_on_c, 1, 54, 127
1, 517296, Note_off_c, 1, 74, 0
1, 517296, Note_off_c, 1, 54, 0
1, 517299, Note_on_c, 1, 59, 127
1, 517299, Note_on_c, 1, 78, 127
1, 517465, Note_off_c, 1, 59, 0
1, 517467, Note_on_c, 1, 57, 127
1, 517633, Note_off_c, 1, 57, 0
1, 517634, Note_off_c, 1, 78, 0
1, 517635, Note_on_c, 1, 71, 127
1, 517635, Note_on_c, 1, 55, 127
1, 517801, Note_off_c, 1, 71, 0
1, 517801, Note_off_c, 1, 55, 0
1, 517804, Note_on_c, 1, 73, 127
1, 517804, Note_on_c, 1, 54, 127
1, 517970, Note_off_c, 1, 73, 0
1, 517970, Note_off_c, 1, 54, 0
1, 517972, Note_on_c, 1, 52, 127
1, 517972, Note_on_c, 1, 74, 127
1, 518138, Note_off_c, 1, 52, 0
1, 518141, Note_on_c, 1, 50, 127
1, 518307, Note_off_c, 1, 74, 0
1, 518307, Note_off_c, 1, 50, 0
1, 518309, Note_on_c, 1, 52, 127
1, 518309, Note_on_c, 1, 73, 127
1, 518475, Note_off_c, 1, 52, 0
1, 518478, Note_on_c, 1, 54, 127
1, 518644, Note_off_c, 1, 73, 0
1, 518644, Note_off_c, 1, 54, 0
1, 518646, Note_on_c, 1, 47, 127
1, 518646, Note_on_c, 1, 74, 127
1, 518812, Note_off_c, 1, 47, 0
1, 518815, Note_on_c, 1, 59, 127
1, 518981, Note_off_c, 1, 74, 0
1, 518981, Note_off_c, 1, 59, 0
1, 518983, Note_on_c, 1, 73, 127
1, 518983, Note_on_c, 1, 58, 127
1, 519149, Note_off_c, 1, 73, 0
1, 519149, Note_off_c, 1, 58, 0
1, 519152, Note_on_c, 1, 71, 127
1, 519152, Note_on_c, 1, 56, 127
1, 519318, Note_off_c, 1, 71, 0
1, 519318, Note_off_c, 1, 56, 0
1, 519320, Note_on_c, 1, 73, 127
1, 519320, Note_on_c, 1, 58, 127
1, 519486, Note_off_c, 1, 73, 0
1, 519486, Note_off_c, 1, 58, 0
1, 519489, Note_on_c, 1, 74, 127
1, 519489, Note_on_c, 1, 59, 127
1, 519655, Note_off_c, 1, 74, 0
1, 519655, Note_off_c, 1, 59, 0
1, 519657, Note_on_c, 1, 76, 127
1, 519657, Note_on_c, 1, 49, 127
1, 519823, Note_off_c, 1, 76, 0
1, 519823, Note_off_c, 1, 49, 0
1, 519826, Note_on_c, 1, 78, 127
1, 519826, Note_on_c, 1, 59, 127
1, 519992, Note_off_c, 1, 78, 0
1, 519992, Note_off_c, 1, 59, 0
1, 519994, Note_on_c, 1, 57, 127
1, 519994, Note_on_c, 1, 79, 127
1, 520160, Note_off_c, 1, 57, 0
1, 520163, Note_on_c, 1, 55, 127
1, 520329, Note_off_c, 1, 79, 0
1, 520329, Note_off_c, 1, 55, 0
1, 520331, Note_on_c, 1, 57, 127
1, 520331, Note_on_c, 1, 78, 127
1, 520497, Note_off_c, 1, 57, 0
1, 520500, Note_on_c, 1, 51, 127
1, 520666, Note_off_c, 1, 78, 0
1, 520666, Note_off_c, 1, 51, 0
1, 520668, Note_on_c, 1, 52, 127
1, 520668, Note_on_c, 1, 79, 127
1, 520834, Note_off_c, 1, 52, 0
1, 520837, Note_on_c, 1, 57, 127
1, 521003, Note_off_c, 1, 57, 0
1, 521005, Note_on_c, 1, 55, 127
1, 521171, Note_off_c, 1, 55, 0
1, 521174, Note_on_c, 1, 54, 127
1, 521340, Note_off_c, 1, 54, 0
1, 521679, Note_on_c, 1, 49, 127
1, 521845, Note_off_c, 1, 79, 0
1, 521847, Note_on_c, 1, 82, 127
1, 522013, Note_off_c, 1, 82, 0
1, 522014, Note_off_c, 1, 49, 0
1, 522016, Note_on_c, 1, 83, 127
1, 522016, Note_on_c, 1, 50, 127
1, 522182, Note_off_c, 1, 83, 0
1, 522184, Note_on_c, 1, 79, 127
1, 522350, Note_off_c, 1, 79, 0
1, 522351, Note_off_c, 1, 50, 0
1, 522353, Note_on_c, 1, 78, 127
1, 522353, Note_on_c, 1, 46, 127
1, 522519, Note_off_c, 1, 78, 0
1, 522521, Note_on_c, 1, 76, 127
1, 522687, Note_off_c, 1, 76, 0
1, 522688, Note_off_c, 1, 46, 0
1, 522690, Note_on_c, 1, 74, 127
1, 522690, Note_on_c, 1, 47, 127
1, 522856, Note_off_c, 1, 74, 0
1, 522858, Note_on_c, 1, 77, 127
1, 523024, Note_off_c, 1, 77, 0
1, 523025, Note_off_c, 1, 47, 0
1, 523027, Note_on_c, 1, 78, 127
1, 523027, Note_on_c, 1, 50, 127
1, 523193, Note_off_c, 1, 78, 0
1, 523195, Note_on_c, 1, 74, 127
1, 523361, Note_off_c, 1, 74, 0
1, 523362, Note_off_c, 1, 50, 0
1, 523364, Note_on_c, 1, 73, 127
1, 523364, Note_on_c, 1, 55, 127
1, 523530, Note_off_c, 1, 73, 0
1, 523532, Note_on_c, 1, 71, 127
1, 523698, Note_off_c, 1, 71, 0
1, 523701, Note_on_c, 1, 76, 127
1, 523867, Note_off_c, 1, 55, 0
1, 523867, Note_off_c, 1, 76, 0
1, 523869, Note_on_c, 1, 78, 127
1, 523869, Note_on_c, 1, 52, 127
1, 524035, Note_off_c, 1, 78, 0
1, 524035, Note_off_c, 1, 52, 0
1, 524038, Note_on_c, 1, 74, 127
1, 524038, Note_on_c, 1, 54, 127
1, 524149, Note_off_c, 1, 74, 0
1, 524151, Note_on_c, 1, 73, 127
1, 524233, Note_off_c, 1, 73, 0
1, 524371, Note_off_c, 1, 54, 0
1, 524373, Note_on_c, 1, 42, 127
1, 524542, Note_on_c, 1, 71, 127
1, 524708, Note_off_c, 1, 42, 0
1, 524708, Note_off_c, 1, 71, 0
1, 524710, Note_on_c, 1, 47, 127
1, 524710, Note_on_c, 1, 71, 127
1, 525046, Note_off_c, 1, 47, 0
1, 525049, Note_on_c, 1, 59, 127
1, 525215, Note_off_c, 1, 59, 0
1, 525217, Note_on_c, 1, 57, 127
1, 525383, Note_off_c, 1, 71, 0
1, 525383, Note_off_c, 1, 57, 0
1, 525386, Note_on_c, 1, 55, 127
1, 525386, Note_on_c, 1, 71, 127
1, 525552, Note_off_c, 1, 55, 0
1, 525554, Note_on_c, 1, 54, 127
1, 525720, Note_off_c, 1, 54, 0
1, 525721, Note_off_c, 1, 71, 0
1, 525723, Note_on_c, 1, 76, 127
1, 525723, Note_on_c, 1, 55, 127
1, 525889, Note_off_c, 1, 76, 0
1, 525891, Note_on_c, 1, 78, 127
1, 526057, Note_off_c, 1, 78, 0
1, 526058, Note_off_c, 1, 55, 0
1, 526059, Note_on_c, 1, 79, 127
1, 526059, Note_on_c, 1, 57, 127
1, 526395, Note_off_c, 1, 79, 0
1, 526395, Note_off_c, 1, 57, 0
1, 526398, Note_on_c, 1, 78, 127
1, 526398, Note_on_c, 1, 59, 127
1, 526734, Note_off_c, 1, 78, 0
1, 526734, Note_off_c, 1, 59, 0
1, 526737, Note_on_c, 1, 79, 127
1, 526737, Note_on_c, 1, 52, 127
1, 527073, Note_off_c, 1, 79, 0
1, 527073, Note_off_c, 1, 52, 0
1, 527075, Note_on_c, 1, 76, 127
1, 527075, Note_on_c, 1, 55, 127
1, 527241, Note_off_c, 1, 76, 0
1, 527244, Note_on_c, 1, 75, 127
1, 527410, Note_off_c, 1, 55, 0
1, 527410, Note_off_c, 1, 75, 0
1, 527412, Note_on_c, 1, 76, 127
1, 527412, Note_on_c, 1, 59, 127
1, 527578, Note_off_c, 1, 76, 0
1, 527581, Note_on_c, 1, 78, 127
1, 527747, Note_off_c, 1, 59, 0
1, 527747, Note_off_c, 1, 78, 0
1, 527749, Note_on_c, 1, 79, 127
1, 527749, Note_on_c, 1, 64, 127
1, 527915, Note_off_c, 1, 79, 0
1, 527915, Note_off_c, 1, 64, 0
1, 527918, Note_on_c, 1, 81, 127
1, 527918, Note_on_c, 1, 66, 127
1, 528084, Note_off_c, 1, 81, 0
1, 528084, Note_off_c, 1, 66, 0
1, 528086, Note_on_c, 1, 83, 127
1, 528086, Note_on_c, 1, 67, 127
1, 528252, Note_off_c, 1, 83, 0
1, 528255, Note_on_c, 1, 84, 127
1, 528421, Note_off_c, 1, 67, 0
1, 528421, Note_off_c, 1, 84, 0
1, 528423, Note_on_c, 1, 83, 127
1, 528423, Note_on_c, 1, 66, 127
1, 528589, Note_off_c, 1, 83, 0
1, 528592, Note_on_c, 1, 81, 127
1, 528758, Note_off_c, 1, 66, 0
1, 528758, Note_off_c, 1, 81, 0
1, 528760, Note_on_c, 1, 83, 127
1, 528760, Note_on_c, 1, 67, 127
1, 528926, Note_off_c, 1, 83, 0
1, 528928, Note_on_c, 1, 76, 127
1, 529094, Note_off_c, 1, 76, 0
1, 529095, Note_off_c, 1, 67, 0
1, 529097, Note_on_c, 1, 78, 127
1, 529097, Note_on_c, 1, 66, 127
1, 529263, Note_off_c, 1, 78, 0
1, 529263, Note_off_c, 1, 66, 0
1, 529265, Note_on_c, 1, 79, 127
1, 529265, Note_on_c, 1, 64, 127
1, 529431, Note_off_c, 1, 79, 0
1, 529431, Note_off_c, 1, 64, 0
1, 529434, Note_on_c, 1, 81, 127
1, 529434, Note_on_c, 1, 66, 127
1, 529600, Note_off_c, 1, 81, 0
1, 529600, Note_off_c, 1, 66, 0
1, 529602, Note_on_c, 1, 83, 127
1, 529602, Note_on_c, 1, 67, 127
1, 529768, Note_off_c, 1, 83, 0
1, 529768, Note_off_c, 1, 67, 0
1, 529771, Note_on_c, 1, 84, 127
1, 529771, Note_on_c, 1, 69, 127
1, 530107, Note_off_c, 1, 84, 0
1, 530107, Note_off_c, 1, 69, 0
1, 530109, Note_on_c, 1, 83, 127
1, 530109, Note_on_c, 1, 66, 127
1, 530275, Note_off_c, 1, 83, 0
1, 530278, Note_on_c, 1, 81, 127
1, 530444, Note_off_c, 1, 66, 0
1, 530444, Note_off_c, 1, 81, 0
1, 530446, Note_on_c, 1, 79, 127
1, 530446, Note_on_c, 1, 62, 127
1, 530612, Note_off_c, 1, 79, 0
1, 530615, Note_on_c, 1, 78, 127
1, 530781, Note_off_c, 1, 62, 0
1, 530781, Note_off_c, 1, 78, 0
1, 530783, Note_on_c, 1, 83, 127
1, 530783, Note_on_c, 1, 67, 127
1, 531119, Note_off_c, 1, 83, 0
1, 531119, Note_off_c, 1, 67, 0
1, 531122, Note_on_c, 1, 81, 127
1, 531122, Note_on_c, 1, 64, 127
1, 531288, Note_off_c, 1, 81, 0
1, 531290, Note_on_c, 1, 79, 127
1, 531456, Note_off_c, 1, 79, 0
1, 531457, Note_off_c, 1, 64, 0
1, 531459, Note_on_c, 1, 78, 127
1, 531459, Note_on_c, 1, 60, 127
1, 531625, Note_off_c, 1, 78, 0
1, 531627, Note_on_c, 1, 76, 127
1, 531793, Note_off_c, 1, 76, 0
1, 531794, Note_off_c, 1, 60, 0
1, 531796, Note_on_c, 1, 81, 127
1, 531796, Note_on_c, 1, 54, 127
1, 531962, Note_off_c, 1, 81, 0
1, 531964, Note_on_c, 1, 79, 127
1, 532130, Note_off_c, 1, 79, 0
1, 532131, Note_off_c, 1, 54, 0
1, 532133, Note_on_c, 1, 78, 127
1, 532133, Note_on_c, 1, 64, 127
1, 532299, Note_off_c, 1, 78, 0
1, 532301, Note_on_c, 1, 79, 127
1, 532467, Note_off_c, 1, 79, 0
1, 532468, Note_off_c, 1, 64, 0
1, 532470, Note_on_c, 1, 81, 127
1, 532470, Note_on_c, 1, 63, 127
1, 532636, Note_off_c, 1, 81, 0
1, 532638, Note_on_c, 1, 78, 127
1, 532804, Note_off_c, 1, 78, 0
1, 532805, Note_off_c, 1, 63, 0
1, 532807, Note_on_c, 1, 79, 127
1, 532807, Note_on_c, 1, 64, 127
1, 532973, Note_off_c, 1, 79, 0
1, 532975, Note_on_c, 1, 71, 127
1, 533141, Note_off_c, 1, 71, 0
1, 533142, Note_off_c, 1, 64, 0
1, 533144, Note_on_c, 1, 73, 127
1, 533144, Note_on_c, 1, 52, 127
1, 533310, Note_off_c, 1, 73, 0
1, 533312, Note_on_c, 1, 75, 127
1, 533478, Note_off_c, 1, 75, 0
1, 533479, Note_off_c, 1, 52, 0
1, 533481, Note_on_c, 1, 76, 127
1, 533481, Note_on_c, 1, 54, 127
1, 533647, Note_off_c, 1, 76, 0
1, 533649, Note_on_c, 1, 75, 127
1, 533815, Note_off_c, 1, 75, 0
1, 533816, Note_off_c, 1, 54, 0
1, 533818, Note_on_c, 1, 76, 127
1, 533818, Note_on_c, 1, 55, 127
1, 533984, Note_off_c, 1, 76, 0
1, 533986, Note_on_c, 1, 78, 127
1, 534152, Note_off_c, 1, 78, 0
1, 534153, Note_off_c, 1, 55, 0
1, 534155, Note_on_c, 1, 79, 127
1, 534155, Note_on_c, 1, 57, 127
1, 534321, Note_off_c, 1, 79, 0
1, 534323, Note_on_c, 1, 81, 127
1, 534489, Note_off_c, 1, 81, 0
1, 534490, Note_off_c, 1, 57, 0
1, 534492, Note_on_c, 1, 79, 127
1, 534492, Note_on_c, 1, 59, 127
1, 534658, Note_off_c, 1, 79, 0
1, 534660, Note_on_c, 1, 78, 127
1, 534826, Note_off_c, 1, 78, 0
1, 534827, Note_off_c, 1, 59, 0
1, 534829, Note_on_c, 1, 79, 127
1, 534829, Note_on_c, 1, 52, 127
1, 534995, Note_off_c, 1, 79, 0
1, 534997, Note_on_c, 1, 78, 127
1, 535163, Note_off_c, 1, 78, 0
1, 535164, Note_off_c, 1, 52, 0
1, 535165, Note_on_c, 1, 76, 127
1, 535165, Note_on_c, 1, 55, 127
1, 535331, Note_off_c, 1, 76, 0
1, 535334, Note_on_c, 1, 75, 127
1, 535500, Note_off_c, 1, 55, 0
1, 535500, Note_off_c, 1, 75, 0
1, 535502, Note_on_c, 1, 76, 127
1, 535502, Note_on_c, 1, 59, 127
1, 535668, Note_off_c, 1, 76, 0
1, 535671, Note_on_c, 1, 78, 127
1, 535837, Note_off_c, 1, 59, 0
1, 535837, Note_off_c, 1, 78, 0
1, 535839, Note_on_c, 1, 79, 127
1, 535839, Note_on_c, 1, 64, 127
1, 536005, Note_off_c, 1, 79, 0
1, 536005, Note_off_c, 1, 64, 0
1, 536008, Note_on_c, 1, 81, 127
1, 536008, Note_on_c, 1, 66, 127
1, 536174, Note_off_c, 1, 81, 0
1, 536174, Note_off_c, 1, 66, 0
1, 536176, Note_on_c, 1, 83, 127
1, 536176, Note_on_c, 1, 67, 127
1, 536342, Note_off_c, 1, 83, 0
1, 536345, Note_on_c, 1, 84, 127
1, 536511, Note_off_c, 1, 67, 0
1, 536511, Note_off_c, 1, 84, 0
1, 536513, Note_on_c, 1, 83, 127
1, 536513, Note_on_c, 1, 66, 127
1, 536679, Note_off_c, 1, 83, 0
1, 536682, Note_on_c, 1, 81, 127
1, 536848, Note_off_c, 1, 66, 0
1, 536848, Note_off_c, 1, 81, 0
1, 536850, Note_on_c, 1, 83, 127
1, 536850, Note_on_c, 1, 67, 127
1, 537016, Note_off_c, 1, 83, 0
1, 537019, Note_on_c, 1, 76, 127
1, 537185, Note_off_c, 1, 67, 0
1, 537185, Note_off_c, 1, 76, 0
1, 537187, Note_on_c, 1, 78, 127
1, 537187, Note_on_c, 1, 66, 127
1, 537353, Note_off_c, 1, 78, 0
1, 537353, Note_off_c, 1, 66, 0
1, 537356, Note_on_c, 1, 79, 127
1, 537356, Note_on_c, 1, 64, 127
1, 537522, Note_off_c, 1, 79, 0
1, 537522, Note_off_c, 1, 64, 0
1, 537524, Note_on_c, 1, 81, 127
1, 537524, Note_on_c, 1, 66, 127
1, 537690, Note_off_c, 1, 81, 0
1, 537690, Note_off_c, 1, 66, 0
1, 537693, Note_on_c, 1, 83, 127
1, 537693, Note_on_c, 1, 67, 127
1, 537859, Note_off_c, 1, 83, 0
1, 537859, Note_off_c, 1, 67, 0
1, 537861, Note_on_c, 1, 84, 127
1, 537861, Note_on_c, 1, 69, 127
1, 538027, Note_off_c, 1, 84, 0
1, 538030, Note_on_c, 1, 74, 127
1, 538196, Note_off_c, 1, 69, 0
1, 538196, Note_off_c, 1, 74, 0
1, 538198, Note_on_c, 1, 76, 127
1, 538198, Note_on_c, 1, 66, 127
1, 538364, Note_off_c, 1, 76, 0
1, 538367, Note_on_c, 1, 78, 127
1, 538533, Note_off_c, 1, 66, 0
1, 538533, Note_off_c, 1, 78, 0
1, 538535, Note_on_c, 1, 79, 127
1, 538535, Note_on_c, 1, 62, 127
1, 538701, Note_off_c, 1, 79, 0
1, 538704, Note_on_c, 1, 81, 127
1, 538870, Note_off_c, 1, 62, 0
1, 538870, Note_off_c, 1, 81, 0
1, 538872, Note_on_c, 1, 67, 127
1, 538872, Note_on_c, 1, 83, 127
1, 539038, Note_off_c, 1, 67, 0
1, 539041, Note_on_c, 1, 66, 127
1, 539207, Note_off_c, 1, 83, 0
1, 539207, Note_off_c, 1, 66, 0
1, 539209, Note_on_c, 1, 64, 127
1, 539209, Note_on_c, 1, 71, 127
1, 539375, Note_off_c, 1, 64, 0
1, 539377, Note_on_c, 1, 62, 127
1, 539543, Note_off_c, 1, 62, 0
1, 539544, Note_off_c, 1, 71, 0
1, 539546, Note_on_c, 1, 76, 127
1, 539546, Note_on_c, 1, 60, 127
1, 539628, Note_off_c, 1, 76, 0
1, 539630, Note_on_c, 1, 74, 127
1, 539712, Note_off_c, 1, 60, 0
1, 539712, Note_off_c, 1, 74, 0
1, 539714, Note_on_c, 1, 59, 127
1, 539714, Note_on_c, 1, 76, 127
1, 539880, Note_off_c, 1, 59, 0
1, 539883, Note_on_c, 1, 60, 127
1, 540049, Note_off_c, 1, 76, 0
1, 540049, Note_off_c, 1, 60, 0
1, 540051, Note_on_c, 1, 78, 127
1, 540051, Note_on_c, 1, 57, 127
1, 540217, Note_off_c, 1, 78, 0
1, 540217, Note_off_c, 1, 57, 0
1, 540220, Note_on_c, 1, 79, 127
1, 540220, Note_on_c, 1, 59, 127
1, 540331, Note_off_c, 1, 79, 0
1, 540333, Note_on_c, 1, 78, 127
1, 540415, Note_off_c, 1, 78, 0
1, 540553, Note_off_c, 1, 59, 0
1, 540555, Note_on_c, 1, 47, 127
1, 540724, Note_on_c, 1, 76, 127
1, 540890, Note_off_c, 1, 47, 0
1, 540890, Note_off_c, 1, 76, 0
1, 540892, Note_on_c, 1, 52, 127
1, 540892, Note_on_c, 1, 76, 127
1, 541228, Note_off_c, 1, 52, 0
1, 541231, Note_on_c, 1, 40, 127
1, 541567, Note_off_c, 1, 76, 0
1, 541569, Note_on_c, 1, 71, 127
1, 541735, Note_off_c, 1, 71, 0
1, 541738, Note_on_c, 1, 72, 127
1, 541900, Note_off_c, 1, 40, 0
1, 541904, Note_off_c, 1, 72, 0
1, 541906, Note_on_c, 1, 74, 127
1, 542072, Note_off_c, 1, 74, 0
1, 542075, Note_on_c, 1, 71, 127
1, 542241, Note_off_c, 1, 71, 0
1, 542243, Note_on_c, 1, 68, 127
1, 542243, Note_on_c, 1, 52, 127
1, 542409, Note_off_c, 1, 68, 0
1, 542409, Note_off_c, 1, 52, 0
1, 542412, Note_on_c, 1, 64, 127
1, 542412, Note_on_c, 1, 54, 127
1, 542578, Note_off_c, 1, 64, 0
1, 542578, Note_off_c, 1, 54, 0
1, 542580, Note_on_c, 1, 56, 127
1, 542580, Note_on_c, 1, 77, 127
1, 542746, Note_off_c, 1, 56, 0
1, 542749, Note_on_c, 1, 57, 127
1, 542915, Note_off_c, 1, 57, 0
1, 542917, Note_on_c, 1, 59, 127
1, 543083, Note_off_c, 1, 59, 0
1, 543252, Note_off_c, 1, 77, 0
1, 543254, Note_on_c, 1, 56, 127
1, 543254, Note_on_c, 1, 76, 127
1, 543420, Note_off_c, 1, 56, 0
1, 543423, Note_on_c, 1, 59, 127
1, 543589, Note_off_c, 1, 76, 0
1, 543589, Note_off_c, 1, 59, 0
1, 543591, Note_on_c, 1, 52, 127
1, 543591, Note_on_c, 1, 74, 127
1, 543757, Note_off_c, 1, 52, 0
1, 543760, Note_on_c, 1, 56, 127
1, 543926, Note_off_c, 1, 74, 0
1, 543926, Note_off_c, 1, 56, 0
1, 543928, Note_on_c, 1, 72, 127
1, 543928, Note_on_c, 1, 57, 127
1, 544094, Note_off_c, 1, 72, 0
1, 544097, Note_on_c, 1, 76, 127
1, 544263, Note_off_c, 1, 57, 0
1, 544263, Note_off_c, 1, 76, 0
1, 544265, Note_on_c, 1, 81, 127
1, 544265, Note_on_c, 1, 50, 127
1, 544431, Note_off_c, 1, 81, 0
1, 544434, Note_on_c, 1, 72, 127
1, 544600, Note_off_c, 1, 50, 0
1, 544600, Note_off_c, 1, 72, 0
1, 544602, Note_on_c, 1, 71, 127
1, 544602, Note_on_c, 1, 52, 127
1, 544768, Note_off_c, 1, 71, 0
1, 544770, Note_on_c, 1, 80, 127
1, 544936, Note_off_c, 1, 80, 0
1, 544937, Note_off_c, 1, 52, 0
1, 544939, Note_on_c, 1, 81, 127
1, 544939, Note_on_c, 1, 45, 127
1, 545105, Note_off_c, 1, 81, 0
1, 545107, Note_on_c, 1, 76, 127
1, 545273, Note_off_c, 1, 76, 0
1, 545274, Note_off_c, 1, 45, 0
1, 545276, Note_on_c, 1, 72, 127
1, 545276, Note_on_c, 1, 57, 127
1, 545442, Note_off_c, 1, 72, 0
1, 545444, Note_on_c, 1, 69, 127
1, 545610, Note_off_c, 1, 69, 0
1, 545611, Note_off_c, 1, 57, 0
1, 545613, Note_on_c, 1, 72, 127
1, 545613, Note_on_c, 1, 55, 127
1, 545779, Note_off_c, 1, 72, 0
1, 545781, Note_on_c, 1, 76, 127
1, 545947, Note_off_c, 1, 76, 0
1, 545948, Note_off_c, 1, 55, 0
1, 545950, Note_on_c, 1, 81, 127
1, 545950, Note_on_c, 1, 54, 127
1, 546116, Note_off_c, 1, 81, 0
1, 546118, Note_on_c, 1, 78, 127
1, 546284, Note_off_c, 1, 78, 0
1, 546285, Note_off_c, 1, 54, 0
1, 546287, Note_on_c, 1, 75, 127
1, 546287, Note_on_c, 1, 47, 127
1, 546453, Note_off_c, 1, 75, 0
1, 546453, Note_off_c, 1, 47, 0
1, 546455, Note_on_c, 1, 71, 127
1, 546455, Note_on_c, 1, 49, 127
1, 546621, Note_off_c, 1, 71, 0
1, 546621, Note_off_c, 1, 49, 0
1, 546624, Note_on_c, 1, 51, 127
1, 546624, Note_on_c, 1, 72, 127
1, 546790, Note_off_c, 1, 51, 0
1, 546792, Note_on_c, 1, 52, 127
1, 546958, Note_off_c, 1, 52, 0
1, 546961, Note_on_c, 1, 54, 127
1, 547127, Note_off_c, 1, 54, 0
1, 547296, Note_off_c, 1, 72, 0
1, 547298, Note_on_c, 1, 51, 127
1, 547298, Note_on_c, 1, 71, 127
1, 547464, Note_off_c, 1, 51, 0
1, 547466, Note_on_c, 1, 54, 127
1, 547632, Note_off_c, 1, 54, 0
1, 547633, Note_off_c, 1, 71, 0
1, 547635, Note_on_c, 1, 47, 127
1, 547635, Note_on_c, 1, 69, 127
1, 547801, Note_off_c, 1, 47, 0
1, 547803, Note_on_c, 1, 51, 127
1, 547969, Note_off_c, 1, 51, 0
1, 547970, Note_off_c, 1, 69, 0
1, 547972, Note_on_c, 1, 67, 127
1, 547972, Note_on_c, 1, 52, 127
1, 548138, Note_off_c, 1, 67, 0
1, 548140, Note_on_c, 1, 71, 127
1, 548306, Note_off_c, 1, 71, 0
1, 548307, Note_off_c, 1, 52, 0
1, 548309, Note_on_c, 1, 76, 127
1, 548309, Note_on_c, 1, 48, 127
1, 548475, Note_off_c, 1, 76, 0
1, 548477, Note_on_c, 1, 75, 127
1, 548643, Note_off_c, 1, 75, 0
1, 548644, Note_off_c, 1, 48, 0
1, 548646, Note_on_c, 1, 76, 127
1, 548646, Note_on_c, 1, 45, 127
1, 548812, Note_off_c, 1, 76, 0
1, 548814, Note_on_c, 1, 78, 127
1, 548980, Note_off_c, 1, 78, 0
1, 548981, Note_off_c, 1, 45, 0
1, 548982, Note_on_c, 1, 76, 127
1, 548982, Note_on_c, 1, 47, 127
1, 549148, Note_off_c, 1, 76, 0
1, 549151, Note_on_c, 1, 75, 127
1, 549317, Note_off_c, 1, 75, 0
1, 549319, Note_on_c, 1, 73, 127
1, 549485, Note_off_c, 1, 47, 0
1, 549485, Note_off_c, 1, 73, 0
1, 549488, Note_on_c, 1, 71, 127
1, 549488, Note_on_c, 1, 59, 127
1, 549654, Note_off_c, 1, 71, 0
1, 549654, Note_off_c, 1, 59, 0
1, 549656, Note_on_c, 1, 57, 127
1, 549656, Note_on_c, 1, 83, 127
1, 549822, Note_off_c, 1, 57, 0
1, 549825, Note_on_c, 1, 54, 127
1, 549991, Note_off_c, 1, 54, 0
1, 549993, Note_on_c, 1, 56, 127
1, 550041, Note_off_c, 1, 83, 0
1, 550162, Note_on_c, 1, 76, 127
1, 550328, Note_off_c, 1, 56, 0
1, 550328, Note_off_c, 1, 76, 0
1, 550330, Note_on_c, 1, 77, 127
1, 550330, Note_on_c, 1, 52, 127
1, 550496, Note_off_c, 1, 77, 0
1, 550499, Note_on_c, 1, 74, 127
1, 550665, Note_off_c, 1, 52, 0
1, 550665, Note_off_c, 1, 74, 0
1, 550667, Note_on_c, 1, 76, 127
1, 550667, Note_on_c, 1, 56, 127
1, 550833, Note_off_c, 1, 76, 0
1, 550836, Note_on_c, 1, 71, 127
1, 551002, Note_off_c, 1, 56, 0
1, 551002, Note_off_c, 1, 71, 0
1, 551004, Note_on_c, 1, 74, 127
1, 551004, Note_on_c, 1, 45, 127
1, 551170, Note_off_c, 1, 74, 0
1, 551173, Note_on_c, 1, 72, 127
1, 551339, Note_off_c, 1, 72, 0
1, 551341, Note_on_c, 1, 71, 127
1, 551507, Note_off_c, 1, 45, 0
1, 551507, Note_off_c, 1, 71, 0
1, 551510, Note_on_c, 1, 69, 127
1, 551510, Note_on_c, 1, 57, 127
1, 551676, Note_off_c, 1, 69, 0
1, 551676, Note_off_c, 1, 57, 0
1, 551678, Note_on_c, 1, 55, 127
1, 551678, Note_on_c, 1, 81, 127
1, 551844, Note_off_c, 1, 55, 0
1, 551847, Note_on_c, 1, 52, 127
1, 552013, Note_off_c, 1, 52, 0
1, 552015, Note_on_c, 1, 54, 127
1, 552099, Note_off_c, 1, 81, 0
1, 552184, Note_on_c, 1, 74, 127
1, 552350, Note_off_c, 1, 54, 0
1, 552350, Note_off_c, 1, 74, 0
1, 552352, Note_on_c, 1, 75, 127
1, 552352, Note_on_c, 1, 50, 127
1, 552518, Note_off_c, 1, 75, 0
1, 552521, Note_on_c, 1, 72, 127
1, 552687, Note_off_c, 1, 50, 0
1, 552687, Note_off_c, 1, 72, 0
1, 552689, Note_on_c, 1, 74, 127
1, 552689, Note_on_c, 1, 54, 127
1, 552855, Note_off_c, 1, 74, 0
1, 552858, Note_on_c, 1, 69, 127
1, 553024, Note_off_c, 1, 54, 0
1, 553024, Note_off_c, 1, 69, 0
1, 553026, Note_on_c, 1, 72, 127
1, 553026, Note_on_c, 1, 43, 127
1, 553192, Note_off_c, 1, 72, 0
1, 553194, Note_on_c, 1, 71, 127
1, 553360, Note_off_c, 1, 71, 0
1, 553363, Note_on_c, 1, 69, 127
1, 553529, Note_off_c, 1, 43, 0
1, 553529, Note_off_c, 1, 69, 0
1, 553531, Note_on_c, 1, 67, 127
1, 553531, Note_on_c, 1, 50, 127
1, 553697, Note_off_c, 1, 67, 0
1, 553697, Note_off_c, 1, 50, 0
1, 553700, Note_on_c, 1, 48, 127
1, 553700, Note_on_c, 1, 74, 127
1, 553866, Note_off_c, 1, 48, 0
1, 553868, Note_on_c, 1, 45, 127
1, 554034, Note_off_c, 1, 45, 0
1, 554037, Note_on_c, 1, 47, 127
1, 554156, Note_off_c, 1, 74, 0
1, 554205, Note_on_c, 1, 69, 127
1, 554371, Note_off_c, 1, 69, 0
1, 554372, Note_off_c, 1, 47, 0
1, 554374, Note_on_c, 1, 71, 127
1, 554374, Note_on_c, 1, 43, 127
1, 554540, Note_off_c, 1, 71, 0
1, 554542, Note_on_c, 1, 67, 127
1, 554708, Note_off_c, 1, 67, 0
1, 554711, Note_on_c, 1, 69, 127
1, 554866, Note_off_c, 1, 43, 0
1, 554879, Note_off_c, 1, 69, 0
1, 554881, Note_on_c, 1, 65, 127
1, 555047, Note_off_c, 1, 65, 0
1, 555049, Note_on_c, 1, 64, 127
1, 555049, Note_on_c, 1, 48, 127
1, 555215, Note_off_c, 1, 64, 0
1, 555218, Note_on_c, 1, 74, 127
1, 555384, Note_off_c, 1, 48, 0
1, 555384, Note_off_c, 1, 74, 0
1, 555386, Note_on_c, 1, 72, 127
1, 555386, Note_on_c, 1, 45, 127
1, 555552, Note_off_c, 1, 72, 0
1, 555555, Note_on_c, 1, 69, 127
1, 555721, Note_off_c, 1, 69, 0
1, 555723, Note_on_c, 1, 71, 127
1, 555878, Note_off_c, 1, 45, 0
1, 555891, Note_off_c, 1, 71, 0
1, 555893, Note_on_c, 1, 67, 127
1, 556059, Note_off_c, 1, 67, 0
1, 556062, Note_on_c, 1, 78, 127
1, 556062, Note_on_c, 1, 50, 127
1, 556228, Note_off_c, 1, 78, 0
1, 556230, Note_on_c, 1, 79, 127
1, 556396, Note_off_c, 1, 79, 0
1, 556397, Note_off_c, 1, 50, 0
1, 556399, Note_on_c, 1, 72, 127
1, 556399, Note_on_c, 1, 48, 127
1, 556565, Note_off_c, 1, 72, 0
1, 556567, Note_on_c, 1, 71, 127
1, 556733, Note_off_c, 1, 71, 0
1, 556734, Note_off_c, 1, 48, 0
1, 556736, Note_on_c, 1, 69, 127
1, 556736, Note_on_c, 1, 50, 127
1, 556902, Note_off_c, 1, 69, 0
1, 556904, Note_on_c, 1, 71, 127
1, 557070, Note_off_c, 1, 71, 0
1, 557071, Note_off_c, 1, 50, 0
1, 557073, Note_on_c, 1, 55, 127
1, 557073, Note_on_c, 1, 67, 127
1, 557239, Note_off_c, 1, 55, 0
1, 557241, Note_on_c, 1, 57, 127
1, 557407, Note_off_c, 1, 57, 0
1, 557410, Note_on_c, 1, 59, 127
1, 557565, Note_off_c, 1, 67, 0
1, 557578, Note_off_c, 1, 59, 0
1, 557580, Note_on_c, 1, 55, 127
1, 557746, Note_off_c, 1, 55, 0
1, 557748, Note_on_c, 1, 57, 127
1, 557748, Note_on_c, 1, 71, 127
1, 557914, Note_off_c, 1, 57, 0
1, 557917, Note_on_c, 1, 54, 127
1, 558083, Note_off_c, 1, 71, 0
1, 558083, Note_off_c, 1, 54, 0
1, 558085, Note_on_c, 1, 76, 127
1, 558085, Note_on_c, 1, 55, 127
1, 558251, Note_off_c, 1, 76, 0
1, 558254, Note_on_c, 1, 78, 127
1, 558420, Note_off_c, 1, 55, 0
1, 558420, Note_off_c, 1, 78, 0
1, 558422, Note_on_c, 1, 79, 127
1, 558422, Note_on_c, 1, 57, 127
1, 558758, Note_off_c, 1, 79, 0
1, 558758, Note_off_c, 1, 57, 0
1, 558761, Note_on_c, 1, 78, 127
1, 558761, Note_on_c, 1, 59, 127
1, 559097, Note_off_c, 1, 78, 0
1, 559097, Note_off_c, 1, 59, 0
1, 559099, Note_on_c, 1, 79, 127
1, 559099, Note_on_c, 1, 52, 127
1, 559435, Note_off_c, 1, 79, 0
1, 559435, Note_off_c, 1, 52, 0
1, 559438, Note_on_c, 1, 76, 127
1, 559438, Note_on_c, 1, 55, 127
1, 559604, Note_off_c, 1, 76, 0
1, 559606, Note_on_c, 1, 75, 127
1, 559772, Note_off_c, 1, 75, 0
1, 559773, Note_off_c, 1, 55, 0
1, 559775, Note_on_c, 1, 76, 127
1, 559775, Note_on_c, 1, 59, 127
1, 559941, Note_off_c, 1, 76, 0
1, 559943, Note_on_c, 1, 78, 127
1, 560109, Note_off_c, 1, 78, 0
1, 560110, Note_off_c, 1, 59, 0
1, 560112, Note_on_c, 1, 79, 127
1, 560112, Note_on_c, 1, 64, 127
1, 560278, Note_off_c, 1, 79, 0
1, 560278, Note_off_c, 1, 64, 0
1, 560280, Note_on_c, 1, 81, 127
1, 560280, Note_on_c, 1, 66, 127
1, 560446, Note_off_c, 1, 81, 0
1, 560446, Note_off_c, 1, 66, 0
1, 560449, Note_on_c, 1, 83, 127
1, 560449, Note_on_c, 1, 67, 127
1, 560615, Note_off_c, 1, 83, 0
1, 560617, Note_on_c, 1, 84, 127
1, 560783, Note_off_c, 1, 84, 0
1, 560784, Note_off_c, 1, 67, 0
1, 560786, Note_on_c, 1, 83, 127
1, 560786, Note_on_c, 1, 66, 127
1, 560952, Note_off_c, 1, 83, 0
1, 560954, Note_on_c, 1, 81, 127
1, 561120, Note_off_c, 1, 81, 0
1, 561121, Note_off_c, 1, 66, 0
1, 561123, Note_on_c, 1, 83, 127
1, 561123, Note_on_c, 1, 67, 127
1, 561289, Note_off_c, 1, 83, 0
1, 561291, Note_on_c, 1, 76, 127
1, 561457, Note_off_c, 1, 76, 0
1, 561458, Note_off_c, 1, 67, 0
1, 561460, Note_on_c, 1, 78, 127
1, 561460, Note_on_c, 1, 66, 127
1, 561626, Note_off_c, 1, 78, 0
1, 561626, Note_off_c, 1, 66, 0
1, 561628, Note_on_c, 1, 79, 127
1, 561628, Note_on_c, 1, 64, 127
1, 561794, Note_off_c, 1, 79, 0
1, 561794, Note_off_c, 1, 64, 0
1, 561797, Note_on_c, 1, 81, 127
1, 561797, Note_on_c, 1, 66, 127
1, 561963, Note_off_c, 1, 81, 0
1, 561963, Note_off_c, 1, 66, 0
1, 561965, Note_on_c, 1, 83, 127
1, 561965, Note_on_c, 1, 67, 127
1, 562131, Note_off_c, 1, 83, 0
1, 562131, Note_off_c, 1, 67, 0
1, 562134, Note_on_c, 1, 84, 127
1, 562134, Note_on_c, 1, 69, 127
1, 562470, Note_off_c, 1, 84, 0
1, 562470, Note_off_c, 1, 69, 0
1, 562472, Note_on_c, 1, 83, 127
1, 562472, Note_on_c, 1, 66, 127
1, 562638, Note_off_c, 1, 83, 0
1, 562641, Note_on_c, 1, 81, 127
1, 562807, Note_off_c, 1, 66, 0
1, 562807, Note_off_c, 1, 81, 0
1, 562809, Note_on_c, 1, 79, 127
1, 562809, Note_on_c, 1, 62, 127
1, 562975, Note_off_c, 1, 79, 0
1, 562978, Note_on_c, 1, 78, 127
1, 563144, Note_off_c, 1, 62, 0
1, 563144, Note_off_c, 1, 78, 0
1, 563146, Note_on_c, 1, 83, 127
1, 563146, Note_on_c, 1, 67, 127
1, 563482, Note_off_c, 1, 83, 0
1, 563482, Note_off_c, 1, 67, 0
1, 563485, Note_on_c, 1, 81, 127
1, 563485, Note_on_c, 1, 64, 127
1, 563651, Note_off_c, 1, 81, 0
1, 563653, Note_on_c, 1, 79, 127
1, 563819, Note_off_c, 1, 79, 0
1, 563820, Note_off_c, 1, 64, 0
1, 563822, Note_on_c, 1, 78, 127
1, 563822, Note_on_c, 1, 60, 127
1, 563988, Note_off_c, 1, 78, 0
1, 563990, Note_on_c, 1, 76, 127
1, 564156, Note_off_c, 1, 76, 0
1, 564157, Note_off_c, 1, 60, 0
1, 564159, Note_on_c, 1, 81, 127
1, 564159, Note_on_c, 1, 54, 127
1, 564325, Note_off_c, 1, 81, 0
1, 564327, Note_on_c, 1, 79, 127
1, 564493, Note_off_c, 1, 79, 0
1, 564494, Note_off_c, 1, 54, 0
1, 564496, Note_on_c, 1, 78, 127
1, 564496, Note_on_c, 1, 64, 127
1, 564662, Note_off_c, 1, 78, 0
1, 564664, Note_on_c, 1, 79, 127
1, 564830, Note_off_c, 1, 79, 0
1, 564831, Note_off_c, 1, 64, 0
1, 564833, Note_on_c, 1, 81, 127
1, 564833, Note_on_c, 1, 63, 127
1, 564999, Note_off_c, 1, 81, 0
1, 565001, Note_on_c, 1, 78, 127
1, 565167, Note_off_c, 1, 78, 0
1, 565168, Note_off_c, 1, 63, 0
1, 565170, Note_on_c, 1, 79, 127
1, 565170, Note_on_c, 1, 64, 127
1, 565336, Note_off_c, 1, 79, 0
1, 565338, Note_on_c, 1, 71, 127
1, 565504, Note_off_c, 1, 71, 0
1, 565505, Note_off_c, 1, 64, 0
1, 565506, Note_on_c, 1, 73, 127
1, 565506, Note_on_c, 1, 52, 127
1, 565672, Note_off_c, 1, 73, 0
1, 565675, Note_on_c, 1, 75, 127
1, 565841, Note_off_c, 1, 52, 0
1, 565841, Note_off_c, 1, 75, 0
1, 565843, Note_on_c, 1, 76, 127
1, 565843, Note_on_c, 1, 54, 127
1, 566009, Note_off_c, 1, 76, 0
1, 566012, Note_on_c, 1, 75, 127
1, 566178, Note_off_c, 1, 54, 0
1, 566178, Note_off_c, 1, 75, 0
1, 566180, Note_on_c, 1, 76, 127
1, 566180, Note_on_c, 1, 55, 127
1, 566346, Note_off_c, 1, 76, 0
1, 566349, Note_on_c, 1, 78, 127
1, 566515, Note_off_c, 1, 55, 0
1, 566515, Note_off_c, 1, 78, 0
1, 566517, Note_on_c, 1, 79, 127
1, 566517, Note_on_c, 1, 57, 127
1, 566683, Note_off_c, 1, 79, 0
1, 566686, Note_on_c, 1, 81, 127
1, 566852, Note_off_c, 1, 57, 0
1, 566852, Note_off_c, 1, 81, 0
1, 566854, Note_on_c, 1, 79, 127
1, 566854, Note_on_c, 1, 59, 127
1, 567020, Note_off_c, 1, 79, 0
1, 567023, Note_on_c, 1, 78, 127
1, 567189, Note_off_c, 1, 59, 0
1, 567189, Note_off_c, 1, 78, 0
1, 567191, Note_on_c, 1, 79, 127
1, 567191, Note_on_c, 1, 52, 127
1, 567357, Note_off_c, 1, 79, 0
1, 567360, Note_on_c, 1, 78, 127
1, 567526, Note_off_c, 1, 52, 0
1, 567526, Note_off_c, 1, 78, 0
1, 567528, Note_on_c, 1, 76, 127
1, 567528, Note_on_c, 1, 55, 127
1, 567694, Note_off_c, 1, 76, 0
1, 567697, Note_on_c, 1, 75, 127
1, 567863, Note_off_c, 1, 55, 0
1, 567863, Note_off_c, 1, 75, 0
1, 567865, Note_on_c, 1, 76, 127
1, 567865, Note_on_c, 1, 59, 127
1, 568031, Note_off_c, 1, 76, 0
1, 568034, Note_on_c, 1, 78, 127
1, 568200, Note_off_c, 1, 59, 0
1, 568200, Note_off_c, 1, 78, 0
1, 568202, Note_on_c, 1, 79, 127
1, 568202, Note_on_c, 1, 64, 127
1, 568368, Note_off_c, 1, 79, 0
1, 568368, Note_off_c, 1, 64, 0
1, 568371, Note_on_c, 1, 81, 127
1, 568371, Note_on_c, 1, 66, 127
1, 568537, Note_off_c, 1, 81, 0
1, 568537, Note_off_c, 1, 66, 0
1, 568539, Note_on_c, 1, 83, 127
1, 568539, Note_on_c, 1, 67, 127
1, 568705, Note_off_c, 1, 83, 0
1, 568708, Note_on_c, 1, 84, 127
1, 568874, Note_off_c, 1, 67, 0
1, 568874, Note_off_c, 1, 84, 0
1, 568876, Note_on_c, 1, 83, 127
1, 568876, Note_on_c, 1, 66, 127
1, 569042, Note_off_c, 1, 83, 0
1, 569045, Note_on_c, 1, 81, 127
1, 569211, Note_off_c, 1, 66, 0
1, 569211, Note_off_c, 1, 81, 0
1, 569213, Note_on_c, 1, 83, 127
1, 569213, Note_on_c, 1, 67, 127
1, 569379, Note_off_c, 1, 83, 0
1, 569382, Note_on_c, 1, 76, 127
1, 569548, Note_off_c, 1, 67, 0
1, 569548, Note_off_c, 1, 76, 0
1, 569550, Note_on_c, 1, 78, 127
1, 569550, Note_on_c, 1, 66, 127
1, 569716, Note_off_c, 1, 78, 0
1, 569716, Note_off_c, 1, 66, 0
1, 569718, Note_on_c, 1, 79, 127
1, 569718, Note_on_c, 1, 64, 127
1, 569884, Note_off_c, 1, 79, 0
1, 569884, Note_off_c, 1, 64, 0
1, 569887, Note_on_c, 1, 81, 127
1, 569887, Note_on_c, 1, 66, 127
1, 570053, Note_off_c, 1, 81, 0
1, 570053, Note_off_c, 1, 66, 0
1, 570055, Note_on_c, 1, 83, 127
1, 570055, Note_on_c, 1, 67, 127
1, 570221, Note_off_c, 1, 83, 0
1, 570221, Note_off_c, 1, 67, 0
1, 570224, Note_on_c, 1, 84, 127
1, 570224, Note_on_c, 1, 69, 127
1, 570390, Note_off_c, 1, 84, 0
1, 570392, Note_on_c, 1, 74, 127
1, 570558, Note_off_c, 1, 74, 0
1, 570559, Note_off_c, 1, 69, 0
1, 570561, Note_on_c, 1, 76, 127
1, 570561, Note_on_c, 1, 66, 127
1, 570727, Note_off_c, 1, 76, 0
1, 570729, Note_on_c, 1, 78, 127
1, 570895, Note_off_c, 1, 78, 0
1, 570896, Note_off_c, 1, 66, 0
1, 570898, Note_on_c, 1, 79, 127
1, 570898, Note_on_c, 1, 62, 127
1, 571064, Note_off_c, 1, 79, 0
1, 571066, Note_on_c, 1, 81, 127
1, 571232, Note_off_c, 1, 81, 0
1, 571233, Note_off_c, 1, 62, 0
1, 571235, Note_on_c, 1, 67, 127
1, 571235, Note_on_c, 1, 83, 127
1, 571401, Note_off_c, 1, 67, 0
1, 571403, Note_on_c, 1, 66, 127
1, 571569, Note_off_c, 1, 66, 0
1, 571570, Note_off_c, 1, 83, 0
1, 571572, Note_on_c, 1, 64, 127
1, 571572, Note_on_c, 1, 71, 127
1, 571738, Note_off_c, 1, 64, 0
1, 571740, Note_on_c, 1, 62, 127
1, 571906, Note_off_c, 1, 62, 0
1, 571907, Note_off_c, 1, 71, 0
1, 571909, Note_on_c, 1, 76, 127
1, 571909, Note_on_c, 1, 60, 127
1, 571991, Note_off_c, 1, 76, 0
1, 571993, Note_on_c, 1, 75, 127
1, 572075, Note_off_c, 1, 60, 0
1, 572075, Note_off_c, 1, 75, 0
1, 572077, Note_on_c, 1, 59, 127
1, 572077, Note_on_c, 1, 76, 127
1, 572243, Note_off_c, 1, 59, 0
1, 572246, Note_on_c, 1, 60, 127
1, 572412, Note_off_c, 1, 76, 0
1, 572412, Note_off_c, 1, 60, 0
1, 572414, Note_on_c, 1, 78, 127
1, 572414, Note_on_c, 1, 57, 127
1, 572580, Note_off_c, 1, 78, 0
1, 572580, Note_off_c, 1, 57, 0
1, 572583, Note_on_c, 1, 79, 127
1, 572583, Note_on_c, 1, 59, 127
1, 572694, Note_off_c, 1, 79, 0
1, 572696, Note_on_c, 1, 78, 127
1, 572778, Note_off_c, 1, 78, 0
1, 572916, Note_off_c, 1, 59, 0
1, 572918, Note_on_c, 1, 47, 127
1, 573086, Note_on_c, 1, 76, 127
1, 573252, Note_off_c, 1, 76, 0
1, 573253, Note_off_c, 1, 47, 0
1, 573255, Note_on_c, 1, 52, 127
1, 573255, Note_on_c, 1, 76, 127
1, 573591, Note_off_c, 1, 52, 0
1, 573594, Note_on_c, 1, 40, 127
1, 573930, Note_off_c, 1, 76, 0
1, 573930, Note_off_c, 1, 40, 0
1, 573932, Note_on_c, 1, 68, 127
1, 573932, Note_on_c, 1, 64, 127
1, 573932, Note_on_c, 1, 83, 127
1, 574098, Note_off_c, 1, 68, 0
1, 574101, Note_on_c, 1, 69, 127
1, 574265, Note_off_c, 1, 64, 0
1, 574267, Note_off_c, 1, 83, 0
1, 574267, Note_off_c, 1, 69, 0
1, 574269, Note_on_c, 1, 80, 127
1, 574269, Note_on_c, 1, 71, 127
1, 574269, Note_on_c, 1, 64, 127
1, 574605, Note_off_c, 1, 80, 0
1, 574605, Note_off_c, 1, 71, 0
1, 574608, Note_on_c, 1, 81, 127
1, 574608, Note_on_c, 1, 69, 127
1, 574774, Note_off_c, 1, 81, 0
1, 574943, Note_off_c, 1, 69, 0
1, 574945, Note_on_c, 1, 78, 127
1, 574945, Note_on_c, 1, 68, 127
1, 575111, Note_off_c, 1, 78, 0
1, 575113, Note_on_c, 1, 76, 127
1, 575279, Note_off_c, 1, 76, 0
1, 575280, Note_off_c, 1, 68, 0
1, 575450, Note_on_c, 1, 75, 127
1, 575616, Note_off_c, 1, 75, 0
1, 575787, Note_on_c, 1, 66, 127
1, 575953, Note_off_c, 1, 66, 0
1, 576292, Note_on_c, 1, 73, 127
1, 576628, Note_off_c, 1, 73, 0
1, 576958, Note_off_c, 1, 64, 0
1, 576968, Note_on_c, 1, 69, 127
1, 576968, Note_on_c, 1, 63, 127
1, 576968, Note_on_c, 1, 66, 127
1, 577304, Note_off_c, 1, 69, 0
1, 577304, Note_off_c, 1, 63, 0
1, 577304, Note_off_c, 1, 66, 0
1, 577307, Note_on_c, 1, 68, 127
1, 577307, Note_on_c, 1, 64, 127
1, 577473, Note_off_c, 1, 68, 0
1, 577475, Note_on_c, 1, 66, 127
1, 577640, Note_off_c, 1, 64, 0
1, 577641, Note_off_c, 1, 66, 0
1, 577644, Note_on_c, 1, 64, 127
1, 577812, Note_on_c, 1, 66, 127
1, 577978, Note_off_c, 1, 66, 0
1, 577980, Note_on_c, 1, 68, 127
1, 577980, Note_on_c, 1, 83, 127
1, 578146, Note_off_c, 1, 68, 0
1, 578149, Note_on_c, 1, 69, 127
1, 578315, Note_off_c, 1, 83, 0
1, 578315, Note_off_c, 1, 69, 0
1, 578317, Note_on_c, 1, 80, 127
1, 578317, Note_on_c, 1, 71, 127
1, 578653, Note_off_c, 1, 80, 0
1, 578653, Note_off_c, 1, 71, 0
1, 578656, Note_on_c, 1, 81, 127
1, 578822, Note_off_c, 1, 81, 0
1, 578993, Note_on_c, 1, 78, 127
1, 579159, Note_off_c, 1, 78, 0
1, 579161, Note_on_c, 1, 76, 127
1, 579327, Note_off_c, 1, 76, 0
1, 579498, Note_on_c, 1, 75, 127
1, 579664, Note_off_c, 1, 75, 0
1, 580331, Note_off_c, 1, 64, 0
1, 580341, Note_on_c, 1, 69, 127
1, 580341, Note_on_c, 1, 73, 127
1, 580341, Note_on_c, 1, 57, 127
1, 580677, Note_off_c, 1, 69, 0
1, 580677, Note_off_c, 1, 73, 0
1, 580677, Note_off_c, 1, 57, 0
1, 580679, Note_on_c, 1, 68, 127
1, 580679, Note_on_c, 1, 71, 127
1, 580679, Note_on_c, 1, 59, 127
1, 581015, Note_off_c, 1, 68, 0
1, 581015, Note_off_c, 1, 71, 0
1, 581015, Note_off_c, 1, 59, 0
1, 581018, Note_on_c, 1, 69, 127
1, 581018, Note_on_c, 1, 66, 127
1, 581018, Note_on_c, 1, 47, 127
1, 581354, Note_off_c, 1, 69, 0
1, 581354, Note_off_c, 1, 66, 0
1, 581354, Note_off_c, 1, 47, 0
1, 581357, Note_on_c, 1, 52, 127
1, 581357, Note_on_c, 1, 64, 127
1, 581357, Note_on_c, 1, 68, 127
1, 581693, Note_off_c, 1, 52, 0
1, 581695, Note_on_c, 1, 59, 127
1, 582031, Note_off_c, 1, 59, 0
1, 582032, Note_off_c, 1, 64, 0
1, 582032, Note_off_c, 1, 68, 0
1, 582034, Note_on_c, 1, 71, 127
1, 582034, Note_on_c, 1, 80, 127
1, 582034, Note_on_c, 1, 64, 127
1, 582370, Note_off_c, 1, 71, 0
1, 582370, Note_off_c, 1, 80, 0
1, 582370, Note_off_c, 1, 64, 0
1, 582372, Note_on_c, 1, 78, 127
1, 582372, Note_on_c, 1, 63, 127
1, 582372, Note_on_c, 1, 71, 127
1, 582708, Note_off_c, 1, 78, 0
1, 582708, Note_off_c, 1, 63, 0
1, 582711, Note_on_c, 1, 76, 127
1, 582711, Note_on_c, 1, 64, 127
1, 582877, Note_off_c, 1, 76, 0
1, 582879, Note_on_c, 1, 75, 127
1, 583041, Note_off_c, 1, 71, 0
1, 583045, Note_off_c, 1, 75, 0
1, 583046, Note_off_c, 1, 64, 0
1, 583048, Note_on_c, 1, 73, 127
1, 583048, Note_on_c, 1, 66, 127
1, 583214, Note_off_c, 1, 73, 0
1, 583216, Note_on_c, 1, 71, 127
1, 583383, Note_off_c, 1, 66, 0
1, 583385, Note_on_c, 1, 76, 127
1, 583385, Note_on_c, 1, 68, 127
1, 583549, Note_off_c, 1, 71, 0
1, 583551, Note_off_c, 1, 76, 0
1, 583720, Note_off_c, 1, 68, 0
1, 583722, Note_on_c, 1, 78, 127
1, 583722, Note_on_c, 1, 70, 127
1, 583722, Note_on_c, 1, 73, 127
1, 584058, Note_off_c, 1, 78, 0
1, 584058, Note_off_c, 1, 70, 0
1, 584060, Note_on_c, 1, 76, 127
1, 584060, Note_on_c, 1, 66, 127
1, 584392, Note_off_c, 1, 73, 0
1, 584396, Note_off_c, 1, 76, 0
1, 584396, Note_off_c, 1, 66, 0
1, 584399, Note_on_c, 1, 75, 127
1, 584399, Note_on_c, 1, 71, 127
1, 584735, Note_off_c, 1, 75, 0
1, 584735, Note_off_c, 1, 71, 0
1, 584737, Note_on_c, 1, 76, 127
1, 584737, Note_on_c, 1, 70, 127
1, 584903, Note_off_c, 1, 76, 0
1, 584906, Note_on_c, 1, 75, 127
1, 585072, Note_off_c, 1, 70, 0
1, 585072, Note_off_c, 1, 75, 0
1, 585074, Note_on_c, 1, 73, 127
1, 585074, Note_on_c, 1, 68, 127
1, 585240, Note_off_c, 1, 73, 0
1, 585243, Note_on_c, 1, 71, 127
1, 585409, Note_off_c, 1, 68, 0
1, 585409, Note_off_c, 1, 71, 0
1, 585411, Note_on_c, 1, 66, 127
1, 585411, Note_on_c, 1, 70, 127
1, 585411, Note_on_c, 1, 73, 127
1, 585746, Note_off_c, 1, 66, 0
1, 585747, Note_off_c, 1, 70, 0
1, 585747, Note_off_c, 1, 73, 0
1, 585750, Note_on_c, 1, 66, 127
1, 585918, Note_on_c, 1, 68, 127
1, 586083, Note_off_c, 1, 66, 0
1, 586084, Note_off_c, 1, 68, 0
1, 586087, Note_on_c, 1, 70, 127
1, 586087, Note_on_c, 1, 66, 127
1, 586253, Note_off_c, 1, 70, 0
1, 586255, Note_on_c, 1, 68, 127
1, 586255, Note_on_c, 1, 71, 127
1, 586421, Note_off_c, 1, 68, 0
1, 586421, Note_off_c, 1, 71, 0
1, 586424, Note_on_c, 1, 73, 127
1, 586590, Note_off_c, 1, 73, 0
1, 586592, Note_on_c, 1, 75, 127
1, 586758, Note_off_c, 1, 75, 0
1, 586761, Note_on_c, 1, 76, 127
1, 586927, Note_off_c, 1, 76, 0
1, 587096, Note_off_c, 1, 66, 0
1, 587098, Note_on_c, 1, 70, 127
1, 587098, Note_on_c, 1, 80, 127
1, 587098, Note_on_c, 1, 64, 127
1, 587434, Note_off_c, 1, 70, 0
1, 587434, Note_off_c, 1, 80, 0
1, 587434, Note_off_c, 1, 64, 0
1, 587436, Note_on_c, 1, 78, 127
1, 587436, Note_on_c, 1, 63, 127
1, 587436, Note_on_c, 1, 71, 127
1, 587772, Note_off_c, 1, 78, 0
1, 587772, Note_off_c, 1, 63, 0
1, 587775, Note_on_c, 1, 76, 127
1, 587775, Note_on_c, 1, 68, 127
1, 587941, Note_off_c, 1, 76, 0
1, 587941, Note_off_c, 1, 68, 0
1, 587943, Note_on_c, 1, 75, 127
1, 587943, Note_on_c, 1, 66, 127
1, 588105, Note_off_c, 1, 71, 0
1, 588109, Note_off_c, 1, 75, 0
1, 588109, Note_off_c, 1, 66, 0
1, 588112, Note_on_c, 1, 73, 127
1, 588112, Note_on_c, 1, 64, 127
1, 588278, Note_off_c, 1, 73, 0
1, 588278, Note_off_c, 1, 64, 0
1, 588280, Note_on_c, 1, 71, 127
1, 588280, Note_on_c, 1, 63, 127
1, 588446, Note_off_c, 1, 71, 0
1, 588446, Note_off_c, 1, 63, 0
1, 588449, Note_on_c, 1, 76, 127
1, 588449, Note_on_c, 1, 61, 127
1, 588615, Note_off_c, 1, 76, 0
1, 588615, Note_off_c, 1, 61, 0
1, 588617, Note_on_c, 1, 78, 127
1, 588617, Note_on_c, 1, 59, 127
1, 588783, Note_off_c, 1, 78, 0
1, 588783, Note_off_c, 1, 59, 0
1, 588786, Note_on_c, 1, 75, 127
1, 588786, Note_on_c, 1, 66, 127
1, 588786, Note_on_c, 1, 70, 127
1, 588898, Note_on_c, 1, 73, 127
1, 588901, Note_off_c, 1, 75, 0
1, 588980, Note_off_c, 1, 73, 0
1, 589121, Note_off_c, 1, 66, 0
1, 589123, Note_on_c, 1, 54, 127
1, 589276, Note_off_c, 1, 70, 0
1, 589291, Note_on_c, 1, 71, 127
1, 589457, Note_off_c, 1, 71, 0
1, 589458, Note_off_c, 1, 54, 0
1, 589460, Note_on_c, 1, 59, 127
1, 589460, Note_on_c, 1, 71, 127
1, 589796, Note_off_c, 1, 59, 0
1, 589798, Note_on_c, 1, 61, 127
1, 590134, Note_off_c, 1, 61, 0
1, 590135, Note_off_c, 1, 71, 0
1, 590137, Note_on_c, 1, 66, 127
1, 590137, Note_on_c, 1, 71, 127
1, 590137, Note_on_c, 1, 63, 127
1, 590473, Note_off_c, 1, 66, 0
1, 590473, Note_off_c, 1, 71, 0
1, 590473, Note_off_c, 1, 63, 0
1, 590476, Note_on_c, 1, 68, 127
1, 590476, Note_on_c, 1, 64, 127
1, 590812, Note_off_c, 1, 68, 0
1, 590814, Note_on_c, 1, 69, 127
1, 590814, Note_on_c, 1, 52, 127
1, 590980, Note_off_c, 1, 69, 0
1, 591145, Note_off_c, 1, 64, 0
1, 591149, Note_off_c, 1, 52, 0
1, 591151, Note_on_c, 1, 66, 127
1, 591151, Note_on_c, 1, 54, 127
1, 591317, Note_off_c, 1, 66, 0
1, 591320, Note_on_c, 1, 64, 127
1, 591486, Note_off_c, 1, 54, 0
1, 591488, Note_on_c, 1, 74, 127
1, 591488, Note_on_c, 1, 56, 127
1, 591654, Note_off_c, 1, 74, 0
1, 591657, Note_on_c, 1, 71, 127
1, 591823, Note_off_c, 1, 56, 0
1, 591823, Note_off_c, 1, 71, 0
1, 591825, Note_on_c, 1, 73, 127
1, 591825, Note_on_c, 1, 57, 127
1, 592161, Note_off_c, 1, 73, 0
1, 592161, Note_off_c, 1, 57, 0
1, 592164, Note_on_c, 1, 75, 127
1, 592164, Note_on_c, 1, 59, 127
1, 592500, Note_off_c, 1, 75, 0
1, 592500, Note_off_c, 1, 59, 0
1, 592502, Note_on_c, 1, 76, 127
1, 592502, Note_on_c, 1, 61, 127
1, 592669, Note_off_c, 1, 64, 0
1, 592835, Note_off_c, 1, 76, 0
1, 592839, Note_on_c, 1, 78, 127
1, 592839, Note_on_c, 1, 68, 127
1, 593005, Note_off_c, 1, 78, 0
1, 593172, Note_off_c, 1, 68, 0
1, 593176, Note_on_c, 1, 70, 127
1, 593509, Note_off_c, 1, 70, 0
1, 593511, Note_off_c, 1, 61, 0
1, 593513, Note_on_c, 1, 81, 127
1, 593513, Note_on_c, 1, 63, 127
1, 593513, Note_on_c, 1, 71, 127
1, 593679, Note_off_c, 1, 81, 0
1, 593682, Note_on_c, 1, 78, 127
1, 593848, Note_off_c, 1, 63, 0
1, 593848, Note_off_c, 1, 78, 0
1, 593850, Note_on_c, 1, 80, 127
1, 593850, Note_on_c, 1, 64, 127
1, 594149, Note_off_c, 1, 80, 0
1, 594182, Note_off_c, 1, 71, 0
1, 594186, Note_off_c, 1, 64, 0
1, 594189, Note_on_c, 1, 57, 127
1, 594189, Note_on_c, 1, 69, 127
1, 594189, Note_on_c, 1, 78, 127
1, 594530, Note_off_c, 1, 57, 0
1, 594532, Note_on_c, 1, 59, 127
1, 594689, Note_off_c, 1, 69, 0
1, 594702, Note_off_c, 1, 78, 0
1, 594704, Note_on_c, 1, 75, 127
1, 594704, Note_on_c, 1, 66, 127
1, 594874, Note_off_c, 1, 75, 0
1, 594874, Note_off_c, 1, 66, 0
1, 594875, Note_on_c, 1, 68, 127
1, 594875, Note_on_c, 1, 76, 127
1, 595045, Note_off_c, 1, 68, 0
1, 595047, Note_on_c, 1, 64, 127
1, 595215, Note_off_c, 1, 76, 0
1, 595217, Note_off_c, 1, 64, 0
1, 595219, Note_on_c, 1, 73, 127
1, 595391, Note_on_c, 1, 61, 127
1, 595561, Note_off_c, 1, 61, 0
1, 595562, Note_on_c, 1, 63, 127
1, 595722, Note_off_c, 1, 73, 0
1, 595737, Note_on_c, 1, 81, 127
1, 595907, Note_off_c, 1, 63, 0
1, 595908, Note_off_c, 1, 81, 0
1, 595909, Note_off_c, 1, 59, 0
1, 595911, Note_on_c, 1, 71, 127
1, 595911, Note_on_c, 1, 64, 127
1, 595911, Note_on_c, 1, 61, 127
1, 596084, Note_off_c, 1, 71, 0
1, 596086, Note_on_c, 1, 80, 127
1, 596256, Note_off_c, 1, 64, 0
1, 596257, Note_off_c, 1, 61, 0
1, 596257, Note_off_c, 1, 80, 0
1, 596259, Note_on_c, 1, 69, 127
1, 596259, Note_on_c, 1, 66, 127
1, 596259, Note_on_c, 1, 63, 127
1, 596432, Note_off_c, 1, 69, 0
1, 596434, Note_on_c, 1, 78, 127
1, 596604, Note_off_c, 1, 66, 0
1, 596605, Note_off_c, 1, 63, 0
1, 596605, Note_off_c, 1, 78, 0
1, 596607, Note_on_c, 1, 68, 127
1, 596607, Note_on_c, 1, 64, 127
1, 596976, Note_off_c, 1, 68, 0
1, 596976, Note_off_c, 1, 64, 0
1, 596978, Note_on_c, 1, 66, 127
1, 596978, Note_on_c, 1, 69, 127
1, 596978, Note_on_c, 1, 57, 127
1, 597373, Note_off_c, 1, 66, 0
1, 597373, Note_off_c, 1, 69, 0
1, 597373, Note_off_c, 1, 57, 0
1, 597375, Note_on_c, 1, 63, 127
1, 597375, Note_on_c, 1, 66, 127
1, 597375, Note_on_c, 1, 59, 127
1, 597815, Note_off_c, 1, 63, 0
1, 597815, Note_off_c, 1, 66, 0
1, 597815, Note_off_c, 1, 59, 0
1, 597817, Note_on_c, 1, 64, 127
1, 597817, Note_on_c, 1, 52, 127
1, 600169, Note_off_c, 1, 64, 0
1, 600169, Note_off_c, 1, 52, 0
1, 600474, Note_on_c, 1, 71, 127
1, 600619, Note_off_c, 1, 71, 0
1, 600622, Note_on_c, 1, 72, 127
1, 600767, Note_off_c, 1, 72, 0
1, 600769, Note_on_c, 1, 71, 127
1, 600914, Note_off_c, 1, 71, 0
1, 600916, Note_on_c, 1, 69, 127
1, 601061, Note_off_c, 1, 69, 0
1, 601064, Note_on_c, 1, 67, 127
1, 601209, Note_off_c, 1, 67, 0
1, 601211, Note_on_c, 1, 66, 127
1, 601356, Note_off_c, 1, 66, 0
1, 601359, Note_on_c, 1, 64, 127
1, 601652, Note_off_c, 1, 64, 0
1, 601654, Note_on_c, 1, 76, 127
1, 601947, Note_off_c, 1, 76, 0
1, 601948, Note_on_c, 1, 75, 127
1, 602241, Note_off_c, 1, 75, 0
1, 602243, Note_on_c, 1, 64, 127
1, 602536, Note_off_c, 1, 64, 0
1, 602538, Note_on_c, 1, 74, 127
1, 602831, Note_off_c, 1, 74, 0
1, 602833, Note_on_c, 1, 73, 127
1, 603126, Note_off_c, 1, 73, 0
1, 603128, Note_on_c, 1, 64, 127
1, 603421, Note_off_c, 1, 64, 0
1, 603423, Note_on_c, 1, 72, 127
1, 603716, Note_off_c, 1, 72, 0
1, 603717, Note_on_c, 1, 71, 127
1, 604010, Note_off_c, 1, 71, 0
1, 604012, Note_on_c, 1, 64, 127
1, 604012, Note_on_c, 1, 70, 127
1, 604157, Note_off_c, 1, 64, 0
1, 604160, Note_on_c, 1, 67, 127
1, 604305, Note_off_c, 1, 70, 0
1, 604305, Note_off_c, 1, 67, 0
1, 604307, Note_on_c, 1, 66, 127
1, 604307, Note_on_c, 1, 71, 127
1, 604452, Note_off_c, 1, 66, 0
1, 604455, Note_on_c, 1, 64, 127
1, 604600, Note_off_c, 1, 71, 0
1, 604600, Note_off_c, 1, 64, 0
1, 604602, Note_on_c, 1, 62, 127
1, 604602, Note_on_c, 1, 73, 127
1, 604747, Note_off_c, 1, 62, 0
1, 604749, Note_on_c, 1, 61, 127
1, 604894, Note_off_c, 1, 61, 0
1, 604895, Note_off_c, 1, 73, 0
1, 604897, Note_on_c, 1, 74, 127
1, 604897, Note_on_c, 1, 59, 127
1, 605042, Note_off_c, 1, 74, 0
1, 605044, Note_on_c, 1, 79, 127
1, 605189, Note_off_c, 1, 79, 0
1, 605190, Note_off_c, 1, 59, 0
1, 605192, Note_on_c, 1, 77, 127
1, 605192, Note_on_c, 1, 71, 127
1, 605337, Note_off_c, 1, 77, 0
1, 605339, Note_on_c, 1, 73, 127
1, 605484, Note_off_c, 1, 73, 0
1, 605485, Note_off_c, 1, 71, 0
1, 605486, Note_on_c, 1, 78, 127
1, 605486, Note_on_c, 1, 70, 127
1, 605631, Note_off_c, 1, 78, 0
1, 605634, Note_on_c, 1, 76, 127
1, 605779, Note_off_c, 1, 70, 0
1, 605779, Note_off_c, 1, 76, 0
1, 605781, Note_on_c, 1, 75, 127
1, 605781, Note_on_c, 1, 59, 127
1, 605926, Note_off_c, 1, 75, 0
1, 605929, Note_on_c, 1, 78, 127
1, 606074, Note_off_c, 1, 59, 0
1, 606074, Note_off_c, 1, 78, 0
1, 606076, Note_on_c, 1, 75, 127
1, 606076, Note_on_c, 1, 69, 127
1, 606221, Note_off_c, 1, 75, 0
1, 606224, Note_on_c, 1, 71, 127
1, 606369, Note_off_c, 1, 69, 0
1, 606369, Note_off_c, 1, 71, 0
1, 606371, Note_on_c, 1, 76, 127
1, 606371, Note_on_c, 1, 68, 127
1, 606516, Note_off_c, 1, 76, 0
1, 606518, Note_on_c, 1, 74, 127
1, 606663, Note_off_c, 1, 74, 0
1, 606664, Note_off_c, 1, 68, 0
1, 606666, Note_on_c, 1, 73, 127
1, 606666, Note_on_c, 1, 59, 127
1, 606811, Note_off_c, 1, 73, 0
1, 606813, Note_on_c, 1, 76, 127
1, 606958, Note_off_c, 1, 76, 0
1, 606959, Note_off_c, 1, 59, 0
1, 606961, Note_on_c, 1, 73, 127
1, 606961, Note_on_c, 1, 67, 127
1, 607106, Note_off_c, 1, 73, 0
1, 607108, Note_on_c, 1, 70, 127
1, 607253, Note_off_c, 1, 70, 0
1, 607254, Note_off_c, 1, 67, 0
1, 607255, Note_on_c, 1, 74, 127
1, 607255, Note_on_c, 1, 66, 127
1, 607400, Note_off_c, 1, 74, 0
1, 607403, Note_on_c, 1, 71, 127
1, 607548, Note_off_c, 1, 66, 0
1, 607548, Note_off_c, 1, 71, 0
1, 607550, Note_on_c, 1, 64, 127
1, 607550, Note_on_c, 1, 72, 127
1, 607695, Note_off_c, 1, 64, 0
1, 607698, Note_on_c, 1, 69, 127
1, 607843, Note_off_c, 1, 72, 0
1, 607843, Note_off_c, 1, 69, 0
1, 607845, Note_on_c, 1, 66, 127
1, 607845, Note_on_c, 1, 81, 127
1, 607990, Note_off_c, 1, 66, 0
1, 607993, Note_on_c, 1, 62, 127
1, 608138, Note_off_c, 1, 81, 0
1, 608138, Note_off_c, 1, 62, 0
1, 608140, Note_on_c, 1, 67, 127
1, 608140, Note_on_c, 1, 71, 127
1, 608285, Note_off_c, 1, 67, 0
1, 608287, Note_on_c, 1, 66, 127
1, 608432, Note_off_c, 1, 66, 0
1, 608435, Note_on_c, 1, 64, 127
1, 608580, Note_off_c, 1, 64, 0
1, 608728, Note_off_c, 1, 71, 0
1, 608730, Note_on_c, 1, 64, 127
1, 608730, Note_on_c, 1, 79, 127
1, 608875, Note_off_c, 1, 64, 0
1, 608877, Note_on_c, 1, 61, 127
1, 609022, Note_off_c, 1, 61, 0
1, 609023, Note_off_c, 1, 79, 0
1, 609025, Note_on_c, 1, 66, 127
1, 609025, Note_on_c, 1, 69, 127
1, 609170, Note_off_c, 1, 66, 0
1, 609172, Note_on_c, 1, 64, 127
1, 609317, Note_off_c, 1, 64, 0
1, 609319, Note_on_c, 1, 63, 127
1, 609464, Note_off_c, 1, 63, 0
1, 609613, Note_off_c, 1, 69, 0
1, 609614, Note_on_c, 1, 63, 127
1, 609614, Note_on_c, 1, 78, 127
1, 609759, Note_off_c, 1, 63, 0
1, 609762, Note_on_c, 1, 59, 127
1, 609907, Note_off_c, 1, 78, 0
1, 609907, Note_off_c, 1, 59, 0
1, 609909, Note_on_c, 1, 64, 127
1, 609909, Note_on_c, 1, 67, 127
1, 610054, Note_off_c, 1, 64, 0
1, 610056, Note_on_c, 1, 62, 127
1, 610201, Note_off_c, 1, 62, 0
1, 610204, Note_on_c, 1, 60, 127
1, 610349, Note_off_c, 1, 67, 0
1, 610351, Note_on_c, 1, 71, 127
1, 610496, Note_off_c, 1, 71, 0
1, 610497, Note_off_c, 1, 60, 0
1, 610499, Note_on_c, 1, 75, 127
1, 610499, Note_on_c, 1, 71, 127
1, 610644, Note_off_c, 1, 75, 0
1, 610646, Note_on_c, 1, 76, 127
1, 610792, Note_off_c, 1, 71, 0
1, 610794, Note_on_c, 1, 69, 127
1, 610939, Note_off_c, 1, 76, 0
1, 610941, Note_on_c, 1, 78, 127
1, 611086, Note_off_c, 1, 78, 0
1, 611087, Note_off_c, 1, 69, 0
1, 611088, Note_on_c, 1, 59, 127
1, 611088, Note_on_c, 1, 75, 127
1, 611088, Note_on_c, 1, 71, 127
1, 611233, Note_off_c, 1, 59, 0
1, 611236, Note_on_c, 1, 60, 127
1, 611381, Note_off_c, 1, 75, 0
1, 611381, Note_off_c, 1, 71, 0
1, 611381, Note_off_c, 1, 60, 0
1, 611383, Note_on_c, 1, 59, 127
1, 611383, Note_on_c, 1, 73, 127
1, 611383, Note_on_c, 1, 76, 127
1, 611528, Note_off_c, 1, 59, 0
1, 611531, Note_on_c, 1, 57, 127
1, 611676, Note_off_c, 1, 73, 0
1, 611676, Note_off_c, 1, 76, 0
1, 611676, Note_off_c, 1, 57, 0
1, 611678, Note_on_c, 1, 55, 127
1, 611678, Note_on_c, 1, 78, 127
1, 611678, Note_on_c, 1, 75, 127
1, 611823, Note_off_c, 1, 55, 0
1, 611826, Note_on_c, 1, 54, 127
1, 611971, Note_off_c, 1, 78, 0
1, 611971, Note_off_c, 1, 75, 0
1, 611971, Note_off_c, 1, 54, 0
1, 611973, Note_on_c, 1, 76, 127
1, 611973, Note_on_c, 1, 79, 127
1, 611973, Note_on_c, 1, 52, 127
1, 612118, Note_off_c, 1, 76, 0
1, 612120, Note_on_c, 1, 72, 127
1, 612264, Note_off_c, 1, 79, 0
1, 612265, Note_off_c, 1, 72, 0
1, 612266, Note_off_c, 1, 52, 0
1, 612268, Note_on_c, 1, 70, 127
1, 612268, Note_on_c, 1, 78, 127
1, 612268, Note_on_c, 1, 64, 127
1, 612413, Note_off_c, 1, 70, 0
1, 612415, Note_on_c, 1, 66, 127
1, 612559, Note_off_c, 1, 78, 0
1, 612560, Note_off_c, 1, 66, 0
1, 612561, Note_off_c, 1, 64, 0
1, 612563, Note_on_c, 1, 71, 127
1, 612563, Note_on_c, 1, 63, 127
1, 612708, Note_off_c, 1, 71, 0
1, 612710, Note_on_c, 1, 69, 127
1, 612855, Note_off_c, 1, 69, 0
1, 612856, Note_off_c, 1, 63, 0
1, 612857, Note_on_c, 1, 68, 127
1, 612857, Note_on_c, 1, 77, 127
1, 612857, Note_on_c, 1, 52, 127
1, 613002, Note_off_c, 1, 68, 0
1, 613005, Note_on_c, 1, 71, 127
1, 613148, Note_off_c, 1, 77, 0
1, 613150, Note_off_c, 1, 52, 0
1, 613150, Note_off_c, 1, 71, 0
1, 613152, Note_on_c, 1, 68, 127
1, 613152, Note_on_c, 1, 76, 127
1, 613152, Note_on_c, 1, 62, 127
1, 613297, Note_off_c, 1, 68, 0
1, 613300, Note_on_c, 1, 64, 127
1, 613443, Note_off_c, 1, 76, 0
1, 613445, Note_off_c, 1, 62, 0
1, 613445, Note_off_c, 1, 64, 0
1, 613447, Note_on_c, 1, 69, 127
1, 613447, Note_on_c, 1, 61, 127
1, 613592, Note_off_c, 1, 69, 0
1, 613595, Note_on_c, 1, 67, 127
1, 613740, Note_off_c, 1, 61, 0
1, 613740, Note_off_c, 1, 67, 0
1, 613742, Note_on_c, 1, 66, 127
1, 613742, Note_on_c, 1, 52, 127
1, 613742, Note_on_c, 1, 75, 127
1, 613887, Note_off_c, 1, 66, 0
1, 613889, Note_on_c, 1, 69, 127
1, 614034, Note_off_c, 1, 69, 0
1, 614035, Note_off_c, 1, 52, 0
1, 614037, Note_on_c, 1, 60, 127
1, 614171, Note_off_c, 1, 75, 0
1, 614184, Note_on_c, 1, 63, 127
1, 614329, Note_off_c, 1, 63, 0
1, 614330, Note_off_c, 1, 60, 0
1, 614332, Note_on_c, 1, 67, 127
1, 614332, Note_on_c, 1, 59, 127
1, 614332, Note_on_c, 1, 76, 127
1, 614477, Note_off_c, 1, 67, 0
1, 614479, Note_on_c, 1, 64, 127
1, 614624, Note_off_c, 1, 64, 0
1, 614625, Note_off_c, 1, 59, 0
1, 614626, Note_on_c, 1, 57, 127
1, 614626, Note_on_c, 1, 66, 127
1, 614771, Note_off_c, 1, 57, 0
1, 614774, Note_on_c, 1, 62, 127
1, 614915, Note_off_c, 1, 76, 0
1, 614919, Note_off_c, 1, 66, 0
1, 614919, Note_off_c, 1, 62, 0
1, 614921, Note_on_c, 1, 59, 127
1, 614921, Note_on_c, 1, 65, 127
1, 614921, Note_on_c, 1, 74, 127
1, 615066, Note_off_c, 1, 59, 0
1, 615069, Note_on_c, 1, 55, 127
1, 615214, Note_off_c, 1, 65, 0
1, 615214, Note_off_c, 1, 55, 0
1, 615216, Note_on_c, 1, 60, 127
1, 615216, Note_on_c, 1, 64, 127
1, 615361, Note_off_c, 1, 60, 0
1, 615504, Note_off_c, 1, 74, 0
1, 615511, Note_on_c, 1, 57, 127
1, 615511, Note_on_c, 1, 72, 127
1, 615656, Note_off_c, 1, 57, 0
1, 615799, Note_off_c, 1, 64, 0
1, 615953, Note_on_c, 1, 54, 127
1, 616098, Note_off_c, 1, 54, 0
1, 616101, Note_on_c, 1, 63, 127
1, 616393, Note_off_c, 1, 72, 0
1, 616396, Note_on_c, 1, 56, 127
1, 616396, Note_on_c, 1, 71, 127
1, 616541, Note_off_c, 1, 56, 0
1, 616684, Note_off_c, 1, 63, 0
1, 616690, Note_on_c, 1, 62, 127
1, 616838, Note_on_c, 1, 52, 127
1, 616979, Note_off_c, 1, 71, 0
1, 616983, Note_off_c, 1, 62, 0
1, 616983, Note_off_c, 1, 52, 0
1, 616985, Note_on_c, 1, 57, 127
1, 616985, Note_on_c, 1, 61, 127
1, 617130, Note_off_c, 1, 57, 0
1, 617133, Note_on_c, 1, 55, 127
1, 617278, Note_off_c, 1, 61, 0
1, 617278, Note_off_c, 1, 55, 0
1, 617280, Note_on_c, 1, 69, 127
1, 617280, Note_on_c, 1, 60, 127
1, 617280, Note_on_c, 1, 54, 127
1, 617425, Note_off_c, 1, 69, 0
1, 617427, Note_on_c, 1, 64, 127
1, 617571, Note_off_c, 1, 60, 0
1, 617572, Note_off_c, 1, 64, 0
1, 617709, Note_off_c, 1, 54, 0
1, 617722, Note_on_c, 1, 72, 127
1, 617870, Note_on_c, 1, 66, 127
1, 617870, Note_on_c, 1, 63, 127
1, 618013, Note_off_c, 1, 72, 0
1, 618017, Note_on_c, 1, 71, 127
1, 618161, Note_off_c, 1, 66, 0
1, 618162, Note_off_c, 1, 71, 0
1, 618163, Note_off_c, 1, 63, 0
1, 618165, Note_on_c, 1, 67, 127
1, 618165, Note_on_c, 1, 64, 127
1, 618310, Note_off_c, 1, 67, 0
1, 618312, Note_on_c, 1, 71, 127
1, 618457, Note_off_c, 1, 71, 0
1, 618458, Note_off_c, 1, 64, 0
1, 618459, Note_on_c, 1, 76, 127
1, 618459, Note_on_c, 1, 52, 127
1, 618604, Note_off_c, 1, 76, 0
1, 618607, Note_on_c, 1, 79, 127
1, 618752, Note_off_c, 1, 52, 0
1, 618752, Note_off_c, 1, 79, 0
1, 618754, Note_on_c, 1, 78, 127
1, 618754, Note_on_c, 1, 50, 127
1, 618899, Note_off_c, 1, 78, 0
1, 618902, Note_on_c, 1, 71, 127
1, 619047, Note_off_c, 1, 50, 0
1, 619047, Note_off_c, 1, 71, 0
1, 619049, Note_on_c, 1, 76, 127
1, 619049, Note_on_c, 1, 48, 127
1, 619194, Note_off_c, 1, 76, 0
1, 619197, Note_on_c, 1, 72, 127
1, 619342, Note_off_c, 1, 48, 0
1, 619342, Note_off_c, 1, 72, 0
1, 619344, Note_on_c, 1, 69, 127
1, 619344, Note_on_c, 1, 60, 127
1, 619489, Note_off_c, 1, 69, 0
1, 619491, Note_on_c, 1, 66, 127
1, 619636, Note_off_c, 1, 66, 0
1, 619637, Note_off_c, 1, 60, 0
1, 619639, Note_on_c, 1, 67, 127
1, 619639, Note_on_c, 1, 59, 127
1, 619784, Note_off_c, 1, 67, 0
1, 619786, Note_on_c, 1, 74, 127
1, 619931, Note_off_c, 1, 74, 0
1, 619932, Note_off_c, 1, 59, 0
1, 619934, Note_on_c, 1, 60, 127
1, 619934, Note_on_c, 1, 57, 127
1, 620079, Note_off_c, 1, 60, 0
1, 620081, Note_on_c, 1, 66, 127
1, 620226, Note_off_c, 1, 66, 0
1, 620227, Note_off_c, 1, 57, 0
1, 620228, Note_on_c, 1, 69, 127
1, 620228, Note_on_c, 1, 45, 127
1, 620373, Note_off_c, 1, 69, 0
1, 620376, Note_on_c, 1, 72, 127
1, 620521, Note_off_c, 1, 45, 0
1, 620521, Note_off_c, 1, 72, 0
1, 620523, Note_on_c, 1, 71, 127
1, 620523, Note_on_c, 1, 43, 127
1, 620668, Note_off_c, 1, 71, 0
1, 620671, Note_on_c, 1, 64, 127
1, 620816, Note_off_c, 1, 43, 0
1, 620816, Note_off_c, 1, 64, 0
1, 620818, Note_on_c, 1, 69, 127
1, 620818, Note_on_c, 1, 42, 127
1, 620963, Note_off_c, 1, 69, 0
1, 620966, Note_on_c, 1, 66, 127
1, 621111, Note_off_c, 1, 42, 0
1, 621111, Note_off_c, 1, 66, 0
1, 621113, Note_on_c, 1, 63, 127
1, 621113, Note_on_c, 1, 54, 127
1, 621258, Note_off_c, 1, 63, 0
1, 621260, Note_on_c, 1, 59, 127
1, 621405, Note_off_c, 1, 59, 0
1, 621406, Note_off_c, 1, 54, 0
1, 621408, Note_on_c, 1, 60, 127
1, 621408, Note_on_c, 1, 52, 127
1, 621553, Note_off_c, 1, 60, 0
1, 621555, Note_on_c, 1, 69, 127
1, 621700, Note_off_c, 1, 69, 0
1, 621701, Note_off_c, 1, 52, 0
1, 621703, Note_on_c, 1, 59, 127
1, 621703, Note_on_c, 1, 51, 127
1, 621848, Note_off_c, 1, 59, 0
1, 621850, Note_on_c, 1, 63, 127
1, 621995, Note_off_c, 1, 63, 0
1, 621997, Note_on_c, 1, 66, 127
1, 622142, Note_off_c, 1, 66, 0
1, 622145, Note_on_c, 1, 69, 127
1, 622290, Note_off_c, 1, 69, 0
1, 622292, Note_on_c, 1, 67, 127
1, 622437, Note_off_c, 1, 67, 0
1, 622440, Note_off_c, 1, 51, 0
1, 622587, Note_on_c, 1, 52, 127
1, 622587, Note_on_c, 1, 67, 127
1, 622732, Note_off_c, 1, 52, 0
1, 622735, Note_on_c, 1, 55, 127
1, 622880, Note_off_c, 1, 55, 0
1, 622882, Note_on_c, 1, 59, 127
1, 623027, Note_off_c, 1, 67, 0
1, 623027, Note_off_c, 1, 59, 0
1, 623029, Note_on_c, 1, 66, 127
1, 623029, Note_on_c, 1, 62, 127
1, 623174, Note_off_c, 1, 66, 0
1, 623174, Note_off_c, 1, 62, 0
1, 623177, Note_on_c, 1, 64, 127
1, 623177, Note_on_c, 1, 61, 127
1, 623322, Note_off_c, 1, 64, 0
1, 623322, Note_off_c, 1, 61, 0
1, 623324, Note_on_c, 1, 62, 127
1, 623324, Note_on_c, 1, 59, 127
1, 623469, Note_off_c, 1, 62, 0
1, 623469, Note_off_c, 1, 59, 0
1, 623472, Note_on_c, 1, 78, 127
1, 623472, Note_on_c, 1, 61, 127
1, 623472, Note_on_c, 1, 58, 127
1, 623617, Note_off_c, 1, 78, 0
1, 623619, Note_on_c, 1, 79, 127
1, 623764, Note_off_c, 1, 79, 0
1, 623765, Note_off_c, 1, 61, 0
1, 623767, Note_on_c, 1, 62, 127
1, 623914, Note_on_c, 1, 76, 127
1, 624059, Note_off_c, 1, 76, 0
1, 624060, Note_off_c, 1, 62, 0
1, 624061, Note_on_c, 1, 74, 127
1, 624061, Note_on_c, 1, 64, 127
1, 624206, Note_off_c, 1, 74, 0
1, 624209, Note_on_c, 1, 73, 127
1, 624354, Note_off_c, 1, 58, 0
1, 624354, Note_off_c, 1, 64, 0
1, 624354, Note_off_c, 1, 73, 0
1, 624356, Note_on_c, 1, 71, 127
1, 624356, Note_on_c, 1, 57, 127
1, 624356, Note_on_c, 1, 63, 127
1, 624504, Note_on_c, 1, 80, 127
1, 624647, Note_off_c, 1, 71, 0
1, 624649, Note_off_c, 1, 57, 0
1, 624649, Note_off_c, 1, 63, 0
1, 624649, Note_off_c, 1, 80, 0
1, 624651, Note_on_c, 1, 77, 127
1, 624651, Note_on_c, 1, 83, 127
1, 624651, Note_on_c, 1, 56, 127
1, 624796, Note_off_c, 1, 77, 0
1, 624798, Note_on_c, 1, 73, 127
1, 624942, Note_off_c, 1, 83, 0
1, 624943, Note_off_c, 1, 73, 0
1, 624944, Note_off_c, 1, 56, 0
1, 624946, Note_on_c, 1, 78, 127
1, 624946, Note_on_c, 1, 82, 127
1, 624946, Note_on_c, 1, 54, 127
1, 625091, Note_off_c, 1, 78, 0
1, 625093, Note_on_c, 1, 76, 127
1, 625237, Note_off_c, 1, 82, 0
1, 625238, Note_off_c, 1, 76, 0
1, 625241, Note_on_c, 1, 71, 127
1, 625388, Note_on_c, 1, 75, 127
1, 625532, Note_off_c, 1, 71, 0
1, 625533, Note_off_c, 1, 75, 0
1, 625534, Note_off_c, 1, 54, 0
1, 625536, Note_on_c, 1, 75, 127
1, 625536, Note_on_c, 1, 81, 127
1, 625536, Note_on_c, 1, 47, 127
1, 625681, Note_off_c, 1, 75, 0
1, 625683, Note_on_c, 1, 71, 127
1, 625827, Note_off_c, 1, 81, 0
1, 625828, Note_off_c, 1, 71, 0
1, 625829, Note_off_c, 1, 47, 0
1, 625830, Note_on_c, 1, 76, 127
1, 625830, Note_on_c, 1, 49, 127
1, 625830, Note_on_c, 1, 80, 127
1, 625975, Note_off_c, 1, 76, 0
1, 625975, Note_off_c, 1, 49, 0
1, 625978, Note_on_c, 1, 74, 127
1, 625978, Note_on_c, 1, 50, 127
1, 626121, Note_off_c, 1, 80, 0
1, 626123, Note_off_c, 1, 74, 0
1, 626123, Note_off_c, 1, 50, 0
1, 626125, Note_on_c, 1, 73, 127
1, 626125, Note_on_c, 1, 71, 127
1, 626125, Note_on_c, 1, 52, 127
1, 626270, Note_off_c, 1, 73, 0
1, 626273, Note_on_c, 1, 76, 127
1, 626416, Note_off_c, 1, 71, 0
1, 626418, Note_off_c, 1, 52, 0
1, 626418, Note_off_c, 1, 76, 0
1, 626420, Note_on_c, 1, 73, 127
1, 626420, Note_on_c, 1, 79, 127
1, 626420, Note_on_c, 1, 54, 127
1, 626565, Note_off_c, 1, 73, 0
1, 626568, Note_on_c, 1, 70, 127
1, 626711, Note_off_c, 1, 79, 0
1, 626713, Note_off_c, 1, 54, 0
1, 626713, Note_off_c, 1, 70, 0
1, 626715, Note_on_c, 1, 74, 127
1, 626715, Note_on_c, 1, 78, 127
1, 626715, Note_on_c, 1, 56, 127
1, 626860, Note_off_c, 1, 74, 0
1, 626862, Note_on_c, 1, 71, 127
1, 627006, Note_off_c, 1, 78, 0
1, 627007, Note_off_c, 1, 71, 0
1, 627008, Note_off_c, 1, 56, 0
1, 627010, Note_on_c, 1, 58, 127
1, 627010, Note_on_c, 1, 67, 127
1, 627010, Note_on_c, 1, 76, 127
1, 627155, Note_off_c, 1, 58, 0
1, 627157, Note_on_c, 1, 61, 127
1, 627302, Note_off_c, 1, 61, 0
1, 627303, Note_off_c, 1, 67, 0
1, 627305, Note_on_c, 1, 66, 127
1, 627452, Note_on_c, 1, 54, 127
1, 627593, Note_off_c, 1, 76, 0
1, 627597, Note_off_c, 1, 54, 0
1, 627599, Note_on_c, 1, 59, 127
1, 627599, Note_on_c, 1, 75, 127
1, 627744, Note_off_c, 1, 59, 0
1, 627747, Note_on_c, 1, 57, 127
1, 627888, Note_off_c, 1, 66, 0
1, 627892, Note_off_c, 1, 75, 0
1, 627892, Note_off_c, 1, 57, 0
1, 627894, Note_on_c, 1, 56, 127
1, 627894, Note_on_c, 1, 65, 127
1, 627894, Note_on_c, 1, 74, 127
1, 628039, Note_off_c, 1, 56, 0
1, 628042, Note_on_c, 1, 59, 127
1, 628187, Note_off_c, 1, 65, 0
1, 628187, Note_off_c, 1, 59, 0
1, 628189, Note_on_c, 1, 64, 127
1, 628337, Note_on_c, 1, 52, 127
1, 628477, Note_off_c, 1, 74, 0
1, 628482, Note_off_c, 1, 52, 0
1, 628484, Note_on_c, 1, 57, 127
1, 628484, Note_on_c, 1, 73, 127
1, 628629, Note_off_c, 1, 57, 0
1, 628631, Note_on_c, 1, 55, 127
1, 628772, Note_off_c, 1, 64, 0
1, 628776, Note_off_c, 1, 55, 0
1, 628777, Note_off_c, 1, 73, 0
1, 628779, Note_on_c, 1, 54, 127
1, 628779, Note_on_c, 1, 63, 127
1, 628779, Note_on_c, 1, 72, 127
1, 628924, Note_off_c, 1, 54, 0
1, 628926, Note_on_c, 1, 57, 127
1, 629071, Note_off_c, 1, 57, 0
1, 629072, Note_off_c, 1, 63, 0
1, 629074, Note_on_c, 1, 62, 127
1, 629221, Note_on_c, 1, 50, 127
1, 629362, Note_off_c, 1, 72, 0
1, 629366, Note_off_c, 1, 50, 0
1, 629368, Note_on_c, 1, 55, 127
1, 629368, Note_on_c, 1, 71, 127
1, 629513, Note_off_c, 1, 55, 0
1, 629657, Note_off_c, 1, 62, 0
1, 629663, Note_on_c, 1, 52, 127
1, 629663, Note_on_c, 1, 61, 127
1, 629808, Note_off_c, 1, 52, 0
1, 629951, Note_off_c, 1, 71, 0
1, 629956, Note_off_c, 1, 61, 0
1, 629958, Note_on_c, 1, 52, 127
1, 629958, Note_on_c, 1, 66, 127
1, 629958, Note_on_c, 1, 70, 127
1, 630103, Note_off_c, 1, 52, 0
1, 630106, Note_on_c, 1, 49, 127
1, 630251, Note_off_c, 1, 66, 0
1, 630251, Note_off_c, 1, 70, 0
1, 630251, Note_off_c, 1, 49, 0
1, 630253, Note_on_c, 1, 54, 127
1, 630253, Note_on_c, 1, 73, 127
1, 630253, Note_on_c, 1, 70, 127
1, 630398, Note_off_c, 1, 54, 0
1, 630400, Note_on_c, 1, 52, 127
1, 630545, Note_off_c, 1, 52, 0
1, 630546, Note_off_c, 1, 73, 0
1, 630546, Note_off_c, 1, 70, 0
1, 630548, Note_on_c, 1, 74, 127
1, 630548, Note_on_c, 1, 50, 127
1, 630548, Note_on_c, 1, 71, 127
1, 630693, Note_off_c, 1, 74, 0
1, 630695, Note_on_c, 1, 78, 127
1, 630840, Note_off_c, 1, 78, 0
1, 630841, Note_off_c, 1, 50, 0
1, 630843, Note_on_c, 1, 47, 127
1, 630977, Note_off_c, 1, 71, 0
1, 631138, Note_on_c, 1, 75, 127
1, 631138, Note_on_c, 1, 69, 127
1, 631138, Note_on_c, 1, 59, 127
1, 631283, Note_off_c, 1, 75, 0
1, 631429, Note_off_c, 1, 69, 0
1, 631432, Note_on_c, 1, 76, 127
1, 631432, Note_on_c, 1, 67, 127
1, 631577, Note_off_c, 1, 76, 0
1, 631580, Note_on_c, 1, 79, 127
1, 631725, Note_off_c, 1, 47, 0
1, 631725, Note_off_c, 1, 79, 0
1, 631861, Note_off_c, 1, 67, 0
1, 632020, Note_off_c, 1, 59, 0
1, 632169, Note_on_c, 1, 80, 127
1, 632314, Note_off_c, 1, 80, 0
1, 632317, Note_on_c, 1, 73, 127
1, 632464, Note_on_c, 1, 81, 127
1, 632609, Note_off_c, 1, 81, 0
1, 632746, Note_off_c, 1, 73, 0
1, 633054, Note_on_c, 1, 82, 127
1, 633199, Note_off_c, 1, 82, 0
1, 633201, Note_on_c, 1, 83, 127
1, 633349, Note_on_c, 1, 60, 127
1, 633494, Note_off_c, 1, 83, 0
1, 633494, Note_off_c, 1, 60, 0
1, 633644, Note_on_c, 1, 57, 127
1, 633789, Note_off_c, 1, 57, 0
1, 633791, Note_on_c, 1, 55, 127
1, 633791, Note_on_c, 1, 75, 127
1, 633791, Note_on_c, 1, 81, 127
1, 633936, Note_off_c, 1, 55, 0
1, 633939, Note_on_c, 1, 54, 127
1, 634084, Note_off_c, 1, 75, 0
1, 634084, Note_off_c, 1, 81, 0
1, 634084, Note_off_c, 1, 54, 0
1, 634086, Note_on_c, 1, 52, 127
1, 634086, Note_on_c, 1, 79, 127
1, 634233, Note_on_c, 1, 76, 127
1, 634378, Note_off_c, 1, 76, 0
1, 634379, Note_off_c, 1, 52, 0
1, 634381, Note_on_c, 1, 73, 127
1, 634381, Note_on_c, 1, 64, 127
1, 634515, Note_off_c, 1, 79, 0
1, 634526, Note_off_c, 1, 73, 0
1, 634528, Note_on_c, 1, 70, 127
1, 634673, Note_off_c, 1, 70, 0
1, 634674, Note_off_c, 1, 64, 0
1, 634676, Note_on_c, 1, 78, 127
1, 634676, Note_on_c, 1, 63, 127
1, 634823, Note_on_c, 1, 69, 127
1, 634891, Note_off_c, 1, 78, 0
1, 634968, Note_off_c, 1, 69, 0
1, 634969, Note_off_c, 1, 63, 0
1, 634970, Note_on_c, 1, 52, 127
1, 634970, Note_on_c, 1, 77, 127
1, 635118, Note_on_c, 1, 74, 127
1, 635263, Note_off_c, 1, 52, 0
1, 635263, Note_off_c, 1, 74, 0
1, 635265, Note_on_c, 1, 71, 127
1, 635265, Note_on_c, 1, 62, 127
1, 635399, Note_off_c, 1, 77, 0
1, 635410, Note_off_c, 1, 71, 0
1, 635413, Note_on_c, 1, 68, 127
1, 635558, Note_off_c, 1, 62, 0
1, 635558, Note_off_c, 1, 68, 0
1, 635560, Note_on_c, 1, 76, 127
1, 635560, Note_on_c, 1, 61, 127
1, 635708, Note_on_c, 1, 67, 127
1, 635775, Note_off_c, 1, 76, 0
1, 635853, Note_off_c, 1, 61, 0
1, 635853, Note_off_c, 1, 67, 0
1, 635855, Note_on_c, 1, 52, 127
1, 635855, Note_on_c, 1, 75, 127
1, 636002, Note_on_c, 1, 72, 127
1, 636147, Note_off_c, 1, 72, 0
1, 636148, Note_off_c, 1, 52, 0
1, 636150, Note_on_c, 1, 69, 127
1, 636150, Note_on_c, 1, 60, 127
1, 636284, Note_off_c, 1, 75, 0
1, 636295, Note_off_c, 1, 69, 0
1, 636297, Note_on_c, 1, 66, 127
1, 636442, Note_off_c, 1, 66, 0
1, 636443, Note_off_c, 1, 60, 0
1, 636445, Note_on_c, 1, 74, 127
1, 636445, Note_on_c, 1, 59, 127
1, 636592, Note_on_c, 1, 65, 127
1, 636660, Note_off_c, 1, 74, 0
1, 636737, Note_off_c, 1, 65, 0
1, 636738, Note_off_c, 1, 59, 0
1, 636739, Note_on_c, 1, 73, 127
1, 636739, Note_on_c, 1, 64, 127
1, 636739, Note_on_c, 1, 58, 127
1, 637179, Note_off_c, 1, 73, 0
1, 637179, Note_off_c, 1, 64, 0
1, 637179, Note_off_c, 1, 58, 0
1, 637182, Note_on_c, 1, 74, 127
1, 637182, Note_on_c, 1, 66, 127
1, 637182, Note_on_c, 1, 54, 127
1, 637327, Note_off_c, 1, 74, 0
1, 637327, Note_off_c, 1, 66, 0
1, 637327, Note_off_c, 1, 54, 0
1, 637329, Note_on_c, 1, 59, 127
1, 637329, Note_on_c, 1, 71, 127
1, 637329, Note_on_c, 1, 62, 127
1, 637622, Note_off_c, 1, 59, 0
1, 637624, Note_on_c, 1, 52, 127
1, 637769, Note_off_c, 1, 71, 0
1, 637769, Note_off_c, 1, 62, 0
1, 637771, Note_on_c, 1, 64, 127
1, 637771, Note_on_c, 1, 73, 127
1, 637916, Note_off_c, 1, 64, 0
1, 637916, Note_off_c, 1, 73, 0
1, 637917, Note_off_c, 1, 52, 0
1, 637919, Note_on_c, 1, 71, 127
1, 637919, Note_on_c, 1, 54, 127
1, 637919, Note_on_c, 1, 61, 127
1, 637991, Note_off_c, 1, 71, 0
1, 637993, Note_on_c, 1, 70, 127
1, 638065, Note_off_c, 1, 70, 0
1, 638215, Note_off_c, 1, 54, 0
1, 638217, Note_on_c, 1, 42, 127
1, 638353, Note_off_c, 1, 61, 0
1, 638511, Note_off_c, 1, 42, 0
1, 638513, Note_on_c, 1, 71, 127
1, 638513, Note_on_c, 1, 59, 127
1, 638513, Note_on_c, 1, 47, 127
1, 638658, Note_off_c, 1, 71, 0
1, 638661, Note_on_c, 1, 66, 127
1, 638806, Note_off_c, 1, 59, 0
1, 638806, Note_off_c, 1, 66, 0
1, 638808, Note_on_c, 1, 63, 127
1, 638808, Note_on_c, 1, 57, 127
1, 638808, Note_on_c, 1, 54, 127
1, 638953, Note_off_c, 1, 63, 0
1, 639096, Note_off_c, 1, 47, 0
1, 639103, Note_on_c, 1, 69, 127
1, 639237, Note_off_c, 1, 57, 0
1, 639237, Note_off_c, 1, 54, 0
1, 639248, Note_off_c, 1, 69, 0
1, 639250, Note_on_c, 1, 66, 127
1, 639395, Note_off_c, 1, 66, 0
1, 639398, Note_on_c, 1, 67, 127
1, 639398, Note_on_c, 1, 55, 127
1, 639398, Note_on_c, 1, 52, 127
1, 639398, Note_on_c, 1, 47, 127
1, 639543, Note_off_c, 1, 67, 0
1, 639545, Note_on_c, 1, 64, 127
1, 639690, Note_off_c, 1, 64, 0
1, 639691, Note_off_c, 1, 55, 0
1, 639691, Note_off_c, 1, 52, 0
1, 639691, Note_off_c, 1, 47, 0
1, 639693, Note_on_c, 1, 67, 127
1, 639693, Note_on_c, 1, 47, 127
1, 639693, Note_on_c, 1, 54, 127
1, 639693, Note_on_c, 1, 45, 127
1, 639838, Note_off_c, 1, 67, 0
1, 639840, Note_on_c, 1, 71, 127
1, 639985, Note_off_c, 1, 71, 0
1, 639988, Note_on_c, 1, 76, 127
1, 640122, Note_off_c, 1, 47, 0
1, 640122, Note_off_c, 1, 54, 0
1, 640133, Note_off_c, 1, 76, 0
1, 640135, Note_on_c, 1, 75, 127
1, 640245, Note_off_c, 1, 45, 0
1, 640280, Note_off_c, 1, 75, 0
1, 640282, Note_on_c, 1, 76, 127
1, 640282, Note_on_c, 1, 52, 127
1, 640282, Note_on_c, 1, 43, 127
1, 640282, Note_on_c, 1, 47, 127
1, 640427, Note_off_c, 1, 76, 0
1, 640427, Note_off_c, 1, 52, 0
1, 640430, Note_on_c, 1, 71, 127
1, 640430, Note_on_c, 1, 51, 127
1, 640573, Note_off_c, 1, 43, 0
1, 640573, Note_off_c, 1, 47, 0
1, 640575, Note_off_c, 1, 71, 0
1, 640575, Note_off_c, 1, 51, 0
1, 640577, Note_on_c, 1, 76, 127
1, 640577, Note_on_c, 1, 52, 127
1, 640577, Note_on_c, 1, 40, 127
1, 640577, Note_on_c, 1, 49, 127
1, 640722, Note_off_c, 1, 76, 0
1, 640725, Note_on_c, 1, 79, 127
1, 640870, Note_off_c, 1, 79, 0
1, 640872, Note_on_c, 1, 83, 127
1, 641006, Note_off_c, 1, 52, 0
1, 641006, Note_off_c, 1, 40, 0
1, 641017, Note_off_c, 1, 83, 0
1, 641020, Note_on_c, 1, 82, 127
1, 641129, Note_off_c, 1, 49, 0
1, 641165, Note_off_c, 1, 82, 0
1, 641167, Note_on_c, 1, 83, 127
1, 641314, Note_on_c, 1, 47, 127
1, 641459, Note_off_c, 1, 47, 0
1, 641462, Note_on_c, 1, 51, 127
1, 641607, Note_off_c, 1, 51, 0
1, 641609, Note_on_c, 1, 54, 127
1, 641754, Note_off_c, 1, 54, 0
1, 641757, Note_on_c, 1, 59, 127
1, 641902, Note_off_c, 1, 59, 0
1, 641904, Note_on_c, 1, 58, 127
1, 642049, Note_off_c, 1, 58, 0
1, 642932, Note_off_c, 1, 83, 0
1, 642936, Note_on_c, 1, 54, 127
1, 643081, Note_off_c, 1, 54, 0
1, 643083, Note_on_c, 1, 51, 127
1, 643228, Note_off_c, 1, 51, 0
1, 643231, Note_on_c, 1, 52, 127
1, 643376, Note_off_c, 1, 52, 0
1, 643378, Note_on_c, 1, 54, 127
1, 643523, Note_off_c, 1, 54, 0
1, 643526, Note_on_c, 1, 55, 127
1, 643671, Note_off_c, 1, 55, 0
1, 643673, Note_on_c, 1, 57, 127
1, 643818, Note_off_c, 1, 57, 0
1, 643821, Note_on_c, 1, 59, 127
1, 644114, Note_off_c, 1, 59, 0
1, 644115, Note_on_c, 1, 47, 127
1, 644408, Note_off_c, 1, 47, 0
1, 644410, Note_on_c, 1, 48, 127
1, 644703, Note_off_c, 1, 48, 0
1, 644705, Note_on_c, 1, 59, 127
1, 644998, Note_off_c, 1, 59, 0
1, 645000, Note_on_c, 1, 49, 127
1, 645293, Note_off_c, 1, 49, 0
1, 645295, Note_on_c, 1, 50, 127
1, 645588, Note_off_c, 1, 50, 0
1, 645590, Note_on_c, 1, 59, 127
1, 645883, Note_off_c, 1, 59, 0
1, 645884, Note_on_c, 1, 51, 127
1, 646177, Note_off_c, 1, 51, 0
1, 646179, Note_on_c, 1, 52, 127
1, 646324, Note_off_c, 1, 52, 0
1, 646327, Note_on_c, 1, 54, 127
1, 646472, Note_off_c, 1, 54, 0
1, 646474, Note_on_c, 1, 59, 127
1, 646474, Note_on_c, 1, 55, 127
1, 646619, Note_off_c, 1, 59, 0
1, 646621, Note_on_c, 1, 58, 127
1, 646766, Note_off_c, 1, 58, 0
1, 646767, Note_off_c, 1, 55, 0
1, 646769, Note_on_c, 1, 59, 127
1, 646769, Note_on_c, 1, 54, 127
1, 646914, Note_off_c, 1, 59, 0
1, 646916, Note_on_c, 1, 61, 127
1, 647061, Note_off_c, 1, 61, 0
1, 647062, Note_off_c, 1, 54, 0
1, 647064, Note_on_c, 1, 62, 127
1, 647064, Note_on_c, 1, 52, 127
1, 647209, Note_off_c, 1, 62, 0
1, 647211, Note_on_c, 1, 64, 127
1, 647356, Note_off_c, 1, 64, 0
1, 647357, Note_off_c, 1, 52, 0
1, 647359, Note_on_c, 1, 50, 127
1, 647359, Note_on_c, 1, 66, 127
1, 647504, Note_off_c, 1, 50, 0
1, 647506, Note_on_c, 1, 52, 127
1, 647651, Note_off_c, 1, 52, 0
1, 647652, Note_off_c, 1, 66, 0
1, 647653, Note_on_c, 1, 50, 127
1, 647653, Note_on_c, 1, 54, 127
1, 647798, Note_off_c, 1, 50, 0
1, 647801, Note_on_c, 1, 49, 127
1, 647946, Note_off_c, 1, 54, 0
1, 647946, Note_off_c, 1, 49, 0
1, 647948, Note_on_c, 1, 47, 127
1, 647948, Note_on_c, 1, 55, 127
1, 648093, Note_off_c, 1, 47, 0
1, 648096, Note_on_c, 1, 49, 127
1, 648241, Note_off_c, 1, 55, 0
1, 648241, Note_off_c, 1, 49, 0
1, 648243, Note_on_c, 1, 50, 127
1, 648243, Note_on_c, 1, 66, 127
1, 648388, Note_off_c, 1, 50, 0
1, 648391, Note_on_c, 1, 54, 127
1, 648536, Note_off_c, 1, 66, 0
1, 648536, Note_off_c, 1, 54, 0
1, 648538, Note_on_c, 1, 52, 127
1, 648538, Note_on_c, 1, 56, 127
1, 648683, Note_off_c, 1, 52, 0
1, 648685, Note_on_c, 1, 50, 127
1, 648830, Note_off_c, 1, 50, 0
1, 648831, Note_off_c, 1, 56, 0
1, 648833, Note_on_c, 1, 49, 127
1, 648833, Note_on_c, 1, 57, 127
1, 648978, Note_off_c, 1, 49, 0
1, 648980, Note_on_c, 1, 50, 127
1, 649125, Note_off_c, 1, 50, 0
1, 649126, Note_off_c, 1, 57, 0
1, 649128, Note_on_c, 1, 52, 127
1, 649128, Note_on_c, 1, 66, 127
1, 649273, Note_off_c, 1, 52, 0
1, 649275, Note_on_c, 1, 55, 127
1, 649420, Note_off_c, 1, 55, 0
1, 649421, Note_off_c, 1, 66, 0
1, 649422, Note_on_c, 1, 54, 127
1, 649422, Note_on_c, 1, 58, 127
1, 649567, Note_off_c, 1, 54, 0
1, 649570, Note_on_c, 1, 52, 127
1, 649715, Note_off_c, 1, 58, 0
1, 649715, Note_off_c, 1, 52, 0
1, 649717, Note_on_c, 1, 50, 127
1, 649717, Note_on_c, 1, 59, 127
1, 649862, Note_off_c, 1, 50, 0
1, 649865, Note_on_c, 1, 54, 127
1, 650010, Note_off_c, 1, 59, 0
1, 650010, Note_off_c, 1, 54, 0
1, 650012, Note_on_c, 1, 60, 127
1, 650012, Note_on_c, 1, 52, 127
1, 650157, Note_off_c, 1, 60, 0
1, 650160, Note_on_c, 1, 62, 127
1, 650305, Note_off_c, 1, 52, 0
1, 650305, Note_off_c, 1, 62, 0
1, 650307, Note_on_c, 1, 60, 127
1, 650307, Note_on_c, 1, 43, 127
1, 650452, Note_off_c, 1, 60, 0
1, 650454, Note_on_c, 1, 59, 127
1, 650599, Note_off_c, 1, 59, 0
1, 650600, Note_off_c, 1, 43, 0
1, 650602, Note_on_c, 1, 57, 127
1, 650602, Note_on_c, 1, 54, 127
1, 650747, Note_off_c, 1, 57, 0
1, 650749, Note_on_c, 1, 59, 127
1, 650894, Note_off_c, 1, 59, 0
1, 650897, Note_on_c, 1, 60, 127
1, 651031, Note_off_c, 1, 54, 0
1, 651042, Note_off_c, 1, 60, 0
1, 651044, Note_on_c, 1, 64, 127
1, 651189, Note_off_c, 1, 64, 0
1, 651192, Note_on_c, 1, 62, 127
1, 651192, Note_on_c, 1, 45, 127
1, 651337, Note_off_c, 1, 62, 0
1, 651339, Note_on_c, 1, 60, 127
1, 651484, Note_off_c, 1, 60, 0
1, 651485, Note_off_c, 1, 45, 0
1, 651486, Note_on_c, 1, 59, 127
1, 651486, Note_on_c, 1, 55, 127
1, 651631, Note_off_c, 1, 59, 0
1, 651634, Note_on_c, 1, 61, 127
1, 651779, Note_off_c, 1, 61, 0
1, 651781, Note_on_c, 1, 62, 127
1, 651915, Note_off_c, 1, 55, 0
1, 651926, Note_off_c, 1, 62, 0
1, 651929, Note_on_c, 1, 66, 127
1, 652074, Note_off_c, 1, 66, 0
1, 652076, Note_on_c, 1, 64, 127
1, 652076, Note_on_c, 1, 47, 127
1, 652221, Note_off_c, 1, 64, 0
1, 652223, Note_on_c, 1, 62, 127
1, 652368, Note_off_c, 1, 62, 0
1, 652369, Note_off_c, 1, 47, 0
1, 652371, Note_on_c, 1, 61, 127
1, 652371, Note_on_c, 1, 57, 127
1, 652516, Note_off_c, 1, 61, 0
1, 652518, Note_on_c, 1, 63, 127
1, 652663, Note_off_c, 1, 63, 0
1, 652666, Note_on_c, 1, 64, 127
1, 652811, Note_off_c, 1, 64, 0
1, 652892, Note_off_c, 1, 57, 0
1, 652961, Note_on_c, 1, 64, 127
1, 652961, Note_on_c, 1, 49, 127
1, 653106, Note_off_c, 1, 64, 0
1, 653108, Note_on_c, 1, 67, 127
1, 653253, Note_off_c, 1, 67, 0
1, 653254, Note_off_c, 1, 49, 0
1, 653255, Note_on_c, 1, 51, 127
1, 653255, Note_on_c, 1, 66, 127
1, 653403, Note_on_c, 1, 57, 127
1, 653546, Note_off_c, 1, 51, 0
1, 653548, Note_off_c, 1, 66, 0
1, 653548, Note_off_c, 1, 57, 0
1, 653550, Note_on_c, 1, 64, 127
1, 653550, Note_on_c, 1, 55, 127
1, 653550, Note_on_c, 1, 52, 127
1, 653695, Note_off_c, 1, 64, 0
1, 653695, Note_off_c, 1, 55, 0
1, 653698, Note_on_c, 1, 63, 127
1, 653698, Note_on_c, 1, 60, 127
1, 653841, Note_off_c, 1, 52, 0
1, 653843, Note_off_c, 1, 63, 0
1, 653843, Note_off_c, 1, 60, 0
1, 653845, Note_on_c, 1, 64, 127
1, 653845, Note_on_c, 1, 59, 127
1, 653990, Note_off_c, 1, 64, 0
1, 653990, Note_off_c, 1, 59, 0
1, 653992, Note_on_c, 1, 66, 127
1, 653992, Note_on_c, 1, 57, 127
1, 654137, Note_off_c, 1, 66, 0
1, 654137, Note_off_c, 1, 57, 0
1, 654140, Note_on_c, 1, 67, 127
1, 654140, Note_on_c, 1, 55, 127
1, 654285, Note_off_c, 1, 67, 0
1, 654285, Note_off_c, 1, 55, 0
1, 654287, Note_on_c, 1, 69, 127
1, 654287, Note_on_c, 1, 54, 127
1, 654432, Note_off_c, 1, 69, 0
1, 654432, Note_off_c, 1, 54, 0
1, 654435, Note_on_c, 1, 52, 127
1, 654435, Note_on_c, 1, 43, 127
1, 654435, Note_on_c, 1, 71, 127
1, 654580, Note_off_c, 1, 52, 0
1, 654580, Note_off_c, 1, 43, 0
1, 654582, Note_on_c, 1, 57, 127
1, 654727, Note_off_c, 1, 57, 0
1, 654728, Note_off_c, 1, 71, 0
1, 654730, Note_on_c, 1, 55, 127
1, 654730, Note_on_c, 1, 59, 127
1, 654875, Note_off_c, 1, 55, 0
1, 654877, Note_on_c, 1, 54, 127
1, 655022, Note_off_c, 1, 54, 0
1, 655023, Note_off_c, 1, 59, 0
1, 655024, Note_on_c, 1, 52, 127
1, 655024, Note_on_c, 1, 45, 127
1, 655024, Note_on_c, 1, 60, 127
1, 655169, Note_off_c, 1, 52, 0
1, 655172, Note_on_c, 1, 54, 127
1, 655315, Note_off_c, 1, 45, 0
1, 655317, Note_off_c, 1, 60, 0
1, 655317, Note_off_c, 1, 54, 0
1, 655319, Note_on_c, 1, 55, 127
1, 655319, Note_on_c, 1, 71, 127
1, 655464, Note_off_c, 1, 55, 0
1, 655467, Note_on_c, 1, 59, 127
1, 655612, Note_off_c, 1, 71, 0
1, 655612, Note_off_c, 1, 59, 0
1, 655614, Note_on_c, 1, 57, 127
1, 655614, Note_on_c, 1, 61, 127
1, 655759, Note_off_c, 1, 57, 0
1, 655762, Note_on_c, 1, 55, 127
1, 655907, Note_off_c, 1, 61, 0
1, 655907, Note_off_c, 1, 55, 0
1, 655909, Note_on_c, 1, 54, 127
1, 655909, Note_on_c, 1, 47, 127
1, 655909, Note_on_c, 1, 62, 127
1, 656054, Note_off_c, 1, 54, 0
1, 656056, Note_on_c, 1, 55, 127
1, 656200, Note_off_c, 1, 47, 0
1, 656201, Note_off_c, 1, 55, 0
1, 656202, Note_off_c, 1, 62, 0
1, 656204, Note_on_c, 1, 57, 127
1, 656204, Note_on_c, 1, 71, 127
1, 656349, Note_off_c, 1, 57, 0
1, 656351, Note_on_c, 1, 60, 127
1, 656496, Note_off_c, 1, 60, 0
1, 656497, Note_off_c, 1, 71, 0
1, 656499, Note_on_c, 1, 59, 127
1, 656499, Note_on_c, 1, 63, 127
1, 656644, Note_off_c, 1, 59, 0
1, 656646, Note_on_c, 1, 57, 127
1, 656791, Note_off_c, 1, 57, 0
1, 656792, Note_off_c, 1, 63, 0
1, 656793, Note_on_c, 1, 55, 127
1, 656793, Note_on_c, 1, 48, 127
1, 656793, Note_on_c, 1, 64, 127
1, 656938, Note_off_c, 1, 55, 0
1, 656941, Note_on_c, 1, 57, 127
1, 657084, Note_off_c, 1, 48, 0
1, 657086, Note_off_c, 1, 57, 0
1, 657088, Note_on_c, 1, 45, 127
1, 657088, Note_on_c, 1, 54, 127
1, 657233, Note_off_c, 1, 64, 0
1, 657236, Note_on_c, 1, 67, 127
1, 657381, Note_off_c, 1, 45, 0
1, 657381, Note_off_c, 1, 67, 0
1, 657383, Note_on_c, 1, 66, 127
1, 657383, Note_on_c, 1, 42, 127
1, 657528, Note_off_c, 1, 66, 0
1, 657676, Note_off_c, 1, 42, 0
1, 657678, Note_on_c, 1, 63, 127
1, 657678, Note_on_c, 1, 47, 127
1, 657823, Note_off_c, 1, 63, 0
1, 657970, Note_off_c, 1, 54, 0
1, 658120, Note_on_c, 1, 69, 127
1, 658261, Note_off_c, 1, 47, 0
1, 658265, Note_off_c, 1, 69, 0
1, 658268, Note_on_c, 1, 43, 127
1, 658561, Note_off_c, 1, 43, 0
1, 659005, Note_on_c, 1, 71, 127
1, 659150, Note_off_c, 1, 71, 0
1, 659447, Note_on_c, 1, 50, 127
1, 659742, Note_on_c, 1, 59, 127
1, 659889, Note_on_c, 1, 72, 127
1, 660030, Note_off_c, 1, 50, 0
1, 660034, Note_off_c, 1, 72, 0
1, 660035, Note_off_c, 1, 59, 0
1, 660037, Note_on_c, 1, 71, 127
1, 660037, Note_on_c, 1, 60, 127
1, 660037, Note_on_c, 1, 52, 127
1, 660182, Note_off_c, 1, 71, 0
1, 660184, Note_on_c, 1, 69, 127
1, 660329, Note_off_c, 1, 69, 0
1, 660330, Note_off_c, 1, 60, 0
1, 660330, Note_off_c, 1, 52, 0
1, 660332, Note_on_c, 1, 67, 127
1, 660332, Note_on_c, 1, 54, 127
1, 660332, Note_on_c, 1, 62, 127
1, 660477, Note_off_c, 1, 67, 0
1, 660479, Note_on_c, 1, 69, 127
1, 660624, Note_off_c, 1, 69, 0
1, 660625, Note_off_c, 1, 54, 0
1, 660626, Note_on_c, 1, 55, 127
1, 660626, Note_on_c, 1, 71, 127
1, 660761, Note_off_c, 1, 62, 0
1, 660771, Note_off_c, 1, 55, 0
1, 660774, Note_on_c, 1, 59, 127
1, 660919, Note_off_c, 1, 71, 0
1, 660919, Note_off_c, 1, 59, 0
1, 660921, Note_on_c, 1, 62, 127
1, 660921, Note_on_c, 1, 83, 127
1, 661066, Note_off_c, 1, 62, 0
1, 661069, Note_on_c, 1, 67, 127
1, 661214, Note_off_c, 1, 83, 0
1, 661214, Note_off_c, 1, 67, 0
1, 661216, Note_on_c, 1, 66, 127
1, 661216, Note_on_c, 1, 81, 127
1, 661361, Note_off_c, 1, 66, 0
1, 661363, Note_on_c, 1, 59, 127
1, 661508, Note_off_c, 1, 59, 0
1, 661509, Note_off_c, 1, 81, 0
1, 661511, Note_on_c, 1, 64, 127
1, 661511, Note_on_c, 1, 79, 127
1, 661656, Note_off_c, 1, 64, 0
1, 661658, Note_on_c, 1, 60, 127
1, 661803, Note_off_c, 1, 60, 0
1, 661804, Note_off_c, 1, 79, 0
1, 661806, Note_on_c, 1, 57, 127
1, 661806, Note_on_c, 1, 72, 127
1, 661951, Note_off_c, 1, 57, 0
1, 661953, Note_on_c, 1, 54, 127
1, 662098, Note_off_c, 1, 54, 0
1, 662099, Note_off_c, 1, 72, 0
1, 662101, Note_on_c, 1, 55, 127
1, 662101, Note_on_c, 1, 71, 127
1, 662246, Note_off_c, 1, 55, 0
1, 662248, Note_on_c, 1, 59, 127
1, 662393, Note_off_c, 1, 59, 0
1, 662394, Note_off_c, 1, 71, 0
1, 662395, Note_on_c, 1, 48, 127
1, 662395, Note_on_c, 1, 69, 127
1, 662540, Note_off_c, 1, 48, 0
1, 662543, Note_on_c, 1, 52, 127
1, 662688, Note_off_c, 1, 69, 0
1, 662688, Note_off_c, 1, 52, 0
1, 662690, Note_on_c, 1, 57, 127
1, 662690, Note_on_c, 1, 76, 127
1, 662835, Note_off_c, 1, 57, 0
1, 662838, Note_on_c, 1, 60, 127
1, 662983, Note_off_c, 1, 76, 0
1, 662983, Note_off_c, 1, 60, 0
1, 662985, Note_on_c, 1, 59, 127
1, 662985, Note_on_c, 1, 74, 127
1, 663130, Note_off_c, 1, 59, 0
1, 663133, Note_on_c, 1, 52, 127
1, 663278, Note_off_c, 1, 74, 0
1, 663278, Note_off_c, 1, 52, 0
1, 663280, Note_on_c, 1, 57, 127
1, 663280, Note_on_c, 1, 72, 127
1, 663425, Note_off_c, 1, 57, 0
1, 663427, Note_on_c, 1, 52, 127
1, 663572, Note_off_c, 1, 52, 0
1, 663573, Note_off_c, 1, 72, 0
1, 663575, Note_on_c, 1, 48, 127
1, 663575, Note_on_c, 1, 64, 127
1, 663720, Note_off_c, 1, 48, 0
1, 663722, Note_on_c, 1, 45, 127
1, 663867, Note_off_c, 1, 45, 0
1, 663868, Note_off_c, 1, 64, 0
1, 663870, Note_on_c, 1, 47, 127
1, 663870, Note_on_c, 1, 62, 127
1, 664015, Note_off_c, 1, 47, 0
1, 664017, Note_on_c, 1, 50, 127
1, 664162, Note_off_c, 1, 50, 0
1, 664164, Note_on_c, 1, 42, 127
1, 664310, Note_off_c, 1, 62, 0
1, 664312, Note_on_c, 1, 66, 127
1, 664457, Note_off_c, 1, 66, 0
1, 664459, Note_on_c, 1, 69, 127
1, 664604, Note_off_c, 1, 69, 0
1, 664607, Note_on_c, 1, 72, 127
1, 664752, Note_off_c, 1, 72, 0
1, 664754, Note_on_c, 1, 71, 127
1, 664899, Note_off_c, 1, 71, 0
1, 665046, Note_off_c, 1, 42, 0
1, 665049, Note_on_c, 1, 55, 127
1, 665049, Note_on_c, 1, 43, 127
1, 665049, Note_on_c, 1, 71, 127
1, 665194, Note_off_c, 1, 55, 0
1, 665196, Note_on_c, 1, 59, 127
1, 665341, Note_off_c, 1, 59, 0
1, 665344, Note_on_c, 1, 62, 127
1, 665489, Note_off_c, 1, 62, 0
1, 665491, Note_on_c, 1, 65, 127
1, 665636, Note_off_c, 1, 65, 0
1, 665639, Note_on_c, 1, 64, 127
1, 665784, Note_off_c, 1, 64, 0
1, 665931, Note_off_c, 1, 43, 0
1, 665934, Note_on_c, 1, 48, 127
1, 666079, Note_off_c, 1, 48, 0
1, 666081, Note_on_c, 1, 52, 127
1, 666226, Note_off_c, 1, 71, 0
1, 666226, Note_off_c, 1, 52, 0
1, 666376, Note_on_c, 1, 74, 127
1, 666376, Note_on_c, 1, 59, 127
1, 666521, Note_off_c, 1, 74, 0
1, 666521, Note_off_c, 1, 59, 0
1, 666523, Note_on_c, 1, 72, 127
1, 666523, Note_on_c, 1, 57, 127
1, 666668, Note_off_c, 1, 72, 0
1, 666668, Note_off_c, 1, 57, 0
1, 666671, Note_on_c, 1, 71, 127
1, 666671, Note_on_c, 1, 55, 127
1, 666816, Note_off_c, 1, 71, 0
1, 666816, Note_off_c, 1, 55, 0
1, 666818, Note_on_c, 1, 54, 127
1, 666818, Note_on_c, 1, 69, 127
1, 666965, Note_on_c, 1, 57, 127
1, 667110, Note_off_c, 1, 57, 0
1, 667113, Note_on_c, 1, 60, 127
1, 667258, Note_off_c, 1, 60, 0
1, 667260, Note_on_c, 1, 64, 127
1, 667405, Note_off_c, 1, 64, 0
1, 667408, Note_on_c, 1, 62, 127
1, 667553, Note_off_c, 1, 62, 0
1, 667700, Note_off_c, 1, 54, 0
1, 667703, Note_on_c, 1, 55, 127
1, 667703, Note_on_c, 1, 59, 127
1, 667848, Note_off_c, 1, 69, 0
1, 667997, Note_on_c, 1, 66, 127
1, 668142, Note_off_c, 1, 66, 0
1, 668292, Note_on_c, 1, 67, 127
1, 668437, Note_off_c, 1, 67, 0
1, 668585, Note_off_c, 1, 55, 0
1, 668587, Note_on_c, 1, 52, 127
1, 668734, Note_on_c, 1, 71, 127
1, 668879, Note_off_c, 1, 71, 0
1, 668880, Note_off_c, 1, 59, 0
1, 668882, Note_on_c, 1, 73, 127
1, 669027, Note_off_c, 1, 73, 0
1, 669029, Note_on_c, 1, 76, 127
1, 669174, Note_off_c, 1, 76, 0
1, 669177, Note_on_c, 1, 74, 127
1, 669322, Note_off_c, 1, 74, 0
1, 669469, Note_off_c, 1, 52, 0
1, 669472, Note_on_c, 1, 50, 127
1, 669617, Note_off_c, 1, 50, 0
1, 669619, Note_on_c, 1, 49, 127
1, 669764, Note_off_c, 1, 49, 0
1, 669766, Note_on_c, 1, 50, 127
1, 669766, Note_on_c, 1, 69, 127
1, 669766, Note_on_c, 1, 66, 127
1, 669911, Note_off_c, 1, 50, 0
1, 669914, Note_on_c, 1, 52, 127
1, 670059, Note_off_c, 1, 69, 0
1, 670059, Note_off_c, 1, 52, 0
1, 670061, Note_on_c, 1, 54, 127
1, 670061, Note_on_c, 1, 74, 127
1, 670206, Note_off_c, 1, 54, 0
1, 670209, Note_on_c, 1, 55, 127
1, 670349, Note_off_c, 1, 66, 0
1, 670354, Note_off_c, 1, 55, 0
1, 670356, Note_on_c, 1, 57, 127
1, 670356, Note_on_c, 1, 64, 127
1, 670501, Note_off_c, 1, 57, 0
1, 670504, Note_on_c, 1, 59, 127
1, 670644, Note_off_c, 1, 74, 0
1, 670649, Note_off_c, 1, 59, 0
1, 670651, Note_on_c, 1, 72, 127
1, 670796, Note_off_c, 1, 72, 0
1, 670798, Note_on_c, 1, 71, 127
1, 670939, Note_off_c, 1, 64, 0
1, 670943, Note_off_c, 1, 71, 0
1, 670946, Note_on_c, 1, 54, 127
1, 670946, Note_on_c, 1, 72, 127
1, 670946, Note_on_c, 1, 69, 127
1, 671091, Note_off_c, 1, 54, 0
1, 671093, Note_on_c, 1, 52, 127
1, 671238, Note_off_c, 1, 52, 0
1, 671239, Note_off_c, 1, 72, 0
1, 671241, Note_on_c, 1, 51, 127
1, 671241, Note_on_c, 1, 71, 127
1, 671386, Note_off_c, 1, 51, 0
1, 671388, Note_on_c, 1, 47, 127
1, 671529, Note_off_c, 1, 69, 0
1, 671533, Note_off_c, 1, 47, 0
1, 671535, Note_on_c, 1, 67, 127
1, 671535, Note_on_c, 1, 49, 127
1, 671680, Note_off_c, 1, 67, 0
1, 671680, Note_off_c, 1, 49, 0
1, 671683, Note_on_c, 1, 66, 127
1, 671828, Note_off_c, 1, 66, 0
1, 671830, Note_on_c, 1, 64, 127
1, 671975, Note_off_c, 1, 64, 0
1, 671978, Note_on_c, 1, 63, 127
1, 672123, Note_off_c, 1, 63, 0
1, 672125, Note_on_c, 1, 55, 127
1, 672270, Note_off_c, 1, 55, 0
1, 672273, Note_on_c, 1, 57, 127
1, 672418, Note_off_c, 1, 71, 0
1, 672418, Note_off_c, 1, 57, 0
1, 672420, Note_on_c, 1, 76, 127
1, 672565, Note_off_c, 1, 76, 0
1, 672567, Note_on_c, 1, 74, 127
1, 672712, Note_off_c, 1, 74, 0
1, 672862, Note_on_c, 1, 50, 127
1, 673007, Note_off_c, 1, 50, 0
1, 673010, Note_on_c, 1, 48, 127
1, 673155, Note_off_c, 1, 48, 0
1, 673599, Note_on_c, 1, 45, 127
1, 673744, Note_off_c, 1, 45, 0
1, 673747, Note_on_c, 1, 43, 127
1, 673892, Note_off_c, 1, 43, 0
1, 673894, Note_on_c, 1, 42, 127
1, 674039, Note_off_c, 1, 42, 0
1, 674042, Note_on_c, 1, 39, 127
1, 674187, Note_off_c, 1, 39, 0
1, 674189, Note_on_c, 1, 40, 127
1, 674334, Note_off_c, 1, 40, 0
1, 674484, Note_on_c, 1, 43, 127
1, 674484, Note_on_c, 1, 67, 127
1, 674484, Note_on_c, 1, 76, 127
1, 674629, Note_off_c, 1, 43, 0
1, 674631, Note_on_c, 1, 45, 127
1, 674776, Note_off_c, 1, 45, 0
1, 674777, Note_off_c, 1, 67, 0
1, 674777, Note_off_c, 1, 76, 0
1, 674779, Note_on_c, 1, 75, 127
1, 674779, Note_on_c, 1, 47, 127
1, 674779, Note_on_c, 1, 66, 127
1, 674924, Note_off_c, 1, 75, 0
1, 674924, Note_off_c, 1, 47, 0
1, 674926, Note_on_c, 1, 73, 127
1, 674926, Note_on_c, 1, 42, 127
1, 675070, Note_off_c, 1, 66, 0
1, 675071, Note_off_c, 1, 73, 0
1, 675071, Note_off_c, 1, 42, 0
1, 675074, Note_on_c, 1, 71, 127
1, 675074, Note_on_c, 1, 44, 127
1, 675219, Note_off_c, 1, 71, 0
1, 675219, Note_off_c, 1, 44, 0
1, 675221, Note_on_c, 1, 73, 127
1, 675221, Note_on_c, 1, 46, 127
1, 675366, Note_off_c, 1, 73, 0
1, 675366, Note_off_c, 1, 46, 0
1, 675368, Note_on_c, 1, 75, 127
1, 675368, Note_on_c, 1, 47, 127
1, 675513, Note_off_c, 1, 75, 0
1, 675513, Note_off_c, 1, 47, 0
1, 675516, Note_on_c, 1, 76, 127
1, 675516, Note_on_c, 1, 49, 127
1, 675661, Note_off_c, 1, 76, 0
1, 675661, Note_off_c, 1, 49, 0
1, 675663, Note_on_c, 1, 51, 127
1, 675663, Note_on_c, 1, 78, 127
1, 675808, Note_off_c, 1, 51, 0
1, 675811, Note_on_c, 1, 52, 127
1, 675956, Note_off_c, 1, 78, 0
1, 675956, Note_off_c, 1, 52, 0
1, 675958, Note_on_c, 1, 51, 127
1, 675958, Note_on_c, 1, 66, 127
1, 676103, Note_off_c, 1, 51, 0
1, 676105, Note_on_c, 1, 49, 127
1, 676250, Note_off_c, 1, 49, 0
1, 676251, Note_off_c, 1, 66, 0
1, 676253, Note_on_c, 1, 47, 127
1, 676253, Note_on_c, 1, 67, 127
1, 676398, Note_off_c, 1, 47, 0
1, 676400, Note_on_c, 1, 49, 127
1, 676545, Note_off_c, 1, 49, 0
1, 676546, Note_off_c, 1, 67, 0
1, 676548, Note_on_c, 1, 50, 127
1, 676548, Note_on_c, 1, 78, 127
1, 676693, Note_off_c, 1, 50, 0
1, 676695, Note_on_c, 1, 54, 127
1, 676840, Note_off_c, 1, 54, 0
1, 676841, Note_off_c, 1, 78, 0
1, 676843, Note_on_c, 1, 52, 127
1, 676843, Note_on_c, 1, 68, 127
1, 676988, Note_off_c, 1, 52, 0
1, 676990, Note_on_c, 1, 50, 127
1, 677135, Note_off_c, 1, 50, 0
1, 677136, Note_off_c, 1, 68, 0
1, 677137, Note_on_c, 1, 49, 127
1, 677137, Note_on_c, 1, 69, 127
1, 677282, Note_off_c, 1, 49, 0
1, 677285, Note_on_c, 1, 51, 127
1, 677430, Note_off_c, 1, 69, 0
1, 677430, Note_off_c, 1, 51, 0
1, 677432, Note_on_c, 1, 52, 127
1, 677432, Note_on_c, 1, 78, 127
1, 677577, Note_off_c, 1, 52, 0
1, 677580, Note_on_c, 1, 55, 127
1, 677725, Note_off_c, 1, 78, 0
1, 677725, Note_off_c, 1, 55, 0
1, 677727, Note_on_c, 1, 54, 127
1, 677727, Note_on_c, 1, 70, 127
1, 677872, Note_off_c, 1, 54, 0
1, 677875, Note_on_c, 1, 52, 127
1, 678020, Note_off_c, 1, 70, 0
1, 678020, Note_off_c, 1, 52, 0
1, 678022, Note_on_c, 1, 51, 127
1, 678022, Note_on_c, 1, 71, 127
1, 678167, Note_off_c, 1, 51, 0
1, 678169, Note_on_c, 1, 54, 127
1, 678314, Note_off_c, 1, 54, 0
1, 678315, Note_off_c, 1, 71, 0
1, 678317, Note_on_c, 1, 52, 127
1, 678317, Note_on_c, 1, 72, 127
1, 678464, Note_off_c, 1, 52, 0
1, 678466, Note_on_c, 1, 55, 127
1, 678613, Note_off_c, 1, 72, 0
1, 678613, Note_off_c, 1, 55, 0
1, 678615, Note_on_c, 1, 54, 127
1, 678615, Note_on_c, 1, 79, 127
1, 678762, Note_off_c, 1, 54, 0
1, 678764, Note_on_c, 1, 52, 127
1, 678911, Note_off_c, 1, 79, 0
1, 678911, Note_off_c, 1, 52, 0
1, 678913, Note_on_c, 1, 50, 127
1, 678913, Note_on_c, 1, 77, 127
1, 679060, Note_off_c, 1, 50, 0
1, 679062, Note_on_c, 1, 55, 127
1, 679209, Note_off_c, 1, 77, 0
1, 679209, Note_off_c, 1, 55, 0
1, 679211, Note_on_c, 1, 48, 127
1, 679211, Note_on_c, 1, 76, 127
1, 679360, Note_off_c, 1, 48, 0
1, 679362, Note_on_c, 1, 52, 127
1, 679511, Note_off_c, 1, 52, 0
1, 679512, Note_on_c, 1, 50, 127
1, 679512, Note_on_c, 1, 69, 127
1, 679661, Note_off_c, 1, 50, 0
1, 679811, Note_off_c, 1, 69, 0
1, 679814, Note_on_c, 1, 47, 127
1, 679814, Note_on_c, 1, 67, 127
1, 679963, Note_off_c, 1, 47, 0
1, 680113, Note_off_c, 1, 67, 0
1, 680115, Note_on_c, 1, 45, 127
1, 680115, Note_on_c, 1, 66, 127
1, 680267, Note_off_c, 1, 45, 0
1, 680269, Note_on_c, 1, 57, 127
1, 680421, Note_off_c, 1, 76, 0
1, 680421, Note_off_c, 1, 57, 0
1, 680423, Note_on_c, 1, 55, 127
1, 680575, Note_off_c, 1, 55, 0
1, 680577, Note_on_c, 1, 54, 127
1, 680724, Note_off_c, 1, 66, 0
1, 680729, Note_off_c, 1, 54, 0
1, 680731, Note_on_c, 1, 59, 127
1, 680731, Note_on_c, 1, 69, 127
1, 680731, Note_on_c, 1, 75, 127
1, 680883, Note_off_c, 1, 59, 0
1, 680884, Note_on_c, 1, 47, 127
1, 681036, Note_off_c, 1, 47, 0
1, 681037, Note_off_c, 1, 69, 0
1, 681037, Note_off_c, 1, 75, 0
1, 681038, Note_on_c, 1, 52, 127
1, 681038, Note_on_c, 1, 68, 127
1, 681038, Note_on_c, 1, 76, 127
1, 681191, Note_off_c, 1, 52, 0
1, 681194, Note_on_c, 1, 47, 127
1, 681347, Note_off_c, 1, 68, 0
1, 681347, Note_off_c, 1, 76, 0
1, 681347, Note_off_c, 1, 47, 0
1, 681349, Note_on_c, 1, 44, 127
1, 681349, Note_on_c, 1, 74, 127
1, 681349, Note_on_c, 1, 64, 127
1, 681349, Note_on_c, 1, 71, 127
1, 681502, Note_off_c, 1, 44, 0
1, 681505, Note_on_c, 1, 40, 127
1, 681658, Note_off_c, 1, 40, 0
1, 681660, Note_on_c, 1, 50, 127
1, 681813, Note_off_c, 1, 50, 0
1, 681816, Note_on_c, 1, 47, 127
1, 681964, Note_off_c, 1, 74, 0
1, 681964, Note_off_c, 1, 64, 0
1, 681969, Note_off_c, 1, 47, 0
1, 681972, Note_on_c, 1, 48, 127
1, 682127, Note_off_c, 1, 48, 0
1, 682129, Note_on_c, 1, 45, 127
1, 682259, Note_off_c, 1, 71, 0
1, 682284, Note_off_c, 1, 45, 0
1, 682286, Note_on_c, 1, 48, 127
1, 682286, Note_on_c, 1, 72, 127
1, 682286, Note_on_c, 1, 69, 127
1, 682286, Note_on_c, 1, 64, 127
1, 682441, Note_off_c, 1, 48, 0
1, 682443, Note_on_c, 1, 52, 127
1, 682598, Note_off_c, 1, 72, 0
1, 682598, Note_off_c, 1, 69, 0
1, 682598, Note_off_c, 1, 64, 0
1, 682598, Note_off_c, 1, 52, 0
1, 682600, Note_on_c, 1, 57, 127
1, 682600, Note_on_c, 1, 71, 127
1, 682600, Note_on_c, 1, 62, 127
1, 682600, Note_on_c, 1, 64, 127
1, 682755, Note_off_c, 1, 57, 0
1, 682757, Note_on_c, 1, 56, 127
1, 682912, Note_off_c, 1, 56, 0
1, 683060, Note_off_c, 1, 71, 0
1, 683060, Note_off_c, 1, 62, 0
1, 683073, Note_on_c, 1, 52, 127
1, 683192, Note_off_c, 1, 64, 0
1, 683231, Note_off_c, 1, 52, 0
1, 683233, Note_on_c, 1, 69, 127
1, 683233, Note_on_c, 1, 66, 127
1, 683233, Note_on_c, 1, 57, 127
1, 683233, Note_on_c, 1, 63, 127
1, 683391, Note_off_c, 1, 69, 0
1, 683391, Note_off_c, 1, 66, 0
1, 683391, Note_off_c, 1, 57, 0
1, 683394, Note_on_c, 1, 68, 127
1, 683394, Note_on_c, 1, 60, 127
1, 683550, Note_off_c, 1, 63, 0
1, 683552, Note_off_c, 1, 68, 0
1, 683552, Note_off_c, 1, 60, 0
1, 683554, Note_on_c, 1, 64, 127
1, 683554, Note_on_c, 1, 69, 127
1, 683554, Note_on_c, 1, 66, 127
1, 683712, Note_off_c, 1, 64, 0
1, 683715, Note_on_c, 1, 63, 127
1, 683873, Note_off_c, 1, 63, 0
1, 683957, Note_off_c, 1, 69, 0
1, 683957, Note_off_c, 1, 66, 0
1, 684207, Note_on_c, 1, 68, 127
1, 684372, Note_off_c, 1, 68, 0
1, 684374, Note_on_c, 1, 71, 127
1, 684539, Note_off_c, 1, 71, 0
1, 684541, Note_on_c, 1, 76, 127
1, 684706, Note_off_c, 1, 76, 0
1, 684708, Note_on_c, 1, 75, 127
1, 684873, Note_off_c, 1, 75, 0
1, 685791, Note_on_c, 1, 40, 127
1, 688297, Note_off_c, 1, 40, 0
1, 688297, End_track
0, 0, End_of_file