0, 0, Header, 1, 1, 480
1, 0, Start_track
1, 0, Title_t, "Test"
1, 0, Tempo, 500000
1, 0, Instrument_name_t, "Church Organ"
1, 65, Note_on_c, 1, 53, 127
1, 65, Note_on_c, 1, 77, 127
1, 188, Note_on_c, 1, 72, 127
1, 309, Note_off_c, 1, 72, 0
1, 310, Note_off_c, 1, 53, 0
1, 313, Note_on_c, 1, 69, 127
1, 313, Note_on_c, 1, 57, 127
1, 427, Note_off_c, 1, 77, 0
1, 434, Note_off_c, 1, 69, 0
1, 437, Note_on_c, 1, 67, 127
1, 529, Note_off_c, 1, 57, 0
1, 558, Note_off_c, 1, 67, 0
1, 562, Note_on_c, 1, 69, 127
1, 562, Note_on_c, 1, 60, 127
1, 683, Note_off_c, 1, 69, 0
1, 686, Note_on_c, 1, 72, 127
1, 778, Note_off_c, 1, 60, 0
1, 807, Note_off_c, 1, 72, 0
1, 810, Note_on_c, 1, 65, 127
1, 810, Note_on_c, 1, 57, 127
1, 931, Note_off_c, 1, 65, 0
1, 935, Note_on_c, 1, 69, 127
1, 1026, Note_off_c, 1, 57, 0
1, 1056, Note_off_c, 1, 69, 0
1, 1059, Note_on_c, 1, 72, 127
1, 1059, Note_on_c, 1, 53, 127
1, 1180, Note_off_c, 1, 72, 0
1, 1184, Note_on_c, 1, 75, 127
1, 1275, Note_off_c, 1, 53, 0
1, 1305, Note_off_c, 1, 75, 0
1, 1308, Note_on_c, 1, 74, 127
1, 1308, Note_on_c, 1, 57, 127
1, 1429, Note_off_c, 1, 74, 0
1, 1433, Note_on_c, 1, 72, 127
1, 1524, Note_off_c, 1, 57, 0
1, 1554, Note_off_c, 1, 72, 0
1, 1557, Note_on_c, 1, 74, 127
1, 1557, Note_on_c, 1, 58, 127
1, 1680, Note_on_c, 1, 70, 127
1, 1801, Note_off_c, 1, 70, 0
1, 1802, Note_off_c, 1, 74, 0
1, 1802, Note_off_c, 1, 58, 0
1, 1805, Note_on_c, 1, 65, 127
1, 1805, Note_on_c, 1, 62, 127
1, 1926, Note_off_c, 1, 65, 0
1, 1929, Note_on_c, 1, 64, 127
1, 2021, Note_off_c, 1, 62, 0
1, 2050, Note_off_c, 1, 64, 0
1, 2054, Note_on_c, 1, 65, 127
1, 2054, Note_on_c, 1, 58, 127
1, 2175, Note_off_c, 1, 65, 0
1, 2178, Note_on_c, 1, 70, 127
1, 2270, Note_off_c, 1, 58, 0
1, 2299, Note_off_c, 1, 70, 0
1, 2303, Note_on_c, 1, 62, 127
1, 2303, Note_on_c, 1, 41, 127
1, 2424, Note_off_c, 1, 62, 0
1, 2427, Note_on_c, 1, 65, 127
1, 2548, Note_off_c, 1, 65, 0
1, 2552, Note_on_c, 1, 69, 127
1, 2673, Note_off_c, 1, 69, 0
1, 2676, Note_on_c, 1, 72, 127
1, 2794, Note_off_c, 1, 41, 0
1, 2797, Note_off_c, 1, 72, 0
1, 2800, Note_on_c, 1, 70, 127
1, 2921, Note_off_c, 1, 70, 0
1, 2925, Note_on_c, 1, 69, 127
1, 3046, Note_off_c, 1, 69, 0
1, 3049, Note_on_c, 1, 53, 127
1, 3049, Note_on_c, 1, 70, 127
1, 3174, Note_on_c, 1, 67, 127
1, 3294, Note_off_c, 1, 53, 0
1, 3295, Note_off_c, 1, 67, 0
1, 3297, Note_on_c, 1, 64, 127
1, 3297, Note_on_c, 1, 55, 127
1, 3411, Note_off_c, 1, 70, 0
1, 3418, Note_off_c, 1, 64, 0
1, 3422, Note_on_c, 1, 62, 127
1, 3513, Note_off_c, 1, 55, 0
1, 3543, Note_off_c, 1, 62, 0
1, 3546, Note_on_c, 1, 64, 127
1, 3546, Note_on_c, 1, 58, 127
1, 3667, Note_off_c, 1, 64, 0
1, 3670, Note_on_c, 1, 67, 127
1, 3762, Note_off_c, 1, 58, 0
1, 3791, Note_off_c, 1, 67, 0
1, 3795, Note_on_c, 1, 60, 127
1, 3795, Note_on_c, 1, 55, 127
1, 3916, Note_off_c, 1, 60, 0
1, 3919, Note_on_c, 1, 64, 127
1, 4011, Note_off_c, 1, 55, 0
1, 4040, Note_off_c, 1, 64, 0
1, 4044, Note_on_c, 1, 67, 127
1, 4044, Note_on_c, 1, 52, 127
1, 4165, Note_off_c, 1, 67, 0
1, 4168, Note_on_c, 1, 70, 127
1, 4260, Note_off_c, 1, 52, 0
1, 4289, Note_off_c, 1, 70, 0
1, 4293, Note_on_c, 1, 69, 127
1, 4293, Note_on_c, 1, 48, 127
1, 4414, Note_off_c, 1, 69, 0
1, 4417, Note_on_c, 1, 67, 127
1, 4509, Note_off_c, 1, 48, 0
1, 4538, Note_off_c, 1, 67, 0
1, 4542, Note_on_c, 1, 69, 127
1, 4542, Note_on_c, 1, 53, 127
1, 4666, Note_on_c, 1, 67, 127
1, 4787, Note_off_c, 1, 69, 0
1, 4787, Note_off_c, 1, 53, 0
1, 4787, Note_off_c, 1, 67, 0
1, 4789, Note_on_c, 1, 65, 127
1, 4789, Note_on_c, 1, 57, 127
1, 4910, Note_off_c, 1, 65, 0
1, 4914, Note_on_c, 1, 64, 127
1, 5005, Note_off_c, 1, 57, 0
1, 5035, Note_off_c, 1, 64, 0
1, 5038, Note_on_c, 1, 65, 127
1, 5038, Note_on_c, 1, 53, 127
1, 5159, Note_off_c, 1, 65, 0
1, 5163, Note_on_c, 1, 69, 127
1, 5254, Note_off_c, 1, 53, 0
1, 5284, Note_off_c, 1, 69, 0
1, 5287, Note_on_c, 1, 60, 127
1, 5287, Note_on_c, 1, 41, 127
1, 5408, Note_off_c, 1, 60, 0
1, 5412, Note_on_c, 1, 64, 127
1, 5533, Note_off_c, 1, 64, 0
1, 5536, Note_on_c, 1, 65, 127
1, 5657, Note_off_c, 1, 65, 0
1, 5661, Note_on_c, 1, 69, 127
1, 5782, Note_off_c, 1, 69, 0
1, 5785, Note_on_c, 1, 67, 127
1, 5906, Note_off_c, 1, 67, 0
1, 5908, Note_off_c, 1, 41, 0
1, 5909, Note_on_c, 1, 65, 127
1, 6012, Note_off_c, 1, 65, 0
1, 6034, Note_on_c, 1, 69, 127
1, 6034, Note_on_c, 1, 53, 127
1, 6116, Note_on_c, 1, 71, 127
1, 6122, Note_off_c, 1, 69, 0
1, 6155, Note_off_c, 1, 53, 0
1, 6158, Note_on_c, 1, 50, 127
1, 6199, Note_on_c, 1, 72, 127
1, 6204, Note_off_c, 1, 71, 0
1, 6279, Note_off_c, 1, 50, 0
1, 6283, Note_on_c, 1, 47, 127
1, 6287, Note_off_c, 1, 72, 0
1, 6404, Note_off_c, 1, 47, 0
1, 6406, Note_on_c, 1, 45, 127
1, 6527, Note_off_c, 1, 45, 0
1, 6779, Note_on_c, 1, 43, 127
1, 6900, Note_off_c, 1, 43, 0
1, 7277, Note_on_c, 1, 52, 127
1, 7398, Note_off_c, 1, 52, 0
1, 7651, Note_on_c, 1, 67, 127
1, 7772, Note_off_c, 1, 67, 0
1, 7775, Note_on_c, 1, 64, 127
1, 7896, Note_off_c, 1, 64, 0
1, 7898, Note_on_c, 1, 62, 127
1, 8019, Note_off_c, 1, 62, 0
1, 8272, Note_on_c, 1, 60, 127
1, 8393, Note_off_c, 1, 60, 0
1, 8645, Note_on_c, 1, 70, 127
1, 8766, Note_off_c, 1, 70, 0
1, 9034, Note_on_c, 1, 74, 127
1, 9034, Note_on_c, 1, 55, 127
1, 9117, Note_on_c, 1, 73, 127
1, 9122, Note_off_c, 1, 74, 0
1, 9155, Note_off_c, 1, 55, 0
1, 9159, Note_on_c, 1, 52, 127
1, 9200, Note_on_c, 1, 71, 127
1, 9205, Note_off_c, 1, 73, 0
1, 9280, Note_off_c, 1, 52, 0
1, 9283, Note_on_c, 1, 49, 127
1, 9288, Note_off_c, 1, 71, 0
1, 9404, Note_off_c, 1, 49, 0
1, 9408, Note_on_c, 1, 47, 127
1, 9529, Note_off_c, 1, 47, 0
1, 9780, Note_on_c, 1, 45, 127
1, 9901, Note_off_c, 1, 45, 0
1, 10278, Note_on_c, 1, 53, 127
1, 10399, Note_off_c, 1, 53, 0
1, 10651, Note_on_c, 1, 69, 127
1, 10772, Note_off_c, 1, 69, 0
1, 10775, Note_on_c, 1, 65, 127
1, 10896, Note_off_c, 1, 65, 0
1, 10900, Note_on_c, 1, 64, 127
1, 11021, Note_off_c, 1, 64, 0
1, 11272, Note_on_c, 1, 62, 127
1, 11393, Note_off_c, 1, 62, 0
1, 11646, Note_on_c, 1, 72, 127
1, 11767, Note_off_c, 1, 72, 0
1, 11770, Note_on_c, 1, 70, 127
1, 11891, Note_off_c, 1, 70, 0
1, 12035, Note_on_c, 1, 70, 127
1, 12035, Note_on_c, 1, 55, 127
1, 12156, Note_off_c, 1, 70, 0
1, 12159, Note_on_c, 1, 67, 127
1, 12280, Note_off_c, 1, 55, 0
1, 12280, Note_off_c, 1, 67, 0
1, 12284, Note_on_c, 1, 64, 127
1, 12284, Note_on_c, 1, 58, 127
1, 12405, Note_off_c, 1, 64, 0
1, 12408, Note_on_c, 1, 62, 127
1, 12500, Note_off_c, 1, 58, 0
1, 12529, Note_off_c, 1, 62, 0
1, 12533, Note_on_c, 1, 64, 127
1, 12533, Note_on_c, 1, 55, 127
1, 12654, Note_off_c, 1, 64, 0
1, 12656, Note_on_c, 1, 67, 127
1, 12749, Note_off_c, 1, 55, 0
1, 12777, Note_off_c, 1, 67, 0
1, 12780, Note_on_c, 1, 60, 127
1, 12780, Note_on_c, 1, 52, 127
1, 12901, Note_off_c, 1, 60, 0
1, 12905, Note_on_c, 1, 64, 127
1, 12996, Note_off_c, 1, 52, 0
1, 13026, Note_off_c, 1, 64, 0
1, 13029, Note_on_c, 1, 67, 127
1, 13029, Note_on_c, 1, 48, 127
1, 13150, Note_off_c, 1, 67, 0
1, 13154, Note_on_c, 1, 70, 127
1, 13245, Note_off_c, 1, 48, 0
1, 13275, Note_off_c, 1, 70, 0
1, 13278, Note_on_c, 1, 69, 127
1, 13278, Note_on_c, 1, 52, 127
1, 13399, Note_off_c, 1, 69, 0
1, 13403, Note_on_c, 1, 67, 127
1, 13494, Note_off_c, 1, 52, 0
1, 13524, Note_off_c, 1, 67, 0
1, 13527, Note_on_c, 1, 69, 127
1, 13527, Note_on_c, 1, 53, 127
1, 13648, Note_off_c, 1, 69, 0
1, 13652, Note_on_c, 1, 65, 127
1, 13772, Note_off_c, 1, 53, 0
1, 13773, Note_off_c, 1, 65, 0
1, 13776, Note_on_c, 1, 62, 127
1, 13776, Note_on_c, 1, 57, 127
1, 13897, Note_off_c, 1, 62, 0
1, 13900, Note_on_c, 1, 61, 127
1, 13992, Note_off_c, 1, 57, 0
1, 14021, Note_off_c, 1, 61, 0
1, 14025, Note_on_c, 1, 62, 127
1, 14025, Note_on_c, 1, 53, 127
1, 14146, Note_off_c, 1, 62, 0
1, 14148, Note_on_c, 1, 65, 127
1, 14241, Note_off_c, 1, 53, 0
1, 14269, Note_off_c, 1, 65, 0
1, 14273, Note_on_c, 1, 58, 127
1, 14273, Note_on_c, 1, 50, 127
1, 14394, Note_off_c, 1, 58, 0
1, 14397, Note_on_c, 1, 62, 127
1, 14489, Note_off_c, 1, 50, 0
1, 14518, Note_off_c, 1, 62, 0
1, 14522, Note_on_c, 1, 65, 127
1, 14522, Note_on_c, 1, 46, 127
1, 14643, Note_off_c, 1, 65, 0
1, 14646, Note_on_c, 1, 69, 127
1, 14738, Note_off_c, 1, 46, 0
1, 14767, Note_off_c, 1, 69, 0
1, 14771, Note_on_c, 1, 67, 127
1, 14771, Note_on_c, 1, 50, 127
1, 14892, Note_off_c, 1, 67, 0
1, 14895, Note_on_c, 1, 65, 127
1, 14987, Note_off_c, 1, 50, 0
1, 15016, Note_off_c, 1, 65, 0
1, 15019, Note_on_c, 1, 67, 127
1, 15019, Note_on_c, 1, 52, 127
1, 15140, Note_off_c, 1, 67, 0
1, 15144, Note_on_c, 1, 64, 127
1, 15264, Note_off_c, 1, 52, 0
1, 15265, Note_off_c, 1, 64, 0
1, 15268, Note_on_c, 1, 61, 127
1, 15268, Note_on_c, 1, 55, 127
1, 15389, Note_off_c, 1, 61, 0
1, 15393, Note_on_c, 1, 59, 127
1, 15484, Note_off_c, 1, 55, 0
1, 15514, Note_off_c, 1, 59, 0
1, 15517, Note_on_c, 1, 61, 127
1, 15517, Note_on_c, 1, 52, 127
1, 15638, Note_off_c, 1, 61, 0
1, 15642, Note_on_c, 1, 64, 127
1, 15733, Note_off_c, 1, 52, 0
1, 15763, Note_off_c, 1, 64, 0
1, 15765, Note_on_c, 1, 57, 127
1, 15765, Note_on_c, 1, 49, 127
1, 15886, Note_off_c, 1, 57, 0
1, 15889, Note_on_c, 1, 61, 127
1, 15981, Note_off_c, 1, 49, 0
1, 16010, Note_off_c, 1, 61, 0
1, 16014, Note_on_c, 1, 64, 127
1, 16014, Note_on_c, 1, 45, 127
1, 16135, Note_off_c, 1, 64, 0
1, 16138, Note_on_c, 1, 67, 127
1, 16230, Note_off_c, 1, 45, 0
1, 16259, Note_off_c, 1, 67, 0
1, 16263, Note_on_c, 1, 65, 127
1, 16263, Note_on_c, 1, 49, 127
1, 16384, Note_off_c, 1, 65, 0
1, 16387, Note_on_c, 1, 64, 127
1, 16479, Note_off_c, 1, 49, 0
1, 16508, Note_off_c, 1, 64, 0
1, 16512, Note_on_c, 1, 65, 127
1, 16512, Note_on_c, 1, 50, 127
1, 16636, Note_on_c, 1, 45, 127
1, 16744, Note_off_c, 1, 65, 0
1, 16757, Note_off_c, 1, 50, 0
1, 16757, Note_off_c, 1, 45, 0
1, 16761, Note_on_c, 1, 41, 127
1, 16761, Note_on_c, 1, 69, 127
1, 16882, Note_off_c, 1, 41, 0
1, 16885, Note_on_c, 1, 40, 127
1, 16993, Note_off_c, 1, 69, 0
1, 17006, Note_off_c, 1, 40, 0
1, 17009, Note_on_c, 1, 41, 127
1, 17009, Note_on_c, 1, 74, 127
1, 17130, Note_off_c, 1, 41, 0
1, 17134, Note_on_c, 1, 45, 127
1, 17241, Note_off_c, 1, 74, 0
1, 17255, Note_off_c, 1, 45, 0
1, 17257, Note_on_c, 1, 69, 127
1, 17257, Note_on_c, 1, 38, 127
1, 17382, Note_on_c, 1, 41, 127
1, 17489, Note_off_c, 1, 69, 0
1, 17502, Note_off_c, 1, 38, 0
1, 17503, Note_off_c, 1, 41, 0
1, 17506, Note_on_c, 1, 45, 127
1, 17506, Note_on_c, 1, 65, 127
1, 17627, Note_off_c, 1, 45, 0
1, 17631, Note_on_c, 1, 48, 127
1, 17738, Note_off_c, 1, 65, 0
1, 17752, Note_off_c, 1, 48, 0
1, 17755, Note_on_c, 1, 46, 127
1, 17755, Note_on_c, 1, 62, 127
1, 17876, Note_off_c, 1, 46, 0
1, 17879, Note_on_c, 1, 45, 127
1, 17987, Note_off_c, 1, 62, 0
1, 18000, Note_off_c, 1, 45, 0
1, 18004, Note_on_c, 1, 67, 127
1, 18004, Note_on_c, 1, 50, 127
1, 18128, Note_on_c, 1, 46, 127
1, 18236, Note_off_c, 1, 67, 0
1, 18249, Note_off_c, 1, 50, 0
1, 18249, Note_off_c, 1, 46, 0
1, 18253, Note_on_c, 1, 43, 127
1, 18253, Note_on_c, 1, 70, 127
1, 18374, Note_off_c, 1, 43, 0
1, 18377, Note_on_c, 1, 42, 127
1, 18485, Note_off_c, 1, 70, 0
1, 18498, Note_off_c, 1, 42, 0
1, 18502, Note_on_c, 1, 43, 127
1, 18502, Note_on_c, 1, 74, 127
1, 18623, Note_off_c, 1, 43, 0
1, 18626, Note_on_c, 1, 46, 127
1, 18734, Note_off_c, 1, 74, 0
1, 18747, Note_off_c, 1, 46, 0
1, 18751, Note_on_c, 1, 70, 127
1, 18751, Note_on_c, 1, 38, 127
1, 18874, Note_on_c, 1, 43, 127
1, 18983, Note_off_c, 1, 70, 0
1, 18995, Note_off_c, 1, 43, 0
1, 18996, Note_off_c, 1, 38, 0
1, 18998, Note_on_c, 1, 46, 127
1, 18998, Note_on_c, 1, 67, 127
1, 19119, Note_off_c, 1, 46, 0
1, 19123, Note_on_c, 1, 50, 127
1, 19230, Note_off_c, 1, 67, 0
1, 19244, Note_off_c, 1, 50, 0
1, 19247, Note_on_c, 1, 49, 127
1, 19247, Note_on_c, 1, 62, 127
1, 19368, Note_off_c, 1, 49, 0
1, 19372, Note_on_c, 1, 47, 127
1, 19479, Note_off_c, 1, 62, 0
1, 19493, Note_off_c, 1, 47, 0
1, 19496, Note_on_c, 1, 67, 127
1, 19496, Note_on_c, 1, 49, 127
1, 19621, Note_on_c, 1, 46, 127
1, 19728, Note_off_c, 1, 67, 0
1, 19741, Note_off_c, 1, 49, 0
1, 19742, Note_off_c, 1, 46, 0
1, 19745, Note_on_c, 1, 43, 127
1, 19745, Note_on_c, 1, 73, 127
1, 19866, Note_off_c, 1, 43, 0
1, 19869, Note_on_c, 1, 42, 127
1, 19977, Note_off_c, 1, 73, 0
1, 19990, Note_off_c, 1, 42, 0
1, 19994, Note_on_c, 1, 43, 127
1, 19994, Note_on_c, 1, 76, 127
1, 20115, Note_off_c, 1, 43, 0
1, 20118, Note_on_c, 1, 46, 127
1, 20226, Note_off_c, 1, 76, 0
1, 20239, Note_off_c, 1, 46, 0
1, 20243, Note_on_c, 1, 73, 127
1, 20243, Note_on_c, 1, 38, 127
1, 20366, Note_on_c, 1, 43, 127
1, 20475, Note_off_c, 1, 73, 0
1, 20487, Note_off_c, 1, 43, 0
1, 20488, Note_off_c, 1, 38, 0
1, 20491, Note_on_c, 1, 49, 127
1, 20491, Note_on_c, 1, 67, 127
1, 20612, Note_off_c, 1, 49, 0
1, 20615, Note_on_c, 1, 52, 127
1, 20723, Note_off_c, 1, 67, 0
1, 20736, Note_off_c, 1, 52, 0
1, 20740, Note_on_c, 1, 50, 127
1, 20740, Note_on_c, 1, 64, 127
1, 20861, Note_off_c, 1, 50, 0
1, 20864, Note_on_c, 1, 49, 127
1, 20950, Note_off_c, 1, 64, 0
1, 20985, Note_off_c, 1, 49, 0
1, 20988, Note_on_c, 1, 74, 127
1, 20988, Note_on_c, 1, 50, 127
1, 21109, Note_off_c, 1, 74, 0
1, 21113, Note_on_c, 1, 69, 127
1, 21233, Note_off_c, 1, 50, 0
1, 21234, Note_off_c, 1, 69, 0
1, 21237, Note_on_c, 1, 65, 127
1, 21237, Note_on_c, 1, 53, 127
1, 21358, Note_off_c, 1, 65, 0
1, 21362, Note_on_c, 1, 64, 127
1, 21453, Note_off_c, 1, 53, 0
1, 21483, Note_off_c, 1, 64, 0
1, 21486, Note_on_c, 1, 65, 127
1, 21486, Note_on_c, 1, 57, 127
1, 21607, Note_off_c, 1, 65, 0
1, 21611, Note_on_c, 1, 69, 127
1, 21702, Note_off_c, 1, 57, 0
1, 21732, Note_off_c, 1, 69, 0
1, 21735, Note_on_c, 1, 62, 127
1, 21735, Note_on_c, 1, 53, 127
1, 21856, Note_off_c, 1, 62, 0
1, 21860, Note_on_c, 1, 65, 127
1, 21951, Note_off_c, 1, 53, 0
1, 21981, Note_off_c, 1, 65, 0
1, 21983, Note_on_c, 1, 69, 127
1, 21983, Note_on_c, 1, 50, 127
1, 22104, Note_off_c, 1, 69, 0
1, 22107, Note_on_c, 1, 72, 127
1, 22199, Note_off_c, 1, 50, 0
1, 22228, Note_off_c, 1, 72, 0
1, 22232, Note_on_c, 1, 70, 127
1, 22232, Note_on_c, 1, 53, 127
1, 22353, Note_off_c, 1, 70, 0
1, 22356, Note_on_c, 1, 69, 127
1, 22448, Note_off_c, 1, 53, 0
1, 22477, Note_off_c, 1, 69, 0
1, 22481, Note_on_c, 1, 77, 127
1, 22481, Note_on_c, 1, 38, 127
1, 22602, Note_off_c, 1, 77, 0
1, 22605, Note_on_c, 1, 74, 127
1, 22726, Note_off_c, 1, 38, 0
1, 22726, Note_off_c, 1, 74, 0
1, 22730, Note_on_c, 1, 70, 127
1, 22730, Note_on_c, 1, 41, 127
1, 22851, Note_off_c, 1, 70, 0
1, 22854, Note_on_c, 1, 69, 127
1, 22946, Note_off_c, 1, 41, 0
1, 22975, Note_off_c, 1, 69, 0
1, 22978, Note_on_c, 1, 70, 127
1, 22978, Note_on_c, 1, 46, 127
1, 23099, Note_off_c, 1, 70, 0
1, 23103, Note_on_c, 1, 74, 127
1, 23194, Note_off_c, 1, 46, 0
1, 23224, Note_off_c, 1, 74, 0
1, 23227, Note_on_c, 1, 65, 127
1, 23227, Note_on_c, 1, 50, 127
1, 23348, Note_off_c, 1, 65, 0
1, 23352, Note_on_c, 1, 70, 127
1, 23473, Note_off_c, 1, 70, 0
1, 23475, Note_on_c, 1, 74, 127
1, 23596, Note_off_c, 1, 74, 0
1, 23600, Note_on_c, 1, 77, 127
1, 23627, Note_off_c, 1, 50, 0
1, 23721, Note_off_c, 1, 77, 0
1, 23724, Note_on_c, 1, 76, 127
1, 23845, Note_off_c, 1, 76, 0
1, 23849, Note_on_c, 1, 74, 127
1, 23972, Note_off_c, 1, 74, 0
1, 23989, Note_on_c, 1, 81, 127
1, 23989, Note_on_c, 1, 62, 127
1, 24072, Note_on_c, 1, 80, 127
1, 24077, Note_off_c, 1, 81, 0
1, 24110, Note_off_c, 1, 62, 0
1, 24113, Note_on_c, 1, 59, 127
1, 24155, Note_on_c, 1, 78, 127
1, 24160, Note_off_c, 1, 80, 0
1, 24234, Note_off_c, 1, 59, 0
1, 24238, Note_on_c, 1, 56, 127
1, 24243, Note_off_c, 1, 78, 0
1, 24359, Note_off_c, 1, 56, 0
1, 24362, Note_on_c, 1, 54, 127
1, 24483, Note_off_c, 1, 54, 0
1, 24736, Note_on_c, 1, 52, 127
1, 24857, Note_off_c, 1, 52, 0
1, 25232, Note_on_c, 1, 61, 127
1, 25353, Note_off_c, 1, 61, 0
1, 25606, Note_on_c, 1, 76, 127
1, 25727, Note_off_c, 1, 76, 0
1, 25730, Note_on_c, 1, 73, 127
1, 25851, Note_off_c, 1, 73, 0
1, 25855, Note_on_c, 1, 71, 127
1, 25976, Note_off_c, 1, 71, 0
1, 26228, Note_on_c, 1, 69, 127
1, 26349, Note_off_c, 1, 69, 0
1, 26600, Note_on_c, 1, 79, 127
1, 26721, Note_off_c, 1, 79, 0
1, 26989, Note_on_c, 1, 76, 127
1, 26989, Note_on_c, 1, 60, 127
1, 27073, Note_on_c, 1, 78, 127
1, 27077, Note_off_c, 1, 76, 0
1, 27110, Note_off_c, 1, 60, 0
1, 27114, Note_on_c, 1, 57, 127
1, 27156, Note_on_c, 1, 79, 127
1, 27161, Note_off_c, 1, 78, 0
1, 27235, Note_off_c, 1, 57, 0
1, 27238, Note_on_c, 1, 54, 127
1, 27244, Note_off_c, 1, 79, 0
1, 27359, Note_off_c, 1, 54, 0
1, 27363, Note_on_c, 1, 52, 127
1, 27484, Note_off_c, 1, 52, 0
1, 27736, Note_on_c, 1, 50, 127
1, 27857, Note_off_c, 1, 50, 0
1, 28233, Note_on_c, 1, 59, 127
1, 28354, Note_off_c, 1, 59, 0
1, 28606, Note_on_c, 1, 74, 127
1, 28727, Note_off_c, 1, 74, 0
1, 28731, Note_on_c, 1, 71, 127
1, 28852, Note_off_c, 1, 71, 0
1, 28855, Note_on_c, 1, 69, 127
1, 28976, Note_off_c, 1, 69, 0
1, 29228, Note_on_c, 1, 67, 127
1, 29349, Note_off_c, 1, 67, 0
1, 29602, Note_on_c, 1, 77, 127
1, 29723, Note_off_c, 1, 77, 0
1, 29725, Note_on_c, 1, 75, 127
1, 29846, Note_off_c, 1, 75, 0
1, 29990, Note_on_c, 1, 75, 127
1, 29990, Note_on_c, 1, 60, 127
1, 30111, Note_off_c, 1, 75, 0
1, 30114, Note_on_c, 1, 72, 127
1, 30235, Note_off_c, 1, 60, 0
1, 30235, Note_off_c, 1, 72, 0
1, 30239, Note_on_c, 1, 69, 127
1, 30239, Note_on_c, 1, 63, 127
1, 30360, Note_off_c, 1, 69, 0
1, 30363, Note_on_c, 1, 67, 127
1, 30455, Note_off_c, 1, 63, 0
1, 30484, Note_off_c, 1, 67, 0
1, 30488, Note_on_c, 1, 69, 127
1, 30488, Note_on_c, 1, 60, 127
1, 30609, Note_off_c, 1, 69, 0
1, 30612, Note_on_c, 1, 72, 127
1, 30704, Note_off_c, 1, 60, 0
1, 30733, Note_off_c, 1, 72, 0
1, 30737, Note_on_c, 1, 65, 127
1, 30737, Note_on_c, 1, 57, 127
1, 30858, Note_off_c, 1, 65, 0
1, 30861, Note_on_c, 1, 69, 127
1, 30953, Note_off_c, 1, 57, 0
1, 30982, Note_off_c, 1, 69, 0
1, 30986, Note_on_c, 1, 72, 127
1, 30986, Note_on_c, 1, 53, 127
1, 31107, Note_off_c, 1, 72, 0
1, 31110, Note_on_c, 1, 75, 127
1, 31202, Note_off_c, 1, 53, 0
1, 31231, Note_off_c, 1, 75, 0
1, 31234, Note_on_c, 1, 74, 127
1, 31234, Note_on_c, 1, 57, 127
1, 31355, Note_off_c, 1, 74, 0
1, 31358, Note_on_c, 1, 72, 127
1, 31450, Note_off_c, 1, 57, 0
1, 31479, Note_off_c, 1, 72, 0
1, 31482, Note_on_c, 1, 74, 127
1, 31482, Note_on_c, 1, 58, 127
1, 31603, Note_off_c, 1, 74, 0
1, 31607, Note_on_c, 1, 70, 127
1, 31727, Note_off_c, 1, 58, 0
1, 31728, Note_off_c, 1, 70, 0
1, 31731, Note_on_c, 1, 67, 127
1, 31731, Note_on_c, 1, 62, 127
1, 31852, Note_off_c, 1, 67, 0
1, 31856, Note_on_c, 1, 66, 127
1, 31947, Note_off_c, 1, 62, 0
1, 31977, Note_off_c, 1, 66, 0
1, 31980, Note_on_c, 1, 67, 127
1, 31980, Note_on_c, 1, 58, 127
1, 32101, Note_off_c, 1, 67, 0
1, 32104, Note_on_c, 1, 70, 127
1, 32196, Note_off_c, 1, 58, 0
1, 32225, Note_off_c, 1, 70, 0
1, 32229, Note_on_c, 1, 63, 127
1, 32229, Note_on_c, 1, 55, 127
1, 32350, Note_off_c, 1, 63, 0
1, 32353, Note_on_c, 1, 67, 127
1, 32445, Note_off_c, 1, 55, 0
1, 32474, Note_off_c, 1, 67, 0
1, 32478, Note_on_c, 1, 70, 127
1, 32478, Note_on_c, 1, 51, 127
1, 32599, Note_off_c, 1, 70, 0
1, 32602, Note_on_c, 1, 74, 127
1, 32694, Note_off_c, 1, 51, 0
1, 32723, Note_off_c, 1, 74, 0
1, 32727, Note_on_c, 1, 72, 127
1, 32727, Note_on_c, 1, 55, 127
1, 32848, Note_off_c, 1, 72, 0
1, 32850, Note_on_c, 1, 70, 127
1, 32943, Note_off_c, 1, 55, 0
1, 32971, Note_off_c, 1, 70, 0
1, 32975, Note_on_c, 1, 72, 127
1, 32975, Note_on_c, 1, 57, 127
1, 33096, Note_off_c, 1, 72, 0
1, 33099, Note_on_c, 1, 69, 127
1, 33220, Note_off_c, 1, 57, 0
1, 33220, Note_off_c, 1, 69, 0
1, 33223, Note_on_c, 1, 66, 127
1, 33223, Note_on_c, 1, 60, 127
1, 33344, Note_off_c, 1, 66, 0
1, 33348, Note_on_c, 1, 64, 127
1, 33439, Note_off_c, 1, 60, 0
1, 33469, Note_off_c, 1, 64, 0
1, 33472, Note_on_c, 1, 66, 127
1, 33472, Note_on_c, 1, 57, 127
1, 33593, Note_off_c, 1, 66, 0
1, 33597, Note_on_c, 1, 69, 127
1, 33688, Note_off_c, 1, 57, 0
1, 33718, Note_off_c, 1, 69, 0
1, 33721, Note_on_c, 1, 62, 127
1, 33721, Note_on_c, 1, 54, 127
1, 33842, Note_off_c, 1, 62, 0
1, 33846, Note_on_c, 1, 66, 127
1, 33937, Note_off_c, 1, 54, 0
1, 33967, Note_off_c, 1, 66, 0
1, 33970, Note_on_c, 1, 69, 127
1, 33970, Note_on_c, 1, 50, 127
1, 34091, Note_off_c, 1, 69, 0
1, 34094, Note_on_c, 1, 72, 127
1, 34186, Note_off_c, 1, 50, 0
1, 34215, Note_off_c, 1, 72, 0
1, 34219, Note_on_c, 1, 70, 127
1, 34219, Note_on_c, 1, 54, 127
1, 34340, Note_off_c, 1, 70, 0
1, 34343, Note_on_c, 1, 69, 127
1, 34435, Note_off_c, 1, 54, 0
1, 34464, Note_off_c, 1, 69, 0
1, 34467, Note_on_c, 1, 69, 127
1, 34467, Note_on_c, 1, 55, 127
1, 34550, Note_on_c, 1, 70, 127
1, 34555, Note_off_c, 1, 69, 0
1, 34591, Note_on_c, 1, 50, 127
1, 34633, Note_on_c, 1, 72, 127
1, 34638, Note_off_c, 1, 70, 0
1, 34712, Note_off_c, 1, 55, 0
1, 34712, Note_off_c, 1, 50, 0
1, 34716, Note_on_c, 1, 46, 127
1, 34721, Note_off_c, 1, 72, 0
1, 34837, Note_off_c, 1, 46, 0
1, 34840, Note_on_c, 1, 45, 127
1, 34961, Note_off_c, 1, 45, 0
1, 35213, Note_on_c, 1, 43, 127
1, 35334, Note_off_c, 1, 43, 0
1, 35587, Note_on_c, 1, 53, 127
1, 35708, Note_off_c, 1, 53, 0
1, 35711, Note_on_c, 1, 52, 127
1, 35832, Note_off_c, 1, 52, 0
1, 35959, Note_on_c, 1, 48, 127
1, 35959, Note_on_c, 1, 64, 127
1, 36080, Note_off_c, 1, 48, 0
1, 36208, Note_on_c, 1, 40, 127
1, 36329, Note_off_c, 1, 40, 0
1, 36332, Note_on_c, 1, 38, 127
1, 36453, Note_off_c, 1, 38, 0
1, 36706, Note_on_c, 1, 36, 127
1, 36827, Note_off_c, 1, 36, 0
1, 37448, Note_off_c, 1, 64, 0
1, 37452, Note_on_c, 1, 63, 127
1, 38196, Note_off_c, 1, 63, 0
1, 38198, Note_on_c, 1, 65, 127
1, 38198, Note_on_c, 1, 41, 127
1, 38353, Note_off_c, 1, 65, 0
1, 38443, Note_off_c, 1, 41, 0
1, 38571, Note_on_c, 1, 57, 127
1, 38692, Note_off_c, 1, 57, 0
1, 38945, Note_on_c, 1, 60, 127
1, 38945, Note_on_c, 1, 62, 127
1, 39033, Note_off_c, 1, 60, 0
1, 39043, Note_on_c, 1, 58, 127
1, 39066, Note_off_c, 1, 62, 0
1, 39131, Note_off_c, 1, 58, 0
1, 40453, Note_on_c, 1, 67, 127
1, 40574, Note_off_c, 1, 67, 0
1, 40577, Note_on_c, 1, 74, 127
1, 40698, Note_off_c, 1, 74, 0
1, 41572, Note_on_c, 1, 77, 127
1, 41693, Note_off_c, 1, 77, 0
1, 41696, Note_on_c, 1, 76, 127
1, 41817, Note_off_c, 1, 76, 0
1, 42070, Note_on_c, 1, 79, 127
1, 42191, Note_off_c, 1, 79, 0
1, 43064, Note_on_c, 1, 82, 127
1, 43185, Note_off_c, 1, 82, 0
1, 43188, Note_on_c, 1, 81, 127
1, 43309, Note_off_c, 1, 81, 0
1, 43437, Note_on_c, 1, 84, 127
1, 43437, Note_on_c, 1, 57, 127
1, 43563, Note_on_c, 1, 81, 127
1, 43684, Note_off_c, 1, 84, 0
1, 43685, Note_off_c, 1, 81, 0
1, 43688, Note_on_c, 1, 77, 127
1, 43688, Note_on_c, 1, 60, 127
1, 43689, Note_off_c, 1, 57, 0
1, 43810, Note_off_c, 1, 77, 0
1, 43814, Note_on_c, 1, 76, 127
1, 43906, Note_off_c, 1, 60, 0
1, 43936, Note_off_c, 1, 76, 0
1, 43939, Note_on_c, 1, 77, 127
1, 43939, Note_on_c, 1, 57, 127
1, 44061, Note_off_c, 1, 77, 0
1, 44066, Note_on_c, 1, 81, 127
1, 44157, Note_off_c, 1, 57, 0
1, 44188, Note_off_c, 1, 81, 0
1, 44191, Note_on_c, 1, 74, 127
1, 44191, Note_on_c, 1, 53, 127
1, 44317, Note_on_c, 1, 77, 127
1, 44360, Note_off_c, 1, 74, 0
1, 44408, Note_off_c, 1, 53, 0
1, 44438, Note_off_c, 1, 77, 0
1, 44441, Note_on_c, 1, 81, 127
1, 44441, Note_on_c, 1, 50, 127
1, 44563, Note_off_c, 1, 81, 0
1, 44566, Note_on_c, 1, 84, 127
1, 44659, Note_off_c, 1, 50, 0
1, 44688, Note_off_c, 1, 84, 0
1, 44692, Note_on_c, 1, 82, 127
1, 44692, Note_on_c, 1, 53, 127
1, 44814, Note_off_c, 1, 82, 0
1, 44817, Note_on_c, 1, 81, 127
1, 44910, Note_off_c, 1, 53, 0
1, 44939, Note_off_c, 1, 81, 0
1, 44944, Note_on_c, 1, 82, 127
1, 44944, Note_on_c, 1, 55, 127
1, 45069, Note_on_c, 1, 79, 127
1, 45191, Note_off_c, 1, 82, 0
1, 45191, Note_off_c, 1, 79, 0
1, 45195, Note_on_c, 1, 76, 127
1, 45195, Note_on_c, 1, 58, 127
1, 45196, Note_off_c, 1, 55, 0
1, 45317, Note_off_c, 1, 76, 0
1, 45320, Note_on_c, 1, 74, 127
1, 45413, Note_off_c, 1, 58, 0
1, 45442, Note_off_c, 1, 74, 0
1, 45446, Note_on_c, 1, 76, 127
1, 45446, Note_on_c, 1, 55, 127
1, 45568, Note_off_c, 1, 76, 0
1, 45572, Note_on_c, 1, 79, 127
1, 45664, Note_off_c, 1, 55, 0
1, 45694, Note_off_c, 1, 79, 0
1, 45698, Note_on_c, 1, 72, 127
1, 45698, Note_on_c, 1, 52, 127
1, 45823, Note_on_c, 1, 76, 127
1, 45867, Note_off_c, 1, 72, 0
1, 45915, Note_off_c, 1, 52, 0
1, 45944, Note_off_c, 1, 76, 0
1, 45948, Note_on_c, 1, 79, 127
1, 45948, Note_on_c, 1, 48, 127
1, 46070, Note_off_c, 1, 79, 0
1, 46073, Note_on_c, 1, 82, 127
1, 46166, Note_off_c, 1, 48, 0
1, 46195, Note_off_c, 1, 82, 0
1, 46198, Note_on_c, 1, 81, 127
1, 46198, Note_on_c, 1, 52, 127
1, 46320, Note_off_c, 1, 81, 0
1, 46324, Note_on_c, 1, 79, 127
1, 46416, Note_off_c, 1, 52, 0
1, 46446, Note_off_c, 1, 79, 0
1, 46450, Note_on_c, 1, 81, 127
1, 46450, Note_on_c, 1, 53, 127
1, 46576, Note_on_c, 1, 77, 127
1, 46576, Note_on_c, 1, 48, 127
1, 46697, Note_off_c, 1, 81, 0
1, 46697, Note_off_c, 1, 53, 0
1, 46698, Note_off_c, 1, 77, 0
1, 46698, Note_off_c, 1, 48, 0
1, 46701, Note_on_c, 1, 72, 127
1, 46701, Note_on_c, 1, 45, 127
1, 46823, Note_off_c, 1, 72, 0
1, 46823, Note_off_c, 1, 45, 0
1, 46827, Note_on_c, 1, 70, 127
1, 46827, Note_on_c, 1, 43, 127
1, 46949, Note_off_c, 1, 70, 0
1, 46949, Note_off_c, 1, 43, 0
1, 46952, Note_on_c, 1, 72, 127
1, 46952, Note_on_c, 1, 45, 127
1, 47074, Note_off_c, 1, 72, 0
1, 47074, Note_off_c, 1, 45, 0
1, 47079, Note_on_c, 1, 77, 127
1, 47079, Note_on_c, 1, 48, 127
1, 47201, Note_off_c, 1, 77, 0
1, 47201, Note_off_c, 1, 48, 0
1, 47204, Note_on_c, 1, 69, 127
1, 47204, Note_on_c, 1, 41, 127
1, 47326, Note_off_c, 1, 69, 0
1, 47330, Note_on_c, 1, 72, 127
1, 47330, Note_on_c, 1, 45, 127
1, 47451, Note_off_c, 1, 41, 0
1, 47452, Note_off_c, 1, 72, 0
1, 47452, Note_off_c, 1, 45, 0
1, 47455, Note_on_c, 1, 75, 127
1, 47455, Note_on_c, 1, 48, 127
1, 47577, Note_off_c, 1, 75, 0
1, 47577, Note_off_c, 1, 48, 0
1, 47581, Note_on_c, 1, 79, 127
1, 47581, Note_on_c, 1, 51, 127
1, 47703, Note_off_c, 1, 79, 0
1, 47703, Note_off_c, 1, 51, 0
1, 47707, Note_on_c, 1, 77, 127
1, 47707, Note_on_c, 1, 50, 127
1, 47829, Note_off_c, 1, 77, 0
1, 47829, Note_off_c, 1, 50, 0
1, 47833, Note_on_c, 1, 75, 127
1, 47833, Note_on_c, 1, 48, 127
1, 47955, Note_off_c, 1, 75, 0
1, 47955, Note_off_c, 1, 48, 0
1, 47958, Note_on_c, 1, 74, 127
1, 47958, Note_on_c, 1, 53, 127
1, 48043, Note_on_c, 1, 75, 127
1, 48047, Note_off_c, 1, 74, 0
1, 48083, Note_on_c, 1, 50, 127
1, 48131, Note_off_c, 1, 75, 0
1, 48205, Note_off_c, 1, 53, 0
1, 48205, Note_off_c, 1, 50, 0
1, 48209, Note_on_c, 1, 46, 127
1, 48331, Note_off_c, 1, 46, 0
1, 48335, Note_on_c, 1, 45, 127
1, 48457, Note_off_c, 1, 45, 0
1, 48712, Note_on_c, 1, 41, 127
1, 48837, Note_on_c, 1, 72, 127
1, 48959, Note_off_c, 1, 41, 0
1, 48959, Note_off_c, 1, 72, 0
1, 48963, Note_on_c, 1, 70, 127
1, 48963, Note_on_c, 1, 50, 127
1, 49085, Note_off_c, 1, 70, 0
1, 49085, Note_off_c, 1, 50, 0
1, 49089, Note_on_c, 1, 69, 127
1, 49089, Note_on_c, 1, 53, 127
1, 49211, Note_off_c, 1, 69, 0
1, 49211, Note_off_c, 1, 53, 0
1, 49215, Note_on_c, 1, 67, 127
1, 49215, Note_on_c, 1, 52, 127
1, 49337, Note_off_c, 1, 67, 0
1, 49337, Note_off_c, 1, 52, 0
1, 49344, Note_on_c, 1, 65, 127
1, 49345, Note_on_c, 1, 50, 127
1, 49476, Note_off_c, 1, 65, 0
1, 49477, Note_off_c, 1, 50, 0
1, 49490, Note_on_c, 1, 52, 127
1, 49490, Note_on_c, 1, 70, 127
1, 49613, Note_off_c, 1, 52, 0
1, 49617, Note_on_c, 1, 48, 127
1, 49740, Note_off_c, 1, 48, 0
1, 49741, Note_off_c, 1, 70, 0
1, 49744, Note_on_c, 1, 46, 127
1, 49744, Note_on_c, 1, 79, 127
1, 49867, Note_off_c, 1, 46, 0
1, 49871, Note_on_c, 1, 45, 127
1, 49994, Note_off_c, 1, 45, 0
1, 49995, Note_off_c, 1, 79, 0
1, 49998, Note_on_c, 1, 46, 127
1, 49998, Note_on_c, 1, 76, 127
1, 50121, Note_off_c, 1, 46, 0
1, 50129, Note_on_c, 1, 52, 127
1, 50249, Note_off_c, 1, 76, 0
1, 50252, Note_off_c, 1, 52, 0
1, 50267, Note_on_c, 1, 43, 127
1, 50267, Note_on_c, 1, 72, 127
1, 50390, Note_off_c, 1, 43, 0
1, 50394, Note_on_c, 1, 46, 127
1, 50517, Note_off_c, 1, 46, 0
1, 50518, Note_off_c, 1, 72, 0
1, 50521, Note_on_c, 1, 52, 127
1, 50521, Note_on_c, 1, 70, 127
1, 50644, Note_off_c, 1, 52, 0
1, 50648, Note_on_c, 1, 55, 127
1, 50771, Note_off_c, 1, 55, 0
1, 50772, Note_off_c, 1, 70, 0
1, 50775, Note_on_c, 1, 53, 127
1, 50775, Note_on_c, 1, 79, 127
1, 50898, Note_off_c, 1, 53, 0
1, 50902, Note_on_c, 1, 52, 127
1, 51025, Note_off_c, 1, 52, 0
1, 51026, Note_off_c, 1, 79, 0
1, 51037, Note_on_c, 1, 69, 127
1, 51037, Note_on_c, 1, 53, 127
1, 51162, Note_off_c, 1, 69, 0
1, 51165, Note_on_c, 1, 67, 127
1, 51259, Note_off_c, 1, 53, 0
1, 51290, Note_off_c, 1, 67, 0
1, 51293, Note_on_c, 1, 65, 127
1, 51293, Note_on_c, 1, 45, 127
1, 51418, Note_off_c, 1, 65, 0
1, 51422, Note_on_c, 1, 64, 127
1, 51515, Note_off_c, 1, 45, 0
1, 51547, Note_off_c, 1, 64, 0
1, 51550, Note_on_c, 1, 65, 127
1, 51550, Note_on_c, 1, 50, 127
1, 51675, Note_off_c, 1, 65, 0
1, 51678, Note_on_c, 1, 69, 127
1, 51772, Note_off_c, 1, 50, 0
1, 51803, Note_off_c, 1, 69, 0
1, 51807, Note_on_c, 1, 48, 127
1, 51807, Note_on_c, 1, 62, 127
1, 51895, Note_on_c, 1, 46, 127
1, 51900, Note_off_c, 1, 48, 0
1, 51936, Note_off_c, 1, 62, 0
1, 51939, Note_on_c, 1, 65, 127
1, 51988, Note_off_c, 1, 46, 0
1, 52068, Note_off_c, 1, 65, 0
1, 52159, Note_on_c, 1, 45, 127
1, 52203, Note_on_c, 1, 58, 127
1, 52252, Note_off_c, 1, 45, 0
1, 52332, Note_off_c, 1, 58, 0
1, 52335, Note_on_c, 1, 55, 127
1, 52464, Note_off_c, 1, 55, 0
1, 52467, Note_on_c, 1, 64, 127
1, 52597, Note_off_c, 1, 64, 0
1, 52601, Note_on_c, 1, 65, 127
1, 52601, Note_on_c, 1, 41, 127
1, 52742, Note_on_c, 1, 58, 127
1, 52878, Note_off_c, 1, 58, 0
1, 52882, Note_on_c, 1, 57, 127
1, 53018, Note_off_c, 1, 57, 0
1, 53021, Note_on_c, 1, 55, 127
1, 53157, Note_off_c, 1, 55, 0
1, 53302, Note_on_c, 1, 60, 127
1, 53438, Note_off_c, 1, 60, 0
1, 53439, Note_off_c, 1, 65, 0
1, 53442, Note_on_c, 1, 53, 127
1, 53613, Note_off_c, 1, 41, 0
1, 53615, Note_on_c, 1, 48, 127
1, 53784, Note_off_c, 1, 48, 0
1, 53788, Note_on_c, 1, 45, 127
1, 53957, Note_off_c, 1, 45, 0
1, 56400, Note_off_c, 1, 53, 0
1, 57573, Note_on_c, 1, 60, 127
1, 57832, Note_off_c, 1, 60, 0
1, 57885, Note_on_c, 1, 62, 127
1, 58191, Note_off_c, 1, 62, 0
1, 58198, Note_on_c, 1, 60, 127
1, 58448, Note_off_c, 1, 60, 0
1, 58510, Note_on_c, 1, 58, 127
1, 58760, Note_off_c, 1, 58, 0
1, 58824, Note_on_c, 1, 60, 127
1, 59130, Note_off_c, 1, 60, 0
1, 59136, Note_on_c, 1, 52, 127
1, 59285, Note_off_c, 1, 52, 0
1, 59292, Note_on_c, 1, 53, 127
1, 59441, Note_off_c, 1, 53, 0
1, 59448, Note_on_c, 1, 55, 127
1, 59583, Note_off_c, 1, 55, 0
1, 59605, Note_on_c, 1, 57, 127
1, 59740, Note_off_c, 1, 57, 0
1, 59761, Note_on_c, 1, 58, 127
1, 60067, Note_off_c, 1, 58, 0
1, 60073, Note_on_c, 1, 60, 127
1, 60222, Note_off_c, 1, 60, 0
1, 60230, Note_on_c, 1, 58, 127
1, 60379, Note_off_c, 1, 58, 0
1, 60386, Note_on_c, 1, 57, 127
1, 60521, Note_off_c, 1, 57, 0
1, 60542, Note_on_c, 1, 55, 127
1, 60677, Note_off_c, 1, 55, 0
1, 60698, Note_on_c, 1, 57, 127
1, 60847, Note_off_c, 1, 57, 0
1, 60854, Note_on_c, 1, 55, 127
1, 61003, Note_off_c, 1, 55, 0
1, 61011, Note_on_c, 1, 53, 127
1, 61160, Note_off_c, 1, 53, 0
1, 61167, Note_on_c, 1, 55, 127
1, 61316, Note_off_c, 1, 55, 0
1, 61323, Note_on_c, 1, 57, 127
1, 61323, Note_on_c, 1, 65, 127
1, 61463, Note_off_c, 1, 57, 0
1, 61479, Note_on_c, 1, 58, 127
1, 61557, Note_off_c, 1, 65, 0
1, 61619, Note_off_c, 1, 58, 0
1, 61635, Note_on_c, 1, 60, 127
1, 61635, Note_on_c, 1, 69, 127
1, 61784, Note_off_c, 1, 60, 0
1, 61792, Note_on_c, 1, 58, 127
1, 61941, Note_off_c, 1, 69, 0
1, 61941, Note_off_c, 1, 58, 0
1, 61948, Note_on_c, 1, 57, 127
1, 61948, Note_on_c, 1, 67, 127
1, 62097, Note_off_c, 1, 57, 0
1, 62104, Note_on_c, 1, 58, 127
1, 62182, Note_off_c, 1, 67, 0
1, 62253, Note_off_c, 1, 58, 0
1, 62260, Note_on_c, 1, 60, 127
1, 62260, Note_on_c, 1, 65, 127
1, 62400, Note_off_c, 1, 60, 0
1, 62416, Note_on_c, 1, 62, 127
1, 62494, Note_off_c, 1, 65, 0
1, 62556, Note_off_c, 1, 62, 0
1, 62573, Note_on_c, 1, 67, 127
1, 62573, Note_on_c, 1, 64, 127
1, 62722, Note_off_c, 1, 67, 0
1, 62807, Note_off_c, 1, 64, 0
1, 62885, Note_on_c, 1, 59, 127
1, 62885, Note_on_c, 1, 65, 127
1, 63034, Note_off_c, 1, 59, 0
1, 63034, Note_off_c, 1, 65, 0
1, 63041, Note_on_c, 1, 60, 127
1, 63041, Note_on_c, 1, 64, 127
1, 63190, Note_off_c, 1, 60, 0
1, 63190, Note_off_c, 1, 64, 0
1, 63198, Note_on_c, 1, 62, 127
1, 63347, Note_off_c, 1, 62, 0
1, 63354, Note_on_c, 1, 64, 127
1, 63354, Note_on_c, 1, 60, 127
1, 63503, Note_off_c, 1, 64, 0
1, 63503, Note_off_c, 1, 60, 0
1, 63510, Note_on_c, 1, 60, 127
1, 63510, Note_on_c, 1, 65, 127
1, 63603, Note_off_c, 1, 60, 0
1, 63604, Note_on_c, 1, 59, 127
1, 63659, Note_off_c, 1, 59, 0
1, 63814, Note_off_c, 1, 65, 0
1, 63821, Note_on_c, 1, 60, 127
1, 63821, Note_on_c, 1, 67, 127
1, 63892, Note_off_c, 1, 60, 0
1, 63899, Note_on_c, 1, 59, 127
1, 63969, Note_off_c, 1, 67, 0
1, 63970, Note_off_c, 1, 59, 0
1, 63976, Note_on_c, 1, 60, 127
1, 63976, Note_on_c, 1, 65, 127
1, 64047, Note_off_c, 1, 60, 0
1, 64054, Note_on_c, 1, 59, 127
1, 64124, Note_off_c, 1, 65, 0
1, 64125, Note_off_c, 1, 59, 0
1, 64131, Note_on_c, 1, 60, 127
1, 64131, Note_on_c, 1, 64, 127
1, 64202, Note_off_c, 1, 60, 0
1, 64208, Note_on_c, 1, 59, 127
1, 64279, Note_off_c, 1, 64, 0
1, 64279, Note_off_c, 1, 59, 0
1, 64286, Note_on_c, 1, 57, 127
1, 64286, Note_on_c, 1, 62, 127
1, 64357, Note_off_c, 1, 57, 0
1, 64363, Note_on_c, 1, 59, 127
1, 64434, Note_off_c, 1, 62, 0
1, 64434, Note_off_c, 1, 59, 0
1, 64441, Note_on_c, 1, 64, 127
1, 64441, Note_on_c, 1, 60, 127
1, 64590, Note_off_c, 1, 64, 0
1, 64597, Note_on_c, 1, 62, 127
1, 64746, Note_off_c, 1, 62, 0
1, 64747, Note_off_c, 1, 60, 0
1, 64753, Note_on_c, 1, 60, 127
1, 64753, Note_on_c, 1, 58, 127
1, 64902, Note_off_c, 1, 60, 0
1, 64909, Note_on_c, 1, 62, 127
1, 65008, Note_off_c, 1, 58, 0
1, 65058, Note_off_c, 1, 62, 0
1, 65066, Note_on_c, 1, 64, 127
1, 65066, Note_on_c, 1, 57, 127
1, 65215, Note_off_c, 1, 64, 0
1, 65222, Note_on_c, 1, 65, 127
1, 65321, Note_off_c, 1, 57, 0
1, 65371, Note_off_c, 1, 65, 0
1, 65378, Note_on_c, 1, 58, 127
1, 65378, Note_on_c, 1, 67, 127
1, 65527, Note_off_c, 1, 58, 0
1, 65534, Note_on_c, 1, 57, 127
1, 65683, Note_off_c, 1, 57, 0
1, 65684, Note_off_c, 1, 67, 0
1, 65691, Note_on_c, 1, 55, 127
1, 65691, Note_on_c, 1, 65, 127
1, 65840, Note_off_c, 1, 55, 0
1, 65847, Note_on_c, 1, 57, 127
1, 65921, Note_off_c, 1, 65, 0
1, 65996, Note_off_c, 1, 57, 0
1, 66003, Note_on_c, 1, 58, 127
1, 66003, Note_on_c, 1, 64, 127
1, 66003, Note_on_c, 1, 48, 127
1, 66152, Note_off_c, 1, 58, 0
1, 66159, Note_on_c, 1, 60, 127
1, 66233, Note_off_c, 1, 64, 0
1, 66270, Note_off_c, 1, 48, 0
1, 66310, Note_off_c, 1, 60, 0
1, 66317, Note_on_c, 1, 65, 127
1, 66317, Note_on_c, 1, 50, 127
1, 66317, Note_on_c, 1, 57, 127
1, 66466, Note_off_c, 1, 65, 0
1, 66473, Note_on_c, 1, 64, 127
1, 66622, Note_off_c, 1, 64, 0
1, 66623, Note_off_c, 1, 50, 0
1, 66629, Note_on_c, 1, 62, 127
1, 66629, Note_on_c, 1, 48, 127
1, 66778, Note_off_c, 1, 62, 0
1, 66895, Note_off_c, 1, 48, 0
1, 66935, Note_off_c, 1, 57, 0
1, 66941, Note_on_c, 1, 65, 127
1, 66941, Note_on_c, 1, 46, 127
1, 66941, Note_on_c, 1, 62, 127
1, 67090, Note_off_c, 1, 65, 0
1, 67098, Note_on_c, 1, 67, 127
1, 67207, Note_off_c, 1, 46, 0
1, 67247, Note_off_c, 1, 62, 0
1, 67247, Note_off_c, 1, 67, 0
1, 67254, Note_on_c, 1, 69, 127
1, 67254, Note_on_c, 1, 64, 127
1, 67254, Note_on_c, 1, 48, 127
1, 67403, Note_off_c, 1, 69, 0
1, 67410, Note_on_c, 1, 72, 127
1, 67559, Note_off_c, 1, 72, 0
1, 67560, Note_off_c, 1, 64, 0
1, 67560, Note_off_c, 1, 48, 0
1, 67566, Note_on_c, 1, 70, 127
1, 67566, Note_on_c, 1, 40, 127
1, 67566, Note_on_c, 1, 67, 127
1, 67715, Note_off_c, 1, 70, 0
1, 67715, Note_off_c, 1, 40, 0
1, 67723, Note_on_c, 1, 69, 127
1, 67723, Note_on_c, 1, 41, 127
1, 67800, Note_off_c, 1, 67, 0
1, 67872, Note_off_c, 1, 69, 0
1, 67872, Note_off_c, 1, 41, 0
1, 67879, Note_on_c, 1, 67, 127
1, 67879, Note_on_c, 1, 43, 127
1, 67879, Note_on_c, 1, 60, 127
1, 68028, Note_off_c, 1, 67, 0
1, 68028, Note_off_c, 1, 43, 0
1, 68035, Note_on_c, 1, 65, 127
1, 68035, Note_on_c, 1, 45, 127
1, 68138, Note_off_c, 1, 60, 0
1, 68184, Note_off_c, 1, 65, 0
1, 68184, Note_off_c, 1, 45, 0
1, 68191, Note_on_c, 1, 65, 127
1, 68191, Note_on_c, 1, 46, 127
1, 68191, Note_on_c, 1, 60, 127
1, 68262, Note_off_c, 1, 65, 0
1, 68269, Note_on_c, 1, 64, 127
1, 68340, Note_off_c, 1, 64, 0
1, 68494, Note_off_c, 1, 46, 0
1, 68501, Note_on_c, 1, 48, 127
1, 68649, Note_off_c, 1, 48, 0
1, 68811, Note_on_c, 1, 45, 127
1, 68959, Note_off_c, 1, 45, 0
1, 68966, Note_on_c, 1, 62, 127
1, 68966, Note_on_c, 1, 43, 127
1, 69037, Note_off_c, 1, 62, 0
1, 69114, Note_off_c, 1, 43, 0
1, 69433, Note_on_c, 1, 41, 127
1, 69433, Note_on_c, 1, 69, 127
1, 69582, Note_off_c, 1, 41, 0
1, 69739, Note_off_c, 1, 60, 0
1, 70051, Note_off_c, 1, 69, 0
1, 70058, Note_on_c, 1, 48, 127
1, 70058, Note_on_c, 1, 67, 127
1, 70058, Note_on_c, 1, 64, 127
1, 70207, Note_off_c, 1, 48, 0
1, 70214, Note_on_c, 1, 47, 127
1, 70363, Note_off_c, 1, 47, 0
1, 70364, Note_off_c, 1, 67, 0
1, 70370, Note_on_c, 1, 45, 127
1, 70370, Note_on_c, 1, 72, 127
1, 70519, Note_off_c, 1, 45, 0
1, 70676, Note_off_c, 1, 64, 0
1, 70683, Note_on_c, 1, 69, 127
1, 70839, Note_on_c, 1, 50, 127
1, 70917, Note_off_c, 1, 69, 0
1, 70988, Note_off_c, 1, 72, 0
1, 70988, Note_off_c, 1, 50, 0
1, 70995, Note_on_c, 1, 52, 127
1, 70995, Note_on_c, 1, 71, 127
1, 70995, Note_on_c, 1, 67, 127
1, 71144, Note_off_c, 1, 52, 0
1, 71152, Note_on_c, 1, 55, 127
1, 71301, Note_off_c, 1, 71, 0
1, 71301, Note_off_c, 1, 55, 0
1, 71308, Note_on_c, 1, 53, 127
1, 71308, Note_on_c, 1, 76, 127
1, 71457, Note_off_c, 1, 53, 0
1, 71613, Note_off_c, 1, 67, 0
1, 71620, Note_on_c, 1, 50, 127
1, 71620, Note_on_c, 1, 72, 127
1, 71769, Note_off_c, 1, 50, 0
1, 71776, Note_on_c, 1, 48, 127
1, 71854, Note_off_c, 1, 72, 0
1, 71925, Note_off_c, 1, 48, 0
1, 71926, Note_off_c, 1, 76, 0
1, 71933, Note_on_c, 1, 48, 127
1, 71933, Note_on_c, 1, 74, 127
1, 72003, Note_off_c, 1, 48, 0
1, 72011, Note_on_c, 1, 47, 127
1, 72081, Note_off_c, 1, 47, 0
1, 72089, Note_on_c, 1, 72, 127
1, 72237, Note_off_c, 1, 72, 0
1, 72244, Note_on_c, 1, 71, 127
1, 72393, Note_off_c, 1, 71, 0
1, 72400, Note_on_c, 1, 69, 127
1, 72549, Note_off_c, 1, 69, 0
1, 72556, Note_on_c, 1, 67, 127
1, 72704, Note_off_c, 1, 67, 0
1, 72711, Note_on_c, 1, 65, 127
1, 72860, Note_off_c, 1, 65, 0
1, 72867, Note_on_c, 1, 64, 127
1, 73017, Note_off_c, 1, 74, 0
1, 73180, Note_on_c, 1, 50, 127
1, 73329, Note_off_c, 1, 64, 0
1, 73329, Note_off_c, 1, 50, 0
1, 73336, Note_on_c, 1, 70, 127
1, 73336, Note_on_c, 1, 52, 127
1, 73485, Note_off_c, 1, 70, 0
1, 73485, Note_off_c, 1, 52, 0
1, 73492, Note_on_c, 1, 69, 127
1, 73492, Note_on_c, 1, 72, 127
1, 73492, Note_on_c, 1, 53, 127
1, 73641, Note_off_c, 1, 69, 0
1, 73648, Note_on_c, 1, 67, 127
1, 73726, Note_off_c, 1, 72, 0
1, 73797, Note_off_c, 1, 67, 0
1, 73798, Note_off_c, 1, 53, 0
1, 73805, Note_on_c, 1, 65, 127
1, 73805, Note_on_c, 1, 74, 127
1, 73805, Note_on_c, 1, 58, 127
1, 73954, Note_off_c, 1, 65, 0
1, 73961, Note_on_c, 1, 64, 127
1, 74110, Note_off_c, 1, 64, 0
1, 74111, Note_off_c, 1, 74, 0
1, 74117, Note_on_c, 1, 62, 127
1, 74117, Note_on_c, 1, 72, 127
1, 74266, Note_off_c, 1, 62, 0
1, 74351, Note_off_c, 1, 72, 0
1, 74429, Note_on_c, 1, 70, 127
1, 74586, Note_on_c, 1, 67, 127
1, 74663, Note_off_c, 1, 70, 0
1, 74735, Note_off_c, 1, 58, 0
1, 74735, Note_off_c, 1, 67, 0
1, 74742, Note_on_c, 1, 57, 127
1, 74742, Note_on_c, 1, 72, 127
1, 74742, Note_on_c, 1, 69, 127
1, 74891, Note_off_c, 1, 57, 0
1, 74898, Note_on_c, 1, 60, 127
1, 75047, Note_off_c, 1, 60, 0
1, 75048, Note_off_c, 1, 72, 0
1, 75049, Note_off_c, 1, 69, 0
1, 75054, Note_on_c, 1, 64, 127
1, 75054, Note_on_c, 1, 58, 127
1, 75203, Note_off_c, 1, 64, 0
1, 75203, Note_off_c, 1, 58, 0
1, 75210, Note_on_c, 1, 65, 127
1, 75210, Note_on_c, 1, 57, 127
1, 75359, Note_off_c, 1, 65, 0
1, 75359, Note_off_c, 1, 57, 0
1, 75367, Note_on_c, 1, 67, 127
1, 75367, Note_on_c, 1, 55, 127
1, 75516, Note_off_c, 1, 67, 0
1, 75516, Note_off_c, 1, 55, 0
1, 75523, Note_on_c, 1, 69, 127
1, 75523, Note_on_c, 1, 53, 127
1, 75672, Note_off_c, 1, 69, 0
1, 75672, Note_off_c, 1, 53, 0
1, 75679, Note_on_c, 1, 53, 127
1, 75679, Note_on_c, 1, 70, 127
1, 75749, Note_off_c, 1, 53, 0
1, 75757, Note_on_c, 1, 52, 127
1, 75827, Note_off_c, 1, 52, 0
1, 75983, Note_off_c, 1, 70, 0
1, 75990, Note_on_c, 1, 72, 127
1, 75991, Note_on_c, 1, 53, 127
1, 76061, Note_off_c, 1, 53, 0
1, 76069, Note_on_c, 1, 52, 127
1, 76139, Note_off_c, 1, 72, 0
1, 76139, Note_off_c, 1, 52, 0
1, 76146, Note_on_c, 1, 70, 127
1, 76147, Note_on_c, 1, 53, 127
1, 76217, Note_off_c, 1, 53, 0
1, 76225, Note_on_c, 1, 52, 127
1, 76295, Note_off_c, 1, 70, 0
1, 76295, Note_off_c, 1, 52, 0
1, 76303, Note_on_c, 1, 53, 127
1, 76303, Note_on_c, 1, 69, 127
1, 76373, Note_off_c, 1, 53, 0
1, 76381, Note_on_c, 1, 52, 127
1, 76451, Note_off_c, 1, 69, 0
1, 76451, Note_off_c, 1, 52, 0
1, 76458, Note_on_c, 1, 67, 127
1, 76459, Note_on_c, 1, 50, 127
1, 76529, Note_off_c, 1, 50, 0
1, 76537, Note_on_c, 1, 52, 127
1, 76607, Note_off_c, 1, 67, 0
1, 76607, Note_off_c, 1, 52, 0
1, 76614, Note_on_c, 1, 69, 127
1, 76614, Note_on_c, 1, 53, 127
1, 76763, Note_off_c, 1, 69, 0
1, 76770, Note_on_c, 1, 67, 127
1, 76919, Note_off_c, 1, 67, 0
1, 76926, Note_on_c, 1, 65, 127
1, 77075, Note_off_c, 1, 65, 0
1, 77231, Note_off_c, 1, 53, 0
1, 77239, Note_on_c, 1, 69, 127
1, 77239, Note_on_c, 1, 65, 127
1, 77388, Note_off_c, 1, 69, 0
1, 77395, Note_on_c, 1, 70, 127
1, 77473, Note_off_c, 1, 65, 0
1, 77544, Note_off_c, 1, 70, 0
1, 77551, Note_on_c, 1, 72, 127
1, 77551, Note_on_c, 1, 69, 127
1, 77700, Note_off_c, 1, 72, 0
1, 77707, Note_on_c, 1, 70, 127
1, 77856, Note_off_c, 1, 70, 0
1, 77857, Note_off_c, 1, 69, 0
1, 77863, Note_on_c, 1, 69, 127
1, 77863, Note_on_c, 1, 67, 127
1, 78012, Note_off_c, 1, 69, 0
1, 78020, Note_on_c, 1, 70, 127
1, 78097, Note_off_c, 1, 67, 0
1, 78169, Note_off_c, 1, 70, 0
1, 78176, Note_on_c, 1, 72, 127
1, 78176, Note_on_c, 1, 65, 127
1, 78325, Note_off_c, 1, 72, 0
1, 78332, Note_on_c, 1, 74, 127
1, 78410, Note_off_c, 1, 65, 0
1, 78481, Note_off_c, 1, 74, 0
1, 78488, Note_on_c, 1, 76, 127
1, 78488, Note_on_c, 1, 67, 127
1, 78637, Note_off_c, 1, 76, 0
1, 78645, Note_on_c, 1, 79, 127
1, 78794, Note_off_c, 1, 67, 0
1, 78794, Note_off_c, 1, 79, 0
1, 78801, Note_on_c, 1, 77, 127
1, 78801, Note_on_c, 1, 59, 127
1, 78950, Note_off_c, 1, 77, 0
1, 78950, Note_off_c, 1, 59, 0
1, 78957, Note_on_c, 1, 76, 127
1, 78957, Note_on_c, 1, 60, 127
1, 79106, Note_off_c, 1, 76, 0
1, 79106, Note_off_c, 1, 60, 0
1, 79113, Note_on_c, 1, 74, 127
1, 79113, Note_on_c, 1, 62, 127
1, 79262, Note_off_c, 1, 74, 0
1, 79262, Note_off_c, 1, 62, 0
1, 79269, Note_on_c, 1, 72, 127
1, 79269, Note_on_c, 1, 64, 127
1, 79418, Note_off_c, 1, 72, 0
1, 79418, Note_off_c, 1, 64, 0
1, 79426, Note_on_c, 1, 72, 127
1, 79426, Note_on_c, 1, 65, 127
1, 79497, Note_off_c, 1, 72, 0
1, 79503, Note_on_c, 1, 71, 127
1, 79574, Note_off_c, 1, 71, 0
1, 79729, Note_off_c, 1, 65, 0
1, 79735, Note_on_c, 1, 72, 127
1, 79735, Note_on_c, 1, 67, 127
1, 79806, Note_off_c, 1, 72, 0
1, 79813, Note_on_c, 1, 71, 127
1, 79883, Note_off_c, 1, 67, 0
1, 79884, Note_off_c, 1, 71, 0
1, 79890, Note_on_c, 1, 72, 127
1, 79890, Note_on_c, 1, 65, 127
1, 79961, Note_off_c, 1, 72, 0
1, 79968, Note_on_c, 1, 71, 127
1, 80038, Note_off_c, 1, 65, 0
1, 80039, Note_off_c, 1, 71, 0
1, 80045, Note_on_c, 1, 72, 127
1, 80045, Note_on_c, 1, 64, 127
1, 80116, Note_off_c, 1, 72, 0
1, 80123, Note_on_c, 1, 71, 127
1, 80193, Note_off_c, 1, 64, 0
1, 80194, Note_off_c, 1, 71, 0
1, 80200, Note_on_c, 1, 69, 127
1, 80200, Note_on_c, 1, 62, 127
1, 80271, Note_off_c, 1, 69, 0
1, 80278, Note_on_c, 1, 71, 127
1, 80348, Note_off_c, 1, 62, 0
1, 80349, Note_off_c, 1, 71, 0
1, 80355, Note_on_c, 1, 72, 127
1, 80355, Note_on_c, 1, 64, 127
1, 80504, Note_off_c, 1, 72, 0
1, 80504, Note_off_c, 1, 64, 0
1, 80511, Note_on_c, 1, 74, 127
1, 80511, Note_on_c, 1, 62, 127
1, 80660, Note_off_c, 1, 74, 0
1, 80660, Note_off_c, 1, 62, 0
1, 80668, Note_on_c, 1, 76, 127
1, 80668, Note_on_c, 1, 60, 127
1, 80817, Note_off_c, 1, 76, 0
1, 80817, Note_off_c, 1, 60, 0
1, 80824, Note_on_c, 1, 77, 127
1, 80824, Note_on_c, 1, 62, 127
1, 80973, Note_off_c, 1, 77, 0
1, 80973, Note_off_c, 1, 62, 0
1, 80980, Note_on_c, 1, 79, 127
1, 80980, Note_on_c, 1, 64, 127
1, 80980, Note_on_c, 1, 60, 127
1, 81129, Note_off_c, 1, 79, 0
1, 81129, Note_off_c, 1, 64, 0
1, 81129, Note_off_c, 1, 60, 0
1, 81136, Note_on_c, 1, 81, 127
1, 81136, Note_on_c, 1, 60, 127
1, 81285, Note_off_c, 1, 81, 0
1, 81285, Note_off_c, 1, 60, 0
1, 81292, Note_on_c, 1, 70, 127
1, 81292, Note_on_c, 1, 62, 127
1, 81292, Note_on_c, 1, 65, 127
1, 81441, Note_off_c, 1, 70, 0
1, 81449, Note_on_c, 1, 72, 127
1, 81598, Note_off_c, 1, 62, 0
1, 81598, Note_off_c, 1, 72, 0
1, 81605, Note_on_c, 1, 74, 127
1, 81605, Note_on_c, 1, 60, 127
1, 81754, Note_off_c, 1, 74, 0
1, 81761, Note_on_c, 1, 76, 127
1, 81864, Note_off_c, 1, 60, 0
1, 81909, Note_off_c, 1, 65, 0
1, 81910, Note_off_c, 1, 76, 0
1, 81917, Note_on_c, 1, 77, 127
1, 81917, Note_on_c, 1, 58, 127
1, 82066, Note_off_c, 1, 77, 0
1, 82074, Note_on_c, 1, 79, 127
1, 82183, Note_off_c, 1, 58, 0
1, 82223, Note_off_c, 1, 79, 0
1, 82230, Note_on_c, 1, 81, 127
1, 82230, Note_on_c, 1, 60, 127
1, 82379, Note_off_c, 1, 81, 0
1, 82386, Note_on_c, 1, 84, 127
1, 82535, Note_off_c, 1, 84, 0
1, 82536, Note_off_c, 1, 60, 0
1, 82542, Note_on_c, 1, 82, 127
1, 82542, Note_on_c, 1, 52, 127
1, 82691, Note_off_c, 1, 82, 0
1, 82691, Note_off_c, 1, 52, 0
1, 82698, Note_on_c, 1, 81, 127
1, 82698, Note_on_c, 1, 53, 127
1, 82847, Note_off_c, 1, 81, 0
1, 82847, Note_off_c, 1, 53, 0
1, 82855, Note_on_c, 1, 79, 127
1, 82855, Note_on_c, 1, 55, 127
1, 82855, Note_on_c, 1, 72, 127
1, 83004, Note_off_c, 1, 79, 0
1, 83004, Note_off_c, 1, 55, 0
1, 83011, Note_on_c, 1, 77, 127
1, 83011, Note_on_c, 1, 57, 127
1, 83160, Note_off_c, 1, 77, 0
1, 83160, Note_off_c, 1, 57, 0
1, 83161, Note_off_c, 1, 72, 0
1, 83167, Note_on_c, 1, 77, 127
1, 83167, Note_on_c, 1, 74, 127
1, 83167, Note_on_c, 1, 58, 127
1, 83473, Note_off_c, 1, 77, 0
1, 83473, Note_off_c, 1, 74, 0
1, 83473, Note_off_c, 1, 58, 0
1, 83479, Note_on_c, 1, 77, 127
1, 83479, Note_on_c, 1, 60, 127
1, 83479, Note_on_c, 1, 72, 127
1, 83550, Note_off_c, 1, 77, 0
1, 83557, Note_on_c, 1, 76, 127
1, 83627, Note_off_c, 1, 60, 0
1, 83628, Note_off_c, 1, 76, 0
1, 83634, Note_on_c, 1, 58, 127
1, 83782, Note_off_c, 1, 72, 0
1, 83782, Note_off_c, 1, 58, 0
1, 83789, Note_on_c, 1, 57, 127
1, 83789, Note_on_c, 1, 70, 127
1, 83938, Note_off_c, 1, 57, 0
1, 83946, Note_on_c, 1, 55, 127
1, 84095, Note_off_c, 1, 70, 0
1, 84095, Note_off_c, 1, 55, 0
1, 84102, Note_on_c, 1, 57, 127
1, 84102, Note_on_c, 1, 72, 127
1, 84102, Note_on_c, 1, 77, 127
1, 84251, Note_off_c, 1, 57, 0
1, 84258, Note_on_c, 1, 60, 127
1, 84407, Note_off_c, 1, 60, 0
1, 84408, Note_off_c, 1, 72, 0
1, 84409, Note_off_c, 1, 77, 0
1, 84414, Note_on_c, 1, 64, 127
1, 84414, Note_on_c, 1, 58, 127
1, 84563, Note_off_c, 1, 64, 0
1, 84563, Note_off_c, 1, 58, 0
1, 84570, Note_on_c, 1, 65, 127
1, 84570, Note_on_c, 1, 57, 127
1, 84719, Note_off_c, 1, 65, 0
1, 84719, Note_off_c, 1, 57, 0
1, 84727, Note_on_c, 1, 67, 127
1, 84727, Note_on_c, 1, 55, 127
1, 84876, Note_off_c, 1, 67, 0
1, 84876, Note_off_c, 1, 55, 0
1, 84883, Note_on_c, 1, 69, 127
1, 84883, Note_on_c, 1, 53, 127
1, 85032, Note_off_c, 1, 69, 0
1, 85032, Note_off_c, 1, 53, 0
1, 85039, Note_on_c, 1, 53, 127
1, 85039, Note_on_c, 1, 70, 127
1, 85039, Note_on_c, 1, 79, 127
1, 85339, Note_off_c, 1, 53, 0
1, 85343, Note_off_c, 1, 70, 0
1, 85350, Note_on_c, 1, 72, 127
1, 85443, Note_on_c, 1, 52, 127
1, 85499, Note_off_c, 1, 72, 0
1, 85531, Note_off_c, 1, 52, 0
1, 85663, Note_on_c, 1, 69, 127
1, 85811, Note_off_c, 1, 69, 0
1, 85818, Note_on_c, 1, 67, 127
1, 85967, Note_off_c, 1, 67, 0
1, 86123, Note_off_c, 1, 79, 0
1, 86286, Note_on_c, 1, 77, 127
1, 86286, Note_on_c, 1, 55, 127
1, 86435, Note_off_c, 1, 77, 0
1, 86442, Note_on_c, 1, 76, 127
1, 86552, Note_off_c, 1, 55, 0
1, 86591, Note_off_c, 1, 76, 0
1, 86599, Note_on_c, 1, 74, 127
1, 86599, Note_on_c, 1, 57, 127
1, 86748, Note_off_c, 1, 74, 0
1, 86865, Note_off_c, 1, 57, 0
1, 86911, Note_on_c, 1, 50, 127
1, 87528, Note_off_c, 1, 50, 0
1, 87692, Note_on_c, 1, 65, 127
1, 87841, Note_off_c, 1, 65, 0
1, 88473, Note_on_c, 1, 73, 127
1, 88622, Note_off_c, 1, 73, 0
1, 88629, Note_on_c, 1, 71, 127
1, 88778, Note_off_c, 1, 71, 0
1, 88785, Note_on_c, 1, 49, 127
1, 89403, Note_off_c, 1, 49, 0
1, 89410, Note_on_c, 1, 61, 127
1, 89567, Note_on_c, 1, 64, 127
1, 89644, Note_off_c, 1, 61, 0
1, 89716, Note_off_c, 1, 64, 0
1, 89723, Note_on_c, 1, 62, 127
1, 90029, Note_off_c, 1, 62, 0
1, 90035, Note_on_c, 1, 65, 127
1, 90035, Note_on_c, 1, 60, 127
1, 90035, Note_on_c, 1, 69, 127
1, 90184, Note_off_c, 1, 65, 0
1, 90191, Note_on_c, 1, 67, 127
1, 90294, Note_off_c, 1, 60, 0
1, 90340, Note_off_c, 1, 67, 0
1, 90341, Note_off_c, 1, 69, 0
1, 90348, Note_on_c, 1, 69, 127
1, 90348, Note_on_c, 1, 58, 127
1, 90348, Note_on_c, 1, 74, 127
1, 90497, Note_off_c, 1, 69, 0
1, 90504, Note_on_c, 1, 67, 127
1, 90614, Note_off_c, 1, 58, 0
1, 90653, Note_off_c, 1, 67, 0
1, 90654, Note_off_c, 1, 74, 0
1, 90660, Note_on_c, 1, 69, 127
1, 90660, Note_on_c, 1, 73, 127
1, 90660, Note_on_c, 1, 57, 127
1, 90809, Note_off_c, 1, 69, 0
1, 90816, Note_on_c, 1, 70, 127
1, 90965, Note_off_c, 1, 70, 0
1, 91129, Note_on_c, 1, 67, 127
1, 91278, Note_off_c, 1, 73, 0
1, 91278, Note_off_c, 1, 67, 0
1, 91285, Note_on_c, 1, 65, 127
1, 91285, Note_on_c, 1, 81, 127
1, 91434, Note_off_c, 1, 65, 0
1, 91441, Note_on_c, 1, 64, 127
1, 91519, Note_off_c, 1, 81, 0
1, 91590, Note_off_c, 1, 64, 0
1, 91597, Note_on_c, 1, 62, 127
1, 91597, Note_on_c, 1, 82, 127
1, 91746, Note_off_c, 1, 62, 0
1, 91753, Note_on_c, 1, 61, 127
1, 91902, Note_off_c, 1, 61, 0
1, 91903, Note_off_c, 1, 82, 0
1, 92222, Note_on_c, 1, 79, 127
1, 92456, Note_off_c, 1, 79, 0
1, 92528, Note_off_c, 1, 57, 0
1, 92535, Note_on_c, 1, 81, 127
1, 92535, Note_on_c, 1, 61, 127
1, 92535, Note_on_c, 1, 57, 127
1, 92841, Note_off_c, 1, 81, 0
1, 92842, Note_off_c, 1, 61, 0
1, 92847, Note_on_c, 1, 73, 127
1, 92996, Note_off_c, 1, 73, 0
1, 93003, Note_on_c, 1, 74, 127
1, 93152, Note_off_c, 1, 74, 0
1, 93159, Note_on_c, 1, 76, 127
1, 93159, Note_on_c, 1, 69, 127
1, 93308, Note_off_c, 1, 76, 0
1, 93316, Note_on_c, 1, 77, 127
1, 93393, Note_off_c, 1, 69, 0
1, 93465, Note_off_c, 1, 77, 0
1, 93472, Note_on_c, 1, 79, 127
1, 93472, Note_on_c, 1, 70, 127
1, 93778, Note_off_c, 1, 79, 0
1, 93778, Note_off_c, 1, 70, 0
1, 94097, Note_on_c, 1, 67, 127
1, 94331, Note_off_c, 1, 67, 0
1, 94878, Note_on_c, 1, 62, 127
1, 95027, Note_off_c, 1, 62, 0
1, 95028, Note_off_c, 1, 57, 0
1, 95034, Note_on_c, 1, 76, 127
1, 95034, Note_on_c, 1, 64, 127
1, 95034, Note_on_c, 1, 57, 127
1, 95183, Note_off_c, 1, 76, 0
1, 95183, Note_off_c, 1, 64, 0
1, 95190, Note_on_c, 1, 74, 127
1, 95190, Note_on_c, 1, 65, 127
1, 95300, Note_off_c, 1, 57, 0
1, 95339, Note_off_c, 1, 74, 0
1, 95339, Note_off_c, 1, 65, 0
1, 95346, Note_on_c, 1, 74, 127
1, 95346, Note_on_c, 1, 67, 127
1, 95346, Note_on_c, 1, 58, 127
1, 95495, Note_off_c, 1, 74, 0
1, 95503, Note_on_c, 1, 73, 127
1, 95574, Note_off_c, 1, 73, 0
1, 95650, Note_off_c, 1, 67, 0
1, 95650, Note_off_c, 1, 58, 0
1, 95657, Note_on_c, 1, 69, 127
1, 95657, Note_on_c, 1, 57, 127
1, 95657, Note_on_c, 1, 73, 127
1, 95806, Note_off_c, 1, 69, 0
1, 95814, Note_on_c, 1, 67, 127
1, 95923, Note_off_c, 1, 57, 0
1, 95963, Note_off_c, 1, 67, 0
1, 95970, Note_on_c, 1, 65, 127
1, 95970, Note_on_c, 1, 55, 127
1, 96119, Note_off_c, 1, 65, 0
1, 96126, Note_on_c, 1, 64, 127
1, 96236, Note_off_c, 1, 55, 0
1, 96275, Note_off_c, 1, 64, 0
1, 96379, Note_off_c, 1, 73, 0
1, 96386, Note_on_c, 1, 74, 127
1, 96483, Note_off_c, 1, 74, 0
1, 96491, Note_on_c, 1, 72, 127
1, 96588, Note_off_c, 1, 72, 0
1, 96595, Note_on_c, 1, 70, 127
1, 96595, Note_on_c, 1, 49, 127
1, 96744, Note_off_c, 1, 70, 0
1, 96744, Note_off_c, 1, 49, 0
1, 96751, Note_on_c, 1, 50, 127
1, 96900, Note_off_c, 1, 50, 0
1, 96907, Note_on_c, 1, 67, 127
1, 96907, Note_on_c, 1, 52, 127
1, 97056, Note_off_c, 1, 67, 0
1, 97056, Note_off_c, 1, 52, 0
1, 97063, Note_on_c, 1, 65, 127
1, 97063, Note_on_c, 1, 53, 127
1, 97212, Note_off_c, 1, 65, 0
1, 97212, Note_off_c, 1, 53, 0
1, 97220, Note_on_c, 1, 70, 127
1, 97220, Note_on_c, 1, 55, 127
1, 97220, Note_on_c, 1, 61, 127
1, 97526, Note_off_c, 1, 70, 0
1, 97526, Note_off_c, 1, 55, 0
1, 97532, Note_on_c, 1, 57, 127
1, 97532, Note_on_c, 1, 69, 127
1, 97681, Note_off_c, 1, 57, 0
1, 97766, Note_off_c, 1, 69, 0
1, 97844, Note_on_c, 1, 53, 127
1, 97844, Note_on_c, 1, 67, 127
1, 97993, Note_off_c, 1, 53, 0
1, 98001, Note_on_c, 1, 52, 127
1, 98078, Note_off_c, 1, 67, 0
1, 98150, Note_off_c, 1, 52, 0
1, 98307, Note_off_c, 1, 61, 0
1, 98469, Note_on_c, 1, 59, 127
1, 98618, Note_off_c, 1, 59, 0
1, 98782, Note_on_c, 1, 62, 127
1, 98931, Note_off_c, 1, 62, 0
1, 98938, Note_on_c, 1, 64, 127
1, 99087, Note_off_c, 1, 64, 0
1, 99094, Note_on_c, 1, 65, 127
1, 99094, Note_on_c, 1, 50, 127
1, 99243, Note_off_c, 1, 65, 0
1, 99243, Note_off_c, 1, 50, 0
1, 99250, Note_on_c, 1, 70, 127
1, 99250, Note_on_c, 1, 64, 127
1, 99250, Note_on_c, 1, 55, 127
1, 99399, Note_off_c, 1, 70, 0
1, 99399, Note_off_c, 1, 64, 0
1, 99399, Note_off_c, 1, 55, 0
1, 99407, Note_on_c, 1, 65, 127
1, 99407, Note_on_c, 1, 57, 127
1, 99407, Note_on_c, 1, 61, 127
1, 99504, Note_off_c, 1, 65, 0
1, 99511, Note_on_c, 1, 64, 127
1, 99608, Note_off_c, 1, 64, 0
1, 99713, Note_off_c, 1, 57, 0
1, 99719, Note_on_c, 1, 45, 127
1, 99875, Note_on_c, 1, 62, 127
1, 100024, Note_off_c, 1, 61, 0
1, 100024, Note_off_c, 1, 62, 0
1, 100025, Note_off_c, 1, 45, 0
1, 100031, Note_on_c, 1, 62, 127
1, 100031, Note_on_c, 1, 38, 127
1, 100196, Note_on_c, 1, 64, 127
1, 100345, Note_off_c, 1, 64, 0
1, 100352, Note_on_c, 1, 66, 127
1, 100493, Note_off_c, 1, 62, 0
1, 100501, Note_off_c, 1, 66, 0
1, 100508, Note_on_c, 1, 67, 127
1, 100649, Note_off_c, 1, 38, 0
1, 100657, Note_off_c, 1, 67, 0
1, 100664, Note_on_c, 1, 69, 127
1, 100664, Note_on_c, 1, 50, 127
1, 100813, Note_off_c, 1, 69, 0
1, 100820, Note_on_c, 1, 70, 127
1, 100930, Note_off_c, 1, 50, 0
1, 100969, Note_off_c, 1, 70, 0
1, 100977, Note_on_c, 1, 72, 127
1, 100977, Note_on_c, 1, 51, 127
1, 101126, Note_off_c, 1, 72, 0
1, 101133, Note_on_c, 1, 70, 127
1, 101282, Note_off_c, 1, 70, 0
1, 101283, Note_off_c, 1, 51, 0
1, 101289, Note_on_c, 1, 72, 127
1, 101289, Note_on_c, 1, 50, 127
1, 101438, Note_off_c, 1, 72, 0
1, 101445, Note_on_c, 1, 74, 127
1, 101555, Note_off_c, 1, 50, 0
1, 101594, Note_off_c, 1, 74, 0
1, 101601, Note_on_c, 1, 75, 127
1, 101601, Note_on_c, 1, 48, 127
1, 101750, Note_off_c, 1, 75, 0
1, 101758, Note_on_c, 1, 74, 127
1, 101867, Note_off_c, 1, 48, 0
1, 101907, Note_off_c, 1, 74, 0
1, 101914, Note_on_c, 1, 67, 127
1, 101914, Note_on_c, 1, 50, 127
1, 102006, Note_off_c, 1, 67, 0
1, 102013, Note_on_c, 1, 66, 127
1, 102105, Note_off_c, 1, 66, 0
1, 102112, Note_on_c, 1, 64, 127
1, 102217, Note_off_c, 1, 64, 0
1, 102220, Note_off_c, 1, 50, 0
1, 102226, Note_on_c, 1, 62, 127
1, 102226, Note_on_c, 1, 42, 127
1, 102375, Note_off_c, 1, 62, 0
1, 102375, Note_off_c, 1, 42, 0
1, 102382, Note_on_c, 1, 64, 127
1, 102382, Note_on_c, 1, 43, 127
1, 102531, Note_off_c, 1, 64, 0
1, 102531, Note_off_c, 1, 43, 0
1, 102539, Note_on_c, 1, 66, 127
1, 102539, Note_on_c, 1, 45, 127
1, 102539, Note_on_c, 1, 62, 127
1, 102688, Note_off_c, 1, 66, 0
1, 102688, Note_off_c, 1, 45, 0
1, 102695, Note_on_c, 1, 67, 127
1, 102695, Note_on_c, 1, 46, 127
1, 102773, Note_off_c, 1, 62, 0
1, 102844, Note_off_c, 1, 67, 0
1, 102844, Note_off_c, 1, 46, 0
1, 102851, Note_on_c, 1, 48, 127
1, 102851, Note_on_c, 1, 63, 127
1, 102851, Note_on_c, 1, 69, 127
1, 103000, Note_off_c, 1, 48, 0
1, 103007, Note_on_c, 1, 46, 127
1, 103156, Note_off_c, 1, 46, 0
1, 103157, Note_off_c, 1, 63, 0
1, 103164, Note_on_c, 1, 50, 127
1, 103164, Note_on_c, 1, 62, 127
1, 103313, Note_off_c, 1, 50, 0
1, 103398, Note_off_c, 1, 62, 0
1, 103476, Note_on_c, 1, 60, 127
1, 103632, Note_on_c, 1, 45, 127
1, 103735, Note_off_c, 1, 60, 0
1, 103781, Note_off_c, 1, 45, 0
1, 103938, Note_off_c, 1, 69, 0
1, 103945, Note_on_c, 1, 67, 127
1, 104094, Note_off_c, 1, 67, 0
1, 104101, Note_on_c, 1, 54, 127
1, 104250, Note_off_c, 1, 54, 0
1, 104257, Note_on_c, 1, 70, 127
1, 104257, Note_on_c, 1, 55, 127
1, 104406, Note_off_c, 1, 70, 0
1, 104406, Note_off_c, 1, 55, 0
1, 104413, Note_on_c, 1, 72, 127
1, 104413, Note_on_c, 1, 57, 127
1, 104562, Note_off_c, 1, 72, 0
1, 104562, Note_off_c, 1, 57, 0
1, 104569, Note_on_c, 1, 74, 127
1, 104569, Note_on_c, 1, 58, 127
1, 104718, Note_off_c, 1, 74, 0
1, 104718, Note_off_c, 1, 58, 0
1, 104726, Note_on_c, 1, 60, 127
1, 104726, Note_on_c, 1, 75, 127
1, 104726, Note_on_c, 1, 54, 127
1, 104875, Note_off_c, 1, 60, 0
1, 104882, Note_on_c, 1, 58, 127
1, 105031, Note_off_c, 1, 58, 0
1, 105032, Note_off_c, 1, 75, 0
1, 105033, Note_off_c, 1, 54, 0
1, 105038, Note_on_c, 1, 62, 127
1, 105038, Note_on_c, 1, 74, 127
1, 105187, Note_off_c, 1, 62, 0
1, 105194, Note_on_c, 1, 60, 127
1, 105272, Note_off_c, 1, 74, 0
1, 105343, Note_off_c, 1, 60, 0
1, 105350, Note_on_c, 1, 58, 127
1, 105350, Note_on_c, 1, 72, 127
1, 105499, Note_off_c, 1, 58, 0
1, 105507, Note_on_c, 1, 57, 127
1, 105584, Note_off_c, 1, 72, 0
1, 105656, Note_off_c, 1, 57, 0
1, 105663, Note_on_c, 1, 58, 127
1, 105663, Note_on_c, 1, 74, 127
1, 105663, Note_on_c, 1, 55, 127
1, 105812, Note_off_c, 1, 58, 0
1, 105819, Note_on_c, 1, 62, 127
1, 105968, Note_off_c, 1, 62, 0
1, 105969, Note_off_c, 1, 74, 0
1, 105970, Note_off_c, 1, 55, 0
1, 105975, Note_on_c, 1, 66, 127
1, 105975, Note_on_c, 1, 60, 127
1, 106124, Note_off_c, 1, 66, 0
1, 106124, Note_off_c, 1, 60, 0
1, 106132, Note_on_c, 1, 67, 127
1, 106132, Note_on_c, 1, 58, 127
1, 106281, Note_off_c, 1, 67, 0
1, 106281, Note_off_c, 1, 58, 0
1, 106288, Note_on_c, 1, 69, 127
1, 106288, Note_on_c, 1, 57, 127
1, 106437, Note_off_c, 1, 69, 0
1, 106437, Note_off_c, 1, 57, 0
1, 106444, Note_on_c, 1, 70, 127
1, 106444, Note_on_c, 1, 55, 127
1, 106593, Note_off_c, 1, 70, 0
1, 106593, Note_off_c, 1, 55, 0
1, 106600, Note_on_c, 1, 72, 127
1, 106600, Note_on_c, 1, 54, 127
1, 106600, Note_on_c, 1, 51, 127
1, 106749, Note_off_c, 1, 72, 0
1, 106756, Note_on_c, 1, 70, 127
1, 106905, Note_off_c, 1, 70, 0
1, 106913, Note_on_c, 1, 74, 127
1, 107062, Note_off_c, 1, 74, 0
1, 107217, Note_off_c, 1, 54, 0
1, 107217, Note_off_c, 1, 51, 0
1, 107225, Note_on_c, 1, 70, 127
1, 107374, Note_off_c, 1, 70, 0
1, 107381, Note_on_c, 1, 69, 127
1, 107530, Note_off_c, 1, 69, 0
1, 107537, Note_on_c, 1, 70, 127
1, 107537, Note_on_c, 1, 55, 127
1, 107537, Note_on_c, 1, 50, 127
1, 107686, Note_off_c, 1, 70, 0
1, 107686, Note_off_c, 1, 55, 0
1, 107694, Note_on_c, 1, 66, 127
1, 107694, Note_on_c, 1, 57, 127
1, 107843, Note_off_c, 1, 66, 0
1, 107843, Note_off_c, 1, 57, 0
1, 107850, Note_on_c, 1, 67, 127
1, 107850, Note_on_c, 1, 58, 127
1, 107991, Note_off_c, 1, 50, 0
1, 107999, Note_off_c, 1, 67, 0
1, 107999, Note_off_c, 1, 58, 0
1, 108006, Note_on_c, 1, 69, 127
1, 108006, Note_on_c, 1, 60, 127
1, 108155, Note_off_c, 1, 69, 0
1, 108155, Note_off_c, 1, 60, 0
1, 108162, Note_on_c, 1, 70, 127
1, 108162, Note_on_c, 1, 62, 127
1, 108311, Note_off_c, 1, 70, 0
1, 108311, Note_off_c, 1, 62, 0
1, 108318, Note_on_c, 1, 72, 127
1, 108318, Note_on_c, 1, 57, 127
1, 108467, Note_off_c, 1, 72, 0
1, 108467, Note_off_c, 1, 57, 0
1, 108475, Note_on_c, 1, 74, 127
1, 108475, Note_on_c, 1, 58, 127
1, 108624, Note_off_c, 1, 74, 0
1, 108631, Note_on_c, 1, 79, 127
1, 108631, Note_on_c, 1, 48, 127
1, 108780, Note_off_c, 1, 79, 0
1, 108780, Note_off_c, 1, 48, 0
1, 108781, Note_off_c, 1, 58, 0
1, 108787, Note_on_c, 1, 72, 127
1, 108787, Note_on_c, 1, 55, 127
1, 108787, Note_on_c, 1, 50, 127
1, 108936, Note_off_c, 1, 72, 0
1, 108943, Note_on_c, 1, 70, 127
1, 109092, Note_off_c, 1, 70, 0
1, 109093, Note_off_c, 1, 55, 0
1, 109093, Note_off_c, 1, 50, 0
1, 109100, Note_on_c, 1, 69, 127
1, 109100, Note_on_c, 1, 54, 127
1, 109100, Note_on_c, 1, 50, 127
1, 109249, Note_off_c, 1, 69, 0
1, 109256, Note_on_c, 1, 67, 127
1, 109405, Note_off_c, 1, 67, 0
1, 109406, Note_off_c, 1, 54, 0
1, 109406, Note_off_c, 1, 50, 0
1, 109412, Note_on_c, 1, 55, 127
1, 109412, Note_on_c, 1, 67, 127
1, 109412, Note_on_c, 1, 43, 127
1, 109561, Note_off_c, 1, 55, 0
1, 109568, Note_on_c, 1, 62, 127
1, 109717, Note_off_c, 1, 62, 0
1, 109718, Note_off_c, 1, 67, 0
1, 109718, Note_off_c, 1, 43, 0
1, 109724, Note_on_c, 1, 67, 127
1, 109724, Note_on_c, 1, 45, 127
1, 109724, Note_on_c, 1, 70, 127
1, 109873, Note_off_c, 1, 67, 0
1, 109881, Note_on_c, 1, 65, 127
1, 109994, Note_off_c, 1, 45, 0
1, 110032, Note_off_c, 1, 65, 0
1, 110038, Note_on_c, 1, 64, 127
1, 110038, Note_on_c, 1, 46, 127
1, 110187, Note_off_c, 1, 64, 0
1, 110194, Note_on_c, 1, 62, 127
1, 110308, Note_off_c, 1, 46, 0
1, 110345, Note_off_c, 1, 62, 0
1, 110352, Note_on_c, 1, 48, 127
1, 110501, Note_off_c, 1, 70, 0
1, 110664, Note_on_c, 1, 72, 127
1, 110664, Note_on_c, 1, 50, 127
1, 110672, Note_off_c, 1, 48, 0
1, 110813, Note_off_c, 1, 72, 0
1, 110934, Note_off_c, 1, 50, 0
1, 110978, Note_on_c, 1, 69, 127
1, 110978, Note_on_c, 1, 52, 127
1, 111127, Note_off_c, 1, 69, 0
1, 111248, Note_off_c, 1, 52, 0
1, 111293, Note_on_c, 1, 53, 127
1, 111293, Note_on_c, 1, 69, 127
1, 111449, Note_on_c, 1, 60, 127
1, 111598, Note_off_c, 1, 60, 0
1, 111605, Note_on_c, 1, 65, 127
1, 111605, Note_on_c, 1, 55, 127
1, 111613, Note_off_c, 1, 53, 0
1, 111754, Note_off_c, 1, 65, 0
1, 111761, Note_on_c, 1, 63, 127
1, 111875, Note_off_c, 1, 55, 0
1, 111912, Note_off_c, 1, 63, 0
1, 111919, Note_on_c, 1, 62, 127
1, 111919, Note_on_c, 1, 57, 127
1, 112068, Note_off_c, 1, 62, 0
1, 112189, Note_off_c, 1, 57, 0
1, 112233, Note_on_c, 1, 58, 127
1, 112382, Note_off_c, 1, 69, 0
1, 112545, Note_on_c, 1, 70, 127
1, 112694, Note_off_c, 1, 70, 0
1, 112857, Note_on_c, 1, 67, 127
1, 113006, Note_off_c, 1, 67, 0
1, 113170, Note_on_c, 1, 64, 127
1, 113320, Note_off_c, 1, 58, 0
1, 113476, Note_off_c, 1, 64, 0
1, 113482, Note_on_c, 1, 60, 127
1, 113482, Note_on_c, 1, 65, 127
1, 113482, Note_on_c, 1, 62, 127
1, 113631, Note_off_c, 1, 60, 0
1, 113639, Note_on_c, 1, 58, 127
1, 113716, Note_off_c, 1, 65, 0
1, 113716, Note_off_c, 1, 62, 0
1, 113788, Note_off_c, 1, 58, 0
1, 113795, Note_on_c, 1, 57, 127
1, 113795, Note_on_c, 1, 67, 127
1, 113795, Note_on_c, 1, 64, 127
1, 113944, Note_off_c, 1, 57, 0
1, 113951, Note_on_c, 1, 55, 127
1, 114029, Note_off_c, 1, 67, 0
1, 114029, Note_off_c, 1, 64, 0
1, 114100, Note_off_c, 1, 55, 0
1, 114107, Note_on_c, 1, 53, 127
1, 114107, Note_on_c, 1, 69, 127
1, 114107, Note_on_c, 1, 65, 127
1, 114256, Note_off_c, 1, 53, 0
1, 114263, Note_on_c, 1, 48, 127
1, 114412, Note_off_c, 1, 48, 0
1, 114413, Note_off_c, 1, 69, 0
1, 114413, Note_off_c, 1, 65, 0
1, 114420, Note_on_c, 1, 53, 127
1, 114420, Note_on_c, 1, 70, 127
1, 114420, Note_on_c, 1, 67, 127
1, 114569, Note_off_c, 1, 53, 0
1, 114576, Note_on_c, 1, 51, 127
1, 114654, Note_off_c, 1, 70, 0
1, 114654, Note_off_c, 1, 67, 0
1, 114725, Note_off_c, 1, 51, 0
1, 114732, Note_on_c, 1, 50, 127
1, 114732, Note_on_c, 1, 72, 127
1, 114732, Note_on_c, 1, 69, 127
1, 114881, Note_off_c, 1, 50, 0
1, 114888, Note_on_c, 1, 48, 127
1, 114966, Note_off_c, 1, 72, 0
1, 114966, Note_off_c, 1, 69, 0
1, 115037, Note_off_c, 1, 48, 0
1, 115044, Note_on_c, 1, 46, 127
1, 115044, Note_on_c, 1, 74, 127
1, 115044, Note_on_c, 1, 70, 127
1, 115193, Note_off_c, 1, 46, 0
1, 115201, Note_on_c, 1, 48, 127
1, 115350, Note_off_c, 1, 74, 0
1, 115350, Note_off_c, 1, 48, 0
1, 115357, Note_on_c, 1, 76, 127
1, 115513, Note_on_c, 1, 45, 127
1, 115591, Note_off_c, 1, 76, 0
1, 115662, Note_off_c, 1, 45, 0
1, 115669, Note_on_c, 1, 43, 127
1, 115669, Note_on_c, 1, 77, 127
1, 115818, Note_off_c, 1, 43, 0
1, 115825, Note_on_c, 1, 41, 127
1, 115903, Note_off_c, 1, 77, 0
1, 115974, Note_off_c, 1, 41, 0
1, 115982, Note_on_c, 1, 40, 127
1, 115982, Note_on_c, 1, 79, 127
1, 116131, Note_off_c, 1, 70, 0
1, 116138, Note_on_c, 1, 67, 127
1, 116287, Note_off_c, 1, 67, 0
1, 116294, Note_on_c, 1, 72, 127
1, 116443, Note_off_c, 1, 72, 0
1, 116665, Note_off_c, 1, 40, 0
1, 116711, Note_on_c, 1, 69, 127
1, 116808, Note_off_c, 1, 69, 0
1, 117069, Note_off_c, 1, 79, 0
1, 117388, Note_on_c, 1, 75, 127
1, 117539, Note_off_c, 1, 75, 0
1, 118171, Note_on_c, 1, 50, 127
1, 118437, Note_off_c, 1, 50, 0
1, 118484, Note_on_c, 1, 55, 127
1, 118946, Note_off_c, 1, 55, 0
1, 118952, Note_on_c, 1, 53, 127
1, 119101, Note_off_c, 1, 53, 0
1, 119108, Note_on_c, 1, 64, 127
1, 119108, Note_on_c, 1, 58, 127
1, 119257, Note_off_c, 1, 64, 0
1, 119257, Note_off_c, 1, 58, 0
1, 119265, Note_on_c, 1, 65, 127
1, 119265, Note_on_c, 1, 57, 127
1, 119414, Note_off_c, 1, 65, 0
1, 119414, Note_off_c, 1, 57, 0
1, 119733, Note_on_c, 1, 70, 127
1, 119733, Note_on_c, 1, 55, 127
1, 119733, Note_on_c, 1, 43, 127
1, 119882, Note_off_c, 1, 70, 0
1, 119889, Note_on_c, 1, 69, 127
1, 120038, Note_off_c, 1, 69, 0
1, 120039, Note_off_c, 1, 55, 0
1, 120046, Note_on_c, 1, 72, 127
1, 120046, Note_on_c, 1, 46, 127
1, 120195, Note_off_c, 1, 72, 0
1, 120195, Note_off_c, 1, 46, 0
1, 120202, Note_on_c, 1, 48, 127
1, 120351, Note_off_c, 1, 48, 0
1, 120358, Note_on_c, 1, 50, 127
1, 120507, Note_off_c, 1, 50, 0
1, 120514, Note_on_c, 1, 67, 127
1, 120514, Note_on_c, 1, 52, 127
1, 120663, Note_off_c, 1, 43, 0
1, 120663, Note_off_c, 1, 67, 0
1, 120663, Note_off_c, 1, 52, 0
1, 120670, Note_on_c, 1, 69, 127
1, 120670, Note_on_c, 1, 41, 127
1, 120670, Note_on_c, 1, 53, 127
1, 120826, Note_off_c, 1, 69, 0
1, 120833, Note_on_c, 1, 67, 127
1, 120988, Note_off_c, 1, 41, 0
1, 120989, Note_off_c, 1, 67, 0
1, 120996, Note_on_c, 1, 70, 127
1, 120996, Note_on_c, 1, 43, 127
1, 121152, Note_off_c, 1, 70, 0
1, 121299, Note_off_c, 1, 43, 0
1, 121321, Note_on_c, 1, 72, 127
1, 121321, Note_on_c, 1, 45, 127
1, 121477, Note_off_c, 1, 72, 0
1, 121624, Note_off_c, 1, 45, 0
1, 121646, Note_on_c, 1, 74, 127
1, 121646, Note_on_c, 1, 46, 127
1, 121802, Note_off_c, 1, 74, 0
1, 121964, Note_off_c, 1, 46, 0
1, 121971, Note_on_c, 1, 76, 127
1, 121971, Note_on_c, 1, 48, 127
1, 122127, Note_off_c, 1, 76, 0
1, 122274, Note_off_c, 1, 48, 0
1, 122289, Note_off_c, 1, 53, 0
1, 122296, Note_on_c, 1, 77, 127
1, 122296, Note_on_c, 1, 50, 127
1, 122296, Note_on_c, 1, 58, 127
1, 122452, Note_off_c, 1, 77, 0
1, 122459, Note_on_c, 1, 76, 127
1, 122599, Note_off_c, 1, 50, 0
1, 122615, Note_off_c, 1, 76, 0
1, 122621, Note_on_c, 1, 79, 127
1, 122621, Note_on_c, 1, 52, 127
1, 122777, Note_off_c, 1, 79, 0
1, 122784, Note_on_c, 1, 69, 127
1, 122939, Note_off_c, 1, 58, 0
1, 122939, Note_off_c, 1, 52, 0
1, 122940, Note_off_c, 1, 69, 0
1, 122946, Note_on_c, 1, 70, 127
1, 122946, Note_on_c, 1, 48, 127
1, 122946, Note_on_c, 1, 64, 127
1, 123102, Note_off_c, 1, 70, 0
1, 123109, Note_on_c, 1, 67, 127
1, 123249, Note_off_c, 1, 48, 0
1, 123264, Note_off_c, 1, 64, 0
1, 123271, Note_on_c, 1, 53, 127
1, 123271, Note_on_c, 1, 65, 127
1, 123352, Note_off_c, 1, 67, 0
1, 123449, Note_on_c, 1, 69, 127
1, 123602, Note_off_c, 1, 53, 0
1, 123627, Note_on_c, 1, 46, 127
1, 123796, Note_off_c, 1, 69, 0
1, 123974, Note_off_c, 1, 65, 0
1, 123974, Note_off_c, 1, 46, 0
1, 123983, Note_on_c, 1, 69, 127
1, 123983, Note_on_c, 1, 48, 127
1, 123983, Note_on_c, 1, 64, 127
1, 124080, Note_off_c, 1, 69, 0
1, 124089, Note_on_c, 1, 67, 127
1, 124186, Note_off_c, 1, 67, 0
1, 124400, Note_off_c, 1, 48, 0
1, 124409, Note_on_c, 1, 36, 127
1, 124624, Note_on_c, 1, 65, 127
1, 124827, Note_off_c, 1, 64, 0
1, 124829, Note_off_c, 1, 36, 0
1, 124829, Note_off_c, 1, 65, 0
1, 124839, Note_on_c, 1, 65, 127
1, 124839, Note_on_c, 1, 41, 127
1, 127405, Note_off_c, 1, 65, 0
1, 127405, Note_off_c, 1, 41, 0
1, 127405, End_track
0, 0, End_of_file