0, 0, Header, 1, 1, 480
1, 0, Start_track
1, 0, Title_t, "Test"
1, 0, Tempo, 500000
1, 0, Instrument_name_t, "Church Organ"
1, 0, Note_on_c, 1, 78, 127
1, 0, Note_on_c, 1, 69, 127
1, 96, Note_off_c, 1, 69, 0
1, 120, Note_on_c, 1, 62, 127
1, 180, Note_off_c, 1, 78, 0
1, 216, Note_off_c, 1, 62, 0
1, 240, Note_on_c, 1, 78, 127
1, 240, Note_on_c, 1, 66, 127
1, 336, Note_off_c, 1, 66, 0
1, 360, Note_on_c, 1, 69, 127
1, 420, Note_off_c, 1, 78, 0
1, 456, Note_off_c, 1, 69, 0
1, 480, Note_on_c, 1, 79, 127
1, 480, Note_on_c, 1, 74, 127
1, 504, Note_off_c, 1, 79, 0
1, 510, Note_on_c, 1, 78, 127
1, 534, Note_off_c, 1, 78, 0
1, 576, Note_off_c, 1, 74, 0
1, 600, Note_on_c, 1, 62, 127
1, 696, Note_off_c, 1, 62, 0
1, 720, Note_on_c, 1, 72, 127
1, 816, Note_off_c, 1, 72, 0
1, 840, Note_on_c, 1, 76, 127
1, 840, Note_on_c, 1, 62, 127
1, 888, Note_off_c, 1, 76, 0
1, 900, Note_on_c, 1, 78, 127
1, 936, Note_off_c, 1, 62, 0
1, 948, Note_off_c, 1, 78, 0
1, 960, Note_on_c, 1, 79, 127
1, 960, Note_on_c, 1, 71, 127
1, 1056, Note_off_c, 1, 71, 0
1, 1080, Note_on_c, 1, 62, 127
1, 1140, Note_off_c, 1, 79, 0
1, 1176, Note_off_c, 1, 62, 0
1, 1200, Note_on_c, 1, 78, 127
1, 1200, Note_on_c, 1, 69, 127
1, 1296, Note_off_c, 1, 69, 0
1, 1320, Note_on_c, 1, 62, 127
1, 1380, Note_off_c, 1, 78, 0
1, 1416, Note_off_c, 1, 62, 0
1, 1440, Note_on_c, 1, 76, 127
1, 1440, Note_on_c, 1, 67, 127
1, 1536, Note_off_c, 1, 67, 0
1, 1560, Note_on_c, 1, 62, 127
1, 1656, Note_off_c, 1, 62, 0
1, 1680, Note_on_c, 1, 66, 127
1, 1776, Note_off_c, 1, 66, 0
1, 1824, Note_off_c, 1, 76, 0
1, 1920, Note_on_c, 1, 76, 127
1, 1920, Note_on_c, 1, 67, 127
1, 2016, Note_off_c, 1, 67, 0
1, 2040, Note_on_c, 1, 62, 127
1, 2100, Note_off_c, 1, 76, 0
1, 2136, Note_off_c, 1, 62, 0
1, 2160, Note_on_c, 1, 76, 127
1, 2160, Note_on_c, 1, 64, 127
1, 2256, Note_off_c, 1, 64, 0
1, 2280, Note_on_c, 1, 67, 127
1, 2340, Note_off_c, 1, 76, 0
1, 2376, Note_off_c, 1, 67, 0
1, 2400, Note_on_c, 1, 78, 127
1, 2400, Note_on_c, 1, 73, 127
1, 2424, Note_off_c, 1, 78, 0
1, 2430, Note_on_c, 1, 76, 127
1, 2454, Note_off_c, 1, 76, 0
1, 2496, Note_off_c, 1, 73, 0
1, 2520, Note_on_c, 1, 76, 127
1, 2520, Note_on_c, 1, 62, 127
1, 2616, Note_off_c, 1, 62, 0
1, 2640, Note_on_c, 1, 71, 127
1, 2712, Note_off_c, 1, 76, 0
1, 2736, Note_off_c, 1, 71, 0
1, 2760, Note_on_c, 1, 74, 127
1, 2760, Note_on_c, 1, 62, 127
1, 2808, Note_off_c, 1, 74, 0
1, 2820, Note_on_c, 1, 76, 127
1, 2856, Note_off_c, 1, 62, 0
1, 2868, Note_off_c, 1, 76, 0
1, 2880, Note_on_c, 1, 78, 127
1, 2880, Note_on_c, 1, 69, 127
1, 2976, Note_off_c, 1, 78, 0
1, 2976, Note_off_c, 1, 69, 0
1, 3000, Note_on_c, 1, 74, 127
1, 3000, Note_on_c, 1, 62, 127
1, 3096, Note_off_c, 1, 74, 0
1, 3096, Note_off_c, 1, 62, 0
1, 3120, Note_on_c, 1, 76, 127
1, 3120, Note_on_c, 1, 67, 127
1, 3216, Note_off_c, 1, 76, 0
1, 3216, Note_off_c, 1, 67, 0
1, 3240, Note_on_c, 1, 73, 127
1, 3240, Note_on_c, 1, 62, 127
1, 3336, Note_off_c, 1, 73, 0
1, 3336, Note_off_c, 1, 62, 0
1, 3360, Note_on_c, 1, 74, 127
1, 3360, Note_on_c, 1, 66, 127
1, 3456, Note_off_c, 1, 66, 0
1, 3480, Note_on_c, 1, 62, 127
1, 3552, Note_off_c, 1, 74, 0
1, 3576, Note_off_c, 1, 62, 0
1, 3600, Note_on_c, 1, 69, 127
1, 3600, Note_on_c, 1, 66, 127
1, 3696, Note_off_c, 1, 66, 0
1, 3720, Note_on_c, 1, 67, 127
1, 3792, Note_off_c, 1, 69, 0
1, 3816, Note_off_c, 1, 67, 0
1, 3840, Note_on_c, 1, 78, 127
1, 3840, Note_on_c, 1, 69, 127
1, 3936, Note_off_c, 1, 69, 0
1, 3960, Note_on_c, 1, 62, 127
1, 4020, Note_off_c, 1, 78, 0
1, 4056, Note_off_c, 1, 62, 0
1, 4080, Note_on_c, 1, 78, 127
1, 4080, Note_on_c, 1, 66, 127
1, 4176, Note_off_c, 1, 66, 0
1, 4200, Note_on_c, 1, 69, 127
1, 4260, Note_off_c, 1, 78, 0
1, 4296, Note_off_c, 1, 69, 0
1, 4320, Note_on_c, 1, 79, 127
1, 4320, Note_on_c, 1, 74, 127
1, 4344, Note_off_c, 1, 79, 0
1, 4350, Note_on_c, 1, 78, 127
1, 4374, Note_off_c, 1, 78, 0
1, 4416, Note_off_c, 1, 74, 0
1, 4440, Note_on_c, 1, 62, 127
1, 4536, Note_off_c, 1, 62, 0
1, 4560, Note_on_c, 1, 72, 127
1, 4656, Note_off_c, 1, 72, 0
1, 4680, Note_on_c, 1, 76, 127
1, 4680, Note_on_c, 1, 62, 127
1, 4728, Note_off_c, 1, 76, 0
1, 4740, Note_on_c, 1, 78, 127
1, 4776, Note_off_c, 1, 62, 0
1, 4788, Note_off_c, 1, 78, 0
1, 4800, Note_on_c, 1, 79, 127
1, 4800, Note_on_c, 1, 71, 127
1, 4896, Note_off_c, 1, 71, 0
1, 4920, Note_on_c, 1, 62, 127
1, 4980, Note_off_c, 1, 79, 0
1, 5016, Note_off_c, 1, 62, 0
1, 5040, Note_on_c, 1, 78, 127
1, 5040, Note_on_c, 1, 69, 127
1, 5136, Note_off_c, 1, 69, 0
1, 5160, Note_on_c, 1, 62, 127
1, 5220, Note_off_c, 1, 78, 0
1, 5256, Note_off_c, 1, 62, 0
1, 5280, Note_on_c, 1, 76, 127
1, 5280, Note_on_c, 1, 67, 127
1, 5376, Note_off_c, 1, 67, 0
1, 5400, Note_on_c, 1, 62, 127
1, 5472, Note_off_c, 1, 76, 0
1, 5496, Note_off_c, 1, 62, 0
1, 5520, Note_on_c, 1, 83, 127
1, 5520, Note_on_c, 1, 66, 127
1, 5616, Note_off_c, 1, 83, 0
1, 5616, Note_off_c, 1, 66, 0
1, 5640, Note_on_c, 1, 81, 127
1, 5640, Note_on_c, 1, 62, 127
1, 5736, Note_off_c, 1, 81, 0
1, 5736, Note_off_c, 1, 62, 0
1, 5760, Note_on_c, 1, 79, 127
1, 5760, Note_on_c, 1, 64, 127
1, 5856, Note_off_c, 1, 79, 0
1, 5856, Note_off_c, 1, 64, 0
1, 5880, Note_on_c, 1, 78, 127
1, 5880, Note_on_c, 1, 62, 127
1, 5976, Note_off_c, 1, 78, 0
1, 5976, Note_off_c, 1, 62, 0
1, 6000, Note_on_c, 1, 76, 127
1, 6000, Note_on_c, 1, 66, 127
1, 6096, Note_off_c, 1, 76, 0
1, 6096, Note_off_c, 1, 66, 0
1, 6120, Note_on_c, 1, 74, 127
1, 6120, Note_on_c, 1, 62, 127
1, 6216, Note_off_c, 1, 74, 0
1, 6216, Note_off_c, 1, 62, 0
1, 6240, Note_on_c, 1, 73, 127
1, 6240, Note_on_c, 1, 67, 127
1, 6336, Note_off_c, 1, 73, 0
1, 6336, Note_off_c, 1, 67, 0
1, 6360, Note_on_c, 1, 71, 127
1, 6360, Note_on_c, 1, 62, 127
1, 6456, Note_off_c, 1, 71, 0
1, 6456, Note_off_c, 1, 62, 0
1, 6480, Note_on_c, 1, 69, 127
1, 6480, Note_on_c, 1, 66, 127
1, 6576, Note_off_c, 1, 69, 0
1, 6576, Note_off_c, 1, 66, 0
1, 6600, Note_on_c, 1, 71, 127
1, 6600, Note_on_c, 1, 62, 127
1, 6696, Note_off_c, 1, 71, 0
1, 6696, Note_off_c, 1, 62, 0
1, 6720, Note_on_c, 1, 73, 127
1, 6720, Note_on_c, 1, 64, 127
1, 6816, Note_off_c, 1, 73, 0
1, 6816, Note_off_c, 1, 64, 0
1, 6840, Note_on_c, 1, 74, 127
1, 6840, Note_on_c, 1, 62, 127
1, 6936, Note_off_c, 1, 74, 0
1, 6936, Note_off_c, 1, 62, 0
1, 6960, Note_on_c, 1, 76, 127
1, 6960, Note_on_c, 1, 67, 127
1, 7056, Note_off_c, 1, 76, 0
1, 7056, Note_off_c, 1, 67, 0
1, 7080, Note_on_c, 1, 73, 127
1, 7080, Note_on_c, 1, 62, 127
1, 7176, Note_off_c, 1, 73, 0
1, 7176, Note_off_c, 1, 62, 0
1, 7200, Note_on_c, 1, 74, 127
1, 7200, Note_on_c, 1, 66, 127
1, 7296, Note_off_c, 1, 66, 0
1, 7320, Note_on_c, 1, 62, 127
1, 7416, Note_off_c, 1, 62, 0
1, 7560, Note_on_c, 1, 67, 127
1, 7584, Note_off_c, 1, 74, 0
1, 7656, Note_off_c, 1, 67, 0
1, 7680, Note_on_c, 1, 78, 127
1, 7680, Note_on_c, 1, 69, 127
1, 7776, Note_off_c, 1, 69, 0
1, 7800, Note_on_c, 1, 62, 127
1, 7860, Note_off_c, 1, 78, 0
1, 7896, Note_off_c, 1, 62, 0
1, 7920, Note_on_c, 1, 78, 127
1, 7920, Note_on_c, 1, 66, 127
1, 8016, Note_off_c, 1, 66, 0
1, 8040, Note_on_c, 1, 69, 127
1, 8100, Note_off_c, 1, 78, 0
1, 8136, Note_off_c, 1, 69, 0
1, 8160, Note_on_c, 1, 79, 127
1, 8160, Note_on_c, 1, 74, 127
1, 8184, Note_off_c, 1, 79, 0
1, 8190, Note_on_c, 1, 78, 127
1, 8214, Note_off_c, 1, 78, 0
1, 8256, Note_off_c, 1, 74, 0
1, 8280, Note_on_c, 1, 62, 127
1, 8376, Note_off_c, 1, 62, 0
1, 8400, Note_on_c, 1, 72, 127
1, 8496, Note_off_c, 1, 72, 0
1, 8520, Note_on_c, 1, 76, 127
1, 8520, Note_on_c, 1, 62, 127
1, 8568, Note_off_c, 1, 76, 0
1, 8580, Note_on_c, 1, 78, 127
1, 8616, Note_off_c, 1, 62, 0
1, 8628, Note_off_c, 1, 78, 0
1, 8640, Note_on_c, 1, 79, 127
1, 8640, Note_on_c, 1, 71, 127
1, 8736, Note_off_c, 1, 71, 0
1, 8760, Note_on_c, 1, 62, 127
1, 8820, Note_off_c, 1, 79, 0
1, 8856, Note_off_c, 1, 62, 0
1, 8880, Note_on_c, 1, 78, 127
1, 8880, Note_on_c, 1, 69, 127
1, 8976, Note_off_c, 1, 69, 0
1, 9000, Note_on_c, 1, 62, 127
1, 9060, Note_off_c, 1, 78, 0
1, 9096, Note_off_c, 1, 62, 0
1, 9120, Note_on_c, 1, 76, 127
1, 9120, Note_on_c, 1, 67, 127
1, 9216, Note_off_c, 1, 67, 0
1, 9240, Note_on_c, 1, 62, 127
1, 9336, Note_off_c, 1, 62, 0
1, 9360, Note_on_c, 1, 66, 127
1, 9456, Note_off_c, 1, 66, 0
1, 9504, Note_off_c, 1, 76, 0
1, 9600, Note_on_c, 1, 76, 127
1, 9600, Note_on_c, 1, 67, 127
1, 9696, Note_off_c, 1, 67, 0
1, 9720, Note_on_c, 1, 62, 127
1, 9780, Note_off_c, 1, 76, 0
1, 9816, Note_off_c, 1, 62, 0
1, 9840, Note_on_c, 1, 76, 127
1, 9840, Note_on_c, 1, 64, 127
1, 9936, Note_off_c, 1, 64, 0
1, 9960, Note_on_c, 1, 67, 127
1, 10020, Note_off_c, 1, 76, 0
1, 10056, Note_off_c, 1, 67, 0
1, 10080, Note_on_c, 1, 78, 127
1, 10080, Note_on_c, 1, 73, 127
1, 10104, Note_off_c, 1, 78, 0
1, 10110, Note_on_c, 1, 76, 127
1, 10134, Note_off_c, 1, 76, 0
1, 10176, Note_off_c, 1, 73, 0
1, 10200, Note_on_c, 1, 76, 127
1, 10200, Note_on_c, 1, 62, 127
1, 10296, Note_off_c, 1, 62, 0
1, 10320, Note_on_c, 1, 71, 127
1, 10392, Note_off_c, 1, 76, 0
1, 10416, Note_off_c, 1, 71, 0
1, 10440, Note_on_c, 1, 74, 127
1, 10440, Note_on_c, 1, 62, 127
1, 10488, Note_off_c, 1, 74, 0
1, 10500, Note_on_c, 1, 76, 127
1, 10536, Note_off_c, 1, 62, 0
1, 10548, Note_off_c, 1, 76, 0
1, 10560, Note_on_c, 1, 78, 127
1, 10560, Note_on_c, 1, 69, 127
1, 10656, Note_off_c, 1, 78, 0
1, 10656, Note_off_c, 1, 69, 0
1, 10680, Note_on_c, 1, 74, 127
1, 10680, Note_on_c, 1, 62, 127
1, 10776, Note_off_c, 1, 74, 0
1, 10776, Note_off_c, 1, 62, 0
1, 10800, Note_on_c, 1, 76, 127
1, 10800, Note_on_c, 1, 67, 127
1, 10896, Note_off_c, 1, 76, 0
1, 10896, Note_off_c, 1, 67, 0
1, 10920, Note_on_c, 1, 73, 127
1, 10920, Note_on_c, 1, 62, 127
1, 11016, Note_off_c, 1, 73, 0
1, 11016, Note_off_c, 1, 62, 0
1, 11040, Note_on_c, 1, 74, 127
1, 11040, Note_on_c, 1, 66, 127
1, 11136, Note_off_c, 1, 66, 0
1, 11160, Note_on_c, 1, 62, 127
1, 11232, Note_off_c, 1, 74, 0
1, 11256, Note_off_c, 1, 62, 0
1, 11280, Note_on_c, 1, 69, 127
1, 11280, Note_on_c, 1, 66, 127
1, 11376, Note_off_c, 1, 66, 0
1, 11400, Note_on_c, 1, 67, 127
1, 11472, Note_off_c, 1, 69, 0
1, 11496, Note_off_c, 1, 67, 0
1, 11520, Note_on_c, 1, 78, 127
1, 11520, Note_on_c, 1, 69, 127
1, 11616, Note_off_c, 1, 69, 0
1, 11640, Note_on_c, 1, 62, 127
1, 11700, Note_off_c, 1, 78, 0
1, 11736, Note_off_c, 1, 62, 0
1, 11760, Note_on_c, 1, 78, 127
1, 11760, Note_on_c, 1, 66, 127
1, 11856, Note_off_c, 1, 66, 0
1, 11880, Note_on_c, 1, 69, 127
1, 11940, Note_off_c, 1, 78, 0
1, 11976, Note_off_c, 1, 69, 0
1, 12000, Note_on_c, 1, 79, 127
1, 12000, Note_on_c, 1, 74, 127
1, 12024, Note_off_c, 1, 79, 0
1, 12030, Note_on_c, 1, 78, 127
1, 12054, Note_off_c, 1, 78, 0
1, 12096, Note_off_c, 1, 74, 0
1, 12120, Note_on_c, 1, 62, 127
1, 12216, Note_off_c, 1, 62, 0
1, 12240, Note_on_c, 1, 72, 127
1, 12336, Note_off_c, 1, 72, 0
1, 12360, Note_on_c, 1, 76, 127
1, 12360, Note_on_c, 1, 62, 127
1, 12408, Note_off_c, 1, 76, 0
1, 12420, Note_on_c, 1, 78, 127
1, 12456, Note_off_c, 1, 62, 0
1, 12468, Note_off_c, 1, 78, 0
1, 12480, Note_on_c, 1, 79, 127
1, 12480, Note_on_c, 1, 71, 127
1, 12576, Note_off_c, 1, 71, 0
1, 12600, Note_on_c, 1, 62, 127
1, 12660, Note_off_c, 1, 79, 0
1, 12696, Note_off_c, 1, 62, 0
1, 12720, Note_on_c, 1, 78, 127
1, 12720, Note_on_c, 1, 69, 127
1, 12816, Note_off_c, 1, 69, 0
1, 12840, Note_on_c, 1, 62, 127
1, 12900, Note_off_c, 1, 78, 0
1, 12936, Note_off_c, 1, 62, 0
1, 12960, Note_on_c, 1, 76, 127
1, 12960, Note_on_c, 1, 67, 127
1, 13056, Note_off_c, 1, 67, 0
1, 13080, Note_on_c, 1, 62, 127
1, 13152, Note_off_c, 1, 76, 0
1, 13176, Note_off_c, 1, 62, 0
1, 13200, Note_on_c, 1, 83, 127
1, 13200, Note_on_c, 1, 66, 127
1, 13296, Note_off_c, 1, 83, 0
1, 13296, Note_off_c, 1, 66, 0
1, 13320, Note_on_c, 1, 81, 127
1, 13320, Note_on_c, 1, 62, 127
1, 13416, Note_off_c, 1, 81, 0
1, 13416, Note_off_c, 1, 62, 0
1, 13440, Note_on_c, 1, 79, 127
1, 13440, Note_on_c, 1, 64, 127
1, 13536, Note_off_c, 1, 79, 0
1, 13536, Note_off_c, 1, 64, 0
1, 13560, Note_on_c, 1, 78, 127
1, 13560, Note_on_c, 1, 62, 127
1, 13656, Note_off_c, 1, 78, 0
1, 13656, Note_off_c, 1, 62, 0
1, 13680, Note_on_c, 1, 76, 127
1, 13680, Note_on_c, 1, 66, 127
1, 13776, Note_off_c, 1, 76, 0
1, 13776, Note_off_c, 1, 66, 0
1, 13800, Note_on_c, 1, 74, 127
1, 13800, Note_on_c, 1, 62, 127
1, 13896, Note_off_c, 1, 74, 0
1, 13896, Note_off_c, 1, 62, 0
1, 13920, Note_on_c, 1, 73, 127
1, 13920, Note_on_c, 1, 67, 127
1, 14016, Note_off_c, 1, 73, 0
1, 14016, Note_off_c, 1, 67, 0
1, 14040, Note_on_c, 1, 71, 127
1, 14040, Note_on_c, 1, 62, 127
1, 14136, Note_off_c, 1, 71, 0
1, 14136, Note_off_c, 1, 62, 0
1, 14160, Note_on_c, 1, 69, 127
1, 14160, Note_on_c, 1, 66, 127
1, 14256, Note_off_c, 1, 69, 0
1, 14256, Note_off_c, 1, 66, 0
1, 14280, Note_on_c, 1, 71, 127
1, 14280, Note_on_c, 1, 62, 127
1, 14376, Note_off_c, 1, 71, 0
1, 14376, Note_off_c, 1, 62, 0
1, 14400, Note_on_c, 1, 73, 127
1, 14400, Note_on_c, 1, 64, 127
1, 14496, Note_off_c, 1, 73, 0
1, 14496, Note_off_c, 1, 64, 0
1, 14520, Note_on_c, 1, 74, 127
1, 14520, Note_on_c, 1, 62, 127
1, 14616, Note_off_c, 1, 74, 0
1, 14616, Note_off_c, 1, 62, 0
1, 14640, Note_on_c, 1, 76, 127
1, 14640, Note_on_c, 1, 67, 127
1, 14736, Note_off_c, 1, 76, 0
1, 14736, Note_off_c, 1, 67, 0
1, 14760, Note_on_c, 1, 73, 127
1, 14760, Note_on_c, 1, 62, 127
1, 14856, Note_off_c, 1, 73, 0
1, 14856, Note_off_c, 1, 62, 0
1, 14880, Note_on_c, 1, 74, 127
1, 14880, Note_on_c, 1, 66, 127
1, 14976, Note_off_c, 1, 66, 0
1, 15000, Note_on_c, 1, 62, 127
1, 15096, Note_off_c, 1, 62, 0
1, 15120, Note_on_c, 1, 64, 127
1, 15216, Note_off_c, 1, 64, 0
1, 15264, Note_off_c, 1, 74, 0
1, 15360, Note_on_c, 1, 81, 127
1, 15360, Note_on_c, 1, 66, 127
1, 15456, Note_off_c, 1, 66, 0
1, 15480, Note_on_c, 1, 62, 127
1, 15540, Note_off_c, 1, 81, 0
1, 15576, Note_off_c, 1, 62, 0
1, 15600, Note_on_c, 1, 81, 127
1, 15600, Note_on_c, 1, 66, 127
1, 15696, Note_off_c, 1, 66, 0
1, 15720, Note_on_c, 1, 69, 127
1, 15780, Note_off_c, 1, 81, 0
1, 15816, Note_off_c, 1, 69, 0
1, 15840, Note_on_c, 1, 83, 127
1, 15840, Note_on_c, 1, 74, 127
1, 15864, Note_off_c, 1, 83, 0
1, 15870, Note_on_c, 1, 81, 127
1, 15894, Note_off_c, 1, 81, 0
1, 15936, Note_off_c, 1, 74, 0
1, 15960, Note_on_c, 1, 83, 127
1, 15960, Note_on_c, 1, 69, 127
1, 15984, Note_off_c, 1, 83, 0
1, 15990, Note_on_c, 1, 81, 127
1, 16014, Note_off_c, 1, 81, 0
1, 16056, Note_off_c, 1, 69, 0
1, 16080, Note_on_c, 1, 83, 127
1, 16080, Note_on_c, 1, 66, 127
1, 16104, Note_off_c, 1, 83, 0
1, 16110, Note_on_c, 1, 81, 127
1, 16134, Note_off_c, 1, 81, 0
1, 16176, Note_off_c, 1, 66, 0
1, 16200, Note_on_c, 1, 79, 127
1, 16200, Note_on_c, 1, 62, 127
1, 16248, Note_off_c, 1, 79, 0
1, 16260, Note_on_c, 1, 81, 127
1, 16296, Note_off_c, 1, 62, 0
1, 16308, Note_off_c, 1, 81, 0
1, 16320, Note_on_c, 1, 83, 127
1, 16320, Note_on_c, 1, 67, 127
1, 16416, Note_off_c, 1, 83, 0
1, 16416, Note_off_c, 1, 67, 0
1, 16440, Note_on_c, 1, 81, 127
1, 16440, Note_on_c, 1, 62, 127
1, 16536, Note_off_c, 1, 81, 0
1, 16536, Note_off_c, 1, 62, 0
1, 16560, Note_on_c, 1, 79, 127
1, 16560, Note_on_c, 1, 69, 127
1, 16656, Note_off_c, 1, 79, 0
1, 16656, Note_off_c, 1, 69, 0
1, 16680, Note_on_c, 1, 78, 127
1, 16680, Note_on_c, 1, 62, 127
1, 16776, Note_off_c, 1, 78, 0
1, 16776, Note_off_c, 1, 62, 0
1, 16800, Note_on_c, 1, 79, 127
1, 16800, Note_on_c, 1, 71, 127
1, 16896, Note_off_c, 1, 71, 0
1, 16920, Note_on_c, 1, 62, 127
1, 16992, Note_off_c, 1, 79, 0
1, 17016, Note_off_c, 1, 62, 0
1, 17040, Note_on_c, 1, 74, 127
1, 17040, Note_on_c, 1, 72, 127
1, 17136, Note_off_c, 1, 72, 0
1, 17160, Note_on_c, 1, 62, 127
1, 17232, Note_off_c, 1, 74, 0
1, 17256, Note_off_c, 1, 62, 0
1, 17280, Note_on_c, 1, 79, 127
1, 17280, Note_on_c, 1, 71, 127
1, 17376, Note_off_c, 1, 71, 0
1, 17400, Note_on_c, 1, 62, 127
1, 17460, Note_off_c, 1, 79, 0
1, 17496, Note_off_c, 1, 62, 0
1, 17520, Note_on_c, 1, 81, 127
1, 17520, Note_on_c, 1, 69, 127
1, 17616, Note_off_c, 1, 69, 0
1, 17640, Note_on_c, 1, 62, 127
1, 17700, Note_off_c, 1, 81, 0
1, 17736, Note_off_c, 1, 62, 0
1, 17760, Note_on_c, 1, 83, 127
1, 17760, Note_on_c, 1, 67, 127
1, 17856, Note_off_c, 1, 83, 0
1, 17856, Note_off_c, 1, 67, 0
1, 17880, Note_on_c, 1, 84, 127
1, 17880, Note_on_c, 1, 62, 127
1, 17976, Note_off_c, 1, 84, 0
1, 17976, Note_off_c, 1, 62, 0
1, 18000, Note_on_c, 1, 83, 127
1, 18000, Note_on_c, 1, 69, 127
1, 18096, Note_off_c, 1, 83, 0
1, 18096, Note_off_c, 1, 69, 0
1, 18120, Note_on_c, 1, 81, 127
1, 18120, Note_on_c, 1, 62, 127
1, 18216, Note_off_c, 1, 81, 0
1, 18216, Note_off_c, 1, 62, 0
1, 18240, Note_on_c, 1, 79, 127
1, 18240, Note_on_c, 1, 71, 127
1, 18336, Note_off_c, 1, 79, 0
1, 18336, Note_off_c, 1, 71, 0
1, 18360, Note_on_c, 1, 78, 127
1, 18360, Note_on_c, 1, 62, 127
1, 18456, Note_off_c, 1, 78, 0
1, 18456, Note_off_c, 1, 62, 0
1, 18480, Note_on_c, 1, 76, 127
1, 18480, Note_on_c, 1, 72, 127
1, 18576, Note_off_c, 1, 76, 0
1, 18576, Note_off_c, 1, 72, 0
1, 18600, Note_on_c, 1, 74, 127
1, 18600, Note_on_c, 1, 62, 127
1, 18696, Note_off_c, 1, 74, 0
1, 18696, Note_off_c, 1, 62, 0
1, 18720, Note_on_c, 1, 79, 127
1, 18720, Note_on_c, 1, 71, 127
1, 18816, Note_off_c, 1, 71, 0
1, 18840, Note_on_c, 1, 62, 127
1, 18936, Note_off_c, 1, 62, 0
1, 18960, Note_on_c, 1, 69, 127
1, 19056, Note_off_c, 1, 69, 0
1, 19104, Note_off_c, 1, 79, 0
1, 19200, Note_on_c, 1, 76, 127
1, 19200, Note_on_c, 1, 67, 127
1, 19296, Note_off_c, 1, 67, 0
1, 19320, Note_on_c, 1, 62, 127
1, 19380, Note_off_c, 1, 76, 0
1, 19416, Note_off_c, 1, 62, 0
1, 19440, Note_on_c, 1, 76, 127
1, 19440, Note_on_c, 1, 66, 127
1, 19536, Note_off_c, 1, 66, 0
1, 19560, Note_on_c, 1, 62, 127
1, 19620, Note_off_c, 1, 76, 0
1, 19656, Note_off_c, 1, 62, 0
1, 19680, Note_on_c, 1, 76, 127
1, 19680, Note_on_c, 1, 67, 127
1, 19776, Note_off_c, 1, 67, 0
1, 19800, Note_on_c, 1, 62, 127
1, 19896, Note_off_c, 1, 62, 0
1, 19920, Note_on_c, 1, 69, 127
1, 19968, Note_off_c, 1, 76, 0
1, 20016, Note_off_c, 1, 69, 0
1, 20040, Note_on_c, 1, 78, 127
1, 20040, Note_on_c, 1, 62, 127
1, 20136, Note_off_c, 1, 78, 0
1, 20136, Note_off_c, 1, 62, 0
1, 20160, Note_on_c, 1, 79, 127
1, 20160, Note_on_c, 1, 71, 127
1, 20256, Note_off_c, 1, 79, 0
1, 20256, Note_off_c, 1, 71, 0
1, 20280, Note_on_c, 1, 81, 127
1, 20280, Note_on_c, 1, 62, 127
1, 20376, Note_off_c, 1, 81, 0
1, 20376, Note_off_c, 1, 62, 0
1, 20400, Note_on_c, 1, 79, 127
1, 20400, Note_on_c, 1, 69, 127
1, 20496, Note_off_c, 1, 79, 0
1, 20496, Note_off_c, 1, 69, 0
1, 20520, Note_on_c, 1, 78, 127
1, 20520, Note_on_c, 1, 62, 127
1, 20616, Note_off_c, 1, 78, 0
1, 20616, Note_off_c, 1, 62, 0
1, 20640, Note_on_c, 1, 76, 127
1, 20640, Note_on_c, 1, 67, 127
1, 20736, Note_off_c, 1, 76, 0
1, 20736, Note_off_c, 1, 67, 0
1, 20760, Note_on_c, 1, 74, 127
1, 20760, Note_on_c, 1, 62, 127
1, 20856, Note_off_c, 1, 74, 0
1, 20856, Note_off_c, 1, 62, 0
1, 20880, Note_on_c, 1, 73, 127
1, 20880, Note_on_c, 1, 71, 127
1, 20976, Note_off_c, 1, 73, 0
1, 20976, Note_off_c, 1, 71, 0
1, 21000, Note_on_c, 1, 74, 127
1, 21000, Note_on_c, 1, 62, 127
1, 21096, Note_off_c, 1, 74, 0
1, 21096, Note_off_c, 1, 62, 0
1, 21120, Note_on_c, 1, 76, 127
1, 21120, Note_on_c, 1, 69, 127
1, 21216, Note_off_c, 1, 76, 0
1, 21216, Note_off_c, 1, 69, 0
1, 21240, Note_on_c, 1, 78, 127
1, 21240, Note_on_c, 1, 62, 127
1, 21336, Note_off_c, 1, 78, 0
1, 21336, Note_off_c, 1, 62, 0
1, 21360, Note_on_c, 1, 79, 127
1, 21360, Note_on_c, 1, 67, 127
1, 21456, Note_off_c, 1, 79, 0
1, 21456, Note_off_c, 1, 67, 0
1, 21480, Note_on_c, 1, 83, 127
1, 21480, Note_on_c, 1, 62, 127
1, 21576, Note_off_c, 1, 83, 0
1, 21576, Note_off_c, 1, 62, 0
1, 21600, Note_on_c, 1, 81, 127
1, 21600, Note_on_c, 1, 66, 127
1, 21696, Note_off_c, 1, 81, 0
1, 21696, Note_off_c, 1, 66, 0
1, 21720, Note_on_c, 1, 79, 127
1, 21720, Note_on_c, 1, 62, 127
1, 21816, Note_off_c, 1, 79, 0
1, 21816, Note_off_c, 1, 62, 0
1, 21840, Note_on_c, 1, 78, 127
1, 21840, Note_on_c, 1, 67, 127
1, 21936, Note_off_c, 1, 78, 0
1, 21936, Note_off_c, 1, 67, 0
1, 21960, Note_on_c, 1, 76, 127
1, 21960, Note_on_c, 1, 62, 127
1, 22056, Note_off_c, 1, 76, 0
1, 22056, Note_off_c, 1, 62, 0
1, 22080, Note_on_c, 1, 78, 127
1, 22080, Note_on_c, 1, 69, 127
1, 22128, Note_off_c, 1, 78, 0
1, 22140, Note_on_c, 1, 81, 127
1, 22176, Note_off_c, 1, 69, 0
1, 22188, Note_off_c, 1, 81, 0
1, 22200, Note_on_c, 1, 78, 127
1, 22200, Note_on_c, 1, 62, 127
1, 22248, Note_off_c, 1, 78, 0
1, 22260, Note_on_c, 1, 81, 127
1, 22296, Note_off_c, 1, 62, 0
1, 22308, Note_off_c, 1, 81, 0
1, 22320, Note_on_c, 1, 78, 127
1, 22320, Note_on_c, 1, 71, 127
1, 22368, Note_off_c, 1, 78, 0
1, 22380, Note_on_c, 1, 81, 127
1, 22416, Note_off_c, 1, 71, 0
1, 22428, Note_off_c, 1, 81, 0
1, 22440, Note_on_c, 1, 78, 127
1, 22440, Note_on_c, 1, 62, 127
1, 22488, Note_off_c, 1, 78, 0
1, 22500, Note_on_c, 1, 81, 127
1, 22536, Note_off_c, 1, 62, 0
1, 22548, Note_off_c, 1, 81, 0
1, 22560, Note_on_c, 1, 76, 127
1, 22560, Note_on_c, 1, 73, 127
1, 22656, Note_off_c, 1, 73, 0
1, 22680, Note_on_c, 1, 62, 127
1, 22776, Note_off_c, 1, 62, 0
1, 22800, Note_on_c, 1, 67, 127
1, 22896, Note_off_c, 1, 67, 0
1, 22944, Note_off_c, 1, 76, 0
1, 23040, Note_on_c, 1, 78, 127
1, 23040, Note_on_c, 1, 74, 127
1, 23136, Note_off_c, 1, 74, 0
1, 23160, Note_on_c, 1, 69, 127
1, 23220, Note_off_c, 1, 78, 0
1, 23256, Note_off_c, 1, 69, 0
1, 23280, Note_on_c, 1, 78, 127
1, 23280, Note_on_c, 1, 62, 127
1, 23376, Note_off_c, 1, 62, 0
1, 23400, Note_on_c, 1, 69, 127
1, 23460, Note_off_c, 1, 78, 0
1, 23496, Note_off_c, 1, 69, 0
1, 23520, Note_on_c, 1, 79, 127
1, 23520, Note_on_c, 1, 74, 127
1, 23544, Note_off_c, 1, 79, 0
1, 23550, Note_on_c, 1, 78, 127
1, 23574, Note_off_c, 1, 78, 0
1, 23616, Note_off_c, 1, 74, 0
1, 23640, Note_on_c, 1, 79, 127
1, 23640, Note_on_c, 1, 62, 127
1, 23664, Note_off_c, 1, 79, 0
1, 23670, Note_on_c, 1, 78, 127
1, 23694, Note_off_c, 1, 78, 0
1, 23736, Note_off_c, 1, 62, 0
1, 23760, Note_on_c, 1, 79, 127
1, 23760, Note_on_c, 1, 72, 127
1, 23784, Note_off_c, 1, 79, 0
1, 23790, Note_on_c, 1, 78, 127
1, 23814, Note_off_c, 1, 78, 0
1, 23856, Note_off_c, 1, 72, 0
1, 23880, Note_on_c, 1, 76, 127
1, 23880, Note_on_c, 1, 62, 127
1, 23928, Note_off_c, 1, 76, 0
1, 23940, Note_on_c, 1, 78, 127
1, 23976, Note_off_c, 1, 62, 0
1, 23988, Note_off_c, 1, 78, 0
1, 24000, Note_on_c, 1, 79, 127
1, 24000, Note_on_c, 1, 71, 127
1, 24096, Note_off_c, 1, 71, 0
1, 24120, Note_on_c, 1, 62, 127
1, 24180, Note_off_c, 1, 79, 0
1, 24216, Note_off_c, 1, 62, 0
1, 24240, Note_on_c, 1, 74, 127
1, 24240, Note_on_c, 1, 69, 127
1, 24336, Note_off_c, 1, 69, 0
1, 24360, Note_on_c, 1, 62, 127
1, 24420, Note_off_c, 1, 74, 0
1, 24456, Note_off_c, 1, 62, 0
1, 24480, Note_on_c, 1, 76, 127
1, 24480, Note_on_c, 1, 67, 127
1, 24576, Note_off_c, 1, 67, 0
1, 24600, Note_on_c, 1, 62, 127
1, 24696, Note_off_c, 1, 62, 0
1, 24720, Note_on_c, 1, 66, 127
1, 24816, Note_off_c, 1, 66, 0
1, 24864, Note_off_c, 1, 76, 0
1, 24960, Note_on_c, 1, 76, 127
1, 24960, Note_on_c, 1, 67, 127
1, 25056, Note_off_c, 1, 67, 0
1, 25080, Note_on_c, 1, 62, 127
1, 25140, Note_off_c, 1, 76, 0
1, 25176, Note_off_c, 1, 62, 0
1, 25200, Note_on_c, 1, 76, 127
1, 25200, Note_on_c, 1, 64, 127
1, 25296, Note_off_c, 1, 64, 0
1, 25320, Note_on_c, 1, 67, 127
1, 25380, Note_off_c, 1, 76, 0
1, 25416, Note_off_c, 1, 67, 0
1, 25440, Note_on_c, 1, 78, 127
1, 25440, Note_on_c, 1, 73, 127
1, 25464, Note_off_c, 1, 78, 0
1, 25470, Note_on_c, 1, 76, 127
1, 25494, Note_off_c, 1, 76, 0
1, 25536, Note_off_c, 1, 73, 0
1, 25560, Note_on_c, 1, 78, 127
1, 25560, Note_on_c, 1, 62, 127
1, 25584, Note_off_c, 1, 78, 0
1, 25590, Note_on_c, 1, 76, 127
1, 25614, Note_off_c, 1, 76, 0
1, 25656, Note_off_c, 1, 62, 0
1, 25680, Note_on_c, 1, 78, 127
1, 25680, Note_on_c, 1, 71, 127
1, 25704, Note_off_c, 1, 78, 0
1, 25710, Note_on_c, 1, 76, 127
1, 25734, Note_off_c, 1, 76, 0
1, 25776, Note_off_c, 1, 71, 0
1, 25800, Note_on_c, 1, 74, 127
1, 25800, Note_on_c, 1, 62, 127
1, 25848, Note_off_c, 1, 74, 0
1, 25860, Note_on_c, 1, 76, 127
1, 25896, Note_off_c, 1, 62, 0
1, 25908, Note_off_c, 1, 76, 0
1, 25920, Note_on_c, 1, 78, 127
1, 25920, Note_on_c, 1, 69, 127
1, 26016, Note_off_c, 1, 78, 0
1, 26016, Note_off_c, 1, 69, 0
1, 26040, Note_on_c, 1, 74, 127
1, 26040, Note_on_c, 1, 62, 127
1, 26136, Note_off_c, 1, 74, 0
1, 26136, Note_off_c, 1, 62, 0
1, 26160, Note_on_c, 1, 76, 127
1, 26160, Note_on_c, 1, 67, 127
1, 26256, Note_off_c, 1, 76, 0
1, 26256, Note_off_c, 1, 67, 0
1, 26280, Note_on_c, 1, 73, 127
1, 26280, Note_on_c, 1, 62, 127
1, 26376, Note_off_c, 1, 73, 0
1, 26376, Note_off_c, 1, 62, 0
1, 26400, Note_on_c, 1, 74, 127
1, 26400, Note_on_c, 1, 66, 127
1, 26496, Note_off_c, 1, 74, 0
1, 26496, Note_off_c, 1, 66, 0
1, 26520, Note_on_c, 1, 69, 127
1, 26520, Note_on_c, 1, 62, 127
1, 26616, Note_off_c, 1, 69, 0
1, 26616, Note_off_c, 1, 62, 0
1, 26640, Note_on_c, 1, 74, 127
1, 26640, Note_on_c, 1, 66, 127
1, 26736, Note_off_c, 1, 74, 0
1, 26736, Note_off_c, 1, 66, 0
1, 26760, Note_on_c, 1, 76, 127
1, 26760, Note_on_c, 1, 67, 127
1, 26856, Note_off_c, 1, 76, 0
1, 26856, Note_off_c, 1, 67, 0
1, 26880, Note_on_c, 1, 78, 127
1, 26880, Note_on_c, 1, 69, 127
1, 26976, Note_off_c, 1, 69, 0
1, 27000, Note_on_c, 1, 62, 127
1, 27060, Note_off_c, 1, 78, 0
1, 27096, Note_off_c, 1, 62, 0
1, 27120, Note_on_c, 1, 78, 127
1, 27120, Note_on_c, 1, 66, 127
1, 27216, Note_off_c, 1, 66, 0
1, 27240, Note_on_c, 1, 69, 127
1, 27300, Note_off_c, 1, 78, 0
1, 27336, Note_off_c, 1, 69, 0
1, 27360, Note_on_c, 1, 79, 127
1, 27360, Note_on_c, 1, 74, 127
1, 27384, Note_off_c, 1, 79, 0
1, 27390, Note_on_c, 1, 78, 127
1, 27414, Note_off_c, 1, 78, 0
1, 27456, Note_off_c, 1, 74, 0
1, 27480, Note_on_c, 1, 62, 127
1, 27576, Note_off_c, 1, 62, 0
1, 27600, Note_on_c, 1, 69, 127
1, 27696, Note_off_c, 1, 69, 0
1, 27720, Note_on_c, 1, 76, 127
1, 27720, Note_on_c, 1, 62, 127
1, 27768, Note_off_c, 1, 76, 0
1, 27780, Note_on_c, 1, 78, 127
1, 27816, Note_off_c, 1, 62, 0
1, 27828, Note_off_c, 1, 78, 0
1, 27840, Note_on_c, 1, 79, 127
1, 27840, Note_on_c, 1, 71, 127
1, 27936, Note_off_c, 1, 79, 0
1, 27936, Note_off_c, 1, 71, 0
1, 27960, Note_on_c, 1, 78, 127
1, 27960, Note_on_c, 1, 62, 127
1, 28056, Note_off_c, 1, 78, 0
1, 28056, Note_off_c, 1, 62, 0
1, 28080, Note_on_c, 1, 76, 127
1, 28080, Note_on_c, 1, 66, 127
1, 28176, Note_off_c, 1, 76, 0
1, 28176, Note_off_c, 1, 66, 0
1, 28200, Note_on_c, 1, 74, 127
1, 28200, Note_on_c, 1, 62, 127
1, 28296, Note_off_c, 1, 74, 0
1, 28296, Note_off_c, 1, 62, 0
1, 28320, Note_on_c, 1, 83, 127
1, 28320, Note_on_c, 1, 68, 127
1, 28416, Note_off_c, 1, 83, 0
1, 28416, Note_off_c, 1, 68, 0
1, 28440, Note_on_c, 1, 81, 127
1, 28440, Note_on_c, 1, 62, 127
1, 28536, Note_off_c, 1, 81, 0
1, 28536, Note_off_c, 1, 62, 0
1, 28560, Note_on_c, 1, 80, 127
1, 28560, Note_on_c, 1, 69, 127
1, 28656, Note_off_c, 1, 80, 0
1, 28656, Note_off_c, 1, 69, 0
1, 28680, Note_on_c, 1, 78, 127
1, 28680, Note_on_c, 1, 62, 127
1, 28776, Note_off_c, 1, 78, 0
1, 28776, Note_off_c, 1, 62, 0
1, 28800, Note_on_c, 1, 80, 127
1, 28800, Note_on_c, 1, 71, 127
1, 28896, Note_off_c, 1, 80, 0
1, 28896, Note_off_c, 1, 71, 0
1, 28920, Note_on_c, 1, 81, 127
1, 28920, Note_on_c, 1, 62, 127
1, 29016, Note_off_c, 1, 81, 0
1, 29016, Note_off_c, 1, 62, 0
1, 29040, Note_on_c, 1, 83, 127
1, 29040, Note_on_c, 1, 74, 127
1, 29136, Note_off_c, 1, 83, 0
1, 29136, Note_off_c, 1, 74, 0
1, 29160, Note_on_c, 1, 80, 127
1, 29160, Note_on_c, 1, 62, 127
1, 29256, Note_off_c, 1, 80, 0
1, 29256, Note_off_c, 1, 62, 0
1, 29280, Note_on_c, 1, 81, 127
1, 29280, Note_on_c, 1, 73, 127
1, 29376, Note_off_c, 1, 81, 0
1, 29376, Note_off_c, 1, 73, 0
1, 29400, Note_on_c, 1, 78, 127
1, 29400, Note_on_c, 1, 62, 127
1, 29496, Note_off_c, 1, 78, 0
1, 29496, Note_off_c, 1, 62, 0
1, 29520, Note_on_c, 1, 76, 127
1, 29520, Note_on_c, 1, 71, 127
1, 29616, Note_off_c, 1, 76, 0
1, 29616, Note_off_c, 1, 71, 0
1, 29640, Note_on_c, 1, 74, 127
1, 29640, Note_on_c, 1, 62, 127
1, 29736, Note_off_c, 1, 74, 0
1, 29736, Note_off_c, 1, 62, 0
1, 29760, Note_on_c, 1, 73, 127
1, 29760, Note_on_c, 1, 69, 127
1, 29856, Note_off_c, 1, 73, 0
1, 29856, Note_off_c, 1, 69, 0
1, 29880, Note_on_c, 1, 71, 127
1, 29880, Note_on_c, 1, 62, 127
1, 29976, Note_off_c, 1, 71, 0
1, 29976, Note_off_c, 1, 62, 0
1, 30000, Note_on_c, 1, 73, 127
1, 30000, Note_on_c, 1, 67, 127
1, 30096, Note_off_c, 1, 73, 0
1, 30096, Note_off_c, 1, 67, 0
1, 30120, Note_on_c, 1, 69, 127
1, 30120, Note_on_c, 1, 62, 127
1, 30216, Note_off_c, 1, 69, 0
1, 30216, Note_off_c, 1, 62, 0
1, 30240, Note_on_c, 1, 74, 127
1, 30240, Note_on_c, 1, 66, 127
1, 30336, Note_off_c, 1, 66, 0
1, 30360, Note_on_c, 1, 62, 127
1, 30456, Note_off_c, 1, 62, 0
1, 30480, Note_on_c, 1, 64, 127
1, 30576, Note_off_c, 1, 64, 0
1, 30624, Note_off_c, 1, 74, 0
1, 30720, Note_on_c, 1, 81, 127
1, 30720, Note_on_c, 1, 66, 127
1, 30816, Note_off_c, 1, 66, 0
1, 30840, Note_on_c, 1, 62, 127
1, 30900, Note_off_c, 1, 81, 0
1, 30936, Note_off_c, 1, 62, 0
1, 30960, Note_on_c, 1, 81, 127
1, 30960, Note_on_c, 1, 66, 127
1, 31056, Note_off_c, 1, 66, 0
1, 31080, Note_on_c, 1, 69, 127
1, 31140, Note_off_c, 1, 81, 0
1, 31176, Note_off_c, 1, 69, 0
1, 31200, Note_on_c, 1, 83, 127
1, 31200, Note_on_c, 1, 74, 127
1, 31224, Note_off_c, 1, 83, 0
1, 31230, Note_on_c, 1, 81, 127
1, 31254, Note_off_c, 1, 81, 0
1, 31296, Note_off_c, 1, 74, 0
1, 31320, Note_on_c, 1, 83, 127
1, 31320, Note_on_c, 1, 69, 127
1, 31344, Note_off_c, 1, 83, 0
1, 31350, Note_on_c, 1, 81, 127
1, 31374, Note_off_c, 1, 81, 0
1, 31416, Note_off_c, 1, 69, 0
1, 31440, Note_on_c, 1, 83, 127
1, 31440, Note_on_c, 1, 66, 127
1, 31464, Note_off_c, 1, 83, 0
1, 31470, Note_on_c, 1, 81, 127
1, 31494, Note_off_c, 1, 81, 0
1, 31536, Note_off_c, 1, 66, 0
1, 31560, Note_on_c, 1, 79, 127
1, 31560, Note_on_c, 1, 62, 127
1, 31608, Note_off_c, 1, 79, 0
1, 31620, Note_on_c, 1, 81, 127
1, 31656, Note_off_c, 1, 62, 0
1, 31668, Note_off_c, 1, 81, 0
1, 31680, Note_on_c, 1, 83, 127
1, 31680, Note_on_c, 1, 67, 127
1, 31776, Note_off_c, 1, 83, 0
1, 31776, Note_off_c, 1, 67, 0
1, 31800, Note_on_c, 1, 81, 127
1, 31800, Note_on_c, 1, 62, 127
1, 31896, Note_off_c, 1, 81, 0
1, 31896, Note_off_c, 1, 62, 0
1, 31920, Note_on_c, 1, 79, 127
1, 31920, Note_on_c, 1, 69, 127
1, 32016, Note_off_c, 1, 79, 0
1, 32016, Note_off_c, 1, 69, 0
1, 32040, Note_on_c, 1, 78, 127
1, 32040, Note_on_c, 1, 62, 127
1, 32136, Note_off_c, 1, 78, 0
1, 32136, Note_off_c, 1, 62, 0
1, 32160, Note_on_c, 1, 79, 127
1, 32160, Note_on_c, 1, 71, 127
1, 32256, Note_off_c, 1, 71, 0
1, 32280, Note_on_c, 1, 62, 127
1, 32352, Note_off_c, 1, 79, 0
1, 32376, Note_off_c, 1, 62, 0
1, 32400, Note_on_c, 1, 74, 127
1, 32400, Note_on_c, 1, 72, 127
1, 32496, Note_off_c, 1, 72, 0
1, 32520, Note_on_c, 1, 62, 127
1, 32592, Note_off_c, 1, 74, 0
1, 32616, Note_off_c, 1, 62, 0
1, 32640, Note_on_c, 1, 79, 127
1, 32640, Note_on_c, 1, 71, 127
1, 32736, Note_off_c, 1, 71, 0
1, 32760, Note_on_c, 1, 62, 127
1, 32820, Note_off_c, 1, 79, 0
1, 32856, Note_off_c, 1, 62, 0
1, 32880, Note_on_c, 1, 81, 127
1, 32880, Note_on_c, 1, 69, 127
1, 32976, Note_off_c, 1, 69, 0
1, 33000, Note_on_c, 1, 62, 127
1, 33060, Note_off_c, 1, 81, 0
1, 33096, Note_off_c, 1, 62, 0
1, 33120, Note_on_c, 1, 83, 127
1, 33120, Note_on_c, 1, 67, 127
1, 33216, Note_off_c, 1, 83, 0
1, 33216, Note_off_c, 1, 67, 0
1, 33240, Note_on_c, 1, 84, 127
1, 33240, Note_on_c, 1, 62, 127
1, 33336, Note_off_c, 1, 84, 0
1, 33336, Note_off_c, 1, 62, 0
1, 33360, Note_on_c, 1, 83, 127
1, 33360, Note_on_c, 1, 69, 127
1, 33456, Note_off_c, 1, 83, 0
1, 33456, Note_off_c, 1, 69, 0
1, 33480, Note_on_c, 1, 81, 127
1, 33480, Note_on_c, 1, 62, 127
1, 33576, Note_off_c, 1, 81, 0
1, 33576, Note_off_c, 1, 62, 0
1, 33600, Note_on_c, 1, 79, 127
1, 33600, Note_on_c, 1, 71, 127
1, 33696, Note_off_c, 1, 79, 0
1, 33696, Note_off_c, 1, 71, 0
1, 33720, Note_on_c, 1, 78, 127
1, 33720, Note_on_c, 1, 62, 127
1, 33816, Note_off_c, 1, 78, 0
1, 33816, Note_off_c, 1, 62, 0
1, 33840, Note_on_c, 1, 76, 127
1, 33840, Note_on_c, 1, 72, 127
1, 33936, Note_off_c, 1, 76, 0
1, 33936, Note_off_c, 1, 72, 0
1, 33960, Note_on_c, 1, 74, 127
1, 33960, Note_on_c, 1, 62, 127
1, 34056, Note_off_c, 1, 74, 0
1, 34056, Note_off_c, 1, 62, 0
1, 34080, Note_on_c, 1, 79, 127
1, 34080, Note_on_c, 1, 71, 127
1, 34176, Note_off_c, 1, 71, 0
1, 34200, Note_on_c, 1, 62, 127
1, 34296, Note_off_c, 1, 62, 0
1, 34320, Note_on_c, 1, 69, 127
1, 34416, Note_off_c, 1, 69, 0
1, 34464, Note_off_c, 1, 79, 0
1, 34560, Note_on_c, 1, 76, 127
1, 34560, Note_on_c, 1, 67, 127
1, 34656, Note_off_c, 1, 67, 0
1, 34680, Note_on_c, 1, 62, 127
1, 34740, Note_off_c, 1, 76, 0
1, 34776, Note_off_c, 1, 62, 0
1, 34800, Note_on_c, 1, 76, 127
1, 34800, Note_on_c, 1, 66, 127
1, 34896, Note_off_c, 1, 66, 0
1, 34920, Note_on_c, 1, 62, 127
1, 34980, Note_off_c, 1, 76, 0
1, 35016, Note_off_c, 1, 62, 0
1, 35040, Note_on_c, 1, 76, 127
1, 35040, Note_on_c, 1, 67, 127
1, 35136, Note_off_c, 1, 67, 0
1, 35160, Note_on_c, 1, 62, 127
1, 35256, Note_off_c, 1, 62, 0
1, 35280, Note_on_c, 1, 69, 127
1, 35328, Note_off_c, 1, 76, 0
1, 35376, Note_off_c, 1, 69, 0
1, 35400, Note_on_c, 1, 78, 127
1, 35400, Note_on_c, 1, 62, 127
1, 35496, Note_off_c, 1, 78, 0
1, 35496, Note_off_c, 1, 62, 0
1, 35520, Note_on_c, 1, 79, 127
1, 35520, Note_on_c, 1, 71, 127
1, 35616, Note_off_c, 1, 79, 0
1, 35616, Note_off_c, 1, 71, 0
1, 35640, Note_on_c, 1, 81, 127
1, 35640, Note_on_c, 1, 62, 127
1, 35736, Note_off_c, 1, 81, 0
1, 35736, Note_off_c, 1, 62, 0
1, 35760, Note_on_c, 1, 79, 127
1, 35760, Note_on_c, 1, 69, 127
1, 35856, Note_off_c, 1, 79, 0
1, 35856, Note_off_c, 1, 69, 0
1, 35880, Note_on_c, 1, 78, 127
1, 35880, Note_on_c, 1, 62, 127
1, 35976, Note_off_c, 1, 78, 0
1, 35976, Note_off_c, 1, 62, 0
1, 36000, Note_on_c, 1, 76, 127
1, 36000, Note_on_c, 1, 67, 127
1, 36096, Note_off_c, 1, 76, 0
1, 36096, Note_off_c, 1, 67, 0
1, 36120, Note_on_c, 1, 74, 127
1, 36120, Note_on_c, 1, 62, 127
1, 36216, Note_off_c, 1, 74, 0
1, 36216, Note_off_c, 1, 62, 0
1, 36240, Note_on_c, 1, 73, 127
1, 36240, Note_on_c, 1, 71, 127
1, 36336, Note_off_c, 1, 73, 0
1, 36336, Note_off_c, 1, 71, 0
1, 36360, Note_on_c, 1, 74, 127
1, 36360, Note_on_c, 1, 62, 127
1, 36456, Note_off_c, 1, 74, 0
1, 36456, Note_off_c, 1, 62, 0
1, 36480, Note_on_c, 1, 76, 127
1, 36480, Note_on_c, 1, 69, 127
1, 36576, Note_off_c, 1, 76, 0
1, 36576, Note_off_c, 1, 69, 0
1, 36600, Note_on_c, 1, 78, 127
1, 36600, Note_on_c, 1, 62, 127
1, 36696, Note_off_c, 1, 78, 0
1, 36696, Note_off_c, 1, 62, 0
1, 36720, Note_on_c, 1, 79, 127
1, 36720, Note_on_c, 1, 67, 127
1, 36816, Note_off_c, 1, 79, 0
1, 36816, Note_off_c, 1, 67, 0
1, 36840, Note_on_c, 1, 83, 127
1, 36840, Note_on_c, 1, 62, 127
1, 36936, Note_off_c, 1, 83, 0
1, 36936, Note_off_c, 1, 62, 0
1, 36960, Note_on_c, 1, 81, 127
1, 36960, Note_on_c, 1, 66, 127
1, 37056, Note_off_c, 1, 81, 0
1, 37056, Note_off_c, 1, 66, 0
1, 37080, Note_on_c, 1, 79, 127
1, 37080, Note_on_c, 1, 62, 127
1, 37176, Note_off_c, 1, 79, 0
1, 37176, Note_off_c, 1, 62, 0
1, 37200, Note_on_c, 1, 78, 127
1, 37200, Note_on_c, 1, 67, 127
1, 37296, Note_off_c, 1, 78, 0
1, 37296, Note_off_c, 1, 67, 0
1, 37320, Note_on_c, 1, 76, 127
1, 37320, Note_on_c, 1, 62, 127
1, 37416, Note_off_c, 1, 76, 0
1, 37416, Note_off_c, 1, 62, 0
1, 37440, Note_on_c, 1, 78, 127
1, 37440, Note_on_c, 1, 69, 127
1, 37488, Note_off_c, 1, 78, 0
1, 37500, Note_on_c, 1, 81, 127
1, 37536, Note_off_c, 1, 69, 0
1, 37548, Note_off_c, 1, 81, 0
1, 37560, Note_on_c, 1, 78, 127
1, 37560, Note_on_c, 1, 62, 127
1, 37608, Note_off_c, 1, 78, 0
1, 37620, Note_on_c, 1, 81, 127
1, 37656, Note_off_c, 1, 62, 0
1, 37668, Note_off_c, 1, 81, 0
1, 37680, Note_on_c, 1, 78, 127
1, 37680, Note_on_c, 1, 71, 127
1, 37728, Note_off_c, 1, 78, 0
1, 37740, Note_on_c, 1, 81, 127
1, 37776, Note_off_c, 1, 71, 0
1, 37788, Note_off_c, 1, 81, 0
1, 37800, Note_on_c, 1, 78, 127
1, 37800, Note_on_c, 1, 62, 127
1, 37848, Note_off_c, 1, 78, 0
1, 37860, Note_on_c, 1, 81, 127
1, 37896, Note_off_c, 1, 62, 0
1, 37908, Note_off_c, 1, 81, 0
1, 37920, Note_on_c, 1, 76, 127
1, 37920, Note_on_c, 1, 73, 127
1, 38016, Note_off_c, 1, 73, 0
1, 38040, Note_on_c, 1, 62, 127
1, 38136, Note_off_c, 1, 62, 0
1, 38160, Note_on_c, 1, 67, 127
1, 38256, Note_off_c, 1, 67, 0
1, 38304, Note_off_c, 1, 76, 0
1, 38400, Note_on_c, 1, 78, 127
1, 38400, Note_on_c, 1, 74, 127
1, 38496, Note_off_c, 1, 74, 0
1, 38520, Note_on_c, 1, 69, 127
1, 38580, Note_off_c, 1, 78, 0
1, 38616, Note_off_c, 1, 69, 0
1, 38640, Note_on_c, 1, 78, 127
1, 38640, Note_on_c, 1, 62, 127
1, 38736, Note_off_c, 1, 62, 0
1, 38760, Note_on_c, 1, 69, 127
1, 38820, Note_off_c, 1, 78, 0
1, 38856, Note_off_c, 1, 69, 0
1, 38880, Note_on_c, 1, 79, 127
1, 38880, Note_on_c, 1, 74, 127
1, 38904, Note_off_c, 1, 79, 0
1, 38910, Note_on_c, 1, 78, 127
1, 38934, Note_off_c, 1, 78, 0
1, 38976, Note_off_c, 1, 74, 0
1, 39000, Note_on_c, 1, 79, 127
1, 39000, Note_on_c, 1, 62, 127
1, 39024, Note_off_c, 1, 79, 0
1, 39030, Note_on_c, 1, 78, 127
1, 39054, Note_off_c, 1, 78, 0
1, 39096, Note_off_c, 1, 62, 0
1, 39120, Note_on_c, 1, 79, 127
1, 39120, Note_on_c, 1, 72, 127
1, 39144, Note_off_c, 1, 79, 0
1, 39150, Note_on_c, 1, 78, 127
1, 39174, Note_off_c, 1, 78, 0
1, 39216, Note_off_c, 1, 72, 0
1, 39240, Note_on_c, 1, 76, 127
1, 39240, Note_on_c, 1, 62, 127
1, 39288, Note_off_c, 1, 76, 0
1, 39300, Note_on_c, 1, 78, 127
1, 39336, Note_off_c, 1, 62, 0
1, 39348, Note_off_c, 1, 78, 0
1, 39360, Note_on_c, 1, 79, 127
1, 39360, Note_on_c, 1, 71, 127
1, 39456, Note_off_c, 1, 71, 0
1, 39480, Note_on_c, 1, 62, 127
1, 39540, Note_off_c, 1, 79, 0
1, 39576, Note_off_c, 1, 62, 0
1, 39600, Note_on_c, 1, 74, 127
1, 39600, Note_on_c, 1, 69, 127
1, 39696, Note_off_c, 1, 69, 0
1, 39720, Note_on_c, 1, 62, 127
1, 39780, Note_off_c, 1, 74, 0
1, 39816, Note_off_c, 1, 62, 0
1, 39840, Note_on_c, 1, 76, 127
1, 39840, Note_on_c, 1, 67, 127
1, 39936, Note_off_c, 1, 67, 0
1, 39960, Note_on_c, 1, 62, 127
1, 40056, Note_off_c, 1, 62, 0
1, 40080, Note_on_c, 1, 66, 127
1, 40176, Note_off_c, 1, 66, 0
1, 40224, Note_off_c, 1, 76, 0
1, 40320, Note_on_c, 1, 76, 127
1, 40320, Note_on_c, 1, 67, 127
1, 40416, Note_off_c, 1, 67, 0
1, 40440, Note_on_c, 1, 62, 127
1, 40500, Note_off_c, 1, 76, 0
1, 40536, Note_off_c, 1, 62, 0
1, 40560, Note_on_c, 1, 76, 127
1, 40560, Note_on_c, 1, 64, 127
1, 40656, Note_off_c, 1, 64, 0
1, 40680, Note_on_c, 1, 67, 127
1, 40740, Note_off_c, 1, 76, 0
1, 40776, Note_off_c, 1, 67, 0
1, 40800, Note_on_c, 1, 78, 127
1, 40800, Note_on_c, 1, 73, 127
1, 40824, Note_off_c, 1, 78, 0
1, 40830, Note_on_c, 1, 76, 127
1, 40854, Note_off_c, 1, 76, 0
1, 40896, Note_off_c, 1, 73, 0
1, 40920, Note_on_c, 1, 78, 127
1, 40920, Note_on_c, 1, 62, 127
1, 40944, Note_off_c, 1, 78, 0
1, 40950, Note_on_c, 1, 76, 127
1, 40974, Note_off_c, 1, 76, 0
1, 41016, Note_off_c, 1, 62, 0
1, 41040, Note_on_c, 1, 78, 127
1, 41040, Note_on_c, 1, 71, 127
1, 41064, Note_off_c, 1, 78, 0
1, 41070, Note_on_c, 1, 76, 127
1, 41094, Note_off_c, 1, 76, 0
1, 41136, Note_off_c, 1, 71, 0
1, 41160, Note_on_c, 1, 74, 127
1, 41160, Note_on_c, 1, 62, 127
1, 41208, Note_off_c, 1, 74, 0
1, 41220, Note_on_c, 1, 76, 127
1, 41256, Note_off_c, 1, 62, 0
1, 41268, Note_off_c, 1, 76, 0
1, 41280, Note_on_c, 1, 78, 127
1, 41280, Note_on_c, 1, 69, 127
1, 41376, Note_off_c, 1, 78, 0
1, 41376, Note_off_c, 1, 69, 0
1, 41400, Note_on_c, 1, 74, 127
1, 41400, Note_on_c, 1, 62, 127
1, 41496, Note_off_c, 1, 74, 0
1, 41496, Note_off_c, 1, 62, 0
1, 41520, Note_on_c, 1, 76, 127
1, 41520, Note_on_c, 1, 67, 127
1, 41616, Note_off_c, 1, 76, 0
1, 41616, Note_off_c, 1, 67, 0
1, 41640, Note_on_c, 1, 73, 127
1, 41640, Note_on_c, 1, 62, 127
1, 41736, Note_off_c, 1, 73, 0
1, 41736, Note_off_c, 1, 62, 0
1, 41760, Note_on_c, 1, 74, 127
1, 41760, Note_on_c, 1, 66, 127
1, 41856, Note_off_c, 1, 74, 0
1, 41856, Note_off_c, 1, 66, 0
1, 41880, Note_on_c, 1, 69, 127
1, 41880, Note_on_c, 1, 62, 127
1, 41976, Note_off_c, 1, 69, 0
1, 41976, Note_off_c, 1, 62, 0
1, 42000, Note_on_c, 1, 74, 127
1, 42000, Note_on_c, 1, 66, 127
1, 42096, Note_off_c, 1, 74, 0
1, 42096, Note_off_c, 1, 66, 0
1, 42120, Note_on_c, 1, 76, 127
1, 42120, Note_on_c, 1, 67, 127
1, 42216, Note_off_c, 1, 76, 0
1, 42216, Note_off_c, 1, 67, 0
1, 42240, Note_on_c, 1, 78, 127
1, 42240, Note_on_c, 1, 69, 127
1, 42336, Note_off_c, 1, 69, 0
1, 42360, Note_on_c, 1, 62, 127
1, 42420, Note_off_c, 1, 78, 0
1, 42456, Note_off_c, 1, 62, 0
1, 42480, Note_on_c, 1, 78, 127
1, 42480, Note_on_c, 1, 66, 127
1, 42576, Note_off_c, 1, 66, 0
1, 42600, Note_on_c, 1, 69, 127
1, 42660, Note_off_c, 1, 78, 0
1, 42696, Note_off_c, 1, 69, 0
1, 42720, Note_on_c, 1, 79, 127
1, 42720, Note_on_c, 1, 74, 127
1, 42744, Note_off_c, 1, 79, 0
1, 42750, Note_on_c, 1, 78, 127
1, 42774, Note_off_c, 1, 78, 0
1, 42816, Note_off_c, 1, 74, 0
1, 42840, Note_on_c, 1, 62, 127
1, 42936, Note_off_c, 1, 62, 0
1, 42960, Note_on_c, 1, 69, 127
1, 43056, Note_off_c, 1, 69, 0
1, 43080, Note_on_c, 1, 76, 127
1, 43080, Note_on_c, 1, 62, 127
1, 43128, Note_off_c, 1, 76, 0
1, 43140, Note_on_c, 1, 78, 127
1, 43176, Note_off_c, 1, 62, 0
1, 43188, Note_off_c, 1, 78, 0
1, 43200, Note_on_c, 1, 79, 127
1, 43200, Note_on_c, 1, 71, 127
1, 43296, Note_off_c, 1, 79, 0
1, 43296, Note_off_c, 1, 71, 0
1, 43320, Note_on_c, 1, 78, 127
1, 43320, Note_on_c, 1, 62, 127
1, 43416, Note_off_c, 1, 78, 0
1, 43416, Note_off_c, 1, 62, 0
1, 43440, Note_on_c, 1, 76, 127
1, 43440, Note_on_c, 1, 66, 127
1, 43536, Note_off_c, 1, 76, 0
1, 43536, Note_off_c, 1, 66, 0
1, 43560, Note_on_c, 1, 74, 127
1, 43560, Note_on_c, 1, 62, 127
1, 43656, Note_off_c, 1, 74, 0
1, 43656, Note_off_c, 1, 62, 0
1, 43680, Note_on_c, 1, 83, 127
1, 43680, Note_on_c, 1, 68, 127
1, 43776, Note_off_c, 1, 83, 0
1, 43776, Note_off_c, 1, 68, 0
1, 43800, Note_on_c, 1, 81, 127
1, 43800, Note_on_c, 1, 62, 127
1, 43896, Note_off_c, 1, 81, 0
1, 43896, Note_off_c, 1, 62, 0
1, 43920, Note_on_c, 1, 80, 127
1, 43920, Note_on_c, 1, 69, 127
1, 44016, Note_off_c, 1, 80, 0
1, 44016, Note_off_c, 1, 69, 0
1, 44040, Note_on_c, 1, 78, 127
1, 44040, Note_on_c, 1, 62, 127
1, 44136, Note_off_c, 1, 78, 0
1, 44136, Note_off_c, 1, 62, 0
1, 44160, Note_on_c, 1, 80, 127
1, 44160, Note_on_c, 1, 71, 127
1, 44256, Note_off_c, 1, 80, 0
1, 44256, Note_off_c, 1, 71, 0
1, 44280, Note_on_c, 1, 81, 127
1, 44280, Note_on_c, 1, 62, 127
1, 44376, Note_off_c, 1, 81, 0
1, 44376, Note_off_c, 1, 62, 0
1, 44400, Note_on_c, 1, 83, 127
1, 44400, Note_on_c, 1, 74, 127
1, 44496, Note_off_c, 1, 83, 0
1, 44496, Note_off_c, 1, 74, 0
1, 44520, Note_on_c, 1, 80, 127
1, 44520, Note_on_c, 1, 62, 127
1, 44616, Note_off_c, 1, 80, 0
1, 44616, Note_off_c, 1, 62, 0
1, 44640, Note_on_c, 1, 81, 127
1, 44640, Note_on_c, 1, 73, 127
1, 44736, Note_off_c, 1, 81, 0
1, 44736, Note_off_c, 1, 73, 0
1, 44760, Note_on_c, 1, 78, 127
1, 44760, Note_on_c, 1, 62, 127
1, 44856, Note_off_c, 1, 78, 0
1, 44856, Note_off_c, 1, 62, 0
1, 44880, Note_on_c, 1, 76, 127
1, 44880, Note_on_c, 1, 71, 127
1, 44976, Note_off_c, 1, 76, 0
1, 44976, Note_off_c, 1, 71, 0
1, 45000, Note_on_c, 1, 74, 127
1, 45000, Note_on_c, 1, 62, 127
1, 45096, Note_off_c, 1, 74, 0
1, 45096, Note_off_c, 1, 62, 0
1, 45120, Note_on_c, 1, 73, 127
1, 45120, Note_on_c, 1, 69, 127
1, 45216, Note_off_c, 1, 73, 0
1, 45216, Note_off_c, 1, 69, 0
1, 45240, Note_on_c, 1, 71, 127
1, 45240, Note_on_c, 1, 62, 127
1, 45336, Note_off_c, 1, 71, 0
1, 45336, Note_off_c, 1, 62, 0
1, 45360, Note_on_c, 1, 73, 127
1, 45360, Note_on_c, 1, 67, 127
1, 45456, Note_off_c, 1, 73, 0
1, 45456, Note_off_c, 1, 67, 0
1, 45480, Note_on_c, 1, 69, 127
1, 45480, Note_on_c, 1, 62, 127
1, 45576, Note_off_c, 1, 69, 0
1, 45576, Note_off_c, 1, 62, 0
1, 45600, Note_on_c, 1, 74, 127
1, 45600, Note_on_c, 1, 66, 127
1, 45600, Note_on_c, 1, 62, 127
1, 45984, Note_off_c, 1, 74, 0
1, 45984, Note_off_c, 1, 66, 0
1, 45984, Note_off_c, 1, 62, 0
1, 45984, End_track
0, 0, End_of_file