0, 0, Header, 1, 1, 480
1, 0, Start_track
1, 0, Title_t, "Test"
1, 0, Tempo, 500000
1, 0, Instrument_name_t, "Church Organ"
1, 115, Note_on_c, 1, 45, 127
1, 345, Note_on_c, 1, 49, 127
1, 459, Note_off_c, 1, 49, 0
1, 460, Note_on_c, 1, 52, 127
1, 570, Note_off_c, 1, 45, 0
1, 574, Note_off_c, 1, 52, 0
1, 575, Note_on_c, 1, 57, 127
1, 689, Note_off_c, 1, 57, 0
1, 690, Note_on_c, 1, 56, 127
1, 804, Note_off_c, 1, 56, 0
1, 805, Note_on_c, 1, 54, 127
1, 919, Note_off_c, 1, 54, 0
1, 920, Note_on_c, 1, 52, 127
1, 1054, Note_on_c, 1, 56, 127
1, 1168, Note_off_c, 1, 56, 0
1, 1169, Note_on_c, 1, 59, 127
1, 1283, Note_off_c, 1, 59, 0
1, 1284, Note_on_c, 1, 62, 127
1, 1375, Note_off_c, 1, 52, 0
1, 1398, Note_off_c, 1, 62, 0
1, 1399, Note_on_c, 1, 61, 127
1, 1513, Note_off_c, 1, 61, 0
1, 1514, Note_on_c, 1, 59, 127
1, 1628, Note_off_c, 1, 59, 0
1, 1629, Note_on_c, 1, 57, 127
1, 1763, Note_on_c, 1, 61, 127
1, 1877, Note_off_c, 1, 61, 0
1, 1878, Note_on_c, 1, 64, 127
1, 1992, Note_off_c, 1, 64, 0
1, 1993, Note_on_c, 1, 69, 127
1, 2084, Note_off_c, 1, 57, 0
1, 2107, Note_off_c, 1, 69, 0
1, 2108, Note_on_c, 1, 68, 127
1, 2222, Note_off_c, 1, 68, 0
1, 2223, Note_on_c, 1, 66, 127
1, 2337, Note_off_c, 1, 66, 0
1, 2338, Note_on_c, 1, 64, 127
1, 2472, Note_on_c, 1, 68, 127
1, 2586, Note_off_c, 1, 68, 0
1, 2587, Note_on_c, 1, 71, 127
1, 2701, Note_off_c, 1, 71, 0
1, 2702, Note_on_c, 1, 74, 127
1, 2793, Note_off_c, 1, 64, 0
1, 2816, Note_off_c, 1, 74, 0
1, 2817, Note_on_c, 1, 73, 127
1, 2931, Note_off_c, 1, 73, 0
1, 2932, Note_on_c, 1, 71, 127
1, 3059, Note_off_c, 1, 71, 0
1, 3059, Note_on_c, 1, 69, 127
1, 3450, Note_off_c, 1, 69, 0
1, 3515, Note_on_c, 1, 73, 127
1, 3618, Note_off_c, 1, 73, 0
1, 3619, Note_on_c, 1, 74, 127
1, 3722, Note_off_c, 1, 74, 0
1, 3723, Note_on_c, 1, 76, 127
1, 3826, Note_off_c, 1, 76, 0
1, 3827, Note_on_c, 1, 78, 127
1, 3930, Note_off_c, 1, 78, 0
1, 3931, Note_on_c, 1, 80, 127
1, 4034, Note_off_c, 1, 80, 0
1, 4035, Note_on_c, 1, 81, 127
1, 4138, Note_off_c, 1, 81, 0
1, 4139, Note_on_c, 1, 83, 127
1, 4242, Note_off_c, 1, 83, 0
1, 4243, Note_on_c, 1, 80, 127
1, 4346, Note_off_c, 1, 80, 0
1, 4347, Note_on_c, 1, 76, 127
1, 4463, Note_off_c, 1, 76, 0
1, 4472, Note_on_c, 1, 80, 127
1, 4584, Note_off_c, 1, 80, 0
1, 4591, Note_on_c, 1, 81, 127
1, 5089, Note_on_c, 1, 80, 127
1, 5223, Note_off_c, 1, 80, 0
1, 5227, Note_on_c, 1, 78, 127
1, 5361, Note_off_c, 1, 78, 0
1, 5364, Note_on_c, 1, 76, 127
1, 5502, Note_on_c, 1, 74, 127
1, 5636, Note_off_c, 1, 74, 0
1, 5640, Note_on_c, 1, 73, 127
1, 5777, Note_on_c, 1, 71, 127
1, 5911, Note_off_c, 1, 71, 0
1, 5915, Note_on_c, 1, 69, 127
1, 6049, Note_off_c, 1, 69, 0
1, 6052, Note_on_c, 1, 68, 127
1, 6186, Note_off_c, 1, 68, 0
1, 6415, Note_on_c, 1, 64, 127
1, 6734, Note_on_c, 1, 57, 127
1, 7068, Note_off_c, 1, 81, 0
1, 7268, Note_off_c, 1, 76, 0
1, 7275, Note_off_c, 1, 73, 0
1, 8111, Note_off_c, 1, 64, 0
1, 9469, Note_off_c, 1, 57, 0
1, 9793, Note_on_c, 1, 81, 127
1, 9986, Note_off_c, 1, 81, 0
1, 9987, Note_on_c, 1, 80, 127
1, 10180, Note_off_c, 1, 80, 0
1, 10181, Note_on_c, 1, 78, 127
1, 10374, Note_off_c, 1, 78, 0
1, 10375, Note_on_c, 1, 76, 127
1, 10568, Note_off_c, 1, 76, 0
1, 10569, Note_on_c, 1, 78, 127
1, 10762, Note_off_c, 1, 78, 0
1, 10763, Note_on_c, 1, 74, 127
1, 10956, Note_off_c, 1, 74, 0
1, 10957, Note_on_c, 1, 73, 127
1, 10957, Note_on_c, 1, 69, 127
1, 11020, Note_on_c, 1, 71, 127
1, 11027, Note_off_c, 1, 73, 0
1, 11090, Note_off_c, 1, 71, 0
1, 11149, Note_off_c, 1, 69, 0
1, 11150, Note_on_c, 1, 68, 127
1, 11343, Note_off_c, 1, 68, 0
1, 11344, Note_on_c, 1, 66, 127
1, 11537, Note_off_c, 1, 66, 0
1, 11538, Note_on_c, 1, 64, 127
1, 11731, Note_off_c, 1, 64, 0
1, 11926, Note_on_c, 1, 76, 127
1, 11926, Note_on_c, 1, 62, 127
1, 11973, Note_off_c, 1, 76, 0
1, 11974, Note_on_c, 1, 74, 127
1, 12021, Note_off_c, 1, 74, 0
1, 12022, Note_on_c, 1, 73, 127
1, 12069, Note_off_c, 1, 73, 0
1, 12116, Note_off_c, 1, 62, 0
1, 12118, Note_on_c, 1, 76, 127
1, 12118, Note_on_c, 1, 61, 127
1, 12311, Note_off_c, 1, 76, 0
1, 12312, Note_on_c, 1, 74, 127
1, 12505, Note_off_c, 1, 74, 0
1, 12506, Note_on_c, 1, 73, 127
1, 12699, Note_off_c, 1, 73, 0
1, 12700, Note_on_c, 1, 71, 127
1, 12805, Note_off_c, 1, 61, 0
1, 12893, Note_off_c, 1, 71, 0
1, 12894, Note_on_c, 1, 73, 127
1, 13087, Note_off_c, 1, 73, 0
1, 13088, Note_on_c, 1, 62, 127
1, 13088, Note_on_c, 1, 69, 127
1, 13281, Note_off_c, 1, 62, 0
1, 13281, Note_off_c, 1, 69, 0
1, 13282, Note_on_c, 1, 68, 127
1, 13282, Note_on_c, 1, 64, 127
1, 13476, Note_on_c, 1, 62, 127
1, 13669, Note_off_c, 1, 62, 0
1, 13670, Note_on_c, 1, 61, 127
1, 13863, Note_off_c, 1, 61, 0
1, 13864, Note_on_c, 1, 59, 127
1, 14057, Note_off_c, 1, 59, 0
1, 14251, Note_off_c, 1, 68, 0
1, 14252, Note_on_c, 1, 69, 127
1, 14252, Note_on_c, 1, 57, 127
1, 14445, Note_off_c, 1, 69, 0
1, 14445, Note_off_c, 1, 57, 0
1, 14446, Note_on_c, 1, 71, 127
1, 14446, Note_on_c, 1, 56, 127
1, 14639, Note_off_c, 1, 71, 0
1, 14640, Note_on_c, 1, 73, 127
1, 14828, Note_off_c, 1, 64, 0
1, 14833, Note_off_c, 1, 73, 0
1, 14834, Note_on_c, 1, 74, 127
1, 15027, Note_off_c, 1, 74, 0
1, 15415, Note_off_c, 1, 56, 0
1, 15416, Note_on_c, 1, 52, 127
1, 15609, Note_off_c, 1, 52, 0
1, 15996, Note_on_c, 1, 54, 127
1, 16189, Note_off_c, 1, 54, 0
1, 16577, Note_on_c, 1, 50, 127
1, 16770, Note_off_c, 1, 50, 0
1, 16771, Note_on_c, 1, 76, 127
1, 16771, Note_on_c, 1, 49, 127
1, 16964, Note_off_c, 1, 76, 0
1, 16965, Note_on_c, 1, 78, 127
1, 17158, Note_off_c, 1, 78, 0
1, 17159, Note_on_c, 1, 79, 127
1, 17352, Note_off_c, 1, 79, 0
1, 17741, Note_off_c, 1, 49, 0
1, 17741, Note_on_c, 1, 45, 127
1, 17934, Note_off_c, 1, 45, 0
1, 18324, Note_on_c, 1, 55, 127
1, 18517, Note_off_c, 1, 55, 0
1, 19100, Note_on_c, 1, 78, 127
1, 19100, Note_on_c, 1, 51, 127
1, 19293, Note_off_c, 1, 78, 0
1, 19294, Note_on_c, 1, 80, 127
1, 19487, Note_off_c, 1, 51, 0
1, 19487, Note_off_c, 1, 80, 0
1, 19488, Note_on_c, 1, 81, 127
1, 19488, Note_on_c, 1, 54, 127
1, 19681, Note_off_c, 1, 81, 0
1, 19681, Note_off_c, 1, 54, 0
1, 19682, Note_on_c, 1, 83, 127
1, 19682, Note_on_c, 1, 51, 127
1, 19875, Note_off_c, 1, 83, 0
1, 19876, Note_on_c, 1, 80, 127
1, 20069, Note_off_c, 1, 51, 0
1, 20069, Note_off_c, 1, 80, 0
1, 20070, Note_on_c, 1, 81, 127
1, 20070, Note_on_c, 1, 47, 127
1, 20263, Note_off_c, 1, 81, 0
1, 20263, Note_off_c, 1, 47, 0
1, 20264, Note_on_c, 1, 52, 127
1, 20264, Note_on_c, 1, 81, 127
1, 20264, Note_on_c, 1, 76, 127
1, 20457, Note_off_c, 1, 52, 0
1, 20458, Note_on_c, 1, 51, 127
1, 20651, Note_off_c, 1, 51, 0
1, 20652, Note_on_c, 1, 49, 127
1, 20845, Note_off_c, 1, 81, 0
1, 20845, Note_off_c, 1, 49, 0
1, 20846, Note_on_c, 1, 47, 127
1, 20846, Note_on_c, 1, 80, 127
1, 21039, Note_off_c, 1, 47, 0
1, 21135, Note_off_c, 1, 80, 0
1, 21137, Note_on_c, 1, 83, 127
1, 21201, Note_off_c, 1, 83, 0
1, 21234, Note_on_c, 1, 45, 127
1, 21427, Note_off_c, 1, 45, 0
1, 21428, Note_on_c, 1, 44, 127
1, 22002, Note_off_c, 1, 76, 0
1, 22009, Note_off_c, 1, 44, 0
1, 22010, Note_on_c, 1, 78, 127
1, 22010, Note_on_c, 1, 45, 127
1, 22203, Note_off_c, 1, 78, 0
1, 22204, Note_on_c, 1, 80, 127
1, 22204, Note_on_c, 1, 49, 127
1, 22397, Note_off_c, 1, 80, 0
1, 22397, Note_off_c, 1, 49, 0
1, 22398, Note_on_c, 1, 76, 127
1, 22398, Note_on_c, 1, 54, 127
1, 22591, Note_off_c, 1, 45, 0
1, 22591, Note_off_c, 1, 76, 0
1, 22591, Note_off_c, 1, 54, 0
1, 22592, Note_on_c, 1, 75, 127
1, 22592, Note_on_c, 1, 47, 127
1, 22785, Note_off_c, 1, 75, 0
1, 22786, Note_on_c, 1, 76, 127
1, 22786, Note_on_c, 1, 59, 127
1, 22976, Note_off_c, 1, 47, 0
1, 22979, Note_off_c, 1, 76, 0
1, 22979, Note_off_c, 1, 59, 0
1, 22980, Note_on_c, 1, 61, 127
1, 22980, Note_on_c, 1, 78, 127
1, 23173, Note_off_c, 1, 61, 0
1, 23174, Note_on_c, 1, 71, 127
1, 23174, Note_on_c, 1, 63, 127
1, 23367, Note_off_c, 1, 71, 0
1, 23367, Note_off_c, 1, 63, 0
1, 23368, Note_on_c, 1, 73, 127
1, 23561, Note_off_c, 1, 73, 0
1, 23562, Note_on_c, 1, 69, 127
1, 23562, Note_on_c, 1, 59, 127
1, 23755, Note_off_c, 1, 69, 0
1, 23755, Note_off_c, 1, 59, 0
1, 23756, Note_on_c, 1, 64, 127
1, 23756, Note_on_c, 1, 68, 127
1, 23949, Note_off_c, 1, 64, 0
1, 23950, Note_off_c, 1, 78, 0
1, 23950, Note_on_c, 1, 56, 127
1, 24143, Note_off_c, 1, 56, 0
1, 24144, Note_on_c, 1, 57, 127
1, 24144, Note_on_c, 1, 76, 127
1, 24337, Note_off_c, 1, 68, 0
1, 24337, Note_off_c, 1, 57, 0
1, 24338, Note_on_c, 1, 66, 127
1, 24528, Note_off_c, 1, 76, 0
1, 24726, Note_on_c, 1, 75, 127
1, 24919, Note_off_c, 1, 66, 0
1, 24919, Note_off_c, 1, 75, 0
1, 24920, Note_on_c, 1, 76, 127
1, 24920, Note_on_c, 1, 64, 127
1, 24920, Note_on_c, 1, 52, 127
1, 25113, Note_off_c, 1, 76, 0
1, 25114, Note_on_c, 1, 75, 127
1, 25307, Note_off_c, 1, 75, 0
1, 25308, Note_on_c, 1, 73, 127
1, 25308, Note_on_c, 1, 54, 127
1, 25501, Note_off_c, 1, 73, 0
1, 25501, Note_off_c, 1, 54, 0
1, 25502, Note_on_c, 1, 71, 127
1, 25502, Note_on_c, 1, 56, 127
1, 25695, Note_off_c, 1, 71, 0
1, 25889, Note_off_c, 1, 56, 0
1, 25890, Note_on_c, 1, 69, 127
1, 25890, Note_on_c, 1, 57, 127
1, 26083, Note_off_c, 1, 69, 0
1, 26083, Note_off_c, 1, 57, 0
1, 26084, Note_on_c, 1, 59, 127
1, 26084, Note_on_c, 1, 68, 127
1, 26277, Note_off_c, 1, 59, 0
1, 26278, Note_on_c, 1, 63, 127
1, 26284, Note_off_c, 1, 64, 0
1, 26471, Note_off_c, 1, 68, 0
1, 26471, Note_off_c, 1, 63, 0
1, 26472, Note_on_c, 1, 61, 127
1, 26665, Note_off_c, 1, 61, 0
1, 27052, Note_on_c, 1, 66, 127
1, 27245, Note_off_c, 1, 66, 0
1, 27434, Note_off_c, 1, 52, 0
1, 27440, Note_on_c, 1, 51, 127
1, 27633, Note_off_c, 1, 51, 0
1, 27634, Note_on_c, 1, 49, 127
1, 27827, Note_off_c, 1, 49, 0
1, 27828, Note_on_c, 1, 47, 127
1, 28021, Note_off_c, 1, 47, 0
1, 28216, Note_on_c, 1, 45, 127
1, 28409, Note_off_c, 1, 45, 0
1, 28410, Note_on_c, 1, 44, 127
1, 28604, Note_on_c, 1, 62, 127
1, 28797, Note_off_c, 1, 44, 0
1, 28797, Note_off_c, 1, 62, 0
1, 29186, Note_on_c, 1, 42, 127
1, 29379, Note_off_c, 1, 42, 0
1, 29380, Note_on_c, 1, 40, 127
1, 29573, Note_off_c, 1, 40, 0
1, 29574, Note_on_c, 1, 62, 127
1, 29574, Note_on_c, 1, 42, 127
1, 29767, Note_off_c, 1, 62, 0
1, 29767, Note_off_c, 1, 42, 0
1, 29768, Note_on_c, 1, 64, 127
1, 29768, Note_on_c, 1, 44, 127
1, 29961, Note_off_c, 1, 64, 0
1, 29961, Note_off_c, 1, 44, 0
1, 29962, Note_on_c, 1, 66, 127
1, 29962, Note_on_c, 1, 45, 127
1, 30155, Note_off_c, 1, 66, 0
1, 30155, Note_off_c, 1, 45, 0
1, 30156, Note_on_c, 1, 64, 127
1, 30156, Note_on_c, 1, 44, 127
1, 30349, Note_off_c, 1, 64, 0
1, 30349, Note_off_c, 1, 44, 0
1, 30350, Note_on_c, 1, 66, 127
1, 30350, Note_on_c, 1, 45, 127
1, 30543, Note_off_c, 1, 66, 0
1, 30543, Note_off_c, 1, 45, 0
1, 30544, Note_on_c, 1, 62, 127
1, 30544, Note_on_c, 1, 47, 127
1, 30737, Note_off_c, 1, 62, 0
1, 30737, Note_off_c, 1, 47, 0
1, 30738, Note_on_c, 1, 69, 127
1, 30738, Note_on_c, 1, 45, 127
1, 30738, Note_on_c, 1, 61, 127
1, 30931, Note_off_c, 1, 69, 0
1, 30932, Note_on_c, 1, 68, 127
1, 31125, Note_off_c, 1, 45, 0
1, 31125, Note_off_c, 1, 68, 0
1, 31126, Note_on_c, 1, 66, 127
1, 31126, Note_on_c, 1, 47, 127
1, 31319, Note_off_c, 1, 66, 0
1, 31319, Note_off_c, 1, 47, 0
1, 31320, Note_on_c, 1, 64, 127
1, 31320, Note_on_c, 1, 49, 127
1, 31513, Note_off_c, 1, 64, 0
1, 31513, Note_off_c, 1, 49, 0
1, 31514, Note_on_c, 1, 67, 127
1, 31707, Note_off_c, 1, 67, 0
1, 31900, Note_off_c, 1, 61, 0
1, 31902, Note_on_c, 1, 67, 127
1, 31902, Note_on_c, 1, 47, 127
1, 31902, Note_on_c, 1, 62, 127
1, 32095, Note_off_c, 1, 67, 0
1, 32095, Note_off_c, 1, 47, 0
1, 32096, Note_on_c, 1, 69, 127
1, 32096, Note_on_c, 1, 49, 127
1, 32289, Note_off_c, 1, 69, 0
1, 32289, Note_off_c, 1, 49, 0
1, 32290, Note_on_c, 1, 71, 127
1, 32290, Note_on_c, 1, 50, 127
1, 32483, Note_off_c, 1, 62, 0
1, 32483, Note_off_c, 1, 71, 0
1, 32483, Note_off_c, 1, 50, 0
1, 32484, Note_on_c, 1, 69, 127
1, 32484, Note_on_c, 1, 49, 127
1, 32484, Note_on_c, 1, 64, 127
1, 32677, Note_off_c, 1, 69, 0
1, 32677, Note_off_c, 1, 49, 0
1, 32678, Note_on_c, 1, 71, 127
1, 32678, Note_on_c, 1, 50, 127
1, 32871, Note_off_c, 1, 71, 0
1, 32871, Note_off_c, 1, 50, 0
1, 32872, Note_on_c, 1, 67, 127
1, 32872, Note_on_c, 1, 52, 127
1, 33065, Note_off_c, 1, 67, 0
1, 33065, Note_off_c, 1, 52, 0
1, 33066, Note_on_c, 1, 66, 127
1, 33259, Note_off_c, 1, 66, 0
1, 33260, Note_on_c, 1, 68, 127
1, 33453, Note_off_c, 1, 68, 0
1, 33454, Note_on_c, 1, 54, 127
1, 33646, Note_off_c, 1, 64, 0
1, 33647, Note_off_c, 1, 54, 0
1, 33648, Note_on_c, 1, 44, 127
1, 33648, Note_on_c, 1, 62, 127
1, 33648, Note_on_c, 1, 71, 127
1, 33841, Note_off_c, 1, 44, 0
1, 33842, Note_on_c, 1, 45, 127
1, 34035, Note_off_c, 1, 45, 0
1, 34036, Note_on_c, 1, 47, 127
1, 34229, Note_off_c, 1, 62, 0
1, 34229, Note_off_c, 1, 47, 0
1, 34230, Note_on_c, 1, 42, 127
1, 34230, Note_on_c, 1, 61, 127
1, 34287, Note_off_c, 1, 42, 0
1, 34301, Note_on_c, 1, 41, 127
1, 34372, Note_off_c, 1, 41, 0
1, 34373, Note_on_c, 1, 39, 127
1, 34422, Note_off_c, 1, 71, 0
1, 34423, Note_on_c, 1, 69, 127
1, 34443, Note_off_c, 1, 39, 0
1, 34616, Note_off_c, 1, 69, 0
1, 34617, Note_on_c, 1, 68, 127
1, 34810, Note_off_c, 1, 68, 0
1, 35005, Note_on_c, 1, 66, 127
1, 35005, Note_on_c, 1, 40, 127
1, 35198, Note_off_c, 1, 66, 0
1, 35198, Note_off_c, 1, 40, 0
1, 35199, Note_off_c, 1, 61, 0
1, 35199, Note_on_c, 1, 59, 127
1, 35199, Note_on_c, 1, 38, 127
1, 35392, Note_off_c, 1, 59, 0
1, 35392, Note_off_c, 1, 38, 0
1, 35393, Note_on_c, 1, 61, 127
1, 35393, Note_on_c, 1, 65, 127
1, 35393, Note_on_c, 1, 37, 127
1, 35586, Note_off_c, 1, 61, 0
1, 35587, Note_on_c, 1, 59, 127
1, 35780, Note_off_c, 1, 59, 0
1, 35781, Note_on_c, 1, 57, 127
1, 35974, Note_off_c, 1, 57, 0
1, 35975, Note_on_c, 1, 56, 127
1, 36168, Note_off_c, 1, 56, 0
1, 36747, Note_off_c, 1, 65, 0
1, 36751, Note_on_c, 1, 66, 127
1, 36944, Note_off_c, 1, 66, 0
1, 36945, Note_on_c, 1, 68, 127
1, 37138, Note_off_c, 1, 68, 0
1, 37526, Note_off_c, 1, 37, 0
1, 37527, Note_on_c, 1, 49, 127
1, 37720, Note_off_c, 1, 49, 0
1, 37721, Note_on_c, 1, 66, 127
1, 37721, Note_on_c, 1, 50, 127
1, 37721, Note_on_c, 1, 57, 127
1, 37914, Note_off_c, 1, 66, 0
1, 37915, Note_on_c, 1, 68, 127
1, 38108, Note_off_c, 1, 68, 0
1, 38109, Note_on_c, 1, 69, 127
1, 38302, Note_off_c, 1, 50, 0
1, 38302, Note_off_c, 1, 69, 0
1, 38303, Note_on_c, 1, 51, 127
1, 38303, Note_on_c, 1, 71, 127
1, 38496, Note_off_c, 1, 57, 0
1, 38497, Note_on_c, 1, 56, 127
1, 38690, Note_off_c, 1, 56, 0
1, 38691, Note_on_c, 1, 54, 127
1, 38884, Note_off_c, 1, 51, 0
1, 38884, Note_off_c, 1, 54, 0
1, 38885, Note_on_c, 1, 52, 127
1, 39078, Note_off_c, 1, 71, 0
1, 39079, Note_on_c, 1, 73, 127
1, 39272, Note_off_c, 1, 73, 0
1, 39273, Note_on_c, 1, 74, 127
1, 39466, Note_off_c, 1, 52, 0
1, 39466, Note_off_c, 1, 74, 0
1, 39467, Note_on_c, 1, 53, 127
1, 39855, Note_on_c, 1, 61, 127
1, 40048, Note_off_c, 1, 53, 0
1, 40048, Note_off_c, 1, 61, 0
1, 40049, Note_on_c, 1, 69, 127
1, 40049, Note_on_c, 1, 54, 127
1, 40242, Note_off_c, 1, 69, 0
1, 40243, Note_on_c, 1, 71, 127
1, 40436, Note_off_c, 1, 71, 0
1, 40437, Note_on_c, 1, 68, 127
1, 40437, Note_on_c, 1, 47, 127
1, 40630, Note_off_c, 1, 68, 0
1, 40630, Note_off_c, 1, 47, 0
1, 40631, Note_on_c, 1, 49, 127
1, 40823, Note_off_c, 1, 54, 0
1, 41017, Note_on_c, 1, 66, 127
1, 41017, Note_on_c, 1, 53, 127
1, 41210, Note_off_c, 1, 49, 0
1, 41210, Note_off_c, 1, 66, 0
1, 41210, Note_off_c, 1, 53, 0
1, 41211, Note_on_c, 1, 78, 127
1, 41211, Note_on_c, 1, 42, 127
1, 41211, Note_on_c, 1, 66, 127
1, 41211, Note_on_c, 1, 54, 127
1, 41404, Note_off_c, 1, 78, 0
1, 41405, Note_on_c, 1, 76, 127
1, 41598, Note_off_c, 1, 76, 0
1, 41599, Note_on_c, 1, 74, 127
1, 41599, Note_on_c, 1, 56, 127
1, 41792, Note_off_c, 1, 42, 0
1, 41792, Note_off_c, 1, 74, 0
1, 41792, Note_off_c, 1, 56, 0
1, 41793, Note_on_c, 1, 73, 127
1, 41793, Note_on_c, 1, 58, 127
1, 41986, Note_off_c, 1, 73, 0
1, 42180, Note_off_c, 1, 58, 0
1, 42181, Note_on_c, 1, 71, 127
1, 42181, Note_on_c, 1, 59, 127
1, 42374, Note_off_c, 1, 71, 0
1, 42374, Note_off_c, 1, 59, 0
1, 42375, Note_on_c, 1, 61, 127
1, 42375, Note_on_c, 1, 70, 127
1, 42565, Note_off_c, 1, 66, 0
1, 42568, Note_off_c, 1, 61, 0
1, 42569, Note_on_c, 1, 64, 127
1, 42762, Note_off_c, 1, 70, 0
1, 42762, Note_off_c, 1, 64, 0
1, 42763, Note_on_c, 1, 62, 127
1, 42956, Note_off_c, 1, 62, 0
1, 43342, Note_on_c, 1, 68, 127
1, 43535, Note_off_c, 1, 68, 0
1, 44692, Note_off_c, 1, 54, 0
1, 45088, Note_on_c, 1, 70, 127
1, 45088, Note_on_c, 1, 52, 127
1, 45281, Note_off_c, 1, 70, 0
1, 45281, Note_off_c, 1, 52, 0
1, 45282, Note_on_c, 1, 71, 127
1, 45282, Note_on_c, 1, 50, 127
1, 45475, Note_off_c, 1, 71, 0
1, 45476, Note_on_c, 1, 70, 127
1, 45669, Note_off_c, 1, 50, 0
1, 45669, Note_off_c, 1, 70, 0
1, 45670, Note_on_c, 1, 73, 127
1, 45670, Note_on_c, 1, 49, 127
1, 45863, Note_off_c, 1, 73, 0
1, 45863, Note_off_c, 1, 49, 0
1, 45864, Note_on_c, 1, 59, 127
1, 45864, Note_on_c, 1, 47, 127
1, 45864, Note_on_c, 1, 74, 127
1, 46057, Note_off_c, 1, 59, 0
1, 46058, Note_on_c, 1, 61, 127
1, 46248, Note_off_c, 1, 47, 0
1, 46251, Note_off_c, 1, 61, 0
1, 46252, Note_on_c, 1, 62, 127
1, 46445, Note_off_c, 1, 62, 0
1, 46446, Note_on_c, 1, 64, 127
1, 46639, Note_off_c, 1, 64, 0
1, 46834, Note_on_c, 1, 66, 127
1, 47027, Note_off_c, 1, 66, 0
1, 47028, Note_on_c, 1, 67, 127
1, 47218, Note_off_c, 1, 74, 0
1, 47222, Note_on_c, 1, 73, 127
1, 47415, Note_off_c, 1, 73, 0
1, 47416, Note_on_c, 1, 71, 127
1, 47609, Note_off_c, 1, 71, 0
1, 47610, Note_on_c, 1, 76, 127
1, 47803, Note_off_c, 1, 67, 0
1, 48385, Note_off_c, 1, 76, 0
1, 48968, Note_on_c, 1, 78, 127
1, 49161, Note_off_c, 1, 78, 0
1, 49356, Note_on_c, 1, 70, 127
1, 49356, Note_on_c, 1, 54, 127
1, 49356, Note_on_c, 1, 78, 127
1, 49549, Note_off_c, 1, 70, 0
1, 49549, Note_off_c, 1, 54, 0
1, 49550, Note_on_c, 1, 71, 127
1, 49550, Note_on_c, 1, 56, 127
1, 49743, Note_off_c, 1, 71, 0
1, 49743, Note_off_c, 1, 56, 0
1, 49744, Note_on_c, 1, 73, 127
1, 49744, Note_on_c, 1, 58, 127
1, 49937, Note_off_c, 1, 73, 0
1, 49937, Note_off_c, 1, 58, 0
1, 49938, Note_on_c, 1, 74, 127
1, 49938, Note_on_c, 1, 59, 127
1, 50131, Note_off_c, 1, 74, 0
1, 50131, Note_off_c, 1, 59, 0
1, 50132, Note_on_c, 1, 76, 127
1, 50325, Note_off_c, 1, 76, 0
1, 50326, Note_on_c, 1, 61, 127
1, 50519, Note_off_c, 1, 61, 0
1, 50520, Note_on_c, 1, 62, 127
1, 50710, Note_off_c, 1, 78, 0
1, 50714, Note_on_c, 1, 79, 127
1, 50907, Note_off_c, 1, 79, 0
1, 50908, Note_on_c, 1, 81, 127
1, 51101, Note_off_c, 1, 81, 0
1, 51102, Note_on_c, 1, 83, 127
1, 51295, Note_off_c, 1, 83, 0
1, 51296, Note_on_c, 1, 84, 127
1, 51489, Note_off_c, 1, 62, 0
1, 51489, Note_off_c, 1, 84, 0
1, 51490, Note_on_c, 1, 63, 127
1, 51683, Note_off_c, 1, 63, 0
1, 51684, Note_on_c, 1, 64, 127
1, 51877, Note_off_c, 1, 64, 0
1, 51878, Note_on_c, 1, 66, 127
1, 52071, Note_off_c, 1, 66, 0
1, 52072, Note_on_c, 1, 67, 127
1, 52265, Note_off_c, 1, 67, 0
1, 53430, Note_on_c, 1, 74, 127
1, 53430, Note_on_c, 1, 66, 127
1, 53430, Note_on_c, 1, 70, 127
1, 53517, Note_on_c, 1, 73, 127
1, 53526, Note_off_c, 1, 74, 0
1, 53574, Note_off_c, 1, 73, 0
1, 53622, Note_off_c, 1, 66, 0
1, 53623, Note_on_c, 1, 61, 127
1, 53811, Note_off_c, 1, 70, 0
1, 53814, Note_off_c, 1, 61, 0
1, 53815, Note_on_c, 1, 71, 127
1, 53815, Note_on_c, 1, 64, 127
1, 54008, Note_off_c, 1, 71, 0
1, 54008, Note_off_c, 1, 64, 0
1, 54009, Note_on_c, 1, 64, 127
1, 54009, Note_on_c, 1, 83, 127
1, 54009, Note_on_c, 1, 71, 127
1, 54079, Note_off_c, 1, 64, 0
1, 54079, Note_on_c, 1, 63, 127
1, 54149, Note_off_c, 1, 63, 0
1, 54203, Note_off_c, 1, 83, 0
1, 54204, Note_on_c, 1, 81, 127
1, 54397, Note_off_c, 1, 81, 0
1, 54398, Note_on_c, 1, 80, 127
1, 54591, Note_off_c, 1, 80, 0
1, 54592, Note_on_c, 1, 78, 127
1, 54785, Note_off_c, 1, 78, 0
1, 54980, Note_on_c, 1, 76, 127
1, 55173, Note_off_c, 1, 76, 0
1, 55174, Note_on_c, 1, 75, 127
1, 55174, Note_on_c, 1, 66, 127
1, 55367, Note_off_c, 1, 75, 0
1, 55367, Note_off_c, 1, 66, 0
1, 55368, Note_on_c, 1, 59, 127
1, 55561, Note_off_c, 1, 59, 0
1, 55562, Note_on_c, 1, 57, 127
1, 55748, Note_off_c, 1, 71, 0
1, 55755, Note_off_c, 1, 57, 0
1, 55756, Note_on_c, 1, 56, 127
1, 55756, Note_on_c, 1, 71, 127
1, 55949, Note_off_c, 1, 56, 0
1, 55950, Note_on_c, 1, 73, 127
1, 55950, Note_on_c, 1, 57, 127
1, 56140, Note_off_c, 1, 71, 0
1, 56143, Note_off_c, 1, 73, 0
1, 56143, Note_off_c, 1, 57, 0
1, 56144, Note_on_c, 1, 69, 127
1, 56144, Note_on_c, 1, 75, 127
1, 56144, Note_on_c, 1, 54, 127
1, 56337, Note_off_c, 1, 69, 0
1, 56337, Note_off_c, 1, 75, 0
1, 56337, Note_off_c, 1, 54, 0
1, 56338, Note_on_c, 1, 76, 127
1, 56338, Note_on_c, 1, 52, 127
1, 56338, Note_on_c, 1, 68, 127
1, 56531, Note_off_c, 1, 76, 0
1, 56531, Note_off_c, 1, 52, 0
1, 56532, Note_on_c, 1, 71, 127
1, 56532, Note_on_c, 1, 54, 127
1, 56725, Note_off_c, 1, 71, 0
1, 56725, Note_off_c, 1, 54, 0
1, 56726, Note_on_c, 1, 56, 127
1, 56919, Note_off_c, 1, 68, 0
1, 56919, Note_off_c, 1, 56, 0
1, 56920, Note_on_c, 1, 57, 127
1, 56920, Note_on_c, 1, 66, 127
1, 57113, Note_off_c, 1, 57, 0
1, 57308, Note_on_c, 1, 59, 127
1, 57308, Note_on_c, 1, 74, 127
1, 57501, Note_off_c, 1, 66, 0
1, 57501, Note_off_c, 1, 59, 0
1, 57502, Note_on_c, 1, 64, 127
1, 57692, Note_off_c, 1, 74, 0
1, 57890, Note_on_c, 1, 73, 127
1, 58083, Note_off_c, 1, 64, 0
1, 58084, Note_on_c, 1, 51, 127
1, 58274, Note_off_c, 1, 73, 0
1, 58472, Note_on_c, 1, 69, 127
1, 58665, Note_off_c, 1, 51, 0
1, 58665, Note_off_c, 1, 69, 0
1, 58860, Note_on_c, 1, 61, 127
1, 59053, Note_off_c, 1, 61, 0
1, 59054, Note_on_c, 1, 63, 127
1, 59054, Note_on_c, 1, 47, 127
1, 59247, Note_off_c, 1, 63, 0
1, 59247, Note_off_c, 1, 47, 0
1, 59248, Note_on_c, 1, 44, 127
1, 59441, Note_off_c, 1, 44, 0
1, 59442, Note_on_c, 1, 45, 127
1, 59635, Note_off_c, 1, 45, 0
1, 59830, Note_on_c, 1, 40, 127
1, 60214, Note_off_c, 1, 40, 0
1, 61576, Note_on_c, 1, 49, 127
1, 61769, Note_off_c, 1, 49, 0
1, 61770, Note_on_c, 1, 50, 127
1, 61963, Note_off_c, 1, 50, 0
1, 62740, Note_on_c, 1, 78, 127
1, 62740, Note_on_c, 1, 62, 127
1, 62933, Note_off_c, 1, 78, 0
1, 62933, Note_off_c, 1, 62, 0
1, 63128, Note_on_c, 1, 79, 127
1, 63321, Note_off_c, 1, 79, 0
1, 64098, Note_on_c, 1, 55, 127
1, 64291, Note_off_c, 1, 55, 0
1, 64680, Note_on_c, 1, 80, 127
1, 64873, Note_off_c, 1, 80, 0
1, 64874, Note_on_c, 1, 81, 127
1, 65067, Note_off_c, 1, 81, 0
1, 65068, Note_on_c, 1, 83, 127
1, 65261, Note_off_c, 1, 83, 0
1, 67590, Note_on_c, 1, 73, 127
1, 67590, Note_on_c, 1, 76, 127
1, 67590, Note_on_c, 1, 64, 127
1, 67783, Note_off_c, 1, 73, 0
1, 67783, Note_off_c, 1, 76, 0
1, 67783, Note_off_c, 1, 64, 0
1, 67784, Note_on_c, 1, 78, 127
1, 67784, Note_on_c, 1, 74, 127
1, 67784, Note_on_c, 1, 62, 127
1, 67977, Note_off_c, 1, 78, 0
1, 67977, Note_off_c, 1, 74, 0
1, 67977, Note_off_c, 1, 62, 0
1, 67978, Note_on_c, 1, 76, 127
1, 67978, Note_on_c, 1, 61, 127
1, 67978, Note_on_c, 1, 79, 127
1, 68171, Note_off_c, 1, 76, 0
1, 68171, Note_off_c, 1, 61, 0
1, 68172, Note_on_c, 1, 74, 127
1, 68172, Note_on_c, 1, 62, 127
1, 68365, Note_off_c, 1, 74, 0
1, 68365, Note_off_c, 1, 62, 0
1, 68366, Note_on_c, 1, 78, 127
1, 68366, Note_on_c, 1, 59, 127
1, 68559, Note_off_c, 1, 78, 0
1, 68559, Note_off_c, 1, 59, 0
1, 68948, Note_on_c, 1, 57, 127
1, 69140, Note_off_c, 1, 79, 0
1, 69141, Note_off_c, 1, 57, 0
1, 69336, Note_on_c, 1, 69, 127
1, 69529, Note_off_c, 1, 69, 0
1, 69530, Note_on_c, 1, 73, 127
1, 69723, Note_off_c, 1, 73, 0
1, 70306, Note_on_c, 1, 56, 127
1, 70499, Note_off_c, 1, 56, 0
1, 70500, Note_on_c, 1, 68, 127
1, 70693, Note_off_c, 1, 68, 0
1, 70694, Note_on_c, 1, 71, 127
1, 70694, Note_on_c, 1, 52, 127
1, 70887, Note_off_c, 1, 71, 0
1, 70887, Note_off_c, 1, 52, 0
1, 71082, Note_on_c, 1, 49, 127
1, 71275, Note_off_c, 1, 49, 0
1, 71470, Note_on_c, 1, 42, 127
1, 72051, Note_off_c, 1, 42, 0
1, 72121, Note_on_c, 1, 44, 127
1, 72189, Note_off_c, 1, 44, 0
1, 72190, Note_on_c, 1, 45, 127
1, 72257, Note_off_c, 1, 45, 0
1, 72634, Note_on_c, 1, 45, 127
1, 72634, Note_on_c, 1, 73, 127
1, 72827, Note_off_c, 1, 45, 0
1, 72828, Note_on_c, 1, 69, 127
1, 72828, Note_on_c, 1, 49, 127
1, 73021, Note_off_c, 1, 69, 0
1, 73021, Note_off_c, 1, 49, 0
1, 73022, Note_on_c, 1, 67, 127
1, 73022, Note_on_c, 1, 52, 127
1, 73215, Note_off_c, 1, 67, 0
1, 73215, Note_off_c, 1, 52, 0
1, 73216, Note_on_c, 1, 66, 127
1, 73216, Note_on_c, 1, 57, 127
1, 73409, Note_off_c, 1, 66, 0
1, 73409, Note_off_c, 1, 57, 0
1, 73604, Note_on_c, 1, 64, 127
1, 73797, Note_off_c, 1, 64, 0
1, 73798, Note_on_c, 1, 38, 127
1, 73988, Note_off_c, 1, 73, 0
1, 73992, Note_on_c, 1, 74, 127
1, 74185, Note_off_c, 1, 74, 0
1, 74379, Note_off_c, 1, 38, 0
1, 74380, Note_on_c, 1, 37, 127
1, 74380, Note_on_c, 1, 71, 127
1, 74448, Note_off_c, 1, 37, 0
1, 74449, Note_on_c, 1, 39, 127
1, 74517, Note_off_c, 1, 39, 0
1, 74518, Note_on_c, 1, 40, 127
1, 74573, Note_off_c, 1, 71, 0
1, 74585, Note_off_c, 1, 40, 0
1, 74962, Note_on_c, 1, 69, 127
1, 74962, Note_on_c, 1, 64, 127
1, 74962, Note_on_c, 1, 40, 127
1, 75057, Note_on_c, 1, 68, 127
1, 75058, Note_off_c, 1, 69, 0
1, 75138, Note_off_c, 1, 68, 0
1, 75154, Note_off_c, 1, 64, 0
1, 75156, Note_on_c, 1, 62, 127
1, 75346, Note_off_c, 1, 40, 0
1, 75348, Note_off_c, 1, 62, 0
1, 75350, Note_on_c, 1, 61, 127
1, 75541, Note_off_c, 1, 61, 0
1, 75543, Note_on_c, 1, 59, 127
1, 75736, Note_off_c, 1, 59, 0
1, 75737, Note_on_c, 1, 69, 127
1, 75737, Note_on_c, 1, 61, 127
1, 75930, Note_off_c, 1, 69, 0
1, 75930, Note_off_c, 1, 61, 0
1, 75931, Note_on_c, 1, 71, 127
1, 75931, Note_on_c, 1, 57, 127
1, 76124, Note_off_c, 1, 71, 0
1, 76124, Note_off_c, 1, 57, 0
1, 76125, Note_on_c, 1, 56, 127
1, 76125, Note_on_c, 1, 64, 127
1, 76319, Note_on_c, 1, 62, 127
1, 76512, Note_off_c, 1, 56, 0
1, 76512, Note_off_c, 1, 62, 0
1, 76513, Note_on_c, 1, 61, 127
1, 76513, Note_on_c, 1, 57, 127
1, 76706, Note_off_c, 1, 61, 0
1, 76706, Note_off_c, 1, 57, 0
1, 76707, Note_on_c, 1, 59, 127
1, 76900, Note_off_c, 1, 64, 0
1, 76900, Note_off_c, 1, 59, 0
1, 77095, Note_on_c, 1, 57, 127
1, 77095, Note_on_c, 1, 54, 127
1, 77288, Note_off_c, 1, 57, 0
1, 77288, Note_off_c, 1, 54, 0
1, 77289, Note_on_c, 1, 76, 127
1, 77289, Note_on_c, 1, 56, 127
1, 77289, Note_on_c, 1, 52, 127
1, 77482, Note_off_c, 1, 76, 0
1, 77483, Note_on_c, 1, 74, 127
1, 77673, Note_off_c, 1, 56, 0
1, 77676, Note_off_c, 1, 52, 0
1, 77676, Note_off_c, 1, 74, 0
1, 77677, Note_on_c, 1, 73, 127
1, 77677, Note_on_c, 1, 57, 127
1, 77677, Note_on_c, 1, 54, 127
1, 77870, Note_off_c, 1, 73, 0
1, 77870, Note_off_c, 1, 57, 0
1, 77870, Note_off_c, 1, 54, 0
1, 77871, Note_on_c, 1, 71, 127
1, 77871, Note_on_c, 1, 59, 127
1, 77871, Note_on_c, 1, 56, 127
1, 78064, Note_off_c, 1, 71, 0
1, 78064, Note_off_c, 1, 59, 0
1, 78065, Note_on_c, 1, 74, 127
1, 78065, Note_on_c, 1, 64, 127
1, 78258, Note_off_c, 1, 56, 0
1, 78258, Note_off_c, 1, 74, 0
1, 78258, Note_off_c, 1, 64, 0
1, 78259, Note_on_c, 1, 66, 127
1, 78259, Note_on_c, 1, 73, 127
1, 78259, Note_on_c, 1, 57, 127
1, 78452, Note_off_c, 1, 66, 0
1, 78452, Note_off_c, 1, 73, 0
1, 78452, Note_off_c, 1, 57, 0
1, 78453, Note_on_c, 1, 52, 127
1, 78453, Note_on_c, 1, 59, 127
1, 78453, Note_on_c, 1, 68, 127
1, 78453, Note_on_c, 1, 74, 127
1, 78646, Note_off_c, 1, 52, 0
1, 78647, Note_on_c, 1, 50, 127
1, 78837, Note_off_c, 1, 59, 0
1, 78840, Note_off_c, 1, 50, 0
1, 78841, Note_on_c, 1, 49, 127
1, 79034, Note_off_c, 1, 49, 0
1, 79035, Note_on_c, 1, 47, 127
1, 79228, Note_off_c, 1, 47, 0
1, 79422, Note_off_c, 1, 68, 0
1, 79423, Note_on_c, 1, 69, 127
1, 79423, Note_on_c, 1, 45, 127
1, 79616, Note_off_c, 1, 69, 0
1, 79616, Note_off_c, 1, 45, 0
1, 79617, Note_on_c, 1, 44, 127
1, 79617, Note_on_c, 1, 71, 127
1, 79810, Note_off_c, 1, 44, 0
1, 79811, Note_on_c, 1, 42, 127
1, 80004, Note_off_c, 1, 42, 0
1, 80005, Note_on_c, 1, 40, 127
1, 80191, Note_off_c, 1, 74, 0
1, 80198, Note_off_c, 1, 40, 0
1, 80199, Note_on_c, 1, 73, 127
1, 80392, Note_off_c, 1, 71, 0
1, 80587, Note_on_c, 1, 67, 127
1, 80780, Note_off_c, 1, 67, 0
1, 80781, Note_on_c, 1, 66, 127
1, 80974, Note_off_c, 1, 73, 0
1, 81362, Note_off_c, 1, 66, 0
1, 81363, Note_on_c, 1, 71, 127
1, 81363, Note_on_c, 1, 50, 127
1, 81363, Note_on_c, 1, 65, 127
1, 81556, Note_off_c, 1, 71, 0
1, 81556, Note_off_c, 1, 50, 0
1, 81557, Note_on_c, 1, 72, 127
1, 81557, Note_on_c, 1, 52, 127
1, 81750, Note_off_c, 1, 72, 0
1, 81750, Note_off_c, 1, 52, 0
1, 81751, Note_on_c, 1, 69, 127
1, 81751, Note_on_c, 1, 53, 127
1, 81944, Note_off_c, 1, 69, 0
1, 81944, Note_off_c, 1, 53, 0
1, 81945, Note_on_c, 1, 68, 127
1, 82138, Note_off_c, 1, 65, 0
1, 82139, Note_on_c, 1, 64, 127
1, 82332, Note_off_c, 1, 64, 0
1, 82333, Note_on_c, 1, 62, 127
1, 82525, Note_off_c, 1, 62, 0
1, 82527, Note_on_c, 1, 61, 127
1, 82720, Note_off_c, 1, 68, 0
1, 82720, Note_off_c, 1, 61, 0
1, 82721, Note_on_c, 1, 71, 127
1, 82721, Note_on_c, 1, 62, 127
1, 82914, Note_off_c, 1, 71, 0
1, 82914, Note_off_c, 1, 62, 0
1, 82915, Note_on_c, 1, 68, 127
1, 82915, Note_on_c, 1, 59, 127
1, 83108, Note_off_c, 1, 68, 0
1, 83108, Note_off_c, 1, 59, 0
1, 83109, Note_on_c, 1, 64, 127
1, 83109, Note_on_c, 1, 61, 127
1, 83302, Note_off_c, 1, 64, 0
1, 83303, Note_on_c, 1, 76, 127
1, 83496, Note_off_c, 1, 76, 0
1, 83497, Note_on_c, 1, 69, 127
1, 83690, Note_off_c, 1, 61, 0
1, 83691, Note_on_c, 1, 62, 127
1, 83691, Note_on_c, 1, 59, 127
1, 83884, Note_off_c, 1, 69, 0
1, 83885, Note_on_c, 1, 71, 127
1, 84078, Note_off_c, 1, 71, 0
1, 84079, Note_on_c, 1, 68, 127
1, 84273, Note_off_c, 1, 68, 0
1, 84283, Note_off_c, 1, 62, 0
1, 84288, Note_off_c, 1, 59, 0
1, 84290, Note_on_c, 1, 81, 127
1, 84290, Note_on_c, 1, 61, 127
1, 84290, Note_on_c, 1, 57, 127
1, 84290, Note_on_c, 1, 69, 127
1, 84484, Note_off_c, 1, 81, 0
1, 84485, Note_on_c, 1, 80, 127
1, 84679, Note_off_c, 1, 61, 0
1, 84679, Note_off_c, 1, 80, 0
1, 84680, Note_on_c, 1, 62, 127
1, 84680, Note_on_c, 1, 78, 127
1, 84874, Note_off_c, 1, 62, 0
1, 84874, Note_off_c, 1, 78, 0
1, 84875, Note_on_c, 1, 76, 127
1, 85069, Note_off_c, 1, 76, 0
1, 85265, Note_on_c, 1, 59, 127
1, 85265, Note_on_c, 1, 74, 127
1, 85458, Note_off_c, 1, 57, 0
1, 85459, Note_off_c, 1, 59, 0
1, 85459, Note_off_c, 1, 74, 0
1, 85460, Note_on_c, 1, 73, 127
1, 85651, Note_off_c, 1, 69, 0
1, 85655, Note_on_c, 1, 68, 127
1, 85849, Note_off_c, 1, 73, 0
1, 85849, Note_off_c, 1, 68, 0
1, 85850, Note_on_c, 1, 66, 127
1, 86044, Note_off_c, 1, 66, 0
1, 86045, Note_on_c, 1, 64, 127
1, 86240, Note_off_c, 1, 64, 0
1, 86437, Note_on_c, 1, 71, 127
1, 86634, Note_off_c, 1, 71, 0
1, 86635, Note_on_c, 1, 61, 127
1, 86635, Note_on_c, 1, 69, 127
1, 86635, Note_on_c, 1, 57, 127
1, 86833, Note_off_c, 1, 61, 0
1, 86834, Note_on_c, 1, 62, 127
1, 86834, Note_on_c, 1, 71, 127
1, 87032, Note_off_c, 1, 62, 0
1, 87032, Note_off_c, 1, 71, 0
1, 87033, Note_on_c, 1, 64, 127
1, 87033, Note_on_c, 1, 73, 127
1, 87231, Note_off_c, 1, 64, 0
1, 87231, Note_off_c, 1, 73, 0
1, 87232, Note_on_c, 1, 66, 127
1, 87232, Note_on_c, 1, 74, 127
1, 87430, Note_off_c, 1, 66, 0
1, 87430, Note_off_c, 1, 74, 0
1, 87431, Note_on_c, 1, 78, 127
1, 87629, Note_off_c, 1, 78, 0
1, 87630, Note_on_c, 1, 76, 127
1, 87831, Note_off_c, 1, 76, 0
1, 88030, Note_off_c, 1, 69, 0
1, 88640, Note_on_c, 1, 81, 127
1, 88841, Note_off_c, 1, 81, 0
1, 88842, Note_on_c, 1, 80, 127
1, 89047, Note_off_c, 1, 57, 0
1, 89056, Note_off_c, 1, 80, 0
1, 89487, Note_on_c, 1, 68, 127
1, 89701, Note_off_c, 1, 68, 0
1, 90513, Note_on_c, 1, 45, 127
1, 93816, Note_off_c, 1, 45, 0
1, 95637, Note_on_c, 1, 81, 127
1, 95825, Note_off_c, 1, 81, 0
1, 95827, Note_on_c, 1, 81, 127
1, 96017, Note_on_c, 1, 57, 127
1, 96207, Note_on_c, 1, 61, 127
1, 96397, Note_on_c, 1, 64, 127
1, 96587, Note_on_c, 1, 69, 127
1, 96777, Note_on_c, 1, 73, 127
1, 96965, Note_off_c, 1, 81, 0
1, 96965, Note_off_c, 1, 73, 0
1, 96967, Note_on_c, 1, 76, 127
1, 97155, Note_off_c, 1, 76, 0
1, 97339, Note_off_c, 1, 69, 0
1, 97345, Note_off_c, 1, 61, 0
1, 97347, Note_off_c, 1, 64, 0
1, 97347, Note_on_c, 1, 71, 127
1, 97347, Note_on_c, 1, 62, 127
1, 97727, Note_on_c, 1, 80, 127
1, 97915, Note_off_c, 1, 80, 0
1, 97917, Note_on_c, 1, 78, 127
1, 98105, Note_off_c, 1, 78, 0
1, 98297, Note_on_c, 1, 83, 127
1, 98485, Note_off_c, 1, 83, 0
1, 98865, Note_off_c, 1, 71, 0
1, 98865, Note_off_c, 1, 62, 0
1, 98867, Note_on_c, 1, 79, 127
1, 99629, Note_on_c, 1, 66, 127
1, 100007, Note_off_c, 1, 79, 0
1, 100009, Note_on_c, 1, 74, 127
1, 100199, Note_on_c, 1, 68, 127
1, 100203, Note_off_c, 1, 66, 0
1, 100385, Note_off_c, 1, 74, 0
1, 100387, Note_off_c, 1, 68, 0
1, 101909, Note_on_c, 1, 67, 127
1, 101957, Note_off_c, 1, 57, 0
1, 102663, Note_off_c, 1, 67, 0
1, 103051, Note_on_c, 1, 65, 127
1, 103427, Note_off_c, 1, 65, 0
1, 104573, Note_on_c, 1, 54, 127
1, 104761, Note_off_c, 1, 54, 0
1, 104763, Note_on_c, 1, 56, 127
1, 104951, Note_off_c, 1, 56, 0
1, 104953, Note_on_c, 1, 57, 127
1, 104953, Note_on_c, 1, 63, 127
1, 104953, Note_on_c, 1, 66, 127
1, 104953, Note_on_c, 1, 71, 127
1, 105143, Note_on_c, 1, 54, 127
1, 105333, Note_on_c, 1, 51, 127
1, 105523, Note_on_c, 1, 47, 127
1, 105698, Note_off_c, 1, 54, 0
1, 105706, Note_off_c, 1, 57, 0
1, 105706, Note_off_c, 1, 63, 0
1, 105710, Note_off_c, 1, 51, 0
1, 105712, Note_off_c, 1, 47, 0
1, 105714, Note_on_c, 1, 56, 127
1, 105904, Note_on_c, 1, 59, 127
1, 106092, Note_off_c, 1, 66, 0
1, 106094, Note_on_c, 1, 64, 127
1, 106282, Note_off_c, 1, 71, 0
1, 106284, Note_on_c, 1, 73, 127
1, 106466, Note_off_c, 1, 56, 0
1, 106472, Note_off_c, 1, 59, 0
1, 106472, Note_off_c, 1, 73, 0
1, 106474, Note_on_c, 1, 69, 127
1, 106474, Note_on_c, 1, 61, 127
1, 106662, Note_off_c, 1, 69, 0
1, 107044, Note_on_c, 1, 68, 127
1, 107232, Note_off_c, 1, 68, 0
1, 107420, Note_off_c, 1, 64, 0
1, 107612, Note_off_c, 1, 61, 0
1, 107994, Note_on_c, 1, 52, 127
1, 108943, Note_off_c, 1, 52, 0
1, 109325, Note_on_c, 1, 49, 127
1, 109513, Note_off_c, 1, 49, 0
1, 109515, Note_on_c, 1, 50, 127
1, 109895, Note_on_c, 1, 44, 127
1, 110086, Note_on_c, 1, 40, 127
1, 110269, Note_off_c, 1, 50, 0
1, 110273, Note_off_c, 1, 44, 0
1, 110275, Note_off_c, 1, 40, 0
1, 110277, Note_on_c, 1, 69, 127
1, 110277, Note_on_c, 1, 49, 127
1, 110277, Note_on_c, 1, 64, 127
1, 110465, Note_off_c, 1, 69, 0
1, 110467, Note_on_c, 1, 71, 127
1, 110467, Note_on_c, 1, 57, 127
1, 110653, Note_off_c, 1, 49, 0
1, 110655, Note_off_c, 1, 71, 0
1, 110657, Note_on_c, 1, 73, 127
1, 110657, Note_on_c, 1, 47, 127
1, 110750, Note_off_c, 1, 73, 0
1, 110843, Note_off_c, 1, 57, 0
1, 110847, Note_on_c, 1, 56, 127
1, 111033, Note_off_c, 1, 47, 0
1, 111035, Note_off_c, 1, 56, 0
1, 111037, Note_on_c, 1, 45, 127
1, 111607, Note_on_c, 1, 52, 127
1, 111607, Note_on_c, 1, 68, 127
1, 111789, Note_off_c, 1, 45, 0
1, 111795, Note_off_c, 1, 52, 0
1, 111795, Note_off_c, 1, 68, 0
1, 111987, Note_on_c, 1, 59, 127
1, 112175, Note_off_c, 1, 59, 0
1, 112367, Note_on_c, 1, 54, 127
1, 112555, Note_off_c, 1, 54, 0
1, 112557, Note_on_c, 1, 55, 127
1, 113048, Note_off_c, 1, 64, 0
1, 113310, Note_off_c, 1, 55, 0
1, 113318, Note_on_c, 1, 74, 127
1, 113318, Note_on_c, 1, 54, 127
1, 113318, Note_on_c, 1, 69, 127
1, 113506, Note_off_c, 1, 74, 0
1, 113508, Note_on_c, 1, 73, 127
1, 113508, Note_on_c, 1, 62, 127
1, 113601, Note_off_c, 1, 73, 0
1, 113694, Note_off_c, 1, 54, 0
1, 113698, Note_on_c, 1, 76, 127
1, 113698, Note_on_c, 1, 52, 127
1, 113884, Note_off_c, 1, 62, 0
1, 113886, Note_off_c, 1, 76, 0
1, 113888, Note_on_c, 1, 61, 127
1, 114074, Note_off_c, 1, 52, 0
1, 114076, Note_off_c, 1, 61, 0
1, 114078, Note_on_c, 1, 50, 127
1, 114078, Note_on_c, 1, 78, 127
1, 114648, Note_on_c, 1, 57, 127
1, 114830, Note_off_c, 1, 50, 0
1, 114836, Note_off_c, 1, 57, 0
1, 115028, Note_on_c, 1, 66, 127
1, 115216, Note_off_c, 1, 66, 0
1, 115218, Note_on_c, 1, 59, 127
1, 115404, Note_off_c, 1, 78, 0
1, 115406, Note_off_c, 1, 59, 0
1, 115594, Note_off_c, 1, 69, 0
1, 115598, Note_on_c, 1, 80, 127
1, 115598, Note_on_c, 1, 62, 127
1, 115598, Note_on_c, 1, 76, 127
1, 115786, Note_off_c, 1, 80, 0
1, 115788, Note_on_c, 1, 81, 127
1, 115788, Note_on_c, 1, 59, 127
1, 115976, Note_off_c, 1, 81, 0
1, 115978, Note_on_c, 1, 56, 127
1, 116168, Note_on_c, 1, 52, 127
1, 116343, Note_off_c, 1, 59, 0
1, 116351, Note_off_c, 1, 62, 0
1, 116355, Note_off_c, 1, 56, 0
1, 116357, Note_off_c, 1, 52, 0
1, 116359, Note_on_c, 1, 83, 127
1, 116359, Note_on_c, 1, 61, 127
1, 116549, Note_on_c, 1, 64, 127
1, 116583, Note_off_c, 1, 83, 0
1, 116735, Note_off_c, 1, 61, 0
1, 116929, Note_on_c, 1, 57, 127
1, 117117, Note_off_c, 1, 57, 0
1, 117301, Note_off_c, 1, 76, 0
1, 117689, Note_on_c, 1, 78, 127
1, 117877, Note_off_c, 1, 78, 0
1, 118069, Note_on_c, 1, 74, 127
1, 118257, Note_off_c, 1, 64, 0
1, 118257, Note_off_c, 1, 74, 0
1, 118259, Note_on_c, 1, 73, 127
1, 118447, Note_off_c, 1, 73, 0
1, 118449, Note_on_c, 1, 71, 127
1, 118637, Note_off_c, 1, 71, 0
1, 119400, Note_on_c, 1, 71, 127
1, 119400, Note_on_c, 1, 64, 127
1, 119590, Note_on_c, 1, 74, 127
1, 119780, Note_on_c, 1, 81, 127
1, 119780, Note_on_c, 1, 52, 127
1, 119968, Note_off_c, 1, 81, 0
1, 119970, Note_on_c, 1, 80, 127
1, 120145, Note_off_c, 1, 74, 0
1, 120153, Note_off_c, 1, 71, 0
1, 120159, Note_off_c, 1, 52, 0
1, 120161, Note_on_c, 1, 57, 127
1, 120161, Note_on_c, 1, 73, 127
1, 120347, Note_off_c, 1, 80, 0
1, 120539, Note_off_c, 1, 64, 0
1, 120541, Note_on_c, 1, 66, 127
1, 120541, Note_on_c, 1, 78, 127
1, 120729, Note_off_c, 1, 66, 0
1, 120729, Note_off_c, 1, 78, 0
1, 120731, Note_on_c, 1, 68, 127
1, 120731, Note_on_c, 1, 76, 127
1, 120919, Note_off_c, 1, 68, 0
1, 120919, Note_off_c, 1, 76, 0
1, 120921, Note_on_c, 1, 69, 127
1, 121299, Note_off_c, 1, 57, 0
1, 121299, Note_off_c, 1, 73, 0
1, 121476, Note_off_c, 1, 69, 0
1, 121492, Note_on_c, 1, 75, 127
1, 121680, Note_off_c, 1, 75, 0
1, 121682, Note_on_c, 1, 76, 127
1, 121682, Note_on_c, 1, 58, 127
1, 121872, Note_on_c, 1, 73, 127
1, 122062, Note_on_c, 1, 70, 127
1, 122252, Note_on_c, 1, 66, 127
1, 122434, Note_off_c, 1, 76, 0
1, 122630, Note_off_c, 1, 58, 0
1, 122632, Note_on_c, 1, 54, 127
1, 122820, Note_off_c, 1, 54, 0
1, 122822, Note_on_c, 1, 56, 127
1, 123010, Note_off_c, 1, 56, 0
1, 123012, Note_on_c, 1, 78, 127
1, 123198, Note_off_c, 1, 73, 0
1, 123200, Note_off_c, 1, 70, 0
1, 123200, Note_off_c, 1, 78, 0
1, 123202, Note_on_c, 1, 59, 127
1, 123202, Note_on_c, 1, 75, 127
1, 123582, Note_on_c, 1, 71, 127
1, 123770, Note_off_c, 1, 71, 0
1, 124150, Note_off_c, 1, 59, 0
1, 124152, Note_on_c, 1, 61, 127
1, 124340, Note_off_c, 1, 61, 0
1, 124722, Note_on_c, 1, 57, 127
1, 125102, Note_on_c, 1, 51, 127
1, 125292, Note_on_c, 1, 47, 127
1, 125419, Note_off_c, 1, 66, 0
1, 125475, Note_off_c, 1, 57, 0
1, 125479, Note_off_c, 1, 75, 0
1, 125479, Note_off_c, 1, 51, 0
1, 125481, Note_off_c, 1, 47, 0
1, 125483, Note_on_c, 1, 74, 127
1, 125483, Note_on_c, 1, 56, 127
1, 125483, Note_on_c, 1, 71, 127
1, 125576, Note_off_c, 1, 74, 0
1, 125578, Note_on_c, 1, 73, 127
1, 125671, Note_off_c, 1, 73, 0
1, 125673, Note_on_c, 1, 59, 127
1, 125863, Note_on_c, 1, 64, 127
1, 126053, Note_on_c, 1, 76, 127
1, 126228, Note_off_c, 1, 59, 0
1, 126236, Note_off_c, 1, 56, 0
1, 126242, Note_off_c, 1, 76, 0
1, 126244, Note_on_c, 1, 57, 127
1, 126622, Note_off_c, 1, 71, 0
1, 126622, Note_off_c, 1, 57, 0
1, 126624, Note_on_c, 1, 69, 127
1, 126812, Note_off_c, 1, 69, 0
1, 126814, Note_on_c, 1, 68, 127
1, 127002, Note_off_c, 1, 64, 0
1, 127002, Note_off_c, 1, 68, 0
1, 127004, Note_on_c, 1, 69, 127
1, 127004, Note_on_c, 1, 54, 127
1, 127192, Note_off_c, 1, 69, 0
1, 127194, Note_on_c, 1, 73, 127
1, 127382, Note_off_c, 1, 54, 0
1, 127382, Note_off_c, 1, 73, 0
1, 127384, Note_on_c, 1, 66, 127
1, 127384, Note_on_c, 1, 52, 127
1, 127572, Note_off_c, 1, 66, 0
1, 127574, Note_on_c, 1, 68, 127
1, 127762, Note_off_c, 1, 52, 0
1, 127762, Note_off_c, 1, 68, 0
1, 127764, Note_on_c, 1, 51, 127
1, 127764, Note_on_c, 1, 69, 127
1, 127954, Note_on_c, 1, 66, 127
1, 128142, Note_off_c, 1, 51, 0
1, 128144, Note_on_c, 1, 63, 127
1, 128144, Note_on_c, 1, 47, 127
1, 128334, Note_on_c, 1, 59, 127
1, 128509, Note_off_c, 1, 66, 0
1, 128517, Note_off_c, 1, 69, 0
1, 128521, Note_off_c, 1, 63, 0
1, 128523, Note_off_c, 1, 47, 0
1, 128523, Note_off_c, 1, 59, 0
1, 128525, Note_on_c, 1, 68, 127
1, 128525, Note_on_c, 1, 52, 127
1, 128715, Note_on_c, 1, 59, 127
1, 128903, Note_off_c, 1, 59, 0
1, 128905, Note_on_c, 1, 64, 127
1, 128905, Note_on_c, 1, 40, 127
1, 129080, Note_off_c, 1, 68, 0
1, 129282, Note_off_c, 1, 64, 0
1, 129284, Note_off_c, 1, 40, 0
1, 129286, Note_on_c, 1, 45, 127
1, 129286, Note_on_c, 1, 61, 127
1, 129664, Note_off_c, 1, 52, 0
1, 129666, Note_on_c, 1, 54, 127
1, 129666, Note_on_c, 1, 66, 127
1, 129854, Note_off_c, 1, 54, 0
1, 129854, Note_off_c, 1, 66, 0
1, 129856, Note_on_c, 1, 56, 127
1, 130044, Note_off_c, 1, 56, 0
1, 130046, Note_on_c, 1, 57, 127
1, 130236, Note_on_c, 1, 69, 127
1, 130424, Note_off_c, 1, 45, 0
1, 130424, Note_off_c, 1, 61, 0
1, 130424, Note_off_c, 1, 69, 0
1, 130601, Note_off_c, 1, 57, 0
1, 130617, Note_on_c, 1, 63, 127
1, 130805, Note_off_c, 1, 63, 0
1, 130807, Note_on_c, 1, 64, 127
1, 130807, Note_on_c, 1, 46, 127
1, 130997, Note_on_c, 1, 61, 127
1, 131187, Note_on_c, 1, 58, 127
1, 131377, Note_on_c, 1, 54, 127
1, 131559, Note_off_c, 1, 64, 0
1, 131755, Note_off_c, 1, 46, 0
1, 131757, Note_on_c, 1, 42, 127
1, 131945, Note_off_c, 1, 42, 0
1, 131947, Note_on_c, 1, 44, 127
1, 132135, Note_off_c, 1, 44, 0
1, 132137, Note_on_c, 1, 66, 127
1, 132323, Note_off_c, 1, 61, 0
1, 132325, Note_off_c, 1, 58, 0
1, 132325, Note_off_c, 1, 66, 0
1, 132327, Note_off_c, 1, 54, 0
1, 132327, Note_on_c, 1, 35, 127
1, 132454, Note_on_c, 1, 63, 127
1, 132515, Note_off_c, 1, 35, 0
1, 132515, Note_off_c, 1, 63, 0
1, 132517, Note_on_c, 1, 64, 127
1, 132517, Note_on_c, 1, 47, 127
1, 132578, Note_off_c, 1, 64, 0
1, 132580, Note_on_c, 1, 63, 127
1, 132641, Note_off_c, 1, 63, 0
1, 132706, Note_on_c, 1, 51, 127
1, 132896, Note_on_c, 1, 54, 127
1, 133086, Note_on_c, 1, 59, 127
1, 133466, Note_on_c, 1, 66, 127
1, 133654, Note_off_c, 1, 66, 0
1, 133656, Note_on_c, 1, 71, 127
1, 133838, Note_off_c, 1, 59, 0
1, 133844, Note_off_c, 1, 51, 0
1, 133844, Note_off_c, 1, 54, 0
1, 133846, Note_on_c, 1, 52, 127
1, 133846, Note_on_c, 1, 61, 127
1, 134032, Note_off_c, 1, 71, 0
1, 134226, Note_on_c, 1, 70, 127
1, 134414, Note_off_c, 1, 70, 0
1, 134416, Note_on_c, 1, 68, 127
1, 134604, Note_off_c, 1, 68, 0
1, 134796, Note_on_c, 1, 73, 127
1, 134984, Note_off_c, 1, 73, 0
1, 135364, Note_off_c, 1, 52, 0
1, 135364, Note_off_c, 1, 61, 0
1, 135366, Note_on_c, 1, 69, 127
1, 136126, Note_on_c, 1, 56, 127
1, 136504, Note_off_c, 1, 69, 0
1, 136694, Note_off_c, 1, 56, 0
1, 136696, Note_on_c, 1, 58, 127
1, 136885, Note_off_c, 1, 58, 0
1, 138408, Note_on_c, 1, 57, 127
1, 138596, Note_off_c, 1, 57, 0
1, 138851, Note_off_c, 1, 47, 0
1, 139550, Note_on_c, 1, 55, 127
1, 139928, Note_off_c, 1, 55, 0
1, 142035, Note_on_c, 1, 62, 127
1, 142223, Note_off_c, 1, 62, 0
1, 142795, Note_on_c, 1, 60, 127
1, 142983, Note_off_c, 1, 60, 0
1, 142985, Note_on_c, 1, 52, 127
1, 142985, Note_on_c, 1, 64, 127
1, 142985, Note_on_c, 1, 59, 127
1, 142985, Note_on_c, 1, 56, 127
1, 143175, Note_on_c, 1, 40, 127
1, 143365, Note_on_c, 1, 44, 127
1, 143553, Note_off_c, 1, 44, 0
1, 143555, Note_on_c, 1, 47, 127
1, 143737, Note_off_c, 1, 52, 0
1, 144304, Note_off_c, 1, 64, 0
1, 144304, Note_off_c, 1, 59, 0
1, 144304, Note_off_c, 1, 56, 0
1, 144316, Note_on_c, 1, 71, 127
1, 144491, Note_off_c, 1, 47, 0
1, 144503, Note_off_c, 1, 40, 0
1, 144505, Note_off_c, 1, 71, 0
1, 144507, Note_on_c, 1, 71, 127
1, 144697, Note_on_c, 1, 52, 127
1, 144887, Note_on_c, 1, 56, 127
1, 145077, Note_on_c, 1, 59, 127
1, 145267, Note_on_c, 1, 64, 127
1, 145457, Note_on_c, 1, 68, 127
1, 145645, Note_off_c, 1, 71, 0
1, 145837, Note_on_c, 1, 76, 127
1, 146012, Note_off_c, 1, 68, 0
1, 146020, Note_off_c, 1, 64, 0
1, 146026, Note_off_c, 1, 56, 0
1, 146026, Note_off_c, 1, 76, 0
1, 146028, Note_off_c, 1, 59, 0
1, 146028, Note_on_c, 1, 66, 127
1, 146028, Note_on_c, 1, 61, 127
1, 146155, Note_on_c, 1, 70, 127
1, 146216, Note_off_c, 1, 52, 0
1, 146216, Note_off_c, 1, 70, 0
1, 146218, Note_on_c, 1, 55, 127
1, 146405, Note_off_c, 1, 55, 0
1, 146407, Note_on_c, 1, 49, 127
1, 146594, Note_off_c, 1, 49, 0
1, 146786, Note_on_c, 1, 46, 127
1, 146974, Note_off_c, 1, 46, 0
1, 147166, Note_on_c, 1, 42, 127
1, 147354, Note_off_c, 1, 42, 0
1, 147546, Note_on_c, 1, 50, 127
1, 147736, Note_on_c, 1, 54, 127
1, 147926, Note_on_c, 1, 58, 127
1, 148114, Note_off_c, 1, 66, 0
1, 148291, Note_off_c, 1, 54, 0
1, 148303, Note_off_c, 1, 61, 0
1, 148303, Note_off_c, 1, 58, 0
1, 148307, Note_on_c, 1, 62, 127
1, 148685, Note_off_c, 1, 50, 0
1, 148877, Note_on_c, 1, 74, 127
1, 149060, Note_off_c, 1, 62, 0
1, 149066, Note_off_c, 1, 74, 0
1, 149258, Note_on_c, 1, 79, 127
1, 149446, Note_off_c, 1, 79, 0
1, 149448, Note_on_c, 1, 73, 127
1, 149636, Note_off_c, 1, 73, 0
1, 149828, Note_on_c, 1, 70, 127
1, 149828, Note_on_c, 1, 54, 127
1, 150016, Note_off_c, 1, 70, 0
1, 150018, Note_on_c, 1, 73, 127
1, 150206, Note_off_c, 1, 73, 0
1, 150208, Note_on_c, 1, 42, 127
1, 150208, Note_on_c, 1, 66, 127
1, 150398, Note_on_c, 1, 76, 127
1, 150580, Note_off_c, 1, 54, 0
1, 150586, Note_off_c, 1, 42, 0
1, 150586, Note_off_c, 1, 76, 0
1, 150588, Note_on_c, 1, 74, 127
1, 150588, Note_on_c, 1, 47, 127
1, 150763, Note_off_c, 1, 66, 0
1, 150969, Note_on_c, 1, 68, 127
1, 151157, Note_off_c, 1, 68, 0
1, 151341, Note_off_c, 1, 74, 0
1, 151349, Note_on_c, 1, 71, 127
1, 151729, Note_on_c, 1, 67, 127
1, 151918, Note_off_c, 1, 71, 0
1, 152105, Note_off_c, 1, 67, 0
1, 152109, Note_on_c, 1, 65, 127
1, 152297, Note_off_c, 1, 47, 0
1, 152299, Note_on_c, 1, 50, 127
1, 152487, Note_off_c, 1, 50, 0
1, 152489, Note_on_c, 1, 44, 127
1, 152677, Note_off_c, 1, 44, 0
1, 152869, Note_on_c, 1, 41, 127
1, 153057, Note_off_c, 1, 41, 0
1, 153249, Note_on_c, 1, 37, 127
1, 153437, Note_off_c, 1, 37, 0
1, 153627, Note_off_c, 1, 65, 0
1, 153629, Note_on_c, 1, 69, 127
1, 153629, Note_on_c, 1, 45, 127
1, 153819, Note_on_c, 1, 49, 127
1, 154199, Note_on_c, 1, 57, 127
1, 154374, Note_off_c, 1, 49, 0
1, 154388, Note_off_c, 1, 69, 0
1, 154388, Note_off_c, 1, 57, 0
1, 154390, Note_on_c, 1, 51, 127
1, 154390, Note_on_c, 1, 59, 127
1, 154580, Note_on_c, 1, 63, 127
1, 154768, Note_off_c, 1, 45, 0
1, 154768, Note_off_c, 1, 51, 0
1, 155135, Note_off_c, 1, 63, 0
1, 155143, Note_off_c, 1, 59, 0
1, 155531, Note_on_c, 1, 73, 127
1, 155531, Note_on_c, 1, 51, 127
1, 155719, Note_off_c, 1, 73, 0
1, 155719, Note_off_c, 1, 51, 0
1, 155721, Note_on_c, 1, 71, 127
1, 155721, Note_on_c, 1, 53, 127
1, 155909, Note_off_c, 1, 71, 0
1, 155909, Note_off_c, 1, 53, 0
1, 155911, Note_on_c, 1, 54, 127
1, 155911, Note_on_c, 1, 69, 127
1, 156099, Note_off_c, 1, 54, 0
1, 156101, Note_on_c, 1, 53, 127
1, 156101, Note_on_c, 1, 66, 127
1, 156287, Note_off_c, 1, 69, 0
1, 156289, Note_off_c, 1, 53, 0
1, 156291, Note_on_c, 1, 74, 127
1, 156477, Note_off_c, 1, 66, 0
1, 156481, Note_on_c, 1, 65, 127
1, 156481, Note_on_c, 1, 56, 127
1, 156667, Note_off_c, 1, 74, 0
1, 156669, Note_off_c, 1, 65, 0
1, 156669, Note_off_c, 1, 56, 0
1, 156671, Note_on_c, 1, 57, 127
1, 156671, Note_on_c, 1, 73, 127
1, 156859, Note_off_c, 1, 57, 0
1, 156861, Note_on_c, 1, 65, 127
1, 156861, Note_on_c, 1, 56, 127
1, 157049, Note_off_c, 1, 65, 0
1, 157049, Note_off_c, 1, 56, 0
1, 157051, Note_on_c, 1, 66, 127
1, 157226, Note_off_c, 1, 73, 0
1, 157242, Note_on_c, 1, 68, 127
1, 157242, Note_on_c, 1, 59, 127
1, 157430, Note_off_c, 1, 68, 0
1, 157430, Note_off_c, 1, 59, 0
1, 157432, Note_on_c, 1, 69, 127
1, 157432, Note_on_c, 1, 61, 127
1, 157607, Note_off_c, 1, 66, 0
1, 157809, Note_off_c, 1, 69, 0
1, 157811, Note_off_c, 1, 61, 0
1, 157813, Note_on_c, 1, 49, 127
1, 158191, Note_off_c, 1, 49, 0
1, 158193, Note_on_c, 1, 66, 127
1, 158193, Note_on_c, 1, 54, 127
1, 158389, Note_on_c, 1, 73, 127
1, 158389, Note_on_c, 1, 57, 127
1, 158421, Note_off_c, 1, 66, 0
1, 158577, Note_off_c, 1, 73, 0
1, 158577, Note_off_c, 1, 57, 0
1, 158589, Note_on_c, 1, 61, 127
1, 158589, Note_on_c, 1, 78, 127
1, 158777, Note_off_c, 1, 61, 0
1, 158777, Note_off_c, 1, 78, 0
1, 158779, Note_on_c, 1, 65, 127
1, 158779, Note_on_c, 1, 80, 127
1, 158945, Note_off_c, 1, 54, 0
1, 158967, Note_off_c, 1, 65, 0
1, 158967, Note_off_c, 1, 80, 0
1, 158969, Note_on_c, 1, 81, 127
1, 158969, Note_on_c, 1, 66, 127
1, 159062, Note_off_c, 1, 81, 0
1, 159064, Note_on_c, 1, 80, 127
1, 159157, Note_off_c, 1, 66, 0
1, 159157, Note_off_c, 1, 80, 0
1, 159159, Note_on_c, 1, 69, 127
1, 159159, Note_on_c, 1, 81, 127
1, 159347, Note_off_c, 1, 69, 0
1, 159349, Note_on_c, 1, 62, 127
1, 159349, Note_on_c, 1, 54, 127
1, 159537, Note_off_c, 1, 81, 0
1, 159537, Note_off_c, 1, 62, 0
1, 159539, Note_on_c, 1, 66, 127
1, 159725, Note_off_c, 1, 54, 0
1, 159727, Note_off_c, 1, 66, 0
1, 159729, Note_on_c, 1, 81, 127
1, 159729, Note_on_c, 1, 60, 127
1, 159729, Note_on_c, 1, 56, 127
1, 159917, Note_off_c, 1, 81, 0
1, 159919, Note_on_c, 1, 78, 127
1, 160107, Note_off_c, 1, 78, 0
1, 160109, Note_on_c, 1, 75, 127
1, 160297, Note_off_c, 1, 75, 0
1, 160481, Note_off_c, 1, 60, 0
1, 160489, Note_on_c, 1, 72, 127
1, 160677, Note_off_c, 1, 56, 0
1, 160677, Note_off_c, 1, 72, 0
1, 160679, Note_on_c, 1, 56, 127
1, 160679, Note_on_c, 1, 75, 127
1, 160867, Note_off_c, 1, 56, 0
1, 160867, Note_off_c, 1, 75, 0
1, 160869, Note_on_c, 1, 58, 127
1, 160869, Note_on_c, 1, 68, 127
1, 161057, Note_off_c, 1, 58, 0
1, 161057, Note_off_c, 1, 68, 0
1, 161059, Note_on_c, 1, 60, 127
1, 161059, Note_on_c, 1, 78, 127
1, 161247, Note_off_c, 1, 60, 0
1, 161247, Note_off_c, 1, 78, 0
1, 161249, Note_on_c, 1, 61, 127
1, 161249, Note_on_c, 1, 76, 127
1, 161437, Note_off_c, 1, 61, 0
1, 161439, Note_on_c, 1, 64, 127
1, 161439, Note_on_c, 1, 75, 127
1, 161627, Note_off_c, 1, 64, 0
1, 161627, Note_off_c, 1, 75, 0
1, 161629, Note_on_c, 1, 57, 127
1, 161629, Note_on_c, 1, 73, 127
1, 161817, Note_off_c, 1, 57, 0
1, 161817, Note_off_c, 1, 73, 0
1, 161819, Note_on_c, 1, 71, 127
1, 162007, Note_off_c, 1, 71, 0
1, 162009, Note_on_c, 1, 54, 127
1, 162009, Note_on_c, 1, 69, 127
1, 162197, Note_off_c, 1, 54, 0
1, 162387, Note_off_c, 1, 76, 0
1, 162389, Note_on_c, 1, 51, 127
1, 162577, Note_off_c, 1, 51, 0
1, 162769, Note_on_c, 1, 72, 127
1, 162769, Note_on_c, 1, 44, 127
1, 162959, Note_off_c, 1, 69, 0
1, 162959, Note_on_c, 1, 68, 127
1, 163145, Note_off_c, 1, 72, 0
1, 163149, Note_on_c, 1, 56, 127
1, 163149, Note_on_c, 1, 70, 127
1, 163337, Note_off_c, 1, 56, 0
1, 163337, Note_off_c, 1, 70, 0
1, 163521, Note_off_c, 1, 44, 0
1, 163529, Note_on_c, 1, 52, 127
1, 163905, Note_off_c, 1, 52, 0
1, 164099, Note_on_c, 1, 60, 127
1, 164278, Note_off_c, 1, 68, 0
1, 164288, Note_off_c, 1, 60, 0
1, 164290, Note_on_c, 1, 49, 127
1, 164290, Note_on_c, 1, 76, 127
1, 164478, Note_off_c, 1, 49, 0
1, 164478, Note_off_c, 1, 76, 0
1, 164480, Note_on_c, 1, 51, 127
1, 164480, Note_on_c, 1, 78, 127
1, 164668, Note_off_c, 1, 51, 0
1, 164668, Note_off_c, 1, 78, 0
1, 164670, Note_on_c, 1, 52, 127
1, 164670, Note_on_c, 1, 80, 127
1, 164858, Note_off_c, 1, 52, 0
1, 164858, Note_off_c, 1, 80, 0
1, 164860, Note_on_c, 1, 54, 127
1, 164860, Note_on_c, 1, 81, 127
1, 165048, Note_off_c, 1, 54, 0
1, 165048, Note_off_c, 1, 81, 0
1, 165050, Note_on_c, 1, 76, 127
1, 165050, Note_on_c, 1, 72, 127
1, 165050, Note_on_c, 1, 56, 127
1, 165175, Note_off_c, 1, 76, 0
1, 165177, Note_on_c, 1, 75, 127
1, 165238, Note_off_c, 1, 75, 0
1, 165429, Note_on_c, 1, 44, 127
1, 165619, Note_on_c, 1, 73, 127
1, 165801, Note_off_c, 1, 72, 0
1, 165807, Note_off_c, 1, 44, 0
1, 165807, Note_off_c, 1, 73, 0
1, 165809, Note_on_c, 1, 49, 127
1, 165999, Note_on_c, 1, 68, 127
1, 166189, Note_on_c, 1, 64, 127
1, 166373, Note_off_c, 1, 56, 0
1, 166561, Note_off_c, 1, 49, 0
1, 166579, Note_on_c, 1, 61, 127
1, 166667, Note_on_c, 1, 60, 127
1, 166672, Note_off_c, 1, 61, 0
1, 166743, Note_off_c, 1, 64, 0
1, 166751, Note_off_c, 1, 68, 0
1, 166759, Note_on_c, 1, 74, 127
1, 166760, Note_off_c, 1, 60, 0
1, 166947, Note_off_c, 1, 74, 0
1, 167139, Note_on_c, 1, 59, 127
1, 167139, Note_on_c, 1, 74, 127
1, 167327, Note_off_c, 1, 59, 0
1, 167327, Note_off_c, 1, 74, 0
1, 167329, Note_on_c, 1, 58, 127
1, 167329, Note_on_c, 1, 76, 127
1, 167517, Note_off_c, 1, 58, 0
1, 167517, Note_off_c, 1, 76, 0
1, 167519, Note_on_c, 1, 59, 127
1, 167519, Note_on_c, 1, 79, 127
1, 167707, Note_off_c, 1, 59, 0
1, 167707, Note_off_c, 1, 79, 0
1, 167709, Note_on_c, 1, 58, 127
1, 167709, Note_on_c, 1, 73, 127
1, 167897, Note_off_c, 1, 58, 0
1, 167897, Note_off_c, 1, 73, 0
1, 167899, Note_on_c, 1, 56, 127
1, 167899, Note_on_c, 1, 76, 127
1, 168087, Note_off_c, 1, 56, 0
1, 168087, Note_off_c, 1, 76, 0
1, 168089, Note_on_c, 1, 54, 127
1, 168089, Note_on_c, 1, 70, 127
1, 168277, Note_off_c, 1, 54, 0
1, 168277, Note_off_c, 1, 70, 0
1, 168279, Note_on_c, 1, 52, 127
1, 168279, Note_on_c, 1, 73, 127
1, 168467, Note_off_c, 1, 52, 0
1, 168467, Note_off_c, 1, 73, 0
1, 168469, Note_on_c, 1, 50, 127
1, 168469, Note_on_c, 1, 66, 127
1, 168657, Note_off_c, 1, 50, 0
1, 168657, Note_off_c, 1, 66, 0
1, 168659, Note_on_c, 1, 49, 127
1, 168659, Note_on_c, 1, 76, 127
1, 168847, Note_off_c, 1, 49, 0
1, 168847, Note_off_c, 1, 76, 0
1, 168849, Note_on_c, 1, 47, 127
1, 168849, Note_on_c, 1, 74, 127
1, 169039, Note_on_c, 1, 71, 127
1, 169229, Note_on_c, 1, 66, 127
1, 169419, Note_on_c, 1, 54, 127
1, 169601, Note_off_c, 1, 47, 0
1, 169607, Note_off_c, 1, 54, 0
1, 169609, Note_on_c, 1, 59, 127
1, 169702, Note_off_c, 1, 59, 0
1, 169704, Note_on_c, 1, 58, 127
1, 169791, Note_off_c, 1, 71, 0
1, 169797, Note_off_c, 1, 66, 0
1, 169797, Note_off_c, 1, 58, 0
1, 169799, Note_off_c, 1, 74, 0
1, 169799, Note_on_c, 1, 73, 127
1, 169987, Note_off_c, 1, 73, 0
1, 170179, Note_on_c, 1, 57, 127
1, 170179, Note_on_c, 1, 73, 127
1, 170367, Note_off_c, 1, 57, 0
1, 170367, Note_off_c, 1, 73, 0
1, 170369, Note_on_c, 1, 56, 127
1, 170369, Note_on_c, 1, 74, 127
1, 170557, Note_off_c, 1, 56, 0
1, 170557, Note_off_c, 1, 74, 0
1, 170559, Note_on_c, 1, 76, 127
1, 170559, Note_on_c, 1, 57, 127
1, 170652, Note_off_c, 1, 76, 0
1, 170654, Note_on_c, 1, 78, 127
1, 170747, Note_off_c, 1, 57, 0
1, 170747, Note_off_c, 1, 78, 0
1, 170749, Note_on_c, 1, 56, 127
1, 170749, Note_on_c, 1, 71, 127
1, 170937, Note_off_c, 1, 56, 0
1, 170937, Note_off_c, 1, 71, 0
1, 170939, Note_on_c, 1, 73, 127
1, 170939, Note_on_c, 1, 54, 127
1, 171032, Note_off_c, 1, 73, 0
1, 171034, Note_on_c, 1, 74, 127
1, 171127, Note_off_c, 1, 54, 0
1, 171127, Note_off_c, 1, 74, 0
1, 171129, Note_on_c, 1, 52, 127
1, 171129, Note_on_c, 1, 68, 127
1, 171317, Note_off_c, 1, 52, 0
1, 171317, Note_off_c, 1, 68, 0
1, 171319, Note_on_c, 1, 69, 127
1, 171319, Note_on_c, 1, 50, 127
1, 171412, Note_off_c, 1, 69, 0
1, 171414, Note_on_c, 1, 71, 127
1, 171507, Note_off_c, 1, 50, 0
1, 171507, Note_off_c, 1, 71, 0
1, 171509, Note_on_c, 1, 49, 127
1, 171509, Note_on_c, 1, 64, 127
1, 171697, Note_off_c, 1, 49, 0
1, 171697, Note_off_c, 1, 64, 0
1, 171699, Note_on_c, 1, 47, 127
1, 171699, Note_on_c, 1, 74, 127
1, 171887, Note_off_c, 1, 47, 0
1, 171887, Note_off_c, 1, 74, 0
1, 171889, Note_on_c, 1, 45, 127
1, 171889, Note_on_c, 1, 73, 127
1, 172079, Note_on_c, 1, 69, 127
1, 172269, Note_on_c, 1, 64, 127
1, 172459, Note_on_c, 1, 52, 127
1, 172641, Note_off_c, 1, 45, 0
1, 172647, Note_off_c, 1, 52, 0
1, 172649, Note_on_c, 1, 57, 127
1, 172742, Note_off_c, 1, 57, 0
1, 172744, Note_on_c, 1, 56, 127
1, 172831, Note_off_c, 1, 69, 0
1, 172837, Note_off_c, 1, 64, 0
1, 172837, Note_off_c, 1, 56, 0
1, 172839, Note_off_c, 1, 73, 0
1, 173029, Note_on_c, 1, 71, 127
1, 173217, Note_off_c, 1, 71, 0
1, 173219, Note_on_c, 1, 55, 127
1, 173219, Note_on_c, 1, 73, 127
1, 173407, Note_off_c, 1, 55, 0
1, 173407, Note_off_c, 1, 73, 0
1, 173409, Note_on_c, 1, 54, 127
1, 173409, Note_on_c, 1, 74, 127
1, 173597, Note_off_c, 1, 54, 0
1, 173597, Note_off_c, 1, 74, 0
1, 173599, Note_on_c, 1, 55, 127
1, 173599, Note_on_c, 1, 76, 127
1, 173787, Note_off_c, 1, 55, 0
1, 173787, Note_off_c, 1, 76, 0
1, 173789, Note_on_c, 1, 54, 127
1, 173789, Note_on_c, 1, 74, 127
1, 173977, Note_off_c, 1, 54, 0
1, 173977, Note_off_c, 1, 74, 0
1, 173979, Note_on_c, 1, 52, 127
1, 173979, Note_on_c, 1, 73, 127
1, 174167, Note_off_c, 1, 52, 0
1, 174167, Note_off_c, 1, 73, 0
1, 174169, Note_on_c, 1, 50, 127
1, 174169, Note_on_c, 1, 71, 127
1, 174357, Note_off_c, 1, 50, 0
1, 174357, Note_off_c, 1, 71, 0
1, 174359, Note_on_c, 1, 49, 127
1, 174359, Note_on_c, 1, 69, 127
1, 174547, Note_off_c, 1, 49, 0
1, 174547, Note_off_c, 1, 69, 0
1, 174549, Note_on_c, 1, 47, 127
1, 174549, Note_on_c, 1, 68, 127
1, 174737, Note_off_c, 1, 47, 0
1, 174737, Note_off_c, 1, 68, 0
1, 174739, Note_on_c, 1, 45, 127
1, 174739, Note_on_c, 1, 69, 127
1, 174927, Note_off_c, 1, 45, 0
1, 174927, Note_off_c, 1, 69, 0
1, 174929, Note_on_c, 1, 69, 127
1, 174929, Note_on_c, 1, 52, 127
1, 174990, Note_off_c, 1, 69, 0
1, 174992, Note_on_c, 1, 68, 127
1, 175053, Note_off_c, 1, 68, 0
1, 175308, Note_on_c, 1, 64, 127
1, 175496, Note_off_c, 1, 52, 0
1, 175496, Note_off_c, 1, 64, 0
1, 175498, Note_on_c, 1, 50, 127
1, 175498, Note_on_c, 1, 71, 127
1, 175686, Note_off_c, 1, 50, 0
1, 175686, Note_off_c, 1, 71, 0
1, 175688, Note_on_c, 1, 49, 127
1, 175688, Note_on_c, 1, 76, 127
1, 175876, Note_off_c, 1, 49, 0
1, 175878, Note_on_c, 1, 45, 127
1, 176066, Note_off_c, 1, 45, 0
1, 176256, Note_off_c, 1, 76, 0
1, 176258, Note_on_c, 1, 52, 127
1, 176258, Note_on_c, 1, 74, 127
1, 176446, Note_off_c, 1, 52, 0
1, 176446, Note_off_c, 1, 74, 0
1, 176448, Note_on_c, 1, 73, 127
1, 176448, Note_on_c, 1, 57, 127
1, 176636, Note_off_c, 1, 73, 0
1, 176638, Note_on_c, 1, 69, 127
1, 176826, Note_off_c, 1, 69, 0
1, 177016, Note_off_c, 1, 57, 0
1, 177018, Note_on_c, 1, 55, 127
1, 177018, Note_on_c, 1, 76, 127
1, 177206, Note_off_c, 1, 55, 0
1, 177206, Note_off_c, 1, 76, 0
1, 177208, Note_on_c, 1, 54, 127
1, 177208, Note_on_c, 1, 81, 127
1, 177396, Note_off_c, 1, 54, 0
1, 177398, Note_on_c, 1, 50, 127
1, 177586, Note_off_c, 1, 50, 0
1, 177776, Note_off_c, 1, 81, 0
1, 177778, Note_on_c, 1, 57, 127
1, 177778, Note_on_c, 1, 79, 127
1, 177966, Note_off_c, 1, 57, 0
1, 177966, Note_off_c, 1, 79, 0
1, 177968, Note_on_c, 1, 78, 127
1, 177968, Note_on_c, 1, 62, 127
1, 178156, Note_off_c, 1, 78, 0
1, 178158, Note_on_c, 1, 81, 127
1, 178346, Note_off_c, 1, 62, 0
1, 178346, Note_off_c, 1, 81, 0
1, 178348, Note_on_c, 1, 74, 127
1, 178348, Note_on_c, 1, 61, 127
1, 178536, Note_off_c, 1, 74, 0
1, 178538, Note_on_c, 1, 76, 127
1, 178726, Note_off_c, 1, 61, 0
1, 178726, Note_off_c, 1, 76, 0
1, 178728, Note_on_c, 1, 78, 127
1, 178728, Note_on_c, 1, 59, 127
1, 178916, Note_off_c, 1, 78, 0
1, 178918, Note_on_c, 1, 74, 127
1, 179106, Note_off_c, 1, 59, 0
1, 179106, Note_off_c, 1, 74, 0
1, 179108, Note_on_c, 1, 71, 127
1, 179108, Note_on_c, 1, 57, 127
1, 179296, Note_off_c, 1, 71, 0
1, 179298, Note_on_c, 1, 73, 127
1, 179486, Note_off_c, 1, 57, 0
1, 179486, Note_off_c, 1, 73, 0
1, 179488, Note_on_c, 1, 74, 127
1, 179488, Note_on_c, 1, 59, 127
1, 179676, Note_off_c, 1, 74, 0
1, 179678, Note_on_c, 1, 78, 127
1, 179866, Note_off_c, 1, 59, 0
1, 179866, Note_off_c, 1, 78, 0
1, 179868, Note_on_c, 1, 71, 127
1, 179868, Note_on_c, 1, 57, 127
1, 180056, Note_off_c, 1, 71, 0
1, 180058, Note_on_c, 1, 73, 127
1, 180246, Note_off_c, 1, 57, 0
1, 180246, Note_off_c, 1, 73, 0
1, 180248, Note_on_c, 1, 74, 127
1, 180248, Note_on_c, 1, 56, 127
1, 180436, Note_off_c, 1, 74, 0
1, 180438, Note_on_c, 1, 71, 127
1, 180626, Note_off_c, 1, 56, 0
1, 180626, Note_off_c, 1, 71, 0
1, 180628, Note_on_c, 1, 68, 127
1, 180628, Note_on_c, 1, 54, 127
1, 180816, Note_off_c, 1, 68, 0
1, 180818, Note_on_c, 1, 69, 127
1, 181006, Note_off_c, 1, 54, 0
1, 181006, Note_off_c, 1, 69, 0
1, 181008, Note_on_c, 1, 69, 127
1, 181008, Note_on_c, 1, 52, 127
1, 181069, Note_off_c, 1, 69, 0
1, 181071, Note_on_c, 1, 68, 127
1, 181132, Note_off_c, 1, 68, 0
1, 181197, Note_on_c, 1, 54, 127
1, 181385, Note_off_c, 1, 54, 0
1, 181387, Note_on_c, 1, 56, 127
1, 181577, Note_on_c, 1, 66, 127
1, 181577, Note_on_c, 1, 59, 127
1, 181765, Note_off_c, 1, 66, 0
1, 181767, Note_on_c, 1, 64, 127
1, 182147, Note_on_c, 1, 71, 127
1, 182335, Note_off_c, 1, 71, 0
1, 182337, Note_on_c, 1, 76, 127
1, 182519, Note_off_c, 1, 64, 0
1, 182525, Note_off_c, 1, 56, 0
1, 182527, Note_off_c, 1, 59, 0
1, 182527, Note_on_c, 1, 57, 127
1, 182713, Note_off_c, 1, 76, 0
1, 182907, Note_on_c, 1, 75, 127
1, 183095, Note_off_c, 1, 75, 0
1, 183097, Note_on_c, 1, 73, 127
1, 183285, Note_off_c, 1, 73, 0
1, 183477, Note_on_c, 1, 78, 127
1, 183665, Note_off_c, 1, 78, 0
1, 184045, Note_off_c, 1, 57, 0
1, 184047, Note_on_c, 1, 74, 127
1, 184807, Note_on_c, 1, 61, 127
1, 185185, Note_off_c, 1, 74, 0
1, 185375, Note_off_c, 1, 61, 0
1, 185377, Note_on_c, 1, 63, 127
1, 185566, Note_off_c, 1, 63, 0
1, 187089, Note_on_c, 1, 62, 127
1, 187540, Note_off_c, 1, 52, 0
1, 187842, Note_off_c, 1, 62, 0
1, 188231, Note_on_c, 1, 60, 127
1, 188609, Note_off_c, 1, 60, 0
1, 190720, Note_on_c, 1, 67, 127
1, 190922, Note_off_c, 1, 67, 0
1, 191536, Note_on_c, 1, 65, 127
1, 191760, Note_off_c, 1, 65, 0
1, 191762, Note_on_c, 1, 57, 127
1, 191762, Note_on_c, 1, 69, 127
1, 191762, Note_on_c, 1, 64, 127
1, 191762, Note_on_c, 1, 61, 127
1, 191988, Note_on_c, 1, 45, 127
1, 192214, Note_on_c, 1, 49, 127
1, 192440, Note_on_c, 1, 52, 127
1, 192656, Note_off_c, 1, 57, 0
1, 192661, Note_off_c, 1, 49, 0
1, 195120, Note_off_c, 1, 69, 0
1, 195120, Note_off_c, 1, 64, 0
1, 195120, Note_off_c, 1, 61, 0
1, 195120, Note_off_c, 1, 45, 0
1, 195120, Note_off_c, 1, 52, 0
1, 196781, Note_on_c, 1, 81, 127
1, 197017, Note_off_c, 1, 81, 0
1, 197021, Note_on_c, 1, 73, 127
1, 197021, Note_on_c, 1, 57, 127
1, 197108, Note_on_c, 1, 76, 127
1, 197196, Note_on_c, 1, 81, 127
1, 197223, Note_on_c, 1, 45, 127
1, 197418, Note_off_c, 1, 45, 0
1, 197425, Note_on_c, 1, 47, 127
1, 197613, Note_off_c, 1, 73, 0
1, 197614, Note_off_c, 1, 81, 0
1, 197620, Note_off_c, 1, 47, 0
1, 197622, Note_on_c, 1, 49, 127
1, 197622, Note_on_c, 1, 80, 127
1, 197625, Note_off_c, 1, 76, 0
1, 197810, Note_off_c, 1, 49, 0
1, 197810, Note_off_c, 1, 80, 0
1, 197812, Note_on_c, 1, 78, 127
1, 197812, Note_on_c, 1, 50, 127
1, 198000, Note_off_c, 1, 78, 0
1, 198185, Note_off_c, 1, 57, 0
1, 198190, Note_off_c, 1, 50, 0
1, 198192, Note_on_c, 1, 74, 127
1, 198192, Note_on_c, 1, 56, 127
1, 198192, Note_on_c, 1, 52, 127
1, 198380, Note_off_c, 1, 74, 0
1, 198382, Note_on_c, 1, 73, 127
1, 198570, Note_off_c, 1, 56, 0
1, 198570, Note_off_c, 1, 52, 0
1, 198570, Note_off_c, 1, 73, 0
1, 198572, Note_on_c, 1, 73, 127
1, 198572, Note_on_c, 1, 54, 127
1, 198655, Note_on_c, 1, 56, 127
1, 198736, Note_off_c, 1, 56, 0
1, 198738, Note_on_c, 1, 57, 127
1, 198760, Note_off_c, 1, 73, 0
1, 198762, Note_on_c, 1, 74, 127
1, 198823, Note_off_c, 1, 74, 0
1, 198949, Note_off_c, 1, 54, 0
1, 198949, Note_off_c, 1, 57, 0
1, 199117, Note_on_c, 1, 59, 127
1, 199141, Note_on_c, 1, 76, 127
1, 199329, Note_off_c, 1, 59, 0
1, 199329, Note_off_c, 1, 76, 0
1, 199331, Note_on_c, 1, 74, 127
1, 199331, Note_on_c, 1, 57, 127
1, 199392, Note_off_c, 1, 74, 0
1, 199394, Note_on_c, 1, 73, 127
1, 199455, Note_off_c, 1, 73, 0
1, 199520, Note_on_c, 1, 61, 127
1, 199710, Note_on_c, 1, 64, 127
1, 199885, Note_off_c, 1, 57, 0
1, 199901, Note_on_c, 1, 56, 127
1, 199901, Note_on_c, 1, 71, 127
1, 200076, Note_off_c, 1, 61, 0
1, 200088, Note_off_c, 1, 64, 0
1, 200090, Note_off_c, 1, 56, 0
1, 200090, Note_off_c, 1, 71, 0
1, 200092, Note_on_c, 1, 54, 127
1, 200092, Note_on_c, 1, 69, 127
1, 200280, Note_off_c, 1, 54, 0
1, 200280, Note_off_c, 1, 69, 0
1, 200282, Note_on_c, 1, 52, 127
1, 200282, Note_on_c, 1, 68, 127
1, 200470, Note_off_c, 1, 52, 0
1, 200470, Note_off_c, 1, 68, 0
1, 200472, Note_on_c, 1, 50, 127
1, 200472, Note_on_c, 1, 66, 127
1, 200660, Note_off_c, 1, 50, 0
1, 200660, Note_off_c, 1, 66, 0
1, 200662, Note_on_c, 1, 49, 127
1, 200662, Note_on_c, 1, 74, 127
1, 200850, Note_off_c, 1, 49, 0
1, 200850, Note_off_c, 1, 74, 0
1, 200852, Note_on_c, 1, 73, 127
1, 200852, Note_on_c, 1, 50, 127
1, 200977, Note_off_c, 1, 73, 0
1, 200979, Note_on_c, 1, 71, 127
1, 201040, Note_off_c, 1, 71, 0
1, 201042, Note_on_c, 1, 54, 127
1, 201228, Note_off_c, 1, 50, 0
1, 201232, Note_on_c, 1, 47, 127
1, 201422, Note_on_c, 1, 69, 127
1, 201597, Note_off_c, 1, 54, 0
1, 201611, Note_off_c, 1, 47, 0
1, 201611, Note_off_c, 1, 69, 0
1, 201613, Note_on_c, 1, 69, 127
1, 201613, Note_on_c, 1, 52, 127
1, 201674, Note_off_c, 1, 69, 0
1, 201676, Note_on_c, 1, 68, 127
1, 201737, Note_off_c, 1, 68, 0
1, 201802, Note_on_c, 1, 56, 127
1, 201992, Note_on_c, 1, 59, 127
1, 202182, Note_on_c, 1, 66, 127
1, 202364, Note_off_c, 1, 52, 0
1, 202370, Note_off_c, 1, 66, 0
1, 202372, Note_on_c, 1, 64, 127
1, 202372, Note_on_c, 1, 50, 127
1, 202560, Note_off_c, 1, 64, 0
1, 202744, Note_off_c, 1, 59, 0
1, 202750, Note_off_c, 1, 50, 0
1, 202752, Note_off_c, 1, 56, 0
1, 202752, Note_on_c, 1, 49, 127
1, 202752, Note_on_c, 1, 57, 127
1, 203130, Note_off_c, 1, 49, 0
1, 203130, Note_off_c, 1, 57, 0
1, 203132, Note_on_c, 1, 69, 127
1, 203132, Note_on_c, 1, 50, 127
1, 203132, Note_on_c, 1, 47, 127
1, 203320, Note_off_c, 1, 69, 0
1, 203322, Note_on_c, 1, 71, 127
1, 203322, Note_on_c, 1, 56, 127
1, 203383, Note_off_c, 1, 71, 0
1, 203508, Note_off_c, 1, 50, 0
1, 203508, Note_off_c, 1, 47, 0
1, 203510, Note_off_c, 1, 56, 0
1, 203512, Note_on_c, 1, 52, 127
1, 203512, Note_on_c, 1, 45, 127
1, 203702, Note_on_c, 1, 57, 127
1, 203702, Note_on_c, 1, 73, 127
1, 203888, Note_off_c, 1, 52, 0
1, 203888, Note_off_c, 1, 45, 0
1, 203890, Note_off_c, 1, 57, 0
1, 203890, Note_off_c, 1, 73, 0
1, 203892, Note_on_c, 1, 44, 127
1, 203892, Note_on_c, 1, 74, 127
1, 204082, Note_on_c, 1, 47, 127
1, 204082, Note_on_c, 1, 71, 127
1, 204270, Note_off_c, 1, 47, 0
1, 204270, Note_off_c, 1, 71, 0
1, 204272, Note_on_c, 1, 68, 127
1, 204272, Note_on_c, 1, 52, 127
1, 204447, Note_off_c, 1, 44, 0
1, 204447, Note_off_c, 1, 74, 0
1, 204463, Note_on_c, 1, 40, 127
1, 204463, Note_on_c, 1, 76, 127
1, 204649, Note_off_c, 1, 68, 0
1, 204651, Note_off_c, 1, 40, 0
1, 204651, Note_off_c, 1, 76, 0
1, 204653, Note_on_c, 1, 45, 127
1, 204653, Note_on_c, 1, 69, 127
1, 204716, Note_on_c, 1, 73, 127
1, 204777, Note_off_c, 1, 73, 0
1, 205024, Note_off_c, 1, 52, 0
1, 205030, Note_off_c, 1, 45, 0
1, 205032, Note_on_c, 1, 50, 127
1, 205032, Note_on_c, 1, 54, 127
1, 205404, Note_off_c, 1, 69, 0
1, 205410, Note_off_c, 1, 50, 0
1, 205410, Note_off_c, 1, 54, 0
1, 205412, Note_on_c, 1, 73, 127
1, 205412, Note_on_c, 1, 52, 127
1, 205412, Note_on_c, 1, 68, 127
1, 205537, Note_off_c, 1, 73, 0
1, 205539, Note_on_c, 1, 71, 127
1, 205600, Note_off_c, 1, 71, 0
1, 205791, Note_on_c, 1, 40, 127
1, 205981, Note_on_c, 1, 69, 127
1, 206163, Note_off_c, 1, 52, 0
1, 206163, Note_off_c, 1, 68, 0
1, 206169, Note_off_c, 1, 40, 0
1, 206169, Note_off_c, 1, 69, 0
1, 206171, Note_on_c, 1, 45, 127
1, 206171, Note_on_c, 1, 61, 127
1, 206254, Note_on_c, 1, 64, 127
1, 206337, Note_on_c, 1, 69, 127
1, 206361, Note_on_c, 1, 52, 127
1, 206549, Note_off_c, 1, 52, 0
1, 206551, Note_on_c, 1, 54, 127
1, 206739, Note_off_c, 1, 54, 0
1, 206741, Note_on_c, 1, 56, 127
1, 206923, Note_off_c, 1, 45, 0
1, 206923, Note_off_c, 1, 61, 0
1, 206927, Note_off_c, 1, 64, 0
1, 206929, Note_off_c, 1, 56, 0
1, 206931, Note_on_c, 1, 57, 127
1, 207119, Note_off_c, 1, 69, 0
1, 207121, Note_on_c, 1, 73, 127
1, 207309, Note_off_c, 1, 57, 0
1, 207309, Note_off_c, 1, 73, 0
1, 207311, Note_on_c, 1, 56, 127
1, 207311, Note_on_c, 1, 71, 127
1, 207499, Note_off_c, 1, 56, 0
1, 207499, Note_off_c, 1, 71, 0
1, 207501, Note_on_c, 1, 54, 127
1, 207501, Note_on_c, 1, 69, 127
1, 207689, Note_off_c, 1, 54, 0
1, 207689, Note_off_c, 1, 69, 0
1, 207691, Note_on_c, 1, 69, 127
1, 207691, Note_on_c, 1, 53, 127
1, 207816, Note_off_c, 1, 69, 0
1, 207818, Note_on_c, 1, 68, 127
1, 207879, Note_off_c, 1, 68, 0
1, 207881, Note_on_c, 1, 56, 127
1, 208067, Note_off_c, 1, 53, 0
1, 208071, Note_on_c, 1, 49, 127
1, 208436, Note_off_c, 1, 56, 0
1, 208450, Note_off_c, 1, 49, 0
1, 208452, Note_on_c, 1, 71, 127
1, 208452, Note_on_c, 1, 54, 127
1, 208640, Note_off_c, 1, 71, 0
1, 208642, Note_on_c, 1, 69, 127
1, 208830, Note_off_c, 1, 69, 0
1, 208832, Note_on_c, 1, 68, 127
1, 209020, Note_off_c, 1, 54, 0
1, 209020, Note_off_c, 1, 68, 0
1, 209022, Note_on_c, 1, 56, 127
1, 209022, Note_on_c, 1, 66, 127
1, 209210, Note_off_c, 1, 56, 0
1, 209210, Note_off_c, 1, 66, 0
1, 209212, Note_on_c, 1, 78, 127
1, 209212, Note_on_c, 1, 57, 127
1, 209273, Note_off_c, 1, 78, 0
1, 209275, Note_on_c, 1, 76, 127
1, 209336, Note_off_c, 1, 76, 0
1, 209399, Note_off_c, 1, 57, 0
1, 209401, Note_on_c, 1, 61, 127
1, 209589, Note_off_c, 1, 61, 0
1, 209591, Note_on_c, 1, 59, 127
1, 209779, Note_off_c, 1, 59, 0
1, 209781, Note_on_c, 1, 57, 127
1, 209781, Note_on_c, 1, 75, 127
1, 209969, Note_off_c, 1, 57, 0
1, 209969, Note_off_c, 1, 75, 0
1, 209971, Note_on_c, 1, 75, 127
1, 209971, Note_on_c, 1, 56, 127
1, 210054, Note_on_c, 1, 57, 127
1, 210096, Note_off_c, 1, 75, 0
1, 210098, Note_on_c, 1, 76, 127
1, 210136, Note_off_c, 1, 57, 0
1, 210138, Note_on_c, 1, 59, 127
1, 210160, Note_off_c, 1, 76, 0
1, 210350, Note_off_c, 1, 56, 0
1, 210350, Note_off_c, 1, 59, 0
1, 210352, Note_on_c, 1, 58, 127
1, 210518, Note_on_c, 1, 61, 127
1, 210542, Note_on_c, 1, 78, 127
1, 210730, Note_off_c, 1, 58, 0
1, 210730, Note_off_c, 1, 61, 0
1, 210730, Note_off_c, 1, 78, 0
1, 210732, Note_on_c, 1, 76, 127
1, 210732, Note_on_c, 1, 59, 127
1, 210793, Note_off_c, 1, 76, 0
1, 210795, Note_on_c, 1, 75, 127
1, 210856, Note_off_c, 1, 75, 0
1, 210921, Note_on_c, 1, 63, 127
1, 211111, Note_on_c, 1, 66, 127
1, 211301, Note_on_c, 1, 73, 127
1, 211483, Note_off_c, 1, 59, 0
1, 211489, Note_off_c, 1, 73, 0
1, 211491, Note_on_c, 1, 71, 127
1, 211491, Note_on_c, 1, 57, 127
1, 211679, Note_off_c, 1, 71, 0
1, 211863, Note_off_c, 1, 66, 0
1, 211869, Note_off_c, 1, 57, 0
1, 211871, Note_off_c, 1, 63, 0
1, 211871, Note_on_c, 1, 56, 127
1, 211871, Note_on_c, 1, 64, 127
1, 212249, Note_off_c, 1, 56, 0
1, 212249, Note_off_c, 1, 64, 0
1, 212251, Note_on_c, 1, 76, 127
1, 212251, Note_on_c, 1, 57, 127
1, 212251, Note_on_c, 1, 54, 127
1, 212439, Note_off_c, 1, 76, 0
1, 212441, Note_on_c, 1, 78, 127
1, 212441, Note_on_c, 1, 63, 127
1, 212502, Note_off_c, 1, 78, 0
1, 212627, Note_off_c, 1, 57, 0
1, 212627, Note_off_c, 1, 54, 0
1, 212629, Note_off_c, 1, 63, 0
1, 212631, Note_on_c, 1, 59, 127
1, 212631, Note_on_c, 1, 52, 127
1, 212821, Note_on_c, 1, 64, 127
1, 212821, Note_on_c, 1, 80, 127
1, 213007, Note_off_c, 1, 59, 0
1, 213007, Note_off_c, 1, 52, 0
1, 213009, Note_off_c, 1, 64, 0
1, 213009, Note_off_c, 1, 80, 0
1, 213011, Note_on_c, 1, 51, 127
1, 213011, Note_on_c, 1, 81, 127
1, 213201, Note_on_c, 1, 54, 127
1, 213201, Note_on_c, 1, 78, 127
1, 213389, Note_off_c, 1, 54, 0
1, 213389, Note_off_c, 1, 78, 0
1, 213391, Note_on_c, 1, 75, 127
1, 213391, Note_on_c, 1, 59, 127
1, 213566, Note_off_c, 1, 51, 0
1, 213566, Note_off_c, 1, 81, 0
1, 213582, Note_on_c, 1, 47, 127
1, 213582, Note_on_c, 1, 83, 127
1, 213768, Note_off_c, 1, 75, 0
1, 213770, Note_off_c, 1, 47, 0
1, 213770, Note_off_c, 1, 83, 0
1, 213772, Note_on_c, 1, 52, 127
1, 213772, Note_on_c, 1, 76, 127
1, 213835, Note_on_c, 1, 80, 127
1, 213896, Note_off_c, 1, 80, 0
1, 214143, Note_off_c, 1, 59, 0
1, 214149, Note_off_c, 1, 52, 0
1, 214151, Note_on_c, 1, 61, 127
1, 214151, Note_on_c, 1, 57, 127
1, 214523, Note_off_c, 1, 76, 0
1, 214529, Note_off_c, 1, 61, 0
1, 214529, Note_off_c, 1, 57, 0
1, 214531, Note_on_c, 1, 80, 127
1, 214531, Note_on_c, 1, 59, 127
1, 214531, Note_on_c, 1, 75, 127
1, 214656, Note_off_c, 1, 80, 0
1, 214658, Note_on_c, 1, 78, 127
1, 214719, Note_off_c, 1, 78, 0
1, 214910, Note_on_c, 1, 56, 127
1, 215100, Note_on_c, 1, 76, 127
1, 215282, Note_off_c, 1, 59, 0
1, 215282, Note_off_c, 1, 75, 0
1, 215288, Note_off_c, 1, 56, 0
1, 215288, Note_off_c, 1, 76, 0
1, 215290, Note_on_c, 1, 61, 127
1, 215290, Note_on_c, 1, 76, 127
1, 215478, Note_off_c, 1, 61, 0
1, 215480, Note_on_c, 1, 63, 127
1, 215668, Note_off_c, 1, 63, 0
1, 215860, Note_on_c, 1, 59, 127
1, 215860, Note_on_c, 1, 75, 127
1, 216048, Note_off_c, 1, 59, 0
1, 216048, Note_off_c, 1, 75, 0
1, 216050, Note_on_c, 1, 57, 127
1, 216050, Note_on_c, 1, 73, 127
1, 216238, Note_off_c, 1, 57, 0
1, 216238, Note_off_c, 1, 73, 0
1, 216240, Note_on_c, 1, 56, 127
1, 216240, Note_on_c, 1, 71, 127
1, 216428, Note_off_c, 1, 56, 0
1, 216428, Note_off_c, 1, 71, 0
1, 216430, Note_on_c, 1, 54, 127
1, 216430, Note_on_c, 1, 69, 127
1, 216618, Note_off_c, 1, 54, 0
1, 216618, Note_off_c, 1, 69, 0
1, 216620, Note_on_c, 1, 52, 127
1, 216620, Note_on_c, 1, 68, 127
1, 216808, Note_off_c, 1, 76, 0
1, 216808, Note_off_c, 1, 52, 0
1, 216808, Note_off_c, 1, 68, 0
1, 216810, Note_on_c, 1, 59, 127
1, 216810, Note_on_c, 1, 66, 127
1, 217000, Note_on_c, 1, 69, 127
1, 217190, Note_on_c, 1, 76, 127
1, 217190, Note_on_c, 1, 47, 127
1, 217378, Note_off_c, 1, 76, 0
1, 217380, Note_on_c, 1, 75, 127
1, 217555, Note_off_c, 1, 69, 0
1, 217563, Note_off_c, 1, 59, 0
1, 217563, Note_off_c, 1, 66, 0
1, 217569, Note_off_c, 1, 47, 0
1, 217569, Note_off_c, 1, 75, 0
1, 217571, Note_on_c, 1, 52, 127
1, 217571, Note_on_c, 1, 76, 127
1, 217952, Note_on_c, 1, 40, 127
1, 218142, Note_on_c, 1, 71, 127
1, 218324, Note_off_c, 1, 52, 0
1, 218330, Note_off_c, 1, 71, 0
1, 218332, Note_on_c, 1, 73, 127
1, 218332, Note_on_c, 1, 47, 127
1, 218520, Note_off_c, 1, 73, 0
1, 218522, Note_on_c, 1, 69, 127
1, 218710, Note_off_c, 1, 76, 0
1, 218710, Note_off_c, 1, 47, 0
1, 218710, Note_off_c, 1, 69, 0
1, 218712, Note_on_c, 1, 68, 127
1, 219465, Note_off_c, 1, 68, 0
1, 219669, Note_off_c, 1, 40, 0
1, 219853, Note_on_c, 1, 64, 127
1, 219853, Note_on_c, 1, 40, 127
1, 219936, Note_on_c, 1, 68, 127
1, 220019, Note_on_c, 1, 71, 127
1, 220043, Note_on_c, 1, 47, 127
1, 220231, Note_off_c, 1, 47, 0
1, 220233, Note_on_c, 1, 49, 127
1, 220408, Note_off_c, 1, 64, 0
1, 220412, Note_off_c, 1, 68, 0
1, 220422, Note_off_c, 1, 71, 0
1, 220422, Note_off_c, 1, 49, 0
1, 220424, Note_on_c, 1, 51, 127
1, 220424, Note_on_c, 1, 69, 127
1, 220606, Note_off_c, 1, 40, 0
1, 220612, Note_off_c, 1, 51, 0
1, 220612, Note_off_c, 1, 69, 0
1, 220614, Note_on_c, 1, 68, 127
1, 220614, Note_on_c, 1, 52, 127
1, 220802, Note_off_c, 1, 68, 0
1, 220804, Note_on_c, 1, 54, 127
1, 220804, Note_on_c, 1, 69, 127
1, 220992, Note_off_c, 1, 54, 0
1, 220992, Note_off_c, 1, 69, 0
1, 220994, Note_on_c, 1, 71, 127
1, 220994, Note_on_c, 1, 56, 127
1, 221182, Note_off_c, 1, 71, 0
1, 221184, Note_on_c, 1, 73, 127
1, 221366, Note_off_c, 1, 52, 0
1, 221372, Note_off_c, 1, 56, 0
1, 221372, Note_off_c, 1, 73, 0
1, 221374, Note_on_c, 1, 73, 127
1, 221374, Note_on_c, 1, 54, 127
1, 221457, Note_on_c, 1, 56, 127
1, 221538, Note_off_c, 1, 56, 0
1, 221540, Note_on_c, 1, 57, 127
1, 221562, Note_off_c, 1, 73, 0
1, 221564, Note_on_c, 1, 74, 127
1, 221625, Note_off_c, 1, 74, 0
1, 221751, Note_off_c, 1, 54, 0
1, 221751, Note_off_c, 1, 57, 0
1, 221919, Note_on_c, 1, 59, 127
1, 221943, Note_on_c, 1, 76, 127
1, 222131, Note_off_c, 1, 59, 0
1, 222131, Note_off_c, 1, 76, 0
1, 222133, Note_on_c, 1, 74, 127
1, 222133, Note_on_c, 1, 57, 127
1, 222194, Note_off_c, 1, 74, 0
1, 222196, Note_on_c, 1, 73, 127
1, 222257, Note_off_c, 1, 73, 0
1, 222322, Note_on_c, 1, 61, 127
1, 222510, Note_off_c, 1, 61, 0
1, 222512, Note_on_c, 1, 64, 127
1, 222687, Note_off_c, 1, 57, 0
1, 222703, Note_on_c, 1, 59, 127
1, 222703, Note_on_c, 1, 71, 127
1, 222891, Note_off_c, 1, 59, 0
1, 222891, Note_off_c, 1, 71, 0
1, 222893, Note_on_c, 1, 69, 127
1, 223081, Note_off_c, 1, 69, 0
1, 223083, Note_on_c, 1, 81, 127
1, 223265, Note_off_c, 1, 64, 0
1, 223271, Note_off_c, 1, 81, 0
1, 223273, Note_on_c, 1, 80, 127
1, 223273, Note_on_c, 1, 61, 127
1, 223273, Note_on_c, 1, 57, 127
1, 223461, Note_off_c, 1, 80, 0
1, 223463, Note_on_c, 1, 78, 127
1, 223651, Note_off_c, 1, 61, 0
1, 223651, Note_off_c, 1, 57, 0
1, 223651, Note_off_c, 1, 78, 0
1, 223653, Note_on_c, 1, 83, 127
1, 223653, Note_on_c, 1, 62, 127
1, 223653, Note_on_c, 1, 66, 127
1, 223841, Note_off_c, 1, 83, 0
1, 223843, Note_on_c, 1, 80, 127
1, 224031, Note_off_c, 1, 62, 0
1, 224031, Note_off_c, 1, 66, 0
1, 224031, Note_off_c, 1, 80, 0
1, 224033, Note_on_c, 1, 81, 127
1, 224033, Note_on_c, 1, 62, 127
1, 224033, Note_on_c, 1, 59, 127
1, 224221, Note_off_c, 1, 81, 0
1, 224223, Note_on_c, 1, 78, 127
1, 224411, Note_off_c, 1, 62, 0
1, 224411, Note_off_c, 1, 59, 0
1, 224411, Note_off_c, 1, 78, 0
1, 224413, Note_on_c, 1, 78, 127
1, 224413, Note_on_c, 1, 61, 127
1, 224538, Note_off_c, 1, 78, 0
1, 224540, Note_on_c, 1, 77, 127
1, 224601, Note_off_c, 1, 77, 0
1, 224603, Note_on_c, 1, 73, 127
1, 224792, Note_on_c, 1, 68, 127
1, 224979, Note_off_c, 1, 61, 0
1, 224981, Note_on_c, 1, 59, 127
1, 225169, Note_off_c, 1, 59, 0
1, 225171, Note_on_c, 1, 57, 127
1, 225359, Note_off_c, 1, 57, 0
1, 225361, Note_on_c, 1, 56, 127
1, 225543, Note_off_c, 1, 68, 0
1, 225549, Note_off_c, 1, 56, 0
1, 225551, Note_off_c, 1, 73, 0
1, 225551, Note_on_c, 1, 54, 127
1, 225551, Note_on_c, 1, 69, 127
1, 225739, Note_off_c, 1, 54, 0
1, 225741, Note_on_c, 1, 53, 127
1, 225927, Note_off_c, 1, 69, 0
1, 225929, Note_off_c, 1, 53, 0
1, 225931, Note_on_c, 1, 76, 127
1, 226056, Note_off_c, 1, 76, 0
1, 226058, Note_on_c, 1, 75, 127
1, 226120, Note_off_c, 1, 75, 0
1, 226311, Note_on_c, 1, 75, 127
1, 226311, Note_on_c, 1, 56, 127
1, 226394, Note_on_c, 1, 57, 127
1, 226475, Note_off_c, 1, 57, 0
1, 226477, Note_on_c, 1, 59, 127
1, 226499, Note_off_c, 1, 75, 0
1, 226501, Note_on_c, 1, 76, 127
1, 226689, Note_off_c, 1, 56, 0
1, 226689, Note_off_c, 1, 59, 0
1, 226689, Note_off_c, 1, 76, 0
1, 226691, Note_on_c, 1, 73, 127
1, 226691, Note_on_c, 1, 57, 127
1, 226752, Note_off_c, 1, 73, 0
1, 226754, Note_on_c, 1, 71, 127
1, 226815, Note_off_c, 1, 71, 0
1, 226880, Note_on_c, 1, 61, 127
1, 227068, Note_off_c, 1, 61, 0
1, 227070, Note_on_c, 1, 66, 127
1, 227258, Note_off_c, 1, 57, 0
1, 227260, Note_on_c, 1, 59, 127
1, 227260, Note_on_c, 1, 74, 127
1, 227446, Note_off_c, 1, 66, 0
1, 227448, Note_off_c, 1, 59, 0
1, 227448, Note_off_c, 1, 74, 0
1, 227450, Note_on_c, 1, 73, 127
1, 227450, Note_on_c, 1, 65, 127
1, 227450, Note_on_c, 1, 56, 127
1, 227575, Note_off_c, 1, 73, 0
1, 227577, Note_on_c, 1, 71, 127
1, 227638, Note_off_c, 1, 71, 0
1, 227826, Note_off_c, 1, 65, 0
1, 227828, Note_off_c, 1, 56, 0
1, 227830, Note_on_c, 1, 71, 127
1, 227830, Note_on_c, 1, 66, 127
1, 227830, Note_on_c, 1, 54, 127
1, 228018, Note_off_c, 1, 71, 0
1, 228020, Note_on_c, 1, 69, 127
1, 228206, Note_off_c, 1, 66, 0
1, 228208, Note_off_c, 1, 54, 0
1, 228208, Note_off_c, 1, 69, 0
1, 228210, Note_on_c, 1, 69, 127
1, 228210, Note_on_c, 1, 61, 127
1, 228210, Note_on_c, 1, 65, 127
1, 228335, Note_off_c, 1, 69, 0
1, 228337, Note_on_c, 1, 68, 127
1, 228398, Note_off_c, 1, 68, 0
1, 228587, Note_off_c, 1, 61, 0
1, 228589, Note_on_c, 1, 49, 127
1, 228779, Note_on_c, 1, 66, 127
1, 228961, Note_off_c, 1, 65, 0
1, 228967, Note_off_c, 1, 49, 0
1, 228967, Note_off_c, 1, 66, 0
1, 228969, Note_on_c, 1, 42, 127
1, 228969, Note_on_c, 1, 57, 127
1, 229052, Note_on_c, 1, 61, 127
1, 229135, Note_on_c, 1, 66, 127
1, 229159, Note_on_c, 1, 49, 127
1, 229347, Note_off_c, 1, 49, 0
1, 229349, Note_on_c, 1, 51, 127
1, 229537, Note_off_c, 1, 51, 0
1, 229539, Note_on_c, 1, 53, 127
1, 229721, Note_off_c, 1, 42, 0
1, 229721, Note_off_c, 1, 57, 0
1, 229725, Note_off_c, 1, 61, 0
1, 229727, Note_off_c, 1, 53, 0
1, 229729, Note_on_c, 1, 54, 127
1, 229917, Note_off_c, 1, 66, 0
1, 229919, Note_on_c, 1, 78, 127
1, 230105, Note_off_c, 1, 54, 0
1, 230107, Note_off_c, 1, 78, 0
1, 230109, Note_on_c, 1, 76, 127
1, 230109, Note_on_c, 1, 56, 127
1, 230297, Note_off_c, 1, 76, 0
1, 230299, Note_on_c, 1, 59, 127
1, 230299, Note_on_c, 1, 74, 127
1, 230485, Note_off_c, 1, 56, 0
1, 230487, Note_off_c, 1, 59, 0
1, 230487, Note_off_c, 1, 74, 0
1, 230489, Note_on_c, 1, 74, 127
1, 230489, Note_on_c, 1, 58, 127
1, 230614, Note_off_c, 1, 74, 0
1, 230616, Note_on_c, 1, 73, 127
1, 230677, Note_off_c, 1, 73, 0
1, 230679, Note_on_c, 1, 61, 127
1, 230865, Note_off_c, 1, 58, 0
1, 230869, Note_on_c, 1, 54, 127
1, 231234, Note_off_c, 1, 61, 0
1, 231248, Note_off_c, 1, 54, 0
1, 231250, Note_on_c, 1, 76, 127
1, 231250, Note_on_c, 1, 59, 127
1, 231438, Note_off_c, 1, 76, 0
1, 231440, Note_on_c, 1, 74, 127
1, 231628, Note_off_c, 1, 74, 0
1, 231630, Note_on_c, 1, 73, 127
1, 231818, Note_off_c, 1, 59, 0
1, 231818, Note_off_c, 1, 73, 0
1, 231820, Note_on_c, 1, 61, 127
1, 231820, Note_on_c, 1, 71, 127
1, 232008, Note_off_c, 1, 61, 0
1, 232008, Note_off_c, 1, 71, 0
1, 232010, Note_on_c, 1, 83, 127
1, 232010, Note_on_c, 1, 62, 127
1, 232071, Note_off_c, 1, 83, 0
1, 232073, Note_on_c, 1, 81, 127
1, 232134, Note_off_c, 1, 81, 0
1, 232197, Note_off_c, 1, 62, 0
1, 232199, Note_on_c, 1, 66, 127
1, 232387, Note_off_c, 1, 66, 0
1, 232389, Note_on_c, 1, 64, 127
1, 232577, Note_off_c, 1, 64, 0
1, 232579, Note_on_c, 1, 62, 127
1, 232579, Note_on_c, 1, 80, 127
1, 232767, Note_off_c, 1, 62, 0
1, 232767, Note_off_c, 1, 80, 0
1, 232769, Note_on_c, 1, 80, 127
1, 232769, Note_on_c, 1, 61, 127
1, 232852, Note_on_c, 1, 62, 127
1, 232933, Note_off_c, 1, 62, 0
1, 232935, Note_on_c, 1, 64, 127
1, 232957, Note_off_c, 1, 80, 0
1, 232959, Note_on_c, 1, 81, 127
1, 233020, Note_off_c, 1, 81, 0
1, 233146, Note_off_c, 1, 61, 0
1, 233146, Note_off_c, 1, 64, 0
1, 233148, Note_on_c, 1, 63, 127
1, 233314, Note_on_c, 1, 66, 127
1, 233338, Note_on_c, 1, 83, 127
1, 233526, Note_off_c, 1, 63, 0
1, 233526, Note_off_c, 1, 66, 0
1, 233526, Note_off_c, 1, 83, 0
1, 233528, Note_on_c, 1, 81, 127
1, 233528, Note_on_c, 1, 64, 127
1, 233653, Note_off_c, 1, 81, 0
1, 233655, Note_on_c, 1, 80, 127
1, 233716, Note_off_c, 1, 80, 0
1, 233718, Note_on_c, 1, 68, 127
1, 233907, Note_on_c, 1, 71, 127
1, 234082, Note_off_c, 1, 64, 0
1, 234096, Note_off_c, 1, 68, 0
1, 234098, Note_on_c, 1, 62, 127
1, 234098, Note_on_c, 1, 78, 127
1, 234284, Note_off_c, 1, 71, 0
1, 234286, Note_off_c, 1, 62, 0
1, 234286, Note_off_c, 1, 78, 0
1, 234288, Note_on_c, 1, 61, 127
1, 234288, Note_on_c, 1, 76, 127
1, 234476, Note_off_c, 1, 61, 0
1, 234476, Note_off_c, 1, 76, 0
1, 234478, Note_on_c, 1, 59, 127
1, 234478, Note_on_c, 1, 74, 127
1, 234666, Note_off_c, 1, 59, 0
1, 234666, Note_off_c, 1, 74, 0
1, 234668, Note_on_c, 1, 57, 127
1, 234668, Note_on_c, 1, 73, 127
1, 234856, Note_off_c, 1, 57, 0
1, 234856, Note_off_c, 1, 73, 0
1, 234858, Note_on_c, 1, 56, 127
1, 234858, Note_on_c, 1, 71, 127
1, 235046, Note_off_c, 1, 56, 0
1, 235046, Note_off_c, 1, 71, 0
1, 235048, Note_on_c, 1, 54, 127
1, 235048, Note_on_c, 1, 69, 127
1, 235236, Note_off_c, 1, 54, 0
1, 235236, Note_off_c, 1, 69, 0
1, 235238, Note_on_c, 1, 52, 127
1, 235238, Note_on_c, 1, 68, 127
1, 235426, Note_off_c, 1, 52, 0
1, 235426, Note_off_c, 1, 68, 0
1, 235428, Note_on_c, 1, 50, 127
1, 235428, Note_on_c, 1, 69, 127
1, 235616, Note_off_c, 1, 50, 0
1, 235616, Note_off_c, 1, 69, 0
1, 235618, Note_on_c, 1, 49, 127
1, 235618, Note_on_c, 1, 66, 127
1, 235806, Note_off_c, 1, 49, 0
1, 235806, Note_off_c, 1, 66, 0
1, 235808, Note_on_c, 1, 74, 127
1, 235808, Note_on_c, 1, 47, 127
1, 235869, Note_off_c, 1, 74, 0
1, 235871, Note_on_c, 1, 73, 127
1, 235932, Note_off_c, 1, 73, 0
1, 235995, Note_off_c, 1, 47, 0
1, 235997, Note_on_c, 1, 45, 127
1, 236185, Note_off_c, 1, 45, 0
1, 236377, Note_on_c, 1, 44, 127
1, 236377, Note_on_c, 1, 76, 127
1, 236565, Note_off_c, 1, 44, 0
1, 236565, Note_off_c, 1, 76, 0
1, 236567, Note_on_c, 1, 74, 127
1, 236567, Note_on_c, 1, 45, 127
1, 236692, Note_off_c, 1, 74, 0
1, 236694, Note_on_c, 1, 73, 127
1, 236755, Note_off_c, 1, 73, 0
1, 236944, Note_off_c, 1, 45, 0
1, 236946, Note_on_c, 1, 73, 127
1, 236946, Note_on_c, 1, 69, 127
1, 236946, Note_on_c, 1, 50, 127
1, 237134, Note_off_c, 1, 73, 0
1, 237136, Note_on_c, 1, 71, 127
1, 237322, Note_off_c, 1, 69, 0
1, 237324, Note_off_c, 1, 50, 0
1, 237324, Note_off_c, 1, 71, 0
1, 237326, Note_on_c, 1, 73, 127
1, 237326, Note_on_c, 1, 52, 127
1, 237326, Note_on_c, 1, 68, 127
1, 237451, Note_off_c, 1, 73, 0
1, 237453, Note_on_c, 1, 71, 127
1, 237514, Note_off_c, 1, 71, 0
1, 237705, Note_on_c, 1, 49, 127
1, 237895, Note_on_c, 1, 69, 127
1, 238077, Note_off_c, 1, 52, 0
1, 238077, Note_off_c, 1, 68, 0
1, 238083, Note_off_c, 1, 49, 0
1, 238083, Note_off_c, 1, 69, 0
1, 238085, Note_on_c, 1, 54, 127
1, 238085, Note_on_c, 1, 69, 127
1, 238273, Note_off_c, 1, 54, 0
1, 238275, Note_on_c, 1, 56, 127
1, 238463, Note_off_c, 1, 56, 0
1, 238655, Note_on_c, 1, 52, 127
1, 238655, Note_on_c, 1, 68, 127
1, 238843, Note_off_c, 1, 52, 0
1, 238843, Note_off_c, 1, 68, 0
1, 238845, Note_on_c, 1, 50, 127
1, 238845, Note_on_c, 1, 66, 127
1, 239033, Note_off_c, 1, 50, 0
1, 239033, Note_off_c, 1, 66, 0
1, 239035, Note_on_c, 1, 49, 127
1, 239035, Note_on_c, 1, 64, 127
1, 239223, Note_off_c, 1, 49, 0
1, 239223, Note_off_c, 1, 64, 0
1, 239225, Note_on_c, 1, 47, 127
1, 239225, Note_on_c, 1, 62, 127
1, 239413, Note_off_c, 1, 47, 0
1, 239413, Note_off_c, 1, 62, 0
1, 239415, Note_on_c, 1, 45, 127
1, 239415, Note_on_c, 1, 61, 127
1, 239603, Note_off_c, 1, 69, 0
1, 239603, Note_off_c, 1, 45, 0
1, 239603, Note_off_c, 1, 61, 0
1, 239605, Note_on_c, 1, 52, 127
1, 239605, Note_on_c, 1, 59, 127
1, 239795, Note_on_c, 1, 62, 127
1, 239985, Note_on_c, 1, 69, 127
1, 239985, Note_on_c, 1, 40, 127
1, 240173, Note_off_c, 1, 69, 0
1, 240175, Note_on_c, 1, 68, 127
1, 240350, Note_off_c, 1, 62, 0
1, 240358, Note_off_c, 1, 52, 0
1, 240358, Note_off_c, 1, 59, 0
1, 240364, Note_off_c, 1, 40, 0
1, 240364, Note_off_c, 1, 68, 0
1, 240366, Note_on_c, 1, 45, 127
1, 240366, Note_on_c, 1, 69, 127
1, 240747, Note_on_c, 1, 33, 127
1, 240937, Note_on_c, 1, 64, 127
1, 241119, Note_off_c, 1, 45, 0
1, 241125, Note_off_c, 1, 64, 0
1, 241127, Note_on_c, 1, 66, 127
1, 241127, Note_on_c, 1, 40, 127
1, 241315, Note_off_c, 1, 66, 0
1, 241317, Note_on_c, 1, 62, 127
1, 241505, Note_off_c, 1, 69, 0
1, 241505, Note_off_c, 1, 40, 0
1, 241505, Note_off_c, 1, 62, 0
1, 241507, Note_on_c, 1, 61, 127
1, 242266, Note_off_c, 1, 33, 0
1, 242458, Note_off_c, 1, 61, 0
1, 242648, Note_on_c, 1, 45, 127
1, 242648, Note_on_c, 1, 69, 127
1, 242838, Note_on_c, 1, 64, 127
1, 243028, Note_on_c, 1, 61, 127
1, 243216, Note_off_c, 1, 45, 0
1, 243218, Note_on_c, 1, 47, 127
1, 243311, Note_off_c, 1, 47, 0
1, 243313, Note_on_c, 1, 49, 127
1, 243406, Note_off_c, 1, 49, 0
1, 243693, Note_on_c, 1, 50, 127
1, 243786, Note_off_c, 1, 69, 0
1, 243786, Note_off_c, 1, 61, 0
1, 243786, Note_off_c, 1, 50, 0
1, 244167, Note_off_c, 1, 64, 0
1, 244169, Note_on_c, 1, 66, 127
1, 244169, Note_on_c, 1, 49, 127
1, 244230, Note_off_c, 1, 66, 0
1, 244232, Note_on_c, 1, 64, 127
1, 244293, Note_off_c, 1, 49, 0
1, 244293, Note_off_c, 1, 64, 0
1, 244295, Note_on_c, 1, 47, 127
1, 244295, Note_on_c, 1, 66, 127
1, 244356, Note_off_c, 1, 47, 0
1, 244358, Note_on_c, 1, 49, 127
1, 244419, Note_off_c, 1, 49, 0
1, 244548, Note_on_c, 1, 45, 127
1, 244736, Note_off_c, 1, 66, 0
1, 244738, Note_on_c, 1, 67, 127
1, 244926, Note_off_c, 1, 45, 0
1, 244926, Note_off_c, 1, 67, 0
1, 244928, Note_on_c, 1, 67, 127
1, 244928, Note_on_c, 1, 50, 127
1, 245053, Note_off_c, 1, 67, 0
1, 245055, Note_on_c, 1, 66, 127
1, 245116, Note_off_c, 1, 66, 0
1, 245305, Note_off_c, 1, 50, 0
1, 245307, Note_on_c, 1, 50, 127
1, 245307, Note_on_c, 1, 66, 127
1, 245432, Note_off_c, 1, 50, 0
1, 245434, Note_on_c, 1, 49, 127
1, 245495, Note_off_c, 1, 66, 0
1, 245495, Note_off_c, 1, 49, 0
1, 245497, Note_on_c, 1, 50, 127
1, 245497, Note_on_c, 1, 69, 127
1, 245558, Note_off_c, 1, 50, 0
1, 245560, Note_on_c, 1, 49, 127
1, 245685, Note_off_c, 1, 69, 0
1, 245685, Note_off_c, 1, 49, 0
1, 245687, Note_on_c, 1, 74, 127
1, 245687, Note_on_c, 1, 47, 127
1, 245780, Note_off_c, 1, 74, 0
1, 245782, Note_on_c, 1, 73, 127
1, 245875, Note_off_c, 1, 73, 0
1, 246065, Note_off_c, 1, 47, 0
1, 246067, Note_on_c, 1, 56, 127
1, 246257, Note_on_c, 1, 76, 127
1, 246445, Note_off_c, 1, 56, 0
1, 246445, Note_off_c, 1, 76, 0
1, 246447, Note_on_c, 1, 57, 127
1, 246447, Note_on_c, 1, 74, 127
1, 246508, Note_off_c, 1, 57, 0
1, 246510, Note_on_c, 1, 56, 127
1, 246571, Note_off_c, 1, 74, 0
1, 246571, Note_off_c, 1, 56, 0
1, 246573, Note_on_c, 1, 73, 127
1, 246573, Note_on_c, 1, 57, 127
1, 246634, Note_off_c, 1, 73, 0
1, 246636, Note_on_c, 1, 74, 127
1, 246697, Note_off_c, 1, 74, 0
1, 246823, Note_off_c, 1, 57, 0
1, 246825, Note_on_c, 1, 73, 127
1, 246825, Note_on_c, 1, 45, 127
1, 247013, Note_off_c, 1, 73, 0
1, 247015, Note_on_c, 1, 71, 127
1, 247203, Note_off_c, 1, 45, 0
1, 247203, Note_off_c, 1, 71, 0
1, 247205, Note_on_c, 1, 52, 127
1, 247205, Note_on_c, 1, 71, 127
1, 247395, Note_on_c, 1, 68, 127
1, 247585, Note_on_c, 1, 64, 127
1, 247773, Note_off_c, 1, 52, 0
1, 247775, Note_on_c, 1, 54, 127
1, 247868, Note_off_c, 1, 54, 0
1, 247870, Note_on_c, 1, 56, 127
1, 247963, Note_off_c, 1, 56, 0
1, 248250, Note_on_c, 1, 57, 127
1, 248343, Note_off_c, 1, 71, 0
1, 248343, Note_off_c, 1, 64, 0
1, 248343, Note_off_c, 1, 57, 0
1, 248345, Note_off_c, 1, 68, 0
1, 248345, Note_on_c, 1, 76, 127
1, 248406, Note_off_c, 1, 76, 0
1, 248408, Note_on_c, 1, 74, 127
1, 248469, Note_off_c, 1, 74, 0
1, 248725, Note_on_c, 1, 56, 127
1, 248725, Note_on_c, 1, 76, 127
1, 248850, Note_off_c, 1, 56, 0
1, 248850, Note_off_c, 1, 76, 0
1, 248852, Note_on_c, 1, 54, 127
1, 248852, Note_on_c, 1, 74, 127
1, 248913, Note_off_c, 1, 54, 0
1, 248913, Note_off_c, 1, 74, 0
1, 248915, Note_on_c, 1, 56, 127
1, 248915, Note_on_c, 1, 76, 127
1, 248976, Note_off_c, 1, 56, 0
1, 248976, Note_off_c, 1, 76, 0
1, 248978, Note_on_c, 1, 74, 127
1, 248978, Note_on_c, 1, 54, 127
1, 249039, Note_off_c, 1, 74, 0
1, 249041, Note_on_c, 1, 76, 127
1, 249102, Note_off_c, 1, 54, 0
1, 249102, Note_off_c, 1, 76, 0
1, 249104, Note_on_c, 1, 74, 127
1, 249104, Note_on_c, 1, 52, 127
1, 249292, Note_off_c, 1, 74, 0
1, 249294, Note_on_c, 1, 76, 127
1, 249482, Note_off_c, 1, 52, 0
1, 249482, Note_off_c, 1, 76, 0
1, 249484, Note_on_c, 1, 74, 127
1, 249484, Note_on_c, 1, 57, 127
1, 249545, Note_off_c, 1, 74, 0
1, 249547, Note_on_c, 1, 73, 127
1, 249608, Note_off_c, 1, 73, 0
1, 249861, Note_off_c, 1, 57, 0
1, 249863, Note_on_c, 1, 59, 127
1, 250053, Note_on_c, 1, 71, 127
1, 250241, Note_off_c, 1, 59, 0
1, 250241, Note_off_c, 1, 71, 0
1, 250243, Note_on_c, 1, 69, 127
1, 250243, Note_on_c, 1, 61, 127
1, 250431, Note_off_c, 1, 69, 0
1, 250433, Note_on_c, 1, 73, 127
1, 250621, Note_off_c, 1, 61, 0
1, 250621, Note_off_c, 1, 73, 0
1, 250623, Note_on_c, 1, 57, 127
1, 250623, Note_on_c, 1, 54, 127
1, 250623, Note_on_c, 1, 78, 127
1, 251002, Note_off_c, 1, 57, 0
1, 251002, Note_off_c, 1, 54, 0
1, 251002, Note_off_c, 1, 78, 0
1, 251004, Note_on_c, 1, 78, 127
1, 251004, Note_on_c, 1, 56, 127
1, 251004, Note_on_c, 1, 59, 127
1, 251129, Note_off_c, 1, 78, 0
1, 251131, Note_on_c, 1, 76, 127
1, 251192, Note_off_c, 1, 76, 0
1, 251381, Note_off_c, 1, 56, 0
1, 251381, Note_off_c, 1, 59, 0
1, 251383, Note_on_c, 1, 76, 127
1, 251383, Note_on_c, 1, 58, 127
1, 251383, Note_on_c, 1, 61, 127
1, 251571, Note_off_c, 1, 76, 0
1, 251573, Note_on_c, 1, 78, 127
1, 251761, Note_off_c, 1, 58, 0
1, 251761, Note_off_c, 1, 61, 0
1, 251761, Note_off_c, 1, 78, 0
1, 251763, Note_on_c, 1, 76, 127
1, 251763, Note_on_c, 1, 59, 127
1, 251824, Note_off_c, 1, 76, 0
1, 251826, Note_on_c, 1, 75, 127
1, 251887, Note_off_c, 1, 75, 0
1, 252140, Note_off_c, 1, 59, 0
1, 252142, Note_on_c, 1, 61, 127
1, 252332, Note_on_c, 1, 73, 127
1, 252520, Note_off_c, 1, 61, 0
1, 252520, Note_off_c, 1, 73, 0
1, 252522, Note_on_c, 1, 63, 127
1, 252522, Note_on_c, 1, 71, 127
1, 252712, Note_on_c, 1, 78, 127
1, 252900, Note_off_c, 1, 63, 0
1, 252900, Note_off_c, 1, 78, 0
1, 252902, Note_on_c, 1, 56, 127
1, 252902, Note_on_c, 1, 83, 127
1, 253275, Note_off_c, 1, 71, 0
1, 253281, Note_off_c, 1, 56, 0
1, 253281, Note_off_c, 1, 83, 0
1, 253283, Note_on_c, 1, 83, 127
1, 253283, Note_on_c, 1, 76, 127
1, 253283, Note_on_c, 1, 61, 127
1, 253408, Note_off_c, 1, 83, 0
1, 253410, Note_on_c, 1, 81, 127
1, 253471, Note_off_c, 1, 81, 0
1, 253659, Note_off_c, 1, 76, 0
1, 253661, Note_off_c, 1, 61, 0
1, 253663, Note_on_c, 1, 81, 127
1, 253663, Note_on_c, 1, 78, 127
1, 253663, Note_on_c, 1, 63, 127
1, 253851, Note_off_c, 1, 81, 0
1, 253853, Note_on_c, 1, 83, 127
1, 254039, Note_off_c, 1, 78, 0
1, 254041, Note_off_c, 1, 63, 0
1, 254041, Note_off_c, 1, 83, 0
1, 254043, Note_on_c, 1, 81, 127
1, 254043, Note_on_c, 1, 64, 127
1, 254043, Note_on_c, 1, 71, 127
1, 254168, Note_off_c, 1, 81, 0
1, 254170, Note_on_c, 1, 80, 127
1, 254231, Note_off_c, 1, 80, 0
1, 254420, Note_off_c, 1, 64, 0
1, 254422, Note_on_c, 1, 52, 127
1, 254610, Note_off_c, 1, 52, 0
1, 254612, Note_on_c, 1, 54, 127
1, 254800, Note_off_c, 1, 54, 0
1, 254802, Note_on_c, 1, 83, 127
1, 254802, Note_on_c, 1, 56, 127
1, 254990, Note_off_c, 1, 83, 0
1, 255180, Note_off_c, 1, 56, 0
1, 255560, Note_off_c, 1, 71, 0
1, 255562, Note_on_c, 1, 74, 127
1, 255562, Note_on_c, 1, 57, 127
1, 255623, Note_off_c, 1, 74, 0
1, 255625, Note_on_c, 1, 73, 127
1, 255686, Note_off_c, 1, 73, 0
1, 255751, Note_on_c, 1, 71, 127
1, 255938, Note_off_c, 1, 57, 0
1, 255938, Note_off_c, 1, 71, 0
1, 255940, Note_on_c, 1, 54, 127
1, 255940, Note_on_c, 1, 69, 127
1, 256131, Note_on_c, 1, 81, 127
1, 256319, Note_off_c, 1, 54, 0
1, 256319, Note_off_c, 1, 81, 0
1, 256321, Note_on_c, 1, 76, 127
1, 256321, Note_on_c, 1, 59, 127
1, 256446, Note_off_c, 1, 76, 0
1, 256448, Note_on_c, 1, 75, 127
1, 256509, Note_off_c, 1, 59, 0
1, 256509, Note_off_c, 1, 75, 0
1, 256511, Note_on_c, 1, 61, 127
1, 256698, Note_off_c, 1, 61, 0
1, 257078, Note_off_c, 1, 69, 0
1, 257080, Note_on_c, 1, 56, 127
1, 257080, Note_on_c, 1, 71, 127
1, 257268, Note_off_c, 1, 56, 0
1, 257268, Note_off_c, 1, 71, 0
1, 257270, Note_on_c, 1, 54, 127
1, 257270, Note_on_c, 1, 69, 127
1, 257458, Note_off_c, 1, 54, 0
1, 257458, Note_off_c, 1, 69, 0
1, 257460, Note_on_c, 1, 68, 127
1, 257460, Note_on_c, 1, 52, 127
1, 257648, Note_off_c, 1, 68, 0
1, 257650, Note_on_c, 1, 76, 127
1, 257838, Note_off_c, 1, 52, 0
1, 257838, Note_off_c, 1, 76, 0
1, 257840, Note_on_c, 1, 68, 127
1, 257840, Note_on_c, 1, 59, 127
1, 257840, Note_on_c, 1, 63, 127
1, 257965, Note_off_c, 1, 68, 0
1, 257967, Note_on_c, 1, 66, 127
1, 258028, Note_off_c, 1, 66, 0
1, 258219, Note_on_c, 1, 47, 127
1, 258409, Note_on_c, 1, 64, 127
1, 258591, Note_off_c, 1, 59, 0
1, 258591, Note_off_c, 1, 63, 0
1, 258597, Note_off_c, 1, 47, 0
1, 258597, Note_off_c, 1, 64, 0
1, 258599, Note_on_c, 1, 52, 127
1, 258599, Note_on_c, 1, 64, 127
1, 258980, Note_on_c, 1, 40, 127
1, 259353, Note_off_c, 1, 52, 0
1, 259361, Note_on_c, 1, 47, 127
1, 259740, Note_off_c, 1, 47, 0
1, 259742, Note_on_c, 1, 59, 127
1, 259742, Note_on_c, 1, 56, 127
1, 260502, Note_off_c, 1, 40, 0
1, 260504, Note_off_c, 1, 64, 0
1, 260684, Note_on_c, 1, 71, 127
1, 260692, Note_off_c, 1, 59, 0
1, 260692, Note_off_c, 1, 56, 0
1, 260872, Note_off_c, 1, 71, 0
1, 260884, Note_on_c, 1, 40, 127
1, 260884, Note_on_c, 1, 71, 127
1, 261074, Note_on_c, 1, 68, 127
1, 261264, Note_on_c, 1, 64, 127
1, 261357, Note_off_c, 1, 40, 0
1, 261359, Note_on_c, 1, 47, 127
1, 261452, Note_off_c, 1, 47, 0
1, 261454, Note_on_c, 1, 49, 127
1, 261547, Note_off_c, 1, 49, 0
1, 261549, Note_on_c, 1, 50, 127
1, 261642, Note_off_c, 1, 50, 0
1, 261929, Note_on_c, 1, 52, 127
1, 262022, Note_off_c, 1, 71, 0
1, 262022, Note_off_c, 1, 64, 0
1, 262022, Note_off_c, 1, 52, 0
1, 262403, Note_off_c, 1, 68, 0
1, 262405, Note_on_c, 1, 50, 127
1, 262405, Note_on_c, 1, 68, 127
1, 262405, Note_on_c, 1, 66, 127
1, 262530, Note_off_c, 1, 50, 0
1, 262532, Note_on_c, 1, 49, 127
1, 262593, Note_off_c, 1, 68, 0
1, 262593, Note_off_c, 1, 49, 0
1, 262595, Note_on_c, 1, 69, 127
1, 262656, Note_off_c, 1, 69, 0
1, 262784, Note_on_c, 1, 47, 127
1, 262959, Note_off_c, 1, 66, 0
1, 262975, Note_on_c, 1, 71, 127
1, 263163, Note_off_c, 1, 47, 0
1, 263163, Note_off_c, 1, 71, 0
1, 263165, Note_on_c, 1, 45, 127
1, 263165, Note_on_c, 1, 73, 127
1, 263165, Note_on_c, 1, 69, 127
1, 263544, Note_off_c, 1, 45, 0
1, 263546, Note_on_c, 1, 49, 127
1, 263734, Note_off_c, 1, 73, 0
1, 263734, Note_off_c, 1, 69, 0
1, 263924, Note_off_c, 1, 49, 0
1, 263926, Note_on_c, 1, 78, 127
1, 263926, Note_on_c, 1, 50, 127
1, 263987, Note_off_c, 1, 78, 0
1, 263989, Note_on_c, 1, 76, 127
1, 264050, Note_off_c, 1, 76, 0
1, 264304, Note_off_c, 1, 50, 0
1, 264306, Note_on_c, 1, 55, 127
1, 264306, Note_on_c, 1, 71, 127
1, 264496, Note_on_c, 1, 79, 127
1, 264684, Note_off_c, 1, 55, 0
1, 264684, Note_off_c, 1, 79, 0
1, 265058, Note_off_c, 1, 71, 0
1, 265066, Note_on_c, 1, 78, 127
1, 265066, Note_on_c, 1, 70, 127
1, 265066, Note_on_c, 1, 54, 127
1, 265127, Note_off_c, 1, 78, 0
1, 265129, Note_on_c, 1, 76, 127
1, 265317, Note_off_c, 1, 76, 0
1, 265319, Note_on_c, 1, 74, 127
1, 265380, Note_off_c, 1, 74, 0
1, 265382, Note_on_c, 1, 73, 127
1, 265442, Note_off_c, 1, 70, 0
1, 265444, Note_off_c, 1, 54, 0
1, 265444, Note_off_c, 1, 73, 0
1, 265446, Note_on_c, 1, 74, 127
1, 265446, Note_on_c, 1, 47, 127
1, 265446, Note_on_c, 1, 71, 127
1, 265507, Note_off_c, 1, 74, 0
1, 265509, Note_on_c, 1, 73, 127
1, 265570, Note_off_c, 1, 73, 0
1, 266014, Note_off_c, 1, 47, 0
1, 266016, Note_on_c, 1, 49, 127
1, 266109, Note_off_c, 1, 49, 0
1, 266111, Note_on_c, 1, 50, 127
1, 266204, Note_off_c, 1, 50, 0
1, 266491, Note_on_c, 1, 52, 127
1, 266584, Note_off_c, 1, 71, 0
1, 266584, Note_off_c, 1, 52, 0
1, 266586, Note_on_c, 1, 71, 127
1, 266586, Note_on_c, 1, 50, 127
1, 266669, Note_on_c, 1, 78, 127
1, 266752, Note_on_c, 1, 83, 127
1, 266962, Note_off_c, 1, 71, 0
1, 266964, Note_off_c, 1, 50, 0
1, 266964, Note_off_c, 1, 83, 0
1, 266966, Note_on_c, 1, 52, 127
1, 267093, Note_on_c, 1, 81, 127
1, 267154, Note_off_c, 1, 52, 0
1, 267154, Note_off_c, 1, 81, 0
1, 267156, Note_on_c, 1, 51, 127
1, 267343, Note_off_c, 1, 51, 0
1, 267345, Note_on_c, 1, 49, 127
1, 267406, Note_off_c, 1, 49, 0
1, 267534, Note_on_c, 1, 47, 127
1, 267716, Note_off_c, 1, 78, 0
1, 267722, Note_off_c, 1, 47, 0
1, 267724, Note_on_c, 1, 81, 127
1, 267724, Note_on_c, 1, 52, 127
1, 267724, Note_on_c, 1, 76, 127
1, 267785, Note_off_c, 1, 81, 0
1, 267787, Note_on_c, 1, 79, 127
1, 267848, Note_off_c, 1, 79, 0
1, 268101, Note_off_c, 1, 52, 0
1, 268103, Note_on_c, 1, 54, 127
1, 268293, Note_on_c, 1, 78, 127
1, 268475, Note_off_c, 1, 76, 0
1, 268481, Note_off_c, 1, 54, 0
1, 268481, Note_off_c, 1, 78, 0
1, 268483, Note_on_c, 1, 76, 127
1, 268483, Note_on_c, 1, 55, 127
1, 268671, Note_off_c, 1, 76, 0
1, 268673, Note_on_c, 1, 79, 127
1, 268861, Note_off_c, 1, 55, 0
1, 268861, Note_off_c, 1, 79, 0
1, 268863, Note_on_c, 1, 54, 127
1, 268863, Note_on_c, 1, 67, 127
1, 268863, Note_on_c, 1, 71, 127
1, 268863, Note_on_c, 1, 62, 127
1, 269242, Note_off_c, 1, 54, 0
1, 269242, Note_off_c, 1, 67, 0
1, 269242, Note_off_c, 1, 71, 0
1, 269242, Note_off_c, 1, 62, 0
1, 269244, Note_on_c, 1, 54, 127
1, 269244, Note_on_c, 1, 64, 127
1, 269307, Note_on_c, 1, 67, 127
1, 269337, Note_off_c, 1, 54, 0
1, 269339, Note_on_c, 1, 52, 127
1, 269371, Note_on_c, 1, 69, 127
1, 269432, Note_off_c, 1, 52, 0
1, 269434, Note_on_c, 1, 73, 127
1, 269620, Note_off_c, 1, 64, 0
1, 269624, Note_off_c, 1, 67, 0
1, 269624, Note_on_c, 1, 66, 127
1, 269624, Note_on_c, 1, 50, 127
1, 269628, Note_off_c, 1, 69, 0
1, 269810, Note_off_c, 1, 73, 0
1, 269814, Note_on_c, 1, 74, 127
1, 270000, Note_off_c, 1, 66, 0
1, 270002, Note_off_c, 1, 50, 0
1, 270002, Note_off_c, 1, 74, 0
1, 270004, Note_on_c, 1, 74, 127
1, 270004, Note_on_c, 1, 57, 127
1, 270004, Note_on_c, 1, 64, 127
1, 270065, Note_off_c, 1, 74, 0
1, 270067, Note_on_c, 1, 73, 127
1, 270128, Note_off_c, 1, 73, 0
1, 270381, Note_off_c, 1, 57, 0
1, 270383, Note_on_c, 1, 59, 127
1, 270573, Note_on_c, 1, 71, 127
1, 270761, Note_off_c, 1, 59, 0
1, 270761, Note_off_c, 1, 71, 0
1, 270763, Note_on_c, 1, 69, 127
1, 270763, Note_on_c, 1, 61, 127
1, 270951, Note_off_c, 1, 69, 0
1, 270953, Note_on_c, 1, 76, 127
1, 271141, Note_off_c, 1, 64, 0
1, 271141, Note_off_c, 1, 61, 0
1, 271141, Note_off_c, 1, 76, 0
1, 271143, Note_on_c, 1, 57, 127
1, 271143, Note_on_c, 1, 61, 127
1, 271143, Note_on_c, 1, 81, 127
1, 271522, Note_off_c, 1, 57, 0
1, 271522, Note_off_c, 1, 61, 0
1, 271522, Note_off_c, 1, 81, 0
1, 271524, Note_on_c, 1, 81, 127
1, 271524, Note_on_c, 1, 59, 127
1, 271524, Note_on_c, 1, 62, 127
1, 271649, Note_off_c, 1, 81, 0
1, 271651, Note_on_c, 1, 79, 127
1, 271712, Note_off_c, 1, 79, 0
1, 271901, Note_off_c, 1, 59, 0
1, 271901, Note_off_c, 1, 62, 0
1, 271903, Note_on_c, 1, 79, 127
1, 271903, Note_on_c, 1, 61, 127
1, 271903, Note_on_c, 1, 64, 127
1, 272091, Note_off_c, 1, 79, 0
1, 272093, Note_on_c, 1, 81, 127
1, 272281, Note_off_c, 1, 61, 0
1, 272281, Note_off_c, 1, 64, 0
1, 272281, Note_off_c, 1, 81, 0
1, 272283, Note_on_c, 1, 78, 127
1, 272283, Note_on_c, 1, 62, 127
1, 272344, Note_off_c, 1, 78, 0
1, 272346, Note_on_c, 1, 76, 127
1, 272407, Note_off_c, 1, 76, 0
1, 272663, Note_on_c, 1, 50, 127
1, 272851, Note_off_c, 1, 50, 0
1, 272853, Note_on_c, 1, 52, 127
1, 273041, Note_off_c, 1, 52, 0
1, 273043, Note_on_c, 1, 74, 127
1, 273043, Note_on_c, 1, 54, 127
1, 273231, Note_off_c, 1, 74, 0
1, 273233, Note_on_c, 1, 73, 127
1, 273421, Note_off_c, 1, 62, 0
1, 273421, Note_off_c, 1, 54, 0
1, 273421, Note_off_c, 1, 73, 0
1, 273423, Note_on_c, 1, 71, 127
1, 273423, Note_on_c, 1, 55, 127
1, 273611, Note_off_c, 1, 71, 0
1, 273613, Note_on_c, 1, 76, 127
1, 273801, Note_off_c, 1, 55, 0
1, 273801, Note_off_c, 1, 76, 0
1, 273803, Note_on_c, 1, 74, 127
1, 273803, Note_on_c, 1, 57, 127
1, 273928, Note_off_c, 1, 74, 0
1, 273930, Note_on_c, 1, 73, 127
1, 273991, Note_off_c, 1, 73, 0
1, 274182, Note_on_c, 1, 45, 127
1, 274554, Note_off_c, 1, 57, 0
1, 274560, Note_off_c, 1, 45, 0
1, 274562, Note_on_c, 1, 50, 127
1, 274562, Note_on_c, 1, 74, 127
1, 274752, Note_on_c, 1, 69, 127
1, 274942, Note_on_c, 1, 66, 127
1, 275130, Note_off_c, 1, 50, 0
1, 275132, Note_on_c, 1, 52, 127
1, 275225, Note_off_c, 1, 52, 0
1, 275227, Note_on_c, 1, 54, 127
1, 275320, Note_off_c, 1, 54, 0
1, 275607, Note_on_c, 1, 55, 127
1, 275700, Note_off_c, 1, 74, 0
1, 275700, Note_off_c, 1, 66, 0
1, 275700, Note_off_c, 1, 55, 0
1, 275702, Note_off_c, 1, 69, 0
1, 275718, Note_on_c, 1, 78, 127
1, 275718, Note_on_c, 1, 73, 127
1, 275718, Note_on_c, 1, 46, 127
1, 276097, Note_off_c, 1, 78, 0
1, 276097, Note_off_c, 1, 73, 0
1, 276097, Note_off_c, 1, 46, 0
1, 276099, Note_on_c, 1, 78, 127
1, 276099, Note_on_c, 1, 74, 127
1, 276099, Note_on_c, 1, 47, 127
1, 276287, Note_off_c, 1, 78, 0
1, 276289, Note_on_c, 1, 79, 127
1, 276350, Note_off_c, 1, 79, 0
1, 276475, Note_off_c, 1, 74, 0
1, 276477, Note_off_c, 1, 47, 0
1, 276479, Note_on_c, 1, 72, 127
1, 276479, Note_on_c, 1, 45, 127
1, 276856, Note_off_c, 1, 72, 0
1, 276858, Note_off_c, 1, 45, 0
1, 276860, Note_on_c, 1, 78, 127
1, 276860, Note_on_c, 1, 71, 127
1, 276860, Note_on_c, 1, 43, 127
1, 276921, Note_off_c, 1, 78, 0
1, 276923, Note_on_c, 1, 76, 127
1, 276984, Note_off_c, 1, 76, 0
1, 277235, Note_off_c, 1, 71, 0
1, 277237, Note_off_c, 1, 43, 0
1, 277239, Note_on_c, 1, 69, 127
1, 277334, Note_on_c, 1, 42, 127
1, 277427, Note_off_c, 1, 42, 0
1, 277429, Note_on_c, 1, 74, 127
1, 277615, Note_off_c, 1, 69, 0
1, 277617, Note_off_c, 1, 74, 0
1, 277619, Note_on_c, 1, 74, 127
1, 277619, Note_on_c, 1, 40, 127
1, 277619, Note_on_c, 1, 67, 127
1, 277807, Note_off_c, 1, 74, 0
1, 277809, Note_on_c, 1, 72, 127
1, 277997, Note_off_c, 1, 40, 0
1, 277997, Note_off_c, 1, 72, 0
1, 277999, Note_on_c, 1, 71, 127
1, 277999, Note_on_c, 1, 49, 127
1, 278187, Note_off_c, 1, 71, 0
1, 278189, Note_on_c, 1, 70, 127
1, 278371, Note_off_c, 1, 67, 0
1, 278377, Note_off_c, 1, 49, 0
1, 278377, Note_off_c, 1, 70, 0
1, 278379, Note_on_c, 1, 71, 127
1, 278379, Note_on_c, 1, 66, 127
1, 278379, Note_on_c, 1, 50, 127
1, 278440, Note_off_c, 1, 71, 0
1, 278442, Note_on_c, 1, 70, 127
1, 278503, Note_off_c, 1, 70, 0
1, 278755, Note_off_c, 1, 66, 0
1, 278757, Note_off_c, 1, 50, 0
1, 278759, Note_on_c, 1, 67, 127
1, 278759, Note_on_c, 1, 52, 127
1, 278949, Note_on_c, 1, 73, 127
1, 279135, Note_off_c, 1, 67, 0
1, 279137, Note_off_c, 1, 52, 0
1, 279137, Note_off_c, 1, 73, 0
1, 279139, Note_on_c, 1, 71, 127
1, 279139, Note_on_c, 1, 54, 127
1, 279139, Note_on_c, 1, 61, 127
1, 279264, Note_off_c, 1, 71, 0
1, 279266, Note_on_c, 1, 70, 127
1, 279327, Note_off_c, 1, 70, 0
1, 279516, Note_off_c, 1, 54, 0
1, 279518, Note_on_c, 1, 56, 127
1, 279708, Note_on_c, 1, 68, 127
1, 279896, Note_off_c, 1, 56, 0
1, 279896, Note_off_c, 1, 68, 0
1, 279898, Note_on_c, 1, 66, 127
1, 279898, Note_on_c, 1, 58, 127
1, 280086, Note_off_c, 1, 66, 0
1, 280088, Note_on_c, 1, 73, 127
1, 280276, Note_off_c, 1, 61, 0
1, 280276, Note_off_c, 1, 58, 0
1, 280276, Note_off_c, 1, 73, 0
1, 280278, Note_on_c, 1, 78, 127
1, 280278, Note_on_c, 1, 58, 127
1, 280278, Note_on_c, 1, 54, 127
1, 280657, Note_off_c, 1, 78, 0
1, 280657, Note_off_c, 1, 58, 0
1, 280657, Note_off_c, 1, 54, 0
1, 280659, Note_on_c, 1, 78, 127
1, 280659, Note_on_c, 1, 56, 127
1, 280659, Note_on_c, 1, 59, 127
1, 280784, Note_off_c, 1, 78, 0
1, 280786, Note_on_c, 1, 76, 127
1, 280847, Note_off_c, 1, 76, 0
1, 281036, Note_off_c, 1, 56, 0
1, 281036, Note_off_c, 1, 59, 0
1, 281038, Note_on_c, 1, 76, 127
1, 281038, Note_on_c, 1, 61, 127
1, 281038, Note_on_c, 1, 58, 127
1, 281226, Note_off_c, 1, 76, 0
1, 281228, Note_on_c, 1, 78, 127
1, 281416, Note_off_c, 1, 61, 0
1, 281416, Note_off_c, 1, 58, 0
1, 281416, Note_off_c, 1, 78, 0
1, 281418, Note_on_c, 1, 76, 127
1, 281418, Note_on_c, 1, 59, 127
1, 281479, Note_off_c, 1, 76, 0
1, 281481, Note_on_c, 1, 74, 127
1, 281542, Note_off_c, 1, 74, 0
1, 281605, Note_off_c, 1, 59, 0
1, 281607, Note_on_c, 1, 61, 127
1, 281607, Note_on_c, 1, 74, 127
1, 281795, Note_off_c, 1, 61, 0
1, 281797, Note_on_c, 1, 59, 127
1, 281985, Note_off_c, 1, 74, 0
1, 281985, Note_off_c, 1, 59, 0
1, 281987, Note_on_c, 1, 73, 127
1, 281987, Note_on_c, 1, 57, 127
1, 282175, Note_off_c, 1, 73, 0
1, 282175, Note_off_c, 1, 57, 0
1, 282177, Note_on_c, 1, 71, 127
1, 282177, Note_on_c, 1, 55, 127
1, 282365, Note_off_c, 1, 71, 0
1, 282365, Note_off_c, 1, 55, 0
1, 282367, Note_on_c, 1, 70, 127
1, 282367, Note_on_c, 1, 54, 127
1, 282555, Note_off_c, 1, 70, 0
1, 282555, Note_off_c, 1, 54, 0
1, 282557, Note_on_c, 1, 71, 127
1, 282557, Note_on_c, 1, 55, 127
1, 282745, Note_off_c, 1, 71, 0
1, 282745, Note_off_c, 1, 55, 0
1, 282747, Note_on_c, 1, 73, 127
1, 282747, Note_on_c, 1, 52, 127
1, 282935, Note_off_c, 1, 73, 0
1, 282935, Note_off_c, 1, 52, 0
1, 282937, Note_on_c, 1, 74, 127
1, 282937, Note_on_c, 1, 70, 127
1, 282937, Note_on_c, 1, 54, 127
1, 283062, Note_off_c, 1, 74, 0
1, 283064, Note_on_c, 1, 73, 127
1, 283125, Note_off_c, 1, 73, 0
1, 283316, Note_on_c, 1, 42, 127
1, 283506, Note_on_c, 1, 71, 127
1, 283688, Note_off_c, 1, 70, 0
1, 283688, Note_off_c, 1, 54, 0
1, 283694, Note_off_c, 1, 42, 0
1, 283694, Note_off_c, 1, 71, 0
1, 283696, Note_on_c, 1, 47, 127
1, 283696, Note_on_c, 1, 71, 127
1, 283886, Note_on_c, 1, 66, 127
1, 284076, Note_on_c, 1, 62, 127
1, 284264, Note_off_c, 1, 47, 0
1, 284266, Note_on_c, 1, 50, 127
1, 284359, Note_off_c, 1, 50, 0
1, 284361, Note_on_c, 1, 49, 127
1, 284454, Note_off_c, 1, 49, 0
1, 284834, Note_off_c, 1, 71, 0
1, 284834, Note_off_c, 1, 62, 0
1, 284836, Note_off_c, 1, 66, 0
1, 284836, Note_on_c, 1, 44, 127
1, 284899, Note_on_c, 1, 69, 127
1, 284960, Note_off_c, 1, 69, 0
1, 285214, Note_off_c, 1, 44, 0
1, 285216, Note_on_c, 1, 44, 127
1, 285216, Note_on_c, 1, 64, 127
1, 285299, Note_on_c, 1, 71, 127
1, 285341, Note_off_c, 1, 44, 0
1, 285343, Note_on_c, 1, 42, 127
1, 285383, Note_on_c, 1, 76, 127
1, 285405, Note_off_c, 1, 42, 0
1, 285597, Note_on_c, 1, 40, 127
1, 285785, Note_off_c, 1, 76, 0
1, 285787, Note_on_c, 1, 74, 127
1, 285969, Note_off_c, 1, 64, 0
1, 285973, Note_off_c, 1, 71, 0
1, 285975, Note_off_c, 1, 40, 0
1, 285975, Note_off_c, 1, 74, 0
1, 285977, Note_on_c, 1, 74, 127
1, 285977, Note_on_c, 1, 45, 127
1, 285977, Note_on_c, 1, 64, 127
1, 286038, Note_off_c, 1, 74, 0
1, 286040, Note_on_c, 1, 73, 127
1, 286101, Note_off_c, 1, 73, 0
1, 286354, Note_off_c, 1, 45, 0
1, 286356, Note_on_c, 1, 47, 127
1, 286546, Note_on_c, 1, 71, 127
1, 286734, Note_off_c, 1, 47, 0
1, 286734, Note_off_c, 1, 71, 0
1, 286736, Note_on_c, 1, 69, 127
1, 286736, Note_on_c, 1, 49, 127
1, 286924, Note_off_c, 1, 69, 0
1, 287114, Note_off_c, 1, 64, 0
1, 287114, Note_off_c, 1, 49, 0
1, 287116, Note_on_c, 1, 57, 127
1, 287116, Note_on_c, 1, 66, 127
1, 287116, Note_on_c, 1, 50, 127
1, 287495, Note_off_c, 1, 57, 0
1, 287495, Note_off_c, 1, 66, 0
1, 287495, Note_off_c, 1, 50, 0
1, 287497, Note_on_c, 1, 49, 127
1, 287497, Note_on_c, 1, 62, 127
1, 287580, Note_on_c, 1, 64, 127
1, 287622, Note_off_c, 1, 49, 0
1, 287624, Note_on_c, 1, 47, 127
1, 287664, Note_on_c, 1, 68, 127
1, 287686, Note_off_c, 1, 47, 0
1, 287874, Note_off_c, 1, 62, 0
1, 287878, Note_off_c, 1, 64, 0
1, 287878, Note_on_c, 1, 61, 127
1, 287878, Note_on_c, 1, 45, 127
1, 288060, Note_off_c, 1, 68, 0
1, 288068, Note_on_c, 1, 69, 127
1, 288254, Note_off_c, 1, 61, 0
1, 288256, Note_off_c, 1, 45, 0
1, 288256, Note_off_c, 1, 69, 0
1, 288258, Note_on_c, 1, 69, 127
1, 288258, Note_on_c, 1, 52, 127
1, 288258, Note_on_c, 1, 59, 127
1, 288319, Note_off_c, 1, 69, 0
1, 288321, Note_on_c, 1, 68, 127
1, 288382, Note_off_c, 1, 68, 0
1, 288635, Note_off_c, 1, 52, 0
1, 288637, Note_on_c, 1, 54, 127
1, 288827, Note_on_c, 1, 66, 127
1, 289015, Note_off_c, 1, 54, 0
1, 289015, Note_off_c, 1, 66, 0
1, 289017, Note_on_c, 1, 64, 127
1, 289017, Note_on_c, 1, 56, 127
1, 289396, Note_off_c, 1, 59, 0
1, 289396, Note_off_c, 1, 64, 0
1, 289396, Note_off_c, 1, 56, 0
1, 289398, Note_on_c, 1, 71, 127
1, 289398, Note_on_c, 1, 52, 127
1, 289586, Note_off_c, 1, 71, 0
1, 289588, Note_on_c, 1, 73, 127
1, 289681, Note_off_c, 1, 73, 0
1, 289683, Note_on_c, 1, 74, 127
1, 289776, Note_off_c, 1, 52, 0
1, 289776, Note_off_c, 1, 74, 0
1, 289778, Note_on_c, 1, 74, 127
1, 289778, Note_on_c, 1, 57, 127
1, 289903, Note_off_c, 1, 74, 0
1, 289905, Note_on_c, 1, 73, 127
1, 289966, Note_off_c, 1, 73, 0
1, 290155, Note_off_c, 1, 57, 0
1, 290157, Note_on_c, 1, 73, 127
1, 290157, Note_on_c, 1, 59, 127
1, 290345, Note_off_c, 1, 73, 0
1, 290347, Note_on_c, 1, 71, 127
1, 290535, Note_off_c, 1, 59, 0
1, 290535, Note_off_c, 1, 71, 0
1, 290537, Note_on_c, 1, 71, 127
1, 290537, Note_on_c, 1, 61, 127
1, 290725, Note_off_c, 1, 71, 0
1, 290727, Note_on_c, 1, 76, 127
1, 290917, Note_on_c, 1, 59, 127
1, 291105, Note_off_c, 1, 76, 0
1, 291107, Note_on_c, 1, 78, 127
1, 291289, Note_off_c, 1, 61, 0
1, 291295, Note_off_c, 1, 59, 0
1, 291295, Note_off_c, 1, 78, 0
1, 291297, Note_on_c, 1, 79, 127
1, 291297, Note_on_c, 1, 57, 127
1, 291485, Note_off_c, 1, 79, 0
1, 291487, Note_on_c, 1, 76, 127
1, 291675, Note_off_c, 1, 57, 0
1, 291675, Note_off_c, 1, 76, 0
1, 291677, Note_on_c, 1, 73, 127
1, 291677, Note_on_c, 1, 81, 127
1, 291677, Note_on_c, 1, 45, 127
1, 292056, Note_off_c, 1, 73, 0
1, 292056, Note_off_c, 1, 81, 0
1, 292056, Note_off_c, 1, 45, 0
1, 292058, Note_on_c, 1, 81, 127
1, 292058, Note_on_c, 1, 74, 127
1, 292058, Note_on_c, 1, 47, 127
1, 292183, Note_off_c, 1, 81, 0
1, 292185, Note_on_c, 1, 79, 127
1, 292246, Note_off_c, 1, 79, 0
1, 292434, Note_off_c, 1, 74, 0
1, 292436, Note_off_c, 1, 47, 0
1, 292438, Note_on_c, 1, 79, 127
1, 292438, Note_on_c, 1, 49, 127
1, 292438, Note_on_c, 1, 76, 127
1, 292626, Note_off_c, 1, 79, 0
1, 292628, Note_on_c, 1, 81, 127
1, 292816, Note_off_c, 1, 49, 0
1, 292816, Note_off_c, 1, 81, 0
1, 292818, Note_on_c, 1, 69, 127
1, 292818, Note_on_c, 1, 50, 127
1, 292993, Note_off_c, 1, 76, 0
1, 293009, Note_on_c, 1, 78, 127
1, 293195, Note_off_c, 1, 69, 0
1, 293197, Note_off_c, 1, 50, 0
1, 293199, Note_on_c, 1, 74, 127
1, 293199, Note_on_c, 1, 47, 127
1, 293366, Note_off_c, 1, 78, 0
1, 293390, Note_on_c, 1, 80, 127
1, 293576, Note_off_c, 1, 74, 0
1, 293578, Note_off_c, 1, 47, 0
1, 293578, Note_off_c, 1, 80, 0
1, 293580, Note_on_c, 1, 81, 127
1, 293580, Note_on_c, 1, 73, 127
1, 293580, Note_on_c, 1, 49, 127
1, 293768, Note_off_c, 1, 81, 0
1, 293768, Note_off_c, 1, 73, 0
1, 293770, Note_on_c, 1, 71, 127
1, 293770, Note_on_c, 1, 74, 127
1, 293958, Note_off_c, 1, 49, 0
1, 293958, Note_off_c, 1, 71, 0
1, 293958, Note_off_c, 1, 74, 0
1, 293960, Note_on_c, 1, 73, 127
1, 293960, Note_on_c, 1, 69, 127
1, 293960, Note_on_c, 1, 50, 127
1, 294148, Note_off_c, 1, 73, 0
1, 294148, Note_off_c, 1, 69, 0
1, 294150, Note_on_c, 1, 71, 127
1, 294338, Note_off_c, 1, 50, 0
1, 294338, Note_off_c, 1, 71, 0
1, 294340, Note_on_c, 1, 73, 127
1, 294340, Note_on_c, 1, 68, 127
1, 294340, Note_on_c, 1, 52, 127
1, 294465, Note_off_c, 1, 73, 0
1, 294467, Note_on_c, 1, 71, 127
1, 294528, Note_off_c, 1, 71, 0
1, 294719, Note_on_c, 1, 40, 127
1, 294909, Note_on_c, 1, 69, 127
1, 295091, Note_off_c, 1, 68, 0
1, 295091, Note_off_c, 1, 52, 0
1, 295097, Note_off_c, 1, 40, 0
1, 295097, Note_off_c, 1, 69, 0
1, 295099, Note_on_c, 1, 45, 127
1, 295099, Note_on_c, 1, 69, 127
1, 295480, Note_on_c, 1, 33, 127
1, 295853, Note_off_c, 1, 45, 0
1, 295861, Note_on_c, 1, 40, 127
1, 296240, Note_off_c, 1, 40, 0
1, 296242, Note_on_c, 1, 61, 127
1, 296242, Note_on_c, 1, 64, 127
1, 297002, Note_off_c, 1, 33, 0
1, 297143, Note_off_c, 1, 69, 0
1, 297195, Note_off_c, 1, 61, 0
1, 297195, Note_off_c, 1, 64, 0
1, 297385, Note_on_c, 1, 45, 127
1, 297385, Note_on_c, 1, 69, 127
1, 297575, Note_on_c, 1, 64, 127
1, 297765, Note_on_c, 1, 61, 127
1, 297858, Note_off_c, 1, 45, 0
1, 297860, Note_on_c, 1, 57, 127
1, 297953, Note_off_c, 1, 57, 0
1, 297955, Note_on_c, 1, 56, 127
1, 298048, Note_off_c, 1, 56, 0
1, 298050, Note_on_c, 1, 54, 127
1, 298143, Note_off_c, 1, 54, 0
1, 298145, Note_on_c, 1, 52, 127
1, 298333, Note_off_c, 1, 52, 0
1, 298430, Note_on_c, 1, 50, 127
1, 298523, Note_off_c, 1, 69, 0
1, 298523, Note_off_c, 1, 61, 0
1, 298523, Note_off_c, 1, 50, 0
1, 298525, Note_on_c, 1, 49, 127
1, 298713, Note_off_c, 1, 49, 0
1, 298903, Note_off_c, 1, 64, 0
1, 298905, Note_on_c, 1, 64, 127
1, 298905, Note_on_c, 1, 50, 127
1, 299093, Note_off_c, 1, 64, 0
1, 299093, Note_off_c, 1, 50, 0
1, 299095, Note_on_c, 1, 66, 127
1, 299095, Note_on_c, 1, 52, 127
1, 299156, Note_off_c, 1, 66, 0
1, 299158, Note_on_c, 1, 64, 127
1, 299188, Note_off_c, 1, 52, 0
1, 299190, Note_on_c, 1, 49, 127
1, 299220, Note_off_c, 1, 64, 0
1, 299283, Note_off_c, 1, 49, 0
1, 299285, Note_on_c, 1, 47, 127
1, 299473, Note_off_c, 1, 47, 0
1, 299475, Note_on_c, 1, 49, 127
1, 299475, Note_on_c, 1, 67, 127
1, 299568, Note_off_c, 1, 49, 0
1, 299570, Note_on_c, 1, 45, 127
1, 299663, Note_off_c, 1, 67, 0
1, 299663, Note_off_c, 1, 45, 0
1, 299665, Note_on_c, 1, 67, 127
1, 299665, Note_on_c, 1, 50, 127
1, 299758, Note_off_c, 1, 67, 0
1, 299760, Note_on_c, 1, 66, 127
1, 299806, Note_off_c, 1, 66, 0
1, 299945, Note_on_c, 1, 62, 127
1, 300012, Note_off_c, 1, 62, 0
1, 300014, Note_on_c, 1, 64, 127
1, 300044, Note_off_c, 1, 50, 0
1, 300046, Note_on_c, 1, 49, 127
1, 300082, Note_off_c, 1, 64, 0
1, 300153, Note_on_c, 1, 68, 127
1, 300220, Note_off_c, 1, 68, 0
1, 300222, Note_on_c, 1, 69, 127
1, 300289, Note_off_c, 1, 69, 0
1, 300291, Note_on_c, 1, 71, 127
1, 300358, Note_off_c, 1, 71, 0
1, 300360, Note_on_c, 1, 73, 127
1, 300423, Note_off_c, 1, 49, 0
1, 300423, Note_off_c, 1, 73, 0
1, 300425, Note_on_c, 1, 47, 127
1, 300425, Note_on_c, 1, 74, 127
1, 300615, Note_on_c, 1, 71, 127
1, 300803, Note_off_c, 1, 47, 0
1, 300803, Note_off_c, 1, 71, 0
1, 300805, Note_on_c, 1, 68, 127
1, 300805, Note_on_c, 1, 52, 127
1, 300980, Note_off_c, 1, 74, 0
1, 300996, Note_on_c, 1, 76, 127
1, 301182, Note_off_c, 1, 68, 0
1, 301184, Note_off_c, 1, 52, 0
1, 301184, Note_off_c, 1, 76, 0
1, 301186, Note_on_c, 1, 74, 127
1, 301186, Note_on_c, 1, 45, 127
1, 301247, Note_off_c, 1, 74, 0
1, 301249, Note_on_c, 1, 73, 127
1, 301310, Note_off_c, 1, 73, 0
1, 301470, Note_on_c, 1, 71, 127
1, 301563, Note_off_c, 1, 45, 0
1, 301563, Note_off_c, 1, 71, 0
1, 301565, Note_on_c, 1, 69, 127
1, 301565, Note_on_c, 1, 38, 127
1, 301822, Note_off_c, 1, 69, 0
1, 301943, Note_off_c, 1, 38, 0
1, 301945, Note_on_c, 1, 40, 127
1, 301945, Note_on_c, 1, 71, 127
1, 302135, Note_on_c, 1, 68, 127
1, 302325, Note_on_c, 1, 64, 127
1, 302418, Note_off_c, 1, 40, 0
1, 302420, Note_on_c, 1, 52, 127
1, 302513, Note_off_c, 1, 52, 0
1, 302515, Note_on_c, 1, 50, 127
1, 302608, Note_off_c, 1, 50, 0
1, 302610, Note_on_c, 1, 49, 127
1, 302703, Note_off_c, 1, 49, 0
1, 302705, Note_on_c, 1, 47, 127
1, 302893, Note_off_c, 1, 47, 0
1, 302990, Note_on_c, 1, 45, 127
1, 303083, Note_off_c, 1, 71, 0
1, 303083, Note_off_c, 1, 64, 0
1, 303083, Note_off_c, 1, 45, 0
1, 303085, Note_off_c, 1, 68, 0
1, 303085, Note_on_c, 1, 44, 127
1, 303251, Note_on_c, 1, 76, 127
1, 303273, Note_off_c, 1, 44, 0
1, 303463, Note_off_c, 1, 76, 0
1, 303465, Note_on_c, 1, 76, 127
1, 303465, Note_on_c, 1, 45, 127
1, 303465, Note_on_c, 1, 71, 127
1, 303526, Note_off_c, 1, 76, 0
1, 303528, Note_on_c, 1, 74, 127
1, 303589, Note_off_c, 1, 74, 0
1, 303591, Note_on_c, 1, 73, 127
1, 303652, Note_off_c, 1, 45, 0
1, 303652, Note_off_c, 1, 73, 0
1, 303654, Note_on_c, 1, 47, 127
1, 303747, Note_off_c, 1, 47, 0
1, 303749, Note_on_c, 1, 44, 127
1, 303842, Note_off_c, 1, 44, 0
1, 303844, Note_on_c, 1, 42, 127
1, 304031, Note_off_c, 1, 42, 0
1, 304128, Note_on_c, 1, 40, 127
1, 304215, Note_off_c, 1, 71, 0
1, 304221, Note_off_c, 1, 40, 0
1, 304223, Note_on_c, 1, 74, 127
1, 304223, Note_on_c, 1, 45, 127
1, 304411, Note_off_c, 1, 74, 0
1, 304413, Note_on_c, 1, 73, 127
1, 304601, Note_off_c, 1, 45, 0
1, 304601, Note_off_c, 1, 73, 0
1, 304603, Note_on_c, 1, 71, 127
1, 304603, Note_on_c, 1, 47, 127
1, 304791, Note_off_c, 1, 71, 0
1, 304793, Note_on_c, 1, 69, 127
1, 304981, Note_off_c, 1, 47, 0
1, 304981, Note_off_c, 1, 69, 0
1, 304983, Note_on_c, 1, 68, 127
1, 304983, Note_on_c, 1, 49, 127
1, 305171, Note_off_c, 1, 68, 0
1, 305173, Note_on_c, 1, 66, 127
1, 305361, Note_off_c, 1, 49, 0
1, 305361, Note_off_c, 1, 66, 0
1, 305363, Note_on_c, 1, 78, 127
1, 305363, Note_on_c, 1, 42, 127
1, 305742, Note_off_c, 1, 78, 0
1, 305742, Note_off_c, 1, 42, 0
1, 305744, Note_on_c, 1, 78, 127
1, 305744, Note_on_c, 1, 44, 127
1, 305805, Note_off_c, 1, 78, 0
1, 305807, Note_on_c, 1, 76, 127
1, 305868, Note_off_c, 1, 76, 0
1, 305870, Note_on_c, 1, 75, 127
1, 305931, Note_off_c, 1, 75, 0
1, 306120, Note_off_c, 1, 44, 0
1, 306122, Note_on_c, 1, 78, 127
1, 306122, Note_on_c, 1, 46, 127
1, 306183, Note_off_c, 1, 78, 0
1, 306185, Note_on_c, 1, 76, 127
1, 306246, Note_off_c, 1, 76, 0
1, 306248, Note_on_c, 1, 75, 127
1, 306309, Note_off_c, 1, 75, 0
1, 306499, Note_off_c, 1, 46, 0
1, 306501, Note_on_c, 1, 76, 127
1, 306501, Note_on_c, 1, 47, 127
1, 306689, Note_off_c, 1, 76, 0
1, 306691, Note_on_c, 1, 75, 127
1, 306879, Note_off_c, 1, 47, 0
1, 306879, Note_off_c, 1, 75, 0
1, 306881, Note_on_c, 1, 73, 127
1, 306881, Note_on_c, 1, 49, 127
1, 307069, Note_off_c, 1, 73, 0
1, 307071, Note_on_c, 1, 71, 127
1, 307259, Note_off_c, 1, 49, 0
1, 307259, Note_off_c, 1, 71, 0
1, 307261, Note_on_c, 1, 69, 127
1, 307261, Note_on_c, 1, 51, 127
1, 307449, Note_off_c, 1, 69, 0
1, 307451, Note_on_c, 1, 68, 127
1, 307639, Note_off_c, 1, 51, 0
1, 307639, Note_off_c, 1, 68, 0
1, 307641, Note_on_c, 1, 83, 127
1, 307641, Note_on_c, 1, 44, 127
1, 308020, Note_off_c, 1, 83, 0
1, 308020, Note_off_c, 1, 44, 0
1, 308022, Note_on_c, 1, 83, 127
1, 308022, Note_on_c, 1, 49, 127
1, 308083, Note_off_c, 1, 83, 0
1, 308085, Note_on_c, 1, 81, 127
1, 308146, Note_off_c, 1, 81, 0
1, 308148, Note_on_c, 1, 80, 127
1, 308209, Note_off_c, 1, 80, 0
1, 308398, Note_off_c, 1, 49, 0
1, 308400, Note_on_c, 1, 83, 127
1, 308400, Note_on_c, 1, 51, 127
1, 308461, Note_off_c, 1, 83, 0
1, 308463, Note_on_c, 1, 81, 127
1, 308524, Note_off_c, 1, 81, 0
1, 308526, Note_on_c, 1, 80, 127
1, 308587, Note_off_c, 1, 80, 0
1, 308777, Note_off_c, 1, 51, 0
1, 308779, Note_on_c, 1, 81, 127
1, 308779, Note_on_c, 1, 52, 127
1, 308825, Note_off_c, 1, 81, 0
1, 308827, Note_on_c, 1, 80, 127
1, 308873, Note_off_c, 1, 80, 0
1, 308971, Note_on_c, 1, 78, 127
1, 309159, Note_off_c, 1, 52, 0
1, 309159, Note_off_c, 1, 78, 0
1, 309161, Note_on_c, 1, 80, 127
1, 309161, Note_on_c, 1, 54, 127
1, 309349, Note_off_c, 1, 80, 0
1, 309351, Note_on_c, 1, 81, 127
1, 309539, Note_off_c, 1, 54, 0
1, 309539, Note_off_c, 1, 81, 0
1, 309541, Note_on_c, 1, 83, 127
1, 309541, Note_on_c, 1, 56, 127
1, 309729, Note_off_c, 1, 83, 0
1, 309731, Note_on_c, 1, 80, 127
1, 309919, Note_off_c, 1, 56, 0
1, 309919, Note_off_c, 1, 80, 0
1, 309921, Note_on_c, 1, 81, 127
1, 309921, Note_on_c, 1, 52, 127
1, 310109, Note_off_c, 1, 81, 0
1, 310111, Note_on_c, 1, 83, 127
1, 310299, Note_off_c, 1, 52, 0
1, 310299, Note_off_c, 1, 83, 0
1, 310301, Note_on_c, 1, 74, 127
1, 310301, Note_on_c, 1, 57, 127
1, 310359, Note_on_c, 1, 73, 127
1, 310366, Note_off_c, 1, 74, 0
1, 310424, Note_off_c, 1, 73, 0
1, 310533, Note_on_c, 1, 71, 127
1, 310680, Note_off_c, 1, 71, 0
1, 310682, Note_off_c, 1, 57, 0
1, 310684, Note_on_c, 1, 73, 127
1, 310684, Note_on_c, 1, 54, 127
1, 310872, Note_off_c, 1, 73, 0
1, 310874, Note_on_c, 1, 81, 127
1, 311062, Note_off_c, 1, 54, 0
1, 311062, Note_off_c, 1, 81, 0
1, 311064, Note_on_c, 1, 76, 127
1, 311064, Note_on_c, 1, 59, 127
1, 311122, Note_on_c, 1, 75, 127
1, 311130, Note_off_c, 1, 76, 0
1, 311186, Note_off_c, 1, 75, 0
1, 311295, Note_on_c, 1, 73, 127
1, 311442, Note_off_c, 1, 73, 0
1, 311445, Note_off_c, 1, 59, 0
1, 311447, Note_on_c, 1, 75, 127
1, 311447, Note_on_c, 1, 61, 127
1, 311635, Note_off_c, 1, 75, 0
1, 311637, Note_on_c, 1, 76, 127
1, 311825, Note_off_c, 1, 61, 0
1, 311825, Note_off_c, 1, 76, 0
1, 311827, Note_on_c, 1, 63, 127
1, 311827, Note_on_c, 1, 78, 127
1, 312017, Note_on_c, 1, 69, 127
1, 312205, Note_off_c, 1, 63, 0
1, 312205, Note_off_c, 1, 69, 0
1, 312207, Note_on_c, 1, 64, 127
1, 312207, Note_on_c, 1, 68, 127
1, 312382, Note_off_c, 1, 78, 0
1, 312396, Note_off_c, 1, 64, 0
1, 312398, Note_on_c, 1, 57, 127
1, 312398, Note_on_c, 1, 76, 127
1, 312584, Note_off_c, 1, 68, 0
1, 312586, Note_off_c, 1, 57, 0
1, 312588, Note_on_c, 1, 59, 127
1, 312588, Note_on_c, 1, 66, 127
1, 312774, Note_off_c, 1, 76, 0
1, 312966, Note_off_c, 1, 59, 0
1, 312968, Note_on_c, 1, 47, 127
1, 313158, Note_on_c, 1, 75, 127
1, 313341, Note_off_c, 1, 66, 0
1, 313347, Note_off_c, 1, 47, 0
1, 313347, Note_off_c, 1, 75, 0
1, 313349, Note_on_c, 1, 76, 127
1, 313349, Note_on_c, 1, 52, 127
1, 313539, Note_on_c, 1, 71, 127
1, 313729, Note_on_c, 1, 68, 127
1, 313919, Note_on_c, 1, 63, 127
1, 314107, Note_off_c, 1, 63, 0
1, 314109, Note_on_c, 1, 64, 127
1, 314299, Note_on_c, 1, 47, 127
1, 314487, Note_off_c, 1, 47, 0
1, 314489, Note_on_c, 1, 40, 127
1, 315235, Note_off_c, 1, 68, 0
1, 315243, Note_off_c, 1, 71, 0
1, 315251, Note_off_c, 1, 76, 0
1, 315251, Note_off_c, 1, 52, 0
1, 315439, Note_off_c, 1, 64, 0
1, 315629, Note_off_c, 1, 40, 0
1, 315631, Note_on_c, 1, 40, 127
1, 315631, Note_on_c, 1, 71, 127
1, 315821, Note_on_c, 1, 68, 127
1, 316011, Note_on_c, 1, 64, 127
1, 316104, Note_off_c, 1, 40, 0
1, 316106, Note_on_c, 1, 56, 127
1, 316199, Note_off_c, 1, 56, 0
1, 316201, Note_on_c, 1, 54, 127
1, 316294, Note_off_c, 1, 54, 0
1, 316296, Note_on_c, 1, 52, 127
1, 316389, Note_off_c, 1, 52, 0
1, 316391, Note_on_c, 1, 50, 127
1, 316579, Note_off_c, 1, 50, 0
1, 316676, Note_on_c, 1, 49, 127
1, 316769, Note_off_c, 1, 71, 0
1, 316769, Note_off_c, 1, 64, 0
1, 316769, Note_off_c, 1, 49, 0
1, 317149, Note_off_c, 1, 68, 0
1, 317151, Note_on_c, 1, 68, 127
1, 317151, Note_on_c, 1, 52, 127
1, 317151, Note_on_c, 1, 66, 127
1, 317339, Note_off_c, 1, 68, 0
1, 317339, Note_off_c, 1, 52, 0
1, 317341, Note_on_c, 1, 69, 127
1, 317341, Note_on_c, 1, 54, 127
1, 317402, Note_off_c, 1, 69, 0
1, 317434, Note_off_c, 1, 54, 0
1, 317436, Note_on_c, 1, 50, 127
1, 317529, Note_off_c, 1, 50, 0
1, 317531, Note_on_c, 1, 49, 127
1, 317706, Note_off_c, 1, 66, 0
1, 317720, Note_off_c, 1, 49, 0
1, 317722, Note_on_c, 1, 50, 127
1, 317722, Note_on_c, 1, 68, 127
1, 317722, Note_on_c, 1, 71, 127
1, 317815, Note_off_c, 1, 50, 0
1, 317817, Note_on_c, 1, 47, 127
1, 317910, Note_off_c, 1, 68, 0
1, 317910, Note_off_c, 1, 71, 0
1, 317910, Note_off_c, 1, 47, 0
1, 317912, Note_on_c, 1, 71, 127
1, 317912, Note_on_c, 1, 69, 127
1, 317912, Note_on_c, 1, 45, 127
1, 318005, Note_off_c, 1, 71, 0
1, 318007, Note_on_c, 1, 73, 127
1, 318090, Note_off_c, 1, 69, 0
1, 318100, Note_off_c, 1, 73, 0
1, 318290, Note_off_c, 1, 45, 0
1, 318292, Note_on_c, 1, 71, 127
1, 318292, Note_on_c, 1, 49, 127
1, 318385, Note_off_c, 1, 71, 0
1, 318387, Note_on_c, 1, 73, 127
1, 318480, Note_off_c, 1, 73, 0
1, 318482, Note_on_c, 1, 74, 127
1, 318575, Note_off_c, 1, 74, 0
1, 318577, Note_on_c, 1, 76, 127
1, 318670, Note_off_c, 1, 49, 0
1, 318670, Note_off_c, 1, 76, 0
1, 318672, Note_on_c, 1, 50, 127
1, 318672, Note_on_c, 1, 78, 127
1, 318862, Note_on_c, 1, 74, 127
1, 319050, Note_off_c, 1, 50, 0
1, 319050, Note_off_c, 1, 74, 0
1, 319052, Note_on_c, 1, 55, 127
1, 319052, Note_on_c, 1, 71, 127
1, 319227, Note_off_c, 1, 78, 0
1, 319243, Note_on_c, 1, 79, 127
1, 319431, Note_off_c, 1, 55, 0
1, 319431, Note_off_c, 1, 79, 0
1, 319433, Note_on_c, 1, 49, 127
1, 319623, Note_on_c, 1, 76, 127
1, 319805, Note_off_c, 1, 71, 0
1, 319811, Note_off_c, 1, 49, 0
1, 319811, Note_off_c, 1, 76, 0
1, 319813, Note_on_c, 1, 74, 127
1, 319813, Note_on_c, 1, 70, 127
1, 319813, Note_on_c, 1, 54, 127
1, 320001, Note_off_c, 1, 74, 0
1, 320003, Note_on_c, 1, 73, 127
1, 320189, Note_off_c, 1, 70, 0
1, 320191, Note_off_c, 1, 54, 0
1, 320191, Note_off_c, 1, 73, 0
1, 320193, Note_on_c, 1, 47, 127
1, 320193, Note_on_c, 1, 73, 127
1, 320383, Note_on_c, 1, 71, 127
1, 320573, Note_on_c, 1, 66, 127
1, 320666, Note_off_c, 1, 47, 0
1, 320668, Note_on_c, 1, 59, 127
1, 320747, Note_off_c, 1, 73, 0
1, 320761, Note_off_c, 1, 59, 0
1, 320763, Note_on_c, 1, 57, 127
1, 320763, Note_on_c, 1, 74, 127
1, 320856, Note_off_c, 1, 57, 0
1, 320858, Note_on_c, 1, 55, 127
1, 320951, Note_off_c, 1, 55, 0
1, 320953, Note_on_c, 1, 54, 127
1, 321141, Note_off_c, 1, 54, 0
1, 321238, Note_on_c, 1, 52, 127
1, 321325, Note_off_c, 1, 66, 0
1, 321331, Note_off_c, 1, 74, 0
1, 321331, Note_off_c, 1, 52, 0
1, 321333, Note_on_c, 1, 50, 127
1, 321416, Note_on_c, 1, 78, 127
1, 321499, Note_on_c, 1, 83, 127
1, 321521, Note_off_c, 1, 50, 0
1, 321709, Note_off_c, 1, 71, 0
1, 321711, Note_off_c, 1, 83, 0
1, 321776, Note_on_c, 1, 81, 127
1, 321837, Note_off_c, 1, 81, 0
1, 321839, Note_on_c, 1, 80, 127
1, 321900, Note_off_c, 1, 80, 0
1, 321997, Note_on_c, 1, 51, 127
1, 322090, Note_off_c, 1, 51, 0
1, 322092, Note_on_c, 1, 49, 127
1, 322279, Note_off_c, 1, 49, 0
1, 322463, Note_off_c, 1, 78, 0
1, 322471, Note_on_c, 1, 81, 127
1, 322471, Note_on_c, 1, 52, 127
1, 322659, Note_off_c, 1, 81, 0
1, 322661, Note_on_c, 1, 79, 127
1, 322849, Note_off_c, 1, 52, 0
1, 322849, Note_off_c, 1, 79, 0
1, 322851, Note_on_c, 1, 78, 127
1, 322851, Note_on_c, 1, 54, 127
1, 323039, Note_off_c, 1, 78, 0
1, 323041, Note_on_c, 1, 76, 127
1, 323229, Note_off_c, 1, 54, 0
1, 323229, Note_off_c, 1, 76, 0
1, 323231, Note_on_c, 1, 74, 127
1, 323231, Note_on_c, 1, 55, 127
1, 323419, Note_off_c, 1, 74, 0
1, 323421, Note_on_c, 1, 73, 127
1, 323609, Note_off_c, 1, 55, 0
1, 323609, Note_off_c, 1, 73, 0
1, 323611, Note_on_c, 1, 71, 127
1, 323611, Note_on_c, 1, 54, 127
1, 323799, Note_off_c, 1, 71, 0
1, 323801, Note_on_c, 1, 73, 127
1, 323989, Note_off_c, 1, 54, 0
1, 323989, Note_off_c, 1, 73, 0
1, 323991, Note_on_c, 1, 52, 127
1, 323991, Note_on_c, 1, 74, 127
1, 324084, Note_off_c, 1, 52, 0
1, 324086, Note_on_c, 1, 54, 127
1, 324179, Note_off_c, 1, 74, 0
1, 324179, Note_off_c, 1, 54, 0
1, 324181, Note_on_c, 1, 78, 127
1, 324181, Note_on_c, 1, 52, 127
1, 324369, Note_off_c, 1, 78, 0
1, 324369, Note_off_c, 1, 52, 0
1, 324371, Note_on_c, 1, 76, 127
1, 324371, Note_on_c, 1, 50, 127
1, 324559, Note_off_c, 1, 76, 0
1, 324561, Note_on_c, 1, 74, 127
1, 324749, Note_off_c, 1, 50, 0
1, 324749, Note_off_c, 1, 74, 0
1, 324751, Note_on_c, 1, 74, 127
1, 324751, Note_on_c, 1, 57, 127
1, 324809, Note_on_c, 1, 73, 127
1, 324815, Note_off_c, 1, 74, 0
1, 324870, Note_off_c, 1, 73, 0
1, 324983, Note_on_c, 1, 71, 127
1, 325132, Note_off_c, 1, 71, 0
1, 325134, Note_on_c, 1, 69, 127
1, 325134, Note_on_c, 1, 61, 127
1, 325322, Note_off_c, 1, 69, 0
1, 325512, Note_off_c, 1, 61, 0
1, 325514, Note_on_c, 1, 64, 127
1, 325892, Note_off_c, 1, 57, 0
1, 325892, Note_off_c, 1, 64, 0
1, 325894, Note_on_c, 1, 76, 127
1, 325894, Note_on_c, 1, 61, 127
1, 325894, Note_on_c, 1, 57, 127
1, 326082, Note_off_c, 1, 76, 0
1, 326084, Note_on_c, 1, 78, 127
1, 326272, Note_off_c, 1, 61, 0
1, 326272, Note_off_c, 1, 57, 0
1, 326272, Note_off_c, 1, 78, 0
1, 326274, Note_on_c, 1, 79, 127
1, 326274, Note_on_c, 1, 62, 127
1, 326274, Note_on_c, 1, 59, 127
1, 326462, Note_off_c, 1, 79, 0
1, 326464, Note_on_c, 1, 83, 127
1, 326652, Note_off_c, 1, 62, 0
1, 326652, Note_off_c, 1, 59, 0
1, 326652, Note_off_c, 1, 83, 0
1, 326654, Note_on_c, 1, 81, 127
1, 326654, Note_on_c, 1, 64, 127
1, 326654, Note_on_c, 1, 61, 127
1, 326842, Note_off_c, 1, 81, 0
1, 326844, Note_on_c, 1, 79, 127
1, 327032, Note_off_c, 1, 64, 0
1, 327032, Note_off_c, 1, 61, 0
1, 327032, Note_off_c, 1, 79, 0
1, 327034, Note_on_c, 1, 78, 127
1, 327034, Note_on_c, 1, 62, 127
1, 327222, Note_off_c, 1, 78, 0
1, 327224, Note_on_c, 1, 79, 127
1, 327412, Note_off_c, 1, 62, 0
1, 327412, Note_off_c, 1, 79, 0
1, 327414, Note_on_c, 1, 78, 127
1, 327414, Note_on_c, 1, 50, 127
1, 327602, Note_off_c, 1, 78, 0
1, 327602, Note_off_c, 1, 50, 0
1, 327604, Note_on_c, 1, 76, 127
1, 327604, Note_on_c, 1, 52, 127
1, 327792, Note_off_c, 1, 76, 0
1, 327792, Note_off_c, 1, 52, 0
1, 327794, Note_on_c, 1, 74, 127
1, 327794, Note_on_c, 1, 54, 127
1, 327982, Note_off_c, 1, 74, 0
1, 327984, Note_on_c, 1, 73, 127
1, 328172, Note_off_c, 1, 54, 0
1, 328172, Note_off_c, 1, 73, 0
1, 328174, Note_on_c, 1, 71, 127
1, 328174, Note_on_c, 1, 55, 127
1, 328362, Note_off_c, 1, 71, 0
1, 328364, Note_on_c, 1, 76, 127
1, 328552, Note_off_c, 1, 55, 0
1, 328552, Note_off_c, 1, 76, 0
1, 328554, Note_on_c, 1, 74, 127
1, 328554, Note_on_c, 1, 57, 127
1, 328679, Note_off_c, 1, 74, 0
1, 328681, Note_on_c, 1, 73, 127
1, 328742, Note_off_c, 1, 73, 0
1, 328931, Note_off_c, 1, 57, 0
1, 328933, Note_on_c, 1, 73, 127
1, 328933, Note_on_c, 1, 45, 127
1, 329121, Note_off_c, 1, 73, 0
1, 329123, Note_on_c, 1, 74, 127
1, 329311, Note_off_c, 1, 45, 0
1, 329311, Note_off_c, 1, 74, 0
1, 329313, Note_on_c, 1, 38, 127
1, 329313, Note_on_c, 1, 74, 127
1, 329503, Note_on_c, 1, 69, 127
1, 329693, Note_on_c, 1, 66, 127
1, 329786, Note_off_c, 1, 38, 0
1, 329788, Note_on_c, 1, 54, 127
1, 329881, Note_off_c, 1, 54, 0
1, 329883, Note_on_c, 1, 52, 127
1, 329976, Note_off_c, 1, 52, 0
1, 329978, Note_on_c, 1, 50, 127
1, 330071, Note_off_c, 1, 50, 0
1, 330073, Note_on_c, 1, 49, 127
1, 330261, Note_off_c, 1, 49, 0
1, 330358, Note_on_c, 1, 47, 127
1, 330451, Note_off_c, 1, 74, 0
1, 330451, Note_off_c, 1, 66, 0
1, 330451, Note_off_c, 1, 47, 0
1, 330453, Note_off_c, 1, 69, 0
1, 330453, Note_on_c, 1, 78, 127
1, 330453, Note_on_c, 1, 46, 127
1, 330641, Note_off_c, 1, 78, 0
1, 330641, Note_off_c, 1, 46, 0
1, 330643, Note_on_c, 1, 79, 127
1, 330643, Note_on_c, 1, 47, 127
1, 330736, Note_off_c, 1, 79, 0
1, 330736, Note_off_c, 1, 47, 0
1, 330738, Note_on_c, 1, 81, 127
1, 330738, Note_on_c, 1, 49, 127
1, 330831, Note_off_c, 1, 81, 0
1, 330831, Note_off_c, 1, 49, 0
1, 330833, Note_on_c, 1, 81, 127
1, 330833, Note_on_c, 1, 47, 127
1, 330958, Note_off_c, 1, 81, 0
1, 330960, Note_on_c, 1, 79, 127
1, 331021, Note_off_c, 1, 47, 0
1, 331021, Note_off_c, 1, 79, 0
1, 331023, Note_on_c, 1, 81, 127
1, 331023, Note_on_c, 1, 49, 127
1, 331084, Note_off_c, 1, 81, 0
1, 331086, Note_on_c, 1, 79, 127
1, 331116, Note_off_c, 1, 49, 0
1, 331118, Note_on_c, 1, 45, 127
1, 331148, Note_off_c, 1, 79, 0
1, 331211, Note_off_c, 1, 45, 0
1, 331213, Note_on_c, 1, 79, 127
1, 331213, Note_on_c, 1, 43, 127
1, 331401, Note_off_c, 1, 79, 0
1, 331401, Note_off_c, 1, 43, 0
1, 331403, Note_on_c, 1, 45, 127
1, 331403, Note_on_c, 1, 78, 127
1, 331496, Note_off_c, 1, 45, 0
1, 331498, Note_on_c, 1, 42, 127
1, 331591, Note_off_c, 1, 78, 0
1, 331591, Note_off_c, 1, 42, 0
1, 331593, Note_on_c, 1, 78, 127
1, 331593, Note_on_c, 1, 43, 127
1, 331781, Note_off_c, 1, 78, 0
1, 331783, Note_on_c, 1, 76, 127
1, 331971, Note_off_c, 1, 43, 0
1, 331971, Note_off_c, 1, 76, 0
1, 331973, Note_on_c, 1, 42, 127
1, 331973, Note_on_c, 1, 74, 127
1, 332066, Note_off_c, 1, 42, 0
1, 332068, Note_on_c, 1, 43, 127
1, 332161, Note_off_c, 1, 74, 0
1, 332161, Note_off_c, 1, 43, 0
1, 332163, Note_on_c, 1, 73, 127
1, 332163, Note_on_c, 1, 42, 127
1, 332351, Note_off_c, 1, 73, 0
1, 332351, Note_off_c, 1, 42, 0
1, 332353, Note_on_c, 1, 74, 127
1, 332353, Note_on_c, 1, 40, 127
1, 332541, Note_off_c, 1, 74, 0
1, 332543, Note_on_c, 1, 73, 127
1, 332731, Note_off_c, 1, 40, 0
1, 332731, Note_off_c, 1, 73, 0
1, 332733, Note_on_c, 1, 71, 127
1, 332733, Note_on_c, 1, 49, 127
1, 332921, Note_off_c, 1, 71, 0
1, 332923, Note_on_c, 1, 70, 127
1, 333111, Note_off_c, 1, 49, 0
1, 333111, Note_off_c, 1, 70, 0
1, 333113, Note_on_c, 1, 71, 127
1, 333113, Note_on_c, 1, 50, 127
1, 333301, Note_off_c, 1, 71, 0
1, 333303, Note_on_c, 1, 70, 127
1, 333491, Note_off_c, 1, 50, 0
1, 333491, Note_off_c, 1, 70, 0
1, 333493, Note_on_c, 1, 71, 127
1, 333493, Note_on_c, 1, 52, 127
1, 333681, Note_off_c, 1, 71, 0
1, 333683, Note_on_c, 1, 73, 127
1, 333871, Note_off_c, 1, 52, 0
1, 333871, Note_off_c, 1, 73, 0
1, 333873, Note_on_c, 1, 70, 127
1, 333873, Note_on_c, 1, 54, 127
1, 334061, Note_off_c, 1, 70, 0
1, 334063, Note_on_c, 1, 68, 127
1, 334251, Note_off_c, 1, 68, 0
1, 334253, Note_on_c, 1, 66, 127
1, 334253, Note_on_c, 1, 58, 127
1, 334441, Note_off_c, 1, 66, 0
1, 334631, Note_off_c, 1, 58, 0
1, 334633, Note_on_c, 1, 61, 127
1, 334823, Note_on_c, 1, 71, 127
1, 335011, Note_off_c, 1, 54, 0
1, 335011, Note_off_c, 1, 61, 0
1, 335011, Note_off_c, 1, 71, 0
1, 335013, Note_on_c, 1, 73, 127
1, 335013, Note_on_c, 1, 54, 127
1, 335013, Note_on_c, 1, 58, 127
1, 335201, Note_off_c, 1, 73, 0
1, 335203, Note_on_c, 1, 74, 127
1, 335391, Note_off_c, 1, 54, 0
1, 335391, Note_off_c, 1, 58, 0
1, 335391, Note_off_c, 1, 74, 0
1, 335393, Note_on_c, 1, 76, 127
1, 335393, Note_on_c, 1, 56, 127
1, 335393, Note_on_c, 1, 59, 127
1, 335581, Note_off_c, 1, 76, 0
1, 335583, Note_on_c, 1, 79, 127
1, 335771, Note_off_c, 1, 56, 0
1, 335771, Note_off_c, 1, 59, 0
1, 335771, Note_off_c, 1, 79, 0
1, 335773, Note_on_c, 1, 78, 127
1, 335773, Note_on_c, 1, 58, 127
1, 335773, Note_on_c, 1, 61, 127
1, 335961, Note_off_c, 1, 78, 0
1, 335963, Note_on_c, 1, 76, 127
1, 336151, Note_off_c, 1, 58, 0
1, 336151, Note_off_c, 1, 61, 0
1, 336151, Note_off_c, 1, 76, 0
1, 336153, Note_on_c, 1, 74, 127
1, 336153, Note_on_c, 1, 59, 127
1, 336341, Note_off_c, 1, 74, 0
1, 336341, Note_off_c, 1, 59, 0
1, 336343, Note_on_c, 1, 76, 127
1, 336343, Note_on_c, 1, 61, 127
1, 336531, Note_off_c, 1, 76, 0
1, 336531, Note_off_c, 1, 61, 0
1, 336533, Note_on_c, 1, 74, 127
1, 336533, Note_on_c, 1, 59, 127
1, 336721, Note_off_c, 1, 74, 0
1, 336721, Note_off_c, 1, 59, 0
1, 336723, Note_on_c, 1, 73, 127
1, 336723, Note_on_c, 1, 57, 127
1, 336911, Note_off_c, 1, 73, 0
1, 336911, Note_off_c, 1, 57, 0
1, 336913, Note_on_c, 1, 71, 127
1, 336913, Note_on_c, 1, 55, 127
1, 337101, Note_off_c, 1, 71, 0
1, 337101, Note_off_c, 1, 55, 0
1, 337103, Note_on_c, 1, 70, 127
1, 337103, Note_on_c, 1, 54, 127
1, 337291, Note_off_c, 1, 70, 0
1, 337291, Note_off_c, 1, 54, 0
1, 337293, Note_on_c, 1, 71, 127
1, 337293, Note_on_c, 1, 55, 127
1, 337481, Note_off_c, 1, 71, 0
1, 337481, Note_off_c, 1, 55, 0
1, 337483, Note_on_c, 1, 73, 127
1, 337483, Note_on_c, 1, 52, 127
1, 337671, Note_off_c, 1, 73, 0
1, 337671, Note_off_c, 1, 52, 0
1, 337673, Note_on_c, 1, 74, 127
1, 337673, Note_on_c, 1, 54, 127
1, 337673, Note_on_c, 1, 70, 127
1, 337734, Note_off_c, 1, 74, 0
1, 337736, Note_on_c, 1, 73, 127
1, 337797, Note_off_c, 1, 73, 0
1, 338049, Note_off_c, 1, 54, 0
1, 338051, Note_on_c, 1, 42, 127
1, 338226, Note_off_c, 1, 70, 0
1, 338242, Note_on_c, 1, 71, 127
1, 338430, Note_off_c, 1, 42, 0
1, 338430, Note_off_c, 1, 71, 0
1, 338432, Note_on_c, 1, 35, 127
1, 338432, Note_on_c, 1, 71, 127
1, 338622, Note_on_c, 1, 66, 127
1, 338812, Note_on_c, 1, 62, 127
1, 338905, Note_off_c, 1, 35, 0
1, 338907, Note_on_c, 1, 52, 127
1, 339000, Note_off_c, 1, 52, 0
1, 339002, Note_on_c, 1, 50, 127
1, 339095, Note_off_c, 1, 50, 0
1, 339097, Note_on_c, 1, 49, 127
1, 339190, Note_off_c, 1, 49, 0
1, 339192, Note_on_c, 1, 47, 127
1, 339380, Note_off_c, 1, 47, 0
1, 339477, Note_on_c, 1, 45, 127
1, 339570, Note_off_c, 1, 71, 0
1, 339570, Note_off_c, 1, 62, 0
1, 339570, Note_off_c, 1, 45, 0
1, 339572, Note_off_c, 1, 66, 0
1, 339572, Note_on_c, 1, 44, 127
1, 339760, Note_off_c, 1, 44, 0
1, 339952, Note_on_c, 1, 73, 127
1, 339952, Note_on_c, 1, 45, 127
1, 340013, Note_off_c, 1, 73, 0
1, 340015, Note_on_c, 1, 74, 127
1, 340076, Note_off_c, 1, 74, 0
1, 340078, Note_on_c, 1, 76, 127
1, 340139, Note_off_c, 1, 45, 0
1, 340141, Note_on_c, 1, 47, 127
1, 340234, Note_off_c, 1, 47, 0
1, 340236, Note_on_c, 1, 44, 127
1, 340329, Note_off_c, 1, 44, 0
1, 340331, Note_on_c, 1, 42, 127
1, 340519, Note_off_c, 1, 76, 0
1, 340519, Note_off_c, 1, 42, 0
1, 340521, Note_on_c, 1, 44, 127
1, 340521, Note_on_c, 1, 74, 127
1, 340614, Note_off_c, 1, 44, 0
1, 340616, Note_on_c, 1, 40, 127
1, 340709, Note_off_c, 1, 74, 0
1, 340709, Note_off_c, 1, 40, 0
1, 340711, Note_on_c, 1, 73, 127
1, 340711, Note_on_c, 1, 45, 127
1, 340899, Note_off_c, 1, 73, 0
1, 340901, Note_on_c, 1, 74, 127
1, 341089, Note_off_c, 1, 45, 0
1, 341089, Note_off_c, 1, 74, 0
1, 341091, Note_on_c, 1, 73, 127
1, 341091, Note_on_c, 1, 47, 127
1, 341279, Note_off_c, 1, 73, 0
1, 341281, Note_on_c, 1, 71, 127
1, 341469, Note_off_c, 1, 47, 0
1, 341469, Note_off_c, 1, 71, 0
1, 341471, Note_on_c, 1, 69, 127
1, 341471, Note_on_c, 1, 49, 127
1, 341659, Note_off_c, 1, 69, 0
1, 341661, Note_on_c, 1, 68, 127
1, 341849, Note_off_c, 1, 49, 0
1, 341849, Note_off_c, 1, 68, 0
1, 341851, Note_on_c, 1, 66, 127
1, 341851, Note_on_c, 1, 50, 127
1, 342039, Note_off_c, 1, 66, 0
1, 342039, Note_off_c, 1, 50, 0
1, 342041, Note_on_c, 1, 68, 127
1, 342041, Note_on_c, 1, 49, 127
1, 342229, Note_off_c, 1, 68, 0
1, 342229, Note_off_c, 1, 49, 0
1, 342231, Note_on_c, 1, 47, 127
1, 342231, Note_on_c, 1, 69, 127
1, 342324, Note_off_c, 1, 47, 0
1, 342326, Note_on_c, 1, 49, 127
1, 342419, Note_off_c, 1, 69, 0
1, 342419, Note_off_c, 1, 49, 0
1, 342421, Note_on_c, 1, 73, 127
1, 342421, Note_on_c, 1, 47, 127
1, 342609, Note_off_c, 1, 73, 0
1, 342609, Note_off_c, 1, 47, 0
1, 342611, Note_on_c, 1, 71, 127
1, 342611, Note_on_c, 1, 45, 127
1, 342799, Note_off_c, 1, 71, 0
1, 342801, Note_on_c, 1, 69, 127
1, 342989, Note_off_c, 1, 45, 0
1, 342989, Note_off_c, 1, 69, 0
1, 342991, Note_on_c, 1, 68, 127
1, 342991, Note_on_c, 1, 52, 127
1, 343179, Note_off_c, 1, 68, 0
1, 343181, Note_on_c, 1, 66, 127
1, 343369, Note_off_c, 1, 66, 0
1, 343371, Note_on_c, 1, 64, 127
1, 343371, Note_on_c, 1, 56, 127
1, 343559, Note_off_c, 1, 64, 0
1, 343749, Note_off_c, 1, 56, 0
1, 343751, Note_on_c, 1, 59, 127
1, 343941, Note_on_c, 1, 69, 127
1, 344129, Note_off_c, 1, 52, 0
1, 344129, Note_off_c, 1, 69, 0
1, 344131, Note_on_c, 1, 71, 127
1, 344319, Note_off_c, 1, 71, 0
1, 344321, Note_on_c, 1, 73, 127
1, 344503, Note_off_c, 1, 59, 0
1, 344509, Note_off_c, 1, 73, 0
1, 344511, Note_on_c, 1, 74, 127
1, 344511, Note_on_c, 1, 57, 127
1, 344699, Note_off_c, 1, 74, 0
1, 344701, Note_on_c, 1, 73, 127
1, 344889, Note_off_c, 1, 57, 0
1, 344889, Note_off_c, 1, 73, 0
1, 344891, Note_on_c, 1, 71, 127
1, 344891, Note_on_c, 1, 59, 127
1, 344952, Note_off_c, 1, 71, 0
1, 344954, Note_on_c, 1, 73, 127
1, 345015, Note_off_c, 1, 73, 0
1, 345080, Note_on_c, 1, 69, 127
1, 345268, Note_off_c, 1, 59, 0
1, 345268, Note_off_c, 1, 69, 0
1, 345270, Note_on_c, 1, 76, 127
1, 345270, Note_on_c, 1, 61, 127
1, 345458, Note_off_c, 1, 76, 0
1, 345460, Note_on_c, 1, 74, 127
1, 345648, Note_off_c, 1, 74, 0
1, 345650, Note_on_c, 1, 73, 127
1, 345650, Note_on_c, 1, 64, 127
1, 345838, Note_off_c, 1, 73, 0
1, 346028, Note_off_c, 1, 64, 0
1, 346030, Note_on_c, 1, 69, 127
1, 346220, Note_on_c, 1, 78, 127
1, 346408, Note_off_c, 1, 61, 0
1, 346408, Note_off_c, 1, 69, 0
1, 346408, Note_off_c, 1, 78, 0
1, 346410, Note_on_c, 1, 79, 127
1, 346410, Note_on_c, 1, 57, 127
1, 346410, Note_on_c, 1, 61, 127
1, 346598, Note_off_c, 1, 79, 0
1, 346600, Note_on_c, 1, 78, 127
1, 346788, Note_off_c, 1, 57, 0
1, 346788, Note_off_c, 1, 61, 0
1, 346788, Note_off_c, 1, 78, 0
1, 346790, Note_on_c, 1, 79, 127
1, 346790, Note_on_c, 1, 62, 127
1, 346790, Note_on_c, 1, 59, 127
1, 346978, Note_off_c, 1, 79, 0
1, 346980, Note_on_c, 1, 83, 127
1, 347168, Note_off_c, 1, 62, 0
1, 347168, Note_off_c, 1, 59, 0
1, 347168, Note_off_c, 1, 83, 0
1, 347170, Note_on_c, 1, 81, 127
1, 347170, Note_on_c, 1, 64, 127
1, 347170, Note_on_c, 1, 61, 127
1, 347358, Note_off_c, 1, 81, 0
1, 347360, Note_on_c, 1, 79, 127
1, 347548, Note_off_c, 1, 64, 0
1, 347548, Note_off_c, 1, 61, 0
1, 347548, Note_off_c, 1, 79, 0
1, 347550, Note_on_c, 1, 78, 127
1, 347550, Note_on_c, 1, 62, 127
1, 347738, Note_off_c, 1, 78, 0
1, 347740, Note_on_c, 1, 76, 127
1, 347928, Note_off_c, 1, 62, 0
1, 347928, Note_off_c, 1, 76, 0
1, 347930, Note_on_c, 1, 78, 127
1, 347930, Note_on_c, 1, 61, 127
1, 348118, Note_off_c, 1, 78, 0
1, 348118, Note_off_c, 1, 61, 0
1, 348120, Note_on_c, 1, 80, 127
1, 348120, Note_on_c, 1, 59, 127
1, 348308, Note_off_c, 1, 80, 0
1, 348308, Note_off_c, 1, 59, 0
1, 348310, Note_on_c, 1, 81, 127
1, 348310, Note_on_c, 1, 61, 127
1, 348498, Note_off_c, 1, 81, 0
1, 348500, Note_on_c, 1, 74, 127
1, 348688, Note_off_c, 1, 61, 0
1, 348688, Note_off_c, 1, 74, 0
1, 348690, Note_on_c, 1, 73, 127
1, 348690, Note_on_c, 1, 62, 127
1, 348878, Note_off_c, 1, 73, 0
1, 348880, Note_on_c, 1, 71, 127
1, 349068, Note_off_c, 1, 62, 0
1, 349068, Note_off_c, 1, 71, 0
1, 349070, Note_on_c, 1, 73, 127
1, 349070, Note_on_c, 1, 64, 127
1, 349070, Note_on_c, 1, 68, 127
1, 349195, Note_off_c, 1, 73, 0
1, 349197, Note_on_c, 1, 71, 127
1, 349258, Note_off_c, 1, 71, 0
1, 349447, Note_off_c, 1, 64, 0
1, 349449, Note_on_c, 1, 52, 127
1, 349623, Note_off_c, 1, 68, 0
1, 349639, Note_on_c, 1, 69, 127
1, 349827, Note_off_c, 1, 52, 0
1, 349827, Note_off_c, 1, 69, 0
1, 349829, Note_on_c, 1, 45, 127
1, 349829, Note_on_c, 1, 69, 127
1, 350019, Note_on_c, 1, 64, 127
1, 350209, Note_on_c, 1, 61, 127
1, 350399, Note_on_c, 1, 56, 127
1, 350587, Note_off_c, 1, 56, 0
1, 350589, Note_on_c, 1, 57, 127
1, 350777, Note_off_c, 1, 45, 0
1, 350779, Note_on_c, 1, 40, 127
1, 350967, Note_off_c, 1, 40, 0
1, 350969, Note_on_c, 1, 33, 127
1, 351715, Note_off_c, 1, 61, 0
1, 351723, Note_off_c, 1, 64, 0
1, 351731, Note_off_c, 1, 69, 0
1, 351919, Note_off_c, 1, 57, 0
1, 352109, Note_off_c, 1, 33, 0
1, 352111, Note_on_c, 1, 57, 127
1, 352111, Note_on_c, 1, 69, 127
1, 352301, Note_on_c, 1, 64, 127
1, 352491, Note_on_c, 1, 61, 127
1, 352679, Note_off_c, 1, 57, 0
1, 352681, Note_on_c, 1, 45, 127
1, 352869, Note_off_c, 1, 45, 0
1, 352871, Note_on_c, 1, 47, 127
1, 353059, Note_off_c, 1, 47, 0
1, 353061, Note_on_c, 1, 50, 127
1, 353249, Note_off_c, 1, 69, 0
1, 353249, Note_off_c, 1, 61, 0
1, 353249, Note_off_c, 1, 50, 0
1, 353251, Note_on_c, 1, 49, 127
1, 353439, Note_off_c, 1, 49, 0
1, 353441, Note_on_c, 1, 52, 127
1, 353629, Note_off_c, 1, 64, 0
1, 353629, Note_off_c, 1, 52, 0
1, 353631, Note_on_c, 1, 64, 127
1, 353631, Note_on_c, 1, 50, 127
1, 353756, Note_off_c, 1, 64, 0
1, 353758, Note_on_c, 1, 66, 127
1, 353819, Note_off_c, 1, 50, 0
1, 353819, Note_off_c, 1, 66, 0
1, 353821, Note_on_c, 1, 64, 127
1, 353821, Note_on_c, 1, 49, 127
1, 353882, Note_off_c, 1, 64, 0
1, 353884, Note_on_c, 1, 66, 127
1, 354009, Note_off_c, 1, 49, 0
1, 354011, Note_on_c, 1, 47, 127
1, 354199, Note_off_c, 1, 66, 0
1, 354199, Note_off_c, 1, 47, 0
1, 354201, Note_on_c, 1, 67, 127
1, 354201, Note_on_c, 1, 45, 127
1, 354389, Note_off_c, 1, 67, 0
1, 354389, Note_off_c, 1, 45, 0
1, 354391, Note_on_c, 1, 67, 127
1, 354391, Note_on_c, 1, 50, 127
1, 354516, Note_off_c, 1, 67, 0
1, 354518, Note_on_c, 1, 66, 127
1, 354579, Note_off_c, 1, 50, 0
1, 354579, Note_off_c, 1, 66, 0
1, 354581, Note_on_c, 1, 67, 127
1, 354581, Note_on_c, 1, 52, 127
1, 354642, Note_off_c, 1, 67, 0
1, 354644, Note_on_c, 1, 66, 127
1, 354705, Note_off_c, 1, 66, 0
1, 354768, Note_off_c, 1, 52, 0
1, 354770, Note_on_c, 1, 66, 127
1, 354770, Note_on_c, 1, 50, 127
1, 354958, Note_off_c, 1, 66, 0
1, 354958, Note_off_c, 1, 50, 0
1, 354960, Note_on_c, 1, 69, 127
1, 354960, Note_on_c, 1, 49, 127
1, 355148, Note_off_c, 1, 69, 0
1, 355148, Note_off_c, 1, 49, 0
1, 355150, Note_on_c, 1, 47, 127
1, 355150, Note_on_c, 1, 74, 127
1, 355338, Note_off_c, 1, 47, 0
1, 355340, Note_on_c, 1, 73, 127
1, 355340, Note_on_c, 1, 45, 127
1, 355528, Note_off_c, 1, 73, 0
1, 355528, Note_off_c, 1, 45, 0
1, 355530, Note_on_c, 1, 44, 127
1, 355530, Note_on_c, 1, 71, 127
1, 355705, Note_off_c, 1, 74, 0
1, 355719, Note_off_c, 1, 44, 0
1, 355721, Note_on_c, 1, 76, 127
1, 355721, Note_on_c, 1, 40, 127
1, 355909, Note_off_c, 1, 76, 0
1, 355909, Note_off_c, 1, 40, 0
1, 356283, Note_off_c, 1, 71, 0
1, 356291, Note_on_c, 1, 73, 127
1, 356291, Note_on_c, 1, 69, 127
1, 356291, Note_on_c, 1, 37, 127
1, 356479, Note_off_c, 1, 73, 0
1, 356479, Note_off_c, 1, 69, 0
1, 356479, Note_off_c, 1, 37, 0
1, 356481, Note_on_c, 1, 71, 127
1, 356481, Note_on_c, 1, 33, 127
1, 356669, Note_off_c, 1, 71, 0
1, 356669, Note_off_c, 1, 33, 0
1, 356671, Note_on_c, 1, 40, 127
1, 356671, Note_on_c, 1, 71, 127
1, 356861, Note_on_c, 1, 68, 127
1, 357051, Note_on_c, 1, 64, 127
1, 357239, Note_off_c, 1, 40, 0
1, 357241, Note_on_c, 1, 52, 127
1, 357429, Note_off_c, 1, 52, 0
1, 357431, Note_on_c, 1, 54, 127
1, 357619, Note_off_c, 1, 54, 0
1, 357621, Note_on_c, 1, 57, 127
1, 357809, Note_off_c, 1, 71, 0
1, 357809, Note_off_c, 1, 64, 0
1, 357809, Note_off_c, 1, 57, 0
1, 357811, Note_off_c, 1, 68, 0
1, 357811, Note_on_c, 1, 56, 127
1, 357977, Note_on_c, 1, 76, 127
1, 357999, Note_off_c, 1, 56, 0
1, 358001, Note_on_c, 1, 59, 127
1, 358189, Note_off_c, 1, 76, 0
1, 358189, Note_off_c, 1, 59, 0
1, 358191, Note_on_c, 1, 76, 127
1, 358191, Note_on_c, 1, 57, 127
1, 358191, Note_on_c, 1, 71, 127
1, 358252, Note_off_c, 1, 76, 0
1, 358254, Note_on_c, 1, 74, 127
1, 358315, Note_off_c, 1, 74, 0
1, 358317, Note_on_c, 1, 73, 127
1, 358378, Note_off_c, 1, 57, 0
1, 358378, Note_off_c, 1, 73, 0
1, 358380, Note_on_c, 1, 56, 127
1, 358567, Note_off_c, 1, 56, 0
1, 358569, Note_on_c, 1, 54, 127
1, 358756, Note_off_c, 1, 54, 0
1, 358758, Note_on_c, 1, 52, 127
1, 358940, Note_off_c, 1, 71, 0
1, 358946, Note_off_c, 1, 52, 0
1, 358948, Note_on_c, 1, 74, 127
1, 358948, Note_on_c, 1, 57, 127
1, 358948, Note_on_c, 1, 69, 127
1, 359009, Note_off_c, 1, 74, 0
1, 359011, Note_on_c, 1, 73, 127
1, 359072, Note_off_c, 1, 73, 0
1, 359135, Note_off_c, 1, 57, 0
1, 359137, Note_on_c, 1, 59, 127
1, 359325, Note_off_c, 1, 59, 0
1, 359502, Note_off_c, 1, 69, 0
1, 359518, Note_on_c, 1, 71, 127
1, 359518, Note_on_c, 1, 56, 127
1, 359706, Note_off_c, 1, 71, 0
1, 359706, Note_off_c, 1, 56, 0
1, 359708, Note_on_c, 1, 69, 127
1, 359708, Note_on_c, 1, 54, 127
1, 359896, Note_off_c, 1, 69, 0
1, 359896, Note_off_c, 1, 54, 0
1, 359898, Note_on_c, 1, 73, 127
1, 359898, Note_on_c, 1, 56, 127
1, 360086, Note_off_c, 1, 73, 0
1, 360086, Note_off_c, 1, 56, 0
1, 360088, Note_on_c, 1, 57, 127
1, 360088, Note_on_c, 1, 78, 127
1, 360276, Note_off_c, 1, 57, 0
1, 360278, Note_on_c, 1, 54, 127
1, 360466, Note_off_c, 1, 78, 0
1, 360466, Note_off_c, 1, 54, 0
1, 360468, Note_on_c, 1, 78, 127
1, 360468, Note_on_c, 1, 56, 127
1, 360529, Note_off_c, 1, 78, 0
1, 360531, Note_on_c, 1, 76, 127
1, 360592, Note_off_c, 1, 76, 0
1, 360594, Note_on_c, 1, 75, 127
1, 360655, Note_off_c, 1, 56, 0
1, 360655, Note_off_c, 1, 75, 0
1, 360657, Note_on_c, 1, 76, 127
1, 360657, Note_on_c, 1, 59, 127
1, 360718, Note_off_c, 1, 76, 0
1, 360720, Note_on_c, 1, 78, 127
1, 360781, Note_off_c, 1, 78, 0
1, 360844, Note_off_c, 1, 59, 0
1, 360846, Note_on_c, 1, 78, 127
1, 360846, Note_on_c, 1, 58, 127
1, 360907, Note_off_c, 1, 78, 0
1, 360909, Note_on_c, 1, 76, 127
1, 360970, Note_off_c, 1, 76, 0
1, 360972, Note_on_c, 1, 75, 127
1, 361033, Note_off_c, 1, 58, 0
1, 361033, Note_off_c, 1, 75, 0
1, 361035, Note_on_c, 1, 76, 127
1, 361035, Note_on_c, 1, 61, 127
1, 361096, Note_off_c, 1, 76, 0
1, 361098, Note_on_c, 1, 78, 127
1, 361223, Note_off_c, 1, 61, 0
1, 361223, Note_off_c, 1, 78, 0
1, 361225, Note_on_c, 1, 76, 127
1, 361225, Note_on_c, 1, 59, 127
1, 361286, Note_off_c, 1, 76, 0
1, 361288, Note_on_c, 1, 75, 127
1, 361349, Note_off_c, 1, 75, 0
1, 361412, Note_off_c, 1, 59, 0
1, 361414, Note_on_c, 1, 61, 127
1, 361414, Note_on_c, 1, 75, 127
1, 361602, Note_off_c, 1, 61, 0
1, 361604, Note_on_c, 1, 59, 127
1, 361792, Note_off_c, 1, 75, 0
1, 361792, Note_off_c, 1, 59, 0
1, 361794, Note_on_c, 1, 73, 127
1, 361794, Note_on_c, 1, 57, 127
1, 361982, Note_off_c, 1, 73, 0
1, 361982, Note_off_c, 1, 57, 0
1, 361984, Note_on_c, 1, 71, 127
1, 361984, Note_on_c, 1, 56, 127
1, 362172, Note_off_c, 1, 71, 0
1, 362172, Note_off_c, 1, 56, 0
1, 362174, Note_on_c, 1, 78, 127
1, 362174, Note_on_c, 1, 57, 127
1, 362362, Note_off_c, 1, 78, 0
1, 362362, Note_off_c, 1, 57, 0
1, 362364, Note_on_c, 1, 59, 127
1, 362364, Note_on_c, 1, 83, 127
1, 362552, Note_off_c, 1, 59, 0
1, 362554, Note_on_c, 1, 56, 127
1, 362742, Note_off_c, 1, 83, 0
1, 362742, Note_off_c, 1, 56, 0
1, 362744, Note_on_c, 1, 83, 127
1, 362744, Note_on_c, 1, 61, 127
1, 362805, Note_off_c, 1, 83, 0
1, 362807, Note_on_c, 1, 81, 127
1, 362868, Note_off_c, 1, 81, 0
1, 362870, Note_on_c, 1, 80, 127
1, 362931, Note_off_c, 1, 61, 0
1, 362931, Note_off_c, 1, 80, 0
1, 362933, Note_on_c, 1, 81, 127
1, 362933, Note_on_c, 1, 64, 127
1, 362994, Note_off_c, 1, 81, 0
1, 362996, Note_on_c, 1, 83, 127
1, 363057, Note_off_c, 1, 83, 0
1, 363120, Note_off_c, 1, 64, 0
1, 363122, Note_on_c, 1, 83, 127
1, 363122, Note_on_c, 1, 63, 127
1, 363183, Note_off_c, 1, 83, 0
1, 363185, Note_on_c, 1, 81, 127
1, 363246, Note_off_c, 1, 81, 0
1, 363248, Note_on_c, 1, 80, 127
1, 363309, Note_off_c, 1, 63, 0
1, 363309, Note_off_c, 1, 80, 0
1, 363311, Note_on_c, 1, 81, 127
1, 363311, Note_on_c, 1, 66, 127
1, 363372, Note_off_c, 1, 81, 0
1, 363374, Note_on_c, 1, 83, 127
1, 363499, Note_off_c, 1, 66, 0
1, 363499, Note_off_c, 1, 83, 0
1, 363501, Note_on_c, 1, 81, 127
1, 363501, Note_on_c, 1, 64, 127
1, 363562, Note_off_c, 1, 81, 0
1, 363564, Note_on_c, 1, 80, 127
1, 363625, Note_off_c, 1, 80, 0
1, 363688, Note_off_c, 1, 64, 0
1, 363690, Note_on_c, 1, 63, 127
1, 363690, Note_on_c, 1, 80, 127
1, 363878, Note_off_c, 1, 63, 0
1, 363880, Note_on_c, 1, 64, 127
1, 364068, Note_off_c, 1, 80, 0
1, 364068, Note_off_c, 1, 64, 0
1, 364070, Note_on_c, 1, 81, 127
1, 364070, Note_on_c, 1, 66, 127
1, 364258, Note_off_c, 1, 81, 0
1, 364258, Note_off_c, 1, 66, 0
1, 364260, Note_on_c, 1, 83, 127
1, 364260, Note_on_c, 1, 68, 127
1, 364448, Note_off_c, 1, 83, 0
1, 364448, Note_off_c, 1, 68, 0
1, 364450, Note_on_c, 1, 80, 127
1, 364450, Note_on_c, 1, 64, 127
1, 364638, Note_off_c, 1, 80, 0
1, 364638, Note_off_c, 1, 64, 0
1, 364640, Note_on_c, 1, 81, 127
1, 364640, Note_on_c, 1, 66, 127
1, 364828, Note_off_c, 1, 81, 0
1, 364828, Note_off_c, 1, 66, 0
1, 364830, Note_on_c, 1, 83, 127
1, 364830, Note_on_c, 1, 68, 127
1, 365018, Note_off_c, 1, 83, 0
1, 365018, Note_off_c, 1, 68, 0
1, 365020, Note_on_c, 1, 74, 127
1, 365020, Note_on_c, 1, 69, 127
1, 365081, Note_off_c, 1, 74, 0
1, 365083, Note_on_c, 1, 73, 127
1, 365144, Note_off_c, 1, 73, 0
1, 365207, Note_off_c, 1, 69, 0
1, 365209, Note_on_c, 1, 68, 127
1, 365209, Note_on_c, 1, 73, 127
1, 365397, Note_off_c, 1, 68, 0
1, 365399, Note_on_c, 1, 69, 127
1, 365587, Note_off_c, 1, 73, 0
1, 365587, Note_off_c, 1, 69, 0
1, 365589, Note_on_c, 1, 81, 127
1, 365589, Note_on_c, 1, 66, 127
1, 365777, Note_off_c, 1, 81, 0
1, 365777, Note_off_c, 1, 66, 0
1, 365779, Note_on_c, 1, 76, 127
1, 365779, Note_on_c, 1, 71, 127
1, 365840, Note_off_c, 1, 76, 0
1, 365842, Note_on_c, 1, 75, 127
1, 365903, Note_off_c, 1, 75, 0
1, 365968, Note_on_c, 1, 47, 127
1, 366156, Note_off_c, 1, 47, 0
1, 366158, Note_on_c, 1, 49, 127
1, 366333, Note_off_c, 1, 71, 0
1, 366347, Note_off_c, 1, 49, 0
1, 366349, Note_on_c, 1, 73, 127
1, 366349, Note_on_c, 1, 51, 127
1, 366537, Note_off_c, 1, 73, 0
1, 366537, Note_off_c, 1, 51, 0
1, 366539, Note_on_c, 1, 71, 127
1, 366539, Note_on_c, 1, 52, 127
1, 366727, Note_off_c, 1, 71, 0
1, 366727, Note_off_c, 1, 52, 0
1, 366729, Note_on_c, 1, 69, 127
1, 366729, Note_on_c, 1, 54, 127
1, 366917, Note_off_c, 1, 69, 0
1, 366917, Note_off_c, 1, 54, 0
1, 366919, Note_on_c, 1, 68, 127
1, 366919, Note_on_c, 1, 56, 127
1, 367107, Note_off_c, 1, 68, 0
1, 367107, Note_off_c, 1, 56, 0
1, 367109, Note_on_c, 1, 76, 127
1, 367109, Note_on_c, 1, 57, 127
1, 367297, Note_off_c, 1, 76, 0
1, 367297, Note_off_c, 1, 57, 0
1, 367299, Note_on_c, 1, 68, 127
1, 367299, Note_on_c, 1, 59, 127
1, 367299, Note_on_c, 1, 63, 127
1, 367424, Note_off_c, 1, 68, 0
1, 367426, Note_on_c, 1, 66, 127
1, 367487, Note_off_c, 1, 59, 0
1, 367487, Note_off_c, 1, 66, 0
1, 367489, Note_on_c, 1, 57, 127
1, 367676, Note_off_c, 1, 57, 0
1, 367853, Note_off_c, 1, 63, 0
1, 367869, Note_on_c, 1, 64, 127
1, 367869, Note_on_c, 1, 47, 127
1, 368057, Note_off_c, 1, 64, 0
1, 368057, Note_off_c, 1, 47, 0
1, 368059, Note_on_c, 1, 52, 127
1, 368059, Note_on_c, 1, 64, 127
1, 368249, Note_on_c, 1, 59, 127
1, 368439, Note_on_c, 1, 56, 127
1, 368627, Note_off_c, 1, 52, 0
1, 368629, Note_on_c, 1, 47, 127
1, 368817, Note_off_c, 1, 47, 0
1, 368819, Note_on_c, 1, 40, 127
1, 369768, Note_off_c, 1, 59, 0
1, 369958, Note_off_c, 1, 40, 0
1, 369960, Note_off_c, 1, 64, 0
1, 369987, Note_on_c, 1, 71, 127
1, 370148, Note_off_c, 1, 56, 0
1, 370307, Note_off_c, 1, 71, 0
1, 370340, Note_on_c, 1, 40, 127
1, 370340, Note_on_c, 1, 71, 127
1, 370530, Note_on_c, 1, 68, 127
1, 370720, Note_on_c, 1, 64, 127
1, 370908, Note_off_c, 1, 40, 0
1, 370910, Note_on_c, 1, 47, 127
1, 371098, Note_off_c, 1, 47, 0
1, 371100, Note_on_c, 1, 49, 127
1, 371288, Note_off_c, 1, 49, 0
1, 371290, Note_on_c, 1, 52, 127
1, 371478, Note_off_c, 1, 71, 0
1, 371478, Note_off_c, 1, 64, 0
1, 371478, Note_off_c, 1, 52, 0
1, 371480, Note_on_c, 1, 50, 127
1, 371668, Note_off_c, 1, 50, 0
1, 371670, Note_on_c, 1, 54, 127
1, 371858, Note_off_c, 1, 68, 0
1, 371858, Note_off_c, 1, 54, 0
1, 371860, Note_on_c, 1, 68, 127
1, 371860, Note_on_c, 1, 52, 127
1, 371860, Note_on_c, 1, 66, 127
1, 371985, Note_off_c, 1, 68, 0
1, 371987, Note_on_c, 1, 69, 127
1, 372048, Note_off_c, 1, 52, 0
1, 372048, Note_off_c, 1, 69, 0
1, 372050, Note_on_c, 1, 50, 127
1, 372238, Note_off_c, 1, 50, 0
1, 372240, Note_on_c, 1, 49, 127
1, 372415, Note_off_c, 1, 66, 0
1, 372429, Note_off_c, 1, 49, 0
1, 372431, Note_on_c, 1, 71, 127
1, 372431, Note_on_c, 1, 68, 127
1, 372431, Note_on_c, 1, 47, 127
1, 372619, Note_off_c, 1, 71, 0
1, 372619, Note_off_c, 1, 68, 0
1, 372619, Note_off_c, 1, 47, 0
1, 372621, Note_on_c, 1, 45, 127
1, 372621, Note_on_c, 1, 73, 127
1, 372621, Note_on_c, 1, 69, 127
1, 372809, Note_off_c, 1, 45, 0
1, 372811, Note_on_c, 1, 57, 127
1, 372999, Note_off_c, 1, 57, 0
1, 373001, Note_on_c, 1, 59, 127
1, 373189, Note_off_c, 1, 73, 0
1, 373189, Note_off_c, 1, 69, 0
1, 373189, Note_off_c, 1, 59, 0
1, 373191, Note_on_c, 1, 61, 127
1, 373191, Note_on_c, 1, 69, 127
1, 373379, Note_off_c, 1, 61, 0
1, 373381, Note_on_c, 1, 62, 127
1, 373381, Note_on_c, 1, 78, 127
1, 373569, Note_off_c, 1, 62, 0
1, 373746, Note_off_c, 1, 69, 0
1, 373762, Note_on_c, 1, 59, 127
1, 373762, Note_on_c, 1, 74, 127
1, 373937, Note_off_c, 1, 78, 0
1, 373951, Note_off_c, 1, 59, 0
1, 373953, Note_on_c, 1, 79, 127
1, 373953, Note_on_c, 1, 57, 127
1, 374141, Note_off_c, 1, 79, 0
1, 374141, Note_off_c, 1, 57, 0
1, 374143, Note_on_c, 1, 56, 127
1, 374270, Note_on_c, 1, 76, 127
1, 374318, Note_off_c, 1, 74, 0
1, 374332, Note_off_c, 1, 56, 0
1, 374332, Note_off_c, 1, 76, 0
1, 374334, Note_on_c, 1, 78, 127
1, 374334, Note_on_c, 1, 59, 127
1, 374395, Note_off_c, 1, 78, 0
1, 374397, Note_on_c, 1, 76, 127
1, 374458, Note_off_c, 1, 76, 0
1, 374521, Note_off_c, 1, 59, 0
1, 374523, Note_on_c, 1, 76, 127
1, 374523, Note_on_c, 1, 73, 127
1, 374523, Note_on_c, 1, 58, 127
1, 374711, Note_off_c, 1, 76, 0
1, 374711, Note_off_c, 1, 73, 0
1, 374711, Note_off_c, 1, 58, 0
1, 374713, Note_on_c, 1, 74, 127
1, 374713, Note_on_c, 1, 61, 127
1, 374806, Note_off_c, 1, 74, 0
1, 374808, Note_on_c, 1, 73, 127
1, 374901, Note_off_c, 1, 61, 0
1, 374901, Note_off_c, 1, 73, 0
1, 374903, Note_on_c, 1, 59, 127
1, 374903, Note_on_c, 1, 74, 127
1, 375091, Note_off_c, 1, 59, 0
1, 375093, Note_on_c, 1, 58, 127
1, 375093, Note_on_c, 1, 71, 127
1, 375281, Note_off_c, 1, 58, 0
1, 375283, Note_on_c, 1, 66, 127
1, 375473, Note_on_c, 1, 62, 127
1, 375661, Note_off_c, 1, 62, 0
1, 375663, Note_on_c, 1, 61, 127
1, 375851, Note_off_c, 1, 61, 0
1, 375853, Note_on_c, 1, 64, 127
1, 376041, Note_off_c, 1, 74, 0
1, 376041, Note_off_c, 1, 66, 0
1, 376041, Note_off_c, 1, 64, 0
1, 376126, Note_on_c, 1, 78, 127
1, 376209, Note_on_c, 1, 83, 127
1, 376404, Note_off_c, 1, 78, 0
1, 376420, Note_off_c, 1, 71, 0
1, 376422, Note_off_c, 1, 83, 0
1, 376424, Note_on_c, 1, 83, 127
1, 376424, Note_on_c, 1, 64, 127
1, 376424, Note_on_c, 1, 78, 127
1, 376485, Note_off_c, 1, 83, 0
1, 376487, Note_on_c, 1, 81, 127
1, 376548, Note_off_c, 1, 81, 0
1, 376550, Note_on_c, 1, 80, 127
1, 376611, Note_off_c, 1, 64, 0
1, 376611, Note_off_c, 1, 80, 0
1, 376613, Note_on_c, 1, 63, 127
1, 376800, Note_off_c, 1, 63, 0
1, 376802, Note_on_c, 1, 61, 127
1, 376989, Note_off_c, 1, 61, 0
1, 376991, Note_on_c, 1, 59, 127
1, 377173, Note_off_c, 1, 78, 0
1, 377179, Note_off_c, 1, 59, 0
1, 377181, Note_on_c, 1, 81, 127
1, 377181, Note_on_c, 1, 64, 127
1, 377181, Note_on_c, 1, 76, 127
1, 377306, Note_off_c, 1, 81, 0
1, 377308, Note_on_c, 1, 79, 127
1, 377369, Note_off_c, 1, 64, 0
1, 377369, Note_off_c, 1, 79, 0
1, 377371, Note_on_c, 1, 66, 127
1, 377558, Note_off_c, 1, 66, 0
1, 377735, Note_off_c, 1, 76, 0
1, 377751, Note_on_c, 1, 78, 127
1, 377751, Note_on_c, 1, 62, 127
1, 377939, Note_off_c, 1, 78, 0
1, 377939, Note_off_c, 1, 62, 0
1, 377941, Note_on_c, 1, 76, 127
1, 377941, Note_on_c, 1, 61, 127
1, 378129, Note_off_c, 1, 76, 0
1, 378129, Note_off_c, 1, 61, 0
1, 378131, Note_on_c, 1, 79, 127
1, 378131, Note_on_c, 1, 59, 127
1, 378319, Note_off_c, 1, 79, 0
1, 378319, Note_off_c, 1, 59, 0
1, 378321, Note_on_c, 1, 57, 127
1, 378321, Note_on_c, 1, 62, 127
1, 378321, Note_on_c, 1, 71, 127
1, 378509, Note_off_c, 1, 57, 0
1, 378511, Note_on_c, 1, 55, 127
1, 378699, Note_off_c, 1, 62, 0
1, 378699, Note_off_c, 1, 71, 0
1, 378699, Note_off_c, 1, 55, 0
1, 378701, Note_on_c, 1, 54, 127
1, 378701, Note_on_c, 1, 64, 127
1, 378749, Note_on_c, 1, 67, 127
1, 378797, Note_on_c, 1, 69, 127
1, 378845, Note_on_c, 1, 73, 127
1, 378891, Note_off_c, 1, 54, 0
1, 378893, Note_on_c, 1, 52, 127
1, 379081, Note_off_c, 1, 52, 0
1, 379234, Note_off_c, 1, 69, 0
1, 379256, Note_off_c, 1, 67, 0
1, 379258, Note_off_c, 1, 64, 0
1, 379272, Note_off_c, 1, 73, 0
1, 379274, Note_on_c, 1, 74, 127
1, 379274, Note_on_c, 1, 66, 127
1, 379274, Note_on_c, 1, 50, 127
1, 379462, Note_off_c, 1, 74, 0
1, 379462, Note_off_c, 1, 66, 0
1, 379462, Note_off_c, 1, 50, 0
1, 379464, Note_on_c, 1, 74, 127
1, 379464, Note_on_c, 1, 57, 127
1, 379464, Note_on_c, 1, 64, 127
1, 379525, Note_off_c, 1, 74, 0
1, 379527, Note_on_c, 1, 73, 127
1, 379588, Note_off_c, 1, 73, 0
1, 379651, Note_off_c, 1, 57, 0
1, 379653, Note_on_c, 1, 59, 127
1, 379840, Note_off_c, 1, 59, 0
1, 380032, Note_on_c, 1, 71, 127
1, 380032, Note_on_c, 1, 55, 127
1, 380214, Note_off_c, 1, 64, 0
1, 380220, Note_off_c, 1, 71, 0
1, 380220, Note_off_c, 1, 55, 0
1, 380222, Note_on_c, 1, 54, 127
1, 380222, Note_on_c, 1, 69, 127
1, 380410, Note_off_c, 1, 54, 0
1, 380412, Note_on_c, 1, 52, 127
1, 380412, Note_on_c, 1, 76, 127
1, 380600, Note_off_c, 1, 52, 0
1, 380602, Note_on_c, 1, 50, 127
1, 380602, Note_on_c, 1, 81, 127
1, 380790, Note_off_c, 1, 50, 0
1, 380792, Note_on_c, 1, 49, 127
1, 380967, Note_off_c, 1, 76, 0
1, 380975, Note_off_c, 1, 69, 0
1, 380981, Note_off_c, 1, 81, 0
1, 380981, Note_off_c, 1, 49, 0
1, 380983, Note_on_c, 1, 81, 127
1, 380983, Note_on_c, 1, 47, 127
1, 380983, Note_on_c, 1, 74, 127
1, 381044, Note_off_c, 1, 81, 0
1, 381046, Note_on_c, 1, 79, 127
1, 381107, Note_off_c, 1, 79, 0
1, 381109, Note_on_c, 1, 78, 127
1, 381170, Note_off_c, 1, 47, 0
1, 381170, Note_off_c, 1, 78, 0
1, 381172, Note_on_c, 1, 50, 127
1, 381358, Note_off_c, 1, 74, 0
1, 381360, Note_off_c, 1, 50, 0
1, 381362, Note_on_c, 1, 81, 127
1, 381362, Note_on_c, 1, 49, 127
1, 381362, Note_on_c, 1, 76, 127
1, 381423, Note_off_c, 1, 81, 0
1, 381425, Note_on_c, 1, 79, 127
1, 381486, Note_off_c, 1, 79, 0
1, 381488, Note_on_c, 1, 78, 127
1, 381549, Note_off_c, 1, 49, 0
1, 381549, Note_off_c, 1, 78, 0
1, 381551, Note_on_c, 1, 52, 127
1, 381737, Note_off_c, 1, 76, 0
1, 381739, Note_off_c, 1, 52, 0
1, 381741, Note_on_c, 1, 79, 127
1, 381741, Note_on_c, 1, 50, 127
1, 381741, Note_on_c, 1, 69, 127
1, 381866, Note_off_c, 1, 79, 0
1, 381868, Note_on_c, 1, 78, 127
1, 381929, Note_off_c, 1, 50, 0
1, 381929, Note_off_c, 1, 78, 0
1, 381931, Note_on_c, 1, 54, 127
1, 382119, Note_off_c, 1, 54, 0
1, 382121, Note_on_c, 1, 52, 127
1, 382309, Note_off_c, 1, 52, 0
1, 382311, Note_on_c, 1, 76, 127
1, 382311, Note_on_c, 1, 55, 127
1, 382499, Note_off_c, 1, 76, 0
1, 382499, Note_off_c, 1, 55, 0
1, 382501, Note_on_c, 1, 74, 127
1, 382689, Note_off_c, 1, 74, 0
1, 382691, Note_on_c, 1, 73, 127
1, 382691, Note_on_c, 1, 57, 127
1, 382879, Note_off_c, 1, 69, 0
1, 382879, Note_off_c, 1, 73, 0
1, 382879, Note_off_c, 1, 57, 0
1, 382881, Note_on_c, 1, 71, 127
1, 382881, Note_on_c, 1, 55, 127
1, 383069, Note_off_c, 1, 71, 0
1, 383069, Note_off_c, 1, 55, 0
1, 383071, Note_on_c, 1, 76, 127
1, 383071, Note_on_c, 1, 59, 127
1, 383259, Note_off_c, 1, 76, 0
1, 383259, Note_off_c, 1, 59, 0
1, 383261, Note_on_c, 1, 74, 127
1, 383261, Note_on_c, 1, 57, 127
1, 383261, Note_on_c, 1, 67, 127
1, 383386, Note_off_c, 1, 74, 0
1, 383388, Note_on_c, 1, 73, 127
1, 383449, Note_off_c, 1, 57, 0
1, 383449, Note_off_c, 1, 73, 0
1, 383451, Note_on_c, 1, 55, 127
1, 383638, Note_off_c, 1, 55, 0
1, 383830, Note_on_c, 1, 45, 127
1, 384012, Note_off_c, 1, 67, 0
1, 384018, Note_off_c, 1, 45, 0
1, 384020, Note_on_c, 1, 50, 127
1, 384020, Note_on_c, 1, 66, 127
1, 384020, Note_on_c, 1, 69, 127
1, 384020, Note_on_c, 1, 74, 127
1, 384208, Note_off_c, 1, 50, 0
1, 384210, Note_on_c, 1, 57, 127
1, 384398, Note_off_c, 1, 57, 0
1, 384400, Note_on_c, 1, 59, 127
1, 384588, Note_off_c, 1, 59, 0
1, 384590, Note_on_c, 1, 62, 127
1, 384778, Note_off_c, 1, 62, 0
1, 384780, Note_on_c, 1, 61, 127
1, 384968, Note_off_c, 1, 61, 0
1, 384970, Note_on_c, 1, 64, 127
1, 385158, Note_off_c, 1, 66, 0
1, 385176, Note_on_c, 1, 78, 127
1, 385178, Note_off_c, 1, 64, 0
1, 385186, Note_off_c, 1, 69, 0
1, 385189, Note_off_c, 1, 74, 0
1, 385237, Note_off_c, 1, 78, 0
1, 385239, Note_on_c, 1, 76, 127
1, 385300, Note_off_c, 1, 76, 0
1, 385555, Note_on_c, 1, 64, 127
1, 385555, Note_on_c, 1, 78, 127
1, 385743, Note_off_c, 1, 64, 0
1, 385743, Note_off_c, 1, 78, 0
1, 385745, Note_on_c, 1, 79, 127
1, 385745, Note_on_c, 1, 62, 127
1, 385806, Note_off_c, 1, 79, 0
1, 385808, Note_on_c, 1, 78, 127
1, 385869, Note_off_c, 1, 78, 0
1, 385932, Note_off_c, 1, 62, 0
1, 385934, Note_on_c, 1, 61, 127
1, 386122, Note_off_c, 1, 61, 0
1, 386124, Note_on_c, 1, 59, 127
1, 386124, Note_on_c, 1, 78, 127
1, 386312, Note_off_c, 1, 59, 0
1, 386312, Note_off_c, 1, 78, 0
1, 386314, Note_on_c, 1, 78, 127
1, 386314, Note_on_c, 1, 58, 127
1, 386439, Note_off_c, 1, 78, 0
1, 386441, Note_on_c, 1, 76, 127
1, 386502, Note_off_c, 1, 58, 0
1, 386502, Note_off_c, 1, 76, 0
1, 386504, Note_on_c, 1, 78, 127
1, 386504, Note_on_c, 1, 59, 127
1, 386565, Note_off_c, 1, 78, 0
1, 386567, Note_on_c, 1, 76, 127
1, 386628, Note_off_c, 1, 76, 0
1, 386691, Note_off_c, 1, 59, 0
1, 386693, Note_on_c, 1, 61, 127
1, 386693, Note_on_c, 1, 76, 127
1, 386881, Note_off_c, 1, 61, 0
1, 386881, Note_off_c, 1, 76, 0
1, 386883, Note_on_c, 1, 62, 127
1, 386883, Note_on_c, 1, 74, 127
1, 387071, Note_off_c, 1, 62, 0
1, 387071, Note_off_c, 1, 74, 0
1, 387073, Note_on_c, 1, 74, 127
1, 387073, Note_on_c, 1, 64, 127
1, 387198, Note_off_c, 1, 74, 0
1, 387200, Note_on_c, 1, 73, 127
1, 387261, Note_off_c, 1, 64, 0
1, 387261, Note_off_c, 1, 73, 0
1, 387263, Note_on_c, 1, 74, 127
1, 387263, Note_on_c, 1, 62, 127
1, 387324, Note_off_c, 1, 74, 0
1, 387326, Note_on_c, 1, 73, 127
1, 387451, Note_off_c, 1, 62, 0
1, 387451, Note_off_c, 1, 73, 0
1, 387453, Note_on_c, 1, 64, 127
1, 387453, Note_on_c, 1, 71, 127
1, 387641, Note_off_c, 1, 64, 0
1, 387641, Note_off_c, 1, 71, 0
1, 387643, Note_on_c, 1, 66, 127
1, 387643, Note_on_c, 1, 70, 127
1, 387831, Note_off_c, 1, 66, 0
1, 387831, Note_off_c, 1, 70, 0
1, 387833, Note_on_c, 1, 70, 127
1, 387833, Note_on_c, 1, 67, 127
1, 387958, Note_off_c, 1, 70, 0
1, 387960, Note_on_c, 1, 71, 127
1, 388021, Note_off_c, 1, 67, 0
1, 388021, Note_off_c, 1, 71, 0
1, 388023, Note_on_c, 1, 70, 127
1, 388023, Note_on_c, 1, 66, 127
1, 388084, Note_off_c, 1, 70, 0
1, 388086, Note_on_c, 1, 71, 127
1, 388211, Note_off_c, 1, 66, 0
1, 388213, Note_on_c, 1, 67, 127
1, 388401, Note_off_c, 1, 71, 0
1, 388401, Note_off_c, 1, 67, 0
1, 388403, Note_on_c, 1, 64, 127
1, 388403, Note_on_c, 1, 73, 127
1, 388591, Note_off_c, 1, 64, 0
1, 388591, Note_off_c, 1, 73, 0
1, 388593, Note_on_c, 1, 71, 127
1, 388593, Note_on_c, 1, 66, 127
1, 388654, Note_off_c, 1, 71, 0
1, 388656, Note_on_c, 1, 70, 127
1, 388717, Note_off_c, 1, 70, 0
1, 388780, Note_off_c, 1, 66, 0
1, 388782, Note_on_c, 1, 67, 127
1, 388782, Note_on_c, 1, 70, 127
1, 388970, Note_off_c, 1, 67, 0
1, 388972, Note_on_c, 1, 66, 127
1, 389160, Note_off_c, 1, 70, 0
1, 389160, Note_off_c, 1, 66, 0
1, 389162, Note_on_c, 1, 64, 127
1, 389162, Note_on_c, 1, 68, 127
1, 389350, Note_off_c, 1, 64, 0
1, 389350, Note_off_c, 1, 68, 0
1, 389352, Note_on_c, 1, 62, 127
1, 389352, Note_on_c, 1, 66, 127
1, 389540, Note_off_c, 1, 62, 0
1, 389542, Note_on_c, 1, 61, 127
1, 389542, Note_on_c, 1, 73, 127
1, 389730, Note_off_c, 1, 61, 0
1, 389732, Note_on_c, 1, 59, 127
1, 389732, Note_on_c, 1, 78, 127
1, 389920, Note_off_c, 1, 59, 0
1, 389922, Note_on_c, 1, 57, 127
1, 390097, Note_off_c, 1, 73, 0
1, 390105, Note_off_c, 1, 66, 0
1, 390111, Note_off_c, 1, 78, 0
1, 390111, Note_off_c, 1, 57, 0
1, 390113, Note_on_c, 1, 78, 127
1, 390113, Note_on_c, 1, 56, 127
1, 390113, Note_on_c, 1, 71, 127
1, 390238, Note_off_c, 1, 78, 0
1, 390240, Note_on_c, 1, 76, 127
1, 390301, Note_off_c, 1, 56, 0
1, 390301, Note_off_c, 1, 76, 0
1, 390303, Note_on_c, 1, 59, 127
1, 390489, Note_off_c, 1, 71, 0
1, 390491, Note_off_c, 1, 59, 0
1, 390493, Note_on_c, 1, 58, 127
1, 390493, Note_on_c, 1, 76, 127
1, 390493, Note_on_c, 1, 73, 127
1, 390681, Note_off_c, 1, 58, 0
1, 390681, Note_off_c, 1, 76, 0
1, 390683, Note_on_c, 1, 61, 127
1, 390683, Note_on_c, 1, 78, 127
1, 390869, Note_off_c, 1, 73, 0
1, 390871, Note_off_c, 1, 61, 0
1, 390871, Note_off_c, 1, 78, 0
1, 390873, Note_on_c, 1, 76, 127
1, 390873, Note_on_c, 1, 59, 127
1, 390873, Note_on_c, 1, 66, 127
1, 390934, Note_off_c, 1, 76, 0
1, 390936, Note_on_c, 1, 74, 127
1, 390997, Note_off_c, 1, 74, 0
1, 391060, Note_off_c, 1, 59, 0
1, 391062, Note_on_c, 1, 61, 127
1, 391250, Note_off_c, 1, 61, 0
1, 391442, Note_on_c, 1, 57, 127
1, 391442, Note_on_c, 1, 73, 127
1, 391624, Note_off_c, 1, 66, 0
1, 391630, Note_off_c, 1, 57, 0
1, 391630, Note_off_c, 1, 73, 0
1, 391632, Note_on_c, 1, 55, 127
1, 391632, Note_on_c, 1, 71, 127
1, 391820, Note_off_c, 1, 55, 0
1, 391820, Note_off_c, 1, 71, 0
1, 391822, Note_on_c, 1, 54, 127
1, 391822, Note_on_c, 1, 70, 127
1, 392010, Note_off_c, 1, 54, 0
1, 392010, Note_off_c, 1, 70, 0
1, 392012, Note_on_c, 1, 55, 127
1, 392012, Note_on_c, 1, 71, 127
1, 392200, Note_off_c, 1, 55, 0
1, 392200, Note_off_c, 1, 71, 0
1, 392202, Note_on_c, 1, 52, 127
1, 392202, Note_on_c, 1, 73, 127
1, 392390, Note_off_c, 1, 52, 0
1, 392390, Note_off_c, 1, 73, 0
1, 392392, Note_on_c, 1, 70, 127
1, 392392, Note_on_c, 1, 74, 127
1, 392392, Note_on_c, 1, 54, 127
1, 392517, Note_off_c, 1, 70, 0
1, 392517, Note_off_c, 1, 74, 0
1, 392519, Note_on_c, 1, 73, 127
1, 392580, Note_off_c, 1, 54, 0
1, 392580, Note_off_c, 1, 73, 0
1, 392582, Note_on_c, 1, 74, 127
1, 392582, Note_on_c, 1, 52, 127
1, 392643, Note_off_c, 1, 74, 0
1, 392645, Note_on_c, 1, 73, 127
1, 392706, Note_off_c, 1, 73, 0
1, 392769, Note_off_c, 1, 52, 0
1, 392771, Note_on_c, 1, 73, 127
1, 392771, Note_on_c, 1, 54, 127
1, 392832, Note_off_c, 1, 73, 0
1, 392834, Note_on_c, 1, 74, 127
1, 392895, Note_off_c, 1, 74, 0
1, 392958, Note_off_c, 1, 54, 0
1, 392960, Note_on_c, 1, 42, 127
1, 392960, Note_on_c, 1, 71, 127
1, 393148, Note_off_c, 1, 42, 0
1, 393148, Note_off_c, 1, 71, 0
1, 393150, Note_on_c, 1, 47, 127
1, 393150, Note_on_c, 1, 66, 127
1, 393150, Note_on_c, 1, 71, 127
1, 393150, Note_on_c, 1, 62, 127
1, 393338, Note_off_c, 1, 47, 0
1, 393340, Note_on_c, 1, 49, 127
1, 393528, Note_off_c, 1, 49, 0
1, 393530, Note_on_c, 1, 50, 127
1, 393718, Note_off_c, 1, 50, 0
1, 394100, Note_on_c, 1, 45, 127
1, 394288, Note_off_c, 1, 66, 0
1, 394288, Note_off_c, 1, 71, 0
1, 394288, Note_off_c, 1, 62, 0
1, 394288, Note_off_c, 1, 45, 0
1, 394290, Note_on_c, 1, 44, 127
1, 394290, Note_on_c, 1, 71, 127
1, 394478, Note_off_c, 1, 44, 0
1, 394480, Note_on_c, 1, 47, 127
1, 394668, Note_off_c, 1, 71, 0
1, 394668, Note_off_c, 1, 47, 0
1, 394670, Note_on_c, 1, 73, 127
1, 394670, Note_on_c, 1, 45, 127
1, 394670, Note_on_c, 1, 71, 127
1, 394731, Note_off_c, 1, 73, 0
1, 394733, Note_on_c, 1, 74, 127
1, 394794, Note_off_c, 1, 74, 0
1, 394796, Note_on_c, 1, 76, 127
1, 394857, Note_off_c, 1, 45, 0
1, 394859, Note_on_c, 1, 44, 127
1, 395047, Note_off_c, 1, 44, 0
1, 395049, Note_on_c, 1, 42, 127
1, 395237, Note_off_c, 1, 76, 0
1, 395237, Note_off_c, 1, 42, 0
1, 395239, Note_on_c, 1, 40, 127
1, 395421, Note_off_c, 1, 71, 0
1, 395427, Note_off_c, 1, 40, 0
1, 395429, Note_on_c, 1, 74, 127
1, 395429, Note_on_c, 1, 45, 127
1, 395429, Note_on_c, 1, 69, 127
1, 395554, Note_off_c, 1, 74, 0
1, 395556, Note_on_c, 1, 73, 127
1, 395617, Note_off_c, 1, 45, 0
1, 395617, Note_off_c, 1, 73, 0
1, 395619, Note_on_c, 1, 47, 127
1, 395806, Note_off_c, 1, 47, 0
1, 395983, Note_off_c, 1, 69, 0
1, 395999, Note_on_c, 1, 44, 127
1, 395999, Note_on_c, 1, 71, 127
1, 396187, Note_off_c, 1, 44, 0
1, 396187, Note_off_c, 1, 71, 0
1, 396189, Note_on_c, 1, 42, 127
1, 396189, Note_on_c, 1, 69, 127
1, 396377, Note_off_c, 1, 42, 0
1, 396377, Note_off_c, 1, 69, 0
1, 396379, Note_on_c, 1, 40, 127
1, 396379, Note_on_c, 1, 73, 127
1, 396567, Note_off_c, 1, 40, 0
1, 396567, Note_off_c, 1, 73, 0
1, 396569, Note_on_c, 1, 38, 127
1, 396569, Note_on_c, 1, 57, 127
1, 396569, Note_on_c, 1, 66, 127
1, 396757, Note_off_c, 1, 38, 0
1, 396759, Note_on_c, 1, 40, 127
1, 396947, Note_off_c, 1, 57, 0
1, 396947, Note_off_c, 1, 66, 0
1, 396947, Note_off_c, 1, 40, 0
1, 396949, Note_on_c, 1, 59, 127
1, 396949, Note_on_c, 1, 38, 127
1, 396995, Note_off_c, 1, 59, 0
1, 396997, Note_on_c, 1, 62, 127
1, 397045, Note_on_c, 1, 64, 127
1, 397093, Note_on_c, 1, 68, 127
1, 397139, Note_off_c, 1, 38, 0
1, 397141, Note_on_c, 1, 37, 127
1, 397329, Note_off_c, 1, 37, 0
1, 397331, Note_on_c, 1, 35, 127
1, 397519, Note_off_c, 1, 68, 0
1, 397519, Note_off_c, 1, 35, 0
1, 397521, Note_on_c, 1, 33, 127
1, 397521, Note_on_c, 1, 61, 127
1, 397521, Note_on_c, 1, 69, 127
1, 397551, Note_off_c, 1, 64, 0
1, 397553, Note_off_c, 1, 62, 0
1, 397710, Note_off_c, 1, 33, 0
1, 397710, Note_off_c, 1, 61, 0
1, 397710, Note_off_c, 1, 69, 0
1, 397712, Note_on_c, 1, 69, 127
1, 397712, Note_on_c, 1, 40, 127
1, 397712, Note_on_c, 1, 59, 127
1, 397773, Note_off_c, 1, 69, 0
1, 397775, Note_on_c, 1, 68, 127
1, 397836, Note_off_c, 1, 68, 0
1, 397899, Note_off_c, 1, 40, 0
1, 397901, Note_on_c, 1, 38, 127
1, 398089, Note_off_c, 1, 38, 0
1, 398281, Note_on_c, 1, 42, 127
1, 398281, Note_on_c, 1, 66, 127
1, 398463, Note_off_c, 1, 59, 0
1, 398469, Note_off_c, 1, 42, 0
1, 398469, Note_off_c, 1, 66, 0
1, 398471, Note_on_c, 1, 44, 127
1, 398471, Note_on_c, 1, 64, 127
1, 398659, Note_off_c, 1, 44, 0
1, 398661, Note_on_c, 1, 42, 127
1, 398849, Note_off_c, 1, 64, 0
1, 398849, Note_off_c, 1, 42, 0
1, 398851, Note_on_c, 1, 44, 127
1, 398851, Note_on_c, 1, 71, 127
1, 399039, Note_off_c, 1, 44, 0
1, 399039, Note_off_c, 1, 71, 0
1, 399041, Note_on_c, 1, 73, 127
1, 399041, Note_on_c, 1, 40, 127
1, 399134, Note_off_c, 1, 73, 0
1, 399136, Note_on_c, 1, 74, 127
1, 399229, Note_off_c, 1, 40, 0
1, 399229, Note_off_c, 1, 74, 0
1, 399231, Note_on_c, 1, 74, 127
1, 399231, Note_on_c, 1, 45, 127
1, 399356, Note_off_c, 1, 74, 0
1, 399358, Note_on_c, 1, 73, 127
1, 399419, Note_off_c, 1, 45, 0
1, 399419, Note_off_c, 1, 73, 0
1, 399421, Note_on_c, 1, 74, 127
1, 399421, Note_on_c, 1, 44, 127
1, 399482, Note_off_c, 1, 74, 0
1, 399484, Note_on_c, 1, 73, 127
1, 399545, Note_off_c, 1, 73, 0
1, 399608, Note_off_c, 1, 44, 0
1, 399610, Note_on_c, 1, 45, 127
1, 399610, Note_on_c, 1, 73, 127
1, 399798, Note_off_c, 1, 45, 0
1, 399798, Note_off_c, 1, 73, 0
1, 399800, Note_on_c, 1, 47, 127
1, 399800, Note_on_c, 1, 71, 127
1, 399988, Note_off_c, 1, 47, 0
1, 399988, Note_off_c, 1, 71, 0
1, 399990, Note_on_c, 1, 49, 127
1, 399990, Note_on_c, 1, 71, 127
1, 400178, Note_off_c, 1, 49, 0
1, 400180, Note_on_c, 1, 47, 127
1, 400180, Note_on_c, 1, 76, 127
1, 400366, Note_off_c, 1, 71, 0
1, 400368, Note_off_c, 1, 47, 0
1, 400370, Note_on_c, 1, 69, 127
1, 400556, Note_off_c, 1, 76, 0
1, 400560, Note_on_c, 1, 45, 127
1, 400560, Note_on_c, 1, 78, 127
1, 400746, Note_off_c, 1, 69, 0
1, 400748, Note_off_c, 1, 45, 0
1, 400748, Note_off_c, 1, 78, 0
1, 400750, Note_on_c, 1, 47, 127
1, 400750, Note_on_c, 1, 79, 127
1, 400938, Note_off_c, 1, 47, 0
1, 400938, Note_off_c, 1, 79, 0
1, 400940, Note_on_c, 1, 50, 127
1, 400940, Note_on_c, 1, 76, 127
1, 401128, Note_off_c, 1, 50, 0
1, 401128, Note_off_c, 1, 76, 0
1, 401130, Note_on_c, 1, 49, 127
1, 401130, Note_on_c, 1, 69, 127
1, 401193, Note_on_c, 1, 76, 127
1, 401256, Note_on_c, 1, 81, 127
1, 401317, Note_off_c, 1, 49, 0
1, 401319, Note_on_c, 1, 52, 127
1, 401499, Note_off_c, 1, 76, 0
1, 401505, Note_off_c, 1, 69, 0
1, 401507, Note_off_c, 1, 81, 0
1, 401507, Note_off_c, 1, 52, 0
1, 401509, Note_on_c, 1, 81, 127
1, 401509, Note_on_c, 1, 50, 127
1, 401509, Note_on_c, 1, 76, 127
1, 401570, Note_off_c, 1, 81, 0
1, 401572, Note_on_c, 1, 79, 127
1, 401633, Note_off_c, 1, 79, 0
1, 401635, Note_on_c, 1, 78, 127
1, 401696, Note_off_c, 1, 50, 0
1, 401696, Note_off_c, 1, 78, 0
1, 401698, Note_on_c, 1, 49, 127
1, 401885, Note_off_c, 1, 49, 0
1, 401887, Note_on_c, 1, 47, 127
1, 402074, Note_off_c, 1, 47, 0
1, 402076, Note_on_c, 1, 45, 127
1, 402260, Note_off_c, 1, 76, 0
1, 402266, Note_off_c, 1, 45, 0
1, 402268, Note_on_c, 1, 79, 127
1, 402268, Note_on_c, 1, 50, 127
1, 402268, Note_on_c, 1, 69, 127
1, 402395, Note_off_c, 1, 79, 0
1, 402397, Note_on_c, 1, 78, 127
1, 402460, Note_off_c, 1, 50, 0
1, 402460, Note_off_c, 1, 78, 0
1, 402462, Note_on_c, 1, 54, 127
1, 402655, Note_off_c, 1, 54, 0
1, 402657, Note_on_c, 1, 52, 127
1, 402834, Note_off_c, 1, 69, 0
1, 402848, Note_off_c, 1, 52, 0
1, 402850, Note_on_c, 1, 50, 127
1, 402850, Note_on_c, 1, 71, 127
1, 402850, Note_on_c, 1, 80, 127
1, 403047, Note_off_c, 1, 50, 0
1, 403047, Note_off_c, 1, 71, 0
1, 403047, Note_off_c, 1, 80, 0
1, 403049, Note_on_c, 1, 49, 127
1, 403049, Note_on_c, 1, 81, 127
1, 403049, Note_on_c, 1, 73, 127
1, 403246, Note_off_c, 1, 49, 0
1, 403246, Note_off_c, 1, 81, 0
1, 403246, Note_off_c, 1, 73, 0
1, 403248, Note_on_c, 1, 47, 127
1, 403248, Note_on_c, 1, 74, 127
1, 403445, Note_off_c, 1, 47, 0
1, 403445, Note_off_c, 1, 74, 0
1, 403447, Note_on_c, 1, 45, 127
1, 403447, Note_on_c, 1, 73, 127
1, 403644, Note_off_c, 1, 45, 0
1, 403644, Note_off_c, 1, 73, 0
1, 403646, Note_on_c, 1, 50, 127
1, 403646, Note_on_c, 1, 71, 127
1, 403853, Note_off_c, 1, 50, 0
1, 403853, Note_off_c, 1, 71, 0
1, 403855, Note_on_c, 1, 73, 127
1, 403855, Note_on_c, 1, 52, 127
1, 403855, Note_on_c, 1, 68, 127
1, 403992, Note_off_c, 1, 73, 0
1, 403994, Note_on_c, 1, 71, 127
1, 404062, Note_off_c, 1, 52, 0
1, 404062, Note_off_c, 1, 71, 0
1, 404064, Note_on_c, 1, 50, 127
1, 404272, Note_off_c, 1, 50, 0
1, 404466, Note_off_c, 1, 68, 0
1, 404483, Note_on_c, 1, 40, 127
1, 404483, Note_on_c, 1, 69, 127
1, 404711, Note_off_c, 1, 40, 0
1, 404711, Note_off_c, 1, 69, 0
1, 404713, Note_on_c, 1, 45, 127
1, 404713, Note_on_c, 1, 69, 127
1, 404943, Note_on_c, 1, 64, 127
1, 405173, Note_on_c, 1, 61, 127
1, 405401, Note_off_c, 1, 45, 0
1, 405403, Note_on_c, 1, 40, 127
1, 405631, Note_off_c, 1, 40, 0
1, 405633, Note_on_c, 1, 33, 127
1, 408462, Note_off_c, 1, 69, 0
1, 408467, Note_off_c, 1, 64, 0
1, 408469, Note_off_c, 1, 33, 0
1, 408471, Note_off_c, 1, 61, 0
1, 410168, Note_on_c, 1, 64, 127
1, 410168, Note_on_c, 1, 45, 127
1, 410192, Note_on_c, 1, 69, 127
1, 410225, Note_on_c, 1, 52, 127
1, 410283, Note_on_c, 1, 57, 127
1, 410291, Note_on_c, 1, 71, 127
1, 410370, Note_off_c, 1, 71, 0
1, 410373, Note_on_c, 1, 73, 127
1, 410559, Note_off_c, 1, 64, 0
1, 410559, Note_off_c, 1, 69, 0
1, 410765, Note_off_c, 1, 73, 0
1, 410767, Note_on_c, 1, 74, 127
1, 410860, Note_off_c, 1, 74, 0
1, 410862, Note_on_c, 1, 76, 127
1, 410959, Note_off_c, 1, 76, 0
1, 412604, Note_off_c, 1, 52, 0
1, 412608, Note_off_c, 1, 45, 0
1, 412610, Note_off_c, 1, 57, 0
1, 412612, Note_on_c, 1, 79, 127
1, 412612, Note_on_c, 1, 76, 127
1, 412612, Note_on_c, 1, 69, 127
1, 412612, Note_on_c, 1, 64, 127
1, 412612, Note_on_c, 1, 61, 127
1, 412612, Note_on_c, 1, 57, 127
1, 413007, Note_off_c, 1, 79, 0
1, 413007, Note_off_c, 1, 76, 0
1, 413009, Note_on_c, 1, 78, 127
1, 413009, Note_on_c, 1, 74, 127
1, 413398, Note_off_c, 1, 69, 0
1, 413404, Note_off_c, 1, 64, 0
1, 413404, Note_off_c, 1, 61, 0
1, 413404, Note_off_c, 1, 78, 0
1, 413404, Note_off_c, 1, 74, 0
1, 413406, Note_on_c, 1, 66, 127
1, 413406, Note_on_c, 1, 62, 127
1, 414990, Note_off_c, 1, 57, 0
1, 414992, Note_off_c, 1, 66, 0
1, 414992, Note_off_c, 1, 62, 0
1, 415010, Note_on_c, 1, 81, 127
1, 415010, Note_on_c, 1, 74, 127
1, 415010, Note_on_c, 1, 71, 127
1, 415010, Note_on_c, 1, 76, 127
1, 415010, Note_on_c, 1, 59, 127
1, 415010, Note_on_c, 1, 62, 127
1, 415405, Note_off_c, 1, 81, 0
1, 415407, Note_on_c, 1, 80, 127
1, 415796, Note_off_c, 1, 74, 0
1, 415796, Note_off_c, 1, 71, 0
1, 415796, Note_off_c, 1, 76, 0
1, 415802, Note_off_c, 1, 59, 0
1, 415802, Note_off_c, 1, 62, 0
1, 415802, Note_off_c, 1, 80, 0
1, 415804, Note_on_c, 1, 80, 127
1, 415804, Note_on_c, 1, 76, 127
1, 415804, Note_on_c, 1, 73, 127
1, 415804, Note_on_c, 1, 69, 127
1, 415804, Note_on_c, 1, 64, 127
1, 415804, Note_on_c, 1, 61, 127
1, 416199, Note_off_c, 1, 80, 0
1, 416201, Note_on_c, 1, 81, 127
1, 416590, Note_off_c, 1, 76, 0
1, 416590, Note_off_c, 1, 73, 0
1, 416590, Note_off_c, 1, 69, 0
1, 416596, Note_off_c, 1, 64, 0
1, 416596, Note_off_c, 1, 61, 0
1, 416596, Note_off_c, 1, 81, 0
1, 416598, Note_on_c, 1, 71, 127
1, 416598, Note_on_c, 1, 66, 127
1, 416598, Note_on_c, 1, 62, 127
1, 416797, Note_on_c, 1, 83, 127
1, 416894, Note_off_c, 1, 83, 0
1, 416896, Note_on_c, 1, 81, 127
1, 416993, Note_off_c, 1, 81, 0
1, 416995, Note_on_c, 1, 80, 127
1, 417092, Note_off_c, 1, 80, 0
1, 417383, Note_off_c, 1, 71, 0
1, 417389, Note_off_c, 1, 66, 0
1, 417389, Note_off_c, 1, 62, 0
1, 417391, Note_on_c, 1, 81, 127
1, 417391, Note_on_c, 1, 71, 127
1, 417391, Note_on_c, 1, 64, 127
1, 417521, Note_off_c, 1, 81, 0
1, 417523, Note_on_c, 1, 80, 127
1, 417587, Note_off_c, 1, 80, 0
1, 418183, Note_on_c, 1, 52, 127
1, 418578, Note_off_c, 1, 71, 0
1, 418580, Note_on_c, 1, 78, 127
1, 418580, Note_on_c, 1, 69, 127
1, 418975, Note_off_c, 1, 78, 0
1, 418975, Note_off_c, 1, 69, 0
1, 418977, Note_on_c, 1, 76, 127
1, 418977, Note_on_c, 1, 68, 127
1, 419372, Note_off_c, 1, 52, 0
1, 419372, Note_off_c, 1, 76, 0
1, 419374, Note_on_c, 1, 54, 127
1, 419374, Note_on_c, 1, 74, 127
1, 419763, Note_off_c, 1, 68, 0
1, 419767, Note_off_c, 1, 64, 0
1, 419769, Note_off_c, 1, 54, 0
1, 419769, Note_off_c, 1, 74, 0
1, 419771, Note_on_c, 1, 69, 127
1, 419771, Note_on_c, 1, 73, 127
1, 419771, Note_on_c, 1, 64, 127
1, 419771, Note_on_c, 1, 55, 127
1, 420365, Note_off_c, 1, 69, 0
1, 420365, Note_off_c, 1, 73, 0
1, 420367, Note_on_c, 1, 74, 127
1, 420464, Note_off_c, 1, 74, 0
1, 420466, Note_on_c, 1, 76, 127
1, 420563, Note_off_c, 1, 76, 0
1, 421425, Note_on_c, 1, 71, 127
1, 421489, Note_off_c, 1, 71, 0
1, 422149, Note_off_c, 1, 64, 0
1, 422151, Note_off_c, 1, 55, 0
1, 422153, Note_on_c, 1, 47, 127
1, 422153, Note_on_c, 1, 76, 127
1, 422153, Note_on_c, 1, 73, 127
1, 422219, Note_on_c, 1, 78, 127
1, 422271, Note_off_c, 1, 47, 0
1, 422273, Note_on_c, 1, 46, 127
1, 422283, Note_off_c, 1, 78, 0
1, 422285, Note_on_c, 1, 79, 127
1, 422391, Note_off_c, 1, 46, 0
1, 422548, Note_off_c, 1, 79, 0
1, 422939, Note_off_c, 1, 76, 0
1, 423079, Note_on_c, 1, 74, 127
1, 423143, Note_off_c, 1, 74, 0
1, 423541, Note_on_c, 1, 49, 127
1, 423638, Note_off_c, 1, 49, 0
1, 423640, Note_on_c, 1, 50, 127
1, 423737, Note_off_c, 1, 73, 0
1, 423737, Note_off_c, 1, 50, 0
1, 423739, Note_on_c, 1, 45, 127
1, 423739, Note_on_c, 1, 71, 127
1, 423836, Note_off_c, 1, 45, 0
1, 423838, Note_on_c, 1, 44, 127
1, 423935, Note_off_c, 1, 44, 0
1, 425327, Note_on_c, 1, 42, 127
1, 425592, Note_on_c, 1, 75, 127
1, 425656, Note_off_c, 1, 75, 0
1, 425724, Note_off_c, 1, 71, 0
1, 425724, Note_on_c, 1, 69, 127
1, 426116, Note_off_c, 1, 69, 0
1, 426118, Note_off_c, 1, 42, 0
1, 426120, Note_on_c, 1, 75, 127
1, 426120, Note_on_c, 1, 73, 127
1, 426120, Note_on_c, 1, 47, 127
1, 426184, Note_off_c, 1, 75, 0
1, 426186, Note_on_c, 1, 76, 127
1, 426250, Note_off_c, 1, 76, 0
1, 426515, Note_off_c, 1, 73, 0
1, 426517, Note_on_c, 1, 71, 127
1, 426910, Note_off_c, 1, 71, 0
1, 426912, Note_off_c, 1, 47, 0
1, 426914, Note_on_c, 1, 76, 127
1, 426914, Note_on_c, 1, 69, 127
1, 426914, Note_on_c, 1, 40, 127
1, 427311, Note_on_c, 1, 47, 127
1, 427508, Note_off_c, 1, 76, 0
1, 427510, Note_on_c, 1, 78, 127
1, 427607, Note_off_c, 1, 78, 0
1, 427609, Note_on_c, 1, 75, 127
1, 427700, Note_off_c, 1, 69, 0
1, 427706, Note_off_c, 1, 47, 0
1, 427706, Note_off_c, 1, 75, 0
1, 427708, Note_on_c, 1, 52, 127
1, 428502, Note_on_c, 1, 68, 127
1, 428583, Note_off_c, 1, 68, 0
1, 429314, Note_off_c, 1, 40, 0
1, 429320, Note_off_c, 1, 52, 0
1, 429329, Note_on_c, 1, 64, 127
1, 429329, Note_on_c, 1, 50, 127
1, 429329, Note_on_c, 1, 59, 127
1, 430024, Note_on_c, 1, 71, 127
1, 430121, Note_off_c, 1, 71, 0
1, 430983, Note_on_c, 1, 66, 127
1, 431047, Note_off_c, 1, 66, 0
1, 431709, Note_off_c, 1, 64, 0
1, 431709, Note_off_c, 1, 50, 0
1, 431709, Note_off_c, 1, 59, 0
1, 431711, Note_on_c, 1, 76, 127
1, 431711, Note_on_c, 1, 67, 127
1, 431711, Note_on_c, 1, 49, 127
1, 431711, Note_on_c, 1, 57, 127
1, 432106, Note_off_c, 1, 76, 0
1, 432106, Note_off_c, 1, 67, 0
1, 432108, Note_on_c, 1, 74, 127
1, 432108, Note_on_c, 1, 66, 127
1, 432503, Note_off_c, 1, 74, 0
1, 432503, Note_off_c, 1, 66, 0
1, 432702, Note_off_c, 1, 49, 0
1, 432702, Note_off_c, 1, 57, 0
1, 432704, Note_on_c, 1, 50, 127
1, 432901, Note_off_c, 1, 50, 0
1, 432903, Note_on_c, 1, 52, 127
1, 433100, Note_off_c, 1, 52, 0
1, 433301, Note_on_c, 1, 49, 127
1, 433301, Note_on_c, 1, 67, 127
1, 433301, Note_on_c, 1, 76, 127
1, 433498, Note_off_c, 1, 49, 0
1, 433500, Note_on_c, 1, 47, 127
1, 433697, Note_off_c, 1, 47, 0
1, 433699, Note_on_c, 1, 46, 127
1, 433896, Note_off_c, 1, 46, 0
1, 434095, Note_off_c, 1, 67, 0
1, 434097, Note_on_c, 1, 66, 127
1, 434689, Note_off_c, 1, 76, 0
1, 434693, Note_on_c, 1, 78, 127
1, 434790, Note_off_c, 1, 78, 0
1, 434792, Note_on_c, 1, 79, 127
1, 434889, Note_off_c, 1, 79, 0
1, 435685, Note_on_c, 1, 54, 127
1, 435761, Note_on_c, 1, 74, 127
1, 435835, Note_off_c, 1, 74, 0
1, 436081, Note_on_c, 1, 73, 127
1, 436476, Note_off_c, 1, 73, 0
1, 436867, Note_off_c, 1, 66, 0
1, 436875, Note_on_c, 1, 70, 127
1, 436875, Note_on_c, 1, 64, 127
1, 437270, Note_off_c, 1, 54, 0
1, 437270, Note_off_c, 1, 70, 0
1, 437270, Note_off_c, 1, 64, 0
1, 437272, Note_on_c, 1, 59, 127
1, 437669, Note_on_c, 1, 50, 127
1, 437866, Note_off_c, 1, 50, 0
1, 438058, Note_off_c, 1, 59, 0
1, 438066, Note_on_c, 1, 71, 127
1, 438265, Note_on_c, 1, 45, 127
1, 438462, Note_off_c, 1, 45, 0
1, 438464, Note_on_c, 1, 43, 127
1, 438661, Note_off_c, 1, 43, 0
1, 438859, Note_off_c, 1, 71, 0
1, 438877, Note_on_c, 1, 72, 127
1, 438877, Note_on_c, 1, 40, 127
1, 438877, Note_on_c, 1, 67, 127
1, 439471, Note_off_c, 1, 72, 0
1, 439473, Note_on_c, 1, 74, 127
1, 439570, Note_off_c, 1, 74, 0
1, 439572, Note_on_c, 1, 76, 127
1, 439669, Note_off_c, 1, 40, 0
1, 439669, Note_off_c, 1, 76, 0
1, 439671, Note_on_c, 1, 52, 127
1, 440463, Note_off_c, 1, 67, 0
1, 440463, Note_off_c, 1, 52, 0
1, 440465, Note_on_c, 1, 55, 127
1, 440465, Note_on_c, 1, 72, 127
1, 440465, Note_on_c, 1, 66, 127
1, 440565, Note_off_c, 1, 55, 0
1, 440565, Note_on_c, 1, 54, 127
1, 440663, Note_off_c, 1, 72, 0
1, 440665, Note_off_c, 1, 54, 0
1, 440665, Note_on_c, 1, 52, 127
1, 440665, Note_on_c, 1, 71, 127
1, 440765, Note_off_c, 1, 52, 0
1, 440862, Note_off_c, 1, 71, 0
1, 440864, Note_on_c, 1, 73, 127
1, 441061, Note_off_c, 1, 73, 0
1, 441063, Note_on_c, 1, 70, 127
1, 441253, Note_off_c, 1, 66, 0
1, 441259, Note_off_c, 1, 70, 0
1, 441261, Note_on_c, 1, 64, 127
1, 441855, Note_off_c, 1, 64, 0
1, 441956, Note_on_c, 1, 67, 127
1, 442053, Note_off_c, 1, 67, 0
1, 442055, Note_on_c, 1, 50, 127
1, 442847, Note_off_c, 1, 50, 0
1, 442849, Note_on_c, 1, 62, 127
1, 443244, Note_off_c, 1, 62, 0
1, 443246, Note_on_c, 1, 61, 127
1, 443641, Note_off_c, 1, 61, 0
1, 444338, Note_on_c, 1, 74, 127
1, 444435, Note_off_c, 1, 74, 0
1, 446024, Note_on_c, 1, 59, 127
1, 447214, Note_off_c, 1, 59, 0
1, 447813, Note_on_c, 1, 49, 127
1, 448010, Note_off_c, 1, 49, 0
1, 448012, Note_on_c, 1, 47, 127
1, 448232, Note_off_c, 1, 47, 0
1, 448441, Note_on_c, 1, 41, 127
1, 449233, Note_off_c, 1, 41, 0
1, 449235, Note_on_c, 1, 73, 127
1, 449235, Note_on_c, 1, 53, 127
1, 449630, Note_off_c, 1, 73, 0
1, 449632, Note_on_c, 1, 71, 127
1, 450027, Note_off_c, 1, 53, 0
1, 450027, Note_off_c, 1, 71, 0
1, 450029, Note_on_c, 1, 71, 127
1, 450029, Note_on_c, 1, 49, 127
1, 450093, Note_off_c, 1, 71, 0
1, 450095, Note_on_c, 1, 69, 127
1, 450159, Note_off_c, 1, 69, 0
1, 450491, Note_on_c, 1, 68, 127
1, 450820, Note_off_c, 1, 49, 0
1, 450820, Note_off_c, 1, 68, 0
1, 450822, Note_on_c, 1, 69, 127
1, 450822, Note_on_c, 1, 54, 127
1, 451019, Note_off_c, 1, 69, 0
1, 451021, Note_on_c, 1, 68, 127
1, 451218, Note_off_c, 1, 68, 0
1, 451220, Note_on_c, 1, 66, 127
1, 451417, Note_off_c, 1, 66, 0
1, 451419, Note_on_c, 1, 65, 127
1, 451616, Note_off_c, 1, 65, 0
1, 452014, Note_off_c, 1, 54, 0
1, 452016, Note_on_c, 1, 69, 127
1, 452016, Note_on_c, 1, 55, 127
1, 452213, Note_off_c, 1, 69, 0
1, 452213, Note_off_c, 1, 55, 0
1, 452215, Note_on_c, 1, 71, 127
1, 452215, Note_on_c, 1, 54, 127
1, 452412, Note_off_c, 1, 71, 0
1, 452412, Note_off_c, 1, 54, 0
1, 452414, Note_on_c, 1, 73, 127
1, 452414, Note_on_c, 1, 52, 127
1, 452611, Note_off_c, 1, 73, 0
1, 452611, Note_off_c, 1, 52, 0
1, 452613, Note_on_c, 1, 74, 127
1, 452613, Note_on_c, 1, 50, 127
1, 452810, Note_off_c, 1, 74, 0
1, 452810, Note_off_c, 1, 50, 0
1, 452812, Note_on_c, 1, 76, 127
1, 452812, Note_on_c, 1, 49, 127
1, 453009, Note_off_c, 1, 76, 0
1, 453009, Note_off_c, 1, 49, 0
1, 453011, Note_on_c, 1, 78, 127
1, 453011, Note_on_c, 1, 50, 127
1, 453208, Note_off_c, 1, 78, 0
1, 453208, Note_off_c, 1, 50, 0
1, 453210, Note_on_c, 1, 81, 127
1, 453210, Note_on_c, 1, 49, 127
1, 453572, Note_off_c, 1, 81, 0
1, 453574, Note_on_c, 1, 79, 127
1, 453807, Note_off_c, 1, 79, 0
1, 453905, Note_on_c, 1, 83, 127
1, 454002, Note_off_c, 1, 83, 0
1, 454004, Note_on_c, 1, 52, 127
1, 454796, Note_off_c, 1, 52, 0
1, 454798, Note_on_c, 1, 57, 127
1, 454864, Note_on_c, 1, 78, 127
1, 454928, Note_off_c, 1, 78, 0
1, 455195, Note_on_c, 1, 76, 127
1, 455588, Note_off_c, 1, 49, 0
1, 455590, Note_off_c, 1, 76, 0
1, 455592, Note_on_c, 1, 50, 127
1, 455989, Note_on_c, 1, 74, 127
1, 456384, Note_off_c, 1, 57, 0
1, 456384, Note_off_c, 1, 74, 0
1, 456483, Note_off_c, 1, 50, 0
1, 456485, Note_on_c, 1, 45, 127
1, 456582, Note_off_c, 1, 45, 0
1, 456584, Note_on_c, 1, 47, 127
1, 456681, Note_off_c, 1, 47, 0
1, 456980, Note_on_c, 1, 54, 127
1, 457077, Note_off_c, 1, 54, 0
1, 457079, Note_on_c, 1, 55, 127
1, 457176, Note_off_c, 1, 55, 0
1, 457277, Note_on_c, 1, 59, 127
1, 457374, Note_off_c, 1, 59, 0
1, 457376, Note_on_c, 1, 61, 127
1, 457473, Note_off_c, 1, 61, 0
1, 457475, Note_on_c, 1, 62, 127
1, 457572, Note_off_c, 1, 62, 0
1, 457970, Note_on_c, 1, 80, 127
1, 457970, Note_on_c, 1, 71, 127
1, 457970, Note_on_c, 1, 62, 127
1, 457970, Note_on_c, 1, 76, 127
1, 458564, Note_off_c, 1, 80, 0
1, 458566, Note_on_c, 1, 81, 127
1, 458663, Note_off_c, 1, 81, 0
1, 458665, Note_on_c, 1, 83, 127
1, 458756, Note_off_c, 1, 71, 0
1, 458762, Note_off_c, 1, 62, 0
1, 458762, Note_off_c, 1, 83, 0
1, 458764, Note_on_c, 1, 61, 127
1, 458764, Note_on_c, 1, 64, 127
1, 459556, Note_off_c, 1, 76, 0
1, 459556, Note_off_c, 1, 61, 0
1, 459556, Note_off_c, 1, 64, 0
1, 459558, Note_on_c, 1, 80, 127
1, 459558, Note_on_c, 1, 69, 127
1, 459558, Note_on_c, 1, 73, 127
1, 459558, Note_on_c, 1, 57, 127
1, 459755, Note_off_c, 1, 80, 0
1, 459757, Note_on_c, 1, 78, 127
1, 459951, Note_off_c, 1, 69, 0
1, 459953, Note_off_c, 1, 78, 0
1, 459955, Note_on_c, 1, 68, 127
1, 459955, Note_on_c, 1, 76, 127
1, 460344, Note_off_c, 1, 73, 0
1, 460350, Note_off_c, 1, 57, 0
1, 460350, Note_off_c, 1, 68, 0
1, 460350, Note_off_c, 1, 76, 0
1, 460352, Note_on_c, 1, 74, 127
1, 460352, Note_on_c, 1, 66, 127
1, 460352, Note_on_c, 1, 59, 127
1, 460352, Note_on_c, 1, 71, 127
1, 460445, Note_off_c, 1, 74, 0
1, 460445, Note_on_c, 1, 73, 127
1, 460538, Note_off_c, 1, 73, 0
1, 460948, Note_on_c, 1, 76, 127
1, 461046, Note_off_c, 1, 76, 0
1, 461048, Note_on_c, 1, 78, 127
1, 461139, Note_off_c, 1, 66, 0
1, 461145, Note_off_c, 1, 59, 0
1, 461145, Note_off_c, 1, 78, 0
1, 461147, Note_on_c, 1, 56, 127
1, 461939, Note_off_c, 1, 71, 0
1, 461939, Note_off_c, 1, 56, 0
1, 461941, Note_on_c, 1, 74, 127
1, 461941, Note_on_c, 1, 64, 127
1, 461941, Note_on_c, 1, 68, 127
1, 461941, Note_on_c, 1, 52, 127
1, 462005, Note_off_c, 1, 74, 0
1, 462007, Note_on_c, 1, 73, 127
1, 462071, Note_off_c, 1, 73, 0
1, 462333, Note_off_c, 1, 64, 0
1, 462337, Note_on_c, 1, 62, 127
1, 462337, Note_on_c, 1, 71, 127
1, 462726, Note_off_c, 1, 68, 0
1, 462732, Note_off_c, 1, 52, 0
1, 462732, Note_off_c, 1, 62, 0
1, 462732, Note_off_c, 1, 71, 0
1, 462734, Note_on_c, 1, 69, 127
1, 462734, Note_on_c, 1, 61, 127
1, 462734, Note_on_c, 1, 54, 127
1, 462734, Note_on_c, 1, 66, 127
1, 463328, Note_off_c, 1, 69, 0
1, 463330, Note_on_c, 1, 71, 127
1, 463427, Note_off_c, 1, 71, 0
1, 463429, Note_on_c, 1, 73, 127
1, 463520, Note_off_c, 1, 61, 0
1, 463526, Note_off_c, 1, 54, 0
1, 463526, Note_off_c, 1, 73, 0
1, 463528, Note_on_c, 1, 51, 127
1, 464320, Note_off_c, 1, 66, 0
1, 464320, Note_off_c, 1, 51, 0
1, 464322, Note_on_c, 1, 68, 127
1, 464322, Note_on_c, 1, 59, 127
1, 464322, Note_on_c, 1, 63, 127
1, 464322, Note_on_c, 1, 47, 127
1, 464519, Note_off_c, 1, 68, 0
1, 464521, Note_on_c, 1, 69, 127
1, 464718, Note_off_c, 1, 69, 0
1, 465109, Note_off_c, 1, 59, 0
1, 465109, Note_off_c, 1, 63, 0
1, 465115, Note_off_c, 1, 47, 0
1, 465117, Note_on_c, 1, 52, 127
1, 465117, Note_on_c, 1, 69, 127
1, 465117, Note_on_c, 1, 59, 127
1, 465117, Note_on_c, 1, 64, 127
1, 465214, Note_off_c, 1, 52, 0
1, 465216, Note_on_c, 1, 40, 127
1, 465247, Note_off_c, 1, 69, 0
1, 465249, Note_on_c, 1, 68, 127
1, 465313, Note_off_c, 1, 40, 0
1, 465315, Note_on_c, 1, 42, 127
1, 465342, Note_off_c, 1, 68, 0
1, 465412, Note_off_c, 1, 42, 0
1, 465414, Note_on_c, 1, 44, 127
1, 465512, Note_off_c, 1, 44, 0
1, 465514, Note_on_c, 1, 45, 127
1, 465611, Note_off_c, 1, 45, 0
1, 465613, Note_on_c, 1, 47, 127
1, 465710, Note_off_c, 1, 47, 0
1, 465712, Note_on_c, 1, 49, 127
1, 465809, Note_off_c, 1, 49, 0
1, 465811, Note_on_c, 1, 50, 127
1, 465908, Note_off_c, 1, 50, 0
1, 466009, Note_on_c, 1, 54, 127
1, 466106, Note_off_c, 1, 54, 0
1, 466108, Note_on_c, 1, 56, 127
1, 466205, Note_off_c, 1, 56, 0
1, 466207, Note_on_c, 1, 57, 127
1, 466304, Note_off_c, 1, 59, 0
1, 466304, Note_off_c, 1, 64, 0
1, 466304, Note_off_c, 1, 57, 0
1, 466306, Note_on_c, 1, 59, 127
1, 466306, Note_on_c, 1, 66, 127
1, 466403, Note_off_c, 1, 59, 0
1, 466405, Note_on_c, 1, 61, 127
1, 466502, Note_off_c, 1, 61, 0
1, 466504, Note_on_c, 1, 62, 127
1, 466601, Note_off_c, 1, 62, 0
1, 466700, Note_off_c, 1, 66, 0
1, 466702, Note_on_c, 1, 59, 127
1, 466702, Note_on_c, 1, 64, 127
1, 466799, Note_off_c, 1, 59, 0
1, 466801, Note_on_c, 1, 57, 127
1, 466898, Note_off_c, 1, 57, 0
1, 466900, Note_on_c, 1, 56, 127
1, 466997, Note_off_c, 1, 56, 0
1, 466999, Note_on_c, 1, 54, 127
1, 467096, Note_off_c, 1, 54, 0
1, 467098, Note_on_c, 1, 52, 127
1, 467195, Note_off_c, 1, 52, 0
1, 467197, Note_on_c, 1, 50, 127
1, 467294, Note_off_c, 1, 50, 0
1, 467296, Note_on_c, 1, 49, 127
1, 467393, Note_off_c, 1, 49, 0
1, 467403, Note_on_c, 1, 47, 127
1, 467492, Note_off_c, 1, 64, 0
1, 467500, Note_off_c, 1, 47, 0
1, 467510, Note_on_c, 1, 73, 127
1, 467510, Note_on_c, 1, 45, 127
1, 467591, Note_off_c, 1, 73, 0
1, 467593, Note_on_c, 1, 71, 127
1, 467674, Note_off_c, 1, 71, 0
1, 468106, Note_on_c, 1, 74, 127
1, 468203, Note_off_c, 1, 74, 0
1, 468205, Note_on_c, 1, 76, 127
1, 468302, Note_off_c, 1, 76, 0
1, 469096, Note_off_c, 1, 45, 0
1, 469098, Note_on_c, 1, 73, 127
1, 469162, Note_off_c, 1, 73, 0
1, 469164, Note_on_c, 1, 71, 127
1, 469228, Note_off_c, 1, 71, 0
1, 469230, Note_on_c, 1, 73, 127
1, 469294, Note_off_c, 1, 73, 0
1, 469296, Note_on_c, 1, 71, 127
1, 469493, Note_off_c, 1, 71, 0
1, 469495, Note_on_c, 1, 69, 127
1, 469890, Note_off_c, 1, 69, 0
1, 469892, Note_on_c, 1, 76, 127
1, 469892, Note_on_c, 1, 79, 127
1, 469892, Note_on_c, 1, 49, 127
1, 469892, Note_on_c, 1, 69, 127
1, 470287, Note_off_c, 1, 76, 0
1, 470287, Note_off_c, 1, 79, 0
1, 470289, Note_on_c, 1, 78, 127
1, 470289, Note_on_c, 1, 74, 127
1, 470486, Note_off_c, 1, 49, 0
1, 470488, Note_on_c, 1, 50, 127
1, 470585, Note_off_c, 1, 50, 0
1, 470587, Note_on_c, 1, 52, 127
1, 470678, Note_off_c, 1, 69, 0
1, 470684, Note_off_c, 1, 78, 0
1, 470684, Note_off_c, 1, 74, 0
1, 470684, Note_off_c, 1, 52, 0
1, 470686, Note_on_c, 1, 50, 127
1, 470686, Note_on_c, 1, 74, 127
1, 470686, Note_on_c, 1, 78, 127
1, 470686, Note_on_c, 1, 69, 127
1, 471081, Note_off_c, 1, 50, 0
1, 471083, Note_on_c, 1, 49, 127
1, 471478, Note_off_c, 1, 74, 0
1, 471478, Note_off_c, 1, 78, 0
1, 471478, Note_off_c, 1, 49, 0
1, 471480, Note_on_c, 1, 79, 127
1, 471480, Note_on_c, 1, 76, 127
1, 471579, Note_on_c, 1, 47, 127
1, 471676, Note_off_c, 1, 47, 0
1, 471876, Note_on_c, 1, 45, 127
1, 472282, Note_off_c, 1, 79, 0
1, 472282, Note_off_c, 1, 76, 0
1, 472286, Note_off_c, 1, 69, 0
1, 472288, Note_off_c, 1, 45, 0
1, 472289, Note_on_c, 1, 57, 127
1, 472289, Note_on_c, 1, 78, 127
1, 472289, Note_on_c, 1, 74, 127
1, 472684, Note_off_c, 1, 57, 0
1, 472686, Note_on_c, 1, 56, 127
1, 472883, Note_off_c, 1, 78, 0
1, 472885, Note_on_c, 1, 79, 127
1, 472982, Note_off_c, 1, 79, 0
1, 472984, Note_on_c, 1, 81, 127
1, 473075, Note_off_c, 1, 74, 0
1, 473081, Note_off_c, 1, 56, 0
1, 473081, Note_off_c, 1, 81, 0
1, 473083, Note_on_c, 1, 79, 127
1, 473083, Note_on_c, 1, 57, 127
1, 473478, Note_off_c, 1, 79, 0
1, 473480, Note_on_c, 1, 78, 127
1, 473875, Note_off_c, 1, 78, 0
1, 473943, Note_on_c, 1, 76, 127
1, 474007, Note_off_c, 1, 76, 0
1, 474274, Note_on_c, 1, 74, 127
1, 474669, Note_off_c, 1, 57, 0
1, 474669, Note_off_c, 1, 74, 0
1, 474671, Note_on_c, 1, 83, 127
1, 474671, Note_on_c, 1, 74, 127
1, 474671, Note_on_c, 1, 44, 127
1, 474671, Note_on_c, 1, 76, 127
1, 475066, Note_off_c, 1, 83, 0
1, 475066, Note_off_c, 1, 74, 0
1, 475068, Note_on_c, 1, 73, 127
1, 475068, Note_on_c, 1, 81, 127
1, 475265, Note_off_c, 1, 44, 0
1, 475267, Note_on_c, 1, 45, 127
1, 475364, Note_off_c, 1, 45, 0
1, 475366, Note_on_c, 1, 47, 127
1, 475463, Note_off_c, 1, 73, 0
1, 475463, Note_off_c, 1, 81, 0
1, 475463, Note_off_c, 1, 47, 0
1, 476358, Note_on_c, 1, 42, 127
1, 476455, Note_off_c, 1, 42, 0
1, 476655, Note_on_c, 1, 40, 127
1, 477055, Note_off_c, 1, 76, 0
1, 477057, Note_off_c, 1, 40, 0
1, 477075, Note_on_c, 1, 48, 127
1, 477477, Note_off_c, 1, 48, 0
1, 477479, Note_on_c, 1, 80, 127
1, 477772, Note_on_c, 1, 77, 127
1, 477879, Note_off_c, 1, 80, 0
1, 477882, Note_off_c, 1, 77, 0
1, 477883, Note_on_c, 1, 76, 127
1, 477883, Note_on_c, 1, 48, 127
1, 477883, Note_on_c, 1, 81, 127
1, 478285, Note_off_c, 1, 76, 0
1, 478287, Note_on_c, 1, 74, 127
1, 478683, Note_off_c, 1, 48, 0
1, 478689, Note_off_c, 1, 74, 0
1, 478758, Note_on_c, 1, 72, 127
1, 478823, Note_off_c, 1, 72, 0
1, 479094, Note_on_c, 1, 71, 127
1, 479496, Note_off_c, 1, 71, 0
1, 479498, Note_on_c, 1, 53, 127
1, 479900, Note_off_c, 1, 53, 0
1, 479902, Note_off_c, 1, 81, 0
1, 479902, Note_on_c, 1, 80, 127
1, 479902, Note_on_c, 1, 52, 127
1, 480301, Note_off_c, 1, 80, 0
1, 480303, Note_off_c, 1, 52, 0
1, 481113, Note_on_c, 1, 72, 127
1, 481113, Note_on_c, 1, 52, 127
1, 481113, Note_on_c, 1, 81, 127
1, 481178, Note_off_c, 1, 72, 0
1, 481180, Note_on_c, 1, 71, 127
1, 481228, Note_off_c, 1, 52, 0
1, 481228, Note_on_c, 1, 51, 127
1, 481245, Note_off_c, 1, 71, 0
1, 481343, Note_off_c, 1, 51, 0
1, 481532, Note_on_c, 1, 69, 127
1, 481936, Note_off_c, 1, 69, 0
1, 481938, Note_on_c, 1, 74, 127
1, 482006, Note_off_c, 1, 74, 0
1, 482008, Note_on_c, 1, 76, 127
1, 482076, Note_off_c, 1, 76, 0
1, 482078, Note_on_c, 1, 77, 127
1, 482358, Note_off_c, 1, 77, 0
1, 483608, Note_off_c, 1, 81, 0
1, 483628, Note_on_c, 1, 80, 127
1, 483628, Note_on_c, 1, 40, 127
1, 484516, Note_off_c, 1, 80, 0
1, 484523, Note_off_c, 1, 40, 0
1, 484525, Note_on_c, 1, 81, 127
1, 484525, Note_on_c, 1, 69, 127
1, 484525, Note_on_c, 1, 45, 127
1, 485000, Note_on_c, 1, 49, 127
1, 485235, Note_off_c, 1, 49, 0
1, 485237, Note_on_c, 1, 52, 127
1, 485472, Note_off_c, 1, 81, 0
1, 485472, Note_off_c, 1, 69, 0
1, 485472, Note_off_c, 1, 52, 0
1, 485474, Note_on_c, 1, 73, 127
1, 485474, Note_on_c, 1, 76, 127
1, 485474, Note_on_c, 1, 57, 127
1, 487764, Note_off_c, 1, 45, 0
1, 487769, Note_off_c, 1, 73, 0
1, 487769, Note_off_c, 1, 76, 0
1, 487769, Note_off_c, 1, 57, 0
1, 489941, Note_on_c, 1, 64, 127
1, 490279, Note_off_c, 1, 64, 0
1, 490301, Note_on_c, 1, 69, 127
1, 490479, Note_off_c, 1, 69, 0
1, 490481, Note_on_c, 1, 68, 127
1, 490659, Note_off_c, 1, 68, 0
1, 490661, Note_on_c, 1, 71, 127
1, 490839, Note_off_c, 1, 71, 0
1, 490841, Note_on_c, 1, 69, 127
1, 491019, Note_off_c, 1, 69, 0
1, 491021, Note_on_c, 1, 73, 127
1, 491199, Note_off_c, 1, 73, 0
1, 491201, Note_on_c, 1, 71, 127
1, 491379, Note_off_c, 1, 71, 0
1, 491381, Note_on_c, 1, 69, 127
1, 491559, Note_off_c, 1, 69, 0
1, 491561, Note_on_c, 1, 68, 127
1, 491739, Note_off_c, 1, 68, 0
1, 491741, Note_on_c, 1, 69, 127
1, 492088, Note_off_c, 1, 69, 0
1, 492101, Note_on_c, 1, 64, 127
1, 492448, Note_off_c, 1, 64, 0
1, 492461, Note_on_c, 1, 61, 127
1, 492639, Note_off_c, 1, 61, 0
1, 492641, Note_on_c, 1, 64, 127
1, 492819, Note_off_c, 1, 64, 0
1, 492821, Note_on_c, 1, 69, 127
1, 492821, Note_on_c, 1, 52, 127
1, 492999, Note_off_c, 1, 69, 0
1, 493001, Note_on_c, 1, 71, 127
1, 493179, Note_off_c, 1, 52, 0
1, 493179, Note_off_c, 1, 71, 0
1, 493181, Note_on_c, 1, 57, 127
1, 493181, Note_on_c, 1, 73, 127
1, 493359, Note_off_c, 1, 57, 0
1, 493359, Note_off_c, 1, 73, 0
1, 493361, Note_on_c, 1, 56, 127
1, 493361, Note_on_c, 1, 71, 127
1, 493539, Note_off_c, 1, 56, 0
1, 493539, Note_off_c, 1, 71, 0
1, 493541, Note_on_c, 1, 59, 127
1, 493541, Note_on_c, 1, 74, 127
1, 493719, Note_off_c, 1, 59, 0
1, 493719, Note_off_c, 1, 74, 0
1, 493721, Note_on_c, 1, 57, 127
1, 493721, Note_on_c, 1, 73, 127
1, 493899, Note_off_c, 1, 57, 0
1, 493899, Note_off_c, 1, 73, 0
1, 493901, Note_on_c, 1, 61, 127
1, 493901, Note_on_c, 1, 76, 127
1, 494079, Note_off_c, 1, 61, 0
1, 494079, Note_off_c, 1, 76, 0
1, 494081, Note_on_c, 1, 59, 127
1, 494081, Note_on_c, 1, 74, 127
1, 494259, Note_off_c, 1, 59, 0
1, 494259, Note_off_c, 1, 74, 0
1, 494261, Note_on_c, 1, 57, 127
1, 494261, Note_on_c, 1, 73, 127
1, 494439, Note_off_c, 1, 57, 0
1, 494439, Note_off_c, 1, 73, 0
1, 494441, Note_on_c, 1, 56, 127
1, 494441, Note_on_c, 1, 71, 127
1, 494619, Note_off_c, 1, 56, 0
1, 494619, Note_off_c, 1, 71, 0
1, 494621, Note_on_c, 1, 74, 127
1, 494621, Note_on_c, 1, 57, 127
1, 494799, Note_off_c, 1, 74, 0
1, 494801, Note_on_c, 1, 73, 127
1, 494968, Note_off_c, 1, 57, 0
1, 494979, Note_off_c, 1, 73, 0
1, 494981, Note_on_c, 1, 71, 127
1, 494981, Note_on_c, 1, 52, 127
1, 495159, Note_off_c, 1, 71, 0
1, 495161, Note_on_c, 1, 73, 127
1, 495328, Note_off_c, 1, 52, 0
1, 495339, Note_off_c, 1, 73, 0
1, 495341, Note_on_c, 1, 49, 127
1, 495341, Note_on_c, 1, 69, 127
1, 495519, Note_off_c, 1, 49, 0
1, 495519, Note_off_c, 1, 69, 0
1, 495521, Note_on_c, 1, 52, 127
1, 495521, Note_on_c, 1, 71, 127
1, 495699, Note_off_c, 1, 52, 0
1, 495699, Note_off_c, 1, 71, 0
1, 495701, Note_on_c, 1, 57, 127
1, 495701, Note_on_c, 1, 73, 127
1, 495879, Note_off_c, 1, 57, 0
1, 495879, Note_off_c, 1, 73, 0
1, 495881, Note_on_c, 1, 59, 127
1, 495881, Note_on_c, 1, 74, 127
1, 496059, Note_off_c, 1, 59, 0
1, 496059, Note_off_c, 1, 74, 0
1, 496061, Note_on_c, 1, 61, 127
1, 496061, Note_on_c, 1, 76, 127
1, 496239, Note_off_c, 1, 61, 0
1, 496241, Note_on_c, 1, 59, 127
1, 496389, Note_off_c, 1, 76, 0
1, 496419, Note_off_c, 1, 59, 0
1, 496421, Note_on_c, 1, 62, 127
1, 496421, Note_on_c, 1, 79, 127
1, 496599, Note_off_c, 1, 62, 0
1, 496599, Note_off_c, 1, 79, 0
1, 496601, Note_on_c, 1, 61, 127
1, 496601, Note_on_c, 1, 77, 127
1, 496779, Note_off_c, 1, 61, 0
1, 496779, Note_off_c, 1, 77, 0
1, 496781, Note_on_c, 1, 79, 127
1, 496781, Note_on_c, 1, 64, 127
1, 496869, Note_off_c, 1, 79, 0
1, 496871, Note_on_c, 1, 77, 127
1, 496959, Note_off_c, 1, 64, 0
1, 496959, Note_off_c, 1, 77, 0
1, 496961, Note_on_c, 1, 62, 127
1, 496961, Note_on_c, 1, 79, 127
1, 497139, Note_off_c, 1, 62, 0
1, 497141, Note_on_c, 1, 61, 127
1, 497299, Note_off_c, 1, 79, 0
1, 497320, Note_off_c, 1, 61, 0
1, 497322, Note_on_c, 1, 57, 127
1, 497322, Note_on_c, 1, 81, 127
1, 497500, Note_off_c, 1, 57, 0
1, 497500, Note_off_c, 1, 81, 0
1, 497502, Note_on_c, 1, 62, 127
1, 497502, Note_on_c, 1, 78, 127
1, 497680, Note_off_c, 1, 62, 0
1, 497682, Note_on_c, 1, 61, 127
1, 497830, Note_off_c, 1, 78, 0
1, 497860, Note_off_c, 1, 61, 0
1, 497862, Note_on_c, 1, 64, 127
1, 497862, Note_on_c, 1, 81, 127
1, 498040, Note_off_c, 1, 64, 0
1, 498040, Note_off_c, 1, 81, 0
1, 498042, Note_on_c, 1, 62, 127
1, 498042, Note_on_c, 1, 80, 127
1, 498220, Note_off_c, 1, 62, 0
1, 498220, Note_off_c, 1, 80, 0
1, 498222, Note_on_c, 1, 81, 127
1, 498222, Note_on_c, 1, 66, 127
1, 498310, Note_off_c, 1, 81, 0
1, 498312, Note_on_c, 1, 80, 127
1, 498400, Note_off_c, 1, 66, 0
1, 498400, Note_off_c, 1, 80, 0
1, 498402, Note_on_c, 1, 64, 127
1, 498402, Note_on_c, 1, 81, 127
1, 498580, Note_off_c, 1, 64, 0
1, 498582, Note_on_c, 1, 63, 127
1, 498740, Note_off_c, 1, 81, 0
1, 498761, Note_off_c, 1, 63, 0
1, 498763, Note_on_c, 1, 59, 127
1, 498763, Note_on_c, 1, 83, 127
1, 498941, Note_off_c, 1, 59, 0
1, 498941, Note_off_c, 1, 83, 0
1, 498943, Note_on_c, 1, 64, 127
1, 498943, Note_on_c, 1, 80, 127
1, 499121, Note_off_c, 1, 64, 0
1, 499121, Note_off_c, 1, 80, 0
1, 499123, Note_on_c, 1, 66, 127
1, 499123, Note_on_c, 1, 81, 127
1, 499301, Note_off_c, 1, 66, 0
1, 499301, Note_off_c, 1, 81, 0
1, 499303, Note_on_c, 1, 64, 127
1, 499303, Note_on_c, 1, 80, 127
1, 499481, Note_off_c, 1, 64, 0
1, 499481, Note_off_c, 1, 80, 0
1, 499483, Note_on_c, 1, 62, 127
1, 499483, Note_on_c, 1, 81, 127
1, 499661, Note_off_c, 1, 62, 0
1, 499661, Note_off_c, 1, 81, 0
1, 499663, Note_on_c, 1, 83, 127
1, 499663, Note_on_c, 1, 61, 127
1, 499813, Note_off_c, 1, 83, 0
1, 499813, Note_on_c, 1, 81, 127
1, 499841, Note_off_c, 1, 61, 0
1, 499843, Note_on_c, 1, 59, 127
1, 499901, Note_off_c, 1, 81, 0
1, 500021, Note_off_c, 1, 59, 0
1, 500203, Note_on_c, 1, 57, 127
1, 500223, Note_on_c, 1, 80, 127
1, 500311, Note_off_c, 1, 80, 0
1, 500381, Note_off_c, 1, 57, 0
1, 500383, Note_on_c, 1, 64, 127
1, 500561, Note_off_c, 1, 64, 0
1, 500563, Note_on_c, 1, 63, 127
1, 500741, Note_off_c, 1, 63, 0
1, 500743, Note_on_c, 1, 66, 127
1, 500921, Note_off_c, 1, 66, 0
1, 500923, Note_on_c, 1, 64, 127
1, 501101, Note_off_c, 1, 64, 0
1, 501103, Note_on_c, 1, 68, 127
1, 501281, Note_off_c, 1, 68, 0
1, 501283, Note_on_c, 1, 66, 127
1, 501461, Note_off_c, 1, 66, 0
1, 501463, Note_on_c, 1, 64, 127
1, 501643, Note_on_c, 1, 62, 127
1, 501819, Note_off_c, 1, 64, 0
1, 501821, Note_off_c, 1, 62, 0
1, 501823, Note_on_c, 1, 61, 127
1, 501823, Note_on_c, 1, 69, 127
1, 502001, Note_off_c, 1, 61, 0
1, 502001, Note_off_c, 1, 69, 0
1, 502003, Note_on_c, 1, 59, 127
1, 502003, Note_on_c, 1, 68, 127
1, 502181, Note_off_c, 1, 59, 0
1, 502181, Note_off_c, 1, 68, 0
1, 502183, Note_on_c, 1, 62, 127
1, 502183, Note_on_c, 1, 71, 127
1, 502361, Note_off_c, 1, 62, 0
1, 502361, Note_off_c, 1, 71, 0
1, 502363, Note_on_c, 1, 61, 127
1, 502363, Note_on_c, 1, 69, 127
1, 502541, Note_off_c, 1, 61, 0
1, 502541, Note_off_c, 1, 69, 0
1, 502543, Note_on_c, 1, 64, 127
1, 502543, Note_on_c, 1, 73, 127
1, 502721, Note_off_c, 1, 64, 0
1, 502721, Note_off_c, 1, 73, 0
1, 502723, Note_on_c, 1, 62, 127
1, 502723, Note_on_c, 1, 71, 127
1, 502901, Note_off_c, 1, 62, 0
1, 502901, Note_off_c, 1, 71, 0
1, 502903, Note_on_c, 1, 61, 127
1, 502903, Note_on_c, 1, 69, 127
1, 503081, Note_off_c, 1, 61, 0
1, 503081, Note_off_c, 1, 69, 0
1, 503083, Note_on_c, 1, 59, 127
1, 503083, Note_on_c, 1, 68, 127
1, 503261, Note_off_c, 1, 59, 0
1, 503261, Note_off_c, 1, 68, 0
1, 503263, Note_on_c, 1, 61, 127
1, 503263, Note_on_c, 1, 69, 127
1, 503441, Note_off_c, 1, 61, 0
1, 503443, Note_on_c, 1, 62, 127
1, 503610, Note_off_c, 1, 69, 0
1, 503621, Note_off_c, 1, 62, 0
1, 503623, Note_on_c, 1, 61, 127
1, 503623, Note_on_c, 1, 64, 127
1, 503801, Note_off_c, 1, 61, 0
1, 503803, Note_on_c, 1, 59, 127
1, 503970, Note_off_c, 1, 64, 0
1, 503981, Note_off_c, 1, 59, 0
1, 503983, Note_on_c, 1, 61, 127
1, 503983, Note_on_c, 1, 57, 127
1, 504161, Note_off_c, 1, 61, 0
1, 504163, Note_on_c, 1, 64, 127
1, 504341, Note_off_c, 1, 57, 0
1, 504341, Note_off_c, 1, 64, 0
1, 504343, Note_on_c, 1, 69, 127
1, 504343, Note_on_c, 1, 52, 127
1, 504521, Note_off_c, 1, 69, 0
1, 504523, Note_on_c, 1, 71, 127
1, 504701, Note_off_c, 1, 52, 0
1, 504701, Note_off_c, 1, 71, 0
1, 504703, Note_on_c, 1, 57, 127
1, 504703, Note_on_c, 1, 73, 127
1, 504881, Note_off_c, 1, 57, 0
1, 504881, Note_off_c, 1, 73, 0
1, 504883, Note_on_c, 1, 56, 127
1, 504883, Note_on_c, 1, 71, 127
1, 505061, Note_off_c, 1, 56, 0
1, 505061, Note_off_c, 1, 71, 0
1, 505063, Note_on_c, 1, 59, 127
1, 505063, Note_on_c, 1, 74, 127
1, 505241, Note_off_c, 1, 59, 0
1, 505241, Note_off_c, 1, 74, 0
1, 505243, Note_on_c, 1, 57, 127
1, 505243, Note_on_c, 1, 73, 127
1, 505421, Note_off_c, 1, 57, 0
1, 505421, Note_off_c, 1, 73, 0
1, 505423, Note_on_c, 1, 61, 127
1, 505423, Note_on_c, 1, 76, 127
1, 505601, Note_off_c, 1, 61, 0
1, 505601, Note_off_c, 1, 76, 0
1, 505603, Note_on_c, 1, 59, 127
1, 505603, Note_on_c, 1, 74, 127
1, 505781, Note_off_c, 1, 59, 0
1, 505781, Note_off_c, 1, 74, 0
1, 505783, Note_on_c, 1, 57, 127
1, 505783, Note_on_c, 1, 73, 127
1, 505961, Note_off_c, 1, 57, 0
1, 505961, Note_off_c, 1, 73, 0
1, 505963, Note_on_c, 1, 56, 127
1, 505963, Note_on_c, 1, 71, 127
1, 506141, Note_off_c, 1, 56, 0
1, 506141, Note_off_c, 1, 71, 0
1, 506143, Note_on_c, 1, 74, 127
1, 506143, Note_on_c, 1, 57, 127
1, 506321, Note_off_c, 1, 74, 0
1, 506323, Note_on_c, 1, 73, 127
1, 506490, Note_off_c, 1, 57, 0
1, 506501, Note_off_c, 1, 73, 0
1, 506503, Note_on_c, 1, 71, 127
1, 506503, Note_on_c, 1, 52, 127
1, 506681, Note_off_c, 1, 71, 0
1, 506683, Note_on_c, 1, 73, 127
1, 506850, Note_off_c, 1, 52, 0
1, 506861, Note_off_c, 1, 73, 0
1, 506863, Note_on_c, 1, 69, 127
1, 506863, Note_on_c, 1, 49, 127
1, 507041, Note_off_c, 1, 69, 0
1, 507043, Note_on_c, 1, 68, 127
1, 507221, Note_off_c, 1, 49, 0
1, 507221, Note_off_c, 1, 68, 0
1, 507223, Note_on_c, 1, 71, 127
1, 507223, Note_on_c, 1, 52, 127
1, 507401, Note_off_c, 1, 71, 0
1, 507403, Note_on_c, 1, 69, 127
1, 507581, Note_off_c, 1, 52, 0
1, 507581, Note_off_c, 1, 69, 0
1, 507583, Note_on_c, 1, 73, 127
1, 507583, Note_on_c, 1, 45, 127
1, 507761, Note_off_c, 1, 73, 0
1, 507763, Note_on_c, 1, 71, 127
1, 507941, Note_off_c, 1, 45, 0
1, 507941, Note_off_c, 1, 71, 0
1, 507943, Note_on_c, 1, 69, 127
1, 507943, Note_on_c, 1, 52, 127
1, 508121, Note_off_c, 1, 69, 0
1, 508123, Note_on_c, 1, 68, 127
1, 508301, Note_off_c, 1, 52, 0
1, 508301, Note_off_c, 1, 68, 0
1, 508303, Note_on_c, 1, 57, 127
1, 508303, Note_on_c, 1, 66, 127
1, 508481, Note_off_c, 1, 57, 0
1, 508481, Note_off_c, 1, 66, 0
1, 508483, Note_on_c, 1, 56, 127
1, 508483, Note_on_c, 1, 64, 127
1, 508661, Note_off_c, 1, 56, 0
1, 508661, Note_off_c, 1, 64, 0
1, 508663, Note_on_c, 1, 59, 127
1, 508663, Note_on_c, 1, 68, 127
1, 508841, Note_off_c, 1, 59, 0
1, 508841, Note_off_c, 1, 68, 0
1, 508843, Note_on_c, 1, 57, 127
1, 508843, Note_on_c, 1, 66, 127
1, 509021, Note_off_c, 1, 57, 0
1, 509021, Note_off_c, 1, 66, 0
1, 509023, Note_on_c, 1, 61, 127
1, 509023, Note_on_c, 1, 69, 127
1, 509201, Note_off_c, 1, 61, 0
1, 509201, Note_off_c, 1, 69, 0
1, 509203, Note_on_c, 1, 59, 127
1, 509203, Note_on_c, 1, 68, 127
1, 509381, Note_off_c, 1, 59, 0
1, 509381, Note_off_c, 1, 68, 0
1, 509383, Note_on_c, 1, 57, 127
1, 509383, Note_on_c, 1, 66, 127
1, 509561, Note_off_c, 1, 57, 0
1, 509561, Note_off_c, 1, 66, 0
1, 509563, Note_on_c, 1, 56, 127
1, 509563, Note_on_c, 1, 64, 127
1, 509741, Note_off_c, 1, 56, 0
1, 509741, Note_off_c, 1, 64, 0
1, 509743, Note_on_c, 1, 54, 127
1, 509743, Note_on_c, 1, 63, 127
1, 509921, Note_off_c, 1, 54, 0
1, 509921, Note_off_c, 1, 63, 0
1, 509923, Note_on_c, 1, 52, 127
1, 509923, Note_on_c, 1, 61, 127
1, 510101, Note_off_c, 1, 52, 0
1, 510101, Note_off_c, 1, 61, 0
1, 510103, Note_on_c, 1, 56, 127
1, 510103, Note_on_c, 1, 64, 127
1, 510281, Note_off_c, 1, 56, 0
1, 510281, Note_off_c, 1, 64, 0
1, 510283, Note_on_c, 1, 54, 127
1, 510283, Note_on_c, 1, 63, 127
1, 510461, Note_off_c, 1, 54, 0
1, 510461, Note_off_c, 1, 63, 0
1, 510463, Note_on_c, 1, 57, 127
1, 510463, Note_on_c, 1, 66, 127
1, 510641, Note_off_c, 1, 57, 0
1, 510641, Note_off_c, 1, 66, 0
1, 510643, Note_on_c, 1, 56, 127
1, 510643, Note_on_c, 1, 59, 127
1, 510821, Note_off_c, 1, 56, 0
1, 510821, Note_off_c, 1, 59, 0
1, 510823, Note_on_c, 1, 54, 127
1, 510823, Note_on_c, 1, 71, 127
1, 511001, Note_off_c, 1, 54, 0
1, 511003, Note_on_c, 1, 52, 127
1, 511181, Note_off_c, 1, 71, 0
1, 511181, Note_off_c, 1, 52, 0
1, 511183, Note_on_c, 1, 69, 127
1, 511183, Note_on_c, 1, 59, 127
1, 511271, Note_off_c, 1, 69, 0
1, 511273, Note_on_c, 1, 68, 127
1, 511361, Note_off_c, 1, 68, 0
1, 511541, Note_off_c, 1, 59, 0
1, 511543, Note_on_c, 1, 66, 127
1, 511543, Note_on_c, 1, 47, 127
1, 511721, Note_off_c, 1, 66, 0
1, 511723, Note_on_c, 1, 64, 127
1, 511901, Note_off_c, 1, 47, 0
1, 511901, Note_off_c, 1, 64, 0
1, 511903, Note_on_c, 1, 52, 127
1, 511903, Note_on_c, 1, 64, 127
1, 512263, Note_on_c, 1, 47, 127
1, 512621, Note_off_c, 1, 47, 0
1, 512623, Note_on_c, 1, 40, 127
1, 512979, Note_off_c, 1, 40, 0
1, 512981, Note_off_c, 1, 52, 0
1, 512981, Note_off_c, 1, 64, 0
1, 512983, Note_on_c, 1, 64, 127
1, 513321, Note_off_c, 1, 64, 0
1, 513343, Note_on_c, 1, 71, 127
1, 513521, Note_off_c, 1, 71, 0
1, 513523, Note_on_c, 1, 69, 127
1, 513701, Note_off_c, 1, 69, 0
1, 513703, Note_on_c, 1, 73, 127
1, 513881, Note_off_c, 1, 73, 0
1, 513883, Note_on_c, 1, 71, 127
1, 514061, Note_off_c, 1, 71, 0
1, 514063, Note_on_c, 1, 74, 127
1, 514241, Note_off_c, 1, 74, 0
1, 514243, Note_on_c, 1, 73, 127
1, 514421, Note_off_c, 1, 73, 0
1, 514423, Note_on_c, 1, 76, 127
1, 514423, Note_on_c, 1, 52, 127
1, 514770, Note_off_c, 1, 76, 0
1, 514781, Note_off_c, 1, 52, 0
1, 514783, Note_on_c, 1, 74, 127
1, 514783, Note_on_c, 1, 57, 127
1, 514913, Note_on_c, 1, 73, 127
1, 514923, Note_off_c, 1, 74, 0
1, 514961, Note_off_c, 1, 57, 0
1, 514963, Note_on_c, 1, 56, 127
1, 514991, Note_off_c, 1, 73, 0
1, 515141, Note_off_c, 1, 56, 0
1, 515143, Note_on_c, 1, 59, 127
1, 515143, Note_on_c, 1, 71, 127
1, 515321, Note_off_c, 1, 59, 0
1, 515321, Note_off_c, 1, 71, 0
1, 515323, Note_on_c, 1, 57, 127
1, 515323, Note_on_c, 1, 73, 127
1, 515501, Note_off_c, 1, 57, 0
1, 515501, Note_off_c, 1, 73, 0
1, 515503, Note_on_c, 1, 61, 127
1, 515503, Note_on_c, 1, 69, 127
1, 515681, Note_off_c, 1, 61, 0
1, 515681, Note_off_c, 1, 69, 0
1, 515683, Note_on_c, 1, 59, 127
1, 515683, Note_on_c, 1, 71, 127
1, 515861, Note_off_c, 1, 59, 0
1, 515861, Note_off_c, 1, 71, 0
1, 515863, Note_on_c, 1, 73, 127
1, 515863, Note_on_c, 1, 64, 127
1, 516041, Note_off_c, 1, 73, 0
1, 516043, Note_on_c, 1, 74, 127
1, 516210, Note_off_c, 1, 64, 0
1, 516221, Note_off_c, 1, 74, 0
1, 516223, Note_on_c, 1, 62, 127
1, 516223, Note_on_c, 1, 76, 127
1, 516303, Note_on_c, 1, 61, 127
1, 516311, Note_off_c, 1, 62, 0
1, 516391, Note_off_c, 1, 61, 0
1, 516401, Note_off_c, 1, 76, 0
1, 516403, Note_on_c, 1, 74, 127
1, 516581, Note_off_c, 1, 74, 0
1, 516583, Note_on_c, 1, 59, 127
1, 516583, Note_on_c, 1, 78, 127
1, 516761, Note_off_c, 1, 59, 0
1, 516761, Note_off_c, 1, 78, 0
1, 516763, Note_on_c, 1, 61, 127
1, 516763, Note_on_c, 1, 76, 127
1, 516941, Note_off_c, 1, 61, 0
1, 516941, Note_off_c, 1, 76, 0
1, 516943, Note_on_c, 1, 79, 127
1, 516943, Note_on_c, 1, 57, 127
1, 517121, Note_off_c, 1, 79, 0
1, 517123, Note_on_c, 1, 78, 127
1, 517301, Note_off_c, 1, 57, 0
1, 517301, Note_off_c, 1, 78, 0
1, 517303, Note_on_c, 1, 45, 127
1, 517303, Note_on_c, 1, 81, 127
1, 517661, Note_off_c, 1, 45, 0
1, 517661, Note_off_c, 1, 81, 0
1, 517663, Note_on_c, 1, 79, 127
1, 517663, Note_on_c, 1, 50, 127
1, 517733, Note_on_c, 1, 78, 127
1, 517751, Note_off_c, 1, 79, 0
1, 517821, Note_off_c, 1, 78, 0
1, 517841, Note_off_c, 1, 50, 0
1, 517843, Note_on_c, 1, 49, 127
1, 518021, Note_off_c, 1, 49, 0
1, 518023, Note_on_c, 1, 52, 127
1, 518023, Note_on_c, 1, 76, 127
1, 518201, Note_off_c, 1, 52, 0
1, 518201, Note_off_c, 1, 76, 0
1, 518203, Note_on_c, 1, 50, 127
1, 518203, Note_on_c, 1, 78, 127
1, 518381, Note_off_c, 1, 50, 0
1, 518381, Note_off_c, 1, 78, 0
1, 518383, Note_on_c, 1, 54, 127
1, 518383, Note_on_c, 1, 74, 127
1, 518561, Note_off_c, 1, 54, 0
1, 518563, Note_on_c, 1, 50, 127
1, 518741, Note_off_c, 1, 74, 0
1, 518741, Note_off_c, 1, 50, 0
1, 518743, Note_on_c, 1, 62, 127
1, 518743, Note_on_c, 1, 78, 127
1, 519101, Note_off_c, 1, 62, 0
1, 519101, Note_off_c, 1, 78, 0
1, 519103, Note_on_c, 1, 78, 127
1, 519103, Note_on_c, 1, 43, 127
1, 519281, Note_off_c, 1, 78, 0
1, 519283, Note_on_c, 1, 74, 127
1, 519461, Note_off_c, 1, 74, 0
1, 519463, Note_on_c, 1, 73, 127
1, 519641, Note_off_c, 1, 73, 0
1, 519643, Note_on_c, 1, 71, 127
1, 519815, Note_off_c, 1, 43, 0
1, 519821, Note_off_c, 1, 71, 0
1, 519823, Note_on_c, 1, 74, 127
1, 520001, Note_off_c, 1, 74, 0
1, 520003, Note_on_c, 1, 73, 127
1, 520181, Note_off_c, 1, 73, 0
1, 520183, Note_on_c, 1, 76, 127
1, 520183, Note_on_c, 1, 61, 127
1, 520361, Note_off_c, 1, 76, 0
1, 520363, Note_on_c, 1, 74, 127
1, 520541, Note_off_c, 1, 61, 0
1, 520541, Note_off_c, 1, 74, 0
1, 520543, Note_on_c, 1, 76, 127
1, 520543, Note_on_c, 1, 42, 127
1, 520721, Note_off_c, 1, 76, 0
1, 520723, Note_on_c, 1, 73, 127
1, 520901, Note_off_c, 1, 73, 0
1, 520903, Note_on_c, 1, 71, 127
1, 521081, Note_off_c, 1, 71, 0
1, 521083, Note_on_c, 1, 70, 127
1, 521255, Note_off_c, 1, 42, 0
1, 521261, Note_off_c, 1, 70, 0
1, 521263, Note_on_c, 1, 73, 127
1, 521441, Note_off_c, 1, 73, 0
1, 521443, Note_on_c, 1, 71, 127
1, 521621, Note_off_c, 1, 71, 0
1, 521623, Note_on_c, 1, 74, 127
1, 521623, Note_on_c, 1, 59, 127
1, 521801, Note_off_c, 1, 74, 0
1, 521803, Note_on_c, 1, 73, 127
1, 521981, Note_off_c, 1, 59, 0
1, 521981, Note_off_c, 1, 73, 0
1, 521983, Note_on_c, 1, 76, 127
1, 521983, Note_on_c, 1, 55, 127
1, 522161, Note_off_c, 1, 76, 0
1, 522163, Note_on_c, 1, 74, 127
1, 522341, Note_off_c, 1, 55, 0
1, 522341, Note_off_c, 1, 74, 0
1, 522343, Note_on_c, 1, 73, 127
1, 522343, Note_on_c, 1, 50, 127
1, 522521, Note_off_c, 1, 73, 0
1, 522523, Note_on_c, 1, 71, 127
1, 522701, Note_off_c, 1, 50, 0
1, 522701, Note_off_c, 1, 71, 0
1, 522703, Note_on_c, 1, 74, 127
1, 522703, Note_on_c, 1, 52, 127
1, 522881, Note_off_c, 1, 74, 0
1, 522883, Note_on_c, 1, 73, 127
1, 523061, Note_off_c, 1, 52, 0
1, 523061, Note_off_c, 1, 73, 0
1, 523063, Note_on_c, 1, 71, 127
1, 523063, Note_on_c, 1, 54, 127
1, 523241, Note_off_c, 1, 71, 0
1, 523243, Note_on_c, 1, 70, 127
1, 523421, Note_off_c, 1, 54, 0
1, 523421, Note_off_c, 1, 70, 0
1, 523423, Note_on_c, 1, 47, 127
1, 523423, Note_on_c, 1, 71, 127
1, 523601, Note_off_c, 1, 47, 0
1, 523603, Note_on_c, 1, 46, 127
1, 523781, Note_off_c, 1, 46, 0
1, 523783, Note_on_c, 1, 49, 127
1, 523961, Note_off_c, 1, 49, 0
1, 524143, Note_on_c, 1, 50, 127
1, 524321, Note_off_c, 1, 50, 0
1, 524501, Note_off_c, 1, 71, 0
1, 524503, Note_on_c, 1, 52, 127
1, 524503, Note_on_c, 1, 71, 127
1, 524861, Note_off_c, 1, 52, 0
1, 524861, Note_off_c, 1, 71, 0
1, 524863, Note_on_c, 1, 52, 127
1, 524863, Note_on_c, 1, 78, 127
1, 524934, Note_on_c, 1, 51, 127
1, 524952, Note_off_c, 1, 52, 0
1, 525023, Note_off_c, 1, 51, 0
1, 525042, Note_off_c, 1, 78, 0
1, 525044, Note_on_c, 1, 76, 127
1, 525223, Note_off_c, 1, 76, 0
1, 525225, Note_on_c, 1, 80, 127
1, 525403, Note_off_c, 1, 80, 0
1, 525585, Note_on_c, 1, 81, 127
1, 525763, Note_off_c, 1, 81, 0
1, 525765, Note_on_c, 1, 80, 127
1, 525943, Note_off_c, 1, 80, 0
1, 525945, Note_on_c, 1, 47, 127
1, 525945, Note_on_c, 1, 83, 127
1, 526303, Note_off_c, 1, 47, 0
1, 526303, Note_off_c, 1, 83, 0
1, 526305, Note_on_c, 1, 81, 127
1, 526305, Note_on_c, 1, 52, 127
1, 526425, Note_off_c, 1, 81, 0
1, 526435, Note_on_c, 1, 80, 127
1, 526483, Note_off_c, 1, 52, 0
1, 526485, Note_on_c, 1, 51, 127
1, 526514, Note_off_c, 1, 80, 0
1, 526663, Note_off_c, 1, 51, 0
1, 526665, Note_on_c, 1, 54, 127
1, 526665, Note_on_c, 1, 78, 127
1, 526843, Note_off_c, 1, 54, 0
1, 526843, Note_off_c, 1, 78, 0
1, 526845, Note_on_c, 1, 52, 127
1, 526845, Note_on_c, 1, 80, 127
1, 527023, Note_off_c, 1, 52, 0
1, 527023, Note_off_c, 1, 80, 0
1, 527025, Note_on_c, 1, 56, 127
1, 527025, Note_on_c, 1, 76, 127
1, 527203, Note_off_c, 1, 56, 0
1, 527205, Note_on_c, 1, 54, 127
1, 527383, Note_off_c, 1, 76, 0
1, 527383, Note_off_c, 1, 54, 0
1, 527385, Note_on_c, 1, 57, 127
1, 527385, Note_on_c, 1, 64, 127
1, 527743, Note_off_c, 1, 57, 0
1, 527743, Note_off_c, 1, 64, 0
1, 527745, Note_on_c, 1, 57, 127
1, 527745, Note_on_c, 1, 71, 127
1, 527821, Note_on_c, 1, 56, 127
1, 527834, Note_off_c, 1, 57, 0
1, 527910, Note_off_c, 1, 56, 0
1, 527924, Note_off_c, 1, 71, 0
1, 527926, Note_on_c, 1, 69, 127
1, 528105, Note_off_c, 1, 69, 0
1, 528107, Note_on_c, 1, 73, 127
1, 528285, Note_off_c, 1, 73, 0
1, 528467, Note_on_c, 1, 74, 127
1, 528645, Note_off_c, 1, 74, 0
1, 528647, Note_on_c, 1, 73, 127
1, 528825, Note_off_c, 1, 73, 0
1, 528827, Note_on_c, 1, 52, 127
1, 528827, Note_on_c, 1, 76, 127
1, 529185, Note_off_c, 1, 52, 0
1, 529185, Note_off_c, 1, 76, 0
1, 529187, Note_on_c, 1, 74, 127
1, 529187, Note_on_c, 1, 57, 127
1, 529257, Note_on_c, 1, 73, 127
1, 529265, Note_off_c, 1, 74, 0
1, 529336, Note_off_c, 1, 73, 0
1, 529365, Note_off_c, 1, 57, 0
1, 529367, Note_on_c, 1, 56, 127
1, 529545, Note_off_c, 1, 56, 0
1, 529547, Note_on_c, 1, 59, 127
1, 529547, Note_on_c, 1, 71, 127
1, 529725, Note_off_c, 1, 59, 0
1, 529725, Note_off_c, 1, 71, 0
1, 529727, Note_on_c, 1, 57, 127
1, 529727, Note_on_c, 1, 73, 127
1, 529905, Note_off_c, 1, 57, 0
1, 529905, Note_off_c, 1, 73, 0
1, 529907, Note_on_c, 1, 61, 127
1, 529907, Note_on_c, 1, 69, 127
1, 530085, Note_off_c, 1, 61, 0
1, 530085, Note_off_c, 1, 69, 0
1, 530087, Note_on_c, 1, 59, 127
1, 530087, Note_on_c, 1, 71, 127
1, 530265, Note_off_c, 1, 59, 0
1, 530265, Note_off_c, 1, 71, 0
1, 530267, Note_on_c, 1, 73, 127
1, 530267, Note_on_c, 1, 64, 127
1, 530445, Note_off_c, 1, 73, 0
1, 530447, Note_on_c, 1, 74, 127
1, 530625, Note_off_c, 1, 64, 0
1, 530625, Note_off_c, 1, 74, 0
1, 530627, Note_on_c, 1, 62, 127
1, 530627, Note_on_c, 1, 76, 127
1, 530698, Note_on_c, 1, 61, 127
1, 530715, Note_off_c, 1, 62, 0
1, 530786, Note_off_c, 1, 61, 0
1, 530805, Note_off_c, 1, 76, 0
1, 530807, Note_on_c, 1, 73, 127
1, 530986, Note_off_c, 1, 73, 0
1, 530988, Note_on_c, 1, 71, 127
1, 531166, Note_off_c, 1, 71, 0
1, 531168, Note_on_c, 1, 69, 127
1, 531346, Note_off_c, 1, 69, 0
1, 531348, Note_on_c, 1, 76, 127
1, 531348, Note_on_c, 1, 61, 127
1, 531526, Note_off_c, 1, 76, 0
1, 531528, Note_on_c, 1, 74, 127
1, 531706, Note_off_c, 1, 61, 0
1, 531706, Note_off_c, 1, 74, 0
1, 531708, Note_on_c, 1, 78, 127
1, 531708, Note_on_c, 1, 59, 127
1, 531886, Note_off_c, 1, 78, 0
1, 531888, Note_on_c, 1, 76, 127
1, 532066, Note_off_c, 1, 59, 0
1, 532066, Note_off_c, 1, 76, 0
1, 532068, Note_on_c, 1, 79, 127
1, 532068, Note_on_c, 1, 57, 127
1, 532248, Note_on_c, 1, 73, 127
1, 532424, Note_off_c, 1, 79, 0
1, 532426, Note_off_c, 1, 57, 0
1, 532426, Note_off_c, 1, 73, 0
1, 532428, Note_on_c, 1, 71, 127
1, 532428, Note_on_c, 1, 57, 127
1, 532606, Note_off_c, 1, 71, 0
1, 532608, Note_on_c, 1, 69, 127
1, 532786, Note_off_c, 1, 57, 0
1, 532786, Note_off_c, 1, 69, 0
1, 532788, Note_on_c, 1, 74, 127
1, 532788, Note_on_c, 1, 57, 127
1, 532966, Note_off_c, 1, 74, 0
1, 532968, Note_on_c, 1, 73, 127
1, 533146, Note_off_c, 1, 57, 0
1, 533146, Note_off_c, 1, 73, 0
1, 533148, Note_on_c, 1, 76, 127
1, 533148, Note_on_c, 1, 57, 127
1, 533326, Note_off_c, 1, 76, 0
1, 533328, Note_on_c, 1, 74, 127
1, 533506, Note_off_c, 1, 57, 0
1, 533506, Note_off_c, 1, 74, 0
1, 533508, Note_on_c, 1, 78, 127
1, 533508, Note_on_c, 1, 57, 127
1, 533688, Note_on_c, 1, 73, 127
1, 533864, Note_off_c, 1, 78, 0
1, 533866, Note_off_c, 1, 57, 0
1, 533866, Note_off_c, 1, 73, 0
1, 533868, Note_on_c, 1, 71, 127
1, 533868, Note_on_c, 1, 57, 127
1, 534046, Note_off_c, 1, 71, 0
1, 534048, Note_on_c, 1, 69, 127
1, 534226, Note_off_c, 1, 57, 0
1, 534226, Note_off_c, 1, 69, 0
1, 534228, Note_on_c, 1, 76, 127
1, 534228, Note_on_c, 1, 57, 127
1, 534406, Note_off_c, 1, 76, 0
1, 534408, Note_on_c, 1, 74, 127
1, 534586, Note_off_c, 1, 57, 0
1, 534586, Note_off_c, 1, 74, 0
1, 534588, Note_on_c, 1, 78, 127
1, 534588, Note_on_c, 1, 57, 127
1, 534766, Note_off_c, 1, 78, 0
1, 534768, Note_on_c, 1, 76, 127
1, 534946, Note_off_c, 1, 57, 0
1, 534946, Note_off_c, 1, 76, 0
1, 534948, Note_on_c, 1, 79, 127
1, 534948, Note_on_c, 1, 57, 127
1, 535128, Note_on_c, 1, 73, 127
1, 535304, Note_off_c, 1, 79, 0
1, 535306, Note_off_c, 1, 57, 0
1, 535306, Note_off_c, 1, 73, 0
1, 535308, Note_on_c, 1, 71, 127
1, 535308, Note_on_c, 1, 55, 127
1, 535486, Note_off_c, 1, 71, 0
1, 535488, Note_on_c, 1, 69, 127
1, 535666, Note_off_c, 1, 55, 0
1, 535666, Note_off_c, 1, 69, 0
1, 535668, Note_on_c, 1, 74, 127
1, 535668, Note_on_c, 1, 54, 127
1, 535846, Note_off_c, 1, 74, 0
1, 535848, Note_on_c, 1, 73, 127
1, 536026, Note_off_c, 1, 54, 0
1, 536026, Note_off_c, 1, 73, 0
1, 536028, Note_on_c, 1, 76, 127
1, 536028, Note_on_c, 1, 52, 127
1, 536206, Note_off_c, 1, 76, 0
1, 536208, Note_on_c, 1, 74, 127
1, 536386, Note_off_c, 1, 52, 0
1, 536386, Note_off_c, 1, 74, 0
1, 536388, Note_on_c, 1, 78, 127
1, 536388, Note_on_c, 1, 50, 127
1, 536566, Note_off_c, 1, 78, 0
1, 536568, Note_on_c, 1, 74, 127
1, 536746, Note_off_c, 1, 50, 0
1, 536746, Note_off_c, 1, 74, 0
1, 536748, Note_on_c, 1, 73, 127
1, 536748, Note_on_c, 1, 52, 127
1, 536926, Note_off_c, 1, 73, 0
1, 536928, Note_on_c, 1, 71, 127
1, 537106, Note_off_c, 1, 52, 0
1, 537106, Note_off_c, 1, 71, 0
1, 537108, Note_on_c, 1, 78, 127
1, 537108, Note_on_c, 1, 50, 127
1, 537286, Note_off_c, 1, 78, 0
1, 537288, Note_on_c, 1, 76, 127
1, 537466, Note_off_c, 1, 50, 0
1, 537466, Note_off_c, 1, 76, 0
1, 537468, Note_on_c, 1, 80, 127
1, 537468, Note_on_c, 1, 49, 127
1, 537646, Note_off_c, 1, 80, 0
1, 537648, Note_on_c, 1, 78, 127
1, 537826, Note_off_c, 1, 49, 0
1, 537826, Note_off_c, 1, 78, 0
1, 537828, Note_on_c, 1, 47, 127
1, 537828, Note_on_c, 1, 81, 127
1, 538008, Note_on_c, 1, 75, 127
1, 538186, Note_off_c, 1, 47, 0
1, 538186, Note_off_c, 1, 75, 0
1, 538188, Note_on_c, 1, 73, 127
1, 538228, Note_off_c, 1, 81, 0
1, 538366, Note_off_c, 1, 73, 0
1, 538368, Note_on_c, 1, 71, 127
1, 538546, Note_off_c, 1, 71, 0
1, 538548, Note_on_c, 1, 76, 127
1, 538548, Note_on_c, 1, 47, 127
1, 538728, Note_on_c, 1, 75, 127
1, 538738, Note_off_c, 1, 76, 0
1, 538906, Note_off_c, 1, 47, 0
1, 538906, Note_off_c, 1, 75, 0
1, 538908, Note_on_c, 1, 78, 127
1, 538908, Note_on_c, 1, 47, 127
1, 539088, Note_on_c, 1, 76, 127
1, 539098, Note_off_c, 1, 78, 0
1, 539266, Note_off_c, 1, 47, 0
1, 539266, Note_off_c, 1, 76, 0
1, 539268, Note_on_c, 1, 47, 127
1, 539268, Note_on_c, 1, 80, 127
1, 539448, Note_on_c, 1, 75, 127
1, 539626, Note_off_c, 1, 47, 0
1, 539626, Note_off_c, 1, 75, 0
1, 539628, Note_on_c, 1, 73, 127
1, 539668, Note_off_c, 1, 80, 0
1, 539806, Note_off_c, 1, 73, 0
1, 539808, Note_on_c, 1, 71, 127
1, 539986, Note_off_c, 1, 71, 0
1, 539988, Note_on_c, 1, 78, 127
1, 539988, Note_on_c, 1, 47, 127
1, 540168, Note_on_c, 1, 76, 127
1, 540188, Note_off_c, 1, 78, 0
1, 540346, Note_off_c, 1, 47, 0
1, 540346, Note_off_c, 1, 76, 0
1, 540348, Note_on_c, 1, 80, 127
1, 540348, Note_on_c, 1, 47, 127
1, 540528, Note_on_c, 1, 78, 127
1, 540548, Note_off_c, 1, 80, 0
1, 540706, Note_off_c, 1, 47, 0
1, 540706, Note_off_c, 1, 78, 0
1, 540708, Note_on_c, 1, 47, 127
1, 540708, Note_on_c, 1, 81, 127
1, 540888, Note_on_c, 1, 75, 127
1, 541066, Note_off_c, 1, 47, 0
1, 541066, Note_off_c, 1, 75, 0
1, 541068, Note_on_c, 1, 73, 127
1, 541068, Note_on_c, 1, 45, 127
1, 541108, Note_off_c, 1, 81, 0
1, 541246, Note_off_c, 1, 73, 0
1, 541248, Note_on_c, 1, 71, 127
1, 541426, Note_off_c, 1, 45, 0
1, 541426, Note_off_c, 1, 71, 0
1, 541428, Note_on_c, 1, 76, 127
1, 541428, Note_on_c, 1, 44, 127
1, 541606, Note_off_c, 1, 76, 0
1, 541608, Note_on_c, 1, 75, 127
1, 541786, Note_off_c, 1, 44, 0
1, 541786, Note_off_c, 1, 75, 0
1, 541788, Note_on_c, 1, 78, 127
1, 541788, Note_on_c, 1, 42, 127
1, 541966, Note_off_c, 1, 78, 0
1, 541968, Note_on_c, 1, 76, 127
1, 542146, Note_off_c, 1, 42, 0
1, 542146, Note_off_c, 1, 76, 0
1, 542148, Note_on_c, 1, 80, 127
1, 542148, Note_on_c, 1, 40, 127
1, 542326, Note_off_c, 1, 80, 0
1, 542328, Note_on_c, 1, 78, 127
1, 542506, Note_off_c, 1, 40, 0
1, 542506, Note_off_c, 1, 78, 0
1, 542508, Note_on_c, 1, 76, 127
1, 542508, Note_on_c, 1, 40, 127
1, 542686, Note_off_c, 1, 76, 0
1, 542688, Note_on_c, 1, 78, 127
1, 542866, Note_off_c, 1, 40, 0
1, 542866, Note_off_c, 1, 78, 0
1, 542868, Note_on_c, 1, 80, 127
1, 542868, Note_on_c, 1, 40, 127
1, 543046, Note_off_c, 1, 80, 0
1, 543048, Note_on_c, 1, 78, 127
1, 543226, Note_off_c, 1, 40, 0
1, 543226, Note_off_c, 1, 78, 0
1, 543228, Note_on_c, 1, 81, 127
1, 543228, Note_on_c, 1, 40, 127
1, 543406, Note_off_c, 1, 81, 0
1, 543408, Note_on_c, 1, 80, 127
1, 543586, Note_off_c, 1, 40, 0
1, 543586, Note_off_c, 1, 80, 0
1, 543588, Note_on_c, 1, 83, 127
1, 543588, Note_on_c, 1, 38, 127
1, 543766, Note_off_c, 1, 83, 0
1, 543768, Note_on_c, 1, 81, 127
1, 543946, Note_off_c, 1, 38, 0
1, 543946, Note_off_c, 1, 81, 0
1, 543948, Note_on_c, 1, 80, 127
1, 543948, Note_on_c, 1, 38, 127
1, 544126, Note_off_c, 1, 80, 0
1, 544128, Note_on_c, 1, 78, 127
1, 544306, Note_off_c, 1, 38, 0
1, 544306, Note_off_c, 1, 78, 0
1, 544308, Note_on_c, 1, 81, 127
1, 544308, Note_on_c, 1, 38, 127
1, 544486, Note_off_c, 1, 81, 0
1, 544488, Note_on_c, 1, 80, 127
1, 544666, Note_off_c, 1, 38, 0
1, 544666, Note_off_c, 1, 80, 0
1, 544668, Note_on_c, 1, 78, 127
1, 544668, Note_on_c, 1, 50, 127
1, 544846, Note_off_c, 1, 78, 0
1, 544848, Note_on_c, 1, 76, 127
1, 545026, Note_off_c, 1, 50, 0
1, 545026, Note_off_c, 1, 76, 0
1, 545028, Note_on_c, 1, 49, 127
1, 545028, Note_on_c, 1, 81, 127
1, 545386, Note_off_c, 1, 49, 0
1, 545388, Note_on_c, 1, 52, 127
1, 545476, Note_off_c, 1, 52, 0
1, 545478, Note_on_c, 1, 50, 127
1, 545566, Note_off_c, 1, 81, 0
1, 545566, Note_off_c, 1, 50, 0
1, 545568, Note_on_c, 1, 49, 127
1, 545568, Note_on_c, 1, 83, 127
1, 545656, Note_off_c, 1, 49, 0
1, 545658, Note_on_c, 1, 50, 127
1, 545746, Note_off_c, 1, 83, 0
1, 545746, Note_off_c, 1, 50, 0
1, 545748, Note_on_c, 1, 81, 127
1, 545748, Note_on_c, 1, 52, 127
1, 545813, Note_on_c, 1, 80, 127
1, 545836, Note_off_c, 1, 81, 0
1, 545901, Note_off_c, 1, 80, 0
1, 546106, Note_off_c, 1, 52, 0
1, 546108, Note_on_c, 1, 40, 127
1, 546328, Note_on_c, 1, 78, 127
1, 546416, Note_off_c, 1, 78, 0
1, 546466, Note_off_c, 1, 40, 0
1, 546468, Note_on_c, 1, 45, 127
1, 546646, Note_off_c, 1, 45, 0
1, 546828, Note_on_c, 1, 54, 127
1, 547006, Note_off_c, 1, 54, 0
1, 547008, Note_on_c, 1, 56, 127
1, 547186, Note_off_c, 1, 56, 0
1, 547188, Note_on_c, 1, 57, 127
1, 547366, Note_off_c, 1, 57, 0
1, 547368, Note_on_c, 1, 59, 127
1, 547546, Note_off_c, 1, 59, 0
1, 547548, Note_on_c, 1, 61, 127
1, 547548, Note_on_c, 1, 76, 127
1, 547906, Note_off_c, 1, 61, 0
1, 547906, Note_off_c, 1, 76, 0
1, 547908, Note_on_c, 1, 76, 127
1, 547908, Note_on_c, 1, 42, 127
1, 548086, Note_off_c, 1, 76, 0
1, 548088, Note_on_c, 1, 73, 127
1, 548266, Note_off_c, 1, 73, 0
1, 548268, Note_on_c, 1, 71, 127
1, 548446, Note_off_c, 1, 71, 0
1, 548448, Note_on_c, 1, 69, 127
1, 548620, Note_off_c, 1, 42, 0
1, 548626, Note_off_c, 1, 69, 0
1, 548628, Note_on_c, 1, 73, 127
1, 548806, Note_off_c, 1, 73, 0
1, 548808, Note_on_c, 1, 71, 127
1, 548986, Note_off_c, 1, 71, 0
1, 548988, Note_on_c, 1, 74, 127
1, 548988, Note_on_c, 1, 59, 127
1, 549166, Note_off_c, 1, 74, 0
1, 549168, Note_on_c, 1, 73, 127
1, 549346, Note_off_c, 1, 59, 0
1, 549346, Note_off_c, 1, 73, 0
1, 549348, Note_on_c, 1, 74, 127
1, 549348, Note_on_c, 1, 40, 127
1, 549526, Note_off_c, 1, 74, 0
1, 549528, Note_on_c, 1, 71, 127
1, 549706, Note_off_c, 1, 71, 0
1, 549708, Note_on_c, 1, 69, 127
1, 549886, Note_off_c, 1, 69, 0
1, 549888, Note_on_c, 1, 68, 127
1, 550060, Note_off_c, 1, 40, 0
1, 550066, Note_off_c, 1, 68, 0
1, 550068, Note_on_c, 1, 71, 127
1, 550246, Note_off_c, 1, 71, 0
1, 550248, Note_on_c, 1, 69, 127
1, 550426, Note_off_c, 1, 69, 0
1, 550428, Note_on_c, 1, 73, 127
1, 550428, Note_on_c, 1, 57, 127
1, 550606, Note_off_c, 1, 73, 0
1, 550608, Note_on_c, 1, 71, 127
1, 550786, Note_off_c, 1, 57, 0
1, 550786, Note_off_c, 1, 71, 0
1, 550788, Note_on_c, 1, 74, 127
1, 550788, Note_on_c, 1, 54, 127
1, 550966, Note_off_c, 1, 74, 0
1, 550968, Note_on_c, 1, 73, 127
1, 551146, Note_off_c, 1, 54, 0
1, 551146, Note_off_c, 1, 73, 0
1, 551148, Note_on_c, 1, 71, 127
1, 551148, Note_on_c, 1, 49, 127
1, 551326, Note_off_c, 1, 71, 0
1, 551328, Note_on_c, 1, 69, 127
1, 551506, Note_off_c, 1, 49, 0
1, 551506, Note_off_c, 1, 69, 0
1, 551508, Note_on_c, 1, 73, 127
1, 551508, Note_on_c, 1, 50, 127
1, 551686, Note_off_c, 1, 73, 0
1, 551688, Note_on_c, 1, 71, 127
1, 551866, Note_off_c, 1, 50, 0
1, 551866, Note_off_c, 1, 71, 0
1, 551868, Note_on_c, 1, 69, 127
1, 551868, Note_on_c, 1, 52, 127
1, 552046, Note_off_c, 1, 69, 0
1, 552048, Note_on_c, 1, 68, 127
1, 552226, Note_off_c, 1, 52, 0
1, 552226, Note_off_c, 1, 68, 0
1, 552228, Note_on_c, 1, 45, 127
1, 552228, Note_on_c, 1, 69, 127
1, 552406, Note_off_c, 1, 45, 0
1, 552406, Note_off_c, 1, 69, 0
1, 552408, Note_on_c, 1, 44, 127
1, 552408, Note_on_c, 1, 64, 127
1, 552586, Note_off_c, 1, 44, 0
1, 552586, Note_off_c, 1, 64, 0
1, 552588, Note_on_c, 1, 45, 127
1, 552588, Note_on_c, 1, 66, 127
1, 552766, Note_off_c, 1, 45, 0
1, 552766, Note_off_c, 1, 66, 0
1, 552768, Note_on_c, 1, 47, 127
1, 552768, Note_on_c, 1, 68, 127
1, 552946, Note_off_c, 1, 47, 0
1, 552946, Note_off_c, 1, 68, 0
1, 552948, Note_on_c, 1, 49, 127
1, 552948, Note_on_c, 1, 69, 127
1, 553126, Note_off_c, 1, 49, 0
1, 553126, Note_off_c, 1, 69, 0
1, 553128, Note_on_c, 1, 50, 127
1, 553128, Note_on_c, 1, 71, 127
1, 553306, Note_off_c, 1, 50, 0
1, 553306, Note_off_c, 1, 71, 0
1, 553308, Note_on_c, 1, 52, 127
1, 553308, Note_on_c, 1, 73, 127
1, 553486, Note_off_c, 1, 52, 0
1, 553486, Note_off_c, 1, 73, 0
1, 553488, Note_on_c, 1, 49, 127
1, 553488, Note_on_c, 1, 74, 127
1, 553666, Note_off_c, 1, 49, 0
1, 553666, Note_off_c, 1, 74, 0
1, 553668, Note_on_c, 1, 54, 127
1, 553668, Note_on_c, 1, 76, 127
1, 553738, Note_on_c, 1, 52, 127
1, 553748, Note_off_c, 1, 54, 0
1, 553818, Note_off_c, 1, 52, 0
1, 553846, Note_off_c, 1, 76, 0
1, 553848, Note_on_c, 1, 73, 127
1, 554026, Note_off_c, 1, 73, 0
1, 554028, Note_on_c, 1, 71, 127
1, 554206, Note_off_c, 1, 71, 0
1, 554208, Note_on_c, 1, 69, 127
1, 554386, Note_off_c, 1, 69, 0
1, 554568, Note_on_c, 1, 71, 127
1, 554746, Note_off_c, 1, 71, 0
1, 554748, Note_on_c, 1, 74, 127
1, 554748, Note_on_c, 1, 47, 127
1, 554926, Note_off_c, 1, 74, 0
1, 554928, Note_on_c, 1, 73, 127
1, 555106, Note_off_c, 1, 47, 0
1, 555106, Note_off_c, 1, 73, 0
1, 555108, Note_on_c, 1, 52, 127
1, 555108, Note_on_c, 1, 74, 127
1, 555188, Note_off_c, 1, 52, 0
1, 555188, Note_on_c, 1, 50, 127
1, 555268, Note_off_c, 1, 50, 0
1, 555286, Note_off_c, 1, 74, 0
1, 555288, Note_on_c, 1, 71, 127
1, 555466, Note_off_c, 1, 71, 0
1, 555468, Note_on_c, 1, 69, 127
1, 555646, Note_off_c, 1, 69, 0
1, 555648, Note_on_c, 1, 68, 127
1, 555826, Note_off_c, 1, 68, 0
1, 556008, Note_on_c, 1, 69, 127
1, 556186, Note_off_c, 1, 69, 0
1, 556188, Note_on_c, 1, 73, 127
1, 556188, Note_on_c, 1, 45, 127
1, 556366, Note_off_c, 1, 73, 0
1, 556368, Note_on_c, 1, 71, 127
1, 556546, Note_off_c, 1, 45, 0
1, 556546, Note_off_c, 1, 71, 0
1, 556548, Note_on_c, 1, 74, 127
1, 556548, Note_on_c, 1, 42, 127
1, 556726, Note_off_c, 1, 74, 0
1, 556728, Note_on_c, 1, 73, 127
1, 556906, Note_off_c, 1, 42, 0
1, 556906, Note_off_c, 1, 73, 0
1, 556908, Note_on_c, 1, 71, 127
1, 556908, Note_on_c, 1, 37, 127
1, 557086, Note_off_c, 1, 71, 0
1, 557088, Note_on_c, 1, 69, 127
1, 557266, Note_off_c, 1, 37, 0
1, 557266, Note_off_c, 1, 69, 0
1, 557268, Note_on_c, 1, 73, 127
1, 557268, Note_on_c, 1, 38, 127
1, 557446, Note_off_c, 1, 73, 0
1, 557448, Note_on_c, 1, 71, 127
1, 557626, Note_off_c, 1, 38, 0
1, 557626, Note_off_c, 1, 71, 0
1, 557628, Note_on_c, 1, 69, 127
1, 557628, Note_on_c, 1, 40, 127
1, 557806, Note_off_c, 1, 69, 0
1, 557808, Note_on_c, 1, 68, 127
1, 557986, Note_off_c, 1, 40, 0
1, 557986, Note_off_c, 1, 68, 0
1, 557988, Note_on_c, 1, 69, 127
1, 557988, Note_on_c, 1, 33, 127
1, 558076, Note_off_c, 1, 69, 0
1, 558078, Note_on_c, 1, 68, 127
1, 558166, Note_off_c, 1, 68, 0
1, 558348, Note_on_c, 1, 40, 127
1, 558706, Note_off_c, 1, 40, 0
1, 558708, Note_on_c, 1, 45, 127
1, 559066, Note_off_c, 1, 33, 0
1, 559068, Note_on_c, 1, 52, 127
1, 559068, Note_on_c, 1, 60, 127
1, 559246, Note_off_c, 1, 52, 0
1, 559246, Note_off_c, 1, 60, 0
1, 559248, Note_on_c, 1, 50, 127
1, 559248, Note_on_c, 1, 62, 127
1, 559426, Note_off_c, 1, 50, 0
1, 559426, Note_off_c, 1, 62, 0
1, 559427, Note_off_c, 1, 45, 0
1, 559428, Note_on_c, 1, 48, 127
1, 559428, Note_on_c, 1, 64, 127
1, 559606, Note_off_c, 1, 48, 0
1, 559608, Note_on_c, 1, 47, 127
1, 559786, Note_off_c, 1, 64, 0
1, 559786, Note_off_c, 1, 47, 0
1, 559788, Note_on_c, 1, 45, 127
1, 559788, Note_on_c, 1, 65, 127
1, 559966, Note_off_c, 1, 45, 0
1, 559968, Note_on_c, 1, 47, 127
1, 560146, Note_off_c, 1, 65, 0
1, 560146, Note_off_c, 1, 47, 0
1, 560148, Note_on_c, 1, 48, 127
1, 560148, Note_on_c, 1, 64, 127
1, 560326, Note_off_c, 1, 48, 0
1, 560328, Note_on_c, 1, 47, 127
1, 560506, Note_off_c, 1, 64, 0
1, 560506, Note_off_c, 1, 47, 0
1, 560508, Note_on_c, 1, 45, 127
1, 560508, Note_on_c, 1, 62, 127
1, 560686, Note_off_c, 1, 45, 0
1, 560688, Note_on_c, 1, 47, 127
1, 560866, Note_off_c, 1, 62, 0
1, 560866, Note_off_c, 1, 47, 0
1, 560868, Note_on_c, 1, 64, 127
1, 560868, Note_on_c, 1, 48, 127
1, 560938, Note_on_c, 1, 62, 127
1, 560948, Note_off_c, 1, 64, 0
1, 561018, Note_off_c, 1, 62, 0
1, 561046, Note_off_c, 1, 48, 0
1, 561048, Note_on_c, 1, 47, 127
1, 561226, Note_off_c, 1, 47, 0
1, 561228, Note_on_c, 1, 45, 127
1, 561228, Note_on_c, 1, 57, 127
1, 561406, Note_off_c, 1, 45, 0
1, 561768, Note_on_c, 1, 50, 127
1, 561847, Note_off_c, 1, 57, 0
1, 561946, Note_off_c, 1, 50, 0
1, 561948, Note_on_c, 1, 52, 127
1, 561948, Note_on_c, 1, 56, 127
1, 562126, Note_off_c, 1, 52, 0
1, 562128, Note_on_c, 1, 50, 127
1, 562306, Note_off_c, 1, 56, 0
1, 562306, Note_off_c, 1, 50, 0
1, 562308, Note_on_c, 1, 48, 127
1, 562308, Note_on_c, 1, 57, 127
1, 562486, Note_off_c, 1, 48, 0
1, 562488, Note_on_c, 1, 47, 127
1, 562666, Note_off_c, 1, 57, 0
1, 562666, Note_off_c, 1, 47, 0
1, 562668, Note_on_c, 1, 45, 127
1, 562668, Note_on_c, 1, 65, 127
1, 562846, Note_off_c, 1, 45, 0
1, 562848, Note_on_c, 1, 47, 127
1, 563026, Note_off_c, 1, 65, 0
1, 563026, Note_off_c, 1, 47, 0
1, 563028, Note_on_c, 1, 48, 127
1, 563028, Note_on_c, 1, 64, 127
1, 563206, Note_off_c, 1, 48, 0
1, 563208, Note_on_c, 1, 47, 127
1, 563386, Note_off_c, 1, 64, 0
1, 563386, Note_off_c, 1, 47, 0
1, 563388, Note_on_c, 1, 45, 127
1, 563388, Note_on_c, 1, 62, 127
1, 563566, Note_off_c, 1, 45, 0
1, 563568, Note_on_c, 1, 47, 127
1, 563746, Note_off_c, 1, 62, 0
1, 563746, Note_off_c, 1, 47, 0
1, 563748, Note_on_c, 1, 64, 127
1, 563748, Note_on_c, 1, 48, 127
1, 563818, Note_on_c, 1, 62, 127
1, 563828, Note_off_c, 1, 64, 0
1, 563898, Note_off_c, 1, 62, 0
1, 563926, Note_off_c, 1, 48, 0
1, 563928, Note_on_c, 1, 47, 127
1, 564106, Note_off_c, 1, 47, 0
1, 564108, Note_on_c, 1, 45, 127
1, 564108, Note_on_c, 1, 57, 127
1, 564286, Note_off_c, 1, 45, 0
1, 564648, Note_on_c, 1, 50, 127
1, 564727, Note_off_c, 1, 57, 0
1, 564826, Note_off_c, 1, 50, 0
1, 564828, Note_on_c, 1, 52, 127
1, 564828, Note_on_c, 1, 56, 127
1, 565006, Note_off_c, 1, 52, 0
1, 565008, Note_on_c, 1, 50, 127
1, 565186, Note_off_c, 1, 56, 0
1, 565186, Note_off_c, 1, 50, 0
1, 565188, Note_on_c, 1, 48, 127
1, 565188, Note_on_c, 1, 57, 127
1, 565366, Note_off_c, 1, 48, 0
1, 565368, Note_on_c, 1, 47, 127
1, 565546, Note_off_c, 1, 57, 0
1, 565546, Note_off_c, 1, 47, 0
1, 565548, Note_on_c, 1, 45, 127
1, 565548, Note_on_c, 1, 65, 127
1, 565726, Note_off_c, 1, 45, 0
1, 565728, Note_on_c, 1, 47, 127
1, 565906, Note_off_c, 1, 65, 0
1, 565906, Note_off_c, 1, 47, 0
1, 565908, Note_on_c, 1, 48, 127
1, 565908, Note_on_c, 1, 64, 127
1, 566086, Note_off_c, 1, 48, 0
1, 566088, Note_on_c, 1, 47, 127
1, 566266, Note_off_c, 1, 64, 0
1, 566266, Note_off_c, 1, 47, 0
1, 566268, Note_on_c, 1, 45, 127
1, 566268, Note_on_c, 1, 62, 127
1, 566446, Note_off_c, 1, 45, 0
1, 566448, Note_on_c, 1, 47, 127
1, 566626, Note_off_c, 1, 62, 0
1, 566626, Note_off_c, 1, 47, 0
1, 566628, Note_on_c, 1, 48, 127
1, 566628, Note_on_c, 1, 69, 127
1, 566806, Note_off_c, 1, 48, 0
1, 566808, Note_on_c, 1, 47, 127
1, 566986, Note_off_c, 1, 69, 0
1, 566986, Note_off_c, 1, 47, 0
1, 566988, Note_on_c, 1, 45, 127
1, 566988, Note_on_c, 1, 67, 127
1, 567166, Note_off_c, 1, 45, 0
1, 567166, Note_off_c, 1, 67, 0
1, 567168, Note_on_c, 1, 47, 127
1, 567168, Note_on_c, 1, 65, 127
1, 567346, Note_off_c, 1, 47, 0
1, 567346, Note_off_c, 1, 65, 0
1, 567348, Note_on_c, 1, 48, 127
1, 567348, Note_on_c, 1, 64, 127
1, 567526, Note_off_c, 1, 48, 0
1, 567528, Note_on_c, 1, 50, 127
1, 567706, Note_off_c, 1, 64, 0
1, 567706, Note_off_c, 1, 50, 0
1, 567708, Note_on_c, 1, 52, 127
1, 567708, Note_on_c, 1, 62, 127
1, 567886, Note_off_c, 1, 52, 0
1, 567888, Note_on_c, 1, 53, 127
1, 568066, Note_off_c, 1, 62, 0
1, 568066, Note_off_c, 1, 53, 0
1, 568068, Note_on_c, 1, 62, 127
1, 568068, Note_on_c, 1, 52, 127
1, 568212, Note_on_c, 1, 60, 127
1, 568216, Note_off_c, 1, 62, 0
1, 568246, Note_off_c, 1, 52, 0
1, 568248, Note_on_c, 1, 50, 127
1, 568282, Note_off_c, 1, 60, 0
1, 568426, Note_off_c, 1, 50, 0
1, 568428, Note_on_c, 1, 48, 127
1, 568428, Note_on_c, 1, 59, 127
1, 568606, Note_off_c, 1, 48, 0
1, 568606, Note_off_c, 1, 59, 0
1, 568608, Note_on_c, 1, 47, 127
1, 568608, Note_on_c, 1, 60, 127
1, 568786, Note_off_c, 1, 47, 0
1, 568786, Note_off_c, 1, 60, 0
1, 568788, Note_on_c, 1, 45, 127
1, 568788, Note_on_c, 1, 62, 127
1, 568966, Note_off_c, 1, 45, 0
1, 568966, Note_off_c, 1, 62, 0
1, 568968, Note_on_c, 1, 44, 127
1, 568968, Note_on_c, 1, 59, 127
1, 569146, Note_off_c, 1, 44, 0
1, 569146, Note_off_c, 1, 59, 0
1, 569148, Note_on_c, 1, 60, 127
1, 569148, Note_on_c, 1, 45, 127
1, 569326, Note_off_c, 1, 60, 0
1, 569328, Note_on_c, 1, 57, 127
1, 569506, Note_off_c, 1, 45, 0
1, 569506, Note_off_c, 1, 57, 0
1, 569508, Note_on_c, 1, 59, 127
1, 569508, Note_on_c, 1, 40, 127
1, 569686, Note_off_c, 1, 59, 0
1, 569688, Note_on_c, 1, 57, 127
1, 569866, Note_off_c, 1, 57, 0
1, 569868, Note_on_c, 1, 56, 127
1, 570046, Note_off_c, 1, 56, 0
1, 570227, Note_off_c, 1, 40, 0
1, 570228, Note_on_c, 1, 59, 127
1, 570406, Note_off_c, 1, 59, 0
1, 570408, Note_on_c, 1, 60, 127
1, 570586, Note_off_c, 1, 60, 0
1, 570588, Note_on_c, 1, 52, 127
1, 570588, Note_on_c, 1, 62, 127
1, 570766, Note_off_c, 1, 52, 0
1, 570766, Note_off_c, 1, 62, 0
1, 570768, Note_on_c, 1, 53, 127
1, 570768, Note_on_c, 1, 59, 127
1, 570946, Note_off_c, 1, 53, 0
1, 570946, Note_off_c, 1, 59, 0
1, 570948, Note_on_c, 1, 60, 127
1, 570948, Note_on_c, 1, 52, 127
1, 571126, Note_off_c, 1, 60, 0
1, 571128, Note_on_c, 1, 62, 127
1, 571306, Note_off_c, 1, 52, 0
1, 571306, Note_off_c, 1, 62, 0
1, 571308, Note_on_c, 1, 64, 127
1, 571308, Note_on_c, 1, 50, 127
1, 571486, Note_off_c, 1, 64, 0
1, 571488, Note_on_c, 1, 65, 127
1, 571666, Note_off_c, 1, 50, 0
1, 571666, Note_off_c, 1, 65, 0
1, 571668, Note_on_c, 1, 64, 127
1, 571668, Note_on_c, 1, 48, 127
1, 571846, Note_off_c, 1, 64, 0
1, 571848, Note_on_c, 1, 62, 127
1, 572026, Note_off_c, 1, 48, 0
1, 572026, Note_off_c, 1, 62, 0
1, 572028, Note_on_c, 1, 60, 127
1, 572028, Note_on_c, 1, 47, 127
1, 572206, Note_off_c, 1, 60, 0
1, 572208, Note_on_c, 1, 62, 127
1, 572386, Note_off_c, 1, 47, 0
1, 572386, Note_off_c, 1, 62, 0
1, 572388, Note_on_c, 1, 64, 127
1, 572388, Note_on_c, 1, 48, 127
1, 572566, Note_off_c, 1, 64, 0
1, 572568, Note_on_c, 1, 62, 127
1, 572678, Note_off_c, 1, 48, 0
1, 572746, Note_off_c, 1, 62, 0
1, 572748, Note_on_c, 1, 45, 127
1, 572748, Note_on_c, 1, 60, 127
1, 572926, Note_off_c, 1, 45, 0
1, 572926, Note_off_c, 1, 60, 0
1, 572928, Note_on_c, 1, 47, 127
1, 572928, Note_on_c, 1, 59, 127
1, 573106, Note_off_c, 1, 47, 0
1, 573106, Note_off_c, 1, 59, 0
1, 573108, Note_on_c, 1, 48, 127
1, 573108, Note_on_c, 1, 57, 127
1, 573286, Note_off_c, 1, 48, 0
1, 573286, Note_off_c, 1, 57, 0
1, 573288, Note_on_c, 1, 50, 127
1, 573288, Note_on_c, 1, 59, 127
1, 573466, Note_off_c, 1, 50, 0
1, 573466, Note_off_c, 1, 59, 0
1, 573468, Note_on_c, 1, 52, 127
1, 573468, Note_on_c, 1, 60, 127
1, 573646, Note_off_c, 1, 52, 0
1, 573646, Note_off_c, 1, 60, 0
1, 573648, Note_on_c, 1, 53, 127
1, 573648, Note_on_c, 1, 62, 127
1, 573826, Note_off_c, 1, 53, 0
1, 573826, Note_off_c, 1, 62, 0
1, 573828, Note_on_c, 1, 64, 127
1, 573828, Note_on_c, 1, 55, 127
1, 574006, Note_off_c, 1, 64, 0
1, 574008, Note_on_c, 1, 65, 127
1, 574186, Note_off_c, 1, 55, 0
1, 574186, Note_off_c, 1, 65, 0
1, 574188, Note_on_c, 1, 67, 127
1, 574188, Note_on_c, 1, 53, 127
1, 574366, Note_off_c, 1, 67, 0
1, 574368, Note_on_c, 1, 69, 127
1, 574546, Note_off_c, 1, 53, 0
1, 574546, Note_off_c, 1, 69, 0
1, 574548, Note_on_c, 1, 67, 127
1, 574548, Note_on_c, 1, 52, 127
1, 574726, Note_off_c, 1, 67, 0
1, 574728, Note_on_c, 1, 65, 127
1, 574906, Note_off_c, 1, 52, 0
1, 574906, Note_off_c, 1, 65, 0
1, 574908, Note_on_c, 1, 64, 127
1, 574908, Note_on_c, 1, 50, 127
1, 575086, Note_off_c, 1, 64, 0
1, 575088, Note_on_c, 1, 65, 127
1, 575266, Note_off_c, 1, 50, 0
1, 575266, Note_off_c, 1, 65, 0
1, 575268, Note_on_c, 1, 67, 127
1, 575268, Note_on_c, 1, 52, 127
1, 575446, Note_off_c, 1, 67, 0
1, 575448, Note_on_c, 1, 65, 127
1, 575578, Note_off_c, 1, 52, 0
1, 575626, Note_off_c, 1, 65, 0
1, 575628, Note_on_c, 1, 48, 127
1, 575628, Note_on_c, 1, 64, 127
1, 575806, Note_off_c, 1, 48, 0
1, 575806, Note_off_c, 1, 64, 0
1, 575808, Note_on_c, 1, 50, 127
1, 575808, Note_on_c, 1, 62, 127
1, 575986, Note_off_c, 1, 50, 0
1, 575986, Note_off_c, 1, 62, 0
1, 575988, Note_on_c, 1, 52, 127
1, 575988, Note_on_c, 1, 60, 127
1, 576166, Note_off_c, 1, 52, 0
1, 576166, Note_off_c, 1, 60, 0
1, 576168, Note_on_c, 1, 54, 127
1, 576168, Note_on_c, 1, 62, 127
1, 576346, Note_off_c, 1, 54, 0
1, 576346, Note_off_c, 1, 62, 0
1, 576348, Note_on_c, 1, 55, 127
1, 576348, Note_on_c, 1, 64, 127
1, 576526, Note_off_c, 1, 55, 0
1, 576526, Note_off_c, 1, 64, 0
1, 576528, Note_on_c, 1, 57, 127
1, 576528, Note_on_c, 1, 66, 127
1, 576706, Note_off_c, 1, 57, 0
1, 576706, Note_off_c, 1, 66, 0
1, 576708, Note_on_c, 1, 67, 127
1, 576708, Note_on_c, 1, 59, 127
1, 576886, Note_off_c, 1, 67, 0
1, 576888, Note_on_c, 1, 69, 127
1, 577066, Note_off_c, 1, 59, 0
1, 577066, Note_off_c, 1, 69, 0
1, 577068, Note_on_c, 1, 71, 127
1, 577068, Note_on_c, 1, 57, 127
1, 577246, Note_off_c, 1, 71, 0
1, 577248, Note_on_c, 1, 72, 127
1, 577426, Note_off_c, 1, 57, 0
1, 577426, Note_off_c, 1, 72, 0
1, 577428, Note_on_c, 1, 71, 127
1, 577428, Note_on_c, 1, 55, 127
1, 577606, Note_off_c, 1, 71, 0
1, 577608, Note_on_c, 1, 69, 127
1, 577786, Note_off_c, 1, 55, 0
1, 577786, Note_off_c, 1, 69, 0
1, 577788, Note_on_c, 1, 67, 127
1, 577788, Note_on_c, 1, 54, 127
1, 577966, Note_off_c, 1, 67, 0
1, 577968, Note_on_c, 1, 69, 127
1, 578146, Note_off_c, 1, 54, 0
1, 578146, Note_off_c, 1, 69, 0
1, 578148, Note_on_c, 1, 71, 127
1, 578148, Note_on_c, 1, 55, 127
1, 578326, Note_off_c, 1, 71, 0
1, 578328, Note_on_c, 1, 69, 127
1, 578473, Note_off_c, 1, 55, 0
1, 578506, Note_off_c, 1, 69, 0
1, 578508, Note_on_c, 1, 67, 127
1, 578508, Note_on_c, 1, 52, 127
1, 578686, Note_off_c, 1, 67, 0
1, 578688, Note_on_c, 1, 66, 127
1, 578866, Note_off_c, 1, 52, 0
1, 578866, Note_off_c, 1, 66, 0
1, 578868, Note_on_c, 1, 64, 127
1, 578868, Note_on_c, 1, 60, 127
1, 579046, Note_off_c, 1, 64, 0
1, 579048, Note_on_c, 1, 63, 127
1, 579226, Note_off_c, 1, 60, 0
1, 579226, Note_off_c, 1, 63, 0
1, 579228, Note_on_c, 1, 64, 127
1, 579228, Note_on_c, 1, 57, 127
1, 579406, Note_off_c, 1, 64, 0
1, 579408, Note_on_c, 1, 66, 127
1, 579586, Note_off_c, 1, 66, 0
1, 579588, Note_on_c, 1, 59, 127
1, 579766, Note_off_c, 1, 57, 0
1, 579768, Note_on_c, 1, 55, 127
1, 579946, Note_off_c, 1, 59, 0
1, 579946, Note_off_c, 1, 55, 0
1, 579948, Note_on_c, 1, 54, 127
1, 579948, Note_on_c, 1, 67, 127
1, 580126, Note_off_c, 1, 54, 0
1, 580128, Note_on_c, 1, 52, 127
1, 580306, Note_off_c, 1, 52, 0
1, 580308, Note_on_c, 1, 59, 127
1, 580486, Note_off_c, 1, 67, 0
1, 580488, Note_on_c, 1, 66, 127
1, 580666, Note_off_c, 1, 59, 0
1, 580666, Note_off_c, 1, 66, 0
1, 580668, Note_on_c, 1, 64, 127
1, 580668, Note_on_c, 1, 47, 127
1, 580846, Note_off_c, 1, 64, 0
1, 580848, Note_on_c, 1, 63, 127
1, 581026, Note_off_c, 1, 47, 0
1, 581026, Note_off_c, 1, 63, 0
1, 581028, Note_on_c, 1, 52, 127
1, 581028, Note_on_c, 1, 64, 127
1, 581386, Note_off_c, 1, 52, 0
1, 581388, Note_on_c, 1, 47, 127
1, 581746, Note_off_c, 1, 47, 0
1, 581748, Note_on_c, 1, 40, 127
1, 582106, Note_off_c, 1, 64, 0
1, 582106, Note_off_c, 1, 40, 0
1, 582108, Note_on_c, 1, 52, 127
1, 582108, Note_on_c, 1, 64, 127
1, 582286, Note_off_c, 1, 52, 0
1, 582286, Note_off_c, 1, 64, 0
1, 582288, Note_on_c, 1, 53, 127
1, 582288, Note_on_c, 1, 62, 127
1, 582466, Note_off_c, 1, 53, 0
1, 582466, Note_off_c, 1, 62, 0
1, 582468, Note_on_c, 1, 55, 127
1, 582468, Note_on_c, 1, 61, 127
1, 582646, Note_off_c, 1, 55, 0
1, 582648, Note_on_c, 1, 53, 127
1, 582826, Note_off_c, 1, 61, 0
1, 582826, Note_off_c, 1, 53, 0
1, 582828, Note_on_c, 1, 52, 127
1, 582828, Note_on_c, 1, 59, 127
1, 583006, Note_off_c, 1, 52, 0
1, 583008, Note_on_c, 1, 53, 127
1, 583186, Note_off_c, 1, 59, 0
1, 583186, Note_off_c, 1, 53, 0
1, 583188, Note_on_c, 1, 55, 127
1, 583188, Note_on_c, 1, 61, 127
1, 583366, Note_off_c, 1, 55, 0
1, 583368, Note_on_c, 1, 53, 127
1, 583546, Note_off_c, 1, 61, 0
1, 583546, Note_off_c, 1, 53, 0
1, 583548, Note_on_c, 1, 52, 127
1, 583548, Note_on_c, 1, 62, 127
1, 583726, Note_off_c, 1, 52, 0
1, 583728, Note_on_c, 1, 53, 127
1, 583906, Note_off_c, 1, 62, 0
1, 583906, Note_off_c, 1, 53, 0
1, 583908, Note_on_c, 1, 55, 127
1, 583908, Note_on_c, 1, 64, 127
1, 584086, Note_off_c, 1, 55, 0
1, 584086, Note_off_c, 1, 64, 0
1, 584088, Note_on_c, 1, 53, 127
1, 584088, Note_on_c, 1, 67, 127
1, 584266, Note_off_c, 1, 53, 0
1, 584266, Note_off_c, 1, 67, 0
1, 584268, Note_on_c, 1, 52, 127
1, 584268, Note_on_c, 1, 70, 127
1, 584446, Note_off_c, 1, 52, 0
1, 584448, Note_on_c, 1, 53, 127
1, 584626, Note_off_c, 1, 53, 0
1, 584628, Note_on_c, 1, 55, 127
1, 584986, Note_off_c, 1, 70, 0
1, 584986, Note_off_c, 1, 55, 0
1, 584988, Note_on_c, 1, 69, 127
1, 584988, Note_on_c, 1, 49, 127
1, 585166, Note_off_c, 1, 69, 0
1, 585168, Note_on_c, 1, 67, 127
1, 585346, Note_off_c, 1, 49, 0
1, 585346, Note_off_c, 1, 67, 0
1, 585348, Note_on_c, 1, 65, 127
1, 585348, Note_on_c, 1, 50, 127
1, 585526, Note_off_c, 1, 65, 0
1, 585528, Note_on_c, 1, 64, 127
1, 585706, Note_off_c, 1, 50, 0
1, 585706, Note_off_c, 1, 64, 0
1, 585708, Note_on_c, 1, 65, 127
1, 585708, Note_on_c, 1, 46, 127
1, 585886, Note_off_c, 1, 65, 0
1, 585888, Note_on_c, 1, 74, 127
1, 586066, Note_off_c, 1, 46, 0
1, 586066, Note_off_c, 1, 74, 0
1, 586068, Note_on_c, 1, 73, 127
1, 586068, Note_on_c, 1, 43, 127
1, 586246, Note_off_c, 1, 73, 0
1, 586248, Note_on_c, 1, 71, 127
1, 586426, Note_off_c, 1, 43, 0
1, 586426, Note_off_c, 1, 71, 0
1, 586428, Note_on_c, 1, 69, 127
1, 586428, Note_on_c, 1, 45, 127
1, 586606, Note_off_c, 1, 69, 0
1, 586608, Note_on_c, 1, 67, 127
1, 586786, Note_off_c, 1, 45, 0
1, 586786, Note_off_c, 1, 67, 0
1, 586788, Note_on_c, 1, 65, 127
1, 586788, Note_on_c, 1, 38, 127
1, 586966, Note_off_c, 1, 65, 0
1, 586968, Note_on_c, 1, 67, 127
1, 587146, Note_off_c, 1, 67, 0
1, 587148, Note_on_c, 1, 69, 127
1, 587326, Note_off_c, 1, 69, 0
1, 587507, Note_off_c, 1, 38, 0
1, 587508, Note_on_c, 1, 65, 127
1, 587686, Note_off_c, 1, 65, 0
1, 587688, Note_on_c, 1, 64, 127
1, 587866, Note_off_c, 1, 64, 0
1, 587868, Note_on_c, 1, 50, 127
1, 587868, Note_on_c, 1, 62, 127
1, 588046, Note_off_c, 1, 50, 0
1, 588046, Note_off_c, 1, 62, 0
1, 588048, Note_on_c, 1, 52, 127
1, 588048, Note_on_c, 1, 60, 127
1, 588226, Note_off_c, 1, 52, 0
1, 588226, Note_off_c, 1, 60, 0
1, 588228, Note_on_c, 1, 53, 127
1, 588228, Note_on_c, 1, 59, 127
1, 588406, Note_off_c, 1, 53, 0
1, 588408, Note_on_c, 1, 52, 127
1, 588586, Note_off_c, 1, 59, 0
1, 588586, Note_off_c, 1, 52, 0
1, 588588, Note_on_c, 1, 50, 127
1, 588588, Note_on_c, 1, 59, 127
1, 588766, Note_off_c, 1, 50, 0
1, 588766, Note_off_c, 1, 59, 0
1, 588768, Note_on_c, 1, 52, 127
1, 588768, Note_on_c, 1, 57, 127
1, 588946, Note_off_c, 1, 52, 0
1, 588946, Note_off_c, 1, 57, 0
1, 588948, Note_on_c, 1, 53, 127
1, 588948, Note_on_c, 1, 59, 127
1, 589126, Note_off_c, 1, 53, 0
1, 589128, Note_on_c, 1, 52, 127
1, 589306, Note_off_c, 1, 59, 0
1, 589306, Note_off_c, 1, 52, 0
1, 589308, Note_on_c, 1, 50, 127
1, 589308, Note_on_c, 1, 59, 127
1, 589486, Note_off_c, 1, 50, 0
1, 589486, Note_off_c, 1, 59, 0
1, 589488, Note_on_c, 1, 52, 127
1, 589488, Note_on_c, 1, 60, 127
1, 589666, Note_off_c, 1, 52, 0
1, 589666, Note_off_c, 1, 60, 0
1, 589668, Note_on_c, 1, 53, 127
1, 589668, Note_on_c, 1, 62, 127
1, 589846, Note_off_c, 1, 53, 0
1, 589846, Note_off_c, 1, 62, 0
1, 589848, Note_on_c, 1, 52, 127
1, 589848, Note_on_c, 1, 65, 127
1, 590026, Note_off_c, 1, 52, 0
1, 590026, Note_off_c, 1, 65, 0
1, 590028, Note_on_c, 1, 50, 127
1, 590028, Note_on_c, 1, 69, 127
1, 590206, Note_off_c, 1, 50, 0
1, 590208, Note_on_c, 1, 52, 127
1, 590386, Note_off_c, 1, 52, 0
1, 590388, Note_on_c, 1, 53, 127
1, 590566, Note_off_c, 1, 53, 0
1, 590568, Note_on_c, 1, 55, 127
1, 590746, Note_off_c, 1, 69, 0
1, 590746, Note_off_c, 1, 55, 0
1, 590748, Note_on_c, 1, 57, 127
1, 590748, Note_on_c, 1, 67, 127
1, 590926, Note_off_c, 1, 57, 0
1, 590926, Note_off_c, 1, 67, 0
1, 590928, Note_on_c, 1, 59, 127
1, 590928, Note_on_c, 1, 65, 127
1, 591106, Note_off_c, 1, 59, 0
1, 591106, Note_off_c, 1, 65, 0
1, 591108, Note_on_c, 1, 64, 127
1, 591108, Note_on_c, 1, 60, 127
1, 591286, Note_off_c, 1, 64, 0
1, 591288, Note_on_c, 1, 62, 127
1, 591466, Note_off_c, 1, 60, 0
1, 591466, Note_off_c, 1, 62, 0
1, 591468, Note_on_c, 1, 64, 127
1, 591468, Note_on_c, 1, 57, 127
1, 591646, Note_off_c, 1, 64, 0
1, 591648, Note_on_c, 1, 72, 127
1, 591826, Note_off_c, 1, 57, 0
1, 591826, Note_off_c, 1, 72, 0
1, 591828, Note_on_c, 1, 71, 127
1, 591828, Note_on_c, 1, 53, 127
1, 592006, Note_off_c, 1, 71, 0
1, 592008, Note_on_c, 1, 69, 127
1, 592186, Note_off_c, 1, 53, 0
1, 592186, Note_off_c, 1, 69, 0
1, 592188, Note_on_c, 1, 67, 127
1, 592188, Note_on_c, 1, 55, 127
1, 592366, Note_off_c, 1, 67, 0
1, 592368, Note_on_c, 1, 65, 127
1, 592546, Note_off_c, 1, 55, 0
1, 592546, Note_off_c, 1, 65, 0
1, 592548, Note_on_c, 1, 64, 127
1, 592548, Note_on_c, 1, 48, 127
1, 592726, Note_off_c, 1, 64, 0
1, 592728, Note_on_c, 1, 65, 127
1, 592906, Note_off_c, 1, 65, 0
1, 592908, Note_on_c, 1, 67, 127
1, 593086, Note_off_c, 1, 67, 0
1, 593167, Note_off_c, 1, 48, 0
1, 593268, Note_on_c, 1, 64, 127
1, 593446, Note_off_c, 1, 64, 0
1, 593448, Note_on_c, 1, 53, 127
1, 593448, Note_on_c, 1, 62, 127
1, 593626, Note_off_c, 1, 53, 0
1, 593626, Note_off_c, 1, 62, 0
1, 593628, Note_on_c, 1, 52, 127
1, 593628, Note_on_c, 1, 60, 127
1, 593806, Note_off_c, 1, 52, 0
1, 593806, Note_off_c, 1, 60, 0
1, 593808, Note_on_c, 1, 50, 127
1, 593808, Note_on_c, 1, 59, 127
1, 593986, Note_off_c, 1, 50, 0
1, 593986, Note_off_c, 1, 59, 0
1, 593988, Note_on_c, 1, 48, 127
1, 593988, Note_on_c, 1, 57, 127
1, 594166, Note_off_c, 1, 48, 0
1, 594166, Note_off_c, 1, 57, 0
1, 594168, Note_on_c, 1, 47, 127
1, 594168, Note_on_c, 1, 67, 127
1, 594346, Note_off_c, 1, 47, 0
1, 594346, Note_off_c, 1, 67, 0
1, 594348, Note_on_c, 1, 65, 127
1, 594348, Note_on_c, 1, 48, 127
1, 594526, Note_off_c, 1, 65, 0
1, 594528, Note_on_c, 1, 64, 127
1, 594706, Note_off_c, 1, 64, 0
1, 594854, Note_off_c, 1, 48, 0
1, 594888, Note_on_c, 1, 52, 127
1, 595066, Note_off_c, 1, 52, 0
1, 595068, Note_on_c, 1, 50, 127
1, 595068, Note_on_c, 1, 57, 127
1, 595246, Note_off_c, 1, 50, 0
1, 595248, Note_on_c, 1, 48, 127
1, 595426, Note_off_c, 1, 57, 0
1, 595426, Note_off_c, 1, 48, 0
1, 595428, Note_on_c, 1, 47, 127
1, 595428, Note_on_c, 1, 56, 127
1, 595606, Note_off_c, 1, 47, 0
1, 595606, Note_off_c, 1, 56, 0
1, 595608, Note_on_c, 1, 45, 127
1, 595608, Note_on_c, 1, 54, 127
1, 595786, Note_off_c, 1, 45, 0
1, 595786, Note_off_c, 1, 54, 0
1, 595788, Note_on_c, 1, 56, 127
1, 595788, Note_on_c, 1, 47, 127
1, 595966, Note_off_c, 1, 56, 0
1, 595968, Note_on_c, 1, 65, 127
1, 596146, Note_off_c, 1, 65, 0
1, 596148, Note_on_c, 1, 64, 127
1, 596294, Note_off_c, 1, 47, 0
1, 596328, Note_on_c, 1, 50, 127
1, 596506, Note_off_c, 1, 64, 0
1, 596506, Note_off_c, 1, 50, 0
1, 596508, Note_on_c, 1, 48, 127
1, 596508, Note_on_c, 1, 55, 127
1, 596686, Note_off_c, 1, 48, 0
1, 596688, Note_on_c, 1, 47, 127
1, 596866, Note_off_c, 1, 55, 0
1, 596866, Note_off_c, 1, 47, 0
1, 596868, Note_on_c, 1, 45, 127
1, 596868, Note_on_c, 1, 54, 127
1, 597046, Note_off_c, 1, 45, 0
1, 597046, Note_off_c, 1, 54, 0
1, 597048, Note_on_c, 1, 44, 127
1, 597048, Note_on_c, 1, 52, 127
1, 597226, Note_off_c, 1, 44, 0
1, 597226, Note_off_c, 1, 52, 0
1, 597228, Note_on_c, 1, 53, 127
1, 597228, Note_on_c, 1, 45, 127
1, 597406, Note_off_c, 1, 53, 0
1, 597408, Note_on_c, 1, 64, 127
1, 597586, Note_off_c, 1, 64, 0
1, 597588, Note_on_c, 1, 62, 127
1, 597754, Note_off_c, 1, 45, 0
1, 597766, Note_off_c, 1, 62, 0
1, 597768, Note_on_c, 1, 47, 127
1, 597768, Note_on_c, 1, 60, 127
1, 597946, Note_off_c, 1, 47, 0
1, 597946, Note_off_c, 1, 60, 0
1, 597948, Note_on_c, 1, 48, 127
1, 597948, Note_on_c, 1, 59, 127
1, 598126, Note_off_c, 1, 48, 0
1, 598126, Note_off_c, 1, 59, 0
1, 598128, Note_on_c, 1, 50, 127
1, 598128, Note_on_c, 1, 57, 127
1, 598306, Note_off_c, 1, 50, 0
1, 598306, Note_off_c, 1, 57, 0
1, 598308, Note_on_c, 1, 52, 127
1, 598308, Note_on_c, 1, 69, 127
1, 598486, Note_off_c, 1, 52, 0
1, 598486, Note_off_c, 1, 69, 0
1, 598488, Note_on_c, 1, 51, 127
1, 598488, Note_on_c, 1, 68, 127
1, 598666, Note_off_c, 1, 51, 0
1, 598666, Note_off_c, 1, 68, 0
1, 598668, Note_on_c, 1, 66, 127
1, 598668, Note_on_c, 1, 52, 127
1, 598846, Note_off_c, 1, 66, 0
1, 598848, Note_on_c, 1, 64, 127
1, 599026, Note_off_c, 1, 64, 0
1, 599028, Note_on_c, 1, 71, 127
1, 599206, Note_off_c, 1, 52, 0
1, 599208, Note_on_c, 1, 50, 127
1, 599386, Note_off_c, 1, 71, 0
1, 599386, Note_off_c, 1, 50, 0
1, 599388, Note_on_c, 1, 48, 127
1, 599388, Note_on_c, 1, 64, 127
1, 599566, Note_off_c, 1, 48, 0
1, 599566, Note_off_c, 1, 64, 0
1, 599568, Note_on_c, 1, 47, 127
1, 599568, Note_on_c, 1, 62, 127
1, 599746, Note_off_c, 1, 47, 0
1, 599746, Note_off_c, 1, 62, 0
1, 599748, Note_on_c, 1, 45, 127
1, 599748, Note_on_c, 1, 64, 127
1, 599926, Note_off_c, 1, 45, 0
1, 599928, Note_on_c, 1, 44, 127
1, 600106, Note_off_c, 1, 64, 0
1, 600106, Note_off_c, 1, 44, 0
1, 600108, Note_on_c, 1, 42, 127
1, 600108, Note_on_c, 1, 74, 127
1, 600286, Note_off_c, 1, 42, 0
1, 600288, Note_on_c, 1, 44, 127
1, 600466, Note_off_c, 1, 74, 0
1, 600466, Note_off_c, 1, 44, 0
1, 600468, Note_on_c, 1, 45, 127
1, 600468, Note_on_c, 1, 72, 127
1, 600646, Note_off_c, 1, 45, 0
1, 600648, Note_on_c, 1, 44, 127
1, 600826, Note_off_c, 1, 72, 0
1, 600826, Note_off_c, 1, 44, 0
1, 600828, Note_on_c, 1, 42, 127
1, 600828, Note_on_c, 1, 71, 127
1, 601006, Note_off_c, 1, 42, 0
1, 601008, Note_on_c, 1, 44, 127
1, 601186, Note_off_c, 1, 71, 0
1, 601186, Note_off_c, 1, 44, 0
1, 601188, Note_on_c, 1, 45, 127
1, 601188, Note_on_c, 1, 72, 127
1, 601366, Note_off_c, 1, 45, 0
1, 601368, Note_on_c, 1, 47, 127
1, 601546, Note_off_c, 1, 72, 0
1, 601546, Note_off_c, 1, 47, 0
1, 601548, Note_on_c, 1, 48, 127
1, 601548, Note_on_c, 1, 64, 127
1, 601726, Note_off_c, 1, 48, 0
1, 601728, Note_on_c, 1, 50, 127
1, 601906, Note_off_c, 1, 50, 0
1, 601908, Note_on_c, 1, 52, 127
1, 602086, Note_off_c, 1, 52, 0
1, 602088, Note_on_c, 1, 54, 127
1, 602167, Note_off_c, 1, 64, 0
1, 602266, Note_off_c, 1, 54, 0
1, 602268, Note_on_c, 1, 56, 127
1, 602268, Note_on_c, 1, 62, 127
1, 602446, Note_off_c, 1, 56, 0
1, 602446, Note_off_c, 1, 62, 0
1, 602448, Note_on_c, 1, 57, 127
1, 602448, Note_on_c, 1, 60, 127
1, 602626, Note_off_c, 1, 57, 0
1, 602626, Note_off_c, 1, 60, 0
1, 602628, Note_on_c, 1, 56, 127
1, 602628, Note_on_c, 1, 62, 127
1, 602806, Note_off_c, 1, 56, 0
1, 602808, Note_on_c, 1, 57, 127
1, 602986, Note_off_c, 1, 62, 0
1, 602986, Note_off_c, 1, 57, 0
1, 602988, Note_on_c, 1, 59, 127
1, 602988, Note_on_c, 1, 72, 127
1, 603166, Note_off_c, 1, 59, 0
1, 603168, Note_on_c, 1, 57, 127
1, 603346, Note_off_c, 1, 72, 0
1, 603346, Note_off_c, 1, 57, 0
1, 603348, Note_on_c, 1, 56, 127
1, 603348, Note_on_c, 1, 71, 127
1, 603526, Note_off_c, 1, 56, 0
1, 603526, Note_off_c, 1, 71, 0
1, 603528, Note_on_c, 1, 57, 127
1, 603528, Note_on_c, 1, 69, 127
1, 603706, Note_off_c, 1, 57, 0
1, 603706, Note_off_c, 1, 69, 0
1, 603708, Note_on_c, 1, 59, 127
1, 603708, Note_on_c, 1, 68, 127
1, 603886, Note_off_c, 1, 59, 0
1, 603886, Note_off_c, 1, 68, 0
1, 603888, Note_on_c, 1, 57, 127
1, 603888, Note_on_c, 1, 69, 127
1, 604066, Note_off_c, 1, 57, 0
1, 604066, Note_off_c, 1, 69, 0
1, 604068, Note_on_c, 1, 56, 127
1, 604068, Note_on_c, 1, 71, 127
1, 604246, Note_off_c, 1, 56, 0
1, 604248, Note_on_c, 1, 54, 127
1, 604388, Note_off_c, 1, 71, 0
1, 604426, Note_off_c, 1, 54, 0
1, 604428, Note_on_c, 1, 52, 127
1, 604428, Note_on_c, 1, 62, 127
1, 604606, Note_off_c, 1, 52, 0
1, 604608, Note_on_c, 1, 50, 127
1, 604786, Note_off_c, 1, 50, 0
1, 604788, Note_on_c, 1, 48, 127
1, 604966, Note_off_c, 1, 48, 0
1, 604968, Note_on_c, 1, 47, 127
1, 605047, Note_off_c, 1, 62, 0
1, 605146, Note_off_c, 1, 47, 0
1, 605148, Note_on_c, 1, 45, 127
1, 605148, Note_on_c, 1, 60, 127
1, 605326, Note_off_c, 1, 45, 0
1, 605326, Note_off_c, 1, 60, 0
1, 605328, Note_on_c, 1, 44, 127
1, 605328, Note_on_c, 1, 59, 127
1, 605508, Note_off_c, 1, 44, 0
1, 605508, Note_off_c, 1, 59, 0
1, 605510, Note_on_c, 1, 60, 127
1, 605510, Note_on_c, 1, 45, 127
1, 605690, Note_off_c, 1, 60, 0
1, 605692, Note_on_c, 1, 69, 127
1, 605872, Note_off_c, 1, 45, 0
1, 605872, Note_off_c, 1, 69, 0
1, 605874, Note_on_c, 1, 67, 127
1, 605874, Note_on_c, 1, 48, 127
1, 606054, Note_off_c, 1, 67, 0
1, 606056, Note_on_c, 1, 64, 127
1, 606236, Note_off_c, 1, 48, 0
1, 606236, Note_off_c, 1, 64, 0
1, 606238, Note_on_c, 1, 65, 127
1, 606238, Note_on_c, 1, 47, 127
1, 606418, Note_off_c, 1, 65, 0
1, 606420, Note_on_c, 1, 64, 127
1, 606600, Note_off_c, 1, 47, 0
1, 606600, Note_off_c, 1, 64, 0
1, 606602, Note_on_c, 1, 62, 127
1, 606602, Note_on_c, 1, 45, 127
1, 606782, Note_off_c, 1, 62, 0
1, 606784, Note_on_c, 1, 60, 127
1, 606965, Note_off_c, 1, 45, 0
1, 606965, Note_off_c, 1, 60, 0
1, 606967, Note_on_c, 1, 59, 127
1, 606967, Note_on_c, 1, 44, 127
1, 607148, Note_off_c, 1, 59, 0
1, 607150, Note_on_c, 1, 65, 127
1, 607331, Note_off_c, 1, 44, 0
1, 607331, Note_off_c, 1, 65, 0
1, 607333, Note_on_c, 1, 64, 127
1, 607333, Note_on_c, 1, 45, 127
1, 607514, Note_off_c, 1, 64, 0
1, 607516, Note_on_c, 1, 60, 127
1, 607697, Note_off_c, 1, 45, 0
1, 607697, Note_off_c, 1, 60, 0
1, 607699, Note_on_c, 1, 62, 127
1, 607699, Note_on_c, 1, 41, 127
1, 607880, Note_off_c, 1, 62, 0
1, 607882, Note_on_c, 1, 60, 127
1, 608063, Note_off_c, 1, 41, 0
1, 608063, Note_off_c, 1, 60, 0
1, 608065, Note_on_c, 1, 59, 127
1, 608065, Note_on_c, 1, 38, 127
1, 608246, Note_off_c, 1, 59, 0
1, 608248, Note_on_c, 1, 57, 127
1, 608432, Note_off_c, 1, 38, 0
1, 608432, Note_off_c, 1, 57, 0
1, 608434, Note_on_c, 1, 56, 127
1, 608434, Note_on_c, 1, 40, 127
1, 608618, Note_off_c, 1, 56, 0
1, 608620, Note_on_c, 1, 62, 127
1, 608804, Note_off_c, 1, 40, 0
1, 608804, Note_off_c, 1, 62, 0
1, 608806, Note_on_c, 1, 60, 127
1, 608806, Note_on_c, 1, 45, 127
1, 608990, Note_off_c, 1, 60, 0
1, 608992, Note_on_c, 1, 57, 127
1, 609179, Note_off_c, 1, 45, 0
1, 609179, Note_off_c, 1, 57, 0
1, 609181, Note_on_c, 1, 60, 127
1, 609181, Note_on_c, 1, 52, 127
1, 609368, Note_off_c, 1, 60, 0
1, 609370, Note_on_c, 1, 59, 127
1, 609557, Note_off_c, 1, 52, 0
1, 609557, Note_off_c, 1, 59, 0
1, 609559, Note_on_c, 1, 57, 127
1, 609559, Note_on_c, 1, 40, 127
1, 609746, Note_off_c, 1, 57, 0
1, 609748, Note_on_c, 1, 56, 127
1, 609965, Note_off_c, 1, 40, 0
1, 609965, Note_off_c, 1, 56, 0
1, 609967, Note_on_c, 1, 33, 127
1, 609967, Note_on_c, 1, 57, 127
1, 610461, Note_on_c, 1, 40, 127
1, 610941, Note_off_c, 1, 40, 0
1, 610966, Note_on_c, 1, 45, 127
1, 612967, Note_off_c, 1, 33, 0
1, 612967, Note_off_c, 1, 57, 0
1, 612977, Note_off_c, 1, 45, 0
1, 614491, Note_on_c, 1, 76, 127
1, 614750, Note_off_c, 1, 76, 0
1, 614848, Note_on_c, 1, 81, 127
1, 615194, Note_off_c, 1, 81, 0
1, 615205, Note_on_c, 1, 80, 127
1, 615372, Note_off_c, 1, 80, 0
1, 615383, Note_on_c, 1, 78, 127
1, 615550, Note_off_c, 1, 78, 0
1, 615561, Note_on_c, 1, 76, 127
1, 615561, Note_on_c, 1, 64, 127
1, 615728, Note_off_c, 1, 76, 0
1, 615740, Note_on_c, 1, 74, 127
1, 615868, Note_off_c, 1, 64, 0
1, 615907, Note_off_c, 1, 74, 0
1, 615918, Note_on_c, 1, 73, 127
1, 615918, Note_on_c, 1, 69, 127
1, 616085, Note_off_c, 1, 73, 0
1, 616096, Note_on_c, 1, 74, 127
1, 616254, Note_off_c, 1, 74, 0
1, 616263, Note_off_c, 1, 69, 0
1, 616274, Note_on_c, 1, 76, 127
1, 616274, Note_on_c, 1, 68, 127
1, 616352, Note_off_c, 1, 76, 0
1, 616364, Note_on_c, 1, 74, 127
1, 616442, Note_off_c, 1, 68, 0
1, 616442, Note_off_c, 1, 74, 0
1, 616453, Note_on_c, 1, 76, 127
1, 616453, Note_on_c, 1, 66, 127
1, 616531, Note_off_c, 1, 76, 0
1, 616543, Note_on_c, 1, 74, 127
1, 616621, Note_off_c, 1, 66, 0
1, 616621, Note_off_c, 1, 74, 0
1, 616633, Note_on_c, 1, 76, 127
1, 616633, Note_on_c, 1, 64, 127
1, 616711, Note_off_c, 1, 76, 0
1, 616722, Note_on_c, 1, 74, 127
1, 616800, Note_off_c, 1, 74, 0
1, 616801, Note_off_c, 1, 64, 0
1, 616812, Note_on_c, 1, 73, 127
1, 616812, Note_on_c, 1, 62, 127
1, 616890, Note_off_c, 1, 73, 0
1, 616901, Note_on_c, 1, 74, 127
1, 616979, Note_off_c, 1, 74, 0
1, 616980, Note_off_c, 1, 62, 0
1, 616990, Note_on_c, 1, 61, 127
1, 616990, Note_on_c, 1, 76, 127
1, 617157, Note_off_c, 1, 61, 0
1, 617169, Note_on_c, 1, 62, 127
1, 617327, Note_off_c, 1, 62, 0
1, 617335, Note_off_c, 1, 76, 0
1, 617347, Note_on_c, 1, 64, 127
1, 617347, Note_on_c, 1, 74, 127
1, 617425, Note_off_c, 1, 64, 0
1, 617437, Note_on_c, 1, 62, 127
1, 617515, Note_off_c, 1, 74, 0
1, 617515, Note_off_c, 1, 62, 0
1, 617527, Note_on_c, 1, 64, 127
1, 617527, Note_on_c, 1, 73, 127
1, 617605, Note_off_c, 1, 64, 0
1, 617616, Note_on_c, 1, 62, 127
1, 617694, Note_off_c, 1, 62, 0
1, 617695, Note_off_c, 1, 73, 0
1, 617705, Note_on_c, 1, 64, 127
1, 617705, Note_on_c, 1, 71, 127
1, 617783, Note_off_c, 1, 64, 0
1, 617795, Note_on_c, 1, 62, 127
1, 617873, Note_off_c, 1, 71, 0
1, 617873, Note_off_c, 1, 62, 0
1, 617884, Note_on_c, 1, 61, 127
1, 617884, Note_on_c, 1, 69, 127
1, 617962, Note_off_c, 1, 61, 0
1, 617974, Note_on_c, 1, 62, 127
1, 618052, Note_off_c, 1, 69, 0
1, 618052, Note_off_c, 1, 62, 0
1, 618064, Note_on_c, 1, 68, 127
1, 618064, Note_on_c, 1, 64, 127
1, 618231, Note_off_c, 1, 68, 0
1, 618242, Note_on_c, 1, 69, 127
1, 618400, Note_off_c, 1, 69, 0
1, 618409, Note_off_c, 1, 64, 0
1, 618420, Note_on_c, 1, 71, 127
1, 618420, Note_on_c, 1, 62, 127
1, 618498, Note_off_c, 1, 71, 0
1, 618509, Note_on_c, 1, 69, 127
1, 618587, Note_off_c, 1, 69, 0
1, 618588, Note_off_c, 1, 62, 0
1, 618599, Note_on_c, 1, 71, 127
1, 618599, Note_on_c, 1, 61, 127
1, 618677, Note_off_c, 1, 71, 0
1, 618688, Note_on_c, 1, 69, 127
1, 618766, Note_off_c, 1, 69, 0
1, 618767, Note_off_c, 1, 61, 0
1, 618778, Note_on_c, 1, 71, 127
1, 618778, Note_on_c, 1, 59, 127
1, 618856, Note_off_c, 1, 71, 0
1, 618868, Note_on_c, 1, 69, 127
1, 618946, Note_off_c, 1, 59, 0
1, 618946, Note_off_c, 1, 69, 0
1, 618957, Note_on_c, 1, 68, 127
1, 618957, Note_on_c, 1, 57, 127
1, 619035, Note_off_c, 1, 68, 0
1, 619047, Note_on_c, 1, 69, 127
1, 619125, Note_off_c, 1, 57, 0
1, 619125, Note_off_c, 1, 69, 0
1, 619137, Note_on_c, 1, 71, 127
1, 619137, Note_on_c, 1, 56, 127
1, 619313, Note_off_c, 1, 71, 0
1, 619313, Note_off_c, 1, 56, 0
1, 619324, Note_on_c, 1, 73, 127
1, 619324, Note_on_c, 1, 57, 127
1, 619483, Note_off_c, 1, 73, 0
1, 619483, Note_off_c, 1, 57, 0
1, 619494, Note_on_c, 1, 74, 127
1, 619494, Note_on_c, 1, 59, 127
1, 619572, Note_off_c, 1, 74, 0
1, 619572, Note_off_c, 1, 59, 0
1, 619583, Note_on_c, 1, 73, 127
1, 619583, Note_on_c, 1, 57, 127
1, 619661, Note_off_c, 1, 73, 0
1, 619661, Note_off_c, 1, 57, 0
1, 619673, Note_on_c, 1, 74, 127
1, 619673, Note_on_c, 1, 59, 127
1, 619751, Note_off_c, 1, 74, 0
1, 619751, Note_off_c, 1, 59, 0
1, 619763, Note_on_c, 1, 73, 127
1, 619763, Note_on_c, 1, 57, 127
1, 619841, Note_off_c, 1, 73, 0
1, 619841, Note_off_c, 1, 57, 0
1, 619852, Note_on_c, 1, 74, 127
1, 619852, Note_on_c, 1, 59, 127
1, 619930, Note_off_c, 1, 74, 0
1, 619930, Note_off_c, 1, 59, 0
1, 619942, Note_on_c, 1, 73, 127
1, 619942, Note_on_c, 1, 57, 127
1, 620020, Note_off_c, 1, 73, 0
1, 620020, Note_off_c, 1, 57, 0
1, 620031, Note_on_c, 1, 71, 127
1, 620031, Note_on_c, 1, 56, 127
1, 620109, Note_off_c, 1, 71, 0
1, 620109, Note_off_c, 1, 56, 0
1, 620120, Note_on_c, 1, 73, 127
1, 620120, Note_on_c, 1, 57, 127
1, 620198, Note_off_c, 1, 73, 0
1, 620198, Note_off_c, 1, 57, 0
1, 620210, Note_on_c, 1, 59, 127
1, 620210, Note_on_c, 1, 74, 127
1, 620377, Note_off_c, 1, 59, 0
1, 620388, Note_on_c, 1, 57, 127
1, 620555, Note_off_c, 1, 57, 0
1, 620567, Note_on_c, 1, 56, 127
1, 620734, Note_off_c, 1, 74, 0
1, 620734, Note_off_c, 1, 56, 0
1, 620745, Note_on_c, 1, 76, 127
1, 620745, Note_on_c, 1, 52, 127
1, 620912, Note_off_c, 1, 76, 0
1, 620912, Note_off_c, 1, 52, 0
1, 620923, Note_on_c, 1, 74, 127
1, 620923, Note_on_c, 1, 57, 127
1, 621090, Note_off_c, 1, 74, 0
1, 621090, Note_off_c, 1, 57, 0
1, 621101, Note_on_c, 1, 56, 127
1, 621101, Note_on_c, 1, 73, 127
1, 621268, Note_off_c, 1, 56, 0
1, 621280, Note_on_c, 1, 54, 127
1, 621445, Note_off_c, 1, 73, 0
1, 621447, Note_off_c, 1, 54, 0
1, 621458, Note_on_c, 1, 74, 127
1, 621458, Note_on_c, 1, 50, 127
1, 621625, Note_off_c, 1, 74, 0
1, 621625, Note_off_c, 1, 50, 0
1, 621635, Note_on_c, 1, 73, 127
1, 621635, Note_on_c, 1, 52, 127
1, 621812, Note_off_c, 1, 73, 0
1, 621822, Note_on_c, 1, 71, 127
1, 621880, Note_off_c, 1, 71, 0
1, 621980, Note_off_c, 1, 52, 0
1, 621992, Note_on_c, 1, 40, 127
1, 622159, Note_off_c, 1, 40, 0
1, 622171, Note_on_c, 1, 76, 127
1, 622338, Note_off_c, 1, 76, 0
1, 622348, Note_on_c, 1, 73, 127
1, 622348, Note_on_c, 1, 57, 127
1, 622515, Note_off_c, 1, 73, 0
1, 622526, Note_on_c, 1, 71, 127
1, 622693, Note_off_c, 1, 57, 0
1, 622693, Note_off_c, 1, 71, 0
1, 622705, Note_on_c, 1, 69, 127
1, 622705, Note_on_c, 1, 56, 127
1, 622872, Note_off_c, 1, 69, 0
1, 622872, Note_off_c, 1, 56, 0
1, 622883, Note_on_c, 1, 71, 127
1, 622883, Note_on_c, 1, 54, 127
1, 623050, Note_off_c, 1, 71, 0
1, 623050, Note_off_c, 1, 54, 0
1, 623061, Note_on_c, 1, 73, 127
1, 623061, Note_on_c, 1, 52, 127
1, 623228, Note_off_c, 1, 73, 0
1, 623228, Note_off_c, 1, 52, 0
1, 623239, Note_on_c, 1, 74, 127
1, 623239, Note_on_c, 1, 50, 127
1, 623406, Note_off_c, 1, 74, 0
1, 623406, Note_off_c, 1, 50, 0
1, 623418, Note_on_c, 1, 76, 127
1, 623418, Note_on_c, 1, 49, 127
1, 623585, Note_off_c, 1, 76, 0
1, 623585, Note_off_c, 1, 49, 0
1, 623596, Note_on_c, 1, 74, 127
1, 623596, Note_on_c, 1, 50, 127
1, 623763, Note_off_c, 1, 74, 0
1, 623763, Note_off_c, 1, 50, 0
1, 623774, Note_on_c, 1, 52, 127
1, 623774, Note_on_c, 1, 73, 127
1, 623852, Note_off_c, 1, 52, 0
1, 623863, Note_on_c, 1, 50, 127
1, 623941, Note_off_c, 1, 50, 0
1, 623942, Note_off_c, 1, 73, 0
1, 623953, Note_on_c, 1, 52, 127
1, 623953, Note_on_c, 1, 74, 127
1, 624031, Note_off_c, 1, 52, 0
1, 624042, Note_on_c, 1, 50, 127
1, 624120, Note_off_c, 1, 50, 0
1, 624121, Note_off_c, 1, 74, 0
1, 624132, Note_on_c, 1, 52, 127
1, 624132, Note_on_c, 1, 76, 127
1, 624210, Note_off_c, 1, 52, 0
1, 624222, Note_on_c, 1, 50, 127
1, 624300, Note_off_c, 1, 76, 0
1, 624300, Note_off_c, 1, 50, 0
1, 624311, Note_on_c, 1, 49, 127
1, 624311, Note_on_c, 1, 78, 127
1, 624389, Note_off_c, 1, 49, 0
1, 624401, Note_on_c, 1, 50, 127
1, 624479, Note_off_c, 1, 78, 0
1, 624479, Note_off_c, 1, 50, 0
1, 624491, Note_on_c, 1, 79, 127
1, 624491, Note_on_c, 1, 52, 127
1, 624658, Note_off_c, 1, 79, 0
1, 624658, Note_off_c, 1, 52, 0
1, 624668, Note_on_c, 1, 78, 127
1, 624668, Note_on_c, 1, 45, 127
1, 624835, Note_off_c, 1, 78, 0
1, 624835, Note_off_c, 1, 45, 0
1, 624847, Note_on_c, 1, 76, 127
1, 624847, Note_on_c, 1, 57, 127
1, 625014, Note_off_c, 1, 76, 0
1, 625014, Note_off_c, 1, 57, 0
1, 625025, Note_on_c, 1, 78, 127
1, 625025, Note_on_c, 1, 55, 127
1, 625192, Note_off_c, 1, 78, 0
1, 625192, Note_off_c, 1, 55, 0
1, 625203, Note_on_c, 1, 79, 127
1, 625203, Note_on_c, 1, 54, 127
1, 625370, Note_off_c, 1, 79, 0
1, 625370, Note_off_c, 1, 54, 0
1, 625381, Note_on_c, 1, 81, 127
1, 625381, Note_on_c, 1, 52, 127
1, 625540, Note_off_c, 1, 81, 0
1, 625540, Note_off_c, 1, 52, 0
1, 625559, Note_on_c, 1, 78, 127
1, 625559, Note_on_c, 1, 50, 127
1, 625726, Note_off_c, 1, 78, 0
1, 625726, Note_off_c, 1, 50, 0
1, 625738, Note_on_c, 1, 76, 127
1, 625738, Note_on_c, 1, 52, 127
1, 625905, Note_off_c, 1, 76, 0
1, 625905, Note_off_c, 1, 52, 0
1, 625916, Note_on_c, 1, 54, 127
1, 625916, Note_on_c, 1, 74, 127
1, 625994, Note_off_c, 1, 54, 0
1, 626006, Note_on_c, 1, 52, 127
1, 626084, Note_off_c, 1, 74, 0
1, 626084, Note_off_c, 1, 52, 0
1, 626095, Note_on_c, 1, 54, 127
1, 626095, Note_on_c, 1, 76, 127
1, 626173, Note_off_c, 1, 54, 0
1, 626184, Note_on_c, 1, 52, 127
1, 626262, Note_off_c, 1, 52, 0
1, 626263, Note_off_c, 1, 76, 0
1, 626274, Note_on_c, 1, 54, 127
1, 626274, Note_on_c, 1, 78, 127
1, 626352, Note_off_c, 1, 54, 0
1, 626364, Note_on_c, 1, 52, 127
1, 626442, Note_off_c, 1, 78, 0
1, 626442, Note_off_c, 1, 52, 0
1, 626453, Note_on_c, 1, 50, 127
1, 626453, Note_on_c, 1, 80, 127
1, 626531, Note_off_c, 1, 50, 0
1, 626543, Note_on_c, 1, 52, 127
1, 626621, Note_off_c, 1, 80, 0
1, 626621, Note_off_c, 1, 52, 0
1, 626633, Note_on_c, 1, 81, 127
1, 626633, Note_on_c, 1, 54, 127
1, 626800, Note_off_c, 1, 81, 0
1, 626800, Note_off_c, 1, 54, 0
1, 626811, Note_on_c, 1, 80, 127
1, 626811, Note_on_c, 1, 47, 127
1, 626978, Note_off_c, 1, 80, 0
1, 626978, Note_off_c, 1, 47, 0
1, 626988, Note_on_c, 1, 78, 127
1, 626988, Note_on_c, 1, 59, 127
1, 627155, Note_off_c, 1, 78, 0
1, 627155, Note_off_c, 1, 59, 0
1, 627167, Note_on_c, 1, 80, 127
1, 627167, Note_on_c, 1, 57, 127
1, 627334, Note_off_c, 1, 80, 0
1, 627334, Note_off_c, 1, 57, 0
1, 627345, Note_on_c, 1, 81, 127
1, 627345, Note_on_c, 1, 56, 127
1, 627512, Note_off_c, 1, 81, 0
1, 627512, Note_off_c, 1, 56, 0
1, 627524, Note_on_c, 1, 83, 127
1, 627524, Note_on_c, 1, 54, 127
1, 627683, Note_off_c, 1, 83, 0
1, 627683, Note_off_c, 1, 54, 0
1, 627701, Note_on_c, 1, 80, 127
1, 627701, Note_on_c, 1, 52, 127
1, 627868, Note_off_c, 1, 80, 0
1, 627868, Note_off_c, 1, 52, 0
1, 627879, Note_on_c, 1, 78, 127
1, 627879, Note_on_c, 1, 54, 127
1, 628046, Note_off_c, 1, 78, 0
1, 628046, Note_off_c, 1, 54, 0
1, 628058, Note_on_c, 1, 56, 127
1, 628058, Note_on_c, 1, 76, 127
1, 628136, Note_off_c, 1, 56, 0
1, 628148, Note_on_c, 1, 54, 127
1, 628226, Note_off_c, 1, 76, 0
1, 628226, Note_off_c, 1, 54, 0
1, 628237, Note_on_c, 1, 56, 127
1, 628237, Note_on_c, 1, 78, 127
1, 628315, Note_off_c, 1, 56, 0
1, 628327, Note_on_c, 1, 54, 127
1, 628405, Note_off_c, 1, 78, 0
1, 628405, Note_off_c, 1, 54, 0
1, 628416, Note_on_c, 1, 56, 127
1, 628416, Note_on_c, 1, 80, 127
1, 628494, Note_off_c, 1, 56, 0
1, 628505, Note_on_c, 1, 54, 127
1, 628583, Note_off_c, 1, 54, 0
1, 628584, Note_off_c, 1, 80, 0
1, 628595, Note_on_c, 1, 52, 127
1, 628595, Note_on_c, 1, 81, 127
1, 628673, Note_off_c, 1, 52, 0
1, 628685, Note_on_c, 1, 54, 127
1, 628763, Note_off_c, 1, 81, 0
1, 628763, Note_off_c, 1, 54, 0
1, 628774, Note_on_c, 1, 83, 127
1, 628774, Note_on_c, 1, 56, 127
1, 628941, Note_off_c, 1, 83, 0
1, 628941, Note_off_c, 1, 56, 0
1, 628953, Note_on_c, 1, 81, 127
1, 628953, Note_on_c, 1, 54, 127
1, 629120, Note_off_c, 1, 81, 0
1, 629120, Note_off_c, 1, 54, 0
1, 629131, Note_on_c, 1, 80, 127
1, 629131, Note_on_c, 1, 52, 127
1, 629298, Note_off_c, 1, 80, 0
1, 629298, Note_off_c, 1, 52, 0
1, 629309, Note_on_c, 1, 78, 127
1, 629309, Note_on_c, 1, 54, 127
1, 629476, Note_off_c, 1, 78, 0
1, 629476, Note_off_c, 1, 54, 0
1, 629487, Note_on_c, 1, 76, 127
1, 629487, Note_on_c, 1, 56, 127
1, 629654, Note_off_c, 1, 76, 0
1, 629654, Note_off_c, 1, 56, 0
1, 629665, Note_on_c, 1, 74, 127
1, 629665, Note_on_c, 1, 52, 127
1, 629827, Note_off_c, 1, 74, 0
1, 629827, Note_off_c, 1, 52, 0
1, 629844, Note_on_c, 1, 73, 127
1, 629844, Note_on_c, 1, 57, 127
1, 630011, Note_off_c, 1, 73, 0
1, 630011, Note_off_c, 1, 57, 0
1, 630021, Note_on_c, 1, 75, 127
1, 630021, Note_on_c, 1, 59, 127
1, 630188, Note_off_c, 1, 75, 0
1, 630188, Note_off_c, 1, 59, 0
1, 630200, Note_on_c, 1, 76, 127
1, 630200, Note_on_c, 1, 61, 127
1, 630367, Note_off_c, 1, 76, 0
1, 630367, Note_off_c, 1, 61, 0
1, 630378, Note_on_c, 1, 78, 127
1, 630378, Note_on_c, 1, 59, 127
1, 630545, Note_off_c, 1, 78, 0
1, 630545, Note_off_c, 1, 59, 0
1, 630556, Note_on_c, 1, 80, 127
1, 630556, Note_on_c, 1, 57, 127
1, 630723, Note_off_c, 1, 80, 0
1, 630723, Note_off_c, 1, 57, 0
1, 630734, Note_on_c, 1, 76, 127
1, 630734, Note_on_c, 1, 56, 127
1, 630901, Note_off_c, 1, 76, 0
1, 630901, Note_off_c, 1, 56, 0
1, 630912, Note_on_c, 1, 81, 127
1, 630912, Note_on_c, 1, 54, 127
1, 631079, Note_off_c, 1, 81, 0
1, 631079, Note_off_c, 1, 54, 0
1, 631091, Note_on_c, 1, 80, 127
1, 631091, Note_on_c, 1, 56, 127
1, 631258, Note_off_c, 1, 80, 0
1, 631258, Note_off_c, 1, 56, 0
1, 631269, Note_on_c, 1, 78, 127
1, 631269, Note_on_c, 1, 57, 127
1, 631436, Note_off_c, 1, 78, 0
1, 631436, Note_off_c, 1, 57, 0
1, 631448, Note_on_c, 1, 76, 127
1, 631448, Note_on_c, 1, 56, 127
1, 631615, Note_off_c, 1, 76, 0
1, 631615, Note_off_c, 1, 56, 0
1, 631625, Note_on_c, 1, 75, 127
1, 631625, Note_on_c, 1, 57, 127
1, 631792, Note_off_c, 1, 75, 0
1, 631792, Note_off_c, 1, 57, 0
1, 631803, Note_on_c, 1, 73, 127
1, 631803, Note_on_c, 1, 54, 127
1, 631965, Note_off_c, 1, 73, 0
1, 631965, Note_off_c, 1, 54, 0
1, 631982, Note_on_c, 1, 71, 127
1, 631982, Note_on_c, 1, 56, 127
1, 632149, Note_off_c, 1, 71, 0
1, 632149, Note_off_c, 1, 56, 0
1, 632160, Note_on_c, 1, 73, 127
1, 632160, Note_on_c, 1, 57, 127
1, 632327, Note_off_c, 1, 73, 0
1, 632327, Note_off_c, 1, 57, 0
1, 632338, Note_on_c, 1, 75, 127
1, 632338, Note_on_c, 1, 59, 127
1, 632505, Note_off_c, 1, 75, 0
1, 632505, Note_off_c, 1, 59, 0
1, 632516, Note_on_c, 1, 76, 127
1, 632516, Note_on_c, 1, 57, 127
1, 632683, Note_off_c, 1, 76, 0
1, 632683, Note_off_c, 1, 57, 0
1, 632694, Note_on_c, 1, 78, 127
1, 632694, Note_on_c, 1, 56, 127
1, 632861, Note_off_c, 1, 78, 0
1, 632861, Note_off_c, 1, 56, 0
1, 632873, Note_on_c, 1, 75, 127
1, 632873, Note_on_c, 1, 54, 127
1, 633040, Note_off_c, 1, 75, 0
1, 633040, Note_off_c, 1, 54, 0
1, 633050, Note_on_c, 1, 80, 127
1, 633050, Note_on_c, 1, 52, 127
1, 633217, Note_off_c, 1, 80, 0
1, 633217, Note_off_c, 1, 52, 0
1, 633229, Note_on_c, 1, 78, 127
1, 633229, Note_on_c, 1, 54, 127
1, 633396, Note_off_c, 1, 78, 0
1, 633396, Note_off_c, 1, 54, 0
1, 633407, Note_on_c, 1, 76, 127
1, 633407, Note_on_c, 1, 56, 127
1, 633574, Note_off_c, 1, 76, 0
1, 633574, Note_off_c, 1, 56, 0
1, 633586, Note_on_c, 1, 75, 127
1, 633586, Note_on_c, 1, 54, 127
1, 633753, Note_off_c, 1, 75, 0
1, 633753, Note_off_c, 1, 54, 0
1, 633763, Note_on_c, 1, 73, 127
1, 633763, Note_on_c, 1, 56, 127
1, 633930, Note_off_c, 1, 73, 0
1, 633930, Note_off_c, 1, 56, 0
1, 633941, Note_on_c, 1, 71, 127
1, 633941, Note_on_c, 1, 52, 127
1, 634103, Note_off_c, 1, 71, 0
1, 634103, Note_off_c, 1, 52, 0
1, 634120, Note_on_c, 1, 69, 127
1, 634120, Note_on_c, 1, 54, 127
1, 634287, Note_off_c, 1, 69, 0
1, 634287, Note_off_c, 1, 54, 0
1, 634298, Note_on_c, 1, 71, 127
1, 634298, Note_on_c, 1, 56, 127
1, 634465, Note_off_c, 1, 71, 0
1, 634465, Note_off_c, 1, 56, 0
1, 634476, Note_on_c, 1, 73, 127
1, 634476, Note_on_c, 1, 57, 127
1, 634643, Note_off_c, 1, 73, 0
1, 634643, Note_off_c, 1, 57, 0
1, 634654, Note_on_c, 1, 75, 127
1, 634654, Note_on_c, 1, 56, 127
1, 634821, Note_off_c, 1, 75, 0
1, 634821, Note_off_c, 1, 56, 0
1, 634832, Note_on_c, 1, 76, 127
1, 634832, Note_on_c, 1, 54, 127
1, 634999, Note_off_c, 1, 76, 0
1, 634999, Note_off_c, 1, 54, 0
1, 635011, Note_on_c, 1, 73, 127
1, 635011, Note_on_c, 1, 52, 127
1, 635178, Note_off_c, 1, 73, 0
1, 635178, Note_off_c, 1, 52, 0
1, 635189, Note_on_c, 1, 78, 127
1, 635189, Note_on_c, 1, 51, 127
1, 635356, Note_off_c, 1, 78, 0
1, 635356, Note_off_c, 1, 51, 0
1, 635367, Note_on_c, 1, 76, 127
1, 635367, Note_on_c, 1, 52, 127
1, 635534, Note_off_c, 1, 76, 0
1, 635534, Note_off_c, 1, 52, 0
1, 635545, Note_on_c, 1, 75, 127
1, 635545, Note_on_c, 1, 54, 127
1, 635712, Note_off_c, 1, 75, 0
1, 635712, Note_off_c, 1, 54, 0
1, 635723, Note_on_c, 1, 73, 127
1, 635723, Note_on_c, 1, 52, 127
1, 635890, Note_off_c, 1, 73, 0
1, 635890, Note_off_c, 1, 52, 0
1, 635902, Note_on_c, 1, 71, 127
1, 635902, Note_on_c, 1, 54, 127
1, 636069, Note_off_c, 1, 71, 0
1, 636069, Note_off_c, 1, 54, 0
1, 636079, Note_on_c, 1, 69, 127
1, 636079, Note_on_c, 1, 51, 127
1, 636241, Note_off_c, 1, 69, 0
1, 636241, Note_off_c, 1, 51, 0
1, 636258, Note_on_c, 1, 68, 127
1, 636258, Note_on_c, 1, 52, 127
1, 636425, Note_off_c, 1, 68, 0
1, 636425, Note_off_c, 1, 52, 0
1, 636436, Note_on_c, 1, 76, 127
1, 636436, Note_on_c, 1, 54, 127
1, 636603, Note_off_c, 1, 76, 0
1, 636603, Note_off_c, 1, 54, 0
1, 636615, Note_on_c, 1, 56, 127
1, 636615, Note_on_c, 1, 75, 127
1, 636693, Note_off_c, 1, 56, 0
1, 636704, Note_on_c, 1, 54, 127
1, 636782, Note_off_c, 1, 54, 0
1, 636783, Note_off_c, 1, 75, 0
1, 636793, Note_on_c, 1, 52, 127
1, 636793, Note_on_c, 1, 73, 127
1, 636871, Note_off_c, 1, 52, 0
1, 636883, Note_on_c, 1, 54, 127
1, 636961, Note_off_c, 1, 73, 0
1, 636961, Note_off_c, 1, 54, 0
1, 636972, Note_on_c, 1, 71, 127
1, 636972, Note_on_c, 1, 56, 127
1, 637139, Note_off_c, 1, 71, 0
1, 637139, Note_off_c, 1, 56, 0
1, 637151, Note_on_c, 1, 69, 127
1, 637151, Note_on_c, 1, 57, 127
1, 637318, Note_off_c, 1, 69, 0
1, 637318, Note_off_c, 1, 57, 0
1, 637329, Note_on_c, 1, 59, 127
1, 637329, Note_on_c, 1, 68, 127
1, 637407, Note_off_c, 1, 59, 0
1, 637419, Note_on_c, 1, 57, 127
1, 637497, Note_off_c, 1, 68, 0
1, 637497, Note_off_c, 1, 57, 0
1, 637508, Note_on_c, 1, 69, 127
1, 637508, Note_on_c, 1, 56, 127
1, 637586, Note_off_c, 1, 69, 0
1, 637586, Note_off_c, 1, 56, 0
1, 637597, Note_on_c, 1, 71, 127
1, 637597, Note_on_c, 1, 57, 127
1, 637675, Note_off_c, 1, 71, 0
1, 637675, Note_off_c, 1, 57, 0
1, 637687, Note_on_c, 1, 68, 127
1, 637687, Note_on_c, 1, 59, 127
1, 637743, Note_off_c, 1, 68, 0
1, 637746, Note_on_c, 1, 66, 127
1, 637803, Note_off_c, 1, 66, 0
1, 638035, Note_off_c, 1, 59, 0
1, 638046, Note_on_c, 1, 47, 127
1, 638225, Note_on_c, 1, 64, 127
1, 638391, Note_off_c, 1, 47, 0
1, 638392, Note_off_c, 1, 64, 0
1, 638402, Note_on_c, 1, 64, 127
1, 638402, Note_on_c, 1, 40, 127
1, 638569, Note_off_c, 1, 64, 0
1, 638581, Note_on_c, 1, 66, 127
1, 638747, Note_off_c, 1, 40, 0
1, 638748, Note_off_c, 1, 66, 0
1, 638759, Note_on_c, 1, 68, 127
1, 638759, Note_on_c, 1, 52, 127
1, 638926, Note_off_c, 1, 68, 0
1, 638926, Note_off_c, 1, 52, 0
1, 638938, Note_on_c, 1, 69, 127
1, 638938, Note_on_c, 1, 50, 127
1, 639105, Note_off_c, 1, 69, 0
1, 639105, Note_off_c, 1, 50, 0
1, 639115, Note_on_c, 1, 71, 127
1, 639115, Note_on_c, 1, 49, 127
1, 639282, Note_off_c, 1, 71, 0
1, 639282, Note_off_c, 1, 49, 0
1, 639293, Note_on_c, 1, 68, 127
1, 639293, Note_on_c, 1, 47, 127
1, 639460, Note_off_c, 1, 68, 0
1, 639460, Note_off_c, 1, 47, 0
1, 639472, Note_on_c, 1, 73, 127
1, 639472, Note_on_c, 1, 45, 127
1, 639639, Note_off_c, 1, 73, 0
1, 639650, Note_on_c, 1, 71, 127
1, 639806, Note_off_c, 1, 45, 0
1, 639817, Note_off_c, 1, 71, 0
1, 639828, Note_on_c, 1, 47, 127
1, 639828, Note_on_c, 1, 69, 127
1, 639906, Note_off_c, 1, 47, 0
1, 639917, Note_on_c, 1, 45, 127
1, 639995, Note_off_c, 1, 45, 0
1, 639996, Note_off_c, 1, 69, 0
1, 640007, Note_on_c, 1, 47, 127
1, 640007, Note_on_c, 1, 68, 127
1, 640085, Note_off_c, 1, 47, 0
1, 640097, Note_on_c, 1, 45, 127
1, 640175, Note_off_c, 1, 68, 0
1, 640175, Note_off_c, 1, 45, 0
1, 640186, Note_on_c, 1, 47, 127
1, 640186, Note_on_c, 1, 66, 127
1, 640264, Note_off_c, 1, 47, 0
1, 640276, Note_on_c, 1, 45, 127
1, 640354, Note_off_c, 1, 66, 0
1, 640354, Note_off_c, 1, 45, 0
1, 640366, Note_on_c, 1, 44, 127
1, 640366, Note_on_c, 1, 64, 127
1, 640444, Note_off_c, 1, 44, 0
1, 640455, Note_on_c, 1, 45, 127
1, 640533, Note_off_c, 1, 45, 0
1, 640534, Note_off_c, 1, 64, 0
1, 640545, Note_on_c, 1, 63, 127
1, 640545, Note_on_c, 1, 47, 127
1, 640712, Note_off_c, 1, 63, 0
1, 640712, Note_off_c, 1, 47, 0
1, 640722, Note_on_c, 1, 64, 127
1, 640722, Note_on_c, 1, 49, 127
1, 640889, Note_off_c, 1, 64, 0
1, 640889, Note_off_c, 1, 49, 0
1, 640901, Note_on_c, 1, 66, 127
1, 640901, Note_on_c, 1, 51, 127
1, 641068, Note_off_c, 1, 66, 0
1, 641068, Note_off_c, 1, 51, 0
1, 641079, Note_on_c, 1, 68, 127
1, 641079, Note_on_c, 1, 49, 127
1, 641246, Note_off_c, 1, 68, 0
1, 641246, Note_off_c, 1, 49, 0
1, 641258, Note_on_c, 1, 69, 127
1, 641258, Note_on_c, 1, 47, 127
1, 641425, Note_off_c, 1, 69, 0
1, 641425, Note_off_c, 1, 47, 0
1, 641435, Note_on_c, 1, 66, 127
1, 641435, Note_on_c, 1, 45, 127
1, 641602, Note_off_c, 1, 66, 0
1, 641602, Note_off_c, 1, 45, 0
1, 641614, Note_on_c, 1, 71, 127
1, 641614, Note_on_c, 1, 44, 127
1, 641781, Note_off_c, 1, 71, 0
1, 641792, Note_on_c, 1, 69, 127
1, 641948, Note_off_c, 1, 44, 0
1, 641959, Note_off_c, 1, 69, 0
1, 641970, Note_on_c, 1, 45, 127
1, 641970, Note_on_c, 1, 68, 127
1, 642048, Note_off_c, 1, 45, 0
1, 642060, Note_on_c, 1, 44, 127
1, 642138, Note_off_c, 1, 68, 0
1, 642138, Note_off_c, 1, 44, 0
1, 642149, Note_on_c, 1, 45, 127
1, 642149, Note_on_c, 1, 66, 127
1, 642227, Note_off_c, 1, 45, 0
1, 642238, Note_on_c, 1, 44, 127
1, 642316, Note_off_c, 1, 44, 0
1, 642317, Note_off_c, 1, 66, 0
1, 642328, Note_on_c, 1, 45, 127
1, 642328, Note_on_c, 1, 64, 127
1, 642406, Note_off_c, 1, 45, 0
1, 642418, Note_on_c, 1, 44, 127
1, 642496, Note_off_c, 1, 64, 0
1, 642496, Note_off_c, 1, 44, 0
1, 642507, Note_on_c, 1, 42, 127
1, 642507, Note_on_c, 1, 63, 127
1, 642585, Note_off_c, 1, 42, 0
1, 642597, Note_on_c, 1, 44, 127
1, 642675, Note_off_c, 1, 63, 0
1, 642675, Note_off_c, 1, 44, 0
1, 642687, Note_on_c, 1, 61, 127
1, 642687, Note_on_c, 1, 45, 127
1, 642854, Note_off_c, 1, 61, 0
1, 642854, Note_off_c, 1, 45, 0
1, 642865, Note_on_c, 1, 63, 127
1, 642865, Note_on_c, 1, 47, 127
1, 643032, Note_off_c, 1, 63, 0
1, 643032, Note_off_c, 1, 47, 0
1, 643043, Note_on_c, 1, 64, 127
1, 643043, Note_on_c, 1, 49, 127
1, 643210, Note_off_c, 1, 64, 0
1, 643210, Note_off_c, 1, 49, 0
1, 643221, Note_on_c, 1, 66, 127
1, 643221, Note_on_c, 1, 47, 127
1, 643388, Note_off_c, 1, 66, 0
1, 643388, Note_off_c, 1, 47, 0
1, 643399, Note_on_c, 1, 68, 127
1, 643399, Note_on_c, 1, 45, 127
1, 643566, Note_off_c, 1, 68, 0
1, 643566, Note_off_c, 1, 45, 0
1, 643578, Note_on_c, 1, 64, 127
1, 643578, Note_on_c, 1, 44, 127
1, 643745, Note_off_c, 1, 64, 0
1, 643745, Note_off_c, 1, 44, 0
1, 643755, Note_on_c, 1, 69, 127
1, 643755, Note_on_c, 1, 42, 127
1, 643922, Note_off_c, 1, 69, 0
1, 643922, Note_off_c, 1, 42, 0
1, 643934, Note_on_c, 1, 68, 127
1, 643934, Note_on_c, 1, 44, 127
1, 644101, Note_off_c, 1, 68, 0
1, 644101, Note_off_c, 1, 44, 0
1, 644112, Note_on_c, 1, 66, 127
1, 644112, Note_on_c, 1, 45, 127
1, 644279, Note_off_c, 1, 66, 0
1, 644279, Note_off_c, 1, 45, 0
1, 644291, Note_on_c, 1, 64, 127
1, 644291, Note_on_c, 1, 44, 127
1, 644458, Note_off_c, 1, 64, 0
1, 644458, Note_off_c, 1, 44, 0
1, 644468, Note_on_c, 1, 63, 127
1, 644468, Note_on_c, 1, 42, 127
1, 644635, Note_off_c, 1, 63, 0
1, 644635, Note_off_c, 1, 42, 0
1, 644646, Note_on_c, 1, 61, 127
1, 644646, Note_on_c, 1, 40, 127
1, 644813, Note_off_c, 1, 61, 0
1, 644813, Note_off_c, 1, 40, 0
1, 644825, Note_on_c, 1, 59, 127
1, 644825, Note_on_c, 1, 39, 127
1, 644992, Note_off_c, 1, 59, 0
1, 645003, Note_on_c, 1, 69, 127
1, 645170, Note_off_c, 1, 39, 0
1, 645170, Note_off_c, 1, 69, 0
1, 645181, Note_on_c, 1, 68, 127
1, 645181, Note_on_c, 1, 47, 127
1, 645348, Note_off_c, 1, 68, 0
1, 645359, Note_on_c, 1, 66, 127
1, 645526, Note_off_c, 1, 47, 0
1, 645526, Note_off_c, 1, 66, 0
1, 645537, Note_on_c, 1, 64, 127
1, 645537, Note_on_c, 1, 49, 127
1, 645704, Note_off_c, 1, 64, 0
1, 645716, Note_on_c, 1, 63, 127
1, 645882, Note_off_c, 1, 49, 0
1, 645883, Note_off_c, 1, 63, 0
1, 645894, Note_on_c, 1, 64, 127
1, 645894, Note_on_c, 1, 45, 127
1, 646061, Note_off_c, 1, 64, 0
1, 646072, Note_on_c, 1, 66, 127
1, 646239, Note_off_c, 1, 45, 0
1, 646239, Note_off_c, 1, 66, 0
1, 646250, Note_on_c, 1, 68, 127
1, 646250, Note_on_c, 1, 47, 127
1, 646345, Note_off_c, 1, 68, 0
1, 646347, Note_on_c, 1, 66, 127
1, 646404, Note_off_c, 1, 66, 0
1, 646598, Note_off_c, 1, 47, 0
1, 646610, Note_on_c, 1, 35, 127
1, 646787, Note_on_c, 1, 64, 127
1, 646955, Note_off_c, 1, 64, 0
1, 646956, Note_off_c, 1, 35, 0
1, 646967, Note_on_c, 1, 64, 127
1, 646967, Note_on_c, 1, 40, 127
1, 647324, Note_on_c, 1, 44, 127
1, 647670, Note_off_c, 1, 44, 0
1, 647681, Note_on_c, 1, 47, 127
1, 648027, Note_off_c, 1, 47, 0
1, 648039, Note_on_c, 1, 52, 127
1, 648736, Note_off_c, 1, 52, 0
1, 648742, Note_off_c, 1, 64, 0
1, 648743, Note_off_c, 1, 40, 0
1, 648752, Note_on_c, 1, 71, 127
1, 649084, Note_off_c, 1, 71, 0
1, 649109, Note_on_c, 1, 64, 127
1, 649455, Note_off_c, 1, 64, 0
1, 649467, Note_on_c, 1, 66, 127
1, 649634, Note_off_c, 1, 66, 0
1, 649645, Note_on_c, 1, 68, 127
1, 649812, Note_off_c, 1, 68, 0
1, 649823, Note_on_c, 1, 69, 127
1, 649990, Note_off_c, 1, 69, 0
1, 650001, Note_on_c, 1, 71, 127
1, 650168, Note_off_c, 1, 71, 0
1, 650180, Note_on_c, 1, 69, 127
1, 650347, Note_off_c, 1, 69, 0
1, 650358, Note_on_c, 1, 71, 127
1, 650525, Note_off_c, 1, 71, 0
1, 650537, Note_on_c, 1, 73, 127
1, 650615, Note_off_c, 1, 73, 0
1, 650625, Note_on_c, 1, 71, 127
1, 650703, Note_off_c, 1, 71, 0
1, 650715, Note_on_c, 1, 73, 127
1, 650793, Note_off_c, 1, 73, 0
1, 650805, Note_on_c, 1, 71, 127
1, 650883, Note_off_c, 1, 71, 0
1, 650894, Note_on_c, 1, 73, 127
1, 650894, Note_on_c, 1, 52, 127
1, 650972, Note_off_c, 1, 73, 0
1, 650984, Note_on_c, 1, 71, 127
1, 651062, Note_off_c, 1, 71, 0
1, 651074, Note_on_c, 1, 69, 127
1, 651152, Note_off_c, 1, 69, 0
1, 651241, Note_off_c, 1, 52, 0
1, 651253, Note_on_c, 1, 73, 127
1, 651253, Note_on_c, 1, 45, 127
1, 651420, Note_off_c, 1, 73, 0
1, 651430, Note_on_c, 1, 74, 127
1, 651597, Note_off_c, 1, 74, 0
1, 651598, Note_off_c, 1, 45, 0
1, 651609, Note_on_c, 1, 73, 127
1, 651609, Note_on_c, 1, 47, 127
1, 651776, Note_off_c, 1, 73, 0
1, 651776, Note_off_c, 1, 47, 0
1, 651787, Note_on_c, 1, 71, 127
1, 651787, Note_on_c, 1, 49, 127
1, 651954, Note_off_c, 1, 71, 0
1, 651954, Note_off_c, 1, 49, 0
1, 651966, Note_on_c, 1, 69, 127
1, 651966, Note_on_c, 1, 50, 127
1, 652133, Note_off_c, 1, 69, 0
1, 652133, Note_off_c, 1, 50, 0
1, 652143, Note_on_c, 1, 67, 127
1, 652143, Note_on_c, 1, 52, 127
1, 652310, Note_off_c, 1, 67, 0
1, 652310, Note_off_c, 1, 52, 0
1, 652321, Note_on_c, 1, 66, 127
1, 652321, Note_on_c, 1, 50, 127
1, 652488, Note_off_c, 1, 66, 0
1, 652488, Note_off_c, 1, 50, 0
1, 652500, Note_on_c, 1, 78, 127
1, 652500, Note_on_c, 1, 52, 127
1, 652667, Note_off_c, 1, 78, 0
1, 652667, Note_off_c, 1, 52, 0
1, 652678, Note_on_c, 1, 54, 127
1, 652678, Note_on_c, 1, 76, 127
1, 652756, Note_off_c, 1, 54, 0
1, 652768, Note_on_c, 1, 52, 127
1, 652846, Note_off_c, 1, 76, 0
1, 652846, Note_off_c, 1, 52, 0
1, 652857, Note_on_c, 1, 54, 127
1, 652857, Note_on_c, 1, 74, 127
1, 652935, Note_off_c, 1, 54, 0
1, 652946, Note_on_c, 1, 52, 127
1, 653024, Note_off_c, 1, 52, 0
1, 653025, Note_off_c, 1, 74, 0
1, 653036, Note_on_c, 1, 54, 127
1, 653036, Note_on_c, 1, 73, 127
1, 653114, Note_off_c, 1, 54, 0
1, 653126, Note_on_c, 1, 52, 127
1, 653204, Note_off_c, 1, 73, 0
1, 653204, Note_off_c, 1, 52, 0
1, 653215, Note_on_c, 1, 50, 127
1, 653215, Note_on_c, 1, 71, 127
1, 653293, Note_off_c, 1, 50, 0
1, 653305, Note_on_c, 1, 52, 127
1, 653383, Note_off_c, 1, 71, 0
1, 653383, Note_off_c, 1, 52, 0
1, 653395, Note_on_c, 1, 70, 127
1, 653395, Note_on_c, 1, 54, 127
1, 653562, Note_off_c, 1, 70, 0
1, 653573, Note_on_c, 1, 71, 127
1, 653740, Note_off_c, 1, 54, 0
1, 653740, Note_off_c, 1, 71, 0
1, 653751, Note_on_c, 1, 73, 127
1, 653751, Note_on_c, 1, 52, 127
1, 653829, Note_off_c, 1, 73, 0
1, 653840, Note_on_c, 1, 71, 127
1, 653918, Note_off_c, 1, 71, 0
1, 653919, Note_off_c, 1, 52, 0
1, 653930, Note_on_c, 1, 73, 127
1, 653930, Note_on_c, 1, 50, 127
1, 654008, Note_off_c, 1, 73, 0
1, 654020, Note_on_c, 1, 71, 127
1, 654098, Note_off_c, 1, 50, 0
1, 654098, Note_off_c, 1, 71, 0
1, 654109, Note_on_c, 1, 73, 127
1, 654109, Note_on_c, 1, 49, 127
1, 654187, Note_off_c, 1, 73, 0
1, 654199, Note_on_c, 1, 71, 127
1, 654277, Note_off_c, 1, 49, 0
1, 654277, Note_off_c, 1, 71, 0
1, 654289, Note_on_c, 1, 70, 127
1, 654289, Note_on_c, 1, 47, 127
1, 654367, Note_off_c, 1, 70, 0
1, 654378, Note_on_c, 1, 71, 127
1, 654456, Note_off_c, 1, 71, 0
1, 654457, Note_off_c, 1, 47, 0
1, 654467, Note_on_c, 1, 73, 127
1, 654467, Note_on_c, 1, 46, 127
1, 654634, Note_off_c, 1, 73, 0
1, 654634, Note_off_c, 1, 46, 0
1, 654645, Note_on_c, 1, 74, 127
1, 654645, Note_on_c, 1, 47, 127
1, 654812, Note_off_c, 1, 74, 0
1, 654812, Note_off_c, 1, 47, 0
1, 654824, Note_on_c, 1, 76, 127
1, 654824, Note_on_c, 1, 49, 127
1, 654902, Note_off_c, 1, 76, 0
1, 654902, Note_off_c, 1, 49, 0
1, 654913, Note_on_c, 1, 74, 127
1, 654913, Note_on_c, 1, 47, 127
1, 654991, Note_off_c, 1, 74, 0
1, 654991, Note_off_c, 1, 47, 0
1, 655003, Note_on_c, 1, 76, 127
1, 655003, Note_on_c, 1, 49, 127
1, 655081, Note_off_c, 1, 76, 0
1, 655081, Note_off_c, 1, 49, 0
1, 655093, Note_on_c, 1, 74, 127
1, 655093, Note_on_c, 1, 47, 127
1, 655171, Note_off_c, 1, 74, 0
1, 655171, Note_off_c, 1, 47, 0
1, 655183, Note_on_c, 1, 76, 127
1, 655183, Note_on_c, 1, 49, 127
1, 655261, Note_off_c, 1, 76, 0
1, 655261, Note_off_c, 1, 49, 0
1, 655271, Note_on_c, 1, 74, 127
1, 655271, Note_on_c, 1, 47, 127
1, 655349, Note_off_c, 1, 74, 0
1, 655349, Note_off_c, 1, 47, 0
1, 655361, Note_on_c, 1, 73, 127
1, 655361, Note_on_c, 1, 46, 127
1, 655439, Note_off_c, 1, 73, 0
1, 655439, Note_off_c, 1, 46, 0
1, 655451, Note_on_c, 1, 74, 127
1, 655451, Note_on_c, 1, 47, 127
1, 655529, Note_off_c, 1, 74, 0
1, 655529, Note_off_c, 1, 47, 0
1, 655540, Note_on_c, 1, 49, 127
1, 655540, Note_on_c, 1, 76, 127
1, 655707, Note_off_c, 1, 49, 0
1, 655719, Note_on_c, 1, 42, 127
1, 655886, Note_off_c, 1, 42, 0
1, 655897, Note_on_c, 1, 44, 127
1, 656064, Note_off_c, 1, 76, 0
1, 656064, Note_off_c, 1, 44, 0
1, 656074, Note_on_c, 1, 78, 127
1, 656074, Note_on_c, 1, 46, 127
1, 656241, Note_off_c, 1, 78, 0
1, 656241, Note_off_c, 1, 46, 0
1, 656253, Note_on_c, 1, 76, 127
1, 656253, Note_on_c, 1, 47, 127
1, 656420, Note_off_c, 1, 76, 0
1, 656420, Note_off_c, 1, 47, 0
1, 656431, Note_on_c, 1, 49, 127
1, 656431, Note_on_c, 1, 74, 127
1, 656598, Note_off_c, 1, 49, 0
1, 656610, Note_on_c, 1, 50, 127
1, 656776, Note_off_c, 1, 74, 0
1, 656777, Note_off_c, 1, 50, 0
1, 656787, Note_on_c, 1, 76, 127
1, 656787, Note_on_c, 1, 47, 127
1, 656954, Note_off_c, 1, 76, 0
1, 656954, Note_off_c, 1, 47, 0
1, 656966, Note_on_c, 1, 74, 127
1, 656966, Note_on_c, 1, 54, 127
1, 657022, Note_off_c, 1, 74, 0
1, 657025, Note_on_c, 1, 73, 127
1, 657082, Note_off_c, 1, 73, 0
1, 657314, Note_off_c, 1, 54, 0
1, 657325, Note_on_c, 1, 42, 127
1, 657503, Note_on_c, 1, 78, 127
1, 657670, Note_off_c, 1, 42, 0
1, 657670, Note_off_c, 1, 78, 0
1, 657681, Note_on_c, 1, 75, 127
1, 657681, Note_on_c, 1, 47, 127
1, 657848, Note_off_c, 1, 75, 0
1, 657859, Note_on_c, 1, 71, 127
1, 658026, Note_off_c, 1, 71, 0
1, 658038, Note_on_c, 1, 73, 127
1, 658205, Note_off_c, 1, 73, 0
1, 658378, Note_off_c, 1, 47, 0
1, 658395, Note_on_c, 1, 76, 127
1, 658562, Note_off_c, 1, 76, 0
1, 658573, Note_on_c, 1, 78, 127
1, 658740, Note_off_c, 1, 78, 0
1, 658751, Note_on_c, 1, 76, 127
1, 658918, Note_off_c, 1, 76, 0
1, 658930, Note_on_c, 1, 78, 127
1, 659097, Note_off_c, 1, 78, 0
1, 659107, Note_on_c, 1, 79, 127
1, 659185, Note_off_c, 1, 79, 0
1, 659197, Note_on_c, 1, 78, 127
1, 659275, Note_off_c, 1, 78, 0
1, 659287, Note_on_c, 1, 79, 127
1, 659365, Note_off_c, 1, 79, 0
1, 659376, Note_on_c, 1, 78, 127
1, 659454, Note_off_c, 1, 78, 0
1, 659466, Note_on_c, 1, 79, 127
1, 659466, Note_on_c, 1, 59, 127
1, 659544, Note_off_c, 1, 79, 0
1, 659556, Note_on_c, 1, 78, 127
1, 659634, Note_off_c, 1, 78, 0
1, 659645, Note_on_c, 1, 76, 127
1, 659723, Note_off_c, 1, 76, 0
1, 659813, Note_off_c, 1, 59, 0
1, 659824, Note_on_c, 1, 79, 127
1, 659824, Note_on_c, 1, 52, 127
1, 659991, Note_off_c, 1, 79, 0
1, 660002, Note_on_c, 1, 81, 127
1, 660169, Note_off_c, 1, 52, 0
1, 660169, Note_off_c, 1, 81, 0
1, 660181, Note_on_c, 1, 79, 127
1, 660181, Note_on_c, 1, 54, 127
1, 660348, Note_off_c, 1, 79, 0
1, 660348, Note_off_c, 1, 54, 0
1, 660359, Note_on_c, 1, 78, 127
1, 660359, Note_on_c, 1, 55, 127
1, 660526, Note_off_c, 1, 78, 0
1, 660526, Note_off_c, 1, 55, 0
1, 660537, Note_on_c, 1, 76, 127
1, 660537, Note_on_c, 1, 57, 127
1, 660704, Note_off_c, 1, 76, 0
1, 660704, Note_off_c, 1, 57, 0
1, 660715, Note_on_c, 1, 74, 127
1, 660715, Note_on_c, 1, 59, 127
1, 660882, Note_off_c, 1, 74, 0
1, 660882, Note_off_c, 1, 59, 0
1, 660893, Note_on_c, 1, 72, 127
1, 660893, Note_on_c, 1, 57, 127
1, 661060, Note_off_c, 1, 72, 0
1, 661060, Note_off_c, 1, 57, 0
1, 661072, Note_on_c, 1, 83, 127
1, 661072, Note_on_c, 1, 59, 127
1, 661239, Note_off_c, 1, 83, 0
1, 661239, Note_off_c, 1, 59, 0
1, 661250, Note_on_c, 1, 60, 127
1, 661250, Note_on_c, 1, 81, 127
1, 661328, Note_off_c, 1, 60, 0
1, 661339, Note_on_c, 1, 59, 127
1, 661417, Note_off_c, 1, 59, 0
1, 661418, Note_off_c, 1, 81, 0
1, 661428, Note_on_c, 1, 60, 127
1, 661428, Note_on_c, 1, 79, 127
1, 661506, Note_off_c, 1, 60, 0
1, 661518, Note_on_c, 1, 59, 127
1, 661596, Note_off_c, 1, 79, 0
1, 661596, Note_off_c, 1, 59, 0
1, 661608, Note_on_c, 1, 60, 127
1, 661608, Note_on_c, 1, 78, 127
1, 661686, Note_off_c, 1, 60, 0
1, 661697, Note_on_c, 1, 59, 127
1, 661775, Note_off_c, 1, 59, 0
1, 661776, Note_off_c, 1, 78, 0
1, 661787, Note_on_c, 1, 57, 127
1, 661787, Note_on_c, 1, 76, 127
1, 661865, Note_off_c, 1, 57, 0
1, 661877, Note_on_c, 1, 59, 127
1, 661955, Note_off_c, 1, 76, 0
1, 661955, Note_off_c, 1, 59, 0
1, 661967, Note_on_c, 1, 75, 127
1, 661967, Note_on_c, 1, 60, 127
1, 662134, Note_off_c, 1, 75, 0
1, 662134, Note_off_c, 1, 60, 0
1, 662144, Note_on_c, 1, 76, 127
1, 662144, Note_on_c, 1, 59, 127
1, 662311, Note_off_c, 1, 76, 0
1, 662311, Note_off_c, 1, 59, 0
1, 662322, Note_on_c, 1, 78, 127
1, 662322, Note_on_c, 1, 57, 127
1, 662400, Note_off_c, 1, 78, 0
1, 662412, Note_on_c, 1, 76, 127
1, 662490, Note_off_c, 1, 57, 0
1, 662490, Note_off_c, 1, 76, 0
1, 662502, Note_on_c, 1, 78, 127
1, 662502, Note_on_c, 1, 55, 127
1, 662580, Note_off_c, 1, 78, 0
1, 662591, Note_on_c, 1, 76, 127
1, 662669, Note_off_c, 1, 76, 0
1, 662670, Note_off_c, 1, 55, 0
1, 662681, Note_on_c, 1, 78, 127
1, 662681, Note_on_c, 1, 54, 127
1, 662759, Note_off_c, 1, 78, 0
1, 662771, Note_on_c, 1, 76, 127
1, 662849, Note_off_c, 1, 54, 0
1, 662849, Note_off_c, 1, 76, 0
1, 662860, Note_on_c, 1, 75, 127
1, 662860, Note_on_c, 1, 52, 127
1, 662938, Note_off_c, 1, 75, 0
1, 662949, Note_on_c, 1, 76, 127
1, 663027, Note_off_c, 1, 76, 0
1, 663028, Note_off_c, 1, 52, 0
1, 663039, Note_on_c, 1, 78, 127
1, 663039, Note_on_c, 1, 51, 127
1, 663215, Note_off_c, 1, 78, 0
1, 663215, Note_off_c, 1, 51, 0
1, 663228, Note_on_c, 1, 52, 127
1, 663228, Note_on_c, 1, 79, 127
1, 663387, Note_off_c, 1, 52, 0
1, 663387, Note_off_c, 1, 79, 0
1, 663397, Note_on_c, 1, 81, 127
1, 663397, Note_on_c, 1, 54, 127
1, 663475, Note_off_c, 1, 81, 0
1, 663475, Note_off_c, 1, 54, 0
1, 663486, Note_on_c, 1, 79, 127
1, 663486, Note_on_c, 1, 52, 127
1, 663564, Note_off_c, 1, 79, 0
1, 663564, Note_off_c, 1, 52, 0
1, 663576, Note_on_c, 1, 81, 127
1, 663576, Note_on_c, 1, 54, 127
1, 663654, Note_off_c, 1, 81, 0
1, 663654, Note_off_c, 1, 54, 0
1, 663665, Note_on_c, 1, 79, 127
1, 663665, Note_on_c, 1, 52, 127
1, 663743, Note_off_c, 1, 79, 0
1, 663743, Note_off_c, 1, 52, 0
1, 663754, Note_on_c, 1, 81, 127
1, 663754, Note_on_c, 1, 54, 127
1, 663832, Note_off_c, 1, 81, 0
1, 663832, Note_off_c, 1, 54, 0
1, 663844, Note_on_c, 1, 79, 127
1, 663844, Note_on_c, 1, 52, 127
1, 663922, Note_off_c, 1, 79, 0
1, 663922, Note_off_c, 1, 52, 0
1, 663934, Note_on_c, 1, 78, 127
1, 663934, Note_on_c, 1, 51, 127
1, 664012, Note_off_c, 1, 78, 0
1, 664012, Note_off_c, 1, 51, 0
1, 664023, Note_on_c, 1, 79, 127
1, 664023, Note_on_c, 1, 52, 127
1, 664101, Note_off_c, 1, 79, 0
1, 664101, Note_off_c, 1, 52, 0
1, 664113, Note_on_c, 1, 54, 127
1, 664113, Note_on_c, 1, 81, 127
1, 664280, Note_off_c, 1, 54, 0
1, 664291, Note_on_c, 1, 47, 127
1, 664458, Note_off_c, 1, 47, 0
1, 664469, Note_on_c, 1, 49, 127
1, 664636, Note_off_c, 1, 49, 0
1, 664637, Note_off_c, 1, 81, 0
1, 664647, Note_on_c, 1, 83, 127
1, 664647, Note_on_c, 1, 51, 127
1, 664814, Note_off_c, 1, 83, 0
1, 664814, Note_off_c, 1, 51, 0
1, 664826, Note_on_c, 1, 81, 127
1, 664826, Note_on_c, 1, 52, 127
1, 664993, Note_off_c, 1, 81, 0
1, 664993, Note_off_c, 1, 52, 0
1, 665004, Note_on_c, 1, 54, 127
1, 665004, Note_on_c, 1, 79, 127
1, 665171, Note_off_c, 1, 54, 0
1, 665182, Note_on_c, 1, 55, 127
1, 665349, Note_off_c, 1, 79, 0
1, 665349, Note_off_c, 1, 55, 0
1, 665360, Note_on_c, 1, 81, 127
1, 665360, Note_on_c, 1, 52, 127
1, 665527, Note_off_c, 1, 81, 0
1, 665527, Note_off_c, 1, 52, 0
1, 665538, Note_on_c, 1, 79, 127
1, 665538, Note_on_c, 1, 59, 127
1, 665594, Note_off_c, 1, 79, 0
1, 665598, Note_on_c, 1, 78, 127
1, 665655, Note_off_c, 1, 78, 0
1, 665884, Note_off_c, 1, 59, 0
1, 665898, Note_on_c, 1, 47, 127
1, 666075, Note_on_c, 1, 83, 127
1, 666242, Note_off_c, 1, 83, 0
1, 666243, Note_off_c, 1, 47, 0
1, 666254, Note_on_c, 1, 80, 127
1, 666254, Note_on_c, 1, 40, 127
1, 666421, Note_off_c, 1, 80, 0
1, 666432, Note_on_c, 1, 81, 127
1, 666599, Note_off_c, 1, 40, 0
1, 666599, Note_off_c, 1, 81, 0
1, 666611, Note_on_c, 1, 80, 127
1, 666611, Note_on_c, 1, 42, 127
1, 666778, Note_off_c, 1, 80, 0
1, 666778, Note_off_c, 1, 42, 0
1, 666788, Note_on_c, 1, 78, 127
1, 666788, Note_on_c, 1, 44, 127
1, 666955, Note_off_c, 1, 78, 0
1, 666955, Note_off_c, 1, 44, 0
1, 666966, Note_on_c, 1, 76, 127
1, 666966, Note_on_c, 1, 45, 127
1, 667133, Note_off_c, 1, 76, 0
1, 667133, Note_off_c, 1, 45, 0
1, 667145, Note_on_c, 1, 74, 127
1, 667145, Note_on_c, 1, 47, 127
1, 667312, Note_off_c, 1, 74, 0
1, 667312, Note_off_c, 1, 47, 0
1, 667323, Note_on_c, 1, 73, 127
1, 667323, Note_on_c, 1, 45, 127
1, 667490, Note_off_c, 1, 73, 0
1, 667490, Note_off_c, 1, 45, 0
1, 667501, Note_on_c, 1, 71, 127
1, 667501, Note_on_c, 1, 47, 127
1, 667668, Note_off_c, 1, 71, 0
1, 667668, Note_off_c, 1, 47, 0
1, 667679, Note_on_c, 1, 49, 127
1, 667679, Note_on_c, 1, 69, 127
1, 667757, Note_off_c, 1, 49, 0
1, 667769, Note_on_c, 1, 47, 127
1, 667847, Note_off_c, 1, 69, 0
1, 667847, Note_off_c, 1, 47, 0
1, 667858, Note_on_c, 1, 49, 127
1, 667858, Note_on_c, 1, 71, 127
1, 667936, Note_off_c, 1, 49, 0
1, 667948, Note_on_c, 1, 47, 127
1, 668026, Note_off_c, 1, 71, 0
1, 668026, Note_off_c, 1, 47, 0
1, 668038, Note_on_c, 1, 49, 127
1, 668038, Note_on_c, 1, 73, 127
1, 668116, Note_off_c, 1, 49, 0
1, 668128, Note_on_c, 1, 47, 127
1, 668206, Note_off_c, 1, 73, 0
1, 668206, Note_off_c, 1, 47, 0
1, 668217, Note_on_c, 1, 45, 127
1, 668217, Note_on_c, 1, 74, 127
1, 668295, Note_off_c, 1, 45, 0
1, 668306, Note_on_c, 1, 47, 127
1, 668384, Note_off_c, 1, 47, 0
1, 668385, Note_off_c, 1, 74, 0
1, 668396, Note_on_c, 1, 76, 127
1, 668396, Note_on_c, 1, 49, 127
1, 668563, Note_off_c, 1, 76, 0
1, 668563, Note_off_c, 1, 49, 0
1, 668574, Note_on_c, 1, 74, 127
1, 668574, Note_on_c, 1, 45, 127
1, 668741, Note_off_c, 1, 74, 0
1, 668741, Note_off_c, 1, 45, 0
1, 668752, Note_on_c, 1, 73, 127
1, 668752, Note_on_c, 1, 47, 127
1, 668919, Note_off_c, 1, 73, 0
1, 668919, Note_off_c, 1, 47, 0
1, 668931, Note_on_c, 1, 71, 127
1, 668931, Note_on_c, 1, 49, 127
1, 669098, Note_off_c, 1, 71, 0
1, 669098, Note_off_c, 1, 49, 0
1, 669108, Note_on_c, 1, 69, 127
1, 669108, Note_on_c, 1, 50, 127
1, 669275, Note_off_c, 1, 69, 0
1, 669275, Note_off_c, 1, 50, 0
1, 669287, Note_on_c, 1, 67, 127
1, 669287, Note_on_c, 1, 52, 127
1, 669454, Note_off_c, 1, 67, 0
1, 669454, Note_off_c, 1, 52, 0
1, 669465, Note_on_c, 1, 66, 127
1, 669465, Note_on_c, 1, 50, 127
1, 669632, Note_off_c, 1, 66, 0
1, 669632, Note_off_c, 1, 50, 0
1, 669643, Note_on_c, 1, 64, 127
1, 669643, Note_on_c, 1, 52, 127
1, 669810, Note_off_c, 1, 64, 0
1, 669810, Note_off_c, 1, 52, 0
1, 669821, Note_on_c, 1, 54, 127
1, 669821, Note_on_c, 1, 62, 127
1, 669899, Note_off_c, 1, 54, 0
1, 669911, Note_on_c, 1, 52, 127
1, 669989, Note_off_c, 1, 62, 0
1, 669989, Note_off_c, 1, 52, 0
1, 670000, Note_on_c, 1, 54, 127
1, 670000, Note_on_c, 1, 64, 127
1, 670078, Note_off_c, 1, 54, 0
1, 670090, Note_on_c, 1, 52, 127
1, 670168, Note_off_c, 1, 64, 0
1, 670168, Note_off_c, 1, 52, 0
1, 670180, Note_on_c, 1, 54, 127
1, 670180, Note_on_c, 1, 66, 127
1, 670258, Note_off_c, 1, 54, 0
1, 670269, Note_on_c, 1, 52, 127
1, 670347, Note_off_c, 1, 52, 0
1, 670348, Note_off_c, 1, 66, 0
1, 670359, Note_on_c, 1, 50, 127
1, 670359, Note_on_c, 1, 67, 127
1, 670437, Note_off_c, 1, 50, 0
1, 670449, Note_on_c, 1, 52, 127
1, 670527, Note_off_c, 1, 67, 0
1, 670527, Note_off_c, 1, 52, 0
1, 670538, Note_on_c, 1, 69, 127
1, 670538, Note_on_c, 1, 54, 127
1, 670705, Note_off_c, 1, 69, 0
1, 670716, Note_on_c, 1, 62, 127
1, 670883, Note_off_c, 1, 62, 0
1, 670894, Note_on_c, 1, 74, 127
1, 670975, Note_off_c, 1, 54, 0
1, 671073, Note_on_c, 1, 50, 127
1, 671240, Note_off_c, 1, 50, 0
1, 671252, Note_on_c, 1, 47, 127
1, 671419, Note_off_c, 1, 47, 0
1, 671608, Note_on_c, 1, 44, 127
1, 671775, Note_off_c, 1, 74, 0
1, 671786, Note_on_c, 1, 71, 127
1, 671953, Note_off_c, 1, 71, 0
1, 671965, Note_on_c, 1, 68, 127
1, 672045, Note_off_c, 1, 44, 0
1, 672133, Note_off_c, 1, 68, 0
1, 672143, Note_on_c, 1, 71, 127
1, 672143, Note_on_c, 1, 52, 127
1, 672310, Note_off_c, 1, 71, 0
1, 672310, Note_off_c, 1, 52, 0
1, 672321, Note_on_c, 1, 56, 127
1, 672321, Note_on_c, 1, 64, 127
1, 672488, Note_off_c, 1, 56, 0
1, 672500, Note_on_c, 1, 52, 127
1, 672667, Note_off_c, 1, 52, 0
1, 672678, Note_on_c, 1, 57, 127
1, 672845, Note_off_c, 1, 64, 0
1, 672856, Note_on_c, 1, 69, 127
1, 673023, Note_off_c, 1, 69, 0
1, 673034, Note_on_c, 1, 73, 127
1, 673115, Note_off_c, 1, 57, 0
1, 673392, Note_on_c, 1, 45, 127
1, 673559, Note_off_c, 1, 45, 0
1, 673570, Note_on_c, 1, 49, 127
1, 673737, Note_off_c, 1, 49, 0
1, 673748, Note_on_c, 1, 38, 127
1, 673915, Note_off_c, 1, 73, 0
1, 674104, Note_on_c, 1, 66, 127
1, 674185, Note_off_c, 1, 38, 0
1, 674272, Note_off_c, 1, 66, 0
1, 674284, Note_on_c, 1, 69, 127
1, 674284, Note_on_c, 1, 42, 127
1, 674451, Note_off_c, 1, 69, 0
1, 674451, Note_off_c, 1, 42, 0
1, 674461, Note_on_c, 1, 62, 127
1, 674461, Note_on_c, 1, 44, 127
1, 674628, Note_off_c, 1, 62, 0
1, 674640, Note_on_c, 1, 73, 127
1, 674807, Note_off_c, 1, 73, 0
1, 674818, Note_on_c, 1, 71, 127
1, 674957, Note_off_c, 1, 44, 0
1, 674985, Note_off_c, 1, 71, 0
1, 674996, Note_on_c, 1, 68, 127
1, 674996, Note_on_c, 1, 47, 127
1, 675163, Note_off_c, 1, 68, 0
1, 675163, Note_off_c, 1, 47, 0
1, 675174, Note_on_c, 1, 64, 127
1, 675174, Note_on_c, 1, 49, 127
1, 675341, Note_off_c, 1, 64, 0
1, 675352, Note_on_c, 1, 68, 127
1, 675519, Note_off_c, 1, 68, 0
1, 675531, Note_on_c, 1, 61, 127
1, 675611, Note_off_c, 1, 49, 0
1, 675699, Note_off_c, 1, 61, 0
1, 675710, Note_on_c, 1, 71, 127
1, 675710, Note_on_c, 1, 52, 127
1, 675877, Note_off_c, 1, 71, 0
1, 675877, Note_off_c, 1, 52, 0
1, 675888, Note_on_c, 1, 69, 127
1, 675888, Note_on_c, 1, 54, 127
1, 676055, Note_off_c, 1, 69, 0
1, 676055, Note_off_c, 1, 54, 0
1, 676066, Note_on_c, 1, 66, 127
1, 676066, Note_on_c, 1, 57, 127
1, 676233, Note_off_c, 1, 66, 0
1, 676233, Note_off_c, 1, 57, 0
1, 676244, Note_on_c, 1, 62, 127
1, 676244, Note_on_c, 1, 59, 127
1, 676411, Note_off_c, 1, 62, 0
1, 676411, Note_off_c, 1, 59, 0
1, 676423, Note_on_c, 1, 66, 127
1, 676423, Note_on_c, 1, 54, 127
1, 676590, Note_off_c, 1, 66, 0
1, 676590, Note_off_c, 1, 54, 0
1, 676601, Note_on_c, 1, 59, 127
1, 676601, Note_on_c, 1, 50, 127
1, 676768, Note_off_c, 1, 59, 0
1, 676768, Note_off_c, 1, 50, 0
1, 676779, Note_on_c, 1, 69, 127
1, 676779, Note_on_c, 1, 47, 127
1, 676946, Note_off_c, 1, 69, 0
1, 676946, Note_off_c, 1, 47, 0
1, 676957, Note_on_c, 1, 68, 127
1, 676957, Note_on_c, 1, 52, 127
1, 677124, Note_off_c, 1, 68, 0
1, 677124, Note_off_c, 1, 52, 0
1, 677135, Note_on_c, 1, 64, 127
1, 677135, Note_on_c, 1, 57, 127
1, 677302, Note_off_c, 1, 64, 0
1, 677302, Note_off_c, 1, 57, 0
1, 677314, Note_on_c, 1, 66, 127
1, 677314, Note_on_c, 1, 56, 127
1, 677481, Note_off_c, 1, 66, 0
1, 677481, Note_off_c, 1, 56, 0
1, 677491, Note_on_c, 1, 68, 127
1, 677491, Note_on_c, 1, 54, 127
1, 677658, Note_off_c, 1, 68, 0
1, 677658, Note_off_c, 1, 54, 0
1, 677670, Note_on_c, 1, 69, 127
1, 677670, Note_on_c, 1, 52, 127
1, 677837, Note_off_c, 1, 69, 0
1, 677837, Note_off_c, 1, 52, 0
1, 677848, Note_on_c, 1, 71, 127
1, 677848, Note_on_c, 1, 50, 127
1, 678010, Note_off_c, 1, 71, 0
1, 678010, Note_off_c, 1, 50, 0
1, 678026, Note_on_c, 1, 69, 127
1, 678026, Note_on_c, 1, 49, 127
1, 678193, Note_off_c, 1, 69, 0
1, 678193, Note_off_c, 1, 49, 0
1, 678204, Note_on_c, 1, 71, 127
1, 678204, Note_on_c, 1, 50, 127
1, 678371, Note_off_c, 1, 71, 0
1, 678371, Note_off_c, 1, 50, 0
1, 678382, Note_on_c, 1, 73, 127
1, 678382, Note_on_c, 1, 52, 127
1, 678460, Note_off_c, 1, 73, 0
1, 678472, Note_on_c, 1, 71, 127
1, 678550, Note_off_c, 1, 52, 0
1, 678550, Note_off_c, 1, 71, 0
1, 678562, Note_on_c, 1, 73, 127
1, 678562, Note_on_c, 1, 50, 127
1, 678640, Note_off_c, 1, 73, 0
1, 678651, Note_on_c, 1, 71, 127
1, 678729, Note_off_c, 1, 71, 0
1, 678730, Note_off_c, 1, 50, 0
1, 678741, Note_on_c, 1, 73, 127
1, 678741, Note_on_c, 1, 49, 127
1, 678819, Note_off_c, 1, 73, 0
1, 678831, Note_on_c, 1, 71, 127
1, 678909, Note_off_c, 1, 49, 0
1, 678909, Note_off_c, 1, 71, 0
1, 678920, Note_on_c, 1, 69, 127
1, 678920, Note_on_c, 1, 47, 127
1, 678998, Note_off_c, 1, 69, 0
1, 679009, Note_on_c, 1, 71, 127
1, 679087, Note_off_c, 1, 71, 0
1, 679088, Note_off_c, 1, 47, 0
1, 679099, Note_on_c, 1, 73, 127
1, 679099, Note_on_c, 1, 45, 127
1, 679266, Note_off_c, 1, 73, 0
1, 679266, Note_off_c, 1, 45, 0
1, 679277, Note_on_c, 1, 69, 127
1, 679277, Note_on_c, 1, 50, 127
1, 679444, Note_off_c, 1, 69, 0
1, 679444, Note_off_c, 1, 50, 0
1, 679456, Note_on_c, 1, 71, 127
1, 679456, Note_on_c, 1, 49, 127
1, 679623, Note_off_c, 1, 71, 0
1, 679623, Note_off_c, 1, 49, 0
1, 679634, Note_on_c, 1, 73, 127
1, 679634, Note_on_c, 1, 47, 127
1, 679801, Note_off_c, 1, 73, 0
1, 679801, Note_off_c, 1, 47, 0
1, 679811, Note_on_c, 1, 74, 127
1, 679811, Note_on_c, 1, 45, 127
1, 679978, Note_off_c, 1, 74, 0
1, 679978, Note_off_c, 1, 45, 0
1, 679990, Note_on_c, 1, 76, 127
1, 679990, Note_on_c, 1, 43, 127
1, 680152, Note_off_c, 1, 76, 0
1, 680152, Note_off_c, 1, 43, 0
1, 680168, Note_on_c, 1, 74, 127
1, 680168, Note_on_c, 1, 42, 127
1, 680335, Note_off_c, 1, 74, 0
1, 680335, Note_off_c, 1, 42, 0
1, 680347, Note_on_c, 1, 76, 127
1, 680347, Note_on_c, 1, 43, 127
1, 680514, Note_off_c, 1, 76, 0
1, 680514, Note_off_c, 1, 43, 0
1, 680524, Note_on_c, 1, 78, 127
1, 680524, Note_on_c, 1, 45, 127
1, 680602, Note_off_c, 1, 78, 0
1, 680614, Note_on_c, 1, 76, 127
1, 680692, Note_off_c, 1, 45, 0
1, 680692, Note_off_c, 1, 76, 0
1, 680703, Note_on_c, 1, 78, 127
1, 680703, Note_on_c, 1, 43, 127
1, 680781, Note_off_c, 1, 78, 0
1, 680793, Note_on_c, 1, 76, 127
1, 680871, Note_off_c, 1, 43, 0
1, 680871, Note_off_c, 1, 76, 0
1, 680883, Note_on_c, 1, 78, 127
1, 680883, Note_on_c, 1, 42, 127
1, 680961, Note_off_c, 1, 78, 0
1, 680972, Note_on_c, 1, 76, 127
1, 681050, Note_off_c, 1, 76, 0
1, 681051, Note_off_c, 1, 42, 0
1, 681062, Note_on_c, 1, 74, 127
1, 681062, Note_on_c, 1, 40, 127
1, 681140, Note_off_c, 1, 74, 0
1, 681152, Note_on_c, 1, 76, 127
1, 681230, Note_off_c, 1, 40, 0
1, 681230, Note_off_c, 1, 76, 0
1, 681241, Note_on_c, 1, 78, 127
1, 681241, Note_on_c, 1, 38, 127
1, 681408, Note_off_c, 1, 78, 0
1, 681408, Note_off_c, 1, 38, 0
1, 681419, Note_on_c, 1, 74, 127
1, 681419, Note_on_c, 1, 42, 127
1, 681586, Note_off_c, 1, 74, 0
1, 681586, Note_off_c, 1, 42, 0
1, 681597, Note_on_c, 1, 76, 127
1, 681597, Note_on_c, 1, 43, 127
1, 681764, Note_off_c, 1, 76, 0
1, 681764, Note_off_c, 1, 43, 0
1, 681776, Note_on_c, 1, 78, 127
1, 681776, Note_on_c, 1, 45, 127
1, 681943, Note_off_c, 1, 78, 0
1, 681943, Note_off_c, 1, 45, 0
1, 681954, Note_on_c, 1, 79, 127
1, 681954, Note_on_c, 1, 47, 127
1, 682121, Note_off_c, 1, 79, 0
1, 682121, Note_off_c, 1, 47, 0
1, 682132, Note_on_c, 1, 81, 127
1, 682132, Note_on_c, 1, 49, 127
1, 682290, Note_off_c, 1, 81, 0
1, 682294, Note_off_c, 1, 49, 0
1, 682311, Note_on_c, 1, 80, 127
1, 682311, Note_on_c, 1, 50, 127
1, 682478, Note_off_c, 1, 80, 0
1, 682478, Note_off_c, 1, 50, 0
1, 682489, Note_on_c, 1, 81, 127
1, 682489, Note_on_c, 1, 52, 127
1, 682656, Note_off_c, 1, 81, 0
1, 682656, Note_off_c, 1, 52, 0
1, 682668, Note_on_c, 1, 83, 127
1, 682668, Note_on_c, 1, 50, 127
1, 682746, Note_off_c, 1, 83, 0
1, 682757, Note_on_c, 1, 81, 127
1, 682835, Note_off_c, 1, 81, 0
1, 682836, Note_off_c, 1, 50, 0
1, 682846, Note_on_c, 1, 83, 127
1, 682846, Note_on_c, 1, 49, 127
1, 682924, Note_off_c, 1, 83, 0
1, 682936, Note_on_c, 1, 81, 127
1, 683014, Note_off_c, 1, 49, 0
1, 683014, Note_off_c, 1, 81, 0
1, 683025, Note_on_c, 1, 83, 127
1, 683025, Note_on_c, 1, 47, 127
1, 683103, Note_off_c, 1, 83, 0
1, 683115, Note_on_c, 1, 81, 127
1, 683193, Note_off_c, 1, 47, 0
1, 683193, Note_off_c, 1, 81, 0
1, 683205, Note_on_c, 1, 80, 127
1, 683205, Note_on_c, 1, 45, 127
1, 683283, Note_off_c, 1, 80, 0
1, 683294, Note_on_c, 1, 81, 127
1, 683372, Note_off_c, 1, 81, 0
1, 683373, Note_off_c, 1, 45, 0
1, 683384, Note_on_c, 1, 83, 127
1, 683384, Note_on_c, 1, 44, 127
1, 683551, Note_off_c, 1, 83, 0
1, 683551, Note_off_c, 1, 44, 0
1, 683562, Note_on_c, 1, 81, 127
1, 683562, Note_on_c, 1, 40, 127
1, 683729, Note_off_c, 1, 81, 0
1, 683729, Note_off_c, 1, 40, 0
1, 683740, Note_on_c, 1, 80, 127
1, 683740, Note_on_c, 1, 42, 127
1, 683907, Note_off_c, 1, 80, 0
1, 683907, Note_off_c, 1, 42, 0
1, 683918, Note_on_c, 1, 78, 127
1, 683918, Note_on_c, 1, 44, 127
1, 684085, Note_off_c, 1, 78, 0
1, 684085, Note_off_c, 1, 44, 0
1, 684097, Note_on_c, 1, 76, 127
1, 684097, Note_on_c, 1, 45, 127
1, 684264, Note_off_c, 1, 76, 0
1, 684264, Note_off_c, 1, 45, 0
1, 684275, Note_on_c, 1, 74, 127
1, 684275, Note_on_c, 1, 47, 127
1, 684442, Note_off_c, 1, 74, 0
1, 684442, Note_off_c, 1, 47, 0
1, 684453, Note_on_c, 1, 73, 127
1, 684453, Note_on_c, 1, 45, 127
1, 684620, Note_off_c, 1, 73, 0
1, 684620, Note_off_c, 1, 45, 0
1, 684631, Note_on_c, 1, 71, 127
1, 684631, Note_on_c, 1, 47, 127
1, 684798, Note_off_c, 1, 71, 0
1, 684798, Note_off_c, 1, 47, 0
1, 684809, Note_on_c, 1, 49, 127
1, 684809, Note_on_c, 1, 69, 127
1, 684887, Note_off_c, 1, 49, 0
1, 684899, Note_on_c, 1, 47, 127
1, 684977, Note_off_c, 1, 69, 0
1, 684977, Note_off_c, 1, 47, 0
1, 684989, Note_on_c, 1, 49, 127
1, 684989, Note_on_c, 1, 71, 127
1, 685067, Note_off_c, 1, 49, 0
1, 685079, Note_on_c, 1, 47, 127
1, 685157, Note_off_c, 1, 71, 0
1, 685157, Note_off_c, 1, 47, 0
1, 685167, Note_on_c, 1, 49, 127
1, 685167, Note_on_c, 1, 73, 127
1, 685245, Note_off_c, 1, 49, 0
1, 685257, Note_on_c, 1, 47, 127
1, 685335, Note_off_c, 1, 73, 0
1, 685335, Note_off_c, 1, 47, 0
1, 685347, Note_on_c, 1, 45, 127
1, 685347, Note_on_c, 1, 74, 127
1, 685425, Note_off_c, 1, 45, 0
1, 685436, Note_on_c, 1, 47, 127
1, 685514, Note_off_c, 1, 47, 0
1, 685515, Note_off_c, 1, 74, 0
1, 685526, Note_on_c, 1, 76, 127
1, 685526, Note_on_c, 1, 49, 127
1, 685693, Note_off_c, 1, 76, 0
1, 685693, Note_off_c, 1, 49, 0
1, 685704, Note_on_c, 1, 74, 127
1, 685704, Note_on_c, 1, 47, 127
1, 685871, Note_off_c, 1, 74, 0
1, 685871, Note_off_c, 1, 47, 0
1, 685882, Note_on_c, 1, 73, 127
1, 685882, Note_on_c, 1, 45, 127
1, 686049, Note_off_c, 1, 73, 0
1, 686049, Note_off_c, 1, 45, 0
1, 686060, Note_on_c, 1, 71, 127
1, 686060, Note_on_c, 1, 47, 127
1, 686227, Note_off_c, 1, 71, 0
1, 686227, Note_off_c, 1, 47, 0
1, 686239, Note_on_c, 1, 69, 127
1, 686239, Note_on_c, 1, 49, 127
1, 686406, Note_off_c, 1, 69, 0
1, 686406, Note_off_c, 1, 49, 0
1, 686417, Note_on_c, 1, 67, 127
1, 686417, Note_on_c, 1, 45, 127
1, 686584, Note_off_c, 1, 67, 0
1, 686584, Note_off_c, 1, 45, 0
1, 686595, Note_on_c, 1, 66, 127
1, 686595, Note_on_c, 1, 50, 127
1, 686762, Note_off_c, 1, 66, 0
1, 686762, Note_off_c, 1, 50, 0
1, 686773, Note_on_c, 1, 76, 127
1, 686773, Note_on_c, 1, 49, 127
1, 686940, Note_off_c, 1, 76, 0
1, 686940, Note_off_c, 1, 49, 0
1, 686951, Note_on_c, 1, 74, 127
1, 686951, Note_on_c, 1, 47, 127
1, 687118, Note_off_c, 1, 74, 0
1, 687118, Note_off_c, 1, 47, 0
1, 687130, Note_on_c, 1, 73, 127
1, 687130, Note_on_c, 1, 49, 127
1, 687297, Note_off_c, 1, 73, 0
1, 687297, Note_off_c, 1, 49, 0
1, 687308, Note_on_c, 1, 71, 127
1, 687308, Note_on_c, 1, 50, 127
1, 687475, Note_off_c, 1, 71, 0
1, 687475, Note_off_c, 1, 50, 0
1, 687485, Note_on_c, 1, 69, 127
1, 687485, Note_on_c, 1, 47, 127
1, 687652, Note_off_c, 1, 69, 0
1, 687652, Note_off_c, 1, 47, 0
1, 687664, Note_on_c, 1, 68, 127
1, 687664, Note_on_c, 1, 52, 127
1, 687831, Note_off_c, 1, 68, 0
1, 687831, Note_off_c, 1, 52, 0
1, 687842, Note_on_c, 1, 64, 127
1, 687842, Note_on_c, 1, 54, 127
1, 688009, Note_off_c, 1, 64, 0
1, 688009, Note_off_c, 1, 54, 0
1, 688021, Note_on_c, 1, 66, 127
1, 688021, Note_on_c, 1, 52, 127
1, 688188, Note_off_c, 1, 66, 0
1, 688188, Note_off_c, 1, 52, 0
1, 688198, Note_on_c, 1, 68, 127
1, 688198, Note_on_c, 1, 50, 127
1, 688365, Note_off_c, 1, 68, 0
1, 688365, Note_off_c, 1, 50, 0
1, 688377, Note_on_c, 1, 69, 127
1, 688377, Note_on_c, 1, 49, 127
1, 688544, Note_off_c, 1, 69, 0
1, 688544, Note_off_c, 1, 49, 0
1, 688555, Note_on_c, 1, 68, 127
1, 688555, Note_on_c, 1, 47, 127
1, 688722, Note_off_c, 1, 68, 0
1, 688722, Note_off_c, 1, 47, 0
1, 688733, Note_on_c, 1, 69, 127
1, 688733, Note_on_c, 1, 49, 127
1, 688900, Note_off_c, 1, 69, 0
1, 688900, Note_off_c, 1, 49, 0
1, 688911, Note_on_c, 1, 71, 127
1, 688911, Note_on_c, 1, 50, 127
1, 689078, Note_off_c, 1, 71, 0
1, 689078, Note_off_c, 1, 50, 0
1, 689089, Note_on_c, 1, 69, 127
1, 689089, Note_on_c, 1, 52, 127
1, 689145, Note_off_c, 1, 69, 0
1, 689149, Note_on_c, 1, 68, 127
1, 689206, Note_off_c, 1, 68, 0
1, 689437, Note_off_c, 1, 52, 0
1, 689449, Note_on_c, 1, 40, 127
1, 689795, Note_off_c, 1, 40, 0
1, 689806, Note_on_c, 1, 69, 127
1, 689806, Note_on_c, 1, 45, 127
1, 689973, Note_off_c, 1, 69, 0
1, 689984, Note_on_c, 1, 71, 127
1, 690151, Note_off_c, 1, 45, 0
1, 690151, Note_off_c, 1, 71, 0
1, 690162, Note_on_c, 1, 73, 127
1, 690162, Note_on_c, 1, 57, 127
1, 690329, Note_off_c, 1, 73, 0
1, 690329, Note_off_c, 1, 57, 0
1, 690341, Note_on_c, 1, 74, 127
1, 690341, Note_on_c, 1, 56, 127
1, 690508, Note_off_c, 1, 74, 0
1, 690508, Note_off_c, 1, 56, 0
1, 690518, Note_on_c, 1, 76, 127
1, 690518, Note_on_c, 1, 54, 127
1, 690685, Note_off_c, 1, 76, 0
1, 690685, Note_off_c, 1, 54, 0
1, 690697, Note_on_c, 1, 73, 127
1, 690697, Note_on_c, 1, 52, 127
1, 690864, Note_off_c, 1, 73, 0
1, 690864, Note_off_c, 1, 52, 0
1, 690875, Note_on_c, 1, 78, 127
1, 690875, Note_on_c, 1, 50, 127
1, 691042, Note_off_c, 1, 78, 0
1, 691054, Note_on_c, 1, 76, 127
1, 691220, Note_off_c, 1, 50, 0
1, 691221, Note_off_c, 1, 76, 0
1, 691231, Note_on_c, 1, 52, 127
1, 691231, Note_on_c, 1, 74, 127
1, 691309, Note_off_c, 1, 52, 0
1, 691321, Note_on_c, 1, 50, 127
1, 691399, Note_off_c, 1, 74, 0
1, 691399, Note_off_c, 1, 50, 0
1, 691410, Note_on_c, 1, 52, 127
1, 691410, Note_on_c, 1, 73, 127
1, 691488, Note_off_c, 1, 52, 0
1, 691500, Note_on_c, 1, 50, 127
1, 691578, Note_off_c, 1, 73, 0
1, 691578, Note_off_c, 1, 50, 0
1, 691590, Note_on_c, 1, 52, 127
1, 691590, Note_on_c, 1, 71, 127
1, 691668, Note_off_c, 1, 52, 0
1, 691679, Note_on_c, 1, 50, 127
1, 691757, Note_off_c, 1, 50, 0
1, 691758, Note_off_c, 1, 71, 0
1, 691769, Note_on_c, 1, 49, 127
1, 691769, Note_on_c, 1, 69, 127
1, 691847, Note_off_c, 1, 49, 0
1, 691859, Note_on_c, 1, 50, 127
1, 691937, Note_off_c, 1, 69, 0
1, 691937, Note_off_c, 1, 50, 0
1, 691948, Note_on_c, 1, 68, 127
1, 691948, Note_on_c, 1, 52, 127
1, 692115, Note_off_c, 1, 68, 0
1, 692115, Note_off_c, 1, 52, 0
1, 692126, Note_on_c, 1, 69, 127
1, 692126, Note_on_c, 1, 54, 127
1, 692293, Note_off_c, 1, 69, 0
1, 692293, Note_off_c, 1, 54, 0
1, 692304, Note_on_c, 1, 71, 127
1, 692304, Note_on_c, 1, 56, 127
1, 692471, Note_off_c, 1, 71, 0
1, 692471, Note_off_c, 1, 56, 0
1, 692483, Note_on_c, 1, 73, 127
1, 692483, Note_on_c, 1, 54, 127
1, 692650, Note_off_c, 1, 73, 0
1, 692650, Note_off_c, 1, 54, 0
1, 692661, Note_on_c, 1, 74, 127
1, 692661, Note_on_c, 1, 52, 127
1, 692828, Note_off_c, 1, 74, 0
1, 692828, Note_off_c, 1, 52, 0
1, 692838, Note_on_c, 1, 71, 127
1, 692838, Note_on_c, 1, 50, 127
1, 693005, Note_off_c, 1, 71, 0
1, 693005, Note_off_c, 1, 50, 0
1, 693017, Note_on_c, 1, 76, 127
1, 693017, Note_on_c, 1, 49, 127
1, 693184, Note_off_c, 1, 76, 0
1, 693195, Note_on_c, 1, 74, 127
1, 693362, Note_off_c, 1, 49, 0
1, 693362, Note_off_c, 1, 74, 0
1, 693374, Note_on_c, 1, 50, 127
1, 693374, Note_on_c, 1, 73, 127
1, 693452, Note_off_c, 1, 50, 0
1, 693463, Note_on_c, 1, 49, 127
1, 693541, Note_off_c, 1, 49, 0
1, 693542, Note_off_c, 1, 73, 0
1, 693552, Note_on_c, 1, 50, 127
1, 693552, Note_on_c, 1, 71, 127
1, 693630, Note_off_c, 1, 50, 0
1, 693642, Note_on_c, 1, 49, 127
1, 693720, Note_off_c, 1, 71, 0
1, 693720, Note_off_c, 1, 49, 0
1, 693731, Note_on_c, 1, 50, 127
1, 693731, Note_on_c, 1, 69, 127
1, 693809, Note_off_c, 1, 50, 0
1, 693821, Note_on_c, 1, 49, 127
1, 693899, Note_off_c, 1, 69, 0
1, 693899, Note_off_c, 1, 49, 0
1, 693911, Note_on_c, 1, 47, 127
1, 693911, Note_on_c, 1, 68, 127
1, 693989, Note_off_c, 1, 47, 0
1, 694000, Note_on_c, 1, 49, 127
1, 694078, Note_off_c, 1, 49, 0
1, 694079, Note_off_c, 1, 68, 0
1, 694090, Note_on_c, 1, 66, 127
1, 694090, Note_on_c, 1, 50, 127
1, 694257, Note_off_c, 1, 66, 0
1, 694257, Note_off_c, 1, 50, 0
1, 694268, Note_on_c, 1, 68, 127
1, 694268, Note_on_c, 1, 52, 127
1, 694435, Note_off_c, 1, 68, 0
1, 694435, Note_off_c, 1, 52, 0
1, 694446, Note_on_c, 1, 69, 127
1, 694446, Note_on_c, 1, 54, 127
1, 694613, Note_off_c, 1, 69, 0
1, 694613, Note_off_c, 1, 54, 0
1, 694624, Note_on_c, 1, 71, 127
1, 694624, Note_on_c, 1, 52, 127
1, 694791, Note_off_c, 1, 71, 0
1, 694791, Note_off_c, 1, 52, 0
1, 694803, Note_on_c, 1, 73, 127
1, 694803, Note_on_c, 1, 50, 127
1, 694970, Note_off_c, 1, 73, 0
1, 694970, Note_off_c, 1, 50, 0
1, 694981, Note_on_c, 1, 69, 127
1, 694981, Note_on_c, 1, 49, 127
1, 695148, Note_off_c, 1, 69, 0
1, 695148, Note_off_c, 1, 49, 0
1, 695159, Note_on_c, 1, 74, 127
1, 695159, Note_on_c, 1, 47, 127
1, 695326, Note_off_c, 1, 74, 0
1, 695326, Note_off_c, 1, 47, 0
1, 695337, Note_on_c, 1, 73, 127
1, 695337, Note_on_c, 1, 49, 127
1, 695504, Note_off_c, 1, 73, 0
1, 695504, Note_off_c, 1, 49, 0
1, 695515, Note_on_c, 1, 71, 127
1, 695515, Note_on_c, 1, 50, 127
1, 695682, Note_off_c, 1, 71, 0
1, 695682, Note_off_c, 1, 50, 0
1, 695694, Note_on_c, 1, 69, 127
1, 695694, Note_on_c, 1, 49, 127
1, 695861, Note_off_c, 1, 69, 0
1, 695861, Note_off_c, 1, 49, 0
1, 695871, Note_on_c, 1, 68, 127
1, 695871, Note_on_c, 1, 47, 127
1, 696038, Note_off_c, 1, 68, 0
1, 696038, Note_off_c, 1, 47, 0
1, 696050, Note_on_c, 1, 66, 127
1, 696050, Note_on_c, 1, 45, 127
1, 696217, Note_off_c, 1, 66, 0
1, 696217, Note_off_c, 1, 45, 0
1, 696228, Note_on_c, 1, 64, 127
1, 696228, Note_on_c, 1, 44, 127
1, 696398, Note_off_c, 1, 64, 0
1, 696409, Note_on_c, 1, 74, 127
1, 696579, Note_off_c, 1, 44, 0
1, 696579, Note_off_c, 1, 74, 0
1, 696590, Note_on_c, 1, 73, 127
1, 696590, Note_on_c, 1, 52, 127
1, 696760, Note_off_c, 1, 73, 0
1, 696771, Note_on_c, 1, 71, 127
1, 696941, Note_off_c, 1, 52, 0
1, 696941, Note_off_c, 1, 71, 0
1, 696952, Note_on_c, 1, 69, 127
1, 696952, Note_on_c, 1, 54, 127
1, 697122, Note_off_c, 1, 69, 0
1, 697133, Note_on_c, 1, 68, 127
1, 697303, Note_off_c, 1, 54, 0
1, 697303, Note_off_c, 1, 68, 0
1, 697315, Note_on_c, 1, 69, 127
1, 697315, Note_on_c, 1, 50, 127
1, 697485, Note_off_c, 1, 69, 0
1, 697495, Note_on_c, 1, 71, 127
1, 697665, Note_off_c, 1, 71, 0
1, 697666, Note_off_c, 1, 50, 0
1, 697676, Note_on_c, 1, 73, 127
1, 697676, Note_on_c, 1, 52, 127
1, 697748, Note_off_c, 1, 73, 0
1, 697754, Note_on_c, 1, 71, 127
1, 697826, Note_off_c, 1, 71, 0
1, 698035, Note_off_c, 1, 52, 0
1, 698046, Note_on_c, 1, 40, 127
1, 698230, Note_on_c, 1, 69, 127
1, 698404, Note_off_c, 1, 40, 0
1, 698404, Note_off_c, 1, 69, 0
1, 698415, Note_on_c, 1, 69, 127
1, 698415, Note_on_c, 1, 33, 127
1, 698833, Note_on_c, 1, 37, 127
1, 699241, Note_off_c, 1, 37, 0
1, 699252, Note_on_c, 1, 40, 127
1, 699660, Note_off_c, 1, 40, 0
1, 699670, Note_on_c, 1, 45, 127
1, 702624, Note_off_c, 1, 69, 0
1, 702624, Note_off_c, 1, 33, 0
1, 702624, Note_off_c, 1, 45, 0
1, 702624, End_track
0, 0, End_of_file