0, 0, Header, 1, 1, 480
1, 0, Start_track
1, 0, Title_t, "Test"
1, 0, Tempo, 500000
1, 0, Instrument_name_t, "Church Organ"
1, 65, Note_on_c, 1, 51, 127
1, 133, Note_on_c, 1, 50, 127
1, 137, Note_off_c, 1, 51, 0
1, 246, Note_off_c, 1, 50, 0
1, 430, Note_on_c, 1, 67, 127
1, 510, Note_on_c, 1, 68, 127
1, 540, Note_off_c, 1, 67, 0
1, 590, Note_on_c, 1, 70, 127
1, 620, Note_off_c, 1, 68, 0
1, 700, Note_off_c, 1, 70, 0
1, 831, Note_on_c, 1, 65, 127
1, 911, Note_on_c, 1, 63, 127
1, 941, Note_off_c, 1, 65, 0
1, 991, Note_on_c, 1, 73, 127
1, 1283, Note_on_c, 1, 55, 127
1, 1368, Note_on_c, 1, 56, 127
1, 1404, Note_off_c, 1, 55, 0
1, 1455, Note_on_c, 1, 58, 127
1, 1478, Note_off_c, 1, 56, 0
1, 1565, Note_off_c, 1, 58, 0
1, 1713, Note_on_c, 1, 53, 127
1, 1823, Note_off_c, 1, 53, 0
1, 2097, Note_off_c, 1, 63, 0
1, 2113, Note_off_c, 1, 73, 0
1, 2207, Note_on_c, 1, 72, 127
1, 2317, Note_off_c, 1, 72, 0
1, 2378, Note_on_c, 1, 75, 127
1, 2488, Note_off_c, 1, 75, 0
1, 2779, Note_on_c, 1, 77, 127
1, 3243, Note_on_c, 1, 60, 127
1, 3353, Note_off_c, 1, 60, 0
1, 3674, Note_on_c, 1, 62, 127
1, 3901, Note_off_c, 1, 77, 0
1, 3995, Note_on_c, 1, 74, 127
1, 4105, Note_off_c, 1, 74, 0
1, 4568, Note_on_c, 1, 80, 127
1, 4796, Note_off_c, 1, 62, 0
1, 5690, Note_off_c, 1, 80, 0
1, 5874, Note_on_c, 1, 79, 127
1, 5984, Note_off_c, 1, 79, 0
1, 8143, Note_on_c, 1, 84, 127
1, 8945, Note_on_c, 1, 48, 127
1, 9055, Note_off_c, 1, 48, 0
1, 9147, Note_off_c, 1, 84, 0
1, 9316, Note_on_c, 1, 81, 127
1, 9414, Note_on_c, 1, 82, 127
1, 9426, Note_off_c, 1, 81, 0
1, 9524, Note_off_c, 1, 82, 0
1, 9759, Note_on_c, 1, 46, 127
1, 9844, Note_on_c, 1, 45, 127
1, 9869, Note_off_c, 1, 46, 0
1, 9954, Note_off_c, 1, 45, 0
1, 10727, Note_on_c, 1, 43, 127
1, 10837, Note_off_c, 1, 43, 0
1, 11718, Note_on_c, 1, 57, 127
1, 12609, Note_off_c, 1, 57, 0
1, 13134, Note_on_c, 1, 69, 127
1, 13207, Note_off_c, 1, 69, 0
1, 18856, Note_on_c, 1, 62, 127
1, 18856, Note_on_c, 1, 58, 127
1, 19296, Note_off_c, 1, 62, 0
1, 19298, Note_on_c, 1, 60, 127
1, 19738, Note_off_c, 1, 58, 0
1, 19739, Note_on_c, 1, 56, 127
1, 20179, Note_off_c, 1, 56, 0
1, 20180, Note_off_c, 1, 60, 0
1, 20182, Note_on_c, 1, 58, 127
1, 20182, Note_on_c, 1, 63, 127
1, 20182, Note_on_c, 1, 55, 127
1, 20622, Note_off_c, 1, 58, 0
1, 20622, Note_off_c, 1, 63, 0
1, 20624, Note_on_c, 1, 60, 127
1, 20624, Note_on_c, 1, 68, 127
1, 21064, Note_off_c, 1, 55, 0
1, 21064, Note_off_c, 1, 60, 0
1, 21067, Note_on_c, 1, 53, 127
1, 21067, Note_on_c, 1, 62, 127
1, 21506, Note_off_c, 1, 68, 0
1, 21507, Note_off_c, 1, 53, 0
1, 21507, Note_off_c, 1, 62, 0
1, 21509, Note_on_c, 1, 63, 127
1, 21509, Note_on_c, 1, 70, 127
1, 21509, Note_on_c, 1, 51, 127
1, 21509, Note_on_c, 1, 67, 127
1, 21949, Note_off_c, 1, 63, 0
1, 21949, Note_off_c, 1, 70, 0
1, 21951, Note_on_c, 1, 61, 127
1, 21951, Note_on_c, 1, 75, 127
1, 22391, Note_off_c, 1, 51, 0
1, 22391, Note_off_c, 1, 67, 0
1, 22391, Note_off_c, 1, 61, 0
1, 22394, Note_on_c, 1, 60, 127
1, 22394, Note_on_c, 1, 56, 127
1, 22394, Note_on_c, 1, 65, 127
1, 22833, Note_off_c, 1, 75, 0
1, 22834, Note_off_c, 1, 60, 0
1, 22836, Note_on_c, 1, 74, 127
1, 22836, Note_on_c, 1, 58, 127
1, 23276, Note_off_c, 1, 56, 0
1, 23276, Note_off_c, 1, 65, 0
1, 23276, Note_off_c, 1, 74, 0
1, 23279, Note_on_c, 1, 55, 127
1, 23718, Note_off_c, 1, 58, 0
1, 23719, Note_off_c, 1, 55, 0
1, 24162, Note_on_c, 1, 72, 127
1, 24162, Note_on_c, 1, 80, 127
1, 24602, Note_off_c, 1, 72, 0
1, 24605, Note_on_c, 1, 62, 127
1, 25044, Note_off_c, 1, 80, 0
1, 25045, Note_off_c, 1, 62, 0
1, 25047, Note_on_c, 1, 79, 127
1, 25929, Note_off_c, 1, 79, 0
1, 25932, Note_on_c, 1, 77, 127
1, 25932, Note_on_c, 1, 68, 127
1, 26151, Note_off_c, 1, 77, 0
1, 26814, Note_off_c, 1, 68, 0
1, 28143, Note_on_c, 1, 76, 127
1, 28583, Note_off_c, 1, 76, 0
1, 29028, Note_on_c, 1, 71, 127
1, 29468, Note_off_c, 1, 71, 0
1, 29470, Note_on_c, 1, 72, 127
1, 29470, Note_on_c, 1, 63, 127
1, 29470, Note_on_c, 1, 75, 127
1, 29470, Note_on_c, 1, 60, 127
1, 29689, Note_off_c, 1, 72, 0
1, 29691, Note_on_c, 1, 70, 127
1, 29910, Note_off_c, 1, 63, 0
1, 29910, Note_off_c, 1, 75, 0
1, 29910, Note_off_c, 1, 70, 0
1, 29913, Note_on_c, 1, 65, 127
1, 29913, Note_on_c, 1, 68, 127
1, 29913, Note_on_c, 1, 74, 127
1, 30132, Note_off_c, 1, 65, 0
1, 30352, Note_off_c, 1, 60, 0
1, 30353, Note_off_c, 1, 68, 0
1, 30353, Note_off_c, 1, 74, 0
1, 30355, Note_on_c, 1, 58, 127
1, 30355, Note_on_c, 1, 62, 127
1, 30355, Note_on_c, 1, 70, 127
1, 30355, Note_on_c, 1, 79, 127
1, 30795, Note_off_c, 1, 58, 0
1, 30795, Note_off_c, 1, 62, 0
1, 30795, Note_off_c, 1, 70, 0
1, 30797, Note_on_c, 1, 60, 127
1, 30797, Note_on_c, 1, 63, 127
1, 30797, Note_on_c, 1, 68, 127
1, 31237, Note_off_c, 1, 79, 0
1, 31237, Note_off_c, 1, 60, 0
1, 31237, Note_off_c, 1, 63, 0
1, 31239, Note_on_c, 1, 65, 127
1, 31239, Note_on_c, 1, 77, 127
1, 31679, Note_off_c, 1, 65, 0
1, 31681, Note_on_c, 1, 55, 127
1, 32121, Note_off_c, 1, 77, 0
1, 32122, Note_off_c, 1, 68, 0
1, 32124, Note_on_c, 1, 67, 127
1, 32124, Note_on_c, 1, 75, 127
1, 32342, Note_off_c, 1, 55, 0
1, 32345, Note_on_c, 1, 56, 127
1, 32564, Note_off_c, 1, 67, 0
1, 32564, Note_off_c, 1, 56, 0
1, 33006, Note_off_c, 1, 75, 0
1, 33008, Note_on_c, 1, 46, 127
1, 33008, Note_on_c, 1, 74, 127
1, 33448, Note_off_c, 1, 46, 0
1, 33451, Note_on_c, 1, 51, 127
1, 33890, Note_off_c, 1, 74, 0
1, 33893, Note_on_c, 1, 72, 127
1, 34112, Note_off_c, 1, 72, 0
1, 34336, Note_on_c, 1, 69, 127
1, 34776, Note_off_c, 1, 51, 0
1, 34776, Note_off_c, 1, 69, 0
1, 34777, Note_on_c, 1, 50, 127
1, 35217, Note_off_c, 1, 50, 0
1, 36104, Note_on_c, 1, 53, 127
1, 37871, Note_off_c, 1, 53, 0
1, 37874, Note_on_c, 1, 62, 127
1, 37874, Note_on_c, 1, 55, 127
1, 37874, Note_on_c, 1, 70, 127
1, 38093, Note_off_c, 1, 62, 0
1, 38094, Note_on_c, 1, 58, 127
1, 38312, Note_off_c, 1, 58, 0
1, 38316, Note_on_c, 1, 67, 127
1, 38316, Note_on_c, 1, 63, 127
1, 38425, Note_off_c, 1, 55, 0
1, 38427, Note_on_c, 1, 53, 127
1, 38536, Note_off_c, 1, 53, 0
1, 38537, Note_on_c, 1, 51, 127
1, 38646, Note_off_c, 1, 51, 0
1, 38647, Note_on_c, 1, 50, 127
1, 38756, Note_off_c, 1, 70, 0
1, 38756, Note_off_c, 1, 50, 0
1, 38758, Note_on_c, 1, 48, 127
1, 38758, Note_on_c, 1, 68, 127
1, 39198, Note_off_c, 1, 67, 0
1, 39198, Note_off_c, 1, 63, 0
1, 39198, Note_off_c, 1, 48, 0
1, 39200, Note_on_c, 1, 65, 127
1, 39640, Note_off_c, 1, 68, 0
1, 40082, Note_off_c, 1, 65, 0
1, 40195, Note_on_c, 1, 49, 127
1, 40304, Note_off_c, 1, 49, 0
1, 40305, Note_on_c, 1, 61, 127
1, 40417, Note_on_c, 1, 46, 127
1, 40524, Note_off_c, 1, 61, 0
1, 40526, Note_off_c, 1, 46, 0
1, 40527, Note_on_c, 1, 44, 127
1, 40527, Note_on_c, 1, 60, 127
1, 40970, Note_on_c, 1, 56, 127
1, 41189, Note_off_c, 1, 56, 0
1, 41409, Note_off_c, 1, 44, 0
1, 41409, Note_off_c, 1, 60, 0
1, 41412, Note_on_c, 1, 53, 127
1, 41412, Note_on_c, 1, 46, 127
1, 41412, Note_on_c, 1, 62, 127
1, 41852, Note_off_c, 1, 53, 0
1, 41854, Note_on_c, 1, 55, 127
1, 41854, Note_on_c, 1, 58, 127
1, 42073, Note_off_c, 1, 55, 0
1, 42294, Note_off_c, 1, 46, 0
1, 42294, Note_off_c, 1, 62, 0
1, 42296, Note_on_c, 1, 51, 127
1, 42296, Note_on_c, 1, 48, 127
1, 42296, Note_on_c, 1, 63, 127
1, 42750, Note_off_c, 1, 58, 0
1, 42752, Note_on_c, 1, 57, 127
1, 42977, Note_off_c, 1, 51, 0
1, 43205, Note_off_c, 1, 48, 0
1, 43206, Note_off_c, 1, 57, 0
1, 43670, Note_off_c, 1, 63, 0
1, 43917, Note_on_c, 1, 60, 127
1, 44154, Note_off_c, 1, 60, 0
1, 44287, Note_on_c, 1, 70, 127
1, 44405, Note_off_c, 1, 70, 0
1, 44408, Note_on_c, 1, 72, 127
1, 44526, Note_off_c, 1, 72, 0
1, 44527, Note_on_c, 1, 74, 127
1, 44645, Note_off_c, 1, 74, 0
1, 44648, Note_on_c, 1, 72, 127
1, 44648, Note_on_c, 1, 51, 127
1, 44766, Note_off_c, 1, 72, 0
1, 44767, Note_on_c, 1, 70, 127
1, 44885, Note_off_c, 1, 70, 0
1, 44887, Note_on_c, 1, 69, 127
1, 45005, Note_off_c, 1, 69, 0
1, 45007, Note_on_c, 1, 67, 127
1, 45125, Note_off_c, 1, 67, 0
1, 45127, Note_on_c, 1, 65, 127
1, 45364, Note_off_c, 1, 65, 0
1, 45604, Note_off_c, 1, 51, 0
1, 45607, Note_on_c, 1, 70, 127
1, 45607, Note_on_c, 1, 50, 127
1, 45725, Note_off_c, 1, 70, 0
1, 45726, Note_on_c, 1, 69, 127
1, 45844, Note_off_c, 1, 69, 0
1, 45846, Note_on_c, 1, 67, 127
1, 45964, Note_off_c, 1, 67, 0
1, 45966, Note_on_c, 1, 65, 127
1, 46084, Note_off_c, 1, 50, 0
1, 46084, Note_off_c, 1, 65, 0
1, 46086, Note_on_c, 1, 63, 127
1, 46086, Note_on_c, 1, 55, 127
1, 46204, Note_off_c, 1, 63, 0
1, 46206, Note_on_c, 1, 62, 127
1, 46324, Note_off_c, 1, 62, 0
1, 46326, Note_on_c, 1, 60, 127
1, 46444, Note_off_c, 1, 60, 0
1, 46445, Note_on_c, 1, 58, 127
1, 46563, Note_off_c, 1, 58, 0
1, 47042, Note_off_c, 1, 55, 0
1, 47045, Note_on_c, 1, 63, 127
1, 47045, Note_on_c, 1, 53, 127
1, 47165, Note_on_c, 1, 68, 127
1, 47283, Note_off_c, 1, 68, 0
1, 47285, Note_on_c, 1, 70, 127
1, 47403, Note_off_c, 1, 70, 0
1, 47405, Note_on_c, 1, 72, 127
1, 47522, Note_off_c, 1, 63, 0
1, 47523, Note_off_c, 1, 72, 0
1, 47525, Note_on_c, 1, 62, 127
1, 47765, Note_on_c, 1, 67, 127
1, 47883, Note_off_c, 1, 67, 0
1, 47884, Note_on_c, 1, 65, 127
1, 48001, Note_off_c, 1, 53, 0
1, 48002, Note_off_c, 1, 62, 0
1, 48002, Note_off_c, 1, 65, 0
1, 48004, Note_on_c, 1, 67, 127
1, 48004, Note_on_c, 1, 63, 127
1, 48004, Note_on_c, 1, 51, 127
1, 48124, Note_off_c, 1, 67, 0
1, 48126, Note_on_c, 1, 75, 127
1, 48246, Note_off_c, 1, 75, 0
1, 48249, Note_on_c, 1, 77, 127
1, 48369, Note_off_c, 1, 77, 0
1, 48370, Note_on_c, 1, 79, 127
1, 48488, Note_off_c, 1, 63, 0
1, 48490, Note_off_c, 1, 79, 0
1, 48493, Note_on_c, 1, 56, 127
1, 48735, Note_off_c, 1, 51, 0
1, 48737, Note_on_c, 1, 74, 127
1, 48737, Note_on_c, 1, 53, 127
1, 48857, Note_off_c, 1, 74, 0
1, 48860, Note_on_c, 1, 72, 127
1, 48980, Note_off_c, 1, 53, 0
1, 48980, Note_off_c, 1, 72, 0
1, 48982, Note_on_c, 1, 70, 127
1, 48982, Note_on_c, 1, 55, 127
1, 49225, Note_off_c, 1, 70, 0
1, 49225, Note_off_c, 1, 55, 0
1, 49469, Note_off_c, 1, 56, 0
1, 49470, Note_on_c, 1, 75, 127
1, 49470, Note_on_c, 1, 51, 127
1, 49470, Note_on_c, 1, 55, 127
1, 49590, Note_off_c, 1, 75, 0
1, 49593, Note_on_c, 1, 74, 127
1, 49713, Note_off_c, 1, 51, 0
1, 49713, Note_off_c, 1, 74, 0
1, 49716, Note_on_c, 1, 72, 127
1, 49716, Note_on_c, 1, 50, 127
1, 49836, Note_off_c, 1, 72, 0
1, 49837, Note_on_c, 1, 70, 127
1, 49954, Note_off_c, 1, 55, 0
1, 49957, Note_off_c, 1, 70, 0
1, 49959, Note_off_c, 1, 50, 0
1, 49960, Note_on_c, 1, 68, 127
1, 49960, Note_on_c, 1, 48, 127
1, 49960, Note_on_c, 1, 60, 127
1, 50080, Note_off_c, 1, 68, 0
1, 50080, Note_off_c, 1, 48, 0
1, 50082, Note_on_c, 1, 67, 127
1, 50082, Note_on_c, 1, 51, 127
1, 50202, Note_off_c, 1, 67, 0
1, 50202, Note_off_c, 1, 51, 0
1, 50204, Note_on_c, 1, 65, 127
1, 50204, Note_on_c, 1, 53, 127
1, 50324, Note_off_c, 1, 65, 0
1, 50324, Note_off_c, 1, 53, 0
1, 50326, Note_on_c, 1, 63, 127
1, 50326, Note_on_c, 1, 55, 127
1, 50446, Note_off_c, 1, 63, 0
1, 50446, Note_off_c, 1, 55, 0
1, 50693, Note_on_c, 1, 50, 127
1, 50813, Note_off_c, 1, 50, 0
1, 50936, Note_off_c, 1, 60, 0
1, 50937, Note_on_c, 1, 51, 127
1, 50937, Note_on_c, 1, 68, 127
1, 50937, Note_on_c, 1, 58, 127
1, 51057, Note_off_c, 1, 51, 0
1, 51060, Note_on_c, 1, 50, 127
1, 51180, Note_off_c, 1, 50, 0
1, 51181, Note_on_c, 1, 48, 127
1, 51301, Note_off_c, 1, 48, 0
1, 51304, Note_on_c, 1, 46, 127
1, 51424, Note_off_c, 1, 68, 0
1, 51424, Note_off_c, 1, 46, 0
1, 51426, Note_on_c, 1, 67, 127
1, 51546, Note_off_c, 1, 58, 0
1, 51548, Note_on_c, 1, 62, 127
1, 51668, Note_off_c, 1, 62, 0
1, 51670, Note_on_c, 1, 63, 127
1, 51790, Note_off_c, 1, 63, 0
1, 51793, Note_on_c, 1, 65, 127
1, 51913, Note_off_c, 1, 65, 0
1, 52160, Note_on_c, 1, 60, 127
1, 52280, Note_off_c, 1, 60, 0
1, 52402, Note_off_c, 1, 67, 0
1, 52404, Note_on_c, 1, 69, 127
1, 52891, Note_off_c, 1, 69, 0
1, 52892, Note_on_c, 1, 50, 127
1, 52892, Note_on_c, 1, 70, 127
1, 52892, Note_on_c, 1, 65, 127
1, 53012, Note_off_c, 1, 50, 0
1, 53015, Note_on_c, 1, 48, 127
1, 53135, Note_off_c, 1, 70, 0
1, 53135, Note_off_c, 1, 48, 0
1, 53137, Note_on_c, 1, 46, 127
1, 53137, Note_on_c, 1, 72, 127
1, 53257, Note_off_c, 1, 46, 0
1, 53259, Note_on_c, 1, 45, 127
1, 53379, Note_off_c, 1, 45, 0
1, 53380, Note_off_c, 1, 72, 0
1, 53381, Note_on_c, 1, 74, 127
1, 53501, Note_off_c, 1, 65, 0
1, 53625, Note_on_c, 1, 67, 127
1, 53625, Note_on_c, 1, 58, 127
1, 53745, Note_off_c, 1, 67, 0
1, 53748, Note_on_c, 1, 68, 127
1, 53868, Note_off_c, 1, 58, 0
1, 53868, Note_off_c, 1, 68, 0
1, 53871, Note_on_c, 1, 51, 127
1, 54122, Note_on_c, 1, 63, 127
1, 54245, Note_off_c, 1, 63, 0
1, 54248, Note_on_c, 1, 62, 127
1, 54371, Note_off_c, 1, 62, 0
1, 54496, Note_off_c, 1, 74, 0
1, 54875, Note_off_c, 1, 51, 0
1, 54876, Note_on_c, 1, 69, 127
1, 54876, Note_on_c, 1, 65, 127
1, 55002, Note_on_c, 1, 53, 127
1, 55125, Note_off_c, 1, 69, 0
1, 55125, Note_off_c, 1, 53, 0
1, 55127, Note_on_c, 1, 70, 127
1, 55127, Note_on_c, 1, 55, 127
1, 55250, Note_off_c, 1, 70, 0
1, 55250, Note_off_c, 1, 55, 0
1, 55253, Note_on_c, 1, 72, 127
1, 55253, Note_on_c, 1, 57, 127
1, 55376, Note_off_c, 1, 72, 0
1, 55376, Note_off_c, 1, 57, 0
1, 55378, Note_on_c, 1, 58, 127
1, 55378, Note_on_c, 1, 62, 127
1, 55378, Note_on_c, 1, 74, 127
1, 55501, Note_off_c, 1, 58, 0
1, 55880, Note_off_c, 1, 65, 0
1, 55881, Note_on_c, 1, 51, 127
1, 55881, Note_on_c, 1, 67, 127
1, 56004, Note_off_c, 1, 51, 0
1, 56007, Note_on_c, 1, 50, 127
1, 56130, Note_off_c, 1, 50, 0
1, 56132, Note_on_c, 1, 48, 127
1, 56255, Note_off_c, 1, 48, 0
1, 56258, Note_on_c, 1, 46, 127
1, 56381, Note_off_c, 1, 46, 0
1, 56382, Note_off_c, 1, 62, 0
1, 56384, Note_on_c, 1, 63, 127
1, 56507, Note_off_c, 1, 74, 0
1, 56633, Note_off_c, 1, 63, 0
1, 56762, Note_on_c, 1, 75, 127
1, 56885, Note_off_c, 1, 67, 0
1, 56885, Note_off_c, 1, 75, 0
1, 56887, Note_on_c, 1, 60, 127
1, 56887, Note_on_c, 1, 51, 127
1, 56887, Note_on_c, 1, 77, 127
1, 57013, Note_on_c, 1, 69, 127
1, 57136, Note_off_c, 1, 69, 0
1, 57139, Note_on_c, 1, 70, 127
1, 57262, Note_off_c, 1, 70, 0
1, 57264, Note_on_c, 1, 72, 127
1, 57387, Note_off_c, 1, 72, 0
1, 57388, Note_off_c, 1, 60, 0
1, 57388, Note_off_c, 1, 51, 0
1, 57390, Note_on_c, 1, 50, 127
1, 57390, Note_on_c, 1, 62, 127
1, 57516, Note_on_c, 1, 68, 127
1, 57639, Note_off_c, 1, 68, 0
1, 57641, Note_on_c, 1, 67, 127
1, 57764, Note_off_c, 1, 67, 0
1, 57767, Note_on_c, 1, 65, 127
1, 57890, Note_off_c, 1, 65, 0
1, 57891, Note_off_c, 1, 77, 0
1, 57891, Note_off_c, 1, 50, 0
1, 57893, Note_on_c, 1, 55, 127
1, 58017, Note_off_c, 1, 62, 0
1, 58144, Note_on_c, 1, 79, 127
1, 58144, Note_on_c, 1, 63, 127
1, 58267, Note_off_c, 1, 79, 0
1, 58267, Note_off_c, 1, 63, 0
1, 58270, Note_on_c, 1, 80, 127
1, 58393, Note_off_c, 1, 80, 0
1, 58647, Note_on_c, 1, 75, 127
1, 58770, Note_off_c, 1, 75, 0
1, 58772, Note_on_c, 1, 74, 127
1, 58772, Note_on_c, 1, 58, 127
1, 58895, Note_off_c, 1, 74, 0
1, 58895, Note_off_c, 1, 58, 0
1, 58897, Note_off_c, 1, 55, 0
1, 58898, Note_on_c, 1, 75, 127
1, 58898, Note_on_c, 1, 60, 127
1, 59024, Note_on_c, 1, 70, 127
1, 59024, Note_on_c, 1, 55, 127
1, 59147, Note_off_c, 1, 70, 0
1, 59147, Note_off_c, 1, 55, 0
1, 59149, Note_on_c, 1, 72, 127
1, 59149, Note_on_c, 1, 57, 127
1, 59272, Note_off_c, 1, 72, 0
1, 59272, Note_off_c, 1, 57, 0
1, 59275, Note_on_c, 1, 74, 127
1, 59275, Note_on_c, 1, 58, 127
1, 59398, Note_off_c, 1, 74, 0
1, 59398, Note_off_c, 1, 58, 0
1, 59653, Note_on_c, 1, 69, 127
1, 59653, Note_on_c, 1, 53, 127
1, 59776, Note_off_c, 1, 69, 0
1, 59776, Note_off_c, 1, 53, 0
1, 59779, Note_on_c, 1, 67, 127
1, 59779, Note_on_c, 1, 51, 127
1, 59902, Note_off_c, 1, 67, 0
1, 59902, Note_off_c, 1, 51, 0
1, 60027, Note_off_c, 1, 75, 0
1, 60156, Note_on_c, 1, 77, 127
1, 60279, Note_off_c, 1, 77, 0
1, 60281, Note_on_c, 1, 79, 127
1, 60404, Note_off_c, 1, 79, 0
1, 61035, Note_on_c, 1, 54, 127
1, 61158, Note_off_c, 1, 54, 0
1, 61161, Note_on_c, 1, 62, 127
1, 61410, Note_off_c, 1, 60, 0
1, 61410, Note_off_c, 1, 62, 0
1, 61664, Note_on_c, 1, 65, 127
1, 61789, Note_on_c, 1, 50, 127
1, 61912, Note_off_c, 1, 50, 0
1, 61913, Note_off_c, 1, 65, 0
1, 61915, Note_on_c, 1, 63, 127
1, 61915, Note_on_c, 1, 48, 127
1, 62796, Note_on_c, 1, 52, 127
1, 62919, Note_off_c, 1, 63, 0
1, 62919, Note_off_c, 1, 48, 0
1, 62919, Note_off_c, 1, 52, 0
1, 63931, Note_on_c, 1, 43, 127
1, 63931, Note_on_c, 1, 58, 127
1, 63931, Note_on_c, 1, 67, 127
1, 64059, Note_on_c, 1, 55, 127
1, 64183, Note_off_c, 1, 43, 0
1, 64184, Note_off_c, 1, 55, 0
1, 64186, Note_on_c, 1, 56, 127
1, 64310, Note_off_c, 1, 58, 0
1, 64311, Note_off_c, 1, 56, 0
1, 64434, Note_off_c, 1, 67, 0
1, 64439, Note_on_c, 1, 56, 127
1, 64439, Note_on_c, 1, 63, 127
1, 64564, Note_off_c, 1, 56, 0
1, 64566, Note_on_c, 1, 55, 127
1, 64691, Note_off_c, 1, 55, 0
1, 64694, Note_on_c, 1, 53, 127
1, 64819, Note_off_c, 1, 53, 0
1, 64820, Note_on_c, 1, 51, 127
1, 64948, Note_on_c, 1, 58, 127
1, 64948, Note_on_c, 1, 65, 127
1, 65058, Note_off_c, 1, 51, 0
1, 65076, Note_on_c, 1, 50, 127
1, 65201, Note_off_c, 1, 50, 0
1, 65451, Note_off_c, 1, 58, 0
1, 65454, Note_off_c, 1, 63, 0
1, 65454, Note_off_c, 1, 65, 0
1, 65457, Note_on_c, 1, 51, 127
1, 65457, Note_on_c, 1, 62, 127
1, 65457, Note_on_c, 1, 70, 127
1, 65582, Note_off_c, 1, 51, 0
1, 65584, Note_on_c, 1, 50, 127
1, 65709, Note_off_c, 1, 50, 0
1, 65710, Note_on_c, 1, 48, 127
1, 65835, Note_off_c, 1, 48, 0
1, 65837, Note_on_c, 1, 46, 127
1, 65962, Note_off_c, 1, 62, 0
1, 65962, Note_off_c, 1, 46, 0
1, 65965, Note_on_c, 1, 67, 127
1, 65965, Note_on_c, 1, 52, 127
1, 66093, Note_on_c, 1, 58, 127
1, 66218, Note_off_c, 1, 58, 0
1, 66219, Note_on_c, 1, 60, 127
1, 66344, Note_off_c, 1, 60, 0
1, 66346, Note_on_c, 1, 61, 127
1, 66471, Note_off_c, 1, 70, 0
1, 66471, Note_off_c, 1, 67, 0
1, 66471, Note_off_c, 1, 52, 0
1, 66471, Note_off_c, 1, 61, 0
1, 66473, Note_on_c, 1, 60, 127
1, 66473, Note_on_c, 1, 68, 127
1, 66473, Note_on_c, 1, 65, 127
1, 66473, Note_on_c, 1, 53, 127
1, 66598, Note_off_c, 1, 60, 0
1, 66599, Note_on_c, 1, 58, 127
1, 66724, Note_off_c, 1, 58, 0
1, 66727, Note_on_c, 1, 56, 127
1, 66852, Note_off_c, 1, 56, 0
1, 66854, Note_on_c, 1, 55, 127
1, 66978, Note_off_c, 1, 68, 0
1, 66979, Note_off_c, 1, 55, 0
1, 66980, Note_on_c, 1, 73, 127
1, 67105, Note_off_c, 1, 65, 0
1, 67234, Note_on_c, 1, 67, 127
1, 67359, Note_off_c, 1, 67, 0
1, 67486, Note_off_c, 1, 53, 0
1, 67488, Note_on_c, 1, 46, 127
1, 67742, Note_on_c, 1, 64, 127
1, 67867, Note_off_c, 1, 64, 0
1, 67993, Note_off_c, 1, 46, 0
1, 67995, Note_on_c, 1, 48, 127
1, 68120, Note_off_c, 1, 73, 0
1, 68123, Note_on_c, 1, 70, 127
1, 68248, Note_off_c, 1, 70, 0
1, 68249, Note_on_c, 1, 72, 127
1, 68374, Note_off_c, 1, 72, 0
1, 69008, Note_off_c, 1, 48, 0
1, 69011, Note_on_c, 1, 49, 127
1, 69137, Note_on_c, 1, 63, 127
1, 69262, Note_off_c, 1, 63, 0
1, 69264, Note_on_c, 1, 61, 127
1, 69389, Note_off_c, 1, 61, 0
1, 70024, Note_off_c, 1, 49, 0
1, 71040, Note_on_c, 1, 56, 127
1, 71040, Note_on_c, 1, 65, 127
1, 71040, Note_on_c, 1, 53, 127
1, 71168, Note_on_c, 1, 41, 127
1, 71293, Note_off_c, 1, 41, 0
1, 71295, Note_on_c, 1, 43, 127
1, 71420, Note_off_c, 1, 43, 0
1, 71422, Note_on_c, 1, 44, 127
1, 71543, Note_off_c, 1, 56, 0
1, 71546, Note_off_c, 1, 65, 0
1, 71547, Note_off_c, 1, 44, 0
1, 71548, Note_on_c, 1, 72, 127
1, 71803, Note_on_c, 1, 39, 127
1, 71928, Note_off_c, 1, 39, 0
1, 71930, Note_on_c, 1, 38, 127
1, 72054, Note_off_c, 1, 53, 0
1, 72055, Note_off_c, 1, 38, 0
1, 72056, Note_on_c, 1, 50, 127
1, 72311, Note_on_c, 1, 67, 127
1, 72436, Note_off_c, 1, 67, 0
1, 72438, Note_on_c, 1, 68, 127
1, 72562, Note_off_c, 1, 72, 0
1, 72562, Note_off_c, 1, 50, 0
1, 72563, Note_off_c, 1, 68, 0
1, 72565, Note_on_c, 1, 71, 127
1, 72565, Note_on_c, 1, 55, 127
1, 72818, Note_on_c, 1, 63, 127
1, 72943, Note_off_c, 1, 63, 0
1, 72945, Note_on_c, 1, 62, 127
1, 73070, Note_off_c, 1, 71, 0
1, 73070, Note_off_c, 1, 55, 0
1, 73070, Note_off_c, 1, 62, 0
1, 73072, Note_on_c, 1, 60, 127
1, 73072, Note_on_c, 1, 48, 127
1, 73072, Note_on_c, 1, 75, 127
1, 73201, Note_on_c, 1, 67, 127
1, 73326, Note_off_c, 1, 67, 0
1, 73327, Note_on_c, 1, 68, 127
1, 73452, Note_off_c, 1, 68, 0
1, 73454, Note_on_c, 1, 70, 127
1, 73578, Note_off_c, 1, 60, 0
1, 73579, Note_off_c, 1, 70, 0
1, 73581, Note_on_c, 1, 51, 127
1, 73835, Note_on_c, 1, 65, 127
1, 73960, Note_off_c, 1, 65, 0
1, 73962, Note_on_c, 1, 63, 127
1, 74086, Note_off_c, 1, 48, 0
1, 74086, Note_off_c, 1, 51, 0
1, 74087, Note_off_c, 1, 63, 0
1, 74088, Note_on_c, 1, 56, 127
1, 74088, Note_on_c, 1, 53, 127
1, 74213, Note_off_c, 1, 75, 0
1, 74342, Note_on_c, 1, 77, 127
1, 74467, Note_off_c, 1, 77, 0
1, 74469, Note_on_c, 1, 79, 127
1, 74594, Note_off_c, 1, 79, 0
1, 74850, Note_on_c, 1, 74, 127
1, 74975, Note_off_c, 1, 74, 0
1, 74976, Note_on_c, 1, 72, 127
1, 75101, Note_off_c, 1, 56, 0
1, 75101, Note_off_c, 1, 72, 0
1, 75103, Note_on_c, 1, 71, 127
1, 75103, Note_on_c, 1, 62, 127
1, 75103, Note_on_c, 1, 55, 127
1, 75228, Note_off_c, 1, 71, 0
1, 75484, Note_on_c, 1, 80, 127
1, 75608, Note_off_c, 1, 53, 0
1, 75608, Note_off_c, 1, 62, 0
1, 75608, Note_off_c, 1, 55, 0
1, 75609, Note_off_c, 1, 80, 0
1, 75611, Note_on_c, 1, 79, 127
1, 75611, Note_on_c, 1, 51, 127
1, 75611, Note_on_c, 1, 63, 127
1, 75611, Note_on_c, 1, 60, 127
1, 75736, Note_off_c, 1, 79, 0
1, 75737, Note_on_c, 1, 77, 127
1, 75862, Note_off_c, 1, 77, 0
1, 75864, Note_on_c, 1, 75, 127
1, 75989, Note_off_c, 1, 75, 0
1, 75991, Note_on_c, 1, 74, 127
1, 76116, Note_off_c, 1, 51, 0
1, 76116, Note_off_c, 1, 74, 0
1, 76119, Note_on_c, 1, 72, 127
1, 76119, Note_on_c, 1, 56, 127
1, 76244, Note_off_c, 1, 72, 0
1, 76245, Note_on_c, 1, 71, 127
1, 76370, Note_off_c, 1, 63, 0
1, 76370, Note_off_c, 1, 71, 0
1, 76371, Note_off_c, 1, 56, 0
1, 76372, Note_on_c, 1, 68, 127
1, 76372, Note_on_c, 1, 53, 127
1, 76624, Note_off_c, 1, 68, 0
1, 76624, Note_off_c, 1, 53, 0
1, 76625, Note_on_c, 1, 67, 127
1, 76625, Note_on_c, 1, 55, 127
1, 76878, Note_off_c, 1, 60, 0
1, 76878, Note_off_c, 1, 67, 0
1, 76881, Note_on_c, 1, 65, 127
1, 76881, Note_on_c, 1, 59, 127
1, 77128, Note_off_c, 1, 55, 0
1, 77133, Note_off_c, 1, 65, 0
1, 77133, Note_off_c, 1, 59, 0
1, 77140, Note_on_c, 1, 60, 127
1, 77140, Note_on_c, 1, 72, 127
1, 77140, Note_on_c, 1, 63, 127
1, 77280, Note_on_c, 1, 48, 127
1, 77407, Note_off_c, 1, 48, 0
1, 77409, Note_on_c, 1, 49, 127
1, 77536, Note_off_c, 1, 49, 0
1, 77538, Note_on_c, 1, 51, 127
1, 77650, Note_off_c, 1, 60, 0
1, 77650, Note_off_c, 1, 72, 0
1, 77653, Note_off_c, 1, 63, 0
1, 77664, Note_off_c, 1, 51, 0
1, 77667, Note_on_c, 1, 49, 127
1, 77667, Note_on_c, 1, 68, 127
1, 77794, Note_off_c, 1, 49, 0
1, 77795, Note_on_c, 1, 48, 127
1, 77922, Note_off_c, 1, 48, 0
1, 77925, Note_on_c, 1, 46, 127
1, 78052, Note_off_c, 1, 46, 0
1, 78054, Note_on_c, 1, 44, 127
1, 78181, Note_off_c, 1, 44, 0
1, 78183, Note_on_c, 1, 58, 127
1, 78183, Note_on_c, 1, 51, 127
1, 78312, Note_on_c, 1, 70, 127
1, 78439, Note_off_c, 1, 70, 0
1, 78441, Note_on_c, 1, 72, 127
1, 78568, Note_off_c, 1, 72, 0
1, 78571, Note_on_c, 1, 73, 127
1, 78698, Note_off_c, 1, 58, 0
1, 78698, Note_off_c, 1, 73, 0
1, 78699, Note_off_c, 1, 68, 0
1, 78700, Note_on_c, 1, 67, 127
1, 78700, Note_on_c, 1, 63, 127
1, 79083, Note_off_c, 1, 67, 0
1, 79214, Note_off_c, 1, 51, 0
1, 79216, Note_on_c, 1, 65, 127
1, 79216, Note_on_c, 1, 56, 127
1, 79471, Note_off_c, 1, 65, 0
1, 79727, Note_off_c, 1, 63, 0
1, 79730, Note_on_c, 1, 62, 127
1, 80245, Note_off_c, 1, 62, 0
1, 80246, Note_off_c, 1, 56, 0
1, 80247, Note_on_c, 1, 63, 127
1, 80247, Note_on_c, 1, 55, 127
1, 80247, Note_on_c, 1, 70, 127
1, 80247, Note_on_c, 1, 67, 127
1, 80374, Note_off_c, 1, 63, 0
1, 80376, Note_on_c, 1, 62, 127
1, 80503, Note_off_c, 1, 62, 0
1, 80505, Note_on_c, 1, 60, 127
1, 80632, Note_off_c, 1, 60, 0
1, 80634, Note_on_c, 1, 58, 127
1, 80761, Note_off_c, 1, 58, 0
1, 80764, Note_on_c, 1, 75, 127
1, 80891, Note_off_c, 1, 55, 0
1, 80893, Note_on_c, 1, 53, 127
1, 81015, Note_off_c, 1, 75, 0
1, 81020, Note_off_c, 1, 53, 0
1, 81151, Note_on_c, 1, 56, 127
1, 81244, Note_off_c, 1, 70, 0
1, 81277, Note_off_c, 1, 56, 0
1, 81279, Note_on_c, 1, 65, 127
1, 81283, Note_off_c, 1, 67, 0
1, 81796, Note_on_c, 1, 74, 127
1, 82311, Note_off_c, 1, 74, 0
1, 82313, Note_on_c, 1, 52, 127
1, 82313, Note_on_c, 1, 79, 127
1, 82439, Note_off_c, 1, 65, 0
1, 82700, Note_on_c, 1, 61, 127
1, 82827, Note_off_c, 1, 61, 0
1, 83345, Note_off_c, 1, 52, 0
1, 83605, Note_on_c, 1, 72, 127
1, 83732, Note_off_c, 1, 72, 0
1, 83733, Note_on_c, 1, 73, 127
1, 83860, Note_off_c, 1, 73, 0
1, 83862, Note_off_c, 1, 79, 0
1, 83863, Note_on_c, 1, 77, 127
1, 84122, Note_on_c, 1, 68, 127
1, 84249, Note_off_c, 1, 68, 0
1, 84378, Note_off_c, 1, 77, 0
1, 84380, Note_on_c, 1, 62, 127
1, 84380, Note_on_c, 1, 65, 127
1, 84380, Note_on_c, 1, 71, 127
1, 84509, Note_on_c, 1, 53, 127
1, 84636, Note_off_c, 1, 53, 0
1, 84638, Note_on_c, 1, 55, 127
1, 84765, Note_off_c, 1, 55, 0
1, 84767, Note_on_c, 1, 56, 127
1, 84874, Note_off_c, 1, 62, 0
1, 84874, Note_off_c, 1, 65, 0
1, 84874, Note_off_c, 1, 71, 0
1, 84893, Note_off_c, 1, 56, 0
1, 84895, Note_on_c, 1, 55, 127
1, 84895, Note_on_c, 1, 67, 127
1, 84895, Note_on_c, 1, 63, 127
1, 84895, Note_on_c, 1, 72, 127
1, 85023, Note_off_c, 1, 55, 0
1, 85026, Note_on_c, 1, 53, 127
1, 85142, Note_off_c, 1, 67, 0
1, 85142, Note_off_c, 1, 63, 0
1, 85142, Note_off_c, 1, 72, 0
1, 85154, Note_off_c, 1, 53, 0
1, 85156, Note_on_c, 1, 51, 127
1, 85156, Note_on_c, 1, 65, 127
1, 85156, Note_on_c, 1, 71, 127
1, 85156, Note_on_c, 1, 74, 127
1, 85284, Note_off_c, 1, 51, 0
1, 85287, Note_on_c, 1, 50, 127
1, 85403, Note_off_c, 1, 65, 0
1, 85403, Note_off_c, 1, 71, 0
1, 85403, Note_off_c, 1, 74, 0
1, 85415, Note_off_c, 1, 50, 0
1, 85416, Note_on_c, 1, 48, 127
1, 85416, Note_on_c, 1, 67, 127
1, 85416, Note_on_c, 1, 75, 127
1, 85416, Note_on_c, 1, 72, 127
1, 85544, Note_off_c, 1, 48, 0
1, 85547, Note_on_c, 1, 47, 127
1, 85663, Note_off_c, 1, 67, 0
1, 85663, Note_off_c, 1, 75, 0
1, 85675, Note_off_c, 1, 47, 0
1, 85678, Note_on_c, 1, 76, 127
1, 85808, Note_on_c, 1, 49, 127
1, 85910, Note_off_c, 1, 72, 0
1, 85925, Note_off_c, 1, 76, 0
1, 85936, Note_off_c, 1, 49, 0
1, 85939, Note_on_c, 1, 48, 127
1, 85939, Note_on_c, 1, 68, 127
1, 85939, Note_on_c, 1, 74, 127
1, 85939, Note_on_c, 1, 77, 127
1, 86067, Note_off_c, 1, 48, 0
1, 86068, Note_on_c, 1, 46, 127
1, 86186, Note_off_c, 1, 68, 0
1, 86186, Note_off_c, 1, 74, 0
1, 86186, Note_off_c, 1, 77, 0
1, 86196, Note_off_c, 1, 46, 0
1, 86199, Note_on_c, 1, 44, 127
1, 86199, Note_on_c, 1, 76, 127
1, 86199, Note_on_c, 1, 70, 127
1, 86199, Note_on_c, 1, 79, 127
1, 86327, Note_off_c, 1, 44, 0
1, 86329, Note_on_c, 1, 43, 127
1, 86446, Note_off_c, 1, 76, 0
1, 86446, Note_off_c, 1, 70, 0
1, 86446, Note_off_c, 1, 79, 0
1, 86457, Note_off_c, 1, 43, 0
1, 86460, Note_on_c, 1, 72, 127
1, 86460, Note_on_c, 1, 77, 127
1, 86460, Note_on_c, 1, 41, 127
1, 86460, Note_on_c, 1, 80, 127
1, 86588, Note_off_c, 1, 72, 0
1, 86588, Note_off_c, 1, 77, 0
1, 86590, Note_on_c, 1, 75, 127
1, 86718, Note_off_c, 1, 75, 0
1, 86851, Note_on_c, 1, 79, 127
1, 86979, Note_off_c, 1, 79, 0
1, 86980, Note_off_c, 1, 41, 0
1, 86981, Note_on_c, 1, 46, 127
1, 87242, Note_on_c, 1, 74, 127
1, 87370, Note_off_c, 1, 74, 0
1, 87631, Note_off_c, 1, 80, 0
1, 87763, Note_on_c, 1, 82, 127
1, 87891, Note_off_c, 1, 82, 0
1, 87894, Note_on_c, 1, 84, 127
1, 88022, Note_off_c, 1, 46, 0
1, 88022, Note_off_c, 1, 84, 0
1, 88024, Note_on_c, 1, 43, 127
1, 88544, Note_off_c, 1, 43, 0
1, 88546, Note_on_c, 1, 51, 127
1, 88546, Note_on_c, 1, 48, 127
1, 88675, Note_on_c, 1, 70, 127
1, 88803, Note_off_c, 1, 70, 0
1, 88937, Note_on_c, 1, 73, 127
1, 89065, Note_off_c, 1, 73, 0
1, 89066, Note_off_c, 1, 51, 0
1, 89067, Note_on_c, 1, 56, 127
1, 89327, Note_on_c, 1, 68, 127
1, 89455, Note_off_c, 1, 68, 0
1, 89458, Note_on_c, 1, 67, 127
1, 89586, Note_off_c, 1, 67, 0
1, 89587, Note_off_c, 1, 48, 0
1, 89588, Note_on_c, 1, 50, 127
1, 89588, Note_on_c, 1, 65, 127
1, 89846, Note_off_c, 1, 50, 0
1, 89846, Note_off_c, 1, 65, 0
1, 90108, Note_off_c, 1, 56, 0
1, 90110, Note_on_c, 1, 51, 127
1, 90110, Note_on_c, 1, 70, 127
1, 90110, Note_on_c, 1, 55, 127
1, 90240, Note_on_c, 1, 68, 127
1, 90368, Note_off_c, 1, 51, 0
1, 90368, Note_off_c, 1, 68, 0
1, 90371, Note_on_c, 1, 67, 127
1, 90371, Note_on_c, 1, 50, 127
1, 90499, Note_off_c, 1, 67, 0
1, 90500, Note_on_c, 1, 65, 127
1, 90625, Note_off_c, 1, 70, 0
1, 90628, Note_off_c, 1, 65, 0
1, 90629, Note_off_c, 1, 50, 0
1, 90630, Note_off_c, 1, 55, 0
1, 90631, Note_on_c, 1, 63, 127
1, 90631, Note_on_c, 1, 60, 127
1, 90631, Note_on_c, 1, 48, 127
1, 90759, Note_off_c, 1, 63, 0
1, 90761, Note_on_c, 1, 62, 127
1, 90888, Note_off_c, 1, 60, 0
1, 90889, Note_off_c, 1, 62, 0
1, 91022, Note_on_c, 1, 58, 127
1, 91150, Note_off_c, 1, 58, 0
1, 91283, Note_on_c, 1, 69, 127
1, 91411, Note_off_c, 1, 48, 0
1, 91411, Note_off_c, 1, 69, 0
1, 91413, Note_on_c, 1, 70, 127
1, 91413, Note_on_c, 1, 46, 127
1, 91413, Note_on_c, 1, 63, 127
1, 91541, Note_off_c, 1, 70, 0
1, 91544, Note_on_c, 1, 72, 127
1, 91671, Note_off_c, 1, 46, 0
1, 91671, Note_off_c, 1, 63, 0
1, 91672, Note_off_c, 1, 72, 0
1, 91674, Note_on_c, 1, 45, 127
1, 91674, Note_on_c, 1, 63, 127
1, 91674, Note_on_c, 1, 65, 127
1, 91805, Note_on_c, 1, 57, 127
1, 91934, Note_off_c, 1, 57, 0
1, 91937, Note_on_c, 1, 58, 127
1, 92066, Note_off_c, 1, 58, 0
1, 92068, Note_on_c, 1, 60, 127
1, 92197, Note_off_c, 1, 60, 0
1, 92198, Note_off_c, 1, 45, 0
1, 92198, Note_off_c, 1, 63, 0
1, 92198, Note_off_c, 1, 65, 0
1, 92200, Note_on_c, 1, 58, 127
1, 92200, Note_on_c, 1, 46, 127
1, 92200, Note_on_c, 1, 62, 127
1, 92200, Note_on_c, 1, 65, 127
1, 92329, Note_off_c, 1, 58, 0
1, 92332, Note_on_c, 1, 56, 127
1, 92461, Note_off_c, 1, 56, 0
1, 92463, Note_on_c, 1, 55, 127
1, 92592, Note_off_c, 1, 55, 0
1, 92594, Note_on_c, 1, 53, 127
1, 92721, Note_off_c, 1, 46, 0
1, 92724, Note_off_c, 1, 53, 0
1, 92725, Note_off_c, 1, 62, 0
1, 92725, Note_off_c, 1, 65, 0
1, 92727, Note_on_c, 1, 54, 127
1, 92727, Note_on_c, 1, 60, 127
1, 92727, Note_on_c, 1, 63, 127
1, 92859, Note_on_c, 1, 45, 127
1, 92988, Note_off_c, 1, 45, 0
1, 92990, Note_on_c, 1, 46, 127
1, 93119, Note_off_c, 1, 46, 0
1, 93122, Note_on_c, 1, 48, 127
1, 93251, Note_off_c, 1, 54, 0
1, 93251, Note_off_c, 1, 48, 0
1, 93254, Note_on_c, 1, 53, 127
1, 93516, Note_on_c, 1, 43, 127
1, 93645, Note_off_c, 1, 43, 0
1, 93648, Note_on_c, 1, 41, 127
1, 93777, Note_off_c, 1, 60, 0
1, 93777, Note_off_c, 1, 63, 0
1, 93777, Note_off_c, 1, 41, 0
1, 93778, Note_off_c, 1, 53, 0
1, 93779, Note_on_c, 1, 53, 127
1, 93779, Note_on_c, 1, 62, 127
1, 93779, Note_on_c, 1, 46, 127
1, 93913, Note_on_c, 1, 65, 127
1, 94043, Note_off_c, 1, 65, 0
1, 94046, Note_on_c, 1, 67, 127
1, 94176, Note_off_c, 1, 67, 0
1, 94179, Note_on_c, 1, 68, 127
1, 94305, Note_off_c, 1, 53, 0
1, 94305, Note_off_c, 1, 62, 0
1, 94310, Note_off_c, 1, 46, 0
1, 94310, Note_off_c, 1, 68, 0
1, 94312, Note_on_c, 1, 67, 127
1, 94312, Note_on_c, 1, 51, 127
1, 94446, Note_on_c, 1, 65, 127
1, 94576, Note_off_c, 1, 65, 0
1, 94579, Note_on_c, 1, 63, 127
1, 94709, Note_off_c, 1, 63, 0
1, 94712, Note_on_c, 1, 62, 127
1, 94838, Note_off_c, 1, 67, 0
1, 94843, Note_off_c, 1, 62, 0
1, 94846, Note_on_c, 1, 60, 127
1, 94846, Note_on_c, 1, 68, 127
1, 95110, Note_off_c, 1, 60, 0
1, 95374, Note_off_c, 1, 51, 0
1, 95378, Note_on_c, 1, 50, 127
1, 95907, Note_off_c, 1, 50, 0
1, 95908, Note_on_c, 1, 58, 127
1, 95908, Note_on_c, 1, 55, 127
1, 96038, Note_off_c, 1, 58, 0
1, 96039, Note_off_c, 1, 68, 0
1, 96041, Note_on_c, 1, 56, 127
1, 96170, Note_off_c, 1, 55, 0
1, 96171, Note_off_c, 1, 56, 0
1, 96174, Note_on_c, 1, 67, 127
1, 96174, Note_on_c, 1, 55, 127
1, 96304, Note_off_c, 1, 67, 0
1, 96307, Note_on_c, 1, 53, 127
1, 96307, Note_on_c, 1, 68, 127
1, 96436, Note_off_c, 1, 55, 0
1, 96437, Note_off_c, 1, 53, 0
1, 96437, Note_off_c, 1, 68, 0
1, 96438, Note_on_c, 1, 67, 127
1, 96438, Note_on_c, 1, 55, 127
1, 96438, Note_on_c, 1, 58, 127
1, 96568, Note_off_c, 1, 67, 0
1, 96571, Note_on_c, 1, 65, 127
1, 96700, Note_off_c, 1, 55, 0
1, 96701, Note_off_c, 1, 58, 0
1, 96701, Note_off_c, 1, 65, 0
1, 96704, Note_on_c, 1, 63, 127
1, 96704, Note_on_c, 1, 53, 127
1, 96704, Note_on_c, 1, 58, 127
1, 96834, Note_off_c, 1, 63, 0
1, 96837, Note_on_c, 1, 62, 127
1, 96967, Note_off_c, 1, 53, 0
1, 96967, Note_off_c, 1, 58, 0
1, 96967, Note_off_c, 1, 62, 0
1, 96970, Note_on_c, 1, 58, 127
1, 96970, Note_on_c, 1, 52, 127
1, 96970, Note_on_c, 1, 60, 127
1, 97100, Note_off_c, 1, 58, 0
1, 97103, Note_on_c, 1, 55, 127
1, 97233, Note_off_c, 1, 55, 0
1, 97235, Note_on_c, 1, 57, 127
1, 97365, Note_off_c, 1, 57, 0
1, 97499, Note_off_c, 1, 52, 0
1, 97500, Note_on_c, 1, 53, 127
1, 97631, Note_off_c, 1, 60, 0
1, 97763, Note_off_c, 1, 53, 0
1, 97766, Note_on_c, 1, 62, 127
1, 97766, Note_on_c, 1, 51, 127
1, 97896, Note_off_c, 1, 62, 0
1, 97899, Note_on_c, 1, 63, 127
1, 98029, Note_off_c, 1, 51, 0
1, 98029, Note_off_c, 1, 63, 0
1, 98031, Note_on_c, 1, 65, 127
1, 98031, Note_on_c, 1, 50, 127
1, 98298, Note_on_c, 1, 59, 127
1, 98428, Note_off_c, 1, 59, 0
1, 98694, Note_off_c, 1, 65, 0
1, 98961, Note_on_c, 1, 67, 127
1, 99092, Note_off_c, 1, 67, 0
1, 99095, Note_on_c, 1, 68, 127
1, 99225, Note_off_c, 1, 50, 0
1, 99891, Note_on_c, 1, 48, 127
1, 100021, Note_off_c, 1, 48, 0
1, 100024, Note_on_c, 1, 47, 127
1, 100154, Note_off_c, 1, 47, 0
1, 100420, Note_off_c, 1, 68, 0
1, 100820, Note_on_c, 1, 46, 127
1, 100950, Note_off_c, 1, 46, 0
1, 100953, Note_on_c, 1, 44, 127
1, 100953, Note_on_c, 1, 70, 127
1, 101083, Note_off_c, 1, 44, 0
1, 101085, Note_on_c, 1, 43, 127
1, 101215, Note_off_c, 1, 43, 0
1, 101216, Note_off_c, 1, 70, 0
1, 101218, Note_on_c, 1, 72, 127
1, 101891, Note_off_c, 1, 72, 0
1, 101893, Note_on_c, 1, 75, 127
1, 102025, Note_off_c, 1, 75, 0
1, 102028, Note_on_c, 1, 74, 127
1, 102160, Note_off_c, 1, 74, 0
1, 102298, Note_on_c, 1, 71, 127
1, 102566, Note_off_c, 1, 71, 0
1, 102568, Note_on_c, 1, 45, 127
1, 102700, Note_off_c, 1, 45, 0
1, 103379, Note_on_c, 1, 56, 127
1, 104323, Note_on_c, 1, 77, 127
1, 104455, Note_off_c, 1, 77, 0
1, 104457, Note_off_c, 1, 56, 0
1, 104458, Note_on_c, 1, 71, 127
1, 104458, Note_on_c, 1, 53, 127
1, 104458, Note_on_c, 1, 62, 127
1, 104458, Note_on_c, 1, 55, 127
1, 104726, Note_off_c, 1, 71, 0
1, 104728, Note_on_c, 1, 72, 127
1, 104860, Note_off_c, 1, 72, 0
1, 104863, Note_on_c, 1, 74, 127
1, 104995, Note_off_c, 1, 74, 0
1, 104996, Note_off_c, 1, 53, 0
1, 104996, Note_off_c, 1, 62, 0
1, 104999, Note_on_c, 1, 67, 127
1, 104999, Note_on_c, 1, 51, 127
1, 105134, Note_on_c, 1, 70, 127
1, 105266, Note_off_c, 1, 70, 0
1, 105269, Note_on_c, 1, 68, 127
1, 105399, Note_off_c, 1, 67, 0
1, 105400, Note_off_c, 1, 68, 0
1, 105535, Note_off_c, 1, 55, 0
1, 105536, Note_off_c, 1, 51, 0
1, 105537, Note_on_c, 1, 56, 127
1, 105672, Note_on_c, 1, 60, 127
1, 105804, Note_off_c, 1, 60, 0
1, 105807, Note_on_c, 1, 61, 127
1, 105939, Note_off_c, 1, 61, 0
1, 105942, Note_on_c, 1, 63, 127
1, 106074, Note_off_c, 1, 63, 0
1, 106077, Note_on_c, 1, 65, 127
1, 106347, Note_on_c, 1, 58, 127
1, 106474, Note_off_c, 1, 56, 0
1, 106479, Note_off_c, 1, 58, 0
1, 106615, Note_off_c, 1, 65, 0
1, 106752, Note_on_c, 1, 52, 127
1, 106884, Note_off_c, 1, 52, 0
1, 107157, Note_on_c, 1, 76, 127
1, 107426, Note_on_c, 1, 50, 127
1, 107558, Note_off_c, 1, 50, 0
1, 107561, Note_on_c, 1, 48, 127
1, 107692, Note_off_c, 1, 48, 0
1, 107694, Note_off_c, 1, 76, 0
1, 107695, Note_on_c, 1, 77, 127
1, 107827, Note_off_c, 1, 77, 0
1, 107965, Note_on_c, 1, 73, 127
1, 108097, Note_off_c, 1, 73, 0
1, 108100, Note_on_c, 1, 75, 127
1, 108232, Note_off_c, 1, 75, 0
1, 109315, Note_on_c, 1, 51, 127
1, 109315, Note_on_c, 1, 55, 127
1, 109315, Note_on_c, 1, 72, 127
1, 109447, Note_off_c, 1, 51, 0
1, 109450, Note_on_c, 1, 48, 127
1, 109582, Note_off_c, 1, 48, 0
1, 109585, Note_on_c, 1, 49, 127
1, 109717, Note_off_c, 1, 49, 0
1, 109848, Note_off_c, 1, 55, 0
1, 109855, Note_on_c, 1, 77, 127
1, 109989, Note_off_c, 1, 72, 0
1, 109991, Note_on_c, 1, 80, 127
1, 110125, Note_off_c, 1, 80, 0
1, 110127, Note_on_c, 1, 46, 127
1, 110127, Note_on_c, 1, 82, 127
1, 110261, Note_off_c, 1, 46, 0
1, 110261, Note_off_c, 1, 82, 0
1, 110264, Note_on_c, 1, 44, 127
1, 110264, Note_on_c, 1, 84, 127
1, 110398, Note_off_c, 1, 44, 0
1, 110398, Note_off_c, 1, 84, 0
1, 110672, Note_on_c, 1, 79, 127
1, 110778, Note_off_c, 1, 77, 0
1, 110806, Note_off_c, 1, 79, 0
1, 110945, Note_on_c, 1, 80, 127
1, 110945, Note_on_c, 1, 75, 127
1, 110945, Note_on_c, 1, 49, 127
1, 111079, Note_off_c, 1, 80, 0
1, 111081, Note_on_c, 1, 79, 127
1, 111215, Note_off_c, 1, 79, 0
1, 111217, Note_on_c, 1, 77, 127
1, 111350, Note_off_c, 1, 75, 0
1, 111351, Note_off_c, 1, 77, 0
1, 111487, Note_off_c, 1, 49, 0
1, 111490, Note_on_c, 1, 48, 127
1, 111898, Note_on_c, 1, 78, 127
1, 112032, Note_off_c, 1, 48, 0
1, 112032, Note_off_c, 1, 78, 0
1, 112307, Note_on_c, 1, 73, 127
1, 112441, Note_off_c, 1, 73, 0
1, 112443, Note_on_c, 1, 72, 127
1, 112577, Note_off_c, 1, 72, 0
1, 112579, Note_on_c, 1, 70, 127
1, 112579, Note_on_c, 1, 51, 127
1, 112579, Note_on_c, 1, 79, 127
1, 112714, Note_on_c, 1, 58, 127
1, 112848, Note_off_c, 1, 58, 0
1, 112851, Note_on_c, 1, 60, 127
1, 112985, Note_off_c, 1, 60, 0
1, 112987, Note_on_c, 1, 61, 127
1, 113117, Note_off_c, 1, 70, 0
1, 113121, Note_off_c, 1, 51, 0
1, 113121, Note_off_c, 1, 79, 0
1, 113121, Note_off_c, 1, 61, 0
1, 113123, Note_on_c, 1, 80, 127
1, 113123, Note_on_c, 1, 60, 127
1, 113123, Note_on_c, 1, 56, 127
1, 113259, Note_on_c, 1, 70, 127
1, 113393, Note_off_c, 1, 80, 0
1, 113393, Note_off_c, 1, 70, 0
1, 113395, Note_on_c, 1, 72, 127
1, 113395, Note_on_c, 1, 75, 127
1, 113529, Note_off_c, 1, 72, 0
1, 113532, Note_on_c, 1, 73, 127
1, 113661, Note_off_c, 1, 60, 0
1, 113665, Note_off_c, 1, 56, 0
1, 113665, Note_off_c, 1, 75, 0
1, 113666, Note_off_c, 1, 73, 0
1, 113668, Note_on_c, 1, 72, 127
1, 113668, Note_on_c, 1, 53, 127
1, 113668, Note_on_c, 1, 80, 127
1, 113802, Note_off_c, 1, 72, 0
1, 113804, Note_on_c, 1, 70, 127
1, 113938, Note_off_c, 1, 70, 0
1, 113940, Note_on_c, 1, 68, 127
1, 114074, Note_off_c, 1, 68, 0
1, 114077, Note_on_c, 1, 67, 127
1, 114210, Note_off_c, 1, 53, 0
1, 114211, Note_off_c, 1, 67, 0
1, 114213, Note_on_c, 1, 65, 127
1, 114213, Note_on_c, 1, 58, 127
1, 114349, Note_on_c, 1, 62, 127
1, 114483, Note_off_c, 1, 65, 0
1, 114483, Note_off_c, 1, 62, 0
1, 114485, Note_on_c, 1, 63, 127
1, 114619, Note_off_c, 1, 63, 0
1, 114751, Note_off_c, 1, 58, 0
1, 114755, Note_off_c, 1, 80, 0
1, 114758, Note_on_c, 1, 70, 127
1, 114758, Note_on_c, 1, 63, 127
1, 114758, Note_on_c, 1, 79, 127
1, 114892, Note_off_c, 1, 70, 0
1, 114894, Note_on_c, 1, 68, 127
1, 115028, Note_off_c, 1, 68, 0
1, 115030, Note_on_c, 1, 67, 127
1, 115164, Note_off_c, 1, 67, 0
1, 115166, Note_on_c, 1, 65, 127
1, 115296, Note_off_c, 1, 63, 0
1, 115300, Note_off_c, 1, 79, 0
1, 115300, Note_off_c, 1, 65, 0
1, 115302, Note_on_c, 1, 63, 127
1, 115302, Note_on_c, 1, 84, 127
1, 115439, Note_on_c, 1, 60, 127
1, 115572, Note_off_c, 1, 63, 0
1, 115573, Note_off_c, 1, 60, 0
1, 115575, Note_on_c, 1, 61, 127
1, 115575, Note_on_c, 1, 65, 127
1, 115709, Note_off_c, 1, 61, 0
1, 115709, Note_off_c, 1, 65, 0
1, 115711, Note_on_c, 1, 67, 127
1, 115845, Note_off_c, 1, 67, 0
1, 115847, Note_on_c, 1, 68, 127
1, 116117, Note_off_c, 1, 68, 0
1, 116120, Note_on_c, 1, 58, 127
1, 116254, Note_off_c, 1, 58, 0
1, 116256, Note_on_c, 1, 56, 127
1, 116389, Note_off_c, 1, 84, 0
1, 116390, Note_off_c, 1, 56, 0
1, 116392, Note_on_c, 1, 68, 127
1, 116392, Note_on_c, 1, 82, 127
1, 116392, Note_on_c, 1, 63, 127
1, 116526, Note_off_c, 1, 68, 0
1, 116528, Note_on_c, 1, 67, 127
1, 116662, Note_off_c, 1, 67, 0
1, 116800, Note_on_c, 1, 70, 127
1, 116934, Note_off_c, 1, 70, 0
1, 116936, Note_on_c, 1, 72, 127
1, 117070, Note_off_c, 1, 82, 0
1, 117208, Note_on_c, 1, 80, 127
1, 117342, Note_off_c, 1, 80, 0
1, 117345, Note_on_c, 1, 79, 127
1, 117479, Note_off_c, 1, 63, 0
1, 117479, Note_off_c, 1, 79, 0
1, 117481, Note_on_c, 1, 77, 127
1, 117481, Note_on_c, 1, 62, 127
1, 117751, Note_off_c, 1, 77, 0
1, 118023, Note_off_c, 1, 72, 0
1, 118298, Note_on_c, 1, 75, 127
1, 118432, Note_off_c, 1, 75, 0
1, 118434, Note_on_c, 1, 74, 127
1, 118568, Note_off_c, 1, 62, 0
1, 118568, Note_off_c, 1, 74, 0
1, 118570, Note_on_c, 1, 75, 127
1, 118709, Note_on_c, 1, 60, 127
1, 118844, Note_off_c, 1, 60, 0
1, 118846, Note_on_c, 1, 61, 127
1, 118846, Note_on_c, 1, 77, 127
1, 118981, Note_off_c, 1, 61, 0
1, 118981, Note_off_c, 1, 77, 0
1, 118984, Note_on_c, 1, 63, 127
1, 118984, Note_on_c, 1, 79, 127
1, 119119, Note_off_c, 1, 63, 0
1, 119119, Note_off_c, 1, 79, 0
1, 119121, Note_on_c, 1, 80, 127
1, 119393, Note_off_c, 1, 80, 0
1, 119396, Note_on_c, 1, 58, 127
1, 119531, Note_off_c, 1, 58, 0
1, 119533, Note_on_c, 1, 56, 127
1, 119667, Note_off_c, 1, 75, 0
1, 119668, Note_off_c, 1, 56, 0
1, 119670, Note_on_c, 1, 46, 127
1, 119670, Note_on_c, 1, 74, 127
1, 120082, Note_on_c, 1, 82, 127
1, 120217, Note_off_c, 1, 46, 0
1, 120217, Note_off_c, 1, 74, 0
1, 120217, Note_off_c, 1, 82, 0
1, 120220, Note_on_c, 1, 51, 127
1, 120769, Note_on_c, 1, 72, 127
1, 121313, Note_off_c, 1, 72, 0
1, 121319, Note_off_c, 1, 51, 0
1, 121321, Note_on_c, 1, 82, 127
1, 121321, Note_on_c, 1, 50, 127
1, 121456, Note_off_c, 1, 82, 0
1, 121458, Note_on_c, 1, 53, 127
1, 121458, Note_on_c, 1, 80, 127
1, 121593, Note_off_c, 1, 53, 0
1, 121593, Note_off_c, 1, 80, 0
1, 121595, Note_on_c, 1, 55, 127
1, 121595, Note_on_c, 1, 79, 127
1, 121730, Note_off_c, 1, 55, 0
1, 121730, Note_off_c, 1, 79, 0
1, 121733, Note_on_c, 1, 56, 127
1, 121733, Note_on_c, 1, 77, 127
1, 121868, Note_off_c, 1, 50, 0
1, 121868, Note_off_c, 1, 56, 0
1, 121868, Note_off_c, 1, 77, 0
1, 121870, Note_on_c, 1, 75, 127
1, 121870, Note_on_c, 1, 58, 127
1, 121870, Note_on_c, 1, 55, 127
1, 122005, Note_off_c, 1, 75, 0
1, 122007, Note_on_c, 1, 74, 127
1, 122142, Note_off_c, 1, 74, 0
1, 122145, Note_on_c, 1, 72, 127
1, 122280, Note_off_c, 1, 72, 0
1, 122282, Note_on_c, 1, 70, 127
1, 122413, Note_off_c, 1, 58, 0
1, 122418, Note_off_c, 1, 70, 0
1, 122559, Note_on_c, 1, 67, 127
1, 122694, Note_off_c, 1, 67, 0
1, 122696, Note_on_c, 1, 60, 127
1, 122696, Note_on_c, 1, 68, 127
1, 122831, Note_off_c, 1, 60, 0
1, 122831, Note_off_c, 1, 68, 0
1, 122834, Note_on_c, 1, 61, 127
1, 122969, Note_off_c, 1, 61, 0
1, 123245, Note_off_c, 1, 55, 0
1, 123246, Note_on_c, 1, 56, 127
1, 123246, Note_on_c, 1, 65, 127
1, 123381, Note_off_c, 1, 56, 0
1, 123381, Note_off_c, 1, 65, 0
1, 123383, Note_on_c, 1, 63, 127
1, 123518, Note_off_c, 1, 63, 0
1, 123795, Note_on_c, 1, 53, 127
1, 123930, Note_off_c, 1, 53, 0
1, 123932, Note_on_c, 1, 51, 127
1, 123932, Note_on_c, 1, 77, 127
1, 124067, Note_off_c, 1, 51, 0
1, 124067, Note_off_c, 1, 77, 0
1, 124070, Note_on_c, 1, 50, 127
1, 124342, Note_off_c, 1, 50, 0
1, 124894, Note_on_c, 1, 48, 127
1, 125029, Note_off_c, 1, 48, 0
1, 125031, Note_on_c, 1, 46, 127
1, 125166, Note_off_c, 1, 46, 0
1, 125168, Note_on_c, 1, 44, 127
1, 126264, Note_off_c, 1, 44, 0
1, 126267, Note_on_c, 1, 38, 127
1, 126402, Note_off_c, 1, 38, 0
1, 126816, Note_on_c, 1, 58, 127
1, 126816, Note_on_c, 1, 51, 127
1, 126816, Note_on_c, 1, 63, 127
1, 126816, Note_on_c, 1, 67, 127
1, 126951, Note_off_c, 1, 58, 0
1, 126954, Note_on_c, 1, 56, 127
1, 127089, Note_off_c, 1, 56, 0
1, 127091, Note_on_c, 1, 55, 127
1, 127226, Note_off_c, 1, 55, 0
1, 127229, Note_on_c, 1, 53, 127
1, 127359, Note_off_c, 1, 51, 0
1, 127364, Note_off_c, 1, 63, 0
1, 127364, Note_off_c, 1, 67, 0
1, 127365, Note_off_c, 1, 53, 0
1, 127367, Note_on_c, 1, 51, 127
1, 127367, Note_on_c, 1, 72, 127
1, 127367, Note_on_c, 1, 68, 127
1, 127505, Note_on_c, 1, 48, 127
1, 127640, Note_off_c, 1, 48, 0
1, 127643, Note_on_c, 1, 49, 127
1, 127768, Note_off_c, 1, 51, 0
1, 127779, Note_off_c, 1, 49, 0
1, 128193, Note_on_c, 1, 46, 127
1, 128328, Note_off_c, 1, 46, 0
1, 128331, Note_on_c, 1, 44, 127
1, 128466, Note_off_c, 1, 72, 0
1, 128466, Note_off_c, 1, 44, 0
1, 128468, Note_on_c, 1, 70, 127
1, 128605, Note_on_c, 1, 50, 127
1, 128740, Note_off_c, 1, 50, 0
1, 129009, Note_off_c, 1, 68, 0
1, 129015, Note_off_c, 1, 70, 0
1, 129017, Note_on_c, 1, 56, 127
1, 129017, Note_on_c, 1, 75, 127
1, 129017, Note_on_c, 1, 67, 127
1, 129152, Note_off_c, 1, 56, 0
1, 129155, Note_on_c, 1, 55, 127
1, 129290, Note_off_c, 1, 55, 0
1, 129292, Note_on_c, 1, 53, 127
1, 129427, Note_off_c, 1, 53, 0
1, 129429, Note_on_c, 1, 51, 127
1, 129560, Note_off_c, 1, 75, 0
1, 129565, Note_off_c, 1, 67, 0
1, 129565, Note_off_c, 1, 51, 0
1, 129568, Note_on_c, 1, 75, 127
1, 129568, Note_on_c, 1, 65, 127
1, 129568, Note_on_c, 1, 58, 127
1, 129707, Note_on_c, 1, 60, 127
1, 129845, Note_off_c, 1, 60, 0
1, 129847, Note_on_c, 1, 62, 127
1, 129985, Note_off_c, 1, 62, 0
1, 129988, Note_on_c, 1, 63, 127
1, 130120, Note_off_c, 1, 75, 0
1, 130125, Note_off_c, 1, 65, 0
1, 130126, Note_off_c, 1, 63, 0
1, 130127, Note_on_c, 1, 74, 127
1, 130127, Note_on_c, 1, 70, 127
1, 130267, Note_on_c, 1, 68, 127
1, 130405, Note_off_c, 1, 68, 0
1, 130406, Note_on_c, 1, 67, 127
1, 130544, Note_off_c, 1, 67, 0
1, 130684, Note_off_c, 1, 74, 0
1, 130686, Note_on_c, 1, 78, 127
1, 131242, Note_off_c, 1, 70, 0
1, 131244, Note_on_c, 1, 69, 127
1, 131793, Note_off_c, 1, 58, 0
1, 131801, Note_off_c, 1, 78, 0
1, 131801, Note_off_c, 1, 69, 0
1, 131802, Note_on_c, 1, 58, 127
1, 131802, Note_on_c, 1, 68, 127
1, 131802, Note_on_c, 1, 74, 127
1, 131802, Note_on_c, 1, 77, 127
1, 131941, Note_off_c, 1, 58, 0
1, 131944, Note_on_c, 1, 53, 127
1, 132083, Note_off_c, 1, 53, 0
1, 132085, Note_on_c, 1, 51, 127
1, 132224, Note_off_c, 1, 51, 0
1, 132226, Note_on_c, 1, 50, 127
1, 132363, Note_off_c, 1, 68, 0
1, 132363, Note_off_c, 1, 74, 0
1, 132363, Note_off_c, 1, 77, 0
1, 132365, Note_off_c, 1, 50, 0
1, 132366, Note_on_c, 1, 51, 127
1, 132366, Note_on_c, 1, 67, 127
1, 132366, Note_on_c, 1, 70, 127
1, 132366, Note_on_c, 1, 75, 127
1, 132505, Note_off_c, 1, 51, 0
1, 132507, Note_on_c, 1, 53, 127
1, 132646, Note_off_c, 1, 53, 0
1, 132648, Note_on_c, 1, 55, 127
1, 132787, Note_off_c, 1, 55, 0
1, 132789, Note_on_c, 1, 56, 127
1, 132927, Note_off_c, 1, 67, 0
1, 132927, Note_off_c, 1, 70, 0
1, 132928, Note_off_c, 1, 56, 0
1, 132929, Note_on_c, 1, 65, 127
1, 132929, Note_on_c, 1, 46, 127
1, 133492, Note_off_c, 1, 75, 0
1, 133495, Note_on_c, 1, 74, 127
1, 133775, Note_off_c, 1, 65, 0
1, 133778, Note_on_c, 1, 68, 127
1, 134058, Note_off_c, 1, 46, 0
1, 134059, Note_off_c, 1, 74, 0
1, 134059, Note_off_c, 1, 68, 0
1, 134061, Note_on_c, 1, 67, 127
1, 134061, Note_on_c, 1, 51, 127
1, 134061, Note_on_c, 1, 75, 127
1, 134202, Note_off_c, 1, 67, 0
1, 134204, Note_on_c, 1, 70, 127
1, 134345, Note_off_c, 1, 70, 0
1, 134348, Note_on_c, 1, 72, 127
1, 134489, Note_off_c, 1, 72, 0
1, 134491, Note_on_c, 1, 73, 127
1, 134632, Note_off_c, 1, 73, 0
1, 134634, Note_on_c, 1, 56, 127
1, 134920, Note_on_c, 1, 68, 127
1, 135061, Note_off_c, 1, 68, 0
1, 135204, Note_off_c, 1, 51, 0
1, 135204, Note_off_c, 1, 75, 0
1, 135207, Note_on_c, 1, 65, 127
1, 135207, Note_on_c, 1, 74, 127
1, 135491, Note_off_c, 1, 65, 0
1, 135777, Note_off_c, 1, 56, 0
1, 135777, Note_off_c, 1, 74, 0
1, 135778, Note_on_c, 1, 55, 127
1, 136348, Note_off_c, 1, 55, 0
1, 136351, Note_on_c, 1, 63, 127
1, 136351, Note_on_c, 1, 60, 127
1, 136949, Note_off_c, 1, 63, 0
1, 137550, Note_off_c, 1, 60, 0
1, 137553, Note_on_c, 1, 59, 127
1, 138046, Note_on_c, 1, 71, 127
1, 138208, Note_off_c, 1, 71, 0
1, 138865, Note_off_c, 1, 59, 0
1, 138883, Note_on_c, 1, 58, 127
1, 141490, Note_off_c, 1, 58, 0
1, 142187, Note_on_c, 1, 70, 127
1, 142345, Note_off_c, 1, 70, 0
1, 142348, Note_on_c, 1, 67, 127
1, 142506, Note_off_c, 1, 67, 0
1, 142508, Note_on_c, 1, 65, 127
1, 142666, Note_off_c, 1, 65, 0
1, 142669, Note_on_c, 1, 67, 127
1, 142827, Note_off_c, 1, 67, 0
1, 142830, Note_on_c, 1, 63, 127
1, 142988, Note_off_c, 1, 63, 0
1, 142990, Note_on_c, 1, 68, 127
1, 143148, Note_off_c, 1, 68, 0
1, 143151, Note_on_c, 1, 67, 127
1, 143309, Note_off_c, 1, 67, 0
1, 143312, Note_on_c, 1, 68, 127
1, 143470, Note_off_c, 1, 68, 0
1, 143472, Note_on_c, 1, 72, 127
1, 143764, Note_off_c, 1, 72, 0
1, 143794, Note_on_c, 1, 70, 127
1, 144086, Note_off_c, 1, 70, 0
1, 144437, Note_on_c, 1, 69, 127
1, 144595, Note_off_c, 1, 69, 0
1, 144598, Note_on_c, 1, 65, 127
1, 144756, Note_off_c, 1, 65, 0
1, 144759, Note_on_c, 1, 75, 127
1, 145051, Note_off_c, 1, 75, 0
1, 145079, Note_on_c, 1, 74, 127
1, 145371, Note_off_c, 1, 74, 0
1, 145400, Note_on_c, 1, 74, 127
1, 145505, Note_off_c, 1, 74, 0
1, 145508, Note_on_c, 1, 72, 127
1, 145613, Note_off_c, 1, 72, 0
1, 145615, Note_on_c, 1, 74, 127
1, 145720, Note_off_c, 1, 74, 0
1, 145722, Note_on_c, 1, 72, 127
1, 145827, Note_off_c, 1, 72, 0
1, 145829, Note_on_c, 1, 70, 127
1, 145934, Note_off_c, 1, 70, 0
1, 145936, Note_on_c, 1, 72, 127
1, 146041, Note_off_c, 1, 72, 0
1, 146043, Note_on_c, 1, 70, 127
1, 146201, Note_off_c, 1, 70, 0
1, 146204, Note_on_c, 1, 77, 127
1, 146362, Note_off_c, 1, 77, 0
1, 146365, Note_on_c, 1, 74, 127
1, 146523, Note_off_c, 1, 74, 0
1, 146525, Note_on_c, 1, 70, 127
1, 146683, Note_off_c, 1, 70, 0
1, 146686, Note_on_c, 1, 68, 127
1, 146844, Note_off_c, 1, 68, 0
1, 146847, Note_on_c, 1, 77, 127
1, 147005, Note_off_c, 1, 77, 0
1, 147007, Note_on_c, 1, 74, 127
1, 147165, Note_off_c, 1, 74, 0
1, 147168, Note_on_c, 1, 68, 127
1, 147326, Note_off_c, 1, 68, 0
1, 147329, Note_on_c, 1, 63, 127
1, 147329, Note_on_c, 1, 67, 127
1, 147487, Note_off_c, 1, 63, 0
1, 147489, Note_on_c, 1, 62, 127
1, 147647, Note_off_c, 1, 62, 0
1, 147648, Note_off_c, 1, 67, 0
1, 147650, Note_on_c, 1, 60, 127
1, 147650, Note_on_c, 1, 80, 127
1, 147808, Note_off_c, 1, 60, 0
1, 147810, Note_on_c, 1, 62, 127
1, 147968, Note_off_c, 1, 62, 0
1, 147969, Note_off_c, 1, 80, 0
1, 147970, Note_on_c, 1, 58, 127
1, 147970, Note_on_c, 1, 79, 127
1, 148128, Note_off_c, 1, 58, 0
1, 148131, Note_on_c, 1, 63, 127
1, 148289, Note_off_c, 1, 79, 0
1, 148289, Note_off_c, 1, 63, 0
1, 148292, Note_on_c, 1, 62, 127
1, 148292, Note_on_c, 1, 77, 127
1, 148450, Note_off_c, 1, 62, 0
1, 148452, Note_on_c, 1, 63, 127
1, 148610, Note_off_c, 1, 63, 0
1, 148611, Note_off_c, 1, 77, 0
1, 148613, Note_on_c, 1, 75, 127
1, 148613, Note_on_c, 1, 67, 127
1, 148771, Note_off_c, 1, 75, 0
1, 148774, Note_on_c, 1, 72, 127
1, 148905, Note_off_c, 1, 67, 0
1, 148932, Note_off_c, 1, 72, 0
1, 148934, Note_on_c, 1, 74, 127
1, 148934, Note_on_c, 1, 65, 127
1, 149092, Note_off_c, 1, 74, 0
1, 149095, Note_on_c, 1, 75, 127
1, 149226, Note_off_c, 1, 65, 0
1, 149253, Note_off_c, 1, 75, 0
1, 149256, Note_on_c, 1, 77, 127
1, 149577, Note_on_c, 1, 62, 127
1, 149735, Note_off_c, 1, 62, 0
1, 149738, Note_on_c, 1, 58, 127
1, 149896, Note_off_c, 1, 58, 0
1, 149898, Note_on_c, 1, 68, 127
1, 150057, Note_off_c, 1, 77, 0
1, 150059, Note_on_c, 1, 75, 127
1, 150190, Note_off_c, 1, 68, 0
1, 150217, Note_off_c, 1, 75, 0
1, 150220, Note_on_c, 1, 77, 127
1, 150220, Note_on_c, 1, 67, 127
1, 150378, Note_off_c, 1, 77, 0
1, 150381, Note_on_c, 1, 79, 127
1, 150512, Note_off_c, 1, 67, 0
1, 150539, Note_off_c, 1, 79, 0
1, 150540, Note_on_c, 1, 67, 127
1, 150540, Note_on_c, 1, 80, 127
1, 150645, Note_off_c, 1, 67, 0
1, 150647, Note_on_c, 1, 65, 127
1, 150698, Note_off_c, 1, 80, 0
1, 150701, Note_on_c, 1, 77, 127
1, 150752, Note_off_c, 1, 65, 0
1, 150859, Note_off_c, 1, 77, 0
1, 150862, Note_on_c, 1, 65, 127
1, 150862, Note_on_c, 1, 70, 127
1, 150967, Note_off_c, 1, 65, 0
1, 150969, Note_on_c, 1, 63, 127
1, 151020, Note_off_c, 1, 70, 0
1, 151022, Note_on_c, 1, 80, 127
1, 151074, Note_off_c, 1, 63, 0
1, 151180, Note_off_c, 1, 80, 0
1, 151183, Note_on_c, 1, 63, 127
1, 151183, Note_on_c, 1, 79, 127
1, 151341, Note_off_c, 1, 63, 0
1, 151344, Note_on_c, 1, 70, 127
1, 151502, Note_off_c, 1, 79, 0
1, 151502, Note_off_c, 1, 70, 0
1, 151504, Note_on_c, 1, 67, 127
1, 151504, Note_on_c, 1, 75, 127
1, 151662, Note_off_c, 1, 67, 0
1, 151662, Note_off_c, 1, 75, 0
1, 151665, Note_on_c, 1, 65, 127
1, 151665, Note_on_c, 1, 79, 127
1, 151823, Note_off_c, 1, 65, 0
1, 151823, Note_off_c, 1, 79, 0
1, 151826, Note_on_c, 1, 63, 127
1, 151826, Note_on_c, 1, 84, 127
1, 151984, Note_off_c, 1, 63, 0
1, 151986, Note_on_c, 1, 72, 127
1, 152144, Note_off_c, 1, 72, 0
1, 152147, Note_on_c, 1, 69, 127
1, 152305, Note_off_c, 1, 69, 0
1, 152308, Note_on_c, 1, 65, 127
1, 152466, Note_off_c, 1, 65, 0
1, 152468, Note_on_c, 1, 62, 127
1, 152626, Note_off_c, 1, 62, 0
1, 152628, Note_off_c, 1, 84, 0
1, 152629, Note_on_c, 1, 69, 127
1, 152787, Note_off_c, 1, 69, 0
1, 152790, Note_on_c, 1, 65, 127
1, 152790, Note_on_c, 1, 74, 127
1, 152948, Note_off_c, 1, 65, 0
1, 152948, Note_off_c, 1, 74, 0
1, 152950, Note_on_c, 1, 63, 127
1, 152950, Note_on_c, 1, 77, 127
1, 153108, Note_off_c, 1, 63, 0
1, 153108, Note_off_c, 1, 77, 0
1, 153110, Note_on_c, 1, 61, 127
1, 153110, Note_on_c, 1, 82, 127
1, 153268, Note_off_c, 1, 61, 0
1, 153271, Note_on_c, 1, 70, 127
1, 153429, Note_off_c, 1, 70, 0
1, 153431, Note_on_c, 1, 67, 127
1, 153589, Note_off_c, 1, 67, 0
1, 153753, Note_on_c, 1, 60, 127
1, 153911, Note_off_c, 1, 60, 0
1, 153912, Note_off_c, 1, 82, 0
1, 153913, Note_on_c, 1, 67, 127
1, 154071, Note_off_c, 1, 67, 0
1, 154074, Note_on_c, 1, 63, 127
1, 154074, Note_on_c, 1, 72, 127
1, 154232, Note_off_c, 1, 63, 0
1, 154232, Note_off_c, 1, 72, 0
1, 154235, Note_on_c, 1, 60, 127
1, 154235, Note_on_c, 1, 75, 127
1, 154393, Note_off_c, 1, 60, 0
1, 154393, Note_off_c, 1, 75, 0
1, 154395, Note_on_c, 1, 62, 127
1, 154395, Note_on_c, 1, 80, 127
1, 154553, Note_off_c, 1, 62, 0
1, 154556, Note_on_c, 1, 70, 127
1, 154714, Note_off_c, 1, 80, 0
1, 154714, Note_off_c, 1, 70, 0
1, 154717, Note_on_c, 1, 63, 127
1, 154717, Note_on_c, 1, 79, 127
1, 154875, Note_off_c, 1, 63, 0
1, 154878, Note_on_c, 1, 72, 127
1, 155036, Note_off_c, 1, 79, 0
1, 155036, Note_off_c, 1, 72, 0
1, 155038, Note_on_c, 1, 58, 127
1, 155038, Note_on_c, 1, 74, 127
1, 155038, Note_on_c, 1, 77, 127
1, 155196, Note_off_c, 1, 58, 0
1, 155199, Note_on_c, 1, 55, 127
1, 155357, Note_off_c, 1, 74, 0
1, 155357, Note_off_c, 1, 55, 0
1, 155360, Note_on_c, 1, 53, 127
1, 155360, Note_on_c, 1, 73, 127
1, 155518, Note_off_c, 1, 53, 0
1, 155678, Note_off_c, 1, 77, 0
1, 155679, Note_off_c, 1, 73, 0
1, 155681, Note_on_c, 1, 51, 127
1, 155681, Note_on_c, 1, 72, 127
1, 155681, Note_on_c, 1, 79, 127
1, 155839, Note_off_c, 1, 51, 0
1, 155841, Note_on_c, 1, 56, 127
1, 155999, Note_off_c, 1, 56, 0
1, 156000, Note_off_c, 1, 72, 0
1, 156000, Note_off_c, 1, 79, 0
1, 156001, Note_on_c, 1, 55, 127
1, 156001, Note_on_c, 1, 70, 127
1, 156001, Note_on_c, 1, 74, 127
1, 156159, Note_off_c, 1, 55, 0
1, 156162, Note_on_c, 1, 56, 127
1, 156320, Note_off_c, 1, 70, 0
1, 156320, Note_off_c, 1, 74, 0
1, 156320, Note_off_c, 1, 56, 0
1, 156323, Note_on_c, 1, 68, 127
1, 156323, Note_on_c, 1, 60, 127
1, 156323, Note_on_c, 1, 75, 127
1, 156481, Note_off_c, 1, 68, 0
1, 156483, Note_on_c, 1, 67, 127
1, 156615, Note_off_c, 1, 60, 0
1, 156641, Note_off_c, 1, 67, 0
1, 156644, Note_on_c, 1, 58, 127
1, 156805, Note_on_c, 1, 70, 127
1, 156936, Note_off_c, 1, 58, 0
1, 156963, Note_off_c, 1, 70, 0
1, 156965, Note_on_c, 1, 72, 127
1, 157125, Note_off_c, 1, 75, 0
1, 157287, Note_on_c, 1, 57, 127
1, 157287, Note_on_c, 1, 77, 127
1, 157445, Note_off_c, 1, 57, 0
1, 157447, Note_on_c, 1, 53, 127
1, 157605, Note_off_c, 1, 53, 0
1, 157606, Note_off_c, 1, 77, 0
1, 157608, Note_on_c, 1, 63, 127
1, 157608, Note_on_c, 1, 79, 127
1, 157766, Note_off_c, 1, 72, 0
1, 157927, Note_off_c, 1, 63, 0
1, 157929, Note_on_c, 1, 62, 127
1, 158090, Note_on_c, 1, 74, 127
1, 158248, Note_off_c, 1, 62, 0
1, 158248, Note_off_c, 1, 74, 0
1, 158570, Note_off_c, 1, 79, 0
1, 158571, Note_on_c, 1, 60, 127
1, 158571, Note_on_c, 1, 65, 127
1, 158571, Note_on_c, 1, 81, 127
1, 158676, Note_off_c, 1, 60, 0
1, 158678, Note_on_c, 1, 58, 127
1, 158729, Note_off_c, 1, 65, 0
1, 158732, Note_on_c, 1, 75, 127
1, 158783, Note_off_c, 1, 58, 0
1, 158890, Note_off_c, 1, 81, 0
1, 158890, Note_off_c, 1, 75, 0
1, 158892, Note_on_c, 1, 58, 127
1, 158892, Note_on_c, 1, 74, 127
1, 158892, Note_on_c, 1, 82, 127
1, 159050, Note_off_c, 1, 58, 0
1, 159053, Note_on_c, 1, 65, 127
1, 159211, Note_off_c, 1, 74, 0
1, 159211, Note_off_c, 1, 65, 0
1, 159214, Note_on_c, 1, 62, 127
1, 159214, Note_on_c, 1, 77, 127
1, 159372, Note_off_c, 1, 62, 0
1, 159533, Note_off_c, 1, 77, 0
1, 159535, Note_on_c, 1, 56, 127
1, 159693, Note_off_c, 1, 56, 0
1, 159857, Note_on_c, 1, 70, 127
1, 160176, Note_off_c, 1, 70, 0
1, 160178, Note_on_c, 1, 55, 127
1, 160178, Note_on_c, 1, 75, 127
1, 160336, Note_off_c, 1, 82, 0
1, 160470, Note_off_c, 1, 55, 0
1, 160499, Note_on_c, 1, 79, 127
1, 160499, Note_on_c, 1, 63, 127
1, 160646, Note_off_c, 1, 75, 0
1, 160657, Note_off_c, 1, 79, 0
1, 160791, Note_off_c, 1, 63, 0
1, 160821, Note_on_c, 1, 73, 127
1, 160981, Note_on_c, 1, 82, 127
1, 161139, Note_off_c, 1, 82, 0
1, 161141, Note_on_c, 1, 79, 127
1, 161141, Note_on_c, 1, 51, 127
1, 161298, Note_off_c, 1, 73, 0
1, 161298, Note_off_c, 1, 79, 0
1, 161459, Note_off_c, 1, 51, 0
1, 161461, Note_on_c, 1, 56, 127
1, 161461, Note_on_c, 1, 72, 127
1, 161619, Note_off_c, 1, 56, 0
1, 161622, Note_on_c, 1, 63, 127
1, 161780, Note_off_c, 1, 72, 0
1, 161780, Note_off_c, 1, 63, 0
1, 161783, Note_on_c, 1, 60, 127
1, 161783, Note_on_c, 1, 75, 127
1, 161941, Note_off_c, 1, 60, 0
1, 161943, Note_on_c, 1, 56, 127
1, 162101, Note_off_c, 1, 56, 0
1, 162102, Note_off_c, 1, 75, 0
1, 162104, Note_on_c, 1, 55, 127
1, 162104, Note_on_c, 1, 72, 127
1, 162104, Note_on_c, 1, 80, 127
1, 162262, Note_off_c, 1, 55, 0
1, 162265, Note_on_c, 1, 63, 127
1, 162423, Note_off_c, 1, 72, 0
1, 162423, Note_off_c, 1, 63, 0
1, 162425, Note_on_c, 1, 60, 127
1, 162425, Note_on_c, 1, 68, 127
1, 162583, Note_off_c, 1, 60, 0
1, 162744, Note_off_c, 1, 68, 0
1, 162747, Note_on_c, 1, 53, 127
1, 162747, Note_on_c, 1, 74, 127
1, 162905, Note_off_c, 1, 80, 0
1, 163039, Note_off_c, 1, 53, 0
1, 163068, Note_on_c, 1, 77, 127
1, 163068, Note_on_c, 1, 62, 127
1, 163215, Note_off_c, 1, 74, 0
1, 163226, Note_off_c, 1, 77, 0
1, 163360, Note_off_c, 1, 62, 0
1, 163389, Note_on_c, 1, 72, 127
1, 163549, Note_on_c, 1, 80, 127
1, 163707, Note_off_c, 1, 80, 0
1, 163710, Note_on_c, 1, 77, 127
1, 163710, Note_on_c, 1, 50, 127
1, 163857, Note_off_c, 1, 72, 0
1, 163868, Note_off_c, 1, 77, 0
1, 164029, Note_off_c, 1, 50, 0
1, 164031, Note_on_c, 1, 55, 127
1, 164031, Note_on_c, 1, 70, 127
1, 164189, Note_off_c, 1, 55, 0
1, 164192, Note_on_c, 1, 62, 127
1, 164350, Note_off_c, 1, 70, 0
1, 164350, Note_off_c, 1, 62, 0
1, 164352, Note_on_c, 1, 58, 127
1, 164352, Note_on_c, 1, 74, 127
1, 164510, Note_off_c, 1, 58, 0
1, 164513, Note_on_c, 1, 55, 127
1, 164671, Note_off_c, 1, 74, 0
1, 164671, Note_off_c, 1, 55, 0
1, 164674, Note_on_c, 1, 53, 127
1, 164674, Note_on_c, 1, 70, 127
1, 164674, Note_on_c, 1, 79, 127
1, 164832, Note_off_c, 1, 53, 0
1, 164835, Note_on_c, 1, 61, 127
1, 164993, Note_off_c, 1, 70, 0
1, 164993, Note_off_c, 1, 61, 0
1, 164995, Note_on_c, 1, 58, 127
1, 164995, Note_on_c, 1, 67, 127
1, 165153, Note_off_c, 1, 58, 0
1, 165314, Note_off_c, 1, 67, 0
1, 165317, Note_on_c, 1, 52, 127
1, 165317, Note_on_c, 1, 72, 127
1, 165475, Note_off_c, 1, 52, 0
1, 165477, Note_on_c, 1, 60, 127
1, 165635, Note_off_c, 1, 60, 0
1, 165636, Note_off_c, 1, 72, 0
1, 165638, Note_on_c, 1, 55, 127
1, 165796, Note_off_c, 1, 55, 0
1, 165959, Note_on_c, 1, 68, 127
1, 166118, Note_off_c, 1, 79, 0
1, 166280, Note_on_c, 1, 56, 127
1, 166280, Note_on_c, 1, 74, 127
1, 166438, Note_off_c, 1, 56, 0
1, 166438, Note_off_c, 1, 74, 0
1, 166440, Note_on_c, 1, 75, 127
1, 166598, Note_off_c, 1, 75, 0
1, 166601, Note_on_c, 1, 50, 127
1, 166601, Note_on_c, 1, 77, 127
1, 166759, Note_off_c, 1, 50, 0
1, 166760, Note_off_c, 1, 68, 0
1, 167244, Note_on_c, 1, 51, 127
1, 167402, Note_off_c, 1, 51, 0
1, 167563, Note_off_c, 1, 77, 0
1, 167886, Note_on_c, 1, 46, 127
1, 167886, Note_on_c, 1, 65, 127
1, 168205, Note_off_c, 1, 46, 0
1, 168520, Note_off_c, 1, 65, 0
1, 168527, Note_on_c, 1, 55, 127
1, 168527, Note_on_c, 1, 70, 127
1, 168688, Note_on_c, 1, 75, 127
1, 168846, Note_off_c, 1, 55, 0
1, 168846, Note_off_c, 1, 75, 0
1, 168848, Note_on_c, 1, 74, 127
1, 168848, Note_on_c, 1, 53, 127
1, 169006, Note_off_c, 1, 74, 0
1, 169161, Note_off_c, 1, 70, 0
1, 169166, Note_off_c, 1, 53, 0
1, 169169, Note_on_c, 1, 51, 127
1, 169169, Note_on_c, 1, 79, 127
1, 169327, Note_off_c, 1, 51, 0
1, 169329, Note_on_c, 1, 48, 127
1, 169461, Note_off_c, 1, 79, 0
1, 169487, Note_off_c, 1, 48, 0
1, 169490, Note_on_c, 1, 50, 127
1, 169490, Note_on_c, 1, 68, 127
1, 169490, Note_on_c, 1, 77, 127
1, 169648, Note_off_c, 1, 50, 0
1, 169648, Note_off_c, 1, 68, 0
1, 169651, Note_on_c, 1, 51, 127
1, 169651, Note_on_c, 1, 67, 127
1, 169782, Note_off_c, 1, 77, 0
1, 169809, Note_off_c, 1, 51, 0
1, 169809, Note_off_c, 1, 67, 0
1, 169811, Note_on_c, 1, 68, 127
1, 169811, Note_on_c, 1, 53, 127
1, 170130, Note_off_c, 1, 68, 0
1, 170133, Note_on_c, 1, 74, 127
1, 170133, Note_on_c, 1, 65, 127
1, 170291, Note_off_c, 1, 74, 0
1, 170294, Note_on_c, 1, 70, 127
1, 170452, Note_off_c, 1, 65, 0
1, 170452, Note_off_c, 1, 70, 0
1, 170454, Note_on_c, 1, 80, 127
1, 170454, Note_on_c, 1, 62, 127
1, 170612, Note_off_c, 1, 53, 0
1, 170615, Note_on_c, 1, 51, 127
1, 170746, Note_off_c, 1, 80, 0
1, 170773, Note_off_c, 1, 62, 0
1, 170773, Note_off_c, 1, 51, 0
1, 170776, Note_on_c, 1, 53, 127
1, 170776, Note_on_c, 1, 79, 127
1, 170776, Note_on_c, 1, 75, 127
1, 170934, Note_off_c, 1, 53, 0
1, 170935, Note_on_c, 1, 55, 127
1, 171068, Note_off_c, 1, 79, 0
1, 171093, Note_off_c, 1, 55, 0
1, 171096, Note_on_c, 1, 56, 127
1, 171203, Note_on_c, 1, 77, 127
1, 171254, Note_off_c, 1, 56, 0
1, 171308, Note_off_c, 1, 77, 0
1, 171416, Note_off_c, 1, 75, 0
1, 171417, Note_on_c, 1, 77, 127
1, 171417, Note_on_c, 1, 46, 127
1, 171417, Note_on_c, 1, 74, 127
1, 171522, Note_off_c, 1, 77, 0
1, 171524, Note_on_c, 1, 79, 127
1, 171575, Note_off_c, 1, 46, 0
1, 171578, Note_on_c, 1, 56, 127
1, 171629, Note_off_c, 1, 79, 0
1, 171734, Note_off_c, 1, 74, 0
1, 171735, Note_off_c, 1, 56, 0
1, 171738, Note_on_c, 1, 55, 127
1, 171738, Note_on_c, 1, 75, 127
1, 171898, Note_on_c, 1, 82, 127
1, 172056, Note_off_c, 1, 82, 0
1, 172057, Note_off_c, 1, 55, 0
1, 172059, Note_on_c, 1, 79, 127
1, 172059, Note_on_c, 1, 58, 127
1, 172215, Note_off_c, 1, 75, 0
1, 172216, Note_off_c, 1, 79, 0
1, 172377, Note_off_c, 1, 58, 0
1, 172379, Note_on_c, 1, 73, 127
1, 172379, Note_on_c, 1, 55, 127
1, 172379, Note_on_c, 1, 63, 127
1, 172537, Note_off_c, 1, 73, 0
1, 172540, Note_on_c, 1, 82, 127
1, 172698, Note_off_c, 1, 55, 0
1, 172698, Note_off_c, 1, 82, 0
1, 172701, Note_on_c, 1, 79, 127
1, 172701, Note_on_c, 1, 51, 127
1, 172859, Note_off_c, 1, 79, 0
1, 173020, Note_off_c, 1, 51, 0
1, 173021, Note_on_c, 1, 72, 127
1, 173021, Note_on_c, 1, 56, 127
1, 173180, Note_off_c, 1, 63, 0
1, 173313, Note_off_c, 1, 72, 0
1, 173339, Note_off_c, 1, 56, 0
1, 173342, Note_on_c, 1, 60, 127
1, 173342, Note_on_c, 1, 80, 127
1, 173500, Note_off_c, 1, 60, 0
1, 173503, Note_on_c, 1, 56, 127
1, 173634, Note_off_c, 1, 80, 0
1, 173661, Note_off_c, 1, 56, 0
1, 173664, Note_on_c, 1, 55, 127
1, 173822, Note_off_c, 1, 55, 0
1, 173824, Note_on_c, 1, 63, 127
1, 173982, Note_off_c, 1, 63, 0
1, 173985, Note_on_c, 1, 60, 127
1, 173985, Note_on_c, 1, 68, 127
1, 174143, Note_off_c, 1, 60, 0
1, 174146, Note_on_c, 1, 55, 127
1, 174304, Note_off_c, 1, 68, 0
1, 174304, Note_off_c, 1, 55, 0
1, 174306, Note_on_c, 1, 53, 127
1, 174306, Note_on_c, 1, 74, 127
1, 174467, Note_on_c, 1, 80, 127
1, 174625, Note_off_c, 1, 53, 0
1, 174625, Note_off_c, 1, 80, 0
1, 174628, Note_on_c, 1, 77, 127
1, 174628, Note_on_c, 1, 56, 127
1, 174783, Note_off_c, 1, 74, 0
1, 174785, Note_off_c, 1, 77, 0
1, 174946, Note_off_c, 1, 56, 0
1, 174948, Note_on_c, 1, 72, 127
1, 174948, Note_on_c, 1, 53, 127
1, 174948, Note_on_c, 1, 62, 127
1, 175106, Note_off_c, 1, 72, 0
1, 175108, Note_on_c, 1, 80, 127
1, 175266, Note_off_c, 1, 80, 0
1, 175267, Note_off_c, 1, 53, 0
1, 175268, Note_on_c, 1, 77, 127
1, 175268, Note_on_c, 1, 50, 127
1, 175426, Note_off_c, 1, 77, 0
1, 175587, Note_off_c, 1, 50, 0
1, 175590, Note_on_c, 1, 71, 127
1, 175590, Note_on_c, 1, 55, 127
1, 175749, Note_off_c, 1, 62, 0
1, 175882, Note_off_c, 1, 71, 0
1, 175908, Note_off_c, 1, 55, 0
1, 175911, Note_on_c, 1, 59, 127
1, 175911, Note_on_c, 1, 79, 127
1, 176069, Note_off_c, 1, 59, 0
1, 176072, Note_on_c, 1, 55, 127
1, 176203, Note_off_c, 1, 79, 0
1, 176230, Note_off_c, 1, 55, 0
1, 176233, Note_on_c, 1, 53, 127
1, 176391, Note_off_c, 1, 53, 0
1, 176393, Note_on_c, 1, 62, 127
1, 176551, Note_off_c, 1, 62, 0
1, 176554, Note_on_c, 1, 59, 127
1, 176554, Note_on_c, 1, 67, 127
1, 176712, Note_off_c, 1, 59, 0
1, 176715, Note_on_c, 1, 53, 127
1, 176873, Note_off_c, 1, 67, 0
1, 176873, Note_off_c, 1, 53, 0
1, 176875, Note_on_c, 1, 52, 127
1, 176875, Note_on_c, 1, 72, 127
1, 177036, Note_on_c, 1, 79, 127
1, 177194, Note_off_c, 1, 52, 0
1, 177194, Note_off_c, 1, 79, 0
1, 177197, Note_on_c, 1, 76, 127
1, 177197, Note_on_c, 1, 55, 127
1, 177352, Note_off_c, 1, 72, 0
1, 177354, Note_off_c, 1, 76, 0
1, 177515, Note_off_c, 1, 55, 0
1, 177516, Note_on_c, 1, 70, 127
1, 177516, Note_on_c, 1, 52, 127
1, 177516, Note_on_c, 1, 60, 127
1, 177674, Note_off_c, 1, 70, 0
1, 177677, Note_on_c, 1, 79, 127
1, 177835, Note_off_c, 1, 52, 0
1, 177835, Note_off_c, 1, 79, 0
1, 177837, Note_on_c, 1, 76, 127
1, 177837, Note_on_c, 1, 48, 127
1, 177995, Note_off_c, 1, 76, 0
1, 178156, Note_off_c, 1, 48, 0
1, 178159, Note_on_c, 1, 69, 127
1, 178159, Note_on_c, 1, 53, 127
1, 178317, Note_off_c, 1, 69, 0
1, 178478, Note_off_c, 1, 53, 0
1, 178480, Note_on_c, 1, 72, 127
1, 178480, Note_on_c, 1, 51, 127
1, 178638, Note_off_c, 1, 72, 0
1, 178641, Note_on_c, 1, 67, 127
1, 178799, Note_off_c, 1, 60, 0
1, 178799, Note_off_c, 1, 51, 0
1, 178799, Note_off_c, 1, 67, 0
1, 178801, Note_on_c, 1, 68, 127
1, 178801, Note_on_c, 1, 50, 127
1, 178801, Note_on_c, 1, 59, 127
1, 178959, Note_off_c, 1, 68, 0
1, 178962, Note_on_c, 1, 77, 127
1, 179120, Note_off_c, 1, 50, 0
1, 179120, Note_off_c, 1, 59, 0
1, 179120, Note_off_c, 1, 77, 0
1, 179123, Note_on_c, 1, 74, 127
1, 179123, Note_on_c, 1, 48, 127
1, 179123, Note_on_c, 1, 60, 127
1, 179281, Note_off_c, 1, 74, 0
1, 179283, Note_on_c, 1, 68, 127
1, 179441, Note_off_c, 1, 68, 0
1, 179442, Note_off_c, 1, 48, 0
1, 179442, Note_off_c, 1, 60, 0
1, 179444, Note_on_c, 1, 62, 127
1, 179444, Note_on_c, 1, 47, 127
1, 179444, Note_on_c, 1, 67, 127
1, 179602, Note_off_c, 1, 62, 0
1, 179605, Note_on_c, 1, 77, 127
1, 179763, Note_off_c, 1, 47, 0
1, 179763, Note_off_c, 1, 77, 0
1, 179765, Note_on_c, 1, 74, 127
1, 179765, Note_on_c, 1, 43, 127
1, 179923, Note_off_c, 1, 74, 0
1, 179926, Note_on_c, 1, 71, 127
1, 180078, Note_off_c, 1, 67, 0
1, 180083, Note_off_c, 1, 43, 0
1, 180083, Note_off_c, 1, 71, 0
1, 180085, Note_on_c, 1, 48, 127
1, 180085, Note_on_c, 1, 67, 127
1, 180245, Note_on_c, 1, 75, 127
1, 180403, Note_off_c, 1, 75, 0
1, 180404, Note_off_c, 1, 48, 0
1, 180406, Note_on_c, 1, 72, 127
1, 180406, Note_on_c, 1, 46, 127
1, 180562, Note_off_c, 1, 67, 0
1, 180563, Note_off_c, 1, 72, 0
1, 180724, Note_off_c, 1, 46, 0
1, 180726, Note_on_c, 1, 66, 127
1, 180726, Note_on_c, 1, 45, 127
1, 180887, Note_on_c, 1, 75, 127
1, 181043, Note_off_c, 1, 66, 0
1, 181044, Note_off_c, 1, 45, 0
1, 181044, Note_off_c, 1, 75, 0
1, 181047, Note_on_c, 1, 72, 127
1, 181047, Note_on_c, 1, 57, 127
1, 181205, Note_off_c, 1, 72, 0
1, 181207, Note_on_c, 1, 69, 127
1, 181365, Note_off_c, 1, 69, 0
1, 181366, Note_off_c, 1, 57, 0
1, 181368, Note_on_c, 1, 59, 127
1, 181368, Note_on_c, 1, 65, 127
1, 181529, Note_on_c, 1, 74, 127
1, 181687, Note_off_c, 1, 59, 0
1, 181687, Note_off_c, 1, 74, 0
1, 181689, Note_on_c, 1, 71, 127
1, 181689, Note_on_c, 1, 55, 127
1, 181836, Note_off_c, 1, 65, 0
1, 181847, Note_off_c, 1, 71, 0
1, 182008, Note_off_c, 1, 55, 0
1, 182010, Note_on_c, 1, 64, 127
1, 182010, Note_on_c, 1, 60, 127
1, 182170, Note_on_c, 1, 74, 127
1, 182327, Note_off_c, 1, 64, 0
1, 182327, Note_off_c, 1, 74, 0
1, 182328, Note_off_c, 1, 60, 0
1, 182330, Note_on_c, 1, 71, 127
1, 182330, Note_on_c, 1, 55, 127
1, 182488, Note_off_c, 1, 71, 0
1, 182491, Note_on_c, 1, 67, 127
1, 182649, Note_off_c, 1, 55, 0
1, 182649, Note_off_c, 1, 67, 0
1, 182651, Note_on_c, 1, 56, 127
1, 182651, Note_on_c, 1, 63, 127
1, 182812, Note_on_c, 1, 72, 127
1, 182970, Note_off_c, 1, 56, 0
1, 182970, Note_off_c, 1, 72, 0
1, 182973, Note_on_c, 1, 67, 127
1, 182973, Note_on_c, 1, 51, 127
1, 183119, Note_off_c, 1, 63, 0
1, 183131, Note_off_c, 1, 67, 0
1, 183292, Note_off_c, 1, 51, 0
1, 183294, Note_on_c, 1, 62, 127
1, 183294, Note_on_c, 1, 53, 127
1, 183455, Note_on_c, 1, 72, 127
1, 183611, Note_off_c, 1, 62, 0
1, 183612, Note_off_c, 1, 53, 0
1, 183612, Note_off_c, 1, 72, 0
1, 183615, Note_on_c, 1, 51, 127
1, 183615, Note_on_c, 1, 68, 127
1, 183773, Note_off_c, 1, 51, 0
1, 183773, Note_off_c, 1, 68, 0
1, 183774, Note_on_c, 1, 53, 127
1, 183774, Note_on_c, 1, 65, 127
1, 183932, Note_off_c, 1, 53, 0
1, 183932, Note_off_c, 1, 65, 0
1, 183935, Note_on_c, 1, 62, 127
1, 183935, Note_on_c, 1, 55, 127
1, 184093, Note_off_c, 1, 62, 0
1, 184096, Note_on_c, 1, 71, 127
1, 184254, Note_off_c, 1, 55, 0
1, 184254, Note_off_c, 1, 71, 0
1, 184256, Note_on_c, 1, 69, 127
1, 184256, Note_on_c, 1, 43, 127
1, 184414, Note_off_c, 1, 69, 0
1, 184417, Note_on_c, 1, 71, 127
1, 184575, Note_off_c, 1, 43, 0
1, 184575, Note_off_c, 1, 71, 0
1, 184578, Note_on_c, 1, 60, 127
1, 184578, Note_on_c, 1, 72, 127
1, 184578, Note_on_c, 1, 48, 127
1, 184736, Note_off_c, 1, 60, 0
1, 184738, Note_on_c, 1, 58, 127
1, 184896, Note_off_c, 1, 58, 0
1, 184897, Note_off_c, 1, 72, 0
1, 184899, Note_on_c, 1, 56, 127
1, 184899, Note_on_c, 1, 77, 127
1, 185046, Note_off_c, 1, 48, 0
1, 185057, Note_off_c, 1, 56, 0
1, 185218, Note_off_c, 1, 77, 0
1, 185220, Note_on_c, 1, 55, 127
1, 185220, Note_on_c, 1, 75, 127
1, 185378, Note_off_c, 1, 55, 0
1, 185381, Note_on_c, 1, 60, 127
1, 185539, Note_off_c, 1, 75, 0
1, 185539, Note_off_c, 1, 60, 0
1, 185542, Note_on_c, 1, 59, 127
1, 185542, Note_on_c, 1, 74, 127
1, 185700, Note_off_c, 1, 59, 0
1, 185702, Note_on_c, 1, 60, 127
1, 185860, Note_off_c, 1, 60, 0
1, 185861, Note_off_c, 1, 74, 0
1, 185863, Note_on_c, 1, 72, 127
1, 185863, Note_on_c, 1, 63, 127
1, 186021, Note_off_c, 1, 72, 0
1, 186024, Note_on_c, 1, 69, 127
1, 186155, Note_off_c, 1, 63, 0
1, 186182, Note_off_c, 1, 69, 0
1, 186184, Note_on_c, 1, 71, 127
1, 186184, Note_on_c, 1, 62, 127
1, 186342, Note_off_c, 1, 71, 0
1, 186345, Note_on_c, 1, 72, 127
1, 186476, Note_off_c, 1, 62, 0
1, 186503, Note_off_c, 1, 72, 0
1, 186505, Note_on_c, 1, 74, 127
1, 186826, Note_on_c, 1, 59, 127
1, 186984, Note_off_c, 1, 59, 0
1, 186987, Note_on_c, 1, 55, 127
1, 187145, Note_off_c, 1, 55, 0
1, 187147, Note_on_c, 1, 65, 127
1, 187306, Note_off_c, 1, 74, 0
1, 187308, Note_on_c, 1, 72, 127
1, 187439, Note_off_c, 1, 65, 0
1, 187466, Note_off_c, 1, 72, 0
1, 187469, Note_on_c, 1, 74, 127
1, 187469, Note_on_c, 1, 63, 127
1, 187627, Note_off_c, 1, 74, 0
1, 187629, Note_on_c, 1, 75, 127
1, 187761, Note_off_c, 1, 63, 0
1, 187787, Note_off_c, 1, 75, 0
1, 187790, Note_on_c, 1, 63, 127
1, 187790, Note_on_c, 1, 77, 127
1, 187895, Note_off_c, 1, 63, 0
1, 187897, Note_on_c, 1, 62, 127
1, 187948, Note_off_c, 1, 77, 0
1, 187951, Note_on_c, 1, 74, 127
1, 188002, Note_off_c, 1, 62, 0
1, 188109, Note_off_c, 1, 74, 0
1, 188111, Note_on_c, 1, 62, 127
1, 188111, Note_on_c, 1, 67, 127
1, 188216, Note_off_c, 1, 62, 0
1, 188219, Note_on_c, 1, 60, 127
1, 188269, Note_off_c, 1, 67, 0
1, 188272, Note_on_c, 1, 77, 127
1, 188324, Note_off_c, 1, 60, 0
1, 188430, Note_off_c, 1, 77, 0
1, 188433, Note_on_c, 1, 60, 127
1, 188433, Note_on_c, 1, 75, 127
1, 188591, Note_off_c, 1, 60, 0
1, 188591, Note_off_c, 1, 75, 0
1, 188594, Note_on_c, 1, 59, 127
1, 188594, Note_on_c, 1, 79, 127
1, 188752, Note_off_c, 1, 59, 0
1, 188752, Note_off_c, 1, 79, 0
1, 188754, Note_on_c, 1, 60, 127
1, 188754, Note_on_c, 1, 75, 127
1, 188912, Note_off_c, 1, 60, 0
1, 188912, Note_off_c, 1, 75, 0
1, 188915, Note_on_c, 1, 63, 127
1, 188915, Note_on_c, 1, 74, 127
1, 189073, Note_off_c, 1, 63, 0
1, 189073, Note_off_c, 1, 74, 0
1, 189075, Note_on_c, 1, 72, 127
1, 189075, Note_on_c, 1, 68, 127
1, 189233, Note_off_c, 1, 72, 0
1, 189235, Note_on_c, 1, 84, 127
1, 189393, Note_off_c, 1, 84, 0
1, 189396, Note_on_c, 1, 80, 127
1, 189554, Note_off_c, 1, 80, 0
1, 189557, Note_on_c, 1, 77, 127
1, 189715, Note_off_c, 1, 77, 0
1, 189717, Note_on_c, 1, 74, 127
1, 189875, Note_off_c, 1, 74, 0
1, 189877, Note_off_c, 1, 68, 0
1, 189878, Note_on_c, 1, 77, 127
1, 190036, Note_off_c, 1, 77, 0
1, 190039, Note_on_c, 1, 58, 127
1, 190039, Note_on_c, 1, 74, 127
1, 190197, Note_off_c, 1, 58, 0
1, 190197, Note_off_c, 1, 74, 0
1, 190199, Note_on_c, 1, 62, 127
1, 190199, Note_on_c, 1, 72, 127
1, 190357, Note_off_c, 1, 62, 0
1, 190357, Note_off_c, 1, 72, 0
1, 190360, Note_on_c, 1, 70, 127
1, 190360, Note_on_c, 1, 67, 127
1, 190518, Note_off_c, 1, 70, 0
1, 190521, Note_on_c, 1, 82, 127
1, 190679, Note_off_c, 1, 82, 0
1, 190681, Note_on_c, 1, 79, 127
1, 190839, Note_off_c, 1, 79, 0
1, 190842, Note_on_c, 1, 75, 127
1, 191000, Note_off_c, 1, 75, 0
1, 191003, Note_on_c, 1, 72, 127
1, 191161, Note_off_c, 1, 72, 0
1, 191162, Note_off_c, 1, 67, 0
1, 191163, Note_on_c, 1, 75, 127
1, 191321, Note_off_c, 1, 75, 0
1, 191324, Note_on_c, 1, 56, 127
1, 191324, Note_on_c, 1, 72, 127
1, 191482, Note_off_c, 1, 56, 0
1, 191482, Note_off_c, 1, 72, 0
1, 191485, Note_on_c, 1, 60, 127
1, 191485, Note_on_c, 1, 70, 127
1, 191643, Note_off_c, 1, 60, 0
1, 191643, Note_off_c, 1, 70, 0
1, 191645, Note_on_c, 1, 68, 127
1, 191645, Note_on_c, 1, 65, 127
1, 191803, Note_off_c, 1, 68, 0
1, 191805, Note_on_c, 1, 80, 127
1, 191963, Note_off_c, 1, 80, 0
1, 191966, Note_on_c, 1, 77, 127
1, 192124, Note_off_c, 1, 77, 0
1, 192126, Note_on_c, 1, 74, 127
1, 192284, Note_off_c, 1, 74, 0
1, 192287, Note_on_c, 1, 55, 127
1, 192287, Note_on_c, 1, 71, 127
1, 192445, Note_off_c, 1, 55, 0
1, 192446, Note_off_c, 1, 65, 0
1, 192448, Note_on_c, 1, 51, 127
1, 192448, Note_on_c, 1, 67, 127
1, 192606, Note_off_c, 1, 51, 0
1, 192606, Note_off_c, 1, 67, 0
1, 192608, Note_on_c, 1, 50, 127
1, 192766, Note_off_c, 1, 50, 0
1, 192927, Note_off_c, 1, 71, 0
1, 192930, Note_on_c, 1, 48, 127
1, 192930, Note_on_c, 1, 72, 127
1, 193088, Note_off_c, 1, 48, 0
1, 193091, Note_on_c, 1, 53, 127
1, 193249, Note_off_c, 1, 53, 0
1, 193573, Note_on_c, 1, 56, 127
1, 193733, Note_on_c, 1, 63, 127
1, 193865, Note_off_c, 1, 56, 0
1, 193891, Note_off_c, 1, 63, 0
1, 193892, Note_off_c, 1, 72, 0
1, 193894, Note_on_c, 1, 65, 127
1, 193894, Note_on_c, 1, 55, 127
1, 193894, Note_on_c, 1, 71, 127
1, 194052, Note_off_c, 1, 65, 0
1, 194055, Note_on_c, 1, 67, 127
1, 194186, Note_off_c, 1, 55, 0
1, 194213, Note_off_c, 1, 71, 0
1, 194213, Note_off_c, 1, 67, 0
1, 194215, Note_on_c, 1, 72, 127
1, 194215, Note_on_c, 1, 69, 127
1, 194373, Note_off_c, 1, 72, 0
1, 194376, Note_on_c, 1, 71, 127
1, 194534, Note_off_c, 1, 71, 0
1, 194536, Note_on_c, 1, 54, 127
1, 194694, Note_off_c, 1, 54, 0
1, 194696, Note_on_c, 1, 50, 127
1, 194696, Note_on_c, 1, 74, 127
1, 194854, Note_off_c, 1, 50, 0
1, 194854, Note_off_c, 1, 74, 0
1, 194857, Note_on_c, 1, 60, 127
1, 194857, Note_on_c, 1, 75, 127
1, 195016, Note_off_c, 1, 69, 0
1, 195018, Note_on_c, 1, 67, 127
1, 195149, Note_off_c, 1, 60, 0
1, 195176, Note_off_c, 1, 75, 0
1, 195176, Note_off_c, 1, 67, 0
1, 195178, Note_on_c, 1, 69, 127
1, 195178, Note_on_c, 1, 58, 127
1, 195178, Note_on_c, 1, 74, 127
1, 195336, Note_off_c, 1, 69, 0
1, 195339, Note_on_c, 1, 70, 127
1, 195470, Note_off_c, 1, 58, 0
1, 195497, Note_off_c, 1, 74, 0
1, 195497, Note_off_c, 1, 70, 0
1, 195500, Note_on_c, 1, 58, 127
1, 195500, Note_on_c, 1, 72, 127
1, 195500, Note_on_c, 1, 76, 127
1, 195605, Note_off_c, 1, 58, 0
1, 195607, Note_on_c, 1, 57, 127
1, 195658, Note_off_c, 1, 72, 0
1, 195660, Note_on_c, 1, 69, 127
1, 195712, Note_off_c, 1, 57, 0
1, 195818, Note_off_c, 1, 69, 0
1, 195819, Note_off_c, 1, 76, 0
1, 195821, Note_on_c, 1, 57, 127
1, 195821, Note_on_c, 1, 62, 127
1, 195821, Note_on_c, 1, 78, 127
1, 195926, Note_off_c, 1, 57, 0
1, 195928, Note_on_c, 1, 55, 127
1, 195979, Note_off_c, 1, 62, 0
1, 195982, Note_on_c, 1, 72, 127
1, 196033, Note_off_c, 1, 55, 0
1, 196140, Note_off_c, 1, 78, 0
1, 196140, Note_off_c, 1, 72, 0
1, 196142, Note_on_c, 1, 55, 127
1, 196142, Note_on_c, 1, 79, 127
1, 196142, Note_on_c, 1, 70, 127
1, 196300, Note_off_c, 1, 55, 0
1, 196300, Note_off_c, 1, 79, 0
1, 196303, Note_on_c, 1, 58, 127
1, 196303, Note_on_c, 1, 74, 127
1, 196461, Note_off_c, 1, 58, 0
1, 196461, Note_off_c, 1, 74, 0
1, 196464, Note_on_c, 1, 56, 127
1, 196464, Note_on_c, 1, 72, 127
1, 196622, Note_off_c, 1, 56, 0
1, 196622, Note_off_c, 1, 72, 0
1, 196776, Note_off_c, 1, 70, 0
1, 196783, Note_on_c, 1, 55, 127
1, 196783, Note_on_c, 1, 70, 127
1, 196941, Note_off_c, 1, 55, 0
1, 196944, Note_on_c, 1, 56, 127
1, 196944, Note_on_c, 1, 76, 127
1, 197102, Note_off_c, 1, 56, 0
1, 197102, Note_off_c, 1, 76, 0
1, 197104, Note_on_c, 1, 53, 127
1, 197104, Note_on_c, 1, 74, 127
1, 197262, Note_off_c, 1, 53, 0
1, 197262, Note_off_c, 1, 74, 0
1, 197417, Note_off_c, 1, 70, 0
1, 197425, Note_on_c, 1, 52, 127
1, 197425, Note_on_c, 1, 79, 127
1, 197583, Note_off_c, 1, 52, 0
1, 197585, Note_on_c, 1, 60, 127
1, 197585, Note_on_c, 1, 73, 127
1, 197743, Note_off_c, 1, 60, 0
1, 197743, Note_off_c, 1, 73, 0
1, 197744, Note_off_c, 1, 79, 0
1, 197746, Note_on_c, 1, 56, 127
1, 197746, Note_on_c, 1, 72, 127
1, 197746, Note_on_c, 1, 77, 127
1, 197904, Note_off_c, 1, 56, 0
1, 197904, Note_off_c, 1, 72, 0
1, 197907, Note_on_c, 1, 53, 127
1, 197907, Note_on_c, 1, 70, 127
1, 198065, Note_off_c, 1, 53, 0
1, 198065, Note_off_c, 1, 70, 0
1, 198067, Note_on_c, 1, 48, 127
1, 198067, Note_on_c, 1, 68, 127
1, 198225, Note_off_c, 1, 48, 0
1, 198225, Note_off_c, 1, 68, 0
1, 198228, Note_on_c, 1, 67, 127
1, 198386, Note_off_c, 1, 67, 0
1, 198389, Note_on_c, 1, 65, 127
1, 198547, Note_off_c, 1, 65, 0
1, 198550, Note_on_c, 1, 44, 127
1, 198708, Note_off_c, 1, 77, 0
1, 198708, Note_off_c, 1, 44, 0
1, 198710, Note_on_c, 1, 41, 127
1, 198710, Note_on_c, 1, 77, 127
1, 198710, Note_on_c, 1, 68, 127
1, 198868, Note_off_c, 1, 41, 0
1, 198868, Note_off_c, 1, 77, 0
1, 198871, Note_on_c, 1, 56, 127
1, 198871, Note_on_c, 1, 72, 127
1, 199029, Note_off_c, 1, 56, 0
1, 199029, Note_off_c, 1, 72, 0
1, 199032, Note_on_c, 1, 55, 127
1, 199032, Note_on_c, 1, 70, 127
1, 199190, Note_off_c, 1, 55, 0
1, 199190, Note_off_c, 1, 70, 0
1, 199344, Note_off_c, 1, 68, 0
1, 199351, Note_on_c, 1, 53, 127
1, 199351, Note_on_c, 1, 68, 127
1, 199509, Note_off_c, 1, 53, 0
1, 199512, Note_on_c, 1, 55, 127
1, 199512, Note_on_c, 1, 74, 127
1, 199670, Note_off_c, 1, 55, 0
1, 199670, Note_off_c, 1, 74, 0
1, 199672, Note_on_c, 1, 51, 127
1, 199672, Note_on_c, 1, 72, 127
1, 199830, Note_off_c, 1, 51, 0
1, 199830, Note_off_c, 1, 72, 0
1, 199985, Note_off_c, 1, 68, 0
1, 199993, Note_on_c, 1, 50, 127
1, 199993, Note_on_c, 1, 77, 127
1, 200151, Note_off_c, 1, 50, 0
1, 200153, Note_on_c, 1, 58, 127
1, 200153, Note_on_c, 1, 72, 127
1, 200311, Note_off_c, 1, 58, 0
1, 200311, Note_off_c, 1, 72, 0
1, 200312, Note_off_c, 1, 77, 0
1, 200314, Note_on_c, 1, 55, 127
1, 200314, Note_on_c, 1, 70, 127
1, 200314, Note_on_c, 1, 75, 127
1, 200472, Note_off_c, 1, 55, 0
1, 200472, Note_off_c, 1, 70, 0
1, 200475, Note_on_c, 1, 51, 127
1, 200475, Note_on_c, 1, 68, 127
1, 200633, Note_off_c, 1, 51, 0
1, 200633, Note_off_c, 1, 68, 0
1, 200635, Note_on_c, 1, 46, 127
1, 200635, Note_on_c, 1, 67, 127
1, 200782, Note_off_c, 1, 75, 0
1, 200793, Note_off_c, 1, 46, 0
1, 200793, Note_off_c, 1, 67, 0
1, 200796, Note_on_c, 1, 51, 127
1, 200796, Note_on_c, 1, 65, 127
1, 200954, Note_off_c, 1, 51, 0
1, 200954, Note_off_c, 1, 65, 0
1, 200957, Note_on_c, 1, 46, 127
1, 200957, Note_on_c, 1, 63, 127
1, 201115, Note_off_c, 1, 46, 0
1, 201115, Note_off_c, 1, 63, 0
1, 201116, Note_on_c, 1, 43, 127
1, 201116, Note_on_c, 1, 65, 127
1, 201274, Note_off_c, 1, 43, 0
1, 201274, Note_off_c, 1, 65, 0
1, 201277, Note_on_c, 1, 39, 127
1, 201277, Note_on_c, 1, 67, 127
1, 201438, Note_on_c, 1, 70, 127
1, 201596, Note_off_c, 1, 39, 0
1, 201596, Note_off_c, 1, 70, 0
1, 201598, Note_on_c, 1, 75, 127
1, 201598, Note_on_c, 1, 51, 127
1, 201756, Note_off_c, 1, 75, 0
1, 201759, Note_on_c, 1, 72, 127
1, 201911, Note_off_c, 1, 67, 0
1, 201916, Note_off_c, 1, 51, 0
1, 201916, Note_off_c, 1, 72, 0
1, 201919, Note_on_c, 1, 53, 127
1, 201919, Note_on_c, 1, 73, 127
1, 202079, Note_on_c, 1, 70, 127
1, 202237, Note_off_c, 1, 70, 0
1, 202238, Note_off_c, 1, 53, 0
1, 202240, Note_on_c, 1, 67, 127
1, 202240, Note_on_c, 1, 55, 127
1, 202398, Note_off_c, 1, 67, 0
1, 202401, Note_on_c, 1, 63, 127
1, 202553, Note_off_c, 1, 73, 0
1, 202558, Note_off_c, 1, 55, 0
1, 202560, Note_on_c, 1, 56, 127
1, 202717, Note_off_c, 1, 63, 0
1, 202721, Note_on_c, 1, 72, 127
1, 202879, Note_off_c, 1, 56, 0
1, 202879, Note_off_c, 1, 72, 0
1, 202882, Note_on_c, 1, 77, 127
1, 202882, Note_on_c, 1, 53, 127
1, 203040, Note_off_c, 1, 77, 0
1, 203041, Note_on_c, 1, 74, 127
1, 203199, Note_off_c, 1, 74, 0
1, 203201, Note_off_c, 1, 53, 0
1, 203202, Note_on_c, 1, 55, 127
1, 203202, Note_on_c, 1, 75, 127
1, 203363, Note_on_c, 1, 72, 127
1, 203521, Note_off_c, 1, 55, 0
1, 203521, Note_off_c, 1, 72, 0
1, 203523, Note_on_c, 1, 69, 127
1, 203523, Note_on_c, 1, 57, 127
1, 203681, Note_off_c, 1, 69, 0
1, 203684, Note_on_c, 1, 65, 127
1, 203836, Note_off_c, 1, 75, 0
1, 203841, Note_off_c, 1, 57, 0
1, 203844, Note_on_c, 1, 58, 127
1, 204000, Note_off_c, 1, 65, 0
1, 204004, Note_on_c, 1, 74, 127
1, 204162, Note_off_c, 1, 74, 0
1, 204163, Note_off_c, 1, 58, 0
1, 204165, Note_on_c, 1, 79, 127
1, 204165, Note_on_c, 1, 55, 127
1, 204323, Note_off_c, 1, 79, 0
1, 204326, Note_on_c, 1, 75, 127
1, 204484, Note_off_c, 1, 55, 0
1, 204484, Note_off_c, 1, 75, 0
1, 204486, Note_on_c, 1, 57, 127
1, 204486, Note_on_c, 1, 77, 127
1, 204647, Note_on_c, 1, 74, 127
1, 204805, Note_off_c, 1, 57, 0
1, 204805, Note_off_c, 1, 74, 0
1, 204808, Note_on_c, 1, 71, 127
1, 204808, Note_on_c, 1, 59, 127
1, 204966, Note_off_c, 1, 71, 0
1, 204968, Note_on_c, 1, 67, 127
1, 205127, Note_off_c, 1, 59, 0
1, 205129, Note_on_c, 1, 60, 127
1, 205285, Note_off_c, 1, 67, 0
1, 205286, Note_off_c, 1, 77, 0
1, 205288, Note_on_c, 1, 75, 127
1, 205446, Note_off_c, 1, 75, 0
1, 205447, Note_off_c, 1, 60, 0
1, 205448, Note_on_c, 1, 79, 127
1, 205448, Note_on_c, 1, 48, 127
1, 205606, Note_off_c, 1, 79, 0
1, 205609, Note_on_c, 1, 82, 127
1, 205767, Note_off_c, 1, 48, 0
1, 205767, Note_off_c, 1, 82, 0
1, 205770, Note_on_c, 1, 50, 127
1, 205770, Note_on_c, 1, 80, 127
1, 205930, Note_on_c, 1, 77, 127
1, 206088, Note_off_c, 1, 77, 0
1, 206089, Note_off_c, 1, 50, 0
1, 206091, Note_on_c, 1, 70, 127
1, 206091, Note_on_c, 1, 51, 127
1, 206238, Note_off_c, 1, 80, 0
1, 206253, Note_on_c, 1, 79, 127
1, 206409, Note_off_c, 1, 70, 0
1, 206410, Note_off_c, 1, 79, 0
1, 206570, Note_off_c, 1, 51, 0
1, 206734, Note_on_c, 1, 48, 127
1, 206734, Note_on_c, 1, 77, 127
1, 206734, Note_on_c, 1, 80, 127
1, 206892, Note_off_c, 1, 48, 0
1, 206895, Note_on_c, 1, 50, 127
1, 207053, Note_off_c, 1, 77, 0
1, 207053, Note_off_c, 1, 80, 0
1, 207053, Note_off_c, 1, 50, 0
1, 207055, Note_on_c, 1, 46, 127
1, 207055, Note_on_c, 1, 75, 127
1, 207055, Note_on_c, 1, 79, 127
1, 207213, Note_off_c, 1, 46, 0
1, 207216, Note_on_c, 1, 51, 127
1, 207374, Note_off_c, 1, 75, 0
1, 207374, Note_off_c, 1, 79, 0
1, 207374, Note_off_c, 1, 51, 0
1, 207377, Note_on_c, 1, 50, 127
1, 207377, Note_on_c, 1, 68, 127
1, 207377, Note_on_c, 1, 77, 127
1, 207535, Note_off_c, 1, 50, 0
1, 207537, Note_on_c, 1, 51, 127
1, 207695, Note_off_c, 1, 51, 0
1, 207696, Note_off_c, 1, 68, 0
1, 207696, Note_off_c, 1, 77, 0
1, 207697, Note_on_c, 1, 75, 127
1, 207697, Note_on_c, 1, 55, 127
1, 207697, Note_on_c, 1, 70, 127
1, 207855, Note_off_c, 1, 75, 0
1, 207858, Note_on_c, 1, 72, 127
1, 207989, Note_off_c, 1, 55, 0
1, 208016, Note_off_c, 1, 70, 0
1, 208016, Note_off_c, 1, 72, 0
1, 208018, Note_on_c, 1, 68, 127
1, 208018, Note_on_c, 1, 74, 127
1, 208018, Note_on_c, 1, 53, 127
1, 208176, Note_off_c, 1, 68, 0
1, 208176, Note_off_c, 1, 74, 0
1, 208179, Note_on_c, 1, 67, 127
1, 208179, Note_on_c, 1, 75, 127
1, 208310, Note_off_c, 1, 53, 0
1, 208337, Note_off_c, 1, 67, 0
1, 208337, Note_off_c, 1, 75, 0
1, 208340, Note_on_c, 1, 68, 127
1, 208340, Note_on_c, 1, 77, 127
1, 208498, Note_off_c, 1, 68, 0
1, 208500, Note_on_c, 1, 74, 127
1, 208658, Note_off_c, 1, 74, 0
1, 208661, Note_on_c, 1, 50, 127
1, 208661, Note_on_c, 1, 70, 127
1, 208819, Note_off_c, 1, 50, 0
1, 208819, Note_off_c, 1, 70, 0
1, 208822, Note_on_c, 1, 46, 127
1, 208822, Note_on_c, 1, 65, 127
1, 208980, Note_off_c, 1, 46, 0
1, 208980, Note_off_c, 1, 65, 0
1, 208982, Note_on_c, 1, 56, 127
1, 208982, Note_on_c, 1, 62, 127
1, 209141, Note_off_c, 1, 77, 0
1, 209143, Note_on_c, 1, 75, 127
1, 209274, Note_off_c, 1, 56, 0
1, 209301, Note_off_c, 1, 62, 0
1, 209301, Note_off_c, 1, 75, 0
1, 209304, Note_on_c, 1, 77, 127
1, 209304, Note_on_c, 1, 55, 127
1, 209304, Note_on_c, 1, 63, 127
1, 209462, Note_off_c, 1, 77, 0
1, 209464, Note_on_c, 1, 79, 127
1, 209596, Note_off_c, 1, 55, 0
1, 209622, Note_off_c, 1, 79, 0
1, 209625, Note_on_c, 1, 80, 127
1, 209625, Note_on_c, 1, 53, 127
1, 209783, Note_off_c, 1, 80, 0
1, 209944, Note_off_c, 1, 63, 0
1, 209946, Note_on_c, 1, 70, 127
1, 209946, Note_on_c, 1, 62, 127
1, 210104, Note_off_c, 1, 70, 0
1, 210265, Note_off_c, 1, 53, 0
1, 210265, Note_off_c, 1, 62, 0
1, 210268, Note_on_c, 1, 79, 127
1, 210268, Note_on_c, 1, 63, 127
1, 210268, Note_on_c, 1, 51, 127
1, 210426, Note_off_c, 1, 79, 0
1, 210427, Note_on_c, 1, 82, 127
1, 210568, Note_off_c, 1, 63, 0
1, 210585, Note_off_c, 1, 82, 0
1, 210588, Note_on_c, 1, 39, 127
1, 210749, Note_on_c, 1, 75, 127
1, 210902, Note_off_c, 1, 51, 0
1, 210906, Note_off_c, 1, 39, 0
1, 210906, Note_off_c, 1, 75, 0
1, 210908, Note_on_c, 1, 41, 127
1, 210908, Note_on_c, 1, 73, 127
1, 211069, Note_on_c, 1, 70, 127
1, 211227, Note_off_c, 1, 41, 0
1, 211227, Note_off_c, 1, 70, 0
1, 211230, Note_on_c, 1, 67, 127
1, 211230, Note_on_c, 1, 43, 127
1, 211388, Note_off_c, 1, 67, 0
1, 211391, Note_on_c, 1, 63, 127
1, 211548, Note_off_c, 1, 73, 0
1, 211549, Note_off_c, 1, 43, 0
1, 211549, Note_off_c, 1, 63, 0
1, 211551, Note_on_c, 1, 56, 127
1, 211551, Note_on_c, 1, 72, 127
1, 211551, Note_on_c, 1, 44, 127
1, 211712, Note_on_c, 1, 84, 127
1, 211868, Note_off_c, 1, 56, 0
1, 211868, Note_off_c, 1, 72, 0
1, 211869, Note_off_c, 1, 44, 0
1, 211869, Note_off_c, 1, 84, 0
1, 211872, Note_on_c, 1, 80, 127
1, 211872, Note_on_c, 1, 41, 127
1, 212030, Note_off_c, 1, 80, 0
1, 212032, Note_on_c, 1, 77, 127
1, 212190, Note_off_c, 1, 77, 0
1, 212191, Note_off_c, 1, 41, 0
1, 212193, Note_on_c, 1, 43, 127
1, 212193, Note_on_c, 1, 75, 127
1, 212353, Note_on_c, 1, 72, 127
1, 212511, Note_off_c, 1, 72, 0
1, 212512, Note_off_c, 1, 43, 0
1, 212513, Note_on_c, 1, 69, 127
1, 212513, Note_on_c, 1, 45, 127
1, 212671, Note_off_c, 1, 69, 0
1, 212674, Note_on_c, 1, 65, 127
1, 212832, Note_off_c, 1, 45, 0
1, 212832, Note_off_c, 1, 65, 0
1, 212833, Note_off_c, 1, 75, 0
1, 212835, Note_on_c, 1, 74, 127
1, 212835, Note_on_c, 1, 46, 127
1, 212835, Note_on_c, 1, 58, 127
1, 212993, Note_off_c, 1, 74, 0
1, 212995, Note_on_c, 1, 77, 127
1, 213153, Note_off_c, 1, 77, 0
1, 213154, Note_off_c, 1, 46, 0
1, 213317, Note_on_c, 1, 70, 127
1, 213469, Note_off_c, 1, 58, 0
1, 213474, Note_off_c, 1, 70, 0
1, 213476, Note_on_c, 1, 48, 127
1, 213476, Note_on_c, 1, 68, 127
1, 213637, Note_on_c, 1, 65, 127
1, 213795, Note_off_c, 1, 48, 0
1, 213795, Note_off_c, 1, 65, 0
1, 213798, Note_on_c, 1, 62, 127
1, 213798, Note_on_c, 1, 50, 127
1, 213956, Note_off_c, 1, 62, 0
1, 213958, Note_on_c, 1, 58, 127
1, 214116, Note_off_c, 1, 58, 0
1, 214117, Note_off_c, 1, 50, 0
1, 214119, Note_on_c, 1, 51, 127
1, 214277, Note_off_c, 1, 68, 0
1, 214280, Note_on_c, 1, 67, 127
1, 214438, Note_off_c, 1, 67, 0
1, 214440, Note_on_c, 1, 61, 127
1, 214759, Note_off_c, 1, 61, 0
1, 214761, Note_on_c, 1, 63, 127
1, 214761, Note_on_c, 1, 60, 127
1, 214919, Note_off_c, 1, 63, 0
1, 215080, Note_off_c, 1, 60, 0
1, 215403, Note_on_c, 1, 56, 127
1, 215403, Note_on_c, 1, 72, 127
1, 215561, Note_off_c, 1, 56, 0
1, 215564, Note_on_c, 1, 55, 127
1, 215722, Note_off_c, 1, 72, 0
1, 215722, Note_off_c, 1, 55, 0
1, 215725, Note_on_c, 1, 70, 127
1, 216205, Note_off_c, 1, 51, 0
1, 216365, Note_off_c, 1, 70, 0
1, 216367, Note_on_c, 1, 69, 127
1, 216525, Note_off_c, 1, 69, 0
1, 216528, Note_on_c, 1, 53, 127
1, 216686, Note_off_c, 1, 53, 0
1, 216689, Note_on_c, 1, 75, 127
1, 217008, Note_off_c, 1, 75, 0
1, 217010, Note_on_c, 1, 74, 127
1, 217329, Note_off_c, 1, 74, 0
1, 217332, Note_on_c, 1, 74, 127
1, 217332, Note_on_c, 1, 63, 127
1, 217332, Note_on_c, 1, 51, 127
1, 217437, Note_off_c, 1, 74, 0
1, 217438, Note_on_c, 1, 72, 127
1, 217490, Note_off_c, 1, 63, 0
1, 217491, Note_on_c, 1, 60, 127
1, 217543, Note_off_c, 1, 72, 0
1, 217651, Note_off_c, 1, 51, 0
1, 217652, Note_on_c, 1, 53, 127
1, 217759, Note_on_c, 1, 70, 127
1, 217810, Note_off_c, 1, 60, 0
1, 217864, Note_off_c, 1, 70, 0
1, 217971, Note_off_c, 1, 53, 0
1, 217973, Note_on_c, 1, 46, 127
1, 217973, Note_on_c, 1, 62, 127
1, 217973, Note_on_c, 1, 70, 127
1, 218131, Note_off_c, 1, 46, 0
1, 218134, Note_on_c, 1, 53, 127
1, 218273, Note_off_c, 1, 62, 0
1, 218292, Note_off_c, 1, 70, 0
1, 218292, Note_off_c, 1, 53, 0
1, 218295, Note_on_c, 1, 50, 127
1, 218295, Note_on_c, 1, 77, 127
1, 218453, Note_off_c, 1, 50, 0
1, 218455, Note_on_c, 1, 46, 127
1, 218613, Note_off_c, 1, 46, 0
1, 218614, Note_off_c, 1, 77, 0
1, 218616, Note_on_c, 1, 44, 127
1, 218616, Note_on_c, 1, 74, 127
1, 218774, Note_off_c, 1, 44, 0
1, 218777, Note_on_c, 1, 53, 127
1, 218935, Note_off_c, 1, 74, 0
1, 218935, Note_off_c, 1, 53, 0
1, 218937, Note_on_c, 1, 50, 127
1, 218937, Note_on_c, 1, 70, 127
1, 219095, Note_off_c, 1, 50, 0
1, 219098, Note_on_c, 1, 44, 127
1, 219256, Note_off_c, 1, 70, 0
1, 219256, Note_off_c, 1, 44, 0
1, 219259, Note_on_c, 1, 43, 127
1, 219259, Note_on_c, 1, 82, 127
1, 219419, Note_on_c, 1, 70, 127
1, 219551, Note_off_c, 1, 43, 0
1, 219577, Note_off_c, 1, 70, 0
1, 219580, Note_on_c, 1, 75, 127
1, 219580, Note_on_c, 1, 55, 127
1, 219738, Note_off_c, 1, 75, 0
1, 219741, Note_on_c, 1, 79, 127
1, 219872, Note_off_c, 1, 55, 0
1, 219899, Note_off_c, 1, 79, 0
1, 219901, Note_on_c, 1, 73, 127
1, 220059, Note_off_c, 1, 73, 0
1, 220222, Note_on_c, 1, 39, 127
1, 220541, Note_off_c, 1, 39, 0
1, 220543, Note_on_c, 1, 44, 127
1, 220543, Note_on_c, 1, 72, 127
1, 220701, Note_off_c, 1, 44, 0
1, 220704, Note_on_c, 1, 51, 127
1, 220862, Note_off_c, 1, 51, 0
1, 220863, Note_off_c, 1, 82, 0
1, 220864, Note_on_c, 1, 48, 127
1, 221022, Note_off_c, 1, 48, 0
1, 221177, Note_off_c, 1, 72, 0
1, 221185, Note_on_c, 1, 43, 127
1, 221185, Note_on_c, 1, 72, 127
1, 221343, Note_off_c, 1, 43, 0
1, 221345, Note_on_c, 1, 51, 127
1, 221503, Note_off_c, 1, 51, 0
1, 221506, Note_on_c, 1, 48, 127
1, 221506, Note_on_c, 1, 68, 127
1, 221664, Note_off_c, 1, 48, 0
1, 221819, Note_off_c, 1, 72, 0
1, 221824, Note_off_c, 1, 68, 0
1, 221826, Note_on_c, 1, 41, 127
1, 221826, Note_on_c, 1, 80, 127
1, 221987, Note_on_c, 1, 68, 127
1, 222118, Note_off_c, 1, 41, 0
1, 222145, Note_off_c, 1, 68, 0
1, 222147, Note_on_c, 1, 74, 127
1, 222147, Note_on_c, 1, 53, 127
1, 222305, Note_off_c, 1, 74, 0
1, 222307, Note_on_c, 1, 77, 127
1, 222439, Note_off_c, 1, 53, 0
1, 222465, Note_off_c, 1, 77, 0
1, 222468, Note_on_c, 1, 72, 127
1, 222626, Note_off_c, 1, 72, 0
1, 222790, Note_on_c, 1, 38, 127
1, 223109, Note_off_c, 1, 38, 0
1, 223111, Note_on_c, 1, 43, 127
1, 223111, Note_on_c, 1, 70, 127
1, 223269, Note_off_c, 1, 43, 0
1, 223272, Note_on_c, 1, 50, 127
1, 223430, Note_off_c, 1, 80, 0
1, 223430, Note_off_c, 1, 50, 0
1, 223432, Note_on_c, 1, 46, 127
1, 223590, Note_off_c, 1, 46, 0
1, 223745, Note_off_c, 1, 70, 0
1, 223753, Note_on_c, 1, 41, 127
1, 223753, Note_on_c, 1, 70, 127
1, 223911, Note_off_c, 1, 41, 0
1, 223913, Note_on_c, 1, 49, 127
1, 224071, Note_off_c, 1, 49, 0
1, 224074, Note_on_c, 1, 46, 127
1, 224074, Note_on_c, 1, 67, 127
1, 224232, Note_off_c, 1, 46, 0
1, 224387, Note_off_c, 1, 70, 0
1, 224393, Note_on_c, 1, 40, 127
1, 224393, Note_on_c, 1, 79, 127
1, 224551, Note_off_c, 1, 40, 0
1, 224554, Note_on_c, 1, 48, 127
1, 224707, Note_off_c, 1, 67, 0
1, 224711, Note_off_c, 1, 48, 0
1, 224714, Note_on_c, 1, 43, 127
1, 224872, Note_off_c, 1, 43, 0
1, 225035, Note_on_c, 1, 68, 127
1, 225193, Note_off_c, 1, 79, 0
1, 225196, Note_on_c, 1, 72, 127
1, 225354, Note_off_c, 1, 72, 0
1, 225356, Note_on_c, 1, 44, 127
1, 225356, Note_on_c, 1, 74, 127
1, 225514, Note_off_c, 1, 44, 0
1, 225514, Note_off_c, 1, 74, 0
1, 225517, Note_on_c, 1, 75, 127
1, 225675, Note_off_c, 1, 75, 0
1, 225678, Note_on_c, 1, 38, 127
1, 225678, Note_on_c, 1, 77, 127
1, 225836, Note_off_c, 1, 38, 0
1, 225836, Note_off_c, 1, 77, 0
1, 226318, Note_off_c, 1, 68, 0
1, 226319, Note_on_c, 1, 39, 127
1, 226319, Note_on_c, 1, 70, 127
1, 226319, Note_on_c, 1, 67, 127
1, 226477, Note_off_c, 1, 39, 0
1, 226477, Note_off_c, 1, 70, 0
1, 226480, Note_on_c, 1, 46, 127
1, 226480, Note_on_c, 1, 68, 127
1, 226638, Note_off_c, 1, 67, 0
1, 226638, Note_off_c, 1, 46, 0
1, 226638, Note_off_c, 1, 68, 0
1, 226641, Note_on_c, 1, 43, 127
1, 226641, Note_on_c, 1, 70, 127
1, 226641, Note_on_c, 1, 63, 127
1, 226799, Note_off_c, 1, 43, 0
1, 226799, Note_off_c, 1, 70, 0
1, 226801, Note_on_c, 1, 39, 127
1, 226801, Note_on_c, 1, 72, 127
1, 226959, Note_off_c, 1, 39, 0
1, 226959, Note_off_c, 1, 72, 0
1, 226962, Note_on_c, 1, 46, 127
1, 226962, Note_on_c, 1, 65, 127
1, 227120, Note_off_c, 1, 63, 0
1, 227123, Note_on_c, 1, 62, 127
1, 227281, Note_off_c, 1, 46, 0
1, 227281, Note_off_c, 1, 62, 0
1, 227283, Note_on_c, 1, 60, 127
1, 227283, Note_on_c, 1, 53, 127
1, 227441, Note_off_c, 1, 60, 0
1, 227602, Note_off_c, 1, 53, 0
1, 227605, Note_on_c, 1, 58, 127
1, 227605, Note_on_c, 1, 50, 127
1, 227763, Note_off_c, 1, 58, 0
1, 227924, Note_off_c, 1, 65, 0
1, 227924, Note_off_c, 1, 50, 0
1, 227926, Note_on_c, 1, 62, 127
1, 227926, Note_on_c, 1, 46, 127
1, 227926, Note_on_c, 1, 65, 127
1, 228084, Note_off_c, 1, 62, 0
1, 228087, Note_on_c, 1, 63, 127
1, 228245, Note_off_c, 1, 46, 0
1, 228245, Note_off_c, 1, 65, 0
1, 228245, Note_off_c, 1, 63, 0
1, 228248, Note_on_c, 1, 66, 127
1, 228248, Note_on_c, 1, 75, 127
1, 228248, Note_on_c, 1, 57, 127
1, 228540, Note_off_c, 1, 66, 0
1, 228540, Note_off_c, 1, 75, 0
1, 228548, Note_off_c, 1, 57, 0
1, 228569, Note_on_c, 1, 65, 127
1, 228569, Note_on_c, 1, 74, 127
1, 228569, Note_on_c, 1, 56, 127
1, 228861, Note_off_c, 1, 65, 0
1, 228861, Note_off_c, 1, 74, 0
1, 228869, Note_off_c, 1, 56, 0
1, 229050, Note_on_c, 1, 56, 127
1, 229208, Note_off_c, 1, 56, 0
1, 229211, Note_on_c, 1, 53, 127
1, 229211, Note_on_c, 1, 62, 127
1, 229369, Note_off_c, 1, 53, 0
1, 229369, Note_off_c, 1, 62, 0
1, 229371, Note_on_c, 1, 50, 127
1, 229371, Note_on_c, 1, 58, 127
1, 229529, Note_off_c, 1, 50, 0
1, 229529, Note_off_c, 1, 58, 0
1, 229532, Note_on_c, 1, 46, 127
1, 229532, Note_on_c, 1, 68, 127
1, 229532, Note_on_c, 1, 77, 127
1, 229851, Note_off_c, 1, 46, 0
1, 229851, Note_off_c, 1, 68, 0
1, 229851, Note_off_c, 1, 77, 0
1, 229853, Note_on_c, 1, 51, 127
1, 229853, Note_on_c, 1, 67, 127
1, 229853, Note_on_c, 1, 75, 127
1, 230172, Note_off_c, 1, 51, 0
1, 230172, Note_off_c, 1, 67, 0
1, 230175, Note_on_c, 1, 58, 127
1, 230175, Note_on_c, 1, 65, 127
1, 230493, Note_off_c, 1, 75, 0
1, 230494, Note_off_c, 1, 58, 0
1, 230496, Note_on_c, 1, 59, 127
1, 230496, Note_on_c, 1, 74, 127
1, 230815, Note_off_c, 1, 65, 0
1, 230815, Note_off_c, 1, 59, 0
1, 230815, Note_off_c, 1, 74, 0
1, 230817, Note_on_c, 1, 75, 127
1, 230817, Note_on_c, 1, 60, 127
1, 230817, Note_on_c, 1, 63, 127
1, 230982, Note_off_c, 1, 75, 0
1, 230986, Note_on_c, 1, 79, 127
1, 231151, Note_off_c, 1, 79, 0
1, 231323, Note_on_c, 1, 72, 127
1, 231488, Note_off_c, 1, 72, 0
1, 231492, Note_on_c, 1, 68, 127
1, 231657, Note_off_c, 1, 60, 0
1, 231826, Note_off_c, 1, 63, 0
1, 231830, Note_on_c, 1, 56, 127
1, 231830, Note_on_c, 1, 65, 127
1, 231995, Note_off_c, 1, 56, 0
1, 231999, Note_on_c, 1, 53, 127
1, 232164, Note_off_c, 1, 65, 0
1, 232164, Note_off_c, 1, 53, 0
1, 232168, Note_on_c, 1, 50, 127
1, 232168, Note_on_c, 1, 58, 127
1, 232337, Note_off_c, 1, 68, 0
1, 232341, Note_on_c, 1, 77, 127
1, 232511, Note_off_c, 1, 77, 0
1, 232512, Note_off_c, 1, 50, 0
1, 232514, Note_on_c, 1, 74, 127
1, 232514, Note_on_c, 1, 46, 127
1, 232684, Note_off_c, 1, 74, 0
1, 232688, Note_on_c, 1, 70, 127
1, 232858, Note_off_c, 1, 70, 0
1, 232861, Note_on_c, 1, 67, 127
1, 233031, Note_off_c, 1, 46, 0
1, 233034, Note_on_c, 1, 51, 127
1, 233204, Note_off_c, 1, 51, 0
1, 233205, Note_off_c, 1, 58, 0
1, 233205, Note_off_c, 1, 67, 0
1, 233208, Note_on_c, 1, 48, 127
1, 233208, Note_on_c, 1, 75, 127
1, 233208, Note_on_c, 1, 65, 127
1, 233378, Note_off_c, 1, 48, 0
1, 233381, Note_on_c, 1, 44, 127
1, 233551, Note_off_c, 1, 44, 0
1, 233552, Note_off_c, 1, 75, 0
1, 233555, Note_on_c, 1, 67, 127
1, 233555, Note_on_c, 1, 46, 127
1, 233732, Note_off_c, 1, 65, 0
1, 233735, Note_on_c, 1, 62, 127
1, 233912, Note_off_c, 1, 62, 0
1, 233916, Note_on_c, 1, 63, 127
1, 234093, Note_off_c, 1, 63, 0
1, 234096, Note_on_c, 1, 58, 127
1, 234273, Note_off_c, 1, 67, 0
1, 234454, Note_off_c, 1, 58, 0
1, 234456, Note_on_c, 1, 60, 127
1, 234633, Note_off_c, 1, 60, 0
1, 234818, Note_on_c, 1, 56, 127
1, 234994, Note_off_c, 1, 46, 0
1, 234998, Note_on_c, 1, 39, 127
1, 235190, Note_off_c, 1, 56, 0
1, 235194, Note_on_c, 1, 61, 127
1, 235386, Note_off_c, 1, 61, 0
1, 235584, Note_on_c, 1, 55, 127
1, 235971, Note_off_c, 1, 55, 0
1, 236172, Note_on_c, 1, 53, 127
1, 236368, Note_on_c, 1, 59, 127
1, 236559, Note_off_c, 1, 53, 0
1, 236561, Note_off_c, 1, 59, 0
1, 240755, Note_off_c, 1, 39, 0
1, 240755, End_track
0, 0, End_of_file