0, 0, Header, 1, 1, 480
1, 0, Start_track
1, 0, Title_t, "Test"
1, 0, Tempo, 500000
1, 0, Instrument_name_t, "Church Organ"
1, 64, Note_on_c, 1, 58, 127
1, 64, Note_on_c, 1, 81, 127
1, 64, Note_on_c, 1, 55, 127
1, 392, Note_on_c, 1, 62, 127
1, 402, Note_off_c, 1, 58, 0
1, 491, Note_on_c, 1, 79, 127
1, 548, Note_off_c, 1, 81, 0
1, 692, Note_off_c, 1, 79, 0
1, 720, Note_on_c, 1, 60, 127
1, 730, Note_off_c, 1, 62, 0
1, 1048, Note_on_c, 1, 63, 127
1, 1058, Note_off_c, 1, 60, 0
1, 1363, Note_off_c, 1, 55, 0
1, 1386, Note_off_c, 1, 63, 0
1, 2033, Note_on_c, 1, 57, 127
1, 2371, Note_off_c, 1, 57, 0
1, 5645, Note_on_c, 1, 74, 127
1, 5969, Note_off_c, 1, 74, 0
1, 5973, Note_on_c, 1, 75, 127
1, 6133, Note_off_c, 1, 75, 0
1, 6302, Note_on_c, 1, 72, 127
1, 6626, Note_off_c, 1, 72, 0
1, 7451, Note_on_c, 1, 70, 127
1, 7611, Note_off_c, 1, 70, 0
1, 7615, Note_on_c, 1, 69, 127
1, 7939, Note_off_c, 1, 69, 0
1, 10077, Note_on_c, 1, 67, 127
1, 10237, Note_off_c, 1, 67, 0
1, 10241, Note_on_c, 1, 66, 127
1, 10565, Note_off_c, 1, 66, 0
1, 11555, Note_on_c, 1, 53, 127
1, 11879, Note_off_c, 1, 53, 0
1, 11883, Note_on_c, 1, 51, 127
1, 12532, Note_off_c, 1, 51, 0
1, 12540, Note_on_c, 1, 50, 127
1, 13189, Note_off_c, 1, 50, 0
1, 13196, Note_on_c, 1, 48, 127
1, 13845, Note_off_c, 1, 48, 0
1, 15823, Note_on_c, 1, 49, 127
1, 16151, Note_on_c, 1, 76, 127
1, 17136, Note_on_c, 1, 52, 127
1, 17450, Note_off_c, 1, 76, 0
1, 17789, Note_off_c, 1, 52, 0
1, 18121, Note_on_c, 1, 64, 127
1, 18445, Note_off_c, 1, 64, 0
1, 18446, Note_off_c, 1, 49, 0
1, 20419, Note_on_c, 1, 46, 127
1, 21068, Note_off_c, 1, 46, 0
1, 21076, Note_on_c, 1, 45, 127
1, 22389, Note_on_c, 1, 54, 127
1, 23042, Note_off_c, 1, 45, 0
1, 23688, Note_off_c, 1, 54, 0
1, 23703, Note_on_c, 1, 70, 127
1, 23703, Note_on_c, 1, 43, 127
1, 24031, Note_on_c, 1, 74, 127
1, 24352, Note_off_c, 1, 70, 0
1, 24355, Note_off_c, 1, 74, 0
1, 24359, Note_on_c, 1, 72, 127
1, 24359, Note_on_c, 1, 50, 127
1, 24564, Note_off_c, 1, 72, 0
1, 24688, Note_on_c, 1, 69, 127
1, 25012, Note_off_c, 1, 50, 0
1, 25012, Note_off_c, 1, 69, 0
1, 25016, Note_on_c, 1, 52, 127
1, 25344, Note_on_c, 1, 79, 127
1, 25668, Note_off_c, 1, 79, 0
1, 25669, Note_off_c, 1, 43, 0
1, 25672, Note_on_c, 1, 48, 127
1, 26001, Note_on_c, 1, 67, 127
1, 26315, Note_off_c, 1, 52, 0
1, 26325, Note_off_c, 1, 48, 0
1, 26325, Note_off_c, 1, 67, 0
1, 26329, Note_on_c, 1, 69, 127
1, 26329, Note_on_c, 1, 53, 127
1, 26329, Note_on_c, 1, 41, 127
1, 26657, Note_on_c, 1, 65, 127
1, 26978, Note_off_c, 1, 69, 0
1, 26981, Note_off_c, 1, 65, 0
1, 26982, Note_off_c, 1, 53, 0
1, 26986, Note_on_c, 1, 70, 127
1, 26986, Note_on_c, 1, 55, 127
1, 27150, Note_on_c, 1, 72, 127
1, 27191, Note_off_c, 1, 70, 0
1, 27310, Note_off_c, 1, 72, 0
1, 27314, Note_on_c, 1, 74, 127
1, 27595, Note_off_c, 1, 41, 0
1, 27638, Note_off_c, 1, 74, 0
1, 27639, Note_off_c, 1, 55, 0
1, 27642, Note_on_c, 1, 72, 127
1, 27642, Note_on_c, 1, 57, 127
1, 27971, Note_on_c, 1, 65, 127
1, 28291, Note_off_c, 1, 72, 0
1, 28295, Note_off_c, 1, 57, 0
1, 28295, Note_off_c, 1, 65, 0
1, 28299, Note_on_c, 1, 74, 127
1, 28299, Note_on_c, 1, 58, 127
1, 28463, Note_on_c, 1, 75, 127
1, 28504, Note_off_c, 1, 74, 0
1, 28623, Note_off_c, 1, 75, 0
1, 28627, Note_on_c, 1, 77, 127
1, 28951, Note_off_c, 1, 77, 0
1, 28952, Note_off_c, 1, 58, 0
1, 28956, Note_on_c, 1, 75, 127
1, 28956, Note_on_c, 1, 60, 127
1, 29284, Note_on_c, 1, 72, 127
1, 29605, Note_off_c, 1, 75, 0
1, 29608, Note_off_c, 1, 72, 0
1, 29609, Note_off_c, 1, 60, 0
1, 29612, Note_on_c, 1, 79, 127
1, 29612, Note_on_c, 1, 58, 127
1, 29776, Note_on_c, 1, 81, 127
1, 29817, Note_off_c, 1, 79, 0
1, 29936, Note_off_c, 1, 81, 0
1, 29941, Note_on_c, 1, 82, 127
1, 30265, Note_off_c, 1, 58, 0
1, 30265, Note_off_c, 1, 82, 0
1, 30269, Note_on_c, 1, 81, 127
1, 30269, Note_on_c, 1, 60, 127
1, 30433, Note_on_c, 1, 82, 127
1, 30474, Note_off_c, 1, 81, 0
1, 30593, Note_off_c, 1, 82, 0
1, 30597, Note_on_c, 1, 84, 127
1, 30921, Note_off_c, 1, 84, 0
1, 30922, Note_off_c, 1, 60, 0
1, 30926, Note_on_c, 1, 77, 127
1, 30926, Note_on_c, 1, 57, 127
1, 31090, Note_on_c, 1, 79, 127
1, 31131, Note_off_c, 1, 77, 0
1, 31250, Note_off_c, 1, 79, 0
1, 31254, Note_on_c, 1, 75, 127
1, 31578, Note_off_c, 1, 75, 0
1, 31579, Note_off_c, 1, 57, 0
1, 31582, Note_on_c, 1, 60, 127
1, 31582, Note_on_c, 1, 74, 127
1, 31760, Note_on_c, 1, 58, 127
1, 31766, Note_off_c, 1, 60, 0
1, 31911, Note_on_c, 1, 82, 127
1, 31941, Note_off_c, 1, 58, 0
1, 32231, Note_off_c, 1, 74, 0
1, 32239, Note_on_c, 1, 79, 127
1, 32239, Note_on_c, 1, 75, 127
1, 32560, Note_off_c, 1, 82, 0
1, 32563, Note_off_c, 1, 79, 0
1, 32888, Note_off_c, 1, 75, 0
1, 32896, Note_on_c, 1, 77, 127
1, 33220, Note_off_c, 1, 77, 0
1, 33552, Note_on_c, 1, 72, 127
1, 34201, Note_off_c, 1, 72, 0
1, 36507, Note_on_c, 1, 81, 127
1, 36831, Note_off_c, 1, 81, 0
1, 37164, Note_on_c, 1, 46, 127
1, 37488, Note_off_c, 1, 46, 0
1, 37492, Note_on_c, 1, 48, 127
1, 37492, Note_on_c, 1, 75, 127
1, 37656, Note_on_c, 1, 50, 127
1, 37697, Note_off_c, 1, 48, 0
1, 37816, Note_off_c, 1, 50, 0
1, 37820, Note_on_c, 1, 51, 127
1, 38144, Note_off_c, 1, 51, 0
1, 38145, Note_off_c, 1, 75, 0
1, 38149, Note_on_c, 1, 50, 127
1, 38149, Note_on_c, 1, 77, 127
1, 38477, Note_on_c, 1, 46, 127
1, 38525, Note_off_c, 1, 50, 0
1, 38801, Note_off_c, 1, 46, 0
1, 38802, Note_off_c, 1, 77, 0
1, 38805, Note_on_c, 1, 51, 127
1, 38805, Note_on_c, 1, 79, 127
1, 38969, Note_on_c, 1, 53, 127
1, 39010, Note_off_c, 1, 51, 0
1, 39129, Note_off_c, 1, 53, 0
1, 39134, Note_on_c, 1, 55, 127
1, 39458, Note_off_c, 1, 79, 0
1, 39458, Note_off_c, 1, 55, 0
1, 39462, Note_on_c, 1, 53, 127
1, 39462, Note_on_c, 1, 74, 127
1, 39790, Note_on_c, 1, 46, 127
1, 39872, Note_off_c, 1, 53, 0
1, 40114, Note_off_c, 1, 46, 0
1, 40115, Note_off_c, 1, 74, 0
1, 40119, Note_on_c, 1, 55, 127
1, 40119, Note_on_c, 1, 75, 127
1, 40283, Note_on_c, 1, 56, 127
1, 40324, Note_off_c, 1, 55, 0
1, 40443, Note_off_c, 1, 56, 0
1, 40447, Note_on_c, 1, 58, 127
1, 40771, Note_off_c, 1, 58, 0
1, 40775, Note_on_c, 1, 77, 127
1, 41076, Note_off_c, 1, 75, 0
1, 41104, Note_on_c, 1, 74, 127
1, 41264, Note_off_c, 1, 74, 0
1, 41268, Note_on_c, 1, 72, 127
1, 41428, Note_off_c, 1, 72, 0
1, 41432, Note_on_c, 1, 71, 127
1, 41592, Note_off_c, 1, 71, 0
1, 41760, Note_on_c, 1, 53, 127
1, 42074, Note_off_c, 1, 77, 0
1, 42084, Note_off_c, 1, 53, 0
1, 42088, Note_on_c, 1, 59, 127
1, 42088, Note_on_c, 1, 67, 127
1, 42417, Note_on_c, 1, 79, 127
1, 42577, Note_off_c, 1, 79, 0
1, 42581, Note_on_c, 1, 77, 127
1, 42741, Note_off_c, 1, 59, 0
1, 42741, Note_off_c, 1, 77, 0
1, 42745, Note_on_c, 1, 75, 127
1, 42745, Note_on_c, 1, 55, 127
1, 42905, Note_off_c, 1, 75, 0
1, 43073, Note_on_c, 1, 74, 127
1, 43397, Note_off_c, 1, 74, 0
1, 43398, Note_off_c, 1, 55, 0
1, 43402, Note_on_c, 1, 60, 127
1, 43729, Note_off_c, 1, 67, 0
1, 43730, Note_on_c, 1, 72, 127
1, 43890, Note_off_c, 1, 72, 0
1, 43894, Note_on_c, 1, 70, 127
1, 44054, Note_off_c, 1, 70, 0
1, 44055, Note_off_c, 1, 60, 0
1, 44058, Note_on_c, 1, 68, 127
1, 44058, Note_on_c, 1, 58, 127
1, 44218, Note_off_c, 1, 68, 0
1, 44711, Note_off_c, 1, 58, 0
1, 44715, Note_on_c, 1, 56, 127
1, 44715, Note_on_c, 1, 65, 127
1, 45368, Note_off_c, 1, 56, 0
1, 45372, Note_on_c, 1, 53, 127
1, 46025, Note_off_c, 1, 53, 0
1, 46356, Note_off_c, 1, 65, 0
1, 47342, Note_on_c, 1, 63, 127
1, 47998, Note_on_c, 1, 51, 127
1, 48327, Note_on_c, 1, 71, 127
1, 48651, Note_off_c, 1, 51, 0
1, 48651, Note_off_c, 1, 71, 0
1, 48983, Note_off_c, 1, 63, 0
1, 49968, Note_on_c, 1, 62, 127
1, 50625, Note_on_c, 1, 50, 127
1, 50953, Note_on_c, 1, 69, 127
1, 51267, Note_off_c, 1, 62, 0
1, 51277, Note_off_c, 1, 69, 0
1, 51278, Note_off_c, 1, 50, 0
1, 51281, Note_on_c, 1, 62, 127
1, 51281, Note_on_c, 1, 55, 127
1, 51281, Note_on_c, 1, 71, 127
1, 51605, Note_off_c, 1, 62, 0
1, 51610, Note_on_c, 1, 63, 127
1, 51770, Note_off_c, 1, 63, 0
1, 51774, Note_on_c, 1, 65, 127
1, 51934, Note_off_c, 1, 65, 0
1, 51938, Note_on_c, 1, 43, 127
1, 52443, Note_off_c, 1, 55, 0
1, 52580, Note_off_c, 1, 71, 0
1, 52591, Note_off_c, 1, 43, 0
1, 52595, Note_on_c, 1, 63, 127
1, 52595, Note_on_c, 1, 36, 127
1, 52595, Note_on_c, 1, 48, 127
1, 52923, Note_on_c, 1, 72, 127
1, 53244, Note_off_c, 1, 63, 0
1, 53251, Note_on_c, 1, 68, 127
1, 53251, Note_on_c, 1, 65, 127
1, 53572, Note_off_c, 1, 72, 0
1, 53900, Note_off_c, 1, 68, 0
1, 53900, Note_off_c, 1, 65, 0
1, 53908, Note_on_c, 1, 67, 127
1, 54557, Note_off_c, 1, 67, 0
1, 54561, Note_off_c, 1, 36, 0
1, 54565, Note_on_c, 1, 62, 127
1, 55214, Note_off_c, 1, 62, 0
1, 55218, Note_off_c, 1, 48, 0
1, 57520, Note_on_c, 1, 71, 127
1, 57844, Note_off_c, 1, 71, 0
1, 58176, Note_on_c, 1, 43, 127
1, 58336, Note_off_c, 1, 43, 0
1, 58340, Note_on_c, 1, 41, 127
1, 58500, Note_off_c, 1, 41, 0
1, 58504, Note_on_c, 1, 39, 127
1, 58664, Note_off_c, 1, 39, 0
1, 59161, Note_on_c, 1, 75, 127
1, 59489, Note_on_c, 1, 60, 127
1, 59649, Note_off_c, 1, 60, 0
1, 59654, Note_on_c, 1, 58, 127
1, 59814, Note_off_c, 1, 58, 0
1, 59818, Note_on_c, 1, 57, 127
1, 59978, Note_off_c, 1, 57, 0
1, 60474, Note_on_c, 1, 54, 127
1, 60802, Note_off_c, 1, 75, 0
1, 60803, Note_on_c, 1, 81, 127
1, 60963, Note_off_c, 1, 81, 0
1, 60967, Note_on_c, 1, 79, 127
1, 61127, Note_off_c, 1, 79, 0
1, 61131, Note_on_c, 1, 78, 127
1, 61291, Note_off_c, 1, 78, 0
1, 61788, Note_on_c, 1, 74, 127
1, 62112, Note_off_c, 1, 74, 0
1, 62444, Note_on_c, 1, 69, 127
1, 62604, Note_off_c, 1, 69, 0
1, 62608, Note_on_c, 1, 70, 127
1, 62768, Note_off_c, 1, 70, 0
1, 63097, Note_off_c, 1, 54, 0
1, 63101, Note_on_c, 1, 55, 127
1, 63101, Note_on_c, 1, 70, 127
1, 63101, Note_on_c, 1, 74, 127
1, 63425, Note_off_c, 1, 55, 0
1, 63429, Note_on_c, 1, 50, 127
1, 63589, Note_off_c, 1, 50, 0
1, 63593, Note_on_c, 1, 48, 127
1, 63682, Note_off_c, 1, 70, 0
1, 63753, Note_off_c, 1, 48, 0
1, 63754, Note_off_c, 1, 74, 0
1, 63758, Note_on_c, 1, 46, 127
1, 63758, Note_on_c, 1, 66, 127
1, 63758, Note_on_c, 1, 72, 127
1, 63918, Note_off_c, 1, 46, 0
1, 63922, Note_on_c, 1, 48, 127
1, 64082, Note_off_c, 1, 48, 0
1, 64086, Note_on_c, 1, 50, 127
1, 64339, Note_off_c, 1, 66, 0
1, 64410, Note_off_c, 1, 50, 0
1, 64411, Note_off_c, 1, 72, 0
1, 64414, Note_on_c, 1, 43, 127
1, 64414, Note_on_c, 1, 67, 127
1, 64414, Note_on_c, 1, 70, 127
1, 64743, Note_on_c, 1, 55, 127
1, 64892, Note_off_c, 1, 43, 0
1, 64903, Note_off_c, 1, 55, 0
1, 64907, Note_on_c, 1, 53, 127
1, 64995, Note_off_c, 1, 67, 0
1, 65067, Note_off_c, 1, 70, 0
1, 65067, Note_off_c, 1, 53, 0
1, 65071, Note_on_c, 1, 51, 127
1, 65071, Note_on_c, 1, 62, 127
1, 65231, Note_off_c, 1, 51, 0
1, 65235, Note_on_c, 1, 53, 127
1, 65395, Note_off_c, 1, 53, 0
1, 65399, Note_on_c, 1, 55, 127
1, 65686, Note_off_c, 1, 62, 0
1, 65723, Note_off_c, 1, 55, 0
1, 65728, Note_on_c, 1, 48, 127
1, 65728, Note_on_c, 1, 63, 127
1, 66056, Note_on_c, 1, 75, 127
1, 66216, Note_off_c, 1, 75, 0
1, 66220, Note_on_c, 1, 74, 127
1, 66380, Note_off_c, 1, 74, 0
1, 66384, Note_on_c, 1, 72, 127
1, 66384, Note_on_c, 1, 60, 127
1, 66544, Note_off_c, 1, 72, 0
1, 67041, Note_on_c, 1, 68, 127
1, 67533, Note_on_c, 1, 70, 127
1, 67690, Note_off_c, 1, 68, 0
1, 67693, Note_off_c, 1, 70, 0
1, 67694, Note_off_c, 1, 48, 0
1, 68354, Note_on_c, 1, 66, 127
1, 68354, Note_on_c, 1, 50, 127
1, 68675, Note_off_c, 1, 60, 0
1, 68682, Note_on_c, 1, 57, 127
1, 68842, Note_off_c, 1, 57, 0
1, 68847, Note_on_c, 1, 58, 127
1, 69007, Note_off_c, 1, 58, 0
1, 69661, Note_off_c, 1, 63, 0
1, 69663, Note_off_c, 1, 66, 0
1, 69667, Note_on_c, 1, 62, 127
1, 69991, Note_off_c, 1, 62, 0
1, 69996, Note_on_c, 1, 67, 127
1, 70156, Note_off_c, 1, 67, 0
1, 70160, Note_on_c, 1, 69, 127
1, 70320, Note_off_c, 1, 50, 0
1, 70320, Note_off_c, 1, 69, 0
1, 72294, Note_on_c, 1, 55, 127
1, 72622, Note_on_c, 1, 64, 127
1, 72782, Note_off_c, 1, 64, 0
1, 73593, Note_off_c, 1, 55, 0
1, 73607, Note_on_c, 1, 54, 127
1, 74906, Note_off_c, 1, 54, 0
1, 74920, Note_on_c, 1, 52, 127
1, 74920, Note_on_c, 1, 67, 127
1, 75249, Note_on_c, 1, 61, 127
1, 75409, Note_off_c, 1, 61, 0
1, 75413, Note_on_c, 1, 62, 127
1, 75573, Note_off_c, 1, 52, 0
1, 75573, Note_off_c, 1, 62, 0
1, 75577, Note_on_c, 1, 64, 127
1, 75577, Note_on_c, 1, 50, 127
1, 75737, Note_off_c, 1, 64, 0
1, 76219, Note_off_c, 1, 67, 0
1, 76230, Note_off_c, 1, 50, 0
1, 76234, Note_on_c, 1, 62, 127
1, 76234, Note_on_c, 1, 48, 127
1, 76330, Note_on_c, 1, 64, 127
1, 76425, Note_on_c, 1, 66, 127
1, 76450, Note_off_c, 1, 64, 0
1, 76562, Note_on_c, 1, 57, 127
1, 76722, Note_off_c, 1, 57, 0
1, 76726, Note_on_c, 1, 55, 127
1, 76886, Note_off_c, 1, 55, 0
1, 76890, Note_on_c, 1, 54, 127
1, 77050, Note_off_c, 1, 54, 0
1, 77468, Note_off_c, 1, 66, 0
1, 77499, Note_off_c, 1, 62, 0
1, 77533, Note_off_c, 1, 48, 0
1, 77547, Note_on_c, 1, 46, 127
1, 77875, Note_on_c, 1, 79, 127
1, 78199, Note_off_c, 1, 79, 0
1, 78200, Note_off_c, 1, 46, 0
1, 78204, Note_on_c, 1, 77, 127
1, 78204, Note_on_c, 1, 47, 127
1, 78364, Note_off_c, 1, 77, 0
1, 78368, Note_on_c, 1, 75, 127
1, 78528, Note_off_c, 1, 75, 0
1, 78532, Note_on_c, 1, 74, 127
1, 78856, Note_off_c, 1, 74, 0
1, 78857, Note_off_c, 1, 47, 0
1, 78860, Note_on_c, 1, 48, 127
1, 78860, Note_on_c, 1, 75, 127
1, 79184, Note_off_c, 1, 48, 0
1, 79189, Note_on_c, 1, 57, 127
1, 79189, Note_on_c, 1, 84, 127
1, 79509, Note_off_c, 1, 75, 0
1, 79513, Note_off_c, 1, 57, 0
1, 79513, Note_off_c, 1, 84, 0
1, 79517, Note_on_c, 1, 74, 127
1, 79517, Note_on_c, 1, 46, 127
1, 79677, Note_off_c, 1, 74, 0
1, 79681, Note_on_c, 1, 72, 127
1, 79841, Note_off_c, 1, 46, 0
1, 79841, Note_off_c, 1, 72, 0
1, 79845, Note_on_c, 1, 55, 127
1, 79845, Note_on_c, 1, 70, 127
1, 80169, Note_off_c, 1, 55, 0
1, 80169, Note_off_c, 1, 70, 0
1, 80174, Note_on_c, 1, 45, 127
1, 80174, Note_on_c, 1, 72, 127
1, 80498, Note_off_c, 1, 45, 0
1, 80502, Note_on_c, 1, 54, 127
1, 80502, Note_on_c, 1, 81, 127
1, 80823, Note_off_c, 1, 72, 0
1, 80826, Note_off_c, 1, 54, 0
1, 80826, Note_off_c, 1, 81, 0
1, 80830, Note_on_c, 1, 70, 127
1, 80830, Note_on_c, 1, 43, 127
1, 80990, Note_off_c, 1, 70, 0
1, 80994, Note_on_c, 1, 69, 127
1, 81154, Note_off_c, 1, 43, 0
1, 81154, Note_off_c, 1, 69, 0
1, 81159, Note_on_c, 1, 67, 127
1, 81159, Note_on_c, 1, 51, 127
1, 81477, Note_off_c, 1, 67, 0
1, 81483, Note_off_c, 1, 51, 0
1, 81487, Note_on_c, 1, 42, 127
1, 81487, Note_on_c, 1, 69, 127
1, 81815, Note_on_c, 1, 75, 127
1, 81975, Note_off_c, 1, 75, 0
1, 81979, Note_on_c, 1, 74, 127
1, 82139, Note_off_c, 1, 74, 0
1, 82140, Note_off_c, 1, 42, 0
1, 82144, Note_on_c, 1, 72, 127
1, 82144, Note_on_c, 1, 38, 127
1, 82304, Note_off_c, 1, 72, 0
1, 82308, Note_on_c, 1, 70, 127
1, 82444, Note_off_c, 1, 69, 0
1, 82468, Note_off_c, 1, 70, 0
1, 82797, Note_off_c, 1, 38, 0
1, 82800, Note_on_c, 1, 70, 127
1, 82800, Note_on_c, 1, 43, 127
1, 82889, Note_off_c, 1, 70, 0
1, 82890, Note_on_c, 1, 69, 127
1, 82979, Note_off_c, 1, 69, 0
1, 83293, Note_on_c, 1, 67, 127
1, 83453, Note_off_c, 1, 43, 0
1, 83453, Note_off_c, 1, 67, 0
1, 83457, Note_on_c, 1, 65, 127
1, 83457, Note_on_c, 1, 55, 127
1, 83617, Note_off_c, 1, 65, 0
1, 83621, Note_on_c, 1, 63, 127
1, 83781, Note_off_c, 1, 63, 0
1, 83785, Note_on_c, 1, 62, 127
1, 84109, Note_off_c, 1, 62, 0
1, 84110, Note_off_c, 1, 55, 0
1, 84113, Note_on_c, 1, 48, 127
1, 84442, Note_on_c, 1, 72, 127
1, 84602, Note_off_c, 1, 72, 0
1, 84770, Note_on_c, 1, 68, 127
1, 84770, Note_on_c, 1, 60, 127
1, 84930, Note_off_c, 1, 68, 0
1, 85098, Note_on_c, 1, 66, 127
1, 85412, Note_off_c, 1, 48, 0
1, 85419, Note_off_c, 1, 60, 0
1, 85422, Note_off_c, 1, 66, 0
1, 85427, Note_on_c, 1, 58, 127
1, 85536, Note_on_c, 1, 64, 127
1, 85646, Note_on_c, 1, 67, 127
1, 85696, Note_off_c, 1, 64, 0
1, 85755, Note_on_c, 1, 49, 127
1, 85915, Note_off_c, 1, 49, 0
1, 85919, Note_on_c, 1, 50, 127
1, 86079, Note_off_c, 1, 50, 0
1, 86083, Note_on_c, 1, 52, 127
1, 86243, Note_off_c, 1, 52, 0
1, 87068, Note_off_c, 1, 58, 0
1, 87068, Note_on_c, 1, 57, 127
1, 87228, Note_off_c, 1, 57, 0
1, 87397, Note_on_c, 1, 60, 127
1, 87557, Note_off_c, 1, 60, 0
1, 88040, Note_off_c, 1, 67, 0
1, 88053, Note_on_c, 1, 66, 127
1, 88053, Note_on_c, 1, 38, 127
1, 88546, Note_on_c, 1, 62, 127
1, 88706, Note_off_c, 1, 62, 0
1, 88710, Note_on_c, 1, 63, 127
1, 88870, Note_off_c, 1, 63, 0
1, 89352, Note_off_c, 1, 66, 0
1, 89362, Note_off_c, 1, 38, 0
1, 89383, Note_on_c, 1, 58, 127
1, 89383, Note_on_c, 1, 50, 127
1, 89383, Note_on_c, 1, 43, 127
1, 89721, Note_on_c, 1, 62, 127
1, 89885, Note_off_c, 1, 62, 0
1, 89889, Note_on_c, 1, 67, 127
1, 90049, Note_off_c, 1, 58, 0
1, 90053, Note_off_c, 1, 67, 0
1, 90056, Note_on_c, 1, 65, 127
1, 90056, Note_on_c, 1, 59, 127
1, 90220, Note_off_c, 1, 65, 0
1, 90224, Note_on_c, 1, 63, 127
1, 90388, Note_off_c, 1, 63, 0
1, 90722, Note_off_c, 1, 59, 0
1, 90730, Note_on_c, 1, 60, 127
1, 90751, Note_off_c, 1, 50, 0
1, 91069, Note_on_c, 1, 48, 127
1, 91233, Note_off_c, 1, 48, 0
1, 91236, Note_on_c, 1, 55, 127
1, 91400, Note_off_c, 1, 60, 0
1, 91400, Note_off_c, 1, 55, 0
1, 91404, Note_on_c, 1, 53, 127
1, 91568, Note_off_c, 1, 53, 0
1, 91571, Note_on_c, 1, 51, 127
1, 91735, Note_off_c, 1, 51, 0
1, 92074, Note_off_c, 1, 43, 0
1, 92078, Note_on_c, 1, 60, 127
1, 92078, Note_on_c, 1, 51, 127
1, 92078, Note_on_c, 1, 43, 127
1, 92426, Note_on_c, 1, 67, 127
1, 92597, Note_off_c, 1, 67, 0
1, 92601, Note_on_c, 1, 72, 127
1, 92772, Note_off_c, 1, 72, 0
1, 92775, Note_on_c, 1, 70, 127
1, 92946, Note_off_c, 1, 70, 0
1, 92950, Note_on_c, 1, 69, 127
1, 93121, Note_off_c, 1, 69, 0
1, 94345, Note_on_c, 1, 66, 127
1, 94516, Note_off_c, 1, 66, 0
1, 94519, Note_on_c, 1, 64, 127
1, 94864, Note_off_c, 1, 64, 0
1, 94865, Note_off_c, 1, 60, 0
1, 95224, Note_off_c, 1, 51, 0
1, 95405, Note_on_c, 1, 50, 127
1, 95579, Note_off_c, 1, 50, 0
1, 95583, Note_on_c, 1, 48, 127
1, 95757, Note_off_c, 1, 48, 0
1, 96291, Note_off_c, 1, 43, 0
1, 96677, Note_on_c, 1, 62, 127
1, 96858, Note_off_c, 1, 62, 0
1, 96872, Note_on_c, 1, 63, 127
1, 97053, Note_off_c, 1, 63, 0
1, 98482, Note_on_c, 1, 59, 127
1, 98703, Note_on_c, 1, 57, 127
1, 98722, Note_off_c, 1, 59, 0
1, 98943, Note_off_c, 1, 57, 0
1, 103774, Note_on_c, 1, 62, 127
1, 104085, Note_off_c, 1, 62, 0
1, 104111, Note_on_c, 1, 63, 127
1, 104422, Note_off_c, 1, 63, 0
1, 104442, Note_on_c, 1, 55, 127
1, 104753, Note_off_c, 1, 55, 0
1, 104774, Note_on_c, 1, 55, 127
1, 104842, Note_off_c, 1, 55, 0
1, 104846, Note_on_c, 1, 54, 127
1, 104914, Note_off_c, 1, 54, 0
1, 104918, Note_on_c, 1, 55, 127
1, 104986, Note_off_c, 1, 55, 0
1, 104990, Note_on_c, 1, 54, 127
1, 105444, Note_off_c, 1, 54, 0
1, 105448, Note_on_c, 1, 55, 127
1, 106279, Note_off_c, 1, 55, 0
1, 106446, Note_on_c, 1, 57, 127
1, 106610, Note_off_c, 1, 57, 0
1, 106614, Note_on_c, 1, 58, 127
1, 106778, Note_off_c, 1, 58, 0
1, 106782, Note_on_c, 1, 60, 127
1, 107113, Note_off_c, 1, 60, 0
1, 107117, Note_on_c, 1, 58, 127
1, 107281, Note_off_c, 1, 58, 0
1, 107284, Note_on_c, 1, 57, 127
1, 107448, Note_off_c, 1, 57, 0
1, 107452, Note_on_c, 1, 58, 127
1, 107784, Note_on_c, 1, 67, 127
1, 108078, Note_off_c, 1, 67, 0
1, 108115, Note_off_c, 1, 58, 0
1, 108119, Note_on_c, 1, 70, 127
1, 108119, Note_on_c, 1, 55, 127
1, 108413, Note_off_c, 1, 70, 0
1, 108451, Note_on_c, 1, 62, 127
1, 108745, Note_off_c, 1, 62, 0
1, 108775, Note_off_c, 1, 55, 0
1, 108782, Note_on_c, 1, 62, 127
1, 108857, Note_off_c, 1, 62, 0
1, 108861, Note_on_c, 1, 61, 127
1, 108936, Note_off_c, 1, 61, 0
1, 108940, Note_on_c, 1, 62, 127
1, 109015, Note_off_c, 1, 62, 0
1, 109018, Note_on_c, 1, 61, 127
1, 109117, Note_on_c, 1, 57, 127
1, 109281, Note_off_c, 1, 57, 0
1, 109285, Note_on_c, 1, 55, 127
1, 109448, Note_off_c, 1, 61, 0
1, 109449, Note_off_c, 1, 55, 0
1, 109453, Note_on_c, 1, 53, 127
1, 109453, Note_on_c, 1, 62, 127
1, 109784, Note_off_c, 1, 53, 0
1, 109788, Note_on_c, 1, 55, 127
1, 109952, Note_off_c, 1, 55, 0
1, 109955, Note_on_c, 1, 57, 127
1, 110119, Note_off_c, 1, 57, 0
1, 110123, Note_on_c, 1, 58, 127
1, 110290, Note_off_c, 1, 62, 0
1, 110454, Note_off_c, 1, 58, 0
1, 110458, Note_on_c, 1, 64, 127
1, 110458, Note_on_c, 1, 55, 127
1, 110622, Note_off_c, 1, 64, 0
1, 110626, Note_on_c, 1, 65, 127
1, 110789, Note_off_c, 1, 55, 0
1, 110790, Note_off_c, 1, 65, 0
1, 110793, Note_on_c, 1, 67, 127
1, 110793, Note_on_c, 1, 52, 127
1, 111124, Note_off_c, 1, 67, 0
1, 111124, Note_off_c, 1, 52, 0
1, 111128, Note_on_c, 1, 65, 127
1, 111128, Note_on_c, 1, 61, 127
1, 111292, Note_off_c, 1, 65, 0
1, 111296, Note_on_c, 1, 64, 127
1, 111459, Note_off_c, 1, 61, 0
1, 111460, Note_off_c, 1, 64, 0
1, 111464, Note_on_c, 1, 65, 127
1, 111464, Note_on_c, 1, 62, 127
1, 111795, Note_off_c, 1, 65, 0
1, 111799, Note_on_c, 1, 67, 127
1, 111963, Note_off_c, 1, 67, 0
1, 111966, Note_on_c, 1, 69, 127
1, 112130, Note_off_c, 1, 69, 0
1, 112134, Note_on_c, 1, 70, 127
1, 112384, Note_off_c, 1, 62, 0
1, 112465, Note_off_c, 1, 70, 0
1, 112469, Note_on_c, 1, 69, 127
1, 112469, Note_on_c, 1, 64, 127
1, 112633, Note_off_c, 1, 69, 0
1, 112637, Note_on_c, 1, 67, 127
1, 112800, Note_off_c, 1, 64, 0
1, 112804, Note_off_c, 1, 67, 0
1, 112808, Note_on_c, 1, 69, 127
1, 112808, Note_on_c, 1, 65, 127
1, 113139, Note_off_c, 1, 69, 0
1, 113139, Note_off_c, 1, 65, 0
1, 113143, Note_on_c, 1, 70, 127
1, 113143, Note_on_c, 1, 64, 127
1, 113307, Note_off_c, 1, 70, 0
1, 113310, Note_on_c, 1, 72, 127
1, 113474, Note_off_c, 1, 64, 0
1, 113477, Note_off_c, 1, 72, 0
1, 113481, Note_on_c, 1, 74, 127
1, 113481, Note_on_c, 1, 65, 127
1, 113812, Note_off_c, 1, 74, 0
1, 113812, Note_off_c, 1, 65, 0
1, 113817, Note_on_c, 1, 72, 127
1, 113817, Note_on_c, 1, 67, 127
1, 113981, Note_off_c, 1, 72, 0
1, 113984, Note_on_c, 1, 70, 127
1, 114148, Note_off_c, 1, 67, 0
1, 114151, Note_off_c, 1, 70, 0
1, 114155, Note_on_c, 1, 69, 127
1, 114155, Note_on_c, 1, 72, 127
1, 114486, Note_off_c, 1, 69, 0
1, 114490, Note_on_c, 1, 67, 127
1, 114490, Note_on_c, 1, 50, 127
1, 114654, Note_off_c, 1, 67, 0
1, 114658, Note_on_c, 1, 66, 127
1, 114811, Note_off_c, 1, 50, 0
1, 114818, Note_off_c, 1, 72, 0
1, 114825, Note_off_c, 1, 66, 0
1, 114829, Note_on_c, 1, 51, 127
1, 114829, Note_on_c, 1, 67, 127
1, 114829, Note_on_c, 1, 70, 127
1, 115150, Note_off_c, 1, 51, 0
1, 115160, Note_off_c, 1, 67, 0
1, 115164, Note_on_c, 1, 43, 127
1, 115164, Note_on_c, 1, 61, 127
1, 115485, Note_off_c, 1, 43, 0
1, 115492, Note_off_c, 1, 70, 0
1, 115499, Note_off_c, 1, 61, 0
1, 115503, Note_on_c, 1, 43, 127
1, 115503, Note_on_c, 1, 62, 127
1, 115503, Note_on_c, 1, 69, 127
1, 115591, Note_off_c, 1, 43, 0
1, 115595, Note_on_c, 1, 42, 127
1, 115683, Note_off_c, 1, 42, 0
1, 115841, Note_off_c, 1, 62, 0
1, 115841, Note_off_c, 1, 69, 0
1, 115845, Note_on_c, 1, 74, 127
1, 116009, Note_off_c, 1, 74, 0
1, 116012, Note_on_c, 1, 72, 127
1, 116176, Note_off_c, 1, 72, 0
1, 116180, Note_on_c, 1, 70, 127
1, 116511, Note_off_c, 1, 70, 0
1, 116515, Note_on_c, 1, 67, 127
1, 116679, Note_off_c, 1, 67, 0
1, 116683, Note_on_c, 1, 66, 127
1, 116850, Note_off_c, 1, 66, 0
1, 116854, Note_on_c, 1, 75, 127
1, 116854, Note_on_c, 1, 67, 127
1, 117185, Note_off_c, 1, 75, 0
1, 117189, Note_on_c, 1, 45, 127
1, 117189, Note_on_c, 1, 72, 127
1, 117353, Note_off_c, 1, 45, 0
1, 117356, Note_on_c, 1, 46, 127
1, 117517, Note_off_c, 1, 67, 0
1, 117523, Note_off_c, 1, 46, 0
1, 117524, Note_off_c, 1, 72, 0
1, 117527, Note_on_c, 1, 66, 127
1, 117527, Note_on_c, 1, 69, 127
1, 117527, Note_on_c, 1, 48, 127
1, 117858, Note_off_c, 1, 66, 0
1, 117858, Note_off_c, 1, 69, 0
1, 117858, Note_off_c, 1, 48, 0
1, 117862, Note_on_c, 1, 46, 127
1, 117862, Note_on_c, 1, 78, 127
1, 117862, Note_on_c, 1, 69, 127
1, 118026, Note_off_c, 1, 46, 0
1, 118030, Note_on_c, 1, 45, 127
1, 118194, Note_off_c, 1, 45, 0
1, 118206, Note_on_c, 1, 74, 127
1, 118206, Note_on_c, 1, 79, 127
1, 118210, Note_off_c, 1, 78, 0
1, 118210, Note_off_c, 1, 69, 0
1, 118537, Note_on_c, 1, 55, 127
1, 118858, Note_off_c, 1, 55, 0
1, 118866, Note_off_c, 1, 74, 0
1, 118866, Note_off_c, 1, 79, 0
1, 118872, Note_on_c, 1, 58, 127
1, 118872, Note_on_c, 1, 43, 127
1, 119193, Note_off_c, 1, 58, 0
1, 119208, Note_on_c, 1, 50, 127
1, 119529, Note_off_c, 1, 50, 0
1, 119638, Note_off_c, 1, 43, 0
1, 119656, Note_on_c, 1, 49, 127
1, 119765, Note_off_c, 1, 49, 0
1, 119769, Note_on_c, 1, 50, 127
1, 119878, Note_off_c, 1, 50, 0
1, 119881, Note_on_c, 1, 45, 127
1, 119881, Note_on_c, 1, 49, 127
1, 119881, Note_on_c, 1, 64, 127
1, 120045, Note_off_c, 1, 45, 0
1, 120049, Note_on_c, 1, 43, 127
1, 120212, Note_off_c, 1, 49, 0
1, 120216, Note_off_c, 1, 64, 0
1, 120216, Note_off_c, 1, 43, 0
1, 120220, Note_on_c, 1, 69, 127
1, 120220, Note_on_c, 1, 41, 127
1, 120220, Note_on_c, 1, 50, 127
1, 120551, Note_off_c, 1, 69, 0
1, 120551, Note_off_c, 1, 41, 0
1, 120555, Note_on_c, 1, 43, 127
1, 120555, Note_on_c, 1, 65, 127
1, 120719, Note_off_c, 1, 43, 0
1, 120723, Note_on_c, 1, 45, 127
1, 120883, Note_off_c, 1, 50, 0
1, 120890, Note_off_c, 1, 65, 0
1, 120890, Note_off_c, 1, 45, 0
1, 120894, Note_on_c, 1, 46, 127
1, 120894, Note_on_c, 1, 62, 127
1, 121225, Note_off_c, 1, 46, 0
1, 121229, Note_on_c, 1, 52, 127
1, 121229, Note_on_c, 1, 43, 127
1, 121393, Note_off_c, 1, 52, 0
1, 121396, Note_on_c, 1, 53, 127
1, 121560, Note_off_c, 1, 43, 0
1, 121563, Note_off_c, 1, 53, 0
1, 121564, Note_off_c, 1, 62, 0
1, 121567, Note_on_c, 1, 40, 127
1, 121567, Note_on_c, 1, 61, 127
1, 121567, Note_on_c, 1, 55, 127
1, 121895, Note_off_c, 1, 40, 0
1, 121898, Note_off_c, 1, 61, 0
1, 121898, Note_off_c, 1, 55, 0
1, 121903, Note_on_c, 1, 53, 127
1, 121903, Note_on_c, 1, 49, 127
1, 121903, Note_on_c, 1, 64, 127
1, 122067, Note_off_c, 1, 53, 0
1, 122070, Note_on_c, 1, 52, 127
1, 122234, Note_off_c, 1, 49, 0
1, 122237, Note_off_c, 1, 52, 0
1, 122241, Note_on_c, 1, 50, 127
1, 122573, Note_off_c, 1, 64, 0
1, 122576, Note_on_c, 1, 55, 127
1, 122576, Note_on_c, 1, 62, 127
1, 122740, Note_off_c, 1, 55, 0
1, 122744, Note_on_c, 1, 57, 127
1, 122907, Note_off_c, 1, 62, 0
1, 122908, Note_off_c, 1, 57, 0
1, 122911, Note_on_c, 1, 58, 127
1, 122911, Note_on_c, 1, 67, 127
1, 123242, Note_off_c, 1, 58, 0
1, 123578, Note_off_c, 1, 50, 0
1, 123745, Note_off_c, 1, 67, 0
1, 123749, Note_on_c, 1, 66, 127
1, 123913, Note_off_c, 1, 66, 0
1, 124085, Note_on_c, 1, 69, 127
1, 124085, Note_on_c, 1, 60, 127
1, 124249, Note_off_c, 1, 69, 0
1, 124249, Note_off_c, 1, 60, 0
1, 124252, Note_on_c, 1, 70, 127
1, 125589, Note_off_c, 1, 70, 0
1, 125593, Note_on_c, 1, 54, 127
1, 125924, Note_off_c, 1, 54, 0
1, 126263, Note_on_c, 1, 46, 127
1, 126594, Note_off_c, 1, 46, 0
1, 126598, Note_on_c, 1, 48, 127
1, 126762, Note_off_c, 1, 48, 0
1, 126937, Note_on_c, 1, 58, 127
1, 126937, Note_on_c, 1, 51, 127
1, 126937, Note_on_c, 1, 67, 127
1, 127268, Note_off_c, 1, 58, 0
1, 127268, Note_off_c, 1, 51, 0
1, 127272, Note_on_c, 1, 50, 127
1, 127272, Note_on_c, 1, 63, 127
1, 127436, Note_off_c, 1, 50, 0
1, 127440, Note_on_c, 1, 48, 127
1, 127603, Note_off_c, 1, 63, 0
1, 127604, Note_off_c, 1, 48, 0
1, 127607, Note_on_c, 1, 57, 127
1, 127771, Note_off_c, 1, 57, 0
1, 127939, Note_off_c, 1, 67, 0
1, 127942, Note_on_c, 1, 66, 127
1, 128106, Note_off_c, 1, 66, 0
1, 128277, Note_on_c, 1, 69, 127
1, 128277, Note_on_c, 1, 60, 127
1, 128608, Note_off_c, 1, 69, 0
1, 128608, Note_off_c, 1, 60, 0
1, 128948, Note_on_c, 1, 58, 127
1, 128948, Note_on_c, 1, 43, 127
1, 128948, Note_on_c, 1, 67, 127
1, 129279, Note_off_c, 1, 58, 0
1, 129283, Note_on_c, 1, 60, 127
1, 129447, Note_off_c, 1, 60, 0
1, 129451, Note_on_c, 1, 62, 127
1, 129615, Note_off_c, 1, 62, 0
1, 129618, Note_on_c, 1, 63, 127
1, 129868, Note_off_c, 1, 43, 0
1, 129950, Note_off_c, 1, 67, 0
1, 129953, Note_on_c, 1, 72, 127
1, 129953, Note_on_c, 1, 45, 127
1, 130284, Note_off_c, 1, 72, 0
1, 130284, Note_off_c, 1, 45, 0
1, 130288, Note_on_c, 1, 65, 127
1, 130288, Note_on_c, 1, 46, 127
1, 130619, Note_off_c, 1, 65, 0
1, 130619, Note_off_c, 1, 46, 0
1, 130624, Note_on_c, 1, 53, 127
1, 130791, Note_on_c, 1, 69, 127
1, 130955, Note_off_c, 1, 63, 0
1, 130955, Note_off_c, 1, 53, 0
1, 130955, Note_off_c, 1, 69, 0
1, 130959, Note_on_c, 1, 55, 127
1, 130959, Note_on_c, 1, 62, 127
1, 130959, Note_on_c, 1, 70, 127
1, 131290, Note_off_c, 1, 55, 0
1, 131294, Note_on_c, 1, 50, 127
1, 131625, Note_off_c, 1, 62, 0
1, 131625, Note_off_c, 1, 50, 0
1, 131629, Note_on_c, 1, 51, 127
1, 131629, Note_on_c, 1, 60, 127
1, 131960, Note_off_c, 1, 51, 0
1, 132296, Note_off_c, 1, 70, 0
1, 132299, Note_on_c, 1, 53, 127
1, 132385, Note_on_c, 1, 69, 127
1, 132477, Note_off_c, 1, 69, 0
1, 132630, Note_off_c, 1, 53, 0
1, 132635, Note_on_c, 1, 41, 127
1, 132966, Note_off_c, 1, 60, 0
1, 132966, Note_off_c, 1, 41, 0
1, 132970, Note_on_c, 1, 46, 127
1, 133309, Note_on_c, 1, 65, 127
1, 133349, Note_off_c, 1, 46, 0
1, 133620, Note_off_c, 1, 65, 0
1, 133641, Note_on_c, 1, 67, 127
1, 133952, Note_off_c, 1, 67, 0
1, 133973, Note_on_c, 1, 58, 127
1, 134284, Note_off_c, 1, 58, 0
1, 134305, Note_on_c, 1, 58, 127
1, 134469, Note_off_c, 1, 58, 0
1, 134472, Note_on_c, 1, 57, 127
1, 134640, Note_on_c, 1, 53, 127
1, 134804, Note_off_c, 1, 53, 0
1, 134807, Note_on_c, 1, 51, 127
1, 134971, Note_off_c, 1, 57, 0
1, 134971, Note_off_c, 1, 51, 0
1, 134975, Note_on_c, 1, 50, 127
1, 134975, Note_on_c, 1, 58, 127
1, 135306, Note_off_c, 1, 50, 0
1, 135310, Note_on_c, 1, 51, 127
1, 135474, Note_off_c, 1, 51, 0
1, 135478, Note_on_c, 1, 53, 127
1, 135642, Note_off_c, 1, 53, 0
1, 135645, Note_on_c, 1, 55, 127
1, 135812, Note_off_c, 1, 58, 0
1, 135976, Note_off_c, 1, 55, 0
1, 135980, Note_on_c, 1, 60, 127
1, 135980, Note_on_c, 1, 51, 127
1, 136144, Note_off_c, 1, 60, 0
1, 136148, Note_on_c, 1, 62, 127
1, 136311, Note_off_c, 1, 51, 0
1, 136312, Note_off_c, 1, 62, 0
1, 136316, Note_on_c, 1, 63, 127
1, 136316, Note_on_c, 1, 48, 127
1, 136647, Note_off_c, 1, 63, 0
1, 136647, Note_off_c, 1, 48, 0
1, 136651, Note_on_c, 1, 62, 127
1, 136651, Note_on_c, 1, 57, 127
1, 136815, Note_off_c, 1, 62, 0
1, 136818, Note_on_c, 1, 60, 127
1, 136982, Note_off_c, 1, 57, 0
1, 136985, Note_off_c, 1, 60, 0
1, 136989, Note_on_c, 1, 62, 127
1, 136989, Note_on_c, 1, 58, 127
1, 137153, Note_off_c, 1, 62, 0
1, 137157, Note_on_c, 1, 64, 127
1, 137321, Note_off_c, 1, 64, 0
1, 137325, Note_on_c, 1, 46, 127
1, 137656, Note_off_c, 1, 46, 0
1, 137660, Note_on_c, 1, 65, 127
1, 137660, Note_on_c, 1, 50, 127
1, 137991, Note_off_c, 1, 65, 0
1, 137991, Note_off_c, 1, 50, 0
1, 137995, Note_on_c, 1, 41, 127
1, 138326, Note_off_c, 1, 41, 0
1, 138330, Note_on_c, 1, 67, 127
1, 138664, Note_off_c, 1, 58, 0
1, 138665, Note_on_c, 1, 60, 127
1, 138665, Note_on_c, 1, 40, 127
1, 138829, Note_off_c, 1, 60, 0
1, 138996, Note_off_c, 1, 40, 0
1, 139000, Note_on_c, 1, 57, 127
1, 139331, Note_off_c, 1, 57, 0
1, 139332, Note_off_c, 1, 67, 0
1, 140006, Note_on_c, 1, 43, 127
1, 140006, Note_on_c, 1, 58, 127
1, 140170, Note_off_c, 1, 43, 0
1, 140173, Note_on_c, 1, 45, 127
1, 140337, Note_off_c, 1, 58, 0
1, 140337, Note_off_c, 1, 45, 0
1, 140341, Note_on_c, 1, 55, 127
1, 140341, Note_on_c, 1, 64, 127
1, 140341, Note_on_c, 1, 46, 127
1, 140672, Note_off_c, 1, 55, 0
1, 140672, Note_off_c, 1, 64, 0
1, 140672, Note_off_c, 1, 46, 0
1, 140676, Note_on_c, 1, 45, 127
1, 140676, Note_on_c, 1, 64, 127
1, 140676, Note_on_c, 1, 70, 127
1, 140840, Note_off_c, 1, 45, 0
1, 140844, Note_on_c, 1, 43, 127
1, 141007, Note_off_c, 1, 64, 0
1, 141008, Note_off_c, 1, 43, 0
1, 141011, Note_on_c, 1, 65, 127
1, 141336, Note_off_c, 1, 70, 0
1, 141343, Note_on_c, 1, 69, 127
1, 141343, Note_on_c, 1, 72, 127
1, 141496, Note_off_c, 1, 65, 0
1, 141511, Note_on_c, 1, 63, 127
1, 141674, Note_off_c, 1, 69, 0
1, 141674, Note_off_c, 1, 72, 0
1, 141678, Note_off_c, 1, 63, 0
1, 141682, Note_on_c, 1, 62, 127
1, 141682, Note_on_c, 1, 74, 127
1, 141682, Note_on_c, 1, 46, 127
1, 142013, Note_off_c, 1, 62, 0
1, 142013, Note_off_c, 1, 74, 0
1, 142017, Note_on_c, 1, 67, 127
1, 142017, Note_on_c, 1, 65, 127
1, 142190, Note_off_c, 1, 67, 0
1, 142194, Note_on_c, 1, 69, 127
1, 142345, Note_off_c, 1, 46, 0
1, 142355, Note_on_c, 1, 60, 127
1, 142384, Note_off_c, 1, 69, 0
1, 142407, Note_off_c, 1, 65, 0
1, 142424, Note_on_c, 1, 64, 127
1, 142492, Note_on_c, 1, 70, 127
1, 142683, Note_off_c, 1, 70, 0
1, 142687, Note_on_c, 1, 48, 127
1, 142851, Note_off_c, 1, 48, 0
1, 143015, Note_off_c, 1, 64, 0
1, 143026, Note_on_c, 1, 45, 127
1, 143357, Note_off_c, 1, 60, 0
1, 143357, Note_off_c, 1, 45, 0
1, 143699, Note_on_c, 1, 50, 127
1, 143699, Note_on_c, 1, 58, 127
1, 144030, Note_off_c, 1, 50, 0
1, 144370, Note_on_c, 1, 43, 127
1, 144701, Note_off_c, 1, 43, 0
1, 144705, Note_on_c, 1, 52, 127
1, 145036, Note_off_c, 1, 58, 0
1, 145036, Note_off_c, 1, 52, 0
1, 145040, Note_on_c, 1, 57, 127
1, 145040, Note_on_c, 1, 53, 127
1, 145543, Note_on_c, 1, 72, 127
1, 145543, Note_on_c, 1, 63, 127
1, 145703, Note_off_c, 1, 57, 0
1, 145710, Note_off_c, 1, 72, 0
1, 145710, Note_off_c, 1, 63, 0
1, 146722, Note_off_c, 1, 53, 0
1, 147064, Note_on_c, 1, 55, 127
1, 147064, Note_on_c, 1, 62, 127
1, 147064, Note_on_c, 1, 70, 127
1, 147064, Note_on_c, 1, 67, 127
1, 147398, Note_off_c, 1, 55, 0
1, 147398, Note_off_c, 1, 62, 0
1, 147398, Note_off_c, 1, 70, 0
1, 147402, Note_on_c, 1, 72, 127
1, 147402, Note_on_c, 1, 46, 127
1, 147567, Note_off_c, 1, 72, 0
1, 147572, Note_on_c, 1, 74, 127
1, 147733, Note_off_c, 1, 67, 0
1, 147740, Note_off_c, 1, 46, 0
1, 147740, Note_off_c, 1, 74, 0
1, 147745, Note_on_c, 1, 75, 127
1, 147745, Note_on_c, 1, 45, 127
1, 148079, Note_off_c, 1, 75, 0
1, 148083, Note_on_c, 1, 77, 127
1, 148083, Note_on_c, 1, 53, 127
1, 148248, Note_off_c, 1, 77, 0
1, 148414, Note_off_c, 1, 45, 0
1, 148421, Note_off_c, 1, 53, 0
1, 148426, Note_on_c, 1, 58, 127
1, 148426, Note_on_c, 1, 74, 127
1, 148426, Note_on_c, 1, 46, 127
1, 148760, Note_off_c, 1, 58, 0
1, 148760, Note_off_c, 1, 74, 0
1, 148764, Note_on_c, 1, 75, 127
1, 148764, Note_on_c, 1, 65, 127
1, 148764, Note_on_c, 1, 56, 127
1, 148929, Note_off_c, 1, 75, 0
1, 148933, Note_on_c, 1, 77, 127
1, 149095, Note_off_c, 1, 46, 0
1, 149098, Note_off_c, 1, 65, 0
1, 149101, Note_off_c, 1, 77, 0
1, 149102, Note_off_c, 1, 56, 0
1, 149105, Note_on_c, 1, 79, 127
1, 149105, Note_on_c, 1, 55, 127
1, 149105, Note_on_c, 1, 63, 127
1, 149439, Note_off_c, 1, 79, 0
1, 149455, Note_on_c, 1, 48, 127
1, 149455, Note_on_c, 1, 75, 127
1, 149626, Note_off_c, 1, 48, 0
1, 149633, Note_on_c, 1, 50, 127
1, 149774, Note_off_c, 1, 55, 0
1, 149774, Note_off_c, 1, 63, 0
1, 149806, Note_off_c, 1, 75, 0
1, 149807, Note_off_c, 1, 50, 0
1, 149813, Note_on_c, 1, 51, 127
1, 149813, Note_on_c, 1, 57, 127
1, 149813, Note_on_c, 1, 65, 127
1, 149813, Note_on_c, 1, 72, 127
1, 150160, Note_off_c, 1, 51, 0
1, 150160, Note_off_c, 1, 57, 0
1, 150164, Note_on_c, 1, 50, 127
1, 150164, Note_on_c, 1, 60, 127
1, 150164, Note_on_c, 1, 81, 127
1, 150176, Note_off_c, 1, 65, 0
1, 150213, Note_off_c, 1, 72, 0
1, 150335, Note_off_c, 1, 50, 0
1, 150337, Note_on_c, 1, 48, 127
1, 150511, Note_off_c, 1, 60, 0
1, 150511, Note_off_c, 1, 48, 0
1, 150514, Note_on_c, 1, 82, 127
1, 150514, Note_on_c, 1, 53, 127
1, 150515, Note_off_c, 1, 81, 0
1, 150886, Note_off_c, 1, 82, 0
1, 150904, Note_off_c, 1, 53, 0
1, 151061, Note_on_c, 1, 67, 127
1, 151061, Note_on_c, 1, 46, 127
1, 151225, Note_off_c, 1, 67, 0
1, 151225, Note_off_c, 1, 46, 0
1, 151228, Note_on_c, 1, 68, 127
1, 151228, Note_on_c, 1, 48, 127
1, 151559, Note_off_c, 1, 68, 0
1, 151559, Note_off_c, 1, 48, 0
1, 151563, Note_on_c, 1, 67, 127
1, 151563, Note_on_c, 1, 50, 127
1, 151727, Note_off_c, 1, 67, 0
1, 151731, Note_on_c, 1, 65, 127
1, 151894, Note_off_c, 1, 50, 0
1, 151895, Note_off_c, 1, 65, 0
1, 151899, Note_on_c, 1, 67, 127
1, 151899, Note_on_c, 1, 51, 127
1, 152230, Note_off_c, 1, 67, 0
1, 152250, Note_on_c, 1, 79, 127
1, 152250, Note_on_c, 1, 50, 127
1, 152256, Note_off_c, 1, 51, 0
1, 152414, Note_off_c, 1, 79, 0
1, 152414, Note_off_c, 1, 50, 0
1, 152417, Note_on_c, 1, 80, 127
1, 152417, Note_on_c, 1, 48, 127
1, 152581, Note_off_c, 1, 80, 0
1, 152581, Note_off_c, 1, 48, 0
1, 152585, Note_on_c, 1, 82, 127
1, 152585, Note_on_c, 1, 50, 127
1, 152916, Note_off_c, 1, 82, 0
1, 152916, Note_off_c, 1, 50, 0
1, 152920, Note_on_c, 1, 80, 127
1, 152920, Note_on_c, 1, 52, 127
1, 153084, Note_off_c, 1, 80, 0
1, 153088, Note_on_c, 1, 79, 127
1, 153251, Note_off_c, 1, 52, 0
1, 153252, Note_off_c, 1, 79, 0
1, 153255, Note_on_c, 1, 80, 127
1, 153255, Note_on_c, 1, 53, 127
1, 153586, Note_off_c, 1, 80, 0
1, 153586, Note_off_c, 1, 53, 0
1, 153606, Note_on_c, 1, 41, 127
1, 153606, Note_on_c, 1, 80, 127
1, 153606, Note_on_c, 1, 77, 127
1, 153770, Note_off_c, 1, 41, 0
1, 153770, Note_off_c, 1, 80, 0
1, 153770, Note_off_c, 1, 77, 0
1, 153774, Note_on_c, 1, 43, 127
1, 153774, Note_on_c, 1, 75, 127
1, 153774, Note_on_c, 1, 79, 127
1, 153938, Note_off_c, 1, 43, 0
1, 153938, Note_off_c, 1, 75, 0
1, 153938, Note_off_c, 1, 79, 0
1, 153942, Note_on_c, 1, 44, 127
1, 153942, Note_on_c, 1, 77, 127
1, 153942, Note_on_c, 1, 74, 127
1, 154273, Note_off_c, 1, 44, 0
1, 154273, Note_off_c, 1, 77, 0
1, 154273, Note_off_c, 1, 74, 0
1, 154277, Note_on_c, 1, 43, 127
1, 154277, Note_on_c, 1, 75, 127
1, 154277, Note_on_c, 1, 79, 127
1, 154441, Note_off_c, 1, 43, 0
1, 154441, Note_off_c, 1, 75, 0
1, 154441, Note_off_c, 1, 79, 0
1, 154444, Note_on_c, 1, 41, 127
1, 154444, Note_on_c, 1, 77, 127
1, 154444, Note_on_c, 1, 80, 127
1, 154608, Note_off_c, 1, 41, 0
1, 154608, Note_off_c, 1, 77, 0
1, 154608, Note_off_c, 1, 80, 0
1, 154612, Note_on_c, 1, 74, 127
1, 154612, Note_on_c, 1, 71, 127
1, 154612, Note_on_c, 1, 43, 127
1, 154943, Note_off_c, 1, 74, 0
1, 154943, Note_off_c, 1, 71, 0
1, 154947, Note_on_c, 1, 75, 127
1, 154947, Note_on_c, 1, 55, 127
1, 154947, Note_on_c, 1, 79, 127
1, 154977, Note_off_c, 1, 43, 0
1, 155111, Note_off_c, 1, 75, 0
1, 155278, Note_off_c, 1, 55, 0
1, 155282, Note_on_c, 1, 56, 127
1, 155282, Note_on_c, 1, 72, 127
1, 155607, Note_off_c, 1, 79, 0
1, 155613, Note_off_c, 1, 56, 0
1, 155613, Note_off_c, 1, 72, 0
1, 155617, Note_on_c, 1, 77, 127
1, 155617, Note_on_c, 1, 74, 127
1, 155617, Note_on_c, 1, 48, 127
1, 155781, Note_off_c, 1, 77, 0
1, 155785, Note_on_c, 1, 75, 127
1, 155948, Note_off_c, 1, 74, 0
1, 155952, Note_off_c, 1, 48, 0
1, 155952, Note_off_c, 1, 75, 0
1, 155956, Note_on_c, 1, 65, 127
1, 155956, Note_on_c, 1, 47, 127
1, 155956, Note_on_c, 1, 74, 127
1, 156287, Note_off_c, 1, 65, 0
1, 156291, Note_on_c, 1, 67, 127
1, 156455, Note_off_c, 1, 67, 0
1, 156622, Note_off_c, 1, 47, 0
1, 156626, Note_on_c, 1, 63, 127
1, 156626, Note_on_c, 1, 48, 127
1, 156957, Note_off_c, 1, 63, 0
1, 156958, Note_off_c, 1, 74, 0
1, 156961, Note_on_c, 1, 72, 127
1, 157125, Note_off_c, 1, 72, 0
1, 157129, Note_on_c, 1, 71, 127
1, 157289, Note_off_c, 1, 48, 0
1, 157296, Note_off_c, 1, 71, 0
1, 157300, Note_on_c, 1, 68, 127
1, 157300, Note_on_c, 1, 72, 127
1, 157631, Note_off_c, 1, 68, 0
1, 157635, Note_on_c, 1, 50, 127
1, 157635, Note_on_c, 1, 65, 127
1, 157799, Note_off_c, 1, 50, 0
1, 157803, Note_on_c, 1, 51, 127
1, 157963, Note_off_c, 1, 72, 0
1, 157970, Note_off_c, 1, 65, 0
1, 157970, Note_off_c, 1, 51, 0
1, 157974, Note_on_c, 1, 53, 127
1, 157974, Note_on_c, 1, 71, 127
1, 157974, Note_on_c, 1, 62, 127
1, 158305, Note_off_c, 1, 53, 0
1, 158305, Note_off_c, 1, 71, 0
1, 158305, Note_off_c, 1, 62, 0
1, 158309, Note_on_c, 1, 51, 127
1, 158309, Note_on_c, 1, 71, 127
1, 158391, Note_on_c, 1, 72, 127
1, 158473, Note_off_c, 1, 51, 0
1, 158476, Note_on_c, 1, 50, 127
1, 158476, Note_on_c, 1, 74, 127
1, 158493, Note_off_c, 1, 72, 0
1, 158640, Note_off_c, 1, 71, 0
1, 158643, Note_off_c, 1, 50, 0
1, 158643, Note_off_c, 1, 74, 0
1, 158647, Note_on_c, 1, 67, 127
1, 158647, Note_on_c, 1, 51, 127
1, 158647, Note_on_c, 1, 72, 127
1, 158975, Note_off_c, 1, 67, 0
1, 158978, Note_off_c, 1, 51, 0
1, 158983, Note_on_c, 1, 52, 127
1, 158983, Note_on_c, 1, 79, 127
1, 159149, Note_off_c, 1, 72, 0
1, 159314, Note_off_c, 1, 52, 0
1, 159314, Note_off_c, 1, 79, 0
1, 159318, Note_on_c, 1, 53, 127
1, 159318, Note_on_c, 1, 80, 127
1, 159649, Note_off_c, 1, 53, 0
1, 159649, Note_off_c, 1, 80, 0
1, 159653, Note_on_c, 1, 54, 127
1, 159653, Note_on_c, 1, 72, 127
1, 159653, Note_on_c, 1, 63, 127
1, 159984, Note_off_c, 1, 54, 0
1, 159984, Note_off_c, 1, 72, 0
1, 159984, Note_off_c, 1, 63, 0
1, 159988, Note_on_c, 1, 55, 127
1, 159988, Note_on_c, 1, 62, 127
1, 159988, Note_on_c, 1, 71, 127
1, 160152, Note_off_c, 1, 55, 0
1, 160156, Note_on_c, 1, 56, 127
1, 160319, Note_off_c, 1, 62, 0
1, 160320, Note_off_c, 1, 56, 0
1, 160323, Note_on_c, 1, 63, 127
1, 160487, Note_off_c, 1, 63, 0
1, 160491, Note_on_c, 1, 53, 127
1, 160491, Note_on_c, 1, 65, 127
1, 160651, Note_off_c, 1, 71, 0
1, 160658, Note_off_c, 1, 53, 0
1, 160658, Note_off_c, 1, 65, 0
1, 160662, Note_on_c, 1, 51, 127
1, 160662, Note_on_c, 1, 67, 127
1, 160662, Note_on_c, 1, 72, 127
1, 160993, Note_off_c, 1, 51, 0
1, 160993, Note_off_c, 1, 67, 0
1, 160997, Note_on_c, 1, 53, 127
1, 160997, Note_on_c, 1, 69, 127
1, 161161, Note_off_c, 1, 53, 0
1, 161161, Note_off_c, 1, 69, 0
1, 161165, Note_on_c, 1, 55, 127
1, 161165, Note_on_c, 1, 71, 127
1, 161291, Note_off_c, 1, 72, 0
1, 161332, Note_off_c, 1, 55, 0
1, 161332, Note_off_c, 1, 71, 0
1, 161336, Note_on_c, 1, 56, 127
1, 161336, Note_on_c, 1, 72, 127
1, 161667, Note_off_c, 1, 56, 0
1, 161667, Note_off_c, 1, 72, 0
1, 161671, Note_on_c, 1, 74, 127
1, 161671, Note_on_c, 1, 71, 127
1, 161671, Note_on_c, 1, 53, 127
1, 161835, Note_off_c, 1, 74, 0
1, 161835, Note_off_c, 1, 71, 0
1, 161838, Note_on_c, 1, 75, 127
1, 161838, Note_on_c, 1, 72, 127
1, 162002, Note_off_c, 1, 53, 0
1, 162002, Note_off_c, 1, 75, 0
1, 162002, Note_off_c, 1, 72, 0
1, 162006, Note_on_c, 1, 50, 127
1, 162006, Note_on_c, 1, 74, 127
1, 162006, Note_on_c, 1, 77, 127
1, 162337, Note_off_c, 1, 50, 0
1, 162337, Note_off_c, 1, 74, 0
1, 162337, Note_off_c, 1, 77, 0
1, 162341, Note_on_c, 1, 75, 127
1, 162341, Note_on_c, 1, 59, 127
1, 162341, Note_on_c, 1, 67, 127
1, 162505, Note_off_c, 1, 75, 0
1, 162509, Note_on_c, 1, 74, 127
1, 162672, Note_off_c, 1, 59, 0
1, 162673, Note_off_c, 1, 74, 0
1, 162676, Note_on_c, 1, 60, 127
1, 163004, Note_off_c, 1, 67, 0
1, 163015, Note_on_c, 1, 72, 127
1, 163179, Note_off_c, 1, 72, 0
1, 163182, Note_on_c, 1, 77, 127
1, 163346, Note_off_c, 1, 77, 0
1, 163350, Note_on_c, 1, 79, 127
1, 163513, Note_off_c, 1, 60, 0
1, 163518, Note_on_c, 1, 62, 127
1, 163681, Note_off_c, 1, 79, 0
1, 163682, Note_off_c, 1, 62, 0
1, 163685, Note_on_c, 1, 60, 127
1, 163685, Note_on_c, 1, 67, 127
1, 163849, Note_off_c, 1, 60, 0
1, 163853, Note_on_c, 1, 58, 127
1, 164016, Note_off_c, 1, 67, 0
1, 164017, Note_off_c, 1, 58, 0
1, 164020, Note_on_c, 1, 57, 127
1, 164020, Note_on_c, 1, 66, 127
1, 164184, Note_off_c, 1, 57, 0
1, 164188, Note_on_c, 1, 50, 127
1, 164352, Note_off_c, 1, 50, 0
1, 164355, Note_on_c, 1, 48, 127
1, 164355, Note_on_c, 1, 74, 127
1, 164519, Note_off_c, 1, 48, 0
1, 164519, Note_off_c, 1, 74, 0
1, 164523, Note_on_c, 1, 72, 127
1, 164683, Note_off_c, 1, 66, 0
1, 164690, Note_off_c, 1, 72, 0
1, 164694, Note_on_c, 1, 51, 127
1, 164694, Note_on_c, 1, 70, 127
1, 164694, Note_on_c, 1, 67, 127
1, 164858, Note_off_c, 1, 51, 0
1, 164862, Note_on_c, 1, 50, 127
1, 165025, Note_off_c, 1, 70, 0
1, 165026, Note_off_c, 1, 50, 0
1, 165029, Note_on_c, 1, 48, 127
1, 165029, Note_on_c, 1, 72, 127
1, 165193, Note_off_c, 1, 48, 0
1, 165193, Note_off_c, 1, 72, 0
1, 165197, Note_on_c, 1, 46, 127
1, 165197, Note_on_c, 1, 74, 127
1, 165361, Note_off_c, 1, 46, 0
1, 165361, Note_off_c, 1, 74, 0
1, 165364, Note_on_c, 1, 75, 127
1, 165364, Note_on_c, 1, 45, 127
1, 165528, Note_off_c, 1, 75, 0
1, 165695, Note_off_c, 1, 45, 0
1, 165696, Note_off_c, 1, 67, 0
1, 165700, Note_on_c, 1, 72, 127
1, 165700, Note_on_c, 1, 48, 127
1, 165703, Note_on_c, 1, 69, 127
1, 165867, Note_off_c, 1, 72, 0
1, 165870, Note_off_c, 1, 69, 0
1, 165871, Note_on_c, 1, 70, 127
1, 166035, Note_off_c, 1, 48, 0
1, 166035, Note_off_c, 1, 70, 0
1, 166038, Note_on_c, 1, 50, 127
1, 166038, Note_on_c, 1, 69, 127
1, 166042, Note_on_c, 1, 72, 127
1, 166369, Note_off_c, 1, 50, 0
1, 166369, Note_off_c, 1, 69, 0
1, 166373, Note_off_c, 1, 72, 0
1, 166373, Note_on_c, 1, 70, 127
1, 166373, Note_on_c, 1, 78, 127
1, 166373, Note_on_c, 1, 38, 127
1, 166537, Note_off_c, 1, 70, 0
1, 166704, Note_off_c, 1, 78, 0
1, 166708, Note_off_c, 1, 38, 0
1, 166712, Note_on_c, 1, 79, 127
1, 166712, Note_on_c, 1, 70, 127
1, 166712, Note_on_c, 1, 43, 127
1, 166876, Note_off_c, 1, 79, 0
1, 166876, Note_off_c, 1, 70, 0
1, 166879, Note_on_c, 1, 62, 127
1, 167043, Note_off_c, 1, 43, 0
1, 167043, Note_off_c, 1, 62, 0
1, 167047, Note_on_c, 1, 55, 127
1, 167047, Note_on_c, 1, 64, 127
1, 167211, Note_off_c, 1, 55, 0
1, 167211, Note_off_c, 1, 64, 0
1, 167215, Note_on_c, 1, 57, 127
1, 167215, Note_on_c, 1, 66, 127
1, 167379, Note_off_c, 1, 57, 0
1, 167379, Note_off_c, 1, 66, 0
1, 167382, Note_on_c, 1, 58, 127
1, 167382, Note_on_c, 1, 67, 127
1, 167550, Note_on_c, 1, 74, 127
1, 167713, Note_off_c, 1, 58, 0
1, 167714, Note_off_c, 1, 74, 0
1, 167717, Note_on_c, 1, 57, 127
1, 167717, Note_on_c, 1, 72, 127
1, 167881, Note_off_c, 1, 57, 0
1, 167881, Note_off_c, 1, 72, 0
1, 167885, Note_on_c, 1, 55, 127
1, 167885, Note_on_c, 1, 70, 127
1, 168049, Note_off_c, 1, 55, 0
1, 168049, Note_off_c, 1, 70, 0
1, 168052, Note_on_c, 1, 62, 127
1, 168052, Note_on_c, 1, 69, 127
1, 168185, Note_off_c, 1, 67, 0
1, 168383, Note_off_c, 1, 62, 0
1, 168388, Note_on_c, 1, 50, 127
1, 168388, Note_on_c, 1, 65, 127
1, 168552, Note_off_c, 1, 50, 0
1, 168552, Note_off_c, 1, 65, 0
1, 168555, Note_on_c, 1, 51, 127
1, 168555, Note_on_c, 1, 63, 127
1, 168719, Note_off_c, 1, 51, 0
1, 168719, Note_off_c, 1, 63, 0
1, 168723, Note_on_c, 1, 53, 127
1, 168855, Note_off_c, 1, 69, 0
1, 169054, Note_off_c, 1, 53, 0
1, 169393, Note_on_c, 1, 39, 127
1, 169724, Note_off_c, 1, 39, 0
1, 169728, Note_on_c, 1, 60, 127
1, 169892, Note_off_c, 1, 60, 0
1, 170399, Note_on_c, 1, 68, 127
1, 170563, Note_off_c, 1, 68, 0
1, 171069, Note_on_c, 1, 46, 127
1, 171233, Note_off_c, 1, 46, 0
1, 171237, Note_on_c, 1, 48, 127
1, 171401, Note_off_c, 1, 48, 0
1, 172074, Note_on_c, 1, 36, 127
1, 172405, Note_off_c, 1, 36, 0
1, 172577, Note_on_c, 1, 59, 127
1, 172741, Note_off_c, 1, 59, 0
1, 173750, Note_on_c, 1, 43, 127
1, 173914, Note_off_c, 1, 43, 0
1, 173918, Note_on_c, 1, 45, 127
1, 174082, Note_off_c, 1, 45, 0
1, 174421, Note_on_c, 1, 64, 127
1, 174585, Note_off_c, 1, 64, 0
1, 174588, Note_on_c, 1, 66, 127
1, 174752, Note_off_c, 1, 66, 0
1, 175775, Note_on_c, 1, 61, 127
1, 176110, Note_off_c, 1, 61, 0
1, 176117, Note_on_c, 1, 66, 127
1, 176117, Note_on_c, 1, 62, 127
1, 176117, Note_on_c, 1, 50, 127
1, 176452, Note_off_c, 1, 66, 0
1, 176452, Note_off_c, 1, 62, 0
1, 176471, Note_on_c, 1, 74, 127
1, 176787, Note_off_c, 1, 50, 0
1, 176809, Note_off_c, 1, 74, 0
1, 176813, Note_on_c, 1, 75, 127
1, 177148, Note_off_c, 1, 75, 0
1, 177152, Note_on_c, 1, 67, 127
1, 177487, Note_off_c, 1, 67, 0
1, 177491, Note_on_c, 1, 66, 127
1, 177829, Note_on_c, 1, 74, 127
1, 177829, Note_on_c, 1, 62, 127
1, 177996, Note_off_c, 1, 74, 0
1, 178000, Note_on_c, 1, 72, 127
1, 178147, Note_off_c, 1, 62, 0
1, 178161, Note_off_c, 1, 66, 0
1, 178167, Note_off_c, 1, 72, 0
1, 178171, Note_on_c, 1, 63, 127
1, 178171, Note_on_c, 1, 70, 127
1, 178171, Note_on_c, 1, 67, 127
1, 178489, Note_off_c, 1, 63, 0
1, 178509, Note_off_c, 1, 70, 0
1, 178513, Note_on_c, 1, 72, 127
1, 178513, Note_on_c, 1, 55, 127
1, 178680, Note_off_c, 1, 72, 0
1, 178684, Note_on_c, 1, 74, 127
1, 178831, Note_off_c, 1, 55, 0
1, 178844, Note_off_c, 1, 67, 0
1, 178851, Note_off_c, 1, 74, 0
1, 178855, Note_on_c, 1, 75, 127
1, 178855, Note_on_c, 1, 54, 127
1, 179190, Note_off_c, 1, 75, 0
1, 179194, Note_on_c, 1, 69, 127
1, 179194, Note_on_c, 1, 74, 127
1, 179194, Note_on_c, 1, 50, 127
1, 179361, Note_off_c, 1, 69, 0
1, 179365, Note_on_c, 1, 70, 127
1, 179525, Note_off_c, 1, 54, 0
1, 179529, Note_off_c, 1, 74, 0
1, 179532, Note_off_c, 1, 50, 0
1, 179532, Note_off_c, 1, 70, 0
1, 179536, Note_on_c, 1, 72, 127
1, 179536, Note_on_c, 1, 51, 127
1, 179536, Note_on_c, 1, 55, 127
1, 179871, Note_off_c, 1, 72, 0
1, 179871, Note_off_c, 1, 51, 0
1, 179874, Note_on_c, 1, 70, 127
1, 179874, Note_on_c, 1, 75, 127
1, 179874, Note_on_c, 1, 43, 127
1, 180041, Note_off_c, 1, 70, 0
1, 180045, Note_on_c, 1, 69, 127
1, 180137, Note_off_c, 1, 55, 0
1, 180212, Note_off_c, 1, 75, 0
1, 180216, Note_off_c, 1, 43, 0
1, 180216, Note_off_c, 1, 69, 0
1, 180220, Note_on_c, 1, 74, 127
1, 180220, Note_on_c, 1, 69, 127
1, 180220, Note_on_c, 1, 42, 127
1, 180555, Note_off_c, 1, 74, 0
1, 180558, Note_on_c, 1, 57, 127
1, 180678, Note_off_c, 1, 69, 0
1, 180725, Note_off_c, 1, 57, 0
1, 180729, Note_on_c, 1, 58, 127
1, 180890, Note_off_c, 1, 42, 0
1, 180896, Note_off_c, 1, 58, 0
1, 180900, Note_on_c, 1, 60, 127
1, 180900, Note_on_c, 1, 45, 127
1, 181235, Note_off_c, 1, 60, 0
1, 181239, Note_on_c, 1, 58, 127
1, 181406, Note_off_c, 1, 58, 0
1, 181410, Note_on_c, 1, 57, 127
1, 181570, Note_off_c, 1, 45, 0
1, 181577, Note_off_c, 1, 57, 0
1, 181581, Note_on_c, 1, 38, 127
1, 181581, Note_on_c, 1, 58, 127
1, 181919, Note_on_c, 1, 66, 127
1, 181919, Note_on_c, 1, 50, 127
1, 182073, Note_off_c, 1, 38, 0
1, 182086, Note_off_c, 1, 66, 0
1, 182086, Note_off_c, 1, 50, 0
1, 182090, Note_on_c, 1, 67, 127
1, 182090, Note_on_c, 1, 48, 127
1, 182257, Note_off_c, 1, 67, 0
1, 182257, Note_off_c, 1, 48, 0
1, 182261, Note_on_c, 1, 69, 127
1, 182261, Note_on_c, 1, 46, 127
1, 182596, Note_off_c, 1, 69, 0
1, 182596, Note_off_c, 1, 46, 0
1, 182942, Note_on_c, 1, 51, 127
1, 183280, Note_off_c, 1, 58, 0
1, 183281, Note_on_c, 1, 74, 127
1, 183281, Note_on_c, 1, 59, 127
1, 183448, Note_off_c, 1, 74, 0
1, 183448, Note_off_c, 1, 59, 0
1, 183452, Note_on_c, 1, 75, 127
1, 183452, Note_on_c, 1, 57, 127
1, 183619, Note_off_c, 1, 75, 0
1, 183619, Note_off_c, 1, 57, 0
1, 183623, Note_on_c, 1, 77, 127
1, 183623, Note_on_c, 1, 55, 127
1, 183958, Note_off_c, 1, 77, 0
1, 183958, Note_off_c, 1, 55, 0
1, 184303, Note_on_c, 1, 60, 127
1, 184812, Note_off_c, 1, 51, 0
1, 185264, Note_off_c, 1, 60, 0
1, 185329, Note_on_c, 1, 72, 127
1, 185496, Note_off_c, 1, 72, 0
1, 185500, Note_on_c, 1, 70, 127
1, 185667, Note_off_c, 1, 70, 0
1, 185671, Note_on_c, 1, 42, 127
1, 185671, Note_on_c, 1, 69, 127
1, 186006, Note_off_c, 1, 42, 0
1, 186010, Note_on_c, 1, 45, 127
1, 186010, Note_on_c, 1, 74, 127
1, 186177, Note_off_c, 1, 45, 0
1, 186181, Note_on_c, 1, 43, 127
1, 186328, Note_off_c, 1, 74, 0
1, 186341, Note_off_c, 1, 69, 0
1, 186348, Note_off_c, 1, 43, 0
1, 186352, Note_on_c, 1, 75, 127
1, 186352, Note_on_c, 1, 42, 127
1, 186670, Note_off_c, 1, 75, 0
1, 186690, Note_off_c, 1, 42, 0
1, 186694, Note_on_c, 1, 75, 127
1, 186694, Note_on_c, 1, 43, 127
1, 186694, Note_on_c, 1, 67, 127
1, 186861, Note_off_c, 1, 75, 0
1, 186861, Note_off_c, 1, 43, 0
1, 186865, Note_on_c, 1, 74, 127
1, 186865, Note_on_c, 1, 45, 127
1, 187012, Note_off_c, 1, 67, 0
1, 187032, Note_off_c, 1, 74, 0
1, 187032, Note_off_c, 1, 45, 0
1, 187036, Note_on_c, 1, 72, 127
1, 187036, Note_on_c, 1, 38, 127
1, 187036, Note_on_c, 1, 66, 127
1, 187381, Note_off_c, 1, 72, 0
1, 187381, Note_off_c, 1, 38, 0
1, 187385, Note_on_c, 1, 74, 127
1, 187385, Note_on_c, 1, 50, 127
1, 187556, Note_off_c, 1, 74, 0
1, 187556, Note_off_c, 1, 50, 0
1, 187559, Note_on_c, 1, 75, 127
1, 187559, Note_on_c, 1, 48, 127
1, 187726, Note_off_c, 1, 66, 0
1, 187733, Note_off_c, 1, 75, 0
1, 187733, Note_off_c, 1, 48, 0
1, 187737, Note_on_c, 1, 74, 127
1, 187737, Note_on_c, 1, 46, 127
1, 187737, Note_on_c, 1, 67, 127
1, 188082, Note_off_c, 1, 74, 0
1, 188082, Note_off_c, 1, 46, 0
1, 188086, Note_on_c, 1, 76, 127
1, 188086, Note_on_c, 1, 48, 127
1, 188257, Note_off_c, 1, 76, 0
1, 188257, Note_off_c, 1, 48, 0
1, 188260, Note_on_c, 1, 78, 127
1, 188260, Note_on_c, 1, 50, 127
1, 188431, Note_off_c, 1, 78, 0
1, 188431, Note_off_c, 1, 50, 0
1, 188435, Note_on_c, 1, 79, 127
1, 188435, Note_on_c, 1, 51, 127
1, 188780, Note_off_c, 1, 67, 0
1, 188780, Note_off_c, 1, 79, 0
1, 188780, Note_off_c, 1, 51, 0
1, 188783, Note_on_c, 1, 78, 127
1, 188783, Note_on_c, 1, 69, 127
1, 188783, Note_on_c, 1, 48, 127
1, 188954, Note_off_c, 1, 78, 0
1, 188954, Note_off_c, 1, 69, 0
1, 188958, Note_on_c, 1, 79, 127
1, 188958, Note_on_c, 1, 70, 127
1, 189128, Note_off_c, 1, 48, 0
1, 189129, Note_off_c, 1, 79, 0
1, 189129, Note_off_c, 1, 70, 0
1, 189132, Note_on_c, 1, 72, 127
1, 189132, Note_on_c, 1, 45, 127
1, 189132, Note_on_c, 1, 81, 127
1, 189477, Note_off_c, 1, 72, 0
1, 189477, Note_off_c, 1, 45, 0
1, 189481, Note_on_c, 1, 70, 127
1, 189481, Note_on_c, 1, 54, 127
1, 189652, Note_off_c, 1, 70, 0
1, 189656, Note_on_c, 1, 69, 127
1, 189826, Note_off_c, 1, 54, 0
1, 189827, Note_off_c, 1, 69, 0
1, 189830, Note_on_c, 1, 55, 127
1, 190185, Note_off_c, 1, 81, 0
1, 190185, Note_off_c, 1, 55, 0
1, 190189, Note_on_c, 1, 74, 127
1, 190189, Note_on_c, 1, 62, 127
1, 190189, Note_on_c, 1, 53, 127
1, 190544, Note_off_c, 1, 74, 0
1, 190544, Note_off_c, 1, 62, 0
1, 190544, Note_off_c, 1, 53, 0
1, 190548, Note_on_c, 1, 79, 127
1, 190548, Note_on_c, 1, 63, 127
1, 190548, Note_on_c, 1, 51, 127
1, 190910, Note_off_c, 1, 79, 0
1, 190910, Note_off_c, 1, 63, 0
1, 190910, Note_off_c, 1, 51, 0
1, 190914, Note_on_c, 1, 74, 127
1, 190914, Note_on_c, 1, 77, 127
1, 190914, Note_on_c, 1, 71, 127
1, 190914, Note_on_c, 1, 55, 127
1, 190914, Note_on_c, 1, 50, 127
1, 191276, Note_off_c, 1, 74, 0
1, 191276, Note_off_c, 1, 77, 0
1, 191276, Note_off_c, 1, 71, 0
1, 191276, Note_off_c, 1, 55, 0
1, 191276, Note_off_c, 1, 50, 0
1, 191280, Note_on_c, 1, 72, 127
1, 191280, Note_on_c, 1, 75, 127
1, 191280, Note_on_c, 1, 48, 127
1, 191280, Note_on_c, 1, 69, 127
1, 191280, Note_on_c, 1, 54, 127
1, 191656, Note_off_c, 1, 72, 0
1, 191656, Note_off_c, 1, 75, 0
1, 191656, Note_off_c, 1, 48, 0
1, 191660, Note_on_c, 1, 74, 127
1, 191660, Note_on_c, 1, 46, 127
1, 192028, Note_off_c, 1, 69, 0
1, 192028, Note_off_c, 1, 54, 0
1, 192036, Note_off_c, 1, 74, 0
1, 192036, Note_off_c, 1, 46, 0
1, 192039, Note_on_c, 1, 72, 127
1, 192039, Note_on_c, 1, 45, 127
1, 192039, Note_on_c, 1, 62, 127
1, 192039, Note_on_c, 1, 67, 127
1, 192039, Note_on_c, 1, 55, 127
1, 192432, Note_off_c, 1, 72, 0
1, 192432, Note_off_c, 1, 45, 0
1, 192436, Note_on_c, 1, 70, 127
1, 192436, Note_on_c, 1, 43, 127
1, 192822, Note_off_c, 1, 62, 0
1, 192822, Note_off_c, 1, 67, 0
1, 192822, Note_off_c, 1, 55, 0
1, 192829, Note_off_c, 1, 70, 0
1, 192829, Note_off_c, 1, 43, 0
1, 192833, Note_on_c, 1, 60, 127
1, 192833, Note_on_c, 1, 48, 127
1, 192833, Note_on_c, 1, 63, 127
1, 192833, Note_on_c, 1, 67, 127
1, 192833, Note_on_c, 1, 69, 127
1, 193250, Note_off_c, 1, 60, 0
1, 193250, Note_off_c, 1, 48, 0
1, 193253, Note_on_c, 1, 57, 127
1, 193253, Note_on_c, 1, 45, 127
1, 193458, Note_off_c, 1, 57, 0
1, 193462, Note_on_c, 1, 58, 127
1, 193664, Note_off_c, 1, 63, 0
1, 193664, Note_off_c, 1, 67, 0
1, 193664, Note_off_c, 1, 69, 0
1, 193670, Note_off_c, 1, 45, 0
1, 193670, Note_off_c, 1, 58, 0
1, 193674, Note_on_c, 1, 60, 127
1, 193674, Note_on_c, 1, 62, 127
1, 193674, Note_on_c, 1, 69, 127
1, 193674, Note_on_c, 1, 66, 127
1, 193674, Note_on_c, 1, 50, 127
1, 194169, Note_off_c, 1, 60, 0
1, 194173, Note_on_c, 1, 58, 127
1, 194173, Note_on_c, 1, 38, 127
1, 194419, Note_off_c, 1, 58, 0
1, 194423, Note_on_c, 1, 57, 127
1, 194662, Note_off_c, 1, 62, 0
1, 194662, Note_off_c, 1, 69, 0
1, 194668, Note_off_c, 1, 38, 0
1, 194669, Note_off_c, 1, 57, 0
1, 194673, Note_on_c, 1, 43, 127
1, 194689, Note_off_c, 1, 66, 0
1, 194768, Note_on_c, 1, 55, 127
1, 194864, Note_on_c, 1, 59, 127
1, 195056, Note_on_c, 1, 67, 127
1, 198119, Note_off_c, 1, 55, 0
1, 198119, Note_off_c, 1, 59, 0
1, 198120, Note_off_c, 1, 50, 0
1, 198120, Note_off_c, 1, 43, 0
1, 198120, Note_off_c, 1, 67, 0
1, 198120, End_track
0, 0, End_of_file