0, 0, Header, 1, 1, 480
1, 0, Start_track
1, 0, Title_t, "Test"
1, 0, Tempo, 500000
1, 0, Instrument_name_t, "Church Organ"
1, 68, Note_on_c, 1, 58, 127
1, 217, Note_off_c, 1, 58, 0
1, 248, Note_on_c, 1, 58, 127
1, 248, Note_on_c, 1, 39, 127
1, 427, Note_on_c, 1, 53, 127
1, 604, Note_off_c, 1, 53, 0
1, 607, Note_on_c, 1, 55, 127
1, 771, Note_off_c, 1, 58, 0
1, 784, Note_off_c, 1, 55, 0
1, 966, Note_on_c, 1, 51, 127
1, 1504, Note_on_c, 1, 61, 127
1, 1676, Note_off_c, 1, 51, 0
1, 1681, Note_off_c, 1, 61, 0
1, 1682, Note_off_c, 1, 39, 0
1, 1684, Note_on_c, 1, 60, 127
1, 1684, Note_on_c, 1, 39, 127
1, 1863, Note_on_c, 1, 55, 127
1, 2040, Note_off_c, 1, 55, 0
1, 2043, Note_on_c, 1, 56, 127
1, 2207, Note_off_c, 1, 60, 0
1, 2220, Note_off_c, 1, 56, 0
1, 2402, Note_on_c, 1, 51, 127
1, 2940, Note_on_c, 1, 63, 127
1, 3112, Note_off_c, 1, 51, 0
1, 3117, Note_off_c, 1, 63, 0
1, 3118, Note_off_c, 1, 39, 0
1, 3120, Note_on_c, 1, 62, 127
1, 3120, Note_on_c, 1, 41, 127
1, 3299, Note_on_c, 1, 55, 127
1, 3476, Note_off_c, 1, 55, 0
1, 3479, Note_on_c, 1, 56, 127
1, 3643, Note_off_c, 1, 62, 0
1, 3656, Note_off_c, 1, 56, 0
1, 3838, Note_on_c, 1, 53, 127
1, 4377, Note_on_c, 1, 65, 127
1, 4548, Note_off_c, 1, 53, 0
1, 4554, Note_off_c, 1, 41, 0
1, 4554, Note_off_c, 1, 65, 0
1, 4556, Note_on_c, 1, 65, 127
1, 4556, Note_on_c, 1, 43, 127
1, 4733, Note_off_c, 1, 65, 0
1, 4736, Note_on_c, 1, 62, 127
1, 4913, Note_off_c, 1, 62, 0
1, 4915, Note_on_c, 1, 63, 127
1, 5095, Note_on_c, 1, 67, 127
1, 5270, Note_off_c, 1, 63, 0
1, 5272, Note_off_c, 1, 67, 0
1, 5274, Note_on_c, 1, 58, 127
1, 5274, Note_on_c, 1, 55, 127
1, 5451, Note_off_c, 1, 58, 0
1, 5990, Note_off_c, 1, 43, 0
1, 5990, Note_off_c, 1, 55, 0
1, 5992, Note_on_c, 1, 67, 127
1, 5992, Note_on_c, 1, 44, 127
1, 6169, Note_off_c, 1, 67, 0
1, 6172, Note_on_c, 1, 63, 127
1, 6349, Note_off_c, 1, 63, 0
1, 6351, Note_on_c, 1, 65, 127
1, 6531, Note_on_c, 1, 68, 127
1, 6706, Note_off_c, 1, 65, 0
1, 6708, Note_off_c, 1, 68, 0
1, 6710, Note_on_c, 1, 60, 127
1, 6710, Note_on_c, 1, 56, 127
1, 6887, Note_off_c, 1, 60, 0
1, 7426, Note_off_c, 1, 44, 0
1, 7428, Note_on_c, 1, 62, 127
1, 7428, Note_on_c, 1, 46, 127
1, 7608, Note_on_c, 1, 72, 127
1, 7785, Note_off_c, 1, 72, 0
1, 7787, Note_on_c, 1, 70, 127
1, 7951, Note_off_c, 1, 62, 0
1, 7964, Note_off_c, 1, 70, 0
1, 8144, Note_off_c, 1, 56, 0
1, 8146, Note_on_c, 1, 55, 127
1, 8862, Note_off_c, 1, 55, 0
1, 8865, Note_on_c, 1, 51, 127
1, 9581, Note_off_c, 1, 51, 0
1, 9583, Note_on_c, 1, 53, 127
1, 10299, Note_off_c, 1, 53, 0
1, 10301, Note_on_c, 1, 58, 127
1, 10301, Note_on_c, 1, 50, 127
1, 10824, Note_off_c, 1, 58, 0
1, 11017, Note_off_c, 1, 50, 0
1, 11729, Note_off_c, 1, 46, 0
1, 11737, Note_on_c, 1, 48, 127
1, 12453, Note_off_c, 1, 48, 0
1, 12455, Note_on_c, 1, 58, 127
1, 12455, Note_on_c, 1, 50, 127
1, 12455, Note_on_c, 1, 53, 127
1, 12632, Note_off_c, 1, 58, 0
1, 12634, Note_on_c, 1, 65, 127
1, 12811, Note_off_c, 1, 65, 0
1, 12814, Note_on_c, 1, 62, 127
1, 12991, Note_off_c, 1, 62, 0
1, 13171, Note_off_c, 1, 50, 0
1, 13171, Note_off_c, 1, 53, 0
1, 13173, Note_on_c, 1, 51, 127
1, 13173, Note_on_c, 1, 55, 127
1, 13353, Note_on_c, 1, 58, 127
1, 13530, Note_off_c, 1, 51, 0
1, 13530, Note_off_c, 1, 58, 0
1, 13532, Note_on_c, 1, 62, 127
1, 13532, Note_on_c, 1, 50, 127
1, 13709, Note_off_c, 1, 62, 0
1, 13712, Note_on_c, 1, 65, 127
1, 13883, Note_off_c, 1, 55, 0
1, 13889, Note_off_c, 1, 50, 0
1, 13889, Note_off_c, 1, 65, 0
1, 13891, Note_on_c, 1, 48, 127
1, 13891, Note_on_c, 1, 63, 127
1, 14071, Note_on_c, 1, 67, 127
1, 14248, Note_off_c, 1, 48, 0
1, 14248, Note_off_c, 1, 67, 0
1, 14250, Note_on_c, 1, 70, 127
1, 14250, Note_on_c, 1, 46, 127
1, 14427, Note_off_c, 1, 70, 0
1, 14430, Note_on_c, 1, 73, 127
1, 14601, Note_off_c, 1, 63, 0
1, 14607, Note_off_c, 1, 46, 0
1, 14607, Note_off_c, 1, 73, 0
1, 14609, Note_on_c, 1, 44, 127
1, 14609, Note_on_c, 1, 72, 127
1, 14789, Note_on_c, 1, 67, 127
1, 14966, Note_off_c, 1, 67, 0
1, 14968, Note_on_c, 1, 68, 127
1, 14968, Note_on_c, 1, 53, 127
1, 15145, Note_off_c, 1, 68, 0
1, 15148, Note_on_c, 1, 65, 127
1, 15319, Note_off_c, 1, 44, 0
1, 15325, Note_off_c, 1, 65, 0
1, 15327, Note_on_c, 1, 46, 127
1, 15327, Note_on_c, 1, 62, 127
1, 15506, Note_off_c, 1, 72, 0
1, 15678, Note_off_c, 1, 53, 0
1, 15686, Note_on_c, 1, 70, 127
1, 15686, Note_on_c, 1, 58, 127
1, 15863, Note_off_c, 1, 70, 0
1, 16037, Note_off_c, 1, 46, 0
1, 16037, Note_off_c, 1, 62, 0
1, 16045, Note_on_c, 1, 51, 127
1, 16396, Note_off_c, 1, 58, 0
1, 16402, Note_off_c, 1, 51, 0
1, 16404, Note_on_c, 1, 53, 127
1, 16404, Note_on_c, 1, 67, 127
1, 16584, Note_on_c, 1, 70, 127
1, 16761, Note_off_c, 1, 53, 0
1, 16761, Note_off_c, 1, 70, 0
1, 16763, Note_on_c, 1, 55, 127
1, 16763, Note_on_c, 1, 75, 127
1, 16927, Note_off_c, 1, 67, 0
1, 17120, Note_off_c, 1, 55, 0
1, 17122, Note_on_c, 1, 72, 127
1, 17122, Note_on_c, 1, 56, 127
1, 17299, Note_off_c, 1, 72, 0
1, 17302, Note_on_c, 1, 68, 127
1, 17479, Note_off_c, 1, 56, 0
1, 17479, Note_off_c, 1, 68, 0
1, 17481, Note_on_c, 1, 58, 127
1, 17481, Note_on_c, 1, 65, 127
1, 17660, Note_off_c, 1, 75, 0
1, 17838, Note_off_c, 1, 58, 0
1, 17841, Note_on_c, 1, 74, 127
1, 17841, Note_on_c, 1, 57, 127
1, 18018, Note_off_c, 1, 74, 0
1, 18191, Note_off_c, 1, 65, 0
1, 18198, Note_off_c, 1, 57, 0
1, 18200, Note_on_c, 1, 59, 127
1, 18200, Note_on_c, 1, 74, 127
1, 18379, Note_on_c, 1, 69, 127
1, 18556, Note_off_c, 1, 69, 0
1, 18557, Note_off_c, 1, 59, 0
1, 18559, Note_on_c, 1, 71, 127
1, 18559, Note_on_c, 1, 55, 127
1, 18736, Note_off_c, 1, 71, 0
1, 18738, Note_on_c, 1, 67, 127
1, 18915, Note_off_c, 1, 67, 0
1, 18916, Note_off_c, 1, 55, 0
1, 18918, Note_on_c, 1, 65, 127
1, 18918, Note_on_c, 1, 60, 127
1, 19095, Note_off_c, 1, 65, 0
1, 19097, Note_on_c, 1, 62, 127
1, 19274, Note_off_c, 1, 62, 0
1, 19275, Note_off_c, 1, 74, 0
1, 19275, Note_off_c, 1, 60, 0
1, 19277, Note_on_c, 1, 48, 127
1, 19277, Note_on_c, 1, 63, 127
1, 19456, Note_on_c, 1, 67, 127
1, 19633, Note_off_c, 1, 67, 0
1, 19634, Note_off_c, 1, 48, 0
1, 19636, Note_on_c, 1, 51, 127
1, 19636, Note_on_c, 1, 72, 127
1, 19800, Note_off_c, 1, 63, 0
1, 19993, Note_off_c, 1, 51, 0
1, 19995, Note_on_c, 1, 68, 127
1, 19995, Note_on_c, 1, 53, 127
1, 20172, Note_off_c, 1, 68, 0
1, 20174, Note_on_c, 1, 65, 127
1, 20351, Note_off_c, 1, 65, 0
1, 20352, Note_off_c, 1, 53, 0
1, 20354, Note_on_c, 1, 55, 127
1, 20354, Note_on_c, 1, 62, 127
1, 20710, Note_off_c, 1, 72, 0
1, 20711, Note_off_c, 1, 55, 0
1, 20713, Note_on_c, 1, 70, 127
1, 20890, Note_off_c, 1, 70, 0
1, 21251, Note_off_c, 1, 62, 0
1, 21610, Note_on_c, 1, 61, 127
1, 21787, Note_off_c, 1, 61, 0
1, 21790, Note_on_c, 1, 56, 127
1, 21790, Note_on_c, 1, 60, 127
1, 21969, Note_on_c, 1, 63, 127
1, 22146, Note_off_c, 1, 63, 0
1, 22147, Note_off_c, 1, 56, 0
1, 22149, Note_on_c, 1, 67, 127
1, 22149, Note_on_c, 1, 55, 127
1, 22326, Note_off_c, 1, 67, 0
1, 22329, Note_on_c, 1, 70, 127
1, 22500, Note_off_c, 1, 60, 0
1, 22506, Note_off_c, 1, 55, 0
1, 22506, Note_off_c, 1, 70, 0
1, 22508, Note_on_c, 1, 53, 127
1, 22508, Note_on_c, 1, 68, 127
1, 22688, Note_on_c, 1, 72, 127
1, 22865, Note_off_c, 1, 53, 0
1, 22865, Note_off_c, 1, 72, 0
1, 22867, Note_on_c, 1, 75, 127
1, 22867, Note_on_c, 1, 51, 127
1, 23044, Note_off_c, 1, 75, 0
1, 23047, Note_on_c, 1, 79, 127
1, 23224, Note_off_c, 1, 51, 0
1, 23224, Note_off_c, 1, 79, 0
1, 23226, Note_on_c, 1, 50, 127
1, 23226, Note_on_c, 1, 77, 127
1, 23405, Note_off_c, 1, 68, 0
1, 23406, Note_on_c, 1, 67, 127
1, 23583, Note_off_c, 1, 50, 0
1, 23583, Note_off_c, 1, 67, 0
1, 23936, Note_off_c, 1, 77, 0
1, 23944, Note_on_c, 1, 77, 127
1, 23944, Note_on_c, 1, 50, 127
1, 24124, Note_on_c, 1, 72, 127
1, 24299, Note_off_c, 1, 77, 0
1, 24301, Note_off_c, 1, 50, 0
1, 24301, Note_off_c, 1, 72, 0
1, 24303, Note_on_c, 1, 74, 127
1, 24303, Note_on_c, 1, 46, 127
1, 24483, Note_on_c, 1, 68, 127
1, 24658, Note_off_c, 1, 74, 0
1, 24660, Note_off_c, 1, 46, 0
1, 24660, Note_off_c, 1, 68, 0
1, 24662, Note_on_c, 1, 51, 127
1, 24662, Note_on_c, 1, 67, 127
1, 24842, Note_on_c, 1, 70, 127
1, 25019, Note_off_c, 1, 51, 0
1, 25019, Note_off_c, 1, 70, 0
1, 25021, Note_on_c, 1, 74, 127
1, 25021, Note_on_c, 1, 50, 127
1, 25198, Note_off_c, 1, 74, 0
1, 25201, Note_on_c, 1, 77, 127
1, 25378, Note_off_c, 1, 50, 0
1, 25378, Note_off_c, 1, 77, 0
1, 25380, Note_on_c, 1, 48, 127
1, 25380, Note_on_c, 1, 75, 127
1, 25559, Note_off_c, 1, 67, 0
1, 25560, Note_on_c, 1, 69, 127
1, 25737, Note_off_c, 1, 48, 0
1, 25737, Note_off_c, 1, 69, 0
1, 25739, Note_on_c, 1, 72, 127
1, 25739, Note_on_c, 1, 46, 127
1, 25916, Note_off_c, 1, 72, 0
1, 25919, Note_on_c, 1, 66, 127
1, 26096, Note_off_c, 1, 46, 0
1, 26096, Note_off_c, 1, 66, 0
1, 26098, Note_on_c, 1, 45, 127
1, 26098, Note_on_c, 1, 65, 127
1, 26277, Note_off_c, 1, 75, 0
1, 26455, Note_off_c, 1, 45, 0
1, 26808, Note_off_c, 1, 65, 0
1, 26817, Note_on_c, 1, 67, 127
1, 26817, Note_on_c, 1, 51, 127
1, 26996, Note_on_c, 1, 72, 127
1, 27172, Note_off_c, 1, 67, 0
1, 27174, Note_off_c, 1, 51, 0
1, 27176, Note_on_c, 1, 63, 127
1, 27176, Note_on_c, 1, 53, 127
1, 27351, Note_off_c, 1, 72, 0
1, 27355, Note_on_c, 1, 69, 127
1, 27531, Note_off_c, 1, 63, 0
1, 27532, Note_off_c, 1, 69, 0
1, 27533, Note_off_c, 1, 53, 0
1, 27535, Note_on_c, 1, 46, 127
1, 27535, Note_on_c, 1, 70, 127
1, 27714, Note_on_c, 1, 60, 127
1, 27891, Note_off_c, 1, 60, 0
1, 27894, Note_on_c, 1, 62, 127
1, 28073, Note_on_c, 1, 65, 127
1, 28250, Note_off_c, 1, 65, 0
1, 28253, Note_on_c, 1, 58, 127
1, 28604, Note_off_c, 1, 62, 0
1, 28610, Note_off_c, 1, 46, 0
1, 28784, Note_off_c, 1, 70, 0
1, 28791, Note_on_c, 1, 77, 127
1, 28964, Note_off_c, 1, 58, 0
1, 28968, Note_off_c, 1, 77, 0
1, 28971, Note_on_c, 1, 77, 127
1, 28971, Note_on_c, 1, 58, 127
1, 29150, Note_on_c, 1, 72, 127
1, 29327, Note_off_c, 1, 72, 0
1, 29330, Note_on_c, 1, 74, 127
1, 29494, Note_off_c, 1, 77, 0
1, 29507, Note_off_c, 1, 74, 0
1, 29689, Note_on_c, 1, 70, 127
1, 30227, Note_on_c, 1, 80, 127
1, 30399, Note_off_c, 1, 70, 0
1, 30404, Note_off_c, 1, 80, 0
1, 30405, Note_off_c, 1, 58, 0
1, 30407, Note_on_c, 1, 79, 127
1, 30407, Note_on_c, 1, 58, 127
1, 30586, Note_on_c, 1, 74, 127
1, 30763, Note_off_c, 1, 74, 0
1, 30766, Note_on_c, 1, 75, 127
1, 30930, Note_off_c, 1, 79, 0
1, 30943, Note_off_c, 1, 75, 0
1, 31125, Note_on_c, 1, 70, 127
1, 31664, Note_on_c, 1, 82, 127
1, 31835, Note_off_c, 1, 70, 0
1, 31841, Note_off_c, 1, 58, 0
1, 31841, Note_off_c, 1, 82, 0
1, 31843, Note_on_c, 1, 81, 127
1, 31843, Note_on_c, 1, 58, 127
1, 32023, Note_on_c, 1, 72, 127
1, 32200, Note_off_c, 1, 72, 0
1, 32202, Note_on_c, 1, 75, 127
1, 32366, Note_off_c, 1, 81, 0
1, 32379, Note_off_c, 1, 75, 0
1, 32561, Note_on_c, 1, 66, 127
1, 33100, Note_on_c, 1, 84, 127
1, 33271, Note_off_c, 1, 66, 0
1, 33277, Note_off_c, 1, 58, 0
1, 33277, Note_off_c, 1, 84, 0
1, 33279, Note_on_c, 1, 84, 127
1, 33279, Note_on_c, 1, 58, 127
1, 33456, Note_off_c, 1, 84, 0
1, 33459, Note_on_c, 1, 81, 127
1, 33636, Note_off_c, 1, 81, 0
1, 33638, Note_on_c, 1, 82, 127
1, 33818, Note_on_c, 1, 77, 127
1, 33993, Note_off_c, 1, 82, 0
1, 33995, Note_off_c, 1, 77, 0
1, 33997, Note_on_c, 1, 75, 127
1, 33997, Note_on_c, 1, 65, 127
1, 34177, Note_on_c, 1, 72, 127
1, 34352, Note_off_c, 1, 75, 0
1, 34354, Note_off_c, 1, 72, 0
1, 34356, Note_on_c, 1, 74, 127
1, 34533, Note_off_c, 1, 74, 0
1, 34707, Note_off_c, 1, 65, 0
1, 34713, Note_off_c, 1, 58, 0
1, 34715, Note_on_c, 1, 68, 127
1, 34715, Note_on_c, 1, 77, 127
1, 34715, Note_on_c, 1, 59, 127
1, 34892, Note_off_c, 1, 68, 0
1, 34895, Note_on_c, 1, 65, 127
1, 35072, Note_off_c, 1, 65, 0
1, 35074, Note_on_c, 1, 67, 127
1, 35254, Note_on_c, 1, 71, 127
1, 35425, Note_off_c, 1, 77, 0
1, 35431, Note_off_c, 1, 71, 0
1, 35433, Note_on_c, 1, 74, 127
1, 35610, Note_off_c, 1, 74, 0
1, 35793, Note_on_c, 1, 75, 127
1, 35970, Note_off_c, 1, 75, 0
1, 36149, Note_off_c, 1, 59, 0
1, 36152, Note_on_c, 1, 60, 127
1, 36326, Note_off_c, 1, 67, 0
1, 36511, Note_on_c, 1, 72, 127
1, 36870, Note_on_c, 1, 63, 127
1, 37047, Note_off_c, 1, 63, 0
1, 37227, Note_off_c, 1, 60, 0
1, 37408, Note_on_c, 1, 55, 127
1, 37576, Note_off_c, 1, 55, 0
1, 37586, Note_off_c, 1, 72, 0
1, 37588, Note_on_c, 1, 56, 127
1, 37767, Note_on_c, 1, 60, 127
1, 37947, Note_on_c, 1, 63, 127
1, 38122, Note_off_c, 1, 60, 0
1, 38126, Note_on_c, 1, 67, 127
1, 38302, Note_off_c, 1, 63, 0
1, 38303, Note_off_c, 1, 67, 0
1, 38306, Note_on_c, 1, 65, 127
1, 38485, Note_on_c, 1, 75, 127
1, 38662, Note_off_c, 1, 75, 0
1, 38665, Note_on_c, 1, 74, 127
1, 38842, Note_off_c, 1, 74, 0
1, 38844, Note_on_c, 1, 77, 127
1, 39021, Note_off_c, 1, 77, 0
1, 39022, Note_off_c, 1, 56, 0
1, 39024, Note_on_c, 1, 72, 127
1, 39024, Note_on_c, 1, 55, 127
1, 39201, Note_off_c, 1, 72, 0
1, 39203, Note_on_c, 1, 69, 127
1, 39380, Note_off_c, 1, 69, 0
1, 39383, Note_on_c, 1, 71, 127
1, 39742, Note_on_c, 1, 79, 127
1, 39914, Note_off_c, 1, 65, 0
1, 39921, Note_on_c, 1, 62, 127
1, 40098, Note_off_c, 1, 62, 0
1, 40101, Note_on_c, 1, 59, 127
1, 40265, Note_off_c, 1, 79, 0
1, 40276, Note_off_c, 1, 55, 0
1, 40278, Note_off_c, 1, 59, 0
1, 40280, Note_off_c, 1, 71, 0
1, 40281, Note_on_c, 1, 55, 127
1, 40458, Note_off_c, 1, 55, 0
1, 40460, Note_on_c, 1, 64, 127
1, 40640, Note_on_c, 1, 82, 127
1, 40817, Note_off_c, 1, 82, 0
1, 40819, Note_on_c, 1, 79, 127
1, 40819, Note_on_c, 1, 58, 127
1, 40996, Note_off_c, 1, 79, 0
1, 40999, Note_on_c, 1, 73, 127
1, 41176, Note_off_c, 1, 58, 0
1, 41176, Note_off_c, 1, 73, 0
1, 41178, Note_on_c, 1, 70, 127
1, 41178, Note_on_c, 1, 56, 127
1, 41355, Note_off_c, 1, 70, 0
1, 41535, Note_off_c, 1, 56, 0
1, 41537, Note_on_c, 1, 76, 127
1, 41537, Note_on_c, 1, 55, 127
1, 41714, Note_off_c, 1, 76, 0
1, 41717, Note_on_c, 1, 72, 127
1, 41894, Note_off_c, 1, 64, 0
1, 41894, Note_off_c, 1, 55, 0
1, 41894, Note_off_c, 1, 72, 0
1, 41896, Note_on_c, 1, 80, 127
1, 41896, Note_on_c, 1, 53, 127
1, 41896, Note_on_c, 1, 65, 127
1, 42076, Note_on_c, 1, 77, 127
1, 42251, Note_off_c, 1, 80, 0
1, 42253, Note_off_c, 1, 53, 0
1, 42253, Note_off_c, 1, 77, 0
1, 42255, Note_on_c, 1, 74, 127
1, 42255, Note_on_c, 1, 51, 127
1, 42432, Note_off_c, 1, 74, 0
1, 42435, Note_on_c, 1, 72, 127
1, 42606, Note_off_c, 1, 65, 0
1, 42612, Note_off_c, 1, 51, 0
1, 42612, Note_off_c, 1, 72, 0
1, 42614, Note_on_c, 1, 71, 127
1, 42614, Note_on_c, 1, 50, 127
1, 42794, Note_on_c, 1, 77, 127
1, 42875, Note_off_c, 1, 71, 0
1, 42971, Note_off_c, 1, 50, 0
1, 42971, Note_off_c, 1, 77, 0
1, 42973, Note_on_c, 1, 74, 127
1, 42973, Note_on_c, 1, 48, 127
1, 43150, Note_off_c, 1, 74, 0
1, 43153, Note_on_c, 1, 71, 127
1, 43330, Note_off_c, 1, 48, 0
1, 43330, Note_off_c, 1, 71, 0
1, 43332, Note_on_c, 1, 53, 127
1, 43332, Note_on_c, 1, 67, 127
1, 43512, Note_on_c, 1, 71, 127
1, 43689, Note_off_c, 1, 53, 0
1, 43689, Note_off_c, 1, 71, 0
1, 43691, Note_on_c, 1, 51, 127
1, 43691, Note_on_c, 1, 72, 127
1, 43855, Note_off_c, 1, 67, 0
1, 43868, Note_off_c, 1, 51, 0
1, 43868, Note_off_c, 1, 72, 0
1, 43871, Note_on_c, 1, 53, 127
1, 43871, Note_on_c, 1, 75, 127
1, 44048, Note_off_c, 1, 53, 0
1, 44050, Note_on_c, 1, 55, 127
1, 44050, Note_on_c, 1, 65, 127
1, 44226, Note_off_c, 1, 75, 0
1, 44230, Note_on_c, 1, 74, 127
1, 44407, Note_off_c, 1, 55, 0
1, 44407, Note_off_c, 1, 74, 0
1, 44409, Note_on_c, 1, 72, 127
1, 44409, Note_on_c, 1, 43, 127
1, 44586, Note_off_c, 1, 72, 0
1, 44589, Note_on_c, 1, 71, 127
1, 44766, Note_off_c, 1, 43, 0
1, 44766, Note_off_c, 1, 71, 0
1, 44769, Note_on_c, 1, 48, 127
1, 44947, Note_off_c, 1, 65, 0
1, 44948, Note_on_c, 1, 62, 127
1, 45125, Note_off_c, 1, 62, 0
1, 45128, Note_on_c, 1, 63, 127
1, 45307, Note_on_c, 1, 67, 127
1, 45487, Note_on_c, 1, 60, 127
1, 45664, Note_off_c, 1, 48, 0
1, 45846, Note_on_c, 1, 51, 127
1, 46023, Note_off_c, 1, 51, 0
1, 46197, Note_off_c, 1, 60, 0
1, 46203, Note_off_c, 1, 63, 0
1, 46204, Note_off_c, 1, 67, 0
1, 46205, Note_on_c, 1, 43, 127
1, 46384, Note_on_c, 1, 62, 127
1, 46561, Note_off_c, 1, 62, 0
1, 46562, Note_off_c, 1, 43, 0
1, 46564, Note_on_c, 1, 63, 127
1, 46564, Note_on_c, 1, 41, 127
1, 46741, Note_off_c, 1, 63, 0
1, 46743, Note_on_c, 1, 67, 127
1, 46920, Note_off_c, 1, 67, 0
1, 46921, Note_off_c, 1, 41, 0
1, 46923, Note_on_c, 1, 70, 127
1, 46923, Note_on_c, 1, 43, 127
1, 47102, Note_on_c, 1, 65, 127
1, 47278, Note_off_c, 1, 70, 0
1, 47279, Note_off_c, 1, 65, 0
1, 47280, Note_off_c, 1, 43, 0
1, 47282, Note_on_c, 1, 67, 127
1, 47282, Note_on_c, 1, 39, 127
1, 47459, Note_off_c, 1, 67, 0
1, 47461, Note_on_c, 1, 70, 127
1, 47638, Note_off_c, 1, 70, 0
1, 47639, Note_off_c, 1, 39, 0
1, 47641, Note_on_c, 1, 73, 127
1, 47641, Note_on_c, 1, 44, 127
1, 47820, Note_on_c, 1, 67, 127
1, 47997, Note_off_c, 1, 67, 0
1, 48000, Note_on_c, 1, 68, 127
1, 48164, Note_off_c, 1, 73, 0
1, 48179, Note_on_c, 1, 72, 127
1, 48359, Note_on_c, 1, 63, 127
1, 48501, Note_off_c, 1, 44, 0
1, 48718, Note_on_c, 1, 43, 127
1, 48882, Note_off_c, 1, 63, 0
1, 48895, Note_off_c, 1, 43, 0
1, 48897, Note_off_c, 1, 68, 0
1, 48897, Note_on_c, 1, 41, 127
1, 49074, Note_off_c, 1, 41, 0
1, 49077, Note_on_c, 1, 40, 127
1, 49254, Note_off_c, 1, 72, 0
1, 49257, Note_on_c, 1, 71, 127
1, 49434, Note_off_c, 1, 40, 0
1, 49434, Note_off_c, 1, 71, 0
1, 49436, Note_on_c, 1, 72, 127
1, 49436, Note_on_c, 1, 38, 127
1, 49613, Note_off_c, 1, 72, 0
1, 49616, Note_on_c, 1, 76, 127
1, 49793, Note_off_c, 1, 38, 0
1, 49793, Note_off_c, 1, 76, 0
1, 49795, Note_on_c, 1, 79, 127
1, 49795, Note_on_c, 1, 40, 127
1, 49975, Note_on_c, 1, 70, 127
1, 50056, Note_off_c, 1, 79, 0
1, 50152, Note_off_c, 1, 40, 0
1, 50152, Note_off_c, 1, 70, 0
1, 50154, Note_on_c, 1, 72, 127
1, 50154, Note_on_c, 1, 36, 127
1, 50334, Note_on_c, 1, 67, 127
1, 50378, Note_off_c, 1, 72, 0
1, 50511, Note_off_c, 1, 36, 0
1, 50511, Note_off_c, 1, 67, 0
1, 50513, Note_on_c, 1, 68, 127
1, 50513, Note_on_c, 1, 41, 127
1, 50693, Note_on_c, 1, 64, 127
1, 50870, Note_off_c, 1, 64, 0
1, 50872, Note_on_c, 1, 65, 127
1, 51036, Note_off_c, 1, 68, 0
1, 51231, Note_on_c, 1, 60, 127
1, 51408, Note_off_c, 1, 41, 0
1, 51411, Note_on_c, 1, 43, 127
1, 51588, Note_off_c, 1, 43, 0
1, 51754, Note_off_c, 1, 60, 0
1, 51769, Note_off_c, 1, 65, 0
1, 51770, Note_on_c, 1, 39, 127
1, 51947, Note_off_c, 1, 39, 0
1, 51949, Note_on_c, 1, 38, 127
1, 52129, Note_on_c, 1, 58, 127
1, 52306, Note_off_c, 1, 38, 0
1, 52306, Note_off_c, 1, 58, 0
1, 52308, Note_on_c, 1, 65, 127
1, 52308, Note_on_c, 1, 46, 127
1, 52485, Note_off_c, 1, 65, 0
1, 52488, Note_on_c, 1, 68, 127
1, 52665, Note_off_c, 1, 46, 0
1, 52665, Note_off_c, 1, 68, 0
1, 52667, Note_on_c, 1, 51, 127
1, 52667, Note_on_c, 1, 67, 127
1, 52847, Note_on_c, 1, 62, 127
1, 53024, Note_off_c, 1, 51, 0
1, 53024, Note_off_c, 1, 62, 0
1, 53026, Note_on_c, 1, 63, 127
1, 53026, Note_on_c, 1, 37, 127
1, 53203, Note_off_c, 1, 63, 0
1, 53206, Note_on_c, 1, 58, 127
1, 53377, Note_off_c, 1, 67, 0
1, 53383, Note_off_c, 1, 37, 0
1, 53383, Note_off_c, 1, 58, 0
1, 53385, Note_on_c, 1, 56, 127
1, 53385, Note_on_c, 1, 36, 127
1, 53562, Note_off_c, 1, 56, 0
1, 53565, Note_on_c, 1, 60, 127
1, 53742, Note_off_c, 1, 36, 0
1, 53742, Note_off_c, 1, 60, 0
1, 53745, Note_on_c, 1, 63, 127
1, 53745, Note_on_c, 1, 48, 127
1, 53922, Note_off_c, 1, 63, 0
1, 53924, Note_on_c, 1, 67, 127
1, 54101, Note_off_c, 1, 67, 0
1, 54102, Note_off_c, 1, 48, 0
1, 54104, Note_on_c, 1, 65, 127
1, 54104, Note_on_c, 1, 50, 127
1, 54283, Note_on_c, 1, 74, 127
1, 54459, Note_off_c, 1, 65, 0
1, 54460, Note_off_c, 1, 74, 0
1, 54461, Note_off_c, 1, 50, 0
1, 54463, Note_on_c, 1, 62, 127
1, 54463, Note_on_c, 1, 44, 127
1, 54644, Note_off_c, 1, 62, 0
1, 54646, Note_on_c, 1, 60, 127
1, 54827, Note_off_c, 1, 60, 0
1, 54829, Note_off_c, 1, 44, 0
1, 54831, Note_on_c, 1, 58, 127
1, 54831, Note_on_c, 1, 43, 127
1, 55016, Note_on_c, 1, 62, 127
1, 55195, Note_off_c, 1, 58, 0
1, 55197, Note_off_c, 1, 43, 0
1, 55197, Note_off_c, 1, 62, 0
1, 55201, Note_on_c, 1, 63, 127
1, 55201, Note_on_c, 1, 48, 127
1, 55386, Note_off_c, 1, 63, 0
1, 55390, Note_on_c, 1, 67, 127
1, 55575, Note_off_c, 1, 67, 0
1, 55576, Note_off_c, 1, 48, 0
1, 55581, Note_on_c, 1, 60, 127
1, 55581, Note_on_c, 1, 44, 127
1, 55772, Note_on_c, 1, 65, 127
1, 55955, Note_off_c, 1, 60, 0
1, 55956, Note_off_c, 1, 44, 0
1, 55962, Note_on_c, 1, 56, 127
1, 55962, Note_on_c, 1, 46, 127
1, 56146, Note_off_c, 1, 65, 0
1, 56157, Note_on_c, 1, 62, 127
1, 56345, Note_off_c, 1, 62, 0
1, 56347, Note_off_c, 1, 56, 0
1, 56349, Note_off_c, 1, 46, 0
1, 56353, Note_on_c, 1, 39, 127
1, 56353, Note_on_c, 1, 63, 127
1, 56550, Note_on_c, 1, 53, 127
1, 56738, Note_off_c, 1, 53, 0
1, 56746, Note_on_c, 1, 55, 127
1, 56950, Note_on_c, 1, 58, 127
1, 57224, Note_on_c, 1, 51, 127
1, 58746, Note_off_c, 1, 55, 0
1, 58750, Note_off_c, 1, 58, 0
1, 58853, Note_off_c, 1, 39, 0
1, 58953, Note_off_c, 1, 63, 0
1, 59424, Note_off_c, 1, 51, 0
1, 59903, Note_on_c, 1, 58, 127
1, 60086, Note_off_c, 1, 58, 0
1, 60143, Note_on_c, 1, 58, 127
1, 60143, Note_on_c, 1, 51, 127
1, 60460, Note_on_c, 1, 53, 127
1, 60617, Note_off_c, 1, 53, 0
1, 60621, Note_on_c, 1, 55, 127
1, 60778, Note_off_c, 1, 58, 0
1, 60780, Note_on_c, 1, 60, 127
1, 60937, Note_off_c, 1, 60, 0
1, 60938, Note_off_c, 1, 55, 0
1, 60939, Note_on_c, 1, 62, 127
1, 61069, Note_off_c, 1, 62, 0
1, 61100, Note_on_c, 1, 63, 127
1, 61257, Note_off_c, 1, 63, 0
1, 61259, Note_on_c, 1, 65, 127
1, 61414, Note_off_c, 1, 51, 0
1, 61416, Note_off_c, 1, 65, 0
1, 61418, Note_on_c, 1, 67, 127
1, 61418, Note_on_c, 1, 58, 127
1, 61548, Note_off_c, 1, 67, 0
1, 61575, Note_off_c, 1, 58, 0
1, 61579, Note_on_c, 1, 67, 127
1, 61579, Note_on_c, 1, 56, 127
1, 61736, Note_off_c, 1, 67, 0
1, 61738, Note_on_c, 1, 63, 127
1, 61895, Note_off_c, 1, 63, 0
1, 61896, Note_off_c, 1, 56, 0
1, 61897, Note_on_c, 1, 65, 127
1, 61897, Note_on_c, 1, 51, 127
1, 62027, Note_off_c, 1, 65, 0
1, 62054, Note_off_c, 1, 51, 0
1, 62057, Note_on_c, 1, 53, 127
1, 62057, Note_on_c, 1, 74, 127
1, 62374, Note_off_c, 1, 53, 0
1, 62375, Note_on_c, 1, 51, 127
1, 62532, Note_off_c, 1, 51, 0
1, 62655, Note_off_c, 1, 74, 0
1, 62695, Note_on_c, 1, 75, 127
1, 62852, Note_off_c, 1, 75, 0
1, 62854, Note_on_c, 1, 77, 127
1, 62854, Note_on_c, 1, 56, 127
1, 62984, Note_off_c, 1, 77, 0
1, 63011, Note_off_c, 1, 56, 0
1, 63015, Note_on_c, 1, 75, 127
1, 63015, Note_on_c, 1, 55, 127
1, 63172, Note_off_c, 1, 75, 0
1, 63174, Note_on_c, 1, 74, 127
1, 63331, Note_off_c, 1, 74, 0
1, 63332, Note_off_c, 1, 55, 0
1, 63333, Note_on_c, 1, 72, 127
1, 63333, Note_on_c, 1, 58, 127
1, 63463, Note_off_c, 1, 72, 0
1, 63490, Note_off_c, 1, 58, 0
1, 63494, Note_on_c, 1, 70, 127
1, 63494, Note_on_c, 1, 63, 127
1, 63651, Note_off_c, 1, 70, 0
1, 63653, Note_on_c, 1, 68, 127
1, 63811, Note_off_c, 1, 63, 0
1, 63812, Note_on_c, 1, 67, 127
1, 63812, Note_on_c, 1, 56, 127
1, 63817, Note_off_c, 1, 68, 0
1, 63942, Note_off_c, 1, 67, 0
1, 63969, Note_off_c, 1, 56, 0
1, 63972, Note_on_c, 1, 65, 127
1, 63972, Note_on_c, 1, 58, 127
1, 64129, Note_off_c, 1, 65, 0
1, 64131, Note_on_c, 1, 67, 127
1, 64289, Note_off_c, 1, 58, 0
1, 64290, Note_on_c, 1, 68, 127
1, 64290, Note_on_c, 1, 46, 127
1, 64299, Note_off_c, 1, 67, 0
1, 64420, Note_off_c, 1, 68, 0
1, 64447, Note_off_c, 1, 46, 0
1, 64451, Note_on_c, 1, 68, 127
1, 64451, Note_on_c, 1, 51, 127
1, 64608, Note_off_c, 1, 68, 0
1, 64610, Note_on_c, 1, 65, 127
1, 64767, Note_off_c, 1, 65, 0
1, 64768, Note_off_c, 1, 51, 0
1, 64769, Note_on_c, 1, 67, 127
1, 64769, Note_on_c, 1, 46, 127
1, 64899, Note_off_c, 1, 67, 0
1, 64926, Note_off_c, 1, 46, 0
1, 64930, Note_on_c, 1, 63, 127
1, 64930, Note_on_c, 1, 43, 127
1, 65087, Note_off_c, 1, 63, 0
1, 65089, Note_on_c, 1, 67, 127
1, 65246, Note_off_c, 1, 67, 0
1, 65247, Note_off_c, 1, 43, 0
1, 65248, Note_on_c, 1, 70, 127
1, 65248, Note_on_c, 1, 39, 127
1, 65378, Note_off_c, 1, 70, 0
1, 65405, Note_off_c, 1, 39, 0
1, 65409, Note_on_c, 1, 75, 127
1, 65409, Note_on_c, 1, 43, 127
1, 65566, Note_off_c, 1, 75, 0
1, 65567, Note_on_c, 1, 79, 127
1, 65724, Note_off_c, 1, 79, 0
1, 65726, Note_off_c, 1, 43, 0
1, 65726, Note_on_c, 1, 77, 127
1, 65726, Note_on_c, 1, 46, 127
1, 65856, Note_off_c, 1, 77, 0
1, 65883, Note_off_c, 1, 46, 0
1, 65887, Note_on_c, 1, 51, 127
1, 65887, Note_on_c, 1, 79, 127
1, 66044, Note_off_c, 1, 51, 0
1, 66046, Note_on_c, 1, 50, 127
1, 66203, Note_off_c, 1, 50, 0
1, 66205, Note_on_c, 1, 48, 127
1, 66362, Note_off_c, 1, 48, 0
1, 66366, Note_on_c, 1, 47, 127
1, 66522, Note_off_c, 1, 79, 0
1, 66525, Note_on_c, 1, 80, 127
1, 66682, Note_off_c, 1, 80, 0
1, 66683, Note_off_c, 1, 47, 0
1, 66684, Note_on_c, 1, 79, 127
1, 66684, Note_on_c, 1, 50, 127
1, 66814, Note_off_c, 1, 79, 0
1, 66841, Note_off_c, 1, 50, 0
1, 66845, Note_on_c, 1, 77, 127
1, 66845, Note_on_c, 1, 43, 127
1, 67002, Note_off_c, 1, 77, 0
1, 67004, Note_on_c, 1, 75, 127
1, 67161, Note_off_c, 1, 75, 0
1, 67162, Note_off_c, 1, 43, 0
1, 67163, Note_on_c, 1, 74, 127
1, 67163, Note_on_c, 1, 47, 127
1, 67293, Note_off_c, 1, 74, 0
1, 67320, Note_off_c, 1, 47, 0
1, 67323, Note_on_c, 1, 75, 127
1, 67323, Note_on_c, 1, 48, 127
1, 67480, Note_off_c, 1, 75, 0
1, 67482, Note_on_c, 1, 72, 127
1, 67639, Note_off_c, 1, 72, 0
1, 67640, Note_off_c, 1, 48, 0
1, 67641, Note_on_c, 1, 74, 127
1, 67641, Note_on_c, 1, 43, 127
1, 67771, Note_off_c, 1, 74, 0
1, 67798, Note_off_c, 1, 43, 0
1, 67802, Note_on_c, 1, 75, 127
1, 67802, Note_on_c, 1, 36, 127
1, 67959, Note_off_c, 1, 75, 0
1, 67961, Note_on_c, 1, 77, 127
1, 68118, Note_off_c, 1, 77, 0
1, 68119, Note_off_c, 1, 36, 0
1, 68120, Note_on_c, 1, 79, 127
1, 68120, Note_on_c, 1, 48, 127
1, 68250, Note_off_c, 1, 79, 0
1, 68277, Note_off_c, 1, 48, 0
1, 68281, Note_on_c, 1, 70, 127
1, 68281, Note_on_c, 1, 50, 127
1, 68438, Note_off_c, 1, 70, 0
1, 68440, Note_on_c, 1, 67, 127
1, 68597, Note_off_c, 1, 67, 0
1, 68598, Note_off_c, 1, 50, 0
1, 68599, Note_on_c, 1, 69, 127
1, 68599, Note_on_c, 1, 51, 127
1, 68729, Note_off_c, 1, 69, 0
1, 68756, Note_off_c, 1, 51, 0
1, 68760, Note_on_c, 1, 50, 127
1, 68760, Note_on_c, 1, 77, 127
1, 68917, Note_off_c, 1, 50, 0
1, 68918, Note_on_c, 1, 48, 127
1, 69075, Note_off_c, 1, 48, 0
1, 69077, Note_on_c, 1, 46, 127
1, 69234, Note_off_c, 1, 46, 0
1, 69238, Note_on_c, 1, 45, 127
1, 69395, Note_off_c, 1, 77, 0
1, 69397, Note_on_c, 1, 79, 127
1, 69554, Note_off_c, 1, 79, 0
1, 69555, Note_off_c, 1, 45, 0
1, 69556, Note_on_c, 1, 77, 127
1, 69556, Note_on_c, 1, 48, 127
1, 69686, Note_off_c, 1, 77, 0
1, 69713, Note_off_c, 1, 48, 0
1, 69717, Note_on_c, 1, 75, 127
1, 69717, Note_on_c, 1, 41, 127
1, 69874, Note_off_c, 1, 75, 0
1, 69876, Note_on_c, 1, 74, 127
1, 70033, Note_off_c, 1, 74, 0
1, 70034, Note_off_c, 1, 41, 0
1, 70035, Note_on_c, 1, 72, 127
1, 70035, Note_on_c, 1, 45, 127
1, 70165, Note_off_c, 1, 72, 0
1, 70192, Note_off_c, 1, 45, 0
1, 70196, Note_on_c, 1, 74, 127
1, 70196, Note_on_c, 1, 46, 127
1, 70353, Note_off_c, 1, 74, 0
1, 70355, Note_on_c, 1, 70, 127
1, 70512, Note_off_c, 1, 70, 0
1, 70514, Note_on_c, 1, 72, 127
1, 70644, Note_off_c, 1, 72, 0
1, 70833, Note_on_c, 1, 75, 127
1, 70906, Note_off_c, 1, 46, 0
1, 70990, Note_off_c, 1, 75, 0
1, 70992, Note_on_c, 1, 77, 127
1, 70992, Note_on_c, 1, 50, 127
1, 71122, Note_off_c, 1, 77, 0
1, 71149, Note_off_c, 1, 50, 0
1, 71153, Note_on_c, 1, 68, 127
1, 71153, Note_on_c, 1, 53, 127
1, 71310, Note_off_c, 1, 68, 0
1, 71312, Note_on_c, 1, 65, 127
1, 71469, Note_off_c, 1, 65, 0
1, 71470, Note_off_c, 1, 53, 0
1, 71471, Note_on_c, 1, 67, 127
1, 71471, Note_on_c, 1, 58, 127
1, 71601, Note_off_c, 1, 67, 0
1, 71628, Note_off_c, 1, 58, 0
1, 71632, Note_on_c, 1, 67, 127
1, 71632, Note_on_c, 1, 51, 127
1, 71789, Note_off_c, 1, 67, 0
1, 71791, Note_on_c, 1, 70, 127
1, 71948, Note_off_c, 1, 70, 0
1, 71950, Note_on_c, 1, 69, 127
1, 72080, Note_off_c, 1, 69, 0
1, 72270, Note_on_c, 1, 72, 127
1, 72342, Note_off_c, 1, 51, 0
1, 72427, Note_off_c, 1, 72, 0
1, 72428, Note_on_c, 1, 74, 127
1, 72428, Note_on_c, 1, 53, 127
1, 72558, Note_off_c, 1, 74, 0
1, 72585, Note_off_c, 1, 53, 0
1, 72589, Note_on_c, 1, 72, 127
1, 72589, Note_on_c, 1, 51, 127
1, 72746, Note_off_c, 1, 72, 0
1, 72748, Note_on_c, 1, 69, 127
1, 72905, Note_off_c, 1, 69, 0
1, 72906, Note_off_c, 1, 51, 0
1, 72907, Note_on_c, 1, 70, 127
1, 72907, Note_on_c, 1, 50, 127
1, 73037, Note_off_c, 1, 70, 0
1, 73064, Note_off_c, 1, 50, 0
1, 73068, Note_on_c, 1, 75, 127
1, 73068, Note_on_c, 1, 48, 127
1, 73225, Note_off_c, 1, 75, 0
1, 73227, Note_on_c, 1, 72, 127
1, 73384, Note_off_c, 1, 72, 0
1, 73386, Note_on_c, 1, 74, 127
1, 73516, Note_off_c, 1, 74, 0
1, 73706, Note_on_c, 1, 77, 127
1, 73778, Note_off_c, 1, 48, 0
1, 73863, Note_off_c, 1, 77, 0
1, 73865, Note_on_c, 1, 79, 127
1, 73865, Note_on_c, 1, 46, 127
1, 73995, Note_off_c, 1, 79, 0
1, 74022, Note_off_c, 1, 46, 0
1, 74025, Note_on_c, 1, 77, 127
1, 74025, Note_on_c, 1, 45, 127
1, 74182, Note_off_c, 1, 77, 0
1, 74184, Note_on_c, 1, 74, 127
1, 74341, Note_off_c, 1, 74, 0
1, 74342, Note_off_c, 1, 45, 0
1, 74343, Note_on_c, 1, 75, 127
1, 74343, Note_on_c, 1, 43, 127
1, 74473, Note_off_c, 1, 75, 0
1, 74500, Note_off_c, 1, 43, 0
1, 74504, Note_on_c, 1, 81, 127
1, 74504, Note_on_c, 1, 41, 127
1, 74661, Note_off_c, 1, 81, 0
1, 74663, Note_on_c, 1, 77, 127
1, 74820, Note_off_c, 1, 77, 0
1, 74821, Note_off_c, 1, 41, 0
1, 74822, Note_on_c, 1, 79, 127
1, 74822, Note_on_c, 1, 48, 127
1, 74952, Note_off_c, 1, 79, 0
1, 74979, Note_off_c, 1, 48, 0
1, 74983, Note_on_c, 1, 81, 127
1, 74983, Note_on_c, 1, 53, 127
1, 75140, Note_off_c, 1, 81, 0
1, 75142, Note_on_c, 1, 82, 127
1, 75299, Note_off_c, 1, 82, 0
1, 75300, Note_off_c, 1, 53, 0
1, 75301, Note_on_c, 1, 84, 127
1, 75301, Note_on_c, 1, 55, 127
1, 75431, Note_off_c, 1, 84, 0
1, 75458, Note_off_c, 1, 55, 0
1, 75462, Note_on_c, 1, 75, 127
1, 75462, Note_on_c, 1, 57, 127
1, 75619, Note_off_c, 1, 75, 0
1, 75621, Note_on_c, 1, 72, 127
1, 75778, Note_off_c, 1, 72, 0
1, 75779, Note_off_c, 1, 57, 0
1, 75780, Note_on_c, 1, 74, 127
1, 75780, Note_on_c, 1, 53, 127
1, 75910, Note_off_c, 1, 74, 0
1, 75937, Note_off_c, 1, 53, 0
1, 75940, Note_on_c, 1, 74, 127
1, 75940, Note_on_c, 1, 58, 127
1, 76097, Note_off_c, 1, 74, 0
1, 76099, Note_on_c, 1, 69, 127
1, 76256, Note_off_c, 1, 69, 0
1, 76257, Note_off_c, 1, 58, 0
1, 76258, Note_on_c, 1, 70, 127
1, 76258, Note_on_c, 1, 55, 127
1, 76388, Note_off_c, 1, 70, 0
1, 76415, Note_off_c, 1, 55, 0
1, 76419, Note_on_c, 1, 70, 127
1, 76419, Note_on_c, 1, 51, 127
1, 76576, Note_off_c, 1, 70, 0
1, 76578, Note_on_c, 1, 67, 127
1, 76735, Note_off_c, 1, 67, 0
1, 76736, Note_off_c, 1, 51, 0
1, 76737, Note_on_c, 1, 69, 127
1, 76737, Note_on_c, 1, 48, 127
1, 76867, Note_off_c, 1, 69, 0
1, 76894, Note_off_c, 1, 48, 0
1, 76898, Note_on_c, 1, 70, 127
1, 76898, Note_on_c, 1, 53, 127
1, 76955, Note_off_c, 1, 70, 0
1, 76958, Note_on_c, 1, 69, 127
1, 77015, Note_off_c, 1, 69, 0
1, 77215, Note_off_c, 1, 53, 0
1, 77216, Note_on_c, 1, 41, 127
1, 77373, Note_off_c, 1, 41, 0
1, 77377, Note_on_c, 1, 46, 127
1, 77377, Note_on_c, 1, 70, 127
1, 77534, Note_off_c, 1, 46, 0
1, 77535, Note_on_c, 1, 50, 127
1, 77692, Note_off_c, 1, 50, 0
1, 77694, Note_on_c, 1, 53, 127
1, 77851, Note_off_c, 1, 53, 0
1, 77855, Note_on_c, 1, 58, 127
1, 78012, Note_off_c, 1, 70, 0
1, 78014, Note_on_c, 1, 62, 127
1, 78171, Note_off_c, 1, 62, 0
1, 78172, Note_off_c, 1, 58, 0
1, 78173, Note_on_c, 1, 63, 127
1, 78173, Note_on_c, 1, 48, 127
1, 78303, Note_off_c, 1, 63, 0
1, 78330, Note_off_c, 1, 48, 0
1, 78334, Note_on_c, 1, 65, 127
1, 78334, Note_on_c, 1, 50, 127
1, 78491, Note_off_c, 1, 65, 0
1, 78493, Note_on_c, 1, 67, 127
1, 78650, Note_off_c, 1, 67, 0
1, 78651, Note_off_c, 1, 50, 0
1, 78652, Note_on_c, 1, 68, 127
1, 78652, Note_on_c, 1, 46, 127
1, 78782, Note_off_c, 1, 68, 0
1, 78809, Note_off_c, 1, 46, 0
1, 78813, Note_on_c, 1, 51, 127
1, 78813, Note_on_c, 1, 67, 127
1, 78972, Note_on_c, 1, 62, 127
1, 79129, Note_off_c, 1, 62, 0
1, 79130, Note_off_c, 1, 51, 0
1, 79131, Note_on_c, 1, 63, 127
1, 79131, Note_on_c, 1, 48, 127
1, 79261, Note_off_c, 1, 63, 0
1, 79288, Note_off_c, 1, 48, 0
1, 79291, Note_on_c, 1, 60, 127
1, 79291, Note_on_c, 1, 53, 127
1, 79448, Note_off_c, 1, 67, 0
1, 79448, Note_off_c, 1, 60, 0
1, 79450, Note_on_c, 1, 70, 127
1, 79607, Note_off_c, 1, 70, 0
1, 79608, Note_off_c, 1, 53, 0
1, 79609, Note_on_c, 1, 69, 127
1, 79609, Note_on_c, 1, 50, 127
1, 79739, Note_off_c, 1, 69, 0
1, 79766, Note_off_c, 1, 50, 0
1, 79770, Note_on_c, 1, 55, 127
1, 79770, Note_on_c, 1, 70, 127
1, 79929, Note_on_c, 1, 65, 127
1, 80086, Note_off_c, 1, 65, 0
1, 80087, Note_off_c, 1, 55, 0
1, 80088, Note_on_c, 1, 67, 127
1, 80088, Note_on_c, 1, 51, 127
1, 80218, Note_off_c, 1, 67, 0
1, 80245, Note_off_c, 1, 51, 0
1, 80249, Note_on_c, 1, 63, 127
1, 80249, Note_on_c, 1, 57, 127
1, 80405, Note_off_c, 1, 70, 0
1, 80406, Note_off_c, 1, 63, 0
1, 80408, Note_on_c, 1, 74, 127
1, 80565, Note_off_c, 1, 74, 0
1, 80566, Note_off_c, 1, 57, 0
1, 80567, Note_on_c, 1, 72, 127
1, 80567, Note_on_c, 1, 53, 127
1, 80697, Note_off_c, 1, 72, 0
1, 80724, Note_off_c, 1, 53, 0
1, 80728, Note_on_c, 1, 74, 127
1, 80728, Note_on_c, 1, 58, 127
1, 80885, Note_off_c, 1, 74, 0
1, 80886, Note_on_c, 1, 75, 127
1, 81043, Note_off_c, 1, 75, 0
1, 81045, Note_off_c, 1, 58, 0
1, 81045, Note_on_c, 1, 77, 127
1, 81045, Note_on_c, 1, 51, 127
1, 81175, Note_off_c, 1, 77, 0
1, 81202, Note_off_c, 1, 51, 0
1, 81206, Note_on_c, 1, 65, 127
1, 81206, Note_on_c, 1, 53, 127
1, 81363, Note_off_c, 1, 65, 0
1, 81365, Note_on_c, 1, 70, 127
1, 81522, Note_off_c, 1, 70, 0
1, 81523, Note_off_c, 1, 53, 0
1, 81524, Note_on_c, 1, 69, 127
1, 81524, Note_on_c, 1, 41, 127
1, 81654, Note_off_c, 1, 69, 0
1, 81681, Note_off_c, 1, 41, 0
1, 81685, Note_on_c, 1, 70, 127
1, 81685, Note_on_c, 1, 46, 127
1, 81844, Note_on_c, 1, 65, 127
1, 82001, Note_off_c, 1, 65, 0
1, 82003, Note_on_c, 1, 62, 127
1, 82133, Note_off_c, 1, 62, 0
1, 82161, Note_off_c, 1, 70, 0
1, 82164, Note_on_c, 1, 58, 127
1, 82320, Note_off_c, 1, 46, 0
1, 82323, Note_on_c, 1, 53, 127
1, 82480, Note_off_c, 1, 53, 0
1, 82482, Note_on_c, 1, 50, 127
1, 82639, Note_off_c, 1, 50, 0
1, 82960, Note_off_c, 1, 58, 0
1, 82960, Note_on_c, 1, 74, 127
1, 83117, Note_off_c, 1, 74, 0
1, 83121, Note_on_c, 1, 46, 127
1, 83121, Note_on_c, 1, 74, 127
1, 83278, Note_off_c, 1, 46, 0
1, 83280, Note_on_c, 1, 50, 127
1, 83437, Note_off_c, 1, 50, 0
1, 83439, Note_on_c, 1, 53, 127
1, 83596, Note_off_c, 1, 53, 0
1, 83600, Note_on_c, 1, 58, 127
1, 83756, Note_off_c, 1, 74, 0
1, 83757, Note_off_c, 1, 58, 0
1, 83759, Note_on_c, 1, 62, 127
1, 83759, Note_on_c, 1, 77, 127
1, 83916, Note_off_c, 1, 62, 0
1, 83916, Note_off_c, 1, 77, 0
1, 83918, Note_on_c, 1, 75, 127
1, 83918, Note_on_c, 1, 65, 127
1, 84048, Note_off_c, 1, 75, 0
1, 84075, Note_off_c, 1, 65, 0
1, 84079, Note_on_c, 1, 70, 127
1, 84079, Note_on_c, 1, 74, 127
1, 84236, Note_off_c, 1, 70, 0
1, 84236, Note_off_c, 1, 74, 0
1, 84238, Note_on_c, 1, 68, 127
1, 84238, Note_on_c, 1, 72, 127
1, 84395, Note_off_c, 1, 68, 0
1, 84395, Note_off_c, 1, 72, 0
1, 84396, Note_on_c, 1, 70, 127
1, 84396, Note_on_c, 1, 67, 127
1, 84526, Note_off_c, 1, 70, 0
1, 84553, Note_off_c, 1, 67, 0
1, 84557, Note_on_c, 1, 80, 127
1, 84557, Note_on_c, 1, 65, 127
1, 84714, Note_off_c, 1, 80, 0
1, 84716, Note_on_c, 1, 77, 127
1, 84873, Note_off_c, 1, 77, 0
1, 84875, Note_on_c, 1, 79, 127
1, 85005, Note_off_c, 1, 79, 0
1, 85036, Note_on_c, 1, 71, 127
1, 85192, Note_off_c, 1, 65, 0
1, 85195, Note_on_c, 1, 67, 127
1, 85352, Note_off_c, 1, 67, 0
1, 85354, Note_on_c, 1, 68, 127
1, 85484, Note_off_c, 1, 68, 0
1, 85671, Note_off_c, 1, 71, 0
1, 85674, Note_on_c, 1, 72, 127
1, 85831, Note_off_c, 1, 72, 0
1, 85833, Note_on_c, 1, 74, 127
1, 85833, Note_on_c, 1, 65, 127
1, 85963, Note_off_c, 1, 74, 0
1, 85990, Note_off_c, 1, 65, 0
1, 85993, Note_on_c, 1, 72, 127
1, 85993, Note_on_c, 1, 63, 127
1, 86150, Note_off_c, 1, 72, 0
1, 86152, Note_on_c, 1, 70, 127
1, 86309, Note_off_c, 1, 70, 0
1, 86310, Note_off_c, 1, 63, 0
1, 86311, Note_on_c, 1, 68, 127
1, 86311, Note_on_c, 1, 60, 127
1, 86441, Note_off_c, 1, 68, 0
1, 86468, Note_off_c, 1, 60, 0
1, 86472, Note_on_c, 1, 67, 127
1, 86472, Note_on_c, 1, 56, 127
1, 86629, Note_off_c, 1, 67, 0
1, 86631, Note_on_c, 1, 65, 127
1, 86788, Note_off_c, 1, 65, 0
1, 86789, Note_off_c, 1, 56, 0
1, 86790, Note_on_c, 1, 63, 127
1, 86790, Note_on_c, 1, 53, 127
1, 86920, Note_off_c, 1, 63, 0
1, 86947, Note_off_c, 1, 53, 0
1, 86951, Note_on_c, 1, 62, 127
1, 86951, Note_on_c, 1, 55, 127
1, 87108, Note_off_c, 1, 62, 0
1, 87110, Note_on_c, 1, 63, 127
1, 87267, Note_off_c, 1, 63, 0
1, 87268, Note_off_c, 1, 55, 0
1, 87269, Note_on_c, 1, 65, 127
1, 87269, Note_on_c, 1, 43, 127
1, 87399, Note_off_c, 1, 65, 0
1, 87426, Note_off_c, 1, 43, 0
1, 87430, Note_on_c, 1, 65, 127
1, 87430, Note_on_c, 1, 48, 127
1, 87587, Note_off_c, 1, 65, 0
1, 87589, Note_on_c, 1, 62, 127
1, 87746, Note_off_c, 1, 62, 0
1, 87747, Note_off_c, 1, 48, 0
1, 87748, Note_on_c, 1, 63, 127
1, 87748, Note_on_c, 1, 43, 127
1, 87878, Note_off_c, 1, 63, 0
1, 87905, Note_off_c, 1, 43, 0
1, 87908, Note_on_c, 1, 60, 127
1, 87908, Note_on_c, 1, 39, 127
1, 88065, Note_off_c, 1, 60, 0
1, 88067, Note_on_c, 1, 63, 127
1, 88224, Note_off_c, 1, 63, 0
1, 88225, Note_off_c, 1, 39, 0
1, 88226, Note_on_c, 1, 67, 127
1, 88226, Note_on_c, 1, 36, 127
1, 88356, Note_off_c, 1, 67, 0
1, 88383, Note_off_c, 1, 36, 0
1, 88387, Note_on_c, 1, 72, 127
1, 88387, Note_on_c, 1, 39, 127
1, 88544, Note_off_c, 1, 72, 0
1, 88546, Note_on_c, 1, 75, 127
1, 88703, Note_off_c, 1, 75, 0
1, 88704, Note_off_c, 1, 39, 0
1, 88705, Note_on_c, 1, 74, 127
1, 88705, Note_on_c, 1, 43, 127
1, 88835, Note_off_c, 1, 74, 0
1, 88862, Note_off_c, 1, 43, 0
1, 88866, Note_on_c, 1, 48, 127
1, 88866, Note_on_c, 1, 75, 127
1, 89023, Note_off_c, 1, 48, 0
1, 89025, Note_on_c, 1, 46, 127
1, 89182, Note_off_c, 1, 46, 0
1, 89184, Note_on_c, 1, 44, 127
1, 89341, Note_off_c, 1, 44, 0
1, 89345, Note_on_c, 1, 43, 127
1, 89501, Note_off_c, 1, 75, 0
1, 89503, Note_on_c, 1, 77, 127
1, 89660, Note_off_c, 1, 77, 0
1, 89662, Note_off_c, 1, 43, 0
1, 89823, Note_on_c, 1, 73, 127
1, 89823, Note_on_c, 1, 39, 127
1, 89980, Note_off_c, 1, 73, 0
1, 89982, Note_on_c, 1, 72, 127
1, 90139, Note_off_c, 1, 72, 0
1, 90140, Note_off_c, 1, 39, 0
1, 90141, Note_on_c, 1, 70, 127
1, 90141, Note_on_c, 1, 43, 127
1, 90271, Note_off_c, 1, 70, 0
1, 90298, Note_off_c, 1, 43, 0
1, 90302, Note_on_c, 1, 72, 127
1, 90302, Note_on_c, 1, 44, 127
1, 90459, Note_off_c, 1, 72, 0
1, 90461, Note_on_c, 1, 68, 127
1, 90618, Note_off_c, 1, 68, 0
1, 90620, Note_on_c, 1, 70, 127
1, 90750, Note_off_c, 1, 70, 0
1, 90900, Note_off_c, 1, 44, 0
1, 90940, Note_on_c, 1, 46, 127
1, 90940, Note_on_c, 1, 67, 127
1, 91097, Note_off_c, 1, 46, 0
1, 91097, Note_off_c, 1, 67, 0
1, 91099, Note_on_c, 1, 68, 127
1, 91099, Note_on_c, 1, 48, 127
1, 91229, Note_off_c, 1, 68, 0
1, 91256, Note_off_c, 1, 48, 0
1, 91259, Note_on_c, 1, 64, 127
1, 91259, Note_on_c, 1, 46, 127
1, 91416, Note_off_c, 1, 64, 0
1, 91418, Note_on_c, 1, 65, 127
1, 91575, Note_off_c, 1, 65, 0
1, 91576, Note_off_c, 1, 46, 0
1, 91577, Note_on_c, 1, 60, 127
1, 91577, Note_on_c, 1, 44, 127
1, 91707, Note_off_c, 1, 60, 0
1, 91734, Note_off_c, 1, 44, 0
1, 91738, Note_on_c, 1, 61, 127
1, 91738, Note_on_c, 1, 43, 127
1, 91895, Note_off_c, 1, 61, 0
1, 91897, Note_on_c, 1, 64, 127
1, 92054, Note_off_c, 1, 64, 0
1, 92055, Note_off_c, 1, 43, 0
1, 92056, Note_on_c, 1, 67, 127
1, 92056, Note_on_c, 1, 41, 127
1, 92186, Note_off_c, 1, 67, 0
1, 92213, Note_off_c, 1, 41, 0
1, 92217, Note_on_c, 1, 40, 127
1, 92217, Note_on_c, 1, 70, 127
1, 92374, Note_off_c, 1, 40, 0
1, 92374, Note_off_c, 1, 70, 0
1, 92376, Note_on_c, 1, 41, 127
1, 92376, Note_on_c, 1, 68, 127
1, 92533, Note_off_c, 1, 41, 0
1, 92533, Note_off_c, 1, 68, 0
1, 92535, Note_on_c, 1, 67, 127
1, 92535, Note_on_c, 1, 43, 127
1, 92665, Note_off_c, 1, 67, 0
1, 92692, Note_off_c, 1, 43, 0
1, 92696, Note_on_c, 1, 36, 127
1, 92696, Note_on_c, 1, 73, 127
1, 92853, Note_off_c, 1, 36, 0
1, 92853, Note_off_c, 1, 73, 0
1, 92854, Note_on_c, 1, 38, 127
1, 92854, Note_on_c, 1, 72, 127
1, 93011, Note_off_c, 1, 38, 0
1, 93011, Note_off_c, 1, 72, 0
1, 93013, Note_on_c, 1, 70, 127
1, 93013, Note_on_c, 1, 40, 127
1, 93143, Note_off_c, 1, 70, 0
1, 93170, Note_off_c, 1, 40, 0
1, 93174, Note_on_c, 1, 68, 127
1, 93174, Note_on_c, 1, 41, 127
1, 93331, Note_off_c, 1, 68, 0
1, 93333, Note_on_c, 1, 65, 127
1, 93490, Note_off_c, 1, 65, 0
1, 93492, Note_on_c, 1, 67, 127
1, 93622, Note_off_c, 1, 67, 0
1, 93809, Note_off_c, 1, 41, 0
1, 93812, Note_on_c, 1, 70, 127
1, 93969, Note_off_c, 1, 70, 0
1, 93971, Note_on_c, 1, 72, 127
1, 93971, Note_on_c, 1, 53, 127
1, 94101, Note_off_c, 1, 72, 0
1, 94128, Note_off_c, 1, 53, 0
1, 94132, Note_on_c, 1, 73, 127
1, 94132, Note_on_c, 1, 45, 127
1, 94289, Note_off_c, 1, 73, 0
1, 94291, Note_on_c, 1, 75, 127
1, 94448, Note_off_c, 1, 75, 0
1, 94449, Note_off_c, 1, 45, 0
1, 94450, Note_on_c, 1, 72, 127
1, 94450, Note_on_c, 1, 53, 127
1, 94580, Note_off_c, 1, 72, 0
1, 94607, Note_off_c, 1, 53, 0
1, 94610, Note_on_c, 1, 73, 127
1, 94610, Note_on_c, 1, 46, 127
1, 94767, Note_off_c, 1, 73, 0
1, 94769, Note_on_c, 1, 77, 127
1, 94926, Note_off_c, 1, 77, 0
1, 94927, Note_off_c, 1, 46, 0
1, 94928, Note_on_c, 1, 76, 127
1, 94928, Note_on_c, 1, 48, 127
1, 95058, Note_off_c, 1, 76, 0
1, 95085, Note_off_c, 1, 48, 0
1, 95089, Note_on_c, 1, 77, 127
1, 95089, Note_on_c, 1, 49, 127
1, 95246, Note_off_c, 1, 77, 0
1, 95248, Note_on_c, 1, 79, 127
1, 95405, Note_off_c, 1, 79, 0
1, 95406, Note_off_c, 1, 49, 0
1, 95407, Note_on_c, 1, 80, 127
1, 95407, Note_on_c, 1, 48, 127
1, 95537, Note_off_c, 1, 80, 0
1, 95564, Note_off_c, 1, 48, 0
1, 95568, Note_on_c, 1, 79, 127
1, 95568, Note_on_c, 1, 46, 127
1, 95725, Note_off_c, 1, 79, 0
1, 95727, Note_on_c, 1, 76, 127
1, 95884, Note_off_c, 1, 76, 0
1, 95885, Note_off_c, 1, 46, 0
1, 95886, Note_on_c, 1, 77, 127
1, 95886, Note_on_c, 1, 44, 127
1, 96016, Note_off_c, 1, 77, 0
1, 96043, Note_off_c, 1, 44, 0
1, 96047, Note_on_c, 1, 82, 127
1, 96047, Note_on_c, 1, 43, 127
1, 96204, Note_off_c, 1, 82, 0
1, 96206, Note_on_c, 1, 79, 127
1, 96346, Note_off_c, 1, 43, 0
1, 96363, Note_off_c, 1, 79, 0
1, 96364, Note_on_c, 1, 77, 127
1, 96364, Note_on_c, 1, 56, 127
1, 96494, Note_off_c, 1, 77, 0
1, 96521, Note_off_c, 1, 56, 0
1, 96525, Note_on_c, 1, 76, 127
1, 96525, Note_on_c, 1, 55, 127
1, 96682, Note_off_c, 1, 76, 0
1, 96684, Note_on_c, 1, 77, 127
1, 96841, Note_off_c, 1, 77, 0
1, 96842, Note_off_c, 1, 55, 0
1, 96843, Note_on_c, 1, 79, 127
1, 96843, Note_on_c, 1, 53, 127
1, 96973, Note_off_c, 1, 79, 0
1, 97000, Note_off_c, 1, 53, 0
1, 97004, Note_on_c, 1, 73, 127
1, 97004, Note_on_c, 1, 52, 127
1, 97161, Note_off_c, 1, 73, 0
1, 97163, Note_on_c, 1, 70, 127
1, 97320, Note_off_c, 1, 70, 0
1, 97321, Note_off_c, 1, 52, 0
1, 97322, Note_on_c, 1, 72, 127
1, 97322, Note_on_c, 1, 48, 127
1, 97452, Note_off_c, 1, 72, 0
1, 97479, Note_off_c, 1, 48, 0
1, 97483, Note_on_c, 1, 72, 127
1, 97483, Note_on_c, 1, 56, 127
1, 97640, Note_off_c, 1, 72, 0
1, 97642, Note_on_c, 1, 64, 127
1, 97799, Note_off_c, 1, 64, 0
1, 97800, Note_off_c, 1, 56, 0
1, 97801, Note_on_c, 1, 65, 127
1, 97801, Note_on_c, 1, 53, 127
1, 97931, Note_off_c, 1, 65, 0
1, 97958, Note_off_c, 1, 53, 0
1, 97961, Note_on_c, 1, 73, 127
1, 97961, Note_on_c, 1, 58, 127
1, 98118, Note_off_c, 1, 73, 0
1, 98120, Note_on_c, 1, 72, 127
1, 98277, Note_off_c, 1, 72, 0
1, 98278, Note_off_c, 1, 58, 0
1, 98279, Note_on_c, 1, 70, 127
1, 98279, Note_on_c, 1, 61, 127
1, 98409, Note_off_c, 1, 70, 0
1, 98436, Note_off_c, 1, 61, 0
1, 98440, Note_on_c, 1, 68, 127
1, 98440, Note_on_c, 1, 60, 127
1, 98597, Note_off_c, 1, 68, 0
1, 98599, Note_on_c, 1, 70, 127
1, 98756, Note_off_c, 1, 70, 0
1, 98757, Note_off_c, 1, 60, 0
1, 98758, Note_on_c, 1, 67, 127
1, 98758, Note_on_c, 1, 48, 127
1, 98888, Note_off_c, 1, 67, 0
1, 98915, Note_off_c, 1, 48, 0
1, 98919, Note_on_c, 1, 53, 127
1, 98919, Note_on_c, 1, 65, 127
1, 99076, Note_off_c, 1, 53, 0
1, 99078, Note_on_c, 1, 48, 127
1, 99235, Note_off_c, 1, 48, 0
1, 99237, Note_on_c, 1, 44, 127
1, 99394, Note_off_c, 1, 44, 0
1, 99398, Note_on_c, 1, 41, 127
1, 99405, Note_off_c, 1, 65, 0
1, 99557, Note_on_c, 1, 68, 127
1, 99697, Note_off_c, 1, 41, 0
1, 99714, Note_off_c, 1, 68, 0
1, 99716, Note_on_c, 1, 67, 127
1, 99716, Note_on_c, 1, 48, 127
1, 99846, Note_off_c, 1, 67, 0
1, 99873, Note_off_c, 1, 48, 0
1, 99876, Note_on_c, 1, 53, 127
1, 99876, Note_on_c, 1, 68, 127
1, 100033, Note_off_c, 1, 53, 0
1, 100033, Note_off_c, 1, 68, 0
1, 100035, Note_on_c, 1, 55, 127
1, 100035, Note_on_c, 1, 70, 127
1, 100192, Note_off_c, 1, 55, 0
1, 100192, Note_off_c, 1, 70, 0
1, 100194, Note_on_c, 1, 72, 127
1, 100194, Note_on_c, 1, 56, 127
1, 100324, Note_off_c, 1, 72, 0
1, 100351, Note_off_c, 1, 56, 0
1, 100355, Note_on_c, 1, 62, 127
1, 100355, Note_on_c, 1, 58, 127
1, 100512, Note_off_c, 1, 62, 0
1, 100514, Note_on_c, 1, 63, 127
1, 100671, Note_off_c, 1, 63, 0
1, 100673, Note_on_c, 1, 65, 127
1, 100803, Note_off_c, 1, 65, 0
1, 100818, Note_off_c, 1, 58, 0
1, 100834, Note_on_c, 1, 58, 127
1, 100991, Note_off_c, 1, 58, 0
1, 100993, Note_on_c, 1, 53, 127
1, 100993, Note_on_c, 1, 62, 127
1, 101150, Note_off_c, 1, 53, 0
1, 101150, Note_off_c, 1, 62, 0
1, 101152, Note_on_c, 1, 65, 127
1, 101152, Note_on_c, 1, 50, 127
1, 101282, Note_off_c, 1, 65, 0
1, 101309, Note_off_c, 1, 50, 0
1, 101313, Note_on_c, 1, 46, 127
1, 101313, Note_on_c, 1, 68, 127
1, 101470, Note_off_c, 1, 46, 0
1, 101470, Note_off_c, 1, 68, 0
1, 101471, Note_on_c, 1, 48, 127
1, 101471, Note_on_c, 1, 67, 127
1, 101628, Note_off_c, 1, 48, 0
1, 101628, Note_off_c, 1, 67, 0
1, 101630, Note_on_c, 1, 65, 127
1, 101630, Note_on_c, 1, 50, 127
1, 101760, Note_off_c, 1, 65, 0
1, 101787, Note_off_c, 1, 50, 0
1, 101791, Note_on_c, 1, 67, 127
1, 101791, Note_on_c, 1, 51, 127
1, 101948, Note_off_c, 1, 67, 0
1, 101950, Note_on_c, 1, 68, 127
1, 102107, Note_off_c, 1, 68, 0
1, 102109, Note_on_c, 1, 70, 127
1, 102239, Note_off_c, 1, 70, 0
1, 102270, Note_on_c, 1, 63, 127
1, 102389, Note_off_c, 1, 51, 0
1, 102427, Note_off_c, 1, 63, 0
1, 102429, Note_on_c, 1, 46, 127
1, 102429, Note_on_c, 1, 67, 127
1, 102586, Note_off_c, 1, 46, 0
1, 102586, Note_off_c, 1, 67, 0
1, 102588, Note_on_c, 1, 70, 127
1, 102588, Note_on_c, 1, 43, 127
1, 102718, Note_off_c, 1, 70, 0
1, 102745, Note_off_c, 1, 43, 0
1, 102749, Note_on_c, 1, 39, 127
1, 102749, Note_on_c, 1, 73, 127
1, 102906, Note_off_c, 1, 39, 0
1, 102906, Note_off_c, 1, 73, 0
1, 102908, Note_on_c, 1, 41, 127
1, 102908, Note_on_c, 1, 72, 127
1, 103065, Note_off_c, 1, 41, 0
1, 103065, Note_off_c, 1, 72, 0
1, 103067, Note_on_c, 1, 70, 127
1, 103067, Note_on_c, 1, 43, 127
1, 103197, Note_off_c, 1, 70, 0
1, 103224, Note_off_c, 1, 43, 0
1, 103227, Note_on_c, 1, 72, 127
1, 103227, Note_on_c, 1, 44, 127
1, 103384, Note_off_c, 1, 72, 0
1, 103386, Note_on_c, 1, 77, 127
1, 103543, Note_off_c, 1, 77, 0
1, 103545, Note_on_c, 1, 76, 127
1, 103675, Note_off_c, 1, 76, 0
1, 103806, Note_off_c, 1, 44, 0
1, 103865, Note_on_c, 1, 43, 127
1, 103865, Note_on_c, 1, 79, 127
1, 104022, Note_off_c, 1, 43, 0
1, 104022, Note_off_c, 1, 79, 0
1, 104024, Note_on_c, 1, 80, 127
1, 104024, Note_on_c, 1, 41, 127
1, 104154, Note_off_c, 1, 80, 0
1, 104181, Note_off_c, 1, 41, 0
1, 104185, Note_on_c, 1, 44, 127
1, 104185, Note_on_c, 1, 72, 127
1, 104342, Note_off_c, 1, 44, 0
1, 104342, Note_off_c, 1, 72, 0
1, 104344, Note_on_c, 1, 43, 127
1, 104344, Note_on_c, 1, 74, 127
1, 104501, Note_off_c, 1, 43, 0
1, 104501, Note_off_c, 1, 74, 0
1, 104503, Note_on_c, 1, 75, 127
1, 104503, Note_on_c, 1, 41, 127
1, 104633, Note_off_c, 1, 75, 0
1, 104660, Note_off_c, 1, 41, 0
1, 104664, Note_on_c, 1, 75, 127
1, 104664, Note_on_c, 1, 46, 127
1, 104821, Note_off_c, 1, 75, 0
1, 104822, Note_on_c, 1, 72, 127
1, 104979, Note_off_c, 1, 72, 0
1, 104981, Note_off_c, 1, 46, 0
1, 104981, Note_on_c, 1, 74, 127
1, 104981, Note_on_c, 1, 60, 127
1, 105111, Note_off_c, 1, 74, 0
1, 105138, Note_off_c, 1, 60, 0
1, 105142, Note_on_c, 1, 80, 127
1, 105142, Note_on_c, 1, 58, 127
1, 105299, Note_off_c, 1, 80, 0
1, 105301, Note_on_c, 1, 79, 127
1, 105458, Note_off_c, 1, 79, 0
1, 105459, Note_off_c, 1, 58, 0
1, 105460, Note_on_c, 1, 77, 127
1, 105460, Note_on_c, 1, 56, 127
1, 105590, Note_off_c, 1, 77, 0
1, 105617, Note_off_c, 1, 56, 0
1, 105621, Note_on_c, 1, 84, 127
1, 105621, Note_on_c, 1, 55, 127
1, 105778, Note_off_c, 1, 84, 0
1, 105780, Note_on_c, 1, 82, 127
1, 105937, Note_off_c, 1, 82, 0
1, 105938, Note_off_c, 1, 55, 0
1, 105939, Note_on_c, 1, 80, 127
1, 105939, Note_on_c, 1, 53, 127
1, 106069, Note_off_c, 1, 80, 0
1, 106096, Note_off_c, 1, 53, 0
1, 106100, Note_on_c, 1, 79, 127
1, 106100, Note_on_c, 1, 51, 127
1, 106257, Note_off_c, 1, 79, 0
1, 106259, Note_on_c, 1, 74, 127
1, 106416, Note_off_c, 1, 74, 0
1, 106418, Note_on_c, 1, 75, 127
1, 106548, Note_off_c, 1, 75, 0
1, 106578, Note_on_c, 1, 70, 127
1, 106698, Note_off_c, 1, 51, 0
1, 106735, Note_off_c, 1, 70, 0
1, 106737, Note_on_c, 1, 49, 127
1, 106737, Note_on_c, 1, 72, 127
1, 106894, Note_off_c, 1, 49, 0
1, 106894, Note_off_c, 1, 72, 0
1, 106896, Note_on_c, 1, 73, 127
1, 106896, Note_on_c, 1, 48, 127
1, 107026, Note_off_c, 1, 73, 0
1, 107053, Note_off_c, 1, 48, 0
1, 107057, Note_on_c, 1, 67, 127
1, 107057, Note_on_c, 1, 46, 127
1, 107135, Note_off_c, 1, 67, 0
1, 107136, Note_on_c, 1, 68, 127
1, 107214, Note_off_c, 1, 46, 0
1, 107214, Note_off_c, 1, 68, 0
1, 107216, Note_on_c, 1, 44, 127
1, 107216, Note_on_c, 1, 70, 127
1, 107373, Note_off_c, 1, 44, 0
1, 107373, Note_off_c, 1, 70, 0
1, 107377, Note_on_c, 1, 61, 127
1, 107377, Note_on_c, 1, 43, 127
1, 107511, Note_off_c, 1, 61, 0
1, 107537, Note_off_c, 1, 43, 0
1, 107541, Note_on_c, 1, 44, 127
1, 107541, Note_on_c, 1, 60, 127
1, 107706, Note_on_c, 1, 55, 127
1, 107866, Note_off_c, 1, 55, 0
1, 107868, Note_off_c, 1, 44, 0
1, 107869, Note_on_c, 1, 56, 127
1, 107869, Note_on_c, 1, 41, 127
1, 108003, Note_off_c, 1, 56, 0
1, 108029, Note_off_c, 1, 41, 0
1, 108035, Note_on_c, 1, 53, 127
1, 108035, Note_on_c, 1, 46, 127
1, 108195, Note_off_c, 1, 60, 0
1, 108199, Note_off_c, 1, 53, 0
1, 108203, Note_on_c, 1, 63, 127
1, 108367, Note_off_c, 1, 63, 0
1, 108371, Note_off_c, 1, 46, 0
1, 108372, Note_on_c, 1, 62, 127
1, 108372, Note_on_c, 1, 43, 127
1, 108510, Note_off_c, 1, 62, 0
1, 108536, Note_off_c, 1, 43, 0
1, 108542, Note_on_c, 1, 48, 127
1, 108542, Note_on_c, 1, 63, 127
1, 108712, Note_on_c, 1, 58, 127
1, 108876, Note_off_c, 1, 58, 0
1, 108878, Note_off_c, 1, 48, 0
1, 108880, Note_on_c, 1, 60, 127
1, 108880, Note_on_c, 1, 44, 127
1, 109022, Note_off_c, 1, 60, 0
1, 109048, Note_off_c, 1, 44, 0
1, 109056, Note_on_c, 1, 56, 127
1, 109056, Note_on_c, 1, 50, 127
1, 109215, Note_off_c, 1, 63, 0
1, 109224, Note_off_c, 1, 56, 0
1, 109232, Note_on_c, 1, 67, 127
1, 109400, Note_off_c, 1, 67, 0
1, 109401, Note_off_c, 1, 50, 0
1, 109402, Note_on_c, 1, 65, 127
1, 109402, Note_on_c, 1, 46, 127
1, 109544, Note_off_c, 1, 65, 0
1, 109570, Note_off_c, 1, 46, 0
1, 109580, Note_on_c, 1, 67, 127
1, 109580, Note_on_c, 1, 51, 127
1, 109752, Note_off_c, 1, 67, 0
1, 109759, Note_on_c, 1, 68, 127
1, 109931, Note_off_c, 1, 68, 0
1, 109935, Note_off_c, 1, 51, 0
1, 109937, Note_on_c, 1, 70, 127
1, 109937, Note_on_c, 1, 44, 127
1, 110082, Note_off_c, 1, 70, 0
1, 110109, Note_off_c, 1, 44, 0
1, 110116, Note_on_c, 1, 58, 127
1, 110116, Note_on_c, 1, 46, 127
1, 110288, Note_off_c, 1, 58, 0
1, 110298, Note_on_c, 1, 63, 127
1, 110470, Note_off_c, 1, 63, 0
1, 110471, Note_off_c, 1, 46, 0
1, 110477, Note_on_c, 1, 62, 127
1, 110477, Note_on_c, 1, 46, 127
1, 110630, Note_off_c, 1, 62, 0
1, 110656, Note_off_c, 1, 46, 0
1, 110668, Note_on_c, 1, 51, 127
1, 110668, Note_on_c, 1, 63, 127
1, 110861, Note_on_c, 1, 58, 127
1, 111040, Note_off_c, 1, 58, 0
1, 111050, Note_on_c, 1, 55, 127
1, 111227, Note_off_c, 1, 51, 0
1, 111227, Note_off_c, 1, 63, 0
1, 111229, Note_off_c, 1, 55, 0
1, 111240, Note_on_c, 1, 51, 127
1, 111437, Note_on_c, 1, 46, 127
1, 111620, Note_off_c, 1, 46, 0
1, 111633, Note_on_c, 1, 43, 127
1, 111816, Note_off_c, 1, 43, 0
1, 111874, Note_on_c, 1, 39, 127
1, 113940, Note_off_c, 1, 51, 0
1, 114104, Note_off_c, 1, 39, 0
1, 115890, Note_on_c, 1, 67, 127
1, 115890, Note_on_c, 1, 51, 127
1, 116243, Note_off_c, 1, 67, 0
1, 116243, Note_off_c, 1, 51, 0
1, 116244, Note_on_c, 1, 68, 127
1, 116244, Note_on_c, 1, 63, 127
1, 116419, Note_off_c, 1, 68, 0
1, 116421, Note_on_c, 1, 70, 127
1, 116596, Note_off_c, 1, 70, 0
1, 116597, Note_off_c, 1, 63, 0
1, 116599, Note_on_c, 1, 70, 127
1, 116599, Note_on_c, 1, 61, 127
1, 116599, Note_on_c, 1, 67, 127
1, 116774, Note_off_c, 1, 70, 0
1, 116777, Note_on_c, 1, 68, 127
1, 116952, Note_off_c, 1, 61, 0
1, 116952, Note_off_c, 1, 68, 0
1, 116954, Note_on_c, 1, 60, 127
1, 117305, Note_off_c, 1, 60, 0
1, 117308, Note_on_c, 1, 58, 127
1, 117659, Note_off_c, 1, 58, 0
1, 117661, Note_on_c, 1, 56, 127
1, 117945, Note_off_c, 1, 67, 0
1, 118014, Note_off_c, 1, 56, 0
1, 118016, Note_on_c, 1, 70, 127
1, 118016, Note_on_c, 1, 55, 127
1, 118367, Note_off_c, 1, 70, 0
1, 118367, Note_off_c, 1, 55, 0
1, 118370, Note_on_c, 1, 72, 127
1, 118370, Note_on_c, 1, 53, 127
1, 118545, Note_off_c, 1, 72, 0
1, 118548, Note_on_c, 1, 73, 127
1, 118723, Note_off_c, 1, 53, 0
1, 118723, Note_off_c, 1, 73, 0
1, 118725, Note_on_c, 1, 51, 127
1, 118725, Note_on_c, 1, 67, 127
1, 118903, Note_on_c, 1, 70, 127
1, 119078, Note_off_c, 1, 51, 0
1, 119081, Note_on_c, 1, 49, 127
1, 119081, Note_on_c, 1, 73, 127
1, 119432, Note_off_c, 1, 49, 0
1, 119434, Note_on_c, 1, 48, 127
1, 119785, Note_off_c, 1, 48, 0
1, 119787, Note_on_c, 1, 46, 127
1, 119977, Note_off_c, 1, 67, 0
1, 120043, Note_off_c, 1, 70, 0
1, 120092, Note_off_c, 1, 73, 0
1, 120138, Note_off_c, 1, 46, 0
1, 120141, Note_on_c, 1, 72, 127
1, 120141, Note_on_c, 1, 44, 127
1, 120492, Note_off_c, 1, 72, 0
1, 120492, Note_off_c, 1, 44, 0
1, 120494, Note_on_c, 1, 46, 127
1, 120494, Note_on_c, 1, 70, 127
1, 120669, Note_off_c, 1, 46, 0
1, 120672, Note_on_c, 1, 48, 127
1, 120847, Note_off_c, 1, 70, 0
1, 120847, Note_off_c, 1, 48, 0
1, 120850, Note_on_c, 1, 68, 127
1, 120850, Note_on_c, 1, 48, 127
1, 121027, Note_on_c, 1, 51, 127
1, 121203, Note_off_c, 1, 68, 0
1, 121205, Note_on_c, 1, 67, 127
1, 121205, Note_on_c, 1, 56, 127
1, 121556, Note_off_c, 1, 67, 0
1, 121558, Note_on_c, 1, 65, 127
1, 121909, Note_off_c, 1, 65, 0
1, 121912, Note_on_c, 1, 63, 127
1, 122067, Note_off_c, 1, 48, 0
1, 122188, Note_off_c, 1, 51, 0
1, 122246, Note_off_c, 1, 56, 0
1, 122265, Note_off_c, 1, 63, 0
1, 122267, Note_on_c, 1, 62, 127
1, 122267, Note_on_c, 1, 46, 127
1, 122618, Note_off_c, 1, 62, 0
1, 122618, Note_off_c, 1, 46, 0
1, 122620, Note_on_c, 1, 48, 127
1, 122620, Note_on_c, 1, 65, 127
1, 122795, Note_off_c, 1, 48, 0
1, 122798, Note_on_c, 1, 50, 127
1, 122973, Note_off_c, 1, 65, 0
1, 122973, Note_off_c, 1, 50, 0
1, 122976, Note_on_c, 1, 68, 127
1, 122976, Note_on_c, 1, 50, 127
1, 123153, Note_on_c, 1, 53, 127
1, 123329, Note_off_c, 1, 68, 0
1, 123331, Note_on_c, 1, 72, 127
1, 123331, Note_on_c, 1, 58, 127
1, 123682, Note_off_c, 1, 72, 0
1, 123684, Note_on_c, 1, 70, 127
1, 124035, Note_off_c, 1, 70, 0
1, 124193, Note_off_c, 1, 50, 0
1, 124314, Note_off_c, 1, 53, 0
1, 124372, Note_off_c, 1, 58, 0
1, 124393, Note_on_c, 1, 67, 127
1, 124393, Note_on_c, 1, 51, 127
1, 124744, Note_off_c, 1, 67, 0
1, 124744, Note_off_c, 1, 51, 0
1, 124747, Note_on_c, 1, 69, 127
1, 124747, Note_on_c, 1, 53, 127
1, 124922, Note_off_c, 1, 69, 0
1, 124924, Note_on_c, 1, 70, 127
1, 125099, Note_off_c, 1, 70, 0
1, 125100, Note_off_c, 1, 53, 0
1, 125102, Note_on_c, 1, 70, 127
1, 125102, Note_on_c, 1, 51, 127
1, 125102, Note_on_c, 1, 65, 127
1, 125217, Note_off_c, 1, 70, 0
1, 125220, Note_on_c, 1, 69, 127
1, 125335, Note_off_c, 1, 69, 0
1, 125453, Note_off_c, 1, 51, 0
1, 125455, Note_on_c, 1, 50, 127
1, 125806, Note_off_c, 1, 50, 0
1, 125809, Note_on_c, 1, 48, 127
1, 126160, Note_off_c, 1, 48, 0
1, 126162, Note_on_c, 1, 46, 127
1, 126513, Note_off_c, 1, 65, 0
1, 126513, Note_off_c, 1, 46, 0
1, 126516, Note_on_c, 1, 72, 127
1, 126516, Note_on_c, 1, 45, 127
1, 126867, Note_off_c, 1, 72, 0
1, 126867, Note_off_c, 1, 45, 0
1, 126869, Note_on_c, 1, 74, 127
1, 126869, Note_on_c, 1, 43, 127
1, 127044, Note_off_c, 1, 74, 0
1, 127047, Note_on_c, 1, 75, 127
1, 127222, Note_off_c, 1, 43, 0
1, 127222, Note_off_c, 1, 75, 0
1, 127224, Note_on_c, 1, 45, 127
1, 127224, Note_on_c, 1, 65, 127
1, 127575, Note_off_c, 1, 45, 0
1, 127578, Note_on_c, 1, 41, 127
1, 127929, Note_off_c, 1, 41, 0
1, 127931, Note_on_c, 1, 43, 127
1, 128181, Note_off_c, 1, 65, 0
1, 128282, Note_off_c, 1, 43, 0
1, 128285, Note_on_c, 1, 63, 127
1, 128285, Note_on_c, 1, 45, 127
1, 128636, Note_off_c, 1, 63, 0
1, 128636, Note_off_c, 1, 45, 0
1, 128638, Note_on_c, 1, 62, 127
1, 128638, Note_on_c, 1, 46, 127
1, 128813, Note_off_c, 1, 62, 0
1, 128816, Note_on_c, 1, 63, 127
1, 128991, Note_off_c, 1, 46, 0
1, 128991, Note_off_c, 1, 63, 0
1, 128993, Note_on_c, 1, 65, 127
1, 128993, Note_on_c, 1, 50, 127
1, 129168, Note_off_c, 1, 65, 0
1, 129171, Note_on_c, 1, 70, 127
1, 129346, Note_off_c, 1, 50, 0
1, 129346, Note_off_c, 1, 70, 0
1, 129349, Note_on_c, 1, 67, 127
1, 129349, Note_on_c, 1, 51, 127
1, 129524, Note_off_c, 1, 67, 0
1, 129526, Note_on_c, 1, 69, 127
1, 129701, Note_off_c, 1, 69, 0
1, 129702, Note_off_c, 1, 51, 0
1, 129704, Note_on_c, 1, 70, 127
1, 129704, Note_on_c, 1, 48, 127
1, 129879, Note_off_c, 1, 70, 0
1, 129882, Note_on_c, 1, 75, 127
1, 130057, Note_off_c, 1, 48, 0
1, 130057, Note_off_c, 1, 75, 0
1, 130059, Note_on_c, 1, 74, 127
1, 130059, Note_on_c, 1, 53, 127
1, 130234, Note_off_c, 1, 74, 0
1, 130237, Note_on_c, 1, 72, 127
1, 130412, Note_off_c, 1, 53, 0
1, 130412, Note_off_c, 1, 72, 0
1, 130415, Note_on_c, 1, 70, 127
1, 130415, Note_on_c, 1, 41, 127
1, 130590, Note_off_c, 1, 70, 0
1, 130592, Note_on_c, 1, 69, 127
1, 130767, Note_off_c, 1, 69, 0
1, 130768, Note_off_c, 1, 41, 0
1, 130770, Note_on_c, 1, 70, 127
1, 130770, Note_on_c, 1, 46, 127
1, 130948, Note_on_c, 1, 65, 127
1, 131123, Note_off_c, 1, 65, 0
1, 131125, Note_on_c, 1, 67, 127
1, 131300, Note_off_c, 1, 67, 0
1, 131303, Note_on_c, 1, 63, 127
1, 131473, Note_off_c, 1, 70, 0
1, 131478, Note_off_c, 1, 63, 0
1, 131480, Note_on_c, 1, 62, 127
1, 131480, Note_on_c, 1, 53, 127
1, 132191, Note_on_c, 1, 58, 127
1, 132699, Note_off_c, 1, 62, 0
1, 132894, Note_off_c, 1, 46, 0
1, 132895, Note_off_c, 1, 53, 0
1, 132895, Note_off_c, 1, 58, 0
1, 132898, Note_on_c, 1, 74, 127
1, 132898, Note_on_c, 1, 58, 127
1, 133249, Note_off_c, 1, 74, 0
1, 133249, Note_off_c, 1, 58, 0
1, 133251, Note_on_c, 1, 75, 127
1, 133251, Note_on_c, 1, 46, 127
1, 133426, Note_off_c, 1, 75, 0
1, 133429, Note_on_c, 1, 77, 127
1, 133604, Note_off_c, 1, 46, 0
1, 133604, Note_off_c, 1, 77, 0
1, 133607, Note_on_c, 1, 77, 127
1, 133607, Note_on_c, 1, 48, 127
1, 133607, Note_on_c, 1, 74, 127
1, 133782, Note_off_c, 1, 77, 0
1, 133784, Note_on_c, 1, 75, 127
1, 133959, Note_off_c, 1, 75, 0
1, 133960, Note_off_c, 1, 48, 0
1, 133962, Note_on_c, 1, 50, 127
1, 134313, Note_off_c, 1, 50, 0
1, 134315, Note_on_c, 1, 51, 127
1, 134666, Note_off_c, 1, 51, 0
1, 134669, Note_on_c, 1, 53, 127
1, 134824, Note_off_c, 1, 74, 0
1, 135022, Note_off_c, 1, 53, 0
1, 135024, Note_on_c, 1, 76, 127
1, 135024, Note_on_c, 1, 55, 127
1, 135375, Note_off_c, 1, 76, 0
1, 135375, Note_off_c, 1, 55, 0
1, 135378, Note_on_c, 1, 77, 127
1, 135378, Note_on_c, 1, 56, 127
1, 135553, Note_off_c, 1, 77, 0
1, 135555, Note_on_c, 1, 79, 127
1, 135730, Note_off_c, 1, 79, 0
1, 135731, Note_off_c, 1, 56, 0
1, 135733, Note_on_c, 1, 79, 127
1, 135733, Note_on_c, 1, 58, 127
1, 135733, Note_on_c, 1, 76, 127
1, 135908, Note_off_c, 1, 79, 0
1, 135911, Note_on_c, 1, 77, 127
1, 136086, Note_off_c, 1, 58, 0
1, 136086, Note_off_c, 1, 77, 0
1, 136088, Note_on_c, 1, 61, 127
1, 136439, Note_off_c, 1, 61, 0
1, 136442, Note_on_c, 1, 60, 127
1, 136793, Note_off_c, 1, 60, 0
1, 136950, Note_off_c, 1, 76, 0
1, 137150, Note_on_c, 1, 77, 127
1, 137150, Note_on_c, 1, 56, 127
1, 137501, Note_off_c, 1, 77, 0
1, 137501, Note_off_c, 1, 56, 0
1, 137504, Note_on_c, 1, 79, 127
1, 137504, Note_on_c, 1, 53, 127
1, 137679, Note_off_c, 1, 79, 0
1, 137681, Note_on_c, 1, 80, 127
1, 137856, Note_off_c, 1, 80, 0
1, 137857, Note_off_c, 1, 53, 0
1, 137859, Note_on_c, 1, 70, 127
1, 137859, Note_on_c, 1, 61, 127
1, 138210, Note_off_c, 1, 70, 0
1, 138210, Note_off_c, 1, 61, 0
1, 138212, Note_on_c, 1, 80, 127
1, 138212, Note_on_c, 1, 60, 127
1, 138387, Note_off_c, 1, 80, 0
1, 138390, Note_on_c, 1, 79, 127
1, 138565, Note_off_c, 1, 60, 0
1, 138565, Note_off_c, 1, 79, 0
1, 138568, Note_on_c, 1, 82, 127
1, 138568, Note_on_c, 1, 58, 127
1, 138743, Note_off_c, 1, 82, 0
1, 138745, Note_on_c, 1, 80, 127
1, 138920, Note_off_c, 1, 80, 0
1, 138921, Note_off_c, 1, 58, 0
1, 138923, Note_on_c, 1, 79, 127
1, 138923, Note_on_c, 1, 61, 127
1, 139098, Note_off_c, 1, 79, 0
1, 139101, Note_on_c, 1, 77, 127
1, 139276, Note_off_c, 1, 61, 0
1, 139276, Note_off_c, 1, 77, 0
1, 139278, Note_on_c, 1, 79, 127
1, 139278, Note_on_c, 1, 60, 127
1, 139278, Note_on_c, 1, 76, 127
1, 139629, Note_off_c, 1, 79, 0
1, 139629, Note_off_c, 1, 60, 0
1, 139632, Note_on_c, 1, 80, 127
1, 139632, Note_on_c, 1, 61, 127
1, 139807, Note_off_c, 1, 80, 0
1, 139809, Note_on_c, 1, 82, 127
1, 139979, Note_off_c, 1, 76, 0
1, 139984, Note_off_c, 1, 82, 0
1, 139985, Note_off_c, 1, 61, 0
1, 139987, Note_on_c, 1, 60, 127
1, 139987, Note_on_c, 1, 76, 127
1, 140105, Note_on_c, 1, 79, 127
1, 140223, Note_on_c, 1, 82, 127
1, 140338, Note_off_c, 1, 60, 0
1, 140341, Note_on_c, 1, 58, 127
1, 140692, Note_off_c, 1, 58, 0
1, 140694, Note_on_c, 1, 56, 127
1, 141045, Note_off_c, 1, 56, 0
1, 141047, Note_on_c, 1, 55, 127
1, 141202, Note_off_c, 1, 76, 0
1, 141236, Note_off_c, 1, 82, 0
1, 141247, Note_off_c, 1, 79, 0
1, 141400, Note_off_c, 1, 55, 0
1, 141403, Note_on_c, 1, 80, 127
1, 141403, Note_on_c, 1, 53, 127
1, 141754, Note_off_c, 1, 80, 0
1, 141754, Note_off_c, 1, 53, 0
1, 141756, Note_on_c, 1, 55, 127
1, 141756, Note_on_c, 1, 79, 127
1, 141931, Note_off_c, 1, 55, 0
1, 141934, Note_on_c, 1, 56, 127
1, 142109, Note_off_c, 1, 79, 0
1, 142109, Note_off_c, 1, 56, 0
1, 142111, Note_on_c, 1, 77, 127
1, 142111, Note_on_c, 1, 49, 127
1, 142462, Note_off_c, 1, 77, 0
1, 142465, Note_on_c, 1, 75, 127
1, 142816, Note_off_c, 1, 75, 0
1, 142818, Note_on_c, 1, 73, 127
1, 143169, Note_off_c, 1, 49, 0
1, 143169, Note_off_c, 1, 73, 0
1, 143172, Note_on_c, 1, 72, 127
1, 143523, Note_off_c, 1, 72, 0
1, 143525, Note_on_c, 1, 70, 127
1, 143525, Note_on_c, 1, 55, 127
1, 143876, Note_off_c, 1, 70, 0
1, 143876, Note_off_c, 1, 55, 0
1, 143879, Note_on_c, 1, 56, 127
1, 143879, Note_on_c, 1, 68, 127
1, 144054, Note_off_c, 1, 56, 0
1, 144056, Note_on_c, 1, 58, 127
1, 144231, Note_off_c, 1, 58, 0
1, 144232, Note_off_c, 1, 68, 0
1, 144234, Note_on_c, 1, 67, 127
1, 144234, Note_on_c, 1, 58, 127
1, 144585, Note_off_c, 1, 67, 0
1, 144587, Note_on_c, 1, 65, 127
1, 144938, Note_off_c, 1, 65, 0
1, 144941, Note_on_c, 1, 64, 127
1, 145116, Note_off_c, 1, 64, 0
1, 145294, Note_off_c, 1, 58, 0
1, 145296, Note_on_c, 1, 67, 127
1, 145471, Note_off_c, 1, 67, 0
1, 145474, Note_on_c, 1, 73, 127
1, 145649, Note_off_c, 1, 73, 0
1, 145651, Note_on_c, 1, 72, 127
1, 145651, Note_on_c, 1, 56, 127
1, 145826, Note_off_c, 1, 72, 0
1, 145829, Note_on_c, 1, 70, 127
1, 146004, Note_off_c, 1, 56, 0
1, 146004, Note_off_c, 1, 70, 0
1, 146007, Note_on_c, 1, 68, 127
1, 146007, Note_on_c, 1, 53, 127
1, 146182, Note_off_c, 1, 68, 0
1, 146184, Note_on_c, 1, 77, 127
1, 146359, Note_off_c, 1, 77, 0
1, 146360, Note_off_c, 1, 53, 0
1, 146362, Note_on_c, 1, 76, 127
1, 146362, Note_on_c, 1, 61, 127
1, 146537, Note_off_c, 1, 76, 0
1, 146540, Note_on_c, 1, 77, 127
1, 146715, Note_off_c, 1, 61, 0
1, 146715, Note_off_c, 1, 77, 0
1, 146717, Note_on_c, 1, 79, 127
1, 146717, Note_on_c, 1, 58, 127
1, 146892, Note_off_c, 1, 79, 0
1, 146895, Note_on_c, 1, 82, 127
1, 147070, Note_off_c, 1, 58, 0
1, 147070, Note_off_c, 1, 82, 0
1, 147073, Note_on_c, 1, 80, 127
1, 147073, Note_on_c, 1, 60, 127
1, 147248, Note_off_c, 1, 80, 0
1, 147250, Note_on_c, 1, 77, 127
1, 147425, Note_off_c, 1, 77, 0
1, 147426, Note_off_c, 1, 60, 0
1, 147428, Note_on_c, 1, 79, 127
1, 147428, Note_on_c, 1, 48, 127
1, 147603, Note_off_c, 1, 79, 0
1, 147605, Note_on_c, 1, 76, 127
1, 147780, Note_off_c, 1, 76, 0
1, 147781, Note_off_c, 1, 48, 0
1, 147783, Note_on_c, 1, 77, 127
1, 147783, Note_on_c, 1, 53, 127
1, 147961, Note_on_c, 1, 70, 127
1, 148136, Note_off_c, 1, 70, 0
1, 148138, Note_on_c, 1, 72, 127
1, 148313, Note_off_c, 1, 72, 0
1, 148316, Note_on_c, 1, 67, 127
1, 148486, Note_off_c, 1, 77, 0
1, 148491, Note_off_c, 1, 67, 0
1, 148494, Note_on_c, 1, 60, 127
1, 148494, Note_on_c, 1, 68, 127
1, 149204, Note_on_c, 1, 65, 127
1, 149538, Note_off_c, 1, 53, 0
1, 149558, Note_on_c, 1, 51, 127
1, 149713, Note_off_c, 1, 60, 0
1, 149731, Note_off_c, 1, 68, 0
1, 149794, Note_off_c, 1, 65, 0
1, 149911, Note_off_c, 1, 51, 0
1, 149913, Note_on_c, 1, 80, 127
1, 149913, Note_on_c, 1, 53, 127
1, 149913, Note_on_c, 1, 50, 127
1, 150264, Note_off_c, 1, 80, 0
1, 150264, Note_off_c, 1, 53, 0
1, 150267, Note_on_c, 1, 55, 127
1, 150267, Note_on_c, 1, 70, 127
1, 150442, Note_off_c, 1, 55, 0
1, 150444, Note_on_c, 1, 56, 127
1, 150614, Note_off_c, 1, 50, 0
1, 150620, Note_off_c, 1, 70, 0
1, 150622, Note_on_c, 1, 72, 127
1, 150622, Note_on_c, 1, 46, 127
1, 150973, Note_off_c, 1, 72, 0
1, 150975, Note_on_c, 1, 74, 127
1, 151326, Note_off_c, 1, 74, 0
1, 151329, Note_on_c, 1, 75, 127
1, 151680, Note_off_c, 1, 75, 0
1, 151682, Note_on_c, 1, 77, 127
1, 151837, Note_off_c, 1, 46, 0
1, 151857, Note_off_c, 1, 56, 0
1, 152035, Note_off_c, 1, 77, 0
1, 152037, Note_on_c, 1, 79, 127
1, 152037, Note_on_c, 1, 51, 127
1, 152388, Note_off_c, 1, 79, 0
1, 152388, Note_off_c, 1, 51, 0
1, 152391, Note_on_c, 1, 80, 127
1, 152391, Note_on_c, 1, 63, 127
1, 152566, Note_off_c, 1, 80, 0
1, 152568, Note_on_c, 1, 82, 127
1, 152743, Note_off_c, 1, 82, 0
1, 152744, Note_off_c, 1, 63, 0
1, 152746, Note_on_c, 1, 61, 127
1, 152746, Note_on_c, 1, 82, 127
1, 153097, Note_off_c, 1, 61, 0
1, 153100, Note_on_c, 1, 60, 127
1, 153451, Note_off_c, 1, 60, 0
1, 153453, Note_on_c, 1, 58, 127
1, 153806, Note_on_c, 1, 56, 127
1, 153978, Note_off_c, 1, 82, 0
1, 154157, Note_off_c, 1, 56, 0
1, 154160, Note_on_c, 1, 73, 127
1, 154160, Note_on_c, 1, 55, 127
1, 154481, Note_off_c, 1, 58, 0
1, 154511, Note_off_c, 1, 73, 0
1, 154513, Note_on_c, 1, 63, 127
1, 154849, Note_off_c, 1, 63, 0
1, 154861, Note_off_c, 1, 55, 0
1, 154869, Note_on_c, 1, 65, 127
1, 154869, Note_on_c, 1, 51, 127
1, 155220, Note_off_c, 1, 65, 0
1, 155222, Note_on_c, 1, 67, 127
1, 155573, Note_off_c, 1, 67, 0
1, 155575, Note_on_c, 1, 68, 127
1, 155926, Note_off_c, 1, 68, 0
1, 155929, Note_on_c, 1, 70, 127
1, 156009, Note_off_c, 1, 51, 0
1, 156280, Note_off_c, 1, 70, 0
1, 156282, Note_on_c, 1, 72, 127
1, 156282, Note_on_c, 1, 56, 127
1, 156457, Note_off_c, 1, 72, 0
1, 156460, Note_on_c, 1, 73, 127
1, 156635, Note_off_c, 1, 56, 0
1, 156635, Note_off_c, 1, 73, 0
1, 156638, Note_on_c, 1, 44, 127
1, 156638, Note_on_c, 1, 75, 127
1, 156989, Note_off_c, 1, 44, 0
1, 156991, Note_on_c, 1, 46, 127
1, 157114, Note_off_c, 1, 75, 0
1, 157169, Note_on_c, 1, 73, 127
1, 157344, Note_off_c, 1, 46, 0
1, 157344, Note_off_c, 1, 73, 0
1, 157346, Note_on_c, 1, 72, 127
1, 157346, Note_on_c, 1, 48, 127
1, 157521, Note_off_c, 1, 72, 0
1, 157524, Note_on_c, 1, 70, 127
1, 157699, Note_off_c, 1, 48, 0
1, 157699, Note_off_c, 1, 70, 0
1, 157702, Note_on_c, 1, 68, 127
1, 157702, Note_on_c, 1, 50, 127
1, 157877, Note_off_c, 1, 68, 0
1, 157879, Note_on_c, 1, 67, 127
1, 158054, Note_off_c, 1, 67, 0
1, 158055, Note_off_c, 1, 50, 0
1, 158057, Note_on_c, 1, 65, 127
1, 158057, Note_on_c, 1, 51, 127
1, 158232, Note_off_c, 1, 65, 0
1, 158235, Note_on_c, 1, 63, 127
1, 158410, Note_off_c, 1, 51, 0
1, 158410, Note_off_c, 1, 63, 0
1, 158412, Note_on_c, 1, 53, 127
1, 158412, Note_on_c, 1, 62, 127
1, 158590, Note_on_c, 1, 63, 127
1, 158765, Note_off_c, 1, 53, 0
1, 158765, Note_off_c, 1, 63, 0
1, 158768, Note_on_c, 1, 55, 127
1, 158768, Note_on_c, 1, 65, 127
1, 159119, Note_off_c, 1, 55, 0
1, 159121, Note_on_c, 1, 56, 127
1, 159121, Note_on_c, 1, 70, 127
1, 159472, Note_off_c, 1, 56, 0
1, 159474, Note_on_c, 1, 60, 127
1, 159825, Note_off_c, 1, 62, 0
1, 159825, Note_off_c, 1, 60, 0
1, 159826, Note_off_c, 1, 65, 0
1, 159828, Note_on_c, 1, 58, 127
1, 160003, Note_off_c, 1, 70, 0
1, 160005, Note_on_c, 1, 72, 127
1, 160180, Note_off_c, 1, 72, 0
1, 160181, Note_off_c, 1, 58, 0
1, 160183, Note_on_c, 1, 74, 127
1, 160183, Note_on_c, 1, 56, 127
1, 160358, Note_off_c, 1, 74, 0
1, 160361, Note_on_c, 1, 75, 127
1, 160536, Note_off_c, 1, 56, 0
1, 160536, Note_off_c, 1, 75, 0
1, 160538, Note_on_c, 1, 77, 127
1, 160538, Note_on_c, 1, 55, 127
1, 160713, Note_off_c, 1, 77, 0
1, 160716, Note_on_c, 1, 79, 127
1, 160891, Note_off_c, 1, 55, 0
1, 160891, Note_off_c, 1, 79, 0
1, 160894, Note_on_c, 1, 53, 127
1, 160894, Note_on_c, 1, 80, 127
1, 161245, Note_off_c, 1, 53, 0
1, 161247, Note_on_c, 1, 51, 127
1, 161247, Note_on_c, 1, 70, 127
1, 161598, Note_off_c, 1, 51, 0
1, 161601, Note_on_c, 1, 50, 127
1, 161952, Note_off_c, 1, 80, 0
1, 161952, Note_off_c, 1, 50, 0
1, 161954, Note_on_c, 1, 48, 127
1, 162129, Note_off_c, 1, 70, 0
1, 162132, Note_on_c, 1, 74, 127
1, 162307, Note_off_c, 1, 48, 0
1, 162307, Note_off_c, 1, 74, 0
1, 162309, Note_on_c, 1, 77, 127
1, 162309, Note_on_c, 1, 46, 127
1, 162484, Note_off_c, 1, 77, 0
1, 162487, Note_on_c, 1, 80, 127
1, 162644, Note_off_c, 1, 80, 0
1, 162662, Note_off_c, 1, 46, 0
1, 162665, Note_on_c, 1, 79, 127
1, 162665, Note_on_c, 1, 51, 127
1, 162844, Note_off_c, 1, 79, 0
1, 162846, Note_on_c, 1, 77, 127
1, 163025, Note_off_c, 1, 77, 0
1, 163027, Note_off_c, 1, 51, 0
1, 163029, Note_on_c, 1, 75, 127
1, 163029, Note_on_c, 1, 55, 127
1, 163208, Note_off_c, 1, 75, 0
1, 163213, Note_on_c, 1, 79, 127
1, 163391, Note_off_c, 1, 55, 0
1, 163392, Note_off_c, 1, 79, 0
1, 163396, Note_on_c, 1, 72, 127
1, 163396, Note_on_c, 1, 56, 127
1, 163581, Note_off_c, 1, 72, 0
1, 163585, Note_on_c, 1, 74, 127
1, 163770, Note_off_c, 1, 74, 0
1, 163775, Note_off_c, 1, 56, 0
1, 163777, Note_on_c, 1, 75, 127
1, 163777, Note_on_c, 1, 53, 127
1, 163962, Note_off_c, 1, 75, 0
1, 163970, Note_on_c, 1, 77, 127
1, 164156, Note_off_c, 1, 53, 0
1, 164162, Note_on_c, 1, 58, 127
1, 164162, Note_on_c, 1, 68, 127
1, 164347, Note_off_c, 1, 77, 0
1, 164552, Note_off_c, 1, 58, 0
1, 164557, Note_on_c, 1, 46, 127
1, 164759, Note_on_c, 1, 74, 127
1, 164947, Note_off_c, 1, 46, 0
1, 164949, Note_off_c, 1, 74, 0
1, 164957, Note_on_c, 1, 51, 127
1, 165149, Note_off_c, 1, 68, 0
1, 165159, Note_on_c, 1, 70, 127
1, 165355, Note_off_c, 1, 70, 0
1, 165363, Note_on_c, 1, 72, 127
1, 165559, Note_off_c, 1, 72, 0
1, 165773, Note_on_c, 1, 67, 127
1, 166711, Note_on_c, 1, 63, 127
1, 168457, Note_off_c, 1, 51, 0
1, 168473, Note_off_c, 1, 67, 0
1, 168711, Note_off_c, 1, 63, 0
1, 169927, Note_on_c, 1, 75, 127
1, 170104, Note_off_c, 1, 75, 0
1, 170107, Note_on_c, 1, 70, 127
1, 170284, Note_off_c, 1, 70, 0
1, 170286, Note_on_c, 1, 72, 127
1, 170463, Note_off_c, 1, 72, 0
1, 170466, Note_on_c, 1, 68, 127
1, 170643, Note_off_c, 1, 68, 0
1, 170645, Note_on_c, 1, 68, 127
1, 170645, Note_on_c, 1, 63, 127
1, 170704, Note_off_c, 1, 68, 0
1, 170705, Note_on_c, 1, 67, 127
1, 170764, Note_off_c, 1, 67, 0
1, 170822, Note_off_c, 1, 63, 0
1, 170825, Note_on_c, 1, 58, 127
1, 170825, Note_on_c, 1, 67, 127
1, 171002, Note_off_c, 1, 58, 0
1, 171004, Note_on_c, 1, 60, 127
1, 171092, Note_off_c, 1, 67, 0
1, 171181, Note_off_c, 1, 60, 0
1, 171184, Note_on_c, 1, 68, 127
1, 171184, Note_on_c, 1, 56, 127
1, 171361, Note_off_c, 1, 68, 0
1, 171361, Note_off_c, 1, 56, 0
1, 171363, Note_on_c, 1, 70, 127
1, 171363, Note_on_c, 1, 55, 127
1, 171540, Note_off_c, 1, 70, 0
1, 171543, Note_on_c, 1, 65, 127
1, 171720, Note_off_c, 1, 65, 0
1, 171722, Note_on_c, 1, 67, 127
1, 171867, Note_off_c, 1, 55, 0
1, 171899, Note_off_c, 1, 67, 0
1, 171902, Note_on_c, 1, 63, 127
1, 171902, Note_on_c, 1, 56, 127
1, 172079, Note_off_c, 1, 63, 0
1, 172079, Note_off_c, 1, 56, 0
1, 172081, Note_on_c, 1, 63, 127
1, 172081, Note_on_c, 1, 58, 127
1, 172258, Note_off_c, 1, 63, 0
1, 172258, Note_off_c, 1, 58, 0
1, 172261, Note_on_c, 1, 62, 127
1, 172261, Note_on_c, 1, 53, 127
1, 172438, Note_off_c, 1, 62, 0
1, 172438, Note_off_c, 1, 53, 0
1, 172440, Note_on_c, 1, 60, 127
1, 172440, Note_on_c, 1, 55, 127
1, 172617, Note_off_c, 1, 60, 0
1, 172617, Note_off_c, 1, 55, 0
1, 172620, Note_on_c, 1, 58, 127
1, 172620, Note_on_c, 1, 51, 127
1, 172797, Note_off_c, 1, 58, 0
1, 172797, Note_off_c, 1, 51, 0
1, 172800, Note_on_c, 1, 50, 127
1, 172800, Note_on_c, 1, 68, 127
1, 172979, Note_on_c, 1, 63, 127
1, 173136, Note_off_c, 1, 50, 0
1, 173155, Note_off_c, 1, 68, 0
1, 173156, Note_off_c, 1, 63, 0
1, 173159, Note_on_c, 1, 65, 127
1, 173159, Note_on_c, 1, 46, 127
1, 173336, Note_off_c, 1, 65, 0
1, 173338, Note_on_c, 1, 62, 127
1, 173495, Note_off_c, 1, 46, 0
1, 173515, Note_off_c, 1, 62, 0
1, 173518, Note_on_c, 1, 67, 127
1, 173518, Note_on_c, 1, 51, 127
1, 173697, Note_on_c, 1, 62, 127
1, 173873, Note_off_c, 1, 67, 0
1, 173874, Note_off_c, 1, 62, 0
1, 173877, Note_on_c, 1, 63, 127
1, 173994, Note_off_c, 1, 51, 0
1, 174054, Note_off_c, 1, 63, 0
1, 174056, Note_on_c, 1, 70, 127
1, 174056, Note_on_c, 1, 55, 127
1, 174233, Note_off_c, 1, 70, 0
1, 174233, Note_off_c, 1, 55, 0
1, 174236, Note_on_c, 1, 72, 127
1, 174236, Note_on_c, 1, 56, 127
1, 174413, Note_off_c, 1, 72, 0
1, 174415, Note_on_c, 1, 67, 127
1, 174572, Note_off_c, 1, 56, 0
1, 174592, Note_off_c, 1, 67, 0
1, 174595, Note_on_c, 1, 68, 127
1, 174595, Note_on_c, 1, 53, 127
1, 174772, Note_off_c, 1, 68, 0
1, 174774, Note_on_c, 1, 77, 127
1, 174931, Note_off_c, 1, 53, 0
1, 174951, Note_off_c, 1, 77, 0
1, 174954, Note_on_c, 1, 75, 127
1, 174954, Note_on_c, 1, 58, 127
1, 175041, Note_off_c, 1, 75, 0
1, 175044, Note_on_c, 1, 74, 127
1, 175131, Note_off_c, 1, 58, 0
1, 175133, Note_on_c, 1, 56, 127
1, 175298, Note_off_c, 1, 74, 0
1, 175310, Note_off_c, 1, 56, 0
1, 175313, Note_on_c, 1, 72, 127
1, 175313, Note_on_c, 1, 55, 127
1, 175400, Note_off_c, 1, 72, 0
1, 175403, Note_on_c, 1, 70, 127
1, 175490, Note_off_c, 1, 55, 0
1, 175492, Note_on_c, 1, 53, 127
1, 175627, Note_off_c, 1, 70, 0
1, 175669, Note_off_c, 1, 53, 0
1, 175672, Note_on_c, 1, 75, 127
1, 175672, Note_on_c, 1, 51, 127
1, 175849, Note_off_c, 1, 75, 0
1, 175851, Note_on_c, 1, 70, 127
1, 176028, Note_off_c, 1, 70, 0
1, 176031, Note_on_c, 1, 72, 127
1, 176208, Note_off_c, 1, 72, 0
1, 176210, Note_on_c, 1, 68, 127
1, 176270, Note_off_c, 1, 51, 0
1, 176387, Note_off_c, 1, 68, 0
1, 176390, Note_on_c, 1, 68, 127
1, 176390, Note_on_c, 1, 63, 127
1, 176449, Note_off_c, 1, 68, 0
1, 176450, Note_on_c, 1, 67, 127
1, 176509, Note_off_c, 1, 67, 0
1, 176567, Note_off_c, 1, 63, 0
1, 176569, Note_on_c, 1, 58, 127
1, 176746, Note_off_c, 1, 58, 0
1, 176749, Note_on_c, 1, 60, 127
1, 176926, Note_off_c, 1, 60, 0
1, 176928, Note_on_c, 1, 68, 127
1, 176928, Note_on_c, 1, 56, 127
1, 177105, Note_off_c, 1, 68, 0
1, 177105, Note_off_c, 1, 56, 0
1, 177108, Note_on_c, 1, 70, 127
1, 177108, Note_on_c, 1, 55, 127
1, 177285, Note_off_c, 1, 70, 0
1, 177288, Note_on_c, 1, 65, 127
1, 177465, Note_off_c, 1, 65, 0
1, 177467, Note_on_c, 1, 67, 127
1, 177612, Note_off_c, 1, 55, 0
1, 177644, Note_off_c, 1, 67, 0
1, 177647, Note_on_c, 1, 75, 127
1, 177647, Note_on_c, 1, 57, 127
1, 177824, Note_off_c, 1, 75, 0
1, 177824, Note_off_c, 1, 57, 0
1, 177826, Note_on_c, 1, 75, 127
1, 177826, Note_on_c, 1, 58, 127
1, 177885, Note_off_c, 1, 75, 0
1, 177886, Note_on_c, 1, 74, 127
1, 177945, Note_off_c, 1, 74, 0
1, 178003, Note_off_c, 1, 58, 0
1, 178006, Note_on_c, 1, 53, 127
1, 178006, Note_on_c, 1, 74, 127
1, 178183, Note_off_c, 1, 53, 0
1, 178185, Note_on_c, 1, 55, 127
1, 178273, Note_off_c, 1, 74, 0
1, 178362, Note_off_c, 1, 55, 0
1, 178365, Note_on_c, 1, 75, 127
1, 178365, Note_on_c, 1, 51, 127
1, 178542, Note_off_c, 1, 75, 0
1, 178542, Note_off_c, 1, 51, 0
1, 178544, Note_on_c, 1, 50, 127
1, 178544, Note_on_c, 1, 77, 127
1, 178724, Note_on_c, 1, 72, 127
1, 178880, Note_off_c, 1, 50, 0
1, 178899, Note_off_c, 1, 77, 0
1, 178901, Note_off_c, 1, 72, 0
1, 178903, Note_on_c, 1, 74, 127
1, 178903, Note_on_c, 1, 46, 127
1, 179080, Note_off_c, 1, 74, 0
1, 179083, Note_on_c, 1, 70, 127
1, 179239, Note_off_c, 1, 46, 0
1, 179260, Note_off_c, 1, 70, 0
1, 179262, Note_on_c, 1, 69, 127
1, 179262, Note_on_c, 1, 51, 127
1, 179442, Note_on_c, 1, 79, 127
1, 179467, Note_off_c, 1, 69, 0
1, 179619, Note_off_c, 1, 51, 0
1, 179619, Note_off_c, 1, 79, 0
1, 179621, Note_on_c, 1, 50, 127
1, 179621, Note_on_c, 1, 77, 127
1, 179798, Note_off_c, 1, 50, 0
1, 179801, Note_on_c, 1, 70, 127
1, 179801, Note_on_c, 1, 51, 127
1, 179882, Note_off_c, 1, 77, 0
1, 179978, Note_off_c, 1, 70, 0
1, 179978, Note_off_c, 1, 51, 0
1, 179980, Note_on_c, 1, 74, 127
1, 179980, Note_on_c, 1, 53, 127
1, 180157, Note_off_c, 1, 74, 0
1, 180160, Note_on_c, 1, 72, 127
1, 180337, Note_off_c, 1, 72, 0
1, 180339, Note_on_c, 1, 70, 127
1, 180339, Note_on_c, 1, 41, 127
1, 180354, Note_off_c, 1, 53, 0
1, 180516, Note_off_c, 1, 70, 0
1, 180519, Note_on_c, 1, 69, 127
1, 180675, Note_off_c, 1, 41, 0
1, 180696, Note_off_c, 1, 69, 0
1, 180698, Note_on_c, 1, 70, 127
1, 180698, Note_on_c, 1, 46, 127
1, 181221, Note_off_c, 1, 70, 0
1, 181414, Note_off_c, 1, 46, 0
1, 181416, Note_on_c, 1, 77, 127
1, 181593, Note_off_c, 1, 77, 0
1, 181596, Note_on_c, 1, 72, 127
1, 181773, Note_off_c, 1, 72, 0
1, 181776, Note_on_c, 1, 74, 127
1, 181953, Note_off_c, 1, 74, 0
1, 181955, Note_on_c, 1, 70, 127
1, 182132, Note_off_c, 1, 70, 0
1, 182135, Note_on_c, 1, 80, 127
1, 182135, Note_on_c, 1, 53, 127
1, 182222, Note_off_c, 1, 80, 0
1, 182224, Note_on_c, 1, 79, 127
1, 182311, Note_off_c, 1, 79, 0
1, 182312, Note_off_c, 1, 53, 0
1, 182314, Note_on_c, 1, 48, 127
1, 182314, Note_on_c, 1, 80, 127
1, 182491, Note_off_c, 1, 48, 0
1, 182494, Note_on_c, 1, 50, 127
1, 182671, Note_off_c, 1, 80, 0
1, 182671, Note_off_c, 1, 50, 0
1, 182673, Note_on_c, 1, 70, 127
1, 182673, Note_on_c, 1, 46, 127
1, 182850, Note_off_c, 1, 70, 0
1, 182850, Note_off_c, 1, 46, 0
1, 182853, Note_on_c, 1, 74, 127
1, 182853, Note_on_c, 1, 58, 127
1, 183030, Note_off_c, 1, 74, 0
1, 183032, Note_on_c, 1, 77, 127
1, 183209, Note_off_c, 1, 77, 0
1, 183212, Note_on_c, 1, 80, 127
1, 183357, Note_off_c, 1, 58, 0
1, 183389, Note_off_c, 1, 80, 0
1, 183391, Note_on_c, 1, 77, 127
1, 183391, Note_on_c, 1, 50, 127
1, 183568, Note_off_c, 1, 77, 0
1, 183568, Note_off_c, 1, 50, 0
1, 183571, Note_on_c, 1, 79, 127
1, 183571, Note_on_c, 1, 51, 127
1, 183658, Note_off_c, 1, 79, 0
1, 183660, Note_on_c, 1, 77, 127
1, 183747, Note_off_c, 1, 77, 0
1, 183748, Note_off_c, 1, 51, 0
1, 183750, Note_on_c, 1, 47, 127
1, 183750, Note_on_c, 1, 79, 127
1, 183927, Note_off_c, 1, 47, 0
1, 183930, Note_on_c, 1, 48, 127
1, 184107, Note_off_c, 1, 48, 0
1, 184109, Note_on_c, 1, 43, 127
1, 184286, Note_off_c, 1, 43, 0
1, 184289, Note_on_c, 1, 44, 127
1, 184348, Note_off_c, 1, 79, 0
1, 184468, Note_on_c, 1, 74, 127
1, 184645, Note_off_c, 1, 74, 0
1, 184648, Note_on_c, 1, 75, 127
1, 184825, Note_off_c, 1, 75, 0
1, 184827, Note_on_c, 1, 72, 127
1, 185004, Note_off_c, 1, 72, 0
1, 185007, Note_on_c, 1, 77, 127
1, 185184, Note_off_c, 1, 77, 0
1, 185186, Note_off_c, 1, 44, 0
1, 185366, Note_on_c, 1, 74, 127
1, 185366, Note_on_c, 1, 56, 127
1, 185543, Note_off_c, 1, 74, 0
1, 185545, Note_on_c, 1, 71, 127
1, 185722, Note_off_c, 1, 71, 0
1, 185723, Note_off_c, 1, 56, 0
1, 185725, Note_on_c, 1, 75, 127
1, 185725, Note_on_c, 1, 55, 127
1, 185902, Note_off_c, 1, 75, 0
1, 185904, Note_on_c, 1, 71, 127
1, 186081, Note_off_c, 1, 71, 0
1, 186082, Note_off_c, 1, 55, 0
1, 186084, Note_on_c, 1, 72, 127
1, 186084, Note_on_c, 1, 54, 127
1, 186261, Note_off_c, 1, 72, 0
1, 186264, Note_on_c, 1, 69, 127
1, 186441, Note_off_c, 1, 54, 0
1, 186441, Note_off_c, 1, 69, 0
1, 186443, Note_on_c, 1, 72, 127
1, 186443, Note_on_c, 1, 55, 127
1, 186620, Note_off_c, 1, 72, 0
1, 186623, Note_on_c, 1, 71, 127
1, 186800, Note_off_c, 1, 55, 0
1, 186800, Note_off_c, 1, 71, 0
1, 186802, Note_on_c, 1, 69, 127
1, 186802, Note_on_c, 1, 53, 127
1, 186979, Note_off_c, 1, 69, 0
1, 186982, Note_on_c, 1, 67, 127
1, 187139, Note_off_c, 1, 67, 0
1, 187159, Note_off_c, 1, 53, 0
1, 187161, Note_on_c, 1, 79, 127
1, 187161, Note_on_c, 1, 51, 127
1, 187338, Note_off_c, 1, 79, 0
1, 187341, Note_on_c, 1, 74, 127
1, 187497, Note_off_c, 1, 51, 0
1, 187518, Note_off_c, 1, 74, 0
1, 187520, Note_on_c, 1, 75, 127
1, 187520, Note_on_c, 1, 48, 127
1, 187697, Note_off_c, 1, 75, 0
1, 187700, Note_on_c, 1, 72, 127
1, 187856, Note_off_c, 1, 48, 0
1, 187877, Note_off_c, 1, 72, 0
1, 187879, Note_on_c, 1, 49, 127
1, 187879, Note_on_c, 1, 82, 127
1, 188056, Note_off_c, 1, 49, 0
1, 188059, Note_on_c, 1, 53, 127
1, 188236, Note_off_c, 1, 53, 0
1, 188238, Note_on_c, 1, 55, 127
1, 188327, Note_off_c, 1, 82, 0
1, 188415, Note_off_c, 1, 55, 0
1, 188418, Note_on_c, 1, 72, 127
1, 188418, Note_on_c, 1, 58, 127
1, 188595, Note_off_c, 1, 72, 0
1, 188595, Note_off_c, 1, 58, 0
1, 188597, Note_on_c, 1, 73, 127
1, 188597, Note_on_c, 1, 52, 127
1, 188774, Note_off_c, 1, 73, 0
1, 188777, Note_on_c, 1, 70, 127
1, 188933, Note_off_c, 1, 52, 0
1, 188954, Note_off_c, 1, 70, 0
1, 188956, Note_on_c, 1, 72, 127
1, 188956, Note_on_c, 1, 48, 127
1, 189133, Note_off_c, 1, 72, 0
1, 189136, Note_on_c, 1, 82, 127
1, 189292, Note_off_c, 1, 48, 0
1, 189313, Note_off_c, 1, 82, 0
1, 189315, Note_on_c, 1, 53, 127
1, 189315, Note_on_c, 1, 80, 127
1, 189492, Note_off_c, 1, 53, 0
1, 189495, Note_on_c, 1, 52, 127
1, 189672, Note_off_c, 1, 52, 0
1, 189763, Note_off_c, 1, 80, 0
1, 189854, Note_on_c, 1, 79, 127
1, 189854, Note_on_c, 1, 48, 127
1, 190031, Note_off_c, 1, 79, 0
1, 190031, Note_off_c, 1, 48, 0
1, 190033, Note_on_c, 1, 77, 127
1, 190033, Note_on_c, 1, 56, 127
1, 190210, Note_off_c, 1, 77, 0
1, 190213, Note_on_c, 1, 72, 127
1, 190390, Note_off_c, 1, 56, 0
1, 190390, Note_off_c, 1, 72, 0
1, 190392, Note_on_c, 1, 74, 127
1, 190392, Note_on_c, 1, 55, 127
1, 190569, Note_off_c, 1, 74, 0
1, 190569, Note_off_c, 1, 55, 0
1, 190572, Note_on_c, 1, 71, 127
1, 190572, Note_on_c, 1, 53, 127
1, 190749, Note_off_c, 1, 71, 0
1, 190749, Note_off_c, 1, 53, 0
1, 190752, Note_on_c, 1, 79, 127
1, 190752, Note_on_c, 1, 51, 127
1, 190929, Note_off_c, 1, 79, 0
1, 190931, Note_on_c, 1, 74, 127
1, 191088, Note_off_c, 1, 51, 0
1, 191108, Note_off_c, 1, 74, 0
1, 191111, Note_on_c, 1, 75, 127
1, 191111, Note_on_c, 1, 48, 127
1, 191288, Note_off_c, 1, 75, 0
1, 191290, Note_on_c, 1, 72, 127
1, 191447, Note_off_c, 1, 48, 0
1, 191467, Note_off_c, 1, 72, 0
1, 191470, Note_on_c, 1, 67, 127
1, 191470, Note_on_c, 1, 55, 127
1, 191647, Note_off_c, 1, 67, 0
1, 191649, Note_on_c, 1, 72, 127
1, 191826, Note_off_c, 1, 72, 0
1, 191829, Note_on_c, 1, 74, 127
1, 191829, Note_on_c, 1, 43, 127
1, 191844, Note_off_c, 1, 55, 0
1, 192006, Note_off_c, 1, 74, 0
1, 192008, Note_on_c, 1, 71, 127
1, 192165, Note_off_c, 1, 43, 0
1, 192185, Note_off_c, 1, 71, 0
1, 192188, Note_on_c, 1, 72, 127
1, 192188, Note_on_c, 1, 60, 127
1, 192275, Note_off_c, 1, 72, 0
1, 192277, Note_on_c, 1, 71, 127
1, 192364, Note_off_c, 1, 71, 0
1, 192365, Note_off_c, 1, 60, 0
1, 192367, Note_on_c, 1, 55, 127
1, 192367, Note_on_c, 1, 72, 127
1, 192544, Note_off_c, 1, 55, 0
1, 192547, Note_on_c, 1, 56, 127
1, 192724, Note_off_c, 1, 56, 0
1, 192726, Note_on_c, 1, 53, 127
1, 192890, Note_off_c, 1, 72, 0
1, 192903, Note_off_c, 1, 53, 0
1, 192906, Note_on_c, 1, 52, 127
1, 193085, Note_on_c, 1, 77, 127
1, 193242, Note_off_c, 1, 52, 0
1, 193262, Note_off_c, 1, 77, 0
1, 193265, Note_on_c, 1, 76, 127
1, 193265, Note_on_c, 1, 48, 127
1, 193442, Note_off_c, 1, 76, 0
1, 193444, Note_on_c, 1, 82, 127
1, 193601, Note_off_c, 1, 48, 0
1, 193621, Note_off_c, 1, 82, 0
1, 193624, Note_on_c, 1, 80, 127
1, 193624, Note_on_c, 1, 53, 127
1, 193801, Note_off_c, 1, 80, 0
1, 193801, Note_off_c, 1, 53, 0
1, 193803, Note_on_c, 1, 76, 127
1, 193803, Note_on_c, 1, 55, 127
1, 193980, Note_off_c, 1, 76, 0
1, 193980, Note_off_c, 1, 55, 0
1, 193983, Note_on_c, 1, 77, 127
1, 193983, Note_on_c, 1, 56, 127
1, 194160, Note_off_c, 1, 77, 0
1, 194160, Note_off_c, 1, 56, 0
1, 194162, Note_on_c, 1, 74, 127
1, 194162, Note_on_c, 1, 53, 127
1, 194339, Note_off_c, 1, 74, 0
1, 194339, Note_off_c, 1, 53, 0
1, 194342, Note_on_c, 1, 70, 127
1, 194342, Note_on_c, 1, 50, 127
1, 194519, Note_off_c, 1, 70, 0
1, 194521, Note_on_c, 1, 75, 127
1, 194678, Note_off_c, 1, 50, 0
1, 194698, Note_off_c, 1, 75, 0
1, 194701, Note_on_c, 1, 74, 127
1, 194701, Note_on_c, 1, 46, 127
1, 194878, Note_off_c, 1, 74, 0
1, 194880, Note_on_c, 1, 80, 127
1, 195037, Note_off_c, 1, 46, 0
1, 195057, Note_off_c, 1, 80, 0
1, 195060, Note_on_c, 1, 79, 127
1, 195060, Note_on_c, 1, 51, 127
1, 195237, Note_off_c, 1, 79, 0
1, 195237, Note_off_c, 1, 51, 0
1, 195240, Note_on_c, 1, 74, 127
1, 195240, Note_on_c, 1, 53, 127
1, 195417, Note_off_c, 1, 74, 0
1, 195417, Note_off_c, 1, 53, 0
1, 195419, Note_on_c, 1, 75, 127
1, 195419, Note_on_c, 1, 55, 127
1, 195596, Note_off_c, 1, 75, 0
1, 195596, Note_off_c, 1, 55, 0
1, 195599, Note_on_c, 1, 72, 127
1, 195599, Note_on_c, 1, 51, 127
1, 195776, Note_off_c, 1, 72, 0
1, 195776, Note_off_c, 1, 51, 0
1, 195778, Note_on_c, 1, 48, 127
1, 195778, Note_on_c, 1, 68, 127
1, 195955, Note_off_c, 1, 48, 0
1, 195958, Note_on_c, 1, 75, 127
1, 195958, Note_on_c, 1, 55, 127
1, 196135, Note_off_c, 1, 75, 0
1, 196135, Note_off_c, 1, 55, 0
1, 196137, Note_on_c, 1, 74, 127
1, 196137, Note_on_c, 1, 53, 127
1, 196301, Note_off_c, 1, 68, 0
1, 196314, Note_off_c, 1, 74, 0
1, 196314, Note_off_c, 1, 53, 0
1, 196317, Note_on_c, 1, 77, 127
1, 196317, Note_on_c, 1, 56, 127
1, 196494, Note_off_c, 1, 77, 0
1, 196494, Note_off_c, 1, 56, 0
1, 196496, Note_on_c, 1, 46, 127
1, 196496, Note_on_c, 1, 67, 127
1, 196673, Note_off_c, 1, 46, 0
1, 196676, Note_on_c, 1, 74, 127
1, 196676, Note_on_c, 1, 55, 127
1, 196853, Note_off_c, 1, 74, 0
1, 196853, Note_off_c, 1, 55, 0
1, 196855, Note_on_c, 1, 72, 127
1, 196855, Note_on_c, 1, 51, 127
1, 197019, Note_off_c, 1, 67, 0
1, 197032, Note_off_c, 1, 72, 0
1, 197032, Note_off_c, 1, 51, 0
1, 197035, Note_on_c, 1, 75, 127
1, 197035, Note_on_c, 1, 55, 127
1, 197212, Note_off_c, 1, 75, 0
1, 197212, Note_off_c, 1, 55, 0
1, 197214, Note_on_c, 1, 44, 127
1, 197214, Note_on_c, 1, 65, 127
1, 197391, Note_off_c, 1, 44, 0
1, 197394, Note_on_c, 1, 72, 127
1, 197394, Note_on_c, 1, 51, 127
1, 197571, Note_off_c, 1, 72, 0
1, 197571, Note_off_c, 1, 51, 0
1, 197573, Note_on_c, 1, 70, 127
1, 197573, Note_on_c, 1, 49, 127
1, 197737, Note_off_c, 1, 65, 0
1, 197750, Note_off_c, 1, 70, 0
1, 197750, Note_off_c, 1, 49, 0
1, 197753, Note_on_c, 1, 53, 127
1, 197753, Note_on_c, 1, 73, 127
1, 197930, Note_off_c, 1, 53, 0
1, 197932, Note_on_c, 1, 46, 127
1, 197932, Note_on_c, 1, 63, 127
1, 198109, Note_off_c, 1, 46, 0
1, 198112, Note_on_c, 1, 41, 127
1, 198289, Note_off_c, 1, 41, 0
1, 198291, Note_on_c, 1, 43, 127
1, 198468, Note_off_c, 1, 43, 0
1, 198471, Note_on_c, 1, 39, 127
1, 198567, Note_off_c, 1, 63, 0
1, 198648, Note_off_c, 1, 39, 0
1, 198650, Note_off_c, 1, 73, 0
1, 198650, Note_on_c, 1, 72, 127
1, 198650, Note_on_c, 1, 44, 127
1, 198831, Note_off_c, 1, 72, 0
1, 198834, Note_on_c, 1, 67, 127
1, 198995, Note_off_c, 1, 44, 0
1, 199015, Note_off_c, 1, 67, 0
1, 199019, Note_on_c, 1, 68, 127
1, 199019, Note_on_c, 1, 41, 127
1, 199200, Note_off_c, 1, 68, 0
1, 199204, Note_on_c, 1, 65, 127
1, 199364, Note_off_c, 1, 41, 0
1, 199385, Note_off_c, 1, 65, 0
1, 199389, Note_on_c, 1, 62, 127
1, 199389, Note_on_c, 1, 46, 127
1, 199577, Note_off_c, 1, 62, 0
1, 199582, Note_on_c, 1, 72, 127
1, 199770, Note_off_c, 1, 72, 0
1, 199778, Note_on_c, 1, 70, 127
1, 199918, Note_off_c, 1, 46, 0
1, 199966, Note_off_c, 1, 70, 0
1, 199974, Note_on_c, 1, 50, 127
1, 199974, Note_on_c, 1, 80, 127
1, 200162, Note_off_c, 1, 50, 0
1, 200162, Note_off_c, 1, 80, 0
1, 200171, Note_on_c, 1, 51, 127
1, 200171, Note_on_c, 1, 79, 127
1, 200371, Note_off_c, 1, 51, 0
1, 200371, Note_off_c, 1, 79, 0
1, 200375, Note_on_c, 1, 55, 127
1, 200375, Note_on_c, 1, 75, 127
1, 200575, Note_off_c, 1, 55, 0
1, 200575, Note_off_c, 1, 75, 0
1, 200586, Note_on_c, 1, 58, 127
1, 200586, Note_on_c, 1, 70, 127
1, 200796, Note_off_c, 1, 58, 0
1, 200796, Note_off_c, 1, 70, 0
1, 200823, Note_on_c, 1, 46, 127
1, 200823, Note_on_c, 1, 74, 127
1, 201093, Note_off_c, 1, 46, 0
1, 201093, Note_off_c, 1, 74, 0
1, 201122, Note_on_c, 1, 39, 127
1, 201122, Note_on_c, 1, 75, 127
1, 203522, Note_off_c, 1, 39, 0
1, 203522, Note_off_c, 1, 75, 0
1, 205051, Note_on_c, 1, 67, 127
1, 205051, Note_on_c, 1, 51, 127
1, 205239, Note_off_c, 1, 67, 0
1, 205239, Note_off_c, 1, 51, 0
1, 205242, Note_on_c, 1, 70, 127
1, 205242, Note_on_c, 1, 53, 127
1, 205430, Note_off_c, 1, 70, 0
1, 205430, Note_off_c, 1, 53, 0
1, 205433, Note_on_c, 1, 75, 127
1, 205433, Note_on_c, 1, 55, 127
1, 205621, Note_off_c, 1, 75, 0
1, 205623, Note_on_c, 1, 73, 127
1, 205811, Note_off_c, 1, 73, 0
1, 205812, Note_off_c, 1, 55, 0
1, 205814, Note_on_c, 1, 73, 127
1, 205814, Note_on_c, 1, 51, 127
1, 206002, Note_off_c, 1, 73, 0
1, 206005, Note_on_c, 1, 72, 127
1, 206193, Note_off_c, 1, 51, 0
1, 206193, Note_off_c, 1, 72, 0
1, 206195, Note_on_c, 1, 72, 127
1, 206195, Note_on_c, 1, 56, 127
1, 206383, Note_off_c, 1, 72, 0
1, 206386, Note_on_c, 1, 75, 127
1, 206574, Note_off_c, 1, 56, 0
1, 206574, Note_off_c, 1, 75, 0
1, 206577, Note_on_c, 1, 70, 127
1, 206577, Note_on_c, 1, 55, 127
1, 206765, Note_off_c, 1, 70, 0
1, 206768, Note_on_c, 1, 75, 127
1, 206956, Note_off_c, 1, 55, 0
1, 206956, Note_off_c, 1, 75, 0
1, 206958, Note_on_c, 1, 68, 127
1, 206958, Note_on_c, 1, 53, 127
1, 207146, Note_off_c, 1, 68, 0
1, 207149, Note_on_c, 1, 77, 127
1, 207337, Note_off_c, 1, 53, 0
1, 207337, Note_off_c, 1, 77, 0
1, 207340, Note_on_c, 1, 68, 127
1, 207340, Note_on_c, 1, 51, 127
1, 207403, Note_off_c, 1, 68, 0
1, 207403, Note_on_c, 1, 67, 127
1, 207466, Note_off_c, 1, 67, 0
1, 207528, Note_off_c, 1, 51, 0
1, 207531, Note_on_c, 1, 58, 127
1, 207531, Note_on_c, 1, 67, 127
1, 207719, Note_off_c, 1, 58, 0
1, 207721, Note_on_c, 1, 63, 127
1, 207909, Note_off_c, 1, 63, 0
1, 207912, Note_on_c, 1, 61, 127
1, 208100, Note_off_c, 1, 61, 0
1, 208187, Note_off_c, 1, 67, 0
1, 208295, Note_on_c, 1, 68, 127
1, 208295, Note_on_c, 1, 60, 127
1, 208388, Note_off_c, 1, 68, 0
1, 208391, Note_on_c, 1, 70, 127
1, 208483, Note_off_c, 1, 60, 0
1, 208484, Note_off_c, 1, 70, 0
1, 208486, Note_on_c, 1, 70, 127
1, 208486, Note_on_c, 1, 60, 127
1, 208579, Note_off_c, 1, 70, 0
1, 208582, Note_on_c, 1, 68, 127
1, 208674, Note_off_c, 1, 60, 0
1, 208675, Note_off_c, 1, 68, 0
1, 208677, Note_on_c, 1, 70, 127
1, 208677, Note_on_c, 1, 63, 127
1, 208770, Note_off_c, 1, 70, 0
1, 208772, Note_on_c, 1, 68, 127
1, 208865, Note_off_c, 1, 63, 0
1, 208865, Note_off_c, 1, 68, 0
1, 208868, Note_on_c, 1, 58, 127
1, 208868, Note_on_c, 1, 67, 127
1, 209056, Note_off_c, 1, 58, 0
1, 209058, Note_on_c, 1, 63, 127
1, 209246, Note_off_c, 1, 63, 0
1, 209247, Note_off_c, 1, 67, 0
1, 209249, Note_on_c, 1, 56, 127
1, 209249, Note_on_c, 1, 72, 127
1, 209437, Note_off_c, 1, 56, 0
1, 209440, Note_on_c, 1, 65, 127
1, 209608, Note_off_c, 1, 72, 0
1, 209630, Note_off_c, 1, 65, 0
1, 209633, Note_on_c, 1, 70, 127
1, 209633, Note_on_c, 1, 55, 127
1, 209821, Note_off_c, 1, 70, 0
1, 209821, Note_off_c, 1, 55, 0
1, 209823, Note_on_c, 1, 75, 127
1, 209823, Note_on_c, 1, 58, 127
1, 210011, Note_off_c, 1, 75, 0
1, 210011, Note_off_c, 1, 58, 0
1, 210014, Note_on_c, 1, 79, 127
1, 210014, Note_on_c, 1, 63, 127
1, 210202, Note_off_c, 1, 79, 0
1, 210205, Note_on_c, 1, 77, 127
1, 210393, Note_off_c, 1, 63, 0
1, 210393, Note_off_c, 1, 77, 0
1, 210395, Note_on_c, 1, 77, 127
1, 210395, Note_on_c, 1, 62, 127
1, 210583, Note_off_c, 1, 77, 0
1, 210586, Note_on_c, 1, 75, 127
1, 210774, Note_off_c, 1, 62, 0
1, 210774, Note_off_c, 1, 75, 0
1, 210777, Note_on_c, 1, 69, 127
1, 210777, Note_on_c, 1, 60, 127
1, 210965, Note_off_c, 1, 69, 0
1, 210965, Note_off_c, 1, 60, 0
1, 210968, Note_on_c, 1, 72, 127
1, 210968, Note_on_c, 1, 57, 127
1, 211156, Note_off_c, 1, 72, 0
1, 211156, Note_off_c, 1, 57, 0
1, 211158, Note_on_c, 1, 75, 127
1, 211158, Note_on_c, 1, 53, 127
1, 211346, Note_off_c, 1, 75, 0
1, 211349, Note_on_c, 1, 74, 127
1, 211537, Note_off_c, 1, 53, 0
1, 211537, Note_off_c, 1, 74, 0
1, 211540, Note_on_c, 1, 74, 127
1, 211540, Note_on_c, 1, 58, 127
1, 211728, Note_off_c, 1, 74, 0
1, 211731, Note_on_c, 1, 72, 127
1, 211919, Note_off_c, 1, 58, 0
1, 211919, Note_off_c, 1, 72, 0
1, 211921, Note_on_c, 1, 72, 127
1, 211921, Note_on_c, 1, 51, 127
1, 212112, Note_on_c, 1, 82, 127
1, 212160, Note_off_c, 1, 72, 0
1, 212302, Note_off_c, 1, 51, 0
1, 212302, Note_off_c, 1, 82, 0
1, 212305, Note_on_c, 1, 74, 127
1, 212305, Note_on_c, 1, 53, 127
1, 212495, Note_on_c, 1, 82, 127
1, 212544, Note_off_c, 1, 74, 0
1, 212685, Note_off_c, 1, 82, 0
1, 212686, Note_off_c, 1, 53, 0
1, 212688, Note_on_c, 1, 75, 127
1, 212688, Note_on_c, 1, 41, 127
1, 212879, Note_on_c, 1, 81, 127
1, 212906, Note_off_c, 1, 75, 0
1, 213067, Note_off_c, 1, 41, 0
1, 213067, Note_off_c, 1, 81, 0
1, 213070, Note_on_c, 1, 46, 127
1, 213070, Note_on_c, 1, 82, 127
1, 213258, Note_off_c, 1, 46, 0
1, 213260, Note_on_c, 1, 53, 127
1, 213448, Note_off_c, 1, 53, 0
1, 213449, Note_off_c, 1, 82, 0
1, 213451, Note_on_c, 1, 70, 127
1, 213451, Note_on_c, 1, 58, 127
1, 214010, Note_off_c, 1, 70, 0
1, 214215, Note_off_c, 1, 58, 0
1, 214218, Note_on_c, 1, 74, 127
1, 214218, Note_on_c, 1, 46, 127
1, 214406, Note_off_c, 1, 74, 0
1, 214406, Note_off_c, 1, 46, 0
1, 214409, Note_on_c, 1, 75, 127
1, 214409, Note_on_c, 1, 48, 127
1, 214502, Note_off_c, 1, 75, 0
1, 214504, Note_on_c, 1, 77, 127
1, 214597, Note_off_c, 1, 48, 0
1, 214597, Note_off_c, 1, 77, 0
1, 214599, Note_on_c, 1, 68, 127
1, 214599, Note_on_c, 1, 50, 127
1, 214787, Note_off_c, 1, 68, 0
1, 214790, Note_on_c, 1, 67, 127
1, 214978, Note_off_c, 1, 50, 0
1, 214978, Note_off_c, 1, 67, 0
1, 214981, Note_on_c, 1, 67, 127
1, 214981, Note_on_c, 1, 51, 127
1, 215169, Note_off_c, 1, 67, 0
1, 215171, Note_on_c, 1, 68, 127
1, 215359, Note_off_c, 1, 68, 0
1, 215360, Note_off_c, 1, 51, 0
1, 215362, Note_on_c, 1, 68, 127
1, 215362, Note_on_c, 1, 46, 127
1, 215550, Note_off_c, 1, 68, 0
1, 215550, Note_off_c, 1, 46, 0
1, 215553, Note_on_c, 1, 77, 127
1, 215553, Note_on_c, 1, 56, 127
1, 215741, Note_off_c, 1, 77, 0
1, 215741, Note_off_c, 1, 56, 0
1, 215744, Note_on_c, 1, 75, 127
1, 215744, Note_on_c, 1, 48, 127
1, 215837, Note_off_c, 1, 75, 0
1, 215839, Note_on_c, 1, 74, 127
1, 215932, Note_off_c, 1, 48, 0
1, 215932, Note_off_c, 1, 74, 0
1, 215934, Note_on_c, 1, 75, 127
1, 215934, Note_on_c, 1, 56, 127
1, 216027, Note_off_c, 1, 75, 0
1, 216030, Note_on_c, 1, 74, 127
1, 216122, Note_off_c, 1, 56, 0
1, 216123, Note_off_c, 1, 74, 0
1, 216125, Note_on_c, 1, 75, 127
1, 216125, Note_on_c, 1, 46, 127
1, 216218, Note_off_c, 1, 75, 0
1, 216221, Note_on_c, 1, 74, 127
1, 216313, Note_off_c, 1, 46, 0
1, 216314, Note_off_c, 1, 74, 0
1, 216316, Note_on_c, 1, 75, 127
1, 216316, Note_on_c, 1, 56, 127
1, 216409, Note_off_c, 1, 75, 0
1, 216411, Note_on_c, 1, 74, 127
1, 216504, Note_off_c, 1, 56, 0
1, 216504, Note_off_c, 1, 74, 0
1, 216507, Note_on_c, 1, 75, 127
1, 216507, Note_on_c, 1, 55, 127
1, 216695, Note_off_c, 1, 75, 0
1, 216695, Note_off_c, 1, 55, 0
1, 216697, Note_on_c, 1, 77, 127
1, 216697, Note_on_c, 1, 58, 127
1, 216790, Note_off_c, 1, 77, 0
1, 216793, Note_on_c, 1, 79, 127
1, 216885, Note_off_c, 1, 58, 0
1, 216886, Note_off_c, 1, 79, 0
1, 216888, Note_on_c, 1, 70, 127
1, 216888, Note_on_c, 1, 61, 127
1, 217076, Note_off_c, 1, 70, 0
1, 217079, Note_on_c, 1, 72, 127
1, 217267, Note_off_c, 1, 61, 0
1, 217267, Note_off_c, 1, 72, 0
1, 217270, Note_on_c, 1, 72, 127
1, 217270, Note_on_c, 1, 53, 127
1, 217458, Note_off_c, 1, 72, 0
1, 217460, Note_on_c, 1, 73, 127
1, 217648, Note_off_c, 1, 73, 0
1, 217649, Note_off_c, 1, 53, 0
1, 217651, Note_on_c, 1, 73, 127
1, 217651, Note_on_c, 1, 52, 127
1, 217839, Note_off_c, 1, 73, 0
1, 217839, Note_off_c, 1, 52, 0
1, 217842, Note_on_c, 1, 82, 127
1, 217842, Note_on_c, 1, 55, 127
1, 218030, Note_off_c, 1, 82, 0
1, 218030, Note_off_c, 1, 55, 0
1, 218033, Note_on_c, 1, 80, 127
1, 218033, Note_on_c, 1, 58, 127
1, 218096, Note_off_c, 1, 80, 0
1, 218096, Note_on_c, 1, 79, 127
1, 218159, Note_off_c, 1, 79, 0
1, 218221, Note_off_c, 1, 58, 0
1, 218223, Note_on_c, 1, 56, 127
1, 218411, Note_off_c, 1, 56, 0
1, 218605, Note_on_c, 1, 55, 127
1, 218793, Note_off_c, 1, 55, 0
1, 218796, Note_on_c, 1, 80, 127
1, 218796, Note_on_c, 1, 53, 127
1, 218983, Note_off_c, 1, 80, 0
1, 218984, Note_on_c, 1, 77, 127
1, 219171, Note_off_c, 1, 77, 0
1, 219173, Note_off_c, 1, 53, 0
1, 219175, Note_on_c, 1, 74, 127
1, 219175, Note_on_c, 1, 65, 127
1, 219362, Note_off_c, 1, 74, 0
1, 219366, Note_on_c, 1, 75, 127
1, 219552, Note_off_c, 1, 65, 0
1, 219553, Note_off_c, 1, 75, 0
1, 219557, Note_on_c, 1, 75, 127
1, 219557, Note_on_c, 1, 63, 127
1, 219747, Note_off_c, 1, 75, 0
1, 219755, Note_on_c, 1, 77, 127
1, 219944, Note_off_c, 1, 63, 0
1, 219949, Note_off_c, 1, 77, 0
1, 219957, Note_on_c, 1, 77, 127
1, 219957, Note_on_c, 1, 62, 127
1, 220153, Note_off_c, 1, 77, 0
1, 220161, Note_on_c, 1, 68, 127
1, 220357, Note_off_c, 1, 62, 0
1, 220357, Note_off_c, 1, 68, 0
1, 220364, Note_on_c, 1, 68, 127
1, 220364, Note_on_c, 1, 58, 127
1, 220564, Note_off_c, 1, 68, 0
1, 220572, Note_on_c, 1, 67, 127
1, 220772, Note_off_c, 1, 67, 0
1, 220775, Note_off_c, 1, 58, 0
1, 220781, Note_on_c, 1, 67, 127
1, 220781, Note_on_c, 1, 63, 127
1, 220981, Note_off_c, 1, 67, 0
1, 220991, Note_on_c, 1, 70, 127
1, 221161, Note_off_c, 1, 70, 0
1, 221192, Note_off_c, 1, 63, 0
1, 221204, Note_on_c, 1, 55, 127
1, 221204, Note_on_c, 1, 75, 127
1, 221415, Note_off_c, 1, 55, 0
1, 221415, Note_off_c, 1, 75, 0
1, 221423, Note_on_c, 1, 60, 127
1, 221423, Note_on_c, 1, 67, 127
1, 221634, Note_off_c, 1, 60, 0
1, 221634, Note_off_c, 1, 67, 0
1, 221645, Note_on_c, 1, 68, 127
1, 221645, Note_on_c, 1, 58, 127
1, 221706, Note_off_c, 1, 68, 0
1, 221718, Note_on_c, 1, 67, 127
1, 221779, Note_off_c, 1, 67, 0
1, 221854, Note_off_c, 1, 58, 0
1, 221866, Note_on_c, 1, 55, 127
1, 222079, Note_off_c, 1, 55, 0
1, 222087, Note_on_c, 1, 67, 127
1, 222087, Note_on_c, 1, 56, 127
1, 222187, Note_off_c, 1, 67, 0
1, 222197, Note_on_c, 1, 65, 127
1, 222296, Note_off_c, 1, 56, 0
1, 222297, Note_off_c, 1, 65, 0
1, 222306, Note_on_c, 1, 63, 127
1, 222306, Note_on_c, 1, 58, 127
1, 222406, Note_off_c, 1, 63, 0
1, 222416, Note_on_c, 1, 65, 127
1, 222515, Note_off_c, 1, 58, 0
1, 222516, Note_off_c, 1, 65, 0
1, 222526, Note_on_c, 1, 51, 127
1, 222526, Note_on_c, 1, 63, 127
1, 224326, Note_off_c, 1, 51, 0
1, 224326, Note_off_c, 1, 63, 0
1, 224463, Note_on_c, 1, 70, 127
1, 224463, Note_on_c, 1, 39, 127
1, 224575, Note_off_c, 1, 70, 0
1, 224577, Note_on_c, 1, 75, 127
1, 224689, Note_off_c, 1, 75, 0
1, 224691, Note_on_c, 1, 74, 127
1, 224803, Note_off_c, 1, 74, 0
1, 224805, Note_on_c, 1, 72, 127
1, 224913, Note_off_c, 1, 39, 0
1, 224917, Note_off_c, 1, 72, 0
1, 224919, Note_on_c, 1, 70, 127
1, 225031, Note_off_c, 1, 70, 0
1, 225033, Note_on_c, 1, 68, 127
1, 225145, Note_off_c, 1, 68, 0
1, 225147, Note_on_c, 1, 67, 127
1, 225259, Note_off_c, 1, 67, 0
1, 225262, Note_on_c, 1, 65, 127
1, 225374, Note_off_c, 1, 65, 0
1, 225376, Note_on_c, 1, 63, 127
1, 225488, Note_on_c, 1, 51, 127
1, 225600, Note_off_c, 1, 51, 0
1, 225602, Note_on_c, 1, 62, 127
1, 225714, Note_off_c, 1, 62, 0
1, 225716, Note_on_c, 1, 60, 127
1, 225824, Note_off_c, 1, 63, 0
1, 225828, Note_off_c, 1, 60, 0
1, 225830, Note_on_c, 1, 58, 127
1, 225942, Note_off_c, 1, 58, 0
1, 225944, Note_on_c, 1, 56, 127
1, 226056, Note_off_c, 1, 56, 0
1, 226058, Note_on_c, 1, 55, 127
1, 226058, Note_on_c, 1, 65, 127
1, 226170, Note_off_c, 1, 55, 0
1, 226172, Note_on_c, 1, 53, 127
1, 226258, Note_off_c, 1, 65, 0
1, 226282, Note_off_c, 1, 53, 0
1, 226284, Note_on_c, 1, 67, 127
1, 226284, Note_on_c, 1, 51, 127
1, 226396, Note_off_c, 1, 67, 0
1, 226399, Note_on_c, 1, 63, 127
1, 226510, Note_off_c, 1, 51, 0
1, 226511, Note_off_c, 1, 63, 0
1, 226513, Note_on_c, 1, 62, 127
1, 226513, Note_on_c, 1, 58, 127
1, 226625, Note_off_c, 1, 62, 0
1, 226627, Note_on_c, 1, 63, 127
1, 226726, Note_off_c, 1, 58, 0
1, 226739, Note_off_c, 1, 63, 0
1, 226741, Note_on_c, 1, 70, 127
1, 226741, Note_on_c, 1, 50, 127
1, 226853, Note_off_c, 1, 70, 0
1, 226855, Note_on_c, 1, 65, 127
1, 226954, Note_off_c, 1, 50, 0
1, 226967, Note_off_c, 1, 65, 0
1, 226969, Note_on_c, 1, 63, 127
1, 226969, Note_on_c, 1, 58, 127
1, 227081, Note_off_c, 1, 63, 0
1, 227083, Note_on_c, 1, 65, 127
1, 227182, Note_off_c, 1, 58, 0
1, 227195, Note_off_c, 1, 65, 0
1, 227197, Note_on_c, 1, 67, 127
1, 227197, Note_on_c, 1, 51, 127
1, 227309, Note_off_c, 1, 67, 0
1, 227311, Note_on_c, 1, 68, 127
1, 227423, Note_off_c, 1, 51, 0
1, 227423, Note_off_c, 1, 68, 0
1, 227425, Note_on_c, 1, 67, 127
1, 227425, Note_on_c, 1, 46, 127
1, 227537, Note_off_c, 1, 67, 0
1, 227539, Note_on_c, 1, 65, 127
1, 227638, Note_off_c, 1, 46, 0
1, 227651, Note_off_c, 1, 65, 0
1, 227653, Note_on_c, 1, 63, 127
1, 227653, Note_on_c, 1, 43, 127
1, 227765, Note_off_c, 1, 63, 0
1, 227767, Note_on_c, 1, 67, 127
1, 227866, Note_off_c, 1, 43, 0
1, 227879, Note_off_c, 1, 67, 0
1, 227881, Note_on_c, 1, 65, 127
1, 227881, Note_on_c, 1, 46, 127
1, 227993, Note_off_c, 1, 65, 0
1, 227996, Note_on_c, 1, 68, 127
1, 228094, Note_off_c, 1, 46, 0
1, 228108, Note_off_c, 1, 68, 0
1, 228110, Note_on_c, 1, 67, 127
1, 228110, Note_on_c, 1, 39, 127
1, 228222, Note_off_c, 1, 67, 0
1, 228224, Note_on_c, 1, 72, 127
1, 228336, Note_off_c, 1, 39, 0
1, 228336, Note_off_c, 1, 72, 0
1, 228338, Note_on_c, 1, 71, 127
1, 228338, Note_on_c, 1, 51, 127
1, 228450, Note_off_c, 1, 71, 0
1, 228452, Note_on_c, 1, 72, 127
1, 228551, Note_off_c, 1, 51, 0
1, 228564, Note_off_c, 1, 72, 0
1, 228566, Note_on_c, 1, 75, 127
1, 228566, Note_on_c, 1, 48, 127
1, 228678, Note_off_c, 1, 75, 0
1, 228680, Note_on_c, 1, 74, 127
1, 228779, Note_off_c, 1, 48, 0
1, 228792, Note_off_c, 1, 74, 0
1, 228794, Note_on_c, 1, 72, 127
1, 228794, Note_on_c, 1, 51, 127
1, 228906, Note_off_c, 1, 72, 0
1, 228908, Note_on_c, 1, 70, 127
1, 229007, Note_off_c, 1, 51, 0
1, 229020, Note_off_c, 1, 70, 0
1, 229022, Note_on_c, 1, 69, 127
1, 229022, Note_on_c, 1, 41, 127
1, 229134, Note_off_c, 1, 69, 0
1, 229136, Note_on_c, 1, 70, 127
1, 229248, Note_off_c, 1, 70, 0
1, 229364, Note_on_c, 1, 67, 127
1, 229472, Note_off_c, 1, 41, 0
1, 229476, Note_off_c, 1, 67, 0
1, 229478, Note_on_c, 1, 65, 127
1, 229590, Note_off_c, 1, 65, 0
1, 229592, Note_on_c, 1, 69, 127
1, 229704, Note_off_c, 1, 69, 0
1, 229707, Note_on_c, 1, 67, 127
1, 229819, Note_off_c, 1, 67, 0
1, 229821, Note_on_c, 1, 70, 127
1, 229933, Note_off_c, 1, 70, 0
1, 229935, Note_on_c, 1, 69, 127
1, 230047, Note_off_c, 1, 69, 0
1, 230049, Note_on_c, 1, 74, 127
1, 230161, Note_off_c, 1, 74, 0
1, 230163, Note_on_c, 1, 72, 127
1, 230163, Note_on_c, 1, 53, 127
1, 230275, Note_off_c, 1, 72, 0
1, 230277, Note_on_c, 1, 74, 127
1, 230376, Note_off_c, 1, 53, 0
1, 230389, Note_off_c, 1, 74, 0
1, 230391, Note_on_c, 1, 77, 127
1, 230391, Note_on_c, 1, 50, 127
1, 230503, Note_off_c, 1, 77, 0
1, 230505, Note_on_c, 1, 75, 127
1, 230604, Note_off_c, 1, 50, 0
1, 230617, Note_off_c, 1, 75, 0
1, 230619, Note_on_c, 1, 74, 127
1, 230619, Note_on_c, 1, 53, 127
1, 230731, Note_off_c, 1, 74, 0
1, 230733, Note_on_c, 1, 72, 127
1, 230832, Note_off_c, 1, 53, 0
1, 230845, Note_off_c, 1, 72, 0
1, 230847, Note_on_c, 1, 70, 127
1, 230847, Note_on_c, 1, 43, 127
1, 230959, Note_off_c, 1, 70, 0
1, 230961, Note_on_c, 1, 72, 127
1, 231073, Note_off_c, 1, 72, 0
1, 231189, Note_on_c, 1, 69, 127
1, 231297, Note_off_c, 1, 43, 0
1, 231301, Note_off_c, 1, 69, 0
1, 231304, Note_on_c, 1, 67, 127
1, 231416, Note_off_c, 1, 67, 0
1, 231418, Note_on_c, 1, 70, 127
1, 231530, Note_off_c, 1, 70, 0
1, 231532, Note_on_c, 1, 72, 127
1, 231644, Note_off_c, 1, 72, 0
1, 231646, Note_on_c, 1, 74, 127
1, 231758, Note_off_c, 1, 74, 0
1, 231760, Note_on_c, 1, 75, 127
1, 231872, Note_off_c, 1, 75, 0
1, 231874, Note_on_c, 1, 79, 127
1, 231986, Note_off_c, 1, 79, 0
1, 231988, Note_on_c, 1, 77, 127
1, 231988, Note_on_c, 1, 51, 127
1, 232100, Note_off_c, 1, 77, 0
1, 232102, Note_on_c, 1, 79, 127
1, 232201, Note_off_c, 1, 51, 0
1, 232214, Note_off_c, 1, 79, 0
1, 232216, Note_on_c, 1, 82, 127
1, 232216, Note_on_c, 1, 55, 127
1, 232328, Note_off_c, 1, 82, 0
1, 232330, Note_on_c, 1, 80, 127
1, 232429, Note_off_c, 1, 55, 0
1, 232442, Note_off_c, 1, 80, 0
1, 232444, Note_on_c, 1, 79, 127
1, 232444, Note_on_c, 1, 58, 127
1, 232556, Note_off_c, 1, 79, 0
1, 232558, Note_on_c, 1, 77, 127
1, 232657, Note_off_c, 1, 58, 0
1, 232670, Note_off_c, 1, 77, 0
1, 232672, Note_on_c, 1, 75, 127
1, 232672, Note_on_c, 1, 48, 127
1, 232784, Note_off_c, 1, 75, 0
1, 232786, Note_on_c, 1, 79, 127
1, 232898, Note_off_c, 1, 48, 0
1, 232898, Note_off_c, 1, 79, 0
1, 232901, Note_on_c, 1, 77, 127
1, 232901, Note_on_c, 1, 58, 127
1, 233013, Note_off_c, 1, 77, 0
1, 233015, Note_on_c, 1, 79, 127
1, 233114, Note_off_c, 1, 58, 0
1, 233127, Note_off_c, 1, 79, 0
1, 233129, Note_on_c, 1, 84, 127
1, 233129, Note_on_c, 1, 57, 127
1, 233241, Note_off_c, 1, 84, 0
1, 233243, Note_on_c, 1, 82, 127
1, 233342, Note_off_c, 1, 57, 0
1, 233355, Note_off_c, 1, 82, 0
1, 233357, Note_on_c, 1, 81, 127
1, 233357, Note_on_c, 1, 60, 127
1, 233469, Note_off_c, 1, 81, 0
1, 233471, Note_on_c, 1, 79, 127
1, 233570, Note_off_c, 1, 60, 0
1, 233583, Note_off_c, 1, 79, 0
1, 233585, Note_on_c, 1, 77, 127
1, 233585, Note_on_c, 1, 50, 127
1, 233697, Note_off_c, 1, 77, 0
1, 233699, Note_on_c, 1, 75, 127
1, 233811, Note_off_c, 1, 50, 0
1, 233811, Note_off_c, 1, 75, 0
1, 233813, Note_on_c, 1, 74, 127
1, 233813, Note_on_c, 1, 58, 127
1, 233925, Note_off_c, 1, 74, 0
1, 233925, Note_off_c, 1, 58, 0
1, 233927, Note_on_c, 1, 72, 127
1, 233927, Note_on_c, 1, 57, 127
1, 234039, Note_off_c, 1, 72, 0
1, 234039, Note_off_c, 1, 57, 0
1, 234041, Note_on_c, 1, 74, 127
1, 234041, Note_on_c, 1, 58, 127
1, 234153, Note_off_c, 1, 74, 0
1, 234155, Note_on_c, 1, 70, 127
1, 234254, Note_off_c, 1, 58, 0
1, 234267, Note_off_c, 1, 70, 0
1, 234269, Note_on_c, 1, 72, 127
1, 234269, Note_on_c, 1, 53, 127
1, 234381, Note_off_c, 1, 72, 0
1, 234383, Note_on_c, 1, 69, 127
1, 234482, Note_off_c, 1, 53, 0
1, 234495, Note_off_c, 1, 69, 0
1, 234497, Note_on_c, 1, 46, 127
1, 234497, Note_on_c, 1, 70, 127
1, 234721, Note_off_c, 1, 46, 0
1, 234724, Note_on_c, 1, 53, 127
1, 234948, Note_off_c, 1, 53, 0
1, 234950, Note_on_c, 1, 58, 127
1, 235173, Note_off_c, 1, 70, 0
1, 235398, Note_off_c, 1, 58, 0
1, 235401, Note_on_c, 1, 74, 127
1, 235401, Note_on_c, 1, 46, 127
1, 235513, Note_off_c, 1, 74, 0
1, 235515, Note_on_c, 1, 70, 127
1, 235627, Note_off_c, 1, 70, 0
1, 235629, Note_on_c, 1, 72, 127
1, 235741, Note_off_c, 1, 72, 0
1, 235851, Note_off_c, 1, 46, 0
1, 235857, Note_on_c, 1, 75, 127
1, 235969, Note_off_c, 1, 75, 0
1, 235971, Note_on_c, 1, 77, 127
1, 236083, Note_off_c, 1, 77, 0
1, 236085, Note_on_c, 1, 79, 127
1, 236197, Note_off_c, 1, 79, 0
1, 236199, Note_on_c, 1, 80, 127
1, 236311, Note_off_c, 1, 80, 0
1, 236313, Note_on_c, 1, 51, 127
1, 236313, Note_on_c, 1, 79, 127
1, 236425, Note_off_c, 1, 51, 0
1, 236427, Note_on_c, 1, 48, 127
1, 236539, Note_off_c, 1, 48, 0
1, 236541, Note_on_c, 1, 50, 127
1, 236653, Note_off_c, 1, 50, 0
1, 236763, Note_off_c, 1, 79, 0
1, 236770, Note_on_c, 1, 53, 127
1, 236882, Note_off_c, 1, 53, 0
1, 236884, Note_on_c, 1, 55, 127
1, 236996, Note_off_c, 1, 55, 0
1, 236998, Note_on_c, 1, 57, 127
1, 236998, Note_on_c, 1, 77, 127
1, 237110, Note_off_c, 1, 57, 0
1, 237112, Note_on_c, 1, 59, 127
1, 237198, Note_off_c, 1, 77, 0
1, 237222, Note_off_c, 1, 59, 0
1, 237224, Note_on_c, 1, 75, 127
1, 237224, Note_on_c, 1, 60, 127
1, 237336, Note_off_c, 1, 75, 0
1, 237338, Note_on_c, 1, 72, 127
1, 237450, Note_off_c, 1, 60, 0
1, 237450, Note_off_c, 1, 72, 0
1, 237452, Note_on_c, 1, 71, 127
1, 237452, Note_on_c, 1, 56, 127
1, 237564, Note_off_c, 1, 71, 0
1, 237566, Note_on_c, 1, 72, 127
1, 237665, Note_off_c, 1, 56, 0
1, 237678, Note_off_c, 1, 72, 0
1, 237680, Note_on_c, 1, 80, 127
1, 237680, Note_on_c, 1, 53, 127
1, 237792, Note_off_c, 1, 80, 0
1, 237794, Note_on_c, 1, 72, 127
1, 237893, Note_off_c, 1, 53, 0
1, 237906, Note_off_c, 1, 72, 0
1, 237908, Note_on_c, 1, 71, 127
1, 237908, Note_on_c, 1, 56, 127
1, 238020, Note_off_c, 1, 71, 0
1, 238022, Note_on_c, 1, 72, 127
1, 238121, Note_off_c, 1, 56, 0
1, 238134, Note_off_c, 1, 72, 0
1, 238137, Note_on_c, 1, 74, 127
1, 238137, Note_on_c, 1, 55, 127
1, 238249, Note_off_c, 1, 74, 0
1, 238251, Note_on_c, 1, 72, 127
1, 238363, Note_off_c, 1, 72, 0
1, 238365, Note_on_c, 1, 71, 127
1, 238477, Note_off_c, 1, 71, 0
1, 238479, Note_on_c, 1, 69, 127
1, 238587, Note_off_c, 1, 55, 0
1, 238591, Note_off_c, 1, 69, 0
1, 238593, Note_on_c, 1, 67, 127
1, 238705, Note_on_c, 1, 65, 127
1, 238817, Note_off_c, 1, 65, 0
1, 238819, Note_on_c, 1, 64, 127
1, 238922, Note_off_c, 1, 67, 0
1, 238929, Note_off_c, 1, 64, 0
1, 238931, Note_on_c, 1, 62, 127
1, 239043, Note_off_c, 1, 62, 0
1, 239045, Note_on_c, 1, 64, 127
1, 239158, Note_on_c, 1, 72, 127
1, 239267, Note_off_c, 1, 64, 0
1, 239270, Note_off_c, 1, 72, 0
1, 239272, Note_on_c, 1, 71, 127
1, 239272, Note_on_c, 1, 67, 127
1, 239384, Note_off_c, 1, 71, 0
1, 239386, Note_on_c, 1, 72, 127
1, 239485, Note_off_c, 1, 67, 0
1, 239498, Note_off_c, 1, 72, 0
1, 239500, Note_on_c, 1, 73, 127
1, 239500, Note_on_c, 1, 64, 127
1, 239612, Note_off_c, 1, 73, 0
1, 239614, Note_on_c, 1, 72, 127
1, 239713, Note_off_c, 1, 64, 0
1, 239726, Note_off_c, 1, 72, 0
1, 239728, Note_on_c, 1, 71, 127
1, 239728, Note_on_c, 1, 67, 127
1, 239840, Note_off_c, 1, 71, 0
1, 239842, Note_on_c, 1, 72, 127
1, 239941, Note_off_c, 1, 67, 0
1, 239954, Note_off_c, 1, 72, 0
1, 239956, Note_on_c, 1, 80, 127
1, 239956, Note_on_c, 1, 53, 127
1, 240068, Note_on_c, 1, 77, 127
1, 240178, Note_off_c, 1, 80, 0
1, 240178, Note_off_c, 1, 53, 0
1, 240180, Note_off_c, 1, 77, 0
1, 240182, Note_on_c, 1, 72, 127
1, 240294, Note_on_c, 1, 70, 127
1, 240406, Note_off_c, 1, 70, 0
1, 240409, Note_on_c, 1, 68, 127
1, 240511, Note_off_c, 1, 72, 0
1, 240519, Note_off_c, 1, 68, 0
1, 240521, Note_on_c, 1, 67, 127
1, 240633, Note_off_c, 1, 67, 0
1, 240635, Note_on_c, 1, 65, 127
1, 240747, Note_off_c, 1, 65, 0
1, 240749, Note_on_c, 1, 63, 127
1, 240861, Note_off_c, 1, 63, 0
1, 240863, Note_on_c, 1, 62, 127
1, 240975, Note_on_c, 1, 70, 127
1, 241087, Note_off_c, 1, 62, 0
1, 241087, Note_off_c, 1, 70, 0
1, 241089, Note_on_c, 1, 69, 127
1, 241089, Note_on_c, 1, 65, 127
1, 241201, Note_off_c, 1, 69, 0
1, 241203, Note_on_c, 1, 70, 127
1, 241302, Note_off_c, 1, 65, 0
1, 241315, Note_off_c, 1, 70, 0
1, 241317, Note_on_c, 1, 72, 127
1, 241317, Note_on_c, 1, 62, 127
1, 241429, Note_off_c, 1, 72, 0
1, 241431, Note_on_c, 1, 70, 127
1, 241530, Note_off_c, 1, 62, 0
1, 241543, Note_off_c, 1, 70, 0
1, 241546, Note_on_c, 1, 69, 127
1, 241546, Note_on_c, 1, 65, 127
1, 241658, Note_off_c, 1, 69, 0
1, 241660, Note_on_c, 1, 70, 127
1, 241759, Note_off_c, 1, 65, 0
1, 241772, Note_off_c, 1, 70, 0
1, 241774, Note_on_c, 1, 79, 127
1, 241774, Note_on_c, 1, 51, 127
1, 241886, Note_on_c, 1, 75, 127
1, 241996, Note_off_c, 1, 79, 0
1, 241996, Note_off_c, 1, 51, 0
1, 241998, Note_off_c, 1, 75, 0
1, 242000, Note_on_c, 1, 70, 127
1, 242112, Note_on_c, 1, 68, 127
1, 242224, Note_off_c, 1, 68, 0
1, 242226, Note_on_c, 1, 67, 127
1, 242329, Note_off_c, 1, 70, 0
1, 242336, Note_off_c, 1, 67, 0
1, 242338, Note_on_c, 1, 65, 127
1, 242450, Note_off_c, 1, 65, 0
1, 242452, Note_on_c, 1, 63, 127
1, 242564, Note_off_c, 1, 63, 0
1, 242567, Note_on_c, 1, 62, 127
1, 242679, Note_off_c, 1, 62, 0
1, 242681, Note_on_c, 1, 60, 127
1, 242793, Note_off_c, 1, 60, 0
1, 242795, Note_on_c, 1, 70, 127
1, 242907, Note_off_c, 1, 70, 0
1, 242909, Note_on_c, 1, 77, 127
1, 242909, Note_on_c, 1, 68, 127
1, 243021, Note_off_c, 1, 77, 0
1, 243021, Note_off_c, 1, 68, 0
1, 243023, Note_on_c, 1, 75, 127
1, 243023, Note_on_c, 1, 67, 127
1, 243135, Note_off_c, 1, 75, 0
1, 243135, Note_off_c, 1, 67, 0
1, 243137, Note_on_c, 1, 74, 127
1, 243137, Note_on_c, 1, 65, 127
1, 243249, Note_off_c, 1, 74, 0
1, 243249, Note_off_c, 1, 65, 0
1, 243251, Note_on_c, 1, 75, 127
1, 243251, Note_on_c, 1, 63, 127
1, 243363, Note_off_c, 1, 75, 0
1, 243363, Note_off_c, 1, 63, 0
1, 243365, Note_on_c, 1, 62, 127
1, 243365, Note_on_c, 1, 77, 127
1, 243477, Note_off_c, 1, 62, 0
1, 243479, Note_on_c, 1, 60, 127
1, 243591, Note_off_c, 1, 60, 0
1, 243593, Note_on_c, 1, 59, 127
1, 243695, Note_off_c, 1, 77, 0
1, 243703, Note_off_c, 1, 59, 0
1, 243705, Note_on_c, 1, 68, 127
1, 243817, Note_off_c, 1, 68, 0
1, 243819, Note_on_c, 1, 75, 127
1, 243819, Note_on_c, 1, 67, 127
1, 243931, Note_off_c, 1, 75, 0
1, 243931, Note_off_c, 1, 67, 0
1, 243934, Note_on_c, 1, 74, 127
1, 243934, Note_on_c, 1, 65, 127
1, 244046, Note_off_c, 1, 74, 0
1, 244046, Note_off_c, 1, 65, 0
1, 244048, Note_on_c, 1, 72, 127
1, 244048, Note_on_c, 1, 63, 127
1, 244160, Note_off_c, 1, 72, 0
1, 244160, Note_off_c, 1, 63, 0
1, 244162, Note_on_c, 1, 74, 127
1, 244162, Note_on_c, 1, 62, 127
1, 244274, Note_off_c, 1, 74, 0
1, 244274, Note_off_c, 1, 62, 0
1, 244276, Note_on_c, 1, 60, 127
1, 244276, Note_on_c, 1, 75, 127
1, 244388, Note_off_c, 1, 60, 0
1, 244390, Note_on_c, 1, 58, 127
1, 244502, Note_off_c, 1, 58, 0
1, 244504, Note_on_c, 1, 56, 127
1, 244606, Note_off_c, 1, 75, 0
1, 244614, Note_off_c, 1, 56, 0
1, 244616, Note_on_c, 1, 55, 127
1, 244728, Note_off_c, 1, 55, 0
1, 244730, Note_on_c, 1, 74, 127
1, 244730, Note_on_c, 1, 56, 127
1, 244842, Note_off_c, 1, 74, 0
1, 244842, Note_off_c, 1, 56, 0
1, 244844, Note_on_c, 1, 72, 127
1, 244844, Note_on_c, 1, 53, 127
1, 244956, Note_off_c, 1, 72, 0
1, 244956, Note_off_c, 1, 53, 0
1, 244958, Note_on_c, 1, 79, 127
1, 244958, Note_on_c, 1, 55, 127
1, 245070, Note_off_c, 1, 79, 0
1, 245072, Note_on_c, 1, 77, 127
1, 245171, Note_off_c, 1, 55, 0
1, 245184, Note_off_c, 1, 77, 0
1, 245186, Note_on_c, 1, 75, 127
1, 245186, Note_on_c, 1, 43, 127
1, 245298, Note_off_c, 1, 75, 0
1, 245300, Note_on_c, 1, 74, 127
1, 245399, Note_off_c, 1, 43, 0
1, 245412, Note_off_c, 1, 74, 0
1, 245415, Note_on_c, 1, 72, 127
1, 245527, Note_on_c, 1, 48, 127
1, 245637, Note_off_c, 1, 72, 0
1, 245639, Note_off_c, 1, 48, 0
1, 245641, Note_on_c, 1, 50, 127
1, 245753, Note_off_c, 1, 50, 0
1, 245755, Note_on_c, 1, 51, 127
1, 245867, Note_off_c, 1, 51, 0
1, 245869, Note_on_c, 1, 53, 127
1, 245981, Note_off_c, 1, 53, 0
1, 245983, Note_on_c, 1, 55, 127
1, 246095, Note_off_c, 1, 55, 0
1, 246097, Note_on_c, 1, 57, 127
1, 246209, Note_off_c, 1, 57, 0
1, 246211, Note_on_c, 1, 59, 127
1, 246323, Note_off_c, 1, 59, 0
1, 246325, Note_on_c, 1, 60, 127
1, 246437, Note_on_c, 1, 72, 127
1, 246549, Note_off_c, 1, 60, 0
1, 246549, Note_off_c, 1, 72, 0
1, 246552, Note_on_c, 1, 74, 127
1, 246552, Note_on_c, 1, 58, 127
1, 246664, Note_off_c, 1, 74, 0
1, 246666, Note_on_c, 1, 75, 127
1, 246765, Note_off_c, 1, 58, 0
1, 246778, Note_off_c, 1, 75, 0
1, 246780, Note_on_c, 1, 74, 127
1, 246780, Note_on_c, 1, 57, 127
1, 246892, Note_off_c, 1, 74, 0
1, 246894, Note_on_c, 1, 72, 127
1, 246993, Note_off_c, 1, 57, 0
1, 247006, Note_off_c, 1, 72, 0
1, 247008, Note_on_c, 1, 70, 127
1, 247008, Note_on_c, 1, 55, 127
1, 247120, Note_off_c, 1, 70, 0
1, 247122, Note_on_c, 1, 69, 127
1, 247221, Note_off_c, 1, 55, 0
1, 247234, Note_off_c, 1, 69, 0
1, 247236, Note_on_c, 1, 57, 127
1, 247236, Note_on_c, 1, 77, 127
1, 247348, Note_off_c, 1, 57, 0
1, 247350, Note_on_c, 1, 51, 127
1, 247462, Note_off_c, 1, 51, 0
1, 247464, Note_on_c, 1, 53, 127
1, 247576, Note_off_c, 1, 53, 0
1, 247578, Note_on_c, 1, 55, 127
1, 247686, Note_off_c, 1, 77, 0
1, 247690, Note_off_c, 1, 55, 0
1, 247692, Note_on_c, 1, 53, 127
1, 247804, Note_off_c, 1, 53, 0
1, 247806, Note_on_c, 1, 51, 127
1, 247918, Note_off_c, 1, 51, 0
1, 247920, Note_on_c, 1, 50, 127
1, 247920, Note_on_c, 1, 69, 127
1, 248032, Note_off_c, 1, 50, 0
1, 248034, Note_on_c, 1, 48, 127
1, 248120, Note_off_c, 1, 69, 0
1, 248144, Note_off_c, 1, 48, 0
1, 248147, Note_on_c, 1, 70, 127
1, 248147, Note_on_c, 1, 50, 127
1, 248259, Note_off_c, 1, 70, 0
1, 248259, Note_off_c, 1, 50, 0
1, 248261, Note_on_c, 1, 65, 127
1, 248261, Note_on_c, 1, 48, 127
1, 248373, Note_off_c, 1, 65, 0
1, 248373, Note_off_c, 1, 48, 0
1, 248375, Note_on_c, 1, 67, 127
1, 248375, Note_on_c, 1, 50, 127
1, 248487, Note_off_c, 1, 67, 0
1, 248487, Note_off_c, 1, 50, 0
1, 248489, Note_on_c, 1, 69, 127
1, 248489, Note_on_c, 1, 51, 127
1, 248601, Note_off_c, 1, 69, 0
1, 248601, Note_off_c, 1, 51, 0
1, 248603, Note_on_c, 1, 70, 127
1, 248603, Note_on_c, 1, 50, 127
1, 248715, Note_off_c, 1, 70, 0
1, 248715, Note_off_c, 1, 50, 0
1, 248717, Note_on_c, 1, 74, 127
1, 248717, Note_on_c, 1, 48, 127
1, 248829, Note_off_c, 1, 74, 0
1, 248829, Note_off_c, 1, 48, 0
1, 248831, Note_on_c, 1, 72, 127
1, 248831, Note_on_c, 1, 46, 127
1, 248943, Note_off_c, 1, 72, 0
1, 248943, Note_off_c, 1, 46, 0
1, 248945, Note_on_c, 1, 75, 127
1, 248945, Note_on_c, 1, 45, 127
1, 249057, Note_off_c, 1, 75, 0
1, 249057, Note_off_c, 1, 45, 0
1, 249059, Note_on_c, 1, 74, 127
1, 249059, Note_on_c, 1, 46, 127
1, 249171, Note_off_c, 1, 74, 0
1, 249173, Note_on_c, 1, 70, 127
1, 249285, Note_off_c, 1, 46, 0
1, 249285, Note_off_c, 1, 70, 0
1, 249287, Note_on_c, 1, 72, 127
1, 249287, Note_on_c, 1, 56, 127
1, 249399, Note_off_c, 1, 72, 0
1, 249401, Note_on_c, 1, 74, 127
1, 249500, Note_off_c, 1, 56, 0
1, 249513, Note_off_c, 1, 74, 0
1, 249515, Note_on_c, 1, 75, 127
1, 249515, Note_on_c, 1, 55, 127
1, 249627, Note_off_c, 1, 75, 0
1, 249630, Note_on_c, 1, 79, 127
1, 249728, Note_off_c, 1, 55, 0
1, 249742, Note_off_c, 1, 79, 0
1, 249744, Note_on_c, 1, 77, 127
1, 249744, Note_on_c, 1, 58, 127
1, 249856, Note_off_c, 1, 77, 0
1, 249858, Note_on_c, 1, 80, 127
1, 249957, Note_off_c, 1, 58, 0
1, 249970, Note_off_c, 1, 80, 0
1, 249972, Note_on_c, 1, 79, 127
1, 249972, Note_on_c, 1, 51, 127
1, 250084, Note_off_c, 1, 79, 0
1, 250086, Note_on_c, 1, 75, 127
1, 250198, Note_off_c, 1, 51, 0
1, 250198, Note_off_c, 1, 75, 0
1, 250200, Note_on_c, 1, 77, 127
1, 250200, Note_on_c, 1, 49, 127
1, 250312, Note_off_c, 1, 77, 0
1, 250314, Note_on_c, 1, 79, 127
1, 250413, Note_off_c, 1, 49, 0
1, 250426, Note_off_c, 1, 79, 0
1, 250428, Note_on_c, 1, 80, 127
1, 250428, Note_on_c, 1, 48, 127
1, 250540, Note_off_c, 1, 80, 0
1, 250542, Note_on_c, 1, 79, 127
1, 250641, Note_off_c, 1, 48, 0
1, 250654, Note_off_c, 1, 79, 0
1, 250656, Note_on_c, 1, 77, 127
1, 250656, Note_on_c, 1, 51, 127
1, 250768, Note_off_c, 1, 77, 0
1, 250770, Note_on_c, 1, 75, 127
1, 250869, Note_off_c, 1, 51, 0
1, 250882, Note_off_c, 1, 75, 0
1, 250884, Note_on_c, 1, 73, 127
1, 250884, Note_on_c, 1, 44, 127
1, 250996, Note_off_c, 1, 73, 0
1, 250998, Note_on_c, 1, 70, 127
1, 251110, Note_off_c, 1, 44, 0
1, 251110, Note_off_c, 1, 70, 0
1, 251112, Note_on_c, 1, 72, 127
1, 251112, Note_on_c, 1, 56, 127
1, 251224, Note_off_c, 1, 72, 0
1, 251227, Note_on_c, 1, 77, 127
1, 251325, Note_off_c, 1, 56, 0
1, 251339, Note_off_c, 1, 77, 0
1, 251341, Note_on_c, 1, 75, 127
1, 251341, Note_on_c, 1, 55, 127
1, 251453, Note_off_c, 1, 75, 0
1, 251455, Note_on_c, 1, 74, 127
1, 251554, Note_off_c, 1, 55, 0
1, 251567, Note_off_c, 1, 74, 0
1, 251569, Note_on_c, 1, 72, 127
1, 251569, Note_on_c, 1, 51, 127
1, 251681, Note_off_c, 1, 72, 0
1, 251683, Note_on_c, 1, 70, 127
1, 251782, Note_off_c, 1, 51, 0
1, 251795, Note_off_c, 1, 70, 0
1, 251797, Note_on_c, 1, 68, 127
1, 251797, Note_on_c, 1, 50, 127
1, 251909, Note_off_c, 1, 68, 0
1, 251911, Note_on_c, 1, 65, 127
1, 252023, Note_off_c, 1, 50, 0
1, 252023, Note_off_c, 1, 65, 0
1, 252025, Note_on_c, 1, 67, 127
1, 252025, Note_on_c, 1, 51, 127
1, 252137, Note_off_c, 1, 67, 0
1, 252139, Note_on_c, 1, 75, 127
1, 252238, Note_off_c, 1, 51, 0
1, 252251, Note_off_c, 1, 75, 0
1, 252253, Note_on_c, 1, 74, 127
1, 252253, Note_on_c, 1, 56, 127
1, 252365, Note_off_c, 1, 74, 0
1, 252367, Note_on_c, 1, 72, 127
1, 252466, Note_off_c, 1, 56, 0
1, 252479, Note_off_c, 1, 72, 0
1, 252481, Note_on_c, 1, 70, 127
1, 252481, Note_on_c, 1, 53, 127
1, 252593, Note_off_c, 1, 70, 0
1, 252595, Note_on_c, 1, 68, 127
1, 252694, Note_off_c, 1, 53, 0
1, 252707, Note_off_c, 1, 68, 0
1, 252709, Note_on_c, 1, 67, 127
1, 252709, Note_on_c, 1, 58, 127
1, 252821, Note_off_c, 1, 67, 0
1, 252823, Note_on_c, 1, 63, 127
1, 252935, Note_off_c, 1, 63, 0
1, 252938, Note_on_c, 1, 65, 127
1, 253049, Note_off_c, 1, 58, 0
1, 253052, Note_on_c, 1, 60, 127
1, 253162, Note_off_c, 1, 65, 0
1, 253164, Note_off_c, 1, 60, 0
1, 253166, Note_on_c, 1, 58, 127
1, 253278, Note_off_c, 1, 58, 0
1, 253280, Note_on_c, 1, 56, 127
1, 253392, Note_off_c, 1, 56, 0
1, 253394, Note_on_c, 1, 55, 127
1, 253506, Note_off_c, 1, 55, 0
1, 253508, Note_on_c, 1, 53, 127
1, 253620, Note_off_c, 1, 53, 0
1, 253622, Note_on_c, 1, 70, 127
1, 253622, Note_on_c, 1, 51, 127
1, 253734, Note_off_c, 1, 70, 0
1, 253736, Note_on_c, 1, 75, 127
1, 253848, Note_off_c, 1, 75, 0
1, 253850, Note_on_c, 1, 74, 127
1, 253962, Note_off_c, 1, 74, 0
1, 253964, Note_on_c, 1, 72, 127
1, 254072, Note_off_c, 1, 51, 0
1, 254076, Note_off_c, 1, 72, 0
1, 254078, Note_on_c, 1, 70, 127
1, 254190, Note_off_c, 1, 70, 0
1, 254192, Note_on_c, 1, 68, 127
1, 254304, Note_off_c, 1, 68, 0
1, 254306, Note_on_c, 1, 67, 127
1, 254418, Note_off_c, 1, 67, 0
1, 254420, Note_on_c, 1, 65, 127
1, 254532, Note_off_c, 1, 65, 0
1, 254535, Note_on_c, 1, 63, 127
1, 254647, Note_on_c, 1, 51, 127
1, 254759, Note_off_c, 1, 51, 0
1, 254761, Note_on_c, 1, 62, 127
1, 254873, Note_off_c, 1, 62, 0
1, 254875, Note_on_c, 1, 60, 127
1, 254983, Note_off_c, 1, 63, 0
1, 254987, Note_off_c, 1, 60, 0
1, 254989, Note_on_c, 1, 58, 127
1, 255101, Note_off_c, 1, 58, 0
1, 255103, Note_on_c, 1, 56, 127
1, 255215, Note_off_c, 1, 56, 0
1, 255217, Note_on_c, 1, 55, 127
1, 255217, Note_on_c, 1, 65, 127
1, 255329, Note_off_c, 1, 55, 0
1, 255331, Note_on_c, 1, 53, 127
1, 255417, Note_off_c, 1, 65, 0
1, 255441, Note_off_c, 1, 53, 0
1, 255443, Note_on_c, 1, 67, 127
1, 255443, Note_on_c, 1, 51, 127
1, 255555, Note_off_c, 1, 67, 0
1, 255557, Note_on_c, 1, 72, 127
1, 255669, Note_off_c, 1, 51, 0
1, 255669, Note_off_c, 1, 72, 0
1, 255672, Note_on_c, 1, 70, 127
1, 255672, Note_on_c, 1, 55, 127
1, 255784, Note_off_c, 1, 70, 0
1, 255786, Note_on_c, 1, 68, 127
1, 255885, Note_off_c, 1, 55, 0
1, 255898, Note_off_c, 1, 68, 0
1, 255900, Note_on_c, 1, 67, 127
1, 255900, Note_on_c, 1, 51, 127
1, 256012, Note_off_c, 1, 67, 0
1, 256014, Note_on_c, 1, 65, 127
1, 256113, Note_off_c, 1, 51, 0
1, 256126, Note_off_c, 1, 65, 0
1, 256128, Note_on_c, 1, 63, 127
1, 256128, Note_on_c, 1, 55, 127
1, 256240, Note_off_c, 1, 63, 0
1, 256242, Note_on_c, 1, 61, 127
1, 256341, Note_off_c, 1, 55, 0
1, 256354, Note_off_c, 1, 61, 0
1, 256356, Note_on_c, 1, 60, 127
1, 256356, Note_on_c, 1, 56, 127
1, 256468, Note_off_c, 1, 60, 0
1, 256470, Note_on_c, 1, 61, 127
1, 256582, Note_off_c, 1, 56, 0
1, 256582, Note_off_c, 1, 61, 0
1, 256584, Note_on_c, 1, 60, 127
1, 256584, Note_on_c, 1, 51, 127
1, 256696, Note_off_c, 1, 60, 0
1, 256698, Note_on_c, 1, 58, 127
1, 256797, Note_off_c, 1, 51, 0
1, 256810, Note_off_c, 1, 58, 0
1, 256812, Note_on_c, 1, 56, 127
1, 256812, Note_on_c, 1, 48, 127
1, 256924, Note_off_c, 1, 56, 0
1, 256926, Note_on_c, 1, 60, 127
1, 257025, Note_off_c, 1, 48, 0
1, 257038, Note_off_c, 1, 60, 0
1, 257040, Note_on_c, 1, 58, 127
1, 257040, Note_on_c, 1, 51, 127
1, 257152, Note_off_c, 1, 58, 0
1, 257154, Note_on_c, 1, 61, 127
1, 257253, Note_off_c, 1, 51, 0
1, 257266, Note_off_c, 1, 61, 0
1, 257268, Note_on_c, 1, 60, 127
1, 257268, Note_on_c, 1, 44, 127
1, 257380, Note_off_c, 1, 60, 0
1, 257383, Note_on_c, 1, 65, 127
1, 257494, Note_off_c, 1, 44, 0
1, 257495, Note_off_c, 1, 65, 0
1, 257497, Note_on_c, 1, 64, 127
1, 257497, Note_on_c, 1, 56, 127
1, 257609, Note_off_c, 1, 64, 0
1, 257611, Note_on_c, 1, 65, 127
1, 257710, Note_off_c, 1, 56, 0
1, 257723, Note_off_c, 1, 65, 0
1, 257725, Note_on_c, 1, 68, 127
1, 257725, Note_on_c, 1, 53, 127
1, 257837, Note_off_c, 1, 68, 0
1, 257839, Note_on_c, 1, 67, 127
1, 257938, Note_off_c, 1, 53, 0
1, 257951, Note_off_c, 1, 67, 0
1, 257953, Note_on_c, 1, 65, 127
1, 257953, Note_on_c, 1, 56, 127
1, 258065, Note_off_c, 1, 65, 0
1, 258067, Note_on_c, 1, 63, 127
1, 258166, Note_off_c, 1, 56, 0
1, 258179, Note_off_c, 1, 63, 0
1, 258181, Note_on_c, 1, 62, 127
1, 258181, Note_on_c, 1, 46, 127
1, 258293, Note_off_c, 1, 62, 0
1, 258295, Note_on_c, 1, 63, 127
1, 258407, Note_off_c, 1, 63, 0
1, 258523, Note_on_c, 1, 60, 127
1, 258631, Note_off_c, 1, 46, 0
1, 258635, Note_off_c, 1, 60, 0
1, 258637, Note_on_c, 1, 58, 127
1, 258749, Note_off_c, 1, 58, 0
1, 258751, Note_on_c, 1, 62, 127
1, 258863, Note_off_c, 1, 62, 0
1, 258865, Note_on_c, 1, 60, 127
1, 258977, Note_off_c, 1, 60, 0
1, 258980, Note_on_c, 1, 63, 127
1, 259092, Note_off_c, 1, 63, 0
1, 259094, Note_on_c, 1, 62, 127
1, 259206, Note_off_c, 1, 62, 0
1, 259208, Note_on_c, 1, 67, 127
1, 259320, Note_off_c, 1, 67, 0
1, 259322, Note_on_c, 1, 65, 127
1, 259322, Note_on_c, 1, 58, 127
1, 259434, Note_off_c, 1, 65, 0
1, 259436, Note_on_c, 1, 67, 127
1, 259535, Note_off_c, 1, 58, 0
1, 259548, Note_off_c, 1, 67, 0
1, 259550, Note_on_c, 1, 70, 127
1, 259550, Note_on_c, 1, 55, 127
1, 259662, Note_off_c, 1, 70, 0
1, 259664, Note_on_c, 1, 68, 127
1, 259763, Note_off_c, 1, 55, 0
1, 259776, Note_off_c, 1, 68, 0
1, 259778, Note_on_c, 1, 67, 127
1, 259778, Note_on_c, 1, 58, 127
1, 259890, Note_off_c, 1, 67, 0
1, 259892, Note_on_c, 1, 65, 127
1, 259991, Note_off_c, 1, 58, 0
1, 260004, Note_off_c, 1, 65, 0
1, 260006, Note_on_c, 1, 63, 127
1, 260006, Note_on_c, 1, 48, 127
1, 260118, Note_off_c, 1, 63, 0
1, 260120, Note_on_c, 1, 65, 127
1, 260232, Note_off_c, 1, 65, 0
1, 260348, Note_on_c, 1, 62, 127
1, 260456, Note_off_c, 1, 48, 0
1, 260460, Note_off_c, 1, 62, 0
1, 260462, Note_on_c, 1, 60, 127
1, 260574, Note_off_c, 1, 60, 0
1, 260577, Note_on_c, 1, 63, 127
1, 260689, Note_off_c, 1, 63, 0
1, 260691, Note_on_c, 1, 65, 127
1, 260803, Note_off_c, 1, 65, 0
1, 260805, Note_on_c, 1, 67, 127
1, 260917, Note_off_c, 1, 67, 0
1, 260919, Note_on_c, 1, 68, 127
1, 261033, Note_off_c, 1, 68, 0
1, 261035, Note_on_c, 1, 72, 127
1, 261149, Note_off_c, 1, 72, 0
1, 261151, Note_on_c, 1, 70, 127
1, 261151, Note_on_c, 1, 56, 127
1, 261265, Note_off_c, 1, 70, 0
1, 261267, Note_on_c, 1, 72, 127
1, 261367, Note_off_c, 1, 56, 0
1, 261381, Note_off_c, 1, 72, 0
1, 261382, Note_on_c, 1, 75, 127
1, 261382, Note_on_c, 1, 60, 127
1, 261496, Note_off_c, 1, 75, 0
1, 261498, Note_on_c, 1, 73, 127
1, 261598, Note_off_c, 1, 60, 0
1, 261612, Note_off_c, 1, 73, 0
1, 261614, Note_on_c, 1, 72, 127
1, 261614, Note_on_c, 1, 63, 127
1, 261728, Note_off_c, 1, 72, 0
1, 261730, Note_on_c, 1, 70, 127
1, 261830, Note_off_c, 1, 63, 0
1, 261844, Note_off_c, 1, 70, 0
1, 261846, Note_on_c, 1, 68, 127
1, 261846, Note_on_c, 1, 53, 127
1, 261961, Note_off_c, 1, 68, 0
1, 261964, Note_on_c, 1, 72, 127
1, 262079, Note_off_c, 1, 72, 0
1, 262081, Note_off_c, 1, 53, 0
1, 262084, Note_on_c, 1, 70, 127
1, 262084, Note_on_c, 1, 63, 127
1, 262199, Note_off_c, 1, 70, 0
1, 262203, Note_on_c, 1, 72, 127
1, 262306, Note_off_c, 1, 63, 0
1, 262318, Note_off_c, 1, 72, 0
1, 262323, Note_on_c, 1, 77, 127
1, 262323, Note_on_c, 1, 62, 127
1, 262438, Note_off_c, 1, 77, 0
1, 262443, Note_on_c, 1, 75, 127
1, 262545, Note_off_c, 1, 62, 0
1, 262558, Note_off_c, 1, 75, 0
1, 262562, Note_on_c, 1, 74, 127
1, 262562, Note_on_c, 1, 65, 127
1, 262677, Note_off_c, 1, 74, 0
1, 262682, Note_on_c, 1, 72, 127
1, 262784, Note_off_c, 1, 65, 0
1, 262797, Note_off_c, 1, 72, 0
1, 262802, Note_on_c, 1, 70, 127
1, 262802, Note_on_c, 1, 55, 127
1, 262919, Note_off_c, 1, 70, 0
1, 262921, Note_on_c, 1, 68, 127
1, 263038, Note_off_c, 1, 68, 0
1, 263043, Note_off_c, 1, 55, 0
1, 263045, Note_on_c, 1, 63, 127
1, 263045, Note_on_c, 1, 67, 127
1, 263162, Note_off_c, 1, 63, 0
1, 263162, Note_off_c, 1, 67, 0
1, 263168, Note_on_c, 1, 62, 127
1, 263168, Note_on_c, 1, 65, 127
1, 263285, Note_off_c, 1, 62, 0
1, 263285, Note_off_c, 1, 65, 0
1, 263292, Note_on_c, 1, 67, 127
1, 263292, Note_on_c, 1, 63, 127
1, 263409, Note_off_c, 1, 67, 0
1, 263415, Note_on_c, 1, 75, 127
1, 263520, Note_off_c, 1, 63, 0
1, 263534, Note_off_c, 1, 75, 0
1, 263540, Note_on_c, 1, 65, 127
1, 263540, Note_on_c, 1, 58, 127
1, 263657, Note_off_c, 1, 65, 0
1, 263664, Note_on_c, 1, 74, 127
1, 263768, Note_off_c, 1, 58, 0
1, 263794, Note_off_c, 1, 74, 0
1, 263797, Note_on_c, 1, 51, 127
1, 263797, Note_on_c, 1, 63, 127
1, 264099, Note_off_c, 1, 51, 0
1, 264148, Note_on_c, 1, 46, 127
1, 264452, Note_off_c, 1, 46, 0
1, 264567, Note_on_c, 1, 39, 127
1, 265997, Note_off_c, 1, 63, 0
1, 266067, Note_off_c, 1, 39, 0
1, 267722, Note_on_c, 1, 70, 127
1, 268039, Note_off_c, 1, 70, 0
1, 268042, Note_on_c, 1, 75, 127
1, 268159, Note_off_c, 1, 75, 0
1, 268201, Note_on_c, 1, 70, 127
1, 268518, Note_off_c, 1, 70, 0
1, 268521, Note_on_c, 1, 75, 127
1, 268638, Note_off_c, 1, 75, 0
1, 268680, Note_on_c, 1, 70, 127
1, 268838, Note_off_c, 1, 70, 0
1, 268841, Note_on_c, 1, 68, 127
1, 268999, Note_off_c, 1, 68, 0
1, 269002, Note_on_c, 1, 67, 127
1, 269160, Note_off_c, 1, 67, 0
1, 269162, Note_on_c, 1, 68, 127
1, 269320, Note_off_c, 1, 68, 0
1, 269323, Note_on_c, 1, 67, 127
1, 269481, Note_off_c, 1, 67, 0
1, 269484, Note_on_c, 1, 65, 127
1, 269642, Note_off_c, 1, 65, 0
1, 269645, Note_on_c, 1, 67, 127
1, 269645, Note_on_c, 1, 75, 127
1, 269803, Note_off_c, 1, 67, 0
1, 269806, Note_on_c, 1, 70, 127
1, 269964, Note_off_c, 1, 75, 0
1, 269964, Note_off_c, 1, 70, 0
1, 269966, Note_on_c, 1, 82, 127
1, 269966, Note_on_c, 1, 68, 127
1, 270083, Note_off_c, 1, 82, 0
1, 270123, Note_off_c, 1, 68, 0
1, 270125, Note_on_c, 1, 67, 127
1, 270125, Note_on_c, 1, 75, 127
1, 270283, Note_off_c, 1, 67, 0
1, 270286, Note_on_c, 1, 65, 127
1, 270444, Note_off_c, 1, 75, 0
1, 270444, Note_off_c, 1, 65, 0
1, 270447, Note_on_c, 1, 82, 127
1, 270447, Note_on_c, 1, 63, 127
1, 270564, Note_off_c, 1, 82, 0
1, 270604, Note_off_c, 1, 63, 0
1, 270606, Note_on_c, 1, 77, 127
1, 270606, Note_on_c, 1, 62, 127
1, 270764, Note_off_c, 1, 77, 0
1, 270767, Note_on_c, 1, 75, 127
1, 270925, Note_off_c, 1, 62, 0
1, 270925, Note_off_c, 1, 75, 0
1, 270928, Note_on_c, 1, 70, 127
1, 270928, Note_on_c, 1, 74, 127
1, 271086, Note_off_c, 1, 70, 0
1, 271086, Note_off_c, 1, 74, 0
1, 271088, Note_on_c, 1, 75, 127
1, 271088, Note_on_c, 1, 60, 127
1, 271246, Note_off_c, 1, 75, 0
1, 271249, Note_on_c, 1, 74, 127
1, 271407, Note_off_c, 1, 60, 0
1, 271407, Note_off_c, 1, 74, 0
1, 271410, Note_on_c, 1, 69, 127
1, 271410, Note_on_c, 1, 72, 127
1, 271568, Note_off_c, 1, 69, 0
1, 271568, Note_off_c, 1, 72, 0
1, 271571, Note_on_c, 1, 58, 127
1, 271571, Note_on_c, 1, 74, 127
1, 271730, Note_on_c, 1, 70, 127
1, 271888, Note_off_c, 1, 58, 0
1, 271888, Note_off_c, 1, 74, 0
1, 271891, Note_on_c, 1, 63, 127
1, 271891, Note_on_c, 1, 79, 127
1, 272008, Note_off_c, 1, 63, 0
1, 272047, Note_off_c, 1, 70, 0
1, 272048, Note_off_c, 1, 79, 0
1, 272050, Note_on_c, 1, 58, 127
1, 272050, Note_on_c, 1, 74, 127
1, 272209, Note_on_c, 1, 70, 127
1, 272367, Note_off_c, 1, 58, 0
1, 272367, Note_off_c, 1, 74, 0
1, 272369, Note_on_c, 1, 63, 127
1, 272369, Note_on_c, 1, 79, 127
1, 272486, Note_off_c, 1, 63, 0
1, 272526, Note_off_c, 1, 70, 0
1, 272526, Note_off_c, 1, 79, 0
1, 272528, Note_on_c, 1, 58, 127
1, 272528, Note_on_c, 1, 77, 127
1, 272686, Note_off_c, 1, 58, 0
1, 272689, Note_on_c, 1, 56, 127
1, 272689, Note_on_c, 1, 74, 127
1, 272847, Note_off_c, 1, 77, 0
1, 272847, Note_off_c, 1, 56, 0
1, 272850, Note_on_c, 1, 55, 127
1, 272850, Note_on_c, 1, 82, 127
1, 273008, Note_off_c, 1, 74, 0
1, 273008, Note_off_c, 1, 55, 0
1, 273008, Note_off_c, 1, 82, 0
1, 273011, Note_on_c, 1, 56, 127
1, 273011, Note_on_c, 1, 77, 127
1, 273169, Note_off_c, 1, 56, 0
1, 273172, Note_on_c, 1, 55, 127
1, 273172, Note_on_c, 1, 74, 127
1, 273330, Note_off_c, 1, 77, 0
1, 273330, Note_off_c, 1, 55, 0
1, 273332, Note_on_c, 1, 53, 127
1, 273332, Note_on_c, 1, 82, 127
1, 273490, Note_off_c, 1, 53, 0
1, 273490, Note_off_c, 1, 82, 0
1, 273491, Note_off_c, 1, 74, 0
1, 273493, Note_on_c, 1, 55, 127
1, 273493, Note_on_c, 1, 75, 127
1, 273651, Note_off_c, 1, 55, 0
1, 273654, Note_on_c, 1, 53, 127
1, 273654, Note_on_c, 1, 74, 127
1, 273812, Note_off_c, 1, 75, 0
1, 273812, Note_off_c, 1, 53, 0
1, 273812, Note_off_c, 1, 74, 0
1, 273815, Note_on_c, 1, 51, 127
1, 273815, Note_on_c, 1, 82, 127
1, 273973, Note_off_c, 1, 51, 0
1, 273973, Note_off_c, 1, 82, 0
1, 273976, Note_on_c, 1, 55, 127
1, 273976, Note_on_c, 1, 75, 127
1, 274134, Note_off_c, 1, 55, 0
1, 274137, Note_on_c, 1, 53, 127
1, 274137, Note_on_c, 1, 74, 127
1, 274295, Note_off_c, 1, 75, 0
1, 274295, Note_off_c, 1, 53, 0
1, 274295, Note_off_c, 1, 74, 0
1, 274297, Note_on_c, 1, 51, 127
1, 274297, Note_on_c, 1, 82, 127
1, 274455, Note_off_c, 1, 51, 0
1, 274455, Note_off_c, 1, 82, 0
1, 274458, Note_on_c, 1, 56, 127
1, 274458, Note_on_c, 1, 72, 127
1, 274616, Note_off_c, 1, 56, 0
1, 274616, Note_off_c, 1, 72, 0
1, 274619, Note_on_c, 1, 51, 127
1, 274619, Note_on_c, 1, 74, 127
1, 274777, Note_off_c, 1, 51, 0
1, 274777, Note_off_c, 1, 74, 0
1, 274780, Note_on_c, 1, 60, 127
1, 274780, Note_on_c, 1, 75, 127
1, 274938, Note_off_c, 1, 60, 0
1, 274938, Note_off_c, 1, 75, 0
1, 274941, Note_on_c, 1, 56, 127
1, 274941, Note_on_c, 1, 77, 127
1, 275099, Note_off_c, 1, 56, 0
1, 275099, Note_off_c, 1, 77, 0
1, 275101, Note_on_c, 1, 51, 127
1, 275101, Note_on_c, 1, 79, 127
1, 275259, Note_off_c, 1, 51, 0
1, 275259, Note_off_c, 1, 79, 0
1, 275262, Note_on_c, 1, 60, 127
1, 275262, Note_on_c, 1, 80, 127
1, 275420, Note_off_c, 1, 60, 0
1, 275420, Note_off_c, 1, 80, 0
1, 275423, Note_on_c, 1, 53, 127
1, 275423, Note_on_c, 1, 74, 127
1, 275581, Note_off_c, 1, 53, 0
1, 275584, Note_on_c, 1, 51, 127
1, 275584, Note_on_c, 1, 72, 127
1, 275742, Note_off_c, 1, 74, 0
1, 275742, Note_off_c, 1, 51, 0
1, 275742, Note_off_c, 1, 72, 0
1, 275745, Note_on_c, 1, 50, 127
1, 275745, Note_on_c, 1, 80, 127
1, 275903, Note_off_c, 1, 50, 0
1, 275903, Note_off_c, 1, 80, 0
1, 275906, Note_on_c, 1, 53, 127
1, 275906, Note_on_c, 1, 74, 127
1, 276064, Note_off_c, 1, 53, 0
1, 276066, Note_on_c, 1, 51, 127
1, 276066, Note_on_c, 1, 72, 127
1, 276224, Note_off_c, 1, 51, 0
1, 276224, Note_off_c, 1, 72, 0
1, 276225, Note_off_c, 1, 74, 0
1, 276227, Note_on_c, 1, 50, 127
1, 276227, Note_on_c, 1, 80, 127
1, 276385, Note_off_c, 1, 50, 0
1, 276385, Note_off_c, 1, 80, 0
1, 276388, Note_on_c, 1, 55, 127
1, 276388, Note_on_c, 1, 70, 127
1, 276546, Note_off_c, 1, 55, 0
1, 276546, Note_off_c, 1, 70, 0
1, 276549, Note_on_c, 1, 50, 127
1, 276549, Note_on_c, 1, 72, 127
1, 276707, Note_off_c, 1, 50, 0
1, 276707, Note_off_c, 1, 72, 0
1, 276710, Note_on_c, 1, 58, 127
1, 276710, Note_on_c, 1, 74, 127
1, 276868, Note_off_c, 1, 58, 0
1, 276868, Note_off_c, 1, 74, 0
1, 276870, Note_on_c, 1, 55, 127
1, 276870, Note_on_c, 1, 75, 127
1, 277028, Note_off_c, 1, 55, 0
1, 277028, Note_off_c, 1, 75, 0
1, 277031, Note_on_c, 1, 50, 127
1, 277031, Note_on_c, 1, 77, 127
1, 277189, Note_off_c, 1, 50, 0
1, 277189, Note_off_c, 1, 77, 0
1, 277192, Note_on_c, 1, 58, 127
1, 277192, Note_on_c, 1, 79, 127
1, 277350, Note_off_c, 1, 58, 0
1, 277350, Note_off_c, 1, 79, 0
1, 277353, Note_on_c, 1, 51, 127
1, 277353, Note_on_c, 1, 72, 127
1, 277511, Note_off_c, 1, 51, 0
1, 277514, Note_on_c, 1, 50, 127
1, 277514, Note_on_c, 1, 70, 127
1, 277672, Note_off_c, 1, 72, 0
1, 277672, Note_off_c, 1, 50, 0
1, 277672, Note_off_c, 1, 70, 0
1, 277675, Note_on_c, 1, 48, 127
1, 277675, Note_on_c, 1, 79, 127
1, 277833, Note_off_c, 1, 48, 0
1, 277833, Note_off_c, 1, 79, 0
1, 277835, Note_on_c, 1, 51, 127
1, 277835, Note_on_c, 1, 72, 127
1, 277993, Note_off_c, 1, 51, 0
1, 277996, Note_on_c, 1, 50, 127
1, 277996, Note_on_c, 1, 70, 127
1, 278154, Note_off_c, 1, 72, 0
1, 278154, Note_off_c, 1, 50, 0
1, 278154, Note_off_c, 1, 70, 0
1, 278157, Note_on_c, 1, 48, 127
1, 278157, Note_on_c, 1, 79, 127
1, 278315, Note_off_c, 1, 48, 0
1, 278315, Note_off_c, 1, 79, 0
1, 278318, Note_on_c, 1, 53, 127
1, 278318, Note_on_c, 1, 68, 127
1, 278476, Note_off_c, 1, 53, 0
1, 278476, Note_off_c, 1, 68, 0
1, 278479, Note_on_c, 1, 48, 127
1, 278479, Note_on_c, 1, 70, 127
1, 278637, Note_off_c, 1, 48, 0
1, 278637, Note_off_c, 1, 70, 0
1, 278639, Note_on_c, 1, 56, 127
1, 278639, Note_on_c, 1, 72, 127
1, 278797, Note_off_c, 1, 56, 0
1, 278797, Note_off_c, 1, 72, 0
1, 278800, Note_on_c, 1, 53, 127
1, 278800, Note_on_c, 1, 74, 127
1, 278958, Note_off_c, 1, 53, 0
1, 278958, Note_off_c, 1, 74, 0
1, 278961, Note_on_c, 1, 48, 127
1, 278961, Note_on_c, 1, 75, 127
1, 279119, Note_off_c, 1, 48, 0
1, 279119, Note_off_c, 1, 75, 0
1, 279122, Note_on_c, 1, 56, 127
1, 279122, Note_on_c, 1, 77, 127
1, 279280, Note_off_c, 1, 56, 0
1, 279280, Note_off_c, 1, 77, 0
1, 279283, Note_on_c, 1, 50, 127
1, 279283, Note_on_c, 1, 70, 127
1, 279441, Note_off_c, 1, 50, 0
1, 279444, Note_on_c, 1, 48, 127
1, 279444, Note_on_c, 1, 68, 127
1, 279602, Note_off_c, 1, 70, 0
1, 279602, Note_off_c, 1, 48, 0
1, 279602, Note_off_c, 1, 68, 0
1, 279604, Note_on_c, 1, 46, 127
1, 279604, Note_on_c, 1, 77, 127
1, 279762, Note_off_c, 1, 46, 0
1, 279762, Note_off_c, 1, 77, 0
1, 279765, Note_on_c, 1, 50, 127
1, 279765, Note_on_c, 1, 70, 127
1, 279923, Note_off_c, 1, 50, 0
1, 279926, Note_on_c, 1, 48, 127
1, 279926, Note_on_c, 1, 68, 127
1, 280084, Note_off_c, 1, 70, 0
1, 280084, Note_off_c, 1, 48, 0
1, 280084, Note_off_c, 1, 68, 0
1, 280087, Note_on_c, 1, 46, 127
1, 280087, Note_on_c, 1, 77, 127
1, 280245, Note_off_c, 1, 46, 0
1, 280245, Note_off_c, 1, 77, 0
1, 280248, Note_on_c, 1, 51, 127
1, 280248, Note_on_c, 1, 67, 127
1, 280406, Note_off_c, 1, 51, 0
1, 280406, Note_off_c, 1, 67, 0
1, 280409, Note_on_c, 1, 46, 127
1, 280409, Note_on_c, 1, 68, 127
1, 280567, Note_off_c, 1, 46, 0
1, 280567, Note_off_c, 1, 68, 0
1, 280569, Note_on_c, 1, 55, 127
1, 280569, Note_on_c, 1, 70, 127
1, 280727, Note_off_c, 1, 55, 0
1, 280727, Note_off_c, 1, 70, 0
1, 280730, Note_on_c, 1, 51, 127
1, 280730, Note_on_c, 1, 70, 127
1, 280888, Note_off_c, 1, 51, 0
1, 280888, Note_off_c, 1, 70, 0
1, 280891, Note_on_c, 1, 46, 127
1, 280891, Note_on_c, 1, 72, 127
1, 281049, Note_off_c, 1, 46, 0
1, 281049, Note_off_c, 1, 72, 0
1, 281052, Note_on_c, 1, 55, 127
1, 281052, Note_on_c, 1, 74, 127
1, 281210, Note_off_c, 1, 55, 0
1, 281210, Note_off_c, 1, 74, 0
1, 281213, Note_on_c, 1, 48, 127
1, 281213, Note_on_c, 1, 75, 127
1, 281372, Note_on_c, 1, 67, 127
1, 281530, Note_off_c, 1, 48, 0
1, 281530, Note_off_c, 1, 75, 0
1, 281530, Note_off_c, 1, 67, 0
1, 281532, Note_on_c, 1, 55, 127
1, 281532, Note_on_c, 1, 72, 127
1, 281690, Note_off_c, 1, 55, 0
1, 281690, Note_off_c, 1, 72, 0
1, 281693, Note_on_c, 1, 48, 127
1, 281693, Note_on_c, 1, 75, 127
1, 281852, Note_on_c, 1, 67, 127
1, 282010, Note_off_c, 1, 48, 0
1, 282010, Note_off_c, 1, 75, 0
1, 282010, Note_off_c, 1, 67, 0
1, 282013, Note_on_c, 1, 55, 127
1, 282013, Note_on_c, 1, 72, 127
1, 282171, Note_off_c, 1, 55, 0
1, 282171, Note_off_c, 1, 72, 0
1, 282174, Note_on_c, 1, 46, 127
1, 282174, Note_on_c, 1, 75, 127
1, 282332, Note_off_c, 1, 46, 0
1, 282335, Note_on_c, 1, 45, 127
1, 282493, Note_off_c, 1, 45, 0
1, 282495, Note_on_c, 1, 43, 127
1, 282495, Note_on_c, 1, 72, 127
1, 282653, Note_off_c, 1, 43, 0
1, 282653, Note_off_c, 1, 72, 0
1, 282656, Note_on_c, 1, 65, 127
1, 282895, Note_off_c, 1, 75, 0
1, 282978, Note_on_c, 1, 41, 127
1, 283132, Note_off_c, 1, 65, 0
1, 283136, Note_off_c, 1, 41, 0
1, 283139, Note_on_c, 1, 74, 127
1, 283139, Note_on_c, 1, 46, 127
1, 283297, Note_off_c, 1, 74, 0
1, 283300, Note_on_c, 1, 77, 127
1, 283458, Note_off_c, 1, 46, 0
1, 283458, Note_off_c, 1, 77, 0
1, 283460, Note_on_c, 1, 58, 127
1, 283460, Note_on_c, 1, 74, 127
1, 283618, Note_off_c, 1, 58, 0
1, 283618, Note_off_c, 1, 74, 0
1, 283621, Note_on_c, 1, 70, 127
1, 283621, Note_on_c, 1, 53, 127
1, 283779, Note_off_c, 1, 70, 0
1, 283782, Note_on_c, 1, 74, 127
1, 283940, Note_off_c, 1, 53, 0
1, 283940, Note_off_c, 1, 74, 0
1, 283943, Note_on_c, 1, 58, 127
1, 283943, Note_on_c, 1, 77, 127
1, 284101, Note_off_c, 1, 58, 0
1, 284101, Note_off_c, 1, 77, 0
1, 284104, Note_on_c, 1, 51, 127
1, 284104, Note_on_c, 1, 80, 127
1, 284262, Note_off_c, 1, 51, 0
1, 284264, Note_on_c, 1, 50, 127
1, 284422, Note_off_c, 1, 50, 0
1, 284425, Note_on_c, 1, 48, 127
1, 284425, Note_on_c, 1, 77, 127
1, 284583, Note_off_c, 1, 48, 0
1, 284583, Note_off_c, 1, 77, 0
1, 284586, Note_on_c, 1, 70, 127
1, 284825, Note_off_c, 1, 80, 0
1, 284908, Note_on_c, 1, 46, 127
1, 285062, Note_off_c, 1, 70, 0
1, 285066, Note_off_c, 1, 46, 0
1, 285069, Note_on_c, 1, 79, 127
1, 285069, Note_on_c, 1, 51, 127
1, 285227, Note_off_c, 1, 79, 0
1, 285229, Note_on_c, 1, 82, 127
1, 285307, Note_off_c, 1, 82, 0
1, 285310, Note_on_c, 1, 80, 127
1, 285388, Note_off_c, 1, 51, 0
1, 285388, Note_off_c, 1, 80, 0
1, 285390, Note_on_c, 1, 79, 127
1, 285390, Note_on_c, 1, 63, 127
1, 285468, Note_off_c, 1, 79, 0
1, 285471, Note_on_c, 1, 77, 127
1, 285548, Note_off_c, 1, 63, 0
1, 285549, Note_off_c, 1, 77, 0
1, 285551, Note_on_c, 1, 75, 127
1, 285551, Note_on_c, 1, 60, 127
1, 285709, Note_off_c, 1, 75, 0
1, 285712, Note_on_c, 1, 79, 127
1, 285790, Note_off_c, 1, 79, 0
1, 285792, Note_on_c, 1, 77, 127
1, 285870, Note_off_c, 1, 60, 0
1, 285870, Note_off_c, 1, 77, 0
1, 285873, Note_on_c, 1, 75, 127
1, 285873, Note_on_c, 1, 63, 127
1, 285951, Note_off_c, 1, 75, 0
1, 285953, Note_on_c, 1, 74, 127
1, 286031, Note_off_c, 1, 63, 0
1, 286031, Note_off_c, 1, 74, 0
1, 286033, Note_on_c, 1, 58, 127
1, 286033, Note_on_c, 1, 72, 127
1, 286191, Note_off_c, 1, 58, 0
1, 286191, Note_off_c, 1, 72, 0
1, 286194, Note_on_c, 1, 57, 127
1, 286194, Note_on_c, 1, 74, 127
1, 286352, Note_off_c, 1, 57, 0
1, 286352, Note_off_c, 1, 74, 0
1, 286355, Note_on_c, 1, 55, 127
1, 286355, Note_on_c, 1, 75, 127
1, 286513, Note_off_c, 1, 55, 0
1, 286513, Note_off_c, 1, 75, 0
1, 286516, Note_on_c, 1, 57, 127
1, 286516, Note_on_c, 1, 65, 127
1, 286674, Note_off_c, 1, 57, 0
1, 286677, Note_on_c, 1, 55, 127
1, 286755, Note_off_c, 1, 65, 0
1, 286757, Note_on_c, 1, 72, 127
1, 286835, Note_off_c, 1, 55, 0
1, 286835, Note_off_c, 1, 72, 0
1, 286838, Note_on_c, 1, 74, 127
1, 286838, Note_on_c, 1, 53, 127
1, 286916, Note_off_c, 1, 74, 0
1, 286918, Note_on_c, 1, 75, 127
1, 286996, Note_off_c, 1, 53, 0
1, 286996, Note_off_c, 1, 75, 0
1, 286998, Note_on_c, 1, 74, 127
1, 286998, Note_on_c, 1, 58, 127
1, 287156, Note_off_c, 1, 74, 0
1, 287159, Note_on_c, 1, 72, 127
1, 287317, Note_off_c, 1, 58, 0
1, 287317, Note_off_c, 1, 72, 0
1, 287320, Note_on_c, 1, 50, 127
1, 287320, Note_on_c, 1, 70, 127
1, 287478, Note_off_c, 1, 50, 0
1, 287478, Note_off_c, 1, 70, 0
1, 287481, Note_on_c, 1, 70, 127
1, 287481, Note_on_c, 1, 51, 127
1, 287639, Note_off_c, 1, 70, 0
1, 287642, Note_on_c, 1, 72, 127
1, 287800, Note_off_c, 1, 51, 0
1, 287800, Note_off_c, 1, 72, 0
1, 287802, Note_on_c, 1, 53, 127
1, 287802, Note_on_c, 1, 69, 127
1, 287960, Note_off_c, 1, 53, 0
1, 287960, Note_off_c, 1, 69, 0
1, 287963, Note_on_c, 1, 46, 127
1, 287963, Note_on_c, 1, 70, 127
1, 288121, Note_off_c, 1, 46, 0
1, 288121, Note_off_c, 1, 70, 0
1, 288124, Note_on_c, 1, 53, 127
1, 288124, Note_on_c, 1, 72, 127
1, 288282, Note_off_c, 1, 53, 0
1, 288282, Note_off_c, 1, 72, 0
1, 288285, Note_on_c, 1, 58, 127
1, 288285, Note_on_c, 1, 74, 127
1, 288443, Note_off_c, 1, 58, 0
1, 288443, Note_off_c, 1, 74, 0
1, 288446, Note_on_c, 1, 53, 127
1, 288446, Note_on_c, 1, 74, 127
1, 288604, Note_off_c, 1, 53, 0
1, 288604, Note_off_c, 1, 74, 0
1, 288607, Note_on_c, 1, 50, 127
1, 288607, Note_on_c, 1, 75, 127
1, 288765, Note_off_c, 1, 50, 0
1, 288765, Note_off_c, 1, 75, 0
1, 288767, Note_on_c, 1, 58, 127
1, 288767, Note_on_c, 1, 77, 127
1, 288925, Note_off_c, 1, 58, 0
1, 288925, Note_off_c, 1, 77, 0
1, 288928, Note_on_c, 1, 79, 127
1, 288928, Note_on_c, 1, 53, 127
1, 289001, Note_on_c, 1, 77, 127
1, 289006, Note_off_c, 1, 79, 0
1, 289077, Note_off_c, 1, 77, 0
1, 289085, Note_off_c, 1, 53, 0
1, 289087, Note_on_c, 1, 55, 127
1, 289165, Note_off_c, 1, 55, 0
1, 289248, Note_on_c, 1, 51, 127
1, 289326, Note_off_c, 1, 51, 0
1, 289328, Note_on_c, 1, 50, 127
1, 289406, Note_off_c, 1, 50, 0
1, 289803, Note_on_c, 1, 48, 127
1, 289881, Note_off_c, 1, 48, 0
1, 290205, Note_on_c, 1, 48, 127
1, 290205, Note_on_c, 1, 82, 127
1, 290283, Note_off_c, 1, 48, 0
1, 290286, Note_on_c, 1, 46, 127
1, 290363, Note_off_c, 1, 82, 0
1, 290364, Note_off_c, 1, 46, 0
1, 290366, Note_on_c, 1, 50, 127
1, 290366, Note_on_c, 1, 77, 127
1, 290524, Note_off_c, 1, 50, 0
1, 290527, Note_on_c, 1, 53, 127
1, 290605, Note_off_c, 1, 53, 0
1, 290607, Note_on_c, 1, 51, 127
1, 290685, Note_off_c, 1, 77, 0
1, 290685, Note_off_c, 1, 51, 0
1, 290688, Note_on_c, 1, 50, 127
1, 290688, Note_on_c, 1, 82, 127
1, 290766, Note_off_c, 1, 50, 0
1, 290768, Note_on_c, 1, 48, 127
1, 290846, Note_off_c, 1, 82, 0
1, 290846, Note_off_c, 1, 48, 0
1, 290849, Note_on_c, 1, 50, 127
1, 290849, Note_on_c, 1, 77, 127
1, 291007, Note_off_c, 1, 50, 0
1, 291007, Note_off_c, 1, 77, 0
1, 291010, Note_on_c, 1, 79, 127
1, 291010, Note_on_c, 1, 46, 127
1, 291088, Note_off_c, 1, 79, 0
1, 291090, Note_on_c, 1, 77, 127
1, 291168, Note_off_c, 1, 46, 0
1, 291168, Note_off_c, 1, 77, 0
1, 291170, Note_on_c, 1, 75, 127
1, 291170, Note_on_c, 1, 50, 127
1, 291248, Note_off_c, 1, 75, 0
1, 291251, Note_on_c, 1, 74, 127
1, 291328, Note_off_c, 1, 50, 0
1, 291329, Note_off_c, 1, 74, 0
1, 291331, Note_on_c, 1, 53, 127
1, 291331, Note_on_c, 1, 75, 127
1, 291489, Note_off_c, 1, 53, 0
1, 291489, Note_off_c, 1, 75, 0
1, 291492, Note_on_c, 1, 77, 127
1, 291492, Note_on_c, 1, 50, 127
1, 291570, Note_off_c, 1, 77, 0
1, 291572, Note_on_c, 1, 75, 127
1, 291650, Note_off_c, 1, 50, 0
1, 291650, Note_off_c, 1, 75, 0
1, 291653, Note_on_c, 1, 74, 127
1, 291653, Note_on_c, 1, 53, 127
1, 291731, Note_off_c, 1, 74, 0
1, 291733, Note_on_c, 1, 72, 127
1, 291811, Note_off_c, 1, 53, 0
1, 291811, Note_off_c, 1, 72, 0
1, 291814, Note_on_c, 1, 58, 127
1, 291814, Note_on_c, 1, 70, 127
1, 291973, Note_on_c, 1, 62, 127
1, 292131, Note_off_c, 1, 62, 0
1, 292133, Note_on_c, 1, 65, 127
1, 292288, Note_off_c, 1, 58, 0
1, 292291, Note_off_c, 1, 65, 0
1, 292773, Note_off_c, 1, 70, 0
1, 292775, Note_on_c, 1, 65, 127
1, 293092, Note_off_c, 1, 65, 0
1, 293095, Note_on_c, 1, 58, 127
1, 293212, Note_off_c, 1, 58, 0
1, 293254, Note_on_c, 1, 65, 127
1, 293571, Note_off_c, 1, 65, 0
1, 293573, Note_on_c, 1, 58, 127
1, 293690, Note_off_c, 1, 58, 0
1, 293732, Note_on_c, 1, 63, 127
1, 293890, Note_off_c, 1, 63, 0
1, 293893, Note_on_c, 1, 65, 127
1, 294051, Note_off_c, 1, 65, 0
1, 294054, Note_on_c, 1, 67, 127
1, 294212, Note_off_c, 1, 67, 0
1, 294215, Note_on_c, 1, 65, 127
1, 294373, Note_off_c, 1, 65, 0
1, 294376, Note_on_c, 1, 67, 127
1, 294534, Note_off_c, 1, 67, 0
1, 294536, Note_on_c, 1, 68, 127
1, 294694, Note_off_c, 1, 68, 0
1, 294697, Note_on_c, 1, 67, 127
1, 294697, Note_on_c, 1, 58, 127
1, 294855, Note_off_c, 1, 67, 0
1, 294858, Note_on_c, 1, 70, 127
1, 295016, Note_off_c, 1, 58, 0
1, 295016, Note_off_c, 1, 70, 0
1, 295019, Note_on_c, 1, 51, 127
1, 295019, Note_on_c, 1, 68, 127
1, 295136, Note_off_c, 1, 51, 0
1, 295176, Note_off_c, 1, 68, 0
1, 295178, Note_on_c, 1, 67, 127
1, 295178, Note_on_c, 1, 58, 127
1, 295336, Note_off_c, 1, 67, 0
1, 295339, Note_on_c, 1, 65, 127
1, 295497, Note_off_c, 1, 58, 0
1, 295497, Note_off_c, 1, 65, 0
1, 295499, Note_on_c, 1, 51, 127
1, 295499, Note_on_c, 1, 63, 127
1, 295616, Note_off_c, 1, 51, 0
1, 295656, Note_off_c, 1, 63, 0
1, 295658, Note_on_c, 1, 56, 127
1, 295658, Note_on_c, 1, 65, 127
1, 295816, Note_off_c, 1, 56, 0
1, 295819, Note_on_c, 1, 58, 127
1, 295897, Note_off_c, 1, 65, 0
1, 295900, Note_on_c, 1, 67, 127
1, 295977, Note_off_c, 1, 58, 0
1, 295978, Note_off_c, 1, 67, 0
1, 295980, Note_on_c, 1, 65, 127
1, 295980, Note_on_c, 1, 60, 127
1, 296058, Note_off_c, 1, 65, 0
1, 296060, Note_on_c, 1, 67, 127
1, 296138, Note_off_c, 1, 60, 0
1, 296138, Note_off_c, 1, 67, 0
1, 296141, Note_on_c, 1, 68, 127
1, 296141, Note_on_c, 1, 58, 127
1, 296219, Note_off_c, 1, 68, 0
1, 296221, Note_on_c, 1, 67, 127
1, 296299, Note_off_c, 1, 58, 0
1, 296299, Note_off_c, 1, 67, 0
1, 296302, Note_on_c, 1, 68, 127
1, 296302, Note_on_c, 1, 60, 127
1, 296380, Note_off_c, 1, 68, 0
1, 296382, Note_on_c, 1, 67, 127
1, 296460, Note_off_c, 1, 60, 0
1, 296460, Note_off_c, 1, 67, 0
1, 296462, Note_on_c, 1, 65, 127
1, 296462, Note_on_c, 1, 61, 127
1, 296540, Note_off_c, 1, 65, 0
1, 296543, Note_on_c, 1, 67, 127
1, 296620, Note_off_c, 1, 61, 0
1, 296621, Note_off_c, 1, 67, 0
1, 296623, Note_on_c, 1, 68, 127
1, 296623, Note_on_c, 1, 60, 127
1, 296781, Note_off_c, 1, 68, 0
1, 296784, Note_on_c, 1, 72, 127
1, 296862, Note_off_c, 1, 60, 0
1, 296865, Note_on_c, 1, 62, 127
1, 296942, Note_off_c, 1, 72, 0
1, 296943, Note_off_c, 1, 62, 0
1, 296945, Note_on_c, 1, 60, 127
1, 296945, Note_on_c, 1, 70, 127
1, 297023, Note_off_c, 1, 60, 0
1, 297025, Note_on_c, 1, 62, 127
1, 297103, Note_off_c, 1, 70, 0
1, 297103, Note_off_c, 1, 62, 0
1, 297106, Note_on_c, 1, 63, 127
1, 297106, Note_on_c, 1, 68, 127
1, 297184, Note_off_c, 1, 63, 0
1, 297186, Note_on_c, 1, 62, 127
1, 297264, Note_off_c, 1, 68, 0
1, 297264, Note_off_c, 1, 62, 0
1, 297267, Note_on_c, 1, 63, 127
1, 297267, Note_on_c, 1, 67, 127
1, 297345, Note_off_c, 1, 63, 0
1, 297347, Note_on_c, 1, 62, 127
1, 297425, Note_off_c, 1, 67, 0
1, 297425, Note_off_c, 1, 62, 0
1, 297427, Note_on_c, 1, 60, 127
1, 297427, Note_on_c, 1, 65, 127
1, 297505, Note_off_c, 1, 60, 0
1, 297508, Note_on_c, 1, 62, 127
1, 297585, Note_off_c, 1, 65, 0
1, 297586, Note_off_c, 1, 62, 0
1, 297588, Note_on_c, 1, 63, 127
1, 297588, Note_on_c, 1, 67, 127
1, 297746, Note_off_c, 1, 63, 0
1, 297746, Note_off_c, 1, 67, 0
1, 297749, Note_on_c, 1, 67, 127
1, 297829, Note_on_c, 1, 69, 127
1, 297907, Note_off_c, 1, 67, 0
1, 297907, Note_off_c, 1, 69, 0
1, 297910, Note_on_c, 1, 67, 127
1, 297910, Note_on_c, 1, 65, 127
1, 297988, Note_off_c, 1, 67, 0
1, 297990, Note_on_c, 1, 69, 127
1, 298068, Note_off_c, 1, 65, 0
1, 298068, Note_off_c, 1, 69, 0
1, 298071, Note_on_c, 1, 70, 127
1, 298071, Note_on_c, 1, 63, 127
1, 298149, Note_off_c, 1, 70, 0
1, 298151, Note_on_c, 1, 69, 127
1, 298229, Note_off_c, 1, 63, 0
1, 298229, Note_off_c, 1, 69, 0
1, 298231, Note_on_c, 1, 70, 127
1, 298231, Note_on_c, 1, 62, 127
1, 298309, Note_off_c, 1, 70, 0
1, 298312, Note_on_c, 1, 69, 127
1, 298389, Note_off_c, 1, 62, 0
1, 298390, Note_off_c, 1, 69, 0
1, 298392, Note_on_c, 1, 67, 127
1, 298392, Note_on_c, 1, 60, 127
1, 298470, Note_off_c, 1, 67, 0
1, 298473, Note_on_c, 1, 69, 127
1, 298550, Note_off_c, 1, 60, 0
1, 298551, Note_off_c, 1, 69, 0
1, 298553, Note_on_c, 1, 62, 127
1, 298555, Note_on_c, 1, 65, 127
1, 298557, Note_on_c, 1, 70, 127
1, 298559, Note_on_c, 1, 74, 127
1, 298561, Note_on_c, 1, 77, 127
1, 298713, Note_off_c, 1, 62, 0
1, 298716, Note_on_c, 1, 53, 127
1, 298873, Note_off_c, 1, 70, 0
1, 298874, Note_off_c, 1, 53, 0
1, 298876, Note_off_c, 1, 65, 0
1, 298877, Note_on_c, 1, 56, 127
1, 298878, Note_off_c, 1, 74, 0
1, 298880, Note_off_c, 1, 77, 0
1, 299034, Note_off_c, 1, 56, 0
1, 299036, Note_on_c, 1, 60, 127
1, 299037, Note_on_c, 1, 65, 127
1, 299039, Note_on_c, 1, 68, 127
1, 299041, Note_on_c, 1, 74, 127
1, 299043, Note_on_c, 1, 77, 127
1, 299196, Note_off_c, 1, 60, 0
1, 299198, Note_on_c, 1, 58, 127
1, 299356, Note_off_c, 1, 58, 0
1, 299358, Note_off_c, 1, 65, 0
1, 299359, Note_on_c, 1, 70, 127
1, 299359, Note_on_c, 1, 56, 127
1, 299360, Note_off_c, 1, 68, 0
1, 299362, Note_off_c, 1, 74, 0
1, 299364, Note_off_c, 1, 77, 0
1, 299478, Note_off_c, 1, 70, 0
1, 299517, Note_off_c, 1, 56, 0
1, 299520, Note_on_c, 1, 55, 127
1, 299520, Note_on_c, 1, 75, 127
1, 299678, Note_off_c, 1, 55, 0
1, 299678, Note_off_c, 1, 75, 0
1, 299681, Note_on_c, 1, 53, 127
1, 299681, Note_on_c, 1, 77, 127
1, 299839, Note_off_c, 1, 53, 0
1, 299839, Note_off_c, 1, 77, 0
1, 299842, Note_on_c, 1, 51, 127
1, 299842, Note_on_c, 1, 79, 127
1, 300000, Note_off_c, 1, 51, 0
1, 300000, Note_off_c, 1, 79, 0
1, 300002, Note_on_c, 1, 50, 127
1, 300002, Note_on_c, 1, 77, 127
1, 300160, Note_off_c, 1, 50, 0
1, 300160, Note_off_c, 1, 77, 0
1, 300163, Note_on_c, 1, 48, 127
1, 300163, Note_on_c, 1, 79, 127
1, 300321, Note_off_c, 1, 48, 0
1, 300321, Note_off_c, 1, 79, 0
1, 300324, Note_on_c, 1, 46, 127
1, 300324, Note_on_c, 1, 80, 127
1, 300482, Note_off_c, 1, 46, 0
1, 300482, Note_off_c, 1, 80, 0
1, 300485, Note_on_c, 1, 51, 127
1, 300485, Note_on_c, 1, 79, 127
1, 300644, Note_on_c, 1, 74, 127
1, 300802, Note_off_c, 1, 51, 0
1, 300802, Note_off_c, 1, 79, 0
1, 300802, Note_off_c, 1, 74, 0
1, 300805, Note_on_c, 1, 67, 127
1, 300805, Note_on_c, 1, 75, 127
1, 300963, Note_off_c, 1, 67, 0
1, 300963, Note_off_c, 1, 75, 0
1, 300965, Note_on_c, 1, 51, 127
1, 300965, Note_on_c, 1, 79, 127
1, 301124, Note_on_c, 1, 74, 127
1, 301282, Note_off_c, 1, 51, 0
1, 301282, Note_off_c, 1, 79, 0
1, 301282, Note_off_c, 1, 74, 0
1, 301285, Note_on_c, 1, 67, 127
1, 301285, Note_on_c, 1, 75, 127
1, 301443, Note_off_c, 1, 67, 0
1, 301443, Note_off_c, 1, 75, 0
1, 301446, Note_on_c, 1, 56, 127
1, 301446, Note_on_c, 1, 72, 127
1, 301604, Note_off_c, 1, 56, 0
1, 301604, Note_off_c, 1, 72, 0
1, 301607, Note_on_c, 1, 59, 127
1, 301607, Note_on_c, 1, 80, 127
1, 301765, Note_off_c, 1, 59, 0
1, 301765, Note_off_c, 1, 80, 0
1, 301768, Note_on_c, 1, 60, 127
1, 301768, Note_on_c, 1, 79, 127
1, 301926, Note_off_c, 1, 60, 0
1, 301926, Note_off_c, 1, 79, 0
1, 301928, Note_on_c, 1, 56, 127
1, 301928, Note_on_c, 1, 77, 127
1, 302086, Note_off_c, 1, 56, 0
1, 302086, Note_off_c, 1, 77, 0
1, 302089, Note_on_c, 1, 59, 127
1, 302089, Note_on_c, 1, 79, 127
1, 302247, Note_off_c, 1, 59, 0
1, 302247, Note_off_c, 1, 79, 0
1, 302250, Note_on_c, 1, 60, 127
1, 302250, Note_on_c, 1, 75, 127
1, 302408, Note_off_c, 1, 60, 0
1, 302408, Note_off_c, 1, 75, 0
1, 302411, Note_on_c, 1, 50, 127
1, 302411, Note_on_c, 1, 77, 127
1, 302570, Note_on_c, 1, 72, 127
1, 302728, Note_off_c, 1, 50, 0
1, 302728, Note_off_c, 1, 77, 0
1, 302728, Note_off_c, 1, 72, 0
1, 302731, Note_on_c, 1, 65, 127
1, 302731, Note_on_c, 1, 74, 127
1, 302889, Note_off_c, 1, 65, 0
1, 302889, Note_off_c, 1, 74, 0
1, 302892, Note_on_c, 1, 50, 127
1, 302892, Note_on_c, 1, 77, 127
1, 303050, Note_on_c, 1, 72, 127
1, 303208, Note_off_c, 1, 72, 0
1, 303209, Note_off_c, 1, 50, 0
1, 303209, Note_off_c, 1, 77, 0
1, 303211, Note_on_c, 1, 65, 127
1, 303211, Note_on_c, 1, 74, 127
1, 303369, Note_off_c, 1, 65, 0
1, 303369, Note_off_c, 1, 74, 0
1, 303372, Note_on_c, 1, 55, 127
1, 303372, Note_on_c, 1, 71, 127
1, 303530, Note_off_c, 1, 55, 0
1, 303530, Note_off_c, 1, 71, 0
1, 303533, Note_on_c, 1, 59, 127
1, 303533, Note_on_c, 1, 79, 127
1, 303691, Note_off_c, 1, 59, 0
1, 303691, Note_off_c, 1, 79, 0
1, 303694, Note_on_c, 1, 62, 127
1, 303694, Note_on_c, 1, 77, 127
1, 303852, Note_off_c, 1, 62, 0
1, 303852, Note_off_c, 1, 77, 0
1, 303855, Note_on_c, 1, 55, 127
1, 303855, Note_on_c, 1, 75, 127
1, 304013, Note_off_c, 1, 55, 0
1, 304013, Note_off_c, 1, 75, 0
1, 304015, Note_on_c, 1, 59, 127
1, 304015, Note_on_c, 1, 77, 127
1, 304173, Note_off_c, 1, 59, 0
1, 304173, Note_off_c, 1, 77, 0
1, 304176, Note_on_c, 1, 62, 127
1, 304176, Note_on_c, 1, 74, 127
1, 304334, Note_off_c, 1, 62, 0
1, 304334, Note_off_c, 1, 74, 0
1, 304337, Note_on_c, 1, 60, 127
1, 304337, Note_on_c, 1, 67, 127
1, 304337, Note_on_c, 1, 75, 127
1, 304495, Note_off_c, 1, 60, 0
1, 304498, Note_on_c, 1, 48, 127
1, 304656, Note_off_c, 1, 67, 0
1, 304656, Note_off_c, 1, 48, 0
1, 304817, Note_off_c, 1, 75, 0
1, 304819, Note_on_c, 1, 58, 127
1, 304819, Note_on_c, 1, 67, 127
1, 304819, Note_on_c, 1, 76, 127
1, 304977, Note_off_c, 1, 58, 0
1, 304980, Note_on_c, 1, 61, 127
1, 305138, Note_off_c, 1, 67, 0
1, 305138, Note_off_c, 1, 61, 0
1, 305141, Note_on_c, 1, 60, 127
1, 305299, Note_off_c, 1, 76, 0
1, 305299, Note_off_c, 1, 60, 0
1, 305302, Note_on_c, 1, 56, 127
1, 305302, Note_on_c, 1, 65, 127
1, 305302, Note_on_c, 1, 77, 127
1, 305460, Note_off_c, 1, 56, 0
1, 305460, Note_off_c, 1, 65, 0
1, 305463, Note_on_c, 1, 55, 127
1, 305463, Note_on_c, 1, 67, 127
1, 305621, Note_off_c, 1, 77, 0
1, 305621, Note_off_c, 1, 55, 0
1, 305621, Note_off_c, 1, 67, 0
1, 305624, Note_on_c, 1, 53, 127
1, 305624, Note_on_c, 1, 68, 127
1, 305782, Note_off_c, 1, 53, 0
1, 305782, Note_off_c, 1, 68, 0
1, 305784, Note_on_c, 1, 67, 127
1, 305784, Note_on_c, 1, 60, 127
1, 305784, Note_on_c, 1, 75, 127
1, 305942, Note_off_c, 1, 67, 0
1, 305945, Note_on_c, 1, 68, 127
1, 306103, Note_off_c, 1, 60, 0
1, 306103, Note_off_c, 1, 68, 0
1, 306106, Note_on_c, 1, 48, 127
1, 306106, Note_on_c, 1, 70, 127
1, 306264, Note_off_c, 1, 48, 0
1, 306264, Note_off_c, 1, 70, 0
1, 306267, Note_on_c, 1, 53, 127
1, 306423, Note_off_c, 1, 75, 0
1, 306426, Note_on_c, 1, 77, 127
1, 306584, Note_off_c, 1, 53, 0
1, 306584, Note_off_c, 1, 77, 0
1, 306747, Note_on_c, 1, 74, 127
1, 306905, Note_off_c, 1, 74, 0
1, 307069, Note_on_c, 1, 72, 127
1, 307227, Note_off_c, 1, 72, 0
1, 307230, Note_on_c, 1, 55, 127
1, 307230, Note_on_c, 1, 71, 127
1, 307387, Note_off_c, 1, 55, 0
1, 307389, Note_on_c, 1, 57, 127
1, 307547, Note_off_c, 1, 71, 0
1, 307547, Note_off_c, 1, 57, 0
1, 307550, Note_on_c, 1, 59, 127
1, 307550, Note_on_c, 1, 65, 127
1, 307708, Note_off_c, 1, 59, 0
1, 307708, Note_off_c, 1, 65, 0
1, 307711, Note_on_c, 1, 57, 127
1, 307711, Note_on_c, 1, 67, 127
1, 307711, Note_on_c, 1, 72, 127
1, 307869, Note_off_c, 1, 57, 0
1, 307869, Note_off_c, 1, 67, 0
1, 307871, Note_on_c, 1, 59, 127
1, 307871, Note_on_c, 1, 65, 127
1, 308029, Note_off_c, 1, 59, 0
1, 308029, Note_off_c, 1, 65, 0
1, 308030, Note_off_c, 1, 72, 0
1, 308032, Note_on_c, 1, 60, 127
1, 308032, Note_on_c, 1, 63, 127
1, 308190, Note_off_c, 1, 60, 0
1, 308190, Note_off_c, 1, 63, 0
1, 308193, Note_on_c, 1, 59, 127
1, 308193, Note_on_c, 1, 65, 127
1, 308193, Note_on_c, 1, 74, 127
1, 308351, Note_off_c, 1, 59, 0
1, 308354, Note_on_c, 1, 55, 127
1, 308512, Note_off_c, 1, 65, 0
1, 308512, Note_off_c, 1, 74, 0
1, 308512, Note_off_c, 1, 55, 0
1, 308515, Note_on_c, 1, 60, 127
1, 308515, Note_on_c, 1, 63, 127
1, 308515, Note_on_c, 1, 72, 127
1, 308673, Note_off_c, 1, 60, 0
1, 308673, Note_off_c, 1, 63, 0
1, 308675, Note_on_c, 1, 53, 127
1, 308675, Note_on_c, 1, 62, 127
1, 308833, Note_off_c, 1, 53, 0
1, 308834, Note_off_c, 1, 72, 0
1, 308836, Note_on_c, 1, 50, 127
1, 308994, Note_off_c, 1, 50, 0
1, 308997, Note_on_c, 1, 55, 127
1, 308997, Note_on_c, 1, 71, 127
1, 309151, Note_off_c, 1, 62, 0
1, 309155, Note_off_c, 1, 55, 0
1, 309155, Note_off_c, 1, 71, 0
1, 309158, Note_on_c, 1, 48, 127
1, 309158, Note_on_c, 1, 63, 127
1, 309158, Note_on_c, 1, 72, 127
1, 309475, Note_off_c, 1, 48, 0
1, 309475, Note_off_c, 1, 63, 0
1, 309478, Note_on_c, 1, 43, 127
1, 309614, Note_off_c, 1, 43, 0
1, 309795, Note_off_c, 1, 72, 0
1, 309797, Note_on_c, 1, 75, 127
1, 309875, Note_off_c, 1, 75, 0
1, 309878, Note_on_c, 1, 74, 127
1, 309956, Note_off_c, 1, 74, 0
1, 309958, Note_on_c, 1, 72, 127
1, 309958, Note_on_c, 1, 43, 127
1, 310036, Note_off_c, 1, 72, 0
1, 310039, Note_on_c, 1, 74, 127
1, 310096, Note_off_c, 1, 43, 0
1, 310117, Note_off_c, 1, 74, 0
1, 310119, Note_on_c, 1, 48, 127
1, 310119, Note_on_c, 1, 75, 127
1, 310277, Note_off_c, 1, 48, 0
1, 310280, Note_on_c, 1, 50, 127
1, 310280, Note_on_c, 1, 70, 127
1, 310438, Note_off_c, 1, 75, 0
1, 310438, Note_off_c, 1, 50, 0
1, 310438, Note_off_c, 1, 70, 0
1, 310441, Note_on_c, 1, 51, 127
1, 310441, Note_on_c, 1, 79, 127
1, 310599, Note_off_c, 1, 51, 0
1, 310599, Note_off_c, 1, 79, 0
1, 310602, Note_on_c, 1, 50, 127
1, 310602, Note_on_c, 1, 77, 127
1, 310760, Note_off_c, 1, 50, 0
1, 310762, Note_on_c, 1, 51, 127
1, 310762, Note_on_c, 1, 70, 127
1, 310920, Note_off_c, 1, 51, 0
1, 310920, Note_off_c, 1, 70, 0
1, 310921, Note_off_c, 1, 77, 0
1, 310923, Note_on_c, 1, 53, 127
1, 310923, Note_on_c, 1, 80, 127
1, 311081, Note_off_c, 1, 53, 0
1, 311081, Note_off_c, 1, 80, 0
1, 311084, Note_on_c, 1, 79, 127
1, 311084, Note_on_c, 1, 51, 127
1, 311242, Note_off_c, 1, 79, 0
1, 311245, Note_on_c, 1, 82, 127
1, 311403, Note_off_c, 1, 51, 0
1, 311403, Note_off_c, 1, 82, 0
1, 311406, Note_on_c, 1, 46, 127
1, 311406, Note_on_c, 1, 80, 127
1, 311542, Note_off_c, 1, 46, 0
1, 311563, Note_off_c, 1, 80, 0
1, 311565, Note_on_c, 1, 79, 127
1, 311565, Note_on_c, 1, 51, 127
1, 311723, Note_off_c, 1, 79, 0
1, 311725, Note_on_c, 1, 77, 127
1, 311883, Note_off_c, 1, 77, 0
1, 311884, Note_off_c, 1, 51, 0
1, 311886, Note_on_c, 1, 46, 127
1, 311886, Note_on_c, 1, 75, 127
1, 312022, Note_off_c, 1, 46, 0
1, 312043, Note_off_c, 1, 75, 0
1, 312045, Note_on_c, 1, 53, 127
1, 312045, Note_on_c, 1, 73, 127
1, 312203, Note_off_c, 1, 53, 0
1, 312206, Note_on_c, 1, 55, 127
1, 312206, Note_on_c, 1, 82, 127
1, 312364, Note_off_c, 1, 73, 0
1, 312364, Note_off_c, 1, 55, 0
1, 312364, Note_off_c, 1, 82, 0
1, 312367, Note_on_c, 1, 56, 127
1, 312367, Note_on_c, 1, 72, 127
1, 312525, Note_off_c, 1, 56, 0
1, 312525, Note_off_c, 1, 72, 0
1, 312528, Note_on_c, 1, 55, 127
1, 312528, Note_on_c, 1, 73, 127
1, 312686, Note_off_c, 1, 55, 0
1, 312688, Note_on_c, 1, 56, 127
1, 312688, Note_on_c, 1, 82, 127
1, 312846, Note_off_c, 1, 56, 0
1, 312846, Note_off_c, 1, 82, 0
1, 312847, Note_off_c, 1, 73, 0
1, 312849, Note_on_c, 1, 58, 127
1, 312849, Note_on_c, 1, 73, 127
1, 313007, Note_off_c, 1, 58, 0
1, 313007, Note_off_c, 1, 73, 0
1, 313010, Note_on_c, 1, 72, 127
1, 313010, Note_on_c, 1, 56, 127
1, 313168, Note_off_c, 1, 72, 0
1, 313171, Note_on_c, 1, 75, 127
1, 313329, Note_off_c, 1, 56, 0
1, 313329, Note_off_c, 1, 75, 0
1, 313332, Note_on_c, 1, 51, 127
1, 313332, Note_on_c, 1, 80, 127
1, 313468, Note_off_c, 1, 51, 0
1, 313489, Note_off_c, 1, 80, 0
1, 313491, Note_on_c, 1, 79, 127
1, 313491, Note_on_c, 1, 56, 127
1, 313649, Note_off_c, 1, 79, 0
1, 313652, Note_on_c, 1, 77, 127
1, 313810, Note_off_c, 1, 56, 0
1, 313810, Note_off_c, 1, 77, 0
1, 313812, Note_on_c, 1, 51, 127
1, 313812, Note_on_c, 1, 80, 127
1, 313948, Note_off_c, 1, 51, 0
1, 313969, Note_off_c, 1, 80, 0
1, 313971, Note_on_c, 1, 58, 127
1, 313971, Note_on_c, 1, 74, 127
1, 314129, Note_off_c, 1, 58, 0
1, 314132, Note_on_c, 1, 60, 127
1, 314290, Note_off_c, 1, 74, 0
1, 314290, Note_off_c, 1, 60, 0
1, 314293, Note_on_c, 1, 62, 127
1, 314293, Note_on_c, 1, 70, 127
1, 314451, Note_off_c, 1, 62, 0
1, 314451, Note_off_c, 1, 70, 0
1, 314454, Note_on_c, 1, 60, 127
1, 314454, Note_on_c, 1, 75, 127
1, 314612, Note_off_c, 1, 60, 0
1, 314615, Note_on_c, 1, 62, 127
1, 314773, Note_off_c, 1, 75, 0
1, 314773, Note_off_c, 1, 62, 0
1, 314775, Note_on_c, 1, 63, 127
1, 314775, Note_on_c, 1, 70, 127
1, 314933, Note_off_c, 1, 63, 0
1, 314933, Note_off_c, 1, 70, 0
1, 314936, Note_on_c, 1, 62, 127
1, 314936, Note_on_c, 1, 77, 127
1, 315094, Note_off_c, 1, 62, 0
1, 315097, Note_on_c, 1, 65, 127
1, 315255, Note_off_c, 1, 77, 0
1, 315255, Note_off_c, 1, 65, 0
1, 315258, Note_on_c, 1, 63, 127
1, 315258, Note_on_c, 1, 70, 127
1, 315416, Note_off_c, 1, 63, 0
1, 315416, Note_off_c, 1, 70, 0
1, 315419, Note_on_c, 1, 62, 127
1, 315419, Note_on_c, 1, 77, 127
1, 315577, Note_off_c, 1, 62, 0
1, 315579, Note_on_c, 1, 60, 127
1, 315737, Note_off_c, 1, 60, 0
1, 315738, Note_off_c, 1, 77, 0
1, 315740, Note_on_c, 1, 58, 127
1, 315740, Note_on_c, 1, 68, 127
1, 315898, Note_off_c, 1, 58, 0
1, 315898, Note_off_c, 1, 68, 0
1, 315901, Note_on_c, 1, 51, 127
1, 315901, Note_on_c, 1, 67, 127
1, 316059, Note_off_c, 1, 51, 0
1, 316062, Note_on_c, 1, 63, 127
1, 316140, Note_off_c, 1, 67, 0
1, 316142, Note_on_c, 1, 68, 127
1, 316220, Note_off_c, 1, 63, 0
1, 316220, Note_off_c, 1, 68, 0
1, 316223, Note_on_c, 1, 67, 127
1, 316223, Note_on_c, 1, 61, 127
1, 316301, Note_off_c, 1, 67, 0
1, 316303, Note_on_c, 1, 68, 127
1, 316381, Note_off_c, 1, 61, 0
1, 316381, Note_off_c, 1, 68, 0
1, 316384, Note_on_c, 1, 70, 127
1, 316384, Note_on_c, 1, 60, 127
1, 316462, Note_off_c, 1, 70, 0
1, 316464, Note_on_c, 1, 68, 127
1, 316542, Note_off_c, 1, 60, 0
1, 316542, Note_off_c, 1, 68, 0
1, 316544, Note_on_c, 1, 70, 127
1, 316544, Note_on_c, 1, 58, 127
1, 316622, Note_off_c, 1, 70, 0
1, 316625, Note_on_c, 1, 68, 127
1, 316702, Note_off_c, 1, 58, 0
1, 316703, Note_off_c, 1, 68, 0
1, 316705, Note_on_c, 1, 67, 127
1, 316705, Note_on_c, 1, 56, 127
1, 316783, Note_off_c, 1, 67, 0
1, 316786, Note_on_c, 1, 68, 127
1, 316863, Note_off_c, 1, 56, 0
1, 316864, Note_off_c, 1, 68, 0
1, 316866, Note_on_c, 1, 70, 127
1, 316866, Note_on_c, 1, 55, 127
1, 317024, Note_off_c, 1, 70, 0
1, 317027, Note_on_c, 1, 75, 127
1, 317105, Note_off_c, 1, 55, 0
1, 317107, Note_on_c, 1, 56, 127
1, 317185, Note_off_c, 1, 75, 0
1, 317185, Note_off_c, 1, 56, 0
1, 317188, Note_on_c, 1, 55, 127
1, 317188, Note_on_c, 1, 73, 127
1, 317266, Note_off_c, 1, 55, 0
1, 317268, Note_on_c, 1, 56, 127
1, 317346, Note_off_c, 1, 73, 0
1, 317346, Note_off_c, 1, 56, 0
1, 317348, Note_on_c, 1, 58, 127
1, 317348, Note_on_c, 1, 72, 127
1, 317426, Note_off_c, 1, 58, 0
1, 317429, Note_on_c, 1, 56, 127
1, 317506, Note_off_c, 1, 72, 0
1, 317507, Note_off_c, 1, 56, 0
1, 317509, Note_on_c, 1, 58, 127
1, 317509, Note_on_c, 1, 70, 127
1, 317587, Note_off_c, 1, 58, 0
1, 317590, Note_on_c, 1, 56, 127
1, 317667, Note_off_c, 1, 70, 0
1, 317668, Note_off_c, 1, 56, 0
1, 317670, Note_on_c, 1, 55, 127
1, 317670, Note_on_c, 1, 68, 127
1, 317748, Note_off_c, 1, 55, 0
1, 317751, Note_on_c, 1, 56, 127
1, 317828, Note_off_c, 1, 68, 0
1, 317829, Note_off_c, 1, 56, 0
1, 317831, Note_on_c, 1, 67, 127
1, 317831, Note_on_c, 1, 58, 127
1, 318068, Note_off_c, 1, 67, 0
1, 318070, Note_on_c, 1, 65, 127
1, 318148, Note_off_c, 1, 58, 0
1, 318148, Note_off_c, 1, 65, 0
1, 318151, Note_on_c, 1, 63, 127
1, 318229, Note_off_c, 1, 63, 0
1, 318231, Note_on_c, 1, 65, 127
1, 318309, Note_off_c, 1, 65, 0
1, 318312, Note_on_c, 1, 67, 127
1, 318312, Note_on_c, 1, 46, 127
1, 318390, Note_off_c, 1, 67, 0
1, 318392, Note_on_c, 1, 65, 127
1, 318470, Note_off_c, 1, 65, 0
1, 318631, Note_off_c, 1, 46, 0
1, 318633, Note_on_c, 1, 63, 127
1, 318711, Note_off_c, 1, 63, 0
1, 318714, Note_on_c, 1, 65, 127
1, 318792, Note_off_c, 1, 65, 0
1, 318794, Note_on_c, 1, 63, 127
1, 318794, Note_on_c, 1, 51, 127
1, 318952, Note_off_c, 1, 63, 0
1, 318955, Note_on_c, 1, 67, 127
1, 319113, Note_off_c, 1, 51, 0
1, 319113, Note_off_c, 1, 67, 0
1, 319116, Note_on_c, 1, 46, 127
1, 319116, Note_on_c, 1, 70, 127
1, 319246, Note_off_c, 1, 46, 0
1, 319274, Note_off_c, 1, 70, 0
1, 319276, Note_on_c, 1, 67, 127
1, 319276, Note_on_c, 1, 51, 127
1, 319434, Note_off_c, 1, 67, 0
1, 319437, Note_on_c, 1, 63, 127
1, 319595, Note_off_c, 1, 51, 0
1, 319595, Note_off_c, 1, 63, 0
1, 319598, Note_on_c, 1, 46, 127
1, 319598, Note_on_c, 1, 70, 127
1, 319728, Note_off_c, 1, 46, 0
1, 319756, Note_off_c, 1, 70, 0
1, 319759, Note_on_c, 1, 72, 127
1, 319759, Note_on_c, 1, 51, 127
1, 319832, Note_on_c, 1, 70, 127
1, 319837, Note_off_c, 1, 72, 0
1, 319908, Note_off_c, 1, 70, 0
1, 319916, Note_off_c, 1, 51, 0
1, 319918, Note_on_c, 1, 53, 127
1, 320075, Note_off_c, 1, 53, 0
1, 320077, Note_on_c, 1, 55, 127
1, 320235, Note_off_c, 1, 55, 0
1, 320552, Note_on_c, 1, 56, 127
1, 320710, Note_off_c, 1, 56, 0
1, 320873, Note_on_c, 1, 51, 127
1, 320873, Note_on_c, 1, 67, 127
1, 321031, Note_off_c, 1, 51, 0
1, 321031, Note_off_c, 1, 67, 0
1, 321034, Note_on_c, 1, 53, 127
1, 321034, Note_on_c, 1, 75, 127
1, 321192, Note_off_c, 1, 53, 0
1, 321192, Note_off_c, 1, 75, 0
1, 321195, Note_on_c, 1, 55, 127
1, 321195, Note_on_c, 1, 70, 127
1, 321353, Note_off_c, 1, 55, 0
1, 321353, Note_off_c, 1, 70, 0
1, 321356, Note_on_c, 1, 56, 127
1, 321356, Note_on_c, 1, 67, 127
1, 321514, Note_off_c, 1, 56, 0
1, 321514, Note_off_c, 1, 67, 0
1, 321517, Note_on_c, 1, 58, 127
1, 321517, Note_on_c, 1, 75, 127
1, 321675, Note_off_c, 1, 58, 0
1, 321675, Note_off_c, 1, 75, 0
1, 321678, Note_on_c, 1, 60, 127
1, 321678, Note_on_c, 1, 70, 127
1, 321756, Note_off_c, 1, 60, 0
1, 321758, Note_on_c, 1, 58, 127
1, 321836, Note_off_c, 1, 70, 0
1, 321836, Note_off_c, 1, 58, 0
1, 321838, Note_on_c, 1, 60, 127
1, 321838, Note_on_c, 1, 72, 127
1, 321916, Note_off_c, 1, 60, 0
1, 321916, Note_off_c, 1, 72, 0
1, 321919, Note_on_c, 1, 58, 127
1, 321919, Note_on_c, 1, 70, 127
1, 321997, Note_off_c, 1, 58, 0
1, 321997, Note_off_c, 1, 70, 0
1, 321999, Note_on_c, 1, 60, 127
1, 321999, Note_on_c, 1, 68, 127
1, 322077, Note_off_c, 1, 60, 0
1, 322077, Note_off_c, 1, 68, 0
1, 322080, Note_on_c, 1, 58, 127
1, 322080, Note_on_c, 1, 67, 127
1, 322158, Note_off_c, 1, 58, 0
1, 322158, Note_off_c, 1, 67, 0
1, 322160, Note_on_c, 1, 60, 127
1, 322160, Note_on_c, 1, 68, 127
1, 322238, Note_off_c, 1, 60, 0
1, 322240, Note_on_c, 1, 58, 127
1, 322318, Note_off_c, 1, 68, 0
1, 322318, Note_off_c, 1, 58, 0
1, 322321, Note_on_c, 1, 60, 127
1, 322321, Note_on_c, 1, 70, 127
1, 322399, Note_off_c, 1, 60, 0
1, 322399, Note_off_c, 1, 70, 0
1, 322401, Note_on_c, 1, 58, 127
1, 322401, Note_on_c, 1, 68, 127
1, 322479, Note_off_c, 1, 58, 0
1, 322479, Note_off_c, 1, 68, 0
1, 322482, Note_on_c, 1, 60, 127
1, 322482, Note_on_c, 1, 67, 127
1, 322560, Note_off_c, 1, 60, 0
1, 322560, Note_off_c, 1, 67, 0
1, 322562, Note_on_c, 1, 65, 127
1, 322562, Note_on_c, 1, 58, 127
1, 322640, Note_off_c, 1, 65, 0
1, 322642, Note_on_c, 1, 67, 127
1, 322812, Note_off_c, 1, 67, 0
1, 322815, Note_on_c, 1, 70, 127
1, 322897, Note_off_c, 1, 70, 0
1, 322902, Note_on_c, 1, 68, 127
1, 322924, Note_off_c, 1, 58, 0
1, 322984, Note_off_c, 1, 68, 0
1, 322990, Note_on_c, 1, 67, 127
1, 322990, Note_on_c, 1, 63, 127
1, 323072, Note_off_c, 1, 67, 0
1, 323078, Note_on_c, 1, 65, 127
1, 323160, Note_off_c, 1, 63, 0
1, 323160, Note_off_c, 1, 65, 0
1, 323166, Note_on_c, 1, 67, 127
1, 323166, Note_on_c, 1, 58, 127
1, 323339, Note_off_c, 1, 67, 0
1, 323344, Note_on_c, 1, 70, 127
1, 323428, Note_off_c, 1, 70, 0
1, 323433, Note_on_c, 1, 68, 127
1, 323517, Note_off_c, 1, 68, 0
1, 323521, Note_off_c, 1, 58, 0
1, 323523, Note_on_c, 1, 67, 127
1, 323523, Note_on_c, 1, 63, 127
1, 323607, Note_off_c, 1, 67, 0
1, 323615, Note_on_c, 1, 65, 127
1, 323698, Note_off_c, 1, 63, 0
1, 323699, Note_off_c, 1, 65, 0
1, 323705, Note_on_c, 1, 67, 127
1, 323705, Note_on_c, 1, 58, 127
1, 323884, Note_off_c, 1, 67, 0
1, 323884, Note_off_c, 1, 58, 0
1, 323890, Note_on_c, 1, 60, 127
1, 323890, Note_on_c, 1, 63, 127
1, 323976, Note_off_c, 1, 60, 0
1, 323981, Note_on_c, 1, 58, 127
1, 324067, Note_off_c, 1, 58, 0
1, 324069, Note_off_c, 1, 63, 0
1, 324075, Note_on_c, 1, 56, 127
1, 324075, Note_on_c, 1, 67, 127
1, 324161, Note_off_c, 1, 56, 0
1, 324167, Note_on_c, 1, 55, 127
1, 324253, Note_off_c, 1, 55, 0
1, 324254, Note_off_c, 1, 67, 0
1, 324260, Note_on_c, 1, 56, 127
1, 324260, Note_on_c, 1, 70, 127
1, 324445, Note_off_c, 1, 56, 0
1, 324445, Note_off_c, 1, 70, 0
1, 324451, Note_on_c, 1, 58, 127
1, 324451, Note_on_c, 1, 67, 127
1, 324538, Note_off_c, 1, 58, 0
1, 324546, Note_on_c, 1, 56, 127
1, 324633, Note_off_c, 1, 56, 0
1, 324634, Note_off_c, 1, 67, 0
1, 324640, Note_on_c, 1, 55, 127
1, 324640, Note_on_c, 1, 70, 127
1, 324727, Note_off_c, 1, 55, 0
1, 324737, Note_on_c, 1, 53, 127
1, 324825, Note_off_c, 1, 70, 0
1, 324828, Note_off_c, 1, 53, 0
1, 324836, Note_on_c, 1, 51, 127
1, 324836, Note_on_c, 1, 75, 127
1, 325039, Note_off_c, 1, 51, 0
1, 325077, Note_on_c, 1, 46, 127
1, 325280, Note_off_c, 1, 46, 0
1, 325329, Note_on_c, 1, 43, 127
1, 325532, Note_off_c, 1, 43, 0
1, 325632, Note_on_c, 1, 39, 127
1, 327936, Note_off_c, 1, 75, 0
1, 328032, Note_off_c, 1, 39, 0
1, 328032, End_track
0, 0, End_of_file