0, 0, Header, 1, 1, 480
1, 0, Start_track
1, 0, Title_t, "Test"
1, 0, Tempo, 500000
1, 0, Instrument_name_t, "Church Organ"
1, 64, Note_on_c, 1, 70, 127
1, 64, Note_on_c, 1, 63, 127
1, 192, Note_on_c, 1, 68, 127
1, 193, Note_off_c, 1, 70, 0
1, 320, Note_on_c, 1, 66, 127
1, 321, Note_off_c, 1, 68, 0
1, 906, Note_off_c, 1, 63, 0
1, 1020, Note_off_c, 1, 66, 0
1, 1768, Note_on_c, 1, 75, 127
1, 2404, Note_off_c, 1, 75, 0
1, 2408, Note_on_c, 1, 78, 127
1, 2617, Note_off_c, 1, 78, 0
1, 2621, Note_on_c, 1, 71, 127
1, 2750, Note_off_c, 1, 71, 0
1, 4326, Note_on_c, 1, 80, 127
1, 4962, Note_off_c, 1, 80, 0
1, 4965, Note_on_c, 1, 83, 127
1, 5174, Note_off_c, 1, 83, 0
1, 5178, Note_on_c, 1, 74, 127
1, 5312, Note_on_c, 1, 65, 127
1, 5318, Note_off_c, 1, 74, 0
1, 5628, Note_on_c, 1, 72, 127
1, 5768, Note_off_c, 1, 72, 0
1, 6031, Note_on_c, 1, 62, 127
1, 6154, Note_off_c, 1, 65, 0
1, 6599, Note_on_c, 1, 77, 127
1, 6873, Note_off_c, 1, 62, 0
1, 6879, Note_off_c, 1, 77, 0
1, 7736, Note_on_c, 1, 68, 127
1, 7736, Note_on_c, 1, 63, 127
1, 7874, Note_off_c, 1, 68, 0
1, 7878, Note_on_c, 1, 66, 127
1, 8016, Note_off_c, 1, 66, 0
1, 8304, Note_on_c, 1, 65, 127
1, 8436, Note_off_c, 1, 63, 0
1, 8442, Note_off_c, 1, 65, 0
1, 8446, Note_on_c, 1, 63, 127
1, 8588, Note_on_c, 1, 75, 127
1, 8722, Note_on_c, 1, 77, 127
1, 8854, Note_off_c, 1, 77, 0
1, 8855, Note_on_c, 1, 78, 127
1, 9136, Note_off_c, 1, 63, 0
1, 9174, Note_on_c, 1, 58, 127
1, 9383, Note_off_c, 1, 58, 0
1, 9388, Note_on_c, 1, 54, 127
1, 9388, Note_on_c, 1, 66, 127
1, 9431, Note_off_c, 1, 78, 0
1, 9438, Note_off_c, 1, 75, 0
1, 9521, Note_on_c, 1, 70, 127
1, 9998, Note_off_c, 1, 54, 0
1, 10027, Note_on_c, 1, 51, 127
1, 10230, Note_off_c, 1, 66, 0
1, 10236, Note_off_c, 1, 51, 0
1, 10240, Note_on_c, 1, 46, 127
1, 10363, Note_off_c, 1, 70, 0
1, 10506, Note_on_c, 1, 73, 127
1, 11086, Note_off_c, 1, 46, 0
1, 11226, Note_on_c, 1, 49, 127
1, 11348, Note_off_c, 1, 73, 0
1, 11752, Note_on_c, 1, 76, 127
1, 11867, Note_off_c, 1, 76, 0
1, 12068, Note_off_c, 1, 49, 0
1, 12851, Note_on_c, 1, 47, 127
1, 13170, Note_on_c, 1, 59, 127
1, 13490, Note_on_c, 1, 71, 127
1, 13693, Note_off_c, 1, 47, 0
1, 13940, Note_off_c, 1, 71, 0
1, 14012, Note_off_c, 1, 59, 0
1, 15568, Note_on_c, 1, 43, 127
1, 15874, Note_on_c, 1, 82, 127
1, 16410, Note_off_c, 1, 43, 0
1, 16716, Note_off_c, 1, 82, 0
1, 16820, Note_on_c, 1, 55, 127
1, 17662, Note_off_c, 1, 55, 0
1, 18125, Note_on_c, 1, 44, 127
1, 18525, Note_on_c, 1, 56, 127
1, 18836, Note_on_c, 1, 68, 127
1, 18967, Note_off_c, 1, 44, 0
1, 18974, Note_off_c, 1, 68, 0
1, 19111, Note_on_c, 1, 80, 127
1, 19244, Note_on_c, 1, 83, 127
1, 19367, Note_off_c, 1, 56, 0
1, 19953, Note_off_c, 1, 80, 0
1, 20086, Note_off_c, 1, 83, 0
1, 20470, Note_on_c, 1, 65, 127
1, 20679, Note_off_c, 1, 65, 0
1, 20683, Note_on_c, 1, 62, 127
1, 21529, Note_off_c, 1, 62, 0
1, 25585, Note_on_c, 1, 60, 127
1, 25794, Note_off_c, 1, 60, 0
1, 25798, Note_on_c, 1, 72, 127
1, 25798, Note_on_c, 1, 57, 127
1, 26197, Note_on_c, 1, 84, 127
1, 26640, Note_off_c, 1, 72, 0
1, 26644, Note_off_c, 1, 57, 0
1, 27039, Note_off_c, 1, 84, 0
1, 28488, Note_on_c, 1, 61, 127
1, 29330, Note_off_c, 1, 61, 0
1, 33772, Note_on_c, 1, 67, 127
1, 33875, Note_off_c, 1, 67, 0
1, 33879, Note_on_c, 1, 69, 127
1, 33996, Note_off_c, 1, 69, 0
1, 34518, Note_on_c, 1, 53, 127
1, 35360, Note_off_c, 1, 53, 0
1, 37075, Note_on_c, 1, 41, 127
1, 37917, Note_off_c, 1, 41, 0
1, 39899, Note_on_c, 1, 65, 127
1, 40032, Note_on_c, 1, 70, 127
1, 40166, Note_on_c, 1, 73, 127
1, 40539, Note_on_c, 1, 46, 127
1, 40741, Note_off_c, 1, 65, 0
1, 40748, Note_off_c, 1, 46, 0
1, 40752, Note_on_c, 1, 49, 127
1, 40874, Note_off_c, 1, 70, 0
1, 41008, Note_off_c, 1, 73, 0
1, 41388, Note_off_c, 1, 49, 0
1, 41391, Note_on_c, 1, 53, 127
1, 41600, Note_off_c, 1, 53, 0
1, 41604, Note_on_c, 1, 64, 127
1, 41604, Note_on_c, 1, 43, 127
1, 42244, Note_on_c, 1, 72, 127
1, 42347, Note_off_c, 1, 72, 0
1, 42446, Note_off_c, 1, 64, 0
1, 42490, Note_off_c, 1, 43, 0
1, 42723, Note_on_c, 1, 76, 127
1, 43149, Note_on_c, 1, 44, 127
1, 43252, Note_off_c, 1, 44, 0
1, 43942, Note_off_c, 1, 76, 0
1, 44002, Note_on_c, 1, 75, 127
1, 44105, Note_off_c, 1, 75, 0
1, 44481, Note_on_c, 1, 79, 127
1, 44854, Note_on_c, 1, 47, 127
1, 44957, Note_off_c, 1, 47, 0
1, 45067, Note_on_c, 1, 52, 127
1, 45276, Note_off_c, 1, 52, 0
1, 45280, Note_on_c, 1, 51, 127
1, 45489, Note_off_c, 1, 51, 0
1, 45700, Note_off_c, 1, 79, 0
1, 45707, Note_on_c, 1, 77, 127
1, 45810, Note_off_c, 1, 77, 0
1, 45920, Note_on_c, 1, 47, 127
1, 45920, Note_on_c, 1, 71, 127
1, 46023, Note_off_c, 1, 47, 0
1, 46026, Note_on_c, 1, 46, 127
1, 46053, Note_on_c, 1, 75, 127
1, 46129, Note_off_c, 1, 46, 0
1, 46133, Note_on_c, 1, 44, 127
1, 46186, Note_on_c, 1, 80, 127
1, 46236, Note_off_c, 1, 44, 0
1, 46772, Note_on_c, 1, 40, 127
1, 46985, Note_on_c, 1, 79, 127
1, 47026, Note_off_c, 1, 80, 0
1, 47120, Note_off_c, 1, 71, 0
1, 47153, Note_off_c, 1, 75, 0
1, 47194, Note_off_c, 1, 79, 0
1, 47305, Note_on_c, 1, 52, 127
1, 47408, Note_off_c, 1, 52, 0
1, 47409, Note_off_c, 1, 40, 0
1, 47412, Note_on_c, 1, 51, 127
1, 47412, Note_on_c, 1, 82, 127
1, 47515, Note_off_c, 1, 51, 0
1, 47515, Note_off_c, 1, 82, 0
1, 47518, Note_on_c, 1, 49, 127
1, 47621, Note_off_c, 1, 49, 0
1, 47625, Note_on_c, 1, 51, 127
1, 47625, Note_on_c, 1, 75, 127
1, 47758, Note_on_c, 1, 79, 127
1, 47891, Note_on_c, 1, 83, 127
1, 47994, Note_off_c, 1, 83, 0
1, 48051, Note_on_c, 1, 82, 127
1, 48154, Note_off_c, 1, 82, 0
1, 48262, Note_off_c, 1, 51, 0
1, 48264, Note_on_c, 1, 49, 127
1, 48467, Note_off_c, 1, 75, 0
1, 48473, Note_off_c, 1, 49, 0
1, 48477, Note_on_c, 1, 73, 127
1, 48600, Note_off_c, 1, 79, 0
1, 49117, Note_on_c, 1, 39, 127
1, 49117, Note_on_c, 1, 80, 127
1, 49319, Note_off_c, 1, 73, 0
1, 49326, Note_off_c, 1, 39, 0
1, 49330, Note_on_c, 1, 44, 127
1, 49330, Note_on_c, 1, 71, 127
1, 49515, Note_off_c, 1, 80, 0
1, 49966, Note_off_c, 1, 44, 0
1, 50172, Note_off_c, 1, 71, 0
1, 50502, Note_on_c, 1, 77, 127
1, 51138, Note_off_c, 1, 77, 0
1, 51141, Note_on_c, 1, 78, 127
1, 51141, Note_on_c, 1, 59, 127
1, 51244, Note_off_c, 1, 78, 0
1, 51248, Note_on_c, 1, 80, 127
1, 51299, Note_off_c, 1, 59, 0
1, 51351, Note_off_c, 1, 80, 0
1, 51354, Note_on_c, 1, 53, 127
1, 51354, Note_on_c, 1, 74, 127
1, 51990, Note_off_c, 1, 53, 0
1, 51990, Note_off_c, 1, 74, 0
1, 51994, Note_on_c, 1, 54, 127
1, 51994, Note_on_c, 1, 75, 127
1, 52097, Note_off_c, 1, 54, 0
1, 52097, Note_off_c, 1, 75, 0
1, 52100, Note_on_c, 1, 56, 127
1, 52100, Note_on_c, 1, 77, 127
1, 52203, Note_off_c, 1, 56, 0
1, 52203, Note_off_c, 1, 77, 0
1, 52207, Note_on_c, 1, 50, 127
1, 52207, Note_on_c, 1, 70, 127
1, 52843, Note_off_c, 1, 50, 0
1, 52843, Note_off_c, 1, 70, 0
1, 52846, Note_on_c, 1, 51, 127
1, 52846, Note_on_c, 1, 80, 127
1, 52949, Note_off_c, 1, 51, 0
1, 52953, Note_on_c, 1, 53, 127
1, 53004, Note_off_c, 1, 80, 0
1, 53056, Note_off_c, 1, 53, 0
1, 53059, Note_on_c, 1, 46, 127
1, 53059, Note_on_c, 1, 74, 127
1, 53695, Note_off_c, 1, 46, 0
1, 53695, Note_off_c, 1, 74, 0
1, 53699, Note_on_c, 1, 75, 127
1, 53699, Note_on_c, 1, 56, 127
1, 53802, Note_off_c, 1, 75, 0
1, 53805, Note_on_c, 1, 77, 127
1, 53857, Note_off_c, 1, 56, 0
1, 53908, Note_off_c, 1, 77, 0
1, 53912, Note_on_c, 1, 70, 127
1, 53912, Note_on_c, 1, 50, 127
1, 54548, Note_off_c, 1, 70, 0
1, 54548, Note_off_c, 1, 50, 0
1, 54551, Note_on_c, 1, 51, 127
1, 54551, Note_on_c, 1, 72, 127
1, 54654, Note_off_c, 1, 51, 0
1, 54654, Note_off_c, 1, 72, 0
1, 54658, Note_on_c, 1, 53, 127
1, 54658, Note_on_c, 1, 74, 127
1, 54761, Note_off_c, 1, 53, 0
1, 54761, Note_off_c, 1, 74, 0
1, 54764, Note_on_c, 1, 75, 127
1, 54764, Note_on_c, 1, 42, 127
1, 55400, Note_off_c, 1, 75, 0
1, 55404, Note_on_c, 1, 73, 127
1, 55507, Note_off_c, 1, 73, 0
1, 55510, Note_on_c, 1, 71, 127
1, 55613, Note_off_c, 1, 71, 0
1, 55614, Note_off_c, 1, 42, 0
1, 55617, Note_on_c, 1, 43, 127
1, 55617, Note_on_c, 1, 73, 127
1, 56253, Note_off_c, 1, 43, 0
1, 56256, Note_on_c, 1, 58, 127
1, 56465, Note_off_c, 1, 58, 0
1, 56469, Note_on_c, 1, 55, 127
1, 56469, Note_on_c, 1, 63, 127
1, 56602, Note_on_c, 1, 70, 127
1, 56616, Note_off_c, 1, 73, 0
1, 57105, Note_off_c, 1, 55, 0
1, 57109, Note_on_c, 1, 51, 127
1, 57311, Note_off_c, 1, 63, 0
1, 57318, Note_off_c, 1, 51, 0
1, 57322, Note_on_c, 1, 44, 127
1, 57444, Note_off_c, 1, 70, 0
1, 57961, Note_on_c, 1, 71, 127
1, 58064, Note_off_c, 1, 71, 0
1, 58174, Note_on_c, 1, 68, 127
1, 58319, Note_off_c, 1, 44, 0
1, 58811, Note_off_c, 1, 68, 0
1, 58867, Note_on_c, 1, 59, 127
1, 59076, Note_off_c, 1, 59, 0
1, 59080, Note_on_c, 1, 56, 127
1, 59716, Note_off_c, 1, 56, 0
1, 59719, Note_on_c, 1, 53, 127
1, 59928, Note_off_c, 1, 53, 0
1, 59932, Note_on_c, 1, 50, 127
1, 60252, Note_on_c, 1, 65, 127
1, 60774, Note_off_c, 1, 50, 0
1, 61094, Note_off_c, 1, 65, 0
1, 61105, Note_on_c, 1, 77, 127
1, 61421, Note_off_c, 1, 77, 0
1, 62596, Note_on_c, 1, 54, 127
1, 62916, Note_on_c, 1, 66, 127
1, 63020, Note_off_c, 1, 66, 0
1, 63438, Note_off_c, 1, 54, 0
1, 64328, Note_on_c, 1, 72, 127
1, 64431, Note_off_c, 1, 72, 0
1, 64435, Note_on_c, 1, 74, 127
1, 64538, Note_off_c, 1, 74, 0
1, 64541, Note_on_c, 1, 75, 127
1, 64644, Note_off_c, 1, 75, 0
1, 64754, Note_on_c, 1, 78, 127
1, 64857, Note_off_c, 1, 78, 0
1, 64861, Note_on_c, 1, 80, 127
1, 64964, Note_off_c, 1, 80, 0
1, 65394, Note_on_c, 1, 44, 127
1, 65500, Note_on_c, 1, 47, 127
1, 65607, Note_on_c, 1, 52, 127
1, 65713, Note_on_c, 1, 56, 127
1, 65820, Note_on_c, 1, 64, 127
1, 65926, Note_on_c, 1, 68, 127
1, 66033, Note_on_c, 1, 71, 127
1, 66140, Note_on_c, 1, 76, 127
1, 66453, Note_off_c, 1, 71, 0
1, 66566, Note_on_c, 1, 69, 127
1, 66667, Note_off_c, 1, 68, 0
1, 66669, Note_off_c, 1, 69, 0
1, 66776, Note_off_c, 1, 76, 0
1, 67302, Note_off_c, 1, 44, 0
1, 67302, Note_off_c, 1, 47, 0
1, 67304, Note_off_c, 1, 52, 0
1, 67304, Note_off_c, 1, 56, 0
1, 67306, Note_off_c, 1, 64, 0
1, 67312, Note_on_c, 1, 69, 127
1, 67415, Note_off_c, 1, 69, 0
1, 67418, Note_on_c, 1, 71, 127
1, 67521, Note_off_c, 1, 71, 0
1, 67525, Note_on_c, 1, 64, 127
1, 68161, Note_off_c, 1, 64, 0
1, 68164, Note_on_c, 1, 66, 127
1, 68267, Note_off_c, 1, 66, 0
1, 68271, Note_on_c, 1, 68, 127
1, 68374, Note_off_c, 1, 68, 0
1, 68377, Note_on_c, 1, 62, 127
1, 68377, Note_on_c, 1, 44, 127
1, 68511, Note_on_c, 1, 53, 127
1, 68644, Note_on_c, 1, 58, 127
1, 69013, Note_off_c, 1, 62, 0
1, 69017, Note_on_c, 1, 65, 127
1, 69120, Note_off_c, 1, 65, 0
1, 69123, Note_on_c, 1, 68, 127
1, 69226, Note_off_c, 1, 68, 0
1, 69230, Note_on_c, 1, 71, 127
1, 69652, Note_off_c, 1, 44, 0
1, 69786, Note_off_c, 1, 53, 0
1, 69866, Note_off_c, 1, 71, 0
1, 69869, Note_on_c, 1, 70, 127
1, 69919, Note_off_c, 1, 58, 0
1, 69972, Note_off_c, 1, 70, 0
1, 69976, Note_on_c, 1, 68, 127
1, 70079, Note_off_c, 1, 68, 0
1, 70082, Note_on_c, 1, 77, 127
1, 70718, Note_off_c, 1, 77, 0
1, 70722, Note_on_c, 1, 75, 127
1, 70825, Note_off_c, 1, 75, 0
1, 70828, Note_on_c, 1, 74, 127
1, 70931, Note_off_c, 1, 74, 0
1, 70935, Note_on_c, 1, 83, 127
1, 71144, Note_off_c, 1, 83, 0
1, 71201, Note_on_c, 1, 81, 127
1, 71838, Note_off_c, 1, 81, 0
1, 71841, Note_on_c, 1, 82, 127
1, 72160, Note_on_c, 1, 46, 127
1, 72267, Note_on_c, 1, 51, 127
1, 72372, Note_off_c, 1, 82, 0
1, 72373, Note_on_c, 1, 54, 127
1, 72480, Note_on_c, 1, 58, 127
1, 72586, Note_on_c, 1, 66, 127
1, 72693, Note_on_c, 1, 70, 127
1, 72800, Note_on_c, 1, 75, 127
1, 73103, Note_off_c, 1, 46, 0
1, 73109, Note_off_c, 1, 51, 0
1, 73215, Note_off_c, 1, 54, 0
1, 73332, Note_on_c, 1, 53, 127
1, 73423, Note_off_c, 1, 58, 0
1, 73435, Note_off_c, 1, 66, 0
1, 73439, Note_on_c, 1, 56, 127
1, 73542, Note_off_c, 1, 70, 0
1, 73652, Note_on_c, 1, 65, 127
1, 73862, Note_off_c, 1, 75, 0
1, 73865, Note_on_c, 1, 74, 127
1, 73969, Note_off_c, 1, 74, 0
1, 74282, Note_off_c, 1, 56, 0
1, 74438, Note_off_c, 1, 53, 0
1, 74487, Note_on_c, 1, 47, 127
1, 74494, Note_off_c, 1, 65, 0
1, 74593, Note_on_c, 1, 59, 127
1, 74700, Note_on_c, 1, 63, 127
1, 75329, Note_off_c, 1, 47, 0
1, 75339, Note_on_c, 1, 68, 127
1, 75435, Note_off_c, 1, 59, 0
1, 75477, Note_off_c, 1, 68, 0
1, 75481, Note_on_c, 1, 67, 127
1, 75542, Note_off_c, 1, 63, 0
1, 75619, Note_off_c, 1, 67, 0
1, 77470, Note_on_c, 1, 55, 127
1, 78312, Note_off_c, 1, 55, 0
1, 78993, Note_on_c, 1, 73, 127
1, 79118, Note_off_c, 1, 73, 0
1, 79135, Note_on_c, 1, 71, 127
1, 79286, Note_off_c, 1, 71, 0
1, 81040, Note_on_c, 1, 52, 127
1, 81626, Note_on_c, 1, 61, 127
1, 81729, Note_off_c, 1, 61, 0
1, 81815, Note_off_c, 1, 52, 0
1, 81839, Note_on_c, 1, 70, 127
1, 81839, Note_on_c, 1, 61, 127
1, 81839, Note_on_c, 1, 52, 127
1, 82475, Note_off_c, 1, 70, 0
1, 82475, Note_off_c, 1, 61, 0
1, 82479, Note_on_c, 1, 58, 127
1, 82479, Note_on_c, 1, 67, 127
1, 82681, Note_off_c, 1, 52, 0
1, 82688, Note_off_c, 1, 58, 0
1, 82688, Note_off_c, 1, 67, 0
1, 82692, Note_on_c, 1, 59, 127
1, 82692, Note_on_c, 1, 53, 127
1, 82825, Note_on_c, 1, 62, 127
1, 82958, Note_on_c, 1, 68, 127
1, 83534, Note_off_c, 1, 59, 0
1, 83667, Note_off_c, 1, 62, 0
1, 83800, Note_off_c, 1, 68, 0
1, 84073, Note_off_c, 1, 53, 0
1, 84077, Note_on_c, 1, 54, 127
1, 84180, Note_off_c, 1, 54, 0
1, 84290, Note_on_c, 1, 51, 127
1, 84393, Note_off_c, 1, 51, 0
1, 84823, Note_on_c, 1, 56, 127
1, 84926, Note_off_c, 1, 56, 0
1, 85249, Note_on_c, 1, 50, 127
1, 85383, Note_on_c, 1, 65, 127
1, 86225, Note_off_c, 1, 65, 0
1, 86630, Note_off_c, 1, 50, 0
1, 86848, Note_on_c, 1, 48, 127
1, 86951, Note_off_c, 1, 48, 0
1, 87860, Note_on_c, 1, 47, 127
1, 89241, Note_off_c, 1, 47, 0
1, 89299, Note_on_c, 1, 49, 127
1, 89402, Note_off_c, 1, 49, 0
1, 89512, Note_on_c, 1, 46, 127
1, 89615, Note_off_c, 1, 46, 0
1, 89831, Note_on_c, 1, 44, 127
1, 89934, Note_off_c, 1, 44, 0
1, 90471, Note_on_c, 1, 38, 127
1, 91030, Note_on_c, 1, 71, 127
1, 91426, Note_off_c, 1, 38, 0
1, 92094, Note_off_c, 1, 71, 0
1, 92094, Note_on_c, 1, 70, 127
1, 92207, Note_off_c, 1, 70, 0
1, 92210, Note_on_c, 1, 68, 127
1, 92323, Note_off_c, 1, 68, 0
1, 92327, Note_on_c, 1, 66, 127
1, 92440, Note_off_c, 1, 66, 0
1, 92443, Note_on_c, 1, 65, 127
1, 92556, Note_off_c, 1, 65, 0
1, 92560, Note_on_c, 1, 63, 127
1, 92673, Note_off_c, 1, 63, 0
1, 92676, Note_on_c, 1, 62, 127
1, 92789, Note_off_c, 1, 62, 0
1, 92793, Note_on_c, 1, 65, 127
1, 92906, Note_off_c, 1, 65, 0
1, 92909, Note_on_c, 1, 68, 127
1, 93022, Note_off_c, 1, 68, 0
1, 93026, Note_on_c, 1, 71, 127
1, 93139, Note_off_c, 1, 71, 0
1, 93143, Note_on_c, 1, 74, 127
1, 93256, Note_off_c, 1, 74, 0
1, 93259, Note_on_c, 1, 77, 127
1, 93372, Note_off_c, 1, 77, 0
1, 93376, Note_on_c, 1, 80, 127
1, 93489, Note_off_c, 1, 80, 0
1, 93492, Note_on_c, 1, 83, 127
1, 93605, Note_off_c, 1, 83, 0
1, 93609, Note_on_c, 1, 82, 127
1, 93722, Note_off_c, 1, 82, 0
1, 93725, Note_on_c, 1, 74, 127
1, 93838, Note_off_c, 1, 74, 0
1, 93842, Note_on_c, 1, 75, 127
1, 94012, Note_off_c, 1, 75, 0
1, 94014, Note_on_c, 1, 74, 127
1, 94184, Note_off_c, 1, 74, 0
1, 94186, Note_on_c, 1, 75, 127
1, 94717, Note_off_c, 1, 75, 0
1, 94832, Note_on_c, 1, 66, 127
1, 94832, Note_on_c, 1, 70, 127
1, 94832, Note_on_c, 1, 51, 127
1, 94832, Note_on_c, 1, 39, 127
1, 95041, Note_off_c, 1, 66, 0
1, 95041, Note_off_c, 1, 70, 0
1, 95041, Note_off_c, 1, 51, 0
1, 95041, Note_off_c, 1, 39, 0
1, 95063, Note_on_c, 1, 68, 127
1, 95063, Note_on_c, 1, 63, 127
1, 95063, Note_on_c, 1, 46, 127
1, 95196, Note_on_c, 1, 51, 127
1, 95329, Note_on_c, 1, 54, 127
1, 95485, Note_off_c, 1, 68, 0
1, 95485, Note_off_c, 1, 63, 0
1, 95489, Note_on_c, 1, 66, 127
1, 95905, Note_off_c, 1, 46, 0
1, 95911, Note_off_c, 1, 66, 0
1, 95995, Note_on_c, 1, 62, 127
1, 96038, Note_off_c, 1, 51, 0
1, 96128, Note_on_c, 1, 53, 127
1, 96137, Note_on_c, 1, 65, 127
1, 96171, Note_off_c, 1, 54, 0
1, 96262, Note_on_c, 1, 56, 127
1, 96275, Note_off_c, 1, 65, 0
1, 96417, Note_off_c, 1, 62, 0
1, 96837, Note_off_c, 1, 53, 0
1, 96838, Note_off_c, 1, 56, 0
1, 96848, Note_on_c, 1, 51, 127
1, 96954, Note_on_c, 1, 55, 127
1, 97061, Note_on_c, 1, 58, 127
1, 97167, Note_on_c, 1, 61, 127
1, 97274, Note_on_c, 1, 63, 127
1, 97690, Note_off_c, 1, 51, 0
1, 97796, Note_off_c, 1, 55, 0
1, 97903, Note_off_c, 1, 58, 0
1, 98009, Note_off_c, 1, 61, 0
1, 98338, Note_off_c, 1, 63, 0
1, 98481, Note_on_c, 1, 65, 127
1, 98591, Note_off_c, 1, 65, 0
1, 98603, Note_on_c, 1, 67, 127
1, 98713, Note_off_c, 1, 67, 0
1, 98724, Note_on_c, 1, 68, 127
1, 98834, Note_off_c, 1, 68, 0
1, 98846, Note_on_c, 1, 70, 127
1, 99375, Note_off_c, 1, 70, 0
1, 99414, Note_on_c, 1, 64, 127
1, 99524, Note_off_c, 1, 64, 0
1, 99915, Note_on_c, 1, 56, 127
1, 100178, Note_on_c, 1, 59, 127
1, 100728, Note_off_c, 1, 56, 0
1, 100920, Note_off_c, 1, 59, 0
1, 101616, Note_on_c, 1, 71, 127
1, 101719, Note_off_c, 1, 71, 0
1, 101936, Note_on_c, 1, 66, 127
1, 102039, Note_off_c, 1, 66, 0
1, 102469, Note_on_c, 1, 62, 127
1, 102602, Note_on_c, 1, 53, 127
1, 103105, Note_off_c, 1, 62, 0
1, 103488, Note_off_c, 1, 53, 0
1, 105186, Note_on_c, 1, 51, 127
1, 105308, Note_on_c, 1, 55, 127
1, 105430, Note_on_c, 1, 58, 127
1, 105552, Note_on_c, 1, 63, 127
1, 107670, Note_off_c, 1, 63, 0
1, 107713, Note_off_c, 1, 51, 0
1, 107721, Note_off_c, 1, 58, 0
1, 107734, Note_off_c, 1, 55, 0
1, 108182, Note_on_c, 1, 70, 127
1, 108926, Note_off_c, 1, 70, 0
1, 108932, Note_on_c, 1, 71, 127
1, 109177, Note_off_c, 1, 71, 0
1, 109183, Note_on_c, 1, 70, 127
1, 109428, Note_off_c, 1, 70, 0
1, 109434, Note_on_c, 1, 68, 127
1, 109679, Note_off_c, 1, 68, 0
1, 109685, Note_on_c, 1, 66, 127
1, 109930, Note_off_c, 1, 66, 0
1, 109936, Note_on_c, 1, 68, 127
1, 110181, Note_off_c, 1, 68, 0
1, 110187, Note_on_c, 1, 70, 127
1, 110615, Note_off_c, 1, 70, 0
1, 110687, Note_on_c, 1, 63, 127
1, 111115, Note_off_c, 1, 63, 0
1, 111188, Note_on_c, 1, 68, 127
1, 111932, Note_off_c, 1, 68, 0
1, 111938, Note_on_c, 1, 66, 127
1, 112146, Note_off_c, 1, 66, 0
1, 112189, Note_on_c, 1, 65, 127
1, 112670, Note_off_c, 1, 65, 0
1, 112689, Note_on_c, 1, 70, 127
1, 112689, Note_on_c, 1, 63, 127
1, 113063, Note_off_c, 1, 70, 0
1, 113189, Note_on_c, 1, 75, 127
1, 113434, Note_off_c, 1, 63, 0
1, 113440, Note_on_c, 1, 65, 127
1, 113685, Note_off_c, 1, 65, 0
1, 113691, Note_on_c, 1, 66, 127
1, 113936, Note_off_c, 1, 75, 0
1, 113942, Note_on_c, 1, 78, 127
1, 114187, Note_off_c, 1, 66, 0
1, 114187, Note_off_c, 1, 78, 0
1, 114193, Note_on_c, 1, 77, 127
1, 114193, Note_on_c, 1, 68, 127
1, 114438, Note_off_c, 1, 77, 0
1, 114443, Note_on_c, 1, 75, 127
1, 114688, Note_off_c, 1, 75, 0
1, 114689, Note_off_c, 1, 68, 0
1, 114694, Note_on_c, 1, 73, 127
1, 114694, Note_on_c, 1, 70, 127
1, 114939, Note_off_c, 1, 73, 0
1, 114945, Note_on_c, 1, 75, 127
1, 115190, Note_off_c, 1, 75, 0
1, 115196, Note_on_c, 1, 77, 127
1, 115441, Note_off_c, 1, 70, 0
1, 115447, Note_on_c, 1, 68, 127
1, 115638, Note_off_c, 1, 77, 0
1, 115692, Note_off_c, 1, 68, 0
1, 115698, Note_on_c, 1, 66, 127
1, 115698, Note_on_c, 1, 70, 127
1, 115943, Note_off_c, 1, 66, 0
1, 115949, Note_on_c, 1, 65, 127
1, 116140, Note_off_c, 1, 70, 0
1, 116194, Note_off_c, 1, 65, 0
1, 116199, Note_on_c, 1, 66, 127
1, 116199, Note_on_c, 1, 75, 127
1, 116444, Note_off_c, 1, 66, 0
1, 116450, Note_on_c, 1, 65, 127
1, 116569, Note_off_c, 1, 65, 0
1, 116576, Note_on_c, 1, 63, 127
1, 116695, Note_off_c, 1, 63, 0
1, 116946, Note_off_c, 1, 75, 0
1, 116952, Note_on_c, 1, 73, 127
1, 116952, Note_on_c, 1, 70, 127
1, 117171, Note_off_c, 1, 73, 0
1, 117202, Note_on_c, 1, 72, 127
1, 117447, Note_off_c, 1, 70, 0
1, 117453, Note_on_c, 1, 69, 127
1, 117697, Note_off_c, 1, 72, 0
1, 117699, Note_off_c, 1, 69, 0
1, 117704, Note_on_c, 1, 70, 127
1, 117953, Note_on_c, 1, 72, 127
1, 118198, Note_off_c, 1, 72, 0
1, 118204, Note_on_c, 1, 73, 127
1, 118451, Note_off_c, 1, 70, 0
1, 118455, Note_on_c, 1, 68, 127
1, 118700, Note_off_c, 1, 68, 0
1, 118706, Note_on_c, 1, 67, 127
1, 118951, Note_off_c, 1, 67, 0
1, 118957, Note_on_c, 1, 63, 127
1, 119202, Note_off_c, 1, 63, 0
1, 119452, Note_off_c, 1, 73, 0
1, 119458, Note_on_c, 1, 71, 127
1, 119703, Note_off_c, 1, 71, 0
1, 119960, Note_on_c, 1, 66, 127
1, 120205, Note_off_c, 1, 66, 0
1, 120211, Note_on_c, 1, 65, 127
1, 120211, Note_on_c, 1, 75, 127
1, 120456, Note_off_c, 1, 65, 0
1, 120462, Note_on_c, 1, 63, 127
1, 120707, Note_off_c, 1, 63, 0
1, 120958, Note_off_c, 1, 75, 0
1, 120964, Note_on_c, 1, 74, 127
1, 121209, Note_off_c, 1, 74, 0
1, 121214, Note_on_c, 1, 66, 127
1, 121214, Note_on_c, 1, 75, 127
1, 121459, Note_off_c, 1, 66, 0
1, 121459, Note_off_c, 1, 75, 0
1, 121465, Note_on_c, 1, 68, 127
1, 121465, Note_on_c, 1, 77, 127
1, 121710, Note_off_c, 1, 68, 0
1, 121710, Note_off_c, 1, 77, 0
1, 121716, Note_on_c, 1, 70, 127
1, 121716, Note_on_c, 1, 51, 127
1, 121716, Note_on_c, 1, 78, 127
1, 121961, Note_off_c, 1, 70, 0
1, 121967, Note_on_c, 1, 72, 127
1, 122091, Note_off_c, 1, 51, 0
1, 122212, Note_off_c, 1, 78, 0
1, 122212, Note_off_c, 1, 72, 0
1, 122218, Note_on_c, 1, 74, 127
1, 122218, Note_on_c, 1, 77, 127
1, 122218, Note_on_c, 1, 58, 127
1, 122463, Note_off_c, 1, 74, 0
1, 122463, Note_off_c, 1, 77, 0
1, 122469, Note_on_c, 1, 75, 127
1, 122469, Note_on_c, 1, 78, 127
1, 122714, Note_off_c, 1, 75, 0
1, 122714, Note_off_c, 1, 78, 0
1, 122720, Note_on_c, 1, 80, 127
1, 122965, Note_off_c, 1, 58, 0
1, 122965, Note_off_c, 1, 80, 0
1, 122970, Note_on_c, 1, 59, 127
1, 122970, Note_on_c, 1, 74, 127
1, 122970, Note_on_c, 1, 77, 127
1, 123215, Note_off_c, 1, 59, 0
1, 123215, Note_off_c, 1, 74, 0
1, 123215, Note_off_c, 1, 77, 0
1, 123221, Note_on_c, 1, 58, 127
1, 123221, Note_on_c, 1, 75, 127
1, 123221, Note_on_c, 1, 78, 127
1, 123466, Note_off_c, 1, 58, 0
1, 123466, Note_off_c, 1, 75, 0
1, 123466, Note_off_c, 1, 78, 0
1, 123472, Note_on_c, 1, 56, 127
1, 123472, Note_on_c, 1, 77, 127
1, 123472, Note_on_c, 1, 80, 127
1, 123717, Note_off_c, 1, 56, 0
1, 123717, Note_off_c, 1, 77, 0
1, 123717, Note_off_c, 1, 80, 0
1, 123723, Note_on_c, 1, 54, 127
1, 123723, Note_on_c, 1, 78, 127
1, 123723, Note_on_c, 1, 82, 127
1, 123968, Note_off_c, 1, 54, 0
1, 123968, Note_off_c, 1, 78, 0
1, 123968, Note_off_c, 1, 82, 0
1, 123974, Note_on_c, 1, 56, 127
1, 123974, Note_on_c, 1, 77, 127
1, 123974, Note_on_c, 1, 80, 127
1, 124219, Note_off_c, 1, 56, 0
1, 124219, Note_off_c, 1, 77, 0
1, 124219, Note_off_c, 1, 80, 0
1, 124225, Note_on_c, 1, 75, 127
1, 124225, Note_on_c, 1, 78, 127
1, 124225, Note_on_c, 1, 58, 127
1, 124470, Note_off_c, 1, 75, 0
1, 124470, Note_off_c, 1, 78, 0
1, 124476, Note_on_c, 1, 74, 127
1, 124476, Note_on_c, 1, 77, 127
1, 124667, Note_off_c, 1, 58, 0
1, 124721, Note_off_c, 1, 74, 0
1, 124721, Note_off_c, 1, 77, 0
1, 124726, Note_on_c, 1, 75, 127
1, 124726, Note_on_c, 1, 51, 127
1, 124726, Note_on_c, 1, 78, 127
1, 124971, Note_off_c, 1, 75, 0
1, 124977, Note_on_c, 1, 73, 127
1, 125168, Note_off_c, 1, 51, 0
1, 125222, Note_off_c, 1, 78, 0
1, 125222, Note_off_c, 1, 73, 0
1, 125228, Note_on_c, 1, 77, 127
1, 125228, Note_on_c, 1, 71, 127
1, 125228, Note_on_c, 1, 56, 127
1, 125473, Note_off_c, 1, 77, 0
1, 125479, Note_on_c, 1, 75, 127
1, 125724, Note_off_c, 1, 71, 0
1, 125724, Note_off_c, 1, 75, 0
1, 125730, Note_on_c, 1, 74, 127
1, 125730, Note_on_c, 1, 70, 127
1, 125975, Note_off_c, 1, 56, 0
1, 125975, Note_off_c, 1, 74, 0
1, 125981, Note_on_c, 1, 54, 127
1, 126195, Note_off_c, 1, 54, 0
1, 126226, Note_off_c, 1, 70, 0
1, 126232, Note_on_c, 1, 53, 127
1, 126232, Note_on_c, 1, 68, 127
1, 126720, Note_off_c, 1, 53, 0
1, 126728, Note_off_c, 1, 68, 0
1, 126733, Note_on_c, 1, 75, 127
1, 126733, Note_on_c, 1, 51, 127
1, 126733, Note_on_c, 1, 66, 127
1, 126980, Note_off_c, 1, 75, 0
1, 126986, Note_on_c, 1, 73, 127
1, 127233, Note_off_c, 1, 51, 0
1, 127233, Note_off_c, 1, 66, 0
1, 127233, Note_off_c, 1, 73, 0
1, 127240, Note_on_c, 1, 68, 127
1, 127240, Note_on_c, 1, 63, 127
1, 127240, Note_on_c, 1, 71, 127
1, 127487, Note_off_c, 1, 68, 0
1, 127493, Note_on_c, 1, 66, 127
1, 127740, Note_off_c, 1, 63, 0
1, 127740, Note_off_c, 1, 66, 0
1, 127746, Note_on_c, 1, 62, 127
1, 127746, Note_on_c, 1, 65, 127
1, 127993, Note_off_c, 1, 71, 0
1, 127999, Note_on_c, 1, 70, 127
1, 128119, Note_off_c, 1, 70, 0
1, 128246, Note_off_c, 1, 62, 0
1, 128252, Note_on_c, 1, 61, 127
1, 128499, Note_off_c, 1, 65, 0
1, 128631, Note_on_c, 1, 73, 127
1, 128751, Note_off_c, 1, 73, 0
1, 128752, Note_off_c, 1, 61, 0
1, 128758, Note_on_c, 1, 66, 127
1, 128758, Note_on_c, 1, 75, 127
1, 128758, Note_on_c, 1, 60, 127
1, 129005, Note_off_c, 1, 66, 0
1, 129005, Note_off_c, 1, 75, 0
1, 129011, Note_on_c, 1, 68, 127
1, 129011, Note_on_c, 1, 77, 127
1, 129131, Note_off_c, 1, 68, 0
1, 129131, Note_off_c, 1, 77, 0
1, 129138, Note_on_c, 1, 70, 127
1, 129138, Note_on_c, 1, 78, 127
1, 129258, Note_off_c, 1, 60, 0
1, 129258, Note_off_c, 1, 70, 0
1, 129258, Note_off_c, 1, 78, 0
1, 129264, Note_on_c, 1, 68, 127
1, 129264, Note_on_c, 1, 77, 127
1, 129264, Note_on_c, 1, 59, 127
1, 129511, Note_off_c, 1, 68, 0
1, 129512, Note_off_c, 1, 77, 0
1, 129517, Note_on_c, 1, 66, 127
1, 129517, Note_on_c, 1, 75, 127
1, 129637, Note_off_c, 1, 66, 0
1, 129764, Note_off_c, 1, 59, 0
1, 129765, Note_off_c, 1, 75, 0
1, 129770, Note_on_c, 1, 70, 127
1, 129770, Note_on_c, 1, 58, 127
1, 129770, Note_on_c, 1, 74, 127
1, 130017, Note_off_c, 1, 70, 0
1, 130023, Note_on_c, 1, 46, 127
1, 130023, Note_on_c, 1, 68, 127
1, 130148, Note_off_c, 1, 58, 0
1, 130232, Note_off_c, 1, 46, 0
1, 130270, Note_off_c, 1, 74, 0
1, 130270, Note_off_c, 1, 68, 0
1, 130276, Note_on_c, 1, 66, 127
1, 130276, Note_on_c, 1, 75, 127
1, 130276, Note_on_c, 1, 51, 127
1, 130523, Note_off_c, 1, 66, 0
1, 130523, Note_off_c, 1, 75, 0
1, 130530, Note_on_c, 1, 65, 127
1, 130530, Note_on_c, 1, 73, 127
1, 130777, Note_off_c, 1, 65, 0
1, 130777, Note_off_c, 1, 73, 0
1, 130783, Note_on_c, 1, 71, 127
1, 130783, Note_on_c, 1, 63, 127
1, 131029, Note_off_c, 1, 51, 0
1, 131030, Note_off_c, 1, 71, 0
1, 131036, Note_on_c, 1, 54, 127
1, 131036, Note_on_c, 1, 70, 127
1, 131283, Note_off_c, 1, 63, 0
1, 131283, Note_off_c, 1, 54, 0
1, 131283, Note_off_c, 1, 70, 0
1, 131289, Note_on_c, 1, 53, 127
1, 131289, Note_on_c, 1, 62, 127
1, 131289, Note_on_c, 1, 68, 127
1, 131536, Note_off_c, 1, 53, 0
1, 131536, Note_off_c, 1, 62, 0
1, 131536, Note_off_c, 1, 68, 0
1, 131542, Note_on_c, 1, 51, 127
1, 131542, Note_on_c, 1, 66, 127
1, 131542, Note_on_c, 1, 63, 127
1, 131789, Note_off_c, 1, 51, 0
1, 131789, Note_off_c, 1, 66, 0
1, 131795, Note_on_c, 1, 50, 127
1, 131795, Note_on_c, 1, 65, 127
1, 132042, Note_off_c, 1, 63, 0
1, 132042, Note_off_c, 1, 50, 0
1, 132042, Note_off_c, 1, 65, 0
1, 132048, Note_on_c, 1, 51, 127
1, 132048, Note_on_c, 1, 63, 127
1, 132048, Note_on_c, 1, 66, 127
1, 132295, Note_off_c, 1, 51, 0
1, 132295, Note_off_c, 1, 63, 0
1, 132295, Note_off_c, 1, 66, 0
1, 132301, Note_on_c, 1, 62, 127
1, 132301, Note_on_c, 1, 53, 127
1, 132301, Note_on_c, 1, 68, 127
1, 132548, Note_off_c, 1, 62, 0
1, 132554, Note_on_c, 1, 60, 127
1, 132747, Note_off_c, 1, 53, 0
1, 132801, Note_off_c, 1, 60, 0
1, 132807, Note_on_c, 1, 46, 127
1, 133054, Note_off_c, 1, 68, 0
1, 133060, Note_on_c, 1, 66, 127
1, 133180, Note_off_c, 1, 66, 0
1, 133187, Note_on_c, 1, 65, 127
1, 133254, Note_off_c, 1, 46, 0
1, 133309, Note_off_c, 1, 65, 0
1, 133315, Note_on_c, 1, 63, 127
1, 133315, Note_on_c, 1, 66, 127
1, 133315, Note_on_c, 1, 51, 127
1, 133562, Note_off_c, 1, 63, 0
1, 133562, Note_off_c, 1, 66, 0
1, 133568, Note_on_c, 1, 65, 127
1, 133568, Note_on_c, 1, 68, 127
1, 133815, Note_off_c, 1, 65, 0
1, 133815, Note_off_c, 1, 68, 0
1, 133821, Note_on_c, 1, 70, 127
1, 134068, Note_off_c, 1, 51, 0
1, 134074, Note_on_c, 1, 49, 127
1, 134301, Note_off_c, 1, 49, 0
1, 134321, Note_off_c, 1, 70, 0
1, 134327, Note_on_c, 1, 68, 127
1, 134327, Note_on_c, 1, 71, 127
1, 134327, Note_on_c, 1, 47, 127
1, 134574, Note_off_c, 1, 68, 0
1, 134574, Note_off_c, 1, 71, 0
1, 134580, Note_on_c, 1, 73, 127
1, 134580, Note_on_c, 1, 66, 127
1, 134700, Note_off_c, 1, 73, 0
1, 134707, Note_on_c, 1, 75, 127
1, 134827, Note_off_c, 1, 66, 0
1, 134827, Note_off_c, 1, 75, 0
1, 134833, Note_on_c, 1, 65, 127
1, 135080, Note_off_c, 1, 65, 0
1, 135086, Note_on_c, 1, 61, 127
1, 135333, Note_off_c, 1, 47, 0
1, 135333, Note_off_c, 1, 61, 0
1, 135339, Note_on_c, 1, 46, 127
1, 135339, Note_on_c, 1, 66, 127
1, 135592, Note_on_c, 1, 70, 127
1, 135839, Note_off_c, 1, 46, 0
1, 135839, Note_off_c, 1, 70, 0
1, 135845, Note_on_c, 1, 44, 127
1, 135845, Note_on_c, 1, 71, 127
1, 136092, Note_off_c, 1, 44, 0
1, 136092, Note_off_c, 1, 71, 0
1, 136098, Note_on_c, 1, 73, 127
1, 136345, Note_off_c, 1, 66, 0
1, 136345, Note_off_c, 1, 73, 0
1, 136352, Note_on_c, 1, 47, 127
1, 136352, Note_on_c, 1, 75, 127
1, 136352, Note_on_c, 1, 65, 127
1, 136599, Note_off_c, 1, 47, 0
1, 136599, Note_off_c, 1, 75, 0
1, 136605, Note_on_c, 1, 49, 127
1, 136605, Note_on_c, 1, 77, 127
1, 136852, Note_off_c, 1, 49, 0
1, 136852, Note_off_c, 1, 77, 0
1, 136858, Note_on_c, 1, 51, 127
1, 136858, Note_on_c, 1, 78, 127
1, 137105, Note_off_c, 1, 51, 0
1, 137105, Note_off_c, 1, 78, 0
1, 137107, Note_off_c, 1, 65, 0
1, 137110, Note_on_c, 1, 53, 127
1, 137110, Note_on_c, 1, 80, 127
1, 137357, Note_off_c, 1, 53, 0
1, 137357, Note_off_c, 1, 80, 0
1, 137363, Note_on_c, 1, 54, 127
1, 137363, Note_on_c, 1, 82, 127
1, 137363, Note_on_c, 1, 63, 127
1, 137610, Note_off_c, 1, 54, 0
1, 137610, Note_off_c, 1, 82, 0
1, 137616, Note_on_c, 1, 56, 127
1, 137616, Note_on_c, 1, 83, 127
1, 137863, Note_off_c, 1, 63, 0
1, 137863, Note_off_c, 1, 56, 0
1, 137869, Note_on_c, 1, 58, 127
1, 137869, Note_on_c, 1, 61, 127
1, 138116, Note_off_c, 1, 83, 0
1, 138116, Note_off_c, 1, 58, 0
1, 138116, Note_off_c, 1, 61, 0
1, 138122, Note_on_c, 1, 56, 127
1, 138122, Note_on_c, 1, 65, 127
1, 138122, Note_on_c, 1, 73, 127
1, 138369, Note_off_c, 1, 56, 0
1, 138369, Note_off_c, 1, 65, 0
1, 138369, Note_off_c, 1, 73, 0
1, 138375, Note_on_c, 1, 58, 127
1, 138375, Note_on_c, 1, 66, 127
1, 138375, Note_on_c, 1, 78, 127
1, 138622, Note_off_c, 1, 58, 0
1, 138622, Note_off_c, 1, 66, 0
1, 138628, Note_on_c, 1, 59, 127
1, 138628, Note_on_c, 1, 68, 127
1, 138875, Note_off_c, 1, 59, 0
1, 138875, Note_off_c, 1, 68, 0
1, 138881, Note_on_c, 1, 70, 127
1, 138881, Note_on_c, 1, 61, 127
1, 139128, Note_off_c, 1, 70, 0
1, 139134, Note_on_c, 1, 71, 127
1, 139381, Note_off_c, 1, 78, 0
1, 139381, Note_off_c, 1, 61, 0
1, 139381, Note_off_c, 1, 71, 0
1, 139387, Note_on_c, 1, 73, 127
1, 139387, Note_on_c, 1, 49, 127
1, 139387, Note_on_c, 1, 77, 127
1, 139634, Note_off_c, 1, 73, 0
1, 139640, Note_on_c, 1, 71, 127
1, 139887, Note_off_c, 1, 49, 0
1, 139887, Note_off_c, 1, 71, 0
1, 139894, Note_on_c, 1, 70, 127
1, 139894, Note_on_c, 1, 42, 127
1, 140141, Note_off_c, 1, 70, 0
1, 140147, Note_on_c, 1, 68, 127
1, 140393, Note_off_c, 1, 77, 0
1, 140394, Note_off_c, 1, 42, 0
1, 140394, Note_off_c, 1, 68, 0
1, 140400, Note_on_c, 1, 66, 127
1, 140400, Note_on_c, 1, 75, 127
1, 140400, Note_on_c, 1, 54, 127
1, 140647, Note_off_c, 1, 66, 0
1, 140647, Note_off_c, 1, 75, 0
1, 140653, Note_on_c, 1, 65, 127
1, 140653, Note_on_c, 1, 73, 127
1, 140900, Note_off_c, 1, 65, 0
1, 140900, Note_off_c, 1, 73, 0
1, 140906, Note_on_c, 1, 63, 127
1, 140906, Note_on_c, 1, 72, 127
1, 141153, Note_off_c, 1, 54, 0
1, 141153, Note_off_c, 1, 63, 0
1, 141153, Note_off_c, 1, 72, 0
1, 141159, Note_on_c, 1, 53, 127
1, 141159, Note_on_c, 1, 65, 127
1, 141159, Note_on_c, 1, 74, 127
1, 141406, Note_off_c, 1, 53, 0
1, 141406, Note_off_c, 1, 65, 0
1, 141406, Note_off_c, 1, 74, 0
1, 141412, Note_on_c, 1, 51, 127
1, 141412, Note_on_c, 1, 66, 127
1, 141412, Note_on_c, 1, 75, 127
1, 141659, Note_off_c, 1, 51, 0
1, 141659, Note_off_c, 1, 66, 0
1, 141659, Note_off_c, 1, 75, 0
1, 141665, Note_on_c, 1, 49, 127
1, 141665, Note_on_c, 1, 70, 127
1, 141665, Note_on_c, 1, 77, 127
1, 141912, Note_off_c, 1, 49, 0
1, 141912, Note_off_c, 1, 70, 0
1, 141912, Note_off_c, 1, 77, 0
1, 141918, Note_on_c, 1, 48, 127
1, 141918, Note_on_c, 1, 75, 127
1, 141918, Note_on_c, 1, 78, 127
1, 142165, Note_off_c, 1, 48, 0
1, 142165, Note_off_c, 1, 75, 0
1, 142171, Note_on_c, 1, 46, 127
1, 142171, Note_on_c, 1, 73, 127
1, 142418, Note_off_c, 1, 78, 0
1, 142418, Note_off_c, 1, 46, 0
1, 142418, Note_off_c, 1, 73, 0
1, 142424, Note_on_c, 1, 45, 127
1, 142424, Note_on_c, 1, 77, 127
1, 142424, Note_on_c, 1, 72, 127
1, 142671, Note_off_c, 1, 45, 0
1, 142671, Note_off_c, 1, 77, 0
1, 142677, Note_on_c, 1, 41, 127
1, 142677, Note_on_c, 1, 75, 127
1, 142924, Note_off_c, 1, 41, 0
1, 142924, Note_off_c, 1, 75, 0
1, 142930, Note_on_c, 1, 46, 127
1, 142930, Note_on_c, 1, 73, 127
1, 143177, Note_off_c, 1, 46, 0
1, 143177, Note_off_c, 1, 73, 0
1, 143184, Note_on_c, 1, 48, 127
1, 143430, Note_off_c, 1, 72, 0
1, 143431, Note_off_c, 1, 48, 0
1, 143437, Note_on_c, 1, 49, 127
1, 143437, Note_on_c, 1, 77, 127
1, 143437, Note_on_c, 1, 70, 127
1, 143684, Note_off_c, 1, 49, 0
1, 143684, Note_off_c, 1, 77, 0
1, 143690, Note_on_c, 1, 51, 127
1, 143690, Note_on_c, 1, 78, 127
1, 143937, Note_off_c, 1, 51, 0
1, 143937, Note_off_c, 1, 78, 0
1, 143943, Note_on_c, 1, 53, 127
1, 143943, Note_on_c, 1, 73, 127
1, 144190, Note_off_c, 1, 53, 0
1, 144443, Note_off_c, 1, 70, 0
1, 144443, Note_off_c, 1, 73, 0
1, 144449, Note_on_c, 1, 73, 127
1, 144449, Note_on_c, 1, 69, 127
1, 144449, Note_on_c, 1, 53, 127
1, 144533, Note_on_c, 1, 72, 127
1, 144540, Note_off_c, 1, 73, 0
1, 144624, Note_off_c, 1, 72, 0
1, 144702, Note_on_c, 1, 41, 127
1, 144934, Note_off_c, 1, 69, 0
1, 144948, Note_off_c, 1, 53, 0
1, 144949, Note_off_c, 1, 41, 0
1, 144955, Note_on_c, 1, 46, 127
1, 144955, Note_on_c, 1, 58, 127
1, 144955, Note_on_c, 1, 70, 127
1, 145205, Note_off_c, 1, 46, 0
1, 145212, Note_on_c, 1, 45, 127
1, 145337, Note_off_c, 1, 58, 0
1, 145462, Note_off_c, 1, 45, 0
1, 145468, Note_on_c, 1, 65, 127
1, 145724, Note_on_c, 1, 48, 127
1, 145974, Note_off_c, 1, 48, 0
1, 145975, Note_off_c, 1, 70, 0
1, 145981, Note_on_c, 1, 49, 127
1, 146231, Note_off_c, 1, 49, 0
1, 146232, Note_off_c, 1, 65, 0
1, 146237, Note_on_c, 1, 66, 127
1, 146487, Note_off_c, 1, 66, 0
1, 146494, Note_on_c, 1, 49, 127
1, 146494, Note_on_c, 1, 65, 127
1, 146494, Note_on_c, 1, 77, 127
1, 146744, Note_off_c, 1, 49, 0
1, 146744, Note_off_c, 1, 65, 0
1, 146750, Note_on_c, 1, 51, 127
1, 146750, Note_on_c, 1, 63, 127
1, 147000, Note_off_c, 1, 51, 0
1, 147000, Note_off_c, 1, 63, 0
1, 147006, Note_on_c, 1, 53, 127
1, 147006, Note_on_c, 1, 61, 127
1, 147256, Note_off_c, 1, 53, 0
1, 147256, Note_off_c, 1, 61, 0
1, 147257, Note_off_c, 1, 77, 0
1, 147263, Note_on_c, 1, 51, 127
1, 147263, Note_on_c, 1, 63, 127
1, 147263, Note_on_c, 1, 78, 127
1, 147513, Note_off_c, 1, 51, 0
1, 147513, Note_off_c, 1, 63, 0
1, 147513, Note_off_c, 1, 78, 0
1, 147519, Note_on_c, 1, 49, 127
1, 147519, Note_on_c, 1, 77, 127
1, 147519, Note_on_c, 1, 65, 127
1, 147769, Note_off_c, 1, 49, 0
1, 147769, Note_off_c, 1, 77, 0
1, 147776, Note_on_c, 1, 51, 127
1, 147776, Note_on_c, 1, 75, 127
1, 147898, Note_off_c, 1, 51, 0
1, 147903, Note_on_c, 1, 53, 127
1, 147970, Note_off_c, 1, 65, 0
1, 148025, Note_off_c, 1, 75, 0
1, 148025, Note_off_c, 1, 53, 0
1, 148031, Note_on_c, 1, 54, 127
1, 148031, Note_on_c, 1, 73, 127
1, 148031, Note_on_c, 1, 58, 127
1, 148153, Note_off_c, 1, 54, 0
1, 148159, Note_on_c, 1, 53, 127
1, 148280, Note_off_c, 1, 73, 0
1, 148281, Note_off_c, 1, 53, 0
1, 148286, Note_on_c, 1, 75, 127
1, 148481, Note_off_c, 1, 58, 0
1, 148535, Note_off_c, 1, 75, 0
1, 148542, Note_on_c, 1, 77, 127
1, 148542, Note_on_c, 1, 45, 127
1, 148797, Note_on_c, 1, 63, 127
1, 148992, Note_off_c, 1, 77, 0
1, 149047, Note_off_c, 1, 45, 0
1, 149052, Note_on_c, 1, 46, 127
1, 149052, Note_on_c, 1, 70, 127
1, 149303, Note_off_c, 1, 63, 0
1, 149309, Note_on_c, 1, 61, 127
1, 149526, Note_off_c, 1, 61, 0
1, 149559, Note_off_c, 1, 46, 0
1, 149565, Note_on_c, 1, 60, 127
1, 149565, Note_on_c, 1, 48, 127
1, 149811, Note_off_c, 1, 70, 0
1, 149820, Note_on_c, 1, 75, 127
1, 150062, Note_off_c, 1, 60, 0
1, 150070, Note_off_c, 1, 48, 0
1, 150076, Note_on_c, 1, 49, 127
1, 150076, Note_on_c, 1, 58, 127
1, 150326, Note_off_c, 1, 75, 0
1, 150326, Note_off_c, 1, 49, 0
1, 150332, Note_on_c, 1, 73, 127
1, 150562, Note_off_c, 1, 73, 0
1, 150588, Note_on_c, 1, 53, 127
1, 150588, Note_on_c, 1, 72, 127
1, 150838, Note_off_c, 1, 53, 0
1, 150839, Note_off_c, 1, 58, 0
1, 150845, Note_on_c, 1, 51, 127
1, 150845, Note_on_c, 1, 68, 127
1, 151095, Note_off_c, 1, 72, 0
1, 151095, Note_off_c, 1, 51, 0
1, 151101, Note_on_c, 1, 50, 127
1, 151351, Note_off_c, 1, 50, 0
1, 151352, Note_off_c, 1, 68, 0
1, 151358, Note_on_c, 1, 66, 127
1, 151608, Note_off_c, 1, 66, 0
1, 151614, Note_on_c, 1, 65, 127
1, 151870, Note_on_c, 1, 80, 127
1, 152121, Note_off_c, 1, 65, 0
1, 152377, Note_off_c, 1, 80, 0
1, 152383, Note_on_c, 1, 78, 127
1, 152633, Note_off_c, 1, 78, 0
1, 152640, Note_on_c, 1, 57, 127
1, 152890, Note_off_c, 1, 57, 0
1, 153152, Note_on_c, 1, 54, 127
1, 153401, Note_off_c, 1, 54, 0
1, 153408, Note_on_c, 1, 77, 127
1, 153408, Note_on_c, 1, 53, 127
1, 153408, Note_on_c, 1, 69, 127
1, 153530, Note_off_c, 1, 77, 0
1, 153535, Note_on_c, 1, 78, 127
1, 153657, Note_off_c, 1, 53, 0
1, 153657, Note_off_c, 1, 69, 0
1, 153657, Note_off_c, 1, 78, 0
1, 153663, Note_on_c, 1, 77, 127
1, 153663, Note_on_c, 1, 54, 127
1, 153663, Note_on_c, 1, 70, 127
1, 153727, Note_on_c, 1, 75, 127
1, 153741, Note_off_c, 1, 77, 0
1, 153804, Note_off_c, 1, 75, 0
1, 154166, Note_off_c, 1, 54, 0
1, 154166, Note_off_c, 1, 70, 0
1, 154173, Note_on_c, 1, 77, 127
1, 154173, Note_on_c, 1, 53, 127
1, 154173, Note_on_c, 1, 69, 127
1, 154554, Note_off_c, 1, 77, 0
1, 154650, Note_off_c, 1, 53, 0
1, 154678, Note_off_c, 1, 69, 0
1, 154683, Note_on_c, 1, 70, 127
1, 154683, Note_on_c, 1, 82, 127
1, 155194, Note_off_c, 1, 70, 0
1, 155200, Note_on_c, 1, 54, 127
1, 155200, Note_on_c, 1, 75, 127
1, 155453, Note_off_c, 1, 82, 0
1, 155459, Note_on_c, 1, 83, 127
1, 155629, Note_off_c, 1, 54, 0
1, 155712, Note_off_c, 1, 83, 0
1, 155718, Note_on_c, 1, 59, 127
1, 155970, Note_off_c, 1, 75, 0
1, 155976, Note_on_c, 1, 77, 127
1, 155976, Note_on_c, 1, 80, 127
1, 156229, Note_off_c, 1, 77, 0
1, 156229, Note_off_c, 1, 80, 0
1, 156235, Note_on_c, 1, 79, 127
1, 156488, Note_off_c, 1, 59, 0
1, 156488, Note_off_c, 1, 79, 0
1, 156494, Note_on_c, 1, 61, 127
1, 156747, Note_off_c, 1, 61, 0
1, 157011, Note_on_c, 1, 58, 127
1, 157011, Note_on_c, 1, 73, 127
1, 157264, Note_off_c, 1, 58, 0
1, 157264, Note_off_c, 1, 73, 0
1, 157269, Note_on_c, 1, 56, 127
1, 157269, Note_on_c, 1, 75, 127
1, 157269, Note_on_c, 1, 72, 127
1, 157522, Note_off_c, 1, 56, 0
1, 157528, Note_on_c, 1, 55, 127
1, 157725, Note_off_c, 1, 75, 0
1, 157781, Note_off_c, 1, 55, 0
1, 157787, Note_on_c, 1, 80, 127
1, 158039, Note_off_c, 1, 72, 0
1, 158045, Note_on_c, 1, 58, 127
1, 158045, Note_on_c, 1, 73, 127
1, 158298, Note_off_c, 1, 58, 0
1, 158298, Note_off_c, 1, 73, 0
1, 158304, Note_on_c, 1, 60, 127
1, 158557, Note_off_c, 1, 80, 0
1, 158563, Note_on_c, 1, 78, 127
1, 158815, Note_off_c, 1, 60, 0
1, 158816, Note_off_c, 1, 78, 0
1, 158821, Note_on_c, 1, 61, 127
1, 158821, Note_on_c, 1, 68, 127
1, 158821, Note_on_c, 1, 77, 127
1, 159074, Note_off_c, 1, 61, 0
1, 159080, Note_on_c, 1, 59, 127
1, 159332, Note_off_c, 1, 68, 0
1, 159333, Note_off_c, 1, 59, 0
1, 159339, Note_on_c, 1, 58, 127
1, 159339, Note_on_c, 1, 73, 127
1, 159592, Note_off_c, 1, 58, 0
1, 159597, Note_on_c, 1, 56, 127
1, 159849, Note_off_c, 1, 77, 0
1, 159850, Note_off_c, 1, 56, 0
1, 159856, Note_on_c, 1, 55, 127
1, 159856, Note_on_c, 1, 75, 127
1, 160109, Note_off_c, 1, 55, 0
1, 160114, Note_on_c, 1, 51, 127
1, 160367, Note_off_c, 1, 73, 0
1, 160367, Note_off_c, 1, 51, 0
1, 160373, Note_on_c, 1, 72, 127
1, 160770, Note_off_c, 1, 75, 0
1, 160890, Note_on_c, 1, 80, 127
1, 161149, Note_on_c, 1, 54, 127
1, 161401, Note_off_c, 1, 72, 0
1, 161402, Note_off_c, 1, 54, 0
1, 161408, Note_on_c, 1, 53, 127
1, 161660, Note_off_c, 1, 80, 0
1, 161661, Note_off_c, 1, 53, 0
1, 161666, Note_on_c, 1, 82, 127
1, 161919, Note_off_c, 1, 82, 0
1, 161925, Note_on_c, 1, 53, 127
1, 161925, Note_on_c, 1, 80, 127
1, 161925, Note_on_c, 1, 73, 127
1, 162178, Note_off_c, 1, 53, 0
1, 162178, Note_off_c, 1, 80, 0
1, 162183, Note_on_c, 1, 51, 127
1, 162183, Note_on_c, 1, 78, 127
1, 162436, Note_off_c, 1, 51, 0
1, 162436, Note_off_c, 1, 78, 0
1, 162442, Note_on_c, 1, 49, 127
1, 162442, Note_on_c, 1, 77, 127
1, 162695, Note_off_c, 1, 73, 0
1, 162695, Note_off_c, 1, 49, 0
1, 162695, Note_off_c, 1, 77, 0
1, 162701, Note_on_c, 1, 59, 127
1, 162701, Note_on_c, 1, 75, 127
1, 162701, Note_on_c, 1, 78, 127
1, 162954, Note_off_c, 1, 59, 0
1, 162954, Note_off_c, 1, 75, 0
1, 162954, Note_off_c, 1, 78, 0
1, 162959, Note_on_c, 1, 58, 127
1, 162959, Note_on_c, 1, 73, 127
1, 162959, Note_on_c, 1, 80, 127
1, 163212, Note_off_c, 1, 58, 0
1, 163212, Note_off_c, 1, 73, 0
1, 163218, Note_on_c, 1, 56, 127
1, 163218, Note_on_c, 1, 71, 127
1, 163470, Note_off_c, 1, 80, 0
1, 163471, Note_off_c, 1, 56, 0
1, 163471, Note_off_c, 1, 71, 0
1, 163477, Note_on_c, 1, 54, 127
1, 163477, Note_on_c, 1, 70, 127
1, 163477, Note_on_c, 1, 73, 127
1, 163730, Note_off_c, 1, 54, 0
1, 163730, Note_off_c, 1, 70, 0
1, 163735, Note_on_c, 1, 56, 127
1, 163735, Note_on_c, 1, 71, 127
1, 163863, Note_off_c, 1, 73, 0
1, 163988, Note_off_c, 1, 56, 0
1, 163988, Note_off_c, 1, 71, 0
1, 163994, Note_on_c, 1, 54, 127
1, 163994, Note_on_c, 1, 73, 127
1, 163994, Note_on_c, 1, 78, 127
1, 164247, Note_off_c, 1, 54, 0
1, 164252, Note_on_c, 1, 52, 127
1, 164450, Note_off_c, 1, 73, 0
1, 164505, Note_off_c, 1, 52, 0
1, 164511, Note_on_c, 1, 51, 127
1, 164511, Note_on_c, 1, 66, 127
1, 164764, Note_off_c, 1, 78, 0
1, 164764, Note_off_c, 1, 51, 0
1, 164770, Note_on_c, 1, 49, 127
1, 164770, Note_on_c, 1, 76, 127
1, 164967, Note_off_c, 1, 66, 0
1, 165023, Note_off_c, 1, 49, 0
1, 165023, Note_off_c, 1, 76, 0
1, 165028, Note_on_c, 1, 47, 127
1, 165028, Note_on_c, 1, 75, 127
1, 165028, Note_on_c, 1, 71, 127
1, 165281, Note_off_c, 1, 47, 0
1, 165287, Note_on_c, 1, 44, 127
1, 165287, Note_on_c, 1, 80, 127
1, 165538, Note_off_c, 1, 75, 0
1, 165540, Note_off_c, 1, 44, 0
1, 165546, Note_on_c, 1, 46, 127
1, 165546, Note_on_c, 1, 73, 127
1, 165797, Note_off_c, 1, 80, 0
1, 165798, Note_off_c, 1, 71, 0
1, 165799, Note_off_c, 1, 46, 0
1, 165804, Note_on_c, 1, 70, 127
1, 165804, Note_on_c, 1, 42, 127
1, 165804, Note_on_c, 1, 78, 127
1, 166034, Note_off_c, 1, 70, 0
1, 166056, Note_off_c, 1, 73, 0
1, 166057, Note_off_c, 1, 42, 0
1, 166063, Note_on_c, 1, 49, 127
1, 166063, Note_on_c, 1, 68, 127
1, 166315, Note_off_c, 1, 78, 0
1, 166316, Note_off_c, 1, 49, 0
1, 166322, Note_on_c, 1, 37, 127
1, 166322, Note_on_c, 1, 77, 127
1, 166574, Note_off_c, 1, 68, 0
1, 166575, Note_off_c, 1, 37, 0
1, 166575, Note_off_c, 1, 77, 0
1, 166580, Note_on_c, 1, 42, 127
1, 166580, Note_on_c, 1, 66, 127
1, 166580, Note_on_c, 1, 78, 127
1, 166833, Note_off_c, 1, 42, 0
1, 166833, Note_off_c, 1, 66, 0
1, 166839, Note_on_c, 1, 44, 127
1, 166839, Note_on_c, 1, 65, 127
1, 166952, Note_off_c, 1, 78, 0
1, 167092, Note_off_c, 1, 44, 0
1, 167092, Note_off_c, 1, 65, 0
1, 167097, Note_on_c, 1, 46, 127
1, 167097, Note_on_c, 1, 66, 127
1, 167097, Note_on_c, 1, 73, 127
1, 167350, Note_off_c, 1, 46, 0
1, 167350, Note_off_c, 1, 66, 0
1, 167356, Note_on_c, 1, 44, 127
1, 167356, Note_on_c, 1, 68, 127
1, 167609, Note_off_c, 1, 44, 0
1, 167609, Note_off_c, 1, 68, 0
1, 167615, Note_on_c, 1, 42, 127
1, 167615, Note_on_c, 1, 70, 127
1, 167867, Note_off_c, 1, 73, 0
1, 167868, Note_off_c, 1, 42, 0
1, 167868, Note_off_c, 1, 70, 0
1, 167873, Note_on_c, 1, 54, 127
1, 167873, Note_on_c, 1, 68, 127
1, 167873, Note_on_c, 1, 72, 127
1, 168126, Note_off_c, 1, 54, 0
1, 168126, Note_off_c, 1, 68, 0
1, 168126, Note_off_c, 1, 72, 0
1, 168132, Note_on_c, 1, 53, 127
1, 168132, Note_on_c, 1, 70, 127
1, 168132, Note_on_c, 1, 73, 127
1, 168385, Note_off_c, 1, 53, 0
1, 168385, Note_off_c, 1, 70, 0
1, 168385, Note_off_c, 1, 73, 0
1, 168391, Note_on_c, 1, 51, 127
1, 168391, Note_on_c, 1, 72, 127
1, 168391, Note_on_c, 1, 75, 127
1, 168644, Note_off_c, 1, 51, 0
1, 168644, Note_off_c, 1, 72, 0
1, 168644, Note_off_c, 1, 75, 0
1, 168649, Note_on_c, 1, 73, 127
1, 168649, Note_on_c, 1, 77, 127
1, 168649, Note_on_c, 1, 49, 127
1, 168902, Note_off_c, 1, 73, 0
1, 168902, Note_off_c, 1, 77, 0
1, 168908, Note_on_c, 1, 75, 127
1, 168908, Note_on_c, 1, 71, 127
1, 169119, Note_off_c, 1, 49, 0
1, 169162, Note_off_c, 1, 75, 0
1, 169168, Note_on_c, 1, 54, 127
1, 169420, Note_off_c, 1, 71, 0
1, 169426, Note_on_c, 1, 70, 127
1, 169679, Note_off_c, 1, 70, 0
1, 169685, Note_on_c, 1, 80, 127
1, 170141, Note_off_c, 1, 80, 0
1, 170196, Note_off_c, 1, 54, 0
1, 170202, Note_on_c, 1, 68, 127
1, 170202, Note_on_c, 1, 53, 127
1, 170202, Note_on_c, 1, 73, 127
1, 170455, Note_off_c, 1, 68, 0
1, 170461, Note_on_c, 1, 71, 127
1, 170713, Note_off_c, 1, 53, 0
1, 170714, Note_off_c, 1, 71, 0
1, 170719, Note_on_c, 1, 54, 127
1, 170719, Note_on_c, 1, 70, 127
1, 170972, Note_off_c, 1, 73, 0
1, 170972, Note_off_c, 1, 54, 0
1, 170978, Note_on_c, 1, 75, 127
1, 171231, Note_off_c, 1, 75, 0
1, 171237, Note_on_c, 1, 51, 127
1, 171237, Note_on_c, 1, 77, 127
1, 171490, Note_off_c, 1, 51, 0
1, 171495, Note_on_c, 1, 50, 127
1, 171748, Note_off_c, 1, 77, 0
1, 171748, Note_off_c, 1, 50, 0
1, 171754, Note_on_c, 1, 78, 127
1, 172006, Note_off_c, 1, 70, 0
1, 172012, Note_on_c, 1, 72, 127
1, 172265, Note_off_c, 1, 72, 0
1, 172271, Note_on_c, 1, 46, 127
1, 172524, Note_off_c, 1, 46, 0
1, 172530, Note_on_c, 1, 48, 127
1, 172783, Note_off_c, 1, 48, 0
1, 172788, Note_on_c, 1, 49, 127
1, 173041, Note_off_c, 1, 78, 0
1, 173299, Note_off_c, 1, 49, 0
1, 173306, Note_on_c, 1, 75, 127
1, 173306, Note_on_c, 1, 42, 127
1, 173306, Note_on_c, 1, 70, 127
1, 173559, Note_off_c, 1, 75, 0
1, 173564, Note_on_c, 1, 73, 127
1, 173817, Note_off_c, 1, 42, 0
1, 173817, Note_off_c, 1, 73, 0
1, 173823, Note_on_c, 1, 44, 127
1, 173823, Note_on_c, 1, 72, 127
1, 174076, Note_off_c, 1, 70, 0
1, 174082, Note_on_c, 1, 68, 127
1, 174334, Note_off_c, 1, 44, 0
1, 174334, Note_off_c, 1, 72, 0
1, 174335, Note_off_c, 1, 68, 0
1, 174340, Note_on_c, 1, 66, 127
1, 174340, Note_on_c, 1, 46, 127
1, 174340, Note_on_c, 1, 74, 127
1, 174593, Note_off_c, 1, 66, 0
1, 174599, Note_on_c, 1, 65, 127
1, 174851, Note_off_c, 1, 46, 0
1, 174851, Note_off_c, 1, 74, 0
1, 174852, Note_off_c, 1, 65, 0
1, 174857, Note_on_c, 1, 47, 127
1, 174857, Note_on_c, 1, 63, 127
1, 174857, Note_on_c, 1, 75, 127
1, 175110, Note_off_c, 1, 47, 0
1, 175110, Note_off_c, 1, 63, 0
1, 175116, Note_on_c, 1, 46, 127
1, 175116, Note_on_c, 1, 66, 127
1, 175369, Note_off_c, 1, 46, 0
1, 175369, Note_off_c, 1, 66, 0
1, 175375, Note_on_c, 1, 44, 127
1, 175375, Note_on_c, 1, 71, 127
1, 175628, Note_off_c, 1, 44, 0
1, 175633, Note_on_c, 1, 42, 127
1, 175885, Note_off_c, 1, 75, 0
1, 175886, Note_off_c, 1, 42, 0
1, 175892, Note_on_c, 1, 40, 127
1, 175892, Note_on_c, 1, 73, 127
1, 176145, Note_off_c, 1, 71, 0
1, 176151, Note_on_c, 1, 70, 127
1, 176403, Note_off_c, 1, 40, 0
1, 176404, Note_off_c, 1, 70, 0
1, 176409, Note_on_c, 1, 68, 127
1, 176409, Note_on_c, 1, 39, 127
1, 176662, Note_off_c, 1, 68, 0
1, 176668, Note_on_c, 1, 67, 127
1, 176920, Note_off_c, 1, 73, 0
1, 176920, Note_off_c, 1, 39, 0
1, 176921, Note_off_c, 1, 67, 0
1, 176926, Note_on_c, 1, 44, 127
1, 176926, Note_on_c, 1, 71, 127
1, 176926, Note_on_c, 1, 68, 127
1, 177179, Note_off_c, 1, 44, 0
1, 177179, Note_off_c, 1, 71, 0
1, 177185, Note_on_c, 1, 46, 127
1, 177185, Note_on_c, 1, 73, 127
1, 177438, Note_off_c, 1, 46, 0
1, 177438, Note_off_c, 1, 73, 0
1, 177444, Note_on_c, 1, 47, 127
1, 177444, Note_on_c, 1, 75, 127
1, 177697, Note_off_c, 1, 47, 0
1, 177697, Note_off_c, 1, 75, 0
1, 177702, Note_on_c, 1, 49, 127
1, 177702, Note_on_c, 1, 76, 127
1, 177955, Note_off_c, 1, 49, 0
1, 177955, Note_off_c, 1, 76, 0
1, 177961, Note_on_c, 1, 70, 127
1, 177961, Note_on_c, 1, 51, 127
1, 178214, Note_off_c, 1, 70, 0
1, 178472, Note_off_c, 1, 68, 0
1, 178478, Note_on_c, 1, 67, 127
1, 178731, Note_off_c, 1, 51, 0
1, 178989, Note_off_c, 1, 67, 0
1, 178996, Note_on_c, 1, 56, 127
1, 178996, Note_on_c, 1, 71, 127
1, 178996, Note_on_c, 1, 68, 127
1, 179249, Note_off_c, 1, 56, 0
1, 179249, Note_off_c, 1, 71, 0
1, 179254, Note_on_c, 1, 58, 127
1, 179254, Note_on_c, 1, 70, 127
1, 179507, Note_off_c, 1, 68, 0
1, 179507, Note_off_c, 1, 58, 0
1, 179507, Note_off_c, 1, 70, 0
1, 179513, Note_on_c, 1, 59, 127
1, 179513, Note_on_c, 1, 68, 127
1, 179513, Note_on_c, 1, 63, 127
1, 179766, Note_off_c, 1, 59, 0
1, 179766, Note_off_c, 1, 68, 0
1, 179771, Note_on_c, 1, 56, 127
1, 179771, Note_on_c, 1, 66, 127
1, 180024, Note_off_c, 1, 56, 0
1, 180024, Note_off_c, 1, 66, 0
1, 180030, Note_on_c, 1, 58, 127
1, 180030, Note_on_c, 1, 65, 127
1, 180283, Note_off_c, 1, 63, 0
1, 180283, Note_off_c, 1, 58, 0
1, 180289, Note_on_c, 1, 62, 127
1, 180541, Note_off_c, 1, 65, 0
1, 180542, Note_off_c, 1, 62, 0
1, 180547, Note_on_c, 1, 54, 127
1, 180547, Note_on_c, 1, 63, 127
1, 180547, Note_on_c, 1, 66, 127
1, 180800, Note_off_c, 1, 54, 0
1, 180800, Note_off_c, 1, 63, 0
1, 180800, Note_off_c, 1, 66, 0
1, 180806, Note_on_c, 1, 53, 127
1, 180806, Note_on_c, 1, 65, 127
1, 180806, Note_on_c, 1, 68, 127
1, 181059, Note_off_c, 1, 53, 0
1, 181059, Note_off_c, 1, 65, 0
1, 181059, Note_off_c, 1, 68, 0
1, 181065, Note_on_c, 1, 66, 127
1, 181065, Note_on_c, 1, 51, 127
1, 181065, Note_on_c, 1, 70, 127
1, 181318, Note_off_c, 1, 66, 0
1, 181323, Note_on_c, 1, 65, 127
1, 181576, Note_off_c, 1, 51, 0
1, 181576, Note_off_c, 1, 70, 0
1, 181576, Note_off_c, 1, 65, 0
1, 181582, Note_on_c, 1, 72, 127
1, 181582, Note_on_c, 1, 63, 127
1, 181582, Note_on_c, 1, 56, 127
1, 181835, Note_off_c, 1, 72, 0
1, 181840, Note_on_c, 1, 74, 127
1, 182093, Note_off_c, 1, 63, 0
1, 182093, Note_off_c, 1, 74, 0
1, 182099, Note_on_c, 1, 70, 127
1, 182099, Note_on_c, 1, 75, 127
1, 182352, Note_off_c, 1, 56, 0
1, 182358, Note_on_c, 1, 55, 127
1, 182482, Note_off_c, 1, 55, 0
1, 182488, Note_on_c, 1, 53, 127
1, 182611, Note_off_c, 1, 70, 0
1, 182612, Note_off_c, 1, 53, 0
1, 182870, Note_off_c, 1, 75, 0
1, 182876, Note_on_c, 1, 73, 127
1, 183129, Note_off_c, 1, 73, 0
1, 183393, Note_on_c, 1, 54, 127
1, 183393, Note_on_c, 1, 65, 127
1, 183393, Note_on_c, 1, 74, 127
1, 183646, Note_off_c, 1, 54, 0
1, 183646, Note_off_c, 1, 65, 0
1, 183646, Note_off_c, 1, 74, 0
1, 183652, Note_on_c, 1, 53, 127
1, 183652, Note_on_c, 1, 66, 127
1, 183652, Note_on_c, 1, 75, 127
1, 183905, Note_off_c, 1, 53, 0
1, 183911, Note_on_c, 1, 51, 127
1, 184163, Note_off_c, 1, 66, 0
1, 184164, Note_off_c, 1, 51, 0
1, 184169, Note_on_c, 1, 68, 127
1, 184428, Note_on_c, 1, 54, 127
1, 184680, Note_off_c, 1, 75, 0
1, 184681, Note_off_c, 1, 54, 0
1, 184686, Note_on_c, 1, 56, 127
1, 184686, Note_on_c, 1, 74, 127
1, 184939, Note_off_c, 1, 56, 0
1, 184945, Note_on_c, 1, 58, 127
1, 185197, Note_off_c, 1, 68, 0
1, 185197, Note_off_c, 1, 74, 0
1, 185198, Note_off_c, 1, 58, 0
1, 185204, Note_on_c, 1, 51, 127
1, 185204, Note_on_c, 1, 66, 127
1, 185204, Note_on_c, 1, 75, 127
1, 185329, Note_off_c, 1, 51, 0
1, 185335, Note_on_c, 1, 63, 127
1, 185460, Note_off_c, 1, 66, 0
1, 185460, Note_off_c, 1, 63, 0
1, 185466, Note_on_c, 1, 61, 127
1, 185466, Note_on_c, 1, 68, 127
1, 185591, Note_off_c, 1, 61, 0
1, 185597, Note_on_c, 1, 59, 127
1, 185722, Note_off_c, 1, 75, 0
1, 185722, Note_off_c, 1, 68, 0
1, 185722, Note_off_c, 1, 59, 0
1, 185728, Note_on_c, 1, 70, 127
1, 185728, Note_on_c, 1, 74, 127
1, 185728, Note_on_c, 1, 58, 127
1, 185984, Note_off_c, 1, 70, 0
1, 185984, Note_off_c, 1, 74, 0
1, 185990, Note_on_c, 1, 72, 127
1, 185990, Note_on_c, 1, 75, 127
1, 186246, Note_off_c, 1, 72, 0
1, 186246, Note_off_c, 1, 75, 0
1, 186252, Note_on_c, 1, 77, 127
1, 186508, Note_off_c, 1, 58, 0
1, 186508, Note_off_c, 1, 77, 0
1, 186514, Note_on_c, 1, 54, 127
1, 186514, Note_on_c, 1, 58, 127
1, 186514, Note_on_c, 1, 80, 127
1, 186770, Note_off_c, 1, 54, 0
1, 186770, Note_off_c, 1, 58, 0
1, 186770, Note_off_c, 1, 80, 0
1, 186775, Note_on_c, 1, 56, 127
1, 186775, Note_on_c, 1, 60, 127
1, 186775, Note_on_c, 1, 78, 127
1, 187031, Note_off_c, 1, 56, 0
1, 187031, Note_off_c, 1, 60, 0
1, 187031, Note_off_c, 1, 78, 0
1, 187037, Note_on_c, 1, 58, 127
1, 187037, Note_on_c, 1, 62, 127
1, 187037, Note_on_c, 1, 77, 127
1, 187293, Note_off_c, 1, 58, 0
1, 187293, Note_off_c, 1, 62, 0
1, 187293, Note_off_c, 1, 77, 0
1, 187299, Note_on_c, 1, 59, 127
1, 187299, Note_on_c, 1, 75, 127
1, 187299, Note_on_c, 1, 63, 127
1, 187555, Note_off_c, 1, 59, 0
1, 187555, Note_off_c, 1, 75, 0
1, 187561, Note_on_c, 1, 58, 127
1, 187561, Note_on_c, 1, 73, 127
1, 187817, Note_off_c, 1, 58, 0
1, 187817, Note_off_c, 1, 73, 0
1, 187823, Note_on_c, 1, 71, 127
1, 187823, Note_on_c, 1, 56, 127
1, 188079, Note_off_c, 1, 63, 0
1, 188079, Note_off_c, 1, 71, 0
1, 188085, Note_on_c, 1, 70, 127
1, 188085, Note_on_c, 1, 65, 127
1, 188210, Note_off_c, 1, 70, 0
1, 188341, Note_off_c, 1, 56, 0
1, 188341, Note_off_c, 1, 65, 0
1, 188347, Note_on_c, 1, 70, 127
1, 188347, Note_on_c, 1, 63, 127
1, 188347, Note_on_c, 1, 66, 127
1, 188603, Note_off_c, 1, 70, 0
1, 188609, Note_on_c, 1, 72, 127
1, 188865, Note_off_c, 1, 63, 0
1, 188865, Note_off_c, 1, 66, 0
1, 188865, Note_off_c, 1, 72, 0
1, 188871, Note_on_c, 1, 65, 127
1, 188871, Note_on_c, 1, 74, 127
1, 188871, Note_on_c, 1, 58, 127
1, 189127, Note_off_c, 1, 65, 0
1, 189127, Note_off_c, 1, 74, 0
1, 189133, Note_on_c, 1, 63, 127
1, 189133, Note_on_c, 1, 75, 127
1, 189389, Note_off_c, 1, 63, 0
1, 189389, Note_off_c, 1, 75, 0
1, 189395, Note_on_c, 1, 62, 127
1, 189395, Note_on_c, 1, 77, 127
1, 189651, Note_off_c, 1, 58, 0
1, 189651, Note_off_c, 1, 62, 0
1, 189651, Note_off_c, 1, 77, 0
1, 189657, Note_on_c, 1, 60, 127
1, 189657, Note_on_c, 1, 63, 127
1, 189657, Note_on_c, 1, 70, 127
1, 189913, Note_off_c, 1, 60, 0
1, 189913, Note_off_c, 1, 63, 0
1, 189913, Note_off_c, 1, 70, 0
1, 189919, Note_on_c, 1, 82, 127
1, 189919, Note_on_c, 1, 62, 127
1, 189919, Note_on_c, 1, 65, 127
1, 190175, Note_off_c, 1, 82, 0
1, 190181, Note_on_c, 1, 80, 127
1, 190437, Note_off_c, 1, 62, 0
1, 190437, Note_off_c, 1, 80, 0
1, 190443, Note_on_c, 1, 63, 127
1, 190443, Note_on_c, 1, 78, 127
1, 190699, Note_off_c, 1, 65, 0
1, 190699, Note_off_c, 1, 63, 0
1, 190699, Note_off_c, 1, 78, 0
1, 190705, Note_on_c, 1, 63, 127
1, 190705, Note_on_c, 1, 59, 127
1, 190705, Note_on_c, 1, 80, 127
1, 190830, Note_off_c, 1, 63, 0
1, 190836, Note_on_c, 1, 62, 127
1, 190961, Note_off_c, 1, 59, 0
1, 190961, Note_off_c, 1, 80, 0
1, 190961, Note_off_c, 1, 62, 0
1, 190967, Note_on_c, 1, 54, 127
1, 190967, Note_on_c, 1, 82, 127
1, 190967, Note_on_c, 1, 63, 127
1, 191223, Note_off_c, 1, 54, 0
1, 191223, Note_off_c, 1, 82, 0
1, 191229, Note_on_c, 1, 56, 127
1, 191229, Note_on_c, 1, 83, 127
1, 191485, Note_off_c, 1, 56, 0
1, 191485, Note_off_c, 1, 83, 0
1, 191491, Note_on_c, 1, 58, 127
1, 191491, Note_on_c, 1, 77, 127
1, 191747, Note_off_c, 1, 63, 0
1, 191753, Note_on_c, 1, 61, 127
1, 192009, Note_off_c, 1, 58, 0
1, 192009, Note_off_c, 1, 77, 0
1, 192009, Note_off_c, 1, 61, 0
1, 192015, Note_on_c, 1, 59, 127
1, 192015, Note_on_c, 1, 51, 127
1, 192015, Note_on_c, 1, 79, 127
1, 192271, Note_off_c, 1, 59, 0
1, 192277, Note_on_c, 1, 58, 127
1, 192533, Note_off_c, 1, 51, 0
1, 192533, Note_off_c, 1, 79, 0
1, 192533, Note_off_c, 1, 58, 0
1, 192539, Note_on_c, 1, 56, 127
1, 192539, Note_on_c, 1, 59, 127
1, 192539, Note_on_c, 1, 80, 127
1, 192795, Note_off_c, 1, 56, 0
1, 192795, Note_off_c, 1, 59, 0
1, 192795, Note_off_c, 1, 80, 0
1, 192801, Note_on_c, 1, 58, 127
1, 192801, Note_on_c, 1, 63, 127
1, 192801, Note_on_c, 1, 78, 127
1, 193057, Note_off_c, 1, 58, 0
1, 193057, Note_off_c, 1, 63, 0
1, 193057, Note_off_c, 1, 78, 0
1, 193063, Note_on_c, 1, 77, 127
1, 193063, Note_on_c, 1, 59, 127
1, 193063, Note_on_c, 1, 68, 127
1, 193319, Note_off_c, 1, 77, 0
1, 193324, Note_on_c, 1, 75, 127
1, 193580, Note_off_c, 1, 75, 0
1, 193581, Note_off_c, 1, 59, 0
1, 193586, Note_on_c, 1, 74, 127
1, 193586, Note_on_c, 1, 58, 127
1, 193843, Note_off_c, 1, 68, 0
1, 193848, Note_on_c, 1, 66, 127
1, 194046, Note_off_c, 1, 74, 0
1, 194104, Note_off_c, 1, 66, 0
1, 194110, Note_on_c, 1, 65, 127
1, 194366, Note_off_c, 1, 65, 0
1, 194372, Note_on_c, 1, 63, 127
1, 194628, Note_off_c, 1, 63, 0
1, 194896, Note_on_c, 1, 73, 127
1, 195152, Note_off_c, 1, 73, 0
1, 195158, Note_on_c, 1, 71, 127
1, 195158, Note_on_c, 1, 67, 127
1, 195414, Note_off_c, 1, 71, 0
1, 195420, Note_on_c, 1, 70, 127
1, 195676, Note_off_c, 1, 67, 0
1, 195676, Note_off_c, 1, 70, 0
1, 196730, Note_on_c, 1, 46, 127
1, 196730, Note_on_c, 1, 62, 127
1, 197132, Note_off_c, 1, 58, 0
1, 197248, Note_off_c, 1, 46, 0
1, 197248, Note_off_c, 1, 62, 0
1, 197254, Note_on_c, 1, 63, 127
1, 197254, Note_on_c, 1, 66, 127
1, 197254, Note_on_c, 1, 39, 127
1, 197510, Note_off_c, 1, 63, 0
1, 197510, Note_off_c, 1, 66, 0
1, 197516, Note_on_c, 1, 65, 127
1, 197516, Note_on_c, 1, 68, 127
1, 197772, Note_off_c, 1, 65, 0
1, 197772, Note_off_c, 1, 68, 0
1, 197778, Note_on_c, 1, 70, 127
1, 198034, Note_off_c, 1, 39, 0
1, 198040, Note_on_c, 1, 38, 127
1, 198296, Note_off_c, 1, 70, 0
1, 198296, Note_off_c, 1, 38, 0
1, 198302, Note_on_c, 1, 39, 127
1, 198302, Note_on_c, 1, 66, 127
1, 198302, Note_on_c, 1, 63, 127
1, 198558, Note_off_c, 1, 39, 0
1, 198558, Note_off_c, 1, 66, 0
1, 198564, Note_on_c, 1, 41, 127
1, 198564, Note_on_c, 1, 68, 127
1, 198820, Note_off_c, 1, 41, 0
1, 198820, Note_off_c, 1, 68, 0
1, 198826, Note_on_c, 1, 70, 127
1, 198826, Note_on_c, 1, 42, 127
1, 199055, Note_off_c, 1, 70, 0
1, 199081, Note_off_c, 1, 63, 0
1, 199081, Note_off_c, 1, 42, 0
1, 199087, Note_on_c, 1, 68, 127
1, 199087, Note_on_c, 1, 41, 127
1, 199087, Note_on_c, 1, 62, 127
1, 199316, Note_off_c, 1, 68, 0
1, 199342, Note_off_c, 1, 41, 0
1, 199342, Note_off_c, 1, 62, 0
1, 199347, Note_on_c, 1, 66, 127
1, 199347, Note_on_c, 1, 63, 127
1, 199347, Note_on_c, 1, 39, 127
1, 199603, Note_off_c, 1, 66, 0
1, 199609, Note_on_c, 1, 65, 127
1, 199727, Note_off_c, 1, 63, 0
1, 199734, Note_off_c, 1, 65, 0
1, 199865, Note_off_c, 1, 39, 0
1, 199871, Note_on_c, 1, 62, 127
1, 199871, Note_on_c, 1, 66, 127
1, 199871, Note_on_c, 1, 46, 127
1, 200127, Note_off_c, 1, 62, 0
1, 200127, Note_off_c, 1, 66, 0
1, 200133, Note_on_c, 1, 68, 127
1, 200133, Note_on_c, 1, 65, 127
1, 200389, Note_off_c, 1, 46, 0
1, 200389, Note_off_c, 1, 68, 0
1, 200395, Note_on_c, 1, 63, 127
1, 200395, Note_on_c, 1, 39, 127
1, 200651, Note_off_c, 1, 65, 0
1, 200913, Note_off_c, 1, 63, 0
1, 200919, Note_on_c, 1, 67, 127
1, 200919, Note_on_c, 1, 70, 127
1, 201175, Note_off_c, 1, 39, 0
1, 201175, Note_off_c, 1, 67, 0
1, 201181, Note_on_c, 1, 41, 127
1, 201435, Note_off_c, 1, 70, 0
1, 201436, Note_off_c, 1, 41, 0
1, 201442, Note_on_c, 1, 63, 127
1, 201442, Note_on_c, 1, 70, 127
1, 201442, Note_on_c, 1, 43, 127
1, 201698, Note_off_c, 1, 63, 0
1, 201704, Note_on_c, 1, 61, 127
1, 201958, Note_off_c, 1, 70, 0
1, 201959, Note_off_c, 1, 43, 0
1, 201959, Note_off_c, 1, 61, 0
1, 201965, Note_on_c, 1, 59, 127
1, 201965, Note_on_c, 1, 63, 127
1, 201965, Note_on_c, 1, 44, 127
1, 202221, Note_off_c, 1, 59, 0
1, 202221, Note_off_c, 1, 63, 0
1, 202227, Note_on_c, 1, 61, 127
1, 202227, Note_on_c, 1, 65, 127
1, 202483, Note_off_c, 1, 44, 0
1, 202483, Note_off_c, 1, 61, 0
1, 202483, Note_off_c, 1, 65, 0
1, 202489, Note_on_c, 1, 63, 127
1, 202489, Note_on_c, 1, 46, 127
1, 202489, Note_on_c, 1, 67, 127
1, 202745, Note_off_c, 1, 63, 0
1, 202751, Note_on_c, 1, 64, 127
1, 203007, Note_off_c, 1, 46, 0
1, 203007, Note_off_c, 1, 67, 0
1, 203007, Note_off_c, 1, 64, 0
1, 203013, Note_on_c, 1, 47, 127
1, 203013, Note_on_c, 1, 63, 127
1, 203013, Note_on_c, 1, 68, 127
1, 203269, Note_off_c, 1, 47, 0
1, 203275, Note_on_c, 1, 49, 127
1, 203531, Note_off_c, 1, 63, 0
1, 203531, Note_off_c, 1, 68, 0
1, 203531, Note_off_c, 1, 49, 0
1, 203536, Note_on_c, 1, 47, 127
1, 203536, Note_on_c, 1, 80, 127
1, 203536, Note_on_c, 1, 56, 127
1, 203792, Note_off_c, 1, 47, 0
1, 203798, Note_on_c, 1, 46, 127
1, 204054, Note_off_c, 1, 80, 0
1, 204054, Note_off_c, 1, 46, 0
1, 204060, Note_on_c, 1, 44, 127
1, 204060, Note_on_c, 1, 75, 127
1, 204316, Note_off_c, 1, 56, 0
1, 204316, Note_off_c, 1, 44, 0
1, 204322, Note_on_c, 1, 55, 127
1, 204578, Note_off_c, 1, 55, 0
1, 204840, Note_off_c, 1, 75, 0
1, 204846, Note_on_c, 1, 52, 127
1, 204846, Note_on_c, 1, 58, 127
1, 204846, Note_on_c, 1, 73, 127
1, 204971, Note_off_c, 1, 52, 0
1, 204977, Note_on_c, 1, 49, 127
1, 205102, Note_off_c, 1, 58, 0
1, 205102, Note_off_c, 1, 73, 0
1, 205102, Note_off_c, 1, 49, 0
1, 205108, Note_on_c, 1, 59, 127
1, 205108, Note_on_c, 1, 56, 127
1, 205108, Note_on_c, 1, 75, 127
1, 205364, Note_off_c, 1, 59, 0
1, 205370, Note_on_c, 1, 58, 127
1, 205626, Note_off_c, 1, 56, 0
1, 205626, Note_off_c, 1, 58, 0
1, 205632, Note_on_c, 1, 47, 127
1, 205888, Note_off_c, 1, 75, 0
1, 205888, Note_off_c, 1, 47, 0
1, 205894, Note_on_c, 1, 49, 127
1, 205894, Note_on_c, 1, 77, 127
1, 206150, Note_off_c, 1, 49, 0
1, 206150, Note_off_c, 1, 77, 0
1, 206156, Note_on_c, 1, 51, 127
1, 206156, Note_on_c, 1, 63, 127
1, 206156, Note_on_c, 1, 78, 127
1, 206412, Note_off_c, 1, 51, 0
1, 206418, Note_on_c, 1, 50, 127
1, 206632, Note_off_c, 1, 63, 0
1, 206674, Note_off_c, 1, 50, 0
1, 206680, Note_on_c, 1, 58, 127
1, 206936, Note_off_c, 1, 78, 0
1, 206942, Note_on_c, 1, 53, 127
1, 206942, Note_on_c, 1, 77, 127
1, 207198, Note_off_c, 1, 53, 0
1, 207198, Note_off_c, 1, 77, 0
1, 207204, Note_on_c, 1, 54, 127
1, 207204, Note_on_c, 1, 75, 127
1, 207460, Note_off_c, 1, 58, 0
1, 207460, Note_off_c, 1, 54, 0
1, 207466, Note_on_c, 1, 56, 127
1, 207466, Note_on_c, 1, 59, 127
1, 207722, Note_off_c, 1, 75, 0
1, 207722, Note_off_c, 1, 56, 0
1, 207722, Note_off_c, 1, 59, 0
1, 207728, Note_on_c, 1, 53, 127
1, 207728, Note_on_c, 1, 82, 127
1, 207728, Note_on_c, 1, 61, 127
1, 207984, Note_off_c, 1, 53, 0
1, 207990, Note_on_c, 1, 55, 127
1, 208246, Note_off_c, 1, 82, 0
1, 208246, Note_off_c, 1, 55, 0
1, 208252, Note_on_c, 1, 56, 127
1, 208252, Note_on_c, 1, 75, 127
1, 208508, Note_off_c, 1, 61, 0
1, 208508, Note_off_c, 1, 56, 0
1, 208514, Note_on_c, 1, 58, 127
1, 208514, Note_on_c, 1, 73, 127
1, 208770, Note_off_c, 1, 58, 0
1, 208770, Note_off_c, 1, 73, 0
1, 208776, Note_on_c, 1, 71, 127
1, 209032, Note_off_c, 1, 75, 0
1, 209032, Note_off_c, 1, 71, 0
1, 209038, Note_on_c, 1, 54, 127
1, 209038, Note_on_c, 1, 70, 127
1, 209038, Note_on_c, 1, 75, 127
1, 209294, Note_off_c, 1, 54, 0
1, 209294, Note_off_c, 1, 70, 0
1, 209294, Note_off_c, 1, 75, 0
1, 209300, Note_on_c, 1, 53, 127
1, 209300, Note_on_c, 1, 68, 127
1, 209300, Note_on_c, 1, 74, 127
1, 209556, Note_off_c, 1, 53, 0
1, 209556, Note_off_c, 1, 68, 0
1, 209556, Note_off_c, 1, 74, 0
1, 209562, Note_on_c, 1, 51, 127
1, 209562, Note_on_c, 1, 66, 127
1, 209562, Note_on_c, 1, 75, 127
1, 209818, Note_off_c, 1, 51, 0
1, 209818, Note_off_c, 1, 66, 0
1, 209818, Note_off_c, 1, 75, 0
1, 209824, Note_on_c, 1, 50, 127
1, 209824, Note_on_c, 1, 68, 127
1, 209824, Note_on_c, 1, 77, 127
1, 210080, Note_off_c, 1, 50, 0
1, 210080, Note_off_c, 1, 68, 0
1, 210080, Note_off_c, 1, 77, 0
1, 210085, Note_on_c, 1, 59, 127
1, 210085, Note_on_c, 1, 65, 127
1, 210085, Note_on_c, 1, 74, 127
1, 210341, Note_off_c, 1, 59, 0
1, 210341, Note_off_c, 1, 65, 0
1, 210341, Note_off_c, 1, 74, 0
1, 210347, Note_on_c, 1, 58, 127
1, 210347, Note_on_c, 1, 66, 127
1, 210347, Note_on_c, 1, 75, 127
1, 210603, Note_off_c, 1, 58, 0
1, 210603, Note_off_c, 1, 66, 0
1, 210603, Note_off_c, 1, 75, 0
1, 210609, Note_on_c, 1, 56, 127
1, 210609, Note_on_c, 1, 68, 127
1, 210609, Note_on_c, 1, 77, 127
1, 210865, Note_off_c, 1, 56, 0
1, 210865, Note_off_c, 1, 68, 0
1, 210865, Note_off_c, 1, 77, 0
1, 210871, Note_on_c, 1, 54, 127
1, 210871, Note_on_c, 1, 70, 127
1, 210871, Note_on_c, 1, 78, 127
1, 211127, Note_off_c, 1, 54, 0
1, 211127, Note_off_c, 1, 70, 0
1, 211127, Note_off_c, 1, 78, 0
1, 211133, Note_on_c, 1, 53, 127
1, 211133, Note_on_c, 1, 80, 127
1, 211133, Note_on_c, 1, 68, 127
1, 211389, Note_off_c, 1, 53, 0
1, 211389, Note_off_c, 1, 80, 0
1, 211395, Note_on_c, 1, 51, 127
1, 211395, Note_on_c, 1, 82, 127
1, 211651, Note_off_c, 1, 68, 0
1, 211651, Note_off_c, 1, 51, 0
1, 211651, Note_off_c, 1, 82, 0
1, 211657, Note_on_c, 1, 66, 127
1, 211657, Note_on_c, 1, 49, 127
1, 211657, Note_on_c, 1, 70, 127
1, 211782, Note_off_c, 1, 66, 0
1, 211788, Note_on_c, 1, 65, 127
1, 211913, Note_off_c, 1, 49, 0
1, 211913, Note_off_c, 1, 70, 0
1, 211913, Note_off_c, 1, 65, 0
1, 211919, Note_on_c, 1, 66, 127
1, 211919, Note_on_c, 1, 75, 127
1, 211919, Note_on_c, 1, 47, 127
1, 212175, Note_off_c, 1, 66, 0
1, 212175, Note_off_c, 1, 75, 0
1, 212181, Note_on_c, 1, 68, 127
1, 212181, Note_on_c, 1, 77, 127
1, 212437, Note_off_c, 1, 47, 0
1, 212437, Note_off_c, 1, 68, 0
1, 212437, Note_off_c, 1, 77, 0
1, 212443, Note_on_c, 1, 74, 127
1, 212443, Note_on_c, 1, 46, 127
1, 212443, Note_on_c, 1, 70, 127
1, 212932, Note_off_c, 1, 74, 0
1, 212961, Note_off_c, 1, 46, 0
1, 212961, Note_off_c, 1, 70, 0
1, 212983, Note_on_c, 1, 58, 127
1, 212983, Note_on_c, 1, 51, 127
1, 213450, Note_off_c, 1, 58, 0
1, 213513, Note_on_c, 1, 70, 127
1, 213513, Note_on_c, 1, 63, 127
1, 213771, Note_off_c, 1, 51, 0
1, 213777, Note_on_c, 1, 52, 127
1, 213979, Note_off_c, 1, 70, 0
1, 214035, Note_off_c, 1, 52, 0
1, 214041, Note_on_c, 1, 75, 127
1, 214299, Note_off_c, 1, 63, 0
1, 214305, Note_on_c, 1, 64, 127
1, 214305, Note_on_c, 1, 49, 127
1, 214563, Note_off_c, 1, 64, 0
1, 214563, Note_off_c, 1, 49, 0
1, 214569, Note_on_c, 1, 47, 127
1, 214827, Note_off_c, 1, 75, 0
1, 214827, Note_off_c, 1, 47, 0
1, 214833, Note_on_c, 1, 76, 127
1, 214833, Note_on_c, 1, 61, 127
1, 214833, Note_on_c, 1, 49, 127
1, 215091, Note_off_c, 1, 76, 0
1, 215091, Note_off_c, 1, 61, 0
1, 215091, Note_off_c, 1, 49, 0
1, 215098, Note_on_c, 1, 75, 127
1, 215098, Note_on_c, 1, 59, 127
1, 215098, Note_on_c, 1, 51, 127
1, 215356, Note_off_c, 1, 75, 0
1, 215356, Note_off_c, 1, 59, 0
1, 215362, Note_on_c, 1, 73, 127
1, 215362, Note_on_c, 1, 61, 127
1, 215620, Note_off_c, 1, 51, 0
1, 215620, Note_off_c, 1, 73, 0
1, 215620, Note_off_c, 1, 61, 0
1, 215626, Note_on_c, 1, 71, 127
1, 215626, Note_on_c, 1, 44, 127
1, 215626, Note_on_c, 1, 63, 127
1, 215884, Note_off_c, 1, 71, 0
1, 215884, Note_off_c, 1, 44, 0
1, 215890, Note_on_c, 1, 73, 127
1, 215890, Note_on_c, 1, 46, 127
1, 216092, Note_off_c, 1, 63, 0
1, 216148, Note_off_c, 1, 73, 0
1, 216148, Note_off_c, 1, 46, 0
1, 216154, Note_on_c, 1, 56, 127
1, 216154, Note_on_c, 1, 75, 127
1, 216154, Note_on_c, 1, 47, 127
1, 216412, Note_off_c, 1, 56, 0
1, 216419, Note_on_c, 1, 54, 127
1, 216620, Note_off_c, 1, 75, 0
1, 216676, Note_off_c, 1, 47, 0
1, 216677, Note_off_c, 1, 54, 0
1, 216683, Note_on_c, 1, 68, 127
1, 216683, Note_on_c, 1, 53, 127
1, 216683, Note_on_c, 1, 49, 127
1, 216941, Note_off_c, 1, 68, 0
1, 216947, Note_on_c, 1, 70, 127
1, 217073, Note_off_c, 1, 70, 0
1, 217079, Note_on_c, 1, 71, 127
1, 217205, Note_off_c, 1, 53, 0
1, 217205, Note_off_c, 1, 49, 0
1, 217205, Note_off_c, 1, 71, 0
1, 217211, Note_on_c, 1, 70, 127
1, 217211, Note_on_c, 1, 61, 127
1, 217211, Note_on_c, 1, 42, 127
1, 217469, Note_off_c, 1, 70, 0
1, 217475, Note_on_c, 1, 71, 127
1, 217733, Note_off_c, 1, 61, 0
1, 217733, Note_off_c, 1, 71, 0
1, 217739, Note_on_c, 1, 73, 127
1, 217739, Note_on_c, 1, 54, 127
1, 217997, Note_off_c, 1, 42, 0
1, 218004, Note_on_c, 1, 41, 127
1, 218261, Note_off_c, 1, 73, 0
1, 218262, Note_off_c, 1, 41, 0
1, 218268, Note_on_c, 1, 66, 127
1, 218525, Note_off_c, 1, 54, 0
1, 218532, Note_on_c, 1, 53, 127
1, 218532, Note_on_c, 1, 44, 127
1, 218790, Note_off_c, 1, 53, 0
1, 218790, Note_off_c, 1, 44, 0
1, 218796, Note_on_c, 1, 46, 127
1, 219054, Note_off_c, 1, 66, 0
1, 219054, Note_off_c, 1, 46, 0
1, 219060, Note_on_c, 1, 65, 127
1, 219060, Note_on_c, 1, 56, 127
1, 219060, Note_on_c, 1, 44, 127
1, 219318, Note_off_c, 1, 65, 0
1, 219318, Note_off_c, 1, 56, 0
1, 219318, Note_off_c, 1, 44, 0
1, 219324, Note_on_c, 1, 66, 127
1, 219324, Note_on_c, 1, 58, 127
1, 219324, Note_on_c, 1, 42, 127
1, 219582, Note_off_c, 1, 66, 0
1, 219582, Note_off_c, 1, 58, 0
1, 219582, Note_off_c, 1, 42, 0
1, 219589, Note_on_c, 1, 68, 127
1, 219589, Note_on_c, 1, 56, 127
1, 219589, Note_on_c, 1, 52, 127
1, 219847, Note_off_c, 1, 68, 0
1, 219847, Note_off_c, 1, 56, 0
1, 219847, Note_off_c, 1, 52, 0
1, 219853, Note_on_c, 1, 70, 127
1, 219853, Note_on_c, 1, 54, 127
1, 219853, Note_on_c, 1, 51, 127
1, 220111, Note_off_c, 1, 70, 0
1, 220117, Note_on_c, 1, 68, 127
1, 220375, Note_off_c, 1, 54, 0
1, 220375, Note_off_c, 1, 68, 0
1, 220381, Note_on_c, 1, 59, 127
1, 220381, Note_on_c, 1, 66, 127
1, 220639, Note_off_c, 1, 59, 0
1, 220645, Note_on_c, 1, 58, 127
1, 220903, Note_off_c, 1, 66, 0
1, 220903, Note_off_c, 1, 58, 0
1, 220910, Note_on_c, 1, 56, 127
1, 220910, Note_on_c, 1, 76, 127
1, 221168, Note_off_c, 1, 51, 0
1, 221174, Note_on_c, 1, 49, 127
1, 221432, Note_off_c, 1, 56, 0
1, 221432, Note_off_c, 1, 49, 0
1, 221438, Note_on_c, 1, 47, 127
1, 221438, Note_on_c, 1, 73, 127
1, 221696, Note_off_c, 1, 47, 0
1, 221702, Note_on_c, 1, 46, 127
1, 221960, Note_off_c, 1, 73, 0
1, 221960, Note_off_c, 1, 46, 0
1, 222225, Note_off_c, 1, 76, 0
1, 222230, Note_on_c, 1, 74, 127
1, 222488, Note_off_c, 1, 74, 0
1, 222495, Note_on_c, 1, 75, 127
1, 223023, Note_on_c, 1, 71, 127
1, 223281, Note_off_c, 1, 75, 0
1, 223281, Note_off_c, 1, 71, 0
1, 223287, Note_on_c, 1, 78, 127
1, 223287, Note_on_c, 1, 70, 127
1, 223287, Note_on_c, 1, 58, 127
1, 223545, Note_off_c, 1, 78, 0
1, 223545, Note_off_c, 1, 70, 0
1, 223545, Note_off_c, 1, 58, 0
1, 223551, Note_on_c, 1, 77, 127
1, 223551, Note_on_c, 1, 68, 127
1, 223551, Note_on_c, 1, 59, 127
1, 223809, Note_off_c, 1, 77, 0
1, 223809, Note_off_c, 1, 68, 0
1, 223809, Note_off_c, 1, 59, 0
1, 223816, Note_on_c, 1, 75, 127
1, 223816, Note_on_c, 1, 66, 127
1, 223816, Note_on_c, 1, 56, 127
1, 224074, Note_off_c, 1, 75, 0
1, 224074, Note_off_c, 1, 66, 0
1, 224074, Note_off_c, 1, 56, 0
1, 224080, Note_on_c, 1, 65, 127
1, 224080, Note_on_c, 1, 74, 127
1, 224080, Note_on_c, 1, 58, 127
1, 224338, Note_off_c, 1, 65, 0
1, 224344, Note_on_c, 1, 77, 127
1, 224344, Note_on_c, 1, 63, 127
1, 224601, Note_off_c, 1, 74, 0
1, 224602, Note_off_c, 1, 77, 0
1, 224602, Note_off_c, 1, 63, 0
1, 224608, Note_on_c, 1, 62, 127
1, 224608, Note_on_c, 1, 82, 127
1, 224866, Note_off_c, 1, 58, 0
1, 224866, Note_off_c, 1, 62, 0
1, 224872, Note_on_c, 1, 56, 127
1, 225130, Note_off_c, 1, 56, 0
1, 225136, Note_on_c, 1, 54, 127
1, 225394, Note_off_c, 1, 82, 0
1, 225394, Note_off_c, 1, 54, 0
1, 225401, Note_on_c, 1, 83, 127
1, 225401, Note_on_c, 1, 68, 127
1, 225401, Note_on_c, 1, 56, 127
1, 225659, Note_off_c, 1, 83, 0
1, 225659, Note_off_c, 1, 68, 0
1, 225659, Note_off_c, 1, 56, 0
1, 225665, Note_on_c, 1, 82, 127
1, 225665, Note_on_c, 1, 66, 127
1, 225665, Note_on_c, 1, 58, 127
1, 225923, Note_off_c, 1, 82, 0
1, 225923, Note_off_c, 1, 66, 0
1, 225929, Note_on_c, 1, 80, 127
1, 225929, Note_on_c, 1, 65, 127
1, 226187, Note_off_c, 1, 58, 0
1, 226187, Note_off_c, 1, 80, 0
1, 226187, Note_off_c, 1, 65, 0
1, 226193, Note_on_c, 1, 78, 127
1, 226193, Note_on_c, 1, 51, 127
1, 226193, Note_on_c, 1, 63, 127
1, 226451, Note_off_c, 1, 78, 0
1, 226451, Note_off_c, 1, 51, 0
1, 226457, Note_on_c, 1, 80, 127
1, 226457, Note_on_c, 1, 53, 127
1, 226715, Note_off_c, 1, 63, 0
1, 226715, Note_off_c, 1, 80, 0
1, 226715, Note_off_c, 1, 53, 0
1, 226722, Note_on_c, 1, 75, 127
1, 226722, Note_on_c, 1, 82, 127
1, 226722, Note_on_c, 1, 55, 127
1, 226980, Note_off_c, 1, 75, 0
1, 226986, Note_on_c, 1, 73, 127
1, 227244, Note_off_c, 1, 82, 0
1, 227244, Note_off_c, 1, 55, 0
1, 227244, Note_off_c, 1, 73, 0
1, 227250, Note_on_c, 1, 71, 127
1, 227250, Note_on_c, 1, 56, 127
1, 227250, Note_on_c, 1, 75, 127
1, 227508, Note_off_c, 1, 71, 0
1, 227508, Note_off_c, 1, 56, 0
1, 227514, Note_on_c, 1, 70, 127
1, 227514, Note_on_c, 1, 54, 127
1, 227772, Note_off_c, 1, 75, 0
1, 227772, Note_off_c, 1, 70, 0
1, 227772, Note_off_c, 1, 54, 0
1, 227778, Note_on_c, 1, 68, 127
1, 227778, Note_on_c, 1, 53, 127
1, 227778, Note_on_c, 1, 80, 127
1, 228036, Note_off_c, 1, 68, 0
1, 228036, Note_off_c, 1, 53, 0
1, 228042, Note_on_c, 1, 71, 127
1, 228042, Note_on_c, 1, 51, 127
1, 228300, Note_off_c, 1, 71, 0
1, 228300, Note_off_c, 1, 51, 0
1, 228307, Note_on_c, 1, 70, 127
1, 228307, Note_on_c, 1, 50, 127
1, 228564, Note_off_c, 1, 80, 0
1, 228565, Note_off_c, 1, 70, 0
1, 228565, Note_off_c, 1, 50, 0
1, 228571, Note_on_c, 1, 78, 127
1, 228571, Note_on_c, 1, 51, 127
1, 228571, Note_on_c, 1, 75, 127
1, 228829, Note_off_c, 1, 78, 0
1, 228829, Note_off_c, 1, 51, 0
1, 228835, Note_on_c, 1, 46, 127
1, 228835, Note_on_c, 1, 77, 127
1, 229093, Note_off_c, 1, 75, 0
1, 229093, Note_off_c, 1, 46, 0
1, 229099, Note_on_c, 1, 58, 127
1, 229099, Note_on_c, 1, 73, 127
1, 229357, Note_off_c, 1, 77, 0
1, 229357, Note_off_c, 1, 58, 0
1, 229363, Note_on_c, 1, 59, 127
1, 229621, Note_off_c, 1, 73, 0
1, 229621, Note_off_c, 1, 59, 0
1, 229628, Note_on_c, 1, 71, 127
1, 229892, Note_on_c, 1, 53, 127
1, 230150, Note_off_c, 1, 71, 0
1, 230150, Note_off_c, 1, 53, 0
1, 230156, Note_on_c, 1, 55, 127
1, 230156, Note_on_c, 1, 70, 127
1, 230414, Note_off_c, 1, 55, 0
1, 230420, Note_on_c, 1, 56, 127
1, 230678, Note_off_c, 1, 70, 0
1, 230678, Note_off_c, 1, 56, 0
1, 230684, Note_on_c, 1, 68, 127
1, 230948, Note_on_c, 1, 50, 127
1, 231206, Note_off_c, 1, 68, 0
1, 231206, Note_off_c, 1, 50, 0
1, 231213, Note_on_c, 1, 66, 127
1, 231477, Note_on_c, 1, 48, 127
1, 231735, Note_off_c, 1, 66, 0
1, 231735, Note_off_c, 1, 48, 0
1, 231741, Note_on_c, 1, 65, 127
1, 232263, Note_off_c, 1, 65, 0
1, 232269, Note_on_c, 1, 63, 127
1, 232269, Note_on_c, 1, 39, 127
1, 232527, Note_off_c, 1, 63, 0
1, 232527, Note_off_c, 1, 39, 0
1, 232533, Note_on_c, 1, 62, 127
1, 232533, Note_on_c, 1, 65, 127
1, 232533, Note_on_c, 1, 46, 127
1, 232794, Note_off_c, 1, 62, 0
1, 232796, Note_off_c, 1, 65, 0
1, 233069, Note_on_c, 1, 70, 127
1, 233336, Note_on_c, 1, 72, 127
1, 233597, Note_off_c, 1, 46, 0
1, 233597, Note_off_c, 1, 72, 0
1, 233604, Note_on_c, 1, 74, 127
1, 233604, Note_on_c, 1, 58, 127
1, 233865, Note_off_c, 1, 70, 0
1, 233865, Note_off_c, 1, 74, 0
1, 233871, Note_on_c, 1, 75, 127
1, 233871, Note_on_c, 1, 71, 127
1, 234132, Note_off_c, 1, 75, 0
1, 234132, Note_off_c, 1, 71, 0
1, 234139, Note_on_c, 1, 77, 127
1, 234406, Note_on_c, 1, 68, 127
1, 234667, Note_off_c, 1, 68, 0
1, 234668, Note_off_c, 1, 58, 0
1, 234674, Note_on_c, 1, 66, 127
1, 234674, Note_on_c, 1, 63, 127
1, 234935, Note_off_c, 1, 77, 0
1, 234935, Note_off_c, 1, 66, 0
1, 235209, Note_on_c, 1, 73, 127
1, 235337, Note_off_c, 1, 73, 0
1, 235612, Note_on_c, 1, 79, 127
1, 235740, Note_off_c, 1, 79, 0
1, 235746, Note_on_c, 1, 80, 127
1, 235874, Note_off_c, 1, 80, 0
1, 235880, Note_on_c, 1, 82, 127
1, 236008, Note_off_c, 1, 82, 0
1, 236014, Note_on_c, 1, 83, 127
1, 236264, Note_off_c, 1, 63, 0
1, 236282, Note_on_c, 1, 64, 127
1, 236543, Note_off_c, 1, 83, 0
1, 236812, Note_off_c, 1, 64, 0
1, 237086, Note_on_c, 1, 67, 127
1, 237347, Note_off_c, 1, 67, 0
1, 237353, Note_on_c, 1, 77, 127
1, 237353, Note_on_c, 1, 65, 127
1, 237353, Note_on_c, 1, 61, 127
1, 237614, Note_off_c, 1, 77, 0
1, 237614, Note_off_c, 1, 65, 0
1, 237621, Note_on_c, 1, 79, 127
1, 237621, Note_on_c, 1, 64, 127
1, 237882, Note_off_c, 1, 61, 0
1, 237882, Note_off_c, 1, 79, 0
1, 237882, Note_off_c, 1, 64, 0
1, 237888, Note_on_c, 1, 63, 127
1, 237888, Note_on_c, 1, 59, 127
1, 237888, Note_on_c, 1, 80, 127
1, 238149, Note_off_c, 1, 63, 0
1, 238156, Note_on_c, 1, 71, 127
1, 238417, Note_off_c, 1, 59, 0
1, 238417, Note_off_c, 1, 71, 0
1, 238423, Note_on_c, 1, 70, 127
1, 238423, Note_on_c, 1, 61, 127
1, 238684, Note_off_c, 1, 70, 0
1, 238691, Note_on_c, 1, 68, 127
1, 238952, Note_off_c, 1, 80, 0
1, 238952, Note_off_c, 1, 61, 0
1, 238952, Note_off_c, 1, 68, 0
1, 238958, Note_on_c, 1, 67, 127
1, 238958, Note_on_c, 1, 63, 127
1, 238958, Note_on_c, 1, 82, 127
1, 239219, Note_off_c, 1, 67, 0
1, 239221, Note_off_c, 1, 63, 0
1, 239360, Note_on_c, 1, 65, 127
1, 239488, Note_off_c, 1, 82, 0
1, 239488, Note_off_c, 1, 65, 0
1, 239494, Note_on_c, 1, 75, 127
1, 239762, Note_on_c, 1, 68, 127
1, 239890, Note_off_c, 1, 68, 0
1, 239896, Note_on_c, 1, 70, 127
1, 240024, Note_off_c, 1, 70, 0
1, 240032, Note_on_c, 1, 71, 127
1, 240032, Note_on_c, 1, 56, 127
1, 240293, Note_off_c, 1, 75, 0
1, 240295, Note_off_c, 1, 71, 0
1, 240567, Note_on_c, 1, 73, 127
1, 240828, Note_off_c, 1, 73, 0
1, 241096, Note_off_c, 1, 56, 0
1, 241102, Note_on_c, 1, 76, 127
1, 241102, Note_on_c, 1, 68, 127
1, 241102, Note_on_c, 1, 61, 127
1, 241363, Note_off_c, 1, 76, 0
1, 241363, Note_off_c, 1, 68, 0
1, 241369, Note_on_c, 1, 75, 127
1, 241369, Note_on_c, 1, 67, 127
1, 241630, Note_off_c, 1, 75, 0
1, 241630, Note_off_c, 1, 67, 0
1, 241637, Note_on_c, 1, 73, 127
1, 241904, Note_on_c, 1, 70, 127
1, 242165, Note_off_c, 1, 70, 0
1, 242166, Note_off_c, 1, 73, 0
1, 242172, Note_on_c, 1, 63, 127
1, 242172, Note_on_c, 1, 80, 127
1, 242433, Note_off_c, 1, 63, 0
1, 242439, Note_on_c, 1, 65, 127
1, 242644, Note_off_c, 1, 80, 0
1, 242700, Note_off_c, 1, 65, 0
1, 242701, Note_off_c, 1, 61, 0
1, 242707, Note_on_c, 1, 67, 127
1, 242707, Note_on_c, 1, 59, 127
1, 242707, Note_on_c, 1, 75, 127
1, 242968, Note_off_c, 1, 67, 0
1, 242974, Note_on_c, 1, 68, 127
1, 243235, Note_off_c, 1, 68, 0
1, 243236, Note_off_c, 1, 59, 0
1, 243242, Note_on_c, 1, 70, 127
1, 243242, Note_on_c, 1, 58, 127
1, 243370, Note_off_c, 1, 70, 0
1, 243376, Note_on_c, 1, 71, 127
1, 243504, Note_off_c, 1, 71, 0
1, 243505, Note_off_c, 1, 75, 0
1, 243510, Note_on_c, 1, 77, 127
1, 243510, Note_on_c, 1, 73, 127
1, 243771, Note_off_c, 1, 77, 0
1, 243778, Note_on_c, 1, 79, 127
1, 244039, Note_off_c, 1, 73, 0
1, 244308, Note_off_c, 1, 58, 0
1, 244308, Note_off_c, 1, 79, 0
1, 244314, Note_on_c, 1, 80, 127
1, 244314, Note_on_c, 1, 56, 127
1, 244314, Note_on_c, 1, 71, 127
1, 244575, Note_off_c, 1, 80, 0
1, 244581, Note_on_c, 1, 82, 127
1, 244800, Note_off_c, 1, 56, 0
1, 244842, Note_off_c, 1, 71, 0
1, 244842, Note_off_c, 1, 82, 0
1, 244849, Note_on_c, 1, 80, 127
1, 244849, Note_on_c, 1, 61, 127
1, 245110, Note_off_c, 1, 80, 0
1, 245116, Note_on_c, 1, 78, 127
1, 245377, Note_off_c, 1, 78, 0
1, 245384, Note_on_c, 1, 77, 127
1, 245384, Note_on_c, 1, 68, 127
1, 245645, Note_off_c, 1, 61, 0
1, 245645, Note_off_c, 1, 77, 0
1, 245651, Note_on_c, 1, 63, 127
1, 245912, Note_off_c, 1, 63, 0
1, 246186, Note_on_c, 1, 59, 127
1, 246447, Note_off_c, 1, 59, 0
1, 246448, Note_off_c, 1, 68, 0
1, 246454, Note_on_c, 1, 58, 127
1, 246454, Note_on_c, 1, 73, 127
1, 246715, Note_off_c, 1, 58, 0
1, 247525, Note_on_c, 1, 82, 127
1, 247525, Note_on_c, 1, 54, 127
1, 247653, Note_off_c, 1, 82, 0
1, 248055, Note_off_c, 1, 73, 0
1, 248055, Note_off_c, 1, 54, 0
1, 248061, Note_on_c, 1, 75, 127
1, 248591, Note_off_c, 1, 75, 0
1, 249132, Note_on_c, 1, 71, 127
1, 249132, Note_on_c, 1, 56, 127
1, 249661, Note_off_c, 1, 71, 0
1, 249661, Note_off_c, 1, 56, 0
1, 249667, Note_on_c, 1, 78, 127
1, 249667, Note_on_c, 1, 54, 127
1, 249667, Note_on_c, 1, 70, 127
1, 249928, Note_off_c, 1, 78, 0
1, 249928, Note_off_c, 1, 54, 0
1, 249935, Note_on_c, 1, 73, 127
1, 249935, Note_on_c, 1, 52, 127
1, 250196, Note_off_c, 1, 70, 0
1, 250196, Note_off_c, 1, 73, 0
1, 250196, Note_off_c, 1, 52, 0
1, 250202, Note_on_c, 1, 51, 127
1, 250202, Note_on_c, 1, 71, 127
1, 250202, Note_on_c, 1, 78, 127
1, 250330, Note_off_c, 1, 51, 0
1, 250337, Note_on_c, 1, 49, 127
1, 250465, Note_off_c, 1, 49, 0
1, 250605, Note_on_c, 1, 52, 127
1, 250733, Note_off_c, 1, 71, 0
1, 250733, Note_off_c, 1, 52, 0
1, 250740, Note_on_c, 1, 46, 127
1, 250740, Note_on_c, 1, 73, 127
1, 251001, Note_off_c, 1, 78, 0
1, 251001, Note_off_c, 1, 46, 0
1, 251007, Note_on_c, 1, 80, 127
1, 251007, Note_on_c, 1, 42, 127
1, 251268, Note_off_c, 1, 80, 0
1, 251268, Note_off_c, 1, 42, 0
1, 251275, Note_on_c, 1, 44, 127
1, 251536, Note_off_c, 1, 44, 0
1, 251542, Note_on_c, 1, 76, 127
1, 251803, Note_off_c, 1, 76, 0
1, 251804, Note_off_c, 1, 73, 0
1, 251810, Note_on_c, 1, 75, 127
1, 251810, Note_on_c, 1, 47, 127
1, 251810, Note_on_c, 1, 66, 127
1, 252071, Note_off_c, 1, 75, 0
1, 252071, Note_off_c, 1, 47, 0
1, 252077, Note_on_c, 1, 76, 127
1, 252077, Note_on_c, 1, 49, 127
1, 252338, Note_off_c, 1, 76, 0
1, 252338, Note_off_c, 1, 49, 0
1, 252345, Note_on_c, 1, 51, 127
1, 252345, Note_on_c, 1, 78, 127
1, 252606, Note_off_c, 1, 51, 0
1, 252612, Note_on_c, 1, 52, 127
1, 252740, Note_off_c, 1, 52, 0
1, 252747, Note_on_c, 1, 54, 127
1, 252875, Note_off_c, 1, 66, 0
1, 252875, Note_off_c, 1, 54, 0
1, 252881, Note_on_c, 1, 56, 127
1, 252881, Note_on_c, 1, 71, 127
1, 253142, Note_off_c, 1, 56, 0
1, 253148, Note_on_c, 1, 58, 127
1, 253276, Note_off_c, 1, 58, 0
1, 253283, Note_on_c, 1, 59, 127
1, 253411, Note_off_c, 1, 78, 0
1, 253411, Note_off_c, 1, 59, 0
1, 253953, Note_on_c, 1, 42, 127
1, 254214, Note_off_c, 1, 42, 0
1, 254482, Note_off_c, 1, 71, 0
1, 254488, Note_on_c, 1, 73, 127
1, 254488, Note_on_c, 1, 70, 127
1, 254756, Note_on_c, 1, 55, 127
1, 255017, Note_off_c, 1, 73, 0
1, 255017, Note_off_c, 1, 70, 0
1, 255017, Note_off_c, 1, 55, 0
1, 255023, Note_on_c, 1, 56, 127
1, 255023, Note_on_c, 1, 71, 127
1, 255023, Note_on_c, 1, 68, 127
1, 255284, Note_off_c, 1, 56, 0
1, 255291, Note_on_c, 1, 55, 127
1, 255552, Note_off_c, 1, 71, 0
1, 255552, Note_off_c, 1, 55, 0
1, 255558, Note_on_c, 1, 76, 127
1, 255826, Note_on_c, 1, 58, 127
1, 256087, Note_off_c, 1, 68, 0
1, 256087, Note_off_c, 1, 58, 0
1, 256093, Note_on_c, 1, 59, 127
1, 256093, Note_on_c, 1, 66, 127
1, 256354, Note_off_c, 1, 76, 0
1, 256354, Note_off_c, 1, 59, 0
1, 256361, Note_on_c, 1, 74, 127
1, 256622, Note_off_c, 1, 66, 0
1, 256622, Note_off_c, 1, 74, 0
1, 256628, Note_on_c, 1, 56, 127
1, 256628, Note_on_c, 1, 71, 127
1, 256628, Note_on_c, 1, 75, 127
1, 256889, Note_off_c, 1, 56, 0
1, 256896, Note_on_c, 1, 54, 127
1, 257157, Note_off_c, 1, 54, 0
1, 257163, Note_on_c, 1, 53, 127
1, 257424, Note_off_c, 1, 71, 0
1, 257424, Note_off_c, 1, 53, 0
1, 257426, Note_off_c, 1, 75, 0
1, 257431, Note_on_c, 1, 75, 127
1, 257431, Note_on_c, 1, 54, 127
1, 257692, Note_off_c, 1, 75, 0
1, 257692, Note_off_c, 1, 54, 0
1, 257698, Note_on_c, 1, 73, 127
1, 257698, Note_on_c, 1, 53, 127
1, 257698, Note_on_c, 1, 80, 127
1, 257959, Note_off_c, 1, 73, 0
1, 257959, Note_off_c, 1, 53, 0
1, 257966, Note_on_c, 1, 71, 127
1, 257966, Note_on_c, 1, 51, 127
1, 258227, Note_off_c, 1, 71, 0
1, 258227, Note_off_c, 1, 51, 0
1, 258233, Note_on_c, 1, 70, 127
1, 258233, Note_on_c, 1, 50, 127
1, 258494, Note_off_c, 1, 80, 0
1, 258494, Note_off_c, 1, 70, 0
1, 258494, Note_off_c, 1, 50, 0
1, 258501, Note_on_c, 1, 62, 127
1, 258501, Note_on_c, 1, 80, 127
1, 258501, Note_on_c, 1, 71, 127
1, 258629, Note_off_c, 1, 62, 0
1, 258635, Note_on_c, 1, 63, 127
1, 258763, Note_off_c, 1, 63, 0
1, 258764, Note_off_c, 1, 80, 0
1, 258764, Note_off_c, 1, 71, 0
1, 258769, Note_on_c, 1, 79, 127
1, 258769, Note_on_c, 1, 64, 127
1, 258769, Note_on_c, 1, 73, 127
1, 259030, Note_off_c, 1, 79, 0
1, 259030, Note_off_c, 1, 64, 0
1, 259037, Note_on_c, 1, 58, 127
1, 259037, Note_on_c, 1, 78, 127
1, 259298, Note_off_c, 1, 73, 0
1, 259298, Note_off_c, 1, 58, 0
1, 259304, Note_on_c, 1, 59, 127
1, 259304, Note_on_c, 1, 68, 127
1, 259565, Note_off_c, 1, 59, 0
1, 259566, Note_off_c, 1, 78, 0
1, 259572, Note_on_c, 1, 60, 127
1, 259833, Note_off_c, 1, 68, 0
1, 259833, Note_off_c, 1, 60, 0
1, 259839, Note_on_c, 1, 77, 127
1, 259839, Note_on_c, 1, 61, 127
1, 259839, Note_on_c, 1, 73, 127
1, 260100, Note_off_c, 1, 77, 0
1, 260100, Note_off_c, 1, 61, 0
1, 260107, Note_on_c, 1, 76, 127
1, 260107, Note_on_c, 1, 58, 127
1, 260368, Note_off_c, 1, 76, 0
1, 260368, Note_off_c, 1, 58, 0
1, 260375, Note_on_c, 1, 55, 127
1, 260375, Note_on_c, 1, 75, 127
1, 260635, Note_off_c, 1, 73, 0
1, 260636, Note_off_c, 1, 55, 0
1, 260642, Note_on_c, 1, 71, 127
1, 260642, Note_on_c, 1, 56, 127
1, 260903, Note_off_c, 1, 71, 0
1, 260904, Note_off_c, 1, 75, 0
1, 260910, Note_on_c, 1, 70, 127
1, 261171, Note_off_c, 1, 56, 0
1, 261706, Note_off_c, 1, 70, 0
1, 261712, Note_on_c, 1, 63, 127
1, 261712, Note_on_c, 1, 54, 127
1, 261973, Note_off_c, 1, 63, 0
1, 261973, Note_off_c, 1, 54, 0
1, 261980, Note_on_c, 1, 52, 127
1, 261980, Note_on_c, 1, 68, 127
1, 262241, Note_off_c, 1, 52, 0
1, 262247, Note_on_c, 1, 51, 127
1, 262508, Note_off_c, 1, 51, 0
1, 262515, Note_on_c, 1, 49, 127
1, 262776, Note_off_c, 1, 68, 0
1, 262776, Note_off_c, 1, 49, 0
1, 262782, Note_on_c, 1, 50, 127
1, 263043, Note_off_c, 1, 50, 0
1, 263050, Note_on_c, 1, 66, 127
1, 263317, Note_on_c, 1, 78, 127
1, 263317, Note_on_c, 1, 46, 127
1, 263578, Note_off_c, 1, 78, 0
1, 263578, Note_off_c, 1, 46, 0
1, 263585, Note_on_c, 1, 47, 127
1, 263846, Note_off_c, 1, 66, 0
1, 263846, Note_off_c, 1, 47, 0
1, 263852, Note_on_c, 1, 48, 127
1, 264113, Note_off_c, 1, 48, 0
1, 264120, Note_on_c, 1, 64, 127
1, 264381, Note_off_c, 1, 64, 0
1, 264387, Note_on_c, 1, 44, 127
1, 264648, Note_off_c, 1, 44, 0
1, 264655, Note_on_c, 1, 62, 127
1, 265056, Note_on_c, 1, 65, 127
1, 265184, Note_off_c, 1, 65, 0
1, 265185, Note_off_c, 1, 62, 0
1, 265994, Note_on_c, 1, 53, 127
1, 266129, Note_on_c, 1, 60, 127
1, 266255, Note_off_c, 1, 53, 0
1, 266256, Note_off_c, 1, 60, 0
1, 267068, Note_on_c, 1, 59, 127
1, 267333, Note_off_c, 1, 59, 0
1, 267880, Note_on_c, 1, 54, 127
1, 267880, Note_on_c, 1, 70, 127
1, 267880, Note_on_c, 1, 82, 127
1, 268145, Note_off_c, 1, 54, 0
1, 268151, Note_on_c, 1, 56, 127
1, 268416, Note_off_c, 1, 56, 0
1, 268422, Note_on_c, 1, 58, 127
1, 268686, Note_off_c, 1, 70, 0
1, 268693, Note_on_c, 1, 68, 127
1, 268958, Note_off_c, 1, 58, 0
1, 268958, Note_off_c, 1, 68, 0
1, 268964, Note_on_c, 1, 51, 127
1, 268964, Note_on_c, 1, 66, 127
1, 269229, Note_off_c, 1, 51, 0
1, 269235, Note_on_c, 1, 53, 127
1, 269364, Note_off_c, 1, 53, 0
1, 269499, Note_off_c, 1, 82, 0
1, 269505, Note_on_c, 1, 83, 127
1, 269770, Note_off_c, 1, 66, 0
1, 270041, Note_off_c, 1, 83, 0
1, 270589, Note_on_c, 1, 80, 127
1, 270860, Note_on_c, 1, 62, 127
1, 271125, Note_off_c, 1, 80, 0
1, 271125, Note_off_c, 1, 62, 0
1, 271130, Note_on_c, 1, 78, 127
1, 271130, Note_on_c, 1, 63, 127
1, 271401, Note_on_c, 1, 65, 127
1, 271530, Note_off_c, 1, 65, 0
1, 271666, Note_off_c, 1, 78, 0
1, 271666, Note_off_c, 1, 63, 0
1, 271672, Note_on_c, 1, 65, 127
1, 271672, Note_on_c, 1, 80, 127
1, 271672, Note_on_c, 1, 68, 127
1, 271937, Note_off_c, 1, 65, 0
1, 271943, Note_on_c, 1, 63, 127
1, 272208, Note_off_c, 1, 80, 0
1, 272208, Note_off_c, 1, 63, 0
1, 272214, Note_on_c, 1, 62, 127
1, 272214, Note_on_c, 1, 82, 127
1, 272478, Note_off_c, 1, 68, 0
1, 272479, Note_off_c, 1, 62, 0
1, 272485, Note_on_c, 1, 66, 127
1, 272750, Note_off_c, 1, 66, 0
1, 273026, Note_on_c, 1, 61, 127
1, 273291, Note_off_c, 1, 82, 0
1, 273297, Note_on_c, 1, 67, 127
1, 273297, Note_on_c, 1, 75, 127
1, 273562, Note_off_c, 1, 61, 0
1, 273562, Note_off_c, 1, 67, 0
1, 273568, Note_on_c, 1, 58, 127
1, 273703, Note_on_c, 1, 64, 127
1, 273832, Note_off_c, 1, 64, 0
1, 273833, Note_off_c, 1, 58, 0
1, 274374, Note_off_c, 1, 75, 0
1, 274380, Note_on_c, 1, 59, 127
1, 274645, Note_off_c, 1, 59, 0
1, 275464, Note_on_c, 1, 56, 127
1, 275729, Note_off_c, 1, 56, 0
1, 275735, Note_on_c, 1, 54, 127
1, 276000, Note_off_c, 1, 54, 0
1, 276006, Note_on_c, 1, 52, 127
1, 276006, Note_on_c, 1, 78, 127
1, 276006, Note_on_c, 1, 63, 127
1, 276271, Note_off_c, 1, 52, 0
1, 276276, Note_on_c, 1, 51, 127
1, 276541, Note_off_c, 1, 51, 0
1, 276542, Note_off_c, 1, 78, 0
1, 276542, Note_off_c, 1, 63, 0
1, 276547, Note_on_c, 1, 56, 127
1, 276547, Note_on_c, 1, 49, 127
1, 276547, Note_on_c, 1, 76, 127
1, 276812, Note_off_c, 1, 56, 0
1, 276818, Note_on_c, 1, 61, 127
1, 276947, Note_off_c, 1, 61, 0
1, 276953, Note_on_c, 1, 59, 127
1, 277082, Note_off_c, 1, 59, 0
1, 277083, Note_off_c, 1, 49, 0
1, 277089, Note_on_c, 1, 58, 127
1, 277354, Note_off_c, 1, 58, 0
1, 277624, Note_off_c, 1, 76, 0
1, 277631, Note_on_c, 1, 55, 127
1, 277631, Note_on_c, 1, 75, 127
1, 277896, Note_off_c, 1, 55, 0
1, 278443, Note_on_c, 1, 54, 127
1, 278718, Note_off_c, 1, 54, 0
1, 278722, Note_off_c, 1, 75, 0
1, 278726, Note_on_c, 1, 56, 127
1, 278726, Note_on_c, 1, 53, 127
1, 279005, Note_on_c, 1, 71, 127
1, 279273, Note_off_c, 1, 71, 0
1, 279279, Note_on_c, 1, 68, 127
1, 279542, Note_off_c, 1, 56, 0
1, 279554, Note_on_c, 1, 58, 127
1, 279822, Note_off_c, 1, 58, 0
1, 279828, Note_on_c, 1, 59, 127
1, 280091, Note_off_c, 1, 53, 0
1, 280095, Note_off_c, 1, 68, 0
1, 280096, Note_off_c, 1, 59, 0
1, 280102, Note_on_c, 1, 54, 127
1, 280102, Note_on_c, 1, 58, 127
1, 280102, Note_on_c, 1, 70, 127
1, 280370, Note_off_c, 1, 54, 0
1, 280370, Note_off_c, 1, 58, 0
1, 280370, Note_off_c, 1, 70, 0
1, 280376, Note_on_c, 1, 53, 127
1, 280376, Note_on_c, 1, 56, 127
1, 280376, Note_on_c, 1, 71, 127
1, 280644, Note_off_c, 1, 53, 0
1, 280644, Note_off_c, 1, 56, 0
1, 280650, Note_on_c, 1, 51, 127
1, 280650, Note_on_c, 1, 54, 127
1, 280918, Note_off_c, 1, 51, 0
1, 280918, Note_off_c, 1, 54, 0
1, 280924, Note_on_c, 1, 50, 127
1, 281192, Note_off_c, 1, 71, 0
1, 281199, Note_on_c, 1, 68, 127
1, 281467, Note_off_c, 1, 68, 0
1, 281473, Note_on_c, 1, 65, 127
1, 282289, Note_off_c, 1, 50, 0
1, 282289, Note_off_c, 1, 65, 0
1, 282295, Note_on_c, 1, 51, 127
1, 282295, Note_on_c, 1, 54, 127
1, 282295, Note_on_c, 1, 66, 127
1, 282563, Note_off_c, 1, 51, 0
1, 282563, Note_off_c, 1, 54, 0
1, 282563, Note_off_c, 1, 66, 0
1, 282569, Note_on_c, 1, 50, 127
1, 282569, Note_on_c, 1, 53, 127
1, 282569, Note_on_c, 1, 68, 127
1, 282837, Note_off_c, 1, 50, 0
1, 282837, Note_off_c, 1, 53, 0
1, 282844, Note_on_c, 1, 48, 127
1, 282844, Note_on_c, 1, 51, 127
1, 283112, Note_off_c, 1, 48, 0
1, 283112, Note_off_c, 1, 51, 0
1, 283118, Note_on_c, 1, 46, 127
1, 283385, Note_off_c, 1, 68, 0
1, 283392, Note_on_c, 1, 65, 127
1, 283660, Note_off_c, 1, 65, 0
1, 283666, Note_on_c, 1, 62, 127
1, 284486, Note_off_c, 1, 46, 0
1, 284486, Note_off_c, 1, 62, 0
1, 284492, Note_on_c, 1, 44, 127
1, 284763, Note_off_c, 1, 44, 0
1, 284769, Note_on_c, 1, 42, 127
1, 284769, Note_on_c, 1, 54, 127
1, 284769, Note_on_c, 1, 63, 127
1, 285040, Note_off_c, 1, 42, 0
1, 285040, Note_off_c, 1, 54, 0
1, 285040, Note_off_c, 1, 63, 0
1, 285047, Note_on_c, 1, 41, 127
1, 285047, Note_on_c, 1, 56, 127
1, 285047, Note_on_c, 1, 65, 127
1, 285318, Note_off_c, 1, 41, 0
1, 285318, Note_off_c, 1, 56, 0
1, 285318, Note_off_c, 1, 65, 0
1, 285324, Note_on_c, 1, 39, 127
1, 285324, Note_on_c, 1, 58, 127
1, 285324, Note_on_c, 1, 66, 127
1, 285605, Note_off_c, 1, 39, 0
1, 285605, Note_off_c, 1, 58, 0
1, 285605, Note_off_c, 1, 66, 0
1, 285612, Note_on_c, 1, 49, 127
1, 285612, Note_on_c, 1, 58, 127
1, 285612, Note_on_c, 1, 67, 127
1, 285893, Note_off_c, 1, 49, 0
1, 285893, Note_off_c, 1, 58, 0
1, 285893, Note_off_c, 1, 67, 0
1, 285899, Note_on_c, 1, 47, 127
1, 285899, Note_on_c, 1, 59, 127
1, 285899, Note_on_c, 1, 68, 127
1, 286180, Note_off_c, 1, 47, 0
1, 286180, Note_off_c, 1, 59, 0
1, 286180, Note_off_c, 1, 68, 0
1, 286187, Note_on_c, 1, 46, 127
1, 286187, Note_on_c, 1, 61, 127
1, 286187, Note_on_c, 1, 70, 127
1, 286468, Note_off_c, 1, 46, 0
1, 286468, Note_off_c, 1, 61, 0
1, 286468, Note_off_c, 1, 70, 0
1, 286474, Note_on_c, 1, 44, 127
1, 286474, Note_on_c, 1, 63, 127
1, 286474, Note_on_c, 1, 71, 127
1, 286767, Note_off_c, 1, 44, 0
1, 286767, Note_off_c, 1, 63, 0
1, 286767, Note_off_c, 1, 71, 0
1, 286774, Note_on_c, 1, 54, 127
1, 286774, Note_on_c, 1, 63, 127
1, 286774, Note_on_c, 1, 72, 127
1, 287067, Note_off_c, 1, 54, 0
1, 287067, Note_off_c, 1, 63, 0
1, 287067, Note_off_c, 1, 72, 0
1, 287074, Note_on_c, 1, 53, 127
1, 287074, Note_on_c, 1, 65, 127
1, 287074, Note_on_c, 1, 74, 127
1, 287367, Note_off_c, 1, 53, 0
1, 287367, Note_off_c, 1, 65, 0
1, 287367, Note_off_c, 1, 74, 0
1, 287373, Note_on_c, 1, 51, 127
1, 287373, Note_on_c, 1, 66, 127
1, 287373, Note_on_c, 1, 75, 127
1, 287666, Note_off_c, 1, 51, 0
1, 287666, Note_off_c, 1, 66, 0
1, 287666, Note_off_c, 1, 75, 0
1, 287673, Note_on_c, 1, 65, 127
1, 287673, Note_on_c, 1, 75, 127
1, 287673, Note_on_c, 1, 58, 127
1, 288027, Note_on_c, 1, 71, 127
1, 288372, Note_off_c, 1, 65, 0
1, 288374, Note_off_c, 1, 75, 0
1, 288374, Note_off_c, 1, 71, 0
1, 288382, Note_on_c, 1, 70, 127
1, 288382, Note_on_c, 1, 46, 127
1, 288382, Note_on_c, 1, 74, 127
1, 288728, Note_off_c, 1, 70, 0
1, 288737, Note_on_c, 1, 68, 127
1, 289018, Note_off_c, 1, 58, 0
1, 289082, Note_off_c, 1, 46, 0
1, 289082, Note_off_c, 1, 74, 0
1, 289083, Note_off_c, 1, 68, 0
1, 289108, Note_on_c, 1, 39, 127
1, 289108, Note_on_c, 1, 67, 127
1, 289108, Note_on_c, 1, 75, 127
1, 292453, Note_off_c, 1, 39, 0
1, 292453, Note_off_c, 1, 67, 0
1, 292453, Note_off_c, 1, 75, 0
1, 292453, End_track
0, 0, End_of_file