0, 0, Header, 1, 1, 480
1, 0, Start_track
1, 0, Title_t, "Test"
1, 0, Tempo, 500000
1, 0, Instrument_name_t, "Church Organ"
1, 64, Note_on_c, 1, 69, 127
1, 64, Note_on_c, 1, 45, 127
1, 252, Note_off_c, 1, 69, 0
1, 254, Note_on_c, 1, 71, 127
1, 442, Note_off_c, 1, 71, 0
1, 444, Note_on_c, 1, 73, 127
1, 632, Note_off_c, 1, 73, 0
1, 822, Note_off_c, 1, 45, 0
1, 824, Note_on_c, 1, 78, 127
1, 824, Note_on_c, 1, 57, 127
1, 1202, Note_off_c, 1, 78, 0
1, 1582, Note_off_c, 1, 57, 0
1, 1584, Note_on_c, 1, 78, 127
1, 1584, Note_on_c, 1, 56, 127
1, 1772, Note_off_c, 1, 78, 0
1, 1774, Note_on_c, 1, 75, 127
1, 1962, Note_off_c, 1, 75, 0
1, 1964, Note_on_c, 1, 76, 127
1, 2342, Note_off_c, 1, 56, 0
1, 2344, Note_on_c, 1, 55, 127
1, 2498, Note_off_c, 1, 76, 0
1, 2725, Note_on_c, 1, 64, 127
1, 2915, Note_on_c, 1, 79, 127
1, 3102, Note_off_c, 1, 55, 0
1, 3103, Note_off_c, 1, 79, 0
1, 3105, Note_on_c, 1, 81, 127
1, 3105, Note_on_c, 1, 54, 127
1, 3293, Note_off_c, 1, 81, 0
1, 3483, Note_off_c, 1, 64, 0
1, 3485, Note_on_c, 1, 57, 127
1, 3861, Note_off_c, 1, 57, 0
1, 3863, Note_off_c, 1, 54, 0
1, 3865, Note_on_c, 1, 74, 127
1, 3865, Note_on_c, 1, 59, 127
1, 4053, Note_off_c, 1, 74, 0
1, 4055, Note_on_c, 1, 73, 127
1, 4243, Note_off_c, 1, 73, 0
1, 4245, Note_on_c, 1, 71, 127
1, 4245, Note_on_c, 1, 62, 127
1, 4433, Note_off_c, 1, 71, 0
1, 4435, Note_on_c, 1, 81, 127
1, 4623, Note_off_c, 1, 59, 0
1, 4623, Note_off_c, 1, 81, 0
1, 4625, Note_on_c, 1, 80, 127
1, 4625, Note_on_c, 1, 52, 127
1, 4813, Note_off_c, 1, 80, 0
1, 4816, Note_on_c, 1, 78, 127
1, 5003, Note_off_c, 1, 62, 0
1, 5004, Note_off_c, 1, 78, 0
1, 5006, Note_on_c, 1, 76, 127
1, 5006, Note_on_c, 1, 56, 127
1, 5194, Note_off_c, 1, 76, 0
1, 5382, Note_off_c, 1, 56, 0
1, 5383, Note_off_c, 1, 52, 0
1, 5386, Note_on_c, 1, 73, 127
1, 5386, Note_on_c, 1, 57, 127
1, 5574, Note_off_c, 1, 73, 0
1, 5576, Note_on_c, 1, 71, 127
1, 5764, Note_off_c, 1, 71, 0
1, 5766, Note_on_c, 1, 69, 127
1, 5766, Note_on_c, 1, 61, 127
1, 5954, Note_off_c, 1, 69, 0
1, 5956, Note_on_c, 1, 79, 127
1, 6144, Note_off_c, 1, 57, 0
1, 6144, Note_off_c, 1, 79, 0
1, 6146, Note_on_c, 1, 78, 127
1, 6146, Note_on_c, 1, 50, 127
1, 6334, Note_off_c, 1, 78, 0
1, 6336, Note_on_c, 1, 76, 127
1, 6524, Note_off_c, 1, 61, 0
1, 6524, Note_off_c, 1, 76, 0
1, 6526, Note_on_c, 1, 59, 127
1, 6526, Note_on_c, 1, 74, 127
1, 6714, Note_off_c, 1, 59, 0
1, 6714, Note_off_c, 1, 74, 0
1, 6904, Note_off_c, 1, 50, 0
1, 6906, Note_on_c, 1, 57, 127
1, 6906, Note_on_c, 1, 71, 127
1, 6906, Note_on_c, 1, 52, 127
1, 6990, Note_on_c, 1, 56, 127
1, 6997, Note_off_c, 1, 57, 0
1, 7081, Note_off_c, 1, 56, 0
1, 7094, Note_off_c, 1, 71, 0
1, 7096, Note_on_c, 1, 78, 127
1, 7284, Note_off_c, 1, 78, 0
1, 7287, Note_on_c, 1, 76, 127
1, 7475, Note_off_c, 1, 76, 0
1, 7477, Note_on_c, 1, 74, 127
1, 7664, Note_off_c, 1, 52, 0
1, 7665, Note_off_c, 1, 74, 0
1, 7667, Note_on_c, 1, 73, 127
1, 7667, Note_on_c, 1, 57, 127
1, 7667, Note_on_c, 1, 45, 127
1, 7855, Note_off_c, 1, 73, 0
1, 7857, Note_on_c, 1, 71, 127
1, 8043, Note_off_c, 1, 57, 0
1, 8045, Note_off_c, 1, 45, 0
1, 8045, Note_off_c, 1, 71, 0
1, 8047, Note_on_c, 1, 69, 127
1, 8047, Note_on_c, 1, 57, 127
1, 8235, Note_off_c, 1, 69, 0
1, 8237, Note_on_c, 1, 71, 127
1, 8425, Note_off_c, 1, 57, 0
1, 8425, Note_off_c, 1, 71, 0
1, 8427, Note_on_c, 1, 73, 127
1, 8427, Note_on_c, 1, 56, 127
1, 8615, Note_off_c, 1, 73, 0
1, 8617, Note_on_c, 1, 75, 127
1, 8805, Note_off_c, 1, 56, 0
1, 8805, Note_off_c, 1, 75, 0
1, 8807, Note_on_c, 1, 76, 127
1, 8807, Note_on_c, 1, 54, 127
1, 8995, Note_off_c, 1, 76, 0
1, 8997, Note_on_c, 1, 78, 127
1, 9185, Note_off_c, 1, 54, 0
1, 9185, Note_off_c, 1, 78, 0
1, 9187, Note_on_c, 1, 52, 127
1, 9187, Note_on_c, 1, 80, 127
1, 9375, Note_off_c, 1, 52, 0
1, 9375, Note_off_c, 1, 80, 0
1, 9377, Note_on_c, 1, 54, 127
1, 9377, Note_on_c, 1, 81, 127
1, 9565, Note_off_c, 1, 54, 0
1, 9565, Note_off_c, 1, 81, 0
1, 9568, Note_on_c, 1, 56, 127
1, 9568, Note_on_c, 1, 83, 127
1, 9756, Note_off_c, 1, 56, 0
1, 9756, Note_off_c, 1, 83, 0
1, 9758, Note_on_c, 1, 52, 127
1, 9758, Note_on_c, 1, 80, 127
1, 9946, Note_off_c, 1, 52, 0
1, 9946, Note_off_c, 1, 80, 0
1, 9948, Note_on_c, 1, 61, 127
1, 9948, Note_on_c, 1, 76, 127
1, 10138, Note_on_c, 1, 78, 127
1, 10326, Note_off_c, 1, 61, 0
1, 10326, Note_off_c, 1, 78, 0
1, 10328, Note_on_c, 1, 80, 127
1, 10502, Note_off_c, 1, 76, 0
1, 10516, Note_off_c, 1, 80, 0
1, 10708, Note_on_c, 1, 61, 127
1, 10708, Note_on_c, 1, 78, 127
1, 10708, Note_on_c, 1, 75, 127
1, 10896, Note_off_c, 1, 61, 0
1, 10896, Note_off_c, 1, 78, 0
1, 10898, Note_on_c, 1, 58, 127
1, 10898, Note_on_c, 1, 80, 127
1, 11086, Note_off_c, 1, 58, 0
1, 11086, Note_off_c, 1, 80, 0
1, 11088, Note_on_c, 1, 81, 127
1, 11088, Note_on_c, 1, 59, 127
1, 11276, Note_off_c, 1, 81, 0
1, 11466, Note_off_c, 1, 75, 0
1, 11468, Note_on_c, 1, 71, 127
1, 11468, Note_on_c, 1, 74, 127
1, 11656, Note_off_c, 1, 59, 0
1, 11846, Note_off_c, 1, 71, 0
1, 11848, Note_on_c, 1, 83, 127
1, 12039, Note_on_c, 1, 62, 127
1, 12226, Note_off_c, 1, 74, 0
1, 12227, Note_off_c, 1, 62, 0
1, 12229, Note_on_c, 1, 64, 127
1, 12229, Note_on_c, 1, 73, 127
1, 12417, Note_off_c, 1, 64, 0
1, 12606, Note_off_c, 1, 83, 0
1, 12609, Note_on_c, 1, 76, 127
1, 12985, Note_off_c, 1, 76, 0
1, 12987, Note_off_c, 1, 73, 0
1, 12989, Note_on_c, 1, 57, 127
1, 12989, Note_on_c, 1, 78, 127
1, 13177, Note_off_c, 1, 57, 0
1, 13179, Note_on_c, 1, 56, 127
1, 13367, Note_off_c, 1, 56, 0
1, 13369, Note_on_c, 1, 54, 127
1, 13369, Note_on_c, 1, 81, 127
1, 13557, Note_off_c, 1, 54, 0
1, 13559, Note_on_c, 1, 64, 127
1, 13747, Note_off_c, 1, 78, 0
1, 13747, Note_off_c, 1, 64, 0
1, 13749, Note_on_c, 1, 63, 127
1, 13749, Note_on_c, 1, 71, 127
1, 13937, Note_off_c, 1, 63, 0
1, 13939, Note_on_c, 1, 61, 127
1, 14127, Note_off_c, 1, 81, 0
1, 14127, Note_off_c, 1, 61, 0
1, 14129, Note_on_c, 1, 59, 127
1, 14129, Note_on_c, 1, 75, 127
1, 14317, Note_off_c, 1, 59, 0
1, 14505, Note_off_c, 1, 75, 0
1, 14507, Note_off_c, 1, 71, 0
1, 14510, Note_on_c, 1, 56, 127
1, 14510, Note_on_c, 1, 76, 127
1, 14698, Note_off_c, 1, 56, 0
1, 14700, Note_on_c, 1, 54, 127
1, 14888, Note_off_c, 1, 54, 0
1, 14890, Note_on_c, 1, 52, 127
1, 14890, Note_on_c, 1, 80, 127
1, 15078, Note_off_c, 1, 52, 0
1, 15080, Note_on_c, 1, 62, 127
1, 15268, Note_off_c, 1, 80, 0
1, 15268, Note_off_c, 1, 62, 0
1, 15270, Note_on_c, 1, 61, 127
1, 15270, Note_on_c, 1, 81, 127
1, 15458, Note_off_c, 1, 61, 0
1, 15458, Note_off_c, 1, 81, 0
1, 15460, Note_on_c, 1, 59, 127
1, 15648, Note_off_c, 1, 59, 0
1, 15650, Note_on_c, 1, 57, 127
1, 15650, Note_on_c, 1, 78, 127
1, 15838, Note_off_c, 1, 57, 0
1, 15838, Note_off_c, 1, 78, 0
1, 16028, Note_off_c, 1, 76, 0
1, 16030, Note_on_c, 1, 75, 127
1, 16703, Note_off_c, 1, 75, 0
1, 16791, Note_on_c, 1, 56, 127
1, 16791, Note_on_c, 1, 76, 127
1, 16979, Note_off_c, 1, 56, 0
1, 16981, Note_on_c, 1, 54, 127
1, 17169, Note_off_c, 1, 54, 0
1, 17171, Note_on_c, 1, 52, 127
1, 17171, Note_on_c, 1, 71, 127
1, 17359, Note_off_c, 1, 52, 0
1, 17543, Note_off_c, 1, 76, 0
1, 17549, Note_off_c, 1, 71, 0
1, 17551, Note_on_c, 1, 56, 127
1, 17551, Note_on_c, 1, 76, 127
1, 17739, Note_off_c, 1, 56, 0
1, 17741, Note_on_c, 1, 57, 127
1, 17929, Note_off_c, 1, 76, 0
1, 17929, Note_off_c, 1, 57, 0
1, 17931, Note_on_c, 1, 59, 127
1, 17931, Note_on_c, 1, 76, 127
1, 17931, Note_on_c, 1, 79, 127
1, 18119, Note_off_c, 1, 59, 0
1, 18121, Note_on_c, 1, 61, 127
1, 18309, Note_off_c, 1, 76, 0
1, 18309, Note_off_c, 1, 79, 0
1, 18309, Note_off_c, 1, 61, 0
1, 18311, Note_on_c, 1, 62, 127
1, 18311, Note_on_c, 1, 76, 127
1, 18311, Note_on_c, 1, 79, 127
1, 18499, Note_off_c, 1, 62, 0
1, 18501, Note_on_c, 1, 64, 127
1, 18689, Note_off_c, 1, 76, 0
1, 18689, Note_off_c, 1, 79, 0
1, 18689, Note_off_c, 1, 64, 0
1, 18691, Note_on_c, 1, 66, 127
1, 18691, Note_on_c, 1, 78, 127
1, 18691, Note_on_c, 1, 74, 127
1, 18879, Note_off_c, 1, 66, 0
1, 18881, Note_on_c, 1, 62, 127
1, 19069, Note_off_c, 1, 62, 0
1, 19072, Note_on_c, 1, 59, 127
1, 19260, Note_off_c, 1, 59, 0
1, 19262, Note_on_c, 1, 61, 127
1, 19364, Note_off_c, 1, 78, 0
1, 19449, Note_off_c, 1, 74, 0
1, 19450, Note_off_c, 1, 61, 0
1, 19452, Note_on_c, 1, 62, 127
1, 19452, Note_on_c, 1, 74, 127
1, 19452, Note_on_c, 1, 78, 127
1, 19640, Note_off_c, 1, 62, 0
1, 19642, Note_on_c, 1, 59, 127
1, 19830, Note_off_c, 1, 74, 0
1, 19830, Note_off_c, 1, 78, 0
1, 19830, Note_off_c, 1, 59, 0
1, 19832, Note_on_c, 1, 61, 127
1, 19832, Note_on_c, 1, 74, 127
1, 19832, Note_on_c, 1, 78, 127
1, 20020, Note_off_c, 1, 61, 0
1, 20022, Note_on_c, 1, 62, 127
1, 20210, Note_off_c, 1, 74, 0
1, 20210, Note_off_c, 1, 78, 0
1, 20210, Note_off_c, 1, 62, 0
1, 20212, Note_on_c, 1, 64, 127
1, 20212, Note_on_c, 1, 76, 127
1, 20212, Note_on_c, 1, 73, 127
1, 20400, Note_off_c, 1, 64, 0
1, 20402, Note_on_c, 1, 61, 127
1, 20590, Note_off_c, 1, 61, 0
1, 20592, Note_on_c, 1, 57, 127
1, 20780, Note_off_c, 1, 57, 0
1, 20782, Note_on_c, 1, 59, 127
1, 20885, Note_off_c, 1, 76, 0
1, 20970, Note_off_c, 1, 73, 0
1, 20970, Note_off_c, 1, 59, 0
1, 20972, Note_on_c, 1, 61, 127
1, 20972, Note_on_c, 1, 73, 127
1, 20972, Note_on_c, 1, 76, 127
1, 21160, Note_off_c, 1, 61, 0
1, 21162, Note_on_c, 1, 57, 127
1, 21350, Note_off_c, 1, 73, 0
1, 21350, Note_off_c, 1, 76, 0
1, 21350, Note_off_c, 1, 57, 0
1, 21352, Note_on_c, 1, 59, 127
1, 21352, Note_on_c, 1, 73, 127
1, 21352, Note_on_c, 1, 76, 127
1, 21540, Note_off_c, 1, 59, 0
1, 21543, Note_on_c, 1, 61, 127
1, 21730, Note_off_c, 1, 73, 0
1, 21730, Note_off_c, 1, 76, 0
1, 21731, Note_off_c, 1, 61, 0
1, 21733, Note_on_c, 1, 62, 127
1, 21733, Note_on_c, 1, 74, 127
1, 21733, Note_on_c, 1, 71, 127
1, 21921, Note_off_c, 1, 62, 0
1, 21923, Note_on_c, 1, 59, 127
1, 22111, Note_off_c, 1, 59, 0
1, 22113, Note_on_c, 1, 56, 127
1, 22301, Note_off_c, 1, 56, 0
1, 22303, Note_on_c, 1, 57, 127
1, 22406, Note_off_c, 1, 74, 0
1, 22491, Note_off_c, 1, 57, 0
1, 22871, Note_off_c, 1, 71, 0
1, 22873, Note_on_c, 1, 74, 127
1, 22873, Note_on_c, 1, 57, 127
1, 23063, Note_on_c, 1, 59, 127
1, 23251, Note_off_c, 1, 74, 0
1, 23251, Note_off_c, 1, 59, 0
1, 23253, Note_on_c, 1, 61, 127
1, 23253, Note_on_c, 1, 73, 127
1, 23427, Note_off_c, 1, 57, 0
1, 23441, Note_off_c, 1, 61, 0
1, 23631, Note_off_c, 1, 73, 0
1, 23633, Note_on_c, 1, 66, 127
1, 23633, Note_on_c, 1, 81, 127
1, 24011, Note_off_c, 1, 66, 0
1, 24204, Note_on_c, 1, 54, 127
1, 24391, Note_off_c, 1, 81, 0
1, 24392, Note_off_c, 1, 54, 0
1, 24394, Note_on_c, 1, 66, 127
1, 24394, Note_on_c, 1, 61, 127
1, 24394, Note_on_c, 1, 80, 127
1, 24582, Note_off_c, 1, 66, 0
1, 24584, Note_on_c, 1, 63, 127
1, 24772, Note_off_c, 1, 63, 0
1, 24774, Note_on_c, 1, 64, 127
1, 25146, Note_off_c, 1, 61, 0
1, 25152, Note_off_c, 1, 80, 0
1, 25154, Note_on_c, 1, 79, 127
1, 25342, Note_off_c, 1, 64, 0
1, 25724, Note_on_c, 1, 67, 127
1, 25912, Note_off_c, 1, 79, 0
1, 25912, Note_off_c, 1, 67, 0
1, 25914, Note_on_c, 1, 69, 127
1, 25914, Note_on_c, 1, 78, 127
1, 26102, Note_off_c, 1, 69, 0
1, 26295, Note_on_c, 1, 57, 127
1, 26671, Note_off_c, 1, 57, 0
1, 26672, Note_off_c, 1, 78, 0
1, 26675, Note_on_c, 1, 62, 127
1, 26675, Note_on_c, 1, 83, 127
1, 26863, Note_off_c, 1, 62, 0
1, 26865, Note_on_c, 1, 61, 127
1, 27053, Note_off_c, 1, 61, 0
1, 27055, Note_on_c, 1, 59, 127
1, 27243, Note_off_c, 1, 59, 0
1, 27245, Note_on_c, 1, 69, 127
1, 27433, Note_off_c, 1, 83, 0
1, 27433, Note_off_c, 1, 69, 0
1, 27435, Note_on_c, 1, 68, 127
1, 27435, Note_on_c, 1, 76, 127
1, 27623, Note_off_c, 1, 68, 0
1, 27625, Note_on_c, 1, 66, 127
1, 27813, Note_off_c, 1, 66, 0
1, 27815, Note_on_c, 1, 64, 127
1, 27815, Note_on_c, 1, 56, 127
1, 28003, Note_off_c, 1, 64, 0
1, 28191, Note_off_c, 1, 56, 0
1, 28193, Note_off_c, 1, 76, 0
1, 28195, Note_on_c, 1, 61, 127
1, 28195, Note_on_c, 1, 81, 127
1, 28383, Note_off_c, 1, 61, 0
1, 28385, Note_on_c, 1, 59, 127
1, 28573, Note_off_c, 1, 59, 0
1, 28576, Note_on_c, 1, 57, 127
1, 28764, Note_off_c, 1, 57, 0
1, 28766, Note_on_c, 1, 67, 127
1, 28954, Note_off_c, 1, 67, 0
1, 28956, Note_on_c, 1, 66, 127
1, 28956, Note_on_c, 1, 62, 127
1, 29144, Note_off_c, 1, 66, 0
1, 29146, Note_on_c, 1, 64, 127
1, 29334, Note_off_c, 1, 62, 0
1, 29334, Note_off_c, 1, 64, 0
1, 29713, Note_off_c, 1, 81, 0
1, 29716, Note_on_c, 1, 59, 127
1, 29716, Note_on_c, 1, 80, 127
1, 29906, Note_on_c, 1, 66, 127
1, 30092, Note_off_c, 1, 59, 0
1, 30094, Note_off_c, 1, 66, 0
1, 30096, Note_on_c, 1, 64, 127
1, 30096, Note_on_c, 1, 52, 127
1, 30284, Note_off_c, 1, 64, 0
1, 30286, Note_on_c, 1, 62, 127
1, 30474, Note_off_c, 1, 52, 0
1, 30474, Note_off_c, 1, 62, 0
1, 30476, Note_on_c, 1, 57, 127
1, 30476, Note_on_c, 1, 61, 127
1, 30664, Note_off_c, 1, 80, 0
1, 30666, Note_on_c, 1, 78, 127
1, 30854, Note_off_c, 1, 57, 0
1, 30854, Note_off_c, 1, 78, 0
1, 30856, Note_on_c, 1, 77, 127
1, 30856, Note_on_c, 1, 56, 127
1, 31044, Note_off_c, 1, 77, 0
1, 31228, Note_off_c, 1, 61, 0
1, 31234, Note_off_c, 1, 56, 0
1, 31237, Note_on_c, 1, 57, 127
1, 31237, Note_on_c, 1, 78, 127
1, 31427, Note_on_c, 1, 76, 127
1, 31615, Note_off_c, 1, 57, 0
1, 31615, Note_off_c, 1, 76, 0
1, 31617, Note_on_c, 1, 74, 127
1, 31617, Note_on_c, 1, 54, 127
1, 31805, Note_off_c, 1, 74, 0
1, 31807, Note_on_c, 1, 73, 127
1, 31995, Note_off_c, 1, 54, 0
1, 31995, Note_off_c, 1, 73, 0
1, 31997, Note_on_c, 1, 71, 127
1, 31997, Note_on_c, 1, 56, 127
1, 32185, Note_off_c, 1, 71, 0
1, 32187, Note_on_c, 1, 69, 127
1, 32375, Note_off_c, 1, 56, 0
1, 32375, Note_off_c, 1, 69, 0
1, 32377, Note_on_c, 1, 68, 127
1, 32377, Note_on_c, 1, 59, 127
1, 32565, Note_off_c, 1, 68, 0
1, 32755, Note_off_c, 1, 78, 0
1, 32755, Note_off_c, 1, 59, 0
1, 32757, Note_on_c, 1, 61, 127
1, 32757, Note_on_c, 1, 77, 127
1, 33137, Note_on_c, 1, 49, 127
1, 33509, Note_off_c, 1, 61, 0
1, 33515, Note_off_c, 1, 77, 0
1, 33515, Note_off_c, 1, 49, 0
1, 33526, Note_on_c, 1, 78, 127
1, 33526, Note_on_c, 1, 54, 127
1, 33526, Note_on_c, 1, 69, 127
1, 33714, Note_off_c, 1, 78, 0
1, 33716, Note_on_c, 1, 80, 127
1, 33904, Note_off_c, 1, 54, 0
1, 33904, Note_off_c, 1, 80, 0
1, 33906, Note_on_c, 1, 81, 127
1, 33906, Note_on_c, 1, 42, 127
1, 34094, Note_off_c, 1, 81, 0
1, 34284, Note_off_c, 1, 42, 0
1, 34286, Note_on_c, 1, 74, 127
1, 34474, Note_off_c, 1, 69, 0
1, 34476, Note_on_c, 1, 73, 127
1, 34664, Note_off_c, 1, 74, 0
1, 34664, Note_off_c, 1, 73, 0
1, 34666, Note_on_c, 1, 71, 127
1, 34854, Note_off_c, 1, 71, 0
1, 35046, Note_on_c, 1, 74, 127
1, 35046, Note_on_c, 1, 68, 127
1, 35046, Note_on_c, 1, 53, 127
1, 35234, Note_off_c, 1, 74, 0
1, 35236, Note_on_c, 1, 72, 127
1, 35424, Note_off_c, 1, 72, 0
1, 35426, Note_on_c, 1, 73, 127
1, 35614, Note_off_c, 1, 68, 0
1, 35616, Note_on_c, 1, 56, 127
1, 35804, Note_off_c, 1, 53, 0
1, 35804, Note_off_c, 1, 56, 0
1, 35807, Note_on_c, 1, 52, 127
1, 35807, Note_on_c, 1, 61, 127
1, 35901, Note_off_c, 1, 73, 0
1, 36187, Note_on_c, 1, 75, 127
1, 36375, Note_off_c, 1, 75, 0
1, 36377, Note_on_c, 1, 76, 127
1, 36565, Note_off_c, 1, 52, 0
1, 36565, Note_off_c, 1, 76, 0
1, 36567, Note_on_c, 1, 78, 127
1, 36567, Note_on_c, 1, 51, 127
1, 36755, Note_off_c, 1, 78, 0
1, 36945, Note_off_c, 1, 61, 0
1, 36947, Note_on_c, 1, 54, 127
1, 37323, Note_off_c, 1, 54, 0
1, 37325, Note_off_c, 1, 51, 0
1, 37327, Note_on_c, 1, 71, 127
1, 37327, Note_on_c, 1, 56, 127
1, 37515, Note_off_c, 1, 71, 0
1, 37517, Note_on_c, 1, 69, 127
1, 37705, Note_off_c, 1, 69, 0
1, 37707, Note_on_c, 1, 68, 127
1, 37707, Note_on_c, 1, 59, 127
1, 37895, Note_off_c, 1, 68, 0
1, 37897, Note_on_c, 1, 78, 127
1, 38085, Note_off_c, 1, 56, 0
1, 38085, Note_off_c, 1, 78, 0
1, 38088, Note_on_c, 1, 77, 127
1, 38088, Note_on_c, 1, 49, 127
1, 38276, Note_off_c, 1, 77, 0
1, 38278, Note_on_c, 1, 75, 127
1, 38465, Note_off_c, 1, 59, 0
1, 38466, Note_off_c, 1, 75, 0
1, 38468, Note_on_c, 1, 73, 127
1, 38468, Note_on_c, 1, 53, 127
1, 38656, Note_off_c, 1, 73, 0
1, 38658, Note_on_c, 1, 83, 127
1, 38844, Note_off_c, 1, 53, 0
1, 38846, Note_off_c, 1, 49, 0
1, 38846, Note_off_c, 1, 83, 0
1, 38848, Note_on_c, 1, 81, 127
1, 38848, Note_on_c, 1, 54, 127
1, 39036, Note_off_c, 1, 81, 0
1, 39038, Note_on_c, 1, 80, 127
1, 39226, Note_off_c, 1, 80, 0
1, 39228, Note_on_c, 1, 78, 127
1, 39228, Note_on_c, 1, 57, 127
1, 39416, Note_off_c, 1, 78, 0
1, 39418, Note_on_c, 1, 77, 127
1, 39606, Note_off_c, 1, 54, 0
1, 39606, Note_off_c, 1, 77, 0
1, 39608, Note_on_c, 1, 50, 127
1, 39986, Note_off_c, 1, 57, 0
1, 39986, Note_off_c, 1, 50, 0
1, 39988, Note_on_c, 1, 56, 127
1, 39988, Note_on_c, 1, 78, 127
1, 39988, Note_on_c, 1, 47, 127
1, 40176, Note_off_c, 1, 56, 0
1, 40176, Note_off_c, 1, 78, 0
1, 40178, Note_on_c, 1, 54, 127
1, 40178, Note_on_c, 1, 80, 127
1, 40366, Note_off_c, 1, 47, 0
1, 40366, Note_off_c, 1, 54, 0
1, 40366, Note_off_c, 1, 80, 0
1, 40368, Note_on_c, 1, 81, 127
1, 40368, Note_on_c, 1, 53, 127
1, 40368, Note_on_c, 1, 49, 127
1, 40496, Note_off_c, 1, 81, 0
1, 40499, Note_on_c, 1, 80, 127
1, 40572, Note_off_c, 1, 80, 0
1, 40746, Note_off_c, 1, 53, 0
1, 40749, Note_on_c, 1, 59, 127
1, 40939, Note_on_c, 1, 78, 127
1, 41126, Note_off_c, 1, 49, 0
1, 41127, Note_off_c, 1, 59, 0
1, 41127, Note_off_c, 1, 78, 0
1, 41129, Note_on_c, 1, 57, 127
1, 41129, Note_on_c, 1, 54, 127
1, 41129, Note_on_c, 1, 78, 127
1, 41317, Note_off_c, 1, 57, 0
1, 41319, Note_on_c, 1, 74, 127
1, 41507, Note_off_c, 1, 74, 0
1, 41509, Note_on_c, 1, 73, 127
1, 41697, Note_off_c, 1, 73, 0
1, 41699, Note_on_c, 1, 71, 127
1, 41881, Note_off_c, 1, 54, 0
1, 41887, Note_off_c, 1, 71, 0
1, 41889, Note_on_c, 1, 69, 127
1, 42077, Note_off_c, 1, 69, 0
1, 42079, Note_on_c, 1, 68, 127
1, 42267, Note_off_c, 1, 78, 0
1, 42267, Note_off_c, 1, 68, 0
1, 42269, Note_on_c, 1, 66, 127
1, 42269, Note_on_c, 1, 81, 127
1, 42457, Note_off_c, 1, 66, 0
1, 42459, Note_on_c, 1, 64, 127
1, 42647, Note_off_c, 1, 81, 0
1, 42647, Note_off_c, 1, 64, 0
1, 42649, Note_on_c, 1, 81, 127
1, 42649, Note_on_c, 1, 63, 127
1, 42840, Note_on_c, 1, 61, 127
1, 43027, Note_off_c, 1, 81, 0
1, 43028, Note_off_c, 1, 61, 0
1, 43030, Note_on_c, 1, 59, 127
1, 43030, Note_on_c, 1, 80, 127
1, 43218, Note_off_c, 1, 59, 0
1, 43220, Note_on_c, 1, 57, 127
1, 43401, Note_off_c, 1, 63, 0
1, 43408, Note_off_c, 1, 57, 0
1, 43410, Note_on_c, 1, 56, 127
1, 43598, Note_off_c, 1, 56, 0
1, 43600, Note_on_c, 1, 54, 127
1, 43788, Note_off_c, 1, 80, 0
1, 43788, Note_off_c, 1, 54, 0
1, 43790, Note_on_c, 1, 52, 127
1, 43790, Note_on_c, 1, 80, 127
1, 43790, Note_on_c, 1, 76, 127
1, 43978, Note_off_c, 1, 52, 0
1, 43980, Note_on_c, 1, 58, 127
1, 44168, Note_off_c, 1, 80, 0
1, 44168, Note_off_c, 1, 58, 0
1, 44170, Note_on_c, 1, 47, 127
1, 44358, Note_off_c, 1, 76, 0
1, 44550, Note_on_c, 1, 75, 127
1, 44550, Note_on_c, 1, 78, 127
1, 44738, Note_off_c, 1, 75, 0
1, 44740, Note_on_c, 1, 73, 127
1, 44928, Note_off_c, 1, 73, 0
1, 44930, Note_on_c, 1, 71, 127
1, 45118, Note_off_c, 1, 71, 0
1, 45120, Note_off_c, 1, 47, 0
1, 45120, Note_on_c, 1, 69, 127
1, 45308, Note_off_c, 1, 78, 0
1, 45308, Note_off_c, 1, 69, 0
1, 45311, Note_on_c, 1, 68, 127
1, 45311, Note_on_c, 1, 83, 127
1, 45499, Note_off_c, 1, 68, 0
1, 45501, Note_on_c, 1, 66, 127
1, 45689, Note_off_c, 1, 83, 0
1, 45689, Note_off_c, 1, 66, 0
1, 45691, Note_on_c, 1, 83, 127
1, 45691, Note_on_c, 1, 64, 127
1, 45881, Note_on_c, 1, 63, 127
1, 46069, Note_off_c, 1, 83, 0
1, 46069, Note_off_c, 1, 63, 0
1, 46071, Note_on_c, 1, 61, 127
1, 46071, Note_on_c, 1, 81, 127
1, 46259, Note_off_c, 1, 61, 0
1, 46261, Note_on_c, 1, 59, 127
1, 46449, Note_off_c, 1, 59, 0
1, 46451, Note_on_c, 1, 57, 127
1, 46639, Note_off_c, 1, 57, 0
1, 46641, Note_off_c, 1, 64, 0
1, 46641, Note_on_c, 1, 56, 127
1, 46829, Note_off_c, 1, 81, 0
1, 46829, Note_off_c, 1, 56, 0
1, 46831, Note_on_c, 1, 54, 127
1, 46831, Note_on_c, 1, 81, 127
1, 46831, Note_on_c, 1, 78, 127
1, 47019, Note_off_c, 1, 54, 0
1, 47021, Note_on_c, 1, 63, 127
1, 47209, Note_off_c, 1, 81, 0
1, 47209, Note_off_c, 1, 63, 0
1, 47211, Note_on_c, 1, 52, 127
1, 47399, Note_off_c, 1, 78, 0
1, 47592, Note_on_c, 1, 76, 127
1, 47592, Note_on_c, 1, 80, 127
1, 47780, Note_off_c, 1, 76, 0
1, 47782, Note_on_c, 1, 74, 127
1, 47970, Note_off_c, 1, 74, 0
1, 47972, Note_on_c, 1, 73, 127
1, 48160, Note_off_c, 1, 73, 0
1, 48161, Note_off_c, 1, 52, 0
1, 48162, Note_on_c, 1, 71, 127
1, 48350, Note_off_c, 1, 80, 0
1, 48351, Note_off_c, 1, 71, 0
1, 48360, Note_on_c, 1, 69, 127
1, 48360, Note_on_c, 1, 76, 127
1, 48548, Note_off_c, 1, 69, 0
1, 48550, Note_on_c, 1, 68, 127
1, 48738, Note_off_c, 1, 76, 0
1, 48738, Note_off_c, 1, 68, 0
1, 48740, Note_on_c, 1, 76, 127
1, 48740, Note_on_c, 1, 66, 127
1, 48930, Note_on_c, 1, 64, 127
1, 49118, Note_off_c, 1, 76, 0
1, 49118, Note_off_c, 1, 64, 0
1, 49120, Note_on_c, 1, 62, 127
1, 49120, Note_on_c, 1, 69, 127
1, 49308, Note_off_c, 1, 62, 0
1, 49310, Note_on_c, 1, 61, 127
1, 49498, Note_off_c, 1, 69, 0
1, 49498, Note_off_c, 1, 61, 0
1, 49500, Note_on_c, 1, 59, 127
1, 49500, Note_on_c, 1, 74, 127
1, 49688, Note_off_c, 1, 59, 0
1, 49690, Note_on_c, 1, 57, 127
1, 49878, Note_off_c, 1, 66, 0
1, 49878, Note_off_c, 1, 74, 0
1, 49878, Note_off_c, 1, 57, 0
1, 49880, Note_on_c, 1, 56, 127
1, 49880, Note_on_c, 1, 71, 127
1, 49880, Note_on_c, 1, 74, 127
1, 50068, Note_off_c, 1, 56, 0
1, 50071, Note_on_c, 1, 59, 127
1, 50258, Note_off_c, 1, 71, 0
1, 50258, Note_off_c, 1, 74, 0
1, 50259, Note_off_c, 1, 59, 0
1, 50261, Note_on_c, 1, 45, 127
1, 50261, Note_on_c, 1, 71, 127
1, 50261, Note_on_c, 1, 74, 127
1, 50449, Note_off_c, 1, 45, 0
1, 50451, Note_on_c, 1, 47, 127
1, 50639, Note_off_c, 1, 71, 0
1, 50639, Note_off_c, 1, 74, 0
1, 50639, Note_off_c, 1, 47, 0
1, 50641, Note_on_c, 1, 49, 127
1, 50641, Note_on_c, 1, 64, 127
1, 50641, Note_on_c, 1, 73, 127
1, 50829, Note_off_c, 1, 49, 0
1, 50831, Note_on_c, 1, 45, 127
1, 51019, Note_off_c, 1, 64, 0
1, 51019, Note_off_c, 1, 45, 0
1, 51021, Note_on_c, 1, 54, 127
1, 51021, Note_on_c, 1, 69, 127
1, 51209, Note_off_c, 1, 73, 0
1, 51211, Note_on_c, 1, 76, 127
1, 51399, Note_off_c, 1, 54, 0
1, 51399, Note_off_c, 1, 76, 0
1, 51401, Note_on_c, 1, 74, 127
1, 51589, Note_off_c, 1, 74, 0
1, 51779, Note_off_c, 1, 69, 0
1, 51781, Note_on_c, 1, 54, 127
1, 51781, Note_on_c, 1, 71, 127
1, 51781, Note_on_c, 1, 68, 127
1, 51969, Note_off_c, 1, 54, 0
1, 51969, Note_off_c, 1, 71, 0
1, 51971, Note_on_c, 1, 51, 127
1, 51971, Note_on_c, 1, 73, 127
1, 52159, Note_off_c, 1, 51, 0
1, 52159, Note_off_c, 1, 73, 0
1, 52161, Note_on_c, 1, 74, 127
1, 52161, Note_on_c, 1, 52, 127
1, 52349, Note_off_c, 1, 74, 0
1, 52539, Note_off_c, 1, 68, 0
1, 52542, Note_on_c, 1, 64, 127
1, 52542, Note_on_c, 1, 67, 127
1, 52729, Note_off_c, 1, 52, 0
1, 52920, Note_off_c, 1, 64, 0
1, 52922, Note_on_c, 1, 76, 127
1, 53112, Note_on_c, 1, 55, 127
1, 53300, Note_off_c, 1, 67, 0
1, 53300, Note_off_c, 1, 55, 0
1, 53302, Note_on_c, 1, 57, 127
1, 53302, Note_on_c, 1, 66, 127
1, 53490, Note_off_c, 1, 57, 0
1, 53680, Note_off_c, 1, 76, 0
1, 53682, Note_on_c, 1, 69, 127
1, 54058, Note_off_c, 1, 69, 0
1, 54060, Note_off_c, 1, 66, 0
1, 54062, Note_on_c, 1, 50, 127
1, 54062, Note_on_c, 1, 71, 127
1, 54250, Note_off_c, 1, 50, 0
1, 54252, Note_on_c, 1, 49, 127
1, 54440, Note_off_c, 1, 49, 0
1, 54442, Note_on_c, 1, 47, 127
1, 54442, Note_on_c, 1, 74, 127
1, 54630, Note_off_c, 1, 47, 0
1, 54632, Note_on_c, 1, 57, 127
1, 54820, Note_off_c, 1, 71, 0
1, 54820, Note_off_c, 1, 57, 0
1, 54823, Note_on_c, 1, 56, 127
1, 54823, Note_on_c, 1, 64, 127
1, 55011, Note_off_c, 1, 56, 0
1, 55013, Note_on_c, 1, 54, 127
1, 55200, Note_off_c, 1, 74, 0
1, 55201, Note_off_c, 1, 54, 0
1, 55203, Note_on_c, 1, 52, 127
1, 55203, Note_on_c, 1, 68, 127
1, 55391, Note_off_c, 1, 52, 0
1, 55579, Note_off_c, 1, 68, 0
1, 55581, Note_off_c, 1, 64, 0
1, 55583, Note_on_c, 1, 49, 127
1, 55583, Note_on_c, 1, 69, 127
1, 55771, Note_off_c, 1, 49, 0
1, 55773, Note_on_c, 1, 47, 127
1, 55961, Note_off_c, 1, 47, 0
1, 55963, Note_on_c, 1, 45, 127
1, 55963, Note_on_c, 1, 73, 127
1, 56151, Note_off_c, 1, 45, 0
1, 56153, Note_on_c, 1, 55, 127
1, 56341, Note_off_c, 1, 73, 0
1, 56341, Note_off_c, 1, 55, 0
1, 56343, Note_on_c, 1, 54, 127
1, 56343, Note_on_c, 1, 74, 127
1, 56531, Note_off_c, 1, 54, 0
1, 56531, Note_off_c, 1, 74, 0
1, 56533, Note_on_c, 1, 52, 127
1, 56721, Note_off_c, 1, 52, 0
1, 56723, Note_on_c, 1, 50, 127
1, 56723, Note_on_c, 1, 71, 127
1, 56911, Note_off_c, 1, 50, 0
1, 56911, Note_off_c, 1, 71, 0
1, 57101, Note_off_c, 1, 69, 0
1, 57104, Note_on_c, 1, 47, 127
1, 57104, Note_on_c, 1, 74, 127
1, 57104, Note_on_c, 1, 68, 127
1, 57292, Note_off_c, 1, 47, 0
1, 57292, Note_off_c, 1, 74, 0
1, 57294, Note_on_c, 1, 54, 127
1, 57294, Note_on_c, 1, 73, 127
1, 57482, Note_off_c, 1, 54, 0
1, 57482, Note_off_c, 1, 73, 0
1, 57484, Note_on_c, 1, 52, 127
1, 57672, Note_off_c, 1, 52, 0
1, 57674, Note_on_c, 1, 50, 127
1, 57674, Note_on_c, 1, 76, 127
1, 57862, Note_off_c, 1, 68, 0
1, 57862, Note_off_c, 1, 50, 0
1, 57862, Note_off_c, 1, 76, 0
1, 57872, Note_on_c, 1, 49, 127
1, 57872, Note_on_c, 1, 69, 127
1, 58060, Note_off_c, 1, 49, 0
1, 58062, Note_on_c, 1, 47, 127
1, 58062, Note_on_c, 1, 71, 127
1, 58250, Note_off_c, 1, 47, 0
1, 58250, Note_off_c, 1, 71, 0
1, 58252, Note_on_c, 1, 45, 127
1, 58252, Note_on_c, 1, 73, 127
1, 58426, Note_off_c, 1, 69, 0
1, 58440, Note_off_c, 1, 45, 0
1, 58440, Note_off_c, 1, 73, 0
1, 58442, Note_on_c, 1, 49, 127
1, 58442, Note_on_c, 1, 69, 127
1, 58630, Note_off_c, 1, 49, 0
1, 58630, Note_off_c, 1, 69, 0
1, 58632, Note_on_c, 1, 50, 127
1, 58632, Note_on_c, 1, 78, 127
1, 58632, Note_on_c, 1, 57, 127
1, 58820, Note_off_c, 1, 50, 0
1, 58822, Note_on_c, 1, 52, 127
1, 59010, Note_off_c, 1, 78, 0
1, 59010, Note_off_c, 1, 52, 0
1, 59202, Note_on_c, 1, 49, 127
1, 59390, Note_off_c, 1, 57, 0
1, 59390, Note_off_c, 1, 49, 0
1, 59392, Note_on_c, 1, 47, 127
1, 59392, Note_on_c, 1, 78, 127
1, 59392, Note_on_c, 1, 56, 127
1, 59580, Note_off_c, 1, 47, 0
1, 59580, Note_off_c, 1, 78, 0
1, 59583, Note_on_c, 1, 45, 127
1, 59583, Note_on_c, 1, 75, 127
1, 59771, Note_off_c, 1, 45, 0
1, 59771, Note_off_c, 1, 75, 0
1, 59773, Note_on_c, 1, 44, 127
1, 59773, Note_on_c, 1, 76, 127
1, 59961, Note_off_c, 1, 44, 0
1, 60150, Note_off_c, 1, 56, 0
1, 60153, Note_on_c, 1, 49, 127
1, 60153, Note_on_c, 1, 55, 127
1, 60341, Note_off_c, 1, 76, 0
1, 60531, Note_off_c, 1, 49, 0
1, 60533, Note_on_c, 1, 52, 127
1, 60723, Note_on_c, 1, 79, 127
1, 60911, Note_off_c, 1, 55, 0
1, 60911, Note_off_c, 1, 79, 0
1, 60913, Note_on_c, 1, 81, 127
1, 60913, Note_on_c, 1, 54, 127
1, 61101, Note_off_c, 1, 81, 0
1, 61291, Note_off_c, 1, 52, 0
1, 61671, Note_off_c, 1, 54, 0
1, 61673, Note_on_c, 1, 74, 127
1, 61673, Note_on_c, 1, 59, 127
1, 61861, Note_off_c, 1, 74, 0
1, 61864, Note_on_c, 1, 73, 127
1, 62052, Note_off_c, 1, 73, 0
1, 62054, Note_on_c, 1, 71, 127
1, 62054, Note_on_c, 1, 50, 127
1, 62242, Note_off_c, 1, 71, 0
1, 62244, Note_on_c, 1, 81, 127
1, 62431, Note_off_c, 1, 59, 0
1, 62432, Note_off_c, 1, 81, 0
1, 62434, Note_on_c, 1, 80, 127
1, 62434, Note_on_c, 1, 52, 127
1, 62622, Note_off_c, 1, 80, 0
1, 62624, Note_on_c, 1, 78, 127
1, 62812, Note_off_c, 1, 50, 0
1, 62812, Note_off_c, 1, 78, 0
1, 62814, Note_on_c, 1, 76, 127
1, 62814, Note_on_c, 1, 44, 127
1, 63002, Note_off_c, 1, 76, 0
1, 63190, Note_off_c, 1, 44, 0
1, 63192, Note_off_c, 1, 52, 0
1, 63194, Note_on_c, 1, 73, 127
1, 63194, Note_on_c, 1, 57, 127
1, 63382, Note_off_c, 1, 73, 0
1, 63384, Note_on_c, 1, 71, 127
1, 63572, Note_off_c, 1, 71, 0
1, 63574, Note_on_c, 1, 69, 127
1, 63574, Note_on_c, 1, 49, 127
1, 63762, Note_off_c, 1, 69, 0
1, 63764, Note_on_c, 1, 79, 127
1, 63952, Note_off_c, 1, 57, 0
1, 63952, Note_off_c, 1, 79, 0
1, 63954, Note_on_c, 1, 78, 127
1, 63954, Note_on_c, 1, 50, 127
1, 64142, Note_off_c, 1, 78, 0
1, 64144, Note_on_c, 1, 76, 127
1, 64332, Note_off_c, 1, 49, 0
1, 64332, Note_off_c, 1, 76, 0
1, 64335, Note_on_c, 1, 47, 127
1, 64335, Note_on_c, 1, 74, 127
1, 64523, Note_off_c, 1, 47, 0
1, 64523, Note_off_c, 1, 74, 0
1, 64525, Note_on_c, 1, 45, 127
1, 64713, Note_off_c, 1, 45, 0
1, 64715, Note_on_c, 1, 44, 127
1, 64902, Note_off_c, 1, 50, 0
1, 65473, Note_off_c, 1, 44, 0
1, 65475, Note_on_c, 1, 73, 127
1, 65475, Note_on_c, 1, 45, 127
1, 65663, Note_off_c, 1, 73, 0
1, 65665, Note_on_c, 1, 47, 127
1, 65665, Note_on_c, 1, 71, 127
1, 65712, Note_off_c, 1, 45, 0
1, 65853, Note_off_c, 1, 47, 0
1, 65853, Note_off_c, 1, 71, 0
1, 65855, Note_on_c, 1, 49, 127
1, 65855, Note_on_c, 1, 69, 127
1, 66043, Note_off_c, 1, 49, 0
1, 66043, Note_off_c, 1, 69, 0
1, 66045, Note_on_c, 1, 45, 127
1, 66045, Note_on_c, 1, 73, 127
1, 66233, Note_off_c, 1, 45, 0
1, 66233, Note_off_c, 1, 73, 0
1, 66235, Note_on_c, 1, 50, 127
1, 66235, Note_on_c, 1, 66, 127
1, 66423, Note_off_c, 1, 50, 0
1, 66423, Note_off_c, 1, 66, 0
1, 66425, Note_on_c, 1, 52, 127
1, 66425, Note_on_c, 1, 64, 127
1, 66613, Note_off_c, 1, 52, 0
1, 66613, Note_off_c, 1, 64, 0
1, 66616, Note_on_c, 1, 54, 127
1, 66616, Note_on_c, 1, 62, 127
1, 66804, Note_off_c, 1, 54, 0
1, 66804, Note_off_c, 1, 62, 0
1, 66806, Note_on_c, 1, 50, 127
1, 66806, Note_on_c, 1, 66, 127
1, 66994, Note_off_c, 1, 50, 0
1, 66994, Note_off_c, 1, 66, 0
1, 66996, Note_on_c, 1, 56, 127
1, 66996, Note_on_c, 1, 59, 127
1, 67184, Note_off_c, 1, 56, 0
1, 67184, Note_off_c, 1, 59, 0
1, 67186, Note_on_c, 1, 57, 127
1, 67186, Note_on_c, 1, 61, 127
1, 67374, Note_off_c, 1, 57, 0
1, 67374, Note_off_c, 1, 61, 0
1, 67376, Note_on_c, 1, 56, 127
1, 67376, Note_on_c, 1, 62, 127
1, 67564, Note_off_c, 1, 56, 0
1, 67564, Note_off_c, 1, 62, 0
1, 67566, Note_on_c, 1, 54, 127
1, 67566, Note_on_c, 1, 64, 127
1, 67754, Note_off_c, 1, 54, 0
1, 67754, Note_off_c, 1, 64, 0
1, 67756, Note_on_c, 1, 66, 127
1, 67756, Note_on_c, 1, 52, 127
1, 67944, Note_off_c, 1, 66, 0
1, 67946, Note_on_c, 1, 62, 127
1, 67946, Note_on_c, 1, 68, 127
1, 68134, Note_off_c, 1, 62, 0
1, 68134, Note_off_c, 1, 68, 0
1, 68136, Note_on_c, 1, 61, 127
1, 68136, Note_on_c, 1, 69, 127
1, 68324, Note_off_c, 1, 61, 0
1, 68324, Note_off_c, 1, 69, 0
1, 68326, Note_on_c, 1, 59, 127
1, 68326, Note_on_c, 1, 71, 127
1, 68508, Note_off_c, 1, 52, 0
1, 68514, Note_off_c, 1, 59, 0
1, 68514, Note_off_c, 1, 71, 0
1, 68516, Note_on_c, 1, 73, 127
1, 68516, Note_on_c, 1, 57, 127
1, 68704, Note_off_c, 1, 73, 0
1, 68706, Note_on_c, 1, 54, 127
1, 68706, Note_on_c, 1, 74, 127
1, 68894, Note_off_c, 1, 54, 0
1, 68894, Note_off_c, 1, 74, 0
1, 68896, Note_on_c, 1, 52, 127
1, 68896, Note_on_c, 1, 76, 127
1, 69084, Note_off_c, 1, 52, 0
1, 69084, Note_off_c, 1, 76, 0
1, 69087, Note_on_c, 1, 50, 127
1, 69087, Note_on_c, 1, 78, 127
1, 69275, Note_off_c, 1, 50, 0
1, 69275, Note_off_c, 1, 78, 0
1, 69277, Note_on_c, 1, 49, 127
1, 69277, Note_on_c, 1, 80, 127
1, 69465, Note_off_c, 1, 49, 0
1, 69465, Note_off_c, 1, 80, 0
1, 69467, Note_on_c, 1, 47, 127
1, 69467, Note_on_c, 1, 81, 127
1, 69655, Note_off_c, 1, 47, 0
1, 69655, Note_off_c, 1, 81, 0
1, 69657, Note_on_c, 1, 45, 127
1, 69657, Note_on_c, 1, 83, 127
1, 69842, Note_off_c, 1, 57, 0
1, 69845, Note_off_c, 1, 45, 0
1, 69847, Note_on_c, 1, 44, 127
1, 70033, Note_off_c, 1, 83, 0
1, 70035, Note_off_c, 1, 44, 0
1, 70037, Note_on_c, 1, 42, 127
1, 70037, Note_on_c, 1, 81, 127
1, 70231, Note_off_c, 1, 42, 0
1, 70233, Note_on_c, 1, 40, 127
1, 70233, Note_on_c, 1, 80, 127
1, 70427, Note_off_c, 1, 40, 0
1, 70427, Note_off_c, 1, 80, 0
1, 70429, Note_on_c, 1, 78, 127
1, 70429, Note_on_c, 1, 38, 127
1, 70623, Note_off_c, 1, 78, 0
1, 70625, Note_on_c, 1, 76, 127
1, 70819, Note_off_c, 1, 38, 0
1, 70819, Note_off_c, 1, 76, 0
1, 70821, Note_on_c, 1, 74, 127
1, 71030, Note_off_c, 1, 74, 0
1, 71033, Note_on_c, 1, 73, 127
1, 71242, Note_off_c, 1, 73, 0
1, 71245, Note_on_c, 1, 71, 127
1, 71245, Note_on_c, 1, 52, 127
1, 71470, Note_off_c, 1, 81, 0
1, 71705, Note_off_c, 1, 71, 0
1, 71707, Note_off_c, 1, 52, 0
1, 71708, Note_on_c, 1, 45, 127
1, 71708, Note_on_c, 1, 73, 127
1, 71708, Note_on_c, 1, 81, 127
1, 73527, Note_off_c, 1, 45, 0
1, 73527, Note_off_c, 1, 73, 0
1, 73527, Note_off_c, 1, 81, 0
1, 73989, Note_on_c, 1, 69, 127
1, 74842, Note_off_c, 1, 69, 0
1, 75130, Note_on_c, 1, 68, 127
1, 75407, Note_off_c, 1, 68, 0
1, 75415, Note_on_c, 1, 73, 127
1, 75692, Note_off_c, 1, 73, 0
1, 75700, Note_on_c, 1, 69, 127
1, 75977, Note_off_c, 1, 69, 0
1, 75985, Note_on_c, 1, 74, 127
1, 76262, Note_off_c, 1, 74, 0
1, 76270, Note_on_c, 1, 71, 127
1, 76547, Note_off_c, 1, 71, 0
1, 76555, Note_on_c, 1, 76, 127
1, 76555, Note_on_c, 1, 64, 127
1, 76832, Note_off_c, 1, 76, 0
1, 76840, Note_on_c, 1, 73, 127
1, 77117, Note_off_c, 1, 73, 0
1, 77125, Note_on_c, 1, 78, 127
1, 77402, Note_off_c, 1, 78, 0
1, 77410, Note_off_c, 1, 64, 0
1, 77413, Note_on_c, 1, 76, 127
1, 77690, Note_off_c, 1, 76, 0
1, 77698, Note_on_c, 1, 61, 127
1, 77698, Note_on_c, 1, 81, 127
1, 77975, Note_off_c, 1, 61, 0
1, 77975, Note_off_c, 1, 81, 0
1, 77983, Note_on_c, 1, 66, 127
1, 77983, Note_on_c, 1, 74, 127
1, 78260, Note_off_c, 1, 66, 0
1, 78268, Note_on_c, 1, 64, 127
1, 78545, Note_off_c, 1, 64, 0
1, 78553, Note_off_c, 1, 74, 0
1, 78555, Note_on_c, 1, 69, 127
1, 78555, Note_on_c, 1, 73, 127
1, 78832, Note_off_c, 1, 69, 0
1, 78832, Note_off_c, 1, 73, 0
1, 78840, Note_on_c, 1, 66, 127
1, 78840, Note_on_c, 1, 75, 127
1, 79117, Note_off_c, 1, 66, 0
1, 79117, Note_off_c, 1, 75, 0
1, 79125, Note_on_c, 1, 71, 127
1, 79125, Note_on_c, 1, 80, 127
1, 79402, Note_off_c, 1, 71, 0
1, 79402, Note_off_c, 1, 80, 0
1, 79410, Note_on_c, 1, 68, 127
1, 79410, Note_on_c, 1, 76, 127
1, 79687, Note_off_c, 1, 68, 0
1, 79687, Note_off_c, 1, 76, 0
1, 79695, Note_on_c, 1, 73, 127
1, 79695, Note_on_c, 1, 81, 127
1, 79972, Note_off_c, 1, 73, 0
1, 79972, Note_off_c, 1, 81, 0
1, 79981, Note_on_c, 1, 71, 127
1, 79981, Note_on_c, 1, 80, 127
1, 80258, Note_off_c, 1, 71, 0
1, 80266, Note_on_c, 1, 76, 127
1, 80543, Note_off_c, 1, 76, 0
1, 80547, Note_off_c, 1, 80, 0
1, 80553, Note_on_c, 1, 78, 127
1, 80553, Note_on_c, 1, 69, 127
1, 80830, Note_off_c, 1, 78, 0
1, 80838, Note_on_c, 1, 71, 127
1, 81115, Note_off_c, 1, 71, 0
1, 81123, Note_off_c, 1, 69, 0
1, 81125, Note_on_c, 1, 68, 127
1, 81125, Note_on_c, 1, 76, 127
1, 81402, Note_off_c, 1, 68, 0
1, 81402, Note_off_c, 1, 76, 0
1, 81410, Note_on_c, 1, 71, 127
1, 81410, Note_on_c, 1, 74, 127
1, 81687, Note_off_c, 1, 71, 0
1, 81695, Note_on_c, 1, 64, 127
1, 81695, Note_on_c, 1, 57, 127
1, 81890, Note_off_c, 1, 74, 0
1, 81972, Note_off_c, 1, 64, 0
1, 81982, Note_on_c, 1, 69, 127
1, 81982, Note_on_c, 1, 73, 127
1, 82259, Note_off_c, 1, 69, 0
1, 82259, Note_off_c, 1, 73, 0
1, 82267, Note_on_c, 1, 66, 127
1, 82267, Note_on_c, 1, 75, 127
1, 82544, Note_off_c, 1, 66, 0
1, 82544, Note_off_c, 1, 75, 0
1, 82552, Note_off_c, 1, 57, 0
1, 82555, Note_on_c, 1, 76, 127
1, 82555, Note_on_c, 1, 68, 127
1, 82832, Note_off_c, 1, 76, 0
1, 82840, Note_on_c, 1, 56, 127
1, 82840, Note_on_c, 1, 71, 127
1, 83117, Note_off_c, 1, 56, 0
1, 83117, Note_off_c, 1, 71, 0
1, 83125, Note_on_c, 1, 61, 127
1, 83402, Note_off_c, 1, 61, 0
1, 83410, Note_off_c, 1, 68, 0
1, 83412, Note_on_c, 1, 57, 127
1, 83412, Note_on_c, 1, 73, 127
1, 83689, Note_off_c, 1, 57, 0
1, 83689, Note_off_c, 1, 73, 0
1, 83699, Note_on_c, 1, 62, 127
1, 83699, Note_on_c, 1, 69, 127
1, 83699, Note_on_c, 1, 78, 127
1, 83976, Note_off_c, 1, 62, 0
1, 83976, Note_off_c, 1, 69, 0
1, 83984, Note_on_c, 1, 59, 127
1, 83984, Note_on_c, 1, 74, 127
1, 84261, Note_off_c, 1, 59, 0
1, 84261, Note_off_c, 1, 74, 0
1, 84269, Note_off_c, 1, 78, 0
1, 84271, Note_on_c, 1, 64, 127
1, 84271, Note_on_c, 1, 71, 127
1, 84271, Note_on_c, 1, 80, 127
1, 84548, Note_off_c, 1, 64, 0
1, 84548, Note_off_c, 1, 71, 0
1, 84556, Note_on_c, 1, 61, 127
1, 84556, Note_on_c, 1, 76, 127
1, 84833, Note_off_c, 1, 61, 0
1, 84833, Note_off_c, 1, 76, 0
1, 84841, Note_off_c, 1, 80, 0
1, 84843, Note_on_c, 1, 66, 127
1, 84843, Note_on_c, 1, 81, 127
1, 84843, Note_on_c, 1, 74, 127
1, 85120, Note_off_c, 1, 66, 0
1, 85120, Note_off_c, 1, 81, 0
1, 85129, Note_on_c, 1, 64, 127
1, 85129, Note_on_c, 1, 80, 127
1, 85406, Note_off_c, 1, 64, 0
1, 85413, Note_off_c, 1, 74, 0
1, 85416, Note_on_c, 1, 69, 127
1, 85416, Note_on_c, 1, 73, 127
1, 85693, Note_off_c, 1, 69, 0
1, 85701, Note_off_c, 1, 80, 0
1, 85703, Note_on_c, 1, 78, 127
1, 85703, Note_on_c, 1, 62, 127
1, 85980, Note_off_c, 1, 78, 0
1, 85988, Note_off_c, 1, 73, 0
1, 85990, Note_on_c, 1, 71, 127
1, 86267, Note_off_c, 1, 71, 0
1, 86275, Note_off_c, 1, 62, 0
1, 86277, Note_on_c, 1, 61, 127
1, 86277, Note_on_c, 1, 76, 127
1, 86277, Note_on_c, 1, 81, 127
1, 86554, Note_off_c, 1, 61, 0
1, 86554, Note_off_c, 1, 76, 0
1, 86562, Note_on_c, 1, 63, 127
1, 86562, Note_on_c, 1, 78, 127
1, 86839, Note_off_c, 1, 63, 0
1, 86839, Note_off_c, 1, 78, 0
1, 86847, Note_on_c, 1, 71, 127
1, 86847, Note_on_c, 1, 52, 127
1, 87124, Note_off_c, 1, 71, 0
1, 87132, Note_off_c, 1, 81, 0
1, 87134, Note_on_c, 1, 80, 127
1, 87411, Note_off_c, 1, 80, 0
1, 87419, Note_on_c, 1, 83, 127
1, 87419, Note_on_c, 1, 74, 127
1, 87696, Note_off_c, 1, 83, 0
1, 87704, Note_off_c, 1, 52, 0
1, 87989, Note_off_c, 1, 74, 0
1, 87992, Note_on_c, 1, 73, 127
1, 87992, Note_on_c, 1, 49, 127
1, 88132, Note_off_c, 1, 73, 0
1, 88269, Note_off_c, 1, 49, 0
1, 88279, Note_on_c, 1, 73, 127
1, 88279, Note_on_c, 1, 54, 127
1, 88279, Note_on_c, 1, 75, 127
1, 88419, Note_off_c, 1, 73, 0
1, 88421, Note_on_c, 1, 69, 127
1, 88556, Note_off_c, 1, 54, 0
1, 88556, Note_off_c, 1, 75, 0
1, 88563, Note_off_c, 1, 69, 0
1, 88566, Note_on_c, 1, 52, 127
1, 88566, Note_on_c, 1, 68, 127
1, 88566, Note_on_c, 1, 76, 127
1, 88843, Note_off_c, 1, 52, 0
1, 88843, Note_off_c, 1, 68, 0
1, 88851, Note_on_c, 1, 57, 127
1, 88851, Note_on_c, 1, 73, 127
1, 89128, Note_off_c, 1, 57, 0
1, 89128, Note_off_c, 1, 73, 0
1, 89136, Note_on_c, 1, 54, 127
1, 89136, Note_on_c, 1, 69, 127
1, 89413, Note_off_c, 1, 54, 0
1, 89413, Note_off_c, 1, 69, 0
1, 89421, Note_on_c, 1, 59, 127
1, 89421, Note_on_c, 1, 66, 127
1, 89698, Note_off_c, 1, 59, 0
1, 89698, Note_off_c, 1, 66, 0
1, 89706, Note_off_c, 1, 76, 0
1, 89708, Note_on_c, 1, 56, 127
1, 89708, Note_on_c, 1, 71, 127
1, 89708, Note_on_c, 1, 74, 127
1, 89985, Note_off_c, 1, 56, 0
1, 89985, Note_off_c, 1, 71, 0
1, 89985, Note_off_c, 1, 74, 0
1, 89993, Note_on_c, 1, 61, 127
1, 89993, Note_on_c, 1, 73, 127
1, 89993, Note_on_c, 1, 69, 127
1, 90270, Note_off_c, 1, 61, 0
1, 90270, Note_off_c, 1, 73, 0
1, 90279, Note_on_c, 1, 59, 127
1, 90279, Note_on_c, 1, 74, 127
1, 90556, Note_off_c, 1, 59, 0
1, 90563, Note_off_c, 1, 69, 0
1, 90566, Note_on_c, 1, 64, 127
1, 90566, Note_on_c, 1, 68, 127
1, 90843, Note_off_c, 1, 64, 0
1, 90843, Note_off_c, 1, 68, 0
1, 90851, Note_off_c, 1, 74, 0
1, 90853, Note_on_c, 1, 69, 127
1, 90853, Note_on_c, 1, 73, 127
1, 90853, Note_on_c, 1, 57, 127
1, 91130, Note_off_c, 1, 69, 0
1, 91130, Note_off_c, 1, 73, 0
1, 91138, Note_on_c, 1, 71, 127
1, 91138, Note_on_c, 1, 62, 127
1, 91421, Note_off_c, 1, 57, 0
1, 91423, Note_on_c, 1, 56, 127
1, 91700, Note_off_c, 1, 56, 0
1, 91708, Note_on_c, 1, 59, 127
1, 91985, Note_off_c, 1, 59, 0
1, 91993, Note_off_c, 1, 71, 0
1, 91995, Note_on_c, 1, 49, 127
1, 92188, Note_off_c, 1, 62, 0
1, 92280, Note_on_c, 1, 61, 127
1, 92557, Note_off_c, 1, 61, 0
1, 92565, Note_on_c, 1, 64, 127
1, 92842, Note_off_c, 1, 64, 0
1, 92851, Note_on_c, 1, 66, 127
1, 93133, Note_off_c, 1, 49, 0
1, 93136, Note_on_c, 1, 45, 127
1, 93413, Note_off_c, 1, 45, 0
1, 93421, Note_on_c, 1, 50, 127
1, 93698, Note_off_c, 1, 50, 0
1, 93708, Note_on_c, 1, 47, 127
1, 93848, Note_off_c, 1, 66, 0
1, 93850, Note_on_c, 1, 68, 127
1, 93985, Note_off_c, 1, 47, 0
1, 93992, Note_off_c, 1, 68, 0
1, 93995, Note_on_c, 1, 52, 127
1, 94272, Note_off_c, 1, 52, 0
1, 94282, Note_on_c, 1, 40, 127
1, 94559, Note_off_c, 1, 40, 0
1, 95714, Note_on_c, 1, 56, 127
1, 95714, Note_on_c, 1, 64, 127
1, 95714, Note_on_c, 1, 68, 127
1, 95991, Note_off_c, 1, 56, 0
1, 95991, Note_off_c, 1, 64, 0
1, 95991, Note_off_c, 1, 68, 0
1, 95999, Note_on_c, 1, 52, 127
1, 95999, Note_on_c, 1, 73, 127
1, 95999, Note_on_c, 1, 68, 127
1, 96276, Note_off_c, 1, 52, 0
1, 96276, Note_off_c, 1, 73, 0
1, 96284, Note_on_c, 1, 54, 127
1, 96284, Note_on_c, 1, 69, 127
1, 96561, Note_off_c, 1, 54, 0
1, 96561, Note_off_c, 1, 69, 0
1, 96569, Note_off_c, 1, 68, 0
1, 96571, Note_on_c, 1, 47, 127
1, 96571, Note_on_c, 1, 66, 127
1, 96571, Note_on_c, 1, 74, 127
1, 96848, Note_off_c, 1, 47, 0
1, 96848, Note_off_c, 1, 66, 0
1, 96848, Note_off_c, 1, 74, 0
1, 96856, Note_on_c, 1, 52, 127
1, 96856, Note_on_c, 1, 71, 127
1, 96856, Note_on_c, 1, 68, 127
1, 97133, Note_off_c, 1, 52, 0
1, 97133, Note_off_c, 1, 71, 0
1, 97141, Note_on_c, 1, 49, 127
1, 97141, Note_on_c, 1, 76, 127
1, 97418, Note_off_c, 1, 49, 0
1, 97418, Note_off_c, 1, 76, 0
1, 97426, Note_off_c, 1, 68, 0
1, 97428, Note_on_c, 1, 54, 127
1, 97428, Note_on_c, 1, 69, 127
1, 97428, Note_on_c, 1, 73, 127
1, 97705, Note_off_c, 1, 54, 0
1, 97705, Note_off_c, 1, 69, 0
1, 97705, Note_off_c, 1, 73, 0
1, 97713, Note_on_c, 1, 50, 127
1, 97713, Note_on_c, 1, 71, 127
1, 97713, Note_on_c, 1, 78, 127
1, 97990, Note_off_c, 1, 50, 0
1, 97990, Note_off_c, 1, 71, 0
1, 97990, Note_off_c, 1, 78, 0
1, 97999, Note_on_c, 1, 57, 127
1, 97999, Note_on_c, 1, 76, 127
1, 97999, Note_on_c, 1, 73, 127
1, 98276, Note_off_c, 1, 57, 0
1, 98276, Note_off_c, 1, 76, 0
1, 98284, Note_on_c, 1, 54, 127
1, 98284, Note_on_c, 1, 81, 127
1, 98561, Note_off_c, 1, 54, 0
1, 98561, Note_off_c, 1, 81, 0
1, 98569, Note_on_c, 1, 59, 127
1, 98569, Note_on_c, 1, 74, 127
1, 98846, Note_off_c, 1, 59, 0
1, 98854, Note_off_c, 1, 73, 0
1, 98856, Note_on_c, 1, 52, 127
1, 98856, Note_on_c, 1, 71, 127
1, 99133, Note_off_c, 1, 52, 0
1, 99141, Note_off_c, 1, 74, 0
1, 99428, Note_off_c, 1, 71, 0
1, 99430, Note_on_c, 1, 54, 127
1, 99430, Note_on_c, 1, 75, 127
1, 99430, Note_on_c, 1, 69, 127
1, 99707, Note_off_c, 1, 54, 0
1, 99707, Note_off_c, 1, 75, 0
1, 99715, Note_on_c, 1, 61, 127
1, 99715, Note_on_c, 1, 76, 127
1, 99998, Note_off_c, 1, 69, 0
1, 100000, Note_on_c, 1, 68, 127
1, 100277, Note_off_c, 1, 68, 0
1, 100285, Note_off_c, 1, 61, 0
1, 100287, Note_on_c, 1, 59, 127
1, 100287, Note_on_c, 1, 73, 127
1, 100564, Note_off_c, 1, 59, 0
1, 100564, Note_off_c, 1, 73, 0
1, 100573, Note_on_c, 1, 58, 127
1, 100573, Note_on_c, 1, 66, 127
1, 100850, Note_off_c, 1, 58, 0
1, 100850, Note_off_c, 1, 66, 0
1, 100857, Note_off_c, 1, 76, 0
1, 100860, Note_on_c, 1, 59, 127
1, 100860, Note_on_c, 1, 74, 127
1, 100860, Note_on_c, 1, 71, 127
1, 101137, Note_off_c, 1, 59, 0
1, 101137, Note_off_c, 1, 74, 0
1, 101145, Note_on_c, 1, 52, 127
1, 101145, Note_on_c, 1, 79, 127
1, 101422, Note_off_c, 1, 52, 0
1, 101422, Note_off_c, 1, 79, 0
1, 101430, Note_on_c, 1, 73, 127
1, 101430, Note_on_c, 1, 54, 127
1, 101707, Note_off_c, 1, 73, 0
1, 101715, Note_off_c, 1, 71, 0
1, 101717, Note_on_c, 1, 78, 127
1, 101717, Note_on_c, 1, 69, 127
1, 101994, Note_off_c, 1, 78, 0
1, 102287, Note_off_c, 1, 69, 0
1, 102289, Note_on_c, 1, 68, 127
1, 102295, Note_off_c, 1, 54, 0
1, 102574, Note_on_c, 1, 53, 127
1, 102851, Note_off_c, 1, 53, 0
1, 102859, Note_on_c, 1, 56, 127
1, 103136, Note_off_c, 1, 56, 0
1, 103145, Note_on_c, 1, 45, 127
1, 103389, Note_off_c, 1, 68, 0
1, 103430, Note_on_c, 1, 66, 127
1, 103715, Note_off_c, 1, 45, 0
1, 103717, Note_on_c, 1, 47, 127
1, 103994, Note_off_c, 1, 47, 0
1, 104002, Note_on_c, 1, 49, 127
1, 104287, Note_off_c, 1, 66, 0
1, 104289, Note_on_c, 1, 65, 127
1, 104566, Note_off_c, 1, 65, 0
1, 104574, Note_off_c, 1, 49, 0
1, 104576, Note_on_c, 1, 37, 127
1, 104576, Note_on_c, 1, 71, 127
1, 104576, Note_on_c, 1, 68, 127
1, 104853, Note_off_c, 1, 37, 0
1, 104853, Note_off_c, 1, 71, 0
1, 104861, Note_on_c, 1, 42, 127
1, 104861, Note_on_c, 1, 69, 127
1, 105144, Note_off_c, 1, 68, 0
1, 105146, Note_on_c, 1, 66, 127
1, 105423, Note_off_c, 1, 66, 0
1, 105432, Note_on_c, 1, 64, 127
1, 105709, Note_off_c, 1, 64, 0
1, 105716, Note_off_c, 1, 42, 0
1, 105719, Note_on_c, 1, 62, 127
1, 105911, Note_off_c, 1, 69, 0
1, 106004, Note_on_c, 1, 53, 127
1, 106281, Note_off_c, 1, 53, 0
1, 106289, Note_off_c, 1, 62, 0
1, 106291, Note_on_c, 1, 57, 127
1, 106291, Note_on_c, 1, 66, 127
1, 106291, Note_on_c, 1, 61, 127
1, 106568, Note_off_c, 1, 57, 0
1, 106568, Note_off_c, 1, 66, 0
1, 106576, Note_on_c, 1, 54, 127
1, 106576, Note_on_c, 1, 74, 127
1, 106853, Note_off_c, 1, 54, 0
1, 106857, Note_off_c, 1, 61, 0
1, 106863, Note_on_c, 1, 59, 127
1, 107140, Note_off_c, 1, 59, 0
1, 107148, Note_on_c, 1, 56, 127
1, 107148, Note_on_c, 1, 71, 127
1, 107425, Note_off_c, 1, 56, 0
1, 107425, Note_off_c, 1, 71, 0
1, 107433, Note_on_c, 1, 65, 127
1, 107710, Note_off_c, 1, 65, 0
1, 107718, Note_off_c, 1, 74, 0
1, 107720, Note_on_c, 1, 57, 127
1, 107720, Note_on_c, 1, 73, 127
1, 107720, Note_on_c, 1, 66, 127
1, 107997, Note_off_c, 1, 57, 0
1, 107997, Note_off_c, 1, 73, 0
1, 108006, Note_on_c, 1, 62, 127
1, 108006, Note_on_c, 1, 78, 127
1, 108283, Note_off_c, 1, 62, 0
1, 108290, Note_off_c, 1, 66, 0
1, 108293, Note_on_c, 1, 61, 127
1, 108293, Note_on_c, 1, 68, 127
1, 108570, Note_off_c, 1, 61, 0
1, 108570, Note_off_c, 1, 68, 0
1, 108578, Note_off_c, 1, 78, 0
1, 108580, Note_on_c, 1, 66, 127
1, 108580, Note_on_c, 1, 70, 127
1, 108580, Note_on_c, 1, 76, 127
1, 108857, Note_off_c, 1, 66, 0
1, 108857, Note_off_c, 1, 70, 0
1, 108857, Note_off_c, 1, 76, 0
1, 108865, Note_on_c, 1, 71, 127
1, 108865, Note_on_c, 1, 74, 127
1, 108865, Note_on_c, 1, 59, 127
1, 109142, Note_off_c, 1, 71, 0
1, 109142, Note_off_c, 1, 74, 0
1, 109150, Note_on_c, 1, 64, 127
1, 109150, Note_on_c, 1, 73, 127
1, 109433, Note_off_c, 1, 59, 0
1, 109435, Note_on_c, 1, 56, 127
1, 109712, Note_off_c, 1, 56, 0
1, 109720, Note_on_c, 1, 58, 127
1, 109997, Note_off_c, 1, 58, 0
1, 110005, Note_off_c, 1, 64, 0
1, 110007, Note_on_c, 1, 62, 127
1, 110292, Note_off_c, 1, 73, 0
1, 110294, Note_on_c, 1, 47, 127
1, 110571, Note_off_c, 1, 47, 0
1, 110579, Note_off_c, 1, 62, 0
1, 110581, Note_on_c, 1, 52, 127
1, 110581, Note_on_c, 1, 67, 127
1, 110581, Note_on_c, 1, 70, 127
1, 110858, Note_off_c, 1, 52, 0
1, 110858, Note_off_c, 1, 67, 0
1, 110858, Note_off_c, 1, 70, 0
1, 110867, Note_on_c, 1, 50, 127
1, 110867, Note_on_c, 1, 66, 127
1, 110867, Note_on_c, 1, 71, 127
1, 111144, Note_off_c, 1, 50, 0
1, 111144, Note_off_c, 1, 66, 0
1, 111152, Note_on_c, 1, 55, 127
1, 111152, Note_on_c, 1, 64, 127
1, 111429, Note_off_c, 1, 55, 0
1, 111437, Note_off_c, 1, 71, 0
1, 111439, Note_on_c, 1, 52, 127
1, 111439, Note_on_c, 1, 73, 127
1, 111716, Note_off_c, 1, 52, 0
1, 111716, Note_off_c, 1, 73, 0
1, 111724, Note_off_c, 1, 64, 0
1, 111726, Note_on_c, 1, 66, 127
1, 111726, Note_on_c, 1, 54, 127
1, 111726, Note_on_c, 1, 62, 127
1, 112003, Note_off_c, 1, 66, 0
1, 112011, Note_on_c, 1, 71, 127
1, 112288, Note_off_c, 1, 71, 0
1, 112296, Note_off_c, 1, 54, 0
1, 112296, Note_off_c, 1, 62, 0
1, 112298, Note_on_c, 1, 42, 127
1, 112298, Note_on_c, 1, 61, 127
1, 112298, Note_on_c, 1, 70, 127
1, 112575, Note_off_c, 1, 42, 0
1, 112575, Note_off_c, 1, 61, 0
1, 112575, Note_off_c, 1, 70, 0
1, 112583, Note_on_c, 1, 62, 127
1, 112583, Note_on_c, 1, 71, 127
1, 112583, Note_on_c, 1, 47, 127
1, 112860, Note_off_c, 1, 62, 0
1, 112860, Note_off_c, 1, 71, 0
1, 112868, Note_on_c, 1, 66, 127
1, 112868, Note_on_c, 1, 74, 127
1, 113145, Note_off_c, 1, 66, 0
1, 113149, Note_off_c, 1, 47, 0
1, 113441, Note_on_c, 1, 68, 127
1, 113723, Note_off_c, 1, 74, 0
1, 113726, Note_on_c, 1, 52, 127
1, 113726, Note_on_c, 1, 73, 127
1, 114003, Note_off_c, 1, 52, 0
1, 114003, Note_off_c, 1, 73, 0
1, 114011, Note_off_c, 1, 68, 0
1, 114013, Note_on_c, 1, 57, 127
1, 114013, Note_on_c, 1, 73, 127
1, 114013, Note_on_c, 1, 78, 127
1, 114290, Note_off_c, 1, 57, 0
1, 114290, Note_off_c, 1, 73, 0
1, 114298, Note_on_c, 1, 56, 127
1, 114298, Note_on_c, 1, 71, 127
1, 114575, Note_off_c, 1, 56, 0
1, 114575, Note_off_c, 1, 71, 0
1, 114583, Note_off_c, 1, 78, 0
1, 114585, Note_on_c, 1, 61, 127
1, 114585, Note_on_c, 1, 76, 127
1, 114862, Note_off_c, 1, 61, 0
1, 114862, Note_off_c, 1, 76, 0
1, 114870, Note_on_c, 1, 57, 127
1, 114870, Note_on_c, 1, 73, 127
1, 114870, Note_on_c, 1, 81, 127
1, 115147, Note_off_c, 1, 57, 0
1, 115147, Note_off_c, 1, 73, 0
1, 115155, Note_on_c, 1, 63, 127
1, 115155, Note_on_c, 1, 71, 127
1, 115432, Note_off_c, 1, 63, 0
1, 115440, Note_off_c, 1, 81, 0
1, 115442, Note_on_c, 1, 80, 127
1, 115442, Note_on_c, 1, 59, 127
1, 115582, Note_off_c, 1, 80, 0
1, 115585, Note_on_c, 1, 78, 127
1, 115719, Note_off_c, 1, 59, 0
1, 115727, Note_off_c, 1, 78, 0
1, 115729, Note_on_c, 1, 64, 127
1, 116006, Note_off_c, 1, 64, 0
1, 116297, Note_off_c, 1, 71, 0
1, 116300, Note_on_c, 1, 69, 127
1, 116577, Note_off_c, 1, 69, 0
1, 116585, Note_on_c, 1, 76, 127
1, 116870, Note_on_c, 1, 66, 127
1, 117153, Note_off_c, 1, 76, 0
1, 117155, Note_on_c, 1, 75, 127
1, 117432, Note_off_c, 1, 75, 0
1, 117440, Note_on_c, 1, 54, 127
1, 117725, Note_on_c, 1, 56, 127
1, 117733, Note_off_c, 1, 54, 0
1, 118008, Note_off_c, 1, 66, 0
1, 118296, Note_on_c, 1, 68, 127
1, 118573, Note_off_c, 1, 68, 0
1, 118581, Note_on_c, 1, 61, 127
1, 118863, Note_off_c, 1, 56, 0
1, 118866, Note_on_c, 1, 49, 127
1, 119143, Note_off_c, 1, 49, 0
1, 119438, Note_off_c, 1, 61, 0
1, 119440, Note_on_c, 1, 51, 127
1, 119717, Note_off_c, 1, 51, 0
1, 119727, Note_on_c, 1, 59, 127
1, 119727, Note_on_c, 1, 52, 127
1, 119727, Note_on_c, 1, 68, 127
1, 120004, Note_off_c, 1, 59, 0
1, 120012, Note_on_c, 1, 64, 127
1, 120289, Note_off_c, 1, 64, 0
1, 120297, Note_off_c, 1, 52, 0
1, 120299, Note_on_c, 1, 61, 127
1, 120299, Note_on_c, 1, 45, 127
1, 120582, Note_off_c, 1, 68, 0
1, 120584, Note_on_c, 1, 66, 127
1, 120861, Note_off_c, 1, 66, 0
1, 120870, Note_on_c, 1, 69, 127
1, 121147, Note_off_c, 1, 69, 0
1, 121154, Note_off_c, 1, 61, 0
1, 121157, Note_on_c, 1, 63, 127
1, 121439, Note_off_c, 1, 45, 0
1, 121442, Note_on_c, 1, 44, 127
1, 121442, Note_on_c, 1, 71, 127
1, 121719, Note_off_c, 1, 44, 0
1, 121723, Note_off_c, 1, 63, 0
1, 121729, Note_on_c, 1, 49, 127
1, 122006, Note_off_c, 1, 49, 0
1, 122010, Note_off_c, 1, 71, 0
1, 122016, Note_on_c, 1, 73, 127
1, 122293, Note_off_c, 1, 73, 0
1, 122301, Note_on_c, 1, 47, 127
1, 122871, Note_off_c, 1, 47, 0
1, 122873, Note_on_c, 1, 40, 127
1, 122873, Note_on_c, 1, 64, 127
1, 123202, Note_on_c, 1, 76, 127
1, 123445, Note_off_c, 1, 40, 0
1, 123481, Note_off_c, 1, 76, 0
1, 123491, Note_on_c, 1, 71, 127
1, 123738, Note_off_c, 1, 64, 0
1, 123770, Note_off_c, 1, 71, 0
1, 123781, Note_on_c, 1, 73, 127
1, 124060, Note_off_c, 1, 73, 0
1, 124070, Note_on_c, 1, 69, 127
1, 124070, Note_on_c, 1, 78, 127
1, 124349, Note_off_c, 1, 69, 0
1, 124349, Note_off_c, 1, 78, 0
1, 124359, Note_on_c, 1, 64, 127
1, 124359, Note_on_c, 1, 73, 127
1, 124638, Note_off_c, 1, 64, 0
1, 124638, Note_off_c, 1, 73, 0
1, 124648, Note_on_c, 1, 66, 127
1, 124648, Note_on_c, 1, 74, 127
1, 124927, Note_off_c, 1, 66, 0
1, 124937, Note_on_c, 1, 71, 127
1, 125216, Note_off_c, 1, 71, 0
1, 125513, Note_off_c, 1, 74, 0
1, 125515, Note_on_c, 1, 68, 127
1, 125804, Note_on_c, 1, 71, 127
1, 126083, Note_off_c, 1, 71, 0
1, 126093, Note_on_c, 1, 76, 127
1, 126237, Note_off_c, 1, 68, 0
1, 126372, Note_off_c, 1, 76, 0
1, 126382, Note_on_c, 1, 64, 127
1, 126382, Note_on_c, 1, 73, 127
1, 126661, Note_off_c, 1, 64, 0
1, 126661, Note_off_c, 1, 73, 0
1, 126671, Note_on_c, 1, 69, 127
1, 126671, Note_on_c, 1, 78, 127
1, 126950, Note_off_c, 1, 69, 0
1, 126950, Note_off_c, 1, 78, 0
1, 126960, Note_on_c, 1, 66, 127
1, 126960, Note_on_c, 1, 74, 127
1, 127239, Note_off_c, 1, 66, 0
1, 127239, Note_off_c, 1, 74, 0
1, 127250, Note_on_c, 1, 71, 127
1, 127250, Note_on_c, 1, 80, 127
1, 127529, Note_off_c, 1, 71, 0
1, 127529, Note_off_c, 1, 80, 0
1, 127539, Note_on_c, 1, 68, 127
1, 127539, Note_on_c, 1, 76, 127
1, 127818, Note_off_c, 1, 68, 0
1, 127818, Note_off_c, 1, 76, 0
1, 127828, Note_on_c, 1, 73, 127
1, 127828, Note_on_c, 1, 81, 127
1, 128107, Note_off_c, 1, 73, 0
1, 128107, Note_off_c, 1, 81, 0
1, 128117, Note_on_c, 1, 69, 127
1, 128117, Note_on_c, 1, 78, 127
1, 128372, Note_off_c, 1, 69, 0
1, 128406, Note_on_c, 1, 74, 127
1, 128693, Note_off_c, 1, 78, 0
1, 128695, Note_on_c, 1, 83, 127
1, 128974, Note_off_c, 1, 83, 0
1, 128984, Note_on_c, 1, 76, 127
1, 129263, Note_off_c, 1, 76, 0
1, 129271, Note_off_c, 1, 74, 0
1, 129273, Note_on_c, 1, 73, 127
1, 129273, Note_on_c, 1, 81, 127
1, 129552, Note_off_c, 1, 73, 0
1, 129562, Note_on_c, 1, 78, 127
1, 129841, Note_off_c, 1, 78, 0
1, 129851, Note_on_c, 1, 71, 127
1, 130138, Note_off_c, 1, 81, 0
1, 130140, Note_on_c, 1, 80, 127
1, 130282, Note_off_c, 1, 71, 0
1, 130429, Note_on_c, 1, 76, 127
1, 130571, Note_off_c, 1, 76, 0
1, 130574, Note_on_c, 1, 74, 127
1, 130716, Note_off_c, 1, 80, 0
1, 130716, Note_off_c, 1, 74, 0
1, 130718, Note_on_c, 1, 73, 127
1, 130718, Note_on_c, 1, 81, 127
1, 130718, Note_on_c, 1, 45, 127
1, 130862, Note_off_c, 1, 73, 0
1, 130865, Note_on_c, 1, 74, 127
1, 131009, Note_off_c, 1, 74, 0
1, 131012, Note_on_c, 1, 76, 127
1, 131145, Note_off_c, 1, 81, 0
1, 131156, Note_off_c, 1, 76, 0
1, 131305, Note_on_c, 1, 71, 127
1, 131449, Note_off_c, 1, 71, 0
1, 131451, Note_on_c, 1, 69, 127
1, 131595, Note_off_c, 1, 45, 0
1, 131595, Note_off_c, 1, 69, 0
1, 131598, Note_on_c, 1, 68, 127
1, 131742, Note_off_c, 1, 68, 0
1, 131744, Note_on_c, 1, 69, 127
1, 131888, Note_off_c, 1, 69, 0
1, 131891, Note_on_c, 1, 71, 127
1, 131891, Note_on_c, 1, 44, 127
1, 132035, Note_off_c, 1, 71, 0
1, 132037, Note_on_c, 1, 68, 127
1, 132174, Note_off_c, 1, 44, 0
1, 132181, Note_off_c, 1, 68, 0
1, 132184, Note_on_c, 1, 66, 127
1, 132184, Note_on_c, 1, 49, 127
1, 132328, Note_off_c, 1, 66, 0
1, 132330, Note_on_c, 1, 64, 127
1, 132467, Note_off_c, 1, 49, 0
1, 132474, Note_off_c, 1, 64, 0
1, 132477, Note_on_c, 1, 66, 127
1, 132477, Note_on_c, 1, 45, 127
1, 132621, Note_off_c, 1, 66, 0
1, 132623, Note_on_c, 1, 64, 127
1, 132760, Note_off_c, 1, 45, 0
1, 132767, Note_off_c, 1, 64, 0
1, 132770, Note_on_c, 1, 66, 127
1, 132770, Note_on_c, 1, 50, 127
1, 132914, Note_off_c, 1, 66, 0
1, 132916, Note_on_c, 1, 69, 127
1, 133053, Note_off_c, 1, 50, 0
1, 133060, Note_off_c, 1, 69, 0
1, 133063, Note_on_c, 1, 68, 127
1, 133063, Note_on_c, 1, 47, 127
1, 133207, Note_off_c, 1, 68, 0
1, 133209, Note_on_c, 1, 66, 127
1, 133346, Note_off_c, 1, 47, 0
1, 133353, Note_off_c, 1, 66, 0
1, 133356, Note_on_c, 1, 68, 127
1, 133356, Note_on_c, 1, 52, 127
1, 133500, Note_off_c, 1, 68, 0
1, 133502, Note_on_c, 1, 71, 127
1, 133639, Note_off_c, 1, 52, 0
1, 133646, Note_off_c, 1, 71, 0
1, 133649, Note_on_c, 1, 69, 127
1, 133649, Note_on_c, 1, 49, 127
1, 133793, Note_off_c, 1, 69, 0
1, 133795, Note_on_c, 1, 68, 127
1, 133932, Note_off_c, 1, 49, 0
1, 133939, Note_off_c, 1, 68, 0
1, 133942, Note_on_c, 1, 69, 127
1, 133942, Note_on_c, 1, 54, 127
1, 134086, Note_off_c, 1, 69, 0
1, 134088, Note_on_c, 1, 71, 127
1, 134225, Note_off_c, 1, 54, 0
1, 134232, Note_off_c, 1, 71, 0
1, 134235, Note_on_c, 1, 73, 127
1, 134235, Note_on_c, 1, 52, 127
1, 134379, Note_off_c, 1, 73, 0
1, 134381, Note_on_c, 1, 71, 127
1, 134518, Note_off_c, 1, 52, 0
1, 134525, Note_off_c, 1, 71, 0
1, 134528, Note_on_c, 1, 73, 127
1, 134528, Note_on_c, 1, 57, 127
1, 134672, Note_off_c, 1, 73, 0
1, 134675, Note_on_c, 1, 74, 127
1, 134811, Note_off_c, 1, 57, 0
1, 134819, Note_off_c, 1, 74, 0
1, 134821, Note_on_c, 1, 76, 127
1, 134821, Note_on_c, 1, 50, 127
1, 134965, Note_off_c, 1, 76, 0
1, 134968, Note_on_c, 1, 78, 127
1, 135112, Note_off_c, 1, 78, 0
1, 135114, Note_on_c, 1, 80, 127
1, 135258, Note_off_c, 1, 80, 0
1, 135261, Note_on_c, 1, 83, 127
1, 135405, Note_off_c, 1, 50, 0
1, 135405, Note_off_c, 1, 83, 0
1, 135407, Note_on_c, 1, 81, 127
1, 135407, Note_on_c, 1, 49, 127
1, 135551, Note_off_c, 1, 81, 0
1, 135554, Note_on_c, 1, 80, 127
1, 135690, Note_off_c, 1, 49, 0
1, 135698, Note_off_c, 1, 80, 0
1, 135700, Note_on_c, 1, 78, 127
1, 135700, Note_on_c, 1, 51, 127
1, 135844, Note_off_c, 1, 78, 0
1, 135847, Note_on_c, 1, 81, 127
1, 135983, Note_off_c, 1, 51, 0
1, 135991, Note_off_c, 1, 81, 0
1, 135993, Note_on_c, 1, 80, 127
1, 135993, Note_on_c, 1, 52, 127
1, 135993, Note_on_c, 1, 64, 127
1, 136137, Note_off_c, 1, 80, 0
1, 136140, Note_on_c, 1, 81, 127
1, 136276, Note_off_c, 1, 52, 0
1, 136284, Note_off_c, 1, 81, 0
1, 136286, Note_on_c, 1, 83, 127
1, 136286, Note_on_c, 1, 54, 127
1, 136430, Note_off_c, 1, 83, 0
1, 136433, Note_on_c, 1, 78, 127
1, 136569, Note_off_c, 1, 54, 0
1, 136577, Note_off_c, 1, 78, 0
1, 136579, Note_on_c, 1, 76, 127
1, 136579, Note_on_c, 1, 56, 127
1, 136723, Note_off_c, 1, 76, 0
1, 136725, Note_off_c, 1, 64, 0
1, 136726, Note_on_c, 1, 74, 127
1, 136862, Note_off_c, 1, 56, 0
1, 136870, Note_off_c, 1, 74, 0
1, 136872, Note_on_c, 1, 73, 127
1, 136872, Note_on_c, 1, 57, 127
1, 137165, Note_on_c, 1, 61, 127
1, 137448, Note_off_c, 1, 61, 0
1, 137452, Note_off_c, 1, 73, 0
1, 137458, Note_on_c, 1, 66, 127
1, 137741, Note_off_c, 1, 66, 0
1, 137751, Note_on_c, 1, 64, 127
1, 138034, Note_off_c, 1, 64, 0
1, 138042, Note_off_c, 1, 57, 0
1, 138044, Note_on_c, 1, 45, 127
1, 138044, Note_on_c, 1, 69, 127
1, 138044, Note_on_c, 1, 73, 127
1, 138327, Note_off_c, 1, 45, 0
1, 138327, Note_off_c, 1, 69, 0
1, 138327, Note_off_c, 1, 73, 0
1, 138338, Note_on_c, 1, 50, 127
1, 138338, Note_on_c, 1, 66, 127
1, 138338, Note_on_c, 1, 69, 127
1, 138621, Note_off_c, 1, 50, 0
1, 138621, Note_off_c, 1, 66, 0
1, 138621, Note_off_c, 1, 69, 0
1, 138631, Note_on_c, 1, 47, 127
1, 138631, Note_on_c, 1, 71, 127
1, 138631, Note_on_c, 1, 74, 127
1, 138914, Note_off_c, 1, 47, 0
1, 138914, Note_off_c, 1, 71, 0
1, 138914, Note_off_c, 1, 74, 0
1, 138924, Note_on_c, 1, 52, 127
1, 138924, Note_on_c, 1, 68, 127
1, 138924, Note_on_c, 1, 71, 127
1, 139207, Note_off_c, 1, 52, 0
1, 139207, Note_off_c, 1, 68, 0
1, 139207, Note_off_c, 1, 71, 0
1, 139217, Note_on_c, 1, 49, 127
1, 139217, Note_on_c, 1, 73, 127
1, 139217, Note_on_c, 1, 76, 127
1, 139500, Note_off_c, 1, 49, 0
1, 139500, Note_off_c, 1, 73, 0
1, 139500, Note_off_c, 1, 76, 0
1, 139510, Note_on_c, 1, 54, 127
1, 139510, Note_on_c, 1, 69, 127
1, 139510, Note_on_c, 1, 73, 127
1, 139793, Note_off_c, 1, 54, 0
1, 139793, Note_off_c, 1, 69, 0
1, 139793, Note_off_c, 1, 73, 0
1, 139803, Note_on_c, 1, 50, 127
1, 139803, Note_on_c, 1, 74, 127
1, 139803, Note_on_c, 1, 78, 127
1, 140086, Note_off_c, 1, 50, 0
1, 140086, Note_off_c, 1, 74, 0
1, 140086, Note_off_c, 1, 78, 0
1, 140096, Note_on_c, 1, 57, 127
1, 140096, Note_on_c, 1, 73, 127
1, 140096, Note_on_c, 1, 76, 127
1, 140379, Note_off_c, 1, 57, 0
1, 140379, Note_off_c, 1, 73, 0
1, 140379, Note_off_c, 1, 76, 0
1, 140389, Note_on_c, 1, 54, 127
1, 140389, Note_on_c, 1, 78, 127
1, 140389, Note_on_c, 1, 81, 127
1, 140672, Note_off_c, 1, 54, 0
1, 140672, Note_off_c, 1, 78, 0
1, 140672, Note_off_c, 1, 81, 0
1, 140682, Note_on_c, 1, 80, 127
1, 140682, Note_on_c, 1, 59, 127
1, 140682, Note_on_c, 1, 75, 127
1, 140777, Note_off_c, 1, 80, 0
1, 140779, Note_on_c, 1, 78, 127
1, 140826, Note_off_c, 1, 59, 0
1, 140828, Note_on_c, 1, 57, 127
1, 140876, Note_off_c, 1, 78, 0
1, 140972, Note_off_c, 1, 57, 0
1, 140975, Note_on_c, 1, 56, 127
1, 141072, Note_on_c, 1, 76, 127
1, 141119, Note_off_c, 1, 56, 0
1, 141121, Note_on_c, 1, 54, 127
1, 141169, Note_off_c, 1, 76, 0
1, 141262, Note_off_c, 1, 75, 0
1, 141265, Note_off_c, 1, 54, 0
1, 141268, Note_on_c, 1, 56, 127
1, 141268, Note_on_c, 1, 76, 127
1, 141412, Note_off_c, 1, 56, 0
1, 141414, Note_on_c, 1, 57, 127
1, 141414, Note_on_c, 1, 78, 127
1, 141558, Note_off_c, 1, 57, 0
1, 141558, Note_off_c, 1, 78, 0
1, 141561, Note_on_c, 1, 59, 127
1, 141561, Note_on_c, 1, 80, 127
1, 141695, Note_off_c, 1, 76, 0
1, 141705, Note_off_c, 1, 59, 0
1, 141705, Note_off_c, 1, 80, 0
1, 141707, Note_on_c, 1, 56, 127
1, 141707, Note_on_c, 1, 76, 127
1, 141851, Note_off_c, 1, 56, 0
1, 141851, Note_off_c, 1, 76, 0
1, 141854, Note_on_c, 1, 54, 127
1, 141854, Note_on_c, 1, 80, 127
1, 141998, Note_off_c, 1, 54, 0
1, 141998, Note_off_c, 1, 80, 0
1, 142001, Note_on_c, 1, 52, 127
1, 142001, Note_on_c, 1, 81, 127
1, 142145, Note_off_c, 1, 52, 0
1, 142145, Note_off_c, 1, 81, 0
1, 142147, Note_on_c, 1, 51, 127
1, 142147, Note_on_c, 1, 83, 127
1, 142291, Note_off_c, 1, 51, 0
1, 142294, Note_on_c, 1, 52, 127
1, 142438, Note_off_c, 1, 52, 0
1, 142440, Note_on_c, 1, 54, 127
1, 142440, Note_on_c, 1, 63, 127
1, 142574, Note_off_c, 1, 83, 0
1, 142584, Note_off_c, 1, 54, 0
1, 142731, Note_off_c, 1, 63, 0
1, 142733, Note_on_c, 1, 49, 127
1, 142733, Note_on_c, 1, 68, 127
1, 142877, Note_off_c, 1, 49, 0
1, 142880, Note_on_c, 1, 47, 127
1, 143024, Note_off_c, 1, 68, 0
1, 143024, Note_off_c, 1, 47, 0
1, 143026, Note_on_c, 1, 49, 127
1, 143026, Note_on_c, 1, 64, 127
1, 143170, Note_off_c, 1, 49, 0
1, 143173, Note_on_c, 1, 47, 127
1, 143317, Note_off_c, 1, 64, 0
1, 143317, Note_off_c, 1, 47, 0
1, 143319, Note_on_c, 1, 49, 127
1, 143319, Note_on_c, 1, 69, 127
1, 143463, Note_off_c, 1, 49, 0
1, 143466, Note_on_c, 1, 52, 127
1, 143610, Note_off_c, 1, 69, 0
1, 143610, Note_off_c, 1, 52, 0
1, 143612, Note_on_c, 1, 51, 127
1, 143612, Note_on_c, 1, 66, 127
1, 143756, Note_off_c, 1, 51, 0
1, 143759, Note_on_c, 1, 49, 127
1, 143903, Note_off_c, 1, 66, 0
1, 143903, Note_off_c, 1, 49, 0
1, 143905, Note_on_c, 1, 51, 127
1, 143905, Note_on_c, 1, 71, 127
1, 144049, Note_off_c, 1, 51, 0
1, 144052, Note_on_c, 1, 54, 127
1, 144196, Note_off_c, 1, 71, 0
1, 144196, Note_off_c, 1, 54, 0
1, 144198, Note_on_c, 1, 52, 127
1, 144198, Note_on_c, 1, 68, 127
1, 144342, Note_off_c, 1, 52, 0
1, 144345, Note_on_c, 1, 51, 127
1, 144489, Note_off_c, 1, 68, 0
1, 144489, Note_off_c, 1, 51, 0
1, 144491, Note_on_c, 1, 52, 127
1, 144491, Note_on_c, 1, 73, 127
1, 144635, Note_off_c, 1, 52, 0
1, 144638, Note_on_c, 1, 54, 127
1, 144782, Note_off_c, 1, 73, 0
1, 144782, Note_off_c, 1, 54, 0
1, 144784, Note_on_c, 1, 56, 127
1, 144784, Note_on_c, 1, 71, 127
1, 144928, Note_off_c, 1, 56, 0
1, 144931, Note_on_c, 1, 54, 127
1, 145075, Note_off_c, 1, 71, 0
1, 145075, Note_off_c, 1, 54, 0
1, 145077, Note_on_c, 1, 56, 127
1, 145077, Note_on_c, 1, 76, 127
1, 145221, Note_off_c, 1, 56, 0
1, 145224, Note_on_c, 1, 57, 127
1, 145368, Note_off_c, 1, 76, 0
1, 145368, Note_off_c, 1, 57, 0
1, 145370, Note_on_c, 1, 59, 127
1, 145370, Note_on_c, 1, 69, 127
1, 145514, Note_off_c, 1, 59, 0
1, 145517, Note_on_c, 1, 61, 127
1, 145661, Note_off_c, 1, 61, 0
1, 145664, Note_on_c, 1, 63, 127
1, 145808, Note_off_c, 1, 63, 0
1, 145810, Note_on_c, 1, 66, 127
1, 145954, Note_off_c, 1, 69, 0
1, 145954, Note_off_c, 1, 66, 0
1, 145957, Note_on_c, 1, 64, 127
1, 145957, Note_on_c, 1, 66, 127
1, 146101, Note_off_c, 1, 64, 0
1, 146103, Note_on_c, 1, 63, 127
1, 146247, Note_off_c, 1, 63, 0
1, 146248, Note_off_c, 1, 66, 0
1, 146250, Note_on_c, 1, 61, 127
1, 146250, Note_on_c, 1, 71, 127
1, 146394, Note_off_c, 1, 61, 0
1, 146396, Note_on_c, 1, 59, 127
1, 146540, Note_off_c, 1, 59, 0
1, 146541, Note_off_c, 1, 71, 0
1, 146543, Note_on_c, 1, 68, 127
1, 146543, Note_on_c, 1, 64, 127
1, 146832, Note_off_c, 1, 68, 0
1, 146836, Note_on_c, 1, 83, 127
1, 146836, Note_on_c, 1, 52, 127
1, 146980, Note_off_c, 1, 83, 0
1, 146982, Note_on_c, 1, 81, 127
1, 147123, Note_off_c, 1, 64, 0
1, 147126, Note_off_c, 1, 81, 0
1, 147129, Note_on_c, 1, 80, 127
1, 147129, Note_on_c, 1, 57, 127
1, 147140, Note_off_c, 1, 52, 0
1, 147273, Note_off_c, 1, 80, 0
1, 147275, Note_on_c, 1, 78, 127
1, 147419, Note_off_c, 1, 78, 0
1, 147422, Note_on_c, 1, 76, 127
1, 147422, Note_on_c, 1, 56, 127
1, 147433, Note_off_c, 1, 57, 0
1, 147566, Note_off_c, 1, 76, 0
1, 147726, Note_off_c, 1, 56, 0
1, 148008, Note_on_c, 1, 74, 127
1, 148152, Note_off_c, 1, 74, 0
1, 148154, Note_on_c, 1, 73, 127
1, 148298, Note_off_c, 1, 73, 0
1, 148301, Note_on_c, 1, 66, 127
1, 148594, Note_on_c, 1, 59, 127
1, 148605, Note_off_c, 1, 66, 0
1, 148898, Note_off_c, 1, 59, 0
1, 149180, Note_on_c, 1, 69, 127
1, 149180, Note_on_c, 1, 73, 127
1, 149324, Note_off_c, 1, 69, 0
1, 149327, Note_on_c, 1, 66, 127
1, 149471, Note_off_c, 1, 73, 0
1, 149471, Note_off_c, 1, 66, 0
1, 149473, Note_on_c, 1, 64, 127
1, 149473, Note_on_c, 1, 69, 127
1, 149617, Note_off_c, 1, 64, 0
1, 149620, Note_on_c, 1, 62, 127
1, 149764, Note_off_c, 1, 62, 0
1, 149766, Note_on_c, 1, 61, 127
1, 149766, Note_on_c, 1, 74, 127
1, 149777, Note_off_c, 1, 69, 0
1, 149910, Note_off_c, 1, 61, 0
1, 149913, Note_on_c, 1, 59, 127
1, 150057, Note_off_c, 1, 59, 0
1, 150059, Note_on_c, 1, 57, 127
1, 150059, Note_on_c, 1, 73, 127
1, 150070, Note_off_c, 1, 74, 0
1, 150203, Note_off_c, 1, 57, 0
1, 150352, Note_on_c, 1, 81, 127
1, 150395, Note_off_c, 1, 73, 0
1, 150647, Note_on_c, 1, 55, 127
1, 150658, Note_off_c, 1, 81, 0
1, 150791, Note_off_c, 1, 55, 0
1, 150794, Note_on_c, 1, 54, 127
1, 150938, Note_off_c, 1, 54, 0
1, 150940, Note_on_c, 1, 71, 127
1, 151233, Note_on_c, 1, 76, 127
1, 151276, Note_off_c, 1, 71, 0
1, 151539, Note_off_c, 1, 76, 0
1, 151821, Note_on_c, 1, 54, 127
1, 151821, Note_on_c, 1, 74, 127
1, 151965, Note_off_c, 1, 54, 0
1, 151968, Note_on_c, 1, 55, 127
1, 152112, Note_off_c, 1, 55, 0
1, 152114, Note_on_c, 1, 57, 127
1, 152405, Note_off_c, 1, 57, 0
1, 152407, Note_on_c, 1, 52, 127
1, 152407, Note_on_c, 1, 62, 127
1, 152551, Note_off_c, 1, 52, 0
1, 152554, Note_on_c, 1, 50, 127
1, 152621, Note_off_c, 1, 74, 0
1, 152698, Note_off_c, 1, 50, 0
1, 152991, Note_off_c, 1, 62, 0
1, 152993, Note_on_c, 1, 61, 127
1, 152993, Note_on_c, 1, 64, 127
1, 153284, Note_off_c, 1, 61, 0
1, 153284, Note_off_c, 1, 64, 0
1, 153287, Note_on_c, 1, 55, 127
1, 153287, Note_on_c, 1, 66, 127
1, 153287, Note_on_c, 1, 69, 127
1, 153431, Note_off_c, 1, 55, 0
1, 153433, Note_on_c, 1, 57, 127
1, 153577, Note_off_c, 1, 57, 0
1, 153578, Note_off_c, 1, 66, 0
1, 153578, Note_off_c, 1, 69, 0
1, 153580, Note_on_c, 1, 59, 127
1, 153580, Note_on_c, 1, 62, 127
1, 153580, Note_on_c, 1, 66, 127
1, 153724, Note_off_c, 1, 59, 0
1, 153726, Note_on_c, 1, 57, 127
1, 153870, Note_off_c, 1, 57, 0
1, 153871, Note_off_c, 1, 62, 0
1, 153871, Note_off_c, 1, 66, 0
1, 153873, Note_on_c, 1, 55, 127
1, 153873, Note_on_c, 1, 67, 127
1, 153873, Note_on_c, 1, 71, 127
1, 154017, Note_off_c, 1, 55, 0
1, 154019, Note_on_c, 1, 59, 127
1, 154163, Note_off_c, 1, 59, 0
1, 154164, Note_off_c, 1, 67, 0
1, 154164, Note_off_c, 1, 71, 0
1, 154166, Note_on_c, 1, 57, 127
1, 154166, Note_on_c, 1, 64, 127
1, 154166, Note_on_c, 1, 73, 127
1, 154310, Note_off_c, 1, 57, 0
1, 154312, Note_on_c, 1, 55, 127
1, 154456, Note_off_c, 1, 55, 0
1, 154457, Note_off_c, 1, 64, 0
1, 154459, Note_on_c, 1, 54, 127
1, 154459, Note_on_c, 1, 69, 127
1, 154603, Note_off_c, 1, 54, 0
1, 154605, Note_on_c, 1, 52, 127
1, 154749, Note_off_c, 1, 52, 0
1, 154750, Note_off_c, 1, 73, 0
1, 154750, Note_off_c, 1, 69, 0
1, 154752, Note_on_c, 1, 50, 127
1, 154752, Note_on_c, 1, 66, 127
1, 154752, Note_on_c, 1, 74, 127
1, 154896, Note_off_c, 1, 50, 0
1, 154898, Note_on_c, 1, 54, 127
1, 155042, Note_off_c, 1, 54, 0
1, 155043, Note_off_c, 1, 66, 0
1, 155043, Note_off_c, 1, 74, 0
1, 155045, Note_on_c, 1, 52, 127
1, 155045, Note_on_c, 1, 71, 127
1, 155045, Note_on_c, 1, 79, 127
1, 155189, Note_off_c, 1, 52, 0
1, 155191, Note_on_c, 1, 50, 127
1, 155335, Note_off_c, 1, 50, 0
1, 155336, Note_off_c, 1, 71, 0
1, 155338, Note_on_c, 1, 49, 127
1, 155338, Note_on_c, 1, 69, 127
1, 155482, Note_off_c, 1, 49, 0
1, 155484, Note_on_c, 1, 45, 127
1, 155628, Note_off_c, 1, 45, 0
1, 155629, Note_off_c, 1, 79, 0
1, 155629, Note_off_c, 1, 69, 0
1, 155631, Note_on_c, 1, 47, 127
1, 155631, Note_on_c, 1, 74, 127
1, 155631, Note_on_c, 1, 78, 127
1, 155775, Note_off_c, 1, 47, 0
1, 155777, Note_on_c, 1, 49, 127
1, 155921, Note_off_c, 1, 49, 0
1, 155922, Note_off_c, 1, 74, 0
1, 155922, Note_off_c, 1, 78, 0
1, 155924, Note_on_c, 1, 50, 127
1, 155924, Note_on_c, 1, 76, 127
1, 155924, Note_on_c, 1, 67, 127
1, 156068, Note_off_c, 1, 50, 0
1, 156070, Note_on_c, 1, 52, 127
1, 156214, Note_off_c, 1, 52, 0
1, 156215, Note_off_c, 1, 76, 0
1, 156217, Note_on_c, 1, 54, 127
1, 156217, Note_on_c, 1, 69, 127
1, 156361, Note_off_c, 1, 54, 0
1, 156363, Note_on_c, 1, 55, 127
1, 156507, Note_off_c, 1, 55, 0
1, 156508, Note_off_c, 1, 67, 0
1, 156508, Note_off_c, 1, 69, 0
1, 156510, Note_on_c, 1, 57, 127
1, 156510, Note_on_c, 1, 66, 127
1, 156510, Note_on_c, 1, 74, 127
1, 156654, Note_off_c, 1, 57, 0
1, 156656, Note_on_c, 1, 54, 127
1, 156800, Note_off_c, 1, 54, 0
1, 156801, Note_off_c, 1, 66, 0
1, 156801, Note_off_c, 1, 74, 0
1, 156803, Note_on_c, 1, 55, 127
1, 156803, Note_on_c, 1, 64, 127
1, 156803, Note_on_c, 1, 73, 127
1, 156947, Note_off_c, 1, 55, 0
1, 156950, Note_on_c, 1, 57, 127
1, 157094, Note_off_c, 1, 64, 0
1, 157094, Note_off_c, 1, 73, 0
1, 157094, Note_off_c, 1, 57, 0
1, 157096, Note_on_c, 1, 74, 127
1, 157096, Note_on_c, 1, 50, 127
1, 157096, Note_on_c, 1, 66, 127
1, 157391, Note_off_c, 1, 74, 0
1, 157393, Note_on_c, 1, 78, 127
1, 157539, Note_off_c, 1, 78, 0
1, 157542, Note_on_c, 1, 76, 127
1, 157688, Note_off_c, 1, 76, 0
1, 157839, Note_on_c, 1, 73, 127
1, 157985, Note_off_c, 1, 50, 0
1, 157985, Note_off_c, 1, 66, 0
1, 157985, Note_off_c, 1, 73, 0
1, 157987, Note_on_c, 1, 71, 127
1, 158136, Note_on_c, 1, 74, 127
1, 158282, Note_off_c, 1, 71, 0
1, 158282, Note_off_c, 1, 74, 0
1, 158284, Note_on_c, 1, 73, 127
1, 158284, Note_on_c, 1, 49, 127
1, 158284, Note_on_c, 1, 76, 127
1, 158430, Note_off_c, 1, 73, 0
1, 158433, Note_on_c, 1, 71, 127
1, 158579, Note_off_c, 1, 49, 0
1, 158579, Note_off_c, 1, 71, 0
1, 158581, Note_on_c, 1, 70, 127
1, 158581, Note_on_c, 1, 54, 127
1, 158727, Note_off_c, 1, 70, 0
1, 158730, Note_on_c, 1, 68, 127
1, 158876, Note_off_c, 1, 54, 0
1, 158876, Note_off_c, 1, 68, 0
1, 158878, Note_on_c, 1, 66, 127
1, 158878, Note_on_c, 1, 50, 127
1, 159024, Note_off_c, 1, 66, 0
1, 159173, Note_off_c, 1, 76, 0
1, 159173, Note_off_c, 1, 50, 0
1, 159175, Note_on_c, 1, 71, 127
1, 159175, Note_on_c, 1, 55, 127
1, 159175, Note_on_c, 1, 74, 127
1, 159321, Note_off_c, 1, 71, 0
1, 159324, Note_on_c, 1, 69, 127
1, 159470, Note_off_c, 1, 55, 0
1, 159470, Note_off_c, 1, 69, 0
1, 159472, Note_on_c, 1, 67, 127
1, 159472, Note_on_c, 1, 52, 127
1, 159618, Note_off_c, 1, 67, 0
1, 159621, Note_on_c, 1, 66, 127
1, 159767, Note_off_c, 1, 52, 0
1, 159767, Note_off_c, 1, 66, 0
1, 159769, Note_on_c, 1, 64, 127
1, 159769, Note_on_c, 1, 58, 127
1, 159915, Note_off_c, 1, 64, 0
1, 160064, Note_off_c, 1, 74, 0
1, 160064, Note_off_c, 1, 58, 0
1, 160066, Note_on_c, 1, 70, 127
1, 160066, Note_on_c, 1, 54, 127
1, 160066, Note_on_c, 1, 73, 127
1, 160212, Note_off_c, 1, 70, 0
1, 160215, Note_on_c, 1, 68, 127
1, 160361, Note_off_c, 1, 54, 0
1, 160361, Note_off_c, 1, 68, 0
1, 160363, Note_on_c, 1, 66, 127
1, 160363, Note_on_c, 1, 59, 127
1, 160509, Note_off_c, 1, 66, 0
1, 160512, Note_on_c, 1, 64, 127
1, 160658, Note_off_c, 1, 59, 0
1, 160658, Note_off_c, 1, 64, 0
1, 160660, Note_on_c, 1, 56, 127
1, 160660, Note_on_c, 1, 62, 127
1, 160806, Note_off_c, 1, 73, 0
1, 160809, Note_on_c, 1, 71, 127
1, 160955, Note_off_c, 1, 56, 0
1, 160955, Note_off_c, 1, 62, 0
1, 160955, Note_off_c, 1, 71, 0
1, 160957, Note_on_c, 1, 70, 127
1, 160957, Note_on_c, 1, 61, 127
1, 160957, Note_on_c, 1, 64, 127
1, 161103, Note_off_c, 1, 70, 0
1, 161106, Note_on_c, 1, 71, 127
1, 161252, Note_off_c, 1, 61, 0
1, 161252, Note_off_c, 1, 71, 0
1, 161254, Note_on_c, 1, 73, 127
1, 161254, Note_on_c, 1, 58, 127
1, 161400, Note_off_c, 1, 73, 0
1, 161403, Note_on_c, 1, 74, 127
1, 161549, Note_off_c, 1, 64, 0
1, 161549, Note_off_c, 1, 58, 0
1, 161549, Note_off_c, 1, 74, 0
1, 161551, Note_on_c, 1, 76, 127
1, 161551, Note_on_c, 1, 62, 127
1, 161551, Note_on_c, 1, 66, 127
1, 161697, Note_off_c, 1, 76, 0
1, 161700, Note_on_c, 1, 74, 127
1, 161846, Note_off_c, 1, 62, 0
1, 161846, Note_off_c, 1, 66, 0
1, 161846, Note_off_c, 1, 74, 0
1, 161848, Note_on_c, 1, 76, 127
1, 161848, Note_on_c, 1, 59, 127
1, 161848, Note_on_c, 1, 71, 127
1, 161994, Note_off_c, 1, 76, 0
1, 161997, Note_on_c, 1, 78, 127
1, 162143, Note_off_c, 1, 59, 0
1, 162143, Note_off_c, 1, 78, 0
1, 162145, Note_on_c, 1, 79, 127
1, 162145, Note_on_c, 1, 64, 127
1, 162291, Note_off_c, 1, 79, 0
1, 162440, Note_off_c, 1, 71, 0
1, 162442, Note_on_c, 1, 82, 127
1, 162442, Note_on_c, 1, 73, 127
1, 162588, Note_off_c, 1, 82, 0
1, 162737, Note_off_c, 1, 64, 0
1, 162737, Note_off_c, 1, 73, 0
1, 162739, Note_on_c, 1, 83, 127
1, 162739, Note_on_c, 1, 62, 127
1, 162739, Note_on_c, 1, 66, 127
1, 162885, Note_off_c, 1, 83, 0
1, 162888, Note_on_c, 1, 81, 127
1, 163034, Note_off_c, 1, 62, 0
1, 163034, Note_off_c, 1, 81, 0
1, 163036, Note_on_c, 1, 79, 127
1, 163036, Note_on_c, 1, 61, 127
1, 163182, Note_off_c, 1, 79, 0
1, 163185, Note_on_c, 1, 78, 127
1, 163331, Note_off_c, 1, 66, 0
1, 163331, Note_off_c, 1, 61, 0
1, 163331, Note_off_c, 1, 78, 0
1, 163333, Note_on_c, 1, 76, 127
1, 163333, Note_on_c, 1, 59, 127
1, 163333, Note_on_c, 1, 67, 127
1, 163479, Note_off_c, 1, 76, 0
1, 163482, Note_on_c, 1, 74, 127
1, 163628, Note_off_c, 1, 59, 0
1, 163628, Note_off_c, 1, 67, 0
1, 163628, Note_off_c, 1, 74, 0
1, 163630, Note_on_c, 1, 73, 127
1, 163630, Note_on_c, 1, 55, 127
1, 163630, Note_on_c, 1, 64, 127
1, 163776, Note_off_c, 1, 73, 0
1, 163779, Note_on_c, 1, 71, 127
1, 163925, Note_off_c, 1, 55, 0
1, 163925, Note_off_c, 1, 64, 0
1, 163925, Note_off_c, 1, 71, 0
1, 163927, Note_on_c, 1, 70, 127
1, 163927, Note_on_c, 1, 50, 127
1, 163927, Note_on_c, 1, 66, 127
1, 164073, Note_off_c, 1, 70, 0
1, 164076, Note_on_c, 1, 71, 127
1, 164222, Note_off_c, 1, 50, 0
1, 164222, Note_off_c, 1, 66, 0
1, 164222, Note_off_c, 1, 71, 0
1, 164224, Note_on_c, 1, 79, 127
1, 164224, Note_on_c, 1, 52, 127
1, 164224, Note_on_c, 1, 59, 127
1, 164370, Note_off_c, 1, 79, 0
1, 164373, Note_on_c, 1, 78, 127
1, 164519, Note_off_c, 1, 52, 0
1, 164519, Note_off_c, 1, 59, 0
1, 164519, Note_off_c, 1, 78, 0
1, 164521, Note_on_c, 1, 76, 127
1, 164521, Note_on_c, 1, 58, 127
1, 164521, Note_on_c, 1, 54, 127
1, 164667, Note_off_c, 1, 76, 0
1, 164670, Note_on_c, 1, 74, 127
1, 164814, Note_off_c, 1, 58, 0
1, 164816, Note_off_c, 1, 74, 0
1, 164818, Note_on_c, 1, 73, 127
1, 164818, Note_on_c, 1, 42, 127
1, 164964, Note_off_c, 1, 73, 0
1, 164967, Note_on_c, 1, 71, 127
1, 165109, Note_off_c, 1, 54, 0
1, 165113, Note_off_c, 1, 42, 0
1, 165113, Note_off_c, 1, 71, 0
1, 165115, Note_on_c, 1, 47, 127
1, 165115, Note_on_c, 1, 71, 127
1, 165261, Note_off_c, 1, 47, 0
1, 165264, Note_on_c, 1, 54, 127
1, 165410, Note_off_c, 1, 71, 0
1, 165410, Note_off_c, 1, 54, 0
1, 165412, Note_on_c, 1, 59, 127
1, 165412, Note_on_c, 1, 66, 127
1, 165412, Note_on_c, 1, 74, 127
1, 165558, Note_off_c, 1, 59, 0
1, 165561, Note_on_c, 1, 57, 127
1, 165707, Note_off_c, 1, 66, 0
1, 165707, Note_off_c, 1, 57, 0
1, 165709, Note_on_c, 1, 56, 127
1, 165709, Note_on_c, 1, 71, 127
1, 165855, Note_off_c, 1, 56, 0
1, 165858, Note_on_c, 1, 54, 127
1, 166004, Note_off_c, 1, 71, 0
1, 166004, Note_off_c, 1, 54, 0
1, 166006, Note_on_c, 1, 52, 127
1, 166006, Note_on_c, 1, 68, 127
1, 166152, Note_off_c, 1, 52, 0
1, 166301, Note_off_c, 1, 74, 0
1, 166452, Note_on_c, 1, 50, 127
1, 166598, Note_off_c, 1, 50, 0
1, 166600, Note_on_c, 1, 49, 127
1, 166600, Note_on_c, 1, 76, 127
1, 166746, Note_off_c, 1, 49, 0
1, 166749, Note_on_c, 1, 47, 127
1, 166895, Note_off_c, 1, 76, 0
1, 166895, Note_off_c, 1, 47, 0
1, 166897, Note_on_c, 1, 45, 127
1, 166897, Note_on_c, 1, 73, 127
1, 167043, Note_off_c, 1, 45, 0
1, 167192, Note_off_c, 1, 68, 0
1, 167192, Note_off_c, 1, 73, 0
1, 167194, Note_on_c, 1, 45, 127
1, 167194, Note_on_c, 1, 73, 127
1, 167194, Note_on_c, 1, 78, 127
1, 167340, Note_off_c, 1, 45, 0
1, 167343, Note_on_c, 1, 44, 127
1, 167489, Note_off_c, 1, 73, 0
1, 167489, Note_off_c, 1, 78, 0
1, 167489, Note_off_c, 1, 44, 0
1, 167491, Note_on_c, 1, 42, 127
1, 167491, Note_on_c, 1, 75, 127
1, 167491, Note_on_c, 1, 69, 127
1, 167637, Note_off_c, 1, 42, 0
1, 167640, Note_on_c, 1, 40, 127
1, 167786, Note_off_c, 1, 75, 0
1, 167786, Note_off_c, 1, 40, 0
1, 167788, Note_on_c, 1, 39, 127
1, 167788, Note_on_c, 1, 71, 127
1, 167934, Note_off_c, 1, 39, 0
1, 167937, Note_on_c, 1, 47, 127
1, 168083, Note_off_c, 1, 69, 0
1, 168083, Note_off_c, 1, 47, 0
1, 168085, Note_on_c, 1, 52, 127
1, 168085, Note_on_c, 1, 68, 127
1, 168231, Note_off_c, 1, 52, 0
1, 168234, Note_on_c, 1, 51, 127
1, 168380, Note_off_c, 1, 68, 0
1, 168380, Note_off_c, 1, 51, 0
1, 168382, Note_on_c, 1, 49, 127
1, 168382, Note_on_c, 1, 63, 127
1, 168528, Note_off_c, 1, 49, 0
1, 168677, Note_off_c, 1, 63, 0
1, 168679, Note_on_c, 1, 64, 127
1, 168828, Note_on_c, 1, 56, 127
1, 168974, Note_off_c, 1, 71, 0
1, 168974, Note_off_c, 1, 56, 0
1, 168976, Note_on_c, 1, 61, 127
1, 169122, Note_off_c, 1, 61, 0
1, 169125, Note_on_c, 1, 59, 127
1, 169271, Note_off_c, 1, 59, 0
1, 169273, Note_on_c, 1, 57, 127
1, 169273, Note_on_c, 1, 73, 127
1, 169419, Note_off_c, 1, 57, 0
1, 169568, Note_off_c, 1, 73, 0
1, 169570, Note_on_c, 1, 54, 127
1, 169716, Note_off_c, 1, 54, 0
1, 169865, Note_off_c, 1, 64, 0
1, 170164, Note_on_c, 1, 66, 127
1, 170459, Note_off_c, 1, 66, 0
1, 170758, Note_on_c, 1, 47, 127
1, 170758, Note_on_c, 1, 68, 127
1, 170758, Note_on_c, 1, 71, 127
1, 170904, Note_off_c, 1, 47, 0
1, 170907, Note_on_c, 1, 45, 127
1, 171053, Note_off_c, 1, 68, 0
1, 171053, Note_off_c, 1, 45, 0
1, 171055, Note_on_c, 1, 44, 127
1, 171055, Note_on_c, 1, 65, 127
1, 171201, Note_off_c, 1, 44, 0
1, 171204, Note_on_c, 1, 42, 127
1, 171350, Note_off_c, 1, 65, 0
1, 171350, Note_off_c, 1, 42, 0
1, 171352, Note_on_c, 1, 41, 127
1, 171352, Note_on_c, 1, 61, 127
1, 171498, Note_off_c, 1, 41, 0
1, 171501, Note_on_c, 1, 49, 127
1, 171647, Note_off_c, 1, 71, 0
1, 171647, Note_off_c, 1, 49, 0
1, 171649, Note_on_c, 1, 54, 127
1, 171649, Note_on_c, 1, 69, 127
1, 171795, Note_off_c, 1, 54, 0
1, 171798, Note_on_c, 1, 52, 127
1, 171944, Note_off_c, 1, 69, 0
1, 171944, Note_off_c, 1, 52, 0
1, 171946, Note_on_c, 1, 50, 127
1, 172092, Note_off_c, 1, 50, 0
1, 172243, Note_on_c, 1, 66, 127
1, 172538, Note_off_c, 1, 61, 0
1, 172540, Note_on_c, 1, 57, 127
1, 172835, Note_off_c, 1, 57, 0
1, 172837, Note_on_c, 1, 62, 127
1, 173132, Note_off_c, 1, 62, 0
1, 173134, Note_on_c, 1, 59, 127
1, 173429, Note_off_c, 1, 66, 0
1, 173431, Note_on_c, 1, 63, 127
1, 173726, Note_off_c, 1, 63, 0
1, 173877, Note_on_c, 1, 39, 127
1, 174023, Note_off_c, 1, 39, 0
1, 174025, Note_on_c, 1, 37, 127
1, 174320, Note_off_c, 1, 59, 0
1, 174320, Note_off_c, 1, 37, 0
1, 174330, Note_on_c, 1, 63, 127
1, 174330, Note_on_c, 1, 45, 127
1, 174330, Note_on_c, 1, 57, 127
1, 174476, Note_off_c, 1, 63, 0
1, 174479, Note_on_c, 1, 65, 127
1, 174625, Note_off_c, 1, 45, 0
1, 174625, Note_off_c, 1, 57, 0
1, 174625, Note_off_c, 1, 65, 0
1, 174627, Note_on_c, 1, 66, 127
1, 174627, Note_on_c, 1, 50, 127
1, 174627, Note_on_c, 1, 59, 127
1, 174773, Note_off_c, 1, 66, 0
1, 174776, Note_on_c, 1, 68, 127
1, 174922, Note_off_c, 1, 50, 0
1, 174922, Note_off_c, 1, 59, 0
1, 174922, Note_off_c, 1, 68, 0
1, 174924, Note_on_c, 1, 69, 127
1, 174924, Note_on_c, 1, 49, 127
1, 174924, Note_on_c, 1, 53, 127
1, 175070, Note_off_c, 1, 69, 0
1, 175073, Note_on_c, 1, 66, 127
1, 175219, Note_off_c, 1, 49, 0
1, 175219, Note_off_c, 1, 53, 0
1, 175219, Note_off_c, 1, 66, 0
1, 175221, Note_on_c, 1, 68, 127
1, 175221, Note_on_c, 1, 54, 127
1, 175367, Note_off_c, 1, 68, 0
1, 175370, Note_on_c, 1, 69, 127
1, 175516, Note_off_c, 1, 54, 0
1, 175516, Note_off_c, 1, 69, 0
1, 175518, Note_on_c, 1, 71, 127
1, 175518, Note_on_c, 1, 51, 127
1, 175664, Note_off_c, 1, 71, 0
1, 175667, Note_on_c, 1, 73, 127
1, 175813, Note_off_c, 1, 51, 0
1, 175813, Note_off_c, 1, 73, 0
1, 175815, Note_on_c, 1, 74, 127
1, 175815, Note_on_c, 1, 56, 127
1, 175961, Note_off_c, 1, 74, 0
1, 175964, Note_on_c, 1, 71, 127
1, 176110, Note_off_c, 1, 56, 0
1, 176110, Note_off_c, 1, 71, 0
1, 176112, Note_on_c, 1, 73, 127
1, 176112, Note_on_c, 1, 53, 127
1, 176258, Note_off_c, 1, 73, 0
1, 176261, Note_on_c, 1, 75, 127
1, 176407, Note_off_c, 1, 53, 0
1, 176407, Note_off_c, 1, 75, 0
1, 176409, Note_on_c, 1, 77, 127
1, 176409, Note_on_c, 1, 57, 127
1, 176555, Note_off_c, 1, 77, 0
1, 176558, Note_on_c, 1, 78, 127
1, 176704, Note_off_c, 1, 57, 0
1, 176704, Note_off_c, 1, 78, 0
1, 176706, Note_on_c, 1, 74, 127
1, 176706, Note_on_c, 1, 54, 127
1, 176852, Note_off_c, 1, 74, 0
1, 176855, Note_on_c, 1, 76, 127
1, 177001, Note_off_c, 1, 54, 0
1, 177001, Note_off_c, 1, 76, 0
1, 177003, Note_on_c, 1, 74, 127
1, 177003, Note_on_c, 1, 59, 127
1, 177149, Note_off_c, 1, 74, 0
1, 177152, Note_on_c, 1, 73, 127
1, 177298, Note_off_c, 1, 59, 0
1, 177298, Note_off_c, 1, 73, 0
1, 177300, Note_on_c, 1, 71, 127
1, 177300, Note_on_c, 1, 56, 127
1, 177446, Note_off_c, 1, 71, 0
1, 177449, Note_on_c, 1, 69, 127
1, 177595, Note_off_c, 1, 56, 0
1, 177595, Note_off_c, 1, 69, 0
1, 177597, Note_on_c, 1, 68, 127
1, 177597, Note_on_c, 1, 61, 127
1, 177743, Note_off_c, 1, 68, 0
1, 177746, Note_on_c, 1, 71, 127
1, 177892, Note_off_c, 1, 61, 0
1, 177892, Note_off_c, 1, 71, 0
1, 177894, Note_on_c, 1, 69, 127
1, 177894, Note_on_c, 1, 57, 127
1, 178040, Note_off_c, 1, 69, 0
1, 178043, Note_on_c, 1, 68, 127
1, 178189, Note_off_c, 1, 57, 0
1, 178189, Note_off_c, 1, 68, 0
1, 178191, Note_on_c, 1, 66, 127
1, 178191, Note_on_c, 1, 62, 127
1, 178337, Note_off_c, 1, 66, 0
1, 178340, Note_on_c, 1, 65, 127
1, 178450, Note_off_c, 1, 65, 0
1, 178488, Note_on_c, 1, 71, 127
1, 178634, Note_off_c, 1, 62, 0
1, 178637, Note_on_c, 1, 64, 127
1, 178783, Note_off_c, 1, 64, 0
1, 178785, Note_on_c, 1, 68, 127
1, 178934, Note_on_c, 1, 61, 127
1, 179080, Note_off_c, 1, 68, 0
1, 179080, Note_off_c, 1, 61, 0
1, 179082, Note_on_c, 1, 59, 127
1, 179082, Note_on_c, 1, 63, 127
1, 179228, Note_off_c, 1, 59, 0
1, 179231, Note_on_c, 1, 57, 127
1, 179377, Note_off_c, 1, 63, 0
1, 179377, Note_off_c, 1, 57, 0
1, 179382, Note_on_c, 1, 56, 127
1, 179525, Note_off_c, 1, 71, 0
1, 179536, Note_on_c, 1, 69, 127
1, 179677, Note_off_c, 1, 56, 0
1, 179682, Note_off_c, 1, 69, 0
1, 179684, Note_on_c, 1, 71, 127
1, 179684, Note_on_c, 1, 53, 127
1, 179684, Note_on_c, 1, 61, 127
1, 179830, Note_off_c, 1, 71, 0
1, 179833, Note_on_c, 1, 68, 127
1, 179979, Note_off_c, 1, 53, 0
1, 179979, Note_off_c, 1, 61, 0
1, 179979, Note_off_c, 1, 68, 0
1, 179981, Note_on_c, 1, 54, 127
1, 179981, Note_on_c, 1, 69, 127
1, 179981, Note_on_c, 1, 66, 127
1, 180276, Note_off_c, 1, 54, 0
1, 180278, Note_on_c, 1, 47, 127
1, 180424, Note_off_c, 1, 69, 0
1, 180427, Note_on_c, 1, 71, 127
1, 180573, Note_off_c, 1, 66, 0
1, 180573, Note_off_c, 1, 47, 0
1, 180573, Note_off_c, 1, 71, 0
1, 180575, Note_on_c, 1, 69, 127
1, 180575, Note_on_c, 1, 49, 127
1, 180575, Note_on_c, 1, 65, 127
1, 180648, Note_off_c, 1, 69, 0
1, 180650, Note_on_c, 1, 68, 127
1, 180723, Note_off_c, 1, 68, 0
1, 180873, Note_off_c, 1, 49, 0
1, 180876, Note_on_c, 1, 37, 127
1, 181026, Note_on_c, 1, 66, 127
1, 181172, Note_off_c, 1, 65, 0
1, 181172, Note_off_c, 1, 66, 0
1, 181173, Note_off_c, 1, 37, 0
1, 181175, Note_on_c, 1, 42, 127
1, 181175, Note_on_c, 1, 66, 127
1, 181468, Note_off_c, 1, 42, 0
1, 181468, Note_off_c, 1, 66, 0
1, 181474, Note_on_c, 1, 45, 127
1, 181474, Note_on_c, 1, 61, 127
1, 181767, Note_off_c, 1, 45, 0
1, 181773, Note_on_c, 1, 42, 127
1, 181773, Note_on_c, 1, 66, 127
1, 182066, Note_off_c, 1, 42, 0
1, 182066, Note_off_c, 1, 66, 0
1, 182072, Note_on_c, 1, 49, 127
1, 182072, Note_on_c, 1, 64, 127
1, 182370, Note_off_c, 1, 61, 0
1, 182373, Note_on_c, 1, 56, 127
1, 182666, Note_off_c, 1, 56, 0
1, 182669, Note_off_c, 1, 49, 0
1, 182669, Note_off_c, 1, 64, 0
1, 182672, Note_on_c, 1, 45, 127
1, 182672, Note_on_c, 1, 61, 127
1, 182672, Note_on_c, 1, 69, 127
1, 182965, Note_off_c, 1, 45, 0
1, 182965, Note_off_c, 1, 61, 0
1, 182965, Note_off_c, 1, 69, 0
1, 182971, Note_on_c, 1, 50, 127
1, 182971, Note_on_c, 1, 57, 127
1, 182971, Note_on_c, 1, 66, 127
1, 183264, Note_off_c, 1, 50, 0
1, 183264, Note_off_c, 1, 57, 0
1, 183264, Note_off_c, 1, 66, 0
1, 183270, Note_on_c, 1, 47, 127
1, 183270, Note_on_c, 1, 62, 127
1, 183270, Note_on_c, 1, 71, 127
1, 183563, Note_off_c, 1, 47, 0
1, 183563, Note_off_c, 1, 62, 0
1, 183563, Note_off_c, 1, 71, 0
1, 183569, Note_on_c, 1, 52, 127
1, 183569, Note_on_c, 1, 59, 127
1, 183569, Note_on_c, 1, 68, 127
1, 183862, Note_off_c, 1, 52, 0
1, 183862, Note_off_c, 1, 59, 0
1, 183862, Note_off_c, 1, 68, 0
1, 183868, Note_on_c, 1, 49, 127
1, 183868, Note_on_c, 1, 64, 127
1, 183868, Note_on_c, 1, 73, 127
1, 184161, Note_off_c, 1, 49, 0
1, 184161, Note_off_c, 1, 64, 0
1, 184161, Note_off_c, 1, 73, 0
1, 184167, Note_on_c, 1, 54, 127
1, 184167, Note_on_c, 1, 61, 127
1, 184167, Note_on_c, 1, 69, 127
1, 184460, Note_off_c, 1, 54, 0
1, 184460, Note_off_c, 1, 61, 0
1, 184460, Note_off_c, 1, 69, 0
1, 184466, Note_on_c, 1, 50, 127
1, 184466, Note_on_c, 1, 66, 127
1, 184466, Note_on_c, 1, 74, 127
1, 184759, Note_off_c, 1, 50, 0
1, 184759, Note_off_c, 1, 66, 0
1, 184765, Note_on_c, 1, 57, 127
1, 184765, Note_on_c, 1, 64, 127
1, 185058, Note_off_c, 1, 57, 0
1, 185058, Note_off_c, 1, 64, 0
1, 185061, Note_off_c, 1, 74, 0
1, 185064, Note_on_c, 1, 45, 127
1, 185064, Note_on_c, 1, 69, 127
1, 185064, Note_on_c, 1, 73, 127
1, 185357, Note_off_c, 1, 45, 0
1, 185357, Note_off_c, 1, 69, 0
1, 185357, Note_off_c, 1, 73, 0
1, 185363, Note_on_c, 1, 47, 127
1, 185363, Note_on_c, 1, 71, 127
1, 185363, Note_on_c, 1, 62, 127
1, 185656, Note_off_c, 1, 47, 0
1, 185656, Note_off_c, 1, 71, 0
1, 185662, Note_on_c, 1, 49, 127
1, 185662, Note_on_c, 1, 64, 127
1, 185955, Note_off_c, 1, 49, 0
1, 185955, Note_off_c, 1, 64, 0
1, 185958, Note_off_c, 1, 62, 0
1, 185961, Note_on_c, 1, 54, 127
1, 185961, Note_on_c, 1, 61, 127
1, 185961, Note_on_c, 1, 69, 127
1, 186254, Note_off_c, 1, 54, 0
1, 186254, Note_off_c, 1, 61, 0
1, 186260, Note_on_c, 1, 47, 127
1, 186260, Note_on_c, 1, 63, 127
1, 186553, Note_off_c, 1, 47, 0
1, 186553, Note_off_c, 1, 63, 0
1, 186559, Note_on_c, 1, 64, 127
1, 186559, Note_on_c, 1, 52, 127
1, 186852, Note_off_c, 1, 64, 0
1, 186855, Note_off_c, 1, 69, 0
1, 186858, Note_on_c, 1, 59, 127
1, 186858, Note_on_c, 1, 68, 127
1, 187151, Note_off_c, 1, 59, 0
1, 187151, Note_off_c, 1, 68, 0
1, 187157, Note_on_c, 1, 71, 127
1, 187157, Note_on_c, 1, 62, 127
1, 187450, Note_off_c, 1, 71, 0
1, 187752, Note_off_c, 1, 52, 0
1, 187752, Note_off_c, 1, 62, 0
1, 187755, Note_on_c, 1, 49, 127
1, 187755, Note_on_c, 1, 61, 127
1, 187755, Note_on_c, 1, 69, 127
1, 188048, Note_off_c, 1, 49, 0
1, 188048, Note_off_c, 1, 61, 0
1, 188054, Note_on_c, 1, 54, 127
1, 188054, Note_on_c, 1, 63, 127
1, 188235, Note_off_c, 1, 69, 0
1, 188347, Note_off_c, 1, 54, 0
1, 188347, Note_off_c, 1, 63, 0
1, 188352, Note_on_c, 1, 52, 127
1, 188352, Note_on_c, 1, 68, 127
1, 188352, Note_on_c, 1, 64, 127
1, 188645, Note_off_c, 1, 52, 0
1, 188645, Note_off_c, 1, 68, 0
1, 188651, Note_on_c, 1, 57, 127
1, 188651, Note_on_c, 1, 73, 127
1, 188944, Note_off_c, 1, 57, 0
1, 188944, Note_off_c, 1, 73, 0
1, 188947, Note_off_c, 1, 64, 0
1, 188950, Note_on_c, 1, 54, 127
1, 188950, Note_on_c, 1, 69, 127
1, 188950, Note_on_c, 1, 66, 127
1, 189243, Note_off_c, 1, 54, 0
1, 189243, Note_off_c, 1, 69, 0
1, 189249, Note_on_c, 1, 59, 127
1, 189249, Note_on_c, 1, 74, 127
1, 189542, Note_off_c, 1, 59, 0
1, 189545, Note_off_c, 1, 66, 0
1, 189548, Note_on_c, 1, 56, 127
1, 189548, Note_on_c, 1, 71, 127
1, 189841, Note_off_c, 1, 56, 0
1, 189841, Note_off_c, 1, 71, 0
1, 189847, Note_on_c, 1, 61, 127
1, 189847, Note_on_c, 1, 64, 127
1, 190140, Note_off_c, 1, 61, 0
1, 190143, Note_off_c, 1, 74, 0
1, 190146, Note_on_c, 1, 57, 127
1, 190146, Note_on_c, 1, 73, 127
1, 190439, Note_off_c, 1, 57, 0
1, 190439, Note_off_c, 1, 73, 0
1, 190442, Note_off_c, 1, 64, 0
1, 190445, Note_on_c, 1, 62, 127
1, 190445, Note_on_c, 1, 78, 127
1, 190738, Note_off_c, 1, 62, 0
1, 190744, Note_on_c, 1, 54, 127
1, 190744, Note_on_c, 1, 61, 127
1, 191037, Note_off_c, 1, 54, 0
1, 191037, Note_off_c, 1, 61, 0
1, 191043, Note_on_c, 1, 56, 127
1, 191043, Note_on_c, 1, 59, 127
1, 191336, Note_off_c, 1, 56, 0
1, 191336, Note_off_c, 1, 59, 0
1, 191339, Note_off_c, 1, 78, 0
1, 191342, Note_on_c, 1, 52, 127
1, 191342, Note_on_c, 1, 68, 127
1, 191342, Note_on_c, 1, 76, 127
1, 191635, Note_off_c, 1, 52, 0
1, 191635, Note_off_c, 1, 68, 0
1, 191635, Note_off_c, 1, 76, 0
1, 191641, Note_on_c, 1, 56, 127
1, 191641, Note_on_c, 1, 71, 127
1, 191641, Note_on_c, 1, 74, 127
1, 191934, Note_off_c, 1, 56, 0
1, 191934, Note_off_c, 1, 71, 0
1, 191940, Note_on_c, 1, 57, 127
1, 191940, Note_on_c, 1, 64, 127
1, 192233, Note_off_c, 1, 57, 0
1, 192236, Note_off_c, 1, 74, 0
1, 192239, Note_on_c, 1, 45, 127
1, 192239, Note_on_c, 1, 73, 127
1, 192532, Note_off_c, 1, 45, 0
1, 192538, Note_on_c, 1, 49, 127
1, 192831, Note_off_c, 1, 49, 0
1, 192837, Note_on_c, 1, 38, 127
1, 192989, Note_off_c, 1, 73, 0
1, 193114, Note_off_c, 1, 64, 0
1, 193138, Note_on_c, 1, 62, 127
1, 193431, Note_off_c, 1, 62, 0
1, 193434, Note_off_c, 1, 38, 0
1, 193437, Note_on_c, 1, 66, 127
1, 193437, Note_on_c, 1, 50, 127
1, 193437, Note_on_c, 1, 69, 127
1, 193730, Note_off_c, 1, 66, 0
1, 193736, Note_on_c, 1, 59, 127
1, 194034, Note_off_c, 1, 50, 0
1, 194034, Note_off_c, 1, 69, 0
1, 194037, Note_on_c, 1, 52, 127
1, 194037, Note_on_c, 1, 68, 127
1, 194330, Note_off_c, 1, 52, 0
1, 194330, Note_off_c, 1, 68, 0
1, 194336, Note_on_c, 1, 47, 127
1, 194336, Note_on_c, 1, 71, 127
1, 194629, Note_off_c, 1, 47, 0
1, 194629, Note_off_c, 1, 71, 0
1, 194635, Note_on_c, 1, 49, 127
1, 194635, Note_on_c, 1, 76, 127
1, 194910, Note_off_c, 1, 59, 0
1, 194936, Note_on_c, 1, 57, 127
1, 195229, Note_off_c, 1, 57, 0
1, 195235, Note_on_c, 1, 61, 127
1, 195528, Note_off_c, 1, 61, 0
1, 195832, Note_off_c, 1, 49, 0
1, 195835, Note_on_c, 1, 42, 127
1, 196128, Note_off_c, 1, 42, 0
1, 196131, Note_off_c, 1, 76, 0
1, 196134, Note_on_c, 1, 74, 127
1, 196433, Note_on_c, 1, 44, 127
1, 196726, Note_off_c, 1, 44, 0
1, 196729, Note_off_c, 1, 74, 0
1, 196732, Note_on_c, 1, 64, 127
1, 196732, Note_on_c, 1, 45, 127
1, 196732, Note_on_c, 1, 73, 127
1, 197025, Note_off_c, 1, 64, 0
1, 197031, Note_on_c, 1, 69, 127
1, 197324, Note_off_c, 1, 69, 0
1, 197327, Note_off_c, 1, 45, 0
1, 197330, Note_on_c, 1, 38, 127
1, 197330, Note_on_c, 1, 66, 127
1, 197623, Note_off_c, 1, 38, 0
1, 197626, Note_off_c, 1, 73, 0
1, 197629, Note_on_c, 1, 71, 127
1, 197629, Note_on_c, 1, 50, 127
1, 197922, Note_off_c, 1, 71, 0
1, 197928, Note_on_c, 1, 74, 127
1, 198221, Note_off_c, 1, 74, 0
1, 198224, Note_off_c, 1, 66, 0
1, 198227, Note_on_c, 1, 68, 127
1, 198520, Note_off_c, 1, 68, 0
1, 198523, Note_off_c, 1, 50, 0
1, 198526, Note_on_c, 1, 49, 127
1, 198526, Note_on_c, 1, 76, 127
1, 198819, Note_off_c, 1, 49, 0
1, 198819, Note_off_c, 1, 76, 0
1, 198825, Note_on_c, 1, 54, 127
1, 198825, Note_on_c, 1, 73, 127
1, 198825, Note_on_c, 1, 69, 127
1, 199118, Note_off_c, 1, 54, 0
1, 199118, Note_off_c, 1, 73, 0
1, 199124, Note_on_c, 1, 50, 127
1, 199124, Note_on_c, 1, 78, 127
1, 199417, Note_off_c, 1, 50, 0
1, 199417, Note_off_c, 1, 78, 0
1, 199420, Note_off_c, 1, 69, 0
1, 199423, Note_on_c, 1, 52, 127
1, 199423, Note_on_c, 1, 69, 127
1, 199423, Note_on_c, 1, 71, 127
1, 199716, Note_off_c, 1, 52, 0
1, 199716, Note_off_c, 1, 69, 0
1, 199722, Note_on_c, 1, 40, 127
1, 199722, Note_on_c, 1, 68, 127
1, 200015, Note_off_c, 1, 40, 0
1, 200015, Note_off_c, 1, 68, 0
1, 200018, Note_off_c, 1, 71, 0
1, 200021, Note_on_c, 1, 45, 127
1, 200021, Note_on_c, 1, 69, 127
1, 200333, Note_off_c, 1, 45, 0
1, 200342, Note_on_c, 1, 76, 127
1, 200464, Note_off_c, 1, 69, 0
1, 200492, Note_off_c, 1, 76, 0
1, 200494, Note_on_c, 1, 74, 127
1, 200644, Note_off_c, 1, 74, 0
1, 200646, Note_on_c, 1, 73, 127
1, 200646, Note_on_c, 1, 50, 127
1, 200796, Note_off_c, 1, 73, 0
1, 200799, Note_on_c, 1, 71, 127
1, 200948, Note_off_c, 1, 50, 0
1, 200949, Note_off_c, 1, 71, 0
1, 200951, Note_on_c, 1, 69, 127
1, 200951, Note_on_c, 1, 49, 127
1, 201101, Note_off_c, 1, 69, 0
1, 201104, Note_on_c, 1, 71, 127
1, 201253, Note_off_c, 1, 49, 0
1, 201254, Note_off_c, 1, 71, 0
1, 201256, Note_on_c, 1, 73, 127
1, 201256, Note_on_c, 1, 57, 127
1, 201406, Note_off_c, 1, 73, 0
1, 201409, Note_on_c, 1, 69, 127
1, 201558, Note_off_c, 1, 57, 0
1, 201559, Note_off_c, 1, 69, 0
1, 201561, Note_on_c, 1, 67, 127
1, 201561, Note_on_c, 1, 50, 127
1, 201711, Note_off_c, 1, 67, 0
1, 201714, Note_on_c, 1, 66, 127
1, 201863, Note_off_c, 1, 50, 0
1, 201864, Note_off_c, 1, 66, 0
1, 201866, Note_on_c, 1, 67, 127
1, 201866, Note_on_c, 1, 59, 127
1, 202016, Note_off_c, 1, 67, 0
1, 202019, Note_on_c, 1, 66, 127
1, 202168, Note_off_c, 1, 59, 0
1, 202169, Note_off_c, 1, 66, 0
1, 202171, Note_on_c, 1, 67, 127
1, 202171, Note_on_c, 1, 52, 127
1, 202321, Note_off_c, 1, 67, 0
1, 202324, Note_on_c, 1, 71, 127
1, 202473, Note_off_c, 1, 52, 0
1, 202474, Note_off_c, 1, 71, 0
1, 202476, Note_on_c, 1, 69, 127
1, 202476, Note_on_c, 1, 61, 127
1, 202626, Note_off_c, 1, 69, 0
1, 202628, Note_on_c, 1, 67, 127
1, 202778, Note_off_c, 1, 61, 0
1, 202778, Note_off_c, 1, 67, 0
1, 202781, Note_on_c, 1, 62, 127
1, 202781, Note_on_c, 1, 66, 127
1, 202933, Note_off_c, 1, 62, 0
1, 202935, Note_on_c, 1, 61, 127
1, 203087, Note_off_c, 1, 61, 0
1, 203090, Note_on_c, 1, 59, 127
1, 203242, Note_off_c, 1, 59, 0
1, 203244, Note_on_c, 1, 57, 127
1, 203392, Note_off_c, 1, 66, 0
1, 203396, Note_off_c, 1, 57, 0
1, 203399, Note_on_c, 1, 56, 127
1, 203399, Note_on_c, 1, 69, 127
1, 203551, Note_off_c, 1, 56, 0
1, 203553, Note_on_c, 1, 54, 127
1, 203705, Note_off_c, 1, 69, 0
1, 203705, Note_off_c, 1, 54, 0
1, 203708, Note_on_c, 1, 52, 127
1, 203708, Note_on_c, 1, 68, 127
1, 203860, Note_off_c, 1, 52, 0
1, 203862, Note_on_c, 1, 54, 127
1, 204014, Note_off_c, 1, 54, 0
1, 204016, Note_on_c, 1, 56, 127
1, 204016, Note_on_c, 1, 76, 127
1, 204168, Note_off_c, 1, 56, 0
1, 204319, Note_off_c, 1, 68, 0
1, 204325, Note_on_c, 1, 50, 127
1, 204325, Note_on_c, 1, 69, 127
1, 204477, Note_off_c, 1, 50, 0
1, 204480, Note_on_c, 1, 49, 127
1, 204627, Note_off_c, 1, 76, 0
1, 204632, Note_off_c, 1, 49, 0
1, 204634, Note_on_c, 1, 78, 127
1, 204936, Note_off_c, 1, 69, 0
1, 204943, Note_on_c, 1, 71, 127
1, 205245, Note_off_c, 1, 78, 0
1, 205252, Note_on_c, 1, 80, 127
1, 205554, Note_off_c, 1, 71, 0
1, 205558, Note_off_c, 1, 80, 0
1, 205561, Note_on_c, 1, 49, 127
1, 205561, Note_on_c, 1, 81, 127
1, 205717, Note_off_c, 1, 49, 0
1, 205719, Note_on_c, 1, 47, 127
1, 205842, Note_off_c, 1, 81, 0
1, 205875, Note_off_c, 1, 47, 0
1, 205878, Note_on_c, 1, 45, 127
1, 205878, Note_on_c, 1, 73, 127
1, 205878, Note_on_c, 1, 76, 127
1, 206034, Note_off_c, 1, 45, 0
1, 206036, Note_on_c, 1, 47, 127
1, 206192, Note_off_c, 1, 47, 0
1, 206194, Note_on_c, 1, 49, 127
1, 206350, Note_off_c, 1, 49, 0
1, 206511, Note_on_c, 1, 50, 127
1, 206667, Note_off_c, 1, 50, 0
1, 206826, Note_off_c, 1, 73, 0
1, 206826, Note_off_c, 1, 76, 0
1, 206828, Note_on_c, 1, 50, 127
1, 206828, Note_on_c, 1, 71, 127
1, 206828, Note_on_c, 1, 74, 127
1, 206984, Note_off_c, 1, 50, 0
1, 206986, Note_on_c, 1, 52, 127
1, 207142, Note_off_c, 1, 71, 0
1, 207142, Note_off_c, 1, 74, 0
1, 207142, Note_off_c, 1, 52, 0
1, 207145, Note_on_c, 1, 49, 127
1, 207145, Note_on_c, 1, 78, 127
1, 207145, Note_on_c, 1, 69, 127
1, 207301, Note_off_c, 1, 49, 0
1, 207303, Note_on_c, 1, 50, 127
1, 207459, Note_off_c, 1, 78, 0
1, 207459, Note_off_c, 1, 50, 0
1, 207462, Note_on_c, 1, 52, 127
1, 207462, Note_on_c, 1, 71, 127
1, 207618, Note_off_c, 1, 52, 0
1, 207776, Note_off_c, 1, 69, 0
1, 207778, Note_on_c, 1, 68, 127
1, 207937, Note_on_c, 1, 54, 127
1, 208092, Note_off_c, 1, 68, 0
1, 208093, Note_off_c, 1, 54, 0
1, 208095, Note_on_c, 1, 64, 127
1, 208409, Note_off_c, 1, 64, 0
1, 208412, Note_on_c, 1, 61, 127
1, 208570, Note_on_c, 1, 55, 127
1, 208726, Note_off_c, 1, 61, 0
1, 208726, Note_off_c, 1, 55, 0
1, 208727, Note_off_c, 1, 71, 0
1, 208729, Note_on_c, 1, 54, 127
1, 208729, Note_on_c, 1, 62, 127
1, 208729, Note_on_c, 1, 69, 127
1, 208885, Note_off_c, 1, 54, 0
1, 208887, Note_on_c, 1, 52, 127
1, 209043, Note_off_c, 1, 62, 0
1, 209043, Note_off_c, 1, 69, 0
1, 209043, Note_off_c, 1, 52, 0
1, 209046, Note_on_c, 1, 50, 127
1, 209046, Note_on_c, 1, 67, 127
1, 209046, Note_on_c, 1, 64, 127
1, 209202, Note_off_c, 1, 50, 0
1, 209204, Note_on_c, 1, 49, 127
1, 209360, Note_off_c, 1, 67, 0
1, 209360, Note_off_c, 1, 49, 0
1, 209362, Note_on_c, 1, 66, 127
1, 209521, Note_on_c, 1, 52, 127
1, 209677, Note_off_c, 1, 64, 0
1, 209677, Note_off_c, 1, 52, 0
1, 209679, Note_on_c, 1, 57, 127
1, 209993, Note_off_c, 1, 57, 0
1, 209996, Note_on_c, 1, 47, 127
1, 209996, Note_on_c, 1, 62, 127
1, 210152, Note_off_c, 1, 47, 0
1, 210154, Note_on_c, 1, 45, 127
1, 210310, Note_off_c, 1, 66, 0
1, 210310, Note_off_c, 1, 45, 0
1, 210313, Note_on_c, 1, 44, 127
1, 210313, Note_on_c, 1, 71, 127
1, 210469, Note_off_c, 1, 44, 0
1, 210627, Note_off_c, 1, 62, 0
1, 210627, Note_off_c, 1, 71, 0
1, 210630, Note_on_c, 1, 45, 127
1, 210630, Note_on_c, 1, 64, 127
1, 210630, Note_on_c, 1, 61, 127
1, 210786, Note_off_c, 1, 45, 0
1, 210788, Note_on_c, 1, 44, 127
1, 210944, Note_off_c, 1, 64, 0
1, 210944, Note_off_c, 1, 44, 0
1, 210946, Note_on_c, 1, 42, 127
1, 210946, Note_on_c, 1, 69, 127
1, 211102, Note_off_c, 1, 42, 0
1, 211105, Note_on_c, 1, 40, 127
1, 211260, Note_off_c, 1, 69, 0
1, 211261, Note_off_c, 1, 40, 0
1, 211263, Note_on_c, 1, 62, 127
1, 211578, Note_off_c, 1, 61, 0
1, 211580, Note_on_c, 1, 59, 127
1, 211890, Note_off_c, 1, 62, 0
1, 211894, Note_off_c, 1, 59, 0
1, 211897, Note_on_c, 1, 40, 127
1, 211897, Note_on_c, 1, 62, 127
1, 212053, Note_off_c, 1, 40, 0
1, 212055, Note_on_c, 1, 38, 127
1, 212211, Note_off_c, 1, 38, 0
1, 212214, Note_on_c, 1, 37, 127
1, 212214, Note_on_c, 1, 56, 127
1, 212388, Note_off_c, 1, 37, 0
1, 212390, Note_on_c, 1, 49, 127
1, 212558, Note_off_c, 1, 62, 0
1, 212564, Note_off_c, 1, 56, 0
1, 212564, Note_off_c, 1, 49, 0
1, 212566, Note_on_c, 1, 50, 127
1, 212566, Note_on_c, 1, 61, 127
1, 212566, Note_on_c, 1, 64, 127
1, 212740, Note_off_c, 1, 50, 0
1, 212742, Note_on_c, 1, 52, 127
1, 212916, Note_off_c, 1, 61, 0
1, 212916, Note_off_c, 1, 64, 0
1, 212916, Note_off_c, 1, 52, 0
1, 212919, Note_on_c, 1, 54, 127
1, 212919, Note_on_c, 1, 61, 127
1, 212919, Note_on_c, 1, 69, 127
1, 213093, Note_off_c, 1, 54, 0
1, 213095, Note_on_c, 1, 56, 127
1, 213269, Note_off_c, 1, 61, 0
1, 213269, Note_off_c, 1, 56, 0
1, 213271, Note_on_c, 1, 57, 127
1, 213271, Note_on_c, 1, 66, 127
1, 213472, Note_off_c, 1, 57, 0
1, 213475, Note_on_c, 1, 50, 127
1, 213676, Note_off_c, 1, 66, 0
1, 213676, Note_off_c, 1, 50, 0
1, 213677, Note_off_c, 1, 69, 0
1, 213679, Note_on_c, 1, 52, 127
1, 213679, Note_on_c, 1, 69, 127
1, 213679, Note_on_c, 1, 59, 127
1, 214084, Note_off_c, 1, 52, 0
1, 214084, Note_off_c, 1, 69, 0
1, 214087, Note_on_c, 1, 40, 127
1, 214087, Note_on_c, 1, 68, 127
1, 214492, Note_off_c, 1, 59, 0
1, 214492, Note_off_c, 1, 40, 0
1, 214492, Note_off_c, 1, 68, 0
1, 214503, Note_on_c, 1, 45, 127
1, 214503, Note_on_c, 1, 61, 127
1, 214503, Note_on_c, 1, 69, 127
1, 217744, Note_off_c, 1, 45, 0
1, 217744, Note_off_c, 1, 61, 0
1, 217744, Note_off_c, 1, 69, 0
1, 217744, End_track
0, 0, End_of_file