0, 0, Header, 1, 1, 480
1, 0, Start_track
1, 0, Title_t, "Test"
1, 0, Tempo, 500000
1, 0, Instrument_name_t, "Church Organ"
1, 64, Note_on_c, 1, 52, 127
1, 67, Note_on_c, 1, 67, 127
1, 132, Note_on_c, 1, 71, 127
1, 198, Note_on_c, 1, 76, 127
1, 262, Note_off_c, 1, 52, 0
1, 273, Note_on_c, 1, 55, 127
1, 471, Note_off_c, 1, 55, 0
1, 482, Note_on_c, 1, 57, 127
1, 680, Note_off_c, 1, 57, 0
1, 691, Note_on_c, 1, 59, 127
1, 889, Note_off_c, 1, 59, 0
1, 1821, Note_off_c, 1, 67, 0
1, 1916, Note_off_c, 1, 71, 0
1, 2043, Note_off_c, 1, 76, 0
1, 2156, Note_on_c, 1, 78, 127
1, 2258, Note_off_c, 1, 78, 0
1, 2366, Note_on_c, 1, 75, 127
1, 2366, Note_on_c, 1, 59, 127
1, 2468, Note_off_c, 1, 75, 0
1, 2470, Note_on_c, 1, 76, 127
1, 2564, Note_off_c, 1, 59, 0
1, 2572, Note_off_c, 1, 76, 0
1, 2575, Note_on_c, 1, 57, 127
1, 2575, Note_on_c, 1, 78, 127
1, 2773, Note_off_c, 1, 57, 0
1, 2784, Note_on_c, 1, 59, 127
1, 2873, Note_on_c, 1, 76, 127
1, 2889, Note_off_c, 1, 78, 0
1, 2982, Note_off_c, 1, 59, 0
1, 3008, Note_off_c, 1, 76, 0
1, 3203, Note_on_c, 1, 55, 127
1, 3230, Note_on_c, 1, 75, 127
1, 3325, Note_off_c, 1, 75, 0
1, 3401, Note_off_c, 1, 55, 0
1, 3412, Note_on_c, 1, 52, 127
1, 3412, Note_on_c, 1, 78, 127
1, 3517, Note_on_c, 1, 72, 127
1, 3610, Note_off_c, 1, 52, 0
1, 3621, Note_on_c, 1, 57, 127
1, 3621, Note_on_c, 1, 69, 127
1, 3706, Note_off_c, 1, 72, 0
1, 3804, Note_off_c, 1, 78, 0
1, 3819, Note_off_c, 1, 57, 0
1, 3831, Note_on_c, 1, 59, 127
1, 4029, Note_off_c, 1, 59, 0
1, 4040, Note_on_c, 1, 60, 127
1, 4238, Note_off_c, 1, 60, 0
1, 5077, Note_off_c, 1, 69, 0
1, 6760, Note_on_c, 1, 51, 127
1, 6958, Note_off_c, 1, 51, 0
1, 6970, Note_on_c, 1, 76, 127
1, 7177, Note_off_c, 1, 76, 0
1, 7179, Note_on_c, 1, 59, 127
1, 7179, Note_on_c, 1, 75, 127
1, 7377, Note_off_c, 1, 59, 0
1, 7386, Note_off_c, 1, 75, 0
1, 7388, Note_on_c, 1, 60, 127
1, 7388, Note_on_c, 1, 76, 127
1, 7586, Note_off_c, 1, 60, 0
1, 7595, Note_off_c, 1, 76, 0
1, 7598, Note_on_c, 1, 59, 127
1, 7598, Note_on_c, 1, 78, 127
1, 7796, Note_off_c, 1, 59, 0
1, 7805, Note_off_c, 1, 78, 0
1, 7807, Note_on_c, 1, 60, 127
1, 7807, Note_on_c, 1, 76, 127
1, 8005, Note_off_c, 1, 60, 0
1, 8014, Note_off_c, 1, 76, 0
1, 8016, Note_on_c, 1, 59, 127
1, 8016, Note_on_c, 1, 79, 127
1, 8214, Note_off_c, 1, 59, 0
1, 8225, Note_on_c, 1, 57, 127
1, 8294, Note_on_c, 1, 78, 127
1, 8299, Note_off_c, 1, 79, 0
1, 8423, Note_off_c, 1, 57, 0
1, 8432, Note_off_c, 1, 78, 0
1, 8435, Note_on_c, 1, 51, 127
1, 8435, Note_on_c, 1, 81, 127
1, 8544, Note_on_c, 1, 78, 127
1, 8633, Note_off_c, 1, 51, 0
1, 8644, Note_on_c, 1, 57, 127
1, 8653, Note_on_c, 1, 71, 127
1, 8696, Note_off_c, 1, 78, 0
1, 8842, Note_off_c, 1, 81, 0
1, 8842, Note_off_c, 1, 57, 0
1, 8853, Note_on_c, 1, 59, 127
1, 9051, Note_off_c, 1, 59, 0
1, 9063, Note_on_c, 1, 60, 127
1, 9261, Note_off_c, 1, 60, 0
1, 9335, Note_off_c, 1, 71, 0
1, 9355, Note_on_c, 1, 84, 127
1, 9483, Note_off_c, 1, 84, 0
1, 9485, Note_on_c, 1, 83, 127
1, 9591, Note_off_c, 1, 83, 0
1, 9703, Note_on_c, 1, 79, 127
1, 9888, Note_off_c, 1, 79, 0
1, 9891, Note_on_c, 1, 81, 127
1, 9900, Note_on_c, 1, 57, 127
1, 9997, Note_off_c, 1, 81, 0
1, 10000, Note_on_c, 1, 78, 127
1, 10098, Note_off_c, 1, 57, 0
1, 10106, Note_off_c, 1, 78, 0
1, 10109, Note_on_c, 1, 52, 127
1, 10109, Note_on_c, 1, 79, 127
1, 10244, Note_on_c, 1, 76, 127
1, 10307, Note_off_c, 1, 52, 0
1, 10318, Note_on_c, 1, 55, 127
1, 10378, Note_on_c, 1, 71, 127
1, 10499, Note_off_c, 1, 76, 0
1, 10516, Note_off_c, 1, 55, 0
1, 10528, Note_on_c, 1, 57, 127
1, 10642, Note_off_c, 1, 79, 0
1, 10726, Note_off_c, 1, 57, 0
1, 10737, Note_on_c, 1, 59, 127
1, 10935, Note_off_c, 1, 59, 0
1, 11872, Note_off_c, 1, 71, 0
1, 12202, Note_on_c, 1, 84, 127
1, 12409, Note_off_c, 1, 84, 0
1, 12411, Note_on_c, 1, 59, 127
1, 12411, Note_on_c, 1, 83, 127
1, 12609, Note_off_c, 1, 59, 0
1, 12618, Note_off_c, 1, 83, 0
1, 12620, Note_on_c, 1, 57, 127
1, 12620, Note_on_c, 1, 84, 127
1, 12818, Note_off_c, 1, 57, 0
1, 12830, Note_on_c, 1, 59, 127
1, 13028, Note_off_c, 1, 59, 0
1, 13248, Note_on_c, 1, 55, 127
1, 13248, Note_on_c, 1, 76, 127
1, 13373, Note_off_c, 1, 84, 0
1, 13446, Note_off_c, 1, 55, 0
1, 13449, Note_off_c, 1, 76, 0
1, 13457, Note_on_c, 1, 52, 127
1, 13457, Note_on_c, 1, 78, 127
1, 13587, Note_on_c, 1, 72, 127
1, 13655, Note_off_c, 1, 52, 0
1, 13667, Note_on_c, 1, 54, 127
1, 13717, Note_on_c, 1, 69, 127
1, 13831, Note_off_c, 1, 72, 0
1, 13865, Note_off_c, 1, 54, 0
1, 13876, Note_on_c, 1, 55, 127
1, 13965, Note_off_c, 1, 78, 0
1, 14074, Note_off_c, 1, 55, 0
1, 14085, Note_on_c, 1, 57, 127
1, 14283, Note_off_c, 1, 57, 0
1, 15117, Note_off_c, 1, 69, 0
1, 15132, Note_on_c, 1, 50, 127
1, 15234, Note_on_c, 1, 71, 127
1, 15330, Note_off_c, 1, 50, 0
1, 15347, Note_on_c, 1, 74, 127
1, 15570, Note_on_c, 1, 83, 127
1, 15571, Note_off_c, 1, 71, 0
1, 15573, Note_off_c, 1, 74, 0
1, 16052, Note_on_c, 1, 84, 127
1, 16125, Note_off_c, 1, 83, 0
1, 16176, Note_off_c, 1, 84, 0
1, 16178, Note_on_c, 1, 83, 127
1, 16178, Note_on_c, 1, 57, 127
1, 16280, Note_off_c, 1, 83, 0
1, 16283, Note_on_c, 1, 81, 127
1, 16376, Note_off_c, 1, 57, 0
1, 16385, Note_off_c, 1, 81, 0
1, 16387, Note_on_c, 1, 83, 127
1, 16387, Note_on_c, 1, 55, 127
1, 16489, Note_off_c, 1, 83, 0
1, 16492, Note_on_c, 1, 79, 127
1, 16585, Note_off_c, 1, 55, 0
1, 16594, Note_off_c, 1, 79, 0
1, 16597, Note_on_c, 1, 81, 127
1, 16597, Note_on_c, 1, 54, 127
1, 16699, Note_off_c, 1, 81, 0
1, 16701, Note_on_c, 1, 83, 127
1, 16795, Note_off_c, 1, 54, 0
1, 16803, Note_off_c, 1, 83, 0
1, 16806, Note_on_c, 1, 50, 127
1, 16806, Note_on_c, 1, 76, 127
1, 16941, Note_on_c, 1, 71, 127
1, 17004, Note_off_c, 1, 50, 0
1, 17015, Note_on_c, 1, 52, 127
1, 17075, Note_on_c, 1, 67, 127
1, 17204, Note_off_c, 1, 71, 0
1, 17213, Note_off_c, 1, 52, 0
1, 17224, Note_on_c, 1, 54, 127
1, 17370, Note_off_c, 1, 76, 0
1, 17422, Note_off_c, 1, 54, 0
1, 17434, Note_on_c, 1, 55, 127
1, 17632, Note_off_c, 1, 55, 0
1, 18435, Note_off_c, 1, 67, 0
1, 18480, Note_on_c, 1, 48, 127
1, 18480, Note_on_c, 1, 72, 127
1, 18480, Note_on_c, 1, 69, 127
1, 18678, Note_off_c, 1, 48, 0
1, 18687, Note_off_c, 1, 72, 0
1, 18846, Note_off_c, 1, 69, 0
1, 18899, Note_on_c, 1, 54, 127
1, 18899, Note_on_c, 1, 69, 127
1, 19097, Note_off_c, 1, 54, 0
1, 19106, Note_off_c, 1, 69, 0
1, 19108, Note_on_c, 1, 55, 127
1, 19108, Note_on_c, 1, 71, 127
1, 19306, Note_off_c, 1, 55, 0
1, 19315, Note_off_c, 1, 71, 0
1, 19317, Note_on_c, 1, 54, 127
1, 19317, Note_on_c, 1, 72, 127
1, 19515, Note_off_c, 1, 54, 0
1, 19527, Note_on_c, 1, 55, 127
1, 19527, Note_on_c, 1, 76, 127
1, 19725, Note_off_c, 1, 55, 0
1, 19734, Note_off_c, 1, 76, 0
1, 19735, Note_off_c, 1, 72, 0
1, 19736, Note_on_c, 1, 54, 127
1, 19736, Note_on_c, 1, 74, 127
1, 19934, Note_off_c, 1, 54, 0
1, 19934, Note_off_c, 1, 74, 0
1, 19936, Note_on_c, 1, 76, 127
1, 19945, Note_on_c, 1, 52, 127
1, 20045, Note_on_c, 1, 72, 127
1, 20143, Note_off_c, 1, 52, 0
1, 20151, Note_off_c, 1, 72, 0
1, 20154, Note_off_c, 1, 76, 0
1, 20154, Note_on_c, 1, 48, 127
1, 20154, Note_on_c, 1, 74, 127
1, 20294, Note_on_c, 1, 69, 127
1, 20352, Note_off_c, 1, 48, 0
1, 20364, Note_on_c, 1, 54, 127
1, 20434, Note_on_c, 1, 66, 127
1, 20562, Note_off_c, 1, 54, 0
1, 20568, Note_off_c, 1, 69, 0
1, 20573, Note_on_c, 1, 55, 127
1, 20704, Note_off_c, 1, 74, 0
1, 20771, Note_off_c, 1, 55, 0
1, 20782, Note_on_c, 1, 57, 127
1, 20980, Note_off_c, 1, 57, 0
1, 21734, Note_off_c, 1, 66, 0
1, 21829, Note_on_c, 1, 47, 127
1, 21931, Note_on_c, 1, 67, 127
1, 22027, Note_off_c, 1, 47, 0
1, 22042, Note_on_c, 1, 71, 127
1, 22265, Note_on_c, 1, 79, 127
1, 22277, Note_off_c, 1, 71, 0
1, 22279, Note_off_c, 1, 67, 0
1, 22456, Note_on_c, 1, 59, 127
1, 22654, Note_off_c, 1, 59, 0
1, 22764, Note_off_c, 1, 79, 0
1, 22766, Note_on_c, 1, 77, 127
1, 22881, Note_off_c, 1, 77, 0
1, 23285, Note_on_c, 1, 74, 127
1, 23294, Note_on_c, 1, 55, 127
1, 23391, Note_off_c, 1, 74, 0
1, 23394, Note_on_c, 1, 71, 127
1, 23492, Note_off_c, 1, 55, 0
1, 23500, Note_off_c, 1, 71, 0
1, 23503, Note_on_c, 1, 47, 127
1, 23503, Note_on_c, 1, 72, 127
1, 23658, Note_on_c, 1, 67, 127
1, 23701, Note_off_c, 1, 47, 0
1, 23712, Note_on_c, 1, 52, 127
1, 23812, Note_on_c, 1, 64, 127
1, 23910, Note_off_c, 1, 52, 0
1, 23921, Note_on_c, 1, 54, 127
1, 23949, Note_off_c, 1, 67, 0
1, 24107, Note_off_c, 1, 72, 0
1, 24119, Note_off_c, 1, 54, 0
1, 24131, Note_on_c, 1, 55, 127
1, 24329, Note_off_c, 1, 55, 0
1, 25177, Note_on_c, 1, 45, 127
1, 25177, Note_on_c, 1, 69, 127
1, 25177, Note_on_c, 1, 66, 127
1, 25180, Note_off_c, 1, 64, 0
1, 25375, Note_off_c, 1, 45, 0
1, 25386, Note_on_c, 1, 74, 127
1, 25438, Note_off_c, 1, 69, 0
1, 25438, Note_off_c, 1, 66, 0
1, 25593, Note_off_c, 1, 74, 0
1, 25596, Note_on_c, 1, 55, 127
1, 25596, Note_on_c, 1, 76, 127
1, 25794, Note_off_c, 1, 55, 0
1, 25803, Note_off_c, 1, 76, 0
1, 25805, Note_on_c, 1, 57, 127
1, 25805, Note_on_c, 1, 78, 127
1, 26003, Note_off_c, 1, 57, 0
1, 26012, Note_off_c, 1, 78, 0
1, 26014, Note_on_c, 1, 55, 127
1, 26014, Note_on_c, 1, 79, 127
1, 26212, Note_off_c, 1, 55, 0
1, 26221, Note_off_c, 1, 79, 0
1, 26224, Note_on_c, 1, 57, 127
1, 26224, Note_on_c, 1, 78, 127
1, 26422, Note_off_c, 1, 57, 0
1, 26431, Note_off_c, 1, 78, 0
1, 26433, Note_on_c, 1, 55, 127
1, 26433, Note_on_c, 1, 81, 127
1, 26631, Note_off_c, 1, 55, 0
1, 26642, Note_on_c, 1, 54, 127
1, 26709, Note_off_c, 1, 81, 0
1, 26712, Note_on_c, 1, 72, 127
1, 26840, Note_off_c, 1, 54, 0
1, 26851, Note_on_c, 1, 43, 127
1, 26851, Note_on_c, 1, 62, 127
1, 26992, Note_on_c, 1, 67, 127
1, 27049, Note_off_c, 1, 43, 0
1, 27061, Note_on_c, 1, 57, 127
1, 27094, Note_off_c, 1, 72, 0
1, 27259, Note_off_c, 1, 57, 0
1, 27270, Note_on_c, 1, 59, 127
1, 27352, Note_on_c, 1, 71, 127
1, 27468, Note_off_c, 1, 59, 0
1, 27479, Note_on_c, 1, 60, 127
1, 27677, Note_off_c, 1, 60, 0
1, 28518, Note_off_c, 1, 62, 0
1, 28653, Note_off_c, 1, 67, 0
1, 28765, Note_off_c, 1, 71, 0
1, 29363, Note_on_c, 1, 69, 127
1, 29500, Note_off_c, 1, 69, 0
1, 29642, Note_on_c, 1, 66, 127
1, 29779, Note_off_c, 1, 66, 0
1, 29781, Note_on_c, 1, 67, 127
1, 29781, Note_on_c, 1, 60, 127
1, 29935, Note_off_c, 1, 67, 0
1, 29938, Note_on_c, 1, 66, 127
1, 29979, Note_off_c, 1, 60, 0
1, 29991, Note_on_c, 1, 59, 127
1, 30066, Note_off_c, 1, 66, 0
1, 30069, Note_on_c, 1, 64, 127
1, 30189, Note_off_c, 1, 59, 0
1, 30200, Note_on_c, 1, 55, 127
1, 30200, Note_on_c, 1, 76, 127
1, 30304, Note_on_c, 1, 73, 127
1, 30330, Note_off_c, 1, 64, 0
1, 30398, Note_off_c, 1, 55, 0
1, 30409, Note_on_c, 1, 61, 127
1, 30409, Note_on_c, 1, 69, 127
1, 30492, Note_off_c, 1, 73, 0
1, 30599, Note_off_c, 1, 76, 0
1, 30607, Note_off_c, 1, 61, 0
1, 30618, Note_on_c, 1, 62, 127
1, 30816, Note_off_c, 1, 62, 0
1, 31037, Note_off_c, 1, 69, 0
1, 31102, Note_on_c, 1, 78, 127
1, 31217, Note_off_c, 1, 78, 0
1, 31338, Note_on_c, 1, 75, 127
1, 31453, Note_off_c, 1, 75, 0
1, 31456, Note_on_c, 1, 62, 127
1, 31456, Note_on_c, 1, 76, 127
1, 31654, Note_off_c, 1, 62, 0
1, 31665, Note_on_c, 1, 61, 127
1, 31767, Note_off_c, 1, 76, 0
1, 31769, Note_on_c, 1, 78, 127
1, 31863, Note_off_c, 1, 61, 0
1, 31871, Note_off_c, 1, 78, 0
1, 31874, Note_on_c, 1, 54, 127
1, 31874, Note_on_c, 1, 69, 127
1, 31961, Note_on_c, 1, 75, 127
1, 32048, Note_on_c, 1, 79, 127
1, 32072, Note_off_c, 1, 54, 0
1, 32083, Note_on_c, 1, 63, 127
1, 32232, Note_on_c, 1, 78, 127
1, 32234, Note_off_c, 1, 79, 0
1, 32281, Note_off_c, 1, 63, 0
1, 32293, Note_on_c, 1, 64, 127
1, 32325, Note_off_c, 1, 78, 0
1, 32491, Note_off_c, 1, 64, 0
1, 32502, Note_on_c, 1, 66, 127
1, 32700, Note_off_c, 1, 66, 0
1, 33225, Note_off_c, 1, 75, 0
1, 33243, Note_off_c, 1, 69, 0
1, 33339, Note_on_c, 1, 76, 127
1, 33339, Note_on_c, 1, 63, 127
1, 33441, Note_off_c, 1, 76, 0
1, 33444, Note_on_c, 1, 78, 127
1, 33537, Note_off_c, 1, 63, 0
1, 33546, Note_off_c, 1, 78, 0
1, 33548, Note_on_c, 1, 52, 127
1, 33548, Note_on_c, 1, 71, 127
1, 33653, Note_on_c, 1, 75, 127
1, 33746, Note_off_c, 1, 52, 0
1, 33755, Note_off_c, 1, 75, 0
1, 33758, Note_on_c, 1, 54, 127
1, 33758, Note_on_c, 1, 76, 127
1, 33862, Note_on_c, 1, 78, 127
1, 33956, Note_off_c, 1, 54, 0
1, 33964, Note_off_c, 1, 78, 0
1, 33967, Note_on_c, 1, 55, 127
1, 33967, Note_on_c, 1, 79, 127
1, 34165, Note_off_c, 1, 55, 0
1, 34176, Note_on_c, 1, 57, 127
1, 34374, Note_off_c, 1, 57, 0
1, 35169, Note_off_c, 1, 71, 0
1, 35170, Note_off_c, 1, 76, 0
1, 35220, Note_off_c, 1, 79, 0
1, 35223, Note_on_c, 1, 52, 127
1, 35223, Note_on_c, 1, 71, 127
1, 35223, Note_on_c, 1, 67, 127
1, 35421, Note_off_c, 1, 52, 0
1, 35430, Note_off_c, 1, 71, 0
1, 35432, Note_on_c, 1, 55, 127
1, 35630, Note_off_c, 1, 55, 0
1, 35641, Note_off_c, 1, 67, 0
1, 35641, Note_on_c, 1, 57, 127
1, 35641, Note_on_c, 1, 69, 127
1, 35839, Note_off_c, 1, 57, 0
1, 35848, Note_off_c, 1, 69, 0
1, 35850, Note_on_c, 1, 59, 127
1, 35850, Note_on_c, 1, 67, 127
1, 36048, Note_off_c, 1, 59, 0
1, 36060, Note_on_c, 1, 57, 127
1, 36258, Note_off_c, 1, 57, 0
1, 36266, Note_off_c, 1, 67, 0
1, 36269, Note_on_c, 1, 66, 127
1, 36269, Note_on_c, 1, 59, 127
1, 36375, Note_off_c, 1, 66, 0
1, 36378, Note_on_c, 1, 64, 127
1, 36467, Note_off_c, 1, 59, 0
1, 36478, Note_on_c, 1, 57, 127
1, 36484, Note_off_c, 1, 64, 0
1, 36487, Note_on_c, 1, 63, 127
1, 36676, Note_off_c, 1, 57, 0
1, 36688, Note_on_c, 1, 55, 127
1, 36755, Note_off_c, 1, 63, 0
1, 36886, Note_off_c, 1, 55, 0
1, 36897, Note_on_c, 1, 52, 127
1, 36897, Note_on_c, 1, 65, 127
1, 37036, Note_on_c, 1, 69, 127
1, 37095, Note_off_c, 1, 52, 0
1, 37106, Note_on_c, 1, 57, 127
1, 37176, Note_on_c, 1, 72, 127
1, 37297, Note_off_c, 1, 69, 0
1, 37304, Note_off_c, 1, 57, 0
1, 37315, Note_on_c, 1, 59, 127
1, 37319, Note_off_c, 1, 65, 0
1, 37417, Note_off_c, 1, 72, 0
1, 37420, Note_on_c, 1, 71, 127
1, 37513, Note_off_c, 1, 59, 0
1, 37522, Note_off_c, 1, 71, 0
1, 37525, Note_on_c, 1, 69, 127
1, 37525, Note_on_c, 1, 60, 127
1, 37627, Note_off_c, 1, 69, 0
1, 37629, Note_on_c, 1, 71, 127
1, 37723, Note_off_c, 1, 60, 0
1, 37731, Note_off_c, 1, 71, 0
1, 37734, Note_on_c, 1, 72, 127
1, 37734, Note_on_c, 1, 59, 127
1, 37836, Note_off_c, 1, 72, 0
1, 37839, Note_on_c, 1, 74, 127
1, 37932, Note_off_c, 1, 59, 0
1, 37941, Note_off_c, 1, 74, 0
1, 37943, Note_on_c, 1, 72, 127
1, 37943, Note_on_c, 1, 60, 127
1, 38045, Note_off_c, 1, 72, 0
1, 38048, Note_on_c, 1, 71, 127
1, 38141, Note_off_c, 1, 60, 0
1, 38150, Note_off_c, 1, 71, 0
1, 38152, Note_on_c, 1, 59, 127
1, 38152, Note_on_c, 1, 72, 127
1, 38350, Note_off_c, 1, 59, 0
1, 38362, Note_on_c, 1, 57, 127
1, 38463, Note_off_c, 1, 72, 0
1, 38466, Note_on_c, 1, 74, 127
1, 38560, Note_off_c, 1, 57, 0
1, 38568, Note_off_c, 1, 74, 0
1, 38571, Note_on_c, 1, 50, 127
1, 38571, Note_on_c, 1, 65, 127
1, 38658, Note_on_c, 1, 71, 127
1, 38745, Note_on_c, 1, 76, 127
1, 38769, Note_off_c, 1, 50, 0
1, 38780, Note_on_c, 1, 59, 127
1, 38945, Note_off_c, 1, 76, 0
1, 38948, Note_on_c, 1, 74, 127
1, 38978, Note_off_c, 1, 59, 0
1, 38990, Note_on_c, 1, 60, 127
1, 39039, Note_off_c, 1, 74, 0
1, 39188, Note_off_c, 1, 60, 0
1, 39199, Note_on_c, 1, 62, 127
1, 39397, Note_off_c, 1, 62, 0
1, 39922, Note_off_c, 1, 71, 0
1, 39940, Note_off_c, 1, 65, 0
1, 40036, Note_on_c, 1, 72, 127
1, 40036, Note_on_c, 1, 59, 127
1, 40138, Note_off_c, 1, 72, 0
1, 40141, Note_on_c, 1, 74, 127
1, 40234, Note_off_c, 1, 59, 0
1, 40243, Note_off_c, 1, 74, 0
1, 40245, Note_on_c, 1, 48, 127
1, 40245, Note_on_c, 1, 67, 127
1, 40350, Note_on_c, 1, 71, 127
1, 40443, Note_off_c, 1, 48, 0
1, 40452, Note_off_c, 1, 71, 0
1, 40455, Note_on_c, 1, 50, 127
1, 40455, Note_on_c, 1, 72, 127
1, 40559, Note_on_c, 1, 74, 127
1, 40653, Note_off_c, 1, 50, 0
1, 40661, Note_off_c, 1, 74, 0
1, 40664, Note_on_c, 1, 52, 127
1, 40664, Note_on_c, 1, 76, 127
1, 40862, Note_off_c, 1, 52, 0
1, 40873, Note_on_c, 1, 53, 127
1, 41071, Note_off_c, 1, 53, 0
1, 41866, Note_off_c, 1, 67, 0
1, 41867, Note_off_c, 1, 72, 0
1, 41917, Note_off_c, 1, 76, 0
1, 41920, Note_on_c, 1, 48, 127
1, 41920, Note_on_c, 1, 67, 127
1, 41920, Note_on_c, 1, 64, 127
1, 42118, Note_off_c, 1, 48, 0
1, 42129, Note_on_c, 1, 52, 127
1, 42327, Note_off_c, 1, 52, 0
1, 42338, Note_on_c, 1, 53, 127
1, 42338, Note_on_c, 1, 74, 127
1, 42536, Note_off_c, 1, 53, 0
1, 42545, Note_off_c, 1, 74, 0
1, 42547, Note_on_c, 1, 55, 127
1, 42547, Note_on_c, 1, 72, 127
1, 42741, Note_off_c, 1, 67, 0
1, 42741, Note_off_c, 1, 64, 0
1, 42745, Note_off_c, 1, 55, 0
1, 42754, Note_off_c, 1, 72, 0
1, 42757, Note_on_c, 1, 53, 127
1, 42757, Note_on_c, 1, 74, 127
1, 42955, Note_off_c, 1, 53, 0
1, 42966, Note_on_c, 1, 55, 127
1, 42966, Note_on_c, 1, 71, 127
1, 43018, Note_off_c, 1, 74, 0
1, 43164, Note_off_c, 1, 55, 0
1, 43173, Note_off_c, 1, 71, 0
1, 43175, Note_on_c, 1, 53, 127
1, 43175, Note_on_c, 1, 68, 127
1, 43373, Note_off_c, 1, 53, 0
1, 43384, Note_on_c, 1, 52, 127
1, 43437, Note_on_c, 1, 69, 127
1, 43445, Note_off_c, 1, 68, 0
1, 43582, Note_off_c, 1, 52, 0
1, 43594, Note_on_c, 1, 48, 127
1, 43594, Note_on_c, 1, 74, 127
1, 43684, Note_off_c, 1, 69, 0
1, 43792, Note_off_c, 1, 48, 0
1, 43803, Note_on_c, 1, 54, 127
1, 43803, Note_on_c, 1, 66, 127
1, 43990, Note_off_c, 1, 74, 0
1, 44001, Note_off_c, 1, 54, 0
1, 44012, Note_on_c, 1, 55, 127
1, 44210, Note_off_c, 1, 55, 0
1, 44222, Note_on_c, 1, 57, 127
1, 44420, Note_off_c, 1, 57, 0
1, 45215, Note_off_c, 1, 66, 0
1, 45268, Note_on_c, 1, 47, 127
1, 45268, Note_on_c, 1, 68, 127
1, 45268, Note_on_c, 1, 71, 127
1, 45466, Note_off_c, 1, 47, 0
1, 45477, Note_on_c, 1, 56, 127
1, 45477, Note_on_c, 1, 77, 127
1, 45675, Note_off_c, 1, 56, 0
1, 45684, Note_off_c, 1, 77, 0
1, 45687, Note_on_c, 1, 57, 127
1, 45687, Note_on_c, 1, 76, 127
1, 45885, Note_off_c, 1, 57, 0
1, 45894, Note_off_c, 1, 76, 0
1, 45896, Note_on_c, 1, 59, 127
1, 45896, Note_on_c, 1, 74, 127
1, 46074, Note_off_c, 1, 68, 0
1, 46074, Note_off_c, 1, 71, 0
1, 46094, Note_off_c, 1, 59, 0
1, 46103, Note_off_c, 1, 74, 0
1, 46105, Note_on_c, 1, 57, 127
1, 46105, Note_on_c, 1, 74, 127
1, 46303, Note_off_c, 1, 57, 0
1, 46314, Note_on_c, 1, 59, 127
1, 46394, Note_off_c, 1, 74, 0
1, 46402, Note_on_c, 1, 72, 127
1, 46512, Note_off_c, 1, 59, 0
1, 46526, Note_off_c, 1, 72, 0
1, 46733, Note_on_c, 1, 56, 127
1, 46823, Note_on_c, 1, 71, 127
1, 46931, Note_off_c, 1, 56, 0
1, 46958, Note_off_c, 1, 71, 0
1, 47047, Note_on_c, 1, 69, 127
1, 47152, Note_on_c, 1, 64, 127
1, 47250, Note_off_c, 1, 69, 0
1, 47361, Note_on_c, 1, 60, 127
1, 47559, Note_off_c, 1, 60, 0
1, 47570, Note_on_c, 1, 62, 127
1, 47768, Note_off_c, 1, 62, 0
1, 48616, Note_on_c, 1, 55, 127
1, 48814, Note_off_c, 1, 55, 0
1, 48815, Note_off_c, 1, 64, 0
1, 50291, Note_on_c, 1, 54, 127
1, 50291, Note_on_c, 1, 63, 127
1, 50489, Note_off_c, 1, 54, 0
1, 51546, Note_on_c, 1, 68, 127
1, 51753, Note_off_c, 1, 68, 0
1, 51912, Note_off_c, 1, 63, 0
1, 51965, Note_on_c, 1, 52, 127
1, 51965, Note_on_c, 1, 69, 127
1, 51965, Note_on_c, 1, 64, 127
1, 51965, Note_on_c, 1, 72, 127
1, 52163, Note_off_c, 1, 52, 0
1, 52172, Note_off_c, 1, 69, 0
1, 52174, Note_on_c, 1, 57, 127
1, 52372, Note_off_c, 1, 57, 0
1, 52384, Note_on_c, 1, 59, 127
1, 52384, Note_on_c, 1, 68, 127
1, 52582, Note_off_c, 1, 59, 0
1, 52591, Note_off_c, 1, 68, 0
1, 52593, Note_on_c, 1, 60, 127
1, 52749, Note_off_c, 1, 64, 0
1, 52791, Note_off_c, 1, 60, 0
1, 52802, Note_off_c, 1, 72, 0
1, 53639, Note_on_c, 1, 51, 127
1, 53837, Note_off_c, 1, 51, 0
1, 53848, Note_on_c, 1, 66, 127
1, 55260, Note_off_c, 1, 66, 0
1, 55313, Note_on_c, 1, 51, 127
1, 55313, Note_on_c, 1, 66, 127
1, 55313, Note_on_c, 1, 69, 127
1, 55511, Note_off_c, 1, 51, 0
1, 55523, Note_on_c, 1, 54, 127
1, 55721, Note_off_c, 1, 54, 0
1, 55732, Note_on_c, 1, 55, 127
1, 55732, Note_on_c, 1, 71, 127
1, 55930, Note_off_c, 1, 55, 0
1, 55941, Note_on_c, 1, 57, 127
1, 56134, Note_off_c, 1, 66, 0
1, 56134, Note_off_c, 1, 69, 0
1, 56139, Note_off_c, 1, 57, 0
1, 56148, Note_off_c, 1, 71, 0
1, 56151, Note_on_c, 1, 55, 127
1, 56151, Note_on_c, 1, 73, 127
1, 56349, Note_off_c, 1, 55, 0
1, 56360, Note_on_c, 1, 57, 127
1, 56558, Note_off_c, 1, 57, 0
1, 56567, Note_off_c, 1, 73, 0
1, 56569, Note_on_c, 1, 55, 127
1, 56569, Note_on_c, 1, 76, 127
1, 56767, Note_off_c, 1, 55, 0
1, 56776, Note_off_c, 1, 76, 0
1, 56778, Note_on_c, 1, 54, 127
1, 56778, Note_on_c, 1, 75, 127
1, 56976, Note_off_c, 1, 54, 0
1, 56985, Note_off_c, 1, 75, 0
1, 56988, Note_on_c, 1, 50, 127
1, 56988, Note_on_c, 1, 76, 127
1, 57092, Note_on_c, 1, 71, 127
1, 57186, Note_off_c, 1, 50, 0
1, 57197, Note_on_c, 1, 56, 127
1, 57197, Note_on_c, 1, 68, 127
1, 57283, Note_off_c, 1, 71, 0
1, 57354, Note_off_c, 1, 76, 0
1, 57395, Note_off_c, 1, 56, 0
1, 57406, Note_on_c, 1, 57, 127
1, 57604, Note_off_c, 1, 57, 0
1, 57616, Note_on_c, 1, 59, 127
1, 57814, Note_off_c, 1, 59, 0
1, 58662, Note_on_c, 1, 49, 127
1, 58696, Note_off_c, 1, 68, 0
1, 58742, Note_on_c, 1, 73, 127
1, 58860, Note_off_c, 1, 49, 0
1, 58871, Note_on_c, 1, 52, 127
1, 58871, Note_on_c, 1, 70, 127
1, 58994, Note_off_c, 1, 73, 0
1, 59069, Note_off_c, 1, 52, 0
1, 59080, Note_on_c, 1, 54, 127
1, 59278, Note_off_c, 1, 54, 0
1, 59290, Note_on_c, 1, 55, 127
1, 59488, Note_off_c, 1, 55, 0
1, 60284, Note_off_c, 1, 70, 0
1, 60336, Note_on_c, 1, 48, 127
1, 60396, Note_on_c, 1, 66, 127
1, 60511, Note_on_c, 1, 69, 127
1, 60534, Note_off_c, 1, 48, 0
1, 60794, Note_on_c, 1, 75, 127
1, 60931, Note_off_c, 1, 69, 0
1, 60963, Note_off_c, 1, 75, 0
1, 60964, Note_on_c, 1, 78, 127
1, 60974, Note_off_c, 1, 66, 0
1, 61101, Note_off_c, 1, 78, 0
1, 61173, Note_on_c, 1, 55, 127
1, 61173, Note_on_c, 1, 81, 127
1, 61371, Note_off_c, 1, 55, 0
1, 61383, Note_on_c, 1, 57, 127
1, 61383, Note_on_c, 1, 84, 127
1, 61581, Note_off_c, 1, 57, 0
1, 61587, Note_off_c, 1, 81, 0
1, 61590, Note_off_c, 1, 84, 0
1, 61592, Note_on_c, 1, 55, 127
1, 61592, Note_on_c, 1, 83, 127
1, 61790, Note_off_c, 1, 55, 0
1, 61801, Note_on_c, 1, 54, 127
1, 61868, Note_off_c, 1, 83, 0
1, 61871, Note_on_c, 1, 75, 127
1, 61999, Note_off_c, 1, 54, 0
1, 62008, Note_off_c, 1, 75, 0
1, 62010, Note_on_c, 1, 47, 127
1, 62010, Note_on_c, 1, 76, 127
1, 62115, Note_on_c, 1, 71, 127
1, 62208, Note_off_c, 1, 47, 0
1, 62220, Note_on_c, 1, 52, 127
1, 62220, Note_on_c, 1, 67, 127
1, 62271, Note_off_c, 1, 71, 0
1, 62376, Note_off_c, 1, 76, 0
1, 62418, Note_off_c, 1, 52, 0
1, 62429, Note_on_c, 1, 54, 127
1, 62627, Note_off_c, 1, 54, 0
1, 62638, Note_on_c, 1, 55, 127
1, 62836, Note_off_c, 1, 55, 0
1, 63685, Note_on_c, 1, 46, 127
1, 63825, Note_on_c, 1, 73, 127
1, 63883, Note_off_c, 1, 46, 0
1, 63894, Note_off_c, 1, 67, 0
1, 64098, Note_off_c, 1, 73, 0
1, 64577, Note_on_c, 1, 78, 127
1, 64741, Note_off_c, 1, 78, 0
1, 64849, Note_on_c, 1, 75, 127
1, 64967, Note_off_c, 1, 75, 0
1, 65359, Note_on_c, 1, 47, 127
1, 65359, Note_on_c, 1, 66, 127
1, 65446, Note_on_c, 1, 71, 127
1, 65533, Note_on_c, 1, 76, 127
1, 65557, Note_off_c, 1, 47, 0
1, 65568, Note_on_c, 1, 54, 127
1, 65635, Note_off_c, 1, 76, 0
1, 65638, Note_on_c, 1, 75, 127
1, 65718, Note_off_c, 1, 75, 0
1, 65766, Note_off_c, 1, 54, 0
1, 65777, Note_on_c, 1, 55, 127
1, 65975, Note_off_c, 1, 55, 0
1, 65987, Note_on_c, 1, 57, 127
1, 66185, Note_off_c, 1, 57, 0
1, 66823, Note_off_c, 1, 66, 0
1, 66823, Note_off_c, 1, 71, 0
1, 67033, Note_on_c, 1, 52, 127
1, 67033, Note_on_c, 1, 67, 127
1, 67142, Note_on_c, 1, 71, 127
1, 67231, Note_off_c, 1, 52, 0
1, 67242, Note_on_c, 1, 55, 127
1, 67251, Note_on_c, 1, 76, 127
1, 67440, Note_off_c, 1, 55, 0
1, 67452, Note_on_c, 1, 57, 127
1, 67650, Note_off_c, 1, 57, 0
1, 67661, Note_on_c, 1, 59, 127
1, 67859, Note_off_c, 1, 59, 0
1, 68707, Note_off_c, 1, 67, 0
1, 68707, Note_on_c, 1, 50, 127
1, 68707, Note_on_c, 1, 64, 127
1, 68847, Note_on_c, 1, 68, 127
1, 68905, Note_off_c, 1, 50, 0
1, 68917, Note_on_c, 1, 56, 127
1, 68960, Note_off_c, 1, 71, 0
1, 69102, Note_off_c, 1, 76, 0
1, 69115, Note_off_c, 1, 56, 0
1, 70376, Note_off_c, 1, 64, 0
1, 70382, Note_on_c, 1, 48, 127
1, 70388, Note_off_c, 1, 68, 0
1, 70519, Note_on_c, 1, 69, 127
1, 70584, Note_off_c, 1, 48, 0
1, 70658, Note_on_c, 1, 72, 127
1, 71023, Note_on_c, 1, 60, 127
1, 71225, Note_off_c, 1, 60, 0
1, 72037, Note_off_c, 1, 69, 0
1, 72088, Note_off_c, 1, 72, 0
1, 72410, Note_on_c, 1, 74, 127
1, 72740, Note_on_c, 1, 62, 127
1, 72944, Note_off_c, 1, 62, 0
1, 73709, Note_off_c, 1, 74, 0
1, 73822, Note_on_c, 1, 72, 127
1, 73822, Note_on_c, 1, 57, 127
1, 73822, Note_on_c, 1, 76, 127
1, 73915, Note_off_c, 1, 72, 0
1, 73920, Note_on_c, 1, 60, 127
1, 73920, Note_on_c, 1, 81, 127
1, 73944, Note_off_c, 1, 57, 0
1, 73944, Note_off_c, 1, 76, 0
1, 74011, Note_off_c, 1, 60, 0
1, 74013, Note_off_c, 1, 81, 0
1, 74018, Note_on_c, 1, 62, 127
1, 74018, Note_on_c, 1, 83, 127
1, 74109, Note_off_c, 1, 62, 0
1, 74111, Note_off_c, 1, 83, 0
1, 74116, Note_on_c, 1, 64, 127
1, 74116, Note_on_c, 1, 84, 127
1, 74207, Note_off_c, 1, 64, 0
1, 74209, Note_off_c, 1, 84, 0
1, 74214, Note_on_c, 1, 62, 127
1, 74214, Note_on_c, 1, 83, 127
1, 74305, Note_off_c, 1, 62, 0
1, 74307, Note_off_c, 1, 83, 0
1, 74312, Note_on_c, 1, 64, 127
1, 74312, Note_on_c, 1, 84, 127
1, 74403, Note_off_c, 1, 64, 0
1, 74405, Note_off_c, 1, 84, 0
1, 74410, Note_on_c, 1, 62, 127
1, 74410, Note_on_c, 1, 83, 127
1, 74501, Note_off_c, 1, 62, 0
1, 74503, Note_off_c, 1, 83, 0
1, 74508, Note_on_c, 1, 60, 127
1, 74508, Note_on_c, 1, 81, 127
1, 74599, Note_off_c, 1, 60, 0
1, 74601, Note_off_c, 1, 81, 0
1, 74606, Note_on_c, 1, 57, 127
1, 74606, Note_on_c, 1, 76, 127
1, 74705, Note_on_c, 1, 60, 127
1, 74705, Note_on_c, 1, 81, 127
1, 74728, Note_off_c, 1, 57, 0
1, 74728, Note_off_c, 1, 76, 0
1, 74796, Note_off_c, 1, 60, 0
1, 74798, Note_off_c, 1, 81, 0
1, 74803, Note_on_c, 1, 62, 127
1, 74803, Note_on_c, 1, 83, 127
1, 74894, Note_off_c, 1, 62, 0
1, 74896, Note_off_c, 1, 83, 0
1, 74901, Note_on_c, 1, 64, 127
1, 74901, Note_on_c, 1, 84, 127
1, 74992, Note_off_c, 1, 64, 0
1, 74994, Note_off_c, 1, 84, 0
1, 74999, Note_on_c, 1, 62, 127
1, 74999, Note_on_c, 1, 83, 127
1, 75090, Note_off_c, 1, 62, 0
1, 75092, Note_off_c, 1, 83, 0
1, 75097, Note_on_c, 1, 64, 127
1, 75097, Note_on_c, 1, 84, 127
1, 75188, Note_off_c, 1, 64, 0
1, 75190, Note_off_c, 1, 84, 0
1, 75195, Note_on_c, 1, 62, 127
1, 75195, Note_on_c, 1, 83, 127
1, 75286, Note_off_c, 1, 62, 0
1, 75288, Note_off_c, 1, 83, 0
1, 75293, Note_on_c, 1, 60, 127
1, 75293, Note_on_c, 1, 81, 127
1, 75384, Note_off_c, 1, 60, 0
1, 75386, Note_off_c, 1, 81, 0
1, 75391, Note_on_c, 1, 57, 127
1, 75391, Note_on_c, 1, 83, 127
1, 75489, Note_on_c, 1, 62, 127
1, 75489, Note_on_c, 1, 81, 127
1, 75513, Note_off_c, 1, 57, 0
1, 75513, Note_off_c, 1, 83, 0
1, 75580, Note_off_c, 1, 62, 0
1, 75582, Note_off_c, 1, 81, 0
1, 75587, Note_on_c, 1, 64, 127
1, 75587, Note_on_c, 1, 80, 127
1, 75678, Note_off_c, 1, 64, 0
1, 75680, Note_off_c, 1, 80, 0
1, 75686, Note_on_c, 1, 65, 127
1, 75686, Note_on_c, 1, 81, 127
1, 75777, Note_off_c, 1, 65, 0
1, 75779, Note_off_c, 1, 81, 0
1, 75784, Note_on_c, 1, 64, 127
1, 75784, Note_on_c, 1, 83, 127
1, 75875, Note_off_c, 1, 64, 0
1, 75877, Note_off_c, 1, 83, 0
1, 75882, Note_on_c, 1, 65, 127
1, 75882, Note_on_c, 1, 81, 127
1, 75973, Note_off_c, 1, 65, 0
1, 75975, Note_off_c, 1, 81, 0
1, 75980, Note_on_c, 1, 64, 127
1, 75980, Note_on_c, 1, 80, 127
1, 76071, Note_off_c, 1, 64, 0
1, 76073, Note_off_c, 1, 80, 0
1, 76078, Note_on_c, 1, 62, 127
1, 76078, Note_on_c, 1, 81, 127
1, 76169, Note_off_c, 1, 62, 0
1, 76171, Note_off_c, 1, 81, 0
1, 76176, Note_on_c, 1, 57, 127
1, 76176, Note_on_c, 1, 74, 127
1, 76274, Note_on_c, 1, 62, 127
1, 76298, Note_off_c, 1, 57, 0
1, 76365, Note_off_c, 1, 62, 0
1, 76367, Note_off_c, 1, 74, 0
1, 76372, Note_on_c, 1, 64, 127
1, 76372, Note_on_c, 1, 83, 127
1, 76463, Note_off_c, 1, 64, 0
1, 76470, Note_on_c, 1, 65, 127
1, 76561, Note_off_c, 1, 65, 0
1, 76661, Note_off_c, 1, 83, 0
1, 76667, Note_on_c, 1, 65, 127
1, 76667, Note_on_c, 1, 81, 127
1, 76758, Note_off_c, 1, 65, 0
1, 76760, Note_off_c, 1, 81, 0
1, 76765, Note_on_c, 1, 64, 127
1, 76765, Note_on_c, 1, 80, 127
1, 76856, Note_off_c, 1, 64, 0
1, 76858, Note_off_c, 1, 80, 0
1, 76863, Note_on_c, 1, 62, 127
1, 76863, Note_on_c, 1, 81, 127
1, 76954, Note_off_c, 1, 62, 0
1, 76956, Note_off_c, 1, 81, 0
1, 76961, Note_on_c, 1, 56, 127
1, 76961, Note_on_c, 1, 77, 127
1, 77059, Note_on_c, 1, 62, 127
1, 77059, Note_on_c, 1, 71, 127
1, 77083, Note_off_c, 1, 56, 0
1, 77083, Note_off_c, 1, 77, 0
1, 77150, Note_off_c, 1, 62, 0
1, 77152, Note_off_c, 1, 71, 0
1, 77157, Note_on_c, 1, 64, 127
1, 77157, Note_on_c, 1, 72, 127
1, 77248, Note_off_c, 1, 64, 0
1, 77250, Note_off_c, 1, 72, 0
1, 77255, Note_on_c, 1, 65, 127
1, 77255, Note_on_c, 1, 74, 127
1, 77346, Note_off_c, 1, 65, 0
1, 77348, Note_off_c, 1, 74, 0
1, 77353, Note_on_c, 1, 64, 127
1, 77353, Note_on_c, 1, 72, 127
1, 77444, Note_off_c, 1, 64, 0
1, 77446, Note_off_c, 1, 72, 0
1, 77451, Note_on_c, 1, 65, 127
1, 77451, Note_on_c, 1, 74, 127
1, 77542, Note_off_c, 1, 65, 0
1, 77544, Note_off_c, 1, 74, 0
1, 77549, Note_on_c, 1, 64, 127
1, 77549, Note_on_c, 1, 72, 127
1, 77640, Note_off_c, 1, 64, 0
1, 77642, Note_off_c, 1, 72, 0
1, 77648, Note_on_c, 1, 62, 127
1, 77648, Note_on_c, 1, 71, 127
1, 77739, Note_off_c, 1, 62, 0
1, 77741, Note_off_c, 1, 71, 0
1, 77746, Note_on_c, 1, 56, 127
1, 77746, Note_on_c, 1, 76, 127
1, 77844, Note_on_c, 1, 59, 127
1, 77844, Note_on_c, 1, 74, 127
1, 77868, Note_off_c, 1, 56, 0
1, 77868, Note_off_c, 1, 76, 0
1, 77935, Note_off_c, 1, 59, 0
1, 77937, Note_off_c, 1, 74, 0
1, 77942, Note_on_c, 1, 60, 127
1, 77942, Note_on_c, 1, 76, 127
1, 78033, Note_off_c, 1, 60, 0
1, 78035, Note_off_c, 1, 76, 0
1, 78040, Note_on_c, 1, 62, 127
1, 78040, Note_on_c, 1, 77, 127
1, 78131, Note_off_c, 1, 62, 0
1, 78133, Note_off_c, 1, 77, 0
1, 78138, Note_on_c, 1, 60, 127
1, 78138, Note_on_c, 1, 76, 127
1, 78229, Note_off_c, 1, 60, 0
1, 78231, Note_off_c, 1, 76, 0
1, 78236, Note_on_c, 1, 62, 127
1, 78236, Note_on_c, 1, 77, 127
1, 78327, Note_off_c, 1, 62, 0
1, 78329, Note_off_c, 1, 77, 0
1, 78334, Note_on_c, 1, 60, 127
1, 78334, Note_on_c, 1, 76, 127
1, 78425, Note_off_c, 1, 60, 0
1, 78427, Note_off_c, 1, 76, 0
1, 78432, Note_on_c, 1, 59, 127
1, 78432, Note_on_c, 1, 74, 127
1, 78523, Note_off_c, 1, 59, 0
1, 78525, Note_off_c, 1, 74, 0
1, 78530, Note_on_c, 1, 57, 127
1, 78530, Note_on_c, 1, 72, 127
1, 78629, Note_on_c, 1, 59, 127
1, 78629, Note_on_c, 1, 68, 127
1, 78652, Note_off_c, 1, 57, 0
1, 78652, Note_off_c, 1, 72, 0
1, 78720, Note_off_c, 1, 59, 0
1, 78722, Note_off_c, 1, 68, 0
1, 78727, Note_on_c, 1, 60, 127
1, 78727, Note_on_c, 1, 69, 127
1, 78818, Note_off_c, 1, 60, 0
1, 78820, Note_off_c, 1, 69, 0
1, 78825, Note_on_c, 1, 62, 127
1, 78825, Note_on_c, 1, 71, 127
1, 78916, Note_off_c, 1, 62, 0
1, 78918, Note_off_c, 1, 71, 0
1, 78923, Note_on_c, 1, 60, 127
1, 78923, Note_on_c, 1, 69, 127
1, 79014, Note_off_c, 1, 60, 0
1, 79016, Note_off_c, 1, 69, 0
1, 79021, Note_on_c, 1, 62, 127
1, 79021, Note_on_c, 1, 68, 127
1, 79112, Note_off_c, 1, 62, 0
1, 79114, Note_off_c, 1, 68, 0
1, 79119, Note_on_c, 1, 60, 127
1, 79119, Note_on_c, 1, 69, 127
1, 79210, Note_off_c, 1, 60, 0
1, 79212, Note_off_c, 1, 69, 0
1, 79217, Note_on_c, 1, 59, 127
1, 79217, Note_on_c, 1, 71, 127
1, 79308, Note_off_c, 1, 59, 0
1, 79310, Note_off_c, 1, 71, 0
1, 79315, Note_on_c, 1, 57, 127
1, 79315, Note_on_c, 1, 72, 127
1, 79413, Note_on_c, 1, 59, 127
1, 79413, Note_on_c, 1, 81, 127
1, 79437, Note_off_c, 1, 57, 0
1, 79437, Note_off_c, 1, 72, 0
1, 79504, Note_off_c, 1, 59, 0
1, 79506, Note_off_c, 1, 81, 0
1, 79511, Note_on_c, 1, 60, 127
1, 79511, Note_on_c, 1, 79, 127
1, 79602, Note_off_c, 1, 60, 0
1, 79604, Note_off_c, 1, 79, 0
1, 79610, Note_on_c, 1, 62, 127
1, 79610, Note_on_c, 1, 77, 127
1, 79701, Note_off_c, 1, 62, 0
1, 79703, Note_off_c, 1, 77, 0
1, 79708, Note_on_c, 1, 60, 127
1, 79708, Note_on_c, 1, 76, 127
1, 79799, Note_off_c, 1, 60, 0
1, 79801, Note_off_c, 1, 76, 0
1, 79806, Note_on_c, 1, 62, 127
1, 79806, Note_on_c, 1, 77, 127
1, 79897, Note_off_c, 1, 62, 0
1, 79899, Note_off_c, 1, 77, 0
1, 79904, Note_on_c, 1, 60, 127
1, 79904, Note_on_c, 1, 76, 127
1, 79995, Note_off_c, 1, 60, 0
1, 79997, Note_off_c, 1, 76, 0
1, 80002, Note_on_c, 1, 59, 127
1, 80002, Note_on_c, 1, 74, 127
1, 80093, Note_off_c, 1, 59, 0
1, 80095, Note_off_c, 1, 74, 0
1, 80100, Note_on_c, 1, 57, 127
1, 80100, Note_on_c, 1, 73, 127
1, 80198, Note_on_c, 1, 61, 127
1, 80198, Note_on_c, 1, 76, 127
1, 80243, Note_off_c, 1, 57, 0
1, 80243, Note_off_c, 1, 73, 0
1, 80289, Note_off_c, 1, 61, 0
1, 80291, Note_off_c, 1, 76, 0
1, 80296, Note_on_c, 1, 62, 127
1, 80296, Note_on_c, 1, 78, 127
1, 80387, Note_off_c, 1, 62, 0
1, 80389, Note_off_c, 1, 78, 0
1, 80394, Note_on_c, 1, 64, 127
1, 80394, Note_on_c, 1, 79, 127
1, 80485, Note_off_c, 1, 64, 0
1, 80487, Note_off_c, 1, 79, 0
1, 80492, Note_on_c, 1, 62, 127
1, 80492, Note_on_c, 1, 78, 127
1, 80583, Note_off_c, 1, 62, 0
1, 80585, Note_off_c, 1, 78, 0
1, 80591, Note_on_c, 1, 64, 127
1, 80591, Note_on_c, 1, 79, 127
1, 80682, Note_off_c, 1, 64, 0
1, 80684, Note_off_c, 1, 79, 0
1, 80689, Note_on_c, 1, 62, 127
1, 80689, Note_on_c, 1, 78, 127
1, 80780, Note_off_c, 1, 62, 0
1, 80782, Note_off_c, 1, 78, 0
1, 80787, Note_on_c, 1, 61, 127
1, 80787, Note_on_c, 1, 76, 127
1, 80878, Note_off_c, 1, 61, 0
1, 80880, Note_off_c, 1, 76, 0
1, 80885, Note_on_c, 1, 54, 127
1, 80885, Note_on_c, 1, 75, 127
1, 80983, Note_on_c, 1, 63, 127
1, 80983, Note_on_c, 1, 78, 127
1, 81048, Note_off_c, 1, 54, 0
1, 81048, Note_off_c, 1, 75, 0
1, 81074, Note_off_c, 1, 63, 0
1, 81076, Note_off_c, 1, 78, 0
1, 81081, Note_on_c, 1, 64, 127
1, 81081, Note_on_c, 1, 79, 127
1, 81172, Note_off_c, 1, 64, 0
1, 81174, Note_off_c, 1, 79, 0
1, 81179, Note_on_c, 1, 66, 127
1, 81179, Note_on_c, 1, 81, 127
1, 81270, Note_off_c, 1, 66, 0
1, 81272, Note_off_c, 1, 81, 0
1, 81277, Note_on_c, 1, 64, 127
1, 81277, Note_on_c, 1, 79, 127
1, 81368, Note_off_c, 1, 64, 0
1, 81370, Note_off_c, 1, 79, 0
1, 81375, Note_on_c, 1, 66, 127
1, 81375, Note_on_c, 1, 81, 127
1, 81466, Note_off_c, 1, 66, 0
1, 81468, Note_off_c, 1, 81, 0
1, 81473, Note_on_c, 1, 64, 127
1, 81473, Note_on_c, 1, 79, 127
1, 81564, Note_off_c, 1, 64, 0
1, 81566, Note_off_c, 1, 79, 0
1, 81572, Note_on_c, 1, 63, 127
1, 81572, Note_on_c, 1, 78, 127
1, 81663, Note_off_c, 1, 63, 0
1, 81665, Note_off_c, 1, 78, 0
1, 81670, Note_on_c, 1, 64, 127
1, 81670, Note_on_c, 1, 79, 127
1, 81768, Note_on_c, 1, 52, 127
1, 81768, Note_on_c, 1, 67, 127
1, 81853, Note_off_c, 1, 64, 0
1, 81853, Note_off_c, 1, 79, 0
1, 81859, Note_off_c, 1, 52, 0
1, 81861, Note_off_c, 1, 67, 0
1, 81866, Note_on_c, 1, 54, 127
1, 81866, Note_on_c, 1, 69, 127
1, 81957, Note_off_c, 1, 54, 0
1, 81959, Note_off_c, 1, 69, 0
1, 81964, Note_on_c, 1, 55, 127
1, 81964, Note_on_c, 1, 71, 127
1, 82055, Note_off_c, 1, 55, 0
1, 82057, Note_off_c, 1, 71, 0
1, 82062, Note_on_c, 1, 54, 127
1, 82062, Note_on_c, 1, 69, 127
1, 82153, Note_off_c, 1, 54, 0
1, 82155, Note_off_c, 1, 69, 0
1, 82160, Note_on_c, 1, 55, 127
1, 82160, Note_on_c, 1, 71, 127
1, 82251, Note_off_c, 1, 55, 0
1, 82253, Note_off_c, 1, 71, 0
1, 82258, Note_on_c, 1, 54, 127
1, 82258, Note_on_c, 1, 69, 127
1, 82349, Note_off_c, 1, 54, 0
1, 82351, Note_off_c, 1, 69, 0
1, 82356, Note_on_c, 1, 52, 127
1, 82356, Note_on_c, 1, 67, 127
1, 82447, Note_off_c, 1, 52, 0
1, 82449, Note_off_c, 1, 67, 0
1, 82454, Note_on_c, 1, 50, 127
1, 82454, Note_on_c, 1, 77, 127
1, 82545, Note_off_c, 1, 50, 0
1, 82553, Note_on_c, 1, 52, 127
1, 82553, Note_on_c, 1, 68, 127
1, 82637, Note_off_c, 1, 77, 0
1, 82644, Note_off_c, 1, 52, 0
1, 82646, Note_off_c, 1, 68, 0
1, 82651, Note_on_c, 1, 53, 127
1, 82651, Note_on_c, 1, 69, 127
1, 82742, Note_off_c, 1, 53, 0
1, 82744, Note_off_c, 1, 69, 0
1, 82749, Note_on_c, 1, 55, 127
1, 82749, Note_on_c, 1, 71, 127
1, 82840, Note_off_c, 1, 55, 0
1, 82842, Note_off_c, 1, 71, 0
1, 82847, Note_on_c, 1, 53, 127
1, 82847, Note_on_c, 1, 69, 127
1, 82938, Note_off_c, 1, 53, 0
1, 82940, Note_off_c, 1, 69, 0
1, 82945, Note_on_c, 1, 55, 127
1, 82945, Note_on_c, 1, 71, 127
1, 83036, Note_off_c, 1, 55, 0
1, 83038, Note_off_c, 1, 71, 0
1, 83043, Note_on_c, 1, 53, 127
1, 83043, Note_on_c, 1, 69, 127
1, 83134, Note_off_c, 1, 53, 0
1, 83136, Note_off_c, 1, 69, 0
1, 83141, Note_on_c, 1, 52, 127
1, 83141, Note_on_c, 1, 68, 127
1, 83232, Note_off_c, 1, 52, 0
1, 83234, Note_off_c, 1, 68, 0
1, 83239, Note_on_c, 1, 48, 127
1, 83239, Note_on_c, 1, 76, 127
1, 83337, Note_on_c, 1, 54, 127
1, 83337, Note_on_c, 1, 69, 127
1, 83422, Note_off_c, 1, 48, 0
1, 83422, Note_off_c, 1, 76, 0
1, 83428, Note_off_c, 1, 54, 0
1, 83430, Note_off_c, 1, 69, 0
1, 83435, Note_on_c, 1, 56, 127
1, 83435, Note_on_c, 1, 71, 127
1, 83526, Note_off_c, 1, 56, 0
1, 83528, Note_off_c, 1, 71, 0
1, 83534, Note_on_c, 1, 57, 127
1, 83534, Note_on_c, 1, 72, 127
1, 83625, Note_off_c, 1, 57, 0
1, 83627, Note_off_c, 1, 72, 0
1, 83632, Note_on_c, 1, 56, 127
1, 83632, Note_on_c, 1, 71, 127
1, 83723, Note_off_c, 1, 56, 0
1, 83725, Note_off_c, 1, 71, 0
1, 83730, Note_on_c, 1, 57, 127
1, 83730, Note_on_c, 1, 72, 127
1, 83821, Note_off_c, 1, 57, 0
1, 83823, Note_off_c, 1, 72, 0
1, 83828, Note_on_c, 1, 56, 127
1, 83828, Note_on_c, 1, 71, 127
1, 83919, Note_off_c, 1, 56, 0
1, 83921, Note_off_c, 1, 71, 0
1, 83926, Note_on_c, 1, 54, 127
1, 83926, Note_on_c, 1, 69, 127
1, 84017, Note_off_c, 1, 54, 0
1, 84019, Note_off_c, 1, 69, 0
1, 84024, Note_on_c, 1, 47, 127
1, 84024, Note_on_c, 1, 74, 127
1, 84122, Note_on_c, 1, 56, 127
1, 84122, Note_on_c, 1, 71, 127
1, 84167, Note_off_c, 1, 47, 0
1, 84167, Note_off_c, 1, 74, 0
1, 84213, Note_off_c, 1, 56, 0
1, 84215, Note_off_c, 1, 71, 0
1, 84220, Note_on_c, 1, 57, 127
1, 84220, Note_on_c, 1, 72, 127
1, 84311, Note_off_c, 1, 57, 0
1, 84313, Note_off_c, 1, 72, 0
1, 84318, Note_on_c, 1, 59, 127
1, 84318, Note_on_c, 1, 74, 127
1, 84409, Note_off_c, 1, 59, 0
1, 84411, Note_off_c, 1, 74, 0
1, 84416, Note_on_c, 1, 57, 127
1, 84416, Note_on_c, 1, 72, 127
1, 84507, Note_off_c, 1, 57, 0
1, 84509, Note_off_c, 1, 72, 0
1, 84515, Note_on_c, 1, 59, 127
1, 84515, Note_on_c, 1, 74, 127
1, 84606, Note_off_c, 1, 59, 0
1, 84608, Note_off_c, 1, 74, 0
1, 84613, Note_on_c, 1, 57, 127
1, 84613, Note_on_c, 1, 72, 127
1, 84704, Note_off_c, 1, 57, 0
1, 84706, Note_off_c, 1, 72, 0
1, 84711, Note_on_c, 1, 56, 127
1, 84711, Note_on_c, 1, 71, 127
1, 84802, Note_off_c, 1, 56, 0
1, 84804, Note_off_c, 1, 71, 0
1, 84809, Note_on_c, 1, 57, 127
1, 84809, Note_on_c, 1, 72, 127
1, 84907, Note_on_c, 1, 45, 127
1, 84907, Note_on_c, 1, 69, 127
1, 84992, Note_off_c, 1, 57, 0
1, 84992, Note_off_c, 1, 72, 0
1, 84998, Note_off_c, 1, 45, 0
1, 85000, Note_off_c, 1, 69, 0
1, 85005, Note_on_c, 1, 47, 127
1, 85005, Note_on_c, 1, 68, 127
1, 85096, Note_off_c, 1, 47, 0
1, 85098, Note_off_c, 1, 68, 0
1, 85103, Note_on_c, 1, 48, 127
1, 85103, Note_on_c, 1, 69, 127
1, 85194, Note_off_c, 1, 48, 0
1, 85196, Note_off_c, 1, 69, 0
1, 85201, Note_on_c, 1, 47, 127
1, 85201, Note_on_c, 1, 64, 127
1, 85292, Note_off_c, 1, 47, 0
1, 85299, Note_on_c, 1, 48, 127
1, 85299, Note_on_c, 1, 69, 127
1, 85384, Note_off_c, 1, 64, 0
1, 85390, Note_off_c, 1, 48, 0
1, 85392, Note_off_c, 1, 69, 0
1, 85397, Note_on_c, 1, 47, 127
1, 85397, Note_on_c, 1, 68, 127
1, 85488, Note_off_c, 1, 47, 0
1, 85490, Note_off_c, 1, 68, 0
1, 85496, Note_on_c, 1, 45, 127
1, 85496, Note_on_c, 1, 69, 127
1, 85587, Note_off_c, 1, 45, 0
1, 85589, Note_off_c, 1, 69, 0
1, 85594, Note_on_c, 1, 43, 127
1, 85594, Note_on_c, 1, 72, 127
1, 85685, Note_off_c, 1, 43, 0
1, 85692, Note_on_c, 1, 45, 127
1, 85783, Note_off_c, 1, 45, 0
1, 85790, Note_on_c, 1, 47, 127
1, 85881, Note_off_c, 1, 47, 0
1, 85888, Note_on_c, 1, 48, 127
1, 85979, Note_off_c, 1, 48, 0
1, 86378, Note_on_c, 1, 42, 127
1, 86472, Note_off_c, 1, 72, 0
1, 86477, Note_on_c, 1, 69, 127
1, 86561, Note_off_c, 1, 42, 0
1, 86570, Note_off_c, 1, 69, 0
1, 86575, Note_on_c, 1, 47, 127
1, 86575, Note_on_c, 1, 68, 127
1, 86666, Note_off_c, 1, 47, 0
1, 86668, Note_off_c, 1, 68, 0
1, 86673, Note_on_c, 1, 48, 127
1, 86673, Note_on_c, 1, 69, 127
1, 86764, Note_off_c, 1, 48, 0
1, 86766, Note_off_c, 1, 69, 0
1, 86771, Note_on_c, 1, 47, 127
1, 86771, Note_on_c, 1, 63, 127
1, 86862, Note_off_c, 1, 47, 0
1, 86869, Note_on_c, 1, 48, 127
1, 86869, Note_on_c, 1, 69, 127
1, 86911, Note_off_c, 1, 63, 0
1, 86960, Note_off_c, 1, 48, 0
1, 86962, Note_off_c, 1, 69, 0
1, 86967, Note_on_c, 1, 47, 127
1, 86967, Note_on_c, 1, 68, 127
1, 87058, Note_off_c, 1, 47, 0
1, 87060, Note_off_c, 1, 68, 0
1, 87065, Note_on_c, 1, 45, 127
1, 87065, Note_on_c, 1, 69, 127
1, 87156, Note_off_c, 1, 45, 0
1, 87158, Note_off_c, 1, 69, 0
1, 87163, Note_on_c, 1, 40, 127
1, 87163, Note_on_c, 1, 72, 127
1, 87261, Note_on_c, 1, 45, 127
1, 87261, Note_on_c, 1, 69, 127
1, 87346, Note_off_c, 1, 40, 0
1, 87346, Note_off_c, 1, 72, 0
1, 87352, Note_off_c, 1, 45, 0
1, 87354, Note_off_c, 1, 69, 0
1, 87359, Note_on_c, 1, 47, 127
1, 87359, Note_on_c, 1, 68, 127
1, 87450, Note_off_c, 1, 47, 0
1, 87452, Note_off_c, 1, 68, 0
1, 87458, Note_on_c, 1, 48, 127
1, 87458, Note_on_c, 1, 69, 127
1, 87549, Note_off_c, 1, 48, 0
1, 87551, Note_off_c, 1, 69, 0
1, 87556, Note_on_c, 1, 47, 127
1, 87556, Note_on_c, 1, 64, 127
1, 87647, Note_off_c, 1, 47, 0
1, 87654, Note_on_c, 1, 48, 127
1, 87654, Note_on_c, 1, 69, 127
1, 87696, Note_off_c, 1, 64, 0
1, 87745, Note_off_c, 1, 48, 0
1, 87747, Note_off_c, 1, 69, 0
1, 87752, Note_on_c, 1, 47, 127
1, 87752, Note_on_c, 1, 68, 127
1, 87843, Note_off_c, 1, 47, 0
1, 87845, Note_off_c, 1, 68, 0
1, 87850, Note_on_c, 1, 45, 127
1, 87850, Note_on_c, 1, 69, 127
1, 87941, Note_off_c, 1, 45, 0
1, 87943, Note_off_c, 1, 69, 0
1, 87948, Note_on_c, 1, 39, 127
1, 87948, Note_on_c, 1, 72, 127
1, 88046, Note_on_c, 1, 45, 127
1, 88046, Note_on_c, 1, 66, 127
1, 88131, Note_off_c, 1, 39, 0
1, 88131, Note_off_c, 1, 72, 0
1, 88137, Note_off_c, 1, 45, 0
1, 88139, Note_off_c, 1, 66, 0
1, 88144, Note_on_c, 1, 47, 127
1, 88144, Note_on_c, 1, 67, 127
1, 88235, Note_off_c, 1, 47, 0
1, 88237, Note_off_c, 1, 67, 0
1, 88242, Note_on_c, 1, 48, 127
1, 88242, Note_on_c, 1, 69, 127
1, 88333, Note_off_c, 1, 48, 0
1, 88335, Note_off_c, 1, 69, 0
1, 88340, Note_on_c, 1, 47, 127
1, 88340, Note_on_c, 1, 67, 127
1, 88431, Note_off_c, 1, 47, 0
1, 88433, Note_off_c, 1, 67, 0
1, 88439, Note_on_c, 1, 48, 127
1, 88439, Note_on_c, 1, 66, 127
1, 88530, Note_off_c, 1, 48, 0
1, 88532, Note_off_c, 1, 66, 0
1, 88537, Note_on_c, 1, 47, 127
1, 88537, Note_on_c, 1, 64, 127
1, 88628, Note_off_c, 1, 47, 0
1, 88630, Note_off_c, 1, 64, 0
1, 88635, Note_on_c, 1, 45, 127
1, 88635, Note_on_c, 1, 63, 127
1, 88726, Note_off_c, 1, 45, 0
1, 88728, Note_off_c, 1, 63, 0
1, 88733, Note_on_c, 1, 40, 127
1, 88733, Note_on_c, 1, 71, 127
1, 88831, Note_on_c, 1, 43, 127
1, 88831, Note_on_c, 1, 64, 127
1, 88916, Note_off_c, 1, 40, 0
1, 88916, Note_off_c, 1, 71, 0
1, 88922, Note_off_c, 1, 43, 0
1, 88924, Note_off_c, 1, 64, 0
1, 88929, Note_on_c, 1, 45, 127
1, 88929, Note_on_c, 1, 66, 127
1, 89020, Note_off_c, 1, 45, 0
1, 89022, Note_off_c, 1, 66, 0
1, 89027, Note_on_c, 1, 47, 127
1, 89027, Note_on_c, 1, 67, 127
1, 89118, Note_off_c, 1, 47, 0
1, 89120, Note_off_c, 1, 67, 0
1, 89125, Note_on_c, 1, 45, 127
1, 89125, Note_on_c, 1, 66, 127
1, 89216, Note_off_c, 1, 45, 0
1, 89218, Note_off_c, 1, 66, 0
1, 89223, Note_on_c, 1, 47, 127
1, 89223, Note_on_c, 1, 64, 127
1, 89314, Note_off_c, 1, 47, 0
1, 89316, Note_off_c, 1, 64, 0
1, 89321, Note_on_c, 1, 45, 127
1, 89321, Note_on_c, 1, 63, 127
1, 89412, Note_off_c, 1, 45, 0
1, 89414, Note_off_c, 1, 63, 0
1, 89420, Note_on_c, 1, 43, 127
1, 89420, Note_on_c, 1, 64, 127
1, 89511, Note_off_c, 1, 43, 0
1, 89513, Note_off_c, 1, 64, 0
1, 89518, Note_on_c, 1, 69, 127
1, 89518, Note_on_c, 1, 36, 127
1, 89646, Note_on_c, 1, 79, 127
1, 89737, Note_off_c, 1, 79, 0
1, 89741, Note_on_c, 1, 81, 127
1, 89794, Note_off_c, 1, 69, 0
1, 89834, Note_off_c, 1, 81, 0
1, 89840, Note_on_c, 1, 83, 127
1, 89931, Note_off_c, 1, 83, 0
1, 90278, Note_off_c, 1, 36, 0
1, 90319, Note_on_c, 1, 69, 127
1, 90415, Note_on_c, 1, 57, 127
1, 90415, Note_on_c, 1, 78, 127
1, 90504, Note_off_c, 1, 57, 0
1, 90506, Note_off_c, 1, 78, 0
1, 90511, Note_on_c, 1, 59, 127
1, 90511, Note_on_c, 1, 79, 127
1, 90600, Note_off_c, 1, 59, 0
1, 90602, Note_off_c, 1, 79, 0
1, 90607, Note_on_c, 1, 60, 127
1, 90607, Note_on_c, 1, 81, 127
1, 90696, Note_off_c, 1, 60, 0
1, 90698, Note_off_c, 1, 81, 0
1, 91077, Note_off_c, 1, 69, 0
1, 91087, Note_on_c, 1, 49, 127
1, 91087, Note_on_c, 1, 70, 127
1, 91182, Note_on_c, 1, 76, 127
1, 91273, Note_off_c, 1, 76, 0
1, 91278, Note_on_c, 1, 78, 127
1, 91369, Note_off_c, 1, 78, 0
1, 91374, Note_on_c, 1, 79, 127
1, 91465, Note_off_c, 1, 79, 0
1, 91647, Note_off_c, 1, 49, 0
1, 91647, Note_off_c, 1, 70, 0
1, 91664, Note_on_c, 1, 78, 127
1, 91755, Note_off_c, 1, 78, 0
1, 91760, Note_on_c, 1, 76, 127
1, 91851, Note_off_c, 1, 76, 0
1, 91856, Note_on_c, 1, 47, 127
1, 91856, Note_on_c, 1, 75, 127
1, 91950, Note_on_c, 1, 54, 127
1, 91950, Note_on_c, 1, 69, 127
1, 92039, Note_off_c, 1, 54, 0
1, 92041, Note_off_c, 1, 69, 0
1, 92046, Note_on_c, 1, 55, 127
1, 92046, Note_on_c, 1, 71, 127
1, 92132, Note_off_c, 1, 47, 0
1, 92135, Note_off_c, 1, 55, 0
1, 92137, Note_off_c, 1, 71, 0
1, 92142, Note_on_c, 1, 57, 127
1, 92142, Note_on_c, 1, 72, 127
1, 92231, Note_off_c, 1, 57, 0
1, 92233, Note_off_c, 1, 72, 0
1, 92612, Note_off_c, 1, 75, 0
1, 92621, Note_on_c, 1, 47, 127
1, 92621, Note_on_c, 1, 67, 127
1, 92715, Note_on_c, 1, 55, 127
1, 92715, Note_on_c, 1, 71, 127
1, 92804, Note_off_c, 1, 55, 0
1, 92806, Note_off_c, 1, 71, 0
1, 92811, Note_on_c, 1, 57, 127
1, 92811, Note_on_c, 1, 72, 127
1, 92897, Note_off_c, 1, 47, 0
1, 92900, Note_off_c, 1, 57, 0
1, 92902, Note_off_c, 1, 72, 0
1, 92907, Note_on_c, 1, 59, 127
1, 92907, Note_on_c, 1, 74, 127
1, 92996, Note_off_c, 1, 59, 0
1, 92998, Note_off_c, 1, 74, 0
1, 93377, Note_off_c, 1, 67, 0
1, 93386, Note_on_c, 1, 47, 127
1, 93386, Note_on_c, 1, 69, 127
1, 93480, Note_on_c, 1, 57, 127
1, 93480, Note_on_c, 1, 66, 127
1, 93569, Note_off_c, 1, 57, 0
1, 93571, Note_off_c, 1, 66, 0
1, 93576, Note_on_c, 1, 59, 127
1, 93576, Note_on_c, 1, 67, 127
1, 93658, Note_off_c, 1, 47, 0
1, 93662, Note_off_c, 1, 69, 0
1, 93665, Note_off_c, 1, 59, 0
1, 93667, Note_off_c, 1, 67, 0
1, 93672, Note_on_c, 1, 60, 127
1, 93672, Note_on_c, 1, 69, 127
1, 93761, Note_off_c, 1, 60, 0
1, 93763, Note_off_c, 1, 69, 0
1, 93768, Note_on_c, 1, 59, 127
1, 93768, Note_on_c, 1, 67, 127
1, 93857, Note_off_c, 1, 59, 0
1, 93859, Note_off_c, 1, 67, 0
1, 93864, Note_on_c, 1, 60, 127
1, 93864, Note_on_c, 1, 69, 127
1, 93953, Note_off_c, 1, 60, 0
1, 93955, Note_off_c, 1, 69, 0
1, 93960, Note_on_c, 1, 59, 127
1, 93960, Note_on_c, 1, 67, 127
1, 94049, Note_off_c, 1, 59, 0
1, 94051, Note_off_c, 1, 67, 0
1, 94056, Note_on_c, 1, 57, 127
1, 94056, Note_on_c, 1, 66, 127
1, 94145, Note_off_c, 1, 57, 0
1, 94147, Note_off_c, 1, 66, 0
1, 94152, Note_on_c, 1, 47, 127
1, 94152, Note_on_c, 1, 64, 127
1, 94245, Note_on_c, 1, 59, 127
1, 94245, Note_on_c, 1, 67, 127
1, 94334, Note_off_c, 1, 59, 0
1, 94336, Note_off_c, 1, 67, 0
1, 94341, Note_off_c, 1, 47, 0
1, 94341, Note_on_c, 1, 60, 127
1, 94341, Note_on_c, 1, 69, 127
1, 94430, Note_off_c, 1, 60, 0
1, 94432, Note_off_c, 1, 69, 0
1, 94437, Note_on_c, 1, 62, 127
1, 94437, Note_on_c, 1, 71, 127
1, 94526, Note_off_c, 1, 62, 0
1, 94528, Note_off_c, 1, 71, 0
1, 94908, Note_off_c, 1, 64, 0
1, 94917, Note_on_c, 1, 47, 127
1, 94917, Note_on_c, 1, 63, 127
1, 95011, Note_on_c, 1, 57, 127
1, 95011, Note_on_c, 1, 66, 127
1, 95100, Note_off_c, 1, 57, 0
1, 95102, Note_off_c, 1, 66, 0
1, 95106, Note_on_c, 1, 59, 127
1, 95106, Note_on_c, 1, 67, 127
1, 95193, Note_off_c, 1, 47, 0
1, 95195, Note_off_c, 1, 59, 0
1, 95197, Note_off_c, 1, 67, 0
1, 95202, Note_on_c, 1, 60, 127
1, 95202, Note_on_c, 1, 69, 127
1, 95291, Note_off_c, 1, 60, 0
1, 95293, Note_off_c, 1, 69, 0
1, 95472, Note_off_c, 1, 63, 0
1, 95490, Note_on_c, 1, 59, 127
1, 95490, Note_on_c, 1, 67, 127
1, 95579, Note_off_c, 1, 59, 0
1, 95581, Note_off_c, 1, 67, 0
1, 95586, Note_on_c, 1, 57, 127
1, 95586, Note_on_c, 1, 66, 127
1, 95675, Note_off_c, 1, 57, 0
1, 95677, Note_off_c, 1, 66, 0
1, 95682, Note_on_c, 1, 47, 127
1, 95682, Note_on_c, 1, 61, 127
1, 95776, Note_on_c, 1, 55, 127
1, 95776, Note_on_c, 1, 64, 127
1, 95865, Note_off_c, 1, 55, 0
1, 95867, Note_off_c, 1, 64, 0
1, 95872, Note_on_c, 1, 57, 127
1, 95872, Note_on_c, 1, 66, 127
1, 95958, Note_off_c, 1, 47, 0
1, 95961, Note_off_c, 1, 57, 0
1, 95963, Note_off_c, 1, 66, 0
1, 95968, Note_on_c, 1, 59, 127
1, 95968, Note_on_c, 1, 67, 127
1, 96057, Note_off_c, 1, 59, 0
1, 96059, Note_off_c, 1, 61, 0
1, 96059, Note_off_c, 1, 67, 0
1, 96063, Note_on_c, 1, 57, 127
1, 96063, Note_on_c, 1, 66, 127
1, 96152, Note_off_c, 1, 57, 0
1, 96154, Note_off_c, 1, 66, 0
1, 96159, Note_on_c, 1, 59, 127
1, 96159, Note_on_c, 1, 67, 127
1, 96248, Note_off_c, 1, 59, 0
1, 96250, Note_off_c, 1, 67, 0
1, 96255, Note_on_c, 1, 57, 127
1, 96255, Note_on_c, 1, 66, 127
1, 96344, Note_off_c, 1, 57, 0
1, 96346, Note_off_c, 1, 66, 0
1, 96351, Note_on_c, 1, 55, 127
1, 96351, Note_on_c, 1, 64, 127
1, 96440, Note_off_c, 1, 55, 0
1, 96442, Note_off_c, 1, 64, 0
1, 96447, Note_on_c, 1, 47, 127
1, 96447, Note_on_c, 1, 63, 127
1, 96541, Note_on_c, 1, 54, 127
1, 96541, Note_on_c, 1, 57, 127
1, 96630, Note_off_c, 1, 54, 0
1, 96632, Note_off_c, 1, 57, 0
1, 96637, Note_on_c, 1, 55, 127
1, 96637, Note_on_c, 1, 59, 127
1, 96723, Note_off_c, 1, 47, 0
1, 96726, Note_off_c, 1, 55, 0
1, 96728, Note_off_c, 1, 59, 0
1, 96733, Note_on_c, 1, 60, 127
1, 96824, Note_off_c, 1, 60, 0
1, 97002, Note_off_c, 1, 63, 0
1, 97020, Note_on_c, 1, 55, 127
1, 97020, Note_on_c, 1, 59, 127
1, 97109, Note_off_c, 1, 55, 0
1, 97111, Note_off_c, 1, 59, 0
1, 97116, Note_on_c, 1, 54, 127
1, 97116, Note_on_c, 1, 57, 127
1, 97205, Note_off_c, 1, 54, 0
1, 97207, Note_off_c, 1, 57, 0
1, 97212, Note_on_c, 1, 59, 127
1, 97212, Note_on_c, 1, 55, 127
1, 97404, Note_off_c, 1, 59, 0
1, 97409, Note_on_c, 1, 61, 127
1, 97412, Note_off_c, 1, 55, 0
1, 97498, Note_off_c, 1, 61, 0
1, 97507, Note_on_c, 1, 57, 127
1, 97507, Note_on_c, 1, 63, 127
1, 97582, Note_off_c, 1, 57, 0
1, 97584, Note_off_c, 1, 63, 0
1, 97595, Note_on_c, 1, 55, 127
1, 97595, Note_on_c, 1, 64, 127
1, 97670, Note_off_c, 1, 55, 0
1, 97672, Note_off_c, 1, 64, 0
1, 97680, Note_on_c, 1, 54, 127
1, 97680, Note_on_c, 1, 66, 127
1, 97755, Note_off_c, 1, 54, 0
1, 97757, Note_off_c, 1, 66, 0
1, 97767, Note_on_c, 1, 52, 127
1, 97767, Note_on_c, 1, 67, 127
1, 97842, Note_off_c, 1, 52, 0
1, 97844, Note_off_c, 1, 67, 0
1, 97853, Note_on_c, 1, 51, 127
1, 97853, Note_on_c, 1, 69, 127
1, 97928, Note_off_c, 1, 51, 0
1, 97930, Note_off_c, 1, 69, 0
1, 97939, Note_on_c, 1, 54, 127
1, 97939, Note_on_c, 1, 71, 127
1, 98014, Note_off_c, 1, 54, 0
1, 98016, Note_off_c, 1, 71, 0
1, 98026, Note_on_c, 1, 72, 127
1, 98026, Note_on_c, 1, 47, 127
1, 98186, Note_on_c, 1, 51, 127
1, 98186, Note_on_c, 1, 66, 127
1, 98277, Note_off_c, 1, 51, 0
1, 98279, Note_off_c, 1, 66, 0
1, 98285, Note_on_c, 1, 52, 127
1, 98285, Note_on_c, 1, 67, 127
1, 98376, Note_off_c, 1, 52, 0
1, 98378, Note_off_c, 1, 67, 0
1, 98386, Note_on_c, 1, 54, 127
1, 98386, Note_on_c, 1, 69, 127
1, 98477, Note_off_c, 1, 54, 0
1, 98479, Note_off_c, 1, 69, 0
1, 98866, Note_off_c, 1, 72, 0
1, 98866, Note_off_c, 1, 47, 0
1, 98889, Note_on_c, 1, 47, 127
1, 98889, Note_on_c, 1, 73, 127
1, 98989, Note_on_c, 1, 52, 127
1, 98989, Note_on_c, 1, 67, 127
1, 99080, Note_off_c, 1, 52, 0
1, 99082, Note_off_c, 1, 67, 0
1, 99089, Note_on_c, 1, 54, 127
1, 99089, Note_on_c, 1, 69, 127
1, 99180, Note_off_c, 1, 54, 0
1, 99182, Note_off_c, 1, 69, 0
1, 99190, Note_on_c, 1, 55, 127
1, 99190, Note_on_c, 1, 71, 127
1, 99281, Note_off_c, 1, 55, 0
1, 99283, Note_off_c, 1, 71, 0
1, 99682, Note_off_c, 1, 47, 0
1, 99682, Note_off_c, 1, 73, 0
1, 99692, Note_on_c, 1, 47, 127
1, 99692, Note_on_c, 1, 75, 127
1, 99791, Note_on_c, 1, 54, 127
1, 99791, Note_on_c, 1, 69, 127
1, 99882, Note_off_c, 1, 54, 0
1, 99884, Note_off_c, 1, 69, 0
1, 99892, Note_on_c, 1, 55, 127
1, 99892, Note_on_c, 1, 71, 127
1, 99983, Note_off_c, 1, 55, 0
1, 99985, Note_off_c, 1, 71, 0
1, 99993, Note_on_c, 1, 57, 127
1, 99993, Note_on_c, 1, 72, 127
1, 100084, Note_off_c, 1, 57, 0
1, 100086, Note_off_c, 1, 72, 0
1, 100485, Note_off_c, 1, 47, 0
1, 100485, Note_off_c, 1, 75, 0
1, 100496, Note_on_c, 1, 76, 127
1, 100496, Note_on_c, 1, 67, 127
1, 100496, Note_on_c, 1, 48, 127
1, 100496, Note_on_c, 1, 52, 127
1, 100731, Note_off_c, 1, 76, 0
1, 100737, Note_on_c, 1, 74, 127
1, 100826, Note_off_c, 1, 74, 0
1, 100829, Note_on_c, 1, 72, 127
1, 100918, Note_off_c, 1, 72, 0
1, 100921, Note_on_c, 1, 71, 127
1, 101006, Note_off_c, 1, 67, 0
1, 101010, Note_off_c, 1, 71, 0
1, 101013, Note_on_c, 1, 69, 127
1, 101079, Note_off_c, 1, 48, 0
1, 101079, Note_off_c, 1, 52, 0
1, 101102, Note_off_c, 1, 69, 0
1, 101104, Note_on_c, 1, 67, 127
1, 101191, Note_off_c, 1, 67, 0
1, 101194, Note_on_c, 1, 66, 127
1, 101283, Note_off_c, 1, 66, 0
1, 101286, Note_on_c, 1, 64, 127
1, 101375, Note_off_c, 1, 64, 0
1, 101377, Note_on_c, 1, 72, 127
1, 101377, Note_on_c, 1, 45, 127
1, 101548, Note_on_c, 1, 47, 127
1, 101548, Note_on_c, 1, 71, 127
1, 101557, Note_off_c, 1, 72, 0
1, 101557, Note_off_c, 1, 45, 0
1, 101648, Note_off_c, 1, 47, 0
1, 101650, Note_off_c, 1, 71, 0
1, 101655, Note_on_c, 1, 48, 127
1, 101655, Note_on_c, 1, 69, 127
1, 101755, Note_off_c, 1, 48, 0
1, 101757, Note_off_c, 1, 69, 0
1, 101762, Note_on_c, 1, 50, 127
1, 101762, Note_on_c, 1, 67, 127
1, 101862, Note_off_c, 1, 50, 0
1, 101864, Note_off_c, 1, 67, 0
1, 101869, Note_on_c, 1, 52, 127
1, 101869, Note_on_c, 1, 66, 127
1, 101969, Note_off_c, 1, 52, 0
1, 101971, Note_off_c, 1, 66, 0
1, 101975, Note_on_c, 1, 54, 127
1, 101975, Note_on_c, 1, 64, 127
1, 102075, Note_off_c, 1, 54, 0
1, 102077, Note_off_c, 1, 64, 0
1, 102082, Note_on_c, 1, 56, 127
1, 102082, Note_on_c, 1, 63, 127
1, 102182, Note_off_c, 1, 56, 0
1, 102184, Note_off_c, 1, 63, 0
1, 102189, Note_on_c, 1, 57, 127
1, 102189, Note_on_c, 1, 61, 127
1, 102289, Note_off_c, 1, 57, 0
1, 102291, Note_off_c, 1, 61, 0
1, 102296, Note_on_c, 1, 59, 127
1, 102296, Note_on_c, 1, 63, 127
1, 102296, Note_on_c, 1, 47, 127
1, 102500, Note_off_c, 1, 59, 0
1, 102723, Note_on_c, 1, 66, 127
1, 102936, Note_off_c, 1, 63, 0
1, 102937, Note_on_c, 1, 57, 127
1, 103141, Note_off_c, 1, 47, 0
1, 103146, Note_off_c, 1, 57, 0
1, 103150, Note_on_c, 1, 55, 127
1, 103372, Note_off_c, 1, 66, 0
1, 103380, Note_on_c, 1, 64, 127
1, 103601, Note_off_c, 1, 55, 0
1, 103610, Note_on_c, 1, 54, 127
1, 103853, Note_off_c, 1, 64, 0
1, 104071, Note_off_c, 1, 54, 0
1, 104117, Note_on_c, 1, 40, 127
1, 104117, Note_on_c, 1, 52, 127
1, 104117, Note_on_c, 1, 56, 127
1, 106887, Note_off_c, 1, 40, 0
1, 106887, Note_off_c, 1, 52, 0
1, 106887, Note_off_c, 1, 56, 0
1, 107697, Note_on_c, 1, 64, 127
1, 107825, Note_off_c, 1, 64, 0
1, 107833, Note_on_c, 1, 67, 127
1, 107961, Note_off_c, 1, 67, 0
1, 107968, Note_on_c, 1, 71, 127
1, 108096, Note_off_c, 1, 71, 0
1, 108103, Note_on_c, 1, 76, 127
1, 108231, Note_off_c, 1, 76, 0
1, 108238, Note_on_c, 1, 75, 127
1, 108366, Note_off_c, 1, 75, 0
1, 108373, Note_on_c, 1, 76, 127
1, 108501, Note_off_c, 1, 76, 0
1, 108508, Note_on_c, 1, 74, 127
1, 108636, Note_off_c, 1, 74, 0
1, 108644, Note_on_c, 1, 76, 127
1, 108772, Note_off_c, 1, 76, 0
1, 108779, Note_on_c, 1, 73, 127
1, 108907, Note_off_c, 1, 73, 0
1, 108914, Note_on_c, 1, 76, 127
1, 109042, Note_off_c, 1, 76, 0
1, 109049, Note_on_c, 1, 72, 127
1, 109177, Note_off_c, 1, 72, 0
1, 109184, Note_on_c, 1, 76, 127
1, 109312, Note_off_c, 1, 76, 0
1, 109319, Note_on_c, 1, 71, 127
1, 109447, Note_off_c, 1, 71, 0
1, 109455, Note_on_c, 1, 76, 127
1, 109583, Note_off_c, 1, 76, 0
1, 109590, Note_on_c, 1, 75, 127
1, 109718, Note_off_c, 1, 75, 0
1, 109725, Note_on_c, 1, 76, 127
1, 109853, Note_off_c, 1, 76, 0
1, 109860, Note_on_c, 1, 70, 127
1, 109988, Note_off_c, 1, 70, 0
1, 109995, Note_on_c, 1, 73, 127
1, 110123, Note_off_c, 1, 73, 0
1, 110130, Note_on_c, 1, 67, 127
1, 110258, Note_off_c, 1, 67, 0
1, 110266, Note_on_c, 1, 66, 127
1, 110394, Note_off_c, 1, 66, 0
1, 110401, Note_on_c, 1, 67, 127
1, 110529, Note_off_c, 1, 67, 0
1, 110536, Note_on_c, 1, 70, 127
1, 110664, Note_off_c, 1, 70, 0
1, 110671, Note_on_c, 1, 66, 127
1, 110799, Note_off_c, 1, 66, 0
1, 110806, Note_on_c, 1, 64, 127
1, 110934, Note_off_c, 1, 64, 0
1, 110941, Note_on_c, 1, 47, 127
1, 110941, Note_on_c, 1, 62, 127
1, 111069, Note_off_c, 1, 47, 0
1, 111074, Note_on_c, 1, 50, 127
1, 111121, Note_off_c, 1, 62, 0
1, 111204, Note_off_c, 1, 50, 0
1, 111209, Note_on_c, 1, 71, 127
1, 111209, Note_on_c, 1, 54, 127
1, 111270, Note_off_c, 1, 71, 0
1, 111277, Note_on_c, 1, 70, 127
1, 111338, Note_off_c, 1, 70, 0
1, 111339, Note_off_c, 1, 54, 0
1, 111345, Note_on_c, 1, 59, 127
1, 111345, Note_on_c, 1, 71, 127
1, 111473, Note_off_c, 1, 59, 0
1, 111478, Note_on_c, 1, 58, 127
1, 111608, Note_off_c, 1, 58, 0
1, 111613, Note_on_c, 1, 78, 127
1, 111615, Note_off_c, 1, 71, 0
1, 111741, Note_off_c, 1, 78, 0
1, 111748, Note_on_c, 1, 79, 127
1, 111748, Note_on_c, 1, 57, 127
1, 111876, Note_off_c, 1, 79, 0
1, 111878, Note_off_c, 1, 57, 0
1, 111883, Note_on_c, 1, 78, 127
1, 111883, Note_on_c, 1, 59, 127
1, 112011, Note_off_c, 1, 78, 0
1, 112013, Note_off_c, 1, 59, 0
1, 112018, Note_on_c, 1, 76, 127
1, 112018, Note_on_c, 1, 56, 127
1, 112146, Note_off_c, 1, 76, 0
1, 112148, Note_off_c, 1, 56, 0
1, 112153, Note_on_c, 1, 74, 127
1, 112153, Note_on_c, 1, 59, 127
1, 112281, Note_off_c, 1, 74, 0
1, 112283, Note_off_c, 1, 59, 0
1, 112289, Note_on_c, 1, 73, 127
1, 112289, Note_on_c, 1, 55, 127
1, 112417, Note_off_c, 1, 73, 0
1, 112419, Note_off_c, 1, 55, 0
1, 112424, Note_on_c, 1, 76, 127
1, 112424, Note_on_c, 1, 59, 127
1, 112552, Note_off_c, 1, 76, 0
1, 112554, Note_off_c, 1, 59, 0
1, 112559, Note_on_c, 1, 54, 127
1, 112559, Note_on_c, 1, 74, 127
1, 112687, Note_off_c, 1, 54, 0
1, 112692, Note_on_c, 1, 59, 127
1, 112820, Note_off_c, 1, 59, 0
1, 112825, Note_on_c, 1, 58, 127
1, 112953, Note_off_c, 1, 58, 0
1, 113091, Note_on_c, 1, 53, 127
1, 113208, Note_off_c, 1, 74, 0
1, 113221, Note_off_c, 1, 53, 0
1, 113226, Note_on_c, 1, 73, 127
1, 113226, Note_on_c, 1, 56, 127
1, 113354, Note_off_c, 1, 73, 0
1, 113356, Note_off_c, 1, 56, 0
1, 113361, Note_on_c, 1, 71, 127
1, 113361, Note_on_c, 1, 50, 127
1, 113489, Note_off_c, 1, 71, 0
1, 113491, Note_off_c, 1, 50, 0
1, 113496, Note_on_c, 1, 70, 127
1, 113496, Note_on_c, 1, 49, 127
1, 113624, Note_off_c, 1, 70, 0
1, 113626, Note_off_c, 1, 49, 0
1, 113631, Note_on_c, 1, 71, 127
1, 113631, Note_on_c, 1, 50, 127
1, 113759, Note_off_c, 1, 71, 0
1, 113761, Note_off_c, 1, 50, 0
1, 113767, Note_on_c, 1, 73, 127
1, 113767, Note_on_c, 1, 53, 127
1, 113895, Note_off_c, 1, 73, 0
1, 113897, Note_off_c, 1, 53, 0
1, 113902, Note_on_c, 1, 70, 127
1, 113902, Note_on_c, 1, 49, 127
1, 114030, Note_off_c, 1, 70, 0
1, 114032, Note_off_c, 1, 49, 0
1, 114037, Note_on_c, 1, 71, 127
1, 114037, Note_on_c, 1, 47, 127
1, 114165, Note_off_c, 1, 71, 0
1, 114167, Note_off_c, 1, 47, 0
1, 114172, Note_on_c, 1, 73, 127
1, 114172, Note_on_c, 1, 46, 127
1, 114300, Note_off_c, 1, 73, 0
1, 114307, Note_on_c, 1, 66, 127
1, 114368, Note_off_c, 1, 46, 0
1, 114435, Note_off_c, 1, 66, 0
1, 114442, Note_on_c, 1, 54, 127
1, 114442, Note_on_c, 1, 70, 127
1, 114503, Note_off_c, 1, 54, 0
1, 114510, Note_on_c, 1, 53, 127
1, 114570, Note_off_c, 1, 70, 0
1, 114571, Note_off_c, 1, 53, 0
1, 114578, Note_on_c, 1, 73, 127
1, 114578, Note_on_c, 1, 54, 127
1, 114706, Note_off_c, 1, 73, 0
1, 114713, Note_on_c, 1, 76, 127
1, 114838, Note_off_c, 1, 54, 0
1, 114841, Note_off_c, 1, 76, 0
1, 114848, Note_on_c, 1, 70, 127
1, 114848, Note_on_c, 1, 66, 127
1, 114976, Note_off_c, 1, 70, 0
1, 114978, Note_off_c, 1, 66, 0
1, 114983, Note_on_c, 1, 73, 127
1, 114983, Note_on_c, 1, 67, 127
1, 115111, Note_off_c, 1, 73, 0
1, 115113, Note_off_c, 1, 67, 0
1, 115118, Note_on_c, 1, 76, 127
1, 115118, Note_on_c, 1, 66, 127
1, 115246, Note_off_c, 1, 76, 0
1, 115248, Note_off_c, 1, 66, 0
1, 115253, Note_on_c, 1, 79, 127
1, 115253, Note_on_c, 1, 64, 127
1, 115381, Note_off_c, 1, 79, 0
1, 115383, Note_off_c, 1, 64, 0
1, 115389, Note_on_c, 1, 78, 127
1, 115389, Note_on_c, 1, 62, 127
1, 115517, Note_off_c, 1, 78, 0
1, 115519, Note_off_c, 1, 62, 0
1, 115524, Note_on_c, 1, 76, 127
1, 115524, Note_on_c, 1, 61, 127
1, 115652, Note_off_c, 1, 76, 0
1, 115654, Note_off_c, 1, 61, 0
1, 115659, Note_on_c, 1, 79, 127
1, 115659, Note_on_c, 1, 64, 127
1, 115787, Note_off_c, 1, 79, 0
1, 115789, Note_off_c, 1, 64, 0
1, 115794, Note_on_c, 1, 78, 127
1, 115794, Note_on_c, 1, 62, 127
1, 115922, Note_off_c, 1, 78, 0
1, 115929, Note_on_c, 1, 76, 127
1, 116057, Note_off_c, 1, 76, 0
1, 116064, Note_on_c, 1, 74, 127
1, 116192, Note_off_c, 1, 74, 0
1, 116199, Note_on_c, 1, 73, 127
1, 116327, Note_off_c, 1, 73, 0
1, 116335, Note_on_c, 1, 71, 127
1, 116463, Note_off_c, 1, 62, 0
1, 116463, Note_off_c, 1, 71, 0
1, 116470, Note_on_c, 1, 70, 127
1, 116470, Note_on_c, 1, 61, 127
1, 116598, Note_off_c, 1, 70, 0
1, 116600, Note_off_c, 1, 61, 0
1, 116605, Note_on_c, 1, 68, 127
1, 116605, Note_on_c, 1, 59, 127
1, 116733, Note_off_c, 1, 68, 0
1, 116735, Note_off_c, 1, 59, 0
1, 116740, Note_on_c, 1, 66, 127
1, 116740, Note_on_c, 1, 58, 127
1, 116868, Note_off_c, 1, 66, 0
1, 116870, Note_off_c, 1, 58, 0
1, 116875, Note_on_c, 1, 59, 127
1, 116875, Note_on_c, 1, 74, 127
1, 117003, Note_off_c, 1, 59, 0
1, 117008, Note_on_c, 1, 61, 127
1, 117136, Note_off_c, 1, 61, 0
1, 117141, Note_on_c, 1, 57, 127
1, 117269, Note_off_c, 1, 57, 0
1, 117407, Note_on_c, 1, 44, 127
1, 117524, Note_off_c, 1, 74, 0
1, 117542, Note_on_c, 1, 64, 127
1, 117603, Note_off_c, 1, 44, 0
1, 117670, Note_off_c, 1, 64, 0
1, 117678, Note_on_c, 1, 52, 127
1, 117678, Note_on_c, 1, 68, 127
1, 117739, Note_off_c, 1, 52, 0
1, 117745, Note_on_c, 1, 51, 127
1, 117806, Note_off_c, 1, 68, 0
1, 117806, Note_off_c, 1, 51, 0
1, 117813, Note_on_c, 1, 71, 127
1, 117813, Note_on_c, 1, 52, 127
1, 117941, Note_off_c, 1, 71, 0
1, 117948, Note_on_c, 1, 74, 127
1, 118073, Note_off_c, 1, 52, 0
1, 118076, Note_off_c, 1, 74, 0
1, 118083, Note_on_c, 1, 68, 127
1, 118083, Note_on_c, 1, 64, 127
1, 118211, Note_off_c, 1, 68, 0
1, 118213, Note_off_c, 1, 64, 0
1, 118218, Note_on_c, 1, 71, 127
1, 118218, Note_on_c, 1, 65, 127
1, 118346, Note_off_c, 1, 71, 0
1, 118348, Note_off_c, 1, 65, 0
1, 118353, Note_on_c, 1, 74, 127
1, 118353, Note_on_c, 1, 64, 127
1, 118481, Note_off_c, 1, 74, 0
1, 118483, Note_off_c, 1, 64, 0
1, 118488, Note_on_c, 1, 77, 127
1, 118488, Note_on_c, 1, 62, 127
1, 118616, Note_off_c, 1, 77, 0
1, 118618, Note_off_c, 1, 62, 0
1, 118624, Note_on_c, 1, 76, 127
1, 118624, Note_on_c, 1, 60, 127
1, 118752, Note_off_c, 1, 76, 0
1, 118754, Note_off_c, 1, 60, 0
1, 118759, Note_on_c, 1, 74, 127
1, 118759, Note_on_c, 1, 59, 127
1, 118887, Note_off_c, 1, 74, 0
1, 118889, Note_off_c, 1, 59, 0
1, 118894, Note_on_c, 1, 77, 127
1, 118894, Note_on_c, 1, 62, 127
1, 119022, Note_off_c, 1, 77, 0
1, 119024, Note_off_c, 1, 62, 0
1, 119029, Note_on_c, 1, 76, 127
1, 119029, Note_on_c, 1, 60, 127
1, 119157, Note_off_c, 1, 76, 0
1, 119164, Note_on_c, 1, 74, 127
1, 119292, Note_off_c, 1, 74, 0
1, 119299, Note_on_c, 1, 72, 127
1, 119427, Note_off_c, 1, 72, 0
1, 119435, Note_on_c, 1, 71, 127
1, 119563, Note_off_c, 1, 71, 0
1, 119570, Note_on_c, 1, 69, 127
1, 119698, Note_off_c, 1, 60, 0
1, 119698, Note_off_c, 1, 69, 0
1, 119705, Note_on_c, 1, 68, 127
1, 119705, Note_on_c, 1, 59, 127
1, 119833, Note_off_c, 1, 68, 0
1, 119835, Note_off_c, 1, 59, 0
1, 119840, Note_on_c, 1, 66, 127
1, 119840, Note_on_c, 1, 57, 127
1, 119968, Note_off_c, 1, 66, 0
1, 119970, Note_off_c, 1, 57, 0
1, 119975, Note_on_c, 1, 64, 127
1, 119975, Note_on_c, 1, 56, 127
1, 120103, Note_off_c, 1, 64, 0
1, 120105, Note_off_c, 1, 56, 0
1, 120110, Note_on_c, 1, 57, 127
1, 120110, Note_on_c, 1, 72, 127
1, 120238, Note_off_c, 1, 57, 0
1, 120243, Note_on_c, 1, 59, 127
1, 120371, Note_off_c, 1, 59, 0
1, 120376, Note_on_c, 1, 55, 127
1, 120504, Note_off_c, 1, 55, 0
1, 120642, Note_on_c, 1, 42, 127
1, 120759, Note_off_c, 1, 72, 0
1, 120777, Note_on_c, 1, 69, 127
1, 120838, Note_off_c, 1, 42, 0
1, 120905, Note_off_c, 1, 69, 0
1, 120913, Note_on_c, 1, 50, 127
1, 120913, Note_on_c, 1, 62, 127
1, 120974, Note_off_c, 1, 50, 0
1, 120980, Note_on_c, 1, 49, 127
1, 121041, Note_off_c, 1, 62, 0
1, 121041, Note_off_c, 1, 49, 0
1, 121048, Note_on_c, 1, 64, 127
1, 121048, Note_on_c, 1, 50, 127
1, 121176, Note_off_c, 1, 64, 0
1, 121183, Note_on_c, 1, 66, 127
1, 121308, Note_off_c, 1, 50, 0
1, 121311, Note_off_c, 1, 66, 0
1, 121318, Note_on_c, 1, 67, 127
1, 121318, Note_on_c, 1, 52, 127
1, 121446, Note_off_c, 1, 67, 0
1, 121448, Note_off_c, 1, 52, 0
1, 121453, Note_on_c, 1, 69, 127
1, 121453, Note_on_c, 1, 54, 127
1, 121581, Note_off_c, 1, 69, 0
1, 121583, Note_off_c, 1, 54, 0
1, 121588, Note_on_c, 1, 71, 127
1, 121588, Note_on_c, 1, 55, 127
1, 121716, Note_off_c, 1, 71, 0
1, 121718, Note_off_c, 1, 55, 0
1, 121724, Note_on_c, 1, 72, 127
1, 121724, Note_on_c, 1, 57, 127
1, 121852, Note_off_c, 1, 72, 0
1, 121854, Note_off_c, 1, 57, 0
1, 121859, Note_on_c, 1, 74, 127
1, 121859, Note_on_c, 1, 59, 127
1, 121987, Note_off_c, 1, 74, 0
1, 121989, Note_off_c, 1, 59, 0
1, 121994, Note_on_c, 1, 76, 127
1, 121994, Note_on_c, 1, 60, 127
1, 122122, Note_off_c, 1, 76, 0
1, 122124, Note_off_c, 1, 60, 0
1, 122129, Note_on_c, 1, 78, 127
1, 122129, Note_on_c, 1, 57, 127
1, 122257, Note_off_c, 1, 78, 0
1, 122259, Note_off_c, 1, 57, 0
1, 122264, Note_on_c, 1, 79, 127
1, 122264, Note_on_c, 1, 59, 127
1, 122392, Note_off_c, 1, 79, 0
1, 122394, Note_off_c, 1, 59, 0
1, 122399, Note_on_c, 1, 78, 127
1, 122399, Note_on_c, 1, 57, 127
1, 122527, Note_off_c, 1, 78, 0
1, 122529, Note_off_c, 1, 57, 0
1, 122535, Note_on_c, 1, 81, 127
1, 122535, Note_on_c, 1, 60, 127
1, 122663, Note_off_c, 1, 81, 0
1, 122665, Note_off_c, 1, 60, 0
1, 122670, Note_on_c, 1, 79, 127
1, 122670, Note_on_c, 1, 59, 127
1, 122798, Note_off_c, 1, 79, 0
1, 122800, Note_off_c, 1, 59, 0
1, 122805, Note_on_c, 1, 78, 127
1, 122805, Note_on_c, 1, 57, 127
1, 122933, Note_off_c, 1, 78, 0
1, 122935, Note_off_c, 1, 57, 0
1, 122940, Note_on_c, 1, 76, 127
1, 122940, Note_on_c, 1, 55, 127
1, 123068, Note_off_c, 1, 76, 0
1, 123070, Note_off_c, 1, 55, 0
1, 123075, Note_on_c, 1, 74, 127
1, 123075, Note_on_c, 1, 54, 127
1, 123203, Note_off_c, 1, 74, 0
1, 123205, Note_off_c, 1, 54, 0
1, 123210, Note_on_c, 1, 72, 127
1, 123210, Note_on_c, 1, 52, 127
1, 123338, Note_off_c, 1, 72, 0
1, 123340, Note_off_c, 1, 52, 0
1, 123346, Note_on_c, 1, 71, 127
1, 123346, Note_on_c, 1, 50, 127
1, 123474, Note_off_c, 1, 71, 0
1, 123476, Note_off_c, 1, 50, 0
1, 123481, Note_on_c, 1, 79, 127
1, 123481, Note_on_c, 1, 52, 127
1, 123609, Note_off_c, 1, 79, 0
1, 123611, Note_off_c, 1, 52, 0
1, 123616, Note_on_c, 1, 69, 127
1, 123616, Note_on_c, 1, 48, 127
1, 123744, Note_off_c, 1, 69, 0
1, 123746, Note_off_c, 1, 48, 0
1, 123751, Note_on_c, 1, 78, 127
1, 123751, Note_on_c, 1, 50, 127
1, 123879, Note_off_c, 1, 78, 0
1, 123881, Note_off_c, 1, 50, 0
1, 123886, Note_on_c, 1, 67, 127
1, 123886, Note_on_c, 1, 47, 127
1, 124014, Note_off_c, 1, 67, 0
1, 124021, Note_on_c, 1, 71, 127
1, 124082, Note_off_c, 1, 47, 0
1, 124149, Note_off_c, 1, 71, 0
1, 124156, Note_on_c, 1, 55, 127
1, 124156, Note_on_c, 1, 74, 127
1, 124217, Note_off_c, 1, 55, 0
1, 124224, Note_on_c, 1, 54, 127
1, 124284, Note_off_c, 1, 74, 0
1, 124285, Note_off_c, 1, 54, 0
1, 124292, Note_on_c, 1, 79, 127
1, 124292, Note_on_c, 1, 55, 127
1, 124420, Note_off_c, 1, 79, 0
1, 124427, Note_on_c, 1, 78, 127
1, 124552, Note_off_c, 1, 55, 0
1, 124555, Note_off_c, 1, 78, 0
1, 124562, Note_on_c, 1, 79, 127
1, 124562, Note_on_c, 1, 62, 127
1, 124690, Note_off_c, 1, 79, 0
1, 124692, Note_off_c, 1, 62, 0
1, 124697, Note_on_c, 1, 77, 127
1, 124697, Note_on_c, 1, 64, 127
1, 124825, Note_off_c, 1, 77, 0
1, 124827, Note_off_c, 1, 64, 0
1, 124832, Note_on_c, 1, 79, 127
1, 124832, Note_on_c, 1, 62, 127
1, 124960, Note_off_c, 1, 79, 0
1, 124962, Note_off_c, 1, 62, 0
1, 124967, Note_on_c, 1, 76, 127
1, 124967, Note_on_c, 1, 60, 127
1, 125095, Note_off_c, 1, 76, 0
1, 125097, Note_off_c, 1, 60, 0
1, 125103, Note_on_c, 1, 79, 127
1, 125103, Note_on_c, 1, 59, 127
1, 125231, Note_off_c, 1, 79, 0
1, 125233, Note_off_c, 1, 59, 0
1, 125238, Note_on_c, 1, 75, 127
1, 125238, Note_on_c, 1, 57, 127
1, 125366, Note_off_c, 1, 75, 0
1, 125368, Note_off_c, 1, 57, 0
1, 125373, Note_on_c, 1, 79, 127
1, 125373, Note_on_c, 1, 60, 127
1, 125501, Note_off_c, 1, 79, 0
1, 125503, Note_off_c, 1, 60, 0
1, 125508, Note_on_c, 1, 74, 127
1, 125508, Note_on_c, 1, 59, 127
1, 125636, Note_off_c, 1, 74, 0
1, 125643, Note_on_c, 1, 79, 127
1, 125771, Note_off_c, 1, 79, 0
1, 125778, Note_on_c, 1, 78, 127
1, 125906, Note_off_c, 1, 78, 0
1, 126049, Note_on_c, 1, 73, 127
1, 126177, Note_off_c, 1, 59, 0
1, 126177, Note_off_c, 1, 73, 0
1, 126184, Note_on_c, 1, 76, 127
1, 126184, Note_on_c, 1, 57, 127
1, 126312, Note_off_c, 1, 76, 0
1, 126314, Note_off_c, 1, 57, 0
1, 126319, Note_on_c, 1, 70, 127
1, 126319, Note_on_c, 1, 55, 127
1, 126447, Note_off_c, 1, 70, 0
1, 126449, Note_off_c, 1, 55, 0
1, 126454, Note_on_c, 1, 69, 127
1, 126454, Note_on_c, 1, 54, 127
1, 126582, Note_off_c, 1, 69, 0
1, 126584, Note_off_c, 1, 54, 0
1, 126589, Note_on_c, 1, 70, 127
1, 126589, Note_on_c, 1, 55, 127
1, 126717, Note_off_c, 1, 70, 0
1, 126719, Note_off_c, 1, 55, 0
1, 126725, Note_on_c, 1, 73, 127
1, 126725, Note_on_c, 1, 54, 127
1, 126853, Note_off_c, 1, 73, 0
1, 126855, Note_off_c, 1, 54, 0
1, 126860, Note_on_c, 1, 69, 127
1, 126860, Note_on_c, 1, 55, 127
1, 126988, Note_off_c, 1, 69, 0
1, 126990, Note_off_c, 1, 55, 0
1, 126995, Note_on_c, 1, 67, 127
1, 126995, Note_on_c, 1, 57, 127
1, 127123, Note_off_c, 1, 67, 0
1, 127125, Note_off_c, 1, 57, 0
1, 127130, Note_on_c, 1, 50, 127
1, 127130, Note_on_c, 1, 66, 127
1, 127258, Note_off_c, 1, 50, 0
1, 127263, Note_on_c, 1, 54, 127
1, 127310, Note_off_c, 1, 66, 0
1, 127393, Note_off_c, 1, 54, 0
1, 127398, Note_on_c, 1, 74, 127
1, 127398, Note_on_c, 1, 57, 127
1, 127459, Note_off_c, 1, 74, 0
1, 127466, Note_on_c, 1, 73, 127
1, 127527, Note_off_c, 1, 73, 0
1, 127528, Note_off_c, 1, 57, 0
1, 127533, Note_on_c, 1, 62, 127
1, 127533, Note_on_c, 1, 74, 127
1, 127661, Note_off_c, 1, 62, 0
1, 127666, Note_on_c, 1, 61, 127
1, 127793, Note_off_c, 1, 74, 0
1, 127796, Note_off_c, 1, 61, 0
1, 127801, Note_on_c, 1, 81, 127
1, 127801, Note_on_c, 1, 62, 127
1, 127929, Note_off_c, 1, 81, 0
1, 127931, Note_off_c, 1, 62, 0
1, 127937, Note_on_c, 1, 83, 127
1, 127937, Note_on_c, 1, 60, 127
1, 128065, Note_off_c, 1, 83, 0
1, 128067, Note_off_c, 1, 60, 0
1, 128072, Note_on_c, 1, 81, 127
1, 128072, Note_on_c, 1, 62, 127
1, 128200, Note_off_c, 1, 81, 0
1, 128202, Note_off_c, 1, 62, 0
1, 128207, Note_on_c, 1, 79, 127
1, 128207, Note_on_c, 1, 59, 127
1, 128335, Note_off_c, 1, 79, 0
1, 128337, Note_off_c, 1, 59, 0
1, 128342, Note_on_c, 1, 78, 127
1, 128342, Note_on_c, 1, 62, 127
1, 128470, Note_off_c, 1, 78, 0
1, 128472, Note_off_c, 1, 62, 0
1, 128477, Note_on_c, 1, 76, 127
1, 128477, Note_on_c, 1, 58, 127
1, 128605, Note_off_c, 1, 76, 0
1, 128607, Note_off_c, 1, 58, 0
1, 128612, Note_on_c, 1, 79, 127
1, 128612, Note_on_c, 1, 62, 127
1, 128740, Note_off_c, 1, 79, 0
1, 128742, Note_off_c, 1, 62, 0
1, 128748, Note_on_c, 1, 57, 127
1, 128748, Note_on_c, 1, 78, 127
1, 128876, Note_off_c, 1, 57, 0
1, 128881, Note_on_c, 1, 62, 127
1, 129009, Note_off_c, 1, 62, 0
1, 129014, Note_on_c, 1, 61, 127
1, 129142, Note_off_c, 1, 61, 0
1, 129279, Note_on_c, 1, 56, 127
1, 129397, Note_off_c, 1, 78, 0
1, 129409, Note_off_c, 1, 56, 0
1, 129415, Note_on_c, 1, 76, 127
1, 129415, Note_on_c, 1, 59, 127
1, 129543, Note_off_c, 1, 76, 0
1, 129545, Note_off_c, 1, 59, 0
1, 129550, Note_on_c, 1, 74, 127
1, 129550, Note_on_c, 1, 53, 127
1, 129678, Note_off_c, 1, 74, 0
1, 129680, Note_off_c, 1, 53, 0
1, 129685, Note_on_c, 1, 73, 127
1, 129685, Note_on_c, 1, 52, 127
1, 129813, Note_off_c, 1, 73, 0
1, 129815, Note_off_c, 1, 52, 0
1, 129820, Note_on_c, 1, 74, 127
1, 129820, Note_on_c, 1, 53, 127
1, 129948, Note_off_c, 1, 74, 0
1, 129950, Note_off_c, 1, 53, 0
1, 129955, Note_on_c, 1, 76, 127
1, 129955, Note_on_c, 1, 56, 127
1, 130083, Note_off_c, 1, 76, 0
1, 130085, Note_off_c, 1, 56, 0
1, 130090, Note_on_c, 1, 73, 127
1, 130090, Note_on_c, 1, 52, 127
1, 130218, Note_off_c, 1, 73, 0
1, 130220, Note_off_c, 1, 52, 0
1, 130226, Note_on_c, 1, 74, 127
1, 130226, Note_on_c, 1, 50, 127
1, 130354, Note_off_c, 1, 74, 0
1, 130356, Note_off_c, 1, 50, 0
1, 130361, Note_on_c, 1, 76, 127
1, 130361, Note_on_c, 1, 49, 127
1, 130489, Note_off_c, 1, 76, 0
1, 130496, Note_on_c, 1, 74, 127
1, 130557, Note_off_c, 1, 49, 0
1, 130624, Note_off_c, 1, 74, 0
1, 130631, Note_on_c, 1, 73, 127
1, 130631, Note_on_c, 1, 45, 127
1, 130759, Note_off_c, 1, 73, 0
1, 130766, Note_on_c, 1, 71, 127
1, 130827, Note_off_c, 1, 45, 0
1, 130894, Note_off_c, 1, 71, 0
1, 130901, Note_on_c, 1, 69, 127
1, 130901, Note_on_c, 1, 49, 127
1, 131029, Note_off_c, 1, 69, 0
1, 131037, Note_on_c, 1, 68, 127
1, 131097, Note_off_c, 1, 49, 0
1, 131165, Note_off_c, 1, 68, 0
1, 131172, Note_on_c, 1, 76, 127
1, 131172, Note_on_c, 1, 52, 127
1, 131300, Note_off_c, 1, 76, 0
1, 131307, Note_on_c, 1, 74, 127
1, 131368, Note_off_c, 1, 52, 0
1, 131435, Note_off_c, 1, 74, 0
1, 131442, Note_on_c, 1, 73, 127
1, 131442, Note_on_c, 1, 57, 127
1, 131570, Note_off_c, 1, 73, 0
1, 131577, Note_on_c, 1, 71, 127
1, 131638, Note_off_c, 1, 57, 0
1, 131705, Note_off_c, 1, 71, 0
1, 131712, Note_on_c, 1, 69, 127
1, 131712, Note_on_c, 1, 49, 127
1, 131840, Note_off_c, 1, 69, 0
1, 131848, Note_on_c, 1, 67, 127
1, 131908, Note_off_c, 1, 49, 0
1, 131976, Note_off_c, 1, 67, 0
1, 131983, Note_on_c, 1, 57, 127
1, 131983, Note_on_c, 1, 66, 127
1, 132111, Note_off_c, 1, 57, 0
1, 132116, Note_on_c, 1, 55, 127
1, 132163, Note_off_c, 1, 66, 0
1, 132246, Note_off_c, 1, 55, 0
1, 132251, Note_on_c, 1, 54, 127
1, 132251, Note_on_c, 1, 62, 127
1, 132379, Note_off_c, 1, 54, 0
1, 132384, Note_on_c, 1, 52, 127
1, 132431, Note_off_c, 1, 62, 0
1, 132514, Note_off_c, 1, 52, 0
1, 132519, Note_on_c, 1, 50, 127
1, 132519, Note_on_c, 1, 66, 127
1, 132647, Note_off_c, 1, 50, 0
1, 132652, Note_on_c, 1, 49, 127
1, 132699, Note_off_c, 1, 66, 0
1, 132782, Note_off_c, 1, 49, 0
1, 132787, Note_on_c, 1, 57, 127
1, 132787, Note_on_c, 1, 69, 127
1, 132915, Note_off_c, 1, 57, 0
1, 132920, Note_on_c, 1, 55, 127
1, 132967, Note_off_c, 1, 69, 0
1, 133050, Note_off_c, 1, 55, 0
1, 133055, Note_on_c, 1, 54, 127
1, 133055, Note_on_c, 1, 74, 127
1, 133183, Note_off_c, 1, 54, 0
1, 133188, Note_on_c, 1, 52, 127
1, 133235, Note_off_c, 1, 74, 0
1, 133318, Note_off_c, 1, 52, 0
1, 133323, Note_on_c, 1, 50, 127
1, 133323, Note_on_c, 1, 66, 127
1, 133451, Note_off_c, 1, 50, 0
1, 133456, Note_on_c, 1, 48, 127
1, 133503, Note_off_c, 1, 66, 0
1, 133586, Note_off_c, 1, 48, 0
1, 133592, Note_on_c, 1, 74, 127
1, 133592, Note_on_c, 1, 47, 127
1, 133720, Note_off_c, 1, 74, 0
1, 133727, Note_on_c, 1, 72, 127
1, 133788, Note_off_c, 1, 47, 0
1, 133855, Note_off_c, 1, 72, 0
1, 133862, Note_on_c, 1, 71, 127
1, 133862, Note_on_c, 1, 43, 127
1, 133990, Note_off_c, 1, 71, 0
1, 133997, Note_on_c, 1, 69, 127
1, 134058, Note_off_c, 1, 43, 0
1, 134125, Note_off_c, 1, 69, 0
1, 134132, Note_on_c, 1, 67, 127
1, 134132, Note_on_c, 1, 47, 127
1, 134260, Note_off_c, 1, 67, 0
1, 134267, Note_on_c, 1, 66, 127
1, 134328, Note_off_c, 1, 47, 0
1, 134395, Note_off_c, 1, 66, 0
1, 134402, Note_on_c, 1, 74, 127
1, 134402, Note_on_c, 1, 50, 127
1, 134530, Note_off_c, 1, 74, 0
1, 134538, Note_on_c, 1, 72, 127
1, 134598, Note_off_c, 1, 50, 0
1, 134666, Note_off_c, 1, 72, 0
1, 134673, Note_on_c, 1, 71, 127
1, 134673, Note_on_c, 1, 55, 127
1, 134801, Note_off_c, 1, 71, 0
1, 134808, Note_on_c, 1, 69, 127
1, 134869, Note_off_c, 1, 55, 0
1, 134936, Note_off_c, 1, 69, 0
1, 134943, Note_on_c, 1, 67, 127
1, 134943, Note_on_c, 1, 47, 127
1, 135071, Note_off_c, 1, 67, 0
1, 135078, Note_on_c, 1, 65, 127
1, 135139, Note_off_c, 1, 47, 0
1, 135206, Note_off_c, 1, 65, 0
1, 135213, Note_on_c, 1, 55, 127
1, 135213, Note_on_c, 1, 64, 127
1, 135341, Note_off_c, 1, 55, 0
1, 135346, Note_on_c, 1, 53, 127
1, 135393, Note_off_c, 1, 64, 0
1, 135476, Note_off_c, 1, 53, 0
1, 135482, Note_on_c, 1, 52, 127
1, 135482, Note_on_c, 1, 60, 127
1, 135610, Note_off_c, 1, 52, 0
1, 135615, Note_on_c, 1, 50, 127
1, 135662, Note_off_c, 1, 60, 0
1, 135745, Note_off_c, 1, 50, 0
1, 135750, Note_on_c, 1, 48, 127
1, 135750, Note_on_c, 1, 64, 127
1, 135878, Note_off_c, 1, 48, 0
1, 135883, Note_on_c, 1, 47, 127
1, 135930, Note_off_c, 1, 64, 0
1, 136013, Note_off_c, 1, 47, 0
1, 136018, Note_on_c, 1, 55, 127
1, 136018, Note_on_c, 1, 67, 127
1, 136146, Note_off_c, 1, 55, 0
1, 136151, Note_on_c, 1, 53, 127
1, 136198, Note_off_c, 1, 67, 0
1, 136281, Note_off_c, 1, 53, 0
1, 136286, Note_on_c, 1, 52, 127
1, 136286, Note_on_c, 1, 72, 127
1, 136414, Note_off_c, 1, 52, 0
1, 136419, Note_on_c, 1, 50, 127
1, 136466, Note_off_c, 1, 72, 0
1, 136549, Note_off_c, 1, 50, 0
1, 136554, Note_on_c, 1, 48, 127
1, 136554, Note_on_c, 1, 64, 127
1, 136682, Note_off_c, 1, 48, 0
1, 136687, Note_on_c, 1, 47, 127
1, 136734, Note_off_c, 1, 64, 0
1, 136817, Note_off_c, 1, 47, 0
1, 136822, Note_on_c, 1, 76, 127
1, 136822, Note_on_c, 1, 52, 127
1, 136950, Note_off_c, 1, 76, 0
1, 136952, Note_off_c, 1, 52, 0
1, 136957, Note_on_c, 1, 74, 127
1, 136957, Note_on_c, 1, 50, 127
1, 137085, Note_off_c, 1, 74, 0
1, 137087, Note_off_c, 1, 50, 0
1, 137093, Note_on_c, 1, 72, 127
1, 137093, Note_on_c, 1, 48, 127
1, 137221, Note_off_c, 1, 72, 0
1, 137223, Note_off_c, 1, 48, 0
1, 137228, Note_on_c, 1, 71, 127
1, 137228, Note_on_c, 1, 47, 127
1, 137356, Note_off_c, 1, 71, 0
1, 137358, Note_off_c, 1, 47, 0
1, 137363, Note_on_c, 1, 69, 127
1, 137363, Note_on_c, 1, 45, 127
1, 137491, Note_off_c, 1, 69, 0
1, 137493, Note_off_c, 1, 45, 0
1, 137498, Note_on_c, 1, 68, 127
1, 137498, Note_on_c, 1, 44, 127
1, 137626, Note_off_c, 1, 68, 0
1, 137628, Note_off_c, 1, 44, 0
1, 137633, Note_on_c, 1, 76, 127
1, 137633, Note_on_c, 1, 52, 127
1, 137761, Note_off_c, 1, 76, 0
1, 137763, Note_off_c, 1, 52, 0
1, 137768, Note_on_c, 1, 74, 127
1, 137768, Note_on_c, 1, 50, 127
1, 137896, Note_off_c, 1, 74, 0
1, 137898, Note_off_c, 1, 50, 0
1, 137904, Note_on_c, 1, 72, 127
1, 137904, Note_on_c, 1, 48, 127
1, 138032, Note_off_c, 1, 72, 0
1, 138034, Note_off_c, 1, 48, 0
1, 138039, Note_on_c, 1, 71, 127
1, 138039, Note_on_c, 1, 47, 127
1, 138167, Note_off_c, 1, 71, 0
1, 138169, Note_off_c, 1, 47, 0
1, 138174, Note_on_c, 1, 69, 127
1, 138174, Note_on_c, 1, 45, 127
1, 138302, Note_off_c, 1, 69, 0
1, 138304, Note_off_c, 1, 45, 0
1, 138309, Note_on_c, 1, 68, 127
1, 138309, Note_on_c, 1, 44, 127
1, 138437, Note_off_c, 1, 68, 0
1, 138439, Note_off_c, 1, 44, 0
1, 138444, Note_on_c, 1, 45, 127
1, 138444, Note_on_c, 1, 69, 127
1, 138572, Note_off_c, 1, 45, 0
1, 138577, Note_on_c, 1, 48, 127
1, 138577, Note_on_c, 1, 72, 127
1, 138638, Note_off_c, 1, 69, 0
1, 138705, Note_off_c, 1, 48, 0
1, 138710, Note_on_c, 1, 52, 127
1, 138710, Note_on_c, 1, 76, 127
1, 138771, Note_off_c, 1, 72, 0
1, 138838, Note_off_c, 1, 52, 0
1, 138843, Note_on_c, 1, 57, 127
1, 138843, Note_on_c, 1, 81, 127
1, 138904, Note_off_c, 1, 76, 0
1, 138971, Note_off_c, 1, 57, 0
1, 138976, Note_on_c, 1, 56, 127
1, 139023, Note_off_c, 1, 81, 0
1, 139106, Note_off_c, 1, 56, 0
1, 139111, Note_on_c, 1, 76, 127
1, 139111, Note_on_c, 1, 57, 127
1, 139239, Note_off_c, 1, 76, 0
1, 139241, Note_off_c, 1, 57, 0
1, 139246, Note_on_c, 1, 77, 127
1, 139246, Note_on_c, 1, 55, 127
1, 139374, Note_off_c, 1, 77, 0
1, 139376, Note_off_c, 1, 55, 0
1, 139382, Note_on_c, 1, 76, 127
1, 139382, Note_on_c, 1, 57, 127
1, 139510, Note_off_c, 1, 76, 0
1, 139512, Note_off_c, 1, 57, 0
1, 139517, Note_on_c, 1, 74, 127
1, 139517, Note_on_c, 1, 54, 127
1, 139645, Note_off_c, 1, 74, 0
1, 139647, Note_off_c, 1, 54, 0
1, 139652, Note_on_c, 1, 72, 127
1, 139652, Note_on_c, 1, 57, 127
1, 139780, Note_off_c, 1, 72, 0
1, 139782, Note_off_c, 1, 57, 0
1, 139787, Note_on_c, 1, 71, 127
1, 139787, Note_on_c, 1, 53, 127
1, 139915, Note_off_c, 1, 71, 0
1, 139917, Note_off_c, 1, 53, 0
1, 139922, Note_on_c, 1, 74, 127
1, 139922, Note_on_c, 1, 57, 127
1, 140050, Note_off_c, 1, 74, 0
1, 140052, Note_off_c, 1, 57, 0
1, 140057, Note_on_c, 1, 52, 127
1, 140057, Note_on_c, 1, 72, 127
1, 140185, Note_off_c, 1, 52, 0
1, 140190, Note_on_c, 1, 57, 127
1, 140318, Note_off_c, 1, 57, 0
1, 140323, Note_on_c, 1, 56, 127
1, 140451, Note_off_c, 1, 56, 0
1, 140589, Note_on_c, 1, 51, 127
1, 140706, Note_off_c, 1, 72, 0
1, 140719, Note_off_c, 1, 51, 0
1, 140724, Note_on_c, 1, 71, 127
1, 140724, Note_on_c, 1, 54, 127
1, 140852, Note_off_c, 1, 71, 0
1, 140854, Note_off_c, 1, 54, 0
1, 140860, Note_on_c, 1, 69, 127
1, 140860, Note_on_c, 1, 48, 127
1, 140988, Note_off_c, 1, 69, 0
1, 140990, Note_off_c, 1, 48, 0
1, 140995, Note_on_c, 1, 68, 127
1, 140995, Note_on_c, 1, 47, 127
1, 141123, Note_off_c, 1, 68, 0
1, 141125, Note_off_c, 1, 47, 0
1, 141130, Note_on_c, 1, 69, 127
1, 141130, Note_on_c, 1, 48, 127
1, 141258, Note_off_c, 1, 69, 0
1, 141260, Note_off_c, 1, 48, 0
1, 141265, Note_on_c, 1, 66, 127
1, 141265, Note_on_c, 1, 51, 127
1, 141393, Note_off_c, 1, 66, 0
1, 141395, Note_off_c, 1, 51, 0
1, 141400, Note_on_c, 1, 63, 127
1, 141400, Note_on_c, 1, 47, 127
1, 141528, Note_off_c, 1, 63, 0
1, 141530, Note_off_c, 1, 47, 0
1, 141535, Note_on_c, 1, 71, 127
1, 141535, Note_on_c, 1, 45, 127
1, 141663, Note_off_c, 1, 71, 0
1, 141665, Note_off_c, 1, 45, 0
1, 141671, Note_on_c, 1, 64, 127
1, 141671, Note_on_c, 1, 43, 127
1, 141799, Note_off_c, 1, 64, 0
1, 141806, Note_on_c, 1, 67, 127
1, 141867, Note_off_c, 1, 43, 0
1, 141934, Note_off_c, 1, 67, 0
1, 141941, Note_on_c, 1, 52, 127
1, 141941, Note_on_c, 1, 71, 127
1, 142002, Note_off_c, 1, 52, 0
1, 142009, Note_on_c, 1, 51, 127
1, 142069, Note_off_c, 1, 71, 0
1, 142070, Note_off_c, 1, 51, 0
1, 142076, Note_on_c, 1, 76, 127
1, 142076, Note_on_c, 1, 52, 127
1, 142204, Note_off_c, 1, 76, 0
1, 142211, Note_on_c, 1, 75, 127
1, 142336, Note_off_c, 1, 52, 0
1, 142339, Note_off_c, 1, 75, 0
1, 142346, Note_on_c, 1, 76, 127
1, 142346, Note_on_c, 1, 59, 127
1, 142474, Note_off_c, 1, 76, 0
1, 142476, Note_off_c, 1, 59, 0
1, 142482, Note_on_c, 1, 74, 127
1, 142482, Note_on_c, 1, 60, 127
1, 142610, Note_off_c, 1, 74, 0
1, 142612, Note_off_c, 1, 60, 0
1, 142617, Note_on_c, 1, 76, 127
1, 142617, Note_on_c, 1, 59, 127
1, 142745, Note_off_c, 1, 76, 0
1, 142747, Note_off_c, 1, 59, 0
1, 142752, Note_on_c, 1, 73, 127
1, 142752, Note_on_c, 1, 57, 127
1, 142880, Note_off_c, 1, 73, 0
1, 142882, Note_off_c, 1, 57, 0
1, 142887, Note_on_c, 1, 76, 127
1, 142887, Note_on_c, 1, 55, 127
1, 143015, Note_off_c, 1, 76, 0
1, 143017, Note_off_c, 1, 55, 0
1, 143022, Note_on_c, 1, 72, 127
1, 143022, Note_on_c, 1, 54, 127
1, 143150, Note_off_c, 1, 72, 0
1, 143152, Note_off_c, 1, 54, 0
1, 143157, Note_on_c, 1, 76, 127
1, 143157, Note_on_c, 1, 57, 127
1, 143285, Note_off_c, 1, 76, 0
1, 143287, Note_off_c, 1, 57, 0
1, 143293, Note_on_c, 1, 71, 127
1, 143293, Note_on_c, 1, 55, 127
1, 143421, Note_off_c, 1, 71, 0
1, 143428, Note_on_c, 1, 76, 127
1, 143556, Note_off_c, 1, 76, 0
1, 143563, Note_on_c, 1, 75, 127
1, 143691, Note_off_c, 1, 75, 0
1, 143833, Note_on_c, 1, 70, 127
1, 143961, Note_off_c, 1, 70, 0
1, 143962, Note_off_c, 1, 55, 0
1, 143968, Note_on_c, 1, 73, 127
1, 143968, Note_on_c, 1, 54, 127
1, 144096, Note_off_c, 1, 73, 0
1, 144098, Note_off_c, 1, 54, 0
1, 144103, Note_on_c, 1, 67, 127
1, 144103, Note_on_c, 1, 52, 127
1, 144231, Note_off_c, 1, 67, 0
1, 144233, Note_off_c, 1, 52, 0
1, 144239, Note_on_c, 1, 66, 127
1, 144239, Note_on_c, 1, 51, 127
1, 144367, Note_off_c, 1, 66, 0
1, 144369, Note_off_c, 1, 51, 0
1, 144374, Note_on_c, 1, 67, 127
1, 144374, Note_on_c, 1, 52, 127
1, 144502, Note_off_c, 1, 67, 0
1, 144504, Note_off_c, 1, 52, 0
1, 144509, Note_on_c, 1, 70, 127
1, 144509, Note_on_c, 1, 54, 127
1, 144637, Note_off_c, 1, 70, 0
1, 144639, Note_off_c, 1, 54, 0
1, 144644, Note_on_c, 1, 66, 127
1, 144644, Note_on_c, 1, 51, 127
1, 144772, Note_off_c, 1, 66, 0
1, 144774, Note_off_c, 1, 51, 0
1, 144779, Note_on_c, 1, 64, 127
1, 144779, Note_on_c, 1, 52, 127
1, 144907, Note_off_c, 1, 64, 0
1, 144909, Note_off_c, 1, 52, 0
1, 144914, Note_on_c, 1, 54, 127
1, 144914, Note_on_c, 1, 63, 127
1, 145042, Note_off_c, 1, 54, 0
1, 145047, Note_on_c, 1, 47, 127
1, 145094, Note_off_c, 1, 63, 0
1, 145177, Note_off_c, 1, 47, 0
1, 145183, Note_on_c, 1, 71, 127
1, 145183, Note_on_c, 1, 51, 127
1, 145244, Note_off_c, 1, 71, 0
1, 145250, Note_on_c, 1, 70, 127
1, 145311, Note_off_c, 1, 70, 0
1, 145313, Note_off_c, 1, 51, 0
1, 145318, Note_on_c, 1, 54, 127
1, 145318, Note_on_c, 1, 71, 127
1, 145446, Note_off_c, 1, 54, 0
1, 145451, Note_on_c, 1, 57, 127
1, 145578, Note_off_c, 1, 71, 0
1, 145581, Note_off_c, 1, 57, 0
1, 145586, Note_on_c, 1, 83, 127
1, 145586, Note_on_c, 1, 51, 127
1, 145714, Note_off_c, 1, 83, 0
1, 145716, Note_off_c, 1, 51, 0
1, 145721, Note_on_c, 1, 84, 127
1, 145721, Note_on_c, 1, 54, 127
1, 145849, Note_off_c, 1, 84, 0
1, 145851, Note_off_c, 1, 54, 0
1, 145856, Note_on_c, 1, 83, 127
1, 145856, Note_on_c, 1, 57, 127
1, 145984, Note_off_c, 1, 83, 0
1, 145986, Note_off_c, 1, 57, 0
1, 145991, Note_on_c, 1, 81, 127
1, 145991, Note_on_c, 1, 60, 127
1, 146119, Note_off_c, 1, 81, 0
1, 146121, Note_off_c, 1, 60, 0
1, 146127, Note_on_c, 1, 79, 127
1, 146127, Note_on_c, 1, 59, 127
1, 146255, Note_off_c, 1, 79, 0
1, 146257, Note_off_c, 1, 59, 0
1, 146262, Note_on_c, 1, 78, 127
1, 146262, Note_on_c, 1, 57, 127
1, 146390, Note_off_c, 1, 78, 0
1, 146392, Note_off_c, 1, 57, 0
1, 146397, Note_on_c, 1, 81, 127
1, 146397, Note_on_c, 1, 60, 127
1, 146525, Note_off_c, 1, 81, 0
1, 146527, Note_off_c, 1, 60, 0
1, 146532, Note_on_c, 1, 59, 127
1, 146532, Note_on_c, 1, 79, 127
1, 146660, Note_off_c, 1, 59, 0
1, 146665, Note_on_c, 1, 57, 127
1, 146793, Note_off_c, 1, 57, 0
1, 146798, Note_on_c, 1, 55, 127
1, 146926, Note_off_c, 1, 55, 0
1, 146931, Note_on_c, 1, 54, 127
1, 147059, Note_off_c, 1, 54, 0
1, 147064, Note_on_c, 1, 52, 127
1, 147181, Note_off_c, 1, 79, 0
1, 147194, Note_off_c, 1, 52, 0
1, 147199, Note_on_c, 1, 78, 127
1, 147199, Note_on_c, 1, 51, 127
1, 147327, Note_off_c, 1, 78, 0
1, 147329, Note_off_c, 1, 51, 0
1, 147334, Note_on_c, 1, 76, 127
1, 147334, Note_on_c, 1, 49, 127
1, 147462, Note_off_c, 1, 76, 0
1, 147464, Note_off_c, 1, 49, 0
1, 147469, Note_on_c, 1, 75, 127
1, 147469, Note_on_c, 1, 47, 127
1, 147597, Note_off_c, 1, 75, 0
1, 147599, Note_off_c, 1, 47, 0
1, 147605, Note_on_c, 1, 76, 127
1, 147605, Note_on_c, 1, 55, 127
1, 147733, Note_off_c, 1, 76, 0
1, 147740, Note_on_c, 1, 78, 127
1, 147868, Note_off_c, 1, 78, 0
1, 147875, Note_on_c, 1, 74, 127
1, 148003, Note_off_c, 1, 74, 0
1, 148082, Note_off_c, 1, 55, 0
1, 148145, Note_on_c, 1, 73, 127
1, 148278, Note_on_c, 1, 45, 127
1, 148325, Note_off_c, 1, 73, 0
1, 148408, Note_off_c, 1, 45, 0
1, 148413, Note_on_c, 1, 81, 127
1, 148413, Note_on_c, 1, 49, 127
1, 148474, Note_off_c, 1, 81, 0
1, 148481, Note_on_c, 1, 79, 127
1, 148542, Note_off_c, 1, 79, 0
1, 148543, Note_off_c, 1, 49, 0
1, 148549, Note_on_c, 1, 52, 127
1, 148549, Note_on_c, 1, 81, 127
1, 148677, Note_off_c, 1, 52, 0
1, 148681, Note_on_c, 1, 55, 127
1, 148808, Note_off_c, 1, 81, 0
1, 148811, Note_off_c, 1, 55, 0
1, 148817, Note_on_c, 1, 81, 127
1, 148817, Note_on_c, 1, 49, 127
1, 148945, Note_off_c, 1, 81, 0
1, 148947, Note_off_c, 1, 49, 0
1, 148952, Note_on_c, 1, 82, 127
1, 148952, Note_on_c, 1, 52, 127
1, 149080, Note_off_c, 1, 82, 0
1, 149082, Note_off_c, 1, 52, 0
1, 149087, Note_on_c, 1, 81, 127
1, 149087, Note_on_c, 1, 55, 127
1, 149215, Note_off_c, 1, 81, 0
1, 149217, Note_off_c, 1, 55, 0
1, 149222, Note_on_c, 1, 79, 127
1, 149222, Note_on_c, 1, 58, 127
1, 149350, Note_off_c, 1, 79, 0
1, 149352, Note_off_c, 1, 58, 0
1, 149357, Note_on_c, 1, 77, 127
1, 149357, Note_on_c, 1, 57, 127
1, 149485, Note_off_c, 1, 77, 0
1, 149487, Note_off_c, 1, 57, 0
1, 149492, Note_on_c, 1, 76, 127
1, 149492, Note_on_c, 1, 55, 127
1, 149620, Note_off_c, 1, 76, 0
1, 149622, Note_off_c, 1, 55, 0
1, 149628, Note_on_c, 1, 79, 127
1, 149628, Note_on_c, 1, 58, 127
1, 149756, Note_off_c, 1, 79, 0
1, 149758, Note_off_c, 1, 58, 0
1, 149763, Note_on_c, 1, 57, 127
1, 149763, Note_on_c, 1, 77, 127
1, 149891, Note_off_c, 1, 57, 0
1, 149896, Note_on_c, 1, 55, 127
1, 150024, Note_off_c, 1, 55, 0
1, 150029, Note_on_c, 1, 53, 127
1, 150157, Note_off_c, 1, 53, 0
1, 150162, Note_on_c, 1, 52, 127
1, 150290, Note_off_c, 1, 52, 0
1, 150295, Note_on_c, 1, 50, 127
1, 150412, Note_off_c, 1, 77, 0
1, 150425, Note_off_c, 1, 50, 0
1, 150430, Note_on_c, 1, 76, 127
1, 150430, Note_on_c, 1, 48, 127
1, 150558, Note_off_c, 1, 76, 0
1, 150560, Note_off_c, 1, 48, 0
1, 150565, Note_on_c, 1, 74, 127
1, 150565, Note_on_c, 1, 47, 127
1, 150693, Note_off_c, 1, 74, 0
1, 150695, Note_off_c, 1, 47, 0
1, 150700, Note_on_c, 1, 73, 127
1, 150700, Note_on_c, 1, 45, 127
1, 150828, Note_off_c, 1, 73, 0
1, 150830, Note_off_c, 1, 45, 0
1, 150835, Note_on_c, 1, 74, 127
1, 150835, Note_on_c, 1, 53, 127
1, 150963, Note_off_c, 1, 74, 0
1, 150970, Note_on_c, 1, 76, 127
1, 151098, Note_off_c, 1, 76, 0
1, 151106, Note_on_c, 1, 72, 127
1, 151234, Note_off_c, 1, 72, 0
1, 151312, Note_off_c, 1, 53, 0
1, 151376, Note_on_c, 1, 71, 127
1, 151509, Note_on_c, 1, 50, 127
1, 151556, Note_off_c, 1, 71, 0
1, 151639, Note_off_c, 1, 50, 0
1, 151644, Note_on_c, 1, 79, 127
1, 151644, Note_on_c, 1, 43, 127
1, 151705, Note_off_c, 1, 79, 0
1, 151712, Note_on_c, 1, 78, 127
1, 151773, Note_off_c, 1, 78, 0
1, 151774, Note_off_c, 1, 43, 0
1, 151779, Note_on_c, 1, 45, 127
1, 151779, Note_on_c, 1, 79, 127
1, 151907, Note_off_c, 1, 45, 0
1, 151912, Note_on_c, 1, 47, 127
1, 152039, Note_off_c, 1, 79, 0
1, 152042, Note_off_c, 1, 47, 0
1, 152047, Note_on_c, 1, 69, 127
1, 152047, Note_on_c, 1, 48, 127
1, 152175, Note_off_c, 1, 69, 0
1, 152177, Note_off_c, 1, 48, 0
1, 152183, Note_on_c, 1, 71, 127
1, 152183, Note_on_c, 1, 50, 127
1, 152311, Note_off_c, 1, 71, 0
1, 152313, Note_off_c, 1, 50, 0
1, 152318, Note_on_c, 1, 72, 127
1, 152318, Note_on_c, 1, 52, 127
1, 152446, Note_off_c, 1, 72, 0
1, 152448, Note_off_c, 1, 52, 0
1, 152453, Note_on_c, 1, 74, 127
1, 152453, Note_on_c, 1, 53, 127
1, 152581, Note_off_c, 1, 74, 0
1, 152583, Note_off_c, 1, 53, 0
1, 152588, Note_on_c, 1, 76, 127
1, 152588, Note_on_c, 1, 55, 127
1, 152716, Note_off_c, 1, 76, 0
1, 152718, Note_off_c, 1, 55, 0
1, 152723, Note_on_c, 1, 77, 127
1, 152723, Note_on_c, 1, 57, 127
1, 152851, Note_off_c, 1, 77, 0
1, 152853, Note_off_c, 1, 57, 0
1, 152858, Note_on_c, 1, 74, 127
1, 152858, Note_on_c, 1, 59, 127
1, 152986, Note_off_c, 1, 74, 0
1, 152988, Note_off_c, 1, 59, 0
1, 152994, Note_on_c, 1, 76, 127
1, 152994, Note_on_c, 1, 60, 127
1, 153122, Note_off_c, 1, 76, 0
1, 153124, Note_off_c, 1, 60, 0
1, 153129, Note_on_c, 1, 74, 127
1, 153129, Note_on_c, 1, 59, 127
1, 153257, Note_off_c, 1, 74, 0
1, 153259, Note_off_c, 1, 59, 0
1, 153264, Note_on_c, 1, 79, 127
1, 153264, Note_on_c, 1, 64, 127
1, 153392, Note_off_c, 1, 79, 0
1, 153394, Note_off_c, 1, 64, 0
1, 153399, Note_on_c, 1, 77, 127
1, 153399, Note_on_c, 1, 62, 127
1, 153527, Note_off_c, 1, 77, 0
1, 153529, Note_off_c, 1, 62, 0
1, 153534, Note_on_c, 1, 76, 127
1, 153534, Note_on_c, 1, 61, 127
1, 153662, Note_off_c, 1, 76, 0
1, 153664, Note_off_c, 1, 61, 0
1, 153669, Note_on_c, 1, 74, 127
1, 153669, Note_on_c, 1, 58, 127
1, 153797, Note_off_c, 1, 74, 0
1, 153799, Note_off_c, 1, 58, 0
1, 153804, Note_on_c, 1, 73, 127
1, 153804, Note_on_c, 1, 57, 127
1, 153932, Note_off_c, 1, 73, 0
1, 153934, Note_off_c, 1, 57, 0
1, 153940, Note_on_c, 1, 70, 127
1, 153940, Note_on_c, 1, 55, 127
1, 154068, Note_off_c, 1, 70, 0
1, 154070, Note_off_c, 1, 55, 0
1, 154075, Note_on_c, 1, 69, 127
1, 154075, Note_on_c, 1, 53, 127
1, 154203, Note_off_c, 1, 69, 0
1, 154205, Note_off_c, 1, 53, 0
1, 154210, Note_on_c, 1, 70, 127
1, 154210, Note_on_c, 1, 62, 127
1, 154338, Note_off_c, 1, 70, 0
1, 154340, Note_off_c, 1, 62, 0
1, 154345, Note_on_c, 1, 67, 127
1, 154345, Note_on_c, 1, 52, 127
1, 154473, Note_off_c, 1, 67, 0
1, 154475, Note_off_c, 1, 52, 0
1, 154480, Note_on_c, 1, 69, 127
1, 154480, Note_on_c, 1, 61, 127
1, 154608, Note_off_c, 1, 69, 0
1, 154610, Note_off_c, 1, 61, 0
1, 154615, Note_on_c, 1, 50, 127
1, 154615, Note_on_c, 1, 65, 127
1, 154743, Note_off_c, 1, 50, 0
1, 154748, Note_on_c, 1, 53, 127
1, 154795, Note_off_c, 1, 65, 0
1, 154878, Note_off_c, 1, 53, 0
1, 154884, Note_on_c, 1, 74, 127
1, 154884, Note_on_c, 1, 57, 127
1, 154945, Note_off_c, 1, 74, 0
1, 154951, Note_on_c, 1, 73, 127
1, 155012, Note_off_c, 1, 73, 0
1, 155014, Note_off_c, 1, 57, 0
1, 155019, Note_on_c, 1, 62, 127
1, 155019, Note_on_c, 1, 74, 127
1, 155147, Note_off_c, 1, 62, 0
1, 155152, Note_on_c, 1, 61, 127
1, 155279, Note_off_c, 1, 74, 0
1, 155282, Note_off_c, 1, 61, 0
1, 155287, Note_on_c, 1, 81, 127
1, 155287, Note_on_c, 1, 62, 127
1, 155415, Note_off_c, 1, 81, 0
1, 155417, Note_off_c, 1, 62, 0
1, 155422, Note_on_c, 1, 82, 127
1, 155422, Note_on_c, 1, 60, 127
1, 155550, Note_off_c, 1, 82, 0
1, 155552, Note_off_c, 1, 60, 0
1, 155557, Note_on_c, 1, 81, 127
1, 155557, Note_on_c, 1, 62, 127
1, 155685, Note_off_c, 1, 81, 0
1, 155687, Note_off_c, 1, 62, 0
1, 155692, Note_on_c, 1, 79, 127
1, 155692, Note_on_c, 1, 59, 127
1, 155820, Note_off_c, 1, 79, 0
1, 155822, Note_off_c, 1, 59, 0
1, 155828, Note_on_c, 1, 77, 127
1, 155828, Note_on_c, 1, 62, 127
1, 155956, Note_off_c, 1, 77, 0
1, 155958, Note_off_c, 1, 62, 0
1, 155963, Note_on_c, 1, 76, 127
1, 155963, Note_on_c, 1, 58, 127
1, 156091, Note_off_c, 1, 76, 0
1, 156093, Note_off_c, 1, 58, 0
1, 156098, Note_on_c, 1, 79, 127
1, 156098, Note_on_c, 1, 62, 127
1, 156226, Note_off_c, 1, 79, 0
1, 156228, Note_off_c, 1, 62, 0
1, 156233, Note_on_c, 1, 57, 127
1, 156233, Note_on_c, 1, 77, 127
1, 156361, Note_off_c, 1, 57, 0
1, 156366, Note_on_c, 1, 62, 127
1, 156494, Note_off_c, 1, 62, 0
1, 156499, Note_on_c, 1, 61, 127
1, 156627, Note_off_c, 1, 61, 0
1, 156765, Note_on_c, 1, 56, 127
1, 156882, Note_off_c, 1, 77, 0
1, 156895, Note_off_c, 1, 56, 0
1, 156900, Note_on_c, 1, 76, 127
1, 156900, Note_on_c, 1, 59, 127
1, 157028, Note_off_c, 1, 76, 0
1, 157030, Note_off_c, 1, 59, 0
1, 157035, Note_on_c, 1, 74, 127
1, 157035, Note_on_c, 1, 53, 127
1, 157163, Note_off_c, 1, 74, 0
1, 157165, Note_off_c, 1, 53, 0
1, 157170, Note_on_c, 1, 72, 127
1, 157170, Note_on_c, 1, 52, 127
1, 157298, Note_off_c, 1, 72, 0
1, 157300, Note_off_c, 1, 52, 0
1, 157306, Note_on_c, 1, 74, 127
1, 157306, Note_on_c, 1, 53, 127
1, 157434, Note_off_c, 1, 74, 0
1, 157436, Note_off_c, 1, 53, 0
1, 157441, Note_on_c, 1, 72, 127
1, 157441, Note_on_c, 1, 56, 127
1, 157569, Note_off_c, 1, 72, 0
1, 157571, Note_off_c, 1, 56, 0
1, 157576, Note_on_c, 1, 74, 127
1, 157576, Note_on_c, 1, 52, 127
1, 157704, Note_off_c, 1, 74, 0
1, 157706, Note_off_c, 1, 52, 0
1, 157711, Note_on_c, 1, 76, 127
1, 157711, Note_on_c, 1, 50, 127
1, 157839, Note_off_c, 1, 76, 0
1, 157841, Note_off_c, 1, 50, 0
1, 157846, Note_on_c, 1, 69, 127
1, 157846, Note_on_c, 1, 48, 127
1, 157974, Note_off_c, 1, 69, 0
1, 157981, Note_on_c, 1, 72, 127
1, 158042, Note_off_c, 1, 48, 0
1, 158109, Note_off_c, 1, 72, 0
1, 158117, Note_on_c, 1, 57, 127
1, 158117, Note_on_c, 1, 76, 127
1, 158178, Note_off_c, 1, 57, 0
1, 158184, Note_on_c, 1, 56, 127
1, 158245, Note_off_c, 1, 76, 0
1, 158245, Note_off_c, 1, 56, 0
1, 158252, Note_on_c, 1, 81, 127
1, 158252, Note_on_c, 1, 57, 127
1, 158380, Note_off_c, 1, 81, 0
1, 158387, Note_on_c, 1, 80, 127
1, 158512, Note_off_c, 1, 57, 0
1, 158515, Note_off_c, 1, 80, 0
1, 158522, Note_on_c, 1, 81, 127
1, 158522, Note_on_c, 1, 64, 127
1, 158650, Note_off_c, 1, 81, 0
1, 158652, Note_off_c, 1, 64, 0
1, 158657, Note_on_c, 1, 79, 127
1, 158657, Note_on_c, 1, 65, 127
1, 158785, Note_off_c, 1, 79, 0
1, 158787, Note_off_c, 1, 65, 0
1, 158792, Note_on_c, 1, 81, 127
1, 158792, Note_on_c, 1, 64, 127
1, 158920, Note_off_c, 1, 81, 0
1, 158922, Note_off_c, 1, 64, 0
1, 158927, Note_on_c, 1, 78, 127
1, 158927, Note_on_c, 1, 62, 127
1, 159055, Note_off_c, 1, 78, 0
1, 159057, Note_off_c, 1, 62, 0
1, 159063, Note_on_c, 1, 81, 127
1, 159063, Note_on_c, 1, 60, 127
1, 159191, Note_off_c, 1, 81, 0
1, 159193, Note_off_c, 1, 60, 0
1, 159198, Note_on_c, 1, 77, 127
1, 159198, Note_on_c, 1, 59, 127
1, 159326, Note_off_c, 1, 77, 0
1, 159328, Note_off_c, 1, 59, 0
1, 159333, Note_on_c, 1, 81, 127
1, 159333, Note_on_c, 1, 62, 127
1, 159461, Note_off_c, 1, 81, 0
1, 159463, Note_off_c, 1, 62, 0
1, 159468, Note_on_c, 1, 76, 127
1, 159468, Note_on_c, 1, 60, 127
1, 159596, Note_off_c, 1, 76, 0
1, 159603, Note_on_c, 1, 81, 127
1, 159731, Note_off_c, 1, 81, 0
1, 159738, Note_on_c, 1, 80, 127
1, 159866, Note_off_c, 1, 80, 0
1, 159945, Note_off_c, 1, 60, 0
1, 160009, Note_on_c, 1, 75, 127
1, 160137, Note_off_c, 1, 75, 0
1, 160144, Note_on_c, 1, 78, 127
1, 160144, Note_on_c, 1, 59, 127
1, 160272, Note_off_c, 1, 78, 0
1, 160274, Note_off_c, 1, 59, 0
1, 160279, Note_on_c, 1, 72, 127
1, 160279, Note_on_c, 1, 57, 127
1, 160407, Note_off_c, 1, 72, 0
1, 160409, Note_off_c, 1, 57, 0
1, 160414, Note_on_c, 1, 71, 127
1, 160414, Note_on_c, 1, 56, 127
1, 160542, Note_off_c, 1, 71, 0
1, 160544, Note_off_c, 1, 56, 0
1, 160549, Note_on_c, 1, 72, 127
1, 160549, Note_on_c, 1, 57, 127
1, 160677, Note_off_c, 1, 72, 0
1, 160679, Note_off_c, 1, 57, 0
1, 160685, Note_on_c, 1, 75, 127
1, 160685, Note_on_c, 1, 54, 127
1, 160813, Note_off_c, 1, 75, 0
1, 160815, Note_off_c, 1, 54, 0
1, 160820, Note_on_c, 1, 71, 127
1, 160820, Note_on_c, 1, 51, 127
1, 160948, Note_off_c, 1, 71, 0
1, 160950, Note_off_c, 1, 51, 0
1, 160955, Note_on_c, 1, 69, 127
1, 160955, Note_on_c, 1, 54, 127
1, 161083, Note_off_c, 1, 69, 0
1, 161085, Note_off_c, 1, 54, 0
1, 161090, Note_on_c, 1, 59, 127
1, 161090, Note_on_c, 1, 68, 127
1, 161218, Note_off_c, 1, 59, 0
1, 161223, Note_on_c, 1, 57, 127
1, 161270, Note_off_c, 1, 68, 0
1, 161353, Note_off_c, 1, 57, 0
1, 161358, Note_on_c, 1, 56, 127
1, 161358, Note_on_c, 1, 64, 127
1, 161486, Note_off_c, 1, 56, 0
1, 161491, Note_on_c, 1, 54, 127
1, 161538, Note_off_c, 1, 64, 0
1, 161621, Note_off_c, 1, 54, 0
1, 161626, Note_on_c, 1, 52, 127
1, 161626, Note_on_c, 1, 68, 127
1, 161754, Note_off_c, 1, 52, 0
1, 161759, Note_on_c, 1, 51, 127
1, 161806, Note_off_c, 1, 68, 0
1, 161889, Note_off_c, 1, 51, 0
1, 161894, Note_on_c, 1, 59, 127
1, 161894, Note_on_c, 1, 71, 127
1, 162022, Note_off_c, 1, 59, 0
1, 162027, Note_on_c, 1, 57, 127
1, 162074, Note_off_c, 1, 71, 0
1, 162157, Note_off_c, 1, 57, 0
1, 162163, Note_on_c, 1, 56, 127
1, 162163, Note_on_c, 1, 76, 127
1, 162291, Note_off_c, 1, 56, 0
1, 162296, Note_on_c, 1, 54, 127
1, 162343, Note_off_c, 1, 76, 0
1, 162426, Note_off_c, 1, 54, 0
1, 162431, Note_on_c, 1, 52, 127
1, 162431, Note_on_c, 1, 68, 127
1, 162559, Note_off_c, 1, 52, 0
1, 162564, Note_on_c, 1, 50, 127
1, 162611, Note_off_c, 1, 68, 0
1, 162694, Note_off_c, 1, 50, 0
1, 162699, Note_on_c, 1, 76, 127
1, 162699, Note_on_c, 1, 49, 127
1, 162827, Note_off_c, 1, 76, 0
1, 162834, Note_on_c, 1, 74, 127
1, 162895, Note_off_c, 1, 49, 0
1, 162962, Note_off_c, 1, 74, 0
1, 162969, Note_on_c, 1, 73, 127
1, 162969, Note_on_c, 1, 45, 127
1, 163097, Note_off_c, 1, 73, 0
1, 163104, Note_on_c, 1, 71, 127
1, 163165, Note_off_c, 1, 45, 0
1, 163232, Note_off_c, 1, 71, 0
1, 163240, Note_on_c, 1, 69, 127
1, 163240, Note_on_c, 1, 49, 127
1, 163368, Note_off_c, 1, 69, 0
1, 163375, Note_on_c, 1, 68, 127
1, 163436, Note_off_c, 1, 49, 0
1, 163503, Note_off_c, 1, 68, 0
1, 163510, Note_on_c, 1, 76, 127
1, 163510, Note_on_c, 1, 52, 127
1, 163638, Note_off_c, 1, 76, 0
1, 163645, Note_on_c, 1, 74, 127
1, 163706, Note_off_c, 1, 52, 0
1, 163773, Note_off_c, 1, 74, 0
1, 163780, Note_on_c, 1, 73, 127
1, 163780, Note_on_c, 1, 57, 127
1, 163908, Note_off_c, 1, 73, 0
1, 163915, Note_on_c, 1, 71, 127
1, 163976, Note_off_c, 1, 57, 0
1, 164043, Note_off_c, 1, 71, 0
1, 164050, Note_on_c, 1, 69, 127
1, 164050, Note_on_c, 1, 49, 127
1, 164178, Note_off_c, 1, 69, 0
1, 164186, Note_on_c, 1, 67, 127
1, 164246, Note_off_c, 1, 49, 0
1, 164314, Note_off_c, 1, 67, 0
1, 164321, Note_on_c, 1, 57, 127
1, 164321, Note_on_c, 1, 66, 127
1, 164449, Note_off_c, 1, 57, 0
1, 164454, Note_on_c, 1, 55, 127
1, 164501, Note_off_c, 1, 66, 0
1, 164584, Note_off_c, 1, 55, 0
1, 164589, Note_on_c, 1, 54, 127
1, 164589, Note_on_c, 1, 62, 127
1, 164717, Note_off_c, 1, 54, 0
1, 164722, Note_on_c, 1, 52, 127
1, 164769, Note_off_c, 1, 62, 0
1, 164852, Note_off_c, 1, 52, 0
1, 164857, Note_on_c, 1, 50, 127
1, 164857, Note_on_c, 1, 66, 127
1, 164985, Note_off_c, 1, 50, 0
1, 164990, Note_on_c, 1, 49, 127
1, 165037, Note_off_c, 1, 66, 0
1, 165120, Note_off_c, 1, 49, 0
1, 165125, Note_on_c, 1, 57, 127
1, 165125, Note_on_c, 1, 69, 127
1, 165253, Note_off_c, 1, 57, 0
1, 165258, Note_on_c, 1, 55, 127
1, 165305, Note_off_c, 1, 69, 0
1, 165388, Note_off_c, 1, 55, 0
1, 165393, Note_on_c, 1, 54, 127
1, 165393, Note_on_c, 1, 74, 127
1, 165521, Note_off_c, 1, 54, 0
1, 165526, Note_on_c, 1, 52, 127
1, 165573, Note_off_c, 1, 74, 0
1, 165656, Note_off_c, 1, 52, 0
1, 165662, Note_on_c, 1, 50, 127
1, 165662, Note_on_c, 1, 66, 127
1, 165790, Note_off_c, 1, 50, 0
1, 165794, Note_on_c, 1, 48, 127
1, 165842, Note_off_c, 1, 66, 0
1, 165924, Note_off_c, 1, 48, 0
1, 165930, Note_on_c, 1, 74, 127
1, 165930, Note_on_c, 1, 47, 127
1, 166058, Note_off_c, 1, 74, 0
1, 166065, Note_on_c, 1, 72, 127
1, 166126, Note_off_c, 1, 47, 0
1, 166193, Note_off_c, 1, 72, 0
1, 166200, Note_on_c, 1, 71, 127
1, 166200, Note_on_c, 1, 43, 127
1, 166328, Note_off_c, 1, 71, 0
1, 166335, Note_on_c, 1, 69, 127
1, 166396, Note_off_c, 1, 43, 0
1, 166463, Note_off_c, 1, 69, 0
1, 166470, Note_on_c, 1, 67, 127
1, 166470, Note_on_c, 1, 47, 127
1, 166598, Note_off_c, 1, 67, 0
1, 166605, Note_on_c, 1, 66, 127
1, 166666, Note_off_c, 1, 47, 0
1, 166733, Note_off_c, 1, 66, 0
1, 166741, Note_on_c, 1, 74, 127
1, 166741, Note_on_c, 1, 50, 127
1, 166869, Note_off_c, 1, 74, 0
1, 166876, Note_on_c, 1, 72, 127
1, 166937, Note_off_c, 1, 50, 0
1, 167004, Note_off_c, 1, 72, 0
1, 167011, Note_on_c, 1, 71, 127
1, 167011, Note_on_c, 1, 55, 127
1, 167139, Note_off_c, 1, 71, 0
1, 167146, Note_on_c, 1, 69, 127
1, 167207, Note_off_c, 1, 55, 0
1, 167274, Note_off_c, 1, 69, 0
1, 167281, Note_on_c, 1, 67, 127
1, 167281, Note_on_c, 1, 47, 127
1, 167409, Note_off_c, 1, 67, 0
1, 167416, Note_on_c, 1, 66, 127
1, 167477, Note_off_c, 1, 47, 0
1, 167544, Note_off_c, 1, 66, 0
1, 167552, Note_on_c, 1, 71, 127
1, 167552, Note_on_c, 1, 59, 127
1, 167680, Note_off_c, 1, 71, 0
1, 167682, Note_off_c, 1, 59, 0
1, 167687, Note_on_c, 1, 69, 127
1, 167687, Note_on_c, 1, 57, 127
1, 167815, Note_off_c, 1, 69, 0
1, 167817, Note_off_c, 1, 57, 0
1, 167822, Note_on_c, 1, 67, 127
1, 167822, Note_on_c, 1, 55, 127
1, 167950, Note_off_c, 1, 67, 0
1, 167952, Note_off_c, 1, 55, 0
1, 167957, Note_on_c, 1, 66, 127
1, 167957, Note_on_c, 1, 54, 127
1, 168085, Note_off_c, 1, 66, 0
1, 168087, Note_off_c, 1, 54, 0
1, 168092, Note_on_c, 1, 64, 127
1, 168092, Note_on_c, 1, 52, 127
1, 168220, Note_off_c, 1, 64, 0
1, 168222, Note_off_c, 1, 52, 0
1, 168227, Note_on_c, 1, 63, 127
1, 168227, Note_on_c, 1, 51, 127
1, 168355, Note_off_c, 1, 63, 0
1, 168357, Note_off_c, 1, 51, 0
1, 168363, Note_on_c, 1, 71, 127
1, 168363, Note_on_c, 1, 59, 127
1, 168491, Note_off_c, 1, 71, 0
1, 168493, Note_off_c, 1, 59, 0
1, 168498, Note_on_c, 1, 69, 127
1, 168498, Note_on_c, 1, 57, 127
1, 168626, Note_off_c, 1, 69, 0
1, 168628, Note_off_c, 1, 57, 0
1, 168633, Note_on_c, 1, 67, 127
1, 168633, Note_on_c, 1, 55, 127
1, 168761, Note_off_c, 1, 67, 0
1, 168763, Note_off_c, 1, 55, 0
1, 168768, Note_on_c, 1, 66, 127
1, 168768, Note_on_c, 1, 54, 127
1, 168896, Note_off_c, 1, 66, 0
1, 168898, Note_off_c, 1, 54, 0
1, 168903, Note_on_c, 1, 64, 127
1, 168903, Note_on_c, 1, 52, 127
1, 169031, Note_off_c, 1, 64, 0
1, 169033, Note_off_c, 1, 52, 0
1, 169038, Note_on_c, 1, 63, 127
1, 169038, Note_on_c, 1, 51, 127
1, 169166, Note_off_c, 1, 63, 0
1, 169168, Note_off_c, 1, 51, 0
1, 169173, Note_on_c, 1, 52, 127
1, 169173, Note_on_c, 1, 64, 127
1, 169306, Note_on_c, 1, 47, 127
1, 169306, Note_on_c, 1, 67, 127
1, 169338, Note_off_c, 1, 52, 0
1, 169439, Note_on_c, 1, 43, 127
1, 169439, Note_on_c, 1, 71, 127
1, 169471, Note_off_c, 1, 47, 0
1, 169572, Note_on_c, 1, 76, 127
1, 169572, Note_on_c, 1, 40, 127
1, 169604, Note_off_c, 1, 43, 0
1, 169694, Note_off_c, 1, 67, 0
1, 169700, Note_off_c, 1, 64, 0
1, 169702, Note_off_c, 1, 71, 0
1, 169721, Note_on_c, 1, 75, 127
1, 169730, Note_off_c, 1, 76, 0
1, 169814, Note_off_c, 1, 40, 0
1, 169847, Note_off_c, 1, 75, 0
1, 169854, Note_on_c, 1, 76, 127
1, 169854, Note_on_c, 1, 59, 127
1, 169982, Note_off_c, 1, 76, 0
1, 169984, Note_off_c, 1, 59, 0
1, 169990, Note_on_c, 1, 74, 127
1, 169990, Note_on_c, 1, 60, 127
1, 170118, Note_off_c, 1, 74, 0
1, 170120, Note_off_c, 1, 60, 0
1, 170125, Note_on_c, 1, 76, 127
1, 170125, Note_on_c, 1, 59, 127
1, 170253, Note_off_c, 1, 76, 0
1, 170255, Note_off_c, 1, 59, 0
1, 170260, Note_on_c, 1, 73, 127
1, 170260, Note_on_c, 1, 57, 127
1, 170388, Note_off_c, 1, 73, 0
1, 170390, Note_off_c, 1, 57, 0
1, 170395, Note_on_c, 1, 76, 127
1, 170395, Note_on_c, 1, 55, 127
1, 170523, Note_off_c, 1, 76, 0
1, 170525, Note_off_c, 1, 55, 0
1, 170530, Note_on_c, 1, 72, 127
1, 170530, Note_on_c, 1, 54, 127
1, 170658, Note_off_c, 1, 72, 0
1, 170660, Note_off_c, 1, 54, 0
1, 170665, Note_on_c, 1, 76, 127
1, 170665, Note_on_c, 1, 57, 127
1, 170793, Note_off_c, 1, 76, 0
1, 170795, Note_off_c, 1, 57, 0
1, 170801, Note_on_c, 1, 71, 127
1, 170801, Note_on_c, 1, 55, 127
1, 170929, Note_off_c, 1, 71, 0
1, 170931, Note_off_c, 1, 55, 0
1, 170936, Note_on_c, 1, 69, 127
1, 170936, Note_on_c, 1, 54, 127
1, 171064, Note_off_c, 1, 69, 0
1, 171066, Note_off_c, 1, 54, 0
1, 171071, Note_on_c, 1, 67, 127
1, 171071, Note_on_c, 1, 52, 127
1, 171199, Note_off_c, 1, 67, 0
1, 171206, Note_on_c, 1, 72, 127
1, 171206, Note_on_c, 1, 64, 127
1, 171295, Note_off_c, 1, 52, 0
1, 171334, Note_off_c, 1, 72, 0
1, 171336, Note_off_c, 1, 64, 0
1, 171341, Note_on_c, 1, 63, 127
1, 171341, Note_on_c, 1, 71, 127
1, 171474, Note_on_c, 1, 69, 127
1, 171474, Note_on_c, 1, 64, 127
1, 171506, Note_off_c, 1, 63, 0
1, 171519, Note_off_c, 1, 71, 0
1, 171600, Note_off_c, 1, 69, 0
1, 171602, Note_off_c, 1, 64, 0
1, 171607, Note_on_c, 1, 62, 127
1, 171607, Note_on_c, 1, 71, 127
1, 171740, Note_on_c, 1, 68, 127
1, 171740, Note_on_c, 1, 64, 127
1, 171772, Note_off_c, 1, 62, 0
1, 171866, Note_off_c, 1, 68, 0
1, 171868, Note_off_c, 1, 64, 0
1, 171870, Note_off_c, 1, 71, 0
1, 171873, Note_on_c, 1, 61, 127
1, 171873, Note_on_c, 1, 69, 127
1, 172006, Note_on_c, 1, 67, 127
1, 172006, Note_on_c, 1, 64, 127
1, 172038, Note_off_c, 1, 61, 0
1, 172051, Note_off_c, 1, 69, 0
1, 172132, Note_off_c, 1, 67, 0
1, 172134, Note_off_c, 1, 64, 0
1, 172139, Note_on_c, 1, 60, 127
1, 172139, Note_on_c, 1, 69, 127
1, 172272, Note_on_c, 1, 66, 127
1, 172272, Note_on_c, 1, 64, 127
1, 172304, Note_off_c, 1, 60, 0
1, 172398, Note_off_c, 1, 66, 0
1, 172400, Note_off_c, 1, 64, 0
1, 172402, Note_off_c, 1, 69, 0
1, 172421, Note_on_c, 1, 67, 127
1, 172421, Note_on_c, 1, 59, 127
1, 172556, Note_off_c, 1, 67, 0
1, 172563, Note_on_c, 1, 66, 127
1, 172698, Note_off_c, 1, 66, 0
1, 172700, Note_off_c, 1, 59, 0
1, 172702, Note_on_c, 1, 67, 127
1, 172702, Note_on_c, 1, 57, 127
1, 172837, Note_off_c, 1, 67, 0
1, 172844, Note_on_c, 1, 69, 127
1, 172979, Note_off_c, 1, 69, 0
1, 172981, Note_off_c, 1, 57, 0
1, 172999, Note_on_c, 1, 63, 127
1, 172999, Note_on_c, 1, 59, 127
1, 173159, Note_on_c, 1, 66, 127
1, 173311, Note_off_c, 1, 66, 0
1, 173315, Note_off_c, 1, 63, 0
1, 173320, Note_on_c, 1, 60, 127
1, 173465, Note_off_c, 1, 59, 0
1, 173472, Note_off_c, 1, 60, 0
1, 173479, Note_on_c, 1, 59, 127
1, 173638, Note_on_c, 1, 60, 127
1, 173638, Note_on_c, 1, 47, 127
1, 173819, Note_on_c, 1, 63, 127
1, 173984, Note_off_c, 1, 59, 0
1, 173995, Note_off_c, 1, 60, 0
1, 174179, Note_on_c, 1, 57, 127
1, 174350, Note_off_c, 1, 47, 0
1, 174351, Note_off_c, 1, 57, 0
1, 174357, Note_off_c, 1, 63, 0
1, 174358, Note_on_c, 1, 40, 127
1, 174358, Note_on_c, 1, 56, 127
1, 174447, Note_on_c, 1, 59, 127
1, 174536, Note_on_c, 1, 64, 127
1, 178470, Note_off_c, 1, 64, 0
1, 178569, Note_off_c, 1, 59, 0
1, 178667, Note_off_c, 1, 40, 0
1, 178667, Note_off_c, 1, 56, 0
1, 178667, End_track
0, 0, End_of_file