0, 0, Header, 1, 1, 480
1, 0, Start_track
1, 0, Title_t, "Test"
1, 0, Tempo, 500000
1, 0, Instrument_name_t, "Church Organ"
1, 0, Note_on_c, 1, 70, 127
1, 48, Note_off_c, 1, 70, 0
1, 60, Note_on_c, 1, 67, 127
1, 60, Note_on_c, 1, 70, 127
1, 120, Note_on_c, 1, 43, 127
1, 168, Note_off_c, 1, 43, 0
1, 180, Note_on_c, 1, 46, 127
1, 228, Note_off_c, 1, 46, 0
1, 240, Note_on_c, 1, 50, 127
1, 252, Note_off_c, 1, 67, 0
1, 288, Note_off_c, 1, 50, 0
1, 300, Note_on_c, 1, 55, 127
1, 348, Note_off_c, 1, 70, 0
1, 348, Note_off_c, 1, 55, 0
1, 360, Note_on_c, 1, 79, 127
1, 360, Note_on_c, 1, 58, 127
1, 408, Note_off_c, 1, 79, 0
1, 408, Note_off_c, 1, 58, 0
1, 420, Note_on_c, 1, 78, 127
1, 420, Note_on_c, 1, 57, 127
1, 468, Note_off_c, 1, 78, 0
1, 468, Note_off_c, 1, 57, 0
1, 480, Note_on_c, 1, 79, 127
1, 480, Note_on_c, 1, 55, 127
1, 528, Note_off_c, 1, 79, 0
1, 528, Note_off_c, 1, 55, 0
1, 540, Note_on_c, 1, 69, 127
1, 540, Note_on_c, 1, 72, 127
1, 540, Note_on_c, 1, 54, 127
1, 588, Note_off_c, 1, 54, 0
1, 600, Note_on_c, 1, 55, 127
1, 648, Note_off_c, 1, 55, 0
1, 660, Note_on_c, 1, 57, 127
1, 708, Note_off_c, 1, 57, 0
1, 720, Note_on_c, 1, 51, 127
1, 732, Note_off_c, 1, 69, 0
1, 768, Note_off_c, 1, 51, 0
1, 780, Note_on_c, 1, 50, 127
1, 828, Note_off_c, 1, 72, 0
1, 828, Note_off_c, 1, 50, 0
1, 840, Note_on_c, 1, 81, 127
1, 840, Note_on_c, 1, 48, 127
1, 888, Note_off_c, 1, 81, 0
1, 888, Note_off_c, 1, 48, 0
1, 900, Note_on_c, 1, 79, 127
1, 900, Note_on_c, 1, 46, 127
1, 948, Note_off_c, 1, 79, 0
1, 948, Note_off_c, 1, 46, 0
1, 960, Note_on_c, 1, 81, 127
1, 960, Note_on_c, 1, 45, 127
1, 1008, Note_off_c, 1, 81, 0
1, 1008, Note_off_c, 1, 45, 0
1, 1020, Note_on_c, 1, 74, 127
1, 1020, Note_on_c, 1, 46, 127
1, 1068, Note_off_c, 1, 74, 0
1, 1080, Note_on_c, 1, 70, 127
1, 1128, Note_off_c, 1, 70, 0
1, 1200, Note_on_c, 1, 77, 127
1, 1248, Note_off_c, 1, 77, 0
1, 1260, Note_on_c, 1, 79, 127
1, 1308, Note_off_c, 1, 46, 0
1, 1308, Note_off_c, 1, 79, 0
1, 1320, Note_on_c, 1, 82, 127
1, 1320, Note_on_c, 1, 50, 127
1, 1368, Note_off_c, 1, 82, 0
1, 1368, Note_off_c, 1, 50, 0
1, 1380, Note_on_c, 1, 81, 127
1, 1380, Note_on_c, 1, 48, 127
1, 1428, Note_off_c, 1, 81, 0
1, 1428, Note_off_c, 1, 48, 0
1, 1440, Note_on_c, 1, 79, 127
1, 1440, Note_on_c, 1, 51, 127
1, 1488, Note_off_c, 1, 79, 0
1, 1488, Note_off_c, 1, 51, 0
1, 1500, Note_on_c, 1, 78, 127
1, 1500, Note_on_c, 1, 50, 127
1, 1548, Note_off_c, 1, 78, 0
1, 1560, Note_on_c, 1, 79, 127
1, 1608, Note_off_c, 1, 79, 0
1, 1620, Note_on_c, 1, 81, 127
1, 1668, Note_off_c, 1, 81, 0
1, 1680, Note_on_c, 1, 75, 127
1, 1728, Note_off_c, 1, 75, 0
1, 1740, Note_on_c, 1, 74, 127
1, 1788, Note_off_c, 1, 50, 0
1, 1788, Note_off_c, 1, 74, 0
1, 1800, Note_on_c, 1, 72, 127
1, 1800, Note_on_c, 1, 52, 127
1, 1848, Note_off_c, 1, 72, 0
1, 1848, Note_off_c, 1, 52, 0
1, 1860, Note_on_c, 1, 70, 127
1, 1860, Note_on_c, 1, 54, 127
1, 1908, Note_off_c, 1, 70, 0
1, 1908, Note_off_c, 1, 54, 0
1, 1920, Note_on_c, 1, 69, 127
1, 1920, Note_on_c, 1, 50, 127
1, 1968, Note_off_c, 1, 69, 0
1, 1968, Note_off_c, 1, 50, 0
1, 1980, Note_on_c, 1, 70, 127
1, 1980, Note_on_c, 1, 55, 127
1, 2040, Note_on_c, 1, 67, 127
1, 2088, Note_off_c, 1, 67, 0
1, 2100, Note_on_c, 1, 65, 127
1, 2148, Note_off_c, 1, 65, 0
1, 2160, Note_on_c, 1, 62, 127
1, 2208, Note_off_c, 1, 62, 0
1, 2220, Note_on_c, 1, 63, 127
1, 2268, Note_off_c, 1, 70, 0
1, 2268, Note_off_c, 1, 55, 0
1, 2340, Note_on_c, 1, 72, 127
1, 2340, Note_on_c, 1, 51, 127
1, 2388, Note_off_c, 1, 72, 0
1, 2400, Note_on_c, 1, 75, 127
1, 2436, Note_off_c, 1, 51, 0
1, 2448, Note_off_c, 1, 75, 0
1, 2460, Note_on_c, 1, 69, 127
1, 2460, Note_on_c, 1, 53, 127
1, 2508, Note_off_c, 1, 63, 0
1, 2640, Note_on_c, 1, 60, 127
1, 2688, Note_off_c, 1, 60, 0
1, 2748, Note_off_c, 1, 69, 0
1, 2748, Note_off_c, 1, 53, 0
1, 2820, Note_on_c, 1, 50, 127
1, 2880, Note_on_c, 1, 74, 127
1, 2916, Note_off_c, 1, 50, 0
1, 2928, Note_off_c, 1, 74, 0
1, 3120, Note_on_c, 1, 58, 127
1, 3168, Note_off_c, 1, 58, 0
1, 3300, Note_on_c, 1, 48, 127
1, 3396, Note_off_c, 1, 48, 0
1, 3420, Note_on_c, 1, 66, 127
1, 3468, Note_off_c, 1, 66, 0
1, 3540, Note_on_c, 1, 57, 127
1, 3636, Note_off_c, 1, 57, 0
1, 3900, Note_on_c, 1, 69, 127
1, 3900, Note_on_c, 1, 54, 127
1, 3900, Note_on_c, 1, 50, 127
1, 3948, Note_off_c, 1, 69, 0
1, 3960, Note_on_c, 1, 72, 127
1, 3996, Note_off_c, 1, 54, 0
1, 3996, Note_off_c, 1, 50, 0
1, 4008, Note_off_c, 1, 72, 0
1, 4020, Note_on_c, 1, 74, 127
1, 4020, Note_on_c, 1, 57, 127
1, 4020, Note_on_c, 1, 48, 127
1, 4068, Note_off_c, 1, 74, 0
1, 4080, Note_on_c, 1, 78, 127
1, 4116, Note_off_c, 1, 57, 0
1, 4116, Note_off_c, 1, 48, 0
1, 4128, Note_off_c, 1, 78, 0
1, 4140, Note_on_c, 1, 70, 127
1, 4140, Note_on_c, 1, 46, 127
1, 4140, Note_on_c, 1, 50, 127
1, 4188, Note_off_c, 1, 70, 0
1, 4200, Note_on_c, 1, 74, 127
1, 4236, Note_off_c, 1, 46, 0
1, 4248, Note_off_c, 1, 74, 0
1, 4260, Note_on_c, 1, 78, 127
1, 4260, Note_on_c, 1, 43, 127
1, 4308, Note_off_c, 1, 78, 0
1, 4320, Note_on_c, 1, 79, 127
1, 4356, Note_off_c, 1, 43, 0
1, 4368, Note_off_c, 1, 79, 0
1, 4380, Note_on_c, 1, 81, 127
1, 4380, Note_on_c, 1, 38, 127
1, 4428, Note_off_c, 1, 81, 0
1, 4476, Note_off_c, 1, 50, 0
1, 4476, Note_off_c, 1, 38, 0
1, 4500, Note_on_c, 1, 78, 127
1, 4500, Note_on_c, 1, 62, 127
1, 4548, Note_off_c, 1, 78, 0
1, 4560, Note_on_c, 1, 76, 127
1, 4608, Note_off_c, 1, 76, 0
1, 4620, Note_on_c, 1, 74, 127
1, 4668, Note_off_c, 1, 62, 0
1, 4668, Note_off_c, 1, 74, 0
1, 4680, Note_on_c, 1, 75, 127
1, 4680, Note_on_c, 1, 60, 127
1, 4728, Note_off_c, 1, 75, 0
1, 4728, Note_off_c, 1, 60, 0
1, 4740, Note_on_c, 1, 75, 127
1, 4740, Note_on_c, 1, 59, 127
1, 4752, Note_off_c, 1, 75, 0
1, 4755, Note_on_c, 1, 77, 127
1, 4767, Note_off_c, 1, 77, 0
1, 4788, Note_off_c, 1, 59, 0
1, 4800, Note_on_c, 1, 74, 127
1, 4800, Note_on_c, 1, 57, 127
1, 4824, Note_off_c, 1, 74, 0
1, 4830, Note_on_c, 1, 75, 127
1, 4848, Note_off_c, 1, 57, 0
1, 4854, Note_off_c, 1, 75, 0
1, 4860, Note_on_c, 1, 74, 127
1, 4860, Note_on_c, 1, 71, 127
1, 4860, Note_on_c, 1, 77, 127
1, 4860, Note_on_c, 1, 55, 127
1, 4908, Note_off_c, 1, 55, 0
1, 4920, Note_on_c, 1, 50, 127
1, 4968, Note_off_c, 1, 50, 0
1, 5040, Note_on_c, 1, 59, 127
1, 5052, Note_off_c, 1, 74, 0
1, 5088, Note_off_c, 1, 59, 0
1, 5100, Note_on_c, 1, 62, 127
1, 5148, Note_off_c, 1, 71, 0
1, 5148, Note_off_c, 1, 62, 0
1, 5160, Note_on_c, 1, 72, 127
1, 5160, Note_on_c, 1, 63, 127
1, 5208, Note_off_c, 1, 72, 0
1, 5208, Note_off_c, 1, 63, 0
1, 5244, Note_off_c, 1, 77, 0
1, 5280, Note_on_c, 1, 71, 127
1, 5280, Note_on_c, 1, 60, 127
1, 5304, Note_off_c, 1, 71, 0
1, 5310, Note_on_c, 1, 72, 127
1, 5328, Note_off_c, 1, 60, 0
1, 5339, Note_off_c, 1, 72, 0
1, 5340, Note_on_c, 1, 74, 127
1, 5340, Note_on_c, 1, 59, 127
1, 5388, Note_off_c, 1, 74, 0
1, 5388, Note_off_c, 1, 59, 0
1, 5400, Note_on_c, 1, 75, 127
1, 5400, Note_on_c, 1, 60, 127
1, 5448, Note_off_c, 1, 75, 0
1, 5448, Note_off_c, 1, 60, 0
1, 5460, Note_on_c, 1, 75, 127
1, 5460, Note_on_c, 1, 62, 127
1, 5472, Note_off_c, 1, 75, 0
1, 5475, Note_on_c, 1, 77, 127
1, 5487, Note_off_c, 1, 77, 0
1, 5508, Note_off_c, 1, 62, 0
1, 5520, Note_on_c, 1, 74, 127
1, 5520, Note_on_c, 1, 56, 127
1, 5544, Note_off_c, 1, 74, 0
1, 5550, Note_on_c, 1, 75, 127
1, 5568, Note_off_c, 1, 56, 0
1, 5574, Note_off_c, 1, 75, 0
1, 5580, Note_on_c, 1, 77, 127
1, 5580, Note_on_c, 1, 55, 127
1, 5628, Note_off_c, 1, 77, 0
1, 5628, Note_off_c, 1, 55, 0
1, 5640, Note_on_c, 1, 80, 127
1, 5640, Note_on_c, 1, 53, 127
1, 5688, Note_off_c, 1, 80, 0
1, 5688, Note_off_c, 1, 53, 0
1, 5700, Note_on_c, 1, 79, 127
1, 5700, Note_on_c, 1, 51, 127
1, 5748, Note_off_c, 1, 79, 0
1, 5748, Note_off_c, 1, 51, 0
1, 5760, Note_on_c, 1, 77, 127
1, 5760, Note_on_c, 1, 50, 127
1, 5808, Note_off_c, 1, 77, 0
1, 5808, Note_off_c, 1, 50, 0
1, 5820, Note_on_c, 1, 75, 127
1, 5820, Note_on_c, 1, 48, 127
1, 5868, Note_off_c, 1, 75, 0
1, 5880, Note_on_c, 1, 72, 127
1, 5928, Note_off_c, 1, 72, 0
1, 6000, Note_on_c, 1, 79, 127
1, 6048, Note_off_c, 1, 79, 0
1, 6060, Note_on_c, 1, 84, 127
1, 6108, Note_off_c, 1, 48, 0
1, 6108, Note_off_c, 1, 84, 0
1, 6120, Note_on_c, 1, 82, 127
1, 6120, Note_on_c, 1, 48, 127
1, 6168, Note_off_c, 1, 82, 0
1, 6168, Note_off_c, 1, 48, 0
1, 6180, Note_on_c, 1, 81, 127
1, 6180, Note_on_c, 1, 51, 127
1, 6228, Note_off_c, 1, 81, 0
1, 6228, Note_off_c, 1, 51, 0
1, 6240, Note_on_c, 1, 79, 127
1, 6240, Note_on_c, 1, 55, 127
1, 6288, Note_off_c, 1, 79, 0
1, 6288, Note_off_c, 1, 55, 0
1, 6300, Note_on_c, 1, 78, 127
1, 6300, Note_on_c, 1, 60, 127
1, 6348, Note_off_c, 1, 78, 0
1, 6360, Note_on_c, 1, 79, 127
1, 6396, Note_off_c, 1, 60, 0
1, 6408, Note_off_c, 1, 79, 0
1, 6420, Note_on_c, 1, 81, 127
1, 6420, Note_on_c, 1, 50, 127
1, 6420, Note_on_c, 1, 48, 127
1, 6468, Note_off_c, 1, 81, 0
1, 6480, Note_on_c, 1, 75, 127
1, 6516, Note_off_c, 1, 50, 0
1, 6516, Note_off_c, 1, 48, 0
1, 6528, Note_off_c, 1, 75, 0
1, 6540, Note_on_c, 1, 74, 127
1, 6540, Note_on_c, 1, 46, 127
1, 6540, Note_on_c, 1, 52, 127
1, 6588, Note_off_c, 1, 74, 0
1, 6600, Note_on_c, 1, 72, 127
1, 6636, Note_off_c, 1, 46, 0
1, 6636, Note_off_c, 1, 52, 0
1, 6648, Note_off_c, 1, 72, 0
1, 6660, Note_on_c, 1, 70, 127
1, 6660, Note_on_c, 1, 45, 127
1, 6660, Note_on_c, 1, 54, 127
1, 6708, Note_off_c, 1, 70, 0
1, 6720, Note_on_c, 1, 69, 127
1, 6756, Note_off_c, 1, 45, 0
1, 6756, Note_off_c, 1, 54, 0
1, 6768, Note_off_c, 1, 69, 0
1, 6780, Note_on_c, 1, 70, 127
1, 6780, Note_on_c, 1, 43, 127
1, 6840, Note_on_c, 1, 55, 127
1, 6888, Note_off_c, 1, 55, 0
1, 6900, Note_on_c, 1, 58, 127
1, 6948, Note_off_c, 1, 58, 0
1, 6960, Note_on_c, 1, 62, 127
1, 7008, Note_off_c, 1, 62, 0
1, 7020, Note_on_c, 1, 67, 127
1, 7068, Note_off_c, 1, 67, 0
1, 7080, Note_on_c, 1, 65, 127
1, 7128, Note_off_c, 1, 65, 0
1, 7140, Note_on_c, 1, 63, 127
1, 7164, Note_off_c, 1, 70, 0
1, 7188, Note_off_c, 1, 63, 0
1, 7260, Note_on_c, 1, 69, 127
1, 7260, Note_on_c, 1, 61, 127
1, 7308, Note_off_c, 1, 61, 0
1, 7380, Note_on_c, 1, 64, 127
1, 7428, Note_off_c, 1, 64, 0
1, 7500, Note_on_c, 1, 57, 127
1, 7548, Note_off_c, 1, 43, 0
1, 7548, Note_off_c, 1, 57, 0
1, 7620, Note_on_c, 1, 53, 127
1, 7668, Note_off_c, 1, 53, 0
1, 7680, Note_on_c, 1, 52, 127
1, 7728, Note_off_c, 1, 52, 0
1, 7740, Note_on_c, 1, 50, 127
1, 7740, Note_on_c, 1, 41, 127
1, 7788, Note_off_c, 1, 69, 0
1, 7932, Note_off_c, 1, 50, 0
1, 7932, Note_off_c, 1, 41, 0
1, 7980, Note_on_c, 1, 74, 127
1, 8028, Note_off_c, 1, 74, 0
1, 8040, Note_on_c, 1, 77, 127
1, 8088, Note_off_c, 1, 77, 0
1, 8100, Note_on_c, 1, 76, 127
1, 8100, Note_on_c, 1, 57, 127
1, 8100, Note_on_c, 1, 53, 127
1, 8148, Note_off_c, 1, 76, 0
1, 8160, Note_on_c, 1, 74, 127
1, 8196, Note_off_c, 1, 57, 0
1, 8196, Note_off_c, 1, 53, 0
1, 8208, Note_off_c, 1, 74, 0
1, 8220, Note_on_c, 1, 73, 127
1, 8220, Note_on_c, 1, 52, 127
1, 8220, Note_on_c, 1, 55, 127
1, 8268, Note_off_c, 1, 73, 0
1, 8280, Note_on_c, 1, 74, 127
1, 8316, Note_off_c, 1, 52, 0
1, 8328, Note_off_c, 1, 74, 0
1, 8340, Note_on_c, 1, 76, 127
1, 8340, Note_on_c, 1, 50, 127
1, 8388, Note_off_c, 1, 76, 0
1, 8400, Note_on_c, 1, 70, 127
1, 8412, Note_off_c, 1, 55, 0
1, 8436, Note_off_c, 1, 50, 0
1, 8448, Note_off_c, 1, 70, 0
1, 8460, Note_on_c, 1, 69, 127
1, 8460, Note_on_c, 1, 49, 127
1, 8460, Note_on_c, 1, 52, 127
1, 8508, Note_off_c, 1, 69, 0
1, 8520, Note_on_c, 1, 67, 127
1, 8556, Note_off_c, 1, 49, 0
1, 8568, Note_off_c, 1, 67, 0
1, 8580, Note_on_c, 1, 65, 127
1, 8580, Note_on_c, 1, 45, 127
1, 8628, Note_off_c, 1, 65, 0
1, 8640, Note_on_c, 1, 64, 127
1, 8652, Note_off_c, 1, 52, 0
1, 8676, Note_off_c, 1, 45, 0
1, 8688, Note_off_c, 1, 64, 0
1, 8700, Note_on_c, 1, 66, 127
1, 8700, Note_on_c, 1, 50, 127
1, 8748, Note_off_c, 1, 66, 0
1, 8760, Note_on_c, 1, 67, 127
1, 8796, Note_off_c, 1, 50, 0
1, 8808, Note_off_c, 1, 67, 0
1, 8820, Note_on_c, 1, 69, 127
1, 8820, Note_on_c, 1, 48, 127
1, 8868, Note_off_c, 1, 69, 0
1, 8880, Note_on_c, 1, 63, 127
1, 8916, Note_off_c, 1, 48, 0
1, 8928, Note_off_c, 1, 63, 0
1, 8940, Note_on_c, 1, 62, 127
1, 8940, Note_on_c, 1, 46, 127
1, 8988, Note_off_c, 1, 62, 0
1, 9000, Note_on_c, 1, 60, 127
1, 9036, Note_off_c, 1, 46, 0
1, 9048, Note_off_c, 1, 60, 0
1, 9060, Note_on_c, 1, 58, 127
1, 9060, Note_on_c, 1, 45, 127
1, 9108, Note_off_c, 1, 58, 0
1, 9120, Note_on_c, 1, 57, 127
1, 9156, Note_off_c, 1, 45, 0
1, 9168, Note_off_c, 1, 57, 0
1, 9180, Note_on_c, 1, 58, 127
1, 9180, Note_on_c, 1, 43, 127
1, 9228, Note_off_c, 1, 58, 0
1, 9240, Note_on_c, 1, 60, 127
1, 9276, Note_off_c, 1, 43, 0
1, 9288, Note_off_c, 1, 60, 0
1, 9300, Note_on_c, 1, 62, 127
1, 9300, Note_on_c, 1, 41, 127
1, 9348, Note_off_c, 1, 62, 0
1, 9360, Note_on_c, 1, 56, 127
1, 9396, Note_off_c, 1, 41, 0
1, 9408, Note_off_c, 1, 56, 0
1, 9420, Note_on_c, 1, 55, 127
1, 9420, Note_on_c, 1, 39, 127
1, 9468, Note_off_c, 1, 55, 0
1, 9480, Note_on_c, 1, 53, 127
1, 9516, Note_off_c, 1, 39, 0
1, 9528, Note_off_c, 1, 53, 0
1, 9540, Note_on_c, 1, 51, 127
1, 9540, Note_on_c, 1, 38, 127
1, 9588, Note_off_c, 1, 51, 0
1, 9600, Note_on_c, 1, 50, 127
1, 9636, Note_off_c, 1, 38, 0
1, 9648, Note_off_c, 1, 50, 0
1, 9660, Note_on_c, 1, 49, 127
1, 9660, Note_on_c, 1, 37, 127
1, 9708, Note_off_c, 1, 49, 0
1, 9720, Note_on_c, 1, 50, 127
1, 9768, Note_off_c, 1, 50, 0
1, 9780, Note_on_c, 1, 52, 127
1, 9828, Note_off_c, 1, 52, 0
1, 9840, Note_on_c, 1, 46, 127
1, 9852, Note_off_c, 1, 37, 0
1, 9888, Note_off_c, 1, 46, 0
1, 9900, Note_on_c, 1, 45, 127
1, 9948, Note_off_c, 1, 45, 0
1, 9960, Note_on_c, 1, 43, 127
1, 10008, Note_off_c, 1, 43, 0
1, 10020, Note_on_c, 1, 73, 127
1, 10020, Note_on_c, 1, 41, 127
1, 10068, Note_off_c, 1, 41, 0
1, 10080, Note_on_c, 1, 40, 127
1, 10128, Note_off_c, 1, 40, 0
1, 10133, Note_off_c, 1, 73, 0
1, 10140, Note_on_c, 1, 74, 127
1, 10140, Note_on_c, 1, 41, 127
1, 10200, Note_on_c, 1, 76, 127
1, 10236, Note_off_c, 1, 41, 0
1, 10257, Note_off_c, 1, 76, 0
1, 10260, Note_on_c, 1, 77, 127
1, 10260, Note_on_c, 1, 43, 127
1, 10317, Note_off_c, 1, 77, 0
1, 10320, Note_on_c, 1, 82, 127
1, 10332, Note_off_c, 1, 74, 0
1, 10356, Note_off_c, 1, 43, 0
1, 10377, Note_off_c, 1, 82, 0
1, 10380, Note_on_c, 1, 77, 127
1, 10380, Note_on_c, 1, 72, 127
1, 10380, Note_on_c, 1, 45, 127
1, 10392, Note_off_c, 1, 77, 0
1, 10395, Note_on_c, 1, 76, 127
1, 10407, Note_off_c, 1, 76, 0
1, 10476, Note_off_c, 1, 45, 0
1, 10560, Note_on_c, 1, 74, 127
1, 10572, Note_off_c, 1, 72, 0
1, 10617, Note_off_c, 1, 74, 0
1, 10620, Note_on_c, 1, 74, 127
1, 10620, Note_on_c, 1, 38, 127
1, 10680, Note_on_c, 1, 72, 127
1, 10728, Note_off_c, 1, 72, 0
1, 10740, Note_on_c, 1, 70, 127
1, 10788, Note_off_c, 1, 70, 0
1, 10800, Note_on_c, 1, 69, 127
1, 10812, Note_off_c, 1, 38, 0
1, 10848, Note_off_c, 1, 69, 0
1, 10860, Note_on_c, 1, 67, 127
1, 11040, Note_on_c, 1, 61, 127
1, 11052, Note_off_c, 1, 67, 0
1, 11088, Note_off_c, 1, 61, 0
1, 11100, Note_on_c, 1, 66, 127
1, 11100, Note_on_c, 1, 62, 127
1, 11160, Note_on_c, 1, 54, 127
1, 11208, Note_off_c, 1, 54, 0
1, 11220, Note_on_c, 1, 55, 127
1, 11268, Note_off_c, 1, 55, 0
1, 11280, Note_on_c, 1, 57, 127
1, 11328, Note_off_c, 1, 57, 0
1, 11340, Note_on_c, 1, 50, 127
1, 11388, Note_off_c, 1, 74, 0
1, 11388, Note_off_c, 1, 66, 0
1, 11388, Note_off_c, 1, 62, 0
1, 11436, Note_off_c, 1, 50, 0
1, 11580, Note_on_c, 1, 70, 127
1, 11628, Note_off_c, 1, 70, 0
1, 11640, Note_on_c, 1, 67, 127
1, 11640, Note_on_c, 1, 70, 127
1, 11700, Note_on_c, 1, 43, 127
1, 11748, Note_off_c, 1, 43, 0
1, 11760, Note_on_c, 1, 46, 127
1, 11808, Note_off_c, 1, 46, 0
1, 11820, Note_on_c, 1, 50, 127
1, 11832, Note_off_c, 1, 67, 0
1, 11868, Note_off_c, 1, 50, 0
1, 11880, Note_on_c, 1, 55, 127
1, 11928, Note_off_c, 1, 70, 0
1, 11928, Note_off_c, 1, 55, 0
1, 11940, Note_on_c, 1, 79, 127
1, 11940, Note_on_c, 1, 58, 127
1, 11988, Note_off_c, 1, 79, 0
1, 11988, Note_off_c, 1, 58, 0
1, 12000, Note_on_c, 1, 78, 127
1, 12000, Note_on_c, 1, 57, 127
1, 12048, Note_off_c, 1, 78, 0
1, 12048, Note_off_c, 1, 57, 0
1, 12060, Note_on_c, 1, 79, 127
1, 12060, Note_on_c, 1, 55, 127
1, 12108, Note_off_c, 1, 79, 0
1, 12108, Note_off_c, 1, 55, 0
1, 12120, Note_on_c, 1, 69, 127
1, 12120, Note_on_c, 1, 72, 127
1, 12120, Note_on_c, 1, 54, 127
1, 12168, Note_off_c, 1, 54, 0
1, 12180, Note_on_c, 1, 55, 127
1, 12228, Note_off_c, 1, 55, 0
1, 12240, Note_on_c, 1, 57, 127
1, 12288, Note_off_c, 1, 57, 0
1, 12300, Note_on_c, 1, 51, 127
1, 12312, Note_off_c, 1, 69, 0
1, 12348, Note_off_c, 1, 51, 0
1, 12360, Note_on_c, 1, 50, 127
1, 12408, Note_off_c, 1, 72, 0
1, 12408, Note_off_c, 1, 50, 0
1, 12420, Note_on_c, 1, 81, 127
1, 12420, Note_on_c, 1, 48, 127
1, 12468, Note_off_c, 1, 81, 0
1, 12468, Note_off_c, 1, 48, 0
1, 12480, Note_on_c, 1, 79, 127
1, 12480, Note_on_c, 1, 46, 127
1, 12528, Note_off_c, 1, 79, 0
1, 12528, Note_off_c, 1, 46, 0
1, 12540, Note_on_c, 1, 81, 127
1, 12540, Note_on_c, 1, 45, 127
1, 12588, Note_off_c, 1, 81, 0
1, 12588, Note_off_c, 1, 45, 0
1, 12600, Note_on_c, 1, 74, 127
1, 12600, Note_on_c, 1, 46, 127
1, 12648, Note_off_c, 1, 74, 0
1, 12660, Note_on_c, 1, 70, 127
1, 12708, Note_off_c, 1, 70, 0
1, 12780, Note_on_c, 1, 77, 127
1, 12828, Note_off_c, 1, 77, 0
1, 12840, Note_on_c, 1, 79, 127
1, 12888, Note_off_c, 1, 46, 0
1, 12888, Note_off_c, 1, 79, 0
1, 12900, Note_on_c, 1, 82, 127
1, 12900, Note_on_c, 1, 50, 127
1, 12948, Note_off_c, 1, 82, 0
1, 12948, Note_off_c, 1, 50, 0
1, 12960, Note_on_c, 1, 81, 127
1, 12960, Note_on_c, 1, 48, 127
1, 13008, Note_off_c, 1, 81, 0
1, 13008, Note_off_c, 1, 48, 0
1, 13020, Note_on_c, 1, 79, 127
1, 13020, Note_on_c, 1, 51, 127
1, 13068, Note_off_c, 1, 79, 0
1, 13068, Note_off_c, 1, 51, 0
1, 13080, Note_on_c, 1, 78, 127
1, 13080, Note_on_c, 1, 50, 127
1, 13128, Note_off_c, 1, 78, 0
1, 13140, Note_on_c, 1, 79, 127
1, 13188, Note_off_c, 1, 79, 0
1, 13200, Note_on_c, 1, 81, 127
1, 13248, Note_off_c, 1, 81, 0
1, 13260, Note_on_c, 1, 75, 127
1, 13308, Note_off_c, 1, 75, 0
1, 13320, Note_on_c, 1, 74, 127
1, 13368, Note_off_c, 1, 50, 0
1, 13368, Note_off_c, 1, 74, 0
1, 13380, Note_on_c, 1, 72, 127
1, 13380, Note_on_c, 1, 52, 127
1, 13428, Note_off_c, 1, 72, 0
1, 13428, Note_off_c, 1, 52, 0
1, 13440, Note_on_c, 1, 70, 127
1, 13440, Note_on_c, 1, 54, 127
1, 13488, Note_off_c, 1, 70, 0
1, 13488, Note_off_c, 1, 54, 0
1, 13500, Note_on_c, 1, 69, 127
1, 13500, Note_on_c, 1, 50, 127
1, 13548, Note_off_c, 1, 69, 0
1, 13548, Note_off_c, 1, 50, 0
1, 13560, Note_on_c, 1, 70, 127
1, 13560, Note_on_c, 1, 55, 127
1, 13620, Note_on_c, 1, 67, 127
1, 13668, Note_off_c, 1, 67, 0
1, 13680, Note_on_c, 1, 65, 127
1, 13728, Note_off_c, 1, 65, 0
1, 13740, Note_on_c, 1, 62, 127
1, 13788, Note_off_c, 1, 62, 0
1, 13800, Note_on_c, 1, 63, 127
1, 13848, Note_off_c, 1, 70, 0
1, 13848, Note_off_c, 1, 55, 0
1, 13920, Note_on_c, 1, 72, 127
1, 13920, Note_on_c, 1, 51, 127
1, 13968, Note_off_c, 1, 72, 0
1, 13980, Note_on_c, 1, 75, 127
1, 14016, Note_off_c, 1, 51, 0
1, 14028, Note_off_c, 1, 75, 0
1, 14040, Note_on_c, 1, 69, 127
1, 14040, Note_on_c, 1, 53, 127
1, 14088, Note_off_c, 1, 63, 0
1, 14220, Note_on_c, 1, 60, 127
1, 14268, Note_off_c, 1, 60, 0
1, 14328, Note_off_c, 1, 69, 0
1, 14328, Note_off_c, 1, 53, 0
1, 14400, Note_on_c, 1, 50, 127
1, 14460, Note_on_c, 1, 74, 127
1, 14496, Note_off_c, 1, 50, 0
1, 14508, Note_off_c, 1, 74, 0
1, 14700, Note_on_c, 1, 58, 127
1, 14748, Note_off_c, 1, 58, 0
1, 14880, Note_on_c, 1, 48, 127
1, 14976, Note_off_c, 1, 48, 0
1, 15000, Note_on_c, 1, 66, 127
1, 15048, Note_off_c, 1, 66, 0
1, 15120, Note_on_c, 1, 57, 127
1, 15216, Note_off_c, 1, 57, 0
1, 15480, Note_on_c, 1, 69, 127
1, 15480, Note_on_c, 1, 54, 127
1, 15480, Note_on_c, 1, 50, 127
1, 15528, Note_off_c, 1, 69, 0
1, 15540, Note_on_c, 1, 72, 127
1, 15576, Note_off_c, 1, 54, 0
1, 15576, Note_off_c, 1, 50, 0
1, 15588, Note_off_c, 1, 72, 0
1, 15600, Note_on_c, 1, 74, 127
1, 15600, Note_on_c, 1, 57, 127
1, 15600, Note_on_c, 1, 48, 127
1, 15648, Note_off_c, 1, 74, 0
1, 15660, Note_on_c, 1, 78, 127
1, 15696, Note_off_c, 1, 57, 0
1, 15696, Note_off_c, 1, 48, 0
1, 15708, Note_off_c, 1, 78, 0
1, 15720, Note_on_c, 1, 70, 127
1, 15720, Note_on_c, 1, 46, 127
1, 15720, Note_on_c, 1, 50, 127
1, 15768, Note_off_c, 1, 70, 0
1, 15780, Note_on_c, 1, 74, 127
1, 15816, Note_off_c, 1, 46, 0
1, 15828, Note_off_c, 1, 74, 0
1, 15840, Note_on_c, 1, 78, 127
1, 15840, Note_on_c, 1, 43, 127
1, 15888, Note_off_c, 1, 78, 0
1, 15900, Note_on_c, 1, 79, 127
1, 15936, Note_off_c, 1, 43, 0
1, 15948, Note_off_c, 1, 79, 0
1, 15960, Note_on_c, 1, 81, 127
1, 15960, Note_on_c, 1, 38, 127
1, 16008, Note_off_c, 1, 81, 0
1, 16056, Note_off_c, 1, 50, 0
1, 16056, Note_off_c, 1, 38, 0
1, 16080, Note_on_c, 1, 78, 127
1, 16080, Note_on_c, 1, 62, 127
1, 16128, Note_off_c, 1, 78, 0
1, 16140, Note_on_c, 1, 76, 127
1, 16188, Note_off_c, 1, 76, 0
1, 16200, Note_on_c, 1, 74, 127
1, 16248, Note_off_c, 1, 62, 0
1, 16248, Note_off_c, 1, 74, 0
1, 16260, Note_on_c, 1, 75, 127
1, 16260, Note_on_c, 1, 60, 127
1, 16308, Note_off_c, 1, 75, 0
1, 16308, Note_off_c, 1, 60, 0
1, 16320, Note_on_c, 1, 75, 127
1, 16320, Note_on_c, 1, 59, 127
1, 16332, Note_off_c, 1, 75, 0
1, 16335, Note_on_c, 1, 77, 127
1, 16347, Note_off_c, 1, 77, 0
1, 16368, Note_off_c, 1, 59, 0
1, 16380, Note_on_c, 1, 74, 127
1, 16380, Note_on_c, 1, 57, 127
1, 16404, Note_off_c, 1, 74, 0
1, 16410, Note_on_c, 1, 75, 127
1, 16428, Note_off_c, 1, 57, 0
1, 16434, Note_off_c, 1, 75, 0
1, 16440, Note_on_c, 1, 74, 127
1, 16440, Note_on_c, 1, 71, 127
1, 16440, Note_on_c, 1, 77, 127
1, 16440, Note_on_c, 1, 55, 127
1, 16488, Note_off_c, 1, 55, 0
1, 16500, Note_on_c, 1, 50, 127
1, 16548, Note_off_c, 1, 50, 0
1, 16620, Note_on_c, 1, 59, 127
1, 16632, Note_off_c, 1, 74, 0
1, 16668, Note_off_c, 1, 59, 0
1, 16680, Note_on_c, 1, 62, 127
1, 16728, Note_off_c, 1, 71, 0
1, 16728, Note_off_c, 1, 62, 0
1, 16740, Note_on_c, 1, 72, 127
1, 16740, Note_on_c, 1, 63, 127
1, 16788, Note_off_c, 1, 72, 0
1, 16788, Note_off_c, 1, 63, 0
1, 16824, Note_off_c, 1, 77, 0
1, 16860, Note_on_c, 1, 71, 127
1, 16860, Note_on_c, 1, 60, 127
1, 16884, Note_off_c, 1, 71, 0
1, 16890, Note_on_c, 1, 72, 127
1, 16908, Note_off_c, 1, 60, 0
1, 16919, Note_off_c, 1, 72, 0
1, 16920, Note_on_c, 1, 74, 127
1, 16920, Note_on_c, 1, 59, 127
1, 16968, Note_off_c, 1, 74, 0
1, 16968, Note_off_c, 1, 59, 0
1, 16980, Note_on_c, 1, 75, 127
1, 16980, Note_on_c, 1, 60, 127
1, 17028, Note_off_c, 1, 75, 0
1, 17028, Note_off_c, 1, 60, 0
1, 17040, Note_on_c, 1, 75, 127
1, 17040, Note_on_c, 1, 62, 127
1, 17052, Note_off_c, 1, 75, 0
1, 17055, Note_on_c, 1, 77, 127
1, 17067, Note_off_c, 1, 77, 0
1, 17088, Note_off_c, 1, 62, 0
1, 17100, Note_on_c, 1, 74, 127
1, 17100, Note_on_c, 1, 56, 127
1, 17124, Note_off_c, 1, 74, 0
1, 17130, Note_on_c, 1, 75, 127
1, 17148, Note_off_c, 1, 56, 0
1, 17154, Note_off_c, 1, 75, 0
1, 17160, Note_on_c, 1, 77, 127
1, 17160, Note_on_c, 1, 55, 127
1, 17208, Note_off_c, 1, 77, 0
1, 17208, Note_off_c, 1, 55, 0
1, 17220, Note_on_c, 1, 80, 127
1, 17220, Note_on_c, 1, 53, 127
1, 17268, Note_off_c, 1, 80, 0
1, 17268, Note_off_c, 1, 53, 0
1, 17280, Note_on_c, 1, 79, 127
1, 17280, Note_on_c, 1, 51, 127
1, 17328, Note_off_c, 1, 79, 0
1, 17328, Note_off_c, 1, 51, 0
1, 17340, Note_on_c, 1, 77, 127
1, 17340, Note_on_c, 1, 50, 127
1, 17388, Note_off_c, 1, 77, 0
1, 17388, Note_off_c, 1, 50, 0
1, 17400, Note_on_c, 1, 75, 127
1, 17400, Note_on_c, 1, 48, 127
1, 17448, Note_off_c, 1, 75, 0
1, 17460, Note_on_c, 1, 72, 127
1, 17508, Note_off_c, 1, 72, 0
1, 17580, Note_on_c, 1, 79, 127
1, 17628, Note_off_c, 1, 79, 0
1, 17640, Note_on_c, 1, 84, 127
1, 17688, Note_off_c, 1, 48, 0
1, 17688, Note_off_c, 1, 84, 0
1, 17700, Note_on_c, 1, 82, 127
1, 17700, Note_on_c, 1, 48, 127
1, 17748, Note_off_c, 1, 82, 0
1, 17748, Note_off_c, 1, 48, 0
1, 17760, Note_on_c, 1, 81, 127
1, 17760, Note_on_c, 1, 51, 127
1, 17808, Note_off_c, 1, 81, 0
1, 17808, Note_off_c, 1, 51, 0
1, 17820, Note_on_c, 1, 79, 127
1, 17820, Note_on_c, 1, 55, 127
1, 17868, Note_off_c, 1, 79, 0
1, 17868, Note_off_c, 1, 55, 0
1, 17880, Note_on_c, 1, 78, 127
1, 17880, Note_on_c, 1, 60, 127
1, 17928, Note_off_c, 1, 78, 0
1, 17940, Note_on_c, 1, 79, 127
1, 17976, Note_off_c, 1, 60, 0
1, 17988, Note_off_c, 1, 79, 0
1, 18000, Note_on_c, 1, 81, 127
1, 18000, Note_on_c, 1, 50, 127
1, 18000, Note_on_c, 1, 48, 127
1, 18048, Note_off_c, 1, 81, 0
1, 18060, Note_on_c, 1, 75, 127
1, 18096, Note_off_c, 1, 50, 0
1, 18096, Note_off_c, 1, 48, 0
1, 18108, Note_off_c, 1, 75, 0
1, 18120, Note_on_c, 1, 74, 127
1, 18120, Note_on_c, 1, 46, 127
1, 18120, Note_on_c, 1, 52, 127
1, 18168, Note_off_c, 1, 74, 0
1, 18180, Note_on_c, 1, 72, 127
1, 18216, Note_off_c, 1, 46, 0
1, 18216, Note_off_c, 1, 52, 0
1, 18228, Note_off_c, 1, 72, 0
1, 18240, Note_on_c, 1, 70, 127
1, 18240, Note_on_c, 1, 45, 127
1, 18240, Note_on_c, 1, 54, 127
1, 18288, Note_off_c, 1, 70, 0
1, 18300, Note_on_c, 1, 69, 127
1, 18336, Note_off_c, 1, 45, 0
1, 18336, Note_off_c, 1, 54, 0
1, 18348, Note_off_c, 1, 69, 0
1, 18360, Note_on_c, 1, 70, 127
1, 18360, Note_on_c, 1, 43, 127
1, 18420, Note_on_c, 1, 55, 127
1, 18468, Note_off_c, 1, 55, 0
1, 18480, Note_on_c, 1, 58, 127
1, 18528, Note_off_c, 1, 58, 0
1, 18540, Note_on_c, 1, 62, 127
1, 18588, Note_off_c, 1, 62, 0
1, 18600, Note_on_c, 1, 67, 127
1, 18648, Note_off_c, 1, 67, 0
1, 18660, Note_on_c, 1, 65, 127
1, 18708, Note_off_c, 1, 65, 0
1, 18720, Note_on_c, 1, 63, 127
1, 18744, Note_off_c, 1, 70, 0
1, 18768, Note_off_c, 1, 63, 0
1, 18840, Note_on_c, 1, 69, 127
1, 18840, Note_on_c, 1, 61, 127
1, 18888, Note_off_c, 1, 61, 0
1, 18960, Note_on_c, 1, 64, 127
1, 19008, Note_off_c, 1, 64, 0
1, 19080, Note_on_c, 1, 57, 127
1, 19128, Note_off_c, 1, 43, 0
1, 19128, Note_off_c, 1, 57, 0
1, 19200, Note_on_c, 1, 53, 127
1, 19248, Note_off_c, 1, 53, 0
1, 19260, Note_on_c, 1, 52, 127
1, 19308, Note_off_c, 1, 52, 0
1, 19320, Note_on_c, 1, 50, 127
1, 19320, Note_on_c, 1, 41, 127
1, 19368, Note_off_c, 1, 69, 0
1, 19512, Note_off_c, 1, 50, 0
1, 19512, Note_off_c, 1, 41, 0
1, 19560, Note_on_c, 1, 74, 127
1, 19608, Note_off_c, 1, 74, 0
1, 19620, Note_on_c, 1, 77, 127
1, 19668, Note_off_c, 1, 77, 0
1, 19680, Note_on_c, 1, 76, 127
1, 19680, Note_on_c, 1, 57, 127
1, 19680, Note_on_c, 1, 53, 127
1, 19728, Note_off_c, 1, 76, 0
1, 19740, Note_on_c, 1, 74, 127
1, 19776, Note_off_c, 1, 57, 0
1, 19776, Note_off_c, 1, 53, 0
1, 19788, Note_off_c, 1, 74, 0
1, 19800, Note_on_c, 1, 73, 127
1, 19800, Note_on_c, 1, 52, 127
1, 19800, Note_on_c, 1, 55, 127
1, 19848, Note_off_c, 1, 73, 0
1, 19860, Note_on_c, 1, 74, 127
1, 19896, Note_off_c, 1, 52, 0
1, 19908, Note_off_c, 1, 74, 0
1, 19920, Note_on_c, 1, 76, 127
1, 19920, Note_on_c, 1, 50, 127
1, 19968, Note_off_c, 1, 76, 0
1, 19980, Note_on_c, 1, 70, 127
1, 19992, Note_off_c, 1, 55, 0
1, 20016, Note_off_c, 1, 50, 0
1, 20028, Note_off_c, 1, 70, 0
1, 20040, Note_on_c, 1, 69, 127
1, 20040, Note_on_c, 1, 49, 127
1, 20040, Note_on_c, 1, 52, 127
1, 20088, Note_off_c, 1, 69, 0
1, 20100, Note_on_c, 1, 67, 127
1, 20136, Note_off_c, 1, 49, 0
1, 20148, Note_off_c, 1, 67, 0
1, 20160, Note_on_c, 1, 65, 127
1, 20160, Note_on_c, 1, 45, 127
1, 20208, Note_off_c, 1, 65, 0
1, 20220, Note_on_c, 1, 64, 127
1, 20232, Note_off_c, 1, 52, 0
1, 20256, Note_off_c, 1, 45, 0
1, 20268, Note_off_c, 1, 64, 0
1, 20280, Note_on_c, 1, 66, 127
1, 20280, Note_on_c, 1, 50, 127
1, 20328, Note_off_c, 1, 66, 0
1, 20340, Note_on_c, 1, 67, 127
1, 20376, Note_off_c, 1, 50, 0
1, 20388, Note_off_c, 1, 67, 0
1, 20400, Note_on_c, 1, 69, 127
1, 20400, Note_on_c, 1, 48, 127
1, 20448, Note_off_c, 1, 69, 0
1, 20460, Note_on_c, 1, 63, 127
1, 20496, Note_off_c, 1, 48, 0
1, 20508, Note_off_c, 1, 63, 0
1, 20520, Note_on_c, 1, 62, 127
1, 20520, Note_on_c, 1, 46, 127
1, 20568, Note_off_c, 1, 62, 0
1, 20580, Note_on_c, 1, 60, 127
1, 20616, Note_off_c, 1, 46, 0
1, 20628, Note_off_c, 1, 60, 0
1, 20640, Note_on_c, 1, 58, 127
1, 20640, Note_on_c, 1, 45, 127
1, 20688, Note_off_c, 1, 58, 0
1, 20700, Note_on_c, 1, 57, 127
1, 20736, Note_off_c, 1, 45, 0
1, 20748, Note_off_c, 1, 57, 0
1, 20760, Note_on_c, 1, 58, 127
1, 20760, Note_on_c, 1, 43, 127
1, 20808, Note_off_c, 1, 58, 0
1, 20820, Note_on_c, 1, 60, 127
1, 20856, Note_off_c, 1, 43, 0
1, 20868, Note_off_c, 1, 60, 0
1, 20880, Note_on_c, 1, 62, 127
1, 20880, Note_on_c, 1, 41, 127
1, 20928, Note_off_c, 1, 62, 0
1, 20940, Note_on_c, 1, 56, 127
1, 20976, Note_off_c, 1, 41, 0
1, 20988, Note_off_c, 1, 56, 0
1, 21000, Note_on_c, 1, 55, 127
1, 21000, Note_on_c, 1, 39, 127
1, 21048, Note_off_c, 1, 55, 0
1, 21060, Note_on_c, 1, 53, 127
1, 21096, Note_off_c, 1, 39, 0
1, 21108, Note_off_c, 1, 53, 0
1, 21120, Note_on_c, 1, 51, 127
1, 21120, Note_on_c, 1, 38, 127
1, 21168, Note_off_c, 1, 51, 0
1, 21180, Note_on_c, 1, 50, 127
1, 21216, Note_off_c, 1, 38, 0
1, 21228, Note_off_c, 1, 50, 0
1, 21240, Note_on_c, 1, 49, 127
1, 21240, Note_on_c, 1, 37, 127
1, 21288, Note_off_c, 1, 49, 0
1, 21300, Note_on_c, 1, 50, 127
1, 21348, Note_off_c, 1, 50, 0
1, 21360, Note_on_c, 1, 52, 127
1, 21408, Note_off_c, 1, 52, 0
1, 21420, Note_on_c, 1, 46, 127
1, 21432, Note_off_c, 1, 37, 0
1, 21468, Note_off_c, 1, 46, 0
1, 21480, Note_on_c, 1, 45, 127
1, 21528, Note_off_c, 1, 45, 0
1, 21540, Note_on_c, 1, 43, 127
1, 21588, Note_off_c, 1, 43, 0
1, 21600, Note_on_c, 1, 73, 127
1, 21600, Note_on_c, 1, 41, 127
1, 21648, Note_off_c, 1, 41, 0
1, 21660, Note_on_c, 1, 40, 127
1, 21708, Note_off_c, 1, 40, 0
1, 21713, Note_off_c, 1, 73, 0
1, 21720, Note_on_c, 1, 74, 127
1, 21720, Note_on_c, 1, 41, 127
1, 21780, Note_on_c, 1, 76, 127
1, 21816, Note_off_c, 1, 41, 0
1, 21837, Note_off_c, 1, 76, 0
1, 21840, Note_on_c, 1, 77, 127
1, 21840, Note_on_c, 1, 43, 127
1, 21897, Note_off_c, 1, 77, 0
1, 21900, Note_on_c, 1, 82, 127
1, 21912, Note_off_c, 1, 74, 0
1, 21936, Note_off_c, 1, 43, 0
1, 21957, Note_off_c, 1, 82, 0
1, 21960, Note_on_c, 1, 77, 127
1, 21960, Note_on_c, 1, 72, 127
1, 21960, Note_on_c, 1, 45, 127
1, 21972, Note_off_c, 1, 77, 0
1, 21975, Note_on_c, 1, 76, 127
1, 21987, Note_off_c, 1, 76, 0
1, 22056, Note_off_c, 1, 45, 0
1, 22140, Note_on_c, 1, 74, 127
1, 22152, Note_off_c, 1, 72, 0
1, 22197, Note_off_c, 1, 74, 0
1, 22200, Note_on_c, 1, 74, 127
1, 22200, Note_on_c, 1, 38, 127
1, 22260, Note_on_c, 1, 72, 127
1, 22308, Note_off_c, 1, 72, 0
1, 22320, Note_on_c, 1, 70, 127
1, 22368, Note_off_c, 1, 70, 0
1, 22380, Note_on_c, 1, 69, 127
1, 22392, Note_off_c, 1, 38, 0
1, 22428, Note_off_c, 1, 69, 0
1, 22440, Note_on_c, 1, 67, 127
1, 22620, Note_on_c, 1, 61, 127
1, 22632, Note_off_c, 1, 67, 0
1, 22668, Note_off_c, 1, 61, 0
1, 22680, Note_on_c, 1, 66, 127
1, 22680, Note_on_c, 1, 62, 127
1, 22740, Note_on_c, 1, 54, 127
1, 22788, Note_off_c, 1, 54, 0
1, 22800, Note_on_c, 1, 55, 127
1, 22848, Note_off_c, 1, 55, 0
1, 22860, Note_on_c, 1, 57, 127
1, 22908, Note_off_c, 1, 57, 0
1, 22920, Note_on_c, 1, 50, 127
1, 22968, Note_off_c, 1, 74, 0
1, 22968, Note_off_c, 1, 66, 0
1, 22968, Note_off_c, 1, 62, 0
1, 23016, Note_off_c, 1, 50, 0
1, 23160, Note_on_c, 1, 69, 127
1, 23208, Note_off_c, 1, 69, 0
1, 23220, Note_on_c, 1, 69, 127
1, 23220, Note_on_c, 1, 50, 127
1, 23268, Note_off_c, 1, 69, 0
1, 23280, Note_on_c, 1, 81, 127
1, 23328, Note_off_c, 1, 81, 0
1, 23340, Note_on_c, 1, 78, 127
1, 23388, Note_off_c, 1, 78, 0
1, 23400, Note_on_c, 1, 74, 127
1, 23448, Note_off_c, 1, 74, 0
1, 23508, Note_off_c, 1, 50, 0
1, 23520, Note_on_c, 1, 66, 127
1, 23520, Note_on_c, 1, 57, 127
1, 23568, Note_off_c, 1, 66, 0
1, 23568, Note_off_c, 1, 57, 0
1, 23580, Note_on_c, 1, 67, 127
1, 23580, Note_on_c, 1, 58, 127
1, 23628, Note_off_c, 1, 67, 0
1, 23628, Note_off_c, 1, 58, 0
1, 23640, Note_on_c, 1, 69, 127
1, 23640, Note_on_c, 1, 60, 127
1, 23688, Note_off_c, 1, 69, 0
1, 23688, Note_off_c, 1, 60, 0
1, 23700, Note_on_c, 1, 71, 127
1, 23700, Note_on_c, 1, 53, 127
1, 23748, Note_off_c, 1, 71, 0
1, 23760, Note_on_c, 1, 69, 127
1, 23796, Note_off_c, 1, 53, 0
1, 23808, Note_off_c, 1, 69, 0
1, 23820, Note_on_c, 1, 67, 127
1, 23820, Note_on_c, 1, 51, 127
1, 23820, Note_on_c, 1, 60, 127
1, 23868, Note_off_c, 1, 67, 0
1, 23880, Note_on_c, 1, 72, 127
1, 23916, Note_off_c, 1, 51, 0
1, 23928, Note_off_c, 1, 72, 0
1, 23940, Note_on_c, 1, 74, 127
1, 23940, Note_on_c, 1, 53, 127
1, 23988, Note_off_c, 1, 74, 0
1, 24000, Note_on_c, 1, 75, 127
1, 24012, Note_off_c, 1, 60, 0
1, 24036, Note_off_c, 1, 53, 0
1, 24048, Note_off_c, 1, 75, 0
1, 24060, Note_on_c, 1, 77, 127
1, 24060, Note_on_c, 1, 55, 127
1, 24060, Note_on_c, 1, 59, 127
1, 24108, Note_off_c, 1, 77, 0
1, 24120, Note_on_c, 1, 79, 127
1, 24156, Note_off_c, 1, 55, 0
1, 24156, Note_off_c, 1, 59, 0
1, 24168, Note_off_c, 1, 79, 0
1, 24180, Note_on_c, 1, 75, 127
1, 24180, Note_on_c, 1, 48, 127
1, 24192, Note_off_c, 1, 75, 0
1, 24195, Note_on_c, 1, 77, 127
1, 24207, Note_off_c, 1, 77, 0
1, 24228, Note_off_c, 1, 48, 0
1, 24240, Note_on_c, 1, 60, 127
1, 24300, Note_on_c, 1, 74, 127
1, 24300, Note_on_c, 1, 55, 127
1, 24336, Note_off_c, 1, 60, 0
1, 24348, Note_off_c, 1, 74, 0
1, 24348, Note_off_c, 1, 55, 0
1, 24360, Note_on_c, 1, 72, 127
1, 24360, Note_on_c, 1, 51, 127
1, 24408, Note_off_c, 1, 72, 0
1, 24408, Note_off_c, 1, 51, 0
1, 24420, Note_on_c, 1, 79, 127
1, 24420, Note_on_c, 1, 48, 127
1, 24432, Note_off_c, 1, 79, 0
1, 24435, Note_on_c, 1, 78, 127
1, 24447, Note_off_c, 1, 78, 0
1, 24468, Note_off_c, 1, 48, 0
1, 24480, Note_on_c, 1, 47, 127
1, 24528, Note_off_c, 1, 47, 0
1, 24600, Note_on_c, 1, 79, 127
1, 24600, Note_on_c, 1, 50, 127
1, 24648, Note_off_c, 1, 79, 0
1, 24648, Note_off_c, 1, 50, 0
1, 24660, Note_on_c, 1, 79, 127
1, 24660, Note_on_c, 1, 52, 127
1, 24708, Note_off_c, 1, 79, 0
1, 24708, Note_off_c, 1, 52, 0
1, 24720, Note_on_c, 1, 70, 127
1, 24720, Note_on_c, 1, 50, 127
1, 24768, Note_off_c, 1, 70, 0
1, 24768, Note_off_c, 1, 50, 0
1, 24780, Note_on_c, 1, 69, 127
1, 24780, Note_on_c, 1, 48, 127
1, 24828, Note_off_c, 1, 69, 0
1, 24828, Note_off_c, 1, 48, 0
1, 24840, Note_on_c, 1, 72, 127
1, 24840, Note_on_c, 1, 53, 127
1, 24888, Note_off_c, 1, 72, 0
1, 24888, Note_off_c, 1, 53, 0
1, 24900, Note_on_c, 1, 70, 127
1, 24900, Note_on_c, 1, 55, 127
1, 24948, Note_off_c, 1, 70, 0
1, 24948, Note_off_c, 1, 55, 0
1, 24960, Note_on_c, 1, 69, 127
1, 24960, Note_on_c, 1, 57, 127
1, 25008, Note_off_c, 1, 69, 0
1, 25008, Note_off_c, 1, 57, 0
1, 25020, Note_on_c, 1, 67, 127
1, 25020, Note_on_c, 1, 58, 127
1, 25068, Note_off_c, 1, 67, 0
1, 25068, Note_off_c, 1, 58, 0
1, 25080, Note_on_c, 1, 76, 127
1, 25080, Note_on_c, 1, 60, 127
1, 25128, Note_off_c, 1, 76, 0
1, 25128, Note_off_c, 1, 60, 0
1, 25140, Note_on_c, 1, 77, 127
1, 25140, Note_on_c, 1, 57, 127
1, 25188, Note_off_c, 1, 57, 0
1, 25200, Note_on_c, 1, 55, 127
1, 25248, Note_off_c, 1, 55, 0
1, 25260, Note_on_c, 1, 53, 127
1, 25284, Note_off_c, 1, 77, 0
1, 25320, Note_on_c, 1, 75, 127
1, 25356, Note_off_c, 1, 53, 0
1, 25368, Note_off_c, 1, 75, 0
1, 25380, Note_on_c, 1, 74, 127
1, 25380, Note_on_c, 1, 58, 127
1, 25428, Note_off_c, 1, 74, 0
1, 25440, Note_on_c, 1, 72, 127
1, 25476, Note_off_c, 1, 58, 0
1, 25488, Note_off_c, 1, 72, 0
1, 25500, Note_on_c, 1, 70, 127
1, 25500, Note_on_c, 1, 50, 127
1, 25548, Note_off_c, 1, 70, 0
1, 25560, Note_on_c, 1, 69, 127
1, 25596, Note_off_c, 1, 50, 0
1, 25608, Note_off_c, 1, 69, 0
1, 25620, Note_on_c, 1, 67, 127
1, 25620, Note_on_c, 1, 51, 127
1, 25668, Note_off_c, 1, 67, 0
1, 25680, Note_on_c, 1, 65, 127
1, 25716, Note_off_c, 1, 51, 0
1, 25728, Note_off_c, 1, 65, 0
1, 25740, Note_on_c, 1, 67, 127
1, 25740, Note_on_c, 1, 39, 127
1, 25788, Note_off_c, 1, 67, 0
1, 25800, Note_on_c, 1, 70, 127
1, 25836, Note_off_c, 1, 39, 0
1, 25848, Note_off_c, 1, 70, 0
1, 25860, Note_on_c, 1, 72, 127
1, 25860, Note_on_c, 1, 51, 127
1, 25908, Note_off_c, 1, 72, 0
1, 25920, Note_on_c, 1, 74, 127
1, 25956, Note_off_c, 1, 51, 0
1, 25968, Note_off_c, 1, 74, 0
1, 25980, Note_on_c, 1, 75, 127
1, 25980, Note_on_c, 1, 48, 127
1, 26028, Note_off_c, 1, 75, 0
1, 26040, Note_on_c, 1, 72, 127
1, 26076, Note_off_c, 1, 48, 0
1, 26088, Note_off_c, 1, 72, 0
1, 26100, Note_on_c, 1, 70, 127
1, 26100, Note_on_c, 1, 53, 127
1, 26148, Note_off_c, 1, 70, 0
1, 26148, Note_off_c, 1, 53, 0
1, 26160, Note_on_c, 1, 69, 127
1, 26160, Note_on_c, 1, 41, 127
1, 26208, Note_off_c, 1, 69, 0
1, 26208, Note_off_c, 1, 41, 0
1, 26220, Note_on_c, 1, 67, 127
1, 26220, Note_on_c, 1, 45, 127
1, 26268, Note_off_c, 1, 67, 0
1, 26268, Note_off_c, 1, 45, 0
1, 26280, Note_on_c, 1, 65, 127
1, 26280, Note_on_c, 1, 48, 127
1, 26328, Note_off_c, 1, 65, 0
1, 26328, Note_off_c, 1, 48, 0
1, 26340, Note_on_c, 1, 77, 127
1, 26340, Note_on_c, 1, 51, 127
1, 26388, Note_off_c, 1, 51, 0
1, 26400, Note_on_c, 1, 55, 127
1, 26448, Note_off_c, 1, 55, 0
1, 26460, Note_on_c, 1, 53, 127
1, 26484, Note_off_c, 1, 77, 0
1, 26508, Note_off_c, 1, 53, 0
1, 26520, Note_on_c, 1, 69, 127
1, 26520, Note_on_c, 1, 51, 127
1, 26568, Note_off_c, 1, 69, 0
1, 26568, Note_off_c, 1, 51, 0
1, 26580, Note_on_c, 1, 70, 127
1, 26580, Note_on_c, 1, 50, 127
1, 26628, Note_off_c, 1, 70, 0
1, 26628, Note_off_c, 1, 50, 0
1, 26640, Note_on_c, 1, 75, 127
1, 26640, Note_on_c, 1, 48, 127
1, 26688, Note_off_c, 1, 75, 0
1, 26688, Note_off_c, 1, 48, 0
1, 26700, Note_on_c, 1, 74, 127
1, 26700, Note_on_c, 1, 46, 127
1, 26748, Note_off_c, 1, 74, 0
1, 26748, Note_off_c, 1, 46, 0
1, 26760, Note_on_c, 1, 72, 127
1, 26760, Note_on_c, 1, 51, 127
1, 26808, Note_off_c, 1, 72, 0
1, 26808, Note_off_c, 1, 51, 0
1, 26820, Note_on_c, 1, 74, 127
1, 26820, Note_on_c, 1, 69, 127
1, 26820, Note_on_c, 1, 53, 127
1, 26832, Note_off_c, 1, 74, 0
1, 26835, Note_on_c, 1, 72, 127
1, 26847, Note_off_c, 1, 72, 0
1, 26916, Note_off_c, 1, 53, 0
1, 26940, Note_on_c, 1, 41, 127
1, 27000, Note_on_c, 1, 70, 127
1, 27012, Note_off_c, 1, 69, 0
1, 27036, Note_off_c, 1, 41, 0
1, 27048, Note_off_c, 1, 70, 0
1, 27060, Note_on_c, 1, 70, 127
1, 27060, Note_on_c, 1, 46, 127
1, 27108, Note_off_c, 1, 46, 0
1, 27120, Note_on_c, 1, 58, 127
1, 27168, Note_off_c, 1, 58, 0
1, 27180, Note_on_c, 1, 53, 127
1, 27228, Note_off_c, 1, 53, 0
1, 27240, Note_on_c, 1, 50, 127
1, 27288, Note_off_c, 1, 50, 0
1, 27348, Note_off_c, 1, 70, 0
1, 27360, Note_on_c, 1, 74, 127
1, 27360, Note_on_c, 1, 43, 127
1, 27408, Note_off_c, 1, 74, 0
1, 27408, Note_off_c, 1, 43, 0
1, 27420, Note_on_c, 1, 72, 127
1, 27420, Note_on_c, 1, 45, 127
1, 27468, Note_off_c, 1, 72, 0
1, 27468, Note_off_c, 1, 45, 0
1, 27480, Note_on_c, 1, 74, 127
1, 27480, Note_on_c, 1, 46, 127
1, 27528, Note_off_c, 1, 74, 0
1, 27528, Note_off_c, 1, 46, 0
1, 27540, Note_on_c, 1, 63, 127
1, 27540, Note_on_c, 1, 48, 127
1, 27588, Note_off_c, 1, 63, 0
1, 27588, Note_off_c, 1, 48, 0
1, 27600, Note_on_c, 1, 62, 127
1, 27600, Note_on_c, 1, 46, 127
1, 27648, Note_off_c, 1, 62, 0
1, 27648, Note_off_c, 1, 46, 0
1, 27660, Note_on_c, 1, 60, 127
1, 27660, Note_on_c, 1, 45, 127
1, 27708, Note_off_c, 1, 45, 0
1, 27720, Note_on_c, 1, 50, 127
1, 27768, Note_off_c, 1, 50, 0
1, 27780, Note_on_c, 1, 52, 127
1, 27828, Note_off_c, 1, 60, 0
1, 27828, Note_off_c, 1, 52, 0
1, 27840, Note_on_c, 1, 69, 127
1, 27840, Note_on_c, 1, 54, 127
1, 27888, Note_off_c, 1, 69, 0
1, 27888, Note_off_c, 1, 54, 0
1, 27900, Note_on_c, 1, 70, 127
1, 27900, Note_on_c, 1, 55, 127
1, 27948, Note_off_c, 1, 70, 0
1, 27948, Note_off_c, 1, 55, 0
1, 27960, Note_on_c, 1, 72, 127
1, 27960, Note_on_c, 1, 57, 127
1, 28008, Note_off_c, 1, 72, 0
1, 28008, Note_off_c, 1, 57, 0
1, 28020, Note_on_c, 1, 66, 127
1, 28020, Note_on_c, 1, 50, 127
1, 28068, Note_off_c, 1, 66, 0
1, 28080, Note_on_c, 1, 74, 127
1, 28128, Note_off_c, 1, 74, 0
1, 28140, Note_on_c, 1, 69, 127
1, 28188, Note_off_c, 1, 69, 0
1, 28260, Note_on_c, 1, 62, 127
1, 28308, Note_off_c, 1, 50, 0
1, 28308, Note_off_c, 1, 62, 0
1, 28320, Note_on_c, 1, 61, 127
1, 28320, Note_on_c, 1, 55, 127
1, 28368, Note_off_c, 1, 61, 0
1, 28368, Note_off_c, 1, 55, 0
1, 28380, Note_on_c, 1, 62, 127
1, 28380, Note_on_c, 1, 54, 127
1, 28428, Note_off_c, 1, 62, 0
1, 28428, Note_off_c, 1, 54, 0
1, 28440, Note_on_c, 1, 64, 127
1, 28440, Note_on_c, 1, 55, 127
1, 28488, Note_off_c, 1, 64, 0
1, 28488, Note_off_c, 1, 55, 0
1, 28500, Note_on_c, 1, 66, 127
1, 28500, Note_on_c, 1, 48, 127
1, 28548, Note_off_c, 1, 66, 0
1, 28560, Note_on_c, 1, 64, 127
1, 28596, Note_off_c, 1, 48, 0
1, 28608, Note_off_c, 1, 64, 0
1, 28620, Note_on_c, 1, 62, 127
1, 28620, Note_on_c, 1, 46, 127
1, 28668, Note_off_c, 1, 62, 0
1, 28680, Note_on_c, 1, 67, 127
1, 28716, Note_off_c, 1, 46, 0
1, 28728, Note_off_c, 1, 67, 0
1, 28740, Note_on_c, 1, 69, 127
1, 28740, Note_on_c, 1, 48, 127
1, 28788, Note_off_c, 1, 69, 0
1, 28800, Note_on_c, 1, 71, 127
1, 28836, Note_off_c, 1, 48, 0
1, 28848, Note_off_c, 1, 71, 0
1, 28860, Note_on_c, 1, 72, 127
1, 28860, Note_on_c, 1, 50, 127
1, 28908, Note_off_c, 1, 72, 0
1, 28920, Note_on_c, 1, 74, 127
1, 28956, Note_off_c, 1, 50, 0
1, 28968, Note_off_c, 1, 74, 0
1, 28980, Note_on_c, 1, 70, 127
1, 28980, Note_on_c, 1, 55, 127
1, 29028, Note_off_c, 1, 70, 0
1, 29028, Note_off_c, 1, 55, 0
1, 29040, Note_on_c, 1, 69, 127
1, 29040, Note_on_c, 1, 43, 127
1, 29088, Note_off_c, 1, 69, 0
1, 29088, Note_off_c, 1, 43, 0
1, 29100, Note_on_c, 1, 67, 127
1, 29100, Note_on_c, 1, 46, 127
1, 29148, Note_off_c, 1, 67, 0
1, 29148, Note_off_c, 1, 46, 0
1, 29160, Note_on_c, 1, 69, 127
1, 29160, Note_on_c, 1, 50, 127
1, 29208, Note_off_c, 1, 69, 0
1, 29208, Note_off_c, 1, 50, 0
1, 29220, Note_on_c, 1, 70, 127
1, 29220, Note_on_c, 1, 55, 127
1, 29268, Note_off_c, 1, 70, 0
1, 29268, Note_off_c, 1, 55, 0
1, 29280, Note_on_c, 1, 72, 127
1, 29280, Note_on_c, 1, 55, 127
1, 29328, Note_off_c, 1, 72, 0
1, 29328, Note_off_c, 1, 55, 0
1, 29340, Note_on_c, 1, 74, 127
1, 29340, Note_on_c, 1, 53, 127
1, 29388, Note_off_c, 1, 74, 0
1, 29388, Note_off_c, 1, 53, 0
1, 29400, Note_on_c, 1, 75, 127
1, 29400, Note_on_c, 1, 51, 127
1, 29448, Note_off_c, 1, 75, 0
1, 29448, Note_off_c, 1, 51, 0
1, 29460, Note_on_c, 1, 77, 127
1, 29460, Note_on_c, 1, 50, 127
1, 29508, Note_off_c, 1, 50, 0
1, 29520, Note_on_c, 1, 51, 127
1, 29556, Note_off_c, 1, 77, 0
1, 29568, Note_off_c, 1, 51, 0
1, 29580, Note_on_c, 1, 70, 127
1, 29580, Note_on_c, 1, 53, 127
1, 29628, Note_off_c, 1, 53, 0
1, 29640, Note_on_c, 1, 48, 127
1, 29676, Note_off_c, 1, 70, 0
1, 29688, Note_off_c, 1, 48, 0
1, 29700, Note_on_c, 1, 80, 127
1, 29700, Note_on_c, 1, 46, 127
1, 29712, Note_off_c, 1, 80, 0
1, 29715, Note_on_c, 1, 79, 127
1, 29727, Note_off_c, 1, 79, 0
1, 29748, Note_off_c, 1, 46, 0
1, 29760, Note_on_c, 1, 44, 127
1, 29808, Note_off_c, 1, 44, 0
1, 29820, Note_on_c, 1, 43, 127
1, 29868, Note_off_c, 1, 43, 0
1, 29880, Note_on_c, 1, 82, 127
1, 29880, Note_on_c, 1, 41, 127
1, 29928, Note_off_c, 1, 82, 0
1, 29928, Note_off_c, 1, 41, 0
1, 29940, Note_on_c, 1, 79, 127
1, 29940, Note_on_c, 1, 39, 127
1, 30000, Note_on_c, 1, 77, 127
1, 30048, Note_off_c, 1, 77, 0
1, 30060, Note_on_c, 1, 75, 127
1, 30108, Note_off_c, 1, 75, 0
1, 30120, Note_on_c, 1, 74, 127
1, 30132, Note_off_c, 1, 39, 0
1, 30168, Note_off_c, 1, 74, 0
1, 30180, Note_on_c, 1, 72, 127
1, 30180, Note_on_c, 1, 51, 127
1, 30228, Note_off_c, 1, 72, 0
1, 30324, Note_off_c, 1, 79, 0
1, 30360, Note_on_c, 1, 70, 127
1, 30408, Note_off_c, 1, 70, 0
1, 30420, Note_on_c, 1, 69, 127
1, 30468, Note_off_c, 1, 51, 0
1, 30480, Note_on_c, 1, 67, 127
1, 30528, Note_off_c, 1, 67, 0
1, 30540, Note_on_c, 1, 65, 127
1, 30588, Note_off_c, 1, 65, 0
1, 30600, Note_on_c, 1, 63, 127
1, 30612, Note_off_c, 1, 69, 0
1, 30648, Note_off_c, 1, 63, 0
1, 30660, Note_on_c, 1, 68, 127
1, 30660, Note_on_c, 1, 62, 127
1, 30708, Note_off_c, 1, 62, 0
1, 30840, Note_on_c, 1, 56, 127
1, 30888, Note_off_c, 1, 56, 0
1, 30900, Note_on_c, 1, 71, 127
1, 30900, Note_on_c, 1, 55, 127
1, 30948, Note_off_c, 1, 68, 0
1, 30948, Note_off_c, 1, 55, 0
1, 30960, Note_on_c, 1, 53, 127
1, 31008, Note_off_c, 1, 53, 0
1, 31080, Note_on_c, 1, 50, 127
1, 31092, Note_off_c, 1, 71, 0
1, 31128, Note_off_c, 1, 50, 0
1, 31140, Note_on_c, 1, 75, 127
1, 31140, Note_on_c, 1, 67, 127
1, 31140, Note_on_c, 1, 48, 127
1, 31152, Note_off_c, 1, 75, 0
1, 31155, Note_on_c, 1, 74, 127
1, 31167, Note_off_c, 1, 74, 0
1, 31188, Note_off_c, 1, 48, 0
1, 31200, Note_on_c, 1, 50, 127
1, 31248, Note_off_c, 1, 50, 0
1, 31260, Note_on_c, 1, 51, 127
1, 31308, Note_off_c, 1, 51, 0
1, 31320, Note_on_c, 1, 43, 127
1, 31332, Note_off_c, 1, 67, 0
1, 31368, Note_off_c, 1, 43, 0
1, 31380, Note_on_c, 1, 75, 127
1, 31380, Note_on_c, 1, 69, 127
1, 31380, Note_on_c, 1, 42, 127
1, 31428, Note_off_c, 1, 75, 0
1, 31440, Note_on_c, 1, 74, 127
1, 31476, Note_off_c, 1, 69, 0
1, 31476, Note_off_c, 1, 42, 0
1, 31488, Note_off_c, 1, 74, 0
1, 31500, Note_on_c, 1, 72, 127
1, 31500, Note_on_c, 1, 43, 127
1, 31548, Note_off_c, 1, 72, 0
1, 31560, Note_on_c, 1, 70, 127
1, 31596, Note_off_c, 1, 43, 0
1, 31608, Note_off_c, 1, 70, 0
1, 31620, Note_on_c, 1, 69, 127
1, 31620, Note_on_c, 1, 48, 127
1, 31668, Note_off_c, 1, 69, 0
1, 31680, Note_on_c, 1, 70, 127
1, 31716, Note_off_c, 1, 48, 0
1, 31728, Note_off_c, 1, 70, 0
1, 31740, Note_on_c, 1, 72, 127
1, 31740, Note_on_c, 1, 45, 127
1, 31788, Note_off_c, 1, 72, 0
1, 31800, Note_on_c, 1, 67, 127
1, 31836, Note_off_c, 1, 45, 0
1, 31848, Note_off_c, 1, 67, 0
1, 31860, Note_on_c, 1, 66, 127
1, 31860, Note_on_c, 1, 50, 127
1, 31908, Note_off_c, 1, 66, 0
1, 31920, Note_on_c, 1, 67, 127
1, 31956, Note_off_c, 1, 50, 0
1, 31968, Note_off_c, 1, 67, 0
1, 31980, Note_on_c, 1, 69, 127
1, 32040, Note_on_c, 1, 63, 127
1, 32076, Note_off_c, 1, 69, 0
1, 32088, Note_off_c, 1, 63, 0
1, 32100, Note_on_c, 1, 69, 127
1, 32100, Note_on_c, 1, 62, 127
1, 32112, Note_off_c, 1, 69, 0
1, 32115, Note_on_c, 1, 68, 127
1, 32127, Note_off_c, 1, 68, 0
1, 32148, Note_off_c, 1, 62, 0
1, 32160, Note_on_c, 1, 60, 127
1, 32208, Note_off_c, 1, 60, 0
1, 32220, Note_on_c, 1, 58, 127
1, 32268, Note_off_c, 1, 58, 0
1, 32280, Note_on_c, 1, 69, 127
1, 32280, Note_on_c, 1, 57, 127
1, 32328, Note_off_c, 1, 69, 0
1, 32328, Note_off_c, 1, 57, 0
1, 32340, Note_on_c, 1, 69, 127
1, 32340, Note_on_c, 1, 58, 127
1, 32388, Note_off_c, 1, 69, 0
1, 32388, Note_off_c, 1, 58, 0
1, 32400, Note_on_c, 1, 67, 127
1, 32400, Note_on_c, 1, 60, 127
1, 32448, Note_off_c, 1, 67, 0
1, 32448, Note_off_c, 1, 60, 0
1, 32460, Note_on_c, 1, 66, 127
1, 32460, Note_on_c, 1, 62, 127
1, 32508, Note_off_c, 1, 66, 0
1, 32508, Note_off_c, 1, 62, 0
1, 32520, Note_on_c, 1, 67, 127
1, 32520, Note_on_c, 1, 58, 127
1, 32568, Note_off_c, 1, 67, 0
1, 32568, Note_off_c, 1, 58, 0
1, 32580, Note_on_c, 1, 72, 127
1, 32580, Note_on_c, 1, 57, 127
1, 32628, Note_off_c, 1, 57, 0
1, 32640, Note_on_c, 1, 70, 127
1, 32640, Note_on_c, 1, 55, 127
1, 32688, Note_off_c, 1, 70, 0
1, 32688, Note_off_c, 1, 55, 0
1, 32700, Note_on_c, 1, 69, 127
1, 32700, Note_on_c, 1, 54, 127
1, 32724, Note_off_c, 1, 72, 0
1, 32748, Note_off_c, 1, 69, 0
1, 32748, Note_off_c, 1, 54, 0
1, 32760, Note_on_c, 1, 72, 127
1, 32760, Note_on_c, 1, 67, 127
1, 32760, Note_on_c, 1, 52, 127
1, 32808, Note_off_c, 1, 72, 0
1, 32808, Note_off_c, 1, 67, 0
1, 32808, Note_off_c, 1, 52, 0
1, 32820, Note_on_c, 1, 72, 127
1, 32820, Note_on_c, 1, 69, 127
1, 32820, Note_on_c, 1, 54, 127
1, 32868, Note_off_c, 1, 54, 0
1, 32880, Note_on_c, 1, 55, 127
1, 32928, Note_off_c, 1, 55, 0
1, 32940, Note_on_c, 1, 57, 127
1, 32988, Note_off_c, 1, 57, 0
1, 33000, Note_on_c, 1, 51, 127
1, 33012, Note_off_c, 1, 72, 0
1, 33012, Note_off_c, 1, 69, 0
1, 33048, Note_off_c, 1, 51, 0
1, 33060, Note_on_c, 1, 50, 127
1, 33108, Note_off_c, 1, 50, 0
1, 33120, Note_on_c, 1, 48, 127
1, 33168, Note_off_c, 1, 48, 0
1, 33180, Note_on_c, 1, 66, 127
1, 33180, Note_on_c, 1, 46, 127
1, 33228, Note_off_c, 1, 46, 0
1, 33240, Note_on_c, 1, 45, 127
1, 33276, Note_off_c, 1, 66, 0
1, 33288, Note_off_c, 1, 45, 0
1, 33300, Note_on_c, 1, 67, 127
1, 33300, Note_on_c, 1, 46, 127
1, 33360, Note_on_c, 1, 69, 127
1, 33396, Note_off_c, 1, 46, 0
1, 33408, Note_off_c, 1, 69, 0
1, 33420, Note_on_c, 1, 70, 127
1, 33420, Note_on_c, 1, 48, 127
1, 33468, Note_off_c, 1, 70, 0
1, 33480, Note_on_c, 1, 75, 127
1, 33492, Note_off_c, 1, 67, 0
1, 33516, Note_off_c, 1, 48, 0
1, 33528, Note_off_c, 1, 75, 0
1, 33540, Note_on_c, 1, 70, 127
1, 33540, Note_on_c, 1, 66, 127
1, 33540, Note_on_c, 1, 50, 127
1, 33552, Note_off_c, 1, 70, 0
1, 33555, Note_on_c, 1, 69, 127
1, 33567, Note_off_c, 1, 69, 0
1, 33636, Note_off_c, 1, 50, 0
1, 33660, Note_on_c, 1, 38, 127
1, 33720, Note_on_c, 1, 67, 127
1, 33732, Note_off_c, 1, 66, 0
1, 33756, Note_off_c, 1, 38, 0
1, 33768, Note_off_c, 1, 67, 0
1, 33780, Note_on_c, 1, 67, 127
1, 33780, Note_on_c, 1, 43, 127
1, 33840, Note_on_c, 1, 65, 127
1, 33888, Note_off_c, 1, 65, 0
1, 33900, Note_on_c, 1, 63, 127
1, 33948, Note_off_c, 1, 63, 0
1, 33960, Note_on_c, 1, 62, 127
1, 33972, Note_off_c, 1, 43, 0
1, 34008, Note_off_c, 1, 62, 0
1, 34020, Note_on_c, 1, 60, 127
1, 34200, Note_on_c, 1, 54, 127
1, 34212, Note_off_c, 1, 60, 0
1, 34248, Note_off_c, 1, 54, 0
1, 34260, Note_on_c, 1, 58, 127
1, 34260, Note_on_c, 1, 55, 127
1, 34320, Note_on_c, 1, 46, 127
1, 34368, Note_off_c, 1, 46, 0
1, 34380, Note_on_c, 1, 48, 127
1, 34428, Note_off_c, 1, 48, 0
1, 34440, Note_on_c, 1, 50, 127
1, 34488, Note_off_c, 1, 50, 0
1, 34548, Note_off_c, 1, 67, 0
1, 34548, Note_off_c, 1, 58, 0
1, 34548, Note_off_c, 1, 55, 0
1, 34740, Note_on_c, 1, 69, 127
1, 34788, Note_off_c, 1, 69, 0
1, 34800, Note_on_c, 1, 69, 127
1, 34800, Note_on_c, 1, 50, 127
1, 34848, Note_off_c, 1, 69, 0
1, 34860, Note_on_c, 1, 81, 127
1, 34908, Note_off_c, 1, 81, 0
1, 34920, Note_on_c, 1, 78, 127
1, 34968, Note_off_c, 1, 78, 0
1, 34980, Note_on_c, 1, 74, 127
1, 35028, Note_off_c, 1, 74, 0
1, 35088, Note_off_c, 1, 50, 0
1, 35100, Note_on_c, 1, 66, 127
1, 35100, Note_on_c, 1, 57, 127
1, 35148, Note_off_c, 1, 66, 0
1, 35148, Note_off_c, 1, 57, 0
1, 35160, Note_on_c, 1, 67, 127
1, 35160, Note_on_c, 1, 58, 127
1, 35208, Note_off_c, 1, 67, 0
1, 35208, Note_off_c, 1, 58, 0
1, 35220, Note_on_c, 1, 69, 127
1, 35220, Note_on_c, 1, 60, 127
1, 35268, Note_off_c, 1, 69, 0
1, 35268, Note_off_c, 1, 60, 0
1, 35280, Note_on_c, 1, 71, 127
1, 35280, Note_on_c, 1, 53, 127
1, 35328, Note_off_c, 1, 71, 0
1, 35340, Note_on_c, 1, 69, 127
1, 35376, Note_off_c, 1, 53, 0
1, 35388, Note_off_c, 1, 69, 0
1, 35400, Note_on_c, 1, 67, 127
1, 35400, Note_on_c, 1, 51, 127
1, 35400, Note_on_c, 1, 60, 127
1, 35448, Note_off_c, 1, 67, 0
1, 35460, Note_on_c, 1, 72, 127
1, 35496, Note_off_c, 1, 51, 0
1, 35508, Note_off_c, 1, 72, 0
1, 35520, Note_on_c, 1, 74, 127
1, 35520, Note_on_c, 1, 53, 127
1, 35568, Note_off_c, 1, 74, 0
1, 35580, Note_on_c, 1, 75, 127
1, 35592, Note_off_c, 1, 60, 0
1, 35616, Note_off_c, 1, 53, 0
1, 35628, Note_off_c, 1, 75, 0
1, 35640, Note_on_c, 1, 77, 127
1, 35640, Note_on_c, 1, 55, 127
1, 35640, Note_on_c, 1, 59, 127
1, 35688, Note_off_c, 1, 77, 0
1, 35700, Note_on_c, 1, 79, 127
1, 35736, Note_off_c, 1, 55, 0
1, 35736, Note_off_c, 1, 59, 0
1, 35748, Note_off_c, 1, 79, 0
1, 35760, Note_on_c, 1, 75, 127
1, 35760, Note_on_c, 1, 48, 127
1, 35772, Note_off_c, 1, 75, 0
1, 35775, Note_on_c, 1, 77, 127
1, 35787, Note_off_c, 1, 77, 0
1, 35808, Note_off_c, 1, 48, 0
1, 35820, Note_on_c, 1, 60, 127
1, 35880, Note_on_c, 1, 74, 127
1, 35880, Note_on_c, 1, 55, 127
1, 35916, Note_off_c, 1, 60, 0
1, 35928, Note_off_c, 1, 74, 0
1, 35928, Note_off_c, 1, 55, 0
1, 35940, Note_on_c, 1, 72, 127
1, 35940, Note_on_c, 1, 51, 127
1, 35988, Note_off_c, 1, 72, 0
1, 35988, Note_off_c, 1, 51, 0
1, 36000, Note_on_c, 1, 79, 127
1, 36000, Note_on_c, 1, 48, 127
1, 36012, Note_off_c, 1, 79, 0
1, 36015, Note_on_c, 1, 78, 127
1, 36027, Note_off_c, 1, 78, 0
1, 36048, Note_off_c, 1, 48, 0
1, 36060, Note_on_c, 1, 47, 127
1, 36108, Note_off_c, 1, 47, 0
1, 36180, Note_on_c, 1, 79, 127
1, 36180, Note_on_c, 1, 50, 127
1, 36228, Note_off_c, 1, 79, 0
1, 36228, Note_off_c, 1, 50, 0
1, 36240, Note_on_c, 1, 79, 127
1, 36240, Note_on_c, 1, 52, 127
1, 36288, Note_off_c, 1, 79, 0
1, 36288, Note_off_c, 1, 52, 0
1, 36300, Note_on_c, 1, 70, 127
1, 36300, Note_on_c, 1, 50, 127
1, 36348, Note_off_c, 1, 70, 0
1, 36348, Note_off_c, 1, 50, 0
1, 36360, Note_on_c, 1, 69, 127
1, 36360, Note_on_c, 1, 48, 127
1, 36408, Note_off_c, 1, 69, 0
1, 36408, Note_off_c, 1, 48, 0
1, 36420, Note_on_c, 1, 72, 127
1, 36420, Note_on_c, 1, 53, 127
1, 36468, Note_off_c, 1, 72, 0
1, 36468, Note_off_c, 1, 53, 0
1, 36480, Note_on_c, 1, 70, 127
1, 36480, Note_on_c, 1, 55, 127
1, 36528, Note_off_c, 1, 70, 0
1, 36528, Note_off_c, 1, 55, 0
1, 36540, Note_on_c, 1, 69, 127
1, 36540, Note_on_c, 1, 57, 127
1, 36588, Note_off_c, 1, 69, 0
1, 36588, Note_off_c, 1, 57, 0
1, 36600, Note_on_c, 1, 67, 127
1, 36600, Note_on_c, 1, 58, 127
1, 36648, Note_off_c, 1, 67, 0
1, 36648, Note_off_c, 1, 58, 0
1, 36660, Note_on_c, 1, 76, 127
1, 36660, Note_on_c, 1, 60, 127
1, 36708, Note_off_c, 1, 76, 0
1, 36708, Note_off_c, 1, 60, 0
1, 36720, Note_on_c, 1, 77, 127
1, 36720, Note_on_c, 1, 57, 127
1, 36768, Note_off_c, 1, 57, 0
1, 36780, Note_on_c, 1, 55, 127
1, 36828, Note_off_c, 1, 55, 0
1, 36840, Note_on_c, 1, 53, 127
1, 36864, Note_off_c, 1, 77, 0
1, 36900, Note_on_c, 1, 75, 127
1, 36936, Note_off_c, 1, 53, 0
1, 36948, Note_off_c, 1, 75, 0
1, 36960, Note_on_c, 1, 74, 127
1, 36960, Note_on_c, 1, 58, 127
1, 37008, Note_off_c, 1, 74, 0
1, 37020, Note_on_c, 1, 72, 127
1, 37056, Note_off_c, 1, 58, 0
1, 37068, Note_off_c, 1, 72, 0
1, 37080, Note_on_c, 1, 70, 127
1, 37080, Note_on_c, 1, 50, 127
1, 37128, Note_off_c, 1, 70, 0
1, 37140, Note_on_c, 1, 69, 127
1, 37176, Note_off_c, 1, 50, 0
1, 37188, Note_off_c, 1, 69, 0
1, 37200, Note_on_c, 1, 67, 127
1, 37200, Note_on_c, 1, 51, 127
1, 37248, Note_off_c, 1, 67, 0
1, 37260, Note_on_c, 1, 65, 127
1, 37296, Note_off_c, 1, 51, 0
1, 37308, Note_off_c, 1, 65, 0
1, 37320, Note_on_c, 1, 67, 127
1, 37320, Note_on_c, 1, 39, 127
1, 37368, Note_off_c, 1, 67, 0
1, 37380, Note_on_c, 1, 70, 127
1, 37416, Note_off_c, 1, 39, 0
1, 37428, Note_off_c, 1, 70, 0
1, 37440, Note_on_c, 1, 72, 127
1, 37440, Note_on_c, 1, 51, 127
1, 37488, Note_off_c, 1, 72, 0
1, 37500, Note_on_c, 1, 74, 127
1, 37536, Note_off_c, 1, 51, 0
1, 37548, Note_off_c, 1, 74, 0
1, 37560, Note_on_c, 1, 75, 127
1, 37560, Note_on_c, 1, 48, 127
1, 37608, Note_off_c, 1, 75, 0
1, 37620, Note_on_c, 1, 72, 127
1, 37656, Note_off_c, 1, 48, 0
1, 37668, Note_off_c, 1, 72, 0
1, 37680, Note_on_c, 1, 70, 127
1, 37680, Note_on_c, 1, 53, 127
1, 37728, Note_off_c, 1, 70, 0
1, 37728, Note_off_c, 1, 53, 0
1, 37740, Note_on_c, 1, 69, 127
1, 37740, Note_on_c, 1, 41, 127
1, 37788, Note_off_c, 1, 69, 0
1, 37788, Note_off_c, 1, 41, 0
1, 37800, Note_on_c, 1, 67, 127
1, 37800, Note_on_c, 1, 45, 127
1, 37848, Note_off_c, 1, 67, 0
1, 37848, Note_off_c, 1, 45, 0
1, 37860, Note_on_c, 1, 65, 127
1, 37860, Note_on_c, 1, 48, 127
1, 37908, Note_off_c, 1, 65, 0
1, 37908, Note_off_c, 1, 48, 0
1, 37920, Note_on_c, 1, 77, 127
1, 37920, Note_on_c, 1, 51, 127
1, 37968, Note_off_c, 1, 51, 0
1, 37980, Note_on_c, 1, 55, 127
1, 38028, Note_off_c, 1, 55, 0
1, 38040, Note_on_c, 1, 53, 127
1, 38064, Note_off_c, 1, 77, 0
1, 38088, Note_off_c, 1, 53, 0
1, 38100, Note_on_c, 1, 69, 127
1, 38100, Note_on_c, 1, 51, 127
1, 38148, Note_off_c, 1, 69, 0
1, 38148, Note_off_c, 1, 51, 0
1, 38160, Note_on_c, 1, 70, 127
1, 38160, Note_on_c, 1, 50, 127
1, 38208, Note_off_c, 1, 70, 0
1, 38208, Note_off_c, 1, 50, 0
1, 38220, Note_on_c, 1, 75, 127
1, 38220, Note_on_c, 1, 48, 127
1, 38268, Note_off_c, 1, 75, 0
1, 38268, Note_off_c, 1, 48, 0
1, 38280, Note_on_c, 1, 74, 127
1, 38280, Note_on_c, 1, 46, 127
1, 38328, Note_off_c, 1, 74, 0
1, 38328, Note_off_c, 1, 46, 0
1, 38340, Note_on_c, 1, 72, 127
1, 38340, Note_on_c, 1, 51, 127
1, 38388, Note_off_c, 1, 72, 0
1, 38388, Note_off_c, 1, 51, 0
1, 38400, Note_on_c, 1, 74, 127
1, 38400, Note_on_c, 1, 69, 127
1, 38400, Note_on_c, 1, 53, 127
1, 38412, Note_off_c, 1, 74, 0
1, 38415, Note_on_c, 1, 72, 127
1, 38427, Note_off_c, 1, 72, 0
1, 38496, Note_off_c, 1, 53, 0
1, 38520, Note_on_c, 1, 41, 127
1, 38580, Note_on_c, 1, 70, 127
1, 38592, Note_off_c, 1, 69, 0
1, 38616, Note_off_c, 1, 41, 0
1, 38628, Note_off_c, 1, 70, 0
1, 38640, Note_on_c, 1, 70, 127
1, 38640, Note_on_c, 1, 46, 127
1, 38688, Note_off_c, 1, 46, 0
1, 38700, Note_on_c, 1, 58, 127
1, 38748, Note_off_c, 1, 58, 0
1, 38760, Note_on_c, 1, 53, 127
1, 38808, Note_off_c, 1, 53, 0
1, 38820, Note_on_c, 1, 50, 127
1, 38868, Note_off_c, 1, 50, 0
1, 38928, Note_off_c, 1, 70, 0
1, 38940, Note_on_c, 1, 74, 127
1, 38940, Note_on_c, 1, 43, 127
1, 38988, Note_off_c, 1, 74, 0
1, 38988, Note_off_c, 1, 43, 0
1, 39000, Note_on_c, 1, 72, 127
1, 39000, Note_on_c, 1, 45, 127
1, 39048, Note_off_c, 1, 72, 0
1, 39048, Note_off_c, 1, 45, 0
1, 39060, Note_on_c, 1, 74, 127
1, 39060, Note_on_c, 1, 46, 127
1, 39108, Note_off_c, 1, 74, 0
1, 39108, Note_off_c, 1, 46, 0
1, 39120, Note_on_c, 1, 63, 127
1, 39120, Note_on_c, 1, 48, 127
1, 39168, Note_off_c, 1, 63, 0
1, 39168, Note_off_c, 1, 48, 0
1, 39180, Note_on_c, 1, 62, 127
1, 39180, Note_on_c, 1, 46, 127
1, 39228, Note_off_c, 1, 62, 0
1, 39228, Note_off_c, 1, 46, 0
1, 39240, Note_on_c, 1, 60, 127
1, 39240, Note_on_c, 1, 45, 127
1, 39288, Note_off_c, 1, 45, 0
1, 39300, Note_on_c, 1, 50, 127
1, 39348, Note_off_c, 1, 50, 0
1, 39360, Note_on_c, 1, 52, 127
1, 39408, Note_off_c, 1, 60, 0
1, 39408, Note_off_c, 1, 52, 0
1, 39420, Note_on_c, 1, 69, 127
1, 39420, Note_on_c, 1, 54, 127
1, 39468, Note_off_c, 1, 69, 0
1, 39468, Note_off_c, 1, 54, 0
1, 39480, Note_on_c, 1, 70, 127
1, 39480, Note_on_c, 1, 55, 127
1, 39528, Note_off_c, 1, 70, 0
1, 39528, Note_off_c, 1, 55, 0
1, 39540, Note_on_c, 1, 72, 127
1, 39540, Note_on_c, 1, 57, 127
1, 39588, Note_off_c, 1, 72, 0
1, 39588, Note_off_c, 1, 57, 0
1, 39600, Note_on_c, 1, 66, 127
1, 39600, Note_on_c, 1, 50, 127
1, 39648, Note_off_c, 1, 66, 0
1, 39660, Note_on_c, 1, 74, 127
1, 39708, Note_off_c, 1, 74, 0
1, 39720, Note_on_c, 1, 69, 127
1, 39768, Note_off_c, 1, 69, 0
1, 39840, Note_on_c, 1, 62, 127
1, 39888, Note_off_c, 1, 50, 0
1, 39888, Note_off_c, 1, 62, 0
1, 39900, Note_on_c, 1, 61, 127
1, 39900, Note_on_c, 1, 55, 127
1, 39948, Note_off_c, 1, 61, 0
1, 39948, Note_off_c, 1, 55, 0
1, 39960, Note_on_c, 1, 62, 127
1, 39960, Note_on_c, 1, 54, 127
1, 40008, Note_off_c, 1, 62, 0
1, 40008, Note_off_c, 1, 54, 0
1, 40020, Note_on_c, 1, 64, 127
1, 40020, Note_on_c, 1, 55, 127
1, 40068, Note_off_c, 1, 64, 0
1, 40068, Note_off_c, 1, 55, 0
1, 40080, Note_on_c, 1, 66, 127
1, 40080, Note_on_c, 1, 48, 127
1, 40128, Note_off_c, 1, 66, 0
1, 40140, Note_on_c, 1, 64, 127
1, 40176, Note_off_c, 1, 48, 0
1, 40188, Note_off_c, 1, 64, 0
1, 40200, Note_on_c, 1, 62, 127
1, 40200, Note_on_c, 1, 46, 127
1, 40248, Note_off_c, 1, 62, 0
1, 40260, Note_on_c, 1, 67, 127
1, 40296, Note_off_c, 1, 46, 0
1, 40308, Note_off_c, 1, 67, 0
1, 40320, Note_on_c, 1, 69, 127
1, 40320, Note_on_c, 1, 48, 127
1, 40368, Note_off_c, 1, 69, 0
1, 40380, Note_on_c, 1, 71, 127
1, 40416, Note_off_c, 1, 48, 0
1, 40428, Note_off_c, 1, 71, 0
1, 40440, Note_on_c, 1, 72, 127
1, 40440, Note_on_c, 1, 50, 127
1, 40488, Note_off_c, 1, 72, 0
1, 40500, Note_on_c, 1, 74, 127
1, 40536, Note_off_c, 1, 50, 0
1, 40548, Note_off_c, 1, 74, 0
1, 40560, Note_on_c, 1, 70, 127
1, 40560, Note_on_c, 1, 55, 127
1, 40608, Note_off_c, 1, 70, 0
1, 40608, Note_off_c, 1, 55, 0
1, 40620, Note_on_c, 1, 69, 127
1, 40620, Note_on_c, 1, 43, 127
1, 40668, Note_off_c, 1, 69, 0
1, 40668, Note_off_c, 1, 43, 0
1, 40680, Note_on_c, 1, 67, 127
1, 40680, Note_on_c, 1, 46, 127
1, 40728, Note_off_c, 1, 67, 0
1, 40728, Note_off_c, 1, 46, 0
1, 40740, Note_on_c, 1, 69, 127
1, 40740, Note_on_c, 1, 50, 127
1, 40788, Note_off_c, 1, 69, 0
1, 40788, Note_off_c, 1, 50, 0
1, 40800, Note_on_c, 1, 70, 127
1, 40800, Note_on_c, 1, 55, 127
1, 40848, Note_off_c, 1, 70, 0
1, 40848, Note_off_c, 1, 55, 0
1, 40860, Note_on_c, 1, 72, 127
1, 40860, Note_on_c, 1, 55, 127
1, 40908, Note_off_c, 1, 72, 0
1, 40908, Note_off_c, 1, 55, 0
1, 40920, Note_on_c, 1, 74, 127
1, 40920, Note_on_c, 1, 53, 127
1, 40968, Note_off_c, 1, 74, 0
1, 40968, Note_off_c, 1, 53, 0
1, 40980, Note_on_c, 1, 75, 127
1, 40980, Note_on_c, 1, 51, 127
1, 41028, Note_off_c, 1, 75, 0
1, 41028, Note_off_c, 1, 51, 0
1, 41040, Note_on_c, 1, 77, 127
1, 41040, Note_on_c, 1, 50, 127
1, 41088, Note_off_c, 1, 50, 0
1, 41100, Note_on_c, 1, 51, 127
1, 41136, Note_off_c, 1, 77, 0
1, 41148, Note_off_c, 1, 51, 0
1, 41160, Note_on_c, 1, 70, 127
1, 41160, Note_on_c, 1, 53, 127
1, 41208, Note_off_c, 1, 53, 0
1, 41220, Note_on_c, 1, 48, 127
1, 41256, Note_off_c, 1, 70, 0
1, 41268, Note_off_c, 1, 48, 0
1, 41280, Note_on_c, 1, 80, 127
1, 41280, Note_on_c, 1, 46, 127
1, 41292, Note_off_c, 1, 80, 0
1, 41295, Note_on_c, 1, 79, 127
1, 41307, Note_off_c, 1, 79, 0
1, 41328, Note_off_c, 1, 46, 0
1, 41340, Note_on_c, 1, 44, 127
1, 41388, Note_off_c, 1, 44, 0
1, 41400, Note_on_c, 1, 43, 127
1, 41448, Note_off_c, 1, 43, 0
1, 41460, Note_on_c, 1, 82, 127
1, 41460, Note_on_c, 1, 41, 127
1, 41508, Note_off_c, 1, 82, 0
1, 41508, Note_off_c, 1, 41, 0
1, 41520, Note_on_c, 1, 79, 127
1, 41520, Note_on_c, 1, 39, 127
1, 41580, Note_on_c, 1, 77, 127
1, 41628, Note_off_c, 1, 77, 0
1, 41640, Note_on_c, 1, 75, 127
1, 41688, Note_off_c, 1, 75, 0
1, 41700, Note_on_c, 1, 74, 127
1, 41712, Note_off_c, 1, 39, 0
1, 41748, Note_off_c, 1, 74, 0
1, 41760, Note_on_c, 1, 72, 127
1, 41760, Note_on_c, 1, 51, 127
1, 41808, Note_off_c, 1, 72, 0
1, 41904, Note_off_c, 1, 79, 0
1, 41940, Note_on_c, 1, 70, 127
1, 41988, Note_off_c, 1, 70, 0
1, 42000, Note_on_c, 1, 69, 127
1, 42048, Note_off_c, 1, 51, 0
1, 42060, Note_on_c, 1, 67, 127
1, 42108, Note_off_c, 1, 67, 0
1, 42120, Note_on_c, 1, 65, 127
1, 42168, Note_off_c, 1, 65, 0
1, 42180, Note_on_c, 1, 63, 127
1, 42192, Note_off_c, 1, 69, 0
1, 42228, Note_off_c, 1, 63, 0
1, 42240, Note_on_c, 1, 68, 127
1, 42240, Note_on_c, 1, 62, 127
1, 42288, Note_off_c, 1, 62, 0
1, 42420, Note_on_c, 1, 56, 127
1, 42468, Note_off_c, 1, 56, 0
1, 42480, Note_on_c, 1, 71, 127
1, 42480, Note_on_c, 1, 55, 127
1, 42528, Note_off_c, 1, 68, 0
1, 42528, Note_off_c, 1, 55, 0
1, 42540, Note_on_c, 1, 53, 127
1, 42588, Note_off_c, 1, 53, 0
1, 42660, Note_on_c, 1, 50, 127
1, 42672, Note_off_c, 1, 71, 0
1, 42708, Note_off_c, 1, 50, 0
1, 42720, Note_on_c, 1, 75, 127
1, 42720, Note_on_c, 1, 67, 127
1, 42720, Note_on_c, 1, 48, 127
1, 42732, Note_off_c, 1, 75, 0
1, 42735, Note_on_c, 1, 74, 127
1, 42747, Note_off_c, 1, 74, 0
1, 42768, Note_off_c, 1, 48, 0
1, 42780, Note_on_c, 1, 50, 127
1, 42828, Note_off_c, 1, 50, 0
1, 42840, Note_on_c, 1, 51, 127
1, 42888, Note_off_c, 1, 51, 0
1, 42900, Note_on_c, 1, 43, 127
1, 42912, Note_off_c, 1, 67, 0
1, 42948, Note_off_c, 1, 43, 0
1, 42960, Note_on_c, 1, 75, 127
1, 42960, Note_on_c, 1, 69, 127
1, 42960, Note_on_c, 1, 42, 127
1, 43008, Note_off_c, 1, 75, 0
1, 43020, Note_on_c, 1, 74, 127
1, 43056, Note_off_c, 1, 69, 0
1, 43056, Note_off_c, 1, 42, 0
1, 43068, Note_off_c, 1, 74, 0
1, 43080, Note_on_c, 1, 72, 127
1, 43080, Note_on_c, 1, 43, 127
1, 43128, Note_off_c, 1, 72, 0
1, 43140, Note_on_c, 1, 70, 127
1, 43176, Note_off_c, 1, 43, 0
1, 43188, Note_off_c, 1, 70, 0
1, 43200, Note_on_c, 1, 69, 127
1, 43200, Note_on_c, 1, 48, 127
1, 43248, Note_off_c, 1, 69, 0
1, 43260, Note_on_c, 1, 70, 127
1, 43296, Note_off_c, 1, 48, 0
1, 43308, Note_off_c, 1, 70, 0
1, 43320, Note_on_c, 1, 72, 127
1, 43320, Note_on_c, 1, 45, 127
1, 43368, Note_off_c, 1, 72, 0
1, 43380, Note_on_c, 1, 67, 127
1, 43416, Note_off_c, 1, 45, 0
1, 43428, Note_off_c, 1, 67, 0
1, 43440, Note_on_c, 1, 66, 127
1, 43440, Note_on_c, 1, 50, 127
1, 43488, Note_off_c, 1, 66, 0
1, 43500, Note_on_c, 1, 67, 127
1, 43536, Note_off_c, 1, 50, 0
1, 43548, Note_off_c, 1, 67, 0
1, 43560, Note_on_c, 1, 69, 127
1, 43620, Note_on_c, 1, 63, 127
1, 43656, Note_off_c, 1, 69, 0
1, 43668, Note_off_c, 1, 63, 0
1, 43680, Note_on_c, 1, 69, 127
1, 43680, Note_on_c, 1, 62, 127
1, 43692, Note_off_c, 1, 69, 0
1, 43695, Note_on_c, 1, 68, 127
1, 43707, Note_off_c, 1, 68, 0
1, 43728, Note_off_c, 1, 62, 0
1, 43740, Note_on_c, 1, 60, 127
1, 43788, Note_off_c, 1, 60, 0
1, 43800, Note_on_c, 1, 58, 127
1, 43848, Note_off_c, 1, 58, 0
1, 43860, Note_on_c, 1, 69, 127
1, 43860, Note_on_c, 1, 57, 127
1, 43908, Note_off_c, 1, 69, 0
1, 43908, Note_off_c, 1, 57, 0
1, 43920, Note_on_c, 1, 69, 127
1, 43920, Note_on_c, 1, 58, 127
1, 43968, Note_off_c, 1, 69, 0
1, 43968, Note_off_c, 1, 58, 0
1, 43980, Note_on_c, 1, 67, 127
1, 43980, Note_on_c, 1, 60, 127
1, 44028, Note_off_c, 1, 67, 0
1, 44028, Note_off_c, 1, 60, 0
1, 44040, Note_on_c, 1, 66, 127
1, 44040, Note_on_c, 1, 62, 127
1, 44088, Note_off_c, 1, 66, 0
1, 44088, Note_off_c, 1, 62, 0
1, 44100, Note_on_c, 1, 67, 127
1, 44100, Note_on_c, 1, 58, 127
1, 44148, Note_off_c, 1, 67, 0
1, 44148, Note_off_c, 1, 58, 0
1, 44160, Note_on_c, 1, 72, 127
1, 44160, Note_on_c, 1, 57, 127
1, 44208, Note_off_c, 1, 57, 0
1, 44220, Note_on_c, 1, 70, 127
1, 44220, Note_on_c, 1, 55, 127
1, 44268, Note_off_c, 1, 70, 0
1, 44268, Note_off_c, 1, 55, 0
1, 44280, Note_on_c, 1, 69, 127
1, 44280, Note_on_c, 1, 54, 127
1, 44304, Note_off_c, 1, 72, 0
1, 44328, Note_off_c, 1, 69, 0
1, 44328, Note_off_c, 1, 54, 0
1, 44340, Note_on_c, 1, 72, 127
1, 44340, Note_on_c, 1, 67, 127
1, 44340, Note_on_c, 1, 52, 127
1, 44388, Note_off_c, 1, 72, 0
1, 44388, Note_off_c, 1, 67, 0
1, 44388, Note_off_c, 1, 52, 0
1, 44400, Note_on_c, 1, 72, 127
1, 44400, Note_on_c, 1, 69, 127
1, 44400, Note_on_c, 1, 54, 127
1, 44448, Note_off_c, 1, 54, 0
1, 44460, Note_on_c, 1, 55, 127
1, 44508, Note_off_c, 1, 55, 0
1, 44520, Note_on_c, 1, 57, 127
1, 44568, Note_off_c, 1, 57, 0
1, 44580, Note_on_c, 1, 51, 127
1, 44592, Note_off_c, 1, 72, 0
1, 44592, Note_off_c, 1, 69, 0
1, 44628, Note_off_c, 1, 51, 0
1, 44640, Note_on_c, 1, 50, 127
1, 44688, Note_off_c, 1, 50, 0
1, 44700, Note_on_c, 1, 48, 127
1, 44748, Note_off_c, 1, 48, 0
1, 44760, Note_on_c, 1, 66, 127
1, 44760, Note_on_c, 1, 46, 127
1, 44808, Note_off_c, 1, 46, 0
1, 44820, Note_on_c, 1, 45, 127
1, 44856, Note_off_c, 1, 66, 0
1, 44868, Note_off_c, 1, 45, 0
1, 44880, Note_on_c, 1, 67, 127
1, 44880, Note_on_c, 1, 46, 127
1, 44940, Note_on_c, 1, 69, 127
1, 44976, Note_off_c, 1, 46, 0
1, 44988, Note_off_c, 1, 69, 0
1, 45000, Note_on_c, 1, 70, 127
1, 45000, Note_on_c, 1, 48, 127
1, 45048, Note_off_c, 1, 70, 0
1, 45060, Note_on_c, 1, 75, 127
1, 45072, Note_off_c, 1, 67, 0
1, 45096, Note_off_c, 1, 48, 0
1, 45108, Note_off_c, 1, 75, 0
1, 45120, Note_on_c, 1, 70, 127
1, 45120, Note_on_c, 1, 66, 127
1, 45120, Note_on_c, 1, 50, 127
1, 45132, Note_off_c, 1, 70, 0
1, 45135, Note_on_c, 1, 69, 127
1, 45147, Note_off_c, 1, 69, 0
1, 45216, Note_off_c, 1, 50, 0
1, 45240, Note_on_c, 1, 38, 127
1, 45300, Note_on_c, 1, 67, 127
1, 45312, Note_off_c, 1, 66, 0
1, 45336, Note_off_c, 1, 38, 0
1, 45348, Note_off_c, 1, 67, 0
1, 45360, Note_on_c, 1, 67, 127
1, 45360, Note_on_c, 1, 43, 127
1, 45420, Note_on_c, 1, 65, 127
1, 45468, Note_off_c, 1, 65, 0
1, 45480, Note_on_c, 1, 63, 127
1, 45528, Note_off_c, 1, 63, 0
1, 45540, Note_on_c, 1, 62, 127
1, 45552, Note_off_c, 1, 43, 0
1, 45588, Note_off_c, 1, 62, 0
1, 45600, Note_on_c, 1, 60, 127
1, 45780, Note_on_c, 1, 54, 127
1, 45792, Note_off_c, 1, 60, 0
1, 45828, Note_off_c, 1, 54, 0
1, 45840, Note_on_c, 1, 58, 127
1, 45840, Note_on_c, 1, 55, 127
1, 45900, Note_on_c, 1, 46, 127
1, 45948, Note_off_c, 1, 46, 0
1, 45960, Note_on_c, 1, 48, 127
1, 46008, Note_off_c, 1, 48, 0
1, 46020, Note_on_c, 1, 50, 127
1, 46068, Note_off_c, 1, 50, 0
1, 46128, Note_off_c, 1, 67, 0
1, 46128, Note_off_c, 1, 58, 0
1, 46128, Note_off_c, 1, 55, 0
1, 46128, End_track
0, 0, End_of_file