0, 0, Header, 1, 1, 480
1, 0, Start_track
1, 0, Title_t, "Test"
1, 0, Tempo, 500000
1, 0, Instrument_name_t, "Church Organ"
1, 768, Note_on_c, 1, 57, 127
1, 1528, Note_off_c, 1, 57, 0
1, 1536, Note_on_c, 1, 60, 127
1, 2296, Note_off_c, 1, 60, 0
1, 2304, Note_on_c, 1, 52, 127
1, 3064, Note_off_c, 1, 52, 0
1, 3072, Note_on_c, 1, 53, 127
1, 3256, Note_off_c, 1, 53, 0
1, 3264, Note_on_c, 1, 52, 127
1, 3448, Note_off_c, 1, 52, 0
1, 3456, Note_on_c, 1, 50, 127
1, 4216, Note_off_c, 1, 50, 0
1, 4224, Note_on_c, 1, 52, 127
1, 4408, Note_off_c, 1, 52, 0
1, 4416, Note_on_c, 1, 54, 127
1, 4600, Note_off_c, 1, 54, 0
1, 4608, Note_on_c, 1, 55, 127
1, 4792, Note_off_c, 1, 55, 0
1, 4800, Note_on_c, 1, 57, 127
1, 4984, Note_off_c, 1, 57, 0
1, 4992, Note_on_c, 1, 58, 127
1, 5672, Note_off_c, 1, 58, 0
1, 5760, Note_on_c, 1, 57, 127
1, 5944, Note_off_c, 1, 57, 0
1, 5952, Note_on_c, 1, 56, 127
1, 6136, Note_off_c, 1, 56, 0
1, 6144, Note_on_c, 1, 57, 127
1, 6328, Note_off_c, 1, 57, 0
1, 6336, Note_on_c, 1, 52, 127
1, 6520, Note_off_c, 1, 52, 0
1, 6528, Note_on_c, 1, 57, 127
1, 6712, Note_off_c, 1, 57, 0
1, 6720, Note_on_c, 1, 59, 127
1, 6904, Note_off_c, 1, 59, 0
1, 6912, Note_on_c, 1, 57, 127
1, 7096, Note_off_c, 1, 57, 0
1, 7104, Note_on_c, 1, 52, 127
1, 7288, Note_off_c, 1, 52, 0
1, 7296, Note_on_c, 1, 57, 127
1, 7480, Note_off_c, 1, 57, 0
1, 7488, Note_on_c, 1, 60, 127
1, 7672, Note_off_c, 1, 60, 0
1, 7680, Note_on_c, 1, 59, 127
1, 7864, Note_off_c, 1, 59, 0
1, 7872, Note_on_c, 1, 52, 127
1, 8056, Note_off_c, 1, 52, 0
1, 8064, Note_on_c, 1, 59, 127
1, 8248, Note_off_c, 1, 59, 0
1, 8256, Note_on_c, 1, 60, 127
1, 8440, Note_off_c, 1, 60, 0
1, 8448, Note_on_c, 1, 59, 127
1, 8632, Note_off_c, 1, 59, 0
1, 8640, Note_on_c, 1, 52, 127
1, 8824, Note_off_c, 1, 52, 0
1, 8832, Note_on_c, 1, 59, 127
1, 9016, Note_off_c, 1, 59, 0
1, 9024, Note_on_c, 1, 62, 127
1, 9208, Note_off_c, 1, 62, 0
1, 9216, Note_on_c, 1, 60, 127
1, 9400, Note_off_c, 1, 60, 0
1, 9408, Note_on_c, 1, 52, 127
1, 9592, Note_off_c, 1, 52, 0
1, 9600, Note_on_c, 1, 60, 127
1, 9784, Note_off_c, 1, 60, 0
1, 9792, Note_on_c, 1, 62, 127
1, 9976, Note_off_c, 1, 62, 0
1, 9984, Note_on_c, 1, 60, 127
1, 10168, Note_off_c, 1, 60, 0
1, 10176, Note_on_c, 1, 52, 127
1, 10360, Note_off_c, 1, 52, 0
1, 10368, Note_on_c, 1, 60, 127
1, 10552, Note_off_c, 1, 60, 0
1, 10560, Note_on_c, 1, 64, 127
1, 10744, Note_off_c, 1, 64, 0
1, 10752, Note_on_c, 1, 59, 127
1, 10936, Note_off_c, 1, 59, 0
1, 10944, Note_on_c, 1, 52, 127
1, 11128, Note_off_c, 1, 52, 0
1, 11136, Note_on_c, 1, 59, 127
1, 11320, Note_off_c, 1, 59, 0
1, 11328, Note_on_c, 1, 60, 127
1, 11512, Note_off_c, 1, 60, 0
1, 11520, Note_on_c, 1, 59, 127
1, 11704, Note_off_c, 1, 59, 0
1, 11712, Note_on_c, 1, 52, 127
1, 11896, Note_off_c, 1, 52, 0
1, 11904, Note_on_c, 1, 59, 127
1, 12088, Note_off_c, 1, 59, 0
1, 12096, Note_on_c, 1, 62, 127
1, 12280, Note_off_c, 1, 62, 0
1, 12288, Note_on_c, 1, 60, 127
1, 12472, Note_off_c, 1, 60, 0
1, 12480, Note_on_c, 1, 59, 127
1, 12664, Note_off_c, 1, 59, 0
1, 12672, Note_on_c, 1, 57, 127
1, 13056, Note_on_c, 1, 76, 127
1, 13240, Note_off_c, 1, 57, 0
1, 13440, Note_on_c, 1, 56, 127
1, 13816, Note_off_c, 1, 76, 0
1, 13816, Note_off_c, 1, 56, 0
1, 13824, Note_on_c, 1, 77, 127
1, 13824, Note_on_c, 1, 57, 127
1, 14008, Note_off_c, 1, 57, 0
1, 14016, Note_on_c, 1, 60, 127
1, 14200, Note_off_c, 1, 60, 0
1, 14208, Note_on_c, 1, 59, 127
1, 14392, Note_off_c, 1, 59, 0
1, 14400, Note_on_c, 1, 62, 127
1, 14584, Note_off_c, 1, 77, 0
1, 14584, Note_off_c, 1, 62, 0
1, 14592, Note_on_c, 1, 69, 127
1, 14592, Note_on_c, 1, 60, 127
1, 14776, Note_off_c, 1, 60, 0
1, 14784, Note_on_c, 1, 59, 127
1, 14968, Note_off_c, 1, 59, 0
1, 15168, Note_on_c, 1, 57, 127
1, 15352, Note_off_c, 1, 69, 0
1, 15352, Note_off_c, 1, 57, 0
1, 15360, Note_on_c, 1, 72, 127
1, 15360, Note_on_c, 1, 52, 127
1, 15544, Note_off_c, 1, 72, 0
1, 15552, Note_on_c, 1, 71, 127
1, 15736, Note_off_c, 1, 52, 0
1, 15736, Note_off_c, 1, 71, 0
1, 15744, Note_on_c, 1, 69, 127
1, 15744, Note_on_c, 1, 54, 127
1, 16120, Note_off_c, 1, 54, 0
1, 16128, Note_on_c, 1, 55, 127
1, 16504, Note_off_c, 1, 69, 0
1, 16504, Note_off_c, 1, 55, 0
1, 16512, Note_on_c, 1, 71, 127
1, 16512, Note_on_c, 1, 54, 127
1, 16696, Note_off_c, 1, 71, 0
1, 16696, Note_off_c, 1, 54, 0
1, 16704, Note_on_c, 1, 72, 127
1, 16704, Note_on_c, 1, 52, 127
1, 16888, Note_off_c, 1, 72, 0
1, 16888, Note_off_c, 1, 52, 0
1, 16896, Note_on_c, 1, 74, 127
1, 16896, Note_on_c, 1, 54, 127
1, 17080, Note_off_c, 1, 74, 0
1, 17088, Note_on_c, 1, 76, 127
1, 17272, Note_off_c, 1, 54, 0
1, 17272, Note_off_c, 1, 76, 0
1, 17280, Note_on_c, 1, 77, 127
1, 17280, Note_on_c, 1, 56, 127
1, 17656, Note_off_c, 1, 56, 0
1, 17664, Note_on_c, 1, 57, 127
1, 18040, Note_off_c, 1, 77, 0
1, 18048, Note_on_c, 1, 76, 127
1, 18232, Note_off_c, 1, 76, 0
1, 18240, Note_on_c, 1, 75, 127
1, 18424, Note_off_c, 1, 75, 0
1, 18624, Note_on_c, 1, 71, 127
1, 18808, Note_off_c, 1, 57, 0
1, 18808, Note_off_c, 1, 71, 0
1, 18816, Note_on_c, 1, 76, 127
1, 18816, Note_on_c, 1, 55, 127
1, 19000, Note_off_c, 1, 76, 0
1, 19000, Note_off_c, 1, 55, 0
1, 19008, Note_on_c, 1, 78, 127
1, 19008, Note_on_c, 1, 54, 127
1, 19192, Note_off_c, 1, 78, 0
1, 19192, Note_off_c, 1, 54, 0
1, 19200, Note_on_c, 1, 76, 127
1, 19200, Note_on_c, 1, 55, 127
1, 19384, Note_off_c, 1, 76, 0
1, 19392, Note_on_c, 1, 71, 127
1, 19576, Note_off_c, 1, 55, 0
1, 19576, Note_off_c, 1, 71, 0
1, 19584, Note_on_c, 1, 76, 127
1, 19584, Note_on_c, 1, 52, 127
1, 19768, Note_off_c, 1, 76, 0
1, 19776, Note_on_c, 1, 79, 127
1, 19960, Note_off_c, 1, 79, 0
1, 19968, Note_on_c, 1, 78, 127
1, 20152, Note_off_c, 1, 78, 0
1, 20160, Note_on_c, 1, 71, 127
1, 20344, Note_off_c, 1, 52, 0
1, 20344, Note_off_c, 1, 71, 0
1, 20352, Note_on_c, 1, 78, 127
1, 20352, Note_on_c, 1, 51, 127
1, 20536, Note_off_c, 1, 78, 0
1, 20536, Note_off_c, 1, 51, 0
1, 20544, Note_on_c, 1, 79, 127
1, 20544, Note_on_c, 1, 49, 127
1, 20728, Note_off_c, 1, 79, 0
1, 20728, Note_off_c, 1, 49, 0
1, 20736, Note_on_c, 1, 78, 127
1, 20736, Note_on_c, 1, 52, 127
1, 20824, Note_off_c, 1, 52, 0
1, 20832, Note_on_c, 1, 51, 127
1, 20920, Note_off_c, 1, 78, 0
1, 20920, Note_off_c, 1, 51, 0
1, 20928, Note_on_c, 1, 71, 127
1, 20928, Note_on_c, 1, 52, 127
1, 21016, Note_off_c, 1, 52, 0
1, 21024, Note_on_c, 1, 51, 127
1, 21112, Note_off_c, 1, 71, 0
1, 21112, Note_off_c, 1, 51, 0
1, 21120, Note_on_c, 1, 78, 127
1, 21120, Note_on_c, 1, 52, 127
1, 21208, Note_off_c, 1, 52, 0
1, 21216, Note_on_c, 1, 51, 127
1, 21304, Note_off_c, 1, 78, 0
1, 21304, Note_off_c, 1, 51, 0
1, 21312, Note_on_c, 1, 81, 127
1, 21312, Note_on_c, 1, 49, 127
1, 21400, Note_off_c, 1, 49, 0
1, 21408, Note_on_c, 1, 51, 127
1, 21496, Note_off_c, 1, 81, 0
1, 21496, Note_off_c, 1, 51, 0
1, 21504, Note_on_c, 1, 79, 127
1, 21504, Note_on_c, 1, 52, 127
1, 21688, Note_off_c, 1, 79, 0
1, 21688, Note_off_c, 1, 52, 0
1, 21696, Note_on_c, 1, 71, 127
1, 21880, Note_off_c, 1, 71, 0
1, 21888, Note_on_c, 1, 79, 127
1, 21888, Note_on_c, 1, 59, 127
1, 22072, Note_off_c, 1, 79, 0
1, 22080, Note_on_c, 1, 81, 127
1, 22264, Note_off_c, 1, 59, 0
1, 22264, Note_off_c, 1, 81, 0
1, 22272, Note_on_c, 1, 79, 127
1, 22272, Note_on_c, 1, 64, 127
1, 22456, Note_off_c, 1, 79, 0
1, 22464, Note_on_c, 1, 71, 127
1, 22648, Note_off_c, 1, 71, 0
1, 22848, Note_on_c, 1, 83, 127
1, 23032, Note_off_c, 1, 83, 0
1, 23040, Note_on_c, 1, 78, 127
1, 23224, Note_off_c, 1, 78, 0
1, 23768, Note_off_c, 1, 64, 0
1, 23808, Note_on_c, 1, 78, 127
1, 23808, Note_on_c, 1, 64, 127
1, 23896, Note_off_c, 1, 64, 0
1, 23904, Note_on_c, 1, 63, 127
1, 23992, Note_off_c, 1, 78, 0
1, 23992, Note_off_c, 1, 63, 0
1, 24000, Note_on_c, 1, 71, 127
1, 24000, Note_on_c, 1, 64, 127
1, 24088, Note_off_c, 1, 64, 0
1, 24096, Note_on_c, 1, 63, 127
1, 24184, Note_off_c, 1, 71, 0
1, 24184, Note_off_c, 1, 63, 0
1, 24192, Note_on_c, 1, 78, 127
1, 24192, Note_on_c, 1, 64, 127
1, 24280, Note_off_c, 1, 64, 0
1, 24288, Note_on_c, 1, 63, 127
1, 24376, Note_off_c, 1, 78, 0
1, 24376, Note_off_c, 1, 63, 0
1, 24384, Note_on_c, 1, 81, 127
1, 24384, Note_on_c, 1, 61, 127
1, 24472, Note_off_c, 1, 61, 0
1, 24480, Note_on_c, 1, 63, 127
1, 24568, Note_off_c, 1, 81, 0
1, 24568, Note_off_c, 1, 63, 0
1, 24576, Note_on_c, 1, 79, 127
1, 24576, Note_on_c, 1, 64, 127
1, 24760, Note_off_c, 1, 79, 0
1, 24768, Note_on_c, 1, 78, 127
1, 24952, Note_off_c, 1, 64, 0
1, 24952, Note_off_c, 1, 78, 0
1, 24960, Note_on_c, 1, 76, 127
1, 24960, Note_on_c, 1, 52, 127
1, 25144, Note_off_c, 1, 52, 0
1, 25152, Note_on_c, 1, 54, 127
1, 25336, Note_off_c, 1, 54, 0
1, 25344, Note_on_c, 1, 55, 127
1, 25528, Note_off_c, 1, 76, 0
1, 25528, Note_off_c, 1, 55, 0
1, 25536, Note_on_c, 1, 57, 127
1, 25720, Note_off_c, 1, 57, 0
1, 25728, Note_on_c, 1, 74, 127
1, 25728, Note_on_c, 1, 58, 127
1, 25912, Note_off_c, 1, 74, 0
1, 25912, Note_off_c, 1, 58, 0
1, 25920, Note_on_c, 1, 55, 127
1, 26104, Note_off_c, 1, 55, 0
1, 26112, Note_on_c, 1, 73, 127
1, 26112, Note_on_c, 1, 52, 127
1, 26296, Note_off_c, 1, 73, 0
1, 26296, Note_off_c, 1, 52, 0
1, 26304, Note_on_c, 1, 53, 127
1, 26488, Note_off_c, 1, 53, 0
1, 26496, Note_on_c, 1, 82, 127
1, 26496, Note_on_c, 1, 55, 127
1, 26872, Note_off_c, 1, 82, 0
1, 26880, Note_on_c, 1, 81, 127
1, 26968, Note_off_c, 1, 81, 0
1, 27064, Note_off_c, 1, 55, 0
1, 27072, Note_on_c, 1, 81, 127
1, 27072, Note_on_c, 1, 53, 127
1, 27256, Note_off_c, 1, 81, 0
1, 27256, Note_off_c, 1, 53, 0
1, 27264, Note_on_c, 1, 79, 127
1, 27264, Note_on_c, 1, 52, 127
1, 27448, Note_off_c, 1, 79, 0
1, 27448, Note_off_c, 1, 52, 0
1, 27456, Note_on_c, 1, 50, 127
1, 27640, Note_off_c, 1, 50, 0
1, 27648, Note_on_c, 1, 70, 127
1, 27648, Note_on_c, 1, 49, 127
1, 27832, Note_off_c, 1, 70, 0
1, 27832, Note_off_c, 1, 49, 0
1, 27840, Note_on_c, 1, 50, 127
1, 28024, Note_off_c, 1, 50, 0
1, 28032, Note_on_c, 1, 79, 127
1, 28032, Note_on_c, 1, 52, 127
1, 28408, Note_off_c, 1, 79, 0
1, 28416, Note_on_c, 1, 77, 127
1, 28504, Note_off_c, 1, 77, 0
1, 28600, Note_off_c, 1, 52, 0
1, 28608, Note_on_c, 1, 77, 127
1, 28608, Note_on_c, 1, 50, 127
1, 28792, Note_off_c, 1, 77, 0
1, 28792, Note_off_c, 1, 50, 0
1, 28800, Note_on_c, 1, 76, 127
1, 28800, Note_on_c, 1, 49, 127
1, 28984, Note_off_c, 1, 76, 0
1, 28984, Note_off_c, 1, 49, 0
1, 28992, Note_on_c, 1, 47, 127
1, 29176, Note_off_c, 1, 47, 0
1, 29184, Note_on_c, 1, 67, 127
1, 29184, Note_on_c, 1, 49, 127
1, 29368, Note_off_c, 1, 67, 0
1, 29368, Note_off_c, 1, 49, 0
1, 29376, Note_on_c, 1, 45, 127
1, 29560, Note_off_c, 1, 45, 0
1, 29568, Note_on_c, 1, 76, 127
1, 29568, Note_on_c, 1, 49, 127
1, 29752, Note_off_c, 1, 49, 0
1, 29760, Note_on_c, 1, 50, 127
1, 29944, Note_off_c, 1, 76, 0
1, 29944, Note_off_c, 1, 50, 0
1, 29952, Note_on_c, 1, 74, 127
1, 29952, Note_on_c, 1, 52, 127
1, 30040, Note_off_c, 1, 74, 0
1, 30048, Note_on_c, 1, 76, 127
1, 30136, Note_off_c, 1, 52, 0
1, 30136, Note_off_c, 1, 76, 0
1, 30144, Note_on_c, 1, 74, 127
1, 30144, Note_on_c, 1, 53, 127
1, 30328, Note_off_c, 1, 74, 0
1, 30328, Note_off_c, 1, 53, 0
1, 30336, Note_on_c, 1, 73, 127
1, 30336, Note_on_c, 1, 55, 127
1, 30520, Note_off_c, 1, 73, 0
1, 30520, Note_off_c, 1, 55, 0
1, 30528, Note_on_c, 1, 52, 127
1, 30712, Note_off_c, 1, 52, 0
1, 30720, Note_on_c, 1, 74, 127
1, 30720, Note_on_c, 1, 53, 127
1, 30904, Note_off_c, 1, 74, 0
1, 30904, Note_off_c, 1, 53, 0
1, 30912, Note_on_c, 1, 67, 127
1, 30912, Note_on_c, 1, 52, 127
1, 31096, Note_off_c, 1, 67, 0
1, 31096, Note_off_c, 1, 52, 0
1, 31104, Note_on_c, 1, 65, 127
1, 31104, Note_on_c, 1, 50, 127
1, 31288, Note_off_c, 1, 65, 0
1, 31288, Note_off_c, 1, 50, 0
1, 31296, Note_on_c, 1, 64, 127
1, 31296, Note_on_c, 1, 52, 127
1, 31480, Note_off_c, 1, 64, 0
1, 31480, Note_off_c, 1, 52, 0
1, 31488, Note_on_c, 1, 62, 127
1, 31488, Note_on_c, 1, 53, 127
1, 31672, Note_off_c, 1, 62, 0
1, 31672, Note_off_c, 1, 53, 0
1, 31680, Note_on_c, 1, 55, 127
1, 31864, Note_off_c, 1, 55, 0
1, 31872, Note_on_c, 1, 72, 127
1, 31872, Note_on_c, 1, 56, 127
1, 32056, Note_off_c, 1, 72, 0
1, 32056, Note_off_c, 1, 56, 0
1, 32064, Note_on_c, 1, 53, 127
1, 32248, Note_off_c, 1, 53, 0
1, 32256, Note_on_c, 1, 71, 127
1, 32256, Note_on_c, 1, 50, 127
1, 32440, Note_off_c, 1, 71, 0
1, 32440, Note_off_c, 1, 50, 0
1, 32448, Note_on_c, 1, 52, 127
1, 32632, Note_off_c, 1, 52, 0
1, 32640, Note_on_c, 1, 80, 127
1, 32640, Note_on_c, 1, 53, 127
1, 33016, Note_off_c, 1, 80, 0
1, 33024, Note_on_c, 1, 79, 127
1, 33112, Note_off_c, 1, 79, 0
1, 33208, Note_off_c, 1, 53, 0
1, 33216, Note_on_c, 1, 79, 127
1, 33216, Note_on_c, 1, 52, 127
1, 33400, Note_off_c, 1, 79, 0
1, 33400, Note_off_c, 1, 52, 0
1, 33408, Note_on_c, 1, 77, 127
1, 33408, Note_on_c, 1, 50, 127
1, 33592, Note_off_c, 1, 77, 0
1, 33592, Note_off_c, 1, 50, 0
1, 33600, Note_on_c, 1, 48, 127
1, 33784, Note_off_c, 1, 48, 0
1, 33792, Note_on_c, 1, 68, 127
1, 33792, Note_on_c, 1, 47, 127
1, 33976, Note_off_c, 1, 68, 0
1, 33976, Note_off_c, 1, 47, 0
1, 33984, Note_on_c, 1, 48, 127
1, 34168, Note_off_c, 1, 48, 0
1, 34176, Note_on_c, 1, 77, 127
1, 34176, Note_on_c, 1, 50, 127
1, 34552, Note_off_c, 1, 77, 0
1, 34560, Note_on_c, 1, 76, 127
1, 34648, Note_off_c, 1, 76, 0
1, 34744, Note_off_c, 1, 50, 0
1, 34752, Note_on_c, 1, 76, 127
1, 34752, Note_on_c, 1, 48, 127
1, 34936, Note_off_c, 1, 76, 0
1, 34936, Note_off_c, 1, 48, 0
1, 34944, Note_on_c, 1, 74, 127
1, 34944, Note_on_c, 1, 47, 127
1, 35128, Note_off_c, 1, 74, 0
1, 35128, Note_off_c, 1, 47, 0
1, 35136, Note_on_c, 1, 45, 127
1, 35320, Note_off_c, 1, 45, 0
1, 35328, Note_on_c, 1, 65, 127
1, 35328, Note_on_c, 1, 47, 127
1, 35512, Note_off_c, 1, 65, 0
1, 35512, Note_off_c, 1, 47, 0
1, 35520, Note_on_c, 1, 43, 127
1, 35704, Note_off_c, 1, 43, 0
1, 35712, Note_on_c, 1, 74, 127
1, 35712, Note_on_c, 1, 47, 127
1, 35896, Note_off_c, 1, 47, 0
1, 35904, Note_on_c, 1, 48, 127
1, 36088, Note_off_c, 1, 74, 0
1, 36088, Note_off_c, 1, 48, 0
1, 36096, Note_on_c, 1, 72, 127
1, 36096, Note_on_c, 1, 50, 127
1, 36184, Note_off_c, 1, 72, 0
1, 36192, Note_on_c, 1, 74, 127
1, 36280, Note_off_c, 1, 50, 0
1, 36280, Note_off_c, 1, 74, 0
1, 36288, Note_on_c, 1, 72, 127
1, 36288, Note_on_c, 1, 52, 127
1, 36472, Note_off_c, 1, 72, 0
1, 36472, Note_off_c, 1, 52, 0
1, 36480, Note_on_c, 1, 71, 127
1, 36480, Note_on_c, 1, 53, 127
1, 36664, Note_off_c, 1, 71, 0
1, 36664, Note_off_c, 1, 53, 0
1, 36672, Note_on_c, 1, 50, 127
1, 36856, Note_off_c, 1, 50, 0
1, 36864, Note_on_c, 1, 72, 127
1, 36864, Note_on_c, 1, 52, 127
1, 37048, Note_off_c, 1, 72, 0
1, 37048, Note_off_c, 1, 52, 0
1, 37056, Note_on_c, 1, 65, 127
1, 37056, Note_on_c, 1, 50, 127
1, 37240, Note_off_c, 1, 65, 0
1, 37240, Note_off_c, 1, 50, 0
1, 37248, Note_on_c, 1, 64, 127
1, 37248, Note_on_c, 1, 48, 127
1, 37432, Note_off_c, 1, 64, 0
1, 37432, Note_off_c, 1, 48, 0
1, 37440, Note_on_c, 1, 62, 127
1, 37440, Note_on_c, 1, 50, 127
1, 37624, Note_off_c, 1, 62, 0
1, 37624, Note_off_c, 1, 50, 0
1, 37632, Note_on_c, 1, 60, 127
1, 37632, Note_on_c, 1, 52, 127
1, 37816, Note_off_c, 1, 60, 0
1, 37816, Note_off_c, 1, 52, 0
1, 37824, Note_on_c, 1, 53, 127
1, 38008, Note_off_c, 1, 53, 0
1, 38016, Note_on_c, 1, 70, 127
1, 38016, Note_on_c, 1, 55, 127
1, 38200, Note_off_c, 1, 55, 0
1, 38208, Note_on_c, 1, 52, 127
1, 38296, Note_off_c, 1, 70, 0
1, 38392, Note_off_c, 1, 52, 0
1, 38400, Note_on_c, 1, 69, 127
1, 38400, Note_on_c, 1, 53, 127
1, 38584, Note_off_c, 1, 69, 0
1, 38592, Note_on_c, 1, 79, 127
1, 38680, Note_off_c, 1, 53, 0
1, 38776, Note_off_c, 1, 79, 0
1, 38784, Note_on_c, 1, 77, 127
1, 38784, Note_on_c, 1, 57, 127
1, 38968, Note_off_c, 1, 77, 0
1, 38976, Note_on_c, 1, 76, 127
1, 39064, Note_off_c, 1, 57, 0
1, 39160, Note_off_c, 1, 76, 0
1, 39168, Note_on_c, 1, 77, 127
1, 39168, Note_on_c, 1, 50, 127
1, 39352, Note_off_c, 1, 77, 0
1, 39360, Note_on_c, 1, 74, 127
1, 39448, Note_off_c, 1, 50, 0
1, 39544, Note_off_c, 1, 74, 0
1, 39552, Note_on_c, 1, 69, 127
1, 39552, Note_on_c, 1, 53, 127
1, 39832, Note_off_c, 1, 53, 0
1, 39936, Note_on_c, 1, 47, 127
1, 40120, Note_off_c, 1, 69, 0
1, 40128, Note_on_c, 1, 67, 127
1, 40312, Note_off_c, 1, 47, 0
1, 40312, Note_off_c, 1, 67, 0
1, 40320, Note_on_c, 1, 69, 127
1, 40320, Note_on_c, 1, 48, 127
1, 40504, Note_off_c, 1, 69, 0
1, 40504, Note_off_c, 1, 48, 0
1, 40512, Note_on_c, 1, 71, 127
1, 40512, Note_on_c, 1, 50, 127
1, 40696, Note_off_c, 1, 71, 0
1, 40696, Note_off_c, 1, 50, 0
1, 40704, Note_on_c, 1, 67, 127
1, 40704, Note_on_c, 1, 52, 127
1, 40888, Note_off_c, 1, 67, 0
1, 40888, Note_off_c, 1, 52, 0
1, 40896, Note_on_c, 1, 72, 127
1, 41080, Note_off_c, 1, 72, 0
1, 41088, Note_on_c, 1, 76, 127
1, 41088, Note_on_c, 1, 48, 127
1, 41272, Note_off_c, 1, 76, 0
1, 41464, Note_off_c, 1, 48, 0
1, 41472, Note_on_c, 1, 65, 127
1, 41472, Note_on_c, 1, 50, 127
1, 41656, Note_off_c, 1, 65, 0
1, 41664, Note_on_c, 1, 76, 127
1, 41752, Note_off_c, 1, 50, 0
1, 41848, Note_off_c, 1, 76, 0
1, 41856, Note_on_c, 1, 74, 127
1, 41856, Note_on_c, 1, 53, 127
1, 42040, Note_off_c, 1, 74, 0
1, 42048, Note_on_c, 1, 72, 127
1, 42136, Note_off_c, 1, 53, 0
1, 42232, Note_off_c, 1, 72, 0
1, 42240, Note_on_c, 1, 74, 127
1, 42240, Note_on_c, 1, 47, 127
1, 42424, Note_off_c, 1, 74, 0
1, 42432, Note_on_c, 1, 71, 127
1, 42520, Note_off_c, 1, 47, 0
1, 42616, Note_off_c, 1, 71, 0
1, 42624, Note_on_c, 1, 65, 127
1, 42624, Note_on_c, 1, 50, 127
1, 42904, Note_off_c, 1, 50, 0
1, 43008, Note_on_c, 1, 43, 127
1, 43192, Note_off_c, 1, 65, 0
1, 43200, Note_on_c, 1, 64, 127
1, 43384, Note_off_c, 1, 43, 0
1, 43384, Note_off_c, 1, 64, 0
1, 43392, Note_on_c, 1, 65, 127
1, 43392, Note_on_c, 1, 45, 127
1, 43576, Note_off_c, 1, 65, 0
1, 43576, Note_off_c, 1, 45, 0
1, 43584, Note_on_c, 1, 67, 127
1, 43584, Note_on_c, 1, 47, 127
1, 43768, Note_off_c, 1, 67, 0
1, 43768, Note_off_c, 1, 47, 0
1, 43776, Note_on_c, 1, 64, 127
1, 43776, Note_on_c, 1, 48, 127
1, 43960, Note_off_c, 1, 64, 0
1, 43960, Note_off_c, 1, 48, 0
1, 43968, Note_on_c, 1, 67, 127
1, 44152, Note_off_c, 1, 67, 0
1, 44160, Note_on_c, 1, 72, 127
1, 44160, Note_on_c, 1, 45, 127
1, 44344, Note_off_c, 1, 72, 0
1, 44536, Note_off_c, 1, 45, 0
1, 44544, Note_on_c, 1, 62, 127
1, 44544, Note_on_c, 1, 47, 127
1, 44728, Note_off_c, 1, 62, 0
1, 44736, Note_on_c, 1, 72, 127
1, 44824, Note_off_c, 1, 47, 0
1, 44920, Note_off_c, 1, 72, 0
1, 44928, Note_on_c, 1, 71, 127
1, 44928, Note_on_c, 1, 50, 127
1, 45112, Note_off_c, 1, 71, 0
1, 45120, Note_on_c, 1, 69, 127
1, 45208, Note_off_c, 1, 50, 0
1, 45304, Note_off_c, 1, 69, 0
1, 45312, Note_on_c, 1, 71, 127
1, 45312, Note_on_c, 1, 44, 127
1, 45496, Note_off_c, 1, 71, 0
1, 45504, Note_on_c, 1, 68, 127
1, 45592, Note_off_c, 1, 44, 0
1, 45688, Note_off_c, 1, 68, 0
1, 45696, Note_on_c, 1, 62, 127
1, 45696, Note_on_c, 1, 47, 127
1, 45976, Note_off_c, 1, 47, 0
1, 46080, Note_on_c, 1, 40, 127
1, 46264, Note_off_c, 1, 62, 0
1, 46272, Note_on_c, 1, 60, 127
1, 46456, Note_off_c, 1, 40, 0
1, 46456, Note_off_c, 1, 60, 0
1, 46464, Note_on_c, 1, 62, 127
1, 46464, Note_on_c, 1, 42, 127
1, 46648, Note_off_c, 1, 62, 0
1, 46648, Note_off_c, 1, 42, 0
1, 46656, Note_on_c, 1, 64, 127
1, 46656, Note_on_c, 1, 44, 127
1, 46840, Note_off_c, 1, 64, 0
1, 46840, Note_off_c, 1, 44, 0
1, 46848, Note_on_c, 1, 60, 127
1, 46848, Note_on_c, 1, 45, 127
1, 47032, Note_off_c, 1, 60, 0
1, 47032, Note_off_c, 1, 45, 0
1, 47040, Note_on_c, 1, 65, 127
1, 47224, Note_off_c, 1, 65, 0
1, 47232, Note_on_c, 1, 64, 127
1, 47232, Note_on_c, 1, 47, 127
1, 47416, Note_off_c, 1, 64, 0
1, 47416, Note_off_c, 1, 47, 0
1, 47424, Note_on_c, 1, 62, 127
1, 47608, Note_off_c, 1, 62, 0
1, 47616, Note_on_c, 1, 64, 127
1, 47616, Note_on_c, 1, 48, 127
1, 47992, Note_off_c, 1, 64, 0
1, 48000, Note_on_c, 1, 57, 127
1, 48376, Note_off_c, 1, 48, 0
1, 48384, Note_on_c, 1, 40, 127
1, 48760, Note_off_c, 1, 57, 0
1, 48768, Note_on_c, 1, 56, 127
1, 49144, Note_off_c, 1, 40, 0
1, 49144, Note_off_c, 1, 56, 0
1, 49152, Note_on_c, 1, 57, 127
1, 49152, Note_on_c, 1, 41, 127
1, 49336, Note_off_c, 1, 41, 0
1, 49344, Note_on_c, 1, 40, 127
1, 49528, Note_off_c, 1, 57, 0
1, 49528, Note_off_c, 1, 40, 0
1, 49536, Note_on_c, 1, 38, 127
1, 49920, Note_on_c, 1, 69, 127
1, 50104, Note_off_c, 1, 38, 0
1, 50112, Note_on_c, 1, 40, 127
1, 50296, Note_off_c, 1, 40, 0
1, 50304, Note_on_c, 1, 42, 127
1, 50488, Note_off_c, 1, 42, 0
1, 50496, Note_on_c, 1, 44, 127
1, 50680, Note_off_c, 1, 69, 0
1, 50680, Note_off_c, 1, 44, 0
1, 50688, Note_on_c, 1, 72, 127
1, 50688, Note_on_c, 1, 45, 127
1, 50872, Note_off_c, 1, 45, 0
1, 50880, Note_on_c, 1, 40, 127
1, 51064, Note_off_c, 1, 40, 0
1, 51448, Note_off_c, 1, 72, 0
1, 51456, Note_on_c, 1, 64, 127
1, 51840, Note_on_c, 1, 44, 127
1, 52216, Note_off_c, 1, 64, 0
1, 52216, Note_off_c, 1, 44, 0
1, 52224, Note_on_c, 1, 65, 127
1, 52224, Note_on_c, 1, 45, 127
1, 52408, Note_off_c, 1, 65, 0
1, 52416, Note_on_c, 1, 64, 127
1, 52600, Note_off_c, 1, 45, 0
1, 52600, Note_off_c, 1, 64, 0
1, 52608, Note_on_c, 1, 62, 127
1, 52608, Note_on_c, 1, 47, 127
1, 52984, Note_off_c, 1, 47, 0
1, 52992, Note_on_c, 1, 48, 127
1, 53368, Note_off_c, 1, 62, 0
1, 53368, Note_off_c, 1, 48, 0
1, 53376, Note_on_c, 1, 64, 127
1, 53376, Note_on_c, 1, 47, 127
1, 53560, Note_off_c, 1, 64, 0
1, 53560, Note_off_c, 1, 47, 0
1, 53568, Note_on_c, 1, 66, 127
1, 53568, Note_on_c, 1, 45, 127
1, 53752, Note_off_c, 1, 66, 0
1, 53752, Note_off_c, 1, 45, 0
1, 53760, Note_on_c, 1, 67, 127
1, 53760, Note_on_c, 1, 47, 127
1, 53944, Note_off_c, 1, 67, 0
1, 53952, Note_on_c, 1, 69, 127
1, 54136, Note_off_c, 1, 47, 0
1, 54136, Note_off_c, 1, 69, 0
1, 54144, Note_on_c, 1, 70, 127
1, 54144, Note_on_c, 1, 49, 127
1, 54520, Note_off_c, 1, 49, 0
1, 54528, Note_on_c, 1, 50, 127
1, 54824, Note_off_c, 1, 70, 0
1, 54912, Note_on_c, 1, 69, 127
1, 55096, Note_off_c, 1, 69, 0
1, 55104, Note_on_c, 1, 68, 127
1, 55288, Note_off_c, 1, 68, 0
1, 55488, Note_on_c, 1, 64, 127
1, 55672, Note_off_c, 1, 50, 0
1, 55672, Note_off_c, 1, 64, 0
1, 55680, Note_on_c, 1, 69, 127
1, 55680, Note_on_c, 1, 48, 127
1, 55864, Note_off_c, 1, 69, 0
1, 55864, Note_off_c, 1, 48, 0
1, 55872, Note_on_c, 1, 71, 127
1, 55872, Note_on_c, 1, 47, 127
1, 56056, Note_off_c, 1, 71, 0
1, 56056, Note_off_c, 1, 47, 0
1, 56064, Note_on_c, 1, 69, 127
1, 56064, Note_on_c, 1, 48, 127
1, 56248, Note_off_c, 1, 69, 0
1, 56248, Note_off_c, 1, 48, 0
1, 56256, Note_on_c, 1, 64, 127
1, 56440, Note_off_c, 1, 64, 0
1, 56448, Note_on_c, 1, 69, 127
1, 56448, Note_on_c, 1, 45, 127
1, 56632, Note_off_c, 1, 69, 0
1, 56640, Note_on_c, 1, 72, 127
1, 56824, Note_off_c, 1, 72, 0
1, 56832, Note_on_c, 1, 71, 127
1, 57016, Note_off_c, 1, 71, 0
1, 57024, Note_on_c, 1, 64, 127
1, 57208, Note_off_c, 1, 45, 0
1, 57208, Note_off_c, 1, 64, 0
1, 57216, Note_on_c, 1, 71, 127
1, 57216, Note_on_c, 1, 44, 127
1, 57400, Note_off_c, 1, 71, 0
1, 57400, Note_off_c, 1, 44, 0
1, 57408, Note_on_c, 1, 72, 127
1, 57408, Note_on_c, 1, 42, 127
1, 57592, Note_off_c, 1, 72, 0
1, 57592, Note_off_c, 1, 42, 0
1, 57600, Note_on_c, 1, 71, 127
1, 57600, Note_on_c, 1, 45, 127
1, 57688, Note_off_c, 1, 45, 0
1, 57696, Note_on_c, 1, 44, 127
1, 57784, Note_off_c, 1, 71, 0
1, 57784, Note_off_c, 1, 44, 0
1, 57792, Note_on_c, 1, 64, 127
1, 57792, Note_on_c, 1, 45, 127
1, 57880, Note_off_c, 1, 45, 0
1, 57888, Note_on_c, 1, 44, 127
1, 57976, Note_off_c, 1, 64, 0
1, 57976, Note_off_c, 1, 44, 0
1, 57984, Note_on_c, 1, 71, 127
1, 57984, Note_on_c, 1, 45, 127
1, 58072, Note_off_c, 1, 45, 0
1, 58080, Note_on_c, 1, 44, 127
1, 58168, Note_off_c, 1, 71, 0
1, 58168, Note_off_c, 1, 44, 0
1, 58176, Note_on_c, 1, 74, 127
1, 58176, Note_on_c, 1, 42, 127
1, 58264, Note_off_c, 1, 42, 0
1, 58272, Note_on_c, 1, 44, 127
1, 58360, Note_off_c, 1, 74, 0
1, 58360, Note_off_c, 1, 44, 0
1, 58368, Note_on_c, 1, 72, 127
1, 58368, Note_on_c, 1, 45, 127
1, 58552, Note_off_c, 1, 72, 0
1, 58552, Note_off_c, 1, 45, 0
1, 58560, Note_on_c, 1, 64, 127
1, 58744, Note_off_c, 1, 64, 0
1, 58752, Note_on_c, 1, 72, 127
1, 58752, Note_on_c, 1, 52, 127
1, 58936, Note_off_c, 1, 72, 0
1, 58944, Note_on_c, 1, 74, 127
1, 59128, Note_off_c, 1, 52, 0
1, 59128, Note_off_c, 1, 74, 0
1, 59136, Note_on_c, 1, 72, 127
1, 59136, Note_on_c, 1, 57, 127
1, 59320, Note_off_c, 1, 72, 0
1, 59328, Note_on_c, 1, 64, 127
1, 59512, Note_off_c, 1, 64, 0
1, 59712, Note_on_c, 1, 76, 127
1, 59896, Note_off_c, 1, 76, 0
1, 59904, Note_on_c, 1, 71, 127
1, 60088, Note_off_c, 1, 71, 0
1, 60280, Note_off_c, 1, 57, 0
1, 60288, Note_on_c, 1, 71, 127
1, 60472, Note_off_c, 1, 71, 0
1, 60480, Note_on_c, 1, 72, 127
1, 60664, Note_off_c, 1, 72, 0
1, 60672, Note_on_c, 1, 71, 127
1, 60672, Note_on_c, 1, 57, 127
1, 60760, Note_off_c, 1, 57, 0
1, 60768, Note_on_c, 1, 56, 127
1, 60856, Note_off_c, 1, 71, 0
1, 60856, Note_off_c, 1, 56, 0
1, 60864, Note_on_c, 1, 64, 127
1, 60864, Note_on_c, 1, 57, 127
1, 60952, Note_off_c, 1, 57, 0
1, 60960, Note_on_c, 1, 56, 127
1, 61048, Note_off_c, 1, 64, 0
1, 61048, Note_off_c, 1, 56, 0
1, 61056, Note_on_c, 1, 71, 127
1, 61056, Note_on_c, 1, 57, 127
1, 61144, Note_off_c, 1, 57, 0
1, 61152, Note_on_c, 1, 56, 127
1, 61240, Note_off_c, 1, 71, 0
1, 61240, Note_off_c, 1, 56, 0
1, 61248, Note_on_c, 1, 74, 127
1, 61248, Note_on_c, 1, 54, 127
1, 61336, Note_off_c, 1, 54, 0
1, 61344, Note_on_c, 1, 56, 127
1, 61432, Note_off_c, 1, 74, 0
1, 61432, Note_off_c, 1, 56, 0
1, 61440, Note_on_c, 1, 72, 127
1, 61440, Note_on_c, 1, 57, 127
1, 61624, Note_off_c, 1, 72, 0
1, 61632, Note_on_c, 1, 71, 127
1, 61816, Note_off_c, 1, 57, 0
1, 61816, Note_off_c, 1, 71, 0
1, 61824, Note_on_c, 1, 69, 127
1, 62208, Note_on_c, 1, 52, 127
1, 62392, Note_off_c, 1, 69, 0
1, 62592, Note_on_c, 1, 68, 127
1, 62968, Note_off_c, 1, 52, 0
1, 62968, Note_off_c, 1, 68, 0
1, 62976, Note_on_c, 1, 69, 127
1, 62976, Note_on_c, 1, 53, 127
1, 63160, Note_off_c, 1, 69, 0
1, 63168, Note_on_c, 1, 72, 127
1, 63352, Note_off_c, 1, 72, 0
1, 63360, Note_on_c, 1, 71, 127
1, 63544, Note_off_c, 1, 71, 0
1, 63552, Note_on_c, 1, 74, 127
1, 63736, Note_off_c, 1, 53, 0
1, 63736, Note_off_c, 1, 74, 0
1, 63744, Note_on_c, 1, 72, 127
1, 63744, Note_on_c, 1, 45, 127
1, 63928, Note_off_c, 1, 72, 0
1, 63936, Note_on_c, 1, 71, 127
1, 64120, Note_off_c, 1, 71, 0
1, 64320, Note_on_c, 1, 69, 127
1, 64504, Note_off_c, 1, 45, 0
1, 64504, Note_off_c, 1, 69, 0
1, 64512, Note_on_c, 1, 64, 127
1, 64512, Note_on_c, 1, 48, 127
1, 64696, Note_off_c, 1, 48, 0
1, 64704, Note_on_c, 1, 47, 127
1, 64888, Note_off_c, 1, 64, 0
1, 64888, Note_off_c, 1, 47, 0
1, 64896, Note_on_c, 1, 66, 127
1, 64896, Note_on_c, 1, 45, 127
1, 65272, Note_off_c, 1, 66, 0
1, 65280, Note_on_c, 1, 67, 127
1, 65656, Note_off_c, 1, 45, 0
1, 65656, Note_off_c, 1, 67, 0
1, 65664, Note_on_c, 1, 66, 127
1, 65664, Note_on_c, 1, 47, 127
1, 65848, Note_off_c, 1, 66, 0
1, 65848, Note_off_c, 1, 47, 0
1, 65856, Note_on_c, 1, 64, 127
1, 65856, Note_on_c, 1, 48, 127
1, 66040, Note_off_c, 1, 64, 0
1, 66040, Note_off_c, 1, 48, 0
1, 66048, Note_on_c, 1, 66, 127
1, 66048, Note_on_c, 1, 50, 127
1, 66232, Note_off_c, 1, 50, 0
1, 66240, Note_on_c, 1, 52, 127
1, 66424, Note_off_c, 1, 66, 0
1, 66424, Note_off_c, 1, 52, 0
1, 66432, Note_on_c, 1, 68, 127
1, 66432, Note_on_c, 1, 53, 127
1, 66808, Note_off_c, 1, 68, 0
1, 66816, Note_on_c, 1, 69, 127
1, 67192, Note_off_c, 1, 53, 0
1, 67200, Note_on_c, 1, 52, 127
1, 67384, Note_off_c, 1, 52, 0
1, 67392, Note_on_c, 1, 51, 127
1, 67576, Note_off_c, 1, 51, 0
1, 67776, Note_on_c, 1, 47, 127
1, 67960, Note_off_c, 1, 69, 0
1, 67960, Note_off_c, 1, 47, 0
1, 67968, Note_on_c, 1, 67, 127
1, 67968, Note_on_c, 1, 52, 127
1, 68152, Note_off_c, 1, 67, 0
1, 68152, Note_off_c, 1, 52, 0
1, 68160, Note_on_c, 1, 66, 127
1, 68160, Note_on_c, 1, 54, 127
1, 68344, Note_off_c, 1, 66, 0
1, 68344, Note_off_c, 1, 54, 0
1, 68352, Note_on_c, 1, 67, 127
1, 68352, Note_on_c, 1, 52, 127
1, 68536, Note_off_c, 1, 52, 0
1, 68544, Note_on_c, 1, 47, 127
1, 68728, Note_off_c, 1, 67, 0
1, 68728, Note_off_c, 1, 47, 0
1, 68736, Note_on_c, 1, 64, 127
1, 68736, Note_on_c, 1, 52, 127
1, 68920, Note_off_c, 1, 52, 0
1, 68928, Note_on_c, 1, 55, 127
1, 69112, Note_off_c, 1, 55, 0
1, 69120, Note_on_c, 1, 54, 127
1, 69304, Note_off_c, 1, 54, 0
1, 69312, Note_on_c, 1, 47, 127
1, 69496, Note_off_c, 1, 64, 0
1, 69496, Note_off_c, 1, 47, 0
1, 69504, Note_on_c, 1, 63, 127
1, 69504, Note_on_c, 1, 54, 127
1, 69688, Note_off_c, 1, 63, 0
1, 69688, Note_off_c, 1, 54, 0
1, 69696, Note_on_c, 1, 61, 127
1, 69696, Note_on_c, 1, 55, 127
1, 69880, Note_off_c, 1, 61, 0
1, 69880, Note_off_c, 1, 55, 0
1, 69888, Note_on_c, 1, 64, 127
1, 69888, Note_on_c, 1, 54, 127
1, 69976, Note_off_c, 1, 64, 0
1, 69984, Note_on_c, 1, 63, 127
1, 70072, Note_off_c, 1, 54, 0
1, 70072, Note_off_c, 1, 63, 0
1, 70080, Note_on_c, 1, 64, 127
1, 70080, Note_on_c, 1, 47, 127
1, 70168, Note_off_c, 1, 64, 0
1, 70176, Note_on_c, 1, 63, 127
1, 70264, Note_off_c, 1, 47, 0
1, 70264, Note_off_c, 1, 63, 0
1, 70272, Note_on_c, 1, 64, 127
1, 70272, Note_on_c, 1, 54, 127
1, 70360, Note_off_c, 1, 64, 0
1, 70368, Note_on_c, 1, 63, 127
1, 70456, Note_off_c, 1, 54, 0
1, 70456, Note_off_c, 1, 63, 0
1, 70464, Note_on_c, 1, 61, 127
1, 70464, Note_on_c, 1, 57, 127
1, 70552, Note_off_c, 1, 61, 0
1, 70560, Note_on_c, 1, 63, 127
1, 70648, Note_off_c, 1, 57, 0
1, 70648, Note_off_c, 1, 63, 0
1, 70656, Note_on_c, 1, 64, 127
1, 70656, Note_on_c, 1, 55, 127
1, 70840, Note_off_c, 1, 64, 0
1, 70840, Note_off_c, 1, 55, 0
1, 70848, Note_on_c, 1, 47, 127
1, 71032, Note_off_c, 1, 47, 0
1, 71040, Note_on_c, 1, 71, 127
1, 71040, Note_on_c, 1, 55, 127
1, 71224, Note_off_c, 1, 55, 0
1, 71232, Note_on_c, 1, 57, 127
1, 71416, Note_off_c, 1, 71, 0
1, 71416, Note_off_c, 1, 57, 0
1, 71424, Note_on_c, 1, 76, 127
1, 71424, Note_on_c, 1, 55, 127
1, 71608, Note_off_c, 1, 55, 0
1, 71616, Note_on_c, 1, 47, 127
1, 71800, Note_off_c, 1, 47, 0
1, 72000, Note_on_c, 1, 59, 127
1, 72184, Note_off_c, 1, 59, 0
1, 72192, Note_on_c, 1, 54, 127
1, 72376, Note_off_c, 1, 54, 0
1, 72920, Note_off_c, 1, 76, 0
1, 72960, Note_on_c, 1, 76, 127
1, 72960, Note_on_c, 1, 54, 127
1, 73048, Note_off_c, 1, 76, 0
1, 73056, Note_on_c, 1, 75, 127
1, 73144, Note_off_c, 1, 54, 0
1, 73144, Note_off_c, 1, 75, 0
1, 73152, Note_on_c, 1, 76, 127
1, 73152, Note_on_c, 1, 47, 127
1, 73240, Note_off_c, 1, 76, 0
1, 73248, Note_on_c, 1, 75, 127
1, 73336, Note_off_c, 1, 47, 0
1, 73336, Note_off_c, 1, 75, 0
1, 73344, Note_on_c, 1, 76, 127
1, 73344, Note_on_c, 1, 54, 127
1, 73432, Note_off_c, 1, 76, 0
1, 73440, Note_on_c, 1, 75, 127
1, 73528, Note_off_c, 1, 54, 0
1, 73528, Note_off_c, 1, 75, 0
1, 73536, Note_on_c, 1, 73, 127
1, 73536, Note_on_c, 1, 57, 127
1, 73624, Note_off_c, 1, 73, 0
1, 73632, Note_on_c, 1, 75, 127
1, 73720, Note_off_c, 1, 57, 0
1, 73720, Note_off_c, 1, 75, 0
1, 73728, Note_on_c, 1, 76, 127
1, 73728, Note_on_c, 1, 55, 127
1, 73912, Note_off_c, 1, 55, 0
1, 73920, Note_on_c, 1, 54, 127
1, 74104, Note_off_c, 1, 76, 0
1, 74104, Note_off_c, 1, 54, 0
1, 74112, Note_on_c, 1, 52, 127
1, 74304, Note_on_c, 1, 74, 127
1, 74392, Note_off_c, 1, 74, 0
1, 74400, Note_on_c, 1, 76, 127
1, 74488, Note_off_c, 1, 76, 0
1, 74496, Note_on_c, 1, 77, 127
1, 74680, Note_off_c, 1, 52, 0
1, 74680, Note_off_c, 1, 77, 0
1, 74688, Note_on_c, 1, 76, 127
1, 74872, Note_off_c, 1, 76, 0
1, 74880, Note_on_c, 1, 74, 127
1, 74880, Note_on_c, 1, 54, 127
1, 75064, Note_off_c, 1, 74, 0
1, 75064, Note_off_c, 1, 54, 0
1, 75072, Note_on_c, 1, 72, 127
1, 75256, Note_off_c, 1, 72, 0
1, 75264, Note_on_c, 1, 71, 127
1, 75264, Note_on_c, 1, 56, 127
1, 75448, Note_off_c, 1, 71, 0
1, 75448, Note_off_c, 1, 56, 0
1, 75456, Note_on_c, 1, 72, 127
1, 75640, Note_off_c, 1, 72, 0
1, 75648, Note_on_c, 1, 74, 127
1, 75648, Note_on_c, 1, 65, 127
1, 76024, Note_off_c, 1, 65, 0
1, 76032, Note_on_c, 1, 64, 127
1, 76120, Note_off_c, 1, 64, 0
1, 76216, Note_off_c, 1, 74, 0
1, 76224, Note_on_c, 1, 72, 127
1, 76224, Note_on_c, 1, 64, 127
1, 76408, Note_off_c, 1, 72, 0
1, 76408, Note_off_c, 1, 64, 0
1, 76416, Note_on_c, 1, 71, 127
1, 76416, Note_on_c, 1, 62, 127
1, 76600, Note_off_c, 1, 71, 0
1, 76600, Note_off_c, 1, 62, 0
1, 76608, Note_on_c, 1, 69, 127
1, 76792, Note_off_c, 1, 69, 0
1, 76800, Note_on_c, 1, 68, 127
1, 76800, Note_on_c, 1, 53, 127
1, 76984, Note_off_c, 1, 68, 0
1, 76984, Note_off_c, 1, 53, 0
1, 76992, Note_on_c, 1, 69, 127
1, 77176, Note_off_c, 1, 69, 0
1, 77184, Note_on_c, 1, 71, 127
1, 77184, Note_on_c, 1, 62, 127
1, 77560, Note_off_c, 1, 62, 0
1, 77568, Note_on_c, 1, 60, 127
1, 77656, Note_off_c, 1, 60, 0
1, 77752, Note_off_c, 1, 71, 0
1, 77760, Note_on_c, 1, 69, 127
1, 77760, Note_on_c, 1, 60, 127
1, 77944, Note_off_c, 1, 69, 0
1, 77944, Note_off_c, 1, 60, 0
1, 77952, Note_on_c, 1, 68, 127
1, 77952, Note_on_c, 1, 59, 127
1, 78136, Note_off_c, 1, 68, 0
1, 78136, Note_off_c, 1, 59, 0
1, 78144, Note_on_c, 1, 66, 127
1, 78328, Note_off_c, 1, 66, 0
1, 78336, Note_on_c, 1, 68, 127
1, 78336, Note_on_c, 1, 50, 127
1, 78520, Note_off_c, 1, 68, 0
1, 78520, Note_off_c, 1, 50, 0
1, 78528, Note_on_c, 1, 64, 127
1, 78712, Note_off_c, 1, 64, 0
1, 78720, Note_on_c, 1, 68, 127
1, 78720, Note_on_c, 1, 59, 127
1, 78904, Note_off_c, 1, 68, 0
1, 78912, Note_on_c, 1, 69, 127
1, 79096, Note_off_c, 1, 59, 0
1, 79096, Note_off_c, 1, 69, 0
1, 79104, Note_on_c, 1, 71, 127
1, 79104, Note_on_c, 1, 57, 127
1, 79192, Note_off_c, 1, 57, 0
1, 79200, Note_on_c, 1, 59, 127
1, 79288, Note_off_c, 1, 71, 0
1, 79288, Note_off_c, 1, 59, 0
1, 79296, Note_on_c, 1, 72, 127
1, 79296, Note_on_c, 1, 57, 127
1, 79480, Note_off_c, 1, 72, 0
1, 79480, Note_off_c, 1, 57, 0
1, 79488, Note_on_c, 1, 74, 127
1, 79488, Note_on_c, 1, 56, 127
1, 79672, Note_off_c, 1, 74, 0
1, 79672, Note_off_c, 1, 56, 0
1, 79680, Note_on_c, 1, 71, 127
1, 79864, Note_off_c, 1, 71, 0
1, 79872, Note_on_c, 1, 72, 127
1, 79872, Note_on_c, 1, 57, 127
1, 80056, Note_off_c, 1, 72, 0
1, 80056, Note_off_c, 1, 57, 0
1, 80064, Note_on_c, 1, 71, 127
1, 80064, Note_on_c, 1, 50, 127
1, 80248, Note_off_c, 1, 71, 0
1, 80248, Note_off_c, 1, 50, 0
1, 80256, Note_on_c, 1, 69, 127
1, 80256, Note_on_c, 1, 48, 127
1, 80440, Note_off_c, 1, 69, 0
1, 80440, Note_off_c, 1, 48, 0
1, 80448, Note_on_c, 1, 71, 127
1, 80448, Note_on_c, 1, 47, 127
1, 80632, Note_off_c, 1, 71, 0
1, 80632, Note_off_c, 1, 47, 0
1, 80640, Note_on_c, 1, 72, 127
1, 80640, Note_on_c, 1, 45, 127
1, 80824, Note_off_c, 1, 72, 0
1, 80824, Note_off_c, 1, 45, 0
1, 80832, Note_on_c, 1, 74, 127
1, 81016, Note_off_c, 1, 74, 0
1, 81024, Note_on_c, 1, 75, 127
1, 81024, Note_on_c, 1, 55, 127
1, 81208, Note_off_c, 1, 75, 0
1, 81208, Note_off_c, 1, 55, 0
1, 81216, Note_on_c, 1, 72, 127
1, 81400, Note_off_c, 1, 72, 0
1, 81408, Note_on_c, 1, 69, 127
1, 81408, Note_on_c, 1, 54, 127
1, 81592, Note_off_c, 1, 69, 0
1, 81592, Note_off_c, 1, 54, 0
1, 81600, Note_on_c, 1, 71, 127
1, 81784, Note_off_c, 1, 71, 0
1, 81792, Note_on_c, 1, 72, 127
1, 81792, Note_on_c, 1, 63, 127
1, 82168, Note_off_c, 1, 63, 0
1, 82176, Note_on_c, 1, 62, 127
1, 82264, Note_off_c, 1, 62, 0
1, 82360, Note_off_c, 1, 72, 0
1, 82368, Note_on_c, 1, 71, 127
1, 82368, Note_on_c, 1, 62, 127
1, 82552, Note_off_c, 1, 71, 0
1, 82552, Note_off_c, 1, 62, 0
1, 82560, Note_on_c, 1, 69, 127
1, 82560, Note_on_c, 1, 60, 127
1, 82744, Note_off_c, 1, 69, 0
1, 82744, Note_off_c, 1, 60, 0
1, 82752, Note_on_c, 1, 67, 127
1, 82936, Note_off_c, 1, 67, 0
1, 82944, Note_on_c, 1, 66, 127
1, 82944, Note_on_c, 1, 51, 127
1, 83128, Note_off_c, 1, 66, 0
1, 83128, Note_off_c, 1, 51, 0
1, 83136, Note_on_c, 1, 67, 127
1, 83320, Note_off_c, 1, 67, 0
1, 83328, Note_on_c, 1, 69, 127
1, 83328, Note_on_c, 1, 60, 127
1, 83704, Note_off_c, 1, 60, 0
1, 83712, Note_on_c, 1, 59, 127
1, 83800, Note_off_c, 1, 59, 0
1, 83896, Note_off_c, 1, 69, 0
1, 83904, Note_on_c, 1, 67, 127
1, 83904, Note_on_c, 1, 59, 127
1, 84088, Note_off_c, 1, 67, 0
1, 84088, Note_off_c, 1, 59, 0
1, 84096, Note_on_c, 1, 66, 127
1, 84096, Note_on_c, 1, 57, 127
1, 84280, Note_off_c, 1, 66, 0
1, 84280, Note_off_c, 1, 57, 0
1, 84288, Note_on_c, 1, 64, 127
1, 84472, Note_off_c, 1, 64, 0
1, 84480, Note_on_c, 1, 66, 127
1, 84480, Note_on_c, 1, 48, 127
1, 84664, Note_off_c, 1, 66, 0
1, 84664, Note_off_c, 1, 48, 0
1, 84672, Note_on_c, 1, 62, 127
1, 84856, Note_off_c, 1, 62, 0
1, 84864, Note_on_c, 1, 66, 127
1, 84864, Note_on_c, 1, 57, 127
1, 85048, Note_off_c, 1, 66, 0
1, 85056, Note_on_c, 1, 67, 127
1, 85240, Note_off_c, 1, 57, 0
1, 85240, Note_off_c, 1, 67, 0
1, 85248, Note_on_c, 1, 69, 127
1, 85248, Note_on_c, 1, 55, 127
1, 85336, Note_off_c, 1, 55, 0
1, 85344, Note_on_c, 1, 57, 127
1, 85432, Note_off_c, 1, 69, 0
1, 85432, Note_off_c, 1, 57, 0
1, 85440, Note_on_c, 1, 71, 127
1, 85440, Note_on_c, 1, 55, 127
1, 85624, Note_off_c, 1, 71, 0
1, 85624, Note_off_c, 1, 55, 0
1, 85632, Note_on_c, 1, 72, 127
1, 85632, Note_on_c, 1, 54, 127
1, 85816, Note_off_c, 1, 72, 0
1, 85816, Note_off_c, 1, 54, 0
1, 85824, Note_on_c, 1, 69, 127
1, 86008, Note_off_c, 1, 69, 0
1, 86016, Note_on_c, 1, 71, 127
1, 86016, Note_on_c, 1, 55, 127
1, 86200, Note_off_c, 1, 71, 0
1, 86200, Note_off_c, 1, 55, 0
1, 86208, Note_on_c, 1, 69, 127
1, 86208, Note_on_c, 1, 48, 127
1, 86392, Note_off_c, 1, 69, 0
1, 86392, Note_off_c, 1, 48, 0
1, 86400, Note_on_c, 1, 67, 127
1, 86400, Note_on_c, 1, 47, 127
1, 86584, Note_off_c, 1, 67, 0
1, 86584, Note_off_c, 1, 47, 0
1, 86592, Note_on_c, 1, 69, 127
1, 86592, Note_on_c, 1, 45, 127
1, 86776, Note_off_c, 1, 69, 0
1, 86776, Note_off_c, 1, 45, 0
1, 86784, Note_on_c, 1, 71, 127
1, 86784, Note_on_c, 1, 43, 127
1, 86968, Note_off_c, 1, 71, 0
1, 86968, Note_off_c, 1, 43, 0
1, 86976, Note_on_c, 1, 72, 127
1, 87160, Note_off_c, 1, 72, 0
1, 87168, Note_on_c, 1, 74, 127
1, 87168, Note_on_c, 1, 53, 127
1, 87352, Note_off_c, 1, 74, 0
1, 87360, Note_on_c, 1, 71, 127
1, 87448, Note_off_c, 1, 53, 0
1, 87544, Note_off_c, 1, 71, 0
1, 87552, Note_on_c, 1, 72, 127
1, 87552, Note_on_c, 1, 52, 127
1, 87736, Note_off_c, 1, 72, 0
1, 87736, Note_off_c, 1, 52, 0
1, 87744, Note_on_c, 1, 62, 127
1, 87928, Note_off_c, 1, 62, 0
1, 87936, Note_on_c, 1, 76, 127
1, 87936, Note_on_c, 1, 60, 127
1, 88120, Note_off_c, 1, 76, 0
1, 88120, Note_off_c, 1, 60, 0
1, 88128, Note_on_c, 1, 59, 127
1, 88312, Note_off_c, 1, 59, 0
1, 88320, Note_on_c, 1, 69, 127
1, 88320, Note_on_c, 1, 60, 127
1, 88504, Note_off_c, 1, 69, 0
1, 88504, Note_off_c, 1, 60, 0
1, 88512, Note_on_c, 1, 57, 127
1, 88696, Note_off_c, 1, 57, 0
1, 88704, Note_on_c, 1, 72, 127
1, 88704, Note_on_c, 1, 52, 127
1, 88888, Note_off_c, 1, 72, 0
1, 89088, Note_on_c, 1, 66, 127
1, 89272, Note_off_c, 1, 52, 0
1, 89280, Note_on_c, 1, 50, 127
1, 89464, Note_off_c, 1, 66, 0
1, 89464, Note_off_c, 1, 50, 0
1, 89472, Note_on_c, 1, 67, 127
1, 89472, Note_on_c, 1, 52, 127
1, 89656, Note_off_c, 1, 67, 0
1, 89656, Note_off_c, 1, 52, 0
1, 89664, Note_on_c, 1, 69, 127
1, 89664, Note_on_c, 1, 54, 127
1, 89848, Note_off_c, 1, 69, 0
1, 89848, Note_off_c, 1, 54, 0
1, 89856, Note_on_c, 1, 71, 127
1, 89856, Note_on_c, 1, 50, 127
1, 90040, Note_off_c, 1, 50, 0
1, 90048, Note_on_c, 1, 55, 127
1, 90232, Note_off_c, 1, 71, 0
1, 90232, Note_off_c, 1, 55, 0
1, 90240, Note_on_c, 1, 67, 127
1, 90240, Note_on_c, 1, 59, 127
1, 90616, Note_off_c, 1, 67, 0
1, 90616, Note_off_c, 1, 59, 0
1, 90624, Note_on_c, 1, 69, 127
1, 90624, Note_on_c, 1, 48, 127
1, 90808, Note_off_c, 1, 69, 0
1, 90808, Note_off_c, 1, 48, 0
1, 90816, Note_on_c, 1, 59, 127
1, 91000, Note_off_c, 1, 59, 0
1, 91008, Note_on_c, 1, 72, 127
1, 91008, Note_on_c, 1, 57, 127
1, 91192, Note_off_c, 1, 72, 0
1, 91192, Note_off_c, 1, 57, 0
1, 91200, Note_on_c, 1, 55, 127
1, 91384, Note_off_c, 1, 55, 0
1, 91392, Note_on_c, 1, 66, 127
1, 91392, Note_on_c, 1, 57, 127
1, 91576, Note_off_c, 1, 66, 0
1, 91576, Note_off_c, 1, 57, 0
1, 91584, Note_on_c, 1, 54, 127
1, 91768, Note_off_c, 1, 54, 0
1, 91776, Note_on_c, 1, 69, 127
1, 91776, Note_on_c, 1, 48, 127
1, 91960, Note_off_c, 1, 69, 0
1, 92160, Note_on_c, 1, 62, 127
1, 92344, Note_off_c, 1, 48, 0
1, 92352, Note_on_c, 1, 47, 127
1, 92536, Note_off_c, 1, 62, 0
1, 92536, Note_off_c, 1, 47, 0
1, 92544, Note_on_c, 1, 64, 127
1, 92544, Note_on_c, 1, 48, 127
1, 92728, Note_off_c, 1, 64, 0
1, 92728, Note_off_c, 1, 48, 0
1, 92736, Note_on_c, 1, 66, 127
1, 92736, Note_on_c, 1, 50, 127
1, 92920, Note_off_c, 1, 66, 0
1, 92920, Note_off_c, 1, 50, 0
1, 92928, Note_on_c, 1, 67, 127
1, 92928, Note_on_c, 1, 47, 127
1, 93112, Note_off_c, 1, 47, 0
1, 93120, Note_on_c, 1, 50, 127
1, 93304, Note_off_c, 1, 67, 0
1, 93304, Note_off_c, 1, 50, 0
1, 93312, Note_on_c, 1, 64, 127
1, 93312, Note_on_c, 1, 55, 127
1, 93688, Note_off_c, 1, 64, 0
1, 93688, Note_off_c, 1, 55, 0
1, 93696, Note_on_c, 1, 66, 127
1, 93696, Note_on_c, 1, 45, 127
1, 93880, Note_off_c, 1, 66, 0
1, 93880, Note_off_c, 1, 45, 0
1, 93888, Note_on_c, 1, 55, 127
1, 94072, Note_off_c, 1, 55, 0
1, 94080, Note_on_c, 1, 69, 127
1, 94080, Note_on_c, 1, 54, 127
1, 94264, Note_off_c, 1, 69, 0
1, 94264, Note_off_c, 1, 54, 0
1, 94272, Note_on_c, 1, 52, 127
1, 94456, Note_off_c, 1, 52, 0
1, 94464, Note_on_c, 1, 63, 127
1, 94464, Note_on_c, 1, 54, 127
1, 94648, Note_off_c, 1, 63, 0
1, 94648, Note_off_c, 1, 54, 0
1, 94656, Note_on_c, 1, 51, 127
1, 94840, Note_off_c, 1, 51, 0
1, 94848, Note_on_c, 1, 66, 127
1, 94848, Note_on_c, 1, 45, 127
1, 95032, Note_off_c, 1, 66, 0
1, 95232, Note_on_c, 1, 59, 127
1, 95416, Note_off_c, 1, 45, 0
1, 95424, Note_on_c, 1, 43, 127
1, 95608, Note_off_c, 1, 59, 0
1, 95608, Note_off_c, 1, 43, 0
1, 95616, Note_on_c, 1, 61, 127
1, 95616, Note_on_c, 1, 45, 127
1, 95800, Note_off_c, 1, 61, 0
1, 95800, Note_off_c, 1, 45, 0
1, 95808, Note_on_c, 1, 63, 127
1, 95808, Note_on_c, 1, 47, 127
1, 95992, Note_off_c, 1, 63, 0
1, 95992, Note_off_c, 1, 47, 0
1, 96000, Note_on_c, 1, 64, 127
1, 96000, Note_on_c, 1, 43, 127
1, 96184, Note_off_c, 1, 43, 0
1, 96192, Note_on_c, 1, 47, 127
1, 96376, Note_off_c, 1, 47, 0
1, 96384, Note_on_c, 1, 52, 127
1, 96568, Note_off_c, 1, 52, 0
1, 96576, Note_on_c, 1, 55, 127
1, 96760, Note_off_c, 1, 55, 0
1, 96768, Note_on_c, 1, 54, 127
1, 96952, Note_off_c, 1, 54, 0
1, 96960, Note_on_c, 1, 46, 127
1, 97144, Note_off_c, 1, 64, 0
1, 97144, Note_off_c, 1, 46, 0
1, 97152, Note_on_c, 1, 62, 127
1, 97152, Note_on_c, 1, 54, 127
1, 97336, Note_off_c, 1, 62, 0
1, 97336, Note_off_c, 1, 54, 0
1, 97344, Note_on_c, 1, 61, 127
1, 97344, Note_on_c, 1, 55, 127
1, 97528, Note_off_c, 1, 61, 0
1, 97528, Note_off_c, 1, 55, 0
1, 97536, Note_on_c, 1, 62, 127
1, 97536, Note_on_c, 1, 54, 127
1, 97720, Note_off_c, 1, 54, 0
1, 97728, Note_on_c, 1, 47, 127
1, 97912, Note_off_c, 1, 47, 0
1, 98112, Note_on_c, 1, 57, 127
1, 98296, Note_off_c, 1, 57, 0
1, 98304, Note_on_c, 1, 56, 127
1, 98488, Note_off_c, 1, 56, 0
1, 98496, Note_on_c, 1, 52, 127
1, 98680, Note_off_c, 1, 62, 0
1, 98680, Note_off_c, 1, 52, 0
1, 98688, Note_on_c, 1, 64, 127
1, 98688, Note_on_c, 1, 56, 127
1, 98872, Note_off_c, 1, 64, 0
1, 98872, Note_off_c, 1, 56, 0
1, 98880, Note_on_c, 1, 66, 127
1, 98880, Note_on_c, 1, 58, 127
1, 99064, Note_off_c, 1, 66, 0
1, 99064, Note_off_c, 1, 58, 0
1, 99072, Note_on_c, 1, 67, 127
1, 99072, Note_on_c, 1, 59, 127
1, 99256, Note_off_c, 1, 59, 0
1, 99264, Note_on_c, 1, 50, 127
1, 99448, Note_off_c, 1, 50, 0
1, 99456, Note_on_c, 1, 55, 127
1, 99640, Note_off_c, 1, 55, 0
1, 99840, Note_on_c, 1, 57, 127
1, 100024, Note_off_c, 1, 57, 0
1, 100032, Note_on_c, 1, 49, 127
1, 100216, Note_off_c, 1, 67, 0
1, 100216, Note_off_c, 1, 49, 0
1, 100224, Note_on_c, 1, 65, 127
1, 100224, Note_on_c, 1, 57, 127
1, 100408, Note_off_c, 1, 65, 0
1, 100408, Note_off_c, 1, 57, 0
1, 100416, Note_on_c, 1, 64, 127
1, 100416, Note_on_c, 1, 58, 127
1, 100600, Note_off_c, 1, 64, 0
1, 100600, Note_off_c, 1, 58, 0
1, 100608, Note_on_c, 1, 65, 127
1, 100608, Note_on_c, 1, 57, 127
1, 100792, Note_off_c, 1, 57, 0
1, 100800, Note_on_c, 1, 50, 127
1, 100984, Note_off_c, 1, 50, 0
1, 101184, Note_on_c, 1, 60, 127
1, 101368, Note_off_c, 1, 60, 0
1, 101376, Note_on_c, 1, 59, 127
1, 101560, Note_off_c, 1, 59, 0
1, 101568, Note_on_c, 1, 55, 127
1, 101752, Note_off_c, 1, 65, 0
1, 101752, Note_off_c, 1, 55, 0
1, 101760, Note_on_c, 1, 67, 127
1, 101760, Note_on_c, 1, 59, 127
1, 101944, Note_off_c, 1, 67, 0
1, 101944, Note_off_c, 1, 59, 0
1, 101952, Note_on_c, 1, 69, 127
1, 101952, Note_on_c, 1, 61, 127
1, 102136, Note_off_c, 1, 69, 0
1, 102136, Note_off_c, 1, 61, 0
1, 102144, Note_on_c, 1, 70, 127
1, 102144, Note_on_c, 1, 62, 127
1, 102328, Note_off_c, 1, 62, 0
1, 102336, Note_on_c, 1, 53, 127
1, 102520, Note_off_c, 1, 53, 0
1, 102528, Note_on_c, 1, 58, 127
1, 102712, Note_off_c, 1, 58, 0
1, 102912, Note_on_c, 1, 60, 127
1, 103096, Note_off_c, 1, 60, 0
1, 103104, Note_on_c, 1, 52, 127
1, 103288, Note_off_c, 1, 70, 0
1, 103288, Note_off_c, 1, 52, 0
1, 103296, Note_on_c, 1, 69, 127
1, 103296, Note_on_c, 1, 60, 127
1, 103480, Note_off_c, 1, 69, 0
1, 103480, Note_off_c, 1, 60, 0
1, 103488, Note_on_c, 1, 68, 127
1, 103488, Note_on_c, 1, 62, 127
1, 103672, Note_off_c, 1, 68, 0
1, 103672, Note_off_c, 1, 62, 0
1, 103680, Note_on_c, 1, 69, 127
1, 103680, Note_on_c, 1, 60, 127
1, 103864, Note_off_c, 1, 60, 0
1, 103872, Note_on_c, 1, 53, 127
1, 104056, Note_off_c, 1, 53, 0
1, 104064, Note_on_c, 1, 57, 127
1, 104248, Note_off_c, 1, 57, 0
1, 104448, Note_on_c, 1, 59, 127
1, 104632, Note_off_c, 1, 59, 0
1, 104640, Note_on_c, 1, 50, 127
1, 104824, Note_off_c, 1, 50, 0
1, 105008, Note_off_c, 1, 69, 0
1, 105024, Note_on_c, 1, 60, 127
1, 105208, Note_off_c, 1, 60, 0
1, 105216, Note_on_c, 1, 69, 127
1, 105216, Note_on_c, 1, 59, 127
1, 105304, Note_off_c, 1, 69, 0
1, 105312, Note_on_c, 1, 68, 127
1, 105400, Note_off_c, 1, 59, 0
1, 105400, Note_off_c, 1, 68, 0
1, 105408, Note_on_c, 1, 69, 127
1, 105408, Note_on_c, 1, 52, 127
1, 105496, Note_off_c, 1, 69, 0
1, 105504, Note_on_c, 1, 68, 127
1, 105592, Note_off_c, 1, 52, 0
1, 105592, Note_off_c, 1, 68, 0
1, 105600, Note_on_c, 1, 69, 127
1, 105600, Note_on_c, 1, 59, 127
1, 105688, Note_off_c, 1, 69, 0
1, 105696, Note_on_c, 1, 68, 127
1, 105784, Note_off_c, 1, 59, 0
1, 105784, Note_off_c, 1, 68, 0
1, 105792, Note_on_c, 1, 66, 127
1, 105792, Note_on_c, 1, 62, 127
1, 105880, Note_off_c, 1, 66, 0
1, 105888, Note_on_c, 1, 68, 127
1, 105976, Note_off_c, 1, 62, 0
1, 105976, Note_off_c, 1, 68, 0
1, 105984, Note_on_c, 1, 69, 127
1, 105984, Note_on_c, 1, 60, 127
1, 106168, Note_off_c, 1, 60, 0
1, 106176, Note_on_c, 1, 57, 127
1, 106360, Note_off_c, 1, 57, 0
1, 106552, Note_off_c, 1, 69, 0
1, 106560, Note_on_c, 1, 64, 127
1, 106744, Note_off_c, 1, 64, 0
1, 106752, Note_on_c, 1, 76, 127
1, 106752, Note_on_c, 1, 60, 127
1, 106936, Note_off_c, 1, 60, 0
1, 106944, Note_on_c, 1, 57, 127
1, 107128, Note_off_c, 1, 57, 0
1, 107136, Note_on_c, 1, 59, 127
1, 107320, Note_off_c, 1, 59, 0
1, 107328, Note_on_c, 1, 56, 127
1, 107512, Note_off_c, 1, 76, 0
1, 107512, Note_off_c, 1, 56, 0
1, 107520, Note_on_c, 1, 77, 127
1, 107520, Note_on_c, 1, 57, 127
1, 107704, Note_off_c, 1, 57, 0
1, 107712, Note_on_c, 1, 60, 127
1, 107896, Note_off_c, 1, 60, 0
1, 107904, Note_on_c, 1, 59, 127
1, 108088, Note_off_c, 1, 59, 0
1, 108096, Note_on_c, 1, 62, 127
1, 108280, Note_off_c, 1, 77, 0
1, 108280, Note_off_c, 1, 62, 0
1, 108288, Note_on_c, 1, 69, 127
1, 108288, Note_on_c, 1, 60, 127
1, 108472, Note_off_c, 1, 60, 0
1, 108480, Note_on_c, 1, 59, 127
1, 108664, Note_off_c, 1, 59, 0
1, 108864, Note_on_c, 1, 57, 127
1, 109048, Note_off_c, 1, 69, 0
1, 109048, Note_off_c, 1, 57, 0
1, 109056, Note_on_c, 1, 72, 127
1, 109056, Note_on_c, 1, 52, 127
1, 109240, Note_off_c, 1, 72, 0
1, 109248, Note_on_c, 1, 71, 127
1, 109432, Note_off_c, 1, 52, 0
1, 109432, Note_off_c, 1, 71, 0
1, 109440, Note_on_c, 1, 69, 127
1, 109440, Note_on_c, 1, 54, 127
1, 109816, Note_off_c, 1, 54, 0
1, 109824, Note_on_c, 1, 55, 127
1, 110200, Note_off_c, 1, 69, 0
1, 110200, Note_off_c, 1, 55, 0
1, 110208, Note_on_c, 1, 71, 127
1, 110208, Note_on_c, 1, 54, 127
1, 110392, Note_off_c, 1, 71, 0
1, 110392, Note_off_c, 1, 54, 0
1, 110400, Note_on_c, 1, 72, 127
1, 110400, Note_on_c, 1, 52, 127
1, 110584, Note_off_c, 1, 72, 0
1, 110584, Note_off_c, 1, 52, 0
1, 110592, Note_on_c, 1, 74, 127
1, 110592, Note_on_c, 1, 54, 127
1, 110776, Note_off_c, 1, 74, 0
1, 110784, Note_on_c, 1, 76, 127
1, 110968, Note_off_c, 1, 54, 0
1, 110968, Note_off_c, 1, 76, 0
1, 110976, Note_on_c, 1, 77, 127
1, 110976, Note_on_c, 1, 56, 127
1, 111352, Note_off_c, 1, 56, 0
1, 111360, Note_on_c, 1, 57, 127
1, 111736, Note_off_c, 1, 77, 0
1, 111744, Note_on_c, 1, 76, 127
1, 111928, Note_off_c, 1, 76, 0
1, 111936, Note_on_c, 1, 75, 127
1, 112120, Note_off_c, 1, 75, 0
1, 112320, Note_on_c, 1, 71, 127
1, 112504, Note_off_c, 1, 57, 0
1, 112504, Note_off_c, 1, 71, 0
1, 112512, Note_on_c, 1, 76, 127
1, 112512, Note_on_c, 1, 55, 127
1, 112696, Note_off_c, 1, 76, 0
1, 112696, Note_off_c, 1, 55, 0
1, 112704, Note_on_c, 1, 78, 127
1, 112704, Note_on_c, 1, 54, 127
1, 112888, Note_off_c, 1, 78, 0
1, 112888, Note_off_c, 1, 54, 0
1, 112896, Note_on_c, 1, 76, 127
1, 112896, Note_on_c, 1, 55, 127
1, 113080, Note_off_c, 1, 76, 0
1, 113088, Note_on_c, 1, 71, 127
1, 113272, Note_off_c, 1, 55, 0
1, 113272, Note_off_c, 1, 71, 0
1, 113280, Note_on_c, 1, 76, 127
1, 113280, Note_on_c, 1, 52, 127
1, 113464, Note_off_c, 1, 76, 0
1, 113472, Note_on_c, 1, 79, 127
1, 113656, Note_off_c, 1, 79, 0
1, 113664, Note_on_c, 1, 78, 127
1, 113848, Note_off_c, 1, 78, 0
1, 113856, Note_on_c, 1, 71, 127
1, 114040, Note_off_c, 1, 52, 0
1, 114040, Note_off_c, 1, 71, 0
1, 114048, Note_on_c, 1, 78, 127
1, 114048, Note_on_c, 1, 51, 127
1, 114232, Note_off_c, 1, 78, 0
1, 114232, Note_off_c, 1, 51, 0
1, 114240, Note_on_c, 1, 79, 127
1, 114240, Note_on_c, 1, 49, 127
1, 114424, Note_off_c, 1, 79, 0
1, 114424, Note_off_c, 1, 49, 0
1, 114432, Note_on_c, 1, 78, 127
1, 114432, Note_on_c, 1, 52, 127
1, 114520, Note_off_c, 1, 52, 0
1, 114528, Note_on_c, 1, 51, 127
1, 114616, Note_off_c, 1, 78, 0
1, 114616, Note_off_c, 1, 51, 0
1, 114624, Note_on_c, 1, 71, 127
1, 114624, Note_on_c, 1, 52, 127
1, 114712, Note_off_c, 1, 52, 0
1, 114720, Note_on_c, 1, 51, 127
1, 114808, Note_off_c, 1, 71, 0
1, 114808, Note_off_c, 1, 51, 0
1, 114816, Note_on_c, 1, 78, 127
1, 114816, Note_on_c, 1, 52, 127
1, 114904, Note_off_c, 1, 52, 0
1, 114912, Note_on_c, 1, 51, 127
1, 115000, Note_off_c, 1, 78, 0
1, 115000, Note_off_c, 1, 51, 0
1, 115008, Note_on_c, 1, 81, 127
1, 115008, Note_on_c, 1, 49, 127
1, 115096, Note_off_c, 1, 49, 0
1, 115104, Note_on_c, 1, 51, 127
1, 115192, Note_off_c, 1, 81, 0
1, 115192, Note_off_c, 1, 51, 0
1, 115200, Note_on_c, 1, 79, 127
1, 115200, Note_on_c, 1, 52, 127
1, 115384, Note_off_c, 1, 79, 0
1, 115384, Note_off_c, 1, 52, 0
1, 115392, Note_on_c, 1, 71, 127
1, 115576, Note_off_c, 1, 71, 0
1, 115584, Note_on_c, 1, 79, 127
1, 115584, Note_on_c, 1, 59, 127
1, 115768, Note_off_c, 1, 79, 0
1, 115776, Note_on_c, 1, 81, 127
1, 115960, Note_off_c, 1, 59, 0
1, 115960, Note_off_c, 1, 81, 0
1, 115968, Note_on_c, 1, 79, 127
1, 115968, Note_on_c, 1, 64, 127
1, 116152, Note_off_c, 1, 79, 0
1, 116160, Note_on_c, 1, 71, 127
1, 116344, Note_off_c, 1, 71, 0
1, 116544, Note_on_c, 1, 83, 127
1, 116728, Note_off_c, 1, 83, 0
1, 116736, Note_on_c, 1, 78, 127
1, 116920, Note_off_c, 1, 78, 0
1, 117464, Note_off_c, 1, 64, 0
1, 117504, Note_on_c, 1, 78, 127
1, 117504, Note_on_c, 1, 64, 127
1, 117592, Note_off_c, 1, 64, 0
1, 117600, Note_on_c, 1, 63, 127
1, 117688, Note_off_c, 1, 78, 0
1, 117688, Note_off_c, 1, 63, 0
1, 117696, Note_on_c, 1, 71, 127
1, 117696, Note_on_c, 1, 64, 127
1, 117784, Note_off_c, 1, 64, 0
1, 117792, Note_on_c, 1, 63, 127
1, 117880, Note_off_c, 1, 71, 0
1, 117880, Note_off_c, 1, 63, 0
1, 117888, Note_on_c, 1, 78, 127
1, 117888, Note_on_c, 1, 64, 127
1, 117976, Note_off_c, 1, 64, 0
1, 117984, Note_on_c, 1, 63, 127
1, 118072, Note_off_c, 1, 78, 0
1, 118072, Note_off_c, 1, 63, 0
1, 118080, Note_on_c, 1, 81, 127
1, 118080, Note_on_c, 1, 61, 127
1, 118168, Note_off_c, 1, 61, 0
1, 118176, Note_on_c, 1, 63, 127
1, 118264, Note_off_c, 1, 81, 0
1, 118264, Note_off_c, 1, 63, 0
1, 118272, Note_on_c, 1, 79, 127
1, 118272, Note_on_c, 1, 64, 127
1, 118456, Note_off_c, 1, 79, 0
1, 118464, Note_on_c, 1, 71, 127
1, 118648, Note_off_c, 1, 71, 0
1, 118656, Note_on_c, 1, 76, 127
1, 118840, Note_off_c, 1, 76, 0
1, 118848, Note_on_c, 1, 78, 127
1, 119032, Note_off_c, 1, 64, 0
1, 119032, Note_off_c, 1, 78, 0
1, 119040, Note_on_c, 1, 79, 127
1, 119224, Note_off_c, 1, 79, 0
1, 119232, Note_on_c, 1, 81, 127
1, 119416, Note_off_c, 1, 81, 0
1, 119424, Note_on_c, 1, 82, 127
1, 119424, Note_on_c, 1, 62, 127
1, 119608, Note_off_c, 1, 82, 0
1, 119608, Note_off_c, 1, 62, 0
1, 119616, Note_on_c, 1, 79, 127
1, 119800, Note_off_c, 1, 79, 0
1, 119808, Note_on_c, 1, 76, 127
1, 119808, Note_on_c, 1, 61, 127
1, 119992, Note_off_c, 1, 76, 0
1, 119992, Note_off_c, 1, 61, 0
1, 120000, Note_on_c, 1, 77, 127
1, 120184, Note_off_c, 1, 77, 0
1, 120192, Note_on_c, 1, 79, 127
1, 120192, Note_on_c, 1, 70, 127
1, 120568, Note_off_c, 1, 70, 0
1, 120576, Note_on_c, 1, 69, 127
1, 120664, Note_off_c, 1, 69, 0
1, 120760, Note_off_c, 1, 79, 0
1, 120768, Note_on_c, 1, 77, 127
1, 120768, Note_on_c, 1, 69, 127
1, 120952, Note_off_c, 1, 77, 0
1, 120952, Note_off_c, 1, 69, 0
1, 120960, Note_on_c, 1, 76, 127
1, 120960, Note_on_c, 1, 67, 127
1, 121144, Note_off_c, 1, 76, 0
1, 121144, Note_off_c, 1, 67, 0
1, 121152, Note_on_c, 1, 74, 127
1, 121336, Note_off_c, 1, 74, 0
1, 121344, Note_on_c, 1, 73, 127
1, 121344, Note_on_c, 1, 58, 127
1, 121528, Note_off_c, 1, 73, 0
1, 121528, Note_off_c, 1, 58, 0
1, 121536, Note_on_c, 1, 74, 127
1, 121720, Note_off_c, 1, 74, 0
1, 121728, Note_on_c, 1, 76, 127
1, 121728, Note_on_c, 1, 67, 127
1, 122104, Note_off_c, 1, 67, 0
1, 122112, Note_on_c, 1, 65, 127
1, 122200, Note_off_c, 1, 65, 0
1, 122296, Note_off_c, 1, 76, 0
1, 122304, Note_on_c, 1, 74, 127
1, 122304, Note_on_c, 1, 65, 127
1, 122488, Note_off_c, 1, 74, 0
1, 122488, Note_off_c, 1, 65, 0
1, 122496, Note_on_c, 1, 73, 127
1, 122496, Note_on_c, 1, 64, 127
1, 122680, Note_off_c, 1, 73, 0
1, 122680, Note_off_c, 1, 64, 0
1, 122688, Note_on_c, 1, 71, 127
1, 122872, Note_off_c, 1, 71, 0
1, 122880, Note_on_c, 1, 73, 127
1, 122880, Note_on_c, 1, 55, 127
1, 123064, Note_off_c, 1, 73, 0
1, 123064, Note_off_c, 1, 55, 0
1, 123072, Note_on_c, 1, 69, 127
1, 123256, Note_off_c, 1, 69, 0
1, 123264, Note_on_c, 1, 73, 127
1, 123264, Note_on_c, 1, 64, 127
1, 123448, Note_off_c, 1, 73, 0
1, 123456, Note_on_c, 1, 74, 127
1, 123640, Note_off_c, 1, 64, 0
1, 123640, Note_off_c, 1, 74, 0
1, 123648, Note_on_c, 1, 76, 127
1, 123648, Note_on_c, 1, 62, 127
1, 123736, Note_off_c, 1, 62, 0
1, 123744, Note_on_c, 1, 64, 127
1, 123832, Note_off_c, 1, 76, 0
1, 123832, Note_off_c, 1, 64, 0
1, 123840, Note_on_c, 1, 77, 127
1, 123840, Note_on_c, 1, 62, 127
1, 124024, Note_off_c, 1, 77, 0
1, 124024, Note_off_c, 1, 62, 0
1, 124032, Note_on_c, 1, 79, 127
1, 124032, Note_on_c, 1, 61, 127
1, 124216, Note_off_c, 1, 79, 0
1, 124216, Note_off_c, 1, 61, 0
1, 124224, Note_on_c, 1, 76, 127
1, 124408, Note_off_c, 1, 76, 0
1, 124416, Note_on_c, 1, 77, 127
1, 124416, Note_on_c, 1, 62, 127
1, 124600, Note_off_c, 1, 77, 0
1, 124600, Note_off_c, 1, 62, 0
1, 124608, Note_on_c, 1, 76, 127
1, 124608, Note_on_c, 1, 57, 127
1, 124792, Note_off_c, 1, 76, 0
1, 124792, Note_off_c, 1, 57, 0
1, 124800, Note_on_c, 1, 74, 127
1, 124800, Note_on_c, 1, 62, 127
1, 124984, Note_off_c, 1, 74, 0
1, 124984, Note_off_c, 1, 62, 0
1, 124992, Note_on_c, 1, 73, 127
1, 124992, Note_on_c, 1, 64, 127
1, 125176, Note_off_c, 1, 73, 0
1, 125176, Note_off_c, 1, 64, 0
1, 125184, Note_on_c, 1, 74, 127
1, 125184, Note_on_c, 1, 65, 127
1, 125368, Note_off_c, 1, 74, 0
1, 125368, Note_off_c, 1, 65, 0
1, 125376, Note_on_c, 1, 67, 127
1, 125560, Note_off_c, 1, 67, 0
1, 125568, Note_on_c, 1, 72, 127
1, 125568, Note_on_c, 1, 68, 127
1, 125752, Note_off_c, 1, 72, 0
1, 125752, Note_off_c, 1, 68, 0
1, 125760, Note_on_c, 1, 65, 127
1, 125944, Note_off_c, 1, 65, 0
1, 125952, Note_on_c, 1, 71, 127
1, 125952, Note_on_c, 1, 62, 127
1, 126136, Note_off_c, 1, 71, 0
1, 126136, Note_off_c, 1, 62, 0
1, 126144, Note_on_c, 1, 64, 127
1, 126328, Note_off_c, 1, 64, 0
1, 126336, Note_on_c, 1, 80, 127
1, 126336, Note_on_c, 1, 65, 127
1, 126712, Note_off_c, 1, 80, 0
1, 126720, Note_on_c, 1, 79, 127
1, 126808, Note_off_c, 1, 79, 0
1, 126904, Note_off_c, 1, 65, 0
1, 126912, Note_on_c, 1, 79, 127
1, 126912, Note_on_c, 1, 64, 127
1, 127096, Note_off_c, 1, 79, 0
1, 127096, Note_off_c, 1, 64, 0
1, 127104, Note_on_c, 1, 77, 127
1, 127104, Note_on_c, 1, 62, 127
1, 127288, Note_off_c, 1, 77, 0
1, 127288, Note_off_c, 1, 62, 0
1, 127296, Note_on_c, 1, 60, 127
1, 127480, Note_off_c, 1, 60, 0
1, 127488, Note_on_c, 1, 68, 127
1, 127488, Note_on_c, 1, 59, 127
1, 127672, Note_off_c, 1, 68, 0
1, 127672, Note_off_c, 1, 59, 0
1, 127680, Note_on_c, 1, 60, 127
1, 127864, Note_off_c, 1, 60, 0
1, 127872, Note_on_c, 1, 77, 127
1, 127872, Note_on_c, 1, 62, 127
1, 128248, Note_off_c, 1, 77, 0
1, 128256, Note_on_c, 1, 76, 127
1, 128344, Note_off_c, 1, 76, 0
1, 128440, Note_off_c, 1, 62, 0
1, 128448, Note_on_c, 1, 76, 127
1, 128448, Note_on_c, 1, 60, 127
1, 128632, Note_off_c, 1, 76, 0
1, 128632, Note_off_c, 1, 60, 0
1, 128640, Note_on_c, 1, 74, 127
1, 128640, Note_on_c, 1, 59, 127
1, 128824, Note_off_c, 1, 74, 0
1, 128824, Note_off_c, 1, 59, 0
1, 128832, Note_on_c, 1, 57, 127
1, 129016, Note_off_c, 1, 57, 0
1, 129024, Note_on_c, 1, 65, 127
1, 129024, Note_on_c, 1, 59, 127
1, 129208, Note_off_c, 1, 65, 0
1, 129208, Note_off_c, 1, 59, 0
1, 129216, Note_on_c, 1, 55, 127
1, 129400, Note_off_c, 1, 55, 0
1, 129408, Note_on_c, 1, 74, 127
1, 129408, Note_on_c, 1, 59, 127
1, 129592, Note_off_c, 1, 59, 0
1, 129600, Note_on_c, 1, 60, 127
1, 129784, Note_off_c, 1, 74, 0
1, 129784, Note_off_c, 1, 60, 0
1, 129792, Note_on_c, 1, 72, 127
1, 129792, Note_on_c, 1, 62, 127
1, 129880, Note_off_c, 1, 72, 0
1, 129888, Note_on_c, 1, 74, 127
1, 129976, Note_off_c, 1, 62, 0
1, 129976, Note_off_c, 1, 74, 0
1, 129984, Note_on_c, 1, 72, 127
1, 129984, Note_on_c, 1, 64, 127
1, 130168, Note_off_c, 1, 72, 0
1, 130168, Note_off_c, 1, 64, 0
1, 130176, Note_on_c, 1, 71, 127
1, 130176, Note_on_c, 1, 65, 127
1, 130360, Note_off_c, 1, 71, 0
1, 130360, Note_off_c, 1, 65, 0
1, 130368, Note_on_c, 1, 62, 127
1, 130552, Note_off_c, 1, 62, 0
1, 130560, Note_on_c, 1, 72, 127
1, 130560, Note_on_c, 1, 64, 127
1, 130744, Note_off_c, 1, 72, 0
1, 130744, Note_off_c, 1, 64, 0
1, 130752, Note_on_c, 1, 67, 127
1, 130936, Note_off_c, 1, 67, 0
1, 130944, Note_on_c, 1, 72, 127
1, 130944, Note_on_c, 1, 52, 127
1, 131128, Note_off_c, 1, 72, 0
1, 131136, Note_on_c, 1, 74, 127
1, 131320, Note_off_c, 1, 52, 0
1, 131320, Note_off_c, 1, 74, 0
1, 131328, Note_on_c, 1, 76, 127
1, 131328, Note_on_c, 1, 57, 127
1, 131512, Note_off_c, 1, 76, 0
1, 131520, Note_on_c, 1, 66, 127
1, 131704, Note_off_c, 1, 66, 0
1, 131712, Note_on_c, 1, 69, 127
1, 131896, Note_off_c, 1, 69, 0
1, 131904, Note_on_c, 1, 72, 127
1, 132088, Note_off_c, 1, 72, 0
1, 132096, Note_on_c, 1, 71, 127
1, 132280, Note_off_c, 1, 71, 0
1, 132288, Note_on_c, 1, 63, 127
1, 132472, Note_off_c, 1, 57, 0
1, 132472, Note_off_c, 1, 63, 0
1, 132480, Note_on_c, 1, 71, 127
1, 132480, Note_on_c, 1, 55, 127
1, 132664, Note_off_c, 1, 71, 0
1, 132664, Note_off_c, 1, 55, 0
1, 132672, Note_on_c, 1, 72, 127
1, 132672, Note_on_c, 1, 54, 127
1, 132856, Note_off_c, 1, 72, 0
1, 132856, Note_off_c, 1, 54, 0
1, 132864, Note_on_c, 1, 71, 127
1, 132864, Note_on_c, 1, 55, 127
1, 133048, Note_off_c, 1, 71, 0
1, 133056, Note_on_c, 1, 64, 127
1, 133240, Note_off_c, 1, 64, 0
1, 133440, Note_on_c, 1, 74, 127
1, 133624, Note_off_c, 1, 74, 0
1, 133632, Note_on_c, 1, 73, 127
1, 133816, Note_off_c, 1, 73, 0
1, 133824, Note_on_c, 1, 69, 127
1, 134008, Note_off_c, 1, 55, 0
1, 134008, Note_off_c, 1, 69, 0
1, 134016, Note_on_c, 1, 73, 127
1, 134016, Note_on_c, 1, 57, 127
1, 134200, Note_off_c, 1, 73, 0
1, 134200, Note_off_c, 1, 57, 0
1, 134208, Note_on_c, 1, 75, 127
1, 134208, Note_on_c, 1, 59, 127
1, 134392, Note_off_c, 1, 75, 0
1, 134392, Note_off_c, 1, 59, 0
1, 134400, Note_on_c, 1, 76, 127
1, 134400, Note_on_c, 1, 60, 127
1, 134584, Note_off_c, 1, 76, 0
1, 134592, Note_on_c, 1, 67, 127
1, 134776, Note_off_c, 1, 67, 0
1, 134784, Note_on_c, 1, 72, 127
1, 134968, Note_off_c, 1, 72, 0
1, 135168, Note_on_c, 1, 74, 127
1, 135352, Note_off_c, 1, 74, 0
1, 135360, Note_on_c, 1, 66, 127
1, 135544, Note_off_c, 1, 60, 0
1, 135544, Note_off_c, 1, 66, 0
1, 135552, Note_on_c, 1, 74, 127
1, 135552, Note_on_c, 1, 58, 127
1, 135736, Note_off_c, 1, 74, 0
1, 135736, Note_off_c, 1, 58, 0
1, 135744, Note_on_c, 1, 75, 127
1, 135744, Note_on_c, 1, 57, 127
1, 135928, Note_off_c, 1, 75, 0
1, 135928, Note_off_c, 1, 57, 0
1, 135936, Note_on_c, 1, 74, 127
1, 135936, Note_on_c, 1, 58, 127
1, 136120, Note_off_c, 1, 74, 0
1, 136128, Note_on_c, 1, 67, 127
1, 136312, Note_off_c, 1, 67, 0
1, 136512, Note_on_c, 1, 77, 127
1, 136696, Note_off_c, 1, 77, 0
1, 136704, Note_on_c, 1, 76, 127
1, 136888, Note_off_c, 1, 76, 0
1, 136896, Note_on_c, 1, 72, 127
1, 137080, Note_off_c, 1, 58, 0
1, 137080, Note_off_c, 1, 72, 0
1, 137088, Note_on_c, 1, 76, 127
1, 137088, Note_on_c, 1, 60, 127
1, 137272, Note_off_c, 1, 76, 0
1, 137272, Note_off_c, 1, 60, 0
1, 137280, Note_on_c, 1, 78, 127
1, 137280, Note_on_c, 1, 62, 127
1, 137464, Note_off_c, 1, 78, 0
1, 137464, Note_off_c, 1, 62, 0
1, 137472, Note_on_c, 1, 79, 127
1, 137472, Note_on_c, 1, 63, 127
1, 137656, Note_off_c, 1, 79, 0
1, 137664, Note_on_c, 1, 70, 127
1, 137848, Note_off_c, 1, 70, 0
1, 137856, Note_on_c, 1, 75, 127
1, 138040, Note_off_c, 1, 75, 0
1, 138240, Note_on_c, 1, 77, 127
1, 138424, Note_off_c, 1, 77, 0
1, 138432, Note_on_c, 1, 69, 127
1, 138616, Note_off_c, 1, 63, 0
1, 138616, Note_off_c, 1, 69, 0
1, 138624, Note_on_c, 1, 77, 127
1, 138624, Note_on_c, 1, 62, 127
1, 138808, Note_off_c, 1, 77, 0
1, 138808, Note_off_c, 1, 62, 0
1, 138816, Note_on_c, 1, 79, 127
1, 138816, Note_on_c, 1, 61, 127
1, 139000, Note_off_c, 1, 79, 0
1, 139000, Note_off_c, 1, 61, 0
1, 139008, Note_on_c, 1, 77, 127
1, 139008, Note_on_c, 1, 62, 127
1, 139192, Note_off_c, 1, 77, 0
1, 139200, Note_on_c, 1, 70, 127
1, 139384, Note_off_c, 1, 70, 0
1, 139392, Note_on_c, 1, 74, 127
1, 139576, Note_off_c, 1, 74, 0
1, 139776, Note_on_c, 1, 76, 127
1, 139960, Note_off_c, 1, 76, 0
1, 139968, Note_on_c, 1, 68, 127
1, 140152, Note_off_c, 1, 68, 0
1, 140288, Note_off_c, 1, 62, 0
1, 140352, Note_on_c, 1, 77, 127
1, 140536, Note_off_c, 1, 77, 0
1, 140544, Note_on_c, 1, 76, 127
1, 140544, Note_on_c, 1, 62, 127
1, 140632, Note_off_c, 1, 62, 0
1, 140640, Note_on_c, 1, 61, 127
1, 140728, Note_off_c, 1, 76, 0
1, 140728, Note_off_c, 1, 61, 0
1, 140736, Note_on_c, 1, 69, 127
1, 140736, Note_on_c, 1, 62, 127
1, 140824, Note_off_c, 1, 62, 0
1, 140832, Note_on_c, 1, 61, 127
1, 140920, Note_off_c, 1, 69, 0
1, 140920, Note_off_c, 1, 61, 0
1, 140928, Note_on_c, 1, 76, 127
1, 140928, Note_on_c, 1, 62, 127
1, 141016, Note_off_c, 1, 62, 0
1, 141024, Note_on_c, 1, 61, 127
1, 141112, Note_off_c, 1, 76, 0
1, 141112, Note_off_c, 1, 61, 0
1, 141120, Note_on_c, 1, 79, 127
1, 141120, Note_on_c, 1, 59, 127
1, 141208, Note_off_c, 1, 59, 0
1, 141216, Note_on_c, 1, 61, 127
1, 141304, Note_off_c, 1, 79, 0
1, 141304, Note_off_c, 1, 61, 0
1, 141312, Note_on_c, 1, 77, 127
1, 141312, Note_on_c, 1, 62, 127
1, 141496, Note_off_c, 1, 77, 0
1, 141496, Note_off_c, 1, 62, 0
1, 141504, Note_on_c, 1, 79, 127
1, 141688, Note_off_c, 1, 79, 0
1, 141696, Note_on_c, 1, 77, 127
1, 141696, Note_on_c, 1, 64, 127
1, 141880, Note_off_c, 1, 77, 0
1, 141888, Note_on_c, 1, 76, 127
1, 142072, Note_off_c, 1, 64, 0
1, 142072, Note_off_c, 1, 76, 0
1, 142080, Note_on_c, 1, 74, 127
1, 142080, Note_on_c, 1, 65, 127
1, 142264, Note_off_c, 1, 74, 0
1, 142272, Note_on_c, 1, 72, 127
1, 142456, Note_off_c, 1, 65, 0
1, 142456, Note_off_c, 1, 72, 0
1, 142464, Note_on_c, 1, 71, 127
1, 142464, Note_on_c, 1, 62, 127
1, 142648, Note_off_c, 1, 71, 0
1, 142656, Note_on_c, 1, 69, 127
1, 142840, Note_off_c, 1, 62, 0
1, 142840, Note_off_c, 1, 69, 0
1, 142848, Note_on_c, 1, 68, 127
1, 142848, Note_on_c, 1, 64, 127
1, 143032, Note_off_c, 1, 68, 0
1, 143224, Note_off_c, 1, 64, 0
1, 143232, Note_on_c, 1, 66, 127
1, 143232, Note_on_c, 1, 62, 127
1, 143416, Note_off_c, 1, 66, 0
1, 143424, Note_on_c, 1, 68, 127
1, 143608, Note_off_c, 1, 62, 0
1, 143608, Note_off_c, 1, 68, 0
1, 143616, Note_on_c, 1, 69, 127
1, 143616, Note_on_c, 1, 60, 127
1, 143800, Note_off_c, 1, 69, 0
1, 143808, Note_on_c, 1, 68, 127
1, 143992, Note_off_c, 1, 60, 0
1, 143992, Note_off_c, 1, 68, 0
1, 144000, Note_on_c, 1, 69, 127
1, 144000, Note_on_c, 1, 59, 127
1, 144184, Note_off_c, 1, 69, 0
1, 144192, Note_on_c, 1, 71, 127
1, 144376, Note_off_c, 1, 59, 0
1, 144376, Note_off_c, 1, 71, 0
1, 144384, Note_on_c, 1, 72, 127
1, 144384, Note_on_c, 1, 57, 127
1, 144568, Note_off_c, 1, 57, 0
1, 144576, Note_on_c, 1, 52, 127
1, 144760, Note_off_c, 1, 52, 0
1, 144952, Note_off_c, 1, 72, 0
1, 145152, Note_on_c, 1, 64, 127
1, 145536, Note_on_c, 1, 56, 127
1, 145624, Note_off_c, 1, 56, 0
1, 145912, Note_off_c, 1, 64, 0
1, 145920, Note_on_c, 1, 65, 127
1, 145920, Note_on_c, 1, 57, 127
1, 146104, Note_off_c, 1, 65, 0
1, 146112, Note_on_c, 1, 64, 127
1, 146296, Note_off_c, 1, 64, 0
1, 146304, Note_on_c, 1, 62, 127
1, 146488, Note_off_c, 1, 62, 0
1, 146496, Note_on_c, 1, 61, 127
1, 146680, Note_off_c, 1, 57, 0
1, 146680, Note_off_c, 1, 61, 0
1, 146688, Note_on_c, 1, 62, 127
1, 146688, Note_on_c, 1, 59, 127
1, 146872, Note_off_c, 1, 62, 0
1, 146880, Note_on_c, 1, 64, 127
1, 147064, Note_off_c, 1, 64, 0
1, 147072, Note_on_c, 1, 66, 127
1, 147256, Note_off_c, 1, 66, 0
1, 147264, Note_on_c, 1, 68, 127
1, 147448, Note_off_c, 1, 59, 0
1, 147448, Note_off_c, 1, 68, 0
1, 147456, Note_on_c, 1, 69, 127
1, 147456, Note_on_c, 1, 60, 127
1, 147640, Note_off_c, 1, 69, 0
1, 147648, Note_on_c, 1, 64, 127
1, 147832, Note_off_c, 1, 64, 0
1, 148216, Note_off_c, 1, 60, 0
1, 148224, Note_on_c, 1, 52, 127
1, 148608, Note_on_c, 1, 68, 127
1, 148984, Note_off_c, 1, 52, 0
1, 148984, Note_off_c, 1, 68, 0
1, 148992, Note_on_c, 1, 69, 127
1, 148992, Note_on_c, 1, 53, 127
1, 149176, Note_off_c, 1, 53, 0
1, 149184, Note_on_c, 1, 52, 127
1, 149368, Note_off_c, 1, 69, 0
1, 149368, Note_off_c, 1, 52, 0
1, 149376, Note_on_c, 1, 71, 127
1, 149376, Note_on_c, 1, 50, 127
1, 149752, Note_off_c, 1, 71, 0
1, 149760, Note_on_c, 1, 72, 127
1, 150136, Note_off_c, 1, 50, 0
1, 150136, Note_off_c, 1, 72, 0
1, 150144, Note_on_c, 1, 71, 127
1, 150144, Note_on_c, 1, 52, 127
1, 150328, Note_off_c, 1, 71, 0
1, 150328, Note_off_c, 1, 52, 0
1, 150336, Note_on_c, 1, 69, 127
1, 150336, Note_on_c, 1, 54, 127
1, 150520, Note_off_c, 1, 69, 0
1, 150520, Note_off_c, 1, 54, 0
1, 150528, Note_on_c, 1, 71, 127
1, 150528, Note_on_c, 1, 55, 127
1, 150712, Note_off_c, 1, 55, 0
1, 150720, Note_on_c, 1, 57, 127
1, 150904, Note_off_c, 1, 71, 0
1, 150904, Note_off_c, 1, 57, 0
1, 150912, Note_on_c, 1, 73, 127
1, 150912, Note_on_c, 1, 58, 127
1, 151288, Note_off_c, 1, 73, 0
1, 151296, Note_on_c, 1, 74, 127
1, 151672, Note_off_c, 1, 58, 0
1, 151680, Note_on_c, 1, 57, 127
1, 151864, Note_off_c, 1, 57, 0
1, 151872, Note_on_c, 1, 56, 127
1, 152056, Note_off_c, 1, 56, 0
1, 152256, Note_on_c, 1, 52, 127
1, 152344, Note_off_c, 1, 74, 0
1, 152440, Note_off_c, 1, 52, 0
1, 152448, Note_on_c, 1, 72, 127
1, 152448, Note_on_c, 1, 57, 127
1, 152632, Note_off_c, 1, 72, 0
1, 152632, Note_off_c, 1, 57, 0
1, 152640, Note_on_c, 1, 71, 127
1, 152640, Note_on_c, 1, 59, 127
1, 152824, Note_off_c, 1, 71, 0
1, 152824, Note_off_c, 1, 59, 0
1, 152832, Note_on_c, 1, 72, 127
1, 152832, Note_on_c, 1, 57, 127
1, 153016, Note_off_c, 1, 72, 0
1, 153016, Note_off_c, 1, 57, 0
1, 153024, Note_on_c, 1, 52, 127
1, 153208, Note_off_c, 1, 52, 0
1, 153216, Note_on_c, 1, 69, 127
1, 153216, Note_on_c, 1, 57, 127
1, 153400, Note_off_c, 1, 57, 0
1, 153408, Note_on_c, 1, 60, 127
1, 153592, Note_off_c, 1, 60, 0
1, 153600, Note_on_c, 1, 59, 127
1, 153784, Note_off_c, 1, 59, 0
1, 153792, Note_on_c, 1, 52, 127
1, 153976, Note_off_c, 1, 69, 0
1, 153976, Note_off_c, 1, 52, 0
1, 153984, Note_on_c, 1, 68, 127
1, 153984, Note_on_c, 1, 59, 127
1, 154168, Note_off_c, 1, 68, 0
1, 154168, Note_off_c, 1, 59, 0
1, 154176, Note_on_c, 1, 66, 127
1, 154176, Note_on_c, 1, 60, 127
1, 154360, Note_off_c, 1, 66, 0
1, 154360, Note_off_c, 1, 60, 0
1, 154368, Note_on_c, 1, 69, 127
1, 154368, Note_on_c, 1, 59, 127
1, 154456, Note_off_c, 1, 69, 0
1, 154464, Note_on_c, 1, 68, 127
1, 154552, Note_off_c, 1, 59, 0
1, 154552, Note_off_c, 1, 68, 0
1, 154560, Note_on_c, 1, 69, 127
1, 154560, Note_on_c, 1, 52, 127
1, 154648, Note_off_c, 1, 69, 0
1, 154656, Note_on_c, 1, 68, 127
1, 154744, Note_off_c, 1, 52, 0
1, 154744, Note_off_c, 1, 68, 0
1, 154752, Note_on_c, 1, 69, 127
1, 154752, Note_on_c, 1, 59, 127
1, 154840, Note_off_c, 1, 69, 0
1, 154848, Note_on_c, 1, 68, 127
1, 154936, Note_off_c, 1, 59, 0
1, 154936, Note_off_c, 1, 68, 0
1, 154944, Note_on_c, 1, 66, 127
1, 154944, Note_on_c, 1, 62, 127
1, 155032, Note_off_c, 1, 66, 0
1, 155040, Note_on_c, 1, 68, 127
1, 155128, Note_off_c, 1, 62, 0
1, 155128, Note_off_c, 1, 68, 0
1, 155136, Note_on_c, 1, 69, 127
1, 155136, Note_on_c, 1, 60, 127
1, 155320, Note_off_c, 1, 69, 0
1, 155320, Note_off_c, 1, 60, 0
1, 155328, Note_on_c, 1, 52, 127
1, 155512, Note_off_c, 1, 52, 0
1, 155520, Note_on_c, 1, 76, 127
1, 155520, Note_on_c, 1, 60, 127
1, 155704, Note_off_c, 1, 76, 0
1, 155704, Note_off_c, 1, 60, 0
1, 155712, Note_on_c, 1, 62, 127
1, 155896, Note_off_c, 1, 62, 0
1, 155904, Note_on_c, 1, 81, 127
1, 155904, Note_on_c, 1, 60, 127
1, 156088, Note_off_c, 1, 60, 0
1, 156096, Note_on_c, 1, 52, 127
1, 156280, Note_off_c, 1, 52, 0
1, 156480, Note_on_c, 1, 64, 127
1, 156664, Note_off_c, 1, 64, 0
1, 156672, Note_on_c, 1, 59, 127
1, 156856, Note_off_c, 1, 59, 0
1, 157256, Note_off_c, 1, 81, 0
1, 157440, Note_on_c, 1, 81, 127
1, 157440, Note_on_c, 1, 59, 127
1, 157528, Note_off_c, 1, 81, 0
1, 157536, Note_on_c, 1, 80, 127
1, 157624, Note_off_c, 1, 59, 0
1, 157624, Note_off_c, 1, 80, 0
1, 157632, Note_on_c, 1, 81, 127
1, 157632, Note_on_c, 1, 52, 127
1, 157720, Note_off_c, 1, 81, 0
1, 157728, Note_on_c, 1, 80, 127
1, 157816, Note_off_c, 1, 52, 0
1, 157816, Note_off_c, 1, 80, 0
1, 157824, Note_on_c, 1, 81, 127
1, 157824, Note_on_c, 1, 59, 127
1, 157912, Note_off_c, 1, 81, 0
1, 157920, Note_on_c, 1, 80, 127
1, 158008, Note_off_c, 1, 59, 0
1, 158008, Note_off_c, 1, 80, 0
1, 158016, Note_on_c, 1, 78, 127
1, 158016, Note_on_c, 1, 62, 127
1, 158104, Note_off_c, 1, 78, 0
1, 158112, Note_on_c, 1, 80, 127
1, 158200, Note_off_c, 1, 62, 0
1, 158200, Note_off_c, 1, 80, 0
1, 158208, Note_on_c, 1, 81, 127
1, 158208, Note_on_c, 1, 60, 127
1, 158392, Note_off_c, 1, 81, 0
1, 158392, Note_off_c, 1, 60, 0
1, 158400, Note_on_c, 1, 79, 127
1, 158400, Note_on_c, 1, 57, 127
1, 158584, Note_off_c, 1, 79, 0
1, 158584, Note_off_c, 1, 57, 0
1, 158592, Note_on_c, 1, 77, 127
1, 158592, Note_on_c, 1, 59, 127
1, 158776, Note_off_c, 1, 59, 0
1, 158784, Note_on_c, 1, 61, 127
1, 158968, Note_off_c, 1, 61, 0
1, 158976, Note_on_c, 1, 62, 127
1, 159160, Note_off_c, 1, 77, 0
1, 159160, Note_off_c, 1, 62, 0
1, 159168, Note_on_c, 1, 76, 127
1, 159168, Note_on_c, 1, 64, 127
1, 159352, Note_off_c, 1, 76, 0
1, 159352, Note_off_c, 1, 64, 0
1, 159360, Note_on_c, 1, 74, 127
1, 159360, Note_on_c, 1, 65, 127
1, 159544, Note_off_c, 1, 74, 0
1, 159544, Note_off_c, 1, 65, 0
1, 159552, Note_on_c, 1, 73, 127
1, 159552, Note_on_c, 1, 67, 127
1, 159736, Note_off_c, 1, 73, 0
1, 159736, Note_off_c, 1, 67, 0
1, 159744, Note_on_c, 1, 74, 127
1, 159744, Note_on_c, 1, 65, 127
1, 159928, Note_off_c, 1, 74, 0
1, 159928, Note_off_c, 1, 65, 0
1, 159936, Note_on_c, 1, 72, 127
1, 159936, Note_on_c, 1, 64, 127
1, 160120, Note_off_c, 1, 72, 0
1, 160120, Note_off_c, 1, 64, 0
1, 160128, Note_on_c, 1, 70, 127
1, 160128, Note_on_c, 1, 62, 127
1, 160312, Note_off_c, 1, 62, 0
1, 160320, Note_on_c, 1, 61, 127
1, 160504, Note_off_c, 1, 61, 0
1, 160696, Note_off_c, 1, 70, 0
1, 160704, Note_on_c, 1, 69, 127
1, 160888, Note_off_c, 1, 69, 0
1, 160896, Note_on_c, 1, 68, 127
1, 160896, Note_on_c, 1, 50, 127
1, 161080, Note_off_c, 1, 68, 0
1, 161088, Note_on_c, 1, 66, 127
1, 161272, Note_off_c, 1, 66, 0
1, 161656, Note_off_c, 1, 50, 0
1, 161664, Note_on_c, 1, 64, 127
1, 161664, Note_on_c, 1, 48, 127
1, 161848, Note_off_c, 1, 64, 0
1, 161848, Note_off_c, 1, 48, 0
1, 161856, Note_on_c, 1, 47, 127
1, 162040, Note_off_c, 1, 47, 0
1, 162048, Note_on_c, 1, 76, 127
1, 162048, Note_on_c, 1, 48, 127
1, 162424, Note_off_c, 1, 76, 0
1, 162424, Note_off_c, 1, 48, 0
1, 162432, Note_on_c, 1, 77, 127
1, 162432, Note_on_c, 1, 50, 127
1, 162808, Note_off_c, 1, 77, 0
1, 162808, Note_off_c, 1, 50, 0
1, 162816, Note_on_c, 1, 74, 127
1, 162816, Note_on_c, 1, 52, 127
1, 163000, Note_off_c, 1, 74, 0
1, 163008, Note_on_c, 1, 72, 127
1, 163192, Note_off_c, 1, 52, 0
1, 163200, Note_on_c, 1, 50, 127
1, 163384, Note_off_c, 1, 72, 0
1, 163576, Note_off_c, 1, 50, 0
1, 163584, Note_on_c, 1, 52, 127
1, 163616, Note_on_c, 1, 72, 127
1, 163712, Note_on_c, 1, 71, 127
1, 163728, Note_off_c, 1, 72, 0
1, 163800, Note_off_c, 1, 71, 0
1, 163960, Note_off_c, 1, 52, 0
1, 163968, Note_on_c, 1, 40, 127
1, 164088, Note_on_c, 1, 69, 127
1, 164144, Note_off_c, 1, 69, 0
1, 164344, Note_off_c, 1, 40, 0
1, 164352, Note_on_c, 1, 45, 127
1, 165880, Note_off_c, 1, 45, 0
1, 165880, End_track
0, 0, End_of_file