0, 0, Header, 1, 1, 480
1, 0, Start_track
1, 0, Title_t, "Test"
1, 0, Tempo, 500000
1, 0, Instrument_name_t, "Church Organ"
1, 0, Note_on_c, 1, 62, 127
1, 96, Note_off_c, 1, 62, 0
1, 120, Note_on_c, 1, 62, 127
1, 120, Note_on_c, 1, 55, 127
1, 240, Note_on_c, 1, 60, 127
1, 336, Note_off_c, 1, 60, 0
1, 360, Note_on_c, 1, 58, 127
1, 456, Note_off_c, 1, 58, 0
1, 480, Note_on_c, 1, 57, 127
1, 576, Note_off_c, 1, 57, 0
1, 696, Note_off_c, 1, 55, 0
1, 720, Note_on_c, 1, 54, 127
1, 816, Note_off_c, 1, 54, 0
1, 888, Note_off_c, 1, 62, 0
1, 960, Note_on_c, 1, 50, 127
1, 1056, Note_off_c, 1, 50, 0
1, 1080, Note_on_c, 1, 67, 127
1, 1080, Note_on_c, 1, 51, 127
1, 1176, Note_off_c, 1, 67, 0
1, 1176, Note_off_c, 1, 51, 0
1, 1200, Note_on_c, 1, 69, 127
1, 1200, Note_on_c, 1, 48, 127
1, 1296, Note_off_c, 1, 69, 0
1, 1296, Note_off_c, 1, 48, 0
1, 1320, Note_on_c, 1, 66, 127
1, 1320, Note_on_c, 1, 50, 127
1, 1416, Note_off_c, 1, 66, 0
1, 1416, Note_off_c, 1, 50, 0
1, 1440, Note_on_c, 1, 67, 127
1, 1440, Note_on_c, 1, 51, 127
1, 1536, Note_off_c, 1, 67, 0
1, 1536, Note_off_c, 1, 51, 0
1, 1560, Note_on_c, 1, 69, 127
1, 1560, Note_on_c, 1, 42, 127
1, 1680, Note_on_c, 1, 63, 127
1, 1776, Note_off_c, 1, 63, 0
1, 1800, Note_on_c, 1, 62, 127
1, 1896, Note_off_c, 1, 62, 0
1, 1920, Note_on_c, 1, 60, 127
1, 1944, Note_off_c, 1, 69, 0
1, 1944, Note_off_c, 1, 42, 0
1, 2016, Note_off_c, 1, 60, 0
1, 2040, Note_on_c, 1, 62, 127
1, 2160, Note_on_c, 1, 57, 127
1, 2256, Note_off_c, 1, 57, 0
1, 2280, Note_on_c, 1, 58, 127
1, 2328, Note_off_c, 1, 62, 0
1, 2376, Note_off_c, 1, 58, 0
1, 2400, Note_on_c, 1, 62, 127
1, 2400, Note_on_c, 1, 60, 127
1, 2496, Note_off_c, 1, 62, 0
1, 2496, Note_off_c, 1, 60, 0
1, 2520, Note_on_c, 1, 69, 127
1, 2520, Note_on_c, 1, 54, 127
1, 2616, Note_off_c, 1, 69, 0
1, 2616, Note_off_c, 1, 54, 0
1, 2640, Note_on_c, 1, 70, 127
1, 2640, Note_on_c, 1, 55, 127
1, 2736, Note_off_c, 1, 70, 0
1, 2736, Note_off_c, 1, 55, 0
1, 2760, Note_on_c, 1, 67, 127
1, 2760, Note_on_c, 1, 57, 127
1, 2856, Note_off_c, 1, 67, 0
1, 2856, Note_off_c, 1, 57, 0
1, 2880, Note_on_c, 1, 69, 127
1, 2880, Note_on_c, 1, 50, 127
1, 2976, Note_off_c, 1, 69, 0
1, 2976, Note_off_c, 1, 50, 0
1, 3000, Note_on_c, 1, 70, 127
1, 3000, Note_on_c, 1, 55, 127
1, 3120, Note_on_c, 1, 69, 127
1, 3180, Note_off_c, 1, 55, 0
1, 3216, Note_off_c, 1, 69, 0
1, 3240, Note_on_c, 1, 67, 127
1, 3240, Note_on_c, 1, 50, 127
1, 3336, Note_off_c, 1, 67, 0
1, 3360, Note_on_c, 1, 66, 127
1, 3384, Note_off_c, 1, 70, 0
1, 3420, Note_off_c, 1, 50, 0
1, 3456, Note_off_c, 1, 66, 0
1, 3480, Note_on_c, 1, 67, 127
1, 3480, Note_on_c, 1, 51, 127
1, 3576, Note_off_c, 1, 67, 0
1, 3600, Note_on_c, 1, 62, 127
1, 3660, Note_off_c, 1, 51, 0
1, 3696, Note_off_c, 1, 62, 0
1, 3720, Note_on_c, 1, 63, 127
1, 3720, Note_on_c, 1, 55, 127
1, 3816, Note_off_c, 1, 63, 0
1, 3840, Note_on_c, 1, 70, 127
1, 3900, Note_off_c, 1, 55, 0
1, 3936, Note_off_c, 1, 70, 0
1, 3960, Note_on_c, 1, 69, 127
1, 3960, Note_on_c, 1, 48, 127
1, 4056, Note_off_c, 1, 69, 0
1, 4080, Note_on_c, 1, 72, 127
1, 4140, Note_off_c, 1, 48, 0
1, 4176, Note_off_c, 1, 72, 0
1, 4200, Note_on_c, 1, 66, 127
1, 4200, Note_on_c, 1, 51, 127
1, 4296, Note_off_c, 1, 66, 0
1, 4320, Note_on_c, 1, 67, 127
1, 4380, Note_off_c, 1, 51, 0
1, 4416, Note_off_c, 1, 67, 0
1, 4440, Note_on_c, 1, 66, 127
1, 4440, Note_on_c, 1, 50, 127
1, 4464, Note_off_c, 1, 66, 0
1, 4470, Note_on_c, 1, 67, 127
1, 4494, Note_off_c, 1, 67, 0
1, 4680, Note_on_c, 1, 64, 127
1, 4728, Note_off_c, 1, 50, 0
1, 4776, Note_off_c, 1, 64, 0
1, 4800, Note_on_c, 1, 62, 127
1, 4800, Note_on_c, 1, 48, 127
1, 4896, Note_off_c, 1, 62, 0
1, 4896, Note_off_c, 1, 48, 0
1, 4920, Note_on_c, 1, 74, 127
1, 4920, Note_on_c, 1, 46, 127
1, 5016, Note_off_c, 1, 46, 0
1, 5040, Note_on_c, 1, 45, 127
1, 5136, Note_off_c, 1, 45, 0
1, 5208, Note_off_c, 1, 74, 0
1, 5280, Note_on_c, 1, 75, 127
1, 5280, Note_on_c, 1, 43, 127
1, 5376, Note_off_c, 1, 75, 0
1, 5376, Note_off_c, 1, 43, 0
1, 5400, Note_on_c, 1, 74, 127
1, 5400, Note_on_c, 1, 50, 127
1, 5496, Note_off_c, 1, 74, 0
1, 5520, Note_on_c, 1, 72, 127
1, 5580, Note_off_c, 1, 50, 0
1, 5616, Note_off_c, 1, 72, 0
1, 5640, Note_on_c, 1, 70, 127
1, 5640, Note_on_c, 1, 38, 127
1, 5736, Note_off_c, 1, 70, 0
1, 5760, Note_on_c, 1, 69, 127
1, 5832, Note_off_c, 1, 38, 0
1, 5856, Note_off_c, 1, 69, 0
1, 5880, Note_on_c, 1, 70, 127
1, 5880, Note_on_c, 1, 43, 127
1, 5976, Note_off_c, 1, 70, 0
1, 6000, Note_on_c, 1, 69, 127
1, 6096, Note_off_c, 1, 69, 0
1, 6120, Note_on_c, 1, 67, 127
1, 6120, Note_on_c, 1, 46, 127
1, 6216, Note_off_c, 1, 67, 0
1, 6312, Note_off_c, 1, 46, 0
1, 6360, Note_on_c, 1, 50, 127
1, 6456, Note_off_c, 1, 43, 0
1, 6480, Note_on_c, 1, 72, 127
1, 6552, Note_off_c, 1, 50, 0
1, 6576, Note_off_c, 1, 72, 0
1, 6600, Note_on_c, 1, 74, 127
1, 6600, Note_on_c, 1, 55, 127
1, 6696, Note_off_c, 1, 74, 0
1, 6720, Note_on_c, 1, 75, 127
1, 6792, Note_off_c, 1, 55, 0
1, 6816, Note_off_c, 1, 75, 0
1, 6840, Note_on_c, 1, 77, 127
1, 6840, Note_on_c, 1, 53, 127
1, 6864, Note_off_c, 1, 77, 0
1, 6870, Note_on_c, 1, 75, 127
1, 6894, Note_off_c, 1, 75, 0
1, 7032, Note_off_c, 1, 53, 0
1, 7050, Note_on_c, 1, 75, 127
1, 7074, Note_off_c, 1, 75, 0
1, 7080, Note_on_c, 1, 77, 127
1, 7080, Note_on_c, 1, 51, 127
1, 7104, Note_off_c, 1, 77, 0
1, 7110, Note_on_c, 1, 75, 127
1, 7188, Note_off_c, 1, 75, 0
1, 7200, Note_on_c, 1, 74, 127
1, 7248, Note_off_c, 1, 74, 0
1, 7272, Note_off_c, 1, 51, 0
1, 7320, Note_on_c, 1, 77, 127
1, 7320, Note_on_c, 1, 50, 127
1, 7416, Note_off_c, 1, 50, 0
1, 7440, Note_on_c, 1, 53, 127
1, 7536, Note_off_c, 1, 53, 0
1, 7560, Note_on_c, 1, 55, 127
1, 7608, Note_off_c, 1, 77, 0
1, 7656, Note_off_c, 1, 55, 0
1, 7680, Note_on_c, 1, 75, 127
1, 7680, Note_on_c, 1, 57, 127
1, 7776, Note_off_c, 1, 75, 0
1, 7776, Note_off_c, 1, 57, 0
1, 7800, Note_on_c, 1, 74, 127
1, 7800, Note_on_c, 1, 58, 127
1, 7896, Note_off_c, 1, 74, 0
1, 7896, Note_off_c, 1, 58, 0
1, 7920, Note_on_c, 1, 72, 127
1, 7920, Note_on_c, 1, 57, 127
1, 8016, Note_off_c, 1, 72, 0
1, 8016, Note_off_c, 1, 57, 0
1, 8040, Note_on_c, 1, 70, 127
1, 8040, Note_on_c, 1, 58, 127
1, 8136, Note_off_c, 1, 70, 0
1, 8136, Note_off_c, 1, 58, 0
1, 8160, Note_on_c, 1, 69, 127
1, 8160, Note_on_c, 1, 60, 127
1, 8256, Note_off_c, 1, 69, 0
1, 8256, Note_off_c, 1, 60, 0
1, 8280, Note_on_c, 1, 70, 127
1, 8280, Note_on_c, 1, 62, 127
1, 8376, Note_off_c, 1, 70, 0
1, 8400, Note_on_c, 1, 72, 127
1, 8460, Note_off_c, 1, 62, 0
1, 8496, Note_off_c, 1, 72, 0
1, 8520, Note_on_c, 1, 65, 127
1, 8520, Note_on_c, 1, 58, 127
1, 8616, Note_off_c, 1, 65, 0
1, 8640, Note_on_c, 1, 68, 127
1, 8700, Note_off_c, 1, 58, 0
1, 8736, Note_off_c, 1, 68, 0
1, 8760, Note_on_c, 1, 67, 127
1, 8760, Note_on_c, 1, 63, 127
1, 8856, Note_off_c, 1, 63, 0
1, 8880, Note_on_c, 1, 65, 127
1, 8940, Note_off_c, 1, 67, 0
1, 8976, Note_off_c, 1, 65, 0
1, 9000, Note_on_c, 1, 79, 127
1, 9000, Note_on_c, 1, 63, 127
1, 9096, Note_off_c, 1, 63, 0
1, 9120, Note_on_c, 1, 62, 127
1, 9216, Note_off_c, 1, 62, 0
1, 9240, Note_on_c, 1, 60, 127
1, 9336, Note_off_c, 1, 79, 0
1, 9360, Note_on_c, 1, 77, 127
1, 9420, Note_off_c, 1, 60, 0
1, 9456, Note_off_c, 1, 77, 0
1, 9480, Note_on_c, 1, 75, 127
1, 9480, Note_on_c, 1, 62, 127
1, 9576, Note_off_c, 1, 75, 0
1, 9600, Note_on_c, 1, 74, 127
1, 9660, Note_off_c, 1, 62, 0
1, 9696, Note_off_c, 1, 74, 0
1, 9720, Note_on_c, 1, 72, 127
1, 9720, Note_on_c, 1, 63, 127
1, 9816, Note_off_c, 1, 72, 0
1, 9840, Note_on_c, 1, 74, 127
1, 9900, Note_off_c, 1, 63, 0
1, 9936, Note_off_c, 1, 74, 0
1, 9960, Note_on_c, 1, 75, 127
1, 9960, Note_on_c, 1, 60, 127
1, 10056, Note_off_c, 1, 75, 0
1, 10080, Note_on_c, 1, 70, 127
1, 10140, Note_off_c, 1, 60, 0
1, 10176, Note_off_c, 1, 70, 0
1, 10200, Note_on_c, 1, 69, 127
1, 10200, Note_on_c, 1, 65, 127
1, 10296, Note_off_c, 1, 69, 0
1, 10320, Note_on_c, 1, 72, 127
1, 10380, Note_off_c, 1, 65, 0
1, 10416, Note_off_c, 1, 72, 0
1, 10440, Note_on_c, 1, 74, 127
1, 10440, Note_on_c, 1, 63, 127
1, 10536, Note_off_c, 1, 74, 0
1, 10560, Note_on_c, 1, 75, 127
1, 10620, Note_off_c, 1, 63, 0
1, 10656, Note_off_c, 1, 75, 0
1, 10680, Note_on_c, 1, 77, 127
1, 10680, Note_on_c, 1, 62, 127
1, 10776, Note_off_c, 1, 77, 0
1, 10800, Note_on_c, 1, 75, 127
1, 10872, Note_off_c, 1, 62, 0
1, 10896, Note_off_c, 1, 75, 0
1, 10920, Note_on_c, 1, 77, 127
1, 10920, Note_on_c, 1, 60, 127
1, 11016, Note_off_c, 1, 77, 0
1, 11016, Note_off_c, 1, 60, 0
1, 11040, Note_on_c, 1, 79, 127
1, 11040, Note_on_c, 1, 58, 127
1, 11136, Note_off_c, 1, 79, 0
1, 11136, Note_off_c, 1, 58, 0
1, 11160, Note_on_c, 1, 77, 127
1, 11160, Note_on_c, 1, 65, 127
1, 11256, Note_off_c, 1, 77, 0
1, 11280, Note_on_c, 1, 75, 127
1, 11340, Note_off_c, 1, 65, 0
1, 11376, Note_off_c, 1, 75, 0
1, 11400, Note_on_c, 1, 74, 127
1, 11400, Note_on_c, 1, 53, 127
1, 11496, Note_off_c, 1, 74, 0
1, 11520, Note_on_c, 1, 72, 127
1, 11580, Note_off_c, 1, 53, 0
1, 11616, Note_off_c, 1, 72, 0
1, 11640, Note_on_c, 1, 74, 127
1, 11640, Note_on_c, 1, 58, 127
1, 11820, Note_off_c, 1, 74, 0
1, 11832, Note_off_c, 1, 58, 0
1, 11880, Note_on_c, 1, 70, 127
1, 11880, Note_on_c, 1, 46, 127
1, 11976, Note_off_c, 1, 46, 0
1, 12000, Note_on_c, 1, 45, 127
1, 12060, Note_off_c, 1, 70, 0
1, 12096, Note_off_c, 1, 45, 0
1, 12120, Note_on_c, 1, 74, 127
1, 12120, Note_on_c, 1, 43, 127
1, 12150, Note_on_c, 1, 79, 127
1, 12180, Note_on_c, 1, 82, 127
1, 12216, Note_off_c, 1, 43, 0
1, 12240, Note_on_c, 1, 42, 127
1, 12336, Note_off_c, 1, 42, 0
1, 12408, Note_off_c, 1, 74, 0
1, 12432, Note_off_c, 1, 79, 0
1, 12432, Note_off_c, 1, 82, 0
1, 12480, Note_on_c, 1, 81, 127
1, 12480, Note_on_c, 1, 45, 127
1, 12576, Note_off_c, 1, 81, 0
1, 12576, Note_off_c, 1, 45, 0
1, 12600, Note_on_c, 1, 79, 127
1, 12600, Note_on_c, 1, 46, 127
1, 12696, Note_off_c, 1, 79, 0
1, 12720, Note_on_c, 1, 81, 127
1, 12780, Note_off_c, 1, 46, 0
1, 12816, Note_off_c, 1, 81, 0
1, 12840, Note_on_c, 1, 82, 127
1, 12840, Note_on_c, 1, 43, 127
1, 12936, Note_off_c, 1, 82, 0
1, 12960, Note_on_c, 1, 77, 127
1, 13020, Note_off_c, 1, 43, 0
1, 13056, Note_off_c, 1, 77, 0
1, 13080, Note_on_c, 1, 75, 127
1, 13080, Note_on_c, 1, 48, 127
1, 13104, Note_off_c, 1, 75, 0
1, 13110, Note_on_c, 1, 77, 127
1, 13134, Note_off_c, 1, 77, 0
1, 13176, Note_off_c, 1, 48, 0
1, 13200, Note_on_c, 1, 47, 127
1, 13296, Note_off_c, 1, 47, 0
1, 13440, Note_on_c, 1, 74, 127
1, 13440, Note_on_c, 1, 50, 127
1, 13536, Note_off_c, 1, 74, 0
1, 13536, Note_off_c, 1, 50, 0
1, 13560, Note_on_c, 1, 72, 127
1, 13560, Note_on_c, 1, 51, 127
1, 13656, Note_off_c, 1, 72, 0
1, 13680, Note_on_c, 1, 74, 127
1, 13740, Note_off_c, 1, 51, 0
1, 13776, Note_off_c, 1, 74, 0
1, 13800, Note_on_c, 1, 75, 127
1, 13800, Note_on_c, 1, 50, 127
1, 13896, Note_off_c, 1, 75, 0
1, 13920, Note_on_c, 1, 70, 127
1, 13980, Note_off_c, 1, 50, 0
1, 14016, Note_off_c, 1, 70, 0
1, 14040, Note_on_c, 1, 69, 127
1, 14040, Note_on_c, 1, 48, 127
1, 14136, Note_off_c, 1, 69, 0
1, 14160, Note_on_c, 1, 70, 127
1, 14220, Note_off_c, 1, 48, 0
1, 14256, Note_off_c, 1, 70, 0
1, 14280, Note_on_c, 1, 72, 127
1, 14280, Note_on_c, 1, 45, 127
1, 14376, Note_off_c, 1, 72, 0
1, 14400, Note_on_c, 1, 67, 127
1, 14460, Note_off_c, 1, 45, 0
1, 14496, Note_off_c, 1, 67, 0
1, 14520, Note_on_c, 1, 66, 127
1, 14520, Note_on_c, 1, 50, 127
1, 14616, Note_off_c, 1, 66, 0
1, 14640, Note_on_c, 1, 67, 127
1, 14736, Note_off_c, 1, 67, 0
1, 14760, Note_on_c, 1, 69, 127
1, 14856, Note_off_c, 1, 69, 0
1, 14880, Note_on_c, 1, 63, 127
1, 14904, Note_off_c, 1, 50, 0
1, 14976, Note_off_c, 1, 63, 0
1, 15000, Note_on_c, 1, 62, 127
1, 15096, Note_off_c, 1, 62, 0
1, 15120, Note_on_c, 1, 64, 127
1, 15216, Note_off_c, 1, 64, 0
1, 15240, Note_on_c, 1, 66, 127
1, 15360, Note_on_c, 1, 60, 127
1, 15432, Note_off_c, 1, 66, 0
1, 15456, Note_off_c, 1, 60, 0
1, 15480, Note_on_c, 1, 67, 127
1, 15480, Note_on_c, 1, 58, 127
1, 15576, Note_off_c, 1, 58, 0
1, 15600, Note_on_c, 1, 60, 127
1, 15672, Note_off_c, 1, 67, 0
1, 15696, Note_off_c, 1, 60, 0
1, 15720, Note_on_c, 1, 70, 127
1, 15720, Note_on_c, 1, 62, 127
1, 15816, Note_off_c, 1, 70, 0
1, 15816, Note_off_c, 1, 62, 0
1, 15840, Note_on_c, 1, 69, 127
1, 15840, Note_on_c, 1, 54, 127
1, 15936, Note_off_c, 1, 69, 0
1, 15936, Note_off_c, 1, 54, 0
1, 15960, Note_on_c, 1, 70, 127
1, 15960, Note_on_c, 1, 55, 127
1, 16056, Note_off_c, 1, 55, 0
1, 16080, Note_on_c, 1, 57, 127
1, 16140, Note_off_c, 1, 70, 0
1, 16176, Note_off_c, 1, 57, 0
1, 16200, Note_on_c, 1, 67, 127
1, 16200, Note_on_c, 1, 58, 127
1, 16296, Note_off_c, 1, 58, 0
1, 16320, Note_on_c, 1, 50, 127
1, 16380, Note_off_c, 1, 67, 0
1, 16416, Note_off_c, 1, 50, 0
1, 16440, Note_on_c, 1, 79, 127
1, 16440, Note_on_c, 1, 51, 127
1, 16536, Note_off_c, 1, 51, 0
1, 16560, Note_on_c, 1, 53, 127
1, 16656, Note_off_c, 1, 53, 0
1, 16680, Note_on_c, 1, 55, 127
1, 16728, Note_off_c, 1, 79, 0
1, 16776, Note_off_c, 1, 55, 0
1, 16800, Note_on_c, 1, 80, 127
1, 16800, Note_on_c, 1, 48, 127
1, 16896, Note_off_c, 1, 80, 0
1, 16896, Note_off_c, 1, 48, 0
1, 16920, Note_on_c, 1, 79, 127
1, 16920, Note_on_c, 1, 47, 127
1, 17016, Note_off_c, 1, 79, 0
1, 17016, Note_off_c, 1, 47, 0
1, 17040, Note_on_c, 1, 77, 127
1, 17040, Note_on_c, 1, 48, 127
1, 17136, Note_off_c, 1, 77, 0
1, 17136, Note_off_c, 1, 48, 0
1, 17160, Note_on_c, 1, 75, 127
1, 17160, Note_on_c, 1, 50, 127
1, 17256, Note_off_c, 1, 75, 0
1, 17256, Note_off_c, 1, 50, 0
1, 17280, Note_on_c, 1, 74, 127
1, 17280, Note_on_c, 1, 43, 127
1, 17376, Note_off_c, 1, 74, 0
1, 17376, Note_off_c, 1, 43, 0
1, 17400, Note_on_c, 1, 75, 127
1, 17400, Note_on_c, 1, 48, 127
1, 17520, Note_on_c, 1, 74, 127
1, 17616, Note_off_c, 1, 74, 0
1, 17640, Note_on_c, 1, 72, 127
1, 17736, Note_off_c, 1, 72, 0
1, 17760, Note_on_c, 1, 70, 127
1, 17784, Note_off_c, 1, 48, 0
1, 17856, Note_off_c, 1, 70, 0
1, 17976, Note_off_c, 1, 75, 0
1, 18000, Note_on_c, 1, 69, 127
1, 18096, Note_off_c, 1, 69, 0
1, 18120, Note_on_c, 1, 79, 127
1, 18120, Note_on_c, 1, 75, 127
1, 18120, Note_on_c, 1, 70, 127
1, 18216, Note_off_c, 1, 70, 0
1, 18240, Note_on_c, 1, 72, 127
1, 18300, Note_off_c, 1, 79, 0
1, 18312, Note_off_c, 1, 75, 0
1, 18336, Note_off_c, 1, 72, 0
1, 18360, Note_on_c, 1, 74, 127
1, 18360, Note_on_c, 1, 81, 127
1, 18360, Note_on_c, 1, 66, 127
1, 18456, Note_off_c, 1, 74, 0
1, 18456, Note_off_c, 1, 66, 0
1, 18480, Note_on_c, 1, 72, 127
1, 18480, Note_on_c, 1, 67, 127
1, 18576, Note_off_c, 1, 72, 0
1, 18576, Note_off_c, 1, 67, 0
1, 18600, Note_on_c, 1, 70, 127
1, 18600, Note_on_c, 1, 69, 127
1, 18696, Note_off_c, 1, 70, 0
1, 18696, Note_off_c, 1, 69, 0
1, 18720, Note_on_c, 1, 62, 127
1, 18816, Note_off_c, 1, 62, 0
1, 18960, Note_on_c, 1, 65, 127
1, 19032, Note_off_c, 1, 81, 0
1, 19056, Note_off_c, 1, 65, 0
1, 19080, Note_on_c, 1, 79, 127
1, 19080, Note_on_c, 1, 64, 127
1, 19176, Note_off_c, 1, 79, 0
1, 19176, Note_off_c, 1, 64, 0
1, 19200, Note_on_c, 1, 77, 127
1, 19296, Note_off_c, 1, 77, 0
1, 19440, Note_on_c, 1, 61, 127
1, 19536, Note_off_c, 1, 61, 0
1, 19800, Note_on_c, 1, 73, 127
1, 19800, Note_on_c, 1, 57, 127
1, 19896, Note_off_c, 1, 73, 0
1, 19896, Note_off_c, 1, 57, 0
1, 19920, Note_on_c, 1, 59, 127
1, 20016, Note_off_c, 1, 59, 0
1, 20040, Note_on_c, 1, 76, 127
1, 20136, Note_off_c, 1, 76, 0
1, 20160, Note_on_c, 1, 55, 127
1, 20256, Note_off_c, 1, 55, 0
1, 20280, Note_on_c, 1, 53, 127
1, 20856, Note_off_c, 1, 53, 0
1, 21240, Note_on_c, 1, 77, 127
1, 21240, Note_on_c, 1, 73, 127
1, 21240, Note_on_c, 1, 57, 127
1, 21264, Note_off_c, 1, 77, 0
1, 21270, Note_on_c, 1, 76, 127
1, 21294, Note_off_c, 1, 76, 0
1, 21480, Note_on_c, 1, 45, 127
1, 21600, Note_on_c, 1, 74, 127
1, 21624, Note_off_c, 1, 73, 0
1, 21624, Note_off_c, 1, 57, 0
1, 21672, Note_off_c, 1, 45, 0
1, 21696, Note_off_c, 1, 74, 0
1, 21720, Note_on_c, 1, 74, 127
1, 21720, Note_on_c, 1, 50, 127
1, 21960, Note_on_c, 1, 38, 127
1, 22104, Note_off_c, 1, 50, 0
1, 22200, Note_on_c, 1, 45, 127
1, 22392, Note_off_c, 1, 45, 0
1, 22440, Note_on_c, 1, 69, 127
1, 22440, Note_on_c, 1, 66, 127
1, 22824, Note_off_c, 1, 74, 0
1, 22824, Note_off_c, 1, 38, 0
1, 22824, Note_off_c, 1, 69, 0
1, 22824, Note_off_c, 1, 66, 0
1, 23040, Note_on_c, 1, 62, 127
1, 23136, Note_off_c, 1, 62, 0
1, 23160, Note_on_c, 1, 62, 127
1, 23160, Note_on_c, 1, 55, 127
1, 23280, Note_on_c, 1, 60, 127
1, 23376, Note_off_c, 1, 60, 0
1, 23400, Note_on_c, 1, 58, 127
1, 23496, Note_off_c, 1, 58, 0
1, 23520, Note_on_c, 1, 57, 127
1, 23616, Note_off_c, 1, 57, 0
1, 23736, Note_off_c, 1, 55, 0
1, 23760, Note_on_c, 1, 54, 127
1, 23856, Note_off_c, 1, 54, 0
1, 23928, Note_off_c, 1, 62, 0
1, 24000, Note_on_c, 1, 50, 127
1, 24096, Note_off_c, 1, 50, 0
1, 24120, Note_on_c, 1, 67, 127
1, 24120, Note_on_c, 1, 51, 127
1, 24216, Note_off_c, 1, 67, 0
1, 24216, Note_off_c, 1, 51, 0
1, 24240, Note_on_c, 1, 69, 127
1, 24240, Note_on_c, 1, 48, 127
1, 24336, Note_off_c, 1, 69, 0
1, 24336, Note_off_c, 1, 48, 0
1, 24360, Note_on_c, 1, 66, 127
1, 24360, Note_on_c, 1, 50, 127
1, 24456, Note_off_c, 1, 66, 0
1, 24456, Note_off_c, 1, 50, 0
1, 24480, Note_on_c, 1, 67, 127
1, 24480, Note_on_c, 1, 51, 127
1, 24576, Note_off_c, 1, 67, 0
1, 24576, Note_off_c, 1, 51, 0
1, 24600, Note_on_c, 1, 69, 127
1, 24600, Note_on_c, 1, 42, 127
1, 24720, Note_on_c, 1, 63, 127
1, 24816, Note_off_c, 1, 63, 0
1, 24840, Note_on_c, 1, 62, 127
1, 24936, Note_off_c, 1, 62, 0
1, 24960, Note_on_c, 1, 60, 127
1, 24984, Note_off_c, 1, 69, 0
1, 24984, Note_off_c, 1, 42, 0
1, 25056, Note_off_c, 1, 60, 0
1, 25080, Note_on_c, 1, 62, 127
1, 25200, Note_on_c, 1, 57, 127
1, 25296, Note_off_c, 1, 57, 0
1, 25320, Note_on_c, 1, 58, 127
1, 25368, Note_off_c, 1, 62, 0
1, 25416, Note_off_c, 1, 58, 0
1, 25440, Note_on_c, 1, 62, 127
1, 25440, Note_on_c, 1, 60, 127
1, 25536, Note_off_c, 1, 62, 0
1, 25536, Note_off_c, 1, 60, 0
1, 25560, Note_on_c, 1, 69, 127
1, 25560, Note_on_c, 1, 54, 127
1, 25656, Note_off_c, 1, 69, 0
1, 25656, Note_off_c, 1, 54, 0
1, 25680, Note_on_c, 1, 70, 127
1, 25680, Note_on_c, 1, 55, 127
1, 25776, Note_off_c, 1, 70, 0
1, 25776, Note_off_c, 1, 55, 0
1, 25800, Note_on_c, 1, 67, 127
1, 25800, Note_on_c, 1, 57, 127
1, 25896, Note_off_c, 1, 67, 0
1, 25896, Note_off_c, 1, 57, 0
1, 25920, Note_on_c, 1, 69, 127
1, 25920, Note_on_c, 1, 50, 127
1, 26016, Note_off_c, 1, 69, 0
1, 26016, Note_off_c, 1, 50, 0
1, 26040, Note_on_c, 1, 70, 127
1, 26040, Note_on_c, 1, 55, 127
1, 26160, Note_on_c, 1, 69, 127
1, 26220, Note_off_c, 1, 55, 0
1, 26256, Note_off_c, 1, 69, 0
1, 26280, Note_on_c, 1, 67, 127
1, 26280, Note_on_c, 1, 50, 127
1, 26376, Note_off_c, 1, 67, 0
1, 26400, Note_on_c, 1, 66, 127
1, 26424, Note_off_c, 1, 70, 0
1, 26460, Note_off_c, 1, 50, 0
1, 26496, Note_off_c, 1, 66, 0
1, 26520, Note_on_c, 1, 67, 127
1, 26520, Note_on_c, 1, 51, 127
1, 26616, Note_off_c, 1, 67, 0
1, 26640, Note_on_c, 1, 62, 127
1, 26700, Note_off_c, 1, 51, 0
1, 26736, Note_off_c, 1, 62, 0
1, 26760, Note_on_c, 1, 63, 127
1, 26760, Note_on_c, 1, 55, 127
1, 26856, Note_off_c, 1, 63, 0
1, 26880, Note_on_c, 1, 70, 127
1, 26940, Note_off_c, 1, 55, 0
1, 26976, Note_off_c, 1, 70, 0
1, 27000, Note_on_c, 1, 69, 127
1, 27000, Note_on_c, 1, 48, 127
1, 27096, Note_off_c, 1, 69, 0
1, 27120, Note_on_c, 1, 72, 127
1, 27180, Note_off_c, 1, 48, 0
1, 27216, Note_off_c, 1, 72, 0
1, 27240, Note_on_c, 1, 66, 127
1, 27240, Note_on_c, 1, 51, 127
1, 27336, Note_off_c, 1, 66, 0
1, 27360, Note_on_c, 1, 67, 127
1, 27420, Note_off_c, 1, 51, 0
1, 27456, Note_off_c, 1, 67, 0
1, 27480, Note_on_c, 1, 66, 127
1, 27480, Note_on_c, 1, 50, 127
1, 27504, Note_off_c, 1, 66, 0
1, 27510, Note_on_c, 1, 67, 127
1, 27534, Note_off_c, 1, 67, 0
1, 27720, Note_on_c, 1, 64, 127
1, 27768, Note_off_c, 1, 50, 0
1, 27816, Note_off_c, 1, 64, 0
1, 27840, Note_on_c, 1, 62, 127
1, 27840, Note_on_c, 1, 48, 127
1, 27936, Note_off_c, 1, 62, 0
1, 27936, Note_off_c, 1, 48, 0
1, 27960, Note_on_c, 1, 74, 127
1, 27960, Note_on_c, 1, 46, 127
1, 28056, Note_off_c, 1, 46, 0
1, 28080, Note_on_c, 1, 45, 127
1, 28176, Note_off_c, 1, 45, 0
1, 28248, Note_off_c, 1, 74, 0
1, 28320, Note_on_c, 1, 75, 127
1, 28320, Note_on_c, 1, 43, 127
1, 28416, Note_off_c, 1, 75, 0
1, 28416, Note_off_c, 1, 43, 0
1, 28440, Note_on_c, 1, 74, 127
1, 28440, Note_on_c, 1, 50, 127
1, 28536, Note_off_c, 1, 74, 0
1, 28560, Note_on_c, 1, 72, 127
1, 28620, Note_off_c, 1, 50, 0
1, 28656, Note_off_c, 1, 72, 0
1, 28680, Note_on_c, 1, 70, 127
1, 28680, Note_on_c, 1, 38, 127
1, 28776, Note_off_c, 1, 70, 0
1, 28800, Note_on_c, 1, 69, 127
1, 28872, Note_off_c, 1, 38, 0
1, 28896, Note_off_c, 1, 69, 0
1, 28920, Note_on_c, 1, 70, 127
1, 28920, Note_on_c, 1, 43, 127
1, 29016, Note_off_c, 1, 70, 0
1, 29040, Note_on_c, 1, 69, 127
1, 29136, Note_off_c, 1, 69, 0
1, 29160, Note_on_c, 1, 67, 127
1, 29160, Note_on_c, 1, 46, 127
1, 29256, Note_off_c, 1, 67, 0
1, 29352, Note_off_c, 1, 46, 0
1, 29400, Note_on_c, 1, 50, 127
1, 29496, Note_off_c, 1, 43, 0
1, 29520, Note_on_c, 1, 72, 127
1, 29592, Note_off_c, 1, 50, 0
1, 29616, Note_off_c, 1, 72, 0
1, 29640, Note_on_c, 1, 74, 127
1, 29640, Note_on_c, 1, 55, 127
1, 29736, Note_off_c, 1, 74, 0
1, 29760, Note_on_c, 1, 75, 127
1, 29832, Note_off_c, 1, 55, 0
1, 29856, Note_off_c, 1, 75, 0
1, 29880, Note_on_c, 1, 77, 127
1, 29880, Note_on_c, 1, 53, 127
1, 29904, Note_off_c, 1, 77, 0
1, 29910, Note_on_c, 1, 75, 127
1, 29934, Note_off_c, 1, 75, 0
1, 30072, Note_off_c, 1, 53, 0
1, 30090, Note_on_c, 1, 75, 127
1, 30114, Note_off_c, 1, 75, 0
1, 30120, Note_on_c, 1, 77, 127
1, 30120, Note_on_c, 1, 51, 127
1, 30144, Note_off_c, 1, 77, 0
1, 30150, Note_on_c, 1, 75, 127
1, 30228, Note_off_c, 1, 75, 0
1, 30240, Note_on_c, 1, 74, 127
1, 30288, Note_off_c, 1, 74, 0
1, 30312, Note_off_c, 1, 51, 0
1, 30360, Note_on_c, 1, 77, 127
1, 30360, Note_on_c, 1, 50, 127
1, 30456, Note_off_c, 1, 50, 0
1, 30480, Note_on_c, 1, 53, 127
1, 30576, Note_off_c, 1, 53, 0
1, 30600, Note_on_c, 1, 55, 127
1, 30648, Note_off_c, 1, 77, 0
1, 30696, Note_off_c, 1, 55, 0
1, 30720, Note_on_c, 1, 75, 127
1, 30720, Note_on_c, 1, 57, 127
1, 30816, Note_off_c, 1, 75, 0
1, 30816, Note_off_c, 1, 57, 0
1, 30840, Note_on_c, 1, 74, 127
1, 30840, Note_on_c, 1, 58, 127
1, 30936, Note_off_c, 1, 74, 0
1, 30936, Note_off_c, 1, 58, 0
1, 30960, Note_on_c, 1, 72, 127
1, 30960, Note_on_c, 1, 57, 127
1, 31056, Note_off_c, 1, 72, 0
1, 31056, Note_off_c, 1, 57, 0
1, 31080, Note_on_c, 1, 70, 127
1, 31080, Note_on_c, 1, 58, 127
1, 31176, Note_off_c, 1, 70, 0
1, 31176, Note_off_c, 1, 58, 0
1, 31200, Note_on_c, 1, 69, 127
1, 31200, Note_on_c, 1, 60, 127
1, 31296, Note_off_c, 1, 69, 0
1, 31296, Note_off_c, 1, 60, 0
1, 31320, Note_on_c, 1, 70, 127
1, 31320, Note_on_c, 1, 62, 127
1, 31416, Note_off_c, 1, 70, 0
1, 31440, Note_on_c, 1, 72, 127
1, 31500, Note_off_c, 1, 62, 0
1, 31536, Note_off_c, 1, 72, 0
1, 31560, Note_on_c, 1, 65, 127
1, 31560, Note_on_c, 1, 58, 127
1, 31656, Note_off_c, 1, 65, 0
1, 31680, Note_on_c, 1, 68, 127
1, 31740, Note_off_c, 1, 58, 0
1, 31776, Note_off_c, 1, 68, 0
1, 31800, Note_on_c, 1, 67, 127
1, 31800, Note_on_c, 1, 63, 127
1, 31896, Note_off_c, 1, 63, 0
1, 31920, Note_on_c, 1, 65, 127
1, 31980, Note_off_c, 1, 67, 0
1, 32016, Note_off_c, 1, 65, 0
1, 32040, Note_on_c, 1, 79, 127
1, 32040, Note_on_c, 1, 63, 127
1, 32136, Note_off_c, 1, 63, 0
1, 32160, Note_on_c, 1, 62, 127
1, 32256, Note_off_c, 1, 62, 0
1, 32280, Note_on_c, 1, 60, 127
1, 32376, Note_off_c, 1, 79, 0
1, 32400, Note_on_c, 1, 77, 127
1, 32460, Note_off_c, 1, 60, 0
1, 32496, Note_off_c, 1, 77, 0
1, 32520, Note_on_c, 1, 75, 127
1, 32520, Note_on_c, 1, 62, 127
1, 32616, Note_off_c, 1, 75, 0
1, 32640, Note_on_c, 1, 74, 127
1, 32700, Note_off_c, 1, 62, 0
1, 32736, Note_off_c, 1, 74, 0
1, 32760, Note_on_c, 1, 72, 127
1, 32760, Note_on_c, 1, 63, 127
1, 32856, Note_off_c, 1, 72, 0
1, 32880, Note_on_c, 1, 74, 127
1, 32940, Note_off_c, 1, 63, 0
1, 32976, Note_off_c, 1, 74, 0
1, 33000, Note_on_c, 1, 75, 127
1, 33000, Note_on_c, 1, 60, 127
1, 33096, Note_off_c, 1, 75, 0
1, 33120, Note_on_c, 1, 70, 127
1, 33180, Note_off_c, 1, 60, 0
1, 33216, Note_off_c, 1, 70, 0
1, 33240, Note_on_c, 1, 69, 127
1, 33240, Note_on_c, 1, 65, 127
1, 33336, Note_off_c, 1, 69, 0
1, 33360, Note_on_c, 1, 72, 127
1, 33420, Note_off_c, 1, 65, 0
1, 33456, Note_off_c, 1, 72, 0
1, 33480, Note_on_c, 1, 74, 127
1, 33480, Note_on_c, 1, 63, 127
1, 33576, Note_off_c, 1, 74, 0
1, 33600, Note_on_c, 1, 75, 127
1, 33660, Note_off_c, 1, 63, 0
1, 33696, Note_off_c, 1, 75, 0
1, 33720, Note_on_c, 1, 77, 127
1, 33720, Note_on_c, 1, 62, 127
1, 33816, Note_off_c, 1, 77, 0
1, 33840, Note_on_c, 1, 75, 127
1, 33912, Note_off_c, 1, 62, 0
1, 33936, Note_off_c, 1, 75, 0
1, 33960, Note_on_c, 1, 77, 127
1, 33960, Note_on_c, 1, 60, 127
1, 34056, Note_off_c, 1, 77, 0
1, 34056, Note_off_c, 1, 60, 0
1, 34080, Note_on_c, 1, 79, 127
1, 34080, Note_on_c, 1, 58, 127
1, 34176, Note_off_c, 1, 79, 0
1, 34176, Note_off_c, 1, 58, 0
1, 34200, Note_on_c, 1, 77, 127
1, 34200, Note_on_c, 1, 65, 127
1, 34296, Note_off_c, 1, 77, 0
1, 34320, Note_on_c, 1, 75, 127
1, 34380, Note_off_c, 1, 65, 0
1, 34416, Note_off_c, 1, 75, 0
1, 34440, Note_on_c, 1, 74, 127
1, 34440, Note_on_c, 1, 53, 127
1, 34536, Note_off_c, 1, 74, 0
1, 34560, Note_on_c, 1, 72, 127
1, 34620, Note_off_c, 1, 53, 0
1, 34656, Note_off_c, 1, 72, 0
1, 34680, Note_on_c, 1, 74, 127
1, 34680, Note_on_c, 1, 58, 127
1, 34860, Note_off_c, 1, 74, 0
1, 34872, Note_off_c, 1, 58, 0
1, 34920, Note_on_c, 1, 70, 127
1, 34920, Note_on_c, 1, 46, 127
1, 35016, Note_off_c, 1, 46, 0
1, 35040, Note_on_c, 1, 45, 127
1, 35100, Note_off_c, 1, 70, 0
1, 35136, Note_off_c, 1, 45, 0
1, 35160, Note_on_c, 1, 74, 127
1, 35160, Note_on_c, 1, 43, 127
1, 35190, Note_on_c, 1, 79, 127
1, 35220, Note_on_c, 1, 82, 127
1, 35256, Note_off_c, 1, 43, 0
1, 35280, Note_on_c, 1, 42, 127
1, 35376, Note_off_c, 1, 42, 0
1, 35448, Note_off_c, 1, 74, 0
1, 35472, Note_off_c, 1, 79, 0
1, 35472, Note_off_c, 1, 82, 0
1, 35520, Note_on_c, 1, 81, 127
1, 35520, Note_on_c, 1, 45, 127
1, 35616, Note_off_c, 1, 81, 0
1, 35616, Note_off_c, 1, 45, 0
1, 35640, Note_on_c, 1, 79, 127
1, 35640, Note_on_c, 1, 46, 127
1, 35736, Note_off_c, 1, 79, 0
1, 35760, Note_on_c, 1, 81, 127
1, 35820, Note_off_c, 1, 46, 0
1, 35856, Note_off_c, 1, 81, 0
1, 35880, Note_on_c, 1, 82, 127
1, 35880, Note_on_c, 1, 43, 127
1, 35976, Note_off_c, 1, 82, 0
1, 36000, Note_on_c, 1, 77, 127
1, 36060, Note_off_c, 1, 43, 0
1, 36096, Note_off_c, 1, 77, 0
1, 36120, Note_on_c, 1, 75, 127
1, 36120, Note_on_c, 1, 48, 127
1, 36144, Note_off_c, 1, 75, 0
1, 36150, Note_on_c, 1, 77, 127
1, 36174, Note_off_c, 1, 77, 0
1, 36216, Note_off_c, 1, 48, 0
1, 36240, Note_on_c, 1, 47, 127
1, 36336, Note_off_c, 1, 47, 0
1, 36480, Note_on_c, 1, 74, 127
1, 36480, Note_on_c, 1, 50, 127
1, 36576, Note_off_c, 1, 74, 0
1, 36576, Note_off_c, 1, 50, 0
1, 36600, Note_on_c, 1, 72, 127
1, 36600, Note_on_c, 1, 51, 127
1, 36696, Note_off_c, 1, 72, 0
1, 36720, Note_on_c, 1, 74, 127
1, 36780, Note_off_c, 1, 51, 0
1, 36816, Note_off_c, 1, 74, 0
1, 36840, Note_on_c, 1, 75, 127
1, 36840, Note_on_c, 1, 50, 127
1, 36936, Note_off_c, 1, 75, 0
1, 36960, Note_on_c, 1, 70, 127
1, 37020, Note_off_c, 1, 50, 0
1, 37056, Note_off_c, 1, 70, 0
1, 37080, Note_on_c, 1, 69, 127
1, 37080, Note_on_c, 1, 48, 127
1, 37176, Note_off_c, 1, 69, 0
1, 37200, Note_on_c, 1, 70, 127
1, 37260, Note_off_c, 1, 48, 0
1, 37296, Note_off_c, 1, 70, 0
1, 37320, Note_on_c, 1, 72, 127
1, 37320, Note_on_c, 1, 45, 127
1, 37416, Note_off_c, 1, 72, 0
1, 37440, Note_on_c, 1, 67, 127
1, 37500, Note_off_c, 1, 45, 0
1, 37536, Note_off_c, 1, 67, 0
1, 37560, Note_on_c, 1, 66, 127
1, 37560, Note_on_c, 1, 50, 127
1, 37656, Note_off_c, 1, 66, 0
1, 37680, Note_on_c, 1, 67, 127
1, 37776, Note_off_c, 1, 67, 0
1, 37800, Note_on_c, 1, 69, 127
1, 37896, Note_off_c, 1, 69, 0
1, 37920, Note_on_c, 1, 63, 127
1, 37944, Note_off_c, 1, 50, 0
1, 38016, Note_off_c, 1, 63, 0
1, 38040, Note_on_c, 1, 62, 127
1, 38136, Note_off_c, 1, 62, 0
1, 38160, Note_on_c, 1, 64, 127
1, 38256, Note_off_c, 1, 64, 0
1, 38280, Note_on_c, 1, 66, 127
1, 38400, Note_on_c, 1, 60, 127
1, 38472, Note_off_c, 1, 66, 0
1, 38496, Note_off_c, 1, 60, 0
1, 38520, Note_on_c, 1, 67, 127
1, 38520, Note_on_c, 1, 58, 127
1, 38616, Note_off_c, 1, 58, 0
1, 38640, Note_on_c, 1, 60, 127
1, 38712, Note_off_c, 1, 67, 0
1, 38736, Note_off_c, 1, 60, 0
1, 38760, Note_on_c, 1, 70, 127
1, 38760, Note_on_c, 1, 62, 127
1, 38856, Note_off_c, 1, 70, 0
1, 38856, Note_off_c, 1, 62, 0
1, 38880, Note_on_c, 1, 69, 127
1, 38880, Note_on_c, 1, 54, 127
1, 38976, Note_off_c, 1, 69, 0
1, 38976, Note_off_c, 1, 54, 0
1, 39000, Note_on_c, 1, 70, 127
1, 39000, Note_on_c, 1, 55, 127
1, 39096, Note_off_c, 1, 55, 0
1, 39120, Note_on_c, 1, 57, 127
1, 39180, Note_off_c, 1, 70, 0
1, 39216, Note_off_c, 1, 57, 0
1, 39240, Note_on_c, 1, 67, 127
1, 39240, Note_on_c, 1, 58, 127
1, 39336, Note_off_c, 1, 58, 0
1, 39360, Note_on_c, 1, 50, 127
1, 39420, Note_off_c, 1, 67, 0
1, 39456, Note_off_c, 1, 50, 0
1, 39480, Note_on_c, 1, 79, 127
1, 39480, Note_on_c, 1, 51, 127
1, 39576, Note_off_c, 1, 51, 0
1, 39600, Note_on_c, 1, 53, 127
1, 39696, Note_off_c, 1, 53, 0
1, 39720, Note_on_c, 1, 55, 127
1, 39768, Note_off_c, 1, 79, 0
1, 39816, Note_off_c, 1, 55, 0
1, 39840, Note_on_c, 1, 80, 127
1, 39840, Note_on_c, 1, 48, 127
1, 39936, Note_off_c, 1, 80, 0
1, 39936, Note_off_c, 1, 48, 0
1, 39960, Note_on_c, 1, 79, 127
1, 39960, Note_on_c, 1, 47, 127
1, 40056, Note_off_c, 1, 79, 0
1, 40056, Note_off_c, 1, 47, 0
1, 40080, Note_on_c, 1, 77, 127
1, 40080, Note_on_c, 1, 48, 127
1, 40176, Note_off_c, 1, 77, 0
1, 40176, Note_off_c, 1, 48, 0
1, 40200, Note_on_c, 1, 75, 127
1, 40200, Note_on_c, 1, 50, 127
1, 40296, Note_off_c, 1, 75, 0
1, 40296, Note_off_c, 1, 50, 0
1, 40320, Note_on_c, 1, 74, 127
1, 40320, Note_on_c, 1, 43, 127
1, 40416, Note_off_c, 1, 74, 0
1, 40416, Note_off_c, 1, 43, 0
1, 40440, Note_on_c, 1, 75, 127
1, 40440, Note_on_c, 1, 48, 127
1, 40560, Note_on_c, 1, 74, 127
1, 40656, Note_off_c, 1, 74, 0
1, 40680, Note_on_c, 1, 72, 127
1, 40776, Note_off_c, 1, 72, 0
1, 40800, Note_on_c, 1, 70, 127
1, 40824, Note_off_c, 1, 48, 0
1, 40896, Note_off_c, 1, 70, 0
1, 41016, Note_off_c, 1, 75, 0
1, 41040, Note_on_c, 1, 69, 127
1, 41136, Note_off_c, 1, 69, 0
1, 41160, Note_on_c, 1, 79, 127
1, 41160, Note_on_c, 1, 75, 127
1, 41160, Note_on_c, 1, 70, 127
1, 41256, Note_off_c, 1, 70, 0
1, 41280, Note_on_c, 1, 72, 127
1, 41340, Note_off_c, 1, 79, 0
1, 41352, Note_off_c, 1, 75, 0
1, 41376, Note_off_c, 1, 72, 0
1, 41400, Note_on_c, 1, 74, 127
1, 41400, Note_on_c, 1, 81, 127
1, 41400, Note_on_c, 1, 66, 127
1, 41496, Note_off_c, 1, 74, 0
1, 41496, Note_off_c, 1, 66, 0
1, 41520, Note_on_c, 1, 72, 127
1, 41520, Note_on_c, 1, 67, 127
1, 41616, Note_off_c, 1, 72, 0
1, 41616, Note_off_c, 1, 67, 0
1, 41640, Note_on_c, 1, 70, 127
1, 41640, Note_on_c, 1, 69, 127
1, 41736, Note_off_c, 1, 70, 0
1, 41736, Note_off_c, 1, 69, 0
1, 41760, Note_on_c, 1, 62, 127
1, 41856, Note_off_c, 1, 62, 0
1, 42000, Note_on_c, 1, 65, 127
1, 42072, Note_off_c, 1, 81, 0
1, 42096, Note_off_c, 1, 65, 0
1, 42120, Note_on_c, 1, 79, 127
1, 42120, Note_on_c, 1, 64, 127
1, 42216, Note_off_c, 1, 79, 0
1, 42216, Note_off_c, 1, 64, 0
1, 42240, Note_on_c, 1, 77, 127
1, 42336, Note_off_c, 1, 77, 0
1, 42480, Note_on_c, 1, 61, 127
1, 42576, Note_off_c, 1, 61, 0
1, 42840, Note_on_c, 1, 73, 127
1, 42840, Note_on_c, 1, 57, 127
1, 42936, Note_off_c, 1, 73, 0
1, 42936, Note_off_c, 1, 57, 0
1, 42960, Note_on_c, 1, 59, 127
1, 43056, Note_off_c, 1, 59, 0
1, 43080, Note_on_c, 1, 76, 127
1, 43176, Note_off_c, 1, 76, 0
1, 43200, Note_on_c, 1, 55, 127
1, 43296, Note_off_c, 1, 55, 0
1, 43320, Note_on_c, 1, 53, 127
1, 43896, Note_off_c, 1, 53, 0
1, 44280, Note_on_c, 1, 77, 127
1, 44280, Note_on_c, 1, 73, 127
1, 44280, Note_on_c, 1, 57, 127
1, 44304, Note_off_c, 1, 77, 0
1, 44310, Note_on_c, 1, 76, 127
1, 44334, Note_off_c, 1, 76, 0
1, 44520, Note_on_c, 1, 45, 127
1, 44640, Note_on_c, 1, 74, 127
1, 44664, Note_off_c, 1, 73, 0
1, 44664, Note_off_c, 1, 57, 0
1, 44712, Note_off_c, 1, 45, 0
1, 44736, Note_off_c, 1, 74, 0
1, 44760, Note_on_c, 1, 74, 127
1, 44760, Note_on_c, 1, 50, 127
1, 45000, Note_on_c, 1, 38, 127
1, 45144, Note_off_c, 1, 50, 0
1, 45240, Note_on_c, 1, 45, 127
1, 45432, Note_off_c, 1, 45, 0
1, 45480, Note_on_c, 1, 69, 127
1, 45480, Note_on_c, 1, 66, 127
1, 45864, Note_off_c, 1, 74, 0
1, 45864, Note_off_c, 1, 38, 0
1, 45864, Note_off_c, 1, 69, 0
1, 45864, Note_off_c, 1, 66, 0
1, 46080, Note_on_c, 1, 81, 127
1, 46176, Note_off_c, 1, 81, 0
1, 46200, Note_on_c, 1, 81, 127
1, 46200, Note_on_c, 1, 50, 127
1, 46320, Note_on_c, 1, 79, 127
1, 46416, Note_off_c, 1, 79, 0
1, 46440, Note_on_c, 1, 78, 127
1, 46536, Note_off_c, 1, 78, 0
1, 46560, Note_on_c, 1, 76, 127
1, 46584, Note_off_c, 1, 81, 0
1, 46584, Note_off_c, 1, 50, 0
1, 46656, Note_off_c, 1, 76, 0
1, 46680, Note_on_c, 1, 78, 127
1, 46800, Note_on_c, 1, 75, 127
1, 46872, Note_off_c, 1, 78, 0
1, 46896, Note_off_c, 1, 75, 0
1, 46920, Note_on_c, 1, 78, 127
1, 46920, Note_on_c, 1, 74, 127
1, 47040, Note_on_c, 1, 72, 127
1, 47100, Note_off_c, 1, 78, 0
1, 47112, Note_off_c, 1, 74, 0
1, 47136, Note_off_c, 1, 72, 0
1, 47160, Note_on_c, 1, 79, 127
1, 47160, Note_on_c, 1, 74, 127
1, 47160, Note_on_c, 1, 70, 127
1, 47256, Note_off_c, 1, 70, 0
1, 47280, Note_on_c, 1, 69, 127
1, 47376, Note_off_c, 1, 69, 0
1, 47400, Note_on_c, 1, 67, 127
1, 47448, Note_off_c, 1, 79, 0
1, 47496, Note_off_c, 1, 67, 0
1, 47520, Note_on_c, 1, 81, 127
1, 47520, Note_on_c, 1, 66, 127
1, 47616, Note_off_c, 1, 81, 0
1, 47616, Note_off_c, 1, 66, 0
1, 47640, Note_on_c, 1, 82, 127
1, 47880, Note_on_c, 1, 57, 127
1, 47928, Note_off_c, 1, 82, 0
1, 47976, Note_off_c, 1, 57, 0
1, 48000, Note_on_c, 1, 58, 127
1, 48024, Note_off_c, 1, 74, 0
1, 48096, Note_off_c, 1, 58, 0
1, 48120, Note_on_c, 1, 79, 127
1, 48120, Note_on_c, 1, 58, 127
1, 48216, Note_off_c, 1, 79, 0
1, 48240, Note_on_c, 1, 81, 127
1, 48300, Note_off_c, 1, 58, 0
1, 48336, Note_off_c, 1, 81, 0
1, 48360, Note_on_c, 1, 82, 127
1, 48360, Note_on_c, 1, 55, 127
1, 48456, Note_off_c, 1, 82, 0
1, 48480, Note_on_c, 1, 77, 127
1, 48540, Note_off_c, 1, 55, 0
1, 48576, Note_off_c, 1, 77, 0
1, 48600, Note_on_c, 1, 77, 127
1, 48600, Note_on_c, 1, 60, 127
1, 48696, Note_off_c, 1, 77, 0
1, 48720, Note_on_c, 1, 76, 127
1, 48780, Note_off_c, 1, 60, 0
1, 48816, Note_off_c, 1, 76, 0
1, 48840, Note_on_c, 1, 74, 127
1, 48840, Note_on_c, 1, 58, 127
1, 48936, Note_off_c, 1, 74, 0
1, 48960, Note_on_c, 1, 72, 127
1, 49020, Note_off_c, 1, 58, 0
1, 49056, Note_off_c, 1, 72, 0
1, 49080, Note_on_c, 1, 84, 127
1, 49080, Note_on_c, 1, 57, 127
1, 49176, Note_off_c, 1, 57, 0
1, 49200, Note_on_c, 1, 60, 127
1, 49296, Note_off_c, 1, 60, 0
1, 49320, Note_on_c, 1, 62, 127
1, 49368, Note_off_c, 1, 84, 0
1, 49416, Note_off_c, 1, 62, 0
1, 49440, Note_on_c, 1, 79, 127
1, 49440, Note_on_c, 1, 64, 127
1, 49536, Note_off_c, 1, 79, 0
1, 49536, Note_off_c, 1, 64, 0
1, 49560, Note_on_c, 1, 81, 127
1, 49560, Note_on_c, 1, 65, 127
1, 49656, Note_off_c, 1, 81, 0
1, 49680, Note_on_c, 1, 76, 127
1, 49740, Note_off_c, 1, 65, 0
1, 49776, Note_off_c, 1, 76, 0
1, 49800, Note_on_c, 1, 77, 127
1, 49800, Note_on_c, 1, 58, 127
1, 49896, Note_off_c, 1, 77, 0
1, 49920, Note_on_c, 1, 81, 127
1, 49980, Note_off_c, 1, 58, 0
1, 50016, Note_off_c, 1, 81, 0
1, 50040, Note_on_c, 1, 81, 127
1, 50040, Note_on_c, 1, 76, 127
1, 50040, Note_on_c, 1, 60, 127
1, 50064, Note_off_c, 1, 81, 0
1, 50070, Note_on_c, 1, 79, 127
1, 50094, Note_off_c, 1, 79, 0
1, 50280, Note_on_c, 1, 48, 127
1, 50400, Note_on_c, 1, 77, 127
1, 50424, Note_off_c, 1, 76, 0
1, 50424, Note_off_c, 1, 60, 0
1, 50448, Note_off_c, 1, 77, 0
1, 50472, Note_off_c, 1, 48, 0
1, 50520, Note_on_c, 1, 77, 127
1, 50520, Note_on_c, 1, 53, 127
1, 50616, Note_off_c, 1, 53, 0
1, 50640, Note_on_c, 1, 55, 127
1, 50736, Note_off_c, 1, 55, 0
1, 50760, Note_on_c, 1, 56, 127
1, 50856, Note_off_c, 1, 56, 0
1, 51096, Note_off_c, 1, 77, 0
1, 51120, Note_on_c, 1, 79, 127
1, 51120, Note_on_c, 1, 51, 127
1, 51216, Note_off_c, 1, 79, 0
1, 51216, Note_off_c, 1, 51, 0
1, 51240, Note_on_c, 1, 80, 127
1, 51240, Note_on_c, 1, 50, 127
1, 51336, Note_off_c, 1, 80, 0
1, 51336, Note_off_c, 1, 50, 0
1, 51360, Note_on_c, 1, 79, 127
1, 51360, Note_on_c, 1, 51, 127
1, 51456, Note_off_c, 1, 79, 0
1, 51456, Note_off_c, 1, 51, 0
1, 51480, Note_on_c, 1, 77, 127
1, 51480, Note_on_c, 1, 47, 127
1, 51576, Note_off_c, 1, 77, 0
1, 51600, Note_on_c, 1, 75, 127
1, 51660, Note_off_c, 1, 47, 0
1, 51696, Note_off_c, 1, 75, 0
1, 51720, Note_on_c, 1, 74, 127
1, 51720, Note_on_c, 1, 48, 127
1, 51816, Note_off_c, 1, 74, 0
1, 51840, Note_on_c, 1, 75, 127
1, 51900, Note_off_c, 1, 48, 0
1, 51936, Note_off_c, 1, 75, 0
1, 51960, Note_on_c, 1, 72, 127
1, 51960, Note_on_c, 1, 43, 127
1, 52056, Note_off_c, 1, 72, 0
1, 52080, Note_on_c, 1, 71, 127
1, 52140, Note_off_c, 1, 43, 0
1, 52176, Note_off_c, 1, 71, 0
1, 52200, Note_on_c, 1, 69, 127
1, 52200, Note_on_c, 1, 55, 127
1, 52296, Note_off_c, 1, 69, 0
1, 52296, Note_off_c, 1, 55, 0
1, 52320, Note_on_c, 1, 67, 127
1, 52320, Note_on_c, 1, 53, 127
1, 52416, Note_off_c, 1, 67, 0
1, 52416, Note_off_c, 1, 53, 0
1, 52440, Note_on_c, 1, 72, 127
1, 52440, Note_on_c, 1, 51, 127
1, 52536, Note_off_c, 1, 72, 0
1, 52560, Note_on_c, 1, 71, 127
1, 52620, Note_off_c, 1, 51, 0
1, 52656, Note_off_c, 1, 71, 0
1, 52680, Note_on_c, 1, 72, 127
1, 52680, Note_on_c, 1, 56, 127
1, 52776, Note_off_c, 1, 72, 0
1, 52800, Note_on_c, 1, 75, 127
1, 52860, Note_off_c, 1, 56, 0
1, 52896, Note_off_c, 1, 75, 0
1, 52920, Note_on_c, 1, 74, 127
1, 52920, Note_on_c, 1, 53, 127
1, 53016, Note_off_c, 1, 74, 0
1, 53040, Note_on_c, 1, 75, 127
1, 53100, Note_off_c, 1, 53, 0
1, 53136, Note_off_c, 1, 75, 0
1, 53160, Note_on_c, 1, 77, 127
1, 53160, Note_on_c, 1, 55, 127
1, 53256, Note_off_c, 1, 77, 0
1, 53280, Note_on_c, 1, 74, 127
1, 53340, Note_off_c, 1, 55, 0
1, 53376, Note_off_c, 1, 74, 0
1, 53400, Note_on_c, 1, 77, 127
1, 53400, Note_on_c, 1, 48, 127
1, 53496, Note_off_c, 1, 77, 0
1, 53520, Note_on_c, 1, 75, 127
1, 53580, Note_off_c, 1, 48, 0
1, 53616, Note_off_c, 1, 75, 0
1, 53640, Note_on_c, 1, 74, 127
1, 53640, Note_on_c, 1, 60, 127
1, 53736, Note_off_c, 1, 74, 0
1, 53736, Note_off_c, 1, 60, 0
1, 53760, Note_on_c, 1, 72, 127
1, 53760, Note_on_c, 1, 58, 127
1, 53856, Note_off_c, 1, 72, 0
1, 53856, Note_off_c, 1, 58, 0
1, 53880, Note_on_c, 1, 74, 127
1, 53880, Note_on_c, 1, 56, 127
1, 53976, Note_off_c, 1, 74, 0
1, 54000, Note_on_c, 1, 76, 127
1, 54060, Note_off_c, 1, 56, 0
1, 54096, Note_off_c, 1, 76, 0
1, 54120, Note_on_c, 1, 77, 127
1, 54120, Note_on_c, 1, 61, 127
1, 54216, Note_off_c, 1, 77, 0
1, 54240, Note_on_c, 1, 79, 127
1, 54300, Note_off_c, 1, 61, 0
1, 54336, Note_off_c, 1, 79, 0
1, 54360, Note_on_c, 1, 80, 127
1, 54360, Note_on_c, 1, 58, 127
1, 54384, Note_off_c, 1, 80, 0
1, 54390, Note_on_c, 1, 79, 127
1, 54414, Note_off_c, 1, 79, 0
1, 54540, Note_off_c, 1, 58, 0
1, 54570, Note_on_c, 1, 79, 127
1, 54594, Note_off_c, 1, 79, 0
1, 54600, Note_on_c, 1, 80, 127
1, 54600, Note_on_c, 1, 60, 127
1, 54624, Note_off_c, 1, 80, 0
1, 54630, Note_on_c, 1, 79, 127
1, 54708, Note_off_c, 1, 79, 0
1, 54720, Note_on_c, 1, 77, 127
1, 54768, Note_off_c, 1, 77, 0
1, 54780, Note_off_c, 1, 60, 0
1, 54840, Note_on_c, 1, 80, 127
1, 54840, Note_on_c, 1, 53, 127
1, 54936, Note_off_c, 1, 53, 0
1, 54960, Note_on_c, 1, 51, 127
1, 55056, Note_off_c, 1, 51, 0
1, 55128, Note_off_c, 1, 80, 0
1, 55200, Note_on_c, 1, 71, 127
1, 55200, Note_on_c, 1, 50, 127
1, 55296, Note_off_c, 1, 71, 0
1, 55296, Note_off_c, 1, 50, 0
1, 55320, Note_on_c, 1, 72, 127
1, 55320, Note_on_c, 1, 51, 127
1, 55349, Note_off_c, 1, 72, 0
1, 55350, Note_on_c, 1, 71, 127
1, 55374, Note_off_c, 1, 71, 0
1, 55380, Note_on_c, 1, 69, 127
1, 55404, Note_off_c, 1, 69, 0
1, 55416, Note_off_c, 1, 51, 0
1, 55440, Note_on_c, 1, 72, 127
1, 55440, Note_on_c, 1, 56, 127
1, 55536, Note_off_c, 1, 56, 0
1, 55560, Note_on_c, 1, 55, 127
1, 55632, Note_off_c, 1, 72, 0
1, 55656, Note_off_c, 1, 55, 0
1, 55680, Note_on_c, 1, 74, 127
1, 55680, Note_on_c, 1, 53, 127
1, 55776, Note_off_c, 1, 74, 0
1, 55776, Note_off_c, 1, 53, 0
1, 55800, Note_on_c, 1, 75, 127
1, 55800, Note_on_c, 1, 71, 127
1, 55800, Note_on_c, 1, 55, 127
1, 55829, Note_off_c, 1, 75, 0
1, 55830, Note_on_c, 1, 74, 127
1, 55859, Note_off_c, 1, 74, 0
1, 55980, Note_off_c, 1, 55, 0
1, 56040, Note_on_c, 1, 43, 127
1, 56160, Note_on_c, 1, 72, 127
1, 56184, Note_off_c, 1, 71, 0
1, 56220, Note_off_c, 1, 43, 0
1, 56256, Note_off_c, 1, 72, 0
1, 56280, Note_on_c, 1, 72, 127
1, 56280, Note_on_c, 1, 36, 127
1, 56472, Note_off_c, 1, 36, 0
1, 56520, Note_on_c, 1, 63, 127
1, 56616, Note_off_c, 1, 63, 0
1, 56640, Note_on_c, 1, 62, 127
1, 56736, Note_off_c, 1, 62, 0
1, 56760, Note_on_c, 1, 60, 127
1, 56856, Note_off_c, 1, 72, 0
1, 56856, Note_off_c, 1, 60, 0
1, 56880, Note_on_c, 1, 74, 127
1, 56880, Note_on_c, 1, 58, 127
1, 56976, Note_off_c, 1, 74, 0
1, 56976, Note_off_c, 1, 58, 0
1, 57000, Note_on_c, 1, 75, 127
1, 57000, Note_on_c, 1, 57, 127
1, 57096, Note_off_c, 1, 75, 0
1, 57096, Note_off_c, 1, 57, 0
1, 57120, Note_on_c, 1, 74, 127
1, 57120, Note_on_c, 1, 58, 127
1, 57216, Note_off_c, 1, 74, 0
1, 57216, Note_off_c, 1, 58, 0
1, 57240, Note_on_c, 1, 72, 127
1, 57240, Note_on_c, 1, 51, 127
1, 57336, Note_off_c, 1, 72, 0
1, 57360, Note_on_c, 1, 70, 127
1, 57432, Note_off_c, 1, 51, 0
1, 57456, Note_off_c, 1, 70, 0
1, 57480, Note_on_c, 1, 69, 127
1, 57480, Note_on_c, 1, 55, 127
1, 57576, Note_off_c, 1, 69, 0
1, 57600, Note_on_c, 1, 70, 127
1, 57660, Note_off_c, 1, 55, 0
1, 57696, Note_off_c, 1, 70, 0
1, 57720, Note_on_c, 1, 70, 127
1, 57720, Note_on_c, 1, 53, 127
1, 57816, Note_off_c, 1, 70, 0
1, 57840, Note_on_c, 1, 69, 127
1, 57900, Note_off_c, 1, 53, 0
1, 57936, Note_off_c, 1, 69, 0
1, 57960, Note_on_c, 1, 67, 127
1, 57960, Note_on_c, 1, 51, 127
1, 58056, Note_off_c, 1, 67, 0
1, 58080, Note_on_c, 1, 65, 127
1, 58140, Note_off_c, 1, 51, 0
1, 58176, Note_off_c, 1, 65, 0
1, 58200, Note_on_c, 1, 67, 127
1, 58200, Note_on_c, 1, 50, 127
1, 58296, Note_off_c, 1, 67, 0
1, 58320, Note_on_c, 1, 69, 127
1, 58380, Note_off_c, 1, 50, 0
1, 58416, Note_off_c, 1, 69, 0
1, 58440, Note_on_c, 1, 70, 127
1, 58440, Note_on_c, 1, 55, 127
1, 58536, Note_off_c, 1, 70, 0
1, 58560, Note_on_c, 1, 72, 127
1, 58620, Note_off_c, 1, 55, 0
1, 58656, Note_off_c, 1, 72, 0
1, 58680, Note_on_c, 1, 74, 127
1, 58680, Note_on_c, 1, 51, 127
1, 58704, Note_off_c, 1, 74, 0
1, 58710, Note_on_c, 1, 72, 127
1, 58734, Note_off_c, 1, 72, 0
1, 58860, Note_off_c, 1, 51, 0
1, 58890, Note_on_c, 1, 72, 127
1, 58914, Note_off_c, 1, 72, 0
1, 58920, Note_on_c, 1, 74, 127
1, 58920, Note_on_c, 1, 53, 127
1, 58944, Note_off_c, 1, 74, 0
1, 58950, Note_on_c, 1, 72, 127
1, 59028, Note_off_c, 1, 72, 0
1, 59040, Note_on_c, 1, 70, 127
1, 59088, Note_off_c, 1, 70, 0
1, 59100, Note_off_c, 1, 53, 0
1, 59160, Note_on_c, 1, 74, 127
1, 59160, Note_on_c, 1, 46, 127
1, 59280, Note_on_c, 1, 72, 127
1, 59340, Note_off_c, 1, 46, 0
1, 59376, Note_off_c, 1, 72, 0
1, 59400, Note_on_c, 1, 70, 127
1, 59400, Note_on_c, 1, 53, 127
1, 59496, Note_off_c, 1, 70, 0
1, 59520, Note_on_c, 1, 69, 127
1, 59580, Note_off_c, 1, 53, 0
1, 59616, Note_off_c, 1, 69, 0
1, 59640, Note_on_c, 1, 58, 127
1, 59760, Note_on_c, 1, 67, 127
1, 59856, Note_off_c, 1, 67, 0
1, 59928, Note_off_c, 1, 74, 0
1, 60120, Note_on_c, 1, 64, 127
1, 60216, Note_off_c, 1, 58, 0
1, 60240, Note_on_c, 1, 62, 127
1, 60336, Note_off_c, 1, 62, 0
1, 60360, Note_on_c, 1, 60, 127
1, 60456, Note_off_c, 1, 60, 0
1, 60504, Note_off_c, 1, 64, 0
1, 60600, Note_on_c, 1, 72, 127
1, 60600, Note_on_c, 1, 57, 127
1, 60720, Note_on_c, 1, 70, 127
1, 60780, Note_off_c, 1, 57, 0
1, 60816, Note_off_c, 1, 70, 0
1, 60840, Note_on_c, 1, 69, 127
1, 60840, Note_on_c, 1, 55, 127
1, 60936, Note_off_c, 1, 69, 0
1, 60960, Note_on_c, 1, 67, 127
1, 61020, Note_off_c, 1, 55, 0
1, 61056, Note_off_c, 1, 67, 0
1, 61080, Note_on_c, 1, 54, 127
1, 61200, Note_on_c, 1, 66, 127
1, 61296, Note_off_c, 1, 66, 0
1, 61560, Note_on_c, 1, 62, 127
1, 61656, Note_off_c, 1, 72, 0
1, 61656, Note_off_c, 1, 54, 0
1, 61680, Note_on_c, 1, 50, 127
1, 61776, Note_off_c, 1, 50, 0
1, 61800, Note_on_c, 1, 52, 127
1, 61896, Note_off_c, 1, 52, 0
1, 61944, Note_off_c, 1, 62, 0
1, 62040, Note_on_c, 1, 70, 127
1, 62040, Note_on_c, 1, 55, 127
1, 62160, Note_on_c, 1, 69, 127
1, 62220, Note_off_c, 1, 55, 0
1, 62256, Note_off_c, 1, 69, 0
1, 62280, Note_on_c, 1, 67, 127
1, 62280, Note_on_c, 1, 50, 127
1, 62376, Note_off_c, 1, 67, 0
1, 62400, Note_on_c, 1, 66, 127
1, 62460, Note_off_c, 1, 50, 0
1, 62496, Note_off_c, 1, 66, 0
1, 62520, Note_on_c, 1, 43, 127
1, 62640, Note_on_c, 1, 63, 127
1, 62700, Note_off_c, 1, 43, 0
1, 62736, Note_off_c, 1, 63, 0
1, 62760, Note_on_c, 1, 65, 127
1, 62808, Note_off_c, 1, 70, 0
1, 62856, Note_off_c, 1, 65, 0
1, 62880, Note_on_c, 1, 67, 127
1, 62880, Note_on_c, 1, 70, 127
1, 62976, Note_off_c, 1, 67, 0
1, 62976, Note_off_c, 1, 70, 0
1, 63000, Note_on_c, 1, 61, 127
1, 63000, Note_on_c, 1, 70, 127
1, 63024, Note_off_c, 1, 61, 0
1, 63030, Note_on_c, 1, 62, 127
1, 63054, Note_off_c, 1, 62, 0
1, 63096, Note_off_c, 1, 70, 0
1, 63120, Note_on_c, 1, 69, 127
1, 63216, Note_off_c, 1, 69, 0
1, 63360, Note_on_c, 1, 67, 127
1, 63456, Note_off_c, 1, 67, 0
1, 63480, Note_on_c, 1, 66, 127
1, 63504, Note_off_c, 1, 66, 0
1, 63510, Note_on_c, 1, 67, 127
1, 63534, Note_off_c, 1, 67, 0
1, 63540, Note_on_c, 1, 66, 127
1, 63600, Note_on_c, 1, 58, 127
1, 63696, Note_off_c, 1, 58, 0
1, 63720, Note_on_c, 1, 57, 127
1, 63816, Note_off_c, 1, 57, 0
1, 63840, Note_on_c, 1, 55, 127
1, 63936, Note_off_c, 1, 55, 0
1, 64080, Note_on_c, 1, 50, 127
1, 64104, Note_off_c, 1, 66, 0
1, 64176, Note_off_c, 1, 50, 0
1, 64200, Note_on_c, 1, 67, 127
1, 64200, Note_on_c, 1, 51, 127
1, 64296, Note_off_c, 1, 67, 0
1, 64296, Note_off_c, 1, 51, 0
1, 64320, Note_on_c, 1, 69, 127
1, 64320, Note_on_c, 1, 48, 127
1, 64416, Note_off_c, 1, 69, 0
1, 64416, Note_off_c, 1, 48, 0
1, 64440, Note_on_c, 1, 67, 127
1, 64440, Note_on_c, 1, 47, 127
1, 64536, Note_off_c, 1, 67, 0
1, 64536, Note_off_c, 1, 47, 0
1, 64560, Note_on_c, 1, 65, 127
1, 64560, Note_on_c, 1, 48, 127
1, 64656, Note_off_c, 1, 65, 0
1, 64656, Note_off_c, 1, 48, 0
1, 64680, Note_on_c, 1, 63, 127
1, 64680, Note_on_c, 1, 50, 127
1, 64776, Note_off_c, 1, 63, 0
1, 64776, Note_off_c, 1, 50, 0
1, 64800, Note_on_c, 1, 62, 127
1, 64800, Note_on_c, 1, 43, 127
1, 64896, Note_off_c, 1, 43, 0
1, 64920, Note_on_c, 1, 63, 127
1, 64920, Note_on_c, 1, 48, 127
1, 65016, Note_off_c, 1, 62, 0
1, 65016, Note_off_c, 1, 48, 0
1, 65040, Note_on_c, 1, 58, 127
1, 65040, Note_on_c, 1, 50, 127
1, 65136, Note_off_c, 1, 58, 0
1, 65136, Note_off_c, 1, 50, 0
1, 65160, Note_on_c, 1, 57, 127
1, 65256, Note_off_c, 1, 57, 0
1, 65280, Note_on_c, 1, 55, 127
1, 65280, Note_on_c, 1, 46, 127
1, 65304, Note_off_c, 1, 63, 0
1, 65376, Note_off_c, 1, 55, 0
1, 65376, Note_off_c, 1, 46, 0
1, 65400, Note_on_c, 1, 60, 127
1, 65400, Note_on_c, 1, 45, 127
1, 65496, Note_off_c, 1, 60, 0
1, 65520, Note_on_c, 1, 63, 127
1, 65592, Note_off_c, 1, 45, 0
1, 65616, Note_off_c, 1, 63, 0
1, 65640, Note_on_c, 1, 67, 127
1, 65640, Note_on_c, 1, 46, 127
1, 65736, Note_off_c, 1, 67, 0
1, 65760, Note_on_c, 1, 70, 127
1, 65832, Note_off_c, 1, 46, 0
1, 65856, Note_off_c, 1, 70, 0
1, 65880, Note_on_c, 1, 69, 127
1, 65880, Note_on_c, 1, 48, 127
1, 65976, Note_off_c, 1, 69, 0
1, 65976, Note_off_c, 1, 48, 0
1, 66000, Note_on_c, 1, 66, 127
1, 66000, Note_on_c, 1, 51, 127
1, 66096, Note_off_c, 1, 66, 0
1, 66096, Note_off_c, 1, 51, 0
1, 66120, Note_on_c, 1, 67, 127
1, 66120, Note_on_c, 1, 50, 127
1, 66216, Note_off_c, 1, 67, 0
1, 66216, Note_off_c, 1, 50, 0
1, 66240, Note_on_c, 1, 69, 127
1, 66240, Note_on_c, 1, 48, 127
1, 66336, Note_off_c, 1, 69, 0
1, 66336, Note_off_c, 1, 48, 0
1, 66360, Note_on_c, 1, 62, 127
1, 66360, Note_on_c, 1, 54, 127
1, 66456, Note_off_c, 1, 62, 0
1, 66480, Note_on_c, 1, 66, 127
1, 66540, Note_off_c, 1, 54, 0
1, 66576, Note_off_c, 1, 66, 0
1, 66600, Note_on_c, 1, 69, 127
1, 66600, Note_on_c, 1, 50, 127
1, 66696, Note_off_c, 1, 69, 0
1, 66720, Note_on_c, 1, 72, 127
1, 66780, Note_off_c, 1, 50, 0
1, 66816, Note_off_c, 1, 72, 0
1, 66840, Note_on_c, 1, 70, 127
1, 66840, Note_on_c, 1, 67, 127
1, 66840, Note_on_c, 1, 55, 127
1, 66864, Note_off_c, 1, 70, 0
1, 66870, Note_on_c, 1, 72, 127
1, 66894, Note_off_c, 1, 72, 0
1, 67020, Note_off_c, 1, 55, 0
1, 67080, Note_on_c, 1, 48, 127
1, 67200, Note_on_c, 1, 69, 127
1, 67224, Note_off_c, 1, 67, 0
1, 67260, Note_off_c, 1, 48, 0
1, 67296, Note_off_c, 1, 69, 0
1, 67320, Note_on_c, 1, 70, 127
1, 67320, Note_on_c, 1, 66, 127
1, 67320, Note_on_c, 1, 50, 127
1, 67344, Note_off_c, 1, 70, 0
1, 67350, Note_on_c, 1, 69, 127
1, 67374, Note_off_c, 1, 69, 0
1, 67500, Note_off_c, 1, 50, 0
1, 67560, Note_on_c, 1, 38, 127
1, 67680, Note_on_c, 1, 67, 127
1, 67704, Note_off_c, 1, 66, 0
1, 67740, Note_off_c, 1, 38, 0
1, 67776, Note_off_c, 1, 67, 0
1, 67800, Note_on_c, 1, 67, 127
1, 67800, Note_on_c, 1, 43, 127
1, 68040, Note_on_c, 1, 46, 127
1, 68280, Note_off_c, 1, 46, 0
1, 68280, Note_on_c, 1, 50, 127
1, 68520, Note_off_c, 1, 50, 0
1, 68520, Note_on_c, 1, 62, 127
1, 68520, Note_on_c, 1, 58, 127
1, 68520, Note_on_c, 1, 55, 127
1, 68904, Note_off_c, 1, 67, 0
1, 68904, Note_off_c, 1, 43, 0
1, 68904, Note_off_c, 1, 62, 0
1, 68904, Note_off_c, 1, 58, 0
1, 69000, Note_off_c, 1, 55, 0
1, 69120, Note_on_c, 1, 81, 127
1, 69216, Note_off_c, 1, 81, 0
1, 69240, Note_on_c, 1, 81, 127
1, 69240, Note_on_c, 1, 50, 127
1, 69360, Note_on_c, 1, 79, 127
1, 69456, Note_off_c, 1, 79, 0
1, 69480, Note_on_c, 1, 78, 127
1, 69576, Note_off_c, 1, 78, 0
1, 69600, Note_on_c, 1, 76, 127
1, 69624, Note_off_c, 1, 81, 0
1, 69624, Note_off_c, 1, 50, 0
1, 69696, Note_off_c, 1, 76, 0
1, 69720, Note_on_c, 1, 78, 127
1, 69840, Note_on_c, 1, 75, 127
1, 69912, Note_off_c, 1, 78, 0
1, 69936, Note_off_c, 1, 75, 0
1, 69960, Note_on_c, 1, 78, 127
1, 69960, Note_on_c, 1, 74, 127
1, 70080, Note_on_c, 1, 72, 127
1, 70140, Note_off_c, 1, 78, 0
1, 70152, Note_off_c, 1, 74, 0
1, 70176, Note_off_c, 1, 72, 0
1, 70200, Note_on_c, 1, 79, 127
1, 70200, Note_on_c, 1, 74, 127
1, 70200, Note_on_c, 1, 70, 127
1, 70296, Note_off_c, 1, 70, 0
1, 70320, Note_on_c, 1, 69, 127
1, 70416, Note_off_c, 1, 69, 0
1, 70440, Note_on_c, 1, 67, 127
1, 70488, Note_off_c, 1, 79, 0
1, 70536, Note_off_c, 1, 67, 0
1, 70560, Note_on_c, 1, 81, 127
1, 70560, Note_on_c, 1, 66, 127
1, 70656, Note_off_c, 1, 81, 0
1, 70656, Note_off_c, 1, 66, 0
1, 70680, Note_on_c, 1, 82, 127
1, 70920, Note_on_c, 1, 57, 127
1, 70968, Note_off_c, 1, 82, 0
1, 71016, Note_off_c, 1, 57, 0
1, 71040, Note_on_c, 1, 58, 127
1, 71064, Note_off_c, 1, 74, 0
1, 71136, Note_off_c, 1, 58, 0
1, 71160, Note_on_c, 1, 79, 127
1, 71160, Note_on_c, 1, 58, 127
1, 71256, Note_off_c, 1, 79, 0
1, 71280, Note_on_c, 1, 81, 127
1, 71340, Note_off_c, 1, 58, 0
1, 71376, Note_off_c, 1, 81, 0
1, 71400, Note_on_c, 1, 82, 127
1, 71400, Note_on_c, 1, 55, 127
1, 71496, Note_off_c, 1, 82, 0
1, 71520, Note_on_c, 1, 77, 127
1, 71580, Note_off_c, 1, 55, 0
1, 71616, Note_off_c, 1, 77, 0
1, 71640, Note_on_c, 1, 77, 127
1, 71640, Note_on_c, 1, 60, 127
1, 71736, Note_off_c, 1, 77, 0
1, 71760, Note_on_c, 1, 76, 127
1, 71820, Note_off_c, 1, 60, 0
1, 71856, Note_off_c, 1, 76, 0
1, 71880, Note_on_c, 1, 74, 127
1, 71880, Note_on_c, 1, 58, 127
1, 71976, Note_off_c, 1, 74, 0
1, 72000, Note_on_c, 1, 72, 127
1, 72060, Note_off_c, 1, 58, 0
1, 72096, Note_off_c, 1, 72, 0
1, 72120, Note_on_c, 1, 84, 127
1, 72120, Note_on_c, 1, 57, 127
1, 72216, Note_off_c, 1, 57, 0
1, 72240, Note_on_c, 1, 60, 127
1, 72336, Note_off_c, 1, 60, 0
1, 72360, Note_on_c, 1, 62, 127
1, 72408, Note_off_c, 1, 84, 0
1, 72456, Note_off_c, 1, 62, 0
1, 72480, Note_on_c, 1, 79, 127
1, 72480, Note_on_c, 1, 64, 127
1, 72576, Note_off_c, 1, 79, 0
1, 72576, Note_off_c, 1, 64, 0
1, 72600, Note_on_c, 1, 81, 127
1, 72600, Note_on_c, 1, 65, 127
1, 72696, Note_off_c, 1, 81, 0
1, 72720, Note_on_c, 1, 76, 127
1, 72780, Note_off_c, 1, 65, 0
1, 72816, Note_off_c, 1, 76, 0
1, 72840, Note_on_c, 1, 77, 127
1, 72840, Note_on_c, 1, 58, 127
1, 72936, Note_off_c, 1, 77, 0
1, 72960, Note_on_c, 1, 81, 127
1, 73020, Note_off_c, 1, 58, 0
1, 73056, Note_off_c, 1, 81, 0
1, 73080, Note_on_c, 1, 81, 127
1, 73080, Note_on_c, 1, 76, 127
1, 73080, Note_on_c, 1, 60, 127
1, 73104, Note_off_c, 1, 81, 0
1, 73110, Note_on_c, 1, 79, 127
1, 73134, Note_off_c, 1, 79, 0
1, 73320, Note_on_c, 1, 48, 127
1, 73440, Note_on_c, 1, 77, 127
1, 73464, Note_off_c, 1, 76, 0
1, 73464, Note_off_c, 1, 60, 0
1, 73488, Note_off_c, 1, 77, 0
1, 73512, Note_off_c, 1, 48, 0
1, 73560, Note_on_c, 1, 77, 127
1, 73560, Note_on_c, 1, 53, 127
1, 73656, Note_off_c, 1, 53, 0
1, 73680, Note_on_c, 1, 55, 127
1, 73776, Note_off_c, 1, 55, 0
1, 73800, Note_on_c, 1, 56, 127
1, 73896, Note_off_c, 1, 56, 0
1, 74136, Note_off_c, 1, 77, 0
1, 74160, Note_on_c, 1, 79, 127
1, 74160, Note_on_c, 1, 51, 127
1, 74256, Note_off_c, 1, 79, 0
1, 74256, Note_off_c, 1, 51, 0
1, 74280, Note_on_c, 1, 80, 127
1, 74280, Note_on_c, 1, 50, 127
1, 74376, Note_off_c, 1, 80, 0
1, 74376, Note_off_c, 1, 50, 0
1, 74400, Note_on_c, 1, 79, 127
1, 74400, Note_on_c, 1, 51, 127
1, 74496, Note_off_c, 1, 79, 0
1, 74496, Note_off_c, 1, 51, 0
1, 74520, Note_on_c, 1, 77, 127
1, 74520, Note_on_c, 1, 47, 127
1, 74616, Note_off_c, 1, 77, 0
1, 74640, Note_on_c, 1, 75, 127
1, 74700, Note_off_c, 1, 47, 0
1, 74736, Note_off_c, 1, 75, 0
1, 74760, Note_on_c, 1, 74, 127
1, 74760, Note_on_c, 1, 48, 127
1, 74856, Note_off_c, 1, 74, 0
1, 74880, Note_on_c, 1, 75, 127
1, 74940, Note_off_c, 1, 48, 0
1, 74976, Note_off_c, 1, 75, 0
1, 75000, Note_on_c, 1, 72, 127
1, 75000, Note_on_c, 1, 43, 127
1, 75096, Note_off_c, 1, 72, 0
1, 75120, Note_on_c, 1, 71, 127
1, 75180, Note_off_c, 1, 43, 0
1, 75216, Note_off_c, 1, 71, 0
1, 75240, Note_on_c, 1, 69, 127
1, 75240, Note_on_c, 1, 55, 127
1, 75336, Note_off_c, 1, 69, 0
1, 75336, Note_off_c, 1, 55, 0
1, 75360, Note_on_c, 1, 67, 127
1, 75360, Note_on_c, 1, 53, 127
1, 75456, Note_off_c, 1, 67, 0
1, 75456, Note_off_c, 1, 53, 0
1, 75480, Note_on_c, 1, 72, 127
1, 75480, Note_on_c, 1, 51, 127
1, 75576, Note_off_c, 1, 72, 0
1, 75600, Note_on_c, 1, 71, 127
1, 75660, Note_off_c, 1, 51, 0
1, 75696, Note_off_c, 1, 71, 0
1, 75720, Note_on_c, 1, 72, 127
1, 75720, Note_on_c, 1, 56, 127
1, 75816, Note_off_c, 1, 72, 0
1, 75840, Note_on_c, 1, 75, 127
1, 75900, Note_off_c, 1, 56, 0
1, 75936, Note_off_c, 1, 75, 0
1, 75960, Note_on_c, 1, 74, 127
1, 75960, Note_on_c, 1, 53, 127
1, 76056, Note_off_c, 1, 74, 0
1, 76080, Note_on_c, 1, 75, 127
1, 76140, Note_off_c, 1, 53, 0
1, 76176, Note_off_c, 1, 75, 0
1, 76200, Note_on_c, 1, 77, 127
1, 76200, Note_on_c, 1, 55, 127
1, 76296, Note_off_c, 1, 77, 0
1, 76320, Note_on_c, 1, 74, 127
1, 76380, Note_off_c, 1, 55, 0
1, 76416, Note_off_c, 1, 74, 0
1, 76440, Note_on_c, 1, 77, 127
1, 76440, Note_on_c, 1, 48, 127
1, 76536, Note_off_c, 1, 77, 0
1, 76560, Note_on_c, 1, 75, 127
1, 76620, Note_off_c, 1, 48, 0
1, 76656, Note_off_c, 1, 75, 0
1, 76680, Note_on_c, 1, 74, 127
1, 76680, Note_on_c, 1, 60, 127
1, 76776, Note_off_c, 1, 74, 0
1, 76776, Note_off_c, 1, 60, 0
1, 76800, Note_on_c, 1, 72, 127
1, 76800, Note_on_c, 1, 58, 127
1, 76896, Note_off_c, 1, 72, 0
1, 76896, Note_off_c, 1, 58, 0
1, 76920, Note_on_c, 1, 74, 127
1, 76920, Note_on_c, 1, 56, 127
1, 77016, Note_off_c, 1, 74, 0
1, 77040, Note_on_c, 1, 76, 127
1, 77100, Note_off_c, 1, 56, 0
1, 77136, Note_off_c, 1, 76, 0
1, 77160, Note_on_c, 1, 77, 127
1, 77160, Note_on_c, 1, 61, 127
1, 77256, Note_off_c, 1, 77, 0
1, 77280, Note_on_c, 1, 79, 127
1, 77340, Note_off_c, 1, 61, 0
1, 77376, Note_off_c, 1, 79, 0
1, 77400, Note_on_c, 1, 80, 127
1, 77400, Note_on_c, 1, 58, 127
1, 77424, Note_off_c, 1, 80, 0
1, 77430, Note_on_c, 1, 79, 127
1, 77454, Note_off_c, 1, 79, 0
1, 77580, Note_off_c, 1, 58, 0
1, 77610, Note_on_c, 1, 79, 127
1, 77634, Note_off_c, 1, 79, 0
1, 77640, Note_on_c, 1, 80, 127
1, 77640, Note_on_c, 1, 60, 127
1, 77664, Note_off_c, 1, 80, 0
1, 77670, Note_on_c, 1, 79, 127
1, 77748, Note_off_c, 1, 79, 0
1, 77760, Note_on_c, 1, 77, 127
1, 77808, Note_off_c, 1, 77, 0
1, 77820, Note_off_c, 1, 60, 0
1, 77880, Note_on_c, 1, 80, 127
1, 77880, Note_on_c, 1, 53, 127
1, 77976, Note_off_c, 1, 53, 0
1, 78000, Note_on_c, 1, 51, 127
1, 78096, Note_off_c, 1, 51, 0
1, 78168, Note_off_c, 1, 80, 0
1, 78240, Note_on_c, 1, 71, 127
1, 78240, Note_on_c, 1, 50, 127
1, 78336, Note_off_c, 1, 71, 0
1, 78336, Note_off_c, 1, 50, 0
1, 78360, Note_on_c, 1, 72, 127
1, 78360, Note_on_c, 1, 51, 127
1, 78389, Note_off_c, 1, 72, 0
1, 78390, Note_on_c, 1, 71, 127
1, 78414, Note_off_c, 1, 71, 0
1, 78420, Note_on_c, 1, 69, 127
1, 78444, Note_off_c, 1, 69, 0
1, 78456, Note_off_c, 1, 51, 0
1, 78480, Note_on_c, 1, 72, 127
1, 78480, Note_on_c, 1, 56, 127
1, 78576, Note_off_c, 1, 56, 0
1, 78600, Note_on_c, 1, 55, 127
1, 78672, Note_off_c, 1, 72, 0
1, 78696, Note_off_c, 1, 55, 0
1, 78720, Note_on_c, 1, 74, 127
1, 78720, Note_on_c, 1, 53, 127
1, 78816, Note_off_c, 1, 74, 0
1, 78816, Note_off_c, 1, 53, 0
1, 78840, Note_on_c, 1, 75, 127
1, 78840, Note_on_c, 1, 71, 127
1, 78840, Note_on_c, 1, 55, 127
1, 78869, Note_off_c, 1, 75, 0
1, 78870, Note_on_c, 1, 74, 127
1, 78899, Note_off_c, 1, 74, 0
1, 79020, Note_off_c, 1, 55, 0
1, 79080, Note_on_c, 1, 43, 127
1, 79200, Note_on_c, 1, 72, 127
1, 79224, Note_off_c, 1, 71, 0
1, 79260, Note_off_c, 1, 43, 0
1, 79296, Note_off_c, 1, 72, 0
1, 79320, Note_on_c, 1, 72, 127
1, 79320, Note_on_c, 1, 36, 127
1, 79512, Note_off_c, 1, 36, 0
1, 79560, Note_on_c, 1, 63, 127
1, 79656, Note_off_c, 1, 63, 0
1, 79680, Note_on_c, 1, 62, 127
1, 79776, Note_off_c, 1, 62, 0
1, 79800, Note_on_c, 1, 60, 127
1, 79896, Note_off_c, 1, 72, 0
1, 79896, Note_off_c, 1, 60, 0
1, 79920, Note_on_c, 1, 74, 127
1, 79920, Note_on_c, 1, 58, 127
1, 80016, Note_off_c, 1, 74, 0
1, 80016, Note_off_c, 1, 58, 0
1, 80040, Note_on_c, 1, 75, 127
1, 80040, Note_on_c, 1, 57, 127
1, 80136, Note_off_c, 1, 75, 0
1, 80136, Note_off_c, 1, 57, 0
1, 80160, Note_on_c, 1, 74, 127
1, 80160, Note_on_c, 1, 58, 127
1, 80256, Note_off_c, 1, 74, 0
1, 80256, Note_off_c, 1, 58, 0
1, 80280, Note_on_c, 1, 72, 127
1, 80280, Note_on_c, 1, 51, 127
1, 80376, Note_off_c, 1, 72, 0
1, 80400, Note_on_c, 1, 70, 127
1, 80472, Note_off_c, 1, 51, 0
1, 80496, Note_off_c, 1, 70, 0
1, 80520, Note_on_c, 1, 69, 127
1, 80520, Note_on_c, 1, 55, 127
1, 80616, Note_off_c, 1, 69, 0
1, 80640, Note_on_c, 1, 70, 127
1, 80700, Note_off_c, 1, 55, 0
1, 80736, Note_off_c, 1, 70, 0
1, 80760, Note_on_c, 1, 70, 127
1, 80760, Note_on_c, 1, 53, 127
1, 80856, Note_off_c, 1, 70, 0
1, 80880, Note_on_c, 1, 69, 127
1, 80940, Note_off_c, 1, 53, 0
1, 80976, Note_off_c, 1, 69, 0
1, 81000, Note_on_c, 1, 67, 127
1, 81000, Note_on_c, 1, 51, 127
1, 81096, Note_off_c, 1, 67, 0
1, 81120, Note_on_c, 1, 65, 127
1, 81180, Note_off_c, 1, 51, 0
1, 81216, Note_off_c, 1, 65, 0
1, 81240, Note_on_c, 1, 67, 127
1, 81240, Note_on_c, 1, 50, 127
1, 81336, Note_off_c, 1, 67, 0
1, 81360, Note_on_c, 1, 69, 127
1, 81420, Note_off_c, 1, 50, 0
1, 81456, Note_off_c, 1, 69, 0
1, 81480, Note_on_c, 1, 70, 127
1, 81480, Note_on_c, 1, 55, 127
1, 81576, Note_off_c, 1, 70, 0
1, 81600, Note_on_c, 1, 72, 127
1, 81660, Note_off_c, 1, 55, 0
1, 81696, Note_off_c, 1, 72, 0
1, 81720, Note_on_c, 1, 74, 127
1, 81720, Note_on_c, 1, 51, 127
1, 81744, Note_off_c, 1, 74, 0
1, 81750, Note_on_c, 1, 72, 127
1, 81774, Note_off_c, 1, 72, 0
1, 81900, Note_off_c, 1, 51, 0
1, 81930, Note_on_c, 1, 72, 127
1, 81954, Note_off_c, 1, 72, 0
1, 81960, Note_on_c, 1, 74, 127
1, 81960, Note_on_c, 1, 53, 127
1, 81984, Note_off_c, 1, 74, 0
1, 81990, Note_on_c, 1, 72, 127
1, 82068, Note_off_c, 1, 72, 0
1, 82080, Note_on_c, 1, 70, 127
1, 82128, Note_off_c, 1, 70, 0
1, 82140, Note_off_c, 1, 53, 0
1, 82200, Note_on_c, 1, 74, 127
1, 82200, Note_on_c, 1, 46, 127
1, 82320, Note_on_c, 1, 72, 127
1, 82380, Note_off_c, 1, 46, 0
1, 82416, Note_off_c, 1, 72, 0
1, 82440, Note_on_c, 1, 70, 127
1, 82440, Note_on_c, 1, 53, 127
1, 82536, Note_off_c, 1, 70, 0
1, 82560, Note_on_c, 1, 69, 127
1, 82620, Note_off_c, 1, 53, 0
1, 82656, Note_off_c, 1, 69, 0
1, 82680, Note_on_c, 1, 58, 127
1, 82800, Note_on_c, 1, 67, 127
1, 82896, Note_off_c, 1, 67, 0
1, 82968, Note_off_c, 1, 74, 0
1, 83160, Note_on_c, 1, 64, 127
1, 83256, Note_off_c, 1, 58, 0
1, 83280, Note_on_c, 1, 62, 127
1, 83376, Note_off_c, 1, 62, 0
1, 83400, Note_on_c, 1, 60, 127
1, 83496, Note_off_c, 1, 60, 0
1, 83544, Note_off_c, 1, 64, 0
1, 83640, Note_on_c, 1, 72, 127
1, 83640, Note_on_c, 1, 57, 127
1, 83760, Note_on_c, 1, 70, 127
1, 83820, Note_off_c, 1, 57, 0
1, 83856, Note_off_c, 1, 70, 0
1, 83880, Note_on_c, 1, 69, 127
1, 83880, Note_on_c, 1, 55, 127
1, 83976, Note_off_c, 1, 69, 0
1, 84000, Note_on_c, 1, 67, 127
1, 84060, Note_off_c, 1, 55, 0
1, 84096, Note_off_c, 1, 67, 0
1, 84120, Note_on_c, 1, 54, 127
1, 84240, Note_on_c, 1, 66, 127
1, 84336, Note_off_c, 1, 66, 0
1, 84600, Note_on_c, 1, 62, 127
1, 84696, Note_off_c, 1, 72, 0
1, 84696, Note_off_c, 1, 54, 0
1, 84720, Note_on_c, 1, 50, 127
1, 84816, Note_off_c, 1, 50, 0
1, 84840, Note_on_c, 1, 52, 127
1, 84936, Note_off_c, 1, 52, 0
1, 84984, Note_off_c, 1, 62, 0
1, 85080, Note_on_c, 1, 70, 127
1, 85080, Note_on_c, 1, 55, 127
1, 85200, Note_on_c, 1, 69, 127
1, 85260, Note_off_c, 1, 55, 0
1, 85296, Note_off_c, 1, 69, 0
1, 85320, Note_on_c, 1, 67, 127
1, 85320, Note_on_c, 1, 50, 127
1, 85416, Note_off_c, 1, 67, 0
1, 85440, Note_on_c, 1, 66, 127
1, 85500, Note_off_c, 1, 50, 0
1, 85536, Note_off_c, 1, 66, 0
1, 85560, Note_on_c, 1, 43, 127
1, 85680, Note_on_c, 1, 63, 127
1, 85740, Note_off_c, 1, 43, 0
1, 85776, Note_off_c, 1, 63, 0
1, 85800, Note_on_c, 1, 65, 127
1, 85848, Note_off_c, 1, 70, 0
1, 85896, Note_off_c, 1, 65, 0
1, 85920, Note_on_c, 1, 67, 127
1, 85920, Note_on_c, 1, 70, 127
1, 86016, Note_off_c, 1, 67, 0
1, 86016, Note_off_c, 1, 70, 0
1, 86040, Note_on_c, 1, 61, 127
1, 86040, Note_on_c, 1, 70, 127
1, 86064, Note_off_c, 1, 61, 0
1, 86070, Note_on_c, 1, 62, 127
1, 86094, Note_off_c, 1, 62, 0
1, 86136, Note_off_c, 1, 70, 0
1, 86160, Note_on_c, 1, 69, 127
1, 86256, Note_off_c, 1, 69, 0
1, 86400, Note_on_c, 1, 67, 127
1, 86496, Note_off_c, 1, 67, 0
1, 86520, Note_on_c, 1, 66, 127
1, 86544, Note_off_c, 1, 66, 0
1, 86550, Note_on_c, 1, 67, 127
1, 86574, Note_off_c, 1, 67, 0
1, 86580, Note_on_c, 1, 66, 127
1, 86640, Note_on_c, 1, 58, 127
1, 86736, Note_off_c, 1, 58, 0
1, 86760, Note_on_c, 1, 57, 127
1, 86856, Note_off_c, 1, 57, 0
1, 86880, Note_on_c, 1, 55, 127
1, 86976, Note_off_c, 1, 55, 0
1, 87120, Note_on_c, 1, 50, 127
1, 87144, Note_off_c, 1, 66, 0
1, 87216, Note_off_c, 1, 50, 0
1, 87240, Note_on_c, 1, 67, 127
1, 87240, Note_on_c, 1, 51, 127
1, 87336, Note_off_c, 1, 67, 0
1, 87336, Note_off_c, 1, 51, 0
1, 87360, Note_on_c, 1, 69, 127
1, 87360, Note_on_c, 1, 48, 127
1, 87456, Note_off_c, 1, 69, 0
1, 87456, Note_off_c, 1, 48, 0
1, 87480, Note_on_c, 1, 67, 127
1, 87480, Note_on_c, 1, 47, 127
1, 87576, Note_off_c, 1, 67, 0
1, 87576, Note_off_c, 1, 47, 0
1, 87600, Note_on_c, 1, 65, 127
1, 87600, Note_on_c, 1, 48, 127
1, 87696, Note_off_c, 1, 65, 0
1, 87696, Note_off_c, 1, 48, 0
1, 87720, Note_on_c, 1, 63, 127
1, 87720, Note_on_c, 1, 50, 127
1, 87816, Note_off_c, 1, 63, 0
1, 87816, Note_off_c, 1, 50, 0
1, 87840, Note_on_c, 1, 62, 127
1, 87840, Note_on_c, 1, 43, 127
1, 87936, Note_off_c, 1, 43, 0
1, 87960, Note_on_c, 1, 63, 127
1, 87960, Note_on_c, 1, 48, 127
1, 88056, Note_off_c, 1, 62, 0
1, 88056, Note_off_c, 1, 48, 0
1, 88080, Note_on_c, 1, 58, 127
1, 88080, Note_on_c, 1, 50, 127
1, 88176, Note_off_c, 1, 58, 0
1, 88176, Note_off_c, 1, 50, 0
1, 88200, Note_on_c, 1, 57, 127
1, 88296, Note_off_c, 1, 57, 0
1, 88320, Note_on_c, 1, 55, 127
1, 88320, Note_on_c, 1, 46, 127
1, 88344, Note_off_c, 1, 63, 0
1, 88416, Note_off_c, 1, 55, 0
1, 88416, Note_off_c, 1, 46, 0
1, 88440, Note_on_c, 1, 60, 127
1, 88440, Note_on_c, 1, 45, 127
1, 88536, Note_off_c, 1, 60, 0
1, 88560, Note_on_c, 1, 63, 127
1, 88632, Note_off_c, 1, 45, 0
1, 88656, Note_off_c, 1, 63, 0
1, 88680, Note_on_c, 1, 67, 127
1, 88680, Note_on_c, 1, 46, 127
1, 88776, Note_off_c, 1, 67, 0
1, 88800, Note_on_c, 1, 70, 127
1, 88872, Note_off_c, 1, 46, 0
1, 88896, Note_off_c, 1, 70, 0
1, 88920, Note_on_c, 1, 69, 127
1, 88920, Note_on_c, 1, 48, 127
1, 89016, Note_off_c, 1, 69, 0
1, 89016, Note_off_c, 1, 48, 0
1, 89040, Note_on_c, 1, 66, 127
1, 89040, Note_on_c, 1, 51, 127
1, 89136, Note_off_c, 1, 66, 0
1, 89136, Note_off_c, 1, 51, 0
1, 89160, Note_on_c, 1, 67, 127
1, 89160, Note_on_c, 1, 50, 127
1, 89256, Note_off_c, 1, 67, 0
1, 89256, Note_off_c, 1, 50, 0
1, 89280, Note_on_c, 1, 69, 127
1, 89280, Note_on_c, 1, 48, 127
1, 89376, Note_off_c, 1, 69, 0
1, 89376, Note_off_c, 1, 48, 0
1, 89400, Note_on_c, 1, 62, 127
1, 89400, Note_on_c, 1, 54, 127
1, 89496, Note_off_c, 1, 62, 0
1, 89520, Note_on_c, 1, 66, 127
1, 89580, Note_off_c, 1, 54, 0
1, 89616, Note_off_c, 1, 66, 0
1, 89640, Note_on_c, 1, 69, 127
1, 89640, Note_on_c, 1, 50, 127
1, 89736, Note_off_c, 1, 69, 0
1, 89760, Note_on_c, 1, 72, 127
1, 89820, Note_off_c, 1, 50, 0
1, 89856, Note_off_c, 1, 72, 0
1, 89880, Note_on_c, 1, 70, 127
1, 89880, Note_on_c, 1, 67, 127
1, 89880, Note_on_c, 1, 55, 127
1, 89904, Note_off_c, 1, 70, 0
1, 89910, Note_on_c, 1, 72, 127
1, 89934, Note_off_c, 1, 72, 0
1, 90060, Note_off_c, 1, 55, 0
1, 90120, Note_on_c, 1, 48, 127
1, 90240, Note_on_c, 1, 69, 127
1, 90264, Note_off_c, 1, 67, 0
1, 90300, Note_off_c, 1, 48, 0
1, 90336, Note_off_c, 1, 69, 0
1, 90360, Note_on_c, 1, 70, 127
1, 90360, Note_on_c, 1, 66, 127
1, 90360, Note_on_c, 1, 50, 127
1, 90384, Note_off_c, 1, 70, 0
1, 90390, Note_on_c, 1, 69, 127
1, 90414, Note_off_c, 1, 69, 0
1, 90540, Note_off_c, 1, 50, 0
1, 90600, Note_on_c, 1, 38, 127
1, 90720, Note_on_c, 1, 67, 127
1, 90744, Note_off_c, 1, 66, 0
1, 90780, Note_off_c, 1, 38, 0
1, 90816, Note_off_c, 1, 67, 0
1, 90840, Note_on_c, 1, 67, 127
1, 90840, Note_on_c, 1, 43, 127
1, 91080, Note_on_c, 1, 46, 127
1, 91320, Note_off_c, 1, 46, 0
1, 91320, Note_on_c, 1, 50, 127
1, 91560, Note_off_c, 1, 50, 0
1, 91560, Note_on_c, 1, 62, 127
1, 91560, Note_on_c, 1, 58, 127
1, 91560, Note_on_c, 1, 55, 127
1, 91944, Note_off_c, 1, 67, 0
1, 91944, Note_off_c, 1, 43, 0
1, 91944, Note_off_c, 1, 62, 0
1, 91944, Note_off_c, 1, 58, 0
1, 92040, Note_off_c, 1, 55, 0
1, 92040, End_track
0, 0, End_of_file