0, 0, Header, 1, 1, 480
1, 0, Start_track
1, 0, Title_t, "Test"
1, 0, Tempo, 500000
1, 0, Instrument_name_t, "Church Organ"
1, 64, Note_on_c, 1, 70, 127
1, 64, Note_on_c, 1, 67, 127
1, 268, Note_on_c, 1, 63, 127
1, 471, Note_off_c, 1, 63, 0
1, 473, Note_on_c, 1, 62, 127
1, 676, Note_off_c, 1, 62, 0
1, 883, Note_on_c, 1, 58, 127
1, 1086, Note_off_c, 1, 58, 0
1, 1088, Note_on_c, 1, 55, 127
1, 1291, Note_off_c, 1, 70, 0
1, 1291, Note_off_c, 1, 55, 0
1, 1292, Note_on_c, 1, 51, 127
1, 1496, Note_off_c, 1, 67, 0
1, 1702, Note_on_c, 1, 75, 127
1, 1900, Note_off_c, 1, 51, 0
1, 1905, Note_off_c, 1, 75, 0
1, 1907, Note_on_c, 1, 75, 127
1, 1907, Note_on_c, 1, 65, 127
1, 2112, Note_on_c, 1, 58, 127
1, 2315, Note_off_c, 1, 58, 0
1, 2316, Note_on_c, 1, 57, 127
1, 2519, Note_off_c, 1, 75, 0
1, 2519, Note_off_c, 1, 57, 0
1, 2521, Note_on_c, 1, 74, 127
1, 2726, Note_on_c, 1, 53, 127
1, 2929, Note_off_c, 1, 53, 0
1, 2931, Note_on_c, 1, 50, 127
1, 3134, Note_off_c, 1, 65, 0
1, 3134, Note_off_c, 1, 50, 0
1, 3136, Note_on_c, 1, 46, 127
1, 3338, Note_off_c, 1, 74, 0
1, 3545, Note_on_c, 1, 67, 127
1, 3648, Note_off_c, 1, 46, 0
1, 3748, Note_off_c, 1, 67, 0
1, 3750, Note_on_c, 1, 68, 127
1, 3750, Note_on_c, 1, 53, 127
1, 3955, Note_on_c, 1, 60, 127
1, 4158, Note_off_c, 1, 60, 0
1, 4160, Note_on_c, 1, 63, 127
1, 4358, Note_off_c, 1, 68, 0
1, 4362, Note_off_c, 1, 53, 0
1, 4363, Note_off_c, 1, 63, 0
1, 4364, Note_on_c, 1, 58, 127
1, 4364, Note_on_c, 1, 62, 127
1, 4569, Note_on_c, 1, 65, 127
1, 4772, Note_off_c, 1, 65, 0
1, 4774, Note_on_c, 1, 70, 127
1, 4972, Note_off_c, 1, 58, 0
1, 4972, Note_off_c, 1, 62, 0
1, 4979, Note_on_c, 1, 46, 127
1, 5182, Note_off_c, 1, 70, 0
1, 5388, Note_on_c, 1, 68, 127
1, 5587, Note_off_c, 1, 46, 0
1, 5672, Note_on_c, 1, 63, 127
1, 5718, Note_off_c, 1, 68, 0
1, 5798, Note_on_c, 1, 51, 127
1, 6001, Note_off_c, 1, 51, 0
1, 6003, Note_on_c, 1, 50, 127
1, 6206, Note_off_c, 1, 50, 0
1, 6208, Note_on_c, 1, 67, 127
1, 6617, Note_on_c, 1, 43, 127
1, 6820, Note_off_c, 1, 43, 0
1, 6822, Note_off_c, 1, 63, 0
1, 6822, Note_on_c, 1, 39, 127
1, 6908, Note_off_c, 1, 67, 0
1, 7657, Note_on_c, 1, 55, 127
1, 7860, Note_off_c, 1, 55, 0
1, 7862, Note_on_c, 1, 53, 127
1, 8065, Note_off_c, 1, 53, 0
1, 8476, Note_on_c, 1, 56, 127
1, 8497, Note_off_c, 1, 39, 0
1, 8679, Note_off_c, 1, 56, 0
1, 8681, Note_on_c, 1, 58, 127
1, 8681, Note_on_c, 1, 51, 127
1, 8681, Note_on_c, 1, 39, 127
1, 8884, Note_off_c, 1, 58, 0
1, 8886, Note_on_c, 1, 63, 127
1, 9089, Note_off_c, 1, 63, 0
1, 9091, Note_on_c, 1, 55, 127
1, 9143, Note_off_c, 1, 51, 0
1, 9143, Note_off_c, 1, 39, 0
1, 9145, Note_on_c, 1, 49, 127
1, 9293, Note_off_c, 1, 49, 0
1, 9294, Note_off_c, 1, 55, 0
1, 9296, Note_on_c, 1, 56, 127
1, 9296, Note_on_c, 1, 48, 127
1, 9296, Note_on_c, 1, 39, 127
1, 9499, Note_off_c, 1, 56, 0
1, 9500, Note_on_c, 1, 60, 127
1, 9703, Note_off_c, 1, 60, 0
1, 9704, Note_off_c, 1, 48, 0
1, 9705, Note_on_c, 1, 58, 127
1, 9705, Note_on_c, 1, 51, 127
1, 9908, Note_off_c, 1, 58, 0
1, 9908, Note_off_c, 1, 51, 0
1, 9910, Note_on_c, 1, 44, 127
1, 10115, Note_on_c, 1, 63, 127
1, 10318, Note_off_c, 1, 63, 0
1, 10320, Note_on_c, 1, 61, 127
1, 10352, Note_off_c, 1, 39, 0
1, 10372, Note_off_c, 1, 44, 0
1, 10374, Note_on_c, 1, 46, 127
1, 10522, Note_off_c, 1, 46, 0
1, 10523, Note_off_c, 1, 61, 0
1, 10524, Note_on_c, 1, 63, 127
1, 10524, Note_on_c, 1, 48, 127
1, 10524, Note_on_c, 1, 39, 127
1, 10727, Note_off_c, 1, 63, 0
1, 10729, Note_on_c, 1, 68, 127
1, 10932, Note_off_c, 1, 68, 0
1, 10934, Note_on_c, 1, 60, 127
1, 10986, Note_off_c, 1, 48, 0
1, 10986, Note_off_c, 1, 39, 0
1, 10988, Note_on_c, 1, 44, 127
1, 11136, Note_off_c, 1, 44, 0
1, 11137, Note_off_c, 1, 60, 0
1, 11139, Note_on_c, 1, 62, 127
1, 11139, Note_on_c, 1, 53, 127
1, 11139, Note_on_c, 1, 51, 127
1, 11342, Note_off_c, 1, 62, 0
1, 11344, Note_on_c, 1, 65, 127
1, 11547, Note_off_c, 1, 53, 0
1, 11547, Note_off_c, 1, 65, 0
1, 11548, Note_on_c, 1, 63, 127
1, 11548, Note_on_c, 1, 56, 127
1, 11747, Note_off_c, 1, 51, 0
1, 11751, Note_off_c, 1, 63, 0
1, 11751, Note_off_c, 1, 56, 0
1, 11753, Note_on_c, 1, 65, 127
1, 11753, Note_on_c, 1, 50, 127
1, 11956, Note_off_c, 1, 65, 0
1, 11958, Note_on_c, 1, 68, 127
1, 12161, Note_off_c, 1, 50, 0
1, 12161, Note_off_c, 1, 68, 0
1, 12163, Note_on_c, 1, 67, 127
1, 12163, Note_on_c, 1, 51, 127
1, 12366, Note_off_c, 1, 67, 0
1, 12366, Note_off_c, 1, 51, 0
1, 12368, Note_on_c, 1, 68, 127
1, 12368, Note_on_c, 1, 53, 127
1, 12572, Note_on_c, 1, 77, 127
1, 12788, Note_off_c, 1, 53, 0
1, 12788, Note_off_c, 1, 77, 0
1, 12788, Note_on_c, 1, 39, 127
1, 12788, Note_on_c, 1, 46, 127
1, 12788, Note_on_c, 1, 50, 127
1, 12976, Note_off_c, 1, 68, 0
1, 12976, Note_off_c, 1, 39, 0
1, 12976, Note_off_c, 1, 46, 0
1, 12976, Note_off_c, 1, 50, 0
1, 12982, Note_on_c, 1, 67, 127
1, 12982, Note_on_c, 1, 51, 127
1, 12982, Note_on_c, 1, 46, 127
1, 12982, Note_on_c, 1, 39, 127
1, 13185, Note_off_c, 1, 67, 0
1, 13187, Note_on_c, 1, 70, 127
1, 13390, Note_off_c, 1, 51, 0
1, 13390, Note_off_c, 1, 46, 0
1, 13390, Note_off_c, 1, 39, 0
1, 13390, Note_off_c, 1, 70, 0
1, 13392, Note_on_c, 1, 68, 127
1, 13392, Note_on_c, 1, 53, 127
1, 13595, Note_off_c, 1, 68, 0
1, 13595, Note_off_c, 1, 53, 0
1, 13596, Note_on_c, 1, 70, 127
1, 13596, Note_on_c, 1, 55, 127
1, 13799, Note_off_c, 1, 70, 0
1, 13801, Note_on_c, 1, 75, 127
1, 14004, Note_off_c, 1, 55, 0
1, 14004, Note_off_c, 1, 75, 0
1, 14006, Note_on_c, 1, 74, 127
1, 14006, Note_on_c, 1, 58, 127
1, 14209, Note_off_c, 1, 74, 0
1, 14209, Note_off_c, 1, 58, 0
1, 14211, Note_on_c, 1, 75, 127
1, 14211, Note_on_c, 1, 55, 127
1, 14414, Note_off_c, 1, 75, 0
1, 14416, Note_on_c, 1, 79, 127
1, 14619, Note_off_c, 1, 55, 0
1, 14619, Note_off_c, 1, 79, 0
1, 14620, Note_on_c, 1, 77, 127
1, 14620, Note_on_c, 1, 50, 127
1, 14823, Note_off_c, 1, 77, 0
1, 14823, Note_off_c, 1, 50, 0
1, 14825, Note_on_c, 1, 79, 127
1, 14825, Note_on_c, 1, 51, 127
1, 15028, Note_off_c, 1, 79, 0
1, 15030, Note_on_c, 1, 75, 127
1, 15233, Note_off_c, 1, 51, 0
1, 15233, Note_off_c, 1, 75, 0
1, 15235, Note_on_c, 1, 74, 127
1, 15235, Note_on_c, 1, 55, 127
1, 15438, Note_off_c, 1, 74, 0
1, 15438, Note_off_c, 1, 55, 0
1, 15440, Note_on_c, 1, 75, 127
1, 15440, Note_on_c, 1, 48, 127
1, 15643, Note_off_c, 1, 75, 0
1, 15644, Note_on_c, 1, 72, 127
1, 15847, Note_off_c, 1, 72, 0
1, 15848, Note_off_c, 1, 48, 0
1, 15849, Note_on_c, 1, 70, 127
1, 15849, Note_on_c, 1, 50, 127
1, 16052, Note_off_c, 1, 70, 0
1, 16052, Note_off_c, 1, 50, 0
1, 16054, Note_on_c, 1, 51, 127
1, 16054, Note_on_c, 1, 72, 127
1, 16154, Note_off_c, 1, 51, 0
1, 16156, Note_on_c, 1, 50, 127
1, 16256, Note_off_c, 1, 50, 0
1, 16257, Note_off_c, 1, 72, 0
1, 16259, Note_on_c, 1, 48, 127
1, 16259, Note_on_c, 1, 69, 127
1, 16359, Note_off_c, 1, 48, 0
1, 16361, Note_on_c, 1, 50, 127
1, 16461, Note_off_c, 1, 50, 0
1, 16462, Note_off_c, 1, 69, 0
1, 16464, Note_on_c, 1, 67, 127
1, 16464, Note_on_c, 1, 51, 127
1, 16667, Note_off_c, 1, 67, 0
1, 16667, Note_off_c, 1, 51, 0
1, 16668, Note_on_c, 1, 41, 127
1, 16668, Note_on_c, 1, 69, 127
1, 16873, Note_on_c, 1, 65, 127
1, 17076, Note_off_c, 1, 41, 0
1, 17076, Note_off_c, 1, 65, 0
1, 17078, Note_on_c, 1, 63, 127
1, 17281, Note_off_c, 1, 63, 0
1, 17488, Note_on_c, 1, 60, 127
1, 17691, Note_off_c, 1, 60, 0
1, 17692, Note_on_c, 1, 57, 127
1, 17895, Note_off_c, 1, 69, 0
1, 17895, Note_off_c, 1, 57, 0
1, 17897, Note_on_c, 1, 53, 127
1, 18102, Note_on_c, 1, 69, 127
1, 18305, Note_off_c, 1, 69, 0
1, 18307, Note_on_c, 1, 75, 127
1, 18509, Note_off_c, 1, 53, 0
1, 18510, Note_off_c, 1, 75, 0
1, 18512, Note_on_c, 1, 74, 127
1, 18512, Note_on_c, 1, 58, 127
1, 18716, Note_on_c, 1, 70, 127
1, 18919, Note_off_c, 1, 70, 0
1, 18920, Note_off_c, 1, 74, 0
1, 18921, Note_on_c, 1, 65, 127
1, 19124, Note_off_c, 1, 58, 0
1, 19124, Note_off_c, 1, 65, 0
1, 19126, Note_on_c, 1, 67, 127
1, 19126, Note_on_c, 1, 51, 127
1, 19331, Note_on_c, 1, 63, 127
1, 19534, Note_off_c, 1, 63, 0
1, 19536, Note_on_c, 1, 62, 127
1, 19734, Note_off_c, 1, 67, 0
1, 19738, Note_off_c, 1, 51, 0
1, 19739, Note_off_c, 1, 62, 0
1, 19740, Note_on_c, 1, 60, 127
1, 19740, Note_on_c, 1, 53, 127
1, 19945, Note_on_c, 1, 70, 127
1, 20148, Note_off_c, 1, 70, 0
1, 20150, Note_on_c, 1, 69, 127
1, 20348, Note_off_c, 1, 60, 0
1, 20348, Note_off_c, 1, 53, 0
1, 20353, Note_off_c, 1, 69, 0
1, 20355, Note_on_c, 1, 70, 127
1, 20355, Note_on_c, 1, 62, 127
1, 20560, Note_on_c, 1, 58, 127
1, 20763, Note_off_c, 1, 58, 0
1, 20764, Note_on_c, 1, 57, 127
1, 20967, Note_off_c, 1, 57, 0
1, 21174, Note_on_c, 1, 53, 127
1, 21377, Note_off_c, 1, 53, 0
1, 21379, Note_on_c, 1, 50, 127
1, 21582, Note_off_c, 1, 70, 0
1, 21582, Note_off_c, 1, 50, 0
1, 21584, Note_on_c, 1, 46, 127
1, 21787, Note_off_c, 1, 62, 0
1, 22401, Note_off_c, 1, 46, 0
1, 22419, Note_on_c, 1, 46, 127
1, 22419, Note_on_c, 1, 62, 127
1, 22622, Note_off_c, 1, 46, 0
1, 22622, Note_off_c, 1, 62, 0
1, 22624, Note_on_c, 1, 45, 127
1, 22624, Note_on_c, 1, 60, 127
1, 22827, Note_off_c, 1, 45, 0
1, 22827, Note_off_c, 1, 60, 0
1, 22828, Note_on_c, 1, 62, 127
1, 22828, Note_on_c, 1, 46, 127
1, 23031, Note_off_c, 1, 62, 0
1, 23033, Note_on_c, 1, 50, 127
1, 23033, Note_on_c, 1, 65, 127
1, 23132, Note_off_c, 1, 46, 0
1, 23236, Note_off_c, 1, 50, 0
1, 23236, Note_off_c, 1, 65, 0
1, 23238, Note_on_c, 1, 48, 127
1, 23238, Note_on_c, 1, 63, 127
1, 23328, Note_on_c, 1, 46, 127
1, 23441, Note_off_c, 1, 48, 0
1, 23441, Note_off_c, 1, 63, 0
1, 23441, Note_off_c, 1, 46, 0
1, 23443, Note_on_c, 1, 50, 127
1, 23443, Note_on_c, 1, 65, 127
1, 23443, Note_on_c, 1, 46, 127
1, 23646, Note_off_c, 1, 50, 0
1, 23646, Note_off_c, 1, 65, 0
1, 23648, Note_on_c, 1, 53, 127
1, 23648, Note_on_c, 1, 68, 127
1, 23811, Note_off_c, 1, 46, 0
1, 23851, Note_off_c, 1, 53, 0
1, 23851, Note_off_c, 1, 68, 0
1, 23852, Note_on_c, 1, 56, 127
1, 23852, Note_on_c, 1, 62, 127
1, 23942, Note_on_c, 1, 46, 127
1, 24055, Note_off_c, 1, 56, 0
1, 24055, Note_off_c, 1, 62, 0
1, 24055, Note_off_c, 1, 46, 0
1, 24057, Note_on_c, 1, 55, 127
1, 24057, Note_on_c, 1, 63, 127
1, 24057, Note_on_c, 1, 46, 127
1, 24260, Note_off_c, 1, 55, 0
1, 24260, Note_off_c, 1, 63, 0
1, 24262, Note_on_c, 1, 58, 127
1, 24262, Note_on_c, 1, 67, 127
1, 24465, Note_off_c, 1, 46, 0
1, 24465, Note_off_c, 1, 58, 0
1, 24465, Note_off_c, 1, 67, 0
1, 24467, Note_on_c, 1, 56, 127
1, 24467, Note_on_c, 1, 65, 127
1, 24670, Note_off_c, 1, 56, 0
1, 24670, Note_off_c, 1, 65, 0
1, 24672, Note_on_c, 1, 58, 127
1, 24672, Note_on_c, 1, 67, 127
1, 24875, Note_off_c, 1, 58, 0
1, 24875, Note_off_c, 1, 67, 0
1, 24876, Note_on_c, 1, 55, 127
1, 24876, Note_on_c, 1, 70, 127
1, 25079, Note_off_c, 1, 55, 0
1, 25079, Note_off_c, 1, 70, 0
1, 25081, Note_on_c, 1, 53, 127
1, 25081, Note_on_c, 1, 68, 127
1, 25171, Note_on_c, 1, 46, 127
1, 25284, Note_off_c, 1, 53, 0
1, 25284, Note_off_c, 1, 68, 0
1, 25284, Note_off_c, 1, 46, 0
1, 25286, Note_on_c, 1, 55, 127
1, 25286, Note_on_c, 1, 70, 127
1, 25286, Note_on_c, 1, 46, 127
1, 25489, Note_off_c, 1, 55, 0
1, 25489, Note_off_c, 1, 70, 0
1, 25491, Note_on_c, 1, 58, 127
1, 25491, Note_on_c, 1, 75, 127
1, 25694, Note_off_c, 1, 46, 0
1, 25694, Note_off_c, 1, 58, 0
1, 25694, Note_off_c, 1, 75, 0
1, 25696, Note_on_c, 1, 62, 127
1, 25696, Note_on_c, 1, 67, 127
1, 25785, Note_on_c, 1, 58, 127
1, 25898, Note_off_c, 1, 58, 0
1, 25899, Note_off_c, 1, 62, 0
1, 25899, Note_off_c, 1, 67, 0
1, 25900, Note_on_c, 1, 60, 127
1, 25900, Note_on_c, 1, 69, 127
1, 25900, Note_on_c, 1, 58, 127
1, 26103, Note_off_c, 1, 60, 0
1, 26103, Note_off_c, 1, 69, 0
1, 26105, Note_on_c, 1, 63, 127
1, 26105, Note_on_c, 1, 72, 127
1, 26308, Note_off_c, 1, 63, 0
1, 26308, Note_off_c, 1, 72, 0
1, 26310, Note_on_c, 1, 62, 127
1, 26310, Note_on_c, 1, 70, 127
1, 26508, Note_off_c, 1, 58, 0
1, 26513, Note_off_c, 1, 62, 0
1, 26513, Note_off_c, 1, 70, 0
1, 26515, Note_on_c, 1, 63, 127
1, 26515, Note_on_c, 1, 72, 127
1, 26718, Note_off_c, 1, 63, 0
1, 26718, Note_off_c, 1, 72, 0
1, 26720, Note_on_c, 1, 60, 127
1, 26720, Note_on_c, 1, 75, 127
1, 26923, Note_off_c, 1, 60, 0
1, 26923, Note_off_c, 1, 75, 0
1, 26924, Note_on_c, 1, 58, 127
1, 26924, Note_on_c, 1, 74, 127
1, 27127, Note_off_c, 1, 58, 0
1, 27127, Note_off_c, 1, 74, 0
1, 27129, Note_on_c, 1, 75, 127
1, 27129, Note_on_c, 1, 60, 127
1, 27332, Note_off_c, 1, 75, 0
1, 27334, Note_on_c, 1, 58, 127
1, 27334, Note_on_c, 1, 84, 127
1, 27537, Note_off_c, 1, 60, 0
1, 27545, Note_off_c, 1, 58, 0
1, 27545, Note_on_c, 1, 57, 127
1, 27545, Note_on_c, 1, 53, 127
1, 27545, Note_on_c, 1, 46, 127
1, 27553, Note_off_c, 1, 84, 0
1, 27740, Note_off_c, 1, 57, 0
1, 27740, Note_off_c, 1, 53, 0
1, 27740, Note_off_c, 1, 46, 0
1, 27744, Note_on_c, 1, 58, 127
1, 27744, Note_on_c, 1, 53, 127
1, 27744, Note_on_c, 1, 74, 127
1, 27744, Note_on_c, 1, 46, 127
1, 27947, Note_off_c, 1, 58, 0
1, 27947, Note_off_c, 1, 53, 0
1, 27947, Note_off_c, 1, 74, 0
1, 27948, Note_on_c, 1, 62, 127
1, 27948, Note_on_c, 1, 70, 127
1, 28151, Note_off_c, 1, 62, 0
1, 28151, Note_off_c, 1, 70, 0
1, 28153, Note_on_c, 1, 60, 127
1, 28153, Note_on_c, 1, 69, 127
1, 28352, Note_off_c, 1, 46, 0
1, 28356, Note_off_c, 1, 60, 0
1, 28356, Note_off_c, 1, 69, 0
1, 28358, Note_on_c, 1, 62, 127
1, 28358, Note_on_c, 1, 70, 127
1, 28561, Note_off_c, 1, 62, 0
1, 28561, Note_off_c, 1, 70, 0
1, 28563, Note_on_c, 1, 65, 127
1, 28563, Note_on_c, 1, 74, 127
1, 28766, Note_off_c, 1, 65, 0
1, 28766, Note_off_c, 1, 74, 0
1, 28768, Note_on_c, 1, 63, 127
1, 28768, Note_on_c, 1, 72, 127
1, 28971, Note_off_c, 1, 63, 0
1, 28971, Note_off_c, 1, 72, 0
1, 28972, Note_on_c, 1, 65, 127
1, 28972, Note_on_c, 1, 74, 127
1, 29175, Note_off_c, 1, 65, 0
1, 29175, Note_off_c, 1, 74, 0
1, 29177, Note_on_c, 1, 68, 127
1, 29177, Note_on_c, 1, 77, 127
1, 29380, Note_off_c, 1, 68, 0
1, 29380, Note_off_c, 1, 77, 0
1, 29382, Note_on_c, 1, 67, 127
1, 29382, Note_on_c, 1, 75, 127
1, 29585, Note_off_c, 1, 67, 0
1, 29587, Note_on_c, 1, 68, 127
1, 29646, Note_off_c, 1, 75, 0
1, 29667, Note_on_c, 1, 74, 127
1, 29747, Note_on_c, 1, 77, 127
1, 29792, Note_on_c, 1, 58, 127
1, 29995, Note_off_c, 1, 58, 0
1, 29996, Note_on_c, 1, 57, 127
1, 30199, Note_off_c, 1, 57, 0
1, 30406, Note_on_c, 1, 53, 127
1, 30609, Note_off_c, 1, 53, 0
1, 30611, Note_on_c, 1, 50, 127
1, 30814, Note_off_c, 1, 50, 0
1, 30816, Note_on_c, 1, 46, 127
1, 31019, Note_off_c, 1, 68, 0
1, 31019, Note_off_c, 1, 74, 0
1, 31019, Note_off_c, 1, 77, 0
1, 31020, Note_on_c, 1, 63, 127
1, 31223, Note_off_c, 1, 63, 0
1, 31225, Note_on_c, 1, 62, 127
1, 31225, Note_on_c, 1, 65, 127
1, 31424, Note_off_c, 1, 46, 0
1, 31428, Note_off_c, 1, 62, 0
1, 31428, Note_off_c, 1, 65, 0
1, 31430, Note_on_c, 1, 63, 127
1, 31430, Note_on_c, 1, 67, 127
1, 31635, Note_on_c, 1, 58, 127
1, 31838, Note_off_c, 1, 58, 0
1, 31840, Note_on_c, 1, 56, 127
1, 32043, Note_off_c, 1, 56, 0
1, 32249, Note_on_c, 1, 55, 127
1, 32452, Note_off_c, 1, 55, 0
1, 32454, Note_on_c, 1, 51, 127
1, 32657, Note_off_c, 1, 51, 0
1, 32659, Note_on_c, 1, 46, 127
1, 32862, Note_off_c, 1, 63, 0
1, 32862, Note_off_c, 1, 67, 0
1, 32864, Note_on_c, 1, 65, 127
1, 32864, Note_on_c, 1, 74, 127
1, 33067, Note_off_c, 1, 65, 0
1, 33067, Note_off_c, 1, 74, 0
1, 33068, Note_on_c, 1, 75, 127
1, 33271, Note_off_c, 1, 75, 0
1, 33273, Note_on_c, 1, 68, 127
1, 33273, Note_on_c, 1, 77, 127
1, 33379, Note_off_c, 1, 46, 0
1, 33683, Note_on_c, 1, 45, 127
1, 33886, Note_off_c, 1, 45, 0
1, 34092, Note_on_c, 1, 50, 127
1, 34295, Note_off_c, 1, 50, 0
1, 34295, Note_on_c, 1, 48, 127
1, 34349, Note_off_c, 1, 68, 0
1, 34349, Note_off_c, 1, 77, 0
1, 34498, Note_off_c, 1, 48, 0
1, 34502, Note_on_c, 1, 50, 127
1, 34502, Note_on_c, 1, 68, 127
1, 34502, Note_on_c, 1, 71, 127
1, 34705, Note_off_c, 1, 50, 0
1, 34707, Note_on_c, 1, 53, 127
1, 34910, Note_off_c, 1, 53, 0
1, 34910, Note_on_c, 1, 51, 127
1, 34948, Note_off_c, 1, 68, 0
1, 34948, Note_off_c, 1, 71, 0
1, 34950, Note_on_c, 1, 72, 127
1, 34950, Note_on_c, 1, 65, 127
1, 35108, Note_off_c, 1, 72, 0
1, 35108, Note_off_c, 1, 65, 0
1, 35113, Note_off_c, 1, 51, 0
1, 35116, Note_on_c, 1, 53, 127
1, 35116, Note_on_c, 1, 68, 127
1, 35116, Note_on_c, 1, 71, 127
1, 35116, Note_on_c, 1, 62, 127
1, 35319, Note_off_c, 1, 53, 0
1, 35321, Note_on_c, 1, 56, 127
1, 35524, Note_off_c, 1, 56, 0
1, 35526, Note_on_c, 1, 55, 127
1, 35729, Note_off_c, 1, 55, 0
1, 35933, Note_off_c, 1, 68, 0
1, 35933, Note_off_c, 1, 71, 0
1, 35933, Note_off_c, 1, 62, 0
1, 35936, Note_on_c, 1, 59, 127
1, 36139, Note_off_c, 1, 59, 0
1, 36345, Note_on_c, 1, 65, 127
1, 36345, Note_on_c, 1, 47, 127
1, 36548, Note_off_c, 1, 65, 0
1, 36550, Note_on_c, 1, 63, 127
1, 36753, Note_off_c, 1, 63, 0
1, 36755, Note_on_c, 1, 62, 127
1, 36929, Note_off_c, 1, 47, 0
1, 36958, Note_off_c, 1, 62, 0
1, 36960, Note_on_c, 1, 63, 127
1, 36960, Note_on_c, 1, 48, 127
1, 37163, Note_off_c, 1, 63, 0
1, 37164, Note_on_c, 1, 67, 127
1, 37367, Note_off_c, 1, 67, 0
1, 37369, Note_on_c, 1, 72, 127
1, 37572, Note_off_c, 1, 48, 0
1, 37572, Note_off_c, 1, 72, 0
1, 37574, Note_on_c, 1, 75, 127
1, 37574, Note_on_c, 1, 60, 127
1, 37777, Note_off_c, 1, 75, 0
1, 37779, Note_on_c, 1, 74, 127
1, 37982, Note_off_c, 1, 74, 0
1, 37984, Note_on_c, 1, 72, 127
1, 38186, Note_off_c, 1, 60, 0
1, 38188, Note_on_c, 1, 58, 127
1, 38288, Note_off_c, 1, 72, 0
1, 38393, Note_on_c, 1, 63, 127
1, 38596, Note_off_c, 1, 63, 0
1, 38800, Note_off_c, 1, 58, 0
1, 38803, Note_on_c, 1, 65, 127
1, 38803, Note_on_c, 1, 56, 127
1, 39006, Note_off_c, 1, 65, 0
1, 39008, Note_on_c, 1, 68, 127
1, 39211, Note_off_c, 1, 68, 0
1, 39212, Note_on_c, 1, 72, 127
1, 39415, Note_off_c, 1, 56, 0
1, 39415, Note_off_c, 1, 72, 0
1, 39417, Note_on_c, 1, 75, 127
1, 39417, Note_on_c, 1, 44, 127
1, 39620, Note_off_c, 1, 75, 0
1, 39622, Note_on_c, 1, 74, 127
1, 39825, Note_off_c, 1, 74, 0
1, 39827, Note_on_c, 1, 72, 127
1, 40029, Note_off_c, 1, 44, 0
1, 40032, Note_on_c, 1, 51, 127
1, 40131, Note_off_c, 1, 72, 0
1, 40236, Note_on_c, 1, 67, 127
1, 40439, Note_off_c, 1, 67, 0
1, 40644, Note_off_c, 1, 51, 0
1, 40646, Note_on_c, 1, 68, 127
1, 40646, Note_on_c, 1, 53, 127
1, 40849, Note_off_c, 1, 68, 0
1, 40851, Note_on_c, 1, 71, 127
1, 41054, Note_off_c, 1, 71, 0
1, 41056, Note_on_c, 1, 72, 127
1, 41258, Note_off_c, 1, 53, 0
1, 41259, Note_off_c, 1, 72, 0
1, 41260, Note_on_c, 1, 75, 127
1, 41260, Note_on_c, 1, 54, 127
1, 41463, Note_off_c, 1, 75, 0
1, 41465, Note_on_c, 1, 74, 127
1, 41668, Note_off_c, 1, 74, 0
1, 41670, Note_on_c, 1, 72, 127
1, 41872, Note_off_c, 1, 54, 0
1, 41875, Note_on_c, 1, 55, 127
1, 41974, Note_off_c, 1, 72, 0
1, 42080, Note_on_c, 1, 65, 127
1, 42283, Note_off_c, 1, 65, 0
1, 42284, Note_on_c, 1, 71, 127
1, 42487, Note_off_c, 1, 55, 0
1, 42487, Note_off_c, 1, 71, 0
1, 42489, Note_on_c, 1, 48, 127
1, 42489, Note_on_c, 1, 72, 127
1, 42696, Note_on_c, 1, 67, 127
1, 42903, Note_on_c, 1, 63, 127
1, 43110, Note_on_c, 1, 60, 127
1, 43315, Note_off_c, 1, 48, 0
1, 43324, Note_on_c, 1, 51, 127
1, 43527, Note_off_c, 1, 51, 0
1, 43529, Note_on_c, 1, 55, 127
1, 43716, Note_off_c, 1, 72, 0
1, 43732, Note_off_c, 1, 55, 0
1, 43734, Note_on_c, 1, 58, 127
1, 43923, Note_off_c, 1, 67, 0
1, 43937, Note_off_c, 1, 58, 0
1, 43939, Note_on_c, 1, 57, 127
1, 44130, Note_off_c, 1, 63, 0
1, 44142, Note_off_c, 1, 57, 0
1, 44337, Note_off_c, 1, 60, 0
1, 44348, Note_on_c, 1, 57, 127
1, 44553, Note_on_c, 1, 75, 127
1, 44756, Note_off_c, 1, 75, 0
1, 44758, Note_on_c, 1, 74, 127
1, 44961, Note_off_c, 1, 74, 0
1, 45168, Note_on_c, 1, 72, 127
1, 45372, Note_on_c, 1, 69, 127
1, 45577, Note_on_c, 1, 65, 127
1, 45692, Note_off_c, 1, 57, 0
1, 45782, Note_on_c, 1, 60, 127
1, 45985, Note_off_c, 1, 72, 0
1, 45985, Note_off_c, 1, 60, 0
1, 45987, Note_on_c, 1, 53, 127
1, 46189, Note_off_c, 1, 69, 0
1, 46190, Note_off_c, 1, 53, 0
1, 46192, Note_on_c, 1, 58, 127
1, 46345, Note_off_c, 1, 65, 0
1, 46601, Note_on_c, 1, 63, 127
1, 46804, Note_off_c, 1, 63, 0
1, 47011, Note_on_c, 1, 70, 127
1, 47420, Note_on_c, 1, 73, 127
1, 47568, Note_off_c, 1, 58, 0
1, 47625, Note_on_c, 1, 56, 127
1, 47828, Note_off_c, 1, 70, 0
1, 47828, Note_off_c, 1, 56, 0
1, 48035, Note_on_c, 1, 55, 127
1, 48188, Note_off_c, 1, 73, 0
1, 49059, Note_on_c, 1, 67, 127
1, 49411, Note_off_c, 1, 55, 0
1, 49673, Note_on_c, 1, 51, 127
1, 49876, Note_off_c, 1, 67, 0
1, 49876, Note_off_c, 1, 51, 0
1, 50288, Note_on_c, 1, 61, 127
1, 50491, Note_off_c, 1, 61, 0
1, 50697, Note_on_c, 1, 68, 127
1, 51514, Note_off_c, 1, 68, 0
1, 51926, Note_on_c, 1, 62, 127
1, 52743, Note_off_c, 1, 62, 0
1, 53564, Note_on_c, 1, 52, 127
1, 54764, Note_off_c, 1, 52, 0
1, 55408, Note_on_c, 1, 50, 127
1, 56020, Note_off_c, 1, 50, 0
1, 56636, Note_on_c, 1, 45, 127
1, 57248, Note_off_c, 1, 45, 0
1, 57251, Note_on_c, 1, 46, 127
1, 58068, Note_off_c, 1, 46, 0
1, 58070, Note_on_c, 1, 58, 127
1, 58070, Note_on_c, 1, 50, 127
1, 58273, Note_off_c, 1, 58, 0
1, 58273, Note_off_c, 1, 50, 0
1, 58275, Note_on_c, 1, 57, 127
1, 58275, Note_on_c, 1, 48, 127
1, 58478, Note_off_c, 1, 57, 0
1, 58478, Note_off_c, 1, 48, 0
1, 58480, Note_on_c, 1, 58, 127
1, 58480, Note_on_c, 1, 50, 127
1, 58683, Note_off_c, 1, 58, 0
1, 58683, Note_off_c, 1, 50, 0
1, 58684, Note_on_c, 1, 62, 127
1, 58684, Note_on_c, 1, 53, 127
1, 58887, Note_off_c, 1, 62, 0
1, 58887, Note_off_c, 1, 53, 0
1, 58889, Note_on_c, 1, 65, 127
1, 58889, Note_on_c, 1, 56, 127
1, 59092, Note_off_c, 1, 65, 0
1, 59092, Note_off_c, 1, 56, 0
1, 59094, Note_on_c, 1, 68, 127
1, 59094, Note_on_c, 1, 46, 127
1, 59297, Note_off_c, 1, 68, 0
1, 59297, Note_off_c, 1, 46, 0
1, 59299, Note_on_c, 1, 65, 127
1, 59299, Note_on_c, 1, 50, 127
1, 59502, Note_off_c, 1, 65, 0
1, 59502, Note_off_c, 1, 50, 0
1, 59504, Note_on_c, 1, 63, 127
1, 59504, Note_on_c, 1, 48, 127
1, 59707, Note_off_c, 1, 63, 0
1, 59707, Note_off_c, 1, 48, 0
1, 59708, Note_on_c, 1, 65, 127
1, 59708, Note_on_c, 1, 50, 127
1, 59911, Note_off_c, 1, 65, 0
1, 59911, Note_off_c, 1, 50, 0
1, 59913, Note_on_c, 1, 62, 127
1, 59913, Note_on_c, 1, 53, 127
1, 60116, Note_off_c, 1, 62, 0
1, 60116, Note_off_c, 1, 53, 0
1, 60118, Note_on_c, 1, 60, 127
1, 60118, Note_on_c, 1, 51, 127
1, 60321, Note_off_c, 1, 60, 0
1, 60321, Note_off_c, 1, 51, 0
1, 60323, Note_on_c, 1, 62, 127
1, 60323, Note_on_c, 1, 53, 127
1, 60526, Note_off_c, 1, 62, 0
1, 60526, Note_off_c, 1, 53, 0
1, 60528, Note_on_c, 1, 65, 127
1, 60528, Note_on_c, 1, 50, 127
1, 60731, Note_off_c, 1, 65, 0
1, 60731, Note_off_c, 1, 50, 0
1, 60732, Note_on_c, 1, 68, 127
1, 60732, Note_on_c, 1, 46, 127
1, 60935, Note_off_c, 1, 68, 0
1, 60937, Note_on_c, 1, 72, 127
1, 61140, Note_off_c, 1, 72, 0
1, 61142, Note_on_c, 1, 63, 127
1, 61148, Note_off_c, 1, 46, 0
1, 61341, Note_on_c, 1, 62, 127
1, 61345, Note_off_c, 1, 63, 0
1, 61401, Note_on_c, 1, 53, 127
1, 61541, Note_off_c, 1, 53, 0
1, 61544, Note_off_c, 1, 62, 0
1, 61552, Note_on_c, 1, 70, 127
1, 61552, Note_on_c, 1, 43, 127
1, 61755, Note_off_c, 1, 70, 0
1, 61756, Note_on_c, 1, 61, 127
1, 61936, Note_off_c, 1, 43, 0
1, 61955, Note_on_c, 1, 60, 127
1, 61959, Note_off_c, 1, 61, 0
1, 62016, Note_on_c, 1, 51, 127
1, 62156, Note_off_c, 1, 51, 0
1, 62158, Note_off_c, 1, 60, 0
1, 62166, Note_on_c, 1, 68, 127
1, 62166, Note_on_c, 1, 41, 127
1, 62369, Note_off_c, 1, 68, 0
1, 62371, Note_on_c, 1, 59, 127
1, 62550, Note_off_c, 1, 41, 0
1, 62570, Note_on_c, 1, 58, 127
1, 62574, Note_off_c, 1, 59, 0
1, 62622, Note_on_c, 1, 50, 127
1, 62772, Note_off_c, 1, 50, 0
1, 62780, Note_on_c, 1, 39, 127
1, 62978, Note_off_c, 1, 58, 0
1, 62985, Note_on_c, 1, 67, 127
1, 63188, Note_off_c, 1, 67, 0
1, 63190, Note_on_c, 1, 65, 127
1, 63393, Note_off_c, 1, 65, 0
1, 63597, Note_off_c, 1, 39, 0
1, 63600, Note_on_c, 1, 63, 127
1, 63600, Note_on_c, 1, 55, 127
1, 63803, Note_off_c, 1, 63, 0
1, 63803, Note_off_c, 1, 55, 0
1, 63804, Note_on_c, 1, 62, 127
1, 63804, Note_on_c, 1, 53, 127
1, 64007, Note_off_c, 1, 62, 0
1, 64007, Note_off_c, 1, 53, 0
1, 64009, Note_on_c, 1, 63, 127
1, 64009, Note_on_c, 1, 55, 127
1, 64212, Note_off_c, 1, 63, 0
1, 64212, Note_off_c, 1, 55, 0
1, 64214, Note_on_c, 1, 67, 127
1, 64214, Note_on_c, 1, 58, 127
1, 64417, Note_off_c, 1, 67, 0
1, 64417, Note_off_c, 1, 58, 0
1, 64419, Note_on_c, 1, 70, 127
1, 64419, Note_on_c, 1, 61, 127
1, 64622, Note_off_c, 1, 70, 0
1, 64622, Note_off_c, 1, 61, 0
1, 64624, Note_on_c, 1, 73, 127
1, 64624, Note_on_c, 1, 51, 127
1, 64827, Note_off_c, 1, 73, 0
1, 64827, Note_off_c, 1, 51, 0
1, 64828, Note_on_c, 1, 70, 127
1, 64828, Note_on_c, 1, 55, 127
1, 65031, Note_off_c, 1, 70, 0
1, 65031, Note_off_c, 1, 55, 0
1, 65033, Note_on_c, 1, 68, 127
1, 65033, Note_on_c, 1, 53, 127
1, 65236, Note_off_c, 1, 68, 0
1, 65236, Note_off_c, 1, 53, 0
1, 65238, Note_on_c, 1, 70, 127
1, 65238, Note_on_c, 1, 55, 127
1, 65441, Note_off_c, 1, 70, 0
1, 65441, Note_off_c, 1, 55, 0
1, 65443, Note_on_c, 1, 67, 127
1, 65443, Note_on_c, 1, 58, 127
1, 65646, Note_off_c, 1, 67, 0
1, 65646, Note_off_c, 1, 58, 0
1, 65648, Note_on_c, 1, 65, 127
1, 65648, Note_on_c, 1, 56, 127
1, 65851, Note_off_c, 1, 65, 0
1, 65851, Note_off_c, 1, 56, 0
1, 65852, Note_on_c, 1, 67, 127
1, 65852, Note_on_c, 1, 58, 127
1, 66055, Note_off_c, 1, 67, 0
1, 66055, Note_off_c, 1, 58, 0
1, 66057, Note_on_c, 1, 70, 127
1, 66057, Note_on_c, 1, 55, 127
1, 66260, Note_off_c, 1, 70, 0
1, 66260, Note_off_c, 1, 55, 0
1, 66262, Note_on_c, 1, 73, 127
1, 66262, Note_on_c, 1, 51, 127
1, 66465, Note_off_c, 1, 73, 0
1, 66467, Note_on_c, 1, 77, 127
1, 66670, Note_off_c, 1, 77, 0
1, 66672, Note_on_c, 1, 68, 127
1, 66710, Note_off_c, 1, 51, 0
1, 66870, Note_on_c, 1, 67, 127
1, 66875, Note_off_c, 1, 68, 0
1, 66931, Note_on_c, 1, 58, 127
1, 67071, Note_off_c, 1, 58, 0
1, 67073, Note_off_c, 1, 67, 0
1, 67081, Note_on_c, 1, 75, 127
1, 67081, Note_on_c, 1, 48, 127
1, 67284, Note_off_c, 1, 75, 0
1, 67286, Note_on_c, 1, 66, 127
1, 67465, Note_off_c, 1, 48, 0
1, 67485, Note_on_c, 1, 65, 127
1, 67489, Note_off_c, 1, 66, 0
1, 67545, Note_on_c, 1, 56, 127
1, 67685, Note_off_c, 1, 56, 0
1, 67688, Note_off_c, 1, 65, 0
1, 67696, Note_on_c, 1, 73, 127
1, 67696, Note_on_c, 1, 46, 127
1, 67899, Note_off_c, 1, 73, 0
1, 67900, Note_on_c, 1, 64, 127
1, 68080, Note_off_c, 1, 46, 0
1, 68099, Note_on_c, 1, 63, 127
1, 68103, Note_off_c, 1, 64, 0
1, 68148, Note_on_c, 1, 55, 127
1, 68301, Note_off_c, 1, 55, 0
1, 68310, Note_on_c, 1, 44, 127
1, 68403, Note_off_c, 1, 63, 0
1, 68515, Note_on_c, 1, 72, 127
1, 68718, Note_off_c, 1, 72, 0
1, 68720, Note_on_c, 1, 70, 127
1, 68923, Note_off_c, 1, 70, 0
1, 69127, Note_off_c, 1, 44, 0
1, 69129, Note_on_c, 1, 68, 127
1, 69129, Note_on_c, 1, 60, 127
1, 69332, Note_off_c, 1, 68, 0
1, 69332, Note_off_c, 1, 60, 0
1, 69334, Note_on_c, 1, 67, 127
1, 69334, Note_on_c, 1, 58, 127
1, 69537, Note_off_c, 1, 67, 0
1, 69537, Note_off_c, 1, 58, 0
1, 69539, Note_on_c, 1, 68, 127
1, 69539, Note_on_c, 1, 60, 127
1, 69742, Note_off_c, 1, 68, 0
1, 69744, Note_on_c, 1, 72, 127
1, 69947, Note_off_c, 1, 72, 0
1, 69948, Note_on_c, 1, 75, 127
1, 70151, Note_off_c, 1, 75, 0
1, 70153, Note_on_c, 1, 79, 127
1, 70307, Note_off_c, 1, 60, 0
1, 70356, Note_off_c, 1, 79, 0
1, 70358, Note_on_c, 1, 70, 127
1, 70557, Note_on_c, 1, 69, 127
1, 70561, Note_off_c, 1, 70, 0
1, 70624, Note_on_c, 1, 48, 127
1, 70760, Note_off_c, 1, 69, 0
1, 70766, Note_off_c, 1, 48, 0
1, 70768, Note_on_c, 1, 77, 127
1, 70768, Note_on_c, 1, 62, 127
1, 70971, Note_off_c, 1, 77, 0
1, 70972, Note_on_c, 1, 68, 127
1, 71152, Note_off_c, 1, 62, 0
1, 71171, Note_on_c, 1, 67, 127
1, 71175, Note_off_c, 1, 68, 0
1, 71238, Note_on_c, 1, 46, 127
1, 71374, Note_off_c, 1, 67, 0
1, 71380, Note_off_c, 1, 46, 0
1, 71382, Note_on_c, 1, 75, 127
1, 71382, Note_on_c, 1, 60, 127
1, 71585, Note_off_c, 1, 75, 0
1, 71587, Note_on_c, 1, 66, 127
1, 71766, Note_off_c, 1, 60, 0
1, 71786, Note_on_c, 1, 65, 127
1, 71790, Note_off_c, 1, 66, 0
1, 71830, Note_on_c, 1, 45, 127
1, 71993, Note_off_c, 1, 45, 0
1, 71996, Note_on_c, 1, 46, 127
1, 72154, Note_off_c, 1, 65, 0
1, 72201, Note_on_c, 1, 74, 127
1, 72404, Note_off_c, 1, 74, 0
1, 72406, Note_on_c, 1, 72, 127
1, 72609, Note_off_c, 1, 72, 0
1, 72813, Note_off_c, 1, 46, 0
1, 72816, Note_on_c, 1, 70, 127
1, 72816, Note_on_c, 1, 62, 127
1, 73019, Note_off_c, 1, 70, 0
1, 73019, Note_off_c, 1, 62, 0
1, 73020, Note_on_c, 1, 69, 127
1, 73020, Note_on_c, 1, 60, 127
1, 73223, Note_off_c, 1, 69, 0
1, 73223, Note_off_c, 1, 60, 0
1, 73225, Note_on_c, 1, 70, 127
1, 73225, Note_on_c, 1, 62, 127
1, 73428, Note_off_c, 1, 70, 0
1, 73430, Note_on_c, 1, 74, 127
1, 73633, Note_off_c, 1, 74, 0
1, 73635, Note_on_c, 1, 77, 127
1, 73838, Note_off_c, 1, 77, 0
1, 73840, Note_on_c, 1, 80, 127
1, 73961, Note_off_c, 1, 62, 0
1, 74043, Note_off_c, 1, 80, 0
1, 74044, Note_on_c, 1, 72, 127
1, 74243, Note_on_c, 1, 71, 127
1, 74247, Note_off_c, 1, 72, 0
1, 74304, Note_on_c, 1, 50, 127
1, 74446, Note_off_c, 1, 71, 0
1, 74452, Note_off_c, 1, 50, 0
1, 74454, Note_on_c, 1, 79, 127
1, 74454, Note_on_c, 1, 63, 127
1, 74657, Note_off_c, 1, 79, 0
1, 74659, Note_on_c, 1, 70, 127
1, 74838, Note_off_c, 1, 63, 0
1, 74858, Note_on_c, 1, 69, 127
1, 74862, Note_off_c, 1, 70, 0
1, 74918, Note_on_c, 1, 48, 127
1, 75061, Note_off_c, 1, 69, 0
1, 75066, Note_off_c, 1, 48, 0
1, 75068, Note_on_c, 1, 77, 127
1, 75068, Note_on_c, 1, 62, 127
1, 75271, Note_off_c, 1, 77, 0
1, 75273, Note_on_c, 1, 68, 127
1, 75452, Note_off_c, 1, 62, 0
1, 75478, Note_on_c, 1, 47, 127
1, 75479, Note_on_c, 1, 67, 127
1, 75487, Note_off_c, 1, 68, 0
1, 75671, Note_off_c, 1, 47, 0
1, 75683, Note_on_c, 1, 48, 127
1, 75887, Note_off_c, 1, 67, 0
1, 75888, Note_on_c, 1, 75, 127
1, 76091, Note_off_c, 1, 75, 0
1, 76092, Note_on_c, 1, 74, 127
1, 76295, Note_off_c, 1, 74, 0
1, 76500, Note_off_c, 1, 48, 0
1, 76502, Note_on_c, 1, 72, 127
1, 76502, Note_on_c, 1, 63, 127
1, 76705, Note_off_c, 1, 72, 0
1, 76705, Note_off_c, 1, 63, 0
1, 76707, Note_on_c, 1, 71, 127
1, 76707, Note_on_c, 1, 62, 127
1, 76910, Note_off_c, 1, 71, 0
1, 76910, Note_off_c, 1, 62, 0
1, 76912, Note_on_c, 1, 72, 127
1, 76912, Note_on_c, 1, 63, 127
1, 77115, Note_off_c, 1, 72, 0
1, 77116, Note_on_c, 1, 75, 127
1, 77319, Note_off_c, 1, 75, 0
1, 77321, Note_on_c, 1, 79, 127
1, 77520, Note_off_c, 1, 63, 0
1, 77524, Note_off_c, 1, 79, 0
1, 77526, Note_on_c, 1, 84, 127
1, 77731, Note_on_c, 1, 68, 127
1, 77934, Note_off_c, 1, 84, 0
1, 77934, Note_off_c, 1, 68, 0
1, 77936, Note_on_c, 1, 83, 127
1, 77936, Note_on_c, 1, 67, 127
1, 78139, Note_off_c, 1, 83, 0
1, 78139, Note_off_c, 1, 67, 0
1, 78140, Note_on_c, 1, 68, 127
1, 78140, Note_on_c, 1, 84, 127
1, 78343, Note_off_c, 1, 68, 0
1, 78345, Note_on_c, 1, 79, 127
1, 78345, Note_on_c, 1, 63, 127
1, 78397, Note_off_c, 1, 84, 0
1, 78548, Note_off_c, 1, 79, 0
1, 78548, Note_off_c, 1, 63, 0
1, 78550, Note_on_c, 1, 60, 127
1, 78550, Note_on_c, 1, 80, 127
1, 78753, Note_off_c, 1, 60, 0
1, 78755, Note_on_c, 1, 67, 127
1, 78869, Note_off_c, 1, 80, 0
1, 78958, Note_off_c, 1, 67, 0
1, 78960, Note_on_c, 1, 78, 127
1, 78960, Note_on_c, 1, 62, 127
1, 79163, Note_off_c, 1, 78, 0
1, 79163, Note_off_c, 1, 62, 0
1, 79164, Note_on_c, 1, 79, 127
1, 79164, Note_on_c, 1, 58, 127
1, 79367, Note_off_c, 1, 79, 0
1, 79367, Note_off_c, 1, 58, 0
1, 79369, Note_on_c, 1, 66, 127
1, 79369, Note_on_c, 1, 84, 127
1, 79572, Note_off_c, 1, 66, 0
1, 79574, Note_on_c, 1, 60, 127
1, 79777, Note_off_c, 1, 84, 0
1, 79777, Note_off_c, 1, 60, 0
1, 79779, Note_on_c, 1, 78, 127
1, 79779, Note_on_c, 1, 57, 127
1, 79982, Note_off_c, 1, 78, 0
1, 79982, Note_off_c, 1, 57, 0
1, 79984, Note_on_c, 1, 63, 127
1, 79984, Note_on_c, 1, 79, 127
1, 80187, Note_off_c, 1, 63, 0
1, 80188, Note_on_c, 1, 74, 127
1, 80188, Note_on_c, 1, 58, 127
1, 80211, Note_off_c, 1, 79, 0
1, 80391, Note_off_c, 1, 74, 0
1, 80391, Note_off_c, 1, 58, 0
1, 80393, Note_on_c, 1, 55, 127
1, 80393, Note_on_c, 1, 75, 127
1, 80596, Note_off_c, 1, 55, 0
1, 80598, Note_on_c, 1, 62, 127
1, 80697, Note_off_c, 1, 75, 0
1, 80801, Note_off_c, 1, 62, 0
1, 80803, Note_on_c, 1, 73, 127
1, 80803, Note_on_c, 1, 57, 127
1, 81006, Note_off_c, 1, 73, 0
1, 81006, Note_off_c, 1, 57, 0
1, 81008, Note_on_c, 1, 74, 127
1, 81008, Note_on_c, 1, 54, 127
1, 81211, Note_off_c, 1, 74, 0
1, 81211, Note_off_c, 1, 54, 0
1, 81212, Note_on_c, 1, 82, 127
1, 81212, Note_on_c, 1, 55, 127
1, 81415, Note_off_c, 1, 82, 0
1, 81417, Note_on_c, 1, 79, 127
1, 81620, Note_off_c, 1, 79, 0
1, 81622, Note_on_c, 1, 74, 127
1, 81824, Note_off_c, 1, 55, 0
1, 81825, Note_off_c, 1, 74, 0
1, 81827, Note_on_c, 1, 75, 127
1, 81827, Note_on_c, 1, 48, 127
1, 82030, Note_off_c, 1, 75, 0
1, 82032, Note_on_c, 1, 79, 127
1, 82235, Note_off_c, 1, 79, 0
1, 82236, Note_on_c, 1, 84, 127
1, 82439, Note_off_c, 1, 48, 0
1, 82439, Note_off_c, 1, 84, 0
1, 82441, Note_on_c, 1, 82, 127
1, 82441, Note_on_c, 1, 49, 127
1, 82644, Note_off_c, 1, 82, 0
1, 82646, Note_on_c, 1, 81, 127
1, 82849, Note_off_c, 1, 81, 0
1, 82851, Note_on_c, 1, 79, 127
1, 83053, Note_off_c, 1, 49, 0
1, 83054, Note_off_c, 1, 79, 0
1, 83056, Note_on_c, 1, 78, 127
1, 83056, Note_on_c, 1, 50, 127
1, 83171, Note_on_c, 1, 79, 127
1, 83172, Note_off_c, 1, 78, 0
1, 83286, Note_on_c, 1, 81, 127
1, 83287, Note_off_c, 1, 79, 0
1, 83465, Note_on_c, 1, 74, 127
1, 83466, Note_off_c, 1, 81, 0
1, 83668, Note_off_c, 1, 74, 0
1, 83670, Note_on_c, 1, 75, 127
1, 83873, Note_off_c, 1, 75, 0
1, 84078, Note_off_c, 1, 50, 0
1, 84080, Note_on_c, 1, 72, 127
1, 84080, Note_on_c, 1, 38, 127
1, 84283, Note_off_c, 1, 72, 0
1, 84283, Note_off_c, 1, 38, 0
1, 84284, Note_on_c, 1, 70, 127
1, 84284, Note_on_c, 1, 40, 127
1, 84487, Note_off_c, 1, 70, 0
1, 84489, Note_on_c, 1, 72, 127
1, 84692, Note_off_c, 1, 40, 0
1, 84692, Note_off_c, 1, 72, 0
1, 84694, Note_on_c, 1, 69, 127
1, 84694, Note_on_c, 1, 42, 127
1, 84897, Note_off_c, 1, 69, 0
1, 84897, Note_off_c, 1, 42, 0
1, 84899, Note_on_c, 1, 70, 127
1, 84899, Note_on_c, 1, 43, 127
1, 85102, Note_off_c, 1, 70, 0
1, 85104, Note_on_c, 1, 74, 127
1, 85307, Note_off_c, 1, 74, 0
1, 85308, Note_on_c, 1, 79, 127
1, 85511, Note_off_c, 1, 43, 0
1, 85511, Note_off_c, 1, 79, 0
1, 85513, Note_on_c, 1, 82, 127
1, 85513, Note_on_c, 1, 55, 127
1, 85716, Note_off_c, 1, 82, 0
1, 85718, Note_on_c, 1, 81, 127
1, 85921, Note_off_c, 1, 81, 0
1, 85923, Note_on_c, 1, 79, 127
1, 86125, Note_off_c, 1, 55, 0
1, 86128, Note_on_c, 1, 53, 127
1, 86227, Note_off_c, 1, 79, 0
1, 86332, Note_on_c, 1, 70, 127
1, 86535, Note_off_c, 1, 70, 0
1, 86740, Note_off_c, 1, 53, 0
1, 86742, Note_on_c, 1, 72, 127
1, 86742, Note_on_c, 1, 51, 127
1, 86945, Note_off_c, 1, 72, 0
1, 86947, Note_on_c, 1, 75, 127
1, 87150, Note_off_c, 1, 75, 0
1, 87152, Note_on_c, 1, 79, 127
1, 87354, Note_off_c, 1, 51, 0
1, 87355, Note_off_c, 1, 79, 0
1, 87356, Note_on_c, 1, 82, 127
1, 87356, Note_on_c, 1, 39, 127
1, 87559, Note_off_c, 1, 82, 0
1, 87561, Note_on_c, 1, 81, 127
1, 87764, Note_off_c, 1, 81, 0
1, 87766, Note_on_c, 1, 79, 127
1, 87968, Note_off_c, 1, 39, 0
1, 87971, Note_on_c, 1, 46, 127
1, 88070, Note_off_c, 1, 79, 0
1, 88176, Note_on_c, 1, 74, 127
1, 88379, Note_off_c, 1, 74, 0
1, 88583, Note_off_c, 1, 46, 0
1, 88585, Note_on_c, 1, 75, 127
1, 88585, Note_on_c, 1, 48, 127
1, 88788, Note_off_c, 1, 75, 0
1, 88790, Note_on_c, 1, 78, 127
1, 88993, Note_off_c, 1, 78, 0
1, 88995, Note_on_c, 1, 79, 127
1, 89197, Note_off_c, 1, 48, 0
1, 89198, Note_off_c, 1, 79, 0
1, 89200, Note_on_c, 1, 70, 127
1, 89200, Note_on_c, 1, 49, 127
1, 89403, Note_off_c, 1, 70, 0
1, 89404, Note_on_c, 1, 69, 127
1, 89607, Note_off_c, 1, 69, 0
1, 89609, Note_on_c, 1, 67, 127
1, 89812, Note_off_c, 1, 49, 0
1, 89814, Note_on_c, 1, 50, 127
1, 89913, Note_off_c, 1, 67, 0
1, 90019, Note_on_c, 1, 72, 127
1, 90222, Note_off_c, 1, 72, 0
1, 90224, Note_on_c, 1, 66, 127
1, 90426, Note_off_c, 1, 50, 0
1, 90427, Note_off_c, 1, 66, 0
1, 90428, Note_on_c, 1, 67, 127
1, 90428, Note_on_c, 1, 43, 127
1, 90635, Note_on_c, 1, 70, 127
1, 90842, Note_on_c, 1, 74, 127
1, 91049, Note_on_c, 1, 79, 127
1, 91245, Note_off_c, 1, 67, 0
1, 91255, Note_off_c, 1, 43, 0
1, 91258, Note_on_c, 1, 46, 127
1, 91452, Note_off_c, 1, 70, 0
1, 91461, Note_off_c, 1, 46, 0
1, 91465, Note_on_c, 1, 50, 127
1, 91659, Note_off_c, 1, 74, 0
1, 91661, Note_off_c, 1, 79, 0
1, 91668, Note_off_c, 1, 50, 0
1, 91673, Note_on_c, 1, 70, 127
1, 91673, Note_on_c, 1, 53, 127
1, 91773, Note_off_c, 1, 70, 0
1, 91776, Note_on_c, 1, 69, 127
1, 91876, Note_off_c, 1, 53, 0
1, 91876, Note_off_c, 1, 69, 0
1, 91878, Note_on_c, 1, 52, 127
1, 91878, Note_on_c, 1, 70, 127
1, 92081, Note_off_c, 1, 52, 0
1, 92083, Note_on_c, 1, 50, 127
1, 92286, Note_off_c, 1, 50, 0
1, 92490, Note_off_c, 1, 70, 0
1, 92492, Note_on_c, 1, 73, 127
1, 92695, Note_off_c, 1, 73, 0
1, 92697, Note_on_c, 1, 72, 127
1, 92900, Note_off_c, 1, 72, 0
1, 93312, Note_on_c, 1, 67, 127
1, 93516, Note_on_c, 1, 64, 127
1, 93720, Note_off_c, 1, 67, 0
1, 93721, Note_on_c, 1, 55, 127
1, 93924, Note_off_c, 1, 64, 0
1, 93924, Note_off_c, 1, 55, 0
1, 93926, Note_on_c, 1, 48, 127
1, 93926, Note_on_c, 1, 70, 127
1, 94129, Note_off_c, 1, 48, 0
1, 94131, Note_on_c, 1, 53, 127
1, 94334, Note_off_c, 1, 70, 0
1, 94336, Note_on_c, 1, 68, 127
1, 94539, Note_off_c, 1, 68, 0
1, 94540, Note_on_c, 1, 67, 127
1, 94743, Note_off_c, 1, 67, 0
1, 94950, Note_on_c, 1, 72, 127
1, 95155, Note_on_c, 1, 77, 127
1, 95358, Note_off_c, 1, 53, 0
1, 95360, Note_on_c, 1, 80, 127
1, 95769, Note_on_c, 1, 51, 127
1, 95969, Note_off_c, 1, 72, 0
1, 95972, Note_off_c, 1, 77, 0
1, 95972, Note_off_c, 1, 51, 0
1, 95974, Note_on_c, 1, 50, 127
1, 96177, Note_off_c, 1, 80, 0
1, 96384, Note_on_c, 1, 79, 127
1, 96587, Note_off_c, 1, 79, 0
1, 96998, Note_on_c, 1, 74, 127
1, 97201, Note_off_c, 1, 50, 0
1, 97408, Note_on_c, 1, 62, 127
1, 97495, Note_off_c, 1, 74, 0
1, 97611, Note_off_c, 1, 62, 0
1, 97612, Note_on_c, 1, 58, 127
1, 97612, Note_on_c, 1, 80, 127
1, 97815, Note_off_c, 1, 58, 0
1, 97817, Note_on_c, 1, 63, 127
1, 98020, Note_off_c, 1, 80, 0
1, 98022, Note_on_c, 1, 79, 127
1, 98225, Note_off_c, 1, 79, 0
1, 98227, Note_on_c, 1, 77, 127
1, 98430, Note_off_c, 1, 77, 0
1, 98636, Note_on_c, 1, 75, 127
1, 98841, Note_on_c, 1, 70, 127
1, 99044, Note_off_c, 1, 75, 0
1, 99044, Note_off_c, 1, 70, 0
1, 99046, Note_on_c, 1, 67, 127
1, 99191, Note_off_c, 1, 63, 0
1, 99249, Note_off_c, 1, 67, 0
1, 99251, Note_on_c, 1, 55, 127
1, 99251, Note_on_c, 1, 70, 127
1, 99454, Note_off_c, 1, 55, 0
1, 99454, Note_off_c, 1, 70, 0
1, 99456, Note_on_c, 1, 51, 127
1, 99456, Note_on_c, 1, 73, 127
1, 99659, Note_off_c, 1, 51, 0
1, 99660, Note_on_c, 1, 56, 127
1, 99863, Note_off_c, 1, 56, 0
1, 99864, Note_off_c, 1, 73, 0
1, 99865, Note_on_c, 1, 51, 127
1, 99865, Note_on_c, 1, 72, 127
1, 100068, Note_off_c, 1, 51, 0
1, 100068, Note_off_c, 1, 72, 0
1, 100070, Note_on_c, 1, 49, 127
1, 100070, Note_on_c, 1, 70, 127
1, 100273, Note_off_c, 1, 49, 0
1, 100273, Note_off_c, 1, 70, 0
1, 100275, Note_on_c, 1, 48, 127
1, 100275, Note_on_c, 1, 68, 127
1, 100478, Note_off_c, 1, 48, 0
1, 100478, Note_off_c, 1, 68, 0
1, 100480, Note_on_c, 1, 46, 127
1, 100480, Note_on_c, 1, 67, 127
1, 100683, Note_off_c, 1, 46, 0
1, 100683, Note_off_c, 1, 67, 0
1, 100684, Note_on_c, 1, 44, 127
1, 100684, Note_on_c, 1, 65, 127
1, 100887, Note_off_c, 1, 44, 0
1, 100889, Note_on_c, 1, 43, 127
1, 101092, Note_off_c, 1, 65, 0
1, 101092, Note_off_c, 1, 43, 0
1, 101094, Note_on_c, 1, 48, 127
1, 101094, Note_on_c, 1, 63, 127
1, 101297, Note_off_c, 1, 48, 0
1, 101297, Note_off_c, 1, 63, 0
1, 101299, Note_on_c, 1, 46, 127
1, 101299, Note_on_c, 1, 66, 127
1, 101502, Note_off_c, 1, 46, 0
1, 101504, Note_on_c, 1, 45, 127
1, 101707, Note_off_c, 1, 66, 0
1, 101708, Note_on_c, 1, 65, 127
1, 101739, Note_off_c, 1, 45, 0
1, 101911, Note_off_c, 1, 65, 0
1, 101913, Note_on_c, 1, 63, 127
1, 101929, Note_on_c, 1, 43, 127
1, 102019, Note_off_c, 1, 43, 0
1, 102116, Note_off_c, 1, 63, 0
1, 102118, Note_on_c, 1, 62, 127
1, 102118, Note_on_c, 1, 46, 127
1, 102323, Note_on_c, 1, 60, 127
1, 102358, Note_off_c, 1, 62, 0
1, 102526, Note_off_c, 1, 60, 0
1, 102528, Note_on_c, 1, 58, 127
1, 102731, Note_off_c, 1, 58, 0
1, 102732, Note_on_c, 1, 56, 127
1, 102886, Note_off_c, 1, 46, 0
1, 102937, Note_on_c, 1, 55, 127
1, 102972, Note_off_c, 1, 56, 0
1, 103140, Note_off_c, 1, 55, 0
1, 103142, Note_on_c, 1, 53, 127
1, 103345, Note_off_c, 1, 53, 0
1, 103347, Note_on_c, 1, 46, 127
1, 103347, Note_on_c, 1, 55, 127
1, 103552, Note_on_c, 1, 63, 127
1, 103755, Note_off_c, 1, 63, 0
1, 103756, Note_on_c, 1, 62, 127
1, 103959, Note_off_c, 1, 62, 0
1, 104166, Note_on_c, 1, 58, 127
1, 104369, Note_off_c, 1, 58, 0
1, 104371, Note_on_c, 1, 56, 127
1, 104574, Note_off_c, 1, 46, 0
1, 104574, Note_off_c, 1, 55, 0
1, 104574, Note_off_c, 1, 56, 0
1, 104780, Note_on_c, 1, 53, 127
1, 104983, Note_off_c, 1, 53, 0
1, 104985, Note_on_c, 1, 51, 127
1, 105188, Note_off_c, 1, 51, 0
1, 105190, Note_on_c, 1, 46, 127
1, 105190, Note_on_c, 1, 50, 127
1, 105395, Note_on_c, 1, 65, 127
1, 105598, Note_off_c, 1, 65, 0
1, 105600, Note_on_c, 1, 63, 127
1, 105803, Note_off_c, 1, 63, 0
1, 106009, Note_on_c, 1, 62, 127
1, 106212, Note_off_c, 1, 62, 0
1, 106214, Note_on_c, 1, 58, 127
1, 106417, Note_off_c, 1, 46, 0
1, 106417, Note_off_c, 1, 50, 0
1, 106417, Note_off_c, 1, 58, 0
1, 106419, Note_on_c, 1, 56, 127
1, 106622, Note_off_c, 1, 56, 0
1, 106624, Note_on_c, 1, 55, 127
1, 106827, Note_off_c, 1, 55, 0
1, 106828, Note_on_c, 1, 53, 127
1, 107031, Note_off_c, 1, 53, 0
1, 107033, Note_on_c, 1, 51, 127
1, 107033, Note_on_c, 1, 46, 127
1, 107238, Note_on_c, 1, 67, 127
1, 107441, Note_off_c, 1, 67, 0
1, 107443, Note_on_c, 1, 65, 127
1, 107646, Note_off_c, 1, 65, 0
1, 107852, Note_on_c, 1, 63, 127
1, 108055, Note_off_c, 1, 63, 0
1, 108057, Note_on_c, 1, 60, 127
1, 108260, Note_off_c, 1, 51, 0
1, 108260, Note_off_c, 1, 46, 0
1, 108260, Note_off_c, 1, 60, 0
1, 108262, Note_on_c, 1, 58, 127
1, 108465, Note_off_c, 1, 58, 0
1, 108467, Note_on_c, 1, 56, 127
1, 108670, Note_off_c, 1, 56, 0
1, 108672, Note_on_c, 1, 55, 127
1, 108875, Note_off_c, 1, 55, 0
1, 108876, Note_on_c, 1, 53, 127
1, 108876, Note_on_c, 1, 46, 127
1, 108876, Note_on_c, 1, 50, 127
1, 109086, Note_on_c, 1, 68, 127
1, 109294, Note_off_c, 1, 68, 0
1, 109296, Note_on_c, 1, 67, 127
1, 109504, Note_off_c, 1, 67, 0
1, 109715, Note_on_c, 1, 65, 127
1, 109923, Note_off_c, 1, 65, 0
1, 109924, Note_on_c, 1, 62, 127
1, 110132, Note_off_c, 1, 53, 0
1, 110132, Note_off_c, 1, 46, 0
1, 110132, Note_off_c, 1, 50, 0
1, 110132, Note_off_c, 1, 62, 0
1, 110134, Note_on_c, 1, 60, 127
1, 110342, Note_off_c, 1, 60, 0
1, 110344, Note_on_c, 1, 58, 127
1, 110552, Note_off_c, 1, 58, 0
1, 110553, Note_on_c, 1, 56, 127
1, 110761, Note_off_c, 1, 56, 0
1, 110763, Note_on_c, 1, 55, 127
1, 110763, Note_on_c, 1, 63, 127
1, 110865, Note_on_c, 1, 67, 127
1, 110966, Note_off_c, 1, 55, 0
1, 110968, Note_on_c, 1, 58, 127
1, 110968, Note_on_c, 1, 70, 127
1, 111171, Note_off_c, 1, 58, 0
1, 111172, Note_on_c, 1, 56, 127
1, 111375, Note_off_c, 1, 56, 0
1, 111787, Note_on_c, 1, 51, 127
1, 111990, Note_off_c, 1, 63, 0
1, 111990, Note_off_c, 1, 51, 0
1, 111992, Note_on_c, 1, 46, 127
1, 112092, Note_off_c, 1, 67, 0
1, 112376, Note_off_c, 1, 70, 0
1, 112401, Note_on_c, 1, 75, 127
1, 112604, Note_off_c, 1, 75, 0
1, 112606, Note_on_c, 1, 65, 127
1, 112760, Note_off_c, 1, 46, 0
1, 113016, Note_on_c, 1, 57, 127
1, 113219, Note_off_c, 1, 57, 0
1, 113220, Note_on_c, 1, 74, 127
1, 113425, Note_on_c, 1, 53, 127
1, 113628, Note_off_c, 1, 53, 0
1, 113630, Note_on_c, 1, 50, 127
1, 113833, Note_off_c, 1, 65, 0
1, 113833, Note_off_c, 1, 50, 0
1, 114037, Note_off_c, 1, 74, 0
1, 114449, Note_on_c, 1, 68, 127
1, 114654, Note_on_c, 1, 60, 127
1, 114857, Note_off_c, 1, 68, 0
1, 114857, Note_off_c, 1, 60, 0
1, 114859, Note_on_c, 1, 63, 127
1, 114905, Note_on_c, 1, 55, 127
1, 115061, Note_off_c, 1, 55, 0
1, 115062, Note_off_c, 1, 63, 0
1, 115064, Note_on_c, 1, 53, 127
1, 115064, Note_on_c, 1, 62, 127
1, 115268, Note_on_c, 1, 65, 127
1, 115448, Note_off_c, 1, 53, 0
1, 115471, Note_off_c, 1, 65, 0
1, 115473, Note_on_c, 1, 70, 127
1, 115512, Note_off_c, 1, 62, 0
1, 115528, Note_on_c, 1, 51, 127
1, 115676, Note_off_c, 1, 70, 0
1, 115676, Note_off_c, 1, 51, 0
1, 115678, Note_on_c, 1, 50, 127
1, 115678, Note_on_c, 1, 58, 127
1, 115883, Note_on_c, 1, 65, 127
1, 116062, Note_off_c, 1, 50, 0
1, 116086, Note_off_c, 1, 65, 0
1, 116088, Note_on_c, 1, 68, 127
1, 116126, Note_off_c, 1, 58, 0
1, 116142, Note_on_c, 1, 46, 127
1, 116290, Note_off_c, 1, 46, 0
1, 116291, Note_off_c, 1, 68, 0
1, 116292, Note_on_c, 1, 39, 127
1, 116292, Note_on_c, 1, 67, 127
1, 116497, Note_on_c, 1, 58, 127
1, 116676, Note_off_c, 1, 39, 0
1, 116700, Note_off_c, 1, 67, 0
1, 116700, Note_off_c, 1, 58, 0
1, 116702, Note_on_c, 1, 61, 127
1, 116756, Note_on_c, 1, 53, 127
1, 116904, Note_off_c, 1, 53, 0
1, 116905, Note_off_c, 1, 61, 0
1, 116907, Note_on_c, 1, 51, 127
1, 116907, Note_on_c, 1, 60, 127
1, 117112, Note_on_c, 1, 63, 127
1, 117307, Note_off_c, 1, 51, 0
1, 117315, Note_off_c, 1, 63, 0
1, 117316, Note_on_c, 1, 68, 127
1, 117371, Note_on_c, 1, 49, 127
1, 117419, Note_off_c, 1, 60, 0
1, 117519, Note_off_c, 1, 68, 0
1, 117519, Note_off_c, 1, 49, 0
1, 117521, Note_on_c, 1, 48, 127
1, 117521, Note_on_c, 1, 56, 127
1, 117726, Note_on_c, 1, 63, 127
1, 117921, Note_off_c, 1, 48, 0
1, 117929, Note_off_c, 1, 63, 0
1, 117931, Note_on_c, 1, 67, 127
1, 117985, Note_on_c, 1, 44, 127
1, 118033, Note_off_c, 1, 56, 0
1, 118133, Note_off_c, 1, 44, 0
1, 118134, Note_off_c, 1, 67, 0
1, 118136, Note_on_c, 1, 38, 127
1, 118136, Note_on_c, 1, 65, 127
1, 118340, Note_on_c, 1, 56, 127
1, 118520, Note_off_c, 1, 38, 0
1, 118543, Note_off_c, 1, 56, 0
1, 118544, Note_off_c, 1, 65, 0
1, 118545, Note_on_c, 1, 60, 127
1, 118592, Note_on_c, 1, 51, 127
1, 118748, Note_off_c, 1, 60, 0
1, 118748, Note_off_c, 1, 51, 0
1, 118750, Note_on_c, 1, 50, 127
1, 118750, Note_on_c, 1, 58, 127
1, 118955, Note_on_c, 1, 62, 127
1, 119158, Note_off_c, 1, 50, 0
1, 119158, Note_off_c, 1, 62, 0
1, 119160, Note_on_c, 1, 67, 127
1, 119206, Note_on_c, 1, 48, 127
1, 119342, Note_off_c, 1, 58, 0
1, 119362, Note_off_c, 1, 48, 0
1, 119364, Note_on_c, 1, 46, 127
1, 119364, Note_on_c, 1, 55, 127
1, 119416, Note_off_c, 1, 67, 0
1, 119772, Note_off_c, 1, 46, 0
1, 119774, Note_on_c, 1, 65, 127
1, 119813, Note_on_c, 1, 43, 127
1, 119956, Note_off_c, 1, 55, 0
1, 119977, Note_off_c, 1, 43, 0
1, 119979, Note_on_c, 1, 36, 127
1, 119979, Note_on_c, 1, 63, 127
1, 120030, Note_off_c, 1, 65, 0
1, 120379, Note_off_c, 1, 36, 0
1, 120387, Note_off_c, 1, 63, 0
1, 120388, Note_on_c, 1, 58, 127
1, 120421, Note_on_c, 1, 49, 127
1, 120585, Note_off_c, 1, 49, 0
1, 120591, Note_off_c, 1, 58, 0
1, 120593, Note_on_c, 1, 48, 127
1, 120593, Note_on_c, 1, 56, 127
1, 120798, Note_on_c, 1, 60, 127
1, 121003, Note_on_c, 1, 65, 127
1, 121009, Note_off_c, 1, 48, 0
1, 121033, Note_on_c, 1, 46, 127
1, 121201, Note_off_c, 1, 56, 0
1, 121205, Note_off_c, 1, 46, 0
1, 121208, Note_on_c, 1, 44, 127
1, 121208, Note_on_c, 1, 53, 127
1, 121406, Note_off_c, 1, 60, 0
1, 121411, Note_off_c, 1, 65, 0
1, 121608, Note_off_c, 1, 44, 0
1, 121617, Note_on_c, 1, 63, 127
1, 121640, Note_on_c, 1, 43, 127
1, 121816, Note_off_c, 1, 53, 0
1, 121820, Note_off_c, 1, 63, 0
1, 121820, Note_off_c, 1, 43, 0
1, 121822, Note_on_c, 1, 63, 127
1, 121822, Note_on_c, 1, 44, 127
1, 121822, Note_on_c, 1, 53, 127
1, 121822, Note_on_c, 1, 58, 127
1, 122511, Note_off_c, 1, 63, 0
1, 122513, Note_on_c, 1, 62, 127
1, 123662, Note_off_c, 1, 44, 0
1, 123662, Note_off_c, 1, 53, 0
1, 123662, Note_off_c, 1, 58, 0
1, 123671, Note_off_c, 1, 62, 0
1, 123844, Note_on_c, 1, 50, 127
1, 123844, Note_on_c, 1, 70, 127
1, 123844, Note_on_c, 1, 77, 127
1, 123844, Note_on_c, 1, 80, 127
1, 124047, Note_off_c, 1, 50, 0
1, 124047, Note_off_c, 1, 70, 0
1, 124047, Note_off_c, 1, 77, 0
1, 124047, Note_off_c, 1, 80, 0
1, 124049, Note_on_c, 1, 51, 127
1, 124049, Note_on_c, 1, 70, 127
1, 124049, Note_on_c, 1, 75, 127
1, 124049, Note_on_c, 1, 79, 127
1, 124329, Note_off_c, 1, 51, 0
1, 124331, Note_on_c, 1, 53, 127
1, 124431, Note_off_c, 1, 53, 0
1, 124433, Note_on_c, 1, 55, 127
1, 124533, Note_off_c, 1, 55, 0
1, 124536, Note_on_c, 1, 56, 127
1, 124636, Note_off_c, 1, 56, 0
1, 124638, Note_on_c, 1, 58, 127
1, 124738, Note_off_c, 1, 58, 0
1, 124740, Note_on_c, 1, 60, 127
1, 124840, Note_off_c, 1, 60, 0
1, 124843, Note_on_c, 1, 62, 127
1, 124943, Note_off_c, 1, 62, 0
1, 124945, Note_on_c, 1, 63, 127
1, 125609, Note_off_c, 1, 70, 0
1, 125609, Note_off_c, 1, 75, 0
1, 125609, Note_off_c, 1, 79, 0
1, 125609, Note_off_c, 1, 63, 0
1, 125611, Note_on_c, 1, 56, 127
1, 125611, Note_on_c, 1, 77, 127
1, 125611, Note_on_c, 1, 72, 127
1, 125611, Note_on_c, 1, 68, 127
1, 125814, Note_off_c, 1, 56, 0
1, 125814, Note_off_c, 1, 77, 0
1, 125814, Note_off_c, 1, 72, 0
1, 125814, Note_off_c, 1, 68, 0
1, 125816, Note_on_c, 1, 58, 127
1, 125816, Note_on_c, 1, 75, 127
1, 125816, Note_on_c, 1, 70, 127
1, 125816, Note_on_c, 1, 67, 127
1, 126659, Note_off_c, 1, 58, 0
1, 126659, Note_off_c, 1, 75, 0
1, 126659, Note_off_c, 1, 70, 0
1, 126659, Note_off_c, 1, 67, 0
1, 126660, Note_on_c, 1, 74, 127
1, 126660, Note_on_c, 1, 65, 127
1, 126660, Note_on_c, 1, 46, 127
1, 127221, Note_off_c, 1, 74, 0
1, 127221, Note_off_c, 1, 65, 0
1, 127224, Note_on_c, 1, 67, 127
1, 127224, Note_on_c, 1, 75, 127
1, 127426, Note_off_c, 1, 46, 0
1, 127427, Note_off_c, 1, 67, 0
1, 127427, Note_off_c, 1, 75, 0
1, 127428, Note_on_c, 1, 75, 127
1, 127428, Note_on_c, 1, 67, 127
1, 127428, Note_on_c, 1, 51, 127
1, 127631, Note_off_c, 1, 75, 0
1, 127631, Note_off_c, 1, 67, 0
1, 127633, Note_on_c, 1, 70, 127
1, 127836, Note_off_c, 1, 70, 0
1, 127838, Note_on_c, 1, 68, 127
1, 128041, Note_off_c, 1, 68, 0
1, 128452, Note_on_c, 1, 65, 127
1, 128655, Note_off_c, 1, 65, 0
1, 128862, Note_on_c, 1, 63, 127
1, 129065, Note_off_c, 1, 63, 0
1, 129067, Note_on_c, 1, 62, 127
1, 129191, Note_off_c, 1, 51, 0
1, 129270, Note_off_c, 1, 62, 0
1, 129272, Note_on_c, 1, 63, 127
1, 129475, Note_off_c, 1, 63, 0
1, 129476, Note_on_c, 1, 58, 127
1, 129679, Note_off_c, 1, 58, 0
1, 129681, Note_on_c, 1, 56, 127
1, 129884, Note_off_c, 1, 56, 0
1, 129886, Note_on_c, 1, 58, 127
1, 130089, Note_off_c, 1, 58, 0
1, 130091, Note_on_c, 1, 55, 127
1, 130294, Note_off_c, 1, 55, 0
1, 130296, Note_on_c, 1, 53, 127
1, 130499, Note_off_c, 1, 53, 0
1, 130500, Note_on_c, 1, 55, 127
1, 130703, Note_off_c, 1, 55, 0
1, 130705, Note_on_c, 1, 51, 127
1, 130908, Note_off_c, 1, 51, 0
1, 130910, Note_on_c, 1, 50, 127
1, 131113, Note_off_c, 1, 50, 0
1, 131115, Note_on_c, 1, 51, 127
1, 131215, Note_off_c, 1, 51, 0
1, 131217, Note_on_c, 1, 50, 127
1, 131317, Note_off_c, 1, 50, 0
1, 131320, Note_on_c, 1, 51, 127
1, 132296, Note_on_c, 1, 39, 127
1, 134820, Note_off_c, 1, 51, 0
1, 134996, Note_off_c, 1, 39, 0
1, 136301, Note_on_c, 1, 51, 127
1, 137611, Note_off_c, 1, 51, 0
1, 137622, Note_on_c, 1, 58, 127
1, 138457, Note_off_c, 1, 58, 0
1, 138608, Note_on_c, 1, 56, 127
1, 138949, Note_off_c, 1, 56, 0
1, 138954, Note_on_c, 1, 55, 127
1, 139295, Note_off_c, 1, 55, 0
1, 139297, Note_on_c, 1, 60, 127
1, 139927, Note_off_c, 1, 60, 0
1, 139986, Note_on_c, 1, 58, 127
1, 140327, Note_off_c, 1, 58, 0
1, 140331, Note_on_c, 1, 56, 127
1, 140672, Note_off_c, 1, 56, 0
1, 140676, Note_on_c, 1, 56, 127
1, 140845, Note_off_c, 1, 56, 0
1, 140848, Note_on_c, 1, 55, 127
1, 141017, Note_off_c, 1, 55, 0
1, 141020, Note_on_c, 1, 56, 127
1, 141361, Note_off_c, 1, 56, 0
1, 141366, Note_on_c, 1, 60, 127
1, 141707, Note_off_c, 1, 60, 0
1, 141709, Note_on_c, 1, 53, 127
1, 142050, Note_off_c, 1, 53, 0
1, 142054, Note_on_c, 1, 58, 127
1, 142684, Note_off_c, 1, 58, 0
1, 142743, Note_on_c, 1, 56, 127
1, 143084, Note_off_c, 1, 56, 0
1, 143088, Note_on_c, 1, 55, 127
1, 143429, Note_off_c, 1, 55, 0
1, 143432, Note_on_c, 1, 55, 127
1, 143601, Note_off_c, 1, 55, 0
1, 143604, Note_on_c, 1, 53, 127
1, 143773, Note_off_c, 1, 53, 0
1, 143776, Note_on_c, 1, 55, 127
1, 144117, Note_off_c, 1, 55, 0
1, 144121, Note_on_c, 1, 58, 127
1, 144462, Note_off_c, 1, 58, 0
1, 144466, Note_on_c, 1, 51, 127
1, 144466, Note_on_c, 1, 58, 127
1, 144807, Note_off_c, 1, 51, 0
1, 144982, Note_on_c, 1, 50, 127
1, 145151, Note_off_c, 1, 50, 0
1, 145498, Note_on_c, 1, 55, 127
1, 145839, Note_off_c, 1, 55, 0
1, 145842, Note_off_c, 1, 58, 0
1, 145844, Note_on_c, 1, 48, 127
1, 145844, Note_on_c, 1, 63, 127
1, 146185, Note_off_c, 1, 48, 0
1, 146188, Note_on_c, 1, 50, 127
1, 146357, Note_off_c, 1, 50, 0
1, 146360, Note_on_c, 1, 51, 127
1, 146529, Note_off_c, 1, 51, 0
1, 146533, Note_on_c, 1, 53, 127
1, 146704, Note_off_c, 1, 63, 0
1, 147220, Note_off_c, 1, 53, 0
1, 147221, Note_on_c, 1, 62, 127
1, 147221, Note_on_c, 1, 46, 127
1, 147562, Note_off_c, 1, 62, 0
1, 147567, Note_on_c, 1, 67, 127
1, 147908, Note_off_c, 1, 46, 0
1, 147910, Note_on_c, 1, 58, 127
1, 148217, Note_off_c, 1, 67, 0
1, 148256, Note_on_c, 1, 65, 127
1, 148597, Note_off_c, 1, 65, 0
1, 148599, Note_on_c, 1, 63, 127
1, 148940, Note_off_c, 1, 63, 0
1, 149286, Note_off_c, 1, 58, 0
1, 149289, Note_on_c, 1, 63, 127
1, 149289, Note_on_c, 1, 57, 127
1, 149630, Note_off_c, 1, 63, 0
1, 149630, Note_off_c, 1, 57, 0
1, 149633, Note_on_c, 1, 67, 127
1, 149633, Note_on_c, 1, 55, 127
1, 149974, Note_off_c, 1, 67, 0
1, 149974, Note_off_c, 1, 55, 0
1, 149978, Note_on_c, 1, 60, 127
1, 149978, Note_on_c, 1, 57, 127
1, 150319, Note_off_c, 1, 60, 0
1, 150322, Note_on_c, 1, 65, 127
1, 150435, Note_off_c, 1, 57, 0
1, 150438, Note_on_c, 1, 58, 127
1, 150550, Note_off_c, 1, 58, 0
1, 150668, Note_on_c, 1, 55, 127
1, 150972, Note_off_c, 1, 65, 0
1, 151009, Note_off_c, 1, 55, 0
1, 151012, Note_on_c, 1, 63, 127
1, 151012, Note_on_c, 1, 57, 127
1, 151353, Note_off_c, 1, 63, 0
1, 151353, Note_off_c, 1, 57, 0
1, 151358, Note_on_c, 1, 62, 127
1, 151358, Note_on_c, 1, 58, 127
1, 151699, Note_off_c, 1, 62, 0
1, 151699, Note_off_c, 1, 58, 0
1, 151702, Note_on_c, 1, 62, 127
1, 151702, Note_on_c, 1, 46, 127
1, 151871, Note_off_c, 1, 62, 0
1, 151873, Note_on_c, 1, 60, 127
1, 152042, Note_off_c, 1, 60, 0
1, 152043, Note_off_c, 1, 46, 0
1, 152047, Note_on_c, 1, 62, 127
1, 152047, Note_on_c, 1, 58, 127
1, 152388, Note_off_c, 1, 62, 0
1, 152388, Note_off_c, 1, 58, 0
1, 152391, Note_on_c, 1, 65, 127
1, 152391, Note_on_c, 1, 56, 127
1, 152732, Note_off_c, 1, 65, 0
1, 152732, Note_off_c, 1, 56, 0
1, 152735, Note_on_c, 1, 58, 127
1, 152735, Note_on_c, 1, 55, 127
1, 153076, Note_off_c, 1, 58, 0
1, 153076, Note_off_c, 1, 55, 0
1, 153080, Note_on_c, 1, 58, 127
1, 153080, Note_on_c, 1, 43, 127
1, 153249, Note_off_c, 1, 58, 0
1, 153253, Note_on_c, 1, 56, 127
1, 153421, Note_off_c, 1, 43, 0
1, 153422, Note_off_c, 1, 56, 0
1, 153424, Note_on_c, 1, 58, 127
1, 153424, Note_on_c, 1, 55, 127
1, 153765, Note_off_c, 1, 58, 0
1, 153765, Note_off_c, 1, 55, 0
1, 153769, Note_on_c, 1, 62, 127
1, 153769, Note_on_c, 1, 53, 127
1, 154110, Note_off_c, 1, 62, 0
1, 154110, Note_off_c, 1, 53, 0
1, 154113, Note_on_c, 1, 55, 127
1, 154113, Note_on_c, 1, 51, 127
1, 154113, Note_on_c, 1, 63, 127
1, 154458, Note_off_c, 1, 55, 0
1, 154458, Note_off_c, 1, 51, 0
1, 154462, Note_on_c, 1, 56, 127
1, 154462, Note_on_c, 1, 53, 127
1, 154633, Note_off_c, 1, 56, 0
1, 154633, Note_off_c, 1, 53, 0
1, 154635, Note_on_c, 1, 58, 127
1, 154806, Note_off_c, 1, 58, 0
1, 154808, Note_on_c, 1, 60, 127
1, 155153, Note_off_c, 1, 60, 0
1, 155497, Note_off_c, 1, 63, 0
1, 155503, Note_on_c, 1, 62, 127
1, 155503, Note_on_c, 1, 70, 127
1, 155848, Note_off_c, 1, 62, 0
1, 155852, Note_on_c, 1, 65, 127
1, 156197, Note_off_c, 1, 65, 0
1, 156371, Note_off_c, 1, 70, 0
1, 156547, Note_on_c, 1, 62, 127
1, 156547, Note_on_c, 1, 68, 127
1, 156547, Note_on_c, 1, 58, 127
1, 156892, Note_off_c, 1, 62, 0
1, 156892, Note_off_c, 1, 68, 0
1, 156892, Note_off_c, 1, 58, 0
1, 156894, Note_on_c, 1, 67, 127
1, 156894, Note_on_c, 1, 51, 127
1, 156894, Note_on_c, 1, 63, 127
1, 157239, Note_off_c, 1, 67, 0
1, 157239, Note_off_c, 1, 51, 0
1, 157242, Note_on_c, 1, 56, 127
1, 157242, Note_on_c, 1, 72, 127
1, 157413, Note_off_c, 1, 56, 0
1, 157415, Note_on_c, 1, 55, 127
1, 157586, Note_off_c, 1, 55, 0
1, 157935, Note_off_c, 1, 72, 0
1, 157938, Note_on_c, 1, 70, 127
1, 157938, Note_on_c, 1, 60, 127
1, 158283, Note_off_c, 1, 70, 0
1, 158283, Note_off_c, 1, 60, 0
1, 158284, Note_on_c, 1, 68, 127
1, 158284, Note_on_c, 1, 53, 127
1, 158629, Note_off_c, 1, 68, 0
1, 158975, Note_off_c, 1, 63, 0
1, 158981, Note_on_c, 1, 62, 127
1, 159325, Note_off_c, 1, 53, 0
1, 159326, Note_off_c, 1, 62, 0
1, 159329, Note_on_c, 1, 55, 127
1, 159329, Note_on_c, 1, 72, 127
1, 159329, Note_on_c, 1, 60, 127
1, 159500, Note_off_c, 1, 55, 0
1, 159502, Note_on_c, 1, 56, 127
1, 159673, Note_off_c, 1, 56, 0
1, 159674, Note_off_c, 1, 72, 0
1, 159674, Note_off_c, 1, 60, 0
1, 159676, Note_on_c, 1, 65, 127
1, 159676, Note_on_c, 1, 62, 127
1, 159676, Note_on_c, 1, 58, 127
1, 160021, Note_off_c, 1, 65, 0
1, 160024, Note_on_c, 1, 70, 127
1, 160137, Note_off_c, 1, 62, 0
1, 160141, Note_on_c, 1, 63, 127
1, 160255, Note_off_c, 1, 63, 0
1, 160375, Note_on_c, 1, 60, 127
1, 160719, Note_off_c, 1, 70, 0
1, 160720, Note_off_c, 1, 60, 0
1, 160722, Note_on_c, 1, 68, 127
1, 161067, Note_off_c, 1, 58, 0
1, 161067, Note_off_c, 1, 68, 0
1, 161070, Note_on_c, 1, 67, 127
1, 161070, Note_on_c, 1, 63, 127
1, 161070, Note_on_c, 1, 51, 127
1, 161415, Note_off_c, 1, 67, 0
1, 161415, Note_off_c, 1, 63, 0
1, 161417, Note_on_c, 1, 58, 127
1, 161588, Note_off_c, 1, 58, 0
1, 161591, Note_on_c, 1, 65, 127
1, 161591, Note_on_c, 1, 56, 127
1, 161762, Note_off_c, 1, 65, 0
1, 161762, Note_off_c, 1, 56, 0
1, 162110, Note_off_c, 1, 51, 0
1, 162114, Note_on_c, 1, 70, 127
1, 162114, Note_on_c, 1, 50, 127
1, 162459, Note_off_c, 1, 70, 0
1, 162459, Note_off_c, 1, 50, 0
1, 162462, Note_on_c, 1, 48, 127
1, 162985, Note_on_c, 1, 55, 127
1, 163156, Note_off_c, 1, 55, 0
1, 163331, Note_off_c, 1, 48, 0
1, 163506, Note_on_c, 1, 68, 127
1, 163506, Note_on_c, 1, 53, 127
1, 163851, Note_off_c, 1, 68, 0
1, 163851, Note_off_c, 1, 53, 0
1, 163854, Note_on_c, 1, 62, 127
1, 163854, Note_on_c, 1, 46, 127
1, 164200, Note_off_c, 1, 62, 0
1, 165246, Note_on_c, 1, 60, 127
1, 165246, Note_on_c, 1, 75, 127
1, 165591, Note_off_c, 1, 60, 0
1, 165935, Note_off_c, 1, 46, 0
1, 165941, Note_on_c, 1, 45, 127
1, 165941, Note_on_c, 1, 72, 127
1, 166114, Note_off_c, 1, 75, 0
1, 166634, Note_off_c, 1, 45, 0
1, 166636, Note_on_c, 1, 74, 127
1, 166981, Note_off_c, 1, 72, 0
1, 166982, Note_off_c, 1, 74, 0
1, 166984, Note_on_c, 1, 79, 127
1, 167159, Note_on_c, 1, 69, 127
1, 167330, Note_off_c, 1, 69, 0
1, 167677, Note_off_c, 1, 79, 0
1, 167680, Note_on_c, 1, 77, 127
1, 167680, Note_on_c, 1, 43, 127
1, 168025, Note_off_c, 1, 77, 0
1, 168025, Note_off_c, 1, 43, 0
1, 168725, Note_on_c, 1, 69, 127
1, 168725, Note_on_c, 1, 75, 127
1, 168725, Note_on_c, 1, 60, 127
1, 169070, Note_off_c, 1, 69, 0
1, 169070, Note_off_c, 1, 75, 0
1, 169072, Note_on_c, 1, 79, 127
1, 169072, Note_on_c, 1, 67, 127
1, 169072, Note_on_c, 1, 51, 127
1, 169417, Note_off_c, 1, 79, 0
1, 169417, Note_off_c, 1, 67, 0
1, 169417, Note_off_c, 1, 51, 0
1, 169420, Note_on_c, 1, 72, 127
1, 169420, Note_on_c, 1, 53, 127
1, 169765, Note_off_c, 1, 72, 0
1, 169768, Note_on_c, 1, 77, 127
1, 169884, Note_on_c, 1, 70, 127
1, 169884, Note_on_c, 1, 62, 127
1, 169889, Note_off_c, 1, 60, 0
1, 169998, Note_off_c, 1, 70, 0
1, 169998, Note_off_c, 1, 62, 0
1, 170115, Note_off_c, 1, 53, 0
1, 170118, Note_on_c, 1, 58, 127
1, 170463, Note_off_c, 1, 77, 0
1, 170463, Note_off_c, 1, 58, 0
1, 170466, Note_on_c, 1, 69, 127
1, 170466, Note_on_c, 1, 75, 127
1, 170466, Note_on_c, 1, 60, 127
1, 170466, Note_on_c, 1, 53, 127
1, 170811, Note_off_c, 1, 69, 0
1, 170811, Note_off_c, 1, 75, 0
1, 170811, Note_off_c, 1, 60, 0
1, 170811, Note_off_c, 1, 53, 0
1, 170813, Note_on_c, 1, 74, 127
1, 170813, Note_on_c, 1, 58, 127
1, 170813, Note_on_c, 1, 70, 127
1, 170813, Note_on_c, 1, 62, 127
1, 171158, Note_off_c, 1, 74, 0
1, 171158, Note_off_c, 1, 58, 0
1, 171161, Note_on_c, 1, 53, 127
1, 171335, Note_on_c, 1, 72, 127
1, 171506, Note_off_c, 1, 70, 0
1, 171506, Note_off_c, 1, 62, 0
1, 171506, Note_off_c, 1, 53, 0
1, 171506, Note_off_c, 1, 72, 0
1, 171508, Note_on_c, 1, 74, 127
1, 171508, Note_on_c, 1, 58, 127
1, 171853, Note_off_c, 1, 74, 0
1, 171853, Note_off_c, 1, 58, 0
1, 171857, Note_on_c, 1, 65, 127
1, 171857, Note_on_c, 1, 77, 127
1, 171857, Note_on_c, 1, 60, 127
1, 171857, Note_on_c, 1, 57, 127
1, 172202, Note_off_c, 1, 65, 0
1, 172202, Note_off_c, 1, 77, 0
1, 172202, Note_off_c, 1, 60, 0
1, 172202, Note_off_c, 1, 57, 0
1, 172203, Note_on_c, 1, 70, 127
1, 172203, Note_on_c, 1, 55, 127
1, 172203, Note_on_c, 1, 67, 127
1, 172203, Note_on_c, 1, 62, 127
1, 172548, Note_off_c, 1, 70, 0
1, 172548, Note_off_c, 1, 55, 0
1, 172552, Note_on_c, 1, 50, 127
1, 172725, Note_on_c, 1, 69, 127
1, 172896, Note_off_c, 1, 67, 0
1, 172896, Note_off_c, 1, 62, 0
1, 172896, Note_off_c, 1, 69, 0
1, 172897, Note_off_c, 1, 50, 0
1, 172898, Note_on_c, 1, 70, 127
1, 172898, Note_on_c, 1, 55, 127
1, 173243, Note_off_c, 1, 70, 0
1, 173243, Note_off_c, 1, 55, 0
1, 173247, Note_on_c, 1, 62, 127
1, 173247, Note_on_c, 1, 74, 127
1, 173247, Note_on_c, 1, 53, 127
1, 173247, Note_on_c, 1, 56, 127
1, 173592, Note_off_c, 1, 62, 0
1, 173592, Note_off_c, 1, 74, 0
1, 173592, Note_off_c, 1, 53, 0
1, 173592, Note_off_c, 1, 56, 0
1, 173594, Note_on_c, 1, 67, 127
1, 173594, Note_on_c, 1, 63, 127
1, 173594, Note_on_c, 1, 58, 127
1, 173594, Note_on_c, 1, 51, 127
1, 173939, Note_off_c, 1, 67, 0
1, 173939, Note_off_c, 1, 63, 0
1, 173939, Note_off_c, 1, 58, 0
1, 173942, Note_on_c, 1, 69, 127
1, 173942, Note_on_c, 1, 65, 127
1, 173942, Note_on_c, 1, 60, 127
1, 174287, Note_off_c, 1, 69, 0
1, 174287, Note_off_c, 1, 65, 0
1, 174287, Note_off_c, 1, 60, 0
1, 174289, Note_on_c, 1, 61, 127
1, 174289, Note_on_c, 1, 70, 127
1, 174634, Note_off_c, 1, 51, 0
1, 174637, Note_on_c, 1, 52, 127
1, 174982, Note_off_c, 1, 61, 0
1, 174982, Note_off_c, 1, 52, 0
1, 174984, Note_on_c, 1, 53, 127
1, 175673, Note_off_c, 1, 70, 0
1, 176368, Note_off_c, 1, 53, 0
1, 176374, Note_on_c, 1, 70, 127
1, 176374, Note_on_c, 1, 62, 127
1, 176374, Note_on_c, 1, 58, 127
1, 176374, Note_on_c, 1, 46, 127
1, 176719, Note_off_c, 1, 70, 0
1, 176719, Note_off_c, 1, 62, 0
1, 176722, Note_on_c, 1, 74, 127
1, 176722, Note_on_c, 1, 65, 127
1, 176893, Note_off_c, 1, 74, 0
1, 176893, Note_off_c, 1, 65, 0
1, 176896, Note_on_c, 1, 67, 127
1, 176896, Note_on_c, 1, 75, 127
1, 177067, Note_off_c, 1, 58, 0
1, 177067, Note_off_c, 1, 46, 0
1, 177067, Note_off_c, 1, 67, 0
1, 177067, Note_off_c, 1, 75, 0
1, 177070, Note_on_c, 1, 77, 127
1, 177070, Note_on_c, 1, 58, 127
1, 177070, Note_on_c, 1, 68, 127
1, 177415, Note_off_c, 1, 77, 0
1, 177417, Note_on_c, 1, 74, 127
1, 177762, Note_off_c, 1, 74, 0
1, 177763, Note_off_c, 1, 58, 0
1, 177766, Note_on_c, 1, 70, 127
1, 177766, Note_on_c, 1, 63, 127
1, 178110, Note_off_c, 1, 68, 0
1, 178112, Note_off_c, 1, 70, 0
1, 178114, Note_on_c, 1, 75, 127
1, 178114, Note_on_c, 1, 67, 127
1, 178285, Note_off_c, 1, 75, 0
1, 178285, Note_off_c, 1, 67, 0
1, 178460, Note_off_c, 1, 63, 0
1, 178463, Note_on_c, 1, 79, 127
1, 178463, Note_on_c, 1, 70, 127
1, 178463, Note_on_c, 1, 51, 127
1, 178808, Note_off_c, 1, 79, 0
1, 178808, Note_off_c, 1, 70, 0
1, 178809, Note_on_c, 1, 67, 127
1, 178809, Note_on_c, 1, 75, 127
1, 178809, Note_on_c, 1, 63, 127
1, 179154, Note_off_c, 1, 67, 0
1, 179154, Note_off_c, 1, 75, 0
1, 179154, Note_off_c, 1, 63, 0
1, 179156, Note_off_c, 1, 51, 0
1, 179158, Note_on_c, 1, 62, 127
1, 179158, Note_on_c, 1, 77, 127
1, 179158, Note_on_c, 1, 58, 127
1, 179503, Note_off_c, 1, 62, 0
1, 179503, Note_off_c, 1, 77, 0
1, 179504, Note_on_c, 1, 75, 127
1, 179504, Note_on_c, 1, 70, 127
1, 179504, Note_on_c, 1, 67, 127
1, 179675, Note_off_c, 1, 75, 0
1, 179678, Note_on_c, 1, 74, 127
1, 179847, Note_off_c, 1, 70, 0
1, 179850, Note_off_c, 1, 74, 0
1, 179852, Note_off_c, 1, 58, 0
1, 179854, Note_on_c, 1, 72, 127
1, 179854, Note_on_c, 1, 68, 127
1, 180198, Note_off_c, 1, 67, 0
1, 180199, Note_off_c, 1, 72, 0
1, 180199, Note_off_c, 1, 68, 0
1, 180201, Note_on_c, 1, 74, 127
1, 180201, Note_on_c, 1, 70, 127
1, 180201, Note_on_c, 1, 65, 127
1, 180201, Note_on_c, 1, 56, 127
1, 180546, Note_off_c, 1, 74, 0
1, 180546, Note_off_c, 1, 70, 0
1, 180546, Note_off_c, 1, 65, 0
1, 180546, Note_off_c, 1, 56, 0
1, 180549, Note_on_c, 1, 63, 127
1, 180549, Note_on_c, 1, 75, 127
1, 180549, Note_on_c, 1, 58, 127
1, 180549, Note_on_c, 1, 55, 127
1, 180890, Note_off_c, 1, 63, 0
1, 180890, Note_off_c, 1, 75, 0
1, 180894, Note_off_c, 1, 58, 0
1, 180894, Note_off_c, 1, 55, 0
1, 180896, Note_on_c, 1, 63, 127
1, 180896, Note_on_c, 1, 60, 127
1, 181067, Note_off_c, 1, 63, 0
1, 181070, Note_on_c, 1, 62, 127
1, 181241, Note_off_c, 1, 62, 0
1, 181496, Note_off_c, 1, 60, 0
1, 181592, Note_on_c, 1, 67, 127
1, 181592, Note_on_c, 1, 58, 127
1, 181937, Note_off_c, 1, 67, 0
1, 181937, Note_off_c, 1, 58, 0
1, 181939, Note_on_c, 1, 56, 127
1, 181939, Note_on_c, 1, 60, 127
1, 182284, Note_off_c, 1, 56, 0
1, 182284, Note_off_c, 1, 60, 0
1, 182287, Note_on_c, 1, 56, 127
1, 182287, Note_on_c, 1, 65, 127
1, 182458, Note_off_c, 1, 56, 0
1, 182461, Note_on_c, 1, 55, 127
1, 182632, Note_off_c, 1, 55, 0
1, 182906, Note_off_c, 1, 65, 0
1, 182982, Note_on_c, 1, 63, 127
1, 182982, Note_on_c, 1, 60, 127
1, 183327, Note_off_c, 1, 63, 0
1, 183327, Note_off_c, 1, 60, 0
1, 183330, Note_on_c, 1, 62, 127
1, 183330, Note_on_c, 1, 53, 127
1, 183675, Note_off_c, 1, 62, 0
1, 183675, Note_off_c, 1, 53, 0
1, 183677, Note_on_c, 1, 62, 127
1, 183677, Note_on_c, 1, 58, 127
1, 183848, Note_off_c, 1, 62, 0
1, 183851, Note_on_c, 1, 60, 127
1, 184022, Note_off_c, 1, 60, 0
1, 184357, Note_off_c, 1, 58, 0
1, 184372, Note_on_c, 1, 56, 127
1, 184372, Note_on_c, 1, 65, 127
1, 184717, Note_off_c, 1, 56, 0
1, 184717, Note_off_c, 1, 65, 0
1, 184720, Note_on_c, 1, 58, 127
1, 184720, Note_on_c, 1, 55, 127
1, 185065, Note_off_c, 1, 58, 0
1, 185065, Note_off_c, 1, 55, 0
1, 185068, Note_on_c, 1, 55, 127
1, 185068, Note_on_c, 1, 58, 127
1, 185239, Note_off_c, 1, 55, 0
1, 185239, Note_off_c, 1, 58, 0
1, 185241, Note_on_c, 1, 56, 127
1, 185241, Note_on_c, 1, 53, 127
1, 185412, Note_off_c, 1, 56, 0
1, 185412, Note_off_c, 1, 53, 0
1, 185415, Note_on_c, 1, 58, 127
1, 185415, Note_on_c, 1, 55, 127
1, 185760, Note_off_c, 1, 58, 0
1, 185760, Note_off_c, 1, 55, 0
1, 185763, Note_on_c, 1, 62, 127
1, 185763, Note_on_c, 1, 58, 127
1, 186108, Note_off_c, 1, 62, 0
1, 186108, Note_off_c, 1, 58, 0
1, 186110, Note_on_c, 1, 51, 127
1, 186110, Note_on_c, 1, 70, 127
1, 186110, Note_on_c, 1, 55, 127
1, 186455, Note_off_c, 1, 51, 0
1, 186632, Note_on_c, 1, 50, 127
1, 186803, Note_off_c, 1, 70, 0
1, 186803, Note_off_c, 1, 55, 0
1, 186803, Note_off_c, 1, 50, 0
1, 186806, Note_on_c, 1, 51, 127
1, 186806, Note_on_c, 1, 67, 127
1, 187151, Note_off_c, 1, 51, 0
1, 187153, Note_on_c, 1, 55, 127
1, 187498, Note_off_c, 1, 55, 0
1, 187501, Note_on_c, 1, 48, 127
1, 187501, Note_on_c, 1, 75, 127
1, 187846, Note_off_c, 1, 67, 0
1, 188022, Note_on_c, 1, 65, 127
1, 188193, Note_off_c, 1, 65, 0
1, 188194, Note_off_c, 1, 48, 0
1, 188196, Note_on_c, 1, 60, 127
1, 188369, Note_off_c, 1, 75, 0
1, 188544, Note_on_c, 1, 69, 127
1, 188889, Note_off_c, 1, 60, 0
1, 188889, Note_off_c, 1, 69, 0
1, 188891, Note_on_c, 1, 74, 127
1, 188891, Note_on_c, 1, 70, 127
1, 188891, Note_on_c, 1, 58, 127
1, 188891, Note_on_c, 1, 82, 127
1, 189236, Note_off_c, 1, 74, 0
1, 189236, Note_off_c, 1, 70, 0
1, 189236, Note_off_c, 1, 58, 0
1, 189239, Note_on_c, 1, 62, 127
1, 189239, Note_on_c, 1, 79, 127
1, 189410, Note_off_c, 1, 62, 0
1, 189413, Note_on_c, 1, 60, 127
1, 189413, Note_on_c, 1, 56, 127
1, 189584, Note_off_c, 1, 60, 0
1, 189584, Note_off_c, 1, 56, 0
1, 189759, Note_off_c, 1, 82, 0
1, 189932, Note_off_c, 1, 79, 0
1, 189934, Note_on_c, 1, 80, 127
1, 189934, Note_on_c, 1, 77, 127
1, 189934, Note_on_c, 1, 62, 127
1, 189934, Note_on_c, 1, 65, 127
1, 190279, Note_off_c, 1, 80, 0
1, 190279, Note_off_c, 1, 77, 0
1, 190279, Note_off_c, 1, 62, 0
1, 190279, Note_off_c, 1, 65, 0
1, 190282, Note_on_c, 1, 79, 127
1, 190282, Note_on_c, 1, 75, 127
1, 190282, Note_on_c, 1, 67, 127
1, 190282, Note_on_c, 1, 63, 127
1, 190627, Note_off_c, 1, 79, 0
1, 190627, Note_off_c, 1, 75, 0
1, 190627, Note_off_c, 1, 67, 0
1, 190629, Note_on_c, 1, 84, 127
1, 190803, Note_on_c, 1, 74, 127
1, 190803, Note_on_c, 1, 65, 127
1, 190974, Note_off_c, 1, 74, 0
1, 190974, Note_off_c, 1, 65, 0
1, 190975, Note_off_c, 1, 63, 0
1, 191322, Note_off_c, 1, 84, 0
1, 191324, Note_on_c, 1, 82, 127
1, 191324, Note_on_c, 1, 64, 127
1, 191669, Note_off_c, 1, 82, 0
1, 191669, Note_off_c, 1, 64, 0
1, 191671, Note_on_c, 1, 80, 127
1, 191671, Note_on_c, 1, 72, 127
1, 191671, Note_on_c, 1, 65, 127
1, 192016, Note_off_c, 1, 80, 0
1, 192016, Note_off_c, 1, 72, 0
1, 192016, Note_off_c, 1, 65, 0
1, 192020, Note_on_c, 1, 80, 127
1, 192020, Note_on_c, 1, 53, 127
1, 192020, Note_on_c, 1, 60, 127
1, 192020, Note_on_c, 1, 77, 127
1, 192191, Note_off_c, 1, 80, 0
1, 192191, Note_off_c, 1, 53, 0
1, 192193, Note_on_c, 1, 79, 127
1, 192193, Note_on_c, 1, 52, 127
1, 192363, Note_off_c, 1, 60, 0
1, 192365, Note_off_c, 1, 79, 0
1, 192365, Note_off_c, 1, 52, 0
1, 192368, Note_on_c, 1, 65, 127
1, 192714, Note_off_c, 1, 77, 0
1, 192716, Note_on_c, 1, 75, 127
1, 192716, Note_on_c, 1, 84, 127
1, 192716, Note_on_c, 1, 57, 127
1, 193061, Note_off_c, 1, 75, 0
1, 193061, Note_off_c, 1, 84, 0
1, 193061, Note_off_c, 1, 57, 0
1, 193064, Note_on_c, 1, 74, 127
1, 193064, Note_on_c, 1, 58, 127
1, 193408, Note_off_c, 1, 65, 0
1, 193410, Note_off_c, 1, 74, 0
1, 193413, Note_on_c, 1, 82, 127
1, 193586, Note_on_c, 1, 72, 127
1, 193586, Note_on_c, 1, 63, 127
1, 193757, Note_off_c, 1, 72, 0
1, 193757, Note_off_c, 1, 63, 0
1, 193758, Note_off_c, 1, 58, 0
1, 194106, Note_off_c, 1, 82, 0
1, 194108, Note_on_c, 1, 62, 127
1, 194453, Note_off_c, 1, 62, 0
1, 194456, Note_on_c, 1, 70, 127
1, 194456, Note_on_c, 1, 79, 127
1, 194456, Note_on_c, 1, 63, 127
1, 194801, Note_off_c, 1, 70, 0
1, 194801, Note_off_c, 1, 79, 0
1, 194801, Note_off_c, 1, 63, 0
1, 194804, Note_on_c, 1, 70, 127
1, 194804, Note_on_c, 1, 79, 127
1, 194804, Note_on_c, 1, 51, 127
1, 194804, Note_on_c, 1, 58, 127
1, 194975, Note_off_c, 1, 70, 0
1, 194975, Note_off_c, 1, 79, 0
1, 194976, Note_on_c, 1, 77, 127
1, 194976, Note_on_c, 1, 68, 127
1, 195147, Note_off_c, 1, 77, 0
1, 195147, Note_off_c, 1, 68, 0
1, 195149, Note_off_c, 1, 51, 0
1, 195149, Note_off_c, 1, 58, 0
1, 195151, Note_on_c, 1, 63, 127
1, 195151, Note_on_c, 1, 79, 127
1, 195151, Note_on_c, 1, 70, 127
1, 195322, Note_off_c, 1, 63, 0
1, 195325, Note_on_c, 1, 62, 127
1, 195496, Note_off_c, 1, 79, 0
1, 195496, Note_off_c, 1, 70, 0
1, 195496, Note_off_c, 1, 62, 0
1, 195498, Note_on_c, 1, 60, 127
1, 195498, Note_on_c, 1, 74, 127
1, 195498, Note_on_c, 1, 82, 127
1, 195669, Note_off_c, 1, 60, 0
1, 195672, Note_on_c, 1, 58, 127
1, 195843, Note_off_c, 1, 74, 0
1, 195843, Note_off_c, 1, 82, 0
1, 195843, Note_off_c, 1, 58, 0
1, 195846, Note_on_c, 1, 67, 127
1, 195846, Note_on_c, 1, 75, 127
1, 195846, Note_on_c, 1, 60, 127
1, 196191, Note_off_c, 1, 67, 0
1, 196191, Note_off_c, 1, 75, 0
1, 196191, Note_off_c, 1, 60, 0
1, 196193, Note_on_c, 1, 75, 127
1, 196193, Note_on_c, 1, 69, 127
1, 196193, Note_on_c, 1, 48, 127
1, 196364, Note_off_c, 1, 75, 0
1, 196364, Note_off_c, 1, 69, 0
1, 196368, Note_on_c, 1, 71, 127
1, 196368, Note_on_c, 1, 74, 127
1, 196538, Note_off_c, 1, 48, 0
1, 196539, Note_off_c, 1, 71, 0
1, 196539, Note_off_c, 1, 74, 0
1, 196542, Note_on_c, 1, 60, 127
1, 196542, Note_on_c, 1, 75, 127
1, 196542, Note_on_c, 1, 72, 127
1, 196713, Note_off_c, 1, 60, 0
1, 196715, Note_on_c, 1, 58, 127
1, 196886, Note_off_c, 1, 58, 0
1, 196887, Note_off_c, 1, 75, 0
1, 196887, Note_off_c, 1, 72, 0
1, 196888, Note_on_c, 1, 56, 127
1, 196888, Note_on_c, 1, 70, 127
1, 196888, Note_on_c, 1, 79, 127
1, 197059, Note_off_c, 1, 56, 0
1, 197063, Note_on_c, 1, 55, 127
1, 197233, Note_off_c, 1, 70, 0
1, 197233, Note_off_c, 1, 79, 0
1, 197234, Note_off_c, 1, 55, 0
1, 197237, Note_on_c, 1, 56, 127
1, 197237, Note_on_c, 1, 72, 127
1, 197582, Note_off_c, 1, 56, 0
1, 197583, Note_on_c, 1, 74, 127
1, 197583, Note_on_c, 1, 44, 127
1, 197754, Note_off_c, 1, 74, 0
1, 197758, Note_on_c, 1, 75, 127
1, 197928, Note_off_c, 1, 44, 0
1, 197929, Note_off_c, 1, 75, 0
1, 197932, Note_on_c, 1, 77, 127
1, 198105, Note_off_c, 1, 72, 0
1, 198105, Note_on_c, 1, 71, 127
1, 198276, Note_off_c, 1, 71, 0
1, 198279, Note_on_c, 1, 55, 127
1, 198450, Note_off_c, 1, 55, 0
1, 198453, Note_on_c, 1, 53, 127
1, 198624, Note_off_c, 1, 53, 0
1, 198974, Note_on_c, 1, 67, 127
1, 199316, Note_off_c, 1, 77, 0
1, 199319, Note_off_c, 1, 67, 0
1, 200365, Note_on_c, 1, 79, 127
1, 200712, Note_on_c, 1, 70, 127
1, 201058, Note_off_c, 1, 79, 0
1, 201060, Note_on_c, 1, 52, 127
1, 201231, Note_off_c, 1, 52, 0
1, 201234, Note_on_c, 1, 50, 127
1, 201405, Note_off_c, 1, 50, 0
1, 201407, Note_on_c, 1, 76, 127
1, 201407, Note_on_c, 1, 48, 127
1, 201752, Note_off_c, 1, 76, 0
1, 202096, Note_off_c, 1, 70, 0
1, 202102, Note_on_c, 1, 68, 127
1, 202273, Note_off_c, 1, 68, 0
1, 202968, Note_off_c, 1, 48, 0
1, 202971, Note_on_c, 1, 46, 127
1, 203142, Note_off_c, 1, 46, 0
1, 203841, Note_on_c, 1, 45, 127
1, 204012, Note_off_c, 1, 45, 0
1, 204014, Note_on_c, 1, 43, 127
1, 204185, Note_off_c, 1, 43, 0
1, 204188, Note_on_c, 1, 69, 127
1, 204188, Note_on_c, 1, 41, 127
1, 204533, Note_off_c, 1, 69, 0
1, 204536, Note_on_c, 1, 65, 127
1, 204881, Note_off_c, 1, 65, 0
1, 205749, Note_off_c, 1, 41, 0
1, 205753, Note_on_c, 1, 51, 127
1, 205924, Note_off_c, 1, 51, 0
1, 208707, Note_on_c, 1, 58, 127
1, 208878, Note_off_c, 1, 58, 0
1, 208880, Note_on_c, 1, 60, 127
1, 209051, Note_off_c, 1, 60, 0
1, 209055, Note_on_c, 1, 73, 127
1, 209752, Note_on_c, 1, 63, 127
1, 210096, Note_off_c, 1, 73, 0
1, 210621, Note_off_c, 1, 63, 0
1, 210795, Note_on_c, 1, 61, 127
1, 211140, Note_off_c, 1, 61, 0
1, 212186, Note_on_c, 1, 49, 127
1, 212357, Note_off_c, 1, 49, 0
1, 213579, Note_on_c, 1, 48, 127
1, 213579, Note_on_c, 1, 68, 127
1, 213579, Note_on_c, 1, 65, 127
1, 213750, Note_off_c, 1, 48, 0
1, 213753, Note_on_c, 1, 49, 127
1, 213924, Note_off_c, 1, 68, 0
1, 213924, Note_off_c, 1, 65, 0
1, 213924, Note_off_c, 1, 49, 0
1, 213927, Note_on_c, 1, 67, 127
1, 213927, Note_on_c, 1, 58, 127
1, 213927, Note_on_c, 1, 51, 127
1, 214272, Note_off_c, 1, 67, 0
1, 214272, Note_off_c, 1, 58, 0
1, 214275, Note_on_c, 1, 63, 127
1, 214448, Note_on_c, 1, 65, 127
1, 214619, Note_off_c, 1, 65, 0
1, 214793, Note_off_c, 1, 51, 0
1, 214796, Note_on_c, 1, 39, 127
1, 214967, Note_off_c, 1, 39, 0
1, 214968, Note_off_c, 1, 63, 0
1, 214969, Note_on_c, 1, 41, 127
1, 214969, Note_on_c, 1, 70, 127
1, 214969, Note_on_c, 1, 61, 127
1, 215140, Note_off_c, 1, 41, 0
1, 215144, Note_on_c, 1, 43, 127
1, 215314, Note_off_c, 1, 70, 0
1, 215314, Note_off_c, 1, 61, 0
1, 215315, Note_off_c, 1, 43, 0
1, 215317, Note_on_c, 1, 44, 127
1, 215317, Note_on_c, 1, 60, 127
1, 215317, Note_on_c, 1, 63, 127
1, 215488, Note_off_c, 1, 44, 0
1, 215491, Note_on_c, 1, 46, 127
1, 215662, Note_off_c, 1, 60, 0
1, 215662, Note_off_c, 1, 63, 0
1, 215662, Note_off_c, 1, 46, 0
1, 215665, Note_on_c, 1, 60, 127
1, 215665, Note_on_c, 1, 48, 127
1, 215665, Note_on_c, 1, 68, 127
1, 215836, Note_off_c, 1, 60, 0
1, 215836, Note_off_c, 1, 48, 0
1, 215839, Note_on_c, 1, 58, 127
1, 215839, Note_on_c, 1, 49, 127
1, 216010, Note_off_c, 1, 58, 0
1, 216010, Note_off_c, 1, 49, 0
1, 216013, Note_on_c, 1, 51, 127
1, 216358, Note_off_c, 1, 68, 0
1, 216360, Note_on_c, 1, 63, 127
1, 216360, Note_on_c, 1, 67, 127
1, 216705, Note_off_c, 1, 63, 0
1, 216705, Note_off_c, 1, 67, 0
1, 216708, Note_on_c, 1, 65, 127
1, 216708, Note_on_c, 1, 56, 127
1, 216708, Note_on_c, 1, 70, 127
1, 217053, Note_off_c, 1, 65, 0
1, 217053, Note_off_c, 1, 56, 0
1, 217229, Note_on_c, 1, 55, 127
1, 217397, Note_off_c, 1, 51, 0
1, 217400, Note_off_c, 1, 55, 0
1, 217403, Note_on_c, 1, 50, 127
1, 218092, Note_off_c, 1, 70, 0
1, 218096, Note_off_c, 1, 50, 0
1, 218098, Note_on_c, 1, 63, 127
1, 218098, Note_on_c, 1, 55, 127
1, 218098, Note_on_c, 1, 75, 127
1, 218098, Note_on_c, 1, 51, 127
1, 218443, Note_off_c, 1, 63, 0
1, 218443, Note_off_c, 1, 55, 0
1, 218446, Note_on_c, 1, 67, 127
1, 218446, Note_on_c, 1, 58, 127
1, 218617, Note_off_c, 1, 67, 0
1, 218617, Note_off_c, 1, 58, 0
1, 218620, Note_on_c, 1, 65, 127
1, 218620, Note_on_c, 1, 56, 127
1, 218791, Note_off_c, 1, 65, 0
1, 218791, Note_off_c, 1, 56, 0
1, 218966, Note_off_c, 1, 75, 0
1, 219141, Note_on_c, 1, 69, 127
1, 219141, Note_on_c, 1, 60, 127
1, 219312, Note_off_c, 1, 69, 0
1, 219482, Note_off_c, 1, 51, 0
1, 219486, Note_off_c, 1, 60, 0
1, 219489, Note_on_c, 1, 65, 127
1, 219489, Note_on_c, 1, 74, 127
1, 219489, Note_on_c, 1, 62, 127
1, 219489, Note_on_c, 1, 58, 127
1, 219834, Note_off_c, 1, 65, 0
1, 219834, Note_off_c, 1, 74, 0
1, 219834, Note_off_c, 1, 62, 0
1, 219836, Note_on_c, 1, 70, 127
1, 219836, Note_on_c, 1, 79, 127
1, 220007, Note_off_c, 1, 70, 0
1, 220010, Note_on_c, 1, 68, 127
1, 220010, Note_on_c, 1, 60, 127
1, 220181, Note_off_c, 1, 68, 0
1, 220181, Note_off_c, 1, 60, 0
1, 220182, Note_off_c, 1, 58, 0
1, 220529, Note_off_c, 1, 79, 0
1, 220531, Note_on_c, 1, 65, 127
1, 220531, Note_on_c, 1, 74, 127
1, 220531, Note_on_c, 1, 77, 127
1, 220531, Note_on_c, 1, 56, 127
1, 220876, Note_off_c, 1, 65, 0
1, 220876, Note_off_c, 1, 74, 0
1, 220876, Note_off_c, 1, 77, 0
1, 220876, Note_off_c, 1, 56, 0
1, 220878, Note_on_c, 1, 75, 127
1, 220878, Note_on_c, 1, 70, 127
1, 220878, Note_on_c, 1, 55, 127
1, 221223, Note_off_c, 1, 75, 0
1, 221223, Note_off_c, 1, 70, 0
1, 221223, Note_off_c, 1, 55, 0
1, 221227, Note_on_c, 1, 75, 127
1, 221227, Note_on_c, 1, 72, 127
1, 221227, Note_on_c, 1, 67, 127
1, 221227, Note_on_c, 1, 60, 127
1, 221398, Note_off_c, 1, 75, 0
1, 221400, Note_on_c, 1, 74, 127
1, 221570, Note_off_c, 1, 72, 0
1, 221570, Note_off_c, 1, 67, 0
1, 221572, Note_off_c, 1, 74, 0
1, 221575, Note_on_c, 1, 63, 127
1, 221921, Note_off_c, 1, 60, 0
1, 221923, Note_on_c, 1, 79, 127
1, 221923, Note_on_c, 1, 58, 127
1, 222268, Note_off_c, 1, 79, 0
1, 222268, Note_off_c, 1, 58, 0
1, 222270, Note_on_c, 1, 68, 127
1, 222270, Note_on_c, 1, 56, 127
1, 222615, Note_off_c, 1, 63, 0
1, 222616, Note_off_c, 1, 68, 0
1, 222616, Note_off_c, 1, 56, 0
1, 222620, Note_on_c, 1, 60, 127
1, 222620, Note_on_c, 1, 56, 127
1, 222620, Note_on_c, 1, 68, 127
1, 222620, Note_on_c, 1, 77, 127
1, 222791, Note_off_c, 1, 60, 0
1, 222791, Note_off_c, 1, 56, 0
1, 222793, Note_on_c, 1, 58, 127
1, 222793, Note_on_c, 1, 55, 127
1, 222964, Note_off_c, 1, 58, 0
1, 222964, Note_off_c, 1, 55, 0
1, 223313, Note_off_c, 1, 68, 0
1, 223313, Note_off_c, 1, 77, 0
1, 223315, Note_on_c, 1, 75, 127
1, 223315, Note_on_c, 1, 67, 127
1, 223315, Note_on_c, 1, 60, 127
1, 223315, Note_on_c, 1, 63, 127
1, 223660, Note_off_c, 1, 75, 0
1, 223660, Note_off_c, 1, 67, 0
1, 223660, Note_off_c, 1, 60, 0
1, 223660, Note_off_c, 1, 63, 0
1, 223663, Note_on_c, 1, 74, 127
1, 223663, Note_on_c, 1, 68, 127
1, 223663, Note_on_c, 1, 65, 127
1, 223663, Note_on_c, 1, 53, 127
1, 224008, Note_off_c, 1, 74, 0
1, 224008, Note_off_c, 1, 68, 0
1, 224008, Note_off_c, 1, 65, 0
1, 224008, Note_off_c, 1, 53, 0
1, 224011, Note_on_c, 1, 74, 127
1, 224011, Note_on_c, 1, 65, 127
1, 224011, Note_on_c, 1, 62, 127
1, 224011, Note_on_c, 1, 58, 127
1, 224182, Note_off_c, 1, 74, 0
1, 224183, Note_on_c, 1, 72, 127
1, 224354, Note_off_c, 1, 65, 0
1, 224355, Note_off_c, 1, 72, 0
1, 224357, Note_off_c, 1, 62, 0
1, 224360, Note_on_c, 1, 67, 127
1, 224360, Note_on_c, 1, 70, 127
1, 224705, Note_off_c, 1, 58, 0
1, 224705, Note_off_c, 1, 67, 0
1, 224706, Note_on_c, 1, 77, 127
1, 224706, Note_on_c, 1, 56, 127
1, 225051, Note_off_c, 1, 77, 0
1, 225051, Note_off_c, 1, 56, 0
1, 225053, Note_off_c, 1, 70, 0
1, 225055, Note_on_c, 1, 63, 127
1, 225055, Note_on_c, 1, 55, 127
1, 225055, Note_on_c, 1, 70, 127
1, 225403, Note_off_c, 1, 63, 0
1, 225403, Note_off_c, 1, 55, 0
1, 225405, Note_on_c, 1, 75, 127
1, 225580, Note_on_c, 1, 53, 127
1, 225752, Note_off_c, 1, 53, 0
1, 225753, Note_off_c, 1, 75, 0
1, 225754, Note_off_c, 1, 70, 0
1, 225757, Note_on_c, 1, 55, 127
1, 225757, Note_on_c, 1, 73, 127
1, 226105, Note_off_c, 1, 55, 0
1, 226106, Note_on_c, 1, 68, 127
1, 226106, Note_on_c, 1, 65, 127
1, 226106, Note_on_c, 1, 58, 127
1, 226454, Note_off_c, 1, 68, 0
1, 226454, Note_off_c, 1, 65, 0
1, 226454, Note_off_c, 1, 58, 0
1, 226457, Note_on_c, 1, 51, 127
1, 226457, Note_on_c, 1, 63, 127
1, 226457, Note_on_c, 1, 67, 127
1, 226808, Note_off_c, 1, 73, 0
1, 226808, Note_off_c, 1, 51, 0
1, 226811, Note_on_c, 1, 72, 127
1, 226987, Note_on_c, 1, 50, 127
1, 227161, Note_off_c, 1, 63, 0
1, 227161, Note_off_c, 1, 67, 0
1, 227161, Note_off_c, 1, 50, 0
1, 227162, Note_off_c, 1, 72, 0
1, 227165, Note_on_c, 1, 51, 127
1, 227165, Note_on_c, 1, 70, 127
1, 227516, Note_off_c, 1, 51, 0
1, 227518, Note_on_c, 1, 65, 127
1, 227518, Note_on_c, 1, 62, 127
1, 227518, Note_on_c, 1, 55, 127
1, 227869, Note_off_c, 1, 65, 0
1, 227869, Note_off_c, 1, 62, 0
1, 227869, Note_off_c, 1, 55, 0
1, 227872, Note_on_c, 1, 48, 127
1, 227872, Note_on_c, 1, 60, 127
1, 227872, Note_on_c, 1, 63, 127
1, 228228, Note_off_c, 1, 70, 0
1, 228229, Note_off_c, 1, 48, 0
1, 228233, Note_on_c, 1, 68, 127
1, 228233, Note_on_c, 1, 50, 127
1, 228410, Note_off_c, 1, 68, 0
1, 228410, Note_off_c, 1, 50, 0
1, 228412, Note_on_c, 1, 67, 127
1, 228589, Note_off_c, 1, 67, 0
1, 228592, Note_on_c, 1, 53, 127
1, 228948, Note_off_c, 1, 60, 0
1, 228948, Note_off_c, 1, 63, 0
1, 228951, Note_on_c, 1, 56, 127
1, 229307, Note_off_c, 1, 53, 0
1, 229308, Note_off_c, 1, 56, 0
1, 229310, Note_on_c, 1, 46, 127
1, 229678, Note_on_c, 1, 58, 127
1, 230042, Note_off_c, 1, 46, 0
1, 230057, Note_off_c, 1, 58, 0
1, 230060, Note_on_c, 1, 45, 127
1, 230060, Note_on_c, 1, 66, 127
1, 230060, Note_on_c, 1, 63, 127
1, 230454, Note_on_c, 1, 60, 127
1, 230846, Note_off_c, 1, 45, 0
1, 230846, Note_off_c, 1, 66, 0
1, 230846, Note_off_c, 1, 60, 0
1, 230849, Note_on_c, 1, 53, 127
1, 230849, Note_on_c, 1, 46, 127
1, 230849, Note_on_c, 1, 65, 127
1, 231256, Note_off_c, 1, 53, 0
1, 231467, Note_on_c, 1, 51, 127
1, 231664, Note_off_c, 1, 63, 0
1, 231669, Note_off_c, 1, 51, 0
1, 231672, Note_on_c, 1, 62, 127
1, 232146, Note_on_c, 1, 58, 127
1, 232610, Note_off_c, 1, 46, 0
1, 232627, Note_off_c, 1, 62, 0
1, 232636, Note_on_c, 1, 55, 127
1, 232636, Note_on_c, 1, 39, 127
1, 232638, Note_off_c, 1, 65, 0
1, 235692, Note_off_c, 1, 58, 0
1, 235692, Note_off_c, 1, 55, 0
1, 235692, Note_off_c, 1, 39, 0
1, 235692, End_track
0, 0, End_of_file