0, 0, Header, 1, 1, 480
1, 0, Start_track
1, 0, Title_t, "Test"
1, 0, Tempo, 500000
1, 0, Instrument_name_t, "Church Organ"
1, 0, Note_on_c, 1, 71, 127
1, 0, Note_on_c, 1, 67, 127
1, 0, Note_on_c, 1, 64, 127
1, 96, Note_off_c, 1, 71, 0
1, 120, Note_on_c, 1, 69, 127
1, 168, Note_off_c, 1, 69, 0
1, 192, Note_off_c, 1, 67, 0
1, 192, Note_off_c, 1, 64, 0
1, 240, Note_on_c, 1, 72, 127
1, 240, Note_on_c, 1, 69, 127
1, 240, Note_on_c, 1, 52, 127
1, 336, Note_off_c, 1, 72, 0
1, 336, Note_off_c, 1, 69, 0
1, 360, Note_on_c, 1, 71, 127
1, 360, Note_on_c, 1, 67, 127
1, 432, Note_off_c, 1, 52, 0
1, 456, Note_off_c, 1, 71, 0
1, 456, Note_off_c, 1, 67, 0
1, 480, Note_on_c, 1, 69, 127
1, 480, Note_on_c, 1, 66, 127
1, 480, Note_on_c, 1, 57, 127
1, 576, Note_off_c, 1, 69, 0
1, 576, Note_off_c, 1, 66, 0
1, 600, Note_on_c, 1, 67, 127
1, 600, Note_on_c, 1, 64, 127
1, 672, Note_off_c, 1, 57, 0
1, 696, Note_off_c, 1, 67, 0
1, 696, Note_off_c, 1, 64, 0
1, 720, Note_on_c, 1, 66, 127
1, 720, Note_on_c, 1, 63, 127
1, 720, Note_on_c, 1, 59, 127
1, 768, Note_off_c, 1, 66, 0
1, 780, Note_on_c, 1, 69, 127
1, 816, Note_off_c, 1, 59, 0
1, 828, Note_off_c, 1, 69, 0
1, 840, Note_on_c, 1, 67, 127
1, 840, Note_on_c, 1, 47, 127
1, 888, Note_off_c, 1, 67, 0
1, 912, Note_off_c, 1, 63, 0
1, 936, Note_off_c, 1, 47, 0
1, 960, Note_on_c, 1, 64, 127
1, 960, Note_on_c, 1, 67, 127
1, 960, Note_on_c, 1, 52, 127
1, 1056, Note_off_c, 1, 52, 0
1, 1080, Note_on_c, 1, 54, 127
1, 1152, Note_off_c, 1, 64, 0
1, 1152, Note_off_c, 1, 67, 0
1, 1176, Note_off_c, 1, 54, 0
1, 1200, Note_on_c, 1, 59, 127
1, 1200, Note_on_c, 1, 64, 127
1, 1200, Note_on_c, 1, 55, 127
1, 1296, Note_off_c, 1, 55, 0
1, 1320, Note_on_c, 1, 57, 127
1, 1392, Note_off_c, 1, 59, 0
1, 1392, Note_off_c, 1, 64, 0
1, 1416, Note_off_c, 1, 57, 0
1, 1440, Note_on_c, 1, 74, 127
1, 1440, Note_on_c, 1, 67, 127
1, 1440, Note_on_c, 1, 59, 127
1, 1536, Note_off_c, 1, 74, 0
1, 1560, Note_on_c, 1, 72, 127
1, 1608, Note_off_c, 1, 72, 0
1, 1632, Note_off_c, 1, 67, 0
1, 1632, Note_off_c, 1, 59, 0
1, 1680, Note_on_c, 1, 76, 127
1, 1680, Note_on_c, 1, 67, 127
1, 1680, Note_on_c, 1, 60, 127
1, 1776, Note_off_c, 1, 76, 0
1, 1776, Note_off_c, 1, 67, 0
1, 1800, Note_on_c, 1, 74, 127
1, 1800, Note_on_c, 1, 71, 127
1, 1872, Note_off_c, 1, 60, 0
1, 1896, Note_off_c, 1, 74, 0
1, 1896, Note_off_c, 1, 71, 0
1, 1920, Note_on_c, 1, 72, 127
1, 1920, Note_on_c, 1, 69, 127
1, 1920, Note_on_c, 1, 48, 127
1, 2016, Note_off_c, 1, 72, 0
1, 2016, Note_off_c, 1, 69, 0
1, 2040, Note_on_c, 1, 71, 127
1, 2040, Note_on_c, 1, 67, 127
1, 2112, Note_off_c, 1, 48, 0
1, 2136, Note_off_c, 1, 71, 0
1, 2136, Note_off_c, 1, 67, 0
1, 2160, Note_on_c, 1, 69, 127
1, 2160, Note_on_c, 1, 66, 127
1, 2160, Note_on_c, 1, 50, 127
1, 2208, Note_off_c, 1, 69, 0
1, 2220, Note_on_c, 1, 72, 127
1, 2256, Note_off_c, 1, 50, 0
1, 2268, Note_off_c, 1, 72, 0
1, 2280, Note_on_c, 1, 71, 127
1, 2280, Note_on_c, 1, 38, 127
1, 2328, Note_off_c, 1, 71, 0
1, 2352, Note_off_c, 1, 66, 0
1, 2376, Note_off_c, 1, 38, 0
1, 2400, Note_on_c, 1, 67, 127
1, 2400, Note_on_c, 1, 43, 127
1, 2544, Note_off_c, 1, 67, 0
1, 2580, Note_on_c, 1, 71, 127
1, 2592, Note_off_c, 1, 43, 0
1, 2628, Note_off_c, 1, 71, 0
1, 2640, Note_on_c, 1, 76, 127
1, 2760, Note_on_c, 1, 71, 127
1, 2808, Note_off_c, 1, 71, 0
1, 2820, Note_on_c, 1, 55, 127
1, 2868, Note_off_c, 1, 55, 0
1, 2880, Note_on_c, 1, 69, 127
1, 2880, Note_on_c, 1, 54, 127
1, 2976, Note_off_c, 1, 76, 0
1, 2976, Note_off_c, 1, 54, 0
1, 3000, Note_on_c, 1, 74, 127
1, 3048, Note_off_c, 1, 74, 0
1, 3060, Note_on_c, 1, 73, 127
1, 3108, Note_off_c, 1, 73, 0
1, 3168, Note_off_c, 1, 69, 0
1, 3240, Note_on_c, 1, 71, 127
1, 3240, Note_on_c, 1, 76, 127
1, 3240, Note_on_c, 1, 52, 127
1, 3288, Note_off_c, 1, 71, 0
1, 3300, Note_on_c, 1, 73, 127
1, 3336, Note_off_c, 1, 76, 0
1, 3336, Note_off_c, 1, 52, 0
1, 3348, Note_off_c, 1, 73, 0
1, 3360, Note_on_c, 1, 74, 127
1, 3360, Note_on_c, 1, 78, 127
1, 3360, Note_on_c, 1, 50, 127
1, 3456, Note_off_c, 1, 74, 0
1, 3456, Note_off_c, 1, 50, 0
1, 3480, Note_on_c, 1, 73, 127
1, 3480, Note_on_c, 1, 52, 127
1, 3528, Note_off_c, 1, 52, 0
1, 3540, Note_on_c, 1, 54, 127
1, 3576, Note_off_c, 1, 73, 0
1, 3588, Note_off_c, 1, 54, 0
1, 3600, Note_on_c, 1, 71, 127
1, 3600, Note_on_c, 1, 55, 127
1, 3696, Note_off_c, 1, 78, 0
1, 3696, Note_off_c, 1, 55, 0
1, 3720, Note_on_c, 1, 76, 127
1, 3720, Note_on_c, 1, 57, 127
1, 3768, Note_off_c, 1, 76, 0
1, 3780, Note_on_c, 1, 75, 127
1, 3816, Note_off_c, 1, 57, 0
1, 3828, Note_off_c, 1, 75, 0
1, 3888, Note_off_c, 1, 71, 0
1, 3960, Note_on_c, 1, 73, 127
1, 3960, Note_on_c, 1, 78, 127
1, 3960, Note_on_c, 1, 54, 127
1, 4008, Note_off_c, 1, 73, 0
1, 4020, Note_on_c, 1, 75, 127
1, 4056, Note_off_c, 1, 78, 0
1, 4056, Note_off_c, 1, 54, 0
1, 4068, Note_off_c, 1, 75, 0
1, 4080, Note_on_c, 1, 79, 127
1, 4080, Note_on_c, 1, 76, 127
1, 4080, Note_on_c, 1, 52, 127
1, 4128, Note_off_c, 1, 79, 0
1, 4140, Note_on_c, 1, 78, 127
1, 4176, Note_off_c, 1, 76, 0
1, 4176, Note_off_c, 1, 52, 0
1, 4188, Note_off_c, 1, 78, 0
1, 4200, Note_on_c, 1, 76, 127
1, 4200, Note_on_c, 1, 73, 127
1, 4200, Note_on_c, 1, 57, 127
1, 4248, Note_off_c, 1, 76, 0
1, 4260, Note_on_c, 1, 79, 127
1, 4296, Note_off_c, 1, 73, 0
1, 4296, Note_off_c, 1, 57, 0
1, 4308, Note_off_c, 1, 79, 0
1, 4320, Note_on_c, 1, 78, 127
1, 4320, Note_on_c, 1, 74, 127
1, 4320, Note_on_c, 1, 50, 127
1, 4368, Note_off_c, 1, 78, 0
1, 4380, Note_on_c, 1, 79, 127
1, 4416, Note_off_c, 1, 50, 0
1, 4428, Note_off_c, 1, 79, 0
1, 4440, Note_on_c, 1, 76, 127
1, 4440, Note_on_c, 1, 47, 127
1, 4488, Note_off_c, 1, 76, 0
1, 4512, Note_off_c, 1, 74, 0
1, 4536, Note_off_c, 1, 47, 0
1, 4560, Note_on_c, 1, 79, 127
1, 4560, Note_on_c, 1, 76, 127
1, 4560, Note_on_c, 1, 52, 127
1, 4656, Note_off_c, 1, 79, 0
1, 4656, Note_off_c, 1, 76, 0
1, 4680, Note_on_c, 1, 74, 127
1, 4680, Note_on_c, 1, 78, 127
1, 4752, Note_off_c, 1, 52, 0
1, 4776, Note_off_c, 1, 74, 0
1, 4776, Note_off_c, 1, 78, 0
1, 4800, Note_on_c, 1, 76, 127
1, 4800, Note_on_c, 1, 73, 127
1, 4800, Note_on_c, 1, 40, 127
1, 4896, Note_off_c, 1, 76, 0
1, 4896, Note_off_c, 1, 73, 0
1, 4920, Note_on_c, 1, 71, 127
1, 4920, Note_on_c, 1, 74, 127
1, 4992, Note_off_c, 1, 40, 0
1, 5016, Note_off_c, 1, 71, 0
1, 5016, Note_off_c, 1, 74, 0
1, 5040, Note_on_c, 1, 74, 127
1, 5040, Note_on_c, 1, 70, 127
1, 5040, Note_on_c, 1, 42, 127
1, 5055, Note_off_c, 1, 74, 0
1, 5055, Note_on_c, 1, 73, 127
1, 5070, Note_off_c, 1, 73, 0
1, 5100, Note_on_c, 1, 71, 127
1, 5148, Note_off_c, 1, 71, 0
1, 5232, Note_off_c, 1, 70, 0
1, 5232, Note_off_c, 1, 42, 0
1, 5280, Note_on_c, 1, 71, 127
1, 5280, Note_on_c, 1, 47, 127
1, 5400, Note_on_c, 1, 66, 127
1, 5496, Note_off_c, 1, 66, 0
1, 5520, Note_on_c, 1, 64, 127
1, 5520, Note_on_c, 1, 54, 127
1, 5532, Note_off_c, 1, 64, 0
1, 5535, Note_on_c, 1, 63, 127
1, 5547, Note_off_c, 1, 63, 0
1, 5664, Note_off_c, 1, 71, 0
1, 5664, Note_off_c, 1, 47, 0
1, 5712, Note_off_c, 1, 54, 0
1, 5760, Note_on_c, 1, 71, 127
1, 5760, Note_on_c, 1, 67, 127
1, 5760, Note_on_c, 1, 64, 127
1, 5856, Note_off_c, 1, 71, 0
1, 5880, Note_on_c, 1, 69, 127
1, 5928, Note_off_c, 1, 69, 0
1, 5952, Note_off_c, 1, 67, 0
1, 5952, Note_off_c, 1, 64, 0
1, 6000, Note_on_c, 1, 72, 127
1, 6000, Note_on_c, 1, 69, 127
1, 6000, Note_on_c, 1, 52, 127
1, 6096, Note_off_c, 1, 72, 0
1, 6096, Note_off_c, 1, 69, 0
1, 6120, Note_on_c, 1, 71, 127
1, 6120, Note_on_c, 1, 67, 127
1, 6192, Note_off_c, 1, 52, 0
1, 6216, Note_off_c, 1, 71, 0
1, 6216, Note_off_c, 1, 67, 0
1, 6240, Note_on_c, 1, 69, 127
1, 6240, Note_on_c, 1, 66, 127
1, 6240, Note_on_c, 1, 57, 127
1, 6336, Note_off_c, 1, 69, 0
1, 6336, Note_off_c, 1, 66, 0
1, 6360, Note_on_c, 1, 67, 127
1, 6360, Note_on_c, 1, 64, 127
1, 6432, Note_off_c, 1, 57, 0
1, 6456, Note_off_c, 1, 67, 0
1, 6456, Note_off_c, 1, 64, 0
1, 6480, Note_on_c, 1, 66, 127
1, 6480, Note_on_c, 1, 63, 127
1, 6480, Note_on_c, 1, 59, 127
1, 6528, Note_off_c, 1, 66, 0
1, 6540, Note_on_c, 1, 69, 127
1, 6576, Note_off_c, 1, 59, 0
1, 6588, Note_off_c, 1, 69, 0
1, 6600, Note_on_c, 1, 67, 127
1, 6600, Note_on_c, 1, 47, 127
1, 6648, Note_off_c, 1, 67, 0
1, 6672, Note_off_c, 1, 63, 0
1, 6696, Note_off_c, 1, 47, 0
1, 6720, Note_on_c, 1, 64, 127
1, 6720, Note_on_c, 1, 67, 127
1, 6720, Note_on_c, 1, 52, 127
1, 6816, Note_off_c, 1, 52, 0
1, 6840, Note_on_c, 1, 54, 127
1, 6912, Note_off_c, 1, 64, 0
1, 6912, Note_off_c, 1, 67, 0
1, 6936, Note_off_c, 1, 54, 0
1, 6960, Note_on_c, 1, 59, 127
1, 6960, Note_on_c, 1, 64, 127
1, 6960, Note_on_c, 1, 55, 127
1, 7056, Note_off_c, 1, 55, 0
1, 7080, Note_on_c, 1, 57, 127
1, 7152, Note_off_c, 1, 59, 0
1, 7152, Note_off_c, 1, 64, 0
1, 7176, Note_off_c, 1, 57, 0
1, 7200, Note_on_c, 1, 74, 127
1, 7200, Note_on_c, 1, 67, 127
1, 7200, Note_on_c, 1, 59, 127
1, 7296, Note_off_c, 1, 74, 0
1, 7320, Note_on_c, 1, 72, 127
1, 7368, Note_off_c, 1, 72, 0
1, 7392, Note_off_c, 1, 67, 0
1, 7392, Note_off_c, 1, 59, 0
1, 7440, Note_on_c, 1, 76, 127
1, 7440, Note_on_c, 1, 67, 127
1, 7440, Note_on_c, 1, 60, 127
1, 7536, Note_off_c, 1, 76, 0
1, 7536, Note_off_c, 1, 67, 0
1, 7560, Note_on_c, 1, 74, 127
1, 7560, Note_on_c, 1, 71, 127
1, 7632, Note_off_c, 1, 60, 0
1, 7656, Note_off_c, 1, 74, 0
1, 7656, Note_off_c, 1, 71, 0
1, 7680, Note_on_c, 1, 72, 127
1, 7680, Note_on_c, 1, 69, 127
1, 7680, Note_on_c, 1, 48, 127
1, 7776, Note_off_c, 1, 72, 0
1, 7776, Note_off_c, 1, 69, 0
1, 7800, Note_on_c, 1, 71, 127
1, 7800, Note_on_c, 1, 67, 127
1, 7872, Note_off_c, 1, 48, 0
1, 7896, Note_off_c, 1, 71, 0
1, 7896, Note_off_c, 1, 67, 0
1, 7920, Note_on_c, 1, 69, 127
1, 7920, Note_on_c, 1, 66, 127
1, 7920, Note_on_c, 1, 50, 127
1, 7968, Note_off_c, 1, 69, 0
1, 7980, Note_on_c, 1, 72, 127
1, 8016, Note_off_c, 1, 50, 0
1, 8028, Note_off_c, 1, 72, 0
1, 8040, Note_on_c, 1, 71, 127
1, 8040, Note_on_c, 1, 38, 127
1, 8088, Note_off_c, 1, 71, 0
1, 8112, Note_off_c, 1, 66, 0
1, 8136, Note_off_c, 1, 38, 0
1, 8160, Note_on_c, 1, 67, 127
1, 8160, Note_on_c, 1, 43, 127
1, 8304, Note_off_c, 1, 67, 0
1, 8340, Note_on_c, 1, 71, 127
1, 8352, Note_off_c, 1, 43, 0
1, 8388, Note_off_c, 1, 71, 0
1, 8400, Note_on_c, 1, 76, 127
1, 8520, Note_on_c, 1, 71, 127
1, 8568, Note_off_c, 1, 71, 0
1, 8580, Note_on_c, 1, 55, 127
1, 8628, Note_off_c, 1, 55, 0
1, 8640, Note_on_c, 1, 69, 127
1, 8640, Note_on_c, 1, 54, 127
1, 8736, Note_off_c, 1, 76, 0
1, 8736, Note_off_c, 1, 54, 0
1, 8760, Note_on_c, 1, 74, 127
1, 8808, Note_off_c, 1, 74, 0
1, 8820, Note_on_c, 1, 73, 127
1, 8868, Note_off_c, 1, 73, 0
1, 8928, Note_off_c, 1, 69, 0
1, 9000, Note_on_c, 1, 71, 127
1, 9000, Note_on_c, 1, 76, 127
1, 9000, Note_on_c, 1, 52, 127
1, 9048, Note_off_c, 1, 71, 0
1, 9060, Note_on_c, 1, 73, 127
1, 9096, Note_off_c, 1, 76, 0
1, 9096, Note_off_c, 1, 52, 0
1, 9108, Note_off_c, 1, 73, 0
1, 9120, Note_on_c, 1, 74, 127
1, 9120, Note_on_c, 1, 78, 127
1, 9120, Note_on_c, 1, 50, 127
1, 9216, Note_off_c, 1, 74, 0
1, 9216, Note_off_c, 1, 50, 0
1, 9240, Note_on_c, 1, 73, 127
1, 9240, Note_on_c, 1, 52, 127
1, 9288, Note_off_c, 1, 52, 0
1, 9300, Note_on_c, 1, 54, 127
1, 9336, Note_off_c, 1, 73, 0
1, 9348, Note_off_c, 1, 54, 0
1, 9360, Note_on_c, 1, 71, 127
1, 9360, Note_on_c, 1, 55, 127
1, 9456, Note_off_c, 1, 78, 0
1, 9456, Note_off_c, 1, 55, 0
1, 9480, Note_on_c, 1, 76, 127
1, 9480, Note_on_c, 1, 57, 127
1, 9528, Note_off_c, 1, 76, 0
1, 9540, Note_on_c, 1, 75, 127
1, 9576, Note_off_c, 1, 57, 0
1, 9588, Note_off_c, 1, 75, 0
1, 9648, Note_off_c, 1, 71, 0
1, 9720, Note_on_c, 1, 73, 127
1, 9720, Note_on_c, 1, 78, 127
1, 9720, Note_on_c, 1, 54, 127
1, 9768, Note_off_c, 1, 73, 0
1, 9780, Note_on_c, 1, 75, 127
1, 9816, Note_off_c, 1, 78, 0
1, 9816, Note_off_c, 1, 54, 0
1, 9828, Note_off_c, 1, 75, 0
1, 9840, Note_on_c, 1, 79, 127
1, 9840, Note_on_c, 1, 76, 127
1, 9840, Note_on_c, 1, 52, 127
1, 9888, Note_off_c, 1, 79, 0
1, 9900, Note_on_c, 1, 78, 127
1, 9936, Note_off_c, 1, 76, 0
1, 9936, Note_off_c, 1, 52, 0
1, 9948, Note_off_c, 1, 78, 0
1, 9960, Note_on_c, 1, 76, 127
1, 9960, Note_on_c, 1, 73, 127
1, 9960, Note_on_c, 1, 57, 127
1, 10008, Note_off_c, 1, 76, 0
1, 10020, Note_on_c, 1, 79, 127
1, 10056, Note_off_c, 1, 73, 0
1, 10056, Note_off_c, 1, 57, 0
1, 10068, Note_off_c, 1, 79, 0
1, 10080, Note_on_c, 1, 78, 127
1, 10080, Note_on_c, 1, 74, 127
1, 10080, Note_on_c, 1, 50, 127
1, 10128, Note_off_c, 1, 78, 0
1, 10140, Note_on_c, 1, 79, 127
1, 10176, Note_off_c, 1, 50, 0
1, 10188, Note_off_c, 1, 79, 0
1, 10200, Note_on_c, 1, 76, 127
1, 10200, Note_on_c, 1, 47, 127
1, 10248, Note_off_c, 1, 76, 0
1, 10272, Note_off_c, 1, 74, 0
1, 10296, Note_off_c, 1, 47, 0
1, 10320, Note_on_c, 1, 79, 127
1, 10320, Note_on_c, 1, 76, 127
1, 10320, Note_on_c, 1, 52, 127
1, 10416, Note_off_c, 1, 79, 0
1, 10416, Note_off_c, 1, 76, 0
1, 10440, Note_on_c, 1, 74, 127
1, 10440, Note_on_c, 1, 78, 127
1, 10512, Note_off_c, 1, 52, 0
1, 10536, Note_off_c, 1, 74, 0
1, 10536, Note_off_c, 1, 78, 0
1, 10560, Note_on_c, 1, 76, 127
1, 10560, Note_on_c, 1, 73, 127
1, 10560, Note_on_c, 1, 40, 127
1, 10656, Note_off_c, 1, 76, 0
1, 10656, Note_off_c, 1, 73, 0
1, 10680, Note_on_c, 1, 71, 127
1, 10680, Note_on_c, 1, 74, 127
1, 10752, Note_off_c, 1, 40, 0
1, 10776, Note_off_c, 1, 71, 0
1, 10776, Note_off_c, 1, 74, 0
1, 10800, Note_on_c, 1, 74, 127
1, 10800, Note_on_c, 1, 70, 127
1, 10800, Note_on_c, 1, 42, 127
1, 10815, Note_off_c, 1, 74, 0
1, 10815, Note_on_c, 1, 73, 127
1, 10830, Note_off_c, 1, 73, 0
1, 10860, Note_on_c, 1, 71, 127
1, 10908, Note_off_c, 1, 71, 0
1, 10992, Note_off_c, 1, 70, 0
1, 10992, Note_off_c, 1, 42, 0
1, 11040, Note_on_c, 1, 71, 127
1, 11040, Note_on_c, 1, 47, 127
1, 11160, Note_on_c, 1, 66, 127
1, 11256, Note_off_c, 1, 66, 0
1, 11280, Note_on_c, 1, 64, 127
1, 11280, Note_on_c, 1, 54, 127
1, 11292, Note_off_c, 1, 64, 0
1, 11295, Note_on_c, 1, 63, 127
1, 11307, Note_off_c, 1, 63, 0
1, 11424, Note_off_c, 1, 71, 0
1, 11424, Note_off_c, 1, 47, 0
1, 11472, Note_off_c, 1, 54, 0
1, 11520, Note_on_c, 1, 78, 127
1, 11520, Note_on_c, 1, 75, 127
1, 11520, Note_on_c, 1, 59, 127
1, 11568, Note_off_c, 1, 78, 0
1, 11580, Note_on_c, 1, 79, 127
1, 11616, Note_off_c, 1, 59, 0
1, 11628, Note_off_c, 1, 79, 0
1, 11640, Note_on_c, 1, 81, 127
1, 11640, Note_on_c, 1, 47, 127
1, 11688, Note_off_c, 1, 81, 0
1, 11712, Note_off_c, 1, 75, 0
1, 11736, Note_off_c, 1, 47, 0
1, 11760, Note_on_c, 1, 78, 127
1, 11856, Note_off_c, 1, 78, 0
1, 11880, Note_on_c, 1, 75, 127
1, 11880, Note_on_c, 1, 71, 127
1, 11880, Note_on_c, 1, 69, 127
1, 11976, Note_off_c, 1, 75, 0
1, 11976, Note_off_c, 1, 71, 0
1, 11976, Note_off_c, 1, 69, 0
1, 12000, Note_on_c, 1, 76, 127
1, 12000, Note_on_c, 1, 73, 127
1, 12000, Note_on_c, 1, 67, 127
1, 12096, Note_off_c, 1, 76, 0
1, 12096, Note_off_c, 1, 73, 0
1, 12096, Note_off_c, 1, 67, 0
1, 12120, Note_on_c, 1, 75, 127
1, 12120, Note_on_c, 1, 78, 127
1, 12120, Note_on_c, 1, 66, 127
1, 12216, Note_off_c, 1, 75, 0
1, 12216, Note_off_c, 1, 78, 0
1, 12216, Note_off_c, 1, 66, 0
1, 12240, Note_on_c, 1, 79, 127
1, 12240, Note_on_c, 1, 76, 127
1, 12240, Note_on_c, 1, 64, 127
1, 12288, Note_off_c, 1, 79, 0
1, 12288, Note_off_c, 1, 64, 0
1, 12300, Note_on_c, 1, 81, 127
1, 12300, Note_on_c, 1, 66, 127
1, 12348, Note_off_c, 1, 81, 0
1, 12348, Note_off_c, 1, 66, 0
1, 12360, Note_on_c, 1, 83, 127
1, 12360, Note_on_c, 1, 67, 127
1, 12408, Note_off_c, 1, 83, 0
1, 12408, Note_off_c, 1, 67, 0
1, 12432, Note_off_c, 1, 76, 0
1, 12480, Note_on_c, 1, 76, 127
1, 12480, Note_on_c, 1, 79, 127
1, 12480, Note_on_c, 1, 64, 127
1, 12576, Note_off_c, 1, 64, 0
1, 12600, Note_on_c, 1, 62, 127
1, 12696, Note_off_c, 1, 62, 0
1, 12720, Note_on_c, 1, 61, 127
1, 12816, Note_off_c, 1, 61, 0
1, 12840, Note_on_c, 1, 59, 127
1, 12864, Note_off_c, 1, 76, 0
1, 12936, Note_off_c, 1, 59, 0
1, 12960, Note_on_c, 1, 73, 127
1, 12960, Note_on_c, 1, 57, 127
1, 13008, Note_off_c, 1, 79, 0
1, 13008, Note_off_c, 1, 57, 0
1, 13020, Note_on_c, 1, 78, 127
1, 13068, Note_off_c, 1, 78, 0
1, 13152, Note_off_c, 1, 73, 0
1, 13200, Note_on_c, 1, 79, 127
1, 13200, Note_on_c, 1, 57, 127
1, 13296, Note_off_c, 1, 79, 0
1, 13296, Note_off_c, 1, 57, 0
1, 13320, Note_on_c, 1, 83, 127
1, 13320, Note_on_c, 1, 73, 127
1, 13320, Note_on_c, 1, 55, 127
1, 13320, Note_on_c, 1, 57, 127
1, 13416, Note_off_c, 1, 83, 0
1, 13416, Note_off_c, 1, 73, 0
1, 13416, Note_off_c, 1, 55, 0
1, 13416, Note_off_c, 1, 57, 0
1, 13440, Note_on_c, 1, 74, 127
1, 13440, Note_on_c, 1, 81, 127
1, 13440, Note_on_c, 1, 54, 127
1, 13440, Note_on_c, 1, 59, 127
1, 13536, Note_off_c, 1, 74, 0
1, 13536, Note_off_c, 1, 81, 0
1, 13536, Note_off_c, 1, 54, 0
1, 13536, Note_off_c, 1, 59, 0
1, 13560, Note_on_c, 1, 76, 127
1, 13560, Note_on_c, 1, 79, 127
1, 13560, Note_on_c, 1, 52, 127
1, 13560, Note_on_c, 1, 61, 127
1, 13656, Note_off_c, 1, 76, 0
1, 13656, Note_off_c, 1, 79, 0
1, 13656, Note_off_c, 1, 52, 0
1, 13656, Note_off_c, 1, 61, 0
1, 13680, Note_on_c, 1, 78, 127
1, 13680, Note_on_c, 1, 69, 127
1, 13680, Note_on_c, 1, 50, 127
1, 13680, Note_on_c, 1, 62, 127
1, 13728, Note_off_c, 1, 78, 0
1, 13728, Note_off_c, 1, 50, 0
1, 13740, Note_on_c, 1, 76, 127
1, 13740, Note_on_c, 1, 52, 127
1, 13788, Note_off_c, 1, 76, 0
1, 13788, Note_off_c, 1, 52, 0
1, 13800, Note_on_c, 1, 74, 127
1, 13800, Note_on_c, 1, 54, 127
1, 13848, Note_off_c, 1, 74, 0
1, 13848, Note_off_c, 1, 54, 0
1, 13872, Note_off_c, 1, 69, 0
1, 13872, Note_off_c, 1, 62, 0
1, 13920, Note_on_c, 1, 69, 127
1, 13920, Note_on_c, 1, 78, 127
1, 13920, Note_on_c, 1, 50, 127
1, 14016, Note_off_c, 1, 50, 0
1, 14040, Note_on_c, 1, 48, 127
1, 14136, Note_off_c, 1, 48, 0
1, 14160, Note_on_c, 1, 47, 127
1, 14256, Note_off_c, 1, 47, 0
1, 14280, Note_on_c, 1, 45, 127
1, 14304, Note_off_c, 1, 69, 0
1, 14376, Note_off_c, 1, 45, 0
1, 14400, Note_on_c, 1, 71, 127
1, 14400, Note_on_c, 1, 44, 127
1, 14496, Note_off_c, 1, 78, 0
1, 14496, Note_off_c, 1, 44, 0
1, 14520, Note_on_c, 1, 77, 127
1, 14568, Note_off_c, 1, 77, 0
1, 14580, Note_on_c, 1, 76, 127
1, 14592, Note_off_c, 1, 71, 0
1, 14628, Note_off_c, 1, 76, 0
1, 14640, Note_on_c, 1, 77, 127
1, 14640, Note_on_c, 1, 44, 127
1, 14640, Note_on_c, 1, 50, 127
1, 14736, Note_off_c, 1, 44, 0
1, 14736, Note_off_c, 1, 50, 0
1, 14753, Note_off_c, 1, 77, 0
1, 14760, Note_on_c, 1, 83, 127
1, 14760, Note_on_c, 1, 44, 127
1, 14760, Note_on_c, 1, 50, 127
1, 14856, Note_off_c, 1, 44, 0
1, 14856, Note_off_c, 1, 50, 0
1, 14873, Note_off_c, 1, 83, 0
1, 14880, Note_on_c, 1, 81, 127
1, 14880, Note_on_c, 1, 50, 127
1, 14880, Note_on_c, 1, 44, 127
1, 14904, Note_off_c, 1, 81, 0
1, 14910, Note_on_c, 1, 80, 127
1, 14976, Note_off_c, 1, 50, 0
1, 14976, Note_off_c, 1, 44, 0
1, 14982, Note_off_c, 1, 80, 0
1, 15000, Note_on_c, 1, 77, 127
1, 15000, Note_on_c, 1, 52, 127
1, 15000, Note_on_c, 1, 44, 127
1, 15024, Note_off_c, 1, 77, 0
1, 15030, Note_on_c, 1, 76, 127
1, 15096, Note_off_c, 1, 52, 0
1, 15096, Note_off_c, 1, 44, 0
1, 15102, Note_off_c, 1, 76, 0
1, 15120, Note_on_c, 1, 74, 127
1, 15120, Note_on_c, 1, 71, 127
1, 15120, Note_on_c, 1, 44, 127
1, 15120, Note_on_c, 1, 53, 127
1, 15168, Note_off_c, 1, 74, 0
1, 15180, Note_on_c, 1, 77, 127
1, 15216, Note_off_c, 1, 44, 0
1, 15216, Note_off_c, 1, 53, 0
1, 15228, Note_off_c, 1, 77, 0
1, 15240, Note_on_c, 1, 76, 127
1, 15240, Note_on_c, 1, 49, 127
1, 15312, Note_off_c, 1, 71, 0
1, 15336, Note_off_c, 1, 76, 0
1, 15336, Note_off_c, 1, 49, 0
1, 15360, Note_on_c, 1, 77, 127
1, 15360, Note_on_c, 1, 44, 127
1, 15360, Note_on_c, 1, 50, 127
1, 15456, Note_off_c, 1, 44, 0
1, 15456, Note_off_c, 1, 50, 0
1, 15473, Note_off_c, 1, 77, 0
1, 15480, Note_on_c, 1, 76, 127
1, 15480, Note_on_c, 1, 44, 127
1, 15480, Note_on_c, 1, 52, 127
1, 15492, Note_off_c, 1, 76, 0
1, 15495, Note_on_c, 1, 74, 127
1, 15507, Note_off_c, 1, 74, 0
1, 15540, Note_on_c, 1, 73, 127
1, 15576, Note_off_c, 1, 44, 0
1, 15576, Note_off_c, 1, 52, 0
1, 15588, Note_off_c, 1, 73, 0
1, 15600, Note_on_c, 1, 74, 127
1, 15600, Note_on_c, 1, 53, 127
1, 15600, Note_on_c, 1, 44, 127
1, 15696, Note_off_c, 1, 74, 0
1, 15696, Note_off_c, 1, 53, 0
1, 15696, Note_off_c, 1, 44, 0
1, 15720, Note_on_c, 1, 74, 127
1, 15720, Note_on_c, 1, 71, 127
1, 15720, Note_on_c, 1, 44, 127
1, 15744, Note_off_c, 1, 74, 0
1, 15750, Note_on_c, 1, 76, 127
1, 15774, Note_off_c, 1, 76, 0
1, 15780, Note_on_c, 1, 77, 127
1, 15816, Note_off_c, 1, 71, 0
1, 15816, Note_off_c, 1, 44, 0
1, 15828, Note_off_c, 1, 77, 0
1, 15840, Note_on_c, 1, 76, 127
1, 15840, Note_on_c, 1, 72, 127
1, 15840, Note_on_c, 1, 45, 127
1, 15936, Note_off_c, 1, 76, 0
1, 15936, Note_off_c, 1, 45, 0
1, 15960, Note_on_c, 1, 74, 127
1, 15960, Note_on_c, 1, 57, 127
1, 16008, Note_off_c, 1, 74, 0
1, 16032, Note_off_c, 1, 72, 0
1, 16056, Note_off_c, 1, 57, 0
1, 16080, Note_on_c, 1, 74, 127
1, 16080, Note_on_c, 1, 77, 127
1, 16080, Note_on_c, 1, 50, 127
1, 16176, Note_off_c, 1, 74, 0
1, 16176, Note_off_c, 1, 77, 0
1, 16176, Note_off_c, 1, 50, 0
1, 16200, Note_on_c, 1, 72, 127
1, 16200, Note_on_c, 1, 76, 127
1, 16200, Note_on_c, 1, 52, 127
1, 16296, Note_off_c, 1, 72, 0
1, 16296, Note_off_c, 1, 76, 0
1, 16296, Note_off_c, 1, 52, 0
1, 16320, Note_on_c, 1, 71, 127
1, 16320, Note_on_c, 1, 74, 127
1, 16320, Note_on_c, 1, 53, 127
1, 16416, Note_off_c, 1, 71, 0
1, 16416, Note_off_c, 1, 74, 0
1, 16416, Note_off_c, 1, 53, 0
1, 16440, Note_on_c, 1, 69, 127
1, 16440, Note_on_c, 1, 72, 127
1, 16440, Note_on_c, 1, 50, 127
1, 16536, Note_off_c, 1, 69, 0
1, 16536, Note_off_c, 1, 72, 0
1, 16536, Note_off_c, 1, 50, 0
1, 16560, Note_on_c, 1, 71, 127
1, 16560, Note_on_c, 1, 68, 127
1, 16560, Note_on_c, 1, 52, 127
1, 16608, Note_off_c, 1, 71, 0
1, 16620, Note_on_c, 1, 74, 127
1, 16656, Note_off_c, 1, 52, 0
1, 16668, Note_off_c, 1, 74, 0
1, 16680, Note_on_c, 1, 72, 127
1, 16680, Note_on_c, 1, 40, 127
1, 16728, Note_off_c, 1, 72, 0
1, 16752, Note_off_c, 1, 68, 0
1, 16776, Note_off_c, 1, 40, 0
1, 16800, Note_on_c, 1, 69, 127
1, 16800, Note_on_c, 1, 45, 127
1, 16896, Note_off_c, 1, 45, 0
1, 16920, Note_on_c, 1, 43, 127
1, 17016, Note_off_c, 1, 43, 0
1, 17040, Note_on_c, 1, 42, 127
1, 17136, Note_off_c, 1, 42, 0
1, 17160, Note_on_c, 1, 40, 127
1, 17256, Note_off_c, 1, 40, 0
1, 17280, Note_on_c, 1, 66, 127
1, 17280, Note_on_c, 1, 38, 127
1, 17328, Note_off_c, 1, 69, 0
1, 17340, Note_on_c, 1, 67, 127
1, 17376, Note_off_c, 1, 66, 0
1, 17388, Note_off_c, 1, 67, 0
1, 17472, Note_off_c, 1, 38, 0
1, 17520, Note_on_c, 1, 69, 127
1, 17568, Note_off_c, 1, 69, 0
1, 17580, Note_on_c, 1, 71, 127
1, 17628, Note_off_c, 1, 71, 0
1, 17640, Note_on_c, 1, 66, 127
1, 17640, Note_on_c, 1, 72, 127
1, 17640, Note_on_c, 1, 50, 127
1, 17736, Note_off_c, 1, 66, 0
1, 17736, Note_off_c, 1, 72, 0
1, 17736, Note_off_c, 1, 50, 0
1, 17760, Note_on_c, 1, 67, 127
1, 17760, Note_on_c, 1, 72, 127
1, 17760, Note_on_c, 1, 52, 127
1, 17856, Note_off_c, 1, 67, 0
1, 17856, Note_off_c, 1, 52, 0
1, 17880, Note_on_c, 1, 69, 127
1, 17880, Note_on_c, 1, 54, 127
1, 17976, Note_off_c, 1, 69, 0
1, 17976, Note_off_c, 1, 54, 0
1, 18000, Note_on_c, 1, 62, 127
1, 18000, Note_on_c, 1, 55, 127
1, 18096, Note_off_c, 1, 72, 0
1, 18096, Note_off_c, 1, 55, 0
1, 18120, Note_on_c, 1, 71, 127
1, 18120, Note_on_c, 1, 57, 127
1, 18168, Note_off_c, 1, 71, 0
1, 18192, Note_off_c, 1, 62, 0
1, 18216, Note_off_c, 1, 57, 0
1, 18240, Note_on_c, 1, 71, 127
1, 18240, Note_on_c, 1, 55, 127
1, 18288, Note_off_c, 1, 71, 0
1, 18300, Note_on_c, 1, 73, 127
1, 18336, Note_off_c, 1, 55, 0
1, 18348, Note_off_c, 1, 73, 0
1, 18360, Note_on_c, 1, 69, 127
1, 18360, Note_on_c, 1, 74, 127
1, 18360, Note_on_c, 1, 54, 127
1, 18456, Note_off_c, 1, 69, 0
1, 18456, Note_off_c, 1, 74, 0
1, 18456, Note_off_c, 1, 54, 0
1, 18480, Note_on_c, 1, 68, 127
1, 18480, Note_on_c, 1, 74, 127
1, 18480, Note_on_c, 1, 52, 127
1, 18576, Note_off_c, 1, 68, 0
1, 18576, Note_off_c, 1, 52, 0
1, 18600, Note_on_c, 1, 69, 127
1, 18600, Note_on_c, 1, 54, 127
1, 18648, Note_off_c, 1, 69, 0
1, 18648, Note_off_c, 1, 54, 0
1, 18660, Note_on_c, 1, 71, 127
1, 18660, Note_on_c, 1, 56, 127
1, 18672, Note_off_c, 1, 74, 0
1, 18708, Note_off_c, 1, 71, 0
1, 18708, Note_off_c, 1, 56, 0
1, 18720, Note_on_c, 1, 73, 127
1, 18720, Note_on_c, 1, 64, 127
1, 18720, Note_on_c, 1, 57, 127
1, 18768, Note_off_c, 1, 73, 0
1, 18780, Note_on_c, 1, 71, 127
1, 18816, Note_off_c, 1, 57, 0
1, 18828, Note_off_c, 1, 71, 0
1, 18840, Note_on_c, 1, 69, 127
1, 18840, Note_on_c, 1, 59, 127
1, 18888, Note_off_c, 1, 69, 0
1, 18912, Note_off_c, 1, 64, 0
1, 18936, Note_off_c, 1, 59, 0
1, 18960, Note_on_c, 1, 73, 127
1, 18960, Note_on_c, 1, 57, 127
1, 19008, Note_off_c, 1, 73, 0
1, 19020, Note_on_c, 1, 75, 127
1, 19056, Note_off_c, 1, 57, 0
1, 19068, Note_off_c, 1, 75, 0
1, 19080, Note_on_c, 1, 76, 127
1, 19080, Note_on_c, 1, 71, 127
1, 19080, Note_on_c, 1, 55, 127
1, 19176, Note_off_c, 1, 76, 0
1, 19176, Note_off_c, 1, 71, 0
1, 19176, Note_off_c, 1, 55, 0
1, 19200, Note_on_c, 1, 70, 127
1, 19200, Note_on_c, 1, 76, 127
1, 19200, Note_on_c, 1, 54, 127
1, 19296, Note_off_c, 1, 70, 0
1, 19296, Note_off_c, 1, 54, 0
1, 19320, Note_on_c, 1, 71, 127
1, 19320, Note_on_c, 1, 56, 127
1, 19368, Note_off_c, 1, 71, 0
1, 19368, Note_off_c, 1, 56, 0
1, 19380, Note_on_c, 1, 73, 127
1, 19380, Note_on_c, 1, 58, 127
1, 19428, Note_off_c, 1, 73, 0
1, 19428, Note_off_c, 1, 58, 0
1, 19440, Note_on_c, 1, 66, 127
1, 19440, Note_on_c, 1, 59, 127
1, 19536, Note_off_c, 1, 76, 0
1, 19536, Note_off_c, 1, 59, 0
1, 19560, Note_on_c, 1, 75, 127
1, 19560, Note_on_c, 1, 47, 127
1, 19608, Note_off_c, 1, 75, 0
1, 19632, Note_off_c, 1, 66, 0
1, 19656, Note_off_c, 1, 47, 0
1, 19680, Note_on_c, 1, 75, 127
1, 19680, Note_on_c, 1, 59, 127
1, 19728, Note_off_c, 1, 75, 0
1, 19740, Note_on_c, 1, 76, 127
1, 19776, Note_off_c, 1, 59, 0
1, 19788, Note_off_c, 1, 76, 0
1, 19800, Note_on_c, 1, 78, 127
1, 19800, Note_on_c, 1, 72, 127
1, 19800, Note_on_c, 1, 57, 127
1, 19896, Note_off_c, 1, 78, 0
1, 19896, Note_off_c, 1, 72, 0
1, 19896, Note_off_c, 1, 57, 0
1, 19920, Note_on_c, 1, 71, 127
1, 19920, Note_on_c, 1, 78, 127
1, 19920, Note_on_c, 1, 55, 127
1, 20016, Note_off_c, 1, 71, 0
1, 20016, Note_off_c, 1, 55, 0
1, 20040, Note_on_c, 1, 69, 127
1, 20040, Note_on_c, 1, 57, 127
1, 20088, Note_off_c, 1, 57, 0
1, 20100, Note_on_c, 1, 59, 127
1, 20136, Note_off_c, 1, 69, 0
1, 20148, Note_off_c, 1, 59, 0
1, 20160, Note_on_c, 1, 67, 127
1, 20160, Note_on_c, 1, 60, 127
1, 20208, Note_off_c, 1, 78, 0
1, 20220, Note_on_c, 1, 76, 127
1, 20256, Note_off_c, 1, 67, 0
1, 20256, Note_off_c, 1, 60, 0
1, 20268, Note_off_c, 1, 76, 0
1, 20280, Note_on_c, 1, 78, 127
1, 20280, Note_on_c, 1, 69, 127
1, 20280, Note_on_c, 1, 59, 127
1, 20328, Note_off_c, 1, 78, 0
1, 20328, Note_off_c, 1, 69, 0
1, 20340, Note_on_c, 1, 79, 127
1, 20340, Note_on_c, 1, 71, 127
1, 20376, Note_off_c, 1, 59, 0
1, 20388, Note_off_c, 1, 79, 0
1, 20388, Note_off_c, 1, 71, 0
1, 20400, Note_on_c, 1, 81, 127
1, 20400, Note_on_c, 1, 72, 127
1, 20400, Note_on_c, 1, 57, 127
1, 20496, Note_off_c, 1, 81, 0
1, 20496, Note_off_c, 1, 72, 0
1, 20496, Note_off_c, 1, 57, 0
1, 20520, Note_on_c, 1, 79, 127
1, 20520, Note_on_c, 1, 71, 127
1, 20520, Note_on_c, 1, 59, 127
1, 20616, Note_off_c, 1, 79, 0
1, 20616, Note_off_c, 1, 71, 0
1, 20616, Note_off_c, 1, 59, 0
1, 20640, Note_on_c, 1, 78, 127
1, 20640, Note_on_c, 1, 69, 127
1, 20640, Note_on_c, 1, 60, 127
1, 20736, Note_off_c, 1, 78, 0
1, 20736, Note_off_c, 1, 69, 0
1, 20736, Note_off_c, 1, 60, 0
1, 20760, Note_on_c, 1, 76, 127
1, 20760, Note_on_c, 1, 67, 127
1, 20760, Note_on_c, 1, 57, 127
1, 20856, Note_off_c, 1, 76, 0
1, 20856, Note_off_c, 1, 67, 0
1, 20856, Note_off_c, 1, 57, 0
1, 20880, Note_on_c, 1, 75, 127
1, 20880, Note_on_c, 1, 66, 127
1, 20880, Note_on_c, 1, 59, 127
1, 20928, Note_off_c, 1, 75, 0
1, 20940, Note_on_c, 1, 71, 127
1, 20976, Note_off_c, 1, 66, 0
1, 20988, Note_off_c, 1, 71, 0
1, 21000, Note_on_c, 1, 64, 127
1, 21000, Note_on_c, 1, 72, 127
1, 21072, Note_off_c, 1, 59, 0
1, 21096, Note_off_c, 1, 64, 0
1, 21096, Note_off_c, 1, 72, 0
1, 21120, Note_on_c, 1, 72, 127
1, 21120, Note_on_c, 1, 63, 127
1, 21120, Note_on_c, 1, 47, 127
1, 21216, Note_off_c, 1, 72, 0
1, 21216, Note_off_c, 1, 47, 0
1, 21240, Note_on_c, 1, 71, 127
1, 21240, Note_on_c, 1, 48, 127
1, 21288, Note_off_c, 1, 71, 0
1, 21300, Note_on_c, 1, 69, 127
1, 21312, Note_off_c, 1, 63, 0
1, 21336, Note_off_c, 1, 48, 0
1, 21348, Note_off_c, 1, 69, 0
1, 21360, Note_on_c, 1, 67, 127
1, 21360, Note_on_c, 1, 47, 127
1, 21456, Note_off_c, 1, 67, 0
1, 21456, Note_off_c, 1, 47, 0
1, 21480, Note_on_c, 1, 66, 127
1, 21480, Note_on_c, 1, 45, 127
1, 21576, Note_off_c, 1, 66, 0
1, 21576, Note_off_c, 1, 45, 0
1, 21600, Note_on_c, 1, 71, 127
1, 21600, Note_on_c, 1, 67, 127
1, 21600, Note_on_c, 1, 64, 127
1, 21600, Note_on_c, 1, 43, 127
1, 21696, Note_off_c, 1, 71, 0
1, 21696, Note_off_c, 1, 67, 0
1, 21696, Note_off_c, 1, 64, 0
1, 21696, Note_off_c, 1, 43, 0
1, 21720, Note_on_c, 1, 69, 127
1, 21720, Note_on_c, 1, 66, 127
1, 21720, Note_on_c, 1, 40, 127
1, 21768, Note_off_c, 1, 69, 0
1, 21768, Note_off_c, 1, 66, 0
1, 21780, Note_on_c, 1, 71, 127
1, 21780, Note_on_c, 1, 67, 127
1, 21816, Note_off_c, 1, 40, 0
1, 21828, Note_off_c, 1, 71, 0
1, 21828, Note_off_c, 1, 67, 0
1, 21840, Note_on_c, 1, 69, 127
1, 21840, Note_on_c, 1, 72, 127
1, 21840, Note_on_c, 1, 45, 127
1, 21936, Note_off_c, 1, 69, 0
1, 21936, Note_off_c, 1, 72, 0
1, 21936, Note_off_c, 1, 45, 0
1, 21960, Note_on_c, 1, 71, 127
1, 21960, Note_on_c, 1, 67, 127
1, 21960, Note_on_c, 1, 47, 127
1, 22056, Note_off_c, 1, 71, 0
1, 22056, Note_off_c, 1, 67, 0
1, 22056, Note_off_c, 1, 47, 0
1, 22080, Note_on_c, 1, 66, 127
1, 22080, Note_on_c, 1, 69, 127
1, 22080, Note_on_c, 1, 48, 127
1, 22176, Note_off_c, 1, 66, 0
1, 22176, Note_off_c, 1, 69, 0
1, 22176, Note_off_c, 1, 48, 0
1, 22200, Note_on_c, 1, 64, 127
1, 22200, Note_on_c, 1, 67, 127
1, 22200, Note_on_c, 1, 45, 127
1, 22296, Note_off_c, 1, 64, 0
1, 22296, Note_off_c, 1, 67, 0
1, 22296, Note_off_c, 1, 45, 0
1, 22320, Note_on_c, 1, 67, 127
1, 22320, Note_on_c, 1, 63, 127
1, 22320, Note_on_c, 1, 47, 127
1, 22332, Note_off_c, 1, 67, 0
1, 22335, Note_on_c, 1, 66, 127
1, 22347, Note_off_c, 1, 66, 0
1, 22380, Note_on_c, 1, 64, 127
1, 22428, Note_off_c, 1, 64, 0
1, 22512, Note_off_c, 1, 63, 0
1, 22512, Note_off_c, 1, 47, 0
1, 22560, Note_on_c, 1, 64, 127
1, 22560, Note_on_c, 1, 40, 127
1, 22680, Note_on_c, 1, 59, 127
1, 22776, Note_off_c, 1, 59, 0
1, 22800, Note_on_c, 1, 55, 127
1, 22800, Note_on_c, 1, 47, 127
1, 22944, Note_off_c, 1, 64, 0
1, 22944, Note_off_c, 1, 40, 0
1, 22992, Note_off_c, 1, 55, 0
1, 22992, Note_off_c, 1, 47, 0
1, 23040, Note_on_c, 1, 78, 127
1, 23040, Note_on_c, 1, 75, 127
1, 23040, Note_on_c, 1, 59, 127
1, 23088, Note_off_c, 1, 78, 0
1, 23100, Note_on_c, 1, 79, 127
1, 23136, Note_off_c, 1, 59, 0
1, 23148, Note_off_c, 1, 79, 0
1, 23160, Note_on_c, 1, 81, 127
1, 23160, Note_on_c, 1, 47, 127
1, 23208, Note_off_c, 1, 81, 0
1, 23232, Note_off_c, 1, 75, 0
1, 23256, Note_off_c, 1, 47, 0
1, 23280, Note_on_c, 1, 78, 127
1, 23376, Note_off_c, 1, 78, 0
1, 23400, Note_on_c, 1, 75, 127
1, 23400, Note_on_c, 1, 71, 127
1, 23400, Note_on_c, 1, 69, 127
1, 23496, Note_off_c, 1, 75, 0
1, 23496, Note_off_c, 1, 71, 0
1, 23496, Note_off_c, 1, 69, 0
1, 23520, Note_on_c, 1, 76, 127
1, 23520, Note_on_c, 1, 73, 127
1, 23520, Note_on_c, 1, 67, 127
1, 23616, Note_off_c, 1, 76, 0
1, 23616, Note_off_c, 1, 73, 0
1, 23616, Note_off_c, 1, 67, 0
1, 23640, Note_on_c, 1, 75, 127
1, 23640, Note_on_c, 1, 78, 127
1, 23640, Note_on_c, 1, 66, 127
1, 23736, Note_off_c, 1, 75, 0
1, 23736, Note_off_c, 1, 78, 0
1, 23736, Note_off_c, 1, 66, 0
1, 23760, Note_on_c, 1, 79, 127
1, 23760, Note_on_c, 1, 76, 127
1, 23760, Note_on_c, 1, 64, 127
1, 23808, Note_off_c, 1, 79, 0
1, 23808, Note_off_c, 1, 64, 0
1, 23820, Note_on_c, 1, 81, 127
1, 23820, Note_on_c, 1, 66, 127
1, 23868, Note_off_c, 1, 81, 0
1, 23868, Note_off_c, 1, 66, 0
1, 23880, Note_on_c, 1, 83, 127
1, 23880, Note_on_c, 1, 67, 127
1, 23928, Note_off_c, 1, 83, 0
1, 23928, Note_off_c, 1, 67, 0
1, 23952, Note_off_c, 1, 76, 0
1, 24000, Note_on_c, 1, 76, 127
1, 24000, Note_on_c, 1, 79, 127
1, 24000, Note_on_c, 1, 64, 127
1, 24096, Note_off_c, 1, 64, 0
1, 24120, Note_on_c, 1, 62, 127
1, 24216, Note_off_c, 1, 62, 0
1, 24240, Note_on_c, 1, 61, 127
1, 24336, Note_off_c, 1, 61, 0
1, 24360, Note_on_c, 1, 59, 127
1, 24384, Note_off_c, 1, 76, 0
1, 24456, Note_off_c, 1, 59, 0
1, 24480, Note_on_c, 1, 73, 127
1, 24480, Note_on_c, 1, 57, 127
1, 24528, Note_off_c, 1, 79, 0
1, 24528, Note_off_c, 1, 57, 0
1, 24540, Note_on_c, 1, 78, 127
1, 24588, Note_off_c, 1, 78, 0
1, 24672, Note_off_c, 1, 73, 0
1, 24720, Note_on_c, 1, 79, 127
1, 24720, Note_on_c, 1, 57, 127
1, 24816, Note_off_c, 1, 79, 0
1, 24816, Note_off_c, 1, 57, 0
1, 24840, Note_on_c, 1, 83, 127
1, 24840, Note_on_c, 1, 73, 127
1, 24840, Note_on_c, 1, 55, 127
1, 24840, Note_on_c, 1, 57, 127
1, 24936, Note_off_c, 1, 83, 0
1, 24936, Note_off_c, 1, 73, 0
1, 24936, Note_off_c, 1, 55, 0
1, 24936, Note_off_c, 1, 57, 0
1, 24960, Note_on_c, 1, 74, 127
1, 24960, Note_on_c, 1, 81, 127
1, 24960, Note_on_c, 1, 54, 127
1, 24960, Note_on_c, 1, 59, 127
1, 25056, Note_off_c, 1, 74, 0
1, 25056, Note_off_c, 1, 81, 0
1, 25056, Note_off_c, 1, 54, 0
1, 25056, Note_off_c, 1, 59, 0
1, 25080, Note_on_c, 1, 76, 127
1, 25080, Note_on_c, 1, 79, 127
1, 25080, Note_on_c, 1, 52, 127
1, 25080, Note_on_c, 1, 61, 127
1, 25176, Note_off_c, 1, 76, 0
1, 25176, Note_off_c, 1, 79, 0
1, 25176, Note_off_c, 1, 52, 0
1, 25176, Note_off_c, 1, 61, 0
1, 25200, Note_on_c, 1, 78, 127
1, 25200, Note_on_c, 1, 69, 127
1, 25200, Note_on_c, 1, 50, 127
1, 25200, Note_on_c, 1, 62, 127
1, 25248, Note_off_c, 1, 78, 0
1, 25248, Note_off_c, 1, 50, 0
1, 25260, Note_on_c, 1, 76, 127
1, 25260, Note_on_c, 1, 52, 127
1, 25308, Note_off_c, 1, 76, 0
1, 25308, Note_off_c, 1, 52, 0
1, 25320, Note_on_c, 1, 74, 127
1, 25320, Note_on_c, 1, 54, 127
1, 25368, Note_off_c, 1, 74, 0
1, 25368, Note_off_c, 1, 54, 0
1, 25392, Note_off_c, 1, 69, 0
1, 25392, Note_off_c, 1, 62, 0
1, 25440, Note_on_c, 1, 69, 127
1, 25440, Note_on_c, 1, 78, 127
1, 25440, Note_on_c, 1, 50, 127
1, 25536, Note_off_c, 1, 50, 0
1, 25560, Note_on_c, 1, 48, 127
1, 25656, Note_off_c, 1, 48, 0
1, 25680, Note_on_c, 1, 47, 127
1, 25776, Note_off_c, 1, 47, 0
1, 25800, Note_on_c, 1, 45, 127
1, 25824, Note_off_c, 1, 69, 0
1, 25896, Note_off_c, 1, 45, 0
1, 25920, Note_on_c, 1, 71, 127
1, 25920, Note_on_c, 1, 44, 127
1, 26016, Note_off_c, 1, 78, 0
1, 26016, Note_off_c, 1, 44, 0
1, 26040, Note_on_c, 1, 77, 127
1, 26088, Note_off_c, 1, 77, 0
1, 26100, Note_on_c, 1, 76, 127
1, 26112, Note_off_c, 1, 71, 0
1, 26148, Note_off_c, 1, 76, 0
1, 26160, Note_on_c, 1, 77, 127
1, 26160, Note_on_c, 1, 44, 127
1, 26160, Note_on_c, 1, 50, 127
1, 26256, Note_off_c, 1, 44, 0
1, 26256, Note_off_c, 1, 50, 0
1, 26273, Note_off_c, 1, 77, 0
1, 26280, Note_on_c, 1, 83, 127
1, 26280, Note_on_c, 1, 44, 127
1, 26280, Note_on_c, 1, 50, 127
1, 26376, Note_off_c, 1, 44, 0
1, 26376, Note_off_c, 1, 50, 0
1, 26393, Note_off_c, 1, 83, 0
1, 26400, Note_on_c, 1, 81, 127
1, 26400, Note_on_c, 1, 50, 127
1, 26400, Note_on_c, 1, 44, 127
1, 26424, Note_off_c, 1, 81, 0
1, 26430, Note_on_c, 1, 80, 127
1, 26496, Note_off_c, 1, 50, 0
1, 26496, Note_off_c, 1, 44, 0
1, 26502, Note_off_c, 1, 80, 0
1, 26520, Note_on_c, 1, 77, 127
1, 26520, Note_on_c, 1, 52, 127
1, 26520, Note_on_c, 1, 44, 127
1, 26544, Note_off_c, 1, 77, 0
1, 26550, Note_on_c, 1, 76, 127
1, 26616, Note_off_c, 1, 52, 0
1, 26616, Note_off_c, 1, 44, 0
1, 26622, Note_off_c, 1, 76, 0
1, 26640, Note_on_c, 1, 74, 127
1, 26640, Note_on_c, 1, 71, 127
1, 26640, Note_on_c, 1, 44, 127
1, 26640, Note_on_c, 1, 53, 127
1, 26688, Note_off_c, 1, 74, 0
1, 26700, Note_on_c, 1, 77, 127
1, 26736, Note_off_c, 1, 44, 0
1, 26736, Note_off_c, 1, 53, 0
1, 26748, Note_off_c, 1, 77, 0
1, 26760, Note_on_c, 1, 76, 127
1, 26760, Note_on_c, 1, 49, 127
1, 26832, Note_off_c, 1, 71, 0
1, 26856, Note_off_c, 1, 76, 0
1, 26856, Note_off_c, 1, 49, 0
1, 26880, Note_on_c, 1, 77, 127
1, 26880, Note_on_c, 1, 44, 127
1, 26880, Note_on_c, 1, 50, 127
1, 26976, Note_off_c, 1, 44, 0
1, 26976, Note_off_c, 1, 50, 0
1, 26993, Note_off_c, 1, 77, 0
1, 27000, Note_on_c, 1, 76, 127
1, 27000, Note_on_c, 1, 44, 127
1, 27000, Note_on_c, 1, 52, 127
1, 27012, Note_off_c, 1, 76, 0
1, 27015, Note_on_c, 1, 74, 127
1, 27027, Note_off_c, 1, 74, 0
1, 27060, Note_on_c, 1, 73, 127
1, 27096, Note_off_c, 1, 44, 0
1, 27096, Note_off_c, 1, 52, 0
1, 27108, Note_off_c, 1, 73, 0
1, 27120, Note_on_c, 1, 74, 127
1, 27120, Note_on_c, 1, 53, 127
1, 27120, Note_on_c, 1, 44, 127
1, 27216, Note_off_c, 1, 74, 0
1, 27216, Note_off_c, 1, 53, 0
1, 27216, Note_off_c, 1, 44, 0
1, 27240, Note_on_c, 1, 74, 127
1, 27240, Note_on_c, 1, 71, 127
1, 27240, Note_on_c, 1, 44, 127
1, 27264, Note_off_c, 1, 74, 0
1, 27270, Note_on_c, 1, 76, 127
1, 27294, Note_off_c, 1, 76, 0
1, 27300, Note_on_c, 1, 77, 127
1, 27336, Note_off_c, 1, 71, 0
1, 27336, Note_off_c, 1, 44, 0
1, 27348, Note_off_c, 1, 77, 0
1, 27360, Note_on_c, 1, 76, 127
1, 27360, Note_on_c, 1, 72, 127
1, 27360, Note_on_c, 1, 45, 127
1, 27456, Note_off_c, 1, 76, 0
1, 27456, Note_off_c, 1, 45, 0
1, 27480, Note_on_c, 1, 74, 127
1, 27480, Note_on_c, 1, 57, 127
1, 27528, Note_off_c, 1, 74, 0
1, 27552, Note_off_c, 1, 72, 0
1, 27576, Note_off_c, 1, 57, 0
1, 27600, Note_on_c, 1, 74, 127
1, 27600, Note_on_c, 1, 77, 127
1, 27600, Note_on_c, 1, 50, 127
1, 27696, Note_off_c, 1, 74, 0
1, 27696, Note_off_c, 1, 77, 0
1, 27696, Note_off_c, 1, 50, 0
1, 27720, Note_on_c, 1, 72, 127
1, 27720, Note_on_c, 1, 76, 127
1, 27720, Note_on_c, 1, 52, 127
1, 27816, Note_off_c, 1, 72, 0
1, 27816, Note_off_c, 1, 76, 0
1, 27816, Note_off_c, 1, 52, 0
1, 27840, Note_on_c, 1, 71, 127
1, 27840, Note_on_c, 1, 74, 127
1, 27840, Note_on_c, 1, 53, 127
1, 27936, Note_off_c, 1, 71, 0
1, 27936, Note_off_c, 1, 74, 0
1, 27936, Note_off_c, 1, 53, 0
1, 27960, Note_on_c, 1, 69, 127
1, 27960, Note_on_c, 1, 72, 127
1, 27960, Note_on_c, 1, 50, 127
1, 28056, Note_off_c, 1, 69, 0
1, 28056, Note_off_c, 1, 72, 0
1, 28056, Note_off_c, 1, 50, 0
1, 28080, Note_on_c, 1, 71, 127
1, 28080, Note_on_c, 1, 68, 127
1, 28080, Note_on_c, 1, 52, 127
1, 28128, Note_off_c, 1, 71, 0
1, 28140, Note_on_c, 1, 74, 127
1, 28176, Note_off_c, 1, 52, 0
1, 28188, Note_off_c, 1, 74, 0
1, 28200, Note_on_c, 1, 72, 127
1, 28200, Note_on_c, 1, 40, 127
1, 28248, Note_off_c, 1, 72, 0
1, 28272, Note_off_c, 1, 68, 0
1, 28296, Note_off_c, 1, 40, 0
1, 28320, Note_on_c, 1, 69, 127
1, 28320, Note_on_c, 1, 45, 127
1, 28416, Note_off_c, 1, 45, 0
1, 28440, Note_on_c, 1, 43, 127
1, 28536, Note_off_c, 1, 43, 0
1, 28560, Note_on_c, 1, 42, 127
1, 28656, Note_off_c, 1, 42, 0
1, 28680, Note_on_c, 1, 40, 127
1, 28776, Note_off_c, 1, 40, 0
1, 28800, Note_on_c, 1, 66, 127
1, 28800, Note_on_c, 1, 38, 127
1, 28848, Note_off_c, 1, 69, 0
1, 28860, Note_on_c, 1, 67, 127
1, 28896, Note_off_c, 1, 66, 0
1, 28908, Note_off_c, 1, 67, 0
1, 28992, Note_off_c, 1, 38, 0
1, 29040, Note_on_c, 1, 69, 127
1, 29088, Note_off_c, 1, 69, 0
1, 29100, Note_on_c, 1, 71, 127
1, 29148, Note_off_c, 1, 71, 0
1, 29160, Note_on_c, 1, 66, 127
1, 29160, Note_on_c, 1, 72, 127
1, 29160, Note_on_c, 1, 50, 127
1, 29256, Note_off_c, 1, 66, 0
1, 29256, Note_off_c, 1, 72, 0
1, 29256, Note_off_c, 1, 50, 0
1, 29280, Note_on_c, 1, 67, 127
1, 29280, Note_on_c, 1, 72, 127
1, 29280, Note_on_c, 1, 52, 127
1, 29376, Note_off_c, 1, 67, 0
1, 29376, Note_off_c, 1, 52, 0
1, 29400, Note_on_c, 1, 69, 127
1, 29400, Note_on_c, 1, 54, 127
1, 29496, Note_off_c, 1, 69, 0
1, 29496, Note_off_c, 1, 54, 0
1, 29520, Note_on_c, 1, 62, 127
1, 29520, Note_on_c, 1, 55, 127
1, 29616, Note_off_c, 1, 72, 0
1, 29616, Note_off_c, 1, 55, 0
1, 29640, Note_on_c, 1, 71, 127
1, 29640, Note_on_c, 1, 57, 127
1, 29688, Note_off_c, 1, 71, 0
1, 29712, Note_off_c, 1, 62, 0
1, 29736, Note_off_c, 1, 57, 0
1, 29760, Note_on_c, 1, 71, 127
1, 29760, Note_on_c, 1, 55, 127
1, 29808, Note_off_c, 1, 71, 0
1, 29820, Note_on_c, 1, 73, 127
1, 29856, Note_off_c, 1, 55, 0
1, 29868, Note_off_c, 1, 73, 0
1, 29880, Note_on_c, 1, 69, 127
1, 29880, Note_on_c, 1, 74, 127
1, 29880, Note_on_c, 1, 54, 127
1, 29976, Note_off_c, 1, 69, 0
1, 29976, Note_off_c, 1, 74, 0
1, 29976, Note_off_c, 1, 54, 0
1, 30000, Note_on_c, 1, 68, 127
1, 30000, Note_on_c, 1, 74, 127
1, 30000, Note_on_c, 1, 52, 127
1, 30096, Note_off_c, 1, 68, 0
1, 30096, Note_off_c, 1, 52, 0
1, 30120, Note_on_c, 1, 69, 127
1, 30120, Note_on_c, 1, 54, 127
1, 30168, Note_off_c, 1, 69, 0
1, 30168, Note_off_c, 1, 54, 0
1, 30180, Note_on_c, 1, 71, 127
1, 30180, Note_on_c, 1, 56, 127
1, 30192, Note_off_c, 1, 74, 0
1, 30228, Note_off_c, 1, 71, 0
1, 30228, Note_off_c, 1, 56, 0
1, 30240, Note_on_c, 1, 73, 127
1, 30240, Note_on_c, 1, 64, 127
1, 30240, Note_on_c, 1, 57, 127
1, 30288, Note_off_c, 1, 73, 0
1, 30300, Note_on_c, 1, 71, 127
1, 30336, Note_off_c, 1, 57, 0
1, 30348, Note_off_c, 1, 71, 0
1, 30360, Note_on_c, 1, 69, 127
1, 30360, Note_on_c, 1, 59, 127
1, 30408, Note_off_c, 1, 69, 0
1, 30432, Note_off_c, 1, 64, 0
1, 30456, Note_off_c, 1, 59, 0
1, 30480, Note_on_c, 1, 73, 127
1, 30480, Note_on_c, 1, 57, 127
1, 30528, Note_off_c, 1, 73, 0
1, 30540, Note_on_c, 1, 75, 127
1, 30576, Note_off_c, 1, 57, 0
1, 30588, Note_off_c, 1, 75, 0
1, 30600, Note_on_c, 1, 76, 127
1, 30600, Note_on_c, 1, 71, 127
1, 30600, Note_on_c, 1, 55, 127
1, 30696, Note_off_c, 1, 76, 0
1, 30696, Note_off_c, 1, 71, 0
1, 30696, Note_off_c, 1, 55, 0
1, 30720, Note_on_c, 1, 70, 127
1, 30720, Note_on_c, 1, 76, 127
1, 30720, Note_on_c, 1, 54, 127
1, 30816, Note_off_c, 1, 70, 0
1, 30816, Note_off_c, 1, 54, 0
1, 30840, Note_on_c, 1, 71, 127
1, 30840, Note_on_c, 1, 56, 127
1, 30888, Note_off_c, 1, 71, 0
1, 30888, Note_off_c, 1, 56, 0
1, 30900, Note_on_c, 1, 73, 127
1, 30900, Note_on_c, 1, 58, 127
1, 30948, Note_off_c, 1, 73, 0
1, 30948, Note_off_c, 1, 58, 0
1, 30960, Note_on_c, 1, 66, 127
1, 30960, Note_on_c, 1, 59, 127
1, 31056, Note_off_c, 1, 76, 0
1, 31056, Note_off_c, 1, 59, 0
1, 31080, Note_on_c, 1, 75, 127
1, 31080, Note_on_c, 1, 47, 127
1, 31128, Note_off_c, 1, 75, 0
1, 31152, Note_off_c, 1, 66, 0
1, 31176, Note_off_c, 1, 47, 0
1, 31200, Note_on_c, 1, 75, 127
1, 31200, Note_on_c, 1, 59, 127
1, 31248, Note_off_c, 1, 75, 0
1, 31260, Note_on_c, 1, 76, 127
1, 31296, Note_off_c, 1, 59, 0
1, 31308, Note_off_c, 1, 76, 0
1, 31320, Note_on_c, 1, 78, 127
1, 31320, Note_on_c, 1, 72, 127
1, 31320, Note_on_c, 1, 57, 127
1, 31416, Note_off_c, 1, 78, 0
1, 31416, Note_off_c, 1, 72, 0
1, 31416, Note_off_c, 1, 57, 0
1, 31440, Note_on_c, 1, 71, 127
1, 31440, Note_on_c, 1, 78, 127
1, 31440, Note_on_c, 1, 55, 127
1, 31536, Note_off_c, 1, 71, 0
1, 31536, Note_off_c, 1, 55, 0
1, 31560, Note_on_c, 1, 69, 127
1, 31560, Note_on_c, 1, 57, 127
1, 31608, Note_off_c, 1, 57, 0
1, 31620, Note_on_c, 1, 59, 127
1, 31656, Note_off_c, 1, 69, 0
1, 31668, Note_off_c, 1, 59, 0
1, 31680, Note_on_c, 1, 67, 127
1, 31680, Note_on_c, 1, 60, 127
1, 31728, Note_off_c, 1, 78, 0
1, 31740, Note_on_c, 1, 76, 127
1, 31776, Note_off_c, 1, 67, 0
1, 31776, Note_off_c, 1, 60, 0
1, 31788, Note_off_c, 1, 76, 0
1, 31800, Note_on_c, 1, 78, 127
1, 31800, Note_on_c, 1, 69, 127
1, 31800, Note_on_c, 1, 59, 127
1, 31848, Note_off_c, 1, 78, 0
1, 31848, Note_off_c, 1, 69, 0
1, 31860, Note_on_c, 1, 79, 127
1, 31860, Note_on_c, 1, 71, 127
1, 31896, Note_off_c, 1, 59, 0
1, 31908, Note_off_c, 1, 79, 0
1, 31908, Note_off_c, 1, 71, 0
1, 31920, Note_on_c, 1, 81, 127
1, 31920, Note_on_c, 1, 72, 127
1, 31920, Note_on_c, 1, 57, 127
1, 32016, Note_off_c, 1, 81, 0
1, 32016, Note_off_c, 1, 72, 0
1, 32016, Note_off_c, 1, 57, 0
1, 32040, Note_on_c, 1, 79, 127
1, 32040, Note_on_c, 1, 71, 127
1, 32040, Note_on_c, 1, 59, 127
1, 32136, Note_off_c, 1, 79, 0
1, 32136, Note_off_c, 1, 71, 0
1, 32136, Note_off_c, 1, 59, 0
1, 32160, Note_on_c, 1, 78, 127
1, 32160, Note_on_c, 1, 69, 127
1, 32160, Note_on_c, 1, 60, 127
1, 32256, Note_off_c, 1, 78, 0
1, 32256, Note_off_c, 1, 69, 0
1, 32256, Note_off_c, 1, 60, 0
1, 32280, Note_on_c, 1, 76, 127
1, 32280, Note_on_c, 1, 67, 127
1, 32280, Note_on_c, 1, 57, 127
1, 32376, Note_off_c, 1, 76, 0
1, 32376, Note_off_c, 1, 67, 0
1, 32376, Note_off_c, 1, 57, 0
1, 32400, Note_on_c, 1, 75, 127
1, 32400, Note_on_c, 1, 66, 127
1, 32400, Note_on_c, 1, 59, 127
1, 32448, Note_off_c, 1, 75, 0
1, 32460, Note_on_c, 1, 71, 127
1, 32496, Note_off_c, 1, 66, 0
1, 32508, Note_off_c, 1, 71, 0
1, 32520, Note_on_c, 1, 64, 127
1, 32520, Note_on_c, 1, 72, 127
1, 32592, Note_off_c, 1, 59, 0
1, 32616, Note_off_c, 1, 64, 0
1, 32616, Note_off_c, 1, 72, 0
1, 32640, Note_on_c, 1, 72, 127
1, 32640, Note_on_c, 1, 63, 127
1, 32640, Note_on_c, 1, 47, 127
1, 32736, Note_off_c, 1, 72, 0
1, 32736, Note_off_c, 1, 47, 0
1, 32760, Note_on_c, 1, 71, 127
1, 32760, Note_on_c, 1, 48, 127
1, 32808, Note_off_c, 1, 71, 0
1, 32820, Note_on_c, 1, 69, 127
1, 32832, Note_off_c, 1, 63, 0
1, 32856, Note_off_c, 1, 48, 0
1, 32868, Note_off_c, 1, 69, 0
1, 32880, Note_on_c, 1, 67, 127
1, 32880, Note_on_c, 1, 47, 127
1, 32976, Note_off_c, 1, 67, 0
1, 32976, Note_off_c, 1, 47, 0
1, 33000, Note_on_c, 1, 66, 127
1, 33000, Note_on_c, 1, 45, 127
1, 33096, Note_off_c, 1, 66, 0
1, 33096, Note_off_c, 1, 45, 0
1, 33120, Note_on_c, 1, 71, 127
1, 33120, Note_on_c, 1, 67, 127
1, 33120, Note_on_c, 1, 64, 127
1, 33120, Note_on_c, 1, 43, 127
1, 33216, Note_off_c, 1, 71, 0
1, 33216, Note_off_c, 1, 67, 0
1, 33216, Note_off_c, 1, 64, 0
1, 33216, Note_off_c, 1, 43, 0
1, 33240, Note_on_c, 1, 69, 127
1, 33240, Note_on_c, 1, 66, 127
1, 33240, Note_on_c, 1, 40, 127
1, 33288, Note_off_c, 1, 69, 0
1, 33288, Note_off_c, 1, 66, 0
1, 33300, Note_on_c, 1, 71, 127
1, 33300, Note_on_c, 1, 67, 127
1, 33336, Note_off_c, 1, 40, 0
1, 33348, Note_off_c, 1, 71, 0
1, 33348, Note_off_c, 1, 67, 0
1, 33360, Note_on_c, 1, 69, 127
1, 33360, Note_on_c, 1, 72, 127
1, 33360, Note_on_c, 1, 45, 127
1, 33456, Note_off_c, 1, 69, 0
1, 33456, Note_off_c, 1, 72, 0
1, 33456, Note_off_c, 1, 45, 0
1, 33480, Note_on_c, 1, 71, 127
1, 33480, Note_on_c, 1, 67, 127
1, 33480, Note_on_c, 1, 47, 127
1, 33576, Note_off_c, 1, 71, 0
1, 33576, Note_off_c, 1, 67, 0
1, 33576, Note_off_c, 1, 47, 0
1, 33600, Note_on_c, 1, 66, 127
1, 33600, Note_on_c, 1, 69, 127
1, 33600, Note_on_c, 1, 48, 127
1, 33696, Note_off_c, 1, 66, 0
1, 33696, Note_off_c, 1, 69, 0
1, 33696, Note_off_c, 1, 48, 0
1, 33720, Note_on_c, 1, 64, 127
1, 33720, Note_on_c, 1, 67, 127
1, 33720, Note_on_c, 1, 45, 127
1, 33816, Note_off_c, 1, 64, 0
1, 33816, Note_off_c, 1, 67, 0
1, 33816, Note_off_c, 1, 45, 0
1, 33840, Note_on_c, 1, 67, 127
1, 33840, Note_on_c, 1, 63, 127
1, 33840, Note_on_c, 1, 47, 127
1, 33852, Note_off_c, 1, 67, 0
1, 33855, Note_on_c, 1, 66, 127
1, 33867, Note_off_c, 1, 66, 0
1, 33900, Note_on_c, 1, 64, 127
1, 33948, Note_off_c, 1, 64, 0
1, 34032, Note_off_c, 1, 63, 0
1, 34032, Note_off_c, 1, 47, 0
1, 34080, Note_on_c, 1, 64, 127
1, 34080, Note_on_c, 1, 40, 127
1, 34200, Note_on_c, 1, 59, 127
1, 34296, Note_off_c, 1, 59, 0
1, 34320, Note_on_c, 1, 55, 127
1, 34320, Note_on_c, 1, 47, 127
1, 34464, Note_off_c, 1, 64, 0
1, 34464, Note_off_c, 1, 40, 0
1, 34512, Note_off_c, 1, 55, 0
1, 34512, Note_off_c, 1, 47, 0
1, 34512, End_track
0, 0, End_of_file